500 0 5 0           
7 Unknown 11 ACIS 5.0 NT 24 Thu Mar 25 17:25:24 1999 
-1 9.9999999999999995e-007 1e-010 
body $-1 $5 $-1 $6 #
body $-1 $7 $-1 $8 #
body $-1 $9 $-1 $10 #
body $-1 $11 $-1 $12 #
body $-1 $13 $-1 $14 #
lump $-1 $-1 $15 $0 #
transform $-1 1 0 0 0 1 0 0 0 1 55.009002960295419 34.958677173506992 13.414500181313215 1 rotate no_reflect no_shear #
lump $-1 $-1 $16 $1 #
transform $-1 1 0 0 0 1 0 0 0 1 55.009002960295419 34.958677173506992 13.414500181313215 1 rotate no_reflect no_shear #
lump $-1 $-1 $17 $2 #
transform $-1 1 0 0 0 1 0 0 0 1 55.009002960295419 34.958677173506992 13.414500181313215 1 rotate no_reflect no_shear #
lump $-1 $-1 $18 $3 #
transform $-1 1 0 0 0 1 0 0 0 1 55.009002960295419 34.958677173506992 13.414500181313215 1 rotate no_reflect no_shear #
lump $-1 $-1 $19 $4 #
transform $-1 1 0 0 0 1 0 0 0 1 55.009002960295419 34.958677173506992 13.414500181313215 1 rotate no_reflect no_shear #
shell $-1 $-1 $-1 $20 $-1 $5 #
shell $-1 $-1 $-1 $21 $-1 $7 #
shell $-1 $-1 $-1 $22 $-1 $9 #
shell $-1 $-1 $-1 $23 $-1 $11 #
shell $-1 $-1 $-1 $24 $-1 $13 #
face $-1 $25 $26 $15 $-1 $27 forward single #
face $-1 $28 $29 $16 $-1 $30 forward single #
face $-1 $31 $32 $17 $-1 $33 reversed single #
face $-1 $34 $35 $18 $-1 $36 reversed single #
face $-1 $37 $38 $19 $-1 $39 reversed single #
face $-1 $40 $41 $15 $-1 $42 reversed single #
loop $-1 $-1 $43 $20 #
plane-surface $-1 0 0 13.414500181313215 0 0 1 1 0 0 forward_v I I I I #
face $-1 $44 $45 $16 $-1 $46 forward single #
loop $-1 $-1 $47 $21 #
plane-surface $-1 -40.717440040254075 -127.22754156377161 69.035289832283766 -1 0 0 0 -0.83867057594974714 0.54463902268945019 forward_v I I I I #
face $-1 $48 $49 $17 $-1 $50 reversed single #
loop $-1 $51 $52 $22 #
cone-surface $-1 -52.150690376287152 -31.902533749604356 10.18673704583278 0 0.83867057594974714 -0.54463902268945019 1 0 0 1 I I 0 1 1 forward I I I I #
face $-1 $53 $54 $18 $-1 $55 reversed single #
loop $-1 $56 $57 $23 #
cone-surface $-1 -47.863221500274747 -31.902533749604356 10.18673704583278 0 0.83867057594974714 -0.54463902268945019 1 0 0 1 I I 0 1 1 forward I I I I #
face $-1 $58 $59 $19 $-1 $60 reversed single #
loop $-1 $61 $62 $24 #
cone-surface $-1 -43.575752624262336 -31.902533749604356 10.18673704583278 0 0.83867057594974714 -0.54463902268945019 1 0 0 1 I I 0 1 1 forward I I I I #
face $-1 $63 $64 $15 $-1 $65 reversed single #
loop $-1 $-1 $66 $25 #
plane-surface $-1 0 0 -13.414500181313215 0 0 1 1 0 0 forward_v I I I I #
coedge $-1 $67 $68 $69 $70 forward $26 $-1 #
face $-1 $71 $72 $16 $-1 $73 forward single #
loop $-1 $-1 $74 $28 #
plane-surface $-1 -47.863221500274747 -34.958677173506999 9.1151906094510267 0 -0.83867057594974714 0.54463902268945019 1 0 0 forward_v I I I I #
coedge $-1 $75 $76 $77 $78 reversed $29 $-1 #
face $-1 $79 $80 $17 $-1 $81 forward single #
loop $-1 $82 $83 $31 #
cone-surface $-1 -52.150690376287152 -29.823057133547803 8.8363091849387203 0 0.83867057594974714 -0.54463902268945019 0.5 0 0 1 I I -0.70710678118654879 0.70710678118654635 0.5 forward I I I I #
loop $-1 $-1 $84 $22 #
coedge $-1 $52 $52 $85 $86 reversed $32 $-1 #
face $-1 $87 $88 $18 $-1 $89 reversed single #
loop $-1 $90 $91 $34 #
cone-surface $-1 -47.863221500274747 -29.823057133547803 8.8363091849387203 0 0.83867057594974714 -0.54463902268945019 0.5 0 0 1 I I -0.70710678118654879 0.70710678118654635 0.5 forward I I I I #
loop $-1 $-1 $92 $23 #
coedge $-1 $57 $57 $93 $94 reversed $35 $-1 #
face $-1 $95 $96 $19 $-1 $97 reversed single #
loop $-1 $98 $99 $37 #
cone-surface $-1 -43.575752624262336 -29.823057133547803 8.8363091849387203 0 0.83867057594974714 -0.54463902268945019 0.5 0 0 1 I I -0.70710678118654879 0.70710678118654635 0.5 forward I I I I #
loop $-1 $-1 $100 $24 #
coedge $-1 $62 $62 $101 $102 reversed $38 $-1 #
face $-1 $103 $104 $15 $-1 $105 reversed single #
loop $-1 $-1 $106 $40 #
plane-surface $-1 0 -34.958677173506992 0 0 1 0 0 0 1 forward_v I I I I #
coedge $-1 $107 $108 $109 $110 forward $41 $-1 #
coedge $-1 $111 $43 $112 $113 forward $26 $-1 #
coedge $-1 $43 $111 $114 $115 forward $26 $-1 #
coedge $-1 $116 $117 $43 $70 reversed $118 $-1 #
edge $-1 $119 -34.958677173506992 $120 34.958677173506992 $69 $121 forward 7 unknown #
face $-1 $122 $123 $16 $-1 $124 reversed single #
loop $-1 $-1 $125 $44 #
plane-surface $-1 0 0 13.414500181313215 0 0 1 1 0 0 forward_v I I I I #
coedge $-1 $126 $127 $125 $128 reversed $45 $-1 #
coedge $-1 $76 $47 $127 $129 forward $29 $-1 #
coedge $-1 $47 $75 $130 $131 reversed $29 $-1 #
coedge $-1 $132 $125 $47 $78 forward $72 $-1 #
edge $-1 $133 -31.447097800020707 $134 -28.655093608378813 $77 $135 forward 7 unknown #
face $-1 $136 $137 $17 $-1 $138 forward single #
loop $-1 $-1 $139 $48 #
plane-surface $-1 -40.717440040254075 -127.22754156377161 69.035289832283766 -1 0 0 0 -0.83867057594974714 0.54463902268945019 forward_v I I I I #
loop $-1 $-1 $140 $31 #
coedge $-1 $83 $83 $84 $141 forward $49 $-1 #
coedge $-1 $84 $84 $83 $141 reversed $51 $-1 #
coedge $-1 $85 $85 $52 $86 forward $137 $-1 #
edge $-1 $142 5.9944162894154966e-016 $142 6.2831853071796013 $85 $143 forward 7 unknown #
face $-1 $144 $145 $18 $-1 $146 reversed single #
loop $-1 $147 $148 $53 #
cone-surface $-1 -52.150690376287152 -31.902533749604356 10.18673704583278 0 0.83867057594974714 -0.54463902268945019 1 0 0 1 I I 0 1 1 forward I I I I #
loop $-1 $-1 $149 $34 #
coedge $-1 $91 $91 $92 $150 forward $54 $-1 #
coedge $-1 $92 $92 $91 $150 reversed $56 $-1 #
coedge $-1 $93 $93 $57 $94 forward $151 $-1 #
edge $-1 $152 5.9944162894154966e-016 $152 6.2831853071796013 $93 $153 forward 7 unknown #
face $-1 $154 $155 $19 $-1 $156 reversed single #
loop $-1 $157 $158 $58 #
cone-surface $-1 -47.863221500274747 -31.902533749604356 10.18673704583278 0 0.83867057594974714 -0.54463902268945019 1 0 0 1 I I 0 1 1 forward I I I I #
loop $-1 $-1 $159 $37 #
coedge $-1 $99 $99 $100 $160 forward $59 $-1 #
coedge $-1 $100 $100 $99 $160 reversed $61 $-1 #
coedge $-1 $101 $101 $62 $102 forward $161 $-1 #
edge $-1 $162 5.9944162894154966e-016 $162 6.2831853071796013 $101 $163 forward 7 unknown #
face $-1 $164 $165 $15 $-1 $166 reversed single #
loop $-1 $-1 $167 $63 #
plane-surface $-1 -55.009002960295419 0 0 1 0 0 0 0 -1 forward_v I I I I #
coedge $-1 $168 $114 $169 $170 forward $64 $-1 #
coedge $-1 $171 $66 $168 $172 forward $41 $-1 #
coedge $-1 $66 $171 $173 $174 forward $41 $-1 #
coedge $-1 $117 $116 $66 $110 reversed $118 $-1 #
edge $-1 $175 -34.958677173506992 $176 34.958677173506992 $109 $177 forward 7 unknown #
coedge $-1 $68 $67 $178 $179 forward $26 $-1 #
coedge $-1 $180 $181 $67 $113 reversed $165 $-1 #
edge $-1 $120 -55.009002960295419 $182 55.009002960295419 $112 $183 forward 7 unknown #
coedge $-1 $106 $184 $68 $115 reversed $64 $-1 #
edge $-1 $185 -55.009002960295419 $119 55.009002960295419 $114 $186 forward 7 unknown #
coedge $-1 $109 $69 $184 $187 forward $118 $-1 #
coedge $-1 $69 $109 $180 $188 reversed $118 $-1 #
loop $-1 $-1 $116 $164 #
vertex $-1 $70 $189 #
vertex $-1 $70 $190 #
straight-curve $-1 55.009002960295419 0 13.414500181313215 0 1 0 I I #
face $-1 $191 $192 $16 $-1 $193 reversed single #
loop $-1 $-1 $130 $71 #
plane-surface $-1 0 -34.958677173506992 0 0 1 0 0 0 1 forward_v I I I I #
coedge $-1 $77 $194 $74 $128 forward $72 $-1 #
coedge $-1 $195 $74 $196 $197 reversed $45 $-1 #
coedge $-1 $74 $195 $75 $129 reversed $45 $-1 #
edge $-1 $198 -31.077392210158045 $133 -16.785829290116702 $125 $199 forward 7 unknown #
edge $-1 $133 -5.126338869100616 $200 -1.2808562293387176e-014 $75 $201 forward 7 unknown #
coedge $-1 $202 $203 $76 $131 forward $123 $-1 #
edge $-1 $134 21.103144734828668 $200 25.402454306690846 $130 $204 forward 7 unknown #
coedge $-1 $205 $77 $203 $206 forward $72 $-1 #
vertex $-1 $128 $207 #
vertex $-1 $206 $208 #
straight-curve $-1 -40.717440040254075 -63.613770781885805 13.414500181313215 0 -1 0 I I #
face $-1 $209 $210 $17 $-1 $211 forward single #
loop $-1 $212 $85 $79 #
plane-surface $-1 -47.863221500274747 -34.958677173506999 9.1151906094510267 0 -0.83867057594974714 0.54463902268945019 1 0 0 forward_v I I I I #
coedge $-1 $213 $214 $215 $216 reversed $80 $-1 #
coedge $-1 $140 $140 $-1 $217 forward $82 $-1 #
edge $-1 $218 0 $218 6.2831853071796004 $83 $219 forward 7 unknown #
vertex $-1 $86 $220 #
ellipse-curve $-1 -52.150690376287152 -33.562675077686045 11.264845395382123 0 0.83867057594974714 -0.54463902268945019 1 0 0 1 I I #
face $-1 $221 $222 $18 $-1 $223 forward single #
loop $-1 $224 $225 $87 #
cone-surface $-1 -52.150690376287152 -29.823057133547803 8.8363091849387203 0 0.83867057594974714 -0.54463902268945019 0.5 0 0 1 I I -0.70710678118654879 0.70710678118654635 0.5 forward I I I I #
loop $-1 $-1 $226 $53 #
coedge $-1 $148 $148 $227 $228 reversed $88 $-1 #
coedge $-1 $149 $149 $-1 $229 forward $90 $-1 #
edge $-1 $230 0 $230 6.2831853071796004 $91 $231 forward 7 unknown #
loop $-1 $232 $93 $221 #
vertex $-1 $94 $233 #
ellipse-curve $-1 -47.863221500274747 -33.562675077686045 11.264845395382123 0 0.83867057594974714 -0.54463902268945019 1 0 0 1 I I #
face $-1 $234 $235 $19 $-1 $236 reversed single #
loop $-1 $237 $238 $95 #
cone-surface $-1 -47.863221500274747 -29.823057133547803 8.8363091849387203 0 0.83867057594974714 -0.54463902268945019 0.5 0 0 1 I I -0.70710678118654879 0.70710678118654635 0.5 forward I I I I #
loop $-1 $-1 $239 $58 #
coedge $-1 $158 $158 $240 $241 reversed $96 $-1 #
coedge $-1 $159 $159 $-1 $242 forward $98 $-1 #
edge $-1 $243 0 $243 6.2831853071796004 $99 $244 forward 7 unknown #
loop $-1 $245 $101 $246 #
vertex $-1 $102 $247 #
ellipse-curve $-1 -43.575752624262336 -33.562675077686045 11.264845395382123 0 0.83867057594974714 -0.54463902268945019 1 0 0 1 I I #
face $-1 $-1 $118 $15 $-1 $248 reversed single #
loop $-1 $-1 $180 $103 #
plane-surface $-1 0 34.958677173506992 0 0 -1 0 0 0 -1 forward_v I I I I #
coedge $-1 $249 $178 $181 $250 forward $104 $-1 #
coedge $-1 $184 $106 $107 $172 reversed $64 $-1 #
coedge $-1 $178 $249 $106 $170 reversed $104 $-1 #
edge $-1 $185 -13.414500181313215 $251 13.414500181313215 $169 $252 forward 7 unknown #
coedge $-1 $108 $107 $249 $253 forward $41 $-1 #
edge $-1 $176 -55.009002960295419 $251 55.009002960295419 $168 $254 forward 7 unknown #
coedge $-1 $181 $180 $108 $174 reversed $165 $-1 #
edge $-1 $255 -55.009002960295419 $175 55.009002960295419 $173 $256 forward 7 unknown #
vertex $-1 $110 $257 #
vertex $-1 $187 $258 #
straight-curve $-1 55.009002960295419 0 -13.414500181313215 0 -1 0 I I #
coedge $-1 $167 $169 $111 $179 reversed $104 $-1 #
edge $-1 $182 -34.958677173506992 $185 34.958677173506992 $178 $259 forward 7 unknown #
coedge $-1 $173 $112 $117 $188 forward $165 $-1 #
coedge $-1 $112 $173 $167 $250 reversed $165 $-1 #
vertex $-1 $113 $260 #
straight-curve $-1 0 34.958677173506992 13.414500181313215 -1 0 0 I I #
coedge $-1 $114 $168 $116 $187 reversed $64 $-1 #
vertex $-1 $179 $261 #
straight-curve $-1 0 -34.958677173506992 13.414500181313215 1 0 0 I I #
edge $-1 $119 -13.414500181313215 $176 13.414500181313215 $116 $262 forward 7 unknown #
edge $-1 $120 -13.414500181313215 $175 13.414500181313215 $117 $263 forward 7 unknown #
point $-1 55.009002960295419 -34.958677173506992 13.414500181313215 #
point $-1 55.009002960295419 34.958677173506992 13.414500181313215 #
face $-1 $264 $265 $16 $-1 $266 reversed single #
loop $-1 $-1 $267 $122 #
plane-surface $-1 0 0 -13.414500181313215 0 0 1 1 0 0 forward_v I I I I #
coedge $-1 $125 $268 $269 $270 forward $72 $-1 #
coedge $-1 $127 $126 $202 $271 reversed $45 $-1 #
coedge $-1 $269 $272 $126 $197 forward $265 $-1 #
edge $-1 $273 -5.6976088059873984 $198 -0.57126993688679606 $196 $274 forward 7 unknown #
vertex $-1 $197 $275 #
straight-curve $-1 -23.931610750137374 -32.166672981865098 13.414500181313215 1 0 0 I I #
vertex $-1 $271 $276 #
straight-curve $-1 -40.717440040254075 -34.958677173506999 9.1151906094510267 0 -0.54463902268945019 -0.83867057594974714 I I #
coedge $-1 $277 $130 $195 $271 forward $123 $-1 #
coedge $-1 $130 $278 $132 $206 reversed $123 $-1 #
straight-curve $-1 -40.717440040254075 -34.958677173506992 34.517644916141883 0 0 -1 I I #
coedge $-1 $268 $132 $279 $280 forward $72 $-1 #
edge $-1 $134 -40.717440040254075 $281 55.009002960295419 $203 $282 forward 7 unknown #
point $-1 -40.717440040254075 -32.166672981865098 13.414500181313215 #
point $-1 -40.717440040254075 -34.958677173506992 13.414500181313215 #
face $-1 $283 $284 $17 $-1 $285 reversed single #
loop $-1 $-1 $286 $136 #
plane-surface $-1 0 0 13.414500181313215 0 0 1 1 0 0 forward_v I I I I #
loop $-1 $-1 $287 $79 #
coedge $-1 $214 $139 $288 $289 forward $80 $-1 #
coedge $-1 $139 $213 $290 $291 reversed $80 $-1 #
coedge $-1 $292 $286 $139 $216 forward $210 $-1 #
edge $-1 $293 -31.447097800020707 $294 -28.655093608378813 $215 $295 forward 7 unknown #
edge $-1 $296 1 $296 0 $140 $-1 forward 7 unknown #
vertex $-1 $141 $297 #
ellipse-curve $-1 -52.150690376287152 -30.242392421522673 9.1086286962834446 0 -0.83867057594974714 0.54463902268945019 1 0 0 1 I I #
point $-1 -51.150690376287152 -33.562675077686038 11.264845395382117 #
face $-1 $298 $151 $18 $-1 $299 forward single #
loop $-1 $-1 $300 $144 #
plane-surface $-1 -40.717440040254075 -127.22754156377161 69.035289832283766 -1 0 0 0 -0.83867057594974714 0.54463902268945019 forward_v I I I I #
loop $-1 $-1 $301 $87 #
coedge $-1 $225 $225 $226 $302 forward $145 $-1 #
coedge $-1 $226 $226 $225 $302 reversed $147 $-1 #
coedge $-1 $227 $227 $148 $228 forward $232 $-1 #
edge $-1 $303 5.9944162894154966e-016 $303 6.2831853071796013 $227 $304 forward 7 unknown #
edge $-1 $305 1 $305 0 $149 $-1 forward 7 unknown #
vertex $-1 $150 $306 #
ellipse-curve $-1 -47.863221500274747 -30.242392421522673 9.1086286962834446 0 -0.83867057594974714 0.54463902268945019 1 0 0 1 I I #
loop $-1 $307 $227 $221 #
point $-1 -46.863221500274747 -33.562675077686038 11.264845395382117 #
face $-1 $308 $309 $19 $-1 $310 reversed single #
loop $-1 $311 $312 $154 #
cone-surface $-1 -52.150690376287152 -31.902533749604356 10.18673704583278 0 0.83867057594974714 -0.54463902268945019 1 0 0 1 I I 0 1 1 forward I I I I #
loop $-1 $-1 $313 $95 #
coedge $-1 $238 $238 $239 $314 forward $155 $-1 #
coedge $-1 $239 $239 $238 $314 reversed $157 $-1 #
coedge $-1 $240 $240 $158 $241 forward $245 $-1 #
edge $-1 $315 5.9944162894154966e-016 $315 6.2831853071796013 $240 $316 forward 7 unknown #
edge $-1 $317 1 $317 0 $159 $-1 forward 7 unknown #
vertex $-1 $160 $318 #
ellipse-curve $-1 -43.575752624262336 -30.242392421522673 9.1086286962834446 0 -0.83867057594974714 0.54463902268945019 1 0 0 1 I I #
loop $-1 $319 $240 $246 #
face $-1 $320 $161 $19 $-1 $321 forward single #
point $-1 -42.575752624262336 -33.562675077686038 11.264845395382117 #
plane-surface $-1 55.009002960295419 0 0 -1 0 0 0 0 1 forward_v I I I I #
coedge $-1 $169 $167 $171 $253 reversed $104 $-1 #
edge $-1 $182 -13.414500181313215 $255 13.414500181313215 $181 $322 forward 7 unknown #
vertex $-1 $253 $323 #
straight-curve $-1 -55.009002960295419 -34.958677173506992 0 0 0 -1 I I #
edge $-1 $251 -34.958677173506992 $255 34.958677173506992 $249 $324 forward 7 unknown #
straight-curve $-1 0 -34.958677173506992 -13.414500181313215 -1 0 0 I I #
vertex $-1 $174 $325 #
straight-curve $-1 0 34.958677173506992 -13.414500181313215 1 0 0 I I #
point $-1 55.009002960295419 34.958677173506992 -13.414500181313215 #
point $-1 55.009002960295419 -34.958677173506992 -13.414500181313215 #
straight-curve $-1 -55.009002960295419 0 13.414500181313215 0 -1 0 I I #
point $-1 -55.009002960295419 34.958677173506992 13.414500181313215 #
point $-1 -55.009002960295419 -34.958677173506992 13.414500181313215 #
straight-curve $-1 55.009002960295419 -34.958677173506992 0 0 0 -1 I I #
straight-curve $-1 55.009002960295419 34.958677173506992 0 0 0 -1 I I #
face $-1 $326 $327 $16 $-1 $328 reversed single #
loop $-1 $-1 $196 $191 #
plane-surface $-1 -55.009002960295419 0 0 1 0 0 0 0 -1 forward_v I I I I #
coedge $-1 $329 $330 $331 $332 forward $192 $-1 #
coedge $-1 $194 $205 $333 $334 forward $72 $-1 #
coedge $-1 $335 $196 $194 $270 reversed $265 $-1 #
edge $-1 $336 -34.958677173506992 $198 32.166672981865098 $269 $337 forward 7 unknown #
edge $-1 $200 16.785829290116702 $273 31.077392210158045 $202 $338 forward 7 unknown #
coedge $-1 $196 $339 $277 $340 reversed $265 $-1 #
vertex $-1 $340 $341 #
straight-curve $-1 -55.009002960295419 -31.855537081747208 13.89360746830484 0 0.54463902268945019 0.83867057594974714 I I #
point $-1 -55.009002960295419 -32.166672981865098 13.414500181313215 #
point $-1 -40.717440040254075 -34.958677173506992 9.1151906094510373 #
coedge $-1 $342 $202 $272 $340 forward $123 $-1 #
coedge $-1 $203 $342 $343 $344 reversed $123 $-1 #
coedge $-1 $343 $345 $205 $280 reversed $346 $-1 #
edge $-1 $281 -34.958677173506992 $347 34.958677173506992 $279 $348 forward 7 unknown #
vertex $-1 $280 $349 #
straight-curve $-1 0 -34.958677173506992 13.414500181313215 1 0 0 I I #
face $-1 $350 $351 $17 $-1 $352 reversed single #
loop $-1 $-1 $290 $209 #
plane-surface $-1 0 -34.958677173506992 0 0 1 0 0 0 1 forward_v I I I I #
coedge $-1 $215 $353 $287 $354 forward $210 $-1 #
coedge $-1 $355 $288 $286 $354 reversed $212 $-1 #
coedge $-1 $287 $356 $213 $289 reversed $212 $-1 #
edge $-1 $293 -5.126338869100616 $357 -1.2808562293387176e-014 $213 $358 forward 7 unknown #
coedge $-1 $359 $360 $214 $291 forward $284 $-1 #
edge $-1 $294 21.103144734828668 $357 25.402454306690846 $290 $361 forward 7 unknown #
coedge $-1 $362 $215 $360 $363 forward $210 $-1 #
vertex $-1 $354 $364 #
vertex $-1 $363 $365 #
straight-curve $-1 -40.717440040254075 -63.613770781885805 13.414500181313215 0 -1 0 I I #
vertex $-1 $217 $366 #
point $-1 -51.150690376287152 -30.242392421522673 9.1086286962834446 #
face $-1 $367 $368 $18 $-1 $369 forward single #
plane-surface $-1 -47.863221500274747 -34.958677173506999 9.1151906094510267 0 -0.83867057594974714 0.54463902268945019 1 0 0 forward_v I I I I #
coedge $-1 $370 $371 $372 $373 reversed $222 $-1 #
coedge $-1 $301 $301 $-1 $374 forward $224 $-1 #
edge $-1 $375 0 $375 6.2831853071796004 $225 $376 forward 7 unknown #
vertex $-1 $228 $377 #
ellipse-curve $-1 -52.150690376287152 -33.562675077686045 11.264845395382123 0 0.83867057594974714 -0.54463902268945019 1 0 0 1 I I #
vertex $-1 $229 $378 #
point $-1 -46.863221500274747 -30.242392421522673 9.1086286962834446 #
loop $-1 $-1 $379 $221 #
face $-1 $246 $380 $19 $-1 $381 forward single #
loop $-1 $382 $383 $234 #
cone-surface $-1 -52.150690376287152 -29.823057133547803 8.8363091849387203 0 0.83867057594974714 -0.54463902268945019 0.5 0 0 1 I I -0.70710678118654879 0.70710678118654635 0.5 forward I I I I #
loop $-1 $-1 $384 $154 #
coedge $-1 $312 $312 $385 $386 reversed $235 $-1 #
coedge $-1 $313 $313 $-1 $387 forward $237 $-1 #
edge $-1 $388 0 $388 6.2831853071796004 $238 $389 forward 7 unknown #
vertex $-1 $241 $390 #
ellipse-curve $-1 -47.863221500274747 -33.562675077686045 11.264845395382123 0 0.83867057594974714 -0.54463902268945019 1 0 0 1 I I #
vertex $-1 $242 $391 #
point $-1 -42.575752624262336 -30.242392421522673 9.1086286962834446 #
loop $-1 $392 $385 $246 #
face $-1 $393 $394 $19 $-1 $395 forward single #
plane-surface $-1 -47.863221500274747 -34.958677173506999 9.1151906094510267 0 -0.83867057594974714 0.54463902268945019 1 0 0 forward_v I I I I #
straight-curve $-1 -55.009002960295419 34.958677173506992 0 0 0 -1 I I #
point $-1 -55.009002960295419 -34.958677173506992 -13.414500181313215 #
straight-curve $-1 -55.009002960295419 0 -13.414500181313215 0 1 0 I I #
point $-1 -55.009002960295419 34.958677173506992 -13.414500181313215 #
face $-1 $-1 $346 $16 $-1 $396 reversed single #
loop $-1 $-1 $397 $264 #
plane-surface $-1 0 34.958677173506992 0 0 -1 0 0 0 -1 forward_v I I I I #
coedge $-1 $398 $267 $342 $399 forward $192 $-1 #
coedge $-1 $267 $398 $400 $401 forward $192 $-1 #
coedge $-1 $345 $343 $267 $332 reversed $346 $-1 #
edge $-1 $402 -34.958677173506992 $403 34.958677173506992 $331 $404 forward 7 unknown #
coedge $-1 $397 $405 $268 $334 reversed $327 $-1 #
edge $-1 $347 -55.009002960295419 $336 55.009002960295419 $333 $406 forward 7 unknown #
coedge $-1 $339 $269 $405 $407 forward $265 $-1 #
vertex $-1 $334 $408 #
straight-curve $-1 -55.009002960295419 0 13.414500181313215 0 -1 0 I I #
straight-curve $-1 -23.931610750137374 -34.958677173506992 9.1151906094510373 -1 0 0 I I #
coedge $-1 $272 $335 $398 $409 reversed $265 $-1 #
edge $-1 $273 -9.1151906094510373 $410 13.414500181313215 $272 $411 forward 7 unknown #
point $-1 -55.009002960295419 -34.958677173506992 9.1151906094510373 #
coedge $-1 $278 $277 $329 $399 reversed $123 $-1 #
coedge $-1 $331 $279 $278 $344 forward $346 $-1 #
edge $-1 $281 -13.414500181313215 $403 13.414500181313215 $343 $412 forward 7 unknown #
coedge $-1 $279 $331 $397 $413 reversed $346 $-1 #
loop $-1 $-1 $343 $326 #
vertex $-1 $280 $414 #
straight-curve $-1 55.009002960295419 0 13.414500181313215 0 1 0 I I #
point $-1 55.009002960295419 -34.958677173506992 13.414500181313215 #
face $-1 $415 $416 $17 $-1 $417 reversed single #
loop $-1 $-1 $418 $283 #
plane-surface $-1 0 0 -13.414500181313215 0 0 1 1 0 0 forward_v I I I I #
coedge $-1 $286 $419 $420 $421 forward $210 $-1 #
edge $-1 $422 -31.077392210158045 $293 -16.785829290116702 $286 $423 forward 7 unknown #
coedge $-1 $356 $287 $424 $425 reversed $212 $-1 #
coedge $-1 $288 $355 $359 $426 reversed $212 $-1 #
vertex $-1 $426 $427 #
straight-curve $-1 -40.717440040254075 -34.958677173506999 9.1151906094510267 0 -0.54463902268945019 -0.83867057594974714 I I #
coedge $-1 $428 $290 $356 $426 forward $284 $-1 #
coedge $-1 $290 $429 $292 $363 reversed $284 $-1 #
straight-curve $-1 -40.717440040254075 -34.958677173506992 34.517644916141883 0 0 -1 I I #
coedge $-1 $419 $292 $430 $431 forward $210 $-1 #
edge $-1 $294 -40.717440040254075 $432 55.009002960295419 $360 $433 forward 7 unknown #
point $-1 -40.717440040254075 -32.166672981865098 13.414500181313215 #
point $-1 -40.717440040254075 -34.958677173506992 13.414500181313215 #
point $-1 -52.150690376287152 -29.403721845572932 8.563989673593996 #
face $-1 $434 $435 $18 $-1 $436 reversed single #
loop $-1 $-1 $437 $298 #
plane-surface $-1 0 0 13.414500181313215 0 0 1 1 0 0 forward_v I I I I #
coedge $-1 $371 $300 $438 $439 forward $222 $-1 #
coedge $-1 $300 $370 $440 $441 reversed $222 $-1 #
coedge $-1 $442 $437 $300 $373 forward $368 $-1 #
edge $-1 $443 -31.447097800020707 $444 -28.655093608378813 $372 $445 forward 7 unknown #
edge $-1 $446 1 $446 0 $301 $-1 forward 7 unknown #
vertex $-1 $302 $447 #
ellipse-curve $-1 -52.150690376287152 -30.242392421522673 9.1086286962834446 0 -0.83867057594974714 0.54463902268945019 1 0 0 1 I I #
point $-1 -51.150690376287152 -33.562675077686038 11.264845395382117 #
point $-1 -47.863221500274747 -29.403721845572932 8.563989673593996 #
coedge $-1 $448 $438 $437 $449 reversed $307 $-1 #
loop $-1 $-1 $450 $308 #
plane-surface $-1 -40.717440040254075 -127.22754156377161 69.035289832283766 -1 0 0 0 -0.83867057594974714 0.54463902268945019 forward_v I I I I #
loop $-1 $-1 $451 $234 #
coedge $-1 $383 $383 $384 $452 forward $309 $-1 #
coedge $-1 $384 $384 $383 $452 reversed $311 $-1 #
coedge $-1 $385 $385 $312 $386 forward $319 $-1 #
edge $-1 $453 5.9944162894154966e-016 $453 6.2831853071796013 $385 $454 forward 7 unknown #
edge $-1 $455 1 $455 0 $313 $-1 forward 7 unknown #
vertex $-1 $314 $456 #
ellipse-curve $-1 -47.863221500274747 -30.242392421522673 9.1086286962834446 0 -0.83867057594974714 0.54463902268945019 1 0 0 1 I I #
point $-1 -46.863221500274747 -33.562675077686038 11.264845395382117 #
point $-1 -43.575752624262336 -29.403721845572932 8.563989673593996 #
loop $-1 $-1 $457 $246 #
face $-1 $458 $459 $19 $-1 $460 reversed single #
loop $-1 $-1 $461 $320 #
plane-surface $-1 0 0 13.414500181313215 0 0 1 1 0 0 forward_v I I I I #
plane-surface $-1 55.009002960295419 0 0 -1 0 0 0 0 1 forward_v I I I I #
coedge $-1 $400 $333 $345 $413 forward $327 $-1 #
coedge $-1 $330 $329 $339 $409 forward $192 $-1 #
edge $-1 $403 -55.009002960295419 $410 55.009002960295419 $342 $462 forward 7 unknown #
coedge $-1 $405 $397 $330 $401 reversed $327 $-1 #
edge $-1 $463 -55.009002960295419 $402 55.009002960295419 $400 $464 forward 7 unknown #
vertex $-1 $332 $465 #
vertex $-1 $344 $466 #
straight-curve $-1 55.009002960295419 0 -13.414500181313215 0 -1 0 I I #
coedge $-1 $333 $400 $335 $407 reversed $327 $-1 #
straight-curve $-1 0 34.958677173506992 13.414500181313215 -1 0 0 I I #
edge $-1 $336 -13.414500181313215 $463 13.414500181313215 $405 $467 forward 7 unknown #
point $-1 -55.009002960295419 34.958677173506992 13.414500181313215 #
edge $-1 $410 -34.958677173506992 $463 34.958677173506992 $339 $468 forward 7 unknown #
vertex $-1 $409 $469 #
straight-curve $-1 -55.009002960295419 -34.958677173506992 0 0 0 -1 I I #
straight-curve $-1 55.009002960295419 -34.958677173506992 0 0 0 -1 I I #
edge $-1 $347 -13.414500181313215 $402 13.414500181313215 $345 $470 forward 7 unknown #
point $-1 55.009002960295419 34.958677173506992 13.414500181313215 #
face $-1 $471 $472 $17 $-1 $473 reversed single #
loop $-1 $-1 $424 $350 #
plane-surface $-1 -55.009002960295419 0 0 1 0 0 0 0 -1 forward_v I I I I #
coedge $-1 $474 $475 $476 $477 forward $351 $-1 #
coedge $-1 $353 $362 $478 $479 forward $210 $-1 #
coedge $-1 $480 $424 $353 $421 reversed $416 $-1 #
edge $-1 $481 -34.958677173506992 $422 32.166672981865098 $420 $482 forward 7 unknown #
vertex $-1 $425 $483 #
straight-curve $-1 -23.931610750137374 -32.166672981865098 13.414500181313215 1 0 0 I I #
coedge $-1 $420 $484 $355 $425 forward $416 $-1 #
edge $-1 $485 -5.6976088059873984 $422 -0.57126993688679606 $424 $486 forward 7 unknown #
edge $-1 $357 16.785829290116702 $485 31.077392210158045 $359 $487 forward 7 unknown #
point $-1 -40.717440040254075 -34.958677173506992 9.1151906094510373 #
coedge $-1 $488 $359 $484 $489 forward $284 $-1 #
coedge $-1 $360 $488 $490 $491 reversed $284 $-1 #
coedge $-1 $490 $492 $362 $431 reversed $493 $-1 #
edge $-1 $432 -34.958677173506992 $494 34.958677173506992 $430 $495 forward 7 unknown #
vertex $-1 $431 $496 #
straight-curve $-1 0 -34.958677173506992 13.414500181313215 1 0 0 I I #
face $-1 $497 $498 $18 $-1 $499 reversed single #
loop $-1 $-1 $440 $367 #
plane-surface $-1 0 -34.958677173506992 0 0 1 0 0 0 1 forward_v I I I I #
coedge $-1 $372 $500 $379 $449 forward $368 $-1 #
coedge $-1 $379 $501 $370 $439 reversed $307 $-1 #
edge $-1 $443 -5.126338869100616 $502 -1.2808562293387176e-014 $370 $503 forward 7 unknown #
coedge $-1 $504 $505 $371 $441 forward $435 $-1 #
edge $-1 $444 21.103144734828668 $502 25.402454306690846 $440 $506 forward 7 unknown #
coedge $-1 $507 $372 $505 $508 forward $368 $-1 #
vertex $-1 $449 $509 #
vertex $-1 $508 $510 #
straight-curve $-1 -40.717440040254075 -63.613770781885805 13.414500181313215 0 -1 0 I I #
vertex $-1 $374 $511 #
point $-1 -51.150690376287152 -30.242392421522673 9.1086286962834446 #
coedge $-1 $501 $379 $512 $513 reversed $307 $-1 #
edge $-1 $514 -31.077392210158045 $443 -16.785829290116702 $437 $515 forward 7 unknown #
coedge $-1 $516 $517 $518 $519 reversed $380 $-1 #
coedge $-1 $451 $451 $-1 $520 forward $382 $-1 #
edge $-1 $521 0 $521 6.2831853071796004 $383 $522 forward 7 unknown #
vertex $-1 $386 $523 #
ellipse-curve $-1 -52.150690376287152 -33.562675077686045 11.264845395382123 0 0.83867057594974714 -0.54463902268945019 1 0 0 1 I I #
vertex $-1 $387 $524 #
point $-1 -46.863221500274747 -30.242392421522673 9.1086286962834446 #
coedge $-1 $525 $526 $461 $527 reversed $392 $-1 #
face $-1 $528 $529 $19 $-1 $530 reversed single #
loop $-1 $-1 $531 $393 #
plane-surface $-1 0 -34.958677173506992 0 0 1 0 0 0 1 forward_v I I I I #
coedge $-1 $518 $532 $457 $527 forward $394 $-1 #
straight-curve $-1 0 -34.958677173506992 -13.414500181313215 -1 0 0 I I #
vertex $-1 $401 $533 #
straight-curve $-1 0 34.958677173506992 -13.414500181313215 1 0 0 I I #
point $-1 55.009002960295419 34.958677173506992 -13.414500181313215 #
point $-1 55.009002960295419 -34.958677173506992 -13.414500181313215 #
straight-curve $-1 -55.009002960295419 34.958677173506992 0 0 0 -1 I I #
straight-curve $-1 -55.009002960295419 0 -13.414500181313215 0 1 0 I I #
point $-1 -55.009002960295419 -34.958677173506992 -13.414500181313215 #
straight-curve $-1 55.009002960295419 34.958677173506992 0 0 0 -1 I I #
face $-1 $-1 $493 $17 $-1 $534 reversed single #
loop $-1 $-1 $535 $415 #
plane-surface $-1 0 34.958677173506992 0 0 -1 0 0 0 -1 forward_v I I I I #
coedge $-1 $536 $418 $488 $537 forward $351 $-1 #
coedge $-1 $418 $536 $538 $539 forward $351 $-1 #
coedge $-1 $492 $490 $418 $477 reversed $493 $-1 #
edge $-1 $540 -34.958677173506992 $541 34.958677173506992 $476 $542 forward 7 unknown #
coedge $-1 $535 $543 $419 $479 reversed $472 $-1 #
edge $-1 $494 -55.009002960295419 $481 55.009002960295419 $478 $544 forward 7 unknown #
coedge $-1 $545 $420 $543 $546 forward $416 $-1 #
vertex $-1 $479 $547 #
straight-curve $-1 -55.009002960295419 0 13.414500181313215 0 -1 0 I I #
point $-1 -55.009002960295419 -32.166672981865098 13.414500181313215 #
coedge $-1 $424 $545 $428 $489 reversed $416 $-1 #
vertex $-1 $489 $548 #
straight-curve $-1 -55.009002960295419 -31.855537081747208 13.89360746830484 0 0.54463902268945019 0.83867057594974714 I I #
straight-curve $-1 -23.931610750137374 -34.958677173506992 9.1151906094510373 -1 0 0 I I #
coedge $-1 $429 $428 $474 $537 reversed $284 $-1 #
edge $-1 $485 -9.1151906094510373 $549 13.414500181313215 $484 $550 forward 7 unknown #
coedge $-1 $476 $430 $429 $491 forward $493 $-1 #
edge $-1 $432 -13.414500181313215 $541 13.414500181313215 $490 $551 forward 7 unknown #
coedge $-1 $430 $476 $535 $552 reversed $493 $-1 #
loop $-1 $-1 $490 $471 #
vertex $-1 $431 $553 #
straight-curve $-1 55.009002960295419 0 13.414500181313215 0 1 0 I I #
point $-1 55.009002960295419 -34.958677173506992 13.414500181313215 #
face $-1 $554 $555 $18 $-1 $556 reversed single #
loop $-1 $-1 $557 $434 #
plane-surface $-1 0 0 -13.414500181313215 0 0 1 1 0 0 forward_v I I I I #
coedge $-1 $437 $558 $559 $560 forward $368 $-1 #
coedge $-1 $438 $448 $504 $561 reversed $307 $-1 #
vertex $-1 $561 $562 #
straight-curve $-1 -40.717440040254075 -34.958677173506999 9.1151906094510267 0 -0.54463902268945019 -0.83867057594974714 I I #
coedge $-1 $563 $440 $501 $561 forward $435 $-1 #
coedge $-1 $440 $564 $442 $508 reversed $435 $-1 #
straight-curve $-1 -40.717440040254075 -34.958677173506992 34.517644916141883 0 0 -1 I I #
coedge $-1 $558 $442 $565 $566 forward $368 $-1 #
edge $-1 $444 -40.717440040254075 $567 55.009002960295419 $505 $568 forward 7 unknown #
point $-1 -40.717440040254075 -32.166672981865098 13.414500181313215 #
point $-1 -40.717440040254075 -34.958677173506992 13.414500181313215 #
point $-1 -52.150690376287152 -29.403721845572932 8.563989673593996 #
coedge $-1 $559 $569 $448 $513 forward $555 $-1 #
edge $-1 $570 -5.6976088059873984 $514 -0.57126993688679606 $512 $571 forward 7 unknown #
vertex $-1 $513 $572 #
straight-curve $-1 -23.931610750137374 -32.166672981865098 13.414500181313215 1 0 0 I I #
coedge $-1 $517 $450 $526 $573 forward $380 $-1 #
coedge $-1 $450 $516 $531 $574 reversed $380 $-1 #
coedge $-1 $575 $461 $450 $519 forward $394 $-1 #
edge $-1 $576 -31.447097800020707 $577 -28.655093608378813 $518 $578 forward 7 unknown #
edge $-1 $579 1 $579 0 $451 $-1 forward 7 unknown #
vertex $-1 $452 $580 #
ellipse-curve $-1 -52.150690376287152 -30.242392421522673 9.1086286962834446 0 -0.83867057594974714 0.54463902268945019 1 0 0 1 I I #
point $-1 -51.150690376287152 -33.562675077686038 11.264845395382117 #
point $-1 -47.863221500274747 -29.403721845572932 8.563989673593996 #
coedge $-1 $581 $457 $582 $583 reversed $392 $-1 #
coedge $-1 $457 $581 $516 $573 reversed $392 $-1 #
edge $-1 $584 -31.077392210158045 $576 -16.785829290116702 $461 $585 forward 7 unknown #
face $-1 $586 $587 $19 $-1 $588 reversed single #
loop $-1 $-1 $589 $458 #
plane-surface $-1 0 0 -13.414500181313215 0 0 1 1 0 0 forward_v I I I I #
coedge $-1 $590 $591 $517 $574 forward $459 $-1 #
coedge $-1 $461 $592 $593 $594 forward $394 $-1 #
point $-1 -55.009002960295419 34.958677173506992 -13.414500181313215 #
plane-surface $-1 55.009002960295419 0 0 -1 0 0 0 0 1 forward_v I I I I #
coedge $-1 $538 $478 $492 $552 forward $472 $-1 #
coedge $-1 $475 $474 $545 $595 forward $351 $-1 #
edge $-1 $541 -55.009002960295419 $549 55.009002960295419 $488 $596 forward 7 unknown #
coedge $-1 $543 $535 $475 $539 reversed $472 $-1 #
edge $-1 $597 -55.009002960295419 $540 55.009002960295419 $538 $598 forward 7 unknown #
vertex $-1 $477 $599 #
vertex $-1 $491 $600 #
straight-curve $-1 55.009002960295419 0 -13.414500181313215 0 -1 0 I I #
coedge $-1 $478 $538 $480 $546 reversed $472 $-1 #
straight-curve $-1 0 34.958677173506992 13.414500181313215 -1 0 0 I I #
coedge $-1 $484 $480 $536 $595 reversed $416 $-1 #
edge $-1 $481 -13.414500181313215 $597 13.414500181313215 $543 $601 forward 7 unknown #
point $-1 -55.009002960295419 34.958677173506992 13.414500181313215 #
point $-1 -55.009002960295419 -34.958677173506992 9.1151906094510373 #
vertex $-1 $595 $602 #
straight-curve $-1 -55.009002960295419 -34.958677173506992 0 0 0 -1 I I #
straight-curve $-1 55.009002960295419 -34.958677173506992 0 0 0 -1 I I #
edge $-1 $494 -13.414500181313215 $540 13.414500181313215 $492 $603 forward 7 unknown #
point $-1 55.009002960295419 34.958677173506992 13.414500181313215 #
face $-1 $604 $605 $18 $-1 $606 reversed single #
loop $-1 $-1 $512 $497 #
plane-surface $-1 -55.009002960295419 0 0 1 0 0 0 0 -1 forward_v I I I I #
coedge $-1 $607 $608 $609 $610 forward $498 $-1 #
coedge $-1 $500 $507 $611 $612 forward $368 $-1 #
coedge $-1 $613 $512 $500 $560 reversed $555 $-1 #
edge $-1 $614 -34.958677173506992 $514 32.166672981865098 $559 $615 forward 7 unknown #
edge $-1 $502 16.785829290116702 $570 31.077392210158045 $504 $616 forward 7 unknown #
point $-1 -40.717440040254075 -34.958677173506992 9.1151906094510373 #
coedge $-1 $617 $504 $569 $618 forward $435 $-1 #
coedge $-1 $505 $617 $619 $620 reversed $435 $-1 #
coedge $-1 $619 $621 $507 $566 reversed $622 $-1 #
edge $-1 $567 -34.958677173506992 $623 34.958677173506992 $565 $624 forward 7 unknown #
vertex $-1 $566 $625 #
straight-curve $-1 0 -34.958677173506992 13.414500181313215 1 0 0 I I #
coedge $-1 $512 $626 $563 $618 reversed $555 $-1 #
vertex $-1 $618 $627 #
straight-curve $-1 -55.009002960295419 -31.855537081747208 13.89360746830484 0 0.54463902268945019 0.83867057594974714 I I #
point $-1 -55.009002960295419 -32.166672981865098 13.414500181313215 #
edge $-1 $576 -5.126338869100616 $628 -1.2808562293387176e-014 $516 $629 forward 7 unknown #
edge $-1 $577 21.103144734828668 $628 25.402454306690846 $531 $630 forward 7 unknown #
coedge $-1 $631 $518 $591 $632 forward $394 $-1 #
vertex $-1 $527 $633 #
vertex $-1 $632 $634 #
straight-curve $-1 -40.717440040254075 -63.613770781885805 13.414500181313215 0 -1 0 I I #
vertex $-1 $520 $635 #
point $-1 -51.150690376287152 -30.242392421522673 9.1086286962834446 #
coedge $-1 $526 $525 $590 $636 reversed $392 $-1 #
coedge $-1 $593 $637 $525 $583 forward $587 $-1 #
edge $-1 $638 -5.6976088059873984 $584 -0.57126993688679606 $582 $639 forward 7 unknown #
vertex $-1 $583 $640 #
straight-curve $-1 -23.931610750137374 -32.166672981865098 13.414500181313215 1 0 0 I I #
face $-1 $641 $642 $19 $-1 $643 reversed single #
loop $-1 $-1 $582 $528 #
plane-surface $-1 -55.009002960295419 0 0 1 0 0 0 0 -1 forward_v I I I I #
coedge $-1 $644 $645 $646 $647 forward $529 $-1 #
coedge $-1 $648 $531 $581 $636 forward $459 $-1 #
coedge $-1 $531 $649 $575 $632 reversed $459 $-1 #
coedge $-1 $532 $631 $650 $651 forward $394 $-1 #
coedge $-1 $652 $582 $532 $594 reversed $587 $-1 #
edge $-1 $653 -34.958677173506992 $584 32.166672981865098 $593 $654 forward 7 unknown #
edge $-1 $549 -34.958677173506992 $597 34.958677173506992 $545 $655 forward 7 unknown #
straight-curve $-1 0 -34.958677173506992 -13.414500181313215 -1 0 0 I I #
vertex $-1 $539 $656 #
straight-curve $-1 0 34.958677173506992 -13.414500181313215 1 0 0 I I #
point $-1 55.009002960295419 34.958677173506992 -13.414500181313215 #
point $-1 55.009002960295419 -34.958677173506992 -13.414500181313215 #
straight-curve $-1 -55.009002960295419 34.958677173506992 0 0 0 -1 I I #
point $-1 -55.009002960295419 -34.958677173506992 -13.414500181313215 #
straight-curve $-1 55.009002960295419 34.958677173506992 0 0 0 -1 I I #
face $-1 $-1 $622 $18 $-1 $657 reversed single #
loop $-1 $-1 $658 $554 #
plane-surface $-1 0 34.958677173506992 0 0 -1 0 0 0 -1 forward_v I I I I #
coedge $-1 $659 $557 $617 $660 forward $498 $-1 #
coedge $-1 $557 $659 $661 $662 forward $498 $-1 #
coedge $-1 $621 $619 $557 $610 reversed $622 $-1 #
edge $-1 $663 -34.958677173506992 $664 34.958677173506992 $609 $665 forward 7 unknown #
coedge $-1 $658 $666 $558 $612 reversed $605 $-1 #
edge $-1 $623 -55.009002960295419 $614 55.009002960295419 $611 $667 forward 7 unknown #
coedge $-1 $626 $559 $666 $668 forward $555 $-1 #
vertex $-1 $612 $669 #
straight-curve $-1 -55.009002960295419 0 13.414500181313215 0 -1 0 I I #
straight-curve $-1 -23.931610750137374 -34.958677173506992 9.1151906094510373 -1 0 0 I I #
coedge $-1 $564 $563 $607 $660 reversed $435 $-1 #
edge $-1 $570 -9.1151906094510373 $670 13.414500181313215 $569 $671 forward 7 unknown #
coedge $-1 $609 $565 $564 $620 forward $622 $-1 #
edge $-1 $567 -13.414500181313215 $664 13.414500181313215 $619 $672 forward 7 unknown #
coedge $-1 $565 $609 $658 $673 reversed $622 $-1 #
loop $-1 $-1 $619 $604 #
vertex $-1 $566 $674 #
straight-curve $-1 55.009002960295419 0 13.414500181313215 0 1 0 I I #
point $-1 55.009002960295419 -34.958677173506992 13.414500181313215 #
coedge $-1 $569 $613 $659 $675 reversed $555 $-1 #
point $-1 -55.009002960295419 -34.958677173506992 9.1151906094510373 #
vertex $-1 $636 $676 #
straight-curve $-1 -40.717440040254075 -34.958677173506999 9.1151906094510267 0 -0.54463902268945019 -0.83867057594974714 I I #
straight-curve $-1 -40.717440040254075 -34.958677173506992 34.517644916141883 0 0 -1 I I #
coedge $-1 $592 $575 $677 $678 forward $394 $-1 #
edge $-1 $577 -40.717440040254075 $679 55.009002960295419 $591 $680 forward 7 unknown #
point $-1 -40.717440040254075 -32.166672981865098 13.414500181313215 #
point $-1 -40.717440040254075 -34.958677173506992 13.414500181313215 #
point $-1 -52.150690376287152 -29.403721845572932 8.563989673593996 #
edge $-1 $628 16.785829290116702 $638 31.077392210158045 $590 $681 forward 7 unknown #
coedge $-1 $582 $682 $648 $683 reversed $587 $-1 #
vertex $-1 $683 $684 #
straight-curve $-1 -55.009002960295419 -31.855537081747208 13.89360746830484 0 0.54463902268945019 0.83867057594974714 I I #
point $-1 -55.009002960295419 -32.166672981865098 13.414500181313215 #
face $-1 $-1 $685 $19 $-1 $686 reversed single #
loop $-1 $-1 $687 $586 #
plane-surface $-1 0 34.958677173506992 0 0 -1 0 0 0 -1 forward_v I I I I #
coedge $-1 $688 $589 $689 $690 forward $529 $-1 #
coedge $-1 $589 $688 $691 $692 forward $529 $-1 #
coedge $-1 $693 $694 $589 $647 reversed $685 $-1 #
edge $-1 $695 -34.958677173506992 $696 34.958677173506992 $646 $697 forward 7 unknown #
coedge $-1 $689 $590 $637 $683 forward $459 $-1 #
coedge $-1 $591 $689 $694 $698 reversed $459 $-1 #
coedge $-1 $687 $699 $592 $651 reversed $642 $-1 #
edge $-1 $700 -55.009002960295419 $653 55.009002960295419 $650 $701 forward 7 unknown #
coedge $-1 $682 $593 $699 $702 forward $587 $-1 #
vertex $-1 $651 $703 #
straight-curve $-1 -55.009002960295419 0 13.414500181313215 0 -1 0 I I #
straight-curve $-1 -55.009002960295419 0 -13.414500181313215 0 1 0 I I #
point $-1 -55.009002960295419 34.958677173506992 -13.414500181313215 #
plane-surface $-1 55.009002960295419 0 0 -1 0 0 0 0 1 forward_v I I I I #
coedge $-1 $661 $611 $621 $673 forward $605 $-1 #
coedge $-1 $608 $607 $626 $675 forward $498 $-1 #
edge $-1 $664 -55.009002960295419 $670 55.009002960295419 $617 $704 forward 7 unknown #
coedge $-1 $666 $658 $608 $662 reversed $605 $-1 #
edge $-1 $705 -55.009002960295419 $663 55.009002960295419 $661 $706 forward 7 unknown #
vertex $-1 $610 $707 #
vertex $-1 $620 $708 #
straight-curve $-1 55.009002960295419 0 -13.414500181313215 0 -1 0 I I #
coedge $-1 $611 $661 $613 $668 reversed $605 $-1 #
straight-curve $-1 0 34.958677173506992 13.414500181313215 -1 0 0 I I #
edge $-1 $614 -13.414500181313215 $705 13.414500181313215 $666 $709 forward 7 unknown #
point $-1 -55.009002960295419 34.958677173506992 13.414500181313215 #
vertex $-1 $675 $710 #
straight-curve $-1 -55.009002960295419 -34.958677173506992 0 0 0 -1 I I #
straight-curve $-1 55.009002960295419 -34.958677173506992 0 0 0 -1 I I #
edge $-1 $623 -13.414500181313215 $663 13.414500181313215 $621 $711 forward 7 unknown #
point $-1 55.009002960295419 34.958677173506992 13.414500181313215 #
edge $-1 $670 -34.958677173506992 $705 34.958677173506992 $626 $712 forward 7 unknown #
point $-1 -40.717440040254075 -34.958677173506992 9.1151906094510373 #
coedge $-1 $694 $693 $631 $678 reversed $685 $-1 #
edge $-1 $679 -34.958677173506992 $700 34.958677173506992 $677 $713 forward 7 unknown #
vertex $-1 $678 $714 #
straight-curve $-1 0 -34.958677173506992 13.414500181313215 1 0 0 I I #
straight-curve $-1 -23.931610750137374 -34.958677173506992 9.1151906094510373 -1 0 0 I I #
coedge $-1 $637 $652 $688 $715 reversed $587 $-1 #
edge $-1 $638 -9.1151906094510373 $716 13.414500181313215 $637 $717 forward 7 unknown #
point $-1 -55.009002960295419 -34.958677173506992 9.1151906094510373 #
loop $-1 $-1 $694 $641 #
plane-surface $-1 55.009002960295419 0 0 -1 0 0 0 0 1 forward_v I I I I #
coedge $-1 $691 $650 $693 $718 forward $642 $-1 #
coedge $-1 $645 $644 $682 $715 forward $529 $-1 #
coedge $-1 $649 $648 $644 $690 reversed $459 $-1 #
edge $-1 $696 -55.009002960295419 $716 55.009002960295419 $689 $719 forward 7 unknown #
coedge $-1 $699 $687 $645 $692 reversed $642 $-1 #
edge $-1 $720 -55.009002960295419 $695 55.009002960295419 $691 $721 forward 7 unknown #
coedge $-1 $677 $646 $687 $718 reversed $685 $-1 #
coedge $-1 $646 $677 $649 $698 forward $685 $-1 #
vertex $-1 $647 $722 #
vertex $-1 $698 $723 #
straight-curve $-1 55.009002960295419 0 -13.414500181313215 0 -1 0 I I #
edge $-1 $679 -13.414500181313215 $696 13.414500181313215 $694 $724 forward 7 unknown #
coedge $-1 $650 $691 $652 $702 reversed $642 $-1 #
vertex $-1 $678 $725 #
straight-curve $-1 0 34.958677173506992 13.414500181313215 -1 0 0 I I #
edge $-1 $653 -13.414500181313215 $720 13.414500181313215 $699 $726 forward 7 unknown #
point $-1 -55.009002960295419 34.958677173506992 13.414500181313215 #
straight-curve $-1 0 -34.958677173506992 -13.414500181313215 -1 0 0 I I #
vertex $-1 $662 $727 #
straight-curve $-1 0 34.958677173506992 -13.414500181313215 1 0 0 I I #
point $-1 55.009002960295419 34.958677173506992 -13.414500181313215 #
point $-1 55.009002960295419 -34.958677173506992 -13.414500181313215 #
straight-curve $-1 -55.009002960295419 34.958677173506992 0 0 0 -1 I I #
point $-1 -55.009002960295419 -34.958677173506992 -13.414500181313215 #
straight-curve $-1 55.009002960295419 34.958677173506992 0 0 0 -1 I I #
straight-curve $-1 -55.009002960295419 0 -13.414500181313215 0 1 0 I I #
straight-curve $-1 55.009002960295419 0 13.414500181313215 0 1 0 I I #
point $-1 55.009002960295419 -34.958677173506992 13.414500181313215 #
edge $-1 $716 -34.958677173506992 $720 34.958677173506992 $682 $728 forward 7 unknown #
vertex $-1 $715 $729 #
straight-curve $-1 -55.009002960295419 -34.958677173506992 0 0 0 -1 I I #
edge $-1 $700 -13.414500181313215 $695 13.414500181313215 $693 $730 forward 7 unknown #
straight-curve $-1 0 -34.958677173506992 -13.414500181313215 -1 0 0 I I #
vertex $-1 $692 $731 #
straight-curve $-1 0 34.958677173506992 -13.414500181313215 1 0 0 I I #
point $-1 55.009002960295419 34.958677173506992 -13.414500181313215 #
point $-1 55.009002960295419 -34.958677173506992 -13.414500181313215 #
straight-curve $-1 55.009002960295419 -34.958677173506992 0 0 0 -1 I I #
point $-1 55.009002960295419 34.958677173506992 13.414500181313215 #
straight-curve $-1 -55.009002960295419 34.958677173506992 0 0 0 -1 I I #
point $-1 -55.009002960295419 34.958677173506992 -13.414500181313215 #
straight-curve $-1 -55.009002960295419 0 -13.414500181313215 0 1 0 I I #
point $-1 -55.009002960295419 -34.958677173506992 -13.414500181313215 #
straight-curve $-1 55.009002960295419 34.958677173506992 0 0 0 -1 I I #
point $-1 -55.009002960295419 34.958677173506992 -13.414500181313215 #
End-of-ACIS-data 