500 0 11 0           
7 Unknown 11 ACIS 5.0 NT 24 Fri Mar 26 20:17:24 1999 
-1 9.9999999999999995e-007 1e-010 
body $-1 $11 $-1 $12 #
body $-1 $13 $-1 $14 #
body $-1 $15 $-1 $16 #
body $-1 $17 $-1 $18 #
body $-1 $19 $-1 $20 #
body $-1 $21 $-1 $22 #
body $-1 $23 $-1 $24 #
body $-1 $25 $-1 $26 #
body $-1 $27 $-1 $28 #
body $-1 $29 $-1 $30 #
body $-1 $31 $-1 $32 #
lump $-1 $-1 $33 $0 #
transform $-1 1 0 0 0 1 0 0 0 1 72.164067506942956 36.128062654832455 7.9129575506210994 1 rotate no_reflect no_shear #
lump $-1 $-1 $34 $1 #
transform $-1 1 0 0 0 1 0 0 0 1 72.164067506942956 36.128062654832455 7.9129575506210994 1 rotate no_reflect no_shear #
lump $-1 $-1 $35 $2 #
transform $-1 1 0 0 0 1 0 0 0 1 72.164067506942956 36.128062654832455 7.9129575506210994 1 rotate no_reflect no_shear #
lump $-1 $-1 $36 $3 #
transform $-1 1 0 0 0 1 0 0 0 1 72.164067506942956 36.128062654832455 7.9129575506210994 1 rotate no_reflect no_shear #
lump $-1 $-1 $37 $4 #
transform $-1 1 0 0 0 1 0 0 0 1 72.164067506942956 36.128062654832455 7.9129575506210994 1 rotate no_reflect no_shear #
lump $-1 $-1 $38 $5 #
transform $-1 1 0 0 0 1 0 0 0 1 72.164067506942956 36.128062654832455 7.9129575506210994 1 rotate no_reflect no_shear #
lump $-1 $-1 $39 $6 #
transform $-1 1 0 0 0 1 0 0 0 1 72.164067506942956 36.128062654832455 7.9129575506210994 1 rotate no_reflect no_shear #
lump $-1 $-1 $40 $7 #
transform $-1 1 0 0 0 1 0 0 0 1 72.164067506942956 36.128062654832455 7.9129575506210994 1 rotate no_reflect no_shear #
lump $-1 $-1 $41 $8 #
transform $-1 1 0 0 0 1 0 0 0 1 72.164067506942956 36.128062654832455 7.9129575506210994 1 rotate no_reflect no_shear #
lump $-1 $-1 $42 $9 #
transform $-1 1 0 0 0 1 0 0 0 1 72.164067506942956 36.128062654832455 7.9129575506210994 1 rotate no_reflect no_shear #
lump $-1 $-1 $43 $10 #
transform $-1 1 0 0 0 1 0 0 0 1 72.164067506942956 36.128062654832455 7.9129575506210994 1 rotate no_reflect no_shear #
shell $-1 $-1 $-1 $44 $-1 $11 #
shell $-1 $-1 $-1 $45 $-1 $13 #
shell $-1 $-1 $-1 $46 $-1 $15 #
shell $-1 $-1 $-1 $47 $-1 $17 #
shell $-1 $-1 $-1 $48 $-1 $19 #
shell $-1 $-1 $-1 $49 $-1 $21 #
shell $-1 $-1 $-1 $50 $-1 $23 #
shell $-1 $-1 $-1 $51 $-1 $25 #
shell $-1 $-1 $-1 $52 $-1 $27 #
shell $-1 $-1 $-1 $53 $-1 $29 #
shell $-1 $-1 $-1 $54 $-1 $31 #
face $-1 $55 $56 $33 $-1 $57 forward single #
face $-1 $58 $59 $34 $-1 $60 forward single #
face $-1 $61 $62 $35 $-1 $63 forward single #
face $-1 $64 $65 $36 $-1 $66 reversed single #
face $-1 $67 $68 $37 $-1 $69 forward single #
face $-1 $70 $71 $38 $-1 $72 reversed single #
face $-1 $73 $74 $39 $-1 $75 forward single #
face $-1 $76 $77 $40 $-1 $78 reversed single #
face $-1 $79 $80 $41 $-1 $81 forward single #
face $-1 $82 $83 $42 $-1 $84 reversed single #
face $-1 $85 $86 $43 $-1 $87 forward single #
face $-1 $88 $89 $33 $-1 $90 reversed single #
loop $-1 $-1 $91 $44 #
plane-surface $-1 0 0 7.9129575506210994 0 0 1 1 0 0 forward_v I I I I #
face $-1 $92 $93 $34 $-1 $94 forward single #
loop $-1 $-1 $95 $45 #
plane-surface $-1 0 -36.128062654832455 0 0 1 0 0 0 1 forward_v I I I I #
face $-1 $96 $97 $35 $-1 $98 reversed single #
loop $-1 $-1 $99 $46 #
plane-surface $-1 0 36.128062654832455 0 0 -1 0 0 0 -1 forward_v I I I I #
face $-1 $100 $101 $36 $-1 $102 reversed single #
loop $-1 $-1 $103 $47 #
plane-surface $-1 -190.39075552592544 -26.11074372586188 84.239395476764543 0 1 0 -0.81915205242281985 0 0.57357642473473569 forward_v I I I I #
face $-1 $104 $105 $37 $-1 $106 forward single #
loop $-1 $107 $108 $48 #
cone-surface $-1 -68.441497557791891 -21.479571086338073 3.6608458278988456 0.81915205242281985 0 -0.57357642473473569 0.86036463710210354 0 1.2287280786342298 1 I I 0 1 1.5 forward I I I I #
face $-1 $109 $110 $38 $-1 $111 reversed single #
loop $-1 $-1 $112 $49 #
plane-surface $-1 -190.39075552592544 -11.873932757393096 84.239395476764543 0 1 0 -0.81915205242281985 0 0.57357642473473569 forward_v I I I I #
face $-1 $113 $114 $39 $-1 $115 forward single #
loop $-1 $116 $117 $50 #
cone-surface $-1 -68.441497557791891 -7.2427601178692882 3.6608458278988456 0.81915205242281985 0 -0.57357642473473569 0.86036463710210354 0 1.2287280786342298 1 I I 0 1 1.5 forward I I I I #
face $-1 $118 $119 $40 $-1 $120 reversed single #
loop $-1 $-1 $121 $51 #
plane-surface $-1 -190.39075552592544 2.3628782110756923 84.239395476764543 0 1 0 -0.81915205242281985 0 0.57357642473473569 forward_v I I I I #
face $-1 $122 $123 $41 $-1 $124 forward single #
loop $-1 $125 $126 $52 #
cone-surface $-1 -68.441497557791891 6.9940508505994998 3.6608458278988456 0.81915205242281985 0 -0.57357642473473569 0.86036463710210354 0 1.2287280786342298 1 I I 0 1 1.5 forward I I I I #
face $-1 $127 $128 $42 $-1 $129 reversed single #
loop $-1 $-1 $130 $53 #
plane-surface $-1 -190.39075552592544 16.59968917954448 84.239395476764543 0 1 0 -0.81915205242281985 0 0.57357642473473569 forward_v I I I I #
face $-1 $131 $132 $43 $-1 $133 forward single #
loop $-1 $134 $135 $54 #
cone-surface $-1 -68.441497557791891 21.230861819068288 3.6608458278988456 0.81915205242281985 0 -0.57357642473473569 0.86036463710210354 0 1.2287280786342298 1 I I 0 1 1.5 forward I I I I #
face $-1 $136 $137 $33 $-1 $138 reversed single #
loop $-1 $-1 $139 $55 #
plane-surface $-1 0 0 -7.9129575506210994 0 0 1 1 0 0 forward_v I I I I #
coedge $-1 $140 $141 $142 $143 forward $56 $-1 #
face $-1 $144 $145 $34 $-1 $146 reversed single #
loop $-1 $-1 $147 $58 #
plane-surface $-1 0 0 7.9129575506210994 0 0 1 1 0 0 forward_v I I I I #
coedge $-1 $148 $149 $150 $151 forward $59 $-1 #
face $-1 $152 $153 $35 $-1 $154 reversed single #
loop $-1 $-1 $155 $61 #
plane-surface $-1 72.164067506942956 0 0 -1 0 0 0 0 1 forward_v I I I I #
coedge $-1 $156 $157 $158 $159 forward $62 $-1 #
face $-1 $160 $161 $36 $-1 $162 reversed single #
loop $-1 $-1 $163 $64 #
plane-surface $-1 -72.164067506942942 -21.479571086338073 1.4561798068676381 -0.81915205242281985 0 0.57357642473473569 0.57357642473473569 0 0.81915205242281985 forward_v I I I I #
coedge $-1 $164 $165 $166 $167 reversed $65 $-1 #
face $-1 $-1 $168 $37 $-1 $169 forward single #
loop $-1 $170 $171 $67 #
cone-surface $-1 -66.365105725456473 -21.479571086338073 2.2069406585022673 0.81915205242281985 0 -0.57357642473473569 0.43018231855105177 0 0.61436403931711492 1 I I -0.70710678118654757 0.70710678118654757 0.75 forward I I I I #
loop $-1 $-1 $172 $48 #
coedge $-1 $108 $108 $173 $174 reversed $68 $-1 #
face $-1 $175 $176 $38 $-1 $177 reversed single #
loop $-1 $-1 $178 $70 #
plane-surface $-1 -72.164067506942942 -7.2427601178692882 1.4561798068676381 -0.81915205242281985 0 0.57357642473473569 0.57357642473473569 0 0.81915205242281985 forward_v I I I I #
coedge $-1 $179 $180 $181 $182 reversed $71 $-1 #
face $-1 $-1 $183 $39 $-1 $184 forward single #
loop $-1 $185 $186 $73 #
cone-surface $-1 -66.365105725456473 -7.2427601178692882 2.2069406585022673 0.81915205242281985 0 -0.57357642473473569 0.43018231855105177 0 0.61436403931711492 1 I I -0.70710678118654757 0.70710678118654757 0.75 forward I I I I #
loop $-1 $-1 $187 $50 #
coedge $-1 $117 $117 $188 $189 reversed $74 $-1 #
face $-1 $190 $191 $40 $-1 $192 reversed single #
loop $-1 $-1 $193 $76 #
plane-surface $-1 -72.164067506942942 6.9940508505994998 1.4561798068676381 -0.81915205242281985 0 0.57357642473473569 0.57357642473473569 0 0.81915205242281985 forward_v I I I I #
coedge $-1 $194 $195 $196 $197 reversed $77 $-1 #
face $-1 $-1 $198 $41 $-1 $199 forward single #
loop $-1 $200 $201 $79 #
cone-surface $-1 -66.365105725456473 6.9940508505994998 2.2069406585022673 0.81915205242281985 0 -0.57357642473473569 0.43018231855105177 0 0.61436403931711492 1 I I -0.70710678118654757 0.70710678118654757 0.75 forward I I I I #
loop $-1 $-1 $202 $52 #
coedge $-1 $126 $126 $203 $204 reversed $80 $-1 #
face $-1 $205 $206 $42 $-1 $207 reversed single #
loop $-1 $-1 $208 $82 #
plane-surface $-1 -72.164067506942942 21.230861819068288 1.4561798068676381 -0.81915205242281985 0 0.57357642473473569 0.57357642473473569 0 0.81915205242281985 forward_v I I I I #
coedge $-1 $209 $210 $211 $212 reversed $83 $-1 #
face $-1 $-1 $213 $43 $-1 $214 forward single #
loop $-1 $215 $216 $85 #
cone-surface $-1 -66.365105725456473 21.230861819068288 2.2069406585022673 0.81915205242281985 0 -0.57357642473473569 0.43018231855105177 0 0.61436403931711492 1 I I -0.70710678118654757 0.70710678118654757 0.75 forward I I I I #
loop $-1 $-1 $217 $54 #
coedge $-1 $135 $135 $218 $219 reversed $86 $-1 #
face $-1 $220 $221 $33 $-1 $222 reversed single #
loop $-1 $-1 $223 $88 #
plane-surface $-1 0 -36.128062654832455 0 0 1 0 0 0 1 forward_v I I I I #
coedge $-1 $224 $225 $226 $227 forward $89 $-1 #
coedge $-1 $228 $91 $229 $230 forward $56 $-1 #
coedge $-1 $91 $228 $231 $232 forward $56 $-1 #
coedge $-1 $233 $234 $91 $143 reversed $235 $-1 #
edge $-1 $236 -36.128062654832455 $237 36.128062654832455 $142 $238 forward 7 unknown #
face $-1 $239 $240 $34 $-1 $241 reversed single #
loop $-1 $-1 $242 $92 #
plane-surface $-1 -72.164067506942956 0 0 1 0 0 0 0 -1 forward_v I I I I #
coedge $-1 $243 $244 $245 $246 forward $93 $-1 #
coedge $-1 $245 $95 $242 $247 reversed $59 $-1 #
coedge $-1 $95 $245 $248 $249 reversed $59 $-1 #
coedge $-1 $250 $251 $95 $151 reversed $240 $-1 #
edge $-1 $252 -72.164067506942956 $253 72.164067506942956 $150 $254 forward 7 unknown #
face $-1 $255 $256 $35 $-1 $257 reversed single #
loop $-1 $-1 $258 $96 #
plane-surface $-1 0 39.955283013779898 4.7454079120067396 0 0 1 1 0 0 forward_v I I I I #
coedge $-1 $259 $260 $156 $261 forward $97 $-1 #
coedge $-1 $262 $99 $155 $261 reversed $62 $-1 #
coedge $-1 $99 $262 $263 $264 reversed $62 $-1 #
coedge $-1 $265 $258 $99 $159 reversed $153 $-1 #
edge $-1 $266 -72.164067506942956 $267 72.164067506942956 $158 $268 forward 7 unknown #
face $-1 $269 $270 $36 $-1 $271 reversed single #
loop $-1 $-1 $272 $100 #
plane-surface $-1 -190.39075552592544 -16.848398446814265 84.239395476764543 0 -1 0 0.81915205242281985 0 -0.57357642473473569 forward_v I I I I #
coedge $-1 $273 $274 $275 $276 reversed $101 $-1 #
coedge $-1 $165 $103 $277 $278 reversed $65 $-1 #
coedge $-1 $103 $164 $273 $279 reversed $65 $-1 #
coedge $-1 $275 $280 $103 $167 forward $281 $-1 #
edge $-1 $282 23.031310256019765 $283 27.552394568285308 $166 $284 forward 7 unknown #
loop $-1 $-1 $173 $104 #
plane-surface $-1 -72.164067506942942 -21.479571086338073 1.4561798068676381 -0.81915205242281985 0 0.57357642473473569 0.57357642473473569 0 0.81915205242281985 forward_v I I I I #
loop $-1 $-1 $285 $67 #
coedge $-1 $171 $171 $172 $286 reversed $105 $-1 #
coedge $-1 $172 $172 $171 $286 forward $107 $-1 #
coedge $-1 $173 $173 $108 $174 forward $168 $-1 #
edge $-1 $287 0 $287 6.2831853071796004 $173 $288 forward 7 unknown #
face $-1 $289 $290 $38 $-1 $291 forward single #
loop $-1 $-1 $292 $109 #
plane-surface $-1 -190.39075552592544 -2.6115874783454807 84.239395476764543 0 -1 0 0.81915205242281985 0 -0.57357642473473569 forward_v I I I I #
coedge $-1 $293 $294 $295 $296 reversed $110 $-1 #
coedge $-1 $180 $112 $297 $298 reversed $71 $-1 #
coedge $-1 $112 $179 $293 $299 reversed $71 $-1 #
coedge $-1 $295 $300 $112 $182 forward $290 $-1 #
edge $-1 $301 23.031310256019765 $302 27.552394568285308 $181 $303 forward 7 unknown #
loop $-1 $-1 $188 $113 #
plane-surface $-1 -72.164067506942942 -7.2427601178692882 1.4561798068676381 -0.81915205242281985 0 0.57357642473473569 0.57357642473473569 0 0.81915205242281985 forward_v I I I I #
loop $-1 $-1 $304 $73 #
coedge $-1 $186 $186 $187 $305 reversed $114 $-1 #
coedge $-1 $187 $187 $186 $305 forward $116 $-1 #
coedge $-1 $188 $188 $117 $189 forward $183 $-1 #
edge $-1 $306 0 $306 6.2831853071796004 $188 $307 forward 7 unknown #
face $-1 $308 $309 $40 $-1 $310 forward single #
loop $-1 $-1 $311 $118 #
plane-surface $-1 -190.39075552592544 11.625223490123307 84.239395476764543 0 -1 0 0.81915205242281985 0 -0.57357642473473569 forward_v I I I I #
coedge $-1 $312 $313 $314 $315 reversed $119 $-1 #
coedge $-1 $195 $121 $316 $317 reversed $77 $-1 #
coedge $-1 $121 $194 $312 $318 reversed $77 $-1 #
coedge $-1 $314 $319 $121 $197 forward $309 $-1 #
edge $-1 $320 23.031310256019765 $321 27.552394568285308 $196 $322 forward 7 unknown #
loop $-1 $-1 $203 $122 #
plane-surface $-1 -72.164067506942942 6.9940508505994998 1.4561798068676381 -0.81915205242281985 0 0.57357642473473569 0.57357642473473569 0 0.81915205242281985 forward_v I I I I #
loop $-1 $-1 $323 $79 #
coedge $-1 $201 $201 $202 $324 reversed $123 $-1 #
coedge $-1 $202 $202 $201 $324 forward $125 $-1 #
coedge $-1 $203 $203 $126 $204 forward $198 $-1 #
edge $-1 $325 0 $325 6.2831853071796004 $203 $326 forward 7 unknown #
face $-1 $327 $328 $42 $-1 $329 forward single #
loop $-1 $-1 $330 $127 #
plane-surface $-1 -190.39075552592544 25.862034458592095 84.239395476764543 0 -1 0 0.81915205242281985 0 -0.57357642473473569 forward_v I I I I #
coedge $-1 $331 $332 $333 $334 reversed $128 $-1 #
coedge $-1 $210 $130 $335 $336 reversed $83 $-1 #
coedge $-1 $130 $209 $331 $337 reversed $83 $-1 #
coedge $-1 $333 $338 $130 $212 forward $328 $-1 #
edge $-1 $339 23.031310256019765 $340 27.552394568285308 $211 $341 forward 7 unknown #
loop $-1 $-1 $218 $131 #
plane-surface $-1 -72.164067506942942 21.230861819068288 1.4561798068676381 -0.81915205242281985 0 0.57357642473473569 0.57357642473473569 0 0.81915205242281985 forward_v I I I I #
loop $-1 $-1 $342 $85 #
coedge $-1 $216 $216 $217 $343 reversed $132 $-1 #
coedge $-1 $217 $217 $216 $343 forward $134 $-1 #
coedge $-1 $218 $218 $135 $219 forward $213 $-1 #
edge $-1 $344 0 $344 6.2831853071796004 $218 $345 forward 7 unknown #
face $-1 $346 $347 $33 $-1 $348 reversed single #
loop $-1 $-1 $349 $136 #
plane-surface $-1 -72.164067506942956 0 0 1 0 0 0 0 -1 forward_v I I I I #
coedge $-1 $350 $231 $351 $352 forward $137 $-1 #
coedge $-1 $353 $139 $350 $354 forward $89 $-1 #
coedge $-1 $139 $353 $355 $356 forward $89 $-1 #
coedge $-1 $234 $233 $139 $227 reversed $235 $-1 #
edge $-1 $357 -36.128062654832455 $358 36.128062654832455 $226 $359 forward 7 unknown #
coedge $-1 $141 $140 $360 $361 forward $56 $-1 #
coedge $-1 $362 $363 $140 $230 reversed $347 $-1 #
edge $-1 $237 -72.164067506942956 $364 72.164067506942956 $229 $365 forward 7 unknown #
coedge $-1 $223 $366 $141 $232 reversed $137 $-1 #
edge $-1 $367 -72.164067506942956 $236 72.164067506942956 $231 $368 forward 7 unknown #
coedge $-1 $226 $142 $366 $369 forward $235 $-1 #
coedge $-1 $142 $226 $362 $370 reversed $235 $-1 #
loop $-1 $-1 $233 $346 #
vertex $-1 $143 $371 #
vertex $-1 $143 $372 #
straight-curve $-1 72.164067506942956 0 7.9129575506210994 0 1 0 I I #
face $-1 $373 $374 $34 $-1 $375 reversed single #
loop $-1 $-1 $250 $144 #
plane-surface $-1 0 -39.955283013779898 4.7454079120067396 0 0 1 1 0 0 forward_v I I I I #
coedge $-1 $376 $377 $148 $247 forward $145 $-1 #
coedge $-1 $378 $147 $377 $379 forward $93 $-1 #
coedge $-1 $147 $378 $380 $381 forward $93 $-1 #
coedge $-1 $149 $148 $147 $246 reversed $59 $-1 #
edge $-1 $382 -72.164067506942956 $383 72.164067506942956 $147 $384 forward 7 unknown #
edge $-1 $383 -7.9129575506210994 $253 -4.7454079120067396 $242 $385 forward 7 unknown #
coedge $-1 $380 $386 $149 $249 forward $387 $-1 #
edge $-1 $252 4.7454079120067396 $382 7.9129575506210994 $248 $388 forward 7 unknown #
coedge $-1 $389 $150 $386 $390 forward $240 $-1 #
coedge $-1 $150 $389 $376 $391 forward $240 $-1 #
vertex $-1 $249 $392 #
vertex $-1 $247 $393 #
straight-curve $-1 0 -36.128062654832455 4.7454079120067396 -1 0 0 I I #
face $-1 $394 $395 $35 $-1 $396 forward single #
loop $-1 $-1 $397 $152 #
plane-surface $-1 0 43.782503372727341 6.3291827313139191 0 -1 0 0 0 -1 forward_v I I I I #
coedge $-1 $158 $398 $259 $399 forward $153 $-1 #
coedge $-1 $400 $155 $258 $399 reversed $97 $-1 #
coedge $-1 $155 $400 $401 $402 reversed $97 $-1 #
edge $-1 $403 -7.9129575506210994 $267 -4.7454079120067396 $155 $404 forward 7 unknown #
coedge $-1 $157 $156 $405 $406 reversed $62 $-1 #
coedge $-1 $407 $408 $157 $264 forward $409 $-1 #
edge $-1 $266 4.7454079120067396 $410 7.9129575506210994 $263 $411 forward 7 unknown #
coedge $-1 $398 $158 $408 $412 forward $153 $-1 #
vertex $-1 $264 $413 #
vertex $-1 $261 $414 #
straight-curve $-1 0 36.128062654832455 4.7454079120067396 1 0 0 I I #
face $-1 $-1 $281 $36 $-1 $415 forward single #
loop $-1 $-1 $416 $160 #
plane-surface $-1 -72.164067506942956 0 0 1 0 0 0 0 -1 forward_v I I I I #
coedge $-1 $417 $418 $419 $420 reversed $161 $-1 #
coedge $-1 $421 $163 $165 $279 forward $101 $-1 #
coedge $-1 $163 $421 $417 $422 forward $101 $-1 #
coedge $-1 $419 $166 $163 $276 forward $281 $-1 #
edge $-1 $283 -15.370958182692844 $423 -6.1086129036452288 $275 $424 forward 7 unknown #
coedge $-1 $425 $426 $164 $278 forward $270 $-1 #
edge $-1 $427 -40.663517931514654 $282 -34.20674018776117 $277 $428 forward 7 unknown #
edge $-1 $283 -7.8822701165871951 $427 2.4702845980661902e-014 $165 $429 forward 7 unknown #
coedge $-1 $166 $419 $425 $430 forward $281 $-1 #
loop $-1 $-1 $419 $269 #
vertex $-1 $278 $431 #
vertex $-1 $167 $432 #
straight-curve $-1 -95.195377762962721 -26.11074372586188 7.9129575506211012 1 0 0 I I #
coedge $-1 $285 $285 $-1 $433 reversed $170 $-1 #
edge $-1 $434 0 $434 6.2831853071796004 $171 $435 forward 7 unknown #
vertex $-1 $174 $436 #
ellipse-curve $-1 -69.903525350810185 -21.479571086338073 4.6845686787443634 -0.81915205242281985 0 0.57357642473473569 0.86036463710210354 0 1.2287280786342298 1 I I #
face $-1 $-1 $437 $38 $-1 $438 reversed single #
loop $-1 $-1 $181 $175 #
plane-surface $-1 0 0 7.9129575506210994 0 0 1 1 0 0 forward_v I I I I #
coedge $-1 $439 $440 $441 $442 reversed $176 $-1 #
coedge $-1 $443 $178 $180 $299 forward $110 $-1 #
coedge $-1 $178 $443 $439 $444 forward $110 $-1 #
coedge $-1 $441 $181 $178 $296 forward $290 $-1 #
edge $-1 $302 -8.2525526984584516 $445 1.0097925805891634 $295 $446 forward 7 unknown #
coedge $-1 $447 $448 $179 $298 forward $437 $-1 #
edge $-1 $449 -40.663517931514654 $301 -34.20674018776117 $297 $450 forward 7 unknown #
edge $-1 $302 -7.8822701165871951 $449 2.4702845980661902e-014 $180 $451 forward 7 unknown #
coedge $-1 $181 $441 $447 $452 forward $290 $-1 #
vertex $-1 $182 $453 #
vertex $-1 $182 $454 #
straight-curve $-1 -95.195377762962721 -11.873932757393096 7.9129575506211012 1 0 0 I I #
coedge $-1 $304 $304 $-1 $455 reversed $185 $-1 #
edge $-1 $456 0 $456 6.2831853071796004 $186 $457 forward 7 unknown #
vertex $-1 $189 $458 #
ellipse-curve $-1 -69.903525350810185 -7.2427601178692882 4.6845686787443634 -0.81915205242281985 0 0.57357642473473569 0.86036463710210354 0 1.2287280786342298 1 I I #
face $-1 $-1 $459 $40 $-1 $460 reversed single #
loop $-1 $-1 $196 $190 #
plane-surface $-1 0 0 7.9129575506210994 0 0 1 1 0 0 forward_v I I I I #
coedge $-1 $461 $462 $463 $464 reversed $191 $-1 #
coedge $-1 $465 $193 $195 $318 forward $119 $-1 #
coedge $-1 $193 $465 $461 $466 forward $119 $-1 #
coedge $-1 $463 $196 $193 $315 forward $309 $-1 #
edge $-1 $321 -1.1341472142240576 $467 8.1281980648235574 $314 $468 forward 7 unknown #
coedge $-1 $469 $470 $194 $317 forward $459 $-1 #
edge $-1 $471 -40.663517931514654 $320 -34.20674018776117 $316 $472 forward 7 unknown #
edge $-1 $321 -7.8822701165871951 $471 2.4702845980661902e-014 $195 $473 forward 7 unknown #
coedge $-1 $196 $463 $469 $474 forward $309 $-1 #
vertex $-1 $197 $475 #
vertex $-1 $197 $476 #
straight-curve $-1 -95.195377762962721 2.3628782110756923 7.9129575506211012 1 0 0 I I #
coedge $-1 $323 $323 $-1 $477 reversed $200 $-1 #
edge $-1 $478 0 $478 6.2831853071796004 $201 $479 forward 7 unknown #
vertex $-1 $204 $480 #
ellipse-curve $-1 -69.903525350810185 6.9940508505994998 4.6845686787443634 -0.81915205242281985 0 0.57357642473473569 0.86036463710210354 0 1.2287280786342298 1 I I #
face $-1 $-1 $481 $42 $-1 $482 reversed single #
loop $-1 $-1 $211 $205 #
plane-surface $-1 0 0 7.9129575506210994 0 0 1 1 0 0 forward_v I I I I #
coedge $-1 $483 $484 $485 $486 reversed $206 $-1 #
coedge $-1 $487 $208 $210 $337 forward $128 $-1 #
coedge $-1 $208 $487 $483 $488 forward $128 $-1 #
coedge $-1 $485 $211 $208 $334 forward $328 $-1 #
edge $-1 $340 5.9842582700103364 $489 15.246603549057951 $333 $490 forward 7 unknown #
coedge $-1 $491 $492 $209 $336 forward $481 $-1 #
edge $-1 $493 -40.663517931514654 $339 -34.20674018776117 $335 $494 forward 7 unknown #
edge $-1 $340 -7.8822701165871951 $493 2.4702845980661902e-014 $210 $495 forward 7 unknown #
coedge $-1 $211 $485 $491 $496 forward $328 $-1 #
vertex $-1 $212 $497 #
vertex $-1 $212 $498 #
straight-curve $-1 -95.195377762962721 16.59968917954448 7.9129575506211012 1 0 0 I I #
coedge $-1 $342 $342 $-1 $499 reversed $215 $-1 #
edge $-1 $500 0 $500 6.2831853071796004 $216 $501 forward 7 unknown #
vertex $-1 $219 $502 #
ellipse-curve $-1 -69.903525350810185 21.230861819068288 4.6845686787443634 -0.81915205242281985 0 0.57357642473473569 0.86036463710210354 0 1.2287280786342298 1 I I #
face $-1 $-1 $235 $33 $-1 $503 reversed single #
loop $-1 $-1 $362 $220 #
plane-surface $-1 0 36.128062654832455 0 0 -1 0 0 0 -1 forward_v I I I I #
coedge $-1 $504 $360 $363 $505 forward $221 $-1 #
coedge $-1 $366 $223 $224 $354 reversed $137 $-1 #
coedge $-1 $360 $504 $223 $352 reversed $221 $-1 #
edge $-1 $367 -7.9129575506210994 $506 7.9129575506210994 $351 $507 forward 7 unknown #
coedge $-1 $225 $224 $504 $508 forward $89 $-1 #
edge $-1 $358 -72.164067506942956 $506 72.164067506942956 $350 $509 forward 7 unknown #
coedge $-1 $363 $362 $225 $356 reversed $347 $-1 #
edge $-1 $510 -72.164067506942956 $357 72.164067506942956 $355 $511 forward 7 unknown #
vertex $-1 $227 $512 #
vertex $-1 $369 $513 #
straight-curve $-1 72.164067506942956 0 -7.9129575506210994 0 -1 0 I I #
coedge $-1 $349 $351 $228 $361 reversed $221 $-1 #
edge $-1 $364 -36.128062654832455 $367 36.128062654832455 $360 $514 forward 7 unknown #
coedge $-1 $355 $229 $234 $370 forward $347 $-1 #
coedge $-1 $229 $355 $349 $505 reversed $347 $-1 #
vertex $-1 $230 $515 #
straight-curve $-1 0 36.128062654832455 7.9129575506210994 -1 0 0 I I #
coedge $-1 $231 $350 $233 $369 reversed $137 $-1 #
vertex $-1 $361 $516 #
straight-curve $-1 0 -36.128062654832455 7.9129575506210994 1 0 0 I I #
edge $-1 $236 -7.9129575506210994 $358 7.9129575506210994 $233 $517 forward 7 unknown #
edge $-1 $237 -7.9129575506210994 $357 7.9129575506210994 $234 $518 forward 7 unknown #
point $-1 72.164067506942956 -36.128062654832455 7.9129575506210994 #
point $-1 72.164067506942956 36.128062654832455 7.9129575506210994 #
face $-1 $-1 $387 $34 $-1 $519 reversed single #
loop $-1 $-1 $520 $239 #
plane-surface $-1 0 -43.782503372727341 6.3291827313139191 0 1 0 0 0 1 forward_v I I I I #
coedge $-1 $521 $242 $251 $391 reversed $145 $-1 #
coedge $-1 $242 $521 $243 $379 reversed $145 $-1 #
coedge $-1 $244 $243 $522 $523 forward $93 $-1 #
edge $-1 $383 36.128062654832455 $524 43.782503372727341 $377 $525 forward 7 unknown #
coedge $-1 $526 $248 $244 $381 reversed $387 $-1 #
edge $-1 $527 -43.782503372727341 $382 -36.128062654832455 $380 $528 forward 7 unknown #
vertex $-1 $249 $529 #
vertex $-1 $379 $530 #
straight-curve $-1 0 -36.128062654832455 7.9129575506210994 -1 0 0 I I #
straight-curve $-1 -72.164067506942956 -36.128062654832455 0 0 0 -1 I I #
coedge $-1 $248 $526 $250 $390 reversed $387 $-1 #
loop $-1 $-1 $248 $373 #
straight-curve $-1 72.164067506942956 -36.128062654832455 0 0 0 1 I I #
coedge $-1 $251 $250 $531 $532 forward $240 $-1 #
edge $-1 $252 -3.8272203589474429 $533 3.8272203589474429 $386 $534 forward 7 unknown #
edge $-1 $535 -3.8272203589474429 $253 3.8272203589474429 $376 $536 forward 7 unknown #
point $-1 72.164067506942956 -36.128062654832455 4.7454079120067396 #
point $-1 -72.164067506942956 -36.128062654832455 4.7454079120067396 #
face $-1 $-1 $409 $35 $-1 $537 reversed single #
loop $-1 $-1 $405 $255 #
plane-surface $-1 0 0 7.9129575506210994 0 0 1 1 0 0 forward_v I I I I #
coedge $-1 $538 $539 $400 $540 forward $256 $-1 #
coedge $-1 $258 $265 $538 $541 forward $153 $-1 #
edge $-1 $542 -3.8272203589474429 $267 3.8272203589474429 $259 $543 forward 7 unknown #
coedge $-1 $260 $259 $397 $540 reversed $97 $-1 #
coedge $-1 $544 $405 $260 $402 forward $395 $-1 #
edge $-1 $403 36.128062654832455 $545 43.782503372727341 $260 $546 forward 7 unknown #
vertex $-1 $402 $547 #
straight-curve $-1 72.164067506942956 36.128062654832455 0 0 0 -1 I I #
coedge $-1 $401 $548 $262 $406 forward $395 $-1 #
edge $-1 $410 -72.164067506942956 $403 72.164067506942956 $405 $549 forward 7 unknown #
coedge $-1 $550 $263 $548 $551 reversed $409 $-1 #
coedge $-1 $263 $550 $265 $412 reversed $409 $-1 #
loop $-1 $-1 $263 $394 #
vertex $-1 $264 $552 #
straight-curve $-1 -72.164067506942956 36.128062654832455 0 0 0 1 I I #
edge $-1 $266 -3.8272203589474429 $553 3.8272203589474429 $408 $554 forward 7 unknown #
point $-1 -72.164067506942956 36.128062654832455 4.7454079120067396 #
point $-1 72.164067506942956 36.128062654832455 4.7454079120067396 #
plane-surface $-1 0 0 7.9129575506210994 0 0 1 1 0 0 forward_v I I I I #
coedge $-1 $426 $425 $418 $555 forward $270 $-1 #
coedge $-1 $418 $272 $274 $422 reversed $161 $-1 #
coedge $-1 $272 $417 $416 $555 reversed $161 $-1 #
coedge $-1 $280 $275 $272 $420 forward $281 $-1 #
edge $-1 $423 -27.552394568285308 $556 -23.031310256019765 $419 $557 forward 7 unknown #
coedge $-1 $274 $273 $426 $558 reversed $101 $-1 #
edge $-1 $559 -2.4702845980661902e-014 $423 7.8822701165871951 $417 $560 forward 7 unknown #
vertex $-1 $276 $561 #
straight-curve $-1 -67.642983194677413 -10.739785543169036 7.9129575506210976 0 1 0 I I #
coedge $-1 $416 $277 $280 $430 reversed $270 $-1 #
coedge $-1 $277 $416 $421 $558 forward $270 $-1 #
vertex $-1 $278 $562 #
straight-curve $-1 -72.164067506942956 -26.11074372586188 42.119697738382271 0 0 1 I I #
straight-curve $-1 -72.164067506942942 -26.11074372586188 1.4561798068676381 -0.57357642473473569 0 -0.81915205242281985 I I #
edge $-1 $556 16.848398446814265 $282 26.11074372586188 $425 $563 forward 7 unknown #
point $-1 -72.164067506942956 -26.11074372586188 7.9129575506210994 #
point $-1 -67.642983194677413 -26.11074372586188 7.9129575506210994 #
edge $-1 $564 1 $564 0 $285 $-1 forward 7 unknown #
vertex $-1 $286 $565 #
ellipse-curve $-1 -66.979469764773583 -21.479571086338073 2.6371229770533189 -0.81915205242281985 0 0.57357642473473569 0.86036463710210354 0 1.2287280786342298 1 I I #
point $-1 -69.04316071370809 -21.479571086338073 5.9132967573786015 #
loop $-1 $-1 $297 $289 #
plane-surface $-1 -72.164067506942956 0 0 1 0 0 0 0 -1 forward_v I I I I #
coedge $-1 $440 $292 $294 $444 reversed $176 $-1 #
coedge $-1 $292 $439 $566 $567 reversed $176 $-1 #
coedge $-1 $300 $295 $292 $442 forward $290 $-1 #
edge $-1 $445 -27.552394568285308 $568 -23.031310256019765 $441 $569 forward 7 unknown #
coedge $-1 $294 $293 $448 $570 reversed $110 $-1 #
edge $-1 $571 -2.4702845980661902e-014 $445 7.8822701165871951 $439 $572 forward 7 unknown #
vertex $-1 $296 $573 #
straight-curve $-1 -67.642983194677413 -3.6213800589346441 7.9129575506210976 0 1 0 I I #
coedge $-1 $566 $297 $300 $452 reversed $437 $-1 #
coedge $-1 $297 $566 $443 $570 forward $437 $-1 #
vertex $-1 $298 $574 #
straight-curve $-1 -72.164067506942956 -11.873932757393096 42.119697738382271 0 0 1 I I #
straight-curve $-1 -72.164067506942942 -11.873932757393096 1.4561798068676381 -0.57357642473473569 0 -0.81915205242281985 I I #
edge $-1 $568 2.6115874783454807 $301 11.873932757393096 $447 $575 forward 7 unknown #
point $-1 -72.164067506942956 -11.873932757393096 7.9129575506210994 #
point $-1 -67.642983194677413 -11.873932757393096 7.9129575506210994 #
edge $-1 $576 1 $576 0 $304 $-1 forward 7 unknown #
vertex $-1 $305 $577 #
ellipse-curve $-1 -66.979469764773583 -7.2427601178692882 2.6371229770533189 -0.81915205242281985 0 0.57357642473473569 0.86036463710210354 0 1.2287280786342298 1 I I #
point $-1 -69.04316071370809 -7.2427601178692882 5.9132967573786015 #
loop $-1 $-1 $316 $308 #
plane-surface $-1 -72.164067506942956 0 0 1 0 0 0 0 -1 forward_v I I I I #
coedge $-1 $462 $311 $313 $466 reversed $191 $-1 #
coedge $-1 $311 $461 $578 $579 reversed $191 $-1 #
coedge $-1 $319 $314 $311 $464 forward $309 $-1 #
edge $-1 $467 -27.552394568285308 $580 -23.031310256019765 $463 $581 forward 7 unknown #
coedge $-1 $313 $312 $470 $582 reversed $119 $-1 #
edge $-1 $583 -2.4702845980661902e-014 $467 7.8822701165871951 $461 $584 forward 7 unknown #
vertex $-1 $315 $585 #
straight-curve $-1 -67.642983194677413 3.4970254252997499 7.9129575506210976 0 1 0 I I #
coedge $-1 $578 $316 $319 $474 reversed $459 $-1 #
coedge $-1 $316 $578 $465 $582 forward $459 $-1 #
vertex $-1 $317 $586 #
straight-curve $-1 -72.164067506942956 2.3628782110756923 42.119697738382271 0 0 1 I I #
straight-curve $-1 -72.164067506942942 2.3628782110756923 1.4561798068676381 -0.57357642473473569 0 -0.81915205242281985 I I #
edge $-1 $580 -11.625223490123307 $320 -2.3628782110756923 $469 $587 forward 7 unknown #
point $-1 -72.164067506942956 2.3628782110756923 7.9129575506210994 #
point $-1 -67.642983194677413 2.3628782110756923 7.9129575506210994 #
edge $-1 $588 1 $588 0 $323 $-1 forward 7 unknown #
vertex $-1 $324 $589 #
ellipse-curve $-1 -66.979469764773583 6.9940508505994998 2.6371229770533189 -0.81915205242281985 0 0.57357642473473569 0.86036463710210354 0 1.2287280786342298 1 I I #
point $-1 -69.04316071370809 6.9940508505994998 5.9132967573786015 #
loop $-1 $-1 $335 $327 #
plane-surface $-1 -72.164067506942956 0 0 1 0 0 0 0 -1 forward_v I I I I #
coedge $-1 $484 $330 $332 $488 reversed $206 $-1 #
coedge $-1 $330 $483 $590 $591 reversed $206 $-1 #
coedge $-1 $338 $333 $330 $486 forward $328 $-1 #
edge $-1 $489 -27.552394568285308 $592 -23.031310256019765 $485 $593 forward 7 unknown #
coedge $-1 $332 $331 $492 $594 reversed $128 $-1 #
edge $-1 $595 -2.4702845980661902e-014 $489 7.8822701165871951 $483 $596 forward 7 unknown #
vertex $-1 $334 $597 #
straight-curve $-1 -67.642983194677413 10.615430909534144 7.9129575506210976 0 1 0 I I #
coedge $-1 $590 $335 $338 $496 reversed $481 $-1 #
coedge $-1 $335 $590 $487 $594 forward $481 $-1 #
vertex $-1 $336 $598 #
straight-curve $-1 -72.164067506942956 16.59968917954448 42.119697738382271 0 0 1 I I #
straight-curve $-1 -72.164067506942942 16.59968917954448 1.4561798068676381 -0.57357642473473569 0 -0.81915205242281985 I I #
edge $-1 $592 -25.862034458592095 $339 -16.59968917954448 $491 $599 forward 7 unknown #
point $-1 -72.164067506942956 16.59968917954448 7.9129575506210994 #
point $-1 -67.642983194677413 16.59968917954448 7.9129575506210994 #
edge $-1 $600 1 $600 0 $342 $-1 forward 7 unknown #
vertex $-1 $343 $601 #
ellipse-curve $-1 -66.979469764773583 21.230861819068288 2.6371229770533189 -0.81915205242281985 0 0.57357642473473569 0.86036463710210354 0 1.2287280786342298 1 I I #
point $-1 -69.04316071370809 21.230861819068288 5.9132967573786015 #
plane-surface $-1 72.164067506942956 0 0 -1 0 0 0 0 1 forward_v I I I I #
coedge $-1 $351 $349 $353 $508 reversed $221 $-1 #
edge $-1 $364 -7.9129575506210994 $510 7.9129575506210994 $363 $602 forward 7 unknown #
vertex $-1 $508 $603 #
straight-curve $-1 -72.164067506942956 -36.128062654832455 0 0 0 -1 I I #
edge $-1 $506 -36.128062654832455 $510 36.128062654832455 $504 $604 forward 7 unknown #
straight-curve $-1 0 -36.128062654832455 -7.9129575506210994 -1 0 0 I I #
vertex $-1 $356 $605 #
straight-curve $-1 0 36.128062654832455 -7.9129575506210994 1 0 0 I I #
point $-1 72.164067506942956 36.128062654832455 -7.9129575506210994 #
point $-1 72.164067506942956 -36.128062654832455 -7.9129575506210994 #
straight-curve $-1 -72.164067506942956 0 7.9129575506210994 0 -1 0 I I #
point $-1 -72.164067506942956 36.128062654832455 7.9129575506210994 #
point $-1 -72.164067506942956 -36.128062654832455 7.9129575506210994 #
straight-curve $-1 72.164067506942956 -36.128062654832455 0 0 0 -1 I I #
straight-curve $-1 72.164067506942956 36.128062654832455 0 0 0 -1 I I #
plane-surface $-1 72.164067506942956 0 0 -1 0 0 0 0 1 forward_v I I I I #
coedge $-1 $531 $522 $521 $606 forward $374 $-1 #
coedge $-1 $377 $376 $520 $606 reversed $145 $-1 #
coedge $-1 $520 $607 $378 $523 reversed $374 $-1 #
edge $-1 $524 -72.164067506942956 $527 72.164067506942956 $522 $608 forward 7 unknown #
vertex $-1 $379 $609 #
straight-curve $-1 -72.164067506942956 0 7.9129575506210994 0 -1 0 I I #
coedge $-1 $386 $380 $607 $610 forward $387 $-1 #
vertex $-1 $381 $611 #
straight-curve $-1 72.164067506942956 0 7.9129575506210994 0 1 0 I I #
point $-1 72.164067506942956 -36.128062654832455 7.9129575506210994 #
point $-1 -72.164067506942956 -36.128062654832455 7.9129575506210994 #
coedge $-1 $607 $520 $389 $532 reversed $374 $-1 #
edge $-1 $533 -72.164067506942956 $535 72.164067506942956 $531 $612 forward 7 unknown #
vertex $-1 $610 $613 #
straight-curve $-1 72.164067506942956 -39.955283013779898 4.7454079120067396 0 -1 0 I I #
vertex $-1 $391 $614 #
straight-curve $-1 -72.164067506942956 -39.955283013779898 4.7454079120067396 0 1 0 I I #
plane-surface $-1 -72.164067506942956 0 0 1 0 0 0 0 -1 forward_v I I I I #
coedge $-1 $615 $397 $398 $541 reversed $256 $-1 #
coedge $-1 $397 $615 $544 $616 reversed $256 $-1 #
edge $-1 $545 -1.5837748193071794 $542 1.5837748193071794 $400 $617 forward 7 unknown #
edge $-1 $553 -72.164067506942956 $542 72.164067506942956 $538 $618 forward 7 unknown #
vertex $-1 $399 $619 #
straight-curve $-1 72.164067506942956 39.955283013779898 4.7454079120067396 0 -1 0 I I #
coedge $-1 $548 $401 $539 $616 forward $395 $-1 #
vertex $-1 $402 $620 #
straight-curve $-1 72.164067506942956 0 7.9129575506210994 0 1 0 I I #
point $-1 72.164067506942956 36.128062654832455 7.9129575506210994 #
coedge $-1 $405 $544 $407 $551 forward $395 $-1 #
straight-curve $-1 0 36.128062654832455 7.9129575506210994 1 0 0 I I #
coedge $-1 $408 $407 $615 $621 forward $409 $-1 #
edge $-1 $622 -43.782503372727341 $410 -36.128062654832455 $407 $623 forward 7 unknown #
point $-1 -72.164067506942956 36.128062654832455 7.9129575506210994 #
vertex $-1 $541 $624 #
straight-curve $-1 -72.164067506942956 39.955283013779898 4.7454079120067396 0 1 0 I I #
edge $-1 $556 34.20674018776117 $559 40.663517931514654 $416 $625 forward 7 unknown #
vertex $-1 $430 $626 #
straight-curve $-1 -95.195377762962721 -16.848398446814265 7.9129575506211012 -1 0 0 I I #
edge $-1 $559 6.1086129036452288 $427 15.370958182692844 $426 $627 forward 7 unknown #
vertex $-1 $558 $628 #
straight-curve $-1 -72.164067506942942 -16.848398446814265 1.4561798068676381 0.57357642473473569 0 0.81915205242281985 I I #
point $-1 -67.642983194677413 -16.848398446814265 7.9129575506210994 #
point $-1 -72.164067506942956 -26.11074372586188 1.4561798068676179 #
straight-curve $-1 -72.164067506942956 0 7.9129575506210994 0 -1 0 I I #
vertex $-1 $433 $629 #
point $-1 -66.119105127671489 -21.479571086338073 3.8658510556875489 #
coedge $-1 $448 $447 $440 $567 forward $437 $-1 #
edge $-1 $568 34.20674018776117 $571 40.663517931514654 $566 $630 forward 7 unknown #
vertex $-1 $452 $631 #
straight-curve $-1 -95.195377762962721 -2.6115874783454807 7.9129575506211012 -1 0 0 I I #
edge $-1 $571 -1.0097925805891634 $449 8.2525526984584516 $448 $632 forward 7 unknown #
vertex $-1 $570 $633 #
straight-curve $-1 -72.164067506942942 -2.6115874783454807 1.4561798068676381 0.57357642473473569 0 0.81915205242281985 I I #
point $-1 -67.642983194677413 -2.6115874783454807 7.9129575506210994 #
point $-1 -72.164067506942956 -11.873932757393096 1.4561798068676179 #
straight-curve $-1 -72.164067506942956 0 7.9129575506210994 0 -1 0 I I #
vertex $-1 $455 $634 #
point $-1 -66.119105127671489 -7.2427601178692882 3.8658510556875489 #
coedge $-1 $470 $469 $462 $579 forward $459 $-1 #
edge $-1 $580 34.20674018776117 $583 40.663517931514654 $578 $635 forward 7 unknown #
vertex $-1 $474 $636 #
straight-curve $-1 -95.195377762962721 11.625223490123307 7.9129575506211012 -1 0 0 I I #
edge $-1 $583 -8.1281980648235574 $471 1.1341472142240576 $470 $637 forward 7 unknown #
vertex $-1 $582 $638 #
straight-curve $-1 -72.164067506942942 11.625223490123307 1.4561798068676381 0.57357642473473569 0 0.81915205242281985 I I #
point $-1 -67.642983194677413 11.625223490123307 7.9129575506210994 #
point $-1 -72.164067506942956 2.3628782110756923 1.4561798068676179 #
straight-curve $-1 -72.164067506942956 0 7.9129575506210994 0 -1 0 I I #
vertex $-1 $477 $639 #
point $-1 -66.119105127671489 6.9940508505994998 3.8658510556875489 #
coedge $-1 $492 $491 $484 $591 forward $481 $-1 #
edge $-1 $592 34.20674018776117 $595 40.663517931514654 $590 $640 forward 7 unknown #
vertex $-1 $496 $641 #
straight-curve $-1 -95.195377762962721 25.862034458592095 7.9129575506211012 -1 0 0 I I #
edge $-1 $595 -15.246603549057951 $493 -5.9842582700103364 $492 $642 forward 7 unknown #
vertex $-1 $594 $643 #
straight-curve $-1 -72.164067506942942 25.862034458592095 1.4561798068676381 0.57357642473473569 0 0.81915205242281985 I I #
point $-1 -67.642983194677413 25.862034458592095 7.9129575506210994 #
point $-1 -72.164067506942956 16.59968917954448 1.4561798068676179 #
straight-curve $-1 -72.164067506942956 0 7.9129575506210994 0 -1 0 I I #
vertex $-1 $499 $644 #
point $-1 -66.119105127671489 21.230861819068288 3.8658510556875489 #
straight-curve $-1 -72.164067506942956 36.128062654832455 0 0 0 -1 I I #
point $-1 -72.164067506942956 -36.128062654832455 -7.9129575506210994 #
straight-curve $-1 -72.164067506942956 0 -7.9129575506210994 0 1 0 I I #
point $-1 -72.164067506942956 36.128062654832455 -7.9129575506210994 #
edge $-1 $524 -1.5837748193071794 $535 1.5837748193071794 $521 $645 forward 7 unknown #
coedge $-1 $522 $531 $526 $610 reversed $374 $-1 #
straight-curve $-1 0 -43.782503372727341 7.9129575506210985 1 0 0 I I #
point $-1 -72.164067506942956 -43.782503372727341 7.9129575506210985 #
edge $-1 $527 -1.5837748193071794 $533 1.5837748193071794 $526 $646 forward 7 unknown #
point $-1 72.164067506942956 -43.782503372727341 7.9129575506210985 #
straight-curve $-1 0 -43.782503372727341 4.7454079120067396 -1 0 0 I I #
point $-1 72.164067506942956 -43.782503372727341 4.7454079120067396 #
point $-1 -72.164067506942956 -43.782503372727341 4.7454079120067396 #
coedge $-1 $539 $538 $550 $621 reversed $256 $-1 #
edge $-1 $545 -72.164067506942956 $622 72.164067506942956 $539 $647 forward 7 unknown #
straight-curve $-1 72.164067506942956 43.782503372727341 6.3291827313139191 0 0 -1 I I #
straight-curve $-1 0 43.782503372727341 4.7454079120067396 1 0 0 I I #
point $-1 72.164067506942956 43.782503372727341 4.7454079120067396 #
point $-1 72.164067506942956 43.782503372727341 7.9129575506210985 #
edge $-1 $622 -1.5837748193071794 $553 1.5837748193071794 $615 $648 forward 7 unknown #
vertex $-1 $616 $649 #
straight-curve $-1 -72.164067506942956 0 7.9129575506210994 0 -1 0 I I #
point $-1 -72.164067506942956 43.782503372727341 4.7454079120067396 #
straight-curve $-1 -72.164067506942956 -16.848398446814265 42.119697738382271 0 0 -1 I I #
point $-1 -72.164067506942956 -16.848398446814265 7.9129575506210994 #
straight-curve $-1 -72.164067506942956 -10.739785543169036 1.4561798068676293 0 -1 0 I I #
point $-1 -72.164067506942956 -16.848398446814265 1.4561798068676179 #
point $-1 -65.750741686139364 -21.479571086338073 1.7767583399512155 #
straight-curve $-1 -72.164067506942956 -2.6115874783454807 42.119697738382271 0 0 -1 I I #
point $-1 -72.164067506942956 -2.6115874783454807 7.9129575506210994 #
straight-curve $-1 -72.164067506942956 -3.6213800589346441 1.4561798068676293 0 -1 0 I I #
point $-1 -72.164067506942956 -2.6115874783454807 1.4561798068676179 #
point $-1 -65.750741686139364 -7.2427601178692882 1.7767583399512155 #
straight-curve $-1 -72.164067506942956 11.625223490123307 42.119697738382271 0 0 -1 I I #
point $-1 -72.164067506942956 11.625223490123307 7.9129575506210994 #
straight-curve $-1 -72.164067506942956 3.4970254252997499 1.4561798068676293 0 -1 0 I I #
point $-1 -72.164067506942956 11.625223490123307 1.4561798068676179 #
point $-1 -65.750741686139364 6.9940508505994998 1.7767583399512155 #
straight-curve $-1 -72.164067506942956 25.862034458592095 42.119697738382271 0 0 -1 I I #
point $-1 -72.164067506942956 25.862034458592095 7.9129575506210994 #
straight-curve $-1 -72.164067506942956 10.615430909534144 1.4561798068676293 0 -1 0 I I #
point $-1 -72.164067506942956 25.862034458592095 1.4561798068676179 #
point $-1 -65.750741686139364 21.230861819068288 1.7767583399512155 #
straight-curve $-1 -72.164067506942956 -43.782503372727341 6.3291827313139191 0 0 -1 I I #
straight-curve $-1 72.164067506942956 -43.782503372727341 6.3291827313139191 0 0 -1 I I #
straight-curve $-1 0 43.782503372727341 7.9129575506210985 -1 0 0 I I #
straight-curve $-1 -72.164067506942956 43.782503372727341 6.3291827313139191 0 0 -1 I I #
point $-1 -72.164067506942956 43.782503372727341 7.9129575506210985 #
End-of-ACIS-data 