500 0 11 0           
7 Unknown 11 ACIS 5.0 NT 24 Thu Mar 25 15:25:50 1999 
-1 9.9999999999999995e-007 1e-010 
body $-1 $11 $-1 $12 #
body $-1 $13 $-1 $14 #
body $-1 $15 $-1 $16 #
body $-1 $17 $-1 $18 #
body $-1 $19 $-1 $20 #
body $-1 $21 $-1 $22 #
body $-1 $23 $-1 $24 #
body $-1 $25 $-1 $26 #
body $-1 $27 $-1 $28 #
body $-1 $29 $-1 $30 #
body $-1 $31 $-1 $32 #
lump $-1 $-1 $33 $0 #
transform $-1 1 0 0 0 1 0 0 0 1 68.809472945341355 38.038301676605251 14.694437283017578 1 rotate no_reflect no_shear #
lump $-1 $-1 $34 $1 #
transform $-1 1 0 0 0 1 0 0 0 1 68.809472945341355 38.038301676605251 14.694437283017578 1 rotate no_reflect no_shear #
lump $-1 $-1 $35 $2 #
transform $-1 1 0 0 0 1 0 0 0 1 68.809472945341355 38.038301676605251 14.694437283017578 1 rotate no_reflect no_shear #
lump $-1 $-1 $36 $3 #
transform $-1 1 0 0 0 1 0 0 0 1 68.809472945341355 38.038301676605251 14.694437283017578 1 rotate no_reflect no_shear #
lump $-1 $-1 $37 $4 #
transform $-1 1 0 0 0 1 0 0 0 1 68.809472945341355 38.038301676605251 14.694437283017578 1 rotate no_reflect no_shear #
lump $-1 $-1 $38 $5 #
transform $-1 1 0 0 0 1 0 0 0 1 68.809472945341355 38.038301676605251 14.694437283017578 1 rotate no_reflect no_shear #
lump $-1 $-1 $39 $6 #
transform $-1 1 0 0 0 1 0 0 0 1 68.809472945341355 38.038301676605251 14.694437283017578 1 rotate no_reflect no_shear #
lump $-1 $-1 $40 $7 #
transform $-1 1 0 0 0 1 0 0 0 1 68.809472945341355 38.038301676605251 14.694437283017578 1 rotate no_reflect no_shear #
lump $-1 $-1 $41 $8 #
transform $-1 1 0 0 0 1 0 0 0 1 68.809472945341355 38.038301676605251 14.694437283017578 1 rotate no_reflect no_shear #
lump $-1 $-1 $42 $9 #
transform $-1 1 0 0 0 1 0 0 0 1 68.809472945341355 38.038301676605251 14.694437283017578 1 rotate no_reflect no_shear #
lump $-1 $-1 $43 $10 #
transform $-1 1 0 0 0 1 0 0 0 1 68.809472945341355 38.038301676605251 14.694437283017578 1 rotate no_reflect no_shear #
shell $-1 $-1 $-1 $44 $-1 $11 #
shell $-1 $-1 $-1 $45 $-1 $13 #
shell $-1 $-1 $-1 $46 $-1 $15 #
shell $-1 $-1 $-1 $47 $-1 $17 #
shell $-1 $-1 $-1 $48 $-1 $19 #
shell $-1 $-1 $-1 $49 $-1 $21 #
shell $-1 $-1 $-1 $50 $-1 $23 #
shell $-1 $-1 $-1 $51 $-1 $25 #
shell $-1 $-1 $-1 $52 $-1 $27 #
shell $-1 $-1 $-1 $53 $-1 $29 #
shell $-1 $-1 $-1 $54 $-1 $31 #
face $-1 $55 $56 $33 $-1 $57 forward single #
face $-1 $58 $59 $34 $-1 $60 reversed single #
face $-1 $61 $62 $35 $-1 $63 reversed single #
face $-1 $64 $65 $36 $-1 $66 reversed single #
face $-1 $67 $68 $37 $-1 $69 forward single #
face $-1 $70 $71 $38 $-1 $72 forward single #
face $-1 $73 $74 $39 $-1 $75 forward single #
face $-1 $76 $77 $40 $-1 $78 reversed single #
face $-1 $79 $80 $41 $-1 $81 forward single #
face $-1 $82 $83 $42 $-1 $84 forward single #
face $-1 $85 $86 $43 $-1 $87 forward single #
face $-1 $88 $89 $33 $-1 $90 reversed single #
loop $-1 $-1 $91 $44 #
plane-surface $-1 0 0 14.694437283017578 0 0 1 1 0 0 forward_v I I I I #
face $-1 $92 $93 $34 $-1 $94 reversed single #
loop $-1 $-1 $95 $45 #
plane-surface $-1 -50.707129858699886 -34.268656290780562 0 -1 0 0 0 0 1 forward_v I I I I #
face $-1 $96 $97 $35 $-1 $98 reversed single #
loop $-1 $-1 $99 $46 #
plane-surface $-1 50.707129858699901 -34.268656290780562 0 1 0 0 0 0 -1 forward_v I I I I #
face $-1 $100 $101 $36 $-1 $102 reversed single #
loop $-1 $-1 $103 $47 #
plane-surface $-1 -50.707129858699886 65.522087019950192 156.40012348385437 1 0 0 0 -0.62932039886446345 -0.77714595512881146 forward_v I I I I #
face $-1 $104 $105 $37 $-1 $106 forward single #
loop $-1 $107 $108 $48 #
cone-surface $-1 -45.582842214310404 28.646512601628011 6.5405839698579218 0 -0.62932039886446345 -0.77714595512881146 1.5 0 0 1 I I 0 1 1.5 forward I I I I #
face $-1 $109 $110 $38 $-1 $111 forward single #
loop $-1 $112 $113 $49 #
cone-surface $-1 -37.896410747726179 28.646512601628011 6.5405839698579218 0 -0.62932039886446345 -0.77714595512881146 1.5 0 0 1 I I 0 1 1.5 forward I I I I #
face $-1 $114 $115 $39 $-1 $116 forward single #
loop $-1 $117 $118 $50 #
cone-surface $-1 -30.209979281141962 28.646512601628011 6.5405839698579218 0 -0.62932039886446345 -0.77714595512881146 1.5 0 0 1 I I 0 1 1.5 forward I I I I #
face $-1 $119 $120 $40 $-1 $121 reversed single #
loop $-1 $-1 $122 $51 #
plane-surface $-1 -37.896410747726186 -38.038301676605244 1.5735579693235309 0 -0.62932039886446345 0.77714595512881146 1 0 0 forward_v I I I I #
face $-1 $123 $124 $41 $-1 $125 forward single #
loop $-1 $126 $127 $52 #
cone-surface $-1 -45.582842214310404 -28.646512601628018 6.5405839698579147 0 0.62932039886446345 -0.77714595512881146 1.5 0 0 1 I I 0 1 1.5 forward I I I I #
face $-1 $128 $129 $42 $-1 $130 forward single #
loop $-1 $131 $132 $53 #
cone-surface $-1 -37.896410747726179 -28.646512601628018 6.5405839698579147 0 0.62932039886446345 -0.77714595512881146 1.5 0 0 1 I I 0 1 1.5 forward I I I I #
face $-1 $133 $134 $43 $-1 $135 forward single #
loop $-1 $136 $137 $54 #
cone-surface $-1 -30.209979281141962 -28.646512601628018 6.5405839698579147 0 0.62932039886446345 -0.77714595512881146 1.5 0 0 1 I I 0 1 1.5 forward I I I I #
face $-1 $138 $139 $33 $-1 $140 reversed single #
loop $-1 $-1 $141 $55 #
plane-surface $-1 0 0 -14.694437283017578 0 0 1 1 0 0 forward_v I I I I #
coedge $-1 $142 $143 $144 $145 forward $56 $-1 #
face $-1 $146 $147 $34 $-1 $148 forward single #
loop $-1 $-1 $149 $58 #
plane-surface $-1 -59.758301402020621 -30.499010904955878 0 0 -1 0 0 0 -1 forward_v I I I I #
coedge $-1 $150 $151 $152 $153 reversed $59 $-1 #
face $-1 $154 $155 $35 $-1 $156 forward single #
loop $-1 $-1 $157 $61 #
plane-surface $-1 59.758301402020635 -30.499010904955878 0 0 -1 0 0 0 -1 forward_v I I I I #
coedge $-1 $158 $159 $160 $161 forward $62 $-1 #
face $-1 $162 $163 $36 $-1 $164 reversed single #
loop $-1 $-1 $165 $64 #
plane-surface $-1 -37.896410747726186 -21.084322899281261 49.45011633581953 0 0.62932039886446345 0.77714595512881146 1 0 0 forward_v I I I I #
coedge $-1 $166 $167 $168 $169 reversed $65 $-1 #
face $-1 $-1 $170 $37 $-1 $171 forward single #
loop $-1 $172 $173 $67 #
cone-surface $-1 -45.582842214310404 26.884201338793311 4.3643108471986665 0 -0.62932039886446345 -0.77714595512881146 0.75 0 0 1 I I -0.70710678118654757 0.70710678118654757 0.75 forward I I I I #
loop $-1 $-1 $174 $48 #
coedge $-1 $108 $108 $175 $176 reversed $68 $-1 #
face $-1 $-1 $177 $38 $-1 $178 forward single #
loop $-1 $179 $180 $70 #
cone-surface $-1 -37.896410747726179 26.884201338793311 4.3643108471986665 0 -0.62932039886446345 -0.77714595512881146 0.75 0 0 1 I I -0.70710678118654757 0.70710678118654757 0.75 forward I I I I #
loop $-1 $-1 $181 $49 #
coedge $-1 $113 $113 $182 $183 reversed $71 $-1 #
face $-1 $-1 $184 $39 $-1 $185 forward single #
loop $-1 $186 $187 $73 #
cone-surface $-1 -30.209979281141962 26.884201338793311 4.3643108471986665 0 -0.62932039886446345 -0.77714595512881146 0.75 0 0 1 I I -0.70710678118654757 0.70710678118654757 0.75 forward I I I I #
loop $-1 $-1 $188 $50 #
coedge $-1 $118 $118 $189 $190 reversed $74 $-1 #
face $-1 $191 $192 $40 $-1 $193 forward single #
loop $-1 $-1 $194 $76 #
plane-surface $-1 -25.085691636752486 -124.6447115958367 108.52356511735837 -1 0 0 0 -0.62932039886446345 0.77714595512881146 forward_v I I I I #
coedge $-1 $195 $196 $197 $198 reversed $77 $-1 #
face $-1 $-1 $199 $41 $-1 $200 forward single #
loop $-1 $201 $202 $79 #
cone-surface $-1 -45.582842214310404 -26.884201338793318 4.3643108471986594 0 0.62932039886446345 -0.77714595512881146 0.75 0 0 1 I I -0.70710678118654757 0.70710678118654757 0.75 forward I I I I #
loop $-1 $-1 $203 $52 #
coedge $-1 $127 $127 $204 $205 reversed $80 $-1 #
face $-1 $-1 $206 $42 $-1 $207 forward single #
loop $-1 $208 $209 $82 #
cone-surface $-1 -37.896410747726179 -26.884201338793318 4.3643108471986594 0 0.62932039886446345 -0.77714595512881146 0.75 0 0 1 I I -0.70710678118654757 0.70710678118654757 0.75 forward I I I I #
loop $-1 $-1 $210 $53 #
coedge $-1 $132 $132 $211 $212 reversed $83 $-1 #
face $-1 $-1 $213 $43 $-1 $214 forward single #
loop $-1 $215 $216 $85 #
cone-surface $-1 -30.209979281141962 -26.884201338793318 4.3643108471986594 0 0.62932039886446345 -0.77714595512881146 0.75 0 0 1 I I -0.70710678118654757 0.70710678118654757 0.75 forward I I I I #
loop $-1 $-1 $217 $54 #
coedge $-1 $137 $137 $218 $219 reversed $86 $-1 #
face $-1 $220 $221 $33 $-1 $222 reversed single #
loop $-1 $-1 $223 $88 #
plane-surface $-1 0 -38.038301676605251 0 0 1 0 0 0 1 forward_v I I I I #
coedge $-1 $224 $225 $226 $227 forward $89 $-1 #
coedge $-1 $228 $91 $229 $230 forward $56 $-1 #
coedge $-1 $91 $228 $231 $232 forward $56 $-1 #
coedge $-1 $233 $234 $91 $145 reversed $235 $-1 #
edge $-1 $236 -38.038301676605251 $237 38.038301676605251 $144 $238 forward 7 unknown #
face $-1 $239 $240 $34 $-1 $241 reversed single #
loop $-1 $-1 $242 $92 #
plane-surface $-1 0 0 14.694437283017578 0 0 1 1 0 0 forward_v I I I I #
coedge $-1 $243 $244 $245 $246 forward $93 $-1 #
coedge $-1 $245 $95 $247 $248 reversed $59 $-1 #
coedge $-1 $95 $245 $242 $249 reversed $59 $-1 #
coedge $-1 $250 $251 $95 $153 forward $252 $-1 #
edge $-1 $253 -14.694437283017578 $254 14.694437283017578 $152 $255 forward 7 unknown #
face $-1 $256 $257 $35 $-1 $258 reversed single #
loop $-1 $-1 $259 $96 #
plane-surface $-1 0 0 14.694437283017578 0 0 1 1 0 0 forward_v I I I I #
coedge $-1 $260 $261 $262 $263 reversed $97 $-1 #
coedge $-1 $264 $99 $265 $266 reversed $62 $-1 #
coedge $-1 $99 $264 $267 $268 reversed $62 $-1 #
coedge $-1 $261 $260 $99 $161 reversed $97 $-1 #
edge $-1 $269 -14.694437283017578 $270 14.694437283017578 $160 $271 forward 7 unknown #
face $-1 $272 $273 $36 $-1 $274 reversed single #
loop $-1 $-1 $275 $100 #
plane-surface $-1 -25.085691636752486 65.522087019950192 156.40012348385437 -1 0 0 0 0.62932039886446345 0.77714595512881146 forward_v I I I I #
coedge $-1 $276 $277 $278 $279 reversed $101 $-1 #
coedge $-1 $167 $103 $280 $281 reversed $65 $-1 #
coedge $-1 $103 $166 $276 $282 reversed $65 $-1 #
coedge $-1 $278 $283 $103 $169 forward $284 $-1 #
edge $-1 $285 -5.2772581666301548 $286 10.925678055951629 $168 $287 forward 7 unknown #
loop $-1 $-1 $175 $104 #
plane-surface $-1 -37.896410747726186 -21.084322899281261 49.45011633581953 0 0.62932039886446345 0.77714595512881146 1 0 0 forward_v I I I I #
loop $-1 $-1 $288 $67 #
coedge $-1 $173 $173 $174 $289 reversed $105 $-1 #
coedge $-1 $174 $174 $173 $289 forward $107 $-1 #
coedge $-1 $175 $175 $108 $176 forward $170 $-1 #
edge $-1 $290 3.0509868850196291e-016 $290 6.2831853071796004 $175 $291 forward 7 unknown #
loop $-1 $-1 $182 $109 #
plane-surface $-1 -37.896410747726186 -21.084322899281261 49.45011633581953 0 0.62932039886446345 0.77714595512881146 1 0 0 forward_v I I I I #
loop $-1 $-1 $292 $70 #
coedge $-1 $180 $180 $181 $293 reversed $110 $-1 #
coedge $-1 $181 $181 $180 $293 forward $112 $-1 #
coedge $-1 $182 $182 $113 $183 forward $177 $-1 #
edge $-1 $294 3.0509868850196291e-016 $294 6.2831853071796004 $182 $295 forward 7 unknown #
loop $-1 $-1 $189 $114 #
plane-surface $-1 -37.896410747726186 -21.084322899281261 49.45011633581953 0 0.62932039886446345 0.77714595512881146 1 0 0 forward_v I I I I #
loop $-1 $-1 $296 $73 #
coedge $-1 $187 $187 $188 $297 reversed $115 $-1 #
coedge $-1 $188 $188 $187 $297 forward $117 $-1 #
coedge $-1 $189 $189 $118 $190 forward $184 $-1 #
edge $-1 $298 3.0509868850196291e-016 $298 6.2831853071796004 $189 $299 forward 7 unknown #
face $-1 $300 $301 $40 $-1 $302 forward single #
loop $-1 $-1 $303 $119 #
plane-surface $-1 0 0 14.694437283017578 0 0 1 1 0 0 forward_v I I I I #
coedge $-1 $304 $305 $306 $307 reversed $120 $-1 #
coedge $-1 $308 $122 $309 $310 reversed $77 $-1 #
coedge $-1 $122 $308 $304 $311 forward $77 $-1 #
coedge $-1 $306 $312 $122 $198 forward $313 $-1 #
edge $-1 $314 -31.758924484836793 $315 -6.1374862628893929 $197 $316 forward 7 unknown #
loop $-1 $-1 $204 $123 #
plane-surface $-1 -37.896410747726186 -38.038301676605244 1.5735579693235309 0 -0.62932039886446345 0.77714595512881146 1 0 0 forward_v I I I I #
loop $-1 $-1 $317 $79 #
coedge $-1 $202 $202 $203 $318 reversed $124 $-1 #
coedge $-1 $203 $203 $202 $318 forward $126 $-1 #
coedge $-1 $204 $204 $127 $205 forward $199 $-1 #
edge $-1 $319 7.9028762517378823e-016 $319 6.2831853071796013 $204 $320 forward 7 unknown #
loop $-1 $-1 $211 $128 #
plane-surface $-1 -37.896410747726186 -38.038301676605244 1.5735579693235309 0 -0.62932039886446345 0.77714595512881146 1 0 0 forward_v I I I I #
loop $-1 $-1 $321 $82 #
coedge $-1 $209 $209 $210 $322 reversed $129 $-1 #
coedge $-1 $210 $210 $209 $322 forward $131 $-1 #
coedge $-1 $211 $211 $132 $212 forward $206 $-1 #
edge $-1 $323 7.9028762517378823e-016 $323 6.2831853071796013 $211 $324 forward 7 unknown #
loop $-1 $-1 $218 $133 #
plane-surface $-1 -37.896410747726186 -38.038301676605244 1.5735579693235309 0 -0.62932039886446345 0.77714595512881146 1 0 0 forward_v I I I I #
loop $-1 $-1 $325 $85 #
coedge $-1 $216 $216 $217 $326 reversed $134 $-1 #
coedge $-1 $217 $217 $216 $326 forward $136 $-1 #
coedge $-1 $218 $218 $137 $219 forward $213 $-1 #
edge $-1 $327 7.9028762517378823e-016 $327 6.2831853071796013 $218 $328 forward 7 unknown #
face $-1 $329 $330 $33 $-1 $331 reversed single #
loop $-1 $-1 $332 $138 #
plane-surface $-1 -68.809472945341355 0 0 1 0 0 0 0 -1 forward_v I I I I #
coedge $-1 $333 $231 $334 $335 forward $139 $-1 #
coedge $-1 $336 $141 $333 $337 forward $89 $-1 #
coedge $-1 $141 $336 $338 $339 forward $89 $-1 #
coedge $-1 $234 $233 $141 $227 reversed $235 $-1 #
edge $-1 $340 -38.038301676605251 $341 38.038301676605251 $226 $342 forward 7 unknown #
coedge $-1 $143 $142 $343 $344 forward $56 $-1 #
coedge $-1 $345 $346 $142 $230 reversed $330 $-1 #
edge $-1 $237 -68.809472945341355 $347 68.809472945341355 $229 $348 forward 7 unknown #
coedge $-1 $223 $349 $143 $232 reversed $139 $-1 #
edge $-1 $350 -68.809472945341355 $236 68.809472945341355 $231 $351 forward 7 unknown #
coedge $-1 $226 $144 $349 $352 forward $235 $-1 #
coedge $-1 $144 $226 $345 $353 reversed $235 $-1 #
loop $-1 $-1 $233 $329 #
vertex $-1 $145 $354 #
vertex $-1 $145 $355 #
straight-curve $-1 68.809472945341355 0 14.694437283017578 0 1 0 I I #
face $-1 $356 $357 $34 $-1 $358 reversed single #
loop $-1 $-1 $359 $146 #
plane-surface $-1 -68.809472945341355 0 0 1 0 0 0 0 -1 forward_v I I I I #
coedge $-1 $360 $361 $151 $249 forward $147 $-1 #
coedge $-1 $362 $149 $363 $364 reversed $93 $-1 #
coedge $-1 $149 $362 $360 $365 reversed $93 $-1 #
coedge $-1 $151 $150 $149 $246 reversed $59 $-1 #
edge $-1 $366 -14.694437283017578 $367 14.694437283017578 $245 $368 forward 7 unknown #
coedge $-1 $369 $363 $150 $248 forward $357 $-1 #
edge $-1 $367 13.364682759565596 $253 20.903973531214969 $247 $370 forward 7 unknown #
edge $-1 $254 -20.903973531214969 $366 -13.364682759565596 $242 $371 forward 7 unknown #
coedge $-1 $372 $152 $361 $373 reversed $252 $-1 #
coedge $-1 $152 $372 $369 $374 reversed $252 $-1 #
loop $-1 $-1 $152 $356 #
vertex $-1 $374 $375 #
vertex $-1 $153 $376 #
straight-curve $-1 -50.707129858699886 -38.038301676605251 0 0 0 1 I I #
face $-1 $377 $378 $35 $-1 $379 reversed single #
loop $-1 $-1 $380 $154 #
plane-surface $-1 0 -38.038301676605251 0 0 1 0 0 0 1 forward_v I I I I #
coedge $-1 $267 $381 $261 $382 forward $155 $-1 #
coedge $-1 $160 $157 $383 $384 reversed $97 $-1 #
coedge $-1 $157 $160 $259 $382 reversed $97 $-1 #
coedge $-1 $385 $386 $157 $263 forward $387 $-1 #
edge $-1 $388 -14.694437283017578 $389 14.694437283017578 $262 $390 forward 7 unknown #
coedge $-1 $159 $158 $380 $391 reversed $62 $-1 #
coedge $-1 $383 $392 $158 $266 forward $378 $-1 #
edge $-1 $393 -20.903973531214969 $270 -13.364682759565596 $265 $394 forward 7 unknown #
coedge $-1 $395 $259 $159 $268 forward $155 $-1 #
edge $-1 $269 13.364682759565596 $396 20.903973531214969 $267 $397 forward 7 unknown #
vertex $-1 $268 $398 #
vertex $-1 $266 $399 #
straight-curve $-1 50.707129858699901 -30.499010904955878 0 0 0 -1 I I #
face $-1 $-1 $284 $36 $-1 $400 forward single #
loop $-1 $-1 $401 $162 #
plane-surface $-1 0 38.038301676605251 0 0 -1 0 0 0 -1 forward_v I I I I #
coedge $-1 $402 $403 $404 $405 reversed $163 $-1 #
coedge $-1 $406 $165 $167 $282 forward $101 $-1 #
coedge $-1 $165 $406 $402 $407 forward $101 $-1 #
coedge $-1 $404 $168 $165 $279 forward $284 $-1 #
edge $-1 $286 -31.758924484836793 $408 -6.1374862628893929 $278 $409 forward 7 unknown #
coedge $-1 $410 $411 $166 $281 forward $273 $-1 #
edge $-1 $412 -76.62650377260367 $285 -63.505624458909608 $280 $413 forward 7 unknown #
edge $-1 $286 55.227320003474532 $412 76.076603353210515 $167 $414 forward 7 unknown #
coedge $-1 $168 $404 $410 $415 forward $284 $-1 #
loop $-1 $-1 $404 $272 #
vertex $-1 $281 $416 #
vertex $-1 $169 $417 #
straight-curve $-1 -50.707129858699886 32.761043509975096 14.694437283017578 0 -1 0 I I #
coedge $-1 $288 $288 $-1 $418 reversed $172 $-1 #
edge $-1 $419 0 $419 6.2831853071796004 $173 $420 forward 7 unknown #
vertex $-1 $176 $421 #
ellipse-curve $-1 -45.582842214310404 29.936833565314352 8.1339976261705562 0 0.62932039886446345 0.77714595512881146 1.5 0 0 1 I I #
coedge $-1 $292 $292 $-1 $422 reversed $179 $-1 #
edge $-1 $423 0 $423 6.2831853071796004 $180 $424 forward 7 unknown #
vertex $-1 $183 $425 #
ellipse-curve $-1 -37.896410747726179 29.936833565314352 8.1339976261705562 0 0.62932039886446345 0.77714595512881146 1.5 0 0 1 I I #
coedge $-1 $296 $296 $-1 $426 reversed $186 $-1 #
edge $-1 $427 0 $427 6.2831853071796004 $187 $428 forward 7 unknown #
vertex $-1 $190 $429 #
ellipse-curve $-1 -30.209979281141962 29.936833565314352 8.1339976261705562 0 0.62932039886446345 0.77714595512881146 1.5 0 0 1 I I #
face $-1 $-1 $313 $40 $-1 $430 reversed single #
loop $-1 $-1 $309 $191 #
plane-surface $-1 -50.707129858699886 -34.268656290780562 0 -1 0 0 0 0 1 forward_v I I I I #
coedge $-1 $431 $432 $305 $433 forward $192 $-1 #
coedge $-1 $305 $194 $196 $311 reversed $120 $-1 #
coedge $-1 $194 $304 $303 $433 reversed $120 $-1 #
coedge $-1 $434 $197 $194 $307 forward $313 $-1 #
edge $-1 $315 -52.688224589355663 $435 -39.567345275661609 $306 $436 forward 7 unknown #
coedge $-1 $196 $195 $431 $437 reversed $77 $-1 #
coedge $-1 $438 $439 $195 $310 forward $301 $-1 #
edge $-1 $440 -19.879637082249658 $314 0.96964626748630844 $309 $441 forward 7 unknown #
edge $-1 $442 -20.849283349735956 $315 9.1551213131864128e-015 $304 $443 forward 7 unknown #
coedge $-1 $197 $434 $438 $444 forward $313 $-1 #
loop $-1 $-1 $306 $300 #
vertex $-1 $310 $445 #
vertex $-1 $198 $446 #
straight-curve $-1 -18.948205373863093 -38.038301676605251 1.5735579693235247 1 0 0 I I #
coedge $-1 $317 $317 $-1 $447 reversed $201 $-1 #
edge $-1 $448 0 $448 6.2831853071796004 $202 $449 forward 7 unknown #
vertex $-1 $205 $450 #
ellipse-curve $-1 -45.582842214310404 -29.936833565314362 8.1339976261705509 0 -0.62932039886446345 0.77714595512881146 1.5 0 0 1 I I #
coedge $-1 $321 $321 $-1 $451 reversed $208 $-1 #
edge $-1 $452 0 $452 6.2831853071796004 $209 $453 forward 7 unknown #
vertex $-1 $212 $454 #
ellipse-curve $-1 -37.896410747726179 -29.936833565314362 8.1339976261705509 0 -0.62932039886446345 0.77714595512881146 1.5 0 0 1 I I #
coedge $-1 $325 $325 $-1 $455 reversed $215 $-1 #
edge $-1 $456 0 $456 6.2831853071796004 $216 $457 forward 7 unknown #
vertex $-1 $219 $458 #
ellipse-curve $-1 -30.209979281141962 -29.936833565314362 8.1339976261705509 0 -0.62932039886446345 0.77714595512881146 1.5 0 0 1 I I #
face $-1 $-1 $235 $33 $-1 $459 reversed single #
loop $-1 $-1 $345 $220 #
plane-surface $-1 0 38.038301676605251 0 0 -1 0 0 0 -1 forward_v I I I I #
coedge $-1 $460 $343 $346 $461 forward $221 $-1 #
coedge $-1 $349 $223 $224 $337 reversed $139 $-1 #
coedge $-1 $343 $460 $223 $335 reversed $221 $-1 #
edge $-1 $350 -14.694437283017578 $462 14.694437283017578 $334 $463 forward 7 unknown #
coedge $-1 $225 $224 $460 $464 forward $89 $-1 #
edge $-1 $341 -68.809472945341355 $462 68.809472945341355 $333 $465 forward 7 unknown #
coedge $-1 $346 $345 $225 $339 reversed $330 $-1 #
edge $-1 $466 -68.809472945341355 $340 68.809472945341355 $338 $467 forward 7 unknown #
vertex $-1 $227 $468 #
vertex $-1 $352 $469 #
straight-curve $-1 68.809472945341355 0 -14.694437283017578 0 -1 0 I I #
coedge $-1 $332 $334 $228 $344 reversed $221 $-1 #
edge $-1 $347 -38.038301676605251 $350 38.038301676605251 $343 $470 forward 7 unknown #
coedge $-1 $338 $229 $234 $353 forward $330 $-1 #
coedge $-1 $229 $338 $332 $461 reversed $330 $-1 #
vertex $-1 $230 $471 #
straight-curve $-1 0 38.038301676605251 14.694437283017578 -1 0 0 I I #
coedge $-1 $231 $333 $233 $352 reversed $139 $-1 #
vertex $-1 $344 $472 #
straight-curve $-1 0 -38.038301676605251 14.694437283017578 1 0 0 I I #
edge $-1 $236 -14.694437283017578 $341 14.694437283017578 $233 $473 forward 7 unknown #
edge $-1 $237 -14.694437283017578 $340 14.694437283017578 $234 $474 forward 7 unknown #
point $-1 68.809472945341355 -38.038301676605251 14.694437283017578 #
point $-1 68.809472945341355 38.038301676605251 14.694437283017578 #
face $-1 $-1 $252 $34 $-1 $475 reversed single #
loop $-1 $-1 $247 $239 #
plane-surface $-1 0 0 -14.694437283017578 0 0 1 1 0 0 forward_v I I I I #
coedge $-1 $476 $477 $362 $478 forward $240 $-1 #
coedge $-1 $479 $242 $244 $365 forward $147 $-1 #
coedge $-1 $242 $479 $250 $373 forward $147 $-1 #
coedge $-1 $244 $243 $359 $478 reversed $93 $-1 #
coedge $-1 $247 $480 $243 $364 forward $357 $-1 #
edge $-1 $481 -38.930322244331045 $367 -20.827979157689576 $363 $482 forward 7 unknown #
edge $-1 $366 20.827979157689576 $483 38.930322244331045 $360 $484 forward 7 unknown #
vertex $-1 $365 $485 #
vertex $-1 $364 $486 #
straight-curve $-1 -50.707129858699886 -30.499010904955878 0 0 0 -1 I I #
coedge $-1 $480 $247 $251 $374 forward $357 $-1 #
straight-curve $-1 -50.707129858699886 -17.134328145390281 -14.694437283017578 0 -1 0 I I #
straight-curve $-1 -50.707129858699886 -17.134328145390281 14.694437283017578 0 1 0 I I #
coedge $-1 $251 $250 $487 $488 forward $252 $-1 #
edge $-1 $489 -68.809472945341355 $254 -50.707129858699886 $250 $490 forward 7 unknown #
edge $-1 $253 50.707129858699886 $491 68.809472945341355 $251 $492 forward 7 unknown #
point $-1 -50.707129858699886 -38.038301676605251 -14.694437283017578 #
point $-1 -50.707129858699886 -38.038301676605251 14.694437283017578 #
face $-1 $-1 $387 $35 $-1 $493 reversed single #
loop $-1 $-1 $383 $256 #
plane-surface $-1 0 0 -14.694437283017578 0 0 1 1 0 0 forward_v I I I I #
coedge $-1 $494 $495 $264 $391 forward $257 $-1 #
coedge $-1 $259 $395 $385 $496 forward $155 $-1 #
edge $-1 $389 -38.930322244331052 $269 -20.827979157689583 $259 $497 forward 7 unknown #
coedge $-1 $498 $265 $260 $384 forward $378 $-1 #
edge $-1 $270 20.827979157689583 $388 38.930322244331052 $383 $499 forward 7 unknown #
coedge $-1 $500 $262 $381 $496 reversed $387 $-1 #
coedge $-1 $262 $500 $498 $501 reversed $387 $-1 #
loop $-1 $-1 $262 $377 #
vertex $-1 $501 $502 #
vertex $-1 $263 $503 #
straight-curve $-1 68.809472945341355 -30.499010904955878 0 0 0 1 I I #
edge $-1 $396 -14.694437283017578 $393 14.694437283017578 $380 $504 forward 7 unknown #
coedge $-1 $265 $498 $494 $505 forward $378 $-1 #
vertex $-1 $266 $506 #
straight-curve $-1 50.707129858699901 -17.134328145390281 -14.694437283017578 0 1 0 I I #
coedge $-1 $381 $267 $495 $507 forward $155 $-1 #
vertex $-1 $507 $508 #
straight-curve $-1 50.707129858699901 -17.134328145390281 14.694437283017578 0 -1 0 I I #
point $-1 50.707129858699901 -30.499010904955878 14.694437283017578 #
point $-1 50.707129858699901 -30.499010904955878 -14.694437283017578 #
plane-surface $-1 0 0 14.694437283017578 0 0 1 1 0 0 forward_v I I I I #
coedge $-1 $411 $410 $403 $509 forward $273 $-1 #
coedge $-1 $403 $275 $277 $407 reversed $163 $-1 #
coedge $-1 $275 $402 $401 $509 reversed $163 $-1 #
coedge $-1 $283 $278 $275 $405 forward $284 $-1 #
edge $-1 $408 -10.925678055951629 $510 5.2772581666301548 $404 $511 forward 7 unknown #
coedge $-1 $277 $276 $411 $512 reversed $101 $-1 #
edge $-1 $513 -76.076603353210515 $408 -55.227320003474532 $402 $514 forward 7 unknown #
vertex $-1 $279 $515 #
straight-curve $-1 -18.948205373863093 21.835365454023467 14.694437283017578 1 0 0 I I #
coedge $-1 $401 $280 $283 $415 reversed $273 $-1 #
coedge $-1 $280 $401 $406 $512 forward $273 $-1 #
vertex $-1 $281 $516 #
straight-curve $-1 -50.707129858699886 38.038301676605251 78.200061741927186 0 0 1 I I #
straight-curve $-1 -50.707129858699886 -21.084322899281261 49.45011633581953 0 0.77714595512881146 -0.62932039886446345 I I #
edge $-1 $510 25.085691636752486 $285 50.707129858699886 $410 $517 forward 7 unknown #
point $-1 -50.707129858699886 38.038301676605251 14.694437283017578 #
point $-1 -50.707129858699886 21.835365454023467 14.694437283017578 #
edge $-1 $518 1 $518 0 $288 $-1 forward 7 unknown #
vertex $-1 $289 $519 #
ellipse-curve $-1 -45.582842214310404 27.356191637941659 4.9471703135452749 0 0.62932039886446345 0.77714595512881146 1.5 0 0 1 I I #
point $-1 -44.082842214310404 29.936833565314362 8.1339976261705687 #
edge $-1 $520 1 $520 0 $292 $-1 forward 7 unknown #
vertex $-1 $293 $521 #
ellipse-curve $-1 -37.896410747726179 27.356191637941659 4.9471703135452749 0 0.62932039886446345 0.77714595512881146 1.5 0 0 1 I I #
point $-1 -36.396410747726179 29.936833565314362 8.1339976261705687 #
edge $-1 $522 1 $522 0 $296 $-1 forward 7 unknown #
vertex $-1 $297 $523 #
ellipse-curve $-1 -30.209979281141962 27.356191637941659 4.9471703135452749 0 0.62932039886446345 0.77714595512881146 1.5 0 0 1 I I #
point $-1 -28.709979281141962 29.936833565314362 8.1339976261705687 #
plane-surface $-1 0 -38.038301676605251 0 0 1 0 0 0 1 forward_v I I I I #
coedge $-1 $524 $303 $308 $437 forward $192 $-1 #
coedge $-1 $303 $524 $434 $525 forward $192 $-1 #
edge $-1 $435 24.284054121313098 $442 40.486990343894881 $303 $526 forward 7 unknown #
coedge $-1 $312 $306 $432 $525 reversed $313 $-1 #
vertex $-1 $307 $527 #
straight-curve $-1 -25.085691636752486 -38.038301676605251 54.261782558679187 0 0 1 I I #
edge $-1 $442 6.1374862628893929 $440 31.758924484836793 $431 $528 forward 7 unknown #
coedge $-1 $439 $309 $312 $444 reversed $301 $-1 #
coedge $-1 $309 $438 $524 $529 reversed $301 $-1 #
vertex $-1 $437 $530 #
straight-curve $-1 -50.707129858699886 -37.284745001922516 2.1837761451354472 0 -0.77714595512881146 -0.62932039886446345 I I #
vertex $-1 $437 $531 #
straight-curve $-1 -25.085691636752486 -38.038301676605244 1.5735579693235309 0 -0.77714595512881146 -0.62932039886446345 I I #
edge $-1 $532 -14.694437283017578 $314 -1.5735579693235253 $312 $533 forward 7 unknown #
point $-1 -50.707129858699886 -38.038301676605251 1.5735579693235253 #
point $-1 -25.085691636752486 -38.038301676605251 1.5735579693235251 #
edge $-1 $534 1 $534 0 $317 $-1 forward 7 unknown #
vertex $-1 $318 $535 #
ellipse-curve $-1 -45.582842214310404 -27.356191637941667 4.9471703135452678 0 -0.62932039886446345 0.77714595512881146 1.5 0 0 1 I I #
point $-1 -44.082842214310404 -29.93683356531437 8.1339976261705615 #
edge $-1 $536 1 $536 0 $321 $-1 forward 7 unknown #
vertex $-1 $322 $537 #
ellipse-curve $-1 -37.896410747726179 -27.356191637941667 4.9471703135452678 0 -0.62932039886446345 0.77714595512881146 1.5 0 0 1 I I #
point $-1 -36.396410747726179 -29.93683356531437 8.1339976261705615 #
edge $-1 $538 1 $538 0 $325 $-1 forward 7 unknown #
vertex $-1 $326 $539 #
ellipse-curve $-1 -30.209979281141962 -27.356191637941667 4.9471703135452678 0 -0.62932039886446345 0.77714595512881146 1.5 0 0 1 I I #
point $-1 -28.709979281141962 -29.93683356531437 8.1339976261705615 #
plane-surface $-1 68.809472945341355 0 0 -1 0 0 0 0 1 forward_v I I I I #
coedge $-1 $334 $332 $336 $464 reversed $221 $-1 #
edge $-1 $347 -14.694437283017578 $466 14.694437283017578 $346 $540 forward 7 unknown #
vertex $-1 $464 $541 #
straight-curve $-1 -68.809472945341355 -38.038301676605251 0 0 0 -1 I I #
edge $-1 $462 -38.038301676605251 $466 38.038301676605251 $460 $542 forward 7 unknown #
straight-curve $-1 0 -38.038301676605251 -14.694437283017578 -1 0 0 I I #
vertex $-1 $339 $543 #
straight-curve $-1 0 38.038301676605251 -14.694437283017578 1 0 0 I I #
point $-1 68.809472945341355 38.038301676605251 -14.694437283017578 #
point $-1 68.809472945341355 -38.038301676605251 -14.694437283017578 #
straight-curve $-1 -68.809472945341355 0 14.694437283017578 0 -1 0 I I #
point $-1 -68.809472945341355 38.038301676605251 14.694437283017578 #
point $-1 -68.809472945341355 -38.038301676605251 14.694437283017578 #
straight-curve $-1 68.809472945341355 -38.038301676605251 0 0 0 -1 I I #
straight-curve $-1 68.809472945341355 38.038301676605251 0 0 0 -1 I I #
plane-surface $-1 0 -38.038301676605251 0 0 1 0 0 0 1 forward_v I I I I #
coedge $-1 $487 $359 $480 $544 reversed $240 $-1 #
coedge $-1 $359 $487 $479 $545 reversed $240 $-1 #
edge $-1 $483 -14.694437283017578 $481 14.694437283017578 $359 $546 forward 7 unknown #
coedge $-1 $361 $360 $477 $545 forward $147 $-1 #
coedge $-1 $363 $369 $476 $544 forward $357 $-1 #
vertex $-1 $364 $547 #
straight-curve $-1 -29.87915070101031 -30.499010904955878 -14.694437283017578 1 0 0 I I #
vertex $-1 $545 $548 #
straight-curve $-1 -29.87915070101031 -30.499010904955878 14.694437283017578 -1 0 0 I I #
point $-1 -50.707129858699886 -30.499010904955878 14.694437283017578 #
point $-1 -50.707129858699886 -30.499010904955878 -14.694437283017578 #
coedge $-1 $477 $476 $372 $488 reversed $240 $-1 #
edge $-1 $489 -14.694437283017578 $491 14.694437283017578 $487 $549 forward 7 unknown #
vertex $-1 $545 $550 #
straight-curve $-1 0 -38.038301676605251 14.694437283017578 1 0 0 I I #
vertex $-1 $544 $551 #
straight-curve $-1 0 -38.038301676605251 -14.694437283017578 -1 0 0 I I #
plane-surface $-1 68.809472945341355 0 0 -1 0 0 0 0 1 forward_v I I I I #
coedge $-1 $552 $380 $392 $505 reversed $257 $-1 #
coedge $-1 $380 $552 $395 $507 reversed $257 $-1 #
edge $-1 $553 -38.038301676605251 $389 -30.499010904955878 $385 $554 forward 7 unknown #
straight-curve $-1 29.879150701010317 -30.499010904955878 14.694437283017578 -1 0 0 I I #
coedge $-1 $392 $383 $386 $501 forward $378 $-1 #
straight-curve $-1 29.879150701010317 -30.499010904955878 -14.694437283017578 1 0 0 I I #
coedge $-1 $386 $385 $552 $555 forward $387 $-1 #
edge $-1 $388 30.499010904955878 $556 38.038301676605251 $386 $557 forward 7 unknown #
point $-1 68.809472945341369 -30.499010904955878 -14.694437283017578 #
point $-1 68.809472945341369 -30.499010904955878 14.694437283017578 #
straight-curve $-1 50.707129858699901 -38.038301676605251 0 0 0 -1 I I #
edge $-1 $556 -68.809472945341355 $393 -50.707129858699901 $494 $558 forward 7 unknown #
point $-1 50.707129858699901 -38.038301676605251 -14.694437283017578 #
edge $-1 $396 50.707129858699901 $553 68.809472945341355 $495 $559 forward 7 unknown #
point $-1 50.707129858699901 -38.038301676605251 14.694437283017578 #
edge $-1 $510 63.505624458909608 $513 76.62650377260367 $401 $560 forward 7 unknown #
vertex $-1 $415 $561 #
straight-curve $-1 -25.085691636752486 32.761043509975096 14.694437283017578 0 1 0 I I #
edge $-1 $513 6.1374862628893929 $412 31.758924484836793 $411 $562 forward 7 unknown #
vertex $-1 $512 $563 #
straight-curve $-1 -25.085691636752486 -21.084322899281261 49.45011633581953 0 -0.77714595512881146 0.62932039886446345 I I #
point $-1 -25.085691636752486 21.835365454023467 14.694437283017578 #
point $-1 -50.707129858699886 38.038301676605258 1.5735579693235167 #
straight-curve $-1 0 38.038301676605251 14.694437283017578 -1 0 0 I I #
vertex $-1 $418 $564 #
point $-1 -44.082842214310404 27.356191637941659 4.9471703135452749 #
vertex $-1 $422 $565 #
point $-1 -36.396410747726179 27.356191637941659 4.9471703135452749 #
vertex $-1 $426 $566 #
point $-1 -28.709979281141962 27.356191637941659 4.9471703135452749 #
coedge $-1 $432 $431 $439 $529 forward $192 $-1 #
edge $-1 $532 -50.707129858699886 $435 -25.085691636752486 $434 $567 forward 7 unknown #
straight-curve $-1 -25.085691636752486 -62.322355797918348 14.694437283017578 0 1 0 I I #
point $-1 -25.085691636752486 -38.038301676605251 14.694437283017578 #
straight-curve $-1 -18.948205373863093 -21.835365454023471 14.694437283017578 -1 0 0 I I #
edge $-1 $440 -40.486990343894881 $532 -24.284054121313098 $524 $568 forward 7 unknown #
point $-1 -50.707129858699886 -21.835365454023467 14.69443728301758 #
point $-1 -25.085691636752486 -21.835365454023467 14.69443728301758 #
vertex $-1 $525 $569 #
straight-curve $-1 -50.707129858699886 -38.038301676605251 0 0 0 -1 I I #
vertex $-1 $447 $570 #
point $-1 -44.082842214310404 -27.356191637941667 4.9471703135452678 #
vertex $-1 $451 $571 #
point $-1 -36.396410747726179 -27.356191637941667 4.9471703135452678 #
vertex $-1 $455 $572 #
point $-1 -28.709979281141962 -27.356191637941667 4.9471703135452678 #
straight-curve $-1 -68.809472945341355 38.038301676605251 0 0 0 -1 I I #
point $-1 -68.809472945341355 -38.038301676605251 -14.694437283017578 #
straight-curve $-1 -68.809472945341355 0 -14.694437283017578 0 1 0 I I #
point $-1 -68.809472945341355 38.038301676605251 -14.694437283017578 #
edge $-1 $491 -38.038301676605251 $481 -30.499010904955878 $476 $573 forward 7 unknown #
edge $-1 $483 30.499010904955878 $489 38.038301676605251 $477 $574 forward 7 unknown #
straight-curve $-1 -68.809472945341355 -30.499010904955878 0 0 0 -1 I I #
point $-1 -68.809472945341355 -30.499010904955878 -14.694437283017578 #
point $-1 -68.809472945341355 -30.499010904955878 14.694437283017578 #
straight-curve $-1 -68.809472945341355 -38.038301676605251 0 0 0 -1 I I #
point $-1 -68.809472945341355 -38.038301676605251 14.694437283017578 #
point $-1 -68.809472945341355 -38.038301676605251 -14.694437283017578 #
coedge $-1 $495 $494 $500 $555 reversed $257 $-1 #
vertex $-1 $496 $575 #
straight-curve $-1 68.809472945341355 0 14.694437283017578 0 1 0 I I #
edge $-1 $553 -14.694437283017578 $556 14.694437283017578 $500 $576 forward 7 unknown #
vertex $-1 $555 $577 #
straight-curve $-1 68.809472945341355 0 -14.694437283017578 0 -1 0 I I #
straight-curve $-1 0 -38.038301676605251 -14.694437283017578 -1 0 0 I I #
straight-curve $-1 0 -38.038301676605251 14.694437283017578 1 0 0 I I #
straight-curve $-1 -25.085691636752486 38.038301676605251 78.200061741927186 0 0 -1 I I #
point $-1 -25.085691636752486 38.038301676605251 14.694437283017578 #
straight-curve $-1 -18.948205373863093 38.038301676605251 1.5735579693235238 -1 0 0 I I #
point $-1 -25.085691636752486 38.038301676605258 1.5735579693235167 #
point $-1 -45.582842214310404 26.412211039644962 3.781451380852058 #
point $-1 -37.896410747726179 26.412211039644962 3.781451380852058 #
point $-1 -30.209979281141962 26.412211039644962 3.781451380852058 #
straight-curve $-1 0 -38.038301676605251 14.694437283017578 1 0 0 I I #
straight-curve $-1 -50.707129858699886 -62.322355797918348 14.694437283017578 0 -1 0 I I #
point $-1 -50.707129858699886 -38.038301676605251 14.694437283017578 #
point $-1 -45.582842214310404 -26.412211039644969 3.7814513808520509 #
point $-1 -37.896410747726179 -26.412211039644969 3.7814513808520509 #
point $-1 -30.209979281141962 -26.412211039644969 3.7814513808520509 #
straight-curve $-1 -68.809472945341355 0 -14.694437283017578 0 1 0 I I #
straight-curve $-1 -68.809472945341355 0 14.694437283017578 0 -1 0 I I #
point $-1 68.809472945341355 -38.038301676605251 14.694437283017578 #
straight-curve $-1 68.809472945341355 -38.038301676605251 0 0 0 -1 I I #
point $-1 68.809472945341355 -38.038301676605251 -14.694437283017578 #
End-of-ACIS-data 