500 0 10 0           
7 Unknown 11 ACIS 5.0 NT 24 Fri Mar 26 19:33:51 1999 
-1 9.9999999999999995e-007 1e-010 
body $-1 $10 $-1 $11 #
body $-1 $12 $-1 $13 #
body $-1 $14 $-1 $15 #
body $-1 $16 $-1 $17 #
body $-1 $18 $-1 $19 #
body $-1 $20 $-1 $21 #
body $-1 $22 $-1 $23 #
body $-1 $24 $-1 $25 #
body $-1 $26 $-1 $27 #
body $-1 $28 $-1 $29 #
lump $-1 $-1 $30 $0 #
transform $-1 1 0 0 0 1 0 0 0 1 73.585009308145388 37.17494818217039 17.379886736579071 1 rotate no_reflect no_shear #
lump $-1 $-1 $31 $1 #
transform $-1 1 0 0 0 1 0 0 0 1 73.585009308145388 37.17494818217039 17.379886736579071 1 rotate no_reflect no_shear #
lump $-1 $-1 $32 $2 #
transform $-1 1 0 0 0 1 0 0 0 1 73.585009308145388 37.17494818217039 17.379886736579071 1 rotate no_reflect no_shear #
lump $-1 $-1 $33 $3 #
transform $-1 1 0 0 0 1 0 0 0 1 73.585009308145388 37.17494818217039 17.379886736579071 1 rotate no_reflect no_shear #
lump $-1 $-1 $34 $4 #
transform $-1 1 0 0 0 1 0 0 0 1 73.585009308145388 37.17494818217039 17.379886736579071 1 rotate no_reflect no_shear #
lump $-1 $-1 $35 $5 #
transform $-1 1 0 0 0 1 0 0 0 1 73.585009308145388 37.17494818217039 17.379886736579071 1 rotate no_reflect no_shear #
lump $-1 $-1 $36 $6 #
transform $-1 1 0 0 0 1 0 0 0 1 73.585009308145388 37.17494818217039 17.379886736579071 1 rotate no_reflect no_shear #
lump $-1 $-1 $37 $7 #
transform $-1 1 0 0 0 1 0 0 0 1 73.585009308145388 37.17494818217039 17.379886736579071 1 rotate no_reflect no_shear #
lump $-1 $-1 $38 $8 #
transform $-1 1 0 0 0 1 0 0 0 1 73.585009308145388 37.17494818217039 17.379886736579071 1 rotate no_reflect no_shear #
lump $-1 $-1 $39 $9 #
transform $-1 1 0 0 0 1 0 0 0 1 73.585009308145388 37.17494818217039 17.379886736579071 1 rotate no_reflect no_shear #
shell $-1 $-1 $-1 $40 $-1 $10 #
shell $-1 $-1 $-1 $41 $-1 $12 #
shell $-1 $-1 $-1 $42 $-1 $14 #
shell $-1 $-1 $-1 $43 $-1 $16 #
shell $-1 $-1 $-1 $44 $-1 $18 #
shell $-1 $-1 $-1 $45 $-1 $20 #
shell $-1 $-1 $-1 $46 $-1 $22 #
shell $-1 $-1 $-1 $47 $-1 $24 #
shell $-1 $-1 $-1 $48 $-1 $26 #
shell $-1 $-1 $-1 $49 $-1 $28 #
face $-1 $50 $51 $30 $-1 $52 forward single #
face $-1 $53 $54 $31 $-1 $55 forward single #
face $-1 $56 $57 $32 $-1 $58 forward single #
face $-1 $59 $60 $33 $-1 $61 reversed single #
face $-1 $62 $63 $34 $-1 $64 forward single #
face $-1 $65 $66 $35 $-1 $67 forward single #
face $-1 $68 $69 $36 $-1 $70 forward single #
face $-1 $71 $72 $37 $-1 $73 reversed single #
face $-1 $74 $75 $38 $-1 $76 forward single #
face $-1 $77 $78 $39 $-1 $79 forward single #
face $-1 $80 $81 $30 $-1 $82 reversed single #
loop $-1 $-1 $83 $40 #
plane-surface $-1 0 0 17.379886736579071 0 0 1 1 0 0 forward_v I I I I #
face $-1 $84 $85 $31 $-1 $86 reversed single #
loop $-1 $-1 $87 $41 #
plane-surface $-1 0 -29.346695429271691 -11.414385283095235 0 0 1 1 0 0 forward_v I I I I #
face $-1 $88 $89 $32 $-1 $90 reversed single #
loop $-1 $-1 $91 $42 #
plane-surface $-1 0 29.346695429271684 -11.414385283095235 0 0 1 1 0 0 forward_v I I I I #
face $-1 $92 $93 $33 $-1 $94 reversed single #
loop $-1 $-1 $95 $43 #
plane-surface $-1 66.321385078541979 11.245292308153036 217.35017317209088 0 -1 0 -0.68199836817093118 0 -0.7313536940579346 forward_v I I I I #
face $-1 $96 $97 $34 $-1 $98 forward single #
loop $-1 $99 $100 $44 #
cone-surface $-1 68.679967635008467 1.0180166903345622 12.722228837780094 -0.68199836817093118 0 -0.7313536940579346 0.3656768470289673 0 -0.34099918408546559 1 I I 0 1 0.5 forward I I I I #
face $-1 $101 $102 $35 $-1 $103 forward single #
loop $-1 $104 $105 $45 #
cone-surface $-1 68.679967635008467 4.8532450470164932 12.722228837780094 -0.68199836817093118 0 -0.7313536940579346 0.3656768470289673 0 -0.34099918408546559 1 I I 0 1 0.5 forward I I I I #
face $-1 $106 $107 $36 $-1 $108 forward single #
loop $-1 $109 $110 $46 #
cone-surface $-1 68.679967635008467 8.688473403698417 12.722228837780094 -0.68199836817093118 0 -0.7313536940579346 0.3656768470289673 0 -0.34099918408546559 1 I I 0 1 0.5 forward I I I I #
face $-1 $111 $112 $37 $-1 $113 reversed single #
loop $-1 $-1 $114 $47 #
plane-surface $-1 -160.08937693555796 6.2947914158456868 126.39583524539495 0 1 0 -0.5877852598018023 0 0.80901698891910034 forward_v I I I I #
face $-1 $115 $116 $38 $-1 $117 forward single #
loop $-1 $118 $119 $48 #
cone-surface $-1 -66.031756317683545 9.3288653127816019 11.476924000486015 0.5877852598018023 0 -0.80901698891910034 1.2135254833786506 0 0.88167788970270344 1 I I 0 1 1.5 forward I I I I #
face $-1 $120 $121 $39 $-1 $122 forward single #
loop $-1 $123 $124 $49 #
cone-surface $-1 -66.031756317683545 13.879976158185471 11.476924000486015 0.5877852598018023 0 -0.80901698891910034 1.2135254833786506 0 0.88167788970270344 1 I I 0 1 1.5 forward I I I I #
face $-1 $125 $126 $30 $-1 $127 reversed single #
loop $-1 $-1 $128 $50 #
plane-surface $-1 0 0 -17.379886736579071 0 0 1 1 0 0 forward_v I I I I #
coedge $-1 $129 $130 $131 $132 forward $51 $-1 #
face $-1 $133 $134 $31 $-1 $135 reversed single #
loop $-1 $-1 $136 $53 #
plane-surface $-1 0 -21.518442676372992 -14.397136009837153 0 -1 0 0 0 -1 forward_v I I I I #
coedge $-1 $137 $138 $139 $140 reversed $54 $-1 #
face $-1 $141 $142 $32 $-1 $143 reversed single #
loop $-1 $-1 $144 $56 #
plane-surface $-1 0 21.518442676372985 -14.397136009837153 0 1 0 0 0 1 forward_v I I I I #
coedge $-1 $145 $146 $147 $148 reversed $57 $-1 #
face $-1 $149 $150 $33 $-1 $151 reversed single #
loop $-1 $-1 $152 $59 #
plane-surface $-1 -34.048327461453894 4.8532450470164932 109.71683640249161 0.68199836817093118 0 0.7313536940579346 0.7313536940579346 0 -0.68199836817093118 forward_v I I I I #
coedge $-1 $153 $154 $155 $156 reversed $60 $-1 #
face $-1 $-1 $157 $34 $-1 $158 forward single #
loop $-1 $159 $160 $62 #
cone-surface $-1 67.911468054699768 1.0180166903345622 11.898113952508293 -0.68199836817093118 0 -0.7313536940579346 0.18283842351448365 0 -0.17049959204273279 1 I I -0.70710678118654746 0.70710678118654746 0.25 forward I I I I #
loop $-1 $-1 $161 $44 #
coedge $-1 $100 $100 $162 $163 reversed $63 $-1 #
face $-1 $-1 $164 $35 $-1 $165 forward single #
loop $-1 $166 $167 $65 #
cone-surface $-1 67.911468054699768 4.8532450470164932 11.898113952508293 -0.68199836817093118 0 -0.7313536940579346 0.18283842351448365 0 -0.17049959204273279 1 I I -0.70710678118654746 0.70710678118654746 0.25 forward I I I I #
loop $-1 $-1 $168 $45 #
coedge $-1 $105 $105 $169 $170 reversed $66 $-1 #
face $-1 $-1 $171 $36 $-1 $172 forward single #
loop $-1 $173 $174 $68 #
cone-surface $-1 67.911468054699768 8.688473403698417 11.898113952508293 -0.68199836817093118 0 -0.7313536940579346 0.18283842351448365 0 -0.17049959204273279 1 I I -0.70710678118654746 0.70710678118654746 0.25 forward I I I I #
loop $-1 $-1 $175 $46 #
coedge $-1 $110 $110 $176 $177 reversed $69 $-1 #
face $-1 $178 $179 $37 $-1 $180 reversed single #
loop $-1 $-1 $181 $71 #
plane-surface $-1 -73.585009308145416 11.604420735483536 7.3327899252754491 -0.5877852598018023 0 0.80901698891910034 0.80901698891910034 0 0.5877852598018023 forward_v I I I I #
coedge $-1 $182 $183 $184 $185 reversed $72 $-1 #
face $-1 $-1 $186 $38 $-1 $187 forward single #
loop $-1 $188 $189 $74 #
cone-surface $-1 -64.951985449557696 9.3288653127816019 9.9907469283554633 0.5877852598018023 0 -0.80901698891910034 0.60676274168932531 0 0.44083894485135172 1 I I -0.70710678118654757 0.70710678118654757 0.75 forward I I I I #
loop $-1 $-1 $190 $48 #
coedge $-1 $119 $119 $191 $192 reversed $75 $-1 #
face $-1 $-1 $193 $39 $-1 $194 forward single #
loop $-1 $195 $196 $77 #
cone-surface $-1 -64.951985449557696 13.879976158185471 9.9907469283554633 0.5877852598018023 0 -0.80901698891910034 0.60676274168932531 0 0.44083894485135172 1 I I -0.70710678118654757 0.70710678118654757 0.75 forward I I I I #
loop $-1 $-1 $197 $49 #
coedge $-1 $124 $124 $198 $199 reversed $78 $-1 #
face $-1 $200 $201 $30 $-1 $202 reversed single #
loop $-1 $-1 $203 $80 #
plane-surface $-1 0 -37.17494818217039 0 0 1 0 0 0 1 forward_v I I I I #
coedge $-1 $204 $205 $206 $207 forward $81 $-1 #
coedge $-1 $208 $83 $209 $210 forward $51 $-1 #
coedge $-1 $83 $208 $211 $212 forward $51 $-1 #
coedge $-1 $213 $214 $83 $132 reversed $215 $-1 #
edge $-1 $216 -37.17494818217039 $217 37.17494818217039 $131 $218 forward 7 unknown #
face $-1 $219 $220 $31 $-1 $221 reversed single #
loop $-1 $-1 $222 $84 #
plane-surface $-1 0 0 -17.379886736579071 0 0 1 1 0 0 forward_v I I I I #
coedge $-1 $223 $224 $225 $226 reversed $85 $-1 #
coedge $-1 $227 $87 $224 $228 forward $54 $-1 #
coedge $-1 $87 $227 $229 $230 reversed $54 $-1 #
coedge $-1 $231 $225 $87 $140 forward $220 $-1 #
edge $-1 $232 6.8450949617371464 $233 22.501600467534544 $139 $234 forward 7 unknown #
face $-1 $235 $236 $32 $-1 $237 reversed single #
loop $-1 $-1 $147 $88 #
plane-surface $-1 73.585009308145388 0 0 -1 0 0 0 0 1 forward_v I I I I #
coedge $-1 $238 $239 $240 $241 reversed $89 $-1 #
coedge $-1 $242 $91 $243 $244 reversed $57 $-1 #
coedge $-1 $91 $242 $239 $245 forward $57 $-1 #
coedge $-1 $246 $247 $91 $148 forward $142 $-1 #
edge $-1 $248 -22.501600467534541 $249 -6.8450949617371428 $147 $250 forward 7 unknown #
face $-1 $251 $252 $33 $-1 $253 forward single #
loop $-1 $-1 $254 $92 #
plane-surface $-1 66.321385078541979 -1.5388022141200501 217.35017317209088 0 1 0 0.68199836817093118 0 0.7313536940579346 forward_v I I I I #
coedge $-1 $255 $256 $257 $258 reversed $93 $-1 #
coedge $-1 $154 $95 $259 $260 reversed $60 $-1 #
coedge $-1 $95 $153 $255 $261 reversed $60 $-1 #
coedge $-1 $257 $262 $95 $156 forward $252 $-1 #
edge $-1 $263 -40.424316768874398 $264 -31.810233399132564 $155 $265 forward 7 unknown #
loop $-1 $-1 $162 $96 #
plane-surface $-1 -34.048327461453894 4.8532450470164932 109.71683640249161 0.68199836817093118 0 0.7313536940579346 0.7313536940579346 0 -0.68199836817093118 forward_v I I I I #
loop $-1 $-1 $266 $62 #
coedge $-1 $160 $160 $161 $267 reversed $97 $-1 #
coedge $-1 $161 $161 $160 $267 forward $99 $-1 #
coedge $-1 $162 $162 $100 $163 forward $157 $-1 #
edge $-1 $268 0 $268 6.2831853071796004 $162 $269 forward 7 unknown #
loop $-1 $-1 $169 $101 #
plane-surface $-1 -34.048327461453894 4.8532450470164932 109.71683640249161 0.68199836817093118 0 0.7313536940579346 0.7313536940579346 0 -0.68199836817093118 forward_v I I I I #
loop $-1 $-1 $270 $65 #
coedge $-1 $167 $167 $168 $271 reversed $102 $-1 #
coedge $-1 $168 $168 $167 $271 forward $104 $-1 #
coedge $-1 $169 $169 $105 $170 forward $164 $-1 #
edge $-1 $272 0 $272 6.2831853071796004 $169 $273 forward 7 unknown #
loop $-1 $-1 $176 $106 #
plane-surface $-1 -34.048327461453894 4.8532450470164932 109.71683640249161 0.68199836817093118 0 0.7313536940579346 0.7313536940579346 0 -0.68199836817093118 forward_v I I I I #
loop $-1 $-1 $274 $68 #
coedge $-1 $174 $174 $175 $275 reversed $107 $-1 #
coedge $-1 $175 $175 $174 $275 forward $109 $-1 #
coedge $-1 $176 $176 $110 $177 forward $171 $-1 #
edge $-1 $276 0 $276 6.2831853071796004 $176 $277 forward 7 unknown #
face $-1 $278 $279 $37 $-1 $280 reversed single #
loop $-1 $-1 $281 $111 #
plane-surface $-1 -160.08937693555796 16.914050055121386 126.39583524539495 0 -1 0 0.5877852598018023 0 -0.80901698891910034 forward_v I I I I #
coedge $-1 $282 $283 $284 $285 reversed $112 $-1 #
coedge $-1 $183 $114 $286 $287 reversed $72 $-1 #
coedge $-1 $114 $182 $282 $288 reversed $72 $-1 #
coedge $-1 $284 $289 $114 $185 forward $290 $-1 #
edge $-1 $291 6.4596791596335947 $292 20.288321294008213 $184 $293 forward 7 unknown #
loop $-1 $-1 $191 $115 #
plane-surface $-1 -73.585009308145416 11.604420735483536 7.3327899252754491 -0.5877852598018023 0 0.80901698891910034 0.80901698891910034 0 0.5877852598018023 forward_v I I I I #
loop $-1 $-1 $294 $74 #
coedge $-1 $189 $189 $190 $295 reversed $116 $-1 #
coedge $-1 $190 $190 $189 $295 forward $118 $-1 #
coedge $-1 $191 $191 $119 $192 forward $186 $-1 #
edge $-1 $296 0 $296 6.2831853071796004 $191 $297 forward 7 unknown #
loop $-1 $-1 $198 $120 #
plane-surface $-1 -73.585009308145416 11.604420735483536 7.3327899252754491 -0.5877852598018023 0 0.80901698891910034 0.80901698891910034 0 0.5877852598018023 forward_v I I I I #
loop $-1 $-1 $298 $77 #
coedge $-1 $196 $196 $197 $299 reversed $121 $-1 #
coedge $-1 $197 $197 $196 $299 forward $123 $-1 #
coedge $-1 $198 $198 $124 $199 forward $193 $-1 #
edge $-1 $300 0 $300 6.2831853071796004 $198 $301 forward 7 unknown #
face $-1 $302 $303 $30 $-1 $304 reversed single #
loop $-1 $-1 $305 $125 #
plane-surface $-1 -73.585009308145388 0 0 1 0 0 0 0 -1 forward_v I I I I #
coedge $-1 $306 $211 $307 $308 forward $126 $-1 #
coedge $-1 $309 $128 $306 $310 forward $81 $-1 #
coedge $-1 $128 $309 $311 $312 forward $81 $-1 #
coedge $-1 $214 $213 $128 $207 reversed $215 $-1 #
edge $-1 $313 -37.17494818217039 $314 37.17494818217039 $206 $315 forward 7 unknown #
coedge $-1 $130 $129 $316 $317 forward $51 $-1 #
coedge $-1 $318 $319 $129 $210 reversed $303 $-1 #
edge $-1 $217 -73.585009308145388 $320 73.585009308145388 $209 $321 forward 7 unknown #
coedge $-1 $203 $322 $130 $212 reversed $126 $-1 #
edge $-1 $323 -73.585009308145388 $216 73.585009308145388 $211 $324 forward 7 unknown #
coedge $-1 $206 $131 $322 $325 forward $215 $-1 #
coedge $-1 $131 $206 $318 $326 reversed $215 $-1 #
loop $-1 $-1 $213 $302 #
vertex $-1 $132 $327 #
vertex $-1 $132 $328 #
straight-curve $-1 73.585009308145388 0 17.379886736579071 0 1 0 I I #
face $-1 $329 $330 $31 $-1 $331 reversed single #
loop $-1 $-1 $225 $133 #
plane-surface $-1 73.585009308145388 0 0 -1 0 0 0 0 1 forward_v I I I I #
coedge $-1 $332 $333 $223 $334 forward $134 $-1 #
coedge $-1 $335 $136 $222 $334 reversed $85 $-1 #
coedge $-1 $136 $335 $137 $228 reversed $85 $-1 #
coedge $-1 $139 $336 $136 $226 forward $220 $-1 #
edge $-1 $337 -10.181318731660493 $232 -4.215817278176659 $225 $338 forward 7 unknown #
coedge $-1 $138 $137 $339 $340 reversed $54 $-1 #
edge $-1 $232 -73.585009308145388 $341 73.585009308145388 $224 $342 forward 7 unknown #
coedge $-1 $343 $344 $138 $230 forward $330 $-1 #
edge $-1 $233 -73.585009308145388 $345 73.585009308145388 $229 $346 forward 7 unknown #
coedge $-1 $336 $139 $344 $347 forward $220 $-1 #
vertex $-1 $140 $348 #
vertex $-1 $347 $349 #
straight-curve $-1 73.585009308145388 -14.673347714635845 -11.414385283095235 0 -1 0 I I #
face $-1 $350 $351 $32 $-1 $352 reversed single #
loop $-1 $-1 $353 $141 #
plane-surface $-1 0 0 -17.379886736579071 0 0 1 1 0 0 forward_v I I I I #
coedge $-1 $354 $144 $353 $355 reversed $89 $-1 #
coedge $-1 $144 $354 $146 $245 reversed $89 $-1 #
coedge $-1 $356 $357 $144 $241 forward $351 $-1 #
edge $-1 $358 -10.181318731660493 $359 -4.215817278176659 $240 $360 forward 7 unknown #
coedge $-1 $146 $145 $356 $361 reversed $57 $-1 #
coedge $-1 $362 $363 $145 $244 forward $364 $-1 #
edge $-1 $365 -73.585009308145388 $248 73.585009308145388 $243 $366 forward 7 unknown #
edge $-1 $359 -73.585009308145388 $249 73.585009308145388 $239 $367 forward 7 unknown #
coedge $-1 $368 $147 $354 $369 forward $142 $-1 #
coedge $-1 $147 $368 $362 $370 reversed $142 $-1 #
vertex $-1 $370 $371 #
vertex $-1 $148 $372 #
straight-curve $-1 73.585009308145388 14.673347714635842 -11.414385283095235 0 -1 0 I I #
face $-1 $-1 $373 $33 $-1 $374 reversed single #
loop $-1 $-1 $155 $149 #
plane-surface $-1 0 0 17.379886736579071 0 0 1 1 0 0 forward_v I I I I #
coedge $-1 $375 $376 $377 $378 reversed $150 $-1 #
coedge $-1 $379 $152 $154 $261 forward $93 $-1 #
coedge $-1 $152 $379 $375 $380 forward $93 $-1 #
coedge $-1 $377 $155 $152 $258 forward $252 $-1 #
edge $-1 $264 -8.8186697846447899 $381 3.9654247376282967 $257 $382 forward 7 unknown #
coedge $-1 $383 $384 $153 $260 forward $373 $-1 #
edge $-1 $385 -99.327962723549717 $263 -91.295199849466371 $259 $386 forward 7 unknown #
edge $-1 $264 135.39174575087821 $385 147.1700186162908 $154 $387 forward 7 unknown #
coedge $-1 $155 $377 $383 $388 forward $252 $-1 #
vertex $-1 $260 $389 #
vertex $-1 $156 $390 #
straight-curve $-1 33.16069253927099 11.245292308153036 17.379886736579067 -1 0 0 I I #
coedge $-1 $266 $266 $-1 $391 reversed $159 $-1 #
edge $-1 $392 0 $392 6.2831853071796004 $160 $393 forward 7 unknown #
vertex $-1 $163 $394 #
ellipse-curve $-1 69.277967623274449 1.0180166903345622 13.363505299537419 0.68199836817093118 0 0.7313536940579346 0.3656768470289673 0 -0.34099918408546559 1 I I #
coedge $-1 $270 $270 $-1 $395 reversed $166 $-1 #
edge $-1 $396 0 $396 6.2831853071796004 $167 $397 forward 7 unknown #
vertex $-1 $170 $398 #
ellipse-curve $-1 69.277967623274449 4.8532450470164932 13.363505299537419 0.68199836817093118 0 0.7313536940579346 0.3656768470289673 0 -0.34099918408546559 1 I I #
coedge $-1 $274 $274 $-1 $399 reversed $173 $-1 #
edge $-1 $400 0 $400 6.2831853071796004 $174 $401 forward 7 unknown #
vertex $-1 $177 $402 #
ellipse-curve $-1 69.277967623274449 8.688473403698417 13.363505299537419 0.68199836817093118 0 0.7313536940579346 0.3656768470289673 0 -0.34099918408546559 1 I I #
face $-1 $-1 $290 $37 $-1 $403 forward single #
loop $-1 $-1 $404 $178 #
plane-surface $-1 -73.585009308145388 0 0 1 0 0 0 0 -1 forward_v I I I I #
coedge $-1 $405 $406 $407 $408 reversed $179 $-1 #
coedge $-1 $409 $181 $183 $288 forward $112 $-1 #
coedge $-1 $181 $409 $405 $410 forward $112 $-1 #
coedge $-1 $407 $184 $181 $285 forward $290 $-1 #
edge $-1 $292 0.49258104810391856 $411 11.111839687379618 $284 $412 forward 7 unknown #
coedge $-1 $413 $414 $182 $287 forward $279 $-1 #
edge $-1 $415 -55.865127697422004 $291 -45.818030886118407 $286 $416 forward 7 unknown #
edge $-1 $292 -17.093141829877538 $415 -3.5000983996316274e-014 $183 $417 forward 7 unknown #
coedge $-1 $184 $407 $413 $418 forward $290 $-1 #
loop $-1 $-1 $407 $278 #
vertex $-1 $287 $419 #
vertex $-1 $185 $420 #
straight-curve $-1 -80.044688467778982 6.2947914158456868 17.379886736579067 1 0 0 I I #
coedge $-1 $294 $294 $-1 $421 reversed $188 $-1 #
edge $-1 $422 0 $422 6.2831853071796004 $189 $423 forward 7 unknown #
vertex $-1 $192 $424 #
ellipse-curve $-1 -66.670688240958071 9.3288653127816019 12.356338330927278 -0.5877852598018023 0 0.80901698891910034 1.2135254833786506 0 0.88167788970270344 1 I I #
coedge $-1 $298 $298 $-1 $425 reversed $195 $-1 #
edge $-1 $426 0 $426 6.2831853071796004 $196 $427 forward 7 unknown #
vertex $-1 $199 $428 #
ellipse-curve $-1 -66.670688240958071 13.879976158185471 12.356338330927278 -0.5877852598018023 0 0.80901698891910034 1.2135254833786506 0 0.88167788970270344 1 I I #
face $-1 $-1 $215 $30 $-1 $429 reversed single #
loop $-1 $-1 $318 $200 #
plane-surface $-1 0 37.17494818217039 0 0 -1 0 0 0 -1 forward_v I I I I #
coedge $-1 $430 $316 $319 $431 forward $201 $-1 #
coedge $-1 $322 $203 $204 $310 reversed $126 $-1 #
coedge $-1 $316 $430 $203 $308 reversed $201 $-1 #
edge $-1 $323 -17.379886736579071 $432 17.379886736579071 $307 $433 forward 7 unknown #
coedge $-1 $205 $204 $430 $434 forward $81 $-1 #
edge $-1 $314 -73.585009308145388 $432 73.585009308145388 $306 $435 forward 7 unknown #
coedge $-1 $319 $318 $205 $312 reversed $303 $-1 #
edge $-1 $436 -73.585009308145388 $313 73.585009308145388 $311 $437 forward 7 unknown #
vertex $-1 $207 $438 #
vertex $-1 $325 $439 #
straight-curve $-1 73.585009308145388 0 -17.379886736579071 0 -1 0 I I #
coedge $-1 $305 $307 $208 $317 reversed $201 $-1 #
edge $-1 $320 -37.17494818217039 $323 37.17494818217039 $316 $440 forward 7 unknown #
coedge $-1 $311 $209 $214 $326 forward $303 $-1 #
coedge $-1 $209 $311 $305 $431 reversed $303 $-1 #
vertex $-1 $210 $441 #
straight-curve $-1 0 37.17494818217039 17.379886736579071 -1 0 0 I I #
coedge $-1 $211 $306 $213 $325 reversed $126 $-1 #
vertex $-1 $317 $442 #
straight-curve $-1 0 -37.17494818217039 17.379886736579071 1 0 0 I I #
edge $-1 $216 -17.379886736579071 $314 17.379886736579071 $213 $443 forward 7 unknown #
edge $-1 $217 -17.379886736579071 $313 17.379886736579071 $214 $444 forward 7 unknown #
point $-1 73.585009308145388 -37.17494818217039 17.379886736579071 #
point $-1 73.585009308145388 37.17494818217039 17.379886736579071 #
face $-1 $-1 $445 $31 $-1 $446 reversed single #
loop $-1 $-1 $229 $219 #
plane-surface $-1 0 -37.17494818217039 0 0 1 0 0 0 1 forward_v I I I I #
coedge $-1 $447 $222 $336 $448 forward $134 $-1 #
coedge $-1 $222 $447 $449 $450 forward $134 $-1 #
edge $-1 $451 -73.585009308145388 $337 73.585009308145388 $222 $452 forward 7 unknown #
coedge $-1 $224 $223 $453 $454 reversed $85 $-1 #
coedge $-1 $225 $231 $332 $448 reversed $220 $-1 #
vertex $-1 $448 $455 #
straight-curve $-1 73.585009308145388 -21.518442676372992 -7.1985680049185765 0 0 1 I I #
coedge $-1 $453 $456 $227 $340 forward $445 $-1 #
edge $-1 $345 -22.501600467534544 $341 -6.8450949617371464 $339 $457 forward 7 unknown #
vertex $-1 $340 $458 #
straight-curve $-1 0 -21.518442676372992 -11.414385283095235 -1 0 0 I I #
coedge $-1 $459 $229 $456 $460 forward $330 $-1 #
coedge $-1 $229 $459 $231 $347 reversed $330 $-1 #
vertex $-1 $460 $461 #
straight-curve $-1 0 -37.17494818217039 -11.414385283095235 -1 0 0 I I #
edge $-1 $233 11.414385283095235 $462 17.379886736579071 $231 $463 forward 7 unknown #
point $-1 73.585009308145388 -21.518442676372992 -11.414385283095235 #
point $-1 73.585009308145388 -37.17494818217039 -11.414385283095235 #
face $-1 $-1 $364 $32 $-1 $464 reversed single #
loop $-1 $-1 $356 $235 #
plane-surface $-1 -73.585009308145388 0 0 1 0 0 0 0 -1 forward_v I I I I #
coedge $-1 $465 $466 $238 $355 forward $236 $-1 #
coedge $-1 $239 $238 $246 $369 reversed $89 $-1 #
edge $-1 $467 -73.585009308145388 $358 73.585009308145388 $353 $468 forward 7 unknown #
coedge $-1 $469 $240 $242 $361 forward $351 $-1 #
coedge $-1 $240 $469 $465 $470 reversed $351 $-1 #
vertex $-1 $470 $471 #
vertex $-1 $361 $472 #
straight-curve $-1 -73.585009308145388 21.518442676372985 -7.1985680049185765 0 0 1 I I #
edge $-1 $359 6.8450949617371428 $365 22.501600467534541 $356 $473 forward 7 unknown #
coedge $-1 $474 $243 $247 $370 forward $364 $-1 #
coedge $-1 $243 $474 $469 $475 reversed $364 $-1 #
loop $-1 $-1 $243 $350 #
vertex $-1 $475 $476 #
straight-curve $-1 0 37.17494818217039 -11.414385283095235 1 0 0 I I #
straight-curve $-1 0 21.518442676372985 -11.414385283095235 1 0 0 I I #
coedge $-1 $247 $246 $466 $477 reversed $142 $-1 #
edge $-1 $249 4.215817278176659 $467 10.181318731660493 $246 $478 forward 7 unknown #
edge $-1 $248 11.414385283095235 $479 17.379886736579071 $247 $480 forward 7 unknown #
point $-1 73.585009308145388 37.174948182170382 -11.414385283095235 #
point $-1 73.585009308145388 21.518442676372985 -11.414385283095235 #
loop $-1 $-1 $259 $251 #
plane-surface $-1 73.585009308145388 0 0 -1 0 0 0 0 1 forward_v I I I I #
coedge $-1 $376 $254 $256 $380 reversed $150 $-1 #
coedge $-1 $254 $375 $481 $482 reversed $150 $-1 #
coedge $-1 $262 $257 $254 $378 forward $252 $-1 #
edge $-1 $381 31.810233399132564 $483 40.424316768874398 $377 $484 forward 7 unknown #
coedge $-1 $256 $255 $384 $485 reversed $93 $-1 #
edge $-1 $486 -147.1700186162908 $381 -135.39174575087821 $375 $487 forward 7 unknown #
vertex $-1 $258 $488 #
straight-curve $-1 64.970925938403553 2.4266225235082466 17.37988673657906 0 -1 0 I I #
coedge $-1 $481 $259 $262 $388 reversed $373 $-1 #
coedge $-1 $259 $481 $379 $485 forward $373 $-1 #
vertex $-1 $260 $489 #
straight-curve $-1 73.585009308145388 11.245292308153036 108.67508658604544 0 0 1 I I #
straight-curve $-1 -34.048327461453894 11.245292308153036 109.71683640249161 0.7313536940579346 0 -0.68199836817093118 I I #
edge $-1 $483 -1.5388022141200501 $263 11.245292308153036 $383 $490 forward 7 unknown #
point $-1 73.585009308145388 11.245292308153036 17.379886736579071 #
point $-1 64.970925938403553 11.245292308153036 17.379886736579067 #
edge $-1 $491 1 $491 0 $266 $-1 forward 7 unknown #
vertex $-1 $267 $492 #
ellipse-curve $-1 68.081967646742498 1.0180166903345622 12.080952376022777 0.68199836817093118 0 0.7313536940579346 0.3656768470289673 0 -0.34099918408546559 1 I I #
point $-1 69.643644470303414 1.0180166903345622 13.022506115451947 #
edge $-1 $493 1 $493 0 $270 $-1 forward 7 unknown #
vertex $-1 $271 $494 #
ellipse-curve $-1 68.081967646742498 4.8532450470164932 12.080952376022777 0.68199836817093118 0 0.7313536940579346 0.3656768470289673 0 -0.34099918408546559 1 I I #
point $-1 69.643644470303414 4.8532450470164932 13.022506115451947 #
edge $-1 $495 1 $495 0 $274 $-1 forward 7 unknown #
vertex $-1 $275 $496 #
ellipse-curve $-1 68.081967646742498 8.688473403698417 12.080952376022777 0.68199836817093118 0 0.7313536940579346 0.3656768470289673 0 -0.34099918408546559 1 I I #
point $-1 69.643644470303414 8.688473403698417 13.022506115451947 #
plane-surface $-1 0 0 17.379886736579071 0 0 1 1 0 0 forward_v I I I I #
coedge $-1 $414 $413 $406 $497 forward $279 $-1 #
coedge $-1 $406 $281 $283 $410 reversed $179 $-1 #
coedge $-1 $281 $405 $404 $497 reversed $179 $-1 #
coedge $-1 $289 $284 $281 $408 forward $290 $-1 #
edge $-1 $411 -20.288321294008213 $498 -6.4596791596335947 $407 $499 forward 7 unknown #
coedge $-1 $283 $282 $414 $500 reversed $112 $-1 #
edge $-1 $501 3.5000983996316274e-014 $411 17.093141829877538 $405 $502 forward 7 unknown #
vertex $-1 $285 $503 #
straight-curve $-1 -59.756367173770762 5.8022103677417682 17.379886736579071 0 1 0 I I #
coedge $-1 $404 $286 $289 $418 reversed $279 $-1 #
coedge $-1 $286 $404 $409 $500 forward $279 $-1 #
vertex $-1 $287 $504 #
straight-curve $-1 -73.585009308145388 6.2947914158456868 63.197917622697474 0 0 1 I I #
straight-curve $-1 -73.585009308145416 6.2947914158456868 7.3327899252754491 -0.80901698891910034 0 -0.5877852598018023 I I #
edge $-1 $498 -16.914050055121386 $291 -6.2947914158456868 $413 $505 forward 7 unknown #
point $-1 -73.585009308145388 6.2947914158456868 17.379886736579071 #
point $-1 -59.756367173770769 6.2947914158456868 17.379886736579071 #
edge $-1 $506 1 $506 0 $294 $-1 forward 7 unknown #
vertex $-1 $295 $507 #
ellipse-curve $-1 -65.392824394409047 9.3288653127816019 10.597509670044788 -0.5877852598018023 0 0.80901698891910034 1.2135254833786506 0 0.88167788970270344 1 I I #
point $-1 -65.457162757579397 9.3288653127816019 13.238016220629948 #
edge $-1 $508 1 $508 0 $298 $-1 forward 7 unknown #
vertex $-1 $299 $509 #
ellipse-curve $-1 -65.392824394409047 13.879976158185471 10.597509670044788 -0.5877852598018023 0 0.80901698891910034 1.2135254833786506 0 0.88167788970270344 1 I I #
point $-1 -65.457162757579397 13.879976158185471 13.238016220629948 #
plane-surface $-1 73.585009308145388 0 0 -1 0 0 0 0 1 forward_v I I I I #
coedge $-1 $307 $305 $309 $434 reversed $201 $-1 #
edge $-1 $320 -17.379886736579071 $436 17.379886736579071 $319 $510 forward 7 unknown #
vertex $-1 $434 $511 #
straight-curve $-1 -73.585009308145388 -37.17494818217039 0 0 0 -1 I I #
edge $-1 $432 -37.17494818217039 $436 37.17494818217039 $430 $512 forward 7 unknown #
straight-curve $-1 0 -37.17494818217039 -17.379886736579071 -1 0 0 I I #
vertex $-1 $312 $513 #
straight-curve $-1 0 37.17494818217039 -17.379886736579071 1 0 0 I I #
point $-1 73.585009308145388 37.17494818217039 -17.379886736579071 #
point $-1 73.585009308145388 -37.17494818217039 -17.379886736579071 #
straight-curve $-1 -73.585009308145388 0 17.379886736579071 0 -1 0 I I #
point $-1 -73.585009308145388 37.17494818217039 17.379886736579071 #
point $-1 -73.585009308145388 -37.17494818217039 17.379886736579071 #
straight-curve $-1 73.585009308145388 -37.17494818217039 0 0 0 -1 I I #
straight-curve $-1 73.585009308145388 37.17494818217039 0 0 0 -1 I I #
loop $-1 $-1 $453 $329 #
plane-surface $-1 -73.585009308145388 0 0 1 0 0 0 0 -1 forward_v I I I I #
coedge $-1 $333 $332 $459 $514 forward $134 $-1 #
edge $-1 $337 21.518442676372992 $462 37.17494818217039 $336 $515 forward 7 unknown #
coedge $-1 $456 $453 $333 $450 reversed $445 $-1 #
edge $-1 $516 -37.17494818217039 $451 -21.518442676372992 $449 $517 forward 7 unknown #
vertex $-1 $454 $518 #
straight-curve $-1 0 -21.518442676372992 -17.379886736579071 1 0 0 I I #
coedge $-1 $449 $339 $335 $454 forward $445 $-1 #
edge $-1 $341 4.215817278176659 $451 10.181318731660493 $453 $519 forward 7 unknown #
point $-1 73.585009308145388 -21.518442676372992 -17.379886736579071 #
coedge $-1 $339 $449 $343 $460 reversed $445 $-1 #
straight-curve $-1 -73.585009308145388 -14.673347714635845 -11.414385283095235 0 1 0 I I #
point $-1 -73.585009308145388 -21.518442676372992 -11.414385283095235 #
coedge $-1 $344 $343 $447 $514 reversed $330 $-1 #
edge $-1 $345 11.414385283095235 $516 17.379886736579071 $456 $520 forward 7 unknown #
point $-1 -73.585009308145388 -37.17494818217039 -11.414385283095235 #
vertex $-1 $347 $521 #
straight-curve $-1 73.585009308145388 -37.17494818217039 0 0 0 -1 I I #
plane-surface $-1 0 37.17494818217039 0 0 -1 0 0 0 -1 forward_v I I I I #
coedge $-1 $522 $353 $357 $470 forward $236 $-1 #
coedge $-1 $353 $522 $368 $477 forward $236 $-1 #
vertex $-1 $355 $523 #
straight-curve $-1 0 21.518442676372985 -17.379886736579071 -1 0 0 I I #
coedge $-1 $357 $356 $363 $475 forward $351 $-1 #
edge $-1 $358 21.518442676372985 $524 37.17494818217039 $357 $525 forward 7 unknown #
point $-1 -73.585009308145388 21.518442676372985 -17.379886736579071 #
point $-1 -73.585009308145388 21.518442676372985 -11.414385283095235 #
straight-curve $-1 -73.585009308145388 14.673347714635842 -11.414385283095235 0 1 0 I I #
coedge $-1 $363 $362 $522 $526 reversed $364 $-1 #
edge $-1 $365 11.414385283095235 $524 17.379886736579071 $363 $527 forward 7 unknown #
point $-1 -73.585009308145388 37.174948182170382 -11.414385283095235 #
edge $-1 $479 -37.17494818217039 $467 -21.518442676372985 $368 $528 forward 7 unknown #
straight-curve $-1 73.585009308145388 21.518442676372985 -7.1985680049185765 0 0 -1 I I #
vertex $-1 $477 $529 #
straight-curve $-1 73.585009308145388 37.17494818217039 0 0 0 -1 I I #
coedge $-1 $384 $383 $376 $482 forward $373 $-1 #
edge $-1 $483 91.295199849466371 $486 99.327962723549717 $481 $530 forward 7 unknown #
vertex $-1 $388 $531 #
straight-curve $-1 33.16069253927099 -1.5388022141200501 17.379886736579067 1 0 0 I I #
edge $-1 $486 -3.9654247376282967 $385 8.8186697846447899 $384 $532 forward 7 unknown #
vertex $-1 $485 $533 #
straight-curve $-1 -34.048327461453894 -1.5388022141200501 109.71683640249161 -0.7313536940579346 0 0.68199836817093118 I I #
point $-1 64.970925938403553 -1.5388022141200501 17.379886736579067 #
point $-1 73.585009308145388 11.245292308153036 9.3471238624957209 #
straight-curve $-1 73.585009308145388 0 17.379886736579071 0 1 0 I I #
vertex $-1 $391 $534 #
point $-1 68.447644493771463 1.0180166903345622 11.73995319193731 #
vertex $-1 $395 $535 #
point $-1 68.447644493771463 4.8532450470164932 11.73995319193731 #
vertex $-1 $399 $536 #
point $-1 68.447644493771463 8.688473403698417 11.73995319193731 #
edge $-1 $498 45.818030886118407 $501 55.865127697422004 $404 $537 forward 7 unknown #
vertex $-1 $418 $538 #
straight-curve $-1 -80.044688467778982 16.914050055121386 17.379886736579067 -1 0 0 I I #
edge $-1 $501 -11.111839687379618 $415 -0.49258104810391856 $414 $539 forward 7 unknown #
vertex $-1 $500 $540 #
straight-curve $-1 -73.585009308145416 16.914050055121386 7.3327899252754491 0.80901698891910034 0 0.5877852598018023 I I #
point $-1 -59.756367173770769 16.914050055121386 17.379886736579071 #
point $-1 -73.585009308145388 6.2947914158456868 7.3327899252754696 #
straight-curve $-1 -73.585009308145388 0 17.379886736579071 0 -1 0 I I #
vertex $-1 $421 $541 #
point $-1 -64.179298911030401 9.3288653127816019 11.479187559747492 #
vertex $-1 $425 $542 #
point $-1 -64.179298911030401 13.879976158185471 11.479187559747492 #
straight-curve $-1 -73.585009308145388 37.17494818217039 0 0 0 -1 I I #
point $-1 -73.585009308145388 -37.17494818217039 -17.379886736579071 #
straight-curve $-1 -73.585009308145388 0 -17.379886736579071 0 1 0 I I #
point $-1 -73.585009308145388 37.17494818217039 -17.379886736579071 #
edge $-1 $462 -73.585009308145388 $516 73.585009308145388 $459 $543 forward 7 unknown #
straight-curve $-1 73.585009308145388 0 -17.379886736579071 0 -1 0 I I #
vertex $-1 $450 $544 #
straight-curve $-1 -73.585009308145388 0 -17.379886736579071 0 1 0 I I #
point $-1 -73.585009308145388 -21.518442676372992 -17.379886736579071 #
straight-curve $-1 -73.585009308145388 -21.518442676372992 -7.1985680049185765 0 0 -1 I I #
straight-curve $-1 -73.585009308145388 -37.17494818217039 0 0 0 -1 I I #
point $-1 73.585009308145388 -37.17494818217039 -17.379886736579071 #
coedge $-1 $466 $465 $474 $526 forward $236 $-1 #
point $-1 73.585009308145388 21.518442676372985 -17.379886736579071 #
vertex $-1 $526 $545 #
straight-curve $-1 -73.585009308145388 0 -17.379886736579071 0 1 0 I I #
edge $-1 $524 -73.585009308145388 $479 73.585009308145388 $474 $546 forward 7 unknown #
straight-curve $-1 -73.585009308145388 37.17494818217039 0 0 0 -1 I I #
straight-curve $-1 73.585009308145388 0 -17.379886736579071 0 -1 0 I I #
point $-1 73.585009308145388 37.17494818217039 -17.379886736579071 #
straight-curve $-1 73.585009308145388 -1.5388022141200501 108.67508658604544 0 0 -1 I I #
point $-1 73.585009308145388 -1.5388022141200501 17.379886736579071 #
straight-curve $-1 73.585009308145388 2.4266225235082466 9.3471238624957351 0 1 0 I I #
point $-1 73.585009308145388 -1.5388022141200501 9.3471238624957209 #
point $-1 67.740968462657037 1.0180166903345622 11.715275528993809 #
point $-1 67.740968462657037 4.8532450470164932 11.715275528993809 #
point $-1 67.740968462657037 8.688473403698417 11.715275528993809 #
straight-curve $-1 -73.585009308145388 16.914050055121386 63.197917622697474 0 0 -1 I I #
point $-1 -73.585009308145388 16.914050055121386 17.379886736579071 #
straight-curve $-1 -73.585009308145388 5.8022103677417682 7.332789925275474 0 -1 0 I I #
point $-1 -73.585009308145388 16.914050055121386 7.3327899252754696 #
point $-1 -64.511146504706346 9.3288653127816019 9.3839841866661384 #
point $-1 -64.511146504706346 13.879976158185471 9.3839841866661384 #
straight-curve $-1 0 -37.17494818217039 -17.379886736579071 -1 0 0 I I #
point $-1 -73.585009308145388 -37.17494818217039 -17.379886736579071 #
point $-1 -73.585009308145388 37.17494818217039 -17.379886736579071 #
straight-curve $-1 0 37.17494818217039 -17.379886736579071 1 0 0 I I #
End-of-ACIS-data 