500 0 5 0           
7 Unknown 11 ACIS 5.0 NT 24 Fri Mar 26 16:46:05 1999 
-1 9.9999999999999995e-007 1e-010 
body $-1 $5 $-1 $6 #
body $-1 $7 $-1 $8 #
body $-1 $9 $-1 $10 #
body $-1 $11 $-1 $12 #
body $-1 $13 $-1 $14 #
lump $-1 $-1 $15 $0 #
transform $-1 1 0 0 0 1 0 0 0 1 51.803338724936673 25.880168297169128 10.779362190194551 1 rotate no_reflect no_shear #
lump $-1 $-1 $16 $1 #
transform $-1 1 0 0 0 1 0 0 0 1 51.803338724936673 25.880168297169128 10.779362190194551 1 rotate no_reflect no_shear #
lump $-1 $-1 $17 $2 #
transform $-1 1 0 0 0 1 0 0 0 1 51.803338724936673 25.880168297169128 10.779362190194551 1 rotate no_reflect no_shear #
lump $-1 $-1 $18 $3 #
transform $-1 1 0 0 0 1 0 0 0 1 51.803338724936673 25.880168297169128 10.779362190194551 1 rotate no_reflect no_shear #
lump $-1 $-1 $19 $4 #
transform $-1 1 0 0 0 1 0 0 0 1 51.803338724936673 25.880168297169128 10.779362190194551 1 rotate no_reflect no_shear #
shell $-1 $-1 $-1 $20 $-1 $5 #
shell $-1 $-1 $-1 $21 $-1 $7 #
shell $-1 $-1 $-1 $22 $-1 $9 #
shell $-1 $-1 $-1 $23 $-1 $11 #
shell $-1 $-1 $-1 $24 $-1 $13 #
face $-1 $25 $26 $15 $-1 $27 forward single #
face $-1 $28 $29 $16 $-1 $30 forward single #
face $-1 $31 $32 $17 $-1 $33 reversed single #
face $-1 $34 $35 $18 $-1 $36 forward single #
face $-1 $37 $38 $19 $-1 $39 forward single #
face $-1 $40 $41 $15 $-1 $42 reversed single #
loop $-1 $-1 $43 $20 #
plane-surface $-1 0 0 10.779362190194551 0 0 1 1 0 0 forward_v I I I I #
face $-1 $44 $45 $16 $-1 $46 reversed single #
loop $-1 $-1 $47 $21 #
plane-surface $-1 0 -20.995831281018521 3.2317209324332303 0 0 1 1 0 0 forward_v I I I I #
face $-1 $48 $49 $17 $-1 $50 reversed single #
loop $-1 $-1 $51 $22 #
plane-surface $-1 -30.664945806584722 54.788243784133279 117.85206063997006 -1 0 0 0 0.6560590369687036 0.75470957328743171 forward_v I I I I #
face $-1 $52 $53 $18 $-1 $54 forward single #
loop $-1 $55 $56 $23 #
cone-surface $-1 -45.763797891121833 22.341334197564166 7.5293928822177358 0 -0.6560590369687036 -0.75470957328743171 1 0 0 1 I I 0 1 1 forward I I I I #
face $-1 $57 $58 $19 $-1 $59 forward single #
loop $-1 $60 $61 $24 #
cone-surface $-1 -36.704486640399566 22.341334197564166 7.5293928822177358 0 -0.6560590369687036 -0.75470957328743171 1 0 0 1 I I 0 1 1 forward I I I I #
face $-1 $62 $63 $15 $-1 $64 reversed single #
loop $-1 $-1 $65 $25 #
plane-surface $-1 0 0 -10.779362190194551 0 0 1 1 0 0 forward_v I I I I #
coedge $-1 $66 $67 $68 $69 forward $26 $-1 #
face $-1 $70 $71 $16 $-1 $72 reversed single #
loop $-1 $-1 $73 $28 #
plane-surface $-1 0 -20.995831281018521 0.23172093243323033 0 0 1 1 0 0 forward_v I I I I #
coedge $-1 $74 $75 $76 $77 reversed $29 $-1 #
face $-1 $78 $79 $17 $-1 $80 reversed single #
loop $-1 $-1 $81 $31 #
plane-surface $-1 -41.234142265760696 -13.183853247157721 39.659109312047576 0 0.6560590369687036 0.75470957328743171 1 0 0 forward_v I I I I #
coedge $-1 $82 $83 $84 $85 reversed $32 $-1 #
face $-1 $-1 $86 $18 $-1 $87 forward single #
loop $-1 $88 $89 $34 #
cone-surface $-1 -45.763797891121833 21.395307357534477 6.4411135162994491 0 -0.6560590369687036 -0.75470957328743171 0.5 0 0 1 I I -0.70710678118654746 0.70710678118654746 0.5 forward I I I I #
loop $-1 $-1 $90 $23 #
coedge $-1 $56 $56 $91 $92 reversed $35 $-1 #
face $-1 $-1 $93 $19 $-1 $94 forward single #
loop $-1 $95 $96 $37 #
cone-surface $-1 -36.704486640399566 21.395307357534477 6.4411135162994491 0 -0.6560590369687036 -0.75470957328743171 0.5 0 0 1 I I -0.70710678118654746 0.70710678118654746 0.5 forward I I I I #
loop $-1 $-1 $97 $24 #
coedge $-1 $61 $61 $98 $99 reversed $38 $-1 #
face $-1 $100 $101 $15 $-1 $102 reversed single #
loop $-1 $-1 $103 $40 #
plane-surface $-1 0 -25.880168297169128 0 0 1 0 0 0 1 forward_v I I I I #
coedge $-1 $104 $105 $106 $107 forward $41 $-1 #
coedge $-1 $108 $43 $109 $110 forward $26 $-1 #
coedge $-1 $43 $108 $111 $112 forward $26 $-1 #
coedge $-1 $113 $114 $43 $69 reversed $115 $-1 #
edge $-1 $116 -25.880168297169128 $117 25.880168297169128 $68 $118 forward 7 unknown #
face $-1 $119 $120 $16 $-1 $121 reversed single #
loop $-1 $-1 $122 $44 #
plane-surface $-1 0 -16.111494264867915 1.7317209324332303 0 -1 0 0 0 -1 forward_v I I I I #
coedge $-1 $123 $124 $125 $126 reversed $45 $-1 #
coedge $-1 $127 $47 $128 $129 forward $29 $-1 #
coedge $-1 $47 $127 $130 $131 reversed $29 $-1 #
coedge $-1 $132 $133 $47 $77 forward $134 $-1 #
edge $-1 $135 5.6135786243586541 $136 15.382252656659867 $76 $137 forward 7 unknown #
face $-1 $138 $139 $17 $-1 $140 forward single #
loop $-1 $-1 $84 $48 #
plane-surface $-1 0 25.880168297169128 0 0 -1 0 0 0 -1 forward_v I I I I #
coedge $-1 $141 $142 $143 $144 reversed $49 $-1 #
coedge $-1 $83 $51 $145 $146 reversed $32 $-1 #
coedge $-1 $51 $82 $141 $147 reversed $32 $-1 #
coedge $-1 $143 $148 $51 $85 forward $79 $-1 #
edge $-1 $149 48.146668129790484 $150 53.224757587194951 $84 $151 forward 7 unknown #
loop $-1 $-1 $91 $52 #
plane-surface $-1 -41.234142265760696 -13.183853247157721 39.659109312047576 0 0.6560590369687036 0.75470957328743171 1 0 0 forward_v I I I I #
loop $-1 $-1 $152 $34 #
coedge $-1 $89 $89 $90 $153 reversed $53 $-1 #
coedge $-1 $90 $90 $89 $153 forward $55 $-1 #
coedge $-1 $91 $91 $56 $92 forward $86 $-1 #
edge $-1 $154 4.6444073776859686e-016 $154 6.2831853071796013 $91 $155 forward 7 unknown #
loop $-1 $-1 $98 $57 #
plane-surface $-1 -41.234142265760696 -13.183853247157721 39.659109312047576 0 0.6560590369687036 0.75470957328743171 1 0 0 forward_v I I I I #
loop $-1 $-1 $156 $37 #
coedge $-1 $96 $96 $97 $157 reversed $58 $-1 #
coedge $-1 $97 $97 $96 $157 forward $60 $-1 #
coedge $-1 $98 $98 $61 $99 forward $93 $-1 #
edge $-1 $158 4.6444073776859686e-016 $158 6.2831853071796013 $98 $159 forward 7 unknown #
face $-1 $160 $161 $15 $-1 $162 reversed single #
loop $-1 $-1 $163 $62 #
plane-surface $-1 -51.803338724936673 0 0 1 0 0 0 0 -1 forward_v I I I I #
coedge $-1 $164 $111 $165 $166 forward $63 $-1 #
coedge $-1 $167 $65 $164 $168 forward $41 $-1 #
coedge $-1 $65 $167 $169 $170 forward $41 $-1 #
coedge $-1 $114 $113 $65 $107 reversed $115 $-1 #
edge $-1 $171 -25.880168297169128 $172 25.880168297169128 $106 $173 forward 7 unknown #
coedge $-1 $67 $66 $174 $175 forward $26 $-1 #
coedge $-1 $176 $177 $66 $110 reversed $161 $-1 #
edge $-1 $117 -51.803338724936673 $178 51.803338724936673 $109 $179 forward 7 unknown #
coedge $-1 $103 $180 $67 $112 reversed $63 $-1 #
edge $-1 $181 -51.803338724936673 $116 51.803338724936673 $111 $182 forward 7 unknown #
coedge $-1 $106 $68 $180 $183 forward $115 $-1 #
coedge $-1 $68 $106 $176 $184 reversed $115 $-1 #
loop $-1 $-1 $113 $160 #
vertex $-1 $69 $185 #
vertex $-1 $69 $186 #
straight-curve $-1 51.803338724936673 0 10.779362190194551 0 1 0 I I #
face $-1 $187 $188 $16 $-1 $189 reversed single #
loop $-1 $-1 $190 $70 #
plane-surface $-1 -51.803338724936673 0 0 1 0 0 0 0 -1 forward_v I I I I #
coedge $-1 $191 $128 $133 $192 reversed $71 $-1 #
coedge $-1 $193 $73 $194 $195 reversed $45 $-1 #
coedge $-1 $73 $193 $191 $196 forward $45 $-1 #
coedge $-1 $133 $132 $73 $126 forward $134 $-1 #
edge $-1 $197 -15.382252656659867 $198 -5.6135786243586541 $125 $199 forward 7 unknown #
coedge $-1 $75 $74 $190 $200 reversed $29 $-1 #
coedge $-1 $122 $201 $74 $129 reversed $71 $-1 #
edge $-1 $135 -51.803338724936673 $202 51.803338724936673 $128 $203 forward 7 unknown #
coedge $-1 $204 $205 $75 $131 forward $188 $-1 #
edge $-1 $136 -51.803338724936673 $206 51.803338724936673 $130 $207 forward 7 unknown #
coedge $-1 $125 $76 $205 $208 forward $134 $-1 #
coedge $-1 $76 $125 $122 $192 forward $134 $-1 #
loop $-1 $-1 $76 $187 #
vertex $-1 $77 $209 #
vertex $-1 $208 $210 #
straight-curve $-1 51.803338724936673 -10.497915640509261 3.2317209324332303 0 -1 0 I I #
face $-1 $-1 $211 $17 $-1 $212 reversed single #
loop $-1 $-1 $145 $78 #
plane-surface $-1 0 0 10.779362190194551 0 0 1 1 0 0 forward_v I I I I #
coedge $-1 $213 $81 $83 $147 forward $49 $-1 #
coedge $-1 $81 $213 $214 $215 reversed $49 $-1 #
coedge $-1 $216 $84 $81 $144 forward $79 $-1 #
edge $-1 $150 10.047874673704374 $217 31.186267592056325 $143 $218 forward 7 unknown #
coedge $-1 $219 $220 $82 $146 forward $139 $-1 #
edge $-1 $221 -7.3556271510167512 $149 -1.5139535948975116 $145 $222 forward 7 unknown #
edge $-1 $150 -51.760336594338241 $221 -44.020043158449312 $83 $223 forward 7 unknown #
coedge $-1 $84 $216 $219 $224 reversed $79 $-1 #
vertex $-1 $224 $225 #
vertex $-1 $85 $226 #
straight-curve $-1 -30.664945806584722 25.880168297169128 58.926030319985031 0 0 -1 I I #
coedge $-1 $152 $152 $-1 $227 reversed $88 $-1 #
edge $-1 $228 0 $228 6.2831853071796004 $89 $229 forward 7 unknown #
vertex $-1 $92 $230 #
ellipse-curve $-1 -45.763797891121833 22.959331519109508 8.2403174614923156 0 0.6560590369687036 0.75470957328743171 1 0 0 1 I I #
coedge $-1 $156 $156 $-1 $231 reversed $95 $-1 #
edge $-1 $232 0 $232 6.2831853071796004 $96 $233 forward 7 unknown #
vertex $-1 $99 $234 #
ellipse-curve $-1 -36.704486640399566 22.959331519109508 8.2403174614923156 0 0.6560590369687036 0.75470957328743171 1 0 0 1 I I #
face $-1 $-1 $115 $15 $-1 $235 reversed single #
loop $-1 $-1 $176 $100 #
plane-surface $-1 0 25.880168297169128 0 0 -1 0 0 0 -1 forward_v I I I I #
coedge $-1 $236 $174 $177 $237 forward $101 $-1 #
coedge $-1 $180 $103 $104 $168 reversed $63 $-1 #
coedge $-1 $174 $236 $103 $166 reversed $101 $-1 #
edge $-1 $181 -10.779362190194551 $238 10.779362190194551 $165 $239 forward 7 unknown #
coedge $-1 $105 $104 $236 $240 forward $41 $-1 #
edge $-1 $172 -51.803338724936673 $238 51.803338724936673 $164 $241 forward 7 unknown #
coedge $-1 $177 $176 $105 $170 reversed $161 $-1 #
edge $-1 $242 -51.803338724936673 $171 51.803338724936673 $169 $243 forward 7 unknown #
vertex $-1 $107 $244 #
vertex $-1 $183 $245 #
straight-curve $-1 51.803338724936673 0 -10.779362190194551 0 -1 0 I I #
coedge $-1 $163 $165 $108 $175 reversed $101 $-1 #
edge $-1 $178 -25.880168297169128 $181 25.880168297169128 $174 $246 forward 7 unknown #
coedge $-1 $169 $109 $114 $184 forward $161 $-1 #
coedge $-1 $109 $169 $163 $237 reversed $161 $-1 #
vertex $-1 $110 $247 #
straight-curve $-1 0 25.880168297169128 10.779362190194551 -1 0 0 I I #
coedge $-1 $111 $164 $113 $183 reversed $63 $-1 #
vertex $-1 $175 $248 #
straight-curve $-1 0 -25.880168297169128 10.779362190194551 1 0 0 I I #
edge $-1 $116 -10.779362190194551 $172 10.779362190194551 $113 $249 forward 7 unknown #
edge $-1 $117 -10.779362190194551 $171 10.779362190194551 $114 $250 forward 7 unknown #
point $-1 51.803338724936673 -25.880168297169128 10.779362190194551 #
point $-1 51.803338724936673 25.880168297169128 10.779362190194551 #
face $-1 $-1 $134 $16 $-1 $251 reversed single #
loop $-1 $-1 $130 $119 #
plane-surface $-1 0 -25.880168297169128 0 0 1 0 0 0 1 forward_v I I I I #
coedge $-1 $252 $253 $127 $200 forward $120 $-1 #
coedge $-1 $201 $122 $124 $196 reversed $71 $-1 #
edge $-1 $198 -0.63413953378338483 $135 2.3658604662166152 $133 $254 forward 7 unknown #
coedge $-1 $124 $123 $255 $256 reversed $45 $-1 #
coedge $-1 $205 $204 $123 $195 forward $188 $-1 #
edge $-1 $257 -51.803338724936673 $197 51.803338724936673 $194 $258 forward 7 unknown #
edge $-1 $259 -51.803338724936673 $198 51.803338724936673 $191 $260 forward 7 unknown #
vertex $-1 $195 $261 #
vertex $-1 $126 $262 #
straight-curve $-1 51.803338724936673 -10.497915640509261 0.23172093243323033 0 1 0 I I #
edge $-1 $206 -15.382252656659867 $202 -5.6135786243586541 $190 $263 forward 7 unknown #
coedge $-1 $128 $191 $252 $264 reversed $71 $-1 #
vertex $-1 $200 $265 #
straight-curve $-1 0 -16.111494264867915 3.2317209324332303 -1 0 0 I I #
coedge $-1 $194 $130 $253 $266 forward $188 $-1 #
coedge $-1 $130 $194 $132 $208 reversed $188 $-1 #
vertex $-1 $266 $267 #
straight-curve $-1 0 -25.880168297169128 3.2317209324332303 -1 0 0 I I #
edge $-1 $136 -3.2317209324332303 $197 -0.23172093243323033 $132 $268 forward 7 unknown #
point $-1 51.803338724936673 -16.111494264867915 3.2317209324332303 #
point $-1 51.803338724936673 -25.880168297169128 3.2317209324332303 #
loop $-1 $-1 $214 $138 #
plane-surface $-1 -51.803338724936673 0 0 1 0 0 0 0 -1 forward_v I I I I #
coedge $-1 $142 $141 $220 $269 reversed $49 $-1 #
coedge $-1 $270 $271 $142 $215 forward $211 $-1 #
edge $-1 $217 -33.775987933965737 $272 -26.035694498076815 $214 $273 forward 7 unknown #
coedge $-1 $148 $143 $271 $274 reversed $79 $-1 #
vertex $-1 $144 $275 #
straight-curve $-1 -20.617071132880348 25.880168297169128 5.7012727327900823 -1 0 0 I I #
coedge $-1 $276 $145 $148 $224 forward $139 $-1 #
coedge $-1 $145 $276 $213 $269 forward $139 $-1 #
vertex $-1 $146 $277 #
straight-curve $-1 -30.664945806584722 27.394121892066639 10.779362190194547 0 1 0 I I #
straight-curve $-1 -30.664945806584722 -13.183853247157721 39.659109312047576 0 -0.75470957328743171 0.6560590369687036 I I #
edge $-1 $149 30.664945806584722 $278 51.803338724936673 $148 $279 forward 7 unknown #
point $-1 -30.664945806584722 25.880168297169128 10.779362190194551 #
point $-1 -30.664945806584722 25.880168297169128 5.7012727327900805 #
edge $-1 $280 1 $280 0 $152 $-1 forward 7 unknown #
vertex $-1 $153 $281 #
ellipse-curve $-1 -45.763797891121833 21.723336876018831 6.818468302943165 0 0.6560590369687036 0.75470957328743171 1 0 0 1 I I #
point $-1 -44.763797891121833 22.959331519109501 8.2403174614923067 #
edge $-1 $282 1 $282 0 $156 $-1 forward 7 unknown #
vertex $-1 $157 $283 #
ellipse-curve $-1 -36.704486640399566 21.723336876018831 6.818468302943165 0 0.6560590369687036 0.75470957328743171 1 0 0 1 I I #
point $-1 -35.704486640399566 22.959331519109501 8.2403174614923067 #
plane-surface $-1 51.803338724936673 0 0 -1 0 0 0 0 1 forward_v I I I I #
coedge $-1 $165 $163 $167 $240 reversed $101 $-1 #
edge $-1 $178 -10.779362190194551 $242 10.779362190194551 $177 $284 forward 7 unknown #
vertex $-1 $240 $285 #
straight-curve $-1 -51.803338724936673 -25.880168297169128 0 0 0 -1 I I #
edge $-1 $238 -25.880168297169128 $242 25.880168297169128 $236 $286 forward 7 unknown #
straight-curve $-1 0 -25.880168297169128 -10.779362190194551 -1 0 0 I I #
vertex $-1 $170 $287 #
straight-curve $-1 0 25.880168297169128 -10.779362190194551 1 0 0 I I #
point $-1 51.803338724936673 25.880168297169128 -10.779362190194551 #
point $-1 51.803338724936673 -25.880168297169128 -10.779362190194551 #
straight-curve $-1 -51.803338724936673 0 10.779362190194551 0 -1 0 I I #
point $-1 -51.803338724936673 25.880168297169128 10.779362190194551 #
point $-1 -51.803338724936673 -25.880168297169128 10.779362190194551 #
straight-curve $-1 51.803338724936673 -25.880168297169128 0 0 0 -1 I I #
straight-curve $-1 51.803338724936673 25.880168297169128 0 0 0 -1 I I #
plane-surface $-1 51.803338724936673 0 0 -1 0 0 0 0 1 forward_v I I I I #
coedge $-1 $255 $190 $201 $264 forward $120 $-1 #
coedge $-1 $190 $255 $204 $266 reversed $120 $-1 #
straight-curve $-1 51.803338724936673 -16.111494264867915 0.86586046621661517 0 0 1 I I #
coedge $-1 $253 $252 $193 $256 forward $120 $-1 #
edge $-1 $259 5.6135786243586541 $257 15.382252656659867 $255 $288 forward 7 unknown #
vertex $-1 $195 $289 #
straight-curve $-1 0 -25.880168297169128 0.23172093243323033 1 0 0 I I #
vertex $-1 $256 $290 #
straight-curve $-1 0 -16.111494264867915 0.23172093243323033 1 0 0 I I #
point $-1 51.803338724936673 -25.880168297169128 0.23172093243323033 #
point $-1 51.803338724936673 -16.111494264867915 0.23172093243323033 #
straight-curve $-1 -51.803338724936673 -10.497915640509261 3.2317209324332303 0 1 0 I I #
edge $-1 $202 -2.3658604662166152 $259 0.63413953378338483 $252 $291 forward 7 unknown #
point $-1 -51.803338724936673 -16.111494264867915 3.2317209324332303 #
edge $-1 $206 -3.2317209324332303 $257 -0.23172093243323033 $253 $292 forward 7 unknown #
point $-1 -51.803338724936673 -25.880168297169128 3.2317209324332303 #
straight-curve $-1 51.803338724936673 -25.880168297169128 0 0 0 -1 I I #
edge $-1 $272 -31.186267592056318 $221 -10.047874673704374 $220 $293 forward 7 unknown #
coedge $-1 $271 $214 $276 $294 reversed $211 $-1 #
coedge $-1 $214 $270 $216 $274 forward $211 $-1 #
vertex $-1 $215 $295 #
straight-curve $-1 -51.803338724936673 0.38910685616440421 27.860314849414202 0 -0.75470957328743171 0.6560590369687036 I I #
edge $-1 $278 -10.779362190194551 $217 -5.7012727327900876 $216 $296 forward 7 unknown #
point $-1 -51.803338724936673 25.880168297169128 5.7012727327900876 #
coedge $-1 $220 $219 $270 $294 forward $139 $-1 #
point $-1 -30.664945806584722 20.038494741049888 10.779362190194551 #
vertex $-1 $224 $297 #
straight-curve $-1 0 25.880168297169128 10.779362190194551 -1 0 0 I I #
vertex $-1 $227 $298 #
point $-1 -44.763797891121833 21.723336876018831 6.818468302943165 #
vertex $-1 $231 $299 #
point $-1 -35.704486640399566 21.723336876018831 6.818468302943165 #
straight-curve $-1 -51.803338724936673 25.880168297169128 0 0 0 -1 I I #
point $-1 -51.803338724936673 -25.880168297169128 -10.779362190194551 #
straight-curve $-1 -51.803338724936673 0 -10.779362190194551 0 1 0 I I #
point $-1 -51.803338724936673 25.880168297169128 -10.779362190194551 #
straight-curve $-1 -51.803338724936673 -10.497915640509261 0.23172093243323033 0 -1 0 I I #
point $-1 -51.803338724936673 -25.880168297169128 0.23172093243323033 #
point $-1 -51.803338724936673 -16.111494264867915 0.23172093243323033 #
straight-curve $-1 -51.803338724936673 -16.111494264867915 0.86586046621661517 0 0 -1 I I #
straight-curve $-1 -51.803338724936673 -25.880168297169128 0 0 0 -1 I I #
straight-curve $-1 -20.617071132880348 20.038494741049881 10.779362190194551 1 0 0 I I #
edge $-1 $278 -25.880168297169128 $272 -20.038494741049888 $270 $300 forward 7 unknown #
point $-1 -51.803338724936665 20.038494741049888 10.779362190194551 #
straight-curve $-1 -51.803338724936673 25.880168297169128 0 0 0 -1 I I #
point $-1 -51.803338724936673 25.880168297169128 10.779362190194551 #
point $-1 -45.763797891121833 21.067277839050124 6.0637587296557331 #
point $-1 -36.704486640399566 21.067277839050124 6.0637587296557331 #
straight-curve $-1 -51.803338724936673 0 10.779362190194551 0 -1 0 I I #
End-of-ACIS-data 