500 0 7 0           
7 Unknown 11 ACIS 5.0 NT 24 Thu Mar 25 22:53:51 1999 
-1 9.9999999999999995e-007 1e-010 
body $-1 $7 $-1 $8 #
body $-1 $9 $-1 $10 #
body $-1 $11 $-1 $12 #
body $-1 $13 $-1 $14 #
body $-1 $15 $-1 $16 #
body $-1 $17 $-1 $18 #
body $-1 $19 $-1 $20 #
lump $-1 $-1 $21 $0 #
transform $-1 1 0 0 0 1 0 0 0 1 67.996459852900784 45.831361217663989 10.534205568856306 1 rotate no_reflect no_shear #
lump $-1 $-1 $22 $1 #
transform $-1 1 0 0 0 1 0 0 0 1 67.996459852900784 45.831361217663989 10.534205568856306 1 rotate no_reflect no_shear #
lump $-1 $-1 $23 $2 #
transform $-1 1 0 0 0 1 0 0 0 1 67.996459852900784 45.831361217663989 10.534205568856306 1 rotate no_reflect no_shear #
lump $-1 $-1 $24 $3 #
transform $-1 1 0 0 0 1 0 0 0 1 67.996459852900784 45.831361217663989 10.534205568856306 1 rotate no_reflect no_shear #
lump $-1 $-1 $25 $4 #
transform $-1 1 0 0 0 1 0 0 0 1 67.996459852900784 45.831361217663989 10.534205568856306 1 rotate no_reflect no_shear #
lump $-1 $-1 $26 $5 #
transform $-1 1 0 0 0 1 0 0 0 1 67.996459852900784 45.831361217663989 10.534205568856306 1 rotate no_reflect no_shear #
lump $-1 $-1 $27 $6 #
transform $-1 1 0 0 0 1 0 0 0 1 67.996459852900784 45.831361217663989 10.534205568856306 1 rotate no_reflect no_shear #
shell $-1 $-1 $-1 $28 $-1 $7 #
shell $-1 $-1 $-1 $29 $-1 $9 #
shell $-1 $-1 $-1 $30 $-1 $11 #
shell $-1 $-1 $-1 $31 $-1 $13 #
shell $-1 $-1 $-1 $32 $-1 $15 #
shell $-1 $-1 $-1 $33 $-1 $17 #
shell $-1 $-1 $-1 $34 $-1 $19 #
face $-1 $35 $36 $21 $-1 $37 reversed single #
face $-1 $38 $39 $22 $-1 $40 forward single #
face $-1 $41 $42 $23 $-1 $43 forward single #
face $-1 $44 $45 $24 $-1 $46 reversed single #
face $-1 $47 $48 $25 $-1 $49 forward single #
face $-1 $50 $51 $26 $-1 $52 reversed single #
face $-1 $53 $54 $27 $-1 $55 forward single #
face $-1 $56 $57 $21 $-1 $58 forward single #
loop $-1 $-1 $59 $28 #
plane-surface $-1 67.996459852900784 0 0 -1 0 0 0 0 1 forward_v I I I I #
face $-1 $60 $61 $22 $-1 $62 reversed single #
loop $-1 $-1 $63 $29 #
plane-surface $-1 -67.996459852900784 0 0 1 0 0 0 0 -1 forward_v I I I I #
face $-1 $64 $65 $23 $-1 $66 reversed single #
loop $-1 $-1 $67 $30 #
plane-surface $-1 67.996459852900784 0 0 -1 0 0 0 0 1 forward_v I I I I #
face $-1 $68 $69 $24 $-1 $70 reversed single #
loop $-1 $-1 $71 $31 #
plane-surface $-1 -20.349543632009826 71.540439879336901 167.95353140075383 1 0 0 0 -0.68199836817093118 -0.7313536940579346 forward_v I I I I #
face $-1 $72 $73 $25 $-1 $74 forward single #
loop $-1 $75 $76 $32 #
cone-surface $-1 -2.7476818704340928 42.087981123162386 6.8613710557732865 0 -0.68199836817093118 -0.7313536940579346 1.5 0 0 1 I I 0 1 1.5 forward I I I I #
face $-1 $77 $78 $26 $-1 $79 reversed single #
loop $-1 $-1 $80 $33 #
plane-surface $-1 14.854179891141641 -138.57831053982113 105.43970427775514 -1 0 0 0 -0.68199836817093118 0.7313536940579346 forward_v I I I I #
face $-1 $81 $82 $27 $-1 $83 forward single #
loop $-1 $84 $85 $34 #
cone-surface $-1 -2.7476818704340928 -42.087981123162379 6.8613710557732972 0 0.68199836817093118 -0.7313536940579346 1.5 0 0 1 I I 0 1 1.5 forward I I I I #
face $-1 $86 $87 $21 $-1 $88 reversed single #
loop $-1 $-1 $89 $35 #
plane-surface $-1 0 0 10.534205568856306 0 0 1 1 0 0 forward_v I I I I #
coedge $-1 $90 $91 $92 $93 reversed $36 $-1 #
face $-1 $94 $95 $22 $-1 $96 forward single #
loop $-1 $-1 $97 $38 #
plane-surface $-1 0 45.831361217663989 0 0 -1 0 0 0 -1 forward_v I I I I #
coedge $-1 $98 $99 $100 $101 forward $39 $-1 #
face $-1 $102 $103 $23 $-1 $104 forward single #
loop $-1 $-1 $105 $41 #
plane-surface $-1 0 -45.831361217663989 0 0 1 0 0 0 1 forward_v I I I I #
coedge $-1 $106 $107 $108 $109 forward $42 $-1 #
face $-1 $110 $111 $24 $-1 $112 reversed single #
loop $-1 $-1 $113 $44 #
plane-surface $-1 -2.7476818704340928 -21.206509442820234 68.494607208191766 0 0.68199836817093118 0.7313536940579346 1 0 0 forward_v I I I I #
coedge $-1 $114 $115 $116 $117 reversed $45 $-1 #
face $-1 $-1 $118 $25 $-1 $119 forward single #
loop $-1 $120 $121 $47 #
cone-surface $-1 -2.7476818704340928 40.274577704318411 4.9167340139784432 0 -0.68199836817093118 -0.7313536940579346 0.75 0 0 1 I I -0.70710678118654757 0.70710678118654757 0.75 forward I I I I #
loop $-1 $-1 $122 $32 #
coedge $-1 $76 $76 $123 $124 reversed $48 $-1 #
face $-1 $125 $126 $26 $-1 $127 reversed single #
loop $-1 $-1 $128 $50 #
plane-surface $-1 -2.7476818704340928 -45.831361217663996 5.980780085193075 0 -0.68199836817093118 0.7313536940579346 1 0 0 forward_v I I I I #
coedge $-1 $129 $130 $131 $132 reversed $51 $-1 #
face $-1 $-1 $133 $27 $-1 $134 forward single #
loop $-1 $135 $136 $53 #
cone-surface $-1 -2.7476818704340928 -40.274577704318403 4.9167340139784539 0 0.68199836817093118 -0.7313536940579346 0.75 0 0 1 I I -0.70710678118654757 0.70710678118654757 0.75 forward I I I I #
loop $-1 $-1 $137 $34 #
coedge $-1 $85 $85 $138 $139 reversed $54 $-1 #
face $-1 $140 $141 $21 $-1 $142 reversed single #
loop $-1 $-1 $143 $56 #
plane-surface $-1 0 0 -10.534205568856306 0 0 1 1 0 0 forward_v I I I I #
coedge $-1 $144 $145 $90 $146 forward $57 $-1 #
coedge $-1 $147 $59 $89 $146 reversed $36 $-1 #
coedge $-1 $59 $147 $143 $148 reversed $36 $-1 #
coedge $-1 $149 $150 $59 $93 forward $151 $-1 #
edge $-1 $152 -10.534205568856306 $153 10.534205568856306 $59 $154 forward 7 unknown #
face $-1 $155 $156 $22 $-1 $157 reversed single #
loop $-1 $-1 $100 $60 #
plane-surface $-1 -71.75951199694876 0 0.97363184772587097 0 0 1 1 0 0 forward_v I I I I #
coedge $-1 $158 $159 $99 $160 forward $61 $-1 #
coedge $-1 $161 $63 $162 $163 reversed $39 $-1 #
coedge $-1 $63 $161 $97 $160 reversed $39 $-1 #
coedge $-1 $164 $165 $63 $101 reversed $95 $-1 #
edge $-1 $166 -45.831361217663989 $167 45.831361217663989 $100 $168 forward 7 unknown #
face $-1 $169 $170 $23 $-1 $171 reversed single #
loop $-1 $-1 $172 $64 #
plane-surface $-1 71.75951199694876 0 0.97363184772587097 0 0 1 1 0 0 forward_v I I I I #
coedge $-1 $173 $174 $107 $175 forward $65 $-1 #
coedge $-1 $176 $67 $177 $178 reversed $42 $-1 #
coedge $-1 $67 $176 $105 $175 reversed $42 $-1 #
coedge $-1 $179 $180 $67 $109 reversed $103 $-1 #
edge $-1 $181 -45.831361217663989 $182 45.831361217663989 $108 $183 forward 7 unknown #
face $-1 $184 $185 $24 $-1 $186 reversed single #
loop $-1 $-1 $187 $68 #
plane-surface $-1 14.854179891141641 71.540439879336901 167.95353140075383 -1 0 0 0 0.68199836817093118 0.7313536940579346 forward_v I I I I #
coedge $-1 $188 $189 $190 $191 reversed $69 $-1 #
coedge $-1 $115 $71 $192 $193 reversed $45 $-1 #
coedge $-1 $71 $114 $188 $194 reversed $45 $-1 #
coedge $-1 $190 $195 $71 $117 forward $196 $-1 #
edge $-1 $197 -10.061141277995539 $198 -5.178190374423906 $116 $199 forward 7 unknown #
loop $-1 $-1 $123 $72 #
plane-surface $-1 -2.7476818704340928 -21.206509442820234 68.494607208191766 0 0.68199836817093118 0.7313536940579346 1 0 0 forward_v I I I I #
loop $-1 $-1 $200 $47 #
coedge $-1 $121 $121 $122 $201 reversed $73 $-1 #
coedge $-1 $122 $122 $121 $201 forward $75 $-1 #
coedge $-1 $123 $123 $76 $124 forward $118 $-1 #
edge $-1 $202 1.1477090439458896e-015 $202 6.2831853071796013 $123 $203 forward 7 unknown #
face $-1 $204 $205 $26 $-1 $206 forward single #
loop $-1 $-1 $207 $77 #
plane-surface $-1 -20.349543632009826 -138.57831053982113 105.43970427775514 1 0 0 0 0.68199836817093118 -0.7313536940579346 forward_v I I I I #
coedge $-1 $208 $209 $210 $211 reversed $78 $-1 #
coedge $-1 $130 $80 $212 $213 reversed $51 $-1 #
coedge $-1 $80 $129 $208 $214 reversed $51 $-1 #
coedge $-1 $210 $215 $80 $132 forward $205 $-1 #
edge $-1 $216 23.457794052246577 $217 28.340744955818224 $131 $218 forward 7 unknown #
loop $-1 $-1 $138 $81 #
plane-surface $-1 -2.7476818704340928 -45.831361217663996 5.980780085193075 0 -0.68199836817093118 0.7313536940579346 1 0 0 forward_v I I I I #
loop $-1 $-1 $219 $53 #
coedge $-1 $136 $136 $137 $220 reversed $82 $-1 #
coedge $-1 $137 $137 $136 $220 forward $84 $-1 #
coedge $-1 $138 $138 $85 $139 forward $133 $-1 #
edge $-1 $221 -5.7385452197294479e-016 $221 6.2831853071795996 $138 $222 forward 7 unknown #
face $-1 $223 $224 $21 $-1 $225 reversed single #
loop $-1 $-1 $226 $86 #
plane-surface $-1 0 -45.831361217663989 0 0 1 0 0 0 1 forward_v I I I I #
coedge $-1 $227 $228 $91 $148 forward $87 $-1 #
coedge $-1 $229 $89 $150 $230 forward $57 $-1 #
coedge $-1 $89 $229 $231 $232 forward $57 $-1 #
edge $-1 $233 -45.831361217663989 $152 45.831361217663989 $90 $234 forward 7 unknown #
coedge $-1 $91 $90 $235 $236 forward $36 $-1 #
edge $-1 $153 -45.831361217663989 $237 45.831361217663989 $91 $238 forward 7 unknown #
coedge $-1 $239 $92 $228 $240 reversed $151 $-1 #
coedge $-1 $92 $239 $144 $230 reversed $151 $-1 #
loop $-1 $-1 $92 $223 #
vertex $-1 $146 $241 #
vertex $-1 $148 $242 #
straight-curve $-1 67.996459852900784 45.831361217663989 0 0 0 -1 I I #
face $-1 $243 $244 $22 $-1 $245 reversed single #
loop $-1 $-1 $246 $94 #
plane-surface $-1 -71.75951199694876 0 -4.0172160813503037 0 0 1 1 0 0 forward_v I I I I #
coedge $-1 $247 $97 $248 $249 reversed $61 $-1 #
coedge $-1 $97 $247 $164 $250 reversed $61 $-1 #
edge $-1 $166 -0.97363184772587097 $251 4.0172160813503037 $97 $252 forward 7 unknown #
coedge $-1 $99 $98 $246 $253 forward $39 $-1 #
coedge $-1 $254 $255 $98 $163 forward $256 $-1 #
edge $-1 $257 -4.0172160813503037 $167 0.97363184772587097 $162 $258 forward 7 unknown #
coedge $-1 $259 $100 $159 $250 forward $95 $-1 #
coedge $-1 $100 $259 $254 $260 forward $95 $-1 #
vertex $-1 $160 $261 #
vertex $-1 $260 $262 #
straight-curve $-1 -67.996459852900784 0 0.97363184772587097 0 -1 0 I I #
face $-1 $263 $264 $23 $-1 $265 reversed single #
loop $-1 $-1 $266 $102 #
plane-surface $-1 71.75951199694876 0 -4.0172160813503037 0 0 1 1 0 0 forward_v I I I I #
coedge $-1 $180 $179 $267 $268 forward $103 $-1 #
coedge $-1 $269 $105 $270 $271 reversed $65 $-1 #
coedge $-1 $105 $269 $179 $272 reversed $65 $-1 #
edge $-1 $181 -0.97363184772587097 $273 4.0172160813503037 $105 $274 forward 7 unknown #
coedge $-1 $107 $106 $275 $276 forward $42 $-1 #
coedge $-1 $277 $278 $106 $178 forward $279 $-1 #
edge $-1 $280 -4.0172160813503037 $182 0.97363184772587097 $177 $281 forward 7 unknown #
coedge $-1 $172 $108 $174 $272 forward $103 $-1 #
coedge $-1 $108 $172 $277 $282 forward $103 $-1 #
vertex $-1 $175 $283 #
vertex $-1 $282 $284 #
straight-curve $-1 67.996459852900784 0 0.97363184772587097 0 1 0 I I #
face $-1 $-1 $196 $24 $-1 $285 forward single #
loop $-1 $-1 $286 $110 #
plane-surface $-1 0 45.831361217663989 0 0 -1 0 0 0 -1 forward_v I I I I #
coedge $-1 $287 $288 $289 $290 reversed $111 $-1 #
coedge $-1 $291 $113 $115 $194 forward $69 $-1 #
coedge $-1 $113 $291 $287 $292 forward $69 $-1 #
coedge $-1 $289 $116 $113 $191 forward $196 $-1 #
edge $-1 $198 -18.97570269679278 $293 16.228020826358687 $190 $294 forward 7 unknown #
coedge $-1 $295 $296 $114 $193 forward $185 $-1 #
edge $-1 $297 -77.995985615183827 $197 -73.442560131520608 $192 $298 forward 7 unknown #
edge $-1 $198 84.986129504651075 $297 91.662722435327964 $115 $299 forward 7 unknown #
coedge $-1 $116 $289 $295 $300 forward $196 $-1 #
loop $-1 $-1 $289 $184 #
vertex $-1 $193 $301 #
vertex $-1 $117 $302 #
straight-curve $-1 -20.349543632009826 35.770219939668451 10.534205568856308 0 -1 0 I I #
coedge $-1 $200 $200 $-1 $303 reversed $120 $-1 #
edge $-1 $304 0 $304 6.2831853071796004 $121 $305 forward 7 unknown #
vertex $-1 $124 $306 #
ellipse-curve $-1 -2.7476818704340928 43.389885765878176 8.257492827024695 0 0.68199836817093118 0.7313536940579346 1.5 0 0 1 I I #
face $-1 $-1 $307 $26 $-1 $308 reversed single #
loop $-1 $-1 $131 $125 #
plane-surface $-1 0 0 10.534205568856306 0 0 1 1 0 0 forward_v I I I I #
coedge $-1 $309 $310 $311 $312 reversed $126 $-1 #
coedge $-1 $313 $128 $130 $214 forward $78 $-1 #
coedge $-1 $128 $313 $309 $314 forward $78 $-1 #
coedge $-1 $311 $131 $128 $211 forward $205 $-1 #
edge $-1 $217 -16.228020826358687 $315 18.97570269679278 $210 $316 forward 7 unknown #
coedge $-1 $317 $318 $129 $213 forward $307 $-1 #
edge $-1 $319 -46.739072053684488 $216 -42.185646570021262 $212 $320 forward 7 unknown #
edge $-1 $217 -6.6765929306769154 $319 -9.4367341760026555e-015 $130 $321 forward 7 unknown #
coedge $-1 $131 $311 $317 $322 forward $205 $-1 #
vertex $-1 $213 $323 #
vertex $-1 $132 $324 #
straight-curve $-1 14.854179891141641 -69.289155269910566 10.534205568856308 0 1 0 I I #
coedge $-1 $219 $219 $-1 $325 reversed $135 $-1 #
edge $-1 $326 0 $326 6.2831853071796004 $136 $327 forward 7 unknown #
vertex $-1 $139 $328 #
ellipse-curve $-1 -2.7476818704340928 -43.389885765878162 8.2574928270246968 0 -0.68199836817093118 0.7313536940579346 1.5 0 0 1 I I #
face $-1 $-1 $151 $21 $-1 $329 reversed single #
loop $-1 $-1 $330 $140 #
plane-surface $-1 -67.996459852900784 0 0 1 0 0 0 0 -1 forward_v I I I I #
coedge $-1 $331 $231 $330 $332 forward $141 $-1 #
coedge $-1 $333 $143 $331 $334 forward $87 $-1 #
coedge $-1 $143 $333 $149 $240 forward $87 $-1 #
coedge $-1 $145 $144 $335 $336 forward $57 $-1 #
edge $-1 $152 -67.996459852900784 $337 67.996459852900784 $150 $338 forward 7 unknown #
coedge $-1 $226 $235 $145 $232 reversed $141 $-1 #
edge $-1 $339 -67.996459852900784 $233 67.996459852900784 $231 $340 forward 7 unknown #
vertex $-1 $146 $341 #
straight-curve $-1 67.996459852900784 0 10.534205568856306 0 1 0 I I #
coedge $-1 $231 $331 $147 $236 reversed $141 $-1 #
edge $-1 $233 -10.534205568856306 $237 10.534205568856306 $147 $342 forward 7 unknown #
vertex $-1 $236 $343 #
straight-curve $-1 67.996459852900784 0 -10.534205568856306 0 -1 0 I I #
coedge $-1 $150 $149 $344 $345 reversed $151 $-1 #
edge $-1 $346 -67.996459852900784 $153 67.996459852900784 $149 $347 forward 7 unknown #
point $-1 67.996459852900784 45.831361217663989 10.534205568856306 #
point $-1 67.996459852900784 45.831361217663989 -10.534205568856306 #
face $-1 $-1 $256 $22 $-1 $348 reversed single #
loop $-1 $-1 $349 $155 #
plane-surface $-1 -75.522564140996735 0 -1.5217921168122164 1 0 0 0 0 -1 forward_v I I I I #
coedge $-1 $350 $248 $161 $253 reversed $156 $-1 #
coedge $-1 $159 $158 $349 $351 reversed $61 $-1 #
coedge $-1 $246 $352 $158 $249 forward $156 $-1 #
edge $-1 $353 -3.7630521440479754 $251 3.7630521440479754 $158 $354 forward 7 unknown #
edge $-1 $166 -3.7630521440479754 $355 3.7630521440479754 $159 $356 forward 7 unknown #
vertex $-1 $160 $357 #
straight-curve $-1 -67.996459852900784 45.831361217663989 0 0 0 -1 I I #
edge $-1 $257 -45.831361217663989 $251 45.831361217663989 $246 $358 forward 7 unknown #
coedge $-1 $359 $162 $165 $260 reversed $256 $-1 #
coedge $-1 $162 $359 $350 $360 reversed $256 $-1 #
loop $-1 $-1 $162 $243 #
vertex $-1 $163 $361 #
straight-curve $-1 -67.996459852900784 -45.831361217663989 0 0 0 1 I I #
coedge $-1 $165 $164 $362 $363 forward $95 $-1 #
edge $-1 $364 -3.7630521440479754 $167 3.7630521440479754 $254 $365 forward 7 unknown #
point $-1 -67.996459852900784 45.831361217663989 0.97363184772587097 #
point $-1 -67.996459852900784 -45.831361217663989 0.97363184772587097 #
face $-1 $-1 $279 $23 $-1 $366 reversed single #
loop $-1 $-1 $367 $169 #
plane-surface $-1 75.522564140996735 0 -1.5217921168122164 -1 0 0 0 0 1 forward_v I I I I #
coedge $-1 $270 $368 $369 $370 forward $170 $-1 #
coedge $-1 $367 $371 $172 $268 reversed $264 $-1 #
edge $-1 $372 -45.831361217663989 $373 45.831361217663989 $267 $374 forward 7 unknown #
coedge $-1 $174 $173 $367 $375 reversed $65 $-1 #
coedge $-1 $275 $266 $173 $271 forward $170 $-1 #
edge $-1 $376 -3.7630521440479754 $273 3.7630521440479754 $173 $377 forward 7 unknown #
edge $-1 $181 -3.7630521440479754 $372 3.7630521440479754 $174 $378 forward 7 unknown #
vertex $-1 $175 $379 #
straight-curve $-1 67.996459852900784 -45.831361217663989 0 0 0 -1 I I #
coedge $-1 $368 $270 $176 $276 reversed $170 $-1 #
edge $-1 $280 -45.831361217663989 $273 45.831361217663989 $275 $380 forward 7 unknown #
coedge $-1 $381 $177 $180 $282 reversed $279 $-1 #
coedge $-1 $177 $381 $368 $382 reversed $279 $-1 #
loop $-1 $-1 $177 $263 #
vertex $-1 $178 $383 #
straight-curve $-1 67.996459852900784 45.831361217663989 0 0 0 1 I I #
edge $-1 $373 -3.7630521440479754 $182 3.7630521440479754 $277 $384 forward 7 unknown #
point $-1 67.996459852900784 -45.831361217663989 0.97363184772587097 #
point $-1 67.996459852900784 45.831361217663989 0.97363184772587097 #
plane-surface $-1 0 0 10.534205568856306 0 0 1 1 0 0 forward_v I I I I #
coedge $-1 $296 $295 $288 $385 forward $185 $-1 #
coedge $-1 $288 $187 $189 $292 reversed $111 $-1 #
coedge $-1 $187 $287 $286 $385 reversed $111 $-1 #
coedge $-1 $195 $190 $187 $290 forward $196 $-1 #
edge $-1 $293 5.178190374423906 $386 10.061141277995539 $289 $387 forward 7 unknown #
coedge $-1 $189 $188 $296 $388 reversed $69 $-1 #
edge $-1 $389 -91.662722435327964 $293 -84.986129504651075 $287 $390 forward 7 unknown #
vertex $-1 $191 $391 #
straight-curve $-1 -1.3738409352170464 40.948410314092357 10.534205568856315 1 0 0 I I #
coedge $-1 $286 $192 $195 $300 reversed $185 $-1 #
coedge $-1 $192 $286 $291 $388 forward $185 $-1 #
vertex $-1 $193 $392 #
straight-curve $-1 -20.349543632009826 45.831361217663989 83.976765700376916 0 0 1 I I #
straight-curve $-1 -20.349543632009826 -21.206509442820234 68.494607208191766 0 0.7313536940579346 -0.68199836817093118 I I #
edge $-1 $386 -14.854179891141641 $197 20.349543632009826 $295 $393 forward 7 unknown #
point $-1 -20.349543632009826 45.831361217663989 10.534205568856306 #
point $-1 -20.349543632009826 40.948410314092357 10.534205568856308 #
edge $-1 $394 1 $394 0 $200 $-1 forward 7 unknown #
vertex $-1 $201 $395 #
ellipse-curve $-1 -2.7476818704340928 40.78607648044661 5.4652492845218941 0 0.68199836817093118 0.7313536940579346 1.5 0 0 1 I I #
point $-1 -1.2476818704340928 43.389885765878162 8.2574928270246772 #
loop $-1 $-1 $212 $204 #
plane-surface $-1 0 -45.831361217663989 0 0 1 0 0 0 1 forward_v I I I I #
coedge $-1 $310 $207 $209 $314 reversed $126 $-1 #
coedge $-1 $207 $309 $396 $397 reversed $126 $-1 #
coedge $-1 $215 $210 $207 $312 forward $205 $-1 #
edge $-1 $315 -28.340744955818224 $398 -23.457794052246577 $311 $399 forward 7 unknown #
coedge $-1 $209 $208 $318 $400 reversed $78 $-1 #
edge $-1 $401 9.4367341760026555e-015 $315 6.6765929306769154 $309 $402 forward 7 unknown #
vertex $-1 $211 $403 #
straight-curve $-1 -1.3738409352170464 -40.948410314092342 10.534205568856306 -1 0 0 I I #
coedge $-1 $396 $212 $215 $322 reversed $307 $-1 #
coedge $-1 $212 $396 $313 $400 forward $307 $-1 #
vertex $-1 $213 $404 #
straight-curve $-1 14.854179891141641 -45.831361217663989 52.71985213887757 0 0 1 I I #
straight-curve $-1 14.854179891141641 -45.831361217663996 5.980780085193075 0 -0.7313536940579346 -0.68199836817093118 I I #
edge $-1 $398 -20.349543632009826 $216 14.854179891141641 $317 $405 forward 7 unknown #
point $-1 14.854179891141641 -45.831361217663989 10.534205568856306 #
point $-1 14.854179891141641 -40.948410314092342 10.534205568856306 #
edge $-1 $406 1 $406 0 $219 $-1 forward 7 unknown #
vertex $-1 $220 $407 #
ellipse-curve $-1 -2.7476818704340928 -40.786076480446603 5.4652492845219047 0 -0.68199836817093118 0.7313536940579346 1.5 0 0 1 I I #
point $-1 -1.2476818704340928 -43.389885765878155 8.2574928270246879 #
plane-surface $-1 0 45.831361217663989 0 0 -1 0 0 0 -1 forward_v I I I I #
coedge $-1 $335 $408 $226 $332 reversed $224 $-1 #
coedge $-1 $235 $226 $227 $334 reversed $141 $-1 #
edge $-1 $339 -10.534205568856306 $409 10.534205568856306 $330 $410 forward 7 unknown #
coedge $-1 $228 $227 $408 $411 forward $87 $-1 #
edge $-1 $237 -67.996459852900784 $409 67.996459852900784 $331 $412 forward 7 unknown #
coedge $-1 $344 $330 $229 $336 reversed $224 $-1 #
edge $-1 $337 -45.831361217663989 $339 45.831361217663989 $335 $413 forward 7 unknown #
vertex $-1 $230 $414 #
straight-curve $-1 0 45.831361217663989 10.534205568856306 -1 0 0 I I #
vertex $-1 $336 $415 #
straight-curve $-1 0 -45.831361217663989 10.534205568856306 1 0 0 I I #
point $-1 67.996459852900784 -45.831361217663989 10.534205568856306 #
straight-curve $-1 67.996459852900784 -45.831361217663989 0 0 0 -1 I I #
point $-1 67.996459852900784 -45.831361217663989 -10.534205568856306 #
coedge $-1 $408 $335 $239 $345 forward $224 $-1 #
edge $-1 $337 -10.534205568856306 $346 10.534205568856306 $239 $416 forward 7 unknown #
vertex $-1 $240 $417 #
straight-curve $-1 0 45.831361217663989 -10.534205568856306 1 0 0 I I #
plane-surface $-1 0 -45.831361217663989 0 0 1 0 0 0 1 forward_v I I I I #
coedge $-1 $418 $362 $247 $351 forward $244 $-1 #
coedge $-1 $352 $246 $255 $360 forward $156 $-1 #
edge $-1 $355 -2.4954239645380873 $353 2.4954239645380873 $247 $419 forward 7 unknown #
coedge $-1 $248 $350 $418 $420 forward $156 $-1 #
vertex $-1 $249 $421 #
straight-curve $-1 -71.75951199694876 45.831361217663989 -4.0172160813503037 1 0 0 I I #
vertex $-1 $250 $422 #
straight-curve $-1 -71.75951199694876 45.831361217663989 0.97363184772587097 -1 0 0 I I #
point $-1 -67.996459852900784 45.831361217663989 -4.0172160813503037 #
straight-curve $-1 -67.996459852900784 0 -4.0172160813503037 0 1 0 I I #
coedge $-1 $255 $254 $423 $424 forward $256 $-1 #
edge $-1 $257 -3.7630521440479754 $425 3.7630521440479754 $255 $426 forward 7 unknown #
point $-1 -67.996459852900784 -45.831361217663989 -4.0172160813503037 #
coedge $-1 $349 $423 $259 $363 reversed $244 $-1 #
edge $-1 $355 -45.831361217663989 $364 45.831361217663989 $362 $427 forward 7 unknown #
vertex $-1 $363 $428 #
straight-curve $-1 -71.75951199694876 -45.831361217663989 0.97363184772587097 1 0 0 I I #
plane-surface $-1 0 45.831361217663989 0 0 -1 0 0 0 -1 forward_v I I I I #
coedge $-1 $369 $267 $269 $375 forward $264 $-1 #
coedge $-1 $266 $275 $278 $382 forward $170 $-1 #
coedge $-1 $371 $367 $266 $370 reversed $264 $-1 #
edge $-1 $429 -45.831361217663989 $376 45.831361217663989 $369 $430 forward 7 unknown #
coedge $-1 $267 $369 $381 $431 reversed $264 $-1 #
vertex $-1 $268 $432 #
vertex $-1 $268 $433 #
straight-curve $-1 75.522564140996735 0 0.97363184772587097 0 1 0 I I #
edge $-1 $372 -2.4954239645380873 $376 2.4954239645380873 $367 $434 forward 7 unknown #
vertex $-1 $375 $435 #
straight-curve $-1 71.75951199694876 -45.831361217663989 -4.0172160813503037 -1 0 0 I I #
straight-curve $-1 71.75951199694876 -45.831361217663989 0.97363184772587097 1 0 0 I I #
point $-1 67.996459852900784 -45.831361217663989 -4.0172160813503037 #
straight-curve $-1 67.996459852900784 0 -4.0172160813503037 0 -1 0 I I #
coedge $-1 $278 $277 $371 $431 forward $279 $-1 #
edge $-1 $280 -3.7630521440479754 $429 3.7630521440479754 $278 $436 forward 7 unknown #
point $-1 67.996459852900784 45.831361217663989 -4.0172160813503037 #
straight-curve $-1 71.75951199694876 45.831361217663989 0.97363184772587097 -1 0 0 I I #
edge $-1 $386 73.442560131520608 $389 77.995985615183827 $286 $437 forward 7 unknown #
vertex $-1 $300 $438 #
straight-curve $-1 14.854179891141641 35.770219939668451 10.534205568856308 0 1 0 I I #
edge $-1 $389 -16.228020826358687 $297 18.97570269679278 $296 $439 forward 7 unknown #
vertex $-1 $388 $440 #
straight-curve $-1 14.854179891141641 -21.206509442820234 68.494607208191766 0 -0.7313536940579346 0.68199836817093118 I I #
point $-1 14.854179891141641 40.948410314092357 10.534205568856308 #
point $-1 -20.349543632009826 45.831361217663996 5.9807800851930892 #
straight-curve $-1 0 45.831361217663989 10.534205568856306 -1 0 0 I I #
vertex $-1 $303 $441 #
point $-1 -1.2476818704340928 40.78607648044661 5.4652492845218941 #
coedge $-1 $318 $317 $310 $397 forward $307 $-1 #
edge $-1 $398 42.185646570021262 $401 46.739072053684488 $396 $442 forward 7 unknown #
vertex $-1 $322 $443 #
straight-curve $-1 -20.349543632009826 -69.289155269910566 10.534205568856308 0 -1 0 I I #
edge $-1 $401 -18.97570269679278 $319 16.228020826358687 $318 $444 forward 7 unknown #
vertex $-1 $400 $445 #
straight-curve $-1 -20.349543632009826 -45.831361217663996 5.980780085193075 0 0.7313536940579346 0.68199836817093118 I I #
point $-1 -20.349543632009826 -40.948410314092342 10.534205568856306 #
point $-1 14.854179891141641 -45.831361217663989 5.9807800851930812 #
straight-curve $-1 0 -45.831361217663989 10.534205568856306 1 0 0 I I #
vertex $-1 $325 $446 #
point $-1 -1.2476818704340928 -40.786076480446603 5.4652492845219047 #
coedge $-1 $330 $344 $333 $411 reversed $224 $-1 #
vertex $-1 $411 $447 #
straight-curve $-1 -67.996459852900784 -45.831361217663989 0 0 0 -1 I I #
edge $-1 $409 -45.831361217663989 $346 45.831361217663989 $408 $448 forward 7 unknown #
straight-curve $-1 0 -45.831361217663989 -10.534205568856306 -1 0 0 I I #
straight-curve $-1 -67.996459852900784 0 10.534205568856306 0 -1 0 I I #
point $-1 -67.996459852900784 45.831361217663989 10.534205568856306 #
point $-1 -67.996459852900784 -45.831361217663989 10.534205568856306 #
straight-curve $-1 -67.996459852900784 45.831361217663989 0 0 0 -1 I I #
point $-1 -67.996459852900784 45.831361217663989 -10.534205568856306 #
coedge $-1 $423 $349 $352 $420 reversed $244 $-1 #
straight-curve $-1 -75.522564140996735 45.831361217663989 -1.5217921168122164 0 0 -1 I I #
edge $-1 $425 -45.831361217663989 $353 45.831361217663989 $418 $449 forward 7 unknown #
point $-1 -75.522564140996735 45.831361217663989 -4.0172160813503037 #
point $-1 -75.522564140996735 45.831361217663989 0.97363184772587097 #
coedge $-1 $362 $418 $359 $424 reversed $244 $-1 #
edge $-1 $364 -2.4954239645380873 $425 2.4954239645380873 $423 $450 forward 7 unknown #
vertex $-1 $420 $451 #
straight-curve $-1 -71.75951199694876 -45.831361217663989 -4.0172160813503037 -1 0 0 I I #
straight-curve $-1 -75.522564140996735 0 0.97363184772587097 0 -1 0 I I #
point $-1 -75.522564140996735 -45.831361217663989 0.97363184772587097 #
vertex $-1 $370 $452 #
straight-curve $-1 75.522564140996735 0 -4.0172160813503037 0 -1 0 I I #
edge $-1 $373 -2.4954239645380873 $429 2.4954239645380873 $371 $453 forward 7 unknown #
point $-1 75.522564140996735 -45.831361217663989 0.97363184772587097 #
point $-1 75.522564140996735 45.831361217663989 0.97363184772587097 #
straight-curve $-1 75.522564140996735 -45.831361217663989 -1.5217921168122164 0 0 -1 I I #
point $-1 75.522564140996735 -45.831361217663989 -4.0172160813503037 #
straight-curve $-1 71.75951199694876 45.831361217663989 -4.0172160813503037 1 0 0 I I #
straight-curve $-1 14.854179891141641 45.831361217663989 83.976765700376916 0 0 -1 I I #
point $-1 14.854179891141641 45.831361217663989 10.534205568856306 #
straight-curve $-1 -1.3738409352170464 45.831361217663982 5.9807800851930928 -1 0 0 I I #
point $-1 14.854179891141641 45.831361217663996 5.9807800851930892 #
point $-1 -2.7476818704340928 39.763078928190211 4.3682187434349924 #
straight-curve $-1 -20.349543632009826 -45.831361217663989 52.71985213887757 0 0 -1 I I #
point $-1 -20.349543632009826 -45.831361217663989 10.534205568856306 #
straight-curve $-1 -1.3738409352170464 -45.831361217663989 5.9807800851930866 1 0 0 I I #
point $-1 -20.349543632009826 -45.831361217663989 5.9807800851930812 #
point $-1 -2.7476818704340928 -39.763078928190204 4.368218743435003 #
point $-1 -67.996459852900784 -45.831361217663989 -10.534205568856306 #
straight-curve $-1 -67.996459852900784 0 -10.534205568856306 0 1 0 I I #
straight-curve $-1 -75.522564140996735 0 -4.0172160813503037 0 1 0 I I #
straight-curve $-1 -75.522564140996735 -45.831361217663989 -1.5217921168122164 0 0 -1 I I #
point $-1 -75.522564140996735 -45.831361217663989 -4.0172160813503037 #
point $-1 75.522564140996735 45.831361217663989 -4.0172160813503037 #
straight-curve $-1 75.522564140996735 45.831361217663989 -1.5217921168122164 0 0 -1 I I #
End-of-ACIS-data 