500 0 9 0           
7 Unknown 11 ACIS 5.0 NT 24 Fri Mar 26 14:32:56 1999 
-1 9.9999999999999995e-007 1e-010 
body $-1 $9 $-1 $10 #
body $-1 $11 $-1 $12 #
body $-1 $13 $-1 $14 #
body $-1 $15 $-1 $16 #
body $-1 $17 $-1 $18 #
body $-1 $19 $-1 $20 #
body $-1 $21 $-1 $22 #
body $-1 $23 $-1 $24 #
body $-1 $25 $-1 $26 #
lump $-1 $-1 $27 $0 #
transform $-1 1 0 0 0 1 0 0 0 1 74.693441572313617 30.61389358110339 12.801179934125434 1 rotate no_reflect no_shear #
lump $-1 $-1 $28 $1 #
transform $-1 1 0 0 0 1 0 0 0 1 74.693441572313617 6.093243665418508 7.6589841764532629 1 rotate no_reflect no_shear #
lump $-1 $-1 $29 $2 #
transform $-1 0.82903756765294845 0 -0.55919291073839883 0 1 0 0.55919291073839883 0 0.82903756765294845 109.07563091493138 16.920318593766797 228.16445825649578 1 rotate no_reflect no_shear #
lump $-1 $-1 $30 $3 #
transform $-1 0.82903756765294845 0 -0.55919291073839883 0 -1 0 -0.55919291073839883 0 -0.82903756765294845 143.60654660336036 16.920318593766797 19.920601404614189 1 rotate no_reflect no_shear #
lump $-1 $-1 $31 $4 #
transform $-1 0.82903756765294845 0 -0.55919291073839883 0 1 0 0.55919291073839883 0 0.82903756765294845 109.07563091493138 41.440968509451679 228.16445825649578 1 rotate no_reflect no_shear #
lump $-1 $-1 $32 $5 #
transform $-1 0.82903756765294845 0 -0.55919291073839883 0 -1 0 -0.55919291073839883 0 -0.82903756765294845 143.60654660336036 41.440968509451679 19.920601404614189 1 rotate no_reflect no_shear #
lump $-1 $-1 $33 $6 #
transform $-1 0.61566146476048833 0 0.78801076186113728 0 1 0 -0.78801076186113728 0 0.61566146476048833 -117.71847159885841 16.543186745396458 114.14367721859706 1 rotate no_reflect no_shear #
lump $-1 $-1 $34 $7 #
transform $-1 0.61566146476048833 0 0.78801076186113728 0 -1 0 0.78801076186113728 0 -0.61566146476048833 4.0407056753920969 14.676029853442412 21.777179281027621 1 rotate no_reflect no_shear #
lump $-1 $-1 $35 $8 #
transform $-1 0.61566146476048833 0 0.78801076186113728 0 -1 0 0.78801076186113728 0 -0.61566146476048833 4.0407056753920969 18.410343637350508 21.777179281027621 1 rotate no_reflect no_shear #
shell $-1 $-1 $-1 $36 $-1 $9 #
shell $-1 $-1 $-1 $37 $-1 $11 #
shell $-1 $-1 $-1 $38 $-1 $13 #
shell $-1 $-1 $-1 $39 $-1 $15 #
shell $-1 $-1 $-1 $40 $-1 $17 #
shell $-1 $-1 $-1 $41 $-1 $19 #
shell $-1 $-1 $-1 $42 $-1 $21 #
shell $-1 $-1 $-1 $43 $-1 $23 #
shell $-1 $-1 $-1 $44 $-1 $25 #
face $-1 $45 $46 $27 $-1 $47 forward single #
face $-1 $48 $49 $28 $-1 $50 forward single #
face $-1 $51 $52 $29 $-1 $53 forward single #
face $-1 $54 $55 $30 $-1 $56 forward single #
face $-1 $57 $58 $31 $-1 $59 forward single #
face $-1 $60 $61 $32 $-1 $62 forward single #
face $-1 $63 $64 $33 $-1 $65 forward single #
face $-1 $66 $67 $34 $-1 $68 forward single #
face $-1 $69 $70 $35 $-1 $71 forward single #
face $-1 $72 $73 $27 $-1 $74 reversed single #
loop $-1 $-1 $75 $36 #
plane-surface $-1 0 0 12.801179934125434 0 0 1 1 0 0 forward_v I I I I #
face $-1 $76 $77 $28 $-1 $78 reversed single #
loop $-1 $-1 $79 $37 #
plane-surface $-1 0 0 1.9059760290724737 0 0 1 1 0 0 forward_v I I I I #
face $-1 $80 $81 $29 $-1 $82 reversed single #
loop $-1 $-1 $83 $38 #
plane-surface $-1 0 0 149.38688314462723 0 0 1 1 0 0 forward_v I I I I #
face $-1 $84 $85 $30 $-1 $86 forward single #
loop $-1 $87 $88 $39 #
cone-surface $-1 0 0 -2.3478270821253098 0 0 1 1.5 0 0 1 I I 0 1 1.5 forward I I I I #
face $-1 $89 $90 $31 $-1 $91 reversed single #
loop $-1 $-1 $92 $40 #
plane-surface $-1 0 0 149.38688314462723 0 0 1 1 0 0 forward_v I I I I #
face $-1 $93 $94 $32 $-1 $95 forward single #
loop $-1 $96 $97 $41 #
cone-surface $-1 0 0 -2.3478270821253098 0 0 1 1.5 0 0 1 I I 0 1 1.5 forward I I I I #
face $-1 $98 $99 $33 $-1 $100 reversed single #
loop $-1 $-1 $101 $42 #
plane-surface $-1 0 0 149.38688314462723 0 0 1 1 0 0 forward_v I I I I #
face $-1 $102 $103 $34 $-1 $104 forward single #
loop $-1 $105 $106 $43 #
cone-surface $-1 0 0 -1.9635761589403948 0 0 1 1 0 0 1 I I 0 1 1 forward I I I I #
face $-1 $107 $108 $35 $-1 $109 forward single #
loop $-1 $110 $111 $44 #
cone-surface $-1 0 0 -1.9635761589403948 0 0 1 1 0 0 1 I I 0 1 1 forward I I I I #
face $-1 $112 $113 $27 $-1 $114 reversed single #
loop $-1 $-1 $115 $45 #
plane-surface $-1 0 0 -12.801179934125434 0 0 1 1 0 0 forward_v I I I I #
coedge $-1 $116 $117 $118 $119 forward $46 $-1 #
face $-1 $120 $121 $28 $-1 $122 reversed single #
loop $-1 $-1 $123 $48 #
plane-surface $-1 0 0 -1.9059760290724737 0 0 1 1 0 0 forward_v I I I I #
coedge $-1 $124 $125 $126 $127 forward $49 $-1 #
face $-1 $128 $129 $29 $-1 $130 reversed single #
loop $-1 $-1 $131 $51 #
plane-surface $-1 0 0 -149.38688314462723 0 0 1 1 0 0 forward_v I I I I #
coedge $-1 $132 $133 $134 $135 forward $52 $-1 #
face $-1 $-1 $136 $30 $-1 $137 forward single #
loop $-1 $-1 $138 $54 #
plane-surface $-1 0 0 -3.9456541642506195 0 0 -1 -1 0 0 forward_v I I I I #
loop $-1 $-1 $139 $39 #
coedge $-1 $88 $88 $138 $140 reversed $55 $-1 #
face $-1 $141 $142 $31 $-1 $143 reversed single #
loop $-1 $-1 $144 $57 #
plane-surface $-1 0 0 -149.38688314462723 0 0 1 1 0 0 forward_v I I I I #
coedge $-1 $145 $146 $147 $148 forward $58 $-1 #
face $-1 $-1 $149 $32 $-1 $150 forward single #
loop $-1 $-1 $151 $60 #
plane-surface $-1 0 0 -3.9456541642506195 0 0 -1 -1 0 0 forward_v I I I I #
loop $-1 $-1 $152 $41 #
coedge $-1 $97 $97 $151 $153 reversed $61 $-1 #
face $-1 $154 $155 $33 $-1 $156 reversed single #
loop $-1 $-1 $157 $63 #
plane-surface $-1 0 0 -149.38688314462723 0 0 1 1 0 0 forward_v I I I I #
coedge $-1 $158 $159 $160 $161 forward $64 $-1 #
face $-1 $-1 $162 $34 $-1 $163 forward single #
loop $-1 $-1 $164 $66 #
plane-surface $-1 0 0 -3.4271523178807914 0 0 -1 -1 0 0 forward_v I I I I #
loop $-1 $-1 $165 $43 #
coedge $-1 $106 $106 $164 $166 reversed $67 $-1 #
face $-1 $-1 $167 $35 $-1 $168 forward single #
loop $-1 $-1 $169 $69 #
plane-surface $-1 0 0 -3.4271523178807914 0 0 -1 -1 0 0 forward_v I I I I #
loop $-1 $-1 $170 $44 #
coedge $-1 $111 $111 $169 $171 reversed $70 $-1 #
face $-1 $172 $173 $27 $-1 $174 reversed single #
loop $-1 $-1 $175 $72 #
plane-surface $-1 0 -30.61389358110339 0 0 1 0 0 0 1 forward_v I I I I #
coedge $-1 $176 $177 $178 $179 forward $73 $-1 #
coedge $-1 $180 $75 $181 $182 forward $46 $-1 #
coedge $-1 $75 $180 $183 $184 forward $46 $-1 #
coedge $-1 $185 $186 $75 $119 reversed $187 $-1 #
edge $-1 $188 -30.61389358110339 $189 30.61389358110339 $118 $190 forward 7 unknown #
face $-1 $191 $192 $28 $-1 $193 reversed single #
loop $-1 $-1 $194 $76 #
plane-surface $-1 0 -6.093243665418508 0 0 1 0 0 0 1 forward_v I I I I #
coedge $-1 $195 $196 $197 $198 forward $77 $-1 #
coedge $-1 $199 $79 $200 $201 forward $49 $-1 #
coedge $-1 $79 $199 $202 $203 forward $49 $-1 #
coedge $-1 $204 $205 $79 $127 reversed $206 $-1 #
edge $-1 $207 -6.093243665418508 $208 6.093243665418508 $126 $209 forward 7 unknown #
face $-1 $210 $211 $29 $-1 $212 reversed single #
loop $-1 $-1 $213 $80 #
plane-surface $-1 0 -4.7338312629297805 0 0 1 0 0 0 1 forward_v I I I I #
coedge $-1 $214 $215 $216 $217 forward $81 $-1 #
coedge $-1 $218 $83 $219 $220 forward $52 $-1 #
coedge $-1 $83 $218 $221 $222 forward $52 $-1 #
coedge $-1 $223 $224 $83 $135 reversed $225 $-1 #
edge $-1 $226 -4.7338312629297805 $227 4.7338312629297805 $134 $228 forward 7 unknown #
loop $-1 $229 $230 $84 #
cone-surface $-1 0 0 0 0 0 1 0.75 0 0 1 I I -0.70710678118654757 0.70710678118654757 0.75 forward I I I I #
coedge $-1 $138 $138 $88 $140 forward $85 $-1 #
coedge $-1 $139 $139 $230 $231 forward $87 $-1 #
edge $-1 $232 0 $232 6.2831853071796004 $138 $233 forward 7 unknown #
face $-1 $234 $235 $31 $-1 $236 reversed single #
loop $-1 $-1 $237 $89 #
plane-surface $-1 0 -4.7338312629297805 0 0 1 0 0 0 1 forward_v I I I I #
coedge $-1 $238 $239 $240 $241 forward $90 $-1 #
coedge $-1 $242 $92 $243 $244 forward $58 $-1 #
coedge $-1 $92 $242 $245 $246 forward $58 $-1 #
coedge $-1 $247 $248 $92 $148 reversed $249 $-1 #
edge $-1 $250 -4.7338312629297805 $251 4.7338312629297805 $147 $252 forward 7 unknown #
loop $-1 $253 $254 $93 #
cone-surface $-1 0 0 0 0 0 1 0.75 0 0 1 I I -0.70710678118654757 0.70710678118654757 0.75 forward I I I I #
coedge $-1 $151 $151 $97 $153 forward $94 $-1 #
coedge $-1 $152 $152 $254 $255 forward $96 $-1 #
edge $-1 $256 0 $256 6.2831853071796004 $151 $257 forward 7 unknown #
face $-1 $258 $259 $33 $-1 $260 reversed single #
loop $-1 $-1 $261 $98 #
plane-surface $-1 0 -4.3566994145594427 0 0 1 0 0 0 1 forward_v I I I I #
coedge $-1 $262 $263 $264 $265 forward $99 $-1 #
coedge $-1 $266 $101 $267 $268 forward $64 $-1 #
coedge $-1 $101 $266 $269 $270 forward $64 $-1 #
coedge $-1 $271 $272 $101 $161 reversed $273 $-1 #
edge $-1 $274 -4.3566994145594427 $275 4.3566994145594427 $160 $276 forward 7 unknown #
loop $-1 $277 $278 $102 #
cone-surface $-1 0 0 0 0 0 1 0.5 0 0 1 I I -0.70710678118654746 0.70710678118654746 0.5 forward I I I I #
coedge $-1 $164 $164 $106 $166 forward $103 $-1 #
coedge $-1 $165 $165 $278 $279 forward $105 $-1 #
edge $-1 $280 0 $280 6.2831853071796004 $164 $281 forward 7 unknown #
loop $-1 $282 $283 $107 #
cone-surface $-1 0 0 0 0 0 1 0.5 0 0 1 I I -0.70710678118654746 0.70710678118654746 0.5 forward I I I I #
coedge $-1 $169 $169 $111 $171 forward $108 $-1 #
coedge $-1 $170 $170 $283 $284 forward $110 $-1 #
edge $-1 $285 0 $285 6.2831853071796004 $169 $286 forward 7 unknown #
face $-1 $287 $288 $27 $-1 $289 reversed single #
loop $-1 $-1 $290 $112 #
plane-surface $-1 -74.693441572313617 0 0 1 0 0 0 0 -1 forward_v I I I I #
coedge $-1 $291 $183 $292 $293 forward $113 $-1 #
coedge $-1 $294 $115 $291 $295 forward $73 $-1 #
coedge $-1 $115 $294 $296 $297 forward $73 $-1 #
coedge $-1 $186 $185 $115 $179 reversed $187 $-1 #
edge $-1 $298 -30.61389358110339 $299 30.61389358110339 $178 $300 forward 7 unknown #
coedge $-1 $117 $116 $301 $302 forward $46 $-1 #
coedge $-1 $303 $304 $116 $182 reversed $288 $-1 #
edge $-1 $189 -74.693441572313617 $305 74.693441572313617 $181 $306 forward 7 unknown #
coedge $-1 $175 $307 $117 $184 reversed $113 $-1 #
edge $-1 $308 -74.693441572313617 $188 74.693441572313617 $183 $309 forward 7 unknown #
coedge $-1 $178 $118 $307 $310 forward $187 $-1 #
coedge $-1 $118 $178 $303 $311 reversed $187 $-1 #
loop $-1 $-1 $185 $287 #
vertex $-1 $119 $312 #
vertex $-1 $119 $313 #
straight-curve $-1 74.693441572313617 0 12.801179934125434 0 1 0 I I #
face $-1 $314 $315 $28 $-1 $316 reversed single #
loop $-1 $-1 $317 $120 #
plane-surface $-1 -74.693441572313617 0 0 1 0 0 0 0 -1 forward_v I I I I #
coedge $-1 $318 $202 $319 $320 forward $121 $-1 #
coedge $-1 $321 $123 $318 $322 forward $77 $-1 #
coedge $-1 $123 $321 $323 $324 forward $77 $-1 #
coedge $-1 $205 $204 $123 $198 reversed $206 $-1 #
edge $-1 $325 -6.093243665418508 $326 6.093243665418508 $197 $327 forward 7 unknown #
coedge $-1 $125 $124 $328 $329 forward $49 $-1 #
coedge $-1 $330 $331 $124 $201 reversed $315 $-1 #
edge $-1 $208 -74.693441572313617 $332 74.693441572313617 $200 $333 forward 7 unknown #
coedge $-1 $194 $334 $125 $203 reversed $121 $-1 #
edge $-1 $335 -74.693441572313617 $207 74.693441572313617 $202 $336 forward 7 unknown #
coedge $-1 $197 $126 $334 $337 forward $206 $-1 #
coedge $-1 $126 $197 $330 $338 reversed $206 $-1 #
loop $-1 $-1 $204 $314 #
vertex $-1 $127 $339 #
vertex $-1 $127 $340 #
straight-curve $-1 74.693441572313617 0 1.9059760290724737 0 1 0 I I #
face $-1 $341 $342 $29 $-1 $343 reversed single #
loop $-1 $-1 $344 $128 #
plane-surface $-1 -298.77376628925447 0 0 1 0 0 0 0 -1 forward_v I I I I #
coedge $-1 $345 $221 $346 $347 forward $129 $-1 #
coedge $-1 $348 $131 $345 $349 forward $81 $-1 #
coedge $-1 $131 $348 $350 $351 forward $81 $-1 #
coedge $-1 $224 $223 $131 $217 reversed $225 $-1 #
edge $-1 $352 -4.7338312629297805 $353 4.7338312629297805 $216 $354 forward 7 unknown #
coedge $-1 $133 $132 $355 $356 forward $52 $-1 #
coedge $-1 $357 $358 $132 $220 reversed $342 $-1 #
edge $-1 $227 -298.77376628925447 $359 298.77376628925447 $219 $360 forward 7 unknown #
coedge $-1 $213 $361 $133 $222 reversed $129 $-1 #
edge $-1 $362 -298.77376628925447 $226 298.77376628925447 $221 $363 forward 7 unknown #
coedge $-1 $216 $134 $361 $364 forward $225 $-1 #
coedge $-1 $134 $216 $357 $365 reversed $225 $-1 #
loop $-1 $-1 $223 $341 #
vertex $-1 $135 $366 #
vertex $-1 $135 $367 #
straight-curve $-1 298.77376628925447 0 149.38688314462723 0 1 0 I I #
loop $-1 $-1 $368 $84 #
coedge $-1 $230 $230 $139 $231 reversed $136 $-1 #
edge $-1 $369 0 $369 6.2831853071796004 $230 $370 forward 7 unknown #
vertex $-1 $140 $371 #
ellipse-curve $-1 0 0 -3.9456541642506195 0 0 -1 1.5 0 0 1 I I #
face $-1 $372 $373 $31 $-1 $374 reversed single #
loop $-1 $-1 $375 $141 #
plane-surface $-1 -298.77376628925447 0 0 1 0 0 0 0 -1 forward_v I I I I #
coedge $-1 $376 $245 $377 $378 forward $142 $-1 #
coedge $-1 $379 $144 $376 $380 forward $90 $-1 #
coedge $-1 $144 $379 $381 $382 forward $90 $-1 #
coedge $-1 $248 $247 $144 $241 reversed $249 $-1 #
edge $-1 $383 -4.7338312629297805 $384 4.7338312629297805 $240 $385 forward 7 unknown #
coedge $-1 $146 $145 $386 $387 forward $58 $-1 #
coedge $-1 $388 $389 $145 $244 reversed $373 $-1 #
edge $-1 $251 -298.77376628925447 $390 298.77376628925447 $243 $391 forward 7 unknown #
coedge $-1 $237 $392 $146 $246 reversed $142 $-1 #
edge $-1 $393 -298.77376628925447 $250 298.77376628925447 $245 $394 forward 7 unknown #
coedge $-1 $240 $147 $392 $395 forward $249 $-1 #
coedge $-1 $147 $240 $388 $396 reversed $249 $-1 #
loop $-1 $-1 $247 $372 #
vertex $-1 $148 $397 #
vertex $-1 $148 $398 #
straight-curve $-1 298.77376628925447 0 149.38688314462723 0 1 0 I I #
loop $-1 $-1 $399 $93 #
coedge $-1 $254 $254 $152 $255 reversed $149 $-1 #
edge $-1 $400 0 $400 6.2831853071796004 $254 $401 forward 7 unknown #
vertex $-1 $153 $402 #
ellipse-curve $-1 0 0 -3.9456541642506195 0 0 -1 1.5 0 0 1 I I #
face $-1 $403 $404 $33 $-1 $405 reversed single #
loop $-1 $-1 $406 $154 #
plane-surface $-1 -298.77376628925447 0 0 1 0 0 0 0 -1 forward_v I I I I #
coedge $-1 $407 $269 $408 $409 forward $155 $-1 #
coedge $-1 $410 $157 $407 $411 forward $99 $-1 #
coedge $-1 $157 $410 $412 $413 forward $99 $-1 #
coedge $-1 $272 $271 $157 $265 reversed $273 $-1 #
edge $-1 $414 -4.3566994145594427 $415 4.3566994145594427 $264 $416 forward 7 unknown #
coedge $-1 $159 $158 $417 $418 forward $64 $-1 #
coedge $-1 $419 $420 $158 $268 reversed $404 $-1 #
edge $-1 $275 -298.77376628925447 $421 298.77376628925447 $267 $422 forward 7 unknown #
coedge $-1 $261 $423 $159 $270 reversed $155 $-1 #
edge $-1 $424 -298.77376628925447 $274 298.77376628925447 $269 $425 forward 7 unknown #
coedge $-1 $264 $160 $423 $426 forward $273 $-1 #
coedge $-1 $160 $264 $419 $427 reversed $273 $-1 #
loop $-1 $-1 $271 $403 #
vertex $-1 $161 $428 #
vertex $-1 $161 $429 #
straight-curve $-1 298.77376628925447 0 149.38688314462723 0 1 0 I I #
loop $-1 $-1 $430 $102 #
coedge $-1 $278 $278 $165 $279 reversed $162 $-1 #
edge $-1 $431 0 $431 6.2831853071796004 $278 $432 forward 7 unknown #
vertex $-1 $166 $433 #
ellipse-curve $-1 0 0 -3.4271523178807914 0 0 -1 1 0 0 1 I I #
loop $-1 $-1 $434 $107 #
coedge $-1 $283 $283 $170 $284 reversed $167 $-1 #
edge $-1 $435 0 $435 6.2831853071796004 $283 $436 forward 7 unknown #
vertex $-1 $171 $437 #
ellipse-curve $-1 0 0 -3.4271523178807914 0 0 -1 1 0 0 1 I I #
face $-1 $-1 $187 $27 $-1 $438 reversed single #
loop $-1 $-1 $303 $172 #
plane-surface $-1 0 30.61389358110339 0 0 -1 0 0 0 -1 forward_v I I I I #
coedge $-1 $439 $301 $304 $440 forward $173 $-1 #
coedge $-1 $307 $175 $176 $295 reversed $113 $-1 #
coedge $-1 $301 $439 $175 $293 reversed $173 $-1 #
edge $-1 $308 -12.801179934125434 $441 12.801179934125434 $292 $442 forward 7 unknown #
coedge $-1 $177 $176 $439 $443 forward $73 $-1 #
edge $-1 $299 -74.693441572313617 $441 74.693441572313617 $291 $444 forward 7 unknown #
coedge $-1 $304 $303 $177 $297 reversed $288 $-1 #
edge $-1 $445 -74.693441572313617 $298 74.693441572313617 $296 $446 forward 7 unknown #
vertex $-1 $179 $447 #
vertex $-1 $310 $448 #
straight-curve $-1 74.693441572313617 0 -12.801179934125434 0 -1 0 I I #
coedge $-1 $290 $292 $180 $302 reversed $173 $-1 #
edge $-1 $305 -30.61389358110339 $308 30.61389358110339 $301 $449 forward 7 unknown #
coedge $-1 $296 $181 $186 $311 forward $288 $-1 #
coedge $-1 $181 $296 $290 $440 reversed $288 $-1 #
vertex $-1 $182 $450 #
straight-curve $-1 0 30.61389358110339 12.801179934125434 -1 0 0 I I #
coedge $-1 $183 $291 $185 $310 reversed $113 $-1 #
vertex $-1 $302 $451 #
straight-curve $-1 0 -30.61389358110339 12.801179934125434 1 0 0 I I #
edge $-1 $188 -12.801179934125434 $299 12.801179934125434 $185 $452 forward 7 unknown #
edge $-1 $189 -12.801179934125434 $298 12.801179934125434 $186 $453 forward 7 unknown #
point $-1 74.693441572313617 -30.61389358110339 12.801179934125434 #
point $-1 74.693441572313617 30.61389358110339 12.801179934125434 #
face $-1 $-1 $206 $28 $-1 $454 reversed single #
loop $-1 $-1 $330 $191 #
plane-surface $-1 0 6.093243665418508 0 0 -1 0 0 0 -1 forward_v I I I I #
coedge $-1 $455 $328 $331 $456 forward $192 $-1 #
coedge $-1 $334 $194 $195 $322 reversed $121 $-1 #
coedge $-1 $328 $455 $194 $320 reversed $192 $-1 #
edge $-1 $335 -1.9059760290724737 $457 1.9059760290724737 $319 $458 forward 7 unknown #
coedge $-1 $196 $195 $455 $459 forward $77 $-1 #
edge $-1 $326 -74.693441572313617 $457 74.693441572313617 $318 $460 forward 7 unknown #
coedge $-1 $331 $330 $196 $324 reversed $315 $-1 #
edge $-1 $461 -74.693441572313617 $325 74.693441572313617 $323 $462 forward 7 unknown #
vertex $-1 $198 $463 #
vertex $-1 $337 $464 #
straight-curve $-1 74.693441572313617 0 -1.9059760290724737 0 -1 0 I I #
coedge $-1 $317 $319 $199 $329 reversed $192 $-1 #
edge $-1 $332 -6.093243665418508 $335 6.093243665418508 $328 $465 forward 7 unknown #
coedge $-1 $323 $200 $205 $338 forward $315 $-1 #
coedge $-1 $200 $323 $317 $456 reversed $315 $-1 #
vertex $-1 $201 $466 #
straight-curve $-1 0 6.093243665418508 1.9059760290724737 -1 0 0 I I #
coedge $-1 $202 $318 $204 $337 reversed $121 $-1 #
vertex $-1 $329 $467 #
straight-curve $-1 0 -6.093243665418508 1.9059760290724737 1 0 0 I I #
edge $-1 $207 -1.9059760290724737 $326 1.9059760290724737 $204 $468 forward 7 unknown #
edge $-1 $208 -1.9059760290724737 $325 1.9059760290724737 $205 $469 forward 7 unknown #
point $-1 74.693441572313617 -6.093243665418508 1.9059760290724737 #
point $-1 74.693441572313617 6.093243665418508 1.9059760290724737 #
face $-1 $-1 $225 $29 $-1 $470 reversed single #
loop $-1 $-1 $357 $210 #
plane-surface $-1 0 4.7338312629297805 0 0 -1 0 0 0 -1 forward_v I I I I #
coedge $-1 $471 $355 $358 $472 forward $211 $-1 #
coedge $-1 $361 $213 $214 $349 reversed $129 $-1 #
coedge $-1 $355 $471 $213 $347 reversed $211 $-1 #
edge $-1 $362 -149.38688314462723 $473 149.38688314462723 $346 $474 forward 7 unknown #
coedge $-1 $215 $214 $471 $475 forward $81 $-1 #
edge $-1 $353 -298.77376628925447 $473 298.77376628925447 $345 $476 forward 7 unknown #
coedge $-1 $358 $357 $215 $351 reversed $342 $-1 #
edge $-1 $477 -298.77376628925447 $352 298.77376628925447 $350 $478 forward 7 unknown #
vertex $-1 $217 $479 #
vertex $-1 $364 $480 #
straight-curve $-1 298.77376628925447 0 -149.38688314462723 0 -1 0 I I #
coedge $-1 $344 $346 $218 $356 reversed $211 $-1 #
edge $-1 $359 -4.7338312629297805 $362 4.7338312629297805 $355 $481 forward 7 unknown #
coedge $-1 $350 $219 $224 $365 forward $342 $-1 #
coedge $-1 $219 $350 $344 $472 reversed $342 $-1 #
vertex $-1 $220 $482 #
straight-curve $-1 0 4.7338312629297805 149.38688314462723 -1 0 0 I I #
coedge $-1 $221 $345 $223 $364 reversed $129 $-1 #
vertex $-1 $356 $483 #
straight-curve $-1 0 -4.7338312629297805 149.38688314462723 1 0 0 I I #
edge $-1 $226 -149.38688314462723 $353 149.38688314462723 $223 $484 forward 7 unknown #
edge $-1 $227 -149.38688314462723 $352 149.38688314462723 $224 $485 forward 7 unknown #
point $-1 298.77376628925447 -4.7338312629297805 149.38688314462723 #
point $-1 298.77376628925447 4.7338312629297805 149.38688314462723 #
coedge $-1 $368 $368 $-1 $486 reversed $229 $-1 #
vertex $-1 $231 $487 #
ellipse-curve $-1 0 0 -0.75 0 0 -1 1.5 0 0 1 I I #
point $-1 1.5 0 -3.9456541642506195 #
face $-1 $-1 $249 $31 $-1 $488 reversed single #
loop $-1 $-1 $388 $234 #
plane-surface $-1 0 4.7338312629297805 0 0 -1 0 0 0 -1 forward_v I I I I #
coedge $-1 $489 $386 $389 $490 forward $235 $-1 #
coedge $-1 $392 $237 $238 $380 reversed $142 $-1 #
coedge $-1 $386 $489 $237 $378 reversed $235 $-1 #
edge $-1 $393 -149.38688314462723 $491 149.38688314462723 $377 $492 forward 7 unknown #
coedge $-1 $239 $238 $489 $493 forward $90 $-1 #
edge $-1 $384 -298.77376628925447 $491 298.77376628925447 $376 $494 forward 7 unknown #
coedge $-1 $389 $388 $239 $382 reversed $373 $-1 #
edge $-1 $495 -298.77376628925447 $383 298.77376628925447 $381 $496 forward 7 unknown #
vertex $-1 $241 $497 #
vertex $-1 $395 $498 #
straight-curve $-1 298.77376628925447 0 -149.38688314462723 0 -1 0 I I #
coedge $-1 $375 $377 $242 $387 reversed $235 $-1 #
edge $-1 $390 -4.7338312629297805 $393 4.7338312629297805 $386 $499 forward 7 unknown #
coedge $-1 $381 $243 $248 $396 forward $373 $-1 #
coedge $-1 $243 $381 $375 $490 reversed $373 $-1 #
vertex $-1 $244 $500 #
straight-curve $-1 0 4.7338312629297805 149.38688314462723 -1 0 0 I I #
coedge $-1 $245 $376 $247 $395 reversed $142 $-1 #
vertex $-1 $387 $501 #
straight-curve $-1 0 -4.7338312629297805 149.38688314462723 1 0 0 I I #
edge $-1 $250 -149.38688314462723 $384 149.38688314462723 $247 $502 forward 7 unknown #
edge $-1 $251 -149.38688314462723 $383 149.38688314462723 $248 $503 forward 7 unknown #
point $-1 298.77376628925447 -4.7338312629297805 149.38688314462723 #
point $-1 298.77376628925447 4.7338312629297805 149.38688314462723 #
coedge $-1 $399 $399 $-1 $504 reversed $253 $-1 #
vertex $-1 $255 $505 #
ellipse-curve $-1 0 0 -0.75 0 0 -1 1.5 0 0 1 I I #
point $-1 1.5 0 -3.9456541642506195 #
face $-1 $-1 $273 $33 $-1 $506 reversed single #
loop $-1 $-1 $419 $258 #
plane-surface $-1 0 4.3566994145594427 0 0 -1 0 0 0 -1 forward_v I I I I #
coedge $-1 $507 $417 $420 $508 forward $259 $-1 #
coedge $-1 $423 $261 $262 $411 reversed $155 $-1 #
coedge $-1 $417 $507 $261 $409 reversed $259 $-1 #
edge $-1 $424 -149.38688314462723 $509 149.38688314462723 $408 $510 forward 7 unknown #
coedge $-1 $263 $262 $507 $511 forward $99 $-1 #
edge $-1 $415 -298.77376628925447 $509 298.77376628925447 $407 $512 forward 7 unknown #
coedge $-1 $420 $419 $263 $413 reversed $404 $-1 #
edge $-1 $513 -298.77376628925447 $414 298.77376628925447 $412 $514 forward 7 unknown #
vertex $-1 $265 $515 #
vertex $-1 $426 $516 #
straight-curve $-1 298.77376628925447 0 -149.38688314462723 0 -1 0 I I #
coedge $-1 $406 $408 $266 $418 reversed $259 $-1 #
edge $-1 $421 -4.3566994145594427 $424 4.3566994145594427 $417 $517 forward 7 unknown #
coedge $-1 $412 $267 $272 $427 forward $404 $-1 #
coedge $-1 $267 $412 $406 $508 reversed $404 $-1 #
vertex $-1 $268 $518 #
straight-curve $-1 0 4.3566994145594427 149.38688314462723 -1 0 0 I I #
coedge $-1 $269 $407 $271 $426 reversed $155 $-1 #
vertex $-1 $418 $519 #
straight-curve $-1 0 -4.3566994145594427 149.38688314462723 1 0 0 I I #
edge $-1 $274 -149.38688314462723 $415 149.38688314462723 $271 $520 forward 7 unknown #
edge $-1 $275 -149.38688314462723 $414 149.38688314462723 $272 $521 forward 7 unknown #
point $-1 298.77376628925447 -4.3566994145594427 149.38688314462723 #
point $-1 298.77376628925447 4.3566994145594427 149.38688314462723 #
coedge $-1 $430 $430 $-1 $522 reversed $277 $-1 #
vertex $-1 $279 $523 #
ellipse-curve $-1 0 0 -0.5 0 0 -1 1 0 0 1 I I #
point $-1 1 0 -3.4271523178807914 #
coedge $-1 $434 $434 $-1 $524 reversed $282 $-1 #
vertex $-1 $284 $525 #
ellipse-curve $-1 0 0 -0.5 0 0 -1 1 0 0 1 I I #
point $-1 1 0 -3.4271523178807914 #
plane-surface $-1 74.693441572313617 0 0 -1 0 0 0 0 1 forward_v I I I I #
coedge $-1 $292 $290 $294 $443 reversed $173 $-1 #
edge $-1 $305 -12.801179934125434 $445 12.801179934125434 $304 $526 forward 7 unknown #
vertex $-1 $443 $527 #
straight-curve $-1 -74.693441572313617 -30.61389358110339 0 0 0 -1 I I #
edge $-1 $441 -30.61389358110339 $445 30.61389358110339 $439 $528 forward 7 unknown #
straight-curve $-1 0 -30.61389358110339 -12.801179934125434 -1 0 0 I I #
vertex $-1 $297 $529 #
straight-curve $-1 0 30.61389358110339 -12.801179934125434 1 0 0 I I #
point $-1 74.693441572313617 30.61389358110339 -12.801179934125434 #
point $-1 74.693441572313617 -30.61389358110339 -12.801179934125434 #
straight-curve $-1 -74.693441572313617 0 12.801179934125434 0 -1 0 I I #
point $-1 -74.693441572313617 30.61389358110339 12.801179934125434 #
point $-1 -74.693441572313617 -30.61389358110339 12.801179934125434 #
straight-curve $-1 74.693441572313617 -30.61389358110339 0 0 0 -1 I I #
straight-curve $-1 74.693441572313617 30.61389358110339 0 0 0 -1 I I #
plane-surface $-1 74.693441572313617 0 0 -1 0 0 0 0 1 forward_v I I I I #
coedge $-1 $319 $317 $321 $459 reversed $192 $-1 #
edge $-1 $332 -1.9059760290724737 $461 1.9059760290724737 $331 $530 forward 7 unknown #
vertex $-1 $459 $531 #
straight-curve $-1 -74.693441572313617 -6.093243665418508 0 0 0 -1 I I #
edge $-1 $457 -6.093243665418508 $461 6.093243665418508 $455 $532 forward 7 unknown #
straight-curve $-1 0 -6.093243665418508 -1.9059760290724737 -1 0 0 I I #
vertex $-1 $324 $533 #
straight-curve $-1 0 6.093243665418508 -1.9059760290724737 1 0 0 I I #
point $-1 74.693441572313617 6.093243665418508 -1.9059760290724737 #
point $-1 74.693441572313617 -6.093243665418508 -1.9059760290724737 #
straight-curve $-1 -74.693441572313617 0 1.9059760290724737 0 -1 0 I I #
point $-1 -74.693441572313617 6.093243665418508 1.9059760290724737 #
point $-1 -74.693441572313617 -6.093243665418508 1.9059760290724737 #
straight-curve $-1 74.693441572313617 -6.093243665418508 0 0 0 -1 I I #
straight-curve $-1 74.693441572313617 6.093243665418508 0 0 0 -1 I I #
plane-surface $-1 298.77376628925447 0 0 -1 0 0 0 0 1 forward_v I I I I #
coedge $-1 $346 $344 $348 $475 reversed $211 $-1 #
edge $-1 $359 -149.38688314462723 $477 149.38688314462723 $358 $534 forward 7 unknown #
vertex $-1 $475 $535 #
straight-curve $-1 -298.77376628925447 -4.7338312629297805 0 0 0 -1 I I #
edge $-1 $473 -4.7338312629297805 $477 4.7338312629297805 $471 $536 forward 7 unknown #
straight-curve $-1 0 -4.7338312629297805 -149.38688314462723 -1 0 0 I I #
vertex $-1 $351 $537 #
straight-curve $-1 0 4.7338312629297805 -149.38688314462723 1 0 0 I I #
point $-1 298.77376628925447 4.7338312629297805 -149.38688314462723 #
point $-1 298.77376628925447 -4.7338312629297805 -149.38688314462723 #
straight-curve $-1 -298.77376628925447 0 149.38688314462723 0 -1 0 I I #
point $-1 -298.77376628925447 4.7338312629297805 149.38688314462723 #
point $-1 -298.77376628925447 -4.7338312629297805 149.38688314462723 #
straight-curve $-1 298.77376628925447 -4.7338312629297805 0 0 0 -1 I I #
straight-curve $-1 298.77376628925447 4.7338312629297805 0 0 0 -1 I I #
edge $-1 $538 1 $538 0 $368 $-1 forward 7 unknown #
point $-1 1.5 0 -0.75 #
plane-surface $-1 298.77376628925447 0 0 -1 0 0 0 0 1 forward_v I I I I #
coedge $-1 $377 $375 $379 $493 reversed $235 $-1 #
edge $-1 $390 -149.38688314462723 $495 149.38688314462723 $389 $539 forward 7 unknown #
vertex $-1 $493 $540 #
straight-curve $-1 -298.77376628925447 -4.7338312629297805 0 0 0 -1 I I #
edge $-1 $491 -4.7338312629297805 $495 4.7338312629297805 $489 $541 forward 7 unknown #
straight-curve $-1 0 -4.7338312629297805 -149.38688314462723 -1 0 0 I I #
vertex $-1 $382 $542 #
straight-curve $-1 0 4.7338312629297805 -149.38688314462723 1 0 0 I I #
point $-1 298.77376628925447 4.7338312629297805 -149.38688314462723 #
point $-1 298.77376628925447 -4.7338312629297805 -149.38688314462723 #
straight-curve $-1 -298.77376628925447 0 149.38688314462723 0 -1 0 I I #
point $-1 -298.77376628925447 4.7338312629297805 149.38688314462723 #
point $-1 -298.77376628925447 -4.7338312629297805 149.38688314462723 #
straight-curve $-1 298.77376628925447 -4.7338312629297805 0 0 0 -1 I I #
straight-curve $-1 298.77376628925447 4.7338312629297805 0 0 0 -1 I I #
edge $-1 $543 1 $543 0 $399 $-1 forward 7 unknown #
point $-1 1.5 0 -0.75 #
plane-surface $-1 298.77376628925447 0 0 -1 0 0 0 0 1 forward_v I I I I #
coedge $-1 $408 $406 $410 $511 reversed $259 $-1 #
edge $-1 $421 -149.38688314462723 $513 149.38688314462723 $420 $544 forward 7 unknown #
vertex $-1 $511 $545 #
straight-curve $-1 -298.77376628925447 -4.3566994145594427 0 0 0 -1 I I #
edge $-1 $509 -4.3566994145594427 $513 4.3566994145594427 $507 $546 forward 7 unknown #
straight-curve $-1 0 -4.3566994145594427 -149.38688314462723 -1 0 0 I I #
vertex $-1 $413 $547 #
straight-curve $-1 0 4.3566994145594427 -149.38688314462723 1 0 0 I I #
point $-1 298.77376628925447 4.3566994145594427 -149.38688314462723 #
point $-1 298.77376628925447 -4.3566994145594427 -149.38688314462723 #
straight-curve $-1 -298.77376628925447 0 149.38688314462723 0 -1 0 I I #
point $-1 -298.77376628925447 4.3566994145594427 149.38688314462723 #
point $-1 -298.77376628925447 -4.3566994145594427 149.38688314462723 #
straight-curve $-1 298.77376628925447 -4.3566994145594427 0 0 0 -1 I I #
straight-curve $-1 298.77376628925447 4.3566994145594427 0 0 0 -1 I I #
edge $-1 $548 1 $548 0 $430 $-1 forward 7 unknown #
point $-1 1 0 -0.5 #
edge $-1 $549 1 $549 0 $434 $-1 forward 7 unknown #
point $-1 1 0 -0.5 #
straight-curve $-1 -74.693441572313617 30.61389358110339 0 0 0 -1 I I #
point $-1 -74.693441572313617 -30.61389358110339 -12.801179934125434 #
straight-curve $-1 -74.693441572313617 0 -12.801179934125434 0 1 0 I I #
point $-1 -74.693441572313617 30.61389358110339 -12.801179934125434 #
straight-curve $-1 -74.693441572313617 6.093243665418508 0 0 0 -1 I I #
point $-1 -74.693441572313617 -6.093243665418508 -1.9059760290724737 #
straight-curve $-1 -74.693441572313617 0 -1.9059760290724737 0 1 0 I I #
point $-1 -74.693441572313617 6.093243665418508 -1.9059760290724737 #
straight-curve $-1 -298.77376628925447 4.7338312629297805 0 0 0 -1 I I #
point $-1 -298.77376628925447 -4.7338312629297805 -149.38688314462723 #
straight-curve $-1 -298.77376628925447 0 -149.38688314462723 0 1 0 I I #
point $-1 -298.77376628925447 4.7338312629297805 -149.38688314462723 #
vertex $-1 $486 $550 #
straight-curve $-1 -298.77376628925447 4.7338312629297805 0 0 0 -1 I I #
point $-1 -298.77376628925447 -4.7338312629297805 -149.38688314462723 #
straight-curve $-1 -298.77376628925447 0 -149.38688314462723 0 1 0 I I #
point $-1 -298.77376628925447 4.7338312629297805 -149.38688314462723 #
vertex $-1 $504 $551 #
straight-curve $-1 -298.77376628925447 4.3566994145594427 0 0 0 -1 I I #
point $-1 -298.77376628925447 -4.3566994145594427 -149.38688314462723 #
straight-curve $-1 -298.77376628925447 0 -149.38688314462723 0 1 0 I I #
point $-1 -298.77376628925447 4.3566994145594427 -149.38688314462723 #
vertex $-1 $522 $552 #
vertex $-1 $524 $553 #
point $-1 0 0 0.75 #
point $-1 0 0 0.75 #
point $-1 0 0 0.5 #
point $-1 0 0 0.5 #
End-of-ACIS-data 