500 0 1 0           
7 Unknown 11 ACIS 5.0 NT 24 Fri Mar 26 16:40:17 1999 
-1 9.9999999999999995e-007 1e-010 
body $-1 $1 $-1 $2 #
lump $-1 $-1 $3 $0 #
transform $-1 1 0 0 0 1 0 0 0 1 54.940641499069187 22.979765432819388 4.7226093455185332 1 rotate no_reflect no_shear #
shell $-1 $-1 $-1 $4 $-1 $1 #
face $-1 $5 $6 $3 $-1 $7 forward single #
face $-1 $8 $9 $3 $-1 $10 reversed single #
loop $-1 $-1 $11 $4 #
plane-surface $-1 0 0 4.7226093455185332 0 0 1 1 0 0 forward_v I I I I #
face $-1 $12 $13 $3 $-1 $14 reversed single #
loop $-1 $-1 $15 $5 #
plane-surface $-1 0 0 -4.7226093455185332 0 0 1 1 0 0 forward_v I I I I #
coedge $-1 $16 $17 $18 $19 forward $6 $-1 #
face $-1 $20 $21 $3 $-1 $22 reversed single #
loop $-1 $-1 $23 $8 #
plane-surface $-1 0 -22.979765432819388 0 0 1 0 0 0 1 forward_v I I I I #
coedge $-1 $24 $25 $26 $27 forward $9 $-1 #
coedge $-1 $28 $11 $29 $30 forward $6 $-1 #
coedge $-1 $11 $28 $31 $32 forward $6 $-1 #
coedge $-1 $33 $34 $11 $19 reversed $35 $-1 #
edge $-1 $36 -22.979765432819388 $37 22.979765432819388 $18 $38 forward 7 unknown #
face $-1 $39 $40 $3 $-1 $41 reversed single #
loop $-1 $-1 $42 $12 #
plane-surface $-1 -54.940641499069187 0 0 1 0 0 0 0 -1 forward_v I I I I #
coedge $-1 $43 $31 $44 $45 forward $13 $-1 #
coedge $-1 $46 $15 $43 $47 forward $9 $-1 #
coedge $-1 $15 $46 $48 $49 forward $9 $-1 #
coedge $-1 $34 $33 $15 $27 reversed $35 $-1 #
edge $-1 $50 -22.979765432819388 $51 22.979765432819388 $26 $52 forward 7 unknown #
coedge $-1 $17 $16 $53 $54 forward $6 $-1 #
coedge $-1 $55 $56 $16 $30 reversed $40 $-1 #
edge $-1 $37 -54.940641499069187 $57 54.940641499069187 $29 $58 forward 7 unknown #
coedge $-1 $23 $59 $17 $32 reversed $13 $-1 #
edge $-1 $60 -54.940641499069187 $36 54.940641499069187 $31 $61 forward 7 unknown #
coedge $-1 $26 $18 $59 $62 forward $35 $-1 #
coedge $-1 $18 $26 $55 $63 reversed $35 $-1 #
loop $-1 $-1 $33 $39 #
vertex $-1 $19 $64 #
vertex $-1 $19 $65 #
straight-curve $-1 54.940641499069187 0 4.7226093455185332 0 1 0 I I #
face $-1 $-1 $35 $3 $-1 $66 reversed single #
loop $-1 $-1 $55 $20 #
plane-surface $-1 0 22.979765432819388 0 0 -1 0 0 0 -1 forward_v I I I I #
coedge $-1 $67 $53 $56 $68 forward $21 $-1 #
coedge $-1 $59 $23 $24 $47 reversed $13 $-1 #
coedge $-1 $53 $67 $23 $45 reversed $21 $-1 #
edge $-1 $60 -4.7226093455185332 $69 4.7226093455185332 $44 $70 forward 7 unknown #
coedge $-1 $25 $24 $67 $71 forward $9 $-1 #
edge $-1 $51 -54.940641499069187 $69 54.940641499069187 $43 $72 forward 7 unknown #
coedge $-1 $56 $55 $25 $49 reversed $40 $-1 #
edge $-1 $73 -54.940641499069187 $50 54.940641499069187 $48 $74 forward 7 unknown #
vertex $-1 $27 $75 #
vertex $-1 $62 $76 #
straight-curve $-1 54.940641499069187 0 -4.7226093455185332 0 -1 0 I I #
coedge $-1 $42 $44 $28 $54 reversed $21 $-1 #
edge $-1 $57 -22.979765432819388 $60 22.979765432819388 $53 $77 forward 7 unknown #
coedge $-1 $48 $29 $34 $63 forward $40 $-1 #
coedge $-1 $29 $48 $42 $68 reversed $40 $-1 #
vertex $-1 $30 $78 #
straight-curve $-1 0 22.979765432819388 4.7226093455185332 -1 0 0 I I #
coedge $-1 $31 $43 $33 $62 reversed $13 $-1 #
vertex $-1 $54 $79 #
straight-curve $-1 0 -22.979765432819388 4.7226093455185332 1 0 0 I I #
edge $-1 $36 -4.7226093455185332 $51 4.7226093455185332 $33 $80 forward 7 unknown #
edge $-1 $37 -4.7226093455185332 $50 4.7226093455185332 $34 $81 forward 7 unknown #
point $-1 54.940641499069187 -22.979765432819388 4.7226093455185332 #
point $-1 54.940641499069187 22.979765432819388 4.7226093455185332 #
plane-surface $-1 54.940641499069187 0 0 -1 0 0 0 0 1 forward_v I I I I #
coedge $-1 $44 $42 $46 $71 reversed $21 $-1 #
edge $-1 $57 -4.7226093455185332 $73 4.7226093455185332 $56 $82 forward 7 unknown #
vertex $-1 $71 $83 #
straight-curve $-1 -54.940641499069187 -22.979765432819388 0 0 0 -1 I I #
edge $-1 $69 -22.979765432819388 $73 22.979765432819388 $67 $84 forward 7 unknown #
straight-curve $-1 0 -22.979765432819388 -4.7226093455185332 -1 0 0 I I #
vertex $-1 $49 $85 #
straight-curve $-1 0 22.979765432819388 -4.7226093455185332 1 0 0 I I #
point $-1 54.940641499069187 22.979765432819388 -4.7226093455185332 #
point $-1 54.940641499069187 -22.979765432819388 -4.7226093455185332 #
straight-curve $-1 -54.940641499069187 0 4.7226093455185332 0 -1 0 I I #
point $-1 -54.940641499069187 22.979765432819388 4.7226093455185332 #
point $-1 -54.940641499069187 -22.979765432819388 4.7226093455185332 #
straight-curve $-1 54.940641499069187 -22.979765432819388 0 0 0 -1 I I #
straight-curve $-1 54.940641499069187 22.979765432819388 0 0 0 -1 I I #
straight-curve $-1 -54.940641499069187 22.979765432819388 0 0 0 -1 I I #
point $-1 -54.940641499069187 -22.979765432819388 -4.7226093455185332 #
straight-curve $-1 -54.940641499069187 0 -4.7226093455185332 0 1 0 I I #
point $-1 -54.940641499069187 22.979765432819388 -4.7226093455185332 #
End-of-ACIS-data 