500 0 8 0           
7 Unknown 11 ACIS 5.0 NT 24 Thu Mar 25 23:12:49 1999 
-1 9.9999999999999995e-007 1e-010 
body $-1 $8 $-1 $9 #
body $-1 $10 $-1 $11 #
body $-1 $12 $-1 $13 #
body $-1 $14 $-1 $15 #
body $-1 $16 $-1 $17 #
body $-1 $18 $-1 $19 #
body $-1 $20 $-1 $21 #
body $-1 $22 $-1 $23 #
lump $-1 $-1 $24 $0 #
transform $-1 1 0 0 0 1 0 0 0 1 44.652241584521015 23.359471260522547 5.5851143419732612 1 rotate no_reflect no_shear #
lump $-1 $-1 $25 $1 #
transform $-1 1 0 0 0 1 0 0 0 1 44.652241584521015 23.359471260522547 5.5851143419732612 1 rotate no_reflect no_shear #
lump $-1 $-1 $26 $2 #
transform $-1 1 0 0 0 1 0 0 0 1 44.652241584521015 23.359471260522547 5.5851143419732612 1 rotate no_reflect no_shear #
lump $-1 $-1 $27 $3 #
transform $-1 1 0 0 0 1 0 0 0 1 44.652241584521015 23.359471260522547 5.5851143419732612 1 rotate no_reflect no_shear #
lump $-1 $-1 $28 $4 #
transform $-1 1 0 0 0 1 0 0 0 1 44.652241584521015 23.359471260522547 5.5851143419732612 1 rotate no_reflect no_shear #
lump $-1 $-1 $29 $5 #
transform $-1 1 0 0 0 1 0 0 0 1 44.652241584521015 23.359471260522547 5.5851143419732612 1 rotate no_reflect no_shear #
lump $-1 $-1 $30 $6 #
transform $-1 1 0 0 0 1 0 0 0 1 44.652241584521015 23.359471260522547 5.5851143419732612 1 rotate no_reflect no_shear #
lump $-1 $-1 $31 $7 #
transform $-1 1 0 0 0 1 0 0 0 1 44.652241584521015 23.359471260522547 5.5851143419732612 1 rotate no_reflect no_shear #
shell $-1 $-1 $-1 $32 $-1 $8 #
shell $-1 $-1 $-1 $33 $-1 $10 #
shell $-1 $-1 $-1 $34 $-1 $12 #
shell $-1 $-1 $-1 $35 $-1 $14 #
shell $-1 $-1 $-1 $36 $-1 $16 #
shell $-1 $-1 $-1 $37 $-1 $18 #
shell $-1 $-1 $-1 $38 $-1 $20 #
shell $-1 $-1 $-1 $39 $-1 $22 #
face $-1 $40 $41 $24 $-1 $42 forward single #
face $-1 $43 $44 $25 $-1 $45 forward single #
face $-1 $46 $47 $26 $-1 $48 reversed single #
face $-1 $49 $50 $27 $-1 $51 forward single #
face $-1 $52 $53 $28 $-1 $54 forward single #
face $-1 $55 $56 $29 $-1 $57 forward single #
face $-1 $58 $59 $30 $-1 $60 reversed single #
face $-1 $61 $62 $31 $-1 $63 forward single #
face $-1 $64 $65 $24 $-1 $66 reversed single #
loop $-1 $-1 $67 $32 #
plane-surface $-1 0 0 5.5851143419732612 0 0 1 1 0 0 forward_v I I I I #
face $-1 $68 $69 $25 $-1 $70 reversed single #
loop $-1 $-1 $71 $33 #
plane-surface $-1 0 -21.344938738409908 -2.5851143419732612 0 0 1 1 0 0 forward_v I I I I #
face $-1 $72 $73 $26 $-1 $74 reversed single #
loop $-1 $-1 $75 $34 #
plane-surface $-1 -115.97397378417341 12.512727297892315 53.764817665812721 0 1 0 -0.79863551827123203 0 0.60181501223851219 forward_v I I I I #
face $-1 $76 $77 $27 $-1 $78 forward single #
loop $-1 $79 $80 $35 #
cone-surface $-1 -41.782752748845922 14.682076090418363 2.2203082205848883 0.79863551827123203 0 -0.60181501223851219 0.3009075061192561 0 0.39931775913561601 1 I I 0 1 0.5 forward I I I I #
face $-1 $81 $82 $28 $-1 $83 forward single #
loop $-1 $84 $85 $36 #
cone-surface $-1 -41.782752748845922 17.936099279207433 2.2203082205848883 0.79863551827123203 0 -0.60181501223851219 0.3009075061192561 0 0.39931775913561601 1 I I 0 1 0.5 forward I I I I #
face $-1 $86 $87 $29 $-1 $88 forward single #
loop $-1 $89 $90 $37 #
cone-surface $-1 -41.782752748845922 21.190122467996503 2.2203082205848883 0.79863551827123203 0 -0.60181501223851219 0.3009075061192561 0 0.39931775913561601 1 I I 0 1 0.5 forward I I I I #
face $-1 $91 $92 $30 $-1 $93 reversed single #
loop $-1 $-1 $94 $38 #
plane-surface $-1 77.339952983457863 -11.48506625572788 123.7887626208056 0 -1 0 -0.86602541151947299 0 -0.49999998660252726 forward_v I I I I #
face $-1 $95 $96 $31 $-1 $97 forward single #
loop $-1 $98 $99 $39 #
cone-surface $-1 42.490938027542562 -15.407736236012573 3.0744371856020924 -0.86602541151947299 0 -0.49999998660252726 0.49999998660252726 0 -0.86602541151947299 1 I I 0 1 1 forward I I I I #
face $-1 $100 $101 $24 $-1 $102 reversed single #
loop $-1 $-1 $103 $40 #
plane-surface $-1 0 0 -5.5851143419732612 0 0 1 1 0 0 forward_v I I I I #
coedge $-1 $104 $105 $106 $107 forward $41 $-1 #
face $-1 $108 $109 $25 $-1 $110 reversed single #
loop $-1 $-1 $111 $43 #
plane-surface $-1 0 -19.33040621629727 -4.0851143419732612 0 -1 0 0 0 -1 forward_v I I I I #
coedge $-1 $112 $113 $114 $115 reversed $44 $-1 #
face $-1 $116 $117 $26 $-1 $118 reversed single #
loop $-1 $-1 $119 $46 #
plane-surface $-1 -44.652241584521008 17.936099279207433 0.020039034481683871 -0.79863551827123203 0 0.60181501223851219 0.60181501223851219 0 0.79863551827123203 forward_v I I I I #
coedge $-1 $120 $121 $122 $123 reversed $47 $-1 #
face $-1 $-1 $124 $27 $-1 $125 forward single #
loop $-1 $126 $127 $49 #
cone-surface $-1 -40.810397492530981 14.682076090418363 1.4875859998826781 0.79863551827123203 0 -0.60181501223851219 0.15045375305962805 0 0.19965887956780801 1 I I -0.70710678118654746 0.70710678118654746 0.25 forward I I I I #
loop $-1 $-1 $128 $35 #
coedge $-1 $80 $80 $129 $130 reversed $50 $-1 #
face $-1 $-1 $131 $28 $-1 $132 forward single #
loop $-1 $133 $134 $52 #
cone-surface $-1 -40.810397492530981 17.936099279207433 1.4875859998826781 0.79863551827123203 0 -0.60181501223851219 0.15045375305962805 0 0.19965887956780801 1 I I -0.70710678118654746 0.70710678118654746 0.25 forward I I I I #
loop $-1 $-1 $135 $36 #
coedge $-1 $85 $85 $136 $137 reversed $53 $-1 #
face $-1 $-1 $138 $29 $-1 $139 forward single #
loop $-1 $140 $141 $55 #
cone-surface $-1 -40.810397492530981 21.190122467996503 1.4875859998826781 0.79863551827123203 0 -0.60181501223851219 0.15045375305962805 0 0.19965887956780801 1 I I -0.70710678118654746 0.70710678118654746 0.25 forward I I I I #
loop $-1 $-1 $142 $37 #
coedge $-1 $90 $90 $143 $144 reversed $56 $-1 #
face $-1 $145 $146 $30 $-1 $147 reversed single #
loop $-1 $-1 $148 $58 #
plane-surface $-1 1.1964543915610193e-006 -15.407736236012573 79.136522232738969 0.86602541151947299 0 0.49999998660252726 0.49999998660252726 0 -0.86602541151947299 forward_v I I I I #
coedge $-1 $149 $150 $151 $152 reversed $59 $-1 #
face $-1 $-1 $153 $31 $-1 $154 forward single #
loop $-1 $155 $156 $61 #
cone-surface $-1 40.990280144896481 -15.407736236012573 2.2080319840485512 -0.86602541151947299 0 -0.49999998660252726 0.24999999330126363 0 -0.43301270575973649 1 I I -0.70710678118654746 0.70710678118654746 0.5 forward I I I I #
loop $-1 $-1 $157 $39 #
coedge $-1 $99 $99 $158 $159 reversed $62 $-1 #
face $-1 $160 $161 $24 $-1 $162 reversed single #
loop $-1 $-1 $163 $64 #
plane-surface $-1 0 -23.359471260522547 0 0 1 0 0 0 1 forward_v I I I I #
coedge $-1 $164 $165 $166 $167 forward $65 $-1 #
coedge $-1 $168 $67 $169 $170 forward $41 $-1 #
coedge $-1 $67 $168 $171 $172 forward $41 $-1 #
coedge $-1 $173 $174 $67 $107 reversed $175 $-1 #
edge $-1 $176 -23.359471260522547 $177 23.359471260522547 $106 $178 forward 7 unknown #
face $-1 $179 $180 $25 $-1 $181 reversed single #
loop $-1 $-1 $182 $68 #
plane-surface $-1 0 0 -5.5851143419732612 0 0 1 1 0 0 forward_v I I I I #
coedge $-1 $183 $184 $185 $186 reversed $69 $-1 #
coedge $-1 $187 $71 $184 $188 forward $44 $-1 #
coedge $-1 $71 $187 $189 $190 reversed $44 $-1 #
coedge $-1 $191 $185 $71 $115 forward $180 $-1 #
edge $-1 $192 8.6579368470923157 $193 12.687001891317593 $114 $194 forward 7 unknown #
face $-1 $195 $196 $26 $-1 $197 reversed single #
loop $-1 $-1 $198 $72 #
plane-surface $-1 0 23.359471260522547 0 0 -1 0 0 0 -1 forward_v I I I I #
coedge $-1 $199 $200 $201 $202 reversed $73 $-1 #
coedge $-1 $121 $75 $203 $204 reversed $47 $-1 #
coedge $-1 $75 $120 $199 $205 reversed $47 $-1 #
coedge $-1 $201 $206 $75 $123 forward $207 $-1 #
edge $-1 $208 13.33474530756569 $209 17.52833022542162 $122 $210 forward 7 unknown #
loop $-1 $-1 $129 $76 #
plane-surface $-1 -44.652241584521008 17.936099279207433 0.020039034481683871 -0.79863551827123203 0 0.60181501223851219 0.60181501223851219 0 0.79863551827123203 forward_v I I I I #
loop $-1 $-1 $211 $49 #
coedge $-1 $127 $127 $128 $212 reversed $77 $-1 #
coedge $-1 $128 $128 $127 $212 forward $79 $-1 #
coedge $-1 $129 $129 $80 $130 forward $124 $-1 #
edge $-1 $213 0 $213 6.2831853071796004 $129 $214 forward 7 unknown #
loop $-1 $-1 $136 $81 #
plane-surface $-1 -44.652241584521008 17.936099279207433 0.020039034481683871 -0.79863551827123203 0 0.60181501223851219 0.60181501223851219 0 0.79863551827123203 forward_v I I I I #
loop $-1 $-1 $215 $52 #
coedge $-1 $134 $134 $135 $216 reversed $82 $-1 #
coedge $-1 $135 $135 $134 $216 forward $84 $-1 #
coedge $-1 $136 $136 $85 $137 forward $131 $-1 #
edge $-1 $217 0 $217 6.2831853071796004 $136 $218 forward 7 unknown #
loop $-1 $-1 $143 $86 #
plane-surface $-1 -44.652241584521008 17.936099279207433 0.020039034481683871 -0.79863551827123203 0 0.60181501223851219 0.60181501223851219 0 0.79863551827123203 forward_v I I I I #
loop $-1 $-1 $219 $55 #
coedge $-1 $141 $141 $142 $220 reversed $87 $-1 #
coedge $-1 $142 $142 $141 $220 forward $89 $-1 #
coedge $-1 $143 $143 $90 $144 forward $138 $-1 #
edge $-1 $221 0 $221 6.2831853071796004 $143 $222 forward 7 unknown #
face $-1 $223 $224 $30 $-1 $225 forward single #
loop $-1 $-1 $226 $91 #
plane-surface $-1 77.339952983457863 -19.330406216297266 123.7887626208056 0 1 0 0.86602541151947299 0 0.49999998660252726 forward_v I I I I #
coedge $-1 $227 $228 $229 $230 reversed $92 $-1 #
coedge $-1 $150 $94 $231 $232 reversed $59 $-1 #
coedge $-1 $94 $149 $227 $233 reversed $59 $-1 #
coedge $-1 $229 $234 $94 $152 forward $224 $-1 #
edge $-1 $235 -5.9822650927920833 $236 -3.7949483326078806 $151 $237 forward 7 unknown #
loop $-1 $-1 $158 $95 #
plane-surface $-1 1.1964543915610193e-006 -15.407736236012573 79.136522232738969 0.86602541151947299 0 0.49999998660252726 0.49999998660252726 0 -0.86602541151947299 forward_v I I I I #
loop $-1 $-1 $238 $61 #
coedge $-1 $156 $156 $157 $239 reversed $96 $-1 #
coedge $-1 $157 $157 $156 $239 forward $98 $-1 #
coedge $-1 $158 $158 $99 $159 forward $153 $-1 #
edge $-1 $240 0 $240 6.2831853071796004 $158 $241 forward 7 unknown #
face $-1 $242 $243 $24 $-1 $244 reversed single #
loop $-1 $-1 $245 $100 #
plane-surface $-1 -44.652241584521015 0 0 1 0 0 0 0 -1 forward_v I I I I #
coedge $-1 $246 $171 $247 $248 forward $101 $-1 #
coedge $-1 $249 $103 $246 $250 forward $65 $-1 #
coedge $-1 $103 $249 $251 $252 forward $65 $-1 #
coedge $-1 $174 $173 $103 $167 reversed $175 $-1 #
edge $-1 $253 -23.359471260522547 $254 23.359471260522547 $166 $255 forward 7 unknown #
coedge $-1 $105 $104 $256 $257 forward $41 $-1 #
coedge $-1 $258 $259 $104 $170 reversed $243 $-1 #
edge $-1 $177 -44.652241584521015 $260 44.652241584521015 $169 $261 forward 7 unknown #
coedge $-1 $163 $262 $105 $172 reversed $101 $-1 #
edge $-1 $263 -44.652241584521015 $176 44.652241584521015 $171 $264 forward 7 unknown #
coedge $-1 $166 $106 $262 $265 forward $175 $-1 #
coedge $-1 $106 $166 $258 $266 reversed $175 $-1 #
loop $-1 $-1 $173 $242 #
vertex $-1 $107 $267 #
vertex $-1 $107 $268 #
straight-curve $-1 44.652241584521015 0 5.5851143419732612 0 1 0 I I #
face $-1 $269 $270 $25 $-1 $271 reversed single #
loop $-1 $-1 $185 $108 #
plane-surface $-1 44.652241584521015 0 0 -1 0 0 0 0 1 forward_v I I I I #
coedge $-1 $272 $273 $183 $274 forward $109 $-1 #
coedge $-1 $275 $111 $182 $274 reversed $69 $-1 #
coedge $-1 $111 $275 $112 $188 reversed $69 $-1 #
coedge $-1 $114 $276 $111 $186 forward $180 $-1 #
edge $-1 $277 -3.5425571709866306 $192 -0.54255717098663059 $185 $278 forward 7 unknown #
coedge $-1 $113 $112 $279 $280 reversed $44 $-1 #
edge $-1 $192 -44.652241584521015 $281 44.652241584521015 $184 $282 forward 7 unknown #
coedge $-1 $283 $284 $113 $190 forward $270 $-1 #
edge $-1 $193 -44.652241584521015 $285 44.652241584521015 $189 $286 forward 7 unknown #
coedge $-1 $276 $114 $284 $287 forward $180 $-1 #
vertex $-1 $115 $288 #
vertex $-1 $287 $289 #
straight-curve $-1 44.652241584521015 -10.672469369204954 -2.5851143419732612 0 -1 0 I I #
face $-1 $-1 $207 $26 $-1 $290 forward single #
loop $-1 $-1 $291 $116 #
plane-surface $-1 -44.652241584521015 0 0 1 0 0 0 0 -1 forward_v I I I I #
coedge $-1 $292 $293 $200 $294 forward $117 $-1 #
coedge $-1 $295 $119 $121 $205 forward $73 $-1 #
coedge $-1 $119 $295 $198 $294 reversed $73 $-1 #
coedge $-1 $296 $122 $119 $202 forward $207 $-1 #
edge $-1 $209 3.5446776582885988 $297 14.391421620918834 $201 $298 forward 7 unknown #
coedge $-1 $299 $291 $120 $204 forward $196 $-1 #
edge $-1 $300 -26.862369798424687 $208 -21.297294490933098 $203 $301 forward 7 unknown #
edge $-1 $209 -6.9682291610796732 $300 1.1807251300724747e-014 $121 $302 forward 7 unknown #
coedge $-1 $122 $296 $299 $303 forward $207 $-1 #
loop $-1 $-1 $201 $195 #
vertex $-1 $204 $304 #
vertex $-1 $123 $305 #
straight-curve $-1 -57.986986892086705 12.512727297892315 5.5851143419732594 1 0 0 I I #
coedge $-1 $211 $211 $-1 $306 reversed $126 $-1 #
edge $-1 $307 0 $307 6.2831853071796004 $127 $308 forward 7 unknown #
vertex $-1 $130 $309 #
ellipse-curve $-1 -42.55544912559305 14.682076090418363 2.8025766882274672 -0.79863551827123203 0 0.60181501223851219 0.3009075061192561 0 0.39931775913561601 1 I I #
coedge $-1 $215 $215 $-1 $310 reversed $133 $-1 #
edge $-1 $311 0 $311 6.2831853071796004 $134 $312 forward 7 unknown #
vertex $-1 $137 $313 #
ellipse-curve $-1 -42.55544912559305 17.936099279207433 2.8025766882274672 -0.79863551827123203 0 0.60181501223851219 0.3009075061192561 0 0.39931775913561601 1 I I #
coedge $-1 $219 $219 $-1 $314 reversed $140 $-1 #
edge $-1 $315 0 $315 6.2831853071796004 $141 $316 forward 7 unknown #
vertex $-1 $144 $317 #
ellipse-curve $-1 -42.55544912559305 21.190122467996503 2.8025766882274672 -0.79863551827123203 0 0.60181501223851219 0.3009075061192561 0 0.39931775913561601 1 I I #
face $-1 $-1 $318 $30 $-1 $319 reversed single #
loop $-1 $-1 $151 $145 #
plane-surface $-1 0 0 5.5851143419732612 0 0 1 1 0 0 forward_v I I I I #
coedge $-1 $320 $321 $322 $323 reversed $146 $-1 #
coedge $-1 $324 $148 $150 $233 forward $92 $-1 #
coedge $-1 $148 $324 $320 $325 forward $92 $-1 #
coedge $-1 $322 $151 $148 $230 forward $224 $-1 #
edge $-1 $236 3.7811981377215931 $326 11.626538098290979 $229 $327 forward 7 unknown #
coedge $-1 $328 $329 $149 $232 forward $318 $-1 #
edge $-1 $330 -60.097810864667274 $235 -56.30926696842954 $231 $331 forward 7 unknown #
edge $-1 $236 84.929849531455531 $330 89.304483169041987 $150 $332 forward 7 unknown #
coedge $-1 $151 $322 $328 $333 forward $224 $-1 #
vertex $-1 $232 $334 #
vertex $-1 $152 $335 #
straight-curve $-1 38.669976491728931 -11.48506625572788 5.5851143419732594 -1 0 0 I I #
coedge $-1 $238 $238 $-1 $336 reversed $155 $-1 #
edge $-1 $337 0 $337 6.2831853071796004 $156 $338 forward 7 unknown #
vertex $-1 $159 $339 #
ellipse-curve $-1 43.558583204428928 -15.407736236012573 3.6908423938543811 0.86602541151947299 0 0.49999998660252726 0.49999998660252726 0 -0.86602541151947299 1 I I #
face $-1 $-1 $175 $24 $-1 $340 reversed single #
loop $-1 $-1 $258 $160 #
plane-surface $-1 0 23.359471260522547 0 0 -1 0 0 0 -1 forward_v I I I I #
coedge $-1 $341 $256 $259 $342 forward $161 $-1 #
coedge $-1 $262 $163 $164 $250 reversed $101 $-1 #
coedge $-1 $256 $341 $163 $248 reversed $161 $-1 #
edge $-1 $263 -5.5851143419732612 $343 5.5851143419732612 $247 $344 forward 7 unknown #
coedge $-1 $165 $164 $341 $345 forward $65 $-1 #
edge $-1 $254 -44.652241584521015 $343 44.652241584521015 $246 $346 forward 7 unknown #
coedge $-1 $259 $258 $165 $252 reversed $243 $-1 #
edge $-1 $347 -44.652241584521015 $253 44.652241584521015 $251 $348 forward 7 unknown #
vertex $-1 $167 $349 #
vertex $-1 $265 $350 #
straight-curve $-1 44.652241584521015 0 -5.5851143419732612 0 -1 0 I I #
coedge $-1 $245 $247 $168 $257 reversed $161 $-1 #
edge $-1 $260 -23.359471260522547 $263 23.359471260522547 $256 $351 forward 7 unknown #
coedge $-1 $251 $169 $174 $266 forward $243 $-1 #
coedge $-1 $169 $251 $245 $342 reversed $243 $-1 #
vertex $-1 $170 $352 #
straight-curve $-1 0 23.359471260522547 5.5851143419732612 -1 0 0 I I #
coedge $-1 $171 $246 $173 $265 reversed $101 $-1 #
vertex $-1 $257 $353 #
straight-curve $-1 0 -23.359471260522547 5.5851143419732612 1 0 0 I I #
edge $-1 $176 -5.5851143419732612 $254 5.5851143419732612 $173 $354 forward 7 unknown #
edge $-1 $177 -5.5851143419732612 $253 5.5851143419732612 $174 $355 forward 7 unknown #
point $-1 44.652241584521015 -23.359471260522547 5.5851143419732612 #
point $-1 44.652241584521015 23.359471260522547 5.5851143419732612 #
face $-1 $-1 $356 $25 $-1 $357 reversed single #
loop $-1 $-1 $189 $179 #
plane-surface $-1 0 -23.359471260522547 0 0 1 0 0 0 1 forward_v I I I I #
coedge $-1 $358 $182 $276 $359 forward $109 $-1 #
coedge $-1 $182 $358 $360 $361 forward $109 $-1 #
edge $-1 $362 -44.652241584521015 $277 44.652241584521015 $182 $363 forward 7 unknown #
coedge $-1 $184 $183 $364 $365 reversed $69 $-1 #
coedge $-1 $185 $191 $272 $359 reversed $180 $-1 #
vertex $-1 $359 $366 #
straight-curve $-1 44.652241584521015 -19.33040621629727 -2.0425571709866306 0 0 1 I I #
coedge $-1 $364 $367 $187 $280 forward $356 $-1 #
edge $-1 $285 -12.687001891317593 $281 -8.6579368470923157 $279 $368 forward 7 unknown #
vertex $-1 $280 $369 #
straight-curve $-1 0 -19.33040621629727 -2.5851143419732612 -1 0 0 I I #
coedge $-1 $370 $189 $367 $371 forward $270 $-1 #
coedge $-1 $189 $370 $191 $287 reversed $270 $-1 #
vertex $-1 $371 $372 #
straight-curve $-1 0 -23.359471260522547 -2.5851143419732612 -1 0 0 I I #
edge $-1 $193 2.5851143419732612 $373 5.5851143419732612 $191 $374 forward 7 unknown #
point $-1 44.652241584521015 -19.33040621629727 -2.5851143419732612 #
point $-1 44.652241584521015 -23.359471260522547 -2.5851143419732612 #
plane-surface $-1 0 0 5.5851143419732612 0 0 1 1 0 0 forward_v I I I I #
coedge $-1 $203 $375 $295 $376 forward $196 $-1 #
coedge $-1 $293 $198 $375 $377 reversed $117 $-1 #
coedge $-1 $198 $292 $296 $378 reversed $117 $-1 #
edge $-1 $297 6.4599635544086151 $379 13.428192715488301 $198 $380 forward 7 unknown #
coedge $-1 $200 $199 $291 $376 reversed $73 $-1 #
coedge $-1 $206 $201 $293 $378 forward $207 $-1 #
vertex $-1 $378 $381 #
straight-curve $-1 -40.458656666665085 8.9680496396037164 5.5851143419732621 0 1 0 I I #
coedge $-1 $375 $203 $206 $303 reversed $196 $-1 #
vertex $-1 $204 $382 #
straight-curve $-1 -44.652241584521015 12.512727297892315 26.882408832906361 0 0 1 I I #
straight-curve $-1 -44.652241584521008 12.512727297892315 0.020039034481683871 -0.60181501223851219 0 -0.79863551827123203 I I #
edge $-1 $383 -23.359471260522547 $208 -12.512727297892315 $299 $384 forward 7 unknown #
point $-1 -44.652241584521015 12.512727297892315 5.5851143419732612 #
point $-1 -40.458656666665085 12.512727297892315 5.5851143419732612 #
edge $-1 $385 1 $385 0 $211 $-1 forward 7 unknown #
vertex $-1 $212 $386 #
ellipse-curve $-1 -41.010056372098788 14.682076090418363 1.6380397529423063 -0.79863551827123203 0 0.60181501223851219 0.3009075061192561 0 0.39931775913561601 1 I I #
point $-1 -42.254541619473798 14.682076090418363 3.2018944473630868 #
edge $-1 $387 1 $387 0 $215 $-1 forward 7 unknown #
vertex $-1 $216 $388 #
ellipse-curve $-1 -41.010056372098788 17.936099279207433 1.6380397529423063 -0.79863551827123203 0 0.60181501223851219 0.3009075061192561 0 0.39931775913561601 1 I I #
point $-1 -42.254541619473798 17.936099279207433 3.2018944473630868 #
edge $-1 $389 1 $389 0 $219 $-1 forward 7 unknown #
vertex $-1 $220 $390 #
ellipse-curve $-1 -41.010056372098788 21.190122467996503 1.6380397529423063 -0.79863551827123203 0 0.60181501223851219 0.3009075061192561 0 0.39931775913561601 1 I I #
point $-1 -42.254541619473798 21.190122467996503 3.2018944473630868 #
loop $-1 $-1 $231 $223 #
plane-surface $-1 44.652241584521015 0 0 -1 0 0 0 0 1 forward_v I I I I #
coedge $-1 $321 $226 $228 $325 reversed $146 $-1 #
coedge $-1 $226 $320 $391 $392 reversed $146 $-1 #
coedge $-1 $234 $229 $226 $323 forward $224 $-1 #
edge $-1 $326 3.7949483326078806 $393 5.9822650927920833 $322 $394 forward 7 unknown #
coedge $-1 $228 $227 $329 $395 reversed $92 $-1 #
edge $-1 $396 -89.304483169041987 $326 -84.929849531455531 $320 $397 forward 7 unknown #
vertex $-1 $230 $398 #
straight-curve $-1 42.464924824336819 -7.7038681180062865 5.5851143419732594 0 -1 0 I I #
coedge $-1 $391 $231 $234 $333 reversed $318 $-1 #
coedge $-1 $231 $391 $324 $395 forward $318 $-1 #
vertex $-1 $232 $399 #
straight-curve $-1 44.652241584521015 -11.48506625572788 61.8943813104028 0 0 1 I I #
straight-curve $-1 1.1964543915610193e-006 -11.48506625572788 79.136522232738969 0.49999998660252726 0 -0.86602541151947299 I I #
edge $-1 $393 -19.330406216297266 $235 -11.48506625572788 $328 $400 forward 7 unknown #
point $-1 44.652241584521015 -11.48506625572788 5.5851143419732612 #
point $-1 42.464924824336812 -11.48506625572788 5.5851143419732665 #
edge $-1 $401 1 $401 0 $238 $-1 forward 7 unknown #
vertex $-1 $239 $402 #
ellipse-curve $-1 41.423292850656217 -15.407736236012573 2.4580319773498149 0.86602541151947299 0 0.49999998660252726 0.49999998660252726 0 -0.86602541151947299 1 I I #
point $-1 44.058583191031431 -15.407736236012573 2.8248169823348972 #
plane-surface $-1 44.652241584521015 0 0 -1 0 0 0 0 1 forward_v I I I I #
coedge $-1 $247 $245 $249 $345 reversed $161 $-1 #
edge $-1 $260 -5.5851143419732612 $347 5.5851143419732612 $259 $403 forward 7 unknown #
vertex $-1 $345 $404 #
straight-curve $-1 -44.652241584521015 -23.359471260522547 0 0 0 -1 I I #
edge $-1 $343 -23.359471260522547 $347 23.359471260522547 $341 $405 forward 7 unknown #
straight-curve $-1 0 -23.359471260522547 -5.5851143419732612 -1 0 0 I I #
vertex $-1 $252 $406 #
straight-curve $-1 0 23.359471260522547 -5.5851143419732612 1 0 0 I I #
point $-1 44.652241584521015 23.359471260522547 -5.5851143419732612 #
point $-1 44.652241584521015 -23.359471260522547 -5.5851143419732612 #
straight-curve $-1 -44.652241584521015 0 5.5851143419732612 0 -1 0 I I #
point $-1 -44.652241584521015 23.359471260522547 5.5851143419732612 #
point $-1 -44.652241584521015 -23.359471260522547 5.5851143419732612 #
straight-curve $-1 44.652241584521015 -23.359471260522547 0 0 0 -1 I I #
straight-curve $-1 44.652241584521015 23.359471260522547 0 0 0 -1 I I #
loop $-1 $-1 $364 $269 #
plane-surface $-1 -44.652241584521015 0 0 1 0 0 0 0 -1 forward_v I I I I #
coedge $-1 $273 $272 $370 $407 forward $109 $-1 #
edge $-1 $277 19.33040621629727 $373 23.359471260522547 $276 $408 forward 7 unknown #
coedge $-1 $367 $364 $273 $361 reversed $356 $-1 #
edge $-1 $409 -23.359471260522547 $362 -19.33040621629727 $360 $410 forward 7 unknown #
vertex $-1 $365 $411 #
straight-curve $-1 0 -19.33040621629727 -5.5851143419732612 1 0 0 I I #
coedge $-1 $360 $279 $275 $365 forward $356 $-1 #
edge $-1 $281 0.54255717098663059 $362 3.5425571709866306 $364 $412 forward 7 unknown #
point $-1 44.652241584521015 -19.33040621629727 -5.5851143419732612 #
coedge $-1 $279 $360 $283 $371 reversed $356 $-1 #
straight-curve $-1 -44.652241584521015 -10.672469369204954 -2.5851143419732612 0 1 0 I I #
point $-1 -44.652241584521015 -19.33040621629727 -2.5851143419732612 #
coedge $-1 $284 $283 $358 $407 reversed $270 $-1 #
edge $-1 $285 2.5851143419732612 $409 5.5851143419732612 $367 $413 forward 7 unknown #
point $-1 -44.652241584521015 -23.359471260522547 -2.5851143419732612 #
vertex $-1 $287 $414 #
straight-curve $-1 44.652241584521015 -23.359471260522547 0 0 0 -1 I I #
coedge $-1 $291 $299 $292 $377 forward $196 $-1 #
edge $-1 $379 -14.391421620918834 $300 -3.5446776582885988 $291 $415 forward 7 unknown #
edge $-1 $383 -5.5851143419732612 $379 -0.020039034481674441 $292 $416 forward 7 unknown #
edge $-1 $297 40.458656666665085 $383 44.652241584521015 $293 $417 forward 7 unknown #
vertex $-1 $294 $418 #
straight-curve $-1 -36.570953621108323 23.359471260522547 10.744270683261657 -0.60181501223851219 0 -0.79863551827123203 I I #
point $-1 -40.458656666665085 23.35947126052255 5.5851143419732612 #
point $-1 -44.652241584521015 12.512727297892315 0.020039034481674441 #
vertex $-1 $378 $419 #
straight-curve $-1 -44.652241584521015 0 5.5851143419732612 0 -1 0 I I #
vertex $-1 $306 $420 #
point $-1 -40.709148865979536 14.682076090418363 2.0373575120779224 #
vertex $-1 $310 $421 #
point $-1 -40.709148865979536 17.936099279207433 2.0373575120779224 #
vertex $-1 $314 $422 #
point $-1 -40.709148865979536 21.190122467996503 2.0373575120779224 #
coedge $-1 $329 $328 $321 $392 forward $318 $-1 #
edge $-1 $393 56.30926696842954 $396 60.097810864667274 $391 $423 forward 7 unknown #
vertex $-1 $333 $424 #
straight-curve $-1 38.669976491728931 -19.330406216297266 5.5851143419732594 1 0 0 I I #
edge $-1 $396 -11.626538098290979 $330 -3.7811981377215931 $329 $425 forward 7 unknown #
vertex $-1 $395 $426 #
straight-curve $-1 1.1964543915610193e-006 -19.330406216297266 79.136522232738969 -0.49999998660252726 0 0.86602541151947299 I I #
point $-1 42.464924824336812 -19.330406216297266 5.5851143419732665 #
point $-1 44.652241584521015 -11.48506625572788 1.7965704457355258 #
straight-curve $-1 44.652241584521015 0 5.5851143419732612 0 1 0 I I #
vertex $-1 $336 $427 #
point $-1 41.923292837258742 -15.407736236012573 1.5920065658303417 #
straight-curve $-1 -44.652241584521015 23.359471260522547 0 0 0 -1 I I #
point $-1 -44.652241584521015 -23.359471260522547 -5.5851143419732612 #
straight-curve $-1 -44.652241584521015 0 -5.5851143419732612 0 1 0 I I #
point $-1 -44.652241584521015 23.359471260522547 -5.5851143419732612 #
edge $-1 $373 -44.652241584521015 $409 44.652241584521015 $370 $428 forward 7 unknown #
straight-curve $-1 44.652241584521015 0 -5.5851143419732612 0 -1 0 I I #
vertex $-1 $361 $429 #
straight-curve $-1 -44.652241584521015 0 -5.5851143419732612 0 1 0 I I #
point $-1 -44.652241584521015 -19.33040621629727 -5.5851143419732612 #
straight-curve $-1 -44.652241584521015 -19.33040621629727 -2.0425571709866306 0 0 -1 I I #
straight-curve $-1 -44.652241584521015 -23.359471260522547 0 0 0 -1 I I #
point $-1 44.652241584521015 -23.359471260522547 -5.5851143419732612 #
straight-curve $-1 -44.652241584521015 8.9680496396037164 0.020039034481673396 0 -1 0 I I #
straight-curve $-1 -44.652241584521015 23.359471260522547 0 0 0 -1 I I #
straight-curve $-1 0 23.359471260522547 5.5851143419732612 -1 0 0 I I #
point $-1 -44.652241584521015 23.35947126052255 0.020039034481674441 #
point $-1 -44.652241584521015 23.359471260522547 5.5851143419732612 #
point $-1 -40.610738612963175 14.682076090418363 1.33713224682305 #
point $-1 -40.610738612963175 17.936099279207433 1.33713224682305 #
point $-1 -40.610738612963175 21.190122467996503 1.33713224682305 #
straight-curve $-1 44.652241584521015 -19.330406216297266 61.8943813104028 0 0 -1 I I #
point $-1 44.652241584521015 -19.330406216297266 5.5851143419732612 #
straight-curve $-1 44.652241584521015 -7.7038681180062865 1.7965704457355116 0 1 0 I I #
point $-1 44.652241584521015 -19.330406216297266 1.7965704457355258 #
point $-1 40.557267439136744 -15.407736236012573 1.9580319907472876 #
straight-curve $-1 0 -23.359471260522547 -5.5851143419732612 -1 0 0 I I #
point $-1 -44.652241584521015 -23.359471260522547 -5.5851143419732612 #
End-of-ACIS-data 