500 0 14 0           
7 Unknown 11 ACIS 5.0 NT 24 Fri Mar 26 20:27:37 1999 
-1 9.9999999999999995e-007 1e-010 
body $-1 $14 $-1 $15 #
body $-1 $16 $-1 $17 #
body $-1 $18 $-1 $19 #
body $-1 $20 $-1 $21 #
body $-1 $22 $-1 $23 #
body $-1 $24 $-1 $25 #
body $-1 $26 $-1 $27 #
body $-1 $28 $-1 $29 #
body $-1 $30 $-1 $31 #
body $-1 $32 $-1 $33 #
body $-1 $34 $-1 $35 #
body $-1 $36 $-1 $37 #
body $-1 $38 $-1 $39 #
body $-1 $40 $-1 $41 #
lump $-1 $-1 $42 $0 #
transform $-1 1 0 0 0 1 0 0 0 1 54.175237281411171 25.58555244391729 7.3000850963904886 1 rotate no_reflect no_shear #
lump $-1 $-1 $43 $1 #
transform $-1 1 0 0 0 1 0 0 0 1 54.175237281411171 25.58555244391729 7.3000850963904886 1 rotate no_reflect no_shear #
lump $-1 $-1 $44 $2 #
transform $-1 1 0 0 0 1 0 0 0 1 54.175237281411171 25.58555244391729 7.3000850963904886 1 rotate no_reflect no_shear #
lump $-1 $-1 $45 $3 #
transform $-1 1 0 0 0 1 0 0 0 1 54.175237281411171 25.58555244391729 7.3000850963904886 1 rotate no_reflect no_shear #
lump $-1 $-1 $46 $4 #
transform $-1 1 0 0 0 1 0 0 0 1 54.175237281411171 25.58555244391729 7.3000850963904886 1 rotate no_reflect no_shear #
lump $-1 $-1 $47 $5 #
transform $-1 1 0 0 0 1 0 0 0 1 54.175237281411171 25.58555244391729 7.3000850963904886 1 rotate no_reflect no_shear #
lump $-1 $-1 $48 $6 #
transform $-1 1 0 0 0 1 0 0 0 1 54.175237281411171 25.58555244391729 7.3000850963904886 1 rotate no_reflect no_shear #
lump $-1 $-1 $49 $7 #
transform $-1 1 0 0 0 1 0 0 0 1 54.175237281411171 25.58555244391729 7.3000850963904886 1 rotate no_reflect no_shear #
lump $-1 $-1 $50 $8 #
transform $-1 1 0 0 0 1 0 0 0 1 54.175237281411171 25.58555244391729 7.3000850963904886 1 rotate no_reflect no_shear #
lump $-1 $-1 $51 $9 #
transform $-1 1 0 0 0 1 0 0 0 1 54.175237281411171 25.58555244391729 7.3000850963904886 1 rotate no_reflect no_shear #
lump $-1 $-1 $52 $10 #
transform $-1 1 0 0 0 1 0 0 0 1 54.175237281411171 25.58555244391729 7.3000850963904886 1 rotate no_reflect no_shear #
lump $-1 $-1 $53 $11 #
transform $-1 1 0 0 0 1 0 0 0 1 54.175237281411171 25.58555244391729 7.3000850963904886 1 rotate no_reflect no_shear #
lump $-1 $-1 $54 $12 #
transform $-1 1 0 0 0 1 0 0 0 1 54.175237281411171 25.58555244391729 7.3000850963904886 1 rotate no_reflect no_shear #
lump $-1 $-1 $55 $13 #
transform $-1 1 0 0 0 1 0 0 0 1 54.175237281411171 25.58555244391729 7.3000850963904886 1 rotate no_reflect no_shear #
shell $-1 $-1 $-1 $56 $-1 $14 #
shell $-1 $-1 $-1 $57 $-1 $16 #
shell $-1 $-1 $-1 $58 $-1 $18 #
shell $-1 $-1 $-1 $59 $-1 $20 #
shell $-1 $-1 $-1 $60 $-1 $22 #
shell $-1 $-1 $-1 $61 $-1 $24 #
shell $-1 $-1 $-1 $62 $-1 $26 #
shell $-1 $-1 $-1 $63 $-1 $28 #
shell $-1 $-1 $-1 $64 $-1 $30 #
shell $-1 $-1 $-1 $65 $-1 $32 #
shell $-1 $-1 $-1 $66 $-1 $34 #
shell $-1 $-1 $-1 $67 $-1 $36 #
shell $-1 $-1 $-1 $68 $-1 $38 #
shell $-1 $-1 $-1 $69 $-1 $40 #
face $-1 $70 $71 $42 $-1 $72 forward single #
face $-1 $73 $74 $43 $-1 $75 forward single #
face $-1 $76 $77 $44 $-1 $78 forward single #
face $-1 $79 $80 $45 $-1 $81 reversed single #
face $-1 $82 $83 $46 $-1 $84 forward single #
face $-1 $85 $86 $47 $-1 $87 forward single #
face $-1 $88 $89 $48 $-1 $90 reversed single #
face $-1 $91 $92 $49 $-1 $93 forward single #
face $-1 $94 $95 $50 $-1 $96 forward single #
face $-1 $97 $98 $51 $-1 $99 forward single #
face $-1 $100 $101 $52 $-1 $102 reversed single #
face $-1 $103 $104 $53 $-1 $105 forward single #
face $-1 $106 $107 $54 $-1 $108 forward single #
face $-1 $109 $110 $55 $-1 $111 forward single #
face $-1 $112 $113 $42 $-1 $114 reversed single #
loop $-1 $-1 $115 $56 #
plane-surface $-1 0 0 7.3000850963904886 0 0 1 1 0 0 forward_v I I I I #
face $-1 $116 $117 $43 $-1 $118 reversed single #
loop $-1 $-1 $119 $57 #
plane-surface $-1 -54.175237281411171 0 0 1 0 0 0 0 -1 forward_v I I I I #
face $-1 $120 $121 $44 $-1 $122 reversed single #
loop $-1 $-1 $123 $58 #
plane-surface $-1 51.557265512096563 0 -1.6668850507987372 0 0 1 1 0 0 forward_v I I I I #
face $-1 $124 $125 $45 $-1 $126 reversed single #
loop $-1 $-1 $127 $59 #
plane-surface $-1 4.5738331722888859 -110.96689245218272 66.992641885223122 -1 0 0 0 -0.78801076186113728 0.61566146476048833 forward_v I I I I #
face $-1 $128 $129 $46 $-1 $130 forward single #
loop $-1 $131 $132 $60 #
cone-surface $-1 -14.868386818534397 -22.004229182761488 3.1356192150569937 0 0.78801076186113728 -0.61566146476048833 1 0 0 1 I I 0 1 1 forward I I I I #
face $-1 $133 $134 $47 $-1 $135 forward single #
loop $-1 $136 $137 $61 #
cone-surface $-1 -3.2030548240404215 -22.004229182761488 3.1356192150569937 0 0.78801076186113728 -0.61566146476048833 1 0 0 1 I I 0 1 1 forward I I I I #
face $-1 $138 $139 $48 $-1 $140 reversed single #
loop $-1 $-1 $141 $62 #
plane-surface $-1 -28.554251263819214 45.815917409022916 120.46600097348529 1 0 0 0 -0.57357644374324357 -0.81915203911291934 forward_v I I I I #
face $-1 $142 $143 $49 $-1 $144 forward single #
loop $-1 $145 $146 $63 #
cone-surface $-1 -25.602318590562607 21.002387297097023 3.3225465189483319 0 -0.57357644374324357 -0.81915203911291934 1 0 0 1 I I 0 1 1 forward I I I I #
face $-1 $147 $148 $50 $-1 $149 forward single #
loop $-1 $150 $151 $64 #
cone-surface $-1 -21.174419580677707 21.002387297097023 3.3225465189483319 0 -0.57357644374324357 -0.81915203911291934 1 0 0 1 I I 0 1 1 forward I I I I #
face $-1 $152 $153 $51 $-1 $154 forward single #
loop $-1 $155 $156 $65 #
cone-surface $-1 -16.746520570792804 21.002387297097023 3.3225465189483319 0 -0.57357644374324357 -0.81915203911291934 1 0 0 1 I I 0 1 1 forward I I I I #
face $-1 $157 $158 $52 $-1 $159 reversed single #
loop $-1 $-1 $160 $66 #
plane-surface $-1 19.667928922336753 45.815917409022916 120.46600097348529 1 0 0 0 -0.57357644374324357 -0.81915203911291934 forward_v I I I I #
face $-1 $161 $162 $53 $-1 $163 forward single #
loop $-1 $164 $165 $67 #
cone-surface $-1 22.619861595593363 21.002387297097023 3.3225465189483319 0 -0.57357644374324357 -0.81915203911291934 1 0 0 1 I I 0 1 1 forward I I I I #
face $-1 $166 $167 $54 $-1 $168 forward single #
loop $-1 $169 $170 $68 #
cone-surface $-1 27.04776060547826 21.002387297097023 3.3225465189483319 0 -0.57357644374324357 -0.81915203911291934 1 0 0 1 I I 0 1 1 forward I I I I #
face $-1 $171 $172 $55 $-1 $173 forward single #
loop $-1 $174 $175 $69 #
cone-surface $-1 31.47565961536317 21.002387297097023 3.3225465189483319 0 -0.57357644374324357 -0.81915203911291934 1 0 0 1 I I 0 1 1 forward I I I I #
face $-1 $176 $177 $42 $-1 $178 reversed single #
loop $-1 $-1 $179 $70 #
plane-surface $-1 0 0 -7.3000850963904886 0 0 1 1 0 0 forward_v I I I I #
coedge $-1 $180 $181 $182 $183 forward $71 $-1 #
face $-1 $184 $185 $43 $-1 $186 forward single #
loop $-1 $-1 $187 $73 #
plane-surface $-1 0 25.58555244391729 0 0 -1 0 0 0 -1 forward_v I I I I #
coedge $-1 $188 $189 $190 $191 forward $74 $-1 #
face $-1 $192 $193 $44 $-1 $194 reversed single #
loop $-1 $-1 $195 $76 #
plane-surface $-1 51.557265512096563 0 -4.6668850507987374 0 0 1 1 0 0 forward_v I I I I #
coedge $-1 $196 $197 $198 $199 reversed $77 $-1 #
face $-1 $200 $201 $45 $-1 $202 reversed single #
loop $-1 $-1 $203 $79 #
plane-surface $-1 -9.0357208212874127 -25.585552443917308 0.28543000838189414 0 -0.78801076186113728 0.61566146476048833 1 0 0 forward_v I I I I #
coedge $-1 $204 $205 $206 $207 reversed $80 $-1 #
face $-1 $-1 $208 $46 $-1 $209 forward single #
loop $-1 $210 $211 $82 #
cone-surface $-1 -14.868386818534397 -20.769125062528808 2.1706501453475555 0 0.78801076186113728 -0.61566146476048833 0.5 0 0 1 I I -0.70710678118654746 0.70710678118654746 0.5 forward I I I I #
loop $-1 $-1 $212 $60 #
coedge $-1 $132 $132 $213 $214 reversed $83 $-1 #
face $-1 $-1 $215 $47 $-1 $216 forward single #
loop $-1 $217 $218 $85 #
cone-surface $-1 -3.2030548240404215 -20.769125062528808 2.1706501453475555 0 0.78801076186113728 -0.61566146476048833 0.5 0 0 1 I I -0.70710678118654746 0.70710678118654746 0.5 forward I I I I #
loop $-1 $-1 $219 $61 #
coedge $-1 $137 $137 $220 $221 reversed $86 $-1 #
face $-1 $222 $223 $48 $-1 $224 reversed single #
loop $-1 $-1 $225 $88 #
plane-surface $-1 -21.174419580677707 -16.331362468613499 31.710488796496875 0 0.57357644374324357 0.81915203911291934 1 0 0 forward_v I I I I #
coedge $-1 $226 $227 $228 $229 reversed $89 $-1 #
face $-1 $-1 $230 $49 $-1 $231 forward single #
loop $-1 $232 $233 $91 #
cone-surface $-1 -25.602318590562607 19.660057025421043 1.40550025388485 0 -0.57357644374324357 -0.81915203911291934 0.5 0 0 1 I I -0.70710678118654746 0.70710678118654746 0.5 forward I I I I #
loop $-1 $-1 $234 $63 #
coedge $-1 $146 $146 $235 $236 reversed $92 $-1 #
face $-1 $-1 $237 $50 $-1 $238 forward single #
loop $-1 $239 $240 $94 #
cone-surface $-1 -21.174419580677707 19.660057025421043 1.40550025388485 0 -0.57357644374324357 -0.81915203911291934 0.5 0 0 1 I I -0.70710678118654746 0.70710678118654746 0.5 forward I I I I #
loop $-1 $-1 $241 $64 #
coedge $-1 $151 $151 $242 $243 reversed $95 $-1 #
face $-1 $-1 $244 $51 $-1 $245 forward single #
loop $-1 $246 $247 $97 #
cone-surface $-1 -16.746520570792804 19.660057025421043 1.40550025388485 0 -0.57357644374324357 -0.81915203911291934 0.5 0 0 1 I I -0.70710678118654746 0.70710678118654746 0.5 forward I I I I #
loop $-1 $-1 $248 $65 #
coedge $-1 $156 $156 $249 $250 reversed $98 $-1 #
face $-1 $251 $252 $52 $-1 $253 reversed single #
loop $-1 $-1 $254 $100 #
plane-surface $-1 27.04776060547826 -16.331362468613499 31.710488796496875 0 0.57357644374324357 0.81915203911291934 1 0 0 forward_v I I I I #
coedge $-1 $255 $256 $257 $258 reversed $101 $-1 #
face $-1 $-1 $259 $53 $-1 $260 forward single #
loop $-1 $261 $262 $103 #
cone-surface $-1 22.619861595593363 19.660057025421043 1.40550025388485 0 -0.57357644374324357 -0.81915203911291934 0.5 0 0 1 I I -0.70710678118654746 0.70710678118654746 0.5 forward I I I I #
loop $-1 $-1 $263 $67 #
coedge $-1 $165 $165 $264 $265 reversed $104 $-1 #
face $-1 $-1 $266 $54 $-1 $267 forward single #
loop $-1 $268 $269 $106 #
cone-surface $-1 27.04776060547826 19.660057025421043 1.40550025388485 0 -0.57357644374324357 -0.81915203911291934 0.5 0 0 1 I I -0.70710678118654746 0.70710678118654746 0.5 forward I I I I #
loop $-1 $-1 $270 $68 #
coedge $-1 $170 $170 $271 $272 reversed $107 $-1 #
face $-1 $-1 $273 $55 $-1 $274 forward single #
loop $-1 $275 $276 $109 #
cone-surface $-1 31.47565961536317 19.660057025421043 1.40550025388485 0 -0.57357644374324357 -0.81915203911291934 0.5 0 0 1 I I -0.70710678118654746 0.70710678118654746 0.5 forward I I I I #
loop $-1 $-1 $277 $69 #
coedge $-1 $175 $175 $278 $279 reversed $110 $-1 #
face $-1 $280 $281 $42 $-1 $282 reversed single #
loop $-1 $-1 $283 $112 #
plane-surface $-1 0 -25.58555244391729 0 0 1 0 0 0 1 forward_v I I I I #
coedge $-1 $284 $285 $286 $287 forward $113 $-1 #
coedge $-1 $288 $115 $289 $290 forward $71 $-1 #
coedge $-1 $115 $288 $291 $292 forward $71 $-1 #
coedge $-1 $293 $294 $115 $183 reversed $295 $-1 #
edge $-1 $296 -25.58555244391729 $297 25.58555244391729 $182 $298 forward 7 unknown #
face $-1 $299 $300 $43 $-1 $301 reversed single #
loop $-1 $-1 $190 $116 #
plane-surface $-1 -57.51032260735176 0 6.8000850963904877 0 0 1 1 0 0 forward_v I I I I #
coedge $-1 $302 $303 $189 $304 forward $117 $-1 #
coedge $-1 $305 $119 $306 $307 reversed $74 $-1 #
coedge $-1 $119 $305 $187 $304 reversed $74 $-1 #
coedge $-1 $308 $309 $119 $191 reversed $185 $-1 #
edge $-1 $310 -25.58555244391729 $311 25.58555244391729 $190 $312 forward 7 unknown #
face $-1 $313 $314 $44 $-1 $315 reversed single #
loop $-1 $-1 $316 $120 #
plane-surface $-1 48.939293742781956 0 -3.1668850507987374 1 0 0 0 0 -1 forward_v I I I I #
coedge $-1 $317 $318 $319 $320 reversed $121 $-1 #
coedge $-1 $321 $123 $322 $323 reversed $77 $-1 #
coedge $-1 $123 $321 $324 $325 reversed $77 $-1 #
coedge $-1 $326 $327 $123 $199 forward $328 $-1 #
edge $-1 $329 -25.58555244391729 $330 25.58555244391729 $198 $331 forward 7 unknown #
face $-1 $332 $333 $45 $-1 $334 forward single #
loop $-1 $-1 $335 $124 #
plane-surface $-1 -22.645274814863711 -110.96689245218272 66.992641885223122 1 0 0 0 0.78801076186113728 -0.61566146476048833 forward_v I I I I #
coedge $-1 $336 $337 $338 $339 reversed $125 $-1 #
coedge $-1 $205 $127 $340 $341 reversed $80 $-1 #
coedge $-1 $127 $204 $336 $342 reversed $80 $-1 #
coedge $-1 $338 $343 $127 $207 forward $333 $-1 #
edge $-1 $344 29.897893782174069 $345 35.378342825881418 $206 $346 forward 7 unknown #
loop $-1 $-1 $213 $128 #
plane-surface $-1 -9.0357208212874127 -25.585552443917308 0.28543000838189414 0 -0.78801076186113728 0.61566146476048833 1 0 0 forward_v I I I I #
loop $-1 $-1 $347 $82 #
coedge $-1 $211 $211 $212 $348 reversed $129 $-1 #
coedge $-1 $212 $212 $211 $348 forward $131 $-1 #
coedge $-1 $213 $213 $132 $214 forward $208 $-1 #
edge $-1 $349 -1.3993895915997323e-015 $349 6.2831853071795987 $213 $350 forward 7 unknown #
loop $-1 $-1 $220 $133 #
plane-surface $-1 -9.0357208212874127 -25.585552443917308 0.28543000838189414 0 -0.78801076186113728 0.61566146476048833 1 0 0 forward_v I I I I #
loop $-1 $-1 $351 $85 #
coedge $-1 $218 $218 $219 $352 reversed $134 $-1 #
coedge $-1 $219 $219 $218 $352 forward $136 $-1 #
coedge $-1 $220 $220 $137 $221 forward $215 $-1 #
edge $-1 $353 -1.3993895915997323e-015 $353 6.2831853071795987 $220 $354 forward 7 unknown #
face $-1 $355 $356 $48 $-1 $357 reversed single #
loop $-1 $-1 $358 $138 #
plane-surface $-1 -13.7945878975362 45.815917409022916 120.46600097348529 -1 0 0 0 0.57357644374324357 0.81915203911291934 forward_v I I I I #
coedge $-1 $359 $360 $361 $362 reversed $139 $-1 #
coedge $-1 $227 $141 $363 $364 reversed $89 $-1 #
coedge $-1 $141 $226 $359 $365 reversed $89 $-1 #
coedge $-1 $361 $366 $141 $229 forward $367 $-1 #
edge $-1 $368 -2.6775937394058325 $369 4.3776524546260234 $228 $370 forward 7 unknown #
loop $-1 $-1 $235 $142 #
plane-surface $-1 -21.174419580677707 -16.331362468613499 31.710488796496875 0 0.57357644374324357 0.81915203911291934 1 0 0 forward_v I I I I #
loop $-1 $-1 $371 $91 #
coedge $-1 $233 $233 $234 $372 reversed $143 $-1 #
coedge $-1 $234 $234 $233 $372 forward $145 $-1 #
coedge $-1 $235 $235 $146 $236 forward $230 $-1 #
edge $-1 $373 2.8339842261038448e-015 $373 6.2831853071796031 $235 $374 forward 7 unknown #
loop $-1 $-1 $242 $147 #
plane-surface $-1 -21.174419580677707 -16.331362468613499 31.710488796496875 0 0.57357644374324357 0.81915203911291934 1 0 0 forward_v I I I I #
loop $-1 $-1 $375 $94 #
coedge $-1 $240 $240 $241 $376 reversed $148 $-1 #
coedge $-1 $241 $241 $240 $376 forward $150 $-1 #
coedge $-1 $242 $242 $151 $243 forward $237 $-1 #
edge $-1 $377 2.8339842261038448e-015 $377 6.2831853071796031 $242 $378 forward 7 unknown #
loop $-1 $-1 $249 $152 #
plane-surface $-1 -21.174419580677707 -16.331362468613499 31.710488796496875 0 0.57357644374324357 0.81915203911291934 1 0 0 forward_v I I I I #
loop $-1 $-1 $379 $97 #
coedge $-1 $247 $247 $248 $380 reversed $153 $-1 #
coedge $-1 $248 $248 $247 $380 forward $155 $-1 #
coedge $-1 $249 $249 $156 $250 forward $244 $-1 #
edge $-1 $381 2.8339842261038448e-015 $381 6.2831853071796031 $249 $382 forward 7 unknown #
face $-1 $383 $384 $52 $-1 $385 forward single #
loop $-1 $-1 $386 $157 #
plane-surface $-1 34.427592288619763 45.815917409022916 120.46600097348529 -1 0 0 0 0.57357644374324357 0.81915203911291934 forward_v I I I I #
coedge $-1 $387 $388 $389 $390 reversed $158 $-1 #
coedge $-1 $256 $160 $391 $392 reversed $101 $-1 #
coedge $-1 $160 $255 $387 $393 reversed $101 $-1 #
coedge $-1 $389 $394 $160 $258 forward $384 $-1 #
edge $-1 $395 -2.6775937394058325 $396 4.3776524546260234 $257 $397 forward 7 unknown #
loop $-1 $-1 $264 $161 #
plane-surface $-1 27.04776060547826 -16.331362468613499 31.710488796496875 0 0.57357644374324357 0.81915203911291934 1 0 0 forward_v I I I I #
loop $-1 $-1 $398 $103 #
coedge $-1 $262 $262 $263 $399 reversed $162 $-1 #
coedge $-1 $263 $263 $262 $399 forward $164 $-1 #
coedge $-1 $264 $264 $165 $265 forward $259 $-1 #
edge $-1 $400 2.8339842261038448e-015 $400 6.2831853071796031 $264 $401 forward 7 unknown #
loop $-1 $-1 $271 $166 #
plane-surface $-1 27.04776060547826 -16.331362468613499 31.710488796496875 0 0.57357644374324357 0.81915203911291934 1 0 0 forward_v I I I I #
loop $-1 $-1 $402 $106 #
coedge $-1 $269 $269 $270 $403 reversed $167 $-1 #
coedge $-1 $270 $270 $269 $403 forward $169 $-1 #
coedge $-1 $271 $271 $170 $272 forward $266 $-1 #
edge $-1 $404 2.8339842261038448e-015 $404 6.2831853071796031 $271 $405 forward 7 unknown #
loop $-1 $-1 $278 $171 #
plane-surface $-1 27.04776060547826 -16.331362468613499 31.710488796496875 0 0.57357644374324357 0.81915203911291934 1 0 0 forward_v I I I I #
loop $-1 $-1 $406 $109 #
coedge $-1 $276 $276 $277 $407 reversed $172 $-1 #
coedge $-1 $277 $277 $276 $407 forward $174 $-1 #
coedge $-1 $278 $278 $175 $279 forward $273 $-1 #
edge $-1 $408 2.8339842261038448e-015 $408 6.2831853071796031 $278 $409 forward 7 unknown #
face $-1 $410 $411 $42 $-1 $412 reversed single #
loop $-1 $-1 $413 $176 #
plane-surface $-1 -54.175237281411171 0 0 1 0 0 0 0 -1 forward_v I I I I #
coedge $-1 $414 $291 $413 $415 forward $177 $-1 #
coedge $-1 $416 $179 $414 $417 forward $113 $-1 #
coedge $-1 $179 $416 $418 $419 forward $113 $-1 #
coedge $-1 $294 $293 $179 $287 reversed $295 $-1 #
edge $-1 $420 -25.58555244391729 $421 25.58555244391729 $286 $422 forward 7 unknown #
coedge $-1 $181 $180 $423 $424 forward $71 $-1 #
coedge $-1 $425 $426 $180 $290 reversed $411 $-1 #
edge $-1 $297 -54.175237281411171 $427 54.175237281411171 $289 $428 forward 7 unknown #
coedge $-1 $283 $429 $181 $292 reversed $177 $-1 #
edge $-1 $430 -54.175237281411171 $296 54.175237281411171 $291 $431 forward 7 unknown #
coedge $-1 $286 $182 $429 $432 forward $295 $-1 #
coedge $-1 $182 $286 $425 $433 reversed $295 $-1 #
loop $-1 $-1 $293 $410 #
vertex $-1 $183 $434 #
vertex $-1 $183 $435 #
straight-curve $-1 54.175237281411171 0 7.3000850963904886 0 1 0 I I #
face $-1 $436 $437 $43 $-1 $438 reversed single #
loop $-1 $-1 $439 $184 #
plane-surface $-1 -57.51032260735176 0 3.3872000720792634 0 0 1 1 0 0 forward_v I I I I #
coedge $-1 $440 $187 $441 $442 reversed $117 $-1 #
coedge $-1 $187 $440 $308 $443 reversed $117 $-1 #
edge $-1 $310 -6.8000850963904877 $444 -3.3872000720792634 $187 $445 forward 7 unknown #
coedge $-1 $189 $188 $439 $446 forward $74 $-1 #
coedge $-1 $447 $448 $188 $307 forward $449 $-1 #
edge $-1 $450 3.3872000720792634 $311 6.8000850963904877 $306 $451 forward 7 unknown #
coedge $-1 $452 $190 $303 $443 forward $185 $-1 #
coedge $-1 $190 $452 $447 $453 forward $185 $-1 #
vertex $-1 $304 $454 #
vertex $-1 $453 $455 #
straight-curve $-1 -54.175237281411171 0 6.8000850963904877 0 -1 0 I I #
face $-1 $456 $457 $44 $-1 $458 reversed single #
loop $-1 $-1 $324 $192 #
plane-surface $-1 0 -25.58555244391729 0 0 1 0 0 0 1 forward_v I I I I #
coedge $-1 $459 $460 $461 $462 reversed $193 $-1 #
coedge $-1 $463 $195 $464 $465 reversed $121 $-1 #
coedge $-1 $195 $463 $466 $467 reversed $121 $-1 #
coedge $-1 $327 $326 $195 $320 forward $328 $-1 #
edge $-1 $468 -25.58555244391729 $469 25.58555244391729 $319 $470 forward 7 unknown #
coedge $-1 $197 $196 $460 $471 forward $77 $-1 #
coedge $-1 $472 $461 $196 $323 forward $457 $-1 #
edge $-1 $473 23.160660986733674 $329 28.396604525362889 $322 $474 forward 7 unknown #
coedge $-1 $475 $476 $197 $325 forward $314 $-1 #
edge $-1 $330 -28.396604525362889 $477 -23.160660986733674 $324 $478 forward 7 unknown #
coedge $-1 $319 $198 $476 $479 forward $328 $-1 #
coedge $-1 $198 $319 $472 $480 reversed $328 $-1 #
loop $-1 $-1 $198 $456 #
vertex $-1 $480 $481 #
vertex $-1 $479 $482 #
straight-curve $-1 54.175237281411171 0 -1.6668850507987372 0 -1 0 I I #
face $-1 $-1 $483 $45 $-1 $484 reversed single #
loop $-1 $-1 $206 $200 #
plane-surface $-1 0 0 7.3000850963904886 0 0 1 1 0 0 forward_v I I I I #
coedge $-1 $485 $486 $487 $488 reversed $201 $-1 #
coedge $-1 $489 $203 $205 $342 forward $125 $-1 #
coedge $-1 $203 $489 $485 $490 forward $125 $-1 #
coedge $-1 $487 $206 $203 $339 forward $333 $-1 #
edge $-1 $345 -9.0916935829325922 $491 18.127414404220005 $338 $492 forward 7 unknown #
coedge $-1 $493 $494 $204 $341 forward $483 $-1 #
edge $-1 $495 -33.210890934229646 $344 -26.196235846221072 $340 $496 forward 7 unknown #
edge $-1 $345 -8.9017249858888512 $495 -2.8871132211972939e-014 $205 $497 forward 7 unknown #
coedge $-1 $206 $487 $493 $498 forward $333 $-1 #
vertex $-1 $341 $499 #
vertex $-1 $207 $500 #
straight-curve $-1 4.5738331722888859 -55.48344622609136 7.3000850963904895 0 1 0 I I #
coedge $-1 $347 $347 $-1 $501 reversed $210 $-1 #
edge $-1 $502 0 $502 6.2831853071796004 $211 $503 forward 7 unknown #
vertex $-1 $214 $504 #
ellipse-curve $-1 -14.868386818534397 -22.845327922063618 3.7927575523862003 0 -0.78801076186113728 0.61566146476048833 1 0 0 1 I I #
coedge $-1 $351 $351 $-1 $505 reversed $217 $-1 #
edge $-1 $506 0 $506 6.2831853071796004 $218 $507 forward 7 unknown #
vertex $-1 $221 $508 #
ellipse-curve $-1 -3.2030548240404215 -22.845327922063618 3.7927575523862003 0 -0.78801076186113728 0.61566146476048833 1 0 0 1 I I #
face $-1 $-1 $367 $48 $-1 $509 forward single #
loop $-1 $-1 $510 $222 #
plane-surface $-1 0 25.58555244391729 0 0 -1 0 0 0 -1 forward_v I I I I #
coedge $-1 $511 $512 $513 $514 reversed $223 $-1 #
coedge $-1 $515 $225 $227 $365 forward $139 $-1 #
coedge $-1 $225 $515 $511 $516 forward $139 $-1 #
coedge $-1 $513 $228 $225 $362 forward $367 $-1 #
edge $-1 $369 -17.967041473480361 $517 -3.2073781071973464 $361 $518 forward 7 unknown #
coedge $-1 $519 $520 $226 $364 forward $356 $-1 #
edge $-1 $521 -57.873052054222455 $368 -52.932915390352157 $363 $522 forward 7 unknown #
edge $-1 $369 42.558239562281408 $521 51.171104887834602 $227 $523 forward 7 unknown #
coedge $-1 $228 $513 $519 $524 forward $367 $-1 #
loop $-1 $-1 $513 $355 #
vertex $-1 $364 $525 #
vertex $-1 $229 $526 #
straight-curve $-1 -28.554251263819214 22.907958704511458 7.3000850963904895 0 -1 0 I I #
coedge $-1 $371 $371 $-1 $527 reversed $232 $-1 #
edge $-1 $528 0 $528 6.2831853071796004 $233 $529 forward 7 unknown #
vertex $-1 $236 $530 #
ellipse-curve $-1 -25.602318590562607 22.057929346901368 4.8300167644553342 0 0.57357644374324357 0.81915203911291934 1 0 0 1 I I #
coedge $-1 $375 $375 $-1 $531 reversed $239 $-1 #
edge $-1 $532 0 $532 6.2831853071796004 $240 $533 forward 7 unknown #
vertex $-1 $243 $534 #
ellipse-curve $-1 -21.174419580677707 22.057929346901368 4.8300167644553342 0 0.57357644374324357 0.81915203911291934 1 0 0 1 I I #
coedge $-1 $379 $379 $-1 $535 reversed $246 $-1 #
edge $-1 $536 0 $536 6.2831853071796004 $247 $537 forward 7 unknown #
vertex $-1 $250 $538 #
ellipse-curve $-1 -16.746520570792804 22.057929346901368 4.8300167644553342 0 0.57357644374324357 0.81915203911291934 1 0 0 1 I I #
face $-1 $-1 $539 $52 $-1 $540 reversed single #
loop $-1 $-1 $257 $251 #
plane-surface $-1 0 0 7.3000850963904886 0 0 1 1 0 0 forward_v I I I I #
coedge $-1 $541 $542 $543 $544 reversed $252 $-1 #
coedge $-1 $545 $254 $256 $393 forward $158 $-1 #
coedge $-1 $254 $545 $541 $546 forward $158 $-1 #
coedge $-1 $543 $257 $254 $390 forward $384 $-1 #
edge $-1 $396 6.1440486195976227 $547 20.903711985880634 $389 $548 forward 7 unknown #
coedge $-1 $549 $550 $255 $392 forward $539 $-1 #
edge $-1 $551 -57.873052054222455 $395 -52.932915390352157 $391 $552 forward 7 unknown #
edge $-1 $396 42.558239562281408 $551 51.171104887834602 $256 $553 forward 7 unknown #
coedge $-1 $257 $543 $549 $554 forward $384 $-1 #
vertex $-1 $392 $555 #
vertex $-1 $258 $556 #
straight-curve $-1 19.667928922336753 22.907958704511458 7.3000850963904895 0 -1 0 I I #
coedge $-1 $398 $398 $-1 $557 reversed $261 $-1 #
edge $-1 $558 0 $558 6.2831853071796004 $262 $559 forward 7 unknown #
vertex $-1 $265 $560 #
ellipse-curve $-1 22.619861595593363 22.057929346901368 4.8300167644553342 0 0.57357644374324357 0.81915203911291934 1 0 0 1 I I #
coedge $-1 $402 $402 $-1 $561 reversed $268 $-1 #
edge $-1 $562 0 $562 6.2831853071796004 $269 $563 forward 7 unknown #
vertex $-1 $272 $564 #
ellipse-curve $-1 27.04776060547826 22.057929346901368 4.8300167644553342 0 0.57357644374324357 0.81915203911291934 1 0 0 1 I I #
coedge $-1 $406 $406 $-1 $565 reversed $275 $-1 #
edge $-1 $566 0 $566 6.2831853071796004 $276 $567 forward 7 unknown #
vertex $-1 $279 $568 #
ellipse-curve $-1 31.47565961536317 22.057929346901368 4.8300167644553342 0 0.57357644374324357 0.81915203911291934 1 0 0 1 I I #
face $-1 $-1 $295 $42 $-1 $569 reversed single #
loop $-1 $-1 $425 $280 #
plane-surface $-1 0 25.58555244391729 0 0 -1 0 0 0 -1 forward_v I I I I #
coedge $-1 $423 $570 $283 $415 reversed $281 $-1 #
coedge $-1 $429 $283 $284 $417 reversed $177 $-1 #
edge $-1 $430 -7.3000850963904886 $571 7.3000850963904886 $413 $572 forward 7 unknown #
coedge $-1 $285 $284 $570 $573 forward $113 $-1 #
edge $-1 $421 -54.175237281411171 $571 54.175237281411171 $414 $574 forward 7 unknown #
coedge $-1 $426 $425 $285 $419 reversed $411 $-1 #
edge $-1 $575 -54.175237281411171 $420 54.175237281411171 $418 $576 forward 7 unknown #
vertex $-1 $287 $577 #
vertex $-1 $432 $578 #
straight-curve $-1 54.175237281411171 0 -7.3000850963904886 0 -1 0 I I #
coedge $-1 $579 $413 $288 $424 reversed $281 $-1 #
edge $-1 $427 -25.58555244391729 $430 25.58555244391729 $423 $580 forward 7 unknown #
coedge $-1 $418 $289 $294 $433 forward $411 $-1 #
coedge $-1 $289 $418 $579 $581 reversed $411 $-1 #
vertex $-1 $290 $582 #
straight-curve $-1 0 25.58555244391729 7.3000850963904886 -1 0 0 I I #
coedge $-1 $291 $414 $293 $432 reversed $177 $-1 #
vertex $-1 $424 $583 #
straight-curve $-1 0 -25.58555244391729 7.3000850963904886 1 0 0 I I #
edge $-1 $296 -7.3000850963904886 $421 7.3000850963904886 $293 $584 forward 7 unknown #
edge $-1 $297 -7.3000850963904886 $420 7.3000850963904886 $294 $585 forward 7 unknown #
point $-1 54.175237281411171 -25.58555244391729 7.3000850963904886 #
point $-1 54.175237281411171 25.58555244391729 7.3000850963904886 #
face $-1 $-1 $449 $43 $-1 $586 reversed single #
loop $-1 $-1 $587 $299 #
plane-surface $-1 -60.84540793329235 0 5.0936425842348756 1 0 0 0 0 -1 forward_v I I I I #
coedge $-1 $588 $441 $305 $446 reversed $300 $-1 #
coedge $-1 $303 $302 $587 $589 reversed $117 $-1 #
coedge $-1 $439 $590 $302 $442 forward $300 $-1 #
edge $-1 $591 -3.3350853259405895 $444 3.3350853259405895 $302 $592 forward 7 unknown #
edge $-1 $310 -3.3350853259405895 $593 3.3350853259405895 $303 $594 forward 7 unknown #
vertex $-1 $304 $595 #
straight-curve $-1 -54.175237281411171 25.58555244391729 0 0 0 -1 I I #
edge $-1 $450 -25.58555244391729 $444 25.58555244391729 $439 $596 forward 7 unknown #
coedge $-1 $597 $306 $309 $453 reversed $449 $-1 #
coedge $-1 $306 $597 $588 $598 reversed $449 $-1 #
loop $-1 $-1 $306 $436 #
vertex $-1 $307 $599 #
straight-curve $-1 -54.175237281411171 -25.58555244391729 0 0 0 1 I I #
coedge $-1 $309 $308 $600 $601 forward $185 $-1 #
edge $-1 $602 -3.3350853259405895 $311 3.3350853259405895 $447 $603 forward 7 unknown #
point $-1 -54.175237281411171 25.58555244391729 6.8000850963904877 #
point $-1 -54.175237281411171 -25.58555244391729 6.8000850963904877 #
face $-1 $-1 $328 $44 $-1 $604 reversed single #
loop $-1 $-1 $322 $313 #
plane-surface $-1 0 25.58555244391729 0 0 -1 0 0 0 -1 forward_v I I I I #
coedge $-1 $605 $316 $463 $606 reversed $193 $-1 #
coedge $-1 $316 $605 $321 $471 reversed $193 $-1 #
coedge $-1 $322 $466 $316 $462 forward $457 $-1 #
edge $-1 $607 -3.0834425253993687 $473 -0.083442525399368472 $461 $608 forward 7 unknown #
coedge $-1 $318 $317 $459 $606 forward $121 $-1 #
coedge $-1 $476 $475 $317 $465 forward $314 $-1 #
edge $-1 $609 23.160660986733674 $468 28.396604525362889 $464 $610 forward 7 unknown #
coedge $-1 $461 $472 $318 $467 forward $457 $-1 #
edge $-1 $469 -28.396604525362889 $607 -23.160660986733674 $466 $611 forward 7 unknown #
vertex $-1 $320 $612 #
vertex $-1 $320 $613 #
straight-curve $-1 54.175237281411171 0 -4.6668850507987374 0 1 0 I I #
edge $-1 $473 -25.58555244391729 $477 25.58555244391729 $460 $614 forward 7 unknown #
coedge $-1 $466 $322 $327 $480 forward $457 $-1 #
vertex $-1 $323 $615 #
straight-curve $-1 25.778632756048282 25.58555244391729 -1.6668850507987372 1 0 0 I I #
coedge $-1 $464 $324 $605 $616 forward $314 $-1 #
coedge $-1 $324 $464 $326 $479 reversed $314 $-1 #
vertex $-1 $325 $617 #
straight-curve $-1 25.778632756048282 -25.58555244391729 -1.6668850507987372 -1 0 0 I I #
edge $-1 $330 1.6668850507987372 $468 4.6668850507987374 $326 $618 forward 7 unknown #
edge $-1 $329 1.6668850507987372 $469 4.6668850507987374 $327 $619 forward 7 unknown #
point $-1 54.175237281411171 25.58555244391729 -1.6668850507987372 #
point $-1 54.175237281411171 -25.58555244391729 -1.6668850507987372 #
loop $-1 $-1 $340 $332 #
plane-surface $-1 0 -25.58555244391729 0 0 1 0 0 0 1 forward_v I I I I #
coedge $-1 $486 $335 $337 $490 reversed $201 $-1 #
coedge $-1 $335 $485 $620 $621 reversed $201 $-1 #
coedge $-1 $343 $338 $335 $488 forward $333 $-1 #
edge $-1 $491 -35.378342825881418 $622 -29.897893782174069 $487 $623 forward 7 unknown #
coedge $-1 $337 $336 $494 $624 reversed $125 $-1 #
edge $-1 $625 2.8871132211972939e-014 $491 8.9017249858888512 $485 $626 forward 7 unknown #
vertex $-1 $339 $627 #
straight-curve $-1 -4.5178604106437064 -20.105103400209941 7.3000850963904886 -1 0 0 I I #
coedge $-1 $620 $340 $343 $498 reversed $483 $-1 #
coedge $-1 $340 $620 $489 $624 forward $483 $-1 #
vertex $-1 $341 $628 #
straight-curve $-1 4.5738331722888859 -25.585552443917294 33.496320942611561 0 0 1 I I #
straight-curve $-1 4.5738331722888859 -25.585552443917308 0.28543000838189414 0 -0.61566146476048833 -0.78801076186113728 I I #
edge $-1 $622 -22.645274814863711 $344 4.5738331722888859 $493 $629 forward 7 unknown #
point $-1 4.5738331722888859 -25.58555244391729 7.3000850963904886 #
point $-1 4.5738331722888859 -20.105103400209941 7.3000850963904895 #
edge $-1 $630 1 $630 0 $347 $-1 forward 7 unknown #
vertex $-1 $348 $631 #
ellipse-curve $-1 -14.868386818534397 -21.163130443459377 2.4784808777277996 0 -0.78801076186113728 0.61566146476048833 1 0 0 1 I I #
point $-1 -13.868386818534397 -22.845327922063603 3.7927575523861874 #
edge $-1 $632 1 $632 0 $351 $-1 forward 7 unknown #
vertex $-1 $352 $633 #
ellipse-curve $-1 -3.2030548240404215 -21.163130443459377 2.4784808777277996 0 -0.78801076186113728 0.61566146476048833 1 0 0 1 I I #
point $-1 -2.2030548240404215 -22.845327922063603 3.7927575523861874 #
plane-surface $-1 0 0 7.3000850963904886 0 0 1 1 0 0 forward_v I I I I #
coedge $-1 $520 $519 $512 $634 forward $356 $-1 #
coedge $-1 $512 $358 $360 $516 reversed $223 $-1 #
coedge $-1 $358 $511 $510 $634 reversed $223 $-1 #
coedge $-1 $366 $361 $358 $514 forward $367 $-1 #
edge $-1 $517 -4.3776524546260234 $635 2.6775937394058325 $513 $636 forward 7 unknown #
coedge $-1 $360 $359 $520 $637 reversed $139 $-1 #
edge $-1 $638 -51.171104887834602 $517 -42.558239562281408 $511 $639 forward 7 unknown #
vertex $-1 $362 $640 #
straight-curve $-1 -10.587209790338854 18.530306249885435 7.3000850963904931 1 0 0 I I #
coedge $-1 $510 $363 $366 $524 reversed $356 $-1 #
coedge $-1 $363 $510 $515 $637 forward $356 $-1 #
vertex $-1 $364 $641 #
straight-curve $-1 -28.554251263819214 25.58555244391729 60.233000486742647 0 0 1 I I #
straight-curve $-1 -28.554251263819214 -16.331362468613499 31.710488796496875 0 0.81915203911291934 -0.57357644374324357 I I #
edge $-1 $635 13.7945878975362 $368 28.554251263819214 $519 $642 forward 7 unknown #
point $-1 -28.554251263819214 25.58555244391729 7.3000850963904886 #
point $-1 -28.554251263819214 18.530306249885435 7.3000850963904895 #
edge $-1 $643 1 $643 0 $371 $-1 forward 7 unknown #
vertex $-1 $372 $644 #
ellipse-curve $-1 -25.602318590562607 19.946845247292664 1.8150762734413097 0 0.57357644374324357 0.81915203911291934 1 0 0 1 I I #
point $-1 -24.602318590562607 22.057929346901386 4.8300167644553547 #
edge $-1 $645 1 $645 0 $375 $-1 forward 7 unknown #
vertex $-1 $376 $646 #
ellipse-curve $-1 -21.174419580677707 19.946845247292664 1.8150762734413097 0 0.57357644374324357 0.81915203911291934 1 0 0 1 I I #
point $-1 -20.174419580677707 22.057929346901386 4.8300167644553547 #
edge $-1 $647 1 $647 0 $379 $-1 forward 7 unknown #
vertex $-1 $380 $648 #
ellipse-curve $-1 -16.746520570792804 19.946845247292664 1.8150762734413097 0 0.57357644374324357 0.81915203911291934 1 0 0 1 I I #
point $-1 -15.746520570792804 22.057929346901386 4.8300167644553547 #
loop $-1 $-1 $391 $383 #
plane-surface $-1 0 25.58555244391729 0 0 -1 0 0 0 -1 forward_v I I I I #
coedge $-1 $542 $386 $388 $546 reversed $252 $-1 #
coedge $-1 $386 $541 $649 $650 reversed $252 $-1 #
coedge $-1 $394 $389 $386 $544 forward $384 $-1 #
edge $-1 $547 -4.3776524546260234 $651 2.6775937394058325 $543 $652 forward 7 unknown #
coedge $-1 $388 $387 $550 $653 reversed $158 $-1 #
edge $-1 $654 -51.171104887834602 $547 -42.558239562281408 $541 $655 forward 7 unknown #
vertex $-1 $390 $656 #
straight-curve $-1 13.52388030273913 18.530306249885435 7.3000850963904931 1 0 0 I I #
coedge $-1 $649 $391 $394 $554 reversed $539 $-1 #
coedge $-1 $391 $649 $545 $653 forward $539 $-1 #
vertex $-1 $392 $657 #
straight-curve $-1 19.667928922336753 25.58555244391729 60.233000486742647 0 0 1 I I #
straight-curve $-1 19.667928922336753 -16.331362468613499 31.710488796496875 0 0.81915203911291934 -0.57357644374324357 I I #
edge $-1 $651 -34.427592288619763 $395 -19.667928922336753 $549 $658 forward 7 unknown #
point $-1 19.667928922336753 25.58555244391729 7.3000850963904886 #
point $-1 19.667928922336753 18.530306249885435 7.3000850963904895 #
edge $-1 $659 1 $659 0 $398 $-1 forward 7 unknown #
vertex $-1 $399 $660 #
ellipse-curve $-1 22.619861595593363 19.946845247292664 1.8150762734413097 0 0.57357644374324357 0.81915203911291934 1 0 0 1 I I #
point $-1 23.619861595593363 22.057929346901386 4.8300167644553547 #
edge $-1 $661 1 $661 0 $402 $-1 forward 7 unknown #
vertex $-1 $403 $662 #
ellipse-curve $-1 27.04776060547826 19.946845247292664 1.8150762734413097 0 0.57357644374324357 0.81915203911291934 1 0 0 1 I I #
point $-1 28.04776060547826 22.057929346901386 4.8300167644553547 #
edge $-1 $663 1 $663 0 $406 $-1 forward 7 unknown #
vertex $-1 $407 $664 #
ellipse-curve $-1 31.47565961536317 19.946845247292664 1.8150762734413097 0 0.57357644374324357 0.81915203911291934 1 0 0 1 I I #
point $-1 32.47565961536317 22.057929346901386 4.8300167644553547 #
plane-surface $-1 54.175237281411171 0 0 -1 0 0 0 0 1 forward_v I I I I #
coedge $-1 $413 $579 $416 $573 reversed $281 $-1 #
vertex $-1 $573 $665 #
straight-curve $-1 -54.175237281411171 -25.58555244391729 0 0 0 -1 I I #
edge $-1 $571 -25.58555244391729 $575 25.58555244391729 $570 $666 forward 7 unknown #
straight-curve $-1 0 -25.58555244391729 -7.3000850963904886 -1 0 0 I I #
vertex $-1 $419 $667 #
straight-curve $-1 0 25.58555244391729 -7.3000850963904886 1 0 0 I I #
point $-1 54.175237281411171 25.58555244391729 -7.3000850963904886 #
point $-1 54.175237281411171 -25.58555244391729 -7.3000850963904886 #
coedge $-1 $570 $423 $426 $581 forward $281 $-1 #
straight-curve $-1 -54.175237281411171 0 7.3000850963904886 0 -1 0 I I #
edge $-1 $427 -7.3000850963904886 $575 7.3000850963904886 $426 $668 forward 7 unknown #
point $-1 -54.175237281411171 25.58555244391729 7.3000850963904886 #
point $-1 -54.175237281411171 -25.58555244391729 7.3000850963904886 #
straight-curve $-1 54.175237281411171 -25.58555244391729 0 0 0 -1 I I #
straight-curve $-1 54.175237281411171 25.58555244391729 0 0 0 -1 I I #
plane-surface $-1 0 -25.58555244391729 0 0 1 0 0 0 1 forward_v I I I I #
coedge $-1 $669 $600 $440 $589 forward $437 $-1 #
coedge $-1 $590 $439 $448 $598 forward $300 $-1 #
edge $-1 $593 -1.7064425121556122 $591 1.7064425121556122 $440 $670 forward 7 unknown #
coedge $-1 $441 $588 $669 $671 forward $300 $-1 #
vertex $-1 $442 $672 #
straight-curve $-1 -57.51032260735176 25.58555244391729 3.3872000720792634 1 0 0 I I #
vertex $-1 $443 $673 #
straight-curve $-1 -57.51032260735176 25.58555244391729 6.8000850963904877 -1 0 0 I I #
point $-1 -54.175237281411171 25.58555244391729 3.3872000720792634 #
straight-curve $-1 -54.175237281411171 0 3.3872000720792634 0 1 0 I I #
coedge $-1 $448 $447 $674 $675 forward $449 $-1 #
edge $-1 $450 -3.3350853259405895 $676 3.3350853259405895 $448 $677 forward 7 unknown #
point $-1 -54.175237281411171 -25.58555244391729 3.3872000720792634 #
coedge $-1 $587 $674 $452 $601 reversed $437 $-1 #
edge $-1 $593 -25.58555244391729 $602 25.58555244391729 $600 $678 forward 7 unknown #
vertex $-1 $601 $679 #
straight-curve $-1 -57.51032260735176 -25.58555244391729 6.8000850963904877 1 0 0 I I #
plane-surface $-1 54.175237281411171 0 0 -1 0 0 0 0 1 forward_v I I I I #
coedge $-1 $460 $459 $475 $616 reversed $193 $-1 #
edge $-1 $609 -25.58555244391729 $607 25.58555244391729 $459 $680 forward 7 unknown #
vertex $-1 $467 $681 #
straight-curve $-1 48.939293742781956 25.58555244391729 -1.5834425253993687 0 0 1 I I #
vertex $-1 $465 $682 #
straight-curve $-1 25.778632756048282 -25.58555244391729 -4.6668850507987374 1 0 0 I I #
straight-curve $-1 25.778632756048282 25.58555244391729 -4.6668850507987374 -1 0 0 I I #
point $-1 54.175237281411171 -25.58555244391729 -4.6668850507987374 #
point $-1 54.175237281411171 25.58555244391729 -4.6668850507987374 #
straight-curve $-1 48.939293742781956 0 -1.6668850507987372 0 -1 0 I I #
point $-1 48.939293742781956 25.58555244391729 -1.6668850507987372 #
edge $-1 $477 0.083442525399368472 $609 3.0834425253993687 $475 $683 forward 7 unknown #
point $-1 48.939293742781956 -25.58555244391729 -1.6668850507987372 #
straight-curve $-1 54.175237281411171 -25.58555244391729 0 0 0 -1 I I #
straight-curve $-1 54.175237281411171 25.58555244391729 0 0 0 -1 I I #
coedge $-1 $494 $493 $486 $621 forward $483 $-1 #
edge $-1 $622 26.196235846221072 $625 33.210890934229646 $620 $684 forward 7 unknown #
vertex $-1 $498 $685 #
straight-curve $-1 -22.645274814863711 -55.48344622609136 7.3000850963904895 0 -1 0 I I #
edge $-1 $625 -18.127414404220005 $495 9.0916935829325922 $494 $686 forward 7 unknown #
vertex $-1 $624 $687 #
straight-curve $-1 -22.645274814863711 -25.585552443917308 0.28543000838189414 0 0.61566146476048833 0.78801076186113728 I I #
point $-1 -22.645274814863711 -20.105103400209941 7.3000850963904895 #
point $-1 4.5738331722888859 -25.58555244391729 0.2854300083819169 #
straight-curve $-1 0 -25.58555244391729 7.3000850963904886 1 0 0 I I #
vertex $-1 $501 $688 #
point $-1 -13.868386818534397 -21.163130443459377 2.4784808777277996 #
vertex $-1 $505 $689 #
point $-1 -2.2030548240404215 -21.163130443459377 2.4784808777277996 #
edge $-1 $635 52.932915390352157 $638 57.873052054222455 $510 $690 forward 7 unknown #
vertex $-1 $524 $691 #
straight-curve $-1 -13.7945878975362 22.907958704511458 7.3000850963904895 0 1 0 I I #
edge $-1 $638 3.2073781071973464 $521 17.967041473480361 $520 $692 forward 7 unknown #
vertex $-1 $637 $693 #
straight-curve $-1 -13.7945878975362 -16.331362468613499 31.710488796496875 0 -0.81915203911291934 0.57357644374324357 I I #
point $-1 -13.7945878975362 18.530306249885435 7.3000850963904895 #
point $-1 -28.554251263819214 25.585552443917287 2.3599484325201949 #
straight-curve $-1 0 25.58555244391729 7.3000850963904886 -1 0 0 I I #
vertex $-1 $527 $694 #
point $-1 -24.602318590562607 19.946845247292664 1.8150762734413097 #
vertex $-1 $531 $695 #
point $-1 -20.174419580677707 19.946845247292664 1.8150762734413097 #
vertex $-1 $535 $696 #
point $-1 -15.746520570792804 19.946845247292664 1.8150762734413097 #
coedge $-1 $550 $549 $542 $650 forward $539 $-1 #
edge $-1 $651 52.932915390352157 $654 57.873052054222455 $649 $697 forward 7 unknown #
vertex $-1 $554 $698 #
straight-curve $-1 34.427592288619763 22.907958704511458 7.3000850963904895 0 1 0 I I #
edge $-1 $654 -20.903711985880634 $551 -6.1440486195976227 $550 $699 forward 7 unknown #
vertex $-1 $653 $700 #
straight-curve $-1 34.427592288619763 -16.331362468613499 31.710488796496875 0 -0.81915203911291934 0.57357644374324357 I I #
point $-1 34.427592288619763 18.530306249885435 7.3000850963904895 #
point $-1 19.667928922336753 25.585552443917287 2.3599484325201949 #
straight-curve $-1 0 25.58555244391729 7.3000850963904886 -1 0 0 I I #
vertex $-1 $557 $701 #
point $-1 23.619861595593363 19.946845247292664 1.8150762734413097 #
vertex $-1 $561 $702 #
point $-1 28.04776060547826 19.946845247292664 1.8150762734413097 #
vertex $-1 $565 $703 #
point $-1 32.47565961536317 19.946845247292664 1.8150762734413097 #
point $-1 -54.175237281411171 -25.58555244391729 -7.3000850963904886 #
straight-curve $-1 -54.175237281411171 0 -7.3000850963904886 0 1 0 I I #
point $-1 -54.175237281411171 25.58555244391729 -7.3000850963904886 #
straight-curve $-1 -54.175237281411171 25.58555244391729 0 0 0 -1 I I #
coedge $-1 $674 $587 $590 $671 reversed $437 $-1 #
straight-curve $-1 -60.84540793329235 25.58555244391729 5.0936425842348756 0 0 -1 I I #
edge $-1 $676 -25.58555244391729 $591 25.58555244391729 $669 $704 forward 7 unknown #
point $-1 -60.84540793329235 25.58555244391729 3.3872000720792634 #
point $-1 -60.84540793329235 25.58555244391729 6.8000850963904877 #
coedge $-1 $600 $669 $597 $675 reversed $437 $-1 #
edge $-1 $602 -1.7064425121556122 $676 1.7064425121556122 $674 $705 forward 7 unknown #
vertex $-1 $671 $706 #
straight-curve $-1 -57.51032260735176 -25.58555244391729 3.3872000720792634 -1 0 0 I I #
straight-curve $-1 -60.84540793329235 0 6.8000850963904877 0 -1 0 I I #
point $-1 -60.84540793329235 -25.58555244391729 6.8000850963904877 #
straight-curve $-1 48.939293742781956 0 -4.6668850507987374 0 1 0 I I #
point $-1 48.939293742781956 25.58555244391729 -4.6668850507987374 #
point $-1 48.939293742781956 -25.58555244391729 -4.6668850507987374 #
straight-curve $-1 48.939293742781956 -25.58555244391729 -1.5834425253993687 0 0 -1 I I #
straight-curve $-1 -22.645274814863711 -25.585552443917294 33.496320942611561 0 0 -1 I I #
point $-1 -22.645274814863711 -25.58555244391729 7.3000850963904886 #
straight-curve $-1 -4.5178604106437064 -25.58555244391729 0.28543000838191918 1 0 0 I I #
point $-1 -22.645274814863711 -25.58555244391729 0.2854300083819169 #
point $-1 -14.868386818534397 -20.375119681598239 1.8628194129673115 #
point $-1 -3.2030548240404215 -20.375119681598239 1.8628194129673115 #
straight-curve $-1 -13.7945878975362 25.58555244391729 60.233000486742647 0 0 -1 I I #
point $-1 -13.7945878975362 25.58555244391729 7.3000850963904886 #
straight-curve $-1 -10.587209790338854 25.585552443917294 2.3599484325201914 -1 0 0 I I #
point $-1 -13.7945878975362 25.585552443917287 2.3599484325201949 #
point $-1 -25.602318590562607 19.373268803549422 0.99592423432839028 #
point $-1 -21.174419580677707 19.373268803549422 0.99592423432839028 #
point $-1 -16.746520570792804 19.373268803549422 0.99592423432839028 #
straight-curve $-1 34.427592288619763 25.58555244391729 60.233000486742647 0 0 -1 I I #
point $-1 34.427592288619763 25.58555244391729 7.3000850963904886 #
straight-curve $-1 13.52388030273913 25.585552443917294 2.3599484325201914 -1 0 0 I I #
point $-1 34.427592288619763 25.585552443917287 2.3599484325201949 #
point $-1 22.619861595593363 19.373268803549422 0.99592423432839028 #
point $-1 27.04776060547826 19.373268803549422 0.99592423432839028 #
point $-1 31.47565961536317 19.373268803549422 0.99592423432839028 #
straight-curve $-1 -60.84540793329235 0 3.3872000720792634 0 1 0 I I #
straight-curve $-1 -60.84540793329235 -25.58555244391729 5.0936425842348756 0 0 -1 I I #
point $-1 -60.84540793329235 -25.58555244391729 3.3872000720792634 #
End-of-ACIS-data 