500 0 8 0           
7 Unknown 11 ACIS 5.0 NT 24 Fri Mar 26 02:50:28 1999 
-1 9.9999999999999995e-007 1e-010 
body $-1 $8 $-1 $9 #
body $-1 $10 $-1 $11 #
body $-1 $12 $-1 $13 #
body $-1 $14 $-1 $15 #
body $-1 $16 $-1 $17 #
body $-1 $18 $-1 $19 #
body $-1 $20 $-1 $21 #
body $-1 $22 $-1 $23 #
lump $-1 $-1 $24 $0 #
transform $-1 1 0 0 0 1 0 0 0 1 48.198492385631887 22.604912002485325 5.464929087499252 1 rotate no_reflect no_shear #
lump $-1 $-1 $25 $1 #
transform $-1 1 0 0 0 1 0 0 0 1 48.198492385631887 22.604912002485325 5.464929087499252 1 rotate no_reflect no_shear #
lump $-1 $-1 $26 $2 #
transform $-1 1 0 0 0 1 0 0 0 1 48.198492385631887 22.604912002485325 5.464929087499252 1 rotate no_reflect no_shear #
lump $-1 $-1 $27 $3 #
transform $-1 1 0 0 0 1 0 0 0 1 48.198492385631887 22.604912002485325 5.464929087499252 1 rotate no_reflect no_shear #
lump $-1 $-1 $28 $4 #
transform $-1 1 0 0 0 1 0 0 0 1 48.198492385631887 22.604912002485325 5.464929087499252 1 rotate no_reflect no_shear #
lump $-1 $-1 $29 $5 #
transform $-1 1 0 0 0 1 0 0 0 1 48.198492385631887 22.604912002485325 5.464929087499252 1 rotate no_reflect no_shear #
lump $-1 $-1 $30 $6 #
transform $-1 1 0 0 0 1 0 0 0 1 48.198492385631887 22.604912002485325 5.464929087499252 1 rotate no_reflect no_shear #
lump $-1 $-1 $31 $7 #
transform $-1 1 0 0 0 1 0 0 0 1 48.198492385631887 22.604912002485325 5.464929087499252 1 rotate no_reflect no_shear #
shell $-1 $-1 $-1 $32 $-1 $8 #
shell $-1 $-1 $-1 $33 $-1 $10 #
shell $-1 $-1 $-1 $34 $-1 $12 #
shell $-1 $-1 $-1 $35 $-1 $14 #
shell $-1 $-1 $-1 $36 $-1 $16 #
shell $-1 $-1 $-1 $37 $-1 $18 #
shell $-1 $-1 $-1 $38 $-1 $20 #
shell $-1 $-1 $-1 $39 $-1 $22 #
face $-1 $40 $41 $24 $-1 $42 forward single #
face $-1 $43 $44 $25 $-1 $45 reversed single #
face $-1 $46 $47 $26 $-1 $48 reversed single #
face $-1 $49 $50 $27 $-1 $51 forward single #
face $-1 $52 $53 $28 $-1 $54 forward single #
face $-1 $55 $56 $29 $-1 $57 forward single #
face $-1 $58 $59 $30 $-1 $60 reversed single #
face $-1 $61 $62 $31 $-1 $63 forward single #
face $-1 $64 $65 $24 $-1 $66 reversed single #
loop $-1 $-1 $67 $32 #
plane-surface $-1 0 0 5.464929087499252 0 0 1 1 0 0 forward_v I I I I #
face $-1 $68 $69 $25 $-1 $70 reversed single #
loop $-1 $-1 $71 $33 #
plane-surface $-1 -44.806999955307809 -20.097385654490886 0 1 0 0 0 0 -1 forward_v I I I I #
face $-1 $72 $73 $26 $-1 $74 reversed single #
loop $-1 $-1 $75 $34 #
plane-surface $-1 -129.04380712356669 8.5815970250191498 54.315332738929399 0 1 0 -0.83867057594974714 0 0.54463902268945019 forward_v I I I I #
face $-1 $76 $77 $27 $-1 $78 forward single #
loop $-1 $79 $80 $35 #
cone-surface $-1 -46.593612945109733 10.85050792828908 3.3670316138541403 0.83867057594974714 0 -0.54463902268945019 0.2723195113447251 0 0.41933528797487357 1 I I 0 1 0.5 forward I I I I #
face $-1 $81 $82 $28 $-1 $83 forward single #
loop $-1 $84 $85 $36 #
cone-surface $-1 -46.593612945109733 14.253874283193969 3.3670316138541403 0.83867057594974714 0 -0.54463902268945019 0.2723195113447251 0 0.41933528797487357 1 I I 0 1 0.5 forward I I I I #
face $-1 $86 $87 $29 $-1 $88 forward single #
loop $-1 $89 $90 $37 #
cone-surface $-1 -46.593612945109733 17.657240638098859 3.3670316138541403 0.83867057594974714 0 -0.54463902268945019 0.2723195113447251 0 0.41933528797487357 1 I I 0 1 0.5 forward I I I I #
face $-1 $91 $92 $30 $-1 $93 reversed single #
loop $-1 $-1 $94 $38 #
plane-surface $-1 45.81927851173338 -10.556300192596414 137.73174530192117 0 -1 0 -0.69465837861970381 0 -0.71933979245794832 forward_v I I I I #
face $-1 $95 $96 $31 $-1 $97 forward single #
loop $-1 $98 $99 $39 #
cone-surface $-1 45.415951857027686 -14.07307974954643 2.7295566247615994 -0.69465837861970381 0 -0.71933979245794832 0.71933979245794832 0 -0.69465837861970381 1 I I 0 1 1 forward I I I I #
face $-1 $100 $101 $24 $-1 $102 reversed single #
loop $-1 $-1 $103 $40 #
plane-surface $-1 0 0 -5.464929087499252 0 0 1 1 0 0 forward_v I I I I #
coedge $-1 $104 $105 $106 $107 forward $41 $-1 #
face $-1 $108 $109 $25 $-1 $110 reversed single #
loop $-1 $-1 $111 $43 #
plane-surface $-1 -43.306999955307809 -17.589859306496447 0 0 -1 0 0 0 -1 forward_v I I I I #
coedge $-1 $112 $113 $114 $115 forward $44 $-1 #
face $-1 $116 $117 $26 $-1 $118 reversed single #
loop $-1 $-1 $119 $46 #
plane-surface $-1 -48.198492385631894 14.253874283193962 1.8137731628984852 -0.83867057594974714 0 0.54463902268945019 0.54463902268945019 0 0.83867057594974714 forward_v I I I I #
coedge $-1 $120 $121 $122 $123 reversed $47 $-1 #
face $-1 $-1 $124 $27 $-1 $125 forward single #
loop $-1 $126 $127 $49 #
cone-surface $-1 -45.964610013147421 10.85050792828908 2.9585523468370525 0.83867057594974714 0 -0.54463902268945019 0.13615975567236255 0 0.20966764398743679 1 I I -0.70710678118654746 0.70710678118654746 0.25 forward I I I I #
loop $-1 $-1 $128 $35 #
coedge $-1 $80 $80 $129 $130 reversed $50 $-1 #
face $-1 $-1 $131 $28 $-1 $132 forward single #
loop $-1 $133 $134 $52 #
cone-surface $-1 -45.964610013147421 14.253874283193969 2.9585523468370525 0.83867057594974714 0 -0.54463902268945019 0.13615975567236255 0 0.20966764398743679 1 I I -0.70710678118654746 0.70710678118654746 0.25 forward I I I I #
loop $-1 $-1 $135 $36 #
coedge $-1 $85 $85 $136 $137 reversed $53 $-1 #
face $-1 $-1 $138 $29 $-1 $139 forward single #
loop $-1 $140 $141 $55 #
cone-surface $-1 -45.964610013147421 17.657240638098859 2.9585523468370525 0.83867057594974714 0 -0.54463902268945019 0.13615975567236255 0 0.20966764398743679 1 I I -0.70710678118654746 0.70710678118654746 0.25 forward I I I I #
loop $-1 $-1 $142 $37 #
coedge $-1 $90 $90 $143 $144 reversed $56 $-1 #
face $-1 $145 $146 $30 $-1 $147 reversed single #
loop $-1 $-1 $148 $58 #
plane-surface $-1 -21.143694633300989 -14.07307974954643 68.389558282988276 0.69465837861970381 0 0.71933979245794832 0.71933979245794832 0 -0.69465837861970381 forward_v I I I I #
coedge $-1 $149 $150 $151 $152 reversed $59 $-1 #
face $-1 $-1 $153 $31 $-1 $154 forward single #
loop $-1 $155 $156 $61 #
cone-surface $-1 44.376995880276532 -14.07307974954643 1.6536862405676569 -0.69465837861970381 0 -0.71933979245794832 0.35966989622897416 0 -0.3473291893098519 1 I I -0.70710678118654746 0.70710678118654746 0.5 forward I I I I #
loop $-1 $-1 $157 $39 #
coedge $-1 $99 $99 $158 $159 reversed $62 $-1 #
face $-1 $160 $161 $24 $-1 $162 reversed single #
loop $-1 $-1 $163 $64 #
plane-surface $-1 0 -22.604912002485325 0 0 1 0 0 0 1 forward_v I I I I #
coedge $-1 $164 $165 $166 $167 forward $65 $-1 #
coedge $-1 $168 $67 $169 $170 forward $41 $-1 #
coedge $-1 $67 $168 $171 $172 forward $41 $-1 #
coedge $-1 $173 $174 $67 $107 reversed $175 $-1 #
edge $-1 $176 -22.604912002485325 $177 22.604912002485325 $106 $178 forward 7 unknown #
face $-1 $179 $180 $25 $-1 $181 forward single #
loop $-1 $-1 $182 $68 #
plane-surface $-1 -41.806999955307809 -20.097385654490886 0 -1 0 0 0 0 1 forward_v I I I I #
coedge $-1 $183 $184 $185 $186 forward $69 $-1 #
coedge $-1 $187 $71 $188 $189 reversed $44 $-1 #
coedge $-1 $71 $187 $190 $191 reversed $44 $-1 #
coedge $-1 $184 $183 $71 $115 reversed $69 $-1 #
edge $-1 $192 -5.464929087499252 $193 5.464929087499252 $114 $194 forward 7 unknown #
face $-1 $195 $196 $26 $-1 $197 reversed single #
loop $-1 $-1 $198 $72 #
plane-surface $-1 -129.04380712356669 19.926151541368775 54.315332738929399 0 -1 0 0.83867057594974714 0 -0.54463902268945019 forward_v I I I I #
coedge $-1 $199 $200 $201 $202 reversed $73 $-1 #
coedge $-1 $121 $75 $203 $204 reversed $47 $-1 #
coedge $-1 $75 $120 $199 $205 reversed $47 $-1 #
coedge $-1 $201 $206 $75 $123 forward $207 $-1 #
edge $-1 $208 16.32341117615146 $209 18.694499481246005 $122 $210 forward 7 unknown #
loop $-1 $-1 $129 $76 #
plane-surface $-1 -48.198492385631894 14.253874283193962 1.8137731628984852 -0.83867057594974714 0 0.54463902268945019 0.54463902268945019 0 0.83867057594974714 forward_v I I I I #
loop $-1 $-1 $211 $49 #
coedge $-1 $127 $127 $128 $212 reversed $77 $-1 #
coedge $-1 $128 $128 $127 $212 forward $79 $-1 #
coedge $-1 $129 $129 $80 $130 forward $124 $-1 #
edge $-1 $213 0 $213 6.2831853071796004 $129 $214 forward 7 unknown #
loop $-1 $-1 $136 $81 #
plane-surface $-1 -48.198492385631894 14.253874283193962 1.8137731628984852 -0.83867057594974714 0 0.54463902268945019 0.54463902268945019 0 0.83867057594974714 forward_v I I I I #
loop $-1 $-1 $215 $52 #
coedge $-1 $134 $134 $135 $216 reversed $82 $-1 #
coedge $-1 $135 $135 $134 $216 forward $84 $-1 #
coedge $-1 $136 $136 $85 $137 forward $131 $-1 #
edge $-1 $217 0 $217 6.2831853071796004 $136 $218 forward 7 unknown #
loop $-1 $-1 $143 $86 #
plane-surface $-1 -48.198492385631894 14.253874283193962 1.8137731628984852 -0.83867057594974714 0 0.54463902268945019 0.54463902268945019 0 0.83867057594974714 forward_v I I I I #
loop $-1 $-1 $219 $55 #
coedge $-1 $141 $141 $142 $220 reversed $87 $-1 #
coedge $-1 $142 $142 $141 $220 forward $89 $-1 #
coedge $-1 $143 $143 $90 $144 forward $138 $-1 #
edge $-1 $221 0 $221 6.2831853071796004 $143 $222 forward 7 unknown #
face $-1 $223 $224 $30 $-1 $225 forward single #
loop $-1 $-1 $226 $91 #
plane-surface $-1 45.81927851173338 -17.589859306496447 137.73174530192117 0 1 0 0.69465837861970381 0 0.71933979245794832 forward_v I I I I #
coedge $-1 $227 $228 $229 $230 reversed $92 $-1 #
coedge $-1 $150 $94 $231 $232 reversed $59 $-1 #
coedge $-1 $94 $149 $227 $233 reversed $59 $-1 #
coedge $-1 $229 $234 $94 $152 forward $224 $-1 #
edge $-1 $235 -25.288853129765197 $236 -21.107025647439411 $151 $237 forward 7 unknown #
loop $-1 $-1 $158 $95 #
plane-surface $-1 -21.143694633300989 -14.07307974954643 68.389558282988276 0.69465837861970381 0 0.71933979245794832 0.71933979245794832 0 -0.69465837861970381 forward_v I I I I #
loop $-1 $-1 $238 $61 #
coedge $-1 $156 $156 $157 $239 reversed $96 $-1 #
coedge $-1 $157 $157 $156 $239 forward $98 $-1 #
coedge $-1 $158 $158 $99 $159 forward $153 $-1 #
edge $-1 $240 0 $240 6.2831853071796004 $158 $241 forward 7 unknown #
face $-1 $242 $243 $24 $-1 $244 reversed single #
loop $-1 $-1 $245 $100 #
plane-surface $-1 -48.198492385631887 0 0 1 0 0 0 0 -1 forward_v I I I I #
coedge $-1 $246 $171 $247 $248 forward $101 $-1 #
coedge $-1 $249 $103 $246 $250 forward $65 $-1 #
coedge $-1 $103 $249 $251 $252 forward $65 $-1 #
coedge $-1 $174 $173 $103 $167 reversed $175 $-1 #
edge $-1 $253 -22.604912002485325 $254 22.604912002485325 $166 $255 forward 7 unknown #
coedge $-1 $105 $104 $256 $257 forward $41 $-1 #
coedge $-1 $258 $259 $104 $170 reversed $243 $-1 #
edge $-1 $177 -48.198492385631887 $260 48.198492385631887 $169 $261 forward 7 unknown #
coedge $-1 $163 $262 $105 $172 reversed $101 $-1 #
edge $-1 $263 -48.198492385631887 $176 48.198492385631887 $171 $264 forward 7 unknown #
coedge $-1 $166 $106 $262 $265 forward $175 $-1 #
coedge $-1 $106 $166 $258 $266 reversed $175 $-1 #
loop $-1 $-1 $173 $242 #
vertex $-1 $107 $267 #
vertex $-1 $107 $268 #
straight-curve $-1 48.198492385631887 0 5.464929087499252 0 1 0 I I #
face $-1 $269 $270 $25 $-1 $271 reversed single #
loop $-1 $-1 $272 $108 #
plane-surface $-1 0 0 5.464929087499252 0 0 1 1 0 0 forward_v I I I I #
coedge $-1 $273 $274 $275 $276 reversed $109 $-1 #
coedge $-1 $114 $111 $277 $278 reversed $69 $-1 #
coedge $-1 $111 $114 $279 $280 reversed $69 $-1 #
coedge $-1 $274 $273 $111 $186 reversed $109 $-1 #
edge $-1 $281 -5.464929087499252 $282 5.464929087499252 $185 $283 forward 7 unknown #
coedge $-1 $113 $112 $284 $285 reversed $44 $-1 #
coedge $-1 $277 $286 $112 $189 forward $270 $-1 #
edge $-1 $287 -12.556219175239882 $193 -7.5411664792510038 $188 $288 forward 7 unknown #
coedge $-1 $289 $279 $113 $191 forward $180 $-1 #
edge $-1 $192 7.5411664792510038 $290 12.556219175239882 $190 $291 forward 7 unknown #
vertex $-1 $191 $292 #
vertex $-1 $189 $293 #
straight-curve $-1 -44.806999955307809 -17.589859306496447 0 0 0 -1 I I #
face $-1 $-1 $207 $26 $-1 $294 forward single #
loop $-1 $-1 $295 $116 #
plane-surface $-1 -48.198492385631887 0 0 1 0 0 0 0 -1 forward_v I I I I #
coedge $-1 $296 $297 $298 $299 reversed $117 $-1 #
coedge $-1 $300 $119 $121 $205 forward $73 $-1 #
coedge $-1 $119 $300 $296 $301 forward $73 $-1 #
coedge $-1 $298 $122 $119 $202 forward $207 $-1 #
edge $-1 $209 1.4546598834221687 $302 12.799214399771794 $201 $303 forward 7 unknown #
coedge $-1 $304 $305 $120 $204 forward $196 $-1 #
edge $-1 $306 -25.343893206566204 $208 -21.692737281965449 $203 $307 forward 7 unknown #
edge $-1 $209 -4.3535042593643389 $306 -1.2994784570086186e-014 $121 $308 forward 7 unknown #
coedge $-1 $122 $298 $304 $309 forward $207 $-1 #
loop $-1 $-1 $298 $195 #
vertex $-1 $204 $310 #
vertex $-1 $123 $311 #
straight-curve $-1 -64.521903561783347 8.5815970250191498 5.4649290874992538 1 0 0 I I #
coedge $-1 $211 $211 $-1 $312 reversed $126 $-1 #
edge $-1 $313 0 $313 6.2831853071796004 $127 $314 forward 7 unknown #
vertex $-1 $130 $315 #
ellipse-curve $-1 -47.012948233084614 10.85050792828908 3.6393511251988717 -0.83867057594974714 0 0.54463902268945019 0.2723195113447251 0 0.41933528797487357 1 I I #
coedge $-1 $215 $215 $-1 $316 reversed $133 $-1 #
edge $-1 $317 0 $317 6.2831853071796004 $134 $318 forward 7 unknown #
vertex $-1 $137 $319 #
ellipse-curve $-1 -47.012948233084614 14.253874283193969 3.6393511251988717 -0.83867057594974714 0 0.54463902268945019 0.2723195113447251 0 0.41933528797487357 1 I I #
coedge $-1 $219 $219 $-1 $320 reversed $140 $-1 #
edge $-1 $321 0 $321 6.2831853071796004 $141 $322 forward 7 unknown #
vertex $-1 $144 $323 #
ellipse-curve $-1 -47.012948233084614 17.657240638098859 3.6393511251988717 -0.83867057594974714 0 0.54463902268945019 0.2723195113447251 0 0.41933528797487357 1 I I #
face $-1 $-1 $324 $30 $-1 $325 reversed single #
loop $-1 $-1 $151 $145 #
plane-surface $-1 0 0 5.464929087499252 0 0 1 1 0 0 forward_v I I I I #
coedge $-1 $326 $327 $328 $329 reversed $146 $-1 #
coedge $-1 $330 $148 $150 $233 forward $92 $-1 #
coedge $-1 $148 $330 $326 $331 forward $92 $-1 #
coedge $-1 $328 $151 $148 $230 forward $224 $-1 #
edge $-1 $236 3.5197603178231986 $332 10.553319431723232 $229 $333 forward 7 unknown #
coedge $-1 $334 $335 $149 $232 forward $324 $-1 #
edge $-1 $336 -67.439287513006676 $235 -63.400943563461333 $231 $337 forward 7 unknown #
edge $-1 $236 90.583560397732725 $336 96.39698477126376 $150 $338 forward 7 unknown #
coedge $-1 $151 $328 $334 $339 forward $224 $-1 #
vertex $-1 $232 $340 #
vertex $-1 $152 $341 #
straight-curve $-1 22.90963925586669 -10.556300192596414 5.4649290874992573 -1 0 0 I I #
coedge $-1 $238 $238 $-1 $342 reversed $155 $-1 #
edge $-1 $343 0 $343 6.2831853071796004 $156 $344 forward 7 unknown #
vertex $-1 $159 $345 #
ellipse-curve $-1 46.107578644468994 -14.07307974954643 3.4457571127265725 0.69465837861970381 0 0.71933979245794832 0.71933979245794832 0 -0.69465837861970381 1 I I #
face $-1 $-1 $175 $24 $-1 $346 reversed single #
loop $-1 $-1 $258 $160 #
plane-surface $-1 0 22.604912002485325 0 0 -1 0 0 0 -1 forward_v I I I I #
coedge $-1 $347 $256 $259 $348 forward $161 $-1 #
coedge $-1 $262 $163 $164 $250 reversed $101 $-1 #
coedge $-1 $256 $347 $163 $248 reversed $161 $-1 #
edge $-1 $263 -5.464929087499252 $349 5.464929087499252 $247 $350 forward 7 unknown #
coedge $-1 $165 $164 $347 $351 forward $65 $-1 #
edge $-1 $254 -48.198492385631887 $349 48.198492385631887 $246 $352 forward 7 unknown #
coedge $-1 $259 $258 $165 $252 reversed $243 $-1 #
edge $-1 $353 -48.198492385631887 $253 48.198492385631887 $251 $354 forward 7 unknown #
vertex $-1 $167 $355 #
vertex $-1 $265 $356 #
straight-curve $-1 48.198492385631887 0 -5.464929087499252 0 -1 0 I I #
coedge $-1 $245 $247 $168 $257 reversed $161 $-1 #
edge $-1 $260 -22.604912002485325 $263 22.604912002485325 $256 $357 forward 7 unknown #
coedge $-1 $251 $169 $174 $266 forward $243 $-1 #
coedge $-1 $169 $251 $245 $348 reversed $243 $-1 #
vertex $-1 $170 $358 #
straight-curve $-1 0 22.604912002485325 5.464929087499252 -1 0 0 I I #
coedge $-1 $171 $246 $173 $265 reversed $101 $-1 #
vertex $-1 $257 $359 #
straight-curve $-1 0 -22.604912002485325 5.464929087499252 1 0 0 I I #
edge $-1 $176 -5.464929087499252 $254 5.464929087499252 $173 $360 forward 7 unknown #
edge $-1 $177 -5.464929087499252 $253 5.464929087499252 $174 $361 forward 7 unknown #
point $-1 48.198492385631887 -22.604912002485325 5.464929087499252 #
point $-1 48.198492385631887 22.604912002485325 5.464929087499252 #
face $-1 $-1 $362 $25 $-1 $363 reversed single #
loop $-1 $-1 $364 $179 #
plane-surface $-1 0 0 -5.464929087499252 0 0 1 1 0 0 forward_v I I I I #
coedge $-1 $279 $289 $274 $365 forward $180 $-1 #
coedge $-1 $185 $182 $364 $366 reversed $109 $-1 #
coedge $-1 $182 $185 $272 $365 reversed $109 $-1 #
coedge $-1 $367 $368 $182 $276 forward $362 $-1 #
edge $-1 $369 -5.464929087499252 $370 5.464929087499252 $275 $371 forward 7 unknown #
coedge $-1 $364 $188 $183 $278 forward $270 $-1 #
edge $-1 $193 -23.153499977653905 $282 -20.153499977653905 $277 $372 forward 7 unknown #
coedge $-1 $190 $272 $184 $280 forward $180 $-1 #
edge $-1 $281 20.153499977653905 $192 23.153499977653905 $279 $373 forward 7 unknown #
vertex $-1 $280 $374 #
vertex $-1 $278 $375 #
straight-curve $-1 -41.806999955307809 -17.589859306496447 0 0 0 -1 I I #
coedge $-1 $368 $367 $187 $285 forward $362 $-1 #
edge $-1 $290 -5.464929087499252 $287 5.464929087499252 $284 $376 forward 7 unknown #
coedge $-1 $188 $364 $368 $377 forward $270 $-1 #
vertex $-1 $189 $378 #
straight-curve $-1 -44.806999955307809 -10.048692827245443 -5.464929087499252 0 1 0 I I #
coedge $-1 $272 $190 $367 $379 forward $180 $-1 #
vertex $-1 $379 $380 #
straight-curve $-1 -44.806999955307809 -10.048692827245443 5.464929087499252 0 -1 0 I I #
point $-1 -44.806999955307809 -17.589859306496447 5.464929087499252 #
point $-1 -44.806999955307809 -17.589859306496447 -5.464929087499252 #
plane-surface $-1 0 0 5.464929087499252 0 0 1 1 0 0 forward_v I I I I #
coedge $-1 $305 $304 $297 $381 forward $196 $-1 #
coedge $-1 $297 $198 $200 $301 reversed $117 $-1 #
coedge $-1 $198 $296 $295 $381 reversed $117 $-1 #
coedge $-1 $206 $201 $198 $299 forward $207 $-1 #
edge $-1 $302 -18.694499481246005 $382 -16.32341117615146 $298 $383 forward 7 unknown #
coedge $-1 $200 $199 $305 $384 reversed $73 $-1 #
edge $-1 $385 1.2994784570086186e-014 $302 4.3535042593643389 $296 $386 forward 7 unknown #
vertex $-1 $202 $387 #
straight-curve $-1 -45.827404080537349 7.1269371415969811 5.464929087499252 0 1 0 I I #
coedge $-1 $295 $203 $206 $309 reversed $196 $-1 #
coedge $-1 $203 $295 $300 $384 forward $196 $-1 #
vertex $-1 $204 $388 #
straight-curve $-1 -48.198492385631887 8.5815970250191498 27.1576663694647 0 0 1 I I #
straight-curve $-1 -48.198492385631894 8.5815970250191498 1.8137731628984852 -0.54463902268945019 0 -0.83867057594974714 I I #
edge $-1 $382 -19.926151541368775 $208 -8.5815970250191498 $304 $389 forward 7 unknown #
point $-1 -48.198492385631887 8.5815970250191498 5.464929087499252 #
point $-1 -45.827404080537342 8.5815970250191498 5.464929087499252 #
edge $-1 $390 1 $390 0 $211 $-1 forward 7 unknown #
vertex $-1 $212 $391 #
ellipse-curve $-1 -46.174277657134859 10.85050792828908 3.0947121025094151 -0.83867057594974714 0 0.54463902268945019 0.2723195113447251 0 0.41933528797487357 1 I I #
point $-1 -46.740628721739881 10.85050792828908 4.0586864131737386 #
edge $-1 $392 1 $392 0 $215 $-1 forward 7 unknown #
vertex $-1 $216 $393 #
ellipse-curve $-1 -46.174277657134859 14.253874283193969 3.0947121025094151 -0.83867057594974714 0 0.54463902268945019 0.2723195113447251 0 0.41933528797487357 1 I I #
point $-1 -46.740628721739881 14.253874283193969 4.0586864131737386 #
edge $-1 $394 1 $394 0 $219 $-1 forward 7 unknown #
vertex $-1 $220 $395 #
ellipse-curve $-1 -46.174277657134859 17.657240638098859 3.0947121025094151 -0.83867057594974714 0 0.54463902268945019 0.2723195113447251 0 0.41933528797487357 1 I I #
point $-1 -46.740628721739881 17.657240638098859 4.0586864131737386 #
loop $-1 $-1 $231 $223 #
plane-surface $-1 48.198492385631887 0 0 -1 0 0 0 0 1 forward_v I I I I #
coedge $-1 $327 $226 $228 $331 reversed $146 $-1 #
coedge $-1 $226 $326 $396 $397 reversed $146 $-1 #
coedge $-1 $234 $229 $226 $329 forward $224 $-1 #
edge $-1 $332 21.107025647439411 $398 25.288853129765197 $328 $399 forward 7 unknown #
coedge $-1 $228 $227 $335 $400 reversed $92 $-1 #
edge $-1 $401 -96.39698477126376 $332 -90.583560397732725 $326 $402 forward 7 unknown #
vertex $-1 $230 $403 #
straight-curve $-1 44.016664903306108 -7.0365398747732151 5.4649290874992431 0 -1 0 I I #
coedge $-1 $396 $231 $234 $339 reversed $324 $-1 #
coedge $-1 $231 $396 $330 $400 forward $324 $-1 #
vertex $-1 $232 $404 #
straight-curve $-1 48.198492385631887 -10.556300192596414 68.865872650960583 0 0 1 I I #
straight-curve $-1 -21.143694633300989 -10.556300192596414 68.389558282988276 0.71933979245794832 0 -0.69465837861970381 I I #
edge $-1 $398 -17.589859306496447 $235 -10.556300192596414 $334 $405 forward 7 unknown #
point $-1 48.198492385631887 -10.556300192596414 5.464929087499252 #
point $-1 44.016664903306101 -10.556300192596414 5.4649290874992502 #
edge $-1 $406 1 $406 0 $238 $-1 forward 7 unknown #
vertex $-1 $239 $407 #
ellipse-curve $-1 44.724325069586385 -14.07307974954643 2.0133561367966308 0.69465837861970381 0 0.71933979245794832 0.71933979245794832 0 -0.69465837861970381 1 I I #
point $-1 46.826918436926938 -14.07307974954643 2.7510987341068631 #
plane-surface $-1 48.198492385631887 0 0 -1 0 0 0 0 1 forward_v I I I I #
coedge $-1 $247 $245 $249 $351 reversed $161 $-1 #
edge $-1 $260 -5.464929087499252 $353 5.464929087499252 $259 $408 forward 7 unknown #
vertex $-1 $351 $409 #
straight-curve $-1 -48.198492385631887 -22.604912002485325 0 0 0 -1 I I #
edge $-1 $349 -22.604912002485325 $353 22.604912002485325 $347 $410 forward 7 unknown #
straight-curve $-1 0 -22.604912002485325 -5.464929087499252 -1 0 0 I I #
vertex $-1 $252 $411 #
straight-curve $-1 0 22.604912002485325 -5.464929087499252 1 0 0 I I #
point $-1 48.198492385631887 22.604912002485325 -5.464929087499252 #
point $-1 48.198492385631887 -22.604912002485325 -5.464929087499252 #
straight-curve $-1 -48.198492385631887 0 5.464929087499252 0 -1 0 I I #
point $-1 -48.198492385631887 22.604912002485325 5.464929087499252 #
point $-1 -48.198492385631887 -22.604912002485325 5.464929087499252 #
straight-curve $-1 48.198492385631887 -22.604912002485325 0 0 0 -1 I I #
straight-curve $-1 48.198492385631887 22.604912002485325 0 0 0 -1 I I #
loop $-1 $-1 $275 $269 #
plane-surface $-1 0 -22.604912002485325 0 0 1 0 0 0 1 forward_v I I I I #
coedge $-1 $286 $277 $273 $366 forward $270 $-1 #
edge $-1 $370 -12.556219175239882 $281 -7.5411664792510038 $272 $412 forward 7 unknown #
edge $-1 $282 7.5411664792510038 $369 12.556219175239882 $364 $413 forward 7 unknown #
coedge $-1 $284 $275 $289 $379 reversed $362 $-1 #
coedge $-1 $275 $284 $286 $377 reversed $362 $-1 #
vertex $-1 $377 $414 #
vertex $-1 $276 $415 #
straight-curve $-1 -41.806999955307809 -22.604912002485325 0 0 0 1 I I #
straight-curve $-1 -21.653499977653905 -17.589859306496447 -5.464929087499252 1 0 0 I I #
straight-curve $-1 -21.653499977653905 -17.589859306496447 5.464929087499252 -1 0 0 I I #
point $-1 -41.806999955307809 -17.589859306496447 5.464929087499252 #
point $-1 -41.806999955307809 -17.589859306496447 -5.464929087499252 #
straight-curve $-1 -44.806999955307809 -22.604912002485325 0 0 0 -1 I I #
edge $-1 $369 41.806999955307809 $287 44.806999955307809 $368 $416 forward 7 unknown #
point $-1 -44.806999955307809 -22.604912002485325 -5.464929087499252 #
edge $-1 $290 -44.806999955307809 $370 -41.806999955307809 $367 $417 forward 7 unknown #
point $-1 -44.806999955307809 -22.604912002485325 5.464929087499252 #
edge $-1 $382 21.692737281965449 $385 25.343893206566204 $295 $418 forward 7 unknown #
vertex $-1 $309 $419 #
straight-curve $-1 -64.521903561783347 19.926151541368775 5.4649290874992538 -1 0 0 I I #
edge $-1 $385 -12.799214399771794 $306 -1.4546598834221687 $305 $420 forward 7 unknown #
vertex $-1 $384 $421 #
straight-curve $-1 -48.198492385631894 19.926151541368775 1.8137731628984852 0.54463902268945019 0 0.83867057594974714 I I #
point $-1 -45.827404080537342 19.926151541368775 5.464929087499252 #
point $-1 -48.198492385631887 8.5815970250191498 1.8137731628984961 #
straight-curve $-1 -48.198492385631887 0 5.464929087499252 0 -1 0 I I #
vertex $-1 $312 $422 #
point $-1 -45.901958145790132 10.85050792828908 3.5140473904842886 #
vertex $-1 $316 $423 #
point $-1 -45.901958145790132 14.253874283193969 3.5140473904842886 #
vertex $-1 $320 $424 #
point $-1 -45.901958145790132 17.657240638098859 3.5140473904842886 #
coedge $-1 $335 $334 $327 $397 forward $324 $-1 #
edge $-1 $398 63.400943563461333 $401 67.439287513006676 $396 $425 forward 7 unknown #
vertex $-1 $339 $426 #
straight-curve $-1 22.90963925586669 -17.589859306496447 5.4649290874992573 1 0 0 I I #
edge $-1 $401 -10.553319431723232 $336 -3.5197603178231986 $335 $427 forward 7 unknown #
vertex $-1 $400 $428 #
straight-curve $-1 -21.143694633300989 -17.589859306496447 68.389558282988276 -0.71933979245794832 0 0.69465837861970381 I I #
point $-1 44.016664903306101 -17.589859306496447 5.4649290874992502 #
point $-1 48.198492385631887 -10.556300192596414 1.4265851379539072 #
straight-curve $-1 48.198492385631887 0 5.464929087499252 0 1 0 I I #
vertex $-1 $342 $429 #
point $-1 45.443664862044329 -14.07307974954643 1.3186977581769272 #
straight-curve $-1 -48.198492385631887 22.604912002485325 0 0 0 -1 I I #
point $-1 -48.198492385631887 -22.604912002485325 -5.464929087499252 #
straight-curve $-1 -48.198492385631887 0 -5.464929087499252 0 1 0 I I #
point $-1 -48.198492385631887 22.604912002485325 -5.464929087499252 #
straight-curve $-1 -41.806999955307809 -10.048692827245443 5.464929087499252 0 1 0 I I #
straight-curve $-1 -41.806999955307809 -10.048692827245443 -5.464929087499252 0 -1 0 I I #
point $-1 -41.806999955307809 -22.604912002485325 -5.464929087499252 #
point $-1 -41.806999955307809 -22.604912002485325 5.464929087499252 #
straight-curve $-1 0 -22.604912002485325 -5.464929087499252 -1 0 0 I I #
straight-curve $-1 0 -22.604912002485325 5.464929087499252 1 0 0 I I #
straight-curve $-1 -48.198492385631887 19.926151541368775 27.1576663694647 0 0 -1 I I #
point $-1 -48.198492385631887 19.926151541368775 5.464929087499252 #
straight-curve $-1 -48.198492385631887 7.1269371415969811 1.8137731628984977 0 -1 0 I I #
point $-1 -48.198492385631887 19.926151541368775 1.8137731628984961 #
point $-1 -45.754942369159984 10.85050792828908 2.8223925911646899 #
point $-1 -45.754942369159984 14.253874283193969 2.8223925911646899 #
point $-1 -45.754942369159984 17.657240638098859 2.8223925911646899 #
straight-curve $-1 48.198492385631887 -17.589859306496447 68.865872650960583 0 0 -1 I I #
point $-1 48.198492385631887 -17.589859306496447 5.464929087499252 #
straight-curve $-1 48.19849238563188 -7.0365398747732151 1.4265851379539214 0 1 0 I I #
point $-1 48.198492385631887 -17.589859306496447 1.4265851379539072 #
point $-1 44.029666690966678 -14.07307974954643 1.2940163443386827 #
End-of-ACIS-data 