500 0 7 0           
7 Unknown 11 ACIS 5.0 NT 24 Fri Mar 26 16:35:38 1999 
-1 9.9999999999999995e-007 1e-010 
body $-1 $7 $-1 $8 #
body $-1 $9 $-1 $10 #
body $-1 $11 $-1 $12 #
body $-1 $13 $-1 $14 #
body $-1 $15 $-1 $16 #
body $-1 $17 $-1 $18 #
body $-1 $19 $-1 $20 #
lump $-1 $-1 $21 $0 #
transform $-1 1 0 0 0 1 0 0 0 1 50.517899105807672 31.161004100370885 12.749507662344197 1 rotate no_reflect no_shear #
lump $-1 $-1 $22 $1 #
transform $-1 1 0 0 0 1 0 0 0 1 50.517899105807672 31.161004100370885 12.749507662344197 1 rotate no_reflect no_shear #
lump $-1 $-1 $23 $2 #
transform $-1 1 0 0 0 1 0 0 0 1 50.517899105807672 31.161004100370885 12.749507662344197 1 rotate no_reflect no_shear #
lump $-1 $-1 $24 $3 #
transform $-1 1 0 0 0 1 0 0 0 1 50.517899105807672 31.161004100370885 12.749507662344197 1 rotate no_reflect no_shear #
lump $-1 $-1 $25 $4 #
transform $-1 1 0 0 0 1 0 0 0 1 50.517899105807672 31.161004100370885 12.749507662344197 1 rotate no_reflect no_shear #
lump $-1 $-1 $26 $5 #
transform $-1 1 0 0 0 1 0 0 0 1 50.517899105807672 31.161004100370885 12.749507662344197 1 rotate no_reflect no_shear #
lump $-1 $-1 $27 $6 #
transform $-1 1 0 0 0 1 0 0 0 1 50.517899105807672 31.161004100370885 12.749507662344197 1 rotate no_reflect no_shear #
shell $-1 $-1 $-1 $28 $-1 $7 #
shell $-1 $-1 $-1 $29 $-1 $9 #
shell $-1 $-1 $-1 $30 $-1 $11 #
shell $-1 $-1 $-1 $31 $-1 $13 #
shell $-1 $-1 $-1 $32 $-1 $15 #
shell $-1 $-1 $-1 $33 $-1 $17 #
shell $-1 $-1 $-1 $34 $-1 $19 #
face $-1 $35 $36 $21 $-1 $37 forward single #
face $-1 $38 $39 $22 $-1 $40 forward single #
face $-1 $41 $42 $23 $-1 $43 reversed single #
face $-1 $44 $45 $24 $-1 $46 forward single #
face $-1 $47 $48 $25 $-1 $49 forward single #
face $-1 $50 $51 $26 $-1 $52 reversed single #
face $-1 $53 $54 $27 $-1 $55 forward single #
face $-1 $56 $57 $21 $-1 $58 reversed single #
loop $-1 $-1 $59 $28 #
plane-surface $-1 0 0 12.749507662344197 0 0 1 1 0 0 forward_v I I I I #
face $-1 $60 $61 $22 $-1 $62 reversed single #
loop $-1 $-1 $63 $29 #
plane-surface $-1 -43.003833363685224 0 -8.6699920510091957 0 0 1 1 0 0 forward_v I I I I #
face $-1 $64 $65 $23 $-1 $66 reversed single #
loop $-1 $-1 $67 $30 #
plane-surface $-1 -31.743931607615892 -117.76558731930784 57.356412171730398 1 0 0 0 0.85716730853699208 -0.51503806187062418 forward_v I I I I #
face $-1 $68 $69 $24 $-1 $70 forward single #
loop $-1 $71 $72 $31 #
cone-surface $-1 -27.632929452142164 -26.080058324719726 7.3226863392583441 0 0.85716730853699208 -0.51503806187062418 2 0 0 1 I I 0 1 2 forward I I I I #
face $-1 $73 $74 $25 $-1 $75 forward single #
loop $-1 $76 $77 $32 #
cone-surface $-1 -21.466426218931574 -26.080058324719726 7.3226863392583441 0 0.85716730853699208 -0.51503806187062418 2 0 0 1 I I 0 1 2 forward I I I I #
face $-1 $78 $79 $26 $-1 $80 reversed single #
loop $-1 $-1 $81 $33 #
plane-surface $-1 26.324092332951089 87.499569559370002 113.24725329885106 1 0 0 0 -0.86602541151947299 -0.49999998660252726 forward_v I I I I #
face $-1 $82 $83 $27 $-1 $84 forward single #
loop $-1 $85 $86 $34 #
cone-surface $-1 38.420995719379391 29.496106110039019 10.457413374765729 0 -0.86602541151947299 -0.49999998660252726 0.5 0 0 1 I I 0 1 0.5 forward I I I I #
face $-1 $87 $88 $21 $-1 $89 reversed single #
loop $-1 $-1 $90 $35 #
plane-surface $-1 0 0 -12.749507662344197 0 0 1 1 0 0 forward_v I I I I #
coedge $-1 $91 $92 $93 $94 forward $36 $-1 #
face $-1 $95 $96 $22 $-1 $97 reversed single #
loop $-1 $-1 $98 $38 #
plane-surface $-1 -35.489767621562777 0 -10.709749856676696 -1 0 0 0 0 1 forward_v I I I I #
coedge $-1 $99 $100 $101 $102 forward $39 $-1 #
face $-1 $103 $104 $23 $-1 $105 reversed single #
loop $-1 $-1 $106 $41 #
plane-surface $-1 -24.549677835536869 -31.161004100370874 5.3191304812685516 0 -0.85716730853699208 0.51503806187062418 1 0 0 forward_v I I I I #
coedge $-1 $107 $108 $109 $110 reversed $42 $-1 #
face $-1 $-1 $111 $24 $-1 $112 forward single #
loop $-1 $113 $114 $44 #
cone-surface $-1 -27.632929452142164 -22.374255679925653 5.0960155448396804 0 0.85716730853699208 -0.51503806187062418 1 0 0 1 I I -0.70710678118654746 0.70710678118654746 1 forward I I I I #
loop $-1 $-1 $115 $31 #
coedge $-1 $72 $72 $116 $117 reversed $45 $-1 #
face $-1 $-1 $118 $25 $-1 $119 forward single #
loop $-1 $120 $121 $47 #
cone-surface $-1 -21.466426218931574 -22.374255679925653 5.0960155448396804 0 0.85716730853699208 -0.51503806187062418 1 0 0 1 I I -0.70710678118654746 0.70710678118654746 1 forward I I I I #
loop $-1 $-1 $122 $32 #
coedge $-1 $77 $77 $123 $124 reversed $48 $-1 #
face $-1 $125 $126 $26 $-1 $127 reversed single #
loop $-1 $-1 $128 $50 #
plane-surface $-1 38.420995719379377 8.3495739033878635e-007 62.729355546667747 0 0.86602541151947299 0.49999998660252726 1 0 0 forward_v I I I I #
coedge $-1 $129 $130 $131 $132 reversed $51 $-1 #
face $-1 $-1 $133 $27 $-1 $134 forward single #
loop $-1 $135 $136 $53 #
cone-surface $-1 38.420995719379391 28.76726459995977 10.036616547758538 0 -0.86602541151947299 -0.49999998660252726 0.25 0 0 1 I I -0.70710678118654746 0.70710678118654746 0.25 forward I I I I #
loop $-1 $-1 $137 $34 #
coedge $-1 $86 $86 $138 $139 reversed $54 $-1 #
face $-1 $140 $141 $21 $-1 $142 reversed single #
loop $-1 $-1 $143 $56 #
plane-surface $-1 0 -31.161004100370885 0 0 1 0 0 0 1 forward_v I I I I #
coedge $-1 $144 $145 $146 $147 forward $57 $-1 #
coedge $-1 $148 $59 $149 $150 forward $36 $-1 #
coedge $-1 $59 $148 $151 $152 forward $36 $-1 #
coedge $-1 $153 $154 $59 $94 reversed $155 $-1 #
edge $-1 $156 -31.161004100370885 $157 31.161004100370885 $93 $158 forward 7 unknown #
face $-1 $159 $160 $22 $-1 $161 reversed single #
loop $-1 $-1 $162 $60 #
plane-surface $-1 0 0 -12.749507662344197 0 0 1 1 0 0 forward_v I I I I #
coedge $-1 $163 $101 $164 $165 reversed $61 $-1 #
coedge $-1 $166 $63 $167 $168 reversed $39 $-1 #
coedge $-1 $63 $166 $169 $170 reversed $39 $-1 #
coedge $-1 $98 $171 $63 $102 reversed $61 $-1 #
edge $-1 $172 -31.161004100370885 $173 31.161004100370885 $101 $174 forward 7 unknown #
face $-1 $175 $176 $23 $-1 $177 forward single #
loop $-1 $-1 $178 $64 #
plane-surface $-1 -17.355424063457846 -117.76558731930784 57.356412171730398 -1 0 0 0 -0.85716730853699208 0.51503806187062418 forward_v I I I I #
coedge $-1 $179 $180 $181 $182 reversed $65 $-1 #
coedge $-1 $108 $67 $183 $184 reversed $42 $-1 #
coedge $-1 $67 $107 $179 $185 reversed $42 $-1 #
coedge $-1 $181 $186 $67 $110 forward $187 $-1 #
edge $-1 $188 15.928698423521002 $189 23.359075604596665 $109 $190 forward 7 unknown #
loop $-1 $-1 $116 $68 #
plane-surface $-1 -24.549677835536869 -31.161004100370874 5.3191304812685516 0 -0.85716730853699208 0.51503806187062418 1 0 0 forward_v I I I I #
loop $-1 $-1 $191 $44 #
coedge $-1 $114 $114 $115 $192 reversed $69 $-1 #
coedge $-1 $115 $115 $114 $192 forward $71 $-1 #
coedge $-1 $116 $116 $72 $117 forward $111 $-1 #
edge $-1 $193 1.4702199255364637e-016 $193 6.2831853071796004 $116 $194 forward 7 unknown #
loop $-1 $-1 $123 $73 #
plane-surface $-1 -24.549677835536869 -31.161004100370874 5.3191304812685516 0 -0.85716730853699208 0.51503806187062418 1 0 0 forward_v I I I I #
loop $-1 $-1 $195 $47 #
coedge $-1 $121 $121 $122 $196 reversed $74 $-1 #
coedge $-1 $122 $122 $121 $196 forward $76 $-1 #
coedge $-1 $123 $123 $77 $124 forward $118 $-1 #
edge $-1 $197 1.4702199255364637e-016 $197 6.2831853071796004 $123 $198 forward 7 unknown #
face $-1 $199 $200 $26 $-1 $201 reversed single #
loop $-1 $-1 $202 $78 #
plane-surface $-1 50.517899105807672 0 0 -1 0 0 0 0 1 forward_v I I I I #
coedge $-1 $203 $204 $205 $206 reversed $79 $-1 #
coedge $-1 $130 $81 $207 $208 reversed $51 $-1 #
coedge $-1 $81 $129 $203 $209 reversed $51 $-1 #
coedge $-1 $205 $210 $81 $132 forward $211 $-1 #
edge $-1 $212 12.588780679314116 $213 14.893906345579108 $131 $214 forward 7 unknown #
loop $-1 $-1 $138 $82 #
plane-surface $-1 38.420995719379377 8.3495739033878635e-007 62.729355546667747 0 0.86602541151947299 0.49999998660252726 1 0 0 forward_v I I I I #
loop $-1 $-1 $215 $53 #
coedge $-1 $136 $136 $137 $216 reversed $83 $-1 #
coedge $-1 $137 $137 $136 $216 forward $85 $-1 #
coedge $-1 $138 $138 $86 $139 forward $133 $-1 #
edge $-1 $217 -2.124793809870731e-015 $217 6.2831853071795987 $138 $218 forward 7 unknown #
face $-1 $219 $220 $21 $-1 $221 reversed single #
loop $-1 $-1 $222 $87 #
plane-surface $-1 -50.517899105807672 0 0 1 0 0 0 0 -1 forward_v I I I I #
coedge $-1 $223 $151 $224 $225 forward $88 $-1 #
coedge $-1 $226 $90 $223 $227 forward $57 $-1 #
coedge $-1 $90 $226 $228 $229 forward $57 $-1 #
coedge $-1 $154 $153 $90 $147 reversed $155 $-1 #
edge $-1 $230 -31.161004100370885 $231 31.161004100370885 $146 $232 forward 7 unknown #
coedge $-1 $92 $91 $233 $234 forward $36 $-1 #
coedge $-1 $235 $236 $91 $150 reversed $220 $-1 #
edge $-1 $157 -50.517899105807672 $237 50.517899105807672 $149 $238 forward 7 unknown #
coedge $-1 $143 $239 $92 $152 reversed $88 $-1 #
edge $-1 $240 -50.517899105807672 $156 50.517899105807672 $151 $241 forward 7 unknown #
coedge $-1 $146 $93 $239 $242 forward $155 $-1 #
coedge $-1 $93 $146 $235 $243 reversed $155 $-1 #
loop $-1 $-1 $153 $219 #
vertex $-1 $94 $244 #
vertex $-1 $94 $245 #
straight-curve $-1 50.517899105807672 0 12.749507662344197 0 1 0 I I #
face $-1 $246 $247 $22 $-1 $248 reversed single #
loop $-1 $-1 $164 $95 #
plane-surface $-1 0 -31.161004100370885 0 0 1 0 0 0 1 forward_v I I I I #
coedge $-1 $249 $250 $163 $251 forward $96 $-1 #
coedge $-1 $171 $98 $162 $251 reversed $61 $-1 #
coedge $-1 $169 $252 $98 $165 forward $160 $-1 #
edge $-1 $253 -7.3946327340058486 $172 -3.3151171226708476 $164 $254 forward 7 unknown #
coedge $-1 $100 $99 $255 $256 reversed $39 $-1 #
coedge $-1 $257 $258 $99 $168 forward $259 $-1 #
edge $-1 $260 -29.01598242396506 $173 -13.987850939720165 $167 $261 forward 7 unknown #
coedge $-1 $262 $164 $100 $170 forward $160 $-1 #
edge $-1 $172 13.987850939720165 $263 29.01598242396506 $169 $264 forward 7 unknown #
coedge $-1 $101 $163 $257 $265 reversed $61 $-1 #
vertex $-1 $170 $266 #
vertex $-1 $168 $267 #
straight-curve $-1 -35.489767621562777 0 -8.6699920510091957 0 1 0 I I #
face $-1 $-1 $187 $23 $-1 $268 reversed single #
loop $-1 $-1 $269 $103 #
plane-surface $-1 0 0 12.749507662344197 0 0 1 1 0 0 forward_v I I I I #
coedge $-1 $270 $271 $272 $273 reversed $104 $-1 #
coedge $-1 $274 $106 $108 $185 forward $65 $-1 #
coedge $-1 $106 $274 $270 $275 forward $65 $-1 #
coedge $-1 $272 $109 $106 $182 forward $187 $-1 #
edge $-1 $189 -19.469092689847457 $276 -5.0805851456894118 $181 $277 forward 7 unknown #
coedge $-1 $278 $279 $107 $184 forward $176 $-1 #
edge $-1 $280 -32.186410438071213 $188 -27.721789559283035 $183 $281 forward 7 unknown #
edge $-1 $189 -2.0715698412831909e-014 $280 8.6685260941154763 $108 $282 forward 7 unknown #
coedge $-1 $109 $272 $278 $283 reversed $187 $-1 #
loop $-1 $-1 $272 $175 #
vertex $-1 $283 $284 #
vertex $-1 $110 $285 #
straight-curve $-1 -31.743931607615892 -31.161004100370889 28.678206085865199 0 0 -1 I I #
coedge $-1 $191 $191 $-1 $286 reversed $113 $-1 #
edge $-1 $287 0 $287 6.2831853071796004 $114 $288 forward 7 unknown #
vertex $-1 $117 $289 #
ellipse-curve $-1 -27.632929452142164 -28.928693660976791 9.0343190718063742 0 -0.85716730853699208 0.51503806187062418 2 0 0 1 I I #
coedge $-1 $195 $195 $-1 $290 reversed $120 $-1 #
edge $-1 $291 0 $291 6.2831853071796004 $121 $292 forward 7 unknown #
vertex $-1 $124 $293 #
ellipse-curve $-1 -21.466426218931574 -28.928693660976791 9.0343190718063742 0 -0.85716730853699208 0.51503806187062418 2 0 0 1 I I #
face $-1 $-1 $211 $26 $-1 $294 forward single #
loop $-1 $-1 $295 $125 #
plane-surface $-1 0 31.161004100370885 0 0 -1 0 0 0 -1 forward_v I I I I #
coedge $-1 $296 $297 $204 $298 forward $126 $-1 #
coedge $-1 $299 $128 $130 $209 forward $79 $-1 #
coedge $-1 $128 $299 $202 $298 reversed $79 $-1 #
coedge $-1 $300 $131 $128 $206 forward $211 $-1 #
edge $-1 $213 7.1135944732614007 $301 31.307401246117976 $205 $302 forward 7 unknown #
coedge $-1 $303 $295 $129 $208 forward $200 $-1 #
edge $-1 $304 -47.866713901525173 $212 -43.874118987081332 $207 $305 forward 7 unknown #
edge $-1 $213 57.711756744680372 $304 62.322008200741799 $130 $306 forward 7 unknown #
coedge $-1 $131 $300 $303 $307 forward $211 $-1 #
loop $-1 $-1 $205 $199 #
vertex $-1 $208 $308 #
vertex $-1 $132 $309 #
straight-curve $-1 26.324092332951089 43.749784779685001 12.7495076623442 0 -1 0 I I #
coedge $-1 $215 $215 $-1 $310 reversed $135 $-1 #
edge $-1 $311 0 $311 6.2831853071796004 $136 $312 forward 7 unknown #
vertex $-1 $139 $313 #
ellipse-curve $-1 38.420995719379391 30.008441267238393 10.753210205122281 0 0.86602541151947299 0.49999998660252726 0.5 0 0 1 I I #
face $-1 $-1 $155 $21 $-1 $314 reversed single #
loop $-1 $-1 $235 $140 #
plane-surface $-1 0 31.161004100370885 0 0 -1 0 0 0 -1 forward_v I I I I #
coedge $-1 $315 $233 $236 $316 forward $141 $-1 #
coedge $-1 $239 $143 $144 $227 reversed $88 $-1 #
coedge $-1 $233 $315 $143 $225 reversed $141 $-1 #
edge $-1 $240 -12.749507662344197 $317 12.749507662344197 $224 $318 forward 7 unknown #
coedge $-1 $145 $144 $315 $319 forward $57 $-1 #
edge $-1 $231 -50.517899105807672 $317 50.517899105807672 $223 $320 forward 7 unknown #
coedge $-1 $236 $235 $145 $229 reversed $220 $-1 #
edge $-1 $321 -50.517899105807672 $230 50.517899105807672 $228 $322 forward 7 unknown #
vertex $-1 $147 $323 #
vertex $-1 $242 $324 #
straight-curve $-1 50.517899105807672 0 -12.749507662344197 0 -1 0 I I #
coedge $-1 $222 $224 $148 $234 reversed $141 $-1 #
edge $-1 $237 -31.161004100370885 $240 31.161004100370885 $233 $325 forward 7 unknown #
coedge $-1 $228 $149 $154 $243 forward $220 $-1 #
coedge $-1 $149 $228 $222 $316 reversed $220 $-1 #
vertex $-1 $150 $326 #
straight-curve $-1 0 31.161004100370885 12.749507662344197 -1 0 0 I I #
coedge $-1 $151 $223 $153 $242 reversed $88 $-1 #
vertex $-1 $234 $327 #
straight-curve $-1 0 -31.161004100370885 12.749507662344197 1 0 0 I I #
edge $-1 $156 -12.749507662344197 $231 12.749507662344197 $153 $328 forward 7 unknown #
edge $-1 $157 -12.749507662344197 $230 12.749507662344197 $154 $329 forward 7 unknown #
point $-1 50.517899105807672 -31.161004100370885 12.749507662344197 #
point $-1 50.517899105807672 31.161004100370885 12.749507662344197 #
face $-1 $-1 $259 $22 $-1 $330 reversed single #
loop $-1 $-1 $255 $159 #
plane-surface $-1 -50.517899105807672 0 0 1 0 0 0 0 -1 forward_v I I I I #
coedge $-1 $331 $162 $252 $332 forward $96 $-1 #
coedge $-1 $162 $331 $333 $334 forward $96 $-1 #
edge $-1 $335 -31.161004100370885 $253 31.161004100370885 $162 $336 forward 7 unknown #
coedge $-1 $164 $262 $249 $332 reversed $160 $-1 #
vertex $-1 $332 $337 #
straight-curve $-1 -35.489767621562777 -31.161004100370885 -5.3548749283383481 0 0 1 I I #
coedge $-1 $338 $339 $166 $256 forward $247 $-1 #
edge $-1 $263 -31.161004100370885 $260 31.161004100370885 $255 $340 forward 7 unknown #
coedge $-1 $333 $167 $171 $265 forward $259 $-1 #
coedge $-1 $167 $333 $338 $341 reversed $259 $-1 #
loop $-1 $-1 $257 $246 #
vertex $-1 $341 $342 #
straight-curve $-1 -21.501916681842612 31.161004100370885 -8.6699920510091957 1 0 0 I I #
coedge $-1 $252 $169 $339 $343 forward $160 $-1 #
vertex $-1 $343 $344 #
straight-curve $-1 -21.501916681842612 -31.161004100370885 -8.6699920510091957 -1 0 0 I I #
edge $-1 $173 3.3151171226708476 $335 7.3946327340058486 $257 $345 forward 7 unknown #
point $-1 -35.489767621562777 -31.161004100370885 -8.6699920510091957 #
point $-1 -35.489767621562777 31.161004100370885 -8.6699920510091957 #
plane-surface $-1 0 -31.161004100370885 0 0 1 0 0 0 1 forward_v I I I I #
coedge $-1 $279 $278 $271 $346 forward $176 $-1 #
coedge $-1 $271 $178 $180 $275 reversed $104 $-1 #
coedge $-1 $178 $270 $269 $346 reversed $104 $-1 #
coedge $-1 $186 $181 $178 $273 forward $187 $-1 #
edge $-1 $276 -23.359075604596665 $347 -15.928698423521002 $272 $348 forward 7 unknown #
coedge $-1 $180 $179 $279 $349 reversed $65 $-1 #
edge $-1 $350 -8.6685260941154763 $276 2.0715698412831909e-014 $270 $351 forward 7 unknown #
vertex $-1 $182 $352 #
straight-curve $-1 -12.274838917768434 -31.161004100370885 5.3191304812685329 1 0 0 I I #
coedge $-1 $269 $183 $186 $283 forward $176 $-1 #
coedge $-1 $183 $269 $274 $349 forward $176 $-1 #
vertex $-1 $184 $353 #
straight-curve $-1 -31.743931607615892 -58.88279365965392 12.749507662344197 0 -1 0 I I #
straight-curve $-1 -31.743931607615892 -31.161004100370874 5.3191304812685516 0 0.51503806187062418 0.85716730853699208 I I #
edge $-1 $188 -31.743931607615892 $347 -17.355424063457846 $186 $354 forward 7 unknown #
point $-1 -31.743931607615892 -31.161004100370885 12.749507662344197 #
point $-1 -31.743931607615892 -31.161004100370885 5.3191304812685338 #
edge $-1 $355 1 $355 0 $191 $-1 forward 7 unknown #
vertex $-1 $192 $356 #
ellipse-curve $-1 -27.632929452142164 -23.231422988462647 5.6110536067103043 0 -0.85716730853699208 0.51503806187062418 2 0 0 1 I I #
point $-1 -25.632929452142164 -28.928693660976805 9.0343190718063831 #
edge $-1 $357 1 $357 0 $195 $-1 forward 7 unknown #
vertex $-1 $196 $358 #
ellipse-curve $-1 -21.466426218931574 -23.231422988462647 5.6110536067103043 0 -0.85716730853699208 0.51503806187062418 2 0 0 1 I I #
point $-1 -19.466426218931574 -28.928693660976805 9.0343190718063831 #
plane-surface $-1 0 0 12.749507662344197 0 0 1 1 0 0 forward_v I I I I #
coedge $-1 $207 $359 $299 $360 forward $200 $-1 #
coedge $-1 $297 $202 $359 $361 reversed $126 $-1 #
coedge $-1 $202 $296 $300 $362 reversed $126 $-1 #
edge $-1 $301 30.549148977592584 $363 35.159400433654007 $202 $364 forward 7 unknown #
coedge $-1 $204 $203 $295 $360 reversed $79 $-1 #
coedge $-1 $210 $205 $297 $362 forward $211 $-1 #
vertex $-1 $362 $365 #
straight-curve $-1 19.210497859689688 28.855878434105893 12.749507662344197 1 0 0 I I #
coedge $-1 $359 $207 $210 $307 reversed $200 $-1 #
vertex $-1 $208 $366 #
straight-curve $-1 26.324092332951089 31.161004100370885 56.623626649425532 0 0 1 I I #
straight-curve $-1 26.324092332951089 8.3495739033878635e-007 62.729355546667747 0 0.49999998660252726 -0.86602541151947299 I I #
edge $-1 $367 -50.517899105807672 $212 -26.324092332951089 $303 $368 forward 7 unknown #
point $-1 26.324092332951089 31.161004100370885 12.749507662344197 #
point $-1 26.324092332951089 28.855878434105893 12.7495076623442 #
edge $-1 $369 1 $369 0 $215 $-1 forward 7 unknown #
vertex $-1 $216 $370 #
ellipse-curve $-1 38.420995719379391 28.983770952839638 10.161616544409169 0 0.86602541151947299 0.49999998660252726 0.5 0 0 1 I I #
point $-1 38.920995719379391 30.0084412672384 10.753210205122286 #
plane-surface $-1 50.517899105807672 0 0 -1 0 0 0 0 1 forward_v I I I I #
coedge $-1 $224 $222 $226 $319 reversed $141 $-1 #
edge $-1 $237 -12.749507662344197 $321 12.749507662344197 $236 $371 forward 7 unknown #
vertex $-1 $319 $372 #
straight-curve $-1 -50.517899105807672 -31.161004100370885 0 0 0 -1 I I #
edge $-1 $317 -31.161004100370885 $321 31.161004100370885 $315 $373 forward 7 unknown #
straight-curve $-1 0 -31.161004100370885 -12.749507662344197 -1 0 0 I I #
vertex $-1 $229 $374 #
straight-curve $-1 0 31.161004100370885 -12.749507662344197 1 0 0 I I #
point $-1 50.517899105807672 31.161004100370885 -12.749507662344197 #
point $-1 50.517899105807672 -31.161004100370885 -12.749507662344197 #
straight-curve $-1 -50.517899105807672 0 12.749507662344197 0 -1 0 I I #
point $-1 -50.517899105807672 31.161004100370885 12.749507662344197 #
point $-1 -50.517899105807672 -31.161004100370885 12.749507662344197 #
straight-curve $-1 50.517899105807672 -31.161004100370885 0 0 0 -1 I I #
straight-curve $-1 50.517899105807672 31.161004100370885 0 0 0 -1 I I #
plane-surface $-1 0 31.161004100370885 0 0 -1 0 0 0 -1 forward_v I I I I #
coedge $-1 $250 $249 $375 $376 forward $96 $-1 #
edge $-1 $253 35.489767621562777 $377 50.517899105807672 $252 $378 forward 7 unknown #
coedge $-1 $258 $257 $250 $334 reversed $259 $-1 #
edge $-1 $379 -50.517899105807672 $335 -35.489767621562777 $333 $380 forward 7 unknown #
vertex $-1 $265 $381 #
straight-curve $-1 -35.489767621562777 0 -12.749507662344197 0 -1 0 I I #
point $-1 -35.489767621562777 -31.161004100370885 -12.749507662344197 #
coedge $-1 $375 $255 $258 $341 forward $247 $-1 #
coedge $-1 $255 $375 $262 $343 reversed $247 $-1 #
straight-curve $-1 -50.517899105807672 0 -8.6699920510091957 0 1 0 I I #
edge $-1 $260 8.6699920510091957 $379 12.749507662344197 $258 $382 forward 7 unknown #
point $-1 -50.517899105807672 31.161004100370885 -8.6699920510091957 #
edge $-1 $263 8.6699920510091957 $377 12.749507662344197 $339 $383 forward 7 unknown #
point $-1 -50.517899105807672 -31.161004100370885 -8.6699920510091957 #
straight-curve $-1 -35.489767621562777 31.161004100370885 -5.3548749283383481 0 0 -1 I I #
edge $-1 $347 27.721789559283035 $350 32.186410438071213 $269 $384 forward 7 unknown #
vertex $-1 $273 $385 #
straight-curve $-1 -17.355424063457846 -31.161004100370889 28.678206085865199 0 0 1 I I #
edge $-1 $350 5.0805851456894118 $280 19.469092689847457 $279 $386 forward 7 unknown #
vertex $-1 $349 $387 #
straight-curve $-1 -17.355424063457846 -31.161004100370874 5.3191304812685516 0 -0.51503806187062418 -0.85716730853699208 I I #
point $-1 -17.355424063457846 -31.161004100370885 5.3191304812685338 #
point $-1 -31.743931607615892 -26.696383221582707 12.749507662344197 #
straight-curve $-1 0 -31.161004100370885 12.749507662344197 1 0 0 I I #
vertex $-1 $286 $388 #
point $-1 -25.632929452142164 -23.231422988462647 5.6110536067103043 #
vertex $-1 $290 $389 #
point $-1 -19.466426218931574 -23.231422988462647 5.6110536067103043 #
coedge $-1 $295 $303 $296 $361 forward $200 $-1 #
edge $-1 $363 -31.307401246117976 $304 -7.1135944732614007 $295 $390 forward 7 unknown #
edge $-1 $367 -12.749507662344197 $363 -8.7569127479003583 $296 $391 forward 7 unknown #
edge $-1 $301 28.855878434105893 $367 31.161004100370885 $297 $392 forward 7 unknown #
vertex $-1 $360 $393 #
straight-curve $-1 50.517899105807672 13.581304354590991 39.205846977233506 0 0.49999998660252726 -0.86602541151947299 I I #
point $-1 50.517899105807665 28.855878434105893 12.7495076623442 #
point $-1 26.324092332951089 31.161004100370885 8.7569127479003583 #
vertex $-1 $362 $394 #
straight-curve $-1 0 31.161004100370885 12.749507662344197 -1 0 0 I I #
vertex $-1 $310 $395 #
point $-1 38.920995719379391 28.983770952839638 10.161616544409169 #
straight-curve $-1 -50.517899105807672 31.161004100370885 0 0 0 -1 I I #
point $-1 -50.517899105807672 -31.161004100370885 -12.749507662344197 #
straight-curve $-1 -50.517899105807672 0 -12.749507662344197 0 1 0 I I #
point $-1 -50.517899105807672 31.161004100370885 -12.749507662344197 #
coedge $-1 $339 $338 $331 $376 reversed $247 $-1 #
edge $-1 $377 -31.161004100370885 $379 31.161004100370885 $375 $396 forward 7 unknown #
vertex $-1 $376 $397 #
straight-curve $-1 0 -31.161004100370885 -12.749507662344197 -1 0 0 I I #
vertex $-1 $334 $398 #
straight-curve $-1 0 31.161004100370885 -12.749507662344197 1 0 0 I I #
point $-1 -35.489767621562777 31.161004100370885 -12.749507662344197 #
straight-curve $-1 -50.517899105807672 31.161004100370885 0 0 0 -1 I I #
straight-curve $-1 -50.517899105807672 -31.161004100370885 0 0 0 -1 I I #
straight-curve $-1 -17.355424063457846 -58.88279365965392 12.749507662344197 0 1 0 I I #
point $-1 -17.355424063457846 -31.161004100370885 12.749507662344197 #
straight-curve $-1 -12.274838917768434 -26.696383221582707 12.749507662344197 -1 0 0 I I #
point $-1 -17.355424063457846 -26.696383221582707 12.749507662344197 #
point $-1 -27.632929452142164 -21.51708837138866 4.5809774829690566 #
point $-1 -21.466426218931574 -21.51708837138866 4.5809774829690566 #
straight-curve $-1 19.210497859689688 31.161004100370889 8.7569127479003619 -1 0 0 I I #
straight-curve $-1 50.517899105807672 31.161004100370885 0 0 0 -1 I I #
straight-curve $-1 50.517899105807672 0 12.749507662344197 0 1 0 I I #
point $-1 50.517899105807665 31.161004100370885 8.7569127479003583 #
point $-1 50.517899105807672 31.161004100370885 12.749507662344197 #
point $-1 38.420995719379391 28.550758247079902 9.9116165511079064 #
straight-curve $-1 -50.517899105807672 0 -12.749507662344197 0 1 0 I I #
point $-1 -50.517899105807672 -31.161004100370885 -12.749507662344197 #
point $-1 -50.517899105807672 31.161004100370885 -12.749507662344197 #
End-of-ACIS-data 