500 0 8 0           
7 Unknown 11 ACIS 5.0 NT 24 Thu Mar 25 15:19:45 1999 
-1 9.9999999999999995e-007 1e-010 
body $-1 $8 $-1 $9 #
body $-1 $10 $-1 $11 #
body $-1 $12 $-1 $13 #
body $-1 $14 $-1 $15 #
body $-1 $16 $-1 $17 #
body $-1 $18 $-1 $19 #
body $-1 $20 $-1 $21 #
body $-1 $22 $-1 $23 #
lump $-1 $-1 $24 $0 #
transform $-1 1 0 0 0 1 0 0 0 1 56.563005462813194 27.283403126358881 11.885645250624403 1 rotate no_reflect no_shear #
lump $-1 $-1 $25 $1 #
transform $-1 1 0 0 0 1 0 0 0 1 56.563005462813194 27.283403126358881 11.885645250624403 1 rotate no_reflect no_shear #
lump $-1 $-1 $26 $2 #
transform $-1 1 0 0 0 1 0 0 0 1 56.563005462813194 27.283403126358881 11.885645250624403 1 rotate no_reflect no_shear #
lump $-1 $-1 $27 $3 #
transform $-1 1 0 0 0 1 0 0 0 1 56.563005462813194 27.283403126358881 11.885645250624403 1 rotate no_reflect no_shear #
lump $-1 $-1 $28 $4 #
transform $-1 1 0 0 0 1 0 0 0 1 56.563005462813194 27.283403126358881 11.885645250624403 1 rotate no_reflect no_shear #
lump $-1 $-1 $29 $5 #
transform $-1 1 0 0 0 1 0 0 0 1 56.563005462813194 27.283403126358881 11.885645250624403 1 rotate no_reflect no_shear #
lump $-1 $-1 $30 $6 #
transform $-1 1 0 0 0 1 0 0 0 1 56.563005462813194 27.283403126358881 11.885645250624403 1 rotate no_reflect no_shear #
lump $-1 $-1 $31 $7 #
transform $-1 1 0 0 0 1 0 0 0 1 56.563005462813194 27.283403126358881 11.885645250624403 1 rotate no_reflect no_shear #
shell $-1 $-1 $-1 $32 $-1 $8 #
shell $-1 $-1 $-1 $33 $-1 $10 #
shell $-1 $-1 $-1 $34 $-1 $12 #
shell $-1 $-1 $-1 $35 $-1 $14 #
shell $-1 $-1 $-1 $36 $-1 $16 #
shell $-1 $-1 $-1 $37 $-1 $18 #
shell $-1 $-1 $-1 $38 $-1 $20 #
shell $-1 $-1 $-1 $39 $-1 $22 #
face $-1 $40 $41 $24 $-1 $42 forward single #
face $-1 $43 $44 $25 $-1 $45 forward single #
face $-1 $46 $47 $26 $-1 $48 reversed single #
face $-1 $49 $50 $27 $-1 $51 forward single #
face $-1 $52 $53 $28 $-1 $54 forward single #
face $-1 $55 $56 $29 $-1 $57 reversed single #
face $-1 $58 $59 $30 $-1 $60 forward single #
face $-1 $61 $62 $31 $-1 $63 forward single #
face $-1 $64 $65 $24 $-1 $66 reversed single #
loop $-1 $-1 $67 $32 #
plane-surface $-1 0 0 11.885645250624403 0 0 1 1 0 0 forward_v I I I I #
face $-1 $68 $69 $25 $-1 $70 reversed single #
loop $-1 $-1 $71 $33 #
plane-surface $-1 0 -23.14448026420558 -0.74541126108577727 0 0 1 1 0 0 forward_v I I I I #
face $-1 $72 $73 $26 $-1 $74 reversed single #
loop $-1 $-1 $75 $34 #
plane-surface $-1 -124.6439392090118 9.6612232475765651 92.641145587708905 0 1 0 -0.6018150307709319 0 0.79863550430605224 forward_v I I I I #
face $-1 $76 $77 $27 $-1 $78 forward single #
loop $-1 $79 $80 $35 #
cone-surface $-1 -49.751095132798483 11.867823097834179 6.4955206349013856 0.6018150307709319 0 -0.79863550430605224 0.39931775215302612 0 0.30090751538546595 1 I I 0 1 0.5 forward I I I I #
face $-1 $81 $82 $28 $-1 $83 forward single #
loop $-1 $84 $85 $36 #
cone-surface $-1 -49.751095132798483 15.177722873220592 6.4955206349013856 0.6018150307709319 0 -0.79863550430605224 0.39931775215302612 0 0.30090751538546595 1 I I 0 1 0.5 forward I I I I #
face $-1 $86 $87 $29 $-1 $88 reversed single #
loop $-1 $-1 $89 $37 #
plane-surface $-1 42.619453220977519 -5.1742279360079628 164.90755397699797 0 -1 0 -0.64278761758704617 0 -0.76604443648966558 forward_v I I I I #
face $-1 $90 $91 $30 $-1 $92 forward single #
loop $-1 $93 $94 $38 #
cone-surface $-1 52.45562412266414 -15.053748983182473 8.3258022246389878 -0.64278761758704617 0 -0.76604443648966558 0.38302221824483279 0 -0.32139380879352308 1 I I 0 1 0.5 forward I I I I #
face $-1 $95 $96 $31 $-1 $97 forward single #
loop $-1 $98 $99 $39 #
cone-surface $-1 52.45562412266414 -9.1260363548777654 8.3258022246389878 -0.64278761758704617 0 -0.76604443648966558 0.38302221824483279 0 -0.32139380879352308 1 I I 0 1 0.5 forward I I I I #
face $-1 $100 $101 $24 $-1 $102 reversed single #
loop $-1 $-1 $103 $40 #
plane-surface $-1 0 0 -11.885645250624403 0 0 1 1 0 0 forward_v I I I I #
coedge $-1 $104 $105 $106 $107 forward $41 $-1 #
face $-1 $108 $109 $25 $-1 $110 reversed single #
loop $-1 $-1 $111 $43 #
plane-surface $-1 0 -23.14448026420558 -5.6326469775005492 0 0 1 1 0 0 forward_v I I I I #
coedge $-1 $112 $113 $114 $115 reversed $44 $-1 #
face $-1 $116 $117 $26 $-1 $118 reversed single #
loop $-1 $-1 $119 $46 #
plane-surface $-1 -56.56300546281318 13.522772985527379 2.2946968019893035 -0.6018150307709319 0 0.79863550430605224 0.79863550430605224 0 0.6018150307709319 forward_v I I I I #
coedge $-1 $120 $121 $122 $123 reversed $47 $-1 #
face $-1 $-1 $124 $27 $-1 $125 forward single #
loop $-1 $126 $127 $49 #
cone-surface $-1 -49.152540155372741 11.867823097834179 5.701211367419404 0.6018150307709319 0 -0.79863550430605224 0.19965887607651306 0 0.15045375769273298 1 I I -0.70710678118654746 0.70710678118654746 0.25 forward I I I I #
loop $-1 $-1 $128 $35 #
coedge $-1 $80 $80 $129 $130 reversed $50 $-1 #
face $-1 $-1 $131 $28 $-1 $132 forward single #
loop $-1 $133 $134 $52 #
cone-surface $-1 -49.152540155372741 15.177722873220592 5.701211367419404 0.6018150307709319 0 -0.79863550430605224 0.19965887607651306 0 0.15045375769273298 1 I I -0.70710678118654746 0.70710678118654746 0.25 forward I I I I #
loop $-1 $-1 $135 $36 #
coedge $-1 $85 $85 $136 $137 reversed $53 $-1 #
face $-1 $138 $139 $29 $-1 $140 reversed single #
loop $-1 $-1 $141 $55 #
plane-surface $-1 -30.096545829032024 -12.089892669030121 78.248002685152755 0.64278761758704617 0 0.76604443648966558 0.76604443648966558 0 -0.64278761758704617 forward_v I I I I #
coedge $-1 $142 $143 $144 $145 reversed $56 $-1 #
face $-1 $-1 $146 $30 $-1 $147 forward single #
loop $-1 $148 $149 $58 #
cone-surface $-1 51.973533409473859 -15.053748983182473 7.7512688972717392 -0.64278761758704617 0 -0.76604443648966558 0.1915111091224164 0 -0.16069690439676154 1 I I -0.70710678118654746 0.70710678118654746 0.25 forward I I I I #
loop $-1 $-1 $150 $38 #
coedge $-1 $94 $94 $151 $152 reversed $59 $-1 #
face $-1 $-1 $153 $31 $-1 $154 forward single #
loop $-1 $155 $156 $61 #
cone-surface $-1 51.973533409473859 -9.1260363548777654 7.7512688972717392 -0.64278761758704617 0 -0.76604443648966558 0.1915111091224164 0 -0.16069690439676154 1 I I -0.70710678118654746 0.70710678118654746 0.25 forward I I I I #
loop $-1 $-1 $157 $39 #
coedge $-1 $99 $99 $158 $159 reversed $62 $-1 #
face $-1 $160 $161 $24 $-1 $162 reversed single #
loop $-1 $-1 $163 $64 #
plane-surface $-1 0 -27.283403126358881 0 0 1 0 0 0 1 forward_v I I I I #
coedge $-1 $164 $165 $166 $167 forward $65 $-1 #
coedge $-1 $168 $67 $169 $170 forward $41 $-1 #
coedge $-1 $67 $168 $171 $172 forward $41 $-1 #
coedge $-1 $173 $174 $67 $107 reversed $175 $-1 #
edge $-1 $176 -27.283403126358881 $177 27.283403126358881 $106 $178 forward 7 unknown #
face $-1 $179 $180 $25 $-1 $181 reversed single #
loop $-1 $-1 $182 $68 #
plane-surface $-1 0 -19.005557402052279 -3.1890291192931635 0 -1 0 0 0 -1 forward_v I I I I #
coedge $-1 $183 $184 $185 $186 reversed $69 $-1 #
coedge $-1 $187 $71 $188 $189 forward $44 $-1 #
coedge $-1 $71 $187 $190 $191 reversed $44 $-1 #
coedge $-1 $192 $193 $71 $115 forward $194 $-1 #
edge $-1 $195 7.4333172699494892 $196 15.711162994256091 $114 $197 forward 7 unknown #
face $-1 $198 $199 $26 $-1 $200 reversed single #
loop $-1 $-1 $201 $72 #
plane-surface $-1 -124.6439392090118 17.384322723478192 92.641145587708905 0 -1 0 0.6018150307709319 0 -0.79863550430605224 forward_v I I I I #
coedge $-1 $202 $203 $204 $205 reversed $73 $-1 #
coedge $-1 $121 $75 $206 $207 reversed $47 $-1 #
coedge $-1 $75 $120 $202 $208 reversed $47 $-1 #
coedge $-1 $204 $209 $75 $123 forward $210 $-1 #
edge $-1 $211 5.758964141692708 $212 18.486582362256136 $122 $213 forward 7 unknown #
loop $-1 $-1 $129 $76 #
plane-surface $-1 -56.56300546281318 13.522772985527379 2.2946968019893035 -0.6018150307709319 0 0.79863550430605224 0.79863550430605224 0 0.6018150307709319 forward_v I I I I #
loop $-1 $-1 $214 $49 #
coedge $-1 $127 $127 $128 $215 reversed $77 $-1 #
coedge $-1 $128 $128 $127 $215 forward $79 $-1 #
coedge $-1 $129 $129 $80 $130 forward $124 $-1 #
edge $-1 $216 0 $216 6.2831853071796004 $129 $217 forward 7 unknown #
loop $-1 $-1 $136 $81 #
plane-surface $-1 -56.56300546281318 13.522772985527379 2.2946968019893035 -0.6018150307709319 0 0.79863550430605224 0.79863550430605224 0 0.6018150307709319 forward_v I I I I #
loop $-1 $-1 $218 $52 #
coedge $-1 $134 $134 $135 $219 reversed $82 $-1 #
coedge $-1 $135 $135 $134 $219 forward $84 $-1 #
coedge $-1 $136 $136 $85 $137 forward $131 $-1 #
edge $-1 $220 0 $220 6.2831853071796004 $136 $221 forward 7 unknown #
face $-1 $222 $223 $29 $-1 $224 forward single #
loop $-1 $-1 $225 $86 #
plane-surface $-1 42.619453220977519 -19.005557402052279 164.90755397699797 0 1 0 0.64278761758704617 0 0.76604443648966558 forward_v I I I I #
coedge $-1 $226 $227 $228 $229 reversed $87 $-1 #
coedge $-1 $143 $89 $230 $231 reversed $56 $-1 #
coedge $-1 $89 $142 $226 $232 reversed $56 $-1 #
coedge $-1 $228 $233 $89 $145 forward $223 $-1 #
edge $-1 $234 -35.253278852324435 $235 -27.681303789613359 $144 $236 forward 7 unknown #
loop $-1 $-1 $151 $90 #
plane-surface $-1 -30.096545829032024 -12.089892669030121 78.248002685152755 0.64278761758704617 0 0.76604443648966558 0.76604443648966558 0 -0.64278761758704617 forward_v I I I I #
loop $-1 $-1 $237 $58 #
coedge $-1 $149 $149 $150 $238 reversed $91 $-1 #
coedge $-1 $150 $150 $149 $238 forward $93 $-1 #
coedge $-1 $151 $151 $94 $152 forward $146 $-1 #
edge $-1 $239 0 $239 6.2831853071796004 $151 $240 forward 7 unknown #
loop $-1 $-1 $158 $95 #
plane-surface $-1 -30.096545829032024 -12.089892669030121 78.248002685152755 0.64278761758704617 0 0.76604443648966558 0.76604443648966558 0 -0.64278761758704617 forward_v I I I I #
loop $-1 $-1 $241 $61 #
coedge $-1 $156 $156 $157 $242 reversed $96 $-1 #
coedge $-1 $157 $157 $156 $242 forward $98 $-1 #
coedge $-1 $158 $158 $99 $159 forward $153 $-1 #
edge $-1 $243 0 $243 6.2831853071796004 $158 $244 forward 7 unknown #
face $-1 $245 $246 $24 $-1 $247 reversed single #
loop $-1 $-1 $248 $100 #
plane-surface $-1 -56.563005462813194 0 0 1 0 0 0 0 -1 forward_v I I I I #
coedge $-1 $249 $171 $250 $251 forward $101 $-1 #
coedge $-1 $252 $103 $249 $253 forward $65 $-1 #
coedge $-1 $103 $252 $254 $255 forward $65 $-1 #
coedge $-1 $174 $173 $103 $167 reversed $175 $-1 #
edge $-1 $256 -27.283403126358881 $257 27.283403126358881 $166 $258 forward 7 unknown #
coedge $-1 $105 $104 $259 $260 forward $41 $-1 #
coedge $-1 $261 $262 $104 $170 reversed $246 $-1 #
edge $-1 $177 -56.563005462813194 $263 56.563005462813194 $169 $264 forward 7 unknown #
coedge $-1 $163 $265 $105 $172 reversed $101 $-1 #
edge $-1 $266 -56.563005462813194 $176 56.563005462813194 $171 $267 forward 7 unknown #
coedge $-1 $166 $106 $265 $268 forward $175 $-1 #
coedge $-1 $106 $166 $261 $269 reversed $175 $-1 #
loop $-1 $-1 $173 $245 #
vertex $-1 $107 $270 #
vertex $-1 $107 $271 #
straight-curve $-1 56.563005462813194 0 11.885645250624403 0 1 0 I I #
face $-1 $272 $273 $25 $-1 $274 reversed single #
loop $-1 $-1 $275 $108 #
plane-surface $-1 -56.563005462813194 0 0 1 0 0 0 0 -1 forward_v I I I I #
coedge $-1 $276 $188 $193 $277 reversed $109 $-1 #
coedge $-1 $278 $111 $279 $280 reversed $69 $-1 #
coedge $-1 $111 $278 $276 $281 forward $69 $-1 #
coedge $-1 $193 $192 $111 $186 forward $194 $-1 #
edge $-1 $282 -15.711162994256091 $283 -7.4333172699494892 $185 $284 forward 7 unknown #
coedge $-1 $113 $112 $275 $285 reversed $44 $-1 #
coedge $-1 $182 $286 $112 $189 reversed $109 $-1 #
edge $-1 $195 -56.563005462813194 $287 56.563005462813194 $188 $288 forward 7 unknown #
coedge $-1 $289 $290 $113 $191 forward $273 $-1 #
edge $-1 $196 -56.563005462813194 $291 56.563005462813194 $190 $292 forward 7 unknown #
coedge $-1 $185 $114 $290 $293 forward $194 $-1 #
coedge $-1 $114 $185 $182 $277 forward $194 $-1 #
loop $-1 $-1 $114 $272 #
vertex $-1 $115 $294 #
vertex $-1 $293 $295 #
straight-curve $-1 56.563005462813194 -11.57224013210279 -0.74541126108577727 0 -1 0 I I #
face $-1 $-1 $210 $26 $-1 $296 forward single #
loop $-1 $-1 $297 $116 #
plane-surface $-1 -56.563005462813194 0 0 1 0 0 0 0 -1 forward_v I I I I #
coedge $-1 $298 $299 $300 $301 reversed $117 $-1 #
coedge $-1 $302 $119 $121 $208 forward $73 $-1 #
coedge $-1 $119 $302 $298 $303 forward $73 $-1 #
coedge $-1 $300 $122 $119 $205 forward $210 $-1 #
edge $-1 $212 2.8998367548128758 $304 10.622936230714503 $204 $305 forward 7 unknown #
coedge $-1 $306 $307 $120 $207 forward $199 $-1 #
edge $-1 $308 -44.025875991865163 $211 -34.434927543230046 $206 $309 forward 7 unknown #
edge $-1 $212 -15.936704731932316 $308 1.7763522597878294e-014 $121 $310 forward 7 unknown #
coedge $-1 $122 $300 $306 $311 forward $210 $-1 #
loop $-1 $-1 $300 $198 #
vertex $-1 $207 $312 #
vertex $-1 $123 $313 #
straight-curve $-1 -62.321969604505902 9.6612232475765651 11.885645250624407 1 0 0 I I #
coedge $-1 $214 $214 $-1 $314 reversed $126 $-1 #
edge $-1 $315 0 $315 6.2831853071796004 $127 $316 forward 7 unknown #
vertex $-1 $130 $317 #
ellipse-curve $-1 -50.199196352531487 11.867823097834179 7.0901710263068454 -0.6018150307709319 0 0.79863550430605224 0.39931775215302612 0 0.30090751538546595 1 I I #
coedge $-1 $218 $218 $-1 $318 reversed $133 $-1 #
edge $-1 $319 0 $319 6.2831853071796004 $134 $320 forward 7 unknown #
vertex $-1 $137 $321 #
ellipse-curve $-1 -50.199196352531487 15.177722873220592 7.0901710263068454 -0.6018150307709319 0 0.79863550430605224 0.39931775215302612 0 0.30090751538546595 1 I I #
face $-1 $-1 $322 $29 $-1 $323 reversed single #
loop $-1 $-1 $144 $138 #
plane-surface $-1 0 0 11.885645250624403 0 0 1 1 0 0 forward_v I I I I #
coedge $-1 $324 $325 $326 $327 reversed $139 $-1 #
coedge $-1 $328 $141 $143 $232 forward $87 $-1 #
coedge $-1 $141 $328 $324 $329 forward $87 $-1 #
coedge $-1 $326 $144 $141 $229 forward $223 $-1 #
edge $-1 $235 -0.87071839850709765 $330 12.960611067537219 $228 $331 forward 7 unknown #
coedge $-1 $332 $333 $142 $231 forward $322 $-1 #
edge $-1 $334 -76.921773353355775 $234 -70.56813173787458 $230 $335 forward 7 unknown #
edge $-1 $235 103.24149939858101 $334 113.12601092562639 $143 $336 forward 7 unknown #
coedge $-1 $144 $326 $332 $337 forward $223 $-1 #
vertex $-1 $231 $338 #
vertex $-1 $145 $339 #
straight-curve $-1 21.309726610488759 -5.1742279360079628 11.885645250624407 -1 0 0 I I #
coedge $-1 $237 $237 $-1 $340 reversed $148 $-1 #
edge $-1 $341 0 $341 6.2831853071796004 $149 $342 forward 7 unknown #
vertex $-1 $152 $343 #
ellipse-curve $-1 52.777017931457657 -15.053748983182473 8.7088244428838095 0.64278761758704617 0 0.76604443648966558 0.38302221824483279 0 -0.32139380879352308 1 I I #
coedge $-1 $241 $241 $-1 $344 reversed $155 $-1 #
edge $-1 $345 0 $345 6.2831853071796004 $156 $346 forward 7 unknown #
vertex $-1 $159 $347 #
ellipse-curve $-1 52.777017931457657 -9.1260363548777654 8.7088244428838095 0.64278761758704617 0 0.76604443648966558 0.38302221824483279 0 -0.32139380879352308 1 I I #
face $-1 $-1 $175 $24 $-1 $348 reversed single #
loop $-1 $-1 $261 $160 #
plane-surface $-1 0 27.283403126358881 0 0 -1 0 0 0 -1 forward_v I I I I #
coedge $-1 $349 $259 $262 $350 forward $161 $-1 #
coedge $-1 $265 $163 $164 $253 reversed $101 $-1 #
coedge $-1 $259 $349 $163 $251 reversed $161 $-1 #
edge $-1 $266 -11.885645250624403 $351 11.885645250624403 $250 $352 forward 7 unknown #
coedge $-1 $165 $164 $349 $353 forward $65 $-1 #
edge $-1 $257 -56.563005462813194 $351 56.563005462813194 $249 $354 forward 7 unknown #
coedge $-1 $262 $261 $165 $255 reversed $246 $-1 #
edge $-1 $355 -56.563005462813194 $256 56.563005462813194 $254 $356 forward 7 unknown #
vertex $-1 $167 $357 #
vertex $-1 $268 $358 #
straight-curve $-1 56.563005462813194 0 -11.885645250624403 0 -1 0 I I #
coedge $-1 $248 $250 $168 $260 reversed $161 $-1 #
edge $-1 $263 -27.283403126358881 $266 27.283403126358881 $259 $359 forward 7 unknown #
coedge $-1 $254 $169 $174 $269 forward $246 $-1 #
coedge $-1 $169 $254 $248 $350 reversed $246 $-1 #
vertex $-1 $170 $360 #
straight-curve $-1 0 27.283403126358881 11.885645250624403 -1 0 0 I I #
coedge $-1 $171 $249 $173 $268 reversed $101 $-1 #
vertex $-1 $260 $361 #
straight-curve $-1 0 -27.283403126358881 11.885645250624403 1 0 0 I I #
edge $-1 $176 -11.885645250624403 $257 11.885645250624403 $173 $362 forward 7 unknown #
edge $-1 $177 -11.885645250624403 $256 11.885645250624403 $174 $363 forward 7 unknown #
point $-1 56.563005462813194 -27.283403126358881 11.885645250624403 #
point $-1 56.563005462813194 27.283403126358881 11.885645250624403 #
face $-1 $-1 $194 $25 $-1 $364 reversed single #
loop $-1 $-1 $190 $179 #
plane-surface $-1 0 -27.283403126358881 0 0 1 0 0 0 1 forward_v I I I I #
coedge $-1 $365 $366 $187 $285 forward $180 $-1 #
coedge $-1 $286 $182 $184 $281 reversed $109 $-1 #
edge $-1 $283 -4.0381324178539675 $195 0.84910329856080446 $193 $367 forward 7 unknown #
coedge $-1 $184 $183 $368 $369 reversed $69 $-1 #
coedge $-1 $290 $289 $183 $280 forward $273 $-1 #
edge $-1 $370 -56.563005462813194 $282 56.563005462813194 $279 $371 forward 7 unknown #
edge $-1 $372 -56.563005462813194 $283 56.563005462813194 $276 $373 forward 7 unknown #
vertex $-1 $280 $374 #
vertex $-1 $186 $375 #
straight-curve $-1 56.563005462813194 -11.57224013210279 -5.6326469775005492 0 1 0 I I #
edge $-1 $291 -15.711162994256091 $287 -7.4333172699494892 $275 $376 forward 7 unknown #
coedge $-1 $188 $276 $365 $377 reversed $109 $-1 #
vertex $-1 $285 $378 #
straight-curve $-1 0 -19.005557402052279 -0.74541126108577727 -1 0 0 I I #
coedge $-1 $279 $190 $366 $379 forward $273 $-1 #
coedge $-1 $190 $279 $192 $293 reversed $273 $-1 #
vertex $-1 $379 $380 #
straight-curve $-1 0 -27.283403126358881 -0.74541126108577727 -1 0 0 I I #
edge $-1 $196 0.74541126108577727 $282 5.6326469775005492 $192 $381 forward 7 unknown #
point $-1 56.563005462813194 -19.005557402052279 -0.74541126108577727 #
point $-1 56.563005462813194 -27.283403126358881 -0.74541126108577727 #
plane-surface $-1 0 0 11.885645250624403 0 0 1 1 0 0 forward_v I I I I #
coedge $-1 $307 $306 $299 $382 forward $199 $-1 #
coedge $-1 $299 $201 $203 $303 reversed $117 $-1 #
coedge $-1 $201 $298 $297 $382 reversed $117 $-1 #
coedge $-1 $209 $204 $201 $301 forward $210 $-1 #
edge $-1 $304 -18.486582362256136 $383 -5.758964141692708 $300 $384 forward 7 unknown #
coedge $-1 $203 $202 $307 $385 reversed $73 $-1 #
edge $-1 $386 -1.7763522597878294e-014 $304 15.936704731932316 $298 $387 forward 7 unknown #
vertex $-1 $205 $388 #
straight-curve $-1 -43.835387242249773 6.7613864927636893 11.885645250624403 0 1 0 I I #
coedge $-1 $297 $206 $209 $311 reversed $199 $-1 #
coedge $-1 $206 $297 $302 $385 forward $199 $-1 #
vertex $-1 $207 $389 #
straight-curve $-1 -56.563005462813194 9.6612232475765651 46.320572793854453 0 0 1 I I #
straight-curve $-1 -56.56300546281318 9.6612232475765651 2.2946968019893035 -0.79863550430605224 0 -0.6018150307709319 I I #
edge $-1 $383 -17.384322723478192 $211 -9.6612232475765651 $306 $390 forward 7 unknown #
point $-1 -56.563005462813194 9.6612232475765651 11.885645250624403 #
point $-1 -43.835387242249766 9.6612232475765651 11.885645250624403 #
edge $-1 $391 1 $391 0 $214 $-1 forward 7 unknown #
vertex $-1 $215 $392 #
ellipse-curve $-1 -49.302993913065471 11.867823097834179 5.900870243495917 -0.6018150307709319 0 0.79863550430605224 0.39931775215302612 0 0.30090751538546595 1 I I #
point $-1 -49.799878600378463 11.867823097834179 7.3910785416923197 #
edge $-1 $393 1 $393 0 $218 $-1 forward 7 unknown #
vertex $-1 $219 $394 #
ellipse-curve $-1 -49.302993913065471 15.177722873220592 5.900870243495917 -0.6018150307709319 0 0.79863550430605224 0.39931775215302612 0 0.30090751538546595 1 I I #
point $-1 -49.799878600378463 15.177722873220592 7.3910785416923197 #
loop $-1 $-1 $230 $222 #
plane-surface $-1 56.563005462813194 0 0 -1 0 0 0 0 1 forward_v I I I I #
coedge $-1 $325 $225 $227 $329 reversed $139 $-1 #
coedge $-1 $225 $324 $395 $396 reversed $139 $-1 #
coedge $-1 $233 $228 $225 $327 forward $223 $-1 #
edge $-1 $330 27.681303789613359 $397 35.253278852324435 $326 $398 forward 7 unknown #
coedge $-1 $227 $226 $333 $399 reversed $87 $-1 #
edge $-1 $400 -113.12601092562639 $330 -103.24149939858101 $324 $401 forward 7 unknown #
vertex $-1 $229 $402 #
straight-curve $-1 48.991030400102105 -6.0449463345150605 11.885645250624414 0 -1 0 I I #
coedge $-1 $395 $230 $233 $337 reversed $322 $-1 #
coedge $-1 $230 $395 $328 $399 forward $322 $-1 #
vertex $-1 $231 $403 #
straight-curve $-1 56.563005462813194 -5.1742279360079628 82.453776988498987 0 0 1 I I #
straight-curve $-1 -30.096545829032024 -5.1742279360079628 78.248002685152755 0.76604443648966558 0 -0.64278761758704617 I I #
edge $-1 $397 -19.005557402052279 $234 -5.1742279360079628 $332 $404 forward 7 unknown #
point $-1 56.563005462813194 -5.1742279360079628 11.885645250624403 #
point $-1 48.991030400102119 -5.1742279360079628 11.885645250624407 #
edge $-1 $405 1 $405 0 $237 $-1 forward 7 unknown #
vertex $-1 $238 $406 #
ellipse-curve $-1 52.134230313870617 -15.053748983182473 7.9427800063941554 0.64278761758704617 0 0.76604443648966558 0.38302221824483279 0 -0.32139380879352308 1 I I #
point $-1 53.160040149702496 -15.053748983182473 8.3874306340902987 #
edge $-1 $407 1 $407 0 $241 $-1 forward 7 unknown #
vertex $-1 $242 $408 #
ellipse-curve $-1 52.134230313870617 -9.1260363548777654 7.9427800063941554 0.64278761758704617 0 0.76604443648966558 0.38302221824483279 0 -0.32139380879352308 1 I I #
point $-1 53.160040149702496 -9.1260363548777654 8.3874306340902987 #
plane-surface $-1 56.563005462813194 0 0 -1 0 0 0 0 1 forward_v I I I I #
coedge $-1 $250 $248 $252 $353 reversed $161 $-1 #
edge $-1 $263 -11.885645250624403 $355 11.885645250624403 $262 $409 forward 7 unknown #
vertex $-1 $353 $410 #
straight-curve $-1 -56.563005462813194 -27.283403126358881 0 0 0 -1 I I #
edge $-1 $351 -27.283403126358881 $355 27.283403126358881 $349 $411 forward 7 unknown #
straight-curve $-1 0 -27.283403126358881 -11.885645250624403 -1 0 0 I I #
vertex $-1 $255 $412 #
straight-curve $-1 0 27.283403126358881 -11.885645250624403 1 0 0 I I #
point $-1 56.563005462813194 27.283403126358881 -11.885645250624403 #
point $-1 56.563005462813194 -27.283403126358881 -11.885645250624403 #
straight-curve $-1 -56.563005462813194 0 11.885645250624403 0 -1 0 I I #
point $-1 -56.563005462813194 27.283403126358881 11.885645250624403 #
point $-1 -56.563005462813194 -27.283403126358881 11.885645250624403 #
straight-curve $-1 56.563005462813194 -27.283403126358881 0 0 0 -1 I I #
straight-curve $-1 56.563005462813194 27.283403126358881 0 0 0 -1 I I #
plane-surface $-1 56.563005462813194 0 0 -1 0 0 0 0 1 forward_v I I I I #
coedge $-1 $368 $275 $286 $377 forward $180 $-1 #
coedge $-1 $275 $368 $289 $379 reversed $180 $-1 #
straight-curve $-1 56.563005462813194 -19.005557402052279 -1.5945145596465817 0 0 1 I I #
coedge $-1 $366 $365 $278 $369 forward $180 $-1 #
edge $-1 $372 7.4333172699494892 $370 15.711162994256091 $368 $413 forward 7 unknown #
vertex $-1 $280 $414 #
straight-curve $-1 0 -27.283403126358881 -5.6326469775005492 1 0 0 I I #
vertex $-1 $369 $415 #
straight-curve $-1 0 -19.005557402052279 -5.6326469775005492 1 0 0 I I #
point $-1 56.563005462813194 -27.283403126358881 -5.6326469775005492 #
point $-1 56.563005462813194 -19.005557402052279 -5.6326469775005492 #
straight-curve $-1 -56.563005462813194 -11.57224013210279 -0.74541126108577727 0 1 0 I I #
edge $-1 $287 -0.84910329856080446 $372 4.0381324178539675 $365 $416 forward 7 unknown #
point $-1 -56.563005462813194 -19.005557402052279 -0.74541126108577727 #
edge $-1 $291 0.74541126108577727 $370 5.6326469775005492 $366 $417 forward 7 unknown #
point $-1 -56.563005462813194 -27.283403126358881 -0.74541126108577727 #
straight-curve $-1 56.563005462813194 -27.283403126358881 0 0 0 -1 I I #
edge $-1 $383 34.434927543230046 $386 44.025875991865163 $297 $418 forward 7 unknown #
vertex $-1 $311 $419 #
straight-curve $-1 -62.321969604505902 17.384322723478192 11.885645250624407 -1 0 0 I I #
edge $-1 $386 -10.622936230714503 $308 -2.8998367548128758 $307 $420 forward 7 unknown #
vertex $-1 $385 $421 #
straight-curve $-1 -56.56300546281318 17.384322723478192 2.2946968019893035 0.79863550430605224 0 0.6018150307709319 I I #
point $-1 -43.835387242249766 17.384322723478192 11.885645250624403 #
point $-1 -56.563005462813194 9.6612232475765651 2.2946968019892928 #
straight-curve $-1 -56.563005462813194 0 11.885645250624403 0 -1 0 I I #
vertex $-1 $314 $422 #
point $-1 -48.903676160912447 11.867823097834179 6.2017777588813834 #
vertex $-1 $318 $423 #
point $-1 -48.903676160912447 15.177722873220592 6.2017777588813834 #
coedge $-1 $333 $332 $325 $396 forward $322 $-1 #
edge $-1 $397 70.56813173787458 $400 76.921773353355775 $395 $424 forward 7 unknown #
vertex $-1 $337 $425 #
straight-curve $-1 21.309726610488759 -19.005557402052279 11.885645250624407 1 0 0 I I #
edge $-1 $400 -12.960611067537219 $334 0.87071839850709765 $333 $426 forward 7 unknown #
vertex $-1 $399 $427 #
straight-curve $-1 -30.096545829032024 -19.005557402052279 78.248002685152755 -0.76604443648966558 0 0.64278761758704617 I I #
point $-1 48.991030400102119 -19.005557402052279 11.885645250624407 #
point $-1 56.563005462813194 -5.1742279360079628 5.5320036351432123 #
straight-curve $-1 56.563005462813194 0 11.885645250624403 0 1 0 I I #
vertex $-1 $340 $428 #
point $-1 52.517252532115457 -15.053748983182473 7.6213861976006321 #
vertex $-1 $344 $429 #
point $-1 52.517252532115457 -9.1260363548777654 7.6213861976006321 #
straight-curve $-1 -56.563005462813194 27.283403126358881 0 0 0 -1 I I #
point $-1 -56.563005462813194 -27.283403126358881 -11.885645250624403 #
straight-curve $-1 -56.563005462813194 0 -11.885645250624403 0 1 0 I I #
point $-1 -56.563005462813194 27.283403126358881 -11.885645250624403 #
straight-curve $-1 -56.563005462813194 -11.57224013210279 -5.6326469775005492 0 -1 0 I I #
point $-1 -56.563005462813194 -27.283403126358881 -5.6326469775005492 #
point $-1 -56.563005462813194 -19.005557402052279 -5.6326469775005492 #
straight-curve $-1 -56.563005462813194 -19.005557402052279 -1.5945145596465817 0 0 -1 I I #
straight-curve $-1 -56.563005462813194 -27.283403126358881 0 0 0 -1 I I #
straight-curve $-1 -56.563005462813194 17.384322723478192 46.320572793854453 0 0 -1 I I #
point $-1 -56.563005462813194 17.384322723478192 11.885645250624403 #
straight-curve $-1 -56.563005462813194 6.7613864927636893 2.2946968019892919 0 -1 0 I I #
point $-1 -56.563005462813194 17.384322723478192 2.2946968019892928 #
point $-1 -49.00208639768001 11.867823097834179 5.501552491342891 #
point $-1 -49.00208639768001 15.177722873220592 5.501552491342891 #
straight-curve $-1 56.563005462813194 -19.005557402052279 82.453776988498987 0 0 -1 I I #
point $-1 56.563005462813194 -19.005557402052279 11.885645250624403 #
straight-curve $-1 56.563005462813187 -6.0449463345150605 5.5320036351432123 0 1 0 I I #
point $-1 56.563005462813194 -19.005557402052279 5.5320036351432123 #
point $-1 51.812836505077101 -15.053748983182473 7.559757788149323 #
point $-1 51.812836505077101 -9.1260363548777654 7.559757788149323 #
End-of-ACIS-data 