500 0 7 0           
7 Unknown 11 ACIS 5.0 NT 24 Fri Mar 26 17:51:50 1999 
-1 9.9999999999999995e-007 1e-010 
body $-1 $7 $-1 $8 #
body $-1 $9 $-1 $10 #
body $-1 $11 $-1 $12 #
body $-1 $13 $-1 $14 #
body $-1 $15 $-1 $16 #
body $-1 $17 $-1 $18 #
body $-1 $19 $-1 $20 #
lump $-1 $-1 $21 $0 #
transform $-1 1 0 0 0 1 0 0 0 1 77.010406811731315 47.77456112752062 19.561807053917619 1 rotate no_reflect no_shear #
lump $-1 $-1 $22 $1 #
transform $-1 1 0 0 0 1 0 0 0 1 77.010406811731315 47.77456112752062 19.561807053917619 1 rotate no_reflect no_shear #
lump $-1 $-1 $23 $2 #
transform $-1 1 0 0 0 1 0 0 0 1 77.010406811731315 47.77456112752062 19.561807053917619 1 rotate no_reflect no_shear #
lump $-1 $-1 $24 $3 #
transform $-1 1 0 0 0 1 0 0 0 1 77.010406811731315 47.77456112752062 19.561807053917619 1 rotate no_reflect no_shear #
lump $-1 $-1 $25 $4 #
transform $-1 1 0 0 0 1 0 0 0 1 77.010406811731315 47.77456112752062 19.561807053917619 1 rotate no_reflect no_shear #
lump $-1 $-1 $26 $5 #
transform $-1 1 0 0 0 1 0 0 0 1 77.010406811731315 47.77456112752062 19.561807053917619 1 rotate no_reflect no_shear #
lump $-1 $-1 $27 $6 #
transform $-1 1 0 0 0 1 0 0 0 1 77.010406811731315 47.77456112752062 19.561807053917619 1 rotate no_reflect no_shear #
shell $-1 $-1 $-1 $28 $-1 $7 #
shell $-1 $-1 $-1 $29 $-1 $9 #
shell $-1 $-1 $-1 $30 $-1 $11 #
shell $-1 $-1 $-1 $31 $-1 $13 #
shell $-1 $-1 $-1 $32 $-1 $15 #
shell $-1 $-1 $-1 $33 $-1 $17 #
shell $-1 $-1 $-1 $34 $-1 $19 #
face $-1 $35 $36 $21 $-1 $37 forward single #
face $-1 $38 $39 $22 $-1 $40 reversed single #
face $-1 $41 $42 $23 $-1 $43 reversed single #
face $-1 $44 $45 $24 $-1 $46 reversed single #
face $-1 $47 $48 $25 $-1 $49 forward single #
face $-1 $50 $51 $26 $-1 $52 forward single #
face $-1 $53 $54 $27 $-1 $55 forward single #
face $-1 $56 $57 $21 $-1 $58 reversed single #
loop $-1 $-1 $59 $28 #
plane-surface $-1 0 0 19.561807053917619 0 0 1 1 0 0 forward_v I I I I #
face $-1 $60 $61 $22 $-1 $62 reversed single #
loop $-1 $-1 $63 $29 #
plane-surface $-1 0 -35.820444535284153 11.039672110386814 0 0 1 1 0 0 forward_v I I I I #
face $-1 $64 $65 $23 $-1 $66 reversed single #
loop $-1 $-1 $67 $30 #
plane-surface $-1 0 35.820444535284146 11.039672110386814 0 0 1 1 0 0 forward_v I I I I #
face $-1 $68 $69 $24 $-1 $70 reversed single #
loop $-1 $-1 $71 $31 #
plane-surface $-1 -31.898753681664289 -18.69338502114573 120.91138080995422 0.70710678939079041 0 0.70710677298230451 0.70710677298230451 0 -0.70710678939079041 forward_v I I I I #
face $-1 $72 $73 $25 $-1 $74 forward single #
loop $-1 $75 $76 $32 #
cone-surface $-1 72.816484246818803 -21.797150774286902 15.367884410904471 -0.70710678939079041 0 -0.70710677298230451 0.35355338649115226 0 -0.35355339469539521 1 I I 0 1 0.5 forward I I I I #
face $-1 $77 $78 $26 $-1 $79 forward single #
loop $-1 $80 $81 $33 #
cone-surface $-1 72.816484246818803 -18.69338502114573 15.367884410904471 -0.70710678939079041 0 -0.70710677298230451 0.35355338649115226 0 -0.35355339469539521 1 I I 0 1 0.5 forward I I I I #
face $-1 $82 $83 $27 $-1 $84 forward single #
loop $-1 $85 $86 $34 #
cone-surface $-1 72.816484246818803 -15.589619268004562 15.367884410904471 -0.70710678939079041 0 -0.70710677298230451 0.35355338649115226 0 -0.35355339469539521 1 I I 0 1 0.5 forward I I I I #
face $-1 $87 $88 $21 $-1 $89 reversed single #
loop $-1 $-1 $90 $35 #
plane-surface $-1 0 0 -19.561807053917619 0 0 1 1 0 0 forward_v I I I I #
coedge $-1 $91 $92 $93 $94 forward $36 $-1 #
face $-1 $95 $96 $22 $-1 $97 reversed single #
loop $-1 $-1 $98 $38 #
plane-surface $-1 0 -23.866327943047686 15.300739582152218 0 -1 0 0 0 -1 forward_v I I I I #
coedge $-1 $99 $100 $101 $102 reversed $39 $-1 #
face $-1 $103 $104 $23 $-1 $105 forward single #
loop $-1 $-1 $106 $41 #
plane-surface $-1 0 23.866327943047679 15.300739582152218 0 1 0 0 0 1 forward_v I I I I #
coedge $-1 $107 $108 $109 $110 reversed $42 $-1 #
face $-1 $111 $112 $24 $-1 $113 forward single #
loop $-1 $-1 $114 $44 #
plane-surface $-1 77.010409338979684 -13.520442099243779 229.82054130334984 0 -1 0 -0.70710678939079041 0 -0.70710677298230451 forward_v I I I I #
coedge $-1 $115 $116 $117 $118 reversed $45 $-1 #
face $-1 $-1 $119 $25 $-1 $120 forward single #
loop $-1 $121 $122 $47 #
cone-surface $-1 72.225579529151759 -21.797150774286902 14.776979706949433 -0.70710678939079041 0 -0.70710677298230451 0.17677669324557613 0 -0.1767766973476976 1 I I -0.70710678118654746 0.70710678118654746 0.25 forward I I I I #
loop $-1 $-1 $123 $32 #
coedge $-1 $76 $76 $124 $125 reversed $48 $-1 #
face $-1 $-1 $126 $26 $-1 $127 forward single #
loop $-1 $128 $129 $50 #
cone-surface $-1 72.225579529151759 -18.69338502114573 14.776979706949433 -0.70710678939079041 0 -0.70710677298230451 0.17677669324557613 0 -0.1767766973476976 1 I I -0.70710678118654746 0.70710678118654746 0.25 forward I I I I #
loop $-1 $-1 $130 $33 #
coedge $-1 $81 $81 $131 $132 reversed $51 $-1 #
face $-1 $-1 $133 $27 $-1 $134 forward single #
loop $-1 $135 $136 $53 #
cone-surface $-1 72.225579529151759 -15.589619268004562 14.776979706949433 -0.70710678939079041 0 -0.70710677298230451 0.17677669324557613 0 -0.1767766973476976 1 I I -0.70710678118654746 0.70710678118654746 0.25 forward I I I I #
loop $-1 $-1 $137 $34 #
coedge $-1 $86 $86 $138 $139 reversed $54 $-1 #
face $-1 $140 $141 $21 $-1 $142 reversed single #
loop $-1 $-1 $143 $56 #
plane-surface $-1 0 -47.77456112752062 0 0 1 0 0 0 1 forward_v I I I I #
coedge $-1 $144 $145 $146 $147 forward $57 $-1 #
coedge $-1 $148 $59 $149 $150 forward $36 $-1 #
coedge $-1 $59 $148 $151 $152 forward $36 $-1 #
coedge $-1 $153 $154 $59 $94 reversed $155 $-1 #
edge $-1 $156 -47.77456112752062 $157 47.77456112752062 $93 $158 forward 7 unknown #
face $-1 $159 $160 $22 $-1 $161 reversed single #
loop $-1 $-1 $162 $60 #
plane-surface $-1 -77.010406811731315 0 0 1 0 0 0 0 -1 forward_v I I I I #
coedge $-1 $163 $164 $165 $166 reversed $61 $-1 #
coedge $-1 $167 $63 $168 $169 reversed $39 $-1 #
coedge $-1 $63 $167 $163 $170 forward $39 $-1 #
coedge $-1 $165 $171 $63 $102 forward $172 $-1 #
edge $-1 $173 -29.864338859878544 $174 -5.9561056754056096 $101 $175 forward 7 unknown #
face $-1 $176 $177 $23 $-1 $178 reversed single #
loop $-1 $-1 $179 $64 #
plane-surface $-1 0 0 19.561807053917619 0 0 1 1 0 0 forward_v I I I I #
coedge $-1 $180 $181 $182 $183 reversed $65 $-1 #
coedge $-1 $184 $67 $180 $185 forward $42 $-1 #
coedge $-1 $67 $184 $186 $187 reversed $42 $-1 #
coedge $-1 $188 $189 $67 $110 forward $177 $-1 #
edge $-1 $190 5.9561056754056061 $191 29.86433885987854 $109 $192 forward 7 unknown #
face $-1 $193 $194 $24 $-1 $195 forward single #
loop $-1 $-1 $196 $68 #
plane-surface $-1 0 0 19.561807053917619 0 0 1 1 0 0 forward_v I I I I #
coedge $-1 $197 $198 $199 $200 reversed $69 $-1 #
coedge $-1 $201 $71 $202 $203 reversed $45 $-1 #
coedge $-1 $71 $201 $197 $204 forward $45 $-1 #
coedge $-1 $199 $205 $71 $118 forward $206 $-1 #
edge $-1 $207 -14.519635432474821 $208 -4.1737495886709137 $117 $209 forward 7 unknown #
loop $-1 $-1 $124 $72 #
plane-surface $-1 -31.898753681664289 -18.69338502114573 120.91138080995422 0.70710678939079041 0 0.70710677298230451 0.70710677298230451 0 -0.70710678939079041 forward_v I I I I #
loop $-1 $-1 $210 $47 #
coedge $-1 $122 $122 $123 $211 reversed $73 $-1 #
coedge $-1 $123 $123 $122 $211 forward $75 $-1 #
coedge $-1 $124 $124 $76 $125 forward $119 $-1 #
edge $-1 $212 0 $212 6.2831853071796004 $124 $213 forward 7 unknown #
loop $-1 $-1 $131 $77 #
plane-surface $-1 -31.898753681664289 -18.69338502114573 120.91138080995422 0.70710678939079041 0 0.70710677298230451 0.70710677298230451 0 -0.70710678939079041 forward_v I I I I #
loop $-1 $-1 $214 $50 #
coedge $-1 $129 $129 $130 $215 reversed $78 $-1 #
coedge $-1 $130 $130 $129 $215 forward $80 $-1 #
coedge $-1 $131 $131 $81 $132 forward $126 $-1 #
edge $-1 $216 0 $216 6.2831853071796004 $131 $217 forward 7 unknown #
loop $-1 $-1 $138 $82 #
plane-surface $-1 -31.898753681664289 -18.69338502114573 120.91138080995422 0.70710678939079041 0 0.70710677298230451 0.70710677298230451 0 -0.70710678939079041 forward_v I I I I #
loop $-1 $-1 $218 $53 #
coedge $-1 $136 $136 $137 $219 reversed $83 $-1 #
coedge $-1 $137 $137 $136 $219 forward $85 $-1 #
coedge $-1 $138 $138 $86 $139 forward $133 $-1 #
edge $-1 $220 0 $220 6.2831853071796004 $138 $221 forward 7 unknown #
face $-1 $222 $223 $21 $-1 $224 reversed single #
loop $-1 $-1 $225 $87 #
plane-surface $-1 -77.010406811731315 0 0 1 0 0 0 0 -1 forward_v I I I I #
coedge $-1 $226 $151 $227 $228 forward $88 $-1 #
coedge $-1 $229 $90 $226 $230 forward $57 $-1 #
coedge $-1 $90 $229 $231 $232 forward $57 $-1 #
coedge $-1 $154 $153 $90 $147 reversed $155 $-1 #
edge $-1 $233 -47.77456112752062 $234 47.77456112752062 $146 $235 forward 7 unknown #
coedge $-1 $92 $91 $236 $237 forward $36 $-1 #
coedge $-1 $238 $239 $91 $150 reversed $223 $-1 #
edge $-1 $157 -77.010406811731315 $240 77.010406811731315 $149 $241 forward 7 unknown #
coedge $-1 $143 $242 $92 $152 reversed $88 $-1 #
edge $-1 $243 -77.010406811731315 $156 77.010406811731315 $151 $244 forward 7 unknown #
coedge $-1 $146 $93 $242 $245 forward $155 $-1 #
coedge $-1 $93 $146 $238 $246 reversed $155 $-1 #
loop $-1 $-1 $153 $222 #
vertex $-1 $94 $247 #
vertex $-1 $94 $248 #
straight-curve $-1 77.010406811731315 0 19.561807053917619 0 1 0 I I #
face $-1 $249 $250 $22 $-1 $251 forward single #
loop $-1 $-1 $168 $95 #
plane-surface $-1 0 -47.77456112752062 0 0 1 0 0 0 1 forward_v I I I I #
coedge $-1 $252 $253 $254 $255 forward $96 $-1 #
coedge $-1 $254 $98 $100 $170 reversed $61 $-1 #
coedge $-1 $98 $254 $256 $257 reversed $61 $-1 #
coedge $-1 $258 $101 $98 $166 forward $172 $-1 #
edge $-1 $174 3.3893023193107048 $259 11.911437262841513 $165 $260 forward 7 unknown #
coedge $-1 $100 $99 $252 $261 reversed $39 $-1 #
coedge $-1 $262 $263 $99 $169 forward $160 $-1 #
edge $-1 $264 -77.010406811731315 $173 77.010406811731315 $168 $265 forward 7 unknown #
edge $-1 $266 -77.010406811731315 $174 77.010406811731315 $163 $267 forward 7 unknown #
coedge $-1 $101 $258 $262 $268 forward $172 $-1 #
loop $-1 $-1 $165 $249 #
vertex $-1 $169 $269 #
vertex $-1 $102 $270 #
straight-curve $-1 77.010406811731315 -17.910222267642077 11.039672110386814 0 1 0 I I #
face $-1 $271 $272 $23 $-1 $273 reversed single #
loop $-1 $-1 $189 $103 #
plane-surface $-1 77.010406811731315 0 0 -1 0 0 0 0 1 forward_v I I I I #
coedge $-1 $274 $275 $181 $276 forward $104 $-1 #
coedge $-1 $277 $106 $107 $185 reversed $65 $-1 #
coedge $-1 $106 $277 $179 $276 reversed $65 $-1 #
coedge $-1 $278 $279 $106 $183 forward $272 $-1 #
edge $-1 $280 3.3893023193107048 $281 11.911437262841513 $182 $282 forward 7 unknown #
coedge $-1 $108 $107 $279 $283 reversed $42 $-1 #
edge $-1 $190 -77.010406811731315 $280 77.010406811731315 $180 $284 forward 7 unknown #
coedge $-1 $285 $286 $108 $187 forward $287 $-1 #
edge $-1 $191 -77.010406811731315 $288 77.010406811731315 $186 $289 forward 7 unknown #
coedge $-1 $290 $109 $286 $291 reversed $177 $-1 #
coedge $-1 $109 $290 $277 $292 forward $177 $-1 #
vertex $-1 $110 $293 #
vertex $-1 $187 $294 #
straight-curve $-1 77.010406811731315 17.910222267642073 11.039672110386814 0 1 0 I I #
face $-1 $-1 $206 $24 $-1 $295 reversed single #
loop $-1 $-1 $202 $111 #
plane-surface $-1 0 -23.866327943047686 15.300739582152218 0 -1 0 0 0 -1 forward_v I I I I #
coedge $-1 $296 $297 $198 $298 forward $112 $-1 #
coedge $-1 $198 $114 $116 $204 reversed $69 $-1 #
coedge $-1 $114 $197 $196 $298 reversed $69 $-1 #
coedge $-1 $299 $117 $114 $200 forward $206 $-1 #
edge $-1 $208 -102.90805286236464 $300 -95.348463597757302 $199 $301 forward 7 unknown #
coedge $-1 $116 $115 $296 $302 reversed $45 $-1 #
coedge $-1 $303 $304 $115 $203 forward $194 $-1 #
edge $-1 $305 94.713026972479881 $207 105.40390051241621 $202 $306 forward 7 unknown #
edge $-1 $307 143.32994008352628 $208 154.02081362346266 $197 $308 forward 7 unknown #
coedge $-1 $117 $299 $303 $309 forward $206 $-1 #
loop $-1 $-1 $199 $193 #
vertex $-1 $203 $310 #
vertex $-1 $118 $311 #
straight-curve $-1 77.010406811731315 -9.3466925105728649 12.002217789310279 0 1 0 I I #
coedge $-1 $210 $210 $-1 $312 reversed $121 $-1 #
edge $-1 $313 0 $313 6.2831853071796004 $122 $314 forward 7 unknown #
vertex $-1 $125 $315 #
ellipse-curve $-1 73.23061226713817 -21.797150774286902 15.782012421613951 0.70710678939079041 0 0.70710677298230451 0.35355338649115226 0 -0.35355339469539521 1 I I #
coedge $-1 $214 $214 $-1 $316 reversed $128 $-1 #
edge $-1 $317 0 $317 6.2831853071796004 $129 $318 forward 7 unknown #
vertex $-1 $132 $319 #
ellipse-curve $-1 73.23061226713817 -18.69338502114573 15.782012421613951 0.70710678939079041 0 0.70710677298230451 0.35355338649115226 0 -0.35355339469539521 1 I I #
coedge $-1 $218 $218 $-1 $320 reversed $135 $-1 #
edge $-1 $321 0 $321 6.2831853071796004 $136 $322 forward 7 unknown #
vertex $-1 $139 $323 #
ellipse-curve $-1 73.23061226713817 -15.589619268004562 15.782012421613951 0.70710678939079041 0 0.70710677298230451 0.35355338649115226 0 -0.35355339469539521 1 I I #
face $-1 $-1 $155 $21 $-1 $324 reversed single #
loop $-1 $-1 $238 $140 #
plane-surface $-1 0 47.77456112752062 0 0 -1 0 0 0 -1 forward_v I I I I #
coedge $-1 $325 $236 $239 $326 forward $141 $-1 #
coedge $-1 $242 $143 $144 $230 reversed $88 $-1 #
coedge $-1 $236 $325 $143 $228 reversed $141 $-1 #
edge $-1 $243 -19.561807053917619 $327 19.561807053917619 $227 $328 forward 7 unknown #
coedge $-1 $145 $144 $325 $329 forward $57 $-1 #
edge $-1 $234 -77.010406811731315 $327 77.010406811731315 $226 $330 forward 7 unknown #
coedge $-1 $239 $238 $145 $232 reversed $223 $-1 #
edge $-1 $331 -77.010406811731315 $233 77.010406811731315 $231 $332 forward 7 unknown #
vertex $-1 $147 $333 #
vertex $-1 $245 $334 #
straight-curve $-1 77.010406811731315 0 -19.561807053917619 0 -1 0 I I #
coedge $-1 $225 $227 $148 $237 reversed $141 $-1 #
edge $-1 $240 -47.77456112752062 $243 47.77456112752062 $236 $335 forward 7 unknown #
coedge $-1 $231 $149 $154 $246 forward $223 $-1 #
coedge $-1 $149 $231 $225 $326 reversed $223 $-1 #
vertex $-1 $150 $336 #
straight-curve $-1 0 47.77456112752062 19.561807053917619 -1 0 0 I I #
coedge $-1 $151 $226 $153 $245 reversed $88 $-1 #
vertex $-1 $237 $337 #
straight-curve $-1 0 -47.77456112752062 19.561807053917619 1 0 0 I I #
edge $-1 $156 -19.561807053917619 $234 19.561807053917619 $153 $338 forward 7 unknown #
edge $-1 $157 -19.561807053917619 $233 19.561807053917619 $154 $339 forward 7 unknown #
point $-1 77.010406811731315 -47.77456112752062 19.561807053917619 #
point $-1 77.010406811731315 47.77456112752062 19.561807053917619 #
face $-1 $-1 $172 $22 $-1 $340 reversed single #
loop $-1 $-1 $256 $159 #
plane-surface $-1 0 0 19.561807053917619 0 0 1 1 0 0 forward_v I I I I #
coedge $-1 $341 $162 $167 $261 forward $96 $-1 #
coedge $-1 $162 $341 $342 $343 reversed $96 $-1 #
coedge $-1 $164 $163 $162 $255 reversed $61 $-1 #
edge $-1 $344 -11.911437262841513 $266 -3.3893023193107048 $162 $345 forward 7 unknown #
coedge $-1 $342 $346 $164 $257 forward $250 $-1 #
edge $-1 $259 -77.010406811731315 $344 77.010406811731315 $256 $347 forward 7 unknown #
coedge $-1 $171 $165 $346 $348 reversed $172 $-1 #
vertex $-1 $166 $349 #
straight-curve $-1 77.010406811731315 -23.866327943047686 7.650369791076109 0 0 1 I I #
edge $-1 $266 5.9561056754056096 $264 29.864338859878544 $252 $350 forward 7 unknown #
coedge $-1 $351 $168 $171 $268 reversed $160 $-1 #
coedge $-1 $168 $351 $341 $352 forward $160 $-1 #
vertex $-1 $169 $353 #
straight-curve $-1 0 -47.77456112752062 11.039672110386814 1 0 0 I I #
vertex $-1 $261 $354 #
straight-curve $-1 0 -23.866327943047686 11.039672110386814 1 0 0 I I #
edge $-1 $355 -19.561807053917619 $173 -11.039672110386814 $171 $356 forward 7 unknown #
point $-1 77.010406811731315 -47.77456112752062 11.039672110386814 #
point $-1 77.010406811731315 -23.866327943047686 11.039672110386814 #
face $-1 $-1 $287 $23 $-1 $357 reversed single #
loop $-1 $-1 $182 $176 #
plane-surface $-1 -77.010406811731315 0 0 1 0 0 0 0 -1 forward_v I I I I #
coedge $-1 $358 $179 $290 $359 forward $104 $-1 #
coedge $-1 $179 $358 $278 $360 forward $104 $-1 #
edge $-1 $281 -77.010406811731315 $361 77.010406811731315 $179 $362 forward 7 unknown #
coedge $-1 $181 $180 $189 $292 reversed $65 $-1 #
coedge $-1 $363 $182 $275 $360 reversed $272 $-1 #
coedge $-1 $182 $363 $184 $283 forward $272 $-1 #
vertex $-1 $283 $364 #
vertex $-1 $183 $365 #
straight-curve $-1 -77.010406811731315 23.866327943047679 7.650369791076109 0 0 1 I I #
edge $-1 $288 -29.86433885987854 $280 -5.9561056754056061 $279 $366 forward 7 unknown #
straight-curve $-1 0 23.866327943047679 11.039672110386814 -1 0 0 I I #
coedge $-1 $367 $186 $363 $368 reversed $287 $-1 #
coedge $-1 $186 $367 $188 $291 forward $287 $-1 #
loop $-1 $-1 $186 $271 #
vertex $-1 $187 $369 #
straight-curve $-1 0 47.77456112752062 11.039672110386814 -1 0 0 I I #
coedge $-1 $189 $188 $274 $359 reversed $177 $-1 #
edge $-1 $370 -19.561807053917619 $191 -11.039672110386814 $188 $371 forward 7 unknown #
edge $-1 $361 -11.911437262841513 $190 -3.3893023193107048 $189 $372 forward 7 unknown #
point $-1 77.010406811731315 23.866327943047679 11.039672110386814 #
point $-1 77.010406811731315 47.774561127520613 11.039672110386814 #
plane-surface $-1 77.010406811731315 0 0 -1 0 0 0 0 1 forward_v I I I I #
coedge $-1 $373 $196 $201 $302 forward $112 $-1 #
coedge $-1 $196 $373 $299 $374 forward $112 $-1 #
edge $-1 $300 -38.505202142241473 $307 -30.945613053055169 $196 $375 forward 7 unknown #
coedge $-1 $205 $199 $297 $374 reversed $206 $-1 #
vertex $-1 $200 $376 #
straight-curve $-1 77.010406811731315 -13.520442099243779 114.91027065167492 0 0 1 I I #
edge $-1 $307 4.1737495886709137 $305 14.519635432474814 $296 $377 forward 7 unknown #
coedge $-1 $304 $202 $205 $309 reversed $194 $-1 #
coedge $-1 $202 $303 $373 $378 reversed $194 $-1 #
vertex $-1 $378 $379 #
straight-curve $-1 2.478594860648812 -23.866327943047686 86.534031469911199 0.70710677298230462 0 -0.70710678939079052 I I #
vertex $-1 $302 $380 #
straight-curve $-1 -31.898753681664289 -13.520442099243779 120.91138080995422 0.70710677298230451 0 -0.70710678939079041 I I #
edge $-1 $381 -11.911437262841513 $207 -4.3518479982341738 $205 $382 forward 7 unknown #
point $-1 77.010406811731315 -23.866327943047686 12.002217789310283 #
point $-1 77.010406811731315 -13.520442099243779 12.002217789310279 #
edge $-1 $383 1 $383 0 $210 $-1 forward 7 unknown #
vertex $-1 $211 $384 #
ellipse-curve $-1 72.40235622649945 -21.797150774286902 14.95375640019501 0.70710678939079041 0 0.70710677298230451 0.35355338649115226 0 -0.35355339469539521 1 I I #
point $-1 73.584165653629299 -21.797150774286902 15.428459026918537 #
edge $-1 $385 1 $385 0 $214 $-1 forward 7 unknown #
vertex $-1 $215 $386 #
ellipse-curve $-1 72.40235622649945 -18.69338502114573 14.95375640019501 0.70710678939079041 0 0.70710677298230451 0.35355338649115226 0 -0.35355339469539521 1 I I #
point $-1 73.584165653629299 -18.69338502114573 15.428459026918537 #
edge $-1 $387 1 $387 0 $218 $-1 forward 7 unknown #
vertex $-1 $219 $388 #
ellipse-curve $-1 72.40235622649945 -15.589619268004562 14.95375640019501 0.70710678939079041 0 0.70710677298230451 0.35355338649115226 0 -0.35355339469539521 1 I I #
point $-1 73.584165653629299 -15.589619268004562 15.428459026918537 #
plane-surface $-1 77.010406811731315 0 0 -1 0 0 0 0 1 forward_v I I I I #
coedge $-1 $227 $225 $229 $329 reversed $141 $-1 #
edge $-1 $240 -19.561807053917619 $331 19.561807053917619 $239 $389 forward 7 unknown #
vertex $-1 $329 $390 #
straight-curve $-1 -77.010406811731315 -47.77456112752062 0 0 0 -1 I I #
edge $-1 $327 -47.77456112752062 $331 47.77456112752062 $325 $391 forward 7 unknown #
straight-curve $-1 0 -47.77456112752062 -19.561807053917619 -1 0 0 I I #
vertex $-1 $232 $392 #
straight-curve $-1 0 47.77456112752062 -19.561807053917619 1 0 0 I I #
point $-1 77.010406811731315 47.77456112752062 -19.561807053917619 #
point $-1 77.010406811731315 -47.77456112752062 -19.561807053917619 #
straight-curve $-1 -77.010406811731315 0 19.561807053917619 0 -1 0 I I #
point $-1 -77.010406811731315 47.77456112752062 19.561807053917619 #
point $-1 -77.010406811731315 -47.77456112752062 19.561807053917619 #
straight-curve $-1 77.010406811731315 -47.77456112752062 0 0 0 -1 I I #
straight-curve $-1 77.010406811731315 47.77456112752062 0 0 0 -1 I I #
plane-surface $-1 77.010406811731315 0 0 -1 0 0 0 0 1 forward_v I I I I #
coedge $-1 $253 $252 $263 $352 reversed $96 $-1 #
coedge $-1 $393 $256 $253 $343 forward $250 $-1 #
edge $-1 $344 23.866327943047686 $394 47.77456112752062 $253 $395 forward 7 unknown #
vertex $-1 $343 $396 #
straight-curve $-1 -77.010406811731315 -23.866327943047686 7.650369791076109 0 0 -1 I I #
coedge $-1 $256 $393 $258 $348 forward $250 $-1 #
straight-curve $-1 0 -23.866327943047686 19.561807053917619 -1 0 0 I I #
edge $-1 $355 -47.77456112752062 $259 -23.866327943047686 $258 $397 forward 7 unknown #
point $-1 77.010406811731315 -23.866327943047686 19.561807053917622 #
straight-curve $-1 -77.010406811731315 -17.910222267642077 11.039672110386814 0 -1 0 I I #
coedge $-1 $263 $262 $393 $398 reversed $160 $-1 #
edge $-1 $394 -19.561807053917619 $264 -11.039672110386814 $341 $399 forward 7 unknown #
point $-1 -77.010406811731315 -47.77456112752062 11.039672110386814 #
point $-1 -77.010406811731315 -23.866327943047686 11.039672110386814 #
vertex $-1 $348 $400 #
straight-curve $-1 77.010406811731315 -47.77456112752062 0 0 0 -1 I I #
plane-surface $-1 0 47.77456112752062 0 0 -1 0 0 0 -1 forward_v I I I I #
coedge $-1 $275 $274 $367 $401 forward $104 $-1 #
edge $-1 $361 23.866327943047679 $370 47.77456112752062 $290 $402 forward 7 unknown #
edge $-1 $403 -47.77456112752062 $281 -23.866327943047679 $278 $404 forward 7 unknown #
vertex $-1 $359 $405 #
straight-curve $-1 0 23.866327943047679 19.561807053917619 1 0 0 I I #
coedge $-1 $279 $278 $285 $368 forward $272 $-1 #
point $-1 -77.010406811731315 23.866327943047679 11.039672110386814 #
point $-1 -77.010406811731315 23.866327943047679 19.561807053917622 #
straight-curve $-1 -77.010406811731315 17.910222267642073 11.039672110386814 0 -1 0 I I #
coedge $-1 $286 $285 $358 $401 reversed $287 $-1 #
edge $-1 $403 -19.561807053917619 $288 -11.039672110386814 $285 $406 forward 7 unknown #
point $-1 -77.010406811731315 47.774561127520613 11.039672110386814 #
vertex $-1 $359 $407 #
straight-curve $-1 77.010406811731315 47.77456112752062 0 0 0 -1 I I #
straight-curve $-1 77.010406811731315 23.866327943047679 7.650369791076109 0 0 -1 I I #
coedge $-1 $297 $296 $304 $378 forward $112 $-1 #
edge $-1 $381 -23.866327943047686 $300 -13.520442099243779 $299 $408 forward 7 unknown #
straight-curve $-1 38.505204669489842 -13.520442099243779 19.561807053917619 -1 0 0 I I #
point $-1 77.010406811731315 -13.520442099243779 19.561807053917619 #
straight-curve $-1 69.450817722545025 -9.3466925105728649 19.561807053917619 0 -1 0 I I #
edge $-1 $305 69.450817722545011 $381 77.010406811731315 $373 $409 forward 7 unknown #
point $-1 69.450817722545011 -23.866327943047679 19.561807053917619 #
point $-1 69.450817722545011 -13.520442099243779 19.561807053917619 #
vertex $-1 $374 $410 #
straight-curve $-1 77.010406811731315 -23.866327943047686 7.650369791076109 0 0 -1 I I #
vertex $-1 $312 $411 #
point $-1 72.755909612990607 -21.797150774286902 14.600203005499614 #
vertex $-1 $316 $412 #
point $-1 72.755909612990607 -18.69338502114573 14.600203005499614 #
vertex $-1 $320 $413 #
point $-1 72.755909612990607 -15.589619268004562 14.600203005499614 #
straight-curve $-1 -77.010406811731315 47.77456112752062 0 0 0 -1 I I #
point $-1 -77.010406811731315 -47.77456112752062 -19.561807053917619 #
straight-curve $-1 -77.010406811731315 0 -19.561807053917619 0 1 0 I I #
point $-1 -77.010406811731315 47.77456112752062 -19.561807053917619 #
coedge $-1 $346 $342 $351 $398 forward $250 $-1 #
vertex $-1 $343 $414 #
straight-curve $-1 -77.010406811731315 0 19.561807053917619 0 -1 0 I I #
point $-1 -77.010406811731315 -23.866327943047686 19.561807053917622 #
straight-curve $-1 77.010406811731315 0 19.561807053917619 0 1 0 I I #
edge $-1 $394 -77.010406811731315 $355 77.010406811731315 $351 $415 forward 7 unknown #
straight-curve $-1 -77.010406811731315 -47.77456112752062 0 0 0 -1 I I #
point $-1 77.010406811731315 -47.77456112752062 19.561807053917619 #
edge $-1 $370 -77.010406811731315 $403 77.010406811731315 $367 $416 forward 7 unknown #
straight-curve $-1 77.010406811731315 0 19.561807053917619 0 1 0 I I #
vertex $-1 $401 $417 #
straight-curve $-1 -77.010406811731315 0 19.561807053917619 0 -1 0 I I #
point $-1 77.010406811731315 23.866327943047679 19.561807053917622 #
straight-curve $-1 -77.010406811731315 47.77456112752062 0 0 0 -1 I I #
point $-1 77.010406811731315 47.77456112752062 19.561807053917619 #
straight-curve $-1 77.010406811731315 0 19.561807053917619 0 1 0 I I #
straight-curve $-1 0 -23.866327943047686 19.561807053917619 1 0 0 I I #
point $-1 77.010406811731315 -23.866327943047686 19.561807053917622 #
point $-1 72.048802831804068 -21.797150774286902 14.600203013703856 #
point $-1 72.048802831804068 -18.69338502114573 14.600203013703856 #
point $-1 72.048802831804068 -15.589619268004562 14.600203013703856 #
point $-1 -77.010406811731315 -47.77456112752062 19.561807053917619 #
straight-curve $-1 0 -47.77456112752062 19.561807053917619 1 0 0 I I #
straight-curve $-1 0 47.77456112752062 19.561807053917619 -1 0 0 I I #
point $-1 -77.010406811731315 47.77456112752062 19.561807053917619 #
End-of-ACIS-data 