500 0 11 0           
7 Unknown 11 ACIS 5.0 NT 24 Thu Mar 25 18:17:28 1999 
-1 9.9999999999999995e-007 1e-010 
body $-1 $11 $-1 $12 #
body $-1 $13 $-1 $14 #
body $-1 $15 $-1 $16 #
body $-1 $17 $-1 $18 #
body $-1 $19 $-1 $20 #
body $-1 $21 $-1 $22 #
body $-1 $23 $-1 $24 #
body $-1 $25 $-1 $26 #
body $-1 $27 $-1 $28 #
body $-1 $29 $-1 $30 #
body $-1 $31 $-1 $32 #
lump $-1 $-1 $33 $0 #
transform $-1 1 0 0 0 1 0 0 0 1 55.337382122257146 33.543569786330629 11.882287765858848 1 rotate no_reflect no_shear #
lump $-1 $-1 $34 $1 #
transform $-1 1 0 0 0 1 0 0 0 1 55.337382122257146 33.543569786330629 11.882287765858848 1 rotate no_reflect no_shear #
lump $-1 $-1 $35 $2 #
transform $-1 1 0 0 0 1 0 0 0 1 55.337382122257146 33.543569786330629 11.882287765858848 1 rotate no_reflect no_shear #
lump $-1 $-1 $36 $3 #
transform $-1 1 0 0 0 1 0 0 0 1 55.337382122257146 33.543569786330629 11.882287765858848 1 rotate no_reflect no_shear #
lump $-1 $-1 $37 $4 #
transform $-1 1 0 0 0 1 0 0 0 1 55.337382122257146 33.543569786330629 11.882287765858848 1 rotate no_reflect no_shear #
lump $-1 $-1 $38 $5 #
transform $-1 1 0 0 0 1 0 0 0 1 55.337382122257146 33.543569786330629 11.882287765858848 1 rotate no_reflect no_shear #
lump $-1 $-1 $39 $6 #
transform $-1 1 0 0 0 1 0 0 0 1 55.337382122257146 33.543569786330629 11.882287765858848 1 rotate no_reflect no_shear #
lump $-1 $-1 $40 $7 #
transform $-1 1 0 0 0 1 0 0 0 1 55.337382122257146 33.543569786330629 11.882287765858848 1 rotate no_reflect no_shear #
lump $-1 $-1 $41 $8 #
transform $-1 1 0 0 0 1 0 0 0 1 55.337382122257146 33.543569786330629 11.882287765858848 1 rotate no_reflect no_shear #
lump $-1 $-1 $42 $9 #
transform $-1 1 0 0 0 1 0 0 0 1 55.337382122257146 33.543569786330629 11.882287765858848 1 rotate no_reflect no_shear #
lump $-1 $-1 $43 $10 #
transform $-1 1 0 0 0 1 0 0 0 1 55.337382122257146 33.543569786330629 11.882287765858848 1 rotate no_reflect no_shear #
shell $-1 $-1 $-1 $44 $-1 $11 #
shell $-1 $-1 $-1 $45 $-1 $13 #
shell $-1 $-1 $-1 $46 $-1 $15 #
shell $-1 $-1 $-1 $47 $-1 $17 #
shell $-1 $-1 $-1 $48 $-1 $19 #
shell $-1 $-1 $-1 $49 $-1 $21 #
shell $-1 $-1 $-1 $50 $-1 $23 #
shell $-1 $-1 $-1 $51 $-1 $25 #
shell $-1 $-1 $-1 $52 $-1 $27 #
shell $-1 $-1 $-1 $53 $-1 $29 #
shell $-1 $-1 $-1 $54 $-1 $31 #
face $-1 $55 $56 $33 $-1 $57 forward single #
face $-1 $58 $59 $34 $-1 $60 reversed single #
face $-1 $61 $62 $35 $-1 $63 reversed single #
face $-1 $64 $65 $36 $-1 $66 forward single #
face $-1 $67 $68 $37 $-1 $69 forward single #
face $-1 $70 $71 $38 $-1 $72 reversed single #
face $-1 $73 $74 $39 $-1 $75 forward single #
face $-1 $76 $77 $40 $-1 $78 forward single #
face $-1 $79 $80 $41 $-1 $81 reversed single #
face $-1 $82 $83 $42 $-1 $84 forward single #
face $-1 $85 $86 $43 $-1 $87 forward single #
face $-1 $88 $89 $33 $-1 $90 reversed single #
loop $-1 $-1 $91 $44 #
plane-surface $-1 0 0 11.882287765858848 0 0 1 1 0 0 forward_v I I I I #
face $-1 $92 $93 $34 $-1 $94 reversed single #
loop $-1 $-1 $95 $45 #
plane-surface $-1 -41.476111751974948 -29.57442803383751 0 1 0 0 0 0 -1 forward_v I I I I #
face $-1 $96 $97 $35 $-1 $98 reversed single #
loop $-1 $-1 $99 $46 #
plane-surface $-1 49.874993065501862 -9.177449239868869 156.64468711202554 0 -1 0 -0.68199836817093118 0 -0.7313536940579346 forward_v I I I I #
face $-1 $100 $101 $36 $-1 $102 forward single #
loop $-1 $103 $104 $47 #
cone-surface $-1 48.7444697789822 -14.959606356015083 5.6866074510743116 -0.68199836817093118 0 -0.7313536940579346 0.18283842351448365 0 -0.17049959204273279 1 I I 0 1 0.25 forward I I I I #
face $-1 $105 $106 $37 $-1 $107 forward single #
loop $-1 $108 $109 $48 #
cone-surface $-1 48.7444697789822 -11.490312086327354 5.6866074510743116 -0.68199836817093118 0 -0.7313536940579346 0.18283842351448365 0 -0.17049959204273279 1 I I 0 1 0.25 forward I I I I #
face $-1 $110 $111 $38 $-1 $112 reversed single #
loop $-1 $-1 $113 $49 #
plane-surface $-1 -150.2041719126936 -17.517815457416312 61.335921192080392 0 1 0 -0.85716730853699208 0 0.51503806187062418 forward_v I I I I #
face $-1 $114 $115 $39 $-1 $116 forward single #
loop $-1 $117 $118 $50 #
cone-surface $-1 -52.030995373327485 -14.751220169401265 7.484124113693964 0.85716730853699208 0 -0.51503806187062418 0.51503806187062418 0 0.85716730853699208 1 I I 0 1 1 forward I I I I #
face $-1 $119 $120 $40 $-1 $121 forward single #
loop $-1 $122 $123 $51 #
cone-surface $-1 -52.030995373327485 -10.601327237378687 7.484124113693964 0.85716730853699208 0 -0.51503806187062418 0.51503806187062418 0 0.85716730853699208 1 I I 0 1 1 forward I I I I #
face $-1 $124 $125 $41 $-1 $126 reversed single #
loop $-1 $-1 $127 $52 #
plane-surface $-1 -150.2041719126936 12.056612576421193 61.335921192080392 0 1 0 -0.85716730853699208 0 0.51503806187062418 forward_v I I I I #
face $-1 $128 $129 $42 $-1 $130 forward single #
loop $-1 $131 $132 $53 #
cone-surface $-1 -52.030995373327485 14.823207864436249 7.484124113693964 0.85716730853699208 0 -0.51503806187062418 0.51503806187062418 0 0.85716730853699208 1 I I 0 1 1 forward I I I I #
face $-1 $133 $134 $43 $-1 $135 forward single #
loop $-1 $136 $137 $54 #
cone-surface $-1 -52.030995373327485 18.973100796458823 7.484124113693964 0.85716730853699208 0 -0.51503806187062418 0.51503806187062418 0 0.85716730853699208 1 I I 0 1 1 forward I I I I #
face $-1 $138 $139 $33 $-1 $140 reversed single #
loop $-1 $-1 $141 $55 #
plane-surface $-1 0 0 -11.882287765858848 0 0 1 1 0 0 forward_v I I I I #
coedge $-1 $142 $143 $144 $145 forward $56 $-1 #
face $-1 $146 $147 $34 $-1 $148 reversed single #
loop $-1 $-1 $149 $58 #
plane-surface $-1 -39.804062413933671 -25.605286281344391 0 0 -1 0 0 0 -1 forward_v I I I I #
coedge $-1 $150 $151 $152 $153 forward $59 $-1 #
face $-1 $154 $155 $35 $-1 $156 reversed single #
loop $-1 $-1 $157 $61 #
plane-surface $-1 -25.6050155469594 -13.224959221171218 75.70228944280899 0.68199836817093118 0 0.7313536940579346 0.7313536940579346 0 -0.68199836817093118 forward_v I I I I #
coedge $-1 $158 $159 $160 $161 reversed $62 $-1 #
face $-1 $-1 $162 $36 $-1 $163 forward single #
loop $-1 $164 $165 $64 #
cone-surface $-1 48.318220798875366 -14.959606356015083 5.2295113922881029 -0.68199836817093118 0 -0.7313536940579346 0.091419211757241825 0 -0.085249796021366397 1 I I -0.70710678118654746 0.70710678118654746 0.125 forward I I I I #
loop $-1 $-1 $166 $47 #
coedge $-1 $104 $104 $167 $168 reversed $65 $-1 #
face $-1 $-1 $169 $37 $-1 $170 forward single #
loop $-1 $171 $172 $67 #
cone-surface $-1 48.318220798875366 -11.490312086327354 5.2295113922881029 -0.68199836817093118 0 -0.7313536940579346 0.091419211757241825 0 -0.085249796021366397 1 I I -0.70710678118654746 0.70710678118654746 0.125 forward I I I I #
loop $-1 $-1 $173 $48 #
coedge $-1 $109 $109 $174 $175 reversed $68 $-1 #
face $-1 $176 $177 $38 $-1 $178 reversed single #
loop $-1 $-1 $179 $70 #
plane-surface $-1 -55.337382122257154 -12.676273703389974 4.3342051175974916 -0.85716730853699208 0 0.51503806187062418 0.51503806187062418 0 0.85716730853699208 forward_v I I I I #
coedge $-1 $180 $181 $182 $183 reversed $71 $-1 #
face $-1 $-1 $184 $39 $-1 $185 forward single #
loop $-1 $186 $187 $73 #
cone-surface $-1 -50.563697698242976 -14.751220169401265 6.6024827547244449 0.85716730853699208 0 -0.51503806187062418 0.25751903093531209 0 0.42858365426849604 1 I I -0.70710678118654746 0.70710678118654746 0.5 forward I I I I #
loop $-1 $-1 $188 $50 #
coedge $-1 $118 $118 $189 $190 reversed $74 $-1 #
face $-1 $-1 $191 $40 $-1 $192 forward single #
loop $-1 $193 $194 $76 #
cone-surface $-1 -50.563697698242976 -10.601327237378687 6.6024827547244449 0.85716730853699208 0 -0.51503806187062418 0.25751903093531209 0 0.42858365426849604 1 I I -0.70710678118654746 0.70710678118654746 0.5 forward I I I I #
loop $-1 $-1 $195 $51 #
coedge $-1 $123 $123 $196 $197 reversed $77 $-1 #
face $-1 $198 $199 $41 $-1 $200 reversed single #
loop $-1 $-1 $201 $79 #
plane-surface $-1 -55.337382122257154 16.898154330447532 4.3342051175974916 -0.85716730853699208 0 0.51503806187062418 0.51503806187062418 0 0.85716730853699208 forward_v I I I I #
coedge $-1 $202 $203 $204 $205 reversed $80 $-1 #
face $-1 $-1 $206 $42 $-1 $207 forward single #
loop $-1 $208 $209 $82 #
cone-surface $-1 -50.563697698242976 14.823207864436249 6.6024827547244449 0.85716730853699208 0 -0.51503806187062418 0.25751903093531209 0 0.42858365426849604 1 I I -0.70710678118654746 0.70710678118654746 0.5 forward I I I I #
loop $-1 $-1 $210 $53 #
coedge $-1 $132 $132 $211 $212 reversed $83 $-1 #
face $-1 $-1 $213 $43 $-1 $214 forward single #
loop $-1 $215 $216 $85 #
cone-surface $-1 -50.563697698242976 18.973100796458823 6.6024827547244449 0.85716730853699208 0 -0.51503806187062418 0.25751903093531209 0 0.42858365426849604 1 I I -0.70710678118654746 0.70710678118654746 0.5 forward I I I I #
loop $-1 $-1 $217 $54 #
coedge $-1 $137 $137 $218 $219 reversed $86 $-1 #
face $-1 $220 $221 $33 $-1 $222 reversed single #
loop $-1 $-1 $223 $88 #
plane-surface $-1 0 -33.543569786330629 0 0 1 0 0 0 1 forward_v I I I I #
coedge $-1 $224 $225 $226 $227 forward $89 $-1 #
coedge $-1 $228 $91 $229 $230 forward $56 $-1 #
coedge $-1 $91 $228 $231 $232 forward $56 $-1 #
coedge $-1 $233 $234 $91 $145 reversed $235 $-1 #
edge $-1 $236 -33.543569786330629 $237 33.543569786330629 $144 $238 forward 7 unknown #
face $-1 $239 $240 $34 $-1 $241 forward single #
loop $-1 $-1 $242 $92 #
plane-surface $-1 -38.132013075892395 -29.57442803383751 0 -1 0 0 0 0 1 forward_v I I I I #
coedge $-1 $243 $244 $245 $246 forward $93 $-1 #
coedge $-1 $247 $95 $248 $249 reversed $59 $-1 #
coedge $-1 $95 $247 $250 $251 reversed $59 $-1 #
coedge $-1 $244 $243 $95 $153 reversed $93 $-1 #
edge $-1 $252 -11.882287765858848 $253 11.882287765858848 $152 $254 forward 7 unknown #
face $-1 $255 $256 $35 $-1 $257 reversed single #
loop $-1 $-1 $258 $96 #
plane-surface $-1 49.874993065501862 -17.272469202473566 156.64468711202554 0 1 0 0.68199836817093118 0 0.7313536940579346 forward_v I I I I #
coedge $-1 $259 $260 $261 $262 reversed $97 $-1 #
coedge $-1 $159 $99 $263 $264 reversed $62 $-1 #
coedge $-1 $99 $158 $259 $265 reversed $62 $-1 #
coedge $-1 $261 $266 $99 $161 forward $267 $-1 #
edge $-1 $268 -30.399885589506216 $269 -17.896059271127246 $160 $270 forward 7 unknown #
loop $-1 $-1 $167 $100 #
plane-surface $-1 -25.6050155469594 -13.224959221171218 75.70228944280899 0.68199836817093118 0 0.7313536940579346 0.7313536940579346 0 -0.68199836817093118 forward_v I I I I #
loop $-1 $-1 $271 $64 #
coedge $-1 $165 $165 $166 $272 reversed $101 $-1 #
coedge $-1 $166 $166 $165 $272 forward $103 $-1 #
coedge $-1 $167 $167 $104 $168 forward $162 $-1 #
edge $-1 $273 0 $273 6.2831853071796004 $167 $274 forward 7 unknown #
loop $-1 $-1 $174 $105 #
plane-surface $-1 -25.6050155469594 -13.224959221171218 75.70228944280899 0.68199836817093118 0 0.7313536940579346 0.7313536940579346 0 -0.68199836817093118 forward_v I I I I #
loop $-1 $-1 $275 $67 #
coedge $-1 $172 $172 $173 $276 reversed $106 $-1 #
coedge $-1 $173 $173 $172 $276 forward $108 $-1 #
coedge $-1 $174 $174 $109 $175 forward $169 $-1 #
edge $-1 $277 0 $277 6.2831853071796004 $174 $278 forward 7 unknown #
face $-1 $279 $280 $38 $-1 $281 reversed single #
loop $-1 $-1 $282 $110 #
plane-surface $-1 -150.2041719126936 -7.8347319493636345 61.335921192080392 0 -1 0 0.85716730853699208 0 -0.51503806187062418 forward_v I I I I #
coedge $-1 $283 $284 $285 $286 reversed $111 $-1 #
coedge $-1 $181 $113 $287 $288 reversed $71 $-1 #
coedge $-1 $113 $180 $283 $289 reversed $71 $-1 #
coedge $-1 $285 $290 $113 $183 forward $291 $-1 #
edge $-1 $292 19.764703834089651 $293 24.300049290316927 $182 $294 forward 7 unknown #
loop $-1 $-1 $189 $114 #
plane-surface $-1 -55.337382122257154 -12.676273703389974 4.3342051175974916 -0.85716730853699208 0 0.51503806187062418 0.51503806187062418 0 0.85716730853699208 forward_v I I I I #
loop $-1 $-1 $295 $73 #
coedge $-1 $187 $187 $188 $296 reversed $115 $-1 #
coedge $-1 $188 $188 $187 $296 forward $117 $-1 #
coedge $-1 $189 $189 $118 $190 forward $184 $-1 #
edge $-1 $297 0 $297 6.2831853071796004 $189 $298 forward 7 unknown #
loop $-1 $-1 $196 $119 #
plane-surface $-1 -55.337382122257154 -12.676273703389974 4.3342051175974916 -0.85716730853699208 0 0.51503806187062418 0.51503806187062418 0 0.85716730853699208 forward_v I I I I #
loop $-1 $-1 $299 $76 #
coedge $-1 $194 $194 $195 $300 reversed $120 $-1 #
coedge $-1 $195 $195 $194 $300 forward $122 $-1 #
coedge $-1 $196 $196 $123 $197 forward $191 $-1 #
edge $-1 $301 0 $301 6.2831853071796004 $196 $302 forward 7 unknown #
face $-1 $303 $304 $41 $-1 $305 forward single #
loop $-1 $-1 $306 $124 #
plane-surface $-1 -150.2041719126936 21.73969608447387 61.335921192080392 0 -1 0 0.85716730853699208 0 -0.51503806187062418 forward_v I I I I #
coedge $-1 $307 $308 $309 $310 reversed $125 $-1 #
coedge $-1 $203 $127 $311 $312 reversed $80 $-1 #
coedge $-1 $127 $202 $307 $313 reversed $80 $-1 #
coedge $-1 $309 $314 $127 $205 forward $304 $-1 #
edge $-1 $315 19.764703834089651 $316 24.300049290316927 $204 $317 forward 7 unknown #
loop $-1 $-1 $211 $128 #
plane-surface $-1 -55.337382122257154 16.898154330447532 4.3342051175974916 -0.85716730853699208 0 0.51503806187062418 0.51503806187062418 0 0.85716730853699208 forward_v I I I I #
loop $-1 $-1 $318 $82 #
coedge $-1 $209 $209 $210 $319 reversed $129 $-1 #
coedge $-1 $210 $210 $209 $319 forward $131 $-1 #
coedge $-1 $211 $211 $132 $212 forward $206 $-1 #
edge $-1 $320 0 $320 6.2831853071796004 $211 $321 forward 7 unknown #
loop $-1 $-1 $218 $133 #
plane-surface $-1 -55.337382122257154 16.898154330447532 4.3342051175974916 -0.85716730853699208 0 0.51503806187062418 0.51503806187062418 0 0.85716730853699208 forward_v I I I I #
loop $-1 $-1 $322 $85 #
coedge $-1 $216 $216 $217 $323 reversed $134 $-1 #
coedge $-1 $217 $217 $216 $323 forward $136 $-1 #
coedge $-1 $218 $218 $137 $219 forward $213 $-1 #
edge $-1 $324 0 $324 6.2831853071796004 $218 $325 forward 7 unknown #
face $-1 $326 $327 $33 $-1 $328 reversed single #
loop $-1 $-1 $329 $138 #
plane-surface $-1 -55.337382122257146 0 0 1 0 0 0 0 -1 forward_v I I I I #
coedge $-1 $330 $231 $331 $332 forward $139 $-1 #
coedge $-1 $333 $141 $330 $334 forward $89 $-1 #
coedge $-1 $141 $333 $335 $336 forward $89 $-1 #
coedge $-1 $234 $233 $141 $227 reversed $235 $-1 #
edge $-1 $337 -33.543569786330629 $338 33.543569786330629 $226 $339 forward 7 unknown #
coedge $-1 $143 $142 $340 $341 forward $56 $-1 #
coedge $-1 $342 $343 $142 $230 reversed $327 $-1 #
edge $-1 $237 -55.337382122257146 $344 55.337382122257146 $229 $345 forward 7 unknown #
coedge $-1 $223 $346 $143 $232 reversed $139 $-1 #
edge $-1 $347 -55.337382122257146 $236 55.337382122257146 $231 $348 forward 7 unknown #
coedge $-1 $226 $144 $346 $349 forward $235 $-1 #
coedge $-1 $144 $226 $342 $350 reversed $235 $-1 #
loop $-1 $-1 $233 $326 #
vertex $-1 $145 $351 #
vertex $-1 $145 $352 #
straight-curve $-1 55.337382122257146 0 11.882287765858848 0 1 0 I I #
face $-1 $353 $354 $34 $-1 $355 reversed single #
loop $-1 $-1 $356 $146 #
plane-surface $-1 0 0 11.882287765858848 0 0 1 1 0 0 forward_v I I I I #
coedge $-1 $357 $358 $359 $360 reversed $147 $-1 #
coedge $-1 $152 $149 $361 $362 reversed $93 $-1 #
coedge $-1 $149 $152 $363 $364 reversed $93 $-1 #
coedge $-1 $358 $357 $149 $246 reversed $147 $-1 #
edge $-1 $365 -11.882287765858848 $366 11.882287765858848 $245 $367 forward 7 unknown #
coedge $-1 $151 $150 $368 $369 reversed $59 $-1 #
coedge $-1 $361 $370 $150 $249 forward $354 $-1 #
edge $-1 $371 -18.756355769411876 $253 -10.818072264425636 $248 $372 forward 7 unknown #
coedge $-1 $373 $363 $151 $251 forward $240 $-1 #
edge $-1 $252 10.818072264425636 $374 18.756355769411876 $250 $375 forward 7 unknown #
vertex $-1 $251 $376 #
vertex $-1 $249 $377 #
straight-curve $-1 -41.476111751974948 -25.605286281344391 0 0 0 -1 I I #
face $-1 $-1 $267 $35 $-1 $378 forward single #
loop $-1 $-1 $379 $154 #
plane-surface $-1 55.337382122257146 0 0 -1 0 0 0 0 1 forward_v I I I I #
coedge $-1 $380 $381 $382 $383 reversed $155 $-1 #
coedge $-1 $384 $157 $159 $265 forward $97 $-1 #
coedge $-1 $157 $384 $380 $385 forward $97 $-1 #
coedge $-1 $382 $160 $157 $262 forward $267 $-1 #
edge $-1 $269 2.5649696292832598 $386 10.659989591887957 $261 $387 forward 7 unknown #
coedge $-1 $388 $389 $158 $264 forward $256 $-1 #
edge $-1 $390 -78.10006272566504 $268 -66.44005579015392 $263 $391 forward 7 unknown #
edge $-1 $269 93.57793897382868 $390 110.67476424451428 $159 $392 forward 7 unknown #
coedge $-1 $160 $382 $388 $393 forward $267 $-1 #
loop $-1 $-1 $382 $255 #
vertex $-1 $264 $394 #
vertex $-1 $161 $395 #
straight-curve $-1 24.937496532750931 -9.177449239868869 11.882287765858848 -1 0 0 I I #
coedge $-1 $271 $271 $-1 $396 reversed $164 $-1 #
edge $-1 $397 0 $397 6.2831853071796004 $165 $398 forward 7 unknown #
vertex $-1 $168 $399 #
ellipse-curve $-1 49.085468963067669 -14.959606356015083 6.0522842981032792 0.68199836817093118 0 0.7313536940579346 0.18283842351448365 0 -0.17049959204273279 1 I I #
coedge $-1 $275 $275 $-1 $400 reversed $171 $-1 #
edge $-1 $401 0 $401 6.2831853071796004 $172 $402 forward 7 unknown #
vertex $-1 $175 $403 #
ellipse-curve $-1 49.085468963067669 -11.490312086327354 6.0522842981032792 0.68199836817093118 0 0.7313536940579346 0.18283842351448365 0 -0.17049959204273279 1 I I #
face $-1 $-1 $291 $38 $-1 $404 forward single #
loop $-1 $-1 $405 $176 #
plane-surface $-1 -55.337382122257146 0 0 1 0 0 0 0 -1 forward_v I I I I #
coedge $-1 $406 $407 $408 $409 reversed $177 $-1 #
coedge $-1 $410 $179 $181 $289 forward $111 $-1 #
coedge $-1 $179 $410 $406 $411 forward $111 $-1 #
coedge $-1 $408 $182 $179 $286 forward $291 $-1 #
edge $-1 $293 -11.179678605721325 $412 -1.4965950976686475 $285 $413 forward 7 unknown #
coedge $-1 $414 $415 $180 $288 forward $280 $-1 #
edge $-1 $416 -26.333755478442693 $292 -18.785672830181348 $287 $417 forward 7 unknown #
edge $-1 $293 -8.8058452219140033 $416 -1.3556693106716273e-014 $181 $418 forward 7 unknown #
coedge $-1 $182 $408 $414 $419 forward $291 $-1 #
loop $-1 $-1 $408 $279 #
vertex $-1 $288 $420 #
vertex $-1 $183 $421 #
straight-curve $-1 -75.102085956346798 -17.517815457416312 11.882287765858848 1 0 0 I I #
coedge $-1 $295 $295 $-1 $422 reversed $186 $-1 #
edge $-1 $423 0 $423 6.2831853071796004 $187 $424 forward 7 unknown #
vertex $-1 $190 $425 #
ellipse-curve $-1 -53.069709394143509 -14.751220169401265 8.108246441728177 -0.85716730853699208 0 0.51503806187062418 0.51503806187062418 0 0.85716730853699208 1 I I #
coedge $-1 $299 $299 $-1 $426 reversed $193 $-1 #
edge $-1 $427 0 $427 6.2831853071796004 $194 $428 forward 7 unknown #
vertex $-1 $197 $429 #
ellipse-curve $-1 -53.069709394143509 -10.601327237378687 8.108246441728177 -0.85716730853699208 0 0.51503806187062418 0.51503806187062418 0 0.85716730853699208 1 I I #
face $-1 $-1 $430 $41 $-1 $431 reversed single #
loop $-1 $-1 $204 $198 #
plane-surface $-1 0 0 11.882287765858848 0 0 1 1 0 0 forward_v I I I I #
coedge $-1 $432 $433 $434 $435 reversed $199 $-1 #
coedge $-1 $436 $201 $203 $313 forward $125 $-1 #
coedge $-1 $201 $436 $432 $437 forward $125 $-1 #
coedge $-1 $434 $204 $201 $310 forward $304 $-1 #
edge $-1 $316 3.6075354111974267 $438 13.290618919250104 $309 $439 forward 7 unknown #
coedge $-1 $440 $441 $202 $312 forward $430 $-1 #
edge $-1 $442 -26.333755478442693 $315 -18.785672830181348 $311 $443 forward 7 unknown #
edge $-1 $316 -8.8058452219140033 $442 -1.3556693106716273e-014 $203 $444 forward 7 unknown #
coedge $-1 $204 $434 $440 $445 forward $304 $-1 #
vertex $-1 $312 $446 #
vertex $-1 $205 $447 #
straight-curve $-1 -75.102085956346798 12.056612576421193 11.882287765858848 1 0 0 I I #
coedge $-1 $318 $318 $-1 $448 reversed $208 $-1 #
edge $-1 $449 0 $449 6.2831853071796004 $209 $450 forward 7 unknown #
vertex $-1 $212 $451 #
ellipse-curve $-1 -53.069709394143509 14.823207864436249 8.108246441728177 -0.85716730853699208 0 0.51503806187062418 0.51503806187062418 0 0.85716730853699208 1 I I #
coedge $-1 $322 $322 $-1 $452 reversed $215 $-1 #
edge $-1 $453 0 $453 6.2831853071796004 $216 $454 forward 7 unknown #
vertex $-1 $219 $455 #
ellipse-curve $-1 -53.069709394143509 18.973100796458823 8.108246441728177 -0.85716730853699208 0 0.51503806187062418 0.51503806187062418 0 0.85716730853699208 1 I I #
face $-1 $-1 $235 $33 $-1 $456 reversed single #
loop $-1 $-1 $342 $220 #
plane-surface $-1 0 33.543569786330629 0 0 -1 0 0 0 -1 forward_v I I I I #
coedge $-1 $457 $340 $343 $458 forward $221 $-1 #
coedge $-1 $346 $223 $224 $334 reversed $139 $-1 #
coedge $-1 $340 $457 $223 $332 reversed $221 $-1 #
edge $-1 $347 -11.882287765858848 $459 11.882287765858848 $331 $460 forward 7 unknown #
coedge $-1 $225 $224 $457 $461 forward $89 $-1 #
edge $-1 $338 -55.337382122257146 $459 55.337382122257146 $330 $462 forward 7 unknown #
coedge $-1 $343 $342 $225 $336 reversed $327 $-1 #
edge $-1 $463 -55.337382122257146 $337 55.337382122257146 $335 $464 forward 7 unknown #
vertex $-1 $227 $465 #
vertex $-1 $349 $466 #
straight-curve $-1 55.337382122257146 0 -11.882287765858848 0 -1 0 I I #
coedge $-1 $329 $331 $228 $341 reversed $221 $-1 #
edge $-1 $344 -33.543569786330629 $347 33.543569786330629 $340 $467 forward 7 unknown #
coedge $-1 $335 $229 $234 $350 forward $327 $-1 #
coedge $-1 $229 $335 $329 $458 reversed $327 $-1 #
vertex $-1 $230 $468 #
straight-curve $-1 0 33.543569786330629 11.882287765858848 -1 0 0 I I #
coedge $-1 $231 $330 $233 $349 reversed $139 $-1 #
vertex $-1 $341 $469 #
straight-curve $-1 0 -33.543569786330629 11.882287765858848 1 0 0 I I #
edge $-1 $236 -11.882287765858848 $338 11.882287765858848 $233 $470 forward 7 unknown #
edge $-1 $237 -11.882287765858848 $337 11.882287765858848 $234 $471 forward 7 unknown #
point $-1 55.337382122257146 -33.543569786330629 11.882287765858848 #
point $-1 55.337382122257146 33.543569786330629 11.882287765858848 #
face $-1 $-1 $472 $34 $-1 $473 reversed single #
loop $-1 $-1 $474 $239 #
plane-surface $-1 0 0 -11.882287765858848 0 0 1 1 0 0 forward_v I I I I #
coedge $-1 $363 $373 $358 $475 forward $240 $-1 #
coedge $-1 $245 $242 $474 $476 reversed $147 $-1 #
coedge $-1 $242 $245 $356 $475 reversed $147 $-1 #
coedge $-1 $477 $478 $242 $360 forward $472 $-1 #
edge $-1 $479 -11.882287765858848 $480 11.882287765858848 $359 $481 forward 7 unknown #
coedge $-1 $474 $248 $243 $362 forward $354 $-1 #
edge $-1 $253 -21.574080545008112 $366 -18.229981868925559 $361 $482 forward 7 unknown #
coedge $-1 $250 $356 $244 $364 forward $240 $-1 #
edge $-1 $365 18.229981868925559 $252 21.574080545008112 $363 $483 forward 7 unknown #
vertex $-1 $364 $484 #
vertex $-1 $362 $485 #
straight-curve $-1 -38.132013075892395 -25.605286281344391 0 0 0 -1 I I #
coedge $-1 $478 $477 $247 $369 forward $472 $-1 #
edge $-1 $374 -11.882287765858848 $371 11.882287765858848 $368 $486 forward 7 unknown #
coedge $-1 $248 $474 $478 $487 forward $354 $-1 #
vertex $-1 $249 $488 #
straight-curve $-1 -41.476111751974948 -14.787214016918755 -11.882287765858848 0 1 0 I I #
coedge $-1 $356 $250 $477 $489 forward $240 $-1 #
vertex $-1 $489 $490 #
straight-curve $-1 -41.476111751974948 -14.787214016918755 11.882287765858848 0 -1 0 I I #
point $-1 -41.476111751974948 -25.605286281344391 11.882287765858848 #
point $-1 -41.476111751974948 -25.605286281344391 -11.882287765858848 #
plane-surface $-1 0 0 11.882287765858848 0 0 1 1 0 0 forward_v I I I I #
coedge $-1 $389 $388 $381 $491 forward $256 $-1 #
coedge $-1 $381 $258 $260 $385 reversed $155 $-1 #
coedge $-1 $258 $380 $379 $491 reversed $155 $-1 #
coedge $-1 $266 $261 $258 $383 forward $267 $-1 #
edge $-1 $386 17.896059271127246 $492 30.399885589506216 $382 $493 forward 7 unknown #
coedge $-1 $260 $259 $389 $494 reversed $97 $-1 #
edge $-1 $495 -110.67476424451428 $386 -93.57793897382868 $380 $496 forward 7 unknown #
vertex $-1 $262 $497 #
straight-curve $-1 42.833555803878177 -6.6124796105856092 11.882287765858848 0 -1 0 I I #
coedge $-1 $379 $263 $266 $393 reversed $256 $-1 #
coedge $-1 $263 $379 $384 $494 forward $256 $-1 #
vertex $-1 $264 $498 #
straight-curve $-1 55.337382122257146 -9.177449239868869 78.322343556012768 0 0 1 I I #
straight-curve $-1 -25.6050155469594 -9.177449239868869 75.70228944280899 0.7313536940579346 0 -0.68199836817093118 I I #
edge $-1 $492 -17.272469202473566 $268 -9.177449239868869 $388 $499 forward 7 unknown #
point $-1 55.337382122257146 -9.177449239868869 11.882287765858848 #
point $-1 42.833555803878177 -9.177449239868869 11.882287765858848 #
edge $-1 $500 1 $500 0 $271 $-1 forward 7 unknown #
vertex $-1 $272 $501 #
ellipse-curve $-1 48.403470594896731 -14.959606356015083 5.320930604045345 0.68199836817093118 0 0.7313536940579346 0.18283842351448365 0 -0.17049959204273279 1 I I #
point $-1 49.268307386582144 -14.959606356015083 5.8817847060605466 #
edge $-1 $502 1 $502 0 $275 $-1 forward 7 unknown #
vertex $-1 $276 $503 #
ellipse-curve $-1 48.403470594896731 -11.490312086327354 5.320930604045345 0.68199836817093118 0 0.7313536940579346 0.18283842351448365 0 -0.17049959204273279 1 I I #
point $-1 49.268307386582144 -11.490312086327354 5.8817847060605466 #
plane-surface $-1 0 0 11.882287765858848 0 0 1 1 0 0 forward_v I I I I #
coedge $-1 $415 $414 $407 $504 forward $280 $-1 #
coedge $-1 $407 $282 $284 $411 reversed $177 $-1 #
coedge $-1 $282 $406 $405 $504 reversed $177 $-1 #
coedge $-1 $290 $285 $282 $409 forward $291 $-1 #
edge $-1 $412 -24.300049290316927 $505 -19.764703834089651 $408 $506 forward 7 unknown #
coedge $-1 $284 $283 $415 $507 reversed $111 $-1 #
edge $-1 $508 1.3556693106716273e-014 $412 8.8058452219140033 $406 $509 forward 7 unknown #
vertex $-1 $286 $510 #
straight-curve $-1 -50.802036666029863 -6.338136851694987 11.882287765858848 0 1 0 I I #
coedge $-1 $405 $287 $290 $419 reversed $280 $-1 #
coedge $-1 $287 $405 $410 $507 forward $280 $-1 #
vertex $-1 $288 $511 #
straight-curve $-1 -55.337382122257146 -17.517815457416312 30.667960596040196 0 0 1 I I #
straight-curve $-1 -55.337382122257154 -17.517815457416312 4.3342051175974916 -0.51503806187062418 0 -0.85716730853699208 I I #
edge $-1 $505 7.8347319493636345 $292 17.517815457416312 $414 $512 forward 7 unknown #
point $-1 -55.337382122257146 -17.517815457416312 11.882287765858848 #
point $-1 -50.802036666029871 -17.517815457416312 11.882287765858848 #
edge $-1 $513 1 $513 0 $295 $-1 forward 7 unknown #
vertex $-1 $296 $514 #
ellipse-curve $-1 -50.992281352511469 -14.751220169401265 6.8600017856597573 -0.85716730853699208 0 0.51503806187062418 0.51503806187062418 0 0.85716730853699208 1 I I #
point $-1 -52.554671332272875 -14.751220169401265 8.9654137502651636 #
edge $-1 $515 1 $515 0 $299 $-1 forward 7 unknown #
vertex $-1 $300 $516 #
ellipse-curve $-1 -50.992281352511469 -10.601327237378687 6.8600017856597573 -0.85716730853699208 0 0.51503806187062418 0.51503806187062418 0 0.85716730853699208 1 I I #
point $-1 -52.554671332272875 -10.601327237378687 8.9654137502651636 #
loop $-1 $-1 $311 $303 #
plane-surface $-1 -55.337382122257146 0 0 1 0 0 0 0 -1 forward_v I I I I #
coedge $-1 $433 $306 $308 $437 reversed $199 $-1 #
coedge $-1 $306 $432 $517 $518 reversed $199 $-1 #
coedge $-1 $314 $309 $306 $435 forward $304 $-1 #
edge $-1 $438 -24.300049290316927 $519 -19.764703834089651 $434 $520 forward 7 unknown #
coedge $-1 $308 $307 $441 $521 reversed $125 $-1 #
edge $-1 $522 1.3556693106716273e-014 $438 8.8058452219140033 $432 $523 forward 7 unknown #
vertex $-1 $310 $524 #
straight-curve $-1 -50.802036666029863 8.4490771652237662 11.882287765858848 0 1 0 I I #
coedge $-1 $517 $311 $314 $445 reversed $430 $-1 #
coedge $-1 $311 $517 $436 $521 forward $430 $-1 #
vertex $-1 $312 $525 #
straight-curve $-1 -55.337382122257146 12.056612576421193 30.667960596040196 0 0 1 I I #
straight-curve $-1 -55.337382122257154 12.056612576421193 4.3342051175974916 -0.51503806187062418 0 -0.85716730853699208 I I #
edge $-1 $519 -21.73969608447387 $315 -12.056612576421193 $440 $526 forward 7 unknown #
point $-1 -55.337382122257146 12.056612576421193 11.882287765858848 #
point $-1 -50.802036666029871 12.056612576421193 11.882287765858848 #
edge $-1 $527 1 $527 0 $318 $-1 forward 7 unknown #
vertex $-1 $319 $528 #
ellipse-curve $-1 -50.992281352511469 14.823207864436249 6.8600017856597573 -0.85716730853699208 0 0.51503806187062418 0.51503806187062418 0 0.85716730853699208 1 I I #
point $-1 -52.554671332272875 14.823207864436249 8.9654137502651636 #
edge $-1 $529 1 $529 0 $322 $-1 forward 7 unknown #
vertex $-1 $323 $530 #
ellipse-curve $-1 -50.992281352511469 18.973100796458823 6.8600017856597573 -0.85716730853699208 0 0.51503806187062418 0.51503806187062418 0 0.85716730853699208 1 I I #
point $-1 -52.554671332272875 18.973100796458823 8.9654137502651636 #
plane-surface $-1 55.337382122257146 0 0 -1 0 0 0 0 1 forward_v I I I I #
coedge $-1 $331 $329 $333 $461 reversed $221 $-1 #
edge $-1 $344 -11.882287765858848 $463 11.882287765858848 $343 $531 forward 7 unknown #
vertex $-1 $461 $532 #
straight-curve $-1 -55.337382122257146 -33.543569786330629 0 0 0 -1 I I #
edge $-1 $459 -33.543569786330629 $463 33.543569786330629 $457 $533 forward 7 unknown #
straight-curve $-1 0 -33.543569786330629 -11.882287765858848 -1 0 0 I I #
vertex $-1 $336 $534 #
straight-curve $-1 0 33.543569786330629 -11.882287765858848 1 0 0 I I #
point $-1 55.337382122257146 33.543569786330629 -11.882287765858848 #
point $-1 55.337382122257146 -33.543569786330629 -11.882287765858848 #
straight-curve $-1 -55.337382122257146 0 11.882287765858848 0 -1 0 I I #
point $-1 -55.337382122257146 33.543569786330629 11.882287765858848 #
point $-1 -55.337382122257146 -33.543569786330629 11.882287765858848 #
straight-curve $-1 55.337382122257146 -33.543569786330629 0 0 0 -1 I I #
straight-curve $-1 55.337382122257146 33.543569786330629 0 0 0 -1 I I #
loop $-1 $-1 $359 $353 #
plane-surface $-1 0 -33.543569786330629 0 0 1 0 0 0 1 forward_v I I I I #
coedge $-1 $370 $361 $357 $476 forward $354 $-1 #
edge $-1 $480 -18.756355769411876 $365 -10.818072264425636 $356 $535 forward 7 unknown #
edge $-1 $366 10.818072264425636 $479 18.756355769411876 $474 $536 forward 7 unknown #
coedge $-1 $368 $359 $373 $489 reversed $472 $-1 #
coedge $-1 $359 $368 $370 $487 reversed $472 $-1 #
vertex $-1 $487 $537 #
vertex $-1 $360 $538 #
straight-curve $-1 -38.132013075892395 -33.543569786330629 0 0 0 1 I I #
straight-curve $-1 -19.902031206966836 -25.605286281344391 -11.882287765858848 1 0 0 I I #
straight-curve $-1 -19.902031206966836 -25.605286281344391 11.882287765858848 -1 0 0 I I #
point $-1 -38.132013075892395 -25.605286281344391 11.882287765858848 #
point $-1 -38.132013075892395 -25.605286281344391 -11.882287765858848 #
straight-curve $-1 -41.476111751974948 -33.543569786330629 0 0 0 -1 I I #
edge $-1 $479 38.132013075892395 $371 41.476111751974948 $478 $539 forward 7 unknown #
point $-1 -41.476111751974948 -33.543569786330629 -11.882287765858848 #
edge $-1 $374 -41.476111751974948 $480 -38.132013075892395 $477 $540 forward 7 unknown #
point $-1 -41.476111751974948 -33.543569786330629 11.882287765858848 #
edge $-1 $492 66.44005579015392 $495 78.10006272566504 $379 $541 forward 7 unknown #
vertex $-1 $393 $542 #
straight-curve $-1 24.937496532750931 -17.272469202473566 11.882287765858848 1 0 0 I I #
edge $-1 $495 -10.659989591887957 $390 -2.5649696292832598 $389 $543 forward 7 unknown #
vertex $-1 $494 $544 #
straight-curve $-1 -25.6050155469594 -17.272469202473566 75.70228944280899 -0.7313536940579346 0 0.68199836817093118 I I #
point $-1 42.833555803878177 -17.272469202473566 11.882287765858848 #
point $-1 55.337382122257146 -9.177449239868869 0.22228083034772794 #
straight-curve $-1 55.337382122257146 0 11.882287765858848 0 1 0 I I #
vertex $-1 $396 $545 #
point $-1 48.586309018411214 -14.959606356015083 5.1504310120026116 #
vertex $-1 $400 $546 #
point $-1 48.586309018411214 -11.490312086327354 5.1504310120026116 #
edge $-1 $505 18.785672830181348 $508 26.333755478442693 $405 $547 forward 7 unknown #
vertex $-1 $419 $548 #
straight-curve $-1 -75.102085956346798 -7.8347319493636345 11.882287765858848 -1 0 0 I I #
edge $-1 $508 1.4965950976686475 $416 11.179678605721325 $415 $549 forward 7 unknown #
vertex $-1 $507 $550 #
straight-curve $-1 -55.337382122257154 -7.8347319493636345 4.3342051175974916 0.51503806187062418 0 0.85716730853699208 I I #
point $-1 -50.802036666029871 -7.8347319493636345 11.882287765858848 #
point $-1 -55.337382122257146 -17.517815457416312 4.3342051175975032 #
straight-curve $-1 -55.337382122257146 0 11.882287765858848 0 -1 0 I I #
vertex $-1 $422 $551 #
point $-1 -50.47724329064085 -14.751220169401265 7.7171690941967492 #
vertex $-1 $426 $552 #
point $-1 -50.47724329064085 -10.601327237378687 7.7171690941967492 #
coedge $-1 $441 $440 $433 $518 forward $430 $-1 #
edge $-1 $519 18.785672830181348 $522 26.333755478442693 $517 $553 forward 7 unknown #
vertex $-1 $445 $554 #
straight-curve $-1 -75.102085956346798 21.73969608447387 11.882287765858848 -1 0 0 I I #
edge $-1 $522 -13.290618919250104 $442 -3.6075354111974267 $441 $555 forward 7 unknown #
vertex $-1 $521 $556 #
straight-curve $-1 -55.337382122257154 21.73969608447387 4.3342051175974916 0.51503806187062418 0 0.85716730853699208 I I #
point $-1 -50.802036666029871 21.73969608447387 11.882287765858848 #
point $-1 -55.337382122257146 12.056612576421193 4.3342051175975032 #
straight-curve $-1 -55.337382122257146 0 11.882287765858848 0 -1 0 I I #
vertex $-1 $448 $557 #
point $-1 -50.47724329064085 14.823207864436249 7.7171690941967492 #
vertex $-1 $452 $558 #
point $-1 -50.47724329064085 18.973100796458823 7.7171690941967492 #
straight-curve $-1 -55.337382122257146 33.543569786330629 0 0 0 -1 I I #
point $-1 -55.337382122257146 -33.543569786330629 -11.882287765858848 #
straight-curve $-1 -55.337382122257146 0 -11.882287765858848 0 1 0 I I #
point $-1 -55.337382122257146 33.543569786330629 -11.882287765858848 #
straight-curve $-1 -38.132013075892395 -14.787214016918755 11.882287765858848 0 1 0 I I #
straight-curve $-1 -38.132013075892395 -14.787214016918755 -11.882287765858848 0 -1 0 I I #
point $-1 -38.132013075892395 -33.543569786330629 -11.882287765858848 #
point $-1 -38.132013075892395 -33.543569786330629 11.882287765858848 #
straight-curve $-1 0 -33.543569786330629 -11.882287765858848 -1 0 0 I I #
straight-curve $-1 0 -33.543569786330629 11.882287765858848 1 0 0 I I #
straight-curve $-1 55.337382122257146 -17.272469202473566 78.322343556012768 0 0 -1 I I #
point $-1 55.337382122257146 -17.272469202473566 11.882287765858848 #
straight-curve $-1 55.337382122257146 -6.6124796105856092 0.22228083034772084 0 1 0 I I #
point $-1 55.337382122257146 -17.272469202473566 0.22228083034772794 #
point $-1 48.232971002854001 -14.959606356015083 5.1380921805308608 #
point $-1 48.232971002854001 -11.490312086327354 5.1380921805308608 #
straight-curve $-1 -55.337382122257146 -7.8347319493636345 30.667960596040196 0 0 -1 I I #
point $-1 -55.337382122257146 -7.8347319493636345 11.882287765858848 #
straight-curve $-1 -55.337382122257146 -6.338136851694987 4.334205117597512 0 -1 0 I I #
point $-1 -55.337382122257146 -7.8347319493636345 4.3342051175975032 #
point $-1 -50.135114043974482 -14.751220169401265 6.3449637237891325 #
point $-1 -50.135114043974482 -10.601327237378687 6.3449637237891325 #
straight-curve $-1 -55.337382122257146 21.73969608447387 30.667960596040196 0 0 -1 I I #
point $-1 -55.337382122257146 21.73969608447387 11.882287765858848 #
straight-curve $-1 -55.337382122257146 8.4490771652237662 4.334205117597512 0 -1 0 I I #
point $-1 -55.337382122257146 21.73969608447387 4.3342051175975032 #
point $-1 -50.135114043974482 14.823207864436249 6.3449637237891325 #
point $-1 -50.135114043974482 18.973100796458823 6.3449637237891325 #
End-of-ACIS-data 