500 0 10 0           
7 Unknown 11 ACIS 5.0 NT 24 Fri Mar 26 20:38:03 1999 
-1 9.9999999999999995e-007 1e-010 
body $-1 $10 $-1 $11 #
body $-1 $12 $-1 $13 #
body $-1 $14 $-1 $15 #
body $-1 $16 $-1 $17 #
body $-1 $18 $-1 $19 #
body $-1 $20 $-1 $21 #
body $-1 $22 $-1 $23 #
body $-1 $24 $-1 $25 #
body $-1 $26 $-1 $27 #
body $-1 $28 $-1 $29 #
lump $-1 $-1 $30 $0 #
transform $-1 1 0 0 0 1 0 0 0 1 78.749961851863162 38.899601963734902 16.608813480435707 1 rotate no_reflect no_shear #
lump $-1 $-1 $31 $1 #
transform $-1 1 0 0 0 1 0 0 0 1 78.749961851863162 38.899601963734902 16.608813480435707 1 rotate no_reflect no_shear #
lump $-1 $-1 $32 $2 #
transform $-1 1 0 0 0 1 0 0 0 1 78.749961851863162 38.899601963734902 16.608813480435707 1 rotate no_reflect no_shear #
lump $-1 $-1 $33 $3 #
transform $-1 1 0 0 0 1 0 0 0 1 78.749961851863162 38.899601963734902 16.608813480435707 1 rotate no_reflect no_shear #
lump $-1 $-1 $34 $4 #
transform $-1 1 0 0 0 1 0 0 0 1 78.749961851863162 38.899601963734902 16.608813480435707 1 rotate no_reflect no_shear #
lump $-1 $-1 $35 $5 #
transform $-1 1 0 0 0 1 0 0 0 1 78.749961851863162 38.899601963734902 16.608813480435707 1 rotate no_reflect no_shear #
lump $-1 $-1 $36 $6 #
transform $-1 1 0 0 0 1 0 0 0 1 78.749961851863162 38.899601963734902 16.608813480435707 1 rotate no_reflect no_shear #
lump $-1 $-1 $37 $7 #
transform $-1 1 0 0 0 1 0 0 0 1 78.749961851863162 38.899601963734902 16.608813480435707 1 rotate no_reflect no_shear #
lump $-1 $-1 $38 $8 #
transform $-1 1 0 0 0 1 0 0 0 1 78.749961851863162 38.899601963734902 16.608813480435707 1 rotate no_reflect no_shear #
lump $-1 $-1 $39 $9 #
transform $-1 1 0 0 0 1 0 0 0 1 78.749961851863162 38.899601963734902 16.608813480435707 1 rotate no_reflect no_shear #
shell $-1 $-1 $-1 $40 $-1 $10 #
shell $-1 $-1 $-1 $41 $-1 $12 #
shell $-1 $-1 $-1 $42 $-1 $14 #
shell $-1 $-1 $-1 $43 $-1 $16 #
shell $-1 $-1 $-1 $44 $-1 $18 #
shell $-1 $-1 $-1 $45 $-1 $20 #
shell $-1 $-1 $-1 $46 $-1 $22 #
shell $-1 $-1 $-1 $47 $-1 $24 #
shell $-1 $-1 $-1 $48 $-1 $26 #
shell $-1 $-1 $-1 $49 $-1 $28 #
face $-1 $50 $51 $30 $-1 $52 forward single #
face $-1 $53 $54 $31 $-1 $55 forward single #
face $-1 $56 $57 $32 $-1 $58 reversed single #
face $-1 $59 $60 $33 $-1 $61 forward single #
face $-1 $62 $63 $34 $-1 $64 forward single #
face $-1 $65 $66 $35 $-1 $67 forward single #
face $-1 $68 $69 $36 $-1 $70 reversed single #
face $-1 $71 $72 $37 $-1 $73 forward single #
face $-1 $74 $75 $38 $-1 $76 forward single #
face $-1 $77 $78 $39 $-1 $79 forward single #
face $-1 $80 $81 $30 $-1 $82 reversed single #
loop $-1 $-1 $83 $40 #
plane-surface $-1 0 0 16.608813480435707 0 0 1 1 0 0 forward_v I I I I #
face $-1 $84 $85 $31 $-1 $86 reversed single #
loop $-1 $-1 $87 $41 #
plane-surface $-1 0 -38.899601963734902 0 0 1 0 0 0 1 forward_v I I I I #
face $-1 $88 $89 $32 $-1 $90 reversed single #
loop $-1 $-1 $91 $42 #
plane-surface $-1 -201.15039279135186 -25.487961001662068 102.58044066827986 0 1 0 -0.77714596973225614 0 0.62932038083071107 forward_v I I I I #
face $-1 $92 $93 $33 $-1 $94 forward single #
loop $-1 $95 $96 $43 #
cone-surface $-1 -72.725909465225797 -24.021943812845144 9.4678288604472129 0.77714596973225614 0 -0.62932038083071107 0.31466019041535553 0 0.38857298486612807 1 I I 0 1 0.5 forward I I I I #
face $-1 $97 $98 $34 $-1 $99 forward single #
loop $-1 $100 $101 $44 #
cone-surface $-1 -72.725909465225797 -21.822918029619764 9.4678288604472129 0.77714596973225614 0 -0.62932038083071107 0.31466019041535553 0 0.38857298486612807 1 I I 0 1 0.5 forward I I I I #
face $-1 $102 $103 $35 $-1 $104 forward single #
loop $-1 $105 $106 $45 #
cone-surface $-1 -72.725909465225797 -19.623892246394384 9.4678288604472129 0.77714596973225614 0 -0.62932038083071107 0.31466019041535553 0 0.38857298486612807 1 I I 0 1 0.5 forward I I I I #
face $-1 $107 $108 $36 $-1 $109 reversed single #
loop $-1 $-1 $110 $46 #
plane-surface $-1 82.637287816170129 27.956644128168648 227.12652349827496 0 1 0 0.71933980857756763 0 0.69465836192734942 forward_v I I I I #
face $-1 $111 $112 $37 $-1 $113 forward single #
loop $-1 $114 $115 $47 #
cone-surface $-1 72.505918741721629 30.145235695281904 10.168037322525139 -0.71933980857756763 0 -0.69465836192734942 0.34732918096367471 0 -0.35966990428878381 1 I I 0 1 0.5 forward I I I I #
face $-1 $116 $117 $38 $-1 $118 forward single #
loop $-1 $119 $120 $48 #
cone-surface $-1 72.505918741721629 33.428123045951772 10.168037322525139 -0.71933980857756763 0 -0.69465836192734942 0.34732918096367471 0 -0.35966990428878381 1 I I 0 1 0.5 forward I I I I #
face $-1 $121 $122 $39 $-1 $123 forward single #
loop $-1 $124 $125 $49 #
cone-surface $-1 72.505918741721629 36.711010396621639 10.168037322525139 -0.71933980857756763 0 -0.69465836192734942 0.34732918096367471 0 -0.35966990428878381 1 I I 0 1 0.5 forward I I I I #
face $-1 $126 $127 $30 $-1 $128 reversed single #
loop $-1 $-1 $129 $50 #
plane-surface $-1 0 0 -16.608813480435707 0 0 1 1 0 0 forward_v I I I I #
coedge $-1 $130 $131 $132 $133 forward $51 $-1 #
face $-1 $134 $135 $31 $-1 $136 reversed single #
loop $-1 $-1 $137 $53 #
plane-surface $-1 0 0 -16.608813480435707 0 0 1 1 0 0 forward_v I I I I #
coedge $-1 $138 $139 $140 $141 forward $54 $-1 #
face $-1 $142 $143 $32 $-1 $144 reversed single #
loop $-1 $-1 $145 $56 #
plane-surface $-1 -78.749961851863119 -21.822918029619764 3.4625287022428779 -0.77714596973225614 0 0.62932038083071107 0.62932038083071107 0 0.77714596973225614 forward_v I I I I #
coedge $-1 $146 $147 $148 $149 reversed $57 $-1 #
face $-1 $-1 $150 $33 $-1 $151 forward single #
loop $-1 $152 $153 $59 #
cone-surface $-1 -71.830396197649932 -24.021943812845144 8.7426565343474536 0.77714596973225614 0 -0.62932038083071107 0.15733009520767777 0 0.19428649243306403 1 I I -0.70710678118654502 0.70710678118655002 0.25 forward I I I I #
loop $-1 $-1 $154 $43 #
coedge $-1 $96 $96 $155 $156 reversed $60 $-1 #
face $-1 $-1 $157 $34 $-1 $158 forward single #
loop $-1 $159 $160 $62 #
cone-surface $-1 -71.830396197649932 -21.822918029619764 8.7426565343474536 0.77714596973225614 0 -0.62932038083071107 0.15733009520767777 0 0.19428649243306403 1 I I -0.70710678118654502 0.70710678118655002 0.25 forward I I I I #
loop $-1 $-1 $161 $44 #
coedge $-1 $101 $101 $162 $163 reversed $63 $-1 #
face $-1 $-1 $164 $35 $-1 $165 forward single #
loop $-1 $166 $167 $65 #
cone-surface $-1 -71.830396197649932 -19.623892246394384 8.7426565343474536 0.77714596973225614 0 -0.62932038083071107 0.15733009520767777 0 0.19428649243306403 1 I I -0.70710678118654502 0.70710678118655002 0.25 forward I I I I #
loop $-1 $-1 $168 $45 #
coedge $-1 $106 $106 $169 $170 reversed $66 $-1 #
face $-1 $171 $172 $36 $-1 $173 reversed single #
loop $-1 $-1 $174 $68 #
plane-surface $-1 -30.658677151849872 33.428123045951772 117.71788449456193 0.71933980857756763 0 0.69465836192734942 0.69465836192734942 0 -0.71933980857756763 forward_v I I I I #
coedge $-1 $175 $176 $177 $178 reversed $69 $-1 #
face $-1 $-1 $179 $37 $-1 $180 forward single #
loop $-1 $181 $182 $71 #
cone-surface $-1 71.966413885288461 30.145235695281904 9.6470435510796264 -0.71933980857756763 0 -0.69465836192734942 0.17366459048183736 0 -0.17983495214439191 1 I I -0.70710678118654746 0.70710678118654746 0.25 forward I I I I #
loop $-1 $-1 $183 $47 #
coedge $-1 $115 $115 $184 $185 reversed $72 $-1 #
face $-1 $-1 $186 $38 $-1 $187 forward single #
loop $-1 $188 $189 $74 #
cone-surface $-1 71.966413885288461 33.428123045951772 9.6470435510796264 -0.71933980857756763 0 -0.69465836192734942 0.17366459048183736 0 -0.17983495214439191 1 I I -0.70710678118654746 0.70710678118654746 0.25 forward I I I I #
loop $-1 $-1 $190 $48 #
coedge $-1 $120 $120 $191 $192 reversed $75 $-1 #
face $-1 $-1 $193 $39 $-1 $194 forward single #
loop $-1 $195 $196 $77 #
cone-surface $-1 71.966413885288461 36.711010396621639 9.6470435510796264 -0.71933980857756763 0 -0.69465836192734942 0.17366459048183736 0 -0.17983495214439191 1 I I -0.70710678118654746 0.70710678118654746 0.25 forward I I I I #
loop $-1 $-1 $197 $49 #
coedge $-1 $125 $125 $198 $199 reversed $78 $-1 #
face $-1 $200 $201 $30 $-1 $202 reversed single #
loop $-1 $-1 $203 $80 #
plane-surface $-1 0 -38.899601963734902 0 0 1 0 0 0 1 forward_v I I I I #
coedge $-1 $204 $205 $206 $207 forward $81 $-1 #
coedge $-1 $208 $83 $209 $210 forward $51 $-1 #
coedge $-1 $83 $208 $211 $212 forward $51 $-1 #
coedge $-1 $213 $214 $83 $133 reversed $215 $-1 #
edge $-1 $216 -38.899601963734902 $217 38.899601963734902 $132 $218 forward 7 unknown #
face $-1 $219 $220 $31 $-1 $221 forward single #
loop $-1 $-1 $222 $84 #
plane-surface $-1 78.749961851863162 0 0 -1 0 0 0 0 1 forward_v I I I I #
coedge $-1 $223 $224 $225 $226 forward $85 $-1 #
coedge $-1 $225 $87 $222 $227 reversed $54 $-1 #
coedge $-1 $87 $225 $228 $229 reversed $54 $-1 #
coedge $-1 $230 $231 $87 $141 reversed $220 $-1 #
edge $-1 $232 -78.749961851863162 $233 78.749961851863162 $140 $234 forward 7 unknown #
face $-1 $235 $236 $32 $-1 $237 forward single #
loop $-1 $-1 $238 $88 #
plane-surface $-1 -201.15039279135186 -18.15787505757746 102.58044066827986 0 -1 0 0.77714596973225614 0 -0.62932038083071107 forward_v I I I I #
coedge $-1 $239 $240 $241 $242 reversed $89 $-1 #
coedge $-1 $147 $91 $243 $244 reversed $57 $-1 #
coedge $-1 $91 $146 $239 $245 reversed $57 $-1 #
coedge $-1 $241 $246 $91 $149 forward $236 $-1 #
edge $-1 $247 21.825234543812769 $248 32.47088576680197 $148 $249 forward 7 unknown #
loop $-1 $-1 $155 $92 #
plane-surface $-1 -78.749961851863119 -21.822918029619764 3.4625287022428779 -0.77714596973225614 0 0.62932038083071107 0.62932038083071107 0 0.77714596973225614 forward_v I I I I #
loop $-1 $-1 $250 $59 #
coedge $-1 $153 $153 $154 $251 reversed $93 $-1 #
coedge $-1 $154 $154 $153 $251 forward $95 $-1 #
coedge $-1 $155 $155 $96 $156 forward $150 $-1 #
edge $-1 $252 0 $252 6.2831853071796004 $155 $253 forward 7 unknown #
loop $-1 $-1 $162 $97 #
plane-surface $-1 -78.749961851863119 -21.822918029619764 3.4625287022428779 -0.77714596973225614 0 0.62932038083071107 0.62932038083071107 0 0.77714596973225614 forward_v I I I I #
loop $-1 $-1 $254 $62 #
coedge $-1 $160 $160 $161 $255 reversed $98 $-1 #
coedge $-1 $161 $161 $160 $255 forward $100 $-1 #
coedge $-1 $162 $162 $101 $163 forward $157 $-1 #
edge $-1 $256 0 $256 6.2831853071796004 $162 $257 forward 7 unknown #
loop $-1 $-1 $169 $102 #
plane-surface $-1 -78.749961851863119 -21.822918029619764 3.4625287022428779 -0.77714596973225614 0 0.62932038083071107 0.62932038083071107 0 0.77714596973225614 forward_v I I I I #
loop $-1 $-1 $258 $65 #
coedge $-1 $167 $167 $168 $259 reversed $103 $-1 #
coedge $-1 $168 $168 $167 $259 forward $105 $-1 #
coedge $-1 $169 $169 $106 $170 forward $164 $-1 #
edge $-1 $260 0 $260 6.2831853071796004 $169 $261 forward 7 unknown #
face $-1 $262 $263 $36 $-1 $264 forward single #
loop $-1 $-1 $265 $107 #
plane-surface $-1 0 38.899601963734902 0 0 -1 0 0 0 -1 forward_v I I I I #
coedge $-1 $266 $267 $268 $269 reversed $108 $-1 #
coedge $-1 $176 $110 $270 $271 reversed $69 $-1 #
coedge $-1 $110 $175 $266 $272 reversed $69 $-1 #
coedge $-1 $268 $273 $110 $178 forward $274 $-1 #
edge $-1 $275 96.954448268701782 $276 109.14134222259555 $177 $277 forward 7 unknown #
loop $-1 $-1 $184 $111 #
plane-surface $-1 -30.658677151849872 33.428123045951772 117.71788449456193 0.71933980857756763 0 0.69465836192734942 0.69465836192734942 0 -0.71933980857756763 forward_v I I I I #
loop $-1 $-1 $278 $71 #
coedge $-1 $182 $182 $183 $279 reversed $112 $-1 #
coedge $-1 $183 $183 $182 $279 forward $114 $-1 #
coedge $-1 $184 $184 $115 $185 forward $179 $-1 #
edge $-1 $280 0 $280 6.2831853071796004 $184 $281 forward 7 unknown #
loop $-1 $-1 $191 $116 #
plane-surface $-1 -30.658677151849872 33.428123045951772 117.71788449456193 0.71933980857756763 0 0.69465836192734942 0.69465836192734942 0 -0.71933980857756763 forward_v I I I I #
loop $-1 $-1 $282 $74 #
coedge $-1 $189 $189 $190 $283 reversed $117 $-1 #
coedge $-1 $190 $190 $189 $283 forward $119 $-1 #
coedge $-1 $191 $191 $120 $192 forward $186 $-1 #
edge $-1 $284 0 $284 6.2831853071796004 $191 $285 forward 7 unknown #
loop $-1 $-1 $198 $121 #
plane-surface $-1 -30.658677151849872 33.428123045951772 117.71788449456193 0.71933980857756763 0 0.69465836192734942 0.69465836192734942 0 -0.71933980857756763 forward_v I I I I #
loop $-1 $-1 $286 $77 #
coedge $-1 $196 $196 $197 $287 reversed $122 $-1 #
coedge $-1 $197 $197 $196 $287 forward $124 $-1 #
coedge $-1 $198 $198 $125 $199 forward $193 $-1 #
edge $-1 $288 0 $288 6.2831853071796004 $198 $289 forward 7 unknown #
face $-1 $290 $291 $30 $-1 $292 reversed single #
loop $-1 $-1 $293 $126 #
plane-surface $-1 -78.749961851863162 0 0 1 0 0 0 0 -1 forward_v I I I I #
coedge $-1 $294 $211 $295 $296 forward $127 $-1 #
coedge $-1 $297 $129 $294 $298 forward $81 $-1 #
coedge $-1 $129 $297 $299 $300 forward $81 $-1 #
coedge $-1 $214 $213 $129 $207 reversed $215 $-1 #
edge $-1 $301 -38.899601963734902 $302 38.899601963734902 $206 $303 forward 7 unknown #
coedge $-1 $131 $130 $304 $305 forward $51 $-1 #
coedge $-1 $306 $307 $130 $210 reversed $291 $-1 #
edge $-1 $217 -78.749961851863162 $308 78.749961851863162 $209 $309 forward 7 unknown #
coedge $-1 $203 $310 $131 $212 reversed $127 $-1 #
edge $-1 $311 -78.749961851863162 $216 78.749961851863162 $211 $312 forward 7 unknown #
coedge $-1 $206 $132 $310 $313 forward $215 $-1 #
coedge $-1 $132 $206 $306 $314 reversed $215 $-1 #
loop $-1 $-1 $213 $290 #
vertex $-1 $133 $315 #
vertex $-1 $133 $316 #
straight-curve $-1 78.749961851863162 0 16.608813480435707 0 1 0 I I #
face $-1 $317 $318 $31 $-1 $319 reversed single #
loop $-1 $-1 $231 $134 #
plane-surface $-1 0 -45.605422444771321 -7.3989737277326606 0 0 1 1 0 0 forward_v I I I I #
coedge $-1 $320 $321 $138 $227 forward $135 $-1 #
coedge $-1 $322 $137 $321 $323 forward $85 $-1 #
coedge $-1 $137 $322 $324 $325 forward $85 $-1 #
coedge $-1 $139 $138 $137 $226 reversed $54 $-1 #
edge $-1 $326 -78.749961851863162 $327 78.749961851863162 $137 $328 forward 7 unknown #
edge $-1 $327 -16.608813480435707 $233 -7.3989737277326606 $222 $329 forward 7 unknown #
coedge $-1 $324 $330 $139 $229 forward $331 $-1 #
edge $-1 $232 7.3989737277326606 $326 16.608813480435707 $228 $332 forward 7 unknown #
coedge $-1 $333 $140 $330 $334 forward $220 $-1 #
coedge $-1 $140 $333 $320 $335 forward $220 $-1 #
vertex $-1 $229 $336 #
vertex $-1 $335 $337 #
straight-curve $-1 0 -38.899601963734902 -7.3989737277326606 1 0 0 I I #
face $-1 $-1 $338 $32 $-1 $339 reversed single #
loop $-1 $-1 $148 $142 #
plane-surface $-1 0 0 16.608813480435707 0 0 1 1 0 0 forward_v I I I I #
coedge $-1 $340 $341 $342 $343 reversed $143 $-1 #
coedge $-1 $344 $145 $147 $245 forward $89 $-1 #
coedge $-1 $145 $344 $340 $345 forward $89 $-1 #
coedge $-1 $342 $148 $145 $242 forward $236 $-1 #
edge $-1 $248 -14.576501986852186 $346 -7.2464160427675779 $241 $347 forward 7 unknown #
coedge $-1 $348 $349 $146 $244 forward $338 $-1 #
edge $-1 $350 -47.827691631897103 $247 -34.681406853704225 $243 $351 forward 7 unknown #
edge $-1 $248 -16.916107514167525 $350 6.7899076120652926e-014 $147 $352 forward 7 unknown #
coedge $-1 $148 $342 $348 $353 forward $236 $-1 #
vertex $-1 $244 $354 #
vertex $-1 $149 $355 #
straight-curve $-1 -100.57519639567593 -25.487961001662068 16.608813480435707 1 0 0 I I #
coedge $-1 $250 $250 $-1 $356 reversed $152 $-1 #
edge $-1 $357 0 $357 6.2831853071796004 $153 $358 forward 7 unknown #
vertex $-1 $156 $359 #
ellipse-curve $-1 -73.427136240368554 -24.021943812845144 10.035671091339267 -0.77714596973225614 0 0.62932038083071107 0.31466019041535553 0 0.38857298486612807 1 I I #
coedge $-1 $254 $254 $-1 $360 reversed $159 $-1 #
edge $-1 $361 0 $361 6.2831853071796004 $160 $362 forward 7 unknown #
vertex $-1 $163 $363 #
ellipse-curve $-1 -73.427136240368554 -21.822918029619764 10.035671091339267 -0.77714596973225614 0 0.62932038083071107 0.31466019041535553 0 0.38857298486612807 1 I I #
coedge $-1 $258 $258 $-1 $364 reversed $166 $-1 #
edge $-1 $365 0 $365 6.2831853071796004 $167 $366 forward 7 unknown #
vertex $-1 $170 $367 #
ellipse-curve $-1 -73.427136240368554 -19.623892246394384 10.035671091339267 -0.77714596973225614 0 0.62932038083071107 0.31466019041535553 0 0.38857298486612807 1 I I #
face $-1 $-1 $274 $36 $-1 $368 reversed single #
loop $-1 $-1 $369 $171 #
plane-surface $-1 0 0 16.608813480435707 0 0 1 1 0 0 forward_v I I I I #
coedge $-1 $370 $371 $267 $372 forward $172 $-1 #
coedge $-1 $373 $174 $176 $272 forward $108 $-1 #
coedge $-1 $174 $373 $265 $372 reversed $108 $-1 #
coedge $-1 $374 $177 $174 $269 forward $274 $-1 #
edge $-1 $276 11.242582605192762 $375 22.185540440759016 $268 $376 forward 7 unknown #
coedge $-1 $377 $369 $175 $271 forward $263 $-1 #
edge $-1 $378 25.66257153207259 $275 37.431317943778097 $270 $379 forward 7 unknown #
edge $-1 $276 -157.49992370372632 $378 -140.55814763548352 $176 $380 forward 7 unknown #
coedge $-1 $177 $374 $377 $381 reversed $274 $-1 #
loop $-1 $-1 $268 $262 #
vertex $-1 $381 $382 #
vertex $-1 $178 $383 #
straight-curve $-1 78.749961851863162 27.956644128168648 113.56326174913748 0 0 -1 I I #
coedge $-1 $278 $278 $-1 $384 reversed $181 $-1 #
edge $-1 $385 0 $385 6.2831853071796004 $182 $386 forward 7 unknown #
vertex $-1 $185 $387 #
ellipse-curve $-1 72.865588646010409 30.145235695281904 10.515366503488814 0.71933980857756763 0 0.69465836192734942 0.34732918096367471 0 -0.35966990428878381 1 I I #
coedge $-1 $282 $282 $-1 $388 reversed $188 $-1 #
edge $-1 $389 0 $389 6.2831853071796004 $189 $390 forward 7 unknown #
vertex $-1 $192 $391 #
ellipse-curve $-1 72.865588646010409 33.428123045951772 10.515366503488814 0.71933980857756763 0 0.69465836192734942 0.34732918096367471 0 -0.35966990428878381 1 I I #
coedge $-1 $286 $286 $-1 $392 reversed $195 $-1 #
edge $-1 $393 0 $393 6.2831853071796004 $196 $394 forward 7 unknown #
vertex $-1 $199 $395 #
ellipse-curve $-1 72.865588646010409 36.711010396621639 10.515366503488814 0.71933980857756763 0 0.69465836192734942 0.34732918096367471 0 -0.35966990428878381 1 I I #
face $-1 $-1 $215 $30 $-1 $396 reversed single #
loop $-1 $-1 $306 $200 #
plane-surface $-1 0 38.899601963734902 0 0 -1 0 0 0 -1 forward_v I I I I #
coedge $-1 $397 $304 $307 $398 forward $201 $-1 #
coedge $-1 $310 $203 $204 $298 reversed $127 $-1 #
coedge $-1 $304 $397 $203 $296 reversed $201 $-1 #
edge $-1 $311 -16.608813480435707 $399 16.608813480435707 $295 $400 forward 7 unknown #
coedge $-1 $205 $204 $397 $401 forward $81 $-1 #
edge $-1 $302 -78.749961851863162 $399 78.749961851863162 $294 $402 forward 7 unknown #
coedge $-1 $307 $306 $205 $300 reversed $291 $-1 #
edge $-1 $403 -78.749961851863162 $301 78.749961851863162 $299 $404 forward 7 unknown #
vertex $-1 $207 $405 #
vertex $-1 $313 $406 #
straight-curve $-1 78.749961851863162 0 -16.608813480435707 0 -1 0 I I #
coedge $-1 $293 $295 $208 $305 reversed $201 $-1 #
edge $-1 $308 -38.899601963734902 $311 38.899601963734902 $304 $407 forward 7 unknown #
coedge $-1 $299 $209 $214 $314 forward $291 $-1 #
coedge $-1 $209 $299 $293 $398 reversed $291 $-1 #
vertex $-1 $210 $408 #
straight-curve $-1 0 38.899601963734902 16.608813480435707 -1 0 0 I I #
coedge $-1 $211 $294 $213 $313 reversed $127 $-1 #
vertex $-1 $305 $409 #
straight-curve $-1 0 -38.899601963734902 16.608813480435707 1 0 0 I I #
edge $-1 $216 -16.608813480435707 $302 16.608813480435707 $213 $410 forward 7 unknown #
edge $-1 $217 -16.608813480435707 $301 16.608813480435707 $214 $411 forward 7 unknown #
point $-1 78.749961851863162 -38.899601963734902 16.608813480435707 #
point $-1 78.749961851863162 38.899601963734902 16.608813480435707 #
face $-1 $-1 $331 $31 $-1 $412 reversed single #
loop $-1 $-1 $413 $219 #
plane-surface $-1 0 -52.31124292580774 -12.003893604084183 0 1 0 0 0 1 forward_v I I I I #
coedge $-1 $414 $222 $231 $335 reversed $135 $-1 #
coedge $-1 $222 $414 $223 $323 reversed $135 $-1 #
coedge $-1 $224 $223 $415 $416 forward $85 $-1 #
edge $-1 $327 38.899601963734902 $417 52.31124292580774 $321 $418 forward 7 unknown #
coedge $-1 $419 $228 $224 $325 reversed $331 $-1 #
edge $-1 $420 -52.31124292580774 $326 -38.899601963734902 $324 $421 forward 7 unknown #
vertex $-1 $229 $422 #
vertex $-1 $323 $423 #
straight-curve $-1 0 -38.899601963734902 -16.608813480435707 1 0 0 I I #
straight-curve $-1 78.749961851863162 -38.899601963734902 0 0 0 1 I I #
coedge $-1 $228 $419 $230 $334 reversed $331 $-1 #
loop $-1 $-1 $228 $317 #
straight-curve $-1 -78.749961851863162 -38.899601963734902 0 0 0 -1 I I #
coedge $-1 $231 $230 $424 $425 forward $220 $-1 #
edge $-1 $232 -6.7058204810364188 $426 6.7058204810364188 $330 $427 forward 7 unknown #
edge $-1 $428 -6.7058204810364188 $233 6.7058204810364188 $320 $429 forward 7 unknown #
point $-1 -78.749961851863162 -38.899601963734902 -7.3989737277326606 #
point $-1 78.749961851863162 -38.899601963734902 -7.3989737277326606 #
loop $-1 $-1 $243 $235 #
plane-surface $-1 -78.749961851863162 0 0 1 0 0 0 0 -1 forward_v I I I I #
coedge $-1 $341 $238 $240 $345 reversed $143 $-1 #
coedge $-1 $238 $340 $430 $431 reversed $143 $-1 #
coedge $-1 $246 $241 $238 $343 forward $236 $-1 #
edge $-1 $346 -32.47088576680197 $432 -21.825234543812769 $342 $433 forward 7 unknown #
coedge $-1 $240 $239 $349 $434 reversed $89 $-1 #
edge $-1 $435 -6.7899076120652926e-014 $346 16.916107514167525 $340 $436 forward 7 unknown #
vertex $-1 $242 $437 #
straight-curve $-1 -68.104310628873961 -10.911459014809882 16.608813480435707 0 1 0 I I #
coedge $-1 $430 $243 $246 $353 reversed $338 $-1 #
coedge $-1 $243 $430 $344 $434 forward $338 $-1 #
vertex $-1 $244 $438 #
straight-curve $-1 -78.749961851863162 -25.487961001662068 51.290220334139931 0 0 1 I I #
straight-curve $-1 -78.749961851863119 -25.487961001662068 3.4625287022428779 -0.62932038083071107 0 -0.77714596973225614 I I #
edge $-1 $432 18.15787505757746 $247 25.487961001662068 $348 $439 forward 7 unknown #
point $-1 -78.749961851863162 -25.487961001662068 16.608813480435707 #
point $-1 -68.104310628873961 -25.487961001662068 16.608813480435707 #
edge $-1 $440 1 $440 0 $250 $-1 forward 7 unknown #
vertex $-1 $251 $441 #
ellipse-curve $-1 -72.024682690082997 -24.021943812845144 8.8999866295551318 -0.77714596973225614 0 0.62932038083071107 0.31466019041535553 0 0.38857298486612807 1 I I #
point $-1 -73.11247604995323 -24.021943812845144 10.424244076205422 #
edge $-1 $442 1 $442 0 $254 $-1 forward 7 unknown #
vertex $-1 $255 $443 #
ellipse-curve $-1 -72.024682690082997 -21.822918029619764 8.8999866295551318 -0.77714596973225614 0 0.62932038083071107 0.31466019041535553 0 0.38857298486612807 1 I I #
point $-1 -73.11247604995323 -21.822918029619764 10.424244076205422 #
edge $-1 $444 1 $444 0 $258 $-1 forward 7 unknown #
vertex $-1 $259 $445 #
ellipse-curve $-1 -72.024682690082997 -19.623892246394384 8.8999866295551318 -0.77714596973225614 0 0.62932038083071107 0.31466019041535553 0 0.38857298486612807 1 I I #
point $-1 -73.11247604995323 -19.623892246394384 10.424244076205422 #
plane-surface $-1 78.749961851863162 0 0 -1 0 0 0 0 1 forward_v I I I I #
coedge $-1 $270 $446 $373 $447 forward $263 $-1 #
coedge $-1 $371 $265 $446 $448 reversed $172 $-1 #
coedge $-1 $265 $370 $374 $449 forward $172 $-1 #
edge $-1 $375 -104.51169022990737 $450 -87.56991416166457 $265 $451 forward 7 unknown #
coedge $-1 $267 $266 $369 $447 reversed $108 $-1 #
coedge $-1 $273 $268 $371 $449 reversed $274 $-1 #
vertex $-1 $372 $452 #
straight-curve $-1 78.749961851863162 16.714061522975886 4.4219195265419415 0 1 0 I I #
coedge $-1 $446 $270 $273 $381 forward $263 $-1 #
vertex $-1 $271 $453 #
straight-curve $-1 41.318643908085065 27.956644128168648 16.608813480435714 1 0 0 I I #
straight-curve $-1 -30.658677151849872 27.956644128168648 117.71788449456193 -0.69465836192734942 0 0.71933980857756763 I I #
edge $-1 $275 27.956644128168648 $454 38.899601963734902 $273 $455 forward 7 unknown #
point $-1 78.749961851863162 27.956644128168648 16.608813480435707 #
point $-1 78.749961851863162 27.956644128168648 4.4219195265419273 #
edge $-1 $456 1 $456 0 $278 $-1 forward 7 unknown #
vertex $-1 $279 $457 #
ellipse-curve $-1 72.14624883743285 30.145235695281904 9.8207081415614645 0.71933980857756763 0 0.69465836192734942 0.34732918096367471 0 -0.35966990428878381 1 I I #
point $-1 73.212917826974092 30.145235695281904 10.155696599200029 #
edge $-1 $458 1 $458 0 $282 $-1 forward 7 unknown #
vertex $-1 $283 $459 #
ellipse-curve $-1 72.14624883743285 33.428123045951772 9.8207081415614645 0.71933980857756763 0 0.69465836192734942 0.34732918096367471 0 -0.35966990428878381 1 I I #
point $-1 73.212917826974092 33.428123045951772 10.155696599200029 #
edge $-1 $460 1 $460 0 $286 $-1 forward 7 unknown #
vertex $-1 $287 $461 #
ellipse-curve $-1 72.14624883743285 36.711010396621639 9.8207081415614645 0.71933980857756763 0 0.69465836192734942 0.34732918096367471 0 -0.35966990428878381 1 I I #
point $-1 73.212917826974092 36.711010396621639 10.155696599200029 #
plane-surface $-1 78.749961851863162 0 0 -1 0 0 0 0 1 forward_v I I I I #
coedge $-1 $295 $293 $297 $401 reversed $201 $-1 #
edge $-1 $308 -16.608813480435707 $403 16.608813480435707 $307 $462 forward 7 unknown #
vertex $-1 $401 $463 #
straight-curve $-1 -78.749961851863162 -38.899601963734902 0 0 0 -1 I I #
edge $-1 $399 -38.899601963734902 $403 38.899601963734902 $397 $464 forward 7 unknown #
straight-curve $-1 0 -38.899601963734902 -16.608813480435707 -1 0 0 I I #
vertex $-1 $300 $465 #
straight-curve $-1 0 38.899601963734902 -16.608813480435707 1 0 0 I I #
point $-1 78.749961851863162 38.899601963734902 -16.608813480435707 #
point $-1 78.749961851863162 -38.899601963734902 -16.608813480435707 #
straight-curve $-1 -78.749961851863162 0 16.608813480435707 0 -1 0 I I #
point $-1 -78.749961851863162 38.899601963734902 16.608813480435707 #
point $-1 -78.749961851863162 -38.899601963734902 16.608813480435707 #
straight-curve $-1 78.749961851863162 -38.899601963734902 0 0 0 -1 I I #
straight-curve $-1 78.749961851863162 38.899601963734902 0 0 0 -1 I I #
plane-surface $-1 -78.749961851863162 0 0 1 0 0 0 0 -1 forward_v I I I I #
coedge $-1 $415 $424 $419 $466 forward $318 $-1 #
coedge $-1 $321 $320 $467 $468 forward $135 $-1 #
coedge $-1 $467 $413 $322 $416 reversed $318 $-1 #
edge $-1 $417 -78.749961851863162 $420 78.749961851863162 $415 $469 forward 7 unknown #
vertex $-1 $468 $470 #
straight-curve $-1 78.749961851863162 0 -16.608813480435707 0 -1 0 I I #
coedge $-1 $330 $324 $413 $466 reversed $331 $-1 #
vertex $-1 $325 $471 #
straight-curve $-1 -78.749961851863162 0 -16.608813480435707 0 1 0 I I #
point $-1 -78.749961851863162 -38.899601963734902 -16.608813480435707 #
point $-1 78.749961851863162 -38.899601963734902 -16.608813480435707 #
coedge $-1 $413 $467 $333 $425 reversed $318 $-1 #
edge $-1 $426 -78.749961851863162 $428 78.749961851863162 $424 $472 forward 7 unknown #
vertex $-1 $334 $473 #
straight-curve $-1 -78.749961851863162 -45.605422444771321 -7.3989737277326606 0 -1 0 I I #
vertex $-1 $335 $474 #
straight-curve $-1 78.749961851863162 -45.605422444771321 -7.3989737277326606 0 1 0 I I #
coedge $-1 $349 $348 $341 $431 forward $338 $-1 #
edge $-1 $432 34.681406853704225 $435 47.827691631897103 $430 $475 forward 7 unknown #
vertex $-1 $353 $476 #
straight-curve $-1 -100.57519639567593 -18.15787505757746 16.608813480435707 -1 0 0 I I #
edge $-1 $435 7.2464160427675779 $350 14.576501986852186 $349 $477 forward 7 unknown #
vertex $-1 $434 $478 #
straight-curve $-1 -78.749961851863119 -18.15787505757746 3.4625287022428779 0.62932038083071107 0 0.77714596973225614 I I #
point $-1 -68.104310628873961 -18.15787505757746 16.608813480435707 #
point $-1 -78.749961851863162 -25.487961001662068 3.4625287022428251 #
straight-curve $-1 -78.749961851863162 0 16.608813480435707 0 -1 0 I I #
vertex $-1 $356 $479 #
point $-1 -71.710022499667645 -24.021943812845144 9.2885596144212599 #
vertex $-1 $360 $480 #
point $-1 -71.710022499667645 -21.822918029619764 9.2885596144212599 #
vertex $-1 $364 $481 #
point $-1 -71.710022499667645 -19.623892246394384 9.2885596144212599 #
coedge $-1 $369 $377 $370 $448 forward $263 $-1 #
edge $-1 $450 -22.185540440759009 $378 -11.242582605192762 $369 $482 forward 7 unknown #
edge $-1 $454 -78.749961851863162 $450 -66.981215440157655 $370 $483 forward 7 unknown #
edge $-1 $454 -16.608813480435707 $375 -4.4219195265419371 $374 $484 forward 7 unknown #
vertex $-1 $372 $485 #
straight-curve $-1 6.1500423144971386 38.899601963734902 79.601338770641547 -0.69465836192734942 0 0.71933980857756763 I I #
point $-1 78.749961851863162 38.899601963734902 4.4219195265419371 #
point $-1 66.981215440157655 27.956644128168648 16.608813480435728 #
vertex $-1 $381 $486 #
straight-curve $-1 78.749961851863162 0 16.608813480435707 0 1 0 I I #
vertex $-1 $384 $487 #
point $-1 72.493578018396533 30.145235695281904 9.46103823727268 #
vertex $-1 $388 $488 #
point $-1 72.493578018396533 33.428123045951772 9.46103823727268 #
vertex $-1 $392 $489 #
point $-1 72.493578018396533 36.711010396621639 9.46103823727268 #
straight-curve $-1 -78.749961851863162 38.899601963734902 0 0 0 -1 I I #
point $-1 -78.749961851863162 -38.899601963734902 -16.608813480435707 #
straight-curve $-1 -78.749961851863162 0 -16.608813480435707 0 1 0 I I #
point $-1 -78.749961851863162 38.899601963734902 -16.608813480435707 #
edge $-1 $426 -4.6049198763515227 $420 4.6049198763515236 $419 $490 forward 7 unknown #
coedge $-1 $424 $415 $414 $468 reversed $318 $-1 #
edge $-1 $428 -4.6049198763515227 $417 4.6049198763515236 $414 $491 forward 7 unknown #
straight-curve $-1 0 -52.31124292580774 -16.608813480435707 -1 0 0 I I #
point $-1 78.749961851863162 -52.31124292580774 -16.608813480435707 #
point $-1 -78.749961851863162 -52.31124292580774 -16.608813480435707 #
straight-curve $-1 0 -52.31124292580774 -7.3989737277326606 1 0 0 I I #
point $-1 -78.749961851863162 -52.31124292580774 -7.3989737277326606 #
point $-1 78.749961851863162 -52.31124292580774 -7.3989737277326606 #
straight-curve $-1 -78.749961851863162 -18.15787505757746 51.290220334139931 0 0 -1 I I #
point $-1 -78.749961851863162 -18.15787505757746 16.608813480435707 #
straight-curve $-1 -78.749961851863162 -10.911459014809882 3.4625287022428175 0 -1 0 I I #
point $-1 -78.749961851863162 -18.15787505757746 3.4625287022428251 #
point $-1 -71.636109705216867 -24.021943812845144 8.5853264391397754 #
point $-1 -71.636109705216867 -21.822918029619764 8.5853264391397754 #
point $-1 -71.636109705216867 -19.623892246394384 8.5853264391397754 #
straight-curve $-1 66.981215440157669 16.714061522975886 16.608813480435714 0 -1 0 I I #
straight-curve $-1 0 38.899601963734902 16.608813480435707 -1 0 0 I I #
straight-curve $-1 78.749961851863162 38.899601963734902 0 0 0 -1 I I #
point $-1 66.981215440157655 38.899601963734895 16.608813480435728 #
point $-1 78.749961851863162 38.899601963734902 16.608813480435707 #
point $-1 71.786578933144071 30.145235695281904 9.4733789605977883 #
point $-1 71.786578933144071 33.428123045951772 9.4733789605977883 #
point $-1 71.786578933144071 36.711010396621639 9.4733789605977883 #
straight-curve $-1 -78.749961851863162 -52.31124292580774 -12.003893604084183 0 0 -1 I I #
straight-curve $-1 78.749961851863162 -52.31124292580774 -12.003893604084183 0 0 -1 I I #
End-of-ACIS-data 