500 0 10 0           
7 Unknown 11 ACIS 5.0 NT 24 Thu Mar 25 22:52:56 1999 
-1 9.9999999999999995e-007 1e-010 
body $-1 $10 $-1 $11 #
body $-1 $12 $-1 $13 #
body $-1 $14 $-1 $15 #
body $-1 $16 $-1 $17 #
body $-1 $18 $-1 $19 #
body $-1 $20 $-1 $21 #
body $-1 $22 $-1 $23 #
body $-1 $24 $-1 $25 #
body $-1 $26 $-1 $27 #
body $-1 $28 $-1 $29 #
lump $-1 $-1 $30 $0 #
transform $-1 1 0 0 0 1 0 0 0 1 56.238288521988586 35.992195718499282 12.646533004724196 1 rotate no_reflect no_shear #
lump $-1 $-1 $31 $1 #
transform $-1 1 0 0 0 1 0 0 0 1 56.238288521988586 35.992195718499282 12.646533004724196 1 rotate no_reflect no_shear #
lump $-1 $-1 $32 $2 #
transform $-1 1 0 0 0 1 0 0 0 1 56.238288521988586 35.992195718499282 12.646533004724196 1 rotate no_reflect no_shear #
lump $-1 $-1 $33 $3 #
transform $-1 1 0 0 0 1 0 0 0 1 56.238288521988586 35.992195718499282 12.646533004724196 1 rotate no_reflect no_shear #
lump $-1 $-1 $34 $4 #
transform $-1 1 0 0 0 1 0 0 0 1 56.238288521988586 35.992195718499282 12.646533004724196 1 rotate no_reflect no_shear #
lump $-1 $-1 $35 $5 #
transform $-1 1 0 0 0 1 0 0 0 1 56.238288521988586 35.992195718499282 12.646533004724196 1 rotate no_reflect no_shear #
lump $-1 $-1 $36 $6 #
transform $-1 1 0 0 0 1 0 0 0 1 56.238288521988586 35.992195718499282 12.646533004724196 1 rotate no_reflect no_shear #
lump $-1 $-1 $37 $7 #
transform $-1 1 0 0 0 1 0 0 0 1 56.238288521988586 35.992195718499282 12.646533004724196 1 rotate no_reflect no_shear #
lump $-1 $-1 $38 $8 #
transform $-1 1 0 0 0 1 0 0 0 1 56.238288521988586 35.992195718499282 12.646533004724196 1 rotate no_reflect no_shear #
lump $-1 $-1 $39 $9 #
transform $-1 1 0 0 0 1 0 0 0 1 56.238288521988586 35.992195718499282 12.646533004724196 1 rotate no_reflect no_shear #
shell $-1 $-1 $-1 $40 $-1 $10 #
shell $-1 $-1 $-1 $41 $-1 $12 #
shell $-1 $-1 $-1 $42 $-1 $14 #
shell $-1 $-1 $-1 $43 $-1 $16 #
shell $-1 $-1 $-1 $44 $-1 $18 #
shell $-1 $-1 $-1 $45 $-1 $20 #
shell $-1 $-1 $-1 $46 $-1 $22 #
shell $-1 $-1 $-1 $47 $-1 $24 #
shell $-1 $-1 $-1 $48 $-1 $26 #
shell $-1 $-1 $-1 $49 $-1 $28 #
face $-1 $50 $51 $30 $-1 $52 forward single #
face $-1 $53 $54 $31 $-1 $55 forward single #
face $-1 $56 $57 $32 $-1 $58 forward single #
face $-1 $59 $60 $33 $-1 $61 reversed single #
face $-1 $62 $63 $34 $-1 $64 forward single #
face $-1 $65 $66 $35 $-1 $67 forward single #
face $-1 $68 $69 $36 $-1 $70 forward single #
face $-1 $71 $72 $37 $-1 $73 reversed single #
face $-1 $74 $75 $38 $-1 $76 forward single #
face $-1 $77 $78 $39 $-1 $79 forward single #
face $-1 $80 $81 $30 $-1 $82 reversed single #
loop $-1 $-1 $83 $40 #
plane-surface $-1 0 0 12.646533004724196 0 0 1 1 0 0 forward_v I I I I #
face $-1 $84 $85 $31 $-1 $86 reversed single #
loop $-1 $-1 $87 $41 #
plane-surface $-1 -56.238288521988586 0 0 1 0 0 0 0 -1 forward_v I I I I #
face $-1 $88 $89 $32 $-1 $90 reversed single #
loop $-1 $-1 $91 $42 #
plane-surface $-1 56.238288521988586 0 0 -1 0 0 0 0 1 forward_v I I I I #
face $-1 $92 $93 $33 $-1 $94 reversed single #
loop $-1 $-1 $95 $43 #
plane-surface $-1 18.113231054446175 60.054987127982493 132.29164342692789 1 0 0 0 -0.68199836817093118 -0.7313536940579346 forward_v I I I I #
face $-1 $96 $97 $34 $-1 $98 forward single #
loop $-1 $99 $100 $44 #
cone-surface $-1 20.828356331605768 29.373396259913875 6.4267125638394926 0 -0.68199836817093118 -0.7313536940579346 0.5 0 0 1 I I 0 1 0.5 forward I I I I #
face $-1 $101 $102 $35 $-1 $103 forward single #
loop $-1 $104 $105 $45 #
cone-surface $-1 24.901044247345162 29.373396259913875 6.4267125638394926 0 -0.68199836817093118 -0.7313536940579346 0.5 0 0 1 I I 0 1 0.5 forward I I I I #
face $-1 $106 $107 $36 $-1 $108 forward single #
loop $-1 $109 $110 $46 #
cone-surface $-1 28.973732163084556 29.373396259913875 6.4267125638394926 0 -0.68199836817093118 -0.7313536940579346 0.5 0 0 1 I I 0 1 0.5 forward I I I I #
face $-1 $111 $112 $37 $-1 $113 reversed single #
loop $-1 $-1 $114 $47 #
plane-surface $-1 -10.250318602133461 -128.12761465356661 73.152427834284055 -1 0 0 0 -0.81915205242281985 0.57357642473473569 forward_v I I I I #
face $-1 $115 $116 $38 $-1 $117 forward single #
loop $-1 $118 $119 $48 #
cone-surface $-1 -26.507105738884768 -34.179397491985704 10.355735743494016 0 0.81915205242281985 -0.57357642473473569 0.5 0 0 1 I I 0 1 0.5 forward I I I I #
face $-1 $120 $121 $39 $-1 $122 forward single #
loop $-1 $123 $124 $49 #
cone-surface $-1 -16.753033456833982 -34.179397491985704 10.355735743494016 0 0.81915205242281985 -0.57357642473473569 0.5 0 0 1 I I 0 1 0.5 forward I I I I #
face $-1 $125 $126 $30 $-1 $127 reversed single #
loop $-1 $-1 $128 $50 #
plane-surface $-1 0 0 -12.646533004724196 0 0 1 1 0 0 forward_v I I I I #
coedge $-1 $129 $130 $131 $132 forward $51 $-1 #
face $-1 $133 $134 $31 $-1 $135 forward single #
loop $-1 $-1 $136 $53 #
plane-surface $-1 0 35.992195718499282 0 0 -1 0 0 0 -1 forward_v I I I I #
coedge $-1 $137 $138 $139 $140 forward $54 $-1 #
face $-1 $141 $142 $32 $-1 $143 forward single #
loop $-1 $-1 $144 $56 #
plane-surface $-1 0 -35.992195718499282 0 0 1 0 0 0 1 forward_v I I I I #
coedge $-1 $145 $146 $147 $148 forward $57 $-1 #
face $-1 $149 $150 $33 $-1 $151 reversed single #
loop $-1 $-1 $152 $59 #
plane-surface $-1 24.901044247345162 -16.65385487346196 50.031483310823305 0 0.68199836817093118 0.7313536940579346 1 0 0 forward_v I I I I #
coedge $-1 $153 $154 $155 $156 reversed $60 $-1 #
face $-1 $-1 $157 $34 $-1 $158 forward single #
loop $-1 $159 $160 $62 #
cone-surface $-1 20.828356331605768 28.861897483785675 5.8781972932960418 0 -0.68199836817093118 -0.7313536940579346 0.25 0 0 1 I I -0.70710678118654746 0.70710678118654746 0.25 forward I I I I #
loop $-1 $-1 $161 $44 #
coedge $-1 $100 $100 $162 $163 reversed $63 $-1 #
face $-1 $-1 $164 $35 $-1 $165 forward single #
loop $-1 $166 $167 $65 #
cone-surface $-1 24.901044247345162 28.861897483785675 5.8781972932960418 0 -0.68199836817093118 -0.7313536940579346 0.25 0 0 1 I I -0.70710678118654746 0.70710678118654746 0.25 forward I I I I #
loop $-1 $-1 $168 $45 #
coedge $-1 $105 $105 $169 $170 reversed $66 $-1 #
face $-1 $-1 $171 $36 $-1 $172 forward single #
loop $-1 $173 $174 $68 #
cone-surface $-1 28.973732163084556 28.861897483785675 5.8781972932960418 0 -0.68199836817093118 -0.7313536940579346 0.25 0 0 1 I I -0.70710678118654746 0.70710678118654746 0.25 forward I I I I #
loop $-1 $-1 $175 $46 #
coedge $-1 $110 $110 $176 $177 reversed $69 $-1 #
face $-1 $178 $179 $37 $-1 $180 reversed single #
loop $-1 $-1 $181 $71 #
plane-surface $-1 -21.630069597859375 -35.992195718499289 8.63851490699858 0 -0.81915205242281985 0.57357642473473569 1 0 0 forward_v I I I I #
coedge $-1 $182 $183 $184 $185 reversed $72 $-1 #
face $-1 $-1 $186 $38 $-1 $187 forward single #
loop $-1 $188 $189 $74 #
cone-surface $-1 -26.507105738884768 -33.565033452668587 9.9255534249429633 0 0.81915205242281985 -0.57357642473473569 0.25 0 0 1 I I -0.70710678118654746 0.70710678118654746 0.25 forward I I I I #
loop $-1 $-1 $190 $48 #
coedge $-1 $119 $119 $191 $192 reversed $75 $-1 #
face $-1 $-1 $193 $39 $-1 $194 forward single #
loop $-1 $195 $196 $77 #
cone-surface $-1 -16.753033456833982 -33.565033452668587 9.9255534249429633 0 0.81915205242281985 -0.57357642473473569 0.25 0 0 1 I I -0.70710678118654746 0.70710678118654746 0.25 forward I I I I #
loop $-1 $-1 $197 $49 #
coedge $-1 $124 $124 $198 $199 reversed $78 $-1 #
face $-1 $200 $201 $30 $-1 $202 reversed single #
loop $-1 $-1 $203 $80 #
plane-surface $-1 0 -35.992195718499282 0 0 1 0 0 0 1 forward_v I I I I #
coedge $-1 $204 $205 $206 $207 forward $81 $-1 #
coedge $-1 $208 $83 $209 $210 forward $51 $-1 #
coedge $-1 $83 $208 $211 $212 forward $51 $-1 #
coedge $-1 $213 $214 $83 $132 reversed $215 $-1 #
edge $-1 $216 -35.992195718499282 $217 35.992195718499282 $131 $218 forward 7 unknown #
face $-1 $219 $220 $31 $-1 $221 reversed single #
loop $-1 $-1 $139 $84 #
plane-surface $-1 -62.80839148124852 0 4.4943811710574 0 0 1 1 0 0 forward_v I I I I #
coedge $-1 $222 $223 $138 $224 forward $85 $-1 #
coedge $-1 $225 $87 $226 $227 reversed $54 $-1 #
coedge $-1 $87 $225 $136 $224 reversed $54 $-1 #
coedge $-1 $228 $229 $87 $140 reversed $134 $-1 #
edge $-1 $230 -35.992195718499282 $231 35.992195718499282 $139 $232 forward 7 unknown #
face $-1 $233 $234 $32 $-1 $235 reversed single #
loop $-1 $-1 $236 $88 #
plane-surface $-1 62.808391481248513 0 4.4943811710574 0 0 1 1 0 0 forward_v I I I I #
coedge $-1 $237 $238 $146 $239 forward $89 $-1 #
coedge $-1 $240 $91 $241 $242 reversed $57 $-1 #
coedge $-1 $91 $240 $144 $239 reversed $57 $-1 #
coedge $-1 $243 $244 $91 $148 reversed $142 $-1 #
edge $-1 $245 -35.992195718499282 $246 35.992195718499282 $147 $247 forward 7 unknown #
face $-1 $248 $249 $33 $-1 $250 reversed single #
loop $-1 $-1 $251 $92 #
plane-surface $-1 31.688857440244149 60.054987127982493 132.29164342692789 -1 0 0 0 0.68199836817093118 0.7313536940579346 forward_v I I I I #
coedge $-1 $252 $253 $254 $255 reversed $93 $-1 #
coedge $-1 $154 $95 $256 $257 reversed $60 $-1 #
coedge $-1 $95 $153 $252 $258 reversed $60 $-1 #
coedge $-1 $254 $259 $95 $156 forward $260 $-1 #
edge $-1 $261 -5.9647021545080356 $262 6.590898394491834 $155 $263 forward 7 unknown #
loop $-1 $-1 $162 $96 #
plane-surface $-1 24.901044247345162 -16.65385487346196 50.031483310823305 0 0.68199836817093118 0.7313536940579346 1 0 0 forward_v I I I I #
loop $-1 $-1 $264 $62 #
coedge $-1 $160 $160 $161 $265 reversed $97 $-1 #
coedge $-1 $161 $161 $160 $265 forward $99 $-1 #
coedge $-1 $162 $162 $100 $163 forward $157 $-1 #
edge $-1 $266 5.1009110015858872e-016 $266 6.2831853071796013 $162 $267 forward 7 unknown #
loop $-1 $-1 $169 $101 #
plane-surface $-1 24.901044247345162 -16.65385487346196 50.031483310823305 0 0.68199836817093118 0.7313536940579346 1 0 0 forward_v I I I I #
loop $-1 $-1 $268 $65 #
coedge $-1 $167 $167 $168 $269 reversed $102 $-1 #
coedge $-1 $168 $168 $167 $269 forward $104 $-1 #
coedge $-1 $169 $169 $105 $170 forward $164 $-1 #
edge $-1 $270 5.1009110015858872e-016 $270 6.2831853071796013 $169 $271 forward 7 unknown #
loop $-1 $-1 $176 $106 #
plane-surface $-1 24.901044247345162 -16.65385487346196 50.031483310823305 0 0.68199836817093118 0.7313536940579346 1 0 0 forward_v I I I I #
loop $-1 $-1 $272 $68 #
coedge $-1 $174 $174 $175 $273 reversed $107 $-1 #
coedge $-1 $175 $175 $174 $273 forward $109 $-1 #
coedge $-1 $176 $176 $110 $177 forward $171 $-1 #
edge $-1 $274 5.1009110015858872e-016 $274 6.2831853071796013 $176 $275 forward 7 unknown #
face $-1 $276 $277 $37 $-1 $278 forward single #
loop $-1 $-1 $279 $111 #
plane-surface $-1 -33.009820593585289 -128.12761465356661 73.152427834284055 1 0 0 0 0.81915205242281985 -0.57357642473473569 forward_v I I I I #
coedge $-1 $280 $281 $282 $283 reversed $112 $-1 #
coedge $-1 $183 $114 $284 $285 reversed $72 $-1 #
coedge $-1 $114 $182 $280 $286 reversed $72 $-1 #
coedge $-1 $282 $287 $114 $185 forward $277 $-1 #
edge $-1 $288 28.071611608284023 $289 30.878056008888358 $184 $290 forward 7 unknown #
loop $-1 $-1 $191 $115 #
plane-surface $-1 -21.630069597859375 -35.992195718499289 8.63851490699858 0 -0.81915205242281985 0.57357642473473569 1 0 0 forward_v I I I I #
loop $-1 $-1 $291 $74 #
coedge $-1 $189 $189 $190 $292 reversed $116 $-1 #
coedge $-1 $190 $190 $189 $292 forward $118 $-1 #
coedge $-1 $191 $191 $119 $192 forward $186 $-1 #
edge $-1 $293 2.330585836650212e-015 $293 6.2831853071796031 $191 $294 forward 7 unknown #
loop $-1 $-1 $198 $120 #
plane-surface $-1 -21.630069597859375 -35.992195718499289 8.63851490699858 0 -0.81915205242281985 0.57357642473473569 1 0 0 forward_v I I I I #
loop $-1 $-1 $295 $77 #
coedge $-1 $196 $196 $197 $296 reversed $121 $-1 #
coedge $-1 $197 $197 $196 $296 forward $123 $-1 #
coedge $-1 $198 $198 $124 $199 forward $193 $-1 #
edge $-1 $297 2.330585836650212e-015 $297 6.2831853071796031 $198 $298 forward 7 unknown #
face $-1 $299 $300 $30 $-1 $301 reversed single #
loop $-1 $-1 $302 $125 #
plane-surface $-1 -56.238288521988586 0 0 1 0 0 0 0 -1 forward_v I I I I #
coedge $-1 $303 $211 $304 $305 forward $126 $-1 #
coedge $-1 $306 $128 $303 $307 forward $81 $-1 #
coedge $-1 $128 $306 $308 $309 forward $81 $-1 #
coedge $-1 $214 $213 $128 $207 reversed $215 $-1 #
edge $-1 $310 -35.992195718499282 $311 35.992195718499282 $206 $312 forward 7 unknown #
coedge $-1 $130 $129 $313 $314 forward $51 $-1 #
coedge $-1 $315 $316 $129 $210 reversed $300 $-1 #
edge $-1 $217 -56.238288521988586 $317 56.238288521988586 $209 $318 forward 7 unknown #
coedge $-1 $203 $319 $130 $212 reversed $126 $-1 #
edge $-1 $320 -56.238288521988586 $216 56.238288521988586 $211 $321 forward 7 unknown #
coedge $-1 $206 $131 $319 $322 forward $215 $-1 #
coedge $-1 $131 $206 $315 $323 reversed $215 $-1 #
loop $-1 $-1 $213 $299 #
vertex $-1 $132 $324 #
vertex $-1 $132 $325 #
straight-curve $-1 56.238288521988586 0 12.646533004724196 0 1 0 I I #
face $-1 $326 $327 $31 $-1 $328 reversed single #
loop $-1 $-1 $329 $133 #
plane-surface $-1 -62.80839148124852 0 -0.31390269623148903 0 0 1 1 0 0 forward_v I I I I #
coedge $-1 $330 $136 $331 $332 reversed $85 $-1 #
coedge $-1 $136 $330 $228 $333 reversed $85 $-1 #
edge $-1 $230 -4.4943811710574 $334 0.31390269623148903 $136 $335 forward 7 unknown #
coedge $-1 $138 $137 $329 $336 forward $54 $-1 #
coedge $-1 $337 $338 $137 $227 forward $339 $-1 #
edge $-1 $340 -0.31390269623148903 $231 4.4943811710574 $226 $341 forward 7 unknown #
coedge $-1 $342 $139 $223 $333 forward $134 $-1 #
coedge $-1 $139 $342 $337 $343 forward $134 $-1 #
vertex $-1 $224 $344 #
vertex $-1 $343 $345 #
straight-curve $-1 -56.238288521988586 0 4.4943811710574 0 -1 0 I I #
face $-1 $346 $347 $32 $-1 $348 reversed single #
loop $-1 $-1 $349 $141 #
plane-surface $-1 62.808391481248513 0 -0.31390269623148903 0 0 1 1 0 0 forward_v I I I I #
coedge $-1 $244 $243 $350 $351 forward $142 $-1 #
coedge $-1 $352 $144 $353 $354 reversed $89 $-1 #
coedge $-1 $144 $352 $243 $355 reversed $89 $-1 #
edge $-1 $245 -4.4943811710574 $356 0.31390269623148903 $144 $357 forward 7 unknown #
coedge $-1 $146 $145 $358 $359 forward $57 $-1 #
coedge $-1 $360 $361 $145 $242 forward $362 $-1 #
edge $-1 $363 -0.31390269623148903 $246 4.4943811710574 $241 $364 forward 7 unknown #
coedge $-1 $236 $147 $238 $355 forward $142 $-1 #
coedge $-1 $147 $236 $360 $365 forward $142 $-1 #
vertex $-1 $239 $366 #
vertex $-1 $365 $367 #
straight-curve $-1 56.238288521988586 0 4.4943811710574 0 1 0 I I #
face $-1 $-1 $260 $33 $-1 $368 forward single #
loop $-1 $-1 $369 $149 #
plane-surface $-1 0 35.992195718499282 0 0 -1 0 0 0 -1 forward_v I I I I #
coedge $-1 $370 $371 $372 $373 reversed $150 $-1 #
coedge $-1 $374 $152 $154 $258 forward $93 $-1 #
coedge $-1 $152 $374 $370 $375 forward $93 $-1 #
coedge $-1 $372 $155 $152 $255 forward $260 $-1 #
edge $-1 $262 5.6627089307735936 $376 19.238335316571568 $254 $377 forward 7 unknown #
coedge $-1 $378 $379 $153 $257 forward $249 $-1 #
edge $-1 $380 -65.207575896451203 $261 -53.499288708739748 $256 $381 forward 7 unknown #
edge $-1 $262 54.816773838275829 $380 71.98439143699855 $154 $382 forward 7 unknown #
coedge $-1 $155 $372 $378 $383 forward $260 $-1 #
loop $-1 $-1 $372 $248 #
vertex $-1 $257 $384 #
vertex $-1 $156 $385 #
straight-curve $-1 18.113231054446175 30.027493563991246 12.646533004724198 0 -1 0 I I #
coedge $-1 $264 $264 $-1 $386 reversed $159 $-1 #
edge $-1 $387 0 $387 6.2831853071796004 $160 $388 forward 7 unknown #
vertex $-1 $163 $389 #
ellipse-curve $-1 20.828356331605768 29.714395443999347 6.7923894108684681 0 0.68199836817093118 0.7313536940579346 0.5 0 0 1 I I #
coedge $-1 $268 $268 $-1 $390 reversed $166 $-1 #
edge $-1 $391 0 $391 6.2831853071796004 $167 $392 forward 7 unknown #
vertex $-1 $170 $393 #
ellipse-curve $-1 24.901044247345162 29.714395443999347 6.7923894108684681 0 0.68199836817093118 0.7313536940579346 0.5 0 0 1 I I #
coedge $-1 $272 $272 $-1 $394 reversed $173 $-1 #
edge $-1 $395 0 $395 6.2831853071796004 $174 $396 forward 7 unknown #
vertex $-1 $177 $397 #
ellipse-curve $-1 28.973732163084556 29.714395443999347 6.7923894108684681 0 0.68199836817093118 0.7313536940579346 0.5 0 0 1 I I #
face $-1 $-1 $398 $37 $-1 $399 reversed single #
loop $-1 $-1 $184 $178 #
plane-surface $-1 0 0 12.646533004724196 0 0 1 1 0 0 forward_v I I I I #
coedge $-1 $400 $401 $402 $403 reversed $179 $-1 #
coedge $-1 $404 $181 $183 $286 forward $112 $-1 #
coedge $-1 $181 $404 $400 $405 forward $112 $-1 #
coedge $-1 $402 $184 $181 $283 forward $277 $-1 #
edge $-1 $289 -0.5647161967962262 $406 22.194785794655601 $282 $407 forward 7 unknown #
coedge $-1 $408 $409 $182 $285 forward $398 $-1 #
edge $-1 $410 -27.937699010143437 $288 -23.92968091241783 $284 $411 forward 7 unknown #
edge $-1 $289 -4.8928865964152015 $410 -1.2806143724965335e-014 $183 $412 forward 7 unknown #
coedge $-1 $184 $402 $408 $413 forward $277 $-1 #
vertex $-1 $285 $414 #
vertex $-1 $185 $415 #
straight-curve $-1 -10.250318602133461 -64.063807326783305 12.646533004724198 0 1 0 I I #
coedge $-1 $291 $291 $-1 $416 reversed $188 $-1 #
edge $-1 $417 0 $417 6.2831853071796004 $189 $418 forward 7 unknown #
vertex $-1 $192 $419 #
ellipse-curve $-1 -26.507105738884768 -34.588973518197122 10.642523955861387 0 -0.81915205242281985 0.57357642473473569 0.5 0 0 1 I I #
coedge $-1 $295 $295 $-1 $420 reversed $195 $-1 #
edge $-1 $421 0 $421 6.2831853071796004 $196 $422 forward 7 unknown #
vertex $-1 $199 $423 #
ellipse-curve $-1 -16.753033456833982 -34.588973518197122 10.642523955861387 0 -0.81915205242281985 0.57357642473473569 0.5 0 0 1 I I #
face $-1 $-1 $215 $30 $-1 $424 reversed single #
loop $-1 $-1 $315 $200 #
plane-surface $-1 0 35.992195718499282 0 0 -1 0 0 0 -1 forward_v I I I I #
coedge $-1 $425 $313 $316 $426 forward $201 $-1 #
coedge $-1 $319 $203 $204 $307 reversed $126 $-1 #
coedge $-1 $313 $425 $203 $305 reversed $201 $-1 #
edge $-1 $320 -12.646533004724196 $427 12.646533004724196 $304 $428 forward 7 unknown #
coedge $-1 $205 $204 $425 $429 forward $81 $-1 #
edge $-1 $311 -56.238288521988586 $427 56.238288521988586 $303 $430 forward 7 unknown #
coedge $-1 $316 $315 $205 $309 reversed $300 $-1 #
edge $-1 $431 -56.238288521988586 $310 56.238288521988586 $308 $432 forward 7 unknown #
vertex $-1 $207 $433 #
vertex $-1 $322 $434 #
straight-curve $-1 56.238288521988586 0 -12.646533004724196 0 -1 0 I I #
coedge $-1 $302 $304 $208 $314 reversed $201 $-1 #
edge $-1 $317 -35.992195718499282 $320 35.992195718499282 $313 $435 forward 7 unknown #
coedge $-1 $308 $209 $214 $323 forward $300 $-1 #
coedge $-1 $209 $308 $302 $426 reversed $300 $-1 #
vertex $-1 $210 $436 #
straight-curve $-1 0 35.992195718499282 12.646533004724196 -1 0 0 I I #
coedge $-1 $211 $303 $213 $322 reversed $126 $-1 #
vertex $-1 $314 $437 #
straight-curve $-1 0 -35.992195718499282 12.646533004724196 1 0 0 I I #
edge $-1 $216 -12.646533004724196 $311 12.646533004724196 $213 $438 forward 7 unknown #
edge $-1 $217 -12.646533004724196 $310 12.646533004724196 $214 $439 forward 7 unknown #
point $-1 56.238288521988586 -35.992195718499282 12.646533004724196 #
point $-1 56.238288521988586 35.992195718499282 12.646533004724196 #
face $-1 $-1 $339 $31 $-1 $440 reversed single #
loop $-1 $-1 $441 $219 #
plane-surface $-1 -69.378494440508462 0 2.0902392374129555 1 0 0 0 0 -1 forward_v I I I I #
coedge $-1 $442 $331 $225 $336 reversed $220 $-1 #
coedge $-1 $223 $222 $441 $443 reversed $85 $-1 #
coedge $-1 $329 $444 $222 $332 forward $220 $-1 #
edge $-1 $445 -6.5701029592599411 $334 6.570102959259934 $222 $446 forward 7 unknown #
edge $-1 $230 -6.570102959259934 $447 6.5701029592599411 $223 $448 forward 7 unknown #
vertex $-1 $224 $449 #
straight-curve $-1 -56.238288521988586 35.992195718499282 0 0 0 -1 I I #
edge $-1 $340 -35.992195718499282 $334 35.992195718499282 $329 $450 forward 7 unknown #
coedge $-1 $451 $226 $229 $343 reversed $339 $-1 #
coedge $-1 $226 $451 $442 $452 reversed $339 $-1 #
loop $-1 $-1 $226 $326 #
vertex $-1 $227 $453 #
straight-curve $-1 -56.238288521988586 -35.992195718499282 0 0 0 1 I I #
coedge $-1 $229 $228 $454 $455 forward $134 $-1 #
edge $-1 $456 -6.5701029592599411 $231 6.570102959259934 $337 $457 forward 7 unknown #
point $-1 -56.238288521988586 35.992195718499282 4.4943811710574 #
point $-1 -56.238288521988586 -35.992195718499282 4.4943811710574 #
face $-1 $-1 $362 $32 $-1 $458 reversed single #
loop $-1 $-1 $459 $233 #
plane-surface $-1 69.378494440508447 0 2.0902392374129555 -1 0 0 0 0 1 forward_v I I I I #
coedge $-1 $353 $460 $461 $462 forward $234 $-1 #
coedge $-1 $459 $463 $236 $351 reversed $347 $-1 #
edge $-1 $464 -35.992195718499282 $465 35.992195718499282 $350 $466 forward 7 unknown #
coedge $-1 $238 $237 $459 $467 reversed $89 $-1 #
coedge $-1 $358 $349 $237 $354 forward $234 $-1 #
edge $-1 $468 -6.570102959259934 $356 6.570102959259934 $237 $469 forward 7 unknown #
edge $-1 $245 -6.570102959259934 $464 6.570102959259934 $238 $470 forward 7 unknown #
vertex $-1 $239 $471 #
straight-curve $-1 56.238288521988586 -35.992195718499282 0 0 0 -1 I I #
coedge $-1 $460 $353 $240 $359 reversed $234 $-1 #
edge $-1 $363 -35.992195718499282 $356 35.992195718499282 $358 $472 forward 7 unknown #
coedge $-1 $473 $241 $244 $365 reversed $362 $-1 #
coedge $-1 $241 $473 $460 $474 reversed $362 $-1 #
loop $-1 $-1 $241 $346 #
vertex $-1 $242 $475 #
straight-curve $-1 56.238288521988586 35.992195718499282 0 0 0 1 I I #
edge $-1 $465 -6.570102959259934 $246 6.570102959259934 $360 $476 forward 7 unknown #
point $-1 56.238288521988579 -35.992195718499282 4.4943811710574 #
point $-1 56.238288521988579 35.992195718499282 4.4943811710574 #
plane-surface $-1 0 0 12.646533004724196 0 0 1 1 0 0 forward_v I I I I #
coedge $-1 $379 $378 $371 $477 forward $249 $-1 #
coedge $-1 $371 $251 $253 $375 reversed $150 $-1 #
coedge $-1 $251 $370 $369 $477 reversed $150 $-1 #
coedge $-1 $259 $254 $251 $373 forward $260 $-1 #
edge $-1 $376 -6.590898394491834 $478 5.9647021545080356 $372 $479 forward 7 unknown #
coedge $-1 $253 $252 $379 $480 reversed $93 $-1 #
edge $-1 $481 -71.98439143699855 $376 -54.816773838275829 $370 $482 forward 7 unknown #
vertex $-1 $255 $483 #
straight-curve $-1 12.450522123672581 23.436595169499412 12.646533004724198 1 0 0 I I #
coedge $-1 $369 $256 $259 $383 reversed $249 $-1 #
coedge $-1 $256 $369 $374 $480 forward $249 $-1 #
vertex $-1 $257 $484 #
straight-curve $-1 18.113231054446175 35.992195718499282 66.145821713463945 0 0 1 I I #
straight-curve $-1 18.113231054446175 -16.65385487346196 50.031483310823305 0 0.7313536940579346 -0.68199836817093118 I I #
edge $-1 $478 -31.688857440244149 $261 -18.113231054446175 $378 $485 forward 7 unknown #
point $-1 18.113231054446175 35.992195718499282 12.646533004724196 #
point $-1 18.113231054446175 23.436595169499412 12.646533004724198 #
edge $-1 $486 1 $486 0 $264 $-1 forward 7 unknown #
vertex $-1 $265 $487 #
ellipse-curve $-1 20.828356331605768 29.03239707582841 6.0610357168105251 0 0.68199836817093118 0.7313536940579346 0.5 0 0 1 I I #
point $-1 21.328356331605768 29.71439544399934 6.7923894108684602 #
edge $-1 $488 1 $488 0 $268 $-1 forward 7 unknown #
vertex $-1 $269 $489 #
ellipse-curve $-1 24.901044247345162 29.03239707582841 6.0610357168105251 0 0.68199836817093118 0.7313536940579346 0.5 0 0 1 I I #
point $-1 25.401044247345162 29.71439544399934 6.7923894108684602 #
edge $-1 $490 1 $490 0 $272 $-1 forward 7 unknown #
vertex $-1 $273 $491 #
ellipse-curve $-1 28.973732163084556 29.03239707582841 6.0610357168105251 0 0.68199836817093118 0.7313536940579346 0.5 0 0 1 I I #
point $-1 29.473732163084556 29.71439544399934 6.7923894108684602 #
loop $-1 $-1 $284 $276 #
plane-surface $-1 0 -35.992195718499282 0 0 1 0 0 0 1 forward_v I I I I #
coedge $-1 $401 $279 $281 $405 reversed $179 $-1 #
coedge $-1 $279 $400 $492 $493 reversed $179 $-1 #
coedge $-1 $287 $282 $279 $403 forward $277 $-1 #
edge $-1 $406 -30.878056008888358 $494 -28.071611608284023 $402 $495 forward 7 unknown #
coedge $-1 $281 $280 $409 $496 reversed $112 $-1 #
edge $-1 $497 1.2806143724965335e-014 $406 4.8928865964152015 $400 $498 forward 7 unknown #
vertex $-1 $283 $499 #
straight-curve $-1 -10.815034798929688 -33.185751317894947 12.646533004724196 -1 0 0 I I #
coedge $-1 $492 $284 $287 $413 reversed $398 $-1 #
coedge $-1 $284 $492 $404 $496 forward $398 $-1 #
vertex $-1 $285 $500 #
straight-curve $-1 -10.250318602133461 -35.992195718499282 36.576213917142027 0 0 1 I I #
straight-curve $-1 -10.250318602133461 -35.992195718499289 8.63851490699858 0 -0.57357642473473569 -0.81915205242281985 I I #
edge $-1 $494 -33.009820593585289 $288 -10.250318602133461 $408 $501 forward 7 unknown #
point $-1 -10.250318602133461 -35.992195718499282 12.646533004724196 #
point $-1 -10.250318602133461 -33.185751317894947 12.646533004724196 #
edge $-1 $502 1 $502 0 $291 $-1 forward 7 unknown #
vertex $-1 $292 $503 #
ellipse-curve $-1 -26.507105738884768 -33.769821465774292 10.068947531126648 0 -0.81915205242281985 0.57357642473473569 0.5 0 0 1 I I #
point $-1 -26.007105738884768 -34.588973518197115 10.642523955861384 #
edge $-1 $504 1 $504 0 $295 $-1 forward 7 unknown #
vertex $-1 $296 $505 #
ellipse-curve $-1 -16.753033456833982 -33.769821465774292 10.068947531126648 0 -0.81915205242281985 0.57357642473473569 0.5 0 0 1 I I #
point $-1 -16.253033456833982 -34.588973518197115 10.642523955861384 #
plane-surface $-1 56.238288521988586 0 0 -1 0 0 0 0 1 forward_v I I I I #
coedge $-1 $304 $302 $306 $429 reversed $201 $-1 #
edge $-1 $317 -12.646533004724196 $431 12.646533004724196 $316 $506 forward 7 unknown #
vertex $-1 $429 $507 #
straight-curve $-1 -56.238288521988586 -35.992195718499282 0 0 0 -1 I I #
edge $-1 $427 -35.992195718499282 $431 35.992195718499282 $425 $508 forward 7 unknown #
straight-curve $-1 0 -35.992195718499282 -12.646533004724196 -1 0 0 I I #
vertex $-1 $309 $509 #
straight-curve $-1 0 35.992195718499282 -12.646533004724196 1 0 0 I I #
point $-1 56.238288521988586 35.992195718499282 -12.646533004724196 #
point $-1 56.238288521988586 -35.992195718499282 -12.646533004724196 #
straight-curve $-1 -56.238288521988586 0 12.646533004724196 0 -1 0 I I #
point $-1 -56.238288521988586 35.992195718499282 12.646533004724196 #
point $-1 -56.238288521988586 -35.992195718499282 12.646533004724196 #
straight-curve $-1 56.238288521988586 -35.992195718499282 0 0 0 -1 I I #
straight-curve $-1 56.238288521988586 35.992195718499282 0 0 0 -1 I I #
plane-surface $-1 0 -35.992195718499282 0 0 1 0 0 0 1 forward_v I I I I #
coedge $-1 $510 $454 $330 $443 forward $327 $-1 #
coedge $-1 $444 $329 $338 $452 forward $220 $-1 #
edge $-1 $447 -2.4041419336444445 $445 2.4041419336444445 $330 $511 forward 7 unknown #
coedge $-1 $331 $442 $510 $512 forward $220 $-1 #
vertex $-1 $332 $513 #
straight-curve $-1 -62.80839148124852 35.992195718499282 -0.31390269623148903 1 0 0 I I #
vertex $-1 $333 $514 #
straight-curve $-1 -62.80839148124852 35.992195718499282 4.4943811710574 -1 0 0 I I #
point $-1 -56.238288521988586 35.992195718499282 -0.31390269623148903 #
straight-curve $-1 -56.238288521988586 0 -0.31390269623148903 0 1 0 I I #
coedge $-1 $338 $337 $515 $516 forward $339 $-1 #
edge $-1 $340 -6.570102959259934 $517 6.5701029592599411 $338 $518 forward 7 unknown #
point $-1 -56.238288521988586 -35.992195718499282 -0.31390269623148903 #
coedge $-1 $441 $515 $342 $455 reversed $327 $-1 #
edge $-1 $447 -35.992195718499282 $456 35.992195718499282 $454 $519 forward 7 unknown #
vertex $-1 $455 $520 #
straight-curve $-1 -62.80839148124852 -35.992195718499282 4.4943811710574 1 0 0 I I #
plane-surface $-1 0 35.992195718499282 0 0 -1 0 0 0 -1 forward_v I I I I #
coedge $-1 $461 $350 $352 $467 forward $347 $-1 #
coedge $-1 $349 $358 $361 $474 forward $234 $-1 #
coedge $-1 $463 $459 $349 $462 reversed $347 $-1 #
edge $-1 $521 -35.992195718499282 $468 35.992195718499282 $461 $522 forward 7 unknown #
coedge $-1 $350 $461 $473 $523 reversed $347 $-1 #
vertex $-1 $351 $524 #
vertex $-1 $351 $525 #
straight-curve $-1 69.378494440508447 0 4.4943811710574 0 1 0 I I #
edge $-1 $464 -2.4041419336444445 $468 2.4041419336444445 $459 $526 forward 7 unknown #
vertex $-1 $467 $527 #
straight-curve $-1 62.808391481248513 -35.992195718499282 -0.31390269623148903 -1 0 0 I I #
straight-curve $-1 62.808391481248513 -35.992195718499282 4.4943811710574 1 0 0 I I #
point $-1 56.238288521988579 -35.992195718499282 -0.31390269623148903 #
straight-curve $-1 56.238288521988586 0 -0.31390269623148903 0 -1 0 I I #
coedge $-1 $361 $360 $463 $523 forward $362 $-1 #
edge $-1 $363 -6.570102959259934 $521 6.570102959259934 $361 $528 forward 7 unknown #
point $-1 56.238288521988579 35.992195718499282 -0.31390269623148903 #
straight-curve $-1 62.808391481248513 35.992195718499282 4.4943811710574 -1 0 0 I I #
edge $-1 $478 53.499288708739748 $481 65.207575896451203 $369 $529 forward 7 unknown #
vertex $-1 $383 $530 #
straight-curve $-1 31.688857440244149 30.027493563991246 12.646533004724198 0 1 0 I I #
edge $-1 $481 -19.238335316571568 $380 -5.6627089307735936 $379 $531 forward 7 unknown #
vertex $-1 $480 $532 #
straight-curve $-1 31.688857440244149 -16.65385487346196 50.031483310823305 0 -0.7313536940579346 0.68199836817093118 I I #
point $-1 31.688857440244149 23.436595169499412 12.646533004724198 #
point $-1 18.113231054446175 35.992195718499282 0.93824581701274212 #
straight-curve $-1 0 35.992195718499282 12.646533004724196 -1 0 0 I I #
vertex $-1 $386 $533 #
point $-1 21.328356331605768 29.03239707582841 6.0610357168105251 #
vertex $-1 $390 $534 #
point $-1 25.401044247345162 29.03239707582841 6.0610357168105251 #
vertex $-1 $394 $535 #
point $-1 29.473732163084556 29.03239707582841 6.0610357168105251 #
coedge $-1 $409 $408 $401 $493 forward $398 $-1 #
edge $-1 $494 23.92968091241783 $497 27.937699010143437 $492 $536 forward 7 unknown #
vertex $-1 $413 $537 #
straight-curve $-1 -33.009820593585289 -64.063807326783305 12.646533004724198 0 -1 0 I I #
edge $-1 $497 -22.194785794655601 $410 0.5647161967962262 $409 $538 forward 7 unknown #
vertex $-1 $496 $539 #
straight-curve $-1 -33.009820593585289 -35.992195718499289 8.63851490699858 0 0.57357642473473569 0.81915205242281985 I I #
point $-1 -33.009820593585289 -33.185751317894947 12.646533004724196 #
point $-1 -10.250318602133461 -35.992195718499282 8.6385149069985907 #
straight-curve $-1 0 -35.992195718499282 12.646533004724196 1 0 0 I I #
vertex $-1 $416 $540 #
point $-1 -26.007105738884768 -33.769821465774292 10.068947531126648 #
vertex $-1 $420 $541 #
point $-1 -16.253033456833982 -33.769821465774292 10.068947531126648 #
straight-curve $-1 -56.238288521988586 35.992195718499282 0 0 0 -1 I I #
point $-1 -56.238288521988586 -35.992195718499282 -12.646533004724196 #
straight-curve $-1 -56.238288521988586 0 -12.646533004724196 0 1 0 I I #
point $-1 -56.238288521988586 35.992195718499282 -12.646533004724196 #
coedge $-1 $515 $441 $444 $512 reversed $327 $-1 #
straight-curve $-1 -69.378494440508462 35.992195718499282 2.0902392374129555 0 0 -1 I I #
edge $-1 $517 -35.992195718499282 $445 35.992195718499282 $510 $542 forward 7 unknown #
point $-1 -69.378494440508462 35.992195718499282 -0.31390269623148903 #
point $-1 -69.378494440508462 35.992195718499282 4.4943811710574 #
coedge $-1 $454 $510 $451 $516 reversed $327 $-1 #
edge $-1 $456 -2.4041419336444445 $517 2.4041419336444445 $515 $543 forward 7 unknown #
vertex $-1 $512 $544 #
straight-curve $-1 -62.80839148124852 -35.992195718499282 -0.31390269623148903 -1 0 0 I I #
straight-curve $-1 -69.378494440508462 0 4.4943811710574 0 -1 0 I I #
point $-1 -69.378494440508462 -35.992195718499282 4.4943811710574 #
vertex $-1 $462 $545 #
straight-curve $-1 69.378494440508447 0 -0.31390269623148903 0 -1 0 I I #
edge $-1 $465 -2.4041419336444445 $521 2.4041419336444445 $463 $546 forward 7 unknown #
point $-1 69.378494440508447 -35.992195718499282 4.4943811710574 #
point $-1 69.378494440508447 35.992195718499282 4.4943811710574 #
straight-curve $-1 69.378494440508447 -35.992195718499282 2.0902392374129555 0 0 -1 I I #
point $-1 69.378494440508447 -35.992195718499282 -0.31390269623148903 #
straight-curve $-1 62.808391481248513 35.992195718499282 -0.31390269623148903 1 0 0 I I #
straight-curve $-1 31.688857440244149 35.992195718499282 66.145821713463945 0 0 -1 I I #
point $-1 31.688857440244149 35.992195718499282 12.646533004724196 #
straight-curve $-1 12.450522123672581 35.992195718499275 0.93824581701274568 -1 0 0 I I #
point $-1 31.688857440244149 35.992195718499282 0.93824581701274212 #
point $-1 20.828356331605768 28.691397891742941 5.6953588697815585 #
point $-1 24.901044247345162 28.691397891742941 5.6953588697815585 #
point $-1 28.973732163084556 28.691397891742941 5.6953588697815585 #
straight-curve $-1 -33.009820593585289 -35.992195718499282 36.576213917142027 0 0 -1 I I #
point $-1 -33.009820593585289 -35.992195718499282 12.646533004724196 #
straight-curve $-1 -10.815034798929688 -35.992195718499282 8.6385149069985996 1 0 0 I I #
point $-1 -33.009820593585289 -35.992195718499282 8.6385149069985907 #
point $-1 -26.507105738884768 -33.360245439562881 9.7821593187592786 #
point $-1 -16.753033456833982 -33.360245439562881 9.7821593187592786 #
straight-curve $-1 -69.378494440508462 0 -0.31390269623148903 0 1 0 I I #
straight-curve $-1 -69.378494440508462 -35.992195718499282 2.0902392374129555 0 0 -1 I I #
point $-1 -69.378494440508462 -35.992195718499282 -0.31390269623148903 #
point $-1 69.378494440508447 35.992195718499282 -0.31390269623148903 #
straight-curve $-1 69.378494440508447 35.992195718499282 2.0902392374129555 0 0 -1 I I #
End-of-ACIS-data 