500 0 17 0           
7 Unknown 11 ACIS 5.0 NT 24 Fri Mar 26 01:06:12 1999 
-1 9.9999999999999995e-007 1e-010 
body $-1 $17 $-1 $18 #
body $-1 $19 $-1 $20 #
body $-1 $21 $-1 $22 #
body $-1 $23 $-1 $24 #
body $-1 $25 $-1 $26 #
body $-1 $27 $-1 $28 #
body $-1 $29 $-1 $30 #
body $-1 $31 $-1 $32 #
body $-1 $33 $-1 $34 #
body $-1 $35 $-1 $36 #
body $-1 $37 $-1 $38 #
body $-1 $39 $-1 $40 #
body $-1 $41 $-1 $42 #
body $-1 $43 $-1 $44 #
body $-1 $45 $-1 $46 #
body $-1 $47 $-1 $48 #
body $-1 $49 $-1 $50 #
lump $-1 $-1 $51 $0 #
transform $-1 1 0 0 0 1 0 0 0 1 66.372875148777737 31.594112455993709 6.5730834078113567 1 rotate no_reflect no_shear #
lump $-1 $-1 $52 $1 #
transform $-1 1 0 0 0 1 0 0 0 1 66.372875148777737 31.594112455993709 6.5730834078113567 1 rotate no_reflect no_shear #
lump $-1 $-1 $53 $2 #
transform $-1 1 0 0 0 1 0 0 0 1 66.372875148777737 31.594112455993709 6.5730834078113567 1 rotate no_reflect no_shear #
lump $-1 $-1 $54 $3 #
transform $-1 1 0 0 0 1 0 0 0 1 66.372875148777737 31.594112455993709 6.5730834078113567 1 rotate no_reflect no_shear #
lump $-1 $-1 $55 $4 #
transform $-1 1 0 0 0 1 0 0 0 1 66.372875148777737 31.594112455993709 6.5730834078113567 1 rotate no_reflect no_shear #
lump $-1 $-1 $56 $5 #
transform $-1 1 0 0 0 1 0 0 0 1 66.372875148777737 31.594112455993709 6.5730834078113567 1 rotate no_reflect no_shear #
lump $-1 $-1 $57 $6 #
transform $-1 1 0 0 0 1 0 0 0 1 66.372875148777737 31.594112455993709 6.5730834078113567 1 rotate no_reflect no_shear #
lump $-1 $-1 $58 $7 #
transform $-1 1 0 0 0 1 0 0 0 1 66.372875148777737 31.594112455993709 6.5730834078113567 1 rotate no_reflect no_shear #
lump $-1 $-1 $59 $8 #
transform $-1 1 0 0 0 1 0 0 0 1 66.372875148777737 31.594112455993709 6.5730834078113567 1 rotate no_reflect no_shear #
lump $-1 $-1 $60 $9 #
transform $-1 1 0 0 0 1 0 0 0 1 66.372875148777737 31.594112455993709 6.5730834078113567 1 rotate no_reflect no_shear #
lump $-1 $-1 $61 $10 #
transform $-1 1 0 0 0 1 0 0 0 1 66.372875148777737 31.594112455993709 6.5730834078113567 1 rotate no_reflect no_shear #
lump $-1 $-1 $62 $11 #
transform $-1 1 0 0 0 1 0 0 0 1 66.372875148777737 31.594112455993709 6.5730834078113567 1 rotate no_reflect no_shear #
lump $-1 $-1 $63 $12 #
transform $-1 1 0 0 0 1 0 0 0 1 66.372875148777737 31.594112455993709 6.5730834078113567 1 rotate no_reflect no_shear #
lump $-1 $-1 $64 $13 #
transform $-1 1 0 0 0 1 0 0 0 1 66.372875148777737 31.594112455993709 6.5730834078113567 1 rotate no_reflect no_shear #
lump $-1 $-1 $65 $14 #
transform $-1 1 0 0 0 1 0 0 0 1 66.372875148777737 31.594112455993709 6.5730834078113567 1 rotate no_reflect no_shear #
lump $-1 $-1 $66 $15 #
transform $-1 1 0 0 0 1 0 0 0 1 66.372875148777737 31.594112455993709 6.5730834078113567 1 rotate no_reflect no_shear #
lump $-1 $-1 $67 $16 #
transform $-1 1 0 0 0 1 0 0 0 1 66.372875148777737 31.594112455993709 6.5730834078113567 1 rotate no_reflect no_shear #
shell $-1 $-1 $-1 $68 $-1 $17 #
shell $-1 $-1 $-1 $69 $-1 $19 #
shell $-1 $-1 $-1 $70 $-1 $21 #
shell $-1 $-1 $-1 $71 $-1 $23 #
shell $-1 $-1 $-1 $72 $-1 $25 #
shell $-1 $-1 $-1 $73 $-1 $27 #
shell $-1 $-1 $-1 $74 $-1 $29 #
shell $-1 $-1 $-1 $75 $-1 $31 #
shell $-1 $-1 $-1 $76 $-1 $33 #
shell $-1 $-1 $-1 $77 $-1 $35 #
shell $-1 $-1 $-1 $78 $-1 $37 #
shell $-1 $-1 $-1 $79 $-1 $39 #
shell $-1 $-1 $-1 $80 $-1 $41 #
shell $-1 $-1 $-1 $81 $-1 $43 #
shell $-1 $-1 $-1 $82 $-1 $45 #
shell $-1 $-1 $-1 $83 $-1 $47 #
shell $-1 $-1 $-1 $84 $-1 $49 #
face $-1 $85 $86 $51 $-1 $87 forward single #
face $-1 $88 $89 $52 $-1 $90 reversed single #
face $-1 $91 $92 $53 $-1 $93 forward single #
face $-1 $94 $95 $54 $-1 $96 forward single #
face $-1 $97 $98 $55 $-1 $99 reversed single #
face $-1 $100 $101 $56 $-1 $102 forward single #
face $-1 $103 $104 $57 $-1 $105 forward single #
face $-1 $106 $107 $58 $-1 $108 reversed single #
face $-1 $109 $110 $59 $-1 $111 forward single #
face $-1 $112 $113 $60 $-1 $114 forward single #
face $-1 $115 $116 $61 $-1 $117 reversed single #
face $-1 $118 $119 $62 $-1 $120 forward single #
face $-1 $121 $122 $63 $-1 $123 forward single #
face $-1 $124 $125 $64 $-1 $126 reversed single #
face $-1 $127 $128 $65 $-1 $129 forward single #
face $-1 $130 $131 $66 $-1 $132 forward single #
face $-1 $133 $134 $67 $-1 $135 forward single #
face $-1 $136 $137 $51 $-1 $138 reversed single #
loop $-1 $-1 $139 $68 #
plane-surface $-1 0 0 6.5730834078113567 0 0 1 1 0 0 forward_v I I I I #
face $-1 $140 $141 $52 $-1 $142 reversed single #
loop $-1 $-1 $143 $69 #
plane-surface $-1 102.19361087096185 -18.966863438409831 185.00117570535306 0 -1 0 -0.82903758062907751 0 -0.55919289150049634 forward_v I I I I #
face $-1 $144 $145 $53 $-1 $146 forward single #
loop $-1 $147 $148 $70 #
cone-surface $-1 63.770011909366012 -24.479706785897974 3.2222110725769131 -0.82903758062907751 0 -0.55919289150049634 0.27959644575024817 0 -0.41451879031453875 1 I I 0 1 0.5 forward I I I I #
face $-1 $149 $150 $54 $-1 $151 forward single #
loop $-1 $152 $153 $71 #
cone-surface $-1 63.770011909366012 -21.172000777405085 3.2222110725769131 -0.82903758062907751 0 -0.55919289150049634 0.27959644575024817 0 -0.41451879031453875 1 I I 0 1 0.5 forward I I I I #
face $-1 $154 $155 $55 $-1 $156 reversed single #
loop $-1 $-1 $157 $72 #
plane-surface $-1 102.19361087096185 -3.7496275839754731 185.00117570535306 0 -1 0 -0.82903758062907751 0 -0.55919289150049634 forward_v I I I I #
face $-1 $158 $159 $56 $-1 $160 forward single #
loop $-1 $161 $162 $73 #
cone-surface $-1 63.770011909366012 -9.2624709314636178 3.2222110725769131 -0.82903758062907751 0 -0.55919289150049634 0.27959644575024817 0 -0.41451879031453875 1 I I 0 1 0.5 forward I I I I #
face $-1 $163 $164 $57 $-1 $165 forward single #
loop $-1 $166 $167 $74 #
cone-surface $-1 63.770011909366012 -5.9547649229707318 3.2222110725769131 -0.82903758062907751 0 -0.55919289150049634 0.27959644575024817 0 -0.41451879031453875 1 I I 0 1 0.5 forward I I I I #
face $-1 $168 $169 $58 $-1 $170 reversed single #
loop $-1 $-1 $171 $75 #
plane-surface $-1 102.19361087096185 11.467608270458884 185.00117570535306 0 -1 0 -0.82903758062907751 0 -0.55919289150049634 forward_v I I I I #
face $-1 $172 $173 $59 $-1 $174 forward single #
loop $-1 $175 $176 $76 #
cone-surface $-1 63.770011909366012 5.9547649229707389 3.2222110725769131 -0.82903758062907751 0 -0.55919289150049634 0.27959644575024817 0 -0.41451879031453875 1 I I 0 1 0.5 forward I I I I #
face $-1 $177 $178 $60 $-1 $179 forward single #
loop $-1 $180 $181 $77 #
cone-surface $-1 63.770011909366012 9.2624709314636249 3.2222110725769131 -0.82903758062907751 0 -0.55919289150049634 0.27959644575024817 0 -0.41451879031453875 1 I I 0 1 0.5 forward I I I I #
face $-1 $182 $183 $61 $-1 $184 reversed single #
loop $-1 $-1 $185 $78 #
plane-surface $-1 102.19361087096185 26.684844124893239 185.00117570535306 0 -1 0 -0.82903758062907751 0 -0.55919289150049634 forward_v I I I I #
face $-1 $186 $187 $62 $-1 $188 forward single #
loop $-1 $189 $190 $79 #
cone-surface $-1 63.770011909366012 21.172000777405096 3.2222110725769131 -0.82903758062907751 0 -0.55919289150049634 0.27959644575024817 0 -0.41451879031453875 1 I I 0 1 0.5 forward I I I I #
face $-1 $191 $192 $63 $-1 $193 forward single #
loop $-1 $194 $195 $80 #
cone-surface $-1 63.770011909366012 24.479706785897982 3.2222110725769131 -0.82903758062907751 0 -0.55919289150049634 0.27959644575024817 0 -0.41451879031453875 1 I I 0 1 0.5 forward I I I I #
face $-1 $196 $197 $64 $-1 $198 reversed single #
loop $-1 $-1 $199 $81 #
plane-surface $-1 -155.19712060522085 -7.429964491463279 99.598336676006539 0 1 0 -0.66913061440640931 0 0.74314481823134659 forward_v I I I I #
face $-1 $200 $201 $65 $-1 $202 forward single #
loop $-1 $203 $204 $82 #
cone-surface $-1 -62.566464396684985 -4.1596503614164924 3.00213327374804 0.66913061440640931 0 -0.74314481823134659 0.74314481823134659 0 0.66913061440640931 1 I I 0 1 1 forward I I I I #
face $-1 $205 $206 $66 $-1 $207 forward single #
loop $-1 $208 $209 $83 #
cone-surface $-1 -62.566464396684985 0.74582083365368135 3.00213327374804 0.66913061440640931 0 -0.74314481823134659 0.74314481823134659 0 0.66913061440640931 1 I I 0 1 1 forward I I I I #
face $-1 $210 $211 $67 $-1 $212 forward single #
loop $-1 $213 $214 $84 #
cone-surface $-1 -62.566464396684985 5.6512920287238586 3.00213327374804 0.66913061440640931 0 -0.74314481823134659 0.74314481823134659 0 0.66913061440640931 1 I I 0 1 1 forward I I I I #
face $-1 $215 $216 $51 $-1 $217 reversed single #
loop $-1 $-1 $218 $85 #
plane-surface $-1 0 0 -6.5730834078113567 0 0 1 1 0 0 forward_v I I I I #
coedge $-1 $219 $220 $221 $222 forward $86 $-1 #
face $-1 $223 $224 $52 $-1 $225 reversed single #
loop $-1 $-1 $226 $88 #
plane-surface $-1 -7.8576047945151828 -22.825853781651531 110.77069576206014 0.82903758062907751 0 0.55919289150049634 0.55919289150049634 0 -0.82903758062907751 forward_v I I I I #
coedge $-1 $227 $228 $229 $230 reversed $89 $-1 #
face $-1 $-1 $231 $53 $-1 $232 forward single #
loop $-1 $233 $234 $91 #
cone-surface $-1 62.934041857131589 -24.479706785897974 2.6583421700814789 -0.82903758062907751 0 -0.55919289150049634 0.13979822287512408 0 -0.20725939515726938 1 I I -0.70710678118654746 0.70710678118654746 0.25 forward I I I I #
loop $-1 $-1 $235 $70 #
coedge $-1 $148 $148 $236 $237 reversed $92 $-1 #
face $-1 $-1 $238 $54 $-1 $239 forward single #
loop $-1 $240 $241 $94 #
cone-surface $-1 62.934041857131589 -21.172000777405085 2.6583421700814789 -0.82903758062907751 0 -0.55919289150049634 0.13979822287512408 0 -0.20725939515726938 1 I I -0.70710678118654746 0.70710678118654746 0.25 forward I I I I #
loop $-1 $-1 $242 $71 #
coedge $-1 $153 $153 $243 $244 reversed $95 $-1 #
face $-1 $245 $246 $55 $-1 $247 reversed single #
loop $-1 $-1 $248 $97 #
plane-surface $-1 -7.8576047945151828 -7.6086179272171748 110.77069576206014 0.82903758062907751 0 0.55919289150049634 0.55919289150049634 0 -0.82903758062907751 forward_v I I I I #
coedge $-1 $249 $250 $251 $252 reversed $98 $-1 #
face $-1 $-1 $253 $56 $-1 $254 forward single #
loop $-1 $255 $256 $100 #
cone-surface $-1 62.934041857131589 -9.2624709314636178 2.6583421700814789 -0.82903758062907751 0 -0.55919289150049634 0.13979822287512408 0 -0.20725939515726938 1 I I -0.70710678118654746 0.70710678118654746 0.25 forward I I I I #
loop $-1 $-1 $257 $73 #
coedge $-1 $162 $162 $258 $259 reversed $101 $-1 #
face $-1 $-1 $260 $57 $-1 $261 forward single #
loop $-1 $262 $263 $103 #
cone-surface $-1 62.934041857131589 -5.9547649229707318 2.6583421700814789 -0.82903758062907751 0 -0.55919289150049634 0.13979822287512408 0 -0.20725939515726938 1 I I -0.70710678118654746 0.70710678118654746 0.25 forward I I I I #
loop $-1 $-1 $264 $74 #
coedge $-1 $167 $167 $265 $266 reversed $104 $-1 #
face $-1 $267 $268 $58 $-1 $269 reversed single #
loop $-1 $-1 $270 $106 #
plane-surface $-1 -7.8576047945151828 7.6086179272171819 110.77069576206014 0.82903758062907751 0 0.55919289150049634 0.55919289150049634 0 -0.82903758062907751 forward_v I I I I #
coedge $-1 $271 $272 $273 $274 reversed $107 $-1 #
face $-1 $-1 $275 $59 $-1 $276 forward single #
loop $-1 $277 $278 $109 #
cone-surface $-1 62.934041857131589 5.9547649229707389 2.6583421700814789 -0.82903758062907751 0 -0.55919289150049634 0.13979822287512408 0 -0.20725939515726938 1 I I -0.70710678118654746 0.70710678118654746 0.25 forward I I I I #
loop $-1 $-1 $279 $76 #
coedge $-1 $176 $176 $280 $281 reversed $110 $-1 #
face $-1 $-1 $282 $60 $-1 $283 forward single #
loop $-1 $284 $285 $112 #
cone-surface $-1 62.934041857131589 9.2624709314636249 2.6583421700814789 -0.82903758062907751 0 -0.55919289150049634 0.13979822287512408 0 -0.20725939515726938 1 I I -0.70710678118654746 0.70710678118654746 0.25 forward I I I I #
loop $-1 $-1 $286 $77 #
coedge $-1 $181 $181 $287 $288 reversed $113 $-1 #
face $-1 $289 $290 $61 $-1 $291 reversed single #
loop $-1 $-1 $292 $115 #
plane-surface $-1 -7.8576047945151828 22.825853781651539 110.77069576206014 0.82903758062907751 0 0.55919289150049634 0.55919289150049634 0 -0.82903758062907751 forward_v I I I I #
coedge $-1 $293 $294 $295 $296 reversed $116 $-1 #
face $-1 $-1 $297 $62 $-1 $298 forward single #
loop $-1 $299 $300 $118 #
cone-surface $-1 62.934041857131589 21.172000777405096 2.6583421700814789 -0.82903758062907751 0 -0.55919289150049634 0.13979822287512408 0 -0.20725939515726938 1 I I -0.70710678118654746 0.70710678118654746 0.25 forward I I I I #
loop $-1 $-1 $301 $79 #
coedge $-1 $190 $190 $302 $303 reversed $119 $-1 #
face $-1 $-1 $304 $63 $-1 $305 forward single #
loop $-1 $306 $307 $121 #
cone-surface $-1 62.934041857131589 24.479706785897982 2.6583421700814789 -0.82903758062907751 0 -0.55919289150049634 0.13979822287512408 0 -0.20725939515726938 1 I I -0.70710678118654746 0.70710678118654746 0.25 forward I I I I #
loop $-1 $-1 $308 $80 #
coedge $-1 $195 $195 $309 $310 reversed $122 $-1 #
face $-1 $311 $312 $64 $-1 $313 reversed single #
loop $-1 $-1 $314 $124 #
plane-surface $-1 -66.372875148777766 0.74582083365368135 0.94902020014595223 -0.66913061440640931 0 0.74314481823134659 0.74314481823134659 0 0.66913061440640931 forward_v I I I I #
coedge $-1 $315 $316 $317 $318 reversed $125 $-1 #
face $-1 $-1 $319 $65 $-1 $320 forward single #
loop $-1 $321 $322 $127 #
cone-surface $-1 -61.548565760688348 -4.1596503614164924 1.8716423344017556 0.66913061440640931 0 -0.74314481823134659 0.3715724091156733 0 0.33456530720320465 1 I I -0.70710678118654746 0.70710678118654746 0.5 forward I I I I #
loop $-1 $-1 $323 $82 #
coedge $-1 $204 $204 $324 $325 reversed $128 $-1 #
face $-1 $-1 $326 $66 $-1 $327 forward single #
loop $-1 $328 $329 $130 #
cone-surface $-1 -61.548565760688348 0.74582083365368135 1.8716423344017556 0.66913061440640931 0 -0.74314481823134659 0.3715724091156733 0 0.33456530720320465 1 I I -0.70710678118654746 0.70710678118654746 0.5 forward I I I I #
loop $-1 $-1 $330 $83 #
coedge $-1 $209 $209 $331 $332 reversed $131 $-1 #
face $-1 $-1 $333 $67 $-1 $334 forward single #
loop $-1 $335 $336 $133 #
cone-surface $-1 -61.548565760688348 5.6512920287238586 1.8716423344017556 0.66913061440640931 0 -0.74314481823134659 0.3715724091156733 0 0.33456530720320465 1 I I -0.70710678118654746 0.70710678118654746 0.5 forward I I I I #
loop $-1 $-1 $337 $84 #
coedge $-1 $214 $214 $338 $339 reversed $134 $-1 #
face $-1 $340 $341 $51 $-1 $342 reversed single #
loop $-1 $-1 $343 $136 #
plane-surface $-1 0 -31.594112455993709 0 0 1 0 0 0 1 forward_v I I I I #
coedge $-1 $344 $345 $346 $347 forward $137 $-1 #
coedge $-1 $348 $139 $349 $350 forward $86 $-1 #
coedge $-1 $139 $348 $351 $352 forward $86 $-1 #
coedge $-1 $353 $354 $139 $222 reversed $355 $-1 #
edge $-1 $356 -31.594112455993709 $357 31.594112455993709 $221 $358 forward 7 unknown #
face $-1 $359 $360 $52 $-1 $361 forward single #
loop $-1 $-1 $362 $140 #
plane-surface $-1 102.19361087096185 -26.684844124893232 185.00117570535306 0 1 0 0.82903758062907751 0 0.55919289150049634 forward_v I I I I #
coedge $-1 $363 $364 $365 $366 reversed $141 $-1 #
coedge $-1 $228 $143 $367 $368 reversed $89 $-1 #
coedge $-1 $143 $227 $363 $369 reversed $89 $-1 #
coedge $-1 $365 $370 $143 $230 forward $360 $-1 #
edge $-1 $371 -15.276069713296813 $372 -11.327764548627663 $229 $373 forward 7 unknown #
loop $-1 $-1 $236 $144 #
plane-surface $-1 -7.8576047945151828 -22.825853781651531 110.77069576206014 0.82903758062907751 0 0.55919289150049634 0.55919289150049634 0 -0.82903758062907751 forward_v I I I I #
loop $-1 $-1 $374 $91 #
coedge $-1 $234 $234 $235 $375 reversed $145 $-1 #
coedge $-1 $235 $235 $234 $375 forward $147 $-1 #
coedge $-1 $236 $236 $148 $237 forward $231 $-1 #
edge $-1 $376 0 $376 6.2831853071796004 $236 $377 forward 7 unknown #
loop $-1 $-1 $243 $149 #
plane-surface $-1 -7.8576047945151828 -22.825853781651531 110.77069576206014 0.82903758062907751 0 0.55919289150049634 0.55919289150049634 0 -0.82903758062907751 forward_v I I I I #
loop $-1 $-1 $378 $94 #
coedge $-1 $241 $241 $242 $379 reversed $150 $-1 #
coedge $-1 $242 $242 $241 $379 forward $152 $-1 #
coedge $-1 $243 $243 $153 $244 forward $238 $-1 #
edge $-1 $380 0 $380 6.2831853071796004 $243 $381 forward 7 unknown #
face $-1 $382 $383 $55 $-1 $384 reversed single #
loop $-1 $-1 $385 $154 #
plane-surface $-1 102.19361087096185 -11.467608270458877 185.00117570535306 0 1 0 0.82903758062907751 0 0.55919289150049634 forward_v I I I I #
coedge $-1 $386 $387 $388 $389 reversed $155 $-1 #
coedge $-1 $250 $157 $390 $391 reversed $98 $-1 #
coedge $-1 $157 $249 $386 $392 reversed $98 $-1 #
coedge $-1 $388 $393 $157 $252 forward $394 $-1 #
edge $-1 $395 -15.276069713296813 $396 -11.327764548627663 $251 $397 forward 7 unknown #
loop $-1 $-1 $258 $158 #
plane-surface $-1 -7.8576047945151828 -7.6086179272171748 110.77069576206014 0.82903758062907751 0 0.55919289150049634 0.55919289150049634 0 -0.82903758062907751 forward_v I I I I #
loop $-1 $-1 $398 $100 #
coedge $-1 $256 $256 $257 $399 reversed $159 $-1 #
coedge $-1 $257 $257 $256 $399 forward $161 $-1 #
coedge $-1 $258 $258 $162 $259 forward $253 $-1 #
edge $-1 $400 0 $400 6.2831853071796004 $258 $401 forward 7 unknown #
loop $-1 $-1 $265 $163 #
plane-surface $-1 -7.8576047945151828 -7.6086179272171748 110.77069576206014 0.82903758062907751 0 0.55919289150049634 0.55919289150049634 0 -0.82903758062907751 forward_v I I I I #
loop $-1 $-1 $402 $103 #
coedge $-1 $263 $263 $264 $403 reversed $164 $-1 #
coedge $-1 $264 $264 $263 $403 forward $166 $-1 #
coedge $-1 $265 $265 $167 $266 forward $260 $-1 #
edge $-1 $404 0 $404 6.2831853071796004 $265 $405 forward 7 unknown #
face $-1 $406 $407 $58 $-1 $408 reversed single #
loop $-1 $-1 $409 $168 #
plane-surface $-1 102.19361087096185 3.7496275839754802 185.00117570535306 0 1 0 0.82903758062907751 0 0.55919289150049634 forward_v I I I I #
coedge $-1 $410 $411 $412 $413 reversed $169 $-1 #
coedge $-1 $272 $171 $414 $415 reversed $107 $-1 #
coedge $-1 $171 $271 $410 $416 reversed $107 $-1 #
coedge $-1 $412 $417 $171 $274 forward $418 $-1 #
edge $-1 $419 -15.276069713296813 $420 -11.327764548627663 $273 $421 forward 7 unknown #
loop $-1 $-1 $280 $172 #
plane-surface $-1 -7.8576047945151828 7.6086179272171819 110.77069576206014 0.82903758062907751 0 0.55919289150049634 0.55919289150049634 0 -0.82903758062907751 forward_v I I I I #
loop $-1 $-1 $422 $109 #
coedge $-1 $278 $278 $279 $423 reversed $173 $-1 #
coedge $-1 $279 $279 $278 $423 forward $175 $-1 #
coedge $-1 $280 $280 $176 $281 forward $275 $-1 #
edge $-1 $424 0 $424 6.2831853071796004 $280 $425 forward 7 unknown #
loop $-1 $-1 $287 $177 #
plane-surface $-1 -7.8576047945151828 7.6086179272171819 110.77069576206014 0.82903758062907751 0 0.55919289150049634 0.55919289150049634 0 -0.82903758062907751 forward_v I I I I #
loop $-1 $-1 $426 $112 #
coedge $-1 $285 $285 $286 $427 reversed $178 $-1 #
coedge $-1 $286 $286 $285 $427 forward $180 $-1 #
coedge $-1 $287 $287 $181 $288 forward $282 $-1 #
edge $-1 $428 0 $428 6.2831853071796004 $287 $429 forward 7 unknown #
face $-1 $430 $431 $61 $-1 $432 reversed single #
loop $-1 $-1 $433 $182 #
plane-surface $-1 102.19361087096185 18.966863438409838 185.00117570535306 0 1 0 0.82903758062907751 0 0.55919289150049634 forward_v I I I I #
coedge $-1 $434 $435 $436 $437 reversed $183 $-1 #
coedge $-1 $294 $185 $438 $439 reversed $116 $-1 #
coedge $-1 $185 $293 $434 $440 reversed $116 $-1 #
coedge $-1 $436 $441 $185 $296 forward $442 $-1 #
edge $-1 $443 -15.276069713296813 $444 -11.327764548627663 $295 $445 forward 7 unknown #
loop $-1 $-1 $302 $186 #
plane-surface $-1 -7.8576047945151828 22.825853781651539 110.77069576206014 0.82903758062907751 0 0.55919289150049634 0.55919289150049634 0 -0.82903758062907751 forward_v I I I I #
loop $-1 $-1 $446 $118 #
coedge $-1 $300 $300 $301 $447 reversed $187 $-1 #
coedge $-1 $301 $301 $300 $447 forward $189 $-1 #
coedge $-1 $302 $302 $190 $303 forward $297 $-1 #
edge $-1 $448 0 $448 6.2831853071796004 $302 $449 forward 7 unknown #
loop $-1 $-1 $309 $191 #
plane-surface $-1 -7.8576047945151828 22.825853781651539 110.77069576206014 0.82903758062907751 0 0.55919289150049634 0.55919289150049634 0 -0.82903758062907751 forward_v I I I I #
loop $-1 $-1 $450 $121 #
coedge $-1 $307 $307 $308 $451 reversed $192 $-1 #
coedge $-1 $308 $308 $307 $451 forward $194 $-1 #
coedge $-1 $309 $309 $195 $310 forward $304 $-1 #
edge $-1 $452 0 $452 6.2831853071796004 $309 $453 forward 7 unknown #
face $-1 $454 $455 $64 $-1 $456 reversed single #
loop $-1 $-1 $457 $196 #
plane-surface $-1 -155.19712060522085 8.9216061587706417 99.598336676006539 0 -1 0 0.66913061440640931 0 -0.74314481823134659 forward_v I I I I #
coedge $-1 $458 $459 $460 $461 reversed $197 $-1 #
coedge $-1 $316 $199 $462 $463 reversed $125 $-1 #
coedge $-1 $199 $315 $458 $464 reversed $125 $-1 #
coedge $-1 $460 $465 $199 $318 forward $466 $-1 #
edge $-1 $467 11.225685153832686 $468 17.471840000431285 $317 $469 forward 7 unknown #
loop $-1 $-1 $324 $200 #
plane-surface $-1 -66.372875148777766 0.74582083365368135 0.94902020014595223 -0.66913061440640931 0 0.74314481823134659 0.74314481823134659 0 0.66913061440640931 forward_v I I I I #
loop $-1 $-1 $470 $127 #
coedge $-1 $322 $322 $323 $471 reversed $201 $-1 #
coedge $-1 $323 $323 $322 $471 forward $203 $-1 #
coedge $-1 $324 $324 $204 $325 forward $319 $-1 #
edge $-1 $472 0 $472 6.2831853071796004 $324 $473 forward 7 unknown #
loop $-1 $-1 $331 $205 #
plane-surface $-1 -66.372875148777766 0.74582083365368135 0.94902020014595223 -0.66913061440640931 0 0.74314481823134659 0.74314481823134659 0 0.66913061440640931 forward_v I I I I #
loop $-1 $-1 $474 $130 #
coedge $-1 $329 $329 $330 $475 reversed $206 $-1 #
coedge $-1 $330 $330 $329 $475 forward $208 $-1 #
coedge $-1 $331 $331 $209 $332 forward $326 $-1 #
edge $-1 $476 0 $476 6.2831853071796004 $331 $477 forward 7 unknown #
loop $-1 $-1 $338 $210 #
plane-surface $-1 -66.372875148777766 0.74582083365368135 0.94902020014595223 -0.66913061440640931 0 0.74314481823134659 0.74314481823134659 0 0.66913061440640931 forward_v I I I I #
loop $-1 $-1 $478 $133 #
coedge $-1 $336 $336 $337 $479 reversed $211 $-1 #
coedge $-1 $337 $337 $336 $479 forward $213 $-1 #
coedge $-1 $338 $338 $214 $339 forward $333 $-1 #
edge $-1 $480 0 $480 6.2831853071796004 $338 $481 forward 7 unknown #
face $-1 $482 $483 $51 $-1 $484 reversed single #
loop $-1 $-1 $485 $215 #
plane-surface $-1 -66.372875148777737 0 0 1 0 0 0 0 -1 forward_v I I I I #
coedge $-1 $486 $351 $487 $488 forward $216 $-1 #
coedge $-1 $489 $218 $486 $490 forward $137 $-1 #
coedge $-1 $218 $489 $491 $492 forward $137 $-1 #
coedge $-1 $354 $353 $218 $347 reversed $355 $-1 #
edge $-1 $493 -31.594112455993709 $494 31.594112455993709 $346 $495 forward 7 unknown #
coedge $-1 $220 $219 $496 $497 forward $86 $-1 #
coedge $-1 $498 $499 $219 $350 reversed $483 $-1 #
edge $-1 $357 -66.372875148777737 $500 66.372875148777737 $349 $501 forward 7 unknown #
coedge $-1 $343 $502 $220 $352 reversed $216 $-1 #
edge $-1 $503 -66.372875148777737 $356 66.372875148777737 $351 $504 forward 7 unknown #
coedge $-1 $346 $221 $502 $505 forward $355 $-1 #
coedge $-1 $221 $346 $498 $506 reversed $355 $-1 #
loop $-1 $-1 $353 $482 #
vertex $-1 $222 $507 #
vertex $-1 $222 $508 #
straight-curve $-1 66.372875148777737 0 6.5730834078113567 0 1 0 I I #
face $-1 $-1 $509 $52 $-1 $510 reversed single #
loop $-1 $-1 $229 $223 #
plane-surface $-1 0 0 6.5730834078113567 0 0 1 1 0 0 forward_v I I I I #
coedge $-1 $511 $512 $513 $514 reversed $224 $-1 #
coedge $-1 $515 $226 $228 $369 forward $141 $-1 #
coedge $-1 $226 $515 $511 $516 forward $141 $-1 #
coedge $-1 $513 $229 $226 $366 forward $360 $-1 #
edge $-1 $372 7.5539365475840654 $517 15.271917234067466 $365 $518 forward 7 unknown #
coedge $-1 $519 $520 $227 $368 forward $509 $-1 #
edge $-1 $521 -91.781107756093419 $371 -85.927504444865178 $367 $522 forward 7 unknown #
edge $-1 $372 125.68502898889477 $521 132.74575029755547 $228 $523 forward 7 unknown #
coedge $-1 $229 $513 $519 $524 forward $360 $-1 #
vertex $-1 $368 $525 #
vertex $-1 $230 $526 #
straight-curve $-1 51.096805435480924 -18.966863438409831 6.5730834078113531 -1 0 0 I I #
coedge $-1 $374 $374 $-1 $527 reversed $233 $-1 #
edge $-1 $528 0 $528 6.2831853071796004 $234 $529 forward 7 unknown #
vertex $-1 $237 $530 #
ellipse-curve $-1 64.398722566443169 -24.479706785897974 3.6462817521972273 0.82903758062907751 0 0.55919289150049634 0.27959644575024817 0 -0.41451879031453875 1 I I #
coedge $-1 $378 $378 $-1 $531 reversed $240 $-1 #
edge $-1 $532 0 $532 6.2831853071796004 $241 $533 forward 7 unknown #
vertex $-1 $244 $534 #
ellipse-curve $-1 64.398722566443169 -21.172000777405085 3.6462817521972273 0.82903758062907751 0 0.55919289150049634 0.27959644575024817 0 -0.41451879031453875 1 I I #
face $-1 $-1 $394 $55 $-1 $535 forward single #
loop $-1 $-1 $536 $245 #
plane-surface $-1 66.372875148777737 0 0 -1 0 0 0 0 1 forward_v I I I I #
coedge $-1 $537 $538 $539 $540 reversed $246 $-1 #
coedge $-1 $541 $248 $250 $392 forward $155 $-1 #
coedge $-1 $248 $541 $537 $542 forward $155 $-1 #
coedge $-1 $539 $251 $248 $389 forward $394 $-1 #
edge $-1 $396 -0.054681379633114258 $543 7.6632993068502895 $388 $544 forward 7 unknown #
coedge $-1 $545 $546 $249 $391 forward $383 $-1 #
edge $-1 $547 -91.781107756093419 $395 -85.927504444865178 $390 $548 forward 7 unknown #
edge $-1 $396 125.68502898889477 $547 132.74575029755547 $250 $549 forward 7 unknown #
coedge $-1 $251 $539 $545 $550 forward $394 $-1 #
loop $-1 $-1 $539 $382 #
vertex $-1 $391 $551 #
vertex $-1 $252 $552 #
straight-curve $-1 51.096805435480924 -3.7496275839754731 6.5730834078113531 -1 0 0 I I #
coedge $-1 $398 $398 $-1 $553 reversed $255 $-1 #
edge $-1 $554 0 $554 6.2831853071796004 $256 $555 forward 7 unknown #
vertex $-1 $259 $556 #
ellipse-curve $-1 64.398722566443169 -9.2624709314636178 3.6462817521972273 0.82903758062907751 0 0.55919289150049634 0.27959644575024817 0 -0.41451879031453875 1 I I #
coedge $-1 $402 $402 $-1 $557 reversed $262 $-1 #
edge $-1 $558 0 $558 6.2831853071796004 $263 $559 forward 7 unknown #
vertex $-1 $266 $560 #
ellipse-curve $-1 64.398722566443169 -5.9547649229707318 3.6462817521972273 0.82903758062907751 0 0.55919289150049634 0.27959644575024817 0 -0.41451879031453875 1 I I #
face $-1 $-1 $418 $58 $-1 $561 forward single #
loop $-1 $-1 $562 $267 #
plane-surface $-1 66.372875148777737 0 0 -1 0 0 0 0 1 forward_v I I I I #
coedge $-1 $563 $564 $565 $566 reversed $268 $-1 #
coedge $-1 $567 $270 $272 $416 forward $169 $-1 #
coedge $-1 $270 $567 $563 $568 forward $169 $-1 #
coedge $-1 $565 $273 $270 $413 forward $418 $-1 #
edge $-1 $420 -7.663299306850293 $569 0.054681379633110705 $412 $570 forward 7 unknown #
coedge $-1 $571 $572 $271 $415 forward $407 $-1 #
edge $-1 $573 -91.781107756093419 $419 -85.927504444865178 $414 $574 forward 7 unknown #
edge $-1 $420 125.68502898889477 $573 132.74575029755547 $272 $575 forward 7 unknown #
coedge $-1 $273 $565 $571 $576 forward $418 $-1 #
loop $-1 $-1 $565 $406 #
vertex $-1 $415 $577 #
vertex $-1 $274 $578 #
straight-curve $-1 51.096805435480924 11.467608270458884 6.5730834078113531 -1 0 0 I I #
coedge $-1 $422 $422 $-1 $579 reversed $277 $-1 #
edge $-1 $580 0 $580 6.2831853071796004 $278 $581 forward 7 unknown #
vertex $-1 $281 $582 #
ellipse-curve $-1 64.398722566443169 5.9547649229707389 3.6462817521972273 0.82903758062907751 0 0.55919289150049634 0.27959644575024817 0 -0.41451879031453875 1 I I #
coedge $-1 $426 $426 $-1 $583 reversed $284 $-1 #
edge $-1 $584 0 $584 6.2831853071796004 $285 $585 forward 7 unknown #
vertex $-1 $288 $586 #
ellipse-curve $-1 64.398722566443169 9.2624709314636249 3.6462817521972273 0.82903758062907751 0 0.55919289150049634 0.27959644575024817 0 -0.41451879031453875 1 I I #
face $-1 $-1 $442 $61 $-1 $587 forward single #
loop $-1 $-1 $588 $289 #
plane-surface $-1 66.372875148777737 0 0 -1 0 0 0 0 1 forward_v I I I I #
coedge $-1 $589 $590 $591 $592 reversed $290 $-1 #
coedge $-1 $593 $292 $294 $440 forward $183 $-1 #
coedge $-1 $292 $593 $589 $594 forward $183 $-1 #
coedge $-1 $591 $295 $292 $437 forward $442 $-1 #
edge $-1 $444 -15.27191723406747 $595 -7.553936547584069 $436 $596 forward 7 unknown #
coedge $-1 $597 $598 $293 $439 forward $431 $-1 #
edge $-1 $599 -91.781107756093419 $443 -85.927504444865178 $438 $600 forward 7 unknown #
edge $-1 $444 125.68502898889477 $599 132.74575029755547 $294 $601 forward 7 unknown #
coedge $-1 $295 $591 $597 $602 forward $442 $-1 #
loop $-1 $-1 $591 $430 #
vertex $-1 $439 $603 #
vertex $-1 $296 $604 #
straight-curve $-1 51.096805435480924 26.684844124893239 6.5730834078113531 -1 0 0 I I #
coedge $-1 $446 $446 $-1 $605 reversed $299 $-1 #
edge $-1 $606 0 $606 6.2831853071796004 $300 $607 forward 7 unknown #
vertex $-1 $303 $608 #
ellipse-curve $-1 64.398722566443169 21.172000777405096 3.6462817521972273 0.82903758062907751 0 0.55919289150049634 0.27959644575024817 0 -0.41451879031453875 1 I I #
coedge $-1 $450 $450 $-1 $609 reversed $306 $-1 #
edge $-1 $610 0 $610 6.2831853071796004 $307 $611 forward 7 unknown #
vertex $-1 $310 $612 #
ellipse-curve $-1 64.398722566443169 24.479706785897982 3.6462817521972273 0.82903758062907751 0 0.55919289150049634 0.27959644575024817 0 -0.41451879031453875 1 I I #
face $-1 $-1 $466 $64 $-1 $613 forward single #
loop $-1 $-1 $614 $311 #
plane-surface $-1 -66.372875148777737 0 0 1 0 0 0 0 -1 forward_v I I I I #
coedge $-1 $615 $616 $617 $618 reversed $312 $-1 #
coedge $-1 $619 $314 $316 $464 forward $197 $-1 #
coedge $-1 $314 $619 $615 $620 forward $197 $-1 #
coedge $-1 $617 $317 $314 $461 forward $466 $-1 #
edge $-1 $468 -7.8028749082901196 $621 8.548695741943801 $460 $622 forward 7 unknown #
coedge $-1 $623 $624 $315 $463 forward $455 $-1 #
edge $-1 $625 -48.850148137857289 $467 -43.226084930191917 $462 $626 forward 7 unknown #
edge $-1 $468 -8.4050304777260152 $625 -3.8282071445639473e-014 $316 $627 forward 7 unknown #
coedge $-1 $317 $617 $623 $628 forward $466 $-1 #
loop $-1 $-1 $617 $454 #
vertex $-1 $463 $629 #
vertex $-1 $318 $630 #
straight-curve $-1 -77.598560302610423 -7.429964491463279 6.5730834078113602 1 0 0 I I #
coedge $-1 $470 $470 $-1 $631 reversed $321 $-1 #
edge $-1 $632 0 $632 6.2831853071796004 $322 $633 forward 7 unknown #
vertex $-1 $325 $634 #
ellipse-curve $-1 -63.249797725478437 -4.1596503614164924 3.7610518039786687 -0.66913061440640931 0 0.74314481823134659 0.74314481823134659 0 0.66913061440640931 1 I I #
coedge $-1 $474 $474 $-1 $635 reversed $328 $-1 #
edge $-1 $636 0 $636 6.2831853071796004 $329 $637 forward 7 unknown #
vertex $-1 $332 $638 #
ellipse-curve $-1 -63.249797725478437 0.74582083365368135 3.7610518039786687 -0.66913061440640931 0 0.74314481823134659 0.74314481823134659 0 0.66913061440640931 1 I I #
coedge $-1 $478 $478 $-1 $639 reversed $335 $-1 #
edge $-1 $640 0 $640 6.2831853071796004 $336 $641 forward 7 unknown #
vertex $-1 $339 $642 #
ellipse-curve $-1 -63.249797725478437 5.6512920287238586 3.7610518039786687 -0.66913061440640931 0 0.74314481823134659 0.74314481823134659 0 0.66913061440640931 1 I I #
face $-1 $-1 $355 $51 $-1 $643 reversed single #
loop $-1 $-1 $498 $340 #
plane-surface $-1 0 31.594112455993709 0 0 -1 0 0 0 -1 forward_v I I I I #
coedge $-1 $644 $496 $499 $645 forward $341 $-1 #
coedge $-1 $502 $343 $344 $490 reversed $216 $-1 #
coedge $-1 $496 $644 $343 $488 reversed $341 $-1 #
edge $-1 $503 -6.5730834078113567 $646 6.5730834078113567 $487 $647 forward 7 unknown #
coedge $-1 $345 $344 $644 $648 forward $137 $-1 #
edge $-1 $494 -66.372875148777737 $646 66.372875148777737 $486 $649 forward 7 unknown #
coedge $-1 $499 $498 $345 $492 reversed $483 $-1 #
edge $-1 $650 -66.372875148777737 $493 66.372875148777737 $491 $651 forward 7 unknown #
vertex $-1 $347 $652 #
vertex $-1 $505 $653 #
straight-curve $-1 66.372875148777737 0 -6.5730834078113567 0 -1 0 I I #
coedge $-1 $485 $487 $348 $497 reversed $341 $-1 #
edge $-1 $500 -31.594112455993709 $503 31.594112455993709 $496 $654 forward 7 unknown #
coedge $-1 $491 $349 $354 $506 forward $483 $-1 #
coedge $-1 $349 $491 $485 $645 reversed $483 $-1 #
vertex $-1 $350 $655 #
straight-curve $-1 0 31.594112455993709 6.5730834078113567 -1 0 0 I I #
coedge $-1 $351 $486 $353 $505 reversed $216 $-1 #
vertex $-1 $497 $656 #
straight-curve $-1 0 -31.594112455993709 6.5730834078113567 1 0 0 I I #
edge $-1 $356 -6.5730834078113567 $494 6.5730834078113567 $353 $657 forward 7 unknown #
edge $-1 $357 -6.5730834078113567 $493 6.5730834078113567 $354 $658 forward 7 unknown #
point $-1 66.372875148777737 -31.594112455993709 6.5730834078113567 #
point $-1 66.372875148777737 31.594112455993709 6.5730834078113567 #
loop $-1 $-1 $367 $359 #
plane-surface $-1 66.372875148777737 0 0 -1 0 0 0 0 1 forward_v I I I I #
coedge $-1 $512 $362 $364 $516 reversed $224 $-1 #
coedge $-1 $362 $511 $659 $660 reversed $224 $-1 #
coedge $-1 $370 $365 $362 $514 forward $360 $-1 #
edge $-1 $517 11.327764548627663 $661 15.276069713296813 $513 $662 forward 7 unknown #
coedge $-1 $364 $363 $520 $663 reversed $141 $-1 #
edge $-1 $664 -132.74575029755547 $517 -125.68502898889477 $511 $665 forward 7 unknown #
vertex $-1 $366 $666 #
straight-curve $-1 62.424569984108579 -11.412926890825766 6.5730834078113531 0 -1 0 I I #
coedge $-1 $659 $367 $370 $524 reversed $509 $-1 #
coedge $-1 $367 $659 $515 $663 forward $509 $-1 #
vertex $-1 $368 $667 #
straight-curve $-1 66.372875148777737 -18.966863438409831 92.500587852676531 0 0 1 I I #
straight-curve $-1 -7.8576047945151828 -18.966863438409831 110.77069576206014 0.55919289150049634 0 -0.82903758062907751 I I #
edge $-1 $661 -26.684844124893232 $371 -18.966863438409831 $519 $668 forward 7 unknown #
point $-1 66.372875148777737 -18.966863438409831 6.5730834078113567 #
point $-1 62.424569984108587 -18.966863438409831 6.5730834078113531 #
edge $-1 $669 1 $669 0 $374 $-1 forward 7 unknown #
vertex $-1 $375 $670 #
ellipse-curve $-1 63.141301252288862 -24.479706785897974 2.7981403929566029 0.82903758062907751 0 0.55919289150049634 0.27959644575024817 0 -0.41451879031453875 1 I I #
point $-1 64.678319012193413 -24.479706785897974 3.2317629618826849 #
edge $-1 $671 1 $671 0 $378 $-1 forward 7 unknown #
vertex $-1 $379 $672 #
ellipse-curve $-1 63.141301252288862 -21.172000777405085 2.7981403929566029 0.82903758062907751 0 0.55919289150049634 0.27959644575024817 0 -0.41451879031453875 1 I I #
point $-1 64.678319012193413 -21.172000777405085 3.2317629618826849 #
plane-surface $-1 0 0 6.5730834078113567 0 0 1 1 0 0 forward_v I I I I #
coedge $-1 $546 $545 $538 $673 forward $383 $-1 #
coedge $-1 $538 $385 $387 $542 reversed $246 $-1 #
coedge $-1 $385 $537 $536 $673 reversed $246 $-1 #
coedge $-1 $393 $388 $385 $540 forward $394 $-1 #
edge $-1 $543 11.327764548627663 $674 15.276069713296813 $539 $675 forward 7 unknown #
coedge $-1 $387 $386 $546 $676 reversed $155 $-1 #
edge $-1 $677 -132.74575029755547 $543 -125.68502898889477 $537 $678 forward 7 unknown #
vertex $-1 $389 $679 #
straight-curve $-1 62.424569984108579 -3.8043089636085874 6.5730834078113531 0 -1 0 I I #
coedge $-1 $536 $390 $393 $550 reversed $383 $-1 #
coedge $-1 $390 $536 $541 $676 forward $383 $-1 #
vertex $-1 $391 $680 #
straight-curve $-1 66.372875148777737 -3.7496275839754731 92.500587852676531 0 0 1 I I #
straight-curve $-1 -7.8576047945151828 -3.7496275839754731 110.77069576206014 0.55919289150049634 0 -0.82903758062907751 I I #
edge $-1 $674 -11.467608270458877 $395 -3.7496275839754731 $545 $681 forward 7 unknown #
point $-1 66.372875148777737 -3.7496275839754731 6.5730834078113567 #
point $-1 62.424569984108587 -3.7496275839754731 6.5730834078113531 #
edge $-1 $682 1 $682 0 $398 $-1 forward 7 unknown #
vertex $-1 $399 $683 #
ellipse-curve $-1 63.141301252288862 -9.2624709314636178 2.7981403929566029 0.82903758062907751 0 0.55919289150049634 0.27959644575024817 0 -0.41451879031453875 1 I I #
point $-1 64.678319012193413 -9.2624709314636178 3.2317629618826849 #
edge $-1 $684 1 $684 0 $402 $-1 forward 7 unknown #
vertex $-1 $403 $685 #
ellipse-curve $-1 63.141301252288862 -5.9547649229707318 2.7981403929566029 0.82903758062907751 0 0.55919289150049634 0.27959644575024817 0 -0.41451879031453875 1 I I #
point $-1 64.678319012193413 -5.9547649229707318 3.2317629618826849 #
plane-surface $-1 0 0 6.5730834078113567 0 0 1 1 0 0 forward_v I I I I #
coedge $-1 $572 $571 $564 $686 forward $407 $-1 #
coedge $-1 $564 $409 $411 $568 reversed $268 $-1 #
coedge $-1 $409 $563 $562 $686 reversed $268 $-1 #
coedge $-1 $417 $412 $409 $566 forward $418 $-1 #
edge $-1 $569 11.327764548627663 $687 15.276069713296813 $565 $688 forward 7 unknown #
coedge $-1 $411 $410 $572 $689 reversed $169 $-1 #
edge $-1 $690 -132.74575029755547 $569 -125.68502898889477 $563 $691 forward 7 unknown #
vertex $-1 $413 $692 #
straight-curve $-1 62.424569984108579 3.8043089636085909 6.5730834078113531 0 -1 0 I I #
coedge $-1 $562 $414 $417 $576 reversed $407 $-1 #
coedge $-1 $414 $562 $567 $689 forward $407 $-1 #
vertex $-1 $415 $693 #
straight-curve $-1 66.372875148777737 11.467608270458884 92.500587852676531 0 0 1 I I #
straight-curve $-1 -7.8576047945151828 11.467608270458884 110.77069576206014 0.55919289150049634 0 -0.82903758062907751 I I #
edge $-1 $687 3.7496275839754802 $419 11.467608270458884 $571 $694 forward 7 unknown #
point $-1 66.372875148777737 11.467608270458884 6.5730834078113567 #
point $-1 62.424569984108587 11.467608270458884 6.5730834078113531 #
edge $-1 $695 1 $695 0 $422 $-1 forward 7 unknown #
vertex $-1 $423 $696 #
ellipse-curve $-1 63.141301252288862 5.9547649229707389 2.7981403929566029 0.82903758062907751 0 0.55919289150049634 0.27959644575024817 0 -0.41451879031453875 1 I I #
point $-1 64.678319012193413 5.9547649229707389 3.2317629618826849 #
edge $-1 $697 1 $697 0 $426 $-1 forward 7 unknown #
vertex $-1 $427 $698 #
ellipse-curve $-1 63.141301252288862 9.2624709314636249 2.7981403929566029 0.82903758062907751 0 0.55919289150049634 0.27959644575024817 0 -0.41451879031453875 1 I I #
point $-1 64.678319012193413 9.2624709314636249 3.2317629618826849 #
plane-surface $-1 0 0 6.5730834078113567 0 0 1 1 0 0 forward_v I I I I #
coedge $-1 $598 $597 $590 $699 forward $431 $-1 #
coedge $-1 $590 $433 $435 $594 reversed $290 $-1 #
coedge $-1 $433 $589 $588 $699 reversed $290 $-1 #
coedge $-1 $441 $436 $433 $592 forward $442 $-1 #
edge $-1 $595 11.327764548627663 $700 15.276069713296813 $591 $701 forward 7 unknown #
coedge $-1 $435 $434 $598 $702 reversed $183 $-1 #
edge $-1 $703 -132.74575029755547 $595 -125.68502898889477 $589 $704 forward 7 unknown #
vertex $-1 $437 $705 #
straight-curve $-1 62.424569984108579 11.412926890825769 6.5730834078113531 0 -1 0 I I #
coedge $-1 $588 $438 $441 $602 reversed $431 $-1 #
coedge $-1 $438 $588 $593 $702 forward $431 $-1 #
vertex $-1 $439 $706 #
straight-curve $-1 66.372875148777737 26.684844124893239 92.500587852676531 0 0 1 I I #
straight-curve $-1 -7.8576047945151828 26.684844124893239 110.77069576206014 0.55919289150049634 0 -0.82903758062907751 I I #
edge $-1 $700 18.966863438409838 $443 26.684844124893239 $597 $707 forward 7 unknown #
point $-1 66.372875148777737 26.684844124893239 6.5730834078113567 #
point $-1 62.424569984108587 26.684844124893239 6.5730834078113531 #
edge $-1 $708 1 $708 0 $446 $-1 forward 7 unknown #
vertex $-1 $447 $709 #
ellipse-curve $-1 63.141301252288862 21.172000777405096 2.7981403929566029 0.82903758062907751 0 0.55919289150049634 0.27959644575024817 0 -0.41451879031453875 1 I I #
point $-1 64.678319012193413 21.172000777405096 3.2317629618826849 #
edge $-1 $710 1 $710 0 $450 $-1 forward 7 unknown #
vertex $-1 $451 $711 #
ellipse-curve $-1 63.141301252288862 24.479706785897982 2.7981403929566029 0.82903758062907751 0 0.55919289150049634 0.27959644575024817 0 -0.41451879031453875 1 I I #
point $-1 64.678319012193413 24.479706785897982 3.2317629618826849 #
plane-surface $-1 0 0 6.5730834078113567 0 0 1 1 0 0 forward_v I I I I #
coedge $-1 $624 $623 $616 $712 forward $455 $-1 #
coedge $-1 $616 $457 $459 $620 reversed $312 $-1 #
coedge $-1 $457 $615 $614 $712 reversed $312 $-1 #
coedge $-1 $465 $460 $457 $618 forward $466 $-1 #
edge $-1 $621 -17.471840000431285 $713 -11.225685153832686 $617 $714 forward 7 unknown #
coedge $-1 $459 $458 $624 $715 reversed $197 $-1 #
edge $-1 $716 3.8282071445639473e-014 $621 8.4050304777260152 $615 $717 forward 7 unknown #
vertex $-1 $461 $718 #
straight-curve $-1 -60.126720302179137 0.37291041682684067 6.5730834078113549 0 1 0 I I #
coedge $-1 $614 $462 $465 $628 reversed $455 $-1 #
coedge $-1 $462 $614 $619 $715 forward $455 $-1 #
vertex $-1 $463 $719 #
straight-curve $-1 -66.372875148777737 -7.429964491463279 49.79916833800327 0 0 1 I I #
straight-curve $-1 -66.372875148777766 -7.429964491463279 0.94902020014595223 -0.74314481823134659 0 -0.66913061440640931 I I #
edge $-1 $713 -8.9216061587706417 $467 7.429964491463279 $623 $720 forward 7 unknown #
point $-1 -66.372875148777737 -7.429964491463279 6.5730834078113567 #
point $-1 -60.126720302179137 -7.429964491463279 6.5730834078113567 #
edge $-1 $721 1 $721 0 $470 $-1 forward 7 unknown #
vertex $-1 $471 $722 #
ellipse-curve $-1 -61.883131067891554 -4.1596503614164924 2.243214743517429 -0.66913061440640931 0 0.74314481823134659 0.74314481823134659 0 0.66913061440640931 1 I I #
point $-1 -62.506652907247073 -4.1596503614164924 4.4301824183850602 #
edge $-1 $723 1 $723 0 $474 $-1 forward 7 unknown #
vertex $-1 $475 $724 #
ellipse-curve $-1 -61.883131067891554 0.74582083365368135 2.243214743517429 -0.66913061440640931 0 0.74314481823134659 0.74314481823134659 0 0.66913061440640931 1 I I #
point $-1 -62.506652907247073 0.74582083365368135 4.4301824183850602 #
edge $-1 $725 1 $725 0 $478 $-1 forward 7 unknown #
vertex $-1 $479 $726 #
ellipse-curve $-1 -61.883131067891554 5.6512920287238586 2.243214743517429 -0.66913061440640931 0 0.74314481823134659 0.74314481823134659 0 0.66913061440640931 1 I I #
point $-1 -62.506652907247073 5.6512920287238586 4.4301824183850602 #
plane-surface $-1 66.372875148777737 0 0 -1 0 0 0 0 1 forward_v I I I I #
coedge $-1 $487 $485 $489 $648 reversed $341 $-1 #
edge $-1 $500 -6.5730834078113567 $650 6.5730834078113567 $499 $727 forward 7 unknown #
vertex $-1 $648 $728 #
straight-curve $-1 -66.372875148777737 -31.594112455993709 0 0 0 -1 I I #
edge $-1 $646 -31.594112455993709 $650 31.594112455993709 $644 $729 forward 7 unknown #
straight-curve $-1 0 -31.594112455993709 -6.5730834078113567 -1 0 0 I I #
vertex $-1 $492 $730 #
straight-curve $-1 0 31.594112455993709 -6.5730834078113567 1 0 0 I I #
point $-1 66.372875148777737 31.594112455993709 -6.5730834078113567 #
point $-1 66.372875148777737 -31.594112455993709 -6.5730834078113567 #
straight-curve $-1 -66.372875148777737 0 6.5730834078113567 0 -1 0 I I #
point $-1 -66.372875148777737 31.594112455993709 6.5730834078113567 #
point $-1 -66.372875148777737 -31.594112455993709 6.5730834078113567 #
straight-curve $-1 66.372875148777737 -31.594112455993709 0 0 0 -1 I I #
straight-curve $-1 66.372875148777737 31.594112455993709 0 0 0 -1 I I #
coedge $-1 $520 $519 $512 $660 forward $509 $-1 #
edge $-1 $661 85.927504444865178 $664 91.781107756093419 $659 $731 forward 7 unknown #
vertex $-1 $524 $732 #
straight-curve $-1 51.096805435480924 -26.684844124893232 6.5730834078113531 1 0 0 I I #
edge $-1 $664 -15.271917234067466 $521 -7.5539365475840654 $520 $733 forward 7 unknown #
vertex $-1 $663 $734 #
straight-curve $-1 -7.8576047945151828 -26.684844124893232 110.77069576206014 -0.55919289150049634 0 0.82903758062907751 I I #
point $-1 62.424569984108587 -26.684844124893232 6.5730834078113531 #
point $-1 66.372875148777737 -18.966863438409831 0.71948009658311207 #
straight-curve $-1 66.372875148777737 0 6.5730834078113567 0 1 0 I I #
vertex $-1 $527 $735 #
point $-1 63.420897698039106 -24.479706785897974 2.383621602642064 #
vertex $-1 $531 $736 #
point $-1 63.420897698039106 -21.172000777405085 2.383621602642064 #
edge $-1 $674 85.927504444865178 $677 91.781107756093419 $536 $737 forward 7 unknown #
vertex $-1 $550 $738 #
straight-curve $-1 51.096805435480924 -11.467608270458877 6.5730834078113531 1 0 0 I I #
edge $-1 $677 -7.6632993068502895 $547 0.054681379633114258 $546 $739 forward 7 unknown #
vertex $-1 $676 $740 #
straight-curve $-1 -7.8576047945151828 -11.467608270458877 110.77069576206014 -0.55919289150049634 0 0.82903758062907751 I I #
point $-1 62.424569984108587 -11.467608270458877 6.5730834078113531 #
point $-1 66.372875148777737 -3.7496275839754731 0.71948009658311207 #
straight-curve $-1 66.372875148777737 0 6.5730834078113567 0 1 0 I I #
vertex $-1 $553 $741 #
point $-1 63.420897698039106 -9.2624709314636178 2.383621602642064 #
vertex $-1 $557 $742 #
point $-1 63.420897698039106 -5.9547649229707318 2.383621602642064 #
edge $-1 $687 85.927504444865178 $690 91.781107756093419 $562 $743 forward 7 unknown #
vertex $-1 $576 $744 #
straight-curve $-1 51.096805435480924 3.7496275839754802 6.5730834078113531 1 0 0 I I #
edge $-1 $690 -0.054681379633110705 $573 7.663299306850293 $572 $745 forward 7 unknown #
vertex $-1 $689 $746 #
straight-curve $-1 -7.8576047945151828 3.7496275839754802 110.77069576206014 -0.55919289150049634 0 0.82903758062907751 I I #
point $-1 62.424569984108587 3.7496275839754802 6.5730834078113531 #
point $-1 66.372875148777737 11.467608270458884 0.71948009658311207 #
straight-curve $-1 66.372875148777737 0 6.5730834078113567 0 1 0 I I #
vertex $-1 $579 $747 #
point $-1 63.420897698039106 5.9547649229707389 2.383621602642064 #
vertex $-1 $583 $748 #
point $-1 63.420897698039106 9.2624709314636249 2.383621602642064 #
edge $-1 $700 85.927504444865178 $703 91.781107756093419 $588 $749 forward 7 unknown #
vertex $-1 $602 $750 #
straight-curve $-1 51.096805435480924 18.966863438409838 6.5730834078113531 1 0 0 I I #
edge $-1 $703 7.553936547584069 $599 15.27191723406747 $598 $751 forward 7 unknown #
vertex $-1 $702 $752 #
straight-curve $-1 -7.8576047945151828 18.966863438409838 110.77069576206014 -0.55919289150049634 0 0.82903758062907751 I I #
point $-1 62.424569984108587 18.966863438409838 6.5730834078113531 #
point $-1 66.372875148777737 26.684844124893239 0.71948009658311207 #
straight-curve $-1 66.372875148777737 0 6.5730834078113567 0 1 0 I I #
vertex $-1 $605 $753 #
point $-1 63.420897698039106 21.172000777405096 2.383621602642064 #
vertex $-1 $609 $754 #
point $-1 63.420897698039106 24.479706785897982 2.383621602642064 #
edge $-1 $713 43.226084930191917 $716 48.850148137857289 $614 $755 forward 7 unknown #
vertex $-1 $628 $756 #
straight-curve $-1 -77.598560302610423 8.9216061587706417 6.5730834078113602 -1 0 0 I I #
edge $-1 $716 -8.548695741943801 $625 7.8028749082901196 $624 $757 forward 7 unknown #
vertex $-1 $715 $758 #
straight-curve $-1 -66.372875148777766 8.9216061587706417 0.94902020014595223 0.74314481823134659 0 0.66913061440640931 I I #
point $-1 -60.126720302179137 8.9216061587706417 6.5730834078113567 #
point $-1 -66.372875148777737 -7.429964491463279 0.94902020014597788 #
straight-curve $-1 -66.372875148777737 0 6.5730834078113567 0 -1 0 I I #
vertex $-1 $631 $759 #
point $-1 -61.139986249660204 -4.1596503614164924 2.9123453579238383 #
vertex $-1 $635 $760 #
point $-1 -61.139986249660204 0.74582083365368135 2.9123453579238383 #
vertex $-1 $639 $761 #
point $-1 -61.139986249660204 5.6512920287238586 2.9123453579238383 #
straight-curve $-1 -66.372875148777737 31.594112455993709 0 0 0 -1 I I #
point $-1 -66.372875148777737 -31.594112455993709 -6.5730834078113567 #
straight-curve $-1 -66.372875148777737 0 -6.5730834078113567 0 1 0 I I #
point $-1 -66.372875148777737 31.594112455993709 -6.5730834078113567 #
straight-curve $-1 66.372875148777737 -26.684844124893232 92.500587852676531 0 0 -1 I I #
point $-1 66.372875148777737 -26.684844124893232 6.5730834078113567 #
straight-curve $-1 66.372875148777737 -11.412926890825766 0.71948009658309076 0 1 0 I I #
point $-1 66.372875148777737 -26.684844124893232 0.71948009658311207 #
point $-1 62.726782461974317 -24.479706785897974 2.5185439472063549 #
point $-1 62.726782461974317 -21.172000777405085 2.5185439472063549 #
straight-curve $-1 66.372875148777737 -11.467608270458877 92.500587852676531 0 0 -1 I I #
point $-1 66.372875148777737 -11.467608270458877 6.5730834078113567 #
straight-curve $-1 66.372875148777737 -3.8043089636085874 0.71948009658309076 0 1 0 I I #
point $-1 66.372875148777737 -11.467608270458877 0.71948009658311207 #
point $-1 62.726782461974317 -9.2624709314636178 2.5185439472063549 #
point $-1 62.726782461974317 -5.9547649229707318 2.5185439472063549 #
straight-curve $-1 66.372875148777737 3.7496275839754802 92.500587852676531 0 0 -1 I I #
point $-1 66.372875148777737 3.7496275839754802 6.5730834078113567 #
straight-curve $-1 66.372875148777737 3.8043089636085909 0.71948009658309076 0 1 0 I I #
point $-1 66.372875148777737 3.7496275839754802 0.71948009658311207 #
point $-1 62.726782461974317 5.9547649229707389 2.5185439472063549 #
point $-1 62.726782461974317 9.2624709314636249 2.5185439472063549 #
straight-curve $-1 66.372875148777737 18.966863438409838 92.500587852676531 0 0 -1 I I #
point $-1 66.372875148777737 18.966863438409838 6.5730834078113567 #
straight-curve $-1 66.372875148777737 11.412926890825769 0.71948009658309076 0 1 0 I I #
point $-1 66.372875148777737 18.966863438409838 0.71948009658311207 #
point $-1 62.726782461974317 21.172000777405096 2.5185439472063549 #
point $-1 62.726782461974317 24.479706785897982 2.5185439472063549 #
straight-curve $-1 -66.372875148777737 8.9216061587706417 49.79916833800327 0 0 -1 I I #
point $-1 -66.372875148777737 8.9216061587706417 6.5730834078113567 #
straight-curve $-1 -66.372875148777737 0.37291041682684067 0.94902020014598398 0 -1 0 I I #
point $-1 -66.372875148777737 8.9216061587706417 0.94902020014597788 #
point $-1 -61.214000453485141 -4.1596503614164924 1.5000699252860823 #
point $-1 -61.214000453485141 0.74582083365368135 1.5000699252860823 #
point $-1 -61.214000453485141 5.6512920287238586 1.5000699252860823 #
End-of-ACIS-data 