500 0 7 0           
7 Unknown 11 ACIS 5.0 NT 24 Thu Mar 25 15:12:47 1999 
-1 9.9999999999999995e-007 1e-010 
body $-1 $7 $-1 $8 #
body $-1 $9 $-1 $10 #
body $-1 $11 $-1 $12 #
body $-1 $13 $-1 $14 #
body $-1 $15 $-1 $16 #
body $-1 $17 $-1 $18 #
body $-1 $19 $-1 $20 #
lump $-1 $-1 $21 $0 #
transform $-1 1 0 0 0 1 0 0 0 1 48.386486404004032 26.54279422948121 11.124125806915391 1 rotate no_reflect no_shear #
lump $-1 $-1 $22 $1 #
transform $-1 1 0 0 0 1 0 0 0 1 48.386486404004032 26.54279422948121 11.124125806915391 1 rotate no_reflect no_shear #
lump $-1 $-1 $23 $2 #
transform $-1 1 0 0 0 1 0 0 0 1 48.386486404004032 26.54279422948121 11.124125806915391 1 rotate no_reflect no_shear #
lump $-1 $-1 $24 $3 #
transform $-1 1 0 0 0 1 0 0 0 1 48.386486404004032 26.54279422948121 11.124125806915391 1 rotate no_reflect no_shear #
lump $-1 $-1 $25 $4 #
transform $-1 1 0 0 0 1 0 0 0 1 48.386486404004032 26.54279422948121 11.124125806915391 1 rotate no_reflect no_shear #
lump $-1 $-1 $26 $5 #
transform $-1 1 0 0 0 1 0 0 0 1 48.386486404004032 26.54279422948121 11.124125806915391 1 rotate no_reflect no_shear #
lump $-1 $-1 $27 $6 #
transform $-1 1 0 0 0 1 0 0 0 1 48.386486404004032 26.54279422948121 11.124125806915391 1 rotate no_reflect no_shear #
shell $-1 $-1 $-1 $28 $-1 $7 #
shell $-1 $-1 $-1 $29 $-1 $9 #
shell $-1 $-1 $-1 $30 $-1 $11 #
shell $-1 $-1 $-1 $31 $-1 $13 #
shell $-1 $-1 $-1 $32 $-1 $15 #
shell $-1 $-1 $-1 $33 $-1 $17 #
shell $-1 $-1 $-1 $34 $-1 $19 #
face $-1 $35 $36 $21 $-1 $37 forward single #
face $-1 $38 $39 $22 $-1 $40 reversed single #
face $-1 $41 $42 $23 $-1 $43 reversed single #
face $-1 $44 $45 $24 $-1 $46 forward single #
face $-1 $47 $48 $25 $-1 $49 reversed single #
face $-1 $50 $51 $26 $-1 $52 forward single #
face $-1 $53 $54 $27 $-1 $55 forward single #
face $-1 $56 $57 $21 $-1 $58 reversed single #
loop $-1 $-1 $59 $28 #
plane-surface $-1 0 0 11.124125806915391 0 0 1 1 0 0 forward_v I I I I #
face $-1 $60 $61 $22 $-1 $62 reversed single #
loop $-1 $-1 $63 $29 #
plane-surface $-1 -34.597490220275581 -22.112365928968771 0 1 0 0 0 0 -1 forward_v I I I I #
face $-1 $64 $65 $23 $-1 $66 reversed single #
loop $-1 $-1 $67 $30 #
plane-surface $-1 -116.81531250607689 6.2370204508759421 72.19447967807244 0 1 0 -0.70710678939079041 0 0.70710677298230451 forward_v I I I I #
face $-1 $68 $69 $24 $-1 $70 forward single #
loop $-1 $71 $72 $31 #
cone-surface $-1 -43.495359428255981 10.119193408103762 6.2329987739123816 0.70710678939079041 0 -0.70710677298230451 1.0606601594734568 0 1.0606601840861856 1 I I 0 1 1.5 forward I I I I #
face $-1 $73 $74 $25 $-1 $75 reversed single #
loop $-1 $-1 $76 $32 #
plane-surface $-1 69.795741646837499 -11.035195618833122 142.32814456962302 0 -1 0 -0.80901700255871778 0 -0.5877852410284794 forward_v I I I I #
face $-1 $77 $78 $26 $-1 $79 forward single #
loop $-1 $80 $81 $33 #
cone-surface $-1 46.191404654648082 -15.7828684828497 8.5924256888203168 -0.80901700255871778 0 -0.5877852410284794 0.2938926205142397 0 -0.40450850127935889 1 I I 0 1 0.5 forward I I I I #
face $-1 $82 $83 $27 $-1 $84 forward single #
loop $-1 $85 $86 $34 #
cone-surface $-1 46.191404654648082 -12.934264764439753 8.5924256888203168 -0.80901700255871778 0 -0.5877852410284794 0.2938926205142397 0 -0.40450850127935889 1 I I 0 1 0.5 forward I I I I #
face $-1 $87 $88 $21 $-1 $89 reversed single #
loop $-1 $-1 $90 $35 #
plane-surface $-1 0 0 -11.124125806915391 0 0 1 1 0 0 forward_v I I I I #
coedge $-1 $91 $92 $93 $94 forward $36 $-1 #
face $-1 $95 $96 $22 $-1 $97 reversed single #
loop $-1 $-1 $98 $38 #
plane-surface $-1 -32.863671960792026 -17.681937628456332 0 0 -1 0 0 0 -1 forward_v I I I I #
coedge $-1 $99 $100 $101 $102 forward $39 $-1 #
face $-1 $103 $104 $23 $-1 $105 reversed single #
loop $-1 $-1 $106 $41 #
plane-surface $-1 -48.386486404004046 10.119193408103762 3.7656551638975486 -0.70710678939079041 0 0.70710677298230451 0.70710677298230451 0 0.70710678939079041 forward_v I I I I #
coedge $-1 $107 $108 $109 $110 reversed $42 $-1 #
face $-1 $-1 $111 $24 $-1 $112 forward single #
loop $-1 $113 $114 $44 #
cone-surface $-1 -41.75313759659673 10.119193408103762 4.4907769826815667 0.70710678939079041 0 -0.70710677298230451 0.53033007973672841 0 0.53033009204309278 1 I I -0.70710678118654757 0.70710678118654757 0.75 forward I I I I #
loop $-1 $-1 $115 $31 #
coedge $-1 $72 $72 $116 $117 reversed $45 $-1 #
face $-1 $118 $119 $25 $-1 $120 reversed single #
loop $-1 $-1 $121 $47 #
plane-surface $-1 -8.495238742993493 -14.358566623644727 85.446419422625524 0.80901700255871778 0 0.5877852410284794 0.5877852410284794 0 -0.80901700255871778 forward_v I I I I #
coedge $-1 $122 $123 $124 $125 reversed $48 $-1 #
face $-1 $-1 $126 $26 $-1 $127 forward single #
loop $-1 $128 $129 $50 #
cone-surface $-1 45.235778473306027 -15.7828684828497 7.8981226475285489 -0.80901700255871778 0 -0.5877852410284794 0.14694631025711985 0 -0.20225425063967944 1 I I -0.70710678118654746 0.70710678118654746 0.25 forward I I I I #
loop $-1 $-1 $130 $33 #
coedge $-1 $81 $81 $131 $132 reversed $51 $-1 #
face $-1 $-1 $133 $27 $-1 $134 forward single #
loop $-1 $135 $136 $53 #
cone-surface $-1 45.235778473306027 -12.934264764439753 7.8981226475285489 -0.80901700255871778 0 -0.5877852410284794 0.14694631025711985 0 -0.20225425063967944 1 I I -0.70710678118654746 0.70710678118654746 0.25 forward I I I I #
loop $-1 $-1 $137 $34 #
coedge $-1 $86 $86 $138 $139 reversed $54 $-1 #
face $-1 $140 $141 $21 $-1 $142 reversed single #
loop $-1 $-1 $143 $56 #
plane-surface $-1 0 -26.54279422948121 0 0 1 0 0 0 1 forward_v I I I I #
coedge $-1 $144 $145 $146 $147 forward $57 $-1 #
coedge $-1 $148 $59 $149 $150 forward $36 $-1 #
coedge $-1 $59 $148 $151 $152 forward $36 $-1 #
coedge $-1 $153 $154 $59 $94 reversed $155 $-1 #
edge $-1 $156 -26.54279422948121 $157 26.54279422948121 $93 $158 forward 7 unknown #
face $-1 $159 $160 $22 $-1 $161 forward single #
loop $-1 $-1 $162 $60 #
plane-surface $-1 -31.12985370130847 -22.112365928968771 0 -1 0 0 0 0 1 forward_v I I I I #
coedge $-1 $163 $164 $165 $166 forward $61 $-1 #
coedge $-1 $167 $63 $168 $169 reversed $39 $-1 #
coedge $-1 $63 $167 $170 $171 reversed $39 $-1 #
coedge $-1 $164 $163 $63 $102 reversed $61 $-1 #
edge $-1 $172 -11.124125806915391 $173 11.124125806915391 $101 $174 forward 7 unknown #
face $-1 $175 $176 $23 $-1 $177 reversed single #
loop $-1 $-1 $178 $64 #
plane-surface $-1 -116.81531250607689 14.001366365331581 72.19447967807244 0 -1 0 0.70710678939079041 0 -0.70710677298230451 forward_v I I I I #
coedge $-1 $179 $180 $181 $182 reversed $65 $-1 #
coedge $-1 $108 $67 $183 $184 reversed $42 $-1 #
coedge $-1 $67 $107 $179 $185 reversed $42 $-1 #
coedge $-1 $181 $186 $67 $110 forward $187 $-1 #
edge $-1 $188 10.021169849034415 $189 17.379640321298176 $109 $190 forward 7 unknown #
loop $-1 $-1 $116 $68 #
plane-surface $-1 -48.386486404004046 10.119193408103762 3.7656551638975486 -0.70710678939079041 0 0.70710677298230451 0.70710677298230451 0 0.70710678939079041 forward_v I I I I #
loop $-1 $-1 $191 $44 #
coedge $-1 $114 $114 $115 $192 reversed $69 $-1 #
coedge $-1 $115 $115 $114 $192 forward $71 $-1 #
coedge $-1 $116 $116 $72 $117 forward $111 $-1 #
edge $-1 $193 0 $193 6.2831853071796004 $116 $194 forward 7 unknown #
face $-1 $195 $196 $25 $-1 $197 forward single #
loop $-1 $-1 $198 $73 #
plane-surface $-1 69.795741646837499 -17.681937628456332 142.32814456962302 0 1 0 0.80901700255871778 0 0.5877852410284794 forward_v I I I I #
coedge $-1 $199 $200 $201 $202 reversed $74 $-1 #
coedge $-1 $123 $76 $203 $204 reversed $48 $-1 #
coedge $-1 $76 $122 $199 $205 reversed $48 $-1 #
coedge $-1 $201 $206 $76 $125 forward $196 $-1 #
edge $-1 $207 -13.488615580585282 $208 -10.605195943278133 $124 $209 forward 7 unknown #
loop $-1 $-1 $131 $77 #
plane-surface $-1 -8.495238742993493 -14.358566623644727 85.446419422625524 0.80901700255871778 0 0.5877852410284794 0.5877852410284794 0 -0.80901700255871778 forward_v I I I I #
loop $-1 $-1 $210 $50 #
coedge $-1 $129 $129 $130 $211 reversed $78 $-1 #
coedge $-1 $130 $130 $129 $211 forward $80 $-1 #
coedge $-1 $131 $131 $81 $132 forward $126 $-1 #
edge $-1 $212 0 $212 6.2831853071796004 $131 $213 forward 7 unknown #
loop $-1 $-1 $138 $82 #
plane-surface $-1 -8.495238742993493 -14.358566623644727 85.446419422625524 0.80901700255871778 0 0.5877852410284794 0.5877852410284794 0 -0.80901700255871778 forward_v I I I I #
loop $-1 $-1 $214 $53 #
coedge $-1 $136 $136 $137 $215 reversed $83 $-1 #
coedge $-1 $137 $137 $136 $215 forward $85 $-1 #
coedge $-1 $138 $138 $86 $139 forward $133 $-1 #
edge $-1 $216 0 $216 6.2831853071796004 $138 $217 forward 7 unknown #
face $-1 $218 $219 $21 $-1 $220 reversed single #
loop $-1 $-1 $221 $87 #
plane-surface $-1 -48.386486404004032 0 0 1 0 0 0 0 -1 forward_v I I I I #
coedge $-1 $222 $151 $223 $224 forward $88 $-1 #
coedge $-1 $225 $90 $222 $226 forward $57 $-1 #
coedge $-1 $90 $225 $227 $228 forward $57 $-1 #
coedge $-1 $154 $153 $90 $147 reversed $155 $-1 #
edge $-1 $229 -26.54279422948121 $230 26.54279422948121 $146 $231 forward 7 unknown #
coedge $-1 $92 $91 $232 $233 forward $36 $-1 #
coedge $-1 $234 $235 $91 $150 reversed $219 $-1 #
edge $-1 $157 -48.386486404004032 $236 48.386486404004032 $149 $237 forward 7 unknown #
coedge $-1 $143 $238 $92 $152 reversed $88 $-1 #
edge $-1 $239 -48.386486404004032 $156 48.386486404004032 $151 $240 forward 7 unknown #
coedge $-1 $146 $93 $238 $241 forward $155 $-1 #
coedge $-1 $93 $146 $234 $242 reversed $155 $-1 #
loop $-1 $-1 $153 $218 #
vertex $-1 $94 $243 #
vertex $-1 $94 $244 #
straight-curve $-1 48.386486404004032 0 11.124125806915391 0 1 0 I I #
face $-1 $245 $246 $22 $-1 $247 reversed single #
loop $-1 $-1 $248 $95 #
plane-surface $-1 0 0 11.124125806915391 0 0 1 1 0 0 forward_v I I I I #
coedge $-1 $249 $250 $251 $252 reversed $96 $-1 #
coedge $-1 $101 $98 $253 $254 reversed $61 $-1 #
coedge $-1 $98 $101 $255 $256 reversed $61 $-1 #
coedge $-1 $250 $249 $98 $166 reversed $96 $-1 #
edge $-1 $257 -11.124125806915391 $258 11.124125806915391 $165 $259 forward 7 unknown #
coedge $-1 $100 $99 $260 $261 reversed $39 $-1 #
coedge $-1 $253 $262 $99 $169 forward $246 $-1 #
edge $-1 $263 -15.486611264996824 $173 -6.6257546639719465 $168 $264 forward 7 unknown #
coedge $-1 $265 $255 $100 $171 forward $160 $-1 #
edge $-1 $172 6.6257546639719465 $266 15.486611264996824 $170 $267 forward 7 unknown #
vertex $-1 $171 $268 #
vertex $-1 $169 $269 #
straight-curve $-1 -34.597490220275581 -17.681937628456332 0 0 0 -1 I I #
face $-1 $-1 $187 $23 $-1 $270 forward single #
loop $-1 $-1 $271 $103 #
plane-surface $-1 -48.386486404004032 0 0 1 0 0 0 0 -1 forward_v I I I I #
coedge $-1 $272 $273 $274 $275 reversed $104 $-1 #
coedge $-1 $276 $106 $108 $185 forward $65 $-1 #
coedge $-1 $106 $276 $272 $277 forward $65 $-1 #
coedge $-1 $274 $109 $106 $182 forward $187 $-1 #
edge $-1 $189 1.1774237468240614 $278 8.9417696612797002 $181 $279 forward 7 unknown #
coedge $-1 $280 $281 $107 $184 forward $176 $-1 #
edge $-1 $282 -32.331584675138657 $188 -24.973114032120829 $183 $283 forward 7 unknown #
edge $-1 $189 -10.406448860938747 $282 -2.0097183471152325e-014 $108 $284 forward 7 unknown #
coedge $-1 $109 $274 $280 $285 forward $187 $-1 #
loop $-1 $-1 $274 $175 #
vertex $-1 $184 $286 #
vertex $-1 $110 $287 #
straight-curve $-1 -58.407656253038446 6.2370204508759421 11.124125806915391 1 0 0 I I #
coedge $-1 $191 $191 $-1 $288 reversed $113 $-1 #
edge $-1 $289 0 $289 6.2831853071796004 $114 $290 forward 7 unknown #
vertex $-1 $117 $291 #
ellipse-curve $-1 -44.707251167872151 10.119193408103762 7.4448904854064786 -0.70710678939079041 0 0.70710677298230451 1.0606601594734568 0 1.0606601840861856 1 I I #
face $-1 $-1 $292 $25 $-1 $293 reversed single #
loop $-1 $-1 $124 $118 #
plane-surface $-1 0 0 11.124125806915391 0 0 1 1 0 0 forward_v I I I I #
coedge $-1 $294 $295 $296 $297 reversed $119 $-1 #
coedge $-1 $298 $121 $123 $205 forward $74 $-1 #
coedge $-1 $121 $298 $294 $299 forward $74 $-1 #
coedge $-1 $296 $124 $121 $202 forward $196 $-1 #
edge $-1 $208 3.8559123070107582 $300 10.502654316633969 $201 $301 forward 7 unknown #
coedge $-1 $302 $303 $122 $204 forward $292 $-1 #
edge $-1 $304 -64.008633252017006 $207 -60.039946477896123 $203 $305 forward 7 unknown #
edge $-1 $208 91.867406223413568 $304 96.772972808008106 $123 $306 forward 7 unknown #
coedge $-1 $124 $296 $302 $307 forward $196 $-1 #
vertex $-1 $204 $308 #
vertex $-1 $125 $309 #
straight-curve $-1 34.897870823418749 -11.035195618833122 11.124125806915387 -1 0 0 I I #
coedge $-1 $210 $210 $-1 $310 reversed $128 $-1 #
edge $-1 $311 0 $311 6.2831853071796004 $129 $312 forward 7 unknown #
vertex $-1 $132 $313 #
ellipse-curve $-1 46.944776585350446 -15.7828684828497 9.1397824198549564 0.80901700255871778 0 0.5877852410284794 0.2938926205142397 0 -0.40450850127935889 1 I I #
coedge $-1 $214 $214 $-1 $314 reversed $135 $-1 #
edge $-1 $315 0 $315 6.2831853071796004 $136 $316 forward 7 unknown #
vertex $-1 $139 $317 #
ellipse-curve $-1 46.944776585350446 -12.934264764439753 9.1397824198549564 0.80901700255871778 0 0.5877852410284794 0.2938926205142397 0 -0.40450850127935889 1 I I #
face $-1 $-1 $155 $21 $-1 $318 reversed single #
loop $-1 $-1 $234 $140 #
plane-surface $-1 0 26.54279422948121 0 0 -1 0 0 0 -1 forward_v I I I I #
coedge $-1 $319 $232 $235 $320 forward $141 $-1 #
coedge $-1 $238 $143 $144 $226 reversed $88 $-1 #
coedge $-1 $232 $319 $143 $224 reversed $141 $-1 #
edge $-1 $239 -11.124125806915391 $321 11.124125806915391 $223 $322 forward 7 unknown #
coedge $-1 $145 $144 $319 $323 forward $57 $-1 #
edge $-1 $230 -48.386486404004032 $321 48.386486404004032 $222 $324 forward 7 unknown #
coedge $-1 $235 $234 $145 $228 reversed $219 $-1 #
edge $-1 $325 -48.386486404004032 $229 48.386486404004032 $227 $326 forward 7 unknown #
vertex $-1 $147 $327 #
vertex $-1 $241 $328 #
straight-curve $-1 48.386486404004032 0 -11.124125806915391 0 -1 0 I I #
coedge $-1 $221 $223 $148 $233 reversed $141 $-1 #
edge $-1 $236 -26.54279422948121 $239 26.54279422948121 $232 $329 forward 7 unknown #
coedge $-1 $227 $149 $154 $242 forward $219 $-1 #
coedge $-1 $149 $227 $221 $320 reversed $219 $-1 #
vertex $-1 $150 $330 #
straight-curve $-1 0 26.54279422948121 11.124125806915391 -1 0 0 I I #
coedge $-1 $151 $222 $153 $241 reversed $88 $-1 #
vertex $-1 $233 $331 #
straight-curve $-1 0 -26.54279422948121 11.124125806915391 1 0 0 I I #
edge $-1 $156 -11.124125806915391 $230 11.124125806915391 $153 $332 forward 7 unknown #
edge $-1 $157 -11.124125806915391 $229 11.124125806915391 $154 $333 forward 7 unknown #
point $-1 48.386486404004032 -26.54279422948121 11.124125806915391 #
point $-1 48.386486404004032 26.54279422948121 11.124125806915391 #
face $-1 $-1 $334 $22 $-1 $335 reversed single #
loop $-1 $-1 $336 $159 #
plane-surface $-1 0 0 -11.124125806915391 0 0 1 1 0 0 forward_v I I I I #
coedge $-1 $255 $265 $250 $337 forward $160 $-1 #
coedge $-1 $165 $162 $336 $338 reversed $96 $-1 #
coedge $-1 $162 $165 $248 $337 reversed $96 $-1 #
coedge $-1 $339 $340 $162 $252 forward $334 $-1 #
edge $-1 $341 -11.124125806915391 $342 11.124125806915391 $251 $343 forward 7 unknown #
coedge $-1 $336 $168 $163 $254 forward $246 $-1 #
edge $-1 $173 -18.165654239879569 $258 -14.698017720912457 $253 $344 forward 7 unknown #
coedge $-1 $170 $248 $164 $256 forward $160 $-1 #
edge $-1 $257 14.698017720912457 $172 18.165654239879569 $255 $345 forward 7 unknown #
vertex $-1 $256 $346 #
vertex $-1 $254 $347 #
straight-curve $-1 -31.12985370130847 -17.681937628456332 0 0 0 -1 I I #
coedge $-1 $340 $339 $167 $261 forward $334 $-1 #
edge $-1 $266 -11.124125806915391 $263 11.124125806915391 $260 $348 forward 7 unknown #
coedge $-1 $168 $336 $340 $349 forward $246 $-1 #
vertex $-1 $169 $350 #
straight-curve $-1 -34.597490220275581 -11.056182964484385 -11.124125806915391 0 1 0 I I #
coedge $-1 $248 $170 $339 $351 forward $160 $-1 #
vertex $-1 $351 $352 #
straight-curve $-1 -34.597490220275581 -11.056182964484385 11.124125806915391 0 -1 0 I I #
point $-1 -34.597490220275581 -17.681937628456332 11.124125806915391 #
point $-1 -34.597490220275581 -17.681937628456332 -11.124125806915391 #
plane-surface $-1 0 0 11.124125806915391 0 0 1 1 0 0 forward_v I I I I #
coedge $-1 $281 $280 $273 $353 forward $176 $-1 #
coedge $-1 $273 $178 $180 $277 reversed $104 $-1 #
coedge $-1 $178 $272 $271 $353 reversed $104 $-1 #
coedge $-1 $186 $181 $178 $275 forward $187 $-1 #
edge $-1 $278 -17.379640321298176 $354 -10.021169849034415 $274 $355 forward 7 unknown #
coedge $-1 $180 $179 $281 $356 reversed $65 $-1 #
edge $-1 $357 2.0097183471152325e-014 $278 10.406448860938747 $272 $358 forward 7 unknown #
vertex $-1 $182 $359 #
straight-curve $-1 -41.028015931740271 5.0595967040518808 11.124125806915391 0 1 0 I I #
coedge $-1 $271 $183 $186 $285 reversed $176 $-1 #
coedge $-1 $183 $271 $276 $356 forward $176 $-1 #
vertex $-1 $184 $360 #
straight-curve $-1 -48.386486404004032 6.2370204508759421 36.09723983903622 0 0 1 I I #
straight-curve $-1 -48.386486404004046 6.2370204508759421 3.7656551638975486 -0.70710677298230451 0 -0.70710678939079041 I I #
edge $-1 $354 -14.001366365331581 $188 -6.2370204508759421 $280 $361 forward 7 unknown #
point $-1 -48.386486404004032 6.2370204508759421 11.124125806915391 #
point $-1 -41.028015931740271 6.2370204508759421 11.124125806915391 #
edge $-1 $362 1 $362 0 $191 $-1 forward 7 unknown #
vertex $-1 $192 $363 #
ellipse-curve $-1 -42.283467688639824 10.119193408103762 5.0211070624182952 -0.70710678939079041 0 0.70710677298230451 1.0606601594734568 0 1.0606601840861856 1 I I #
point $-1 -43.646591008398687 10.119193408103762 8.5055506694926528 #
loop $-1 $-1 $203 $195 #
plane-surface $-1 48.386486404004032 0 0 -1 0 0 0 0 1 forward_v I I I I #
coedge $-1 $295 $198 $200 $299 reversed $119 $-1 #
coedge $-1 $198 $294 $364 $365 reversed $119 $-1 #
coedge $-1 $206 $201 $198 $297 forward $196 $-1 #
edge $-1 $300 10.605195943278133 $366 13.488615580585282 $296 $367 forward 7 unknown #
coedge $-1 $200 $199 $303 $368 reversed $74 $-1 #
edge $-1 $369 -96.772972808008106 $300 -91.867406223413568 $294 $370 forward 7 unknown #
vertex $-1 $202 $371 #
straight-curve $-1 45.503066766696875 -7.1792833118223633 11.124125806915387 0 -1 0 I I #
coedge $-1 $364 $203 $206 $307 reversed $292 $-1 #
coedge $-1 $203 $364 $298 $368 forward $292 $-1 #
vertex $-1 $204 $372 #
straight-curve $-1 48.386486404004032 -11.035195618833122 71.16407228481151 0 0 1 I I #
straight-curve $-1 -8.495238742993493 -11.035195618833122 85.446419422625524 0.5877852410284794 0 -0.80901700255871778 I I #
edge $-1 $366 -17.681937628456332 $207 -11.035195618833122 $302 $373 forward 7 unknown #
point $-1 48.386486404004032 -11.035195618833122 11.124125806915391 #
point $-1 45.503066766696882 -11.035195618833122 11.124125806915387 #
edge $-1 $374 1 $374 0 $210 $-1 forward 7 unknown #
vertex $-1 $211 $375 #
ellipse-curve $-1 45.438032723945703 -15.7828684828497 8.0450689577856682 0.80901700255871778 0 0.5877852410284794 0.2938926205142397 0 -0.40450850127935889 1 I I #
point $-1 47.238669205864703 -15.7828684828497 8.7352739185756025 #
edge $-1 $376 1 $376 0 $214 $-1 forward 7 unknown #
vertex $-1 $215 $377 #
ellipse-curve $-1 45.438032723945703 -12.934264764439753 8.0450689577856682 0.80901700255871778 0 0.5877852410284794 0.2938926205142397 0 -0.40450850127935889 1 I I #
point $-1 47.238669205864703 -12.934264764439753 8.7352739185756025 #
plane-surface $-1 48.386486404004032 0 0 -1 0 0 0 0 1 forward_v I I I I #
coedge $-1 $223 $221 $225 $323 reversed $141 $-1 #
edge $-1 $236 -11.124125806915391 $325 11.124125806915391 $235 $378 forward 7 unknown #
vertex $-1 $323 $379 #
straight-curve $-1 -48.386486404004032 -26.54279422948121 0 0 0 -1 I I #
edge $-1 $321 -26.54279422948121 $325 26.54279422948121 $319 $380 forward 7 unknown #
straight-curve $-1 0 -26.54279422948121 -11.124125806915391 -1 0 0 I I #
vertex $-1 $228 $381 #
straight-curve $-1 0 26.54279422948121 -11.124125806915391 1 0 0 I I #
point $-1 48.386486404004032 26.54279422948121 -11.124125806915391 #
point $-1 48.386486404004032 -26.54279422948121 -11.124125806915391 #
straight-curve $-1 -48.386486404004032 0 11.124125806915391 0 -1 0 I I #
point $-1 -48.386486404004032 26.54279422948121 11.124125806915391 #
point $-1 -48.386486404004032 -26.54279422948121 11.124125806915391 #
straight-curve $-1 48.386486404004032 -26.54279422948121 0 0 0 -1 I I #
straight-curve $-1 48.386486404004032 26.54279422948121 0 0 0 -1 I I #
loop $-1 $-1 $251 $245 #
plane-surface $-1 0 -26.54279422948121 0 0 1 0 0 0 1 forward_v I I I I #
coedge $-1 $262 $253 $249 $338 forward $246 $-1 #
edge $-1 $342 -15.486611264996824 $257 -6.6257546639719465 $248 $382 forward 7 unknown #
edge $-1 $258 6.6257546639719465 $341 15.486611264996824 $336 $383 forward 7 unknown #
coedge $-1 $260 $251 $265 $351 reversed $334 $-1 #
coedge $-1 $251 $260 $262 $349 reversed $334 $-1 #
vertex $-1 $349 $384 #
vertex $-1 $252 $385 #
straight-curve $-1 -31.12985370130847 -26.54279422948121 0 0 0 1 I I #
straight-curve $-1 -16.431835980396013 -17.681937628456332 -11.124125806915391 1 0 0 I I #
straight-curve $-1 -16.431835980396013 -17.681937628456332 11.124125806915391 -1 0 0 I I #
point $-1 -31.12985370130847 -17.681937628456332 11.124125806915391 #
point $-1 -31.12985370130847 -17.681937628456332 -11.124125806915391 #
straight-curve $-1 -34.597490220275581 -26.54279422948121 0 0 0 -1 I I #
edge $-1 $341 31.12985370130847 $263 34.597490220275581 $340 $386 forward 7 unknown #
point $-1 -34.597490220275581 -26.54279422948121 -11.124125806915391 #
edge $-1 $266 -34.597490220275581 $342 -31.12985370130847 $339 $387 forward 7 unknown #
point $-1 -34.597490220275581 -26.54279422948121 11.124125806915391 #
edge $-1 $354 24.973114032120829 $357 32.331584675138657 $271 $388 forward 7 unknown #
vertex $-1 $285 $389 #
straight-curve $-1 -58.407656253038446 14.001366365331581 11.124125806915391 -1 0 0 I I #
edge $-1 $357 -8.9417696612797002 $282 -1.1774237468240614 $281 $390 forward 7 unknown #
vertex $-1 $356 $391 #
straight-curve $-1 -48.386486404004046 14.001366365331581 3.7656551638975486 0.70710677298230451 0 0.70710678939079041 I I #
point $-1 -41.028015931740271 14.001366365331581 11.124125806915391 #
point $-1 -48.386486404004032 6.2370204508759421 3.7656551638975628 #
straight-curve $-1 -48.386486404004032 0 11.124125806915391 0 -1 0 I I #
vertex $-1 $288 $392 #
point $-1 -41.222807529166367 10.119193408103762 6.0817672465044801 #
coedge $-1 $303 $302 $295 $365 forward $292 $-1 #
edge $-1 $366 60.039946477896123 $369 64.008633252017006 $364 $393 forward 7 unknown #
vertex $-1 $307 $394 #
straight-curve $-1 34.897870823418749 -17.681937628456332 11.124125806915387 1 0 0 I I #
edge $-1 $369 -10.502654316633969 $304 -3.8559123070107582 $303 $395 forward 7 unknown #
vertex $-1 $368 $396 #
straight-curve $-1 -8.495238742993493 -17.681937628456332 85.446419422625524 -0.5877852410284794 0 0.80901700255871778 I I #
point $-1 45.503066766696882 -17.681937628456332 11.124125806915387 #
point $-1 48.386486404004032 -11.035195618833122 7.1554390327945043 #
straight-curve $-1 48.386486404004032 0 11.124125806915391 0 1 0 I I #
vertex $-1 $310 $397 #
point $-1 45.731925344459945 -15.7828684828497 7.6405604565063099 #
vertex $-1 $314 $398 #
point $-1 45.731925344459945 -12.934264764439753 7.6405604565063099 #
straight-curve $-1 -48.386486404004032 26.54279422948121 0 0 0 -1 I I #
point $-1 -48.386486404004032 -26.54279422948121 -11.124125806915391 #
straight-curve $-1 -48.386486404004032 0 -11.124125806915391 0 1 0 I I #
point $-1 -48.386486404004032 26.54279422948121 -11.124125806915391 #
straight-curve $-1 -31.12985370130847 -11.056182964484385 11.124125806915391 0 1 0 I I #
straight-curve $-1 -31.12985370130847 -11.056182964484385 -11.124125806915391 0 -1 0 I I #
point $-1 -31.12985370130847 -26.54279422948121 -11.124125806915391 #
point $-1 -31.12985370130847 -26.54279422948121 11.124125806915391 #
straight-curve $-1 0 -26.54279422948121 -11.124125806915391 -1 0 0 I I #
straight-curve $-1 0 -26.54279422948121 11.124125806915391 1 0 0 I I #
straight-curve $-1 -48.386486404004032 14.001366365331581 36.09723983903622 0 0 -1 I I #
point $-1 -48.386486404004032 14.001366365331581 11.124125806915391 #
straight-curve $-1 -48.386486404004032 5.0595967040518808 3.7656551638975593 0 -1 0 I I #
point $-1 -48.386486404004032 14.001366365331581 3.7656551638975628 #
point $-1 -41.222807504553636 10.119193408103762 3.9604469029448381 #
straight-curve $-1 48.386486404004032 -17.681937628456332 71.16407228481151 0 0 -1 I I #
point $-1 48.386486404004032 -17.681937628456332 11.124125806915391 #
straight-curve $-1 48.386486404004032 -7.1792833118223633 7.1554390327945043 0 1 0 I I #
point $-1 48.386486404004032 -17.681937628456332 7.1554390327945043 #
point $-1 45.033524222666351 -15.7828684828497 7.7511763372714286 #
point $-1 45.033524222666351 -12.934264764439753 7.7511763372714286 #
End-of-ACIS-data 