500 0 10 0           
7 Unknown 11 ACIS 5.0 NT 24 Thu Mar 25 15:46:18 1999 
-1 9.9999999999999995e-007 1e-010 
body $-1 $10 $-1 $11 #
body $-1 $12 $-1 $13 #
body $-1 $14 $-1 $15 #
body $-1 $16 $-1 $17 #
body $-1 $18 $-1 $19 #
body $-1 $20 $-1 $21 #
body $-1 $22 $-1 $23 #
body $-1 $24 $-1 $25 #
body $-1 $26 $-1 $27 #
body $-1 $28 $-1 $29 #
lump $-1 $-1 $30 $0 #
transform $-1 1 0 0 0 1 0 0 0 1 40.941190832239755 21.408318238459302 5.6854513782486293 1 rotate no_reflect no_shear #
lump $-1 $-1 $31 $1 #
transform $-1 1 0 0 0 1 0 0 0 1 40.941190832239755 21.408318238459302 5.6854513782486293 1 rotate no_reflect no_shear #
lump $-1 $-1 $32 $2 #
transform $-1 1 0 0 0 1 0 0 0 1 40.941190832239755 21.408318238459302 5.6854513782486293 1 rotate no_reflect no_shear #
lump $-1 $-1 $33 $3 #
transform $-1 1 0 0 0 1 0 0 0 1 40.941190832239755 21.408318238459302 5.6854513782486293 1 rotate no_reflect no_shear #
lump $-1 $-1 $34 $4 #
transform $-1 1 0 0 0 1 0 0 0 1 40.941190832239755 21.408318238459302 5.6854513782486293 1 rotate no_reflect no_shear #
lump $-1 $-1 $35 $5 #
transform $-1 1 0 0 0 1 0 0 0 1 40.941190832239755 21.408318238459302 5.6854513782486293 1 rotate no_reflect no_shear #
lump $-1 $-1 $36 $6 #
transform $-1 1 0 0 0 1 0 0 0 1 40.941190832239755 21.408318238459302 5.6854513782486293 1 rotate no_reflect no_shear #
lump $-1 $-1 $37 $7 #
transform $-1 1 0 0 0 1 0 0 0 1 40.941190832239755 21.408318238459302 5.6854513782486293 1 rotate no_reflect no_shear #
lump $-1 $-1 $38 $8 #
transform $-1 1 0 0 0 1 0 0 0 1 40.941190832239755 21.408318238459302 5.6854513782486293 1 rotate no_reflect no_shear #
lump $-1 $-1 $39 $9 #
transform $-1 1 0 0 0 1 0 0 0 1 40.941190832239755 21.408318238459302 5.6854513782486293 1 rotate no_reflect no_shear #
shell $-1 $-1 $-1 $40 $-1 $10 #
shell $-1 $-1 $-1 $41 $-1 $12 #
shell $-1 $-1 $-1 $42 $-1 $14 #
shell $-1 $-1 $-1 $43 $-1 $16 #
shell $-1 $-1 $-1 $44 $-1 $18 #
shell $-1 $-1 $-1 $45 $-1 $20 #
shell $-1 $-1 $-1 $46 $-1 $22 #
shell $-1 $-1 $-1 $47 $-1 $24 #
shell $-1 $-1 $-1 $48 $-1 $26 #
shell $-1 $-1 $-1 $49 $-1 $28 #
face $-1 $50 $51 $30 $-1 $52 reversed single #
face $-1 $53 $54 $31 $-1 $55 forward single #
face $-1 $56 $57 $32 $-1 $58 reversed single #
face $-1 $59 $60 $33 $-1 $61 forward single #
face $-1 $62 $63 $34 $-1 $64 forward single #
face $-1 $65 $66 $35 $-1 $67 reversed single #
face $-1 $68 $69 $36 $-1 $70 forward single #
face $-1 $71 $72 $37 $-1 $73 forward single #
face $-1 $74 $75 $38 $-1 $76 reversed single #
face $-1 $77 $78 $39 $-1 $79 forward single #
face $-1 $80 $81 $30 $-1 $82 forward single #
loop $-1 $-1 $83 $40 #
plane-surface $-1 0 -21.408318238459302 0 0 1 0 0 0 1 forward_v I I I I #
face $-1 $84 $85 $31 $-1 $86 reversed single #
loop $-1 $-1 $87 $41 #
plane-surface $-1 0 -21.408318238459302 0 0 1 0 0 0 1 forward_v I I I I #
face $-1 $88 $89 $32 $-1 $90 reversed single #
loop $-1 $-1 $91 $42 #
plane-surface $-1 14.892045329164702 -1.2923523930383531 114.92342162682377 0 -1 0 -0.52991927123019833 0 -0.84804809178421925 forward_v I I I I #
face $-1 $92 $93 $33 $-1 $94 forward single #
loop $-1 $95 $96 $43 #
cone-surface $-1 37.532173875946292 -7.6496809332081472 3.0345651022683198 -0.52991927123019833 0 -0.84804809178421925 0.84804809178421925 0 -0.52991927123019833 1 I I 0 1 1 forward I I I I #
face $-1 $97 $98 $34 $-1 $99 forward single #
loop $-1 $100 $101 $44 #
cone-surface $-1 37.532173875946292 -3.8352838091062722 3.0345651022683198 -0.52991927123019833 0 -0.84804809178421925 0.84804809178421925 0 -0.52991927123019833 1 I I 0 1 1 forward I I I I #
face $-1 $102 $103 $35 $-1 $104 reversed single #
loop $-1 $-1 $105 $45 #
plane-surface $-1 14.892045329164702 17.182995149059227 114.92342162682377 0 -1 0 -0.52991927123019833 0 -0.84804809178421925 forward_v I I I I #
face $-1 $106 $107 $36 $-1 $108 forward single #
loop $-1 $109 $110 $46 #
cone-surface $-1 37.532173875946292 10.825666608889428 3.0345651022683198 -0.52991927123019833 0 -0.84804809178421925 0.84804809178421925 0 -0.52991927123019833 1 I I 0 1 1 forward I I I I #
face $-1 $111 $112 $37 $-1 $113 forward single #
loop $-1 $114 $115 $47 #
cone-surface $-1 37.532173875946292 14.640063732991308 3.0345651022683198 -0.52991927123019833 0 -0.84804809178421925 0.84804809178421925 0 -0.52991927123019833 1 I I 0 1 1 forward I I I I #
face $-1 $116 $117 $38 $-1 $118 reversed single #
loop $-1 $-1 $119 $48 #
plane-surface $-1 -110.38138936044258 6.6015928019774464 45.694504993403903 0 1 0 -0.84804810408105047 0 0.52991925155115449 forward_v I I I I #
face $-1 $120 $121 $39 $-1 $122 forward single #
loop $-1 $123 $124 $49 #
cone-surface $-1 -39.410673091896349 10.136121899682021 3.6983494618854769 0.84804810408105047 0 -0.52991925155115449 0.26495962577557725 0 0.42402405204052523 1 I I 0 1 0.5 forward I I I I #
face $-1 $125 $126 $30 $-1 $127 reversed single #
loop $-1 $-1 $128 $50 #
plane-surface $-1 0 0 5.6854513782486293 0 0 1 1 0 0 forward_v I I I I #
coedge $-1 $129 $130 $131 $132 reversed $51 $-1 #
face $-1 $133 $134 $31 $-1 $135 reversed single #
loop $-1 $-1 $136 $53 #
plane-surface $-1 0 0 -5.6854513782486293 0 0 1 1 0 0 forward_v I I I I #
coedge $-1 $137 $138 $139 $140 forward $54 $-1 #
face $-1 $141 $142 $32 $-1 $143 reversed single #
loop $-1 $-1 $144 $56 #
plane-surface $-1 -28.499006689069233 -5.7424823711572088 45.483224105514779 0.52991927123019833 0 0.84804809178421925 0.84804809178421925 0 -0.52991927123019833 forward_v I I I I #
coedge $-1 $145 $146 $147 $148 reversed $57 $-1 #
face $-1 $-1 $149 $33 $-1 $150 forward single #
loop $-1 $151 $152 $59 #
cone-surface $-1 36.733421692162011 -7.6496809332081472 1.7562944258798012 -0.52991927123019833 0 -0.84804809178421925 0.42402404589210962 0 -0.26495963561509916 1 I I -0.70710678118654746 0.70710678118654746 0.5 forward I I I I #
loop $-1 $-1 $153 $43 #
coedge $-1 $96 $96 $154 $155 reversed $60 $-1 #
face $-1 $-1 $156 $34 $-1 $157 forward single #
loop $-1 $158 $159 $62 #
cone-surface $-1 36.733421692162011 -3.8352838091062722 1.7562944258798012 -0.52991927123019833 0 -0.84804809178421925 0.42402404589210962 0 -0.26495963561509916 1 I I -0.70710678118654746 0.70710678118654746 0.5 forward I I I I #
loop $-1 $-1 $160 $44 #
coedge $-1 $101 $101 $161 $162 reversed $63 $-1 #
face $-1 $163 $164 $35 $-1 $165 reversed single #
loop $-1 $-1 $166 $65 #
plane-surface $-1 -28.499006689069233 12.732865170940372 45.483224105514779 0.52991927123019833 0 0.84804809178421925 0.84804809178421925 0 -0.52991927123019833 forward_v I I I I #
coedge $-1 $167 $168 $169 $170 reversed $66 $-1 #
face $-1 $-1 $171 $36 $-1 $172 forward single #
loop $-1 $173 $174 $68 #
cone-surface $-1 36.733421692162011 10.825666608889428 1.7562944258798012 -0.52991927123019833 0 -0.84804809178421925 0.42402404589210962 0 -0.26495963561509916 1 I I -0.70710678118654746 0.70710678118654746 0.5 forward I I I I #
loop $-1 $-1 $175 $46 #
coedge $-1 $110 $110 $176 $177 reversed $69 $-1 #
face $-1 $-1 $178 $37 $-1 $179 forward single #
loop $-1 $180 $181 $71 #
cone-surface $-1 36.733421692162011 14.640063732991308 1.7562944258798012 -0.52991927123019833 0 -0.84804809178421925 0.42402404589210962 0 -0.26495963561509916 1 I I -0.70710678118654746 0.70710678118654746 0.5 forward I I I I #
loop $-1 $-1 $182 $47 #
coedge $-1 $115 $115 $183 $184 reversed $72 $-1 #
face $-1 $185 $186 $38 $-1 $187 reversed single #
loop $-1 $-1 $188 $74 #
plane-surface $-1 -40.941190832239769 10.136121899682021 2.3034545865369438 -0.84804810408105047 0 0.52991925155115449 0.52991925155115449 0 0.84804810408105047 forward_v I I I I #
coedge $-1 $189 $190 $191 $192 reversed $75 $-1 #
face $-1 $-1 $193 $39 $-1 $194 forward single #
loop $-1 $195 $196 $77 #
cone-surface $-1 -38.724796362069029 10.136121899682021 3.2697661284903798 0.84804810408105047 0 -0.52991925155115449 0.13247981288778862 0 0.21201202602026262 1 I I -0.70710678118654746 0.70710678118654746 0.25 forward I I I I #
loop $-1 $-1 $197 $49 #
coedge $-1 $124 $124 $198 $199 reversed $78 $-1 #
face $-1 $200 $201 $30 $-1 $202 reversed single #
loop $-1 $-1 $203 $80 #
plane-surface $-1 0 0 -5.6854513782486293 0 0 1 1 0 0 forward_v I I I I #
coedge $-1 $204 $205 $206 $207 forward $81 $-1 #
coedge $-1 $208 $83 $209 $210 reversed $51 $-1 #
coedge $-1 $83 $208 $211 $212 forward $51 $-1 #
coedge $-1 $213 $203 $83 $132 forward $126 $-1 #
edge $-1 $214 -40.941190832239755 $215 40.941190832239755 $83 $216 forward 7 unknown #
face $-1 $217 $218 $31 $-1 $219 reversed single #
loop $-1 $-1 $220 $84 #
plane-surface $-1 -34.53161689582921 -28.398701038242464 0 0 1 0 0 0 1 forward_v I I I I #
coedge $-1 $221 $222 $138 $223 forward $85 $-1 #
coedge $-1 $224 $87 $225 $226 reversed $54 $-1 #
coedge $-1 $87 $224 $136 $223 reversed $54 $-1 #
coedge $-1 $227 $228 $87 $140 reversed $218 $-1 #
edge $-1 $229 -5.6854513782486293 $230 5.6854513782486293 $139 $231 forward 7 unknown #
face $-1 $232 $233 $32 $-1 $234 forward single #
loop $-1 $-1 $235 $88 #
plane-surface $-1 14.892045329164702 -10.192612349276065 114.92342162682377 0 1 0 0.52991927123019833 0 0.84804809178421925 forward_v I I I I #
coedge $-1 $236 $237 $238 $239 reversed $89 $-1 #
coedge $-1 $146 $91 $240 $241 reversed $57 $-1 #
coedge $-1 $91 $145 $236 $242 reversed $57 $-1 #
coedge $-1 $238 $243 $91 $148 forward $233 $-1 #
edge $-1 $244 -33.495168167657404 $245 -27.744719351408868 $147 $246 forward 7 unknown #
loop $-1 $-1 $154 $92 #
plane-surface $-1 -28.499006689069233 -5.7424823711572088 45.483224105514779 0.52991927123019833 0 0.84804809178421925 0.84804809178421925 0 -0.52991927123019833 forward_v I I I I #
loop $-1 $-1 $247 $59 #
coedge $-1 $152 $152 $153 $248 reversed $93 $-1 #
coedge $-1 $153 $153 $152 $248 forward $95 $-1 #
coedge $-1 $154 $154 $96 $155 forward $149 $-1 #
edge $-1 $249 0 $249 6.2831853071796004 $154 $250 forward 7 unknown #
loop $-1 $-1 $161 $97 #
plane-surface $-1 -28.499006689069233 -5.7424823711572088 45.483224105514779 0.52991927123019833 0 0.84804809178421925 0.84804809178421925 0 -0.52991927123019833 forward_v I I I I #
loop $-1 $-1 $251 $62 #
coedge $-1 $159 $159 $160 $252 reversed $98 $-1 #
coedge $-1 $160 $160 $159 $252 forward $100 $-1 #
coedge $-1 $161 $161 $101 $162 forward $156 $-1 #
edge $-1 $253 0 $253 6.2831853071796004 $161 $254 forward 7 unknown #
face $-1 $255 $256 $35 $-1 $257 reversed single #
loop $-1 $-1 $258 $102 #
plane-surface $-1 14.892045329164702 8.2827351928215158 114.92342162682377 0 1 0 0.52991927123019833 0 0.84804809178421925 forward_v I I I I #
coedge $-1 $259 $260 $261 $262 reversed $103 $-1 #
coedge $-1 $168 $105 $263 $264 reversed $66 $-1 #
coedge $-1 $105 $167 $259 $265 reversed $66 $-1 #
coedge $-1 $261 $266 $105 $170 forward $267 $-1 #
edge $-1 $268 -33.495168167657404 $269 -27.744719351408868 $169 $270 forward 7 unknown #
loop $-1 $-1 $176 $106 #
plane-surface $-1 -28.499006689069233 12.732865170940372 45.483224105514779 0.52991927123019833 0 0.84804809178421925 0.84804809178421925 0 -0.52991927123019833 forward_v I I I I #
loop $-1 $-1 $271 $68 #
coedge $-1 $174 $174 $175 $272 reversed $107 $-1 #
coedge $-1 $175 $175 $174 $272 forward $109 $-1 #
coedge $-1 $176 $176 $110 $177 forward $171 $-1 #
edge $-1 $273 0 $273 6.2831853071796004 $176 $274 forward 7 unknown #
loop $-1 $-1 $183 $111 #
plane-surface $-1 -28.499006689069233 12.732865170940372 45.483224105514779 0.52991927123019833 0 0.84804809178421925 0.84804809178421925 0 -0.52991927123019833 forward_v I I I I #
loop $-1 $-1 $275 $71 #
coedge $-1 $181 $181 $182 $276 reversed $112 $-1 #
coedge $-1 $182 $182 $181 $276 forward $114 $-1 #
coedge $-1 $183 $183 $115 $184 forward $178 $-1 #
edge $-1 $277 0 $277 6.2831853071796004 $183 $278 forward 7 unknown #
face $-1 $279 $280 $38 $-1 $281 reversed single #
loop $-1 $-1 $282 $116 #
plane-surface $-1 -110.38138936044258 13.670650997386595 45.694504993403903 0 -1 0 0.84804810408105047 0 -0.52991925155115449 forward_v I I I I #
coedge $-1 $283 $284 $285 $286 reversed $117 $-1 #
coedge $-1 $190 $119 $287 $288 reversed $75 $-1 #
coedge $-1 $119 $189 $283 $289 reversed $75 $-1 #
coedge $-1 $285 $290 $119 $192 forward $291 $-1 #
edge $-1 $292 14.249503847981536 $293 16.362809921054208 $191 $294 forward 7 unknown #
loop $-1 $-1 $198 $120 #
plane-surface $-1 -40.941190832239769 10.136121899682021 2.3034545865369438 -0.84804810408105047 0 0.52991925155115449 0.52991925155115449 0 0.84804810408105047 forward_v I I I I #
loop $-1 $-1 $295 $77 #
coedge $-1 $196 $196 $197 $296 reversed $121 $-1 #
coedge $-1 $197 $197 $196 $296 forward $123 $-1 #
coedge $-1 $198 $198 $124 $199 forward $193 $-1 #
edge $-1 $297 0 $297 6.2831853071796004 $198 $298 forward 7 unknown #
face $-1 $299 $300 $30 $-1 $301 reversed single #
loop $-1 $-1 $302 $125 #
plane-surface $-1 -40.941190832239755 0 0 1 0 0 0 0 -1 forward_v I I I I #
coedge $-1 $131 $303 $304 $305 forward $126 $-1 #
coedge $-1 $306 $128 $307 $308 forward $81 $-1 #
coedge $-1 $128 $306 $208 $309 forward $81 $-1 #
coedge $-1 $209 $310 $128 $207 reversed $311 $-1 #
edge $-1 $312 -21.408318238459302 $313 21.408318238459302 $206 $314 forward 7 unknown #
coedge $-1 $130 $129 $205 $309 reversed $51 $-1 #
coedge $-1 $304 $206 $129 $210 forward $311 $-1 #
edge $-1 $312 -5.6854513782486293 $214 5.6854513782486293 $209 $315 forward 7 unknown #
coedge $-1 $316 $317 $130 $212 reversed $201 $-1 #
edge $-1 $318 -5.6854513782486293 $215 5.6854513782486293 $211 $319 forward 7 unknown #
coedge $-1 $303 $131 $317 $320 forward $126 $-1 #
vertex $-1 $210 $321 #
vertex $-1 $320 $322 #
straight-curve $-1 0 -21.408318238459302 -5.6854513782486293 -1 0 0 I I #
face $-1 $323 $324 $31 $-1 $325 reversed single #
loop $-1 $-1 $139 $133 #
plane-surface $-1 -36.03161689582921 -24.903509638350883 0 1 0 0 0 0 -1 forward_v I I I I #
coedge $-1 $326 $327 $328 $329 forward $134 $-1 #
coedge $-1 $330 $136 $331 $332 forward $85 $-1 #
coedge $-1 $136 $330 $227 $333 forward $85 $-1 #
edge $-1 $229 -36.03161689582921 $334 -33.03161689582921 $136 $335 forward 7 unknown #
coedge $-1 $138 $137 $336 $337 forward $54 $-1 #
coedge $-1 $338 $339 $137 $226 forward $340 $-1 #
edge $-1 $341 33.03161689582921 $230 36.03161689582921 $225 $342 forward 7 unknown #
coedge $-1 $328 $139 $222 $333 reversed $218 $-1 #
coedge $-1 $139 $328 $338 $343 reversed $218 $-1 #
vertex $-1 $223 $344 #
vertex $-1 $343 $345 #
straight-curve $-1 -36.03161689582921 -21.408318238459302 0 0 0 1 I I #
face $-1 $-1 $346 $32 $-1 $347 reversed single #
loop $-1 $-1 $147 $141 #
plane-surface $-1 0 0 5.6854513782486293 0 0 1 1 0 0 forward_v I I I I #
coedge $-1 $348 $349 $350 $351 reversed $142 $-1 #
coedge $-1 $352 $144 $146 $242 forward $89 $-1 #
coedge $-1 $144 $352 $348 $353 forward $89 $-1 #
coedge $-1 $350 $147 $144 $239 forward $233 $-1 #
edge $-1 $245 -1.5788887925402513 $354 7.3213711636974601 $238 $355 forward 7 unknown #
coedge $-1 $356 $357 $145 $241 forward $346 $-1 #
edge $-1 $358 -55.36953872613104 $244 -51.776259435163254 $240 $359 forward 7 unknown #
edge $-1 $245 75.101576575760902 $358 81.88238166447951 $146 $360 forward 7 unknown #
coedge $-1 $147 $350 $356 $361 forward $233 $-1 #
vertex $-1 $148 $362 #
vertex $-1 $148 $363 #
straight-curve $-1 7.4460226645823511 -1.2923523930383531 5.6854513782486293 -1 0 0 I I #
coedge $-1 $247 $247 $-1 $364 reversed $151 $-1 #
edge $-1 $365 0 $365 6.2831853071796004 $152 $366 forward 7 unknown #
vertex $-1 $155 $367 #
ellipse-curve $-1 38.06596642411548 -7.6496809332081472 3.8888117327647467 0.52991927123019833 0 0.84804809178421925 0.84804809178421925 0 -0.52991927123019833 1 I I #
coedge $-1 $251 $251 $-1 $368 reversed $158 $-1 #
edge $-1 $369 0 $369 6.2831853071796004 $159 $370 forward 7 unknown #
vertex $-1 $162 $371 #
ellipse-curve $-1 38.06596642411548 -3.8352838091062722 3.8888117327647467 0.52991927123019833 0 0.84804809178421925 0.84804809178421925 0 -0.52991927123019833 1 I I #
face $-1 $-1 $267 $35 $-1 $372 forward single #
loop $-1 $-1 $373 $163 #
plane-surface $-1 40.941190832239755 0 0 -1 0 0 0 0 1 forward_v I I I I #
coedge $-1 $374 $375 $376 $377 reversed $164 $-1 #
coedge $-1 $378 $166 $168 $265 forward $103 $-1 #
coedge $-1 $166 $378 $374 $379 forward $103 $-1 #
coedge $-1 $376 $169 $166 $262 forward $267 $-1 #
edge $-1 $269 -10.816562563589041 $380 -1.9163026073513301 $261 $381 forward 7 unknown #
coedge $-1 $382 $383 $167 $264 forward $256 $-1 #
edge $-1 $384 -55.36953872613104 $268 -51.776259435163254 $263 $385 forward 7 unknown #
edge $-1 $269 75.101576575760902 $384 81.88238166447951 $168 $386 forward 7 unknown #
coedge $-1 $169 $376 $382 $387 forward $267 $-1 #
loop $-1 $-1 $376 $255 #
vertex $-1 $264 $388 #
vertex $-1 $170 $389 #
straight-curve $-1 7.4460226645823511 17.182995149059227 5.6854513782486293 -1 0 0 I I #
coedge $-1 $271 $271 $-1 $390 reversed $173 $-1 #
edge $-1 $391 0 $391 6.2831853071796004 $174 $392 forward 7 unknown #
vertex $-1 $177 $393 #
ellipse-curve $-1 38.06596642411548 10.825666608889428 3.8888117327647467 0.52991927123019833 0 0.84804809178421925 0.84804809178421925 0 -0.52991927123019833 1 I I #
coedge $-1 $275 $275 $-1 $394 reversed $180 $-1 #
edge $-1 $395 0 $395 6.2831853071796004 $181 $396 forward 7 unknown #
vertex $-1 $184 $397 #
ellipse-curve $-1 38.06596642411548 14.640063732991308 3.8888117327647467 0.52991927123019833 0 0.84804809178421925 0.84804809178421925 0 -0.52991927123019833 1 I I #
face $-1 $-1 $291 $38 $-1 $398 forward single #
loop $-1 $-1 $399 $185 #
plane-surface $-1 -40.941190832239755 0 0 1 0 0 0 0 -1 forward_v I I I I #
coedge $-1 $400 $401 $402 $403 reversed $186 $-1 #
coedge $-1 $404 $188 $190 $289 forward $117 $-1 #
coedge $-1 $188 $404 $400 $405 forward $117 $-1 #
coedge $-1 $402 $191 $188 $286 forward $291 $-1 #
edge $-1 $293 1.5335318521364361 $406 8.6025900475455845 $285 $407 forward 7 unknown #
coedge $-1 $408 $409 $189 $288 forward $280 $-1 #
edge $-1 $410 -20.543797910164987 $292 -17.161801118453322 $287 $411 forward 7 unknown #
edge $-1 $293 -3.9879775397604771 $410 -2.6737665129848107e-014 $190 $412 forward 7 unknown #
coedge $-1 $191 $402 $408 $413 forward $291 $-1 #
loop $-1 $-1 $402 $279 #
vertex $-1 $288 $414 #
vertex $-1 $192 $415 #
straight-curve $-1 -55.190694680221291 6.6015928019774464 5.6854513782486293 1 0 0 I I #
coedge $-1 $295 $295 $-1 $416 reversed $195 $-1 #
edge $-1 $417 0 $417 6.2831853071796004 $196 $418 forward 7 unknown #
vertex $-1 $199 $419 #
ellipse-curve $-1 -39.884537795703423 10.136121899682021 3.9944529823927923 -0.84804810408105047 0 0.52991925155115449 0.26495962577557725 0 0.42402405204052523 1 I I #
face $-1 $-1 $311 $30 $-1 $420 reversed single #
loop $-1 $-1 $421 $200 #
plane-surface $-1 0 21.408318238459302 0 0 -1 0 0 0 -1 forward_v I I I I #
coedge $-1 $317 $316 $422 $423 forward $201 $-1 #
coedge $-1 $203 $213 $424 $425 forward $126 $-1 #
coedge $-1 $310 $209 $203 $305 reversed $311 $-1 #
edge $-1 $426 -21.408318238459302 $214 21.408318238459302 $304 $427 forward 7 unknown #
coedge $-1 $205 $204 $316 $428 forward $81 $-1 #
coedge $-1 $421 $422 $204 $308 reversed $300 $-1 #
edge $-1 $313 -40.941190832239755 $429 40.941190832239755 $307 $430 forward 7 unknown #
edge $-1 $318 -40.941190832239755 $312 40.941190832239755 $208 $431 forward 7 unknown #
coedge $-1 $206 $304 $421 $432 reversed $311 $-1 #
loop $-1 $-1 $209 $299 #
vertex $-1 $207 $433 #
vertex $-1 $207 $434 #
straight-curve $-1 40.941190832239755 0 5.6854513782486293 0 1 0 I I #
straight-curve $-1 40.941190832239755 -21.408318238459302 0 0 0 -1 I I #
coedge $-1 $302 $211 $306 $428 reversed $201 $-1 #
coedge $-1 $211 $302 $213 $320 reversed $201 $-1 #
vertex $-1 $428 $435 #
straight-curve $-1 -40.941190832239755 -21.408318238459302 0 0 0 -1 I I #
edge $-1 $215 -21.408318238459302 $436 21.408318238459302 $317 $437 forward 7 unknown #
point $-1 40.941190832239755 -21.408318238459302 -5.6854513782486293 #
point $-1 -40.941190832239755 -21.408318238459302 -5.6854513782486293 #
face $-1 $-1 $340 $31 $-1 $438 forward single #
loop $-1 $-1 $439 $217 #
plane-surface $-1 -33.03161689582921 -24.903509638350883 0 -1 0 0 0 0 1 forward_v I I I I #
coedge $-1 $440 $220 $330 $441 reversed $134 $-1 #
coedge $-1 $220 $440 $442 $443 reversed $134 $-1 #
coedge $-1 $228 $227 $220 $329 reversed $218 $-1 #
edge $-1 $444 -5.6854513782486293 $445 5.6854513782486293 $328 $446 forward 7 unknown #
coedge $-1 $222 $221 $326 $441 forward $85 $-1 #
coedge $-1 $336 $439 $221 $332 reversed $324 $-1 #
edge $-1 $334 -3.4951913998915813 $447 3.4951913998915813 $331 $448 forward 7 unknown #
edge $-1 $445 -3.4951913998915813 $229 3.4951913998915813 $227 $449 forward 7 unknown #
vertex $-1 $332 $450 #
straight-curve $-1 0 -21.408318238459302 -5.6854513782486293 1 0 0 I I #
coedge $-1 $451 $331 $224 $337 reversed $324 $-1 #
edge $-1 $341 -5.6854513782486293 $334 5.6854513782486293 $336 $452 forward 7 unknown #
coedge $-1 $442 $225 $228 $343 forward $340 $-1 #
coedge $-1 $225 $442 $451 $453 forward $340 $-1 #
loop $-1 $-1 $225 $323 #
vertex $-1 $226 $454 #
straight-curve $-1 0 -21.408318238459302 5.6854513782486293 -1 0 0 I I #
edge $-1 $230 -3.4951913998915813 $444 3.4951913998915813 $228 $455 forward 7 unknown #
point $-1 -36.03161689582921 -21.408318238459302 -5.6854513782486293 #
point $-1 -36.03161689582921 -21.408318238459302 5.6854513782486293 #
loop $-1 $-1 $240 $232 #
plane-surface $-1 40.941190832239755 0 0 -1 0 0 0 0 1 forward_v I I I I #
coedge $-1 $349 $235 $237 $353 reversed $142 $-1 #
coedge $-1 $235 $348 $456 $457 reversed $142 $-1 #
coedge $-1 $243 $238 $235 $351 forward $233 $-1 #
edge $-1 $354 27.744719351408868 $458 33.495168167657404 $350 $459 forward 7 unknown #
coedge $-1 $237 $236 $357 $460 reversed $89 $-1 #
edge $-1 $461 -81.88238166447951 $354 -75.101576575760902 $348 $462 forward 7 unknown #
vertex $-1 $239 $463 #
straight-curve $-1 35.190742015991219 -2.8712411855786044 5.6854513782486258 0 -1 0 I I #
coedge $-1 $456 $240 $243 $361 reversed $346 $-1 #
coedge $-1 $240 $456 $352 $460 forward $346 $-1 #
vertex $-1 $241 $464 #
straight-curve $-1 40.941190832239755 -1.2923523930383531 57.461710813411884 0 0 1 I I #
straight-curve $-1 -28.499006689069233 -1.2923523930383531 45.483224105514779 0.84804809178421925 0 -0.52991927123019833 I I #
edge $-1 $458 -10.192612349276065 $244 -1.2923523930383531 $356 $465 forward 7 unknown #
point $-1 40.941190832239755 -1.2923523930383531 5.6854513782486293 #
point $-1 35.190742015991219 -1.2923523930383531 5.6854513782486293 #
edge $-1 $466 1 $466 0 $247 $-1 forward 7 unknown #
vertex $-1 $248 $467 #
ellipse-curve $-1 36.998381327777111 -7.6496809332081472 2.1803184717719111 0.52991927123019833 0 0.84804809178421925 0.84804809178421925 0 -0.52991927123019833 1 I I #
point $-1 38.914014515899694 -7.6496809332081472 3.3588924615345301 #
edge $-1 $468 1 $468 0 $251 $-1 forward 7 unknown #
vertex $-1 $252 $469 #
ellipse-curve $-1 36.998381327777111 -3.8352838091062722 2.1803184717719111 0.52991927123019833 0 0.84804809178421925 0.84804809178421925 0 -0.52991927123019833 1 I I #
point $-1 38.914014515899694 -3.8352838091062722 3.3588924615345301 #
plane-surface $-1 0 0 5.6854513782486293 0 0 1 1 0 0 forward_v I I I I #
coedge $-1 $383 $382 $375 $470 forward $256 $-1 #
coedge $-1 $375 $258 $260 $379 reversed $164 $-1 #
coedge $-1 $258 $374 $373 $470 reversed $164 $-1 #
coedge $-1 $266 $261 $258 $377 forward $267 $-1 #
edge $-1 $380 27.744719351408868 $471 33.495168167657404 $376 $472 forward 7 unknown #
coedge $-1 $260 $259 $383 $473 reversed $103 $-1 #
edge $-1 $474 -81.88238166447951 $380 -75.101576575760902 $374 $475 forward 7 unknown #
vertex $-1 $262 $476 #
straight-curve $-1 35.190742015991219 6.3664325854701858 5.6854513782486258 0 -1 0 I I #
coedge $-1 $373 $263 $266 $387 reversed $256 $-1 #
coedge $-1 $263 $373 $378 $473 forward $256 $-1 #
vertex $-1 $264 $477 #
straight-curve $-1 40.941190832239755 17.182995149059227 57.461710813411884 0 0 1 I I #
straight-curve $-1 -28.499006689069233 17.182995149059227 45.483224105514779 0.84804809178421925 0 -0.52991927123019833 I I #
edge $-1 $471 8.2827351928215158 $268 17.182995149059227 $382 $478 forward 7 unknown #
point $-1 40.941190832239755 17.182995149059227 5.6854513782486293 #
point $-1 35.190742015991219 17.182995149059227 5.6854513782486293 #
edge $-1 $479 1 $479 0 $271 $-1 forward 7 unknown #
vertex $-1 $272 $480 #
ellipse-curve $-1 36.998381327777111 10.825666608889428 2.1803184717719111 0.52991927123019833 0 0.84804809178421925 0.84804809178421925 0 -0.52991927123019833 1 I I #
point $-1 38.914014515899694 10.825666608889428 3.3588924615345301 #
edge $-1 $481 1 $481 0 $275 $-1 forward 7 unknown #
vertex $-1 $276 $482 #
ellipse-curve $-1 36.998381327777111 14.640063732991308 2.1803184717719111 0.52991927123019833 0 0.84804809178421925 0.84804809178421925 0 -0.52991927123019833 1 I I #
point $-1 38.914014515899694 14.640063732991308 3.3588924615345301 #
plane-surface $-1 0 0 5.6854513782486293 0 0 1 1 0 0 forward_v I I I I #
coedge $-1 $409 $408 $401 $483 forward $280 $-1 #
coedge $-1 $401 $282 $284 $405 reversed $186 $-1 #
coedge $-1 $282 $400 $399 $483 reversed $186 $-1 #
coedge $-1 $290 $285 $282 $403 forward $291 $-1 #
edge $-1 $406 -16.362809921054208 $484 -14.249503847981536 $402 $485 forward 7 unknown #
coedge $-1 $284 $283 $409 $486 reversed $117 $-1 #
edge $-1 $487 2.6737665129848107e-014 $406 3.9879775397604771 $400 $488 forward 7 unknown #
vertex $-1 $286 $489 #
straight-curve $-1 -38.827884759167084 5.0680609498410103 5.6854513782486302 0 1 0 I I #
coedge $-1 $399 $287 $290 $413 reversed $280 $-1 #
coedge $-1 $287 $399 $404 $486 forward $280 $-1 #
vertex $-1 $288 $490 #
straight-curve $-1 -40.941190832239755 6.6015928019774464 22.847252496701952 0 0 1 I I #
straight-curve $-1 -40.941190832239769 6.6015928019774464 2.3034545865369438 -0.52991925155115449 0 -0.84804810408105047 I I #
edge $-1 $484 -13.670650997386595 $292 -6.6015928019774464 $408 $491 forward 7 unknown #
point $-1 -40.941190832239755 6.6015928019774464 5.6854513782486293 #
point $-1 -38.827884759167084 6.6015928019774464 5.6854513782486293 #
edge $-1 $492 1 $492 0 $295 $-1 forward 7 unknown #
vertex $-1 $296 $493 #
ellipse-curve $-1 -38.93680838808929 10.136121899682021 3.4022459413781685 -0.84804810408105047 0 0.52991925155115449 0.26495962577557725 0 0.42402405204052523 1 I I #
point $-1 -39.619578169927834 10.136121899682021 4.4184770344333106 #
plane-surface $-1 40.941190832239755 0 0 -1 0 0 0 0 1 forward_v I I I I #
coedge $-1 $424 $307 $310 $432 forward $300 $-1 #
coedge $-1 $307 $424 $302 $423 reversed $300 $-1 #
edge $-1 $429 -5.6854513782486293 $436 5.6854513782486293 $422 $494 forward 7 unknown #
coedge $-1 $422 $421 $303 $425 reversed $300 $-1 #
edge $-1 $436 -40.941190832239755 $426 40.941190832239755 $424 $495 forward 7 unknown #
vertex $-1 $305 $496 #
straight-curve $-1 40.941190832239755 0 -5.6854513782486293 0 -1 0 I I #
edge $-1 $429 -21.408318238459302 $318 21.408318238459302 $316 $497 forward 7 unknown #
vertex $-1 $308 $498 #
straight-curve $-1 0 21.408318238459302 5.6854513782486293 -1 0 0 I I #
straight-curve $-1 0 -21.408318238459302 5.6854513782486293 1 0 0 I I #
edge $-1 $313 -5.6854513782486293 $426 5.6854513782486293 $310 $499 forward 7 unknown #
point $-1 40.941190832239755 -21.408318238459302 5.6854513782486293 #
point $-1 40.941190832239755 21.408318238459302 5.6854513782486293 #
point $-1 -40.941190832239755 -21.408318238459302 5.6854513782486293 #
vertex $-1 $425 $500 #
straight-curve $-1 -40.941190832239755 0 -5.6854513782486293 0 1 0 I I #
plane-surface $-1 0 0 5.6854513782486293 0 0 1 1 0 0 forward_v I I I I #
coedge $-1 $331 $451 $440 $501 forward $324 $-1 #
coedge $-1 $327 $326 $439 $501 reversed $134 $-1 #
edge $-1 $447 -1.5 $445 1.5 $326 $502 forward 7 unknown #
coedge $-1 $339 $338 $327 $443 forward $340 $-1 #
edge $-1 $444 -1.5 $503 1.5 $327 $504 forward 7 unknown #
vertex $-1 $343 $505 #
vertex $-1 $333 $506 #
straight-curve $-1 -36.03161689582921 -28.398701038242464 0 0 0 -1 I I #
vertex $-1 $501 $507 #
straight-curve $-1 -33.03161689582921 -24.903509638350883 -5.6854513782486293 0 -1 0 I I #
straight-curve $-1 -36.03161689582921 -24.903509638350883 -5.6854513782486293 0 1 0 I I #
point $-1 -33.03161689582921 -21.408318238459302 -5.6854513782486293 #
coedge $-1 $439 $336 $339 $453 reversed $324 $-1 #
straight-curve $-1 -33.03161689582921 -21.408318238459302 0 0 0 -1 I I #
edge $-1 $503 -3.4951913998915813 $341 3.4951913998915813 $451 $508 forward 7 unknown #
point $-1 -33.03161689582921 -21.408318238459302 5.6854513782486293 #
straight-curve $-1 -36.03161689582921 -24.903509638350883 5.6854513782486293 0 -1 0 I I #
coedge $-1 $357 $356 $349 $457 forward $346 $-1 #
edge $-1 $458 51.776259435163254 $461 55.36953872613104 $456 $509 forward 7 unknown #
vertex $-1 $361 $510 #
straight-curve $-1 7.4460226645823511 -10.192612349276065 5.6854513782486293 1 0 0 I I #
edge $-1 $461 -7.3213711636974601 $358 1.5788887925402513 $357 $511 forward 7 unknown #
vertex $-1 $460 $512 #
straight-curve $-1 -28.499006689069233 -10.192612349276065 45.483224105514779 -0.84804809178421925 0 0.52991927123019833 I I #
point $-1 35.190742015991219 -10.192612349276065 5.6854513782486293 #
point $-1 40.941190832239755 -1.2923523930383531 2.0921720872808436 #
straight-curve $-1 40.941190832239755 0 5.6854513782486293 0 1 0 I I #
vertex $-1 $364 $513 #
point $-1 37.846429419561332 -7.6496809332081472 1.6503992005417125 #
vertex $-1 $368 $514 #
point $-1 37.846429419561332 -3.8352838091062722 1.6503992005417125 #
edge $-1 $471 51.776259435163254 $474 55.36953872613104 $373 $515 forward 7 unknown #
vertex $-1 $387 $516 #
straight-curve $-1 7.4460226645823511 8.2827351928215158 5.6854513782486293 1 0 0 I I #
edge $-1 $474 1.9163026073513301 $384 10.816562563589041 $383 $517 forward 7 unknown #
vertex $-1 $473 $518 #
straight-curve $-1 -28.499006689069233 8.2827351928215158 45.483224105514779 -0.84804809178421925 0 0.52991927123019833 I I #
point $-1 35.190742015991219 8.2827351928215158 5.6854513782486293 #
point $-1 40.941190832239755 17.182995149059227 2.0921720872808436 #
straight-curve $-1 40.941190832239755 0 5.6854513782486293 0 1 0 I I #
vertex $-1 $390 $519 #
point $-1 37.846429419561332 10.825666608889428 1.6503992005417125 #
vertex $-1 $394 $520 #
point $-1 37.846429419561332 14.640063732991308 1.6503992005417125 #
edge $-1 $484 17.161801118453322 $487 20.543797910164987 $399 $521 forward 7 unknown #
vertex $-1 $413 $522 #
straight-curve $-1 -55.190694680221291 13.670650997386595 5.6854513782486293 -1 0 0 I I #
edge $-1 $487 -8.6025900475455845 $410 -1.5335318521364361 $409 $523 forward 7 unknown #
vertex $-1 $486 $524 #
straight-curve $-1 -40.941190832239769 13.670650997386595 2.3034545865369438 0.52991925155115449 0 0.84804810408105047 I I #
point $-1 -38.827884759167084 13.670650997386595 5.6854513782486293 #
point $-1 -40.941190832239755 6.6015928019774464 2.3034545865369664 #
straight-curve $-1 -40.941190832239755 0 5.6854513782486293 0 -1 0 I I #
vertex $-1 $416 $525 #
point $-1 -38.671848762313715 10.136121899682021 3.8262699934186939 #
straight-curve $-1 -40.941190832239755 21.408318238459302 0 0 0 -1 I I #
straight-curve $-1 0 21.408318238459302 -5.6854513782486293 1 0 0 I I #
point $-1 40.941190832239755 21.408318238459302 -5.6854513782486293 #
straight-curve $-1 -40.941190832239755 0 5.6854513782486293 0 -1 0 I I #
point $-1 -40.941190832239755 21.408318238459302 5.6854513782486293 #
straight-curve $-1 40.941190832239755 21.408318238459302 0 0 0 -1 I I #
point $-1 -40.941190832239755 21.408318238459302 -5.6854513782486293 #
edge $-1 $503 -5.6854513782486293 $447 5.6854513782486293 $439 $526 forward 7 unknown #
straight-curve $-1 -34.53161689582921 -28.398701038242464 -5.6854513782486293 -1 0 0 I I #
vertex $-1 $453 $527 #
straight-curve $-1 -34.53161689582921 -28.398701038242464 5.6854513782486293 1 0 0 I I #
point $-1 -36.03161689582921 -28.398701038242464 5.6854513782486293 #
point $-1 -36.03161689582921 -28.398701038242464 -5.6854513782486293 #
point $-1 -33.03161689582921 -28.398701038242464 -5.6854513782486293 #
straight-curve $-1 -33.03161689582921 -24.903509638350883 5.6854513782486293 0 1 0 I I #
straight-curve $-1 40.941190832239755 -10.192612349276065 57.461710813411884 0 0 -1 I I #
point $-1 40.941190832239755 -10.192612349276065 5.6854513782486293 #
straight-curve $-1 40.941190832239762 -2.8712411855786044 2.09217208728084 0 1 0 I I #
point $-1 40.941190832239755 -10.192612349276065 2.0921720872808436 #
point $-1 36.468462056546912 -7.6496809332081472 1.3322703799876916 #
point $-1 36.468462056546912 -3.8352838091062722 1.3322703799876916 #
straight-curve $-1 40.941190832239755 8.2827351928215158 57.461710813411884 0 0 -1 I I #
point $-1 40.941190832239755 8.2827351928215158 5.6854513782486293 #
straight-curve $-1 40.941190832239762 6.3664325854701858 2.09217208728084 0 1 0 I I #
point $-1 40.941190832239755 8.2827351928215158 2.0921720872808436 #
point $-1 36.468462056546912 10.825666608889428 1.3322703799876916 #
point $-1 36.468462056546912 14.640063732991308 1.3322703799876916 #
straight-curve $-1 -40.941190832239755 13.670650997386595 22.847252496701952 0 0 -1 I I #
point $-1 -40.941190832239755 13.670650997386595 5.6854513782486293 #
straight-curve $-1 -40.941190832239755 5.0680609498410103 2.3034545865369678 0 -1 0 I I #
point $-1 -40.941190832239755 13.670650997386595 2.3034545865369664 #
point $-1 -38.512784336048767 10.136121899682021 3.1372863156025912 #
straight-curve $-1 -33.03161689582921 -28.398701038242464 0 0 0 -1 I I #
point $-1 -33.03161689582921 -28.398701038242464 5.6854513782486293 #
End-of-ACIS-data 