500 0 10 0           
7 Unknown 11 ACIS 5.0 NT 24 Fri Mar 26 17:29:27 1999 
-1 9.9999999999999995e-007 1e-010 
body $-1 $10 $-1 $11 #
body $-1 $12 $-1 $13 #
body $-1 $14 $-1 $15 #
body $-1 $16 $-1 $17 #
body $-1 $18 $-1 $19 #
body $-1 $20 $-1 $21 #
body $-1 $22 $-1 $23 #
body $-1 $24 $-1 $25 #
body $-1 $26 $-1 $27 #
body $-1 $28 $-1 $29 #
lump $-1 $-1 $30 $0 #
transform $-1 1 0 0 0 1 0 0 0 1 68.64589373455 29.049068486972988 9.9407087906866103 1 rotate no_reflect no_shear #
lump $-1 $-1 $31 $1 #
transform $-1 1 0 0 0 1 0 0 0 1 68.64589373455 29.049068486972988 9.9407087906866103 1 rotate no_reflect no_shear #
lump $-1 $-1 $32 $2 #
transform $-1 1 0 0 0 1 0 0 0 1 68.64589373455 29.049068486972988 9.9407087906866103 1 rotate no_reflect no_shear #
lump $-1 $-1 $33 $3 #
transform $-1 1 0 0 0 1 0 0 0 1 68.64589373455 29.049068486972988 9.9407087906866103 1 rotate no_reflect no_shear #
lump $-1 $-1 $34 $4 #
transform $-1 1 0 0 0 1 0 0 0 1 68.64589373455 29.049068486972988 9.9407087906866103 1 rotate no_reflect no_shear #
lump $-1 $-1 $35 $5 #
transform $-1 1 0 0 0 1 0 0 0 1 68.64589373455 29.049068486972988 9.9407087906866103 1 rotate no_reflect no_shear #
lump $-1 $-1 $36 $6 #
transform $-1 1 0 0 0 1 0 0 0 1 68.64589373455 29.049068486972988 9.9407087906866103 1 rotate no_reflect no_shear #
lump $-1 $-1 $37 $7 #
transform $-1 1 0 0 0 1 0 0 0 1 68.64589373455 29.049068486972988 9.9407087906866103 1 rotate no_reflect no_shear #
lump $-1 $-1 $38 $8 #
transform $-1 1 0 0 0 1 0 0 0 1 68.64589373455 29.049068486972988 9.9407087906866103 1 rotate no_reflect no_shear #
lump $-1 $-1 $39 $9 #
transform $-1 1 0 0 0 1 0 0 0 1 68.64589373455 29.049068486972988 9.9407087906866103 1 rotate no_reflect no_shear #
shell $-1 $-1 $-1 $40 $-1 $10 #
shell $-1 $-1 $-1 $41 $-1 $12 #
shell $-1 $-1 $-1 $42 $-1 $14 #
shell $-1 $-1 $-1 $43 $-1 $16 #
shell $-1 $-1 $-1 $44 $-1 $18 #
shell $-1 $-1 $-1 $45 $-1 $20 #
shell $-1 $-1 $-1 $46 $-1 $22 #
shell $-1 $-1 $-1 $47 $-1 $24 #
shell $-1 $-1 $-1 $48 $-1 $26 #
shell $-1 $-1 $-1 $49 $-1 $28 #
face $-1 $50 $51 $30 $-1 $52 forward single #
face $-1 $53 $54 $31 $-1 $55 forward single #
face $-1 $56 $57 $32 $-1 $58 reversed single #
face $-1 $59 $60 $33 $-1 $61 forward single #
face $-1 $62 $63 $34 $-1 $64 reversed single #
face $-1 $65 $66 $35 $-1 $67 forward single #
face $-1 $68 $69 $36 $-1 $70 forward single #
face $-1 $71 $72 $37 $-1 $73 reversed single #
face $-1 $74 $75 $38 $-1 $76 forward single #
face $-1 $77 $78 $39 $-1 $79 forward single #
face $-1 $80 $81 $30 $-1 $82 reversed single #
loop $-1 $-1 $83 $40 #
plane-surface $-1 0 0 9.9407087906866103 0 0 1 1 0 0 forward_v I I I I #
face $-1 $84 $85 $31 $-1 $86 reversed single #
loop $-1 $-1 $87 $41 #
plane-surface $-1 0 -22.556378287174667 -4.316503228500399 0 0 1 1 0 0 forward_v I I I I #
face $-1 $88 $89 $32 $-1 $90 reversed single #
loop $-1 $-1 $91 $42 #
plane-surface $-1 -178.29199157431853 -4.1991362514688397 87.434481111617245 0 1 0 -0.79863551827123203 0 0.60181501223851219 forward_v I I I I #
face $-1 $92 $93 $33 $-1 $94 forward single #
loop $-1 $95 $96 $43 #
cone-surface $-1 -66.313526614316288 1.3007966282537495 7.0745580670508579 0.79863551827123203 0 -0.60181501223851219 0.3009075061192561 0 0.39931775913561601 1 I I 0 1 0.5 forward I I I I #
face $-1 $97 $98 $34 $-1 $99 reversed single #
loop $-1 $-1 $100 $44 #
plane-surface $-1 122.16362027301527 2.1242416204592693 188.82637113159163 0 -1 0 -0.87461971476443456 0 -0.48480960649040278 forward_v I I I I #
face $-1 $101 $102 $35 $-1 $103 forward single #
loop $-1 $104 $105 $45 #
cone-surface $-1 64.981547998859938 -4.352769489141874 5.2241790933188836 -0.87461971476443456 0 -0.48480960649040278 0.48480960649040278 0 -0.87461971476443456 1 I I 0 1 1 forward I I I I #
face $-1 $106 $107 $36 $-1 $108 forward single #
loop $-1 $109 $110 $46 #
cone-surface $-1 64.981547998859938 -0.46656282338119226 5.2241790933188836 -0.87461971476443456 0 -0.48480960649040278 0.48480960649040278 0 -0.87461971476443456 1 I I 0 1 1 forward I I I I #
face $-1 $111 $112 $37 $-1 $113 reversed single #
loop $-1 $-1 $114 $47 #
plane-surface $-1 122.16362027301527 24.68061990763394 188.82637113159163 0 -1 0 -0.87461971476443456 0 -0.48480960649040278 forward_v I I I I #
face $-1 $115 $116 $38 $-1 $117 forward single #
loop $-1 $118 $119 $48 #
cone-surface $-1 64.981547998859938 18.203608798032793 5.2241790933188836 -0.87461971476443456 0 -0.48480960649040278 0.48480960649040278 0 -0.87461971476443456 1 I I 0 1 1 forward I I I I #
face $-1 $120 $121 $39 $-1 $122 forward single #
loop $-1 $123 $124 $49 #
cone-surface $-1 64.981547998859938 22.089815463793474 5.2241790933188836 -0.87461971476443456 0 -0.48480960649040278 0.48480960649040278 0 -0.87461971476443456 1 I I 0 1 1 forward I I I I #
face $-1 $125 $126 $30 $-1 $127 reversed single #
loop $-1 $-1 $128 $50 #
plane-surface $-1 0 0 -9.9407087906866103 0 0 1 1 0 0 forward_v I I I I #
coedge $-1 $129 $130 $131 $132 forward $51 $-1 #
face $-1 $133 $134 $31 $-1 $135 reversed single #
loop $-1 $-1 $136 $53 #
plane-surface $-1 0 -22.556378287174667 -8.2737954312493329 0 0 1 1 0 0 forward_v I I I I #
coedge $-1 $137 $138 $139 $140 reversed $54 $-1 #
face $-1 $141 $142 $32 $-1 $143 reversed single #
loop $-1 $-1 $144 $56 #
plane-surface $-1 -68.645893734550015 1.3007966282537495 4.8102223556536075 -0.79863551827123203 0 0.60181501223851219 0.60181501223851219 0 0.79863551827123203 forward_v I I I I #
coedge $-1 $145 $146 $147 $148 reversed $57 $-1 #
face $-1 $-1 $149 $33 $-1 $150 forward single #
loop $-1 $151 $152 $59 #
cone-surface $-1 -65.714549975612869 1.3007966282537495 6.6231968078719738 0.79863551827123203 0 -0.60181501223851219 0.15045375305962805 0 0.19965887956780801 1 I I -0.70710678118654746 0.70710678118654746 0.25 forward I I I I #
loop $-1 $-1 $153 $43 #
coedge $-1 $96 $96 $154 $155 reversed $60 $-1 #
face $-1 $156 $157 $34 $-1 $158 reversed single #
loop $-1 $-1 $159 $62 #
plane-surface $-1 2.08551627729166 -2.4096661562615296 122.26599367433325 0.87461971476443456 0 0.48480960649040278 0.48480960649040278 0 -0.87461971476443456 forward_v I I I I #
coedge $-1 $160 $161 $162 $163 reversed $63 $-1 #
face $-1 $-1 $164 $35 $-1 $165 forward single #
loop $-1 $166 $167 $65 #
cone-surface $-1 63.028621230137148 -4.352769489141874 4.141654148744454 -0.87461971476443456 0 -0.48480960649040278 0.24240480324520139 0 -0.43730985738221728 1 I I -0.70710678118654724 0.70710678118654791 0.5 forward I I I I #
loop $-1 $-1 $168 $45 #
coedge $-1 $105 $105 $169 $170 reversed $66 $-1 #
face $-1 $-1 $171 $36 $-1 $172 forward single #
loop $-1 $173 $174 $68 #
cone-surface $-1 63.028621230137148 -0.46656282338119226 4.141654148744454 -0.87461971476443456 0 -0.48480960649040278 0.24240480324520139 0 -0.43730985738221728 1 I I -0.70710678118654724 0.70710678118654791 0.5 forward I I I I #
loop $-1 $-1 $175 $46 #
coedge $-1 $110 $110 $176 $177 reversed $69 $-1 #
face $-1 $178 $179 $37 $-1 $180 reversed single #
loop $-1 $-1 $181 $71 #
plane-surface $-1 2.08551627729166 20.146712130913141 122.26599367433325 0.87461971476443456 0 0.48480960649040278 0.48480960649040278 0 -0.87461971476443456 forward_v I I I I #
coedge $-1 $182 $183 $184 $185 reversed $72 $-1 #
face $-1 $-1 $186 $38 $-1 $187 forward single #
loop $-1 $188 $189 $74 #
cone-surface $-1 63.028621230137148 18.203608798032793 4.141654148744454 -0.87461971476443456 0 -0.48480960649040278 0.24240480324520139 0 -0.43730985738221728 1 I I -0.70710678118654724 0.70710678118654791 0.5 forward I I I I #
loop $-1 $-1 $190 $48 #
coedge $-1 $119 $119 $191 $192 reversed $75 $-1 #
face $-1 $-1 $193 $39 $-1 $194 forward single #
loop $-1 $195 $196 $77 #
cone-surface $-1 63.028621230137148 22.089815463793474 4.141654148744454 -0.87461971476443456 0 -0.48480960649040278 0.24240480324520139 0 -0.43730985738221728 1 I I -0.70710678118654724 0.70710678118654791 0.5 forward I I I I #
loop $-1 $-1 $197 $49 #
coedge $-1 $124 $124 $198 $199 reversed $78 $-1 #
face $-1 $200 $201 $30 $-1 $202 reversed single #
loop $-1 $-1 $203 $80 #
plane-surface $-1 0 -29.049068486972988 0 0 1 0 0 0 1 forward_v I I I I #
coedge $-1 $204 $205 $206 $207 forward $81 $-1 #
coedge $-1 $208 $83 $209 $210 forward $51 $-1 #
coedge $-1 $83 $208 $211 $212 forward $51 $-1 #
coedge $-1 $213 $214 $83 $132 reversed $215 $-1 #
edge $-1 $216 -29.049068486972988 $217 29.049068486972988 $131 $218 forward 7 unknown #
face $-1 $219 $220 $31 $-1 $221 reversed single #
loop $-1 $-1 $222 $84 #
plane-surface $-1 0 -16.063688087376345 -6.2951493298748655 0 -1 0 0 0 -1 forward_v I I I I #
coedge $-1 $223 $224 $225 $226 reversed $85 $-1 #
coedge $-1 $227 $87 $228 $229 forward $54 $-1 #
coedge $-1 $87 $227 $230 $231 reversed $54 $-1 #
coedge $-1 $232 $233 $87 $140 forward $234 $-1 #
edge $-1 $235 4.7854989437890119 $236 17.770879343385655 $139 $237 forward 7 unknown #
face $-1 $238 $239 $32 $-1 $240 reversed single #
loop $-1 $-1 $241 $88 #
plane-surface $-1 -178.29199157431853 6.8007295079763388 87.434481111617245 0 -1 0 0.79863551827123203 0 -0.60181501223851219 forward_v I I I I #
coedge $-1 $242 $243 $244 $245 reversed $89 $-1 #
coedge $-1 $146 $91 $246 $247 reversed $57 $-1 #
coedge $-1 $91 $145 $242 $248 reversed $57 $-1 #
coedge $-1 $244 $249 $91 $148 forward $250 $-1 #
edge $-1 $251 20.500102052609265 $252 24.366200774805449 $147 $253 forward 7 unknown #
loop $-1 $-1 $154 $92 #
plane-surface $-1 -68.645893734550015 1.3007966282537495 4.8102223556536075 -0.79863551827123203 0 0.60181501223851219 0.60181501223851219 0 0.79863551827123203 forward_v I I I I #
loop $-1 $-1 $254 $59 #
coedge $-1 $152 $152 $153 $255 reversed $93 $-1 #
coedge $-1 $153 $153 $152 $255 forward $95 $-1 #
coedge $-1 $154 $154 $96 $155 forward $149 $-1 #
edge $-1 $256 0 $256 6.2831853071796004 $154 $257 forward 7 unknown #
face $-1 $258 $259 $34 $-1 $260 forward single #
loop $-1 $-1 $261 $97 #
plane-surface $-1 122.16362027301527 -6.9435739329823285 188.82637113159163 0 1 0 0.87461971476443456 0 0.48480960649040278 forward_v I I I I #
coedge $-1 $262 $263 $264 $265 reversed $98 $-1 #
coedge $-1 $161 $100 $266 $267 reversed $63 $-1 #
coedge $-1 $100 $160 $262 $268 reversed $63 $-1 #
coedge $-1 $264 $269 $100 $163 forward $259 $-1 #
edge $-1 $270 -7.564083598042366 $271 -3.2666259493434566 $162 $272 forward 7 unknown #
loop $-1 $-1 $169 $101 #
plane-surface $-1 2.08551627729166 -2.4096661562615296 122.26599367433325 0.87461971476443456 0 0.48480960649040278 0.48480960649040278 0 -0.87461971476443456 forward_v I I I I #
loop $-1 $-1 $273 $65 #
coedge $-1 $167 $167 $168 $274 reversed $102 $-1 #
coedge $-1 $168 $168 $167 $274 forward $104 $-1 #
coedge $-1 $169 $169 $105 $170 forward $164 $-1 #
edge $-1 $275 0 $275 6.2831853071796004 $169 $276 forward 7 unknown #
loop $-1 $-1 $176 $106 #
plane-surface $-1 2.08551627729166 -2.4096661562615296 122.26599367433325 0.87461971476443456 0 0.48480960649040278 0.48480960649040278 0 -0.87461971476443456 forward_v I I I I #
loop $-1 $-1 $277 $68 #
coedge $-1 $174 $174 $175 $278 reversed $107 $-1 #
coedge $-1 $175 $175 $174 $278 forward $109 $-1 #
coedge $-1 $176 $176 $110 $177 forward $171 $-1 #
edge $-1 $279 0 $279 6.2831853071796004 $176 $280 forward 7 unknown #
face $-1 $281 $282 $37 $-1 $283 reversed single #
loop $-1 $-1 $284 $111 #
plane-surface $-1 122.16362027301527 15.612804354192342 188.82637113159163 0 1 0 0.87461971476443456 0 0.48480960649040278 forward_v I I I I #
coedge $-1 $285 $286 $287 $288 reversed $112 $-1 #
coedge $-1 $183 $114 $289 $290 reversed $72 $-1 #
coedge $-1 $114 $182 $285 $291 reversed $72 $-1 #
coedge $-1 $287 $292 $114 $185 forward $293 $-1 #
edge $-1 $294 -7.564083598042366 $295 -3.2666259493434566 $184 $296 forward 7 unknown #
loop $-1 $-1 $191 $115 #
plane-surface $-1 2.08551627729166 20.146712130913141 122.26599367433325 0.87461971476443456 0 0.48480960649040278 0.48480960649040278 0 -0.87461971476443456 forward_v I I I I #
loop $-1 $-1 $297 $74 #
coedge $-1 $189 $189 $190 $298 reversed $116 $-1 #
coedge $-1 $190 $190 $189 $298 forward $118 $-1 #
coedge $-1 $191 $191 $119 $192 forward $186 $-1 #
edge $-1 $299 0 $299 6.2831853071796004 $191 $300 forward 7 unknown #
loop $-1 $-1 $198 $120 #
plane-surface $-1 2.08551627729166 20.146712130913141 122.26599367433325 0.87461971476443456 0 0.48480960649040278 0.48480960649040278 0 -0.87461971476443456 forward_v I I I I #
loop $-1 $-1 $301 $77 #
coedge $-1 $196 $196 $197 $302 reversed $121 $-1 #
coedge $-1 $197 $197 $196 $302 forward $123 $-1 #
coedge $-1 $198 $198 $124 $199 forward $193 $-1 #
edge $-1 $303 0 $303 6.2831853071796004 $198 $304 forward 7 unknown #
face $-1 $305 $306 $30 $-1 $307 reversed single #
loop $-1 $-1 $308 $125 #
plane-surface $-1 -68.64589373455 0 0 1 0 0 0 0 -1 forward_v I I I I #
coedge $-1 $309 $211 $310 $311 forward $126 $-1 #
coedge $-1 $312 $128 $309 $313 forward $81 $-1 #
coedge $-1 $128 $312 $314 $315 forward $81 $-1 #
coedge $-1 $214 $213 $128 $207 reversed $215 $-1 #
edge $-1 $316 -29.049068486972988 $317 29.049068486972988 $206 $318 forward 7 unknown #
coedge $-1 $130 $129 $319 $320 forward $51 $-1 #
coedge $-1 $321 $322 $129 $210 reversed $306 $-1 #
edge $-1 $217 -68.64589373455 $323 68.64589373455 $209 $324 forward 7 unknown #
coedge $-1 $203 $325 $130 $212 reversed $126 $-1 #
edge $-1 $326 -68.64589373455 $216 68.64589373455 $211 $327 forward 7 unknown #
coedge $-1 $206 $131 $325 $328 forward $215 $-1 #
coedge $-1 $131 $206 $321 $329 reversed $215 $-1 #
loop $-1 $-1 $213 $305 #
vertex $-1 $132 $330 #
vertex $-1 $132 $331 #
straight-curve $-1 68.64589373455 0 9.9407087906866103 0 1 0 I I #
face $-1 $332 $333 $31 $-1 $334 reversed single #
loop $-1 $-1 $335 $133 #
plane-surface $-1 -68.64589373455 0 0 1 0 0 0 0 -1 forward_v I I I I #
coedge $-1 $336 $228 $233 $337 reversed $134 $-1 #
coedge $-1 $338 $136 $339 $340 reversed $85 $-1 #
coedge $-1 $136 $338 $336 $341 forward $85 $-1 #
coedge $-1 $233 $232 $136 $226 forward $234 $-1 #
edge $-1 $342 -17.770879343385655 $343 -4.7854989437890119 $225 $344 forward 7 unknown #
coedge $-1 $138 $137 $335 $345 reversed $54 $-1 #
coedge $-1 $222 $346 $137 $229 reversed $134 $-1 #
edge $-1 $235 -68.64589373455 $347 68.64589373455 $228 $348 forward 7 unknown #
coedge $-1 $349 $350 $138 $231 forward $333 $-1 #
edge $-1 $236 -68.64589373455 $351 68.64589373455 $230 $352 forward 7 unknown #
coedge $-1 $225 $139 $350 $353 forward $234 $-1 #
coedge $-1 $139 $225 $222 $337 forward $234 $-1 #
loop $-1 $-1 $139 $332 #
vertex $-1 $140 $354 #
vertex $-1 $353 $355 #
straight-curve $-1 68.64589373455 -11.278189143587333 -4.316503228500399 0 -1 0 I I #
face $-1 $-1 $250 $32 $-1 $356 forward single #
loop $-1 $-1 $357 $141 #
plane-surface $-1 -68.64589373455 0 0 1 0 0 0 0 -1 forward_v I I I I #
coedge $-1 $358 $359 $360 $361 reversed $142 $-1 #
coedge $-1 $362 $144 $146 $248 forward $89 $-1 #
coedge $-1 $144 $362 $358 $363 forward $89 $-1 #
coedge $-1 $360 $147 $144 $245 forward $250 $-1 #
edge $-1 $252 -4.8495345655957145 $364 6.150331193849464 $244 $365 forward 7 unknown #
coedge $-1 $366 $367 $145 $247 forward $239 $-1 #
edge $-1 $368 -38.907018200154994 $251 -33.776531765122016 $246 $369 forward 7 unknown #
edge $-1 $252 -6.4240649428399097 $368 -2.3448253187574213e-014 $146 $370 forward 7 unknown #
coedge $-1 $147 $360 $366 $371 forward $250 $-1 #
loop $-1 $-1 $360 $238 #
vertex $-1 $247 $372 #
vertex $-1 $148 $373 #
straight-curve $-1 -89.145995787159265 -4.1991362514688397 9.9407087906866067 1 0 0 I I #
coedge $-1 $254 $254 $-1 $374 reversed $151 $-1 #
edge $-1 $375 0 $375 6.2831853071796004 $152 $376 forward 7 unknown #
vertex $-1 $155 $377 #
ellipse-curve $-1 -66.712844373451915 1.3007966282537495 7.3754655731701178 -0.79863551827123203 0 0.60181501223851219 0.3009075061192561 0 0.39931775913561601 1 I I #
face $-1 $-1 $378 $34 $-1 $379 reversed single #
loop $-1 $-1 $162 $156 #
plane-surface $-1 0 0 9.9407087906866103 0 0 1 1 0 0 forward_v I I I I #
coedge $-1 $380 $381 $382 $383 reversed $157 $-1 #
coedge $-1 $384 $159 $161 $268 forward $98 $-1 #
coedge $-1 $159 $384 $380 $385 forward $98 $-1 #
coedge $-1 $382 $162 $159 $265 forward $259 $-1 #
edge $-1 $271 -3.3290746985900341 $386 5.7387408548515637 $264 $387 forward 7 unknown #
coedge $-1 $388 $389 $160 $267 forward $378 $-1 #
edge $-1 $390 -92.225295887186107 $270 -84.4724767751092 $266 $391 forward 7 unknown #
edge $-1 $271 128.42757027710007 $390 137.29178746909992 $161 $392 forward 7 unknown #
coedge $-1 $162 $382 $388 $393 forward $259 $-1 #
vertex $-1 $267 $394 #
vertex $-1 $163 $395 #
straight-curve $-1 61.081810136507634 2.1242416204592693 9.9407087906866138 -1 0 0 I I #
coedge $-1 $273 $273 $-1 $396 reversed $166 $-1 #
edge $-1 $397 0 $397 6.2831853071796004 $167 $398 forward 7 unknown #
vertex $-1 $170 $399 #
ellipse-curve $-1 66.497164910200567 -4.352769489141874 6.0642992346481357 0.87461971476443456 0 0.48480960649040278 0.48480960649040278 0 -0.87461971476443456 1 I I #
coedge $-1 $277 $277 $-1 $400 reversed $173 $-1 #
edge $-1 $401 0 $401 6.2831853071796004 $174 $402 forward 7 unknown #
vertex $-1 $177 $403 #
ellipse-curve $-1 66.497164910200567 -0.46656282338119226 6.0642992346481357 0.87461971476443456 0 0.48480960649040278 0.48480960649040278 0 -0.87461971476443456 1 I I #
face $-1 $-1 $293 $37 $-1 $404 forward single #
loop $-1 $-1 $405 $178 #
plane-surface $-1 68.64589373455 0 0 -1 0 0 0 0 1 forward_v I I I I #
coedge $-1 $406 $407 $408 $409 reversed $179 $-1 #
coedge $-1 $410 $181 $183 $291 forward $112 $-1 #
coedge $-1 $181 $410 $406 $411 forward $112 $-1 #
coedge $-1 $408 $184 $181 $288 forward $293 $-1 #
edge $-1 $295 -14.607263842177369 $412 -5.5394482887357714 $287 $413 forward 7 unknown #
coedge $-1 $414 $415 $182 $290 forward $282 $-1 #
edge $-1 $416 -92.225295887186107 $294 -84.4724767751092 $289 $417 forward 7 unknown #
edge $-1 $295 128.42757027710007 $416 137.29178746909992 $183 $418 forward 7 unknown #
coedge $-1 $184 $408 $414 $419 forward $293 $-1 #
loop $-1 $-1 $408 $281 #
vertex $-1 $290 $420 #
vertex $-1 $185 $421 #
straight-curve $-1 61.081810136507634 24.68061990763394 9.9407087906866138 -1 0 0 I I #
coedge $-1 $297 $297 $-1 $422 reversed $188 $-1 #
edge $-1 $423 0 $423 6.2831853071796004 $189 $424 forward 7 unknown #
vertex $-1 $192 $425 #
ellipse-curve $-1 66.497164910200567 18.203608798032793 6.0642992346481357 0.87461971476443456 0 0.48480960649040278 0.48480960649040278 0 -0.87461971476443456 1 I I #
coedge $-1 $301 $301 $-1 $426 reversed $195 $-1 #
edge $-1 $427 0 $427 6.2831853071796004 $196 $428 forward 7 unknown #
vertex $-1 $199 $429 #
ellipse-curve $-1 66.497164910200567 22.089815463793474 6.0642992346481357 0.87461971476443456 0 0.48480960649040278 0.48480960649040278 0 -0.87461971476443456 1 I I #
face $-1 $-1 $215 $30 $-1 $430 reversed single #
loop $-1 $-1 $321 $200 #
plane-surface $-1 0 29.049068486972988 0 0 -1 0 0 0 -1 forward_v I I I I #
coedge $-1 $431 $319 $322 $432 forward $201 $-1 #
coedge $-1 $325 $203 $204 $313 reversed $126 $-1 #
coedge $-1 $319 $431 $203 $311 reversed $201 $-1 #
edge $-1 $326 -9.9407087906866103 $433 9.9407087906866103 $310 $434 forward 7 unknown #
coedge $-1 $205 $204 $431 $435 forward $81 $-1 #
edge $-1 $317 -68.64589373455 $433 68.64589373455 $309 $436 forward 7 unknown #
coedge $-1 $322 $321 $205 $315 reversed $306 $-1 #
edge $-1 $437 -68.64589373455 $316 68.64589373455 $314 $438 forward 7 unknown #
vertex $-1 $207 $439 #
vertex $-1 $328 $440 #
straight-curve $-1 68.64589373455 0 -9.9407087906866103 0 -1 0 I I #
coedge $-1 $308 $310 $208 $320 reversed $201 $-1 #
edge $-1 $323 -29.049068486972988 $326 29.049068486972988 $319 $441 forward 7 unknown #
coedge $-1 $314 $209 $214 $329 forward $306 $-1 #
coedge $-1 $209 $314 $308 $432 reversed $306 $-1 #
vertex $-1 $210 $442 #
straight-curve $-1 0 29.049068486972988 9.9407087906866103 -1 0 0 I I #
coedge $-1 $211 $309 $213 $328 reversed $126 $-1 #
vertex $-1 $320 $443 #
straight-curve $-1 0 -29.049068486972988 9.9407087906866103 1 0 0 I I #
edge $-1 $216 -9.9407087906866103 $317 9.9407087906866103 $213 $444 forward 7 unknown #
edge $-1 $217 -9.9407087906866103 $316 9.9407087906866103 $214 $445 forward 7 unknown #
point $-1 68.64589373455 -29.049068486972988 9.9407087906866103 #
point $-1 68.64589373455 29.049068486972988 9.9407087906866103 #
face $-1 $-1 $234 $31 $-1 $446 reversed single #
loop $-1 $-1 $230 $219 #
plane-surface $-1 0 -29.049068486972988 0 0 1 0 0 0 1 forward_v I I I I #
coedge $-1 $447 $448 $227 $345 forward $220 $-1 #
coedge $-1 $346 $222 $224 $341 reversed $134 $-1 #
edge $-1 $343 -5.1262207663119002 $235 -1.1689285635629663 $233 $449 forward 7 unknown #
coedge $-1 $224 $223 $450 $451 reversed $85 $-1 #
coedge $-1 $350 $349 $223 $340 forward $333 $-1 #
edge $-1 $452 -68.64589373455 $342 68.64589373455 $339 $453 forward 7 unknown #
edge $-1 $454 -68.64589373455 $343 68.64589373455 $336 $455 forward 7 unknown #
vertex $-1 $340 $456 #
vertex $-1 $226 $457 #
straight-curve $-1 68.64589373455 -11.278189143587333 -8.2737954312493329 0 1 0 I I #
edge $-1 $351 -17.770879343385655 $347 -4.7854989437890119 $335 $458 forward 7 unknown #
coedge $-1 $228 $336 $447 $459 reversed $134 $-1 #
vertex $-1 $345 $460 #
straight-curve $-1 0 -16.063688087376345 -4.316503228500399 -1 0 0 I I #
coedge $-1 $339 $230 $448 $461 forward $333 $-1 #
coedge $-1 $230 $339 $232 $353 reversed $333 $-1 #
vertex $-1 $461 $462 #
straight-curve $-1 0 -29.049068486972988 -4.316503228500399 -1 0 0 I I #
edge $-1 $236 4.316503228500399 $342 8.2737954312493329 $232 $463 forward 7 unknown #
point $-1 68.64589373455 -16.063688087376345 -4.316503228500399 #
point $-1 68.64589373455 -29.049068486972988 -4.316503228500399 #
plane-surface $-1 0 0 9.9407087906866103 0 0 1 1 0 0 forward_v I I I I #
coedge $-1 $367 $366 $359 $464 forward $239 $-1 #
coedge $-1 $359 $241 $243 $363 reversed $142 $-1 #
coedge $-1 $241 $358 $357 $464 reversed $142 $-1 #
coedge $-1 $249 $244 $241 $361 forward $250 $-1 #
edge $-1 $364 -24.366200774805449 $465 -20.500102052609265 $360 $466 forward 7 unknown #
coedge $-1 $243 $242 $367 $467 reversed $89 $-1 #
edge $-1 $468 2.3448253187574213e-014 $364 6.4240649428399097 $358 $469 forward 7 unknown #
vertex $-1 $245 $470 #
straight-curve $-1 -64.779795012353816 0.65039831412687477 9.9407087906866121 0 1 0 I I #
coedge $-1 $357 $246 $249 $371 reversed $239 $-1 #
coedge $-1 $246 $357 $362 $467 forward $239 $-1 #
vertex $-1 $247 $471 #
straight-curve $-1 -68.64589373455 -4.1991362514688397 43.717240555808623 0 0 1 I I #
straight-curve $-1 -68.645893734550015 -4.1991362514688397 4.8102223556536075 -0.60181501223851219 0 -0.79863551827123203 I I #
edge $-1 $465 -6.8007295079763388 $251 4.1991362514688397 $366 $472 forward 7 unknown #
point $-1 -68.64589373455 -4.1991362514688397 9.9407087906866103 #
point $-1 -64.779795012353816 -4.1991362514688397 9.9407087906866103 #
edge $-1 $473 1 $473 0 $254 $-1 forward 7 unknown #
vertex $-1 $255 $474 #
ellipse-curve $-1 -65.914208855180675 1.3007966282537495 6.7736505609316016 -0.79863551827123203 0 0.60181501223851219 0.3009075061192561 0 0.39931775913561601 1 I I #
point $-1 -66.411936867332656 1.3007966282537495 7.7747833323057298 #
loop $-1 $-1 $266 $258 #
plane-surface $-1 68.64589373455 0 0 -1 0 0 0 0 1 forward_v I I I I #
coedge $-1 $381 $261 $263 $385 reversed $157 $-1 #
coedge $-1 $261 $380 $475 $476 reversed $157 $-1 #
coedge $-1 $269 $264 $261 $383 forward $259 $-1 #
edge $-1 $386 3.2666259493434566 $477 7.564083598042366 $382 $478 forward 7 unknown #
coedge $-1 $263 $262 $389 $479 reversed $98 $-1 #
edge $-1 $480 -137.29178746909992 $386 -128.42757027710007 $380 $481 forward 7 unknown #
vertex $-1 $265 $482 #
straight-curve $-1 64.348436085851091 -1.2048330781307648 9.9407087906866138 0 -1 0 I I #
coedge $-1 $475 $266 $269 $393 reversed $378 $-1 #
coedge $-1 $266 $475 $384 $479 forward $378 $-1 #
vertex $-1 $267 $483 #
straight-curve $-1 68.64589373455 2.1242416204592693 94.413185565795814 0 0 1 I I #
straight-curve $-1 2.08551627729166 2.1242416204592693 122.26599367433325 0.48480960649040278 0 -0.87461971476443456 I I #
edge $-1 $477 -6.9435739329823285 $270 2.1242416204592693 $388 $484 forward 7 unknown #
point $-1 68.64589373455 2.1242416204592693 9.9407087906866103 #
point $-1 64.348436085851091 2.1242416204592693 9.9407087906865996 #
edge $-1 $485 1 $485 0 $273 $-1 forward 7 unknown #
vertex $-1 $274 $486 #
ellipse-curve $-1 63.465931087519365 -4.352769489141874 4.3840589519896556 0.87461971476443456 0 0.48480960649040278 0.48480960649040278 0 -0.87461971476443456 1 I I #
point $-1 66.981974516690926 -4.352769489141874 5.1896795198836765 #
edge $-1 $487 1 $487 0 $277 $-1 forward 7 unknown #
vertex $-1 $278 $488 #
ellipse-curve $-1 63.465931087519365 -0.46656282338119226 4.3840589519896556 0.87461971476443456 0 0.48480960649040278 0.48480960649040278 0 -0.87461971476443456 1 I I #
point $-1 66.981974516690926 -0.46656282338119226 5.1896795198836765 #
plane-surface $-1 0 0 9.9407087906866103 0 0 1 1 0 0 forward_v I I I I #
coedge $-1 $415 $414 $407 $489 forward $282 $-1 #
coedge $-1 $407 $284 $286 $411 reversed $179 $-1 #
coedge $-1 $284 $406 $405 $489 reversed $179 $-1 #
coedge $-1 $292 $287 $284 $409 forward $293 $-1 #
edge $-1 $412 3.2666259493434566 $490 7.564083598042366 $408 $491 forward 7 unknown #
coedge $-1 $286 $285 $415 $492 reversed $112 $-1 #
edge $-1 $493 -137.29178746909992 $412 -128.42757027710007 $406 $494 forward 7 unknown #
vertex $-1 $288 $495 #
straight-curve $-1 64.348436085851091 10.07335606545657 9.9407087906866138 0 -1 0 I I #
coedge $-1 $405 $289 $292 $419 reversed $282 $-1 #
coedge $-1 $289 $405 $410 $492 forward $282 $-1 #
vertex $-1 $290 $496 #
straight-curve $-1 68.64589373455 24.68061990763394 94.413185565795814 0 0 1 I I #
straight-curve $-1 2.08551627729166 24.68061990763394 122.26599367433325 0.48480960649040278 0 -0.87461971476443456 I I #
edge $-1 $490 15.612804354192342 $294 24.68061990763394 $414 $497 forward 7 unknown #
point $-1 68.64589373455 24.68061990763394 9.9407087906866103 #
point $-1 64.348436085851091 24.68061990763394 9.9407087906865996 #
edge $-1 $498 1 $498 0 $297 $-1 forward 7 unknown #
vertex $-1 $298 $499 #
ellipse-curve $-1 63.465931087519365 18.203608798032793 4.3840589519896556 0.87461971476443456 0 0.48480960649040278 0.48480960649040278 0 -0.87461971476443456 1 I I #
point $-1 66.981974516690926 18.203608798032793 5.1896795198836765 #
edge $-1 $500 1 $500 0 $301 $-1 forward 7 unknown #
vertex $-1 $302 $501 #
ellipse-curve $-1 63.465931087519365 22.089815463793474 4.3840589519896556 0.87461971476443456 0 0.48480960649040278 0.48480960649040278 0 -0.87461971476443456 1 I I #
point $-1 66.981974516690926 22.089815463793474 5.1896795198836765 #
plane-surface $-1 68.64589373455 0 0 -1 0 0 0 0 1 forward_v I I I I #
coedge $-1 $310 $308 $312 $435 reversed $201 $-1 #
edge $-1 $323 -9.9407087906866103 $437 9.9407087906866103 $322 $502 forward 7 unknown #
vertex $-1 $435 $503 #
straight-curve $-1 -68.64589373455 -29.049068486972988 0 0 0 -1 I I #
edge $-1 $433 -29.049068486972988 $437 29.049068486972988 $431 $504 forward 7 unknown #
straight-curve $-1 0 -29.049068486972988 -9.9407087906866103 -1 0 0 I I #
vertex $-1 $315 $505 #
straight-curve $-1 0 29.049068486972988 -9.9407087906866103 1 0 0 I I #
point $-1 68.64589373455 29.049068486972988 -9.9407087906866103 #
point $-1 68.64589373455 -29.049068486972988 -9.9407087906866103 #
straight-curve $-1 -68.64589373455 0 9.9407087906866103 0 -1 0 I I #
point $-1 -68.64589373455 29.049068486972988 9.9407087906866103 #
point $-1 -68.64589373455 -29.049068486972988 9.9407087906866103 #
straight-curve $-1 68.64589373455 -29.049068486972988 0 0 0 -1 I I #
straight-curve $-1 68.64589373455 29.049068486972988 0 0 0 -1 I I #
plane-surface $-1 68.64589373455 0 0 -1 0 0 0 0 1 forward_v I I I I #
coedge $-1 $450 $335 $346 $459 forward $220 $-1 #
coedge $-1 $335 $450 $349 $461 reversed $220 $-1 #
straight-curve $-1 68.64589373455 -16.063688087376345 -3.1475746649374328 0 0 1 I I #
coedge $-1 $448 $447 $338 $451 forward $220 $-1 #
edge $-1 $454 4.7854989437890119 $452 17.770879343385655 $450 $506 forward 7 unknown #
vertex $-1 $340 $507 #
straight-curve $-1 0 -29.049068486972988 -8.2737954312493329 1 0 0 I I #
vertex $-1 $451 $508 #
straight-curve $-1 0 -16.063688087376345 -8.2737954312493329 1 0 0 I I #
point $-1 68.64589373455 -29.049068486972988 -8.2737954312493329 #
point $-1 68.64589373455 -16.063688087376345 -8.2737954312493329 #
straight-curve $-1 -68.64589373455 -11.278189143587333 -4.316503228500399 0 1 0 I I #
edge $-1 $347 1.1689285635629663 $454 5.1262207663119002 $447 $509 forward 7 unknown #
point $-1 -68.64589373455 -16.063688087376345 -4.316503228500399 #
edge $-1 $351 4.316503228500399 $452 8.2737954312493329 $448 $510 forward 7 unknown #
point $-1 -68.64589373455 -29.049068486972988 -4.316503228500399 #
straight-curve $-1 68.64589373455 -29.049068486972988 0 0 0 -1 I I #
edge $-1 $465 33.776531765122016 $468 38.907018200154994 $357 $511 forward 7 unknown #
vertex $-1 $371 $512 #
straight-curve $-1 -89.145995787159265 6.8007295079763388 9.9407087906866067 -1 0 0 I I #
edge $-1 $468 -6.150331193849464 $368 4.8495345655957145 $367 $513 forward 7 unknown #
vertex $-1 $467 $514 #
straight-curve $-1 -68.645893734550015 6.8007295079763388 4.8102223556536075 0.60181501223851219 0 0.79863551827123203 I I #
point $-1 -64.779795012353816 6.8007295079763388 9.9407087906866103 #
point $-1 -68.64589373455 -4.1991362514688397 4.8102223556536261 #
straight-curve $-1 -68.64589373455 0 9.9407087906866103 0 -1 0 I I #
vertex $-1 $374 $515 #
point $-1 -65.613301349061416 1.3007966282537495 7.1729683200672181 #
coedge $-1 $389 $388 $381 $476 forward $378 $-1 #
edge $-1 $477 84.4724767751092 $480 92.225295887186107 $475 $516 forward 7 unknown #
vertex $-1 $393 $517 #
straight-curve $-1 61.081810136507634 -6.9435739329823285 9.9407087906866138 1 0 0 I I #
edge $-1 $480 -5.7387408548515637 $390 3.3290746985900341 $389 $518 forward 7 unknown #
vertex $-1 $479 $519 #
straight-curve $-1 2.08551627729166 -6.9435739329823285 122.26599367433325 -0.48480960649040278 0 0.87461971476443456 I I #
point $-1 64.348436085851091 -6.9435739329823285 9.9407087906865996 #
point $-1 68.64589373455 2.1242416204592693 2.1878896786097073 #
straight-curve $-1 68.64589373455 0 9.9407087906866103 0 1 0 I I #
vertex $-1 $396 $520 #
point $-1 63.950740694009767 -4.352769489141874 3.5094392372252212 #
vertex $-1 $400 $521 #
point $-1 63.950740694009767 -0.46656282338119226 3.5094392372252212 #
edge $-1 $490 84.4724767751092 $493 92.225295887186107 $405 $522 forward 7 unknown #
vertex $-1 $419 $523 #
straight-curve $-1 61.081810136507634 15.612804354192342 9.9407087906866138 1 0 0 I I #
edge $-1 $493 5.5394482887357714 $416 14.607263842177369 $415 $524 forward 7 unknown #
vertex $-1 $492 $525 #
straight-curve $-1 2.08551627729166 15.612804354192342 122.26599367433325 -0.48480960649040278 0 0.87461971476443456 I I #
point $-1 64.348436085851091 15.612804354192342 9.9407087906865996 #
point $-1 68.64589373455 24.68061990763394 2.1878896786097073 #
straight-curve $-1 68.64589373455 0 9.9407087906866103 0 1 0 I I #
vertex $-1 $422 $526 #
point $-1 63.950740694009767 18.203608798032793 3.5094392372252212 #
vertex $-1 $426 $527 #
point $-1 63.950740694009767 22.089815463793474 3.5094392372252212 #
straight-curve $-1 -68.64589373455 29.049068486972988 0 0 0 -1 I I #
point $-1 -68.64589373455 -29.049068486972988 -9.9407087906866103 #
straight-curve $-1 -68.64589373455 0 -9.9407087906866103 0 1 0 I I #
point $-1 -68.64589373455 29.049068486972988 -9.9407087906866103 #
straight-curve $-1 -68.64589373455 -11.278189143587333 -8.2737954312493329 0 -1 0 I I #
point $-1 -68.64589373455 -29.049068486972988 -8.2737954312493329 #
point $-1 -68.64589373455 -16.063688087376345 -8.2737954312493329 #
straight-curve $-1 -68.64589373455 -16.063688087376345 -3.1475746649374328 0 0 -1 I I #
straight-curve $-1 -68.64589373455 -29.049068486972988 0 0 0 -1 I I #
straight-curve $-1 -68.64589373455 6.8007295079763388 43.717240555808623 0 0 -1 I I #
point $-1 -68.64589373455 6.8007295079763388 9.9407087906866103 #
straight-curve $-1 -68.64589373455 0.65039831412687477 4.8102223556536394 0 -1 0 I I #
point $-1 -68.64589373455 6.8007295079763388 4.8102223556536261 #
point $-1 -65.514891096045062 1.3007966282537495 6.4727430548123461 #
straight-curve $-1 68.64589373455 -6.9435739329823285 94.413185565795814 0 0 -1 I I #
point $-1 68.64589373455 -6.9435739329823285 9.9407087906866103 #
straight-curve $-1 68.64589373455 -1.2048330781307648 2.1878896786097215 0 1 0 I I #
point $-1 68.64589373455 -6.9435739329823285 2.1878896786097073 #
point $-1 62.59131137275493 -4.352769489141874 3.8992493454992525 #
point $-1 62.59131137275493 -0.46656282338119226 3.8992493454992525 #
straight-curve $-1 68.64589373455 15.612804354192342 94.413185565795814 0 0 -1 I I #
point $-1 68.64589373455 15.612804354192342 9.9407087906866103 #
straight-curve $-1 68.64589373455 10.07335606545657 2.1878896786097215 0 1 0 I I #
point $-1 68.64589373455 15.612804354192342 2.1878896786097073 #
point $-1 62.59131137275493 18.203608798032793 3.8992493454992525 #
point $-1 62.59131137275493 22.089815463793474 3.8992493454992525 #
End-of-ACIS-data 