500 0 6 0           
7 Unknown 11 ACIS 5.0 NT 24 Fri Mar 26 15:30:33 1999 
-1 9.9999999999999995e-007 1e-010 
body $-1 $6 $-1 $7 #
body $-1 $8 $-1 $9 #
body $-1 $10 $-1 $11 #
body $-1 $12 $-1 $13 #
body $-1 $14 $-1 $15 #
body $-1 $16 $-1 $17 #
lump $-1 $-1 $18 $0 #
transform $-1 1 0 0 0 1 0 0 0 1 73.533738212225714 43.750184227082244 18.055779940270188 1 rotate no_reflect no_shear #
lump $-1 $-1 $19 $1 #
transform $-1 1 0 0 0 1 0 0 0 1 73.533738212225714 43.750184227082244 18.055779940270188 1 rotate no_reflect no_shear #
lump $-1 $-1 $20 $2 #
transform $-1 1 0 0 0 1 0 0 0 1 73.533738212225714 43.750184227082244 18.055779940270188 1 rotate no_reflect no_shear #
lump $-1 $-1 $21 $3 #
transform $-1 1 0 0 0 1 0 0 0 1 73.533738212225714 43.750184227082244 18.055779940270188 1 rotate no_reflect no_shear #
lump $-1 $-1 $22 $4 #
transform $-1 1 0 0 0 1 0 0 0 1 73.533738212225714 43.750184227082244 18.055779940270188 1 rotate no_reflect no_shear #
lump $-1 $-1 $23 $5 #
transform $-1 1 0 0 0 1 0 0 0 1 73.533738212225714 43.750184227082244 18.055779940270188 1 rotate no_reflect no_shear #
shell $-1 $-1 $-1 $24 $-1 $6 #
shell $-1 $-1 $-1 $25 $-1 $8 #
shell $-1 $-1 $-1 $26 $-1 $10 #
shell $-1 $-1 $-1 $27 $-1 $12 #
shell $-1 $-1 $-1 $28 $-1 $14 #
shell $-1 $-1 $-1 $29 $-1 $16 #
face $-1 $30 $31 $18 $-1 $32 forward single #
face $-1 $33 $34 $19 $-1 $35 reversed single #
face $-1 $36 $37 $20 $-1 $38 reversed single #
face $-1 $39 $40 $21 $-1 $41 forward single #
face $-1 $42 $43 $22 $-1 $44 reversed single #
face $-1 $45 $46 $23 $-1 $47 forward single #
face $-1 $48 $49 $18 $-1 $50 reversed single #
loop $-1 $-1 $51 $24 #
plane-surface $-1 0 0 18.055779940270188 0 0 1 1 0 0 forward_v I I I I #
face $-1 $52 $53 $19 $-1 $54 reversed single #
loop $-1 $-1 $55 $25 #
plane-surface $-1 0 -33.963099598586396 11.945347378312849 0 0 1 1 0 0 forward_v I I I I #
face $-1 $56 $57 $20 $-1 $58 reversed single #
loop $-1 $-1 $59 $26 #
plane-surface $-1 -159.97783305076734 0.81034521434387585 121.6933161250308 0 1 0 -0.5877852598018023 0 0.80901698891910034 forward_v I I I I #
face $-1 $60 $61 $21 $-1 $62 forward single #
loop $-1 $63 $64 $27 #
cone-surface $-1 -61.810559354980406 5.2987149214198581 8.7816055478819397 0.5877852598018023 0 -0.80901698891910034 1.6180339778382007 0 1.1755705196036046 1 I I 0 1 2 forward I I I I #
face $-1 $65 $66 $22 $-1 $67 reversed single #
loop $-1 $-1 $68 $28 #
plane-surface $-1 -159.97783305076734 34.773444812930272 121.6933161250308 0 1 0 -0.5877852598018023 0 0.80901698891910034 forward_v I I I I #
face $-1 $69 $70 $23 $-1 $71 forward single #
loop $-1 $72 $73 $29 #
cone-surface $-1 -61.810559354980406 39.261814520006254 8.7816055478819397 0.5877852598018023 0 -0.80901698891910034 1.6180339778382007 0 1.1755705196036046 1 I I 0 1 2 forward I I I I #
face $-1 $74 $75 $18 $-1 $76 reversed single #
loop $-1 $-1 $77 $30 #
plane-surface $-1 0 0 -18.055779940270188 0 0 1 1 0 0 forward_v I I I I #
coedge $-1 $78 $79 $80 $81 forward $31 $-1 #
face $-1 $82 $83 $19 $-1 $84 reversed single #
loop $-1 $-1 $85 $33 #
plane-surface $-1 0 -24.176014970090552 15.000563659291519 0 -1 0 0 0 -1 forward_v I I I I #
coedge $-1 $86 $87 $88 $89 reversed $34 $-1 #
face $-1 $90 $91 $20 $-1 $92 reversed single #
loop $-1 $-1 $93 $36 #
plane-surface $-1 -73.533738212225728 5.2987149214198581 2.7132291801903392 -0.5877852598018023 0 0.80901698891910034 0.80901698891910034 0 0.5877852598018023 forward_v I I I I #
coedge $-1 $94 $95 $96 $97 reversed $37 $-1 #
face $-1 $-1 $98 $21 $-1 $99 forward single #
loop $-1 $100 $101 $39 #
cone-surface $-1 -60.058199771877938 5.2987149214198581 6.3696895466145342 0.5877852598018023 0 -0.80901698891910034 0.80901698891910034 0 0.5877852598018023 1 I I -0.70710678118654779 0.70710678118654713 1 forward I I I I #
loop $-1 $-1 $102 $27 #
coedge $-1 $64 $64 $103 $104 reversed $40 $-1 #
face $-1 $105 $106 $22 $-1 $107 forward single #
loop $-1 $-1 $108 $42 #
plane-surface $-1 -73.533738212225728 39.261814520006254 2.7132291801903392 -0.5877852598018023 0 0.80901698891910034 0.80901698891910034 0 0.5877852598018023 forward_v I I I I #
coedge $-1 $109 $110 $111 $112 reversed $43 $-1 #
face $-1 $-1 $113 $23 $-1 $114 forward single #
loop $-1 $115 $116 $45 #
cone-surface $-1 -60.058199771877938 39.261814520006254 6.3696895466145342 0.5877852598018023 0 -0.80901698891910034 0.80901698891910034 0 0.5877852598018023 1 I I -0.70710678118654779 0.70710678118654713 1 forward I I I I #
loop $-1 $-1 $117 $29 #
coedge $-1 $73 $73 $118 $119 reversed $46 $-1 #
face $-1 $120 $121 $18 $-1 $122 reversed single #
loop $-1 $-1 $123 $48 #
plane-surface $-1 0 -43.750184227082244 0 0 1 0 0 0 1 forward_v I I I I #
coedge $-1 $124 $125 $126 $127 forward $49 $-1 #
coedge $-1 $128 $51 $129 $130 forward $31 $-1 #
coedge $-1 $51 $128 $131 $132 forward $31 $-1 #
coedge $-1 $133 $134 $51 $81 reversed $135 $-1 #
edge $-1 $136 -43.750184227082244 $137 43.750184227082244 $80 $138 forward 7 unknown #
face $-1 $139 $140 $19 $-1 $141 reversed single #
loop $-1 $-1 $142 $52 #
plane-surface $-1 -73.533738212225714 0 0 1 0 0 0 0 -1 forward_v I I I I #
coedge $-1 $143 $144 $145 $146 reversed $53 $-1 #
coedge $-1 $147 $55 $148 $149 reversed $34 $-1 #
coedge $-1 $55 $147 $143 $150 forward $34 $-1 #
coedge $-1 $145 $151 $55 $89 forward $152 $-1 #
edge $-1 $153 -26.768634427789046 $154 -7.1944651707973541 $88 $155 forward 7 unknown #
face $-1 $156 $157 $20 $-1 $158 forward single #
loop $-1 $-1 $159 $56 #
plane-surface $-1 -159.97783305076734 9.7870846284958404 121.6933161250308 0 -1 0 0.5877852598018023 0 -0.80901698891910034 forward_v I I I I #
coedge $-1 $160 $161 $162 $163 reversed $57 $-1 #
coedge $-1 $95 $59 $164 $165 reversed $37 $-1 #
coedge $-1 $59 $94 $160 $166 reversed $37 $-1 #
coedge $-1 $162 $167 $59 $97 forward $157 $-1 #
edge $-1 $168 6.4551783131579583 $169 27.572387381047193 $96 $170 forward 7 unknown #
loop $-1 $-1 $103 $60 #
plane-surface $-1 -73.533738212225728 5.2987149214198581 2.7132291801903392 -0.5877852598018023 0 0.80901698891910034 0.80901698891910034 0 0.5877852598018023 forward_v I I I I #
loop $-1 $-1 $171 $39 #
coedge $-1 $101 $101 $102 $172 reversed $61 $-1 #
coedge $-1 $102 $102 $101 $172 forward $63 $-1 #
coedge $-1 $103 $103 $64 $104 forward $98 $-1 #
edge $-1 $173 0 $173 6.2831853071796004 $103 $174 forward 7 unknown #
face $-1 $175 $176 $22 $-1 $177 reversed single #
loop $-1 $-1 $111 $65 #
plane-surface $-1 0 0 18.055779940270188 0 0 1 1 0 0 forward_v I I I I #
coedge $-1 $178 $179 $180 $181 reversed $66 $-1 #
coedge $-1 $110 $68 $182 $183 reversed $43 $-1 #
coedge $-1 $68 $109 $178 $184 reversed $43 $-1 #
coedge $-1 $180 $185 $68 $112 forward $106 $-1 #
edge $-1 $186 6.4551783131579583 $187 27.572387381047193 $111 $188 forward 7 unknown #
loop $-1 $-1 $118 $69 #
plane-surface $-1 -73.533738212225728 39.261814520006254 2.7132291801903392 -0.5877852598018023 0 0.80901698891910034 0.80901698891910034 0 0.5877852598018023 forward_v I I I I #
loop $-1 $-1 $189 $45 #
coedge $-1 $116 $116 $117 $190 reversed $70 $-1 #
coedge $-1 $117 $117 $116 $190 forward $72 $-1 #
coedge $-1 $118 $118 $73 $119 forward $113 $-1 #
edge $-1 $191 0 $191 6.2831853071796004 $118 $192 forward 7 unknown #
face $-1 $193 $194 $18 $-1 $195 reversed single #
loop $-1 $-1 $196 $74 #
plane-surface $-1 -73.533738212225714 0 0 1 0 0 0 0 -1 forward_v I I I I #
coedge $-1 $197 $131 $198 $199 forward $75 $-1 #
coedge $-1 $200 $77 $197 $201 forward $49 $-1 #
coedge $-1 $77 $200 $202 $203 forward $49 $-1 #
coedge $-1 $134 $133 $77 $127 reversed $135 $-1 #
edge $-1 $204 -43.750184227082244 $205 43.750184227082244 $126 $206 forward 7 unknown #
coedge $-1 $79 $78 $207 $208 forward $31 $-1 #
coedge $-1 $209 $210 $78 $130 reversed $194 $-1 #
edge $-1 $137 -73.533738212225714 $211 73.533738212225714 $129 $212 forward 7 unknown #
coedge $-1 $123 $213 $79 $132 reversed $75 $-1 #
edge $-1 $214 -73.533738212225714 $136 73.533738212225714 $131 $215 forward 7 unknown #
coedge $-1 $126 $80 $213 $216 forward $135 $-1 #
coedge $-1 $80 $126 $209 $217 reversed $135 $-1 #
loop $-1 $-1 $133 $193 #
vertex $-1 $81 $218 #
vertex $-1 $81 $219 #
straight-curve $-1 73.533738212225714 0 18.055779940270188 0 1 0 I I #
face $-1 $220 $221 $19 $-1 $222 forward single #
loop $-1 $-1 $148 $82 #
plane-surface $-1 0 -43.750184227082244 0 0 1 0 0 0 1 forward_v I I I I #
coedge $-1 $223 $224 $225 $226 forward $83 $-1 #
coedge $-1 $225 $85 $87 $150 reversed $53 $-1 #
coedge $-1 $85 $225 $227 $228 reversed $53 $-1 #
coedge $-1 $229 $88 $85 $146 forward $152 $-1 #
edge $-1 $154 4.44506554866709 $230 10.555498110624429 $145 $231 forward 7 unknown #
coedge $-1 $87 $86 $223 $232 reversed $34 $-1 #
coedge $-1 $233 $234 $86 $149 forward $140 $-1 #
edge $-1 $235 -73.533738212225714 $153 73.533738212225714 $148 $236 forward 7 unknown #
edge $-1 $237 -73.533738212225714 $154 73.533738212225714 $143 $238 forward 7 unknown #
coedge $-1 $88 $229 $233 $239 forward $152 $-1 #
loop $-1 $-1 $145 $220 #
vertex $-1 $149 $240 #
vertex $-1 $89 $241 #
straight-curve $-1 73.533738212225714 -16.981549799293198 11.945347378312849 0 1 0 I I #
face $-1 $-1 $242 $20 $-1 $243 reversed single #
loop $-1 $-1 $96 $90 #
plane-surface $-1 0 0 18.055779940270188 0 0 1 1 0 0 forward_v I I I I #
coedge $-1 $244 $245 $246 $247 reversed $91 $-1 #
coedge $-1 $248 $93 $95 $166 forward $57 $-1 #
coedge $-1 $93 $248 $244 $249 forward $57 $-1 #
coedge $-1 $246 $96 $93 $163 forward $157 $-1 #
edge $-1 $169 -1.8390122463660532 $250 7.1377271677859113 $162 $251 forward 7 unknown #
coedge $-1 $252 $253 $94 $165 forward $242 $-1 #
edge $-1 $254 -58.133428882325056 $168 -42.790878122245218 $164 $255 forward 7 unknown #
edge $-1 $169 -26.102306079014753 $254 -1.7500491998158137e-014 $95 $256 forward 7 unknown #
coedge $-1 $96 $246 $252 $257 forward $157 $-1 #
vertex $-1 $165 $258 #
vertex $-1 $97 $259 #
straight-curve $-1 -79.988916525383672 0.81034521434387585 18.055779940270185 1 0 0 I I #
coedge $-1 $171 $171 $-1 $260 reversed $100 $-1 #
edge $-1 $261 0 $261 6.2831853071796004 $101 $262 forward 7 unknown #
vertex $-1 $104 $263 #
ellipse-curve $-1 -62.97513367828109 5.2987149214198581 10.384504560230276 -0.5877852598018023 0 0.80901698891910034 1.6180339778382007 0 1.1755705196036046 1 I I #
face $-1 $-1 $264 $22 $-1 $265 reversed single #
loop $-1 $-1 $266 $105 #
plane-surface $-1 0 43.750184227082244 0 0 -1 0 0 0 -1 forward_v I I I I #
coedge $-1 $267 $108 $110 $184 forward $66 $-1 #
coedge $-1 $108 $267 $266 $268 reversed $66 $-1 #
coedge $-1 $269 $111 $108 $181 forward $106 $-1 #
edge $-1 $187 15.142537552927145 $270 24.119276967079109 $180 $271 forward 7 unknown #
coedge $-1 $272 $273 $109 $183 forward $264 $-1 #
edge $-1 $274 -58.133428882325056 $186 -42.790878122245218 $182 $275 forward 7 unknown #
edge $-1 $187 -26.102306079014753 $274 -1.7500491998158137e-014 $110 $276 forward 7 unknown #
coedge $-1 $111 $269 $272 $277 forward $106 $-1 #
vertex $-1 $183 $278 #
vertex $-1 $112 $279 #
straight-curve $-1 -79.988916525383672 34.773444812930272 18.055779940270185 1 0 0 I I #
coedge $-1 $189 $189 $-1 $280 reversed $115 $-1 #
edge $-1 $281 0 $281 6.2831853071796004 $116 $282 forward 7 unknown #
vertex $-1 $119 $283 #
ellipse-curve $-1 -62.97513367828109 39.261814520006254 10.384504560230276 -0.5877852598018023 0 0.80901698891910034 1.6180339778382007 0 1.1755705196036046 1 I I #
face $-1 $-1 $135 $18 $-1 $284 reversed single #
loop $-1 $-1 $209 $120 #
plane-surface $-1 0 43.750184227082244 0 0 -1 0 0 0 -1 forward_v I I I I #
coedge $-1 $285 $207 $210 $286 forward $121 $-1 #
coedge $-1 $213 $123 $124 $201 reversed $75 $-1 #
coedge $-1 $207 $285 $123 $199 reversed $121 $-1 #
edge $-1 $214 -18.055779940270188 $287 18.055779940270188 $198 $288 forward 7 unknown #
coedge $-1 $125 $124 $285 $289 forward $49 $-1 #
edge $-1 $205 -73.533738212225714 $287 73.533738212225714 $197 $290 forward 7 unknown #
coedge $-1 $210 $209 $125 $203 reversed $194 $-1 #
edge $-1 $291 -73.533738212225714 $204 73.533738212225714 $202 $292 forward 7 unknown #
vertex $-1 $127 $293 #
vertex $-1 $216 $294 #
straight-curve $-1 73.533738212225714 0 -18.055779940270188 0 -1 0 I I #
coedge $-1 $196 $198 $128 $208 reversed $121 $-1 #
edge $-1 $211 -43.750184227082244 $214 43.750184227082244 $207 $295 forward 7 unknown #
coedge $-1 $202 $129 $134 $217 forward $194 $-1 #
coedge $-1 $129 $202 $196 $286 reversed $194 $-1 #
vertex $-1 $130 $296 #
straight-curve $-1 0 43.750184227082244 18.055779940270188 -1 0 0 I I #
coedge $-1 $131 $197 $133 $216 reversed $75 $-1 #
vertex $-1 $208 $297 #
straight-curve $-1 0 -43.750184227082244 18.055779940270188 1 0 0 I I #
edge $-1 $136 -18.055779940270188 $205 18.055779940270188 $133 $298 forward 7 unknown #
edge $-1 $137 -18.055779940270188 $204 18.055779940270188 $134 $299 forward 7 unknown #
point $-1 73.533738212225714 -43.750184227082244 18.055779940270188 #
point $-1 73.533738212225714 43.750184227082244 18.055779940270188 #
face $-1 $-1 $152 $19 $-1 $300 reversed single #
loop $-1 $-1 $227 $139 #
plane-surface $-1 0 0 18.055779940270188 0 0 1 1 0 0 forward_v I I I I #
coedge $-1 $301 $142 $147 $232 forward $83 $-1 #
coedge $-1 $142 $301 $302 $303 reversed $83 $-1 #
coedge $-1 $144 $143 $142 $226 reversed $53 $-1 #
edge $-1 $304 -10.555498110624429 $237 -4.44506554866709 $142 $305 forward 7 unknown #
coedge $-1 $302 $306 $144 $228 forward $221 $-1 #
edge $-1 $230 -73.533738212225714 $304 73.533738212225714 $227 $307 forward 7 unknown #
coedge $-1 $151 $145 $306 $308 reversed $152 $-1 #
vertex $-1 $146 $309 #
straight-curve $-1 73.533738212225714 -24.176014970090552 7.5002818296457594 0 0 1 I I #
edge $-1 $237 7.1944651707973541 $235 26.768634427789046 $223 $310 forward 7 unknown #
coedge $-1 $311 $148 $151 $239 reversed $140 $-1 #
coedge $-1 $148 $311 $301 $312 forward $140 $-1 #
vertex $-1 $149 $313 #
straight-curve $-1 0 -43.750184227082244 11.945347378312849 1 0 0 I I #
vertex $-1 $232 $314 #
straight-curve $-1 0 -24.176014970090552 11.945347378312849 1 0 0 I I #
edge $-1 $315 -18.055779940270188 $153 -11.945347378312849 $151 $316 forward 7 unknown #
point $-1 73.533738212225714 -43.750184227082244 11.945347378312849 #
point $-1 73.533738212225714 -24.176014970090552 11.945347378312849 #
loop $-1 $-1 $164 $156 #
plane-surface $-1 -73.533738212225714 0 0 1 0 0 0 0 -1 forward_v I I I I #
coedge $-1 $245 $159 $161 $249 reversed $91 $-1 #
coedge $-1 $159 $244 $317 $318 reversed $91 $-1 #
coedge $-1 $167 $162 $159 $247 forward $157 $-1 #
edge $-1 $250 -27.572387381047193 $319 -6.4551783131579583 $246 $320 forward 7 unknown #
coedge $-1 $161 $160 $253 $321 reversed $57 $-1 #
edge $-1 $322 1.7500491998158137e-014 $250 26.102306079014753 $244 $323 forward 7 unknown #
vertex $-1 $163 $324 #
straight-curve $-1 -52.416529144336486 2.6493574607099291 18.055779940270188 0 1 0 I I #
coedge $-1 $317 $164 $167 $257 reversed $242 $-1 #
coedge $-1 $164 $317 $248 $321 forward $242 $-1 #
vertex $-1 $165 $325 #
straight-curve $-1 -73.533738212225714 0.81034521434387585 60.846658062515402 0 0 1 I I #
straight-curve $-1 -73.533738212225728 0.81034521434387585 2.7132291801903392 -0.80901698891910034 0 -0.5877852598018023 I I #
edge $-1 $319 -9.7870846284958404 $168 -0.81034521434387585 $252 $326 forward 7 unknown #
point $-1 -73.533738212225714 0.81034521434387585 18.055779940270188 #
point $-1 -52.416529144336479 0.81034521434387585 18.055779940270188 #
edge $-1 $327 1 $327 0 $171 $-1 forward 7 unknown #
vertex $-1 $172 $328 #
ellipse-curve $-1 -60.645985031679743 5.2987149214198581 7.1787065355336335 -0.5877852598018023 0 0.80901698891910034 1.6180339778382007 0 1.1755705196036046 1 I I #
point $-1 -61.357099700442866 5.2987149214198581 11.560075079833851 #
loop $-1 $-1 $182 $175 #
plane-surface $-1 -73.533738212225714 0 0 1 0 0 0 0 -1 forward_v I I I I #
coedge $-1 $329 $330 $179 $268 forward $176 $-1 #
coedge $-1 $179 $178 $273 $331 reversed $66 $-1 #
edge $-1 $270 2.8453175979053609 $332 28.947623676920095 $266 $333 forward 7 unknown #
coedge $-1 $185 $180 $330 $334 forward $106 $-1 #
vertex $-1 $334 $335 #
straight-curve $-1 -52.416529144336486 19.630907260003127 18.055779940270188 0 1 0 I I #
coedge $-1 $336 $182 $185 $277 reversed $264 $-1 #
coedge $-1 $182 $336 $267 $331 forward $264 $-1 #
vertex $-1 $183 $337 #
straight-curve $-1 -73.533738212225714 34.773444812930272 60.846658062515402 0 0 1 I I #
straight-curve $-1 -73.533738212225728 34.773444812930272 2.7132291801903392 -0.80901698891910034 0 -0.5877852598018023 I I #
edge $-1 $338 -43.750184227082244 $186 -34.773444812930272 $272 $339 forward 7 unknown #
point $-1 -73.533738212225714 34.773444812930272 18.055779940270188 #
point $-1 -52.416529144336479 34.773444812930272 18.055779940270188 #
edge $-1 $340 1 $340 0 $189 $-1 forward 7 unknown #
vertex $-1 $190 $341 #
ellipse-curve $-1 -60.645985031679743 39.261814520006254 7.1787065355336335 -0.5877852598018023 0 0.80901698891910034 1.6180339778382007 0 1.1755705196036046 1 I I #
point $-1 -61.357099700442866 39.261814520006254 11.560075079833851 #
plane-surface $-1 73.533738212225714 0 0 -1 0 0 0 0 1 forward_v I I I I #
coedge $-1 $198 $196 $200 $289 reversed $121 $-1 #
edge $-1 $211 -18.055779940270188 $291 18.055779940270188 $210 $342 forward 7 unknown #
vertex $-1 $289 $343 #
straight-curve $-1 -73.533738212225714 -43.750184227082244 0 0 0 -1 I I #
edge $-1 $287 -43.750184227082244 $291 43.750184227082244 $285 $344 forward 7 unknown #
straight-curve $-1 0 -43.750184227082244 -18.055779940270188 -1 0 0 I I #
vertex $-1 $203 $345 #
straight-curve $-1 0 43.750184227082244 -18.055779940270188 1 0 0 I I #
point $-1 73.533738212225714 43.750184227082244 -18.055779940270188 #
point $-1 73.533738212225714 -43.750184227082244 -18.055779940270188 #
straight-curve $-1 -73.533738212225714 0 18.055779940270188 0 -1 0 I I #
point $-1 -73.533738212225714 43.750184227082244 18.055779940270188 #
point $-1 -73.533738212225714 -43.750184227082244 18.055779940270188 #
straight-curve $-1 73.533738212225714 -43.750184227082244 0 0 0 -1 I I #
straight-curve $-1 73.533738212225714 43.750184227082244 0 0 0 -1 I I #
plane-surface $-1 73.533738212225714 0 0 -1 0 0 0 0 1 forward_v I I I I #
coedge $-1 $224 $223 $234 $312 reversed $83 $-1 #
coedge $-1 $346 $227 $224 $303 forward $221 $-1 #
edge $-1 $304 24.176014970090552 $347 43.750184227082244 $224 $348 forward 7 unknown #
vertex $-1 $303 $349 #
straight-curve $-1 -73.533738212225714 -24.176014970090552 7.5002818296457594 0 0 -1 I I #
coedge $-1 $227 $346 $229 $308 forward $221 $-1 #
straight-curve $-1 0 -24.176014970090552 18.055779940270188 -1 0 0 I I #
edge $-1 $315 -43.750184227082244 $230 -24.176014970090552 $229 $350 forward 7 unknown #
point $-1 73.533738212225714 -24.176014970090552 18.055779940270188 #
straight-curve $-1 -73.533738212225714 -16.981549799293198 11.945347378312849 0 -1 0 I I #
coedge $-1 $234 $233 $346 $351 reversed $140 $-1 #
edge $-1 $347 -18.055779940270188 $235 -11.945347378312849 $301 $352 forward 7 unknown #
point $-1 -73.533738212225714 -43.750184227082244 11.945347378312849 #
point $-1 -73.533738212225714 -24.176014970090552 11.945347378312849 #
vertex $-1 $308 $353 #
straight-curve $-1 73.533738212225714 -43.750184227082244 0 0 0 -1 I I #
coedge $-1 $253 $252 $245 $318 forward $242 $-1 #
edge $-1 $319 42.790878122245218 $322 58.133428882325056 $317 $354 forward 7 unknown #
vertex $-1 $257 $355 #
straight-curve $-1 -79.988916525383672 9.7870846284958404 18.055779940270185 -1 0 0 I I #
edge $-1 $322 -7.1377271677859113 $254 1.8390122463660532 $253 $356 forward 7 unknown #
vertex $-1 $321 $357 #
straight-curve $-1 -73.533738212225728 9.7870846284958404 2.7132291801903392 0.80901698891910034 0 0.5877852598018023 I I #
point $-1 -52.416529144336479 9.7870846284958404 18.055779940270188 #
point $-1 -73.533738212225714 0.81034521434387585 2.7132291801903494 #
straight-curve $-1 -73.533738212225714 0 18.055779940270188 0 -1 0 I I #
vertex $-1 $260 $358 #
point $-1 -59.027951053841541 5.2987149214198581 8.3542770551372385 #
coedge $-1 $330 $266 $336 $359 reversed $176 $-1 #
coedge $-1 $266 $329 $269 $334 reversed $176 $-1 #
edge $-1 $332 -24.119276967079109 $274 -15.142537552927145 $273 $360 forward 7 unknown #
vertex $-1 $268 $361 #
straight-curve $-1 -50.114618868760559 43.750184227082244 19.728215683773634 -0.80901698891910034 0 -0.5877852598018023 I I #
edge $-1 $270 52.416529144336479 $338 73.533738212225714 $330 $362 forward 7 unknown #
point $-1 -52.416529144336479 43.750184227082237 18.055779940270188 #
coedge $-1 $273 $272 $329 $359 forward $264 $-1 #
point $-1 -73.533738212225714 34.773444812930272 2.7132291801903494 #
vertex $-1 $334 $363 #
straight-curve $-1 -73.533738212225714 0 18.055779940270188 0 -1 0 I I #
vertex $-1 $280 $364 #
point $-1 -59.027951053841541 39.261814520006254 8.3542770551372385 #
straight-curve $-1 -73.533738212225714 43.750184227082244 0 0 0 -1 I I #
point $-1 -73.533738212225714 -43.750184227082244 -18.055779940270188 #
straight-curve $-1 -73.533738212225714 0 -18.055779940270188 0 1 0 I I #
point $-1 -73.533738212225714 43.750184227082244 -18.055779940270188 #
coedge $-1 $306 $302 $311 $351 forward $221 $-1 #
vertex $-1 $303 $365 #
straight-curve $-1 -73.533738212225714 0 18.055779940270188 0 -1 0 I I #
point $-1 -73.533738212225714 -24.176014970090552 18.055779940270188 #
straight-curve $-1 73.533738212225714 0 18.055779940270188 0 1 0 I I #
edge $-1 $347 -73.533738212225714 $315 73.533738212225714 $311 $366 forward 7 unknown #
straight-curve $-1 -73.533738212225714 -43.750184227082244 0 0 0 -1 I I #
point $-1 73.533738212225714 -43.750184227082244 18.055779940270188 #
straight-curve $-1 -73.533738212225714 9.7870846284958404 60.846658062515402 0 0 -1 I I #
point $-1 -73.533738212225714 9.7870846284958404 18.055779940270188 #
straight-curve $-1 -73.533738212225714 2.6493574607099291 2.7132291801903516 0 -1 0 I I #
point $-1 -73.533738212225714 9.7870846284958404 2.7132291801903494 #
point $-1 -59.470414512076132 5.2987149214198581 5.560672557695435 #
edge $-1 $338 -18.055779940270188 $332 -2.7132291801903494 $329 $367 forward 7 unknown #
straight-curve $-1 -73.533738212225714 19.630907260003127 2.7132291801903516 0 -1 0 I I #
point $-1 -73.533738212225714 43.750184227082237 2.7132291801903494 #
straight-curve $-1 0 43.750184227082244 18.055779940270188 -1 0 0 I I #
point $-1 -73.533738212225714 43.750184227082244 18.055779940270188 #
point $-1 -59.470414512076132 39.261814520006254 5.560672557695435 #
point $-1 -73.533738212225714 -43.750184227082244 18.055779940270188 #
straight-curve $-1 0 -43.750184227082244 18.055779940270188 1 0 0 I I #
straight-curve $-1 -73.533738212225714 43.750184227082244 0 0 0 -1 I I #
End-of-ACIS-data 