500 0 11 0           
7 Unknown 11 ACIS 5.0 NT 24 Thu Mar 25 22:55:56 1999 
-1 9.9999999999999995e-007 1e-010 
body $-1 $11 $-1 $12 #
body $-1 $13 $-1 $14 #
body $-1 $15 $-1 $16 #
body $-1 $17 $-1 $18 #
body $-1 $19 $-1 $20 #
body $-1 $21 $-1 $22 #
body $-1 $23 $-1 $24 #
body $-1 $25 $-1 $26 #
body $-1 $27 $-1 $28 #
body $-1 $29 $-1 $30 #
body $-1 $31 $-1 $32 #
lump $-1 $-1 $33 $0 #
transform $-1 1 0 0 0 1 0 0 0 1 68.134403515732288 46.83197962286377 17.79863913814042 1 rotate no_reflect no_shear #
lump $-1 $-1 $34 $1 #
transform $-1 1 0 0 0 1 0 0 0 1 68.134403515732288 46.83197962286377 17.79863913814042 1 rotate no_reflect no_shear #
lump $-1 $-1 $35 $2 #
transform $-1 1 0 0 0 1 0 0 0 1 68.134403515732288 46.83197962286377 17.79863913814042 1 rotate no_reflect no_shear #
lump $-1 $-1 $36 $3 #
transform $-1 1 0 0 0 1 0 0 0 1 68.134403515732288 46.83197962286377 17.79863913814042 1 rotate no_reflect no_shear #
lump $-1 $-1 $37 $4 #
transform $-1 1 0 0 0 1 0 0 0 1 68.134403515732288 46.83197962286377 17.79863913814042 1 rotate no_reflect no_shear #
lump $-1 $-1 $38 $5 #
transform $-1 1 0 0 0 1 0 0 0 1 68.134403515732288 46.83197962286377 17.79863913814042 1 rotate no_reflect no_shear #
lump $-1 $-1 $39 $6 #
transform $-1 1 0 0 0 1 0 0 0 1 68.134403515732288 46.83197962286377 17.79863913814042 1 rotate no_reflect no_shear #
lump $-1 $-1 $40 $7 #
transform $-1 1 0 0 0 1 0 0 0 1 68.134403515732288 46.83197962286377 17.79863913814042 1 rotate no_reflect no_shear #
lump $-1 $-1 $41 $8 #
transform $-1 1 0 0 0 1 0 0 0 1 68.134403515732288 46.83197962286377 17.79863913814042 1 rotate no_reflect no_shear #
lump $-1 $-1 $42 $9 #
transform $-1 1 0 0 0 1 0 0 0 1 68.134403515732288 46.83197962286377 17.79863913814042 1 rotate no_reflect no_shear #
lump $-1 $-1 $43 $10 #
transform $-1 1 0 0 0 1 0 0 0 1 68.134403515732288 46.83197962286377 17.79863913814042 1 rotate no_reflect no_shear #
shell $-1 $-1 $-1 $44 $-1 $11 #
shell $-1 $-1 $-1 $45 $-1 $13 #
shell $-1 $-1 $-1 $46 $-1 $15 #
shell $-1 $-1 $-1 $47 $-1 $17 #
shell $-1 $-1 $-1 $48 $-1 $19 #
shell $-1 $-1 $-1 $49 $-1 $21 #
shell $-1 $-1 $-1 $50 $-1 $23 #
shell $-1 $-1 $-1 $51 $-1 $25 #
shell $-1 $-1 $-1 $52 $-1 $27 #
shell $-1 $-1 $-1 $53 $-1 $29 #
shell $-1 $-1 $-1 $54 $-1 $31 #
face $-1 $55 $56 $33 $-1 $57 reversed single #
face $-1 $58 $59 $34 $-1 $60 forward single #
face $-1 $61 $62 $35 $-1 $63 reversed single #
face $-1 $64 $65 $36 $-1 $66 forward single #
face $-1 $67 $68 $37 $-1 $69 forward single #
face $-1 $70 $71 $38 $-1 $72 reversed single #
face $-1 $73 $74 $39 $-1 $75 forward single #
face $-1 $76 $77 $40 $-1 $78 forward single #
face $-1 $79 $80 $41 $-1 $81 reversed single #
face $-1 $82 $83 $42 $-1 $84 forward single #
face $-1 $85 $86 $43 $-1 $87 forward single #
face $-1 $88 $89 $33 $-1 $90 forward single #
loop $-1 $-1 $91 $44 #
plane-surface $-1 0 -46.83197962286377 0 0 1 0 0 0 1 forward_v I I I I #
face $-1 $92 $93 $34 $-1 $94 reversed single #
loop $-1 $-1 $95 $45 #
plane-surface $-1 0 -46.83197962286377 0 0 1 0 0 0 1 forward_v I I I I #
face $-1 $96 $97 $35 $-1 $98 reversed single #
loop $-1 $-1 $99 $46 #
plane-surface $-1 -150.1430198124913 -7.4109300615187337 114.72200709437836 0 1 0 -0.6018150307709319 0 0.79863550430605224 forward_v I I I I #
face $-1 $100 $101 $36 $-1 $102 forward single #
loop $-1 $103 $104 $47 #
cone-surface $-1 -58.624699077566383 -2.3682309476694812 9.7092543016675155 0.6018150307709319 0 -0.79863550430605224 1.1979532564590785 0 0.90272254615639791 1 I I 0 1 1.5 forward I I I I #
face $-1 $105 $106 $37 $-1 $107 forward single #
loop $-1 $108 $109 $48 #
cone-surface $-1 -58.624699077566383 5.1958177231043976 9.7092543016675155 0.6018150307709319 0 -0.79863550430605224 1.1979532564590785 0 0.90272254615639791 1 I I 0 1 1.5 forward I I I I #
face $-1 $110 $111 $38 $-1 $112 reversed single #
loop $-1 $-1 $113 $49 #
plane-surface $-1 -68.134403515732274 1.4137933877174618 5.8928996696205331 -0.6018150307709319 0 0.79863550430605224 0.79863550430605224 0 0.6018150307709319 forward_v I I I I #
face $-1 $114 $115 $39 $-1 $116 forward single #
loop $-1 $117 $118 $50 #
cone-surface $-1 -58.624699077566383 15.28121595080291 9.7092543016675155 0.6018150307709319 0 -0.79863550430605224 1.1979532564590785 0 0.90272254615639791 1 I I 0 1 1.5 forward I I I I #
face $-1 $119 $120 $40 $-1 $121 forward single #
loop $-1 $122 $123 $51 #
cone-surface $-1 -58.624699077566383 22.845264621576788 9.7092543016675155 0.6018150307709319 0 -0.79863550430605224 1.1979532564590785 0 0.90272254615639791 1 I I 0 1 1.5 forward I I I I #
face $-1 $124 $125 $41 $-1 $126 reversed single #
loop $-1 $-1 $127 $52 #
plane-surface $-1 94.954899072140222 -5.8631875133760047 204.18978363199719 0 -1 0 -0.79863551827123203 0 -0.60181501223851219 forward_v I I I I #
face $-1 $128 $129 $42 $-1 $130 forward single #
loop $-1 $131 $132 $53 #
cone-surface $-1 65.364387289933973 -20.500157824504896 14.750473715325148 -0.79863551827123203 0 -0.60181501223851219 0.60181501223851219 0 -0.79863551827123203 1 I I 0 1 1 forward I I I I #
face $-1 $133 $134 $43 $-1 $135 forward single #
loop $-1 $136 $137 $54 #
cone-surface $-1 65.364387289933973 -11.717975637827564 14.750473715325148 -0.79863551827123203 0 -0.60181501223851219 0.60181501223851219 0 -0.79863551827123203 1 I I 0 1 1 forward I I I I #
face $-1 $138 $139 $33 $-1 $140 reversed single #
loop $-1 $-1 $141 $55 #
plane-surface $-1 0 0 17.79863913814042 0 0 1 1 0 0 forward_v I I I I #
coedge $-1 $142 $143 $144 $145 reversed $56 $-1 #
face $-1 $146 $147 $34 $-1 $148 reversed single #
loop $-1 $-1 $149 $58 #
plane-surface $-1 0 0 -17.79863913814042 0 0 1 1 0 0 forward_v I I I I #
coedge $-1 $150 $151 $152 $153 forward $59 $-1 #
face $-1 $154 $155 $35 $-1 $156 reversed single #
loop $-1 $-1 $157 $61 #
plane-surface $-1 -68.134403515732274 1.4137933877174618 5.8928996696205331 -0.6018150307709319 0 0.79863550430605224 0.79863550430605224 0 0.6018150307709319 forward_v I I I I #
coedge $-1 $158 $159 $160 $161 reversed $62 $-1 #
face $-1 $-1 $162 $36 $-1 $163 forward single #
loop $-1 $164 $165 $64 #
cone-surface $-1 -56.563358164153897 -2.3682309476694812 6.9737625712250164 0.6018150307709319 0 -0.79863550430605224 0.59897662822953923 0 0.45136127307819895 1 I I -0.70710678118654757 0.70710678118654757 0.75 forward I I I I #
loop $-1 $-1 $166 $47 #
coedge $-1 $104 $104 $167 $168 reversed $65 $-1 #
face $-1 $-1 $169 $37 $-1 $170 forward single #
loop $-1 $171 $172 $67 #
cone-surface $-1 -56.563358164153897 5.1958177231043976 6.9737625712250164 0.6018150307709319 0 -0.79863550430605224 0.59897662822953923 0 0.45136127307819895 1 I I -0.70710678118654757 0.70710678118654757 0.75 forward I I I I #
loop $-1 $-1 $173 $48 #
coedge $-1 $109 $109 $174 $175 reversed $68 $-1 #
face $-1 $176 $177 $38 $-1 $178 forward single #
loop $-1 $-1 $179 $70 #
plane-surface $-1 -150.1430198124913 27.887963735426048 114.72200709437836 0 -1 0 0.6018150307709319 0 -0.79863550430605224 forward_v I I I I #
coedge $-1 $180 $181 $182 $183 reversed $71 $-1 #
face $-1 $-1 $184 $39 $-1 $185 forward single #
loop $-1 $186 $187 $73 #
cone-surface $-1 -56.563358164153897 15.28121595080291 6.9737625712250164 0.6018150307709319 0 -0.79863550430605224 0.59897662822953923 0 0.45136127307819895 1 I I -0.70710678118654757 0.70710678118654757 0.75 forward I I I I #
loop $-1 $-1 $188 $50 #
coedge $-1 $118 $118 $189 $190 reversed $74 $-1 #
face $-1 $-1 $191 $40 $-1 $192 forward single #
loop $-1 $193 $194 $76 #
cone-surface $-1 -56.563358164153897 22.845264621576788 6.9737625712250164 0.6018150307709319 0 -0.79863550430605224 0.59897662822953923 0 0.45136127307819895 1 I I -0.70710678118654757 0.70710678118654757 0.75 forward I I I I #
loop $-1 $-1 $195 $51 #
coedge $-1 $123 $123 $196 $197 reversed $77 $-1 #
face $-1 $198 $199 $41 $-1 $200 reversed single #
loop $-1 $-1 $201 $79 #
plane-surface $-1 -13.874210255636001 -16.10906673116623 122.18116986062888 0.79863551827123203 0 0.60181501223851219 0.60181501223851219 0 -0.79863551827123203 forward_v I I I I #
coedge $-1 $202 $203 $204 $205 reversed $80 $-1 #
face $-1 $-1 $206 $42 $-1 $207 forward single #
loop $-1 $208 $209 $82 #
cone-surface $-1 63.870421915923714 -20.500157824504896 13.624690089034498 -0.79863551827123203 0 -0.60181501223851219 0.3009075061192561 0 -0.39931775913561601 1 I I -0.70710678118654746 0.70710678118654746 0.5 forward I I I I #
loop $-1 $-1 $210 $53 #
coedge $-1 $132 $132 $211 $212 reversed $83 $-1 #
face $-1 $-1 $213 $43 $-1 $214 forward single #
loop $-1 $215 $216 $85 #
cone-surface $-1 63.870421915923714 -11.717975637827564 13.624690089034498 -0.79863551827123203 0 -0.60181501223851219 0.3009075061192561 0 -0.39931775913561601 1 I I -0.70710678118654746 0.70710678118654746 0.5 forward I I I I #
loop $-1 $-1 $217 $54 #
coedge $-1 $137 $137 $218 $219 reversed $86 $-1 #
face $-1 $220 $221 $33 $-1 $222 reversed single #
loop $-1 $-1 $223 $88 #
plane-surface $-1 0 0 -17.79863913814042 0 0 1 1 0 0 forward_v I I I I #
coedge $-1 $224 $225 $226 $227 forward $89 $-1 #
coedge $-1 $228 $91 $229 $230 reversed $56 $-1 #
coedge $-1 $91 $228 $231 $232 forward $56 $-1 #
coedge $-1 $233 $223 $91 $145 forward $139 $-1 #
edge $-1 $234 -68.134403515732288 $235 68.134403515732288 $91 $236 forward 7 unknown #
face $-1 $237 $238 $34 $-1 $239 reversed single #
loop $-1 $-1 $240 $92 #
plane-surface $-1 -42.251135071763827 -67.309013296771084 0 0 1 0 0 0 1 forward_v I I I I #
coedge $-1 $241 $242 $151 $243 forward $93 $-1 #
coedge $-1 $244 $95 $245 $246 reversed $59 $-1 #
coedge $-1 $95 $244 $149 $243 reversed $59 $-1 #
coedge $-1 $247 $248 $95 $153 reversed $238 $-1 #
edge $-1 $249 -17.79863913814042 $250 17.79863913814042 $152 $251 forward 7 unknown #
face $-1 $252 $253 $35 $-1 $254 reversed single #
loop $-1 $-1 $255 $96 #
plane-surface $-1 -150.1430198124913 10.238516836953657 114.72200709437836 0 -1 0 0.6018150307709319 0 -0.79863550430605224 forward_v I I I I #
coedge $-1 $256 $257 $258 $259 reversed $97 $-1 #
coedge $-1 $159 $99 $260 $261 reversed $62 $-1 #
coedge $-1 $99 $158 $256 $262 reversed $62 $-1 #
coedge $-1 $258 $263 $99 $161 forward $264 $-1 #
edge $-1 $265 6.9371063905133639 $266 22.736555986176597 $160 $267 forward 7 unknown #
loop $-1 $-1 $167 $100 #
plane-surface $-1 -68.134403515732274 1.4137933877174618 5.8928996696205331 -0.6018150307709319 0 0.79863550430605224 0.79863550430605224 0 0.6018150307709319 forward_v I I I I #
loop $-1 $-1 $268 $64 #
coedge $-1 $165 $165 $166 $269 reversed $101 $-1 #
coedge $-1 $166 $166 $165 $269 forward $103 $-1 #
coedge $-1 $167 $167 $104 $168 forward $162 $-1 #
edge $-1 $270 0 $270 6.2831853071796004 $167 $271 forward 7 unknown #
loop $-1 $-1 $174 $105 #
plane-surface $-1 -68.134403515732274 1.4137933877174618 5.8928996696205331 -0.6018150307709319 0 0.79863550430605224 0.79863550430605224 0 0.6018150307709319 forward_v I I I I #
loop $-1 $-1 $272 $67 #
coedge $-1 $172 $172 $173 $273 reversed $106 $-1 #
coedge $-1 $173 $173 $172 $273 forward $108 $-1 #
coedge $-1 $174 $174 $109 $175 forward $169 $-1 #
edge $-1 $274 0 $274 6.2831853071796004 $174 $275 forward 7 unknown #
face $-1 $276 $277 $38 $-1 $278 forward single #
loop $-1 $-1 $279 $110 #
plane-surface $-1 0 0 17.79863913814042 0 0 1 1 0 0 forward_v I I I I #
coedge $-1 $280 $281 $282 $283 reversed $111 $-1 #
coedge $-1 $284 $113 $285 $286 reversed $71 $-1 #
coedge $-1 $113 $284 $279 $287 reversed $71 $-1 #
coedge $-1 $288 $289 $113 $183 forward $277 $-1 #
edge $-1 $290 -1.7763522597878294e-014 $291 19.783054360188544 $182 $292 forward 7 unknown #
loop $-1 $-1 $189 $114 #
plane-surface $-1 -68.134403515732274 1.4137933877174618 5.8928996696205331 -0.6018150307709319 0 0.79863550430605224 0.79863550430605224 0 0.6018150307709319 forward_v I I I I #
loop $-1 $-1 $293 $73 #
coedge $-1 $187 $187 $188 $294 reversed $115 $-1 #
coedge $-1 $188 $188 $187 $294 forward $117 $-1 #
coedge $-1 $189 $189 $118 $190 forward $184 $-1 #
edge $-1 $295 0 $295 6.2831853071796004 $189 $296 forward 7 unknown #
loop $-1 $-1 $196 $119 #
plane-surface $-1 -68.134403515732274 1.4137933877174618 5.8928996696205331 -0.6018150307709319 0 0.79863550430605224 0.79863550430605224 0 0.6018150307709319 forward_v I I I I #
loop $-1 $-1 $297 $76 #
coedge $-1 $194 $194 $195 $298 reversed $120 $-1 #
coedge $-1 $195 $195 $194 $298 forward $122 $-1 #
coedge $-1 $196 $196 $123 $197 forward $191 $-1 #
edge $-1 $299 0 $299 6.2831853071796004 $196 $300 forward 7 unknown #
face $-1 $301 $302 $41 $-1 $303 forward single #
loop $-1 $-1 $304 $124 #
plane-surface $-1 94.954899072140222 -26.354945948956455 204.18978363199719 0 1 0 0.79863551827123203 0 0.60181501223851219 forward_v I I I I #
coedge $-1 $305 $306 $307 $308 reversed $125 $-1 #
coedge $-1 $203 $127 $309 $310 reversed $80 $-1 #
coedge $-1 $127 $202 $305 $311 reversed $80 $-1 #
coedge $-1 $307 $312 $127 $205 forward $302 $-1 #
edge $-1 $313 -20.656953979662177 $314 -17.306216757814866 $204 $315 forward 7 unknown #
loop $-1 $-1 $211 $128 #
plane-surface $-1 -13.874210255636001 -16.10906673116623 122.18116986062888 0.79863551827123203 0 0.60181501223851219 0.60181501223851219 0 -0.79863551827123203 forward_v I I I I #
loop $-1 $-1 $316 $82 #
coedge $-1 $209 $209 $210 $317 reversed $129 $-1 #
coedge $-1 $210 $210 $209 $317 forward $131 $-1 #
coedge $-1 $211 $211 $132 $212 forward $206 $-1 #
edge $-1 $318 0 $318 6.2831853071796004 $211 $319 forward 7 unknown #
loop $-1 $-1 $218 $133 #
plane-surface $-1 -13.874210255636001 -16.10906673116623 122.18116986062888 0.79863551827123203 0 0.60181501223851219 0.60181501223851219 0 -0.79863551827123203 forward_v I I I I #
loop $-1 $-1 $320 $85 #
coedge $-1 $216 $216 $217 $321 reversed $134 $-1 #
coedge $-1 $217 $217 $216 $321 forward $136 $-1 #
coedge $-1 $218 $218 $137 $219 forward $213 $-1 #
edge $-1 $322 0 $322 6.2831853071796004 $218 $323 forward 7 unknown #
face $-1 $324 $325 $33 $-1 $326 reversed single #
loop $-1 $-1 $327 $138 #
plane-surface $-1 -68.134403515732288 0 0 1 0 0 0 0 -1 forward_v I I I I #
coedge $-1 $144 $328 $329 $330 forward $139 $-1 #
coedge $-1 $331 $141 $332 $333 forward $89 $-1 #
coedge $-1 $141 $331 $228 $334 forward $89 $-1 #
coedge $-1 $229 $335 $141 $227 reversed $336 $-1 #
edge $-1 $337 -46.83197962286377 $338 46.83197962286377 $226 $339 forward 7 unknown #
coedge $-1 $143 $142 $225 $334 reversed $56 $-1 #
coedge $-1 $329 $226 $142 $230 forward $336 $-1 #
edge $-1 $337 -17.79863913814042 $234 17.79863913814042 $229 $340 forward 7 unknown #
coedge $-1 $341 $342 $143 $232 reversed $221 $-1 #
edge $-1 $343 -17.79863913814042 $235 17.79863913814042 $231 $344 forward 7 unknown #
coedge $-1 $328 $144 $342 $345 forward $139 $-1 #
vertex $-1 $230 $346 #
vertex $-1 $345 $347 #
straight-curve $-1 0 -46.83197962286377 -17.79863913814042 -1 0 0 I I #
face $-1 $348 $349 $34 $-1 $350 reversed single #
loop $-1 $-1 $152 $146 #
plane-surface $-1 -45.012648225680636 -57.070496459817427 0 1 0 0 0 0 -1 forward_v I I I I #
coedge $-1 $351 $352 $353 $354 forward $147 $-1 #
coedge $-1 $355 $149 $356 $357 forward $93 $-1 #
coedge $-1 $149 $355 $247 $358 forward $93 $-1 #
edge $-1 $249 -45.012648225680636 $359 -39.489621917847018 $149 $360 forward 7 unknown #
coedge $-1 $151 $150 $361 $362 forward $59 $-1 #
coedge $-1 $363 $364 $150 $246 forward $365 $-1 #
edge $-1 $366 39.489621917847018 $250 45.012648225680636 $245 $367 forward 7 unknown #
coedge $-1 $353 $152 $242 $358 reversed $238 $-1 #
coedge $-1 $152 $353 $363 $368 reversed $238 $-1 #
vertex $-1 $243 $369 #
vertex $-1 $368 $370 #
straight-curve $-1 -45.012648225680636 -46.83197962286377 0 0 0 1 I I #
face $-1 $-1 $264 $35 $-1 $371 forward single #
loop $-1 $-1 $372 $154 #
plane-surface $-1 -68.134403515732288 0 0 1 0 0 0 0 -1 forward_v I I I I #
coedge $-1 $373 $374 $375 $376 reversed $155 $-1 #
coedge $-1 $377 $157 $159 $262 forward $97 $-1 #
coedge $-1 $157 $377 $373 $378 forward $97 $-1 #
coedge $-1 $375 $160 $157 $259 forward $264 $-1 #
edge $-1 $266 -8.1178267553774646 $379 9.5316201430949263 $258 $380 forward 7 unknown #
coedge $-1 $381 $382 $158 $261 forward $253 $-1 #
edge $-1 $383 -51.468103877568652 $265 -39.562364409048755 $260 $384 forward 7 unknown #
edge $-1 $266 -19.783054360188544 $383 1.7763522597878294e-014 $159 $385 forward 7 unknown #
coedge $-1 $160 $375 $381 $386 forward $264 $-1 #
loop $-1 $-1 $375 $252 #
vertex $-1 $261 $387 #
vertex $-1 $161 $388 #
straight-curve $-1 -75.071509906245652 -7.4109300615187337 17.798639138140416 1 0 0 I I #
coedge $-1 $268 $268 $-1 $389 reversed $164 $-1 #
edge $-1 $390 0 $390 6.2831853071796004 $165 $391 forward 7 unknown #
vertex $-1 $168 $392 #
ellipse-curve $-1 -60.234678717900671 -2.3682309476694812 11.845769403880471 -0.6018150307709319 0 0.79863550430605224 1.1979532564590785 0 0.90272254615639791 1 I I #
coedge $-1 $272 $272 $-1 $393 reversed $171 $-1 #
edge $-1 $394 0 $394 6.2831853071796004 $172 $395 forward 7 unknown #
vertex $-1 $175 $396 #
ellipse-curve $-1 -60.234678717900671 5.1958177231043976 11.845769403880471 -0.6018150307709319 0 0.79863550430605224 1.1979532564590785 0 0.90272254615639791 1 I I #
face $-1 $-1 $397 $38 $-1 $398 reversed single #
loop $-1 $-1 $288 $176 #
plane-surface $-1 -150.1430198124913 10.238516836953657 114.72200709437836 0 -1 0 0.6018150307709319 0 -0.79863550430605224 forward_v I I I I #
coedge $-1 $282 $399 $181 $287 forward $177 $-1 #
coedge $-1 $281 $179 $284 $400 reversed $111 $-1 #
coedge $-1 $179 $280 $401 $402 reversed $111 $-1 #
coedge $-1 $403 $279 $179 $283 forward $177 $-1 #
edge $-1 $404 -22.736555986176597 $405 -6.9371063905133639 $282 $406 forward 7 unknown #
coedge $-1 $181 $180 $280 $400 forward $71 $-1 #
coedge $-1 $407 $401 $180 $286 forward $397 $-1 #
edge $-1 $408 -27.181067041567317 $290 -9.5316201430949263 $285 $409 forward 7 unknown #
edge $-1 $291 9.5316201430949263 $404 27.181067041567317 $279 $410 forward 7 unknown #
coedge $-1 $289 $182 $399 $411 reversed $277 $-1 #
coedge $-1 $182 $288 $407 $412 reversed $277 $-1 #
vertex $-1 $286 $413 #
vertex $-1 $287 $414 #
straight-curve $-1 -68.134403515732274 10.238516836953657 5.8928996696205331 0.79863550430605224 0 0.6018150307709319 I I #
coedge $-1 $293 $293 $-1 $415 reversed $186 $-1 #
edge $-1 $416 0 $416 6.2831853071796004 $187 $417 forward 7 unknown #
vertex $-1 $190 $418 #
ellipse-curve $-1 -60.234678717900671 15.28121595080291 11.845769403880471 -0.6018150307709319 0 0.79863550430605224 1.1979532564590785 0 0.90272254615639791 1 I I #
coedge $-1 $297 $297 $-1 $419 reversed $193 $-1 #
edge $-1 $420 0 $420 6.2831853071796004 $194 $421 forward 7 unknown #
vertex $-1 $197 $422 #
ellipse-curve $-1 -60.234678717900671 22.845264621576788 11.845769403880471 -0.6018150307709319 0 0.79863550430605224 1.1979532564590785 0 0.90272254615639791 1 I I #
face $-1 $-1 $423 $41 $-1 $424 reversed single #
loop $-1 $-1 $204 $198 #
plane-surface $-1 0 0 17.79863913814042 0 0 1 1 0 0 forward_v I I I I #
coedge $-1 $425 $426 $427 $428 reversed $199 $-1 #
coedge $-1 $429 $201 $203 $311 forward $125 $-1 #
coedge $-1 $201 $429 $425 $430 forward $125 $-1 #
coedge $-1 $427 $204 $201 $308 forward $302 $-1 #
edge $-1 $314 -2.1913458522071103 $431 18.30041258337334 $307 $432 forward 7 unknown #
coedge $-1 $433 $434 $202 $310 forward $423 $-1 #
edge $-1 $435 -88.742831283145904 $313 -84.296252677858178 $309 $436 forward 7 unknown #
edge $-1 $314 130.70108746032273 $435 136.26880703146452 $203 $437 forward 7 unknown #
coedge $-1 $204 $427 $433 $438 forward $302 $-1 #
vertex $-1 $205 $439 #
vertex $-1 $205 $440 #
straight-curve $-1 47.477449536070111 -5.8631875133760047 17.798639138140416 -1 0 0 I I #
coedge $-1 $316 $316 $-1 $441 reversed $208 $-1 #
edge $-1 $442 0 $442 6.2831853071796004 $209 $443 forward 7 unknown #
vertex $-1 $212 $444 #
ellipse-curve $-1 66.459034904808647 -20.500157824504896 15.575349835496556 0.79863551827123203 0 0.60181501223851219 0.60181501223851219 0 -0.79863551827123203 1 I I #
coedge $-1 $320 $320 $-1 $445 reversed $215 $-1 #
edge $-1 $446 0 $446 6.2831853071796004 $216 $447 forward 7 unknown #
vertex $-1 $219 $448 #
ellipse-curve $-1 66.459034904808647 -11.717975637827564 15.575349835496556 0.79863551827123203 0 0.60181501223851219 0.60181501223851219 0 -0.79863551827123203 1 I I #
face $-1 $-1 $336 $33 $-1 $449 reversed single #
loop $-1 $-1 $450 $220 #
plane-surface $-1 0 46.83197962286377 0 0 -1 0 0 0 -1 forward_v I I I I #
coedge $-1 $342 $341 $451 $452 forward $221 $-1 #
coedge $-1 $223 $233 $453 $454 forward $139 $-1 #
coedge $-1 $335 $229 $223 $330 reversed $336 $-1 #
edge $-1 $455 -46.83197962286377 $234 46.83197962286377 $329 $456 forward 7 unknown #
coedge $-1 $225 $224 $341 $457 forward $89 $-1 #
coedge $-1 $450 $451 $224 $333 reversed $325 $-1 #
edge $-1 $338 -68.134403515732288 $458 68.134403515732288 $332 $459 forward 7 unknown #
edge $-1 $343 -68.134403515732288 $337 68.134403515732288 $228 $460 forward 7 unknown #
coedge $-1 $226 $329 $450 $461 reversed $336 $-1 #
loop $-1 $-1 $229 $324 #
vertex $-1 $227 $462 #
vertex $-1 $227 $463 #
straight-curve $-1 68.134403515732288 0 17.79863913814042 0 1 0 I I #
straight-curve $-1 68.134403515732288 -46.83197962286377 0 0 0 -1 I I #
coedge $-1 $327 $231 $331 $457 reversed $221 $-1 #
coedge $-1 $231 $327 $233 $345 reversed $221 $-1 #
vertex $-1 $457 $464 #
straight-curve $-1 -68.134403515732288 -46.83197962286377 0 0 0 -1 I I #
edge $-1 $235 -46.83197962286377 $465 46.83197962286377 $342 $466 forward 7 unknown #
point $-1 68.134403515732288 -46.83197962286377 -17.79863913814042 #
point $-1 -68.134403515732288 -46.83197962286377 -17.79863913814042 #
face $-1 $-1 $365 $34 $-1 $467 forward single #
loop $-1 $-1 $468 $237 #
plane-surface $-1 -39.489621917847018 -57.070496459817427 0 -1 0 0 0 0 1 forward_v I I I I #
coedge $-1 $469 $240 $355 $470 reversed $147 $-1 #
coedge $-1 $240 $469 $471 $472 reversed $147 $-1 #
coedge $-1 $248 $247 $240 $354 reversed $238 $-1 #
edge $-1 $473 -17.79863913814042 $474 17.79863913814042 $353 $475 forward 7 unknown #
coedge $-1 $242 $241 $351 $470 forward $93 $-1 #
coedge $-1 $361 $468 $241 $357 reversed $349 $-1 #
edge $-1 $359 -10.238516836953657 $476 10.238516836953657 $356 $477 forward 7 unknown #
edge $-1 $474 -10.238516836953657 $249 10.238516836953657 $247 $478 forward 7 unknown #
vertex $-1 $357 $479 #
straight-curve $-1 0 -46.83197962286377 -17.79863913814042 1 0 0 I I #
coedge $-1 $480 $356 $244 $362 reversed $349 $-1 #
edge $-1 $366 -17.79863913814042 $359 17.79863913814042 $361 $481 forward 7 unknown #
coedge $-1 $471 $245 $248 $368 forward $365 $-1 #
coedge $-1 $245 $471 $480 $482 forward $365 $-1 #
loop $-1 $-1 $245 $348 #
vertex $-1 $246 $483 #
straight-curve $-1 0 -46.83197962286377 17.79863913814042 -1 0 0 I I #
edge $-1 $250 -10.238516836953657 $473 10.238516836953657 $248 $484 forward 7 unknown #
point $-1 -45.012648225680636 -46.83197962286377 -17.79863913814042 #
point $-1 -45.012648225680636 -46.83197962286377 17.79863913814042 #
plane-surface $-1 0 0 17.79863913814042 0 0 1 1 0 0 forward_v I I I I #
coedge $-1 $382 $381 $374 $485 forward $253 $-1 #
coedge $-1 $374 $255 $257 $378 reversed $155 $-1 #
coedge $-1 $255 $373 $372 $485 reversed $155 $-1 #
coedge $-1 $263 $258 $255 $376 forward $264 $-1 #
edge $-1 $379 -22.736555986176597 $486 -6.9371063905133639 $375 $487 forward 7 unknown #
coedge $-1 $257 $256 $382 $488 reversed $97 $-1 #
edge $-1 $489 -1.7763522597878294e-014 $379 19.783054360188544 $373 $490 forward 7 unknown #
vertex $-1 $259 $491 #
straight-curve $-1 -52.334953920069054 0.70689669385873088 17.79863913814042 0 1 0 I I #
coedge $-1 $372 $260 $263 $386 reversed $253 $-1 #
coedge $-1 $260 $372 $377 $488 forward $253 $-1 #
vertex $-1 $261 $492 #
straight-curve $-1 -68.134403515732288 -7.4109300615187337 57.361003547189178 0 0 1 I I #
straight-curve $-1 -68.134403515732274 -7.4109300615187337 5.8928996696205331 -0.79863550430605224 0 -0.6018150307709319 I I #
edge $-1 $486 -10.238516836953657 $265 7.4109300615187337 $381 $493 forward 7 unknown #
point $-1 -68.134403515732288 -7.4109300615187337 17.79863913814042 #
point $-1 -52.334953920069054 -7.4109300615187337 17.79863913814042 #
edge $-1 $494 1 $494 0 $268 $-1 forward 7 unknown #
vertex $-1 $269 $495 #
ellipse-curve $-1 -57.014719437232095 -2.3682309476694812 7.5727391994545554 -0.6018150307709319 0 0.79863550430605224 1.1979532564590785 0 0.90272254615639791 1 I I #
point $-1 -59.036725461441598 -2.3682309476694812 12.748491950036874 #
edge $-1 $496 1 $496 0 $272 $-1 forward 7 unknown #
vertex $-1 $273 $497 #
ellipse-curve $-1 -57.014719437232095 5.1958177231043976 7.5727391994545554 -0.6018150307709319 0 0.79863550430605224 1.1979532564590785 0 0.90272254615639791 1 I I #
point $-1 -59.036725461441598 5.1958177231043976 12.748491950036874 #
loop $-1 $-1 $285 $276 #
plane-surface $-1 -68.134403515732288 0 0 1 0 0 0 0 -1 forward_v I I I I #
coedge $-1 $279 $403 $288 $411 forward $177 $-1 #
edge $-1 $408 -1.7763522597878294e-014 $404 19.783054360188544 $280 $498 forward 7 unknown #
coedge $-1 $285 $499 $281 $402 forward $397 $-1 #
edge $-1 $405 39.562364409048755 $408 51.468103877568652 $401 $500 forward 7 unknown #
coedge $-1 $399 $282 $499 $501 forward $177 $-1 #
vertex $-1 $283 $502 #
vertex $-1 $501 $503 #
straight-curve $-1 -75.071509906245652 27.887963735426048 17.798639138140416 -1 0 0 I I #
coedge $-1 $499 $285 $289 $412 forward $397 $-1 #
vertex $-1 $402 $504 #
straight-curve $-1 -68.134403515732288 0.70689669385873088 5.8928996696205322 0 -1 0 I I #
straight-curve $-1 -52.334953920069054 0.70689669385873088 17.79863913814042 0 1 0 I I #
edge $-1 $505 6.9371063905133639 $291 22.736555986176597 $399 $506 forward 7 unknown #
edge $-1 $290 -51.468103877568652 $505 -39.562364409048755 $407 $507 forward 7 unknown #
point $-1 -68.134403515732288 10.238516836953657 5.8928996696205225 #
point $-1 -52.334953920069054 10.238516836953657 17.79863913814042 #
edge $-1 $508 1 $508 0 $293 $-1 forward 7 unknown #
vertex $-1 $294 $509 #
ellipse-curve $-1 -57.014719437232095 15.28121595080291 7.5727391994545554 -0.6018150307709319 0 0.79863550430605224 1.1979532564590785 0 0.90272254615639791 1 I I #
point $-1 -59.036725461441598 15.28121595080291 12.748491950036874 #
edge $-1 $510 1 $510 0 $297 $-1 forward 7 unknown #
vertex $-1 $298 $511 #
ellipse-curve $-1 -57.014719437232095 22.845264621576788 7.5727391994545554 -0.6018150307709319 0 0.79863550430605224 1.1979532564590785 0 0.90272254615639791 1 I I #
point $-1 -59.036725461441598 22.845264621576788 12.748491950036874 #
loop $-1 $-1 $309 $301 #
plane-surface $-1 68.134403515732288 0 0 -1 0 0 0 0 1 forward_v I I I I #
coedge $-1 $426 $304 $306 $430 reversed $199 $-1 #
coedge $-1 $304 $425 $512 $513 reversed $199 $-1 #
coedge $-1 $312 $307 $304 $428 forward $302 $-1 #
edge $-1 $431 17.306216757814866 $514 20.656953979662177 $427 $515 forward 7 unknown #
coedge $-1 $306 $305 $434 $516 reversed $125 $-1 #
edge $-1 $517 -136.26880703146452 $431 -130.70108746032273 $425 $518 forward 7 unknown #
vertex $-1 $308 $519 #
straight-curve $-1 64.783666293884977 -8.0545333655831151 17.798639138140416 0 -1 0 I I #
coedge $-1 $512 $309 $312 $438 reversed $423 $-1 #
coedge $-1 $309 $512 $429 $516 forward $423 $-1 #
vertex $-1 $310 $520 #
straight-curve $-1 68.134403515732288 -5.8631875133760047 102.09489181599859 0 0 1 I I #
straight-curve $-1 -13.874210255636001 -5.8631875133760047 122.18116986062888 0.60181501223851219 0 -0.79863551827123203 I I #
edge $-1 $514 -26.354945948956455 $313 -5.8631875133760047 $433 $521 forward 7 unknown #
point $-1 68.134403515732288 -5.8631875133760047 17.79863913814042 #
point $-1 64.783666293884977 -5.8631875133760047 17.798639138140416 #
edge $-1 $522 1 $522 0 $316 $-1 forward 7 unknown #
vertex $-1 $317 $523 #
ellipse-curve $-1 64.269739675059327 -20.500157824504896 13.925597595153754 0.79863551827123203 0 0.60181501223851219 0.60181501223851219 0 -0.79863551827123203 1 I I #
point $-1 67.060849917047136 -20.500157824504896 14.776714317225309 #
edge $-1 $524 1 $524 0 $320 $-1 forward 7 unknown #
vertex $-1 $321 $525 #
ellipse-curve $-1 64.269739675059327 -11.717975637827564 13.925597595153754 0.79863551827123203 0 0.60181501223851219 0.60181501223851219 0 -0.79863551827123203 1 I I #
point $-1 67.060849917047136 -11.717975637827564 14.776714317225309 #
plane-surface $-1 68.134403515732288 0 0 -1 0 0 0 0 1 forward_v I I I I #
coedge $-1 $453 $332 $335 $461 forward $325 $-1 #
coedge $-1 $332 $453 $327 $452 reversed $325 $-1 #
edge $-1 $458 -17.79863913814042 $465 17.79863913814042 $451 $526 forward 7 unknown #
coedge $-1 $451 $450 $328 $454 reversed $325 $-1 #
edge $-1 $465 -68.134403515732288 $455 68.134403515732288 $453 $527 forward 7 unknown #
vertex $-1 $330 $528 #
straight-curve $-1 68.134403515732288 0 -17.79863913814042 0 -1 0 I I #
edge $-1 $458 -46.83197962286377 $343 46.83197962286377 $341 $529 forward 7 unknown #
vertex $-1 $333 $530 #
straight-curve $-1 0 46.83197962286377 17.79863913814042 -1 0 0 I I #
straight-curve $-1 0 -46.83197962286377 17.79863913814042 1 0 0 I I #
edge $-1 $338 -17.79863913814042 $455 17.79863913814042 $335 $531 forward 7 unknown #
point $-1 68.134403515732288 -46.83197962286377 17.79863913814042 #
point $-1 68.134403515732288 46.83197962286377 17.79863913814042 #
point $-1 -68.134403515732288 -46.83197962286377 17.79863913814042 #
vertex $-1 $454 $532 #
straight-curve $-1 -68.134403515732288 0 -17.79863913814042 0 1 0 I I #
plane-surface $-1 0 0 17.79863913814042 0 0 1 1 0 0 forward_v I I I I #
coedge $-1 $356 $480 $469 $533 forward $349 $-1 #
coedge $-1 $352 $351 $468 $533 reversed $147 $-1 #
edge $-1 $476 -2.761513153916809 $474 2.761513153916809 $351 $534 forward 7 unknown #
coedge $-1 $364 $363 $352 $472 forward $365 $-1 #
edge $-1 $473 -2.761513153916809 $535 2.761513153916809 $352 $536 forward 7 unknown #
vertex $-1 $368 $537 #
vertex $-1 $358 $538 #
straight-curve $-1 -45.012648225680636 -67.309013296771084 0 0 0 -1 I I #
vertex $-1 $533 $539 #
straight-curve $-1 -39.489621917847018 -57.070496459817427 -17.79863913814042 0 -1 0 I I #
straight-curve $-1 -45.012648225680636 -57.070496459817427 -17.79863913814042 0 1 0 I I #
point $-1 -39.489621917847018 -46.83197962286377 -17.79863913814042 #
coedge $-1 $468 $361 $364 $482 reversed $349 $-1 #
straight-curve $-1 -39.489621917847018 -46.83197962286377 0 0 0 -1 I I #
edge $-1 $535 -10.238516836953657 $366 10.238516836953657 $480 $540 forward 7 unknown #
point $-1 -39.489621917847018 -46.83197962286377 17.79863913814042 #
straight-curve $-1 -45.012648225680636 -57.070496459817427 17.79863913814042 0 -1 0 I I #
edge $-1 $486 39.562364409048755 $489 51.468103877568652 $372 $541 forward 7 unknown #
vertex $-1 $386 $542 #
straight-curve $-1 -75.071509906245652 10.238516836953657 17.798639138140416 -1 0 0 I I #
edge $-1 $489 -9.5316201430949263 $383 8.1178267553774646 $382 $543 forward 7 unknown #
vertex $-1 $488 $544 #
straight-curve $-1 -68.134403515732274 10.238516836953657 5.8928996696205331 0.79863550430605224 0 0.6018150307709319 I I #
point $-1 -52.334953920069054 10.238516836953657 17.79863913814042 #
point $-1 -68.134403515732288 -7.4109300615187337 5.8928996696205225 #
straight-curve $-1 -68.134403515732288 0 17.79863913814042 0 -1 0 I I #
vertex $-1 $389 $545 #
point $-1 -55.816766180773016 -2.3682309476694812 8.4754617456109536 #
vertex $-1 $393 $546 #
point $-1 -55.816766180773016 5.1958177231043976 8.4754617456109536 #
straight-curve $-1 -68.134403515732274 27.887963735426048 5.8928996696205331 0.79863550430605224 0 0.6018150307709319 I I #
coedge $-1 $401 $407 $403 $501 reversed $397 $-1 #
straight-curve $-1 -68.134403515732288 27.887963735426048 57.361003547189178 0 0 -1 I I #
edge $-1 $405 -27.887963735426048 $505 -10.238516836953657 $499 $547 forward 7 unknown #
point $-1 -52.334953920069054 27.887963735426048 17.79863913814042 #
point $-1 -68.134403515732288 27.887963735426048 17.79863913814042 #
point $-1 -68.134403515732288 27.887963735426048 5.8928996696205225 #
vertex $-1 $412 $548 #
straight-curve $-1 -75.071509906245652 10.238516836953657 17.798639138140416 1 0 0 I I #
straight-curve $-1 -68.134403515732288 10.238516836953657 57.361003547189178 0 0 1 I I #
vertex $-1 $415 $549 #
point $-1 -55.816766180773016 15.28121595080291 8.4754617456109536 #
vertex $-1 $419 $550 #
point $-1 -55.816766180773016 22.845264621576788 8.4754617456109536 #
coedge $-1 $434 $433 $426 $513 forward $423 $-1 #
edge $-1 $514 84.296252677858178 $517 88.742831283145904 $512 $551 forward 7 unknown #
vertex $-1 $438 $552 #
straight-curve $-1 47.477449536070111 -26.354945948956455 17.798639138140416 1 0 0 I I #
edge $-1 $517 -18.30041258337334 $435 2.1913458522071103 $434 $553 forward 7 unknown #
vertex $-1 $516 $554 #
straight-curve $-1 -13.874210255636001 -26.354945948956455 122.18116986062888 -0.60181501223851219 0 0.79863551827123203 I I #
point $-1 64.783666293884977 -26.354945948956455 17.798639138140416 #
point $-1 68.134403515732288 -5.8631875133760047 13.35206053285269 #
straight-curve $-1 68.134403515732288 0 17.79863913814042 0 1 0 I I #
vertex $-1 $441 $555 #
point $-1 64.871554687297845 -20.500157824504896 13.126962076882522 #
vertex $-1 $445 $556 #
point $-1 64.871554687297845 -11.717975637827564 13.126962076882522 #
straight-curve $-1 -68.134403515732288 46.83197962286377 0 0 0 -1 I I #
straight-curve $-1 0 46.83197962286377 -17.79863913814042 1 0 0 I I #
point $-1 68.134403515732288 46.83197962286377 -17.79863913814042 #
straight-curve $-1 -68.134403515732288 0 17.79863913814042 0 -1 0 I I #
point $-1 -68.134403515732288 46.83197962286377 17.79863913814042 #
straight-curve $-1 68.134403515732288 46.83197962286377 0 0 0 -1 I I #
point $-1 -68.134403515732288 46.83197962286377 -17.79863913814042 #
edge $-1 $535 -17.79863913814042 $476 17.79863913814042 $468 $557 forward 7 unknown #
straight-curve $-1 -42.251135071763827 -67.309013296771084 -17.79863913814042 -1 0 0 I I #
vertex $-1 $482 $558 #
straight-curve $-1 -42.251135071763827 -67.309013296771084 17.79863913814042 1 0 0 I I #
point $-1 -45.012648225680636 -67.309013296771084 17.79863913814042 #
point $-1 -45.012648225680636 -67.309013296771084 -17.79863913814042 #
point $-1 -39.489621917847018 -67.309013296771084 -17.79863913814042 #
straight-curve $-1 -39.489621917847018 -57.070496459817427 17.79863913814042 0 1 0 I I #
straight-curve $-1 -68.134403515732288 10.238516836953657 57.361003547189178 0 0 -1 I I #
point $-1 -68.134403515732288 10.238516836953657 17.79863913814042 #
straight-curve $-1 -68.134403515732288 0.70689669385873088 5.8928996696205322 0 -1 0 I I #
point $-1 -68.134403515732288 10.238516836953657 5.8928996696205225 #
point $-1 -56.111996891075698 -2.3682309476694812 6.3747859429954774 #
point $-1 -56.111996891075698 5.1958177231043976 6.3747859429954774 #
straight-curve $-1 -68.134403515732288 0 17.79863913814042 0 -1 0 I I #
point $-1 -68.134403515732288 10.238516836953657 17.79863913814042 #
point $-1 -56.111996891075698 15.28121595080291 6.3747859429954774 #
point $-1 -56.111996891075698 22.845264621576788 6.3747859429954774 #
straight-curve $-1 68.134403515732288 -26.354945948956455 102.09489181599859 0 0 -1 I I #
point $-1 68.134403515732288 -26.354945948956455 17.79863913814042 #
straight-curve $-1 68.134403515732288 -8.0545333655831151 13.35206053285269 0 1 0 I I #
point $-1 68.134403515732288 -26.354945948956455 13.35206053285269 #
point $-1 63.471104156788101 -20.500157824504896 13.323782582915243 #
point $-1 63.471104156788101 -11.717975637827564 13.323782582915243 #
straight-curve $-1 -39.489621917847018 -67.309013296771084 0 0 0 -1 I I #
point $-1 -39.489621917847018 -67.309013296771084 17.79863913814042 #
End-of-ACIS-data 