500 0 12 0           
7 Unknown 11 ACIS 5.0 NT 24 Fri Mar 26 20:05:47 1999 
-1 9.9999999999999995e-007 1e-010 
body $-1 $12 $-1 $13 #
body $-1 $14 $-1 $15 #
body $-1 $16 $-1 $17 #
body $-1 $18 $-1 $19 #
body $-1 $20 $-1 $21 #
body $-1 $22 $-1 $23 #
body $-1 $24 $-1 $25 #
body $-1 $26 $-1 $27 #
body $-1 $28 $-1 $29 #
body $-1 $30 $-1 $31 #
body $-1 $32 $-1 $33 #
body $-1 $34 $-1 $35 #
lump $-1 $-1 $36 $0 #
transform $-1 1 0 0 0 1 0 0 0 1 45.622730185857719 20.375609479441525 6.4431872060970283 1 rotate no_reflect no_shear #
lump $-1 $-1 $37 $1 #
transform $-1 1 0 0 0 1 0 0 0 1 45.622730185857719 20.375609479441525 6.4431872060970283 1 rotate no_reflect no_shear #
lump $-1 $-1 $38 $2 #
transform $-1 1 0 0 0 1 0 0 0 1 45.622730185857719 20.375609479441525 6.4431872060970283 1 rotate no_reflect no_shear #
lump $-1 $-1 $39 $3 #
transform $-1 1 0 0 0 1 0 0 0 1 45.622730185857719 20.375609479441525 6.4431872060970283 1 rotate no_reflect no_shear #
lump $-1 $-1 $40 $4 #
transform $-1 1 0 0 0 1 0 0 0 1 45.622730185857719 20.375609479441525 6.4431872060970283 1 rotate no_reflect no_shear #
lump $-1 $-1 $41 $5 #
transform $-1 1 0 0 0 1 0 0 0 1 45.622730185857719 20.375609479441525 6.4431872060970283 1 rotate no_reflect no_shear #
lump $-1 $-1 $42 $6 #
transform $-1 1 0 0 0 1 0 0 0 1 45.622730185857719 20.375609479441525 6.4431872060970283 1 rotate no_reflect no_shear #
lump $-1 $-1 $43 $7 #
transform $-1 1 0 0 0 1 0 0 0 1 45.622730185857719 20.375609479441525 6.4431872060970283 1 rotate no_reflect no_shear #
lump $-1 $-1 $44 $8 #
transform $-1 1 0 0 0 1 0 0 0 1 45.622730185857719 20.375609479441525 6.4431872060970283 1 rotate no_reflect no_shear #
lump $-1 $-1 $45 $9 #
transform $-1 1 0 0 0 1 0 0 0 1 45.622730185857719 20.375609479441525 6.4431872060970283 1 rotate no_reflect no_shear #
lump $-1 $-1 $46 $10 #
transform $-1 1 0 0 0 1 0 0 0 1 45.622730185857719 20.375609479441525 6.4431872060970283 1 rotate no_reflect no_shear #
lump $-1 $-1 $47 $11 #
transform $-1 1 0 0 0 1 0 0 0 1 45.622730185857719 20.375609479441525 6.4431872060970283 1 rotate no_reflect no_shear #
shell $-1 $-1 $-1 $48 $-1 $12 #
shell $-1 $-1 $-1 $49 $-1 $14 #
shell $-1 $-1 $-1 $50 $-1 $16 #
shell $-1 $-1 $-1 $51 $-1 $18 #
shell $-1 $-1 $-1 $52 $-1 $20 #
shell $-1 $-1 $-1 $53 $-1 $22 #
shell $-1 $-1 $-1 $54 $-1 $24 #
shell $-1 $-1 $-1 $55 $-1 $26 #
shell $-1 $-1 $-1 $56 $-1 $28 #
shell $-1 $-1 $-1 $57 $-1 $30 #
shell $-1 $-1 $-1 $58 $-1 $32 #
shell $-1 $-1 $-1 $59 $-1 $34 #
face $-1 $60 $61 $36 $-1 $62 forward single #
face $-1 $63 $64 $37 $-1 $65 reversed single #
face $-1 $66 $67 $38 $-1 $68 reversed single #
face $-1 $69 $70 $39 $-1 $71 forward single #
face $-1 $72 $73 $40 $-1 $74 reversed single #
face $-1 $75 $76 $41 $-1 $77 forward single #
face $-1 $78 $79 $42 $-1 $80 forward single #
face $-1 $81 $82 $43 $-1 $83 forward single #
face $-1 $84 $85 $44 $-1 $86 reversed single #
face $-1 $87 $88 $45 $-1 $89 forward single #
face $-1 $90 $91 $46 $-1 $92 forward single #
face $-1 $93 $94 $47 $-1 $95 forward single #
face $-1 $96 $97 $36 $-1 $98 reversed single #
loop $-1 $-1 $99 $48 #
plane-surface $-1 0 0 6.4431872060970283 0 0 1 1 0 0 forward_v I I I I #
face $-1 $100 $101 $37 $-1 $102 reversed single #
loop $-1 $-1 $103 $49 #
plane-surface $-1 -42.024447963062755 -19.875609479441525 0 0 1 0 0 0 1 forward_v I I I I #
face $-1 $104 $105 $38 $-1 $106 reversed single #
loop $-1 $-1 $107 $50 #
plane-surface $-1 39.625741276255802 -68.72833734268491 78.452153992367542 -1 0 0 0 -0.52991927123019833 0.84804809178421925 forward_v I I I I #
face $-1 $108 $109 $39 $-1 $110 forward single #
loop $-1 $111 $112 $51 #
cone-surface $-1 30.534060342225985 -15.20010388542436 2.3533481910362721 0 0.52991927123019833 -0.84804809178421925 2 0 0 1 I I 0 1 2 forward I I I I #
face $-1 $113 $114 $40 $-1 $115 reversed single #
loop $-1 $-1 $116 $52 #
plane-surface $-1 -13.639578583979288 64.079309889196281 90.305096786982162 1 0 0 0 -0.7660444514056185 -0.64278759981090561 forward_v I I I I #
face $-1 $117 $118 $41 $-1 $119 forward single #
loop $-1 $120 $121 $53 #
cone-surface $-1 -11.728208141512425 17.286500160485954 2.9623772090198361 0 -0.7660444514056185 -0.64278759981090561 0.5 0 0 1 I I 0 1 0.5 forward I I I I #
face $-1 $122 $123 $42 $-1 $124 forward single #
loop $-1 $125 $126 $54 #
cone-surface $-1 -8.8611524778121336 17.286500160485954 2.9623772090198361 0 -0.7660444514056185 -0.64278759981090561 0.5 0 0 1 I I 0 1 0.5 forward I I I I #
face $-1 $127 $128 $43 $-1 $129 forward single #
loop $-1 $130 $131 $55 #
cone-surface $-1 -5.9940968141118418 17.286500160485954 2.9623772090198361 0 -0.7660444514056185 -0.64278759981090561 0.5 0 0 1 I I 0 1 0.5 forward I I I I #
face $-1 $132 $133 $44 $-1 $134 reversed single #
loop $-1 $-1 $135 $56 #
plane-surface $-1 11.279290817234886 64.079309889196281 90.305096786982162 1 0 0 0 -0.7660444514056185 -0.64278759981090561 forward_v I I I I #
face $-1 $136 $137 $45 $-1 $138 forward single #
loop $-1 $139 $140 $57 #
cone-surface $-1 13.190661259701749 17.286500160485954 2.9623772090198361 0 -0.7660444514056185 -0.64278759981090561 0.5 0 0 1 I I 0 1 0.5 forward I I I I #
face $-1 $141 $142 $46 $-1 $143 forward single #
loop $-1 $144 $145 $58 #
cone-surface $-1 16.05771692340204 17.286500160485954 2.9623772090198361 0 -0.7660444514056185 -0.64278759981090561 0.5 0 0 1 I I 0 1 0.5 forward I I I I #
face $-1 $146 $147 $47 $-1 $148 forward single #
loop $-1 $149 $150 $59 #
cone-surface $-1 18.924772587102339 17.286500160485954 2.9623772090198361 0 -0.7660444514056185 -0.64278759981090561 0.5 0 0 1 I I 0 1 0.5 forward I I I I #
face $-1 $151 $152 $36 $-1 $153 reversed single #
loop $-1 $-1 $154 $60 #
plane-surface $-1 0 0 -6.4431872060970283 0 0 1 1 0 0 forward_v I I I I #
coedge $-1 $155 $156 $157 $158 forward $61 $-1 #
face $-1 $159 $160 $37 $-1 $161 reversed single #
loop $-1 $-1 $162 $63 #
plane-surface $-1 -42.024447963062755 -16.875609479441525 0 0 -1 0 0 0 -1 forward_v I I I I #
coedge $-1 $163 $164 $165 $166 reversed $64 $-1 #
face $-1 $167 $168 $38 $-1 $169 reversed single #
loop $-1 $-1 $170 $66 #
plane-surface $-1 30.53406034222597 -20.375609479441522 1.0716154401616649 0 -0.52991927123019833 0.84804809178421925 1 0 0 forward_v I I I I #
coedge $-1 $171 $172 $173 $174 reversed $67 $-1 #
face $-1 $-1 $175 $39 $-1 $176 forward single #
loop $-1 $177 $178 $69 #
cone-surface $-1 30.534060342225985 -13.792834827389198 0.10124696715897485 0 0.52991927123019833 -0.84804809178421925 1 0 0 1 I I -0.70710678118654746 0.70710678118654746 1 forward I I I I #
loop $-1 $-1 $179 $51 #
coedge $-1 $112 $112 $180 $181 reversed $70 $-1 #
face $-1 $182 $183 $40 $-1 $184 reversed single #
loop $-1 $-1 $185 $72 #
plane-surface $-1 -8.8611524778121336 -5.8187687445075795 31.653646321006093 0 0.7660444514056185 0.64278759981090561 1 0 0 forward_v I I I I #
coedge $-1 $186 $187 $188 $189 reversed $73 $-1 #
face $-1 $-1 $190 $41 $-1 $191 forward single #
loop $-1 $192 $193 $75 #
cone-surface $-1 -11.728208141512425 16.526025645008172 2.3242633402692947 0 -0.7660444514056185 -0.64278759981090561 0.25 0 0 1 I I -0.70710678118654746 0.70710678118654746 0.25 forward I I I I #
loop $-1 $-1 $194 $53 #
coedge $-1 $121 $121 $195 $196 reversed $76 $-1 #
face $-1 $-1 $197 $42 $-1 $198 forward single #
loop $-1 $199 $200 $78 #
cone-surface $-1 -8.8611524778121336 16.526025645008172 2.3242633402692947 0 -0.7660444514056185 -0.64278759981090561 0.25 0 0 1 I I -0.70710678118654746 0.70710678118654746 0.25 forward I I I I #
loop $-1 $-1 $201 $54 #
coedge $-1 $126 $126 $202 $203 reversed $79 $-1 #
face $-1 $-1 $204 $43 $-1 $205 forward single #
loop $-1 $206 $207 $81 #
cone-surface $-1 -5.9940968141118418 16.526025645008172 2.3242633402692947 0 -0.7660444514056185 -0.64278759981090561 0.25 0 0 1 I I -0.70710678118654746 0.70710678118654746 0.25 forward I I I I #
loop $-1 $-1 $208 $55 #
coedge $-1 $131 $131 $209 $210 reversed $82 $-1 #
face $-1 $211 $212 $44 $-1 $213 reversed single #
loop $-1 $-1 $214 $84 #
plane-surface $-1 16.05771692340204 -5.8187687445075795 31.653646321006093 0 0.7660444514056185 0.64278759981090561 1 0 0 forward_v I I I I #
coedge $-1 $215 $216 $217 $218 reversed $85 $-1 #
face $-1 $-1 $219 $45 $-1 $220 forward single #
loop $-1 $221 $222 $87 #
cone-surface $-1 13.190661259701749 16.526025645008172 2.3242633402692947 0 -0.7660444514056185 -0.64278759981090561 0.25 0 0 1 I I -0.70710678118654746 0.70710678118654746 0.25 forward I I I I #
loop $-1 $-1 $223 $57 #
coedge $-1 $140 $140 $224 $225 reversed $88 $-1 #
face $-1 $-1 $226 $46 $-1 $227 forward single #
loop $-1 $228 $229 $90 #
cone-surface $-1 16.05771692340204 16.526025645008172 2.3242633402692947 0 -0.7660444514056185 -0.64278759981090561 0.25 0 0 1 I I -0.70710678118654746 0.70710678118654746 0.25 forward I I I I #
loop $-1 $-1 $230 $58 #
coedge $-1 $145 $145 $231 $232 reversed $91 $-1 #
face $-1 $-1 $233 $47 $-1 $234 forward single #
loop $-1 $235 $236 $93 #
cone-surface $-1 18.924772587102339 16.526025645008172 2.3242633402692947 0 -0.7660444514056185 -0.64278759981090561 0.25 0 0 1 I I -0.70710678118654746 0.70710678118654746 0.25 forward I I I I #
loop $-1 $-1 $237 $59 #
coedge $-1 $150 $150 $238 $239 reversed $94 $-1 #
face $-1 $240 $241 $36 $-1 $242 reversed single #
loop $-1 $-1 $243 $96 #
plane-surface $-1 0 -20.375609479441525 0 0 1 0 0 0 1 forward_v I I I I #
coedge $-1 $244 $245 $246 $247 forward $97 $-1 #
coedge $-1 $248 $99 $249 $250 forward $61 $-1 #
coedge $-1 $99 $248 $251 $252 forward $61 $-1 #
coedge $-1 $253 $254 $99 $158 reversed $255 $-1 #
edge $-1 $256 -20.375609479441525 $257 20.375609479441525 $157 $258 forward 7 unknown #
face $-1 $259 $260 $37 $-1 $261 reversed single #
loop $-1 $-1 $262 $100 #
plane-surface $-1 -38.426165740267791 -18.375609479441525 0 -1 0 0 0 0 1 forward_v I I I I #
coedge $-1 $263 $264 $265 $266 forward $101 $-1 #
coedge $-1 $267 $103 $268 $269 reversed $64 $-1 #
coedge $-1 $103 $267 $270 $271 reversed $64 $-1 #
coedge $-1 $272 $273 $103 $166 forward $274 $-1 #
edge $-1 $275 -6.4431872060970283 $276 6.4431872060970283 $165 $277 forward 7 unknown #
face $-1 $278 $279 $38 $-1 $280 reversed single #
loop $-1 $-1 $281 $104 #
plane-surface $-1 21.442379408196139 -68.72833734268491 78.452153992367542 1 0 0 0 0.52991927123019833 -0.84804809178421925 forward_v I I I I #
coedge $-1 $282 $283 $284 $285 reversed $105 $-1 #
coedge $-1 $172 $107 $286 $287 reversed $67 $-1 #
coedge $-1 $107 $171 $282 $288 reversed $67 $-1 #
coedge $-1 $284 $289 $107 $174 forward $290 $-1 #
edge $-1 $291 13.988559191900929 $292 22.584870806325341 $173 $293 forward 7 unknown #
loop $-1 $-1 $180 $108 #
plane-surface $-1 30.53406034222597 -20.375609479441522 1.0716154401616649 0 -0.52991927123019833 0.84804809178421925 1 0 0 forward_v I I I I #
loop $-1 $-1 $294 $69 #
coedge $-1 $178 $178 $179 $295 reversed $109 $-1 #
coedge $-1 $179 $179 $178 $295 forward $111 $-1 #
coedge $-1 $180 $180 $112 $181 forward $175 $-1 #
edge $-1 $296 1.408839851333494e-016 $296 6.2831853071796004 $180 $297 forward 7 unknown #
face $-1 $298 $299 $40 $-1 $300 reversed single #
loop $-1 $-1 $301 $113 #
plane-surface $-1 -4.0827263716449789 64.079309889196281 90.305096786982162 -1 0 0 0 0.7660444514056185 0.64278759981090561 forward_v I I I I #
coedge $-1 $302 $303 $304 $305 reversed $114 $-1 #
coedge $-1 $187 $116 $306 $307 reversed $73 $-1 #
coedge $-1 $116 $186 $302 $308 reversed $73 $-1 #
coedge $-1 $304 $309 $116 $189 forward $310 $-1 #
edge $-1 $311 11.664045465156615 $312 16.704337297814991 $188 $313 forward 7 unknown #
loop $-1 $-1 $195 $117 #
plane-surface $-1 -8.8611524778121336 -5.8187687445075795 31.653646321006093 0 0.7660444514056185 0.64278759981090561 1 0 0 forward_v I I I I #
loop $-1 $-1 $314 $75 #
coedge $-1 $193 $193 $194 $315 reversed $118 $-1 #
coedge $-1 $194 $194 $193 $315 forward $120 $-1 #
coedge $-1 $195 $195 $121 $196 forward $190 $-1 #
edge $-1 $316 1.7515852106656797e-015 $316 6.2831853071796022 $195 $317 forward 7 unknown #
loop $-1 $-1 $202 $122 #
plane-surface $-1 -8.8611524778121336 -5.8187687445075795 31.653646321006093 0 0.7660444514056185 0.64278759981090561 1 0 0 forward_v I I I I #
loop $-1 $-1 $318 $78 #
coedge $-1 $200 $200 $201 $319 reversed $123 $-1 #
coedge $-1 $201 $201 $200 $319 forward $125 $-1 #
coedge $-1 $202 $202 $126 $203 forward $197 $-1 #
edge $-1 $320 1.7515852106656797e-015 $320 6.2831853071796022 $202 $321 forward 7 unknown #
loop $-1 $-1 $209 $127 #
plane-surface $-1 -8.8611524778121336 -5.8187687445075795 31.653646321006093 0 0.7660444514056185 0.64278759981090561 1 0 0 forward_v I I I I #
loop $-1 $-1 $322 $81 #
coedge $-1 $207 $207 $208 $323 reversed $128 $-1 #
coedge $-1 $208 $208 $207 $323 forward $130 $-1 #
coedge $-1 $209 $209 $131 $210 forward $204 $-1 #
edge $-1 $324 1.7515852106656797e-015 $324 6.2831853071796022 $209 $325 forward 7 unknown #
face $-1 $326 $327 $44 $-1 $328 forward single #
loop $-1 $-1 $329 $132 #
plane-surface $-1 20.836143029569193 64.079309889196281 90.305096786982162 -1 0 0 0 0.7660444514056185 0.64278759981090561 forward_v I I I I #
coedge $-1 $330 $331 $332 $333 reversed $133 $-1 #
coedge $-1 $216 $135 $334 $335 reversed $85 $-1 #
coedge $-1 $135 $215 $330 $336 reversed $85 $-1 #
coedge $-1 $332 $337 $135 $218 forward $327 $-1 #
edge $-1 $338 11.664045465156615 $339 16.704337297814991 $217 $340 forward 7 unknown #
loop $-1 $-1 $224 $136 #
plane-surface $-1 16.05771692340204 -5.8187687445075795 31.653646321006093 0 0.7660444514056185 0.64278759981090561 1 0 0 forward_v I I I I #
loop $-1 $-1 $341 $87 #
coedge $-1 $222 $222 $223 $342 reversed $137 $-1 #
coedge $-1 $223 $223 $222 $342 forward $139 $-1 #
coedge $-1 $224 $224 $140 $225 forward $219 $-1 #
edge $-1 $343 1.7515852106656797e-015 $343 6.2831853071796022 $224 $344 forward 7 unknown #
loop $-1 $-1 $231 $141 #
plane-surface $-1 16.05771692340204 -5.8187687445075795 31.653646321006093 0 0.7660444514056185 0.64278759981090561 1 0 0 forward_v I I I I #
loop $-1 $-1 $345 $90 #
coedge $-1 $229 $229 $230 $346 reversed $142 $-1 #
coedge $-1 $230 $230 $229 $346 forward $144 $-1 #
coedge $-1 $231 $231 $145 $232 forward $226 $-1 #
edge $-1 $347 1.7515852106656797e-015 $347 6.2831853071796022 $231 $348 forward 7 unknown #
loop $-1 $-1 $238 $146 #
plane-surface $-1 16.05771692340204 -5.8187687445075795 31.653646321006093 0 0.7660444514056185 0.64278759981090561 1 0 0 forward_v I I I I #
loop $-1 $-1 $349 $93 #
coedge $-1 $236 $236 $237 $350 reversed $147 $-1 #
coedge $-1 $237 $237 $236 $350 forward $149 $-1 #
coedge $-1 $238 $238 $150 $239 forward $233 $-1 #
edge $-1 $351 1.7515852106656797e-015 $351 6.2831853071796022 $238 $352 forward 7 unknown #
face $-1 $353 $354 $36 $-1 $355 reversed single #
loop $-1 $-1 $356 $151 #
plane-surface $-1 -45.622730185857719 0 0 1 0 0 0 0 -1 forward_v I I I I #
coedge $-1 $357 $251 $358 $359 forward $152 $-1 #
coedge $-1 $360 $154 $357 $361 forward $97 $-1 #
coedge $-1 $154 $360 $362 $363 forward $97 $-1 #
coedge $-1 $254 $253 $154 $247 reversed $255 $-1 #
edge $-1 $364 -20.375609479441525 $365 20.375609479441525 $246 $366 forward 7 unknown #
coedge $-1 $156 $155 $367 $368 forward $61 $-1 #
coedge $-1 $369 $370 $155 $250 reversed $354 $-1 #
edge $-1 $257 -45.622730185857719 $371 45.622730185857719 $249 $372 forward 7 unknown #
coedge $-1 $243 $373 $156 $252 reversed $152 $-1 #
edge $-1 $374 -45.622730185857719 $256 45.622730185857719 $251 $375 forward 7 unknown #
coedge $-1 $246 $157 $373 $376 forward $255 $-1 #
coedge $-1 $157 $246 $369 $377 reversed $255 $-1 #
loop $-1 $-1 $253 $353 #
vertex $-1 $158 $378 #
vertex $-1 $158 $379 #
straight-curve $-1 45.622730185857719 0 6.4431872060970283 0 1 0 I I #
face $-1 $380 $381 $37 $-1 $382 forward single #
loop $-1 $-1 $383 $159 #
plane-surface $-1 0 0 -6.4431872060970283 0 0 1 1 0 0 forward_v I I I I #
coedge $-1 $384 $385 $267 $386 forward $160 $-1 #
coedge $-1 $387 $162 $383 $388 reversed $101 $-1 #
coedge $-1 $162 $387 $389 $390 reversed $101 $-1 #
coedge $-1 $385 $384 $162 $266 reversed $160 $-1 #
edge $-1 $391 -6.4431872060970283 $392 6.4431872060970283 $265 $393 forward 7 unknown #
coedge $-1 $164 $163 $262 $386 reversed $64 $-1 #
coedge $-1 $394 $395 $163 $269 forward $260 $-1 #
edge $-1 $396 17.413941758736414 $275 24.610506204326342 $268 $397 forward 7 unknown #
coedge $-1 $398 $399 $164 $271 forward $381 $-1 #
edge $-1 $276 -24.610506204326342 $400 -17.413941758736414 $270 $401 forward 7 unknown #
coedge $-1 $402 $165 $399 $403 reversed $274 $-1 #
coedge $-1 $165 $402 $394 $404 reversed $274 $-1 #
loop $-1 $-1 $402 $380 #
vertex $-1 $404 $405 #
vertex $-1 $166 $406 #
straight-curve $-1 -45.622730185857719 -19.875609479441525 0 0 0 1 I I #
face $-1 $-1 $290 $38 $-1 $407 forward single #
loop $-1 $-1 $408 $167 #
plane-surface $-1 0 -20.375609479441525 0 0 1 0 0 0 1 forward_v I I I I #
coedge $-1 $409 $410 $411 $412 reversed $168 $-1 #
coedge $-1 $413 $170 $172 $288 forward $105 $-1 #
coedge $-1 $170 $413 $409 $414 forward $105 $-1 #
coedge $-1 $411 $173 $170 $285 forward $290 $-1 #
edge $-1 $292 -24.358711105142817 $415 -6.1753492370831538 $284 $416 forward 7 unknown #
coedge $-1 $417 $418 $171 $287 forward $279 $-1 #
edge $-1 $419 -38.154461556022106 $291 -32.782889790086742 $286 $420 forward 7 unknown #
edge $-1 $292 -10.136585056560319 $419 4.1895292081871576e-015 $172 $421 forward 7 unknown #
coedge $-1 $173 $411 $417 $422 forward $290 $-1 #
loop $-1 $-1 $411 $278 #
vertex $-1 $287 $423 #
vertex $-1 $174 $424 #
straight-curve $-1 39.625741276255802 -34.364168671342455 6.4431872060970292 0 1 0 I I #
coedge $-1 $294 $294 $-1 $425 reversed $177 $-1 #
edge $-1 $426 0 $426 6.2831853071796004 $178 $427 forward 7 unknown #
vertex $-1 $181 $428 #
ellipse-curve $-1 30.534060342225985 -16.077453672229321 3.7574013231293444 0 -0.52991927123019833 0.84804809178421925 2 0 0 1 I I #
face $-1 $-1 $310 $40 $-1 $429 forward single #
loop $-1 $-1 $430 $182 #
plane-surface $-1 0 20.375609479441525 0 0 -1 0 0 0 -1 forward_v I I I I #
coedge $-1 $431 $432 $433 $434 reversed $183 $-1 #
coedge $-1 $435 $185 $187 $308 forward $114 $-1 #
coedge $-1 $185 $435 $431 $436 forward $114 $-1 #
coedge $-1 $433 $188 $185 $305 forward $310 $-1 #
edge $-1 $312 -9.2090023450732215 $437 0.34784986726108791 $304 $438 forward 7 unknown #
coedge $-1 $439 $440 $186 $307 forward $299 $-1 #
edge $-1 $441 -44.71614724395279 $311 -38.709361187394052 $306 $442 forward 7 unknown #
edge $-1 $312 32.909916740014609 $441 40.751218958883058 $187 $443 forward 7 unknown #
coedge $-1 $188 $433 $439 $444 forward $310 $-1 #
loop $-1 $-1 $433 $298 #
vertex $-1 $307 $445 #
vertex $-1 $189 $446 #
straight-curve $-1 -13.639578583979288 32.039654944598141 6.4431872060970292 0 -1 0 I I #
coedge $-1 $314 $314 $-1 $447 reversed $192 $-1 #
edge $-1 $448 0 $448 6.2831853071796004 $193 $449 forward 7 unknown #
vertex $-1 $196 $450 #
ellipse-curve $-1 -11.728208141512425 17.855463563112341 3.4397941778176584 0 0.7660444514056185 0.64278759981090561 0.5 0 0 1 I I #
coedge $-1 $318 $318 $-1 $451 reversed $199 $-1 #
edge $-1 $452 0 $452 6.2831853071796004 $200 $453 forward 7 unknown #
vertex $-1 $203 $454 #
ellipse-curve $-1 -8.8611524778121336 17.855463563112341 3.4397941778176584 0 0.7660444514056185 0.64278759981090561 0.5 0 0 1 I I #
coedge $-1 $322 $322 $-1 $455 reversed $206 $-1 #
edge $-1 $456 0 $456 6.2831853071796004 $207 $457 forward 7 unknown #
vertex $-1 $210 $458 #
ellipse-curve $-1 -5.9940968141118418 17.855463563112341 3.4397941778176584 0 0.7660444514056185 0.64278759981090561 0.5 0 0 1 I I #
face $-1 $-1 $459 $44 $-1 $460 reversed single #
loop $-1 $-1 $217 $211 #
plane-surface $-1 0 0 6.4431872060970283 0 0 1 1 0 0 forward_v I I I I #
coedge $-1 $461 $462 $463 $464 reversed $212 $-1 #
coedge $-1 $465 $214 $216 $336 forward $133 $-1 #
coedge $-1 $214 $465 $461 $466 forward $133 $-1 #
coedge $-1 $463 $217 $214 $333 forward $327 $-1 #
edge $-1 $339 3.2504323555338654 $467 12.807284567868173 $332 $468 forward 7 unknown #
coedge $-1 $469 $470 $215 $335 forward $459 $-1 #
edge $-1 $471 -44.71614724395279 $338 -38.709361187394052 $334 $472 forward 7 unknown #
edge $-1 $339 32.909916740014609 $471 40.751218958883058 $216 $473 forward 7 unknown #
coedge $-1 $217 $463 $469 $474 forward $327 $-1 #
vertex $-1 $335 $475 #
vertex $-1 $218 $476 #
straight-curve $-1 11.279290817234886 32.039654944598141 6.4431872060970292 0 -1 0 I I #
coedge $-1 $341 $341 $-1 $477 reversed $221 $-1 #
edge $-1 $478 0 $478 6.2831853071796004 $222 $479 forward 7 unknown #
vertex $-1 $225 $480 #
ellipse-curve $-1 13.190661259701749 17.855463563112341 3.4397941778176584 0 0.7660444514056185 0.64278759981090561 0.5 0 0 1 I I #
coedge $-1 $345 $345 $-1 $481 reversed $228 $-1 #
edge $-1 $482 0 $482 6.2831853071796004 $229 $483 forward 7 unknown #
vertex $-1 $232 $484 #
ellipse-curve $-1 16.05771692340204 17.855463563112341 3.4397941778176584 0 0.7660444514056185 0.64278759981090561 0.5 0 0 1 I I #
coedge $-1 $349 $349 $-1 $485 reversed $235 $-1 #
edge $-1 $486 0 $486 6.2831853071796004 $236 $487 forward 7 unknown #
vertex $-1 $239 $488 #
ellipse-curve $-1 18.924772587102339 17.855463563112341 3.4397941778176584 0 0.7660444514056185 0.64278759981090561 0.5 0 0 1 I I #
face $-1 $-1 $255 $36 $-1 $489 reversed single #
loop $-1 $-1 $369 $240 #
plane-surface $-1 0 20.375609479441525 0 0 -1 0 0 0 -1 forward_v I I I I #
coedge $-1 $490 $367 $370 $491 forward $241 $-1 #
coedge $-1 $373 $243 $244 $361 reversed $152 $-1 #
coedge $-1 $367 $490 $243 $359 reversed $241 $-1 #
edge $-1 $374 -6.4431872060970283 $492 6.4431872060970283 $358 $493 forward 7 unknown #
coedge $-1 $245 $244 $490 $494 forward $97 $-1 #
edge $-1 $365 -45.622730185857719 $492 45.622730185857719 $357 $495 forward 7 unknown #
coedge $-1 $370 $369 $245 $363 reversed $354 $-1 #
edge $-1 $496 -45.622730185857719 $364 45.622730185857719 $362 $497 forward 7 unknown #
vertex $-1 $247 $498 #
vertex $-1 $376 $499 #
straight-curve $-1 45.622730185857719 0 -6.4431872060970283 0 -1 0 I I #
coedge $-1 $356 $358 $248 $368 reversed $241 $-1 #
edge $-1 $371 -20.375609479441525 $374 20.375609479441525 $367 $500 forward 7 unknown #
coedge $-1 $362 $249 $254 $377 forward $354 $-1 #
coedge $-1 $249 $362 $356 $491 reversed $354 $-1 #
vertex $-1 $250 $501 #
straight-curve $-1 0 20.375609479441525 6.4431872060970283 -1 0 0 I I #
coedge $-1 $251 $357 $253 $376 reversed $152 $-1 #
vertex $-1 $368 $502 #
straight-curve $-1 0 -20.375609479441525 6.4431872060970283 1 0 0 I I #
edge $-1 $256 -6.4431872060970283 $365 6.4431872060970283 $253 $503 forward 7 unknown #
edge $-1 $257 -6.4431872060970283 $364 6.4431872060970283 $254 $504 forward 7 unknown #
point $-1 45.622730185857719 -20.375609479441525 6.4431872060970283 #
point $-1 45.622730185857719 20.375609479441525 6.4431872060970283 #
face $-1 $-1 $274 $37 $-1 $505 reversed single #
loop $-1 $-1 $389 $259 #
plane-surface $-1 0 0 6.4431872060970283 0 0 1 1 0 0 forward_v I I I I #
coedge $-1 $395 $394 $263 $388 forward $260 $-1 #
coedge $-1 $265 $262 $395 $506 reversed $160 $-1 #
coedge $-1 $262 $265 $398 $507 reversed $160 $-1 #
edge $-1 $400 -6.4431872060970283 $396 6.4431872060970283 $262 $508 forward 7 unknown #
coedge $-1 $264 $263 $402 $509 reversed $101 $-1 #
edge $-1 $510 -24.610506204326342 $392 -17.413941758736414 $383 $511 forward 7 unknown #
coedge $-1 $399 $398 $264 $390 forward $381 $-1 #
edge $-1 $391 17.413941758736414 $512 24.610506204326342 $389 $513 forward 7 unknown #
vertex $-1 $390 $514 #
vertex $-1 $388 $515 #
straight-curve $-1 -38.426165740267791 -16.875609479441525 0 0 0 -1 I I #
coedge $-1 $383 $268 $273 $404 forward $260 $-1 #
coedge $-1 $268 $383 $384 $506 forward $260 $-1 #
vertex $-1 $269 $516 #
straight-curve $-1 -21.012223981531378 -19.875609479441525 -6.4431872060970283 -1 0 0 I I #
coedge $-1 $389 $270 $385 $507 forward $381 $-1 #
coedge $-1 $270 $389 $272 $403 forward $381 $-1 #
vertex $-1 $271 $517 #
straight-curve $-1 -21.012223981531378 -19.875609479441525 6.4431872060970283 1 0 0 I I #
coedge $-1 $273 $272 $387 $509 forward $274 $-1 #
edge $-1 $512 16.875609479441525 $276 19.875609479441525 $272 $518 forward 7 unknown #
edge $-1 $275 -19.875609479441525 $510 -16.875609479441525 $273 $519 forward 7 unknown #
point $-1 -45.622730185857719 -19.875609479441525 -6.4431872060970283 #
point $-1 -45.622730185857719 -19.875609479441525 6.4431872060970283 #
plane-surface $-1 0 0 6.4431872060970283 0 0 1 1 0 0 forward_v I I I I #
coedge $-1 $418 $417 $410 $520 forward $279 $-1 #
coedge $-1 $410 $281 $283 $414 reversed $168 $-1 #
coedge $-1 $281 $409 $408 $520 reversed $168 $-1 #
coedge $-1 $289 $284 $281 $412 forward $290 $-1 #
edge $-1 $415 -22.584870806325341 $521 -13.988559191900929 $411 $522 forward 7 unknown #
coedge $-1 $283 $282 $418 $523 reversed $105 $-1 #
edge $-1 $524 -4.1895292081871576e-015 $415 10.136585056560319 $409 $525 forward 7 unknown #
vertex $-1 $285 $526 #
straight-curve $-1 15.267030171112985 -11.77929786501711 6.4431872060970283 -1 0 0 I I #
coedge $-1 $408 $286 $289 $422 reversed $279 $-1 #
coedge $-1 $286 $408 $413 $523 forward $279 $-1 #
vertex $-1 $287 $527 #
straight-curve $-1 39.625741276255802 -20.375609479441525 39.226076996183771 0 0 1 I I #
straight-curve $-1 39.625741276255802 -20.375609479441522 1.0716154401616649 0 -0.84804809178421925 -0.52991927123019833 I I #
edge $-1 $521 21.442379408196139 $291 39.625741276255802 $417 $528 forward 7 unknown #
point $-1 39.625741276255802 -20.375609479441525 6.4431872060970283 #
point $-1 39.625741276255802 -11.779297865017112 6.4431872060970283 #
edge $-1 $529 1 $529 0 $294 $-1 forward 7 unknown #
vertex $-1 $295 $530 #
ellipse-curve $-1 30.534060342225985 -14.322754098619397 0.9492950589431941 0 -0.52991927123019833 0.84804809178421925 2 0 0 1 I I #
point $-1 32.534060342225985 -16.077453672229325 3.7574013231293506 #
plane-surface $-1 0 0 6.4431872060970283 0 0 1 1 0 0 forward_v I I I I #
coedge $-1 $440 $439 $432 $531 forward $299 $-1 #
coedge $-1 $432 $301 $303 $436 reversed $183 $-1 #
coedge $-1 $301 $431 $430 $531 reversed $183 $-1 #
coedge $-1 $309 $304 $301 $434 forward $310 $-1 #
edge $-1 $437 -16.704337297814991 $532 -11.664045465156615 $433 $533 forward 7 unknown #
coedge $-1 $303 $302 $440 $534 reversed $114 $-1 #
edge $-1 $535 -40.751218958883058 $437 -32.909916740014609 $431 $536 forward 7 unknown #
vertex $-1 $305 $537 #
straight-curve $-1 -4.4305762389060668 15.33531764678315 6.4431872060970292 1 0 0 I I #
coedge $-1 $430 $306 $309 $444 reversed $299 $-1 #
coedge $-1 $306 $430 $435 $534 forward $299 $-1 #
vertex $-1 $307 $538 #
straight-curve $-1 -13.639578583979288 20.375609479441525 45.152548393491081 0 0 1 I I #
straight-curve $-1 -13.639578583979288 -5.8187687445075795 31.653646321006093 0 0.64278759981090561 -0.7660444514056185 I I #
edge $-1 $532 4.0827263716449789 $311 13.639578583979288 $439 $539 forward 7 unknown #
point $-1 -13.639578583979288 20.375609479441525 6.4431872060970283 #
point $-1 -13.639578583979288 15.33531764678315 6.4431872060970292 #
edge $-1 $540 1 $540 0 $314 $-1 forward 7 unknown #
vertex $-1 $315 $541 #
ellipse-curve $-1 -11.728208141512425 16.717536757859577 2.484960240222021 0 0.7660444514056185 0.64278759981090561 0.5 0 0 1 I I #
point $-1 -11.228208141512425 17.855463563112334 3.4397941778176513 #
edge $-1 $542 1 $542 0 $318 $-1 forward 7 unknown #
vertex $-1 $319 $543 #
ellipse-curve $-1 -8.8611524778121336 16.717536757859577 2.484960240222021 0 0.7660444514056185 0.64278759981090561 0.5 0 0 1 I I #
point $-1 -8.3611524778121336 17.855463563112334 3.4397941778176513 #
edge $-1 $544 1 $544 0 $322 $-1 forward 7 unknown #
vertex $-1 $323 $545 #
ellipse-curve $-1 -5.9940968141118418 16.717536757859577 2.484960240222021 0 0.7660444514056185 0.64278759981090561 0.5 0 0 1 I I #
point $-1 -5.4940968141118418 17.855463563112334 3.4397941778176513 #
loop $-1 $-1 $334 $326 #
plane-surface $-1 0 20.375609479441525 0 0 -1 0 0 0 -1 forward_v I I I I #
coedge $-1 $462 $329 $331 $466 reversed $212 $-1 #
coedge $-1 $329 $461 $546 $547 reversed $212 $-1 #
coedge $-1 $337 $332 $329 $464 forward $327 $-1 #
edge $-1 $467 -16.704337297814991 $548 -11.664045465156615 $463 $549 forward 7 unknown #
coedge $-1 $331 $330 $470 $550 reversed $133 $-1 #
edge $-1 $551 -40.751218958883058 $467 -32.909916740014609 $461 $552 forward 7 unknown #
vertex $-1 $333 $553 #
straight-curve $-1 8.0288584617010201 15.33531764678315 6.4431872060970292 1 0 0 I I #
coedge $-1 $546 $334 $337 $474 reversed $459 $-1 #
coedge $-1 $334 $546 $465 $550 forward $459 $-1 #
vertex $-1 $335 $554 #
straight-curve $-1 11.279290817234886 20.375609479441525 45.152548393491081 0 0 1 I I #
straight-curve $-1 11.279290817234886 -5.8187687445075795 31.653646321006093 0 0.64278759981090561 -0.7660444514056185 I I #
edge $-1 $548 -20.836143029569193 $338 -11.279290817234886 $469 $555 forward 7 unknown #
point $-1 11.279290817234886 20.375609479441525 6.4431872060970283 #
point $-1 11.279290817234886 15.33531764678315 6.4431872060970292 #
edge $-1 $556 1 $556 0 $341 $-1 forward 7 unknown #
vertex $-1 $342 $557 #
ellipse-curve $-1 13.190661259701749 16.717536757859577 2.484960240222021 0 0.7660444514056185 0.64278759981090561 0.5 0 0 1 I I #
point $-1 13.690661259701749 17.855463563112334 3.4397941778176513 #
edge $-1 $558 1 $558 0 $345 $-1 forward 7 unknown #
vertex $-1 $346 $559 #
ellipse-curve $-1 16.05771692340204 16.717536757859577 2.484960240222021 0 0.7660444514056185 0.64278759981090561 0.5 0 0 1 I I #
point $-1 16.55771692340204 17.855463563112334 3.4397941778176513 #
edge $-1 $560 1 $560 0 $349 $-1 forward 7 unknown #
vertex $-1 $350 $561 #
ellipse-curve $-1 18.924772587102339 16.717536757859577 2.484960240222021 0 0.7660444514056185 0.64278759981090561 0.5 0 0 1 I I #
point $-1 19.424772587102339 17.855463563112334 3.4397941778176513 #
plane-surface $-1 45.622730185857719 0 0 -1 0 0 0 0 1 forward_v I I I I #
coedge $-1 $358 $356 $360 $494 reversed $241 $-1 #
edge $-1 $371 -6.4431872060970283 $496 6.4431872060970283 $370 $562 forward 7 unknown #
vertex $-1 $494 $563 #
straight-curve $-1 -45.622730185857719 -20.375609479441525 0 0 0 -1 I I #
edge $-1 $492 -20.375609479441525 $496 20.375609479441525 $490 $564 forward 7 unknown #
straight-curve $-1 0 -20.375609479441525 -6.4431872060970283 -1 0 0 I I #
vertex $-1 $363 $565 #
straight-curve $-1 0 20.375609479441525 -6.4431872060970283 1 0 0 I I #
point $-1 45.622730185857719 20.375609479441525 -6.4431872060970283 #
point $-1 45.622730185857719 -20.375609479441525 -6.4431872060970283 #
straight-curve $-1 -45.622730185857719 0 6.4431872060970283 0 -1 0 I I #
point $-1 -45.622730185857719 20.375609479441525 6.4431872060970283 #
point $-1 -45.622730185857719 -20.375609479441525 6.4431872060970283 #
straight-curve $-1 45.622730185857719 -20.375609479441525 0 0 0 -1 I I #
straight-curve $-1 45.622730185857719 20.375609479441525 0 0 0 -1 I I #
plane-surface $-1 -45.622730185857719 0 0 1 0 0 0 0 -1 forward_v I I I I #
edge $-1 $392 7.6878047397207627 $396 10.687804739720763 $395 $566 forward 7 unknown #
edge $-1 $400 -10.687804739720763 $391 -7.6878047397207627 $398 $567 forward 7 unknown #
straight-curve $-1 -38.426165740267791 -19.875609479441525 0 0 0 -1 I I #
edge $-1 $512 -6.4431872060970283 $510 6.4431872060970283 $402 $568 forward 7 unknown #
vertex $-1 $509 $569 #
straight-curve $-1 -21.012223981531378 -16.875609479441525 -6.4431872060970283 1 0 0 I I #
vertex $-1 $403 $570 #
straight-curve $-1 -21.012223981531378 -16.875609479441525 6.4431872060970283 -1 0 0 I I #
point $-1 -38.426165740267791 -16.875609479441525 6.4431872060970283 #
point $-1 -38.426165740267791 -16.875609479441525 -6.4431872060970283 #
point $-1 -38.426165740267791 -19.875609479441525 -6.4431872060970283 #
point $-1 -38.426165740267791 -19.875609479441525 6.4431872060970283 #
straight-curve $-1 -45.622730185857719 0 6.4431872060970283 0 -1 0 I I #
straight-curve $-1 -45.622730185857719 0 -6.4431872060970283 0 1 0 I I #
edge $-1 $521 32.782889790086742 $524 38.154461556022106 $408 $571 forward 7 unknown #
vertex $-1 $422 $572 #
straight-curve $-1 21.442379408196139 -34.364168671342455 6.4431872060970292 0 -1 0 I I #
edge $-1 $524 6.1753492370831538 $419 24.358711105142817 $418 $573 forward 7 unknown #
vertex $-1 $523 $574 #
straight-curve $-1 21.442379408196139 -20.375609479441522 1.0716154401616649 0 0.84804809178421925 0.52991927123019833 I I #
point $-1 21.442379408196139 -11.779297865017112 6.4431872060970283 #
point $-1 39.625741276255802 -20.375609479441525 1.0716154401616627 #
straight-curve $-1 0 -20.375609479441525 6.4431872060970283 1 0 0 I I #
vertex $-1 $425 $575 #
point $-1 32.534060342225985 -14.322754098619397 0.9492950589431941 #
edge $-1 $532 38.709361187394052 $535 44.71614724395279 $430 $576 forward 7 unknown #
vertex $-1 $444 $577 #
straight-curve $-1 -4.0827263716449789 32.039654944598141 6.4431872060970292 0 1 0 I I #
edge $-1 $535 -0.34784986726108791 $441 9.2090023450732215 $440 $578 forward 7 unknown #
vertex $-1 $534 $579 #
straight-curve $-1 -4.0827263716449789 -5.8187687445075795 31.653646321006093 0 -0.64278759981090561 0.7660444514056185 I I #
point $-1 -4.0827263716449789 15.33531764678315 6.4431872060970292 #
point $-1 -13.639578583979288 20.375609479441525 0.43640114953829112 #
straight-curve $-1 0 20.375609479441525 6.4431872060970283 -1 0 0 I I #
vertex $-1 $447 $580 #
point $-1 -11.228208141512425 16.717536757859577 2.484960240222021 #
vertex $-1 $451 $581 #
point $-1 -8.3611524778121336 16.717536757859577 2.484960240222021 #
vertex $-1 $455 $582 #
point $-1 -5.4940968141118418 16.717536757859577 2.484960240222021 #
coedge $-1 $470 $469 $462 $547 forward $459 $-1 #
edge $-1 $548 38.709361187394052 $551 44.71614724395279 $546 $583 forward 7 unknown #
vertex $-1 $474 $584 #
straight-curve $-1 20.836143029569193 32.039654944598141 6.4431872060970292 0 1 0 I I #
edge $-1 $551 -12.807284567868173 $471 -3.2504323555338654 $470 $585 forward 7 unknown #
vertex $-1 $550 $586 #
straight-curve $-1 20.836143029569193 -5.8187687445075795 31.653646321006093 0 -0.64278759981090561 0.7660444514056185 I I #
point $-1 20.836143029569193 15.33531764678315 6.4431872060970292 #
point $-1 11.279290817234886 20.375609479441525 0.43640114953829112 #
straight-curve $-1 0 20.375609479441525 6.4431872060970283 -1 0 0 I I #
vertex $-1 $477 $587 #
point $-1 13.690661259701749 16.717536757859577 2.484960240222021 #
vertex $-1 $481 $588 #
point $-1 16.55771692340204 16.717536757859577 2.484960240222021 #
vertex $-1 $485 $589 #
point $-1 19.424772587102339 16.717536757859577 2.484960240222021 #
straight-curve $-1 -45.622730185857719 20.375609479441525 0 0 0 -1 I I #
point $-1 -45.622730185857719 -20.375609479441525 -6.4431872060970283 #
straight-curve $-1 -45.622730185857719 0 -6.4431872060970283 0 1 0 I I #
point $-1 -45.622730185857719 20.375609479441525 -6.4431872060970283 #
straight-curve $-1 -38.426165740267791 -9.1878047397207627 -6.4431872060970283 0 -1 0 I I #
straight-curve $-1 -38.426165740267791 -9.1878047397207627 6.4431872060970283 0 1 0 I I #
straight-curve $-1 -45.622730185857719 -16.875609479441525 0 0 0 -1 I I #
point $-1 -45.622730185857719 -16.875609479441525 -6.4431872060970283 #
point $-1 -45.622730185857719 -16.875609479441525 6.4431872060970283 #
straight-curve $-1 21.442379408196139 -20.375609479441525 39.226076996183771 0 0 -1 I I #
point $-1 21.442379408196139 -20.375609479441525 6.4431872060970283 #
straight-curve $-1 15.267030171112985 -20.375609479441525 1.0716154401616607 1 0 0 I I #
point $-1 21.442379408196139 -20.375609479441525 1.0716154401616627 #
point $-1 30.534060342225985 -13.262915556158999 -0.74680112462524439 #
straight-curve $-1 -4.0827263716449789 20.375609479441525 45.152548393491081 0 0 -1 I I #
point $-1 -4.0827263716449789 20.375609479441525 6.4431872060970283 #
straight-curve $-1 -4.4305762389060668 20.375609479441522 0.43640114953829112 -1 0 0 I I #
point $-1 -4.0827263716449789 20.375609479441525 0.43640114953829112 #
point $-1 -11.728208141512425 16.334514532156767 2.1635664403165684 #
point $-1 -8.8611524778121336 16.334514532156767 2.1635664403165684 #
point $-1 -5.9940968141118418 16.334514532156767 2.1635664403165684 #
straight-curve $-1 20.836143029569193 20.375609479441525 45.152548393491081 0 0 -1 I I #
point $-1 20.836143029569193 20.375609479441525 6.4431872060970283 #
straight-curve $-1 8.0288584617010201 20.375609479441522 0.43640114953829112 -1 0 0 I I #
point $-1 20.836143029569193 20.375609479441525 0.43640114953829112 #
point $-1 13.190661259701749 16.334514532156767 2.1635664403165684 #
point $-1 16.05771692340204 16.334514532156767 2.1635664403165684 #
point $-1 18.924772587102339 16.334514532156767 2.1635664403165684 #
End-of-ACIS-data 