500 0 3 0           
7 Unknown 11 ACIS 5.0 NT 24 Fri Mar 26 15:18:09 1999 
-1 9.9999999999999995e-007 1e-010 
body $-1 $3 $-1 $4 #
body $-1 $5 $-1 $6 #
body $-1 $7 $-1 $8 #
lump $-1 $-1 $9 $0 #
transform $-1 1 0 0 0 1 0 0 0 1 77.921079134495074 35.343310236778457 10.596089870083942 1 rotate no_reflect no_shear #
lump $-1 $-1 $10 $1 #
transform $-1 1 0 0 0 1 0 0 0 1 77.921079134495074 35.343310236778457 10.596089870083942 1 rotate no_reflect no_shear #
lump $-1 $-1 $11 $2 #
transform $-1 1 0 0 0 1 0 0 0 1 77.921079134495074 35.343310236778457 10.596089870083942 1 rotate no_reflect no_shear #
shell $-1 $-1 $-1 $12 $-1 $3 #
shell $-1 $-1 $-1 $13 $-1 $5 #
shell $-1 $-1 $-1 $14 $-1 $7 #
face $-1 $15 $16 $9 $-1 $17 forward single #
face $-1 $18 $19 $10 $-1 $20 forward single #
face $-1 $21 $22 $11 $-1 $23 forward single #
face $-1 $24 $25 $9 $-1 $26 reversed single #
loop $-1 $-1 $27 $12 #
plane-surface $-1 0 0 10.596089870083942 0 0 1 1 0 0 forward_v I I I I #
face $-1 $28 $29 $10 $-1 $30 reversed single #
loop $-1 $-1 $31 $13 #
plane-surface $-1 0 -40.10864028649425 -4.7293220353405463 0 0 1 1 0 0 forward_v I I I I #
face $-1 $32 $33 $11 $-1 $34 forward single #
loop $-1 $-1 $35 $14 #
plane-surface $-1 0 29.736003832964407 5.4113885276645615 0 0 1 1 0 0 forward_v I I I I #
face $-1 $36 $37 $9 $-1 $38 reversed single #
loop $-1 $-1 $39 $15 #
plane-surface $-1 0 0 -10.596089870083942 0 0 1 1 0 0 forward_v I I I I #
coedge $-1 $40 $41 $42 $43 forward $16 $-1 #
face $-1 $44 $45 $10 $-1 $46 forward single #
loop $-1 $-1 $47 $18 #
plane-surface $-1 0 -44.873970336210043 -7.6627059527122441 0 1 0 0 0 1 forward_v I I I I #
coedge $-1 $48 $49 $50 $51 forward $19 $-1 #
face $-1 $52 $53 $11 $-1 $54 forward single #
loop $-1 $-1 $55 $21 #
plane-surface $-1 0 24.128697429150353 8.0037391988742517 0 1 0 0 0 1 forward_v I I I I #
coedge $-1 $56 $57 $58 $59 reversed $22 $-1 #
face $-1 $60 $61 $9 $-1 $62 reversed single #
loop $-1 $-1 $63 $24 #
plane-surface $-1 0 -35.343310236778457 0 0 1 0 0 0 1 forward_v I I I I #
coedge $-1 $64 $65 $66 $67 forward $25 $-1 #
coedge $-1 $68 $27 $69 $70 forward $16 $-1 #
coedge $-1 $27 $68 $71 $72 forward $16 $-1 #
coedge $-1 $73 $74 $27 $43 reversed $75 $-1 #
edge $-1 $76 -35.343310236778457 $77 35.343310236778457 $42 $78 forward 7 unknown #
face $-1 $79 $80 $10 $-1 $81 reversed single #
loop $-1 $-1 $82 $28 #
plane-surface $-1 0 0 10.596089870083942 0 0 1 1 0 0 forward_v I I I I #
coedge $-1 $83 $84 $85 $86 forward $29 $-1 #
coedge $-1 $87 $31 $88 $89 reversed $19 $-1 #
coedge $-1 $31 $87 $84 $90 forward $19 $-1 #
coedge $-1 $91 $92 $31 $51 reversed $93 $-1 #
edge $-1 $94 -4.7653300497157929 $95 4.7653300497157929 $50 $96 forward 7 unknown #
face $-1 $97 $98 $11 $-1 $99 reversed single #
loop $-1 $-1 $100 $32 #
plane-surface $-1 0 0 10.596089870083942 0 0 1 1 0 0 forward_v I I I I #
coedge $-1 $101 $102 $103 $104 reversed $33 $-1 #
coedge $-1 $105 $35 $106 $107 reversed $22 $-1 #
coedge $-1 $35 $105 $102 $108 reversed $22 $-1 #
coedge $-1 $109 $110 $35 $59 forward $111 $-1 #
edge $-1 $112 -20.475308320296261 $113 -9.2606955126681498 $58 $114 forward 7 unknown #
face $-1 $115 $116 $9 $-1 $117 reversed single #
loop $-1 $-1 $118 $36 #
plane-surface $-1 -77.921079134495074 0 0 1 0 0 0 0 -1 forward_v I I I I #
coedge $-1 $119 $71 $120 $121 forward $37 $-1 #
coedge $-1 $122 $39 $119 $123 forward $25 $-1 #
coedge $-1 $39 $122 $124 $125 forward $25 $-1 #
coedge $-1 $74 $73 $39 $67 reversed $75 $-1 #
edge $-1 $126 -35.343310236778457 $127 35.343310236778457 $66 $128 forward 7 unknown #
coedge $-1 $41 $40 $129 $130 forward $16 $-1 #
coedge $-1 $131 $132 $40 $70 reversed $116 $-1 #
edge $-1 $77 -77.921079134495074 $133 77.921079134495074 $69 $134 forward 7 unknown #
coedge $-1 $63 $135 $41 $72 reversed $37 $-1 #
edge $-1 $136 -77.921079134495074 $76 77.921079134495074 $71 $137 forward 7 unknown #
coedge $-1 $66 $42 $135 $138 forward $75 $-1 #
coedge $-1 $42 $66 $131 $139 reversed $75 $-1 #
loop $-1 $-1 $73 $115 #
vertex $-1 $43 $140 #
vertex $-1 $43 $141 #
straight-curve $-1 77.921079134495074 0 10.596089870083942 0 1 0 I I #
face $-1 $142 $143 $10 $-1 $144 reversed single #
loop $-1 $-1 $145 $44 #
plane-surface $-1 0 0 -10.596089870083942 0 0 1 1 0 0 forward_v I I I I #
coedge $-1 $146 $147 $148 $149 forward $45 $-1 #
coedge $-1 $150 $47 $151 $152 reversed $29 $-1 #
coedge $-1 $47 $150 $49 $90 reversed $29 $-1 #
coedge $-1 $153 $154 $47 $86 reversed $155 $-1 #
edge $-1 $156 -2.9333839173716978 $157 2.9333839173716978 $85 $158 forward 7 unknown #
coedge $-1 $49 $48 $153 $159 forward $19 $-1 #
coedge $-1 $160 $161 $48 $89 forward $143 $-1 #
edge $-1 $162 -77.921079134495074 $95 77.921079134495074 $88 $163 forward 7 unknown #
edge $-1 $156 -77.921079134495074 $94 77.921079134495074 $84 $164 forward 7 unknown #
coedge $-1 $165 $50 $150 $166 forward $93 $-1 #
coedge $-1 $50 $148 $160 $167 forward $93 $-1 #
loop $-1 $-1 $92 $168 #
vertex $-1 $51 $169 #
vertex $-1 $51 $170 #
straight-curve $-1 77.921079134495074 -40.10864028649425 -4.7293220353405463 0 1 0 I I #
face $-1 $171 $172 $11 $-1 $173 forward single #
loop $-1 $-1 $103 $52 #
plane-surface $-1 -77.921079134495074 0 0 1 0 0 0 0 -1 forward_v I I I I #
coedge $-1 $174 $175 $101 $176 forward $53 $-1 #
coedge $-1 $177 $55 $100 $176 reversed $33 $-1 #
coedge $-1 $55 $177 $57 $108 forward $33 $-1 #
coedge $-1 $178 $179 $55 $104 forward $98 $-1 #
edge $-1 $180 -6.594220270646816 $181 -1.4095189282274356 $103 $182 forward 7 unknown #
coedge $-1 $57 $56 $178 $183 reversed $22 $-1 #
coedge $-1 $184 $185 $56 $107 forward $186 $-1 #
edge $-1 $187 -77.921079134495074 $112 77.921079134495074 $106 $188 forward 7 unknown #
edge $-1 $113 -77.921079134495074 $181 77.921079134495074 $102 $189 forward 7 unknown #
coedge $-1 $190 $58 $177 $191 forward $111 $-1 #
coedge $-1 $58 $192 $184 $193 reversed $111 $-1 #
loop $-1 $-1 $109 $194 #
vertex $-1 $193 $195 #
vertex $-1 $59 $196 #
straight-curve $-1 77.921079134495074 14.868001916482203 5.4113885276645615 0 -1 0 I I #
face $-1 $-1 $75 $9 $-1 $197 reversed single #
loop $-1 $-1 $131 $60 #
plane-surface $-1 0 35.343310236778457 0 0 -1 0 0 0 -1 forward_v I I I I #
coedge $-1 $198 $129 $132 $199 forward $61 $-1 #
coedge $-1 $135 $63 $64 $123 reversed $37 $-1 #
coedge $-1 $129 $198 $63 $121 reversed $61 $-1 #
edge $-1 $136 -10.596089870083942 $200 10.596089870083942 $120 $201 forward 7 unknown #
coedge $-1 $65 $64 $198 $202 forward $25 $-1 #
edge $-1 $127 -77.921079134495074 $200 77.921079134495074 $119 $203 forward 7 unknown #
coedge $-1 $132 $131 $65 $125 reversed $116 $-1 #
edge $-1 $204 -77.921079134495074 $126 77.921079134495074 $124 $205 forward 7 unknown #
vertex $-1 $67 $206 #
vertex $-1 $138 $207 #
straight-curve $-1 77.921079134495074 0 -10.596089870083942 0 -1 0 I I #
coedge $-1 $118 $120 $68 $130 reversed $61 $-1 #
edge $-1 $133 -35.343310236778457 $136 35.343310236778457 $129 $208 forward 7 unknown #
coedge $-1 $124 $69 $74 $139 forward $116 $-1 #
coedge $-1 $69 $124 $118 $199 reversed $116 $-1 #
vertex $-1 $70 $209 #
straight-curve $-1 0 35.343310236778457 10.596089870083942 -1 0 0 I I #
coedge $-1 $71 $119 $73 $138 reversed $37 $-1 #
vertex $-1 $130 $210 #
straight-curve $-1 0 -35.343310236778457 10.596089870083942 1 0 0 I I #
edge $-1 $76 -10.596089870083942 $127 10.596089870083942 $73 $211 forward 7 unknown #
edge $-1 $77 -10.596089870083942 $126 10.596089870083942 $74 $212 forward 7 unknown #
point $-1 77.921079134495074 -35.343310236778457 10.596089870083942 #
point $-1 77.921079134495074 35.343310236778457 10.596089870083942 #
face $-1 $213 $155 $10 $-1 $214 reversed single #
loop $-1 $-1 $88 $79 #
plane-surface $-1 0 -35.343310236778457 0 0 1 0 0 0 1 forward_v I I I I #
coedge $-1 $151 $215 $165 $216 forward $80 $-1 #
coedge $-1 $217 $82 $218 $219 forward $45 $-1 #
coedge $-1 $82 $217 $220 $221 forward $45 $-1 #
coedge $-1 $92 $222 $82 $149 reversed $93 $-1 #
edge $-1 $223 -35.343310236778457 $224 35.343310236778457 $148 $225 forward 7 unknown #
coedge $-1 $84 $83 $91 $166 reversed $29 $-1 #
coedge $-1 $226 $145 $83 $152 forward $80 $-1 #
edge $-1 $227 -77.921079134495074 $157 77.921079134495074 $83 $228 forward 7 unknown #
coedge $-1 $229 $85 $87 $159 reversed $155 $-1 #
coedge $-1 $85 $230 $226 $231 reversed $155 $-1 #
loop $-1 $-1 $230 $142 #
vertex $-1 $159 $232 #
vertex $-1 $231 $233 #
straight-curve $-1 -77.921079134495074 -44.873970336210043 -7.6627059527122441 0 0 -1 I I #
edge $-1 $162 -4.7653300497157929 $156 4.7653300497157929 $153 $234 forward 7 unknown #
coedge $-1 $220 $88 $92 $167 reversed $143 $-1 #
coedge $-1 $88 $220 $229 $235 forward $143 $-1 #
vertex $-1 $235 $236 #
straight-curve $-1 0 -35.343310236778457 -4.7293220353405463 1 0 0 I I #
straight-curve $-1 0 -44.873970336210043 -4.7293220353405463 1 0 0 I I #
coedge $-1 $222 $91 $145 $216 reversed $93 $-1 #
edge $-1 $94 -2.9333839173716978 $227 2.9333839173716978 $91 $237 forward 7 unknown #
edge $-1 $223 -10.596089870083942 $95 4.7293220353405463 $92 $238 forward 7 unknown #
face $-1 $-1 $93 $10 $-1 $239 reversed single #
point $-1 77.921079134495074 -44.873970336210043 -4.7293220353405463 #
point $-1 77.921079134495074 -35.343310236778457 -4.7293220353405463 #
face $-1 $240 $241 $11 $-1 $242 reversed single #
loop $-1 $-1 $243 $97 #
plane-surface $-1 0 -40.10864028649425 -4.7293220353405463 0 0 1 1 0 0 forward_v I I I I #
coedge $-1 $244 $100 $179 $245 forward $53 $-1 #
coedge $-1 $100 $244 $190 $246 forward $53 $-1 #
edge $-1 $247 -77.921079134495074 $180 77.921079134495074 $100 $248 forward 7 unknown #
coedge $-1 $102 $101 $109 $191 reversed $33 $-1 #
coedge $-1 $249 $103 $105 $183 forward $98 $-1 #
coedge $-1 $103 $250 $174 $245 reversed $98 $-1 #
vertex $-1 $245 $251 #
vertex $-1 $183 $252 #
straight-curve $-1 -77.921079134495074 24.128697429150353 4.0018695994371258 0 0 -1 I I #
edge $-1 $181 9.2606955126681498 $187 20.475308320296261 $178 $253 forward 7 unknown #
coedge $-1 $254 $106 $110 $193 forward $186 $-1 #
coedge $-1 $106 $254 $249 $255 reversed $186 $-1 #
loop $-1 $-1 $106 $256 #
vertex $-1 $255 $257 #
straight-curve $-1 0 35.343310236778457 5.4113885276645615 1 0 0 I I #
straight-curve $-1 0 24.128697429150353 5.4113885276645615 -1 0 0 I I #
coedge $-1 $258 $109 $175 $246 reversed $111 $-1 #
edge $-1 $113 1.4095189282274356 $247 6.594220270646816 $109 $259 forward 7 unknown #
coedge $-1 $110 $260 $261 $262 reversed $111 $-1 #
edge $-1 $112 -5.4113885276645615 $263 10.596089870083942 $110 $264 forward 7 unknown #
face $-1 $-1 $111 $11 $-1 $265 reversed single #
point $-1 77.921079134495074 35.343310236778464 5.4113885276645615 #
point $-1 77.921079134495074 24.128697429150353 5.4113885276645615 #
plane-surface $-1 77.921079134495074 0 0 -1 0 0 0 0 1 forward_v I I I I #
coedge $-1 $120 $118 $122 $202 reversed $61 $-1 #
edge $-1 $133 -10.596089870083942 $204 10.596089870083942 $132 $266 forward 7 unknown #
vertex $-1 $202 $267 #
straight-curve $-1 -77.921079134495074 -35.343310236778457 0 0 0 -1 I I #
edge $-1 $200 -35.343310236778457 $204 35.343310236778457 $198 $268 forward 7 unknown #
straight-curve $-1 0 -35.343310236778457 -10.596089870083942 -1 0 0 I I #
vertex $-1 $125 $269 #
straight-curve $-1 0 35.343310236778457 -10.596089870083942 1 0 0 I I #
point $-1 77.921079134495074 35.343310236778457 -10.596089870083942 #
point $-1 77.921079134495074 -35.343310236778457 -10.596089870083942 #
straight-curve $-1 -77.921079134495074 0 10.596089870083942 0 -1 0 I I #
point $-1 -77.921079134495074 35.343310236778457 10.596089870083942 #
point $-1 -77.921079134495074 -35.343310236778457 10.596089870083942 #
straight-curve $-1 77.921079134495074 -35.343310236778457 0 0 0 -1 I I #
straight-curve $-1 77.921079134495074 35.343310236778457 0 0 0 -1 I I #
face $-1 $168 $270 $10 $-1 $271 reversed single #
plane-surface $-1 -77.921079134495074 0 0 1 0 0 0 0 -1 forward_v I I I I #
coedge $-1 $145 $226 $272 $273 forward $80 $-1 #
edge $-1 $274 -35.343310236778457 $227 44.873970336210043 $165 $275 forward 7 unknown #
coedge $-1 $147 $146 $276 $277 forward $45 $-1 #
coedge $-1 $278 $279 $146 $219 reversed $270 $-1 #
edge $-1 $224 -77.921079134495074 $280 77.921079134495074 $218 $281 forward 7 unknown #
coedge $-1 $161 $160 $147 $221 reversed $143 $-1 #
edge $-1 $282 -77.921079134495074 $223 77.921079134495074 $220 $283 forward 7 unknown #
coedge $-1 $148 $165 $278 $284 reversed $93 $-1 #
vertex $-1 $149 $285 #
vertex $-1 $149 $286 #
straight-curve $-1 77.921079134495074 0 10.596089870083942 0 1 0 I I #
coedge $-1 $215 $151 $154 $231 forward $80 $-1 #
vertex $-1 $166 $287 #
straight-curve $-1 0 -44.873970336210043 -10.596089870083942 -1 0 0 I I #
coedge $-1 $276 $153 $161 $235 reversed $155 $-1 #
coedge $-1 $154 $276 $279 $288 forward $155 $-1 #
edge $-1 $157 -44.873970336210043 $289 35.343310236778457 $154 $290 forward 7 unknown #
point $-1 -77.921079134495074 -44.873970336210043 -4.7293220353405463 #
point $-1 -77.921079134495074 -44.873970336210043 -10.596089870083942 #
straight-curve $-1 -77.921079134495074 -40.10864028649425 -4.7293220353405463 0 -1 0 I I #
edge $-1 $282 -10.596089870083942 $162 4.7293220353405463 $229 $291 forward 7 unknown #
point $-1 -77.921079134495074 -35.343310236778457 -4.7293220353405463 #
straight-curve $-1 77.921079134495074 -44.873970336210043 -7.6627059527122441 0 0 -1 I I #
straight-curve $-1 77.921079134495074 -35.343310236778457 0 0 0 -1 I I #
plane-surface $-1 77.921079134495074 0 0 -1 0 0 0 0 1 forward_v I I I I #
face $-1 $292 $293 $11 $-1 $294 reversed single #
loop $-1 $-1 $295 $171 #
plane-surface $-1 0 -44.873970336210043 -7.6627059527122441 0 1 0 0 0 1 forward_v I I I I #
coedge $-1 $296 $297 $298 $299 forward $172 $-1 #
coedge $-1 $175 $174 $300 $301 forward $53 $-1 #
edge $-1 $180 -24.128697429150353 $302 35.343310236778457 $179 $303 forward 7 unknown #
edge $-1 $304 -35.343310236778457 $247 24.128697429150353 $190 $305 forward 7 unknown #
vertex $-1 $176 $306 #
straight-curve $-1 0 24.128697429150353 10.596089870083942 -1 0 0 I I #
coedge $-1 $307 $178 $185 $255 forward $98 $-1 #
coedge $-1 $179 $308 $309 $310 reversed $98 $-1 #
point $-1 -77.921079134495074 24.128697429150353 10.596089870083942 #
point $-1 -77.921079134495074 24.128697429150353 5.4113885276645615 #
straight-curve $-1 -77.921079134495074 14.868001916482203 5.4113885276645615 0 1 0 I I #
coedge $-1 $185 $184 $311 $312 reversed $186 $-1 #
edge $-1 $187 -5.4113885276645615 $313 10.596089870083942 $185 $314 forward 7 unknown #
face $-1 $194 $186 $11 $-1 $315 reversed single #
point $-1 -77.921079134495074 35.343310236778464 5.4113885276645615 #
coedge $-1 $298 $190 $316 $317 forward $111 $-1 #
straight-curve $-1 77.921079134495074 24.128697429150353 4.0018695994371258 0 0 1 I I #
coedge $-1 $192 $298 $318 $319 forward $111 $-1 #
coedge $-1 $320 $311 $192 $262 forward $293 $-1 #
edge $-1 $263 -35.343310236778457 $321 44.873970336210043 $192 $322 forward 7 unknown #
vertex $-1 $262 $323 #
straight-curve $-1 77.921079134495074 35.343310236778457 0 0 0 -1 I I #
plane-surface $-1 77.921079134495074 0 0 -1 0 0 0 0 1 forward_v I I I I #
straight-curve $-1 -77.921079134495074 35.343310236778457 0 0 0 -1 I I #
point $-1 -77.921079134495074 -35.343310236778457 -10.596089870083942 #
straight-curve $-1 -77.921079134495074 0 -10.596089870083942 0 1 0 I I #
point $-1 -77.921079134495074 35.343310236778457 -10.596089870083942 #
loop $-1 $-1 $278 $213 #
plane-surface $-1 0 35.343310236778457 0 0 -1 0 0 0 -1 forward_v I I I I #
coedge $-1 $279 $278 $215 $273 reversed $270 $-1 #
edge $-1 $289 -77.921079134495074 $274 77.921079134495074 $272 $324 forward 7 unknown #
vertex $-1 $216 $325 #
straight-curve $-1 77.921079134495074 0 -10.596089870083942 0 -1 0 I I #
coedge $-1 $230 $229 $217 $277 reversed $155 $-1 #
edge $-1 $280 -35.343310236778457 $282 35.343310236778457 $276 $326 forward 7 unknown #
coedge $-1 $272 $218 $222 $284 forward $270 $-1 #
coedge $-1 $218 $272 $230 $288 reversed $270 $-1 #
vertex $-1 $219 $327 #
straight-curve $-1 0 35.343310236778457 10.596089870083942 -1 0 0 I I #
vertex $-1 $277 $328 #
straight-curve $-1 0 -35.343310236778457 10.596089870083942 1 0 0 I I #
edge $-1 $224 -10.596089870083942 $274 10.596089870083942 $222 $329 forward 7 unknown #
point $-1 77.921079134495074 -35.343310236778457 10.596089870083942 #
point $-1 77.921079134495074 35.343310236778457 10.596089870083942 #
point $-1 77.921079134495074 -44.873970336210043 -10.596089870083942 #
edge $-1 $280 -10.596089870083942 $289 10.596089870083942 $279 $330 forward 7 unknown #
vertex $-1 $273 $331 #
straight-curve $-1 -77.921079134495074 0 -10.596089870083942 0 1 0 I I #
straight-curve $-1 -77.921079134495074 -35.343310236778457 0 0 0 -1 I I #
face $-1 $256 $332 $11 $-1 $333 reversed single #
loop $-1 $-1 $261 $240 #
plane-surface $-1 0 0 -10.596089870083942 0 0 1 1 0 0 forward_v I I I I #
coedge $-1 $334 $335 $336 $337 forward $241 $-1 #
coedge $-1 $338 $243 $339 $340 reversed $172 $-1 #
coedge $-1 $243 $338 $335 $341 forward $172 $-1 #
coedge $-1 $260 $258 $243 $299 reversed $111 $-1 #
edge $-1 $342 -4.7653300497157929 $343 4.7653300497157929 $298 $344 forward 7 unknown #
coedge $-1 $309 $316 $244 $301 reversed $332 $-1 #
edge $-1 $302 -77.921079134495074 $304 77.921079134495074 $300 $345 forward 7 unknown #
vertex $-1 $245 $346 #
straight-curve $-1 -77.921079134495074 0 10.596089870083942 0 -1 0 I I #
vertex $-1 $246 $347 #
straight-curve $-1 77.921079134495074 0 10.596089870083942 0 1 0 I I #
point $-1 77.921079134495074 24.128697429150353 10.596089870083942 #
coedge $-1 $336 $249 $348 $349 reversed $98 $-1 #
coedge $-1 $250 $336 $338 $350 reversed $98 $-1 #
coedge $-1 $339 $300 $250 $310 forward $332 $-1 #
edge $-1 $302 -10.596089870083942 $351 4.7293220353405463 $250 $352 forward 7 unknown #
coedge $-1 $261 $348 $254 $312 forward $293 $-1 #
edge $-1 $313 -77.921079134495074 $263 77.921079134495074 $254 $353 forward 7 unknown #
vertex $-1 $312 $354 #
straight-curve $-1 -77.921079134495074 35.343310236778457 0 0 0 -1 I I #
plane-surface $-1 0 35.343310236778457 0 0 -1 0 0 0 -1 forward_v I I I I #
coedge $-1 $300 $339 $258 $317 reversed $332 $-1 #
edge $-1 $304 -10.596089870083942 $343 4.7293220353405463 $258 $355 forward 7 unknown #
coedge $-1 $335 $334 $260 $319 reversed $241 $-1 #
edge $-1 $342 -2.9333839173716978 $321 2.9333839173716978 $260 $356 forward 7 unknown #
coedge $-1 $348 $261 $334 $357 forward $293 $-1 #
vertex $-1 $319 $358 #
straight-curve $-1 77.921079134495074 0 -10.596089870083942 0 -1 0 I I #
point $-1 77.921079134495074 35.343310236778457 -10.596089870083942 #
straight-curve $-1 0 35.343310236778457 -10.596089870083942 1 0 0 I I #
point $-1 77.921079134495074 35.343310236778457 -10.596089870083942 #
straight-curve $-1 -77.921079134495074 0 10.596089870083942 0 -1 0 I I #
point $-1 -77.921079134495074 35.343310236778457 10.596089870083942 #
point $-1 -77.921079134495074 -35.343310236778457 10.596089870083942 #
straight-curve $-1 77.921079134495074 35.343310236778457 0 0 0 -1 I I #
straight-curve $-1 -77.921079134495074 35.343310236778457 0 0 0 -1 I I #
point $-1 -77.921079134495074 35.343310236778457 -10.596089870083942 #
loop $-1 $-1 $339 $292 #
plane-surface $-1 0 -35.343310236778457 0 0 1 0 0 0 1 forward_v I I I I #
coedge $-1 $318 $295 $320 $357 reversed $241 $-1 #
coedge $-1 $295 $318 $297 $341 reversed $241 $-1 #
coedge $-1 $308 $307 $295 $337 reversed $98 $-1 #
edge $-1 $359 -2.9333839173716978 $360 2.9333839173716978 $336 $361 forward 7 unknown #
coedge $-1 $297 $296 $308 $350 forward $172 $-1 #
coedge $-1 $316 $309 $296 $340 forward $332 $-1 #
edge $-1 $351 -77.921079134495074 $343 77.921079134495074 $339 $362 forward 7 unknown #
edge $-1 $359 -77.921079134495074 $342 77.921079134495074 $335 $363 forward 7 unknown #
vertex $-1 $299 $364 #
vertex $-1 $299 $365 #
straight-curve $-1 77.921079134495074 -40.10864028649425 -4.7293220353405463 0 1 0 I I #
straight-curve $-1 0 -35.343310236778457 10.596089870083942 1 0 0 I I #
point $-1 -77.921079134495074 -35.343310236778457 10.596089870083942 #
point $-1 77.921079134495074 -35.343310236778457 10.596089870083942 #
coedge $-1 $311 $320 $307 $349 forward $293 $-1 #
edge $-1 $360 -44.873970336210043 $313 35.343310236778457 $307 $366 forward 7 unknown #
edge $-1 $351 -4.7653300497157929 $359 4.7653300497157929 $308 $367 forward 7 unknown #
vertex $-1 $310 $368 #
straight-curve $-1 -77.921079134495074 -35.343310236778457 0 0 0 -1 I I #
straight-curve $-1 0 35.343310236778457 -10.596089870083942 1 0 0 I I #
point $-1 -77.921079134495074 35.343310236778457 -10.596089870083942 #
straight-curve $-1 77.921079134495074 -35.343310236778457 0 0 0 -1 I I #
straight-curve $-1 77.921079134495074 -44.873970336210043 -7.6627059527122441 0 0 -1 I I #
edge $-1 $321 -77.921079134495074 $360 77.921079134495074 $334 $369 forward 7 unknown #
point $-1 77.921079134495074 -44.873970336210043 -10.596089870083942 #
vertex $-1 $350 $370 #
vertex $-1 $349 $371 #
straight-curve $-1 -77.921079134495074 -44.873970336210043 -7.6627059527122441 0 0 -1 I I #
straight-curve $-1 0 -35.343310236778457 -4.7293220353405463 1 0 0 I I #
straight-curve $-1 0 -44.873970336210043 -4.7293220353405463 1 0 0 I I #
point $-1 77.921079134495074 -44.873970336210043 -4.7293220353405463 #
point $-1 77.921079134495074 -35.343310236778457 -4.7293220353405463 #
straight-curve $-1 -77.921079134495074 0 -10.596089870083942 0 1 0 I I #
straight-curve $-1 -77.921079134495074 -40.10864028649425 -4.7293220353405463 0 -1 0 I I #
point $-1 -77.921079134495074 -35.343310236778457 -4.7293220353405463 #
straight-curve $-1 0 -44.873970336210043 -10.596089870083942 -1 0 0 I I #
point $-1 -77.921079134495074 -44.873970336210043 -4.7293220353405463 #
point $-1 -77.921079134495074 -44.873970336210043 -10.596089870083942 #
End-of-ACIS-data 