500 0 18 0           
7 Unknown 11 ACIS 5.0 NT 24 Fri Mar 26 14:27:30 1999 
-1 9.9999999999999995e-007 1e-010 
body $-1 $18 $-1 $19 #
body $-1 $20 $-1 $21 #
body $-1 $22 $-1 $23 #
body $-1 $24 $-1 $25 #
body $-1 $26 $-1 $27 #
body $-1 $28 $-1 $29 #
body $-1 $30 $-1 $31 #
body $-1 $32 $-1 $33 #
body $-1 $34 $-1 $35 #
body $-1 $36 $-1 $37 #
body $-1 $38 $-1 $39 #
body $-1 $40 $-1 $41 #
body $-1 $42 $-1 $43 #
body $-1 $44 $-1 $45 #
body $-1 $46 $-1 $47 #
body $-1 $48 $-1 $49 #
body $-1 $50 $-1 $51 #
body $-1 $52 $-1 $53 #
lump $-1 $-1 $54 $0 #
transform $-1 1 0 0 0 1 0 0 0 1 51.263771477401043 25.34918169176408 8.5615667856252919 1 rotate no_reflect no_shear #
lump $-1 $-1 $55 $1 #
transform $-1 1 0 0 0 1 0 0 0 1 1.6142526248442524 -4.3258814007840476 8.5615667856252919 1 rotate no_reflect no_shear #
lump $-1 $-1 $56 $2 #
transform $-1 0.62932038083071107 0 0.77714596973225614 0 1 0 -0.77714596973225614 0 0.62932038083071107 -79.678866793875216 11.804959602538663 76.599362553888795 1 rotate no_reflect no_shear #
lump $-1 $-1 $57 $3 #
transform $-1 0.62932038083071107 0 0.77714596973225614 0 -1 0 0.77714596973225614 0 -0.62932038083071107 5.8558560998306959 11.804959602538663 11.512536225257515 1 rotate no_reflect no_shear #
lump $-1 $-1 $58 $4 #
transform $-1 0.62932038083071107 0 0.77714596973225614 0 1 0 -0.77714596973225614 0 0.62932038083071107 -79.678866793875216 23.718361929211639 76.599362553888795 1 rotate no_reflect no_shear #
lump $-1 $-1 $59 $5 #
transform $-1 0.62932038083071107 0 0.77714596973225614 0 -1 0 0.77714596973225614 0 -0.62932038083071107 5.8558560998306959 23.718361929211639 11.512536225257515 1 rotate no_reflect no_shear #
lump $-1 $-1 $60 $6 #
transform $-1 0.62932038083071107 0 0.77714596973225614 0 1 0 -0.77714596973225614 0 0.62932038083071107 -79.678866793875216 35.631764255884619 76.599362553888795 1 rotate no_reflect no_shear #
lump $-1 $-1 $61 $7 #
transform $-1 0.62932038083071107 0 0.77714596973225614 0 -1 0 0.77714596973225614 0 -0.62932038083071107 5.8558560998306959 35.631764255884619 11.512536225257515 1 rotate no_reflect no_shear #
lump $-1 $-1 $62 $8 #
transform $-1 0.62932038083071107 0 0.77714596973225614 0 1 0 -0.77714596973225614 0 0.62932038083071107 -79.678866793875216 47.545166582557599 76.599362553888795 1 rotate no_reflect no_shear #
lump $-1 $-1 $63 $9 #
transform $-1 0.62932038083071107 0 0.77714596973225614 0 -1 0 0.77714596973225614 0 -0.62932038083071107 5.8558560998306959 47.545166582557599 11.512536225257515 1 rotate no_reflect no_shear #
lump $-1 $-1 $64 $10 #
transform $-1 0.83867056331134215 0 -0.54463904215088732 0 1 0 0.54463904215088732 0 0.83867056331134215 72.381213538957752 23.30868892346826 155.69095028096609 1 rotate no_reflect no_shear #
lump $-1 $-1 $65 $11 #
transform $-1 0.83867056331134215 0 -0.54463904215088732 0 -1 0 -0.54463904215088732 0 -0.83867056331134215 99.337135196559188 21.485350665475138 14.445036225059631 1 rotate no_reflect no_shear #
lump $-1 $-1 $66 $12 #
transform $-1 0.83867056331134215 0 -0.54463904215088732 0 -1 0 -0.54463904215088732 0 -0.83867056331134215 99.337135196559188 23.30868892346826 14.445036225059631 1 rotate no_reflect no_shear #
lump $-1 $-1 $67 $13 #
transform $-1 0.83867056331134215 0 -0.54463904215088732 0 -1 0 -0.54463904215088732 0 -0.83867056331134215 99.337135196559188 25.132027181461382 14.445036225059631 1 rotate no_reflect no_shear #
lump $-1 $-1 $68 $14 #
transform $-1 0.83867056331134215 0 -0.54463904215088732 0 1 0 0.54463904215088732 0 0.83867056331134215 72.381213538957752 36.041437261628005 155.69095028096609 1 rotate no_reflect no_shear #
lump $-1 $-1 $69 $15 #
transform $-1 0.83867056331134215 0 -0.54463904215088732 0 -1 0 -0.54463904215088732 0 -0.83867056331134215 99.337135196559188 34.218099003634876 14.445036225059631 1 rotate no_reflect no_shear #
lump $-1 $-1 $70 $16 #
transform $-1 0.83867056331134215 0 -0.54463904215088732 0 -1 0 -0.54463904215088732 0 -0.83867056331134215 99.337135196559188 36.041437261628005 14.445036225059631 1 rotate no_reflect no_shear #
lump $-1 $-1 $71 $17 #
transform $-1 0.83867056331134215 0 -0.54463904215088732 0 -1 0 -0.54463904215088732 0 -0.83867056331134215 99.337135196559188 37.864775519621119 14.445036225059631 1 rotate no_reflect no_shear #
shell $-1 $-1 $-1 $72 $-1 $18 #
shell $-1 $-1 $-1 $73 $-1 $20 #
shell $-1 $-1 $-1 $74 $-1 $22 #
shell $-1 $-1 $-1 $75 $-1 $24 #
shell $-1 $-1 $-1 $76 $-1 $26 #
shell $-1 $-1 $-1 $77 $-1 $28 #
shell $-1 $-1 $-1 $78 $-1 $30 #
shell $-1 $-1 $-1 $79 $-1 $32 #
shell $-1 $-1 $-1 $80 $-1 $34 #
shell $-1 $-1 $-1 $81 $-1 $36 #
shell $-1 $-1 $-1 $82 $-1 $38 #
shell $-1 $-1 $-1 $83 $-1 $40 #
shell $-1 $-1 $-1 $84 $-1 $42 #
shell $-1 $-1 $-1 $85 $-1 $44 #
shell $-1 $-1 $-1 $86 $-1 $46 #
shell $-1 $-1 $-1 $87 $-1 $48 #
shell $-1 $-1 $-1 $88 $-1 $50 #
shell $-1 $-1 $-1 $89 $-1 $52 #
face $-1 $90 $91 $54 $-1 $92 forward single #
face $-1 $93 $94 $55 $-1 $95 forward single #
face $-1 $96 $97 $56 $-1 $98 forward single #
face $-1 $99 $100 $57 $-1 $101 forward single #
face $-1 $102 $103 $58 $-1 $104 forward single #
face $-1 $105 $106 $59 $-1 $107 forward single #
face $-1 $108 $109 $60 $-1 $110 forward single #
face $-1 $111 $112 $61 $-1 $113 forward single #
face $-1 $114 $115 $62 $-1 $116 forward single #
face $-1 $117 $118 $63 $-1 $119 forward single #
face $-1 $120 $121 $64 $-1 $122 forward single #
face $-1 $123 $124 $65 $-1 $125 forward single #
face $-1 $126 $127 $66 $-1 $128 forward single #
face $-1 $129 $130 $67 $-1 $131 forward single #
face $-1 $132 $133 $68 $-1 $134 forward single #
face $-1 $135 $136 $69 $-1 $137 forward single #
face $-1 $138 $139 $70 $-1 $140 forward single #
face $-1 $141 $142 $71 $-1 $143 forward single #
face $-1 $144 $145 $54 $-1 $146 reversed single #
loop $-1 $-1 $147 $72 #
plane-surface $-1 0 0 8.5615667856252919 0 0 1 1 0 0 forward_v I I I I #
face $-1 $148 $149 $55 $-1 $150 reversed single #
loop $-1 $-1 $151 $73 #
plane-surface $-1 0 0 8.5615667856252919 0 0 1 1 0 0 forward_v I I I I #
face $-1 $152 $153 $56 $-1 $154 reversed single #
loop $-1 $-1 $155 $74 #
plane-surface $-1 0 0 102.52754295480209 0 0 1 1 0 0 forward_v I I I I #
face $-1 $156 $157 $57 $-1 $158 forward single #
loop $-1 $159 $160 $75 #
cone-surface $-1 0 0 -2.8279442732016973 0 0 1 1.5 0 0 1 I I 0 1 1.5 forward I I I I #
face $-1 $161 $162 $58 $-1 $163 reversed single #
loop $-1 $-1 $164 $76 #
plane-surface $-1 0 0 102.52754295480209 0 0 1 1 0 0 forward_v I I I I #
face $-1 $165 $166 $59 $-1 $167 forward single #
loop $-1 $168 $169 $77 #
cone-surface $-1 0 0 -2.8279442732016973 0 0 1 1.5 0 0 1 I I 0 1 1.5 forward I I I I #
face $-1 $170 $171 $60 $-1 $172 reversed single #
loop $-1 $-1 $173 $78 #
plane-surface $-1 0 0 102.52754295480209 0 0 1 1 0 0 forward_v I I I I #
face $-1 $174 $175 $61 $-1 $176 forward single #
loop $-1 $177 $178 $79 #
cone-surface $-1 0 0 -2.8279442732016973 0 0 1 1.5 0 0 1 I I 0 1 1.5 forward I I I I #
face $-1 $179 $180 $62 $-1 $181 reversed single #
loop $-1 $-1 $182 $80 #
plane-surface $-1 0 0 102.52754295480209 0 0 1 1 0 0 forward_v I I I I #
face $-1 $183 $184 $63 $-1 $185 forward single #
loop $-1 $186 $187 $81 #
cone-surface $-1 0 0 -2.8279442732016973 0 0 1 1.5 0 0 1 I I 0 1 1.5 forward I I I I #
face $-1 $188 $189 $64 $-1 $190 reversed single #
loop $-1 $-1 $191 $82 #
plane-surface $-1 0 0 102.52754295480209 0 0 1 1 0 0 forward_v I I I I #
face $-1 $192 $193 $65 $-1 $194 forward single #
loop $-1 $195 $196 $83 #
cone-surface $-1 0 0 -0.75 0 0 1 0.5 0 0 1 I I 0 1 0.5 forward I I I I #
face $-1 $197 $198 $66 $-1 $199 forward single #
loop $-1 $200 $201 $84 #
cone-surface $-1 0 0 -0.75 0 0 1 0.5 0 0 1 I I 0 1 0.5 forward I I I I #
face $-1 $202 $203 $67 $-1 $204 forward single #
loop $-1 $205 $206 $85 #
cone-surface $-1 0 0 -0.75 0 0 1 0.5 0 0 1 I I 0 1 0.5 forward I I I I #
face $-1 $207 $208 $68 $-1 $209 reversed single #
loop $-1 $-1 $210 $86 #
plane-surface $-1 0 0 102.52754295480209 0 0 1 1 0 0 forward_v I I I I #
face $-1 $211 $212 $69 $-1 $213 forward single #
loop $-1 $214 $215 $87 #
cone-surface $-1 0 0 -0.75 0 0 1 0.5 0 0 1 I I 0 1 0.5 forward I I I I #
face $-1 $216 $217 $70 $-1 $218 forward single #
loop $-1 $219 $220 $88 #
cone-surface $-1 0 0 -0.75 0 0 1 0.5 0 0 1 I I 0 1 0.5 forward I I I I #
face $-1 $221 $222 $71 $-1 $223 forward single #
loop $-1 $224 $225 $89 #
cone-surface $-1 0 0 -0.75 0 0 1 0.5 0 0 1 I I 0 1 0.5 forward I I I I #
face $-1 $226 $227 $54 $-1 $228 reversed single #
loop $-1 $-1 $229 $90 #
plane-surface $-1 0 0 -8.5615667856252919 0 0 1 1 0 0 forward_v I I I I #
coedge $-1 $230 $231 $232 $233 forward $91 $-1 #
face $-1 $234 $235 $55 $-1 $236 reversed single #
loop $-1 $-1 $237 $93 #
plane-surface $-1 0 0 -8.5615667856252919 0 0 1 1 0 0 forward_v I I I I #
coedge $-1 $238 $239 $240 $241 forward $94 $-1 #
face $-1 $242 $243 $56 $-1 $244 reversed single #
loop $-1 $-1 $245 $96 #
plane-surface $-1 0 0 -102.52754295480209 0 0 1 1 0 0 forward_v I I I I #
coedge $-1 $246 $247 $248 $249 forward $97 $-1 #
face $-1 $-1 $250 $57 $-1 $251 forward single #
loop $-1 $-1 $252 $99 #
plane-surface $-1 0 0 -4.9058885464033946 0 0 -1 -1 0 0 forward_v I I I I #
loop $-1 $-1 $253 $75 #
coedge $-1 $160 $160 $252 $254 reversed $100 $-1 #
face $-1 $255 $256 $58 $-1 $257 reversed single #
loop $-1 $-1 $258 $102 #
plane-surface $-1 0 0 -102.52754295480209 0 0 1 1 0 0 forward_v I I I I #
coedge $-1 $259 $260 $261 $262 forward $103 $-1 #
face $-1 $-1 $263 $59 $-1 $264 forward single #
loop $-1 $-1 $265 $105 #
plane-surface $-1 0 0 -4.9058885464033946 0 0 -1 -1 0 0 forward_v I I I I #
loop $-1 $-1 $266 $77 #
coedge $-1 $169 $169 $265 $267 reversed $106 $-1 #
face $-1 $268 $269 $60 $-1 $270 reversed single #
loop $-1 $-1 $271 $108 #
plane-surface $-1 0 0 -102.52754295480209 0 0 1 1 0 0 forward_v I I I I #
coedge $-1 $272 $273 $274 $275 forward $109 $-1 #
face $-1 $-1 $276 $61 $-1 $277 forward single #
loop $-1 $-1 $278 $111 #
plane-surface $-1 0 0 -4.9058885464033946 0 0 -1 -1 0 0 forward_v I I I I #
loop $-1 $-1 $279 $79 #
coedge $-1 $178 $178 $278 $280 reversed $112 $-1 #
face $-1 $281 $282 $62 $-1 $283 reversed single #
loop $-1 $-1 $284 $114 #
plane-surface $-1 0 0 -102.52754295480209 0 0 1 1 0 0 forward_v I I I I #
coedge $-1 $285 $286 $287 $288 forward $115 $-1 #
face $-1 $-1 $289 $63 $-1 $290 forward single #
loop $-1 $-1 $291 $117 #
plane-surface $-1 0 0 -4.9058885464033946 0 0 -1 -1 0 0 forward_v I I I I #
loop $-1 $-1 $292 $81 #
coedge $-1 $187 $187 $291 $293 reversed $118 $-1 #
face $-1 $294 $295 $64 $-1 $296 reversed single #
loop $-1 $-1 $297 $120 #
plane-surface $-1 0 0 -102.52754295480209 0 0 1 1 0 0 forward_v I I I I #
coedge $-1 $298 $299 $300 $301 forward $121 $-1 #
face $-1 $-1 $302 $65 $-1 $303 forward single #
loop $-1 $-1 $304 $123 #
plane-surface $-1 0 0 -1.25 0 0 -1 -1 0 0 forward_v I I I I #
loop $-1 $-1 $305 $83 #
coedge $-1 $196 $196 $304 $306 reversed $124 $-1 #
face $-1 $-1 $307 $66 $-1 $308 forward single #
loop $-1 $-1 $309 $126 #
plane-surface $-1 0 0 -1.25 0 0 -1 -1 0 0 forward_v I I I I #
loop $-1 $-1 $310 $84 #
coedge $-1 $201 $201 $309 $311 reversed $127 $-1 #
face $-1 $-1 $312 $67 $-1 $313 forward single #
loop $-1 $-1 $314 $129 #
plane-surface $-1 0 0 -1.25 0 0 -1 -1 0 0 forward_v I I I I #
loop $-1 $-1 $315 $85 #
coedge $-1 $206 $206 $314 $316 reversed $130 $-1 #
face $-1 $317 $318 $68 $-1 $319 reversed single #
loop $-1 $-1 $320 $132 #
plane-surface $-1 0 0 -102.52754295480209 0 0 1 1 0 0 forward_v I I I I #
coedge $-1 $321 $322 $323 $324 forward $133 $-1 #
face $-1 $-1 $325 $69 $-1 $326 forward single #
loop $-1 $-1 $327 $135 #
plane-surface $-1 0 0 -1.25 0 0 -1 -1 0 0 forward_v I I I I #
loop $-1 $-1 $328 $87 #
coedge $-1 $215 $215 $327 $329 reversed $136 $-1 #
face $-1 $-1 $330 $70 $-1 $331 forward single #
loop $-1 $-1 $332 $138 #
plane-surface $-1 0 0 -1.25 0 0 -1 -1 0 0 forward_v I I I I #
loop $-1 $-1 $333 $88 #
coedge $-1 $220 $220 $332 $334 reversed $139 $-1 #
face $-1 $-1 $335 $71 $-1 $336 forward single #
loop $-1 $-1 $337 $141 #
plane-surface $-1 0 0 -1.25 0 0 -1 -1 0 0 forward_v I I I I #
loop $-1 $-1 $338 $89 #
coedge $-1 $225 $225 $337 $339 reversed $142 $-1 #
face $-1 $340 $341 $54 $-1 $342 reversed single #
loop $-1 $-1 $343 $144 #
plane-surface $-1 0 -25.34918169176408 0 0 1 0 0 0 1 forward_v I I I I #
coedge $-1 $344 $345 $346 $347 forward $145 $-1 #
coedge $-1 $348 $147 $349 $350 forward $91 $-1 #
coedge $-1 $147 $348 $351 $352 forward $91 $-1 #
coedge $-1 $353 $354 $147 $233 reversed $355 $-1 #
edge $-1 $356 -25.34918169176408 $357 25.34918169176408 $232 $358 forward 7 unknown #
face $-1 $359 $360 $55 $-1 $361 reversed single #
loop $-1 $-1 $362 $148 #
plane-surface $-1 0 -4.3258814007840476 0 0 1 0 0 0 1 forward_v I I I I #
coedge $-1 $363 $364 $365 $366 forward $149 $-1 #
coedge $-1 $367 $151 $368 $369 forward $94 $-1 #
coedge $-1 $151 $367 $370 $371 forward $94 $-1 #
coedge $-1 $372 $373 $151 $241 reversed $374 $-1 #
edge $-1 $375 -4.3258814007840476 $376 4.3258814007840476 $240 $377 forward 7 unknown #
face $-1 $378 $379 $56 $-1 $380 reversed single #
loop $-1 $-1 $381 $152 #
plane-surface $-1 0 -3.1531968009705666 0 0 1 0 0 0 1 forward_v I I I I #
coedge $-1 $382 $383 $384 $385 forward $153 $-1 #
coedge $-1 $386 $155 $387 $388 forward $97 $-1 #
coedge $-1 $155 $386 $389 $390 forward $97 $-1 #
coedge $-1 $391 $392 $155 $249 reversed $393 $-1 #
edge $-1 $394 -3.1531968009705666 $395 3.1531968009705666 $248 $396 forward 7 unknown #
loop $-1 $397 $398 $156 #
cone-surface $-1 0 0 0 0 0 1 0.75 0 0 1 I I -0.70710678118654757 0.70710678118654757 0.75 forward I I I I #
coedge $-1 $252 $252 $160 $254 forward $157 $-1 #
coedge $-1 $253 $253 $398 $399 forward $159 $-1 #
edge $-1 $400 0 $400 6.2831853071796004 $252 $401 forward 7 unknown #
face $-1 $402 $403 $58 $-1 $404 reversed single #
loop $-1 $-1 $405 $161 #
plane-surface $-1 0 -3.1531968009705666 0 0 1 0 0 0 1 forward_v I I I I #
coedge $-1 $406 $407 $408 $409 forward $162 $-1 #
coedge $-1 $410 $164 $411 $412 forward $103 $-1 #
coedge $-1 $164 $410 $413 $414 forward $103 $-1 #
coedge $-1 $415 $416 $164 $262 reversed $417 $-1 #
edge $-1 $418 -3.1531968009705666 $419 3.1531968009705666 $261 $420 forward 7 unknown #
loop $-1 $421 $422 $165 #
cone-surface $-1 0 0 0 0 0 1 0.75 0 0 1 I I -0.70710678118654757 0.70710678118654757 0.75 forward I I I I #
coedge $-1 $265 $265 $169 $267 forward $166 $-1 #
coedge $-1 $266 $266 $422 $423 forward $168 $-1 #
edge $-1 $424 0 $424 6.2831853071796004 $265 $425 forward 7 unknown #
face $-1 $426 $427 $60 $-1 $428 reversed single #
loop $-1 $-1 $429 $170 #
plane-surface $-1 0 -3.1531968009705666 0 0 1 0 0 0 1 forward_v I I I I #
coedge $-1 $430 $431 $432 $433 forward $171 $-1 #
coedge $-1 $434 $173 $435 $436 forward $109 $-1 #
coedge $-1 $173 $434 $437 $438 forward $109 $-1 #
coedge $-1 $439 $440 $173 $275 reversed $441 $-1 #
edge $-1 $442 -3.1531968009705666 $443 3.1531968009705666 $274 $444 forward 7 unknown #
loop $-1 $445 $446 $174 #
cone-surface $-1 0 0 0 0 0 1 0.75 0 0 1 I I -0.70710678118654757 0.70710678118654757 0.75 forward I I I I #
coedge $-1 $278 $278 $178 $280 forward $175 $-1 #
coedge $-1 $279 $279 $446 $447 forward $177 $-1 #
edge $-1 $448 0 $448 6.2831853071796004 $278 $449 forward 7 unknown #
face $-1 $450 $451 $62 $-1 $452 reversed single #
loop $-1 $-1 $453 $179 #
plane-surface $-1 0 -3.1531968009705666 0 0 1 0 0 0 1 forward_v I I I I #
coedge $-1 $454 $455 $456 $457 forward $180 $-1 #
coedge $-1 $458 $182 $459 $460 forward $115 $-1 #
coedge $-1 $182 $458 $461 $462 forward $115 $-1 #
coedge $-1 $463 $464 $182 $288 reversed $465 $-1 #
edge $-1 $466 -3.1531968009705666 $467 3.1531968009705666 $287 $468 forward 7 unknown #
loop $-1 $469 $470 $183 #
cone-surface $-1 0 0 0 0 0 1 0.75 0 0 1 I I -0.70710678118654757 0.70710678118654757 0.75 forward I I I I #
coedge $-1 $291 $291 $187 $293 forward $184 $-1 #
coedge $-1 $292 $292 $470 $471 forward $186 $-1 #
edge $-1 $472 0 $472 6.2831853071796004 $291 $473 forward 7 unknown #
face $-1 $474 $475 $64 $-1 $476 reversed single #
loop $-1 $-1 $477 $188 #
plane-surface $-1 0 -3.0388970966551998 0 0 1 0 0 0 1 forward_v I I I I #
coedge $-1 $478 $479 $480 $481 forward $189 $-1 #
coedge $-1 $482 $191 $483 $484 forward $121 $-1 #
coedge $-1 $191 $482 $485 $486 forward $121 $-1 #
coedge $-1 $487 $488 $191 $301 reversed $489 $-1 #
edge $-1 $490 -3.0388970966551998 $491 3.0388970966551998 $300 $492 forward 7 unknown #
loop $-1 $493 $494 $192 #
cone-surface $-1 0 0 0 0 0 1 0.25 0 0 1 I I -0.70710678118654746 0.70710678118654746 0.25 forward I I I I #
coedge $-1 $304 $304 $196 $306 forward $193 $-1 #
coedge $-1 $305 $305 $494 $495 forward $195 $-1 #
edge $-1 $496 0 $496 6.2831853071796004 $304 $497 forward 7 unknown #
loop $-1 $498 $499 $197 #
cone-surface $-1 0 0 0 0 0 1 0.25 0 0 1 I I -0.70710678118654746 0.70710678118654746 0.25 forward I I I I #
coedge $-1 $309 $309 $201 $311 forward $198 $-1 #
coedge $-1 $310 $310 $499 $500 forward $200 $-1 #
edge $-1 $501 0 $501 6.2831853071796004 $309 $502 forward 7 unknown #
loop $-1 $503 $504 $202 #
cone-surface $-1 0 0 0 0 0 1 0.25 0 0 1 I I -0.70710678118654746 0.70710678118654746 0.25 forward I I I I #
coedge $-1 $314 $314 $206 $316 forward $203 $-1 #
coedge $-1 $315 $315 $504 $505 forward $205 $-1 #
edge $-1 $506 0 $506 6.2831853071796004 $314 $507 forward 7 unknown #
face $-1 $508 $509 $68 $-1 $510 reversed single #
loop $-1 $-1 $511 $207 #
plane-surface $-1 0 -3.0388970966551998 0 0 1 0 0 0 1 forward_v I I I I #
coedge $-1 $512 $513 $514 $515 forward $208 $-1 #
coedge $-1 $516 $210 $517 $518 forward $133 $-1 #
coedge $-1 $210 $516 $519 $520 forward $133 $-1 #
coedge $-1 $521 $522 $210 $324 reversed $523 $-1 #
edge $-1 $524 -3.0388970966551998 $525 3.0388970966551998 $323 $526 forward 7 unknown #
loop $-1 $527 $528 $211 #
cone-surface $-1 0 0 0 0 0 1 0.25 0 0 1 I I -0.70710678118654746 0.70710678118654746 0.25 forward I I I I #
coedge $-1 $327 $327 $215 $329 forward $212 $-1 #
coedge $-1 $328 $328 $528 $529 forward $214 $-1 #
edge $-1 $530 0 $530 6.2831853071796004 $327 $531 forward 7 unknown #
loop $-1 $532 $533 $216 #
cone-surface $-1 0 0 0 0 0 1 0.25 0 0 1 I I -0.70710678118654746 0.70710678118654746 0.25 forward I I I I #
coedge $-1 $332 $332 $220 $334 forward $217 $-1 #
coedge $-1 $333 $333 $533 $534 forward $219 $-1 #
edge $-1 $535 0 $535 6.2831853071796004 $332 $536 forward 7 unknown #
loop $-1 $537 $538 $221 #
cone-surface $-1 0 0 0 0 0 1 0.25 0 0 1 I I -0.70710678118654746 0.70710678118654746 0.25 forward I I I I #
coedge $-1 $337 $337 $225 $339 forward $222 $-1 #
coedge $-1 $338 $338 $538 $539 forward $224 $-1 #
edge $-1 $540 0 $540 6.2831853071796004 $337 $541 forward 7 unknown #
face $-1 $542 $543 $54 $-1 $544 reversed single #
loop $-1 $-1 $545 $226 #
plane-surface $-1 -51.263771477401043 0 0 1 0 0 0 0 -1 forward_v I I I I #
coedge $-1 $546 $351 $547 $548 forward $227 $-1 #
coedge $-1 $549 $229 $546 $550 forward $145 $-1 #
coedge $-1 $229 $549 $551 $552 forward $145 $-1 #
coedge $-1 $354 $353 $229 $347 reversed $355 $-1 #
edge $-1 $553 -25.34918169176408 $554 25.34918169176408 $346 $555 forward 7 unknown #
coedge $-1 $231 $230 $556 $557 forward $91 $-1 #
coedge $-1 $558 $559 $230 $350 reversed $543 $-1 #
edge $-1 $357 -51.263771477401043 $560 51.263771477401043 $349 $561 forward 7 unknown #
coedge $-1 $343 $562 $231 $352 reversed $227 $-1 #
edge $-1 $563 -51.263771477401043 $356 51.263771477401043 $351 $564 forward 7 unknown #
coedge $-1 $346 $232 $562 $565 forward $355 $-1 #
coedge $-1 $232 $346 $558 $566 reversed $355 $-1 #
loop $-1 $-1 $353 $542 #
vertex $-1 $233 $567 #
vertex $-1 $233 $568 #
straight-curve $-1 51.263771477401043 0 8.5615667856252919 0 1 0 I I #
face $-1 $569 $570 $55 $-1 $571 reversed single #
loop $-1 $-1 $572 $234 #
plane-surface $-1 -1.6142526248442524 0 0 1 0 0 0 0 -1 forward_v I I I I #
coedge $-1 $573 $370 $574 $575 forward $235 $-1 #
coedge $-1 $576 $237 $573 $577 forward $149 $-1 #
coedge $-1 $237 $576 $578 $579 forward $149 $-1 #
coedge $-1 $373 $372 $237 $366 reversed $374 $-1 #
edge $-1 $580 -4.3258814007840476 $581 4.3258814007840476 $365 $582 forward 7 unknown #
coedge $-1 $239 $238 $583 $584 forward $94 $-1 #
coedge $-1 $585 $586 $238 $369 reversed $570 $-1 #
edge $-1 $376 -1.6142526248442524 $587 1.6142526248442524 $368 $588 forward 7 unknown #
coedge $-1 $362 $589 $239 $371 reversed $235 $-1 #
edge $-1 $590 -1.6142526248442524 $375 1.6142526248442524 $370 $591 forward 7 unknown #
coedge $-1 $365 $240 $589 $592 forward $374 $-1 #
coedge $-1 $240 $365 $585 $593 reversed $374 $-1 #
loop $-1 $-1 $372 $569 #
vertex $-1 $241 $594 #
vertex $-1 $241 $595 #
straight-curve $-1 1.6142526248442524 0 8.5615667856252919 0 1 0 I I #
face $-1 $596 $597 $56 $-1 $598 reversed single #
loop $-1 $-1 $599 $242 #
plane-surface $-1 -205.05508590960417 0 0 1 0 0 0 0 -1 forward_v I I I I #
coedge $-1 $600 $389 $601 $602 forward $243 $-1 #
coedge $-1 $603 $245 $600 $604 forward $153 $-1 #
coedge $-1 $245 $603 $605 $606 forward $153 $-1 #
coedge $-1 $392 $391 $245 $385 reversed $393 $-1 #
edge $-1 $607 -3.1531968009705666 $608 3.1531968009705666 $384 $609 forward 7 unknown #
coedge $-1 $247 $246 $610 $611 forward $97 $-1 #
coedge $-1 $612 $613 $246 $388 reversed $597 $-1 #
edge $-1 $395 -205.05508590960417 $614 205.05508590960417 $387 $615 forward 7 unknown #
coedge $-1 $381 $616 $247 $390 reversed $243 $-1 #
edge $-1 $617 -205.05508590960417 $394 205.05508590960417 $389 $618 forward 7 unknown #
coedge $-1 $384 $248 $616 $619 forward $393 $-1 #
coedge $-1 $248 $384 $612 $620 reversed $393 $-1 #
loop $-1 $-1 $391 $596 #
vertex $-1 $249 $621 #
vertex $-1 $249 $622 #
straight-curve $-1 205.05508590960417 0 102.52754295480209 0 1 0 I I #
loop $-1 $-1 $623 $156 #
coedge $-1 $398 $398 $253 $399 reversed $250 $-1 #
edge $-1 $624 0 $624 6.2831853071796004 $398 $625 forward 7 unknown #
vertex $-1 $254 $626 #
ellipse-curve $-1 0 0 -4.9058885464033946 0 0 -1 1.5 0 0 1 I I #
face $-1 $627 $628 $58 $-1 $629 reversed single #
loop $-1 $-1 $630 $255 #
plane-surface $-1 -205.05508590960417 0 0 1 0 0 0 0 -1 forward_v I I I I #
coedge $-1 $631 $413 $632 $633 forward $256 $-1 #
coedge $-1 $634 $258 $631 $635 forward $162 $-1 #
coedge $-1 $258 $634 $636 $637 forward $162 $-1 #
coedge $-1 $416 $415 $258 $409 reversed $417 $-1 #
edge $-1 $638 -3.1531968009705666 $639 3.1531968009705666 $408 $640 forward 7 unknown #
coedge $-1 $260 $259 $641 $642 forward $103 $-1 #
coedge $-1 $643 $644 $259 $412 reversed $628 $-1 #
edge $-1 $419 -205.05508590960417 $645 205.05508590960417 $411 $646 forward 7 unknown #
coedge $-1 $405 $647 $260 $414 reversed $256 $-1 #
edge $-1 $648 -205.05508590960417 $418 205.05508590960417 $413 $649 forward 7 unknown #
coedge $-1 $408 $261 $647 $650 forward $417 $-1 #
coedge $-1 $261 $408 $643 $651 reversed $417 $-1 #
loop $-1 $-1 $415 $627 #
vertex $-1 $262 $652 #
vertex $-1 $262 $653 #
straight-curve $-1 205.05508590960417 0 102.52754295480209 0 1 0 I I #
loop $-1 $-1 $654 $165 #
coedge $-1 $422 $422 $266 $423 reversed $263 $-1 #
edge $-1 $655 0 $655 6.2831853071796004 $422 $656 forward 7 unknown #
vertex $-1 $267 $657 #
ellipse-curve $-1 0 0 -4.9058885464033946 0 0 -1 1.5 0 0 1 I I #
face $-1 $658 $659 $60 $-1 $660 reversed single #
loop $-1 $-1 $661 $268 #
plane-surface $-1 -205.05508590960417 0 0 1 0 0 0 0 -1 forward_v I I I I #
coedge $-1 $662 $437 $663 $664 forward $269 $-1 #
coedge $-1 $665 $271 $662 $666 forward $171 $-1 #
coedge $-1 $271 $665 $667 $668 forward $171 $-1 #
coedge $-1 $440 $439 $271 $433 reversed $441 $-1 #
edge $-1 $669 -3.1531968009705666 $670 3.1531968009705666 $432 $671 forward 7 unknown #
coedge $-1 $273 $272 $672 $673 forward $109 $-1 #
coedge $-1 $674 $675 $272 $436 reversed $659 $-1 #
edge $-1 $443 -205.05508590960417 $676 205.05508590960417 $435 $677 forward 7 unknown #
coedge $-1 $429 $678 $273 $438 reversed $269 $-1 #
edge $-1 $679 -205.05508590960417 $442 205.05508590960417 $437 $680 forward 7 unknown #
coedge $-1 $432 $274 $678 $681 forward $441 $-1 #
coedge $-1 $274 $432 $674 $682 reversed $441 $-1 #
loop $-1 $-1 $439 $658 #
vertex $-1 $275 $683 #
vertex $-1 $275 $684 #
straight-curve $-1 205.05508590960417 0 102.52754295480209 0 1 0 I I #
loop $-1 $-1 $685 $174 #
coedge $-1 $446 $446 $279 $447 reversed $276 $-1 #
edge $-1 $686 0 $686 6.2831853071796004 $446 $687 forward 7 unknown #
vertex $-1 $280 $688 #
ellipse-curve $-1 0 0 -4.9058885464033946 0 0 -1 1.5 0 0 1 I I #
face $-1 $689 $690 $62 $-1 $691 reversed single #
loop $-1 $-1 $692 $281 #
plane-surface $-1 -205.05508590960417 0 0 1 0 0 0 0 -1 forward_v I I I I #
coedge $-1 $693 $461 $694 $695 forward $282 $-1 #
coedge $-1 $696 $284 $693 $697 forward $180 $-1 #
coedge $-1 $284 $696 $698 $699 forward $180 $-1 #
coedge $-1 $464 $463 $284 $457 reversed $465 $-1 #
edge $-1 $700 -3.1531968009705666 $701 3.1531968009705666 $456 $702 forward 7 unknown #
coedge $-1 $286 $285 $703 $704 forward $115 $-1 #
coedge $-1 $705 $706 $285 $460 reversed $690 $-1 #
edge $-1 $467 -205.05508590960417 $707 205.05508590960417 $459 $708 forward 7 unknown #
coedge $-1 $453 $709 $286 $462 reversed $282 $-1 #
edge $-1 $710 -205.05508590960417 $466 205.05508590960417 $461 $711 forward 7 unknown #
coedge $-1 $456 $287 $709 $712 forward $465 $-1 #
coedge $-1 $287 $456 $705 $713 reversed $465 $-1 #
loop $-1 $-1 $463 $689 #
vertex $-1 $288 $714 #
vertex $-1 $288 $715 #
straight-curve $-1 205.05508590960417 0 102.52754295480209 0 1 0 I I #
loop $-1 $-1 $716 $183 #
coedge $-1 $470 $470 $292 $471 reversed $289 $-1 #
edge $-1 $717 0 $717 6.2831853071796004 $470 $718 forward 7 unknown #
vertex $-1 $293 $719 #
ellipse-curve $-1 0 0 -4.9058885464033946 0 0 -1 1.5 0 0 1 I I #
face $-1 $720 $721 $64 $-1 $722 reversed single #
loop $-1 $-1 $723 $294 #
plane-surface $-1 -205.05508590960417 0 0 1 0 0 0 0 -1 forward_v I I I I #
coedge $-1 $724 $485 $725 $726 forward $295 $-1 #
coedge $-1 $727 $297 $724 $728 forward $189 $-1 #
coedge $-1 $297 $727 $729 $730 forward $189 $-1 #
coedge $-1 $488 $487 $297 $481 reversed $489 $-1 #
edge $-1 $731 -3.0388970966551998 $732 3.0388970966551998 $480 $733 forward 7 unknown #
coedge $-1 $299 $298 $734 $735 forward $121 $-1 #
coedge $-1 $736 $737 $298 $484 reversed $721 $-1 #
edge $-1 $491 -205.05508590960417 $738 205.05508590960417 $483 $739 forward 7 unknown #
coedge $-1 $477 $740 $299 $486 reversed $295 $-1 #
edge $-1 $741 -205.05508590960417 $490 205.05508590960417 $485 $742 forward 7 unknown #
coedge $-1 $480 $300 $740 $743 forward $489 $-1 #
coedge $-1 $300 $480 $736 $744 reversed $489 $-1 #
loop $-1 $-1 $487 $720 #
vertex $-1 $301 $745 #
vertex $-1 $301 $746 #
straight-curve $-1 205.05508590960417 0 102.52754295480209 0 1 0 I I #
loop $-1 $-1 $747 $192 #
coedge $-1 $494 $494 $305 $495 reversed $302 $-1 #
edge $-1 $748 0 $748 6.2831853071796004 $494 $749 forward 7 unknown #
vertex $-1 $306 $750 #
ellipse-curve $-1 0 0 -1.25 0 0 -1 0.5 0 0 1 I I #
loop $-1 $-1 $751 $197 #
coedge $-1 $499 $499 $310 $500 reversed $307 $-1 #
edge $-1 $752 0 $752 6.2831853071796004 $499 $753 forward 7 unknown #
vertex $-1 $311 $754 #
ellipse-curve $-1 0 0 -1.25 0 0 -1 0.5 0 0 1 I I #
loop $-1 $-1 $755 $202 #
coedge $-1 $504 $504 $315 $505 reversed $312 $-1 #
edge $-1 $756 0 $756 6.2831853071796004 $504 $757 forward 7 unknown #
vertex $-1 $316 $758 #
ellipse-curve $-1 0 0 -1.25 0 0 -1 0.5 0 0 1 I I #
face $-1 $759 $760 $68 $-1 $761 reversed single #
loop $-1 $-1 $762 $317 #
plane-surface $-1 -205.05508590960417 0 0 1 0 0 0 0 -1 forward_v I I I I #
coedge $-1 $763 $519 $764 $765 forward $318 $-1 #
coedge $-1 $766 $320 $763 $767 forward $208 $-1 #
coedge $-1 $320 $766 $768 $769 forward $208 $-1 #
coedge $-1 $522 $521 $320 $515 reversed $523 $-1 #
edge $-1 $770 -3.0388970966551998 $771 3.0388970966551998 $514 $772 forward 7 unknown #
coedge $-1 $322 $321 $773 $774 forward $133 $-1 #
coedge $-1 $775 $776 $321 $518 reversed $760 $-1 #
edge $-1 $525 -205.05508590960417 $777 205.05508590960417 $517 $778 forward 7 unknown #
coedge $-1 $511 $779 $322 $520 reversed $318 $-1 #
edge $-1 $780 -205.05508590960417 $524 205.05508590960417 $519 $781 forward 7 unknown #
coedge $-1 $514 $323 $779 $782 forward $523 $-1 #
coedge $-1 $323 $514 $775 $783 reversed $523 $-1 #
loop $-1 $-1 $521 $759 #
vertex $-1 $324 $784 #
vertex $-1 $324 $785 #
straight-curve $-1 205.05508590960417 0 102.52754295480209 0 1 0 I I #
loop $-1 $-1 $786 $211 #
coedge $-1 $528 $528 $328 $529 reversed $325 $-1 #
edge $-1 $787 0 $787 6.2831853071796004 $528 $788 forward 7 unknown #
vertex $-1 $329 $789 #
ellipse-curve $-1 0 0 -1.25 0 0 -1 0.5 0 0 1 I I #
loop $-1 $-1 $790 $216 #
coedge $-1 $533 $533 $333 $534 reversed $330 $-1 #
edge $-1 $791 0 $791 6.2831853071796004 $533 $792 forward 7 unknown #
vertex $-1 $334 $793 #
ellipse-curve $-1 0 0 -1.25 0 0 -1 0.5 0 0 1 I I #
loop $-1 $-1 $794 $221 #
coedge $-1 $538 $538 $338 $539 reversed $335 $-1 #
edge $-1 $795 0 $795 6.2831853071796004 $538 $796 forward 7 unknown #
vertex $-1 $339 $797 #
ellipse-curve $-1 0 0 -1.25 0 0 -1 0.5 0 0 1 I I #
face $-1 $-1 $355 $54 $-1 $798 reversed single #
loop $-1 $-1 $558 $340 #
plane-surface $-1 0 25.34918169176408 0 0 -1 0 0 0 -1 forward_v I I I I #
coedge $-1 $799 $556 $559 $800 forward $341 $-1 #
coedge $-1 $562 $343 $344 $550 reversed $227 $-1 #
coedge $-1 $556 $799 $343 $548 reversed $341 $-1 #
edge $-1 $563 -8.5615667856252919 $801 8.5615667856252919 $547 $802 forward 7 unknown #
coedge $-1 $345 $344 $799 $803 forward $145 $-1 #
edge $-1 $554 -51.263771477401043 $801 51.263771477401043 $546 $804 forward 7 unknown #
coedge $-1 $559 $558 $345 $552 reversed $543 $-1 #
edge $-1 $805 -51.263771477401043 $553 51.263771477401043 $551 $806 forward 7 unknown #
vertex $-1 $347 $807 #
vertex $-1 $565 $808 #
straight-curve $-1 51.263771477401043 0 -8.5615667856252919 0 -1 0 I I #
coedge $-1 $545 $547 $348 $557 reversed $341 $-1 #
edge $-1 $560 -25.34918169176408 $563 25.34918169176408 $556 $809 forward 7 unknown #
coedge $-1 $551 $349 $354 $566 forward $543 $-1 #
coedge $-1 $349 $551 $545 $800 reversed $543 $-1 #
vertex $-1 $350 $810 #
straight-curve $-1 0 25.34918169176408 8.5615667856252919 -1 0 0 I I #
coedge $-1 $351 $546 $353 $565 reversed $227 $-1 #
vertex $-1 $557 $811 #
straight-curve $-1 0 -25.34918169176408 8.5615667856252919 1 0 0 I I #
edge $-1 $356 -8.5615667856252919 $554 8.5615667856252919 $353 $812 forward 7 unknown #
edge $-1 $357 -8.5615667856252919 $553 8.5615667856252919 $354 $813 forward 7 unknown #
point $-1 51.263771477401043 -25.34918169176408 8.5615667856252919 #
point $-1 51.263771477401043 25.34918169176408 8.5615667856252919 #
face $-1 $-1 $374 $55 $-1 $814 reversed single #
loop $-1 $-1 $585 $359 #
plane-surface $-1 0 4.3258814007840476 0 0 -1 0 0 0 -1 forward_v I I I I #
coedge $-1 $815 $583 $586 $816 forward $360 $-1 #
coedge $-1 $589 $362 $363 $577 reversed $235 $-1 #
coedge $-1 $583 $815 $362 $575 reversed $360 $-1 #
edge $-1 $590 -8.5615667856252919 $817 8.5615667856252919 $574 $818 forward 7 unknown #
coedge $-1 $364 $363 $815 $819 forward $149 $-1 #
edge $-1 $581 -1.6142526248442524 $817 1.6142526248442524 $573 $820 forward 7 unknown #
coedge $-1 $586 $585 $364 $579 reversed $570 $-1 #
edge $-1 $821 -1.6142526248442524 $580 1.6142526248442524 $578 $822 forward 7 unknown #
vertex $-1 $366 $823 #
vertex $-1 $592 $824 #
straight-curve $-1 1.6142526248442524 0 -8.5615667856252919 0 -1 0 I I #
coedge $-1 $572 $574 $367 $584 reversed $360 $-1 #
edge $-1 $587 -4.3258814007840476 $590 4.3258814007840476 $583 $825 forward 7 unknown #
coedge $-1 $578 $368 $373 $593 forward $570 $-1 #
coedge $-1 $368 $578 $572 $816 reversed $570 $-1 #
vertex $-1 $369 $826 #
straight-curve $-1 0 4.3258814007840476 8.5615667856252919 -1 0 0 I I #
coedge $-1 $370 $573 $372 $592 reversed $235 $-1 #
vertex $-1 $584 $827 #
straight-curve $-1 0 -4.3258814007840476 8.5615667856252919 1 0 0 I I #
edge $-1 $375 -8.5615667856252919 $581 8.5615667856252919 $372 $828 forward 7 unknown #
edge $-1 $376 -8.5615667856252919 $580 8.5615667856252919 $373 $829 forward 7 unknown #
point $-1 1.6142526248442524 -4.3258814007840476 8.5615667856252919 #
point $-1 1.6142526248442524 4.3258814007840476 8.5615667856252919 #
face $-1 $-1 $393 $56 $-1 $830 reversed single #
loop $-1 $-1 $612 $378 #
plane-surface $-1 0 3.1531968009705666 0 0 -1 0 0 0 -1 forward_v I I I I #
coedge $-1 $831 $610 $613 $832 forward $379 $-1 #
coedge $-1 $616 $381 $382 $604 reversed $243 $-1 #
coedge $-1 $610 $831 $381 $602 reversed $379 $-1 #
edge $-1 $617 -102.52754295480209 $833 102.52754295480209 $601 $834 forward 7 unknown #
coedge $-1 $383 $382 $831 $835 forward $153 $-1 #
edge $-1 $608 -205.05508590960417 $833 205.05508590960417 $600 $836 forward 7 unknown #
coedge $-1 $613 $612 $383 $606 reversed $597 $-1 #
edge $-1 $837 -205.05508590960417 $607 205.05508590960417 $605 $838 forward 7 unknown #
vertex $-1 $385 $839 #
vertex $-1 $619 $840 #
straight-curve $-1 205.05508590960417 0 -102.52754295480209 0 -1 0 I I #
coedge $-1 $599 $601 $386 $611 reversed $379 $-1 #
edge $-1 $614 -3.1531968009705666 $617 3.1531968009705666 $610 $841 forward 7 unknown #
coedge $-1 $605 $387 $392 $620 forward $597 $-1 #
coedge $-1 $387 $605 $599 $832 reversed $597 $-1 #
vertex $-1 $388 $842 #
straight-curve $-1 0 3.1531968009705666 102.52754295480209 -1 0 0 I I #
coedge $-1 $389 $600 $391 $619 reversed $243 $-1 #
vertex $-1 $611 $843 #
straight-curve $-1 0 -3.1531968009705666 102.52754295480209 1 0 0 I I #
edge $-1 $394 -102.52754295480209 $608 102.52754295480209 $391 $844 forward 7 unknown #
edge $-1 $395 -102.52754295480209 $607 102.52754295480209 $392 $845 forward 7 unknown #
point $-1 205.05508590960417 -3.1531968009705666 102.52754295480209 #
point $-1 205.05508590960417 3.1531968009705666 102.52754295480209 #
coedge $-1 $623 $623 $-1 $846 reversed $397 $-1 #
vertex $-1 $399 $847 #
ellipse-curve $-1 0 0 -0.75 0 0 -1 1.5 0 0 1 I I #
point $-1 1.5 0 -4.9058885464033946 #
face $-1 $-1 $417 $58 $-1 $848 reversed single #
loop $-1 $-1 $643 $402 #
plane-surface $-1 0 3.1531968009705666 0 0 -1 0 0 0 -1 forward_v I I I I #
coedge $-1 $849 $641 $644 $850 forward $403 $-1 #
coedge $-1 $647 $405 $406 $635 reversed $256 $-1 #
coedge $-1 $641 $849 $405 $633 reversed $403 $-1 #
edge $-1 $648 -102.52754295480209 $851 102.52754295480209 $632 $852 forward 7 unknown #
coedge $-1 $407 $406 $849 $853 forward $162 $-1 #
edge $-1 $639 -205.05508590960417 $851 205.05508590960417 $631 $854 forward 7 unknown #
coedge $-1 $644 $643 $407 $637 reversed $628 $-1 #
edge $-1 $855 -205.05508590960417 $638 205.05508590960417 $636 $856 forward 7 unknown #
vertex $-1 $409 $857 #
vertex $-1 $650 $858 #
straight-curve $-1 205.05508590960417 0 -102.52754295480209 0 -1 0 I I #
coedge $-1 $630 $632 $410 $642 reversed $403 $-1 #
edge $-1 $645 -3.1531968009705666 $648 3.1531968009705666 $641 $859 forward 7 unknown #
coedge $-1 $636 $411 $416 $651 forward $628 $-1 #
coedge $-1 $411 $636 $630 $850 reversed $628 $-1 #
vertex $-1 $412 $860 #
straight-curve $-1 0 3.1531968009705666 102.52754295480209 -1 0 0 I I #
coedge $-1 $413 $631 $415 $650 reversed $256 $-1 #
vertex $-1 $642 $861 #
straight-curve $-1 0 -3.1531968009705666 102.52754295480209 1 0 0 I I #
edge $-1 $418 -102.52754295480209 $639 102.52754295480209 $415 $862 forward 7 unknown #
edge $-1 $419 -102.52754295480209 $638 102.52754295480209 $416 $863 forward 7 unknown #
point $-1 205.05508590960417 -3.1531968009705666 102.52754295480209 #
point $-1 205.05508590960417 3.1531968009705666 102.52754295480209 #
coedge $-1 $654 $654 $-1 $864 reversed $421 $-1 #
vertex $-1 $423 $865 #
ellipse-curve $-1 0 0 -0.75 0 0 -1 1.5 0 0 1 I I #
point $-1 1.5 0 -4.9058885464033946 #
face $-1 $-1 $441 $60 $-1 $866 reversed single #
loop $-1 $-1 $674 $426 #
plane-surface $-1 0 3.1531968009705666 0 0 -1 0 0 0 -1 forward_v I I I I #
coedge $-1 $867 $672 $675 $868 forward $427 $-1 #
coedge $-1 $678 $429 $430 $666 reversed $269 $-1 #
coedge $-1 $672 $867 $429 $664 reversed $427 $-1 #
edge $-1 $679 -102.52754295480209 $869 102.52754295480209 $663 $870 forward 7 unknown #
coedge $-1 $431 $430 $867 $871 forward $171 $-1 #
edge $-1 $670 -205.05508590960417 $869 205.05508590960417 $662 $872 forward 7 unknown #
coedge $-1 $675 $674 $431 $668 reversed $659 $-1 #
edge $-1 $873 -205.05508590960417 $669 205.05508590960417 $667 $874 forward 7 unknown #
vertex $-1 $433 $875 #
vertex $-1 $681 $876 #
straight-curve $-1 205.05508590960417 0 -102.52754295480209 0 -1 0 I I #
coedge $-1 $661 $663 $434 $673 reversed $427 $-1 #
edge $-1 $676 -3.1531968009705666 $679 3.1531968009705666 $672 $877 forward 7 unknown #
coedge $-1 $667 $435 $440 $682 forward $659 $-1 #
coedge $-1 $435 $667 $661 $868 reversed $659 $-1 #
vertex $-1 $436 $878 #
straight-curve $-1 0 3.1531968009705666 102.52754295480209 -1 0 0 I I #
coedge $-1 $437 $662 $439 $681 reversed $269 $-1 #
vertex $-1 $673 $879 #
straight-curve $-1 0 -3.1531968009705666 102.52754295480209 1 0 0 I I #
edge $-1 $442 -102.52754295480209 $670 102.52754295480209 $439 $880 forward 7 unknown #
edge $-1 $443 -102.52754295480209 $669 102.52754295480209 $440 $881 forward 7 unknown #
point $-1 205.05508590960417 -3.1531968009705666 102.52754295480209 #
point $-1 205.05508590960417 3.1531968009705666 102.52754295480209 #
coedge $-1 $685 $685 $-1 $882 reversed $445 $-1 #
vertex $-1 $447 $883 #
ellipse-curve $-1 0 0 -0.75 0 0 -1 1.5 0 0 1 I I #
point $-1 1.5 0 -4.9058885464033946 #
face $-1 $-1 $465 $62 $-1 $884 reversed single #
loop $-1 $-1 $705 $450 #
plane-surface $-1 0 3.1531968009705666 0 0 -1 0 0 0 -1 forward_v I I I I #
coedge $-1 $885 $703 $706 $886 forward $451 $-1 #
coedge $-1 $709 $453 $454 $697 reversed $282 $-1 #
coedge $-1 $703 $885 $453 $695 reversed $451 $-1 #
edge $-1 $710 -102.52754295480209 $887 102.52754295480209 $694 $888 forward 7 unknown #
coedge $-1 $455 $454 $885 $889 forward $180 $-1 #
edge $-1 $701 -205.05508590960417 $887 205.05508590960417 $693 $890 forward 7 unknown #
coedge $-1 $706 $705 $455 $699 reversed $690 $-1 #
edge $-1 $891 -205.05508590960417 $700 205.05508590960417 $698 $892 forward 7 unknown #
vertex $-1 $457 $893 #
vertex $-1 $712 $894 #
straight-curve $-1 205.05508590960417 0 -102.52754295480209 0 -1 0 I I #
coedge $-1 $692 $694 $458 $704 reversed $451 $-1 #
edge $-1 $707 -3.1531968009705666 $710 3.1531968009705666 $703 $895 forward 7 unknown #
coedge $-1 $698 $459 $464 $713 forward $690 $-1 #
coedge $-1 $459 $698 $692 $886 reversed $690 $-1 #
vertex $-1 $460 $896 #
straight-curve $-1 0 3.1531968009705666 102.52754295480209 -1 0 0 I I #
coedge $-1 $461 $693 $463 $712 reversed $282 $-1 #
vertex $-1 $704 $897 #
straight-curve $-1 0 -3.1531968009705666 102.52754295480209 1 0 0 I I #
edge $-1 $466 -102.52754295480209 $701 102.52754295480209 $463 $898 forward 7 unknown #
edge $-1 $467 -102.52754295480209 $700 102.52754295480209 $464 $899 forward 7 unknown #
point $-1 205.05508590960417 -3.1531968009705666 102.52754295480209 #
point $-1 205.05508590960417 3.1531968009705666 102.52754295480209 #
coedge $-1 $716 $716 $-1 $900 reversed $469 $-1 #
vertex $-1 $471 $901 #
ellipse-curve $-1 0 0 -0.75 0 0 -1 1.5 0 0 1 I I #
point $-1 1.5 0 -4.9058885464033946 #
face $-1 $-1 $489 $64 $-1 $902 reversed single #
loop $-1 $-1 $736 $474 #
plane-surface $-1 0 3.0388970966551998 0 0 -1 0 0 0 -1 forward_v I I I I #
coedge $-1 $903 $734 $737 $904 forward $475 $-1 #
coedge $-1 $740 $477 $478 $728 reversed $295 $-1 #
coedge $-1 $734 $903 $477 $726 reversed $475 $-1 #
edge $-1 $741 -102.52754295480209 $905 102.52754295480209 $725 $906 forward 7 unknown #
coedge $-1 $479 $478 $903 $907 forward $189 $-1 #
edge $-1 $732 -205.05508590960417 $905 205.05508590960417 $724 $908 forward 7 unknown #
coedge $-1 $737 $736 $479 $730 reversed $721 $-1 #
edge $-1 $909 -205.05508590960417 $731 205.05508590960417 $729 $910 forward 7 unknown #
vertex $-1 $481 $911 #
vertex $-1 $743 $912 #
straight-curve $-1 205.05508590960417 0 -102.52754295480209 0 -1 0 I I #
coedge $-1 $723 $725 $482 $735 reversed $475 $-1 #
edge $-1 $738 -3.0388970966551998 $741 3.0388970966551998 $734 $913 forward 7 unknown #
coedge $-1 $729 $483 $488 $744 forward $721 $-1 #
coedge $-1 $483 $729 $723 $904 reversed $721 $-1 #
vertex $-1 $484 $914 #
straight-curve $-1 0 3.0388970966551998 102.52754295480209 -1 0 0 I I #
coedge $-1 $485 $724 $487 $743 reversed $295 $-1 #
vertex $-1 $735 $915 #
straight-curve $-1 0 -3.0388970966551998 102.52754295480209 1 0 0 I I #
edge $-1 $490 -102.52754295480209 $732 102.52754295480209 $487 $916 forward 7 unknown #
edge $-1 $491 -102.52754295480209 $731 102.52754295480209 $488 $917 forward 7 unknown #
point $-1 205.05508590960417 -3.0388970966551998 102.52754295480209 #
point $-1 205.05508590960417 3.0388970966551998 102.52754295480209 #
coedge $-1 $747 $747 $-1 $918 reversed $493 $-1 #
vertex $-1 $495 $919 #
ellipse-curve $-1 0 0 -0.25 0 0 -1 0.5 0 0 1 I I #
point $-1 0.5 0 -1.25 #
coedge $-1 $751 $751 $-1 $920 reversed $498 $-1 #
vertex $-1 $500 $921 #
ellipse-curve $-1 0 0 -0.25 0 0 -1 0.5 0 0 1 I I #
point $-1 0.5 0 -1.25 #
coedge $-1 $755 $755 $-1 $922 reversed $503 $-1 #
vertex $-1 $505 $923 #
ellipse-curve $-1 0 0 -0.25 0 0 -1 0.5 0 0 1 I I #
point $-1 0.5 0 -1.25 #
face $-1 $-1 $523 $68 $-1 $924 reversed single #
loop $-1 $-1 $775 $508 #
plane-surface $-1 0 3.0388970966551998 0 0 -1 0 0 0 -1 forward_v I I I I #
coedge $-1 $925 $773 $776 $926 forward $509 $-1 #
coedge $-1 $779 $511 $512 $767 reversed $318 $-1 #
coedge $-1 $773 $925 $511 $765 reversed $509 $-1 #
edge $-1 $780 -102.52754295480209 $927 102.52754295480209 $764 $928 forward 7 unknown #
coedge $-1 $513 $512 $925 $929 forward $208 $-1 #
edge $-1 $771 -205.05508590960417 $927 205.05508590960417 $763 $930 forward 7 unknown #
coedge $-1 $776 $775 $513 $769 reversed $760 $-1 #
edge $-1 $931 -205.05508590960417 $770 205.05508590960417 $768 $932 forward 7 unknown #
vertex $-1 $515 $933 #
vertex $-1 $782 $934 #
straight-curve $-1 205.05508590960417 0 -102.52754295480209 0 -1 0 I I #
coedge $-1 $762 $764 $516 $774 reversed $509 $-1 #
edge $-1 $777 -3.0388970966551998 $780 3.0388970966551998 $773 $935 forward 7 unknown #
coedge $-1 $768 $517 $522 $783 forward $760 $-1 #
coedge $-1 $517 $768 $762 $926 reversed $760 $-1 #
vertex $-1 $518 $936 #
straight-curve $-1 0 3.0388970966551998 102.52754295480209 -1 0 0 I I #
coedge $-1 $519 $763 $521 $782 reversed $318 $-1 #
vertex $-1 $774 $937 #
straight-curve $-1 0 -3.0388970966551998 102.52754295480209 1 0 0 I I #
edge $-1 $524 -102.52754295480209 $771 102.52754295480209 $521 $938 forward 7 unknown #
edge $-1 $525 -102.52754295480209 $770 102.52754295480209 $522 $939 forward 7 unknown #
point $-1 205.05508590960417 -3.0388970966551998 102.52754295480209 #
point $-1 205.05508590960417 3.0388970966551998 102.52754295480209 #
coedge $-1 $786 $786 $-1 $940 reversed $527 $-1 #
vertex $-1 $529 $941 #
ellipse-curve $-1 0 0 -0.25 0 0 -1 0.5 0 0 1 I I #
point $-1 0.5 0 -1.25 #
coedge $-1 $790 $790 $-1 $942 reversed $532 $-1 #
vertex $-1 $534 $943 #
ellipse-curve $-1 0 0 -0.25 0 0 -1 0.5 0 0 1 I I #
point $-1 0.5 0 -1.25 #
coedge $-1 $794 $794 $-1 $944 reversed $537 $-1 #
vertex $-1 $539 $945 #
ellipse-curve $-1 0 0 -0.25 0 0 -1 0.5 0 0 1 I I #
point $-1 0.5 0 -1.25 #
plane-surface $-1 51.263771477401043 0 0 -1 0 0 0 0 1 forward_v I I I I #
coedge $-1 $547 $545 $549 $803 reversed $341 $-1 #
edge $-1 $560 -8.5615667856252919 $805 8.5615667856252919 $559 $946 forward 7 unknown #
vertex $-1 $803 $947 #
straight-curve $-1 -51.263771477401043 -25.34918169176408 0 0 0 -1 I I #
edge $-1 $801 -25.34918169176408 $805 25.34918169176408 $799 $948 forward 7 unknown #
straight-curve $-1 0 -25.34918169176408 -8.5615667856252919 -1 0 0 I I #
vertex $-1 $552 $949 #
straight-curve $-1 0 25.34918169176408 -8.5615667856252919 1 0 0 I I #
point $-1 51.263771477401043 25.34918169176408 -8.5615667856252919 #
point $-1 51.263771477401043 -25.34918169176408 -8.5615667856252919 #
straight-curve $-1 -51.263771477401043 0 8.5615667856252919 0 -1 0 I I #
point $-1 -51.263771477401043 25.34918169176408 8.5615667856252919 #
point $-1 -51.263771477401043 -25.34918169176408 8.5615667856252919 #
straight-curve $-1 51.263771477401043 -25.34918169176408 0 0 0 -1 I I #
straight-curve $-1 51.263771477401043 25.34918169176408 0 0 0 -1 I I #
plane-surface $-1 1.6142526248442524 0 0 -1 0 0 0 0 1 forward_v I I I I #
coedge $-1 $574 $572 $576 $819 reversed $360 $-1 #
edge $-1 $587 -8.5615667856252919 $821 8.5615667856252919 $586 $950 forward 7 unknown #
vertex $-1 $819 $951 #
straight-curve $-1 -1.6142526248442524 -4.3258814007840476 0 0 0 -1 I I #
edge $-1 $817 -4.3258814007840476 $821 4.3258814007840476 $815 $952 forward 7 unknown #
straight-curve $-1 0 -4.3258814007840476 -8.5615667856252919 -1 0 0 I I #
vertex $-1 $579 $953 #
straight-curve $-1 0 4.3258814007840476 -8.5615667856252919 1 0 0 I I #
point $-1 1.6142526248442524 4.3258814007840476 -8.5615667856252919 #
point $-1 1.6142526248442524 -4.3258814007840476 -8.5615667856252919 #
straight-curve $-1 -1.6142526248442524 0 8.5615667856252919 0 -1 0 I I #
point $-1 -1.6142526248442524 4.3258814007840476 8.5615667856252919 #
point $-1 -1.6142526248442524 -4.3258814007840476 8.5615667856252919 #
straight-curve $-1 1.6142526248442524 -4.3258814007840476 0 0 0 -1 I I #
straight-curve $-1 1.6142526248442524 4.3258814007840476 0 0 0 -1 I I #
plane-surface $-1 205.05508590960417 0 0 -1 0 0 0 0 1 forward_v I I I I #
coedge $-1 $601 $599 $603 $835 reversed $379 $-1 #
edge $-1 $614 -102.52754295480209 $837 102.52754295480209 $613 $954 forward 7 unknown #
vertex $-1 $835 $955 #
straight-curve $-1 -205.05508590960417 -3.1531968009705666 0 0 0 -1 I I #
edge $-1 $833 -3.1531968009705666 $837 3.1531968009705666 $831 $956 forward 7 unknown #
straight-curve $-1 0 -3.1531968009705666 -102.52754295480209 -1 0 0 I I #
vertex $-1 $606 $957 #
straight-curve $-1 0 3.1531968009705666 -102.52754295480209 1 0 0 I I #
point $-1 205.05508590960417 3.1531968009705666 -102.52754295480209 #
point $-1 205.05508590960417 -3.1531968009705666 -102.52754295480209 #
straight-curve $-1 -205.05508590960417 0 102.52754295480209 0 -1 0 I I #
point $-1 -205.05508590960417 3.1531968009705666 102.52754295480209 #
point $-1 -205.05508590960417 -3.1531968009705666 102.52754295480209 #
straight-curve $-1 205.05508590960417 -3.1531968009705666 0 0 0 -1 I I #
straight-curve $-1 205.05508590960417 3.1531968009705666 0 0 0 -1 I I #
edge $-1 $958 1 $958 0 $623 $-1 forward 7 unknown #
point $-1 1.5 0 -0.75 #
plane-surface $-1 205.05508590960417 0 0 -1 0 0 0 0 1 forward_v I I I I #
coedge $-1 $632 $630 $634 $853 reversed $403 $-1 #
edge $-1 $645 -102.52754295480209 $855 102.52754295480209 $644 $959 forward 7 unknown #
vertex $-1 $853 $960 #
straight-curve $-1 -205.05508590960417 -3.1531968009705666 0 0 0 -1 I I #
edge $-1 $851 -3.1531968009705666 $855 3.1531968009705666 $849 $961 forward 7 unknown #
straight-curve $-1 0 -3.1531968009705666 -102.52754295480209 -1 0 0 I I #
vertex $-1 $637 $962 #
straight-curve $-1 0 3.1531968009705666 -102.52754295480209 1 0 0 I I #
point $-1 205.05508590960417 3.1531968009705666 -102.52754295480209 #
point $-1 205.05508590960417 -3.1531968009705666 -102.52754295480209 #
straight-curve $-1 -205.05508590960417 0 102.52754295480209 0 -1 0 I I #
point $-1 -205.05508590960417 3.1531968009705666 102.52754295480209 #
point $-1 -205.05508590960417 -3.1531968009705666 102.52754295480209 #
straight-curve $-1 205.05508590960417 -3.1531968009705666 0 0 0 -1 I I #
straight-curve $-1 205.05508590960417 3.1531968009705666 0 0 0 -1 I I #
edge $-1 $963 1 $963 0 $654 $-1 forward 7 unknown #
point $-1 1.5 0 -0.75 #
plane-surface $-1 205.05508590960417 0 0 -1 0 0 0 0 1 forward_v I I I I #
coedge $-1 $663 $661 $665 $871 reversed $427 $-1 #
edge $-1 $676 -102.52754295480209 $873 102.52754295480209 $675 $964 forward 7 unknown #
vertex $-1 $871 $965 #
straight-curve $-1 -205.05508590960417 -3.1531968009705666 0 0 0 -1 I I #
edge $-1 $869 -3.1531968009705666 $873 3.1531968009705666 $867 $966 forward 7 unknown #
straight-curve $-1 0 -3.1531968009705666 -102.52754295480209 -1 0 0 I I #
vertex $-1 $668 $967 #
straight-curve $-1 0 3.1531968009705666 -102.52754295480209 1 0 0 I I #
point $-1 205.05508590960417 3.1531968009705666 -102.52754295480209 #
point $-1 205.05508590960417 -3.1531968009705666 -102.52754295480209 #
straight-curve $-1 -205.05508590960417 0 102.52754295480209 0 -1 0 I I #
point $-1 -205.05508590960417 3.1531968009705666 102.52754295480209 #
point $-1 -205.05508590960417 -3.1531968009705666 102.52754295480209 #
straight-curve $-1 205.05508590960417 -3.1531968009705666 0 0 0 -1 I I #
straight-curve $-1 205.05508590960417 3.1531968009705666 0 0 0 -1 I I #
edge $-1 $968 1 $968 0 $685 $-1 forward 7 unknown #
point $-1 1.5 0 -0.75 #
plane-surface $-1 205.05508590960417 0 0 -1 0 0 0 0 1 forward_v I I I I #
coedge $-1 $694 $692 $696 $889 reversed $451 $-1 #
edge $-1 $707 -102.52754295480209 $891 102.52754295480209 $706 $969 forward 7 unknown #
vertex $-1 $889 $970 #
straight-curve $-1 -205.05508590960417 -3.1531968009705666 0 0 0 -1 I I #
edge $-1 $887 -3.1531968009705666 $891 3.1531968009705666 $885 $971 forward 7 unknown #
straight-curve $-1 0 -3.1531968009705666 -102.52754295480209 -1 0 0 I I #
vertex $-1 $699 $972 #
straight-curve $-1 0 3.1531968009705666 -102.52754295480209 1 0 0 I I #
point $-1 205.05508590960417 3.1531968009705666 -102.52754295480209 #
point $-1 205.05508590960417 -3.1531968009705666 -102.52754295480209 #
straight-curve $-1 -205.05508590960417 0 102.52754295480209 0 -1 0 I I #
point $-1 -205.05508590960417 3.1531968009705666 102.52754295480209 #
point $-1 -205.05508590960417 -3.1531968009705666 102.52754295480209 #
straight-curve $-1 205.05508590960417 -3.1531968009705666 0 0 0 -1 I I #
straight-curve $-1 205.05508590960417 3.1531968009705666 0 0 0 -1 I I #
edge $-1 $973 1 $973 0 $716 $-1 forward 7 unknown #
point $-1 1.5 0 -0.75 #
plane-surface $-1 205.05508590960417 0 0 -1 0 0 0 0 1 forward_v I I I I #
coedge $-1 $725 $723 $727 $907 reversed $475 $-1 #
edge $-1 $738 -102.52754295480209 $909 102.52754295480209 $737 $974 forward 7 unknown #
vertex $-1 $907 $975 #
straight-curve $-1 -205.05508590960417 -3.0388970966551998 0 0 0 -1 I I #
edge $-1 $905 -3.0388970966551998 $909 3.0388970966551998 $903 $976 forward 7 unknown #
straight-curve $-1 0 -3.0388970966551998 -102.52754295480209 -1 0 0 I I #
vertex $-1 $730 $977 #
straight-curve $-1 0 3.0388970966551998 -102.52754295480209 1 0 0 I I #
point $-1 205.05508590960417 3.0388970966551998 -102.52754295480209 #
point $-1 205.05508590960417 -3.0388970966551998 -102.52754295480209 #
straight-curve $-1 -205.05508590960417 0 102.52754295480209 0 -1 0 I I #
point $-1 -205.05508590960417 3.0388970966551998 102.52754295480209 #
point $-1 -205.05508590960417 -3.0388970966551998 102.52754295480209 #
straight-curve $-1 205.05508590960417 -3.0388970966551998 0 0 0 -1 I I #
straight-curve $-1 205.05508590960417 3.0388970966551998 0 0 0 -1 I I #
edge $-1 $978 1 $978 0 $747 $-1 forward 7 unknown #
point $-1 0.5 0 -0.25 #
edge $-1 $979 1 $979 0 $751 $-1 forward 7 unknown #
point $-1 0.5 0 -0.25 #
edge $-1 $980 1 $980 0 $755 $-1 forward 7 unknown #
point $-1 0.5 0 -0.25 #
plane-surface $-1 205.05508590960417 0 0 -1 0 0 0 0 1 forward_v I I I I #
coedge $-1 $764 $762 $766 $929 reversed $509 $-1 #
edge $-1 $777 -102.52754295480209 $931 102.52754295480209 $776 $981 forward 7 unknown #
vertex $-1 $929 $982 #
straight-curve $-1 -205.05508590960417 -3.0388970966551998 0 0 0 -1 I I #
edge $-1 $927 -3.0388970966551998 $931 3.0388970966551998 $925 $983 forward 7 unknown #
straight-curve $-1 0 -3.0388970966551998 -102.52754295480209 -1 0 0 I I #
vertex $-1 $769 $984 #
straight-curve $-1 0 3.0388970966551998 -102.52754295480209 1 0 0 I I #
point $-1 205.05508590960417 3.0388970966551998 -102.52754295480209 #
point $-1 205.05508590960417 -3.0388970966551998 -102.52754295480209 #
straight-curve $-1 -205.05508590960417 0 102.52754295480209 0 -1 0 I I #
point $-1 -205.05508590960417 3.0388970966551998 102.52754295480209 #
point $-1 -205.05508590960417 -3.0388970966551998 102.52754295480209 #
straight-curve $-1 205.05508590960417 -3.0388970966551998 0 0 0 -1 I I #
straight-curve $-1 205.05508590960417 3.0388970966551998 0 0 0 -1 I I #
edge $-1 $985 1 $985 0 $786 $-1 forward 7 unknown #
point $-1 0.5 0 -0.25 #
edge $-1 $986 1 $986 0 $790 $-1 forward 7 unknown #
point $-1 0.5 0 -0.25 #
edge $-1 $987 1 $987 0 $794 $-1 forward 7 unknown #
point $-1 0.5 0 -0.25 #
straight-curve $-1 -51.263771477401043 25.34918169176408 0 0 0 -1 I I #
point $-1 -51.263771477401043 -25.34918169176408 -8.5615667856252919 #
straight-curve $-1 -51.263771477401043 0 -8.5615667856252919 0 1 0 I I #
point $-1 -51.263771477401043 25.34918169176408 -8.5615667856252919 #
straight-curve $-1 -1.6142526248442524 4.3258814007840476 0 0 0 -1 I I #
point $-1 -1.6142526248442524 -4.3258814007840476 -8.5615667856252919 #
straight-curve $-1 -1.6142526248442524 0 -8.5615667856252919 0 1 0 I I #
point $-1 -1.6142526248442524 4.3258814007840476 -8.5615667856252919 #
straight-curve $-1 -205.05508590960417 3.1531968009705666 0 0 0 -1 I I #
point $-1 -205.05508590960417 -3.1531968009705666 -102.52754295480209 #
straight-curve $-1 -205.05508590960417 0 -102.52754295480209 0 1 0 I I #
point $-1 -205.05508590960417 3.1531968009705666 -102.52754295480209 #
vertex $-1 $846 $988 #
straight-curve $-1 -205.05508590960417 3.1531968009705666 0 0 0 -1 I I #
point $-1 -205.05508590960417 -3.1531968009705666 -102.52754295480209 #
straight-curve $-1 -205.05508590960417 0 -102.52754295480209 0 1 0 I I #
point $-1 -205.05508590960417 3.1531968009705666 -102.52754295480209 #
vertex $-1 $864 $989 #
straight-curve $-1 -205.05508590960417 3.1531968009705666 0 0 0 -1 I I #
point $-1 -205.05508590960417 -3.1531968009705666 -102.52754295480209 #
straight-curve $-1 -205.05508590960417 0 -102.52754295480209 0 1 0 I I #
point $-1 -205.05508590960417 3.1531968009705666 -102.52754295480209 #
vertex $-1 $882 $990 #
straight-curve $-1 -205.05508590960417 3.1531968009705666 0 0 0 -1 I I #
point $-1 -205.05508590960417 -3.1531968009705666 -102.52754295480209 #
straight-curve $-1 -205.05508590960417 0 -102.52754295480209 0 1 0 I I #
point $-1 -205.05508590960417 3.1531968009705666 -102.52754295480209 #
vertex $-1 $900 $991 #
straight-curve $-1 -205.05508590960417 3.0388970966551998 0 0 0 -1 I I #
point $-1 -205.05508590960417 -3.0388970966551998 -102.52754295480209 #
straight-curve $-1 -205.05508590960417 0 -102.52754295480209 0 1 0 I I #
point $-1 -205.05508590960417 3.0388970966551998 -102.52754295480209 #
vertex $-1 $918 $992 #
vertex $-1 $920 $993 #
vertex $-1 $922 $994 #
straight-curve $-1 -205.05508590960417 3.0388970966551998 0 0 0 -1 I I #
point $-1 -205.05508590960417 -3.0388970966551998 -102.52754295480209 #
straight-curve $-1 -205.05508590960417 0 -102.52754295480209 0 1 0 I I #
point $-1 -205.05508590960417 3.0388970966551998 -102.52754295480209 #
vertex $-1 $940 $995 #
vertex $-1 $942 $996 #
vertex $-1 $944 $997 #
point $-1 0 0 0.75 #
point $-1 0 0 0.75 #
point $-1 0 0 0.75 #
point $-1 0 0 0.75 #
point $-1 0 0 0.25 #
point $-1 0 0 0.25 #
point $-1 0 0 0.25 #
point $-1 0 0 0.25 #
point $-1 0 0 0.25 #
point $-1 0 0 0.25 #
End-of-ACIS-data 