500 0 8 0           
7 Unknown 11 ACIS 5.0 NT 24 Thu Mar 25 23:22:55 1999 
-1 9.9999999999999995e-007 1e-010 
body $-1 $8 $-1 $9 #
body $-1 $10 $-1 $11 #
body $-1 $12 $-1 $13 #
body $-1 $14 $-1 $15 #
body $-1 $16 $-1 $17 #
body $-1 $18 $-1 $19 #
body $-1 $20 $-1 $21 #
body $-1 $22 $-1 $23 #
lump $-1 $-1 $24 $0 #
transform $-1 1 0 0 0 1 0 0 0 1 46.786095767082735 20.04061787006642 7.5709952235474161 1 rotate no_reflect no_shear #
lump $-1 $-1 $25 $1 #
transform $-1 1 0 0 0 1 0 0 0 1 46.786095767082735 20.04061787006642 7.5709952235474161 1 rotate no_reflect no_shear #
lump $-1 $-1 $26 $2 #
transform $-1 1 0 0 0 1 0 0 0 1 46.786095767082735 20.04061787006642 7.5709952235474161 1 rotate no_reflect no_shear #
lump $-1 $-1 $27 $3 #
transform $-1 1 0 0 0 1 0 0 0 1 46.786095767082735 20.04061787006642 7.5709952235474161 1 rotate no_reflect no_shear #
lump $-1 $-1 $28 $4 #
transform $-1 1 0 0 0 1 0 0 0 1 46.786095767082735 20.04061787006642 7.5709952235474161 1 rotate no_reflect no_shear #
lump $-1 $-1 $29 $5 #
transform $-1 1 0 0 0 1 0 0 0 1 46.786095767082735 20.04061787006642 7.5709952235474161 1 rotate no_reflect no_shear #
lump $-1 $-1 $30 $6 #
transform $-1 1 0 0 0 1 0 0 0 1 46.786095767082735 20.04061787006642 7.5709952235474161 1 rotate no_reflect no_shear #
lump $-1 $-1 $31 $7 #
transform $-1 1 0 0 0 1 0 0 0 1 46.786095767082735 20.04061787006642 7.5709952235474161 1 rotate no_reflect no_shear #
shell $-1 $-1 $-1 $32 $-1 $8 #
shell $-1 $-1 $-1 $33 $-1 $10 #
shell $-1 $-1 $-1 $34 $-1 $12 #
shell $-1 $-1 $-1 $35 $-1 $14 #
shell $-1 $-1 $-1 $36 $-1 $16 #
shell $-1 $-1 $-1 $37 $-1 $18 #
shell $-1 $-1 $-1 $38 $-1 $20 #
shell $-1 $-1 $-1 $39 $-1 $22 #
face $-1 $40 $41 $24 $-1 $42 forward single #
face $-1 $43 $44 $25 $-1 $45 forward single #
face $-1 $46 $47 $26 $-1 $48 reversed single #
face $-1 $49 $50 $27 $-1 $51 forward single #
face $-1 $52 $53 $28 $-1 $54 reversed single #
face $-1 $55 $56 $29 $-1 $57 forward single #
face $-1 $58 $59 $30 $-1 $60 reversed single #
face $-1 $61 $62 $31 $-1 $63 forward single #
face $-1 $64 $65 $24 $-1 $66 reversed single #
loop $-1 $-1 $67 $32 #
plane-surface $-1 0 0 7.5709952235474161 0 0 1 1 0 0 forward_v I I I I #
face $-1 $68 $69 $25 $-1 $70 reversed single #
loop $-1 $-1 $71 $33 #
plane-surface $-1 -46.786095767082735 0 0 1 0 0 0 0 -1 forward_v I I I I #
face $-1 $72 $73 $26 $-1 $74 reversed single #
loop $-1 $-1 $75 $34 #
plane-surface $-1 -9.3785467018964717 -80.18766393871141 74.989535310831073 -1 0 0 0 -0.64278761758704617 0.76604443648966558 forward_v I I I I #
face $-1 $76 $77 $27 $-1 $78 forward single #
loop $-1 $79 $80 $35 #
cone-surface $-1 -14.037786835682176 -16.748692569417088 4.5434233486624196 0 0.64278761758704617 -0.76604443648966558 1.5 0 0 1 I I 0 1 1.5 forward I I I I #
face $-1 $81 $82 $28 $-1 $83 reversed single #
loop $-1 $-1 $84 $36 #
plane-surface $-1 34.255596363326745 -80.18766393871141 74.989535310831073 -1 0 0 0 -0.64278761758704617 0.76604443648966558 forward_v I I I I #
face $-1 $85 $86 $29 $-1 $87 forward single #
loop $-1 $88 $89 $37 #
cone-surface $-1 29.596356229541037 -16.748692569417088 4.5434233486624196 0 0.64278761758704617 -0.76604443648966558 1.5 0 0 1 I I 0 1 1.5 forward I I I I #
face $-1 $90 $91 $30 $-1 $92 reversed single #
loop $-1 $-1 $93 $38 #
plane-surface $-1 35.957392358843286 82.448933212738382 83.875671361716314 1 0 0 0 -0.87461971476443456 -0.48480960649040278 forward_v I I I I #
face $-1 $94 $95 $31 $-1 $96 forward single #
loop $-1 $97 $98 $39 #
cone-surface $-1 41.37174406296301 18.371451981084565 5.2201479204353944 0 -0.87461971476443456 -0.48480960649040278 1 0 0 1 I I 0 1 1 forward I I I I #
face $-1 $99 $100 $24 $-1 $101 reversed single #
loop $-1 $-1 $102 $40 #
plane-surface $-1 0 0 -7.5709952235474161 0 0 1 1 0 0 forward_v I I I I #
coedge $-1 $103 $104 $105 $106 forward $41 $-1 #
face $-1 $107 $108 $25 $-1 $109 forward single #
loop $-1 $-1 $110 $43 #
plane-surface $-1 0 20.04061787006642 0 0 -1 0 0 0 -1 forward_v I I I I #
coedge $-1 $111 $112 $113 $114 forward $44 $-1 #
face $-1 $115 $116 $26 $-1 $117 reversed single #
loop $-1 $-1 $118 $46 #
plane-surface $-1 -14.037786835682176 -20.04061787006642 3.30907857593823 0 -0.64278761758704617 0.76604443648966558 1 0 0 forward_v I I I I #
coedge $-1 $119 $120 $121 $122 reversed $47 $-1 #
face $-1 $-1 $123 $27 $-1 $124 forward single #
loop $-1 $125 $126 $49 #
cone-surface $-1 -14.037786835682176 -15.514253740448781 3.0722764702147645 0 0.64278761758704617 -0.76604443648966558 0.75 0 0 1 I I -0.70710678118654768 0.70710678118654735 0.75 forward I I I I #
loop $-1 $-1 $127 $35 #
coedge $-1 $80 $80 $128 $129 reversed $50 $-1 #
face $-1 $130 $131 $28 $-1 $132 reversed single #
loop $-1 $-1 $133 $52 #
plane-surface $-1 29.596356229541037 -20.04061787006642 3.30907857593823 0 -0.64278761758704617 0.76604443648966558 1 0 0 forward_v I I I I #
coedge $-1 $134 $135 $136 $137 reversed $53 $-1 #
face $-1 $-1 $138 $29 $-1 $139 forward single #
loop $-1 $140 $141 $55 #
cone-surface $-1 29.596356229541037 -15.514253740448781 3.0722764702147645 0 0.64278761758704617 -0.76604443648966558 0.75 0 0 1 I I -0.70710678118654768 0.70710678118654735 0.75 forward I I I I #
loop $-1 $-1 $142 $37 #
coedge $-1 $89 $89 $143 $144 reversed $56 $-1 #
face $-1 $145 $146 $30 $-1 $147 forward single #
loop $-1 $-1 $148 $58 #
plane-surface $-1 41.37174406296301 0.60884974324353891 38.510974005592956 0 0.87461971476443456 0.48480960649040278 1 0 0 forward_v I I I I #
coedge $-1 $149 $150 $151 $152 reversed $59 $-1 #
face $-1 $-1 $153 $31 $-1 $154 forward single #
loop $-1 $155 $156 $61 #
cone-surface $-1 41.37174406296301 17.405705470879418 4.6848259082759265 0 -0.87461971476443456 -0.48480960649040278 0.5 0 0 1 I I -0.70710678118654691 0.70710678118654813 0.5 forward I I I I #
loop $-1 $-1 $157 $39 #
coedge $-1 $98 $98 $158 $159 reversed $62 $-1 #
face $-1 $160 $161 $24 $-1 $162 reversed single #
loop $-1 $-1 $163 $64 #
plane-surface $-1 0 -20.04061787006642 0 0 1 0 0 0 1 forward_v I I I I #
coedge $-1 $164 $165 $166 $167 forward $65 $-1 #
coedge $-1 $168 $67 $169 $170 forward $41 $-1 #
coedge $-1 $67 $168 $171 $172 forward $41 $-1 #
coedge $-1 $173 $174 $67 $106 reversed $175 $-1 #
edge $-1 $176 -20.04061787006642 $177 20.04061787006642 $105 $178 forward 7 unknown #
face $-1 $179 $180 $25 $-1 $181 reversed single #
loop $-1 $-1 $113 $68 #
plane-surface $-1 -49.938048468942256 0 1.0595948470603895 0 0 1 1 0 0 forward_v I I I I #
coedge $-1 $182 $183 $112 $184 forward $69 $-1 #
coedge $-1 $185 $71 $186 $187 reversed $44 $-1 #
coedge $-1 $71 $185 $110 $184 reversed $44 $-1 #
coedge $-1 $188 $189 $71 $114 reversed $108 $-1 #
edge $-1 $190 -20.04061787006642 $191 20.04061787006642 $113 $192 forward 7 unknown #
face $-1 $193 $194 $26 $-1 $195 reversed single #
loop $-1 $-1 $196 $72 #
plane-surface $-1 -18.697026969467881 -80.18766393871141 74.989535310831073 1 0 0 0 0.64278761758704617 -0.76604443648966558 forward_v I I I I #
coedge $-1 $197 $198 $199 $200 reversed $73 $-1 #
coedge $-1 $120 $75 $201 $202 reversed $47 $-1 #
coedge $-1 $75 $119 $197 $203 reversed $47 $-1 #
coedge $-1 $199 $204 $75 $122 forward $205 $-1 #
edge $-1 $206 20.053214099289285 $207 25.13236846903192 $121 $208 forward 7 unknown #
loop $-1 $-1 $128 $76 #
plane-surface $-1 -14.037786835682176 -20.04061787006642 3.30907857593823 0 -0.64278761758704617 0.76604443648966558 1 0 0 forward_v I I I I #
loop $-1 $-1 $209 $49 #
coedge $-1 $126 $126 $127 $210 reversed $77 $-1 #
coedge $-1 $127 $127 $126 $210 forward $79 $-1 #
coedge $-1 $128 $128 $80 $129 forward $123 $-1 #
edge $-1 $211 8.8675935913666279e-017 $211 6.2831853071796004 $128 $212 forward 7 unknown #
face $-1 $213 $214 $28 $-1 $215 reversed single #
loop $-1 $-1 $216 $81 #
plane-surface $-1 24.937116095755332 -80.18766393871141 74.989535310831073 1 0 0 0 0.64278761758704617 -0.76604443648966558 forward_v I I I I #
coedge $-1 $217 $218 $219 $220 reversed $82 $-1 #
coedge $-1 $135 $84 $221 $222 reversed $53 $-1 #
coedge $-1 $84 $134 $217 $223 reversed $53 $-1 #
coedge $-1 $219 $224 $84 $137 forward $225 $-1 #
edge $-1 $226 20.053214099289285 $227 25.13236846903192 $136 $228 forward 7 unknown #
loop $-1 $-1 $143 $85 #
plane-surface $-1 29.596356229541037 -20.04061787006642 3.30907857593823 0 -0.64278761758704617 0.76604443648966558 1 0 0 forward_v I I I I #
loop $-1 $-1 $229 $55 #
coedge $-1 $141 $141 $142 $230 reversed $86 $-1 #
coedge $-1 $142 $142 $141 $230 forward $88 $-1 #
coedge $-1 $143 $143 $89 $144 forward $138 $-1 #
edge $-1 $231 8.8675935913666279e-017 $231 6.2831853071796004 $143 $232 forward 7 unknown #
face $-1 $233 $234 $30 $-1 $235 reversed single #
loop $-1 $-1 $151 $90 #
plane-surface $-1 0 0 7.5709952235474161 0 0 1 1 0 0 forward_v I I I I #
coedge $-1 $236 $237 $238 $239 reversed $91 $-1 #
coedge $-1 $150 $93 $240 $241 reversed $59 $-1 #
coedge $-1 $93 $149 $236 $242 reversed $59 $-1 #
coedge $-1 $238 $243 $93 $152 forward $146 $-1 #
edge $-1 $244 21.183848736302771 $245 23.465307208620633 $151 $246 forward 7 unknown #
loop $-1 $-1 $158 $94 #
plane-surface $-1 41.37174406296301 0.60884974324353891 38.510974005592956 0 0.87461971476443456 0.48480960649040278 1 0 0 forward_v I I I I #
loop $-1 $-1 $247 $61 #
coedge $-1 $156 $156 $157 $248 reversed $95 $-1 #
coedge $-1 $157 $157 $156 $248 forward $97 $-1 #
coedge $-1 $158 $158 $98 $159 forward $153 $-1 #
edge $-1 $249 1.1143243728905352e-015 $249 6.2831853071796013 $158 $250 forward 7 unknown #
face $-1 $251 $252 $24 $-1 $253 reversed single #
loop $-1 $-1 $254 $99 #
plane-surface $-1 -46.786095767082735 0 0 1 0 0 0 0 -1 forward_v I I I I #
coedge $-1 $255 $171 $254 $256 forward $100 $-1 #
coedge $-1 $257 $102 $255 $258 forward $65 $-1 #
coedge $-1 $102 $257 $259 $260 forward $65 $-1 #
coedge $-1 $174 $173 $102 $167 reversed $175 $-1 #
edge $-1 $261 -20.04061787006642 $262 20.04061787006642 $166 $263 forward 7 unknown #
coedge $-1 $104 $103 $264 $265 forward $41 $-1 #
coedge $-1 $266 $267 $103 $170 reversed $252 $-1 #
edge $-1 $177 -46.786095767082735 $268 46.786095767082735 $169 $269 forward 7 unknown #
coedge $-1 $163 $270 $104 $172 reversed $100 $-1 #
edge $-1 $271 -46.786095767082735 $176 46.786095767082735 $171 $272 forward 7 unknown #
coedge $-1 $166 $105 $270 $273 forward $175 $-1 #
coedge $-1 $105 $166 $266 $274 reversed $175 $-1 #
loop $-1 $-1 $173 $251 #
vertex $-1 $106 $275 #
vertex $-1 $106 $276 #
straight-curve $-1 46.786095767082735 0 7.5709952235474161 0 1 0 I I #
face $-1 $277 $278 $25 $-1 $279 reversed single #
loop $-1 $-1 $280 $107 #
plane-surface $-1 -49.938048468942256 0 -1.9404051529396105 0 0 1 1 0 0 forward_v I I I I #
coedge $-1 $281 $110 $282 $283 reversed $69 $-1 #
coedge $-1 $110 $281 $188 $284 reversed $69 $-1 #
edge $-1 $190 -1.0595948470603895 $285 1.9404051529396105 $110 $286 forward 7 unknown #
coedge $-1 $112 $111 $280 $287 forward $44 $-1 #
coedge $-1 $288 $289 $111 $187 forward $290 $-1 #
edge $-1 $291 -1.9404051529396105 $191 1.0595948470603895 $186 $292 forward 7 unknown #
coedge $-1 $293 $113 $183 $284 forward $108 $-1 #
coedge $-1 $113 $293 $288 $294 forward $108 $-1 #
vertex $-1 $184 $295 #
vertex $-1 $294 $296 #
straight-curve $-1 -46.786095767082735 0 1.0595948470603895 0 -1 0 I I #
face $-1 $-1 $205 $26 $-1 $297 forward single #
loop $-1 $-1 $298 $115 #
plane-surface $-1 0 -20.04061787006642 0 0 1 0 0 0 1 forward_v I I I I #
coedge $-1 $299 $300 $301 $302 reversed $116 $-1 #
coedge $-1 $303 $118 $120 $203 forward $73 $-1 #
coedge $-1 $118 $303 $299 $304 forward $73 $-1 #
coedge $-1 $301 $121 $118 $200 forward $205 $-1 #
edge $-1 $207 2.3596532840553834 $305 11.678133551626793 $199 $306 forward 7 unknown #
coedge $-1 $307 $308 $119 $202 forward $194 $-1 #
edge $-1 $309 -34.185689079477307 $206 -29.92377243186812 $201 $310 forward 7 unknown #
edge $-1 $207 -6.6303651952847993 $309 0 $120 $311 forward 7 unknown #
coedge $-1 $121 $301 $307 $312 forward $205 $-1 #
loop $-1 $-1 $301 $193 #
vertex $-1 $202 $313 #
vertex $-1 $122 $314 #
straight-curve $-1 -9.3785467018964717 -40.093831969355705 7.5709952235474134 0 1 0 I I #
coedge $-1 $209 $209 $-1 $315 reversed $125 $-1 #
edge $-1 $316 0 $316 6.2831853071796004 $126 $317 forward 7 unknown #
vertex $-1 $129 $318 #
ellipse-curve $-1 -14.037786835682176 -17.501040685195104 5.4400368997428208 0 -0.64278761758704617 0.76604443648966558 1.5 0 0 1 I I #
face $-1 $-1 $225 $28 $-1 $319 forward single #
loop $-1 $-1 $320 $130 #
plane-surface $-1 0 -20.04061787006642 0 0 1 0 0 0 1 forward_v I I I I #
coedge $-1 $321 $322 $323 $324 reversed $131 $-1 #
coedge $-1 $325 $133 $135 $223 forward $82 $-1 #
coedge $-1 $133 $325 $321 $326 forward $82 $-1 #
coedge $-1 $323 $136 $133 $220 forward $225 $-1 #
edge $-1 $227 -19.457418248556227 $327 -10.138937980984814 $219 $328 forward 7 unknown #
coedge $-1 $329 $330 $134 $222 forward $214 $-1 #
edge $-1 $331 -34.185689079477307 $226 -29.92377243186812 $221 $332 forward 7 unknown #
edge $-1 $227 -6.6303651952847993 $331 0 $135 $333 forward 7 unknown #
coedge $-1 $136 $323 $329 $334 forward $225 $-1 #
loop $-1 $-1 $323 $213 #
vertex $-1 $222 $335 #
vertex $-1 $137 $336 #
straight-curve $-1 34.255596363326745 -40.093831969355705 7.5709952235474134 0 1 0 I I #
coedge $-1 $229 $229 $-1 $337 reversed $140 $-1 #
edge $-1 $338 0 $338 6.2831853071796004 $141 $339 forward 7 unknown #
vertex $-1 $144 $340 #
ellipse-curve $-1 29.596356229541037 -17.501040685195104 5.4400368997428208 0 -0.64278761758704617 0.76604443648966558 1.5 0 0 1 I I #
face $-1 $-1 $341 $30 $-1 $342 reversed single #
loop $-1 $-1 $343 $145 #
plane-surface $-1 46.786095767082735 0 0 -1 0 0 0 0 1 forward_v I I I I #
coedge $-1 $344 $148 $150 $242 forward $91 $-1 #
coedge $-1 $148 $344 $343 $345 reversed $91 $-1 #
coedge $-1 $346 $151 $148 $239 forward $146 $-1 #
edge $-1 $245 15.271520327361781 $347 26.100223735601229 $238 $348 forward 7 unknown #
coedge $-1 $349 $350 $149 $241 forward $341 $-1 #
edge $-1 $351 -38.482700645706267 $244 -34.366840457310744 $240 $352 forward 7 unknown #
edge $-1 $245 35.375350291959457 $351 40.081235740132868 $150 $353 forward 7 unknown #
coedge $-1 $151 $346 $349 $354 forward $146 $-1 #
vertex $-1 $241 $355 #
vertex $-1 $152 $356 #
straight-curve $-1 35.957392358843286 41.224466606369191 7.5709952235474134 0 -1 0 I I #
coedge $-1 $247 $247 $-1 $357 reversed $155 $-1 #
edge $-1 $358 0 $358 6.2831853071796004 $156 $359 forward 7 unknown #
vertex $-1 $159 $360 #
ellipse-curve $-1 41.37174406296301 18.899888633907487 5.5130651293496573 0 0.87461971476443456 0.48480960649040278 1 0 0 1 I I #
face $-1 $-1 $175 $24 $-1 $361 reversed single #
loop $-1 $-1 $266 $160 #
plane-surface $-1 0 20.04061787006642 0 0 -1 0 0 0 -1 forward_v I I I I #
coedge $-1 $264 $362 $163 $256 reversed $161 $-1 #
coedge $-1 $270 $163 $164 $258 reversed $100 $-1 #
edge $-1 $271 -7.5709952235474161 $363 7.5709952235474161 $254 $364 forward 7 unknown #
coedge $-1 $165 $164 $362 $365 forward $65 $-1 #
edge $-1 $262 -46.786095767082735 $363 46.786095767082735 $255 $366 forward 7 unknown #
coedge $-1 $267 $266 $165 $260 reversed $252 $-1 #
edge $-1 $367 -46.786095767082735 $261 46.786095767082735 $259 $368 forward 7 unknown #
vertex $-1 $167 $369 #
vertex $-1 $273 $370 #
straight-curve $-1 46.786095767082735 0 -7.5709952235474161 0 -1 0 I I #
coedge $-1 $371 $254 $168 $265 reversed $161 $-1 #
edge $-1 $268 -20.04061787006642 $271 20.04061787006642 $264 $372 forward 7 unknown #
coedge $-1 $259 $169 $174 $274 forward $252 $-1 #
coedge $-1 $169 $259 $371 $373 reversed $252 $-1 #
vertex $-1 $170 $374 #
straight-curve $-1 0 20.04061787006642 7.5709952235474161 -1 0 0 I I #
coedge $-1 $171 $255 $173 $273 reversed $100 $-1 #
vertex $-1 $265 $375 #
straight-curve $-1 0 -20.04061787006642 7.5709952235474161 1 0 0 I I #
edge $-1 $176 -7.5709952235474161 $262 7.5709952235474161 $173 $376 forward 7 unknown #
edge $-1 $177 -7.5709952235474161 $261 7.5709952235474161 $174 $377 forward 7 unknown #
point $-1 46.786095767082735 -20.04061787006642 7.5709952235474161 #
point $-1 46.786095767082735 20.04061787006642 7.5709952235474161 #
face $-1 $-1 $290 $25 $-1 $378 reversed single #
loop $-1 $-1 $379 $179 #
plane-surface $-1 -53.090001170801777 0 -0.44040515293961047 1 0 0 0 0 -1 forward_v I I I I #
coedge $-1 $380 $282 $185 $287 reversed $180 $-1 #
coedge $-1 $183 $182 $379 $381 reversed $69 $-1 #
coedge $-1 $280 $382 $182 $283 forward $180 $-1 #
edge $-1 $383 -3.1519527018595213 $285 3.1519527018595213 $182 $384 forward 7 unknown #
edge $-1 $190 -3.1519527018595213 $385 3.1519527018595213 $183 $386 forward 7 unknown #
vertex $-1 $184 $387 #
straight-curve $-1 -46.786095767082735 20.04061787006642 0 0 0 -1 I I #
edge $-1 $291 -20.04061787006642 $285 20.04061787006642 $280 $388 forward 7 unknown #
coedge $-1 $389 $186 $189 $294 reversed $290 $-1 #
coedge $-1 $186 $389 $380 $390 reversed $290 $-1 #
loop $-1 $-1 $186 $277 #
vertex $-1 $187 $391 #
straight-curve $-1 -46.786095767082735 -20.04061787006642 0 0 0 1 I I #
coedge $-1 $189 $188 $392 $393 forward $108 $-1 #
edge $-1 $394 -3.1519527018595213 $191 3.1519527018595213 $288 $395 forward 7 unknown #
point $-1 -46.786095767082735 20.04061787006642 1.0595948470603895 #
point $-1 -46.786095767082735 -20.04061787006642 1.0595948470603895 #
plane-surface $-1 0 0 7.5709952235474161 0 0 1 1 0 0 forward_v I I I I #
coedge $-1 $308 $307 $300 $396 forward $194 $-1 #
coedge $-1 $300 $196 $198 $304 reversed $116 $-1 #
coedge $-1 $196 $299 $298 $396 reversed $116 $-1 #
coedge $-1 $204 $199 $196 $302 forward $205 $-1 #
edge $-1 $305 -25.13236846903192 $397 -20.053214099289285 $301 $398 forward 7 unknown #
coedge $-1 $198 $197 $308 $399 reversed $73 $-1 #
edge $-1 $400 0 $305 6.6303651952847993 $299 $401 forward 7 unknown #
vertex $-1 $200 $402 #
straight-curve $-1 -7.0188934178410882 -14.961463500323783 7.5709952235474161 -1 0 0 I I #
coedge $-1 $298 $201 $204 $312 reversed $194 $-1 #
coedge $-1 $201 $298 $303 $399 forward $194 $-1 #
vertex $-1 $202 $403 #
straight-curve $-1 -9.3785467018964717 -20.04061787006642 37.494767655415536 0 0 1 I I #
straight-curve $-1 -9.3785467018964717 -20.04061787006642 3.30907857593823 0 -0.76604443648966558 -0.64278761758704617 I I #
edge $-1 $397 -18.697026969467881 $206 -9.3785467018964717 $307 $404 forward 7 unknown #
point $-1 -9.3785467018964717 -20.04061787006642 7.5709952235474161 #
point $-1 -9.3785467018964717 -14.961463500323784 7.5709952235474161 #
edge $-1 $405 1 $405 0 $209 $-1 forward 7 unknown #
vertex $-1 $210 $406 #
ellipse-curve $-1 -14.037786835682176 -15.996344453639066 3.6468097975820131 0 -0.64278761758704617 0.76604443648966558 1.5 0 0 1 I I #
point $-1 -12.537786835682176 -17.501040685195107 5.4400368997428252 #
plane-surface $-1 0 0 7.5709952235474161 0 0 1 1 0 0 forward_v I I I I #
coedge $-1 $330 $329 $322 $407 forward $214 $-1 #
coedge $-1 $322 $216 $218 $326 reversed $131 $-1 #
coedge $-1 $216 $321 $320 $407 reversed $131 $-1 #
coedge $-1 $224 $219 $216 $324 forward $225 $-1 #
edge $-1 $327 -25.13236846903192 $408 -20.053214099289285 $323 $409 forward 7 unknown #
coedge $-1 $218 $217 $330 $410 reversed $82 $-1 #
edge $-1 $411 0 $327 6.6303651952847993 $321 $412 forward 7 unknown #
vertex $-1 $220 $413 #
straight-curve $-1 14.798178114770518 -14.961463500323783 7.5709952235474161 -1 0 0 I I #
coedge $-1 $320 $221 $224 $334 reversed $214 $-1 #
coedge $-1 $221 $320 $325 $410 forward $214 $-1 #
vertex $-1 $222 $414 #
straight-curve $-1 34.255596363326745 -20.04061787006642 37.494767655415536 0 0 1 I I #
straight-curve $-1 34.255596363326745 -20.04061787006642 3.30907857593823 0 -0.76604443648966558 -0.64278761758704617 I I #
edge $-1 $408 24.937116095755332 $226 34.255596363326745 $329 $415 forward 7 unknown #
point $-1 34.255596363326745 -20.04061787006642 7.5709952235474161 #
point $-1 34.255596363326745 -14.961463500323784 7.5709952235474161 #
edge $-1 $416 1 $416 0 $229 $-1 forward 7 unknown #
vertex $-1 $230 $417 #
ellipse-curve $-1 29.596356229541037 -15.996344453639066 3.6468097975820131 0 -0.64278761758704617 0.76604443648966558 1.5 0 0 1 I I #
point $-1 31.096356229541037 -17.501040685195107 5.4400368997428252 #
loop $-1 $-1 $240 $233 #
plane-surface $-1 0 20.04061787006642 0 0 -1 0 0 0 -1 forward_v I I I I #
coedge $-1 $418 $419 $237 $345 forward $234 $-1 #
coedge $-1 $237 $236 $350 $420 reversed $91 $-1 #
edge $-1 $347 18.681709844140165 $421 23.387595292313573 $343 $422 forward 7 unknown #
coedge $-1 $243 $238 $419 $423 forward $146 $-1 #
vertex $-1 $423 $424 #
straight-curve $-1 20.685872031481505 17.759159397748558 7.5709952235474169 1 0 0 I I #
coedge $-1 $425 $240 $243 $354 reversed $341 $-1 #
coedge $-1 $240 $425 $344 $420 forward $341 $-1 #
vertex $-1 $241 $426 #
straight-curve $-1 35.957392358843286 20.04061787006642 41.937835680858157 0 0 1 I I #
straight-curve $-1 35.957392358843286 0.60884974324353891 38.510974005592956 0 0.48480960649040278 -0.87461971476443456 I I #
edge $-1 $427 -46.786095767082735 $244 -35.957392358843286 $349 $428 forward 7 unknown #
point $-1 35.957392358843286 20.04061787006642 7.5709952235474161 #
point $-1 35.957392358843286 17.759159397748558 7.5709952235474205 #
edge $-1 $429 1 $429 0 $247 $-1 forward 7 unknown #
vertex $-1 $248 $430 #
ellipse-curve $-1 41.37174406296301 17.843015328261636 4.927230711521128 0 0.87461971476443456 0.48480960649040278 1 0 0 1 I I #
point $-1 42.37174406296301 18.899888633907494 5.51306512934966 #
plane-surface $-1 46.786095767082735 0 0 -1 0 0 0 0 1 forward_v I I I I #
coedge $-1 $254 $371 $257 $365 reversed $161 $-1 #
vertex $-1 $365 $431 #
straight-curve $-1 -46.786095767082735 -20.04061787006642 0 0 0 -1 I I #
edge $-1 $363 -20.04061787006642 $367 20.04061787006642 $362 $432 forward 7 unknown #
straight-curve $-1 0 -20.04061787006642 -7.5709952235474161 -1 0 0 I I #
vertex $-1 $260 $433 #
straight-curve $-1 0 20.04061787006642 -7.5709952235474161 1 0 0 I I #
point $-1 46.786095767082735 20.04061787006642 -7.5709952235474161 #
point $-1 46.786095767082735 -20.04061787006642 -7.5709952235474161 #
coedge $-1 $362 $264 $267 $373 forward $161 $-1 #
straight-curve $-1 -46.786095767082735 0 7.5709952235474161 0 -1 0 I I #
edge $-1 $268 -7.5709952235474161 $367 7.5709952235474161 $267 $434 forward 7 unknown #
point $-1 -46.786095767082735 20.04061787006642 7.5709952235474161 #
point $-1 -46.786095767082735 -20.04061787006642 7.5709952235474161 #
straight-curve $-1 46.786095767082735 -20.04061787006642 0 0 0 -1 I I #
straight-curve $-1 46.786095767082735 20.04061787006642 0 0 0 -1 I I #
plane-surface $-1 0 -20.04061787006642 0 0 1 0 0 0 1 forward_v I I I I #
coedge $-1 $435 $392 $281 $381 forward $278 $-1 #
coedge $-1 $382 $280 $289 $390 forward $180 $-1 #
edge $-1 $385 -1.5 $383 1.5 $281 $436 forward 7 unknown #
coedge $-1 $282 $380 $435 $437 forward $180 $-1 #
vertex $-1 $283 $438 #
straight-curve $-1 -49.938048468942256 20.04061787006642 -1.9404051529396105 1 0 0 I I #
vertex $-1 $284 $439 #
straight-curve $-1 -49.938048468942256 20.04061787006642 1.0595948470603895 -1 0 0 I I #
point $-1 -46.786095767082735 20.04061787006642 -1.9404051529396105 #
straight-curve $-1 -46.786095767082735 0 -1.9404051529396105 0 1 0 I I #
coedge $-1 $289 $288 $440 $441 forward $290 $-1 #
edge $-1 $291 -3.1519527018595213 $442 3.1519527018595213 $289 $443 forward 7 unknown #
point $-1 -46.786095767082735 -20.04061787006642 -1.9404051529396105 #
coedge $-1 $379 $440 $293 $393 reversed $278 $-1 #
edge $-1 $385 -20.04061787006642 $394 20.04061787006642 $392 $444 forward 7 unknown #
vertex $-1 $393 $445 #
straight-curve $-1 -49.938048468942256 -20.04061787006642 1.0595948470603895 1 0 0 I I #
edge $-1 $397 29.92377243186812 $400 34.185689079477307 $298 $446 forward 7 unknown #
vertex $-1 $312 $447 #
straight-curve $-1 -18.697026969467881 -40.093831969355705 7.5709952235474134 0 -1 0 I I #
edge $-1 $400 -11.678133551626793 $309 -2.3596532840553834 $308 $448 forward 7 unknown #
vertex $-1 $399 $449 #
straight-curve $-1 -18.697026969467881 -20.04061787006642 3.30907857593823 0 0.76604443648966558 0.64278761758704617 I I #
point $-1 -18.697026969467881 -14.961463500323784 7.5709952235474161 #
point $-1 -9.3785467018964717 -20.04061787006642 3.30907857593823 #
straight-curve $-1 0 -20.04061787006642 7.5709952235474161 1 0 0 I I #
vertex $-1 $315 $450 #
point $-1 -12.537786835682176 -15.996344453639066 3.6468097975820131 #
edge $-1 $408 29.92377243186812 $411 34.185689079477307 $320 $451 forward 7 unknown #
vertex $-1 $334 $452 #
straight-curve $-1 24.937116095755332 -40.093831969355705 7.5709952235474134 0 -1 0 I I #
edge $-1 $411 10.138937980984814 $331 19.457418248556227 $330 $453 forward 7 unknown #
vertex $-1 $410 $454 #
straight-curve $-1 24.937116095755332 -20.04061787006642 3.30907857593823 0 0.76604443648966558 0.64278761758704617 I I #
point $-1 24.937116095755332 -14.961463500323784 7.5709952235474161 #
point $-1 34.255596363326745 -20.04061787006642 3.30907857593823 #
straight-curve $-1 0 -20.04061787006642 7.5709952235474161 1 0 0 I I #
vertex $-1 $337 $455 #
point $-1 31.096356229541037 -15.996344453639066 3.6468097975820131 #
coedge $-1 $419 $343 $425 $456 reversed $234 $-1 #
coedge $-1 $343 $418 $346 $423 reversed $234 $-1 #
edge $-1 $421 -26.100223735601229 $351 -15.271520327361781 $350 $457 forward 7 unknown #
vertex $-1 $345 $458 #
straight-curve $-1 46.786095767082735 8.7020869996430825 23.910386958741221 0 0.48480960649040278 -0.87461971476443456 I I #
edge $-1 $347 17.759159397748558 $427 20.04061787006642 $419 $459 forward 7 unknown #
point $-1 46.786095767082735 17.759159397748558 7.5709952235474205 #
coedge $-1 $350 $349 $418 $456 forward $341 $-1 #
point $-1 35.957392358843286 20.04061787006642 3.4551350351518906 #
vertex $-1 $423 $460 #
straight-curve $-1 0 20.04061787006642 7.5709952235474161 -1 0 0 I I #
vertex $-1 $357 $461 #
point $-1 42.37174406296301 17.843015328261636 4.927230711521128 #
point $-1 -46.786095767082735 -20.04061787006642 -7.5709952235474161 #
straight-curve $-1 -46.786095767082735 0 -7.5709952235474161 0 1 0 I I #
point $-1 -46.786095767082735 20.04061787006642 -7.5709952235474161 #
straight-curve $-1 -46.786095767082735 20.04061787006642 0 0 0 -1 I I #
coedge $-1 $440 $379 $382 $437 reversed $278 $-1 #
straight-curve $-1 -53.090001170801777 20.04061787006642 -0.44040515293961047 0 0 -1 I I #
edge $-1 $442 -20.04061787006642 $383 20.04061787006642 $435 $462 forward 7 unknown #
point $-1 -53.090001170801777 20.04061787006642 -1.9404051529396105 #
point $-1 -53.090001170801777 20.04061787006642 1.0595948470603895 #
coedge $-1 $392 $435 $389 $441 reversed $278 $-1 #
edge $-1 $394 -1.5 $442 1.5 $440 $463 forward 7 unknown #
vertex $-1 $437 $464 #
straight-curve $-1 -49.938048468942256 -20.04061787006642 -1.9404051529396105 -1 0 0 I I #
straight-curve $-1 -53.090001170801777 0 1.0595948470603895 0 -1 0 I I #
point $-1 -53.090001170801777 -20.04061787006642 1.0595948470603895 #
straight-curve $-1 -18.697026969467881 -20.04061787006642 37.494767655415536 0 0 -1 I I #
point $-1 -18.697026969467881 -20.04061787006642 7.5709952235474161 #
straight-curve $-1 -7.0188934178410882 -20.04061787006642 3.3090785759382304 1 0 0 I I #
point $-1 -18.697026969467881 -20.04061787006642 3.30907857593823 #
point $-1 -14.037786835682176 -15.032163027258497 2.4977431428475159 #
straight-curve $-1 24.937116095755332 -20.04061787006642 37.494767655415536 0 0 -1 I I #
point $-1 24.937116095755332 -20.04061787006642 7.5709952235474161 #
straight-curve $-1 14.798178114770518 -20.04061787006642 3.3090785759382304 1 0 0 I I #
point $-1 24.937116095755332 -20.04061787006642 3.30907857593823 #
point $-1 29.596356229541037 -15.032163027258497 2.4977431428475159 #
edge $-1 $427 -7.5709952235474161 $421 -3.4551350351518906 $418 $465 forward 7 unknown #
straight-curve $-1 20.685872031481505 20.04061787006642 3.4551350351518977 -1 0 0 I I #
point $-1 46.786095767082735 20.04061787006642 3.4551350351518906 #
straight-curve $-1 46.786095767082735 0 7.5709952235474161 0 1 0 I I #
point $-1 46.786095767082735 20.04061787006642 7.5709952235474161 #
point $-1 41.37174406296301 16.968395613497201 4.442421105030725 #
straight-curve $-1 -53.090001170801777 0 -1.9404051529396105 0 1 0 I I #
straight-curve $-1 -53.090001170801777 -20.04061787006642 -0.44040515293961047 0 0 -1 I I #
point $-1 -53.090001170801777 -20.04061787006642 -1.9404051529396105 #
straight-curve $-1 46.786095767082735 20.04061787006642 0 0 0 -1 I I #
End-of-ACIS-data 