500 0 9 0           
7 Unknown 11 ACIS 5.0 NT 24 Fri Mar 26 19:11:43 1999 
-1 9.9999999999999995e-007 1e-010 
body $-1 $9 $-1 $10 #
body $-1 $11 $-1 $12 #
body $-1 $13 $-1 $14 #
body $-1 $15 $-1 $16 #
body $-1 $17 $-1 $18 #
body $-1 $19 $-1 $20 #
body $-1 $21 $-1 $22 #
body $-1 $23 $-1 $24 #
body $-1 $25 $-1 $26 #
lump $-1 $-1 $27 $0 #
transform $-1 1 0 0 0 1 0 0 0 1 69.635914181951364 31.552823921959597 12.719735152743576 1 rotate no_reflect no_shear #
lump $-1 $-1 $28 $1 #
transform $-1 1 0 0 0 1 0 0 0 1 69.635914181951364 31.552823921959597 12.719735152743576 1 rotate no_reflect no_shear #
lump $-1 $-1 $29 $2 #
transform $-1 1 0 0 0 1 0 0 0 1 69.635914181951364 31.552823921959597 12.719735152743576 1 rotate no_reflect no_shear #
lump $-1 $-1 $30 $3 #
transform $-1 1 0 0 0 1 0 0 0 1 69.635914181951364 31.552823921959597 12.719735152743576 1 rotate no_reflect no_shear #
lump $-1 $-1 $31 $4 #
transform $-1 1 0 0 0 1 0 0 0 1 69.635914181951364 31.552823921959597 12.719735152743576 1 rotate no_reflect no_shear #
lump $-1 $-1 $32 $5 #
transform $-1 1 0 0 0 1 0 0 0 1 69.635914181951364 31.552823921959597 12.719735152743576 1 rotate no_reflect no_shear #
lump $-1 $-1 $33 $6 #
transform $-1 1 0 0 0 1 0 0 0 1 69.635914181951364 31.552823921959597 12.719735152743576 1 rotate no_reflect no_shear #
lump $-1 $-1 $34 $7 #
transform $-1 1 0 0 0 1 0 0 0 1 69.635914181951364 31.552823921959597 12.719735152743576 1 rotate no_reflect no_shear #
lump $-1 $-1 $35 $8 #
transform $-1 1 0 0 0 1 0 0 0 1 69.635914181951364 31.552823921959597 12.719735152743576 1 rotate no_reflect no_shear #
shell $-1 $-1 $-1 $36 $-1 $9 #
shell $-1 $-1 $-1 $37 $-1 $11 #
shell $-1 $-1 $-1 $38 $-1 $13 #
shell $-1 $-1 $-1 $39 $-1 $15 #
shell $-1 $-1 $-1 $40 $-1 $17 #
shell $-1 $-1 $-1 $41 $-1 $19 #
shell $-1 $-1 $-1 $42 $-1 $21 #
shell $-1 $-1 $-1 $43 $-1 $23 #
shell $-1 $-1 $-1 $44 $-1 $25 #
face $-1 $45 $46 $27 $-1 $47 forward single #
face $-1 $48 $49 $28 $-1 $50 forward single #
face $-1 $51 $52 $29 $-1 $53 reversed single #
face $-1 $54 $55 $30 $-1 $56 forward single #
face $-1 $57 $58 $31 $-1 $59 forward single #
face $-1 $60 $61 $32 $-1 $62 reversed single #
face $-1 $63 $64 $33 $-1 $65 forward single #
face $-1 $66 $67 $34 $-1 $68 forward single #
face $-1 $69 $70 $35 $-1 $71 forward single #
face $-1 $72 $73 $27 $-1 $74 reversed single #
loop $-1 $-1 $75 $36 #
plane-surface $-1 0 0 12.719735152743576 0 0 1 1 0 0 forward_v I I I I #
face $-1 $76 $77 $28 $-1 $78 reversed single #
loop $-1 $-1 $79 $37 #
plane-surface $-1 -69.635914181951364 0 0 1 0 0 0 0 -1 forward_v I I I I #
face $-1 $80 $81 $29 $-1 $82 reversed single #
loop $-1 $-1 $83 $38 #
plane-surface $-1 58.665646988575133 -31.552823921959558 9.5180255087765886 0 -0.80901700255871778 0.5877852410284794 1 0 0 forward_v I I I I #
face $-1 $84 $85 $30 $-1 $86 forward single #
loop $-1 $87 $88 $39 #
cone-surface $-1 53.964103905699602 -29.985226345401042 10.824987710245852 0 0.80901700255871778 -0.5877852410284794 0.5 0 0 1 I I 0 1 0.5 forward I I I I #
face $-1 $89 $90 $31 $-1 $91 forward single #
loop $-1 $92 $93 $40 #
cone-surface $-1 63.367190071450665 -29.985226345401042 10.824987710245852 0 0.80901700255871778 -0.5877852410284794 0.5 0 0 1 I I 0 1 0.5 forward I I I I #
face $-1 $94 $95 $32 $-1 $96 reversed single #
loop $-1 $-1 $97 $41 #
plane-surface $-1 31.087279161073212 107.1335326176 134.75132165849587 1 0 0 0 -0.80901700255871778 -0.5877852410284794 forward_v I I I I #
face $-1 $98 $99 $33 $-1 $100 forward single #
loop $-1 $101 $102 $42 #
cone-surface $-1 37.647208409715176 26.11064223742062 6.1964229427939621 0 -0.80901700255871778 -0.5877852410284794 1.5 0 0 1 I I 0 1 1.5 forward I I I I #
face $-1 $103 $104 $34 $-1 $105 forward single #
loop $-1 $106 $107 $43 #
cone-surface $-1 47.487102282678109 26.11064223742062 6.1964229427939621 0 -0.80901700255871778 -0.5877852410284794 1.5 0 0 1 I I 0 1 1.5 forward I I I I #
face $-1 $108 $109 $35 $-1 $110 forward single #
loop $-1 $111 $112 $44 #
cone-surface $-1 57.326996155641041 26.11064223742062 6.1964229427939621 0 -0.80901700255871778 -0.5877852410284794 1.5 0 0 1 I I 0 1 1.5 forward I I I I #
face $-1 $113 $114 $27 $-1 $115 reversed single #
loop $-1 $-1 $116 $45 #
plane-surface $-1 0 0 -12.719735152743576 0 0 1 1 0 0 forward_v I I I I #
coedge $-1 $117 $118 $119 $120 forward $46 $-1 #
face $-1 $121 $122 $28 $-1 $123 forward single #
loop $-1 $-1 $124 $48 #
plane-surface $-1 0 31.552823921959597 0 0 -1 0 0 0 -1 forward_v I I I I #
coedge $-1 $125 $126 $127 $128 forward $49 $-1 #
face $-1 $129 $130 $29 $-1 $131 reversed single #
loop $-1 $-1 $132 $51 #
plane-surface $-1 47.695379795198903 -144.22610104579636 91.379950712130167 1 0 0 0 0.80901700255871778 -0.5877852410284794 forward_v I I I I #
coedge $-1 $133 $134 $135 $136 reversed $52 $-1 #
face $-1 $-1 $137 $30 $-1 $138 forward single #
loop $-1 $139 $140 $54 #
cone-surface $-1 53.964103905699602 -29.378463593482003 10.384148779474492 0 0.80901700255871778 -0.5877852410284794 0.25 0 0 1 I I -0.70710678118654746 0.70710678118654746 0.25 forward I I I I #
loop $-1 $-1 $141 $39 #
coedge $-1 $88 $88 $142 $143 reversed $55 $-1 #
face $-1 $-1 $144 $31 $-1 $145 forward single #
loop $-1 $146 $147 $57 #
cone-surface $-1 63.367190071450665 -29.378463593482003 10.384148779474492 0 0.80901700255871778 -0.5877852410284794 0.25 0 0 1 I I -0.70710678118654746 0.70710678118654746 0.25 forward I I I I #
loop $-1 $-1 $148 $40 #
coedge $-1 $93 $93 $149 $150 reversed $58 $-1 #
face $-1 $151 $152 $32 $-1 $153 reversed single #
loop $-1 $-1 $154 $60 #
plane-surface $-1 47.487102282678109 -5.5397445062368007 52.88939645514229 0 0.80901700255871778 0.5877852410284794 1 0 0 forward_v I I I I #
coedge $-1 $155 $156 $157 $158 reversed $61 $-1 #
face $-1 $-1 $159 $33 $-1 $160 forward single #
loop $-1 $161 $162 $63 #
cone-surface $-1 37.647208409715176 24.015498806434334 4.6742121824803942 0 -0.80901700255871778 -0.5877852410284794 0.75 0 0 1 I I -0.70710678118654757 0.70710678118654757 0.75 forward I I I I #
loop $-1 $-1 $163 $42 #
coedge $-1 $102 $102 $164 $165 reversed $64 $-1 #
face $-1 $-1 $166 $34 $-1 $167 forward single #
loop $-1 $168 $169 $66 #
cone-surface $-1 47.487102282678109 24.015498806434334 4.6742121824803942 0 -0.80901700255871778 -0.5877852410284794 0.75 0 0 1 I I -0.70710678118654757 0.70710678118654757 0.75 forward I I I I #
loop $-1 $-1 $170 $43 #
coedge $-1 $107 $107 $171 $172 reversed $67 $-1 #
face $-1 $-1 $173 $35 $-1 $174 forward single #
loop $-1 $175 $176 $69 #
cone-surface $-1 57.326996155641041 24.015498806434334 4.6742121824803942 0 -0.80901700255871778 -0.5877852410284794 0.75 0 0 1 I I -0.70710678118654757 0.70710678118654757 0.75 forward I I I I #
loop $-1 $-1 $177 $44 #
coedge $-1 $112 $112 $178 $179 reversed $70 $-1 #
face $-1 $180 $181 $27 $-1 $182 reversed single #
loop $-1 $-1 $183 $72 #
plane-surface $-1 0 -31.552823921959597 0 0 1 0 0 0 1 forward_v I I I I #
coedge $-1 $184 $185 $186 $187 forward $73 $-1 #
coedge $-1 $188 $75 $189 $190 forward $46 $-1 #
coedge $-1 $75 $188 $191 $192 forward $46 $-1 #
coedge $-1 $193 $194 $75 $120 reversed $195 $-1 #
edge $-1 $196 -31.552823921959597 $197 31.552823921959597 $119 $198 forward 7 unknown #
face $-1 $199 $200 $28 $-1 $201 reversed single #
loop $-1 $-1 $127 $76 #
plane-surface $-1 -75.035021929663557 0 -7.2365887239431661 0 0 1 1 0 0 forward_v I I I I #
coedge $-1 $202 $203 $126 $204 forward $77 $-1 #
coedge $-1 $205 $79 $206 $207 reversed $49 $-1 #
coedge $-1 $79 $205 $124 $204 reversed $49 $-1 #
coedge $-1 $208 $209 $79 $128 reversed $122 $-1 #
edge $-1 $210 -31.552823921959597 $211 31.552823921959597 $127 $212 forward 7 unknown #
face $-1 $213 $214 $29 $-1 $215 forward single #
loop $-1 $-1 $216 $80 #
plane-surface $-1 0 -31.552823921959597 0 0 1 0 0 0 1 forward_v I I I I #
coedge $-1 $217 $218 $219 $220 reversed $81 $-1 #
coedge $-1 $221 $83 $222 $223 reversed $52 $-1 #
coedge $-1 $83 $221 $217 $224 forward $52 $-1 #
coedge $-1 $219 $225 $83 $136 forward $214 $-1 #
edge $-1 $226 -40.303090687663797 $227 -18.362556300911336 $135 $228 forward 7 unknown #
loop $-1 $-1 $142 $84 #
plane-surface $-1 58.665646988575133 -31.552823921959558 9.5180255087765886 0 -0.80901700255871778 0.5877852410284794 1 0 0 forward_v I I I I #
loop $-1 $-1 $229 $54 #
coedge $-1 $140 $140 $141 $230 reversed $85 $-1 #
coedge $-1 $141 $141 $140 $230 forward $87 $-1 #
coedge $-1 $142 $142 $88 $143 forward $137 $-1 #
edge $-1 $231 -4.3999782921355929e-015 $231 6.283185307179596 $142 $232 forward 7 unknown #
loop $-1 $-1 $149 $89 #
plane-surface $-1 58.665646988575133 -31.552823921959558 9.5180255087765886 0 -0.80901700255871778 0.5877852410284794 1 0 0 forward_v I I I I #
loop $-1 $-1 $233 $57 #
coedge $-1 $147 $147 $148 $234 reversed $90 $-1 #
coedge $-1 $148 $148 $147 $234 forward $92 $-1 #
coedge $-1 $149 $149 $93 $150 forward $144 $-1 #
edge $-1 $235 -4.3999782921355929e-015 $235 6.283185307179596 $149 $236 forward 7 unknown #
face $-1 $237 $238 $32 $-1 $239 forward single #
loop $-1 $-1 $240 $94 #
plane-surface $-1 63.886925404283005 107.1335326176 134.75132165849587 -1 0 0 0 0.80901700255871778 0.5877852410284794 forward_v I I I I #
coedge $-1 $241 $242 $243 $244 reversed $95 $-1 #
coedge $-1 $156 $97 $245 $246 reversed $61 $-1 #
coedge $-1 $97 $155 $241 $247 reversed $61 $-1 #
coedge $-1 $243 $248 $97 $158 forward $238 $-1 #
edge $-1 $249 22.013942386840402 $250 29.921544397783865 $157 $251 forward 7 unknown #
loop $-1 $-1 $164 $98 #
plane-surface $-1 47.487102282678109 -5.5397445062368007 52.88939645514229 0 0.80901700255871778 0.5877852410284794 1 0 0 forward_v I I I I #
loop $-1 $-1 $252 $63 #
coedge $-1 $162 $162 $163 $253 reversed $99 $-1 #
coedge $-1 $163 $163 $162 $253 forward $101 $-1 #
coedge $-1 $164 $164 $102 $165 forward $159 $-1 #
edge $-1 $254 -1.0030163654778282e-015 $254 6.2831853071795996 $164 $255 forward 7 unknown #
loop $-1 $-1 $171 $103 #
plane-surface $-1 47.487102282678109 -5.5397445062368007 52.88939645514229 0 0.80901700255871778 0.5877852410284794 1 0 0 forward_v I I I I #
loop $-1 $-1 $256 $66 #
coedge $-1 $169 $169 $170 $257 reversed $104 $-1 #
coedge $-1 $170 $170 $169 $257 forward $106 $-1 #
coedge $-1 $171 $171 $107 $172 forward $166 $-1 #
edge $-1 $258 -1.0030163654778282e-015 $258 6.2831853071795996 $171 $259 forward 7 unknown #
loop $-1 $-1 $178 $108 #
plane-surface $-1 47.487102282678109 -5.5397445062368007 52.88939645514229 0 0.80901700255871778 0.5877852410284794 1 0 0 forward_v I I I I #
loop $-1 $-1 $260 $69 #
coedge $-1 $176 $176 $177 $261 reversed $109 $-1 #
coedge $-1 $177 $177 $176 $261 forward $111 $-1 #
coedge $-1 $178 $178 $112 $179 forward $173 $-1 #
edge $-1 $262 -1.0030163654778282e-015 $262 6.2831853071795996 $178 $263 forward 7 unknown #
face $-1 $264 $265 $27 $-1 $266 reversed single #
loop $-1 $-1 $267 $113 #
plane-surface $-1 -69.635914181951364 0 0 1 0 0 0 0 -1 forward_v I I I I #
coedge $-1 $268 $191 $267 $269 forward $114 $-1 #
coedge $-1 $270 $116 $268 $271 forward $73 $-1 #
coedge $-1 $116 $270 $272 $273 forward $73 $-1 #
coedge $-1 $194 $193 $116 $187 reversed $195 $-1 #
edge $-1 $274 -31.552823921959597 $275 31.552823921959597 $186 $276 forward 7 unknown #
coedge $-1 $118 $117 $277 $278 forward $46 $-1 #
coedge $-1 $279 $280 $117 $190 reversed $265 $-1 #
edge $-1 $197 -69.635914181951364 $281 69.635914181951364 $189 $282 forward 7 unknown #
coedge $-1 $183 $283 $118 $192 reversed $114 $-1 #
edge $-1 $284 -69.635914181951364 $196 69.635914181951364 $191 $285 forward 7 unknown #
coedge $-1 $186 $119 $283 $286 forward $195 $-1 #
coedge $-1 $119 $186 $279 $287 reversed $195 $-1 #
loop $-1 $-1 $193 $264 #
vertex $-1 $120 $288 #
vertex $-1 $120 $289 #
straight-curve $-1 69.635914181951364 0 12.719735152743576 0 1 0 I I #
face $-1 $290 $291 $28 $-1 $292 reversed single #
loop $-1 $-1 $293 $121 #
plane-surface $-1 -80.434129677375751 0 -9.9781619383433711 1 0 0 0 0 -1 forward_v I I I I #
coedge $-1 $294 $124 $295 $296 reversed $77 $-1 #
coedge $-1 $124 $294 $208 $297 reversed $77 $-1 #
edge $-1 $210 7.2365887239431661 $298 12.719735152743576 $124 $299 forward 7 unknown #
coedge $-1 $126 $125 $300 $301 reversed $49 $-1 #
coedge $-1 $302 $303 $125 $207 forward $304 $-1 #
edge $-1 $305 -12.719735152743576 $211 -7.2365887239431661 $206 $306 forward 7 unknown #
coedge $-1 $307 $127 $203 $297 forward $122 $-1 #
coedge $-1 $127 $307 $302 $308 forward $122 $-1 #
vertex $-1 $204 $309 #
vertex $-1 $308 $310 #
straight-curve $-1 -69.635914181951364 0 -7.2365887239431661 0 -1 0 I I #
face $-1 $-1 $311 $29 $-1 $312 reversed single #
loop $-1 $-1 $219 $129 #
plane-surface $-1 0 0 12.719735152743576 0 0 1 1 0 0 forward_v I I I I #
coedge $-1 $313 $314 $218 $315 forward $130 $-1 #
coedge $-1 $218 $132 $134 $224 reversed $81 $-1 #
coedge $-1 $132 $217 $216 $315 reversed $81 $-1 #
coedge $-1 $316 $135 $132 $220 forward $214 $-1 #
edge $-1 $227 -42.886404751497025 $317 -40.560226600938577 $219 $318 forward 7 unknown #
coedge $-1 $134 $133 $313 $319 reversed $52 $-1 #
coedge $-1 $320 $321 $133 $223 forward $311 $-1 #
edge $-1 $322 -5.4230198733552264 $226 -1.4654891492284936 $222 $323 forward 7 unknown #
edge $-1 $324 -6.6083645896576253e-014 $227 3.9575307241266664 $217 $325 forward 7 unknown #
coedge $-1 $135 $316 $320 $326 forward $214 $-1 #
vertex $-1 $223 $327 #
vertex $-1 $136 $328 #
straight-curve $-1 29.332823494287567 -29.226645771401152 12.719735152743576 -1 0 0 I I #
coedge $-1 $229 $229 $-1 $329 reversed $139 $-1 #
edge $-1 $330 0 $330 6.2831853071796004 $140 $331 forward 7 unknown #
vertex $-1 $143 $332 #
ellipse-curve $-1 53.964103905699602 -30.389734846680366 11.118880330760067 0 -0.80901700255871778 0.5877852410284794 0.5 0 0 1 I I #
coedge $-1 $233 $233 $-1 $333 reversed $146 $-1 #
edge $-1 $334 0 $334 6.2831853071796004 $147 $335 forward 7 unknown #
vertex $-1 $150 $336 #
ellipse-curve $-1 63.367190071450665 -30.389734846680366 11.118880330760067 0 -0.80901700255871778 0.5877852410284794 0.5 0 0 1 I I #
face $-1 $-1 $337 $32 $-1 $338 reversed single #
loop $-1 $-1 $157 $151 #
plane-surface $-1 0 0 12.719735152743576 0 0 1 1 0 0 forward_v I I I I #
coedge $-1 $339 $340 $341 $342 reversed $152 $-1 #
coedge $-1 $343 $154 $156 $247 forward $95 $-1 #
coedge $-1 $154 $343 $339 $344 forward $95 $-1 #
coedge $-1 $341 $157 $154 $244 forward $238 $-1 #
edge $-1 $250 7.3437280197341579 $345 40.143374262943951 $243 $346 forward 7 unknown #
coedge $-1 $347 $348 $155 $246 forward $337 $-1 #
edge $-1 $349 -65.539806437319186 $249 -54.65592567650436 $245 $350 forward 7 unknown #
edge $-1 $250 49.652431500638627 $349 63.105647843919229 $156 $351 forward 7 unknown #
coedge $-1 $157 $341 $347 $352 forward $238 $-1 #
vertex $-1 $246 $353 #
vertex $-1 $158 $354 #
straight-curve $-1 31.087279161073212 53.566766308799998 12.719735152743574 0 -1 0 I I #
coedge $-1 $252 $252 $-1 $355 reversed $161 $-1 #
edge $-1 $356 0 $356 6.2831853071796004 $162 $357 forward 7 unknown #
vertex $-1 $165 $358 #
ellipse-curve $-1 37.647208409715176 27.599022916487865 7.2777947723361676 0 0.80901700255871778 0.5877852410284794 1.5 0 0 1 I I #
coedge $-1 $256 $256 $-1 $359 reversed $168 $-1 #
edge $-1 $360 0 $360 6.2831853071796004 $169 $361 forward 7 unknown #
vertex $-1 $172 $362 #
ellipse-curve $-1 47.487102282678109 27.599022916487865 7.2777947723361676 0 0.80901700255871778 0.5877852410284794 1.5 0 0 1 I I #
coedge $-1 $260 $260 $-1 $363 reversed $175 $-1 #
edge $-1 $364 0 $364 6.2831853071796004 $176 $365 forward 7 unknown #
vertex $-1 $179 $366 #
ellipse-curve $-1 57.326996155641041 27.599022916487865 7.2777947723361676 0 0.80901700255871778 0.5877852410284794 1.5 0 0 1 I I #
face $-1 $-1 $195 $27 $-1 $367 reversed single #
loop $-1 $-1 $279 $180 #
plane-surface $-1 0 31.552823921959597 0 0 -1 0 0 0 -1 forward_v I I I I #
coedge $-1 $277 $368 $183 $269 reversed $181 $-1 #
coedge $-1 $283 $183 $184 $271 reversed $114 $-1 #
edge $-1 $284 -12.719735152743576 $369 12.719735152743576 $267 $370 forward 7 unknown #
coedge $-1 $185 $184 $368 $371 forward $73 $-1 #
edge $-1 $275 -69.635914181951364 $369 69.635914181951364 $268 $372 forward 7 unknown #
coedge $-1 $280 $279 $185 $273 reversed $265 $-1 #
edge $-1 $373 -69.635914181951364 $274 69.635914181951364 $272 $374 forward 7 unknown #
vertex $-1 $187 $375 #
vertex $-1 $286 $376 #
straight-curve $-1 69.635914181951364 0 -12.719735152743576 0 -1 0 I I #
coedge $-1 $377 $267 $188 $278 reversed $181 $-1 #
edge $-1 $281 -31.552823921959597 $284 31.552823921959597 $277 $378 forward 7 unknown #
coedge $-1 $272 $189 $194 $287 forward $265 $-1 #
coedge $-1 $189 $272 $377 $379 reversed $265 $-1 #
vertex $-1 $190 $380 #
straight-curve $-1 0 31.552823921959597 12.719735152743576 -1 0 0 I I #
coedge $-1 $191 $268 $193 $286 reversed $114 $-1 #
vertex $-1 $278 $381 #
straight-curve $-1 0 -31.552823921959597 12.719735152743576 1 0 0 I I #
edge $-1 $196 -12.719735152743576 $275 12.719735152743576 $193 $382 forward 7 unknown #
edge $-1 $197 -12.719735152743576 $274 12.719735152743576 $194 $383 forward 7 unknown #
point $-1 69.635914181951364 -31.552823921959597 12.719735152743576 #
point $-1 69.635914181951364 31.552823921959597 12.719735152743576 #
face $-1 $-1 $304 $28 $-1 $384 reversed single #
loop $-1 $-1 $300 $199 #
plane-surface $-1 0 0 -12.719735152743576 0 0 1 1 0 0 forward_v I I I I #
coedge $-1 $385 $386 $294 $387 forward $200 $-1 #
coedge $-1 $203 $202 $293 $387 reversed $77 $-1 #
coedge $-1 $300 $388 $202 $296 forward $291 $-1 #
edge $-1 $389 -80.434129677375751 $298 -69.635914181951364 $202 $390 forward 7 unknown #
edge $-1 $210 -5.3991077477121934 $391 5.3991077477121934 $203 $392 forward 7 unknown #
vertex $-1 $204 $393 #
straight-curve $-1 -69.635914181951364 31.552823921959597 0 0 0 -1 I I #
coedge $-1 $394 $295 $205 $301 forward $291 $-1 #
edge $-1 $298 -31.552823921959597 $305 31.552823921959597 $300 $395 forward 7 unknown #
coedge $-1 $396 $206 $209 $308 reversed $304 $-1 #
coedge $-1 $206 $396 $394 $397 reversed $304 $-1 #
loop $-1 $-1 $206 $290 #
vertex $-1 $397 $398 #
straight-curve $-1 -69.635914181951364 -31.552823921959597 0 0 0 1 I I #
coedge $-1 $209 $208 $386 $399 forward $122 $-1 #
edge $-1 $400 -5.3991077477121934 $211 5.3991077477121934 $302 $401 forward 7 unknown #
point $-1 -69.635914181951364 31.552823921959597 -7.2365887239431661 #
point $-1 -69.635914181951364 -31.552823921959597 -7.2365887239431661 #
loop $-1 $-1 $222 $213 #
plane-surface $-1 69.635914181951364 0 0 -1 0 0 0 0 1 forward_v I I I I #
coedge $-1 $402 $216 $221 $319 forward $130 $-1 #
coedge $-1 $216 $402 $316 $403 reversed $130 $-1 #
edge $-1 $317 32.970240203321509 $324 36.171949847288545 $216 $404 forward 7 unknown #
coedge $-1 $225 $219 $314 $403 forward $214 $-1 #
vertex $-1 $403 $405 #
straight-curve $-1 47.695379795198903 -72.113050522898178 12.719735152743574 0 -1 0 I I #
edge $-1 $324 18.362556300911336 $322 40.303090687663797 $313 $406 forward 7 unknown #
coedge $-1 $321 $222 $225 $326 reversed $311 $-1 #
coedge $-1 $222 $320 $402 $407 forward $311 $-1 #
vertex $-1 $319 $408 #
straight-curve $-1 69.635914181951364 -28.365252878597261 13.905340791534737 0 0.5877852410284794 0.80901700255871778 I I #
vertex $-1 $319 $409 #
straight-curve $-1 47.695379795198903 -31.552823921959558 9.5180255087765886 0 0.5877852410284794 0.80901700255871778 I I #
edge $-1 $410 -31.552823921959597 $226 -29.226645771401152 $320 $411 forward 7 unknown #
point $-1 69.635914181951364 -29.226645771401152 12.719735152743576 #
point $-1 47.695379795198903 -29.226645771401152 12.719735152743576 #
edge $-1 $412 1 $412 0 $229 $-1 forward 7 unknown #
vertex $-1 $230 $413 #
ellipse-curve $-1 53.964103905699602 -29.580717844121683 10.531095089731611 0 -0.80901700255871778 0.5877852410284794 0.5 0 0 1 I I #
point $-1 54.464103905699602 -30.389734846680401 11.11888033076009 #
edge $-1 $414 1 $414 0 $233 $-1 forward 7 unknown #
vertex $-1 $234 $415 #
ellipse-curve $-1 63.367190071450665 -29.580717844121683 10.531095089731611 0 -0.80901700255871778 0.5877852410284794 0.5 0 0 1 I I #
point $-1 63.867190071450665 -30.389734846680401 11.11888033076009 #
loop $-1 $-1 $245 $237 #
plane-surface $-1 0 31.552823921959597 0 0 -1 0 0 0 -1 forward_v I I I I #
coedge $-1 $340 $240 $242 $344 reversed $152 $-1 #
coedge $-1 $240 $339 $416 $417 reversed $152 $-1 #
coedge $-1 $248 $243 $240 $342 forward $238 $-1 #
edge $-1 $345 -29.921544397783865 $418 -22.013942386840402 $341 $419 forward 7 unknown #
coedge $-1 $242 $241 $348 $420 reversed $95 $-1 #
edge $-1 $421 -63.105647843919229 $345 -49.652431500638627 $339 $422 forward 7 unknown #
vertex $-1 $244 $423 #
straight-curve $-1 23.743551141339054 23.64522191101614 12.719735152743574 1 0 0 I I #
coedge $-1 $416 $245 $248 $352 reversed $337 $-1 #
coedge $-1 $245 $416 $343 $420 forward $337 $-1 #
vertex $-1 $246 $424 #
straight-curve $-1 31.087279161073212 31.5528239219596 67.375660829247934 0 0 1 I I #
straight-curve $-1 31.087279161073212 -5.5397445062368007 52.88939645514229 0 0.5877852410284794 -0.80901700255871778 I I #
edge $-1 $418 -63.886925404283005 $249 -31.087279161073212 $347 $425 forward 7 unknown #
point $-1 31.087279161073212 31.552823921959597 12.719735152743576 #
point $-1 31.087279161073212 23.645221911016133 12.719735152743574 #
edge $-1 $426 1 $426 0 $252 $-1 forward 7 unknown #
vertex $-1 $253 $427 #
ellipse-curve $-1 37.647208409715176 24.622261558353372 5.115051113251754 0 0.80901700255871778 0.5877852410284794 1.5 0 0 1 I I #
point $-1 39.147208409715176 27.599022916487868 7.277794772336172 #
edge $-1 $428 1 $428 0 $256 $-1 forward 7 unknown #
vertex $-1 $257 $429 #
ellipse-curve $-1 47.487102282678109 24.622261558353372 5.115051113251754 0 0.80901700255871778 0.5877852410284794 1.5 0 0 1 I I #
point $-1 48.987102282678109 27.599022916487868 7.277794772336172 #
edge $-1 $430 1 $430 0 $260 $-1 forward 7 unknown #
vertex $-1 $261 $431 #
ellipse-curve $-1 57.326996155641041 24.622261558353372 5.115051113251754 0 0.80901700255871778 0.5877852410284794 1.5 0 0 1 I I #
point $-1 58.826996155641041 27.599022916487868 7.277794772336172 #
plane-surface $-1 69.635914181951364 0 0 -1 0 0 0 0 1 forward_v I I I I #
coedge $-1 $267 $377 $270 $371 reversed $181 $-1 #
vertex $-1 $371 $432 #
straight-curve $-1 -69.635914181951364 -31.552823921959597 0 0 0 -1 I I #
edge $-1 $369 -31.552823921959597 $373 31.552823921959597 $368 $433 forward 7 unknown #
straight-curve $-1 0 -31.552823921959597 -12.719735152743576 -1 0 0 I I #
vertex $-1 $273 $434 #
straight-curve $-1 0 31.552823921959597 -12.719735152743576 1 0 0 I I #
point $-1 69.635914181951364 31.552823921959597 -12.719735152743576 #
point $-1 69.635914181951364 -31.552823921959597 -12.719735152743576 #
coedge $-1 $368 $277 $280 $379 forward $181 $-1 #
straight-curve $-1 -69.635914181951364 0 12.719735152743576 0 -1 0 I I #
edge $-1 $281 -12.719735152743576 $373 12.719735152743576 $280 $435 forward 7 unknown #
point $-1 -69.635914181951364 31.552823921959597 12.719735152743576 #
point $-1 -69.635914181951364 -31.552823921959597 12.719735152743576 #
straight-curve $-1 69.635914181951364 -31.552823921959597 0 0 0 -1 I I #
straight-curve $-1 69.635914181951364 31.552823921959597 0 0 0 -1 I I #
plane-surface $-1 0 -31.552823921959597 0 0 1 0 0 0 1 forward_v I I I I #
coedge $-1 $436 $293 $388 $437 reversed $200 $-1 #
coedge $-1 $293 $436 $307 $399 reversed $200 $-1 #
edge $-1 $391 -2.741573214400205 $389 2.741573214400205 $294 $438 forward 7 unknown #
coedge $-1 $295 $394 $385 $437 forward $291 $-1 #
vertex $-1 $296 $439 #
straight-curve $-1 0 31.552823921959597 -12.719735152743576 1 0 0 I I #
vertex $-1 $297 $440 #
straight-curve $-1 -75.035021929663557 31.552823921959597 -7.2365887239431661 -1 0 0 I I #
point $-1 -69.635914181951364 31.552823921959597 -12.719735152743576 #
coedge $-1 $388 $300 $303 $397 forward $291 $-1 #
straight-curve $-1 -69.635914181951364 0 -12.719735152743576 0 -1 0 I I #
coedge $-1 $303 $302 $436 $441 forward $304 $-1 #
edge $-1 $305 -5.3991077477121934 $442 5.3991077477121934 $303 $443 forward 7 unknown #
point $-1 -69.635914181951364 -31.552823921959597 -12.719735152743576 #
edge $-1 $391 -31.552823921959597 $400 31.552823921959597 $386 $444 forward 7 unknown #
vertex $-1 $399 $445 #
straight-curve $-1 -75.035021929663557 -31.552823921959597 -7.2365887239431661 1 0 0 I I #
coedge $-1 $314 $313 $321 $407 reversed $130 $-1 #
edge $-1 $317 47.695379795198903 $410 69.635914181951364 $314 $446 forward 7 unknown #
straight-curve $-1 47.695379795198903 -31.5528239219596 45.689975356065084 0 0 -1 I I #
point $-1 47.695379795198903 -31.552823921959597 12.719735152743576 #
straight-curve $-1 29.332823494287567 -31.552823921959597 9.5180255087765406 1 0 0 I I #
edge $-1 $410 -12.719735152743576 $322 -9.5180255087765353 $321 $447 forward 7 unknown #
point $-1 69.635914181951364 -31.552823921959597 9.5180255087765353 #
point $-1 47.695379795198903 -31.552823921959597 9.5180255087765353 #
vertex $-1 $326 $448 #
straight-curve $-1 69.635914181951364 0 12.719735152743576 0 1 0 I I #
vertex $-1 $329 $449 #
point $-1 54.464103905699602 -29.580717844121683 10.531095089731611 #
vertex $-1 $333 $450 #
point $-1 63.867190071450665 -29.580717844121683 10.531095089731611 #
coedge $-1 $348 $347 $340 $417 forward $337 $-1 #
edge $-1 $418 54.65592567650436 $421 65.539806437319186 $416 $451 forward 7 unknown #
vertex $-1 $352 $452 #
straight-curve $-1 63.886925404283005 53.566766308799998 12.719735152743574 0 1 0 I I #
edge $-1 $421 -40.143374262943951 $349 -7.3437280197341579 $348 $453 forward 7 unknown #
vertex $-1 $420 $454 #
straight-curve $-1 63.886925404283005 -5.5397445062368007 52.88939645514229 0 -0.5877852410284794 0.80901700255871778 I I #
point $-1 63.886925404283005 23.645221911016133 12.719735152743574 #
point $-1 31.087279161073212 31.5528239219596 1.8358543919287484 #
straight-curve $-1 0 31.552823921959597 12.719735152743576 -1 0 0 I I #
vertex $-1 $355 $455 #
point $-1 39.147208409715176 24.622261558353372 5.115051113251754 #
vertex $-1 $359 $456 #
point $-1 48.987102282678109 24.622261558353372 5.115051113251754 #
vertex $-1 $363 $457 #
point $-1 58.826996155641041 24.622261558353372 5.115051113251754 #
point $-1 -69.635914181951364 -31.552823921959597 -12.719735152743576 #
straight-curve $-1 -69.635914181951364 0 -12.719735152743576 0 1 0 I I #
point $-1 -69.635914181951364 31.552823921959597 -12.719735152743576 #
straight-curve $-1 -69.635914181951364 31.552823921959597 0 0 0 -1 I I #
coedge $-1 $386 $385 $396 $441 reversed $200 $-1 #
edge $-1 $442 -31.552823921959597 $389 31.552823921959597 $385 $458 forward 7 unknown #
straight-curve $-1 -80.434129677375751 31.552823921959597 -9.9781619383433711 0 0 -1 I I #
point $-1 -80.434129677375751 31.552823921959597 -12.719735152743576 #
point $-1 -80.434129677375751 31.552823921959597 -7.2365887239431661 #
edge $-1 $400 -2.741573214400205 $442 2.741573214400205 $436 $459 forward 7 unknown #
vertex $-1 $437 $460 #
straight-curve $-1 -75.035021929663557 -31.552823921959597 -12.719735152743576 -1 0 0 I I #
straight-curve $-1 -80.434129677375751 0 -7.2365887239431661 0 -1 0 I I #
point $-1 -80.434129677375751 -31.552823921959597 -7.2365887239431661 #
straight-curve $-1 0 -31.552823921959597 12.719735152743576 1 0 0 I I #
straight-curve $-1 69.635914181951364 -31.552823921959597 0 0 0 -1 I I #
point $-1 69.635914181951364 -31.552823921959597 12.719735152743576 #
point $-1 53.964103905699602 -29.176209342842323 10.237202469217372 #
point $-1 63.367190071450665 -29.176209342842323 10.237202469217372 #
straight-curve $-1 63.886925404283005 31.5528239219596 67.375660829247934 0 0 -1 I I #
point $-1 63.886925404283005 31.552823921959597 12.719735152743576 #
straight-curve $-1 23.743551141339054 31.5528239219596 1.835854391928752 -1 0 0 I I #
point $-1 63.886925404283005 31.5528239219596 1.8358543919287484 #
point $-1 37.647208409715176 23.408736054515295 4.2333732517090343 #
point $-1 47.487102282678109 23.408736054515295 4.2333732517090343 #
point $-1 57.326996155641041 23.408736054515295 4.2333732517090343 #
straight-curve $-1 -80.434129677375751 0 -12.719735152743576 0 1 0 I I #
straight-curve $-1 -80.434129677375751 -31.552823921959597 -9.9781619383433711 0 0 -1 I I #
point $-1 -80.434129677375751 -31.552823921959597 -12.719735152743576 #
End-of-ACIS-data 