500 0 11 0           
7 Unknown 11 ACIS 5.0 NT 24 Fri Mar 26 00:37:16 1999 
-1 9.9999999999999995e-007 1e-010 
body $-1 $11 $-1 $12 #
body $-1 $13 $-1 $14 #
body $-1 $15 $-1 $16 #
body $-1 $17 $-1 $18 #
body $-1 $19 $-1 $20 #
body $-1 $21 $-1 $22 #
body $-1 $23 $-1 $24 #
body $-1 $25 $-1 $26 #
body $-1 $27 $-1 $28 #
body $-1 $29 $-1 $30 #
body $-1 $31 $-1 $32 #
lump $-1 $-1 $33 $0 #
transform $-1 1 0 0 0 1 0 0 0 1 48.56593523972289 22.31302882390467 10.443753180531058 1 rotate no_reflect no_shear #
lump $-1 $-1 $34 $1 #
transform $-1 1 0 0 0 1 0 0 0 1 48.56593523972289 22.31302882390467 10.443753180531058 1 rotate no_reflect no_shear #
lump $-1 $-1 $35 $2 #
transform $-1 1 0 0 0 1 0 0 0 1 48.56593523972289 22.31302882390467 10.443753180531058 1 rotate no_reflect no_shear #
lump $-1 $-1 $36 $3 #
transform $-1 1 0 0 0 1 0 0 0 1 48.56593523972289 22.31302882390467 10.443753180531058 1 rotate no_reflect no_shear #
lump $-1 $-1 $37 $4 #
transform $-1 1 0 0 0 1 0 0 0 1 48.56593523972289 22.31302882390467 10.443753180531058 1 rotate no_reflect no_shear #
lump $-1 $-1 $38 $5 #
transform $-1 1 0 0 0 1 0 0 0 1 48.56593523972289 22.31302882390467 10.443753180531058 1 rotate no_reflect no_shear #
lump $-1 $-1 $39 $6 #
transform $-1 1 0 0 0 1 0 0 0 1 48.56593523972289 22.31302882390467 10.443753180531058 1 rotate no_reflect no_shear #
lump $-1 $-1 $40 $7 #
transform $-1 1 0 0 0 1 0 0 0 1 48.56593523972289 22.31302882390467 10.443753180531058 1 rotate no_reflect no_shear #
lump $-1 $-1 $41 $8 #
transform $-1 1 0 0 0 1 0 0 0 1 48.56593523972289 22.31302882390467 10.443753180531058 1 rotate no_reflect no_shear #
lump $-1 $-1 $42 $9 #
transform $-1 1 0 0 0 1 0 0 0 1 48.56593523972289 22.31302882390467 10.443753180531058 1 rotate no_reflect no_shear #
lump $-1 $-1 $43 $10 #
transform $-1 1 0 0 0 1 0 0 0 1 48.56593523972289 22.31302882390467 10.443753180531058 1 rotate no_reflect no_shear #
shell $-1 $-1 $-1 $44 $-1 $11 #
shell $-1 $-1 $-1 $45 $-1 $13 #
shell $-1 $-1 $-1 $46 $-1 $15 #
shell $-1 $-1 $-1 $47 $-1 $17 #
shell $-1 $-1 $-1 $48 $-1 $19 #
shell $-1 $-1 $-1 $49 $-1 $21 #
shell $-1 $-1 $-1 $50 $-1 $23 #
shell $-1 $-1 $-1 $51 $-1 $25 #
shell $-1 $-1 $-1 $52 $-1 $27 #
shell $-1 $-1 $-1 $53 $-1 $29 #
shell $-1 $-1 $-1 $54 $-1 $31 #
face $-1 $55 $56 $33 $-1 $57 forward single #
face $-1 $58 $59 $34 $-1 $60 forward single #
face $-1 $61 $62 $35 $-1 $63 reversed single #
face $-1 $64 $65 $36 $-1 $66 forward single #
face $-1 $67 $68 $37 $-1 $69 forward single #
face $-1 $70 $71 $38 $-1 $72 reversed single #
face $-1 $73 $74 $39 $-1 $75 forward single #
face $-1 $76 $77 $40 $-1 $78 forward single #
face $-1 $79 $80 $41 $-1 $81 reversed single #
face $-1 $82 $83 $42 $-1 $84 forward single #
face $-1 $85 $86 $43 $-1 $87 forward single #
face $-1 $88 $89 $33 $-1 $90 reversed single #
loop $-1 $-1 $91 $44 #
plane-surface $-1 0 0 10.443753180531058 0 0 1 1 0 0 forward_v I I I I #
face $-1 $92 $93 $34 $-1 $94 forward single #
loop $-1 $-1 $95 $45 #
plane-surface $-1 0 -22.31302882390467 0 0 1 0 0 0 1 forward_v I I I I #
face $-1 $96 $97 $35 $-1 $98 reversed single #
loop $-1 $-1 $99 $46 #
plane-surface $-1 -98.592547489341754 -8.9554130865444108 86.367115099463106 0 1 0 -0.51503808176128008 0 0.85716729658548041 forward_v I I I I #
face $-1 $100 $101 $36 $-1 $102 forward single #
loop $-1 $103 $104 $47 #
cone-surface $-1 -42.204753762703348 -7.105143920222428 6.3477190761255553 0.51503808176128008 0 -0.85716729658548041 0.4285836482927402 0 0.25751904088064004 1 I I 0 1 0.5 forward I I I I #
face $-1 $105 $106 $37 $-1 $107 forward single #
loop $-1 $108 $109 $48 #
cone-surface $-1 -42.204753762703348 -4.3297401707394521 6.3477190761255553 0.51503808176128008 0 -0.85716729658548041 0.4285836482927402 0 0.25751904088064004 1 I I 0 1 0.5 forward I I I I #
face $-1 $110 $111 $38 $-1 $112 reversed single #
loop $-1 $-1 $113 $49 #
plane-surface $-1 -98.592547489341754 2.2840714314220065 86.367115099463106 0 1 0 -0.51503808176128008 0 0.85716729658548041 forward_v I I I I #
face $-1 $114 $115 $39 $-1 $116 forward single #
loop $-1 $117 $118 $50 #
cone-surface $-1 -42.204753762703348 4.1343405977439893 6.3477190761255553 0.51503808176128008 0 -0.85716729658548041 0.4285836482927402 0 0.25751904088064004 1 I I 0 1 0.5 forward I I I I #
face $-1 $119 $120 $40 $-1 $121 forward single #
loop $-1 $122 $123 $51 #
cone-surface $-1 -42.204753762703348 6.9097443472269653 6.3477190761255553 0.51503808176128008 0 -0.85716729658548041 0.4285836482927402 0 0.25751904088064004 1 I I 0 1 0.5 forward I I I I #
face $-1 $124 $125 $41 $-1 $126 reversed single #
loop $-1 $-1 $127 $52 #
plane-surface $-1 -98.592547489341754 13.523555949388424 86.367115099463106 0 1 0 -0.51503808176128008 0 0.85716729658548041 forward_v I I I I #
face $-1 $128 $129 $42 $-1 $130 forward single #
loop $-1 $131 $132 $53 #
cone-surface $-1 -42.204753762703348 15.373825115710407 6.3477190761255553 0.51503808176128008 0 -0.85716729658548041 0.4285836482927402 0 0.25751904088064004 1 I I 0 1 0.5 forward I I I I #
face $-1 $133 $134 $43 $-1 $135 forward single #
loop $-1 $136 $137 $54 #
cone-surface $-1 -42.204753762703348 18.149228865193383 6.3477190761255553 0.51503808176128008 0 -0.85716729658548041 0.4285836482927402 0 0.25751904088064004 1 I I 0 1 0.5 forward I I I I #
face $-1 $138 $139 $33 $-1 $140 reversed single #
loop $-1 $-1 $141 $55 #
plane-surface $-1 0 0 -10.443753180531058 0 0 1 1 0 0 forward_v I I I I #
coedge $-1 $142 $143 $144 $145 forward $56 $-1 #
face $-1 $146 $147 $34 $-1 $148 reversed single #
loop $-1 $-1 $149 $58 #
plane-surface $-1 0 0 10.443753180531058 0 0 1 1 0 0 forward_v I I I I #
coedge $-1 $150 $151 $152 $153 forward $59 $-1 #
face $-1 $154 $155 $35 $-1 $156 reversed single #
loop $-1 $-1 $157 $61 #
plane-surface $-1 -48.56593523972289 -5.71744204548094 3.1088522683055402 -0.51503808176128008 0 0.85716729658548041 0.85716729658548041 0 0.51503808176128008 forward_v I I I I #
coedge $-1 $158 $159 $160 $161 reversed $62 $-1 #
face $-1 $-1 $162 $36 $-1 $163 forward single #
loop $-1 $164 $165 $64 #
cone-surface $-1 -41.818475201382391 -7.105143920222428 5.7048436036864452 0.51503808176128008 0 -0.85716729658548041 0.2142918241463701 0 0.12875952044032002 1 I I -0.70710678118654746 0.70710678118654746 0.25 forward I I I I #
loop $-1 $-1 $166 $47 #
coedge $-1 $104 $104 $167 $168 reversed $65 $-1 #
face $-1 $-1 $169 $37 $-1 $170 forward single #
loop $-1 $171 $172 $67 #
cone-surface $-1 -41.818475201382391 -4.3297401707394521 5.7048436036864452 0.51503808176128008 0 -0.85716729658548041 0.2142918241463701 0 0.12875952044032002 1 I I -0.70710678118654746 0.70710678118654746 0.25 forward I I I I #
loop $-1 $-1 $173 $48 #
coedge $-1 $109 $109 $174 $175 reversed $68 $-1 #
face $-1 $176 $177 $38 $-1 $178 reversed single #
loop $-1 $-1 $179 $70 #
plane-surface $-1 -48.56593523972289 5.5220424724854773 3.1088522683055402 -0.51503808176128008 0 0.85716729658548041 0.85716729658548041 0 0.51503808176128008 forward_v I I I I #
coedge $-1 $180 $181 $182 $183 reversed $71 $-1 #
face $-1 $-1 $184 $39 $-1 $185 forward single #
loop $-1 $186 $187 $73 #
cone-surface $-1 -41.818475201382391 4.1343405977439893 5.7048436036864452 0.51503808176128008 0 -0.85716729658548041 0.2142918241463701 0 0.12875952044032002 1 I I -0.70710678118654746 0.70710678118654746 0.25 forward I I I I #
loop $-1 $-1 $188 $50 #
coedge $-1 $118 $118 $189 $190 reversed $74 $-1 #
face $-1 $-1 $191 $40 $-1 $192 forward single #
loop $-1 $193 $194 $76 #
cone-surface $-1 -41.818475201382391 6.9097443472269653 5.7048436036864452 0.51503808176128008 0 -0.85716729658548041 0.2142918241463701 0 0.12875952044032002 1 I I -0.70710678118654746 0.70710678118654746 0.25 forward I I I I #
loop $-1 $-1 $195 $51 #
coedge $-1 $123 $123 $196 $197 reversed $77 $-1 #
face $-1 $198 $199 $41 $-1 $200 reversed single #
loop $-1 $-1 $201 $79 #
plane-surface $-1 -48.56593523972289 16.761526990451895 3.1088522683055402 -0.51503808176128008 0 0.85716729658548041 0.85716729658548041 0 0.51503808176128008 forward_v I I I I #
coedge $-1 $202 $203 $204 $205 reversed $80 $-1 #
face $-1 $-1 $206 $42 $-1 $207 forward single #
loop $-1 $208 $209 $82 #
cone-surface $-1 -41.818475201382391 15.373825115710407 5.7048436036864452 0.51503808176128008 0 -0.85716729658548041 0.2142918241463701 0 0.12875952044032002 1 I I -0.70710678118654746 0.70710678118654746 0.25 forward I I I I #
loop $-1 $-1 $210 $53 #
coedge $-1 $132 $132 $211 $212 reversed $83 $-1 #
face $-1 $-1 $213 $43 $-1 $214 forward single #
loop $-1 $215 $216 $85 #
cone-surface $-1 -41.818475201382391 18.149228865193383 5.7048436036864452 0.51503808176128008 0 -0.85716729658548041 0.2142918241463701 0 0.12875952044032002 1 I I -0.70710678118654746 0.70710678118654746 0.25 forward I I I I #
loop $-1 $-1 $217 $54 #
coedge $-1 $137 $137 $218 $219 reversed $86 $-1 #
face $-1 $220 $221 $33 $-1 $222 reversed single #
loop $-1 $-1 $223 $88 #
plane-surface $-1 0 -22.31302882390467 0 0 1 0 0 0 1 forward_v I I I I #
coedge $-1 $224 $225 $226 $227 forward $89 $-1 #
coedge $-1 $228 $91 $229 $230 forward $56 $-1 #
coedge $-1 $91 $228 $231 $232 forward $56 $-1 #
coedge $-1 $233 $234 $91 $145 reversed $235 $-1 #
edge $-1 $236 -22.31302882390467 $237 22.31302882390467 $144 $238 forward 7 unknown #
face $-1 $239 $240 $34 $-1 $241 reversed single #
loop $-1 $-1 $242 $92 #
plane-surface $-1 -48.56593523972289 0 0 1 0 0 0 0 -1 forward_v I I I I #
coedge $-1 $243 $244 $245 $246 forward $93 $-1 #
coedge $-1 $245 $95 $242 $247 reversed $59 $-1 #
coedge $-1 $95 $245 $248 $249 reversed $59 $-1 #
coedge $-1 $250 $251 $95 $153 reversed $240 $-1 #
edge $-1 $252 -48.56593523972289 $253 48.56593523972289 $152 $254 forward 7 unknown #
face $-1 $255 $256 $35 $-1 $257 forward single #
loop $-1 $-1 $258 $96 #
plane-surface $-1 -98.592547489341754 -2.4794710044174693 86.367115099463106 0 -1 0 0.51503808176128008 0 -0.85716729658548041 forward_v I I I I #
coedge $-1 $259 $260 $261 $262 reversed $97 $-1 #
coedge $-1 $159 $99 $263 $264 reversed $62 $-1 #
coedge $-1 $99 $158 $259 $265 reversed $62 $-1 #
coedge $-1 $261 $266 $99 $161 forward $256 $-1 #
edge $-1 $267 0.73033850494798713 $268 12.937663377225789 $160 $269 forward 7 unknown #
loop $-1 $-1 $167 $100 #
plane-surface $-1 -48.56593523972289 -5.71744204548094 3.1088522683055402 -0.51503808176128008 0 0.85716729658548041 0.85716729658548041 0 0.51503808176128008 forward_v I I I I #
loop $-1 $-1 $270 $64 #
coedge $-1 $165 $165 $166 $271 reversed $101 $-1 #
coedge $-1 $166 $166 $165 $271 forward $103 $-1 #
coedge $-1 $167 $167 $104 $168 forward $162 $-1 #
edge $-1 $272 0 $272 6.2831853071796004 $167 $273 forward 7 unknown #
loop $-1 $-1 $174 $105 #
plane-surface $-1 -48.56593523972289 -5.71744204548094 3.1088522683055402 -0.51503808176128008 0 0.85716729658548041 0.85716729658548041 0 0.51503808176128008 forward_v I I I I #
loop $-1 $-1 $274 $67 #
coedge $-1 $172 $172 $173 $275 reversed $106 $-1 #
coedge $-1 $173 $173 $172 $275 forward $108 $-1 #
coedge $-1 $174 $174 $109 $175 forward $169 $-1 #
edge $-1 $276 0 $276 6.2831853071796004 $174 $277 forward 7 unknown #
face $-1 $278 $279 $38 $-1 $280 forward single #
loop $-1 $-1 $281 $110 #
plane-surface $-1 -98.592547489341754 8.7600135135489481 86.367115099463106 0 -1 0 0.51503808176128008 0 -0.85716729658548041 forward_v I I I I #
coedge $-1 $282 $283 $284 $285 reversed $111 $-1 #
coedge $-1 $181 $113 $286 $287 reversed $71 $-1 #
coedge $-1 $113 $180 $282 $288 reversed $71 $-1 #
coedge $-1 $284 $289 $113 $183 forward $279 $-1 #
edge $-1 $290 0.73033850494798713 $291 12.937663377225789 $182 $292 forward 7 unknown #
loop $-1 $-1 $189 $114 #
plane-surface $-1 -48.56593523972289 5.5220424724854773 3.1088522683055402 -0.51503808176128008 0 0.85716729658548041 0.85716729658548041 0 0.51503808176128008 forward_v I I I I #
loop $-1 $-1 $293 $73 #
coedge $-1 $187 $187 $188 $294 reversed $115 $-1 #
coedge $-1 $188 $188 $187 $294 forward $117 $-1 #
coedge $-1 $189 $189 $118 $190 forward $184 $-1 #
edge $-1 $295 0 $295 6.2831853071796004 $189 $296 forward 7 unknown #
loop $-1 $-1 $196 $119 #
plane-surface $-1 -48.56593523972289 5.5220424724854773 3.1088522683055402 -0.51503808176128008 0 0.85716729658548041 0.85716729658548041 0 0.51503808176128008 forward_v I I I I #
loop $-1 $-1 $297 $76 #
coedge $-1 $194 $194 $195 $298 reversed $120 $-1 #
coedge $-1 $195 $195 $194 $298 forward $122 $-1 #
coedge $-1 $196 $196 $123 $197 forward $191 $-1 #
edge $-1 $299 0 $299 6.2831853071796004 $196 $300 forward 7 unknown #
face $-1 $301 $302 $41 $-1 $303 forward single #
loop $-1 $-1 $304 $124 #
plane-surface $-1 -98.592547489341754 19.999498031515365 86.367115099463106 0 -1 0 0.51503808176128008 0 -0.85716729658548041 forward_v I I I I #
coedge $-1 $305 $306 $307 $308 reversed $125 $-1 #
coedge $-1 $203 $127 $309 $310 reversed $80 $-1 #
coedge $-1 $127 $202 $305 $311 reversed $80 $-1 #
coedge $-1 $307 $312 $127 $205 forward $302 $-1 #
edge $-1 $313 0.73033850494798713 $314 12.937663377225789 $204 $315 forward 7 unknown #
loop $-1 $-1 $211 $128 #
plane-surface $-1 -48.56593523972289 16.761526990451895 3.1088522683055402 -0.51503808176128008 0 0.85716729658548041 0.85716729658548041 0 0.51503808176128008 forward_v I I I I #
loop $-1 $-1 $316 $82 #
coedge $-1 $209 $209 $210 $317 reversed $129 $-1 #
coedge $-1 $210 $210 $209 $317 forward $131 $-1 #
coedge $-1 $211 $211 $132 $212 forward $206 $-1 #
edge $-1 $318 0 $318 6.2831853071796004 $211 $319 forward 7 unknown #
loop $-1 $-1 $218 $133 #
plane-surface $-1 -48.56593523972289 16.761526990451895 3.1088522683055402 -0.51503808176128008 0 0.85716729658548041 0.85716729658548041 0 0.51503808176128008 forward_v I I I I #
loop $-1 $-1 $320 $85 #
coedge $-1 $216 $216 $217 $321 reversed $134 $-1 #
coedge $-1 $217 $217 $216 $321 forward $136 $-1 #
coedge $-1 $218 $218 $137 $219 forward $213 $-1 #
edge $-1 $322 0 $322 6.2831853071796004 $218 $323 forward 7 unknown #
face $-1 $324 $325 $33 $-1 $326 reversed single #
loop $-1 $-1 $327 $138 #
plane-surface $-1 -48.56593523972289 0 0 1 0 0 0 0 -1 forward_v I I I I #
coedge $-1 $328 $231 $329 $330 forward $139 $-1 #
coedge $-1 $331 $141 $328 $332 forward $89 $-1 #
coedge $-1 $141 $331 $333 $334 forward $89 $-1 #
coedge $-1 $234 $233 $141 $227 reversed $235 $-1 #
edge $-1 $335 -22.31302882390467 $336 22.31302882390467 $226 $337 forward 7 unknown #
coedge $-1 $143 $142 $338 $339 forward $56 $-1 #
coedge $-1 $340 $341 $142 $230 reversed $325 $-1 #
edge $-1 $237 -48.56593523972289 $342 48.56593523972289 $229 $343 forward 7 unknown #
coedge $-1 $223 $344 $143 $232 reversed $139 $-1 #
edge $-1 $345 -48.56593523972289 $236 48.56593523972289 $231 $346 forward 7 unknown #
coedge $-1 $226 $144 $344 $347 forward $235 $-1 #
coedge $-1 $144 $226 $340 $348 reversed $235 $-1 #
loop $-1 $-1 $233 $324 #
vertex $-1 $145 $349 #
vertex $-1 $145 $350 #
straight-curve $-1 48.56593523972289 0 10.443753180531058 0 1 0 I I #
face $-1 $351 $352 $34 $-1 $353 reversed single #
loop $-1 $-1 $250 $146 #
plane-surface $-1 0 -27.76683087085971 7.4437531805310577 0 0 1 1 0 0 forward_v I I I I #
coedge $-1 $354 $355 $150 $247 forward $147 $-1 #
coedge $-1 $356 $149 $355 $357 forward $93 $-1 #
coedge $-1 $149 $356 $358 $359 forward $93 $-1 #
coedge $-1 $151 $150 $149 $246 reversed $59 $-1 #
edge $-1 $360 -48.56593523972289 $361 48.56593523972289 $149 $362 forward 7 unknown #
edge $-1 $361 -10.443753180531058 $253 -7.4437531805310577 $242 $363 forward 7 unknown #
coedge $-1 $358 $364 $151 $249 forward $365 $-1 #
edge $-1 $252 7.4437531805310577 $360 10.443753180531058 $248 $366 forward 7 unknown #
coedge $-1 $367 $152 $364 $368 forward $240 $-1 #
coedge $-1 $152 $367 $354 $369 forward $240 $-1 #
vertex $-1 $249 $370 #
vertex $-1 $247 $371 #
straight-curve $-1 0 -22.31302882390467 7.4437531805310577 -1 0 0 I I #
face $-1 $-1 $372 $35 $-1 $373 reversed single #
loop $-1 $-1 $160 $154 #
plane-surface $-1 0 0 10.443753180531058 0 0 1 1 0 0 forward_v I I I I #
coedge $-1 $374 $375 $376 $377 reversed $155 $-1 #
coedge $-1 $378 $157 $159 $265 forward $97 $-1 #
coedge $-1 $157 $378 $374 $379 forward $97 $-1 #
coedge $-1 $376 $160 $157 $262 forward $256 $-1 #
edge $-1 $268 -6.0966920638039408 $380 0.37925001832300076 $261 $381 forward 7 unknown #
coedge $-1 $382 $383 $158 $264 forward $372 $-1 #
edge $-1 $384 -40.074705281426013 $267 -32.739804369200499 $263 $385 forward 7 unknown #
edge $-1 $268 -14.241472955052753 $384 0 $159 $386 forward 7 unknown #
coedge $-1 $160 $376 $382 $387 forward $256 $-1 #
vertex $-1 $264 $388 #
vertex $-1 $161 $389 #
straight-curve $-1 -49.296273744670877 -8.9554130865444108 10.443753180531061 1 0 0 I I #
coedge $-1 $270 $270 $-1 $390 reversed $164 $-1 #
edge $-1 $391 0 $391 6.2831853071796004 $165 $392 forward 7 unknown #
vertex $-1 $168 $393 #
ellipse-curve $-1 -42.462272803583993 -7.105143920222428 6.776302724418299 -0.51503808176128008 0 0.85716729658548041 0.4285836482927402 0 0.25751904088064004 1 I I #
coedge $-1 $274 $274 $-1 $394 reversed $171 $-1 #
edge $-1 $395 0 $395 6.2831853071796004 $172 $396 forward 7 unknown #
vertex $-1 $175 $397 #
ellipse-curve $-1 -42.462272803583993 -4.3297401707394521 6.776302724418299 -0.51503808176128008 0 0.85716729658548041 0.4285836482927402 0 0.25751904088064004 1 I I #
face $-1 $-1 $398 $38 $-1 $399 reversed single #
loop $-1 $-1 $182 $176 #
plane-surface $-1 0 0 10.443753180531058 0 0 1 1 0 0 forward_v I I I I #
coedge $-1 $400 $401 $402 $403 reversed $177 $-1 #
coedge $-1 $404 $179 $181 $288 forward $111 $-1 #
coedge $-1 $179 $404 $400 $405 forward $111 $-1 #
coedge $-1 $402 $182 $179 $285 forward $279 $-1 #
edge $-1 $291 -0.47694980482073213 $406 5.9989922773062094 $284 $407 forward 7 unknown #
coedge $-1 $408 $409 $180 $287 forward $398 $-1 #
edge $-1 $410 -40.074705281426013 $290 -32.739804369200499 $286 $411 forward 7 unknown #
edge $-1 $291 -14.241472955052753 $410 0 $181 $412 forward 7 unknown #
coedge $-1 $182 $402 $408 $413 forward $279 $-1 #
vertex $-1 $183 $414 #
vertex $-1 $183 $415 #
straight-curve $-1 -49.296273744670877 2.2840714314220065 10.443753180531061 1 0 0 I I #
coedge $-1 $293 $293 $-1 $416 reversed $186 $-1 #
edge $-1 $417 0 $417 6.2831853071796004 $187 $418 forward 7 unknown #
vertex $-1 $190 $419 #
ellipse-curve $-1 -42.462272803583993 4.1343405977439893 6.776302724418299 -0.51503808176128008 0 0.85716729658548041 0.4285836482927402 0 0.25751904088064004 1 I I #
coedge $-1 $297 $297 $-1 $420 reversed $193 $-1 #
edge $-1 $421 0 $421 6.2831853071796004 $194 $422 forward 7 unknown #
vertex $-1 $197 $423 #
ellipse-curve $-1 -42.462272803583993 6.9097443472269653 6.776302724418299 -0.51503808176128008 0 0.85716729658548041 0.4285836482927402 0 0.25751904088064004 1 I I #
face $-1 $-1 $424 $41 $-1 $425 reversed single #
loop $-1 $-1 $204 $198 #
plane-surface $-1 0 0 10.443753180531058 0 0 1 1 0 0 forward_v I I I I #
coedge $-1 $426 $427 $428 $429 reversed $199 $-1 #
coedge $-1 $430 $201 $203 $311 forward $125 $-1 #
coedge $-1 $201 $430 $426 $431 forward $125 $-1 #
coedge $-1 $428 $204 $201 $308 forward $302 $-1 #
edge $-1 $314 5.1427924541624765 $432 11.618734536289418 $307 $433 forward 7 unknown #
coedge $-1 $434 $435 $202 $310 forward $424 $-1 #
edge $-1 $436 -40.074705281426013 $313 -32.739804369200499 $309 $437 forward 7 unknown #
edge $-1 $314 -14.241472955052753 $436 0 $203 $438 forward 7 unknown #
coedge $-1 $204 $428 $434 $439 forward $302 $-1 #
vertex $-1 $205 $440 #
vertex $-1 $205 $441 #
straight-curve $-1 -49.296273744670877 13.523555949388424 10.443753180531061 1 0 0 I I #
coedge $-1 $316 $316 $-1 $442 reversed $208 $-1 #
edge $-1 $443 0 $443 6.2831853071796004 $209 $444 forward 7 unknown #
vertex $-1 $212 $445 #
ellipse-curve $-1 -42.462272803583993 15.373825115710407 6.776302724418299 -0.51503808176128008 0 0.85716729658548041 0.4285836482927402 0 0.25751904088064004 1 I I #
coedge $-1 $320 $320 $-1 $446 reversed $215 $-1 #
edge $-1 $447 0 $447 6.2831853071796004 $216 $448 forward 7 unknown #
vertex $-1 $219 $449 #
ellipse-curve $-1 -42.462272803583993 18.149228865193383 6.776302724418299 -0.51503808176128008 0 0.85716729658548041 0.4285836482927402 0 0.25751904088064004 1 I I #
face $-1 $-1 $235 $33 $-1 $450 reversed single #
loop $-1 $-1 $340 $220 #
plane-surface $-1 0 22.31302882390467 0 0 -1 0 0 0 -1 forward_v I I I I #
coedge $-1 $451 $338 $341 $452 forward $221 $-1 #
coedge $-1 $344 $223 $224 $332 reversed $139 $-1 #
coedge $-1 $338 $451 $223 $330 reversed $221 $-1 #
edge $-1 $345 -10.443753180531058 $453 10.443753180531058 $329 $454 forward 7 unknown #
coedge $-1 $225 $224 $451 $455 forward $89 $-1 #
edge $-1 $336 -48.56593523972289 $453 48.56593523972289 $328 $456 forward 7 unknown #
coedge $-1 $341 $340 $225 $334 reversed $325 $-1 #
edge $-1 $457 -48.56593523972289 $335 48.56593523972289 $333 $458 forward 7 unknown #
vertex $-1 $227 $459 #
vertex $-1 $347 $460 #
straight-curve $-1 48.56593523972289 0 -10.443753180531058 0 -1 0 I I #
coedge $-1 $327 $329 $228 $339 reversed $221 $-1 #
edge $-1 $342 -22.31302882390467 $345 22.31302882390467 $338 $461 forward 7 unknown #
coedge $-1 $333 $229 $234 $348 forward $325 $-1 #
coedge $-1 $229 $333 $327 $452 reversed $325 $-1 #
vertex $-1 $230 $462 #
straight-curve $-1 0 22.31302882390467 10.443753180531058 -1 0 0 I I #
coedge $-1 $231 $328 $233 $347 reversed $139 $-1 #
vertex $-1 $339 $463 #
straight-curve $-1 0 -22.31302882390467 10.443753180531058 1 0 0 I I #
edge $-1 $236 -10.443753180531058 $336 10.443753180531058 $233 $464 forward 7 unknown #
edge $-1 $237 -10.443753180531058 $335 10.443753180531058 $234 $465 forward 7 unknown #
point $-1 48.56593523972289 -22.31302882390467 10.443753180531058 #
point $-1 48.56593523972289 22.31302882390467 10.443753180531058 #
face $-1 $-1 $365 $34 $-1 $466 reversed single #
loop $-1 $-1 $467 $239 #
plane-surface $-1 0 -33.220632917814754 8.9437531805310577 0 1 0 0 0 1 forward_v I I I I #
coedge $-1 $468 $242 $251 $369 reversed $147 $-1 #
coedge $-1 $242 $468 $243 $357 reversed $147 $-1 #
coedge $-1 $244 $243 $469 $470 forward $93 $-1 #
edge $-1 $361 22.31302882390467 $471 33.220632917814754 $355 $472 forward 7 unknown #
coedge $-1 $473 $248 $244 $359 reversed $365 $-1 #
edge $-1 $474 -33.220632917814754 $360 -22.31302882390467 $358 $475 forward 7 unknown #
vertex $-1 $249 $476 #
vertex $-1 $357 $477 #
straight-curve $-1 0 -22.31302882390467 10.443753180531058 -1 0 0 I I #
straight-curve $-1 -48.56593523972289 -22.31302882390467 0 0 0 -1 I I #
coedge $-1 $248 $473 $250 $368 reversed $365 $-1 #
loop $-1 $-1 $248 $351 #
straight-curve $-1 48.56593523972289 -22.31302882390467 0 0 0 1 I I #
coedge $-1 $251 $250 $478 $479 forward $240 $-1 #
edge $-1 $252 -5.4538020469550403 $480 5.4538020469550439 $364 $481 forward 7 unknown #
edge $-1 $482 -5.4538020469550439 $253 5.4538020469550403 $354 $483 forward 7 unknown #
point $-1 48.56593523972289 -22.31302882390467 7.4437531805310577 #
point $-1 -48.56593523972289 -22.31302882390467 7.4437531805310577 #
loop $-1 $-1 $263 $255 #
plane-surface $-1 -48.56593523972289 0 0 1 0 0 0 0 -1 forward_v I I I I #
coedge $-1 $375 $258 $260 $379 reversed $155 $-1 #
coedge $-1 $258 $374 $484 $485 reversed $155 $-1 #
coedge $-1 $266 $261 $258 $377 forward $256 $-1 #
edge $-1 $380 -12.937663377225789 $486 -0.73033850494798713 $376 $487 forward 7 unknown #
coedge $-1 $260 $259 $383 $488 reversed $97 $-1 #
edge $-1 $489 0 $380 14.241472955052753 $374 $490 forward 7 unknown #
vertex $-1 $262 $491 #
straight-curve $-1 -36.358610367445095 -2.85872102274047 10.443753180531058 0 1 0 I I #
coedge $-1 $484 $263 $266 $387 reversed $372 $-1 #
coedge $-1 $263 $484 $378 $488 forward $372 $-1 #
vertex $-1 $264 $492 #
straight-curve $-1 -48.56593523972289 -8.9554130865444108 43.183557549731553 0 0 1 I I #
straight-curve $-1 -48.56593523972289 -8.9554130865444108 3.1088522683055402 -0.85716729658548041 0 -0.51503808176128008 I I #
edge $-1 $486 2.4794710044174693 $267 8.9554130865444108 $382 $493 forward 7 unknown #
point $-1 -48.56593523972289 -8.9554130865444108 10.443753180531058 #
point $-1 -36.358610367445088 -8.9554130865444108 10.443753180531058 #
edge $-1 $494 1 $494 0 $270 $-1 forward 7 unknown #
vertex $-1 $271 $495 #
ellipse-curve $-1 -41.94723472182271 -7.105143920222428 5.9191354278328152 -0.51503808176128008 0 0.85716729658548041 0.4285836482927402 0 0.25751904088064004 1 I I #
point $-1 -42.033689155291249 -7.105143920222428 7.0338217652989359 #
edge $-1 $496 1 $496 0 $274 $-1 forward 7 unknown #
vertex $-1 $275 $497 #
ellipse-curve $-1 -41.94723472182271 -4.3297401707394521 5.9191354278328152 -0.51503808176128008 0 0.85716729658548041 0.4285836482927402 0 0.25751904088064004 1 I I #
point $-1 -42.033689155291249 -4.3297401707394521 7.0338217652989359 #
loop $-1 $-1 $286 $278 #
plane-surface $-1 -48.56593523972289 0 0 1 0 0 0 0 -1 forward_v I I I I #
coedge $-1 $401 $281 $283 $405 reversed $177 $-1 #
coedge $-1 $281 $400 $498 $499 reversed $177 $-1 #
coedge $-1 $289 $284 $281 $403 forward $279 $-1 #
edge $-1 $406 -12.937663377225789 $500 -0.73033850494798713 $402 $501 forward 7 unknown #
coedge $-1 $283 $282 $409 $502 reversed $111 $-1 #
edge $-1 $503 0 $406 14.241472955052753 $400 $504 forward 7 unknown #
vertex $-1 $285 $505 #
straight-curve $-1 -36.358610367445095 2.7610212362427387 10.443753180531058 0 1 0 I I #
coedge $-1 $498 $286 $289 $413 reversed $398 $-1 #
coedge $-1 $286 $498 $404 $502 forward $398 $-1 #
vertex $-1 $287 $506 #
straight-curve $-1 -48.56593523972289 2.2840714314220065 43.183557549731553 0 0 1 I I #
straight-curve $-1 -48.56593523972289 2.2840714314220065 3.1088522683055402 -0.85716729658548041 0 -0.51503808176128008 I I #
edge $-1 $500 -8.7600135135489481 $290 -2.2840714314220065 $408 $507 forward 7 unknown #
point $-1 -48.56593523972289 2.2840714314220065 10.443753180531058 #
point $-1 -36.358610367445088 2.2840714314220065 10.443753180531058 #
edge $-1 $508 1 $508 0 $293 $-1 forward 7 unknown #
vertex $-1 $294 $509 #
ellipse-curve $-1 -41.94723472182271 4.1343405977439893 5.9191354278328152 -0.51503808176128008 0 0.85716729658548041 0.4285836482927402 0 0.25751904088064004 1 I I #
point $-1 -42.033689155291249 4.1343405977439893 7.0338217652989359 #
edge $-1 $510 1 $510 0 $297 $-1 forward 7 unknown #
vertex $-1 $298 $511 #
ellipse-curve $-1 -41.94723472182271 6.9097443472269653 5.9191354278328152 -0.51503808176128008 0 0.85716729658548041 0.4285836482927402 0 0.25751904088064004 1 I I #
point $-1 -42.033689155291249 6.9097443472269653 7.0338217652989359 #
loop $-1 $-1 $309 $301 #
plane-surface $-1 -48.56593523972289 0 0 1 0 0 0 0 -1 forward_v I I I I #
coedge $-1 $427 $304 $306 $431 reversed $199 $-1 #
coedge $-1 $304 $426 $512 $513 reversed $199 $-1 #
coedge $-1 $312 $307 $304 $429 forward $302 $-1 #
edge $-1 $432 -12.937663377225789 $514 -0.73033850494798713 $428 $515 forward 7 unknown #
coedge $-1 $306 $305 $435 $516 reversed $125 $-1 #
edge $-1 $517 0 $432 14.241472955052753 $426 $518 forward 7 unknown #
vertex $-1 $308 $519 #
straight-curve $-1 -36.358610367445095 8.3807634952259473 10.443753180531058 0 1 0 I I #
coedge $-1 $512 $309 $312 $439 reversed $424 $-1 #
coedge $-1 $309 $512 $430 $516 forward $424 $-1 #
vertex $-1 $310 $520 #
straight-curve $-1 -48.56593523972289 13.523555949388424 43.183557549731553 0 0 1 I I #
straight-curve $-1 -48.56593523972289 13.523555949388424 3.1088522683055402 -0.85716729658548041 0 -0.51503808176128008 I I #
edge $-1 $514 -19.999498031515365 $313 -13.523555949388424 $434 $521 forward 7 unknown #
point $-1 -48.56593523972289 13.523555949388424 10.443753180531058 #
point $-1 -36.358610367445088 13.523555949388424 10.443753180531058 #
edge $-1 $522 1 $522 0 $316 $-1 forward 7 unknown #
vertex $-1 $317 $523 #
ellipse-curve $-1 -41.94723472182271 15.373825115710407 5.9191354278328152 -0.51503808176128008 0 0.85716729658548041 0.4285836482927402 0 0.25751904088064004 1 I I #
point $-1 -42.033689155291249 15.373825115710407 7.0338217652989359 #
edge $-1 $524 1 $524 0 $320 $-1 forward 7 unknown #
vertex $-1 $321 $525 #
ellipse-curve $-1 -41.94723472182271 18.149228865193383 5.9191354278328152 -0.51503808176128008 0 0.85716729658548041 0.4285836482927402 0 0.25751904088064004 1 I I #
point $-1 -42.033689155291249 18.149228865193383 7.0338217652989359 #
plane-surface $-1 48.56593523972289 0 0 -1 0 0 0 0 1 forward_v I I I I #
coedge $-1 $329 $327 $331 $455 reversed $221 $-1 #
edge $-1 $342 -10.443753180531058 $457 10.443753180531058 $341 $526 forward 7 unknown #
vertex $-1 $455 $527 #
straight-curve $-1 -48.56593523972289 -22.31302882390467 0 0 0 -1 I I #
edge $-1 $453 -22.31302882390467 $457 22.31302882390467 $451 $528 forward 7 unknown #
straight-curve $-1 0 -22.31302882390467 -10.443753180531058 -1 0 0 I I #
vertex $-1 $334 $529 #
straight-curve $-1 0 22.31302882390467 -10.443753180531058 1 0 0 I I #
point $-1 48.56593523972289 22.31302882390467 -10.443753180531058 #
point $-1 48.56593523972289 -22.31302882390467 -10.443753180531058 #
straight-curve $-1 -48.56593523972289 0 10.443753180531058 0 -1 0 I I #
point $-1 -48.56593523972289 22.31302882390467 10.443753180531058 #
point $-1 -48.56593523972289 -22.31302882390467 10.443753180531058 #
straight-curve $-1 48.56593523972289 -22.31302882390467 0 0 0 -1 I I #
straight-curve $-1 48.56593523972289 22.31302882390467 0 0 0 -1 I I #
plane-surface $-1 48.56593523972289 0 0 -1 0 0 0 0 1 forward_v I I I I #
coedge $-1 $478 $469 $468 $530 forward $352 $-1 #
coedge $-1 $355 $354 $467 $530 reversed $147 $-1 #
coedge $-1 $467 $531 $356 $470 reversed $352 $-1 #
edge $-1 $471 -48.56593523972289 $474 48.56593523972289 $469 $532 forward 7 unknown #
vertex $-1 $357 $533 #
straight-curve $-1 -48.56593523972289 0 10.443753180531058 0 -1 0 I I #
coedge $-1 $364 $358 $531 $534 forward $365 $-1 #
vertex $-1 $359 $535 #
straight-curve $-1 48.56593523972289 0 10.443753180531058 0 1 0 I I #
point $-1 48.56593523972289 -22.31302882390467 10.443753180531058 #
point $-1 -48.56593523972289 -22.31302882390467 10.443753180531058 #
coedge $-1 $531 $467 $367 $479 reversed $352 $-1 #
edge $-1 $480 -48.56593523972289 $482 48.56593523972289 $478 $536 forward 7 unknown #
vertex $-1 $534 $537 #
straight-curve $-1 48.56593523972289 -27.76683087085971 7.4437531805310577 0 -1 0 I I #
vertex $-1 $369 $538 #
straight-curve $-1 -48.56593523972289 -27.76683087085971 7.4437531805310577 0 1 0 I I #
coedge $-1 $383 $382 $375 $485 forward $372 $-1 #
edge $-1 $486 32.739804369200499 $489 40.074705281426013 $484 $539 forward 7 unknown #
vertex $-1 $387 $540 #
straight-curve $-1 -49.296273744670877 -2.4794710044174693 10.443753180531061 -1 0 0 I I #
edge $-1 $489 -0.37925001832300076 $384 6.0966920638039408 $383 $541 forward 7 unknown #
vertex $-1 $488 $542 #
straight-curve $-1 -48.56593523972289 -2.4794710044174693 3.1088522683055402 0.85716729658548041 0 0.51503808176128008 I I #
point $-1 -36.358610367445088 -2.4794710044174693 10.443753180531058 #
point $-1 -48.56593523972289 -8.9554130865444108 3.1088522683055402 #
straight-curve $-1 -48.56593523972289 0 10.443753180531058 0 -1 0 I I #
vertex $-1 $390 $543 #
point $-1 -41.518651073529973 -7.105143920222428 6.1766544687134557 #
vertex $-1 $394 $544 #
point $-1 -41.518651073529973 -4.3297401707394521 6.1766544687134557 #
coedge $-1 $409 $408 $401 $499 forward $398 $-1 #
edge $-1 $500 32.739804369200499 $503 40.074705281426013 $498 $545 forward 7 unknown #
vertex $-1 $413 $546 #
straight-curve $-1 -49.296273744670877 8.7600135135489481 10.443753180531061 -1 0 0 I I #
edge $-1 $503 -5.9989922773062094 $410 0.47694980482073213 $409 $547 forward 7 unknown #
vertex $-1 $502 $548 #
straight-curve $-1 -48.56593523972289 8.7600135135489481 3.1088522683055402 0.85716729658548041 0 0.51503808176128008 I I #
point $-1 -36.358610367445088 8.7600135135489481 10.443753180531058 #
point $-1 -48.56593523972289 2.2840714314220065 3.1088522683055402 #
straight-curve $-1 -48.56593523972289 0 10.443753180531058 0 -1 0 I I #
vertex $-1 $416 $549 #
point $-1 -41.518651073529973 4.1343405977439893 6.1766544687134557 #
vertex $-1 $420 $550 #
point $-1 -41.518651073529973 6.9097443472269653 6.1766544687134557 #
coedge $-1 $435 $434 $427 $513 forward $424 $-1 #
edge $-1 $514 32.739804369200499 $517 40.074705281426013 $512 $551 forward 7 unknown #
vertex $-1 $439 $552 #
straight-curve $-1 -49.296273744670877 19.999498031515365 10.443753180531061 -1 0 0 I I #
edge $-1 $517 -11.618734536289418 $436 -5.1427924541624765 $435 $553 forward 7 unknown #
vertex $-1 $516 $554 #
straight-curve $-1 -48.56593523972289 19.999498031515365 3.1088522683055402 0.85716729658548041 0 0.51503808176128008 I I #
point $-1 -36.358610367445088 19.999498031515365 10.443753180531058 #
point $-1 -48.56593523972289 13.523555949388424 3.1088522683055402 #
straight-curve $-1 -48.56593523972289 0 10.443753180531058 0 -1 0 I I #
vertex $-1 $442 $555 #
point $-1 -41.518651073529973 15.373825115710407 6.1766544687134557 #
vertex $-1 $446 $556 #
point $-1 -41.518651073529973 18.149228865193383 6.1766544687134557 #
straight-curve $-1 -48.56593523972289 22.31302882390467 0 0 0 -1 I I #
point $-1 -48.56593523972289 -22.31302882390467 -10.443753180531058 #
straight-curve $-1 -48.56593523972289 0 -10.443753180531058 0 1 0 I I #
point $-1 -48.56593523972289 22.31302882390467 -10.443753180531058 #
edge $-1 $471 -1.5 $482 1.5 $468 $557 forward 7 unknown #
coedge $-1 $469 $478 $473 $534 reversed $352 $-1 #
straight-curve $-1 0 -33.220632917814754 10.443753180531058 1 0 0 I I #
point $-1 -48.56593523972289 -33.220632917814754 10.443753180531058 #
edge $-1 $474 -1.5 $480 1.5 $473 $558 forward 7 unknown #
point $-1 48.56593523972289 -33.220632917814754 10.443753180531058 #
straight-curve $-1 0 -33.220632917814754 7.4437531805310577 -1 0 0 I I #
point $-1 48.56593523972289 -33.220632917814754 7.4437531805310577 #
point $-1 -48.56593523972289 -33.220632917814754 7.4437531805310577 #
straight-curve $-1 -48.56593523972289 -2.4794710044174693 43.183557549731553 0 0 -1 I I #
point $-1 -48.56593523972289 -2.4794710044174693 10.443753180531058 #
straight-curve $-1 -48.56593523972289 -2.85872102274047 3.1088522683055402 0 -1 0 I I #
point $-1 -48.56593523972289 -2.4794710044174693 3.1088522683055402 #
point $-1 -41.689715680942072 -7.105143920222428 5.4905517795400751 #
point $-1 -41.689715680942072 -4.3297401707394521 5.4905517795400751 #
straight-curve $-1 -48.56593523972289 8.7600135135489481 43.183557549731553 0 0 -1 I I #
point $-1 -48.56593523972289 8.7600135135489481 10.443753180531058 #
straight-curve $-1 -48.56593523972289 2.7610212362427387 3.1088522683055402 0 -1 0 I I #
point $-1 -48.56593523972289 8.7600135135489481 3.1088522683055402 #
point $-1 -41.689715680942072 4.1343405977439893 5.4905517795400751 #
point $-1 -41.689715680942072 6.9097443472269653 5.4905517795400751 #
straight-curve $-1 -48.56593523972289 19.999498031515365 43.183557549731553 0 0 -1 I I #
point $-1 -48.56593523972289 19.999498031515365 10.443753180531058 #
straight-curve $-1 -48.56593523972289 8.3807634952259473 3.1088522683055402 0 -1 0 I I #
point $-1 -48.56593523972289 19.999498031515365 3.1088522683055402 #
point $-1 -41.689715680942072 15.373825115710407 5.4905517795400751 #
point $-1 -41.689715680942072 18.149228865193383 5.4905517795400751 #
straight-curve $-1 -48.56593523972289 -33.220632917814754 8.9437531805310577 0 0 -1 I I #
straight-curve $-1 48.56593523972289 -33.220632917814754 8.9437531805310577 0 0 -1 I I #
End-of-ACIS-data 