500 0 12 0           
7 Unknown 11 ACIS 5.0 NT 24 Thu Mar 25 15:28:42 1999 
-1 9.9999999999999995e-007 1e-010 
body $-1 $12 $-1 $13 #
body $-1 $14 $-1 $15 #
body $-1 $16 $-1 $17 #
body $-1 $18 $-1 $19 #
body $-1 $20 $-1 $21 #
body $-1 $22 $-1 $23 #
body $-1 $24 $-1 $25 #
body $-1 $26 $-1 $27 #
body $-1 $28 $-1 $29 #
body $-1 $30 $-1 $31 #
body $-1 $32 $-1 $33 #
body $-1 $34 $-1 $35 #
lump $-1 $-1 $36 $0 #
transform $-1 1 0 0 0 1 0 0 0 1 59.17905209509567 36.277533732515906 16.031000860216391 1 rotate no_reflect no_shear #
lump $-1 $-1 $37 $1 #
transform $-1 1 0 0 0 1 0 0 0 1 59.17905209509567 36.277533732515906 16.031000860216391 1 rotate no_reflect no_shear #
lump $-1 $-1 $38 $2 #
transform $-1 1 0 0 0 1 0 0 0 1 59.17905209509567 36.277533732515906 16.031000860216391 1 rotate no_reflect no_shear #
lump $-1 $-1 $39 $3 #
transform $-1 1 0 0 0 1 0 0 0 1 59.17905209509567 36.277533732515906 16.031000860216391 1 rotate no_reflect no_shear #
lump $-1 $-1 $40 $4 #
transform $-1 1 0 0 0 1 0 0 0 1 59.17905209509567 36.277533732515906 16.031000860216391 1 rotate no_reflect no_shear #
lump $-1 $-1 $41 $5 #
transform $-1 1 0 0 0 1 0 0 0 1 59.17905209509567 36.277533732515906 16.031000860216391 1 rotate no_reflect no_shear #
lump $-1 $-1 $42 $6 #
transform $-1 1 0 0 0 1 0 0 0 1 59.17905209509567 36.277533732515906 16.031000860216391 1 rotate no_reflect no_shear #
lump $-1 $-1 $43 $7 #
transform $-1 1 0 0 0 1 0 0 0 1 59.17905209509567 36.277533732515906 16.031000860216391 1 rotate no_reflect no_shear #
lump $-1 $-1 $44 $8 #
transform $-1 1 0 0 0 1 0 0 0 1 59.17905209509567 36.277533732515906 16.031000860216391 1 rotate no_reflect no_shear #
lump $-1 $-1 $45 $9 #
transform $-1 1 0 0 0 1 0 0 0 1 59.17905209509567 36.277533732515906 16.031000860216391 1 rotate no_reflect no_shear #
lump $-1 $-1 $46 $10 #
transform $-1 1 0 0 0 1 0 0 0 1 59.17905209509567 36.277533732515906 16.031000860216391 1 rotate no_reflect no_shear #
lump $-1 $-1 $47 $11 #
transform $-1 1 0 0 0 1 0 0 0 1 59.17905209509567 36.277533732515906 16.031000860216391 1 rotate no_reflect no_shear #
shell $-1 $-1 $-1 $48 $-1 $12 #
shell $-1 $-1 $-1 $49 $-1 $14 #
shell $-1 $-1 $-1 $50 $-1 $16 #
shell $-1 $-1 $-1 $51 $-1 $18 #
shell $-1 $-1 $-1 $52 $-1 $20 #
shell $-1 $-1 $-1 $53 $-1 $22 #
shell $-1 $-1 $-1 $54 $-1 $24 #
shell $-1 $-1 $-1 $55 $-1 $26 #
shell $-1 $-1 $-1 $56 $-1 $28 #
shell $-1 $-1 $-1 $57 $-1 $30 #
shell $-1 $-1 $-1 $58 $-1 $32 #
shell $-1 $-1 $-1 $59 $-1 $34 #
face $-1 $60 $61 $36 $-1 $62 forward single #
face $-1 $63 $64 $37 $-1 $65 reversed single #
face $-1 $66 $67 $38 $-1 $68 forward single #
face $-1 $69 $70 $39 $-1 $71 forward single #
face $-1 $72 $73 $40 $-1 $74 reversed single #
face $-1 $75 $76 $41 $-1 $77 forward single #
face $-1 $78 $79 $42 $-1 $80 reversed single #
face $-1 $81 $82 $43 $-1 $83 forward single #
face $-1 $84 $85 $44 $-1 $86 reversed single #
face $-1 $87 $88 $45 $-1 $89 forward single #
face $-1 $90 $91 $46 $-1 $92 reversed single #
face $-1 $93 $94 $47 $-1 $95 forward single #
face $-1 $96 $97 $36 $-1 $98 reversed single #
loop $-1 $-1 $99 $48 #
plane-surface $-1 0 0 16.031000860216391 0 0 1 1 0 0 forward_v I I I I #
face $-1 $100 $101 $37 $-1 $102 reversed single #
loop $-1 $-1 $103 $49 #
plane-surface $-1 -148.50504820545837 -30.696854767370262 84.541812693288847 0 1 0 -0.75470958851134928 0 0.65605901945558964 forward_v I I I I #
face $-1 $104 $105 $38 $-1 $106 forward single #
loop $-1 $107 $108 $50 #
cone-surface $-1 -53.844727793526935 -25.182873353099126 10.277418219964753 0.75470958851134928 0 -0.65605901945558964 1.3121180389111793 0 1.5094191770226986 1 I I 0 1 2 forward I I I I #
face $-1 $109 $110 $39 $-1 $111 forward single #
loop $-1 $112 $113 $51 #
cone-surface $-1 -53.844727793526935 -16.911901231692426 10.277418219964753 0.75470958851134928 0 -0.65605901945558964 1.3121180389111793 0 1.5094191770226986 1 I I 0 1 2 forward I I I I #
face $-1 $114 $115 $40 $-1 $116 reversed single #
loop $-1 $-1 $117 $52 #
plane-surface $-1 44.590608681267895 -24.182850973046108 172.77641714057032 0 -1 0 -0.64278761758704617 0 -0.76604443648966558 forward_v I I I I #
face $-1 $118 $119 $41 $-1 $120 forward single #
loop $-1 $121 $122 $53 #
cone-surface $-1 52.294783046805193 -29.227102151886371 9.9282993676117108 -0.64278761758704617 0 -0.76604443648966558 1.5320888729793312 0 -1.2855752351740923 1 I I 0 1 2 forward I I I I #
face $-1 $123 $124 $42 $-1 $125 reversed single #
loop $-1 $-1 $126 $54 #
plane-surface $-1 44.590608681267895 -6.0440841067881541 172.77641714057032 0 -1 0 -0.64278761758704617 0 -0.76604443648966558 forward_v I I I I #
face $-1 $127 $128 $43 $-1 $129 forward single #
loop $-1 $130 $131 $55 #
cone-surface $-1 52.294783046805193 -11.088335285628418 9.9282993676117108 -0.64278761758704617 0 -0.76604443648966558 1.5320888729793312 0 -1.2855752351740923 1 I I 0 1 2 forward I I I I #
face $-1 $132 $133 $44 $-1 $134 reversed single #
loop $-1 $-1 $135 $56 #
plane-surface $-1 44.590608681267895 12.094682759469801 172.77641714057032 0 -1 0 -0.64278761758704617 0 -0.76604443648966558 forward_v I I I I #
face $-1 $136 $137 $45 $-1 $138 forward single #
loop $-1 $139 $140 $57 #
cone-surface $-1 52.294783046805193 7.0504315806295352 9.9282993676117108 -0.64278761758704617 0 -0.76604443648966558 1.5320888729793312 0 -1.2855752351740923 1 I I 0 1 2 forward I I I I #
face $-1 $141 $142 $46 $-1 $143 reversed single #
loop $-1 $-1 $144 $58 #
plane-surface $-1 44.590608681267895 30.233449625727754 172.77641714057032 0 -1 0 -0.64278761758704617 0 -0.76604443648966558 forward_v I I I I #
face $-1 $145 $146 $47 $-1 $147 forward single #
loop $-1 $148 $149 $59 #
cone-surface $-1 52.294783046805193 25.189198446887488 9.9282993676117108 -0.64278761758704617 0 -0.76604443648966558 1.5320888729793312 0 -1.2855752351740923 1 I I 0 1 2 forward I I I I #
face $-1 $150 $151 $36 $-1 $152 reversed single #
loop $-1 $-1 $153 $60 #
plane-surface $-1 0 0 -16.031000860216391 0 0 1 1 0 0 forward_v I I I I #
coedge $-1 $154 $155 $156 $157 forward $61 $-1 #
face $-1 $158 $159 $37 $-1 $160 reversed single #
loop $-1 $-1 $161 $63 #
plane-surface $-1 -59.179052095095656 -21.047387292395779 6.8919109136493972 -0.75470958851134928 0 0.65605901945558964 0.65605901945558964 0 0.75470958851134928 forward_v I I I I #
coedge $-1 $162 $163 $164 $165 reversed $64 $-1 #
face $-1 $-1 $166 $38 $-1 $167 forward single #
loop $-1 $168 $169 $66 #
cone-surface $-1 -51.727938645220803 -25.182873353099126 8.4373215335410201 0.75470958851134928 0 -0.65605901945558964 0.65605901945558964 0 0.75470958851134928 1 I I -0.70710678118654746 0.70710678118654746 1 forward I I I I #
loop $-1 $-1 $170 $50 #
coedge $-1 $108 $108 $171 $172 reversed $67 $-1 #
face $-1 $-1 $173 $39 $-1 $174 forward single #
loop $-1 $175 $176 $69 #
cone-surface $-1 -51.727938645220803 -16.911901231692426 8.4373215335410201 0.75470958851134928 0 -0.65605901945558964 0.65605901945558964 0 0.75470958851134928 1 I I -0.70710678118654746 0.70710678118654746 1 forward I I I I #
loop $-1 $-1 $177 $51 #
coedge $-1 $113 $113 $178 $179 reversed $70 $-1 #
face $-1 $180 $181 $40 $-1 $182 reversed single #
loop $-1 $-1 $183 $72 #
plane-surface $-1 -31.488515133264585 -29.227102151886374 82.108849912210061 0.64278761758704617 0 0.76604443648966558 0.76604443648966558 0 -0.64278761758704617 forward_v I I I I #
coedge $-1 $184 $185 $186 $187 reversed $73 $-1 #
face $-1 $-1 $188 $41 $-1 $189 forward single #
loop $-1 $190 $191 $75 #
cone-surface $-1 50.727253820494326 -29.227102151886371 8.0601908197867722 -0.64278761758704617 0 -0.76604443648966558 0.76604443648966558 0 -0.64278761758704617 1 I I -0.70710678118654746 0.70710678118654746 1 forward I I I I #
loop $-1 $-1 $192 $53 #
coedge $-1 $122 $122 $193 $194 reversed $76 $-1 #
face $-1 $195 $196 $42 $-1 $197 reversed single #
loop $-1 $-1 $198 $78 #
plane-surface $-1 -31.488515133264585 -11.088335285628421 82.108849912210061 0.64278761758704617 0 0.76604443648966558 0.76604443648966558 0 -0.64278761758704617 forward_v I I I I #
coedge $-1 $199 $200 $201 $202 reversed $79 $-1 #
face $-1 $-1 $203 $43 $-1 $204 forward single #
loop $-1 $205 $206 $81 #
cone-surface $-1 50.727253820494326 -11.088335285628418 8.0601908197867722 -0.64278761758704617 0 -0.76604443648966558 0.76604443648966558 0 -0.64278761758704617 1 I I -0.70710678118654746 0.70710678118654746 1 forward I I I I #
loop $-1 $-1 $207 $55 #
coedge $-1 $131 $131 $208 $209 reversed $82 $-1 #
face $-1 $210 $211 $44 $-1 $212 reversed single #
loop $-1 $-1 $213 $84 #
plane-surface $-1 -31.488515133264585 7.0504315806295352 82.108849912210061 0.64278761758704617 0 0.76604443648966558 0.76604443648966558 0 -0.64278761758704617 forward_v I I I I #
coedge $-1 $214 $215 $216 $217 reversed $85 $-1 #
face $-1 $-1 $218 $45 $-1 $219 forward single #
loop $-1 $220 $221 $87 #
cone-surface $-1 50.727253820494326 7.0504315806295352 8.0601908197867722 -0.64278761758704617 0 -0.76604443648966558 0.76604443648966558 0 -0.64278761758704617 1 I I -0.70710678118654746 0.70710678118654746 1 forward I I I I #
loop $-1 $-1 $222 $57 #
coedge $-1 $140 $140 $223 $224 reversed $88 $-1 #
face $-1 $225 $226 $46 $-1 $227 reversed single #
loop $-1 $-1 $228 $90 #
plane-surface $-1 -31.488515133264585 25.189198446887488 82.108849912210061 0.64278761758704617 0 0.76604443648966558 0.76604443648966558 0 -0.64278761758704617 forward_v I I I I #
coedge $-1 $229 $230 $231 $232 reversed $91 $-1 #
face $-1 $-1 $233 $47 $-1 $234 forward single #
loop $-1 $235 $236 $93 #
cone-surface $-1 50.727253820494326 25.189198446887488 8.0601908197867722 -0.64278761758704617 0 -0.76604443648966558 0.76604443648966558 0 -0.64278761758704617 1 I I -0.70710678118654746 0.70710678118654746 1 forward I I I I #
loop $-1 $-1 $237 $59 #
coedge $-1 $149 $149 $238 $239 reversed $94 $-1 #
face $-1 $240 $241 $36 $-1 $242 reversed single #
loop $-1 $-1 $243 $96 #
plane-surface $-1 0 -36.277533732515906 0 0 1 0 0 0 1 forward_v I I I I #
coedge $-1 $244 $245 $246 $247 forward $97 $-1 #
coedge $-1 $248 $99 $249 $250 forward $61 $-1 #
coedge $-1 $99 $248 $251 $252 forward $61 $-1 #
coedge $-1 $253 $254 $99 $157 reversed $255 $-1 #
edge $-1 $256 -36.277533732515906 $257 36.277533732515906 $156 $258 forward 7 unknown #
face $-1 $259 $260 $37 $-1 $261 reversed single #
loop $-1 $-1 $262 $100 #
plane-surface $-1 -148.50504820545837 -11.397919817421297 84.541812693288847 0 -1 0 0.75470958851134928 0 -0.65605901945558964 forward_v I I I I #
coedge $-1 $263 $264 $265 $266 reversed $101 $-1 #
coedge $-1 $163 $103 $267 $268 reversed $64 $-1 #
coedge $-1 $103 $162 $263 $269 reversed $64 $-1 #
coedge $-1 $265 $270 $103 $165 forward $271 $-1 #
edge $-1 $272 15.073472007633512 $273 23.017961491181431 $164 $274 forward 7 unknown #
loop $-1 $-1 $171 $104 #
plane-surface $-1 -59.179052095095656 -21.047387292395779 6.8919109136493972 -0.75470958851134928 0 0.65605901945558964 0.65605901945558964 0 0.75470958851134928 forward_v I I I I #
loop $-1 $-1 $275 $66 #
coedge $-1 $169 $169 $170 $276 reversed $105 $-1 #
coedge $-1 $170 $170 $169 $276 forward $107 $-1 #
coedge $-1 $171 $171 $108 $172 forward $166 $-1 #
edge $-1 $277 0 $277 6.2831853071796004 $171 $278 forward 7 unknown #
loop $-1 $-1 $178 $109 #
plane-surface $-1 -59.179052095095656 -21.047387292395779 6.8919109136493972 -0.75470958851134928 0 0.65605901945558964 0.65605901945558964 0 0.75470958851134928 forward_v I I I I #
loop $-1 $-1 $279 $69 #
coedge $-1 $176 $176 $177 $280 reversed $110 $-1 #
coedge $-1 $177 $177 $176 $280 forward $112 $-1 #
coedge $-1 $178 $178 $113 $179 forward $173 $-1 #
edge $-1 $281 0 $281 6.2831853071796004 $178 $282 forward 7 unknown #
face $-1 $283 $284 $40 $-1 $285 forward single #
loop $-1 $-1 $286 $114 #
plane-surface $-1 44.590608681267895 -34.27135333072664 172.77641714057032 0 1 0 0.64278761758704617 0 0.76604443648966558 forward_v I I I I #
coedge $-1 $287 $288 $289 $290 reversed $115 $-1 #
coedge $-1 $185 $117 $291 $292 reversed $73 $-1 #
coedge $-1 $117 $184 $287 $293 reversed $73 $-1 #
coedge $-1 $289 $294 $117 $187 forward $284 $-1 #
edge $-1 $295 -36.883747754461723 $296 -24.96469287532841 $186 $297 forward 7 unknown #
loop $-1 $-1 $193 $118 #
plane-surface $-1 -31.488515133264585 -29.227102151886374 82.108849912210061 0.64278761758704617 0 0.76604443648966558 0.76604443648966558 0 -0.64278761758704617 forward_v I I I I #
loop $-1 $-1 $298 $75 #
coedge $-1 $191 $191 $192 $299 reversed $119 $-1 #
coedge $-1 $192 $192 $191 $299 forward $121 $-1 #
coedge $-1 $193 $193 $122 $194 forward $188 $-1 #
edge $-1 $300 0 $300 6.2831853071796004 $193 $301 forward 7 unknown #
face $-1 $302 $303 $42 $-1 $304 reversed single #
loop $-1 $-1 $305 $123 #
plane-surface $-1 44.590608681267895 -16.132586464468687 172.77641714057032 0 1 0 0.64278761758704617 0 0.76604443648966558 forward_v I I I I #
coedge $-1 $306 $307 $308 $309 reversed $124 $-1 #
coedge $-1 $200 $126 $310 $311 reversed $79 $-1 #
coedge $-1 $126 $199 $306 $312 reversed $79 $-1 #
coedge $-1 $308 $313 $126 $202 forward $314 $-1 #
edge $-1 $315 -36.883747754461723 $316 -24.96469287532841 $201 $317 forward 7 unknown #
loop $-1 $-1 $208 $127 #
plane-surface $-1 -31.488515133264585 -11.088335285628421 82.108849912210061 0.64278761758704617 0 0.76604443648966558 0.76604443648966558 0 -0.64278761758704617 forward_v I I I I #
loop $-1 $-1 $318 $81 #
coedge $-1 $206 $206 $207 $319 reversed $128 $-1 #
coedge $-1 $207 $207 $206 $319 forward $130 $-1 #
coedge $-1 $208 $208 $131 $209 forward $203 $-1 #
edge $-1 $320 0 $320 6.2831853071796004 $208 $321 forward 7 unknown #
face $-1 $322 $323 $44 $-1 $324 reversed single #
loop $-1 $-1 $325 $132 #
plane-surface $-1 44.590608681267895 2.0061804017892682 172.77641714057032 0 1 0 0.64278761758704617 0 0.76604443648966558 forward_v I I I I #
coedge $-1 $326 $327 $328 $329 reversed $133 $-1 #
coedge $-1 $215 $135 $330 $331 reversed $85 $-1 #
coedge $-1 $135 $214 $326 $332 reversed $85 $-1 #
coedge $-1 $328 $333 $135 $217 forward $334 $-1 #
edge $-1 $335 -36.883747754461723 $336 -24.96469287532841 $216 $337 forward 7 unknown #
loop $-1 $-1 $223 $136 #
plane-surface $-1 -31.488515133264585 7.0504315806295352 82.108849912210061 0.64278761758704617 0 0.76604443648966558 0.76604443648966558 0 -0.64278761758704617 forward_v I I I I #
loop $-1 $-1 $338 $87 #
coedge $-1 $221 $221 $222 $339 reversed $137 $-1 #
coedge $-1 $222 $222 $221 $339 forward $139 $-1 #
coedge $-1 $223 $223 $140 $224 forward $218 $-1 #
edge $-1 $340 0 $340 6.2831853071796004 $223 $341 forward 7 unknown #
face $-1 $342 $343 $46 $-1 $344 reversed single #
loop $-1 $-1 $345 $141 #
plane-surface $-1 44.590608681267895 20.144947268047222 172.77641714057032 0 1 0 0.64278761758704617 0 0.76604443648966558 forward_v I I I I #
coedge $-1 $346 $347 $348 $349 reversed $142 $-1 #
coedge $-1 $230 $144 $350 $351 reversed $91 $-1 #
coedge $-1 $144 $229 $346 $352 reversed $91 $-1 #
coedge $-1 $348 $353 $144 $232 forward $354 $-1 #
edge $-1 $355 -36.883747754461723 $356 -24.96469287532841 $231 $357 forward 7 unknown #
loop $-1 $-1 $238 $145 #
plane-surface $-1 -31.488515133264585 25.189198446887488 82.108849912210061 0.64278761758704617 0 0.76604443648966558 0.76604443648966558 0 -0.64278761758704617 forward_v I I I I #
loop $-1 $-1 $358 $93 #
coedge $-1 $236 $236 $237 $359 reversed $146 $-1 #
coedge $-1 $237 $237 $236 $359 forward $148 $-1 #
coedge $-1 $238 $238 $149 $239 forward $233 $-1 #
edge $-1 $360 0 $360 6.2831853071796004 $238 $361 forward 7 unknown #
face $-1 $362 $363 $36 $-1 $364 reversed single #
loop $-1 $-1 $365 $150 #
plane-surface $-1 -59.17905209509567 0 0 1 0 0 0 0 -1 forward_v I I I I #
coedge $-1 $366 $251 $367 $368 forward $151 $-1 #
coedge $-1 $369 $153 $366 $370 forward $97 $-1 #
coedge $-1 $153 $369 $371 $372 forward $97 $-1 #
coedge $-1 $254 $253 $153 $247 reversed $255 $-1 #
edge $-1 $373 -36.277533732515906 $374 36.277533732515906 $246 $375 forward 7 unknown #
coedge $-1 $155 $154 $376 $377 forward $61 $-1 #
coedge $-1 $378 $379 $154 $250 reversed $363 $-1 #
edge $-1 $257 -59.17905209509567 $380 59.17905209509567 $249 $381 forward 7 unknown #
coedge $-1 $243 $382 $155 $252 reversed $151 $-1 #
edge $-1 $383 -59.17905209509567 $256 59.17905209509567 $251 $384 forward 7 unknown #
coedge $-1 $246 $156 $382 $385 forward $255 $-1 #
coedge $-1 $156 $246 $378 $386 reversed $255 $-1 #
loop $-1 $-1 $253 $362 #
vertex $-1 $157 $387 #
vertex $-1 $157 $388 #
straight-curve $-1 59.17905209509567 0 16.031000860216391 0 1 0 I I #
face $-1 $-1 $271 $37 $-1 $389 forward single #
loop $-1 $-1 $390 $158 #
plane-surface $-1 -59.17905209509567 0 0 1 0 0 0 0 -1 forward_v I I I I #
coedge $-1 $391 $392 $393 $394 reversed $159 $-1 #
coedge $-1 $395 $161 $163 $269 forward $101 $-1 #
coedge $-1 $161 $395 $391 $396 forward $101 $-1 #
coedge $-1 $393 $164 $161 $266 forward $271 $-1 #
edge $-1 $273 -20.17316112117237 $397 -0.87422617122340718 $265 $398 forward 7 unknown #
coedge $-1 $399 $400 $162 $268 forward $260 $-1 #
edge $-1 $401 -35.37899543299504 $272 -26.239905486428032 $267 $402 forward 7 unknown #
edge $-1 $273 -12.109412793593473 $401 2.1388861263899031e-014 $163 $403 forward 7 unknown #
coedge $-1 $164 $393 $399 $404 forward $271 $-1 #
loop $-1 $-1 $393 $259 #
vertex $-1 $268 $405 #
vertex $-1 $165 $406 #
straight-curve $-1 -74.252524102729183 -30.696854767370262 16.031000860216388 1 0 0 I I #
coedge $-1 $275 $275 $-1 $407 reversed $168 $-1 #
edge $-1 $408 0 $408 6.2831853071796004 $169 $409 forward 7 unknown #
vertex $-1 $172 $410 #
ellipse-curve $-1 -55.206807353321707 -25.182873353099126 11.461455886932889 -0.75470958851134928 0 0.65605901945558964 1.3121180389111793 0 1.5094191770226986 1 I I #
coedge $-1 $279 $279 $-1 $411 reversed $175 $-1 #
edge $-1 $412 0 $412 6.2831853071796004 $176 $413 forward 7 unknown #
vertex $-1 $179 $414 #
ellipse-curve $-1 -55.206807353321707 -16.911901231692426 11.461455886932889 -0.75470958851134928 0 0.65605901945558964 1.3121180389111793 0 1.5094191770226986 1 I I #
face $-1 $-1 $415 $40 $-1 $416 reversed single #
loop $-1 $-1 $186 $180 #
plane-surface $-1 0 0 16.031000860216391 0 0 1 1 0 0 forward_v I I I I #
coedge $-1 $417 $418 $419 $420 reversed $181 $-1 #
coedge $-1 $421 $183 $185 $293 forward $115 $-1 #
coedge $-1 $183 $421 $417 $422 forward $115 $-1 #
coedge $-1 $419 $186 $183 $290 forward $284 $-1 #
edge $-1 $296 9.5692998971029208 $423 19.657802254783455 $289 $424 forward 7 unknown #
coedge $-1 $425 $426 $184 $292 forward $415 $-1 #
edge $-1 $427 -80.358482472607577 $295 -70.357207710068764 $291 $428 forward 7 unknown #
edge $-1 $296 102.79888293437048 $427 118.35810419019134 $185 $429 forward 7 unknown #
coedge $-1 $186 $419 $425 $430 forward $284 $-1 #
vertex $-1 $292 $431 #
vertex $-1 $187 $432 #
straight-curve $-1 22.295304340633948 -24.182850973046108 16.031000860216395 -1 0 0 I I #
coedge $-1 $298 $298 $-1 $433 reversed $190 $-1 #
edge $-1 $434 0 $434 6.2831853071796004 $191 $435 forward 7 unknown #
vertex $-1 $194 $436 #
ellipse-curve $-1 53.219524655529014 -29.227102151886371 11.030363478946983 0.64278761758704617 0 0.76604443648966558 1.5320888729793312 0 -1.2855752351740923 1 I I #
face $-1 $-1 $314 $42 $-1 $437 forward single #
loop $-1 $-1 $438 $195 #
plane-surface $-1 59.17905209509567 0 0 -1 0 0 0 0 1 forward_v I I I I #
coedge $-1 $439 $440 $441 $442 reversed $196 $-1 #
coedge $-1 $443 $198 $200 $312 forward $124 $-1 #
coedge $-1 $198 $443 $439 $444 forward $124 $-1 #
coedge $-1 $441 $201 $198 $309 forward $314 $-1 #
edge $-1 $316 0.49991646397394351 $445 10.588418821654477 $308 $446 forward 7 unknown #
coedge $-1 $447 $448 $199 $311 forward $303 $-1 #
edge $-1 $449 -80.358482472607577 $315 -70.357207710068764 $310 $450 forward 7 unknown #
edge $-1 $316 102.79888293437048 $449 118.35810419019134 $200 $451 forward 7 unknown #
coedge $-1 $201 $441 $447 $452 forward $314 $-1 #
loop $-1 $-1 $441 $302 #
vertex $-1 $311 $453 #
vertex $-1 $202 $454 #
straight-curve $-1 22.295304340633948 -6.0440841067881541 16.031000860216395 -1 0 0 I I #
coedge $-1 $318 $318 $-1 $455 reversed $205 $-1 #
edge $-1 $456 0 $456 6.2831853071796004 $206 $457 forward 7 unknown #
vertex $-1 $209 $458 #
ellipse-curve $-1 53.219524655529014 -11.088335285628418 11.030363478946983 0.64278761758704617 0 0.76604443648966558 1.5320888729793312 0 -1.2855752351740923 1 I I #
face $-1 $-1 $334 $44 $-1 $459 forward single #
loop $-1 $-1 $460 $210 #
plane-surface $-1 59.17905209509567 0 0 -1 0 0 0 0 1 forward_v I I I I #
coedge $-1 $461 $462 $463 $464 reversed $211 $-1 #
coedge $-1 $465 $213 $215 $332 forward $133 $-1 #
coedge $-1 $213 $465 $461 $466 forward $133 $-1 #
coedge $-1 $463 $216 $213 $329 forward $334 $-1 #
edge $-1 $336 -8.5694669691550338 $467 1.5190353885254995 $328 $468 forward 7 unknown #
coedge $-1 $469 $470 $214 $331 forward $323 $-1 #
edge $-1 $471 -80.358482472607577 $335 -70.357207710068764 $330 $472 forward 7 unknown #
edge $-1 $336 102.79888293437048 $471 118.35810419019134 $215 $473 forward 7 unknown #
coedge $-1 $216 $463 $469 $474 forward $334 $-1 #
loop $-1 $-1 $463 $322 #
vertex $-1 $331 $475 #
vertex $-1 $217 $476 #
straight-curve $-1 22.295304340633948 12.094682759469801 16.031000860216395 -1 0 0 I I #
coedge $-1 $338 $338 $-1 $477 reversed $220 $-1 #
edge $-1 $478 0 $478 6.2831853071796004 $221 $479 forward 7 unknown #
vertex $-1 $224 $480 #
ellipse-curve $-1 53.219524655529014 7.0504315806295352 11.030363478946983 0.64278761758704617 0 0.76604443648966558 1.5320888729793312 0 -1.2855752351740923 1 I I #
face $-1 $-1 $354 $46 $-1 $481 forward single #
loop $-1 $-1 $482 $225 #
plane-surface $-1 59.17905209509567 0 0 -1 0 0 0 0 1 forward_v I I I I #
coedge $-1 $483 $484 $485 $486 reversed $226 $-1 #
coedge $-1 $487 $228 $230 $352 forward $142 $-1 #
coedge $-1 $228 $487 $483 $488 forward $142 $-1 #
coedge $-1 $485 $231 $228 $349 forward $354 $-1 #
edge $-1 $356 -17.63885040228401 $489 -7.5503480446034779 $348 $490 forward 7 unknown #
coedge $-1 $491 $492 $229 $351 forward $343 $-1 #
edge $-1 $493 -80.358482472607577 $355 -70.357207710068764 $350 $494 forward 7 unknown #
edge $-1 $356 102.79888293437048 $493 118.35810419019134 $230 $495 forward 7 unknown #
coedge $-1 $231 $485 $491 $496 forward $354 $-1 #
loop $-1 $-1 $485 $342 #
vertex $-1 $351 $497 #
vertex $-1 $232 $498 #
straight-curve $-1 22.295304340633948 30.233449625727754 16.031000860216395 -1 0 0 I I #
coedge $-1 $358 $358 $-1 $499 reversed $235 $-1 #
edge $-1 $500 0 $500 6.2831853071796004 $236 $501 forward 7 unknown #
vertex $-1 $239 $502 #
ellipse-curve $-1 53.219524655529014 25.189198446887488 11.030363478946983 0.64278761758704617 0 0.76604443648966558 1.5320888729793312 0 -1.2855752351740923 1 I I #
face $-1 $-1 $255 $36 $-1 $503 reversed single #
loop $-1 $-1 $378 $240 #
plane-surface $-1 0 36.277533732515906 0 0 -1 0 0 0 -1 forward_v I I I I #
coedge $-1 $504 $376 $379 $505 forward $241 $-1 #
coedge $-1 $382 $243 $244 $370 reversed $151 $-1 #
coedge $-1 $376 $504 $243 $368 reversed $241 $-1 #
edge $-1 $383 -16.031000860216391 $506 16.031000860216391 $367 $507 forward 7 unknown #
coedge $-1 $245 $244 $504 $508 forward $97 $-1 #
edge $-1 $374 -59.17905209509567 $506 59.17905209509567 $366 $509 forward 7 unknown #
coedge $-1 $379 $378 $245 $372 reversed $363 $-1 #
edge $-1 $510 -59.17905209509567 $373 59.17905209509567 $371 $511 forward 7 unknown #
vertex $-1 $247 $512 #
vertex $-1 $385 $513 #
straight-curve $-1 59.17905209509567 0 -16.031000860216391 0 -1 0 I I #
coedge $-1 $365 $367 $248 $377 reversed $241 $-1 #
edge $-1 $380 -36.277533732515906 $383 36.277533732515906 $376 $514 forward 7 unknown #
coedge $-1 $371 $249 $254 $386 forward $363 $-1 #
coedge $-1 $249 $371 $365 $505 reversed $363 $-1 #
vertex $-1 $250 $515 #
straight-curve $-1 0 36.277533732515906 16.031000860216391 -1 0 0 I I #
coedge $-1 $251 $366 $253 $385 reversed $151 $-1 #
vertex $-1 $377 $516 #
straight-curve $-1 0 -36.277533732515906 16.031000860216391 1 0 0 I I #
edge $-1 $256 -16.031000860216391 $374 16.031000860216391 $253 $517 forward 7 unknown #
edge $-1 $257 -16.031000860216391 $373 16.031000860216391 $254 $518 forward 7 unknown #
point $-1 59.17905209509567 -36.277533732515906 16.031000860216391 #
point $-1 59.17905209509567 36.277533732515906 16.031000860216391 #
plane-surface $-1 0 0 16.031000860216391 0 0 1 1 0 0 forward_v I I I I #
coedge $-1 $400 $399 $392 $519 forward $260 $-1 #
coedge $-1 $392 $262 $264 $396 reversed $159 $-1 #
coedge $-1 $262 $391 $390 $519 reversed $159 $-1 #
coedge $-1 $270 $265 $262 $394 forward $271 $-1 #
edge $-1 $397 -23.017961491181431 $520 -15.073472007633512 $393 $521 forward 7 unknown #
coedge $-1 $264 $263 $400 $522 reversed $101 $-1 #
edge $-1 $523 -2.1388861263899031e-014 $397 12.109412793593473 $391 $524 forward 7 unknown #
vertex $-1 $266 $525 #
straight-curve $-1 -51.234562611547759 -10.52369364619789 16.031000860216391 0 1 0 I I #
coedge $-1 $390 $267 $270 $404 reversed $260 $-1 #
coedge $-1 $267 $390 $395 $522 forward $260 $-1 #
vertex $-1 $268 $526 #
straight-curve $-1 -59.17905209509567 -30.696854767370262 42.270906346644423 0 0 1 I I #
straight-curve $-1 -59.179052095095656 -30.696854767370262 6.8919109136493972 -0.65605901945558964 0 -0.75470958851134928 I I #
edge $-1 $520 11.397919817421297 $272 30.696854767370262 $399 $527 forward 7 unknown #
point $-1 -59.17905209509567 -30.696854767370262 16.031000860216391 #
point $-1 -51.234562611547751 -30.696854767370262 16.031000860216391 #
edge $-1 $528 1 $528 0 $275 $-1 forward 7 unknown #
vertex $-1 $276 $529 #
ellipse-curve $-1 -52.482648233732149 -25.182873353099126 9.0933805529966101 -0.75470958851134928 0 0.65605901945558964 1.3121180389111793 0 1.5094191770226986 1 I I #
point $-1 -53.894689314410542 -25.182873353099126 12.970875063955598 #
edge $-1 $530 1 $530 0 $279 $-1 forward 7 unknown #
vertex $-1 $280 $531 #
ellipse-curve $-1 -52.482648233732149 -16.911901231692426 9.0933805529966101 -0.75470958851134928 0 0.65605901945558964 1.3121180389111793 0 1.5094191770226986 1 I I #
point $-1 -53.894689314410542 -16.911901231692426 12.970875063955598 #
loop $-1 $-1 $291 $283 #
plane-surface $-1 59.17905209509567 0 0 -1 0 0 0 0 1 forward_v I I I I #
coedge $-1 $418 $286 $288 $422 reversed $181 $-1 #
coedge $-1 $286 $417 $532 $533 reversed $181 $-1 #
coedge $-1 $294 $289 $286 $420 forward $284 $-1 #
edge $-1 $423 24.96469287532841 $534 36.883747754461723 $419 $535 forward 7 unknown #
coedge $-1 $288 $287 $426 $536 reversed $115 $-1 #
edge $-1 $537 -118.35810419019134 $423 -102.79888293437048 $417 $538 forward 7 unknown #
vertex $-1 $290 $539 #
straight-curve $-1 47.259997215962358 -14.613551075943187 16.031000860216395 0 -1 0 I I #
coedge $-1 $532 $291 $294 $430 reversed $415 $-1 #
coedge $-1 $291 $532 $421 $536 forward $415 $-1 #
vertex $-1 $292 $540 #
straight-curve $-1 59.17905209509567 -24.182850973046108 86.388208570285158 0 0 1 I I #
straight-curve $-1 -31.488515133264585 -24.182850973046108 82.108849912210061 0.76604443648966558 0 -0.64278761758704617 I I #
edge $-1 $534 -34.27135333072664 $295 -24.182850973046108 $425 $541 forward 7 unknown #
point $-1 59.17905209509567 -24.182850973046108 16.031000860216391 #
point $-1 47.259997215962358 -24.182850973046108 16.031000860216395 #
edge $-1 $542 1 $542 0 $298 $-1 forward 7 unknown #
vertex $-1 $299 $543 #
ellipse-curve $-1 51.370041438081373 -29.227102151886371 8.826235256276437 0.64278761758704617 0 0.76604443648966558 1.5320888729793312 0 -1.2855752351740923 1 I I #
point $-1 54.751613528508344 -29.227102151886371 9.7447882437728897 #
plane-surface $-1 0 0 16.031000860216391 0 0 1 1 0 0 forward_v I I I I #
coedge $-1 $448 $447 $440 $544 forward $303 $-1 #
coedge $-1 $440 $305 $307 $444 reversed $196 $-1 #
coedge $-1 $305 $439 $438 $544 reversed $196 $-1 #
coedge $-1 $313 $308 $305 $442 forward $314 $-1 #
edge $-1 $445 24.96469287532841 $545 36.883747754461723 $441 $546 forward 7 unknown #
coedge $-1 $307 $306 $448 $547 reversed $124 $-1 #
edge $-1 $548 -118.35810419019134 $445 -102.79888293437048 $439 $549 forward 7 unknown #
vertex $-1 $309 $550 #
straight-curve $-1 47.259997215962358 -5.5441676428142106 16.031000860216395 0 -1 0 I I #
coedge $-1 $438 $310 $313 $452 reversed $303 $-1 #
coedge $-1 $310 $438 $443 $547 forward $303 $-1 #
vertex $-1 $311 $551 #
straight-curve $-1 59.17905209509567 -6.0440841067881541 86.388208570285158 0 0 1 I I #
straight-curve $-1 -31.488515133264585 -6.0440841067881541 82.108849912210061 0.76604443648966558 0 -0.64278761758704617 I I #
edge $-1 $545 -16.132586464468687 $315 -6.0440841067881541 $447 $552 forward 7 unknown #
point $-1 59.17905209509567 -6.0440841067881541 16.031000860216391 #
point $-1 47.259997215962358 -6.0440841067881541 16.031000860216395 #
edge $-1 $553 1 $553 0 $318 $-1 forward 7 unknown #
vertex $-1 $319 $554 #
ellipse-curve $-1 51.370041438081373 -11.088335285628418 8.826235256276437 0.64278761758704617 0 0.76604443648966558 1.5320888729793312 0 -1.2855752351740923 1 I I #
point $-1 54.751613528508344 -11.088335285628418 9.7447882437728897 #
plane-surface $-1 0 0 16.031000860216391 0 0 1 1 0 0 forward_v I I I I #
coedge $-1 $470 $469 $462 $555 forward $323 $-1 #
coedge $-1 $462 $325 $327 $466 reversed $211 $-1 #
coedge $-1 $325 $461 $460 $555 reversed $211 $-1 #
coedge $-1 $333 $328 $325 $464 forward $334 $-1 #
edge $-1 $467 24.96469287532841 $556 36.883747754461723 $463 $557 forward 7 unknown #
coedge $-1 $327 $326 $470 $558 reversed $133 $-1 #
edge $-1 $559 -118.35810419019134 $467 -102.79888293437048 $461 $560 forward 7 unknown #
vertex $-1 $329 $561 #
straight-curve $-1 47.259997215962358 3.5252157903147676 16.031000860216395 0 -1 0 I I #
coedge $-1 $460 $330 $333 $474 reversed $323 $-1 #
coedge $-1 $330 $460 $465 $558 forward $323 $-1 #
vertex $-1 $331 $562 #
straight-curve $-1 59.17905209509567 12.094682759469801 86.388208570285158 0 0 1 I I #
straight-curve $-1 -31.488515133264585 12.094682759469801 82.108849912210061 0.76604443648966558 0 -0.64278761758704617 I I #
edge $-1 $556 2.0061804017892682 $335 12.094682759469801 $469 $563 forward 7 unknown #
point $-1 59.17905209509567 12.094682759469801 16.031000860216391 #
point $-1 47.259997215962358 12.094682759469801 16.031000860216395 #
edge $-1 $564 1 $564 0 $338 $-1 forward 7 unknown #
vertex $-1 $339 $565 #
ellipse-curve $-1 51.370041438081373 7.0504315806295352 8.826235256276437 0.64278761758704617 0 0.76604443648966558 1.5320888729793312 0 -1.2855752351740923 1 I I #
point $-1 54.751613528508344 7.0504315806295352 9.7447882437728897 #
plane-surface $-1 0 0 16.031000860216391 0 0 1 1 0 0 forward_v I I I I #
coedge $-1 $492 $491 $484 $566 forward $343 $-1 #
coedge $-1 $484 $345 $347 $488 reversed $226 $-1 #
coedge $-1 $345 $483 $482 $566 reversed $226 $-1 #
coedge $-1 $353 $348 $345 $486 forward $354 $-1 #
edge $-1 $489 24.96469287532841 $567 36.883747754461723 $485 $568 forward 7 unknown #
coedge $-1 $347 $346 $492 $569 reversed $142 $-1 #
edge $-1 $570 -118.35810419019134 $489 -102.79888293437048 $483 $571 forward 7 unknown #
vertex $-1 $349 $572 #
straight-curve $-1 47.259997215962358 12.594599223443744 16.031000860216395 0 -1 0 I I #
coedge $-1 $482 $350 $353 $496 reversed $343 $-1 #
coedge $-1 $350 $482 $487 $569 forward $343 $-1 #
vertex $-1 $351 $573 #
straight-curve $-1 59.17905209509567 30.233449625727754 86.388208570285158 0 0 1 I I #
straight-curve $-1 -31.488515133264585 30.233449625727754 82.108849912210061 0.76604443648966558 0 -0.64278761758704617 I I #
edge $-1 $567 20.144947268047222 $355 30.233449625727754 $491 $574 forward 7 unknown #
point $-1 59.17905209509567 30.233449625727754 16.031000860216391 #
point $-1 47.259997215962358 30.233449625727754 16.031000860216395 #
edge $-1 $575 1 $575 0 $358 $-1 forward 7 unknown #
vertex $-1 $359 $576 #
ellipse-curve $-1 51.370041438081373 25.189198446887488 8.826235256276437 0.64278761758704617 0 0.76604443648966558 1.5320888729793312 0 -1.2855752351740923 1 I I #
point $-1 54.751613528508344 25.189198446887488 9.7447882437728897 #
plane-surface $-1 59.17905209509567 0 0 -1 0 0 0 0 1 forward_v I I I I #
coedge $-1 $367 $365 $369 $508 reversed $241 $-1 #
edge $-1 $380 -16.031000860216391 $510 16.031000860216391 $379 $577 forward 7 unknown #
vertex $-1 $508 $578 #
straight-curve $-1 -59.17905209509567 -36.277533732515906 0 0 0 -1 I I #
edge $-1 $506 -36.277533732515906 $510 36.277533732515906 $504 $579 forward 7 unknown #
straight-curve $-1 0 -36.277533732515906 -16.031000860216391 -1 0 0 I I #
vertex $-1 $372 $580 #
straight-curve $-1 0 36.277533732515906 -16.031000860216391 1 0 0 I I #
point $-1 59.17905209509567 36.277533732515906 -16.031000860216391 #
point $-1 59.17905209509567 -36.277533732515906 -16.031000860216391 #
straight-curve $-1 -59.17905209509567 0 16.031000860216391 0 -1 0 I I #
point $-1 -59.17905209509567 36.277533732515906 16.031000860216391 #
point $-1 -59.17905209509567 -36.277533732515906 16.031000860216391 #
straight-curve $-1 59.17905209509567 -36.277533732515906 0 0 0 -1 I I #
straight-curve $-1 59.17905209509567 36.277533732515906 0 0 0 -1 I I #
edge $-1 $520 26.239905486428032 $523 35.37899543299504 $390 $581 forward 7 unknown #
vertex $-1 $404 $582 #
straight-curve $-1 -74.252524102729183 -11.397919817421297 16.031000860216388 -1 0 0 I I #
edge $-1 $523 0.87422617122340718 $401 20.17316112117237 $400 $583 forward 7 unknown #
vertex $-1 $522 $584 #
straight-curve $-1 -59.179052095095656 -11.397919817421297 6.8919109136493972 0.65605901945558964 0 0.75470958851134928 I I #
point $-1 -51.234562611547751 -11.397919817421297 16.031000860216391 #
point $-1 -59.17905209509567 -30.696854767370262 6.8919109136493812 #
straight-curve $-1 -59.17905209509567 0 16.031000860216391 0 -1 0 I I #
vertex $-1 $407 $585 #
point $-1 -51.170530194820969 -25.182873353099126 10.602799730019308 #
vertex $-1 $411 $586 #
point $-1 -51.170530194820969 -16.911901231692426 10.602799730019308 #
coedge $-1 $426 $425 $418 $533 forward $415 $-1 #
edge $-1 $534 70.357207710068764 $537 80.358482472607577 $532 $587 forward 7 unknown #
vertex $-1 $430 $588 #
straight-curve $-1 22.295304340633948 -34.27135333072664 16.031000860216395 1 0 0 I I #
edge $-1 $537 -19.657802254783455 $427 -9.5692998971029208 $426 $589 forward 7 unknown #
vertex $-1 $536 $590 #
straight-curve $-1 -31.488515133264585 -34.27135333072664 82.108849912210061 -0.76604443648966558 0 0.64278761758704617 I I #
point $-1 47.259997215962358 -34.27135333072664 16.031000860216395 #
point $-1 59.17905209509567 -24.182850973046108 6.0297260976775817 #
straight-curve $-1 59.17905209509567 0 16.031000860216391 0 1 0 I I #
vertex $-1 $433 $591 #
point $-1 52.902130311060702 -29.227102151886371 7.5406600211023456 #
edge $-1 $545 70.357207710068764 $548 80.358482472607577 $438 $592 forward 7 unknown #
vertex $-1 $452 $593 #
straight-curve $-1 22.295304340633948 -16.132586464468687 16.031000860216395 1 0 0 I I #
edge $-1 $548 -10.588418821654477 $449 -0.49991646397394351 $448 $594 forward 7 unknown #
vertex $-1 $547 $595 #
straight-curve $-1 -31.488515133264585 -16.132586464468687 82.108849912210061 -0.76604443648966558 0 0.64278761758704617 I I #
point $-1 47.259997215962358 -16.132586464468687 16.031000860216395 #
point $-1 59.17905209509567 -6.0440841067881541 6.0297260976775817 #
straight-curve $-1 59.17905209509567 0 16.031000860216391 0 1 0 I I #
vertex $-1 $455 $596 #
point $-1 52.902130311060702 -11.088335285628418 7.5406600211023456 #
edge $-1 $556 70.357207710068764 $559 80.358482472607577 $460 $597 forward 7 unknown #
vertex $-1 $474 $598 #
straight-curve $-1 22.295304340633948 2.0061804017892682 16.031000860216395 1 0 0 I I #
edge $-1 $559 -1.5190353885254995 $471 8.5694669691550338 $470 $599 forward 7 unknown #
vertex $-1 $558 $600 #
straight-curve $-1 -31.488515133264585 2.0061804017892682 82.108849912210061 -0.76604443648966558 0 0.64278761758704617 I I #
point $-1 47.259997215962358 2.0061804017892682 16.031000860216395 #
point $-1 59.17905209509567 12.094682759469801 6.0297260976775817 #
straight-curve $-1 59.17905209509567 0 16.031000860216391 0 1 0 I I #
vertex $-1 $477 $601 #
point $-1 52.902130311060702 7.0504315806295352 7.5406600211023456 #
edge $-1 $567 70.357207710068764 $570 80.358482472607577 $482 $602 forward 7 unknown #
vertex $-1 $496 $603 #
straight-curve $-1 22.295304340633948 20.144947268047222 16.031000860216395 1 0 0 I I #
edge $-1 $570 7.5503480446034779 $493 17.63885040228401 $492 $604 forward 7 unknown #
vertex $-1 $569 $605 #
straight-curve $-1 -31.488515133264585 20.144947268047222 82.108849912210061 -0.76604443648966558 0 0.64278761758704617 I I #
point $-1 47.259997215962358 20.144947268047222 16.031000860216395 #
point $-1 59.17905209509567 30.233449625727754 6.0297260976775817 #
straight-curve $-1 59.17905209509567 0 16.031000860216391 0 1 0 I I #
vertex $-1 $499 $606 #
point $-1 52.902130311060702 25.189198446887488 7.5406600211023456 #
straight-curve $-1 -59.17905209509567 36.277533732515906 0 0 0 -1 I I #
point $-1 -59.17905209509567 -36.277533732515906 -16.031000860216391 #
straight-curve $-1 -59.17905209509567 0 -16.031000860216391 0 1 0 I I #
point $-1 -59.17905209509567 36.277533732515906 -16.031000860216391 #
straight-curve $-1 -59.17905209509567 -11.397919817421297 42.270906346644423 0 0 -1 I I #
point $-1 -59.17905209509567 -11.397919817421297 16.031000860216391 #
straight-curve $-1 -59.17905209509567 -10.52369364619789 6.8919109136493848 0 -1 0 I I #
point $-1 -59.17905209509567 -11.397919817421297 6.8919109136493812 #
point $-1 -50.973229056709457 -25.182873353099126 7.7812625140854301 #
point $-1 -50.973229056709457 -16.911901231692426 7.7812625140854301 #
straight-curve $-1 59.17905209509567 -34.27135333072664 86.388208570285158 0 0 -1 I I #
point $-1 59.17905209509567 -34.27135333072664 16.031000860216391 #
straight-curve $-1 59.17905209509567 -14.613551075943187 6.0297260976775817 0 1 0 I I #
point $-1 59.17905209509567 -34.27135333072664 6.0297260976775817 #
point $-1 50.084466202907279 -29.227102151886371 7.2941463832971065 #
straight-curve $-1 59.17905209509567 -16.132586464468687 86.388208570285158 0 0 -1 I I #
point $-1 59.17905209509567 -16.132586464468687 16.031000860216391 #
straight-curve $-1 59.17905209509567 -5.5441676428142106 6.0297260976775817 0 1 0 I I #
point $-1 59.17905209509567 -16.132586464468687 6.0297260976775817 #
point $-1 50.084466202907279 -11.088335285628418 7.2941463832971065 #
straight-curve $-1 59.17905209509567 2.0061804017892682 86.388208570285158 0 0 -1 I I #
point $-1 59.17905209509567 2.0061804017892682 16.031000860216391 #
straight-curve $-1 59.17905209509567 3.5252157903147676 6.0297260976775817 0 1 0 I I #
point $-1 59.17905209509567 2.0061804017892682 6.0297260976775817 #
point $-1 50.084466202907279 7.0504315806295352 7.2941463832971065 #
straight-curve $-1 59.17905209509567 20.144947268047222 86.388208570285158 0 0 -1 I I #
point $-1 59.17905209509567 20.144947268047222 16.031000860216391 #
straight-curve $-1 59.17905209509567 12.594599223443744 6.0297260976775817 0 1 0 I I #
point $-1 59.17905209509567 20.144947268047222 6.0297260976775817 #
point $-1 50.084466202907279 25.189198446887488 7.2941463832971065 #
End-of-ACIS-data 