500 0 17 0           
7 Unknown 11 ACIS 5.0 NT 24 Fri Mar 26 20:03:57 1999 
-1 9.9999999999999995e-007 1e-010 
body $-1 $17 $-1 $18 #
body $-1 $19 $-1 $20 #
body $-1 $21 $-1 $22 #
body $-1 $23 $-1 $24 #
body $-1 $25 $-1 $26 #
body $-1 $27 $-1 $28 #
body $-1 $29 $-1 $30 #
body $-1 $31 $-1 $32 #
body $-1 $33 $-1 $34 #
body $-1 $35 $-1 $36 #
body $-1 $37 $-1 $38 #
body $-1 $39 $-1 $40 #
body $-1 $41 $-1 $42 #
body $-1 $43 $-1 $44 #
body $-1 $45 $-1 $46 #
body $-1 $47 $-1 $48 #
body $-1 $49 $-1 $50 #
lump $-1 $-1 $51 $0 #
transform $-1 1 0 0 0 1 0 0 0 1 74.134342478713336 35.698603358092782 15.058084240665284 1 rotate no_reflect no_shear #
lump $-1 $-1 $52 $1 #
transform $-1 1 0 0 0 1 0 0 0 1 74.134342478713336 35.698603358092782 15.058084240665284 1 rotate no_reflect no_shear #
lump $-1 $-1 $53 $2 #
transform $-1 1 0 0 0 1 0 0 0 1 74.134342478713336 35.698603358092782 15.058084240665284 1 rotate no_reflect no_shear #
lump $-1 $-1 $54 $3 #
transform $-1 1 0 0 0 1 0 0 0 1 74.134342478713336 35.698603358092782 15.058084240665284 1 rotate no_reflect no_shear #
lump $-1 $-1 $55 $4 #
transform $-1 1 0 0 0 1 0 0 0 1 74.134342478713336 35.698603358092782 15.058084240665284 1 rotate no_reflect no_shear #
lump $-1 $-1 $56 $5 #
transform $-1 1 0 0 0 1 0 0 0 1 74.134342478713336 35.698603358092782 15.058084240665284 1 rotate no_reflect no_shear #
lump $-1 $-1 $57 $6 #
transform $-1 1 0 0 0 1 0 0 0 1 74.134342478713336 35.698603358092782 15.058084240665284 1 rotate no_reflect no_shear #
lump $-1 $-1 $58 $7 #
transform $-1 1 0 0 0 1 0 0 0 1 74.134342478713336 35.698603358092782 15.058084240665284 1 rotate no_reflect no_shear #
lump $-1 $-1 $59 $8 #
transform $-1 1 0 0 0 1 0 0 0 1 74.134342478713336 35.698603358092782 15.058084240665284 1 rotate no_reflect no_shear #
lump $-1 $-1 $60 $9 #
transform $-1 1 0 0 0 1 0 0 0 1 74.134342478713336 35.698603358092782 15.058084240665284 1 rotate no_reflect no_shear #
lump $-1 $-1 $61 $10 #
transform $-1 1 0 0 0 1 0 0 0 1 74.134342478713336 35.698603358092782 15.058084240665284 1 rotate no_reflect no_shear #
lump $-1 $-1 $62 $11 #
transform $-1 1 0 0 0 1 0 0 0 1 74.134342478713336 35.698603358092782 15.058084240665284 1 rotate no_reflect no_shear #
lump $-1 $-1 $63 $12 #
transform $-1 1 0 0 0 1 0 0 0 1 74.134342478713336 35.698603358092782 15.058084240665284 1 rotate no_reflect no_shear #
lump $-1 $-1 $64 $13 #
transform $-1 1 0 0 0 1 0 0 0 1 74.134342478713336 35.698603358092782 15.058084240665284 1 rotate no_reflect no_shear #
lump $-1 $-1 $65 $14 #
transform $-1 1 0 0 0 1 0 0 0 1 74.134342478713336 35.698603358092782 15.058084240665284 1 rotate no_reflect no_shear #
lump $-1 $-1 $66 $15 #
transform $-1 1 0 0 0 1 0 0 0 1 74.134342478713336 35.698603358092782 15.058084240665284 1 rotate no_reflect no_shear #
lump $-1 $-1 $67 $16 #
transform $-1 1 0 0 0 1 0 0 0 1 74.134342478713336 35.698603358092782 15.058084240665284 1 rotate no_reflect no_shear #
shell $-1 $-1 $-1 $68 $-1 $17 #
shell $-1 $-1 $-1 $69 $-1 $19 #
shell $-1 $-1 $-1 $70 $-1 $21 #
shell $-1 $-1 $-1 $71 $-1 $23 #
shell $-1 $-1 $-1 $72 $-1 $25 #
shell $-1 $-1 $-1 $73 $-1 $27 #
shell $-1 $-1 $-1 $74 $-1 $29 #
shell $-1 $-1 $-1 $75 $-1 $31 #
shell $-1 $-1 $-1 $76 $-1 $33 #
shell $-1 $-1 $-1 $77 $-1 $35 #
shell $-1 $-1 $-1 $78 $-1 $37 #
shell $-1 $-1 $-1 $79 $-1 $39 #
shell $-1 $-1 $-1 $80 $-1 $41 #
shell $-1 $-1 $-1 $81 $-1 $43 #
shell $-1 $-1 $-1 $82 $-1 $45 #
shell $-1 $-1 $-1 $83 $-1 $47 #
shell $-1 $-1 $-1 $84 $-1 $49 #
face $-1 $85 $86 $51 $-1 $87 forward single #
face $-1 $88 $89 $52 $-1 $90 forward single #
face $-1 $91 $92 $53 $-1 $93 reversed single #
face $-1 $94 $95 $54 $-1 $96 forward single #
face $-1 $97 $98 $55 $-1 $99 forward single #
face $-1 $100 $101 $56 $-1 $102 reversed single #
face $-1 $103 $104 $57 $-1 $105 forward single #
face $-1 $106 $107 $58 $-1 $108 forward single #
face $-1 $109 $110 $59 $-1 $111 reversed single #
face $-1 $112 $113 $60 $-1 $114 forward single #
face $-1 $115 $116 $61 $-1 $117 forward single #
face $-1 $118 $119 $62 $-1 $120 reversed single #
face $-1 $121 $122 $63 $-1 $123 forward single #
face $-1 $124 $125 $64 $-1 $126 forward single #
face $-1 $127 $128 $65 $-1 $129 reversed single #
face $-1 $130 $131 $66 $-1 $132 forward single #
face $-1 $133 $134 $67 $-1 $135 forward single #
face $-1 $136 $137 $51 $-1 $138 reversed single #
loop $-1 $-1 $139 $68 #
plane-surface $-1 0 0 15.058084240665284 0 0 1 1 0 0 forward_v I I I I #
face $-1 $140 $141 $52 $-1 $142 reversed single #
loop $-1 $-1 $143 $69 #
plane-surface $-1 0 -35.698603358092782 0 0 1 0 0 0 1 forward_v I I I I #
face $-1 $144 $145 $53 $-1 $146 reversed single #
loop $-1 $-1 $147 $70 #
plane-surface $-1 -194.08622955629352 -18.171167735995127 91.839133933165655 0 1 0 -0.80901700255871778 0 0.5877852410284794 forward_v I I I I #
face $-1 $148 $149 $54 $-1 $150 forward single #
loop $-1 $151 $152 $71 #
cone-surface $-1 -69.963039828819888 -16.041828725389596 9.5796441040628721 0.80901700255871778 0 -0.5877852410284794 0.2938926205142397 0 0.40450850127935889 1 I I 0 1 0.5 forward I I I I #
face $-1 $153 $154 $55 $-1 $155 forward single #
loop $-1 $156 $157 $72 #
cone-surface $-1 -69.963039828819888 -12.847820209481299 9.5796441040628721 0.80901700255871778 0 -0.5877852410284794 0.2938926205142397 0 0.40450850127935889 1 I I 0 1 0.5 forward I I I I #
face $-1 $158 $159 $56 $-1 $160 reversed single #
loop $-1 $-1 $161 $73 #
plane-surface $-1 -194.08622955629352 -3.5994647958401966 91.839133933165655 0 1 0 -0.80901700255871778 0 0.5877852410284794 forward_v I I I I #
face $-1 $162 $163 $57 $-1 $164 forward single #
loop $-1 $165 $166 $74 #
cone-surface $-1 -69.963039828819888 -1.4701257852346714 9.5796441040628721 0.80901700255871778 0 -0.5877852410284794 0.2938926205142397 0 0.40450850127935889 1 I I 0 1 0.5 forward I I I I #
face $-1 $167 $168 $58 $-1 $169 forward single #
loop $-1 $170 $171 $75 #
cone-surface $-1 -69.963039828819888 1.7238827306736297 9.5796441040628721 0.80901700255871778 0 -0.5877852410284794 0.2938926205142397 0 0.40450850127935889 1 I I 0 1 0.5 forward I I I I #
face $-1 $172 $173 $59 $-1 $174 reversed single #
loop $-1 $-1 $175 $76 #
plane-surface $-1 -194.08622955629352 10.972238144314732 91.839133933165655 0 1 0 -0.80901700255871778 0 0.5877852410284794 forward_v I I I I #
face $-1 $176 $177 $60 $-1 $178 forward single #
loop $-1 $179 $180 $77 #
cone-surface $-1 -69.963039828819888 13.101577154920257 9.5796441040628721 0.80901700255871778 0 -0.5877852410284794 0.2938926205142397 0 0.40450850127935889 1 I I 0 1 0.5 forward I I I I #
face $-1 $181 $182 $61 $-1 $183 forward single #
loop $-1 $184 $185 $78 #
cone-surface $-1 -69.963039828819888 16.295585670828558 9.5796441040628721 0.80901700255871778 0 -0.5877852410284794 0.2938926205142397 0 0.40450850127935889 1 I I 0 1 0.5 forward I I I I #
face $-1 $186 $187 $62 $-1 $188 reversed single #
loop $-1 $-1 $189 $79 #
plane-surface $-1 -194.08622955629352 25.543941084469658 91.839133933165655 0 1 0 -0.80901700255871778 0 0.5877852410284794 forward_v I I I I #
face $-1 $190 $191 $63 $-1 $192 forward single #
loop $-1 $193 $194 $80 #
cone-surface $-1 -69.963039828819888 27.673280095075185 9.5796441040628721 0.80901700255871778 0 -0.5877852410284794 0.2938926205142397 0 0.40450850127935889 1 I I 0 1 0.5 forward I I I I #
face $-1 $195 $196 $64 $-1 $197 forward single #
loop $-1 $198 $199 $81 #
cone-surface $-1 -69.963039828819888 30.867288610983479 9.5796441040628721 0.80901700255871778 0 -0.5877852410284794 0.2938926205142397 0 0.40450850127935889 1 I I 0 1 0.5 forward I I I I #
face $-1 $200 $201 $65 $-1 $202 reversed single #
loop $-1 $-1 $203 $82 #
plane-surface $-1 81.452196606389776 -11.315191430915597 213.32043785471771 0 -1 0 -0.73135370988377701 0 -0.68199835119979291 forward_v I I I I #
face $-1 $204 $205 $66 $-1 $206 forward single #
loop $-1 $207 $208 $83 #
cone-surface $-1 67.742796260721207 -18.142300032046531 8.3614466450253815 -0.73135370988377701 0 -0.68199835119979291 0.68199835119979291 0 -0.73135370988377701 1 I I 0 1 1 forward I I I I #
face $-1 $209 $210 $67 $-1 $211 forward single #
loop $-1 $212 $213 $84 #
cone-surface $-1 67.742796260721207 -14.046034871367972 8.3614466450253815 -0.73135370988377701 0 -0.68199835119979291 0.68199835119979291 0 -0.73135370988377701 1 I I 0 1 1 forward I I I I #
face $-1 $214 $215 $51 $-1 $216 reversed single #
loop $-1 $-1 $217 $85 #
plane-surface $-1 0 0 -15.058084240665284 0 0 1 1 0 0 forward_v I I I I #
coedge $-1 $218 $219 $220 $221 forward $86 $-1 #
face $-1 $222 $223 $52 $-1 $224 reversed single #
loop $-1 $-1 $225 $88 #
plane-surface $-1 0 0 -15.058084240665284 0 0 1 1 0 0 forward_v I I I I #
coedge $-1 $226 $227 $228 $229 forward $89 $-1 #
face $-1 $230 $231 $53 $-1 $232 reversed single #
loop $-1 $-1 $233 $91 #
plane-surface $-1 -74.13434247871335 -14.444824467435446 4.6889892084889482 -0.80901700255871778 0 0.5877852410284794 0.5877852410284794 0 0.80901700255871778 forward_v I I I I #
coedge $-1 $234 $235 $236 $237 reversed $92 $-1 #
face $-1 $-1 $238 $54 $-1 $239 forward single #
loop $-1 $240 $241 $94 #
cone-surface $-1 -69.356277076900852 -16.041828725389596 9.1388051732915123 0.80901700255871778 0 -0.5877852410284794 0.14694631025711985 0 0.20225425063967944 1 I I -0.70710678118654746 0.70710678118654746 0.25 forward I I I I #
loop $-1 $-1 $242 $71 #
coedge $-1 $152 $152 $243 $244 reversed $95 $-1 #
face $-1 $-1 $245 $55 $-1 $246 forward single #
loop $-1 $247 $248 $97 #
cone-surface $-1 -69.356277076900852 -12.847820209481299 9.1388051732915123 0.80901700255871778 0 -0.5877852410284794 0.14694631025711985 0 0.20225425063967944 1 I I -0.70710678118654746 0.70710678118654746 0.25 forward I I I I #
loop $-1 $-1 $249 $72 #
coedge $-1 $157 $157 $250 $251 reversed $98 $-1 #
face $-1 $252 $253 $56 $-1 $254 reversed single #
loop $-1 $-1 $255 $100 #
plane-surface $-1 -74.13434247871335 0.12687847271948272 4.6889892084889482 -0.80901700255871778 0 0.5877852410284794 0.5877852410284794 0 0.80901700255871778 forward_v I I I I #
coedge $-1 $256 $257 $258 $259 reversed $101 $-1 #
face $-1 $-1 $260 $57 $-1 $261 forward single #
loop $-1 $262 $263 $103 #
cone-surface $-1 -69.356277076900852 -1.4701257852346714 9.1388051732915123 0.80901700255871778 0 -0.5877852410284794 0.14694631025711985 0 0.20225425063967944 1 I I -0.70710678118654746 0.70710678118654746 0.25 forward I I I I #
loop $-1 $-1 $264 $74 #
coedge $-1 $166 $166 $265 $266 reversed $104 $-1 #
face $-1 $-1 $267 $58 $-1 $268 forward single #
loop $-1 $269 $270 $106 #
cone-surface $-1 -69.356277076900852 1.7238827306736297 9.1388051732915123 0.80901700255871778 0 -0.5877852410284794 0.14694631025711985 0 0.20225425063967944 1 I I -0.70710678118654746 0.70710678118654746 0.25 forward I I I I #
loop $-1 $-1 $271 $75 #
coedge $-1 $171 $171 $272 $273 reversed $107 $-1 #
face $-1 $274 $275 $59 $-1 $276 reversed single #
loop $-1 $-1 $277 $109 #
plane-surface $-1 -74.13434247871335 14.698581412874411 4.6889892084889482 -0.80901700255871778 0 0.5877852410284794 0.5877852410284794 0 0.80901700255871778 forward_v I I I I #
coedge $-1 $278 $279 $280 $281 reversed $110 $-1 #
face $-1 $-1 $282 $60 $-1 $283 forward single #
loop $-1 $284 $285 $112 #
cone-surface $-1 -69.356277076900852 13.101577154920257 9.1388051732915123 0.80901700255871778 0 -0.5877852410284794 0.14694631025711985 0 0.20225425063967944 1 I I -0.70710678118654746 0.70710678118654746 0.25 forward I I I I #
loop $-1 $-1 $286 $77 #
coedge $-1 $180 $180 $287 $288 reversed $113 $-1 #
face $-1 $-1 $289 $61 $-1 $290 forward single #
loop $-1 $291 $292 $115 #
cone-surface $-1 -69.356277076900852 16.295585670828558 9.1388051732915123 0.80901700255871778 0 -0.5877852410284794 0.14694631025711985 0 0.20225425063967944 1 I I -0.70710678118654746 0.70710678118654746 0.25 forward I I I I #
loop $-1 $-1 $293 $78 #
coedge $-1 $185 $185 $294 $295 reversed $116 $-1 #
face $-1 $296 $297 $62 $-1 $298 reversed single #
loop $-1 $-1 $299 $118 #
plane-surface $-1 -74.13434247871335 29.270284353029339 4.6889892084889482 -0.80901700255871778 0 0.5877852410284794 0.5877852410284794 0 0.80901700255871778 forward_v I I I I #
coedge $-1 $300 $301 $302 $303 reversed $119 $-1 #
face $-1 $-1 $304 $63 $-1 $305 forward single #
loop $-1 $306 $307 $121 #
cone-surface $-1 -69.356277076900852 27.673280095075185 9.1388051732915123 0.80901700255871778 0 -0.5877852410284794 0.14694631025711985 0 0.20225425063967944 1 I I -0.70710678118654746 0.70710678118654746 0.25 forward I I I I #
loop $-1 $-1 $308 $80 #
coedge $-1 $194 $194 $309 $310 reversed $122 $-1 #
face $-1 $-1 $311 $64 $-1 $312 forward single #
loop $-1 $313 $314 $124 #
cone-surface $-1 -69.356277076900852 30.867288610983479 9.1388051732915123 0.80901700255871778 0 -0.5877852410284794 0.14694631025711985 0 0.20225425063967944 1 I I -0.70710678118654746 0.70710678118654746 0.25 forward I I I I #
loop $-1 $-1 $315 $81 #
coedge $-1 $199 $199 $316 $317 reversed $125 $-1 #
face $-1 $318 $319 $65 $-1 $320 reversed single #
loop $-1 $-1 $321 $127 #
plane-surface $-1 -26.984656196813177 -16.09416745170725 112.20143917919118 0.73135370988377701 0 0.68199835119979291 0.68199835119979291 0 -0.73135370988377701 forward_v I I I I #
coedge $-1 $322 $323 $324 $325 reversed $128 $-1 #
face $-1 $-1 $326 $66 $-1 $327 forward single #
loop $-1 $328 $329 $130 #
cone-surface $-1 66.251251626891644 -18.142300032046531 6.9705588061241279 -0.73135370988377701 0 -0.68199835119979291 0.34099917559989645 0 -0.36567685494188851 1 I I -0.70710678118654746 0.70710678118654746 0.5 forward I I I I #
loop $-1 $-1 $330 $83 #
coedge $-1 $208 $208 $331 $332 reversed $131 $-1 #
face $-1 $-1 $333 $67 $-1 $334 forward single #
loop $-1 $335 $336 $133 #
cone-surface $-1 66.251251626891644 -14.046034871367972 6.9705588061241279 -0.73135370988377701 0 -0.68199835119979291 0.34099917559989645 0 -0.36567685494188851 1 I I -0.70710678118654746 0.70710678118654746 0.5 forward I I I I #
loop $-1 $-1 $337 $84 #
coedge $-1 $213 $213 $338 $339 reversed $134 $-1 #
face $-1 $340 $341 $51 $-1 $342 reversed single #
loop $-1 $-1 $343 $136 #
plane-surface $-1 0 -35.698603358092782 0 0 1 0 0 0 1 forward_v I I I I #
coedge $-1 $344 $345 $346 $347 forward $137 $-1 #
coedge $-1 $348 $139 $349 $350 forward $86 $-1 #
coedge $-1 $139 $348 $351 $352 forward $86 $-1 #
coedge $-1 $353 $354 $139 $221 reversed $355 $-1 #
edge $-1 $356 -35.698603358092782 $357 35.698603358092782 $220 $358 forward 7 unknown #
face $-1 $359 $360 $52 $-1 $361 forward single #
loop $-1 $-1 $362 $140 #
plane-surface $-1 74.134342478713336 0 0 -1 0 0 0 0 1 forward_v I I I I #
coedge $-1 $363 $364 $365 $366 forward $141 $-1 #
coedge $-1 $365 $143 $362 $367 reversed $89 $-1 #
coedge $-1 $143 $365 $368 $369 reversed $89 $-1 #
coedge $-1 $370 $371 $143 $229 reversed $360 $-1 #
edge $-1 $372 -74.134342478713336 $373 74.134342478713336 $228 $374 forward 7 unknown #
face $-1 $375 $376 $53 $-1 $377 forward single #
loop $-1 $-1 $378 $144 #
plane-surface $-1 -194.08622955629352 -10.718481198875766 91.839133933165655 0 -1 0 0.80901700255871778 0 -0.5877852410284794 forward_v I I I I #
coedge $-1 $379 $380 $381 $382 reversed $145 $-1 #
coedge $-1 $235 $147 $383 $384 reversed $92 $-1 #
coedge $-1 $147 $234 $379 $385 reversed $92 $-1 #
coedge $-1 $381 $386 $147 $237 forward $376 $-1 #
edge $-1 $387 22.908772299433423 $388 30.442360596661587 $236 $389 forward 7 unknown #
loop $-1 $-1 $243 $148 #
plane-surface $-1 -74.13434247871335 -14.444824467435446 4.6889892084889482 -0.80901700255871778 0 0.5877852410284794 0.5877852410284794 0 0.80901700255871778 forward_v I I I I #
loop $-1 $-1 $390 $94 #
coedge $-1 $241 $241 $242 $391 reversed $149 $-1 #
coedge $-1 $242 $242 $241 $391 forward $151 $-1 #
coedge $-1 $243 $243 $152 $244 forward $238 $-1 #
edge $-1 $392 0 $392 6.2831853071796004 $243 $393 forward 7 unknown #
loop $-1 $-1 $250 $153 #
plane-surface $-1 -74.13434247871335 -14.444824467435446 4.6889892084889482 -0.80901700255871778 0 0.5877852410284794 0.5877852410284794 0 0.80901700255871778 forward_v I I I I #
loop $-1 $-1 $394 $97 #
coedge $-1 $248 $248 $249 $395 reversed $154 $-1 #
coedge $-1 $249 $249 $248 $395 forward $156 $-1 #
coedge $-1 $250 $250 $157 $251 forward $245 $-1 #
edge $-1 $396 0 $396 6.2831853071796004 $250 $397 forward 7 unknown #
face $-1 $398 $399 $56 $-1 $400 forward single #
loop $-1 $-1 $401 $158 #
plane-surface $-1 -194.08622955629352 3.8532217412791621 91.839133933165655 0 -1 0 0.80901700255871778 0 -0.5877852410284794 forward_v I I I I #
coedge $-1 $402 $403 $404 $405 reversed $159 $-1 #
coedge $-1 $257 $161 $406 $407 reversed $101 $-1 #
coedge $-1 $161 $256 $402 $408 reversed $101 $-1 #
coedge $-1 $404 $409 $161 $259 forward $399 $-1 #
edge $-1 $410 22.908772299433423 $411 30.442360596661587 $258 $412 forward 7 unknown #
loop $-1 $-1 $265 $162 #
plane-surface $-1 -74.13434247871335 0.12687847271948272 4.6889892084889482 -0.80901700255871778 0 0.5877852410284794 0.5877852410284794 0 0.80901700255871778 forward_v I I I I #
loop $-1 $-1 $413 $103 #
coedge $-1 $263 $263 $264 $414 reversed $163 $-1 #
coedge $-1 $264 $264 $263 $414 forward $165 $-1 #
coedge $-1 $265 $265 $166 $266 forward $260 $-1 #
edge $-1 $415 0 $415 6.2831853071796004 $265 $416 forward 7 unknown #
loop $-1 $-1 $272 $167 #
plane-surface $-1 -74.13434247871335 0.12687847271948272 4.6889892084889482 -0.80901700255871778 0 0.5877852410284794 0.5877852410284794 0 0.80901700255871778 forward_v I I I I #
loop $-1 $-1 $417 $106 #
coedge $-1 $270 $270 $271 $418 reversed $168 $-1 #
coedge $-1 $271 $271 $270 $418 forward $170 $-1 #
coedge $-1 $272 $272 $171 $273 forward $267 $-1 #
edge $-1 $419 0 $419 6.2831853071796004 $272 $420 forward 7 unknown #
face $-1 $421 $422 $59 $-1 $423 forward single #
loop $-1 $-1 $424 $172 #
plane-surface $-1 -194.08622955629352 18.424924681434092 91.839133933165655 0 -1 0 0.80901700255871778 0 -0.5877852410284794 forward_v I I I I #
coedge $-1 $425 $426 $427 $428 reversed $173 $-1 #
coedge $-1 $279 $175 $429 $430 reversed $110 $-1 #
coedge $-1 $175 $278 $425 $431 reversed $110 $-1 #
coedge $-1 $427 $432 $175 $281 forward $422 $-1 #
edge $-1 $433 22.908772299433423 $434 30.442360596661587 $280 $435 forward 7 unknown #
loop $-1 $-1 $287 $176 #
plane-surface $-1 -74.13434247871335 14.698581412874411 4.6889892084889482 -0.80901700255871778 0 0.5877852410284794 0.5877852410284794 0 0.80901700255871778 forward_v I I I I #
loop $-1 $-1 $436 $112 #
coedge $-1 $285 $285 $286 $437 reversed $177 $-1 #
coedge $-1 $286 $286 $285 $437 forward $179 $-1 #
coedge $-1 $287 $287 $180 $288 forward $282 $-1 #
edge $-1 $438 0 $438 6.2831853071796004 $287 $439 forward 7 unknown #
loop $-1 $-1 $294 $181 #
plane-surface $-1 -74.13434247871335 14.698581412874411 4.6889892084889482 -0.80901700255871778 0 0.5877852410284794 0.5877852410284794 0 0.80901700255871778 forward_v I I I I #
loop $-1 $-1 $440 $115 #
coedge $-1 $292 $292 $293 $441 reversed $182 $-1 #
coedge $-1 $293 $293 $292 $441 forward $184 $-1 #
coedge $-1 $294 $294 $185 $295 forward $289 $-1 #
edge $-1 $442 0 $442 6.2831853071796004 $294 $443 forward 7 unknown #
face $-1 $444 $445 $62 $-1 $446 forward single #
loop $-1 $-1 $447 $186 #
plane-surface $-1 -194.08622955629352 32.99662762158902 91.839133933165655 0 -1 0 0.80901700255871778 0 -0.5877852410284794 forward_v I I I I #
coedge $-1 $448 $449 $450 $451 reversed $187 $-1 #
coedge $-1 $301 $189 $452 $453 reversed $119 $-1 #
coedge $-1 $189 $300 $448 $454 reversed $119 $-1 #
coedge $-1 $450 $455 $189 $303 forward $445 $-1 #
edge $-1 $456 22.908772299433423 $457 30.442360596661587 $302 $458 forward 7 unknown #
loop $-1 $-1 $309 $190 #
plane-surface $-1 -74.13434247871335 29.270284353029339 4.6889892084889482 -0.80901700255871778 0 0.5877852410284794 0.5877852410284794 0 0.80901700255871778 forward_v I I I I #
loop $-1 $-1 $459 $121 #
coedge $-1 $307 $307 $308 $460 reversed $191 $-1 #
coedge $-1 $308 $308 $307 $460 forward $193 $-1 #
coedge $-1 $309 $309 $194 $310 forward $304 $-1 #
edge $-1 $461 0 $461 6.2831853071796004 $309 $462 forward 7 unknown #
loop $-1 $-1 $316 $195 #
plane-surface $-1 -74.13434247871335 29.270284353029339 4.6889892084889482 -0.80901700255871778 0 0.5877852410284794 0.5877852410284794 0 0.80901700255871778 forward_v I I I I #
loop $-1 $-1 $463 $124 #
coedge $-1 $314 $314 $315 $464 reversed $196 $-1 #
coedge $-1 $315 $315 $314 $464 forward $198 $-1 #
coedge $-1 $316 $316 $199 $317 forward $311 $-1 #
edge $-1 $465 0 $465 6.2831853071796004 $316 $466 forward 7 unknown #
face $-1 $467 $468 $65 $-1 $469 reversed single #
loop $-1 $-1 $470 $200 #
plane-surface $-1 81.452196606389776 -20.873143472498903 213.32043785471771 0 1 0 0.73135370988377701 0 0.68199835119979291 forward_v I I I I #
coedge $-1 $471 $472 $473 $474 reversed $201 $-1 #
coedge $-1 $323 $203 $475 $476 reversed $128 $-1 #
coedge $-1 $203 $322 $471 $477 reversed $128 $-1 #
coedge $-1 $473 $478 $203 $325 forward $479 $-1 #
edge $-1 $480 -33.408244175518448 $481 -22.876887297309523 $324 $482 forward 7 unknown #
loop $-1 $-1 $331 $204 #
plane-surface $-1 -26.984656196813177 -16.09416745170725 112.20143917919118 0.73135370988377701 0 0.68199835119979291 0.68199835119979291 0 -0.73135370988377701 forward_v I I I I #
loop $-1 $-1 $483 $130 #
coedge $-1 $329 $329 $330 $484 reversed $205 $-1 #
coedge $-1 $330 $330 $329 $484 forward $207 $-1 #
coedge $-1 $331 $331 $208 $332 forward $326 $-1 #
edge $-1 $485 0 $485 6.2831853071796004 $331 $486 forward 7 unknown #
loop $-1 $-1 $338 $209 #
plane-surface $-1 -26.984656196813177 -16.09416745170725 112.20143917919118 0.73135370988377701 0 0.68199835119979291 0.68199835119979291 0 -0.73135370988377701 forward_v I I I I #
loop $-1 $-1 $487 $133 #
coedge $-1 $336 $336 $337 $488 reversed $210 $-1 #
coedge $-1 $337 $337 $336 $488 forward $212 $-1 #
coedge $-1 $338 $338 $213 $339 forward $333 $-1 #
edge $-1 $489 0 $489 6.2831853071796004 $338 $490 forward 7 unknown #
face $-1 $491 $492 $51 $-1 $493 reversed single #
loop $-1 $-1 $494 $214 #
plane-surface $-1 -74.134342478713336 0 0 1 0 0 0 0 -1 forward_v I I I I #
coedge $-1 $351 $495 $353 $496 reversed $215 $-1 #
coedge $-1 $497 $217 $495 $498 forward $137 $-1 #
coedge $-1 $217 $497 $499 $500 forward $137 $-1 #
coedge $-1 $354 $353 $217 $347 reversed $355 $-1 #
edge $-1 $501 -35.698603358092782 $502 35.698603358092782 $346 $503 forward 7 unknown #
coedge $-1 $219 $218 $504 $505 forward $86 $-1 #
coedge $-1 $506 $507 $218 $350 reversed $492 $-1 #
edge $-1 $357 -74.134342478713336 $508 74.134342478713336 $349 $509 forward 7 unknown #
coedge $-1 $510 $343 $219 $352 reversed $215 $-1 #
edge $-1 $511 -74.134342478713336 $356 74.134342478713336 $351 $512 forward 7 unknown #
coedge $-1 $346 $220 $343 $496 forward $355 $-1 #
coedge $-1 $220 $346 $506 $513 reversed $355 $-1 #
loop $-1 $-1 $353 $491 #
vertex $-1 $221 $514 #
vertex $-1 $221 $515 #
straight-curve $-1 74.134342478713336 0 15.058084240665284 0 1 0 I I #
face $-1 $516 $517 $52 $-1 $518 reversed single #
loop $-1 $-1 $371 $222 #
plane-surface $-1 0 -43.111333300889726 -6.3769035968250911 0 0 1 1 0 0 forward_v I I I I #
coedge $-1 $519 $520 $226 $367 forward $223 $-1 #
coedge $-1 $521 $225 $520 $522 forward $141 $-1 #
coedge $-1 $225 $521 $523 $524 forward $141 $-1 #
coedge $-1 $227 $226 $225 $366 reversed $89 $-1 #
edge $-1 $525 -74.134342478713336 $526 74.134342478713336 $225 $527 forward 7 unknown #
edge $-1 $526 -15.058084240665284 $373 -6.3769035968250911 $362 $528 forward 7 unknown #
coedge $-1 $523 $529 $227 $369 forward $530 $-1 #
edge $-1 $372 6.3769035968250911 $525 15.058084240665284 $368 $531 forward 7 unknown #
coedge $-1 $532 $228 $529 $533 forward $360 $-1 #
coedge $-1 $228 $532 $519 $534 forward $360 $-1 #
vertex $-1 $369 $535 #
vertex $-1 $534 $536 #
straight-curve $-1 0 -35.698603358092782 -6.3769035968250911 1 0 0 I I #
face $-1 $-1 $537 $53 $-1 $538 reversed single #
loop $-1 $-1 $236 $230 #
plane-surface $-1 0 0 15.058084240665284 0 0 1 1 0 0 forward_v I I I I #
coedge $-1 $539 $540 $541 $542 reversed $231 $-1 #
coedge $-1 $543 $233 $235 $385 forward $145 $-1 #
coedge $-1 $233 $543 $539 $544 forward $145 $-1 #
coedge $-1 $541 $236 $233 $382 forward $376 $-1 #
edge $-1 $388 -10.948755502277404 $545 -3.4960689651580434 $381 $546 forward 7 unknown #
coedge $-1 $547 $548 $234 $384 forward $537 $-1 #
edge $-1 $549 -41.230577758093858 $387 -30.861482725917543 $383 $550 forward 7 unknown #
edge $-1 $388 -12.816906195273386 $549 -2.4161062406544664e-014 $235 $551 forward 7 unknown #
coedge $-1 $236 $541 $547 $552 forward $376 $-1 #
vertex $-1 $384 $553 #
vertex $-1 $237 $554 #
straight-curve $-1 -97.043114778146759 -18.171167735995127 15.058084240665281 1 0 0 I I #
coedge $-1 $390 $390 $-1 $555 reversed $240 $-1 #
edge $-1 $556 0 $556 6.2831853071796004 $241 $557 forward 7 unknown #
vertex $-1 $244 $558 #
ellipse-curve $-1 -70.367548330099254 -16.041828725389596 9.8735367245771197 -0.80901700255871778 0 0.5877852410284794 0.2938926205142397 0 0.40450850127935889 1 I I #
coedge $-1 $394 $394 $-1 $559 reversed $247 $-1 #
edge $-1 $560 0 $560 6.2831853071796004 $248 $561 forward 7 unknown #
vertex $-1 $251 $562 #
ellipse-curve $-1 -70.367548330099254 -12.847820209481299 9.8735367245771197 -0.80901700255871778 0 0.5877852410284794 0.2938926205142397 0 0.40450850127935889 1 I I #
face $-1 $-1 $563 $56 $-1 $564 reversed single #
loop $-1 $-1 $258 $252 #
plane-surface $-1 0 0 15.058084240665284 0 0 1 1 0 0 forward_v I I I I #
coedge $-1 $565 $566 $567 $568 reversed $253 $-1 #
coedge $-1 $569 $255 $257 $408 forward $159 $-1 #
coedge $-1 $255 $569 $565 $570 forward $159 $-1 #
coedge $-1 $567 $258 $255 $405 forward $399 $-1 #
edge $-1 $411 -3.662904032199938 $571 3.7897825049194207 $404 $572 forward 7 unknown #
coedge $-1 $573 $574 $256 $407 forward $563 $-1 #
edge $-1 $575 -41.230577758093858 $410 -30.861482725917543 $406 $576 forward 7 unknown #
edge $-1 $411 -12.816906195273386 $575 -2.4161062406544664e-014 $257 $577 forward 7 unknown #
coedge $-1 $258 $567 $573 $578 forward $399 $-1 #
vertex $-1 $259 $579 #
vertex $-1 $259 $580 #
straight-curve $-1 -97.043114778146759 -3.5994647958401966 15.058084240665281 1 0 0 I I #
coedge $-1 $413 $413 $-1 $581 reversed $262 $-1 #
edge $-1 $582 0 $582 6.2831853071796004 $263 $583 forward 7 unknown #
vertex $-1 $266 $584 #
ellipse-curve $-1 -70.367548330099254 -1.4701257852346714 9.8735367245771197 -0.80901700255871778 0 0.5877852410284794 0.2938926205142397 0 0.40450850127935889 1 I I #
coedge $-1 $417 $417 $-1 $585 reversed $269 $-1 #
edge $-1 $586 0 $586 6.2831853071796004 $270 $587 forward 7 unknown #
vertex $-1 $273 $588 #
ellipse-curve $-1 -70.367548330099254 1.7238827306736297 9.8735367245771197 -0.80901700255871778 0 0.5877852410284794 0.2938926205142397 0 0.40450850127935889 1 I I #
face $-1 $-1 $589 $59 $-1 $590 reversed single #
loop $-1 $-1 $280 $274 #
plane-surface $-1 0 0 15.058084240665284 0 0 1 1 0 0 forward_v I I I I #
coedge $-1 $591 $592 $593 $594 reversed $275 $-1 #
coedge $-1 $595 $277 $279 $431 forward $173 $-1 #
coedge $-1 $277 $595 $591 $596 forward $173 $-1 #
coedge $-1 $593 $280 $277 $428 forward $422 $-1 #
edge $-1 $434 3.6229474378775262 $597 11.075633974996887 $427 $598 forward 7 unknown #
coedge $-1 $599 $600 $278 $430 forward $589 $-1 #
edge $-1 $601 -41.230577758093858 $433 -30.861482725917543 $429 $602 forward 7 unknown #
edge $-1 $434 -12.816906195273386 $601 -2.4161062406544664e-014 $279 $603 forward 7 unknown #
coedge $-1 $280 $593 $599 $604 forward $422 $-1 #
vertex $-1 $281 $605 #
vertex $-1 $281 $606 #
straight-curve $-1 -97.043114778146759 10.972238144314732 15.058084240665281 1 0 0 I I #
coedge $-1 $436 $436 $-1 $607 reversed $284 $-1 #
edge $-1 $608 0 $608 6.2831853071796004 $285 $609 forward 7 unknown #
vertex $-1 $288 $610 #
ellipse-curve $-1 -70.367548330099254 13.101577154920257 9.8735367245771197 -0.80901700255871778 0 0.5877852410284794 0.2938926205142397 0 0.40450850127935889 1 I I #
coedge $-1 $440 $440 $-1 $611 reversed $291 $-1 #
edge $-1 $612 0 $612 6.2831853071796004 $292 $613 forward 7 unknown #
vertex $-1 $295 $614 #
ellipse-curve $-1 -70.367548330099254 16.295585670828558 9.8735367245771197 -0.80901700255871778 0 0.5877852410284794 0.2938926205142397 0 0.40450850127935889 1 I I #
face $-1 $-1 $615 $62 $-1 $616 reversed single #
loop $-1 $-1 $302 $296 #
plane-surface $-1 0 0 15.058084240665284 0 0 1 1 0 0 forward_v I I I I #
coedge $-1 $617 $618 $619 $620 reversed $297 $-1 #
coedge $-1 $621 $299 $301 $454 forward $187 $-1 #
coedge $-1 $299 $621 $617 $622 forward $187 $-1 #
coedge $-1 $619 $302 $299 $451 forward $445 $-1 #
edge $-1 $457 10.908798907954989 $623 18.361485445074351 $450 $624 forward 7 unknown #
coedge $-1 $625 $626 $300 $453 forward $615 $-1 #
edge $-1 $627 -41.230577758093858 $456 -30.861482725917543 $452 $628 forward 7 unknown #
edge $-1 $457 -12.816906195273386 $627 -2.4161062406544664e-014 $301 $629 forward 7 unknown #
coedge $-1 $302 $619 $625 $630 forward $445 $-1 #
vertex $-1 $303 $631 #
vertex $-1 $303 $632 #
straight-curve $-1 -97.043114778146759 25.543941084469658 15.058084240665281 1 0 0 I I #
coedge $-1 $459 $459 $-1 $633 reversed $306 $-1 #
edge $-1 $634 0 $634 6.2831853071796004 $307 $635 forward 7 unknown #
vertex $-1 $310 $636 #
ellipse-curve $-1 -70.367548330099254 27.673280095075185 9.8735367245771197 -0.80901700255871778 0 0.5877852410284794 0.2938926205142397 0 0.40450850127935889 1 I I #
coedge $-1 $463 $463 $-1 $637 reversed $313 $-1 #
edge $-1 $638 0 $638 6.2831853071796004 $314 $639 forward 7 unknown #
vertex $-1 $317 $640 #
ellipse-curve $-1 -70.367548330099254 30.867288610983479 9.8735367245771197 -0.80901700255871778 0 0.5877852410284794 0.2938926205142397 0 0.40450850127935889 1 I I #
face $-1 $-1 $479 $65 $-1 $641 forward single #
loop $-1 $-1 $642 $318 #
plane-surface $-1 74.134342478713336 0 0 -1 0 0 0 0 1 forward_v I I I I #
coedge $-1 $643 $644 $645 $646 reversed $319 $-1 #
coedge $-1 $647 $321 $323 $477 forward $201 $-1 #
coedge $-1 $321 $647 $643 $648 forward $201 $-1 #
coedge $-1 $645 $324 $321 $474 forward $479 $-1 #
edge $-1 $481 3.268107705061972 $649 12.826059746645278 $473 $650 forward 7 unknown #
coedge $-1 $651 $652 $322 $476 forward $468 $-1 #
edge $-1 $653 -102.89563255137061 $480 -91.602134686693574 $475 $654 forward 7 unknown #
edge $-1 $481 132.8267753696955 $653 148.26868495742661 $323 $655 forward 7 unknown #
coedge $-1 $324 $645 $651 $656 forward $479 $-1 #
loop $-1 $-1 $645 $467 #
vertex $-1 $476 $657 #
vertex $-1 $325 $658 #
straight-curve $-1 40.726098303194888 -11.315191430915597 15.058084240665281 -1 0 0 I I #
coedge $-1 $483 $483 $-1 $659 reversed $328 $-1 #
edge $-1 $660 0 $660 6.2831853071796004 $329 $661 forward 7 unknown #
vertex $-1 $332 $662 #
ellipse-curve $-1 68.868664039608888 -18.142300032046531 9.4113353083267466 0.73135370988377701 0 0.68199835119979291 0.68199835119979291 0 -0.73135370988377701 1 I I #
coedge $-1 $487 $487 $-1 $663 reversed $335 $-1 #
edge $-1 $664 0 $664 6.2831853071796004 $336 $665 forward 7 unknown #
vertex $-1 $339 $666 #
ellipse-curve $-1 68.868664039608888 -14.046034871367972 9.4113353083267466 0.73135370988377701 0 0.68199835119979291 0.68199835119979291 0 -0.73135370988377701 1 I I #
face $-1 $-1 $355 $51 $-1 $667 reversed single #
loop $-1 $-1 $506 $340 #
plane-surface $-1 0 35.698603358092782 0 0 -1 0 0 0 -1 forward_v I I I I #
coedge $-1 $668 $504 $507 $669 forward $341 $-1 #
coedge $-1 $343 $510 $344 $498 reversed $215 $-1 #
edge $-1 $356 -15.058084240665284 $502 15.058084240665284 $353 $670 forward 7 unknown #
coedge $-1 $345 $344 $668 $671 forward $137 $-1 #
edge $-1 $502 -74.134342478713336 $672 74.134342478713336 $495 $673 forward 7 unknown #
coedge $-1 $507 $506 $345 $500 reversed $492 $-1 #
edge $-1 $674 -74.134342478713336 $501 74.134342478713336 $499 $675 forward 7 unknown #
vertex $-1 $347 $676 #
vertex $-1 $496 $677 #
straight-curve $-1 74.134342478713336 0 -15.058084240665284 0 -1 0 I I #
coedge $-1 $494 $678 $348 $505 reversed $341 $-1 #
edge $-1 $508 -35.698603358092782 $511 35.698603358092782 $504 $679 forward 7 unknown #
coedge $-1 $499 $349 $354 $513 forward $492 $-1 #
coedge $-1 $349 $499 $494 $669 reversed $492 $-1 #
vertex $-1 $350 $680 #
straight-curve $-1 0 35.698603358092782 15.058084240665284 -1 0 0 I I #
coedge $-1 $495 $351 $678 $681 forward $215 $-1 #
vertex $-1 $505 $682 #
straight-curve $-1 0 -35.698603358092782 15.058084240665284 1 0 0 I I #
edge $-1 $357 -15.058084240665284 $501 15.058084240665284 $354 $683 forward 7 unknown #
point $-1 74.134342478713336 -35.698603358092782 15.058084240665284 #
point $-1 74.134342478713336 35.698603358092782 15.058084240665284 #
face $-1 $-1 $530 $52 $-1 $684 reversed single #
loop $-1 $-1 $685 $359 #
plane-surface $-1 0 -50.524063243686669 -10.717493918745188 0 1 0 0 0 1 forward_v I I I I #
coedge $-1 $686 $362 $371 $534 reversed $223 $-1 #
coedge $-1 $362 $686 $363 $522 reversed $223 $-1 #
coedge $-1 $364 $363 $687 $688 forward $141 $-1 #
edge $-1 $526 35.698603358092782 $689 50.524063243686669 $520 $690 forward 7 unknown #
coedge $-1 $691 $368 $364 $524 reversed $530 $-1 #
edge $-1 $692 -50.524063243686669 $525 -35.698603358092782 $523 $693 forward 7 unknown #
vertex $-1 $369 $694 #
vertex $-1 $522 $695 #
straight-curve $-1 0 -35.698603358092782 -15.058084240665284 1 0 0 I I #
straight-curve $-1 74.134342478713336 -35.698603358092782 0 0 0 1 I I #
coedge $-1 $368 $691 $370 $533 reversed $530 $-1 #
loop $-1 $-1 $368 $516 #
straight-curve $-1 -74.134342478713336 -35.698603358092782 0 0 0 -1 I I #
coedge $-1 $371 $370 $696 $697 forward $360 $-1 #
edge $-1 $372 -7.4127299427969433 $698 7.4127299427969433 $529 $699 forward 7 unknown #
edge $-1 $700 -7.4127299427969433 $373 7.4127299427969433 $519 $701 forward 7 unknown #
point $-1 -74.134342478713336 -35.698603358092782 -6.3769035968250911 #
point $-1 74.134342478713336 -35.698603358092782 -6.3769035968250911 #
loop $-1 $-1 $383 $375 #
plane-surface $-1 -74.134342478713336 0 0 1 0 0 0 0 -1 forward_v I I I I #
coedge $-1 $540 $378 $380 $544 reversed $231 $-1 #
coedge $-1 $378 $539 $702 $703 reversed $231 $-1 #
coedge $-1 $386 $381 $378 $542 forward $376 $-1 #
edge $-1 $545 -30.442360596661587 $704 -22.908772299433423 $541 $705 forward 7 unknown #
coedge $-1 $380 $379 $548 $706 reversed $145 $-1 #
edge $-1 $707 2.4161062406544664e-014 $545 12.816906195273386 $539 $708 forward 7 unknown #
vertex $-1 $382 $709 #
straight-curve $-1 -66.600754181485172 -7.2224122337177228 15.058084240665284 0 1 0 I I #
coedge $-1 $702 $383 $386 $552 reversed $537 $-1 #
coedge $-1 $383 $702 $543 $706 forward $537 $-1 #
vertex $-1 $384 $710 #
straight-curve $-1 -74.134342478713336 -18.171167735995127 45.919566966582828 0 0 1 I I #
straight-curve $-1 -74.13434247871335 -18.171167735995127 4.6889892084889482 -0.5877852410284794 0 -0.80901700255871778 I I #
edge $-1 $704 10.718481198875766 $387 18.171167735995127 $547 $711 forward 7 unknown #
point $-1 -74.134342478713336 -18.171167735995127 15.058084240665284 #
point $-1 -66.600754181485172 -18.171167735995127 15.058084240665284 #
edge $-1 $712 1 $712 0 $390 $-1 forward 7 unknown #
vertex $-1 $391 $713 #
ellipse-curve $-1 -69.558531327540535 -16.041828725389596 9.2857514835486317 -0.80901700255871778 0 0.5877852410284794 0.2938926205142397 0 0.40450850127935889 1 I I #
point $-1 -70.073655709585012 -16.041828725389596 10.27804522585647 #
edge $-1 $714 1 $714 0 $394 $-1 forward 7 unknown #
vertex $-1 $395 $715 #
ellipse-curve $-1 -69.558531327540535 -12.847820209481299 9.2857514835486317 -0.80901700255871778 0 0.5877852410284794 0.2938926205142397 0 0.40450850127935889 1 I I #
point $-1 -70.073655709585012 -12.847820209481299 10.27804522585647 #
loop $-1 $-1 $406 $398 #
plane-surface $-1 -74.134342478713336 0 0 1 0 0 0 0 -1 forward_v I I I I #
coedge $-1 $566 $401 $403 $570 reversed $253 $-1 #
coedge $-1 $401 $565 $716 $717 reversed $253 $-1 #
coedge $-1 $409 $404 $401 $568 forward $399 $-1 #
edge $-1 $571 -30.442360596661587 $718 -22.908772299433423 $567 $719 forward 7 unknown #
coedge $-1 $403 $402 $574 $720 reversed $159 $-1 #
edge $-1 $721 2.4161062406544664e-014 $571 12.816906195273386 $565 $722 forward 7 unknown #
vertex $-1 $405 $723 #
straight-curve $-1 -66.600754181485172 0.063439236359741358 15.058084240665284 0 1 0 I I #
coedge $-1 $716 $406 $409 $578 reversed $563 $-1 #
coedge $-1 $406 $716 $569 $720 forward $563 $-1 #
vertex $-1 $407 $724 #
straight-curve $-1 -74.134342478713336 -3.5994647958401966 45.919566966582828 0 0 1 I I #
straight-curve $-1 -74.13434247871335 -3.5994647958401966 4.6889892084889482 -0.5877852410284794 0 -0.80901700255871778 I I #
edge $-1 $718 -3.8532217412791621 $410 3.5994647958401966 $573 $725 forward 7 unknown #
point $-1 -74.134342478713336 -3.5994647958401966 15.058084240665284 #
point $-1 -66.600754181485172 -3.5994647958401966 15.058084240665284 #
edge $-1 $726 1 $726 0 $413 $-1 forward 7 unknown #
vertex $-1 $414 $727 #
ellipse-curve $-1 -69.558531327540535 -1.4701257852346714 9.2857514835486317 -0.80901700255871778 0 0.5877852410284794 0.2938926205142397 0 0.40450850127935889 1 I I #
point $-1 -70.073655709585012 -1.4701257852346714 10.27804522585647 #
edge $-1 $728 1 $728 0 $417 $-1 forward 7 unknown #
vertex $-1 $418 $729 #
ellipse-curve $-1 -69.558531327540535 1.7238827306736297 9.2857514835486317 -0.80901700255871778 0 0.5877852410284794 0.2938926205142397 0 0.40450850127935889 1 I I #
point $-1 -70.073655709585012 1.7238827306736297 10.27804522585647 #
loop $-1 $-1 $429 $421 #
plane-surface $-1 -74.134342478713336 0 0 1 0 0 0 0 -1 forward_v I I I I #
coedge $-1 $592 $424 $426 $596 reversed $275 $-1 #
coedge $-1 $424 $591 $730 $731 reversed $275 $-1 #
coedge $-1 $432 $427 $424 $594 forward $422 $-1 #
edge $-1 $597 -30.442360596661587 $732 -22.908772299433423 $593 $733 forward 7 unknown #
coedge $-1 $426 $425 $600 $734 reversed $173 $-1 #
edge $-1 $735 2.4161062406544664e-014 $597 12.816906195273386 $591 $736 forward 7 unknown #
vertex $-1 $428 $737 #
straight-curve $-1 -66.600754181485172 7.3492907064372055 15.058084240665284 0 1 0 I I #
coedge $-1 $730 $429 $432 $604 reversed $589 $-1 #
coedge $-1 $429 $730 $595 $734 forward $589 $-1 #
vertex $-1 $430 $738 #
straight-curve $-1 -74.134342478713336 10.972238144314732 45.919566966582828 0 0 1 I I #
straight-curve $-1 -74.13434247871335 10.972238144314732 4.6889892084889482 -0.5877852410284794 0 -0.80901700255871778 I I #
edge $-1 $732 -18.424924681434092 $433 -10.972238144314732 $599 $739 forward 7 unknown #
point $-1 -74.134342478713336 10.972238144314732 15.058084240665284 #
point $-1 -66.600754181485172 10.972238144314732 15.058084240665284 #
edge $-1 $740 1 $740 0 $436 $-1 forward 7 unknown #
vertex $-1 $437 $741 #
ellipse-curve $-1 -69.558531327540535 13.101577154920257 9.2857514835486317 -0.80901700255871778 0 0.5877852410284794 0.2938926205142397 0 0.40450850127935889 1 I I #
point $-1 -70.073655709585012 13.101577154920257 10.27804522585647 #
edge $-1 $742 1 $742 0 $440 $-1 forward 7 unknown #
vertex $-1 $441 $743 #
ellipse-curve $-1 -69.558531327540535 16.295585670828558 9.2857514835486317 -0.80901700255871778 0 0.5877852410284794 0.2938926205142397 0 0.40450850127935889 1 I I #
point $-1 -70.073655709585012 16.295585670828558 10.27804522585647 #
loop $-1 $-1 $452 $444 #
plane-surface $-1 -74.134342478713336 0 0 1 0 0 0 0 -1 forward_v I I I I #
coedge $-1 $618 $447 $449 $622 reversed $297 $-1 #
coedge $-1 $447 $617 $744 $745 reversed $297 $-1 #
coedge $-1 $455 $450 $447 $620 forward $445 $-1 #
edge $-1 $623 -30.442360596661587 $746 -22.908772299433423 $619 $747 forward 7 unknown #
coedge $-1 $449 $448 $626 $748 reversed $187 $-1 #
edge $-1 $749 2.4161062406544664e-014 $623 12.816906195273386 $617 $750 forward 7 unknown #
vertex $-1 $451 $751 #
straight-curve $-1 -66.600754181485172 14.63514217651467 15.058084240665284 0 1 0 I I #
coedge $-1 $744 $452 $455 $630 reversed $615 $-1 #
coedge $-1 $452 $744 $621 $748 forward $615 $-1 #
vertex $-1 $453 $752 #
straight-curve $-1 -74.134342478713336 25.543941084469658 45.919566966582828 0 0 1 I I #
straight-curve $-1 -74.13434247871335 25.543941084469658 4.6889892084889482 -0.5877852410284794 0 -0.80901700255871778 I I #
edge $-1 $746 -32.99662762158902 $456 -25.543941084469658 $625 $753 forward 7 unknown #
point $-1 -74.134342478713336 25.543941084469658 15.058084240665284 #
point $-1 -66.600754181485172 25.543941084469658 15.058084240665284 #
edge $-1 $754 1 $754 0 $459 $-1 forward 7 unknown #
vertex $-1 $460 $755 #
ellipse-curve $-1 -69.558531327540535 27.673280095075185 9.2857514835486317 -0.80901700255871778 0 0.5877852410284794 0.2938926205142397 0 0.40450850127935889 1 I I #
point $-1 -70.073655709585012 27.673280095075185 10.27804522585647 #
edge $-1 $756 1 $756 0 $463 $-1 forward 7 unknown #
vertex $-1 $464 $757 #
ellipse-curve $-1 -69.558531327540535 30.867288610983479 9.2857514835486317 -0.80901700255871778 0 0.5877852410284794 0.2938926205142397 0 0.40450850127935889 1 I I #
point $-1 -70.073655709585012 30.867288610983479 10.27804522585647 #
plane-surface $-1 0 0 15.058084240665284 0 0 1 1 0 0 forward_v I I I I #
coedge $-1 $652 $651 $644 $758 forward $468 $-1 #
coedge $-1 $644 $470 $472 $648 reversed $319 $-1 #
coedge $-1 $470 $643 $642 $758 reversed $319 $-1 #
coedge $-1 $478 $473 $470 $646 forward $479 $-1 #
edge $-1 $649 22.876887297309523 $759 33.408244175518448 $645 $760 forward 7 unknown #
coedge $-1 $472 $471 $652 $761 reversed $201 $-1 #
edge $-1 $762 -148.26868495742661 $649 -132.8267753696955 $643 $763 forward 7 unknown #
vertex $-1 $474 $764 #
straight-curve $-1 63.602985600504418 -8.047083725853625 15.058084240665266 0 -1 0 I I #
coedge $-1 $642 $475 $478 $656 reversed $468 $-1 #
coedge $-1 $475 $642 $647 $761 forward $468 $-1 #
vertex $-1 $476 $765 #
straight-curve $-1 74.134342478713336 -11.315191430915597 106.66021892735886 0 0 1 I I #
straight-curve $-1 -26.984656196813177 -11.315191430915597 112.20143917919118 0.68199835119979291 0 -0.73135370988377701 I I #
edge $-1 $759 -20.873143472498903 $480 -11.315191430915597 $651 $766 forward 7 unknown #
point $-1 74.134342478713336 -11.315191430915597 15.058084240665284 #
point $-1 63.602985600504411 -11.315191430915597 15.058084240665281 #
edge $-1 $767 1 $767 0 $483 $-1 forward 7 unknown #
vertex $-1 $484 $768 #
ellipse-curve $-1 66.616928481833526 -18.142300032046531 7.3115579817240244 0.73135370988377701 0 0.68199835119979291 0.68199835119979291 0 -0.73135370988377701 1 I I #
point $-1 69.550662390808668 -18.142300032046531 8.6799815984429607 #
edge $-1 $769 1 $769 0 $487 $-1 forward 7 unknown #
vertex $-1 $488 $770 #
ellipse-curve $-1 66.616928481833526 -14.046034871367972 7.3115579817240244 0.73135370988377701 0 0.68199835119979291 0.68199835119979291 0 -0.73135370988377701 1 I I #
point $-1 69.550662390808668 -14.046034871367972 8.6799815984429607 #
plane-surface $-1 74.134342478713336 0 0 -1 0 0 0 0 1 forward_v I I I I #
coedge $-1 $678 $494 $497 $671 reversed $341 $-1 #
edge $-1 $508 -15.058084240665284 $674 15.058084240665284 $507 $771 forward 7 unknown #
straight-curve $-1 74.134342478713336 -35.698603358092782 0 0 0 -1 I I #
edge $-1 $672 -35.698603358092782 $674 35.698603358092782 $668 $772 forward 7 unknown #
vertex $-1 $671 $773 #
straight-curve $-1 0 -35.698603358092782 -15.058084240665284 -1 0 0 I I #
vertex $-1 $500 $774 #
straight-curve $-1 0 35.698603358092782 -15.058084240665284 1 0 0 I I #
point $-1 74.134342478713336 35.698603358092782 -15.058084240665284 #
point $-1 74.134342478713336 -35.698603358092782 -15.058084240665284 #
coedge $-1 $504 $668 $510 $681 reversed $341 $-1 #
straight-curve $-1 -74.134342478713336 0 15.058084240665284 0 -1 0 I I #
point $-1 -74.134342478713336 35.698603358092782 15.058084240665284 #
edge $-1 $511 -15.058084240665284 $672 15.058084240665284 $678 $775 forward 7 unknown #
point $-1 -74.134342478713336 -35.698603358092782 15.058084240665284 #
straight-curve $-1 74.134342478713336 35.698603358092782 0 0 0 -1 I I #
plane-surface $-1 -74.134342478713336 0 0 1 0 0 0 0 -1 forward_v I I I I #
coedge $-1 $687 $696 $691 $776 forward $517 $-1 #
coedge $-1 $520 $519 $777 $778 forward $223 $-1 #
coedge $-1 $777 $685 $521 $688 reversed $517 $-1 #
edge $-1 $689 -74.134342478713336 $692 74.134342478713336 $687 $779 forward 7 unknown #
vertex $-1 $778 $780 #
straight-curve $-1 74.134342478713336 0 -15.058084240665284 0 -1 0 I I #
coedge $-1 $529 $523 $685 $776 reversed $530 $-1 #
vertex $-1 $524 $781 #
straight-curve $-1 -74.134342478713336 0 -15.058084240665284 0 1 0 I I #
point $-1 -74.134342478713336 -35.698603358092782 -15.058084240665284 #
point $-1 74.134342478713336 -35.698603358092782 -15.058084240665284 #
coedge $-1 $685 $777 $532 $697 reversed $517 $-1 #
edge $-1 $698 -74.134342478713336 $700 74.134342478713336 $696 $782 forward 7 unknown #
vertex $-1 $533 $783 #
straight-curve $-1 -74.134342478713336 -43.111333300889726 -6.3769035968250911 0 -1 0 I I #
vertex $-1 $534 $784 #
straight-curve $-1 74.134342478713336 -43.111333300889726 -6.3769035968250911 0 1 0 I I #
coedge $-1 $548 $547 $540 $703 forward $537 $-1 #
edge $-1 $704 30.861482725917543 $707 41.230577758093858 $702 $785 forward 7 unknown #
vertex $-1 $552 $786 #
straight-curve $-1 -97.043114778146759 -10.718481198875766 15.058084240665281 -1 0 0 I I #
edge $-1 $707 3.4960689651580434 $549 10.948755502277404 $548 $787 forward 7 unknown #
vertex $-1 $706 $788 #
straight-curve $-1 -74.13434247871335 -10.718481198875766 4.6889892084889482 0.5877852410284794 0 0.80901700255871778 I I #
point $-1 -66.600754181485172 -10.718481198875766 15.058084240665284 #
point $-1 -74.134342478713336 -18.171167735995127 4.6889892084889677 #
straight-curve $-1 -74.134342478713336 0 15.058084240665284 0 -1 0 I I #
vertex $-1 $555 $789 #
point $-1 -69.264638707026293 -16.041828725389596 9.6902599848279909 #
vertex $-1 $559 $790 #
point $-1 -69.264638707026293 -12.847820209481299 9.6902599848279909 #
coedge $-1 $574 $573 $566 $717 forward $563 $-1 #
edge $-1 $718 30.861482725917543 $721 41.230577758093858 $716 $791 forward 7 unknown #
vertex $-1 $578 $792 #
straight-curve $-1 -97.043114778146759 3.8532217412791621 15.058084240665281 -1 0 0 I I #
edge $-1 $721 -3.7897825049194207 $575 3.662904032199938 $574 $793 forward 7 unknown #
vertex $-1 $720 $794 #
straight-curve $-1 -74.13434247871335 3.8532217412791621 4.6889892084889482 0.5877852410284794 0 0.80901700255871778 I I #
point $-1 -66.600754181485172 3.8532217412791621 15.058084240665284 #
point $-1 -74.134342478713336 -3.5994647958401966 4.6889892084889677 #
straight-curve $-1 -74.134342478713336 0 15.058084240665284 0 -1 0 I I #
vertex $-1 $581 $795 #
point $-1 -69.264638707026293 -1.4701257852346714 9.6902599848279909 #
vertex $-1 $585 $796 #
point $-1 -69.264638707026293 1.7238827306736297 9.6902599848279909 #
coedge $-1 $600 $599 $592 $731 forward $589 $-1 #
edge $-1 $732 30.861482725917543 $735 41.230577758093858 $730 $797 forward 7 unknown #
vertex $-1 $604 $798 #
straight-curve $-1 -97.043114778146759 18.424924681434092 15.058084240665281 -1 0 0 I I #
edge $-1 $735 -11.075633974996887 $601 -3.6229474378775262 $600 $799 forward 7 unknown #
vertex $-1 $734 $800 #
straight-curve $-1 -74.13434247871335 18.424924681434092 4.6889892084889482 0.5877852410284794 0 0.80901700255871778 I I #
point $-1 -66.600754181485172 18.424924681434092 15.058084240665284 #
point $-1 -74.134342478713336 10.972238144314732 4.6889892084889677 #
straight-curve $-1 -74.134342478713336 0 15.058084240665284 0 -1 0 I I #
vertex $-1 $607 $801 #
point $-1 -69.264638707026293 13.101577154920257 9.6902599848279909 #
vertex $-1 $611 $802 #
point $-1 -69.264638707026293 16.295585670828558 9.6902599848279909 #
coedge $-1 $626 $625 $618 $745 forward $615 $-1 #
edge $-1 $746 30.861482725917543 $749 41.230577758093858 $744 $803 forward 7 unknown #
vertex $-1 $630 $804 #
straight-curve $-1 -97.043114778146759 32.99662762158902 15.058084240665281 -1 0 0 I I #
edge $-1 $749 -18.361485445074351 $627 -10.908798907954989 $626 $805 forward 7 unknown #
vertex $-1 $748 $806 #
straight-curve $-1 -74.13434247871335 32.99662762158902 4.6889892084889482 0.5877852410284794 0 0.80901700255871778 I I #
point $-1 -66.600754181485172 32.99662762158902 15.058084240665284 #
point $-1 -74.134342478713336 25.543941084469658 4.6889892084889677 #
straight-curve $-1 -74.134342478713336 0 15.058084240665284 0 -1 0 I I #
vertex $-1 $633 $807 #
point $-1 -69.264638707026293 27.673280095075185 9.6902599848279909 #
vertex $-1 $637 $808 #
point $-1 -69.264638707026293 30.867288610983479 9.6902599848279909 #
edge $-1 $759 91.602134686693574 $762 102.89563255137061 $642 $809 forward 7 unknown #
vertex $-1 $656 $810 #
straight-curve $-1 40.726098303194888 -20.873143472498903 15.058084240665281 1 0 0 I I #
edge $-1 $762 -12.826059746645278 $653 -3.268107705061972 $652 $811 forward 7 unknown #
vertex $-1 $761 $812 #
straight-curve $-1 -26.984656196813177 -20.873143472498903 112.20143917919118 -0.68199835119979291 0 0.73135370988377701 I I #
point $-1 63.602985600504411 -20.873143472498903 15.058084240665281 #
point $-1 74.134342478713336 -11.315191430915597 3.7645863759882445 #
straight-curve $-1 74.134342478713336 0 15.058084240665284 0 1 0 I I #
vertex $-1 $659 $813 #
point $-1 67.29892683303332 -18.142300032046531 6.5802042718402474 #
vertex $-1 $663 $814 #
point $-1 67.29892683303332 -14.046034871367972 6.5802042718402474 #
straight-curve $-1 -74.134342478713336 35.698603358092782 0 0 0 -1 I I #
straight-curve $-1 -74.134342478713336 0 -15.058084240665284 0 1 0 I I #
point $-1 -74.134342478713336 -35.698603358092782 -15.058084240665284 #
point $-1 -74.134342478713336 35.698603358092782 -15.058084240665284 #
straight-curve $-1 -74.134342478713336 -35.698603358092782 0 0 0 -1 I I #
edge $-1 $698 -4.3405903219200965 $692 4.3405903219200965 $691 $815 forward 7 unknown #
coedge $-1 $696 $687 $686 $778 reversed $517 $-1 #
edge $-1 $700 -4.3405903219200965 $689 4.3405903219200965 $686 $816 forward 7 unknown #
straight-curve $-1 0 -50.524063243686669 -15.058084240665284 -1 0 0 I I #
point $-1 74.134342478713336 -50.524063243686669 -15.058084240665284 #
point $-1 -74.134342478713336 -50.524063243686669 -15.058084240665284 #
straight-curve $-1 0 -50.524063243686669 -6.3769035968250911 1 0 0 I I #
point $-1 -74.134342478713336 -50.524063243686669 -6.3769035968250911 #
point $-1 74.134342478713336 -50.524063243686669 -6.3769035968250911 #
straight-curve $-1 -74.134342478713336 -10.718481198875766 45.919566966582828 0 0 -1 I I #
point $-1 -74.134342478713336 -10.718481198875766 15.058084240665284 #
straight-curve $-1 -74.134342478713336 -7.2224122337177228 4.6889892084889633 0 -1 0 I I #
point $-1 -74.134342478713336 -10.718481198875766 4.6889892084889677 #
point $-1 -69.154022826261169 -16.041828725389596 8.991858863034393 #
point $-1 -69.154022826261169 -12.847820209481299 8.991858863034393 #
straight-curve $-1 -74.134342478713336 3.8532217412791621 45.919566966582828 0 0 -1 I I #
point $-1 -74.134342478713336 3.8532217412791621 15.058084240665284 #
straight-curve $-1 -74.134342478713336 0.063439236359741358 4.6889892084889633 0 -1 0 I I #
point $-1 -74.134342478713336 3.8532217412791621 4.6889892084889677 #
point $-1 -69.154022826261169 -1.4701257852346714 8.991858863034393 #
point $-1 -69.154022826261169 1.7238827306736297 8.991858863034393 #
straight-curve $-1 -74.134342478713336 18.424924681434092 45.919566966582828 0 0 -1 I I #
point $-1 -74.134342478713336 18.424924681434092 15.058084240665284 #
straight-curve $-1 -74.134342478713336 7.3492907064372055 4.6889892084889633 0 -1 0 I I #
point $-1 -74.134342478713336 18.424924681434092 4.6889892084889677 #
point $-1 -69.154022826261169 13.101577154920257 8.991858863034393 #
point $-1 -69.154022826261169 16.295585670828558 8.991858863034393 #
straight-curve $-1 -74.134342478713336 32.99662762158902 45.919566966582828 0 0 -1 I I #
point $-1 -74.134342478713336 32.99662762158902 15.058084240665284 #
straight-curve $-1 -74.134342478713336 14.63514217651467 4.6889892084889633 0 -1 0 I I #
point $-1 -74.134342478713336 32.99662762158902 4.6889892084889677 #
point $-1 -69.154022826261169 27.673280095075185 8.991858863034393 #
point $-1 -69.154022826261169 30.867288610983479 8.991858863034393 #
straight-curve $-1 74.134342478713336 -20.873143472498903 106.66021892735886 0 0 -1 I I #
point $-1 74.134342478713336 -20.873143472498903 15.058084240665284 #
straight-curve $-1 74.134342478713322 -8.047083725853625 3.7645863759882374 0 1 0 I I #
point $-1 74.134342478713336 -20.873143472498903 3.7645863759882445 #
point $-1 65.885574771949763 -18.142300032046531 6.6295596305242315 #
point $-1 65.885574771949763 -14.046034871367972 6.6295596305242315 #
straight-curve $-1 -74.134342478713336 -50.524063243686669 -10.717493918745188 0 0 -1 I I #
straight-curve $-1 74.134342478713336 -50.524063243686669 -10.717493918745188 0 0 -1 I I #
End-of-ACIS-data 