500 0 14 0           
7 Unknown 11 ACIS 5.0 NT 24 Thu Mar 25 22:52:48 1999 
-1 9.9999999999999995e-007 1e-010 
body $-1 $14 $-1 $15 #
body $-1 $16 $-1 $17 #
body $-1 $18 $-1 $19 #
body $-1 $20 $-1 $21 #
body $-1 $22 $-1 $23 #
body $-1 $24 $-1 $25 #
body $-1 $26 $-1 $27 #
body $-1 $28 $-1 $29 #
body $-1 $30 $-1 $31 #
body $-1 $32 $-1 $33 #
body $-1 $34 $-1 $35 #
body $-1 $36 $-1 $37 #
body $-1 $38 $-1 $39 #
body $-1 $40 $-1 $41 #
lump $-1 $-1 $42 $0 #
transform $-1 1 0 0 0 1 0 0 0 1 66.176335947752307 26.823762967536297 10.191507292112183 1 rotate no_reflect no_shear #
lump $-1 $-1 $43 $1 #
transform $-1 1 0 0 0 1 0 0 0 1 66.176335947752307 26.823762967536297 10.191507292112183 1 rotate no_reflect no_shear #
lump $-1 $-1 $44 $2 #
transform $-1 1 0 0 0 1 0 0 0 1 66.176335947752307 26.823762967536297 10.191507292112183 1 rotate no_reflect no_shear #
lump $-1 $-1 $45 $3 #
transform $-1 1 0 0 0 1 0 0 0 1 66.176335947752307 26.823762967536297 10.191507292112183 1 rotate no_reflect no_shear #
lump $-1 $-1 $46 $4 #
transform $-1 1 0 0 0 1 0 0 0 1 66.176335947752307 26.823762967536297 10.191507292112183 1 rotate no_reflect no_shear #
lump $-1 $-1 $47 $5 #
transform $-1 1 0 0 0 1 0 0 0 1 66.176335947752307 26.823762967536297 10.191507292112183 1 rotate no_reflect no_shear #
lump $-1 $-1 $48 $6 #
transform $-1 1 0 0 0 1 0 0 0 1 66.176335947752307 26.823762967536297 10.191507292112183 1 rotate no_reflect no_shear #
lump $-1 $-1 $49 $7 #
transform $-1 1 0 0 0 1 0 0 0 1 66.176335947752307 26.823762967536297 10.191507292112183 1 rotate no_reflect no_shear #
lump $-1 $-1 $50 $8 #
transform $-1 1 0 0 0 1 0 0 0 1 66.176335947752307 26.823762967536297 10.191507292112183 1 rotate no_reflect no_shear #
lump $-1 $-1 $51 $9 #
transform $-1 1 0 0 0 1 0 0 0 1 66.176335947752307 26.823762967536297 10.191507292112183 1 rotate no_reflect no_shear #
lump $-1 $-1 $52 $10 #
transform $-1 1 0 0 0 1 0 0 0 1 66.176335947752307 26.823762967536297 10.191507292112183 1 rotate no_reflect no_shear #
lump $-1 $-1 $53 $11 #
transform $-1 1 0 0 0 1 0 0 0 1 66.176335947752307 26.823762967536297 10.191507292112183 1 rotate no_reflect no_shear #
lump $-1 $-1 $54 $12 #
transform $-1 1 0 0 0 1 0 0 0 1 66.176335947752307 26.823762967536297 10.191507292112183 1 rotate no_reflect no_shear #
lump $-1 $-1 $55 $13 #
transform $-1 1 0 0 0 1 0 0 0 1 66.176335947752307 26.823762967536297 10.191507292112183 1 rotate no_reflect no_shear #
shell $-1 $-1 $-1 $56 $-1 $14 #
shell $-1 $-1 $-1 $57 $-1 $16 #
shell $-1 $-1 $-1 $58 $-1 $18 #
shell $-1 $-1 $-1 $59 $-1 $20 #
shell $-1 $-1 $-1 $60 $-1 $22 #
shell $-1 $-1 $-1 $61 $-1 $24 #
shell $-1 $-1 $-1 $62 $-1 $26 #
shell $-1 $-1 $-1 $63 $-1 $28 #
shell $-1 $-1 $-1 $64 $-1 $30 #
shell $-1 $-1 $-1 $65 $-1 $32 #
shell $-1 $-1 $-1 $66 $-1 $34 #
shell $-1 $-1 $-1 $67 $-1 $36 #
shell $-1 $-1 $-1 $68 $-1 $38 #
shell $-1 $-1 $-1 $69 $-1 $40 #
face $-1 $70 $71 $42 $-1 $72 forward single #
face $-1 $73 $74 $43 $-1 $75 reversed single #
face $-1 $76 $77 $44 $-1 $78 reversed single #
face $-1 $79 $80 $45 $-1 $81 forward single #
face $-1 $82 $83 $46 $-1 $84 forward single #
face $-1 $85 $86 $47 $-1 $87 forward single #
face $-1 $88 $89 $48 $-1 $90 reversed single #
face $-1 $91 $92 $49 $-1 $93 forward single #
face $-1 $94 $95 $50 $-1 $96 reversed single #
face $-1 $97 $98 $51 $-1 $99 forward single #
face $-1 $100 $101 $52 $-1 $102 reversed single #
face $-1 $103 $104 $53 $-1 $105 forward single #
face $-1 $106 $107 $54 $-1 $108 reversed single #
face $-1 $109 $110 $55 $-1 $111 forward single #
face $-1 $112 $113 $42 $-1 $114 reversed single #
loop $-1 $-1 $115 $56 #
plane-surface $-1 0 0 10.191507292112183 0 0 1 1 0 0 forward_v I I I I #
face $-1 $116 $117 $43 $-1 $118 reversed single #
loop $-1 $-1 $119 $57 #
plane-surface $-1 0 -23.265447354725485 5.1786430376191861 0 0 1 1 0 0 forward_v I I I I #
face $-1 $120 $121 $44 $-1 $122 reversed single #
loop $-1 $-1 $123 $58 #
plane-surface $-1 -151.25099459674374 8.9559545251099522 104.75124881474376 0 1 0 -0.64278761758704617 0 0.76604443648966558 forward_v I I I I #
face $-1 $124 $125 $45 $-1 $126 forward single #
loop $-1 $127 $128 $59 #
cone-surface $-1 -61.649213388727532 10.176698612834066 6.2311772189667822 0.64278761758704617 0 -0.76604443648966558 0.38302221824483279 0 0.32139380879352308 1 I I 0 1 0.5 forward I I I I #
face $-1 $129 $130 $46 $-1 $131 forward single #
loop $-1 $132 $133 $60 #
cone-surface $-1 -61.649213388727532 12.007814744420244 6.2311772189667822 0.64278761758704617 0 -0.76604443648966558 0.38302221824483279 0 0.32139380879352308 1 I I 0 1 0.5 forward I I I I #
face $-1 $134 $135 $47 $-1 $136 forward single #
loop $-1 $137 $138 $61 #
cone-surface $-1 -61.649213388727532 13.838930876006422 6.2311772189667822 0.64278761758704617 0 -0.76604443648966558 0.38302221824483279 0 0.32139380879352308 1 I I 0 1 0.5 forward I I I I #
face $-1 $139 $140 $48 $-1 $141 reversed single #
loop $-1 $-1 $142 $62 #
plane-surface $-1 62.909684880101963 -10.202804389502042 190.86410749689168 0 -1 0 -0.69465837861970381 0 -0.71933979245794832 forward_v I I I I #
face $-1 $143 $144 $49 $-1 $145 forward single #
loop $-1 $146 $147 $63 #
cone-surface $-1 62.295592857726625 -13.846585935311136 6.406983828633849 -0.69465837861970381 0 -0.71933979245794832 1.0790096886869225 0 -1.0419875679295556 1 I I 0 1 1.5 forward I I I I #
face $-1 $148 $149 $50 $-1 $150 reversed single #
loop $-1 $-1 $151 $64 #
plane-surface $-1 62.909684880101963 1.4004633092459251 190.86410749689168 0 -1 0 -0.69465837861970381 0 -0.71933979245794832 forward_v I I I I #
face $-1 $152 $153 $51 $-1 $154 forward single #
loop $-1 $155 $156 $65 #
cone-surface $-1 62.295592857726625 -2.2433182365631694 6.406983828633849 -0.69465837861970381 0 -0.71933979245794832 1.0790096886869225 0 -1.0419875679295556 1 I I 0 1 1.5 forward I I I I #
face $-1 $157 $158 $52 $-1 $159 reversed single #
loop $-1 $-1 $160 $66 #
plane-surface $-1 62.909684880101963 13.003731007993895 190.86410749689168 0 -1 0 -0.69465837861970381 0 -0.71933979245794832 forward_v I I I I #
face $-1 $161 $162 $53 $-1 $163 forward single #
loop $-1 $164 $165 $67 #
cone-surface $-1 62.295592857726625 9.359949462184801 6.406983828633849 -0.69465837861970381 0 -0.71933979245794832 1.0790096886869225 0 -1.0419875679295556 1 I I 0 1 1.5 forward I I I I #
face $-1 $166 $167 $54 $-1 $168 reversed single #
loop $-1 $-1 $169 $68 #
plane-surface $-1 62.909684880101963 24.606998706741866 190.86410749689168 0 -1 0 -0.69465837861970381 0 -0.71933979245794832 forward_v I I I I #
face $-1 $170 $171 $55 $-1 $172 forward single #
loop $-1 $173 $174 $69 #
cone-surface $-1 62.295592857726625 20.963217160932771 6.406983828633849 -0.69465837861970381 0 -0.71933979245794832 1.0790096886869225 0 -1.0419875679295556 1 I I 0 1 1.5 forward I I I I #
face $-1 $175 $176 $42 $-1 $177 reversed single #
loop $-1 $-1 $178 $70 #
plane-surface $-1 0 0 -10.191507292112183 0 0 1 1 0 0 forward_v I I I I #
coedge $-1 $179 $180 $181 $182 forward $71 $-1 #
face $-1 $183 $184 $43 $-1 $185 reversed single #
loop $-1 $-1 $186 $73 #
plane-surface $-1 0 -19.707131741914672 7.685075164865685 0 -1 0 0 0 -1 forward_v I I I I #
coedge $-1 $187 $188 $189 $190 reversed $74 $-1 #
face $-1 $191 $192 $44 $-1 $193 reversed single #
loop $-1 $-1 $194 $76 #
plane-surface $-1 -66.176335947752321 12.007814744420244 3.3632208546503364 -0.64278761758704617 0 0.76604443648966558 0.76604443648966558 0 0.64278761758704617 forward_v I I I I #
coedge $-1 $195 $196 $197 $198 reversed $77 $-1 #
face $-1 $-1 $199 $45 $-1 $200 forward single #
loop $-1 $201 $202 $79 #
cone-surface $-1 -61.030211286638526 10.176698612834066 5.4934792554298966 0.64278761758704617 0 -0.76604443648966558 0.1915111091224164 0 0.16069690439676154 1 I I -0.70710678118654746 0.70710678118654746 0.25 forward I I I I #
loop $-1 $-1 $203 $59 #
coedge $-1 $128 $128 $204 $205 reversed $80 $-1 #
face $-1 $-1 $206 $46 $-1 $207 forward single #
loop $-1 $208 $209 $82 #
cone-surface $-1 -61.030211286638526 12.007814744420244 5.4934792554298966 0.64278761758704617 0 -0.76604443648966558 0.1915111091224164 0 0.16069690439676154 1 I I -0.70710678118654746 0.70710678118654746 0.25 forward I I I I #
loop $-1 $-1 $210 $60 #
coedge $-1 $133 $133 $211 $212 reversed $83 $-1 #
face $-1 $-1 $213 $47 $-1 $214 forward single #
loop $-1 $215 $216 $85 #
cone-surface $-1 -61.030211286638526 13.838930876006422 5.4934792554298966 0.64278761758704617 0 -0.76604443648966558 0.1915111091224164 0 0.16069690439676154 1 I I -0.70710678118654746 0.70710678118654746 0.25 forward I I I I #
loop $-1 $-1 $217 $61 #
coedge $-1 $138 $138 $218 $219 reversed $86 $-1 #
face $-1 $220 $221 $48 $-1 $222 reversed single #
loop $-1 $-1 $223 $88 #
plane-surface $-1 -29.030207584814917 -13.846585935311136 95.657563964324453 0.69465837861970381 0 0.71933979245794832 0.71933979245794832 0 -0.69465837861970381 forward_v I I I I #
coedge $-1 $224 $225 $226 $227 reversed $89 $-1 #
face $-1 $-1 $228 $49 $-1 $229 forward single #
loop $-1 $230 $231 $91 #
cone-surface $-1 61.245782512560496 -13.846585935311136 5.3198734171643398 -0.69465837861970381 0 -0.71933979245794832 0.53950484434346124 0 -0.5209937839647778 1 I I -0.70710678118654713 0.70710678118654802 0.75 forward I I I I #
loop $-1 $-1 $232 $63 #
coedge $-1 $147 $147 $233 $234 reversed $92 $-1 #
face $-1 $235 $236 $50 $-1 $237 reversed single #
loop $-1 $-1 $238 $94 #
plane-surface $-1 -29.030207584814917 -2.2433182365631694 95.657563964324453 0.69465837861970381 0 0.71933979245794832 0.71933979245794832 0 -0.69465837861970381 forward_v I I I I #
coedge $-1 $239 $240 $241 $242 reversed $95 $-1 #
face $-1 $-1 $243 $51 $-1 $244 forward single #
loop $-1 $245 $246 $97 #
cone-surface $-1 61.245782512560496 -2.2433182365631694 5.3198734171643398 -0.69465837861970381 0 -0.71933979245794832 0.53950484434346124 0 -0.5209937839647778 1 I I -0.70710678118654713 0.70710678118654802 0.75 forward I I I I #
loop $-1 $-1 $247 $65 #
coedge $-1 $156 $156 $248 $249 reversed $98 $-1 #
face $-1 $250 $251 $52 $-1 $252 reversed single #
loop $-1 $-1 $253 $100 #
plane-surface $-1 -29.030207584814917 9.359949462184801 95.657563964324453 0.69465837861970381 0 0.71933979245794832 0.71933979245794832 0 -0.69465837861970381 forward_v I I I I #
coedge $-1 $254 $255 $256 $257 reversed $101 $-1 #
face $-1 $-1 $258 $53 $-1 $259 forward single #
loop $-1 $260 $261 $103 #
cone-surface $-1 61.245782512560496 9.359949462184801 5.3198734171643398 -0.69465837861970381 0 -0.71933979245794832 0.53950484434346124 0 -0.5209937839647778 1 I I -0.70710678118654713 0.70710678118654802 0.75 forward I I I I #
loop $-1 $-1 $262 $67 #
coedge $-1 $165 $165 $263 $264 reversed $104 $-1 #
face $-1 $265 $266 $54 $-1 $267 reversed single #
loop $-1 $-1 $268 $106 #
plane-surface $-1 -29.030207584814917 20.963217160932771 95.657563964324453 0.69465837861970381 0 0.71933979245794832 0.71933979245794832 0 -0.69465837861970381 forward_v I I I I #
coedge $-1 $269 $270 $271 $272 reversed $107 $-1 #
face $-1 $-1 $273 $55 $-1 $274 forward single #
loop $-1 $275 $276 $109 #
cone-surface $-1 61.245782512560496 20.963217160932771 5.3198734171643398 -0.69465837861970381 0 -0.71933979245794832 0.53950484434346124 0 -0.5209937839647778 1 I I -0.70710678118654713 0.70710678118654802 0.75 forward I I I I #
loop $-1 $-1 $277 $69 #
coedge $-1 $174 $174 $278 $279 reversed $110 $-1 #
face $-1 $280 $281 $42 $-1 $282 reversed single #
loop $-1 $-1 $283 $112 #
plane-surface $-1 0 -26.823762967536297 0 0 1 0 0 0 1 forward_v I I I I #
coedge $-1 $284 $285 $286 $287 forward $113 $-1 #
coedge $-1 $288 $115 $289 $290 forward $71 $-1 #
coedge $-1 $115 $288 $291 $292 forward $71 $-1 #
coedge $-1 $293 $294 $115 $182 reversed $295 $-1 #
edge $-1 $296 -26.823762967536297 $297 26.823762967536297 $181 $298 forward 7 unknown #
face $-1 $299 $300 $43 $-1 $301 reversed single #
loop $-1 $-1 $302 $116 #
plane-surface $-1 -66.176335947752307 0 0 1 0 0 0 0 -1 forward_v I I I I #
coedge $-1 $303 $304 $305 $306 reversed $117 $-1 #
coedge $-1 $307 $119 $308 $309 reversed $74 $-1 #
coedge $-1 $119 $307 $303 $310 forward $74 $-1 #
coedge $-1 $305 $311 $119 $190 forward $312 $-1 #
edge $-1 $313 -15.191039290173554 $314 -8.0744080645519301 $189 $315 forward 7 unknown #
face $-1 $316 $317 $44 $-1 $318 forward single #
loop $-1 $-1 $319 $120 #
plane-surface $-1 -151.25099459674374 15.059674963730536 104.75124881474376 0 -1 0 0.64278761758704617 0 -0.76604443648966558 forward_v I I I I #
coedge $-1 $320 $321 $322 $323 reversed $121 $-1 #
coedge $-1 $196 $123 $324 $325 reversed $77 $-1 #
coedge $-1 $123 $195 $320 $326 reversed $77 $-1 #
coedge $-1 $322 $327 $123 $198 forward $317 $-1 #
edge $-1 $328 9.449161350619562 $329 17.586796073284589 $197 $330 forward 7 unknown #
loop $-1 $-1 $204 $124 #
plane-surface $-1 -66.176335947752321 12.007814744420244 3.3632208546503364 -0.64278761758704617 0 0.76604443648966558 0.76604443648966558 0 0.64278761758704617 forward_v I I I I #
loop $-1 $-1 $331 $79 #
coedge $-1 $202 $202 $203 $332 reversed $125 $-1 #
coedge $-1 $203 $203 $202 $332 forward $127 $-1 #
coedge $-1 $204 $204 $128 $205 forward $199 $-1 #
edge $-1 $333 0 $333 6.2831853071796004 $204 $334 forward 7 unknown #
loop $-1 $-1 $211 $129 #
plane-surface $-1 -66.176335947752321 12.007814744420244 3.3632208546503364 -0.64278761758704617 0 0.76604443648966558 0.76604443648966558 0 0.64278761758704617 forward_v I I I I #
loop $-1 $-1 $335 $82 #
coedge $-1 $209 $209 $210 $336 reversed $130 $-1 #
coedge $-1 $210 $210 $209 $336 forward $132 $-1 #
coedge $-1 $211 $211 $133 $212 forward $206 $-1 #
edge $-1 $337 0 $337 6.2831853071796004 $211 $338 forward 7 unknown #
loop $-1 $-1 $218 $134 #
plane-surface $-1 -66.176335947752321 12.007814744420244 3.3632208546503364 -0.64278761758704617 0 0.76604443648966558 0.76604443648966558 0 0.64278761758704617 forward_v I I I I #
loop $-1 $-1 $339 $85 #
coedge $-1 $216 $216 $217 $340 reversed $135 $-1 #
coedge $-1 $217 $217 $216 $340 forward $137 $-1 #
coedge $-1 $218 $218 $138 $219 forward $213 $-1 #
edge $-1 $341 0 $341 6.2831853071796004 $218 $342 forward 7 unknown #
face $-1 $343 $344 $48 $-1 $345 reversed single #
loop $-1 $-1 $346 $139 #
plane-surface $-1 62.909684880101963 -17.490367481120231 190.86410749689168 0 1 0 0.69465837861970381 0 0.71933979245794832 forward_v I I I I #
coedge $-1 $347 $348 $349 $350 reversed $140 $-1 #
coedge $-1 $225 $142 $351 $352 reversed $89 $-1 #
coedge $-1 $142 $224 $347 $353 reversed $89 $-1 #
coedge $-1 $349 $354 $142 $227 forward $355 $-1 #
edge $-1 $356 -34.721493507701325 $357 -28.017640450052653 $226 $358 forward 7 unknown #
loop $-1 $-1 $233 $143 #
plane-surface $-1 -29.030207584814917 -13.846585935311136 95.657563964324453 0.69465837861970381 0 0.71933979245794832 0.71933979245794832 0 -0.69465837861970381 forward_v I I I I #
loop $-1 $-1 $359 $91 #
coedge $-1 $231 $231 $232 $360 reversed $144 $-1 #
coedge $-1 $232 $232 $231 $360 forward $146 $-1 #
coedge $-1 $233 $233 $147 $234 forward $228 $-1 #
edge $-1 $361 0 $361 6.2831853071796004 $233 $362 forward 7 unknown #
face $-1 $363 $364 $50 $-1 $365 reversed single #
loop $-1 $-1 $366 $148 #
plane-surface $-1 62.909684880101963 -5.8870997823722639 190.86410749689168 0 1 0 0.69465837861970381 0 0.71933979245794832 forward_v I I I I #
coedge $-1 $367 $368 $369 $370 reversed $149 $-1 #
coedge $-1 $240 $151 $371 $372 reversed $95 $-1 #
coedge $-1 $151 $239 $367 $373 reversed $95 $-1 #
coedge $-1 $369 $374 $151 $242 forward $375 $-1 #
edge $-1 $376 -34.721493507701325 $377 -28.017640450052653 $241 $378 forward 7 unknown #
loop $-1 $-1 $248 $152 #
plane-surface $-1 -29.030207584814917 -2.2433182365631694 95.657563964324453 0.69465837861970381 0 0.71933979245794832 0.71933979245794832 0 -0.69465837861970381 forward_v I I I I #
loop $-1 $-1 $379 $97 #
coedge $-1 $246 $246 $247 $380 reversed $153 $-1 #
coedge $-1 $247 $247 $246 $380 forward $155 $-1 #
coedge $-1 $248 $248 $156 $249 forward $243 $-1 #
edge $-1 $381 0 $381 6.2831853071796004 $248 $382 forward 7 unknown #
face $-1 $383 $384 $52 $-1 $385 reversed single #
loop $-1 $-1 $386 $157 #
plane-surface $-1 62.909684880101963 5.7161679163757064 190.86410749689168 0 1 0 0.69465837861970381 0 0.71933979245794832 forward_v I I I I #
coedge $-1 $387 $388 $389 $390 reversed $158 $-1 #
coedge $-1 $255 $160 $391 $392 reversed $101 $-1 #
coedge $-1 $160 $254 $387 $393 reversed $101 $-1 #
coedge $-1 $389 $394 $160 $257 forward $395 $-1 #
edge $-1 $396 -34.721493507701325 $397 -28.017640450052653 $256 $398 forward 7 unknown #
loop $-1 $-1 $263 $161 #
plane-surface $-1 -29.030207584814917 9.359949462184801 95.657563964324453 0.69465837861970381 0 0.71933979245794832 0.71933979245794832 0 -0.69465837861970381 forward_v I I I I #
loop $-1 $-1 $399 $103 #
coedge $-1 $261 $261 $262 $400 reversed $162 $-1 #
coedge $-1 $262 $262 $261 $400 forward $164 $-1 #
coedge $-1 $263 $263 $165 $264 forward $258 $-1 #
edge $-1 $401 0 $401 6.2831853071796004 $263 $402 forward 7 unknown #
face $-1 $403 $404 $54 $-1 $405 reversed single #
loop $-1 $-1 $406 $166 #
plane-surface $-1 62.909684880101963 17.319435615123677 190.86410749689168 0 1 0 0.69465837861970381 0 0.71933979245794832 forward_v I I I I #
coedge $-1 $407 $408 $409 $410 reversed $167 $-1 #
coedge $-1 $270 $169 $411 $412 reversed $107 $-1 #
coedge $-1 $169 $269 $407 $413 reversed $107 $-1 #
coedge $-1 $409 $414 $169 $272 forward $415 $-1 #
edge $-1 $416 -34.721493507701325 $417 -28.017640450052653 $271 $418 forward 7 unknown #
loop $-1 $-1 $278 $170 #
plane-surface $-1 -29.030207584814917 20.963217160932771 95.657563964324453 0.69465837861970381 0 0.71933979245794832 0.71933979245794832 0 -0.69465837861970381 forward_v I I I I #
loop $-1 $-1 $419 $109 #
coedge $-1 $276 $276 $277 $420 reversed $171 $-1 #
coedge $-1 $277 $277 $276 $420 forward $173 $-1 #
coedge $-1 $278 $278 $174 $279 forward $273 $-1 #
edge $-1 $421 0 $421 6.2831853071796004 $278 $422 forward 7 unknown #
face $-1 $423 $424 $42 $-1 $425 reversed single #
loop $-1 $-1 $426 $175 #
plane-surface $-1 -66.176335947752307 0 0 1 0 0 0 0 -1 forward_v I I I I #
coedge $-1 $427 $291 $428 $429 forward $176 $-1 #
coedge $-1 $430 $178 $427 $431 forward $113 $-1 #
coedge $-1 $178 $430 $432 $433 forward $113 $-1 #
coedge $-1 $294 $293 $178 $287 reversed $295 $-1 #
edge $-1 $434 -26.823762967536297 $435 26.823762967536297 $286 $436 forward 7 unknown #
coedge $-1 $180 $179 $437 $438 forward $71 $-1 #
coedge $-1 $439 $440 $179 $290 reversed $424 $-1 #
edge $-1 $297 -66.176335947752307 $441 66.176335947752307 $289 $442 forward 7 unknown #
coedge $-1 $283 $443 $180 $292 reversed $176 $-1 #
edge $-1 $444 -66.176335947752307 $296 66.176335947752307 $291 $445 forward 7 unknown #
coedge $-1 $286 $181 $443 $446 forward $295 $-1 #
coedge $-1 $181 $286 $439 $447 reversed $295 $-1 #
loop $-1 $-1 $293 $423 #
vertex $-1 $182 $448 #
vertex $-1 $182 $449 #
straight-curve $-1 66.176335947752307 0 10.191507292112183 0 1 0 I I #
face $-1 $450 $451 $43 $-1 $452 forward single #
loop $-1 $-1 $308 $183 #
plane-surface $-1 0 -26.823762967536297 0 0 1 0 0 0 1 forward_v I I I I #
coedge $-1 $453 $454 $455 $456 forward $184 $-1 #
coedge $-1 $455 $186 $188 $310 reversed $117 $-1 #
coedge $-1 $186 $455 $457 $458 reversed $117 $-1 #
coedge $-1 $459 $189 $186 $306 forward $312 $-1 #
edge $-1 $314 1.3361054551863436 $460 6.3489697096793423 $305 $461 forward 7 unknown #
coedge $-1 $188 $187 $453 $462 reversed $74 $-1 #
coedge $-1 $463 $464 $187 $309 forward $300 $-1 #
edge $-1 $465 -66.176335947752307 $313 66.176335947752307 $308 $466 forward 7 unknown #
edge $-1 $467 -66.176335947752307 $314 66.176335947752307 $303 $468 forward 7 unknown #
coedge $-1 $189 $459 $463 $469 forward $312 $-1 #
loop $-1 $-1 $305 $450 #
vertex $-1 $309 $470 #
vertex $-1 $190 $471 #
straight-curve $-1 66.176335947752307 -11.632723677362742 5.1786430376191861 0 1 0 I I #
face $-1 $-1 $472 $44 $-1 $473 reversed single #
loop $-1 $-1 $197 $191 #
plane-surface $-1 0 0 10.191507292112183 0 0 1 1 0 0 forward_v I I I I #
coedge $-1 $474 $475 $476 $477 reversed $192 $-1 #
coedge $-1 $478 $194 $196 $326 forward $121 $-1 #
coedge $-1 $194 $478 $474 $479 forward $121 $-1 #
coedge $-1 $476 $197 $194 $323 forward $317 $-1 #
edge $-1 $329 2.95204715289983 $480 9.0557675915204143 $322 $481 forward 7 unknown #
coedge $-1 $482 $483 $195 $325 forward $472 $-1 #
edge $-1 $484 -49.01240355272153 $328 -42.184117115259696 $324 $485 forward 7 unknown #
edge $-1 $329 -10.622927776820717 $484 -1.8593432412625586e-014 $196 $486 forward 7 unknown #
coedge $-1 $197 $476 $482 $487 forward $317 $-1 #
vertex $-1 $325 $488 #
vertex $-1 $198 $489 #
straight-curve $-1 -75.625497298371869 8.9559545251099522 10.191507292112185 1 0 0 I I #
coedge $-1 $331 $331 $-1 $490 reversed $201 $-1 #
edge $-1 $491 0 $491 6.2831853071796004 $202 $492 forward 7 unknown #
vertex $-1 $205 $493 #
ellipse-curve $-1 -62.107518586419786 10.176698612834066 6.7773640733812686 -0.64278761758704617 0 0.76604443648966558 0.38302221824483279 0 0.32139380879352308 1 I I #
coedge $-1 $335 $335 $-1 $494 reversed $208 $-1 #
edge $-1 $495 0 $495 6.2831853071796004 $209 $496 forward 7 unknown #
vertex $-1 $212 $497 #
ellipse-curve $-1 -62.107518586419786 12.007814744420244 6.7773640733812686 -0.64278761758704617 0 0.76604443648966558 0.38302221824483279 0 0.32139380879352308 1 I I #
coedge $-1 $339 $339 $-1 $498 reversed $215 $-1 #
edge $-1 $499 0 $499 6.2831853071796004 $216 $500 forward 7 unknown #
vertex $-1 $219 $501 #
ellipse-curve $-1 -62.107518586419786 13.838930876006422 6.7773640733812686 -0.64278761758704617 0 0.76604443648966558 0.38302221824483279 0 0.32139380879352308 1 I I #
face $-1 $-1 $355 $48 $-1 $502 forward single #
loop $-1 $-1 $503 $220 #
plane-surface $-1 66.176335947752307 0 0 -1 0 0 0 0 1 forward_v I I I I #
coedge $-1 $504 $505 $506 $507 reversed $221 $-1 #
coedge $-1 $508 $223 $225 $353 forward $140 $-1 #
coedge $-1 $223 $508 $504 $509 forward $140 $-1 #
coedge $-1 $506 $226 $223 $350 forward $355 $-1 #
edge $-1 $357 3.2795114218464736 $510 10.567074513464663 $349 $511 forward 7 unknown #
coedge $-1 $512 $513 $224 $352 forward $344 $-1 #
edge $-1 $514 -91.714382249038266 $356 -85.240546456333661 $351 $515 forward 7 unknown #
edge $-1 $357 123.03321935313664 $514 132.35267189550461 $225 $516 forward 7 unknown #
coedge $-1 $226 $506 $512 $517 forward $355 $-1 #
loop $-1 $-1 $506 $343 #
vertex $-1 $352 $518 #
vertex $-1 $227 $519 #
straight-curve $-1 31.454842440050982 -10.202804389502042 10.191507292112178 -1 0 0 I I #
coedge $-1 $359 $359 $-1 $520 reversed $230 $-1 #
edge $-1 $521 0 $521 6.2831853071796004 $231 $522 forward 7 unknown #
vertex $-1 $234 $523 #
ellipse-curve $-1 62.824409418927949 -13.846585935311136 6.954589395759875 0.69465837861970381 0 0.71933979245794832 1.0790096886869225 0 -1.0419875679295556 1 I I #
face $-1 $-1 $375 $50 $-1 $524 forward single #
loop $-1 $-1 $525 $235 #
plane-surface $-1 66.176335947752307 0 0 -1 0 0 0 0 1 forward_v I I I I #
coedge $-1 $526 $527 $528 $529 reversed $236 $-1 #
coedge $-1 $530 $238 $240 $373 forward $149 $-1 #
coedge $-1 $238 $530 $526 $531 forward $149 $-1 #
coedge $-1 $528 $241 $238 $370 forward $375 $-1 #
edge $-1 $377 -2.5221224275275098 $532 4.7654406640906792 $369 $533 forward 7 unknown #
coedge $-1 $534 $535 $239 $372 forward $364 $-1 #
edge $-1 $536 -91.714382249038266 $376 -85.240546456333661 $371 $537 forward 7 unknown #
edge $-1 $377 123.03321935313664 $536 132.35267189550461 $240 $538 forward 7 unknown #
coedge $-1 $241 $528 $534 $539 forward $375 $-1 #
loop $-1 $-1 $528 $363 #
vertex $-1 $372 $540 #
vertex $-1 $242 $541 #
straight-curve $-1 31.454842440050982 1.4004633092459251 10.191507292112178 -1 0 0 I I #
coedge $-1 $379 $379 $-1 $542 reversed $245 $-1 #
edge $-1 $543 0 $543 6.2831853071796004 $246 $544 forward 7 unknown #
vertex $-1 $249 $545 #
ellipse-curve $-1 62.824409418927949 -2.2433182365631694 6.954589395759875 0.69465837861970381 0 0.71933979245794832 1.0790096886869225 0 -1.0419875679295556 1 I I #
face $-1 $-1 $395 $52 $-1 $546 forward single #
loop $-1 $-1 $547 $250 #
plane-surface $-1 66.176335947752307 0 0 -1 0 0 0 0 1 forward_v I I I I #
coedge $-1 $548 $549 $550 $551 reversed $251 $-1 #
coedge $-1 $552 $253 $255 $393 forward $158 $-1 #
coedge $-1 $253 $552 $548 $553 forward $158 $-1 #
coedge $-1 $550 $256 $253 $390 forward $395 $-1 #
edge $-1 $397 -8.323756276901495 $554 -1.036193185283306 $389 $555 forward 7 unknown #
coedge $-1 $556 $557 $254 $392 forward $384 $-1 #
edge $-1 $558 -91.714382249038266 $396 -85.240546456333661 $391 $559 forward 7 unknown #
edge $-1 $397 123.03321935313664 $558 132.35267189550461 $255 $560 forward 7 unknown #
coedge $-1 $256 $550 $556 $561 forward $395 $-1 #
loop $-1 $-1 $550 $383 #
vertex $-1 $392 $562 #
vertex $-1 $257 $563 #
straight-curve $-1 31.454842440050982 13.003731007993895 10.191507292112178 -1 0 0 I I #
coedge $-1 $399 $399 $-1 $564 reversed $260 $-1 #
edge $-1 $565 0 $565 6.2831853071796004 $261 $566 forward 7 unknown #
vertex $-1 $264 $567 #
ellipse-curve $-1 62.824409418927949 9.359949462184801 6.954589395759875 0.69465837861970381 0 0.71933979245794832 1.0790096886869225 0 -1.0419875679295556 1 I I #
face $-1 $-1 $415 $54 $-1 $568 forward single #
loop $-1 $-1 $569 $265 #
plane-surface $-1 66.176335947752307 0 0 -1 0 0 0 0 1 forward_v I I I I #
coedge $-1 $570 $571 $572 $573 reversed $266 $-1 #
coedge $-1 $574 $268 $270 $413 forward $167 $-1 #
coedge $-1 $268 $574 $570 $575 forward $167 $-1 #
coedge $-1 $572 $271 $268 $410 forward $415 $-1 #
edge $-1 $417 -14.12539012627548 $576 -6.8378270346572911 $409 $577 forward 7 unknown #
coedge $-1 $578 $579 $269 $412 forward $404 $-1 #
edge $-1 $580 -91.714382249038266 $416 -85.240546456333661 $411 $581 forward 7 unknown #
edge $-1 $417 123.03321935313664 $580 132.35267189550461 $270 $582 forward 7 unknown #
coedge $-1 $271 $572 $578 $583 forward $415 $-1 #
loop $-1 $-1 $572 $403 #
vertex $-1 $412 $584 #
vertex $-1 $272 $585 #
straight-curve $-1 31.454842440050982 24.606998706741866 10.191507292112178 -1 0 0 I I #
coedge $-1 $419 $419 $-1 $586 reversed $275 $-1 #
edge $-1 $587 0 $587 6.2831853071796004 $276 $588 forward 7 unknown #
vertex $-1 $279 $589 #
ellipse-curve $-1 62.824409418927949 20.963217160932771 6.954589395759875 0.69465837861970381 0 0.71933979245794832 1.0790096886869225 0 -1.0419875679295556 1 I I #
face $-1 $-1 $295 $42 $-1 $590 reversed single #
loop $-1 $-1 $439 $280 #
plane-surface $-1 0 26.823762967536297 0 0 -1 0 0 0 -1 forward_v I I I I #
coedge $-1 $591 $437 $440 $592 forward $281 $-1 #
coedge $-1 $443 $283 $284 $431 reversed $176 $-1 #
coedge $-1 $437 $591 $283 $429 reversed $281 $-1 #
edge $-1 $444 -10.191507292112183 $593 10.191507292112183 $428 $594 forward 7 unknown #
coedge $-1 $285 $284 $591 $595 forward $113 $-1 #
edge $-1 $435 -66.176335947752307 $593 66.176335947752307 $427 $596 forward 7 unknown #
coedge $-1 $440 $439 $285 $433 reversed $424 $-1 #
edge $-1 $597 -66.176335947752307 $434 66.176335947752307 $432 $598 forward 7 unknown #
vertex $-1 $287 $599 #
vertex $-1 $446 $600 #
straight-curve $-1 66.176335947752307 0 -10.191507292112183 0 -1 0 I I #
coedge $-1 $426 $428 $288 $438 reversed $281 $-1 #
edge $-1 $441 -26.823762967536297 $444 26.823762967536297 $437 $601 forward 7 unknown #
coedge $-1 $432 $289 $294 $447 forward $424 $-1 #
coedge $-1 $289 $432 $426 $592 reversed $424 $-1 #
vertex $-1 $290 $602 #
straight-curve $-1 0 26.823762967536297 10.191507292112183 -1 0 0 I I #
coedge $-1 $291 $427 $293 $446 reversed $176 $-1 #
vertex $-1 $438 $603 #
straight-curve $-1 0 -26.823762967536297 10.191507292112183 1 0 0 I I #
edge $-1 $296 -10.191507292112183 $435 10.191507292112183 $293 $604 forward 7 unknown #
edge $-1 $297 -10.191507292112183 $434 10.191507292112183 $294 $605 forward 7 unknown #
point $-1 66.176335947752307 -26.823762967536297 10.191507292112183 #
point $-1 66.176335947752307 26.823762967536297 10.191507292112183 #
face $-1 $-1 $312 $43 $-1 $606 reversed single #
loop $-1 $-1 $457 $299 #
plane-surface $-1 0 0 10.191507292112183 0 0 1 1 0 0 forward_v I I I I #
coedge $-1 $607 $302 $307 $462 forward $184 $-1 #
coedge $-1 $302 $607 $608 $609 reversed $184 $-1 #
coedge $-1 $304 $303 $302 $456 reversed $117 $-1 #
edge $-1 $610 -6.3489697096793423 $467 -1.3361054551863436 $302 $611 forward 7 unknown #
coedge $-1 $608 $612 $304 $458 forward $451 $-1 #
edge $-1 $460 -66.176335947752307 $610 66.176335947752307 $457 $613 forward 7 unknown #
coedge $-1 $311 $305 $612 $614 reversed $312 $-1 #
vertex $-1 $306 $615 #
straight-curve $-1 66.176335947752307 -19.707131741914672 3.8425375824328425 0 0 1 I I #
edge $-1 $467 8.0744080645519301 $465 15.191039290173554 $453 $616 forward 7 unknown #
coedge $-1 $617 $308 $311 $469 reversed $300 $-1 #
coedge $-1 $308 $617 $607 $618 forward $300 $-1 #
vertex $-1 $309 $619 #
straight-curve $-1 0 -26.823762967536297 5.1786430376191861 1 0 0 I I #
vertex $-1 $462 $620 #
straight-curve $-1 0 -19.707131741914672 5.1786430376191861 1 0 0 I I #
edge $-1 $621 -10.191507292112183 $313 -5.1786430376191861 $311 $622 forward 7 unknown #
point $-1 66.176335947752307 -26.823762967536297 5.1786430376191861 #
point $-1 66.176335947752307 -19.707131741914672 5.1786430376191861 #
loop $-1 $-1 $324 $316 #
plane-surface $-1 -66.176335947752307 0 0 1 0 0 0 0 -1 forward_v I I I I #
coedge $-1 $475 $319 $321 $479 reversed $192 $-1 #
coedge $-1 $319 $474 $623 $624 reversed $192 $-1 #
coedge $-1 $327 $322 $319 $477 forward $317 $-1 #
edge $-1 $480 -17.586796073284589 $625 -9.449161350619562 $476 $626 forward 7 unknown #
coedge $-1 $321 $320 $483 $627 reversed $121 $-1 #
edge $-1 $628 1.8593432412625586e-014 $480 10.622927776820717 $474 $629 forward 7 unknown #
vertex $-1 $323 $630 #
straight-curve $-1 -58.038701225087273 6.0039073722101222 10.191507292112185 0 1 0 I I #
coedge $-1 $623 $324 $327 $487 reversed $472 $-1 #
coedge $-1 $324 $623 $478 $627 forward $472 $-1 #
vertex $-1 $325 $631 #
straight-curve $-1 -66.176335947752307 8.9559545251099522 52.37562440737188 0 0 1 I I #
straight-curve $-1 -66.176335947752321 8.9559545251099522 3.3632208546503364 -0.76604443648966558 0 -0.64278761758704617 I I #
edge $-1 $625 -15.059674963730536 $328 -8.9559545251099522 $482 $632 forward 7 unknown #
point $-1 -66.176335947752307 8.9559545251099522 10.191507292112183 #
point $-1 -58.03870122508728 8.9559545251099522 10.191507292112183 #
edge $-1 $633 1 $633 0 $331 $-1 forward 7 unknown #
vertex $-1 $332 $634 #
ellipse-curve $-1 -61.190908191035284 10.176698612834066 5.6849903645523128 -0.64278761758704617 0 0.76604443648966558 0.38302221824483279 0 0.32139380879352308 1 I I #
point $-1 -61.72449636817494 10.176698612834066 7.098757882174775 #
edge $-1 $635 1 $635 0 $335 $-1 forward 7 unknown #
vertex $-1 $336 $636 #
ellipse-curve $-1 -61.190908191035284 12.007814744420244 5.6849903645523128 -0.64278761758704617 0 0.76604443648966558 0.38302221824483279 0 0.32139380879352308 1 I I #
point $-1 -61.72449636817494 12.007814744420244 7.098757882174775 #
edge $-1 $637 1 $637 0 $339 $-1 forward 7 unknown #
vertex $-1 $340 $638 #
ellipse-curve $-1 -61.190908191035284 13.838930876006422 5.6849903645523128 -0.64278761758704617 0 0.76604443648966558 0.38302221824483279 0 0.32139380879352308 1 I I #
point $-1 -61.72449636817494 13.838930876006422 7.098757882174775 #
plane-surface $-1 0 0 10.191507292112183 0 0 1 1 0 0 forward_v I I I I #
coedge $-1 $513 $512 $505 $639 forward $344 $-1 #
coedge $-1 $505 $346 $348 $509 reversed $221 $-1 #
coedge $-1 $346 $504 $503 $639 reversed $221 $-1 #
coedge $-1 $354 $349 $346 $507 forward $355 $-1 #
edge $-1 $510 28.017640450052653 $640 34.721493507701325 $506 $641 forward 7 unknown #
coedge $-1 $348 $347 $513 $642 reversed $140 $-1 #
edge $-1 $643 -132.35267189550461 $510 -123.03321935313664 $504 $644 forward 7 unknown #
vertex $-1 $350 $645 #
straight-curve $-1 59.472482890103635 -6.9232929676555681 10.191507292112185 0 -1 0 I I #
coedge $-1 $503 $351 $354 $517 reversed $344 $-1 #
coedge $-1 $351 $503 $508 $642 forward $344 $-1 #
vertex $-1 $352 $646 #
straight-curve $-1 66.176335947752307 -10.202804389502042 95.432053748445838 0 0 1 I I #
straight-curve $-1 -29.030207584814917 -10.202804389502042 95.657563964324453 0.71933979245794832 0 -0.69465837861970381 I I #
edge $-1 $640 -17.490367481120231 $356 -10.202804389502042 $512 $647 forward 7 unknown #
point $-1 66.176335947752307 -10.202804389502042 10.191507292112183 #
point $-1 59.472482890103635 -10.202804389502042 10.191507292112178 #
edge $-1 $648 1 $648 0 $359 $-1 forward 7 unknown #
vertex $-1 $360 $649 #
ellipse-curve $-1 61.766776296525272 -13.846585935311136 5.8593782615078016 0.69465837861970381 0 0.71933979245794832 1.0790096886869225 0 -1.0419875679295556 1 I I #
point $-1 63.903419107614894 -13.846585935311136 5.9126018278303398 #
plane-surface $-1 0 0 10.191507292112183 0 0 1 1 0 0 forward_v I I I I #
coedge $-1 $535 $534 $527 $650 forward $364 $-1 #
coedge $-1 $527 $366 $368 $531 reversed $236 $-1 #
coedge $-1 $366 $526 $525 $650 reversed $236 $-1 #
coedge $-1 $374 $369 $366 $529 forward $375 $-1 #
edge $-1 $532 28.017640450052653 $651 34.721493507701325 $528 $652 forward 7 unknown #
coedge $-1 $368 $367 $535 $653 reversed $149 $-1 #
edge $-1 $654 -132.35267189550461 $532 -123.03321935313664 $526 $655 forward 7 unknown #
vertex $-1 $370 $656 #
straight-curve $-1 59.472482890103635 -1.1216591182815847 10.191507292112185 0 -1 0 I I #
coedge $-1 $525 $371 $374 $539 reversed $364 $-1 #
coedge $-1 $371 $525 $530 $653 forward $364 $-1 #
vertex $-1 $372 $657 #
straight-curve $-1 66.176335947752307 1.4004633092459251 95.432053748445838 0 0 1 I I #
straight-curve $-1 -29.030207584814917 1.4004633092459251 95.657563964324453 0.71933979245794832 0 -0.69465837861970381 I I #
edge $-1 $651 -5.8870997823722639 $376 1.4004633092459251 $534 $658 forward 7 unknown #
point $-1 66.176335947752307 1.4004633092459251 10.191507292112183 #
point $-1 59.472482890103635 1.4004633092459251 10.191507292112178 #
edge $-1 $659 1 $659 0 $379 $-1 forward 7 unknown #
vertex $-1 $380 $660 #
ellipse-curve $-1 61.766776296525272 -2.2433182365631694 5.8593782615078016 0.69465837861970381 0 0.71933979245794832 1.0790096886869225 0 -1.0419875679295556 1 I I #
point $-1 63.903419107614894 -2.2433182365631694 5.9126018278303398 #
plane-surface $-1 0 0 10.191507292112183 0 0 1 1 0 0 forward_v I I I I #
coedge $-1 $557 $556 $549 $661 forward $384 $-1 #
coedge $-1 $549 $386 $388 $553 reversed $251 $-1 #
coedge $-1 $386 $548 $547 $661 reversed $251 $-1 #
coedge $-1 $394 $389 $386 $551 forward $395 $-1 #
edge $-1 $554 28.017640450052653 $662 34.721493507701325 $550 $663 forward 7 unknown #
coedge $-1 $388 $387 $557 $664 reversed $158 $-1 #
edge $-1 $665 -132.35267189550461 $554 -123.03321935313664 $548 $666 forward 7 unknown #
vertex $-1 $390 $667 #
straight-curve $-1 59.472482890103635 4.6799747310924005 10.191507292112185 0 -1 0 I I #
coedge $-1 $547 $391 $394 $561 reversed $384 $-1 #
coedge $-1 $391 $547 $552 $664 forward $384 $-1 #
vertex $-1 $392 $668 #
straight-curve $-1 66.176335947752307 13.003731007993895 95.432053748445838 0 0 1 I I #
straight-curve $-1 -29.030207584814917 13.003731007993895 95.657563964324453 0.71933979245794832 0 -0.69465837861970381 I I #
edge $-1 $662 5.7161679163757064 $396 13.003731007993895 $556 $669 forward 7 unknown #
point $-1 66.176335947752307 13.003731007993895 10.191507292112183 #
point $-1 59.472482890103635 13.003731007993895 10.191507292112178 #
edge $-1 $670 1 $670 0 $399 $-1 forward 7 unknown #
vertex $-1 $400 $671 #
ellipse-curve $-1 61.766776296525272 9.359949462184801 5.8593782615078016 0.69465837861970381 0 0.71933979245794832 1.0790096886869225 0 -1.0419875679295556 1 I I #
point $-1 63.903419107614894 9.359949462184801 5.9126018278303398 #
plane-surface $-1 0 0 10.191507292112183 0 0 1 1 0 0 forward_v I I I I #
coedge $-1 $579 $578 $571 $672 forward $404 $-1 #
coedge $-1 $571 $406 $408 $575 reversed $266 $-1 #
coedge $-1 $406 $570 $569 $672 reversed $266 $-1 #
coedge $-1 $414 $409 $406 $573 forward $415 $-1 #
edge $-1 $576 28.017640450052653 $673 34.721493507701325 $572 $674 forward 7 unknown #
coedge $-1 $408 $407 $579 $675 reversed $167 $-1 #
edge $-1 $676 -132.35267189550461 $576 -123.03321935313664 $570 $677 forward 7 unknown #
vertex $-1 $410 $678 #
straight-curve $-1 59.472482890103635 10.481608580466386 10.191507292112185 0 -1 0 I I #
coedge $-1 $569 $411 $414 $583 reversed $404 $-1 #
coedge $-1 $411 $569 $574 $675 forward $404 $-1 #
vertex $-1 $412 $679 #
straight-curve $-1 66.176335947752307 24.606998706741866 95.432053748445838 0 0 1 I I #
straight-curve $-1 -29.030207584814917 24.606998706741866 95.657563964324453 0.71933979245794832 0 -0.69465837861970381 I I #
edge $-1 $673 17.319435615123677 $416 24.606998706741866 $578 $680 forward 7 unknown #
point $-1 66.176335947752307 24.606998706741866 10.191507292112183 #
point $-1 59.472482890103635 24.606998706741866 10.191507292112178 #
edge $-1 $681 1 $681 0 $419 $-1 forward 7 unknown #
vertex $-1 $420 $682 #
ellipse-curve $-1 61.766776296525272 20.963217160932771 5.8593782615078016 0.69465837861970381 0 0.71933979245794832 1.0790096886869225 0 -1.0419875679295556 1 I I #
point $-1 63.903419107614894 20.963217160932771 5.9126018278303398 #
plane-surface $-1 66.176335947752307 0 0 -1 0 0 0 0 1 forward_v I I I I #
coedge $-1 $428 $426 $430 $595 reversed $281 $-1 #
edge $-1 $441 -10.191507292112183 $597 10.191507292112183 $440 $683 forward 7 unknown #
vertex $-1 $595 $684 #
straight-curve $-1 -66.176335947752307 -26.823762967536297 0 0 0 -1 I I #
edge $-1 $593 -26.823762967536297 $597 26.823762967536297 $591 $685 forward 7 unknown #
straight-curve $-1 0 -26.823762967536297 -10.191507292112183 -1 0 0 I I #
vertex $-1 $433 $686 #
straight-curve $-1 0 26.823762967536297 -10.191507292112183 1 0 0 I I #
point $-1 66.176335947752307 26.823762967536297 -10.191507292112183 #
point $-1 66.176335947752307 -26.823762967536297 -10.191507292112183 #
straight-curve $-1 -66.176335947752307 0 10.191507292112183 0 -1 0 I I #
point $-1 -66.176335947752307 26.823762967536297 10.191507292112183 #
point $-1 -66.176335947752307 -26.823762967536297 10.191507292112183 #
straight-curve $-1 66.176335947752307 -26.823762967536297 0 0 0 -1 I I #
straight-curve $-1 66.176335947752307 26.823762967536297 0 0 0 -1 I I #
plane-surface $-1 66.176335947752307 0 0 -1 0 0 0 0 1 forward_v I I I I #
coedge $-1 $454 $453 $464 $618 reversed $184 $-1 #
coedge $-1 $687 $457 $454 $609 forward $451 $-1 #
edge $-1 $610 19.707131741914672 $688 26.823762967536297 $454 $689 forward 7 unknown #
vertex $-1 $609 $690 #
straight-curve $-1 -66.176335947752307 -19.707131741914672 3.8425375824328425 0 0 -1 I I #
coedge $-1 $457 $687 $459 $614 forward $451 $-1 #
straight-curve $-1 0 -19.707131741914672 10.191507292112183 -1 0 0 I I #
edge $-1 $621 -26.823762967536297 $460 -19.707131741914672 $459 $691 forward 7 unknown #
point $-1 66.176335947752307 -19.707131741914672 10.191507292112185 #
straight-curve $-1 -66.176335947752307 -11.632723677362742 5.1786430376191861 0 -1 0 I I #
coedge $-1 $464 $463 $687 $692 reversed $300 $-1 #
edge $-1 $688 -10.191507292112183 $465 -5.1786430376191861 $607 $693 forward 7 unknown #
point $-1 -66.176335947752307 -26.823762967536297 5.1786430376191861 #
point $-1 -66.176335947752307 -19.707131741914672 5.1786430376191861 #
vertex $-1 $614 $694 #
straight-curve $-1 66.176335947752307 -26.823762967536297 0 0 0 -1 I I #
coedge $-1 $483 $482 $475 $624 forward $472 $-1 #
edge $-1 $625 42.184117115259696 $628 49.01240355272153 $623 $695 forward 7 unknown #
vertex $-1 $487 $696 #
straight-curve $-1 -75.625497298371869 15.059674963730536 10.191507292112185 -1 0 0 I I #
edge $-1 $628 -9.0557675915204143 $484 -2.95204715289983 $483 $697 forward 7 unknown #
vertex $-1 $627 $698 #
straight-curve $-1 -66.176335947752321 15.059674963730536 3.3632208546503364 0.76604443648966558 0 0.64278761758704617 I I #
point $-1 -58.03870122508728 15.059674963730536 10.191507292112183 #
point $-1 -66.176335947752307 8.9559545251099522 3.3632208546503484 #
straight-curve $-1 -66.176335947752307 0 10.191507292112183 0 -1 0 I I #
vertex $-1 $490 $699 #
point $-1 -60.807885972790451 10.176698612834066 6.0063841733458361 #
vertex $-1 $494 $700 #
point $-1 -60.807885972790451 12.007814744420244 6.0063841733458361 #
vertex $-1 $498 $701 #
point $-1 -60.807885972790451 13.838930876006422 6.0063841733458361 #
edge $-1 $640 85.240546456333661 $643 91.714382249038266 $503 $702 forward 7 unknown #
vertex $-1 $517 $703 #
straight-curve $-1 31.454842440050982 -17.490367481120231 10.191507292112178 1 0 0 I I #
edge $-1 $643 -10.567074513464663 $514 -3.2795114218464736 $513 $704 forward 7 unknown #
vertex $-1 $642 $705 #
straight-curve $-1 -29.030207584814917 -17.490367481120231 95.657563964324453 -0.71933979245794832 0 0.69465837861970381 I I #
point $-1 59.472482890103635 -17.490367481120231 10.191507292112178 #
point $-1 66.176335947752307 -10.202804389502042 3.7176714994075724 #
straight-curve $-1 66.176335947752307 0 10.191507292112183 0 1 0 I I #
vertex $-1 $520 $706 #
point $-1 62.845785985212196 -13.846585935311136 4.817390693578246 #
edge $-1 $651 85.240546456333661 $654 91.714382249038266 $525 $707 forward 7 unknown #
vertex $-1 $539 $708 #
straight-curve $-1 31.454842440050982 -5.8870997823722639 10.191507292112178 1 0 0 I I #
edge $-1 $654 -4.7654406640906792 $536 2.5221224275275098 $535 $709 forward 7 unknown #
vertex $-1 $653 $710 #
straight-curve $-1 -29.030207584814917 -5.8870997823722639 95.657563964324453 -0.71933979245794832 0 0.69465837861970381 I I #
point $-1 59.472482890103635 -5.8870997823722639 10.191507292112178 #
point $-1 66.176335947752307 1.4004633092459251 3.7176714994075724 #
straight-curve $-1 66.176335947752307 0 10.191507292112183 0 1 0 I I #
vertex $-1 $542 $711 #
point $-1 62.845785985212196 -2.2433182365631694 4.817390693578246 #
edge $-1 $662 85.240546456333661 $665 91.714382249038266 $547 $712 forward 7 unknown #
vertex $-1 $561 $713 #
straight-curve $-1 31.454842440050982 5.7161679163757064 10.191507292112178 1 0 0 I I #
edge $-1 $665 1.036193185283306 $558 8.323756276901495 $557 $714 forward 7 unknown #
vertex $-1 $664 $715 #
straight-curve $-1 -29.030207584814917 5.7161679163757064 95.657563964324453 -0.71933979245794832 0 0.69465837861970381 I I #
point $-1 59.472482890103635 5.7161679163757064 10.191507292112178 #
point $-1 66.176335947752307 13.003731007993895 3.7176714994075724 #
straight-curve $-1 66.176335947752307 0 10.191507292112183 0 1 0 I I #
vertex $-1 $564 $716 #
point $-1 62.845785985212196 9.359949462184801 4.817390693578246 #
edge $-1 $673 85.240546456333661 $676 91.714382249038266 $569 $717 forward 7 unknown #
vertex $-1 $583 $718 #
straight-curve $-1 31.454842440050982 17.319435615123677 10.191507292112178 1 0 0 I I #
edge $-1 $676 6.8378270346572911 $580 14.12539012627548 $579 $719 forward 7 unknown #
vertex $-1 $675 $720 #
straight-curve $-1 -29.030207584814917 17.319435615123677 95.657563964324453 -0.71933979245794832 0 0.69465837861970381 I I #
point $-1 59.472482890103635 17.319435615123677 10.191507292112178 #
point $-1 66.176335947752307 24.606998706741866 3.7176714994075724 #
straight-curve $-1 66.176335947752307 0 10.191507292112183 0 1 0 I I #
vertex $-1 $586 $721 #
point $-1 62.845785985212196 20.963217160932771 4.817390693578246 #
straight-curve $-1 -66.176335947752307 26.823762967536297 0 0 0 -1 I I #
point $-1 -66.176335947752307 -26.823762967536297 -10.191507292112183 #
straight-curve $-1 -66.176335947752307 0 -10.191507292112183 0 1 0 I I #
point $-1 -66.176335947752307 26.823762967536297 -10.191507292112183 #
coedge $-1 $612 $608 $617 $692 forward $451 $-1 #
vertex $-1 $609 $722 #
straight-curve $-1 -66.176335947752307 0 10.191507292112183 0 -1 0 I I #
point $-1 -66.176335947752307 -19.707131741914672 10.191507292112185 #
straight-curve $-1 66.176335947752307 0 10.191507292112183 0 1 0 I I #
edge $-1 $688 -66.176335947752307 $621 66.176335947752307 $617 $723 forward 7 unknown #
straight-curve $-1 -66.176335947752307 -26.823762967536297 0 0 0 -1 I I #
point $-1 66.176335947752307 -26.823762967536297 10.191507292112183 #
straight-curve $-1 -66.176335947752307 15.059674963730536 52.37562440737188 0 0 -1 I I #
point $-1 -66.176335947752307 15.059674963730536 10.191507292112183 #
straight-curve $-1 -66.176335947752307 6.0039073722101222 3.3632208546503448 0 -1 0 I I #
point $-1 -66.176335947752307 15.059674963730536 3.3632208546503484 #
point $-1 -60.869514382241768 10.176698612834066 5.3019681463074804 #
point $-1 -60.869514382241768 12.007814744420244 5.3019681463074804 #
point $-1 -60.869514382241768 13.838930876006422 5.3019681463074804 #
straight-curve $-1 66.176335947752307 -17.490367481120231 95.432053748445838 0 0 -1 I I #
point $-1 66.176335947752307 -17.490367481120231 10.191507292112183 #
straight-curve $-1 66.176335947752307 -6.9232929676555681 3.7176714994075724 0 1 0 I I #
point $-1 66.176335947752307 -17.490367481120231 3.7176714994075724 #
point $-1 60.724788728595719 -13.846585935311136 4.780368572820878 #
straight-curve $-1 66.176335947752307 -5.8870997823722639 95.432053748445838 0 0 -1 I I #
point $-1 66.176335947752307 -5.8870997823722639 10.191507292112183 #
straight-curve $-1 66.176335947752307 -1.1216591182815847 3.7176714994075724 0 1 0 I I #
point $-1 66.176335947752307 -5.8870997823722639 3.7176714994075724 #
point $-1 60.724788728595719 -2.2433182365631694 4.780368572820878 #
straight-curve $-1 66.176335947752307 5.7161679163757064 95.432053748445838 0 0 -1 I I #
point $-1 66.176335947752307 5.7161679163757064 10.191507292112183 #
straight-curve $-1 66.176335947752307 4.6799747310924005 3.7176714994075724 0 1 0 I I #
point $-1 66.176335947752307 5.7161679163757064 3.7176714994075724 #
point $-1 60.724788728595719 9.359949462184801 4.780368572820878 #
straight-curve $-1 66.176335947752307 17.319435615123677 95.432053748445838 0 0 -1 I I #
point $-1 66.176335947752307 17.319435615123677 10.191507292112183 #
straight-curve $-1 66.176335947752307 10.481608580466386 3.7176714994075724 0 1 0 I I #
point $-1 66.176335947752307 17.319435615123677 3.7176714994075724 #
point $-1 60.724788728595719 20.963217160932771 4.780368572820878 #
point $-1 -66.176335947752307 -26.823762967536297 10.191507292112183 #
straight-curve $-1 0 -26.823762967536297 10.191507292112183 1 0 0 I I #
End-of-ACIS-data 