500 0 8 0           
7 Unknown 11 ACIS 5.0 NT 24 Thu Mar 25 16:02:39 1999 
-1 9.9999999999999995e-007 1e-010 
body $-1 $8 $-1 $9 #
body $-1 $10 $-1 $11 #
body $-1 $12 $-1 $13 #
body $-1 $14 $-1 $15 #
body $-1 $16 $-1 $17 #
body $-1 $18 $-1 $19 #
body $-1 $20 $-1 $21 #
body $-1 $22 $-1 $23 #
lump $-1 $-1 $24 $0 #
transform $-1 1 0 0 0 1 0 0 0 1 42.236396374401075 24.556583981710713 11.867079562779406 1 rotate no_reflect no_shear #
lump $-1 $-1 $25 $1 #
transform $-1 1 0 0 0 1 0 0 0 1 42.236396374401075 24.556583981710713 11.867079562779406 1 rotate no_reflect no_shear #
lump $-1 $-1 $26 $2 #
transform $-1 1 0 0 0 1 0 0 0 1 42.236396374401075 24.556583981710713 11.867079562779406 1 rotate no_reflect no_shear #
lump $-1 $-1 $27 $3 #
transform $-1 1 0 0 0 1 0 0 0 1 42.236396374401075 24.556583981710713 11.867079562779406 1 rotate no_reflect no_shear #
lump $-1 $-1 $28 $4 #
transform $-1 1 0 0 0 1 0 0 0 1 42.236396374401075 24.556583981710713 11.867079562779406 1 rotate no_reflect no_shear #
lump $-1 $-1 $29 $5 #
transform $-1 1 0 0 0 1 0 0 0 1 42.236396374401075 24.556583981710713 11.867079562779406 1 rotate no_reflect no_shear #
lump $-1 $-1 $30 $6 #
transform $-1 1 0 0 0 1 0 0 0 1 42.236396374401075 24.556583981710713 11.867079562779406 1 rotate no_reflect no_shear #
lump $-1 $-1 $31 $7 #
transform $-1 1 0 0 0 1 0 0 0 1 42.236396374401075 24.556583981710713 11.867079562779406 1 rotate no_reflect no_shear #
shell $-1 $-1 $-1 $32 $-1 $8 #
shell $-1 $-1 $-1 $33 $-1 $10 #
shell $-1 $-1 $-1 $34 $-1 $12 #
shell $-1 $-1 $-1 $35 $-1 $14 #
shell $-1 $-1 $-1 $36 $-1 $16 #
shell $-1 $-1 $-1 $37 $-1 $18 #
shell $-1 $-1 $-1 $38 $-1 $20 #
shell $-1 $-1 $-1 $39 $-1 $22 #
face $-1 $40 $41 $24 $-1 $42 forward single #
face $-1 $43 $44 $25 $-1 $45 forward single #
face $-1 $46 $47 $26 $-1 $48 reversed single #
face $-1 $49 $50 $27 $-1 $51 forward single #
face $-1 $52 $53 $28 $-1 $54 forward single #
face $-1 $55 $56 $29 $-1 $57 forward single #
face $-1 $58 $59 $30 $-1 $60 reversed single #
face $-1 $61 $62 $31 $-1 $63 forward single #
face $-1 $64 $65 $24 $-1 $66 reversed single #
loop $-1 $-1 $67 $32 #
plane-surface $-1 0 0 11.867079562779406 0 0 1 1 0 0 forward_v I I I I #
face $-1 $68 $69 $25 $-1 $70 reversed single #
loop $-1 $-1 $71 $33 #
plane-surface $-1 0 -24.556583981710713 0 0 1 0 0 0 1 forward_v I I I I #
face $-1 $72 $73 $26 $-1 $74 reversed single #
loop $-1 $-1 $75 $34 #
plane-surface $-1 -90.688000432319058 11.435882182264347 70.683062663622067 0 1 0 -0.57357644374324357 0 0.81915203911291934 forward_v I I I I #
face $-1 $76 $77 $27 $-1 $78 forward single #
loop $-1 $79 $80 $35 #
cone-surface $-1 -34.315203392965785 12.853227304659558 5.9500425261421492 0.57357644374324357 0 -0.81915203911291934 0.40957601955645967 0 0.28678822187162178 1 I I 0 1 0.5 forward I I I I #
face $-1 $81 $82 $28 $-1 $83 forward single #
loop $-1 $84 $85 $36 #
cone-surface $-1 -34.315203392965785 14.979244988252379 5.9500425261421492 0.57357644374324357 0 -0.81915203911291934 0.40957601955645967 0 0.28678822187162178 1 I I 0 1 0.5 forward I I I I #
face $-1 $86 $87 $29 $-1 $88 forward single #
loop $-1 $89 $90 $37 #
cone-surface $-1 -34.315203392965785 17.1052626718452 5.9500425261421492 0.57357644374324357 0 -0.81915203911291934 0.40957601955645967 0 0.28678822187162178 1 I I 0 1 0.5 forward I I I I #
face $-1 $91 $92 $30 $-1 $93 reversed single #
loop $-1 $-1 $94 $38 #
plane-surface $-1 56.795222828785917 -1.9543984484515322 122.17285043406086 0 -1 0 -0.78801076186113728 0 -0.61566146476048833 forward_v I I I I #
face $-1 $95 $96 $31 $-1 $97 forward single #
loop $-1 $98 $99 $39 #
cone-surface $-1 38.065838599491222 -7.1867433122051949 6.9984290893698882 -0.78801076186113728 0 -0.61566146476048833 0.9234921971407325 0 -1.182016142791706 1 I I 0 1 1.5 forward I I I I #
face $-1 $100 $101 $24 $-1 $102 reversed single #
loop $-1 $-1 $103 $40 #
plane-surface $-1 0 0 -11.867079562779406 0 0 1 1 0 0 forward_v I I I I #
coedge $-1 $104 $105 $106 $107 forward $41 $-1 #
face $-1 $108 $109 $25 $-1 $110 forward single #
loop $-1 $-1 $111 $43 #
plane-surface $-1 -42.236396374401075 0 0 1 0 0 0 0 -1 forward_v I I I I #
coedge $-1 $112 $113 $114 $115 forward $44 $-1 #
face $-1 $116 $117 $26 $-1 $118 reversed single #
loop $-1 $-1 $119 $46 #
plane-surface $-1 -42.236396374401068 14.979244988252379 1.4870022338777602 -0.57357644374324357 0 0.81915203911291934 0.81915203911291934 0 0.57357644374324357 forward_v I I I I #
coedge $-1 $120 $121 $122 $123 reversed $47 $-1 #
face $-1 $-1 $124 $27 $-1 $125 forward single #
loop $-1 $126 $127 $49 #
cone-surface $-1 -33.662759531781667 12.853227304659558 5.0182561441774816 0.57357644374324357 0 -0.81915203911291934 0.20478800977822983 0 0.14339411093581089 1 I I -0.70710678118654746 0.70710678118654746 0.25 forward I I I I #
loop $-1 $-1 $128 $35 #
coedge $-1 $80 $80 $129 $130 reversed $50 $-1 #
face $-1 $-1 $131 $28 $-1 $132 forward single #
loop $-1 $133 $134 $52 #
cone-surface $-1 -33.662759531781667 14.979244988252379 5.0182561441774816 0.57357644374324357 0 -0.81915203911291934 0.20478800977822983 0 0.14339411093581089 1 I I -0.70710678118654746 0.70710678118654746 0.25 forward I I I I #
loop $-1 $-1 $135 $36 #
coedge $-1 $85 $85 $136 $137 reversed $53 $-1 #
face $-1 $-1 $138 $29 $-1 $139 forward single #
loop $-1 $140 $141 $55 #
cone-surface $-1 -33.662759531781667 17.1052626718452 5.0182561441774816 0.57357644374324357 0 -0.81915203911291934 0.20478800977822983 0 0.14339411093581089 1 I I -0.70710678118654746 0.70710678118654746 0.25 forward I I I I #
loop $-1 $-1 $142 $37 #
coedge $-1 $90 $90 $143 $144 reversed $56 $-1 #
face $-1 $145 $146 $30 $-1 $147 reversed single #
loop $-1 $-1 $148 $58 #
plane-surface $-1 -9.7702469417356141 -7.1867433122051949 70.166207117924174 0.78801076186113728 0 0.61566146476048833 0.61566146476048833 0 -0.78801076186113728 forward_v I I I I #
coedge $-1 $149 $150 $151 $152 reversed $59 $-1 #
face $-1 $-1 $153 $31 $-1 $154 forward single #
loop $-1 $155 $156 $61 #
cone-surface $-1 36.533459842274503 -7.1867433122051949 5.8012036250783829 -0.78801076186113728 0 -0.61566146476048833 0.46174609857036625 0 -0.59100807139585299 1 I I -0.70710678118654757 0.70710678118654757 0.75 forward I I I I #
loop $-1 $-1 $157 $39 #
coedge $-1 $99 $99 $158 $159 reversed $62 $-1 #
face $-1 $160 $161 $24 $-1 $162 reversed single #
loop $-1 $-1 $163 $64 #
plane-surface $-1 0 -24.556583981710713 0 0 1 0 0 0 1 forward_v I I I I #
coedge $-1 $164 $165 $166 $167 forward $65 $-1 #
coedge $-1 $168 $67 $169 $170 forward $41 $-1 #
coedge $-1 $67 $168 $171 $172 forward $41 $-1 #
coedge $-1 $173 $174 $67 $107 reversed $175 $-1 #
edge $-1 $176 -24.556583981710713 $177 24.556583981710713 $106 $178 forward 7 unknown #
face $-1 $179 $180 $25 $-1 $181 reversed single #
loop $-1 $-1 $182 $68 #
plane-surface $-1 0 -28.721310691601072 -6.367238863417402 0 0 1 1 0 0 forward_v I I I I #
coedge $-1 $183 $184 $113 $185 forward $69 $-1 #
coedge $-1 $186 $71 $187 $188 reversed $44 $-1 #
coedge $-1 $71 $186 $111 $185 reversed $44 $-1 #
coedge $-1 $189 $182 $71 $115 reversed $109 $-1 #
edge $-1 $190 -42.236396374401075 $191 42.236396374401075 $114 $192 forward 7 unknown #
face $-1 $193 $194 $26 $-1 $195 forward single #
loop $-1 $-1 $196 $72 #
plane-surface $-1 -90.688000432319058 18.522607794240411 70.683062663622067 0 -1 0 0.57357644374324357 0 -0.81915203911291934 forward_v I I I I #
coedge $-1 $197 $198 $199 $200 reversed $73 $-1 #
coedge $-1 $121 $75 $201 $202 reversed $47 $-1 #
coedge $-1 $75 $120 $197 $203 reversed $47 $-1 #
coedge $-1 $199 $204 $75 $123 forward $194 $-1 #
edge $-1 $205 3.1076038417584542 $206 17.931890304132427 $122 $207 forward 7 unknown #
loop $-1 $-1 $129 $76 #
plane-surface $-1 -42.236396374401068 14.979244988252379 1.4870022338777602 -0.57357644374324357 0 0.81915203911291934 0.81915203911291934 0 0.57357644374324357 forward_v I I I I #
loop $-1 $-1 $208 $49 #
coedge $-1 $127 $127 $128 $209 reversed $77 $-1 #
coedge $-1 $128 $128 $127 $209 forward $79 $-1 #
coedge $-1 $129 $129 $80 $130 forward $124 $-1 #
edge $-1 $210 0 $210 6.2831853071796004 $129 $211 forward 7 unknown #
loop $-1 $-1 $136 $81 #
plane-surface $-1 -42.236396374401068 14.979244988252379 1.4870022338777602 -0.57357644374324357 0 0.81915203911291934 0.81915203911291934 0 0.57357644374324357 forward_v I I I I #
loop $-1 $-1 $212 $52 #
coedge $-1 $134 $134 $135 $213 reversed $82 $-1 #
coedge $-1 $135 $135 $134 $213 forward $84 $-1 #
coedge $-1 $136 $136 $85 $137 forward $131 $-1 #
edge $-1 $214 0 $214 6.2831853071796004 $136 $215 forward 7 unknown #
loop $-1 $-1 $143 $86 #
plane-surface $-1 -42.236396374401068 14.979244988252379 1.4870022338777602 -0.57357644374324357 0 0.81915203911291934 0.81915203911291934 0 0.57357644374324357 forward_v I I I I #
loop $-1 $-1 $216 $55 #
coedge $-1 $141 $141 $142 $217 reversed $87 $-1 #
coedge $-1 $142 $142 $141 $217 forward $89 $-1 #
coedge $-1 $143 $143 $90 $144 forward $138 $-1 #
edge $-1 $218 0 $218 6.2831853071796004 $143 $219 forward 7 unknown #
face $-1 $220 $221 $30 $-1 $222 reversed single #
loop $-1 $-1 $223 $91 #
plane-surface $-1 56.795222828785917 -12.419088175958858 122.17285043406086 0 1 0 0.78801076186113728 0 0.61566146476048833 forward_v I I I I #
coedge $-1 $224 $225 $226 $227 reversed $92 $-1 #
coedge $-1 $150 $94 $228 $229 reversed $59 $-1 #
coedge $-1 $94 $149 $224 $230 reversed $59 $-1 #
coedge $-1 $226 $231 $94 $152 forward $232 $-1 #
edge $-1 $233 -13.838784960008116 $234 -7.3804107818301397 $151 $235 forward 7 unknown #
loop $-1 $-1 $158 $95 #
plane-surface $-1 -9.7702469417356141 -7.1867433122051949 70.166207117924174 0.78801076186113728 0 0.61566146476048833 0.61566146476048833 0 -0.78801076186113728 forward_v I I I I #
loop $-1 $-1 $236 $61 #
coedge $-1 $156 $156 $157 $237 reversed $96 $-1 #
coedge $-1 $157 $157 $156 $237 forward $98 $-1 #
coedge $-1 $158 $158 $99 $159 forward $153 $-1 #
edge $-1 $238 0 $238 6.2831853071796004 $158 $239 forward 7 unknown #
face $-1 $240 $241 $24 $-1 $242 reversed single #
loop $-1 $-1 $243 $100 #
plane-surface $-1 -42.236396374401075 0 0 1 0 0 0 0 -1 forward_v I I I I #
coedge $-1 $244 $171 $245 $246 forward $101 $-1 #
coedge $-1 $247 $103 $244 $248 forward $65 $-1 #
coedge $-1 $103 $247 $249 $250 forward $65 $-1 #
coedge $-1 $174 $173 $103 $167 reversed $175 $-1 #
edge $-1 $251 -24.556583981710713 $252 24.556583981710713 $166 $253 forward 7 unknown #
coedge $-1 $105 $104 $254 $255 forward $41 $-1 #
coedge $-1 $256 $257 $104 $170 reversed $241 $-1 #
edge $-1 $177 -42.236396374401075 $258 42.236396374401075 $169 $259 forward 7 unknown #
coedge $-1 $163 $260 $105 $172 reversed $101 $-1 #
edge $-1 $261 -42.236396374401075 $176 42.236396374401075 $171 $262 forward 7 unknown #
coedge $-1 $166 $106 $260 $263 forward $175 $-1 #
coedge $-1 $106 $166 $256 $264 reversed $175 $-1 #
loop $-1 $-1 $173 $240 #
vertex $-1 $107 $265 #
vertex $-1 $107 $266 #
straight-curve $-1 42.236396374401075 0 11.867079562779406 0 1 0 I I #
face $-1 $267 $268 $25 $-1 $269 reversed single #
loop $-1 $-1 $270 $108 #
plane-surface $-1 0 -28.721310691601072 -11.367079562779406 0 0 1 1 0 0 forward_v I I I I #
coedge $-1 $114 $271 $272 $273 forward $109 $-1 #
coedge $-1 $274 $111 $275 $276 reversed $69 $-1 #
coedge $-1 $111 $274 $189 $277 reversed $69 $-1 #
edge $-1 $190 6.367238863417402 $278 11.367079562779406 $111 $279 forward 7 unknown #
coedge $-1 $113 $112 $280 $281 forward $44 $-1 #
coedge $-1 $272 $282 $112 $188 forward $283 $-1 #
edge $-1 $284 -11.367079562779406 $191 -6.367238863417402 $187 $285 forward 7 unknown #
coedge $-1 $271 $114 $184 $277 forward $109 $-1 #
vertex $-1 $185 $286 #
vertex $-1 $273 $287 #
straight-curve $-1 0 -24.556583981710713 -6.367238863417402 1 0 0 I I #
face $-1 $-1 $288 $26 $-1 $289 reversed single #
loop $-1 $-1 $122 $116 #
plane-surface $-1 0 0 11.867079562779406 0 0 1 1 0 0 forward_v I I I I #
coedge $-1 $290 $291 $292 $293 reversed $117 $-1 #
coedge $-1 $294 $119 $121 $203 forward $73 $-1 #
coedge $-1 $119 $294 $290 $295 forward $73 $-1 #
coedge $-1 $292 $122 $119 $200 forward $194 $-1 #
edge $-1 $206 3.9462596881381575 $296 11.032985300114222 $199 $297 forward 7 unknown #
coedge $-1 $298 $299 $120 $202 forward $288 $-1 #
edge $-1 $300 -33.85452909793328 $205 -23.474451769031628 $201 $301 forward 7 unknown #
edge $-1 $206 -18.097112324138951 $300 8.6223355153435888e-015 $121 $302 forward 7 unknown #
coedge $-1 $122 $292 $298 $303 forward $194 $-1 #
vertex $-1 $202 $304 #
vertex $-1 $123 $305 #
straight-curve $-1 -45.344000216159529 11.435882182264347 11.867079562779406 1 0 0 I I #
coedge $-1 $208 $208 $-1 $306 reversed $126 $-1 #
edge $-1 $307 0 $307 6.2831853071796004 $127 $308 forward 7 unknown #
vertex $-1 $130 $309 #
ellipse-curve $-1 -34.824253143214086 12.853227304659558 6.6770408983285803 -0.57357644374324357 0 0.81915203911291934 0.40957601955645967 0 0.28678822187162178 1 I I #
coedge $-1 $212 $212 $-1 $310 reversed $133 $-1 #
edge $-1 $311 0 $311 6.2831853071796004 $134 $312 forward 7 unknown #
vertex $-1 $137 $313 #
ellipse-curve $-1 -34.824253143214086 14.979244988252379 6.6770408983285803 -0.57357644374324357 0 0.81915203911291934 0.40957601955645967 0 0.28678822187162178 1 I I #
coedge $-1 $216 $216 $-1 $314 reversed $140 $-1 #
edge $-1 $315 0 $315 6.2831853071796004 $141 $316 forward 7 unknown #
vertex $-1 $144 $317 #
ellipse-curve $-1 -34.824253143214086 17.1052626718452 6.6770408983285803 -0.57357644374324357 0 0.81915203911291934 0.40957601955645967 0 0.28678822187162178 1 I I #
face $-1 $-1 $232 $30 $-1 $318 forward single #
loop $-1 $-1 $319 $145 #
plane-surface $-1 42.236396374401075 0 0 -1 0 0 0 0 1 forward_v I I I I #
coedge $-1 $320 $321 $322 $323 reversed $146 $-1 #
coedge $-1 $324 $148 $150 $230 forward $92 $-1 #
coedge $-1 $148 $324 $320 $325 forward $92 $-1 #
coedge $-1 $322 $151 $148 $227 forward $232 $-1 #
edge $-1 $234 -1.6389732076510652 $326 8.825716519856261 $226 $327 forward 7 unknown #
coedge $-1 $328 $329 $149 $229 forward $221 $-1 #
edge $-1 $330 -57.485687869627789 $233 -49.219345654251029 $228 $331 forward 7 unknown #
edge $-1 $234 73.982654015349851 $330 84.472792748802149 $150 $332 forward 7 unknown #
coedge $-1 $151 $322 $328 $333 forward $232 $-1 #
loop $-1 $-1 $322 $220 #
vertex $-1 $229 $334 #
vertex $-1 $152 $335 #
straight-curve $-1 28.397611414392959 -1.9543984484515322 11.867079562779409 -1 0 0 I I #
coedge $-1 $236 $236 $-1 $336 reversed $155 $-1 #
edge $-1 $337 0 $337 6.2831853071796004 $156 $338 forward 7 unknown #
vertex $-1 $159 $339 #
ellipse-curve $-1 39.007209285312086 -7.1867433122051949 7.733908455091024 0.78801076186113728 0 0.61566146476048833 0.9234921971407325 0 -1.182016142791706 1 I I #
face $-1 $-1 $175 $24 $-1 $340 reversed single #
loop $-1 $-1 $256 $160 #
plane-surface $-1 0 24.556583981710713 0 0 -1 0 0 0 -1 forward_v I I I I #
coedge $-1 $341 $254 $257 $342 forward $161 $-1 #
coedge $-1 $260 $163 $164 $248 reversed $101 $-1 #
coedge $-1 $254 $341 $163 $246 reversed $161 $-1 #
edge $-1 $261 -11.867079562779406 $343 11.867079562779406 $245 $344 forward 7 unknown #
coedge $-1 $165 $164 $341 $345 forward $65 $-1 #
edge $-1 $252 -42.236396374401075 $343 42.236396374401075 $244 $346 forward 7 unknown #
coedge $-1 $257 $256 $165 $250 reversed $241 $-1 #
edge $-1 $347 -42.236396374401075 $251 42.236396374401075 $249 $348 forward 7 unknown #
vertex $-1 $167 $349 #
vertex $-1 $263 $350 #
straight-curve $-1 42.236396374401075 0 -11.867079562779406 0 -1 0 I I #
coedge $-1 $243 $245 $168 $255 reversed $161 $-1 #
edge $-1 $258 -24.556583981710713 $261 24.556583981710713 $254 $351 forward 7 unknown #
coedge $-1 $249 $169 $174 $264 forward $241 $-1 #
coedge $-1 $169 $249 $243 $342 reversed $241 $-1 #
vertex $-1 $170 $352 #
straight-curve $-1 0 24.556583981710713 11.867079562779406 -1 0 0 I I #
coedge $-1 $171 $244 $173 $263 reversed $101 $-1 #
vertex $-1 $255 $353 #
straight-curve $-1 0 -24.556583981710713 11.867079562779406 1 0 0 I I #
edge $-1 $176 -11.867079562779406 $252 11.867079562779406 $173 $354 forward 7 unknown #
edge $-1 $177 -11.867079562779406 $251 11.867079562779406 $174 $355 forward 7 unknown #
point $-1 42.236396374401075 -24.556583981710713 11.867079562779406 #
point $-1 42.236396374401075 24.556583981710713 11.867079562779406 #
face $-1 $-1 $283 $25 $-1 $356 reversed single #
loop $-1 $-1 $357 $179 #
plane-surface $-1 0 -32.886037401491436 -8.8671592130984038 0 1 0 0 0 1 forward_v I I I I #
coedge $-1 $358 $280 $282 $359 forward $180 $-1 #
coedge $-1 $182 $189 $360 $361 forward $109 $-1 #
coedge $-1 $362 $187 $182 $273 reversed $283 $-1 #
edge $-1 $363 -4.1647267098903633 $191 4.1647267098903598 $272 $364 forward 7 unknown #
coedge $-1 $184 $183 $357 $365 reversed $69 $-1 #
coedge $-1 $280 $358 $183 $276 forward $180 $-1 #
edge $-1 $366 -4.1647267098903633 $278 4.1647267098903598 $183 $367 forward 7 unknown #
edge $-1 $190 -4.1647267098903598 $368 4.1647267098903633 $184 $369 forward 7 unknown #
vertex $-1 $185 $370 #
straight-curve $-1 -42.236396374401075 -24.556583981710713 0 0 0 -1 I I #
coedge $-1 $270 $275 $186 $281 reversed $180 $-1 #
edge $-1 $284 -42.236396374401075 $278 42.236396374401075 $280 $371 forward 7 unknown #
coedge $-1 $187 $362 $270 $359 reversed $283 $-1 #
loop $-1 $-1 $187 $267 #
vertex $-1 $188 $372 #
straight-curve $-1 42.236396374401075 -24.556583981710713 0 0 0 1 I I #
point $-1 -42.236396374401075 -24.556583981710713 -6.367238863417402 #
point $-1 42.236396374401075 -24.556583981710713 -6.367238863417402 #
loop $-1 $-1 $201 $193 #
plane-surface $-1 -42.236396374401075 0 0 1 0 0 0 0 -1 forward_v I I I I #
coedge $-1 $291 $196 $198 $295 reversed $117 $-1 #
coedge $-1 $196 $290 $373 $374 reversed $117 $-1 #
coedge $-1 $204 $199 $196 $293 forward $194 $-1 #
edge $-1 $296 -17.931890304132427 $375 -3.1076038417584542 $292 $376 forward 7 unknown #
coedge $-1 $198 $197 $299 $377 reversed $73 $-1 #
edge $-1 $378 -8.6223355153435888e-015 $296 18.097112324138951 $290 $379 forward 7 unknown #
vertex $-1 $200 $380 #
straight-curve $-1 -27.412109912027102 7.4896224941261895 11.867079562779406 0 1 0 I I #
coedge $-1 $373 $201 $204 $303 reversed $288 $-1 #
coedge $-1 $201 $373 $294 $377 forward $288 $-1 #
vertex $-1 $202 $381 #
straight-curve $-1 -42.236396374401075 11.435882182264347 35.341531331811034 0 0 1 I I #
straight-curve $-1 -42.236396374401068 11.435882182264347 1.4870022338777602 -0.81915203911291934 0 -0.57357644374324357 I I #
edge $-1 $375 -18.522607794240411 $205 -11.435882182264347 $298 $382 forward 7 unknown #
point $-1 -42.236396374401075 11.435882182264347 11.867079562779406 #
point $-1 -27.412109912027102 11.435882182264347 11.867079562779406 #
edge $-1 $383 1 $383 0 $208 $-1 forward 7 unknown #
vertex $-1 $209 $384 #
ellipse-curve $-1 -33.806153642717476 12.853227304659558 5.2230441539557111 -0.57357644374324357 0 0.81915203911291934 0.40957601955645967 0 0.28678822187162178 1 I I #
point $-1 -34.414677123657633 12.853227304659558 6.9638291202002103 #
edge $-1 $385 1 $385 0 $212 $-1 forward 7 unknown #
vertex $-1 $213 $386 #
ellipse-curve $-1 -33.806153642717476 14.979244988252379 5.2230441539557111 -0.57357644374324357 0 0.81915203911291934 0.40957601955645967 0 0.28678822187162178 1 I I #
point $-1 -34.414677123657633 14.979244988252379 6.9638291202002103 #
edge $-1 $387 1 $387 0 $216 $-1 forward 7 unknown #
vertex $-1 $217 $388 #
ellipse-curve $-1 -33.806153642717476 17.1052626718452 5.2230441539557111 -0.57357644374324357 0 0.81915203911291934 0.40957601955645967 0 0.28678822187162178 1 I I #
point $-1 -34.414677123657633 17.1052626718452 6.9638291202002103 #
plane-surface $-1 0 0 11.867079562779406 0 0 1 1 0 0 forward_v I I I I #
coedge $-1 $329 $328 $321 $389 forward $221 $-1 #
coedge $-1 $321 $223 $225 $325 reversed $146 $-1 #
coedge $-1 $223 $320 $319 $389 reversed $146 $-1 #
coedge $-1 $231 $226 $223 $323 forward $232 $-1 #
edge $-1 $326 7.3804107818301397 $390 13.838784960008116 $322 $391 forward 7 unknown #
coedge $-1 $225 $224 $329 $392 reversed $92 $-1 #
edge $-1 $393 -84.472792748802149 $326 -73.982654015349851 $320 $394 forward 7 unknown #
vertex $-1 $227 $395 #
straight-curve $-1 35.778022196223105 -3.5933716561025975 11.867079562779409 0 -1 0 I I #
coedge $-1 $319 $228 $231 $333 reversed $221 $-1 #
coedge $-1 $228 $319 $324 $392 forward $221 $-1 #
vertex $-1 $229 $396 #
straight-curve $-1 42.236396374401075 -1.9543984484515322 61.086425217030431 0 0 1 I I #
straight-curve $-1 -9.7702469417356141 -1.9543984484515322 70.166207117924174 0.61566146476048833 0 -0.78801076186113728 I I #
edge $-1 $390 -12.419088175958858 $233 -1.9543984484515322 $328 $397 forward 7 unknown #
point $-1 42.236396374401075 -1.9543984484515322 11.867079562779406 #
point $-1 35.778022196223098 -1.9543984484515322 11.867079562779409 #
edge $-1 $398 1 $398 0 $236 $-1 forward 7 unknown #
vertex $-1 $237 $399 #
ellipse-curve $-1 37.124467913670358 -7.1867433122051949 6.2629497236487488 0.78801076186113728 0 0.61566146476048833 0.9234921971407325 0 -1.182016142791706 1 I I #
point $-1 39.930701482452825 -7.1867433122051949 6.5518923122993211 #
plane-surface $-1 42.236396374401075 0 0 -1 0 0 0 0 1 forward_v I I I I #
coedge $-1 $245 $243 $247 $345 reversed $161 $-1 #
edge $-1 $258 -11.867079562779406 $347 11.867079562779406 $257 $400 forward 7 unknown #
vertex $-1 $345 $401 #
straight-curve $-1 -42.236396374401075 -24.556583981710713 0 0 0 -1 I I #
edge $-1 $343 -24.556583981710713 $347 24.556583981710713 $341 $402 forward 7 unknown #
straight-curve $-1 0 -24.556583981710713 -11.867079562779406 -1 0 0 I I #
vertex $-1 $250 $403 #
straight-curve $-1 0 24.556583981710713 -11.867079562779406 1 0 0 I I #
point $-1 42.236396374401075 24.556583981710713 -11.867079562779406 #
point $-1 42.236396374401075 -24.556583981710713 -11.867079562779406 #
straight-curve $-1 -42.236396374401075 0 11.867079562779406 0 -1 0 I I #
point $-1 -42.236396374401075 24.556583981710713 11.867079562779406 #
point $-1 -42.236396374401075 -24.556583981710713 11.867079562779406 #
straight-curve $-1 42.236396374401075 -24.556583981710713 0 0 0 -1 I I #
straight-curve $-1 42.236396374401075 24.556583981710713 0 0 0 -1 I I #
plane-surface $-1 42.236396374401075 0 0 -1 0 0 0 0 1 forward_v I I I I #
coedge $-1 $404 $360 $274 $365 forward $268 $-1 #
coedge $-1 $275 $270 $404 $405 forward $180 $-1 #
edge $-1 $284 -4.1647267098903598 $406 4.1647267098903633 $282 $407 forward 7 unknown #
coedge $-1 $357 $408 $271 $361 reversed $268 $-1 #
edge $-1 $368 -42.236396374401075 $363 42.236396374401075 $360 $409 forward 7 unknown #
coedge $-1 $282 $272 $408 $410 forward $283 $-1 #
vertex $-1 $273 $411 #
straight-curve $-1 42.236396374401075 -28.721310691601072 -6.367238863417402 0 1 0 I I #
edge $-1 $368 -2.4999203496810019 $366 2.4999203496810019 $274 $412 forward 7 unknown #
vertex $-1 $276 $413 #
straight-curve $-1 -42.236396374401075 -28.721310691601072 -11.367079562779406 0 1 0 I I #
vertex $-1 $277 $414 #
straight-curve $-1 -42.236396374401075 -28.721310691601072 -6.367238863417402 0 -1 0 I I #
point $-1 -42.236396374401075 -24.556583981710713 -11.367079562779406 #
straight-curve $-1 0 -24.556583981710713 -11.367079562779406 -1 0 0 I I #
point $-1 42.236396374401075 -24.556583981710713 -11.367079562779406 #
coedge $-1 $299 $298 $291 $374 forward $288 $-1 #
edge $-1 $375 23.474451769031628 $378 33.85452909793328 $373 $415 forward 7 unknown #
vertex $-1 $303 $416 #
straight-curve $-1 -45.344000216159529 18.522607794240411 11.867079562779406 -1 0 0 I I #
edge $-1 $378 -11.032985300114222 $300 -3.9462596881381575 $299 $417 forward 7 unknown #
vertex $-1 $377 $418 #
straight-curve $-1 -42.236396374401068 18.522607794240411 1.4870022338777602 0.81915203911291934 0 0.57357644374324357 I I #
point $-1 -27.412109912027102 18.522607794240411 11.867079562779406 #
point $-1 -42.236396374401075 11.435882182264347 1.4870022338777553 #
straight-curve $-1 -42.236396374401075 0 11.867079562779406 0 -1 0 I I #
vertex $-1 $306 $419 #
point $-1 -33.396577623161015 12.853227304659558 5.5098323758273331 #
vertex $-1 $310 $420 #
point $-1 -33.396577623161015 14.979244988252379 5.5098323758273331 #
vertex $-1 $314 $421 #
point $-1 -33.396577623161015 17.1052626718452 5.5098323758273331 #
edge $-1 $390 49.219345654251029 $393 57.485687869627789 $319 $422 forward 7 unknown #
vertex $-1 $333 $423 #
straight-curve $-1 28.397611414392959 -12.419088175958858 11.867079562779409 1 0 0 I I #
edge $-1 $393 -8.825716519856261 $330 1.6389732076510652 $329 $424 forward 7 unknown #
vertex $-1 $392 $425 #
straight-curve $-1 -9.7702469417356141 -12.419088175958858 70.166207117924174 -0.61566146476048833 0 0.78801076186113728 I I #
point $-1 35.778022196223098 -12.419088175958858 11.867079562779409 #
point $-1 42.236396374401075 -1.9543984484515322 3.6007373474026423 #
straight-curve $-1 42.236396374401075 0 11.867079562779406 0 1 0 I I #
vertex $-1 $336 $426 #
point $-1 38.04796011081109 -7.1867433122051949 5.0809335808570433 #
straight-curve $-1 -42.236396374401075 24.556583981710713 0 0 0 -1 I I #
point $-1 -42.236396374401075 -24.556583981710713 -11.867079562779406 #
straight-curve $-1 -42.236396374401075 0 -11.867079562779406 0 1 0 I I #
point $-1 -42.236396374401075 24.556583981710713 -11.867079562779406 #
coedge $-1 $408 $357 $358 $405 reversed $268 $-1 #
edge $-1 $406 -42.236396374401075 $366 42.236396374401075 $404 $427 forward 7 unknown #
vertex $-1 $410 $428 #
straight-curve $-1 42.236396374401075 -28.721310691601072 -11.367079562779406 0 -1 0 I I #
coedge $-1 $360 $404 $362 $410 reversed $268 $-1 #
straight-curve $-1 0 -32.886037401491436 -6.367238863417402 1 0 0 I I #
edge $-1 $363 -2.4999203496810019 $406 2.4999203496810019 $362 $429 forward 7 unknown #
point $-1 42.236396374401075 -32.886037401491436 -6.367238863417402 #
straight-curve $-1 -42.236396374401075 -32.886037401491436 -8.8671592130984038 0 0 -1 I I #
point $-1 -42.236396374401075 -32.886037401491436 -11.367079562779406 #
point $-1 -42.236396374401075 -32.886037401491436 -6.367238863417402 #
straight-curve $-1 -42.236396374401075 18.522607794240411 35.341531331811034 0 0 -1 I I #
point $-1 -42.236396374401075 18.522607794240411 11.867079562779406 #
straight-curve $-1 -42.236396374401075 7.4896224941261895 1.4870022338777544 0 -1 0 I I #
point $-1 -42.236396374401075 18.522607794240411 1.4870022338777553 #
point $-1 -33.519365420845858 12.853227304659558 4.813468134399252 #
point $-1 -33.519365420845858 14.979244988252379 4.813468134399252 #
point $-1 -33.519365420845858 17.1052626718452 4.813468134399252 #
straight-curve $-1 42.236396374401075 -12.419088175958858 61.086425217030431 0 0 -1 I I #
point $-1 42.236396374401075 -12.419088175958858 11.867079562779406 #
straight-curve $-1 42.236396374401082 -3.5933716561025975 3.6007373474026352 0 1 0 I I #
point $-1 42.236396374401075 -12.419088175958858 3.6007373474026423 #
point $-1 35.942451770878648 -7.1867433122051949 5.3394575265080171 #
straight-curve $-1 0 -32.886037401491436 -11.367079562779406 -1 0 0 I I #
point $-1 42.236396374401075 -32.886037401491436 -11.367079562779406 #
straight-curve $-1 42.236396374401075 -32.886037401491436 -8.8671592130984038 0 0 -1 I I #
End-of-ACIS-data 