500 0 7 0           
7 Unknown 11 ACIS 5.0 NT 24 Fri Mar 26 20:40:33 1999 
-1 9.9999999999999995e-007 1e-010 
body $-1 $7 $-1 $8 #
body $-1 $9 $-1 $10 #
body $-1 $11 $-1 $12 #
body $-1 $13 $-1 $14 #
body $-1 $15 $-1 $16 #
body $-1 $17 $-1 $18 #
body $-1 $19 $-1 $20 #
lump $-1 $-1 $21 $0 #
transform $-1 1 0 0 0 1 0 0 0 1 78.801232947782836 33.209451762420365 11.722276681702022 1 rotate no_reflect no_shear #
lump $-1 $-1 $22 $1 #
transform $-1 1 0 0 0 1 0 0 0 1 78.801232947782836 33.209451762420365 11.722276681702022 1 rotate no_reflect no_shear #
lump $-1 $-1 $23 $2 #
transform $-1 1 0 0 0 1 0 0 0 1 78.801232947782836 33.209451762420365 11.722276681702022 1 rotate no_reflect no_shear #
lump $-1 $-1 $24 $3 #
transform $-1 1 0 0 0 1 0 0 0 1 78.801232947782836 33.209451762420365 11.722276681702022 1 rotate no_reflect no_shear #
lump $-1 $-1 $25 $4 #
transform $-1 1 0 0 0 1 0 0 0 1 78.801232947782836 33.209451762420365 11.722276681702022 1 rotate no_reflect no_shear #
lump $-1 $-1 $26 $5 #
transform $-1 1 0 0 0 1 0 0 0 1 78.801232947782836 33.209451762420365 11.722276681702022 1 rotate no_reflect no_shear #
lump $-1 $-1 $27 $6 #
transform $-1 1 0 0 0 1 0 0 0 1 78.801232947782836 33.209451762420365 11.722276681702022 1 rotate no_reflect no_shear #
shell $-1 $-1 $-1 $28 $-1 $7 #
shell $-1 $-1 $-1 $29 $-1 $9 #
shell $-1 $-1 $-1 $30 $-1 $11 #
shell $-1 $-1 $-1 $31 $-1 $13 #
shell $-1 $-1 $-1 $32 $-1 $15 #
shell $-1 $-1 $-1 $33 $-1 $17 #
shell $-1 $-1 $-1 $34 $-1 $19 #
face $-1 $35 $36 $21 $-1 $37 forward single #
face $-1 $38 $39 $22 $-1 $40 reversed single #
face $-1 $41 $42 $23 $-1 $43 reversed single #
face $-1 $44 $45 $24 $-1 $46 forward single #
face $-1 $47 $48 $25 $-1 $49 reversed single #
face $-1 $50 $51 $26 $-1 $52 forward single #
face $-1 $53 $54 $27 $-1 $55 forward single #
face $-1 $56 $57 $21 $-1 $58 reversed single #
loop $-1 $-1 $59 $28 #
plane-surface $-1 0 0 11.722276681702022 0 0 1 1 0 0 forward_v I I I I #
face $-1 $60 $61 $22 $-1 $62 reversed single #
loop $-1 $-1 $63 $29 #
plane-surface $-1 -71.737451338814168 0 4.7719078402626725 0 0 1 1 0 0 forward_v I I I I #
face $-1 $64 $65 $23 $-1 $66 reversed single #
loop $-1 $-1 $67 $30 #
plane-surface $-1 72.907898633613684 -119.04590782839912 133.05418019499717 -1 0 0 0 -0.54463904215088732 0.83867056331134215 forward_v I I I I #
face $-1 $68 $69 $24 $-1 $70 forward single #
loop $-1 $71 $72 $31 #
cone-surface $-1 60.224510565094988 -22.485166366243249 2.6433278327883523 0 0.54463904215088732 -0.83867056331134215 2.5 0 0 1 I I 0 1 2.5 forward I I I I #
face $-1 $73 $74 $25 $-1 $75 reversed single #
loop $-1 $-1 $76 $32 #
plane-surface $-1 -46.84953916159629 100.44073268751271 164.55711855127439 -1 0 0 0 0.71933980857756763 0.69465836192734942 forward_v I I I I #
face $-1 $77 $78 $26 $-1 $79 forward single #
loop $-1 $80 $81 $33 #
cone-surface $-1 -59.58106099606001 30.571039910750105 9.0252439702026646 0 -0.71933980857756763 -0.69465836192734942 0.5 0 0 1 I I 0 1 0.5 forward I I I I #
face $-1 $82 $83 $27 $-1 $84 forward single #
loop $-1 $85 $86 $34 #
cone-surface $-1 -51.94214789538178 30.571039910750105 9.0252439702026646 0 -0.71933980857756763 -0.69465836192734942 0.5 0 0 1 I I 0 1 0.5 forward I I I I #
face $-1 $87 $88 $21 $-1 $89 reversed single #
loop $-1 $-1 $90 $35 #
plane-surface $-1 0 0 -11.722276681702022 0 0 1 1 0 0 forward_v I I I I #
coedge $-1 $91 $92 $93 $94 forward $36 $-1 #
face $-1 $95 $96 $22 $-1 $97 reversed single #
loop $-1 $-1 $98 $38 #
plane-surface $-1 -64.6736697298455 0 8.2470922609823472 -1 0 0 0 0 1 forward_v I I I I #
coedge $-1 $99 $100 $101 $102 forward $39 $-1 #
face $-1 $103 $104 $23 $-1 $105 reversed single #
loop $-1 $-1 $106 $41 #
plane-surface $-1 60.224510565094988 -33.209451762420343 0.87763134310651481 0 -0.54463904215088732 0.83867056331134215 1 0 0 forward_v I I I I #
coedge $-1 $107 $108 $109 $110 reversed $42 $-1 #
face $-1 $-1 $111 $24 $-1 $112 forward single #
loop $-1 $113 $114 $44 #
cone-surface $-1 60.224510565094988 -19.429726712793613 -2.061636550966746 0 0.54463904215088732 -0.83867056331134215 1.25 0 0 1 I I -0.70710678118654746 0.70710678118654746 1.25 forward I I I I #
loop $-1 $-1 $115 $31 #
coedge $-1 $72 $72 $116 $117 reversed $45 $-1 #
face $-1 $118 $119 $25 $-1 $120 forward single #
loop $-1 $-1 $121 $47 #
plane-surface $-1 -55.761604445720891 -12.928994961156135 55.077247756549781 0 0.71933980857756763 0.69465836192734942 1 0 0 forward_v I I I I #
coedge $-1 $122 $123 $124 $125 reversed $48 $-1 #
face $-1 $-1 $126 $26 $-1 $127 forward single #
loop $-1 $128 $129 $50 #
cone-surface $-1 -59.58106099606001 29.888312516057091 8.3659418045430325 0 -0.71933980857756763 -0.69465836192734942 0.25 0 0 1 I I -0.70710678118654746 0.70710678118654746 0.25 forward I I I I #
loop $-1 $-1 $130 $33 #
coedge $-1 $81 $81 $131 $132 reversed $51 $-1 #
face $-1 $-1 $133 $27 $-1 $134 forward single #
loop $-1 $135 $136 $53 #
cone-surface $-1 -51.94214789538178 29.888312516057091 8.3659418045430325 0 -0.71933980857756763 -0.69465836192734942 0.25 0 0 1 I I -0.70710678118654746 0.70710678118654746 0.25 forward I I I I #
loop $-1 $-1 $137 $34 #
coedge $-1 $86 $86 $138 $139 reversed $54 $-1 #
face $-1 $140 $141 $21 $-1 $142 reversed single #
loop $-1 $-1 $143 $56 #
plane-surface $-1 0 -33.209451762420365 0 0 1 0 0 0 1 forward_v I I I I #
coedge $-1 $144 $145 $146 $147 forward $57 $-1 #
coedge $-1 $148 $59 $149 $150 forward $36 $-1 #
coedge $-1 $59 $148 $151 $152 forward $36 $-1 #
coedge $-1 $153 $154 $59 $94 reversed $155 $-1 #
edge $-1 $156 -33.209451762420365 $157 33.209451762420365 $93 $158 forward 7 unknown #
face $-1 $159 $160 $22 $-1 $161 reversed single #
loop $-1 $-1 $162 $60 #
plane-surface $-1 0 33.209451762420365 0 0 -1 0 0 0 -1 forward_v I I I I #
coedge $-1 $101 $163 $164 $165 reversed $61 $-1 #
coedge $-1 $166 $63 $167 $168 reversed $39 $-1 #
coedge $-1 $63 $166 $169 $170 reversed $39 $-1 #
coedge $-1 $171 $98 $63 $102 reversed $61 $-1 #
edge $-1 $172 -33.209451762420365 $173 33.209451762420365 $101 $174 forward 7 unknown #
face $-1 $175 $176 $23 $-1 $177 reversed single #
loop $-1 $-1 $178 $64 #
plane-surface $-1 47.541122496576293 -119.04590782839912 133.05418019499717 1 0 0 0 0.54463904215088732 -0.83867056331134215 forward_v I I I I #
coedge $-1 $179 $180 $181 $182 reversed $65 $-1 #
coedge $-1 $108 $67 $183 $184 reversed $42 $-1 #
coedge $-1 $67 $107 $179 $185 reversed $42 $-1 #
coedge $-1 $181 $186 $67 $110 forward $187 $-1 #
edge $-1 $188 26.313502151779197 $189 43.012791242611428 $109 $190 forward 7 unknown #
loop $-1 $-1 $116 $68 #
plane-surface $-1 60.224510565094988 -33.209451762420343 0.87763134310651481 0 -0.54463904215088732 0.83867056331134215 1 0 0 forward_v I I I I #
loop $-1 $-1 $191 $44 #
coedge $-1 $114 $114 $115 $192 reversed $69 $-1 #
coedge $-1 $115 $115 $114 $192 forward $71 $-1 #
coedge $-1 $116 $116 $72 $117 forward $111 $-1 #
edge $-1 $193 4.8792014888211371e-016 $193 6.2831853071796013 $116 $194 forward 7 unknown #
face $-1 $195 $196 $25 $-1 $197 forward single #
loop $-1 $-1 $198 $73 #
plane-surface $-1 0 0 11.722276681702022 0 0 1 1 0 0 forward_v I I I I #
coedge $-1 $199 $200 $201 $202 reversed $74 $-1 #
coedge $-1 $123 $76 $203 $204 reversed $48 $-1 #
coedge $-1 $76 $122 $199 $205 reversed $48 $-1 #
coedge $-1 $201 $206 $76 $125 forward $207 $-1 #
edge $-1 $208 70.556282593935165 $209 74.979072866578264 $124 $210 forward 7 unknown #
loop $-1 $-1 $131 $77 #
plane-surface $-1 -55.761604445720891 -12.928994961156135 55.077247756549781 0 0.71933980857756763 0.69465836192734942 1 0 0 forward_v I I I I #
loop $-1 $-1 $211 $50 #
coedge $-1 $129 $129 $130 $212 reversed $78 $-1 #
coedge $-1 $130 $130 $129 $212 forward $80 $-1 #
coedge $-1 $131 $131 $81 $132 forward $126 $-1 #
edge $-1 $213 -1.5033750201174806e-015 $213 6.2831853071795987 $131 $214 forward 7 unknown #
loop $-1 $-1 $138 $82 #
plane-surface $-1 -55.761604445720891 -12.928994961156135 55.077247756549781 0 0.71933980857756763 0.69465836192734942 1 0 0 forward_v I I I I #
loop $-1 $-1 $215 $53 #
coedge $-1 $136 $136 $137 $216 reversed $83 $-1 #
coedge $-1 $137 $137 $136 $216 forward $85 $-1 #
coedge $-1 $138 $138 $86 $139 forward $133 $-1 #
edge $-1 $217 -1.5033750201174806e-015 $217 6.2831853071795987 $138 $218 forward 7 unknown #
face $-1 $219 $220 $21 $-1 $221 reversed single #
loop $-1 $-1 $222 $87 #
plane-surface $-1 -78.801232947782836 0 0 1 0 0 0 0 -1 forward_v I I I I #
coedge $-1 $223 $151 $224 $225 forward $88 $-1 #
coedge $-1 $226 $90 $223 $227 forward $57 $-1 #
coedge $-1 $90 $226 $228 $229 forward $57 $-1 #
coedge $-1 $154 $153 $90 $147 reversed $155 $-1 #
edge $-1 $230 -33.209451762420365 $231 33.209451762420365 $146 $232 forward 7 unknown #
coedge $-1 $92 $91 $233 $234 forward $36 $-1 #
coedge $-1 $235 $236 $91 $150 reversed $220 $-1 #
edge $-1 $157 -78.801232947782836 $237 78.801232947782836 $149 $238 forward 7 unknown #
coedge $-1 $143 $239 $92 $152 reversed $88 $-1 #
edge $-1 $240 -78.801232947782836 $156 78.801232947782836 $151 $241 forward 7 unknown #
coedge $-1 $146 $93 $239 $242 forward $155 $-1 #
coedge $-1 $93 $146 $235 $243 reversed $155 $-1 #
loop $-1 $-1 $153 $219 #
vertex $-1 $94 $244 #
vertex $-1 $94 $245 #
straight-curve $-1 78.801232947782836 0 11.722276681702022 0 1 0 I I #
face $-1 $246 $247 $22 $-1 $248 forward single #
loop $-1 $-1 $249 $95 #
plane-surface $-1 -78.801232947782836 0 0 1 0 0 0 0 -1 forward_v I I I I #
coedge $-1 $169 $250 $171 $251 forward $96 $-1 #
coedge $-1 $98 $171 $252 $253 reversed $61 $-1 #
coedge $-1 $254 $167 $98 $165 forward $255 $-1 #
edge $-1 $173 0.64836170977149887 $256 7.5987305512108483 $164 $257 forward 7 unknown #
coedge $-1 $100 $99 $249 $258 reversed $39 $-1 #
coedge $-1 $164 $259 $99 $168 forward $255 $-1 #
edge $-1 $260 -42.932507278375752 $173 -28.804944060438416 $167 $261 forward 7 unknown #
coedge $-1 $262 $162 $100 $170 forward $96 $-1 #
edge $-1 $172 28.804944060438416 $263 42.932507278375752 $169 $264 forward 7 unknown #
coedge $-1 $163 $101 $162 $251 reversed $61 $-1 #
vertex $-1 $170 $265 #
vertex $-1 $168 $266 #
straight-curve $-1 -64.6736697298455 0 4.7719078402626725 0 -1 0 I I #
face $-1 $-1 $187 $23 $-1 $267 forward single #
loop $-1 $-1 $268 $103 #
plane-surface $-1 0 -33.209451762420365 0 0 1 0 0 0 1 forward_v I I I I #
coedge $-1 $269 $270 $271 $272 reversed $104 $-1 #
coedge $-1 $273 $106 $108 $185 forward $65 $-1 #
coedge $-1 $106 $273 $269 $274 forward $65 $-1 #
coedge $-1 $271 $109 $106 $182 forward $187 $-1 #
edge $-1 $189 -42.79564335106619 $275 -17.428867214028799 $181 $276 forward 7 unknown #
coedge $-1 $277 $278 $107 $184 forward $176 $-1 #
edge $-1 $279 -65.649458754392086 $188 -54.804813415796566 $183 $280 forward 7 unknown #
edge $-1 $189 -19.911619438385937 $279 2.5435723352522492e-014 $108 $281 forward 7 unknown #
coedge $-1 $109 $271 $277 $282 forward $187 $-1 #
loop $-1 $-1 $271 $175 #
vertex $-1 $184 $283 #
vertex $-1 $110 $284 #
straight-curve $-1 72.907898633613684 -59.522953914199562 11.72227668170202 0 1 0 I I #
coedge $-1 $191 $191 $-1 $285 reversed $113 $-1 #
edge $-1 $286 0 $286 6.2831853071796004 $114 $287 forward 7 unknown #
vertex $-1 $117 $288 #
ellipse-curve $-1 60.224510565094988 -24.85980721700426 6.2999540124042541 0 -0.54463904215088732 0.83867056331134215 2.5 0 0 1 I I #
face $-1 $-1 $207 $25 $-1 $289 reversed single #
loop $-1 $-1 $290 $118 #
plane-surface $-1 -64.6736697298455 0 8.2470922609823472 -1 0 0 0 0 1 forward_v I I I I #
coedge $-1 $203 $291 $292 $293 forward $119 $-1 #
coedge $-1 $292 $121 $123 $205 forward $74 $-1 #
coedge $-1 $121 $292 $290 $294 reversed $74 $-1 #
coedge $-1 $295 $124 $121 $202 forward $207 $-1 #
edge $-1 $209 18.968736938735844 $296 36.792867506985054 $201 $297 forward 7 unknown #
coedge $-1 $298 $198 $122 $204 forward $119 $-1 #
edge $-1 $299 -21.281953399579244 $208 -17.010914581335989 $203 $300 forward 7 unknown #
edge $-1 $209 -66.418903524840701 $299 -60.270501587529921 $123 $301 forward 7 unknown #
coedge $-1 $124 $295 $298 $302 reversed $207 $-1 #
loop $-1 $-1 $201 $195 #
vertex $-1 $302 $303 #
vertex $-1 $125 $304 #
straight-curve $-1 -46.84953916159629 33.209451762420365 82.278559275637193 0 0 -1 I I #
coedge $-1 $211 $211 $-1 $305 reversed $128 $-1 #
edge $-1 $306 0 $306 6.2831853071796004 $129 $307 forward 7 unknown #
vertex $-1 $132 $308 #
ellipse-curve $-1 -59.58106099606001 31.073932353298744 9.5108815453804763 0 0.71933980857756763 0.69465836192734942 0.5 0 0 1 I I #
coedge $-1 $215 $215 $-1 $309 reversed $135 $-1 #
edge $-1 $310 0 $310 6.2831853071796004 $136 $311 forward 7 unknown #
vertex $-1 $139 $312 #
ellipse-curve $-1 -51.94214789538178 31.073932353298744 9.5108815453804763 0 0.71933980857756763 0.69465836192734942 0.5 0 0 1 I I #
face $-1 $-1 $155 $21 $-1 $313 reversed single #
loop $-1 $-1 $235 $140 #
plane-surface $-1 0 33.209451762420365 0 0 -1 0 0 0 -1 forward_v I I I I #
coedge $-1 $314 $233 $236 $315 forward $141 $-1 #
coedge $-1 $239 $143 $144 $227 reversed $88 $-1 #
coedge $-1 $233 $314 $143 $225 reversed $141 $-1 #
edge $-1 $240 -11.722276681702022 $316 11.722276681702022 $224 $317 forward 7 unknown #
coedge $-1 $145 $144 $314 $318 forward $57 $-1 #
edge $-1 $231 -78.801232947782836 $316 78.801232947782836 $223 $319 forward 7 unknown #
coedge $-1 $236 $235 $145 $229 reversed $220 $-1 #
edge $-1 $320 -78.801232947782836 $230 78.801232947782836 $228 $321 forward 7 unknown #
vertex $-1 $147 $322 #
vertex $-1 $242 $323 #
straight-curve $-1 78.801232947782836 0 -11.722276681702022 0 -1 0 I I #
coedge $-1 $222 $224 $148 $234 reversed $141 $-1 #
edge $-1 $237 -33.209451762420365 $240 33.209451762420365 $233 $324 forward 7 unknown #
coedge $-1 $228 $149 $154 $243 forward $220 $-1 #
coedge $-1 $149 $228 $222 $315 reversed $220 $-1 #
vertex $-1 $150 $325 #
straight-curve $-1 0 33.209451762420365 11.722276681702022 -1 0 0 I I #
coedge $-1 $151 $223 $153 $242 reversed $88 $-1 #
vertex $-1 $234 $326 #
straight-curve $-1 0 -33.209451762420365 11.722276681702022 1 0 0 I I #
edge $-1 $156 -11.722276681702022 $231 11.722276681702022 $153 $327 forward 7 unknown #
edge $-1 $157 -11.722276681702022 $230 11.722276681702022 $154 $328 forward 7 unknown #
point $-1 78.801232947782836 -33.209451762420365 11.722276681702022 #
point $-1 78.801232947782836 33.209451762420365 11.722276681702022 #
face $-1 $-1 $255 $22 $-1 $329 reversed single #
loop $-1 $-1 $252 $159 #
plane-surface $-1 0 0 11.722276681702022 0 0 1 1 0 0 forward_v I I I I #
coedge $-1 $330 $331 $166 $258 forward $160 $-1 #
coedge $-1 $162 $262 $332 $333 reversed $96 $-1 #
edge $-1 $334 -7.5987305512108483 $172 -0.64836170977149887 $162 $335 forward 7 unknown #
coedge $-1 $332 $336 $163 $253 forward $247 $-1 #
edge $-1 $256 -33.209451762420365 $334 33.209451762420365 $252 $337 forward 7 unknown #
coedge $-1 $259 $164 $336 $338 reversed $255 $-1 #
loop $-1 $-1 $164 $246 #
vertex $-1 $165 $339 #
straight-curve $-1 -64.6736697298455 -33.209451762420365 4.1235461304911736 0 0 1 I I #
edge $-1 $263 -33.209451762420365 $260 33.209451762420365 $249 $340 forward 7 unknown #
coedge $-1 $167 $254 $330 $341 forward $255 $-1 #
vertex $-1 $258 $342 #
straight-curve $-1 -35.868725669407084 -33.209451762420365 4.7719078402626725 1 0 0 I I #
coedge $-1 $250 $169 $331 $343 reversed $96 $-1 #
vertex $-1 $258 $344 #
straight-curve $-1 -35.868725669407084 33.209451762420365 4.7719078402626725 -1 0 0 I I #
point $-1 -64.6736697298455 33.209451762420365 4.7719078402626725 #
point $-1 -64.6736697298455 -33.209451762420365 4.7719078402626725 #
plane-surface $-1 0 0 11.722276681702022 0 0 1 1 0 0 forward_v I I I I #
coedge $-1 $278 $277 $270 $345 forward $176 $-1 #
coedge $-1 $270 $178 $180 $274 reversed $104 $-1 #
coedge $-1 $178 $269 $268 $345 reversed $104 $-1 #
coedge $-1 $186 $181 $178 $272 forward $187 $-1 #
edge $-1 $275 -43.012791242611428 $346 -26.313502151779197 $271 $347 forward 7 unknown #
coedge $-1 $180 $179 $278 $348 reversed $65 $-1 #
edge $-1 $349 -2.5435723352522492e-014 $275 19.911619438385937 $269 $350 forward 7 unknown #
vertex $-1 $182 $351 #
straight-curve $-1 30.112255282547494 -16.510162671588137 11.722276681702022 -1 0 0 I I #
coedge $-1 $268 $183 $186 $282 reversed $176 $-1 #
coedge $-1 $183 $268 $273 $348 forward $176 $-1 #
vertex $-1 $184 $352 #
straight-curve $-1 72.907898633613684 -33.209451762420365 66.527090097498586 0 0 1 I I #
straight-curve $-1 72.907898633613684 -33.209451762420343 0.87763134310651481 0 -0.83867056331134215 -0.54463904215088732 I I #
edge $-1 $346 47.541122496576293 $188 72.907898633613684 $277 $353 forward 7 unknown #
point $-1 72.907898633613684 -33.209451762420365 11.722276681702022 #
point $-1 72.907898633613684 -16.510162671588137 11.722276681702022 #
edge $-1 $354 1 $354 0 $191 $-1 forward 7 unknown #
vertex $-1 $192 $355 #
ellipse-curve $-1 60.224510565094988 -20.110525515482223 -1.0132983468275683 0 -0.54463904215088732 0.83867056331134215 2.5 0 0 1 I I #
point $-1 62.724510565094988 -24.859807217004271 6.2999540124042728 #
plane-surface $-1 0 33.209451762420365 0 0 -1 0 0 0 -1 forward_v I I I I #
coedge $-1 $356 $357 $200 $294 forward $196 $-1 #
coedge $-1 $198 $298 $356 $358 forward $119 $-1 #
coedge $-1 $200 $199 $198 $293 reversed $74 $-1 #
edge $-1 $359 -36.792867506985054 $299 -18.968736938735844 $198 $360 forward 7 unknown #
edge $-1 $296 -45.084888749379274 $359 -38.93648681206848 $290 $361 forward 7 unknown #
coedge $-1 $206 $201 $357 $362 forward $207 $-1 #
vertex $-1 $362 $363 #
straight-curve $-1 -27.880802222860446 33.209451762420365 7.2994864090589324 -1 0 0 I I #
coedge $-1 $291 $203 $206 $302 forward $119 $-1 #
vertex $-1 $204 $364 #
straight-curve $-1 -46.84953916159629 50.220366343756353 11.722276681702027 0 1 0 I I #
straight-curve $-1 -46.84953916159629 -12.928994961156135 55.077247756549781 0 -0.69465836192734942 0.71933980857756763 I I #
edge $-1 $208 46.84953916159629 $365 64.6736697298455 $206 $366 forward 7 unknown #
point $-1 -46.84953916159629 33.209451762420365 11.722276681702022 #
point $-1 -46.84953916159629 33.209451762420358 7.299486409058936 #
edge $-1 $367 1 $367 0 $211 $-1 forward 7 unknown #
vertex $-1 $212 $368 #
ellipse-curve $-1 -59.58106099606001 30.068147468201484 8.5396063950248706 0 0.71933980857756763 0.69465836192734942 0.5 0 0 1 I I #
point $-1 -59.08106099606001 31.073932353298723 9.5108815453804567 #
edge $-1 $369 1 $369 0 $215 $-1 forward 7 unknown #
vertex $-1 $216 $370 #
ellipse-curve $-1 -51.94214789538178 30.068147468201484 8.5396063950248706 0 0.71933980857756763 0.69465836192734942 0.5 0 0 1 I I #
point $-1 -51.44214789538178 31.073932353298723 9.5108815453804567 #
plane-surface $-1 78.801232947782836 0 0 -1 0 0 0 0 1 forward_v I I I I #
coedge $-1 $224 $222 $226 $318 reversed $141 $-1 #
edge $-1 $237 -11.722276681702022 $320 11.722276681702022 $236 $371 forward 7 unknown #
vertex $-1 $318 $372 #
straight-curve $-1 -78.801232947782836 -33.209451762420365 0 0 0 -1 I I #
edge $-1 $316 -33.209451762420365 $320 33.209451762420365 $314 $373 forward 7 unknown #
straight-curve $-1 0 -33.209451762420365 -11.722276681702022 -1 0 0 I I #
vertex $-1 $229 $374 #
straight-curve $-1 0 33.209451762420365 -11.722276681702022 1 0 0 I I #
point $-1 78.801232947782836 33.209451762420365 -11.722276681702022 #
point $-1 78.801232947782836 -33.209451762420365 -11.722276681702022 #
straight-curve $-1 -78.801232947782836 0 11.722276681702022 0 -1 0 I I #
point $-1 -78.801232947782836 33.209451762420365 11.722276681702022 #
point $-1 -78.801232947782836 -33.209451762420365 11.722276681702022 #
straight-curve $-1 78.801232947782836 -33.209451762420365 0 0 0 -1 I I #
straight-curve $-1 78.801232947782836 33.209451762420365 0 0 0 -1 I I #
plane-surface $-1 0 -33.209451762420365 0 0 1 0 0 0 1 forward_v I I I I #
coedge $-1 $375 $249 $259 $341 reversed $160 $-1 #
coedge $-1 $249 $375 $262 $343 forward $160 $-1 #
coedge $-1 $376 $252 $250 $333 forward $247 $-1 #
edge $-1 $334 64.6736697298455 $377 78.801232947782836 $250 $378 forward 7 unknown #
vertex $-1 $333 $379 #
straight-curve $-1 -64.6736697298455 33.209451762420365 4.1235461304911736 0 0 -1 I I #
coedge $-1 $252 $376 $254 $338 forward $247 $-1 #
straight-curve $-1 -64.6736697298455 0 11.722276681702022 0 1 0 I I #
edge $-1 $380 -78.801232947782836 $256 -64.6736697298455 $254 $381 forward 7 unknown #
point $-1 -64.6736697298455 -33.209451762420365 11.722276681702022 #
straight-curve $-1 -78.801232947782836 0 4.7719078402626725 0 -1 0 I I #
edge $-1 $380 -11.722276681702022 $260 -4.7719078402626725 $330 $382 forward 7 unknown #
point $-1 -78.801232947782836 -33.209451762420365 4.7719078402626725 #
edge $-1 $377 -11.722276681702022 $263 -4.7719078402626725 $262 $383 forward 7 unknown #
point $-1 -78.801232947782836 33.209451762420365 4.7719078402626725 #
edge $-1 $346 54.804813415796566 $349 65.649458754392086 $268 $384 forward 7 unknown #
vertex $-1 $282 $385 #
straight-curve $-1 47.541122496576293 -59.522953914199562 11.72227668170202 0 -1 0 I I #
edge $-1 $349 17.428867214028799 $279 42.79564335106619 $278 $386 forward 7 unknown #
vertex $-1 $348 $387 #
straight-curve $-1 47.541122496576293 -33.209451762420343 0.87763134310651481 0 0.83867056331134215 0.54463904215088732 I I #
point $-1 47.541122496576293 -16.510162671588137 11.722276681702022 #
point $-1 72.907898633613684 -33.209451762420365 0.87763134310650093 #
straight-curve $-1 0 -33.209451762420365 11.722276681702022 1 0 0 I I #
vertex $-1 $285 $388 #
point $-1 62.724510565094988 -20.110525515482223 -1.0132983468275683 #
coedge $-1 $357 $290 $291 $358 reversed $196 $-1 #
coedge $-1 $290 $356 $295 $362 reversed $196 $-1 #
edge $-1 $365 -33.209451762420365 $359 -28.938412944177109 $291 $389 forward 7 unknown #
vertex $-1 $294 $390 #
straight-curve $-1 -27.880802222860446 28.938412944177113 11.722276681702024 1 0 0 I I #
straight-curve $-1 -64.6736697298455 1.8908567960997757 39.730841651778348 0 -0.69465836192734942 0.71933980857756763 I I #
edge $-1 $296 3.1759402785677642 $365 7.5987305512108483 $295 $391 forward 7 unknown #
point $-1 -64.6736697298455 33.209451762420365 7.2994864090589378 #
point $-1 -46.84953916159629 28.938412944177109 11.72227668170202 #
vertex $-1 $358 $392 #
straight-curve $-1 0 33.209451762420365 11.722276681702022 -1 0 0 I I #
vertex $-1 $305 $393 #
point $-1 -59.08106099606001 30.068147468201484 8.5396063950248706 #
vertex $-1 $309 $394 #
point $-1 -51.44214789538178 30.068147468201484 8.5396063950248706 #
straight-curve $-1 -78.801232947782836 33.209451762420365 0 0 0 -1 I I #
point $-1 -78.801232947782836 -33.209451762420365 -11.722276681702022 #
straight-curve $-1 -78.801232947782836 0 -11.722276681702022 0 1 0 I I #
point $-1 -78.801232947782836 33.209451762420365 -11.722276681702022 #
coedge $-1 $331 $330 $376 $395 reversed $160 $-1 #
coedge $-1 $336 $332 $375 $395 forward $247 $-1 #
vertex $-1 $333 $396 #
straight-curve $-1 0 33.209451762420365 11.722276681702022 -1 0 0 I I #
point $-1 -64.6736697298455 33.209451762420365 11.722276681702022 #
vertex $-1 $395 $397 #
straight-curve $-1 0 -33.209451762420365 11.722276681702022 1 0 0 I I #
straight-curve $-1 -78.801232947782836 -33.209451762420365 0 0 0 -1 I I #
straight-curve $-1 -78.801232947782836 33.209451762420365 0 0 0 -1 I I #
straight-curve $-1 47.541122496576293 -33.209451762420365 66.527090097498586 0 0 -1 I I #
point $-1 47.541122496576293 -33.209451762420365 11.722276681702022 #
straight-curve $-1 30.112255282547494 -33.209451762420365 0.87763134310650492 1 0 0 I I #
point $-1 47.541122496576293 -33.209451762420365 0.87763134310650093 #
point $-1 60.224510565094988 -18.748927910105003 -3.1099747551059238 #
straight-curve $-1 -64.6736697298455 0 11.722276681702022 0 -1 0 I I #
point $-1 -64.6736697298455 28.938412944177109 11.72227668170202 #
straight-curve $-1 -64.6736697298455 33.209451762420365 4.1235461304911736 0 0 1 I I #
point $-1 -64.6736697298455 33.209451762420365 11.722276681702022 #
point $-1 -59.58106099606001 29.708477563912698 8.1922772140611944 #
point $-1 -51.94214789538178 29.708477563912698 8.1922772140611944 #
edge $-1 $377 -33.209451762420365 $380 33.209451762420365 $375 $398 forward 7 unknown #
point $-1 -78.801232947782836 33.209451762420365 11.722276681702022 #
point $-1 -78.801232947782836 -33.209451762420365 11.722276681702022 #
straight-curve $-1 -78.801232947782836 0 11.722276681702022 0 -1 0 I I #
End-of-ACIS-data 