500 0 3 0           
7 Unknown 11 ACIS 5.0 NT 24 Fri Mar 26 20:46:58 1999 
-1 9.9999999999999995e-007 1e-010 
body $-1 $3 $-1 $4 #
body $-1 $5 $-1 $6 #
body $-1 $7 $-1 $8 #
lump $-1 $-1 $9 $0 #
transform $-1 1 0 0 0 1 0 0 0 1 67.223731192968529 40.446459489616238 10.567404391326781 1 rotate no_reflect no_shear #
lump $-1 $-1 $10 $1 #
transform $-1 1 0 0 0 1 0 0 0 1 67.223731192968529 40.446459489616238 10.567404391326781 1 rotate no_reflect no_shear #
lump $-1 $-1 $11 $2 #
transform $-1 1 0 0 0 1 0 0 0 1 67.223731192968529 40.446459489616238 10.567404391326781 1 rotate no_reflect no_shear #
shell $-1 $-1 $-1 $12 $-1 $3 #
shell $-1 $-1 $-1 $13 $-1 $5 #
shell $-1 $-1 $-1 $14 $-1 $7 #
face $-1 $15 $16 $9 $-1 $17 forward single #
face $-1 $18 $19 $10 $-1 $20 reversed single #
face $-1 $21 $22 $11 $-1 $23 forward single #
face $-1 $24 $25 $9 $-1 $26 reversed single #
loop $-1 $-1 $27 $12 #
plane-surface $-1 0 0 10.567404391326781 0 0 1 1 0 0 forward_v I I I I #
face $-1 $28 $29 $10 $-1 $30 reversed single #
loop $-1 $-1 $31 $13 #
plane-surface $-1 -71.35027245389783 0 7.1376016720738669 0 0 1 1 0 0 forward_v I I I I #
face $-1 $32 $33 $11 $-1 $34 forward single #
loop $-1 $-1 $35 $14 #
plane-surface $-1 63.363892165491762 -25.510576295626198 0 0 1 0 0 0 1 forward_v I I I I #
face $-1 $36 $37 $9 $-1 $38 reversed single #
loop $-1 $-1 $39 $15 #
plane-surface $-1 0 0 -10.567404391326781 0 0 1 1 0 0 forward_v I I I I #
coedge $-1 $40 $41 $42 $43 forward $16 $-1 #
face $-1 $44 $45 $10 $-1 $46 forward single #
loop $-1 $-1 $47 $18 #
plane-surface $-1 -75.476813714827131 0 8.8525030317003246 1 0 0 0 0 -1 forward_v I I I I #
coedge $-1 $48 $49 $50 $51 reversed $19 $-1 #
face $-1 $52 $53 $11 $-1 $54 forward single #
loop $-1 $-1 $55 $21 #
plane-surface $-1 59.504053138014996 -24.010576295626198 0 1 0 0 0 0 -1 forward_v I I I I #
coedge $-1 $56 $57 $58 $59 reversed $22 $-1 #
face $-1 $60 $61 $9 $-1 $62 reversed single #
loop $-1 $-1 $63 $24 #
plane-surface $-1 0 -40.446459489616238 0 0 1 0 0 0 1 forward_v I I I I #
coedge $-1 $64 $65 $66 $67 forward $25 $-1 #
coedge $-1 $68 $27 $69 $70 forward $16 $-1 #
coedge $-1 $27 $68 $71 $72 forward $16 $-1 #
coedge $-1 $73 $74 $27 $43 reversed $75 $-1 #
edge $-1 $76 -40.446459489616238 $77 40.446459489616238 $42 $78 forward 7 unknown #
face $-1 $79 $80 $10 $-1 $81 reversed single #
loop $-1 $-1 $82 $28 #
plane-surface $-1 0 0 10.567404391326781 0 0 1 1 0 0 forward_v I I I I #
coedge $-1 $83 $84 $85 $86 forward $29 $-1 #
coedge $-1 $87 $31 $88 $89 forward $19 $-1 #
coedge $-1 $31 $87 $90 $91 forward $19 $-1 #
coedge $-1 $92 $93 $31 $51 forward $94 $-1 #
edge $-1 $95 -40.446459489616238 $96 40.446459489616238 $50 $97 forward 7 unknown #
face $-1 $98 $99 $11 $-1 $100 forward single #
loop $-1 $-1 $101 $32 #
plane-surface $-1 63.363892165491762 -22.510576295626198 0 0 -1 0 0 0 -1 forward_v I I I I #
coedge $-1 $102 $103 $104 $105 reversed $33 $-1 #
coedge $-1 $106 $35 $107 $108 reversed $22 $-1 #
coedge $-1 $35 $106 $109 $110 reversed $22 $-1 #
coedge $-1 $103 $102 $35 $59 forward $33 $-1 #
edge $-1 $111 -10.567404391326781 $112 10.567404391326781 $58 $113 forward 7 unknown #
face $-1 $114 $115 $9 $-1 $116 reversed single #
loop $-1 $-1 $117 $36 #
plane-surface $-1 -67.223731192968529 0 0 1 0 0 0 0 -1 forward_v I I I I #
coedge $-1 $118 $71 $119 $120 forward $37 $-1 #
coedge $-1 $121 $39 $118 $122 forward $25 $-1 #
coedge $-1 $39 $121 $123 $124 forward $25 $-1 #
coedge $-1 $74 $73 $39 $67 reversed $75 $-1 #
edge $-1 $125 -40.446459489616238 $126 40.446459489616238 $66 $127 forward 7 unknown #
coedge $-1 $41 $40 $128 $129 forward $16 $-1 #
coedge $-1 $130 $131 $40 $70 reversed $115 $-1 #
edge $-1 $77 -67.223731192968529 $132 67.223731192968529 $69 $133 forward 7 unknown #
coedge $-1 $63 $134 $41 $72 reversed $37 $-1 #
edge $-1 $135 -67.223731192968529 $76 67.223731192968529 $71 $136 forward 7 unknown #
coedge $-1 $66 $42 $134 $137 forward $75 $-1 #
coedge $-1 $42 $66 $130 $138 reversed $75 $-1 #
loop $-1 $-1 $73 $114 #
vertex $-1 $43 $139 #
vertex $-1 $43 $140 #
straight-curve $-1 67.223731192968529 0 10.567404391326781 0 1 0 I I #
face $-1 $141 $142 $10 $-1 $143 reversed single #
loop $-1 $-1 $144 $44 #
plane-surface $-1 0 0 -10.567404391326781 0 0 1 1 0 0 forward_v I I I I #
coedge $-1 $145 $146 $147 $148 forward $45 $-1 #
coedge $-1 $149 $47 $87 $150 reversed $29 $-1 #
coedge $-1 $47 $149 $151 $152 reversed $29 $-1 #
coedge $-1 $153 $90 $47 $86 reversed $154 $-1 #
edge $-1 $155 -1.7149013596264577 $156 1.7149013596264577 $85 $157 forward 7 unknown #
coedge $-1 $49 $48 $83 $150 forward $19 $-1 #
coedge $-1 $158 $159 $48 $89 reversed $142 $-1 #
edge $-1 $95 -4.1265412609293008 $160 4.1265412609293008 $88 $161 forward 7 unknown #
coedge $-1 $85 $162 $49 $91 reversed $154 $-1 #
edge $-1 $156 -4.1265412609293008 $96 4.1265412609293008 $90 $163 forward 7 unknown #
coedge $-1 $164 $50 $162 $165 forward $94 $-1 #
coedge $-1 $50 $164 $158 $166 reversed $94 $-1 #
loop $-1 $-1 $50 $141 #
vertex $-1 $166 $167 #
vertex $-1 $165 $168 #
straight-curve $-1 -67.223731192968529 0 7.1376016720738669 0 1 0 I I #
face $-1 $169 $170 $11 $-1 $171 reversed single #
loop $-1 $-1 $107 $52 #
plane-surface $-1 0 0 10.567404391326781 0 0 1 1 0 0 forward_v I I I I #
coedge $-1 $172 $173 $174 $175 reversed $53 $-1 #
coedge $-1 $58 $55 $176 $177 reversed $33 $-1 #
coedge $-1 $55 $58 $178 $179 reversed $33 $-1 #
coedge $-1 $173 $172 $55 $105 forward $53 $-1 #
edge $-1 $180 -10.567404391326781 $181 10.567404391326781 $104 $182 forward 7 unknown #
coedge $-1 $57 $56 $183 $184 reversed $22 $-1 #
coedge $-1 $176 $185 $56 $108 forward $99 $-1 #
edge $-1 $186 -35.541785110222648 $111 -27.822107055269115 $107 $187 forward 7 unknown #
coedge $-1 $188 $178 $57 $110 forward $189 $-1 #
edge $-1 $112 27.822107055269115 $190 35.541785110222648 $109 $191 forward 7 unknown #
vertex $-1 $108 $192 #
vertex $-1 $110 $193 #
straight-curve $-1 59.504053138014996 -25.510576295626198 0 0 0 -1 I I #
face $-1 $-1 $75 $9 $-1 $194 reversed single #
loop $-1 $-1 $130 $60 #
plane-surface $-1 0 40.446459489616238 0 0 -1 0 0 0 -1 forward_v I I I I #
coedge $-1 $195 $128 $131 $196 forward $61 $-1 #
coedge $-1 $134 $63 $64 $122 reversed $37 $-1 #
coedge $-1 $128 $195 $63 $120 reversed $61 $-1 #
edge $-1 $135 -10.567404391326781 $197 10.567404391326781 $119 $198 forward 7 unknown #
coedge $-1 $65 $64 $195 $199 forward $25 $-1 #
edge $-1 $126 -67.223731192968529 $197 67.223731192968529 $118 $200 forward 7 unknown #
coedge $-1 $131 $130 $65 $124 reversed $115 $-1 #
edge $-1 $201 -67.223731192968529 $125 67.223731192968529 $123 $202 forward 7 unknown #
vertex $-1 $67 $203 #
vertex $-1 $137 $204 #
straight-curve $-1 67.223731192968529 0 -10.567404391326781 0 -1 0 I I #
coedge $-1 $117 $119 $68 $129 reversed $61 $-1 #
edge $-1 $132 -40.446459489616238 $135 40.446459489616238 $128 $205 forward 7 unknown #
coedge $-1 $123 $69 $74 $138 forward $115 $-1 #
coedge $-1 $69 $123 $117 $196 reversed $115 $-1 #
vertex $-1 $70 $206 #
straight-curve $-1 0 40.446459489616238 10.567404391326781 -1 0 0 I I #
coedge $-1 $71 $118 $73 $137 reversed $37 $-1 #
vertex $-1 $129 $207 #
straight-curve $-1 0 -40.446459489616238 10.567404391326781 1 0 0 I I #
edge $-1 $76 -10.567404391326781 $126 10.567404391326781 $73 $208 forward 7 unknown #
edge $-1 $77 -10.567404391326781 $125 10.567404391326781 $74 $209 forward 7 unknown #
point $-1 67.223731192968529 -40.446459489616238 10.567404391326781 #
point $-1 67.223731192968529 40.446459489616238 10.567404391326781 #
face $-1 $210 $94 $10 $-1 $211 reversed single #
loop $-1 $-1 $158 $79 #
plane-surface $-1 0 -40.446459489616238 0 0 1 0 0 0 1 forward_v I I I I #
coedge $-1 $212 $213 $214 $215 forward $80 $-1 #
coedge $-1 $151 $82 $153 $216 forward $45 $-1 #
coedge $-1 $82 $151 $217 $218 forward $45 $-1 #
coedge $-1 $219 $220 $82 $148 reversed $221 $-1 #
edge $-1 $222 -40.446459489616238 $223 40.446459489616238 $147 $224 forward 7 unknown #
coedge $-1 $84 $83 $159 $225 reversed $29 $-1 #
edge $-1 $160 -40.446459489616238 $156 40.446459489616238 $83 $226 forward 7 unknown #
coedge $-1 $146 $145 $84 $152 forward $45 $-1 #
edge $-1 $155 -40.446459489616238 $227 40.446459489616238 $84 $228 forward 7 unknown #
coedge $-1 $229 $85 $145 $216 reversed $154 $-1 #
loop $-1 $-1 $229 $210 #
vertex $-1 $216 $230 #
vertex $-1 $91 $231 #
straight-curve $-1 -75.476813714827131 40.446459489616238 8.8525030317003246 0 0 -1 I I #
coedge $-1 $232 $88 $93 $166 forward $142 $-1 #
coedge $-1 $88 $217 $149 $225 forward $142 $-1 #
vertex $-1 $150 $233 #
straight-curve $-1 -71.35027245389783 -40.446459489616238 7.1376016720738669 -1 0 0 I I #
coedge $-1 $90 $234 $92 $165 reversed $154 $-1 #
straight-curve $-1 -71.35027245389783 40.446459489616238 7.1376016720738669 1 0 0 I I #
coedge $-1 $93 $92 $235 $236 reversed $94 $-1 #
edge $-1 $96 -7.1376016720738669 $237 10.567404391326781 $162 $238 forward 7 unknown #
edge $-1 $95 -7.1376016720738669 $239 10.567404391326781 $93 $240 forward 7 unknown #
point $-1 -67.223731192968529 -40.446459489616238 7.1376016720738669 #
point $-1 -67.223731192968529 40.446459489616238 7.1376016720738669 #
face $-1 $241 $242 $11 $-1 $243 reversed single #
loop $-1 $-1 $174 $98 #
plane-surface $-1 67.223731192968529 0 0 -1 0 0 0 0 1 forward_v I I I I #
coedge $-1 $104 $101 $244 $245 reversed $53 $-1 #
coedge $-1 $101 $104 $246 $247 reversed $53 $-1 #
coedge $-1 $248 $249 $101 $175 forward $170 $-1 #
edge $-1 $250 -10.567404391326781 $251 10.567404391326781 $174 $252 forward 7 unknown #
coedge $-1 $244 $107 $102 $177 forward $99 $-1 #
edge $-1 $111 -13.505288147813099 $180 -10.505288147813099 $176 $253 forward 7 unknown #
coedge $-1 $109 $246 $103 $179 forward $189 $-1 #
edge $-1 $181 10.505288147813099 $112 13.505288147813099 $178 $254 forward 7 unknown #
vertex $-1 $177 $255 #
vertex $-1 $179 $256 #
straight-curve $-1 59.504053138014996 -22.510576295626198 0 0 0 -1 I I #
coedge $-1 $257 $258 $106 $184 forward $259 $-1 #
edge $-1 $190 -10.567404391326781 $186 10.567404391326781 $183 $260 forward 7 unknown #
coedge $-1 $107 $261 $257 $262 forward $99 $-1 #
vertex $-1 $184 $263 #
straight-curve $-1 31.681946082745881 -25.510576295626198 10.567404391326781 -1 0 0 I I #
coedge $-1 $264 $109 $258 $265 forward $189 $-1 #
loop $-1 $-1 $109 $266 #
vertex $-1 $265 $267 #
straight-curve $-1 31.681946082745881 -25.510576295626198 -10.567404391326781 1 0 0 I I #
point $-1 59.504053138014996 -25.510576295626198 10.567404391326781 #
point $-1 59.504053138014996 -25.510576295626198 -10.567404391326781 #
plane-surface $-1 67.223731192968529 0 0 -1 0 0 0 0 1 forward_v I I I I #
coedge $-1 $119 $117 $121 $199 reversed $61 $-1 #
edge $-1 $132 -10.567404391326781 $201 10.567404391326781 $131 $268 forward 7 unknown #
vertex $-1 $199 $269 #
straight-curve $-1 -67.223731192968529 -40.446459489616238 0 0 0 -1 I I #
edge $-1 $197 -40.446459489616238 $201 40.446459489616238 $195 $270 forward 7 unknown #
straight-curve $-1 0 -40.446459489616238 -10.567404391326781 -1 0 0 I I #
vertex $-1 $124 $271 #
straight-curve $-1 0 40.446459489616238 -10.567404391326781 1 0 0 I I #
point $-1 67.223731192968529 40.446459489616238 -10.567404391326781 #
point $-1 67.223731192968529 -40.446459489616238 -10.567404391326781 #
straight-curve $-1 -67.223731192968529 0 10.567404391326781 0 -1 0 I I #
point $-1 -67.223731192968529 40.446459489616238 10.567404391326781 #
point $-1 -67.223731192968529 -40.446459489616238 10.567404391326781 #
straight-curve $-1 67.223731192968529 -40.446459489616238 0 0 0 -1 I I #
straight-curve $-1 67.223731192968529 40.446459489616238 0 0 0 -1 I I #
face $-1 $272 $154 $10 $-1 $273 reversed single #
plane-surface $-1 -67.223731192968529 0 0 1 0 0 0 0 -1 forward_v I I I I #
coedge $-1 $235 $144 $232 $274 forward $80 $-1 #
coedge $-1 $144 $235 $234 $275 forward $80 $-1 #
coedge $-1 $220 $219 $144 $215 reversed $221 $-1 #
edge $-1 $276 -40.446459489616238 $277 40.446459489616238 $214 $278 forward 7 unknown #
edge $-1 $223 -67.223731192968529 $155 75.476813714827131 $153 $279 forward 7 unknown #
coedge $-1 $159 $280 $146 $218 reversed $142 $-1 #
edge $-1 $227 -75.476813714827131 $222 67.223731192968529 $217 $281 forward 7 unknown #
coedge $-1 $214 $147 $280 $282 forward $221 $-1 #
coedge $-1 $147 $214 $229 $283 reversed $221 $-1 #
loop $-1 $-1 $219 $272 #
vertex $-1 $148 $284 #
vertex $-1 $148 $285 #
straight-curve $-1 67.223731192968529 0 10.567404391326781 0 1 0 I I #
edge $-1 $227 -1.7149013596264577 $160 1.7149013596264577 $149 $286 forward 7 unknown #
straight-curve $-1 -75.476813714827131 0 7.1376016720738669 0 1 0 I I #
vertex $-1 $152 $287 #
straight-curve $-1 -75.476813714827131 0 10.567404391326782 0 -1 0 I I #
coedge $-1 $234 $153 $220 $283 forward $154 $-1 #
point $-1 -75.476813714827131 40.446459489616238 10.567404391326782 #
point $-1 -75.476813714827131 40.446459489616238 7.1376016720738669 #
coedge $-1 $280 $158 $212 $274 reversed $142 $-1 #
point $-1 -75.476813714827131 -40.446459489616238 7.1376016720738669 #
coedge $-1 $162 $229 $213 $275 reversed $154 $-1 #
coedge $-1 $213 $212 $164 $236 forward $80 $-1 #
edge $-1 $239 -40.446459489616238 $237 40.446459489616238 $164 $288 forward 7 unknown #
vertex $-1 $275 $289 #
straight-curve $-1 -67.223731192968529 40.446459489616238 0 0 0 -1 I I #
vertex $-1 $236 $290 #
straight-curve $-1 -67.223731192968529 -40.446459489616238 0 0 0 -1 I I #
face $-1 $266 $291 $11 $-1 $292 reversed single #
loop $-1 $-1 $293 $169 #
plane-surface $-1 -71.35027245389783 0 7.1376016720738669 0 0 1 1 0 0 forward_v I I I I #
coedge $-1 $294 $176 $172 $245 forward $99 $-1 #
edge $-1 $180 27.822107055269115 $250 35.541785110222648 $244 $295 forward 7 unknown #
coedge $-1 $178 $296 $173 $247 forward $189 $-1 #
edge $-1 $251 -35.541785110222648 $181 -27.822107055269115 $246 $297 forward 7 unknown #
coedge $-1 $298 $174 $296 $299 reversed $170 $-1 #
coedge $-1 $174 $298 $294 $300 reversed $170 $-1 #
vertex $-1 $300 $301 #
vertex $-1 $175 $302 #
straight-curve $-1 67.223731192968529 -22.510576295626198 0 0 0 -1 I I #
straight-curve $-1 59.504053138014996 -12.005288147813099 10.567404391326781 0 1 0 I I #
straight-curve $-1 59.504053138014996 -12.005288147813099 -10.567404391326781 0 -1 0 I I #
point $-1 59.504053138014996 -22.510576295626198 10.567404391326781 #
point $-1 59.504053138014996 -22.510576295626198 -10.567404391326781 #
coedge $-1 $303 $183 $185 $262 reversed $259 $-1 #
coedge $-1 $183 $303 $188 $265 reversed $259 $-1 #
loop $-1 $-1 $183 $304 #
straight-curve $-1 67.223731192968529 -25.510576295626198 0 0 0 1 I I #
coedge $-1 $185 $305 $306 $307 forward $99 $-1 #
edge $-1 $308 -40.446459489616238 $186 -25.510576295626198 $257 $309 forward 7 unknown #
point $-1 67.223731192968529 -25.510576295626198 10.567404391326781 #
coedge $-1 $310 $188 $311 $312 forward $189 $-1 #
edge $-1 $190 25.510576295626198 $313 40.446459489616238 $258 $314 forward 7 unknown #
face $-1 $315 $189 $11 $-1 $316 reversed single #
point $-1 67.223731192968529 -25.510576295626198 -10.567404391326781 #
straight-curve $-1 -67.223731192968529 40.446459489616238 0 0 0 -1 I I #
point $-1 -67.223731192968529 -40.446459489616238 -10.567404391326781 #
straight-curve $-1 -67.223731192968529 0 -10.567404391326781 0 1 0 I I #
point $-1 -67.223731192968529 40.446459489616238 -10.567404391326781 #
face $-1 $-1 $221 $10 $-1 $317 reversed single #
plane-surface $-1 0 40.446459489616238 0 0 -1 0 0 0 -1 forward_v I I I I #
edge $-1 $277 -67.223731192968529 $239 67.223731192968529 $232 $318 forward 7 unknown #
edge $-1 $237 -67.223731192968529 $276 67.223731192968529 $234 $319 forward 7 unknown #
vertex $-1 $215 $320 #
vertex $-1 $282 $321 #
straight-curve $-1 67.223731192968529 0 -10.567404391326781 0 -1 0 I I #
straight-curve $-1 0 40.446459489616238 10.567404391326781 -1 0 0 I I #
coedge $-1 $217 $232 $219 $282 reversed $142 $-1 #
straight-curve $-1 0 -40.446459489616238 10.567404391326781 1 0 0 I I #
edge $-1 $222 -10.567404391326781 $277 10.567404391326781 $219 $322 forward 7 unknown #
edge $-1 $223 -10.567404391326781 $276 10.567404391326781 $220 $323 forward 7 unknown #
point $-1 67.223731192968529 -40.446459489616238 10.567404391326781 #
point $-1 67.223731192968529 40.446459489616238 10.567404391326781 #
straight-curve $-1 -75.476813714827131 -40.446459489616238 8.8525030317003246 0 0 -1 I I #
point $-1 -75.476813714827131 -40.446459489616238 10.567404391326782 #
straight-curve $-1 -67.223731192968529 0 -10.567404391326781 0 1 0 I I #
point $-1 -67.223731192968529 40.446459489616238 -10.567404391326781 #
point $-1 -67.223731192968529 -40.446459489616238 -10.567404391326781 #
loop $-1 $-1 $324 $241 #
plane-surface $-1 -75.476813714827131 0 8.8525030317003246 1 0 0 0 0 -1 forward_v I I I I #
coedge $-1 $325 $326 $327 $328 reversed $242 $-1 #
coedge $-1 $329 $244 $249 $300 forward $99 $-1 #
straight-curve $-1 31.681946082745881 -22.510576295626198 10.567404391326781 1 0 0 I I #
coedge $-1 $246 $330 $248 $299 forward $189 $-1 #
straight-curve $-1 31.681946082745881 -22.510576295626198 -10.567404391326781 -1 0 0 I I #
coedge $-1 $249 $248 $331 $332 reversed $170 $-1 #
edge $-1 $333 -40.446459489616238 $251 22.510576295626198 $248 $314 forward 7 unknown #
edge $-1 $250 -22.510576295626198 $334 40.446459489616238 $249 $309 forward 7 unknown #
point $-1 67.223731192968529 -22.510576295626198 10.567404391326781 #
point $-1 67.223731192968529 -22.510576295626198 -10.567404391326781 #
coedge $-1 $258 $257 $335 $336 forward $259 $-1 #
face $-1 $-1 $259 $11 $-1 $171 reversed single #
coedge $-1 $261 $329 $337 $338 forward $99 $-1 #
coedge $-1 $339 $335 $261 $307 reversed $340 $-1 #
edge $-1 $341 -75.476813714827131 $308 67.223731192968529 $306 $342 forward 7 unknown #
vertex $-1 $262 $343 #
straight-curve $-1 67.223731192968529 0 10.567404391326781 0 1 0 I I #
coedge $-1 $330 $264 $344 $345 forward $189 $-1 #
coedge $-1 $335 $346 $264 $312 reversed $340 $-1 #
edge $-1 $313 -67.223731192968529 $347 67.223731192968529 $311 $348 forward 7 unknown #
vertex $-1 $336 $349 #
straight-curve $-1 67.223731192968529 0 -10.567404391326781 0 -1 0 I I #
face $-1 $350 $340 $11 $-1 $351 reversed single #
plane-surface $-1 0 0 -10.567404391326781 0 0 1 1 0 0 forward_v I I I I #
plane-surface $-1 67.223731192968529 0 0 -1 0 0 0 0 1 forward_v I I I I #
straight-curve $-1 0 -40.446459489616238 -10.567404391326781 -1 0 0 I I #
straight-curve $-1 0 40.446459489616238 -10.567404391326781 1 0 0 I I #
point $-1 67.223731192968529 40.446459489616238 -10.567404391326781 #
point $-1 67.223731192968529 -40.446459489616238 -10.567404391326781 #
straight-curve $-1 67.223731192968529 -40.446459489616238 0 0 0 -1 I I #
straight-curve $-1 67.223731192968529 40.446459489616238 0 0 0 -1 I I #
coedge $-1 $352 $337 $353 $354 forward $291 $-1 #
coedge $-1 $355 $293 $356 $357 forward $242 $-1 #
coedge $-1 $293 $355 $358 $359 forward $242 $-1 #
coedge $-1 $360 $361 $293 $328 forward $362 $-1 #
edge $-1 $363 -40.446459489616238 $364 40.446459489616238 $327 $365 forward 7 unknown #
coedge $-1 $305 $294 $366 $367 forward $99 $-1 #
coedge $-1 $296 $310 $368 $369 forward $189 $-1 #
coedge $-1 $368 $366 $298 $332 forward $370 $-1 #
edge $-1 $334 -10.567404391326781 $333 10.567404391326781 $298 $371 forward 7 unknown #
vertex $-1 $299 $372 #
vertex $-1 $300 $373 #
coedge $-1 $306 $311 $303 $336 reversed $340 $-1 #
edge $-1 $308 -10.567404391326781 $313 10.567404391326781 $303 $374 forward 7 unknown #
coedge $-1 $324 $375 $305 $338 reversed $291 $-1 #
edge $-1 $376 -40.446459489616238 $341 40.446459489616238 $337 $377 forward 7 unknown #
coedge $-1 $356 $306 $375 $378 forward $340 $-1 #
loop $-1 $-1 $346 $315 #
vertex $-1 $338 $379 #
straight-curve $-1 0 -40.446459489616238 10.567404391326781 1 0 0 I I #
point $-1 67.223731192968529 -40.446459489616238 10.567404391326781 #
coedge $-1 $361 $360 $310 $345 reversed $362 $-1 #
edge $-1 $347 -40.446459489616238 $380 40.446459489616238 $344 $381 forward 7 unknown #
coedge $-1 $311 $356 $361 $382 forward $340 $-1 #
vertex $-1 $345 $383 #
straight-curve $-1 0 -40.446459489616238 -10.567404391326781 -1 0 0 I I #
point $-1 67.223731192968529 -40.446459489616238 -10.567404391326781 #
face $-1 $384 $362 $11 $-1 $385 reversed single #
plane-surface $-1 0 -40.446459489616238 0 0 1 0 0 0 1 forward_v I I I I #
coedge $-1 $375 $324 $355 $386 reversed $291 $-1 #
coedge $-1 $366 $358 $324 $354 reversed $370 $-1 #
edge $-1 $376 -1.7149013596264577 $387 1.7149013596264577 $353 $388 forward 7 unknown #
coedge $-1 $326 $325 $352 $386 forward $242 $-1 #
coedge $-1 $346 $339 $325 $357 reversed $340 $-1 #
edge $-1 $363 -4.1265412609293008 $389 4.1265412609293008 $356 $390 forward 7 unknown #
coedge $-1 $353 $391 $326 $359 reversed $370 $-1 #
edge $-1 $387 -4.1265412609293008 $364 4.1265412609293008 $358 $392 forward 7 unknown #
coedge $-1 $344 $327 $391 $393 forward $362 $-1 #
coedge $-1 $327 $344 $346 $382 reversed $362 $-1 #
loop $-1 $-1 $327 $350 #
vertex $-1 $382 $394 #
vertex $-1 $393 $395 #
straight-curve $-1 -67.223731192968529 0 7.1376016720738669 0 1 0 I I #
coedge $-1 $331 $353 $329 $367 reversed $370 $-1 #
edge $-1 $334 -67.223731192968529 $376 75.476813714827131 $366 $396 forward 7 unknown #
coedge $-1 $391 $331 $330 $369 reversed $370 $-1 #
edge $-1 $380 -67.223731192968529 $333 67.223731192968529 $368 $397 forward 7 unknown #
loop $-1 $-1 $331 $384 #
straight-curve $-1 67.223731192968529 40.446459489616238 0 0 0 -1 I I #
point $-1 67.223731192968529 40.446459489616238 -10.567404391326781 #
point $-1 67.223731192968529 40.446459489616238 10.567404391326781 #
straight-curve $-1 67.223731192968529 -40.446459489616238 0 0 0 -1 I I #
coedge $-1 $337 $352 $339 $378 reversed $291 $-1 #
vertex $-1 $367 $398 #
straight-curve $-1 -75.476813714827131 0 10.567404391326782 0 -1 0 I I #
edge $-1 $341 -1.7149013596264577 $389 1.7149013596264577 $375 $399 forward 7 unknown #
point $-1 -75.476813714827131 -40.446459489616238 10.567404391326782 #
vertex $-1 $369 $400 #
straight-curve $-1 -67.223731192968529 0 -10.567404391326781 0 1 0 I I #
edge $-1 $363 -7.1376016720738669 $347 10.567404391326781 $361 $401 forward 7 unknown #
point $-1 -67.223731192968529 -40.446459489616238 -10.567404391326781 #
face $-1 $304 $370 $11 $-1 $402 reversed single #
plane-surface $-1 -67.223731192968529 0 0 1 0 0 0 0 -1 forward_v I I I I #
edge $-1 $389 -40.446459489616238 $387 40.446459489616238 $352 $403 forward 7 unknown #
vertex $-1 $359 $404 #
straight-curve $-1 -75.476813714827131 40.446459489616238 8.8525030317003246 0 0 -1 I I #
vertex $-1 $386 $405 #
straight-curve $-1 -71.35027245389783 -40.446459489616238 7.1376016720738669 -1 0 0 I I #
coedge $-1 $358 $368 $360 $393 reversed $370 $-1 #
straight-curve $-1 -71.35027245389783 40.446459489616238 7.1376016720738669 1 0 0 I I #
edge $-1 $364 -7.1376016720738669 $380 10.567404391326781 $391 $406 forward 7 unknown #
point $-1 -67.223731192968529 -40.446459489616238 7.1376016720738669 #
point $-1 -67.223731192968529 40.446459489616238 7.1376016720738669 #
straight-curve $-1 0 40.446459489616238 10.567404391326781 -1 0 0 I I #
straight-curve $-1 0 40.446459489616238 -10.567404391326781 1 0 0 I I #
point $-1 -75.476813714827131 40.446459489616238 10.567404391326782 #
straight-curve $-1 -75.476813714827131 -40.446459489616238 8.8525030317003246 0 0 -1 I I #
point $-1 -67.223731192968529 40.446459489616238 -10.567404391326781 #
straight-curve $-1 -67.223731192968529 -40.446459489616238 0 0 0 -1 I I #
plane-surface $-1 0 40.446459489616238 0 0 -1 0 0 0 -1 forward_v I I I I #
straight-curve $-1 -75.476813714827131 0 7.1376016720738669 0 1 0 I I #
point $-1 -75.476813714827131 40.446459489616238 7.1376016720738669 #
point $-1 -75.476813714827131 -40.446459489616238 7.1376016720738669 #
straight-curve $-1 -67.223731192968529 40.446459489616238 0 0 0 -1 I I #
End-of-ACIS-data 