500 0 11 0           
7 Unknown 11 ACIS 5.0 NT 24 Fri Mar 26 00:19:40 1999 
-1 9.9999999999999995e-007 1e-010 
body $-1 $11 $-1 $12 #
body $-1 $13 $-1 $14 #
body $-1 $15 $-1 $16 #
body $-1 $17 $-1 $18 #
body $-1 $19 $-1 $20 #
body $-1 $21 $-1 $22 #
body $-1 $23 $-1 $24 #
body $-1 $25 $-1 $26 #
body $-1 $27 $-1 $28 #
body $-1 $29 $-1 $30 #
body $-1 $31 $-1 $32 #
lump $-1 $-1 $33 $0 #
transform $-1 1 0 0 0 1 0 0 0 1 45.315103610339669 24.212401836881767 11.383752562597527 1 rotate no_reflect no_shear #
lump $-1 $-1 $34 $1 #
transform $-1 1 0 0 0 1 0 0 0 1 45.315103610339669 24.212401836881767 11.383752562597527 1 rotate no_reflect no_shear #
lump $-1 $-1 $35 $2 #
transform $-1 1 0 0 0 1 0 0 0 1 45.315103610339669 24.212401836881767 11.383752562597527 1 rotate no_reflect no_shear #
lump $-1 $-1 $36 $3 #
transform $-1 1 0 0 0 1 0 0 0 1 45.315103610339669 24.212401836881767 11.383752562597527 1 rotate no_reflect no_shear #
lump $-1 $-1 $37 $4 #
transform $-1 1 0 0 0 1 0 0 0 1 45.315103610339669 24.212401836881767 11.383752562597527 1 rotate no_reflect no_shear #
lump $-1 $-1 $38 $5 #
transform $-1 1 0 0 0 1 0 0 0 1 45.315103610339669 24.212401836881767 11.383752562597527 1 rotate no_reflect no_shear #
lump $-1 $-1 $39 $6 #
transform $-1 1 0 0 0 1 0 0 0 1 45.315103610339669 24.212401836881767 11.383752562597527 1 rotate no_reflect no_shear #
lump $-1 $-1 $40 $7 #
transform $-1 1 0 0 0 1 0 0 0 1 45.315103610339669 24.212401836881767 11.383752562597527 1 rotate no_reflect no_shear #
lump $-1 $-1 $41 $8 #
transform $-1 1 0 0 0 1 0 0 0 1 45.315103610339669 24.212401836881767 11.383752562597527 1 rotate no_reflect no_shear #
lump $-1 $-1 $42 $9 #
transform $-1 1 0 0 0 1 0 0 0 1 45.315103610339669 24.212401836881767 11.383752562597527 1 rotate no_reflect no_shear #
lump $-1 $-1 $43 $10 #
transform $-1 1 0 0 0 1 0 0 0 1 45.315103610339669 24.212401836881767 11.383752562597527 1 rotate no_reflect no_shear #
shell $-1 $-1 $-1 $44 $-1 $11 #
shell $-1 $-1 $-1 $45 $-1 $13 #
shell $-1 $-1 $-1 $46 $-1 $15 #
shell $-1 $-1 $-1 $47 $-1 $17 #
shell $-1 $-1 $-1 $48 $-1 $19 #
shell $-1 $-1 $-1 $49 $-1 $21 #
shell $-1 $-1 $-1 $50 $-1 $23 #
shell $-1 $-1 $-1 $51 $-1 $25 #
shell $-1 $-1 $-1 $52 $-1 $27 #
shell $-1 $-1 $-1 $53 $-1 $29 #
shell $-1 $-1 $-1 $54 $-1 $31 #
face $-1 $55 $56 $33 $-1 $57 forward single #
face $-1 $58 $59 $34 $-1 $60 forward single #
face $-1 $61 $62 $35 $-1 $63 forward single #
face $-1 $64 $65 $36 $-1 $66 reversed single #
face $-1 $67 $68 $37 $-1 $69 forward single #
face $-1 $70 $71 $38 $-1 $72 forward single #
face $-1 $73 $74 $39 $-1 $75 forward single #
face $-1 $76 $77 $40 $-1 $78 reversed single #
face $-1 $79 $80 $41 $-1 $81 forward single #
face $-1 $82 $83 $42 $-1 $84 forward single #
face $-1 $85 $86 $43 $-1 $87 forward single #
face $-1 $88 $89 $33 $-1 $90 reversed single #
loop $-1 $-1 $91 $44 #
plane-surface $-1 0 0 11.383752562597527 0 0 1 1 0 0 forward_v I I I I #
face $-1 $92 $93 $34 $-1 $94 reversed single #
loop $-1 $-1 $95 $45 #
plane-surface $-1 -38.723474175739014 0 -4.9949962109440049 0 0 1 1 0 0 forward_v I I I I #
face $-1 $96 $97 $35 $-1 $98 reversed single #
loop $-1 $-1 $99 $46 #
plane-surface $-1 38.723474175739021 0 -4.9949962109440049 0 0 1 1 0 0 forward_v I I I I #
face $-1 $100 $101 $36 $-1 $102 reversed single #
loop $-1 $-1 $103 $47 #
plane-surface $-1 17.229955262975935 65.816694915953704 100.08232801530406 -1 0 0 0 0.78801076186113728 0.61566146476048833 forward_v I I I I #
face $-1 $104 $105 $37 $-1 $106 forward single #
loop $-1 $107 $108 $48 #
cone-surface $-1 9.2527617100784596 21.764311787286285 8.446813274086324 0 -0.78801076186113728 -0.61566146476048833 0.25 0 0 1 I I 0 1 0.25 forward I I I I #
face $-1 $109 $110 $38 $-1 $111 forward single #
loop $-1 $112 $113 $49 #
cone-surface $-1 12.244209292415015 21.764311787286285 8.446813274086324 0 -0.78801076186113728 -0.61566146476048833 0.25 0 0 1 I I 0 1 0.25 forward I I I I #
face $-1 $114 $115 $39 $-1 $116 forward single #
loop $-1 $117 $118 $50 #
cone-surface $-1 15.235656874751569 21.764311787286285 8.446813274086324 0 -0.78801076186113728 -0.61566146476048833 0.25 0 0 1 I I 0 1 0.25 forward I I I I #
face $-1 $119 $120 $40 $-1 $121 reversed single #
loop $-1 $-1 $122 $51 #
plane-surface $-1 7.2584633218540944 -95.629980476482046 61.923061579365658 1 0 0 0 0.78801076186113728 -0.61566146476048833 forward_v I I I I #
face $-1 $123 $124 $41 $-1 $125 forward single #
loop $-1 $126 $127 $52 #
cone-surface $-1 9.2527617100784596 -21.764311787286292 8.4468132740863311 0 0.78801076186113728 -0.61566146476048833 0.25 0 0 1 I I 0 1 0.25 forward I I I I #
face $-1 $128 $129 $42 $-1 $130 forward single #
loop $-1 $131 $132 $53 #
cone-surface $-1 12.244209292415015 -21.764311787286292 8.4468132740863311 0 0.78801076186113728 -0.61566146476048833 0.25 0 0 1 I I 0 1 0.25 forward I I I I #
face $-1 $133 $134 $43 $-1 $135 forward single #
loop $-1 $136 $137 $54 #
cone-surface $-1 15.235656874751569 -21.764311787286292 8.4468132740863311 0 0.78801076186113728 -0.61566146476048833 0.25 0 0 1 I I 0 1 0.25 forward I I I I #
face $-1 $138 $139 $33 $-1 $140 reversed single #
loop $-1 $-1 $141 $55 #
plane-surface $-1 0 0 -11.383752562597527 0 0 1 1 0 0 forward_v I I I I #
coedge $-1 $142 $143 $144 $145 forward $56 $-1 #
face $-1 $146 $147 $34 $-1 $148 reversed single #
loop $-1 $-1 $149 $58 #
plane-surface $-1 -32.131844741138352 0 -8.1893743867707656 -1 0 0 0 0 1 forward_v I I I I #
coedge $-1 $150 $151 $152 $153 forward $59 $-1 #
face $-1 $154 $155 $35 $-1 $156 reversed single #
loop $-1 $-1 $157 $61 #
plane-surface $-1 32.131844741138366 0 -8.1893743867707656 1 0 0 0 0 -1 forward_v I I I I #
coedge $-1 $158 $159 $160 $161 reversed $62 $-1 #
face $-1 $162 $163 $36 $-1 $164 reversed single #
loop $-1 $-1 $165 $64 #
plane-surface $-1 12.244209292415015 -5.600883723646561 44.284801886274032 0 0.78801076186113728 0.61566146476048833 1 0 0 forward_v I I I I #
coedge $-1 $166 $167 $168 $169 reversed $65 $-1 #
face $-1 $-1 $170 $37 $-1 $171 forward single #
loop $-1 $172 $173 $67 #
cone-surface $-1 9.2527617100784596 21.271805061123075 8.0620248586110197 0 -0.78801076186113728 -0.61566146476048833 0.125 0 0 1 I I -0.70710678118654746 0.70710678118654746 0.125 forward I I I I #
loop $-1 $-1 $174 $48 #
coedge $-1 $108 $108 $175 $176 reversed $68 $-1 #
face $-1 $-1 $177 $38 $-1 $178 forward single #
loop $-1 $179 $180 $70 #
cone-surface $-1 12.244209292415015 21.271805061123075 8.0620248586110197 0 -0.78801076186113728 -0.61566146476048833 0.125 0 0 1 I I -0.70710678118654746 0.70710678118654746 0.125 forward I I I I #
loop $-1 $-1 $181 $49 #
coedge $-1 $113 $113 $182 $183 reversed $71 $-1 #
face $-1 $-1 $184 $39 $-1 $185 forward single #
loop $-1 $186 $187 $73 #
cone-surface $-1 15.235656874751569 21.271805061123075 8.0620248586110197 0 -0.78801076186113728 -0.61566146476048833 0.125 0 0 1 I I -0.70710678118654746 0.70710678118654746 0.125 forward I I I I #
loop $-1 $-1 $188 $50 #
coedge $-1 $118 $118 $189 $190 reversed $74 $-1 #
face $-1 $191 $192 $40 $-1 $193 reversed single #
loop $-1 $-1 $194 $76 #
plane-surface $-1 12.244209292415015 -24.212401836881781 6.125535450335633 0 -0.78801076186113728 0.61566146476048833 1 0 0 forward_v I I I I #
coedge $-1 $195 $196 $197 $198 reversed $77 $-1 #
face $-1 $-1 $199 $41 $-1 $200 forward single #
loop $-1 $201 $202 $79 #
cone-surface $-1 9.2527617100784596 -21.271805061123082 8.0620248586110268 0 0.78801076186113728 -0.61566146476048833 0.125 0 0 1 I I -0.70710678118654746 0.70710678118654746 0.125 forward I I I I #
loop $-1 $-1 $203 $52 #
coedge $-1 $127 $127 $204 $205 reversed $80 $-1 #
face $-1 $-1 $206 $42 $-1 $207 forward single #
loop $-1 $208 $209 $82 #
cone-surface $-1 12.244209292415015 -21.271805061123082 8.0620248586110268 0 0.78801076186113728 -0.61566146476048833 0.125 0 0 1 I I -0.70710678118654746 0.70710678118654746 0.125 forward I I I I #
loop $-1 $-1 $210 $53 #
coedge $-1 $132 $132 $211 $212 reversed $83 $-1 #
face $-1 $-1 $213 $43 $-1 $214 forward single #
loop $-1 $215 $216 $85 #
cone-surface $-1 15.235656874751569 -21.271805061123082 8.0620248586110268 0 0.78801076186113728 -0.61566146476048833 0.125 0 0 1 I I -0.70710678118654746 0.70710678118654746 0.125 forward I I I I #
loop $-1 $-1 $217 $54 #
coedge $-1 $137 $137 $218 $219 reversed $86 $-1 #
face $-1 $220 $221 $33 $-1 $222 reversed single #
loop $-1 $-1 $223 $88 #
plane-surface $-1 0 -24.212401836881767 0 0 1 0 0 0 1 forward_v I I I I #
coedge $-1 $224 $225 $226 $227 forward $89 $-1 #
coedge $-1 $228 $91 $229 $230 forward $56 $-1 #
coedge $-1 $91 $228 $231 $232 forward $56 $-1 #
coedge $-1 $233 $234 $91 $145 reversed $235 $-1 #
edge $-1 $236 -24.212401836881767 $237 24.212401836881767 $144 $238 forward 7 unknown #
face $-1 $239 $240 $34 $-1 $241 reversed single #
loop $-1 $-1 $242 $92 #
plane-surface $-1 0 0 -11.383752562597527 0 0 1 1 0 0 forward_v I I I I #
coedge $-1 $243 $152 $244 $245 reversed $93 $-1 #
coedge $-1 $246 $95 $247 $248 reversed $59 $-1 #
coedge $-1 $95 $246 $249 $250 reversed $59 $-1 #
coedge $-1 $149 $251 $95 $153 reversed $93 $-1 #
edge $-1 $252 -24.212401836881767 $253 24.212401836881767 $152 $254 forward 7 unknown #
face $-1 $255 $256 $35 $-1 $257 reversed single #
loop $-1 $-1 $258 $96 #
plane-surface $-1 0 -24.212401836881767 0 0 1 0 0 0 1 forward_v I I I I #
coedge $-1 $259 $260 $261 $262 reversed $97 $-1 #
coedge $-1 $263 $99 $264 $265 reversed $62 $-1 #
coedge $-1 $99 $263 $258 $266 reversed $62 $-1 #
coedge $-1 $267 $268 $99 $161 forward $269 $-1 #
edge $-1 $270 -24.212401836881767 $271 24.212401836881767 $160 $272 forward 7 unknown #
face $-1 $273 $274 $36 $-1 $275 reversed single #
loop $-1 $-1 $276 $100 #
plane-surface $-1 7.2584633218540944 65.816694915953704 100.08232801530406 1 0 0 0 -0.78801076186113728 -0.61566146476048833 forward_v I I I I #
coedge $-1 $277 $278 $279 $280 reversed $101 $-1 #
coedge $-1 $167 $103 $281 $282 reversed $65 $-1 #
coedge $-1 $103 $166 $277 $283 reversed $65 $-1 #
coedge $-1 $279 $284 $103 $169 forward $274 $-1 #
edge $-1 $285 38.6574114450545 $286 43.915628557316396 $168 $287 forward 7 unknown #
loop $-1 $-1 $175 $104 #
plane-surface $-1 12.244209292415015 -5.600883723646561 44.284801886274032 0 0.78801076186113728 0.61566146476048833 1 0 0 forward_v I I I I #
loop $-1 $-1 $288 $67 #
coedge $-1 $173 $173 $174 $289 reversed $105 $-1 #
coedge $-1 $174 $174 $173 $289 forward $107 $-1 #
coedge $-1 $175 $175 $108 $176 forward $170 $-1 #
edge $-1 $290 -1.4013831653662355e-015 $290 6.2831853071795987 $175 $291 forward 7 unknown #
loop $-1 $-1 $182 $109 #
plane-surface $-1 12.244209292415015 -5.600883723646561 44.284801886274032 0 0.78801076186113728 0.61566146476048833 1 0 0 forward_v I I I I #
loop $-1 $-1 $292 $70 #
coedge $-1 $180 $180 $181 $293 reversed $110 $-1 #
coedge $-1 $181 $181 $180 $293 forward $112 $-1 #
coedge $-1 $182 $182 $113 $183 forward $177 $-1 #
edge $-1 $294 -1.4013831653662355e-015 $294 6.2831853071795987 $182 $295 forward 7 unknown #
loop $-1 $-1 $189 $114 #
plane-surface $-1 12.244209292415015 -5.600883723646561 44.284801886274032 0 0.78801076186113728 0.61566146476048833 1 0 0 forward_v I I I I #
loop $-1 $-1 $296 $73 #
coedge $-1 $187 $187 $188 $297 reversed $115 $-1 #
coedge $-1 $188 $188 $187 $297 forward $117 $-1 #
coedge $-1 $189 $189 $118 $190 forward $184 $-1 #
edge $-1 $298 -1.4013831653662355e-015 $298 6.2831853071795987 $189 $299 forward 7 unknown #
face $-1 $300 $301 $40 $-1 $302 forward single #
loop $-1 $-1 $303 $119 #
plane-surface $-1 17.229955262975935 -95.629980476482046 61.923061579365658 -1 0 0 0 -0.78801076186113728 0.61566146476048833 forward_v I I I I #
coedge $-1 $304 $305 $306 $307 reversed $120 $-1 #
coedge $-1 $196 $122 $308 $309 reversed $77 $-1 #
coedge $-1 $122 $195 $304 $310 reversed $77 $-1 #
coedge $-1 $306 $311 $122 $198 forward $312 $-1 #
edge $-1 $313 19.577778227085304 $314 24.835995339347178 $197 $315 forward 7 unknown #
loop $-1 $-1 $204 $123 #
plane-surface $-1 12.244209292415015 -24.212401836881781 6.125535450335633 0 -0.78801076186113728 0.61566146476048833 1 0 0 forward_v I I I I #
loop $-1 $-1 $316 $79 #
coedge $-1 $202 $202 $203 $317 reversed $124 $-1 #
coedge $-1 $203 $203 $202 $317 forward $126 $-1 #
coedge $-1 $204 $204 $127 $205 forward $199 $-1 #
edge $-1 $318 1.4013831653662355e-015 $318 6.2831853071796022 $204 $319 forward 7 unknown #
loop $-1 $-1 $211 $128 #
plane-surface $-1 12.244209292415015 -24.212401836881781 6.125535450335633 0 -0.78801076186113728 0.61566146476048833 1 0 0 forward_v I I I I #
loop $-1 $-1 $320 $82 #
coedge $-1 $209 $209 $210 $321 reversed $129 $-1 #
coedge $-1 $210 $210 $209 $321 forward $131 $-1 #
coedge $-1 $211 $211 $132 $212 forward $206 $-1 #
edge $-1 $322 1.4013831653662355e-015 $322 6.2831853071796022 $211 $323 forward 7 unknown #
loop $-1 $-1 $218 $133 #
plane-surface $-1 12.244209292415015 -24.212401836881781 6.125535450335633 0 -0.78801076186113728 0.61566146476048833 1 0 0 forward_v I I I I #
loop $-1 $-1 $324 $85 #
coedge $-1 $216 $216 $217 $325 reversed $134 $-1 #
coedge $-1 $217 $217 $216 $325 forward $136 $-1 #
coedge $-1 $218 $218 $137 $219 forward $213 $-1 #
edge $-1 $326 1.4013831653662355e-015 $326 6.2831853071796022 $218 $327 forward 7 unknown #
face $-1 $328 $329 $33 $-1 $330 reversed single #
loop $-1 $-1 $331 $138 #
plane-surface $-1 -45.315103610339669 0 0 1 0 0 0 0 -1 forward_v I I I I #
coedge $-1 $332 $231 $333 $334 forward $139 $-1 #
coedge $-1 $335 $141 $332 $336 forward $89 $-1 #
coedge $-1 $141 $335 $337 $338 forward $89 $-1 #
coedge $-1 $234 $233 $141 $227 reversed $235 $-1 #
edge $-1 $339 -24.212401836881767 $340 24.212401836881767 $226 $341 forward 7 unknown #
coedge $-1 $143 $142 $342 $343 forward $56 $-1 #
coedge $-1 $344 $345 $142 $230 reversed $329 $-1 #
edge $-1 $237 -45.315103610339669 $346 45.315103610339669 $229 $347 forward 7 unknown #
coedge $-1 $223 $348 $143 $232 reversed $139 $-1 #
edge $-1 $349 -45.315103610339669 $236 45.315103610339669 $231 $350 forward 7 unknown #
coedge $-1 $226 $144 $348 $351 forward $235 $-1 #
coedge $-1 $144 $226 $344 $352 reversed $235 $-1 #
loop $-1 $-1 $233 $328 #
vertex $-1 $145 $353 #
vertex $-1 $145 $354 #
straight-curve $-1 45.315103610339669 0 11.383752562597527 0 1 0 I I #
face $-1 $355 $356 $34 $-1 $357 reversed single #
loop $-1 $-1 $244 $146 #
plane-surface $-1 0 -24.212401836881767 0 0 1 0 0 0 1 forward_v I I I I #
coedge $-1 $358 $359 $243 $360 forward $147 $-1 #
coedge $-1 $251 $149 $242 $360 reversed $93 $-1 #
coedge $-1 $249 $361 $149 $245 forward $240 $-1 #
edge $-1 $362 -7.2890653692121425 $252 -0.90030901755862214 $244 $363 forward 7 unknown #
coedge $-1 $151 $150 $364 $365 reversed $59 $-1 #
coedge $-1 $366 $367 $150 $248 forward $368 $-1 #
edge $-1 $369 -25.953366522470169 $253 -12.770107653268845 $247 $370 forward 7 unknown #
coedge $-1 $371 $244 $151 $250 forward $240 $-1 #
edge $-1 $252 12.770107653268845 $372 25.953366522470169 $249 $373 forward 7 unknown #
coedge $-1 $152 $243 $366 $374 reversed $93 $-1 #
vertex $-1 $250 $375 #
vertex $-1 $248 $376 #
straight-curve $-1 -32.131844741138352 0 -4.9949962109440049 0 1 0 I I #
face $-1 $377 $378 $35 $-1 $379 reversed single #
loop $-1 $-1 $380 $154 #
plane-surface $-1 0 0 -11.383752562597527 0 0 1 1 0 0 forward_v I I I I #
coedge $-1 $381 $382 $159 $266 forward $155 $-1 #
coedge $-1 $383 $157 $380 $384 reversed $97 $-1 #
coedge $-1 $157 $383 $263 $385 reversed $97 $-1 #
coedge $-1 $264 $386 $157 $262 forward $378 $-1 #
edge $-1 $387 -7.2890653692121425 $388 -0.90030901755862214 $261 $389 forward 7 unknown #
coedge $-1 $159 $158 $260 $385 forward $62 $-1 #
coedge $-1 $390 $261 $158 $265 forward $378 $-1 #
edge $-1 $388 12.770107653268855 $270 25.953366522470166 $264 $391 forward 7 unknown #
edge $-1 $271 -25.953366522470166 $392 -12.770107653268855 $258 $393 forward 7 unknown #
coedge $-1 $394 $160 $382 $395 forward $269 $-1 #
coedge $-1 $160 $394 $390 $396 reversed $269 $-1 #
loop $-1 $-1 $160 $377 #
vertex $-1 $396 $397 #
vertex $-1 $395 $398 #
straight-curve $-1 45.315103610339669 0 -4.9949962109440049 0 -1 0 I I #
face $-1 $-1 $399 $36 $-1 $400 forward single #
loop $-1 $-1 $168 $162 #
plane-surface $-1 0 24.212401836881767 0 0 -1 0 0 0 -1 forward_v I I I I #
coedge $-1 $401 $402 $403 $404 reversed $163 $-1 #
coedge $-1 $405 $165 $167 $283 forward $101 $-1 #
coedge $-1 $165 $405 $401 $406 forward $101 $-1 #
coedge $-1 $403 $168 $165 $280 forward $274 $-1 #
edge $-1 $286 -11.107850616768427 $407 -1.1363586756465871 $279 $408 forward 7 unknown #
coedge $-1 $409 $410 $166 $282 forward $399 $-1 #
edge $-1 $411 -12.80411495842489 $285 -8.6959456210950847 $281 $412 forward 7 unknown #
edge $-1 $286 -48.424803673763535 $411 -41.752030449394169 $167 $413 forward 7 unknown #
coedge $-1 $168 $403 $409 $414 reversed $274 $-1 #
vertex $-1 $414 $415 #
vertex $-1 $169 $416 #
straight-curve $-1 17.229955262975935 24.212401836881767 50.041164007652029 0 0 -1 I I #
coedge $-1 $288 $288 $-1 $417 reversed $172 $-1 #
edge $-1 $418 0 $418 6.2831853071796004 $173 $419 forward 7 unknown #
vertex $-1 $176 $420 #
ellipse-curve $-1 9.2527617100784596 22.158317168216868 8.7546440064665791 0 0.78801076186113728 0.61566146476048833 0.25 0 0 1 I I #
coedge $-1 $292 $292 $-1 $421 reversed $179 $-1 #
edge $-1 $422 0 $422 6.2831853071796004 $180 $423 forward 7 unknown #
vertex $-1 $183 $424 #
ellipse-curve $-1 12.244209292415015 22.158317168216868 8.7546440064665791 0 0.78801076186113728 0.61566146476048833 0.25 0 0 1 I I #
coedge $-1 $296 $296 $-1 $425 reversed $186 $-1 #
edge $-1 $426 0 $426 6.2831853071796004 $187 $427 forward 7 unknown #
vertex $-1 $190 $428 #
ellipse-curve $-1 15.235656874751569 22.158317168216868 8.7546440064665791 0 0.78801076186113728 0.61566146476048833 0.25 0 0 1 I I #
face $-1 $-1 $312 $40 $-1 $429 reversed single #
loop $-1 $-1 $430 $191 #
plane-surface $-1 0 0 11.383752562597527 0 0 1 1 0 0 forward_v I I I I #
coedge $-1 $431 $432 $433 $434 reversed $192 $-1 #
coedge $-1 $435 $194 $196 $310 forward $120 $-1 #
coedge $-1 $194 $435 $431 $436 forward $120 $-1 #
coedge $-1 $433 $197 $194 $307 forward $312 $-1 #
edge $-1 $314 1.1363586756465871 $437 11.107850616768427 $306 $438 forward 7 unknown #
coedge $-1 $439 $440 $195 $309 forward $301 $-1 #
edge $-1 $441 -27.710757738689047 $313 -23.602588401359256 $308 $442 forward 7 unknown #
edge $-1 $314 2.274695869299009e-014 $441 6.6727732243693563 $196 $443 forward 7 unknown #
coedge $-1 $197 $433 $439 $444 reversed $312 $-1 #
loop $-1 $-1 $433 $300 #
vertex $-1 $444 $445 #
vertex $-1 $198 $446 #
straight-curve $-1 7.2584633218540944 -24.212401836881767 30.961530789682829 0 0 -1 I I #
coedge $-1 $316 $316 $-1 $447 reversed $201 $-1 #
edge $-1 $448 0 $448 6.2831853071796004 $202 $449 forward 7 unknown #
vertex $-1 $205 $450 #
ellipse-curve $-1 9.2527617100784596 -22.158317168216875 8.7546440064665862 0 -0.78801076186113728 0.61566146476048833 0.25 0 0 1 I I #
coedge $-1 $320 $320 $-1 $451 reversed $208 $-1 #
edge $-1 $452 0 $452 6.2831853071796004 $209 $453 forward 7 unknown #
vertex $-1 $212 $454 #
ellipse-curve $-1 12.244209292415015 -22.158317168216875 8.7546440064665862 0 -0.78801076186113728 0.61566146476048833 0.25 0 0 1 I I #
coedge $-1 $324 $324 $-1 $455 reversed $215 $-1 #
edge $-1 $456 0 $456 6.2831853071796004 $216 $457 forward 7 unknown #
vertex $-1 $219 $458 #
ellipse-curve $-1 15.235656874751569 -22.158317168216875 8.7546440064665862 0 -0.78801076186113728 0.61566146476048833 0.25 0 0 1 I I #
face $-1 $-1 $235 $33 $-1 $459 reversed single #
loop $-1 $-1 $344 $220 #
plane-surface $-1 0 24.212401836881767 0 0 -1 0 0 0 -1 forward_v I I I I #
coedge $-1 $460 $342 $345 $461 forward $221 $-1 #
coedge $-1 $348 $223 $224 $336 reversed $139 $-1 #
coedge $-1 $342 $460 $223 $334 reversed $221 $-1 #
edge $-1 $349 -11.383752562597527 $462 11.383752562597527 $333 $463 forward 7 unknown #
coedge $-1 $225 $224 $460 $464 forward $89 $-1 #
edge $-1 $340 -45.315103610339669 $462 45.315103610339669 $332 $465 forward 7 unknown #
coedge $-1 $345 $344 $225 $338 reversed $329 $-1 #
edge $-1 $466 -45.315103610339669 $339 45.315103610339669 $337 $467 forward 7 unknown #
vertex $-1 $227 $468 #
vertex $-1 $351 $469 #
straight-curve $-1 45.315103610339669 0 -11.383752562597527 0 -1 0 I I #
coedge $-1 $331 $333 $228 $343 reversed $221 $-1 #
edge $-1 $346 -24.212401836881767 $349 24.212401836881767 $342 $470 forward 7 unknown #
coedge $-1 $337 $229 $234 $352 forward $329 $-1 #
coedge $-1 $229 $337 $331 $461 reversed $329 $-1 #
vertex $-1 $230 $471 #
straight-curve $-1 0 24.212401836881767 11.383752562597527 -1 0 0 I I #
coedge $-1 $231 $332 $233 $351 reversed $139 $-1 #
vertex $-1 $343 $472 #
straight-curve $-1 0 -24.212401836881767 11.383752562597527 1 0 0 I I #
edge $-1 $236 -11.383752562597527 $340 11.383752562597527 $233 $473 forward 7 unknown #
edge $-1 $237 -11.383752562597527 $339 11.383752562597527 $234 $474 forward 7 unknown #
point $-1 45.315103610339669 -24.212401836881767 11.383752562597527 #
point $-1 45.315103610339669 24.212401836881767 11.383752562597527 #
face $-1 $-1 $368 $34 $-1 $475 reversed single #
loop $-1 $-1 $364 $239 #
plane-surface $-1 -45.315103610339669 0 0 1 0 0 0 0 -1 forward_v I I I I #
coedge $-1 $476 $242 $361 $477 forward $147 $-1 #
coedge $-1 $242 $476 $478 $479 forward $147 $-1 #
edge $-1 $480 -24.212401836881767 $362 24.212401836881767 $242 $481 forward 7 unknown #
coedge $-1 $244 $371 $358 $477 reversed $240 $-1 #
vertex $-1 $477 $482 #
straight-curve $-1 -32.131844741138352 -24.212401836881767 -4.0946871933853828 0 0 1 I I #
coedge $-1 $483 $484 $246 $365 forward $356 $-1 #
edge $-1 $372 -24.212401836881767 $369 24.212401836881767 $364 $485 forward 7 unknown #
coedge $-1 $478 $247 $251 $374 forward $368 $-1 #
coedge $-1 $247 $478 $483 $486 reversed $368 $-1 #
loop $-1 $-1 $366 $355 #
vertex $-1 $486 $487 #
straight-curve $-1 -19.361737087869507 24.212401836881767 -4.9949962109440049 1 0 0 I I #
coedge $-1 $361 $249 $484 $488 forward $240 $-1 #
vertex $-1 $488 $489 #
straight-curve $-1 -19.361737087869507 -24.212401836881767 -4.9949962109440049 -1 0 0 I I #
edge $-1 $253 0.90030901755862214 $480 7.2890653692121425 $366 $490 forward 7 unknown #
point $-1 -32.131844741138352 -24.212401836881767 -4.9949962109440049 #
point $-1 -32.131844741138352 24.212401836881767 -4.9949962109440049 #
face $-1 $-1 $269 $35 $-1 $491 reversed single #
loop $-1 $-1 $264 $255 #
plane-surface $-1 0 24.212401836881767 0 0 -1 0 0 0 -1 forward_v I I I I #
coedge $-1 $492 $493 $259 $384 forward $256 $-1 #
coedge $-1 $494 $258 $383 $495 forward $155 $-1 #
coedge $-1 $258 $494 $267 $395 reversed $155 $-1 #
coedge $-1 $260 $259 $381 $495 reversed $97 $-1 #
edge $-1 $496 -24.212401836881767 $387 24.212401836881767 $380 $497 forward 7 unknown #
edge $-1 $388 -24.212401836881767 $392 24.212401836881767 $260 $498 forward 7 unknown #
coedge $-1 $261 $390 $492 $499 reversed $378 $-1 #
vertex $-1 $499 $500 #
vertex $-1 $265 $501 #
straight-curve $-1 32.131844741138366 24.212401836881767 -4.0946871933853828 0 0 1 I I #
coedge $-1 $386 $264 $268 $396 forward $378 $-1 #
straight-curve $-1 19.361737087869511 24.212401836881767 -4.9949962109440049 1 0 0 I I #
vertex $-1 $266 $502 #
straight-curve $-1 19.361737087869511 -24.212401836881767 -4.9949962109440049 -1 0 0 I I #
coedge $-1 $268 $267 $503 $504 reversed $269 $-1 #
edge $-1 $271 4.9949962109440049 $505 11.383752562597527 $267 $506 forward 7 unknown #
edge $-1 $270 4.9949962109440049 $507 11.383752562597527 $268 $508 forward 7 unknown #
point $-1 45.315103610339676 24.212401836881767 -4.9949962109440049 #
point $-1 45.315103610339676 -24.212401836881767 -4.9949962109440049 #
loop $-1 $-1 $281 $273 #
plane-surface $-1 0 0 11.383752562597527 0 0 1 1 0 0 forward_v I I I I #
coedge $-1 $402 $276 $278 $406 reversed $163 $-1 #
coedge $-1 $276 $401 $509 $510 reversed $163 $-1 #
coedge $-1 $284 $279 $276 $404 forward $274 $-1 #
edge $-1 $407 -43.915628557316396 $511 -38.6574114450545 $403 $512 forward 7 unknown #
coedge $-1 $278 $277 $410 $513 reversed $101 $-1 #
edge $-1 $514 41.752030449394169 $407 48.424803673763535 $401 $515 forward 7 unknown #
vertex $-1 $280 $516 #
straight-curve $-1 6.1221046462075073 24.212401836881767 6.1255354503356365 -1 0 0 I I #
coedge $-1 $509 $281 $284 $414 forward $399 $-1 #
coedge $-1 $281 $509 $405 $513 forward $399 $-1 #
vertex $-1 $282 $517 #
straight-curve $-1 17.229955262975935 32.908347457976852 11.383752562597529 0 1 0 I I #
straight-curve $-1 17.229955262975935 -5.600883723646561 44.284801886274032 0 -0.61566146476048833 0.78801076186113728 I I #
edge $-1 $285 -17.229955262975935 $511 -7.2584633218540944 $284 $518 forward 7 unknown #
point $-1 17.229955262975935 24.212401836881767 11.383752562597527 #
point $-1 17.229955262975935 24.212401836881767 6.125535450335633 #
edge $-1 $519 1 $519 0 $288 $-1 forward 7 unknown #
vertex $-1 $289 $520 #
ellipse-curve $-1 9.2527617100784596 21.370306406355716 8.1389825417060813 0 0.78801076186113728 0.61566146476048833 0.25 0 0 1 I I #
point $-1 9.5027617100784596 22.158317168216854 8.7546440064665685 #
edge $-1 $521 1 $521 0 $292 $-1 forward 7 unknown #
vertex $-1 $293 $522 #
ellipse-curve $-1 12.244209292415015 21.370306406355716 8.1389825417060813 0 0.78801076186113728 0.61566146476048833 0.25 0 0 1 I I #
point $-1 12.494209292415015 22.158317168216854 8.7546440064665685 #
edge $-1 $523 1 $523 0 $296 $-1 forward 7 unknown #
vertex $-1 $297 $524 #
ellipse-curve $-1 15.235656874751569 21.370306406355716 8.1389825417060813 0 0.78801076186113728 0.61566146476048833 0.25 0 0 1 I I #
point $-1 15.485656874751569 22.158317168216854 8.7546440064665685 #
plane-surface $-1 0 -24.212401836881767 0 0 1 0 0 0 1 forward_v I I I I #
coedge $-1 $440 $439 $432 $525 forward $301 $-1 #
coedge $-1 $432 $303 $305 $436 reversed $192 $-1 #
coedge $-1 $303 $431 $430 $525 reversed $192 $-1 #
coedge $-1 $311 $306 $303 $434 forward $312 $-1 #
edge $-1 $437 -24.835995339347178 $526 -19.577778227085304 $433 $527 forward 7 unknown #
coedge $-1 $305 $304 $440 $528 reversed $120 $-1 #
edge $-1 $529 -6.6727732243693563 $437 -2.274695869299009e-014 $431 $530 forward 7 unknown #
vertex $-1 $307 $531 #
straight-curve $-1 6.1221046462075073 -24.212401836881767 6.1255354503356498 1 0 0 I I #
coedge $-1 $430 $308 $311 $444 forward $301 $-1 #
coedge $-1 $308 $430 $435 $528 forward $301 $-1 #
vertex $-1 $309 $532 #
straight-curve $-1 7.2584633218540944 -47.814990238241023 11.383752562597529 0 -1 0 I I #
straight-curve $-1 7.2584633218540944 -24.212401836881781 6.125535450335633 0 0.61566146476048833 0.78801076186113728 I I #
edge $-1 $313 7.2584633218540944 $526 17.229955262975935 $311 $533 forward 7 unknown #
point $-1 7.2584633218540944 -24.212401836881767 11.383752562597527 #
point $-1 7.2584633218540944 -24.212401836881767 6.1255354503356507 #
edge $-1 $534 1 $534 0 $316 $-1 forward 7 unknown #
vertex $-1 $317 $535 #
ellipse-curve $-1 9.2527617100784596 -21.370306406355724 8.1389825417060884 0 -0.78801076186113728 0.61566146476048833 0.25 0 0 1 I I #
point $-1 9.5027617100784596 -22.158317168216861 8.7546440064665756 #
edge $-1 $536 1 $536 0 $320 $-1 forward 7 unknown #
vertex $-1 $321 $537 #
ellipse-curve $-1 12.244209292415015 -21.370306406355724 8.1389825417060884 0 -0.78801076186113728 0.61566146476048833 0.25 0 0 1 I I #
point $-1 12.494209292415015 -22.158317168216861 8.7546440064665756 #
edge $-1 $538 1 $538 0 $324 $-1 forward 7 unknown #
vertex $-1 $325 $539 #
ellipse-curve $-1 15.235656874751569 -21.370306406355724 8.1389825417060884 0 -0.78801076186113728 0.61566146476048833 0.25 0 0 1 I I #
point $-1 15.485656874751569 -22.158317168216861 8.7546440064665756 #
plane-surface $-1 45.315103610339669 0 0 -1 0 0 0 0 1 forward_v I I I I #
coedge $-1 $333 $331 $335 $464 reversed $221 $-1 #
edge $-1 $346 -11.383752562597527 $466 11.383752562597527 $345 $540 forward 7 unknown #
vertex $-1 $464 $541 #
straight-curve $-1 -45.315103610339669 -24.212401836881767 0 0 0 -1 I I #
edge $-1 $462 -24.212401836881767 $466 24.212401836881767 $460 $542 forward 7 unknown #
straight-curve $-1 0 -24.212401836881767 -11.383752562597527 -1 0 0 I I #
vertex $-1 $338 $543 #
straight-curve $-1 0 24.212401836881767 -11.383752562597527 1 0 0 I I #
point $-1 45.315103610339669 24.212401836881767 -11.383752562597527 #
point $-1 45.315103610339669 -24.212401836881767 -11.383752562597527 #
straight-curve $-1 -45.315103610339669 0 11.383752562597527 0 -1 0 I I #
point $-1 -45.315103610339669 24.212401836881767 11.383752562597527 #
point $-1 -45.315103610339669 -24.212401836881767 11.383752562597527 #
straight-curve $-1 45.315103610339669 -24.212401836881767 0 0 0 -1 I I #
straight-curve $-1 45.315103610339669 24.212401836881767 0 0 0 -1 I I #
plane-surface $-1 0 24.212401836881767 0 0 -1 0 0 0 -1 forward_v I I I I #
coedge $-1 $359 $358 $544 $545 forward $147 $-1 #
edge $-1 $362 32.131844741138352 $546 45.315103610339669 $361 $547 forward 7 unknown #
coedge $-1 $367 $366 $359 $479 reversed $368 $-1 #
edge $-1 $548 -45.315103610339669 $480 -32.131844741138352 $478 $549 forward 7 unknown #
vertex $-1 $374 $550 #
straight-curve $-1 -32.131844741138352 0 -11.383752562597527 0 -1 0 I I #
point $-1 -32.131844741138352 -24.212401836881767 -11.383752562597525 #
coedge $-1 $544 $364 $367 $486 forward $356 $-1 #
coedge $-1 $364 $544 $371 $488 reversed $356 $-1 #
straight-curve $-1 -45.315103610339669 0 -4.9949962109440049 0 1 0 I I #
edge $-1 $369 4.9949962109440049 $548 11.383752562597527 $367 $551 forward 7 unknown #
point $-1 -45.315103610339676 24.212401836881767 -4.9949962109440049 #
edge $-1 $372 4.9949962109440049 $546 11.383752562597527 $484 $552 forward 7 unknown #
point $-1 -45.315103610339676 -24.212401836881767 -4.9949962109440049 #
straight-curve $-1 -32.131844741138352 24.212401836881767 -4.0946871933853828 0 0 -1 I I #
plane-surface $-1 45.315103610339669 0 0 -1 0 0 0 0 1 forward_v I I I I #
coedge $-1 $503 $380 $386 $499 forward $256 $-1 #
coedge $-1 $380 $503 $494 $553 forward $256 $-1 #
coedge $-1 $382 $381 $493 $553 reversed $155 $-1 #
edge $-1 $392 0.90030901755862214 $496 7.2890653692121425 $381 $554 forward 7 unknown #
vertex $-1 $384 $555 #
straight-curve $-1 32.131844741138366 0 -11.383752562597527 0 1 0 I I #
straight-curve $-1 32.131844741138366 0 -4.9949962109440049 0 -1 0 I I #
edge $-1 $387 32.131844741138366 $507 45.315103610339669 $386 $556 forward 7 unknown #
point $-1 32.131844741138366 24.212401836881767 -11.383752562597525 #
point $-1 32.131844741138366 24.212401836881767 -4.9949962109440049 #
point $-1 32.131844741138366 -24.212401836881767 -4.9949962109440049 #
coedge $-1 $493 $492 $394 $504 forward $256 $-1 #
edge $-1 $507 -24.212401836881767 $505 24.212401836881767 $394 $557 forward 7 unknown #
vertex $-1 $395 $558 #
straight-curve $-1 45.315103610339669 -24.212401836881767 0 0 0 -1 I I #
vertex $-1 $504 $559 #
straight-curve $-1 45.315103610339669 24.212401836881767 0 0 0 -1 I I #
coedge $-1 $410 $409 $402 $510 forward $399 $-1 #
edge $-1 $511 8.6959456210950847 $514 12.80411495842489 $509 $560 forward 7 unknown #
vertex $-1 $510 $561 #
straight-curve $-1 7.2584633218540944 24.212401836881767 50.041164007652029 0 0 1 I I #
edge $-1 $514 1.1363586756465871 $411 11.107850616768427 $410 $562 forward 7 unknown #
vertex $-1 $513 $563 #
straight-curve $-1 7.2584633218540944 -5.600883723646561 44.284801886274032 0 0.61566146476048833 -0.78801076186113728 I I #
point $-1 7.2584633218540944 24.212401836881767 6.125535450335633 #
point $-1 17.229955262975935 20.104232499551962 11.383752562597529 #
straight-curve $-1 0 24.212401836881767 11.383752562597527 -1 0 0 I I #
vertex $-1 $417 $564 #
point $-1 9.5027617100784596 21.370306406355716 8.1389825417060813 #
vertex $-1 $421 $565 #
point $-1 12.494209292415015 21.370306406355716 8.1389825417060813 #
vertex $-1 $425 $566 #
point $-1 15.485656874751569 21.370306406355716 8.1389825417060813 #
edge $-1 $526 23.602588401359256 $529 27.710757738689047 $430 $567 forward 7 unknown #
vertex $-1 $434 $568 #
straight-curve $-1 17.229955262975935 -24.212401836881767 30.961530789682829 0 0 1 I I #
edge $-1 $529 -11.107850616768427 $441 -1.1363586756465871 $440 $569 forward 7 unknown #
vertex $-1 $528 $570 #
straight-curve $-1 17.229955262975935 -24.212401836881781 6.125535450335633 0 -0.61566146476048833 -0.78801076186113728 I I #
point $-1 17.229955262975935 -24.212401836881767 6.1255354503356507 #
point $-1 7.2584633218540944 -20.104232499551976 11.383752562597527 #
straight-curve $-1 0 -24.212401836881767 11.383752562597527 1 0 0 I I #
vertex $-1 $447 $571 #
point $-1 9.5027617100784596 -21.370306406355724 8.1389825417060884 #
vertex $-1 $451 $572 #
point $-1 12.494209292415015 -21.370306406355724 8.1389825417060884 #
vertex $-1 $455 $573 #
point $-1 15.485656874751569 -21.370306406355724 8.1389825417060884 #
straight-curve $-1 -45.315103610339669 24.212401836881767 0 0 0 -1 I I #
point $-1 -45.315103610339669 -24.212401836881767 -11.383752562597527 #
straight-curve $-1 -45.315103610339669 0 -11.383752562597527 0 1 0 I I #
point $-1 -45.315103610339669 24.212401836881767 -11.383752562597527 #
coedge $-1 $484 $483 $476 $545 reversed $356 $-1 #
edge $-1 $546 -24.212401836881767 $548 24.212401836881767 $544 $574 forward 7 unknown #
vertex $-1 $545 $575 #
straight-curve $-1 0 -24.212401836881767 -11.383752562597527 -1 0 0 I I #
vertex $-1 $479 $576 #
straight-curve $-1 0 24.212401836881767 -11.383752562597527 1 0 0 I I #
point $-1 -32.131844741138352 24.212401836881767 -11.383752562597525 #
straight-curve $-1 -45.315103610339669 24.212401836881767 0 0 0 -1 I I #
straight-curve $-1 -45.315103610339669 -24.212401836881767 0 0 0 -1 I I #
edge $-1 $505 -45.315103610339669 $496 -32.131844741138366 $494 $577 forward 7 unknown #
straight-curve $-1 32.131844741138366 -24.212401836881767 -4.0946871933853828 0 0 -1 I I #
point $-1 32.131844741138366 -24.212401836881767 -11.383752562597525 #
straight-curve $-1 0 24.212401836881767 -11.383752562597527 1 0 0 I I #
straight-curve $-1 45.315103610339669 0 -11.383752562597527 0 -1 0 I I #
point $-1 45.315103610339669 -24.212401836881767 -11.383752562597527 #
point $-1 45.315103610339669 24.212401836881767 -11.383752562597527 #
straight-curve $-1 7.2584633218540944 32.908347457976852 11.383752562597529 0 -1 0 I I #
point $-1 7.2584633218540944 24.212401836881767 11.383752562597527 #
straight-curve $-1 6.1221046462075073 20.104232499551969 11.383752562597525 1 0 0 I I #
point $-1 7.2584633218540944 20.104232499551962 11.383752562597529 #
point $-1 9.2527617100784596 21.173303715890434 7.985067175515959 #
point $-1 12.244209292415015 21.173303715890434 7.985067175515959 #
point $-1 15.235656874751569 21.173303715890434 7.985067175515959 #
straight-curve $-1 17.229955262975935 -47.814990238241023 11.383752562597529 0 1 0 I I #
point $-1 17.229955262975935 -24.212401836881767 11.383752562597527 #
straight-curve $-1 6.1221046462075073 -20.10423249955198 11.383752562597527 -1 0 0 I I #
point $-1 17.229955262975935 -20.104232499551976 11.383752562597527 #
point $-1 9.2527617100784596 -21.173303715890441 7.9850671755159661 #
point $-1 12.244209292415015 -21.173303715890441 7.9850671755159661 #
point $-1 15.235656874751569 -21.173303715890441 7.9850671755159661 #
straight-curve $-1 -45.315103610339669 0 -11.383752562597527 0 1 0 I I #
point $-1 -45.315103610339669 -24.212401836881767 -11.383752562597527 #
point $-1 -45.315103610339669 24.212401836881767 -11.383752562597527 #
straight-curve $-1 0 -24.212401836881767 -11.383752562597527 -1 0 0 I I #
End-of-ACIS-data 