500 0 9 0           
7 Unknown 11 ACIS 5.0 NT 24 Fri Mar 26 20:29:31 1999 
-1 9.9999999999999995e-007 1e-010 
body $-1 $9 $-1 $10 #
body $-1 $11 $-1 $12 #
body $-1 $13 $-1 $14 #
body $-1 $15 $-1 $16 #
body $-1 $17 $-1 $18 #
body $-1 $19 $-1 $20 #
body $-1 $21 $-1 $22 #
body $-1 $23 $-1 $24 #
body $-1 $25 $-1 $26 #
lump $-1 $-1 $27 $0 #
transform $-1 1 0 0 0 1 0 0 0 1 66.188543351542705 38.797067036655029 14.213198413486456 1 rotate no_reflect no_shear #
lump $-1 $-1 $28 $1 #
transform $-1 1 0 0 0 1 0 0 0 1 66.188543351542705 38.797067036655029 14.213198413486456 1 rotate no_reflect no_shear #
lump $-1 $-1 $29 $2 #
transform $-1 1 0 0 0 1 0 0 0 1 66.188543351542705 38.797067036655029 14.213198413486456 1 rotate no_reflect no_shear #
lump $-1 $-1 $30 $3 #
transform $-1 1 0 0 0 1 0 0 0 1 66.188543351542705 38.797067036655029 14.213198413486456 1 rotate no_reflect no_shear #
lump $-1 $-1 $31 $4 #
transform $-1 1 0 0 0 1 0 0 0 1 66.188543351542705 38.797067036655029 14.213198413486456 1 rotate no_reflect no_shear #
lump $-1 $-1 $32 $5 #
transform $-1 1 0 0 0 1 0 0 0 1 66.188543351542705 38.797067036655029 14.213198413486456 1 rotate no_reflect no_shear #
lump $-1 $-1 $33 $6 #
transform $-1 1 0 0 0 1 0 0 0 1 66.188543351542705 38.797067036655029 14.213198413486456 1 rotate no_reflect no_shear #
lump $-1 $-1 $34 $7 #
transform $-1 1 0 0 0 1 0 0 0 1 66.188543351542705 38.797067036655029 14.213198413486456 1 rotate no_reflect no_shear #
lump $-1 $-1 $35 $8 #
transform $-1 1 0 0 0 1 0 0 0 1 66.188543351542705 38.797067036655029 14.213198413486456 1 rotate no_reflect no_shear #
shell $-1 $-1 $-1 $36 $-1 $9 #
shell $-1 $-1 $-1 $37 $-1 $11 #
shell $-1 $-1 $-1 $38 $-1 $13 #
shell $-1 $-1 $-1 $39 $-1 $15 #
shell $-1 $-1 $-1 $40 $-1 $17 #
shell $-1 $-1 $-1 $41 $-1 $19 #
shell $-1 $-1 $-1 $42 $-1 $21 #
shell $-1 $-1 $-1 $43 $-1 $23 #
shell $-1 $-1 $-1 $44 $-1 $25 #
face $-1 $45 $46 $27 $-1 $47 forward single #
face $-1 $48 $49 $28 $-1 $50 forward single #
face $-1 $51 $52 $29 $-1 $53 reversed single #
face $-1 $54 $55 $30 $-1 $56 forward single #
face $-1 $57 $58 $31 $-1 $59 forward single #
face $-1 $60 $61 $32 $-1 $62 reversed single #
face $-1 $63 $64 $33 $-1 $65 forward single #
face $-1 $66 $67 $34 $-1 $68 forward single #
face $-1 $69 $70 $35 $-1 $71 forward single #
face $-1 $72 $73 $27 $-1 $74 reversed single #
loop $-1 $-1 $75 $36 #
plane-surface $-1 0 0 14.213198413486456 0 0 1 1 0 0 forward_v I I I I #
face $-1 $76 $77 $28 $-1 $78 reversed single #
loop $-1 $-1 $79 $37 #
plane-surface $-1 0 -38.797067036655029 0 0 1 0 0 0 1 forward_v I I I I #
face $-1 $80 $81 $29 $-1 $82 reversed single #
loop $-1 $-1 $83 $38 #
plane-surface $-1 -140.21287178011045 -14.470203855513162 117.40150237610854 0 1 0 -0.55919291073839883 0 0.82903756765294845 forward_v I I I I #
face $-1 $84 $85 $30 $-1 $86 forward single #
loop $-1 $87 $88 $39 #
cone-surface $-1 -60.641585150901015 -11.824914298713452 9.9172591674680355 0.55919291073839883 0 -0.82903756765294845 0.82903756765294845 0 0.55919291073839883 1 I I 0 1 1 forward I I I I #
face $-1 $89 $90 $31 $-1 $91 forward single #
loop $-1 $92 $93 $40 #
cone-surface $-1 -60.641585150901015 -7.8569799635138864 9.9172591674680355 0.55919291073839883 0 -0.82903756765294845 0.82903756765294845 0 0.55919291073839883 1 I I 0 1 1 forward I I I I #
face $-1 $94 $95 $32 $-1 $96 reversed single #
loop $-1 $-1 $97 $41 #
plane-surface $-1 59.655029097339806 30.675725645179433 192.47189139677764 0 -1 0 -0.68199836817093118 0 -0.7313536940579346 forward_v I I I I #
face $-1 $98 $99 $33 $-1 $100 forward single #
loop $-1 $101 $102 $42 #
cone-surface $-1 59.661622357408 15.999987328674457 7.8765756542369623 -0.68199836817093118 0 -0.7313536940579346 1.0970305410869019 0 -1.0229975522563968 1 I I 0 1 1.5 forward I I I I #
face $-1 $103 $104 $34 $-1 $105 forward single #
loop $-1 $106 $107 $43 #
cone-surface $-1 59.661622357408 21.503389197363823 7.8765756542369623 -0.68199836817093118 0 -0.7313536940579346 1.0970305410869019 0 -1.0229975522563968 1 I I 0 1 1.5 forward I I I I #
face $-1 $108 $109 $35 $-1 $110 forward single #
loop $-1 $111 $112 $44 #
cone-surface $-1 59.661622357408 27.006791066053189 7.8765756542369623 -0.68199836817093118 0 -0.7313536940579346 1.0970305410869019 0 -1.0229975522563968 1 I I 0 1 1.5 forward I I I I #
face $-1 $113 $114 $27 $-1 $115 reversed single #
loop $-1 $-1 $116 $45 #
plane-surface $-1 0 0 -14.213198413486456 0 0 1 1 0 0 forward_v I I I I #
coedge $-1 $117 $118 $119 $120 forward $46 $-1 #
face $-1 $121 $122 $28 $-1 $123 reversed single #
loop $-1 $-1 $124 $48 #
plane-surface $-1 0 0 -14.213198413486456 0 0 1 1 0 0 forward_v I I I I #
coedge $-1 $125 $126 $127 $128 forward $49 $-1 #
face $-1 $129 $130 $29 $-1 $131 reversed single #
loop $-1 $-1 $132 $51 #
plane-surface $-1 -66.18854335154272 -9.8409471311136691 7.655924402799144 -0.55919291073839883 0 0.82903756765294845 0.82903756765294845 0 0.55919291073839883 forward_v I I I I #
coedge $-1 $133 $134 $135 $136 reversed $52 $-1 #
face $-1 $-1 $137 $30 $-1 $138 forward single #
loop $-1 $139 $140 $54 #
cone-surface $-1 -59.675809657018384 -11.824914298713452 8.4854381429668031 0.55919291073839883 0 -0.82903756765294845 0.41451878382647422 0 0.27959645536919941 1 I I -0.70710678118654746 0.70710678118654746 0.5 forward I I I I #
loop $-1 $-1 $141 $39 #
coedge $-1 $88 $88 $142 $143 reversed $55 $-1 #
face $-1 $-1 $144 $31 $-1 $145 forward single #
loop $-1 $146 $147 $57 #
cone-surface $-1 -59.675809657018384 -7.8569799635138864 8.4854381429668031 0.55919291073839883 0 -0.82903756765294845 0.41451878382647422 0 0.27959645536919941 1 I I -0.70710678118654746 0.70710678118654746 0.5 forward I I I I #
loop $-1 $-1 $148 $40 #
coedge $-1 $93 $93 $149 $150 reversed $58 $-1 #
face $-1 $151 $152 $32 $-1 $153 reversed single #
loop $-1 $-1 $154 $60 #
plane-surface $-1 -30.625928017386315 21.503389197363823 95.65742002784863 0.68199836817093118 0 0.7313536940579346 0.7313536940579346 0 -0.68199836817093118 forward_v I I I I #
coedge $-1 $155 $156 $157 $158 reversed $61 $-1 #
face $-1 $-1 $159 $33 $-1 $160 forward single #
loop $-1 $161 $162 $63 #
cone-surface $-1 57.361321806503881 15.999987328674457 5.409805374626 -0.68199836817093118 0 -0.7313536940579346 0.54851527054345095 0 -0.51149877612819838 1 I I -0.70710678118654757 0.70710678118654757 0.75 forward I I I I #
loop $-1 $-1 $163 $42 #
coedge $-1 $102 $102 $164 $165 reversed $64 $-1 #
face $-1 $-1 $166 $34 $-1 $167 forward single #
loop $-1 $168 $169 $66 #
cone-surface $-1 57.361321806503881 21.503389197363823 5.409805374626 -0.68199836817093118 0 -0.7313536940579346 0.54851527054345095 0 -0.51149877612819838 1 I I -0.70710678118654757 0.70710678118654757 0.75 forward I I I I #
loop $-1 $-1 $170 $43 #
coedge $-1 $107 $107 $171 $172 reversed $67 $-1 #
face $-1 $-1 $173 $35 $-1 $174 forward single #
loop $-1 $175 $176 $69 #
cone-surface $-1 57.361321806503881 27.006791066053189 5.409805374626 -0.68199836817093118 0 -0.7313536940579346 0.54851527054345095 0 -0.51149877612819838 1 I I -0.70710678118654757 0.70710678118654757 0.75 forward I I I I #
loop $-1 $-1 $177 $44 #
coedge $-1 $112 $112 $178 $179 reversed $70 $-1 #
face $-1 $180 $181 $27 $-1 $182 reversed single #
loop $-1 $-1 $183 $72 #
plane-surface $-1 0 -38.797067036655029 0 0 1 0 0 0 1 forward_v I I I I #
coedge $-1 $184 $185 $186 $187 forward $73 $-1 #
coedge $-1 $188 $75 $189 $190 forward $46 $-1 #
coedge $-1 $75 $188 $191 $192 forward $46 $-1 #
coedge $-1 $193 $194 $75 $120 reversed $195 $-1 #
edge $-1 $196 -38.797067036655029 $197 38.797067036655029 $119 $198 forward 7 unknown #
face $-1 $199 $200 $28 $-1 $201 forward single #
loop $-1 $-1 $202 $76 #
plane-surface $-1 66.188543351542705 0 0 -1 0 0 0 0 1 forward_v I I I I #
coedge $-1 $203 $204 $205 $206 forward $77 $-1 #
coedge $-1 $205 $79 $202 $207 reversed $49 $-1 #
coedge $-1 $79 $205 $208 $209 reversed $49 $-1 #
coedge $-1 $210 $211 $79 $128 reversed $200 $-1 #
edge $-1 $212 -66.188543351542705 $213 66.188543351542705 $127 $214 forward 7 unknown #
face $-1 $215 $216 $29 $-1 $217 forward single #
loop $-1 $-1 $218 $80 #
plane-surface $-1 -140.21287178011045 -5.211690406714176 117.40150237610854 0 -1 0 0.55919291073839883 0 -0.82903756765294845 forward_v I I I I #
coedge $-1 $219 $220 $221 $222 reversed $81 $-1 #
coedge $-1 $134 $83 $223 $224 reversed $52 $-1 #
coedge $-1 $83 $133 $219 $225 reversed $52 $-1 #
coedge $-1 $221 $226 $83 $136 forward $216 $-1 #
edge $-1 $227 3.9178925385125183 $228 13.639450862769003 $135 $229 forward 7 unknown #
loop $-1 $-1 $142 $84 #
plane-surface $-1 -66.18854335154272 -9.8409471311136691 7.655924402799144 -0.55919291073839883 0 0.82903756765294845 0.82903756765294845 0 0.55919291073839883 forward_v I I I I #
loop $-1 $-1 $230 $54 #
coedge $-1 $140 $140 $141 $231 reversed $85 $-1 #
coedge $-1 $141 $141 $140 $231 forward $87 $-1 #
coedge $-1 $142 $142 $88 $143 forward $137 $-1 #
edge $-1 $232 0 $232 6.2831853071796004 $142 $233 forward 7 unknown #
loop $-1 $-1 $149 $89 #
plane-surface $-1 -66.18854335154272 -9.8409471311136691 7.655924402799144 -0.55919291073839883 0 0.82903756765294845 0.82903756765294845 0 0.55919291073839883 forward_v I I I I #
loop $-1 $-1 $234 $57 #
coedge $-1 $147 $147 $148 $235 reversed $90 $-1 #
coedge $-1 $148 $148 $147 $235 forward $92 $-1 #
coedge $-1 $149 $149 $93 $150 forward $144 $-1 #
edge $-1 $236 0 $236 6.2831853071796004 $149 $237 forward 7 unknown #
face $-1 $238 $239 $32 $-1 $240 reversed single #
loop $-1 $-1 $241 $94 #
plane-surface $-1 59.655029097339806 12.331052749548213 192.47189139677764 0 1 0 0.68199836817093118 0 0.7313536940579346 forward_v I I I I #
coedge $-1 $242 $243 $244 $245 reversed $95 $-1 #
coedge $-1 $156 $97 $246 $247 reversed $61 $-1 #
coedge $-1 $97 $155 $242 $248 reversed $61 $-1 #
coedge $-1 $244 $249 $97 $158 forward $250 $-1 #
edge $-1 $251 -36.361028802872802 $252 -26.884790364155187 $157 $253 forward 7 unknown #
loop $-1 $-1 $164 $98 #
plane-surface $-1 -30.625928017386315 21.503389197363823 95.65742002784863 0.68199836817093118 0 0.7313536940579346 0.7313536940579346 0 -0.68199836817093118 forward_v I I I I #
loop $-1 $-1 $254 $63 #
coedge $-1 $162 $162 $163 $255 reversed $99 $-1 #
coedge $-1 $163 $163 $162 $255 forward $101 $-1 #
coedge $-1 $164 $164 $102 $165 forward $159 $-1 #
edge $-1 $256 0 $256 6.2831853071796004 $164 $257 forward 7 unknown #
loop $-1 $-1 $171 $103 #
plane-surface $-1 -30.625928017386315 21.503389197363823 95.65742002784863 0.68199836817093118 0 0.7313536940579346 0.7313536940579346 0 -0.68199836817093118 forward_v I I I I #
loop $-1 $-1 $258 $66 #
coedge $-1 $169 $169 $170 $259 reversed $104 $-1 #
coedge $-1 $170 $170 $169 $259 forward $106 $-1 #
coedge $-1 $171 $171 $107 $172 forward $166 $-1 #
edge $-1 $260 0 $260 6.2831853071796004 $171 $261 forward 7 unknown #
loop $-1 $-1 $178 $108 #
plane-surface $-1 -30.625928017386315 21.503389197363823 95.65742002784863 0.68199836817093118 0 0.7313536940579346 0.7313536940579346 0 -0.68199836817093118 forward_v I I I I #
loop $-1 $-1 $262 $69 #
coedge $-1 $176 $176 $177 $263 reversed $109 $-1 #
coedge $-1 $177 $177 $176 $263 forward $111 $-1 #
coedge $-1 $178 $178 $112 $179 forward $173 $-1 #
edge $-1 $264 0 $264 6.2831853071796004 $178 $265 forward 7 unknown #
face $-1 $266 $267 $27 $-1 $268 reversed single #
loop $-1 $-1 $269 $113 #
plane-surface $-1 -66.188543351542705 0 0 1 0 0 0 0 -1 forward_v I I I I #
coedge $-1 $191 $270 $193 $271 reversed $114 $-1 #
coedge $-1 $272 $116 $270 $273 forward $73 $-1 #
coedge $-1 $116 $272 $274 $275 forward $73 $-1 #
coedge $-1 $194 $193 $116 $187 reversed $195 $-1 #
edge $-1 $276 -38.797067036655029 $277 38.797067036655029 $186 $278 forward 7 unknown #
coedge $-1 $118 $117 $279 $280 forward $46 $-1 #
coedge $-1 $281 $282 $117 $190 reversed $267 $-1 #
edge $-1 $197 -66.188543351542705 $283 66.188543351542705 $189 $284 forward 7 unknown #
coedge $-1 $285 $183 $118 $192 reversed $114 $-1 #
edge $-1 $286 -66.188543351542705 $196 66.188543351542705 $191 $287 forward 7 unknown #
coedge $-1 $186 $119 $183 $271 forward $195 $-1 #
coedge $-1 $119 $186 $281 $288 reversed $195 $-1 #
loop $-1 $-1 $193 $266 #
vertex $-1 $120 $289 #
vertex $-1 $120 $290 #
straight-curve $-1 66.188543351542705 0 14.213198413486456 0 1 0 I I #
face $-1 $291 $292 $28 $-1 $293 reversed single #
loop $-1 $-1 $211 $121 #
plane-surface $-1 0 -45.614951839759946 -7.6184860272564068 0 0 1 1 0 0 forward_v I I I I #
coedge $-1 $294 $295 $125 $207 forward $122 $-1 #
coedge $-1 $296 $124 $295 $297 forward $77 $-1 #
coedge $-1 $124 $296 $298 $299 forward $77 $-1 #
coedge $-1 $126 $125 $124 $206 reversed $49 $-1 #
edge $-1 $300 -66.188543351542705 $301 66.188543351542705 $124 $302 forward 7 unknown #
edge $-1 $301 -14.213198413486456 $213 -7.6184860272564068 $202 $303 forward 7 unknown #
coedge $-1 $298 $304 $126 $209 forward $305 $-1 #
edge $-1 $212 7.6184860272564068 $300 14.213198413486456 $208 $306 forward 7 unknown #
coedge $-1 $307 $127 $304 $308 forward $200 $-1 #
coedge $-1 $127 $307 $294 $309 forward $200 $-1 #
vertex $-1 $209 $310 #
vertex $-1 $309 $311 #
straight-curve $-1 0 -38.797067036655029 -7.6184860272564068 1 0 0 I I #
face $-1 $-1 $312 $29 $-1 $313 reversed single #
loop $-1 $-1 $135 $129 #
plane-surface $-1 0 0 14.213198413486456 0 0 1 1 0 0 forward_v I I I I #
coedge $-1 $314 $315 $316 $317 reversed $130 $-1 #
coedge $-1 $318 $132 $134 $225 forward $81 $-1 #
coedge $-1 $132 $318 $314 $319 forward $81 $-1 #
coedge $-1 $316 $135 $132 $222 forward $216 $-1 #
edge $-1 $228 -9.5497302899563277 $320 -0.29121684115734148 $221 $321 forward 7 unknown #
coedge $-1 $322 $323 $133 $224 forward $312 $-1 #
edge $-1 $324 -51.044826785255118 $227 -44.487552774567817 $223 $325 forward 7 unknown #
edge $-1 $228 -11.726318207483374 $324 -1.7244626260799089e-014 $134 $326 forward 7 unknown #
coedge $-1 $135 $316 $322 $327 forward $216 $-1 #
vertex $-1 $224 $328 #
vertex $-1 $136 $329 #
straight-curve $-1 -70.106435890055224 -14.470203855513162 14.213198413486452 1 0 0 I I #
coedge $-1 $230 $230 $-1 $330 reversed $139 $-1 #
edge $-1 $331 0 $331 6.2831853071796004 $140 $332 forward 7 unknown #
vertex $-1 $143 $333 #
ellipse-curve $-1 -61.327764189414459 -11.824914298713452 10.934561408142809 -0.55919291073839883 0 0.82903756765294845 0.82903756765294845 0 0.55919291073839883 1 I I #
coedge $-1 $234 $234 $-1 $334 reversed $146 $-1 #
edge $-1 $335 0 $335 6.2831853071796004 $147 $336 forward 7 unknown #
vertex $-1 $150 $337 #
ellipse-curve $-1 -61.327764189414459 -7.8569799635138864 10.934561408142809 -0.55919291073839883 0 0.82903756765294845 0.82903756765294845 0 0.55919291073839883 1 I I #
face $-1 $-1 $250 $32 $-1 $338 forward single #
loop $-1 $-1 $339 $151 #
plane-surface $-1 66.188543351542705 0 0 -1 0 0 0 0 1 forward_v I I I I #
coedge $-1 $340 $341 $342 $343 reversed $152 $-1 #
coedge $-1 $344 $154 $156 $248 forward $95 $-1 #
coedge $-1 $154 $344 $340 $345 forward $95 $-1 #
coedge $-1 $342 $157 $154 $245 forward $250 $-1 #
edge $-1 $252 -19.924031046497522 $346 -1.5793581508663017 $244 $347 forward 7 unknown #
coedge $-1 $348 $349 $155 $247 forward $239 $-1 #
edge $-1 $350 -90.859482785266309 $251 -82.022747284902366 $246 $351 forward 7 unknown #
edge $-1 $252 119.41996552394914 $350 132.37708670308541 $156 $352 forward 7 unknown #
coedge $-1 $157 $342 $348 $353 forward $250 $-1 #
loop $-1 $-1 $342 $238 #
vertex $-1 $247 $354 #
vertex $-1 $158 $355 #
straight-curve $-1 29.827514548669903 30.675725645179433 14.213198413486452 -1 0 0 I I #
coedge $-1 $254 $254 $-1 $356 reversed $161 $-1 #
edge $-1 $357 0 $357 6.2831853071796004 $162 $358 forward 7 unknown #
vertex $-1 $165 $359 #
ellipse-curve $-1 61.450424132183912 15.999987328674457 9.7948306633044702 0.68199836817093118 0 0.7313536940579346 1.0970305410869019 0 -1.0229975522563968 1 I I #
coedge $-1 $258 $258 $-1 $360 reversed $168 $-1 #
edge $-1 $361 0 $361 6.2831853071796004 $169 $362 forward 7 unknown #
vertex $-1 $172 $363 #
ellipse-curve $-1 61.450424132183912 21.503389197363823 9.7948306633044702 0.68199836817093118 0 0.7313536940579346 1.0970305410869019 0 -1.0229975522563968 1 I I #
coedge $-1 $262 $262 $-1 $364 reversed $175 $-1 #
edge $-1 $365 0 $365 6.2831853071796004 $176 $366 forward 7 unknown #
vertex $-1 $179 $367 #
ellipse-curve $-1 61.450424132183912 27.006791066053189 9.7948306633044702 0.68199836817093118 0 0.7313536940579346 1.0970305410869019 0 -1.0229975522563968 1 I I #
face $-1 $-1 $195 $27 $-1 $368 reversed single #
loop $-1 $-1 $281 $180 #
plane-surface $-1 0 38.797067036655029 0 0 -1 0 0 0 -1 forward_v I I I I #
coedge $-1 $369 $279 $282 $370 forward $181 $-1 #
coedge $-1 $183 $285 $184 $273 reversed $114 $-1 #
edge $-1 $196 -14.213198413486456 $277 14.213198413486456 $193 $371 forward 7 unknown #
coedge $-1 $185 $184 $369 $372 forward $73 $-1 #
edge $-1 $277 -66.188543351542705 $373 66.188543351542705 $270 $374 forward 7 unknown #
coedge $-1 $282 $281 $185 $275 reversed $267 $-1 #
edge $-1 $375 -66.188543351542705 $276 66.188543351542705 $274 $376 forward 7 unknown #
vertex $-1 $187 $377 #
vertex $-1 $271 $378 #
straight-curve $-1 66.188543351542705 0 -14.213198413486456 0 -1 0 I I #
coedge $-1 $269 $379 $188 $280 reversed $181 $-1 #
edge $-1 $283 -38.797067036655029 $286 38.797067036655029 $279 $380 forward 7 unknown #
coedge $-1 $274 $189 $194 $288 forward $267 $-1 #
coedge $-1 $189 $274 $269 $370 reversed $267 $-1 #
vertex $-1 $190 $381 #
straight-curve $-1 0 38.797067036655029 14.213198413486456 -1 0 0 I I #
coedge $-1 $270 $191 $379 $382 forward $114 $-1 #
vertex $-1 $280 $383 #
straight-curve $-1 0 -38.797067036655029 14.213198413486456 1 0 0 I I #
edge $-1 $197 -14.213198413486456 $276 14.213198413486456 $194 $384 forward 7 unknown #
point $-1 66.188543351542705 -38.797067036655029 14.213198413486456 #
point $-1 66.188543351542705 38.797067036655029 14.213198413486456 #
face $-1 $-1 $305 $28 $-1 $385 reversed single #
loop $-1 $-1 $386 $199 #
plane-surface $-1 0 -52.432836642864864 -10.915842220371431 0 1 0 0 0 1 forward_v I I I I #
coedge $-1 $387 $202 $211 $309 reversed $122 $-1 #
coedge $-1 $202 $387 $203 $297 reversed $122 $-1 #
coedge $-1 $204 $203 $388 $389 forward $77 $-1 #
edge $-1 $301 38.797067036655029 $390 52.432836642864864 $295 $391 forward 7 unknown #
coedge $-1 $392 $208 $204 $299 reversed $305 $-1 #
edge $-1 $393 -52.432836642864864 $300 -38.797067036655029 $298 $394 forward 7 unknown #
vertex $-1 $209 $395 #
vertex $-1 $297 $396 #
straight-curve $-1 0 -38.797067036655029 -14.213198413486456 1 0 0 I I #
straight-curve $-1 66.188543351542705 -38.797067036655029 0 0 0 1 I I #
coedge $-1 $208 $392 $210 $308 reversed $305 $-1 #
loop $-1 $-1 $208 $291 #
straight-curve $-1 -66.188543351542705 -38.797067036655029 0 0 0 -1 I I #
coedge $-1 $211 $210 $397 $398 forward $200 $-1 #
edge $-1 $212 -6.8178848031049171 $399 6.8178848031049171 $304 $400 forward 7 unknown #
edge $-1 $401 -6.8178848031049171 $213 6.8178848031049171 $294 $402 forward 7 unknown #
point $-1 -66.188543351542705 -38.797067036655029 -7.6184860272564068 #
point $-1 66.188543351542705 -38.797067036655029 -7.6184860272564068 #
loop $-1 $-1 $223 $215 #
plane-surface $-1 -66.188543351542705 0 0 1 0 0 0 0 -1 forward_v I I I I #
coedge $-1 $315 $218 $220 $319 reversed $130 $-1 #
coedge $-1 $218 $314 $403 $404 reversed $130 $-1 #
coedge $-1 $226 $221 $218 $317 forward $216 $-1 #
edge $-1 $320 -13.639450862769003 $405 -3.9178925385125183 $316 $406 forward 7 unknown #
coedge $-1 $220 $219 $323 $407 reversed $81 $-1 #
edge $-1 $408 1.7244626260799089e-014 $320 11.726318207483374 $314 $409 forward 7 unknown #
vertex $-1 $222 $410 #
straight-curve $-1 -56.466985027286213 -4.9204735655568346 14.213198413486456 0 1 0 I I #
coedge $-1 $403 $223 $226 $327 reversed $312 $-1 #
coedge $-1 $223 $403 $318 $407 forward $312 $-1 #
vertex $-1 $224 $411 #
straight-curve $-1 -66.188543351542705 -14.470203855513162 58.700751188054269 0 0 1 I I #
straight-curve $-1 -66.18854335154272 -14.470203855513162 7.655924402799144 -0.82903756765294845 0 -0.55919291073839883 I I #
edge $-1 $405 5.211690406714176 $227 14.470203855513162 $322 $412 forward 7 unknown #
point $-1 -66.188543351542705 -14.470203855513162 14.213198413486456 #
point $-1 -56.466985027286221 -14.470203855513162 14.213198413486456 #
edge $-1 $413 1 $413 0 $230 $-1 forward 7 unknown #
vertex $-1 $231 $414 #
ellipse-curve $-1 -59.955406112387585 -11.824914298713452 8.8999569267932781 -0.55919291073839883 0 0.82903756765294845 0.82903756765294845 0 0.55919291073839883 1 I I #
point $-1 -60.498726621761492 -11.824914298713452 11.493754318881191 #
edge $-1 $415 1 $415 0 $234 $-1 forward 7 unknown #
vertex $-1 $235 $416 #
ellipse-curve $-1 -59.955406112387585 -7.8569799635138864 8.8999569267932781 -0.55919291073839883 0 0.82903756765294845 0.82903756765294845 0 0.55919291073839883 1 I I #
point $-1 -60.498726621761492 -7.8569799635138864 11.493754318881191 #
plane-surface $-1 0 0 14.213198413486456 0 0 1 1 0 0 forward_v I I I I #
coedge $-1 $349 $348 $341 $417 forward $239 $-1 #
coedge $-1 $341 $241 $243 $345 reversed $152 $-1 #
coedge $-1 $241 $340 $339 $417 reversed $152 $-1 #
coedge $-1 $249 $244 $241 $343 forward $250 $-1 #
edge $-1 $346 26.884790364155187 $418 36.361028802872802 $342 $419 forward 7 unknown #
coedge $-1 $243 $242 $349 $420 reversed $95 $-1 #
edge $-1 $421 -132.37708670308541 $346 -119.41996552394914 $340 $422 forward 7 unknown #
vertex $-1 $245 $423 #
straight-curve $-1 56.712304912825097 10.751694598681912 14.213198413486452 0 -1 0 I I #
coedge $-1 $339 $246 $249 $353 reversed $239 $-1 #
coedge $-1 $246 $339 $344 $420 forward $239 $-1 #
vertex $-1 $247 $424 #
straight-curve $-1 66.188543351542705 30.675725645179433 96.235945698388818 0 0 1 I I #
straight-curve $-1 -30.625928017386315 30.675725645179433 95.65742002784863 0.7313536940579346 0 -0.68199836817093118 I I #
edge $-1 $418 12.331052749548213 $251 30.675725645179433 $348 $425 forward 7 unknown #
point $-1 66.188543351542705 30.675725645179433 14.213198413486456 #
point $-1 56.71230491282509 30.675725645179433 14.213198413486452 #
edge $-1 $426 1 $426 0 $254 $-1 forward 7 unknown #
vertex $-1 $255 $427 #
ellipse-curve $-1 57.87282058263208 15.999987328674457 5.9583206451694508 0.68199836817093118 0 0.7313536940579346 1.0970305410869019 0 -1.0229975522563968 1 I I #
point $-1 62.547454673270821 15.999987328674457 8.7718331110480765 #
edge $-1 $428 1 $428 0 $258 $-1 forward 7 unknown #
vertex $-1 $259 $429 #
ellipse-curve $-1 57.87282058263208 21.503389197363823 5.9583206451694508 0.68199836817093118 0 0.7313536940579346 1.0970305410869019 0 -1.0229975522563968 1 I I #
point $-1 62.547454673270821 21.503389197363823 8.7718331110480765 #
edge $-1 $430 1 $430 0 $262 $-1 forward 7 unknown #
vertex $-1 $263 $431 #
ellipse-curve $-1 57.87282058263208 27.006791066053189 5.9583206451694508 0.68199836817093118 0 0.7313536940579346 1.0970305410869019 0 -1.0229975522563968 1 I I #
point $-1 62.547454673270821 27.006791066053189 8.7718331110480765 #
plane-surface $-1 66.188543351542705 0 0 -1 0 0 0 0 1 forward_v I I I I #
coedge $-1 $379 $269 $272 $372 reversed $181 $-1 #
edge $-1 $283 -14.213198413486456 $375 14.213198413486456 $282 $432 forward 7 unknown #
straight-curve $-1 66.188543351542705 -38.797067036655029 0 0 0 -1 I I #
edge $-1 $373 -38.797067036655029 $375 38.797067036655029 $369 $433 forward 7 unknown #
vertex $-1 $372 $434 #
straight-curve $-1 0 -38.797067036655029 -14.213198413486456 -1 0 0 I I #
vertex $-1 $275 $435 #
straight-curve $-1 0 38.797067036655029 -14.213198413486456 1 0 0 I I #
point $-1 66.188543351542705 38.797067036655029 -14.213198413486456 #
point $-1 66.188543351542705 -38.797067036655029 -14.213198413486456 #
coedge $-1 $279 $369 $285 $382 reversed $181 $-1 #
straight-curve $-1 -66.188543351542705 0 14.213198413486456 0 -1 0 I I #
point $-1 -66.188543351542705 38.797067036655029 14.213198413486456 #
edge $-1 $286 -14.213198413486456 $373 14.213198413486456 $379 $436 forward 7 unknown #
point $-1 -66.188543351542705 -38.797067036655029 14.213198413486456 #
straight-curve $-1 66.188543351542705 38.797067036655029 0 0 0 -1 I I #
plane-surface $-1 -66.188543351542705 0 0 1 0 0 0 0 -1 forward_v I I I I #
coedge $-1 $388 $397 $392 $437 forward $292 $-1 #
coedge $-1 $295 $294 $438 $439 forward $122 $-1 #
coedge $-1 $438 $386 $296 $389 reversed $292 $-1 #
edge $-1 $390 -66.188543351542705 $393 66.188543351542705 $388 $440 forward 7 unknown #
vertex $-1 $439 $441 #
straight-curve $-1 66.188543351542705 0 -14.213198413486456 0 -1 0 I I #
coedge $-1 $304 $298 $386 $437 reversed $305 $-1 #
vertex $-1 $299 $442 #
straight-curve $-1 -66.188543351542705 0 -14.213198413486456 0 1 0 I I #
point $-1 -66.188543351542705 -38.797067036655029 -14.213198413486456 #
point $-1 66.188543351542705 -38.797067036655029 -14.213198413486456 #
coedge $-1 $386 $438 $307 $398 reversed $292 $-1 #
edge $-1 $399 -66.188543351542705 $401 66.188543351542705 $397 $443 forward 7 unknown #
vertex $-1 $308 $444 #
straight-curve $-1 -66.188543351542705 -45.614951839759946 -7.6184860272564068 0 -1 0 I I #
vertex $-1 $309 $445 #
straight-curve $-1 66.188543351542705 -45.614951839759946 -7.6184860272564068 0 1 0 I I #
coedge $-1 $323 $322 $315 $404 forward $312 $-1 #
edge $-1 $405 44.487552774567817 $408 51.044826785255118 $403 $446 forward 7 unknown #
vertex $-1 $327 $447 #
straight-curve $-1 -70.106435890055224 -5.211690406714176 14.213198413486452 -1 0 0 I I #
edge $-1 $408 0.29121684115734148 $324 9.5497302899563277 $323 $448 forward 7 unknown #
vertex $-1 $407 $449 #
straight-curve $-1 -66.18854335154272 -5.211690406714176 7.655924402799144 0.82903756765294845 0 0.55919291073839883 I I #
point $-1 -56.466985027286221 -5.211690406714176 14.213198413486456 #
point $-1 -66.188543351542705 -14.470203855513162 7.6559244027991538 #
straight-curve $-1 -66.188543351542705 0 14.213198413486456 0 -1 0 I I #
vertex $-1 $330 $450 #
point $-1 -59.126368544734632 -11.824914298713452 9.459149837531676 #
vertex $-1 $334 $451 #
point $-1 -59.126368544734632 -7.8569799635138864 9.459149837531676 #
edge $-1 $418 82.022747284902366 $421 90.859482785266309 $339 $452 forward 7 unknown #
vertex $-1 $353 $453 #
straight-curve $-1 29.827514548669903 12.331052749548213 14.213198413486452 1 0 0 I I #
edge $-1 $421 1.5793581508663017 $350 19.924031046497522 $349 $454 forward 7 unknown #
vertex $-1 $420 $455 #
straight-curve $-1 -30.625928017386315 12.331052749548213 95.65742002784863 -0.7313536940579346 0 0.68199836817093118 I I #
point $-1 56.71230491282509 12.331052749548213 14.213198413486452 #
point $-1 66.188543351542691 30.675725645179433 5.3764629131225092 #
straight-curve $-1 66.188543351542705 0 14.213198413486456 0 1 0 I I #
vertex $-1 $356 $456 #
point $-1 58.969851123718982 15.999987328674457 4.9353230929130545 #
vertex $-1 $360 $457 #
point $-1 58.969851123718982 21.503389197363823 4.9353230929130545 #
vertex $-1 $364 $458 #
point $-1 58.969851123718982 27.006791066053189 4.9353230929130545 #
straight-curve $-1 -66.188543351542705 38.797067036655029 0 0 0 -1 I I #
straight-curve $-1 -66.188543351542705 0 -14.213198413486456 0 1 0 I I #
point $-1 -66.188543351542705 -38.797067036655029 -14.213198413486456 #
point $-1 -66.188543351542705 38.797067036655029 -14.213198413486456 #
straight-curve $-1 -66.188543351542705 -38.797067036655029 0 0 0 -1 I I #
edge $-1 $399 -3.2973561931150241 $393 3.297356193115025 $392 $459 forward 7 unknown #
coedge $-1 $397 $388 $387 $439 reversed $292 $-1 #
edge $-1 $401 -3.2973561931150241 $390 3.297356193115025 $387 $460 forward 7 unknown #
straight-curve $-1 0 -52.432836642864864 -14.213198413486456 -1 0 0 I I #
point $-1 66.188543351542705 -52.432836642864864 -14.213198413486456 #
point $-1 -66.188543351542705 -52.432836642864864 -14.213198413486456 #
straight-curve $-1 0 -52.432836642864864 -7.6184860272564068 1 0 0 I I #
point $-1 -66.188543351542705 -52.432836642864864 -7.6184860272564068 #
point $-1 66.188543351542705 -52.432836642864864 -7.6184860272564068 #
straight-curve $-1 -66.188543351542705 -5.211690406714176 58.700751188054269 0 0 -1 I I #
point $-1 -66.188543351542705 -5.211690406714176 14.213198413486456 #
straight-curve $-1 -66.188543351542705 -4.9204735655568346 7.6559244027991467 0 -1 0 I I #
point $-1 -66.188543351542705 -5.211690406714176 7.6559244027991538 #
point $-1 -59.396213201649182 -11.824914298713452 8.0709193591403281 #
point $-1 -59.396213201649182 -7.8569799635138864 8.0709193591403281 #
straight-curve $-1 66.188543351542705 12.331052749548213 96.235945698388818 0 0 -1 I I #
point $-1 66.188543351542705 12.331052749548213 14.213198413486456 #
straight-curve $-1 66.188543351542705 10.751694598681912 5.3764629131225021 0 1 0 I I #
point $-1 66.188543351542691 12.331052749548213 5.3764629131225092 #
point $-1 56.849823030375681 15.999987328674457 4.8612901040825491 #
point $-1 56.849823030375681 21.503389197363823 4.8612901040825491 #
point $-1 56.849823030375681 27.006791066053189 4.8612901040825491 #
straight-curve $-1 -66.188543351542705 -52.432836642864864 -10.915842220371431 0 0 -1 I I #
straight-curve $-1 66.188543351542705 -52.432836642864864 -10.915842220371431 0 0 -1 I I #
End-of-ACIS-data 