500 0 8 0           
7 Unknown 11 ACIS 5.0 NT 24 Fri Mar 26 00:59:51 1999 
-1 9.9999999999999995e-007 1e-010 
body $-1 $8 $-1 $9 #
body $-1 $10 $-1 $11 #
body $-1 $12 $-1 $13 #
body $-1 $14 $-1 $15 #
body $-1 $16 $-1 $17 #
body $-1 $18 $-1 $19 #
body $-1 $20 $-1 $21 #
body $-1 $22 $-1 $23 #
lump $-1 $-1 $24 $0 #
transform $-1 1 0 0 0 1 0 0 0 1 70.390331736197993 29.36836647232693 8.6566188768066183 1 rotate no_reflect no_shear #
lump $-1 $-1 $25 $1 #
transform $-1 1 0 0 0 1 0 0 0 1 70.390331736197993 29.36836647232693 8.6566188768066183 1 rotate no_reflect no_shear #
lump $-1 $-1 $26 $2 #
transform $-1 1 0 0 0 1 0 0 0 1 70.390331736197993 29.36836647232693 8.6566188768066183 1 rotate no_reflect no_shear #
lump $-1 $-1 $27 $3 #
transform $-1 1 0 0 0 1 0 0 0 1 70.390331736197993 29.36836647232693 8.6566188768066183 1 rotate no_reflect no_shear #
lump $-1 $-1 $28 $4 #
transform $-1 1 0 0 0 1 0 0 0 1 70.390331736197993 29.36836647232693 8.6566188768066183 1 rotate no_reflect no_shear #
lump $-1 $-1 $29 $5 #
transform $-1 1 0 0 0 1 0 0 0 1 70.390331736197993 29.36836647232693 8.6566188768066183 1 rotate no_reflect no_shear #
lump $-1 $-1 $30 $6 #
transform $-1 1 0 0 0 1 0 0 0 1 70.390331736197993 29.36836647232693 8.6566188768066183 1 rotate no_reflect no_shear #
lump $-1 $-1 $31 $7 #
transform $-1 1 0 0 0 1 0 0 0 1 70.390331736197993 29.36836647232693 8.6566188768066183 1 rotate no_reflect no_shear #
shell $-1 $-1 $-1 $32 $-1 $8 #
shell $-1 $-1 $-1 $33 $-1 $10 #
shell $-1 $-1 $-1 $34 $-1 $12 #
shell $-1 $-1 $-1 $35 $-1 $14 #
shell $-1 $-1 $-1 $36 $-1 $16 #
shell $-1 $-1 $-1 $37 $-1 $18 #
shell $-1 $-1 $-1 $38 $-1 $20 #
shell $-1 $-1 $-1 $39 $-1 $22 #
face $-1 $40 $41 $24 $-1 $42 forward single #
face $-1 $43 $44 $25 $-1 $45 forward single #
face $-1 $46 $47 $26 $-1 $48 forward single #
face $-1 $49 $50 $27 $-1 $51 reversed single #
face $-1 $52 $53 $28 $-1 $54 forward single #
face $-1 $55 $56 $29 $-1 $57 forward single #
face $-1 $58 $59 $30 $-1 $60 reversed single #
face $-1 $61 $62 $31 $-1 $63 forward single #
face $-1 $64 $65 $24 $-1 $66 reversed single #
loop $-1 $-1 $67 $32 #
plane-surface $-1 0 0 8.6566188768066183 0 0 1 1 0 0 forward_v I I I I #
face $-1 $68 $69 $25 $-1 $70 reversed single #
loop $-1 $-1 $71 $33 #
plane-surface $-1 0 -23.940866954582042 -5.6566188768066183 0 0 1 1 0 0 forward_v I I I I #
face $-1 $72 $73 $26 $-1 $74 reversed single #
loop $-1 $-1 $75 $34 #
plane-surface $-1 0 23.940866954582045 -5.6566188768066183 0 0 1 1 0 0 forward_v I I I I #
face $-1 $76 $77 $27 $-1 $78 reversed single #
loop $-1 $-1 $79 $35 #
plane-surface $-1 25.603945308912117 18.513367436837157 196.27403958000053 0 -1 0 -0.52991927123019833 0 -0.84804809178421925 forward_v I I I I #
face $-1 $80 $81 $28 $-1 $82 forward single #
loop $-1 $83 $84 $36 #
cone-surface $-1 65.025314969608459 12.54482955151369 5.0457253782726692 -0.52991927123019833 0 -0.84804809178421925 0.42402404589210962 0 -0.26495963561509916 1 I I 0 1 0.5 forward I I I I #
face $-1 $85 $86 $29 $-1 $87 forward single #
loop $-1 $88 $89 $37 #
cone-surface $-1 65.025314969608459 16.125952282707775 5.0457253782726692 -0.52991927123019833 0 -0.84804809178421925 0.42402404589210962 0 -0.26495963561509916 1 I I 0 1 0.5 forward I I I I #
face $-1 $90 $91 $30 $-1 $92 reversed single #
loop $-1 $-1 $93 $38 #
plane-surface $-1 -153.13913059039038 -6.1166939210921409 116.8528536867189 0 1 0 -0.5877852598018023 0 0.80901698891910034 forward_v I I I I #
face $-1 $94 $95 $31 $-1 $96 forward single #
loop $-1 $97 $98 $39 #
cone-surface $-1 -64.936404422436468 -2.255328307415386 3.6980268702122796 0.5877852598018023 0 -0.80901698891910034 1.2135254833786506 0 0.88167788970270344 1 I I 0 1 1.5 forward I I I I #
face $-1 $99 $100 $24 $-1 $101 reversed single #
loop $-1 $-1 $102 $40 #
plane-surface $-1 0 0 -8.6566188768066183 0 0 1 1 0 0 forward_v I I I I #
coedge $-1 $103 $104 $105 $106 forward $41 $-1 #
face $-1 $107 $108 $25 $-1 $109 reversed single #
loop $-1 $-1 $110 $43 #
plane-surface $-1 0 -18.513367436837157 -7.1566188768066183 0 -1 0 0 0 -1 forward_v I I I I #
coedge $-1 $111 $112 $113 $114 reversed $44 $-1 #
face $-1 $115 $116 $26 $-1 $117 reversed single #
loop $-1 $-1 $118 $46 #
plane-surface $-1 0 18.513367436837157 -7.1566188768066183 0 1 0 0 0 1 forward_v I I I I #
coedge $-1 $119 $120 $121 $122 reversed $47 $-1 #
face $-1 $123 $124 $27 $-1 $125 reversed single #
loop $-1 $-1 $126 $49 #
plane-surface $-1 -48.998441281683768 14.335390917110725 76.885266562118787 0.52991927123019833 0 0.84804809178421925 0.84804809178421925 0 -0.52991927123019833 forward_v I I I I #
coedge $-1 $127 $128 $129 $130 reversed $50 $-1 #
face $-1 $-1 $131 $28 $-1 $132 forward single #
loop $-1 $133 $134 $52 #
cone-surface $-1 64.62787551618581 12.54482955151369 4.4096893094345049 -0.52991927123019833 0 -0.84804809178421925 0.21201202294605481 0 -0.13247981780754958 1 I I -0.70710678118654746 0.70710678118654746 0.25 forward I I I I #
loop $-1 $-1 $135 $36 #
coedge $-1 $84 $84 $136 $137 reversed $53 $-1 #
face $-1 $-1 $138 $29 $-1 $139 forward single #
loop $-1 $140 $141 $55 #
cone-surface $-1 64.62787551618581 16.125952282707775 4.4096893094345049 -0.52991927123019833 0 -0.84804809178421925 0.21201202294605481 0 -0.13247981780754958 1 I I -0.70710678118654746 0.70710678118654746 0.25 forward I I I I #
loop $-1 $-1 $142 $37 #
coedge $-1 $89 $89 $143 $144 reversed $56 $-1 #
face $-1 $145 $146 $30 $-1 $147 reversed single #
loop $-1 $-1 $148 $58 #
plane-surface $-1 -70.390331736198007 -2.255328307415386 2.9589052262479214 -0.5877852598018023 0 0.80901698891910034 0.80901698891910034 0 0.5877852598018023 forward_v I I I I #
coedge $-1 $149 $150 $151 $152 reversed $59 $-1 #
face $-1 $-1 $153 $31 $-1 $154 forward single #
loop $-1 $155 $156 $61 #
cone-surface $-1 -62.962753115611044 -2.255328307415386 0.98152894720796624 0.5877852598018023 0 -0.80901698891910034 0.60676274168932531 0 0.44083894485135172 1 I I -0.70710678118654757 0.70710678118654757 0.75 forward I I I I #
loop $-1 $-1 $157 $39 #
coedge $-1 $98 $98 $158 $159 reversed $62 $-1 #
face $-1 $160 $161 $24 $-1 $162 reversed single #
loop $-1 $-1 $163 $64 #
plane-surface $-1 0 -29.36836647232693 0 0 1 0 0 0 1 forward_v I I I I #
coedge $-1 $164 $165 $166 $167 forward $65 $-1 #
coedge $-1 $168 $67 $169 $170 forward $41 $-1 #
coedge $-1 $67 $168 $171 $172 forward $41 $-1 #
coedge $-1 $173 $174 $67 $106 reversed $175 $-1 #
edge $-1 $176 -29.36836647232693 $177 29.36836647232693 $105 $178 forward 7 unknown #
face $-1 $179 $180 $25 $-1 $181 reversed single #
loop $-1 $-1 $182 $68 #
plane-surface $-1 0 0 -8.6566188768066183 0 0 1 1 0 0 forward_v I I I I #
coedge $-1 $183 $184 $185 $186 reversed $69 $-1 #
coedge $-1 $187 $71 $184 $188 forward $44 $-1 #
coedge $-1 $71 $187 $189 $190 reversed $44 $-1 #
coedge $-1 $191 $185 $71 $114 forward $180 $-1 #
edge $-1 $192 6.5429339595461364 $193 17.397932995035905 $113 $194 forward 7 unknown #
face $-1 $195 $196 $26 $-1 $197 reversed single #
loop $-1 $-1 $121 $72 #
plane-surface $-1 70.390331736197993 0 0 -1 0 0 0 0 1 forward_v I I I I #
coedge $-1 $198 $199 $200 $201 reversed $73 $-1 #
coedge $-1 $202 $75 $203 $204 reversed $47 $-1 #
coedge $-1 $75 $202 $199 $205 forward $47 $-1 #
coedge $-1 $206 $207 $75 $122 forward $116 $-1 #
edge $-1 $208 -17.397932995035909 $209 -6.5429339595461347 $121 $210 forward 7 unknown #
face $-1 $211 $212 $27 $-1 $213 forward single #
loop $-1 $-1 $214 $76 #
plane-surface $-1 25.603945308912117 10.157414397384294 196.27403958000053 0 1 0 0.52991927123019833 0 0.84804809178421925 forward_v I I I I #
coedge $-1 $215 $216 $217 $218 reversed $77 $-1 #
coedge $-1 $128 $79 $219 $220 reversed $50 $-1 #
coedge $-1 $79 $127 $215 $221 reversed $50 $-1 #
coedge $-1 $217 $222 $79 $130 forward $212 $-1 #
edge $-1 $223 -57.588359081741935 $224 -47.388244819793066 $129 $225 forward 7 unknown #
loop $-1 $-1 $136 $80 #
plane-surface $-1 -48.998441281683768 14.335390917110725 76.885266562118787 0.52991927123019833 0 0.84804809178421925 0.84804809178421925 0 -0.52991927123019833 forward_v I I I I #
loop $-1 $-1 $226 $52 #
coedge $-1 $134 $134 $135 $227 reversed $81 $-1 #
coedge $-1 $135 $135 $134 $227 forward $83 $-1 #
coedge $-1 $136 $136 $84 $137 forward $131 $-1 #
edge $-1 $228 0 $228 6.2831853071796004 $136 $229 forward 7 unknown #
loop $-1 $-1 $143 $85 #
plane-surface $-1 -48.998441281683768 14.335390917110725 76.885266562118787 0.52991927123019833 0 0.84804809178421925 0.84804809178421925 0 -0.52991927123019833 forward_v I I I I #
loop $-1 $-1 $230 $55 #
coedge $-1 $141 $141 $142 $231 reversed $86 $-1 #
coedge $-1 $142 $142 $141 $231 forward $88 $-1 #
coedge $-1 $143 $143 $89 $144 forward $138 $-1 #
edge $-1 $232 0 $232 6.2831853071796004 $143 $233 forward 7 unknown #
face $-1 $234 $235 $30 $-1 $236 reversed single #
loop $-1 $-1 $237 $90 #
plane-surface $-1 -153.13913059039038 1.6060373062613689 116.8528536867189 0 -1 0 0.5877852598018023 0 -0.80901698891910034 forward_v I I I I #
coedge $-1 $238 $239 $240 $241 reversed $91 $-1 #
coedge $-1 $150 $93 $242 $243 reversed $59 $-1 #
coedge $-1 $93 $149 $238 $244 reversed $59 $-1 #
coedge $-1 $240 $245 $93 $152 forward $246 $-1 #
edge $-1 $247 6.179233558997197 $248 14.021463462572108 $151 $249 forward 7 unknown #
loop $-1 $-1 $158 $94 #
plane-surface $-1 -70.390331736198007 -2.255328307415386 2.9589052262479214 -0.5877852598018023 0 0.80901698891910034 0.80901698891910034 0 0.5877852598018023 forward_v I I I I #
loop $-1 $-1 $250 $61 #
coedge $-1 $156 $156 $157 $251 reversed $95 $-1 #
coedge $-1 $157 $157 $156 $251 forward $97 $-1 #
coedge $-1 $158 $158 $98 $159 forward $153 $-1 #
edge $-1 $252 0 $252 6.2831853071796004 $158 $253 forward 7 unknown #
face $-1 $254 $255 $24 $-1 $256 reversed single #
loop $-1 $-1 $257 $99 #
plane-surface $-1 -70.390331736197993 0 0 1 0 0 0 0 -1 forward_v I I I I #
coedge $-1 $258 $171 $259 $260 forward $100 $-1 #
coedge $-1 $261 $102 $258 $262 forward $65 $-1 #
coedge $-1 $102 $261 $263 $264 forward $65 $-1 #
coedge $-1 $174 $173 $102 $167 reversed $175 $-1 #
edge $-1 $265 -29.36836647232693 $266 29.36836647232693 $166 $267 forward 7 unknown #
coedge $-1 $104 $103 $268 $269 forward $41 $-1 #
coedge $-1 $270 $271 $103 $170 reversed $255 $-1 #
edge $-1 $177 -70.390331736197993 $272 70.390331736197993 $169 $273 forward 7 unknown #
coedge $-1 $163 $274 $104 $172 reversed $100 $-1 #
edge $-1 $275 -70.390331736197993 $176 70.390331736197993 $171 $276 forward 7 unknown #
coedge $-1 $166 $105 $274 $277 forward $175 $-1 #
coedge $-1 $105 $166 $270 $278 reversed $175 $-1 #
loop $-1 $-1 $173 $254 #
vertex $-1 $106 $279 #
vertex $-1 $106 $280 #
straight-curve $-1 70.390331736197993 0 8.6566188768066183 0 1 0 I I #
face $-1 $281 $282 $25 $-1 $283 reversed single #
loop $-1 $-1 $185 $107 #
plane-surface $-1 70.390331736197993 0 0 -1 0 0 0 0 1 forward_v I I I I #
coedge $-1 $284 $285 $183 $286 forward $108 $-1 #
coedge $-1 $287 $110 $182 $286 reversed $69 $-1 #
coedge $-1 $110 $287 $111 $188 reversed $69 $-1 #
coedge $-1 $113 $288 $110 $186 forward $180 $-1 #
edge $-1 $289 -5.0783094384033092 $192 -2.0783094384033092 $185 $290 forward 7 unknown #
coedge $-1 $112 $111 $291 $292 reversed $44 $-1 #
edge $-1 $192 -70.390331736197993 $293 70.390331736197993 $184 $294 forward 7 unknown #
coedge $-1 $295 $296 $112 $190 forward $282 $-1 #
edge $-1 $193 -70.390331736197993 $297 70.390331736197993 $189 $298 forward 7 unknown #
coedge $-1 $288 $113 $296 $299 forward $180 $-1 #
vertex $-1 $114 $300 #
vertex $-1 $299 $301 #
straight-curve $-1 70.390331736197993 -11.970433477291021 -5.6566188768066183 0 -1 0 I I #
face $-1 $302 $303 $26 $-1 $304 reversed single #
loop $-1 $-1 $305 $115 #
plane-surface $-1 0 0 -8.6566188768066183 0 0 1 1 0 0 forward_v I I I I #
coedge $-1 $306 $118 $305 $307 reversed $73 $-1 #
coedge $-1 $118 $306 $120 $205 reversed $73 $-1 #
coedge $-1 $308 $309 $118 $201 forward $303 $-1 #
edge $-1 $310 -5.0783094384033092 $311 -2.0783094384033092 $200 $312 forward 7 unknown #
coedge $-1 $120 $119 $308 $313 reversed $47 $-1 #
coedge $-1 $314 $315 $119 $204 forward $316 $-1 #
edge $-1 $317 -70.390331736197993 $208 70.390331736197993 $203 $318 forward 7 unknown #
edge $-1 $311 -70.390331736197993 $209 70.390331736197993 $199 $319 forward 7 unknown #
coedge $-1 $320 $121 $306 $321 forward $116 $-1 #
coedge $-1 $121 $320 $314 $322 reversed $116 $-1 #
vertex $-1 $322 $323 #
vertex $-1 $122 $324 #
straight-curve $-1 70.390331736197993 11.970433477291023 -5.6566188768066183 0 -1 0 I I #
face $-1 $-1 $325 $27 $-1 $326 reversed single #
loop $-1 $-1 $129 $123 #
plane-surface $-1 0 0 8.6566188768066183 0 0 1 1 0 0 forward_v I I I I #
coedge $-1 $327 $328 $329 $330 reversed $124 $-1 #
coedge $-1 $331 $126 $128 $221 forward $77 $-1 #
coedge $-1 $126 $331 $327 $332 forward $77 $-1 #
coedge $-1 $329 $129 $126 $218 forward $212 $-1 #
edge $-1 $224 -11.345671978281795 $333 -2.9897189388289309 $217 $334 forward 7 unknown #
coedge $-1 $335 $336 $127 $220 forward $325 $-1 #
edge $-1 $337 -95.854139818477364 $223 -89.480400913193648 $219 $338 forward 7 unknown #
edge $-1 $224 128.75290896086975 $337 140.78066347239599 $128 $339 forward 7 unknown #
coedge $-1 $129 $329 $335 $340 forward $212 $-1 #
vertex $-1 $220 $341 #
vertex $-1 $130 $342 #
straight-curve $-1 12.801972654456058 18.513367436837157 8.6566188768066183 -1 0 0 I I #
coedge $-1 $226 $226 $-1 $343 reversed $133 $-1 #
edge $-1 $344 0 $344 6.2831853071796004 $134 $345 forward 7 unknown #
vertex $-1 $137 $346 #
ellipse-curve $-1 65.290274605223559 12.54482955151369 5.4697494241647728 0.52991927123019833 0 0.84804809178421925 0.42402404589210962 0 -0.26495963561509916 1 I I #
coedge $-1 $230 $230 $-1 $347 reversed $140 $-1 #
edge $-1 $348 0 $348 6.2831853071796004 $141 $349 forward 7 unknown #
vertex $-1 $144 $350 #
ellipse-curve $-1 65.290274605223559 16.125952282707775 5.4697494241647728 0.52991927123019833 0 0.84804809178421925 0.42402404589210962 0 -0.26495963561509916 1 I I #
face $-1 $-1 $246 $30 $-1 $351 forward single #
loop $-1 $-1 $352 $145 #
plane-surface $-1 -70.390331736197993 0 0 1 0 0 0 0 -1 forward_v I I I I #
coedge $-1 $353 $354 $355 $356 reversed $146 $-1 #
coedge $-1 $357 $148 $150 $244 forward $91 $-1 #
coedge $-1 $148 $357 $353 $358 forward $91 $-1 #
coedge $-1 $355 $151 $148 $241 forward $246 $-1 #
edge $-1 $248 -4.9890297673844479 $359 2.7337014599690619 $240 $360 forward 7 unknown #
coedge $-1 $361 $362 $149 $243 forward $235 $-1 #
edge $-1 $363 -55.467521617111522 $247 -49.769807966552833 $242 $364 forward 7 unknown #
edge $-1 $248 -9.6935293213714306 $363 -1.7500491998158137e-014 $150 $365 forward 7 unknown #
coedge $-1 $151 $355 $361 $366 forward $246 $-1 #
loop $-1 $-1 $355 $234 #
vertex $-1 $243 $367 #
vertex $-1 $152 $368 #
straight-curve $-1 -76.56956529519519 -6.1166939210921409 8.6566188768066183 1 0 0 I I #
coedge $-1 $250 $250 $-1 $369 reversed $155 $-1 #
edge $-1 $370 0 $370 6.2831853071796004 $156 $371 forward 7 unknown #
vertex $-1 $159 $372 #
ellipse-curve $-1 -66.469216784410534 -2.255328307415386 5.8077620515272734 -0.5877852598018023 0 0.80901698891910034 1.2135254833786506 0 0.88167788970270344 1 I I #
face $-1 $-1 $175 $24 $-1 $373 reversed single #
loop $-1 $-1 $270 $160 #
plane-surface $-1 0 29.36836647232693 0 0 -1 0 0 0 -1 forward_v I I I I #
coedge $-1 $374 $268 $271 $375 forward $161 $-1 #
coedge $-1 $274 $163 $164 $262 reversed $100 $-1 #
coedge $-1 $268 $374 $163 $260 reversed $161 $-1 #
edge $-1 $275 -8.6566188768066183 $376 8.6566188768066183 $259 $377 forward 7 unknown #
coedge $-1 $165 $164 $374 $378 forward $65 $-1 #
edge $-1 $266 -70.390331736197993 $376 70.390331736197993 $258 $379 forward 7 unknown #
coedge $-1 $271 $270 $165 $264 reversed $255 $-1 #
edge $-1 $380 -70.390331736197993 $265 70.390331736197993 $263 $381 forward 7 unknown #
vertex $-1 $167 $382 #
vertex $-1 $277 $383 #
straight-curve $-1 70.390331736197993 0 -8.6566188768066183 0 -1 0 I I #
coedge $-1 $257 $259 $168 $269 reversed $161 $-1 #
edge $-1 $272 -29.36836647232693 $275 29.36836647232693 $268 $384 forward 7 unknown #
coedge $-1 $263 $169 $174 $278 forward $255 $-1 #
coedge $-1 $169 $263 $257 $375 reversed $255 $-1 #
vertex $-1 $170 $385 #
straight-curve $-1 0 29.36836647232693 8.6566188768066183 -1 0 0 I I #
coedge $-1 $171 $258 $173 $277 reversed $100 $-1 #
vertex $-1 $269 $386 #
straight-curve $-1 0 -29.36836647232693 8.6566188768066183 1 0 0 I I #
edge $-1 $176 -8.6566188768066183 $266 8.6566188768066183 $173 $387 forward 7 unknown #
edge $-1 $177 -8.6566188768066183 $265 8.6566188768066183 $174 $388 forward 7 unknown #
point $-1 70.390331736197993 -29.36836647232693 8.6566188768066183 #
point $-1 70.390331736197993 29.36836647232693 8.6566188768066183 #
face $-1 $-1 $389 $25 $-1 $390 reversed single #
loop $-1 $-1 $189 $179 #
plane-surface $-1 0 -29.36836647232693 0 0 1 0 0 0 1 forward_v I I I I #
coedge $-1 $391 $182 $288 $392 forward $108 $-1 #
coedge $-1 $182 $391 $393 $394 forward $108 $-1 #
edge $-1 $395 -70.390331736197993 $289 70.390331736197993 $182 $396 forward 7 unknown #
coedge $-1 $184 $183 $397 $398 reversed $69 $-1 #
coedge $-1 $185 $191 $284 $392 reversed $180 $-1 #
vertex $-1 $392 $399 #
straight-curve $-1 70.390331736197993 -18.513367436837157 -3.5783094384033092 0 0 1 I I #
coedge $-1 $397 $400 $187 $292 forward $389 $-1 #
edge $-1 $297 -17.397932995035905 $293 -6.5429339595461364 $291 $401 forward 7 unknown #
vertex $-1 $292 $402 #
straight-curve $-1 0 -18.513367436837157 -5.6566188768066183 -1 0 0 I I #
coedge $-1 $403 $189 $400 $404 forward $282 $-1 #
coedge $-1 $189 $403 $191 $299 reversed $282 $-1 #
vertex $-1 $404 $405 #
straight-curve $-1 0 -29.36836647232693 -5.6566188768066183 -1 0 0 I I #
edge $-1 $193 5.6566188768066183 $406 8.6566188768066183 $191 $407 forward 7 unknown #
point $-1 70.390331736197993 -18.513367436837157 -5.6566188768066183 #
point $-1 70.390331736197993 -29.368366472326926 -5.6566188768066183 #
face $-1 $-1 $316 $26 $-1 $408 reversed single #
loop $-1 $-1 $308 $195 #
plane-surface $-1 -70.390331736197993 0 0 1 0 0 0 0 -1 forward_v I I I I #
coedge $-1 $409 $410 $198 $307 forward $196 $-1 #
coedge $-1 $199 $198 $206 $321 reversed $73 $-1 #
edge $-1 $411 -70.390331736197993 $310 70.390331736197993 $305 $412 forward 7 unknown #
coedge $-1 $413 $200 $202 $313 forward $303 $-1 #
coedge $-1 $200 $413 $409 $414 reversed $303 $-1 #
vertex $-1 $414 $415 #
vertex $-1 $313 $416 #
straight-curve $-1 -70.390331736197993 18.513367436837157 -3.5783094384033092 0 0 1 I I #
edge $-1 $311 6.5429339595461347 $317 17.397932995035909 $308 $417 forward 7 unknown #
coedge $-1 $418 $203 $207 $322 forward $316 $-1 #
coedge $-1 $203 $418 $413 $419 reversed $316 $-1 #
loop $-1 $-1 $203 $302 #
vertex $-1 $419 $420 #
straight-curve $-1 0 29.36836647232693 -5.6566188768066183 1 0 0 I I #
straight-curve $-1 0 18.513367436837157 -5.6566188768066183 1 0 0 I I #
coedge $-1 $207 $206 $410 $421 reversed $116 $-1 #
edge $-1 $209 2.0783094384033092 $411 5.0783094384033092 $206 $422 forward 7 unknown #
edge $-1 $208 5.6566188768066183 $423 8.6566188768066183 $207 $424 forward 7 unknown #
point $-1 70.390331736197993 29.368366472326933 -5.6566188768066183 #
point $-1 70.390331736197993 18.513367436837157 -5.6566188768066183 #
loop $-1 $-1 $219 $211 #
plane-surface $-1 70.390331736197993 0 0 -1 0 0 0 0 1 forward_v I I I I #
coedge $-1 $328 $214 $216 $332 reversed $124 $-1 #
coedge $-1 $214 $327 $425 $426 reversed $124 $-1 #
coedge $-1 $222 $217 $214 $330 forward $212 $-1 #
edge $-1 $333 47.388244819793066 $427 57.588359081741935 $329 $428 forward 7 unknown #
coedge $-1 $216 $215 $336 $429 reversed $77 $-1 #
edge $-1 $430 -140.78066347239599 $333 -128.75290896086975 $327 $431 forward 7 unknown #
vertex $-1 $218 $432 #
straight-curve $-1 60.190217474249131 7.1676954585553627 8.6566188768066112 0 -1 0 I I #
coedge $-1 $425 $219 $222 $340 reversed $325 $-1 #
coedge $-1 $219 $425 $331 $429 forward $325 $-1 #
vertex $-1 $220 $433 #
straight-curve $-1 70.390331736197993 18.513367436837157 98.137019790000267 0 0 1 I I #
straight-curve $-1 -48.998441281683768 18.513367436837157 76.885266562118787 0.84804809178421925 0 -0.52991927123019833 I I #
edge $-1 $427 10.157414397384294 $223 18.513367436837157 $335 $434 forward 7 unknown #
point $-1 70.390331736197993 18.513367436837157 8.6566188768066183 #
point $-1 60.190217474249124 18.513367436837157 8.6566188768066183 #
edge $-1 $435 1 $435 0 $226 $-1 forward 7 unknown #
vertex $-1 $227 $436 #
ellipse-curve $-1 64.76035533399336 12.54482955151369 4.6217013323805594 0.52991927123019833 0 0.84804809178421925 0.42402404589210962 0 -0.26495963561509916 1 I I #
point $-1 65.714298651115669 12.54482955151369 5.2047897885496797 #
edge $-1 $437 1 $437 0 $230 $-1 forward 7 unknown #
vertex $-1 $231 $438 #
ellipse-curve $-1 64.76035533399336 16.125952282707775 4.6217013323805594 0.52991927123019833 0 0.84804809178421925 0.42402404589210962 0 -0.26495963561509916 1 I I #
point $-1 65.714298651115669 16.125952282707775 5.2047897885496797 #
plane-surface $-1 0 0 8.6566188768066183 0 0 1 1 0 0 forward_v I I I I #
coedge $-1 $362 $361 $354 $439 forward $235 $-1 #
coedge $-1 $354 $237 $239 $358 reversed $146 $-1 #
coedge $-1 $237 $353 $352 $439 reversed $146 $-1 #
coedge $-1 $245 $240 $237 $356 forward $246 $-1 #
edge $-1 $359 -14.021463462572108 $440 -6.179233558997197 $355 $441 forward 7 unknown #
coedge $-1 $239 $238 $362 $442 reversed $91 $-1 #
edge $-1 $443 1.7500491998158137e-014 $359 9.6935293213714306 $353 $444 forward 7 unknown #
vertex $-1 $241 $445 #
straight-curve $-1 -62.548101832623075 -1.127664153707693 8.6566188768066183 0 1 0 I I #
coedge $-1 $352 $242 $245 $366 reversed $235 $-1 #
coedge $-1 $242 $352 $357 $442 forward $235 $-1 #
vertex $-1 $243 $446 #
straight-curve $-1 -70.390331736197993 -6.1166939210921409 58.426426843359451 0 0 1 I I #
straight-curve $-1 -70.390331736198007 -6.1166939210921409 2.9589052262479214 -0.80901698891910034 0 -0.5877852598018023 I I #
edge $-1 $440 -1.6060373062613689 $247 6.1166939210921409 $361 $447 forward 7 unknown #
point $-1 -70.390331736197993 -6.1166939210921409 8.6566188768066183 #
point $-1 -62.548101832623082 -6.1166939210921409 8.6566188768066183 #
edge $-1 $448 1 $448 0 $250 $-1 forward 7 unknown #
vertex $-1 $251 $449 #
ellipse-curve $-1 -63.403592060462394 -2.255328307415386 1.5882916888972916 -0.5877852598018023 0 0.80901698891910034 1.2135254833786506 0 0.88167788970270344 1 I I #
point $-1 -65.255691301031874 -2.255328307415386 6.6894399412299705 #
plane-surface $-1 70.390331736197993 0 0 -1 0 0 0 0 1 forward_v I I I I #
coedge $-1 $259 $257 $261 $378 reversed $161 $-1 #
edge $-1 $272 -8.6566188768066183 $380 8.6566188768066183 $271 $450 forward 7 unknown #
vertex $-1 $378 $451 #
straight-curve $-1 -70.390331736197993 -29.36836647232693 0 0 0 -1 I I #
edge $-1 $376 -29.36836647232693 $380 29.36836647232693 $374 $452 forward 7 unknown #
straight-curve $-1 0 -29.36836647232693 -8.6566188768066183 -1 0 0 I I #
vertex $-1 $264 $453 #
straight-curve $-1 0 29.36836647232693 -8.6566188768066183 1 0 0 I I #
point $-1 70.390331736197993 29.36836647232693 -8.6566188768066183 #
point $-1 70.390331736197993 -29.36836647232693 -8.6566188768066183 #
straight-curve $-1 -70.390331736197993 0 8.6566188768066183 0 -1 0 I I #
point $-1 -70.390331736197993 29.36836647232693 8.6566188768066183 #
point $-1 -70.390331736197993 -29.36836647232693 8.6566188768066183 #
straight-curve $-1 70.390331736197993 -29.36836647232693 0 0 0 -1 I I #
straight-curve $-1 70.390331736197993 29.36836647232693 0 0 0 -1 I I #
loop $-1 $-1 $397 $281 #
plane-surface $-1 -70.390331736197993 0 0 1 0 0 0 0 -1 forward_v I I I I #
coedge $-1 $285 $284 $403 $454 forward $108 $-1 #
edge $-1 $289 18.513367436837157 $406 29.36836647232693 $288 $455 forward 7 unknown #
coedge $-1 $400 $397 $285 $394 reversed $389 $-1 #
edge $-1 $456 -29.36836647232693 $395 -18.513367436837157 $393 $457 forward 7 unknown #
vertex $-1 $398 $458 #
straight-curve $-1 0 -18.513367436837157 -8.6566188768066183 1 0 0 I I #
coedge $-1 $393 $291 $287 $398 forward $389 $-1 #
edge $-1 $293 2.0783094384033092 $395 5.0783094384033092 $397 $459 forward 7 unknown #
point $-1 70.390331736197993 -18.513367436837157 -8.6566188768066183 #
coedge $-1 $291 $393 $295 $404 reversed $389 $-1 #
straight-curve $-1 -70.390331736197993 -11.970433477291021 -5.6566188768066183 0 1 0 I I #
point $-1 -70.390331736197993 -18.513367436837157 -5.6566188768066183 #
coedge $-1 $296 $295 $391 $454 reversed $282 $-1 #
edge $-1 $297 5.6566188768066183 $456 8.6566188768066183 $400 $460 forward 7 unknown #
point $-1 -70.390331736197993 -29.368366472326926 -5.6566188768066183 #
vertex $-1 $299 $461 #
straight-curve $-1 70.390331736197993 -29.36836647232693 0 0 0 -1 I I #
plane-surface $-1 0 29.36836647232693 0 0 -1 0 0 0 -1 forward_v I I I I #
coedge $-1 $462 $305 $309 $414 forward $196 $-1 #
coedge $-1 $305 $462 $320 $421 forward $196 $-1 #
vertex $-1 $307 $463 #
straight-curve $-1 0 18.513367436837157 -8.6566188768066183 -1 0 0 I I #
coedge $-1 $309 $308 $315 $419 forward $303 $-1 #
edge $-1 $310 18.513367436837157 $464 29.36836647232693 $309 $465 forward 7 unknown #
point $-1 -70.390331736197993 18.513367436837157 -8.6566188768066183 #
point $-1 -70.390331736197993 18.513367436837157 -5.6566188768066183 #
straight-curve $-1 -70.390331736197993 11.970433477291023 -5.6566188768066183 0 1 0 I I #
coedge $-1 $315 $314 $462 $466 reversed $316 $-1 #
edge $-1 $317 5.6566188768066183 $464 8.6566188768066183 $315 $467 forward 7 unknown #
point $-1 -70.390331736197993 29.368366472326933 -5.6566188768066183 #
edge $-1 $423 -29.36836647232693 $411 -18.513367436837157 $320 $468 forward 7 unknown #
straight-curve $-1 70.390331736197993 18.513367436837157 -3.5783094384033092 0 0 -1 I I #
vertex $-1 $421 $469 #
straight-curve $-1 70.390331736197993 29.36836647232693 0 0 0 -1 I I #
coedge $-1 $336 $335 $328 $426 forward $325 $-1 #
edge $-1 $427 89.480400913193648 $430 95.854139818477364 $425 $470 forward 7 unknown #
vertex $-1 $340 $471 #
straight-curve $-1 12.801972654456058 10.157414397384294 8.6566188768066183 1 0 0 I I #
edge $-1 $430 2.9897189388289309 $337 11.345671978281795 $336 $472 forward 7 unknown #
vertex $-1 $429 $473 #
straight-curve $-1 -48.998441281683768 10.157414397384294 76.885266562118787 -0.84804809178421925 0 0.52991927123019833 I I #
point $-1 60.190217474249124 10.157414397384294 8.6566188768066183 #
point $-1 70.390331736197979 18.513367436837157 2.2828799715229025 #
straight-curve $-1 70.390331736197993 0 8.6566188768066183 0 1 0 I I #
vertex $-1 $343 $474 #
point $-1 65.18437937988547 12.54482955151369 4.3567416967654609 #
vertex $-1 $347 $475 #
point $-1 65.18437937988547 16.125952282707775 4.3567416967654609 #
edge $-1 $440 49.769807966552833 $443 55.467521617111522 $352 $476 forward 7 unknown #
vertex $-1 $366 $477 #
straight-curve $-1 -76.56956529519519 1.6060373062613689 8.6566188768066183 -1 0 0 I I #
edge $-1 $443 -2.7337014599690619 $363 4.9890297673844479 $362 $478 forward 7 unknown #
vertex $-1 $442 $479 #
straight-curve $-1 -70.390331736198007 1.6060373062613689 2.9589052262479214 0.80901698891910034 0 0.5877852598018023 I I #
point $-1 -62.548101832623082 1.6060373062613689 8.6566188768066183 #
point $-1 -70.390331736197993 -6.1166939210921409 2.9589052262479316 #
straight-curve $-1 -70.390331736197993 0 8.6566188768066183 0 -1 0 I I #
vertex $-1 $369 $480 #
point $-1 -62.190066577083748 -2.255328307415386 2.4699695785999949 #
straight-curve $-1 -70.390331736197993 29.36836647232693 0 0 0 -1 I I #
point $-1 -70.390331736197993 -29.36836647232693 -8.6566188768066183 #
straight-curve $-1 -70.390331736197993 0 -8.6566188768066183 0 1 0 I I #
point $-1 -70.390331736197993 29.36836647232693 -8.6566188768066183 #
edge $-1 $406 -70.390331736197993 $456 70.390331736197993 $403 $481 forward 7 unknown #
straight-curve $-1 70.390331736197993 0 -8.6566188768066183 0 -1 0 I I #
vertex $-1 $394 $482 #
straight-curve $-1 -70.390331736197993 0 -8.6566188768066183 0 1 0 I I #
point $-1 -70.390331736197993 -18.513367436837157 -8.6566188768066183 #
straight-curve $-1 -70.390331736197993 -18.513367436837157 -3.5783094384033092 0 0 -1 I I #
straight-curve $-1 -70.390331736197993 -29.36836647232693 0 0 0 -1 I I #
point $-1 70.390331736197993 -29.36836647232693 -8.6566188768066183 #
coedge $-1 $410 $409 $418 $466 forward $196 $-1 #
point $-1 70.390331736197993 18.513367436837157 -8.6566188768066183 #
vertex $-1 $466 $483 #
straight-curve $-1 -70.390331736197993 0 -8.6566188768066183 0 1 0 I I #
edge $-1 $464 -70.390331736197993 $423 70.390331736197993 $418 $484 forward 7 unknown #
straight-curve $-1 -70.390331736197993 29.36836647232693 0 0 0 -1 I I #
straight-curve $-1 70.390331736197993 0 -8.6566188768066183 0 -1 0 I I #
point $-1 70.390331736197993 29.36836647232693 -8.6566188768066183 #
straight-curve $-1 70.390331736197993 10.157414397384294 98.137019790000267 0 0 -1 I I #
point $-1 70.390331736197993 10.157414397384294 8.6566188768066183 #
straight-curve $-1 70.390331736198007 7.1676954585553627 2.2828799715228882 0 1 0 I I #
point $-1 70.390331736197979 10.157414397384294 2.2828799715229025 #
point $-1 64.49539569837826 12.54482955151369 4.1976772864884504 #
point $-1 64.49539569837826 16.125952282707775 4.1976772864884504 #
straight-curve $-1 -70.390331736197993 1.6060373062613689 58.426426843359451 0 0 -1 I I #
point $-1 -70.390331736197993 1.6060373062613689 8.6566188768066183 #
straight-curve $-1 -70.390331736197993 -1.127664153707693 2.9589052262479307 0 -1 0 I I #
point $-1 -70.390331736197993 1.6060373062613689 2.9589052262479316 #
point $-1 -62.521914170759693 -2.255328307415386 0.37476620551864093 #
straight-curve $-1 0 -29.36836647232693 -8.6566188768066183 -1 0 0 I I #
point $-1 -70.390331736197993 -29.36836647232693 -8.6566188768066183 #
point $-1 -70.390331736197993 29.36836647232693 -8.6566188768066183 #
straight-curve $-1 0 29.36836647232693 -8.6566188768066183 1 0 0 I I #
End-of-ACIS-data 