500 0 11 0           
7 Unknown 11 ACIS 5.0 NT 24 Fri Mar 26 20:06:27 1999 
-1 9.9999999999999995e-007 1e-010 
body $-1 $11 $-1 $12 #
body $-1 $13 $-1 $14 #
body $-1 $15 $-1 $16 #
body $-1 $17 $-1 $18 #
body $-1 $19 $-1 $20 #
body $-1 $21 $-1 $22 #
body $-1 $23 $-1 $24 #
body $-1 $25 $-1 $26 #
body $-1 $27 $-1 $28 #
body $-1 $29 $-1 $30 #
body $-1 $31 $-1 $32 #
lump $-1 $-1 $33 $0 #
transform $-1 1 0 0 0 1 0 0 0 1 72.928250984221933 44.121068814997365 10.271980515826561 1 rotate no_reflect no_shear #
lump $-1 $-1 $34 $1 #
transform $-1 1 0 0 0 1 0 0 0 1 72.928250984221933 44.121068814997365 10.271980515826561 1 rotate no_reflect no_shear #
lump $-1 $-1 $35 $2 #
transform $-1 1 0 0 0 1 0 0 0 1 72.928250984221933 44.121068814997365 10.271980515826561 1 rotate no_reflect no_shear #
lump $-1 $-1 $36 $3 #
transform $-1 1 0 0 0 1 0 0 0 1 72.928250984221933 44.121068814997365 10.271980515826561 1 rotate no_reflect no_shear #
lump $-1 $-1 $37 $4 #
transform $-1 1 0 0 0 1 0 0 0 1 72.928250984221933 44.121068814997365 10.271980515826561 1 rotate no_reflect no_shear #
lump $-1 $-1 $38 $5 #
transform $-1 1 0 0 0 1 0 0 0 1 72.928250984221933 44.121068814997365 10.271980515826561 1 rotate no_reflect no_shear #
lump $-1 $-1 $39 $6 #
transform $-1 1 0 0 0 1 0 0 0 1 72.928250984221933 44.121068814997365 10.271980515826561 1 rotate no_reflect no_shear #
lump $-1 $-1 $40 $7 #
transform $-1 1 0 0 0 1 0 0 0 1 72.928250984221933 44.121068814997365 10.271980515826561 1 rotate no_reflect no_shear #
lump $-1 $-1 $41 $8 #
transform $-1 1 0 0 0 1 0 0 0 1 72.928250984221933 44.121068814997365 10.271980515826561 1 rotate no_reflect no_shear #
lump $-1 $-1 $42 $9 #
transform $-1 1 0 0 0 1 0 0 0 1 72.928250984221933 44.121068814997365 10.271980515826561 1 rotate no_reflect no_shear #
lump $-1 $-1 $43 $10 #
transform $-1 1 0 0 0 1 0 0 0 1 72.928250984221933 44.121068814997365 10.271980515826561 1 rotate no_reflect no_shear #
shell $-1 $-1 $-1 $44 $-1 $11 #
shell $-1 $-1 $-1 $45 $-1 $13 #
shell $-1 $-1 $-1 $46 $-1 $15 #
shell $-1 $-1 $-1 $47 $-1 $17 #
shell $-1 $-1 $-1 $48 $-1 $19 #
shell $-1 $-1 $-1 $49 $-1 $21 #
shell $-1 $-1 $-1 $50 $-1 $23 #
shell $-1 $-1 $-1 $51 $-1 $25 #
shell $-1 $-1 $-1 $52 $-1 $27 #
shell $-1 $-1 $-1 $53 $-1 $29 #
shell $-1 $-1 $-1 $54 $-1 $31 #
face $-1 $55 $56 $33 $-1 $57 forward single #
face $-1 $58 $59 $34 $-1 $60 reversed single #
face $-1 $61 $62 $35 $-1 $63 reversed single #
face $-1 $64 $65 $36 $-1 $66 reversed single #
face $-1 $67 $68 $37 $-1 $69 forward single #
face $-1 $70 $71 $38 $-1 $72 reversed single #
face $-1 $73 $74 $39 $-1 $75 forward single #
face $-1 $76 $77 $40 $-1 $78 reversed single #
face $-1 $79 $80 $41 $-1 $81 forward single #
face $-1 $82 $83 $42 $-1 $84 forward single #
face $-1 $85 $86 $43 $-1 $87 forward single #
face $-1 $88 $89 $33 $-1 $90 reversed single #
loop $-1 $-1 $91 $44 #
plane-surface $-1 0 0 10.271980515826561 0 0 1 1 0 0 forward_v I I I I #
face $-1 $92 $93 $34 $-1 $94 reversed single #
loop $-1 $-1 $95 $45 #
plane-surface $-1 -67.155831798307446 0 6.7090920196390815 0 0 1 1 0 0 forward_v I I I I #
face $-1 $96 $97 $35 $-1 $98 reversed single #
loop $-1 $-1 $99 $46 #
plane-surface $-1 67.155831798307446 0 6.7090920196390815 0 0 1 1 0 0 forward_v I I I I #
face $-1 $100 $101 $36 $-1 $102 reversed single #
loop $-1 $-1 $103 $47 #
plane-surface $-1 -9.1063319831430007 -165.04159032593634 83.090129103136505 -1 0 0 0 -0.82903758062907751 0.55919289150049634 forward_v I I I I #
face $-1 $104 $105 $37 $-1 $106 forward single #
loop $-1 $107 $108 $48 #
cone-surface $-1 -19.817097741721959 -38.012025362167371 3.7685339509246765 0 0.82903758062907751 -0.55919289150049634 2 0 0 1 I I 0 1 2 forward I I I I #
face $-1 $109 $110 $38 $-1 $111 reversed single #
loop $-1 $-1 $112 $49 #
plane-surface $-1 30.527863500300924 -165.04159032593634 83.090129103136505 -1 0 0 0 -0.82903758062907751 0.55919289150049634 forward_v I I I I #
face $-1 $113 $114 $39 $-1 $115 forward single #
loop $-1 $116 $117 $50 #
cone-surface $-1 19.817097741721966 -38.012025362167371 3.7685339509246765 0 0.82903758062907751 -0.55919289150049634 2 0 0 1 I I 0 1 2 forward I I I I #
face $-1 $118 $119 $40 $-1 $120 reversed single #
loop $-1 $-1 $121 $51 #
plane-surface $-1 48.233758188996518 112.98611194889835 159.25122388678187 1 0 0 0 -0.81915205242281985 -0.57357642473473569 forward_v I I I I #
face $-1 $122 $123 $41 $-1 $124 forward single #
loop $-1 $125 $126 $52 #
cone-surface $-1 50.863689073675801 40.791503679352097 6.165700178151547 0 -0.81915205242281985 -0.57357642473473569 1 0 0 1 I I 0 1 1 forward I I I I #
face $-1 $127 $128 $42 $-1 $129 forward single #
loop $-1 $130 $131 $53 #
cone-surface $-1 54.808585400694739 40.791503679352097 6.165700178151547 0 -0.81915205242281985 -0.57357642473473569 1 0 0 1 I I 0 1 1 forward I I I I #
face $-1 $132 $133 $43 $-1 $134 forward single #
loop $-1 $135 $136 $54 #
cone-surface $-1 58.753481727713677 40.791503679352097 6.165700178151547 0 -0.81915205242281985 -0.57357642473473569 1 0 0 1 I I 0 1 1 forward I I I I #
face $-1 $137 $138 $33 $-1 $139 reversed single #
loop $-1 $-1 $140 $55 #
plane-surface $-1 0 0 -10.271980515826561 0 0 1 1 0 0 forward_v I I I I #
coedge $-1 $141 $142 $143 $144 forward $56 $-1 #
face $-1 $145 $146 $34 $-1 $147 reversed single #
loop $-1 $-1 $148 $58 #
plane-surface $-1 -61.383412612392959 0 8.4905362677328231 -1 0 0 0 0 1 forward_v I I I I #
coedge $-1 $149 $150 $151 $152 forward $59 $-1 #
face $-1 $153 $154 $35 $-1 $155 forward single #
loop $-1 $-1 $156 $61 #
plane-surface $-1 61.383412612392959 0 8.4905362677328231 1 0 0 0 0 -1 forward_v I I I I #
coedge $-1 $157 $158 $159 $160 reversed $62 $-1 #
face $-1 $161 $162 $36 $-1 $163 reversed single #
loop $-1 $-1 $164 $64 #
plane-surface $-1 -19.817097741721959 -44.121068814997358 1.5282100232545446 0 -0.82903758062907751 0.55919289150049634 1 0 0 forward_v I I I I #
coedge $-1 $165 $166 $167 $168 reversed $65 $-1 #
face $-1 $-1 $169 $37 $-1 $170 forward single #
loop $-1 $171 $172 $67 #
cone-surface $-1 -19.817097741721959 -34.022818070142264 1.0777797408083014 0 0.82903758062907751 -0.55919289150049634 1 0 0 1 I I -0.70710678118654746 0.70710678118654746 1 forward I I I I #
loop $-1 $-1 $173 $48 #
coedge $-1 $108 $108 $174 $175 reversed $68 $-1 #
face $-1 $176 $177 $38 $-1 $178 reversed single #
loop $-1 $-1 $179 $70 #
plane-surface $-1 19.817097741721966 -44.121068814997358 1.5282100232545446 0 -0.82903758062907751 0.55919289150049634 1 0 0 forward_v I I I I #
coedge $-1 $180 $181 $182 $183 reversed $71 $-1 #
face $-1 $-1 $184 $39 $-1 $185 forward single #
loop $-1 $186 $187 $73 #
cone-surface $-1 19.817097741721966 -34.022818070142264 1.0777797408083014 0 0.82903758062907751 -0.55919289150049634 1 0 0 1 I I -0.70710678118654746 0.70710678118654746 1 forward I I I I #
loop $-1 $-1 $188 $50 #
coedge $-1 $117 $117 $189 $190 reversed $74 $-1 #
face $-1 $191 $192 $40 $-1 $193 forward single #
loop $-1 $-1 $194 $76 #
plane-surface $-1 54.808585400694739 -6.4925409977655022 75.591372963406897 0 0.81915205242281985 0.57357642473473569 1 0 0 forward_v I I I I #
coedge $-1 $195 $196 $197 $198 reversed $77 $-1 #
face $-1 $-1 $199 $41 $-1 $200 forward single #
loop $-1 $201 $202 $79 #
cone-surface $-1 50.863689073675801 39.490602622558605 5.2547994792125596 0 -0.81915205242281985 -0.57357642473473569 0.5 0 0 1 I I -0.70710678118654746 0.70710678118654746 0.5 forward I I I I #
loop $-1 $-1 $203 $52 #
coedge $-1 $126 $126 $204 $205 reversed $80 $-1 #
face $-1 $-1 $206 $42 $-1 $207 forward single #
loop $-1 $208 $209 $82 #
cone-surface $-1 54.808585400694739 39.490602622558605 5.2547994792125596 0 -0.81915205242281985 -0.57357642473473569 0.5 0 0 1 I I -0.70710678118654746 0.70710678118654746 0.5 forward I I I I #
loop $-1 $-1 $210 $53 #
coedge $-1 $131 $131 $211 $212 reversed $83 $-1 #
face $-1 $-1 $213 $43 $-1 $214 forward single #
loop $-1 $215 $216 $85 #
cone-surface $-1 58.753481727713677 39.490602622558605 5.2547994792125596 0 -0.81915205242281985 -0.57357642473473569 0.5 0 0 1 I I -0.70710678118654746 0.70710678118654746 0.5 forward I I I I #
loop $-1 $-1 $217 $54 #
coedge $-1 $136 $136 $218 $219 reversed $86 $-1 #
face $-1 $220 $221 $33 $-1 $222 reversed single #
loop $-1 $-1 $223 $88 #
plane-surface $-1 0 -44.121068814997365 0 0 1 0 0 0 1 forward_v I I I I #
coedge $-1 $224 $225 $226 $227 forward $89 $-1 #
coedge $-1 $228 $91 $229 $230 forward $56 $-1 #
coedge $-1 $91 $228 $231 $232 forward $56 $-1 #
coedge $-1 $233 $234 $91 $144 reversed $235 $-1 #
edge $-1 $236 -44.121068814997365 $237 44.121068814997365 $143 $238 forward 7 unknown #
face $-1 $239 $240 $34 $-1 $241 reversed single #
loop $-1 $-1 $242 $92 #
plane-surface $-1 0 44.121068814997365 0 0 -1 0 0 0 -1 forward_v I I I I #
coedge $-1 $151 $243 $244 $245 reversed $93 $-1 #
coedge $-1 $246 $95 $247 $248 reversed $59 $-1 #
coedge $-1 $95 $246 $249 $250 reversed $59 $-1 #
coedge $-1 $251 $148 $95 $152 reversed $93 $-1 #
edge $-1 $252 -44.121068814997365 $253 44.121068814997365 $151 $254 forward 7 unknown #
face $-1 $255 $256 $35 $-1 $257 reversed single #
loop $-1 $-1 $258 $96 #
plane-surface $-1 0 0 10.271980515826561 0 0 1 1 0 0 forward_v I I I I #
coedge $-1 $259 $260 $261 $262 reversed $97 $-1 #
coedge $-1 $261 $99 $263 $264 reversed $62 $-1 #
coedge $-1 $99 $261 $265 $266 reversed $62 $-1 #
coedge $-1 $267 $268 $99 $160 forward $269 $-1 #
edge $-1 $270 -44.121068814997365 $271 44.121068814997365 $159 $272 forward 7 unknown #
face $-1 $273 $274 $36 $-1 $275 forward single #
loop $-1 $-1 $276 $100 #
plane-surface $-1 -30.527863500300917 -165.04159032593634 83.090129103136505 1 0 0 0 0.82903758062907751 -0.55919289150049634 forward_v I I I I #
coedge $-1 $277 $278 $279 $280 reversed $101 $-1 #
coedge $-1 $166 $103 $281 $282 reversed $65 $-1 #
coedge $-1 $103 $165 $277 $283 reversed $65 $-1 #
coedge $-1 $279 $284 $103 $168 forward $274 $-1 #
edge $-1 $285 38.399726347970805 $286 44.297473830838747 $167 $287 forward 7 unknown #
loop $-1 $-1 $174 $104 #
plane-surface $-1 -19.817097741721959 -44.121068814997358 1.5282100232545446 0 -0.82903758062907751 0.55919289150049634 1 0 0 forward_v I I I I #
loop $-1 $-1 $288 $67 #
coedge $-1 $172 $172 $173 $289 reversed $105 $-1 #
coedge $-1 $173 $173 $172 $289 forward $107 $-1 #
coedge $-1 $174 $174 $108 $175 forward $169 $-1 #
edge $-1 $290 -1.4581901413394462e-016 $290 6.2831853071796004 $174 $291 forward 7 unknown #
face $-1 $292 $293 $38 $-1 $294 reversed single #
loop $-1 $-1 $295 $109 #
plane-surface $-1 9.1063319831430078 -165.04159032593634 83.090129103136505 1 0 0 0 0.82903758062907751 -0.55919289150049634 forward_v I I I I #
coedge $-1 $296 $297 $298 $299 reversed $110 $-1 #
coedge $-1 $181 $112 $300 $301 reversed $71 $-1 #
coedge $-1 $112 $180 $296 $302 reversed $71 $-1 #
coedge $-1 $298 $303 $112 $183 forward $304 $-1 #
edge $-1 $305 38.399726347970805 $306 44.297473830838747 $182 $307 forward 7 unknown #
loop $-1 $-1 $189 $113 #
plane-surface $-1 19.817097741721966 -44.121068814997358 1.5282100232545446 0 -0.82903758062907751 0.55919289150049634 1 0 0 forward_v I I I I #
loop $-1 $-1 $308 $73 #
coedge $-1 $187 $187 $188 $309 reversed $114 $-1 #
coedge $-1 $188 $188 $187 $309 forward $116 $-1 #
coedge $-1 $189 $189 $117 $190 forward $184 $-1 #
edge $-1 $310 -1.4581901413394462e-016 $310 6.2831853071796004 $189 $311 forward 7 unknown #
face $-1 $312 $313 $40 $-1 $314 forward single #
loop $-1 $-1 $197 $118 #
plane-surface $-1 0 0 10.271980515826561 0 0 1 1 0 0 forward_v I I I I #
coedge $-1 $315 $316 $317 $318 reversed $119 $-1 #
coedge $-1 $196 $121 $319 $320 reversed $77 $-1 #
coedge $-1 $121 $195 $315 $321 reversed $77 $-1 #
coedge $-1 $317 $322 $121 $198 forward $192 $-1 #
edge $-1 $323 12.371987159451812 $324 17.248467369578151 $197 $325 forward 7 unknown #
loop $-1 $-1 $204 $122 #
plane-surface $-1 54.808585400694739 -6.4925409977655022 75.591372963406897 0 0.81915205242281985 0.57357642473473569 1 0 0 forward_v I I I I #
loop $-1 $-1 $326 $79 #
coedge $-1 $202 $202 $203 $327 reversed $123 $-1 #
coedge $-1 $203 $203 $202 $327 forward $125 $-1 #
coedge $-1 $204 $204 $126 $205 forward $199 $-1 #
edge $-1 $328 2.1826595262450425e-015 $328 6.2831853071796022 $204 $329 forward 7 unknown #
loop $-1 $-1 $211 $127 #
plane-surface $-1 54.808585400694739 -6.4925409977655022 75.591372963406897 0 0.81915205242281985 0.57357642473473569 1 0 0 forward_v I I I I #
loop $-1 $-1 $330 $82 #
coedge $-1 $209 $209 $210 $331 reversed $128 $-1 #
coedge $-1 $210 $210 $209 $331 forward $130 $-1 #
coedge $-1 $211 $211 $131 $212 forward $206 $-1 #
edge $-1 $332 2.1826595262450425e-015 $332 6.2831853071796022 $211 $333 forward 7 unknown #
loop $-1 $-1 $218 $132 #
plane-surface $-1 54.808585400694739 -6.4925409977655022 75.591372963406897 0 0.81915205242281985 0.57357642473473569 1 0 0 forward_v I I I I #
loop $-1 $-1 $334 $85 #
coedge $-1 $216 $216 $217 $335 reversed $133 $-1 #
coedge $-1 $217 $217 $216 $335 forward $135 $-1 #
coedge $-1 $218 $218 $136 $219 forward $213 $-1 #
edge $-1 $336 2.1826595262450425e-015 $336 6.2831853071796022 $218 $337 forward 7 unknown #
face $-1 $338 $339 $33 $-1 $340 reversed single #
loop $-1 $-1 $341 $137 #
plane-surface $-1 -72.928250984221933 0 0 1 0 0 0 0 -1 forward_v I I I I #
coedge $-1 $342 $231 $343 $344 forward $138 $-1 #
coedge $-1 $345 $140 $342 $346 forward $89 $-1 #
coedge $-1 $140 $345 $347 $348 forward $89 $-1 #
coedge $-1 $234 $233 $140 $227 reversed $235 $-1 #
edge $-1 $349 -44.121068814997365 $350 44.121068814997365 $226 $351 forward 7 unknown #
coedge $-1 $142 $141 $352 $353 forward $56 $-1 #
coedge $-1 $354 $355 $141 $230 reversed $339 $-1 #
edge $-1 $237 -72.928250984221933 $356 72.928250984221933 $229 $357 forward 7 unknown #
coedge $-1 $223 $358 $142 $232 reversed $138 $-1 #
edge $-1 $359 -72.928250984221933 $236 72.928250984221933 $231 $360 forward 7 unknown #
coedge $-1 $226 $143 $358 $361 forward $235 $-1 #
coedge $-1 $143 $226 $354 $362 reversed $235 $-1 #
loop $-1 $-1 $233 $338 #
vertex $-1 $144 $363 #
vertex $-1 $144 $364 #
straight-curve $-1 72.928250984221933 0 10.271980515826561 0 1 0 I I #
face $-1 $365 $366 $34 $-1 $367 forward single #
loop $-1 $-1 $368 $145 #
plane-surface $-1 -72.928250984221933 0 0 1 0 0 0 0 -1 forward_v I I I I #
coedge $-1 $249 $369 $251 $370 forward $146 $-1 #
coedge $-1 $148 $251 $371 $372 reversed $93 $-1 #
coedge $-1 $373 $247 $148 $245 forward $374 $-1 #
edge $-1 $253 2.46382388577267 $375 6.0267123819601531 $244 $376 forward 7 unknown #
coedge $-1 $150 $149 $368 $377 reversed $59 $-1 #
coedge $-1 $244 $378 $149 $248 forward $374 $-1 #
edge $-1 $379 -39.35033508506821 $253 -27.805496713239236 $247 $380 forward 7 unknown #
coedge $-1 $381 $242 $150 $250 forward $146 $-1 #
edge $-1 $252 27.805496713239236 $382 39.35033508506821 $249 $383 forward 7 unknown #
coedge $-1 $243 $151 $242 $370 reversed $93 $-1 #
vertex $-1 $250 $384 #
vertex $-1 $248 $385 #
straight-curve $-1 -61.383412612392959 0 6.7090920196390815 0 -1 0 I I #
face $-1 $386 $387 $35 $-1 $388 reversed single #
loop $-1 $-1 $389 $153 #
plane-surface $-1 0 -44.121068814997365 0 0 1 0 0 0 1 forward_v I I I I #
coedge $-1 $390 $391 $392 $393 forward $154 $-1 #
coedge $-1 $392 $156 $389 $394 reversed $97 $-1 #
coedge $-1 $156 $392 $395 $396 reversed $97 $-1 #
coedge $-1 $158 $157 $156 $262 forward $62 $-1 #
edge $-1 $397 -44.121068814997365 $398 44.121068814997365 $156 $399 forward 7 unknown #
coedge $-1 $400 $389 $157 $264 forward $256 $-1 #
edge $-1 $397 27.805496713239236 $270 39.35033508506821 $263 $401 forward 7 unknown #
coedge $-1 $395 $402 $158 $266 forward $387 $-1 #
edge $-1 $271 -39.35033508506821 $398 -27.805496713239236 $265 $403 forward 7 unknown #
coedge $-1 $404 $159 $402 $405 reversed $269 $-1 #
coedge $-1 $159 $404 $400 $406 forward $269 $-1 #
loop $-1 $-1 $159 $386 #
vertex $-1 $264 $407 #
vertex $-1 $160 $408 #
straight-curve $-1 72.928250984221933 0 6.7090920196390815 0 1 0 I I #
face $-1 $-1 $409 $36 $-1 $410 reversed single #
loop $-1 $-1 $167 $161 #
plane-surface $-1 0 0 10.271980515826561 0 0 1 1 0 0 forward_v I I I I #
coedge $-1 $411 $412 $413 $414 reversed $162 $-1 #
coedge $-1 $415 $164 $166 $283 forward $101 $-1 #
coedge $-1 $164 $415 $411 $416 forward $101 $-1 #
coedge $-1 $413 $167 $164 $280 forward $274 $-1 #
edge $-1 $286 -0.80221688771797872 $417 20.619314629439938 $279 $418 forward 7 unknown #
coedge $-1 $419 $420 $165 $282 forward $409 $-1 #
edge $-1 $421 -40.016854528313715 $285 -31.273084035741689 $281 $422 forward 7 unknown #
edge $-1 $286 -10.546892803022516 $421 1.2625220606206639e-014 $166 $423 forward 7 unknown #
coedge $-1 $167 $413 $419 $424 forward $274 $-1 #
vertex $-1 $282 $425 #
vertex $-1 $168 $426 #
straight-curve $-1 -9.1063319831430007 -82.52079516296817 10.271980515826563 0 1 0 I I #
coedge $-1 $288 $288 $-1 $427 reversed $171 $-1 #
edge $-1 $428 0 $428 6.2831853071796004 $172 $429 forward 7 unknown #
vertex $-1 $175 $430 #
ellipse-curve $-1 -19.817097741721959 -41.172195073563394 5.9000952695405502 0 -0.82903758062907751 0.55919289150049634 2 0 0 1 I I #
face $-1 $-1 $304 $38 $-1 $431 forward single #
loop $-1 $-1 $432 $176 #
plane-surface $-1 0 -44.121068814997365 0 0 1 0 0 0 1 forward_v I I I I #
coedge $-1 $433 $434 $435 $436 reversed $177 $-1 #
coedge $-1 $437 $179 $181 $302 forward $110 $-1 #
coedge $-1 $179 $437 $433 $438 forward $110 $-1 #
coedge $-1 $435 $182 $179 $299 forward $304 $-1 #
edge $-1 $306 -20.619314629439941 $439 0.80221688771797517 $298 $440 forward 7 unknown #
coedge $-1 $441 $442 $180 $301 forward $293 $-1 #
edge $-1 $443 -40.016854528313715 $305 -31.273084035741689 $300 $444 forward 7 unknown #
edge $-1 $306 -10.546892803022516 $443 1.2625220606206639e-014 $181 $445 forward 7 unknown #
coedge $-1 $182 $435 $441 $446 forward $304 $-1 #
loop $-1 $-1 $435 $292 #
vertex $-1 $301 $447 #
vertex $-1 $183 $448 #
straight-curve $-1 30.527863500300924 -82.52079516296817 10.271980515826563 0 1 0 I I #
coedge $-1 $308 $308 $-1 $449 reversed $186 $-1 #
edge $-1 $450 0 $450 6.2831853071796004 $187 $451 forward 7 unknown #
vertex $-1 $190 $452 #
ellipse-curve $-1 19.817097741721966 -41.172195073563394 5.9000952695405502 0 -0.82903758062907751 0.55919289150049634 2 0 0 1 I I #
face $-1 $-1 $453 $40 $-1 $454 reversed single #
loop $-1 $-1 $455 $191 #
plane-surface $-1 61.383412612392959 0 8.4905362677328231 1 0 0 0 0 -1 forward_v I I I I #
coedge $-1 $456 $194 $196 $321 forward $119 $-1 #
coedge $-1 $194 $456 $455 $457 forward $119 $-1 #
coedge $-1 $458 $197 $194 $318 forward $192 $-1 #
edge $-1 $324 20.829465488649149 $459 33.97911991204559 $317 $460 forward 7 unknown #
coedge $-1 $461 $462 $195 $320 forward $453 $-1 #
edge $-1 $463 -76.317967129771176 $323 -69.35363142756438 $319 $464 forward 7 unknown #
edge $-1 $324 79.740253661556579 $463 88.242137629994744 $196 $465 forward 7 unknown #
coedge $-1 $197 $458 $461 $466 forward $192 $-1 #
vertex $-1 $320 $467 #
vertex $-1 $198 $468 #
straight-curve $-1 48.233758188996518 56.493055974449177 10.271980515826556 0 -1 0 I I #
coedge $-1 $326 $326 $-1 $469 reversed $201 $-1 #
edge $-1 $470 0 $470 6.2831853071796004 $202 $471 forward 7 unknown #
vertex $-1 $205 $472 #
ellipse-curve $-1 50.863689073675801 41.682828709934185 6.7898126647231694 0 0.81915205242281985 0.57357642473473569 1 0 0 1 I I #
coedge $-1 $330 $330 $-1 $473 reversed $208 $-1 #
edge $-1 $474 0 $474 6.2831853071796004 $209 $475 forward 7 unknown #
vertex $-1 $212 $476 #
ellipse-curve $-1 54.808585400694739 41.682828709934185 6.7898126647231694 0 0.81915205242281985 0.57357642473473569 1 0 0 1 I I #
coedge $-1 $334 $334 $-1 $477 reversed $215 $-1 #
edge $-1 $478 0 $478 6.2831853071796004 $216 $479 forward 7 unknown #
vertex $-1 $219 $480 #
ellipse-curve $-1 58.753481727713677 41.682828709934185 6.7898126647231694 0 0.81915205242281985 0.57357642473473569 1 0 0 1 I I #
face $-1 $-1 $235 $33 $-1 $481 reversed single #
loop $-1 $-1 $354 $220 #
plane-surface $-1 0 44.121068814997365 0 0 -1 0 0 0 -1 forward_v I I I I #
coedge $-1 $482 $352 $355 $483 forward $221 $-1 #
coedge $-1 $358 $223 $224 $346 reversed $138 $-1 #
coedge $-1 $352 $482 $223 $344 reversed $221 $-1 #
edge $-1 $359 -10.271980515826561 $484 10.271980515826561 $343 $485 forward 7 unknown #
coedge $-1 $225 $224 $482 $486 forward $89 $-1 #
edge $-1 $350 -72.928250984221933 $484 72.928250984221933 $342 $487 forward 7 unknown #
coedge $-1 $355 $354 $225 $348 reversed $339 $-1 #
edge $-1 $488 -72.928250984221933 $349 72.928250984221933 $347 $489 forward 7 unknown #
vertex $-1 $227 $490 #
vertex $-1 $361 $491 #
straight-curve $-1 72.928250984221933 0 -10.271980515826561 0 -1 0 I I #
coedge $-1 $341 $343 $228 $353 reversed $221 $-1 #
edge $-1 $356 -44.121068814997365 $359 44.121068814997365 $352 $492 forward 7 unknown #
coedge $-1 $347 $229 $234 $362 forward $339 $-1 #
coedge $-1 $229 $347 $341 $483 reversed $339 $-1 #
vertex $-1 $230 $493 #
straight-curve $-1 0 44.121068814997365 10.271980515826561 -1 0 0 I I #
coedge $-1 $231 $342 $233 $361 reversed $138 $-1 #
vertex $-1 $353 $494 #
straight-curve $-1 0 -44.121068814997365 10.271980515826561 1 0 0 I I #
edge $-1 $236 -10.271980515826561 $350 10.271980515826561 $233 $495 forward 7 unknown #
edge $-1 $237 -10.271980515826561 $349 10.271980515826561 $234 $496 forward 7 unknown #
point $-1 72.928250984221933 -44.121068814997365 10.271980515826561 #
point $-1 72.928250984221933 44.121068814997365 10.271980515826561 #
face $-1 $-1 $374 $34 $-1 $497 reversed single #
loop $-1 $-1 $371 $239 #
plane-surface $-1 0 0 10.271980515826561 0 0 1 1 0 0 forward_v I I I I #
coedge $-1 $498 $499 $246 $377 forward $240 $-1 #
coedge $-1 $242 $381 $500 $501 reversed $146 $-1 #
edge $-1 $502 -6.0267123819601531 $252 -2.46382388577267 $242 $503 forward 7 unknown #
coedge $-1 $500 $504 $243 $372 forward $366 $-1 #
edge $-1 $375 -44.121068814997365 $502 44.121068814997365 $371 $505 forward 7 unknown #
coedge $-1 $378 $244 $504 $506 reversed $374 $-1 #
loop $-1 $-1 $244 $365 #
vertex $-1 $245 $507 #
straight-curve $-1 -61.383412612392959 -44.121068814997365 4.2452681338664116 0 0 1 I I #
edge $-1 $382 -44.121068814997365 $379 44.121068814997365 $368 $508 forward 7 unknown #
coedge $-1 $247 $373 $498 $509 forward $374 $-1 #
vertex $-1 $377 $510 #
straight-curve $-1 -33.577915899153723 -44.121068814997365 6.7090920196390815 1 0 0 I I #
coedge $-1 $369 $249 $499 $511 reversed $146 $-1 #
vertex $-1 $377 $512 #
straight-curve $-1 -33.577915899153723 44.121068814997365 6.7090920196390815 -1 0 0 I I #
point $-1 -61.383412612392959 44.121068814997365 6.7090920196390815 #
point $-1 -61.383412612392959 -44.121068814997365 6.7090920196390815 #
face $-1 $-1 $269 $35 $-1 $513 reversed single #
loop $-1 $-1 $395 $255 #
plane-surface $-1 0 44.121068814997365 0 0 -1 0 0 0 -1 forward_v I I I I #
coedge $-1 $263 $514 $259 $394 forward $256 $-1 #
coedge $-1 $515 $258 $514 $516 forward $154 $-1 #
coedge $-1 $258 $515 $517 $518 forward $154 $-1 #
coedge $-1 $260 $259 $258 $393 reversed $97 $-1 #
edge $-1 $519 -44.121068814997365 $520 44.121068814997365 $258 $521 forward 7 unknown #
edge $-1 $520 -6.0267123819601531 $397 -2.46382388577267 $389 $522 forward 7 unknown #
coedge $-1 $517 $265 $260 $396 forward $387 $-1 #
edge $-1 $398 2.46382388577267 $519 6.0267123819601531 $395 $523 forward 7 unknown #
vertex $-1 $264 $524 #
vertex $-1 $266 $525 #
straight-curve $-1 61.383412612392959 0 6.7090920196390815 0 1 0 I I #
coedge $-1 $514 $263 $268 $406 reversed $256 $-1 #
straight-curve $-1 33.577915899153723 -44.121068814997365 6.7090920196390815 1 0 0 I I #
coedge $-1 $265 $517 $267 $405 forward $387 $-1 #
straight-curve $-1 33.577915899153723 44.121068814997365 6.7090920196390815 -1 0 0 I I #
coedge $-1 $268 $267 $515 $526 reversed $269 $-1 #
edge $-1 $527 -10.271980515826561 $271 -6.7090920196390815 $267 $528 forward 7 unknown #
edge $-1 $529 -10.271980515826561 $270 -6.7090920196390815 $268 $530 forward 7 unknown #
point $-1 72.928250984221933 -44.121068814997365 6.7090920196390815 #
point $-1 72.928250984221933 44.121068814997365 6.7090920196390815 #
loop $-1 $-1 $281 $273 #
plane-surface $-1 0 -44.121068814997365 0 0 1 0 0 0 1 forward_v I I I I #
coedge $-1 $412 $276 $278 $416 reversed $162 $-1 #
coedge $-1 $276 $411 $531 $532 reversed $162 $-1 #
coedge $-1 $284 $279 $276 $414 forward $274 $-1 #
edge $-1 $417 -44.297473830838747 $533 -38.399726347970805 $413 $534 forward 7 unknown #
coedge $-1 $278 $277 $420 $535 reversed $101 $-1 #
edge $-1 $536 -1.2625220606206639e-014 $417 10.546892803022516 $411 $537 forward 7 unknown #
vertex $-1 $280 $538 #
straight-curve $-1 -9.9085488708609795 -38.22332133212943 10.271980515826561 -1 0 0 I I #
coedge $-1 $531 $281 $284 $424 reversed $409 $-1 #
coedge $-1 $281 $531 $415 $535 forward $409 $-1 #
vertex $-1 $282 $539 #
straight-curve $-1 -9.1063319831430007 -44.121068814997365 41.545064551568252 0 0 1 I I #
straight-curve $-1 -9.1063319831430007 -44.121068814997358 1.5282100232545446 0 -0.55919289150049634 -0.82903758062907751 I I #
edge $-1 $533 -30.527863500300917 $285 -9.1063319831430007 $419 $540 forward 7 unknown #
point $-1 -9.1063319831430007 -44.121068814997365 10.271980515826561 #
point $-1 -9.1063319831430007 -38.223321332129423 10.271980515826561 #
edge $-1 $541 1 $541 0 $288 $-1 forward 7 unknown #
vertex $-1 $289 $542 #
ellipse-curve $-1 -19.817097741721959 -34.851855650771341 1.6369726323087979 0 -0.82903758062907751 0.55919289150049634 2 0 0 1 I I #
point $-1 -17.817097741721959 -41.172195073563401 5.9000952695405546 #
plane-surface $-1 0 0 10.271980515826561 0 0 1 1 0 0 forward_v I I I I #
coedge $-1 $442 $441 $434 $543 forward $293 $-1 #
coedge $-1 $434 $295 $297 $438 reversed $177 $-1 #
coedge $-1 $295 $433 $432 $543 reversed $177 $-1 #
coedge $-1 $303 $298 $295 $436 forward $304 $-1 #
edge $-1 $439 -44.297473830838747 $544 -38.399726347970805 $435 $545 forward 7 unknown #
coedge $-1 $297 $296 $442 $546 reversed $110 $-1 #
edge $-1 $547 -1.2625220606206639e-014 $439 10.546892803022516 $433 $548 forward 7 unknown #
vertex $-1 $299 $549 #
straight-curve $-1 9.908548870860983 -38.22332133212943 10.271980515826561 -1 0 0 I I #
coedge $-1 $432 $300 $303 $446 reversed $293 $-1 #
coedge $-1 $300 $432 $437 $546 forward $293 $-1 #
vertex $-1 $301 $550 #
straight-curve $-1 30.527863500300924 -44.121068814997365 41.545064551568252 0 0 1 I I #
straight-curve $-1 30.527863500300924 -44.121068814997358 1.5282100232545446 0 -0.55919289150049634 -0.82903758062907751 I I #
edge $-1 $544 9.1063319831430078 $305 30.527863500300924 $441 $551 forward 7 unknown #
point $-1 30.527863500300924 -44.121068814997365 10.271980515826561 #
point $-1 30.527863500300924 -38.223321332129423 10.271980515826561 #
edge $-1 $552 1 $552 0 $308 $-1 forward 7 unknown #
vertex $-1 $309 $553 #
ellipse-curve $-1 19.817097741721966 -34.851855650771341 1.6369726323087979 0 -0.82903758062907751 0.55919289150049634 2 0 0 1 I I #
point $-1 21.817097741721966 -41.172195073563401 5.9000952695405546 #
loop $-1 $-1 $319 $312 #
plane-surface $-1 0 44.121068814997365 0 0 -1 0 0 0 -1 forward_v I I I I #
coedge $-1 $554 $555 $316 $457 reversed $313 $-1 #
coedge $-1 $316 $315 $462 $556 reversed $119 $-1 #
edge $-1 $557 -88.242137629994744 $459 -79.740253661556579 $455 $558 forward 7 unknown #
coedge $-1 $322 $317 $555 $559 forward $192 $-1 #
vertex $-1 $559 $560 #
straight-curve $-1 27.404292700347369 39.244588604871026 10.271980515826563 1 0 0 I I #
coedge $-1 $561 $319 $322 $466 reversed $453 $-1 #
coedge $-1 $319 $561 $456 $556 forward $453 $-1 #
vertex $-1 $320 $562 #
straight-curve $-1 48.233758188996518 44.121068814997365 79.625611943390936 0 0 1 I I #
straight-curve $-1 48.233758188996518 -6.4925409977655022 75.591372963406897 0 0.57357642473473569 -0.81915205242281985 I I #
edge $-1 $563 -61.383412612392959 $323 -48.233758188996518 $461 $564 forward 7 unknown #
point $-1 48.233758188996518 44.121068814997365 10.271980515826561 #
point $-1 48.233758188996518 39.244588604871026 10.271980515826556 #
edge $-1 $565 1 $565 0 $326 $-1 forward 7 unknown #
vertex $-1 $327 $566 #
ellipse-curve $-1 50.863689073675801 39.900178648770016 5.5415876915799274 0 0.81915205242281985 0.57357642473473569 1 0 0 1 I I #
point $-1 51.863689073675801 41.682828709934185 6.7898126647231667 #
edge $-1 $567 1 $567 0 $330 $-1 forward 7 unknown #
vertex $-1 $331 $568 #
ellipse-curve $-1 54.808585400694739 39.900178648770016 5.5415876915799274 0 0.81915205242281985 0.57357642473473569 1 0 0 1 I I #
point $-1 55.808585400694739 41.682828709934185 6.7898126647231667 #
edge $-1 $569 1 $569 0 $334 $-1 forward 7 unknown #
vertex $-1 $335 $570 #
ellipse-curve $-1 58.753481727713677 39.900178648770016 5.5415876915799274 0 0.81915205242281985 0.57357642473473569 1 0 0 1 I I #
point $-1 59.753481727713677 41.682828709934185 6.7898126647231667 #
plane-surface $-1 72.928250984221933 0 0 -1 0 0 0 0 1 forward_v I I I I #
coedge $-1 $343 $341 $345 $486 reversed $221 $-1 #
edge $-1 $356 -10.271980515826561 $488 10.271980515826561 $355 $571 forward 7 unknown #
vertex $-1 $486 $572 #
straight-curve $-1 -72.928250984221933 -44.121068814997365 0 0 0 -1 I I #
edge $-1 $484 -44.121068814997365 $488 44.121068814997365 $482 $573 forward 7 unknown #
straight-curve $-1 0 -44.121068814997365 -10.271980515826561 -1 0 0 I I #
vertex $-1 $348 $574 #
straight-curve $-1 0 44.121068814997365 -10.271980515826561 1 0 0 I I #
point $-1 72.928250984221933 44.121068814997365 -10.271980515826561 #
point $-1 72.928250984221933 -44.121068814997365 -10.271980515826561 #
straight-curve $-1 -72.928250984221933 0 10.271980515826561 0 -1 0 I I #
point $-1 -72.928250984221933 44.121068814997365 10.271980515826561 #
point $-1 -72.928250984221933 -44.121068814997365 10.271980515826561 #
straight-curve $-1 72.928250984221933 -44.121068814997365 0 0 0 -1 I I #
straight-curve $-1 72.928250984221933 44.121068814997365 0 0 0 -1 I I #
plane-surface $-1 0 -44.121068814997365 0 0 1 0 0 0 1 forward_v I I I I #
coedge $-1 $575 $368 $378 $509 reversed $240 $-1 #
coedge $-1 $368 $575 $381 $511 forward $240 $-1 #
coedge $-1 $576 $371 $369 $501 forward $366 $-1 #
edge $-1 $502 61.383412612392959 $577 72.928250984221933 $369 $578 forward 7 unknown #
vertex $-1 $501 $579 #
straight-curve $-1 -61.383412612392959 44.121068814997365 4.2452681338664116 0 0 -1 I I #
coedge $-1 $371 $576 $373 $506 forward $366 $-1 #
straight-curve $-1 -61.383412612392959 0 10.271980515826561 0 1 0 I I #
edge $-1 $580 -72.928250984221933 $375 -61.383412612392959 $373 $581 forward 7 unknown #
point $-1 -61.383412612392959 -44.121068814997365 10.271980515826565 #
straight-curve $-1 -72.928250984221933 0 6.7090920196390815 0 -1 0 I I #
edge $-1 $580 -10.271980515826561 $379 -6.7090920196390815 $498 $582 forward 7 unknown #
point $-1 -72.928250984221933 -44.121068814997365 6.7090920196390815 #
edge $-1 $577 -10.271980515826561 $382 -6.7090920196390815 $381 $583 forward 7 unknown #
point $-1 -72.928250984221933 44.121068814997365 6.7090920196390815 #
plane-surface $-1 72.928250984221933 0 0 -1 0 0 0 0 1 forward_v I I I I #
coedge $-1 $389 $400 $390 $516 reversed $256 $-1 #
coedge $-1 $391 $390 $404 $526 forward $154 $-1 #
edge $-1 $520 61.383412612392959 $529 72.928250984221933 $514 $584 forward 7 unknown #
coedge $-1 $402 $395 $391 $518 reversed $387 $-1 #
edge $-1 $527 -72.928250984221933 $519 -61.383412612392959 $517 $585 forward 7 unknown #
vertex $-1 $396 $586 #
vertex $-1 $516 $587 #
straight-curve $-1 61.383412612392959 0 10.271980515826561 0 -1 0 I I #
straight-curve $-1 61.383412612392959 -44.121068814997365 4.2452681338664116 0 0 -1 I I #
straight-curve $-1 61.383412612392959 44.121068814997365 4.2452681338664116 0 0 1 I I #
point $-1 61.383412612392959 -44.121068814997365 6.7090920196390815 #
point $-1 61.383412612392959 44.121068814997365 6.7090920196390815 #
edge $-1 $529 -44.121068814997365 $527 44.121068814997365 $404 $588 forward 7 unknown #
vertex $-1 $526 $589 #
straight-curve $-1 72.928250984221933 44.121068814997365 0 0 0 -1 I I #
vertex $-1 $526 $590 #
straight-curve $-1 72.928250984221933 -44.121068814997365 0 0 0 -1 I I #
coedge $-1 $420 $419 $412 $532 forward $409 $-1 #
edge $-1 $533 31.273084035741689 $536 40.016854528313715 $531 $591 forward 7 unknown #
vertex $-1 $424 $592 #
straight-curve $-1 -30.527863500300917 -82.52079516296817 10.271980515826563 0 -1 0 I I #
edge $-1 $536 -20.619314629439938 $421 0.80221688771797872 $420 $593 forward 7 unknown #
vertex $-1 $535 $594 #
straight-curve $-1 -30.527863500300917 -44.121068814997358 1.5282100232545446 0 0.55919289150049634 0.82903758062907751 I I #
point $-1 -30.527863500300917 -38.223321332129423 10.271980515826561 #
point $-1 -9.1063319831430007 -44.121068814997365 1.5282100232545341 #
straight-curve $-1 0 -44.121068814997365 10.271980515826561 1 0 0 I I #
vertex $-1 $427 $595 #
point $-1 -17.817097741721959 -34.851855650771341 1.6369726323087979 #
edge $-1 $544 31.273084035741689 $547 40.016854528313715 $432 $596 forward 7 unknown #
vertex $-1 $446 $597 #
straight-curve $-1 9.1063319831430078 -82.52079516296817 10.271980515826563 0 -1 0 I I #
edge $-1 $547 -0.80221688771797517 $443 20.619314629439941 $442 $598 forward 7 unknown #
vertex $-1 $546 $599 #
straight-curve $-1 9.1063319831430078 -44.121068814997358 1.5282100232545446 0 0.55919289150049634 0.82903758062907751 I I #
point $-1 9.1063319831430078 -38.223321332129423 10.271980515826561 #
point $-1 30.527863500300924 -44.121068814997365 1.5282100232545341 #
straight-curve $-1 0 -44.121068814997365 10.271980515826561 1 0 0 I I #
vertex $-1 $449 $600 #
point $-1 21.817097741721966 -34.851855650771341 1.6369726323087979 #
coedge $-1 $555 $455 $561 $601 reversed $313 $-1 #
coedge $-1 $455 $554 $458 $559 reversed $313 $-1 #
edge $-1 $557 -33.97911991204559 $463 -20.829465488649149 $462 $602 forward 7 unknown #
vertex $-1 $601 $603 #
straight-curve $-1 61.383412612392959 -6.4925409977655022 75.591372963406897 0 -0.57357642473473569 0.81915205242281985 I I #
edge $-1 $459 39.244588604871026 $563 44.121068814997365 $458 $604 forward 7 unknown #
point $-1 61.383412612392959 39.244588604871026 10.271980515826556 #
coedge $-1 $462 $461 $554 $601 forward $453 $-1 #
point $-1 48.233758188996518 44.121068814997365 3.3076448136197598 #
vertex $-1 $466 $605 #
straight-curve $-1 0 44.121068814997365 10.271980515826561 -1 0 0 I I #
vertex $-1 $469 $606 #
point $-1 51.863689073675801 39.900178648770016 5.5415876915799274 #
vertex $-1 $473 $607 #
point $-1 55.808585400694739 39.900178648770016 5.5415876915799274 #
vertex $-1 $477 $608 #
point $-1 59.753481727713677 39.900178648770016 5.5415876915799274 #
straight-curve $-1 -72.928250984221933 44.121068814997365 0 0 0 -1 I I #
point $-1 -72.928250984221933 -44.121068814997365 -10.271980515826561 #
straight-curve $-1 -72.928250984221933 0 -10.271980515826561 0 1 0 I I #
point $-1 -72.928250984221933 44.121068814997365 -10.271980515826561 #
coedge $-1 $499 $498 $576 $609 reversed $240 $-1 #
coedge $-1 $504 $500 $575 $609 forward $366 $-1 #
vertex $-1 $501 $610 #
straight-curve $-1 0 44.121068814997365 10.271980515826561 -1 0 0 I I #
point $-1 -61.383412612392959 44.121068814997365 10.271980515826565 #
vertex $-1 $609 $611 #
straight-curve $-1 0 -44.121068814997365 10.271980515826561 1 0 0 I I #
straight-curve $-1 -72.928250984221933 -44.121068814997365 0 0 0 -1 I I #
straight-curve $-1 -72.928250984221933 44.121068814997365 0 0 0 -1 I I #
straight-curve $-1 0 -44.121068814997365 10.271980515826561 1 0 0 I I #
straight-curve $-1 0 44.121068814997365 10.271980515826561 -1 0 0 I I #
point $-1 61.383412612392959 44.121068814997365 10.271980515826565 #
point $-1 61.383412612392959 -44.121068814997365 10.271980515826565 #
straight-curve $-1 72.928250984221933 0 10.271980515826561 0 1 0 I I #
point $-1 72.928250984221933 44.121068814997365 10.271980515826561 #
point $-1 72.928250984221933 -44.121068814997365 10.271980515826561 #
straight-curve $-1 -30.527863500300917 -44.121068814997365 41.545064551568252 0 0 -1 I I #
point $-1 -30.527863500300917 -44.121068814997365 10.271980515826561 #
straight-curve $-1 -9.9085488708609795 -44.121068814997365 1.5282100232545255 1 0 0 I I #
point $-1 -30.527863500300917 -44.121068814997365 1.5282100232545341 #
point $-1 -19.817097741721959 -33.193780489513188 0.51858684930780508 #
straight-curve $-1 9.1063319831430078 -44.121068814997365 41.545064551568252 0 0 -1 I I #
point $-1 9.1063319831430078 -44.121068814997365 10.271980515826561 #
straight-curve $-1 9.908548870860983 -44.121068814997365 1.5282100232545255 1 0 0 I I #
point $-1 9.1063319831430078 -44.121068814997365 1.5282100232545341 #
point $-1 19.817097741721966 -33.193780489513188 0.51858684930780508 #
edge $-1 $563 69.353631427564366 $557 76.317967129771176 $561 $612 forward 7 unknown #
straight-curve $-1 27.404292700347369 44.121068814997365 3.3076448136197456 -1 0 0 I I #
point $-1 61.383412612392959 44.121068814997365 3.3076448136197598 #
straight-curve $-1 61.383412612392959 0 10.271980515826561 0 1 0 I I #
point $-1 61.383412612392959 44.121068814997365 10.271980515826565 #
point $-1 50.863689073675801 39.081026596347193 4.9680112668451919 #
point $-1 54.808585400694739 39.081026596347193 4.9680112668451919 #
point $-1 58.753481727713677 39.081026596347193 4.9680112668451919 #
edge $-1 $577 -44.121068814997365 $580 44.121068814997365 $575 $613 forward 7 unknown #
point $-1 -72.928250984221933 44.121068814997365 10.271980515826561 #
point $-1 -72.928250984221933 -44.121068814997365 10.271980515826561 #
straight-curve $-1 61.383412612392959 44.121068814997365 79.625611943390936 0 0 -1 I I #
straight-curve $-1 -72.928250984221933 0 10.271980515826561 0 -1 0 I I #
End-of-ACIS-data 