500 0 6 0           
7 Unknown 11 ACIS 5.0 NT 24 Fri Mar 26 02:25:38 1999 
-1 9.9999999999999995e-007 1e-010 
body $-1 $6 $-1 $7 #
body $-1 $8 $-1 $9 #
body $-1 $10 $-1 $11 #
body $-1 $12 $-1 $13 #
body $-1 $14 $-1 $15 #
body $-1 $16 $-1 $17 #
lump $-1 $-1 $18 $0 #
transform $-1 1 0 0 0 1 0 0 0 1 52.871486556596579 36.486279350069545 8.6752206118490207 1 rotate no_reflect no_shear #
lump $-1 $-1 $19 $1 #
transform $-1 1 0 0 0 1 0 0 0 1 52.871486556596579 36.486279350069545 8.6752206118490207 1 rotate no_reflect no_shear #
lump $-1 $-1 $20 $2 #
transform $-1 1 0 0 0 1 0 0 0 1 52.871486556596579 36.486279350069545 8.6752206118490207 1 rotate no_reflect no_shear #
lump $-1 $-1 $21 $3 #
transform $-1 1 0 0 0 1 0 0 0 1 52.871486556596579 36.486279350069545 8.6752206118490207 1 rotate no_reflect no_shear #
lump $-1 $-1 $22 $4 #
transform $-1 1 0 0 0 1 0 0 0 1 52.871486556596579 36.486279350069545 8.6752206118490207 1 rotate no_reflect no_shear #
lump $-1 $-1 $23 $5 #
transform $-1 1 0 0 0 1 0 0 0 1 52.871486556596579 36.486279350069545 8.6752206118490207 1 rotate no_reflect no_shear #
shell $-1 $-1 $-1 $24 $-1 $6 #
shell $-1 $-1 $-1 $25 $-1 $8 #
shell $-1 $-1 $-1 $26 $-1 $10 #
shell $-1 $-1 $-1 $27 $-1 $12 #
shell $-1 $-1 $-1 $28 $-1 $14 #
shell $-1 $-1 $-1 $29 $-1 $16 #
face $-1 $30 $31 $18 $-1 $32 forward single #
face $-1 $33 $34 $19 $-1 $35 forward single #
face $-1 $36 $37 $20 $-1 $38 reversed single #
face $-1 $39 $40 $21 $-1 $41 forward single #
face $-1 $42 $43 $22 $-1 $44 reversed single #
face $-1 $45 $46 $23 $-1 $47 forward single #
face $-1 $48 $49 $18 $-1 $50 reversed single #
loop $-1 $-1 $51 $24 #
plane-surface $-1 0 0 8.6752206118490207 0 0 1 1 0 0 forward_v I I I I #
face $-1 $52 $53 $19 $-1 $54 reversed single #
loop $-1 $-1 $55 $25 #
plane-surface $-1 -52.871486556596579 0 0 1 0 0 0 0 -1 forward_v I I I I #
face $-1 $56 $57 $20 $-1 $58 reversed single #
loop $-1 $-1 $59 $26 #
plane-surface $-1 28.169985391593457 -101.58815499866932 86.171224170215709 -1 0 0 0 -0.61566148304635926 0.78801074757464917 forward_v I I I I #
face $-1 $60 $61 $21 $-1 $62 forward single #
loop $-1 $63 $64 $27 #
cone-surface $-1 14.112952334447883 -30.997676834595477 3.5108202589207504 0 0.61566148304635926 -0.78801074757464917 1.5 0 0 1 I I 0 1 1.5 forward I I I I #
face $-1 $65 $66 $22 $-1 $67 reversed single #
loop $-1 $-1 $68 $28 #
plane-surface $-1 0.055919277302308501 44.084994464937758 131.09761788123083 1 0 0 0 -0.61566148304635926 -0.78801074757464917 forward_v I I I I #
face $-1 $69 $70 $23 $-1 $71 forward single #
loop $-1 $72 $73 $29 #
cone-surface $-1 14.112952334447883 30.997676834595488 3.5108202589207398 0 -0.61566148304635926 -0.78801074757464917 1.5 0 0 1 I I 0 1 1.5 forward I I I I #
face $-1 $74 $75 $18 $-1 $76 reversed single #
loop $-1 $-1 $77 $30 #
plane-surface $-1 0 0 -8.6752206118490207 0 0 1 1 0 0 forward_v I I I I #
coedge $-1 $78 $79 $80 $81 forward $31 $-1 #
face $-1 $82 $83 $19 $-1 $84 forward single #
loop $-1 $-1 $85 $33 #
plane-surface $-1 0 36.486279350069545 0 0 -1 0 0 0 -1 forward_v I I I I #
coedge $-1 $86 $87 $88 $89 forward $34 $-1 #
face $-1 $90 $91 $20 $-1 $92 reversed single #
loop $-1 $-1 $93 $36 #
plane-surface $-1 14.112952334447883 -36.486279350069537 2.8446248765223459 0 -0.61566148304635926 0.78801074757464917 1 0 0 forward_v I I I I #
coedge $-1 $94 $95 $96 $97 reversed $37 $-1 #
face $-1 $-1 $98 $21 $-1 $99 forward single #
loop $-1 $100 $101 $39 #
cone-surface $-1 14.112952334447883 -28.778739242545651 0.67070971297482274 0 0.61566148304635926 -0.78801074757464917 0.75 0 0 1 I I -0.70710678118654757 0.70710678118654757 0.75 forward I I I I #
loop $-1 $-1 $102 $27 #
coedge $-1 $64 $64 $103 $104 reversed $40 $-1 #
face $-1 $105 $106 $22 $-1 $107 reversed single #
loop $-1 $-1 $108 $42 #
plane-surface $-1 14.112952334447883 -21.016881183662029 47.771018587537469 0 0.61566148304635926 0.78801074757464917 1 0 0 forward_v I I I I #
coedge $-1 $109 $110 $111 $112 reversed $43 $-1 #
face $-1 $-1 $113 $23 $-1 $114 forward single #
loop $-1 $115 $116 $45 #
cone-surface $-1 14.112952334447883 28.778739242545662 0.67070971297481208 0 -0.61566148304635926 -0.78801074757464917 0.75 0 0 1 I I -0.70710678118654757 0.70710678118654757 0.75 forward I I I I #
loop $-1 $-1 $117 $29 #
coedge $-1 $73 $73 $118 $119 reversed $46 $-1 #
face $-1 $120 $121 $18 $-1 $122 reversed single #
loop $-1 $-1 $123 $48 #
plane-surface $-1 0 -36.486279350069545 0 0 1 0 0 0 1 forward_v I I I I #
coedge $-1 $124 $125 $126 $127 forward $49 $-1 #
coedge $-1 $128 $51 $129 $130 forward $31 $-1 #
coedge $-1 $51 $128 $131 $132 forward $31 $-1 #
coedge $-1 $133 $134 $51 $81 reversed $135 $-1 #
edge $-1 $136 -36.486279350069545 $137 36.486279350069545 $80 $138 forward 7 unknown #
face $-1 $139 $140 $19 $-1 $141 reversed single #
loop $-1 $-1 $88 $52 #
plane-surface $-1 -58.399765397835218 0 -4.4749915729153393 0 0 1 1 0 0 forward_v I I I I #
coedge $-1 $142 $143 $87 $144 forward $53 $-1 #
coedge $-1 $145 $55 $146 $147 reversed $34 $-1 #
coedge $-1 $55 $145 $85 $144 reversed $34 $-1 #
coedge $-1 $148 $149 $55 $89 reversed $83 $-1 #
edge $-1 $150 -36.486279350069545 $151 36.486279350069545 $88 $152 forward 7 unknown #
face $-1 $153 $154 $20 $-1 $155 reversed single #
loop $-1 $-1 $156 $56 #
plane-surface $-1 0.055919277302308501 -101.58815499866932 86.171224170215709 1 0 0 0 0.61566148304635926 -0.78801074757464917 forward_v I I I I #
coedge $-1 $157 $158 $159 $160 reversed $57 $-1 #
coedge $-1 $95 $59 $161 $162 reversed $37 $-1 #
coedge $-1 $59 $94 $157 $163 reversed $37 $-1 #
coedge $-1 $159 $164 $59 $97 forward $165 $-1 #
edge $-1 $166 14.307798149265118 $167 21.770620220683167 $96 $168 forward 7 unknown #
loop $-1 $-1 $103 $60 #
plane-surface $-1 14.112952334447883 -36.486279350069537 2.8446248765223459 0 -0.61566148304635926 0.78801074757464917 1 0 0 forward_v I I I I #
loop $-1 $-1 $169 $39 #
coedge $-1 $101 $101 $102 $170 reversed $61 $-1 #
coedge $-1 $102 $102 $101 $170 forward $63 $-1 #
coedge $-1 $103 $103 $64 $104 forward $98 $-1 #
edge $-1 $171 -1.997365067710532e-015 $171 6.2831853071795987 $103 $172 forward 7 unknown #
face $-1 $173 $174 $22 $-1 $175 forward single #
loop $-1 $-1 $176 $65 #
plane-surface $-1 28.169985391593457 44.084994464937758 131.09761788123083 -1 0 0 0 0.61566148304635926 0.78801074757464917 forward_v I I I I #
coedge $-1 $177 $178 $179 $180 reversed $66 $-1 #
coedge $-1 $110 $68 $181 $182 reversed $43 $-1 #
coedge $-1 $68 $109 $177 $183 reversed $43 $-1 #
coedge $-1 $179 $184 $68 $112 forward $174 $-1 #
edge $-1 $185 -14.443782117600666 $186 -6.9809600461826058 $111 $187 forward 7 unknown #
loop $-1 $-1 $118 $69 #
plane-surface $-1 14.112952334447883 -21.016881183662029 47.771018587537469 0 0.61566148304635926 0.78801074757464917 1 0 0 forward_v I I I I #
loop $-1 $-1 $188 $45 #
coedge $-1 $116 $116 $117 $189 reversed $70 $-1 #
coedge $-1 $117 $117 $116 $189 forward $72 $-1 #
coedge $-1 $118 $118 $73 $119 forward $113 $-1 #
edge $-1 $190 -1.8990390461887211e-016 $190 6.2831853071796004 $118 $191 forward 7 unknown #
face $-1 $192 $193 $18 $-1 $194 reversed single #
loop $-1 $-1 $195 $74 #
plane-surface $-1 -52.871486556596579 0 0 1 0 0 0 0 -1 forward_v I I I I #
coedge $-1 $196 $131 $197 $198 forward $75 $-1 #
coedge $-1 $199 $77 $196 $200 forward $49 $-1 #
coedge $-1 $77 $199 $201 $202 forward $49 $-1 #
coedge $-1 $134 $133 $77 $127 reversed $135 $-1 #
edge $-1 $203 -36.486279350069545 $204 36.486279350069545 $126 $205 forward 7 unknown #
coedge $-1 $79 $78 $206 $207 forward $31 $-1 #
coedge $-1 $208 $209 $78 $130 reversed $193 $-1 #
edge $-1 $137 -52.871486556596579 $210 52.871486556596579 $129 $211 forward 7 unknown #
coedge $-1 $123 $212 $79 $132 reversed $75 $-1 #
edge $-1 $213 -52.871486556596579 $136 52.871486556596579 $131 $214 forward 7 unknown #
coedge $-1 $126 $80 $212 $215 forward $135 $-1 #
coedge $-1 $80 $126 $208 $216 reversed $135 $-1 #
loop $-1 $-1 $133 $192 #
vertex $-1 $81 $217 #
vertex $-1 $81 $218 #
straight-curve $-1 52.871486556596579 0 8.6752206118490207 0 1 0 I I #
face $-1 $219 $220 $19 $-1 $221 reversed single #
loop $-1 $-1 $222 $82 #
plane-surface $-1 -63.928044239073856 0 -6.57510609238218 1 0 0 0 0 -1 forward_v I I I I #
coedge $-1 $223 $85 $224 $225 reversed $53 $-1 #
coedge $-1 $85 $223 $148 $226 reversed $53 $-1 #
edge $-1 $150 4.4749915729153393 $227 8.6752206118490207 $85 $228 forward 7 unknown #
coedge $-1 $87 $86 $229 $230 reversed $34 $-1 #
coedge $-1 $231 $232 $86 $147 forward $233 $-1 #
edge $-1 $234 -8.6752206118490207 $151 -4.4749915729153393 $146 $235 forward 7 unknown #
coedge $-1 $236 $88 $143 $226 forward $83 $-1 #
coedge $-1 $88 $236 $231 $237 forward $83 $-1 #
vertex $-1 $144 $238 #
vertex $-1 $237 $239 #
straight-curve $-1 -52.871486556596579 0 -4.4749915729153393 0 -1 0 I I #
face $-1 $-1 $165 $20 $-1 $240 forward single #
loop $-1 $-1 $241 $90 #
plane-surface $-1 0 -36.486279350069545 0 0 1 0 0 0 1 forward_v I I I I #
coedge $-1 $242 $243 $244 $245 reversed $91 $-1 #
coedge $-1 $246 $93 $95 $163 forward $57 $-1 #
coedge $-1 $93 $246 $242 $247 forward $57 $-1 #
coedge $-1 $244 $96 $93 $160 forward $165 $-1 #
edge $-1 $167 -21.113509224369515 $248 7.0005568899216328 $159 $249 forward 7 unknown #
coedge $-1 $250 $251 $94 $162 forward $154 $-1 #
edge $-1 $252 -40.240987208585516 $166 -34.410391473258834 $161 $253 forward 7 unknown #
edge $-1 $167 -9.4704572169697219 $252 9.1534652039358102e-015 $95 $254 forward 7 unknown #
coedge $-1 $96 $244 $250 $255 forward $165 $-1 #
loop $-1 $-1 $244 $153 #
vertex $-1 $162 $256 #
vertex $-1 $97 $257 #
straight-curve $-1 28.169985391593457 -50.794077499334662 8.6752206118490207 0 1 0 I I #
coedge $-1 $169 $169 $-1 $258 reversed $100 $-1 #
edge $-1 $259 0 $259 6.2831853071796004 $101 $260 forward 7 unknown #
vertex $-1 $104 $261 #
ellipse-curve $-1 14.112952334447883 -32.754868314360522 5.759922744185678 0 -0.61566148304635926 0.78801074757464917 1.5 0 0 1 I I #
face $-1 $-1 $262 $22 $-1 $263 reversed single #
loop $-1 $-1 $111 $105 #
plane-surface $-1 0 0 8.6752206118490207 0 0 1 1 0 0 forward_v I I I I #
coedge $-1 $264 $265 $266 $267 reversed $106 $-1 #
coedge $-1 $268 $108 $110 $183 forward $66 $-1 #
coedge $-1 $108 $268 $264 $269 forward $66 $-1 #
coedge $-1 $266 $111 $108 $180 forward $174 $-1 #
edge $-1 $186 -7.0005568899216328 $270 21.113509224369515 $179 $271 forward 7 unknown #
coedge $-1 $272 $273 $109 $182 forward $262 $-1 #
edge $-1 $274 -62.704184064093084 $185 -56.873588328766395 $181 $275 forward 7 unknown #
edge $-1 $186 63.502101483169341 $274 72.972558700139089 $110 $276 forward 7 unknown #
coedge $-1 $111 $266 $272 $277 forward $174 $-1 #
vertex $-1 $182 $278 #
vertex $-1 $112 $279 #
straight-curve $-1 0.055919277302308501 22.042497232468879 8.6752206118490207 0 -1 0 I I #
coedge $-1 $188 $188 $-1 $280 reversed $115 $-1 #
edge $-1 $281 0 $281 6.2831853071796004 $116 $282 forward 7 unknown #
vertex $-1 $119 $283 #
ellipse-curve $-1 14.112952334447883 32.754868314360529 5.759922744185662 0 0.61566148304635926 0.78801074757464917 1.5 0 0 1 I I #
face $-1 $-1 $135 $18 $-1 $284 reversed single #
loop $-1 $-1 $208 $120 #
plane-surface $-1 0 36.486279350069545 0 0 -1 0 0 0 -1 forward_v I I I I #
coedge $-1 $285 $206 $209 $286 forward $121 $-1 #
coedge $-1 $212 $123 $124 $200 reversed $75 $-1 #
coedge $-1 $206 $285 $123 $198 reversed $121 $-1 #
edge $-1 $213 -8.6752206118490207 $287 8.6752206118490207 $197 $288 forward 7 unknown #
coedge $-1 $125 $124 $285 $289 forward $49 $-1 #
edge $-1 $204 -52.871486556596579 $287 52.871486556596579 $196 $290 forward 7 unknown #
coedge $-1 $209 $208 $125 $202 reversed $193 $-1 #
edge $-1 $291 -52.871486556596579 $203 52.871486556596579 $201 $292 forward 7 unknown #
vertex $-1 $127 $293 #
vertex $-1 $215 $294 #
straight-curve $-1 52.871486556596579 0 -8.6752206118490207 0 -1 0 I I #
coedge $-1 $195 $197 $128 $207 reversed $121 $-1 #
edge $-1 $210 -36.486279350069545 $213 36.486279350069545 $206 $295 forward 7 unknown #
coedge $-1 $201 $129 $134 $216 forward $193 $-1 #
coedge $-1 $129 $201 $195 $286 reversed $193 $-1 #
vertex $-1 $130 $296 #
straight-curve $-1 0 36.486279350069545 8.6752206118490207 -1 0 0 I I #
coedge $-1 $131 $196 $133 $215 reversed $75 $-1 #
vertex $-1 $207 $297 #
straight-curve $-1 0 -36.486279350069545 8.6752206118490207 1 0 0 I I #
edge $-1 $136 -8.6752206118490207 $204 8.6752206118490207 $133 $298 forward 7 unknown #
edge $-1 $137 -8.6752206118490207 $203 8.6752206118490207 $134 $299 forward 7 unknown #
point $-1 52.871486556596579 -36.486279350069545 8.6752206118490207 #
point $-1 52.871486556596579 36.486279350069545 8.6752206118490207 #
face $-1 $-1 $233 $19 $-1 $300 reversed single #
loop $-1 $-1 $229 $139 #
plane-surface $-1 0 0 -8.6752206118490207 0 0 1 1 0 0 forward_v I I I I #
coedge $-1 $301 $302 $223 $303 forward $140 $-1 #
coedge $-1 $143 $142 $222 $303 reversed $53 $-1 #
coedge $-1 $229 $304 $142 $225 forward $220 $-1 #
edge $-1 $305 -63.928044239073856 $227 -52.871486556596579 $142 $306 forward 7 unknown #
edge $-1 $150 -5.5282788412386381 $307 5.5282788412386381 $143 $308 forward 7 unknown #
vertex $-1 $144 $309 #
straight-curve $-1 -52.871486556596579 36.486279350069545 0 0 0 -1 I I #
coedge $-1 $310 $224 $145 $230 forward $220 $-1 #
edge $-1 $227 -36.486279350069545 $234 36.486279350069545 $229 $311 forward 7 unknown #
coedge $-1 $312 $146 $149 $237 reversed $233 $-1 #
coedge $-1 $146 $312 $310 $313 reversed $233 $-1 #
loop $-1 $-1 $146 $219 #
vertex $-1 $313 $314 #
straight-curve $-1 -52.871486556596579 -36.486279350069545 0 0 0 1 I I #
coedge $-1 $149 $148 $302 $315 forward $83 $-1 #
edge $-1 $316 -5.5282788412386381 $151 5.5282788412386381 $231 $317 forward 7 unknown #
point $-1 -52.871486556596579 36.486279350069545 -4.4749915729153393 #
point $-1 -52.871486556596579 -36.486279350069545 -4.4749915729153393 #
plane-surface $-1 0 0 8.6752206118490207 0 0 1 1 0 0 forward_v I I I I #
coedge $-1 $251 $250 $243 $318 forward $154 $-1 #
coedge $-1 $243 $156 $158 $247 reversed $91 $-1 #
coedge $-1 $156 $242 $241 $318 reversed $91 $-1 #
coedge $-1 $164 $159 $156 $245 forward $165 $-1 #
edge $-1 $248 -21.770620220683167 $319 -14.307798149265118 $244 $320 forward 7 unknown #
coedge $-1 $158 $157 $251 $321 reversed $57 $-1 #
edge $-1 $322 -9.1534652039358102e-015 $248 9.4704572169697219 $242 $323 forward 7 unknown #
vertex $-1 $160 $324 #
straight-curve $-1 7.0564761672239413 -29.023457278651495 8.6752206118490207 -1 0 0 I I #
coedge $-1 $241 $161 $164 $255 reversed $154 $-1 #
coedge $-1 $161 $241 $246 $321 forward $154 $-1 #
vertex $-1 $162 $325 #
straight-curve $-1 28.169985391593457 -36.486279350069545 43.085612085107854 0 0 1 I I #
straight-curve $-1 28.169985391593457 -36.486279350069537 2.8446248765223459 0 -0.78801074757464917 -0.61566148304635926 I I #
edge $-1 $319 0.055919277302308501 $166 28.169985391593457 $250 $326 forward 7 unknown #
point $-1 28.169985391593457 -36.486279350069545 8.6752206118490207 #
point $-1 28.169985391593457 -29.023457278651495 8.6752206118490207 #
edge $-1 $327 1 $327 0 $169 $-1 forward 7 unknown #
vertex $-1 $170 $328 #
ellipse-curve $-1 14.112952334447883 -29.240485354830419 1.2617177736558096 0 -0.61566148304635926 0.78801074757464917 1.5 0 0 1 I I #
point $-1 15.612952334447883 -32.754868314360536 5.7599227441856913 #
loop $-1 $-1 $181 $173 #
plane-surface $-1 0 36.486279350069545 0 0 -1 0 0 0 -1 forward_v I I I I #
coedge $-1 $265 $176 $178 $269 reversed $106 $-1 #
coedge $-1 $176 $264 $329 $330 reversed $106 $-1 #
coedge $-1 $184 $179 $176 $267 forward $174 $-1 #
edge $-1 $270 6.9809600461826058 $331 14.443782117600666 $266 $332 forward 7 unknown #
coedge $-1 $178 $177 $273 $333 reversed $66 $-1 #
edge $-1 $334 -72.972558700139089 $270 -63.502101483169341 $264 $335 forward 7 unknown #
vertex $-1 $180 $336 #
straight-curve $-1 7.0564761672239413 29.023457278651492 8.6752206118490172 1 0 0 I I #
coedge $-1 $329 $181 $184 $277 reversed $262 $-1 #
coedge $-1 $181 $329 $268 $333 forward $262 $-1 #
vertex $-1 $182 $337 #
straight-curve $-1 0.055919277302308501 36.486279350069545 65.548808940615416 0 0 1 I I #
straight-curve $-1 0.055919277302308501 -21.016881183662029 47.771018587537469 0 0.78801074757464917 -0.61566148304635926 I I #
edge $-1 $331 -28.169985391593457 $185 -0.055919277302308501 $272 $338 forward 7 unknown #
point $-1 0.055919277302308501 36.486279350069545 8.6752206118490207 #
point $-1 0.055919277302308501 29.023457278651485 8.6752206118490207 #
edge $-1 $339 1 $339 0 $188 $-1 forward 7 unknown #
vertex $-1 $189 $340 #
ellipse-curve $-1 14.112952334447883 29.24048535483043 1.261717773655799 0 0.61566148304635926 0.78801074757464917 1.5 0 0 1 I I #
point $-1 15.612952334447883 32.754868314360543 5.7599227441856806 #
plane-surface $-1 52.871486556596579 0 0 -1 0 0 0 0 1 forward_v I I I I #
coedge $-1 $197 $195 $199 $289 reversed $121 $-1 #
edge $-1 $210 -8.6752206118490207 $291 8.6752206118490207 $209 $341 forward 7 unknown #
vertex $-1 $289 $342 #
straight-curve $-1 -52.871486556596579 -36.486279350069545 0 0 0 -1 I I #
edge $-1 $287 -36.486279350069545 $291 36.486279350069545 $285 $343 forward 7 unknown #
straight-curve $-1 0 -36.486279350069545 -8.6752206118490207 -1 0 0 I I #
vertex $-1 $202 $344 #
straight-curve $-1 0 36.486279350069545 -8.6752206118490207 1 0 0 I I #
point $-1 52.871486556596579 36.486279350069545 -8.6752206118490207 #
point $-1 52.871486556596579 -36.486279350069545 -8.6752206118490207 #
straight-curve $-1 -52.871486556596579 0 8.6752206118490207 0 -1 0 I I #
point $-1 -52.871486556596579 36.486279350069545 8.6752206118490207 #
point $-1 -52.871486556596579 -36.486279350069545 8.6752206118490207 #
straight-curve $-1 52.871486556596579 -36.486279350069545 0 0 0 -1 I I #
straight-curve $-1 52.871486556596579 36.486279350069545 0 0 0 -1 I I #
plane-surface $-1 0 -36.486279350069545 0 0 1 0 0 0 1 forward_v I I I I #
coedge $-1 $345 $222 $304 $346 reversed $140 $-1 #
coedge $-1 $222 $345 $236 $315 reversed $140 $-1 #
edge $-1 $307 -2.1001145194668407 $305 2.1001145194668407 $223 $347 forward 7 unknown #
coedge $-1 $224 $310 $301 $346 forward $220 $-1 #
vertex $-1 $225 $348 #
straight-curve $-1 0 36.486279350069545 -8.6752206118490207 1 0 0 I I #
vertex $-1 $226 $349 #
straight-curve $-1 -58.399765397835218 36.486279350069545 -4.4749915729153393 -1 0 0 I I #
point $-1 -52.871486556596579 36.486279350069545 -8.6752206118490207 #
coedge $-1 $304 $229 $232 $313 forward $220 $-1 #
straight-curve $-1 -52.871486556596579 0 -8.6752206118490207 0 -1 0 I I #
coedge $-1 $232 $231 $345 $350 forward $233 $-1 #
edge $-1 $234 -5.5282788412386381 $351 5.5282788412386381 $232 $352 forward 7 unknown #
point $-1 -52.871486556596579 -36.486279350069545 -8.6752206118490207 #
edge $-1 $307 -36.486279350069545 $316 36.486279350069545 $302 $353 forward 7 unknown #
vertex $-1 $315 $354 #
straight-curve $-1 -58.399765397835218 -36.486279350069545 -4.4749915729153393 1 0 0 I I #
edge $-1 $319 34.410391473258834 $322 40.240987208585516 $241 $355 forward 7 unknown #
vertex $-1 $255 $356 #
straight-curve $-1 0.055919277302308501 -50.794077499334662 8.6752206118490207 0 -1 0 I I #
edge $-1 $322 -7.0005568899216328 $252 21.113509224369515 $251 $357 forward 7 unknown #
vertex $-1 $321 $358 #
straight-curve $-1 0.055919277302308501 -36.486279350069537 2.8446248765223459 0 0.78801074757464917 0.61566148304635926 I I #
point $-1 0.055919277302308501 -29.023457278651495 8.6752206118490207 #
point $-1 28.169985391593457 -36.486279350069545 2.8446248765223401 #
straight-curve $-1 0 -36.486279350069545 8.6752206118490207 1 0 0 I I #
vertex $-1 $258 $359 #
point $-1 15.612952334447883 -29.240485354830419 1.2617177736558096 #
coedge $-1 $273 $272 $265 $330 forward $262 $-1 #
edge $-1 $331 56.873588328766395 $334 62.704184064093084 $329 $360 forward 7 unknown #
vertex $-1 $277 $361 #
straight-curve $-1 28.169985391593457 22.042497232468879 8.6752206118490207 0 1 0 I I #
edge $-1 $334 -21.113509224369515 $274 7.0005568899216328 $273 $362 forward 7 unknown #
vertex $-1 $333 $363 #
straight-curve $-1 28.169985391593457 -21.016881183662029 47.771018587537469 0 -0.78801074757464917 0.61566148304635926 I I #
point $-1 28.169985391593457 29.023457278651485 8.6752206118490207 #
point $-1 0.055919277302308501 36.486279350069545 2.8446248765223316 #
straight-curve $-1 0 36.486279350069545 8.6752206118490207 -1 0 0 I I #
vertex $-1 $280 $364 #
point $-1 15.612952334447883 29.24048535483043 1.261717773655799 #
straight-curve $-1 -52.871486556596579 36.486279350069545 0 0 0 -1 I I #
point $-1 -52.871486556596579 -36.486279350069545 -8.6752206118490207 #
straight-curve $-1 -52.871486556596579 0 -8.6752206118490207 0 1 0 I I #
point $-1 -52.871486556596579 36.486279350069545 -8.6752206118490207 #
coedge $-1 $302 $301 $312 $350 reversed $140 $-1 #
edge $-1 $351 -36.486279350069545 $305 36.486279350069545 $301 $365 forward 7 unknown #
straight-curve $-1 -63.928044239073856 36.486279350069545 -6.57510609238218 0 0 -1 I I #
point $-1 -63.928044239073856 36.486279350069545 -8.6752206118490207 #
point $-1 -63.928044239073856 36.486279350069545 -4.4749915729153393 #
edge $-1 $316 -2.1001145194668407 $351 2.1001145194668407 $345 $366 forward 7 unknown #
vertex $-1 $346 $367 #
straight-curve $-1 -58.399765397835218 -36.486279350069545 -8.6752206118490207 -1 0 0 I I #
straight-curve $-1 -63.928044239073856 0 -4.4749915729153393 0 -1 0 I I #
point $-1 -63.928044239073856 -36.486279350069545 -4.4749915729153393 #
straight-curve $-1 0.055919277302308501 -36.486279350069545 43.085612085107854 0 0 -1 I I #
point $-1 0.055919277302308501 -36.486279350069545 8.6752206118490207 #
straight-curve $-1 7.0564761672239413 -36.486279350069545 2.8446248765223352 1 0 0 I I #
point $-1 0.055919277302308501 -36.486279350069545 2.8446248765223401 #
point $-1 14.112952334447883 -28.316993130260883 0.079701652293835856 #
straight-curve $-1 28.169985391593457 36.486279350069545 65.548808940615416 0 0 -1 I I #
point $-1 28.169985391593457 36.486279350069545 8.6752206118490207 #
straight-curve $-1 7.0564761672239413 36.486279350069545 2.8446248765223281 -1 0 0 I I #
point $-1 28.169985391593457 36.486279350069545 2.8446248765223316 #
point $-1 14.112952334447883 28.316993130260894 0.079701652293825198 #
straight-curve $-1 -63.928044239073856 0 -8.6752206118490207 0 1 0 I I #
straight-curve $-1 -63.928044239073856 -36.486279350069545 -6.57510609238218 0 0 -1 I I #
point $-1 -63.928044239073856 -36.486279350069545 -8.6752206118490207 #
End-of-ACIS-data 