500 0 3 0           
7 Unknown 11 ACIS 5.0 NT 24 Fri Mar 26 20:04:47 1999 
-1 9.9999999999999995e-007 1e-010 
body $-1 $3 $-1 $4 #
body $-1 $5 $-1 $6 #
body $-1 $7 $-1 $8 #
lump $-1 $-1 $9 $0 #
transform $-1 1 0 0 0 1 0 0 0 1 79.287087618640697 50.765078039271096 22.409326297532054 1 rotate no_reflect no_shear #
lump $-1 $-1 $10 $1 #
transform $-1 1 0 0 0 1 0 0 0 1 79.287087618640697 50.765078039271096 22.409326297532054 1 rotate no_reflect no_shear #
lump $-1 $-1 $11 $2 #
transform $-1 1 0 0 0 1 0 0 0 1 79.287087618640697 50.765078039271096 22.409326297532054 1 rotate no_reflect no_shear #
shell $-1 $-1 $-1 $12 $-1 $3 #
shell $-1 $-1 $-1 $13 $-1 $5 #
shell $-1 $-1 $-1 $14 $-1 $7 #
face $-1 $15 $16 $9 $-1 $17 forward single #
face $-1 $18 $19 $10 $-1 $20 reversed single #
face $-1 $21 $22 $11 $-1 $23 forward single #
face $-1 $24 $25 $9 $-1 $26 reversed single #
loop $-1 $-1 $27 $12 #
plane-surface $-1 0 0 22.409326297532054 0 0 1 1 0 0 forward_v I I I I #
face $-1 $28 $29 $10 $-1 $30 reversed single #
loop $-1 $-1 $31 $13 #
plane-surface $-1 -52.969502210955667 -37.460844233031899 0 1 0 0 0 0 -1 forward_v I I I I #
face $-1 $32 $33 $11 $-1 $34 reversed single #
loop $-1 $-1 $35 $14 #
plane-surface $-1 0 38.665560094909843 -16.779057439319146 0 0 1 1 0 0 forward_v I I I I #
face $-1 $36 $37 $9 $-1 $38 reversed single #
loop $-1 $-1 $39 $15 #
plane-surface $-1 0 0 -22.409326297532054 0 0 1 1 0 0 forward_v I I I I #
coedge $-1 $40 $41 $42 $43 forward $16 $-1 #
face $-1 $44 $45 $10 $-1 $46 reversed single #
loop $-1 $-1 $47 $18 #
plane-surface $-1 -47.058766275664667 -24.156610426792703 0 0 -1 0 0 0 -1 forward_v I I I I #
coedge $-1 $48 $49 $50 $51 forward $19 $-1 #
face $-1 $52 $53 $11 $-1 $54 reversed single #
loop $-1 $-1 $55 $21 #
plane-surface $-1 0 26.56604215054859 -19.5941918684256 0 1 0 0 0 1 forward_v I I I I #
coedge $-1 $56 $57 $58 $59 reversed $22 $-1 #
face $-1 $60 $61 $9 $-1 $62 reversed single #
loop $-1 $-1 $63 $24 #
plane-surface $-1 0 -50.765078039271096 0 0 1 0 0 0 1 forward_v I I I I #
coedge $-1 $64 $65 $66 $67 forward $25 $-1 #
coedge $-1 $68 $27 $69 $70 forward $16 $-1 #
coedge $-1 $27 $68 $71 $72 forward $16 $-1 #
coedge $-1 $73 $74 $27 $43 reversed $75 $-1 #
edge $-1 $76 -50.765078039271096 $77 50.765078039271096 $42 $78 forward 7 unknown #
face $-1 $79 $80 $10 $-1 $81 forward single #
loop $-1 $-1 $82 $28 #
plane-surface $-1 -41.148030340373666 -37.460844233031899 0 -1 0 0 0 0 1 forward_v I I I I #
coedge $-1 $83 $84 $85 $86 forward $29 $-1 #
coedge $-1 $87 $31 $88 $89 reversed $19 $-1 #
coedge $-1 $31 $87 $90 $91 reversed $19 $-1 #
coedge $-1 $84 $83 $31 $51 reversed $29 $-1 #
edge $-1 $92 -22.409326297532054 $93 22.409326297532054 $50 $94 forward 7 unknown #
face $-1 $95 $96 $11 $-1 $97 reversed single #
loop $-1 $-1 $98 $32 #
plane-surface $-1 0 50.765078039271096 0 0 -1 0 0 0 -1 forward_v I I I I #
coedge $-1 $99 $100 $101 $102 reversed $33 $-1 #
coedge $-1 $103 $35 $98 $104 reversed $22 $-1 #
coedge $-1 $35 $103 $100 $105 forward $22 $-1 #
coedge $-1 $106 $107 $35 $59 forward $96 $-1 #
edge $-1 $108 -31.432297991816174 $109 -7.2332621030936686 $58 $110 forward 7 unknown #
face $-1 $111 $112 $9 $-1 $113 reversed single #
loop $-1 $-1 $114 $36 #
plane-surface $-1 -79.287087618640697 0 0 1 0 0 0 0 -1 forward_v I I I I #
coedge $-1 $115 $71 $116 $117 forward $37 $-1 #
coedge $-1 $118 $39 $115 $119 forward $25 $-1 #
coedge $-1 $39 $118 $120 $121 forward $25 $-1 #
coedge $-1 $74 $73 $39 $67 reversed $75 $-1 #
edge $-1 $122 -50.765078039271096 $123 50.765078039271096 $66 $124 forward 7 unknown #
coedge $-1 $41 $40 $125 $126 forward $16 $-1 #
coedge $-1 $127 $128 $40 $70 reversed $112 $-1 #
edge $-1 $77 -79.287087618640697 $129 79.287087618640697 $69 $130 forward 7 unknown #
coedge $-1 $63 $131 $41 $72 reversed $37 $-1 #
edge $-1 $132 -79.287087618640697 $76 79.287087618640697 $71 $133 forward 7 unknown #
coedge $-1 $66 $42 $131 $134 forward $75 $-1 #
coedge $-1 $42 $66 $127 $135 reversed $75 $-1 #
loop $-1 $-1 $73 $111 #
vertex $-1 $43 $136 #
vertex $-1 $43 $137 #
straight-curve $-1 79.287087618640697 0 22.409326297532054 0 1 0 I I #
face $-1 $138 $139 $10 $-1 $140 reversed single #
loop $-1 $-1 $141 $44 #
plane-surface $-1 0 0 22.409326297532054 0 0 1 1 0 0 forward_v I I I I #
coedge $-1 $142 $143 $144 $145 reversed $45 $-1 #
coedge $-1 $50 $47 $146 $147 reversed $29 $-1 #
coedge $-1 $47 $50 $148 $149 reversed $29 $-1 #
coedge $-1 $143 $142 $47 $86 reversed $45 $-1 #
edge $-1 $150 -22.409326297532054 $151 22.409326297532054 $85 $152 forward 7 unknown #
coedge $-1 $49 $48 $153 $154 reversed $19 $-1 #
coedge $-1 $146 $155 $48 $89 forward $139 $-1 #
edge $-1 $156 -32.03465592275515 $93 -5.4261883102767534 $88 $157 forward 7 unknown #
coedge $-1 $158 $148 $49 $91 forward $80 $-1 #
edge $-1 $92 5.4261883102767534 $159 32.03465592275515 $90 $160 forward 7 unknown #
vertex $-1 $91 $161 #
vertex $-1 $89 $162 #
straight-curve $-1 -52.969502210955667 -24.156610426792703 0 0 0 -1 I I #
face $-1 $163 $164 $11 $-1 $165 reversed single #
loop $-1 $-1 $58 $52 #
plane-surface $-1 79.287087618640697 0 0 -1 0 0 0 0 1 forward_v I I I I #
coedge $-1 $166 $167 $56 $104 forward $53 $-1 #
coedge $-1 $168 $55 $169 $170 reversed $33 $-1 #
coedge $-1 $55 $168 $57 $105 reversed $33 $-1 #
coedge $-1 $171 $172 $55 $102 forward $173 $-1 #
edge $-1 $174 -12.612230363319254 $175 -6.9819615051063462 $101 $176 forward 7 unknown #
coedge $-1 $57 $56 $171 $177 reversed $22 $-1 #
edge $-1 $178 -79.287087618640697 $108 79.287087618640697 $98 $179 forward 7 unknown #
edge $-1 $175 -79.287087618640697 $109 79.287087618640697 $100 $180 forward 7 unknown #
coedge $-1 $181 $58 $168 $182 forward $96 $-1 #
coedge $-1 $58 $181 $166 $183 reversed $96 $-1 #
vertex $-1 $183 $184 #
vertex $-1 $59 $185 #
straight-curve $-1 79.287087618640697 19.332780047454921 -16.779057439319146 0 -1 0 I I #
face $-1 $-1 $75 $9 $-1 $186 reversed single #
loop $-1 $-1 $127 $60 #
plane-surface $-1 0 50.765078039271096 0 0 -1 0 0 0 -1 forward_v I I I I #
coedge $-1 $187 $125 $128 $188 forward $61 $-1 #
coedge $-1 $131 $63 $64 $119 reversed $37 $-1 #
coedge $-1 $125 $187 $63 $117 reversed $61 $-1 #
edge $-1 $132 -22.409326297532054 $189 22.409326297532054 $116 $190 forward 7 unknown #
coedge $-1 $65 $64 $187 $191 forward $25 $-1 #
edge $-1 $123 -79.287087618640697 $189 79.287087618640697 $115 $192 forward 7 unknown #
coedge $-1 $128 $127 $65 $121 reversed $112 $-1 #
edge $-1 $193 -79.287087618640697 $122 79.287087618640697 $120 $194 forward 7 unknown #
vertex $-1 $67 $195 #
vertex $-1 $134 $196 #
straight-curve $-1 79.287087618640697 0 -22.409326297532054 0 -1 0 I I #
coedge $-1 $114 $116 $68 $126 reversed $61 $-1 #
edge $-1 $129 -50.765078039271096 $132 50.765078039271096 $125 $197 forward 7 unknown #
coedge $-1 $120 $69 $74 $135 forward $112 $-1 #
coedge $-1 $69 $120 $114 $188 reversed $112 $-1 #
vertex $-1 $70 $198 #
straight-curve $-1 0 50.765078039271096 22.409326297532054 -1 0 0 I I #
coedge $-1 $71 $115 $73 $134 reversed $37 $-1 #
vertex $-1 $126 $199 #
straight-curve $-1 0 -50.765078039271096 22.409326297532054 1 0 0 I I #
edge $-1 $76 -22.409326297532054 $123 22.409326297532054 $73 $200 forward 7 unknown #
edge $-1 $77 -22.409326297532054 $122 22.409326297532054 $74 $201 forward 7 unknown #
point $-1 79.287087618640697 -50.765078039271096 22.409326297532054 #
point $-1 79.287087618640697 50.765078039271096 22.409326297532054 #
face $-1 $-1 $202 $10 $-1 $203 reversed single #
loop $-1 $-1 $204 $79 #
plane-surface $-1 0 0 -22.409326297532054 0 0 1 1 0 0 forward_v I I I I #
coedge $-1 $148 $158 $143 $205 forward $80 $-1 #
coedge $-1 $85 $82 $204 $206 reversed $45 $-1 #
coedge $-1 $82 $85 $141 $205 reversed $45 $-1 #
coedge $-1 $207 $208 $82 $145 forward $202 $-1 #
edge $-1 $209 -22.409326297532054 $210 22.409326297532054 $144 $211 forward 7 unknown #
coedge $-1 $204 $88 $83 $147 forward $139 $-1 #
edge $-1 $93 -29.440119073123334 $151 -17.618647202541332 $146 $212 forward 7 unknown #
coedge $-1 $90 $141 $84 $149 forward $80 $-1 #
edge $-1 $150 17.618647202541332 $92 29.440119073123334 $148 $213 forward 7 unknown #
vertex $-1 $149 $214 #
vertex $-1 $147 $215 #
straight-curve $-1 -41.148030340373666 -24.156610426792703 0 0 0 -1 I I #
coedge $-1 $208 $207 $87 $154 forward $202 $-1 #
edge $-1 $159 -22.409326297532054 $156 22.409326297532054 $153 $216 forward 7 unknown #
coedge $-1 $88 $204 $208 $217 forward $139 $-1 #
vertex $-1 $89 $218 #
straight-curve $-1 -52.969502210955667 -18.73042211651595 -22.409326297532054 0 1 0 I I #
coedge $-1 $141 $90 $207 $219 forward $80 $-1 #
vertex $-1 $219 $220 #
straight-curve $-1 -52.969502210955667 -18.73042211651595 22.409326297532054 0 -1 0 I I #
point $-1 -52.969502210955667 -24.156610426792703 22.409326297532054 #
point $-1 -52.969502210955667 -24.156610426792703 -22.409326297532054 #
face $-1 $-1 $173 $11 $-1 $221 reversed single #
loop $-1 $-1 $169 $95 #
plane-surface $-1 0 0 -22.409326297532054 0 0 1 1 0 0 forward_v I I I I #
coedge $-1 $222 $98 $107 $183 forward $53 $-1 #
coedge $-1 $98 $222 $223 $224 reversed $53 $-1 #
coedge $-1 $100 $99 $106 $182 reversed $33 $-1 #
coedge $-1 $225 $226 $99 $170 forward $164 $-1 #
edge $-1 $227 -79.287087618640697 $174 79.287087618640697 $169 $228 forward 7 unknown #
coedge $-1 $223 $101 $103 $177 forward $173 $-1 #
coedge $-1 $101 $223 $225 $229 reversed $173 $-1 #
loop $-1 $-1 $171 $163 #
vertex $-1 $229 $230 #
vertex $-1 $177 $231 #
straight-curve $-1 -79.287087618640697 26.56604215054859 -9.7970959342128001 0 0 1 I I #
edge $-1 $175 7.2332621030936686 $178 31.432297991816174 $171 $232 forward 7 unknown #
vertex $-1 $224 $233 #
straight-curve $-1 0 50.765078039271096 -16.779057439319146 1 0 0 I I #
straight-curve $-1 0 26.56604215054859 -16.779057439319146 1 0 0 I I #
coedge $-1 $107 $106 $226 $234 reversed $96 $-1 #
edge $-1 $109 6.9819615051063462 $227 12.612230363319254 $106 $235 forward 7 unknown #
edge $-1 $108 16.779057439319146 $236 22.409326297532054 $107 $237 forward 7 unknown #
point $-1 79.287087618640697 50.765078039271096 -16.779057439319146 #
point $-1 79.287087618640697 26.56604215054859 -16.779057439319146 #
plane-surface $-1 79.287087618640697 0 0 -1 0 0 0 0 1 forward_v I I I I #
coedge $-1 $116 $114 $118 $191 reversed $61 $-1 #
edge $-1 $129 -22.409326297532054 $193 22.409326297532054 $128 $238 forward 7 unknown #
vertex $-1 $191 $239 #
straight-curve $-1 -79.287087618640697 -50.765078039271096 0 0 0 -1 I I #
edge $-1 $189 -50.765078039271096 $193 50.765078039271096 $187 $240 forward 7 unknown #
straight-curve $-1 0 -50.765078039271096 -22.409326297532054 -1 0 0 I I #
vertex $-1 $121 $241 #
straight-curve $-1 0 50.765078039271096 -22.409326297532054 1 0 0 I I #
point $-1 79.287087618640697 50.765078039271096 -22.409326297532054 #
point $-1 79.287087618640697 -50.765078039271096 -22.409326297532054 #
straight-curve $-1 -79.287087618640697 0 22.409326297532054 0 -1 0 I I #
point $-1 -79.287087618640697 50.765078039271096 22.409326297532054 #
point $-1 -79.287087618640697 -50.765078039271096 22.409326297532054 #
straight-curve $-1 79.287087618640697 -50.765078039271096 0 0 0 -1 I I #
straight-curve $-1 79.287087618640697 50.765078039271096 0 0 0 -1 I I #
loop $-1 $-1 $144 $138 #
plane-surface $-1 0 -50.765078039271096 0 0 1 0 0 0 1 forward_v I I I I #
coedge $-1 $155 $146 $142 $206 forward $139 $-1 #
edge $-1 $210 -32.03465592275515 $150 -5.4261883102767534 $141 $242 forward 7 unknown #
edge $-1 $151 5.4261883102767534 $209 32.03465592275515 $204 $243 forward 7 unknown #
coedge $-1 $153 $144 $158 $219 reversed $202 $-1 #
coedge $-1 $144 $153 $155 $217 reversed $202 $-1 #
vertex $-1 $217 $244 #
vertex $-1 $145 $245 #
straight-curve $-1 -41.148030340373666 -50.765078039271096 0 0 0 1 I I #
straight-curve $-1 -23.529383137832333 -24.156610426792703 -22.409326297532054 1 0 0 I I #
straight-curve $-1 -23.529383137832333 -24.156610426792703 22.409326297532054 -1 0 0 I I #
point $-1 -41.148030340373666 -24.156610426792703 22.409326297532054 #
point $-1 -41.148030340373666 -24.156610426792703 -22.409326297532054 #
straight-curve $-1 -52.969502210955667 -50.765078039271096 0 0 0 -1 I I #
edge $-1 $209 41.148030340373666 $156 52.969502210955667 $208 $246 forward 7 unknown #
point $-1 -52.969502210955667 -50.765078039271096 -22.409326297532054 #
edge $-1 $159 -52.969502210955667 $210 -41.148030340373666 $207 $247 forward 7 unknown #
point $-1 -52.969502210955667 -50.765078039271096 22.409326297532054 #
plane-surface $-1 -79.287087618640697 0 0 1 0 0 0 0 -1 forward_v I I I I #
coedge $-1 $167 $166 $248 $249 reversed $53 $-1 #
coedge $-1 $172 $171 $167 $224 forward $173 $-1 #
edge $-1 $178 16.779057439319146 $250 22.409326297532054 $167 $251 forward 7 unknown #
coedge $-1 $248 $169 $172 $229 forward $164 $-1 #
coedge $-1 $169 $248 $181 $234 forward $164 $-1 #
vertex $-1 $182 $252 #
straight-curve $-1 0 26.56604215054859 -22.409326297532054 -1 0 0 I I #
edge $-1 $174 26.56604215054859 $250 50.765078039271096 $172 $253 forward 7 unknown #
point $-1 -79.287087618640697 26.56604215054859 -22.409326297532054 #
point $-1 -79.287087618640697 26.56604215054859 -16.779057439319146 #
straight-curve $-1 -79.287087618640697 19.332780047454921 -16.779057439319146 0 1 0 I I #
point $-1 -79.287087618640697 50.765078039271096 -16.779057439319146 #
edge $-1 $236 -50.765078039271096 $227 -26.56604215054859 $181 $254 forward 7 unknown #
straight-curve $-1 79.287087618640697 26.56604215054859 -9.7970959342128001 0 0 -1 I I #
vertex $-1 $234 $255 #
straight-curve $-1 79.287087618640697 50.765078039271096 0 0 0 -1 I I #
straight-curve $-1 -79.287087618640697 50.765078039271096 0 0 0 -1 I I #
point $-1 -79.287087618640697 -50.765078039271096 -22.409326297532054 #
straight-curve $-1 -79.287087618640697 0 -22.409326297532054 0 1 0 I I #
point $-1 -79.287087618640697 50.765078039271096 -22.409326297532054 #
straight-curve $-1 -41.148030340373666 -18.73042211651595 22.409326297532054 0 1 0 I I #
straight-curve $-1 -41.148030340373666 -18.73042211651595 -22.409326297532054 0 -1 0 I I #
point $-1 -41.148030340373666 -50.765078039271096 -22.409326297532054 #
point $-1 -41.148030340373666 -50.765078039271096 22.409326297532054 #
straight-curve $-1 0 -50.765078039271096 -22.409326297532054 -1 0 0 I I #
straight-curve $-1 0 -50.765078039271096 22.409326297532054 1 0 0 I I #
coedge $-1 $226 $225 $222 $249 forward $164 $-1 #
edge $-1 $250 -79.287087618640697 $236 79.287087618640697 $222 $256 forward 7 unknown #
vertex $-1 $249 $257 #
straight-curve $-1 -79.287087618640697 50.765078039271096 0 0 0 -1 I I #
point $-1 79.287087618640697 26.56604215054859 -22.409326297532054 #
straight-curve $-1 -79.287087618640697 0 -22.409326297532054 0 1 0 I I #
straight-curve $-1 79.287087618640697 0 -22.409326297532054 0 -1 0 I I #
point $-1 79.287087618640697 50.765078039271096 -22.409326297532054 #
straight-curve $-1 0 50.765078039271096 -22.409326297532054 1 0 0 I I #
point $-1 -79.287087618640697 50.765078039271096 -22.409326297532054 #
End-of-ACIS-data 