500 0 5 0           
7 Unknown 11 ACIS 5.0 NT 24 Fri Mar 26 17:54:31 1999 
-1 9.9999999999999995e-007 1e-010 
body $-1 $5 $-1 $6 #
body $-1 $7 $-1 $8 #
body $-1 $9 $-1 $10 #
body $-1 $11 $-1 $12 #
body $-1 $13 $-1 $14 #
lump $-1 $-1 $15 $0 #
transform $-1 1 0 0 0 1 0 0 0 1 44.519180883205664 25.325812171307064 10.779875103477703 1 rotate no_reflect no_shear #
lump $-1 $-1 $16 $1 #
transform $-1 1 0 0 0 1 0 0 0 1 44.519180883205664 25.325812171307064 10.779875103477703 1 rotate no_reflect no_shear #
lump $-1 $-1 $17 $2 #
transform $-1 1 0 0 0 1 0 0 0 1 44.519180883205664 25.325812171307064 10.779875103477703 1 rotate no_reflect no_shear #
lump $-1 $-1 $18 $3 #
transform $-1 1 0 0 0 1 0 0 0 1 44.519180883205664 25.325812171307064 10.779875103477703 1 rotate no_reflect no_shear #
lump $-1 $-1 $19 $4 #
transform $-1 1 0 0 0 1 0 0 0 1 44.519180883205664 25.325812171307064 10.779875103477703 1 rotate no_reflect no_shear #
shell $-1 $-1 $-1 $20 $-1 $5 #
shell $-1 $-1 $-1 $21 $-1 $7 #
shell $-1 $-1 $-1 $22 $-1 $9 #
shell $-1 $-1 $-1 $23 $-1 $11 #
shell $-1 $-1 $-1 $24 $-1 $13 #
face $-1 $25 $26 $15 $-1 $27 forward single #
face $-1 $28 $29 $16 $-1 $30 forward single #
face $-1 $31 $32 $17 $-1 $33 forward single #
face $-1 $34 $35 $18 $-1 $36 reversed single #
face $-1 $37 $38 $19 $-1 $39 forward single #
face $-1 $40 $41 $15 $-1 $42 reversed single #
loop $-1 $-1 $43 $20 #
plane-surface $-1 0 0 10.779875103477703 0 0 1 1 0 0 forward_v I I I I #
face $-1 $44 $45 $16 $-1 $46 reversed single #
loop $-1 $-1 $47 $21 #
plane-surface $-1 -38.610732227250978 0 -4.1207506189475165 0 0 1 1 0 0 forward_v I I I I #
face $-1 $48 $49 $17 $-1 $50 reversed single #
loop $-1 $-1 $51 $22 #
plane-surface $-1 38.610732227250978 0 -4.1207506189475165 0 0 1 1 0 0 forward_v I I I I #
face $-1 $52 $53 $18 $-1 $54 reversed single #
loop $-1 $-1 $55 $23 #
plane-surface $-1 0.49494224731290615 73.993355196306581 91.595027677503651 -1 0 0 0 0.84804810408105047 0.52991925155115449 forward_v I I I I #
face $-1 $56 $57 $19 $-1 $58 forward single #
loop $-1 $59 $60 $24 #
cone-surface $-1 -5.0086663452928661 20.042578650352063 4.6371805830326007 0 -0.84804810408105047 -0.52991925155115449 2 0 0 1 I I 0 1 2 forward I I I I #
face $-1 $61 $62 $15 $-1 $63 reversed single #
loop $-1 $-1 $64 $25 #
plane-surface $-1 0 0 -10.779875103477703 0 0 1 1 0 0 forward_v I I I I #
coedge $-1 $65 $66 $67 $68 forward $26 $-1 #
face $-1 $69 $70 $16 $-1 $71 reversed single #
loop $-1 $-1 $72 $28 #
plane-surface $-1 -38.610732227250978 0 -9.0246775657982905 0 0 1 1 0 0 forward_v I I I I #
coedge $-1 $73 $74 $75 $76 forward $29 $-1 #
face $-1 $77 $78 $17 $-1 $79 reversed single #
loop $-1 $-1 $80 $31 #
plane-surface $-1 38.610732227250978 0 -9.0246775657982905 0 0 1 1 0 0 forward_v I I I I #
coedge $-1 $81 $82 $83 $84 reversed $32 $-1 #
face $-1 $85 $86 $18 $-1 $87 reversed single #
loop $-1 $-1 $88 $34 #
plane-surface $-1 -5.0086663452928661 -1.5154586901812337 44.411885650906029 0 0.84804810408105047 0.52991925155115449 1 0 0 forward_v I I I I #
coedge $-1 $89 $90 $91 $92 reversed $35 $-1 #
face $-1 $-1 $93 $19 $-1 $94 forward single #
loop $-1 $95 $96 $37 #
cone-surface $-1 -5.0086663452928661 16.824126488634512 2.6260685335119298 0 -0.84804810408105047 -0.52991925155115449 1 0 0 1 I I -0.70710678118654746 0.70710678118654746 1 forward I I I I #
loop $-1 $-1 $97 $24 #
coedge $-1 $60 $60 $98 $99 reversed $38 $-1 #
face $-1 $100 $101 $15 $-1 $102 reversed single #
loop $-1 $-1 $103 $40 #
plane-surface $-1 0 -25.325812171307064 0 0 1 0 0 0 1 forward_v I I I I #
coedge $-1 $104 $105 $106 $107 forward $41 $-1 #
coedge $-1 $108 $43 $109 $110 forward $26 $-1 #
coedge $-1 $43 $108 $111 $112 forward $26 $-1 #
coedge $-1 $113 $114 $43 $68 reversed $115 $-1 #
edge $-1 $116 -25.325812171307064 $117 25.325812171307064 $67 $118 forward 7 unknown #
face $-1 $119 $120 $16 $-1 $121 reversed single #
loop $-1 $-1 $122 $44 #
plane-surface $-1 -32.702283571296292 0 -6.5727140923729035 -1 0 0 0 0 1 forward_v I I I I #
coedge $-1 $123 $124 $125 $126 forward $45 $-1 #
coedge $-1 $127 $47 $128 $129 reversed $29 $-1 #
coedge $-1 $47 $127 $130 $131 reversed $29 $-1 #
coedge $-1 $122 $132 $47 $76 reversed $70 $-1 #
edge $-1 $133 -25.325812171307064 $134 25.325812171307064 $75 $135 forward 7 unknown #
face $-1 $136 $137 $17 $-1 $138 reversed single #
loop $-1 $-1 $139 $48 #
plane-surface $-1 32.702283571296292 0 -6.5727140923729035 1 0 0 0 0 -1 forward_v I I I I #
coedge $-1 $140 $141 $142 $143 reversed $49 $-1 #
coedge $-1 $144 $51 $145 $146 reversed $32 $-1 #
coedge $-1 $51 $144 $147 $148 reversed $32 $-1 #
coedge $-1 $149 $150 $51 $84 forward $151 $-1 #
edge $-1 $152 -25.325812171307064 $153 25.325812171307064 $83 $154 forward 7 unknown #
face $-1 $155 $156 $18 $-1 $157 reversed single #
loop $-1 $-1 $158 $52 #
plane-surface $-1 -10.512274937898638 73.993355196306581 91.595027677503651 1 0 0 0 -0.84804810408105047 -0.52991925155115449 forward_v I I I I #
coedge $-1 $159 $160 $161 $162 reversed $53 $-1 #
coedge $-1 $90 $55 $163 $164 reversed $35 $-1 #
coedge $-1 $55 $89 $159 $165 reversed $35 $-1 #
coedge $-1 $161 $166 $55 $92 forward $156 $-1 #
edge $-1 $167 35.017638735274119 $168 44.340642180225259 $91 $169 forward 7 unknown #
loop $-1 $-1 $98 $56 #
plane-surface $-1 -5.0086663452928661 -1.5154586901812337 44.411885650906029 0 0.84804810408105047 0.52991925155115449 1 0 0 forward_v I I I I #
loop $-1 $-1 $170 $37 #
coedge $-1 $96 $96 $97 $171 reversed $57 $-1 #
coedge $-1 $97 $97 $96 $171 forward $59 $-1 #
coedge $-1 $98 $98 $60 $99 forward $93 $-1 #
edge $-1 $172 5.6550405163751084e-016 $172 6.2831853071796013 $98 $173 forward 7 unknown #
face $-1 $174 $175 $15 $-1 $176 reversed single #
loop $-1 $-1 $177 $61 #
plane-surface $-1 -44.519180883205664 0 0 1 0 0 0 0 -1 forward_v I I I I #
coedge $-1 $178 $111 $179 $180 forward $62 $-1 #
coedge $-1 $181 $64 $178 $182 forward $41 $-1 #
coedge $-1 $64 $181 $183 $184 forward $41 $-1 #
coedge $-1 $114 $113 $64 $107 reversed $115 $-1 #
edge $-1 $185 -25.325812171307064 $186 25.325812171307064 $106 $187 forward 7 unknown #
coedge $-1 $66 $65 $188 $189 forward $26 $-1 #
coedge $-1 $190 $191 $65 $110 reversed $175 $-1 #
edge $-1 $117 -44.519180883205664 $192 44.519180883205664 $109 $193 forward 7 unknown #
coedge $-1 $103 $194 $66 $112 reversed $62 $-1 #
edge $-1 $195 -44.519180883205664 $116 44.519180883205664 $111 $196 forward 7 unknown #
coedge $-1 $106 $67 $194 $197 forward $115 $-1 #
coedge $-1 $67 $106 $190 $198 reversed $115 $-1 #
loop $-1 $-1 $113 $174 #
vertex $-1 $68 $199 #
vertex $-1 $68 $200 #
straight-curve $-1 44.519180883205664 0 10.779875103477703 0 1 0 I I #
face $-1 $201 $202 $16 $-1 $203 reversed single #
loop $-1 $-1 $204 $69 #
plane-surface $-1 0 -25.325812171307064 0 0 1 0 0 0 1 forward_v I I I I #
coedge $-1 $125 $75 $205 $206 reversed $70 $-1 #
coedge $-1 $207 $72 $204 $208 reversed $45 $-1 #
coedge $-1 $72 $207 $209 $210 reversed $45 $-1 #
coedge $-1 $132 $122 $72 $126 reversed $70 $-1 #
edge $-1 $211 -25.325812171307064 $212 25.325812171307064 $125 $213 forward 7 unknown #
coedge $-1 $74 $73 $214 $215 reversed $29 $-1 #
coedge $-1 $216 $217 $73 $129 forward $218 $-1 #
edge $-1 $219 -25.213814769580175 $134 -13.396917457670803 $128 $220 forward 7 unknown #
coedge $-1 $221 $205 $74 $131 forward $120 $-1 #
edge $-1 $133 13.396917457670803 $222 25.213814769580175 $130 $223 forward 7 unknown #
coedge $-1 $75 $125 $216 $224 reversed $70 $-1 #
vertex $-1 $131 $225 #
vertex $-1 $129 $226 #
straight-curve $-1 -32.702283571296292 0 -4.1207506189475165 0 1 0 I I #
face $-1 $227 $228 $17 $-1 $229 reversed single #
loop $-1 $-1 $147 $77 #
plane-surface $-1 0 -25.325812171307064 0 0 1 0 0 0 1 forward_v I I I I #
coedge $-1 $230 $231 $232 $233 reversed $78 $-1 #
coedge $-1 $234 $80 $235 $236 reversed $49 $-1 #
coedge $-1 $80 $234 $237 $238 reversed $49 $-1 #
coedge $-1 $150 $149 $80 $143 forward $151 $-1 #
edge $-1 $239 -25.325812171307064 $240 25.325812171307064 $142 $241 forward 7 unknown #
coedge $-1 $82 $81 $231 $242 forward $32 $-1 #
coedge $-1 $243 $232 $81 $146 forward $228 $-1 #
edge $-1 $244 13.396917457670803 $152 25.213814769580175 $145 $245 forward 7 unknown #
coedge $-1 $246 $247 $82 $148 forward $137 $-1 #
edge $-1 $153 -25.213814769580175 $248 -13.396917457670803 $147 $249 forward 7 unknown #
coedge $-1 $142 $83 $247 $250 forward $151 $-1 #
coedge $-1 $83 $142 $243 $251 reversed $151 $-1 #
loop $-1 $-1 $83 $227 #
vertex $-1 $251 $252 #
vertex $-1 $250 $253 #
straight-curve $-1 44.519180883205664 0 -4.1207506189475165 0 -1 0 I I #
face $-1 $-1 $254 $18 $-1 $255 forward single #
loop $-1 $-1 $91 $85 #
plane-surface $-1 0 25.325812171307064 0 0 -1 0 0 0 -1 forward_v I I I I #
coedge $-1 $256 $257 $258 $259 reversed $86 $-1 #
coedge $-1 $260 $88 $90 $165 forward $53 $-1 #
coedge $-1 $88 $260 $256 $261 forward $53 $-1 #
coedge $-1 $258 $91 $88 $162 forward $156 $-1 #
edge $-1 $168 -2.9992754199593392 $262 8.0079417652522054 $161 $263 forward 7 unknown #
coedge $-1 $264 $265 $89 $164 forward $254 $-1 #
edge $-1 $266 -17.496524353483217 $167 -11.670865426846227 $163 $267 forward 7 unknown #
edge $-1 $168 -50.651624342614092 $266 -39.658140128586396 $90 $268 forward 7 unknown #
coedge $-1 $91 $258 $264 $269 reversed $156 $-1 #
vertex $-1 $269 $270 #
vertex $-1 $92 $271 #
straight-curve $-1 0.49494224731290615 25.325812171307064 45.797513838751826 0 0 -1 I I #
coedge $-1 $170 $170 $-1 $272 reversed $95 $-1 #
edge $-1 $273 0 $273 6.2831853071796004 $96 $274 forward 7 unknown #
vertex $-1 $99 $275 #
ellipse-curve $-1 -5.0086663452928661 22.412982707988576 6.1183733810021241 0 0.84804810408105047 0.52991925155115449 2 0 0 1 I I #
face $-1 $-1 $115 $15 $-1 $276 reversed single #
loop $-1 $-1 $190 $100 #
plane-surface $-1 0 25.325812171307064 0 0 -1 0 0 0 -1 forward_v I I I I #
coedge $-1 $277 $188 $191 $278 forward $101 $-1 #
coedge $-1 $194 $103 $104 $182 reversed $62 $-1 #
coedge $-1 $188 $277 $103 $180 reversed $101 $-1 #
edge $-1 $195 -10.779875103477703 $279 10.779875103477703 $179 $280 forward 7 unknown #
coedge $-1 $105 $104 $277 $281 forward $41 $-1 #
edge $-1 $186 -44.519180883205664 $279 44.519180883205664 $178 $282 forward 7 unknown #
coedge $-1 $191 $190 $105 $184 reversed $175 $-1 #
edge $-1 $283 -44.519180883205664 $185 44.519180883205664 $183 $284 forward 7 unknown #
vertex $-1 $107 $285 #
vertex $-1 $197 $286 #
straight-curve $-1 44.519180883205664 0 -10.779875103477703 0 -1 0 I I #
coedge $-1 $177 $179 $108 $189 reversed $101 $-1 #
edge $-1 $192 -25.325812171307064 $195 25.325812171307064 $188 $287 forward 7 unknown #
coedge $-1 $183 $109 $114 $198 forward $175 $-1 #
coedge $-1 $109 $183 $177 $278 reversed $175 $-1 #
vertex $-1 $110 $288 #
straight-curve $-1 0 25.325812171307064 10.779875103477703 -1 0 0 I I #
coedge $-1 $111 $178 $113 $197 reversed $62 $-1 #
vertex $-1 $189 $289 #
straight-curve $-1 0 -25.325812171307064 10.779875103477703 1 0 0 I I #
edge $-1 $116 -10.779875103477703 $186 10.779875103477703 $113 $290 forward 7 unknown #
edge $-1 $117 -10.779875103477703 $185 10.779875103477703 $114 $291 forward 7 unknown #
point $-1 44.519180883205664 -25.325812171307064 10.779875103477703 #
point $-1 44.519180883205664 25.325812171307064 10.779875103477703 #
face $-1 $-1 $218 $16 $-1 $292 reversed single #
loop $-1 $-1 $293 $119 #
plane-surface $-1 -44.519180883205664 0 0 1 0 0 0 0 -1 forward_v I I I I #
coedge $-1 $205 $221 $123 $208 forward $120 $-1 #
coedge $-1 $130 $204 $122 $206 forward $120 $-1 #
edge $-1 $212 -5.7383205196118388 $133 -0.83439357276106474 $205 $294 forward 7 unknown #
coedge $-1 $124 $123 $293 $295 reversed $45 $-1 #
edge $-1 $296 -25.213814769580175 $212 -13.396917457670803 $204 $297 forward 7 unknown #
coedge $-1 $217 $216 $124 $210 forward $218 $-1 #
edge $-1 $211 13.396917457670803 $298 25.213814769580175 $209 $299 forward 7 unknown #
vertex $-1 $210 $300 #
vertex $-1 $208 $301 #
straight-curve $-1 -32.702283571296292 0 -9.0246775657982905 0 -1 0 I I #
coedge $-1 $302 $303 $127 $215 forward $202 $-1 #
edge $-1 $222 -25.325812171307064 $219 25.325812171307064 $214 $304 forward 7 unknown #
coedge $-1 $209 $128 $132 $224 forward $218 $-1 #
coedge $-1 $128 $209 $302 $305 reversed $218 $-1 #
loop $-1 $-1 $209 $201 #
vertex $-1 $305 $306 #
straight-curve $-1 -19.305366113625489 25.325812171307064 -4.1207506189475165 1 0 0 I I #
coedge $-1 $204 $130 $303 $307 forward $120 $-1 #
vertex $-1 $307 $308 #
straight-curve $-1 -19.305366113625489 -25.325812171307064 -4.1207506189475165 -1 0 0 I I #
edge $-1 $134 0.83439357276106474 $211 5.7383205196118388 $216 $309 forward 7 unknown #
point $-1 -32.702283571296292 -25.325812171307064 -4.1207506189475165 #
point $-1 -32.702283571296292 25.325812171307064 -4.1207506189475165 #
face $-1 $-1 $151 $17 $-1 $310 reversed single #
loop $-1 $-1 $145 $136 #
plane-surface $-1 0 25.325812171307064 0 0 -1 0 0 0 -1 forward_v I I I I #
coedge $-1 $311 $139 $234 $312 reversed $78 $-1 #
coedge $-1 $139 $311 $144 $242 reversed $78 $-1 #
coedge $-1 $145 $237 $139 $233 forward $228 $-1 #
edge $-1 $313 -5.7383205196118388 $244 -0.83439357276106474 $232 $314 forward 7 unknown #
coedge $-1 $141 $140 $230 $312 forward $49 $-1 #
coedge $-1 $247 $246 $140 $236 forward $137 $-1 #
edge $-1 $315 13.396917457670803 $239 25.213814769580175 $235 $316 forward 7 unknown #
coedge $-1 $232 $243 $141 $238 forward $228 $-1 #
edge $-1 $240 -25.213814769580175 $313 -13.396917457670803 $237 $317 forward 7 unknown #
vertex $-1 $143 $318 #
vertex $-1 $143 $319 #
straight-curve $-1 44.519180883205664 0 -9.0246775657982905 0 1 0 I I #
edge $-1 $244 -25.325812171307064 $248 25.325812171307064 $231 $320 forward 7 unknown #
coedge $-1 $237 $145 $150 $251 forward $228 $-1 #
vertex $-1 $146 $321 #
straight-curve $-1 19.305366113625489 25.325812171307064 -4.1207506189475165 1 0 0 I I #
coedge $-1 $235 $147 $311 $322 forward $137 $-1 #
coedge $-1 $147 $235 $149 $250 reversed $137 $-1 #
vertex $-1 $148 $323 #
straight-curve $-1 19.305366113625489 -25.325812171307064 -4.1207506189475165 -1 0 0 I I #
edge $-1 $153 4.1207506189475165 $239 9.0246775657982905 $149 $324 forward 7 unknown #
edge $-1 $152 4.1207506189475165 $240 9.0246775657982905 $150 $325 forward 7 unknown #
point $-1 44.519180883205664 25.325812171307064 -4.1207506189475165 #
point $-1 44.519180883205664 -25.325812171307064 -4.1207506189475165 #
loop $-1 $-1 $163 $155 #
plane-surface $-1 0 0 10.779875103477703 0 0 1 1 0 0 forward_v I I I I #
coedge $-1 $257 $158 $160 $261 reversed $86 $-1 #
coedge $-1 $158 $256 $326 $327 reversed $86 $-1 #
coedge $-1 $166 $161 $158 $259 forward $156 $-1 #
edge $-1 $262 -44.340642180225259 $328 -35.017638735274119 $258 $329 forward 7 unknown #
coedge $-1 $160 $159 $265 $330 reversed $53 $-1 #
edge $-1 $331 39.658140128586396 $262 50.651624342614092 $256 $332 forward 7 unknown #
vertex $-1 $162 $333 #
straight-curve $-1 -2.5043331726464331 25.325812171307064 1.4568716585265662 -1 0 0 I I #
coedge $-1 $326 $163 $166 $269 forward $254 $-1 #
coedge $-1 $163 $326 $260 $330 forward $254 $-1 #
vertex $-1 $164 $334 #
straight-curve $-1 0.49494224731290615 36.99667759815329 10.779875103477707 0 1 0 I I #
straight-curve $-1 0.49494224731290615 -1.5154586901812337 44.411885650906029 0 -0.52991925155115449 0.84804810408105047 I I #
edge $-1 $167 -0.49494224731290615 $328 10.512274937898638 $166 $335 forward 7 unknown #
point $-1 0.49494224731290615 25.325812171307064 10.779875103477703 #
point $-1 0.49494224731290615 25.325812171307064 1.4568716585265662 #
edge $-1 $336 1 $336 0 $170 $-1 forward 7 unknown #
vertex $-1 $171 $337 #
ellipse-curve $-1 -5.0086663452928661 17.672174592715564 3.1559877850630844 0 0.84804810408105047 0.52991925155115449 2 0 0 1 I I #
point $-1 -3.0086663452928661 22.412982707988565 6.1183733810021161 #
plane-surface $-1 44.519180883205664 0 0 -1 0 0 0 0 1 forward_v I I I I #
coedge $-1 $179 $177 $181 $281 reversed $101 $-1 #
edge $-1 $192 -10.779875103477703 $283 10.779875103477703 $191 $338 forward 7 unknown #
vertex $-1 $281 $339 #
straight-curve $-1 -44.519180883205664 -25.325812171307064 0 0 0 -1 I I #
edge $-1 $279 -25.325812171307064 $283 25.325812171307064 $277 $340 forward 7 unknown #
straight-curve $-1 0 -25.325812171307064 -10.779875103477703 -1 0 0 I I #
vertex $-1 $184 $341 #
straight-curve $-1 0 25.325812171307064 -10.779875103477703 1 0 0 I I #
point $-1 44.519180883205664 25.325812171307064 -10.779875103477703 #
point $-1 44.519180883205664 -25.325812171307064 -10.779875103477703 #
straight-curve $-1 -44.519180883205664 0 10.779875103477703 0 -1 0 I I #
point $-1 -44.519180883205664 25.325812171307064 10.779875103477703 #
point $-1 -44.519180883205664 -25.325812171307064 10.779875103477703 #
straight-curve $-1 44.519180883205664 -25.325812171307064 0 0 0 -1 I I #
straight-curve $-1 44.519180883205664 25.325812171307064 0 0 0 -1 I I #
plane-surface $-1 0 25.325812171307064 0 0 -1 0 0 0 -1 forward_v I I I I #
coedge $-1 $303 $302 $207 $295 forward $202 $-1 #
straight-curve $-1 -32.702283571296292 -25.325812171307064 -3.2863570461864517 0 0 1 I I #
edge $-1 $298 -25.325812171307064 $296 25.325812171307064 $293 $342 forward 7 unknown #
vertex $-1 $208 $343 #
straight-curve $-1 -19.305366113625489 -25.325812171307064 -9.0246775657982905 1 0 0 I I #
vertex $-1 $210 $344 #
straight-curve $-1 -19.305366113625489 25.325812171307064 -9.0246775657982905 -1 0 0 I I #
point $-1 -32.702283571296292 25.325812171307064 -9.0246775657982905 #
point $-1 -32.702283571296292 -25.325812171307064 -9.0246775657982905 #
coedge $-1 $293 $214 $217 $305 forward $202 $-1 #
coedge $-1 $214 $293 $221 $307 reversed $202 $-1 #
straight-curve $-1 -44.519180883205664 0 -4.1207506189475165 0 1 0 I I #
edge $-1 $219 4.1207506189475165 $298 9.0246775657982905 $217 $345 forward 7 unknown #
point $-1 -44.519180883205664 25.325812171307064 -4.1207506189475165 #
edge $-1 $222 4.1207506189475165 $296 9.0246775657982905 $303 $346 forward 7 unknown #
point $-1 -44.519180883205664 -25.325812171307064 -4.1207506189475165 #
straight-curve $-1 -32.702283571296292 25.325812171307064 -3.2863570461864517 0 0 -1 I I #
plane-surface $-1 44.519180883205664 0 0 -1 0 0 0 0 1 forward_v I I I I #
coedge $-1 $231 $230 $246 $322 reversed $78 $-1 #
edge $-1 $315 -25.325812171307064 $313 25.325812171307064 $230 $347 forward 7 unknown #
vertex $-1 $238 $348 #
straight-curve $-1 32.702283571296292 25.325812171307064 -3.2863570461864517 0 0 1 I I #
vertex $-1 $236 $349 #
straight-curve $-1 19.305366113625489 -25.325812171307064 -9.0246775657982905 1 0 0 I I #
straight-curve $-1 19.305366113625489 25.325812171307064 -9.0246775657982905 -1 0 0 I I #
point $-1 44.519180883205664 -25.325812171307064 -9.0246775657982905 #
point $-1 44.519180883205664 25.325812171307064 -9.0246775657982905 #
straight-curve $-1 32.702283571296292 0 -4.1207506189475165 0 -1 0 I I #
point $-1 32.702283571296292 25.325812171307064 -4.1207506189475165 #
edge $-1 $248 0.83439357276106474 $315 5.7383205196118388 $246 $350 forward 7 unknown #
point $-1 32.702283571296292 -25.325812171307064 -4.1207506189475165 #
straight-curve $-1 44.519180883205664 -25.325812171307064 0 0 0 -1 I I #
straight-curve $-1 44.519180883205664 25.325812171307064 0 0 0 -1 I I #
coedge $-1 $265 $264 $257 $327 forward $254 $-1 #
edge $-1 $328 11.670865426846227 $331 17.496524353483217 $326 $351 forward 7 unknown #
vertex $-1 $327 $352 #
straight-curve $-1 -10.512274937898638 25.325812171307064 45.797513838751826 0 0 1 I I #
edge $-1 $331 -8.0079417652522054 $266 2.9992754199593392 $265 $353 forward 7 unknown #
vertex $-1 $330 $354 #
straight-curve $-1 -10.512274937898638 -1.5154586901812337 44.411885650906029 0 0.52991925155115449 -0.84804810408105047 I I #
point $-1 -10.512274937898638 25.325812171307064 1.4568716585265662 #
point $-1 0.49494224731290615 19.500153244670074 10.779875103477707 #
straight-curve $-1 0 25.325812171307064 10.779875103477703 -1 0 0 I I #
vertex $-1 $272 $355 #
point $-1 -3.0086663452928661 17.672174592715564 3.1559877850630844 #
straight-curve $-1 -44.519180883205664 25.325812171307064 0 0 0 -1 I I #
point $-1 -44.519180883205664 -25.325812171307064 -10.779875103477703 #
straight-curve $-1 -44.519180883205664 0 -10.779875103477703 0 1 0 I I #
point $-1 -44.519180883205664 25.325812171307064 -10.779875103477703 #
straight-curve $-1 -44.519180883205664 0 -9.0246775657982905 0 -1 0 I I #
point $-1 -44.519180883205664 -25.325812171307064 -9.0246775657982905 #
point $-1 -44.519180883205664 25.325812171307064 -9.0246775657982905 #
straight-curve $-1 -44.519180883205664 25.325812171307064 0 0 0 -1 I I #
straight-curve $-1 -44.519180883205664 -25.325812171307064 0 0 0 -1 I I #
straight-curve $-1 32.702283571296292 0 -9.0246775657982905 0 1 0 I I #
point $-1 32.702283571296292 25.325812171307064 -9.0246775657982905 #
point $-1 32.702283571296292 -25.325812171307064 -9.0246775657982905 #
straight-curve $-1 32.702283571296292 -25.325812171307064 -3.2863570461864517 0 0 -1 I I #
straight-curve $-1 -10.512274937898638 36.99667759815329 10.779875103477707 0 -1 0 I I #
point $-1 -10.512274937898638 25.325812171307064 10.779875103477703 #
straight-curve $-1 -2.5043331726464331 19.500153244670081 10.779875103477707 1 0 0 I I #
point $-1 -10.512274937898638 19.500153244670074 10.779875103477707 #
point $-1 -5.0086663452928661 15.976078384553462 2.0961492819607752 #
End-of-ACIS-data 