500 0 5 0           
7 Unknown 11 ACIS 5.0 NT 24 Thu Mar 25 17:15:22 1999 
-1 9.9999999999999995e-007 1e-010 
body $-1 $5 $-1 $6 #
body $-1 $7 $-1 $8 #
body $-1 $9 $-1 $10 #
body $-1 $11 $-1 $12 #
body $-1 $13 $-1 $14 #
lump $-1 $-1 $15 $0 #
transform $-1 1 0 0 0 1 0 0 0 1 57.561571092867823 36.409050761853976 10.308582645284101 1 rotate no_reflect no_shear #
lump $-1 $-1 $16 $1 #
transform $-1 1 0 0 0 1 0 0 0 1 57.561571092867823 36.409050761853976 10.308582645284101 1 rotate no_reflect no_shear #
lump $-1 $-1 $17 $2 #
transform $-1 1 0 0 0 1 0 0 0 1 57.561571092867823 36.409050761853976 10.308582645284101 1 rotate no_reflect no_shear #
lump $-1 $-1 $18 $3 #
transform $-1 1 0 0 0 1 0 0 0 1 57.561571092867823 36.409050761853976 10.308582645284101 1 rotate no_reflect no_shear #
lump $-1 $-1 $19 $4 #
transform $-1 1 0 0 0 1 0 0 0 1 57.561571092867823 36.409050761853976 10.308582645284101 1 rotate no_reflect no_shear #
shell $-1 $-1 $-1 $20 $-1 $5 #
shell $-1 $-1 $-1 $21 $-1 $7 #
shell $-1 $-1 $-1 $22 $-1 $9 #
shell $-1 $-1 $-1 $23 $-1 $11 #
shell $-1 $-1 $-1 $24 $-1 $13 #
face $-1 $25 $26 $15 $-1 $27 forward single #
face $-1 $28 $29 $16 $-1 $30 reversed single #
face $-1 $31 $32 $17 $-1 $33 forward single #
face $-1 $34 $35 $18 $-1 $36 reversed single #
face $-1 $37 $38 $19 $-1 $39 forward single #
face $-1 $40 $41 $15 $-1 $42 reversed single #
loop $-1 $-1 $43 $20 #
plane-surface $-1 0 0 10.308582645284101 0 0 1 1 0 0 forward_v I I I I #
face $-1 $44 $45 $16 $-1 $46 reversed single #
loop $-1 $-1 $47 $21 #
plane-surface $-1 -56.061571092867823 -27.93286453509474 0 0 -1 0 0 0 -1 forward_v I I I I #
face $-1 $48 $49 $17 $-1 $50 reversed single #
loop $-1 $-1 $51 $22 #
plane-surface $-1 0 36.409050761853976 0 0 -1 0 0 0 -1 forward_v I I I I #
face $-1 $52 $53 $18 $-1 $54 reversed single #
loop $-1 $-1 $55 $23 #
plane-surface $-1 15.423577705820904 27.410655717293086 162.66378272914579 0 -1 0 -0.50000000669873634 0 -0.8660253999169214 forward_v I I I I #
face $-1 $56 $57 $19 $-1 $58 forward single #
loop $-1 $59 $60 $24 #
cone-surface $-1 51.669193387163645 21.936328855420918 5.0086220323007034 -0.50000000669873634 0 -0.8660253999169214 1.7320507998338428 0 -1.0000000133974727 1 I I 0 1 2 forward I I I I #
face $-1 $61 $62 $15 $-1 $63 reversed single #
loop $-1 $-1 $64 $25 #
plane-surface $-1 0 0 -10.308582645284101 0 0 1 1 0 0 forward_v I I I I #
coedge $-1 $65 $66 $67 $68 forward $26 $-1 #
face $-1 $69 $70 $16 $-1 $71 forward single #
loop $-1 $-1 $72 $28 #
plane-surface $-1 -54.561571092867823 -32.170957648474356 0 -1 0 0 0 0 1 forward_v I I I I #
coedge $-1 $73 $74 $75 $76 forward $29 $-1 #
face $-1 $77 $78 $17 $-1 $79 forward single #
loop $-1 $-1 $80 $31 #
plane-surface $-1 57.561571092867823 0 0 -1 0 0 0 0 1 forward_v I I I I #
coedge $-1 $81 $82 $83 $84 forward $32 $-1 #
face $-1 $85 $86 $18 $-1 $87 reversed single #
loop $-1 $-1 $88 $34 #
plane-surface $-1 -42.137994158226498 21.936328855420925 62.964217478051481 0.50000000669873634 0 0.8660253999169214 0.8660253999169214 0 -0.50000000669873634 forward_v I I I I #
coedge $-1 $89 $90 $91 $92 reversed $35 $-1 #
face $-1 $-1 $93 $19 $-1 $94 forward single #
loop $-1 $95 $96 $37 #
cone-surface $-1 49.525481697320856 21.936328855420918 1.2956045350403933 -0.50000000669873634 0 -0.8660253999169214 0.8660253999169214 0 -0.50000000669873634 1 I I -0.70710678118654746 0.70710678118654746 1 forward I I I I #
loop $-1 $-1 $97 $24 #
coedge $-1 $60 $60 $98 $99 reversed $38 $-1 #
face $-1 $100 $101 $15 $-1 $102 reversed single #
loop $-1 $-1 $103 $40 #
plane-surface $-1 0 -36.409050761853976 0 0 1 0 0 0 1 forward_v I I I I #
coedge $-1 $104 $105 $106 $107 forward $41 $-1 #
coedge $-1 $108 $43 $109 $110 forward $26 $-1 #
coedge $-1 $43 $108 $111 $112 forward $26 $-1 #
coedge $-1 $113 $114 $43 $68 reversed $115 $-1 #
edge $-1 $116 -36.409050761853976 $117 36.409050761853976 $67 $118 forward 7 unknown #
face $-1 $119 $120 $16 $-1 $121 reversed single #
loop $-1 $-1 $122 $44 #
plane-surface $-1 0 0 10.308582645284101 0 0 1 1 0 0 forward_v I I I I #
coedge $-1 $123 $124 $125 $126 reversed $45 $-1 #
coedge $-1 $127 $47 $128 $129 reversed $29 $-1 #
coedge $-1 $47 $127 $130 $131 reversed $29 $-1 #
coedge $-1 $124 $123 $47 $76 reversed $45 $-1 #
edge $-1 $132 -10.308582645284101 $133 10.308582645284101 $75 $134 forward 7 unknown #
face $-1 $135 $136 $17 $-1 $137 reversed single #
loop $-1 $-1 $138 $48 #
plane-surface $-1 0 40.908248284134416 -0.28404049264938536 0 0 1 1 0 0 forward_v I I I I #
coedge $-1 $139 $140 $82 $141 forward $49 $-1 #
coedge $-1 $142 $51 $143 $144 reversed $32 $-1 #
coedge $-1 $51 $142 $80 $141 reversed $32 $-1 #
coedge $-1 $138 $145 $51 $84 reversed $78 $-1 #
edge $-1 $146 -57.561571092867823 $147 57.561571092867823 $83 $148 forward 7 unknown #
face $-1 $149 $150 $18 $-1 $151 forward single #
loop $-1 $-1 $152 $52 #
plane-surface $-1 15.423577705820904 16.462001993548764 162.66378272914579 0 1 0 0.50000000669873634 0 0.8660253999169214 forward_v I I I I #
coedge $-1 $153 $154 $155 $156 reversed $53 $-1 #
coedge $-1 $90 $55 $157 $158 reversed $35 $-1 #
coedge $-1 $55 $89 $153 $159 reversed $35 $-1 #
coedge $-1 $155 $160 $55 $92 forward $150 $-1 #
edge $-1 $161 -49.849782239957371 $162 -41.352450194837104 $91 $163 forward 7 unknown #
loop $-1 $-1 $98 $56 #
plane-surface $-1 -42.137994158226498 21.936328855420925 62.964217478051481 0.50000000669873634 0 0.8660253999169214 0.8660253999169214 0 -0.50000000669873634 forward_v I I I I #
loop $-1 $-1 $164 $37 #
coedge $-1 $96 $96 $97 $165 reversed $57 $-1 #
coedge $-1 $97 $97 $96 $165 forward $59 $-1 #
coedge $-1 $98 $98 $60 $99 forward $93 $-1 #
edge $-1 $166 0 $166 6.2831853071796004 $98 $167 forward 7 unknown #
face $-1 $168 $169 $15 $-1 $170 reversed single #
loop $-1 $-1 $171 $61 #
plane-surface $-1 -57.561571092867823 0 0 1 0 0 0 0 -1 forward_v I I I I #
coedge $-1 $172 $111 $173 $174 forward $62 $-1 #
coedge $-1 $175 $64 $172 $176 forward $41 $-1 #
coedge $-1 $64 $175 $177 $178 forward $41 $-1 #
coedge $-1 $114 $113 $64 $107 reversed $115 $-1 #
edge $-1 $179 -36.409050761853976 $180 36.409050761853976 $106 $181 forward 7 unknown #
coedge $-1 $66 $65 $182 $183 forward $26 $-1 #
coedge $-1 $184 $185 $65 $110 reversed $169 $-1 #
edge $-1 $117 -57.561571092867823 $186 57.561571092867823 $109 $187 forward 7 unknown #
coedge $-1 $103 $188 $66 $112 reversed $62 $-1 #
edge $-1 $189 -57.561571092867823 $116 57.561571092867823 $111 $190 forward 7 unknown #
coedge $-1 $106 $67 $188 $191 forward $115 $-1 #
coedge $-1 $67 $106 $184 $192 reversed $115 $-1 #
loop $-1 $-1 $113 $168 #
vertex $-1 $68 $193 #
vertex $-1 $68 $194 #
straight-curve $-1 57.561571092867823 0 10.308582645284101 0 1 0 I I #
face $-1 $195 $196 $16 $-1 $197 reversed single #
loop $-1 $-1 $198 $69 #
plane-surface $-1 -57.561571092867823 0 0 1 0 0 0 0 -1 forward_v I I I I #
coedge $-1 $130 $199 $124 $200 forward $70 $-1 #
coedge $-1 $75 $72 $201 $202 reversed $45 $-1 #
coedge $-1 $72 $75 $122 $200 reversed $45 $-1 #
coedge $-1 $203 $204 $72 $126 forward $205 $-1 #
edge $-1 $206 -10.308582645284101 $207 10.308582645284101 $125 $208 forward 7 unknown #
coedge $-1 $74 $73 $198 $209 reversed $29 $-1 #
coedge $-1 $201 $210 $73 $129 forward $196 $-1 #
edge $-1 $211 -29.530785546433911 $133 -26.530785546433911 $128 $212 forward 7 unknown #
coedge $-1 $213 $122 $74 $131 forward $70 $-1 #
edge $-1 $132 26.530785546433911 $214 29.530785546433911 $130 $215 forward 7 unknown #
vertex $-1 $131 $216 #
vertex $-1 $129 $217 #
straight-curve $-1 -54.561571092867823 -27.93286453509474 0 0 0 -1 I I #
face $-1 $218 $219 $17 $-1 $220 reversed single #
loop $-1 $-1 $221 $77 #
plane-surface $-1 0 40.908248284134416 -4.4880747310273694 0 0 1 1 0 0 forward_v I I I I #
coedge $-1 $222 $83 $140 $223 forward $78 $-1 #
coedge $-1 $224 $80 $221 $225 reversed $49 $-1 #
coedge $-1 $80 $224 $138 $223 reversed $49 $-1 #
edge $-1 $146 0.28404049264938536 $226 4.4880747310273694 $80 $227 forward 7 unknown #
coedge $-1 $82 $81 $228 $229 forward $32 $-1 #
coedge $-1 $230 $231 $81 $144 forward $232 $-1 #
edge $-1 $233 -4.4880747310273694 $147 -0.28404049264938536 $143 $234 forward 7 unknown #
coedge $-1 $83 $222 $230 $235 forward $78 $-1 #
vertex $-1 $141 $236 #
vertex $-1 $235 $237 #
straight-curve $-1 0 36.409050761853976 -0.28404049264938536 -1 0 0 I I #
face $-1 $-1 $238 $18 $-1 $239 reversed single #
loop $-1 $-1 $91 $85 #
plane-surface $-1 0 0 10.308582645284101 0 0 1 1 0 0 forward_v I I I I #
coedge $-1 $240 $241 $242 $243 reversed $86 $-1 #
coedge $-1 $244 $88 $90 $159 forward $53 $-1 #
coedge $-1 $88 $244 $240 $245 forward $53 $-1 #
coedge $-1 $242 $91 $88 $156 forward $150 $-1 #
edge $-1 $162 -16.442491289582623 $246 -5.4938375658383016 $155 $247 forward 7 unknown #
coedge $-1 $248 $249 $89 $158 forward $238 $-1 #
edge $-1 $250 -75.929245750568825 $161 -71.023308719288792 $157 $251 forward 7 unknown #
edge $-1 $162 105.31126825462991 $250 115.12314218573567 $90 $252 forward 7 unknown #
coedge $-1 $91 $242 $248 $253 forward $150 $-1 #
vertex $-1 $158 $254 #
vertex $-1 $92 $255 #
straight-curve $-1 7.7117888529104519 27.410655717293086 10.308582645284105 -1 0 0 I I #
coedge $-1 $164 $164 $-1 $256 reversed $95 $-1 #
edge $-1 $257 0 $257 6.2831853071796004 $96 $258 forward 7 unknown #
vertex $-1 $99 $259 #
ellipse-curve $-1 53.312905070307693 21.936328855420918 7.8556141296440867 0.50000000669873634 0 0.8660253999169214 1.7320507998338428 0 -1.0000000133974727 1 I I #
face $-1 $-1 $115 $15 $-1 $260 reversed single #
loop $-1 $-1 $184 $100 #
plane-surface $-1 0 36.409050761853976 0 0 -1 0 0 0 -1 forward_v I I I I #
coedge $-1 $261 $182 $185 $262 forward $101 $-1 #
coedge $-1 $188 $103 $104 $176 reversed $62 $-1 #
coedge $-1 $182 $261 $103 $174 reversed $101 $-1 #
edge $-1 $189 -10.308582645284101 $263 10.308582645284101 $173 $264 forward 7 unknown #
coedge $-1 $105 $104 $261 $265 forward $41 $-1 #
edge $-1 $180 -57.561571092867823 $263 57.561571092867823 $172 $266 forward 7 unknown #
coedge $-1 $185 $184 $105 $178 reversed $169 $-1 #
edge $-1 $267 -57.561571092867823 $179 57.561571092867823 $177 $268 forward 7 unknown #
vertex $-1 $107 $269 #
vertex $-1 $191 $270 #
straight-curve $-1 57.561571092867823 0 -10.308582645284101 0 -1 0 I I #
coedge $-1 $171 $173 $108 $183 reversed $101 $-1 #
edge $-1 $186 -36.409050761853976 $189 36.409050761853976 $182 $271 forward 7 unknown #
coedge $-1 $177 $109 $114 $192 forward $169 $-1 #
coedge $-1 $109 $177 $171 $262 reversed $169 $-1 #
vertex $-1 $110 $272 #
straight-curve $-1 0 36.409050761853976 10.308582645284101 -1 0 0 I I #
coedge $-1 $111 $172 $113 $191 reversed $62 $-1 #
vertex $-1 $183 $273 #
straight-curve $-1 0 -36.409050761853976 10.308582645284101 1 0 0 I I #
edge $-1 $116 -10.308582645284101 $180 10.308582645284101 $113 $274 forward 7 unknown #
edge $-1 $117 -10.308582645284101 $179 10.308582645284101 $114 $275 forward 7 unknown #
point $-1 57.561571092867823 -36.409050761853976 10.308582645284101 #
point $-1 57.561571092867823 36.409050761853976 10.308582645284101 #
face $-1 $-1 $205 $16 $-1 $276 reversed single #
loop $-1 $-1 $201 $119 #
plane-surface $-1 0 0 -10.308582645284101 0 0 1 1 0 0 forward_v I I I I #
coedge $-1 $277 $278 $127 $209 forward $120 $-1 #
coedge $-1 $122 $213 $203 $279 forward $70 $-1 #
edge $-1 $207 -20.323571937616798 $132 -11.847385710857562 $122 $280 forward 7 unknown #
coedge $-1 $281 $128 $123 $202 forward $196 $-1 #
edge $-1 $133 11.847385710857562 $206 20.323571937616798 $201 $282 forward 7 unknown #
coedge $-1 $283 $125 $199 $279 reversed $205 $-1 #
coedge $-1 $125 $283 $281 $284 reversed $205 $-1 #
loop $-1 $-1 $125 $195 #
vertex $-1 $284 $285 #
vertex $-1 $126 $286 #
straight-curve $-1 -54.561571092867823 -36.409050761853976 0 0 0 1 I I #
edge $-1 $214 -10.308582645284101 $211 10.308582645284101 $198 $287 forward 7 unknown #
coedge $-1 $128 $281 $277 $288 forward $196 $-1 #
vertex $-1 $129 $289 #
straight-curve $-1 -28.030785546433911 -27.93286453509474 -10.308582645284101 1 0 0 I I #
coedge $-1 $199 $130 $278 $290 forward $70 $-1 #
vertex $-1 $290 $291 #
straight-curve $-1 -28.030785546433911 -27.93286453509474 10.308582645284101 -1 0 0 I I #
point $-1 -54.561571092867823 -27.93286453509474 10.308582645284101 #
point $-1 -54.561571092867823 -27.93286453509474 -10.308582645284101 #
face $-1 $-1 $232 $17 $-1 $292 reversed single #
loop $-1 $-1 $293 $135 #
plane-surface $-1 0 45.407445806414863 -2.3860576118383774 0 -1 0 0 0 -1 forward_v I I I I #
coedge $-1 $228 $294 $139 $225 forward $136 $-1 #
coedge $-1 $145 $138 $295 $296 forward $78 $-1 #
edge $-1 $146 -4.499197522280447 $297 4.499197522280447 $140 $298 forward 7 unknown #
coedge $-1 $140 $139 $293 $299 reversed $49 $-1 #
edge $-1 $300 -4.499197522280447 $226 4.499197522280447 $139 $301 forward 7 unknown #
vertex $-1 $141 $302 #
straight-curve $-1 57.561571092867823 36.409050761853976 0 0 0 -1 I I #
coedge $-1 $303 $221 $142 $229 reversed $136 $-1 #
edge $-1 $233 -57.561571092867823 $226 57.561571092867823 $228 $304 forward 7 unknown #
coedge $-1 $305 $143 $145 $235 reversed $232 $-1 #
coedge $-1 $143 $305 $303 $306 reversed $232 $-1 #
loop $-1 $-1 $143 $218 #
vertex $-1 $144 $307 #
straight-curve $-1 -57.561571092867823 36.409050761853976 0 0 0 1 I I #
edge $-1 $308 -4.499197522280447 $147 4.499197522280447 $230 $309 forward 7 unknown #
point $-1 57.561571092867823 36.409050761853969 -0.28404049264938536 #
point $-1 -57.561571092867823 36.409050761853969 -0.28404049264938536 #
loop $-1 $-1 $157 $149 #
plane-surface $-1 57.561571092867823 0 0 -1 0 0 0 0 1 forward_v I I I I #
coedge $-1 $241 $152 $154 $245 reversed $86 $-1 #
coedge $-1 $152 $240 $310 $311 reversed $86 $-1 #
coedge $-1 $160 $155 $152 $243 forward $150 $-1 #
edge $-1 $246 41.352450194837104 $312 49.849782239957371 $242 $313 forward 7 unknown #
coedge $-1 $154 $153 $249 $314 reversed $53 $-1 #
edge $-1 $315 -115.12314218573567 $246 -105.31126825462991 $240 $316 forward 7 unknown #
vertex $-1 $156 $317 #
straight-curve $-1 49.064239047747563 10.968164427710462 10.308582645284105 0 -1 0 I I #
coedge $-1 $310 $157 $160 $253 reversed $238 $-1 #
coedge $-1 $157 $310 $244 $314 forward $238 $-1 #
vertex $-1 $158 $318 #
straight-curve $-1 57.561571092867823 27.410655717293086 81.331891364572897 0 0 1 I I #
straight-curve $-1 -42.137994158226498 27.410655717293086 62.964217478051481 0.8660253999169214 0 -0.50000000669873634 I I #
edge $-1 $312 16.462001993548764 $161 27.410655717293086 $248 $319 forward 7 unknown #
point $-1 57.561571092867823 27.410655717293086 10.308582645284101 #
point $-1 49.064239047747556 27.410655717293086 10.308582645284105 #
edge $-1 $320 1 $320 0 $164 $-1 forward 7 unknown #
vertex $-1 $165 $321 #
ellipse-curve $-1 50.02548170401959 21.936328855420918 2.1616299349573147 0.50000000669873634 0 0.8660253999169214 1.7320507998338428 0 -1.0000000133974727 1 I I #
point $-1 55.044955870141543 21.936328855420918 6.8556141162466213 #
plane-surface $-1 57.561571092867823 0 0 -1 0 0 0 0 1 forward_v I I I I #
coedge $-1 $173 $171 $175 $265 reversed $101 $-1 #
edge $-1 $186 -10.308582645284101 $267 10.308582645284101 $185 $322 forward 7 unknown #
vertex $-1 $265 $323 #
straight-curve $-1 -57.561571092867823 -36.409050761853976 0 0 0 -1 I I #
edge $-1 $263 -36.409050761853976 $267 36.409050761853976 $261 $324 forward 7 unknown #
straight-curve $-1 0 -36.409050761853976 -10.308582645284101 -1 0 0 I I #
vertex $-1 $178 $325 #
straight-curve $-1 0 36.409050761853976 -10.308582645284101 1 0 0 I I #
point $-1 57.561571092867823 36.409050761853976 -10.308582645284101 #
point $-1 57.561571092867823 -36.409050761853976 -10.308582645284101 #
straight-curve $-1 -57.561571092867823 0 10.308582645284101 0 -1 0 I I #
point $-1 -57.561571092867823 36.409050761853976 10.308582645284101 #
point $-1 -57.561571092867823 -36.409050761853976 10.308582645284101 #
straight-curve $-1 57.561571092867823 -36.409050761853976 0 0 0 -1 I I #
straight-curve $-1 57.561571092867823 36.409050761853976 0 0 0 -1 I I #
plane-surface $-1 0 -36.409050761853976 0 0 1 0 0 0 1 forward_v I I I I #
coedge $-1 $326 $198 $210 $288 reversed $120 $-1 #
coedge $-1 $198 $326 $213 $290 reversed $120 $-1 #
edge $-1 $327 -57.561571092867823 $207 -54.561571092867823 $203 $328 forward 7 unknown #
straight-curve $-1 -54.561571092867823 -16.085478824237178 10.308582645284101 0 1 0 I I #
coedge $-1 $210 $201 $204 $284 forward $196 $-1 #
straight-curve $-1 -54.561571092867823 -16.085478824237178 -10.308582645284101 0 -1 0 I I #
coedge $-1 $204 $203 $326 $329 forward $205 $-1 #
edge $-1 $206 54.561571092867823 $330 57.561571092867823 $204 $331 forward 7 unknown #
point $-1 -54.561571092867823 -36.409050761853976 -10.308582645284101 #
point $-1 -54.561571092867823 -36.409050761853976 10.308582645284101 #
straight-curve $-1 -57.561571092867823 -27.93286453509474 0 0 0 -1 I I #
edge $-1 $330 -36.409050761853976 $211 -27.93286453509474 $277 $332 forward 7 unknown #
point $-1 -57.561571092867823 -27.93286453509474 -10.308582645284101 #
edge $-1 $214 27.93286453509474 $327 36.409050761853976 $278 $333 forward 7 unknown #
point $-1 -57.561571092867823 -27.93286453509474 10.308582645284101 #
plane-surface $-1 -57.561571092867823 0 0 1 0 0 0 0 -1 forward_v I I I I #
coedge $-1 $334 $295 $224 $299 forward $219 $-1 #
coedge $-1 $221 $303 $334 $335 forward $136 $-1 #
coedge $-1 $293 $336 $222 $296 reversed $219 $-1 #
edge $-1 $297 -57.561571092867823 $308 57.561571092867823 $295 $337 forward 7 unknown #
vertex $-1 $223 $338 #
straight-curve $-1 57.561571092867823 40.908248284134416 -0.28404049264938536 0 1 0 I I #
edge $-1 $297 -2.102017119188992 $300 2.102017119188992 $224 $339 forward 7 unknown #
vertex $-1 $225 $340 #
straight-curve $-1 57.561571092867823 40.908248284134416 -4.4880747310273694 0 -1 0 I I #
point $-1 57.561571092867823 36.409050761853969 -4.4880747310273694 #
coedge $-1 $294 $228 $231 $306 forward $136 $-1 #
straight-curve $-1 0 36.409050761853976 -4.4880747310273694 1 0 0 I I #
coedge $-1 $231 $230 $336 $341 forward $232 $-1 #
edge $-1 $233 -4.499197522280447 $342 4.499197522280447 $231 $343 forward 7 unknown #
point $-1 -57.561571092867823 36.409050761853969 -4.4880747310273694 #
vertex $-1 $296 $344 #
straight-curve $-1 -57.561571092867823 40.908248284134416 -0.28404049264938536 0 -1 0 I I #
coedge $-1 $249 $248 $241 $311 forward $238 $-1 #
edge $-1 $312 71.023308719288792 $315 75.929245750568825 $310 $345 forward 7 unknown #
vertex $-1 $253 $346 #
straight-curve $-1 7.7117888529104519 16.462001993548764 10.308582645284105 1 0 0 I I #
edge $-1 $315 5.4938375658383016 $250 16.442491289582623 $249 $347 forward 7 unknown #
vertex $-1 $314 $348 #
straight-curve $-1 -42.137994158226498 16.462001993548764 62.964217478051481 -0.8660253999169214 0 0.50000000669873634 I I #
point $-1 49.064239047747556 16.462001993548764 10.308582645284105 #
point $-1 57.56157109286783 27.410655717293086 5.4026456140040722 #
straight-curve $-1 57.561571092867823 0 10.308582645284101 0 1 0 I I #
vertex $-1 $256 $349 #
point $-1 51.757532503853433 21.936328855420918 1.161629921559842 #
straight-curve $-1 -57.561571092867823 36.409050761853976 0 0 0 -1 I I #
point $-1 -57.561571092867823 -36.409050761853976 -10.308582645284101 #
straight-curve $-1 -57.561571092867823 0 -10.308582645284101 0 1 0 I I #
point $-1 -57.561571092867823 36.409050761853976 -10.308582645284101 #
coedge $-1 $278 $277 $283 $329 reversed $120 $-1 #
vertex $-1 $290 $350 #
straight-curve $-1 0 -36.409050761853976 10.308582645284101 1 0 0 I I #
edge $-1 $327 -10.308582645284101 $330 10.308582645284101 $326 $351 forward 7 unknown #
vertex $-1 $288 $352 #
straight-curve $-1 0 -36.409050761853976 -10.308582645284101 -1 0 0 I I #
straight-curve $-1 -57.561571092867823 0 -10.308582645284101 0 1 0 I I #
straight-curve $-1 -57.561571092867823 0 10.308582645284101 0 -1 0 I I #
coedge $-1 $336 $293 $294 $335 reversed $219 $-1 #
edge $-1 $342 -57.561571092867823 $300 57.561571092867823 $334 $353 forward 7 unknown #
coedge $-1 $295 $334 $305 $341 reversed $219 $-1 #
straight-curve $-1 0 45.407445806414863 -0.28404049264938536 -1 0 0 I I #
point $-1 57.561571092867823 45.407445806414863 -0.28404049264938536 #
straight-curve $-1 57.561571092867823 45.407445806414863 -2.3860576118383774 0 0 -1 I I #
point $-1 57.561571092867823 45.407445806414863 -4.4880747310273694 #
edge $-1 $308 -2.102017119188992 $342 2.102017119188992 $336 $354 forward 7 unknown #
vertex $-1 $335 $355 #
straight-curve $-1 -57.561571092867823 40.908248284134416 -4.4880747310273694 0 1 0 I I #
point $-1 -57.561571092867823 45.407445806414863 -0.28404049264938536 #
straight-curve $-1 57.561571092867823 16.462001993548764 81.331891364572897 0 0 -1 I I #
point $-1 57.561571092867823 16.462001993548764 10.308582645284101 #
straight-curve $-1 57.561571092867815 10.968164427710462 5.4026456140040757 0 1 0 I I #
point $-1 57.56157109286783 16.462001993548764 5.4026456140040722 #
point $-1 49.025481690622122 21.936328855420918 0.4295791351234719 #
point $-1 -57.561571092867823 -36.409050761853976 10.308582645284101 #
straight-curve $-1 -57.561571092867823 -36.409050761853976 0 0 0 -1 I I #
point $-1 -57.561571092867823 -36.409050761853976 -10.308582645284101 #
straight-curve $-1 0 45.407445806414863 -4.4880747310273694 1 0 0 I I #
straight-curve $-1 -57.561571092867823 45.407445806414863 -2.3860576118383774 0 0 -1 I I #
point $-1 -57.561571092867823 45.407445806414863 -4.4880747310273694 #
End-of-ACIS-data 