500 0 13 0           
7 Unknown 11 ACIS 5.0 NT 24 Thu Mar 25 17:35:09 1999 
-1 9.9999999999999995e-007 1e-010 
body $-1 $13 $-1 $14 #
body $-1 $15 $-1 $16 #
body $-1 $17 $-1 $18 #
body $-1 $19 $-1 $20 #
body $-1 $21 $-1 $22 #
body $-1 $23 $-1 $24 #
body $-1 $25 $-1 $26 #
body $-1 $27 $-1 $28 #
body $-1 $29 $-1 $30 #
body $-1 $31 $-1 $32 #
body $-1 $33 $-1 $34 #
body $-1 $35 $-1 $36 #
body $-1 $37 $-1 $38 #
lump $-1 $-1 $39 $0 #
transform $-1 1 0 0 0 1 0 0 0 1 71.407208471938233 30.704642002204075 9.231820506653472 1 rotate no_reflect no_shear #
lump $-1 $-1 $40 $1 #
transform $-1 1 0 0 0 1 0 0 0 1 71.407208471938233 30.704642002204075 9.231820506653472 1 rotate no_reflect no_shear #
lump $-1 $-1 $41 $2 #
transform $-1 1 0 0 0 1 0 0 0 1 71.407208471938233 30.704642002204075 9.231820506653472 1 rotate no_reflect no_shear #
lump $-1 $-1 $42 $3 #
transform $-1 1 0 0 0 1 0 0 0 1 71.407208471938233 30.704642002204075 9.231820506653472 1 rotate no_reflect no_shear #
lump $-1 $-1 $43 $4 #
transform $-1 1 0 0 0 1 0 0 0 1 71.407208471938233 30.704642002204075 9.231820506653472 1 rotate no_reflect no_shear #
lump $-1 $-1 $44 $5 #
transform $-1 1 0 0 0 1 0 0 0 1 71.407208471938233 30.704642002204075 9.231820506653472 1 rotate no_reflect no_shear #
lump $-1 $-1 $45 $6 #
transform $-1 1 0 0 0 1 0 0 0 1 71.407208471938233 30.704642002204075 9.231820506653472 1 rotate no_reflect no_shear #
lump $-1 $-1 $46 $7 #
transform $-1 1 0 0 0 1 0 0 0 1 71.407208471938233 30.704642002204075 9.231820506653472 1 rotate no_reflect no_shear #
lump $-1 $-1 $47 $8 #
transform $-1 1 0 0 0 1 0 0 0 1 71.407208471938233 30.704642002204075 9.231820506653472 1 rotate no_reflect no_shear #
lump $-1 $-1 $48 $9 #
transform $-1 1 0 0 0 1 0 0 0 1 71.407208471938233 30.704642002204075 9.231820506653472 1 rotate no_reflect no_shear #
lump $-1 $-1 $49 $10 #
transform $-1 1 0 0 0 1 0 0 0 1 71.407208471938233 30.704642002204075 9.231820506653472 1 rotate no_reflect no_shear #
lump $-1 $-1 $50 $11 #
transform $-1 1 0 0 0 1 0 0 0 1 71.407208471938233 30.704642002204075 9.231820506653472 1 rotate no_reflect no_shear #
lump $-1 $-1 $51 $12 #
transform $-1 1 0 0 0 1 0 0 0 1 71.407208471938233 30.704642002204075 9.231820506653472 1 rotate no_reflect no_shear #
shell $-1 $-1 $-1 $52 $-1 $13 #
shell $-1 $-1 $-1 $53 $-1 $15 #
shell $-1 $-1 $-1 $54 $-1 $17 #
shell $-1 $-1 $-1 $55 $-1 $19 #
shell $-1 $-1 $-1 $56 $-1 $21 #
shell $-1 $-1 $-1 $57 $-1 $23 #
shell $-1 $-1 $-1 $58 $-1 $25 #
shell $-1 $-1 $-1 $59 $-1 $27 #
shell $-1 $-1 $-1 $60 $-1 $29 #
shell $-1 $-1 $-1 $61 $-1 $31 #
shell $-1 $-1 $-1 $62 $-1 $33 #
shell $-1 $-1 $-1 $63 $-1 $35 #
shell $-1 $-1 $-1 $64 $-1 $37 #
face $-1 $65 $66 $39 $-1 $67 reversed single #
face $-1 $68 $69 $40 $-1 $70 reversed single #
face $-1 $71 $72 $41 $-1 $73 forward single #
face $-1 $74 $75 $42 $-1 $76 reversed single #
face $-1 $77 $78 $43 $-1 $79 forward single #
face $-1 $80 $81 $44 $-1 $82 forward single #
face $-1 $83 $84 $45 $-1 $85 reversed single #
face $-1 $86 $87 $46 $-1 $88 forward single #
face $-1 $89 $90 $47 $-1 $91 forward single #
face $-1 $92 $93 $48 $-1 $94 reversed single #
face $-1 $95 $96 $49 $-1 $97 forward single #
face $-1 $98 $99 $50 $-1 $100 reversed single #
face $-1 $101 $102 $51 $-1 $103 forward single #
face $-1 $104 $105 $39 $-1 $106 forward single #
loop $-1 $-1 $107 $52 #
plane-surface $-1 71.407208471938233 0 0 -1 0 0 0 0 1 forward_v I I I I #
face $-1 $108 $109 $40 $-1 $110 reversed single #
loop $-1 $-1 $111 $53 #
plane-surface $-1 -67.443605633524044 -15.502721195370937 0 0 1 0 0 0 1 forward_v I I I I #
face $-1 $112 $113 $41 $-1 $114 reversed single #
loop $-1 $-1 $115 $54 #
plane-surface $-1 71.407208471938233 0 0 -1 0 0 0 0 1 forward_v I I I I #
face $-1 $116 $117 $42 $-1 $118 reversed single #
loop $-1 $-1 $119 $55 #
plane-surface $-1 -30.885469399243807 -128.10384130921082 107.60702893611048 -1 0 0 0 -0.68199836817093118 0.7313536940579346 forward_v I I I I #
face $-1 $120 $121 $43 $-1 $122 forward single #
loop $-1 $123 $124 $56 #
cone-surface $-1 -43.41041614127947 -25.48388863621286 4.0886191759443591 0 0.68199836817093118 -0.7313536940579346 1.5 0 0 1 I I 0 1 1.5 forward I I I I #
face $-1 $125 $126 $44 $-1 $127 forward single #
loop $-1 $128 $129 $57 #
cone-surface $-1 -35.895448096058068 -25.48388863621286 4.0886191759443591 0 0.68199836817093118 -0.7313536940579346 1.5 0 0 1 I I 0 1 1.5 forward I I I I #
face $-1 $130 $131 $45 $-1 $132 reversed single #
loop $-1 $-1 $133 $58 #
plane-surface $-1 31.958865628132781 -128.10384130921082 107.60702893611048 -1 0 0 0 -0.68199836817093118 0.7313536940579346 forward_v I I I I #
face $-1 $134 $135 $46 $-1 $136 forward single #
loop $-1 $137 $138 $59 #
cone-surface $-1 19.433918886097118 -25.48388863621286 4.0886191759443591 0 0.68199836817093118 -0.7313536940579346 1.5 0 0 1 I I 0 1 1.5 forward I I I I #
face $-1 $139 $140 $47 $-1 $141 forward single #
loop $-1 $142 $143 $60 #
cone-surface $-1 26.948886931318512 -25.48388863621286 4.0886191759443591 0 0.68199836817093118 -0.7313536940579346 1.5 0 0 1 I I 0 1 1.5 forward I I I I #
face $-1 $144 $145 $48 $-1 $146 reversed single #
loop $-1 $-1 $147 $61 #
plane-surface $-1 -63.480002795109868 88.266765202595366 144.58521638548658 1 0 0 0 -0.70710678939079041 -0.70710677298230451 forward_v I I I I #
face $-1 $148 $149 $49 $-1 $150 forward single #
loop $-1 $151 $152 $62 #
cone-surface $-1 -53.063516385492377 24.242439410995605 2.7696178552889275 0 -0.70710678939079041 -0.70710677298230451 1.5 0 0 1 I I 0 1 1.5 forward I I I I #
face $-1 $153 $154 $50 $-1 $155 reversed single #
loop $-1 $-1 $156 $63 #
plane-surface $-1 41.37569444040831 88.266765202595366 144.58521638548658 1 0 0 0 -0.70710678939079041 -0.70710677298230451 forward_v I I I I #
face $-1 $157 $158 $51 $-1 $159 forward single #
loop $-1 $160 $161 $64 #
cone-surface $-1 51.792180850025801 24.242439410995605 2.7696178552889275 0 -0.70710678939079041 -0.70710677298230451 1.5 0 0 1 I I 0 1 1.5 forward I I I I #
face $-1 $162 $163 $39 $-1 $164 reversed single #
loop $-1 $-1 $165 $65 #
plane-surface $-1 0 0 9.231820506653472 0 0 1 1 0 0 forward_v I I I I #
coedge $-1 $166 $167 $168 $169 reversed $66 $-1 #
face $-1 $170 $171 $40 $-1 $172 reversed single #
loop $-1 $-1 $173 $68 #
plane-surface $-1 -67.443605633524044 -12.241000988897129 0 0 -1 0 0 0 -1 forward_v I I I I #
coedge $-1 $174 $175 $176 $177 reversed $69 $-1 #
face $-1 $178 $179 $41 $-1 $180 reversed single #
loop $-1 $-1 $181 $71 #
plane-surface $-1 0 -30.704642002204075 0 0 1 0 0 0 1 forward_v I I I I #
coedge $-1 $182 $183 $184 $185 forward $72 $-1 #
face $-1 $186 $187 $42 $-1 $188 reversed single #
loop $-1 $-1 $189 $74 #
plane-surface $-1 -39.652932118668772 -30.704642002204082 3.1591775394763459 0 -0.68199836817093118 0.7313536940579346 1 0 0 forward_v I I I I #
coedge $-1 $190 $191 $192 $193 reversed $75 $-1 #
face $-1 $-1 $194 $43 $-1 $195 forward single #
loop $-1 $196 $197 $77 #
cone-surface $-1 -43.41041614127947 -23.007692574294232 1.4332240582803681 0 0.68199836817093118 -0.7313536940579346 0.75 0 0 1 I I -0.70710678118654757 0.70710678118654757 0.75 forward I I I I #
loop $-1 $-1 $198 $56 #
coedge $-1 $124 $124 $199 $200 reversed $78 $-1 #
face $-1 $-1 $201 $44 $-1 $202 forward single #
loop $-1 $203 $204 $80 #
cone-surface $-1 -35.895448096058068 -23.007692574294232 1.4332240582803681 0 0.68199836817093118 -0.7313536940579346 0.75 0 0 1 I I -0.70710678118654757 0.70710678118654757 0.75 forward I I I I #
loop $-1 $-1 $205 $57 #
coedge $-1 $129 $129 $206 $207 reversed $81 $-1 #
face $-1 $208 $209 $45 $-1 $210 reversed single #
loop $-1 $-1 $211 $83 #
plane-surface $-1 23.191402908707815 -30.704642002204082 3.1591775394763459 0 -0.68199836817093118 0.7313536940579346 1 0 0 forward_v I I I I #
coedge $-1 $212 $213 $214 $215 reversed $84 $-1 #
face $-1 $-1 $216 $46 $-1 $217 forward single #
loop $-1 $218 $219 $86 #
cone-surface $-1 19.433918886097118 -23.007692574294232 1.4332240582803681 0 0.68199836817093118 -0.7313536940579346 0.75 0 0 1 I I -0.70710678118654757 0.70710678118654757 0.75 forward I I I I #
loop $-1 $-1 $220 $59 #
coedge $-1 $138 $138 $221 $222 reversed $87 $-1 #
face $-1 $-1 $223 $47 $-1 $224 forward single #
loop $-1 $225 $226 $89 #
cone-surface $-1 26.948886931318512 -23.007692574294232 1.4332240582803681 0 0.68199836817093118 -0.7313536940579346 0.75 0 0 1 I I -0.70710678118654757 0.70710678118654757 0.75 forward I I I I #
loop $-1 $-1 $227 $60 #
coedge $-1 $143 $143 $228 $229 reversed $90 $-1 #
face $-1 $230 $231 $48 $-1 $232 reversed single #
loop $-1 $-1 $233 $92 #
plane-surface $-1 -53.063516385492377 -12.718278641306824 43.600174884952736 0 0.70710678939079041 0.70710677298230451 1 0 0 forward_v I I I I #
coedge $-1 $234 $235 $236 $237 reversed $93 $-1 #
face $-1 $-1 $238 $49 $-1 $239 forward single #
loop $-1 $240 $241 $95 #
cone-surface $-1 -53.063516385492377 21.777190259110483 0.30436876061016527 0 -0.70710678939079041 -0.70710677298230451 0.75 0 0 1 I I -0.70710678118654757 0.70710678118654757 0.75 forward I I I I #
loop $-1 $-1 $242 $62 #
coedge $-1 $152 $152 $243 $244 reversed $96 $-1 #
face $-1 $245 $246 $50 $-1 $247 reversed single #
loop $-1 $-1 $248 $98 #
plane-surface $-1 51.792180850025801 -12.718278641306824 43.600174884952736 0 0.70710678939079041 0.70710677298230451 1 0 0 forward_v I I I I #
coedge $-1 $249 $250 $251 $252 reversed $99 $-1 #
face $-1 $-1 $253 $51 $-1 $254 forward single #
loop $-1 $255 $256 $101 #
cone-surface $-1 51.792180850025801 21.777190259110483 0.30436876061016527 0 -0.70710678939079041 -0.70710677298230451 0.75 0 0 1 I I -0.70710678118654757 0.70710678118654757 0.75 forward I I I I #
loop $-1 $-1 $257 $64 #
coedge $-1 $161 $161 $258 $259 reversed $102 $-1 #
face $-1 $260 $261 $39 $-1 $262 reversed single #
loop $-1 $-1 $168 $104 #
plane-surface $-1 0 0 -9.231820506653472 0 0 1 1 0 0 forward_v I I I I #
coedge $-1 $263 $264 $265 $266 forward $105 $-1 #
coedge $-1 $265 $107 $267 $268 reversed $66 $-1 #
coedge $-1 $107 $265 $269 $270 forward $66 $-1 #
coedge $-1 $271 $272 $107 $169 forward $163 $-1 #
edge $-1 $273 -30.704642002204075 $274 30.704642002204075 $107 $275 forward 7 unknown #
face $-1 $276 $277 $40 $-1 $278 reversed single #
loop $-1 $-1 $279 $108 #
plane-surface $-1 -63.480002795109861 -13.871861092134033 0 -1 0 0 0 0 1 forward_v I I I I #
coedge $-1 $280 $281 $282 $283 forward $109 $-1 #
coedge $-1 $284 $111 $285 $286 reversed $69 $-1 #
coedge $-1 $111 $284 $287 $288 reversed $69 $-1 #
coedge $-1 $289 $290 $111 $177 forward $291 $-1 #
edge $-1 $292 -9.231820506653472 $293 9.231820506653472 $176 $294 forward 7 unknown #
face $-1 $295 $296 $41 $-1 $297 reversed single #
loop $-1 $-1 $298 $112 #
plane-surface $-1 0 0 -9.231820506653472 0 0 1 1 0 0 forward_v I I I I #
coedge $-1 $299 $300 $301 $302 forward $113 $-1 #
coedge $-1 $301 $115 $298 $303 reversed $72 $-1 #
coedge $-1 $115 $301 $304 $305 reversed $72 $-1 #
coedge $-1 $306 $307 $115 $185 reversed $296 $-1 #
edge $-1 $308 -9.231820506653472 $309 9.231820506653472 $184 $310 forward 7 unknown #
face $-1 $311 $312 $42 $-1 $313 forward single #
loop $-1 $-1 $314 $116 #
plane-surface $-1 -48.420394838093742 -128.10384130921082 107.60702893611048 1 0 0 0 0.68199836817093118 -0.7313536940579346 forward_v I I I I #
coedge $-1 $315 $316 $317 $318 reversed $117 $-1 #
coedge $-1 $191 $119 $319 $320 reversed $75 $-1 #
coedge $-1 $119 $190 $315 $321 reversed $75 $-1 #
coedge $-1 $317 $322 $119 $193 forward $312 $-1 #
edge $-1 $323 33.347278652401336 $324 39.859390812802872 $192 $325 forward 7 unknown #
loop $-1 $-1 $199 $120 #
plane-surface $-1 -39.652932118668772 -30.704642002204082 3.1591775394763459 0 -0.68199836817093118 0.7313536940579346 1 0 0 forward_v I I I I #
loop $-1 $-1 $326 $77 #
coedge $-1 $197 $197 $198 $327 reversed $121 $-1 #
coedge $-1 $198 $198 $197 $327 forward $123 $-1 #
coedge $-1 $199 $199 $124 $200 forward $194 $-1 #
edge $-1 $328 -3.4006073343905915e-016 $328 6.2831853071796004 $199 $329 forward 7 unknown #
loop $-1 $-1 $206 $125 #
plane-surface $-1 -39.652932118668772 -30.704642002204082 3.1591775394763459 0 -0.68199836817093118 0.7313536940579346 1 0 0 forward_v I I I I #
loop $-1 $-1 $330 $80 #
coedge $-1 $204 $204 $205 $331 reversed $126 $-1 #
coedge $-1 $205 $205 $204 $331 forward $128 $-1 #
coedge $-1 $206 $206 $129 $207 forward $201 $-1 #
edge $-1 $332 -3.4006073343905915e-016 $332 6.2831853071796004 $206 $333 forward 7 unknown #
face $-1 $334 $335 $45 $-1 $336 reversed single #
loop $-1 $-1 $337 $130 #
plane-surface $-1 14.423940189282849 -128.10384130921082 107.60702893611048 1 0 0 0 0.68199836817093118 -0.7313536940579346 forward_v I I I I #
coedge $-1 $338 $339 $340 $341 reversed $131 $-1 #
coedge $-1 $213 $133 $342 $343 reversed $84 $-1 #
coedge $-1 $133 $212 $338 $344 reversed $84 $-1 #
coedge $-1 $340 $345 $133 $215 forward $346 $-1 #
edge $-1 $347 33.347278652401336 $348 39.859390812802872 $214 $349 forward 7 unknown #
loop $-1 $-1 $221 $134 #
plane-surface $-1 23.191402908707815 -30.704642002204082 3.1591775394763459 0 -0.68199836817093118 0.7313536940579346 1 0 0 forward_v I I I I #
loop $-1 $-1 $350 $86 #
coedge $-1 $219 $219 $220 $351 reversed $135 $-1 #
coedge $-1 $220 $220 $219 $351 forward $137 $-1 #
coedge $-1 $221 $221 $138 $222 forward $216 $-1 #
edge $-1 $352 -3.4006073343905915e-016 $352 6.2831853071796004 $221 $353 forward 7 unknown #
loop $-1 $-1 $228 $139 #
plane-surface $-1 23.191402908707815 -30.704642002204082 3.1591775394763459 0 -0.68199836817093118 0.7313536940579346 1 0 0 forward_v I I I I #
loop $-1 $-1 $354 $89 #
coedge $-1 $226 $226 $227 $355 reversed $140 $-1 #
coedge $-1 $227 $227 $226 $355 forward $142 $-1 #
coedge $-1 $228 $228 $143 $229 forward $223 $-1 #
edge $-1 $356 -3.4006073343905915e-016 $356 6.2831853071796004 $228 $357 forward 7 unknown #
face $-1 $358 $359 $48 $-1 $360 reversed single #
loop $-1 $-1 $361 $144 #
plane-surface $-1 -42.647029975874887 88.266765202595366 144.58521638548658 -1 0 0 0 0.70710678939079041 0.70710677298230451 forward_v I I I I #
coedge $-1 $362 $363 $364 $365 reversed $145 $-1 #
coedge $-1 $235 $147 $366 $367 reversed $93 $-1 #
coedge $-1 $147 $234 $362 $368 reversed $93 $-1 #
coedge $-1 $364 $369 $147 $237 forward $370 $-1 #
edge $-1 $371 13.428740599093608 $372 22.483307661826444 $236 $373 forward 7 unknown #
loop $-1 $-1 $243 $148 #
plane-surface $-1 -53.063516385492377 -12.718278641306824 43.600174884952736 0 0.70710678939079041 0.70710677298230451 1 0 0 forward_v I I I I #
loop $-1 $-1 $374 $95 #
coedge $-1 $241 $241 $242 $375 reversed $149 $-1 #
coedge $-1 $242 $242 $241 $375 forward $151 $-1 #
coedge $-1 $243 $243 $152 $244 forward $238 $-1 #
edge $-1 $376 4.1869148262596796e-016 $376 6.2831853071796004 $243 $377 forward 7 unknown #
face $-1 $378 $379 $50 $-1 $380 forward single #
loop $-1 $-1 $381 $153 #
plane-surface $-1 62.208667259643292 88.266765202595366 144.58521638548658 -1 0 0 0 0.70710678939079041 0.70710677298230451 forward_v I I I I #
coedge $-1 $382 $383 $384 $385 reversed $154 $-1 #
coedge $-1 $250 $156 $386 $387 reversed $99 $-1 #
coedge $-1 $156 $249 $382 $388 reversed $99 $-1 #
coedge $-1 $384 $389 $156 $252 forward $379 $-1 #
edge $-1 $390 13.428740599093608 $391 22.483307661826444 $251 $392 forward 7 unknown #
loop $-1 $-1 $258 $157 #
plane-surface $-1 51.792180850025801 -12.718278641306824 43.600174884952736 0 0.70710678939079041 0.70710677298230451 1 0 0 forward_v I I I I #
loop $-1 $-1 $393 $101 #
coedge $-1 $256 $256 $257 $394 reversed $158 $-1 #
coedge $-1 $257 $257 $256 $394 forward $160 $-1 #
coedge $-1 $258 $258 $161 $259 forward $253 $-1 #
edge $-1 $395 4.1869148262596796e-016 $395 6.2831853071796004 $258 $396 forward 7 unknown #
face $-1 $397 $398 $39 $-1 $399 reversed single #
loop $-1 $-1 $400 $162 #
plane-surface $-1 0 -30.704642002204075 0 0 1 0 0 0 1 forward_v I I I I #
coedge $-1 $401 $165 $402 $403 forward $105 $-1 #
coedge $-1 $165 $401 $404 $405 forward $105 $-1 #
coedge $-1 $167 $166 $165 $266 reversed $66 $-1 #
edge $-1 $406 -30.704642002204075 $407 30.704642002204075 $265 $408 forward 7 unknown #
coedge $-1 $409 $402 $166 $268 forward $410 $-1 #
edge $-1 $407 -9.231820506653472 $273 9.231820506653472 $166 $411 forward 7 unknown #
coedge $-1 $404 $412 $167 $270 reversed $261 $-1 #
edge $-1 $406 -9.231820506653472 $274 9.231820506653472 $167 $413 forward 7 unknown #
coedge $-1 $414 $168 $412 $415 forward $163 $-1 #
coedge $-1 $168 $414 $409 $416 forward $163 $-1 #
vertex $-1 $169 $417 #
vertex $-1 $270 $418 #
straight-curve $-1 71.407208471938233 0 -9.231820506653472 0 -1 0 I I #
face $-1 $419 $420 $40 $-1 $421 forward single #
loop $-1 $-1 $422 $170 #
plane-surface $-1 0 0 -9.231820506653472 0 0 1 1 0 0 forward_v I I I I #
coedge $-1 $423 $424 $284 $425 forward $171 $-1 #
coedge $-1 $426 $173 $422 $427 reversed $109 $-1 #
coedge $-1 $173 $426 $428 $429 reversed $109 $-1 #
coedge $-1 $424 $423 $173 $283 reversed $171 $-1 #
edge $-1 $430 -9.231820506653472 $431 9.231820506653472 $282 $432 forward 7 unknown #
coedge $-1 $175 $174 $279 $425 reversed $69 $-1 #
coedge $-1 $433 $434 $174 $286 forward $277 $-1 #
edge $-1 $435 29.758199978347839 $292 37.685405655176211 $285 $436 forward 7 unknown #
coedge $-1 $437 $438 $175 $288 forward $420 $-1 #
edge $-1 $293 -37.685405655176211 $439 -29.758199978347839 $287 $440 forward 7 unknown #
coedge $-1 $441 $176 $438 $442 reversed $291 $-1 #
coedge $-1 $176 $441 $433 $443 reversed $291 $-1 #
loop $-1 $-1 $441 $419 #
vertex $-1 $443 $444 #
vertex $-1 $177 $445 #
straight-curve $-1 -71.407208471938233 -15.502721195370937 0 0 0 1 I I #
face $-1 $446 $447 $41 $-1 $448 reversed single #
loop $-1 $-1 $449 $178 #
plane-surface $-1 76.006479078085718 -27.704642002204075 0 0 -1 0 0 0 -1 forward_v I I I I #
coedge $-1 $450 $451 $182 $303 forward $179 $-1 #
coedge $-1 $452 $181 $451 $453 reversed $113 $-1 #
coedge $-1 $181 $452 $454 $455 reversed $113 $-1 #
coedge $-1 $183 $182 $181 $302 reversed $72 $-1 #
edge $-1 $456 -9.231820506653472 $457 9.231820506653472 $181 $458 forward 7 unknown #
edge $-1 $457 -30.704642002204075 $309 -27.704642002204075 $298 $459 forward 7 unknown #
coedge $-1 $454 $460 $183 $305 forward $461 $-1 #
edge $-1 $308 27.704642002204075 $456 30.704642002204075 $304 $462 forward 7 unknown #
coedge $-1 $449 $184 $460 $463 reversed $296 $-1 #
coedge $-1 $184 $449 $450 $464 reversed $296 $-1 #
vertex $-1 $305 $465 #
vertex $-1 $464 $466 #
straight-curve $-1 71.407208471938233 -27.704642002204075 0 0 0 -1 I I #
face $-1 $-1 $467 $42 $-1 $468 reversed single #
loop $-1 $-1 $192 $186 #
plane-surface $-1 0 0 9.231820506653472 0 0 1 1 0 0 forward_v I I I I #
coedge $-1 $469 $470 $471 $472 reversed $187 $-1 #
coedge $-1 $473 $189 $191 $321 forward $117 $-1 #
coedge $-1 $189 $473 $469 $474 forward $117 $-1 #
coedge $-1 $471 $192 $189 $318 forward $312 $-1 #
edge $-1 $324 11.05900333990942 $475 28.593928778759356 $317 $476 forward 7 unknown #
coedge $-1 $477 $478 $190 $320 forward $467 $-1 #
edge $-1 $479 -50.644336928578888 $323 -44.57169396140177 $319 $480 forward 7 unknown #
edge $-1 $324 -8.9041898787287472 $479 -9.739602292442716e-015 $191 $481 forward 7 unknown #
coedge $-1 $192 $471 $477 $482 forward $312 $-1 #
vertex $-1 $320 $483 #
vertex $-1 $193 $484 #
straight-curve $-1 -30.885469399243807 -64.051920654605411 9.2318205066534702 0 1 0 I I #
coedge $-1 $326 $326 $-1 $485 reversed $196 $-1 #
edge $-1 $486 0 $486 6.2831853071796004 $197 $487 forward 7 unknown #
vertex $-1 $200 $488 #
ellipse-curve $-1 -43.41041614127947 -27.448585922003307 6.1954990230649152 0 -0.68199836817093118 0.7313536940579346 1.5 0 0 1 I I #
coedge $-1 $330 $330 $-1 $489 reversed $203 $-1 #
edge $-1 $490 0 $490 6.2831853071796004 $204 $491 forward 7 unknown #
vertex $-1 $207 $492 #
ellipse-curve $-1 -35.895448096058068 -27.448585922003307 6.1954990230649152 0 -0.68199836817093118 0.7313536940579346 1.5 0 0 1 I I #
face $-1 $-1 $346 $45 $-1 $493 forward single #
loop $-1 $-1 $494 $208 #
plane-surface $-1 0 -30.704642002204075 0 0 1 0 0 0 1 forward_v I I I I #
coedge $-1 $495 $496 $497 $498 reversed $209 $-1 #
coedge $-1 $499 $211 $213 $344 forward $131 $-1 #
coedge $-1 $211 $499 $495 $500 forward $131 $-1 #
coedge $-1 $497 $214 $211 $341 forward $346 $-1 #
edge $-1 $348 -20.363164173778873 $501 -2.8282387349289415 $340 $502 forward 7 unknown #
coedge $-1 $503 $504 $212 $343 forward $335 $-1 #
edge $-1 $505 -50.644336928578888 $347 -44.57169396140177 $342 $506 forward 7 unknown #
edge $-1 $348 -8.9041898787287472 $505 -9.739602292442716e-015 $213 $507 forward 7 unknown #
coedge $-1 $214 $497 $503 $508 forward $346 $-1 #
loop $-1 $-1 $497 $334 #
vertex $-1 $343 $509 #
vertex $-1 $215 $510 #
straight-curve $-1 31.958865628132781 -64.051920654605411 9.2318205066534702 0 1 0 I I #
coedge $-1 $350 $350 $-1 $511 reversed $218 $-1 #
edge $-1 $512 0 $512 6.2831853071796004 $219 $513 forward 7 unknown #
vertex $-1 $222 $514 #
ellipse-curve $-1 19.433918886097118 -27.448585922003307 6.1954990230649152 0 -0.68199836817093118 0.7313536940579346 1.5 0 0 1 I I #
coedge $-1 $354 $354 $-1 $515 reversed $225 $-1 #
edge $-1 $516 0 $516 6.2831853071796004 $226 $517 forward 7 unknown #
vertex $-1 $229 $518 #
ellipse-curve $-1 26.948886931318512 -27.448585922003307 6.1954990230649152 0 -0.68199836817093118 0.7313536940579346 1.5 0 0 1 I I #
face $-1 $-1 $370 $48 $-1 $519 forward single #
loop $-1 $-1 $520 $230 #
plane-surface $-1 0 30.704642002204075 0 0 -1 0 0 0 -1 forward_v I I I I #
coedge $-1 $521 $522 $523 $524 reversed $231 $-1 #
coedge $-1 $525 $233 $235 $368 forward $145 $-1 #
coedge $-1 $233 $525 $521 $526 forward $145 $-1 #
coedge $-1 $523 $236 $233 $365 forward $370 $-1 #
edge $-1 $372 -36.94824460236368 $527 -16.115271783128698 $364 $528 forward 7 unknown #
coedge $-1 $529 $530 $234 $367 forward $359 $-1 #
edge $-1 $531 -72.11535495893483 $371 -63.060787686089817 $366 $532 forward 7 unknown #
edge $-1 $372 48.604192314302928 $531 61.409284004408171 $235 $533 forward 7 unknown #
coedge $-1 $236 $523 $529 $534 forward $370 $-1 #
loop $-1 $-1 $523 $358 #
vertex $-1 $367 $535 #
vertex $-1 $237 $536 #
straight-curve $-1 -63.480002795109868 44.133382601297683 9.2318205066534773 0 -1 0 I I #
coedge $-1 $374 $374 $-1 $537 reversed $240 $-1 #
edge $-1 $538 0 $538 6.2831853071796004 $241 $539 forward 7 unknown #
vertex $-1 $244 $540 #
ellipse-curve $-1 -53.063516385492377 26.17735847083765 4.7045368702309762 0 0.70710678939079041 0.70710677298230451 1.5 0 0 1 I I #
face $-1 $-1 $541 $50 $-1 $542 reversed single #
loop $-1 $-1 $251 $245 #
plane-surface $-1 0 0 9.231820506653472 0 0 1 1 0 0 forward_v I I I I #
coedge $-1 $543 $544 $545 $546 reversed $246 $-1 #
coedge $-1 $547 $248 $250 $388 forward $154 $-1 #
coedge $-1 $248 $547 $543 $548 forward $154 $-1 #
coedge $-1 $545 $251 $248 $385 forward $379 $-1 #
edge $-1 $391 15.47960401539541 $549 36.312576834630391 $384 $550 forward 7 unknown #
coedge $-1 $551 $552 $249 $387 forward $541 $-1 #
edge $-1 $553 -72.11535495893483 $390 -63.060787686089817 $386 $554 forward 7 unknown #
edge $-1 $391 48.604192314302928 $553 61.409284004408171 $250 $555 forward 7 unknown #
coedge $-1 $251 $545 $551 $556 forward $379 $-1 #
vertex $-1 $387 $557 #
vertex $-1 $252 $558 #
straight-curve $-1 41.37569444040831 44.133382601297683 9.2318205066534773 0 -1 0 I I #
coedge $-1 $393 $393 $-1 $559 reversed $255 $-1 #
edge $-1 $560 0 $560 6.2831853071796004 $256 $561 forward 7 unknown #
vertex $-1 $259 $562 #
ellipse-curve $-1 51.792180850025801 26.17735847083765 4.7045368702309762 0 0.70710678939079041 0.70710677298230451 1.5 0 0 1 I I #
face $-1 $-1 $410 $39 $-1 $563 reversed single #
loop $-1 $-1 $564 $260 #
plane-surface $-1 -71.407208471938233 0 0 1 0 0 0 0 -1 forward_v I I I I #
coedge $-1 $412 $404 $565 $566 forward $261 $-1 #
coedge $-1 $264 $263 $567 $568 forward $105 $-1 #
coedge $-1 $267 $569 $263 $403 reversed $410 $-1 #
edge $-1 $407 -71.407208471938233 $570 71.407208471938233 $402 $571 forward 7 unknown #
coedge $-1 $400 $269 $264 $405 reversed $261 $-1 #
edge $-1 $572 -71.407208471938233 $406 71.407208471938233 $404 $573 forward 7 unknown #
vertex $-1 $266 $574 #
vertex $-1 $266 $575 #
straight-curve $-1 71.407208471938233 0 9.231820506653472 0 1 0 I I #
coedge $-1 $569 $267 $272 $416 reversed $410 $-1 #
loop $-1 $-1 $267 $397 #
straight-curve $-1 71.407208471938233 30.704642002204075 0 0 0 -1 I I #
coedge $-1 $269 $400 $271 $415 reversed $261 $-1 #
straight-curve $-1 71.407208471938233 -30.704642002204075 0 0 0 -1 I I #
coedge $-1 $272 $271 $576 $577 forward $163 $-1 #
edge $-1 $274 -71.407208471938233 $578 71.407208471938233 $412 $579 forward 7 unknown #
edge $-1 $580 -71.407208471938233 $273 71.407208471938233 $409 $581 forward 7 unknown #
point $-1 71.407208471938233 30.704642002204075 -9.231820506653472 #
point $-1 71.407208471938233 -30.704642002204075 -9.231820506653472 #
face $-1 $-1 $291 $40 $-1 $582 reversed single #
loop $-1 $-1 $428 $276 #
plane-surface $-1 0 0 9.231820506653472 0 0 1 1 0 0 forward_v I I I I #
coedge $-1 $434 $433 $280 $427 forward $277 $-1 #
coedge $-1 $282 $279 $434 $583 reversed $171 $-1 #
coedge $-1 $279 $282 $437 $584 reversed $171 $-1 #
edge $-1 $439 -9.231820506653472 $435 9.231820506653472 $279 $585 forward 7 unknown #
coedge $-1 $281 $280 $441 $586 reversed $109 $-1 #
edge $-1 $587 -37.685405655176211 $431 -29.758199978347839 $422 $588 forward 7 unknown #
coedge $-1 $438 $437 $281 $429 forward $420 $-1 #
edge $-1 $430 29.758199978347839 $589 37.685405655176211 $428 $590 forward 7 unknown #
vertex $-1 $429 $591 #
vertex $-1 $427 $592 #
straight-curve $-1 -63.480002795109861 -12.241000988897129 0 0 0 -1 I I #
coedge $-1 $422 $285 $290 $443 forward $277 $-1 #
coedge $-1 $285 $422 $423 $583 forward $277 $-1 #
vertex $-1 $286 $593 #
straight-curve $-1 -33.721802816762022 -15.502721195370937 -9.231820506653472 -1 0 0 I I #
coedge $-1 $428 $287 $424 $584 forward $420 $-1 #
coedge $-1 $287 $428 $289 $442 forward $420 $-1 #
vertex $-1 $288 $594 #
straight-curve $-1 -33.721802816762022 -15.502721195370937 9.231820506653472 1 0 0 I I #
coedge $-1 $290 $289 $426 $586 forward $291 $-1 #
edge $-1 $589 12.241000988897129 $293 15.502721195370937 $289 $595 forward 7 unknown #
edge $-1 $292 -15.502721195370937 $587 -12.241000988897129 $290 $596 forward 7 unknown #
point $-1 -71.407208471938233 -15.502721195370937 -9.231820506653472 #
point $-1 -71.407208471938233 -15.502721195370937 9.231820506653472 #
face $-1 $-1 $461 $41 $-1 $597 forward single #
loop $-1 $-1 $598 $295 #
plane-surface $-1 80.605749684233189 -29.204642002204075 0 -1 0 0 0 0 1 forward_v I I I I #
coedge $-1 $307 $306 $599 $600 forward $296 $-1 #
coedge $-1 $601 $298 $307 $464 forward $179 $-1 #
coedge $-1 $298 $601 $299 $453 forward $179 $-1 #
coedge $-1 $300 $299 $598 $602 reversed $113 $-1 #
edge $-1 $603 -4.5992706061474706 $457 4.5992706061474848 $299 $604 forward 7 unknown #
coedge $-1 $605 $304 $300 $455 forward $461 $-1 #
edge $-1 $456 -4.5992706061474848 $606 4.5992706061474706 $300 $607 forward 7 unknown #
vertex $-1 $455 $608 #
vertex $-1 $303 $609 #
straight-curve $-1 71.407208471938233 -30.704642002204075 0 0 0 -1 I I #
straight-curve $-1 71.407208471938233 0 -9.231820506653472 0 1 0 I I #
coedge $-1 $304 $605 $306 $463 forward $461 $-1 #
loop $-1 $-1 $304 $446 #
straight-curve $-1 71.407208471938233 0 9.231820506653472 0 -1 0 I I #
edge $-1 $610 -4.5992706061474706 $308 4.5992706061474706 $306 $611 forward 7 unknown #
edge $-1 $309 -4.5992706061474706 $612 4.5992706061474706 $307 $613 forward 7 unknown #
point $-1 71.407208471938247 -27.704642002204075 9.231820506653472 #
point $-1 71.407208471938247 -27.704642002204075 -9.231820506653472 #
loop $-1 $-1 $319 $311 #
plane-surface $-1 0 -30.704642002204075 0 0 1 0 0 0 1 forward_v I I I I #
coedge $-1 $470 $314 $316 $474 reversed $187 $-1 #
coedge $-1 $314 $469 $614 $615 reversed $187 $-1 #
coedge $-1 $322 $317 $314 $472 forward $312 $-1 #
edge $-1 $475 -39.859390812802872 $616 -33.347278652401336 $471 $617 forward 7 unknown #
coedge $-1 $316 $315 $478 $618 reversed $117 $-1 #
edge $-1 $619 9.739602292442716e-015 $475 8.9041898787287472 $469 $620 forward 7 unknown #
vertex $-1 $318 $621 #
straight-curve $-1 -19.826466059334386 -24.192529841802543 9.231820506653472 -1 0 0 I I #
coedge $-1 $614 $319 $322 $482 reversed $467 $-1 #
coedge $-1 $319 $614 $473 $618 forward $467 $-1 #
vertex $-1 $320 $622 #
straight-curve $-1 -30.885469399243807 -30.704642002204075 53.803514468055241 0 0 1 I I #
straight-curve $-1 -30.885469399243807 -30.704642002204082 3.1591775394763459 0 -0.7313536940579346 -0.68199836817093118 I I #
edge $-1 $616 -124.42687391617946 $323 -106.89194847732952 $477 $623 forward 7 unknown #
point $-1 -30.885469399243803 -30.704642002204075 9.231820506653472 #
point $-1 -30.885469399243807 -24.192529841802539 9.231820506653472 #
edge $-1 $624 1 $624 0 $326 $-1 forward 7 unknown #
vertex $-1 $327 $625 #
ellipse-curve $-1 -43.41041614127947 -23.519191350422432 1.981739328823819 0 -0.68199836817093118 0.7313536940579346 1.5 0 0 1 I I #
point $-1 -41.91041614127947 -27.448585922003293 6.1954990230648992 #
edge $-1 $626 1 $626 0 $330 $-1 forward 7 unknown #
vertex $-1 $331 $627 #
ellipse-curve $-1 -35.895448096058068 -23.519191350422432 1.981739328823819 0 -0.68199836817093118 0.7313536940579346 1.5 0 0 1 I I #
point $-1 -34.395448096058068 -27.448585922003293 6.1954990230648992 #
plane-surface $-1 0 0 9.231820506653472 0 0 1 1 0 0 forward_v I I I I #
coedge $-1 $504 $503 $496 $628 forward $335 $-1 #
coedge $-1 $496 $337 $339 $500 reversed $209 $-1 #
coedge $-1 $337 $495 $494 $628 reversed $209 $-1 #
coedge $-1 $345 $340 $337 $498 forward $346 $-1 #
edge $-1 $501 -39.859390812802872 $629 -33.347278652401336 $497 $630 forward 7 unknown #
coedge $-1 $339 $338 $504 $631 reversed $131 $-1 #
edge $-1 $632 9.739602292442716e-015 $501 8.9041898787287472 $495 $633 forward 7 unknown #
vertex $-1 $341 $634 #
straight-curve $-1 11.595701454353907 -24.192529841802543 9.231820506653472 -1 0 0 I I #
coedge $-1 $494 $342 $345 $508 reversed $335 $-1 #
coedge $-1 $342 $494 $499 $631 forward $335 $-1 #
vertex $-1 $343 $635 #
straight-curve $-1 31.958865628132781 -30.704642002204075 53.803514468055241 0 0 1 I I #
straight-curve $-1 31.958865628132781 -30.704642002204082 3.1591775394763459 0 -0.7313536940579346 -0.68199836817093118 I I #
edge $-1 $629 -61.582538888802873 $347 -44.047613449952934 $503 $636 forward 7 unknown #
point $-1 31.958865628132784 -30.704642002204075 9.231820506653472 #
point $-1 31.958865628132781 -24.192529841802539 9.231820506653472 #
edge $-1 $637 1 $637 0 $350 $-1 forward 7 unknown #
vertex $-1 $351 $638 #
ellipse-curve $-1 19.433918886097118 -23.519191350422432 1.981739328823819 0 -0.68199836817093118 0.7313536940579346 1.5 0 0 1 I I #
point $-1 20.933918886097118 -27.448585922003293 6.1954990230648992 #
edge $-1 $639 1 $639 0 $354 $-1 forward 7 unknown #
vertex $-1 $355 $640 #
ellipse-curve $-1 26.948886931318512 -23.519191350422432 1.981739328823819 0 -0.68199836817093118 0.7313536940579346 1.5 0 0 1 I I #
point $-1 28.448886931318512 -27.448585922003293 6.1954990230648992 #
plane-surface $-1 0 0 9.231820506653472 0 0 1 1 0 0 forward_v I I I I #
coedge $-1 $530 $529 $522 $641 forward $359 $-1 #
coedge $-1 $522 $361 $363 $526 reversed $231 $-1 #
coedge $-1 $361 $521 $520 $641 reversed $231 $-1 #
coedge $-1 $369 $364 $361 $524 forward $370 $-1 #
edge $-1 $527 -22.483307661826444 $642 -13.428740599093608 $523 $643 forward 7 unknown #
coedge $-1 $363 $362 $530 $644 reversed $145 $-1 #
edge $-1 $645 -61.409284004408171 $527 -48.604192314302928 $521 $646 forward 7 unknown #
vertex $-1 $365 $647 #
straight-curve $-1 -26.531758192746189 21.650074939471239 9.2318205066534702 1 0 0 I I #
coedge $-1 $520 $366 $369 $534 reversed $359 $-1 #
coedge $-1 $366 $520 $525 $644 forward $359 $-1 #
vertex $-1 $367 $648 #
straight-curve $-1 -63.480002795109868 30.704642002204075 72.292608192743288 0 0 1 I I #
straight-curve $-1 -63.480002795109868 -12.718278641306824 43.600174884952736 0 0.70710677298230451 -0.70710678939079041 I I #
edge $-1 $642 42.647029975874887 $371 63.480002795109868 $529 $649 forward 7 unknown #
point $-1 -63.480002795109868 30.704642002204075 9.231820506653472 #
point $-1 -63.480002795109868 21.650074939471239 9.2318205066534702 #
edge $-1 $650 1 $650 0 $374 $-1 forward 7 unknown #
vertex $-1 $375 $651 #
ellipse-curve $-1 -53.063516385492377 22.307520351153578 0.83469884034689368 0 0.70710678939079041 0.70710677298230451 1.5 0 0 1 I I #
point $-1 -51.563516385492377 26.177358470837635 4.7045368702309611 #
loop $-1 $-1 $386 $378 #
plane-surface $-1 0 30.704642002204075 0 0 -1 0 0 0 -1 forward_v I I I I #
coedge $-1 $544 $381 $383 $548 reversed $246 $-1 #
coedge $-1 $381 $543 $652 $653 reversed $246 $-1 #
coedge $-1 $389 $384 $381 $546 forward $379 $-1 #
edge $-1 $549 -22.483307661826444 $654 -13.428740599093608 $545 $655 forward 7 unknown #
coedge $-1 $383 $382 $552 $656 reversed $154 $-1 #
edge $-1 $657 -61.409284004408171 $549 -48.604192314302928 $543 $658 forward 7 unknown #
vertex $-1 $385 $659 #
straight-curve $-1 25.8960904250129 21.650074939471239 9.2318205066534702 1 0 0 I I #
coedge $-1 $652 $386 $389 $556 reversed $541 $-1 #
coedge $-1 $386 $652 $547 $656 forward $541 $-1 #
vertex $-1 $387 $660 #
straight-curve $-1 41.37569444040831 30.704642002204075 72.292608192743288 0 0 1 I I #
straight-curve $-1 41.37569444040831 -12.718278641306824 43.600174884952736 0 0.70710677298230451 -0.70710678939079041 I I #
edge $-1 $654 -62.208667259643292 $390 -41.37569444040831 $551 $661 forward 7 unknown #
point $-1 41.37569444040831 30.704642002204075 9.231820506653472 #
point $-1 41.37569444040831 21.650074939471239 9.2318205066534702 #
edge $-1 $662 1 $662 0 $393 $-1 forward 7 unknown #
vertex $-1 $394 $663 #
ellipse-curve $-1 51.792180850025801 22.307520351153578 0.83469884034689368 0 0.70710678939079041 0.70710677298230451 1.5 0 0 1 I I #
point $-1 53.292180850025801 26.177358470837635 4.7045368702309611 #
plane-surface $-1 0 30.704642002204075 0 0 -1 0 0 0 -1 forward_v I I I I #
coedge $-1 $576 $567 $569 $664 forward $398 $-1 #
coedge $-1 $567 $576 $400 $566 reversed $398 $-1 #
edge $-1 $572 -9.231820506653472 $578 9.231820506653472 $565 $665 forward 7 unknown #
coedge $-1 $564 $565 $401 $568 reversed $398 $-1 #
edge $-1 $570 -30.704642002204075 $572 30.704642002204075 $567 $666 forward 7 unknown #
coedge $-1 $402 $409 $564 $664 reversed $410 $-1 #
vertex $-1 $403 $667 #
straight-curve $-1 0 30.704642002204075 9.231820506653472 -1 0 0 I I #
vertex $-1 $568 $668 #
straight-curve $-1 0 -30.704642002204075 9.231820506653472 1 0 0 I I #
point $-1 71.407208471938233 -30.704642002204075 9.231820506653472 #
point $-1 71.407208471938233 30.704642002204075 9.231820506653472 #
coedge $-1 $565 $564 $414 $577 reversed $398 $-1 #
edge $-1 $578 -30.704642002204075 $580 30.704642002204075 $576 $669 forward 7 unknown #
vertex $-1 $577 $670 #
straight-curve $-1 0 -30.704642002204075 -9.231820506653472 -1 0 0 I I #
vertex $-1 $416 $671 #
straight-curve $-1 0 30.704642002204075 -9.231820506653472 1 0 0 I I #
plane-surface $-1 -71.407208471938233 0 0 1 0 0 0 0 -1 forward_v I I I I #
edge $-1 $431 5.3050704428301128 $435 8.5667906493039201 $434 $672 forward 7 unknown #
edge $-1 $439 -8.5667906493039201 $430 -5.3050704428301128 $437 $673 forward 7 unknown #
straight-curve $-1 -63.480002795109861 -15.502721195370937 0 0 0 -1 I I #
edge $-1 $589 -9.231820506653472 $587 9.231820506653472 $441 $674 forward 7 unknown #
vertex $-1 $586 $675 #
straight-curve $-1 -33.721802816762022 -12.241000988897129 -9.231820506653472 1 0 0 I I #
vertex $-1 $442 $676 #
straight-curve $-1 -33.721802816762022 -12.241000988897129 9.231820506653472 -1 0 0 I I #
point $-1 -63.480002795109861 -12.241000988897129 9.231820506653472 #
point $-1 -63.480002795109861 -12.241000988897129 -9.231820506653472 #
point $-1 -63.480002795109861 -15.502721195370937 -9.231820506653472 #
point $-1 -63.480002795109861 -15.502721195370937 9.231820506653472 #
straight-curve $-1 -71.407208471938233 0 9.231820506653472 0 -1 0 I I #
straight-curve $-1 -71.407208471938233 0 -9.231820506653472 0 1 0 I I #
plane-surface $-1 0 0 9.231820506653472 0 0 1 1 0 0 forward_v I I I I #
coedge $-1 $677 $678 $452 $602 forward $447 $-1 #
coedge $-1 $678 $677 $449 $600 reversed $447 $-1 #
edge $-1 $610 -9.231820506653472 $612 9.231820506653472 $599 $679 forward 7 unknown #
coedge $-1 $451 $450 $677 $680 forward $179 $-1 #
edge $-1 $606 -9.231820506653472 $603 9.231820506653472 $598 $681 forward 7 unknown #
vertex $-1 $602 $682 #
straight-curve $-1 76.006479078085718 -30.704642002204075 -9.231820506653472 -1 0 0 I I #
coedge $-1 $460 $454 $678 $683 forward $461 $-1 #
vertex $-1 $683 $684 #
straight-curve $-1 76.006479078085718 -30.704642002204075 9.231820506653472 1 0 0 I I #
point $-1 71.407208471938233 -30.704642002204075 9.231820506653472 #
point $-1 71.407208471938233 -30.704642002204075 -9.231820506653472 #
vertex $-1 $683 $685 #
straight-curve $-1 76.006479078085718 -27.704642002204075 9.231820506653472 -1 0 0 I I #
vertex $-1 $680 $686 #
straight-curve $-1 76.006479078085718 -27.704642002204075 -9.231820506653472 1 0 0 I I #
coedge $-1 $478 $477 $470 $615 forward $467 $-1 #
edge $-1 $616 44.57169396140177 $619 50.644336928578888 $614 $687 forward 7 unknown #
vertex $-1 $482 $688 #
straight-curve $-1 -48.420394838093742 -64.051920654605411 9.2318205066534702 0 -1 0 I I #
edge $-1 $619 -28.593928778759356 $479 -11.05900333990942 $478 $689 forward 7 unknown #
vertex $-1 $618 $690 #
straight-curve $-1 -48.420394838093742 -30.704642002204082 3.1591775394763459 0 0.7313536940579346 0.68199836817093118 I I #
point $-1 -48.420394838093742 -24.192529841802539 9.231820506653472 #
point $-1 -30.885469399243807 -30.704642002204075 3.1591775394763526 #
straight-curve $-1 76.006479078085718 -30.704642002204075 9.231820506653472 1 0 0 I I #
vertex $-1 $485 $691 #
point $-1 -41.91041614127947 -23.519191350422432 1.981739328823819 #
vertex $-1 $489 $692 #
point $-1 -34.395448096058068 -23.519191350422432 1.981739328823819 #
edge $-1 $629 44.57169396140177 $632 50.644336928578888 $494 $693 forward 7 unknown #
vertex $-1 $508 $694 #
straight-curve $-1 14.423940189282849 -64.051920654605411 9.2318205066534702 0 -1 0 I I #
edge $-1 $632 2.8282387349289415 $505 20.363164173778873 $504 $695 forward 7 unknown #
vertex $-1 $631 $696 #
straight-curve $-1 14.423940189282849 -30.704642002204082 3.1591775394763459 0 0.7313536940579346 0.68199836817093118 I I #
point $-1 14.423940189282849 -24.192529841802539 9.231820506653472 #
point $-1 31.958865628132781 -30.704642002204075 3.1591775394763526 #
straight-curve $-1 76.006479078085718 -30.704642002204075 9.231820506653472 1 0 0 I I #
vertex $-1 $511 $697 #
point $-1 20.933918886097118 -23.519191350422432 1.981739328823819 #
vertex $-1 $515 $698 #
point $-1 28.448886931318512 -23.519191350422432 1.981739328823819 #
edge $-1 $642 63.060787686089817 $645 72.11535495893483 $520 $699 forward 7 unknown #
vertex $-1 $534 $700 #
straight-curve $-1 -42.647029975874887 44.133382601297683 9.2318205066534773 0 1 0 I I #
edge $-1 $645 16.115271783128698 $531 36.94824460236368 $530 $701 forward 7 unknown #
vertex $-1 $644 $702 #
straight-curve $-1 -42.647029975874887 -12.718278641306824 43.600174884952736 0 -0.70710677298230451 0.70710678939079041 I I #
point $-1 -42.647029975874887 21.650074939471239 9.2318205066534702 #
point $-1 -63.480002795109868 30.704642002204075 0.17725323380846447 #
straight-curve $-1 0 30.704642002204075 9.231820506653472 -1 0 0 I I #
vertex $-1 $537 $703 #
point $-1 -51.563516385492377 22.307520351153578 0.83469884034689368 #
coedge $-1 $552 $551 $544 $653 forward $541 $-1 #
edge $-1 $654 63.060787686089817 $657 72.11535495893483 $652 $704 forward 7 unknown #
vertex $-1 $556 $705 #
straight-curve $-1 62.208667259643292 44.133382601297683 9.2318205066534773 0 1 0 I I #
edge $-1 $657 -36.312576834630391 $553 -15.47960401539541 $552 $706 forward 7 unknown #
vertex $-1 $656 $707 #
straight-curve $-1 62.208667259643292 -12.718278641306824 43.600174884952736 0 -0.70710677298230451 0.70710678939079041 I I #
point $-1 62.208667259643292 21.650074939471239 9.2318205066534702 #
point $-1 41.37569444040831 30.704642002204075 0.17725323380846447 #
straight-curve $-1 0 30.704642002204075 9.231820506653472 -1 0 0 I I #
vertex $-1 $559 $708 #
point $-1 53.292180850025801 22.307520351153578 0.83469884034689368 #
edge $-1 $570 -9.231820506653472 $580 9.231820506653472 $569 $709 forward 7 unknown #
straight-curve $-1 -71.407208471938233 -30.704642002204075 0 0 0 -1 I I #
straight-curve $-1 -71.407208471938233 0 9.231820506653472 0 -1 0 I I #
point $-1 -71.407208471938233 30.704642002204075 9.231820506653472 #
point $-1 -71.407208471938233 -30.704642002204075 9.231820506653472 #
straight-curve $-1 -71.407208471938233 0 -9.231820506653472 0 1 0 I I #
point $-1 -71.407208471938233 -30.704642002204075 -9.231820506653472 #
point $-1 -71.407208471938233 30.704642002204075 -9.231820506653472 #
straight-curve $-1 -63.480002795109861 -6.9359305460670164 -9.231820506653472 0 -1 0 I I #
straight-curve $-1 -63.480002795109861 -6.9359305460670164 9.231820506653472 0 1 0 I I #
straight-curve $-1 -71.407208471938233 -12.241000988897129 0 0 0 -1 I I #
point $-1 -71.407208471938233 -12.241000988897129 -9.231820506653472 #
point $-1 -71.407208471938233 -12.241000988897129 9.231820506653472 #
coedge $-1 $599 $598 $601 $680 reversed $447 $-1 #
coedge $-1 $598 $599 $605 $683 reversed $447 $-1 #
straight-curve $-1 80.605749684233189 -27.704642002204075 0 0 0 -1 I I #
edge $-1 $612 -1.5 $603 1.5 $677 $710 forward 7 unknown #
straight-curve $-1 80.605749684233189 -30.704642002204075 0 0 0 -1 I I #
point $-1 80.605749684233189 -30.704642002204075 -9.231820506653472 #
edge $-1 $606 -1.5 $610 1.5 $678 $711 forward 7 unknown #
point $-1 80.605749684233189 -30.704642002204075 9.231820506653472 #
point $-1 80.605749684233189 -27.704642002204075 9.231820506653472 #
point $-1 80.605749684233189 -27.704642002204075 -9.231820506653472 #
straight-curve $-1 -48.420394838093742 -30.704642002204075 53.803514468055241 0 0 -1 I I #
point $-1 -48.420394838093742 -30.704642002204075 9.231820506653472 #
straight-curve $-1 -19.826466059334386 -30.704642002204075 3.1591775394763539 1 0 0 I I #
point $-1 -48.420394838093742 -30.704642002204075 3.1591775394763526 #
point $-1 -43.41041614127947 -22.496193798166033 0.88470878773691719 #
point $-1 -35.895448096058068 -22.496193798166033 0.88470878773691719 #
straight-curve $-1 14.423940189282849 -30.704642002204075 53.803514468055241 0 0 -1 I I #
point $-1 14.423940189282845 -30.704642002204075 9.231820506653472 #
straight-curve $-1 11.595701454353907 -30.704642002204075 3.1591775394763539 1 0 0 I I #
point $-1 14.423940189282849 -30.704642002204075 3.1591775394763526 #
point $-1 19.433918886097118 -22.496193798166033 0.88470878773691719 #
point $-1 26.948886931318512 -22.496193798166033 0.88470878773691719 #
straight-curve $-1 -42.647029975874887 30.704642002204075 72.292608192743288 0 0 -1 I I #
point $-1 -42.647029975874887 30.704642002204075 9.231820506653472 #
straight-curve $-1 -26.531758192746189 30.704642002204075 0.17725323380846447 -1 0 0 I I #
point $-1 -42.647029975874887 30.704642002204075 0.17725323380846447 #
point $-1 -53.063516385492377 21.246860167067389 -0.22596131912656314 #
straight-curve $-1 62.208667259643292 30.704642002204075 72.292608192743288 0 0 -1 I I #
point $-1 62.208667259643292 30.704642002204075 9.231820506653472 #
straight-curve $-1 25.8960904250129 30.704642002204075 0.17725323380846447 -1 0 0 I I #
point $-1 62.208667259643292 30.704642002204075 0.17725323380846447 #
point $-1 51.792180850025801 21.246860167067389 -0.22596131912656314 #
straight-curve $-1 -71.407208471938233 30.704642002204075 0 0 0 -1 I I #
straight-curve $-1 80.605749684233189 -29.204642002204075 -9.231820506653472 0 -1 0 I I #
straight-curve $-1 80.605749684233189 -29.204642002204075 9.231820506653472 0 1 0 I I #
End-of-ACIS-data 