500 0 14 0           
7 Unknown 11 ACIS 5.0 NT 24 Thu Mar 25 23:49:38 1999 
-1 9.9999999999999995e-007 1e-010 
body $-1 $14 $-1 $15 #
body $-1 $16 $-1 $17 #
body $-1 $18 $-1 $19 #
body $-1 $20 $-1 $21 #
body $-1 $22 $-1 $23 #
body $-1 $24 $-1 $25 #
body $-1 $26 $-1 $27 #
body $-1 $28 $-1 $29 #
body $-1 $30 $-1 $31 #
body $-1 $32 $-1 $33 #
body $-1 $34 $-1 $35 #
body $-1 $36 $-1 $37 #
body $-1 $38 $-1 $39 #
body $-1 $40 $-1 $41 #
lump $-1 $-1 $42 $0 #
transform $-1 1 0 0 0 1 0 0 0 1 71.907712027344587 43.575410744681164 12.87660236266745 1 rotate no_reflect no_shear #
lump $-1 $-1 $43 $1 #
transform $-1 1 0 0 0 1 0 0 0 1 71.907712027344587 43.575410744681164 12.87660236266745 1 rotate no_reflect no_shear #
lump $-1 $-1 $44 $2 #
transform $-1 1 0 0 0 1 0 0 0 1 71.907712027344587 43.575410744681164 12.87660236266745 1 rotate no_reflect no_shear #
lump $-1 $-1 $45 $3 #
transform $-1 1 0 0 0 1 0 0 0 1 71.907712027344587 43.575410744681164 12.87660236266745 1 rotate no_reflect no_shear #
lump $-1 $-1 $46 $4 #
transform $-1 1 0 0 0 1 0 0 0 1 71.907712027344587 43.575410744681164 12.87660236266745 1 rotate no_reflect no_shear #
lump $-1 $-1 $47 $5 #
transform $-1 1 0 0 0 1 0 0 0 1 71.907712027344587 43.575410744681164 12.87660236266745 1 rotate no_reflect no_shear #
lump $-1 $-1 $48 $6 #
transform $-1 1 0 0 0 1 0 0 0 1 71.907712027344587 43.575410744681164 12.87660236266745 1 rotate no_reflect no_shear #
lump $-1 $-1 $49 $7 #
transform $-1 1 0 0 0 1 0 0 0 1 71.907712027344587 43.575410744681164 12.87660236266745 1 rotate no_reflect no_shear #
lump $-1 $-1 $50 $8 #
transform $-1 1 0 0 0 1 0 0 0 1 71.907712027344587 43.575410744681164 12.87660236266745 1 rotate no_reflect no_shear #
lump $-1 $-1 $51 $9 #
transform $-1 1 0 0 0 1 0 0 0 1 71.907712027344587 43.575410744681164 12.87660236266745 1 rotate no_reflect no_shear #
lump $-1 $-1 $52 $10 #
transform $-1 1 0 0 0 1 0 0 0 1 71.907712027344587 43.575410744681164 12.87660236266745 1 rotate no_reflect no_shear #
lump $-1 $-1 $53 $11 #
transform $-1 1 0 0 0 1 0 0 0 1 71.907712027344587 43.575410744681164 12.87660236266745 1 rotate no_reflect no_shear #
lump $-1 $-1 $54 $12 #
transform $-1 1 0 0 0 1 0 0 0 1 71.907712027344587 43.575410744681164 12.87660236266745 1 rotate no_reflect no_shear #
lump $-1 $-1 $55 $13 #
transform $-1 1 0 0 0 1 0 0 0 1 71.907712027344587 43.575410744681164 12.87660236266745 1 rotate no_reflect no_shear #
shell $-1 $-1 $-1 $56 $-1 $14 #
shell $-1 $-1 $-1 $57 $-1 $16 #
shell $-1 $-1 $-1 $58 $-1 $18 #
shell $-1 $-1 $-1 $59 $-1 $20 #
shell $-1 $-1 $-1 $60 $-1 $22 #
shell $-1 $-1 $-1 $61 $-1 $24 #
shell $-1 $-1 $-1 $62 $-1 $26 #
shell $-1 $-1 $-1 $63 $-1 $28 #
shell $-1 $-1 $-1 $64 $-1 $30 #
shell $-1 $-1 $-1 $65 $-1 $32 #
shell $-1 $-1 $-1 $66 $-1 $34 #
shell $-1 $-1 $-1 $67 $-1 $36 #
shell $-1 $-1 $-1 $68 $-1 $38 #
shell $-1 $-1 $-1 $69 $-1 $40 #
face $-1 $70 $71 $42 $-1 $72 forward single #
face $-1 $73 $74 $43 $-1 $75 forward single #
face $-1 $76 $77 $44 $-1 $78 reversed single #
face $-1 $79 $80 $45 $-1 $81 forward single #
face $-1 $82 $83 $46 $-1 $84 forward single #
face $-1 $85 $86 $47 $-1 $87 reversed single #
face $-1 $88 $89 $48 $-1 $90 forward single #
face $-1 $91 $92 $49 $-1 $93 forward single #
face $-1 $94 $95 $50 $-1 $96 reversed single #
face $-1 $97 $98 $51 $-1 $99 forward single #
face $-1 $100 $101 $52 $-1 $102 forward single #
face $-1 $103 $104 $53 $-1 $105 reversed single #
face $-1 $106 $107 $54 $-1 $108 forward single #
face $-1 $109 $110 $55 $-1 $111 forward single #
face $-1 $112 $113 $42 $-1 $114 reversed single #
loop $-1 $-1 $115 $56 #
plane-surface $-1 0 0 12.87660236266745 0 0 1 1 0 0 forward_v I I I I #
face $-1 $116 $117 $43 $-1 $118 reversed single #
loop $-1 $-1 $119 $57 #
plane-surface $-1 0 -43.575410744681164 0 0 1 0 0 0 1 forward_v I I I I #
face $-1 $120 $121 $44 $-1 $122 reversed single #
loop $-1 $-1 $123 $58 #
plane-surface $-1 -60.970586847076135 121.96330051743138 154.95957967275305 1 0 0 0 -0.85716730853699208 -0.51503806187062418 forward_v I I I I #
face $-1 $124 $125 $45 $-1 $126 forward single #
loop $-1 $127 $128 $59 #
cone-surface $-1 -55.565179966567108 40.342193416190767 8.7964585077758901 0 -0.85716730853699208 -0.51503806187062418 1 0 0 1 I I 0 1 1 forward I I I I #
face $-1 $129 $130 $46 $-1 $131 forward single #
loop $-1 $132 $133 $60 #
cone-surface $-1 -47.457069645803564 40.342193416190767 8.7964585077758901 0 -0.85716730853699208 -0.51503806187062418 1 0 0 1 I I 0 1 1 forward I I I I #
face $-1 $134 $135 $47 $-1 $136 reversed single #
loop $-1 $-1 $137 $61 #
plane-surface $-1 -25.016730833403841 121.96330051743138 154.95957967275305 1 0 0 0 -0.85716730853699208 -0.51503806187062418 forward_v I I I I #
face $-1 $138 $139 $48 $-1 $140 forward single #
loop $-1 $141 $142 $62 #
cone-surface $-1 -19.611323952894814 40.342193416190767 8.7964585077758901 0 -0.85716730853699208 -0.51503806187062418 1 0 0 1 I I 0 1 1 forward I I I I #
face $-1 $143 $144 $49 $-1 $145 forward single #
loop $-1 $146 $147 $63 #
cone-surface $-1 -11.503213632131271 40.342193416190767 8.7964585077758901 0 -0.85716730853699208 -0.51503806187062418 1 0 0 1 I I 0 1 1 forward I I I I #
face $-1 $148 $149 $50 $-1 $150 reversed single #
loop $-1 $-1 $151 $64 #
plane-surface $-1 10.937125180268453 121.96330051743138 154.95957967275305 1 0 0 0 -0.85716730853699208 -0.51503806187062418 forward_v I I I I #
face $-1 $152 $153 $51 $-1 $154 forward single #
loop $-1 $155 $156 $65 #
cone-surface $-1 16.342532060777472 40.342193416190767 8.7964585077758901 0 -0.85716730853699208 -0.51503806187062418 1 0 0 1 I I 0 1 1 forward I I I I #
face $-1 $157 $158 $52 $-1 $159 forward single #
loop $-1 $160 $161 $66 #
cone-surface $-1 24.45064238154103 40.342193416190767 8.7964585077758901 0 -0.85716730853699208 -0.51503806187062418 1 0 0 1 I I 0 1 1 forward I I I I #
face $-1 $162 $163 $53 $-1 $164 reversed single #
loop $-1 $-1 $165 $67 #
plane-surface $-1 46.890981193940746 121.96330051743138 154.95957967275305 1 0 0 0 -0.85716730853699208 -0.51503806187062418 forward_v I I I I #
face $-1 $166 $167 $54 $-1 $168 forward single #
loop $-1 $169 $170 $68 #
cone-surface $-1 52.296388074449766 40.342193416190767 8.7964585077758901 0 -0.85716730853699208 -0.51503806187062418 1 0 0 1 I I 0 1 1 forward I I I I #
face $-1 $171 $172 $55 $-1 $173 forward single #
loop $-1 $174 $175 $69 #
cone-surface $-1 60.404498395213324 40.342193416190767 8.7964585077758901 0 -0.85716730853699208 -0.51503806187062418 1 0 0 1 I I 0 1 1 forward I I I I #
face $-1 $176 $177 $42 $-1 $178 reversed single #
loop $-1 $-1 $179 $70 #
plane-surface $-1 0 0 -12.87660236266745 0 0 1 1 0 0 forward_v I I I I #
coedge $-1 $180 $181 $182 $183 forward $71 $-1 #
face $-1 $184 $185 $43 $-1 $186 reversed single #
loop $-1 $-1 $187 $73 #
plane-surface $-1 0 0 -12.87660236266745 0 0 1 1 0 0 forward_v I I I I #
coedge $-1 $188 $189 $190 $191 forward $74 $-1 #
face $-1 $192 $193 $44 $-1 $194 reversed single #
loop $-1 $-1 $195 $76 #
plane-surface $-1 -51.511124806185336 -1.310579445632726 80.889162400524 0 0.85716730853699208 0.51503806187062418 1 0 0 forward_v I I I I #
coedge $-1 $196 $197 $198 $199 reversed $77 $-1 #
face $-1 $-1 $200 $45 $-1 $201 forward single #
loop $-1 $202 $203 $79 #
cone-surface $-1 -55.565179966567108 38.690353769669315 7.8039331494330266 0 -0.85716730853699208 -0.51503806187062418 0.5 0 0 1 I I -0.70710678118654746 0.70710678118654746 0.5 forward I I I I #
loop $-1 $-1 $204 $59 #
coedge $-1 $128 $128 $205 $206 reversed $80 $-1 #
face $-1 $-1 $207 $46 $-1 $208 forward single #
loop $-1 $209 $210 $82 #
cone-surface $-1 -47.457069645803564 38.690353769669315 7.8039331494330266 0 -0.85716730853699208 -0.51503806187062418 0.5 0 0 1 I I -0.70710678118654746 0.70710678118654746 0.5 forward I I I I #
loop $-1 $-1 $211 $60 #
coedge $-1 $133 $133 $212 $213 reversed $83 $-1 #
face $-1 $214 $215 $47 $-1 $216 reversed single #
loop $-1 $-1 $217 $85 #
plane-surface $-1 -15.557268792513042 -1.310579445632726 80.889162400524 0 0.85716730853699208 0.51503806187062418 1 0 0 forward_v I I I I #
coedge $-1 $218 $219 $220 $221 reversed $86 $-1 #
face $-1 $-1 $222 $48 $-1 $223 forward single #
loop $-1 $224 $225 $88 #
cone-surface $-1 -19.611323952894814 38.690353769669315 7.8039331494330266 0 -0.85716730853699208 -0.51503806187062418 0.5 0 0 1 I I -0.70710678118654746 0.70710678118654746 0.5 forward I I I I #
loop $-1 $-1 $226 $62 #
coedge $-1 $142 $142 $227 $228 reversed $89 $-1 #
face $-1 $-1 $229 $49 $-1 $230 forward single #
loop $-1 $231 $232 $91 #
cone-surface $-1 -11.503213632131271 38.690353769669315 7.8039331494330266 0 -0.85716730853699208 -0.51503806187062418 0.5 0 0 1 I I -0.70710678118654746 0.70710678118654746 0.5 forward I I I I #
loop $-1 $-1 $233 $63 #
coedge $-1 $147 $147 $234 $235 reversed $92 $-1 #
face $-1 $236 $237 $50 $-1 $238 reversed single #
loop $-1 $-1 $239 $94 #
plane-surface $-1 20.396587221159251 -1.310579445632726 80.889162400524 0 0.85716730853699208 0.51503806187062418 1 0 0 forward_v I I I I #
coedge $-1 $240 $241 $242 $243 reversed $95 $-1 #
face $-1 $-1 $244 $51 $-1 $245 forward single #
loop $-1 $246 $247 $97 #
cone-surface $-1 16.342532060777472 38.690353769669315 7.8039331494330266 0 -0.85716730853699208 -0.51503806187062418 0.5 0 0 1 I I -0.70710678118654746 0.70710678118654746 0.5 forward I I I I #
loop $-1 $-1 $248 $65 #
coedge $-1 $156 $156 $249 $250 reversed $98 $-1 #
face $-1 $-1 $251 $52 $-1 $252 forward single #
loop $-1 $253 $254 $100 #
cone-surface $-1 24.45064238154103 38.690353769669315 7.8039331494330266 0 -0.85716730853699208 -0.51503806187062418 0.5 0 0 1 I I -0.70710678118654746 0.70710678118654746 0.5 forward I I I I #
loop $-1 $-1 $255 $66 #
coedge $-1 $161 $161 $256 $257 reversed $101 $-1 #
face $-1 $258 $259 $53 $-1 $260 reversed single #
loop $-1 $-1 $261 $103 #
plane-surface $-1 56.350443234831545 -1.310579445632726 80.889162400524 0 0.85716730853699208 0.51503806187062418 1 0 0 forward_v I I I I #
coedge $-1 $262 $263 $264 $265 reversed $104 $-1 #
face $-1 $-1 $266 $54 $-1 $267 forward single #
loop $-1 $268 $269 $106 #
cone-surface $-1 52.296388074449766 38.690353769669315 7.8039331494330266 0 -0.85716730853699208 -0.51503806187062418 0.5 0 0 1 I I -0.70710678118654746 0.70710678118654746 0.5 forward I I I I #
loop $-1 $-1 $270 $68 #
coedge $-1 $170 $170 $271 $272 reversed $107 $-1 #
face $-1 $-1 $273 $55 $-1 $274 forward single #
loop $-1 $275 $276 $109 #
cone-surface $-1 60.404498395213324 38.690353769669315 7.8039331494330266 0 -0.85716730853699208 -0.51503806187062418 0.5 0 0 1 I I -0.70710678118654746 0.70710678118654746 0.5 forward I I I I #
loop $-1 $-1 $277 $69 #
coedge $-1 $175 $175 $278 $279 reversed $110 $-1 #
face $-1 $280 $281 $42 $-1 $282 reversed single #
loop $-1 $-1 $283 $112 #
plane-surface $-1 0 -43.575410744681164 0 0 1 0 0 0 1 forward_v I I I I #
coedge $-1 $284 $285 $286 $287 forward $113 $-1 #
coedge $-1 $288 $115 $289 $290 forward $71 $-1 #
coedge $-1 $115 $288 $291 $292 forward $71 $-1 #
coedge $-1 $293 $294 $115 $183 reversed $295 $-1 #
edge $-1 $296 -43.575410744681164 $297 43.575410744681164 $182 $298 forward 7 unknown #
face $-1 $299 $300 $43 $-1 $301 forward single #
loop $-1 $-1 $302 $116 #
plane-surface $-1 71.907712027344587 0 0 -1 0 0 0 0 1 forward_v I I I I #
coedge $-1 $303 $304 $305 $306 forward $117 $-1 #
coedge $-1 $305 $119 $302 $307 reversed $74 $-1 #
coedge $-1 $119 $305 $308 $309 reversed $74 $-1 #
coedge $-1 $310 $311 $119 $191 reversed $300 $-1 #
edge $-1 $312 -71.907712027344587 $313 71.907712027344587 $190 $314 forward 7 unknown #
face $-1 $315 $316 $44 $-1 $317 forward single #
loop $-1 $-1 $318 $120 #
plane-surface $-1 -42.051662765294537 121.96330051743138 154.95957967275305 -1 0 0 0 0.85716730853699208 0.51503806187062418 forward_v I I I I #
coedge $-1 $319 $320 $321 $322 reversed $121 $-1 #
coedge $-1 $197 $123 $323 $324 reversed $77 $-1 #
coedge $-1 $123 $196 $319 $325 reversed $77 $-1 #
coedge $-1 $321 $326 $123 $199 forward $316 $-1 #
edge $-1 $327 17.406239514034525 $328 21.426162186509359 $198 $329 forward 7 unknown #
loop $-1 $-1 $205 $124 #
plane-surface $-1 -51.511124806185336 -1.310579445632726 80.889162400524 0 0.85716730853699208 0.51503806187062418 1 0 0 forward_v I I I I #
loop $-1 $-1 $330 $79 #
coedge $-1 $203 $203 $204 $331 reversed $125 $-1 #
coedge $-1 $204 $204 $203 $331 forward $127 $-1 #
coedge $-1 $205 $205 $128 $206 forward $200 $-1 #
edge $-1 $332 -1.5488425537767576e-015 $332 6.2831853071795987 $205 $333 forward 7 unknown #
loop $-1 $-1 $212 $129 #
plane-surface $-1 -51.511124806185336 -1.310579445632726 80.889162400524 0 0.85716730853699208 0.51503806187062418 1 0 0 forward_v I I I I #
loop $-1 $-1 $334 $82 #
coedge $-1 $210 $210 $211 $335 reversed $130 $-1 #
coedge $-1 $211 $211 $210 $335 forward $132 $-1 #
coedge $-1 $212 $212 $133 $213 forward $207 $-1 #
edge $-1 $336 -1.5488425537767576e-015 $336 6.2831853071795987 $212 $337 forward 7 unknown #
face $-1 $338 $339 $47 $-1 $340 forward single #
loop $-1 $-1 $341 $134 #
plane-surface $-1 -6.0978067516222438 121.96330051743138 154.95957967275305 -1 0 0 0 0.85716730853699208 0.51503806187062418 forward_v I I I I #
coedge $-1 $342 $343 $344 $345 reversed $135 $-1 #
coedge $-1 $219 $137 $346 $347 reversed $86 $-1 #
coedge $-1 $137 $218 $342 $348 reversed $86 $-1 #
coedge $-1 $344 $349 $137 $221 forward $339 $-1 #
edge $-1 $350 17.406239514034525 $351 21.426162186509359 $220 $352 forward 7 unknown #
loop $-1 $-1 $227 $138 #
plane-surface $-1 -15.557268792513042 -1.310579445632726 80.889162400524 0 0.85716730853699208 0.51503806187062418 1 0 0 forward_v I I I I #
loop $-1 $-1 $353 $88 #
coedge $-1 $225 $225 $226 $354 reversed $139 $-1 #
coedge $-1 $226 $226 $225 $354 forward $141 $-1 #
coedge $-1 $227 $227 $142 $228 forward $222 $-1 #
edge $-1 $355 -1.5488425537767576e-015 $355 6.2831853071795987 $227 $356 forward 7 unknown #
loop $-1 $-1 $234 $143 #
plane-surface $-1 -15.557268792513042 -1.310579445632726 80.889162400524 0 0.85716730853699208 0.51503806187062418 1 0 0 forward_v I I I I #
loop $-1 $-1 $357 $91 #
coedge $-1 $232 $232 $233 $358 reversed $144 $-1 #
coedge $-1 $233 $233 $232 $358 forward $146 $-1 #
coedge $-1 $234 $234 $147 $235 forward $229 $-1 #
edge $-1 $359 -1.5488425537767576e-015 $359 6.2831853071795987 $234 $360 forward 7 unknown #
face $-1 $361 $362 $50 $-1 $363 forward single #
loop $-1 $-1 $364 $148 #
plane-surface $-1 29.85604926205005 121.96330051743138 154.95957967275305 -1 0 0 0 0.85716730853699208 0.51503806187062418 forward_v I I I I #
coedge $-1 $365 $366 $367 $368 reversed $149 $-1 #
coedge $-1 $241 $151 $369 $370 reversed $95 $-1 #
coedge $-1 $151 $240 $365 $371 reversed $95 $-1 #
coedge $-1 $367 $372 $151 $243 forward $362 $-1 #
edge $-1 $373 17.406239514034525 $374 21.426162186509359 $242 $375 forward 7 unknown #
loop $-1 $-1 $249 $152 #
plane-surface $-1 20.396587221159251 -1.310579445632726 80.889162400524 0 0.85716730853699208 0.51503806187062418 1 0 0 forward_v I I I I #
loop $-1 $-1 $376 $97 #
coedge $-1 $247 $247 $248 $377 reversed $153 $-1 #
coedge $-1 $248 $248 $247 $377 forward $155 $-1 #
coedge $-1 $249 $249 $156 $250 forward $244 $-1 #
edge $-1 $378 -1.5488425537767576e-015 $378 6.2831853071795987 $249 $379 forward 7 unknown #
loop $-1 $-1 $256 $157 #
plane-surface $-1 20.396587221159251 -1.310579445632726 80.889162400524 0 0.85716730853699208 0.51503806187062418 1 0 0 forward_v I I I I #
loop $-1 $-1 $380 $100 #
coedge $-1 $254 $254 $255 $381 reversed $158 $-1 #
coedge $-1 $255 $255 $254 $381 forward $160 $-1 #
coedge $-1 $256 $256 $161 $257 forward $251 $-1 #
edge $-1 $382 -1.5488425537767576e-015 $382 6.2831853071795987 $256 $383 forward 7 unknown #
face $-1 $384 $385 $53 $-1 $386 forward single #
loop $-1 $-1 $387 $162 #
plane-surface $-1 65.809905275722343 121.96330051743138 154.95957967275305 -1 0 0 0 0.85716730853699208 0.51503806187062418 forward_v I I I I #
coedge $-1 $388 $389 $390 $391 reversed $163 $-1 #
coedge $-1 $263 $165 $392 $393 reversed $104 $-1 #
coedge $-1 $165 $262 $388 $394 reversed $104 $-1 #
coedge $-1 $390 $395 $165 $265 forward $385 $-1 #
edge $-1 $396 17.406239514034525 $397 21.426162186509359 $264 $398 forward 7 unknown #
loop $-1 $-1 $271 $166 #
plane-surface $-1 56.350443234831545 -1.310579445632726 80.889162400524 0 0.85716730853699208 0.51503806187062418 1 0 0 forward_v I I I I #
loop $-1 $-1 $399 $106 #
coedge $-1 $269 $269 $270 $400 reversed $167 $-1 #
coedge $-1 $270 $270 $269 $400 forward $169 $-1 #
coedge $-1 $271 $271 $170 $272 forward $266 $-1 #
edge $-1 $401 -1.5488425537767576e-015 $401 6.2831853071795987 $271 $402 forward 7 unknown #
loop $-1 $-1 $278 $171 #
plane-surface $-1 56.350443234831545 -1.310579445632726 80.889162400524 0 0.85716730853699208 0.51503806187062418 1 0 0 forward_v I I I I #
loop $-1 $-1 $403 $109 #
coedge $-1 $276 $276 $277 $404 reversed $172 $-1 #
coedge $-1 $277 $277 $276 $404 forward $174 $-1 #
coedge $-1 $278 $278 $175 $279 forward $273 $-1 #
edge $-1 $405 -1.5488425537767576e-015 $405 6.2831853071795987 $278 $406 forward 7 unknown #
face $-1 $407 $408 $42 $-1 $409 reversed single #
loop $-1 $-1 $410 $176 #
plane-surface $-1 -71.907712027344587 0 0 1 0 0 0 0 -1 forward_v I I I I #
coedge $-1 $411 $291 $412 $413 forward $177 $-1 #
coedge $-1 $414 $179 $411 $415 forward $113 $-1 #
coedge $-1 $179 $414 $416 $417 forward $113 $-1 #
coedge $-1 $294 $293 $179 $287 reversed $295 $-1 #
edge $-1 $418 -43.575410744681164 $419 43.575410744681164 $286 $420 forward 7 unknown #
coedge $-1 $181 $180 $421 $422 forward $71 $-1 #
coedge $-1 $423 $424 $180 $290 reversed $408 $-1 #
edge $-1 $297 -71.907712027344587 $425 71.907712027344587 $289 $426 forward 7 unknown #
coedge $-1 $283 $427 $181 $292 reversed $177 $-1 #
edge $-1 $428 -71.907712027344587 $296 71.907712027344587 $291 $429 forward 7 unknown #
coedge $-1 $286 $182 $427 $430 forward $295 $-1 #
coedge $-1 $182 $286 $423 $431 reversed $295 $-1 #
loop $-1 $-1 $293 $407 #
vertex $-1 $183 $432 #
vertex $-1 $183 $433 #
straight-curve $-1 71.907712027344587 0 12.87660236266745 0 1 0 I I #
face $-1 $434 $435 $43 $-1 $436 reversed single #
loop $-1 $-1 $311 $184 #
plane-surface $-1 0 -50.074925596782208 -9.3402229363652438 0 0 1 1 0 0 forward_v I I I I #
coedge $-1 $437 $438 $188 $307 forward $185 $-1 #
coedge $-1 $439 $187 $438 $440 forward $117 $-1 #
coedge $-1 $187 $439 $441 $442 forward $117 $-1 #
coedge $-1 $189 $188 $187 $306 reversed $74 $-1 #
edge $-1 $443 -71.907712027344587 $444 71.907712027344587 $187 $445 forward 7 unknown #
edge $-1 $444 -12.87660236266745 $313 -9.3402229363652438 $302 $446 forward 7 unknown #
coedge $-1 $441 $447 $189 $309 forward $448 $-1 #
edge $-1 $312 9.3402229363652438 $443 12.87660236266745 $308 $449 forward 7 unknown #
coedge $-1 $450 $190 $447 $451 forward $300 $-1 #
coedge $-1 $190 $450 $437 $452 forward $300 $-1 #
vertex $-1 $309 $453 #
vertex $-1 $452 $454 #
straight-curve $-1 0 -43.575410744681164 -9.3402229363652438 1 0 0 I I #
face $-1 $-1 $455 $44 $-1 $456 reversed single #
loop $-1 $-1 $198 $192 #
plane-surface $-1 0 0 12.87660236266745 0 0 1 1 0 0 forward_v I I I I #
coedge $-1 $457 $458 $459 $460 reversed $193 $-1 #
coedge $-1 $461 $195 $197 $325 forward $121 $-1 #
coedge $-1 $195 $461 $457 $462 forward $121 $-1 #
coedge $-1 $459 $198 $195 $322 forward $316 $-1 #
edge $-1 $328 -35.215024443983467 $463 -16.296100362201869 $321 $464 forward 7 unknown #
coedge $-1 $465 $466 $196 $324 forward $455 $-1 #
edge $-1 $467 -71.29346252867704 $327 -64.60318747370907 $323 $468 forward 7 unknown #
edge $-1 $328 79.345723245022 $467 87.150821489362301 $197 $469 forward 7 unknown #
coedge $-1 $198 $459 $465 $470 forward $316 $-1 #
vertex $-1 $324 $471 #
vertex $-1 $199 $472 #
straight-curve $-1 -60.970586847076135 60.981650258715689 12.876602362667455 0 -1 0 I I #
coedge $-1 $330 $330 $-1 $473 reversed $202 $-1 #
edge $-1 $474 0 $474 6.2831853071796004 $203 $475 forward 7 unknown #
vertex $-1 $206 $476 #
ellipse-curve $-1 -55.565179966567108 41.565449408443754 9.5314648351834599 0 0.85716730853699208 0.51503806187062418 1 0 0 1 I I #
coedge $-1 $334 $334 $-1 $477 reversed $209 $-1 #
edge $-1 $478 0 $478 6.2831853071796004 $210 $479 forward 7 unknown #
vertex $-1 $213 $480 #
ellipse-curve $-1 -47.457069645803564 41.565449408443754 9.5314648351834599 0 0.85716730853699208 0.51503806187062418 1 0 0 1 I I #
face $-1 $-1 $481 $47 $-1 $482 reversed single #
loop $-1 $-1 $220 $214 #
plane-surface $-1 0 0 12.87660236266745 0 0 1 1 0 0 forward_v I I I I #
coedge $-1 $483 $484 $485 $486 reversed $215 $-1 #
coedge $-1 $487 $217 $219 $348 forward $135 $-1 #
coedge $-1 $217 $487 $483 $488 forward $135 $-1 #
coedge $-1 $485 $220 $217 $345 forward $339 $-1 #
edge $-1 $351 -17.23809643714732 $489 1.6808276446342774 $344 $490 forward 7 unknown #
coedge $-1 $491 $492 $218 $347 forward $481 $-1 #
edge $-1 $493 -71.29346252867704 $350 -64.60318747370907 $346 $494 forward 7 unknown #
edge $-1 $351 79.345723245022 $493 87.150821489362301 $219 $495 forward 7 unknown #
coedge $-1 $220 $485 $491 $496 forward $339 $-1 #
vertex $-1 $221 $497 #
vertex $-1 $221 $498 #
straight-curve $-1 -25.016730833403841 60.981650258715689 12.876602362667455 0 -1 0 I I #
coedge $-1 $353 $353 $-1 $499 reversed $224 $-1 #
edge $-1 $500 0 $500 6.2831853071796004 $225 $501 forward 7 unknown #
vertex $-1 $228 $502 #
ellipse-curve $-1 -19.611323952894814 41.565449408443754 9.5314648351834599 0 0.85716730853699208 0.51503806187062418 1 0 0 1 I I #
coedge $-1 $357 $357 $-1 $503 reversed $231 $-1 #
edge $-1 $504 0 $504 6.2831853071796004 $232 $505 forward 7 unknown #
vertex $-1 $235 $506 #
ellipse-curve $-1 -11.503213632131271 41.565449408443754 9.5314648351834599 0 0.85716730853699208 0.51503806187062418 1 0 0 1 I I #
face $-1 $-1 $507 $50 $-1 $508 reversed single #
loop $-1 $-1 $242 $236 #
plane-surface $-1 0 0 12.87660236266745 0 0 1 1 0 0 forward_v I I I I #
coedge $-1 $509 $510 $511 $512 reversed $237 $-1 #
coedge $-1 $513 $239 $241 $371 forward $149 $-1 #
coedge $-1 $239 $513 $509 $514 forward $149 $-1 #
coedge $-1 $511 $242 $239 $368 forward $362 $-1 #
edge $-1 $374 0.73883156968882702 $515 19.657755651470424 $367 $516 forward 7 unknown #
coedge $-1 $517 $518 $240 $370 forward $507 $-1 #
edge $-1 $519 -71.29346252867704 $373 -64.60318747370907 $369 $520 forward 7 unknown #
edge $-1 $374 79.345723245022 $519 87.150821489362301 $241 $521 forward 7 unknown #
coedge $-1 $242 $511 $517 $522 forward $362 $-1 #
vertex $-1 $243 $523 #
vertex $-1 $243 $524 #
straight-curve $-1 10.937125180268453 60.981650258715689 12.876602362667455 0 -1 0 I I #
coedge $-1 $376 $376 $-1 $525 reversed $246 $-1 #
edge $-1 $526 0 $526 6.2831853071796004 $247 $527 forward 7 unknown #
vertex $-1 $250 $528 #
ellipse-curve $-1 16.342532060777472 41.565449408443754 9.5314648351834599 0 0.85716730853699208 0.51503806187062418 1 0 0 1 I I #
coedge $-1 $380 $380 $-1 $529 reversed $253 $-1 #
edge $-1 $530 0 $530 6.2831853071796004 $254 $531 forward 7 unknown #
vertex $-1 $257 $532 #
ellipse-curve $-1 24.45064238154103 41.565449408443754 9.5314648351834599 0 0.85716730853699208 0.51503806187062418 1 0 0 1 I I #
face $-1 $-1 $533 $53 $-1 $534 reversed single #
loop $-1 $-1 $264 $258 #
plane-surface $-1 0 0 12.87660236266745 0 0 1 1 0 0 forward_v I I I I #
coedge $-1 $535 $536 $537 $538 reversed $259 $-1 #
coedge $-1 $539 $261 $263 $394 forward $163 $-1 #
coedge $-1 $261 $539 $535 $540 forward $163 $-1 #
coedge $-1 $537 $264 $261 $391 forward $385 $-1 #
edge $-1 $397 18.715759576524974 $541 37.634683658306571 $390 $542 forward 7 unknown #
coedge $-1 $543 $544 $262 $393 forward $533 $-1 #
edge $-1 $545 -71.29346252867704 $396 -64.60318747370907 $392 $546 forward 7 unknown #
edge $-1 $397 79.345723245022 $545 87.150821489362301 $263 $547 forward 7 unknown #
coedge $-1 $264 $537 $543 $548 forward $385 $-1 #
vertex $-1 $265 $549 #
vertex $-1 $265 $550 #
straight-curve $-1 46.890981193940746 60.981650258715689 12.876602362667455 0 -1 0 I I #
coedge $-1 $399 $399 $-1 $551 reversed $268 $-1 #
edge $-1 $552 0 $552 6.2831853071796004 $269 $553 forward 7 unknown #
vertex $-1 $272 $554 #
ellipse-curve $-1 52.296388074449766 41.565449408443754 9.5314648351834599 0 0.85716730853699208 0.51503806187062418 1 0 0 1 I I #
coedge $-1 $403 $403 $-1 $555 reversed $275 $-1 #
edge $-1 $556 0 $556 6.2831853071796004 $276 $557 forward 7 unknown #
vertex $-1 $279 $558 #
ellipse-curve $-1 60.404498395213324 41.565449408443754 9.5314648351834599 0 0.85716730853699208 0.51503806187062418 1 0 0 1 I I #
face $-1 $-1 $295 $42 $-1 $559 reversed single #
loop $-1 $-1 $423 $280 #
plane-surface $-1 0 43.575410744681164 0 0 -1 0 0 0 -1 forward_v I I I I #
coedge $-1 $560 $421 $424 $561 forward $281 $-1 #
coedge $-1 $427 $283 $284 $415 reversed $177 $-1 #
coedge $-1 $421 $560 $283 $413 reversed $281 $-1 #
edge $-1 $428 -12.87660236266745 $562 12.87660236266745 $412 $563 forward 7 unknown #
coedge $-1 $285 $284 $560 $564 forward $113 $-1 #
edge $-1 $419 -71.907712027344587 $562 71.907712027344587 $411 $565 forward 7 unknown #
coedge $-1 $424 $423 $285 $417 reversed $408 $-1 #
edge $-1 $566 -71.907712027344587 $418 71.907712027344587 $416 $567 forward 7 unknown #
vertex $-1 $287 $568 #
vertex $-1 $430 $569 #
straight-curve $-1 71.907712027344587 0 -12.87660236266745 0 -1 0 I I #
coedge $-1 $410 $412 $288 $422 reversed $281 $-1 #
edge $-1 $425 -43.575410744681164 $428 43.575410744681164 $421 $570 forward 7 unknown #
coedge $-1 $416 $289 $294 $431 forward $408 $-1 #
coedge $-1 $289 $416 $410 $561 reversed $408 $-1 #
vertex $-1 $290 $571 #
straight-curve $-1 0 43.575410744681164 12.87660236266745 -1 0 0 I I #
coedge $-1 $291 $411 $293 $430 reversed $177 $-1 #
vertex $-1 $422 $572 #
straight-curve $-1 0 -43.575410744681164 12.87660236266745 1 0 0 I I #
edge $-1 $296 -12.87660236266745 $419 12.87660236266745 $293 $573 forward 7 unknown #
edge $-1 $297 -12.87660236266745 $418 12.87660236266745 $294 $574 forward 7 unknown #
point $-1 71.907712027344587 -43.575410744681164 12.87660236266745 #
point $-1 71.907712027344587 43.575410744681164 12.87660236266745 #
face $-1 $-1 $448 $43 $-1 $575 reversed single #
loop $-1 $-1 $576 $299 #
plane-surface $-1 0 -56.574440448883252 -11.108412649516346 0 1 0 0 0 1 forward_v I I I I #
coedge $-1 $577 $302 $311 $452 reversed $185 $-1 #
coedge $-1 $302 $577 $303 $440 reversed $185 $-1 #
coedge $-1 $304 $303 $578 $579 forward $117 $-1 #
edge $-1 $444 43.575410744681164 $580 56.574440448883252 $438 $581 forward 7 unknown #
coedge $-1 $582 $308 $304 $442 reversed $448 $-1 #
edge $-1 $583 -56.574440448883252 $443 -43.575410744681164 $441 $584 forward 7 unknown #
vertex $-1 $309 $585 #
vertex $-1 $440 $586 #
straight-curve $-1 0 -43.575410744681164 -12.87660236266745 1 0 0 I I #
straight-curve $-1 71.907712027344587 -43.575410744681164 0 0 0 1 I I #
coedge $-1 $308 $582 $310 $451 reversed $448 $-1 #
loop $-1 $-1 $308 $434 #
straight-curve $-1 -71.907712027344587 -43.575410744681164 0 0 0 -1 I I #
coedge $-1 $311 $310 $587 $588 forward $300 $-1 #
edge $-1 $312 -6.4995148521010435 $589 6.4995148521010435 $447 $590 forward 7 unknown #
edge $-1 $591 -6.4995148521010435 $313 6.4995148521010435 $437 $592 forward 7 unknown #
point $-1 -71.907712027344587 -43.575410744681164 -9.3402229363652438 #
point $-1 71.907712027344587 -43.575410744681164 -9.3402229363652438 #
loop $-1 $-1 $323 $315 #
plane-surface $-1 0 43.575410744681164 0 0 -1 0 0 0 -1 forward_v I I I I #
coedge $-1 $458 $318 $320 $462 reversed $193 $-1 #
coedge $-1 $318 $457 $593 $594 reversed $193 $-1 #
coedge $-1 $326 $321 $318 $460 forward $316 $-1 #
edge $-1 $463 -21.426162186509359 $595 -17.406239514034525 $459 $596 forward 7 unknown #
coedge $-1 $320 $319 $466 $597 reversed $121 $-1 #
edge $-1 $598 -87.150821489362301 $463 -79.345723245022 $457 $599 forward 7 unknown #
vertex $-1 $322 $600 #
straight-curve $-1 -25.755562403092668 39.55548807220633 12.876602362667441 1 0 0 I I #
coedge $-1 $593 $323 $326 $470 reversed $455 $-1 #
coedge $-1 $323 $593 $461 $597 forward $455 $-1 #
vertex $-1 $324 $601 #
straight-curve $-1 -60.970586847076135 43.575410744681164 77.479789836376526 0 0 1 I I #
straight-curve $-1 -60.970586847076135 -1.310579445632726 80.889162400524 0 0.51503806187062418 -0.85716730853699208 I I #
edge $-1 $595 42.051662765294537 $327 60.970586847076135 $465 $602 forward 7 unknown #
point $-1 -60.970586847076135 43.575410744681164 12.87660236266745 #
point $-1 -60.970586847076135 39.55548807220633 12.876602362667455 #
edge $-1 $603 1 $603 0 $330 $-1 forward 7 unknown #
vertex $-1 $331 $604 #
ellipse-curve $-1 -55.565179966567108 39.118937423937808 8.0614521803683381 0 0.85716730853699208 0.51503806187062418 1 0 0 1 I I #
point $-1 -54.565179966567108 41.565449408443719 9.5314648351834403 #
edge $-1 $605 1 $605 0 $334 $-1 forward 7 unknown #
vertex $-1 $335 $606 #
ellipse-curve $-1 -47.457069645803564 39.118937423937808 8.0614521803683381 0 0.85716730853699208 0.51503806187062418 1 0 0 1 I I #
point $-1 -46.457069645803564 41.565449408443719 9.5314648351834403 #
loop $-1 $-1 $346 $338 #
plane-surface $-1 0 43.575410744681164 0 0 -1 0 0 0 -1 forward_v I I I I #
coedge $-1 $484 $341 $343 $488 reversed $215 $-1 #
coedge $-1 $341 $483 $607 $608 reversed $215 $-1 #
coedge $-1 $349 $344 $341 $486 forward $339 $-1 #
edge $-1 $489 -21.426162186509359 $609 -17.406239514034525 $485 $610 forward 7 unknown #
coedge $-1 $343 $342 $492 $611 reversed $135 $-1 #
edge $-1 $612 -87.150821489362301 $489 -79.345723245022 $483 $613 forward 7 unknown #
vertex $-1 $345 $614 #
straight-curve $-1 -7.7786343962565212 39.55548807220633 12.876602362667441 1 0 0 I I #
coedge $-1 $607 $346 $349 $496 reversed $481 $-1 #
coedge $-1 $346 $607 $487 $611 forward $481 $-1 #
vertex $-1 $347 $615 #
straight-curve $-1 -25.016730833403841 43.575410744681164 77.479789836376526 0 0 1 I I #
straight-curve $-1 -25.016730833403841 -1.310579445632726 80.889162400524 0 0.51503806187062418 -0.85716730853699208 I I #
edge $-1 $609 6.0978067516222438 $350 25.016730833403841 $491 $616 forward 7 unknown #
point $-1 -25.016730833403841 43.575410744681164 12.87660236266745 #
point $-1 -25.016730833403841 39.55548807220633 12.876602362667455 #
edge $-1 $617 1 $617 0 $353 $-1 forward 7 unknown #
vertex $-1 $354 $618 #
ellipse-curve $-1 -19.611323952894814 39.118937423937808 8.0614521803683381 0 0.85716730853699208 0.51503806187062418 1 0 0 1 I I #
point $-1 -18.611323952894814 41.565449408443719 9.5314648351834403 #
edge $-1 $619 1 $619 0 $357 $-1 forward 7 unknown #
vertex $-1 $358 $620 #
ellipse-curve $-1 -11.503213632131271 39.118937423937808 8.0614521803683381 0 0.85716730853699208 0.51503806187062418 1 0 0 1 I I #
point $-1 -10.503213632131271 41.565449408443719 9.5314648351834403 #
loop $-1 $-1 $369 $361 #
plane-surface $-1 0 43.575410744681164 0 0 -1 0 0 0 -1 forward_v I I I I #
coedge $-1 $510 $364 $366 $514 reversed $237 $-1 #
coedge $-1 $364 $509 $621 $622 reversed $237 $-1 #
coedge $-1 $372 $367 $364 $512 forward $362 $-1 #
edge $-1 $515 -21.426162186509359 $623 -17.406239514034525 $511 $624 forward 7 unknown #
coedge $-1 $366 $365 $518 $625 reversed $149 $-1 #
edge $-1 $626 -87.150821489362301 $515 -79.345723245022 $509 $627 forward 7 unknown #
vertex $-1 $368 $628 #
straight-curve $-1 10.198293610579626 39.55548807220633 12.876602362667441 1 0 0 I I #
coedge $-1 $621 $369 $372 $522 reversed $507 $-1 #
coedge $-1 $369 $621 $513 $625 forward $507 $-1 #
vertex $-1 $370 $629 #
straight-curve $-1 10.937125180268453 43.575410744681164 77.479789836376526 0 0 1 I I #
straight-curve $-1 10.937125180268453 -1.310579445632726 80.889162400524 0 0.51503806187062418 -0.85716730853699208 I I #
edge $-1 $623 -29.85604926205005 $373 -10.937125180268453 $517 $630 forward 7 unknown #
point $-1 10.937125180268453 43.575410744681164 12.87660236266745 #
point $-1 10.937125180268453 39.55548807220633 12.876602362667455 #
edge $-1 $631 1 $631 0 $376 $-1 forward 7 unknown #
vertex $-1 $377 $632 #
ellipse-curve $-1 16.342532060777472 39.118937423937808 8.0614521803683381 0 0.85716730853699208 0.51503806187062418 1 0 0 1 I I #
point $-1 17.342532060777472 41.565449408443719 9.5314648351834403 #
edge $-1 $633 1 $633 0 $380 $-1 forward 7 unknown #
vertex $-1 $381 $634 #
ellipse-curve $-1 24.45064238154103 39.118937423937808 8.0614521803683381 0 0.85716730853699208 0.51503806187062418 1 0 0 1 I I #
point $-1 25.45064238154103 41.565449408443719 9.5314648351834403 #
loop $-1 $-1 $392 $384 #
plane-surface $-1 0 43.575410744681164 0 0 -1 0 0 0 -1 forward_v I I I I #
coedge $-1 $536 $387 $389 $540 reversed $259 $-1 #
coedge $-1 $387 $535 $635 $636 reversed $259 $-1 #
coedge $-1 $395 $390 $387 $538 forward $385 $-1 #
edge $-1 $541 -21.426162186509359 $637 -17.406239514034525 $537 $638 forward 7 unknown #
coedge $-1 $389 $388 $544 $639 reversed $163 $-1 #
edge $-1 $640 -87.150821489362301 $541 -79.345723245022 $535 $641 forward 7 unknown #
vertex $-1 $391 $642 #
straight-curve $-1 28.175221617415772 39.55548807220633 12.876602362667441 1 0 0 I I #
coedge $-1 $635 $392 $395 $548 reversed $533 $-1 #
coedge $-1 $392 $635 $539 $639 forward $533 $-1 #
vertex $-1 $393 $643 #
straight-curve $-1 46.890981193940746 43.575410744681164 77.479789836376526 0 0 1 I I #
straight-curve $-1 46.890981193940746 -1.310579445632726 80.889162400524 0 0.51503806187062418 -0.85716730853699208 I I #
edge $-1 $637 -65.809905275722343 $396 -46.890981193940746 $543 $644 forward 7 unknown #
point $-1 46.890981193940746 43.575410744681164 12.87660236266745 #
point $-1 46.890981193940746 39.55548807220633 12.876602362667455 #
edge $-1 $645 1 $645 0 $399 $-1 forward 7 unknown #
vertex $-1 $400 $646 #
ellipse-curve $-1 52.296388074449766 39.118937423937808 8.0614521803683381 0 0.85716730853699208 0.51503806187062418 1 0 0 1 I I #
point $-1 53.296388074449766 41.565449408443719 9.5314648351834403 #
edge $-1 $647 1 $647 0 $403 $-1 forward 7 unknown #
vertex $-1 $404 $648 #
ellipse-curve $-1 60.404498395213324 39.118937423937808 8.0614521803683381 0 0.85716730853699208 0.51503806187062418 1 0 0 1 I I #
point $-1 61.404498395213324 41.565449408443719 9.5314648351834403 #
plane-surface $-1 71.907712027344587 0 0 -1 0 0 0 0 1 forward_v I I I I #
coedge $-1 $412 $410 $414 $564 reversed $281 $-1 #
edge $-1 $425 -12.87660236266745 $566 12.87660236266745 $424 $649 forward 7 unknown #
vertex $-1 $564 $650 #
straight-curve $-1 -71.907712027344587 -43.575410744681164 0 0 0 -1 I I #
edge $-1 $562 -43.575410744681164 $566 43.575410744681164 $560 $651 forward 7 unknown #
straight-curve $-1 0 -43.575410744681164 -12.87660236266745 -1 0 0 I I #
vertex $-1 $417 $652 #
straight-curve $-1 0 43.575410744681164 -12.87660236266745 1 0 0 I I #
point $-1 71.907712027344587 43.575410744681164 -12.87660236266745 #
point $-1 71.907712027344587 -43.575410744681164 -12.87660236266745 #
straight-curve $-1 -71.907712027344587 0 12.87660236266745 0 -1 0 I I #
point $-1 -71.907712027344587 43.575410744681164 12.87660236266745 #
point $-1 -71.907712027344587 -43.575410744681164 12.87660236266745 #
straight-curve $-1 71.907712027344587 -43.575410744681164 0 0 0 -1 I I #
straight-curve $-1 71.907712027344587 43.575410744681164 0 0 0 -1 I I #
plane-surface $-1 -71.907712027344587 0 0 1 0 0 0 0 -1 forward_v I I I I #
coedge $-1 $578 $587 $582 $653 forward $435 $-1 #
coedge $-1 $438 $437 $654 $655 forward $185 $-1 #
coedge $-1 $654 $576 $439 $579 reversed $435 $-1 #
edge $-1 $580 -71.907712027344587 $583 71.907712027344587 $578 $656 forward 7 unknown #
vertex $-1 $655 $657 #
straight-curve $-1 71.907712027344587 0 -12.87660236266745 0 -1 0 I I #
coedge $-1 $447 $441 $576 $653 reversed $448 $-1 #
vertex $-1 $442 $658 #
straight-curve $-1 -71.907712027344587 0 -12.87660236266745 0 1 0 I I #
point $-1 -71.907712027344587 -43.575410744681164 -12.87660236266745 #
point $-1 71.907712027344587 -43.575410744681164 -12.87660236266745 #
coedge $-1 $576 $654 $450 $588 reversed $435 $-1 #
edge $-1 $589 -71.907712027344587 $591 71.907712027344587 $587 $659 forward 7 unknown #
vertex $-1 $451 $660 #
straight-curve $-1 -71.907712027344587 -50.074925596782208 -9.3402229363652438 0 -1 0 I I #
vertex $-1 $452 $661 #
straight-curve $-1 71.907712027344587 -50.074925596782208 -9.3402229363652438 0 1 0 I I #
coedge $-1 $466 $465 $458 $594 forward $455 $-1 #
edge $-1 $595 64.60318747370907 $598 71.29346252867704 $593 $662 forward 7 unknown #
vertex $-1 $470 $663 #
straight-curve $-1 -42.051662765294537 60.981650258715689 12.876602362667455 0 1 0 I I #
edge $-1 $598 16.296100362201869 $467 35.215024443983467 $466 $664 forward 7 unknown #
vertex $-1 $597 $665 #
straight-curve $-1 -42.051662765294537 -1.310579445632726 80.889162400524 0 -0.51503806187062418 0.85716730853699208 I I #
point $-1 -42.051662765294537 39.55548807220633 12.876602362667455 #
point $-1 -60.970586847076135 43.575410744681164 6.1863273076994858 #
straight-curve $-1 0 43.575410744681164 12.87660236266745 -1 0 0 I I #
vertex $-1 $473 $666 #
point $-1 -54.565179966567108 39.118937423937808 8.0614521803683381 #
vertex $-1 $477 $667 #
point $-1 -46.457069645803564 39.118937423937808 8.0614521803683381 #
coedge $-1 $492 $491 $484 $608 forward $481 $-1 #
edge $-1 $609 64.60318747370907 $612 71.29346252867704 $607 $668 forward 7 unknown #
vertex $-1 $496 $669 #
straight-curve $-1 -6.0978067516222438 60.981650258715689 12.876602362667455 0 1 0 I I #
edge $-1 $612 -1.6808276446342774 $493 17.23809643714732 $492 $670 forward 7 unknown #
vertex $-1 $611 $671 #
straight-curve $-1 -6.0978067516222438 -1.310579445632726 80.889162400524 0 -0.51503806187062418 0.85716730853699208 I I #
point $-1 -6.0978067516222438 39.55548807220633 12.876602362667455 #
point $-1 -25.016730833403841 43.575410744681164 6.1863273076994858 #
straight-curve $-1 0 43.575410744681164 12.87660236266745 -1 0 0 I I #
vertex $-1 $499 $672 #
point $-1 -18.611323952894814 39.118937423937808 8.0614521803683381 #
vertex $-1 $503 $673 #
point $-1 -10.503213632131271 39.118937423937808 8.0614521803683381 #
coedge $-1 $518 $517 $510 $622 forward $507 $-1 #
edge $-1 $623 64.60318747370907 $626 71.29346252867704 $621 $674 forward 7 unknown #
vertex $-1 $522 $675 #
straight-curve $-1 29.85604926205005 60.981650258715689 12.876602362667455 0 1 0 I I #
edge $-1 $626 -19.657755651470424 $519 -0.73883156968882702 $518 $676 forward 7 unknown #
vertex $-1 $625 $677 #
straight-curve $-1 29.85604926205005 -1.310579445632726 80.889162400524 0 -0.51503806187062418 0.85716730853699208 I I #
point $-1 29.85604926205005 39.55548807220633 12.876602362667455 #
point $-1 10.937125180268453 43.575410744681164 6.1863273076994858 #
straight-curve $-1 0 43.575410744681164 12.87660236266745 -1 0 0 I I #
vertex $-1 $525 $678 #
point $-1 17.342532060777472 39.118937423937808 8.0614521803683381 #
vertex $-1 $529 $679 #
point $-1 25.45064238154103 39.118937423937808 8.0614521803683381 #
coedge $-1 $544 $543 $536 $636 forward $533 $-1 #
edge $-1 $637 64.60318747370907 $640 71.29346252867704 $635 $680 forward 7 unknown #
vertex $-1 $548 $681 #
straight-curve $-1 65.809905275722343 60.981650258715689 12.876602362667455 0 1 0 I I #
edge $-1 $640 -37.634683658306571 $545 -18.715759576524974 $544 $682 forward 7 unknown #
vertex $-1 $639 $683 #
straight-curve $-1 65.809905275722343 -1.310579445632726 80.889162400524 0 -0.51503806187062418 0.85716730853699208 I I #
point $-1 65.809905275722343 39.55548807220633 12.876602362667455 #
point $-1 46.890981193940746 43.575410744681164 6.1863273076994858 #
straight-curve $-1 0 43.575410744681164 12.87660236266745 -1 0 0 I I #
vertex $-1 $551 $684 #
point $-1 53.296388074449766 39.118937423937808 8.0614521803683381 #
vertex $-1 $555 $685 #
point $-1 61.404498395213324 39.118937423937808 8.0614521803683381 #
straight-curve $-1 -71.907712027344587 43.575410744681164 0 0 0 -1 I I #
point $-1 -71.907712027344587 -43.575410744681164 -12.87660236266745 #
straight-curve $-1 -71.907712027344587 0 -12.87660236266745 0 1 0 I I #
point $-1 -71.907712027344587 43.575410744681164 -12.87660236266745 #
edge $-1 $589 -1.7681897131511022 $583 1.7681897131511022 $582 $686 forward 7 unknown #
coedge $-1 $587 $578 $577 $655 reversed $435 $-1 #
edge $-1 $591 -1.7681897131511022 $580 1.7681897131511022 $577 $687 forward 7 unknown #
straight-curve $-1 0 -56.574440448883252 -12.876602362667448 -1 0 0 I I #
point $-1 71.907712027344587 -56.574440448883252 -12.876602362667448 #
point $-1 -71.907712027344587 -56.574440448883252 -12.876602362667448 #
straight-curve $-1 0 -56.574440448883252 -9.3402229363652438 1 0 0 I I #
point $-1 -71.907712027344587 -56.574440448883252 -9.3402229363652438 #
point $-1 71.907712027344587 -56.574440448883252 -9.3402229363652438 #
straight-curve $-1 -42.051662765294537 43.575410744681164 77.479789836376526 0 0 -1 I I #
point $-1 -42.051662765294537 43.575410744681164 12.87660236266745 #
straight-curve $-1 -25.755562403092668 43.575410744681164 6.1863273076995 -1 0 0 I I #
point $-1 -42.051662765294537 43.575410744681164 6.1863273076994858 #
point $-1 -55.565179966567108 38.261770115400822 7.5464141184977143 #
point $-1 -47.457069645803564 38.261770115400822 7.5464141184977143 #
straight-curve $-1 -6.0978067516222438 43.575410744681164 77.479789836376526 0 0 -1 I I #
point $-1 -6.0978067516222438 43.575410744681164 12.87660236266745 #
straight-curve $-1 -7.7786343962565212 43.575410744681164 6.1863273076995 -1 0 0 I I #
point $-1 -6.0978067516222438 43.575410744681164 6.1863273076994858 #
point $-1 -19.611323952894814 38.261770115400822 7.5464141184977143 #
point $-1 -11.503213632131271 38.261770115400822 7.5464141184977143 #
straight-curve $-1 29.85604926205005 43.575410744681164 77.479789836376526 0 0 -1 I I #
point $-1 29.85604926205005 43.575410744681164 12.87660236266745 #
straight-curve $-1 10.198293610579626 43.575410744681164 6.1863273076995 -1 0 0 I I #
point $-1 29.85604926205005 43.575410744681164 6.1863273076994858 #
point $-1 16.342532060777472 38.261770115400822 7.5464141184977143 #
point $-1 24.45064238154103 38.261770115400822 7.5464141184977143 #
straight-curve $-1 65.809905275722343 43.575410744681164 77.479789836376526 0 0 -1 I I #
point $-1 65.809905275722343 43.575410744681164 12.87660236266745 #
straight-curve $-1 28.175221617415772 43.575410744681164 6.1863273076995 -1 0 0 I I #
point $-1 65.809905275722343 43.575410744681164 6.1863273076994858 #
point $-1 52.296388074449766 38.261770115400822 7.5464141184977143 #
point $-1 60.404498395213324 38.261770115400822 7.5464141184977143 #
straight-curve $-1 -71.907712027344587 -56.574440448883252 -11.108412649516346 0 0 -1 I I #
straight-curve $-1 71.907712027344587 -56.574440448883252 -11.108412649516346 0 0 -1 I I #
End-of-ACIS-data 