500 0 10 0           
7 Unknown 11 ACIS 5.0 NT 24 Fri Mar 26 18:00:58 1999 
-1 9.9999999999999995e-007 1e-010 
body $-1 $10 $-1 $11 #
body $-1 $12 $-1 $13 #
body $-1 $14 $-1 $15 #
body $-1 $16 $-1 $17 #
body $-1 $18 $-1 $19 #
body $-1 $20 $-1 $21 #
body $-1 $22 $-1 $23 #
body $-1 $24 $-1 $25 #
body $-1 $26 $-1 $27 #
body $-1 $28 $-1 $29 #
lump $-1 $-1 $30 $0 #
transform $-1 1 0 0 0 1 0 0 0 1 57.098910489211704 23.861060863941645 10.314354447552594 1 rotate no_reflect no_shear #
lump $-1 $-1 $31 $1 #
transform $-1 1 0 0 0 1 0 0 0 1 57.098910489211704 23.861060863941645 10.314354447552594 1 rotate no_reflect no_shear #
lump $-1 $-1 $32 $2 #
transform $-1 1 0 0 0 1 0 0 0 1 57.098910489211704 23.861060863941645 10.314354447552594 1 rotate no_reflect no_shear #
lump $-1 $-1 $33 $3 #
transform $-1 1 0 0 0 1 0 0 0 1 57.098910489211704 23.861060863941645 10.314354447552594 1 rotate no_reflect no_shear #
lump $-1 $-1 $34 $4 #
transform $-1 1 0 0 0 1 0 0 0 1 57.098910489211704 23.861060863941645 10.314354447552594 1 rotate no_reflect no_shear #
lump $-1 $-1 $35 $5 #
transform $-1 1 0 0 0 1 0 0 0 1 57.098910489211704 23.861060863941645 10.314354447552594 1 rotate no_reflect no_shear #
lump $-1 $-1 $36 $6 #
transform $-1 1 0 0 0 1 0 0 0 1 57.098910489211704 23.861060863941645 10.314354447552594 1 rotate no_reflect no_shear #
lump $-1 $-1 $37 $7 #
transform $-1 1 0 0 0 1 0 0 0 1 57.098910489211704 23.861060863941645 10.314354447552594 1 rotate no_reflect no_shear #
lump $-1 $-1 $38 $8 #
transform $-1 1 0 0 0 1 0 0 0 1 57.098910489211704 23.861060863941645 10.314354447552594 1 rotate no_reflect no_shear #
lump $-1 $-1 $39 $9 #
transform $-1 1 0 0 0 1 0 0 0 1 57.098910489211704 23.861060863941645 10.314354447552594 1 rotate no_reflect no_shear #
shell $-1 $-1 $-1 $40 $-1 $10 #
shell $-1 $-1 $-1 $41 $-1 $12 #
shell $-1 $-1 $-1 $42 $-1 $14 #
shell $-1 $-1 $-1 $43 $-1 $16 #
shell $-1 $-1 $-1 $44 $-1 $18 #
shell $-1 $-1 $-1 $45 $-1 $20 #
shell $-1 $-1 $-1 $46 $-1 $22 #
shell $-1 $-1 $-1 $47 $-1 $24 #
shell $-1 $-1 $-1 $48 $-1 $26 #
shell $-1 $-1 $-1 $49 $-1 $28 #
face $-1 $50 $51 $30 $-1 $52 forward single #
face $-1 $53 $54 $31 $-1 $55 forward single #
face $-1 $56 $57 $32 $-1 $58 forward single #
face $-1 $59 $60 $33 $-1 $61 reversed single #
face $-1 $62 $63 $34 $-1 $64 forward single #
face $-1 $65 $66 $35 $-1 $67 forward single #
face $-1 $68 $69 $36 $-1 $70 reversed single #
face $-1 $71 $72 $37 $-1 $73 forward single #
face $-1 $74 $75 $38 $-1 $76 reversed single #
face $-1 $77 $78 $39 $-1 $79 forward single #
face $-1 $80 $81 $30 $-1 $82 reversed single #
loop $-1 $-1 $83 $40 #
plane-surface $-1 0 0 10.314354447552594 0 0 1 1 0 0 forward_v I I I I #
face $-1 $84 $85 $31 $-1 $86 reversed single #
loop $-1 $-1 $87 $41 #
plane-surface $-1 -51.657107195455808 0 -4.8154849189324498 0 0 1 1 0 0 forward_v I I I I #
face $-1 $88 $89 $32 $-1 $90 reversed single #
loop $-1 $-1 $91 $42 #
plane-surface $-1 51.657107195455808 0 -4.8154849189324498 0 0 1 1 0 0 forward_v I I I I #
face $-1 $92 $93 $33 $-1 $94 reversed single #
loop $-1 $-1 $95 $43 #
plane-surface $-1 21.597512911952585 -106.00809954653607 82.197782211738271 1 0 0 0 0.71933980857756763 -0.69465836192734942 forward_v I I I I #
face $-1 $96 $97 $34 $-1 $98 forward single #
loop $-1 $99 $100 $44 #
cone-surface $-1 28.631167480451822 -18.181260331842555 4.5783686087175646 0 0.71933980857756763 -0.69465836192734942 2 0 0 1 I I 0 1 2 forward I I I I #
face $-1 $101 $102 $35 $-1 $103 forward single #
loop $-1 $104 $105 $45 #
cone-surface $-1 39.181649333200681 -18.181260331842555 4.5783686087175646 0 0.71933980857756763 -0.69465836192734942 2 0 0 1 I I 0 1 2 forward I I I I #
face $-1 $106 $107 $36 $-1 $108 reversed single #
loop $-1 $-1 $109 $46 #
plane-surface $-1 -21.867866757574077 98.898215546822058 103.95202993310781 -1 0 0 0 0.86602541151947299 0.49999998660252726 forward_v I I I I #
face $-1 $110 $111 $37 $-1 $112 forward single #
loop $-1 $113 $114 $47 #
cone-surface $-1 -31.164735144464856 22.015696773055868 7.6523317800606385 0 -0.86602541151947299 -0.49999998660252726 1 0 0 1 I I 0 1 1 forward I I I I #
face $-1 $115 $116 $38 $-1 $117 reversed single #
loop $-1 $-1 $118 $48 #
plane-surface $-1 24.347437144125834 98.898215546822058 103.95202993310781 -1 0 0 0 0.86602541151947299 0.49999998660252726 forward_v I I I I #
face $-1 $119 $120 $39 $-1 $121 forward single #
loop $-1 $122 $123 $49 #
cone-surface $-1 15.050568757235055 22.015696773055868 7.6523317800606385 0 -0.86602541151947299 -0.49999998660252726 1 0 0 1 I I 0 1 1 forward I I I I #
face $-1 $124 $125 $30 $-1 $126 reversed single #
loop $-1 $-1 $127 $50 #
plane-surface $-1 0 0 -10.314354447552594 0 0 1 1 0 0 forward_v I I I I #
coedge $-1 $128 $129 $130 $131 forward $51 $-1 #
face $-1 $132 $133 $31 $-1 $134 reversed single #
loop $-1 $-1 $135 $53 #
plane-surface $-1 -46.215303901699912 0 -7.5649196832425218 -1 0 0 0 0 1 forward_v I I I I #
coedge $-1 $136 $137 $138 $139 forward $54 $-1 #
face $-1 $140 $141 $32 $-1 $142 reversed single #
loop $-1 $-1 $143 $56 #
plane-surface $-1 46.215303901699912 0 -7.5649196832425218 1 0 0 0 0 -1 forward_v I I I I #
coedge $-1 $144 $145 $146 $147 reversed $57 $-1 #
face $-1 $148 $149 $33 $-1 $150 reversed single #
loop $-1 $-1 $151 $59 #
plane-surface $-1 33.906408406826245 -23.861060863941645 2.8693109551939671 0 -0.71933980857756763 0.69465836192734942 1 0 0 forward_v I I I I #
coedge $-1 $152 $153 $154 $155 reversed $60 $-1 #
face $-1 $-1 $156 $34 $-1 $157 forward single #
loop $-1 $158 $159 $62 #
cone-surface $-1 28.631167480451822 -15.376917370103131 1.8702461541344935 0 0.71933980857756763 -0.69465836192734942 1 0 0 1 I I -0.70710678118654746 0.70710678118654746 1 forward I I I I #
loop $-1 $-1 $160 $44 #
coedge $-1 $100 $100 $161 $162 reversed $63 $-1 #
face $-1 $-1 $163 $35 $-1 $164 forward single #
loop $-1 $165 $166 $65 #
cone-surface $-1 39.181649333200681 -15.376917370103131 1.8702461541344935 0 0.71933980857756763 -0.69465836192734942 1 0 0 1 I I -0.70710678118654746 0.70710678118654746 1 forward I I I I #
loop $-1 $-1 $167 $45 #
coedge $-1 $105 $105 $168 $169 reversed $66 $-1 #
face $-1 $170 $171 $36 $-1 $172 reversed single #
loop $-1 $-1 $173 $68 #
plane-surface $-1 -31.164735144464856 6.3935581806617847e-007 46.853120973858296 0 0.86602541151947299 0.49999998660252726 1 0 0 forward_v I I I I #
coedge $-1 $174 $175 $176 $177 reversed $69 $-1 #
face $-1 $-1 $178 $37 $-1 $179 forward single #
loop $-1 $180 $181 $71 #
cone-surface $-1 -31.164735144464856 21.12001712063168 7.1352109101008292 0 -0.86602541151947299 -0.49999998660252726 0.5 0 0 1 I I -0.70710678118654746 0.70710678118654746 0.5 forward I I I I #
loop $-1 $-1 $182 $47 #
coedge $-1 $114 $114 $183 $184 reversed $72 $-1 #
face $-1 $185 $186 $38 $-1 $187 reversed single #
loop $-1 $-1 $188 $74 #
plane-surface $-1 15.050568757235055 6.3935581806617847e-007 46.853120973858296 0 0.86602541151947299 0.49999998660252726 1 0 0 forward_v I I I I #
coedge $-1 $189 $190 $191 $192 reversed $75 $-1 #
face $-1 $-1 $193 $39 $-1 $194 forward single #
loop $-1 $195 $196 $77 #
cone-surface $-1 15.050568757235055 21.12001712063168 7.1352109101008292 0 -0.86602541151947299 -0.49999998660252726 0.5 0 0 1 I I -0.70710678118654746 0.70710678118654746 0.5 forward I I I I #
loop $-1 $-1 $197 $49 #
coedge $-1 $123 $123 $198 $199 reversed $78 $-1 #
face $-1 $200 $201 $30 $-1 $202 reversed single #
loop $-1 $-1 $203 $80 #
plane-surface $-1 0 -23.861060863941645 0 0 1 0 0 0 1 forward_v I I I I #
coedge $-1 $204 $205 $206 $207 forward $81 $-1 #
coedge $-1 $208 $83 $209 $210 forward $51 $-1 #
coedge $-1 $83 $208 $211 $212 forward $51 $-1 #
coedge $-1 $213 $214 $83 $131 reversed $215 $-1 #
edge $-1 $216 -23.861060863941645 $217 23.861060863941645 $130 $218 forward 7 unknown #
face $-1 $219 $220 $31 $-1 $221 reversed single #
loop $-1 $-1 $222 $84 #
plane-surface $-1 0 0 -10.314354447552594 0 0 1 1 0 0 forward_v I I I I #
coedge $-1 $223 $138 $224 $225 reversed $85 $-1 #
coedge $-1 $226 $87 $227 $228 reversed $54 $-1 #
coedge $-1 $87 $226 $229 $230 reversed $54 $-1 #
coedge $-1 $135 $231 $87 $139 reversed $85 $-1 #
edge $-1 $232 -23.861060863941645 $233 23.861060863941645 $138 $234 forward 7 unknown #
face $-1 $235 $236 $32 $-1 $237 reversed single #
loop $-1 $-1 $238 $88 #
plane-surface $-1 0 -23.861060863941645 0 0 1 0 0 0 1 forward_v I I I I #
coedge $-1 $239 $240 $241 $242 reversed $89 $-1 #
coedge $-1 $243 $91 $244 $245 reversed $57 $-1 #
coedge $-1 $91 $243 $238 $246 reversed $57 $-1 #
coedge $-1 $247 $248 $91 $147 forward $249 $-1 #
edge $-1 $250 -23.861060863941645 $251 23.861060863941645 $146 $252 forward 7 unknown #
face $-1 $253 $254 $33 $-1 $255 forward single #
loop $-1 $-1 $256 $92 #
plane-surface $-1 46.215303901699905 -106.00809954653607 82.197782211738271 -1 0 0 0 -0.71933980857756763 0.69465836192734942 forward_v I I I I #
coedge $-1 $257 $258 $259 $260 reversed $93 $-1 #
coedge $-1 $153 $95 $261 $262 reversed $60 $-1 #
coedge $-1 $95 $152 $257 $263 reversed $60 $-1 #
coedge $-1 $259 $264 $95 $155 forward $265 $-1 #
edge $-1 $266 30.78453665831654 $267 38.229580150675169 $154 $268 forward 7 unknown #
loop $-1 $-1 $161 $96 #
plane-surface $-1 33.906408406826245 -23.861060863941645 2.8693109551939671 0 -0.71933980857756763 0.69465836192734942 1 0 0 forward_v I I I I #
loop $-1 $-1 $269 $62 #
coedge $-1 $159 $159 $160 $270 reversed $97 $-1 #
coedge $-1 $160 $160 $159 $270 forward $99 $-1 #
coedge $-1 $161 $161 $100 $162 forward $156 $-1 #
edge $-1 $271 -2.3176493407809247e-016 $271 6.2831853071796004 $161 $272 forward 7 unknown #
loop $-1 $-1 $168 $101 #
plane-surface $-1 33.906408406826245 -23.861060863941645 2.8693109551939671 0 -0.71933980857756763 0.69465836192734942 1 0 0 forward_v I I I I #
loop $-1 $-1 $273 $65 #
coedge $-1 $166 $166 $167 $274 reversed $102 $-1 #
coedge $-1 $167 $167 $166 $274 forward $104 $-1 #
coedge $-1 $168 $168 $105 $169 forward $163 $-1 #
edge $-1 $275 -2.3176493407809247e-016 $275 6.2831853071796004 $168 $276 forward 7 unknown #
face $-1 $277 $278 $36 $-1 $279 reversed single #
loop $-1 $-1 $280 $106 #
plane-surface $-1 -40.461603531355635 98.898215546822058 103.95202993310781 1 0 0 0 -0.86602541151947299 -0.49999998660252726 forward_v I I I I #
coedge $-1 $281 $282 $283 $284 reversed $107 $-1 #
coedge $-1 $175 $109 $285 $286 reversed $69 $-1 #
coedge $-1 $109 $174 $281 $287 reversed $69 $-1 #
coedge $-1 $283 $288 $109 $177 forward $278 $-1 #
edge $-1 $289 41.661660519001309 $290 46.451464100668133 $176 $291 forward 7 unknown #
loop $-1 $-1 $183 $110 #
plane-surface $-1 -31.164735144464856 6.3935581806617847e-007 46.853120973858296 0 0.86602541151947299 0.49999998660252726 1 0 0 forward_v I I I I #
loop $-1 $-1 $292 $71 #
coedge $-1 $181 $181 $182 $293 reversed $111 $-1 #
coedge $-1 $182 $182 $181 $293 forward $113 $-1 #
coedge $-1 $183 $183 $114 $184 forward $178 $-1 #
edge $-1 $294 1.7763567918028656e-015 $294 6.2831853071796022 $183 $295 forward 7 unknown #
face $-1 $296 $297 $38 $-1 $298 reversed single #
loop $-1 $-1 $299 $115 #
plane-surface $-1 5.7537003703442764 98.898215546822058 103.95202993310781 1 0 0 0 -0.86602541151947299 -0.49999998660252726 forward_v I I I I #
coedge $-1 $300 $301 $302 $303 reversed $116 $-1 #
coedge $-1 $190 $118 $304 $305 reversed $75 $-1 #
coedge $-1 $118 $189 $300 $306 reversed $75 $-1 #
coedge $-1 $302 $307 $118 $192 forward $297 $-1 #
edge $-1 $308 41.661660519001309 $309 46.451464100668133 $191 $310 forward 7 unknown #
loop $-1 $-1 $198 $119 #
plane-surface $-1 15.050568757235055 6.3935581806617847e-007 46.853120973858296 0 0.86602541151947299 0.49999998660252726 1 0 0 forward_v I I I I #
loop $-1 $-1 $311 $77 #
coedge $-1 $196 $196 $197 $312 reversed $120 $-1 #
coedge $-1 $197 $197 $196 $312 forward $122 $-1 #
coedge $-1 $198 $198 $123 $199 forward $193 $-1 #
edge $-1 $313 1.7763567918028656e-015 $313 6.2831853071796022 $198 $314 forward 7 unknown #
face $-1 $315 $316 $30 $-1 $317 reversed single #
loop $-1 $-1 $318 $124 #
plane-surface $-1 -57.098910489211704 0 0 1 0 0 0 0 -1 forward_v I I I I #
coedge $-1 $319 $211 $320 $321 forward $125 $-1 #
coedge $-1 $322 $127 $319 $323 forward $81 $-1 #
coedge $-1 $127 $322 $324 $325 forward $81 $-1 #
coedge $-1 $214 $213 $127 $207 reversed $215 $-1 #
edge $-1 $326 -23.861060863941645 $327 23.861060863941645 $206 $328 forward 7 unknown #
coedge $-1 $129 $128 $329 $330 forward $51 $-1 #
coedge $-1 $331 $332 $128 $210 reversed $316 $-1 #
edge $-1 $217 -57.098910489211704 $333 57.098910489211704 $209 $334 forward 7 unknown #
coedge $-1 $203 $335 $129 $212 reversed $125 $-1 #
edge $-1 $336 -57.098910489211704 $216 57.098910489211704 $211 $337 forward 7 unknown #
coedge $-1 $206 $130 $335 $338 forward $215 $-1 #
coedge $-1 $130 $206 $331 $339 reversed $215 $-1 #
loop $-1 $-1 $213 $315 #
vertex $-1 $131 $340 #
vertex $-1 $131 $341 #
straight-curve $-1 57.098910489211704 0 10.314354447552594 0 1 0 I I #
face $-1 $342 $343 $31 $-1 $344 reversed single #
loop $-1 $-1 $224 $132 #
plane-surface $-1 0 -23.861060863941645 0 0 1 0 0 0 1 forward_v I I I I #
coedge $-1 $345 $346 $223 $347 forward $133 $-1 #
coedge $-1 $231 $135 $222 $347 reversed $85 $-1 #
coedge $-1 $229 $348 $135 $225 forward $220 $-1 #
edge $-1 $349 -6.531894605931333 $232 -1.0330250773111889 $224 $350 forward 7 unknown #
coedge $-1 $137 $136 $351 $352 reversed $54 $-1 #
coedge $-1 $353 $354 $136 $228 forward $355 $-1 #
edge $-1 $356 -31.2703568914838 $233 -20.386750303972008 $227 $357 forward 7 unknown #
coedge $-1 $358 $224 $137 $230 forward $220 $-1 #
edge $-1 $232 20.386750303972008 $359 31.2703568914838 $229 $360 forward 7 unknown #
coedge $-1 $138 $223 $353 $361 reversed $85 $-1 #
vertex $-1 $230 $362 #
vertex $-1 $228 $363 #
straight-curve $-1 -46.215303901699912 0 -4.8154849189324498 0 1 0 I I #
face $-1 $364 $365 $32 $-1 $366 reversed single #
loop $-1 $-1 $367 $140 #
plane-surface $-1 0 0 -10.314354447552594 0 0 1 1 0 0 forward_v I I I I #
coedge $-1 $368 $369 $145 $246 forward $141 $-1 #
coedge $-1 $370 $143 $367 $371 reversed $89 $-1 #
coedge $-1 $143 $370 $243 $372 reversed $89 $-1 #
coedge $-1 $244 $373 $143 $242 forward $365 $-1 #
edge $-1 $374 -6.531894605931333 $375 -1.0330250773111889 $241 $376 forward 7 unknown #
coedge $-1 $145 $144 $240 $372 forward $57 $-1 #
coedge $-1 $377 $241 $144 $245 forward $365 $-1 #
edge $-1 $375 20.386750303972008 $250 31.2703568914838 $244 $378 forward 7 unknown #
edge $-1 $251 -31.2703568914838 $379 -20.386750303972008 $238 $380 forward 7 unknown #
coedge $-1 $381 $146 $369 $382 forward $249 $-1 #
coedge $-1 $146 $381 $377 $383 reversed $249 $-1 #
loop $-1 $-1 $146 $364 #
vertex $-1 $383 $384 #
vertex $-1 $382 $385 #
straight-curve $-1 57.098910489211704 0 -4.8154849189324498 0 -1 0 I I #
face $-1 $-1 $265 $33 $-1 $386 reversed single #
loop $-1 $-1 $387 $148 #
plane-surface $-1 0 0 10.314354447552594 0 0 1 1 0 0 forward_v I I I I #
coedge $-1 $388 $389 $390 $391 reversed $149 $-1 #
coedge $-1 $392 $151 $153 $263 forward $93 $-1 #
coedge $-1 $151 $392 $388 $393 forward $93 $-1 #
coedge $-1 $390 $154 $151 $260 forward $265 $-1 #
edge $-1 $267 4.6443087085394623 $394 29.262099698286782 $259 $395 forward 7 unknown #
coedge $-1 $396 $397 $152 $262 forward $254 $-1 #
edge $-1 $398 -36.332583667200879 $266 -29.142988909326391 $261 $399 forward 7 unknown #
edge $-1 $267 0 $398 10.349828278071467 $153 $400 forward 7 unknown #
coedge $-1 $154 $390 $396 $401 reversed $265 $-1 #
loop $-1 $-1 $390 $253 #
vertex $-1 $401 $402 #
vertex $-1 $155 $403 #
straight-curve $-1 21.597512911952585 -23.861060863941645 41.098891105869136 0 0 -1 I I #
coedge $-1 $269 $269 $-1 $404 reversed $158 $-1 #
edge $-1 $405 0 $405 6.2831853071796004 $159 $406 forward 7 unknown #
vertex $-1 $162 $407 #
ellipse-curve $-1 28.631167480451822 -20.266263485004401 6.5918327013732796 0 -0.71933980857756763 0.69465836192734942 2 0 0 1 I I #
coedge $-1 $273 $273 $-1 $408 reversed $165 $-1 #
edge $-1 $409 0 $409 6.2831853071796004 $166 $410 forward 7 unknown #
vertex $-1 $169 $411 #
ellipse-curve $-1 39.181649333200681 -20.266263485004401 6.5918327013732796 0 -0.71933980857756763 0.69465836192734942 2 0 0 1 I I #
face $-1 $-1 $412 $36 $-1 $413 forward single #
loop $-1 $-1 $176 $170 #
plane-surface $-1 0 23.861060863941645 0 0 -1 0 0 0 -1 forward_v I I I I #
coedge $-1 $414 $415 $416 $417 reversed $171 $-1 #
coedge $-1 $418 $173 $175 $287 forward $107 $-1 #
coedge $-1 $173 $418 $414 $419 forward $107 $-1 #
coedge $-1 $416 $176 $173 $284 forward $278 $-1 #
edge $-1 $290 6.2854991853416493 $420 24.879235959123207 $283 $421 forward 7 unknown #
coedge $-1 $422 $423 $174 $286 forward $412 $-1 #
edge $-1 $424 -28.353441197912037 $289 -25.588046909469384 $285 $425 forward 7 unknown #
edge $-1 $290 -47.722121727883305 $424 -42.191333002800818 $175 $426 forward 7 unknown #
coedge $-1 $176 $416 $422 $427 reversed $278 $-1 #
vertex $-1 $427 $428 #
vertex $-1 $177 $429 #
straight-curve $-1 -21.867866757574077 23.861060863941645 51.976014966553905 0 0 -1 I I #
coedge $-1 $292 $292 $-1 $430 reversed $180 $-1 #
edge $-1 $431 0 $431 6.2831853071796004 $181 $432 forward 7 unknown #
vertex $-1 $184 $433 #
ellipse-curve $-1 -31.164735144464856 22.478363719720321 7.9194526567191827 0 0.86602541151947299 0.49999998660252726 1 0 0 1 I I #
face $-1 $-1 $434 $38 $-1 $435 forward single #
loop $-1 $-1 $191 $185 #
plane-surface $-1 0 23.861060863941645 0 0 -1 0 0 0 -1 forward_v I I I I #
coedge $-1 $436 $437 $438 $439 reversed $186 $-1 #
coedge $-1 $440 $188 $190 $306 forward $116 $-1 #
coedge $-1 $188 $440 $436 $441 forward $116 $-1 #
coedge $-1 $438 $191 $188 $303 forward $297 $-1 #
edge $-1 $309 -16.822152765508307 $442 1.7715840082732512 $302 $443 forward 7 unknown #
coedge $-1 $444 $445 $189 $305 forward $434 $-1 #
edge $-1 $446 -28.353441197912037 $308 -25.588046909469384 $304 $447 forward 7 unknown #
edge $-1 $309 -47.722121727883305 $446 -42.191333002800818 $190 $448 forward 7 unknown #
coedge $-1 $191 $438 $444 $449 reversed $297 $-1 #
vertex $-1 $449 $450 #
vertex $-1 $192 $451 #
straight-curve $-1 24.347437144125834 23.861060863941645 51.976014966553905 0 0 -1 I I #
coedge $-1 $311 $311 $-1 $452 reversed $195 $-1 #
edge $-1 $453 0 $453 6.2831853071796004 $196 $454 forward 7 unknown #
vertex $-1 $199 $455 #
ellipse-curve $-1 15.050568757235055 22.478363719720321 7.9194526567191827 0 0.86602541151947299 0.49999998660252726 1 0 0 1 I I #
face $-1 $-1 $215 $30 $-1 $456 reversed single #
loop $-1 $-1 $331 $200 #
plane-surface $-1 0 23.861060863941645 0 0 -1 0 0 0 -1 forward_v I I I I #
coedge $-1 $457 $329 $332 $458 forward $201 $-1 #
coedge $-1 $335 $203 $204 $323 reversed $125 $-1 #
coedge $-1 $329 $457 $203 $321 reversed $201 $-1 #
edge $-1 $336 -10.314354447552594 $459 10.314354447552594 $320 $460 forward 7 unknown #
coedge $-1 $205 $204 $457 $461 forward $81 $-1 #
edge $-1 $327 -57.098910489211704 $459 57.098910489211704 $319 $462 forward 7 unknown #
coedge $-1 $332 $331 $205 $325 reversed $316 $-1 #
edge $-1 $463 -57.098910489211704 $326 57.098910489211704 $324 $464 forward 7 unknown #
vertex $-1 $207 $465 #
vertex $-1 $338 $466 #
straight-curve $-1 57.098910489211704 0 -10.314354447552594 0 -1 0 I I #
coedge $-1 $318 $320 $208 $330 reversed $201 $-1 #
edge $-1 $333 -23.861060863941645 $336 23.861060863941645 $329 $467 forward 7 unknown #
coedge $-1 $324 $209 $214 $339 forward $316 $-1 #
coedge $-1 $209 $324 $318 $458 reversed $316 $-1 #
vertex $-1 $210 $468 #
straight-curve $-1 0 23.861060863941645 10.314354447552594 -1 0 0 I I #
coedge $-1 $211 $319 $213 $338 reversed $125 $-1 #
vertex $-1 $330 $469 #
straight-curve $-1 0 -23.861060863941645 10.314354447552594 1 0 0 I I #
edge $-1 $216 -10.314354447552594 $327 10.314354447552594 $213 $470 forward 7 unknown #
edge $-1 $217 -10.314354447552594 $326 10.314354447552594 $214 $471 forward 7 unknown #
point $-1 57.098910489211704 -23.861060863941645 10.314354447552594 #
point $-1 57.098910489211704 23.861060863941645 10.314354447552594 #
face $-1 $-1 $355 $31 $-1 $472 reversed single #
loop $-1 $-1 $351 $219 #
plane-surface $-1 -57.098910489211704 0 0 1 0 0 0 0 -1 forward_v I I I I #
coedge $-1 $473 $222 $348 $474 forward $133 $-1 #
coedge $-1 $222 $473 $475 $476 forward $133 $-1 #
edge $-1 $477 -23.861060863941645 $349 23.861060863941645 $222 $478 forward 7 unknown #
coedge $-1 $224 $358 $345 $474 reversed $220 $-1 #
vertex $-1 $474 $479 #
straight-curve $-1 -46.215303901699912 -23.861060863941645 -3.7824598416212609 0 0 1 I I #
coedge $-1 $480 $481 $226 $352 forward $343 $-1 #
edge $-1 $359 -23.861060863941645 $356 23.861060863941645 $351 $482 forward 7 unknown #
coedge $-1 $475 $227 $231 $361 forward $355 $-1 #
coedge $-1 $227 $475 $480 $483 reversed $355 $-1 #
loop $-1 $-1 $353 $342 #
vertex $-1 $483 $484 #
straight-curve $-1 -25.828553597727904 23.861060863941645 -4.8154849189324498 1 0 0 I I #
coedge $-1 $348 $229 $481 $485 forward $220 $-1 #
vertex $-1 $485 $486 #
straight-curve $-1 -25.828553597727904 -23.861060863941645 -4.8154849189324498 -1 0 0 I I #
edge $-1 $233 1.0330250773111889 $477 6.531894605931333 $353 $487 forward 7 unknown #
point $-1 -46.215303901699912 -23.861060863941645 -4.8154849189324498 #
point $-1 -46.215303901699912 23.861060863941645 -4.8154849189324498 #
face $-1 $-1 $249 $32 $-1 $488 reversed single #
loop $-1 $-1 $244 $235 #
plane-surface $-1 0 23.861060863941645 0 0 -1 0 0 0 -1 forward_v I I I I #
coedge $-1 $489 $490 $239 $371 forward $236 $-1 #
coedge $-1 $491 $238 $370 $492 forward $141 $-1 #
coedge $-1 $238 $491 $247 $382 reversed $141 $-1 #
coedge $-1 $240 $239 $368 $492 reversed $89 $-1 #
edge $-1 $493 -23.861060863941645 $374 23.861060863941645 $367 $494 forward 7 unknown #
edge $-1 $375 -23.861060863941645 $379 23.861060863941645 $240 $495 forward 7 unknown #
coedge $-1 $241 $377 $489 $496 reversed $365 $-1 #
vertex $-1 $496 $497 #
vertex $-1 $245 $498 #
straight-curve $-1 46.215303901699912 23.861060863941645 -3.7824598416212609 0 0 1 I I #
coedge $-1 $373 $244 $248 $383 forward $365 $-1 #
straight-curve $-1 25.828553597727904 23.861060863941645 -4.8154849189324498 1 0 0 I I #
vertex $-1 $246 $499 #
straight-curve $-1 25.828553597727904 -23.861060863941645 -4.8154849189324498 -1 0 0 I I #
coedge $-1 $248 $247 $500 $501 reversed $249 $-1 #
edge $-1 $251 4.8154849189324498 $502 10.314354447552594 $247 $503 forward 7 unknown #
edge $-1 $250 4.8154849189324498 $504 10.314354447552594 $248 $505 forward 7 unknown #
point $-1 57.098910489211704 23.861060863941645 -4.8154849189324498 #
point $-1 57.098910489211704 -23.861060863941645 -4.8154849189324498 #
plane-surface $-1 0 -23.861060863941645 0 0 1 0 0 0 1 forward_v I I I I #
coedge $-1 $397 $396 $389 $506 forward $254 $-1 #
coedge $-1 $389 $256 $258 $393 reversed $149 $-1 #
coedge $-1 $256 $388 $387 $506 reversed $149 $-1 #
coedge $-1 $264 $259 $256 $391 forward $265 $-1 #
edge $-1 $394 -38.229580150675169 $507 -30.78453665831654 $390 $508 forward 7 unknown #
coedge $-1 $258 $257 $397 $509 reversed $93 $-1 #
edge $-1 $510 -10.349828278071467 $394 0 $388 $511 forward 7 unknown #
vertex $-1 $260 $512 #
straight-curve $-1 16.953204203413122 -23.861060863941645 2.8693109551939688 1 0 0 I I #
coedge $-1 $387 $261 $264 $401 forward $254 $-1 #
coedge $-1 $261 $387 $392 $509 forward $254 $-1 #
vertex $-1 $262 $513 #
straight-curve $-1 21.597512911952585 -53.004049773268036 10.314354447552596 0 -1 0 I I #
straight-curve $-1 21.597512911952585 -23.861060863941645 2.8693109551939671 0 0.69465836192734942 0.71933980857756763 I I #
edge $-1 $266 21.597512911952585 $507 46.215303901699905 $264 $514 forward 7 unknown #
point $-1 21.597512911952585 -23.861060863941645 10.314354447552594 #
point $-1 21.597512911952585 -23.861060863941645 2.8693109551939671 #
edge $-1 $515 1 $515 0 $269 $-1 forward 7 unknown #
vertex $-1 $270 $516 #
ellipse-curve $-1 28.631167480451822 -16.096257178680698 2.5649045160618429 0 -0.71933980857756763 0.69465836192734942 2 0 0 1 I I #
point $-1 30.631167480451822 -20.266263485004409 6.5918327013732858 #
edge $-1 $517 1 $517 0 $273 $-1 forward 7 unknown #
vertex $-1 $274 $518 #
ellipse-curve $-1 39.181649333200681 -16.096257178680698 2.5649045160618429 0 -0.71933980857756763 0.69465836192734942 2 0 0 1 I I #
point $-1 41.181649333200681 -20.266263485004409 6.5918327013732858 #
loop $-1 $-1 $285 $277 #
plane-surface $-1 0 0 10.314354447552594 0 0 1 1 0 0 forward_v I I I I #
coedge $-1 $415 $280 $282 $419 reversed $171 $-1 #
coedge $-1 $280 $414 $519 $520 reversed $171 $-1 #
coedge $-1 $288 $283 $280 $417 forward $278 $-1 #
edge $-1 $420 -46.451464100668133 $521 -41.661660519001309 $416 $522 forward 7 unknown #
coedge $-1 $282 $281 $423 $523 reversed $107 $-1 #
edge $-1 $524 42.191333002800818 $420 47.722121727883305 $414 $525 forward 7 unknown #
vertex $-1 $284 $526 #
straight-curve $-1 -15.582367572232428 23.861060863941645 5.5245508658857716 -1 0 0 I I #
coedge $-1 $519 $285 $288 $427 forward $412 $-1 #
coedge $-1 $285 $519 $418 $523 forward $412 $-1 #
vertex $-1 $286 $527 #
straight-curve $-1 -21.867866757574077 49.449107773411029 10.314354447552596 0 1 0 I I #
straight-curve $-1 -21.867866757574077 6.3935581806617847e-007 46.853120973858296 0 -0.49999998660252726 0.86602541151947299 I I #
edge $-1 $289 21.867866757574077 $521 40.461603531355635 $288 $528 forward 7 unknown #
point $-1 -21.867866757574077 23.861060863941645 10.314354447552594 #
point $-1 -21.867866757574077 23.861060863941645 5.5245508658857716 #
edge $-1 $529 1 $529 0 $292 $-1 forward 7 unknown #
vertex $-1 $293 $530 #
ellipse-curve $-1 -31.164735144464856 21.553029826391416 7.3852109034020925 0 0.86602541151947299 0.49999998660252726 1 0 0 1 I I #
point $-1 -30.164735144464856 22.478363719720324 7.9194526567191827 #
loop $-1 $-1 $304 $296 #
plane-surface $-1 0 0 10.314354447552594 0 0 1 1 0 0 forward_v I I I I #
coedge $-1 $437 $299 $301 $441 reversed $186 $-1 #
coedge $-1 $299 $436 $531 $532 reversed $186 $-1 #
coedge $-1 $307 $302 $299 $439 forward $297 $-1 #
edge $-1 $442 -46.451464100668133 $533 -41.661660519001309 $438 $534 forward 7 unknown #
coedge $-1 $301 $300 $445 $535 reversed $116 $-1 #
edge $-1 $536 42.191333002800818 $442 47.722121727883305 $436 $537 forward 7 unknown #
vertex $-1 $303 $538 #
straight-curve $-1 7.5252843786175276 23.861060863941645 5.5245508658857716 -1 0 0 I I #
coedge $-1 $531 $304 $307 $449 forward $434 $-1 #
coedge $-1 $304 $531 $440 $535 forward $434 $-1 #
vertex $-1 $305 $539 #
straight-curve $-1 24.347437144125834 49.449107773411029 10.314354447552596 0 1 0 I I #
straight-curve $-1 24.347437144125834 6.3935581806617847e-007 46.853120973858296 0 -0.49999998660252726 0.86602541151947299 I I #
edge $-1 $308 -24.347437144125834 $533 -5.7537003703442764 $307 $540 forward 7 unknown #
point $-1 24.347437144125834 23.861060863941645 10.314354447552594 #
point $-1 24.347437144125834 23.861060863941645 5.5245508658857716 #
edge $-1 $541 1 $541 0 $311 $-1 forward 7 unknown #
vertex $-1 $312 $542 #
ellipse-curve $-1 15.050568757235055 21.553029826391416 7.3852109034020925 0 0.86602541151947299 0.49999998660252726 1 0 0 1 I I #
point $-1 16.050568757235055 22.478363719720324 7.9194526567191827 #
plane-surface $-1 57.098910489211704 0 0 -1 0 0 0 0 1 forward_v I I I I #
coedge $-1 $320 $318 $322 $461 reversed $201 $-1 #
edge $-1 $333 -10.314354447552594 $463 10.314354447552594 $332 $543 forward 7 unknown #
vertex $-1 $461 $544 #
straight-curve $-1 -57.098910489211704 -23.861060863941645 0 0 0 -1 I I #
edge $-1 $459 -23.861060863941645 $463 23.861060863941645 $457 $545 forward 7 unknown #
straight-curve $-1 0 -23.861060863941645 -10.314354447552594 -1 0 0 I I #
vertex $-1 $325 $546 #
straight-curve $-1 0 23.861060863941645 -10.314354447552594 1 0 0 I I #
point $-1 57.098910489211704 23.861060863941645 -10.314354447552594 #
point $-1 57.098910489211704 -23.861060863941645 -10.314354447552594 #
straight-curve $-1 -57.098910489211704 0 10.314354447552594 0 -1 0 I I #
point $-1 -57.098910489211704 23.861060863941645 10.314354447552594 #
point $-1 -57.098910489211704 -23.861060863941645 10.314354447552594 #
straight-curve $-1 57.098910489211704 -23.861060863941645 0 0 0 -1 I I #
straight-curve $-1 57.098910489211704 23.861060863941645 0 0 0 -1 I I #
plane-surface $-1 0 23.861060863941645 0 0 -1 0 0 0 -1 forward_v I I I I #
coedge $-1 $346 $345 $547 $548 forward $133 $-1 #
edge $-1 $349 46.215303901699912 $549 57.098910489211704 $348 $550 forward 7 unknown #
coedge $-1 $354 $353 $346 $476 reversed $355 $-1 #
edge $-1 $551 -57.098910489211704 $477 -46.215303901699912 $475 $552 forward 7 unknown #
vertex $-1 $361 $553 #
straight-curve $-1 -46.215303901699912 0 -10.314354447552594 0 -1 0 I I #
point $-1 -46.215303901699912 -23.861060863941645 -10.314354447552594 #
coedge $-1 $547 $351 $354 $483 forward $343 $-1 #
coedge $-1 $351 $547 $358 $485 reversed $343 $-1 #
straight-curve $-1 -57.098910489211704 0 -4.8154849189324498 0 1 0 I I #
edge $-1 $356 4.8154849189324498 $551 10.314354447552594 $354 $554 forward 7 unknown #
point $-1 -57.098910489211704 23.861060863941645 -4.8154849189324498 #
edge $-1 $359 4.8154849189324498 $549 10.314354447552594 $481 $555 forward 7 unknown #
point $-1 -57.098910489211704 -23.861060863941645 -4.8154849189324498 #
straight-curve $-1 -46.215303901699912 23.861060863941645 -3.7824598416212609 0 0 -1 I I #
plane-surface $-1 57.098910489211704 0 0 -1 0 0 0 0 1 forward_v I I I I #
coedge $-1 $500 $367 $373 $496 forward $236 $-1 #
coedge $-1 $367 $500 $491 $556 forward $236 $-1 #
coedge $-1 $369 $368 $490 $556 reversed $141 $-1 #
edge $-1 $379 1.0330250773111889 $493 6.531894605931333 $368 $557 forward 7 unknown #
vertex $-1 $371 $558 #
straight-curve $-1 46.215303901699912 0 -10.314354447552594 0 1 0 I I #
straight-curve $-1 46.215303901699912 0 -4.8154849189324498 0 -1 0 I I #
edge $-1 $374 46.215303901699912 $504 57.098910489211704 $373 $559 forward 7 unknown #
point $-1 46.215303901699912 23.861060863941645 -10.314354447552594 #
point $-1 46.215303901699912 23.861060863941645 -4.8154849189324498 #
point $-1 46.215303901699912 -23.861060863941645 -4.8154849189324498 #
coedge $-1 $490 $489 $381 $501 forward $236 $-1 #
edge $-1 $504 -23.861060863941645 $502 23.861060863941645 $381 $560 forward 7 unknown #
vertex $-1 $382 $561 #
straight-curve $-1 57.098910489211704 -23.861060863941645 0 0 0 -1 I I #
vertex $-1 $501 $562 #
straight-curve $-1 57.098910489211704 23.861060863941645 0 0 0 -1 I I #
edge $-1 $507 29.142988909326391 $510 36.332583667200879 $387 $563 forward 7 unknown #
vertex $-1 $506 $564 #
straight-curve $-1 46.215303901699905 -23.861060863941645 41.098891105869136 0 0 1 I I #
edge $-1 $510 -29.262099698286782 $398 -4.6443087085394623 $397 $565 forward 7 unknown #
vertex $-1 $509 $566 #
straight-curve $-1 46.215303901699905 -23.861060863941645 2.8693109551939671 0 -0.69465836192734942 -0.71933980857756763 I I #
point $-1 46.215303901699905 -23.861060863941645 2.8693109551939671 #
point $-1 21.597512911952585 -16.671466106067161 10.314354447552594 #
straight-curve $-1 0 -23.861060863941645 10.314354447552594 1 0 0 I I #
vertex $-1 $404 $567 #
point $-1 30.631167480451822 -16.096257178680698 2.5649045160618429 #
vertex $-1 $408 $568 #
point $-1 41.181649333200681 -16.096257178680698 2.5649045160618429 #
coedge $-1 $423 $422 $415 $520 forward $412 $-1 #
edge $-1 $521 25.588046909469384 $524 28.353441197912037 $519 $569 forward 7 unknown #
vertex $-1 $520 $570 #
straight-curve $-1 -40.461603531355635 23.861060863941645 51.976014966553905 0 0 1 I I #
edge $-1 $524 -24.879235959123207 $424 -6.2854991853416493 $423 $571 forward 7 unknown #
vertex $-1 $523 $572 #
straight-curve $-1 -40.461603531355635 6.3935581806617847e-007 46.853120973858296 0 0.49999998660252726 -0.86602541151947299 I I #
point $-1 -40.461603531355635 23.861060863941645 5.5245508658857716 #
point $-1 -21.867866757574077 21.095666575498992 10.314354447552596 #
straight-curve $-1 0 23.861060863941645 10.314354447552594 -1 0 0 I I #
vertex $-1 $430 $573 #
point $-1 -30.164735144464856 21.553029826391416 7.3852109034020925 #
coedge $-1 $445 $444 $437 $532 forward $434 $-1 #
edge $-1 $533 25.588046909469384 $536 28.353441197912037 $531 $574 forward 7 unknown #
vertex $-1 $532 $575 #
straight-curve $-1 5.7537003703442764 23.861060863941645 51.976014966553905 0 0 1 I I #
edge $-1 $536 -1.7715840082732512 $446 16.822152765508307 $445 $576 forward 7 unknown #
vertex $-1 $535 $577 #
straight-curve $-1 5.7537003703442764 6.3935581806617847e-007 46.853120973858296 0 0.49999998660252726 -0.86602541151947299 I I #
point $-1 5.7537003703442764 23.861060863941645 5.5245508658857716 #
point $-1 24.347437144125834 21.095666575498992 10.314354447552596 #
straight-curve $-1 0 23.861060863941645 10.314354447552594 -1 0 0 I I #
vertex $-1 $452 $578 #
point $-1 16.050568757235055 21.553029826391416 7.3852109034020925 #
straight-curve $-1 -57.098910489211704 23.861060863941645 0 0 0 -1 I I #
point $-1 -57.098910489211704 -23.861060863941645 -10.314354447552594 #
straight-curve $-1 -57.098910489211704 0 -10.314354447552594 0 1 0 I I #
point $-1 -57.098910489211704 23.861060863941645 -10.314354447552594 #
coedge $-1 $481 $480 $473 $548 reversed $343 $-1 #
edge $-1 $549 -23.861060863941645 $551 23.861060863941645 $547 $579 forward 7 unknown #
vertex $-1 $548 $580 #
straight-curve $-1 0 -23.861060863941645 -10.314354447552594 -1 0 0 I I #
vertex $-1 $476 $581 #
straight-curve $-1 0 23.861060863941645 -10.314354447552594 1 0 0 I I #
point $-1 -46.215303901699912 23.861060863941645 -10.314354447552594 #
straight-curve $-1 -57.098910489211704 23.861060863941645 0 0 0 -1 I I #
straight-curve $-1 -57.098910489211704 -23.861060863941645 0 0 0 -1 I I #
edge $-1 $502 -57.098910489211704 $493 -46.215303901699912 $491 $582 forward 7 unknown #
straight-curve $-1 46.215303901699912 -23.861060863941645 -3.7824598416212609 0 0 -1 I I #
point $-1 46.215303901699912 -23.861060863941645 -10.314354447552594 #
straight-curve $-1 0 23.861060863941645 -10.314354447552594 1 0 0 I I #
straight-curve $-1 57.098910489211704 0 -10.314354447552594 0 -1 0 I I #
point $-1 57.098910489211704 -23.861060863941645 -10.314354447552594 #
point $-1 57.098910489211704 23.861060863941645 -10.314354447552594 #
straight-curve $-1 46.215303901699905 -53.004049773268036 10.314354447552596 0 1 0 I I #
point $-1 46.215303901699905 -23.861060863941645 10.314354447552594 #
straight-curve $-1 16.953204203413122 -16.671466106067157 10.314354447552594 -1 0 0 I I #
point $-1 46.215303901699905 -16.671466106067161 10.314354447552594 #
point $-1 28.631167480451822 -14.657577561525564 1.175587792207144 #
point $-1 39.181649333200681 -14.657577561525564 1.175587792207144 #
straight-curve $-1 -40.461603531355635 49.449107773411029 10.314354447552596 0 -1 0 I I #
point $-1 -40.461603531355635 23.861060863941645 10.314354447552594 #
straight-curve $-1 -15.582367572232428 21.095666575498996 10.314354447552596 1 0 0 I I #
point $-1 -40.461603531355635 21.095666575498992 10.314354447552596 #
point $-1 -31.164735144464856 20.687004414871943 6.8852109167995659 #
straight-curve $-1 5.7537003703442764 49.449107773411029 10.314354447552596 0 -1 0 I I #
point $-1 5.7537003703442764 23.861060863941645 10.314354447552594 #
straight-curve $-1 7.5252843786175276 21.095666575498996 10.314354447552596 1 0 0 I I #
point $-1 5.7537003703442764 21.095666575498992 10.314354447552596 #
point $-1 15.050568757235055 20.687004414871943 6.8852109167995659 #
straight-curve $-1 -57.098910489211704 0 -10.314354447552594 0 1 0 I I #
point $-1 -57.098910489211704 -23.861060863941645 -10.314354447552594 #
point $-1 -57.098910489211704 23.861060863941645 -10.314354447552594 #
straight-curve $-1 0 -23.861060863941645 -10.314354447552594 -1 0 0 I I #
End-of-ACIS-data 