500 0 8 0           
7 Unknown 11 ACIS 5.0 NT 24 Thu Mar 25 22:00:36 1999 
-1 9.9999999999999995e-007 1e-010 
body $-1 $8 $-1 $9 #
body $-1 $10 $-1 $11 #
body $-1 $12 $-1 $13 #
body $-1 $14 $-1 $15 #
body $-1 $16 $-1 $17 #
body $-1 $18 $-1 $19 #
body $-1 $20 $-1 $21 #
body $-1 $22 $-1 $23 #
lump $-1 $-1 $24 $0 #
transform $-1 1 0 0 0 1 0 0 0 1 57.437055574205758 30.529441880969024 9.5961786752842944 1 rotate no_reflect no_shear #
lump $-1 $-1 $25 $1 #
transform $-1 1 0 0 0 1 0 0 0 1 57.437055574205758 30.529441880969024 9.5961786752842944 1 rotate no_reflect no_shear #
lump $-1 $-1 $26 $2 #
transform $-1 1 0 0 0 1 0 0 0 1 57.437055574205758 30.529441880969024 9.5961786752842944 1 rotate no_reflect no_shear #
lump $-1 $-1 $27 $3 #
transform $-1 1 0 0 0 1 0 0 0 1 57.437055574205758 30.529441880969024 9.5961786752842944 1 rotate no_reflect no_shear #
lump $-1 $-1 $28 $4 #
transform $-1 1 0 0 0 1 0 0 0 1 57.437055574205758 30.529441880969024 9.5961786752842944 1 rotate no_reflect no_shear #
lump $-1 $-1 $29 $5 #
transform $-1 1 0 0 0 1 0 0 0 1 57.437055574205758 30.529441880969024 9.5961786752842944 1 rotate no_reflect no_shear #
lump $-1 $-1 $30 $6 #
transform $-1 1 0 0 0 1 0 0 0 1 57.437055574205758 30.529441880969024 9.5961786752842944 1 rotate no_reflect no_shear #
lump $-1 $-1 $31 $7 #
transform $-1 1 0 0 0 1 0 0 0 1 57.437055574205758 30.529441880969024 9.5961786752842944 1 rotate no_reflect no_shear #
shell $-1 $-1 $-1 $32 $-1 $8 #
shell $-1 $-1 $-1 $33 $-1 $10 #
shell $-1 $-1 $-1 $34 $-1 $12 #
shell $-1 $-1 $-1 $35 $-1 $14 #
shell $-1 $-1 $-1 $36 $-1 $16 #
shell $-1 $-1 $-1 $37 $-1 $18 #
shell $-1 $-1 $-1 $38 $-1 $20 #
shell $-1 $-1 $-1 $39 $-1 $22 #
face $-1 $40 $41 $24 $-1 $42 forward single #
face $-1 $43 $44 $25 $-1 $45 forward single #
face $-1 $46 $47 $26 $-1 $48 reversed single #
face $-1 $49 $50 $27 $-1 $51 forward single #
face $-1 $52 $53 $28 $-1 $54 forward single #
face $-1 $55 $56 $29 $-1 $57 reversed single #
face $-1 $58 $59 $30 $-1 $60 forward single #
face $-1 $61 $62 $31 $-1 $63 forward single #
face $-1 $64 $65 $24 $-1 $66 reversed single #
loop $-1 $-1 $67 $32 #
plane-surface $-1 0 0 9.5961786752842944 0 0 1 1 0 0 forward_v I I I I #
face $-1 $68 $69 $25 $-1 $70 forward single #
loop $-1 $-1 $71 $33 #
plane-surface $-1 0 -30.529441880969024 0 0 1 0 0 0 1 forward_v I I I I #
face $-1 $72 $73 $26 $-1 $74 reversed single #
loop $-1 $-1 $75 $34 #
plane-surface $-1 -151.53641949167417 -20.34991324068034 70.774364845952434 0 1 0 -0.81915205242281985 0 0.57357642473473569 forward_v I I I I #
face $-1 $76 $77 $27 $-1 $78 forward single #
loop $-1 $79 $80 $35 #
cone-surface $-1 -55.378177223587279 -18.008802290872829 6.9539425647077309 0.81915205242281985 0 -0.57357642473473569 0.14339410618368392 0 0.20478801310570496 1 I I 0 1 0.25 forward I I I I #
face $-1 $81 $82 $28 $-1 $83 forward single #
loop $-1 $84 $85 $36 #
cone-surface $-1 -55.378177223587279 -14.497135866161557 6.9539425647077309 0.81915205242281985 0 -0.57357642473473569 0.14339410618368392 0 0.20478801310570496 1 I I 0 1 0.25 forward I I I I #
face $-1 $86 $87 $29 $-1 $88 reversed single #
loop $-1 $-1 $89 $37 #
plane-surface $-1 18.135266123371821 -10.442273106770159 160.36460240296134 0 -1 0 -0.51503808176128008 0 -0.85716729658548041 forward_v I I I I #
face $-1 $90 $91 $30 $-1 $92 forward single #
loop $-1 $93 $94 $38 #
cone-surface $-1 51.261932536474873 -15.34835051217612 5.3917193211334098 -0.51503808176128008 0 -0.85716729658548041 0.4285836482927402 0 -0.25751904088064004 1 I I 0 1 0.5 forward I I I I #
face $-1 $95 $96 $31 $-1 $97 forward single #
loop $-1 $98 $99 $39 #
cone-surface $-1 51.261932536474873 -12.404704068932542 5.3917193211334098 -0.51503808176128008 0 -0.85716729658548041 0.4285836482927402 0 -0.25751904088064004 1 I I 0 1 0.5 forward I I I I #
face $-1 $100 $101 $24 $-1 $102 reversed single #
loop $-1 $-1 $103 $40 #
plane-surface $-1 0 0 -9.5961786752842944 0 0 1 1 0 0 forward_v I I I I #
coedge $-1 $104 $105 $106 $107 forward $41 $-1 #
face $-1 $108 $109 $25 $-1 $110 reversed single #
loop $-1 $-1 $111 $43 #
plane-surface $-1 0 0 9.5961786752842944 0 0 1 1 0 0 forward_v I I I I #
coedge $-1 $112 $113 $114 $115 forward $44 $-1 #
face $-1 $116 $117 $26 $-1 $118 reversed single #
loop $-1 $-1 $119 $46 #
plane-surface $-1 -57.437055574205743 -16.252969078517193 4.8852828788659082 -0.81915205242281985 0 0.57357642473473569 0.57357642473473569 0 0.81915205242281985 forward_v I I I I #
coedge $-1 $120 $121 $122 $123 reversed $47 $-1 #
face $-1 $-1 $124 $27 $-1 $125 forward single #
loop $-1 $126 $127 $49 #
cone-surface $-1 -54.866207190823019 -18.008802290872829 6.5954572992485208 0.81915205242281985 0 -0.57357642473473569 0.071697053091841961 0 0.10239400655285248 1 I I -0.70710678118654746 0.70710678118654746 0.125 forward I I I I #
loop $-1 $-1 $128 $35 #
coedge $-1 $80 $80 $129 $130 reversed $50 $-1 #
face $-1 $-1 $131 $28 $-1 $132 forward single #
loop $-1 $133 $134 $52 #
cone-surface $-1 -54.866207190823019 -14.497135866161557 6.5954572992485208 0.81915205242281985 0 -0.57357642473473569 0.071697053091841961 0 0.10239400655285248 1 I I -0.70710678118654746 0.70710678118654746 0.125 forward I I I I #
loop $-1 $-1 $135 $36 #
coedge $-1 $85 $85 $136 $137 reversed $53 $-1 #
face $-1 $138 $139 $29 $-1 $140 reversed single #
loop $-1 $-1 $141 $55 #
plane-surface $-1 -41.029275726538124 -13.876527290554332 61.89827110221745 0.51503808176128008 0 0.85716729658548041 0.85716729658548041 0 -0.51503808176128008 forward_v I I I I #
coedge $-1 $142 $143 $144 $145 reversed $56 $-1 #
face $-1 $-1 $146 $30 $-1 $147 forward single #
loop $-1 $148 $149 $58 #
cone-surface $-1 50.668566761579129 -15.34835051217612 4.4041928543245472 -0.51503808176128008 0 -0.85716729658548041 0.2142918241463701 0 -0.12875952044032002 1 I I -0.70710678118654746 0.70710678118654746 0.25 forward I I I I #
loop $-1 $-1 $150 $38 #
coedge $-1 $94 $94 $151 $152 reversed $59 $-1 #
face $-1 $-1 $153 $31 $-1 $154 forward single #
loop $-1 $155 $156 $61 #
cone-surface $-1 50.668566761579129 -12.404704068932542 4.4041928543245472 -0.51503808176128008 0 -0.85716729658548041 0.2142918241463701 0 -0.12875952044032002 1 I I -0.70710678118654746 0.70710678118654746 0.25 forward I I I I #
loop $-1 $-1 $157 $39 #
coedge $-1 $99 $99 $158 $159 reversed $62 $-1 #
face $-1 $160 $161 $24 $-1 $162 reversed single #
loop $-1 $-1 $163 $64 #
plane-surface $-1 0 -30.529441880969024 0 0 1 0 0 0 1 forward_v I I I I #
coedge $-1 $164 $165 $166 $167 forward $65 $-1 #
coedge $-1 $168 $67 $169 $170 forward $41 $-1 #
coedge $-1 $67 $168 $171 $172 forward $41 $-1 #
coedge $-1 $173 $174 $67 $107 reversed $175 $-1 #
edge $-1 $176 -30.529441880969024 $177 30.529441880969024 $106 $178 forward 7 unknown #
face $-1 $179 $180 $25 $-1 $181 reversed single #
loop $-1 $-1 $182 $68 #
plane-surface $-1 -57.437055574205758 0 0 1 0 0 0 0 -1 forward_v I I I I #
coedge $-1 $183 $184 $185 $186 forward $69 $-1 #
coedge $-1 $185 $71 $182 $187 reversed $44 $-1 #
coedge $-1 $71 $185 $188 $189 reversed $44 $-1 #
coedge $-1 $190 $191 $71 $115 reversed $180 $-1 #
edge $-1 $192 -57.437055574205758 $193 57.437055574205758 $114 $194 forward 7 unknown #
face $-1 $195 $196 $26 $-1 $197 forward single #
loop $-1 $-1 $198 $72 #
plane-surface $-1 -151.53641949167417 -12.156024916354045 70.774364845952434 0 -1 0 0.81915205242281985 0 -0.57357642473473569 forward_v I I I I #
coedge $-1 $199 $200 $201 $202 reversed $73 $-1 #
coedge $-1 $121 $75 $203 $204 reversed $47 $-1 #
coedge $-1 $75 $120 $199 $205 reversed $47 $-1 #
coedge $-1 $201 $206 $75 $123 forward $196 $-1 #
edge $-1 $207 18.331154171631326 $208 21.629758820445474 $122 $209 forward 7 unknown #
loop $-1 $-1 $129 $76 #
plane-surface $-1 -57.437055574205743 -16.252969078517193 4.8852828788659082 -0.81915205242281985 0 0.57357642473473569 0.57357642473473569 0 0.81915205242281985 forward_v I I I I #
loop $-1 $-1 $210 $49 #
coedge $-1 $127 $127 $128 $211 reversed $77 $-1 #
coedge $-1 $128 $128 $127 $211 forward $79 $-1 #
coedge $-1 $129 $129 $80 $130 forward $124 $-1 #
edge $-1 $212 0 $212 6.2831853071796004 $129 $213 forward 7 unknown #
loop $-1 $-1 $136 $81 #
plane-surface $-1 -57.437055574205743 -16.252969078517193 4.8852828788659082 -0.81915205242281985 0 0.57357642473473569 0.57357642473473569 0 0.81915205242281985 forward_v I I I I #
loop $-1 $-1 $214 $52 #
coedge $-1 $134 $134 $135 $215 reversed $82 $-1 #
coedge $-1 $135 $135 $134 $215 forward $84 $-1 #
coedge $-1 $136 $136 $85 $137 forward $131 $-1 #
edge $-1 $216 0 $216 6.2831853071796004 $136 $217 forward 7 unknown #
face $-1 $218 $219 $29 $-1 $220 reversed single #
loop $-1 $-1 $221 $86 #
plane-surface $-1 18.135266123371821 -17.310781474338505 160.36460240296134 0 1 0 0.51503808176128008 0 0.85716729658548041 forward_v I I I I #
coedge $-1 $222 $223 $224 $225 reversed $87 $-1 #
coedge $-1 $143 $89 $226 $227 reversed $56 $-1 #
coedge $-1 $89 $142 $222 $228 reversed $56 $-1 #
coedge $-1 $224 $229 $89 $145 forward $230 $-1 #
edge $-1 $231 -48.369422512519847 $232 -36.94838894596888 $144 $233 forward 7 unknown #
loop $-1 $-1 $151 $90 #
plane-surface $-1 -41.029275726538124 -13.876527290554332 61.89827110221745 0.51503808176128008 0 0.85716729658548041 0.85716729658548041 0 -0.51503808176128008 forward_v I I I I #
loop $-1 $-1 $234 $58 #
coedge $-1 $149 $149 $150 $235 reversed $91 $-1 #
coedge $-1 $150 $150 $149 $235 forward $93 $-1 #
coedge $-1 $151 $151 $94 $152 forward $146 $-1 #
edge $-1 $236 0 $236 6.2831853071796004 $151 $237 forward 7 unknown #
loop $-1 $-1 $158 $95 #
plane-surface $-1 -41.029275726538124 -13.876527290554332 61.89827110221745 0.51503808176128008 0 0.85716729658548041 0.85716729658548041 0 -0.51503808176128008 forward_v I I I I #
loop $-1 $-1 $238 $61 #
coedge $-1 $156 $156 $157 $239 reversed $96 $-1 #
coedge $-1 $157 $157 $156 $239 forward $98 $-1 #
coedge $-1 $158 $158 $99 $159 forward $153 $-1 #
edge $-1 $240 0 $240 6.2831853071796004 $158 $241 forward 7 unknown #
face $-1 $242 $243 $24 $-1 $244 reversed single #
loop $-1 $-1 $245 $100 #
plane-surface $-1 -57.437055574205758 0 0 1 0 0 0 0 -1 forward_v I I I I #
coedge $-1 $246 $171 $247 $248 forward $101 $-1 #
coedge $-1 $249 $103 $246 $250 forward $65 $-1 #
coedge $-1 $103 $249 $251 $252 forward $65 $-1 #
coedge $-1 $174 $173 $103 $167 reversed $175 $-1 #
edge $-1 $253 -30.529441880969024 $254 30.529441880969024 $166 $255 forward 7 unknown #
coedge $-1 $105 $104 $256 $257 forward $41 $-1 #
coedge $-1 $258 $259 $104 $170 reversed $243 $-1 #
edge $-1 $177 -57.437055574205758 $260 57.437055574205758 $169 $261 forward 7 unknown #
coedge $-1 $163 $262 $105 $172 reversed $101 $-1 #
edge $-1 $263 -57.437055574205758 $176 57.437055574205758 $171 $264 forward 7 unknown #
coedge $-1 $166 $106 $262 $265 forward $175 $-1 #
coedge $-1 $106 $166 $258 $266 reversed $175 $-1 #
loop $-1 $-1 $173 $242 #
vertex $-1 $107 $267 #
vertex $-1 $107 $268 #
straight-curve $-1 57.437055574205758 0 9.5961786752842944 0 1 0 I I #
face $-1 $269 $270 $25 $-1 $271 reversed single #
loop $-1 $-1 $190 $108 #
plane-surface $-1 0 -35.619206201113364 4.8208446427683302 0 0 1 1 0 0 forward_v I I I I #
coedge $-1 $272 $273 $112 $187 forward $109 $-1 #
coedge $-1 $274 $111 $273 $275 forward $69 $-1 #
coedge $-1 $111 $274 $276 $277 forward $69 $-1 #
coedge $-1 $113 $112 $111 $186 reversed $44 $-1 #
edge $-1 $278 -57.437055574205758 $279 57.437055574205758 $111 $280 forward 7 unknown #
edge $-1 $279 -9.5961786752842944 $193 -4.8208446427683302 $182 $281 forward 7 unknown #
coedge $-1 $276 $282 $113 $189 forward $283 $-1 #
edge $-1 $192 4.8208446427683302 $278 9.5961786752842944 $188 $284 forward 7 unknown #
coedge $-1 $285 $114 $282 $286 forward $180 $-1 #
coedge $-1 $114 $285 $272 $287 forward $180 $-1 #
vertex $-1 $189 $288 #
vertex $-1 $187 $289 #
straight-curve $-1 0 -30.529441880969024 4.8208446427683302 -1 0 0 I I #
face $-1 $-1 $290 $26 $-1 $291 reversed single #
loop $-1 $-1 $122 $116 #
plane-surface $-1 0 0 9.5961786752842944 0 0 1 1 0 0 forward_v I I I I #
coedge $-1 $292 $293 $294 $295 reversed $117 $-1 #
coedge $-1 $296 $119 $121 $205 forward $73 $-1 #
coedge $-1 $119 $296 $292 $297 forward $73 $-1 #
coedge $-1 $294 $122 $119 $202 forward $196 $-1 #
edge $-1 $208 -12.223428701421744 $298 -4.029540377095449 $201 $299 forward 7 unknown #
coedge $-1 $300 $301 $120 $204 forward $290 $-1 #
edge $-1 $302 -30.50189954411033 $207 -25.791003747691924 $203 $303 forward 7 unknown #
edge $-1 $208 -5.7509418214663448 $302 2.4884734274515653e-014 $121 $304 forward 7 unknown #
coedge $-1 $122 $294 $300 $305 forward $196 $-1 #
vertex $-1 $204 $306 #
vertex $-1 $123 $307 #
straight-curve $-1 -75.768209745837083 -20.34991324068034 9.5961786752842926 1 0 0 I I #
coedge $-1 $210 $210 $-1 $308 reversed $126 $-1 #
edge $-1 $309 0 $309 6.2831853071796004 $127 $310 forward 7 unknown #
vertex $-1 $130 $311 #
ellipse-curve $-1 -55.787753249798683 -18.008802290872829 7.2407307770750933 -0.81915205242281985 0 0.57357642473473569 0.14339410618368392 0 0.20478801310570496 1 I I #
coedge $-1 $214 $214 $-1 $312 reversed $133 $-1 #
edge $-1 $313 0 $313 6.2831853071796004 $134 $314 forward 7 unknown #
vertex $-1 $137 $315 #
ellipse-curve $-1 -55.787753249798683 -14.497135866161557 7.2407307770750933 -0.81915205242281985 0 0.57357642473473569 0.14339410618368392 0 0.20478801310570496 1 I I #
face $-1 $-1 $230 $29 $-1 $316 forward single #
loop $-1 $-1 $317 $138 #
plane-surface $-1 57.437055574205758 0 0 -1 0 0 0 0 1 forward_v I I I I #
coedge $-1 $318 $319 $320 $321 reversed $139 $-1 #
coedge $-1 $322 $141 $143 $228 forward $87 $-1 #
coedge $-1 $141 $322 $318 $323 forward $87 $-1 #
coedge $-1 $320 $144 $141 $225 forward $230 $-1 #
edge $-1 $232 3.5040094614929931 $324 10.372517829061339 $224 $325 forward 7 unknown #
coedge $-1 $326 $327 $142 $227 forward $219 $-1 #
edge $-1 $328 -77.448571949173157 $231 -70.586122526196377 $226 $329 forward 7 unknown #
edge $-1 $232 101.5499518949652 $328 114.87411114841152 $143 $330 forward 7 unknown #
coedge $-1 $144 $320 $326 $331 forward $230 $-1 #
loop $-1 $-1 $320 $218 #
vertex $-1 $227 $332 #
vertex $-1 $145 $333 #
straight-curve $-1 9.0676330616859104 -10.442273106770159 9.5961786752842926 -1 0 0 I I #
coedge $-1 $234 $234 $-1 $334 reversed $148 $-1 #
edge $-1 $335 0 $335 6.2831853071796004 $149 $336 forward 7 unknown #
vertex $-1 $152 $337 #
ellipse-curve $-1 51.726538790930292 -15.34835051217612 6.1649539637958934 0.51503808176128008 0 0.85716729658548041 0.4285836482927402 0 -0.25751904088064004 1 I I #
coedge $-1 $238 $238 $-1 $338 reversed $155 $-1 #
edge $-1 $339 0 $339 6.2831853071796004 $156 $340 forward 7 unknown #
vertex $-1 $159 $341 #
ellipse-curve $-1 51.726538790930292 -12.404704068932542 6.1649539637958934 0.51503808176128008 0 0.85716729658548041 0.4285836482927402 0 -0.25751904088064004 1 I I #
face $-1 $-1 $175 $24 $-1 $342 reversed single #
loop $-1 $-1 $258 $160 #
plane-surface $-1 0 30.529441880969024 0 0 -1 0 0 0 -1 forward_v I I I I #
coedge $-1 $343 $256 $259 $344 forward $161 $-1 #
coedge $-1 $262 $163 $164 $250 reversed $101 $-1 #
coedge $-1 $256 $343 $163 $248 reversed $161 $-1 #
edge $-1 $263 -9.5961786752842944 $345 9.5961786752842944 $247 $346 forward 7 unknown #
coedge $-1 $165 $164 $343 $347 forward $65 $-1 #
edge $-1 $254 -57.437055574205758 $345 57.437055574205758 $246 $348 forward 7 unknown #
coedge $-1 $259 $258 $165 $252 reversed $243 $-1 #
edge $-1 $349 -57.437055574205758 $253 57.437055574205758 $251 $350 forward 7 unknown #
vertex $-1 $167 $351 #
vertex $-1 $265 $352 #
straight-curve $-1 57.437055574205758 0 -9.5961786752842944 0 -1 0 I I #
coedge $-1 $245 $247 $168 $257 reversed $161 $-1 #
edge $-1 $260 -30.529441880969024 $263 30.529441880969024 $256 $353 forward 7 unknown #
coedge $-1 $251 $169 $174 $266 forward $243 $-1 #
coedge $-1 $169 $251 $245 $344 reversed $243 $-1 #
vertex $-1 $170 $354 #
straight-curve $-1 0 30.529441880969024 9.5961786752842944 -1 0 0 I I #
coedge $-1 $171 $246 $173 $265 reversed $101 $-1 #
vertex $-1 $257 $355 #
straight-curve $-1 0 -30.529441880969024 9.5961786752842944 1 0 0 I I #
edge $-1 $176 -9.5961786752842944 $254 9.5961786752842944 $173 $356 forward 7 unknown #
edge $-1 $177 -9.5961786752842944 $253 9.5961786752842944 $174 $357 forward 7 unknown #
point $-1 57.437055574205758 -30.529441880969024 9.5961786752842944 #
point $-1 57.437055574205758 30.529441880969024 9.5961786752842944 #
face $-1 $-1 $283 $25 $-1 $358 reversed single #
loop $-1 $-1 $359 $179 #
plane-surface $-1 0 -40.708970521257704 7.2085116590263123 0 1 0 0 0 1 forward_v I I I I #
coedge $-1 $360 $182 $191 $287 reversed $109 $-1 #
coedge $-1 $182 $360 $183 $275 reversed $109 $-1 #
coedge $-1 $184 $183 $361 $362 forward $69 $-1 #
edge $-1 $279 30.529441880969024 $363 40.708970521257704 $273 $364 forward 7 unknown #
coedge $-1 $365 $188 $184 $277 reversed $283 $-1 #
edge $-1 $366 -40.708970521257704 $278 -30.529441880969024 $276 $367 forward 7 unknown #
vertex $-1 $189 $368 #
vertex $-1 $275 $369 #
straight-curve $-1 0 -30.529441880969024 9.5961786752842944 -1 0 0 I I #
straight-curve $-1 -57.437055574205758 -30.529441880969024 0 0 0 -1 I I #
coedge $-1 $188 $365 $190 $286 reversed $283 $-1 #
loop $-1 $-1 $188 $269 #
straight-curve $-1 57.437055574205758 -30.529441880969024 0 0 0 1 I I #
coedge $-1 $191 $190 $370 $371 forward $180 $-1 #
edge $-1 $192 -5.0897643201443401 $372 5.0897643201443401 $282 $373 forward 7 unknown #
edge $-1 $374 -5.0897643201443401 $193 5.0897643201443401 $272 $375 forward 7 unknown #
point $-1 57.437055574205758 -30.529441880969024 4.8208446427683302 #
point $-1 -57.437055574205758 -30.529441880969024 4.8208446427683302 #
loop $-1 $-1 $203 $195 #
plane-surface $-1 -57.437055574205758 0 0 1 0 0 0 0 -1 forward_v I I I I #
coedge $-1 $293 $198 $200 $297 reversed $117 $-1 #
coedge $-1 $198 $292 $376 $377 reversed $117 $-1 #
coedge $-1 $206 $201 $198 $295 forward $196 $-1 #
edge $-1 $298 -21.629758820445474 $378 -18.331154171631326 $294 $379 forward 7 unknown #
coedge $-1 $200 $199 $301 $380 reversed $73 $-1 #
edge $-1 $381 -2.4884734274515653e-014 $298 5.7509418214663448 $292 $382 forward 7 unknown #
vertex $-1 $202 $383 #
straight-curve $-1 -54.138450925391609 -8.1264845392585965 9.5961786752842944 0 1 0 I I #
coedge $-1 $376 $203 $206 $305 reversed $290 $-1 #
coedge $-1 $203 $376 $296 $380 forward $290 $-1 #
vertex $-1 $204 $384 #
straight-curve $-1 -57.437055574205758 -20.34991324068034 35.387182422976217 0 0 1 I I #
straight-curve $-1 -57.437055574205743 -20.34991324068034 4.8852828788659082 -0.57357642473473569 0 -0.81915205242281985 I I #
edge $-1 $378 12.156024916354045 $207 20.34991324068034 $300 $385 forward 7 unknown #
point $-1 -57.437055574205758 -20.34991324068034 9.5961786752842944 #
point $-1 -54.138450925391609 -20.34991324068034 9.5961786752842944 #
edge $-1 $386 1 $386 0 $210 $-1 forward 7 unknown #
vertex $-1 $211 $387 #
ellipse-curve $-1 -54.968601197375868 -18.008802290872829 6.6671543523403631 -0.81915205242281985 0 0.57357642473473569 0.14339410618368392 0 0.20478801310570496 1 I I #
point $-1 -55.644359143615006 -18.008802290872829 7.4455187901808033 #
edge $-1 $388 1 $388 0 $214 $-1 forward 7 unknown #
vertex $-1 $215 $389 #
ellipse-curve $-1 -54.968601197375868 -14.497135866161557 6.6671543523403631 -0.81915205242281985 0 0.57357642473473569 0.14339410618368392 0 0.20478801310570496 1 I I #
point $-1 -55.644359143615006 -14.497135866161557 7.4455187901808033 #
plane-surface $-1 0 0 9.5961786752842944 0 0 1 1 0 0 forward_v I I I I #
coedge $-1 $327 $326 $319 $390 forward $219 $-1 #
coedge $-1 $319 $221 $223 $323 reversed $139 $-1 #
coedge $-1 $221 $318 $317 $390 reversed $139 $-1 #
coedge $-1 $229 $224 $221 $321 forward $230 $-1 #
edge $-1 $324 36.94838894596888 $391 48.369422512519847 $320 $392 forward 7 unknown #
coedge $-1 $223 $222 $327 $393 reversed $87 $-1 #
edge $-1 $394 -114.87411114841152 $324 -101.5499518949652 $318 $395 forward 7 unknown #
vertex $-1 $225 $396 #
straight-curve $-1 46.016022007654797 -6.938263645277166 9.5961786752842855 0 -1 0 I I #
coedge $-1 $317 $226 $229 $331 reversed $219 $-1 #
coedge $-1 $226 $317 $322 $393 forward $219 $-1 #
vertex $-1 $227 $397 #
straight-curve $-1 57.437055574205758 -10.442273106770159 80.182301201480669 0 0 1 I I #
straight-curve $-1 -41.029275726538124 -10.442273106770159 61.89827110221745 0.85716729658548041 0 -0.51503808176128008 I I #
edge $-1 $391 -17.310781474338505 $231 -10.442273106770159 $326 $398 forward 7 unknown #
point $-1 57.437055574205758 -10.442273106770159 9.5961786752842944 #
point $-1 46.01602200765479 -10.442273106770159 9.5961786752842926 #
edge $-1 $399 1 $399 0 $234 $-1 forward 7 unknown #
vertex $-1 $235 $400 #
ellipse-curve $-1 50.797326282019448 -15.34835051217612 4.6184846784709173 0.51503808176128008 0 0.85716729658548041 0.4285836482927402 0 -0.25751904088064004 1 I I #
point $-1 52.155122439223035 -15.34835051217612 5.9074349229152636 #
edge $-1 $401 1 $401 0 $238 $-1 forward 7 unknown #
vertex $-1 $239 $402 #
ellipse-curve $-1 50.797326282019448 -12.404704068932542 4.6184846784709173 0.51503808176128008 0 0.85716729658548041 0.4285836482927402 0 -0.25751904088064004 1 I I #
point $-1 52.155122439223035 -12.404704068932542 5.9074349229152636 #
plane-surface $-1 57.437055574205758 0 0 -1 0 0 0 0 1 forward_v I I I I #
coedge $-1 $247 $245 $249 $347 reversed $161 $-1 #
edge $-1 $260 -9.5961786752842944 $349 9.5961786752842944 $259 $403 forward 7 unknown #
vertex $-1 $347 $404 #
straight-curve $-1 -57.437055574205758 -30.529441880969024 0 0 0 -1 I I #
edge $-1 $345 -30.529441880969024 $349 30.529441880969024 $343 $405 forward 7 unknown #
straight-curve $-1 0 -30.529441880969024 -9.5961786752842944 -1 0 0 I I #
vertex $-1 $252 $406 #
straight-curve $-1 0 30.529441880969024 -9.5961786752842944 1 0 0 I I #
point $-1 57.437055574205758 30.529441880969024 -9.5961786752842944 #
point $-1 57.437055574205758 -30.529441880969024 -9.5961786752842944 #
straight-curve $-1 -57.437055574205758 0 9.5961786752842944 0 -1 0 I I #
point $-1 -57.437055574205758 30.529441880969024 9.5961786752842944 #
point $-1 -57.437055574205758 -30.529441880969024 9.5961786752842944 #
straight-curve $-1 57.437055574205758 -30.529441880969024 0 0 0 -1 I I #
straight-curve $-1 57.437055574205758 30.529441880969024 0 0 0 -1 I I #
plane-surface $-1 57.437055574205758 0 0 -1 0 0 0 0 1 forward_v I I I I #
coedge $-1 $370 $361 $360 $407 forward $270 $-1 #
coedge $-1 $273 $272 $359 $407 reversed $109 $-1 #
coedge $-1 $359 $408 $274 $362 reversed $270 $-1 #
edge $-1 $363 -57.437055574205758 $366 57.437055574205758 $361 $409 forward 7 unknown #
vertex $-1 $275 $410 #
straight-curve $-1 -57.437055574205758 0 9.5961786752842944 0 -1 0 I I #
coedge $-1 $282 $276 $408 $411 forward $283 $-1 #
vertex $-1 $277 $412 #
straight-curve $-1 57.437055574205758 0 9.5961786752842944 0 1 0 I I #
point $-1 57.437055574205758 -30.529441880969024 9.5961786752842944 #
point $-1 -57.437055574205758 -30.529441880969024 9.5961786752842944 #
coedge $-1 $408 $359 $285 $371 reversed $270 $-1 #
edge $-1 $372 -57.437055574205758 $374 57.437055574205758 $370 $413 forward 7 unknown #
vertex $-1 $411 $414 #
straight-curve $-1 57.437055574205758 -35.619206201113364 4.8208446427683302 0 -1 0 I I #
vertex $-1 $287 $415 #
straight-curve $-1 -57.437055574205758 -35.619206201113364 4.8208446427683302 0 1 0 I I #
coedge $-1 $301 $300 $293 $377 forward $290 $-1 #
edge $-1 $378 25.791003747691924 $381 30.50189954411033 $376 $416 forward 7 unknown #
vertex $-1 $305 $417 #
straight-curve $-1 -75.768209745837083 -12.156024916354045 9.5961786752842926 -1 0 0 I I #
edge $-1 $381 4.029540377095449 $302 12.223428701421744 $301 $418 forward 7 unknown #
vertex $-1 $380 $419 #
straight-curve $-1 -57.437055574205743 -12.156024916354045 4.8852828788659082 0.57357642473473569 0 0.81915205242281985 I I #
point $-1 -54.138450925391609 -12.156024916354045 9.5961786752842944 #
point $-1 -57.437055574205758 -20.34991324068034 4.8852828788658877 #
straight-curve $-1 -57.437055574205758 0 9.5961786752842944 0 -1 0 I I #
vertex $-1 $308 $420 #
point $-1 -54.82520709119219 -18.008802290872829 6.8719423654460678 #
vertex $-1 $312 $421 #
point $-1 -54.82520709119219 -14.497135866161557 6.8719423654460678 #
edge $-1 $391 70.586122526196377 $394 77.448571949173157 $317 $422 forward 7 unknown #
vertex $-1 $331 $423 #
straight-curve $-1 9.0676330616859104 -17.310781474338505 9.5961786752842926 1 0 0 I I #
edge $-1 $394 -10.372517829061339 $328 -3.5040094614929931 $327 $424 forward 7 unknown #
vertex $-1 $393 $425 #
straight-curve $-1 -41.029275726538124 -17.310781474338505 61.89827110221745 -0.85716729658548041 0 0.51503808176128008 I I #
point $-1 46.01602200765479 -17.310781474338505 9.5961786752842926 #
point $-1 57.437055574205765 -10.442273106770159 2.733729252307505 #
straight-curve $-1 57.437055574205758 0 9.5961786752842944 0 1 0 I I #
vertex $-1 $334 $426 #
point $-1 51.225909930312191 -15.34835051217612 4.3609656375902777 #
vertex $-1 $338 $427 #
point $-1 51.225909930312191 -12.404704068932542 4.3609656375902777 #
straight-curve $-1 -57.437055574205758 30.529441880969024 0 0 0 -1 I I #
point $-1 -57.437055574205758 -30.529441880969024 -9.5961786752842944 #
straight-curve $-1 -57.437055574205758 0 -9.5961786752842944 0 1 0 I I #
point $-1 -57.437055574205758 30.529441880969024 -9.5961786752842944 #
edge $-1 $363 -2.3876670162579821 $374 2.3876670162579821 $360 $428 forward 7 unknown #
coedge $-1 $361 $370 $365 $411 reversed $270 $-1 #
straight-curve $-1 0 -40.708970521257704 9.5961786752842944 1 0 0 I I #
point $-1 -57.437055574205758 -40.708970521257704 9.5961786752842944 #
edge $-1 $366 -2.3876670162579821 $372 2.3876670162579821 $365 $429 forward 7 unknown #
point $-1 57.437055574205758 -40.708970521257704 9.5961786752842944 #
straight-curve $-1 0 -40.708970521257704 4.8208446427683302 -1 0 0 I I #
point $-1 57.437055574205758 -40.708970521257704 4.8208446427683302 #
point $-1 -57.437055574205758 -40.708970521257704 4.8208446427683302 #
straight-curve $-1 -57.437055574205758 -12.156024916354045 35.387182422976217 0 0 -1 I I #
point $-1 -57.437055574205758 -12.156024916354045 9.5961786752842944 #
straight-curve $-1 -57.437055574205758 -8.1264845392585965 4.8852828788658833 0 -1 0 I I #
point $-1 -57.437055574205758 -12.156024916354045 4.8852828788658877 #
point $-1 -54.76381318427017 -18.008802290872829 6.5237602461566784 #
point $-1 -54.76381318427017 -14.497135866161557 6.5237602461566784 #
straight-curve $-1 57.437055574205758 -17.310781474338505 80.182301201480669 0 0 -1 I I #
point $-1 57.437055574205758 -17.310781474338505 9.5961786752842944 #
straight-curve $-1 57.437055574205758 -6.938263645277166 2.7337292523075121 0 1 0 I I #
point $-1 57.437055574205765 -17.310781474338505 2.733729252307505 #
point $-1 50.53980724113881 -15.34835051217612 4.1899010301781772 #
point $-1 50.53980724113881 -12.404704068932542 4.1899010301781772 #
straight-curve $-1 -57.437055574205758 -40.708970521257704 7.2085116590263123 0 0 -1 I I #
straight-curve $-1 57.437055574205758 -40.708970521257704 7.2085116590263123 0 0 -1 I I #
End-of-ACIS-data 