500 0 13 0           
7 Unknown 11 ACIS 5.0 NT 24 Fri Mar 26 20:45:08 1999 
-1 9.9999999999999995e-007 1e-010 
body $-1 $13 $-1 $14 #
body $-1 $15 $-1 $16 #
body $-1 $17 $-1 $18 #
body $-1 $19 $-1 $20 #
body $-1 $21 $-1 $22 #
body $-1 $23 $-1 $24 #
body $-1 $25 $-1 $26 #
body $-1 $27 $-1 $28 #
body $-1 $29 $-1 $30 #
body $-1 $31 $-1 $32 #
body $-1 $33 $-1 $34 #
body $-1 $35 $-1 $36 #
body $-1 $37 $-1 $38 #
lump $-1 $-1 $39 $0 #
transform $-1 1 0 0 0 1 0 0 0 1 53.252357554857021 33.717012886367279 8.9564577734986255 1 rotate no_reflect no_shear #
lump $-1 $-1 $40 $1 #
transform $-1 1 0 0 0 1 0 0 0 1 53.252357554857021 33.717012886367279 8.9564577734986255 1 rotate no_reflect no_shear #
lump $-1 $-1 $41 $2 #
transform $-1 1 0 0 0 1 0 0 0 1 53.252357554857021 33.717012886367279 8.9564577734986255 1 rotate no_reflect no_shear #
lump $-1 $-1 $42 $3 #
transform $-1 1 0 0 0 1 0 0 0 1 53.252357554857021 33.717012886367279 8.9564577734986255 1 rotate no_reflect no_shear #
lump $-1 $-1 $43 $4 #
transform $-1 1 0 0 0 1 0 0 0 1 53.252357554857021 33.717012886367279 8.9564577734986255 1 rotate no_reflect no_shear #
lump $-1 $-1 $44 $5 #
transform $-1 1 0 0 0 1 0 0 0 1 53.252357554857021 33.717012886367279 8.9564577734986255 1 rotate no_reflect no_shear #
lump $-1 $-1 $45 $6 #
transform $-1 1 0 0 0 1 0 0 0 1 53.252357554857021 33.717012886367279 8.9564577734986255 1 rotate no_reflect no_shear #
lump $-1 $-1 $46 $7 #
transform $-1 1 0 0 0 1 0 0 0 1 53.252357554857021 33.717012886367279 8.9564577734986255 1 rotate no_reflect no_shear #
lump $-1 $-1 $47 $8 #
transform $-1 1 0 0 0 1 0 0 0 1 53.252357554857021 33.717012886367279 8.9564577734986255 1 rotate no_reflect no_shear #
lump $-1 $-1 $48 $9 #
transform $-1 1 0 0 0 1 0 0 0 1 53.252357554857021 33.717012886367279 8.9564577734986255 1 rotate no_reflect no_shear #
lump $-1 $-1 $49 $10 #
transform $-1 1 0 0 0 1 0 0 0 1 53.252357554857021 33.717012886367279 8.9564577734986255 1 rotate no_reflect no_shear #
lump $-1 $-1 $50 $11 #
transform $-1 1 0 0 0 1 0 0 0 1 53.252357554857021 33.717012886367279 8.9564577734986255 1 rotate no_reflect no_shear #
lump $-1 $-1 $51 $12 #
transform $-1 1 0 0 0 1 0 0 0 1 53.252357554857021 33.717012886367279 8.9564577734986255 1 rotate no_reflect no_shear #
shell $-1 $-1 $-1 $52 $-1 $13 #
shell $-1 $-1 $-1 $53 $-1 $15 #
shell $-1 $-1 $-1 $54 $-1 $17 #
shell $-1 $-1 $-1 $55 $-1 $19 #
shell $-1 $-1 $-1 $56 $-1 $21 #
shell $-1 $-1 $-1 $57 $-1 $23 #
shell $-1 $-1 $-1 $58 $-1 $25 #
shell $-1 $-1 $-1 $59 $-1 $27 #
shell $-1 $-1 $-1 $60 $-1 $29 #
shell $-1 $-1 $-1 $61 $-1 $31 #
shell $-1 $-1 $-1 $62 $-1 $33 #
shell $-1 $-1 $-1 $63 $-1 $35 #
shell $-1 $-1 $-1 $64 $-1 $37 #
face $-1 $65 $66 $39 $-1 $67 forward single #
face $-1 $68 $69 $40 $-1 $70 reversed single #
face $-1 $71 $72 $41 $-1 $73 forward single #
face $-1 $74 $75 $42 $-1 $76 forward single #
face $-1 $77 $78 $43 $-1 $79 reversed single #
face $-1 $80 $81 $44 $-1 $82 forward single #
face $-1 $83 $84 $45 $-1 $85 forward single #
face $-1 $86 $87 $46 $-1 $88 reversed single #
face $-1 $89 $90 $47 $-1 $91 forward single #
face $-1 $92 $93 $48 $-1 $94 forward single #
face $-1 $95 $96 $49 $-1 $97 reversed single #
face $-1 $98 $99 $50 $-1 $100 forward single #
face $-1 $101 $102 $51 $-1 $103 forward single #
face $-1 $104 $105 $39 $-1 $106 reversed single #
loop $-1 $-1 $107 $52 #
plane-surface $-1 0 0 8.9564577734986255 0 0 1 1 0 0 forward_v I I I I #
face $-1 $108 $109 $40 $-1 $110 reversed single #
loop $-1 $-1 $111 $53 #
plane-surface $-1 45.369495862409785 -14.184662836963154 155.52934408346195 0 -1 0 -0.66913061440640931 0 -0.74314481823134659 forward_v I I I I #
face $-1 $112 $113 $41 $-1 $114 forward single #
loop $-1 $115 $116 $54 #
cone-surface $-1 50.680379816946186 -25.57554159589813 6.5483597109201659 -0.66913061440640931 0 -0.74314481823134659 0.74314481823134659 0 -0.66913061440640931 1 I I 0 1 1 forward I I I I #
face $-1 $117 $118 $42 $-1 $119 forward single #
loop $-1 $120 $121 $55 #
cone-surface $-1 50.680379816946186 -18.741014340537145 6.5483597109201659 -0.66913061440640931 0 -0.74314481823134659 0.74314481823134659 0 -0.66913061440640931 1 I I 0 1 1 forward I I I I #
face $-1 $122 $123 $43 $-1 $124 reversed single #
loop $-1 $-1 $125 $56 #
plane-surface $-1 45.369495862409785 30.131893099472116 155.52934408346195 0 -1 0 -0.66913061440640931 0 -0.74314481823134659 forward_v I I I I #
face $-1 $126 $127 $44 $-1 $128 forward single #
loop $-1 $129 $130 $57 #
cone-surface $-1 50.680379816946186 18.741014340537141 6.5483597109201659 -0.66913061440640931 0 -0.74314481823134659 0.74314481823134659 0 -0.66913061440640931 1 I I 0 1 1 forward I I I I #
face $-1 $131 $132 $45 $-1 $133 forward single #
loop $-1 $134 $135 $58 #
cone-surface $-1 50.680379816946186 25.575541595898123 6.5483597109201659 -0.66913061440640931 0 -0.74314481823134659 0.74314481823134659 0 -0.66913061440640931 1 I I 0 1 1 forward I I I I #
face $-1 $136 $137 $46 $-1 $138 reversed single #
loop $-1 $-1 $139 $59 #
plane-surface $-1 -124.51792301339958 -30.131893099472123 84.263778624919397 0 1 0 -0.66913061440640931 0 0.74314481823134659 forward_v I I I I #
face $-1 $140 $141 $47 $-1 $142 forward single #
loop $-1 $143 $144 $60 #
cone-surface $-1 -50.680379816946179 -25.57554159589813 6.5483597109201677 0.66913061440640931 0 -0.74314481823134659 0.74314481823134659 0 0.66913061440640931 1 I I 0 1 1 forward I I I I #
face $-1 $145 $146 $48 $-1 $147 forward single #
loop $-1 $148 $149 $61 #
cone-surface $-1 -50.680379816946179 -18.741014340537145 6.5483597109201677 0.66913061440640931 0 -0.74314481823134659 0.74314481823134659 0 0.66913061440640931 1 I I 0 1 1 forward I I I I #
face $-1 $150 $151 $49 $-1 $152 reversed single #
loop $-1 $-1 $153 $62 #
plane-surface $-1 -124.51792301339958 14.184662836963147 84.263778624919397 0 1 0 -0.66913061440640931 0 0.74314481823134659 forward_v I I I I #
face $-1 $154 $155 $50 $-1 $156 forward single #
loop $-1 $157 $158 $63 #
cone-surface $-1 -50.680379816946179 18.741014340537141 6.5483597109201677 0.66913061440640931 0 -0.74314481823134659 0.74314481823134659 0 0.66913061440640931 1 I I 0 1 1 forward I I I I #
face $-1 $159 $160 $51 $-1 $161 forward single #
loop $-1 $162 $163 $64 #
cone-surface $-1 -50.680379816946179 25.575541595898123 6.5483597109201677 0.66913061440640931 0 -0.74314481823134659 0.74314481823134659 0 0.66913061440640931 1 I I 0 1 1 forward I I I I #
face $-1 $164 $165 $39 $-1 $166 reversed single #
loop $-1 $-1 $167 $65 #
plane-surface $-1 0 0 -8.9564577734986255 0 0 1 1 0 0 forward_v I I I I #
coedge $-1 $168 $169 $170 $171 forward $66 $-1 #
face $-1 $172 $173 $40 $-1 $174 reversed single #
loop $-1 $-1 $175 $68 #
plane-surface $-1 -25.896069596132754 -22.158277968217639 76.380916932472161 0.66913061440640931 0 0.74314481823134659 0.74314481823134659 0 -0.66913061440640931 forward_v I I I I #
coedge $-1 $176 $177 $178 $179 reversed $69 $-1 #
face $-1 $-1 $180 $41 $-1 $181 forward single #
loop $-1 $182 $183 $71 #
cone-surface $-1 49.90682708892647 -25.57554159589813 5.6892423890105466 -0.66913061440640931 0 -0.74314481823134659 0.3715724091156733 0 -0.33456530720320465 1 I I -0.70710678118654746 0.70710678118654746 0.5 forward I I I I #
loop $-1 $-1 $184 $54 #
coedge $-1 $116 $116 $185 $186 reversed $72 $-1 #
face $-1 $-1 $187 $42 $-1 $188 forward single #
loop $-1 $189 $190 $74 #
cone-surface $-1 49.90682708892647 -18.741014340537145 5.6892423890105466 -0.66913061440640931 0 -0.74314481823134659 0.3715724091156733 0 -0.33456530720320465 1 I I -0.70710678118654746 0.70710678118654746 0.5 forward I I I I #
loop $-1 $-1 $191 $55 #
coedge $-1 $121 $121 $192 $193 reversed $75 $-1 #
face $-1 $194 $195 $43 $-1 $196 reversed single #
loop $-1 $-1 $197 $77 #
plane-surface $-1 -25.896069596132754 22.158277968217632 76.380916932472161 0.66913061440640931 0 0.74314481823134659 0.74314481823134659 0 -0.66913061440640931 forward_v I I I I #
coedge $-1 $198 $199 $200 $201 reversed $78 $-1 #
face $-1 $-1 $202 $44 $-1 $203 forward single #
loop $-1 $204 $205 $80 #
cone-surface $-1 49.90682708892647 18.741014340537141 5.6892423890105466 -0.66913061440640931 0 -0.74314481823134659 0.3715724091156733 0 -0.33456530720320465 1 I I -0.70710678118654746 0.70710678118654746 0.5 forward I I I I #
loop $-1 $-1 $206 $57 #
coedge $-1 $130 $130 $207 $208 reversed $81 $-1 #
face $-1 $-1 $209 $45 $-1 $210 forward single #
loop $-1 $211 $212 $83 #
cone-surface $-1 49.90682708892647 25.575541595898123 5.6892423890105466 -0.66913061440640931 0 -0.74314481823134659 0.3715724091156733 0 -0.33456530720320465 1 I I -0.70710678118654746 0.70710678118654746 0.5 forward I I I I #
loop $-1 $-1 $213 $58 #
coedge $-1 $135 $135 $214 $215 reversed $84 $-1 #
face $-1 $216 $217 $46 $-1 $218 reversed single #
loop $-1 $-1 $219 $86 #
plane-surface $-1 -53.252357554857042 -22.158277968217639 5.1153514739296071 -0.66913061440640931 0 0.74314481823134659 0.74314481823134659 0 0.66913061440640931 forward_v I I I I #
coedge $-1 $220 $221 $222 $223 reversed $87 $-1 #
face $-1 $-1 $224 $47 $-1 $225 forward single #
loop $-1 $226 $227 $89 #
cone-surface $-1 -49.906827088926462 -25.57554159589813 5.6892423890105484 0.66913061440640931 0 -0.74314481823134659 0.3715724091156733 0 0.33456530720320465 1 I I -0.70710678118654746 0.70710678118654746 0.5 forward I I I I #
loop $-1 $-1 $228 $60 #
coedge $-1 $144 $144 $229 $230 reversed $90 $-1 #
face $-1 $-1 $231 $48 $-1 $232 forward single #
loop $-1 $233 $234 $92 #
cone-surface $-1 -49.906827088926462 -18.741014340537145 5.6892423890105484 0.66913061440640931 0 -0.74314481823134659 0.3715724091156733 0 0.33456530720320465 1 I I -0.70710678118654746 0.70710678118654746 0.5 forward I I I I #
loop $-1 $-1 $235 $61 #
coedge $-1 $149 $149 $236 $237 reversed $93 $-1 #
face $-1 $238 $239 $49 $-1 $240 reversed single #
loop $-1 $-1 $241 $95 #
plane-surface $-1 -53.252357554857042 22.158277968217632 5.1153514739296071 -0.66913061440640931 0 0.74314481823134659 0.74314481823134659 0 0.66913061440640931 forward_v I I I I #
coedge $-1 $242 $243 $244 $245 reversed $96 $-1 #
face $-1 $-1 $246 $50 $-1 $247 forward single #
loop $-1 $248 $249 $98 #
cone-surface $-1 -49.906827088926462 18.741014340537141 5.6892423890105484 0.66913061440640931 0 -0.74314481823134659 0.3715724091156733 0 0.33456530720320465 1 I I -0.70710678118654746 0.70710678118654746 0.5 forward I I I I #
loop $-1 $-1 $250 $63 #
coedge $-1 $158 $158 $251 $252 reversed $99 $-1 #
face $-1 $-1 $253 $51 $-1 $254 forward single #
loop $-1 $255 $256 $101 #
cone-surface $-1 -49.906827088926462 25.575541595898123 5.6892423890105484 0.66913061440640931 0 -0.74314481823134659 0.3715724091156733 0 0.33456530720320465 1 I I -0.70710678118654746 0.70710678118654746 0.5 forward I I I I #
loop $-1 $-1 $257 $64 #
coedge $-1 $163 $163 $258 $259 reversed $102 $-1 #
face $-1 $260 $261 $39 $-1 $262 reversed single #
loop $-1 $-1 $263 $104 #
plane-surface $-1 0 -33.717012886367279 0 0 1 0 0 0 1 forward_v I I I I #
coedge $-1 $264 $265 $266 $267 forward $105 $-1 #
coedge $-1 $268 $107 $269 $270 forward $66 $-1 #
coedge $-1 $107 $268 $271 $272 forward $66 $-1 #
coedge $-1 $273 $274 $107 $171 reversed $275 $-1 #
edge $-1 $276 -33.717012886367279 $277 33.717012886367279 $170 $278 forward 7 unknown #
face $-1 $279 $280 $40 $-1 $281 forward single #
loop $-1 $-1 $282 $108 #
plane-surface $-1 45.369495862409785 -30.131893099472123 155.52934408346195 0 1 0 0.66913061440640931 0 0.74314481823134659 forward_v I I I I #
coedge $-1 $283 $284 $285 $286 reversed $109 $-1 #
coedge $-1 $177 $111 $287 $288 reversed $69 $-1 #
coedge $-1 $111 $176 $283 $289 reversed $69 $-1 #
coedge $-1 $285 $290 $111 $179 forward $280 $-1 #
edge $-1 $291 -30.567609623652128 $292 -26.301628989463506 $178 $293 forward 7 unknown #
loop $-1 $-1 $185 $112 #
plane-surface $-1 -25.896069596132754 -22.158277968217639 76.380916932472161 0.66913061440640931 0 0.74314481823134659 0.74314481823134659 0 -0.66913061440640931 forward_v I I I I #
loop $-1 $-1 $294 $71 #
coedge $-1 $183 $183 $184 $295 reversed $113 $-1 #
coedge $-1 $184 $184 $183 $295 forward $115 $-1 #
coedge $-1 $185 $185 $116 $186 forward $180 $-1 #
edge $-1 $296 0 $296 6.2831853071796004 $185 $297 forward 7 unknown #
loop $-1 $-1 $192 $117 #
plane-surface $-1 -25.896069596132754 -22.158277968217639 76.380916932472161 0.66913061440640931 0 0.74314481823134659 0.74314481823134659 0 -0.66913061440640931 forward_v I I I I #
loop $-1 $-1 $298 $74 #
coedge $-1 $190 $190 $191 $299 reversed $118 $-1 #
coedge $-1 $191 $191 $190 $299 forward $120 $-1 #
coedge $-1 $192 $192 $121 $193 forward $187 $-1 #
edge $-1 $300 0 $300 6.2831853071796004 $192 $301 forward 7 unknown #
face $-1 $302 $303 $43 $-1 $304 reversed single #
loop $-1 $-1 $305 $122 #
plane-surface $-1 45.369495862409785 14.184662836963147 155.52934408346195 0 1 0 0.66913061440640931 0 0.74314481823134659 forward_v I I I I #
coedge $-1 $306 $307 $308 $309 reversed $123 $-1 #
coedge $-1 $199 $125 $310 $311 reversed $78 $-1 #
coedge $-1 $125 $198 $306 $312 reversed $78 $-1 #
coedge $-1 $308 $313 $125 $201 forward $314 $-1 #
edge $-1 $315 -30.567609623652128 $316 -26.301628989463506 $200 $317 forward 7 unknown #
loop $-1 $-1 $207 $126 #
plane-surface $-1 -25.896069596132754 22.158277968217632 76.380916932472161 0.66913061440640931 0 0.74314481823134659 0.74314481823134659 0 -0.66913061440640931 forward_v I I I I #
loop $-1 $-1 $318 $80 #
coedge $-1 $205 $205 $206 $319 reversed $127 $-1 #
coedge $-1 $206 $206 $205 $319 forward $129 $-1 #
coedge $-1 $207 $207 $130 $208 forward $202 $-1 #
edge $-1 $320 0 $320 6.2831853071796004 $207 $321 forward 7 unknown #
loop $-1 $-1 $214 $131 #
plane-surface $-1 -25.896069596132754 22.158277968217632 76.380916932472161 0.66913061440640931 0 0.74314481823134659 0.74314481823134659 0 -0.66913061440640931 forward_v I I I I #
loop $-1 $-1 $322 $83 #
coedge $-1 $212 $212 $213 $323 reversed $132 $-1 #
coedge $-1 $213 $213 $212 $323 forward $134 $-1 #
coedge $-1 $214 $214 $135 $215 forward $209 $-1 #
edge $-1 $324 0 $324 6.2831853071796004 $214 $325 forward 7 unknown #
face $-1 $326 $327 $46 $-1 $328 reversed single #
loop $-1 $-1 $329 $136 #
plane-surface $-1 -124.51792301339958 -14.184662836963154 84.263778624919397 0 -1 0 0.66913061440640931 0 -0.74314481823134659 forward_v I I I I #
coedge $-1 $330 $331 $332 $333 reversed $137 $-1 #
coedge $-1 $221 $139 $334 $335 reversed $87 $-1 #
coedge $-1 $139 $220 $330 $336 reversed $87 $-1 #
coedge $-1 $332 $337 $139 $223 forward $338 $-1 #
edge $-1 $339 9.0066039518427701 $340 13.272584586031407 $222 $341 forward 7 unknown #
loop $-1 $-1 $229 $140 #
plane-surface $-1 -53.252357554857042 -22.158277968217639 5.1153514739296071 -0.66913061440640931 0 0.74314481823134659 0.74314481823134659 0 0.66913061440640931 forward_v I I I I #
loop $-1 $-1 $342 $89 #
coedge $-1 $227 $227 $228 $343 reversed $141 $-1 #
coedge $-1 $228 $228 $227 $343 forward $143 $-1 #
coedge $-1 $229 $229 $144 $230 forward $224 $-1 #
edge $-1 $344 0 $344 6.2831853071796004 $229 $345 forward 7 unknown #
loop $-1 $-1 $236 $145 #
plane-surface $-1 -53.252357554857042 -22.158277968217639 5.1153514739296071 -0.66913061440640931 0 0.74314481823134659 0.74314481823134659 0 0.66913061440640931 forward_v I I I I #
loop $-1 $-1 $346 $92 #
coedge $-1 $234 $234 $235 $347 reversed $146 $-1 #
coedge $-1 $235 $235 $234 $347 forward $148 $-1 #
coedge $-1 $236 $236 $149 $237 forward $231 $-1 #
edge $-1 $348 0 $348 6.2831853071796004 $236 $349 forward 7 unknown #
face $-1 $350 $351 $49 $-1 $352 forward single #
loop $-1 $-1 $353 $150 #
plane-surface $-1 -124.51792301339958 30.131893099472116 84.263778624919397 0 -1 0 0.66913061440640931 0 -0.74314481823134659 forward_v I I I I #
coedge $-1 $354 $355 $356 $357 reversed $151 $-1 #
coedge $-1 $243 $153 $358 $359 reversed $96 $-1 #
coedge $-1 $153 $242 $354 $360 reversed $96 $-1 #
coedge $-1 $356 $361 $153 $245 forward $351 $-1 #
edge $-1 $362 9.0066039518427701 $363 13.272584586031407 $244 $364 forward 7 unknown #
loop $-1 $-1 $251 $154 #
plane-surface $-1 -53.252357554857042 22.158277968217632 5.1153514739296071 -0.66913061440640931 0 0.74314481823134659 0.74314481823134659 0 0.66913061440640931 forward_v I I I I #
loop $-1 $-1 $365 $98 #
coedge $-1 $249 $249 $250 $366 reversed $155 $-1 #
coedge $-1 $250 $250 $249 $366 forward $157 $-1 #
coedge $-1 $251 $251 $158 $252 forward $246 $-1 #
edge $-1 $367 0 $367 6.2831853071796004 $251 $368 forward 7 unknown #
loop $-1 $-1 $258 $159 #
plane-surface $-1 -53.252357554857042 22.158277968217632 5.1153514739296071 -0.66913061440640931 0 0.74314481823134659 0.74314481823134659 0 0.66913061440640931 forward_v I I I I #
loop $-1 $-1 $369 $101 #
coedge $-1 $256 $256 $257 $370 reversed $160 $-1 #
coedge $-1 $257 $257 $256 $370 forward $162 $-1 #
coedge $-1 $258 $258 $163 $259 forward $253 $-1 #
edge $-1 $371 0 $371 6.2831853071796004 $258 $372 forward 7 unknown #
face $-1 $373 $374 $39 $-1 $375 reversed single #
loop $-1 $-1 $376 $164 #
plane-surface $-1 -53.252357554857021 0 0 1 0 0 0 0 -1 forward_v I I I I #
coedge $-1 $377 $271 $378 $379 forward $165 $-1 #
coedge $-1 $380 $167 $377 $381 forward $105 $-1 #
coedge $-1 $167 $380 $382 $383 forward $105 $-1 #
coedge $-1 $274 $273 $167 $267 reversed $275 $-1 #
edge $-1 $384 -33.717012886367279 $385 33.717012886367279 $266 $386 forward 7 unknown #
coedge $-1 $169 $168 $387 $388 forward $66 $-1 #
coedge $-1 $389 $390 $168 $270 reversed $374 $-1 #
edge $-1 $277 -53.252357554857021 $391 53.252357554857021 $269 $392 forward 7 unknown #
coedge $-1 $263 $393 $169 $272 reversed $165 $-1 #
edge $-1 $394 -53.252357554857021 $276 53.252357554857021 $271 $395 forward 7 unknown #
coedge $-1 $266 $170 $393 $396 forward $275 $-1 #
coedge $-1 $170 $266 $389 $397 reversed $275 $-1 #
loop $-1 $-1 $273 $373 #
vertex $-1 $171 $398 #
vertex $-1 $171 $399 #
straight-curve $-1 53.252357554857021 0 8.9564577734986255 0 1 0 I I #
face $-1 $-1 $400 $40 $-1 $401 reversed single #
loop $-1 $-1 $178 $172 #
plane-surface $-1 0 0 8.9564577734986255 0 0 1 1 0 0 forward_v I I I I #
coedge $-1 $402 $403 $404 $405 reversed $173 $-1 #
coedge $-1 $406 $175 $177 $289 forward $109 $-1 #
coedge $-1 $175 $406 $402 $407 forward $109 $-1 #
coedge $-1 $404 $178 $175 $286 forward $280 $-1 #
edge $-1 $292 3.1055238528543345 $408 19.052754115363303 $285 $409 forward 7 unknown #
coedge $-1 $410 $411 $176 $288 forward $400 $-1 #
edge $-1 $412 -72.64932056780134 $291 -68.808214268232348 $287 $413 forward 7 unknown #
edge $-1 $292 100.76427188851054 $412 106.50471510971401 $177 $414 forward 7 unknown #
coedge $-1 $178 $404 $410 $415 forward $280 $-1 #
vertex $-1 $288 $416 #
vertex $-1 $179 $417 #
straight-curve $-1 22.684747931204893 -14.184662836963154 8.9564577734986273 -1 0 0 I I #
coedge $-1 $294 $294 $-1 $418 reversed $182 $-1 #
edge $-1 $419 0 $419 6.2831853071796004 $183 $420 forward 7 unknown #
vertex $-1 $186 $421 #
ellipse-curve $-1 51.11936723776271 -25.57554159589813 7.0359046237141305 0.66913061440640931 0 0.74314481823134659 0.74314481823134659 0 -0.66913061440640931 1 I I #
coedge $-1 $298 $298 $-1 $422 reversed $189 $-1 #
edge $-1 $423 0 $423 6.2831853071796004 $190 $424 forward 7 unknown #
vertex $-1 $193 $425 #
ellipse-curve $-1 51.11936723776271 -18.741014340537145 7.0359046237141305 0.66913061440640931 0 0.74314481823134659 0.74314481823134659 0 -0.66913061440640931 1 I I #
face $-1 $-1 $314 $43 $-1 $426 forward single #
loop $-1 $-1 $427 $194 #
plane-surface $-1 53.252357554857021 0 0 -1 0 0 0 0 1 forward_v I I I I #
coedge $-1 $428 $429 $430 $431 reversed $195 $-1 #
coedge $-1 $432 $197 $199 $312 forward $123 $-1 #
coedge $-1 $197 $432 $428 $433 forward $123 $-1 #
coedge $-1 $430 $200 $197 $309 forward $314 $-1 #
edge $-1 $316 -19.0527541153633 $434 -3.105523852854331 $308 $435 forward 7 unknown #
coedge $-1 $436 $437 $198 $311 forward $303 $-1 #
edge $-1 $438 -72.64932056780134 $315 -68.808214268232348 $310 $439 forward 7 unknown #
edge $-1 $316 100.76427188851054 $438 106.50471510971401 $199 $440 forward 7 unknown #
coedge $-1 $200 $430 $436 $441 forward $314 $-1 #
loop $-1 $-1 $430 $302 #
vertex $-1 $311 $442 #
vertex $-1 $201 $443 #
straight-curve $-1 22.684747931204893 30.131893099472116 8.9564577734986273 -1 0 0 I I #
coedge $-1 $318 $318 $-1 $444 reversed $204 $-1 #
edge $-1 $445 0 $445 6.2831853071796004 $205 $446 forward 7 unknown #
vertex $-1 $208 $447 #
ellipse-curve $-1 51.11936723776271 18.741014340537141 7.0359046237141305 0.66913061440640931 0 0.74314481823134659 0.74314481823134659 0 -0.66913061440640931 1 I I #
coedge $-1 $322 $322 $-1 $448 reversed $211 $-1 #
edge $-1 $449 0 $449 6.2831853071796004 $212 $450 forward 7 unknown #
vertex $-1 $215 $451 #
ellipse-curve $-1 51.11936723776271 25.575541595898123 7.0359046237141305 0.66913061440640931 0 0.74314481823134659 0.74314481823134659 0 -0.66913061440640931 1 I I #
face $-1 $-1 $338 $46 $-1 $452 forward single #
loop $-1 $-1 $453 $216 #
plane-surface $-1 -53.252357554857021 0 0 1 0 0 0 0 -1 forward_v I I I I #
coedge $-1 $454 $455 $456 $457 reversed $217 $-1 #
coedge $-1 $458 $219 $221 $336 forward $137 $-1 #
coedge $-1 $219 $458 $454 $459 forward $137 $-1 #
coedge $-1 $456 $222 $219 $333 forward $338 $-1 #
edge $-1 $340 -19.052754115363303 $460 -3.1055238528543345 $332 $461 forward 7 unknown #
coedge $-1 $462 $463 $220 $335 forward $327 $-1 #
edge $-1 $464 -37.01653783853007 $339 -33.175431538961071 $334 $465 forward 7 unknown #
edge $-1 $340 -5.7404432212035212 $464 -2.8915846743243384e-014 $221 $466 forward 7 unknown #
coedge $-1 $222 $456 $462 $467 forward $338 $-1 #
loop $-1 $-1 $456 $326 #
vertex $-1 $335 $468 #
vertex $-1 $223 $469 #
straight-curve $-1 -62.258961506699791 -30.131893099472123 8.9564577734986273 1 0 0 I I #
coedge $-1 $342 $342 $-1 $470 reversed $226 $-1 #
edge $-1 $471 0 $471 6.2831853071796004 $227 $472 forward 7 unknown #
vertex $-1 $230 $473 #
ellipse-curve $-1 -51.119367237762702 -25.57554159589813 7.0359046237141278 -0.66913061440640931 0 0.74314481823134659 0.74314481823134659 0 0.66913061440640931 1 I I #
coedge $-1 $346 $346 $-1 $474 reversed $233 $-1 #
edge $-1 $475 0 $475 6.2831853071796004 $234 $476 forward 7 unknown #
vertex $-1 $237 $477 #
ellipse-curve $-1 -51.119367237762702 -18.741014340537145 7.0359046237141278 -0.66913061440640931 0 0.74314481823134659 0.74314481823134659 0 0.66913061440640931 1 I I #
face $-1 $-1 $478 $49 $-1 $479 reversed single #
loop $-1 $-1 $244 $238 #
plane-surface $-1 0 0 8.9564577734986255 0 0 1 1 0 0 forward_v I I I I #
coedge $-1 $480 $481 $482 $483 reversed $239 $-1 #
coedge $-1 $484 $241 $243 $360 forward $151 $-1 #
coedge $-1 $241 $484 $480 $485 forward $151 $-1 #
coedge $-1 $482 $244 $241 $357 forward $351 $-1 #
edge $-1 $363 3.105523852854331 $486 19.0527541153633 $356 $487 forward 7 unknown #
coedge $-1 $488 $489 $242 $359 forward $478 $-1 #
edge $-1 $490 -37.01653783853007 $362 -33.175431538961071 $358 $491 forward 7 unknown #
edge $-1 $363 -5.7404432212035212 $490 -2.8915846743243384e-014 $243 $492 forward 7 unknown #
coedge $-1 $244 $482 $488 $493 forward $351 $-1 #
vertex $-1 $245 $494 #
vertex $-1 $245 $495 #
straight-curve $-1 -62.258961506699791 14.184662836963147 8.9564577734986273 1 0 0 I I #
coedge $-1 $365 $365 $-1 $496 reversed $248 $-1 #
edge $-1 $497 0 $497 6.2831853071796004 $249 $498 forward 7 unknown #
vertex $-1 $252 $499 #
ellipse-curve $-1 -51.119367237762702 18.741014340537141 7.0359046237141278 -0.66913061440640931 0 0.74314481823134659 0.74314481823134659 0 0.66913061440640931 1 I I #
coedge $-1 $369 $369 $-1 $500 reversed $255 $-1 #
edge $-1 $501 0 $501 6.2831853071796004 $256 $502 forward 7 unknown #
vertex $-1 $259 $503 #
ellipse-curve $-1 -51.119367237762702 25.575541595898123 7.0359046237141278 -0.66913061440640931 0 0.74314481823134659 0.74314481823134659 0 0.66913061440640931 1 I I #
face $-1 $-1 $275 $39 $-1 $504 reversed single #
loop $-1 $-1 $389 $260 #
plane-surface $-1 0 33.717012886367279 0 0 -1 0 0 0 -1 forward_v I I I I #
coedge $-1 $505 $387 $390 $506 forward $261 $-1 #
coedge $-1 $393 $263 $264 $381 reversed $165 $-1 #
coedge $-1 $387 $505 $263 $379 reversed $261 $-1 #
edge $-1 $394 -8.9564577734986255 $507 8.9564577734986255 $378 $508 forward 7 unknown #
coedge $-1 $265 $264 $505 $509 forward $105 $-1 #
edge $-1 $385 -53.252357554857021 $507 53.252357554857021 $377 $510 forward 7 unknown #
coedge $-1 $390 $389 $265 $383 reversed $374 $-1 #
edge $-1 $511 -53.252357554857021 $384 53.252357554857021 $382 $512 forward 7 unknown #
vertex $-1 $267 $513 #
vertex $-1 $396 $514 #
straight-curve $-1 53.252357554857021 0 -8.9564577734986255 0 -1 0 I I #
coedge $-1 $376 $378 $268 $388 reversed $261 $-1 #
edge $-1 $391 -33.717012886367279 $394 33.717012886367279 $387 $515 forward 7 unknown #
coedge $-1 $382 $269 $274 $397 forward $374 $-1 #
coedge $-1 $269 $382 $376 $506 reversed $374 $-1 #
vertex $-1 $270 $516 #
straight-curve $-1 0 33.717012886367279 8.9564577734986255 -1 0 0 I I #
coedge $-1 $271 $377 $273 $396 reversed $165 $-1 #
vertex $-1 $388 $517 #
straight-curve $-1 0 -33.717012886367279 8.9564577734986255 1 0 0 I I #
edge $-1 $276 -8.9564577734986255 $385 8.9564577734986255 $273 $518 forward 7 unknown #
edge $-1 $277 -8.9564577734986255 $384 8.9564577734986255 $274 $519 forward 7 unknown #
point $-1 53.252357554857021 -33.717012886367279 8.9564577734986255 #
point $-1 53.252357554857021 33.717012886367279 8.9564577734986255 #
loop $-1 $-1 $287 $279 #
plane-surface $-1 53.252357554857021 0 0 -1 0 0 0 0 1 forward_v I I I I #
coedge $-1 $403 $282 $284 $407 reversed $173 $-1 #
coedge $-1 $282 $402 $520 $521 reversed $173 $-1 #
coedge $-1 $290 $285 $282 $405 forward $280 $-1 #
edge $-1 $408 26.301628989463506 $522 30.567609623652128 $404 $523 forward 7 unknown #
coedge $-1 $284 $283 $411 $524 reversed $109 $-1 #
edge $-1 $525 -106.50471510971401 $408 -100.76427188851054 $402 $526 forward 7 unknown #
vertex $-1 $286 $527 #
straight-curve $-1 48.986376920668405 -11.07913898410882 8.9564577734986202 0 -1 0 I I #
coedge $-1 $520 $287 $290 $415 reversed $400 $-1 #
coedge $-1 $287 $520 $406 $524 forward $400 $-1 #
vertex $-1 $288 $528 #
straight-curve $-1 53.252357554857021 -14.184662836963154 77.764672041730975 0 0 1 I I #
straight-curve $-1 -25.896069596132754 -14.184662836963154 76.380916932472161 0.74314481823134659 0 -0.66913061440640931 I I #
edge $-1 $522 -30.131893099472123 $291 -14.184662836963154 $410 $529 forward 7 unknown #
point $-1 53.252357554857021 -14.184662836963154 8.9564577734986255 #
point $-1 48.986376920668398 -14.184662836963154 8.9564577734986273 #
edge $-1 $530 1 $530 0 $294 $-1 forward 7 unknown #
vertex $-1 $295 $531 #
ellipse-curve $-1 50.241392396129676 -25.57554159589813 6.0608147981262199 0.66913061440640931 0 0.74314481823134659 0.74314481823134659 0 -0.66913061440640931 1 I I #
point $-1 51.862512055994038 -25.57554159589813 6.3667740093077034 #
edge $-1 $532 1 $532 0 $298 $-1 forward 7 unknown #
vertex $-1 $299 $533 #
ellipse-curve $-1 50.241392396129676 -18.741014340537145 6.0608147981262199 0.66913061440640931 0 0.74314481823134659 0.74314481823134659 0 -0.66913061440640931 1 I I #
point $-1 51.862512055994038 -18.741014340537145 6.3667740093077034 #
plane-surface $-1 0 0 8.9564577734986255 0 0 1 1 0 0 forward_v I I I I #
coedge $-1 $437 $436 $429 $534 forward $303 $-1 #
coedge $-1 $429 $305 $307 $433 reversed $195 $-1 #
coedge $-1 $305 $428 $427 $534 reversed $195 $-1 #
coedge $-1 $313 $308 $305 $431 forward $314 $-1 #
edge $-1 $434 26.301628989463506 $535 30.567609623652128 $430 $536 forward 7 unknown #
coedge $-1 $307 $306 $437 $537 reversed $123 $-1 #
edge $-1 $538 -106.50471510971401 $434 -100.76427188851054 $428 $539 forward 7 unknown #
vertex $-1 $309 $540 #
straight-curve $-1 48.986376920668405 11.079138984108816 8.9564577734986202 0 -1 0 I I #
coedge $-1 $427 $310 $313 $441 reversed $303 $-1 #
coedge $-1 $310 $427 $432 $537 forward $303 $-1 #
vertex $-1 $311 $541 #
straight-curve $-1 53.252357554857021 30.131893099472116 77.764672041730975 0 0 1 I I #
straight-curve $-1 -25.896069596132754 30.131893099472116 76.380916932472161 0.74314481823134659 0 -0.66913061440640931 I I #
edge $-1 $535 14.184662836963147 $315 30.131893099472116 $436 $542 forward 7 unknown #
point $-1 53.252357554857021 30.131893099472116 8.9564577734986255 #
point $-1 48.986376920668398 30.131893099472116 8.9564577734986273 #
edge $-1 $543 1 $543 0 $318 $-1 forward 7 unknown #
vertex $-1 $319 $544 #
ellipse-curve $-1 50.241392396129676 18.741014340537141 6.0608147981262199 0.66913061440640931 0 0.74314481823134659 0.74314481823134659 0 -0.66913061440640931 1 I I #
point $-1 51.862512055994038 18.741014340537141 6.3667740093077034 #
edge $-1 $545 1 $545 0 $322 $-1 forward 7 unknown #
vertex $-1 $323 $546 #
ellipse-curve $-1 50.241392396129676 25.575541595898123 6.0608147981262199 0.66913061440640931 0 0.74314481823134659 0.74314481823134659 0 -0.66913061440640931 1 I I #
point $-1 51.862512055994038 25.575541595898123 6.3667740093077034 #
plane-surface $-1 0 0 8.9564577734986255 0 0 1 1 0 0 forward_v I I I I #
coedge $-1 $463 $462 $455 $547 forward $327 $-1 #
coedge $-1 $455 $329 $331 $459 reversed $217 $-1 #
coedge $-1 $329 $454 $453 $547 reversed $217 $-1 #
coedge $-1 $337 $332 $329 $457 forward $338 $-1 #
edge $-1 $460 -13.272584586031407 $548 -9.0066039518427701 $456 $549 forward 7 unknown #
coedge $-1 $331 $330 $463 $550 reversed $137 $-1 #
edge $-1 $551 2.8915846743243384e-014 $460 5.7404432212035212 $454 $552 forward 7 unknown #
vertex $-1 $333 $553 #
straight-curve $-1 -48.986376920668391 -11.07913898410882 8.9564577734986237 0 1 0 I I #
coedge $-1 $453 $334 $337 $467 reversed $327 $-1 #
coedge $-1 $334 $453 $458 $550 forward $327 $-1 #
vertex $-1 $335 $554 #
straight-curve $-1 -53.252357554857021 -30.131893099472123 42.131889312459698 0 0 1 I I #
straight-curve $-1 -53.252357554857042 -30.131893099472123 5.1153514739296071 -0.74314481823134659 0 -0.66913061440640931 I I #
edge $-1 $548 14.184662836963154 $339 30.131893099472123 $462 $555 forward 7 unknown #
point $-1 -53.252357554857021 -30.131893099472123 8.9564577734986255 #
point $-1 -48.986376920668384 -30.131893099472123 8.9564577734986255 #
edge $-1 $556 1 $556 0 $342 $-1 forward 7 unknown #
vertex $-1 $343 $557 #
ellipse-curve $-1 -50.241392396129669 -25.57554159589813 6.0608147981262217 -0.66913061440640931 0 0.74314481823134659 0.74314481823134659 0 0.66913061440640931 1 I I #
point $-1 -50.376222419531338 -25.57554159589813 7.7050352381205238 #
edge $-1 $558 1 $558 0 $346 $-1 forward 7 unknown #
vertex $-1 $347 $559 #
ellipse-curve $-1 -50.241392396129669 -18.741014340537145 6.0608147981262217 -0.66913061440640931 0 0.74314481823134659 0.74314481823134659 0 0.66913061440640931 1 I I #
point $-1 -50.376222419531338 -18.741014340537145 7.7050352381205238 #
loop $-1 $-1 $358 $350 #
plane-surface $-1 -53.252357554857021 0 0 1 0 0 0 0 -1 forward_v I I I I #
coedge $-1 $481 $353 $355 $485 reversed $239 $-1 #
coedge $-1 $353 $480 $560 $561 reversed $239 $-1 #
coedge $-1 $361 $356 $353 $483 forward $351 $-1 #
edge $-1 $486 -13.272584586031407 $562 -9.0066039518427701 $482 $563 forward 7 unknown #
coedge $-1 $355 $354 $489 $564 reversed $151 $-1 #
edge $-1 $565 2.8915846743243384e-014 $486 5.7404432212035212 $480 $566 forward 7 unknown #
vertex $-1 $357 $567 #
straight-curve $-1 -48.986376920668391 11.079138984108816 8.9564577734986237 0 1 0 I I #
coedge $-1 $560 $358 $361 $493 reversed $478 $-1 #
coedge $-1 $358 $560 $484 $564 forward $478 $-1 #
vertex $-1 $359 $568 #
straight-curve $-1 -53.252357554857021 14.184662836963147 42.131889312459698 0 0 1 I I #
straight-curve $-1 -53.252357554857042 14.184662836963147 5.1153514739296071 -0.74314481823134659 0 -0.66913061440640931 I I #
edge $-1 $562 -30.131893099472116 $362 -14.184662836963147 $488 $569 forward 7 unknown #
point $-1 -53.252357554857021 14.184662836963147 8.9564577734986255 #
point $-1 -48.986376920668384 14.184662836963147 8.9564577734986255 #
edge $-1 $570 1 $570 0 $365 $-1 forward 7 unknown #
vertex $-1 $366 $571 #
ellipse-curve $-1 -50.241392396129669 18.741014340537141 6.0608147981262217 -0.66913061440640931 0 0.74314481823134659 0.74314481823134659 0 0.66913061440640931 1 I I #
point $-1 -50.376222419531338 18.741014340537141 7.7050352381205238 #
edge $-1 $572 1 $572 0 $369 $-1 forward 7 unknown #
vertex $-1 $370 $573 #
ellipse-curve $-1 -50.241392396129669 25.575541595898123 6.0608147981262217 -0.66913061440640931 0 0.74314481823134659 0.74314481823134659 0 0.66913061440640931 1 I I #
point $-1 -50.376222419531338 25.575541595898123 7.7050352381205238 #
plane-surface $-1 53.252357554857021 0 0 -1 0 0 0 0 1 forward_v I I I I #
coedge $-1 $378 $376 $380 $509 reversed $261 $-1 #
edge $-1 $391 -8.9564577734986255 $511 8.9564577734986255 $390 $574 forward 7 unknown #
vertex $-1 $509 $575 #
straight-curve $-1 -53.252357554857021 -33.717012886367279 0 0 0 -1 I I #
edge $-1 $507 -33.717012886367279 $511 33.717012886367279 $505 $576 forward 7 unknown #
straight-curve $-1 0 -33.717012886367279 -8.9564577734986255 -1 0 0 I I #
vertex $-1 $383 $577 #
straight-curve $-1 0 33.717012886367279 -8.9564577734986255 1 0 0 I I #
point $-1 53.252357554857021 33.717012886367279 -8.9564577734986255 #
point $-1 53.252357554857021 -33.717012886367279 -8.9564577734986255 #
straight-curve $-1 -53.252357554857021 0 8.9564577734986255 0 -1 0 I I #
point $-1 -53.252357554857021 33.717012886367279 8.9564577734986255 #
point $-1 -53.252357554857021 -33.717012886367279 8.9564577734986255 #
straight-curve $-1 53.252357554857021 -33.717012886367279 0 0 0 -1 I I #
straight-curve $-1 53.252357554857021 33.717012886367279 0 0 0 -1 I I #
coedge $-1 $411 $410 $403 $521 forward $400 $-1 #
edge $-1 $522 68.808214268232348 $525 72.64932056780134 $520 $578 forward 7 unknown #
vertex $-1 $415 $579 #
straight-curve $-1 22.684747931204893 -30.131893099472123 8.9564577734986273 1 0 0 I I #
edge $-1 $525 -19.052754115363303 $412 -3.1055238528543345 $411 $580 forward 7 unknown #
vertex $-1 $524 $581 #
straight-curve $-1 -25.896069596132754 -30.131893099472123 76.380916932472161 -0.74314481823134659 0 0.66913061440640931 I I #
point $-1 48.986376920668398 -30.131893099472123 8.9564577734986273 #
point $-1 53.252357554857021 -14.184662836963154 5.1153514739296355 #
straight-curve $-1 53.252357554857021 0 8.9564577734986255 0 1 0 I I #
vertex $-1 $418 $582 #
point $-1 50.984537214361019 -25.57554159589813 5.3916841837198106 #
vertex $-1 $422 $583 #
point $-1 50.984537214361019 -18.741014340537145 5.3916841837198106 #
edge $-1 $535 68.808214268232348 $538 72.64932056780134 $427 $584 forward 7 unknown #
vertex $-1 $441 $585 #
straight-curve $-1 22.684747931204893 14.184662836963147 8.9564577734986273 1 0 0 I I #
edge $-1 $538 3.105523852854331 $438 19.0527541153633 $437 $586 forward 7 unknown #
vertex $-1 $537 $587 #
straight-curve $-1 -25.896069596132754 14.184662836963147 76.380916932472161 -0.74314481823134659 0 0.66913061440640931 I I #
point $-1 48.986376920668398 14.184662836963147 8.9564577734986273 #
point $-1 53.252357554857021 30.131893099472116 5.1153514739296355 #
straight-curve $-1 53.252357554857021 0 8.9564577734986255 0 1 0 I I #
vertex $-1 $444 $588 #
point $-1 50.984537214361019 18.741014340537141 5.3916841837198106 #
vertex $-1 $448 $589 #
point $-1 50.984537214361019 25.575541595898123 5.3916841837198106 #
edge $-1 $548 33.175431538961071 $551 37.01653783853007 $453 $590 forward 7 unknown #
vertex $-1 $467 $591 #
straight-curve $-1 -62.258961506699791 -14.184662836963154 8.9564577734986273 -1 0 0 I I #
edge $-1 $551 3.1055238528543345 $464 19.052754115363303 $463 $592 forward 7 unknown #
vertex $-1 $550 $593 #
straight-curve $-1 -53.252357554857042 -14.184662836963154 5.1153514739296071 0.74314481823134659 0 0.66913061440640931 I I #
point $-1 -48.986376920668384 -14.184662836963154 8.9564577734986255 #
point $-1 -53.252357554857021 -30.131893099472123 5.1153514739296266 #
straight-curve $-1 -53.252357554857021 0 8.9564577734986255 0 -1 0 I I #
vertex $-1 $470 $594 #
point $-1 -49.498247577898319 -25.57554159589813 6.729945412532631 #
vertex $-1 $474 $595 #
point $-1 -49.498247577898319 -18.741014340537145 6.729945412532631 #
coedge $-1 $489 $488 $481 $561 forward $478 $-1 #
edge $-1 $562 33.175431538961071 $565 37.01653783853007 $560 $596 forward 7 unknown #
vertex $-1 $493 $597 #
straight-curve $-1 -62.258961506699791 30.131893099472116 8.9564577734986273 -1 0 0 I I #
edge $-1 $565 -19.0527541153633 $490 -3.105523852854331 $489 $598 forward 7 unknown #
vertex $-1 $564 $599 #
straight-curve $-1 -53.252357554857042 30.131893099472116 5.1153514739296071 0.74314481823134659 0 0.66913061440640931 I I #
point $-1 -48.986376920668384 30.131893099472116 8.9564577734986255 #
point $-1 -53.252357554857021 14.184662836963147 5.1153514739296266 #
straight-curve $-1 -53.252357554857021 0 8.9564577734986255 0 -1 0 I I #
vertex $-1 $496 $600 #
point $-1 -49.498247577898319 18.741014340537141 6.729945412532631 #
vertex $-1 $500 $601 #
point $-1 -49.498247577898319 25.575541595898123 6.729945412532631 #
straight-curve $-1 -53.252357554857021 33.717012886367279 0 0 0 -1 I I #
point $-1 -53.252357554857021 -33.717012886367279 -8.9564577734986255 #
straight-curve $-1 -53.252357554857021 0 -8.9564577734986255 0 1 0 I I #
point $-1 -53.252357554857021 33.717012886367279 -8.9564577734986255 #
straight-curve $-1 53.252357554857021 -30.131893099472123 77.764672041730975 0 0 -1 I I #
point $-1 53.252357554857021 -30.131893099472123 8.9564577734986255 #
straight-curve $-1 53.252357554857021 -11.07913898410882 5.1153514739296426 0 1 0 I I #
point $-1 53.252357554857021 -30.131893099472123 5.1153514739296355 #
point $-1 49.572261781723263 -25.57554159589813 5.3176699798948732 #
point $-1 49.572261781723263 -18.741014340537145 5.3176699798948732 #
straight-curve $-1 53.252357554857021 14.184662836963147 77.764672041730975 0 0 -1 I I #
point $-1 53.252357554857021 14.184662836963147 8.9564577734986255 #
straight-curve $-1 53.252357554857021 11.079138984108816 5.1153514739296426 0 1 0 I I #
point $-1 53.252357554857021 14.184662836963147 5.1153514739296355 #
point $-1 49.572261781723263 18.741014340537141 5.3176699798948732 #
point $-1 49.572261781723263 25.575541595898123 5.3176699798948732 #
straight-curve $-1 -53.252357554857021 -14.184662836963154 42.131889312459698 0 0 -1 I I #
point $-1 -53.252357554857021 -14.184662836963154 8.9564577734986255 #
straight-curve $-1 -53.252357554857021 -11.07913898410882 5.115351473929624 0 -1 0 I I #
point $-1 -53.252357554857021 -14.184662836963154 5.1153514739296266 #
point $-1 -49.572261781723256 -25.57554159589813 5.317669979894875 #
point $-1 -49.572261781723256 -18.741014340537145 5.317669979894875 #
straight-curve $-1 -53.252357554857021 30.131893099472116 42.131889312459698 0 0 -1 I I #
point $-1 -53.252357554857021 30.131893099472116 8.9564577734986255 #
straight-curve $-1 -53.252357554857021 11.079138984108816 5.115351473929624 0 -1 0 I I #
point $-1 -53.252357554857021 30.131893099472116 5.1153514739296266 #
point $-1 -49.572261781723256 18.741014340537141 5.317669979894875 #
point $-1 -49.572261781723256 25.575541595898123 5.317669979894875 #
End-of-ACIS-data 