500 0 4 0           
7 Unknown 11 ACIS 5.0 NT 24 Thu Mar 25 16:16:47 1999 
-1 9.9999999999999995e-007 1e-010 
body $-1 $4 $-1 $5 #
body $-1 $6 $-1 $7 #
body $-1 $8 $-1 $9 #
body $-1 $10 $-1 $11 #
lump $-1 $-1 $12 $0 #
transform $-1 1 0 0 0 1 0 0 0 1 74.887539292580954 31.486042743372909 15.002162002347164 1 rotate no_reflect no_shear #
lump $-1 $-1 $13 $1 #
transform $-1 1 0 0 0 1 0 0 0 1 74.887539292580954 31.486042743372909 15.002162002347164 1 rotate no_reflect no_shear #
lump $-1 $-1 $14 $2 #
transform $-1 1 0 0 0 1 0 0 0 1 74.887539292580954 31.486042743372909 15.002162002347164 1 rotate no_reflect no_shear #
lump $-1 $-1 $15 $3 #
transform $-1 1 0 0 0 1 0 0 0 1 74.887539292580954 31.486042743372909 15.002162002347164 1 rotate no_reflect no_shear #
shell $-1 $-1 $-1 $16 $-1 $4 #
shell $-1 $-1 $-1 $17 $-1 $6 #
shell $-1 $-1 $-1 $18 $-1 $8 #
shell $-1 $-1 $-1 $19 $-1 $10 #
face $-1 $20 $21 $12 $-1 $22 forward single #
face $-1 $23 $24 $13 $-1 $25 forward single #
face $-1 $26 $27 $14 $-1 $28 reversed single #
face $-1 $29 $30 $15 $-1 $31 forward single #
face $-1 $32 $33 $12 $-1 $34 reversed single #
loop $-1 $-1 $35 $16 #
plane-surface $-1 0 0 15.002162002347164 0 0 1 1 0 0 forward_v I I I I #
face $-1 $36 $37 $13 $-1 $38 reversed single #
loop $-1 $-1 $39 $17 #
plane-surface $-1 0 -31.486042743372909 0 0 1 0 0 0 1 forward_v I I I I #
face $-1 $40 $41 $14 $-1 $42 reversed single #
loop $-1 $-1 $43 $18 #
plane-surface $-1 -45.096619321915568 82.221700795144528 160.28542369660119 -1 0 0 0 0.6560590369687036 0.75470957328743171 forward_v I I I I #
face $-1 $44 $45 $15 $-1 $46 forward single #
loop $-1 $47 $48 $19 #
cone-surface $-1 -59.992079307248261 25.47643985248375 9.5547728232268163 0 -0.6560590369687036 -0.75470957328743171 1.5 0 0 1 I I 0 1 1.5 forward I I I I #
face $-1 $49 $50 $12 $-1 $51 reversed single #
loop $-1 $-1 $52 $20 #
plane-surface $-1 0 0 -15.002162002347164 0 0 1 1 0 0 forward_v I I I I #
coedge $-1 $53 $54 $55 $56 forward $21 $-1 #
face $-1 $57 $58 $13 $-1 $59 forward single #
loop $-1 $-1 $60 $23 #
plane-surface $-1 -74.887539292580954 0 0 1 0 0 0 0 -1 forward_v I I I I #
coedge $-1 $61 $62 $63 $64 forward $24 $-1 #
face $-1 $65 $66 $14 $-1 $67 forward single #
loop $-1 $-1 $68 $26 #
plane-surface $-1 -59.992079307248261 -16.039593023348701 47.248738048502091 0 0.6560590369687036 0.75470957328743171 1 0 0 forward_v I I I I #
coedge $-1 $69 $70 $71 $72 reversed $27 $-1 #
face $-1 $-1 $73 $15 $-1 $74 forward single #
loop $-1 $75 $76 $29 #
cone-surface $-1 -59.992079307248261 24.189889800953306 8.0747663212360781 0 -0.6560590369687036 -0.75470957328743171 0.75 0 0 1 I I -0.70710678118654757 0.70710678118654757 0.75 forward I I I I #
loop $-1 $-1 $77 $19 #
coedge $-1 $48 $48 $78 $79 reversed $30 $-1 #
face $-1 $80 $81 $12 $-1 $82 reversed single #
loop $-1 $-1 $83 $32 #
plane-surface $-1 0 -31.486042743372909 0 0 1 0 0 0 1 forward_v I I I I #
coedge $-1 $84 $85 $86 $87 forward $33 $-1 #
coedge $-1 $88 $35 $89 $90 forward $21 $-1 #
coedge $-1 $35 $88 $91 $92 forward $21 $-1 #
coedge $-1 $93 $94 $35 $56 reversed $95 $-1 #
edge $-1 $96 -31.486042743372909 $97 31.486042743372909 $55 $98 forward 7 unknown #
face $-1 $99 $100 $13 $-1 $101 reversed single #
loop $-1 $-1 $102 $36 #
plane-surface $-1 0 -40.349039121512398 -7.0565404200545663 0 0 1 1 0 0 forward_v I I I I #
coedge $-1 $103 $104 $62 $105 forward $37 $-1 #
coedge $-1 $106 $39 $107 $108 reversed $24 $-1 #
coedge $-1 $39 $106 $60 $105 reversed $24 $-1 #
coedge $-1 $109 $102 $39 $64 reversed $58 $-1 #
edge $-1 $110 -74.887539292580954 $111 74.887539292580954 $63 $112 forward 7 unknown #
face $-1 $113 $114 $14 $-1 $115 reversed single #
loop $-1 $-1 $116 $40 #
plane-surface $-1 0 0 15.002162002347164 0 0 1 1 0 0 forward_v I I I I #
coedge $-1 $117 $118 $119 $120 reversed $41 $-1 #
coedge $-1 $70 $43 $121 $122 reversed $27 $-1 #
coedge $-1 $43 $69 $117 $123 reversed $27 $-1 #
coedge $-1 $119 $124 $43 $72 forward $114 $-1 #
edge $-1 $125 65.14054984595343 $126 74.207379560143835 $71 $127 forward 7 unknown #
loop $-1 $-1 $78 $44 #
plane-surface $-1 -59.992079307248261 -16.039593023348701 47.248738048502091 0 0.6560590369687036 0.75470957328743171 1 0 0 forward_v I I I I #
loop $-1 $-1 $128 $29 #
coedge $-1 $76 $76 $77 $129 reversed $45 $-1 #
coedge $-1 $77 $77 $76 $129 forward $47 $-1 #
coedge $-1 $78 $78 $48 $79 forward $73 $-1 #
edge $-1 $130 -1.5195150395739386e-016 $130 6.2831853071796004 $78 $131 forward 7 unknown #
face $-1 $132 $133 $12 $-1 $134 reversed single #
loop $-1 $-1 $135 $49 #
plane-surface $-1 -74.887539292580954 0 0 1 0 0 0 0 -1 forward_v I I I I #
coedge $-1 $136 $91 $137 $138 forward $50 $-1 #
coedge $-1 $139 $52 $136 $140 forward $33 $-1 #
coedge $-1 $52 $139 $141 $142 forward $33 $-1 #
coedge $-1 $94 $93 $52 $87 reversed $95 $-1 #
edge $-1 $143 -31.486042743372909 $144 31.486042743372909 $86 $145 forward 7 unknown #
coedge $-1 $54 $53 $146 $147 forward $21 $-1 #
coedge $-1 $148 $149 $53 $90 reversed $133 $-1 #
edge $-1 $97 -74.887539292580954 $150 74.887539292580954 $89 $151 forward 7 unknown #
coedge $-1 $83 $152 $54 $92 reversed $50 $-1 #
edge $-1 $153 -74.887539292580954 $96 74.887539292580954 $91 $154 forward 7 unknown #
coedge $-1 $86 $55 $152 $155 forward $95 $-1 #
coedge $-1 $55 $86 $148 $156 reversed $95 $-1 #
loop $-1 $-1 $93 $132 #
vertex $-1 $56 $157 #
vertex $-1 $56 $158 #
straight-curve $-1 74.887539292580954 0 15.002162002347164 0 1 0 I I #
face $-1 $159 $160 $13 $-1 $161 reversed single #
loop $-1 $-1 $162 $57 #
plane-surface $-1 0 -40.349039121512398 -13.399048132646968 0 0 1 1 0 0 forward_v I I I I #
coedge $-1 $63 $163 $164 $165 forward $58 $-1 #
coedge $-1 $166 $60 $167 $168 reversed $37 $-1 #
coedge $-1 $60 $166 $109 $169 reversed $37 $-1 #
edge $-1 $110 7.0565404200545663 $170 13.399048132646968 $60 $171 forward 7 unknown #
coedge $-1 $62 $61 $172 $173 forward $24 $-1 #
coedge $-1 $164 $174 $61 $108 forward $175 $-1 #
edge $-1 $176 -13.399048132646968 $111 -7.0565404200545663 $107 $177 forward 7 unknown #
coedge $-1 $163 $63 $104 $169 forward $58 $-1 #
vertex $-1 $105 $178 #
vertex $-1 $165 $179 #
straight-curve $-1 0 -31.486042743372909 -7.0565404200545663 1 0 0 I I #
face $-1 $-1 $180 $14 $-1 $181 reversed single #
loop $-1 $-1 $71 $65 #
plane-surface $-1 0 31.486042743372909 0 0 -1 0 0 0 -1 forward_v I I I I #
coedge $-1 $121 $182 $183 $184 forward $66 $-1 #
coedge $-1 $183 $68 $70 $123 forward $41 $-1 #
coedge $-1 $68 $183 $185 $186 reversed $41 $-1 #
coedge $-1 $187 $71 $68 $120 forward $114 $-1 #
edge $-1 $126 15.100579668291438 $188 44.891499638956823 $119 $189 forward 7 unknown #
coedge $-1 $190 $116 $69 $122 forward $66 $-1 #
edge $-1 $191 -20.055001888369901 $125 -9.6248076541993548 $121 $192 forward 7 unknown #
edge $-1 $126 -62.972085486745826 $191 -49.151942476318951 $70 $193 forward 7 unknown #
coedge $-1 $71 $187 $190 $194 reversed $114 $-1 #
vertex $-1 $194 $195 #
vertex $-1 $72 $196 #
straight-curve $-1 -45.096619321915568 31.486042743372909 80.142711848300593 0 0 -1 I I #
coedge $-1 $128 $128 $-1 $197 reversed $75 $-1 #
edge $-1 $198 0 $198 6.2831853071796004 $76 $199 forward 7 unknown #
vertex $-1 $79 $200 #
ellipse-curve $-1 -59.992079307248261 26.270945626287642 10.468747145251955 0 0.6560590369687036 0.75470957328743171 1.5 0 0 1 I I #
face $-1 $-1 $95 $12 $-1 $201 reversed single #
loop $-1 $-1 $148 $80 #
plane-surface $-1 0 31.486042743372909 0 0 -1 0 0 0 -1 forward_v I I I I #
coedge $-1 $202 $146 $149 $203 forward $81 $-1 #
coedge $-1 $152 $83 $84 $140 reversed $50 $-1 #
coedge $-1 $146 $202 $83 $138 reversed $81 $-1 #
edge $-1 $153 -15.002162002347164 $204 15.002162002347164 $137 $205 forward 7 unknown #
coedge $-1 $85 $84 $202 $206 forward $33 $-1 #
edge $-1 $144 -74.887539292580954 $204 74.887539292580954 $136 $207 forward 7 unknown #
coedge $-1 $149 $148 $85 $142 reversed $133 $-1 #
edge $-1 $208 -74.887539292580954 $143 74.887539292580954 $141 $209 forward 7 unknown #
vertex $-1 $87 $210 #
vertex $-1 $155 $211 #
straight-curve $-1 74.887539292580954 0 -15.002162002347164 0 -1 0 I I #
coedge $-1 $135 $137 $88 $147 reversed $81 $-1 #
edge $-1 $150 -31.486042743372909 $153 31.486042743372909 $146 $212 forward 7 unknown #
coedge $-1 $141 $89 $94 $156 forward $133 $-1 #
coedge $-1 $89 $141 $135 $203 reversed $133 $-1 #
vertex $-1 $90 $213 #
straight-curve $-1 0 31.486042743372909 15.002162002347164 -1 0 0 I I #
coedge $-1 $91 $136 $93 $155 reversed $50 $-1 #
vertex $-1 $147 $214 #
straight-curve $-1 0 -31.486042743372909 15.002162002347164 1 0 0 I I #
edge $-1 $96 -15.002162002347164 $144 15.002162002347164 $93 $215 forward 7 unknown #
edge $-1 $97 -15.002162002347164 $143 15.002162002347164 $94 $216 forward 7 unknown #
point $-1 74.887539292580954 -31.486042743372909 15.002162002347164 #
point $-1 74.887539292580954 31.486042743372909 15.002162002347164 #
face $-1 $-1 $175 $13 $-1 $217 reversed single #
loop $-1 $-1 $218 $99 #
plane-surface $-1 0 -49.21203549965189 -10.227794276350767 0 1 0 0 0 1 forward_v I I I I #
coedge $-1 $219 $172 $174 $220 forward $100 $-1 #
coedge $-1 $102 $109 $221 $222 forward $58 $-1 #
coedge $-1 $223 $107 $102 $165 reversed $175 $-1 #
edge $-1 $224 -8.862996378139492 $111 8.862996378139492 $164 $225 forward 7 unknown #
coedge $-1 $104 $103 $218 $226 reversed $37 $-1 #
coedge $-1 $172 $219 $103 $168 forward $100 $-1 #
edge $-1 $227 -8.862996378139492 $170 8.862996378139492 $103 $228 forward 7 unknown #
edge $-1 $110 -8.862996378139492 $229 8.862996378139492 $104 $230 forward 7 unknown #
vertex $-1 $105 $231 #
straight-curve $-1 -74.887539292580954 -31.486042743372909 0 0 0 -1 I I #
coedge $-1 $162 $167 $106 $173 reversed $100 $-1 #
edge $-1 $176 -74.887539292580954 $170 74.887539292580954 $172 $232 forward 7 unknown #
coedge $-1 $107 $223 $162 $220 reversed $175 $-1 #
loop $-1 $-1 $107 $159 #
vertex $-1 $108 $233 #
straight-curve $-1 74.887539292580954 -31.486042743372909 0 0 0 1 I I #
point $-1 -74.887539292580954 -31.486042743372906 -7.0565404200545663 #
point $-1 74.887539292580954 -31.486042743372906 -7.0565404200545663 #
loop $-1 $-1 $185 $113 #
plane-surface $-1 -74.887539292580954 0 0 1 0 0 0 0 -1 forward_v I I I I #
coedge $-1 $116 $190 $234 $235 forward $66 $-1 #
coedge $-1 $118 $117 $116 $184 reversed $41 $-1 #
edge $-1 $236 -44.891499638956823 $191 -15.100579668291438 $116 $237 forward 7 unknown #
coedge $-1 $234 $238 $118 $186 forward $180 $-1 #
edge $-1 $188 -41.420487492524629 $236 -27.600344482097753 $185 $239 forward 7 unknown #
coedge $-1 $124 $119 $238 $240 reversed $114 $-1 #
vertex $-1 $120 $241 #
straight-curve $-1 -29.99603965362413 31.486042743372906 5.9353322881567543 -1 0 0 I I #
coedge $-1 $182 $121 $124 $194 forward $66 $-1 #
vertex $-1 $122 $242 #
straight-curve $-1 -45.096619321915568 41.110850397572264 15.002162002347163 0 1 0 I I #
straight-curve $-1 -45.096619321915568 -16.039593023348701 47.248738048502091 0 -0.75470957328743171 0.6560590369687036 I I #
edge $-1 $125 45.096619321915568 $243 74.887539292580954 $124 $244 forward 7 unknown #
point $-1 -45.096619321915568 31.486042743372909 15.002162002347164 #
point $-1 -45.096619321915568 31.486042743372906 5.9353322881567507 #
edge $-1 $245 1 $245 0 $128 $-1 forward 7 unknown #
vertex $-1 $129 $246 #
ellipse-curve $-1 -59.992079307248261 24.681934078679834 8.640798501201651 0 0.6560590369687036 0.75470957328743171 1.5 0 0 1 I I #
point $-1 -58.492079307248261 26.270945626287663 10.46874714525198 #
plane-surface $-1 74.887539292580954 0 0 -1 0 0 0 0 1 forward_v I I I I #
coedge $-1 $137 $135 $139 $206 reversed $81 $-1 #
edge $-1 $150 -15.002162002347164 $208 15.002162002347164 $149 $247 forward 7 unknown #
vertex $-1 $206 $248 #
straight-curve $-1 -74.887539292580954 -31.486042743372909 0 0 0 -1 I I #
edge $-1 $204 -31.486042743372909 $208 31.486042743372909 $202 $249 forward 7 unknown #
straight-curve $-1 0 -31.486042743372909 -15.002162002347164 -1 0 0 I I #
vertex $-1 $142 $250 #
straight-curve $-1 0 31.486042743372909 -15.002162002347164 1 0 0 I I #
point $-1 74.887539292580954 31.486042743372909 -15.002162002347164 #
point $-1 74.887539292580954 -31.486042743372909 -15.002162002347164 #
straight-curve $-1 -74.887539292580954 0 15.002162002347164 0 -1 0 I I #
point $-1 -74.887539292580954 31.486042743372909 15.002162002347164 #
point $-1 -74.887539292580954 -31.486042743372909 15.002162002347164 #
straight-curve $-1 74.887539292580954 -31.486042743372909 0 0 0 -1 I I #
straight-curve $-1 74.887539292580954 31.486042743372909 0 0 0 -1 I I #
plane-surface $-1 74.887539292580954 0 0 -1 0 0 0 0 1 forward_v I I I I #
coedge $-1 $251 $221 $166 $226 forward $160 $-1 #
coedge $-1 $167 $162 $251 $252 forward $100 $-1 #
edge $-1 $176 -8.862996378139492 $253 8.862996378139492 $174 $254 forward 7 unknown #
coedge $-1 $218 $255 $163 $222 reversed $160 $-1 #
edge $-1 $229 -74.887539292580954 $224 74.887539292580954 $221 $256 forward 7 unknown #
coedge $-1 $174 $164 $255 $257 forward $175 $-1 #
vertex $-1 $165 $258 #
straight-curve $-1 74.887539292580954 -40.349039121512398 -7.0565404200545663 0 1 0 I I #
edge $-1 $229 -3.1712538562962012 $227 3.1712538562962003 $166 $259 forward 7 unknown #
vertex $-1 $168 $260 #
straight-curve $-1 -74.887539292580954 -40.349039121512398 -13.399048132646968 0 1 0 I I #
vertex $-1 $169 $261 #
straight-curve $-1 -74.887539292580954 -40.349039121512398 -7.0565404200545663 0 -1 0 I I #
point $-1 -74.887539292580954 -31.486042743372906 -13.399048132646968 #
straight-curve $-1 0 -31.486042743372909 -13.399048132646968 -1 0 0 I I #
point $-1 74.887539292580954 -31.486042743372906 -13.399048132646968 #
coedge $-1 $238 $185 $182 $235 reversed $180 $-1 #
edge $-1 $243 -31.486042743372909 $236 -21.055848509202363 $234 $262 forward 7 unknown #
vertex $-1 $186 $263 #
straight-curve $-1 -29.99603965362413 21.05584850920236 15.002162002347166 1 0 0 I I #
coedge $-1 $185 $234 $187 $240 forward $180 $-1 #
straight-curve $-1 -74.887539292580954 0.22560430253224695 33.109617423276688 0 -0.75470957328743171 0.6560590369687036 I I #
edge $-1 $243 -15.002162002347164 $188 -5.9353322881567543 $187 $264 forward 7 unknown #
point $-1 -74.887539292580954 31.486042743372909 5.9353322881567543 #
point $-1 -45.096619321915568 21.055848509202363 15.002162002347163 #
vertex $-1 $194 $265 #
straight-curve $-1 0 31.486042743372909 15.002162002347164 -1 0 0 I I #
vertex $-1 $197 $266 #
point $-1 -58.492079307248261 24.681934078679834 8.640798501201651 #
straight-curve $-1 -74.887539292580954 31.486042743372909 0 0 0 -1 I I #
point $-1 -74.887539292580954 -31.486042743372909 -15.002162002347164 #
straight-curve $-1 -74.887539292580954 0 -15.002162002347164 0 1 0 I I #
point $-1 -74.887539292580954 31.486042743372909 -15.002162002347164 #
coedge $-1 $255 $218 $219 $252 reversed $160 $-1 #
edge $-1 $253 -74.887539292580954 $227 74.887539292580954 $251 $267 forward 7 unknown #
vertex $-1 $257 $268 #
straight-curve $-1 74.887539292580954 -40.349039121512398 -13.399048132646968 0 -1 0 I I #
coedge $-1 $221 $251 $223 $257 reversed $160 $-1 #
straight-curve $-1 0 -49.21203549965189 -7.0565404200545663 1 0 0 I I #
edge $-1 $224 -3.1712538562962012 $253 3.1712538562962003 $223 $269 forward 7 unknown #
point $-1 74.887539292580954 -49.21203549965189 -7.0565404200545663 #
straight-curve $-1 -74.887539292580954 -49.21203549965189 -10.227794276350767 0 0 -1 I I #
point $-1 -74.887539292580954 -49.21203549965189 -13.399048132646968 #
point $-1 -74.887539292580954 -49.21203549965189 -7.0565404200545663 #
straight-curve $-1 -74.887539292580954 0 15.002162002347164 0 -1 0 I I #
point $-1 -74.887539292580954 21.055848509202363 15.002162002347163 #
straight-curve $-1 -74.887539292580954 31.486042743372909 0 0 0 -1 I I #
point $-1 -74.887539292580954 31.486042743372909 15.002162002347164 #
point $-1 -59.992079307248261 23.697845523226778 7.5087341412705042 #
straight-curve $-1 0 -49.21203549965189 -13.399048132646968 -1 0 0 I I #
point $-1 74.887539292580954 -49.21203549965189 -13.399048132646968 #
straight-curve $-1 74.887539292580954 -49.21203549965189 -10.227794276350767 0 0 -1 I I #
End-of-ACIS-data 