500 0 11 0           
7 Unknown 11 ACIS 5.0 NT 24 Fri Mar 26 16:39:43 1999 
-1 9.9999999999999995e-007 1e-010 
body $-1 $11 $-1 $12 #
body $-1 $13 $-1 $14 #
body $-1 $15 $-1 $16 #
body $-1 $17 $-1 $18 #
body $-1 $19 $-1 $20 #
body $-1 $21 $-1 $22 #
body $-1 $23 $-1 $24 #
body $-1 $25 $-1 $26 #
body $-1 $27 $-1 $28 #
body $-1 $29 $-1 $30 #
body $-1 $31 $-1 $32 #
lump $-1 $-1 $33 $0 #
transform $-1 1 0 0 0 1 0 0 0 1 61.182287057100133 34.012399810013868 13.955391339022505 1 rotate no_reflect no_shear #
lump $-1 $-1 $34 $1 #
transform $-1 1 0 0 0 1 0 0 0 1 61.182287057100133 34.012399810013868 13.955391339022505 1 rotate no_reflect no_shear #
lump $-1 $-1 $35 $2 #
transform $-1 1 0 0 0 1 0 0 0 1 61.182287057100133 34.012399810013868 13.955391339022505 1 rotate no_reflect no_shear #
lump $-1 $-1 $36 $3 #
transform $-1 1 0 0 0 1 0 0 0 1 61.182287057100133 34.012399810013868 13.955391339022505 1 rotate no_reflect no_shear #
lump $-1 $-1 $37 $4 #
transform $-1 1 0 0 0 1 0 0 0 1 61.182287057100133 34.012399810013868 13.955391339022505 1 rotate no_reflect no_shear #
lump $-1 $-1 $38 $5 #
transform $-1 1 0 0 0 1 0 0 0 1 61.182287057100133 34.012399810013868 13.955391339022505 1 rotate no_reflect no_shear #
lump $-1 $-1 $39 $6 #
transform $-1 1 0 0 0 1 0 0 0 1 61.182287057100133 34.012399810013868 13.955391339022505 1 rotate no_reflect no_shear #
lump $-1 $-1 $40 $7 #
transform $-1 1 0 0 0 1 0 0 0 1 61.182287057100133 34.012399810013868 13.955391339022505 1 rotate no_reflect no_shear #
lump $-1 $-1 $41 $8 #
transform $-1 1 0 0 0 1 0 0 0 1 61.182287057100133 34.012399810013868 13.955391339022505 1 rotate no_reflect no_shear #
lump $-1 $-1 $42 $9 #
transform $-1 1 0 0 0 1 0 0 0 1 61.182287057100133 34.012399810013868 13.955391339022505 1 rotate no_reflect no_shear #
lump $-1 $-1 $43 $10 #
transform $-1 1 0 0 0 1 0 0 0 1 61.182287057100133 34.012399810013868 13.955391339022505 1 rotate no_reflect no_shear #
shell $-1 $-1 $-1 $44 $-1 $11 #
shell $-1 $-1 $-1 $45 $-1 $13 #
shell $-1 $-1 $-1 $46 $-1 $15 #
shell $-1 $-1 $-1 $47 $-1 $17 #
shell $-1 $-1 $-1 $48 $-1 $19 #
shell $-1 $-1 $-1 $49 $-1 $21 #
shell $-1 $-1 $-1 $50 $-1 $23 #
shell $-1 $-1 $-1 $51 $-1 $25 #
shell $-1 $-1 $-1 $52 $-1 $27 #
shell $-1 $-1 $-1 $53 $-1 $29 #
shell $-1 $-1 $-1 $54 $-1 $31 #
face $-1 $55 $56 $33 $-1 $57 reversed single #
face $-1 $58 $59 $34 $-1 $60 forward single #
face $-1 $61 $62 $35 $-1 $63 forward single #
face $-1 $64 $65 $36 $-1 $66 reversed single #
face $-1 $67 $68 $37 $-1 $69 forward single #
face $-1 $70 $71 $38 $-1 $72 reversed single #
face $-1 $73 $74 $39 $-1 $75 forward single #
face $-1 $76 $77 $40 $-1 $78 reversed single #
face $-1 $79 $80 $41 $-1 $81 forward single #
face $-1 $82 $83 $42 $-1 $84 reversed single #
face $-1 $85 $86 $43 $-1 $87 forward single #
face $-1 $88 $89 $33 $-1 $90 forward single #
loop $-1 $-1 $91 $44 #
plane-surface $-1 61.182287057100133 0 0 -1 0 0 0 0 1 forward_v I I I I #
face $-1 $92 $93 $34 $-1 $94 reversed single #
loop $-1 $-1 $95 $45 #
plane-surface $-1 -56.099291194032446 0 -10.511156292827401 0 0 1 1 0 0 forward_v I I I I #
face $-1 $96 $97 $35 $-1 $98 reversed single #
loop $-1 $-1 $99 $46 #
plane-surface $-1 61.182287057100133 0 0 -1 0 0 0 0 1 forward_v I I I I #
face $-1 $100 $101 $36 $-1 $102 reversed single #
loop $-1 $-1 $103 $47 #
plane-surface $-1 -51.016295330964752 -135.45723028835792 78.421897884289194 1 0 0 0 0.82903758062907751 -0.55919289150049634 forward_v I I I I #
face $-1 $104 $105 $37 $-1 $106 forward single #
loop $-1 $107 $108 $48 #
cone-surface $-1 -40.625103968349819 -31.427566959078931 11.133025358810814 0 0.82903758062907751 -0.55919289150049634 1 0 0 1 I I 0 1 1 forward I I I I #
face $-1 $109 $110 $38 $-1 $111 reversed single #
loop $-1 $-1 $112 $49 #
plane-surface $-1 -3.1878701588813154 -135.45723028835792 78.421897884289194 1 0 0 0 0.82903758062907751 -0.55919289150049634 forward_v I I I I #
face $-1 $113 $114 $39 $-1 $115 forward single #
loop $-1 $116 $117 $50 #
cone-surface $-1 7.2033212037336156 -31.427566959078931 11.133025358810814 0 0.82903758062907751 -0.55919289150049634 1 0 0 1 I I 0 1 1 forward I I I I #
face $-1 $118 $119 $40 $-1 $120 reversed single #
loop $-1 $-1 $121 $51 #
plane-surface $-1 -51.016295330964752 97.418245895092724 134.81701318405479 1 0 0 0 -0.82903758062907751 -0.55919289150049634 forward_v I I I I #
face $-1 $122 $123 $41 $-1 $124 forward single #
loop $-1 $125 $126 $52 #
cone-surface $-1 -40.625103968349819 31.427566959078931 11.133025358810796 0 -0.82903758062907751 -0.55919289150049634 1 0 0 1 I I 0 1 1 forward I I I I #
face $-1 $127 $128 $42 $-1 $129 reversed single #
loop $-1 $-1 $130 $53 #
plane-surface $-1 -3.1878701588813154 97.418245895092724 134.81701318405479 1 0 0 0 -0.82903758062907751 -0.55919289150049634 forward_v I I I I #
face $-1 $131 $132 $43 $-1 $133 forward single #
loop $-1 $134 $135 $54 #
cone-surface $-1 7.2033212037336156 31.427566959078931 11.133025358810796 0 -0.82903758062907751 -0.55919289150049634 1 0 0 1 I I 0 1 1 forward I I I I #
face $-1 $136 $137 $33 $-1 $138 reversed single #
loop $-1 $-1 $139 $55 #
plane-surface $-1 0 0 13.955391339022505 0 0 1 1 0 0 forward_v I I I I #
coedge $-1 $140 $141 $142 $143 reversed $56 $-1 #
face $-1 $144 $145 $34 $-1 $146 reversed single #
loop $-1 $-1 $147 $58 #
plane-surface $-1 -51.016295330964752 0 -12.233273815924953 -1 0 0 0 0 1 forward_v I I I I #
coedge $-1 $148 $149 $150 $151 forward $59 $-1 #
face $-1 $152 $153 $35 $-1 $154 forward single #
loop $-1 $-1 $155 $61 #
plane-surface $-1 0 34.012399810013868 0 0 -1 0 0 0 -1 forward_v I I I I #
coedge $-1 $156 $157 $158 $159 forward $62 $-1 #
face $-1 $160 $161 $36 $-1 $162 reversed single #
loop $-1 $-1 $163 $64 #
plane-surface $-1 -40.625103968349819 -34.012399810013875 9.9964978681427539 0 -0.82903758062907751 0.55919289150049634 1 0 0 forward_v I I I I #
coedge $-1 $164 $165 $166 $167 reversed $65 $-1 #
face $-1 $-1 $168 $37 $-1 $169 forward single #
loop $-1 $170 $171 $67 #
cone-surface $-1 -40.625103968349819 -29.763368957935761 10.010509668288744 0 0.82903758062907751 -0.55919289150049634 0.5 0 0 1 I I -0.70710678118654746 0.70710678118654746 0.5 forward I I I I #
loop $-1 $-1 $172 $48 #
coedge $-1 $108 $108 $173 $174 reversed $68 $-1 #
face $-1 $175 $176 $38 $-1 $177 reversed single #
loop $-1 $-1 $178 $70 #
plane-surface $-1 7.2033212037336156 -34.012399810013875 9.9964978681427539 0 -0.82903758062907751 0.55919289150049634 1 0 0 forward_v I I I I #
coedge $-1 $179 $180 $181 $182 reversed $71 $-1 #
face $-1 $-1 $183 $39 $-1 $184 forward single #
loop $-1 $185 $186 $73 #
cone-surface $-1 7.2033212037336156 -29.763368957935761 10.010509668288744 0 0.82903758062907751 -0.55919289150049634 0.5 0 0 1 I I -0.70710678118654746 0.70710678118654746 0.5 forward I I I I #
loop $-1 $-1 $187 $50 #
coedge $-1 $117 $117 $188 $189 reversed $74 $-1 #
face $-1 $190 $191 $40 $-1 $192 reversed single #
loop $-1 $-1 $193 $76 #
plane-surface $-1 -40.625103968349819 -4.0265845832513207 66.391613167908346 0 0.82903758062907751 0.55919289150049634 1 0 0 forward_v I I I I #
coedge $-1 $194 $195 $196 $197 reversed $77 $-1 #
face $-1 $-1 $198 $41 $-1 $199 forward single #
loop $-1 $200 $201 $79 #
cone-surface $-1 -40.625103968349819 29.763368957935761 10.010509668288726 0 -0.82903758062907751 -0.55919289150049634 0.5 0 0 1 I I -0.70710678118654746 0.70710678118654746 0.5 forward I I I I #
loop $-1 $-1 $202 $52 #
coedge $-1 $126 $126 $203 $204 reversed $80 $-1 #
face $-1 $205 $206 $42 $-1 $207 reversed single #
loop $-1 $-1 $208 $82 #
plane-surface $-1 7.2033212037336156 -4.0265845832513207 66.391613167908346 0 0.82903758062907751 0.55919289150049634 1 0 0 forward_v I I I I #
coedge $-1 $209 $210 $211 $212 reversed $83 $-1 #
face $-1 $-1 $213 $43 $-1 $214 forward single #
loop $-1 $215 $216 $85 #
cone-surface $-1 7.2033212037336156 29.763368957935761 10.010509668288726 0 -0.82903758062907751 -0.55919289150049634 0.5 0 0 1 I I -0.70710678118654746 0.70710678118654746 0.5 forward I I I I #
loop $-1 $-1 $217 $54 #
coedge $-1 $135 $135 $218 $219 reversed $86 $-1 #
face $-1 $220 $221 $33 $-1 $222 reversed single #
loop $-1 $-1 $223 $88 #
plane-surface $-1 0 0 -13.955391339022505 0 0 1 1 0 0 forward_v I I I I #
coedge $-1 $224 $225 $140 $226 forward $89 $-1 #
coedge $-1 $227 $91 $139 $226 reversed $56 $-1 #
coedge $-1 $91 $227 $223 $228 reversed $56 $-1 #
coedge $-1 $229 $230 $91 $143 forward $231 $-1 #
edge $-1 $232 -13.955391339022505 $233 13.955391339022505 $91 $234 forward 7 unknown #
face $-1 $235 $236 $34 $-1 $237 reversed single #
loop $-1 $-1 $238 $92 #
plane-surface $-1 0 0 -13.955391339022505 0 0 1 1 0 0 forward_v I I I I #
coedge $-1 $239 $150 $240 $241 reversed $93 $-1 #
coedge $-1 $242 $95 $243 $244 reversed $59 $-1 #
coedge $-1 $95 $242 $245 $246 reversed $59 $-1 #
coedge $-1 $147 $247 $95 $151 reversed $93 $-1 #
edge $-1 $248 -34.012399810013868 $249 34.012399810013868 $150 $250 forward 7 unknown #
face $-1 $251 $252 $35 $-1 $253 reversed single #
loop $-1 $-1 $254 $96 #
plane-surface $-1 69.453153079049144 0 3.7659845943824353 0 0 1 1 0 0 forward_v I I I I #
coedge $-1 $255 $256 $157 $257 forward $97 $-1 #
coedge $-1 $258 $99 $259 $260 reversed $62 $-1 #
coedge $-1 $99 $258 $155 $257 reversed $62 $-1 #
coedge $-1 $261 $262 $99 $159 reversed $252 $-1 #
edge $-1 $263 -34.012399810013868 $264 34.012399810013868 $158 $265 forward 7 unknown #
face $-1 $266 $267 $36 $-1 $268 forward single #
loop $-1 $-1 $269 $100 #
plane-surface $-1 -30.233912605734886 -135.45723028835792 78.421897884289194 -1 0 0 0 -0.82903758062907751 0.55919289150049634 forward_v I I I I #
coedge $-1 $270 $271 $272 $273 reversed $101 $-1 #
coedge $-1 $165 $103 $274 $275 reversed $65 $-1 #
coedge $-1 $103 $164 $270 $276 reversed $65 $-1 #
coedge $-1 $272 $277 $103 $167 forward $278 $-1 #
edge $-1 $279 25.255557603122092 $280 29.214451074001833 $166 $281 forward 7 unknown #
loop $-1 $-1 $173 $104 #
plane-surface $-1 -40.625103968349819 -34.012399810013875 9.9964978681427539 0 -0.82903758062907751 0.55919289150049634 1 0 0 forward_v I I I I #
loop $-1 $-1 $282 $67 #
coedge $-1 $171 $171 $172 $283 reversed $105 $-1 #
coedge $-1 $172 $172 $171 $283 forward $107 $-1 #
coedge $-1 $173 $173 $108 $174 forward $168 $-1 #
edge $-1 $284 0 $284 6.2831853071796004 $173 $285 forward 7 unknown #
face $-1 $286 $287 $38 $-1 $288 reversed single #
loop $-1 $-1 $289 $109 #
plane-surface $-1 17.594512566348548 -135.45723028835792 78.421897884289194 -1 0 0 0 -0.82903758062907751 0.55919289150049634 forward_v I I I I #
coedge $-1 $290 $291 $292 $293 reversed $110 $-1 #
coedge $-1 $180 $112 $294 $295 reversed $71 $-1 #
coedge $-1 $112 $179 $290 $296 reversed $71 $-1 #
coedge $-1 $292 $297 $112 $182 forward $287 $-1 #
edge $-1 $298 25.255557603122092 $299 29.214451074001833 $181 $300 forward 7 unknown #
loop $-1 $-1 $188 $113 #
plane-surface $-1 7.2033212037336156 -34.012399810013875 9.9964978681427539 0 -0.82903758062907751 0.55919289150049634 1 0 0 forward_v I I I I #
loop $-1 $-1 $301 $73 #
coedge $-1 $186 $186 $187 $302 reversed $114 $-1 #
coedge $-1 $187 $187 $186 $302 forward $116 $-1 #
coedge $-1 $188 $188 $117 $189 forward $183 $-1 #
edge $-1 $303 0 $303 6.2831853071796004 $188 $304 forward 7 unknown #
face $-1 $305 $306 $40 $-1 $307 reversed single #
loop $-1 $-1 $308 $118 #
plane-surface $-1 -30.233912605734886 97.418245895092724 134.81701318405479 -1 0 0 0 0.82903758062907751 0.55919289150049634 forward_v I I I I #
coedge $-1 $309 $310 $311 $312 reversed $119 $-1 #
coedge $-1 $195 $121 $313 $314 reversed $77 $-1 #
coedge $-1 $121 $194 $309 $315 reversed $77 $-1 #
coedge $-1 $311 $316 $121 $197 forward $317 $-1 #
edge $-1 $318 14.696723137532494 $319 17.367030417745127 $196 $320 forward 7 unknown #
loop $-1 $-1 $203 $122 #
plane-surface $-1 -40.625103968349819 -4.0265845832513207 66.391613167908346 0 0.82903758062907751 0.55919289150049634 1 0 0 forward_v I I I I #
loop $-1 $-1 $321 $79 #
coedge $-1 $201 $201 $202 $322 reversed $123 $-1 #
coedge $-1 $202 $202 $201 $322 forward $125 $-1 #
coedge $-1 $203 $203 $126 $204 forward $198 $-1 #
edge $-1 $323 2.500637892973337e-015 $323 6.2831853071796031 $203 $324 forward 7 unknown #
face $-1 $325 $326 $42 $-1 $327 reversed single #
loop $-1 $-1 $328 $127 #
plane-surface $-1 17.594512566348548 97.418245895092724 134.81701318405479 -1 0 0 0 0.82903758062907751 0.55919289150049634 forward_v I I I I #
coedge $-1 $329 $330 $331 $332 reversed $128 $-1 #
coedge $-1 $210 $130 $333 $334 reversed $83 $-1 #
coedge $-1 $130 $209 $329 $335 reversed $83 $-1 #
coedge $-1 $331 $336 $130 $212 forward $337 $-1 #
edge $-1 $338 14.696723137532494 $339 17.367030417745127 $211 $340 forward 7 unknown #
loop $-1 $-1 $218 $131 #
plane-surface $-1 7.2033212037336156 -4.0265845832513207 66.391613167908346 0 0.82903758062907751 0.55919289150049634 1 0 0 forward_v I I I I #
loop $-1 $-1 $341 $85 #
coedge $-1 $216 $216 $217 $342 reversed $132 $-1 #
coedge $-1 $217 $217 $216 $342 forward $134 $-1 #
coedge $-1 $218 $218 $135 $219 forward $213 $-1 #
edge $-1 $343 2.500637892973337e-015 $343 6.2831853071796031 $218 $344 forward 7 unknown #
face $-1 $345 $346 $33 $-1 $347 reversed single #
loop $-1 $-1 $348 $136 #
plane-surface $-1 0 -34.012399810013868 0 0 1 0 0 0 1 forward_v I I I I #
coedge $-1 $349 $350 $141 $228 forward $137 $-1 #
coedge $-1 $351 $139 $230 $352 forward $89 $-1 #
coedge $-1 $139 $351 $353 $354 forward $89 $-1 #
edge $-1 $355 -34.012399810013868 $232 34.012399810013868 $140 $356 forward 7 unknown #
coedge $-1 $141 $140 $357 $358 forward $56 $-1 #
edge $-1 $233 -34.012399810013868 $359 34.012399810013868 $141 $360 forward 7 unknown #
coedge $-1 $361 $142 $350 $362 reversed $231 $-1 #
coedge $-1 $142 $361 $224 $352 reversed $231 $-1 #
loop $-1 $-1 $142 $345 #
vertex $-1 $226 $363 #
vertex $-1 $228 $364 #
straight-curve $-1 61.182287057100133 34.012399810013868 0 0 0 -1 I I #
face $-1 $365 $366 $34 $-1 $367 reversed single #
loop $-1 $-1 $240 $144 #
plane-surface $-1 0 -34.012399810013868 0 0 1 0 0 0 1 forward_v I I I I #
coedge $-1 $368 $369 $239 $370 forward $145 $-1 #
coedge $-1 $247 $147 $238 $370 reversed $93 $-1 #
coedge $-1 $245 $371 $147 $241 forward $236 $-1 #
edge $-1 $372 -7.8387544310600283 $248 -4.3945193848649247 $240 $373 forward 7 unknown #
coedge $-1 $149 $148 $374 $375 reversed $59 $-1 #
coedge $-1 $376 $377 $148 $244 forward $378 $-1 #
edge $-1 $379 -33.132641460083917 $249 -22.966649733948529 $243 $380 forward 7 unknown #
coedge $-1 $381 $240 $149 $246 forward $236 $-1 #
edge $-1 $248 22.966649733948529 $382 33.132641460083917 $245 $383 forward 7 unknown #
coedge $-1 $150 $239 $376 $384 reversed $93 $-1 #
vertex $-1 $246 $385 #
vertex $-1 $244 $386 #
straight-curve $-1 -51.016295330964752 0 -10.511156292827401 0 1 0 I I #
face $-1 $387 $388 $35 $-1 $389 reversed single #
loop $-1 $-1 $390 $152 #
plane-surface $-1 69.453153079049144 0 -1.1378871960095127 0 0 1 1 0 0 forward_v I I I I #
coedge $-1 $391 $392 $393 $394 forward $153 $-1 #
coedge $-1 $395 $155 $391 $396 reversed $97 $-1 #
coedge $-1 $155 $395 $261 $397 reversed $97 $-1 #
edge $-1 $263 -1.1378871960095127 $398 3.7659845943824353 $155 $399 forward 7 unknown #
coedge $-1 $157 $156 $400 $401 forward $62 $-1 #
coedge $-1 $402 $403 $156 $260 forward $404 $-1 #
edge $-1 $405 -3.7659845943824353 $264 1.1378871960095127 $259 $406 forward 7 unknown #
coedge $-1 $390 $158 $256 $397 forward $252 $-1 #
coedge $-1 $158 $390 $402 $407 forward $252 $-1 #
vertex $-1 $257 $408 #
vertex $-1 $260 $409 #
straight-curve $-1 61.182287057100133 0 -1.1378871960095127 0 -1 0 I I #
face $-1 $-1 $278 $36 $-1 $410 reversed single #
loop $-1 $-1 $411 $160 #
plane-surface $-1 0 0 13.955391339022505 0 0 1 1 0 0 forward_v I I I I #
coedge $-1 $412 $413 $414 $415 reversed $161 $-1 #
coedge $-1 $416 $163 $165 $276 forward $101 $-1 #
coedge $-1 $163 $416 $412 $417 forward $101 $-1 #
coedge $-1 $414 $166 $163 $273 forward $278 $-1 #
edge $-1 $280 -30.703743346789842 $418 -9.9213606215599768 $272 $419 forward 7 unknown #
coedge $-1 $420 $421 $164 $275 forward $267 $-1 #
edge $-1 $422 -36.386522614377711 $279 -33.716215334165092 $274 $423 forward 7 unknown #
edge $-1 $280 1.2809303928265426e-014 $422 4.7752883142833227 $165 $424 forward 7 unknown #
coedge $-1 $166 $414 $420 $425 reversed $278 $-1 #
loop $-1 $-1 $414 $266 #
vertex $-1 $425 $426 #
vertex $-1 $167 $427 #
straight-curve $-1 -51.016295330964752 -34.012399810013868 39.210948942144597 0 0 -1 I I #
coedge $-1 $282 $282 $-1 $428 reversed $170 $-1 #
edge $-1 $429 0 $429 6.2831853071796004 $171 $430 forward 7 unknown #
vertex $-1 $174 $431 #
ellipse-curve $-1 -40.625103968349819 -32.677246169907562 11.975944603582635 0 -0.82903758062907751 0.55919289150049634 1 0 0 1 I I #
face $-1 $-1 $432 $38 $-1 $433 forward single #
loop $-1 $-1 $181 $175 #
plane-surface $-1 0 -34.012399810013868 0 0 1 0 0 0 1 forward_v I I I I #
coedge $-1 $434 $435 $436 $437 reversed $176 $-1 #
coedge $-1 $438 $178 $180 $296 forward $110 $-1 #
coedge $-1 $178 $438 $434 $439 forward $110 $-1 #
coedge $-1 $436 $181 $178 $293 forward $287 $-1 #
edge $-1 $299 -6.7895307607481232 $440 13.992851964481741 $292 $441 forward 7 unknown #
coedge $-1 $442 $443 $179 $295 forward $432 $-1 #
edge $-1 $444 -36.386522614377711 $298 -33.716215334165092 $294 $445 forward 7 unknown #
edge $-1 $299 1.2809303928265426e-014 $444 4.7752883142833227 $180 $446 forward 7 unknown #
coedge $-1 $181 $436 $442 $447 reversed $287 $-1 #
vertex $-1 $447 $448 #
vertex $-1 $182 $449 #
straight-curve $-1 -3.1878701588813154 -34.012399810013868 39.210948942144597 0 0 -1 I I #
coedge $-1 $301 $301 $-1 $450 reversed $185 $-1 #
edge $-1 $451 0 $451 6.2831853071796004 $186 $452 forward 7 unknown #
vertex $-1 $189 $453 #
ellipse-curve $-1 7.2033212037336156 -32.677246169907562 11.975944603582635 0 -0.82903758062907751 0.55919289150049634 1 0 0 1 I I #
face $-1 $-1 $317 $40 $-1 $454 forward single #
loop $-1 $-1 $455 $190 #
plane-surface $-1 0 34.012399810013868 0 0 -1 0 0 0 -1 forward_v I I I I #
coedge $-1 $456 $457 $458 $459 reversed $191 $-1 #
coedge $-1 $460 $193 $195 $315 forward $119 $-1 #
coedge $-1 $193 $460 $456 $461 forward $119 $-1 #
coedge $-1 $458 $196 $193 $312 forward $317 $-1 #
edge $-1 $319 -30.703743346789842 $462 -9.9213606215599768 $311 $463 forward 7 unknown #
coedge $-1 $464 $465 $194 $314 forward $306 $-1 #
edge $-1 $466 -57.412008723884654 $318 -53.453115253004889 $313 $467 forward 7 unknown #
edge $-1 $319 63.24951130574442 $466 68.024799620027764 $195 $468 forward 7 unknown #
coedge $-1 $196 $458 $464 $469 forward $317 $-1 #
loop $-1 $-1 $458 $305 #
vertex $-1 $314 $470 #
vertex $-1 $197 $471 #
straight-curve $-1 -51.016295330964752 48.709122947546362 13.955391339022505 0 -1 0 I I #
coedge $-1 $321 $321 $-1 $472 reversed $200 $-1 #
edge $-1 $473 0 $473 6.2831853071796004 $201 $474 forward 7 unknown #
vertex $-1 $204 $475 #
ellipse-curve $-1 -40.625103968349819 32.677246169907555 11.975944603582615 0 0.82903758062907751 0.55919289150049634 1 0 0 1 I I #
face $-1 $-1 $337 $42 $-1 $476 forward single #
loop $-1 $-1 $477 $205 #
plane-surface $-1 0 34.012399810013868 0 0 -1 0 0 0 -1 forward_v I I I I #
coedge $-1 $478 $479 $480 $481 reversed $206 $-1 #
coedge $-1 $482 $208 $210 $335 forward $128 $-1 #
coedge $-1 $208 $482 $478 $483 forward $128 $-1 #
coedge $-1 $480 $211 $208 $332 forward $337 $-1 #
edge $-1 $339 -6.7895307607481232 $484 13.992851964481741 $331 $485 forward 7 unknown #
coedge $-1 $486 $487 $209 $334 forward $326 $-1 #
edge $-1 $488 -57.412008723884654 $338 -53.453115253004889 $333 $489 forward 7 unknown #
edge $-1 $339 63.24951130574442 $488 68.024799620027764 $210 $490 forward 7 unknown #
coedge $-1 $211 $480 $486 $491 forward $337 $-1 #
loop $-1 $-1 $480 $325 #
vertex $-1 $334 $492 #
vertex $-1 $212 $493 #
straight-curve $-1 -3.1878701588813154 48.709122947546362 13.955391339022505 0 -1 0 I I #
coedge $-1 $341 $341 $-1 $494 reversed $215 $-1 #
edge $-1 $495 0 $495 6.2831853071796004 $216 $496 forward 7 unknown #
vertex $-1 $219 $497 #
ellipse-curve $-1 7.2033212037336156 32.677246169907555 11.975944603582615 0 0.82903758062907751 0.55919289150049634 1 0 0 1 I I #
face $-1 $-1 $231 $33 $-1 $498 reversed single #
loop $-1 $-1 $499 $220 #
plane-surface $-1 -61.182287057100133 0 0 1 0 0 0 0 -1 forward_v I I I I #
coedge $-1 $500 $353 $501 $502 forward $221 $-1 #
coedge $-1 $503 $223 $500 $504 forward $137 $-1 #
coedge $-1 $223 $503 $229 $362 forward $137 $-1 #
coedge $-1 $225 $224 $505 $506 forward $89 $-1 #
edge $-1 $232 -61.182287057100133 $507 61.182287057100133 $230 $508 forward 7 unknown #
coedge $-1 $348 $357 $225 $354 reversed $221 $-1 #
edge $-1 $509 -61.182287057100133 $355 61.182287057100133 $353 $510 forward 7 unknown #
vertex $-1 $226 $511 #
straight-curve $-1 61.182287057100133 0 13.955391339022505 0 1 0 I I #
coedge $-1 $353 $500 $227 $358 reversed $221 $-1 #
edge $-1 $355 -13.955391339022505 $359 13.955391339022505 $227 $512 forward 7 unknown #
vertex $-1 $358 $513 #
straight-curve $-1 61.182287057100133 0 -13.955391339022505 0 -1 0 I I #
coedge $-1 $230 $229 $499 $514 reversed $231 $-1 #
edge $-1 $515 -61.182287057100133 $233 61.182287057100133 $229 $516 forward 7 unknown #
point $-1 61.182287057100133 34.012399810013868 13.955391339022505 #
point $-1 61.182287057100133 34.012399810013868 -13.955391339022505 #
face $-1 $-1 $378 $34 $-1 $517 reversed single #
loop $-1 $-1 $374 $235 #
plane-surface $-1 -61.182287057100133 0 0 1 0 0 0 0 -1 forward_v I I I I #
coedge $-1 $518 $238 $371 $519 forward $145 $-1 #
coedge $-1 $238 $518 $520 $521 forward $145 $-1 #
edge $-1 $522 -34.012399810013868 $372 34.012399810013868 $238 $523 forward 7 unknown #
coedge $-1 $240 $381 $368 $519 reversed $236 $-1 #
vertex $-1 $519 $524 #
straight-curve $-1 -51.016295330964752 -34.012399810013868 -6.1166369079624765 0 0 1 I I #
coedge $-1 $525 $526 $242 $375 forward $366 $-1 #
edge $-1 $382 -34.012399810013868 $379 34.012399810013868 $374 $527 forward 7 unknown #
coedge $-1 $520 $243 $247 $384 forward $378 $-1 #
coedge $-1 $243 $520 $525 $528 reversed $378 $-1 #
loop $-1 $-1 $376 $365 #
vertex $-1 $528 $529 #
straight-curve $-1 -28.049645597016223 34.012399810013868 -10.511156292827401 1 0 0 I I #
coedge $-1 $371 $245 $526 $530 forward $236 $-1 #
vertex $-1 $530 $531 #
straight-curve $-1 -28.049645597016223 -34.012399810013868 -10.511156292827401 -1 0 0 I I #
edge $-1 $249 4.3945193848649247 $522 7.8387544310600283 $376 $532 forward 7 unknown #
point $-1 -51.016295330964752 -34.012399810013868 -10.511156292827401 #
point $-1 -51.016295330964752 34.012399810013868 -10.511156292827401 #
face $-1 $-1 $404 $35 $-1 $533 reversed single #
loop $-1 $-1 $534 $251 #
plane-surface $-1 77.724019100998134 0 1.3140486991864613 -1 0 0 0 0 1 forward_v I I I I #
coedge $-1 $262 $261 $535 $536 forward $252 $-1 #
coedge $-1 $400 $254 $255 $396 forward $153 $-1 #
coedge $-1 $254 $400 $403 $537 forward $153 $-1 #
coedge $-1 $534 $538 $254 $394 reversed $388 $-1 #
edge $-1 $539 -34.012399810013868 $540 34.012399810013868 $393 $541 forward 7 unknown #
coedge $-1 $256 $255 $538 $542 forward $97 $-1 #
edge $-1 $540 -8.27086602194899 $398 8.2708660219489971 $255 $543 forward 7 unknown #
edge $-1 $263 -8.2708660219489971 $544 8.27086602194899 $256 $545 forward 7 unknown #
vertex $-1 $396 $546 #
straight-curve $-1 61.182287057100133 34.012399810013868 0 0 0 1 I I #
coedge $-1 $392 $391 $258 $401 reversed $153 $-1 #
edge $-1 $405 -34.012399810013868 $398 34.012399810013868 $400 $547 forward 7 unknown #
coedge $-1 $548 $259 $262 $407 reversed $404 $-1 #
coedge $-1 $259 $548 $392 $537 reversed $404 $-1 #
loop $-1 $-1 $259 $387 #
vertex $-1 $260 $549 #
straight-curve $-1 61.182287057100133 -34.012399810013868 0 0 0 -1 I I #
edge $-1 $550 -8.27086602194899 $264 8.2708660219489971 $402 $551 forward 7 unknown #
point $-1 61.182287057100147 34.012399810013868 -1.1378871960095127 #
point $-1 61.182287057100147 -34.012399810013868 -1.1378871960095127 #
plane-surface $-1 0 -34.012399810013868 0 0 1 0 0 0 1 forward_v I I I I #
coedge $-1 $421 $420 $413 $552 forward $267 $-1 #
coedge $-1 $413 $269 $271 $417 reversed $161 $-1 #
coedge $-1 $269 $412 $411 $552 reversed $161 $-1 #
coedge $-1 $277 $272 $269 $415 forward $278 $-1 #
edge $-1 $418 -29.214451074001833 $553 -25.255557603122092 $414 $554 forward 7 unknown #
coedge $-1 $271 $270 $421 $555 reversed $101 $-1 #
edge $-1 $556 -4.7752883142833227 $418 -1.2809303928265426e-014 $412 $557 forward 7 unknown #
vertex $-1 $273 $558 #
straight-curve $-1 -20.31255198417491 -34.012399810013868 9.9964978681427716 1 0 0 I I #
coedge $-1 $411 $274 $277 $425 forward $267 $-1 #
coedge $-1 $274 $411 $416 $555 forward $267 $-1 #
vertex $-1 $275 $559 #
straight-curve $-1 -51.016295330964752 -67.72861514417896 13.955391339022505 0 -1 0 I I #
straight-curve $-1 -51.016295330964752 -34.012399810013875 9.9964978681427539 0 0.55919289150049634 0.82903758062907751 I I #
edge $-1 $279 -51.016295330964752 $553 -30.233912605734886 $277 $560 forward 7 unknown #
point $-1 -51.016295330964752 -34.012399810013868 13.955391339022505 #
point $-1 -51.016295330964752 -34.012399810013868 9.9964978681427645 #
edge $-1 $561 1 $561 0 $282 $-1 forward 7 unknown #
vertex $-1 $283 $562 #
ellipse-curve $-1 -40.625103968349819 -30.177887748250299 10.290106114038993 0 -0.82903758062907751 0.55919289150049634 1 0 0 1 I I #
point $-1 -39.625103968349819 -32.677246169907562 11.975944603582635 #
loop $-1 $-1 $294 $286 #
plane-surface $-1 0 0 13.955391339022505 0 0 1 1 0 0 forward_v I I I I #
coedge $-1 $435 $289 $291 $439 reversed $176 $-1 #
coedge $-1 $289 $434 $563 $564 reversed $176 $-1 #
coedge $-1 $297 $292 $289 $437 forward $287 $-1 #
edge $-1 $440 -29.214451074001833 $565 -25.255557603122092 $436 $566 forward 7 unknown #
coedge $-1 $291 $290 $443 $567 reversed $110 $-1 #
edge $-1 $568 -4.7752883142833227 $440 -1.2809303928265426e-014 $434 $569 forward 7 unknown #
vertex $-1 $293 $570 #
straight-curve $-1 3.6016606018668078 -34.012399810013868 9.9964978681427716 1 0 0 I I #
coedge $-1 $563 $294 $297 $447 forward $432 $-1 #
coedge $-1 $294 $563 $438 $567 forward $432 $-1 #
vertex $-1 $295 $571 #
straight-curve $-1 -3.1878701588813154 -67.72861514417896 13.955391339022505 0 -1 0 I I #
straight-curve $-1 -3.1878701588813154 -34.012399810013875 9.9964978681427539 0 0.55919289150049634 0.82903758062907751 I I #
edge $-1 $298 -3.1878701588813154 $565 17.594512566348548 $297 $572 forward 7 unknown #
point $-1 -3.1878701588813154 -34.012399810013868 13.955391339022505 #
point $-1 -3.1878701588813154 -34.012399810013868 9.9964978681427645 #
edge $-1 $573 1 $573 0 $301 $-1 forward 7 unknown #
vertex $-1 $302 $574 #
ellipse-curve $-1 7.2033212037336156 -30.177887748250299 10.290106114038993 0 -0.82903758062907751 0.55919289150049634 1 0 0 1 I I #
point $-1 8.2033212037336156 -32.677246169907562 11.975944603582635 #
plane-surface $-1 0 0 13.955391339022505 0 0 1 1 0 0 forward_v I I I I #
coedge $-1 $465 $464 $457 $575 forward $306 $-1 #
coedge $-1 $457 $308 $310 $461 reversed $191 $-1 #
coedge $-1 $308 $456 $455 $575 reversed $191 $-1 #
coedge $-1 $316 $311 $308 $459 forward $317 $-1 #
edge $-1 $462 -17.367030417745127 $576 -14.696723137532494 $458 $577 forward 7 unknown #
coedge $-1 $310 $309 $465 $578 reversed $119 $-1 #
edge $-1 $579 -68.024799620027764 $462 -63.24951130574442 $456 $580 forward 7 unknown #
vertex $-1 $312 $581 #
straight-curve $-1 -20.31255198417491 31.342092529801238 13.955391339022505 1 0 0 I I #
coedge $-1 $455 $313 $316 $469 reversed $306 $-1 #
coedge $-1 $313 $455 $460 $578 forward $306 $-1 #
vertex $-1 $314 $582 #
straight-curve $-1 -51.016295330964752 34.012399810013868 67.408506592027393 0 0 1 I I #
straight-curve $-1 -51.016295330964752 -4.0265845832513207 66.391613167908346 0 0.55919289150049634 -0.82903758062907751 I I #
edge $-1 $576 30.233912605734886 $318 51.016295330964752 $464 $583 forward 7 unknown #
point $-1 -51.016295330964752 34.012399810013868 13.955391339022505 #
point $-1 -51.016295330964752 31.342092529801235 13.955391339022505 #
edge $-1 $584 1 $584 0 $321 $-1 forward 7 unknown #
vertex $-1 $322 $585 #
ellipse-curve $-1 -40.625103968349819 30.177887748250299 10.290106114038975 0 0.82903758062907751 0.55919289150049634 1 0 0 1 I I #
point $-1 -39.625103968349819 32.677246169907562 11.975944603582617 #
plane-surface $-1 0 0 13.955391339022505 0 0 1 1 0 0 forward_v I I I I #
coedge $-1 $487 $486 $479 $586 forward $326 $-1 #
coedge $-1 $479 $328 $330 $483 reversed $206 $-1 #
coedge $-1 $328 $478 $477 $586 reversed $206 $-1 #
coedge $-1 $336 $331 $328 $481 forward $337 $-1 #
edge $-1 $484 -17.367030417745127 $587 -14.696723137532494 $480 $588 forward 7 unknown #
coedge $-1 $330 $329 $487 $589 reversed $128 $-1 #
edge $-1 $590 -68.024799620027764 $484 -63.24951130574442 $478 $591 forward 7 unknown #
vertex $-1 $332 $592 #
straight-curve $-1 3.6016606018668078 31.342092529801238 13.955391339022505 1 0 0 I I #
coedge $-1 $477 $333 $336 $491 reversed $326 $-1 #
coedge $-1 $333 $477 $482 $589 forward $326 $-1 #
vertex $-1 $334 $593 #
straight-curve $-1 -3.1878701588813154 34.012399810013868 67.408506592027393 0 0 1 I I #
straight-curve $-1 -3.1878701588813154 -4.0265845832513207 66.391613167908346 0 0.55919289150049634 -0.82903758062907751 I I #
edge $-1 $587 -17.594512566348548 $338 3.1878701588813154 $486 $594 forward 7 unknown #
point $-1 -3.1878701588813154 34.012399810013868 13.955391339022505 #
point $-1 -3.1878701588813154 31.342092529801235 13.955391339022505 #
edge $-1 $595 1 $595 0 $341 $-1 forward 7 unknown #
vertex $-1 $342 $596 #
ellipse-curve $-1 7.2033212037336156 30.177887748250299 10.290106114038975 0 0.82903758062907751 0.55919289150049634 1 0 0 1 I I #
point $-1 8.2033212037336156 32.677246169907562 11.975944603582617 #
plane-surface $-1 0 34.012399810013868 0 0 -1 0 0 0 -1 forward_v I I I I #
coedge $-1 $597 $505 $361 $514 forward $346 $-1 #
coedge $-1 $357 $348 $349 $504 reversed $221 $-1 #
coedge $-1 $505 $597 $348 $502 reversed $346 $-1 #
edge $-1 $509 -13.955391339022505 $598 13.955391339022505 $501 $599 forward 7 unknown #
coedge $-1 $350 $349 $597 $600 forward $137 $-1 #
edge $-1 $359 -61.182287057100133 $598 61.182287057100133 $500 $601 forward 7 unknown #
coedge $-1 $499 $501 $351 $506 reversed $346 $-1 #
edge $-1 $507 -34.012399810013868 $509 34.012399810013868 $505 $602 forward 7 unknown #
vertex $-1 $352 $603 #
straight-curve $-1 0 34.012399810013868 13.955391339022505 -1 0 0 I I #
vertex $-1 $506 $604 #
straight-curve $-1 0 -34.012399810013868 13.955391339022505 1 0 0 I I #
point $-1 61.182287057100133 -34.012399810013868 13.955391339022505 #
straight-curve $-1 61.182287057100133 -34.012399810013868 0 0 0 -1 I I #
point $-1 61.182287057100133 -34.012399810013868 -13.955391339022505 #
edge $-1 $507 -13.955391339022505 $515 13.955391339022505 $361 $605 forward 7 unknown #
vertex $-1 $362 $606 #
straight-curve $-1 0 34.012399810013868 -13.955391339022505 1 0 0 I I #
plane-surface $-1 0 34.012399810013868 0 0 -1 0 0 0 -1 forward_v I I I I #
coedge $-1 $369 $368 $607 $608 forward $145 $-1 #
edge $-1 $372 51.016295330964752 $609 61.182287057100133 $371 $610 forward 7 unknown #
coedge $-1 $377 $376 $369 $521 reversed $378 $-1 #
edge $-1 $611 -61.182287057100133 $522 -51.016295330964752 $520 $612 forward 7 unknown #
vertex $-1 $384 $613 #
straight-curve $-1 -51.016295330964752 0 -13.955391339022505 0 -1 0 I I #
point $-1 -51.016295330964752 -34.012399810013868 -13.955391339022505 #
coedge $-1 $607 $374 $377 $528 forward $366 $-1 #
coedge $-1 $374 $607 $381 $530 reversed $366 $-1 #
straight-curve $-1 -61.182287057100133 0 -10.511156292827401 0 1 0 I I #
edge $-1 $379 10.511156292827401 $611 13.955391339022505 $377 $614 forward 7 unknown #
point $-1 -61.18228705710014 34.012399810013868 -10.511156292827401 #
edge $-1 $382 10.511156292827401 $609 13.955391339022505 $526 $615 forward 7 unknown #
point $-1 -61.18228705710014 -34.012399810013868 -10.511156292827401 #
straight-curve $-1 -51.016295330964752 34.012399810013868 -6.1166369079624765 0 0 -1 I I #
plane-surface $-1 0 -34.012399810013868 0 0 1 0 0 0 1 forward_v I I I I #
coedge $-1 $535 $393 $548 $616 forward $388 $-1 #
coedge $-1 $538 $534 $390 $536 reversed $388 $-1 #
edge $-1 $544 -34.012399810013868 $550 34.012399810013868 $535 $617 forward 7 unknown #
edge $-1 $405 -8.2708660219489971 $539 8.27086602194899 $403 $618 forward 7 unknown #
coedge $-1 $393 $535 $395 $542 reversed $388 $-1 #
vertex $-1 $394 $619 #
vertex $-1 $394 $620 #
straight-curve $-1 77.724019100998134 0 3.7659845943824353 0 1 0 I I #
edge $-1 $540 -2.451935895195974 $544 2.451935895195974 $538 $621 forward 7 unknown #
straight-curve $-1 69.453153079049144 34.012399810013868 3.7659845943824353 -1 0 0 I I #
vertex $-1 $536 $622 #
straight-curve $-1 69.453153079049144 34.012399810013868 -1.1378871960095127 1 0 0 I I #
point $-1 61.182287057100147 34.012399810013868 3.7659845943824353 #
straight-curve $-1 61.182287057100133 0 3.7659845943824353 0 1 0 I I #
coedge $-1 $403 $402 $534 $616 reversed $404 $-1 #
point $-1 61.182287057100147 -34.012399810013868 3.7659845943824353 #
vertex $-1 $616 $623 #
straight-curve $-1 69.453153079049144 -34.012399810013868 -1.1378871960095127 -1 0 0 I I #
edge $-1 $553 33.716215334165092 $556 36.386522614377711 $411 $624 forward 7 unknown #
vertex $-1 $415 $625 #
straight-curve $-1 -30.233912605734886 -34.012399810013868 39.210948942144597 0 0 1 I I #
edge $-1 $556 9.9213606215599768 $422 30.703743346789842 $421 $626 forward 7 unknown #
vertex $-1 $555 $627 #
straight-curve $-1 -30.233912605734886 -34.012399810013875 9.9964978681427539 0 -0.55919289150049634 -0.82903758062907751 I I #
point $-1 -30.233912605734886 -34.012399810013868 9.9964978681427645 #
point $-1 -51.016295330964752 -31.342092529801253 13.955391339022505 #
straight-curve $-1 0 -34.012399810013868 13.955391339022505 1 0 0 I I #
vertex $-1 $428 $628 #
point $-1 -39.625103968349819 -30.177887748250299 10.290106114038993 #
coedge $-1 $443 $442 $435 $564 forward $432 $-1 #
edge $-1 $565 33.716215334165092 $568 36.386522614377711 $563 $629 forward 7 unknown #
vertex $-1 $564 $630 #
straight-curve $-1 17.594512566348548 -34.012399810013868 39.210948942144597 0 0 1 I I #
edge $-1 $568 -13.992851964481741 $444 6.7895307607481232 $443 $631 forward 7 unknown #
vertex $-1 $567 $632 #
straight-curve $-1 17.594512566348548 -34.012399810013875 9.9964978681427539 0 -0.55919289150049634 -0.82903758062907751 I I #
point $-1 17.594512566348548 -34.012399810013868 9.9964978681427645 #
point $-1 -3.1878701588813154 -31.342092529801253 13.955391339022505 #
straight-curve $-1 0 -34.012399810013868 13.955391339022505 1 0 0 I I #
vertex $-1 $450 $633 #
point $-1 8.2033212037336156 -30.177887748250299 10.290106114038993 #
edge $-1 $576 53.453115253004889 $579 57.412008723884654 $455 $634 forward 7 unknown #
vertex $-1 $469 $635 #
straight-curve $-1 -30.233912605734886 48.709122947546362 13.955391339022505 0 1 0 I I #
edge $-1 $579 9.9213606215599768 $466 30.703743346789842 $465 $636 forward 7 unknown #
vertex $-1 $578 $637 #
straight-curve $-1 -30.233912605734886 -4.0265845832513207 66.391613167908346 0 -0.55919289150049634 0.82903758062907751 I I #
point $-1 -30.233912605734886 31.342092529801235 13.955391339022505 #
point $-1 -51.016295330964752 34.012399810013868 9.9964978681427397 #
straight-curve $-1 0 34.012399810013868 13.955391339022505 -1 0 0 I I #
vertex $-1 $472 $638 #
point $-1 -39.625103968349819 30.177887748250299 10.290106114038975 #
edge $-1 $587 53.453115253004889 $590 57.412008723884654 $477 $639 forward 7 unknown #
vertex $-1 $491 $640 #
straight-curve $-1 17.594512566348548 48.709122947546362 13.955391339022505 0 1 0 I I #
edge $-1 $590 -13.992851964481741 $488 6.7895307607481232 $487 $641 forward 7 unknown #
vertex $-1 $589 $642 #
straight-curve $-1 17.594512566348548 -4.0265845832513207 66.391613167908346 0 -0.55919289150049634 0.82903758062907751 I I #
point $-1 17.594512566348548 31.342092529801235 13.955391339022505 #
point $-1 -3.1878701588813154 34.012399810013868 9.9964978681427397 #
straight-curve $-1 0 34.012399810013868 13.955391339022505 -1 0 0 I I #
vertex $-1 $494 $643 #
point $-1 8.2033212037336156 30.177887748250299 10.290106114038975 #
coedge $-1 $501 $499 $503 $600 reversed $346 $-1 #
vertex $-1 $600 $644 #
straight-curve $-1 -61.182287057100133 -34.012399810013868 0 0 0 -1 I I #
edge $-1 $598 -34.012399810013868 $515 34.012399810013868 $597 $645 forward 7 unknown #
straight-curve $-1 0 -34.012399810013868 -13.955391339022505 -1 0 0 I I #
straight-curve $-1 -61.182287057100133 0 13.955391339022505 0 -1 0 I I #
point $-1 -61.182287057100133 34.012399810013868 13.955391339022505 #
point $-1 -61.182287057100133 -34.012399810013868 13.955391339022505 #
straight-curve $-1 -61.182287057100133 34.012399810013868 0 0 0 -1 I I #
point $-1 -61.182287057100133 34.012399810013868 -13.955391339022505 #
coedge $-1 $526 $525 $518 $608 reversed $366 $-1 #
edge $-1 $609 -34.012399810013868 $611 34.012399810013868 $607 $646 forward 7 unknown #
vertex $-1 $608 $647 #
straight-curve $-1 0 -34.012399810013868 -13.955391339022505 -1 0 0 I I #
vertex $-1 $521 $648 #
straight-curve $-1 0 34.012399810013868 -13.955391339022505 1 0 0 I I #
point $-1 -51.016295330964752 34.012399810013868 -13.955391339022505 #
straight-curve $-1 -61.182287057100133 34.012399810013868 0 0 0 -1 I I #
straight-curve $-1 -61.182287057100133 -34.012399810013868 0 0 0 -1 I I #
edge $-1 $539 -2.451935895195974 $550 2.451935895195974 $534 $649 forward 7 unknown #
straight-curve $-1 77.724019100998134 0 -1.1378871960095127 0 -1 0 I I #
straight-curve $-1 69.453153079049144 -34.012399810013868 3.7659845943824353 1 0 0 I I #
point $-1 77.724019100998134 -34.012399810013868 3.7659845943824353 #
point $-1 77.724019100998134 34.012399810013868 3.7659845943824353 #
straight-curve $-1 77.724019100998134 34.012399810013868 1.3140486991864613 0 0 -1 I I #
point $-1 77.724019100998134 34.012399810013868 -1.1378871960095127 #
point $-1 77.724019100998134 -34.012399810013868 -1.1378871960095127 #
straight-curve $-1 -30.233912605734886 -67.72861514417896 13.955391339022505 0 1 0 I I #
point $-1 -30.233912605734886 -34.012399810013868 13.955391339022505 #
straight-curve $-1 -20.31255198417491 -31.342092529801256 13.955391339022505 -1 0 0 I I #
point $-1 -30.233912605734886 -31.342092529801253 13.955391339022505 #
point $-1 -40.625103968349819 -29.348850167621222 9.7309132225384953 #
straight-curve $-1 17.594512566348548 -67.72861514417896 13.955391339022505 0 1 0 I I #
point $-1 17.594512566348548 -34.012399810013868 13.955391339022505 #
straight-curve $-1 3.6016606018668078 -31.342092529801256 13.955391339022505 -1 0 0 I I #
point $-1 17.594512566348548 -31.342092529801253 13.955391339022505 #
point $-1 7.2033212037336156 -29.348850167621222 9.7309132225384953 #
straight-curve $-1 -30.233912605734886 34.012399810013868 67.408506592027393 0 0 -1 I I #
point $-1 -30.233912605734886 34.012399810013868 13.955391339022505 #
straight-curve $-1 -20.31255198417491 34.012399810013868 9.9964978681427361 -1 0 0 I I #
point $-1 -30.233912605734886 34.012399810013868 9.9964978681427397 #
point $-1 -40.625103968349819 29.348850167621222 9.7309132225384776 #
straight-curve $-1 17.594512566348548 34.012399810013868 67.408506592027393 0 0 -1 I I #
point $-1 17.594512566348548 34.012399810013868 13.955391339022505 #
straight-curve $-1 3.6016606018668078 34.012399810013868 9.9964978681427361 -1 0 0 I I #
point $-1 17.594512566348548 34.012399810013868 9.9964978681427397 #
point $-1 7.2033212037336156 29.348850167621222 9.7309132225384776 #
point $-1 -61.182287057100133 -34.012399810013868 -13.955391339022505 #
straight-curve $-1 -61.182287057100133 0 -13.955391339022505 0 1 0 I I #
straight-curve $-1 -61.182287057100133 0 -13.955391339022505 0 1 0 I I #
point $-1 -61.182287057100133 -34.012399810013868 -13.955391339022505 #
point $-1 -61.182287057100133 34.012399810013868 -13.955391339022505 #
straight-curve $-1 77.724019100998134 -34.012399810013868 1.3140486991864613 0 0 -1 I I #
End-of-ACIS-data 