500 0 6 0           
7 Unknown 11 ACIS 5.0 NT 24 Thu Mar 25 23:59:16 1999 
-1 9.9999999999999995e-007 1e-010 
body $-1 $6 $-1 $7 #
body $-1 $8 $-1 $9 #
body $-1 $10 $-1 $11 #
body $-1 $12 $-1 $13 #
body $-1 $14 $-1 $15 #
body $-1 $16 $-1 $17 #
lump $-1 $-1 $18 $0 #
transform $-1 1 0 0 0 1 0 0 0 1 51.82653279213843 27.450490042441462 10.721415647271998 1 rotate no_reflect no_shear #
lump $-1 $-1 $19 $1 #
transform $-1 1 0 0 0 1 0 0 0 1 51.82653279213843 27.450490042441462 10.721415647271998 1 rotate no_reflect no_shear #
lump $-1 $-1 $20 $2 #
transform $-1 1 0 0 0 1 0 0 0 1 51.82653279213843 27.450490042441462 10.721415647271998 1 rotate no_reflect no_shear #
lump $-1 $-1 $21 $3 #
transform $-1 1 0 0 0 1 0 0 0 1 51.82653279213843 27.450490042441462 10.721415647271998 1 rotate no_reflect no_shear #
lump $-1 $-1 $22 $4 #
transform $-1 1 0 0 0 1 0 0 0 1 51.82653279213843 27.450490042441462 10.721415647271998 1 rotate no_reflect no_shear #
lump $-1 $-1 $23 $5 #
transform $-1 1 0 0 0 1 0 0 0 1 51.82653279213843 27.450490042441462 10.721415647271998 1 rotate no_reflect no_shear #
shell $-1 $-1 $-1 $24 $-1 $6 #
shell $-1 $-1 $-1 $25 $-1 $8 #
shell $-1 $-1 $-1 $26 $-1 $10 #
shell $-1 $-1 $-1 $27 $-1 $12 #
shell $-1 $-1 $-1 $28 $-1 $14 #
shell $-1 $-1 $-1 $29 $-1 $16 #
face $-1 $30 $31 $18 $-1 $32 forward single #
face $-1 $33 $34 $19 $-1 $35 reversed single #
face $-1 $36 $37 $20 $-1 $38 forward single #
face $-1 $39 $40 $21 $-1 $41 forward single #
face $-1 $42 $43 $22 $-1 $44 reversed single #
face $-1 $45 $46 $23 $-1 $47 forward single #
face $-1 $48 $49 $18 $-1 $50 reversed single #
loop $-1 $-1 $51 $24 #
plane-surface $-1 0 0 10.721415647271998 0 0 1 1 0 0 forward_v I I I I #
face $-1 $52 $53 $19 $-1 $54 reversed single #
loop $-1 $-1 $55 $25 #
plane-surface $-1 -10.097271092509878 -109.1302212227499 71.530487033291266 -1 0 0 0 -0.78801076186113728 0.61566146476048833 forward_v I I I I #
face $-1 $56 $57 $20 $-1 $58 forward single #
loop $-1 $59 $60 $26 #
cone-surface $-1 -23.382608904417172 -25.835363677941874 8.8739579849366645 0 0.78801076186113728 -0.61566146476048833 0.5 0 0 1 I I 0 1 0.5 forward I I I I #
face $-1 $61 $62 $21 $-1 $63 forward single #
loop $-1 $64 $65 $27 #
cone-surface $-1 -15.411406217272798 -25.835363677941874 8.8739579849366645 0 0.78801076186113728 -0.61566146476048833 0.5 0 0 1 I I 0 1 0.5 forward I I I I #
face $-1 $66 $67 $22 $-1 $68 reversed single #
loop $-1 $-1 $69 $28 #
plane-surface $-1 -12.42312471938224 57.989677034352553 113.29373271052587 1 0 0 0 -0.68199836817093118 -0.7313536940579346 forward_v I I I I #
face $-1 $70 $71 $23 $-1 $72 forward single #
loop $-1 $73 $74 $29 #
cone-surface $-1 -0.70596606654736149 20.753927716281815 4.3408798631099419 0 -0.68199836817093118 -0.7313536940579346 2 0 0 1 I I 0 1 2 forward I I I I #
face $-1 $75 $76 $18 $-1 $77 reversed single #
loop $-1 $-1 $78 $30 #
plane-surface $-1 0 0 -10.721415647271998 0 0 1 1 0 0 forward_v I I I I #
coedge $-1 $79 $80 $81 $82 forward $31 $-1 #
face $-1 $83 $84 $19 $-1 $85 reversed single #
loop $-1 $-1 $86 $33 #
plane-surface $-1 -19.397007560844983 -27.450490042441459 7.7152888487604088 0 -0.78801076186113728 0.61566146476048833 1 0 0 forward_v I I I I #
coedge $-1 $87 $88 $89 $90 reversed $34 $-1 #
face $-1 $-1 $91 $20 $-1 $92 forward single #
loop $-1 $93 $94 $36 #
cone-surface $-1 -23.382608904417172 -25.197556420090692 8.3756483556669981 0 0.78801076186113728 -0.61566146476048833 0.25 0 0 1 I I -0.70710678118654746 0.70710678118654746 0.25 forward I I I I #
loop $-1 $-1 $95 $26 #
coedge $-1 $60 $60 $96 $97 reversed $37 $-1 #
face $-1 $-1 $98 $21 $-1 $99 forward single #
loop $-1 $100 $101 $39 #
cone-surface $-1 -15.411406217272798 -25.197556420090692 8.3756483556669981 0 0.78801076186113728 -0.61566146476048833 0.25 0 0 1 I I -0.70710678118654746 0.70710678118654746 0.25 forward I I I I #
loop $-1 $-1 $102 $27 #
coedge $-1 $65 $65 $103 $104 reversed $40 $-1 #
face $-1 $105 $106 $22 $-1 $107 reversed single #
loop $-1 $-1 $108 $42 #
plane-surface $-1 -0.70596606654735439 -12.701544550038776 37.486680295035626 0 0.68199836817093118 0.7313536940579346 1 0 0 forward_v I I I I #
coedge $-1 $109 $110 $111 $112 reversed $43 $-1 #
face $-1 $-1 $113 $23 $-1 $114 forward single #
loop $-1 $115 $116 $45 #
cone-surface $-1 -0.70596606654736149 19.100268475290921 2.5675474754456165 0 -0.68199836817093118 -0.7313536940579346 1 0 0 1 I I -0.70710678118654746 0.70710678118654746 1 forward I I I I #
loop $-1 $-1 $117 $29 #
coedge $-1 $74 $74 $118 $119 reversed $46 $-1 #
face $-1 $120 $121 $18 $-1 $122 reversed single #
loop $-1 $-1 $123 $48 #
plane-surface $-1 0 -27.450490042441462 0 0 1 0 0 0 1 forward_v I I I I #
coedge $-1 $124 $125 $126 $127 forward $49 $-1 #
coedge $-1 $128 $51 $129 $130 forward $31 $-1 #
coedge $-1 $51 $128 $131 $132 forward $31 $-1 #
coedge $-1 $133 $134 $51 $82 reversed $135 $-1 #
edge $-1 $136 -27.450490042441462 $137 27.450490042441462 $81 $138 forward 7 unknown #
face $-1 $139 $140 $19 $-1 $141 reversed single #
loop $-1 $-1 $142 $52 #
plane-surface $-1 -28.696744029180088 -109.1302212227499 71.530487033291266 1 0 0 0 0.78801076186113728 -0.61566146476048833 forward_v I I I I #
coedge $-1 $143 $144 $145 $146 reversed $53 $-1 #
coedge $-1 $88 $55 $147 $148 reversed $34 $-1 #
coedge $-1 $55 $87 $143 $149 reversed $34 $-1 #
coedge $-1 $145 $150 $55 $90 forward $151 $-1 #
edge $-1 $152 27.114620568933486 $153 29.463264163160876 $89 $154 forward 7 unknown #
loop $-1 $-1 $96 $56 #
plane-surface $-1 -19.397007560844983 -27.450490042441459 7.7152888487604088 0 -0.78801076186113728 0.61566146476048833 1 0 0 forward_v I I I I #
loop $-1 $-1 $155 $36 #
coedge $-1 $94 $94 $95 $156 reversed $57 $-1 #
coedge $-1 $95 $95 $94 $156 forward $59 $-1 #
coedge $-1 $96 $96 $60 $97 forward $91 $-1 #
edge $-1 $157 -3.1499224040476249e-015 $157 6.2831853071795969 $96 $158 forward 7 unknown #
loop $-1 $-1 $103 $61 #
plane-surface $-1 -19.397007560844983 -27.450490042441459 7.7152888487604088 0 -0.78801076186113728 0.61566146476048833 1 0 0 forward_v I I I I #
loop $-1 $-1 $159 $39 #
coedge $-1 $101 $101 $102 $160 reversed $62 $-1 #
coedge $-1 $102 $102 $101 $160 forward $64 $-1 #
coedge $-1 $103 $103 $65 $104 forward $98 $-1 #
edge $-1 $161 -3.1499224040476249e-015 $161 6.2831853071795969 $103 $162 forward 7 unknown #
face $-1 $163 $164 $22 $-1 $165 reversed single #
loop $-1 $-1 $166 $66 #
plane-surface $-1 11.011192586287532 57.989677034352553 113.29373271052587 -1 0 0 0 0.68199836817093118 0.7313536940579346 forward_v I I I I #
coedge $-1 $167 $168 $169 $170 reversed $67 $-1 #
coedge $-1 $110 $69 $171 $172 reversed $43 $-1 #
coedge $-1 $69 $109 $167 $173 reversed $43 $-1 #
coedge $-1 $169 $174 $69 $112 forward $175 $-1 #
edge $-1 $176 1.5443484747348144 $177 12.994151381414202 $111 $178 forward 7 unknown #
loop $-1 $-1 $118 $70 #
plane-surface $-1 -0.70596606654735439 -12.701544550038776 37.486680295035626 0 0.68199836817093118 0.7313536940579346 1 0 0 forward_v I I I I #
loop $-1 $-1 $179 $45 #
coedge $-1 $116 $116 $117 $180 reversed $71 $-1 #
coedge $-1 $117 $117 $116 $180 forward $73 $-1 #
coedge $-1 $118 $118 $74 $119 forward $113 $-1 #
edge $-1 $181 7.8108157428053546e-016 $181 6.2831853071796013 $118 $182 forward 7 unknown #
face $-1 $183 $184 $18 $-1 $185 reversed single #
loop $-1 $-1 $186 $75 #
plane-surface $-1 -51.82653279213843 0 0 1 0 0 0 0 -1 forward_v I I I I #
coedge $-1 $187 $131 $188 $189 forward $76 $-1 #
coedge $-1 $190 $78 $187 $191 forward $49 $-1 #
coedge $-1 $78 $190 $192 $193 forward $49 $-1 #
coedge $-1 $134 $133 $78 $127 reversed $135 $-1 #
edge $-1 $194 -27.450490042441462 $195 27.450490042441462 $126 $196 forward 7 unknown #
coedge $-1 $80 $79 $197 $198 forward $31 $-1 #
coedge $-1 $199 $200 $79 $130 reversed $184 $-1 #
edge $-1 $137 -51.82653279213843 $201 51.82653279213843 $129 $202 forward 7 unknown #
coedge $-1 $123 $203 $80 $132 reversed $76 $-1 #
edge $-1 $204 -51.82653279213843 $136 51.82653279213843 $131 $205 forward 7 unknown #
coedge $-1 $126 $81 $203 $206 forward $135 $-1 #
coedge $-1 $81 $126 $199 $207 reversed $135 $-1 #
loop $-1 $-1 $133 $183 #
vertex $-1 $82 $208 #
vertex $-1 $82 $209 #
straight-curve $-1 51.82653279213843 0 10.721415647271998 0 1 0 I I #
face $-1 $-1 $151 $19 $-1 $210 forward single #
loop $-1 $-1 $211 $83 #
plane-surface $-1 0 -27.450490042441462 0 0 1 0 0 0 1 forward_v I I I I #
coedge $-1 $212 $213 $214 $215 reversed $84 $-1 #
coedge $-1 $216 $86 $88 $149 forward $53 $-1 #
coedge $-1 $86 $216 $212 $217 forward $53 $-1 #
coedge $-1 $214 $89 $86 $146 forward $151 $-1 #
edge $-1 $153 0.39876731208738647 $218 18.998240248757597 $145 $219 forward 7 unknown #
coedge $-1 $220 $221 $87 $148 forward $140 $-1 #
edge $-1 $222 -28.049954667885228 $152 -25.043827869373636 $147 $223 forward 7 unknown #
edge $-1 $153 -3.8148296241686701 $222 5.6867396732475225e-015 $88 $224 forward 7 unknown #
coedge $-1 $89 $214 $220 $225 forward $151 $-1 #
loop $-1 $-1 $214 $139 #
vertex $-1 $148 $226 #
vertex $-1 $90 $227 #
straight-curve $-1 -10.097271092509878 -54.565110611374948 10.721415647271996 0 1 0 I I #
coedge $-1 $155 $155 $-1 $228 reversed $93 $-1 #
edge $-1 $229 0 $229 6.2831853071796004 $94 $230 forward 7 unknown #
vertex $-1 $97 $231 #
ellipse-curve $-1 -23.382608904417172 -26.276168245327767 9.2183522480162026 0 -0.78801076186113728 0.61566146476048833 0.5 0 0 1 I I #
coedge $-1 $159 $159 $-1 $232 reversed $100 $-1 #
edge $-1 $233 0 $233 6.2831853071796004 $101 $234 forward 7 unknown #
vertex $-1 $104 $235 #
ellipse-curve $-1 -15.411406217272798 -26.276168245327767 9.2183522480162026 0 -0.78801076186113728 0.61566146476048833 0.5 0 0 1 I I #
face $-1 $-1 $175 $22 $-1 $236 forward single #
loop $-1 $-1 $237 $105 #
plane-surface $-1 0 27.450490042441462 0 0 -1 0 0 0 -1 forward_v I I I I #
coedge $-1 $238 $239 $240 $241 reversed $106 $-1 #
coedge $-1 $242 $108 $110 $173 forward $67 $-1 #
coedge $-1 $108 $242 $238 $243 forward $67 $-1 #
coedge $-1 $240 $111 $108 $170 forward $175 $-1 #
edge $-1 $177 -12.070141686108563 $244 11.364175619561209 $169 $245 forward 7 unknown #
coedge $-1 $246 $247 $109 $172 forward $164 $-1 #
edge $-1 $248 -56.602564889102261 $176 -45.92545070799094 $171 $249 forward 7 unknown #
edge $-1 $177 39.245349984555062 $248 54.900980084882931 $110 $250 forward 7 unknown #
coedge $-1 $111 $240 $246 $251 forward $175 $-1 #
loop $-1 $-1 $240 $163 #
vertex $-1 $172 $252 #
vertex $-1 $112 $253 #
straight-curve $-1 -12.42312471938224 28.994838517176277 10.721415647271996 0 -1 0 I I #
coedge $-1 $179 $179 $-1 $254 reversed $115 $-1 #
edge $-1 $255 0 $255 6.2831853071796004 $116 $256 forward 7 unknown #
vertex $-1 $119 $257 #
ellipse-curve $-1 -0.70596606654736149 21.725588589101772 5.382858556716327 0 0.68199836817093118 0.7313536940579346 2 0 0 1 I I #
face $-1 $-1 $135 $18 $-1 $258 reversed single #
loop $-1 $-1 $199 $120 #
plane-surface $-1 0 27.450490042441462 0 0 -1 0 0 0 -1 forward_v I I I I #
coedge $-1 $259 $197 $200 $260 forward $121 $-1 #
coedge $-1 $203 $123 $124 $191 reversed $76 $-1 #
coedge $-1 $197 $259 $123 $189 reversed $121 $-1 #
edge $-1 $204 -10.721415647271998 $261 10.721415647271998 $188 $262 forward 7 unknown #
coedge $-1 $125 $124 $259 $263 forward $49 $-1 #
edge $-1 $195 -51.82653279213843 $261 51.82653279213843 $187 $264 forward 7 unknown #
coedge $-1 $200 $199 $125 $193 reversed $184 $-1 #
edge $-1 $265 -51.82653279213843 $194 51.82653279213843 $192 $266 forward 7 unknown #
vertex $-1 $127 $267 #
vertex $-1 $206 $268 #
straight-curve $-1 51.82653279213843 0 -10.721415647271998 0 -1 0 I I #
coedge $-1 $186 $188 $128 $198 reversed $121 $-1 #
edge $-1 $201 -27.450490042441462 $204 27.450490042441462 $197 $269 forward 7 unknown #
coedge $-1 $192 $129 $134 $207 forward $184 $-1 #
coedge $-1 $129 $192 $186 $260 reversed $184 $-1 #
vertex $-1 $130 $270 #
straight-curve $-1 0 27.450490042441462 10.721415647271998 -1 0 0 I I #
coedge $-1 $131 $187 $133 $206 reversed $76 $-1 #
vertex $-1 $198 $271 #
straight-curve $-1 0 -27.450490042441462 10.721415647271998 1 0 0 I I #
edge $-1 $136 -10.721415647271998 $195 10.721415647271998 $133 $272 forward 7 unknown #
edge $-1 $137 -10.721415647271998 $194 10.721415647271998 $134 $273 forward 7 unknown #
point $-1 51.82653279213843 -27.450490042441462 10.721415647271998 #
point $-1 51.82653279213843 27.450490042441462 10.721415647271998 #
plane-surface $-1 0 0 10.721415647271998 0 0 1 1 0 0 forward_v I I I I #
coedge $-1 $221 $220 $213 $274 forward $140 $-1 #
coedge $-1 $213 $142 $144 $217 reversed $84 $-1 #
coedge $-1 $142 $212 $211 $274 reversed $84 $-1 #
coedge $-1 $150 $145 $142 $215 forward $151 $-1 #
edge $-1 $218 -29.463264163160876 $275 -27.114620568933486 $214 $276 forward 7 unknown #
coedge $-1 $144 $143 $221 $277 reversed $53 $-1 #
edge $-1 $278 -5.6867396732475225e-015 $218 3.8148296241686701 $212 $279 forward 7 unknown #
vertex $-1 $146 $280 #
straight-curve $-1 -9.6985037804224916 -25.101846448214069 10.721415647271996 -1 0 0 I I #
coedge $-1 $211 $147 $150 $225 reversed $140 $-1 #
coedge $-1 $147 $211 $216 $277 forward $140 $-1 #
vertex $-1 $148 $281 #
straight-curve $-1 -10.097271092509878 -27.450490042441459 35.765243516645633 0 0 1 I I #
straight-curve $-1 -10.097271092509878 -27.450490042441459 7.7152888487604088 0 -0.61566146476048833 -0.78801076186113728 I I #
edge $-1 $275 -28.696744029180088 $152 -10.097271092509878 $220 $282 forward 7 unknown #
point $-1 -10.097271092509878 -27.450490042441462 10.721415647271998 #
point $-1 -10.097271092509878 -25.101846448214072 10.721415647271998 #
edge $-1 $283 1 $283 0 $155 $-1 forward 7 unknown #
vertex $-1 $156 $284 #
ellipse-curve $-1 -23.382608904417172 -25.394559110555974 8.5295637218571194 0 -0.78801076186113728 0.61566146476048833 0.5 0 0 1 I I #
point $-1 -22.882608904417172 -26.276168245327774 9.2183522480162061 #
edge $-1 $285 1 $285 0 $159 $-1 forward 7 unknown #
vertex $-1 $160 $286 #
ellipse-curve $-1 -15.411406217272798 -25.394559110555974 8.5295637218571194 0 -0.78801076186113728 0.61566146476048833 0.5 0 0 1 I I #
point $-1 -14.911406217272798 -26.276168245327774 9.2183522480162061 #
plane-surface $-1 0 0 10.721415647271998 0 0 1 1 0 0 forward_v I I I I #
coedge $-1 $247 $246 $239 $287 forward $164 $-1 #
coedge $-1 $239 $166 $168 $243 reversed $106 $-1 #
coedge $-1 $166 $238 $237 $287 reversed $106 $-1 #
coedge $-1 $174 $169 $166 $241 forward $175 $-1 #
edge $-1 $244 -12.994151381414202 $288 -1.5443484747348144 $240 $289 forward 7 unknown #
coedge $-1 $168 $167 $247 $290 reversed $67 $-1 #
edge $-1 $291 -54.900980084882931 $244 -39.245349984555062 $238 $292 forward 7 unknown #
vertex $-1 $170 $293 #
straight-curve $-1 -0.35298303327367719 16.000687135762075 10.721415647271996 1 0 0 I I #
coedge $-1 $237 $171 $174 $251 reversed $164 $-1 #
coedge $-1 $171 $237 $242 $290 forward $164 $-1 #
vertex $-1 $172 $294 #
straight-curve $-1 -12.42312471938224 27.450490042441462 56.646866355262937 0 0 1 I I #
straight-curve $-1 -12.42312471938224 -12.701544550038776 37.486680295035626 0 0.7313536940579346 -0.68199836817093118 I I #
edge $-1 $288 -11.011192586287532 $176 12.42312471938224 $246 $295 forward 7 unknown #
point $-1 -12.42312471938224 27.450490042441462 10.721415647271998 #
point $-1 -12.42312471938224 16.000687135762075 10.721415647271993 #
edge $-1 $296 1 $296 0 $179 $-1 forward 7 unknown #
vertex $-1 $180 $297 #
ellipse-curve $-1 -0.70596606654736149 19.782266843461851 3.2989011695035511 0 0.68199836817093118 0.7313536940579346 2 0 0 1 I I #
point $-1 1.2940339334526385 21.725588589101779 5.3828585567163323 #
plane-surface $-1 51.82653279213843 0 0 -1 0 0 0 0 1 forward_v I I I I #
coedge $-1 $188 $186 $190 $263 reversed $121 $-1 #
edge $-1 $201 -10.721415647271998 $265 10.721415647271998 $200 $298 forward 7 unknown #
vertex $-1 $263 $299 #
straight-curve $-1 -51.82653279213843 -27.450490042441462 0 0 0 -1 I I #
edge $-1 $261 -27.450490042441462 $265 27.450490042441462 $259 $300 forward 7 unknown #
straight-curve $-1 0 -27.450490042441462 -10.721415647271998 -1 0 0 I I #
vertex $-1 $193 $301 #
straight-curve $-1 0 27.450490042441462 -10.721415647271998 1 0 0 I I #
point $-1 51.82653279213843 27.450490042441462 -10.721415647271998 #
point $-1 51.82653279213843 -27.450490042441462 -10.721415647271998 #
straight-curve $-1 -51.82653279213843 0 10.721415647271998 0 -1 0 I I #
point $-1 -51.82653279213843 27.450490042441462 10.721415647271998 #
point $-1 -51.82653279213843 -27.450490042441462 10.721415647271998 #
straight-curve $-1 51.82653279213843 -27.450490042441462 0 0 0 -1 I I #
straight-curve $-1 51.82653279213843 27.450490042441462 0 0 0 -1 I I #
edge $-1 $275 25.043827869373636 $278 28.049954667885228 $211 $302 forward 7 unknown #
vertex $-1 $225 $303 #
straight-curve $-1 -28.696744029180088 -54.565110611374948 10.721415647271996 0 -1 0 I I #
edge $-1 $278 -18.998240248757597 $222 -0.39876731208738647 $221 $304 forward 7 unknown #
vertex $-1 $277 $305 #
straight-curve $-1 -28.696744029180088 -27.450490042441459 7.7152888487604088 0 0.61566146476048833 0.78801076186113728 I I #
point $-1 -28.696744029180088 -25.101846448214072 10.721415647271998 #
point $-1 -10.097271092509878 -27.450490042441462 7.7152888487604043 #
straight-curve $-1 0 -27.450490042441462 10.721415647271998 1 0 0 I I #
vertex $-1 $228 $306 #
point $-1 -22.882608904417172 -25.394559110555974 8.5295637218571194 #
vertex $-1 $232 $307 #
point $-1 -14.911406217272798 -25.394559110555974 8.5295637218571194 #
edge $-1 $288 45.92545070799094 $291 56.602564889102261 $237 $308 forward 7 unknown #
vertex $-1 $251 $309 #
straight-curve $-1 11.011192586287532 28.994838517176277 10.721415647271996 0 1 0 I I #
edge $-1 $291 -11.364175619561209 $248 12.070141686108563 $247 $310 forward 7 unknown #
vertex $-1 $290 $311 #
straight-curve $-1 11.011192586287532 -12.701544550038776 37.486680295035626 0 -0.7313536940579346 0.68199836817093118 I I #
point $-1 11.011192586287532 16.000687135762075 10.721415647271993 #
point $-1 -12.42312471938224 27.450490042441459 0.044301466160675318 #
straight-curve $-1 0 27.450490042441462 10.721415647271998 -1 0 0 I I #
vertex $-1 $254 $312 #
point $-1 1.2940339334526385 19.782266843461851 3.2989011695035511 #
straight-curve $-1 -51.82653279213843 27.450490042441462 0 0 0 -1 I I #
point $-1 -51.82653279213843 -27.450490042441462 -10.721415647271998 #
straight-curve $-1 -51.82653279213843 0 -10.721415647271998 0 1 0 I I #
point $-1 -51.82653279213843 27.450490042441462 -10.721415647271998 #
straight-curve $-1 -28.696744029180088 -27.450490042441459 35.765243516645633 0 0 -1 I I #
point $-1 -28.696744029180088 -27.450490042441462 10.721415647271998 #
straight-curve $-1 -9.6985037804224916 -27.450490042441462 7.7152888487604034 1 0 0 I I #
point $-1 -28.696744029180088 -27.450490042441462 7.7152888487604043 #
point $-1 -23.382608904417172 -25.000553729625409 8.2217329894768767 #
point $-1 -15.411406217272798 -25.000553729625409 8.2217329894768767 #
straight-curve $-1 11.011192586287532 27.450490042441462 56.646866355262937 0 0 -1 I I #
point $-1 11.011192586287532 27.450490042441462 10.721415647271998 #
straight-curve $-1 -0.35298303327367719 27.450490042441462 0.044301466160671765 -1 0 0 I I #
point $-1 11.011192586287532 27.450490042441459 0.044301466160675318 #
point $-1 -0.70596606654736149 18.418270107119991 1.8361937813876819 #
End-of-ACIS-data 