500 0 18 0           
7 Unknown 11 ACIS 5.0 NT 24 Fri Mar 26 01:31:41 1999 
-1 9.9999999999999995e-007 1e-010 
body $-1 $18 $-1 $19 #
body $-1 $20 $-1 $21 #
body $-1 $22 $-1 $23 #
body $-1 $24 $-1 $25 #
body $-1 $26 $-1 $27 #
body $-1 $28 $-1 $29 #
body $-1 $30 $-1 $31 #
body $-1 $32 $-1 $33 #
body $-1 $34 $-1 $35 #
body $-1 $36 $-1 $37 #
body $-1 $38 $-1 $39 #
body $-1 $40 $-1 $41 #
body $-1 $42 $-1 $43 #
body $-1 $44 $-1 $45 #
body $-1 $46 $-1 $47 #
body $-1 $48 $-1 $49 #
body $-1 $50 $-1 $51 #
body $-1 $52 $-1 $53 #
lump $-1 $-1 $54 $0 #
transform $-1 1 0 0 0 1 0 0 0 1 74.828943754387041 31.431947265438776 14.437668846625948 1 rotate no_reflect no_shear #
lump $-1 $-1 $55 $1 #
transform $-1 1 0 0 0 1 0 0 0 1 -7.7031773019092791 24.969231608098429 14.437668846625948 1 rotate no_reflect no_shear #
lump $-1 $-1 $56 $2 #
transform $-1 1 0 0 0 0.69465836192734942 0.71933980857756763 0 -0.71933980857756763 0.69465836192734942 25.232975183036835 -107.65487615268469 119.22883795185651 1 rotate no_reflect no_shear #
lump $-1 $-1 $57 $3 #
transform $-1 1 0 0 0 -0.69465836192734942 -0.71933980857756763 0 0.71933980857756763 -0.69465836192734942 25.232975183036835 12.774899036961841 16.079877408430967 1 rotate no_reflect no_shear #
lump $-1 $-1 $58 $4 #
transform $-1 1 0 0 0 0.69465836192734942 0.71933980857756763 0 -0.71933980857756763 0.69465836192734942 92.358741635514605 -107.65487615268469 119.22883795185651 1 rotate no_reflect no_shear #
lump $-1 $-1 $59 $5 #
transform $-1 1 0 0 0 -0.69465836192734942 -0.71933980857756763 0 0.71933980857756763 -0.69465836192734942 92.358741635514605 12.774899036961841 16.079877408430967 1 rotate no_reflect no_shear #
lump $-1 $-1 $60 $6 #
transform $-1 1 0 0 0 0.69465836192734942 -0.71933980857756763 0 0.71933980857756763 0.69465836192734942 33.013094680780512 126.84984068436918 166.64178947064002 1 rotate no_reflect no_shear #
lump $-1 $-1 $61 $7 #
transform $-1 1 0 0 0 -0.69465836192734942 0.71933980857756763 0 -0.71933980857756763 -0.69465836192734942 29.911012981042813 54.46572617468788 20.38037213760753 1 rotate no_reflect no_shear #
lump $-1 $-1 $62 $8 #
transform $-1 1 0 0 0 -0.69465836192734942 0.71933980857756763 0 -0.71933980857756763 -0.69465836192734942 36.1151763805182 54.46572617468788 20.38037213760753 1 rotate no_reflect no_shear #
lump $-1 $-1 $63 $9 #
transform $-1 1 0 0 0 0.69465836192734942 -0.71933980857756763 0 0.71933980857756763 0.69465836192734942 66.025778931124393 126.84984068436918 166.64178947064002 1 rotate no_reflect no_shear #
lump $-1 $-1 $64 $10 #
transform $-1 1 0 0 0 -0.69465836192734942 0.71933980857756763 0 -0.71933980857756763 -0.69465836192734942 62.923697231386697 54.46572617468788 20.38037213760753 1 rotate no_reflect no_shear #
lump $-1 $-1 $65 $11 #
transform $-1 1 0 0 0 -0.69465836192734942 0.71933980857756763 0 -0.71933980857756763 -0.69465836192734942 69.127860630862074 54.46572617468788 20.38037213760753 1 rotate no_reflect no_shear #
lump $-1 $-1 $66 $12 #
transform $-1 1 0 0 0 0.69465836192734942 -0.71933980857756763 0 0.71933980857756763 0.69465836192734942 99.038463181468273 126.84984068436918 166.64178947064002 1 rotate no_reflect no_shear #
lump $-1 $-1 $67 $13 #
transform $-1 1 0 0 0 -0.69465836192734942 0.71933980857756763 0 -0.71933980857756763 -0.69465836192734942 95.936381481730578 54.46572617468788 20.38037213760753 1 rotate no_reflect no_shear #
lump $-1 $-1 $68 $14 #
transform $-1 1 0 0 0 -0.69465836192734942 0.71933980857756763 0 -0.71933980857756763 -0.69465836192734942 102.14054488120595 54.46572617468788 20.38037213760753 1 rotate no_reflect no_shear #
lump $-1 $-1 $69 $15 #
transform $-1 1 0 0 0 0.69465836192734942 -0.71933980857756763 0 0.71933980857756763 0.69465836192734942 132.05114743181215 126.84984068436918 166.64178947064002 1 rotate no_reflect no_shear #
lump $-1 $-1 $70 $16 #
transform $-1 1 0 0 0 -0.69465836192734942 0.71933980857756763 0 -0.71933980857756763 -0.69465836192734942 128.94906573207447 54.46572617468788 20.38037213760753 1 rotate no_reflect no_shear #
lump $-1 $-1 $71 $17 #
transform $-1 1 0 0 0 -0.69465836192734942 0.71933980857756763 0 -0.71933980857756763 -0.69465836192734942 135.15322913154984 54.46572617468788 20.38037213760753 1 rotate no_reflect no_shear #
shell $-1 $-1 $-1 $72 $-1 $18 #
shell $-1 $-1 $-1 $73 $-1 $20 #
shell $-1 $-1 $-1 $74 $-1 $22 #
shell $-1 $-1 $-1 $75 $-1 $24 #
shell $-1 $-1 $-1 $76 $-1 $26 #
shell $-1 $-1 $-1 $77 $-1 $28 #
shell $-1 $-1 $-1 $78 $-1 $30 #
shell $-1 $-1 $-1 $79 $-1 $32 #
shell $-1 $-1 $-1 $80 $-1 $34 #
shell $-1 $-1 $-1 $81 $-1 $36 #
shell $-1 $-1 $-1 $82 $-1 $38 #
shell $-1 $-1 $-1 $83 $-1 $40 #
shell $-1 $-1 $-1 $84 $-1 $42 #
shell $-1 $-1 $-1 $85 $-1 $44 #
shell $-1 $-1 $-1 $86 $-1 $46 #
shell $-1 $-1 $-1 $87 $-1 $48 #
shell $-1 $-1 $-1 $88 $-1 $50 #
shell $-1 $-1 $-1 $89 $-1 $52 #
face $-1 $90 $91 $54 $-1 $92 forward single #
face $-1 $93 $94 $55 $-1 $95 forward single #
face $-1 $96 $97 $56 $-1 $98 forward single #
face $-1 $99 $100 $57 $-1 $101 forward single #
face $-1 $102 $103 $58 $-1 $104 forward single #
face $-1 $105 $106 $59 $-1 $107 forward single #
face $-1 $108 $109 $60 $-1 $110 forward single #
face $-1 $111 $112 $61 $-1 $113 forward single #
face $-1 $114 $115 $62 $-1 $116 forward single #
face $-1 $117 $118 $63 $-1 $119 forward single #
face $-1 $120 $121 $64 $-1 $122 forward single #
face $-1 $123 $124 $65 $-1 $125 forward single #
face $-1 $126 $127 $66 $-1 $128 forward single #
face $-1 $129 $130 $67 $-1 $131 forward single #
face $-1 $132 $133 $68 $-1 $134 forward single #
face $-1 $135 $136 $69 $-1 $137 forward single #
face $-1 $138 $139 $70 $-1 $140 forward single #
face $-1 $141 $142 $71 $-1 $143 forward single #
face $-1 $144 $145 $54 $-1 $146 reversed single #
loop $-1 $-1 $147 $72 #
plane-surface $-1 0 0 14.437668846625948 0 0 1 1 0 0 forward_v I I I I #
face $-1 $148 $149 $55 $-1 $150 reversed single #
loop $-1 $-1 $151 $73 #
plane-surface $-1 0 0 14.437668846625948 0 0 1 1 0 0 forward_v I I I I #
face $-1 $152 $153 $56 $-1 $154 reversed single #
loop $-1 $-1 $155 $74 #
plane-surface $-1 0 0 149.65788750877408 0 0 1 1 0 0 forward_v I I I I #
face $-1 $156 $157 $57 $-1 $158 forward single #
loop $-1 $159 $160 $75 #
cone-surface $-1 0 0 -4.9376659443952757 0 0 1 2.5 0 0 1 I I 0 1 2.5 forward I I I I #
face $-1 $161 $162 $58 $-1 $163 reversed single #
loop $-1 $-1 $164 $76 #
plane-surface $-1 0 0 149.65788750877408 0 0 1 1 0 0 forward_v I I I I #
face $-1 $165 $166 $59 $-1 $167 forward single #
loop $-1 $168 $169 $77 #
cone-surface $-1 0 0 -4.9376659443952757 0 0 1 2.5 0 0 1 I I 0 1 2.5 forward I I I I #
face $-1 $170 $171 $60 $-1 $172 reversed single #
loop $-1 $-1 $173 $78 #
plane-surface $-1 0 0 149.65788750877408 0 0 1 1 0 0 forward_v I I I I #
face $-1 $174 $175 $61 $-1 $176 forward single #
loop $-1 $177 $178 $79 #
cone-surface $-1 0 0 -2.5063020722067932 0 0 1 2 0 0 1 I I 0 1 2 forward I I I I #
face $-1 $179 $180 $62 $-1 $181 forward single #
loop $-1 $182 $183 $80 #
cone-surface $-1 0 0 -2.5063020722067932 0 0 1 2 0 0 1 I I 0 1 2 forward I I I I #
face $-1 $184 $185 $63 $-1 $186 reversed single #
loop $-1 $-1 $187 $81 #
plane-surface $-1 0 0 149.65788750877408 0 0 1 1 0 0 forward_v I I I I #
face $-1 $188 $189 $64 $-1 $190 forward single #
loop $-1 $191 $192 $82 #
cone-surface $-1 0 0 -2.5063020722067932 0 0 1 2 0 0 1 I I 0 1 2 forward I I I I #
face $-1 $193 $194 $65 $-1 $195 forward single #
loop $-1 $196 $197 $83 #
cone-surface $-1 0 0 -2.5063020722067932 0 0 1 2 0 0 1 I I 0 1 2 forward I I I I #
face $-1 $198 $199 $66 $-1 $200 reversed single #
loop $-1 $-1 $201 $84 #
plane-surface $-1 0 0 149.65788750877408 0 0 1 1 0 0 forward_v I I I I #
face $-1 $202 $203 $67 $-1 $204 forward single #
loop $-1 $205 $206 $85 #
cone-surface $-1 0 0 -2.5063020722067932 0 0 1 2 0 0 1 I I 0 1 2 forward I I I I #
face $-1 $207 $208 $68 $-1 $209 forward single #
loop $-1 $210 $211 $86 #
cone-surface $-1 0 0 -2.5063020722067932 0 0 1 2 0 0 1 I I 0 1 2 forward I I I I #
face $-1 $212 $213 $69 $-1 $214 reversed single #
loop $-1 $-1 $215 $87 #
plane-surface $-1 0 0 149.65788750877408 0 0 1 1 0 0 forward_v I I I I #
face $-1 $216 $217 $70 $-1 $218 forward single #
loop $-1 $219 $220 $88 #
cone-surface $-1 0 0 -2.5063020722067932 0 0 1 2 0 0 1 I I 0 1 2 forward I I I I #
face $-1 $221 $222 $71 $-1 $223 forward single #
loop $-1 $224 $225 $89 #
cone-surface $-1 0 0 -2.5063020722067932 0 0 1 2 0 0 1 I I 0 1 2 forward I I I I #
face $-1 $226 $227 $54 $-1 $228 reversed single #
loop $-1 $-1 $229 $90 #
plane-surface $-1 0 0 -14.437668846625948 0 0 1 1 0 0 forward_v I I I I #
coedge $-1 $230 $231 $232 $233 forward $91 $-1 #
face $-1 $234 $235 $55 $-1 $236 reversed single #
loop $-1 $-1 $237 $93 #
plane-surface $-1 0 0 -14.437668846625948 0 0 1 1 0 0 forward_v I I I I #
coedge $-1 $238 $239 $240 $241 forward $94 $-1 #
face $-1 $242 $243 $56 $-1 $244 reversed single #
loop $-1 $-1 $245 $96 #
plane-surface $-1 0 0 -149.65788750877408 0 0 1 1 0 0 forward_v I I I I #
coedge $-1 $246 $247 $248 $249 forward $97 $-1 #
face $-1 $-1 $250 $57 $-1 $251 forward single #
loop $-1 $-1 $252 $99 #
plane-surface $-1 0 0 -8.6253318887905515 0 0 -1 -1 0 0 forward_v I I I I #
loop $-1 $-1 $253 $75 #
coedge $-1 $160 $160 $252 $254 reversed $100 $-1 #
face $-1 $255 $256 $58 $-1 $257 reversed single #
loop $-1 $-1 $258 $102 #
plane-surface $-1 0 0 -149.65788750877408 0 0 1 1 0 0 forward_v I I I I #
coedge $-1 $259 $260 $261 $262 forward $103 $-1 #
face $-1 $-1 $263 $59 $-1 $264 forward single #
loop $-1 $-1 $265 $105 #
plane-surface $-1 0 0 -8.6253318887905515 0 0 -1 -1 0 0 forward_v I I I I #
loop $-1 $-1 $266 $77 #
coedge $-1 $169 $169 $265 $267 reversed $106 $-1 #
face $-1 $268 $269 $60 $-1 $270 reversed single #
loop $-1 $-1 $271 $108 #
plane-surface $-1 0 0 -149.65788750877408 0 0 1 1 0 0 forward_v I I I I #
coedge $-1 $272 $273 $274 $275 forward $109 $-1 #
face $-1 $-1 $276 $61 $-1 $277 forward single #
loop $-1 $-1 $278 $111 #
plane-surface $-1 0 0 -4.0126041444135865 0 0 -1 -1 0 0 forward_v I I I I #
loop $-1 $-1 $279 $79 #
coedge $-1 $178 $178 $278 $280 reversed $112 $-1 #
face $-1 $-1 $281 $62 $-1 $282 forward single #
loop $-1 $-1 $283 $114 #
plane-surface $-1 0 0 -4.0126041444135865 0 0 -1 -1 0 0 forward_v I I I I #
loop $-1 $-1 $284 $80 #
coedge $-1 $183 $183 $283 $285 reversed $115 $-1 #
face $-1 $286 $287 $63 $-1 $288 reversed single #
loop $-1 $-1 $289 $117 #
plane-surface $-1 0 0 -149.65788750877408 0 0 1 1 0 0 forward_v I I I I #
coedge $-1 $290 $291 $292 $293 forward $118 $-1 #
face $-1 $-1 $294 $64 $-1 $295 forward single #
loop $-1 $-1 $296 $120 #
plane-surface $-1 0 0 -4.0126041444135865 0 0 -1 -1 0 0 forward_v I I I I #
loop $-1 $-1 $297 $82 #
coedge $-1 $192 $192 $296 $298 reversed $121 $-1 #
face $-1 $-1 $299 $65 $-1 $300 forward single #
loop $-1 $-1 $301 $123 #
plane-surface $-1 0 0 -4.0126041444135865 0 0 -1 -1 0 0 forward_v I I I I #
loop $-1 $-1 $302 $83 #
coedge $-1 $197 $197 $301 $303 reversed $124 $-1 #
face $-1 $304 $305 $66 $-1 $306 reversed single #
loop $-1 $-1 $307 $126 #
plane-surface $-1 0 0 -149.65788750877408 0 0 1 1 0 0 forward_v I I I I #
coedge $-1 $308 $309 $310 $311 forward $127 $-1 #
face $-1 $-1 $312 $67 $-1 $313 forward single #
loop $-1 $-1 $314 $129 #
plane-surface $-1 0 0 -4.0126041444135865 0 0 -1 -1 0 0 forward_v I I I I #
loop $-1 $-1 $315 $85 #
coedge $-1 $206 $206 $314 $316 reversed $130 $-1 #
face $-1 $-1 $317 $68 $-1 $318 forward single #
loop $-1 $-1 $319 $132 #
plane-surface $-1 0 0 -4.0126041444135865 0 0 -1 -1 0 0 forward_v I I I I #
loop $-1 $-1 $320 $86 #
coedge $-1 $211 $211 $319 $321 reversed $133 $-1 #
face $-1 $322 $323 $69 $-1 $324 reversed single #
loop $-1 $-1 $325 $135 #
plane-surface $-1 0 0 -149.65788750877408 0 0 1 1 0 0 forward_v I I I I #
coedge $-1 $326 $327 $328 $329 forward $136 $-1 #
face $-1 $-1 $330 $70 $-1 $331 forward single #
loop $-1 $-1 $332 $138 #
plane-surface $-1 0 0 -4.0126041444135865 0 0 -1 -1 0 0 forward_v I I I I #
loop $-1 $-1 $333 $88 #
coedge $-1 $220 $220 $332 $334 reversed $139 $-1 #
face $-1 $-1 $335 $71 $-1 $336 forward single #
loop $-1 $-1 $337 $141 #
plane-surface $-1 0 0 -4.0126041444135865 0 0 -1 -1 0 0 forward_v I I I I #
loop $-1 $-1 $338 $89 #
coedge $-1 $225 $225 $337 $339 reversed $142 $-1 #
face $-1 $340 $341 $54 $-1 $342 reversed single #
loop $-1 $-1 $343 $144 #
plane-surface $-1 0 -31.431947265438776 0 0 1 0 0 0 1 forward_v I I I I #
coedge $-1 $344 $345 $346 $347 forward $145 $-1 #
coedge $-1 $348 $147 $349 $350 forward $91 $-1 #
coedge $-1 $147 $348 $351 $352 forward $91 $-1 #
coedge $-1 $353 $354 $147 $233 reversed $355 $-1 #
edge $-1 $356 -31.431947265438776 $357 31.431947265438776 $232 $358 forward 7 unknown #
face $-1 $359 $360 $55 $-1 $361 reversed single #
loop $-1 $-1 $362 $148 #
plane-surface $-1 0 -3.9061060851534677 0 0 1 0 0 0 1 forward_v I I I I #
coedge $-1 $363 $364 $365 $366 forward $149 $-1 #
coedge $-1 $367 $151 $368 $369 forward $94 $-1 #
coedge $-1 $151 $367 $370 $371 forward $94 $-1 #
coedge $-1 $372 $373 $151 $241 reversed $374 $-1 #
edge $-1 $375 -3.9061060851534677 $376 3.9061060851534677 $240 $377 forward 7 unknown #
face $-1 $378 $379 $56 $-1 $380 reversed single #
loop $-1 $-1 $381 $152 #
plane-surface $-1 0 -299.31577501754816 0 0 1 0 0 0 1 forward_v I I I I #
coedge $-1 $382 $383 $384 $385 forward $153 $-1 #
coedge $-1 $386 $155 $387 $388 forward $97 $-1 #
coedge $-1 $155 $386 $389 $390 forward $97 $-1 #
coedge $-1 $391 $392 $155 $249 reversed $393 $-1 #
edge $-1 $394 -299.31577501754816 $395 299.31577501754816 $248 $396 forward 7 unknown #
loop $-1 $397 $398 $156 #
cone-surface $-1 0 0 0 0 0 1 1.25 0 0 1 I I -0.70710678118654746 0.70710678118654768 1.25 forward I I I I #
coedge $-1 $252 $252 $160 $254 forward $157 $-1 #
coedge $-1 $253 $253 $398 $399 forward $159 $-1 #
edge $-1 $400 0 $400 6.2831853071796004 $252 $401 forward 7 unknown #
face $-1 $402 $403 $58 $-1 $404 reversed single #
loop $-1 $-1 $405 $161 #
plane-surface $-1 0 -299.31577501754816 0 0 1 0 0 0 1 forward_v I I I I #
coedge $-1 $406 $407 $408 $409 forward $162 $-1 #
coedge $-1 $410 $164 $411 $412 forward $103 $-1 #
coedge $-1 $164 $410 $413 $414 forward $103 $-1 #
coedge $-1 $415 $416 $164 $262 reversed $417 $-1 #
edge $-1 $418 -299.31577501754816 $419 299.31577501754816 $261 $420 forward 7 unknown #
loop $-1 $421 $422 $165 #
cone-surface $-1 0 0 0 0 0 1 1.25 0 0 1 I I -0.70710678118654746 0.70710678118654768 1.25 forward I I I I #
coedge $-1 $265 $265 $169 $267 forward $166 $-1 #
coedge $-1 $266 $266 $422 $423 forward $168 $-1 #
edge $-1 $424 0 $424 6.2831853071796004 $265 $425 forward 7 unknown #
face $-1 $426 $427 $60 $-1 $428 reversed single #
loop $-1 $-1 $429 $170 #
plane-surface $-1 0 -299.31577501754816 0 0 1 0 0 0 1 forward_v I I I I #
coedge $-1 $430 $431 $432 $433 forward $171 $-1 #
coedge $-1 $434 $173 $435 $436 forward $109 $-1 #
coedge $-1 $173 $434 $437 $438 forward $109 $-1 #
coedge $-1 $439 $440 $173 $275 reversed $441 $-1 #
edge $-1 $442 -299.31577501754816 $443 299.31577501754816 $274 $444 forward 7 unknown #
loop $-1 $445 $446 $174 #
cone-surface $-1 0 0 0 0 0 1 1 0 0 1 I I -0.70710678118654746 0.70710678118654746 1 forward I I I I #
coedge $-1 $278 $278 $178 $280 forward $175 $-1 #
coedge $-1 $279 $279 $446 $447 forward $177 $-1 #
edge $-1 $448 0 $448 6.2831853071796004 $278 $449 forward 7 unknown #
loop $-1 $450 $451 $179 #
cone-surface $-1 0 0 0 0 0 1 1 0 0 1 I I -0.70710678118654746 0.70710678118654746 1 forward I I I I #
coedge $-1 $283 $283 $183 $285 forward $180 $-1 #
coedge $-1 $284 $284 $451 $452 forward $182 $-1 #
edge $-1 $453 0 $453 6.2831853071796004 $283 $454 forward 7 unknown #
face $-1 $455 $456 $63 $-1 $457 reversed single #
loop $-1 $-1 $458 $184 #
plane-surface $-1 0 -299.31577501754816 0 0 1 0 0 0 1 forward_v I I I I #
coedge $-1 $459 $460 $461 $462 forward $185 $-1 #
coedge $-1 $463 $187 $464 $465 forward $118 $-1 #
coedge $-1 $187 $463 $466 $467 forward $118 $-1 #
coedge $-1 $468 $469 $187 $293 reversed $470 $-1 #
edge $-1 $471 -299.31577501754816 $472 299.31577501754816 $292 $473 forward 7 unknown #
loop $-1 $474 $475 $188 #
cone-surface $-1 0 0 0 0 0 1 1 0 0 1 I I -0.70710678118654746 0.70710678118654746 1 forward I I I I #
coedge $-1 $296 $296 $192 $298 forward $189 $-1 #
coedge $-1 $297 $297 $475 $476 forward $191 $-1 #
edge $-1 $477 0 $477 6.2831853071796004 $296 $478 forward 7 unknown #
loop $-1 $479 $480 $193 #
cone-surface $-1 0 0 0 0 0 1 1 0 0 1 I I -0.70710678118654746 0.70710678118654746 1 forward I I I I #
coedge $-1 $301 $301 $197 $303 forward $194 $-1 #
coedge $-1 $302 $302 $480 $481 forward $196 $-1 #
edge $-1 $482 0 $482 6.2831853071796004 $301 $483 forward 7 unknown #
face $-1 $484 $485 $66 $-1 $486 reversed single #
loop $-1 $-1 $487 $198 #
plane-surface $-1 0 -299.31577501754816 0 0 1 0 0 0 1 forward_v I I I I #
coedge $-1 $488 $489 $490 $491 forward $199 $-1 #
coedge $-1 $492 $201 $493 $494 forward $127 $-1 #
coedge $-1 $201 $492 $495 $496 forward $127 $-1 #
coedge $-1 $497 $498 $201 $311 reversed $499 $-1 #
edge $-1 $500 -299.31577501754816 $501 299.31577501754816 $310 $502 forward 7 unknown #
loop $-1 $503 $504 $202 #
cone-surface $-1 0 0 0 0 0 1 1 0 0 1 I I -0.70710678118654746 0.70710678118654746 1 forward I I I I #
coedge $-1 $314 $314 $206 $316 forward $203 $-1 #
coedge $-1 $315 $315 $504 $505 forward $205 $-1 #
edge $-1 $506 0 $506 6.2831853071796004 $314 $507 forward 7 unknown #
loop $-1 $508 $509 $207 #
cone-surface $-1 0 0 0 0 0 1 1 0 0 1 I I -0.70710678118654746 0.70710678118654746 1 forward I I I I #
coedge $-1 $319 $319 $211 $321 forward $208 $-1 #
coedge $-1 $320 $320 $509 $510 forward $210 $-1 #
edge $-1 $511 0 $511 6.2831853071796004 $319 $512 forward 7 unknown #
face $-1 $513 $514 $69 $-1 $515 reversed single #
loop $-1 $-1 $516 $212 #
plane-surface $-1 0 -299.31577501754816 0 0 1 0 0 0 1 forward_v I I I I #
coedge $-1 $517 $518 $519 $520 forward $213 $-1 #
coedge $-1 $521 $215 $522 $523 forward $136 $-1 #
coedge $-1 $215 $521 $524 $525 forward $136 $-1 #
coedge $-1 $526 $527 $215 $329 reversed $528 $-1 #
edge $-1 $529 -299.31577501754816 $530 299.31577501754816 $328 $531 forward 7 unknown #
loop $-1 $532 $533 $216 #
cone-surface $-1 0 0 0 0 0 1 1 0 0 1 I I -0.70710678118654746 0.70710678118654746 1 forward I I I I #
coedge $-1 $332 $332 $220 $334 forward $217 $-1 #
coedge $-1 $333 $333 $533 $534 forward $219 $-1 #
edge $-1 $535 0 $535 6.2831853071796004 $332 $536 forward 7 unknown #
loop $-1 $537 $538 $221 #
cone-surface $-1 0 0 0 0 0 1 1 0 0 1 I I -0.70710678118654746 0.70710678118654746 1 forward I I I I #
coedge $-1 $337 $337 $225 $339 forward $222 $-1 #
coedge $-1 $338 $338 $538 $539 forward $224 $-1 #
edge $-1 $540 0 $540 6.2831853071796004 $337 $541 forward 7 unknown #
face $-1 $542 $543 $54 $-1 $544 reversed single #
loop $-1 $-1 $545 $226 #
plane-surface $-1 -74.828943754387041 0 0 1 0 0 0 0 -1 forward_v I I I I #
coedge $-1 $546 $351 $547 $548 forward $227 $-1 #
coedge $-1 $549 $229 $546 $550 forward $145 $-1 #
coedge $-1 $229 $549 $551 $552 forward $145 $-1 #
coedge $-1 $354 $353 $229 $347 reversed $355 $-1 #
edge $-1 $553 -31.431947265438776 $554 31.431947265438776 $346 $555 forward 7 unknown #
coedge $-1 $231 $230 $556 $557 forward $91 $-1 #
coedge $-1 $558 $559 $230 $350 reversed $543 $-1 #
edge $-1 $357 -74.828943754387041 $560 74.828943754387041 $349 $561 forward 7 unknown #
coedge $-1 $343 $562 $231 $352 reversed $227 $-1 #
edge $-1 $563 -74.828943754387041 $356 74.828943754387041 $351 $564 forward 7 unknown #
coedge $-1 $346 $232 $562 $565 forward $355 $-1 #
coedge $-1 $232 $346 $558 $566 reversed $355 $-1 #
loop $-1 $-1 $353 $542 #
vertex $-1 $233 $567 #
vertex $-1 $233 $568 #
straight-curve $-1 74.828943754387041 0 14.437668846625948 0 1 0 I I #
face $-1 $569 $570 $55 $-1 $571 reversed single #
loop $-1 $-1 $572 $234 #
plane-surface $-1 -7.7031773019092791 0 0 1 0 0 0 0 -1 forward_v I I I I #
coedge $-1 $573 $370 $574 $575 forward $235 $-1 #
coedge $-1 $576 $237 $573 $577 forward $149 $-1 #
coedge $-1 $237 $576 $578 $579 forward $149 $-1 #
coedge $-1 $373 $372 $237 $366 reversed $374 $-1 #
edge $-1 $580 -3.9061060851534677 $581 3.9061060851534677 $365 $582 forward 7 unknown #
coedge $-1 $239 $238 $583 $584 forward $94 $-1 #
coedge $-1 $585 $586 $238 $369 reversed $570 $-1 #
edge $-1 $376 -7.7031773019092791 $587 7.7031773019092791 $368 $588 forward 7 unknown #
coedge $-1 $362 $589 $239 $371 reversed $235 $-1 #
edge $-1 $590 -7.7031773019092791 $375 7.7031773019092791 $370 $591 forward 7 unknown #
coedge $-1 $365 $240 $589 $592 forward $374 $-1 #
coedge $-1 $240 $365 $585 $593 reversed $374 $-1 #
loop $-1 $-1 $372 $569 #
vertex $-1 $241 $594 #
vertex $-1 $241 $595 #
straight-curve $-1 7.7031773019092791 0 14.437668846625948 0 1 0 I I #
face $-1 $596 $597 $56 $-1 $598 reversed single #
loop $-1 $-1 $599 $242 #
plane-surface $-1 -9.8266205792182788 0 0 1 0 0 0 0 -1 forward_v I I I I #
coedge $-1 $600 $389 $601 $602 forward $243 $-1 #
coedge $-1 $603 $245 $600 $604 forward $153 $-1 #
coedge $-1 $245 $603 $605 $606 forward $153 $-1 #
coedge $-1 $392 $391 $245 $385 reversed $393 $-1 #
edge $-1 $607 -299.31577501754816 $608 299.31577501754816 $384 $609 forward 7 unknown #
coedge $-1 $247 $246 $610 $611 forward $97 $-1 #
coedge $-1 $612 $613 $246 $388 reversed $597 $-1 #
edge $-1 $395 -9.8266205792182788 $614 9.8266205792182788 $387 $615 forward 7 unknown #
coedge $-1 $381 $616 $247 $390 reversed $243 $-1 #
edge $-1 $617 -9.8266205792182788 $394 9.8266205792182788 $389 $618 forward 7 unknown #
coedge $-1 $384 $248 $616 $619 forward $393 $-1 #
coedge $-1 $248 $384 $612 $620 reversed $393 $-1 #
loop $-1 $-1 $391 $596 #
vertex $-1 $249 $621 #
vertex $-1 $249 $622 #
straight-curve $-1 9.8266205792182788 0 149.65788750877408 0 1 0 I I #
loop $-1 $-1 $623 $156 #
coedge $-1 $398 $398 $253 $399 reversed $250 $-1 #
edge $-1 $624 0 $624 6.2831853071796004 $398 $625 forward 7 unknown #
vertex $-1 $254 $626 #
ellipse-curve $-1 0 0 -8.6253318887905515 0 0 -1 2.5 0 0 1 I I #
face $-1 $627 $628 $58 $-1 $629 reversed single #
loop $-1 $-1 $630 $255 #
plane-surface $-1 -9.8266205792182788 0 0 1 0 0 0 0 -1 forward_v I I I I #
coedge $-1 $631 $413 $632 $633 forward $256 $-1 #
coedge $-1 $634 $258 $631 $635 forward $162 $-1 #
coedge $-1 $258 $634 $636 $637 forward $162 $-1 #
coedge $-1 $416 $415 $258 $409 reversed $417 $-1 #
edge $-1 $638 -299.31577501754816 $639 299.31577501754816 $408 $640 forward 7 unknown #
coedge $-1 $260 $259 $641 $642 forward $103 $-1 #
coedge $-1 $643 $644 $259 $412 reversed $628 $-1 #
edge $-1 $419 -9.8266205792182788 $645 9.8266205792182788 $411 $646 forward 7 unknown #
coedge $-1 $405 $647 $260 $414 reversed $256 $-1 #
edge $-1 $648 -9.8266205792182788 $418 9.8266205792182788 $413 $649 forward 7 unknown #
coedge $-1 $408 $261 $647 $650 forward $417 $-1 #
coedge $-1 $261 $408 $643 $651 reversed $417 $-1 #
loop $-1 $-1 $415 $627 #
vertex $-1 $262 $652 #
vertex $-1 $262 $653 #
straight-curve $-1 9.8266205792182788 0 149.65788750877408 0 1 0 I I #
loop $-1 $-1 $654 $165 #
coedge $-1 $422 $422 $266 $423 reversed $263 $-1 #
edge $-1 $655 0 $655 6.2831853071796004 $422 $656 forward 7 unknown #
vertex $-1 $267 $657 #
ellipse-curve $-1 0 0 -8.6253318887905515 0 0 -1 2.5 0 0 1 I I #
face $-1 $658 $659 $60 $-1 $660 reversed single #
loop $-1 $-1 $661 $268 #
plane-surface $-1 -7.2381906327212882 0 0 1 0 0 0 0 -1 forward_v I I I I #
coedge $-1 $662 $437 $663 $664 forward $269 $-1 #
coedge $-1 $665 $271 $662 $666 forward $171 $-1 #
coedge $-1 $271 $665 $667 $668 forward $171 $-1 #
coedge $-1 $440 $439 $271 $433 reversed $441 $-1 #
edge $-1 $669 -299.31577501754816 $670 299.31577501754816 $432 $671 forward 7 unknown #
coedge $-1 $273 $272 $672 $673 forward $109 $-1 #
coedge $-1 $674 $675 $272 $436 reversed $659 $-1 #
edge $-1 $443 -7.2381906327212882 $676 7.2381906327212882 $435 $677 forward 7 unknown #
coedge $-1 $429 $678 $273 $438 reversed $269 $-1 #
edge $-1 $679 -7.2381906327212882 $442 7.2381906327212882 $437 $680 forward 7 unknown #
coedge $-1 $432 $274 $678 $681 forward $441 $-1 #
coedge $-1 $274 $432 $674 $682 reversed $441 $-1 #
loop $-1 $-1 $439 $658 #
vertex $-1 $275 $683 #
vertex $-1 $275 $684 #
straight-curve $-1 7.2381906327212882 0 149.65788750877408 0 1 0 I I #
loop $-1 $-1 $685 $174 #
coedge $-1 $446 $446 $279 $447 reversed $276 $-1 #
edge $-1 $686 0 $686 6.2831853071796004 $446 $687 forward 7 unknown #
vertex $-1 $280 $688 #
ellipse-curve $-1 0 0 -4.0126041444135865 0 0 -1 2 0 0 1 I I #
loop $-1 $-1 $689 $179 #
coedge $-1 $451 $451 $284 $452 reversed $281 $-1 #
edge $-1 $690 0 $690 6.2831853071796004 $451 $691 forward 7 unknown #
vertex $-1 $285 $692 #
ellipse-curve $-1 0 0 -4.0126041444135865 0 0 -1 2 0 0 1 I I #
face $-1 $693 $694 $63 $-1 $695 reversed single #
loop $-1 $-1 $696 $286 #
plane-surface $-1 -7.2381906327212882 0 0 1 0 0 0 0 -1 forward_v I I I I #
coedge $-1 $697 $466 $698 $699 forward $287 $-1 #
coedge $-1 $700 $289 $697 $701 forward $185 $-1 #
coedge $-1 $289 $700 $702 $703 forward $185 $-1 #
coedge $-1 $469 $468 $289 $462 reversed $470 $-1 #
edge $-1 $704 -299.31577501754816 $705 299.31577501754816 $461 $706 forward 7 unknown #
coedge $-1 $291 $290 $707 $708 forward $118 $-1 #
coedge $-1 $709 $710 $290 $465 reversed $694 $-1 #
edge $-1 $472 -7.2381906327212882 $711 7.2381906327212882 $464 $712 forward 7 unknown #
coedge $-1 $458 $713 $291 $467 reversed $287 $-1 #
edge $-1 $714 -7.2381906327212882 $471 7.2381906327212882 $466 $715 forward 7 unknown #
coedge $-1 $461 $292 $713 $716 forward $470 $-1 #
coedge $-1 $292 $461 $709 $717 reversed $470 $-1 #
loop $-1 $-1 $468 $693 #
vertex $-1 $293 $718 #
vertex $-1 $293 $719 #
straight-curve $-1 7.2381906327212882 0 149.65788750877408 0 1 0 I I #
loop $-1 $-1 $720 $188 #
coedge $-1 $475 $475 $297 $476 reversed $294 $-1 #
edge $-1 $721 0 $721 6.2831853071796004 $475 $722 forward 7 unknown #
vertex $-1 $298 $723 #
ellipse-curve $-1 0 0 -4.0126041444135865 0 0 -1 2 0 0 1 I I #
loop $-1 $-1 $724 $193 #
coedge $-1 $480 $480 $302 $481 reversed $299 $-1 #
edge $-1 $725 0 $725 6.2831853071796004 $480 $726 forward 7 unknown #
vertex $-1 $303 $727 #
ellipse-curve $-1 0 0 -4.0126041444135865 0 0 -1 2 0 0 1 I I #
face $-1 $728 $729 $66 $-1 $730 reversed single #
loop $-1 $-1 $731 $304 #
plane-surface $-1 -7.2381906327212882 0 0 1 0 0 0 0 -1 forward_v I I I I #
coedge $-1 $732 $495 $733 $734 forward $305 $-1 #
coedge $-1 $735 $307 $732 $736 forward $199 $-1 #
coedge $-1 $307 $735 $737 $738 forward $199 $-1 #
coedge $-1 $498 $497 $307 $491 reversed $499 $-1 #
edge $-1 $739 -299.31577501754816 $740 299.31577501754816 $490 $741 forward 7 unknown #
coedge $-1 $309 $308 $742 $743 forward $127 $-1 #
coedge $-1 $744 $745 $308 $494 reversed $729 $-1 #
edge $-1 $501 -7.2381906327212882 $746 7.2381906327212882 $493 $747 forward 7 unknown #
coedge $-1 $487 $748 $309 $496 reversed $305 $-1 #
edge $-1 $749 -7.2381906327212882 $500 7.2381906327212882 $495 $750 forward 7 unknown #
coedge $-1 $490 $310 $748 $751 forward $499 $-1 #
coedge $-1 $310 $490 $744 $752 reversed $499 $-1 #
loop $-1 $-1 $497 $728 #
vertex $-1 $311 $753 #
vertex $-1 $311 $754 #
straight-curve $-1 7.2381906327212882 0 149.65788750877408 0 1 0 I I #
loop $-1 $-1 $755 $202 #
coedge $-1 $504 $504 $315 $505 reversed $312 $-1 #
edge $-1 $756 0 $756 6.2831853071796004 $504 $757 forward 7 unknown #
vertex $-1 $316 $758 #
ellipse-curve $-1 0 0 -4.0126041444135865 0 0 -1 2 0 0 1 I I #
loop $-1 $-1 $759 $207 #
coedge $-1 $509 $509 $320 $510 reversed $317 $-1 #
edge $-1 $760 0 $760 6.2831853071796004 $509 $761 forward 7 unknown #
vertex $-1 $321 $762 #
ellipse-curve $-1 0 0 -4.0126041444135865 0 0 -1 2 0 0 1 I I #
face $-1 $763 $764 $69 $-1 $765 reversed single #
loop $-1 $-1 $766 $322 #
plane-surface $-1 -7.2381906327212882 0 0 1 0 0 0 0 -1 forward_v I I I I #
coedge $-1 $767 $524 $768 $769 forward $323 $-1 #
coedge $-1 $770 $325 $767 $771 forward $213 $-1 #
coedge $-1 $325 $770 $772 $773 forward $213 $-1 #
coedge $-1 $527 $526 $325 $520 reversed $528 $-1 #
edge $-1 $774 -299.31577501754816 $775 299.31577501754816 $519 $776 forward 7 unknown #
coedge $-1 $327 $326 $777 $778 forward $136 $-1 #
coedge $-1 $779 $780 $326 $523 reversed $764 $-1 #
edge $-1 $530 -7.2381906327212882 $781 7.2381906327212882 $522 $782 forward 7 unknown #
coedge $-1 $516 $783 $327 $525 reversed $323 $-1 #
edge $-1 $784 -7.2381906327212882 $529 7.2381906327212882 $524 $785 forward 7 unknown #
coedge $-1 $519 $328 $783 $786 forward $528 $-1 #
coedge $-1 $328 $519 $779 $787 reversed $528 $-1 #
loop $-1 $-1 $526 $763 #
vertex $-1 $329 $788 #
vertex $-1 $329 $789 #
straight-curve $-1 7.2381906327212882 0 149.65788750877408 0 1 0 I I #
loop $-1 $-1 $790 $216 #
coedge $-1 $533 $533 $333 $534 reversed $330 $-1 #
edge $-1 $791 0 $791 6.2831853071796004 $533 $792 forward 7 unknown #
vertex $-1 $334 $793 #
ellipse-curve $-1 0 0 -4.0126041444135865 0 0 -1 2 0 0 1 I I #
loop $-1 $-1 $794 $221 #
coedge $-1 $538 $538 $338 $539 reversed $335 $-1 #
edge $-1 $795 0 $795 6.2831853071796004 $538 $796 forward 7 unknown #
vertex $-1 $339 $797 #
ellipse-curve $-1 0 0 -4.0126041444135865 0 0 -1 2 0 0 1 I I #
face $-1 $-1 $355 $54 $-1 $798 reversed single #
loop $-1 $-1 $558 $340 #
plane-surface $-1 0 31.431947265438776 0 0 -1 0 0 0 -1 forward_v I I I I #
coedge $-1 $799 $556 $559 $800 forward $341 $-1 #
coedge $-1 $562 $343 $344 $550 reversed $227 $-1 #
coedge $-1 $556 $799 $343 $548 reversed $341 $-1 #
edge $-1 $563 -14.437668846625948 $801 14.437668846625948 $547 $802 forward 7 unknown #
coedge $-1 $345 $344 $799 $803 forward $145 $-1 #
edge $-1 $554 -74.828943754387041 $801 74.828943754387041 $546 $804 forward 7 unknown #
coedge $-1 $559 $558 $345 $552 reversed $543 $-1 #
edge $-1 $805 -74.828943754387041 $553 74.828943754387041 $551 $806 forward 7 unknown #
vertex $-1 $347 $807 #
vertex $-1 $565 $808 #
straight-curve $-1 74.828943754387041 0 -14.437668846625948 0 -1 0 I I #
coedge $-1 $545 $547 $348 $557 reversed $341 $-1 #
edge $-1 $560 -31.431947265438776 $563 31.431947265438776 $556 $809 forward 7 unknown #
coedge $-1 $551 $349 $354 $566 forward $543 $-1 #
coedge $-1 $349 $551 $545 $800 reversed $543 $-1 #
vertex $-1 $350 $810 #
straight-curve $-1 0 31.431947265438776 14.437668846625948 -1 0 0 I I #
coedge $-1 $351 $546 $353 $565 reversed $227 $-1 #
vertex $-1 $557 $811 #
straight-curve $-1 0 -31.431947265438776 14.437668846625948 1 0 0 I I #
edge $-1 $356 -14.437668846625948 $554 14.437668846625948 $353 $812 forward 7 unknown #
edge $-1 $357 -14.437668846625948 $553 14.437668846625948 $354 $813 forward 7 unknown #
point $-1 74.828943754387041 -31.431947265438776 14.437668846625948 #
point $-1 74.828943754387041 31.431947265438776 14.437668846625948 #
face $-1 $-1 $374 $55 $-1 $814 reversed single #
loop $-1 $-1 $585 $359 #
plane-surface $-1 0 3.9061060851534677 0 0 -1 0 0 0 -1 forward_v I I I I #
coedge $-1 $815 $583 $586 $816 forward $360 $-1 #
coedge $-1 $589 $362 $363 $577 reversed $235 $-1 #
coedge $-1 $583 $815 $362 $575 reversed $360 $-1 #
edge $-1 $590 -14.437668846625948 $817 14.437668846625948 $574 $818 forward 7 unknown #
coedge $-1 $364 $363 $815 $819 forward $149 $-1 #
edge $-1 $581 -7.7031773019092791 $817 7.7031773019092791 $573 $820 forward 7 unknown #
coedge $-1 $586 $585 $364 $579 reversed $570 $-1 #
edge $-1 $821 -7.7031773019092791 $580 7.7031773019092791 $578 $822 forward 7 unknown #
vertex $-1 $366 $823 #
vertex $-1 $592 $824 #
straight-curve $-1 7.7031773019092791 0 -14.437668846625948 0 -1 0 I I #
coedge $-1 $572 $574 $367 $584 reversed $360 $-1 #
edge $-1 $587 -3.9061060851534677 $590 3.9061060851534677 $583 $825 forward 7 unknown #
coedge $-1 $578 $368 $373 $593 forward $570 $-1 #
coedge $-1 $368 $578 $572 $816 reversed $570 $-1 #
vertex $-1 $369 $826 #
straight-curve $-1 0 3.9061060851534677 14.437668846625948 -1 0 0 I I #
coedge $-1 $370 $573 $372 $592 reversed $235 $-1 #
vertex $-1 $584 $827 #
straight-curve $-1 0 -3.9061060851534677 14.437668846625948 1 0 0 I I #
edge $-1 $375 -14.437668846625948 $581 14.437668846625948 $372 $828 forward 7 unknown #
edge $-1 $376 -14.437668846625948 $580 14.437668846625948 $373 $829 forward 7 unknown #
point $-1 7.7031773019092791 -3.9061060851534677 14.437668846625948 #
point $-1 7.7031773019092791 3.9061060851534677 14.437668846625948 #
face $-1 $-1 $393 $56 $-1 $830 reversed single #
loop $-1 $-1 $612 $378 #
plane-surface $-1 0 299.31577501754816 0 0 -1 0 0 0 -1 forward_v I I I I #
coedge $-1 $831 $610 $613 $832 forward $379 $-1 #
coedge $-1 $616 $381 $382 $604 reversed $243 $-1 #
coedge $-1 $610 $831 $381 $602 reversed $379 $-1 #
edge $-1 $617 -149.65788750877408 $833 149.65788750877408 $601 $834 forward 7 unknown #
coedge $-1 $383 $382 $831 $835 forward $153 $-1 #
edge $-1 $608 -9.8266205792182788 $833 9.8266205792182788 $600 $836 forward 7 unknown #
coedge $-1 $613 $612 $383 $606 reversed $597 $-1 #
edge $-1 $837 -9.8266205792182788 $607 9.8266205792182788 $605 $838 forward 7 unknown #
vertex $-1 $385 $839 #
vertex $-1 $619 $840 #
straight-curve $-1 9.8266205792182788 0 -149.65788750877408 0 -1 0 I I #
coedge $-1 $599 $601 $386 $611 reversed $379 $-1 #
edge $-1 $614 -299.31577501754816 $617 299.31577501754816 $610 $841 forward 7 unknown #
coedge $-1 $605 $387 $392 $620 forward $597 $-1 #
coedge $-1 $387 $605 $599 $832 reversed $597 $-1 #
vertex $-1 $388 $842 #
straight-curve $-1 0 299.31577501754816 149.65788750877408 -1 0 0 I I #
coedge $-1 $389 $600 $391 $619 reversed $243 $-1 #
vertex $-1 $611 $843 #
straight-curve $-1 0 -299.31577501754816 149.65788750877408 1 0 0 I I #
edge $-1 $394 -149.65788750877408 $608 149.65788750877408 $391 $844 forward 7 unknown #
edge $-1 $395 -149.65788750877408 $607 149.65788750877408 $392 $845 forward 7 unknown #
point $-1 9.8266205792182788 -299.31577501754816 149.65788750877408 #
point $-1 9.8266205792182788 299.31577501754816 149.65788750877408 #
coedge $-1 $623 $623 $-1 $846 reversed $397 $-1 #
vertex $-1 $399 $847 #
ellipse-curve $-1 0 0 -1.2500000000000004 0 0 -1 2.5 0 0 1 I I #
point $-1 2.5 0 -8.6253318887905515 #
face $-1 $-1 $417 $58 $-1 $848 reversed single #
loop $-1 $-1 $643 $402 #
plane-surface $-1 0 299.31577501754816 0 0 -1 0 0 0 -1 forward_v I I I I #
coedge $-1 $849 $641 $644 $850 forward $403 $-1 #
coedge $-1 $647 $405 $406 $635 reversed $256 $-1 #
coedge $-1 $641 $849 $405 $633 reversed $403 $-1 #
edge $-1 $648 -149.65788750877408 $851 149.65788750877408 $632 $852 forward 7 unknown #
coedge $-1 $407 $406 $849 $853 forward $162 $-1 #
edge $-1 $639 -9.8266205792182788 $851 9.8266205792182788 $631 $854 forward 7 unknown #
coedge $-1 $644 $643 $407 $637 reversed $628 $-1 #
edge $-1 $855 -9.8266205792182788 $638 9.8266205792182788 $636 $856 forward 7 unknown #
vertex $-1 $409 $857 #
vertex $-1 $650 $858 #
straight-curve $-1 9.8266205792182788 0 -149.65788750877408 0 -1 0 I I #
coedge $-1 $630 $632 $410 $642 reversed $403 $-1 #
edge $-1 $645 -299.31577501754816 $648 299.31577501754816 $641 $859 forward 7 unknown #
coedge $-1 $636 $411 $416 $651 forward $628 $-1 #
coedge $-1 $411 $636 $630 $850 reversed $628 $-1 #
vertex $-1 $412 $860 #
straight-curve $-1 0 299.31577501754816 149.65788750877408 -1 0 0 I I #
coedge $-1 $413 $631 $415 $650 reversed $256 $-1 #
vertex $-1 $642 $861 #
straight-curve $-1 0 -299.31577501754816 149.65788750877408 1 0 0 I I #
edge $-1 $418 -149.65788750877408 $639 149.65788750877408 $415 $862 forward 7 unknown #
edge $-1 $419 -149.65788750877408 $638 149.65788750877408 $416 $863 forward 7 unknown #
point $-1 9.8266205792182788 -299.31577501754816 149.65788750877408 #
point $-1 9.8266205792182788 299.31577501754816 149.65788750877408 #
coedge $-1 $654 $654 $-1 $864 reversed $421 $-1 #
vertex $-1 $423 $865 #
ellipse-curve $-1 0 0 -1.2500000000000004 0 0 -1 2.5 0 0 1 I I #
point $-1 2.5 0 -8.6253318887905515 #
face $-1 $-1 $441 $60 $-1 $866 reversed single #
loop $-1 $-1 $674 $426 #
plane-surface $-1 0 299.31577501754816 0 0 -1 0 0 0 -1 forward_v I I I I #
coedge $-1 $867 $672 $675 $868 forward $427 $-1 #
coedge $-1 $678 $429 $430 $666 reversed $269 $-1 #
coedge $-1 $672 $867 $429 $664 reversed $427 $-1 #
edge $-1 $679 -149.65788750877408 $869 149.65788750877408 $663 $870 forward 7 unknown #
coedge $-1 $431 $430 $867 $871 forward $171 $-1 #
edge $-1 $670 -7.2381906327212882 $869 7.2381906327212882 $662 $872 forward 7 unknown #
coedge $-1 $675 $674 $431 $668 reversed $659 $-1 #
edge $-1 $873 -7.2381906327212882 $669 7.2381906327212882 $667 $874 forward 7 unknown #
vertex $-1 $433 $875 #
vertex $-1 $681 $876 #
straight-curve $-1 7.2381906327212882 0 -149.65788750877408 0 -1 0 I I #
coedge $-1 $661 $663 $434 $673 reversed $427 $-1 #
edge $-1 $676 -299.31577501754816 $679 299.31577501754816 $672 $877 forward 7 unknown #
coedge $-1 $667 $435 $440 $682 forward $659 $-1 #
coedge $-1 $435 $667 $661 $868 reversed $659 $-1 #
vertex $-1 $436 $878 #
straight-curve $-1 0 299.31577501754816 149.65788750877408 -1 0 0 I I #
coedge $-1 $437 $662 $439 $681 reversed $269 $-1 #
vertex $-1 $673 $879 #
straight-curve $-1 0 -299.31577501754816 149.65788750877408 1 0 0 I I #
edge $-1 $442 -149.65788750877408 $670 149.65788750877408 $439 $880 forward 7 unknown #
edge $-1 $443 -149.65788750877408 $669 149.65788750877408 $440 $881 forward 7 unknown #
point $-1 7.2381906327212882 -299.31577501754816 149.65788750877408 #
point $-1 7.2381906327212882 299.31577501754816 149.65788750877408 #
coedge $-1 $685 $685 $-1 $882 reversed $445 $-1 #
vertex $-1 $447 $883 #
ellipse-curve $-1 0 0 -1 0 0 -1 2 0 0 1 I I #
point $-1 2 0 -4.0126041444135865 #
coedge $-1 $689 $689 $-1 $884 reversed $450 $-1 #
vertex $-1 $452 $885 #
ellipse-curve $-1 0 0 -1 0 0 -1 2 0 0 1 I I #
point $-1 2 0 -4.0126041444135865 #
face $-1 $-1 $470 $63 $-1 $886 reversed single #
loop $-1 $-1 $709 $455 #
plane-surface $-1 0 299.31577501754816 0 0 -1 0 0 0 -1 forward_v I I I I #
coedge $-1 $887 $707 $710 $888 forward $456 $-1 #
coedge $-1 $713 $458 $459 $701 reversed $287 $-1 #
coedge $-1 $707 $887 $458 $699 reversed $456 $-1 #
edge $-1 $714 -149.65788750877408 $889 149.65788750877408 $698 $890 forward 7 unknown #
coedge $-1 $460 $459 $887 $891 forward $185 $-1 #
edge $-1 $705 -7.2381906327212882 $889 7.2381906327212882 $697 $892 forward 7 unknown #
coedge $-1 $710 $709 $460 $703 reversed $694 $-1 #
edge $-1 $893 -7.2381906327212882 $704 7.2381906327212882 $702 $894 forward 7 unknown #
vertex $-1 $462 $895 #
vertex $-1 $716 $896 #
straight-curve $-1 7.2381906327212882 0 -149.65788750877408 0 -1 0 I I #
coedge $-1 $696 $698 $463 $708 reversed $456 $-1 #
edge $-1 $711 -299.31577501754816 $714 299.31577501754816 $707 $897 forward 7 unknown #
coedge $-1 $702 $464 $469 $717 forward $694 $-1 #
coedge $-1 $464 $702 $696 $888 reversed $694 $-1 #
vertex $-1 $465 $898 #
straight-curve $-1 0 299.31577501754816 149.65788750877408 -1 0 0 I I #
coedge $-1 $466 $697 $468 $716 reversed $287 $-1 #
vertex $-1 $708 $899 #
straight-curve $-1 0 -299.31577501754816 149.65788750877408 1 0 0 I I #
edge $-1 $471 -149.65788750877408 $705 149.65788750877408 $468 $900 forward 7 unknown #
edge $-1 $472 -149.65788750877408 $704 149.65788750877408 $469 $901 forward 7 unknown #
point $-1 7.2381906327212882 -299.31577501754816 149.65788750877408 #
point $-1 7.2381906327212882 299.31577501754816 149.65788750877408 #
coedge $-1 $720 $720 $-1 $902 reversed $474 $-1 #
vertex $-1 $476 $903 #
ellipse-curve $-1 0 0 -1 0 0 -1 2 0 0 1 I I #
point $-1 2 0 -4.0126041444135865 #
coedge $-1 $724 $724 $-1 $904 reversed $479 $-1 #
vertex $-1 $481 $905 #
ellipse-curve $-1 0 0 -1 0 0 -1 2 0 0 1 I I #
point $-1 2 0 -4.0126041444135865 #
face $-1 $-1 $499 $66 $-1 $906 reversed single #
loop $-1 $-1 $744 $484 #
plane-surface $-1 0 299.31577501754816 0 0 -1 0 0 0 -1 forward_v I I I I #
coedge $-1 $907 $742 $745 $908 forward $485 $-1 #
coedge $-1 $748 $487 $488 $736 reversed $305 $-1 #
coedge $-1 $742 $907 $487 $734 reversed $485 $-1 #
edge $-1 $749 -149.65788750877408 $909 149.65788750877408 $733 $910 forward 7 unknown #
coedge $-1 $489 $488 $907 $911 forward $199 $-1 #
edge $-1 $740 -7.2381906327212882 $909 7.2381906327212882 $732 $912 forward 7 unknown #
coedge $-1 $745 $744 $489 $738 reversed $729 $-1 #
edge $-1 $913 -7.2381906327212882 $739 7.2381906327212882 $737 $914 forward 7 unknown #
vertex $-1 $491 $915 #
vertex $-1 $751 $916 #
straight-curve $-1 7.2381906327212882 0 -149.65788750877408 0 -1 0 I I #
coedge $-1 $731 $733 $492 $743 reversed $485 $-1 #
edge $-1 $746 -299.31577501754816 $749 299.31577501754816 $742 $917 forward 7 unknown #
coedge $-1 $737 $493 $498 $752 forward $729 $-1 #
coedge $-1 $493 $737 $731 $908 reversed $729 $-1 #
vertex $-1 $494 $918 #
straight-curve $-1 0 299.31577501754816 149.65788750877408 -1 0 0 I I #
coedge $-1 $495 $732 $497 $751 reversed $305 $-1 #
vertex $-1 $743 $919 #
straight-curve $-1 0 -299.31577501754816 149.65788750877408 1 0 0 I I #
edge $-1 $500 -149.65788750877408 $740 149.65788750877408 $497 $920 forward 7 unknown #
edge $-1 $501 -149.65788750877408 $739 149.65788750877408 $498 $921 forward 7 unknown #
point $-1 7.2381906327212882 -299.31577501754816 149.65788750877408 #
point $-1 7.2381906327212882 299.31577501754816 149.65788750877408 #
coedge $-1 $755 $755 $-1 $922 reversed $503 $-1 #
vertex $-1 $505 $923 #
ellipse-curve $-1 0 0 -1 0 0 -1 2 0 0 1 I I #
point $-1 2 0 -4.0126041444135865 #
coedge $-1 $759 $759 $-1 $924 reversed $508 $-1 #
vertex $-1 $510 $925 #
ellipse-curve $-1 0 0 -1 0 0 -1 2 0 0 1 I I #
point $-1 2 0 -4.0126041444135865 #
face $-1 $-1 $528 $69 $-1 $926 reversed single #
loop $-1 $-1 $779 $513 #
plane-surface $-1 0 299.31577501754816 0 0 -1 0 0 0 -1 forward_v I I I I #
coedge $-1 $927 $777 $780 $928 forward $514 $-1 #
coedge $-1 $783 $516 $517 $771 reversed $323 $-1 #
coedge $-1 $777 $927 $516 $769 reversed $514 $-1 #
edge $-1 $784 -149.65788750877408 $929 149.65788750877408 $768 $930 forward 7 unknown #
coedge $-1 $518 $517 $927 $931 forward $213 $-1 #
edge $-1 $775 -7.2381906327212882 $929 7.2381906327212882 $767 $932 forward 7 unknown #
coedge $-1 $780 $779 $518 $773 reversed $764 $-1 #
edge $-1 $933 -7.2381906327212882 $774 7.2381906327212882 $772 $934 forward 7 unknown #
vertex $-1 $520 $935 #
vertex $-1 $786 $936 #
straight-curve $-1 7.2381906327212882 0 -149.65788750877408 0 -1 0 I I #
coedge $-1 $766 $768 $521 $778 reversed $514 $-1 #
edge $-1 $781 -299.31577501754816 $784 299.31577501754816 $777 $937 forward 7 unknown #
coedge $-1 $772 $522 $527 $787 forward $764 $-1 #
coedge $-1 $522 $772 $766 $928 reversed $764 $-1 #
vertex $-1 $523 $938 #
straight-curve $-1 0 299.31577501754816 149.65788750877408 -1 0 0 I I #
coedge $-1 $524 $767 $526 $786 reversed $323 $-1 #
vertex $-1 $778 $939 #
straight-curve $-1 0 -299.31577501754816 149.65788750877408 1 0 0 I I #
edge $-1 $529 -149.65788750877408 $775 149.65788750877408 $526 $940 forward 7 unknown #
edge $-1 $530 -149.65788750877408 $774 149.65788750877408 $527 $941 forward 7 unknown #
point $-1 7.2381906327212882 -299.31577501754816 149.65788750877408 #
point $-1 7.2381906327212882 299.31577501754816 149.65788750877408 #
coedge $-1 $790 $790 $-1 $942 reversed $532 $-1 #
vertex $-1 $534 $943 #
ellipse-curve $-1 0 0 -1 0 0 -1 2 0 0 1 I I #
point $-1 2 0 -4.0126041444135865 #
coedge $-1 $794 $794 $-1 $944 reversed $537 $-1 #
vertex $-1 $539 $945 #
ellipse-curve $-1 0 0 -1 0 0 -1 2 0 0 1 I I #
point $-1 2 0 -4.0126041444135865 #
plane-surface $-1 74.828943754387041 0 0 -1 0 0 0 0 1 forward_v I I I I #
coedge $-1 $547 $545 $549 $803 reversed $341 $-1 #
edge $-1 $560 -14.437668846625948 $805 14.437668846625948 $559 $946 forward 7 unknown #
vertex $-1 $803 $947 #
straight-curve $-1 -74.828943754387041 -31.431947265438776 0 0 0 -1 I I #
edge $-1 $801 -31.431947265438776 $805 31.431947265438776 $799 $948 forward 7 unknown #
straight-curve $-1 0 -31.431947265438776 -14.437668846625948 -1 0 0 I I #
vertex $-1 $552 $949 #
straight-curve $-1 0 31.431947265438776 -14.437668846625948 1 0 0 I I #
point $-1 74.828943754387041 31.431947265438776 -14.437668846625948 #
point $-1 74.828943754387041 -31.431947265438776 -14.437668846625948 #
straight-curve $-1 -74.828943754387041 0 14.437668846625948 0 -1 0 I I #
point $-1 -74.828943754387041 31.431947265438776 14.437668846625948 #
point $-1 -74.828943754387041 -31.431947265438776 14.437668846625948 #
straight-curve $-1 74.828943754387041 -31.431947265438776 0 0 0 -1 I I #
straight-curve $-1 74.828943754387041 31.431947265438776 0 0 0 -1 I I #
plane-surface $-1 7.7031773019092791 0 0 -1 0 0 0 0 1 forward_v I I I I #
coedge $-1 $574 $572 $576 $819 reversed $360 $-1 #
edge $-1 $587 -14.437668846625948 $821 14.437668846625948 $586 $950 forward 7 unknown #
vertex $-1 $819 $951 #
straight-curve $-1 -7.7031773019092791 -3.9061060851534677 0 0 0 -1 I I #
edge $-1 $817 -3.9061060851534677 $821 3.9061060851534677 $815 $952 forward 7 unknown #
straight-curve $-1 0 -3.9061060851534677 -14.437668846625948 -1 0 0 I I #
vertex $-1 $579 $953 #
straight-curve $-1 0 3.9061060851534677 -14.437668846625948 1 0 0 I I #
point $-1 7.7031773019092791 3.9061060851534677 -14.437668846625948 #
point $-1 7.7031773019092791 -3.9061060851534677 -14.437668846625948 #
straight-curve $-1 -7.7031773019092791 0 14.437668846625948 0 -1 0 I I #
point $-1 -7.7031773019092791 3.9061060851534677 14.437668846625948 #
point $-1 -7.7031773019092791 -3.9061060851534677 14.437668846625948 #
straight-curve $-1 7.7031773019092791 -3.9061060851534677 0 0 0 -1 I I #
straight-curve $-1 7.7031773019092791 3.9061060851534677 0 0 0 -1 I I #
plane-surface $-1 9.8266205792182788 0 0 -1 0 0 0 0 1 forward_v I I I I #
coedge $-1 $601 $599 $603 $835 reversed $379 $-1 #
edge $-1 $614 -149.65788750877408 $837 149.65788750877408 $613 $954 forward 7 unknown #
vertex $-1 $835 $955 #
straight-curve $-1 -9.8266205792182788 -299.31577501754816 0 0 0 -1 I I #
edge $-1 $833 -299.31577501754816 $837 299.31577501754816 $831 $956 forward 7 unknown #
straight-curve $-1 0 -299.31577501754816 -149.65788750877408 -1 0 0 I I #
vertex $-1 $606 $957 #
straight-curve $-1 0 299.31577501754816 -149.65788750877408 1 0 0 I I #
point $-1 9.8266205792182788 299.31577501754816 -149.65788750877408 #
point $-1 9.8266205792182788 -299.31577501754816 -149.65788750877408 #
straight-curve $-1 -9.8266205792182788 0 149.65788750877408 0 -1 0 I I #
point $-1 -9.8266205792182788 299.31577501754816 149.65788750877408 #
point $-1 -9.8266205792182788 -299.31577501754816 149.65788750877408 #
straight-curve $-1 9.8266205792182788 -299.31577501754816 0 0 0 -1 I I #
straight-curve $-1 9.8266205792182788 299.31577501754816 0 0 0 -1 I I #
edge $-1 $958 1 $958 0 $623 $-1 forward 7 unknown #
point $-1 2.5 0 -1.2500000000000004 #
plane-surface $-1 9.8266205792182788 0 0 -1 0 0 0 0 1 forward_v I I I I #
coedge $-1 $632 $630 $634 $853 reversed $403 $-1 #
edge $-1 $645 -149.65788750877408 $855 149.65788750877408 $644 $959 forward 7 unknown #
vertex $-1 $853 $960 #
straight-curve $-1 -9.8266205792182788 -299.31577501754816 0 0 0 -1 I I #
edge $-1 $851 -299.31577501754816 $855 299.31577501754816 $849 $961 forward 7 unknown #
straight-curve $-1 0 -299.31577501754816 -149.65788750877408 -1 0 0 I I #
vertex $-1 $637 $962 #
straight-curve $-1 0 299.31577501754816 -149.65788750877408 1 0 0 I I #
point $-1 9.8266205792182788 299.31577501754816 -149.65788750877408 #
point $-1 9.8266205792182788 -299.31577501754816 -149.65788750877408 #
straight-curve $-1 -9.8266205792182788 0 149.65788750877408 0 -1 0 I I #
point $-1 -9.8266205792182788 299.31577501754816 149.65788750877408 #
point $-1 -9.8266205792182788 -299.31577501754816 149.65788750877408 #
straight-curve $-1 9.8266205792182788 -299.31577501754816 0 0 0 -1 I I #
straight-curve $-1 9.8266205792182788 299.31577501754816 0 0 0 -1 I I #
edge $-1 $963 1 $963 0 $654 $-1 forward 7 unknown #
point $-1 2.5 0 -1.2500000000000004 #
plane-surface $-1 7.2381906327212882 0 0 -1 0 0 0 0 1 forward_v I I I I #
coedge $-1 $663 $661 $665 $871 reversed $427 $-1 #
edge $-1 $676 -149.65788750877408 $873 149.65788750877408 $675 $964 forward 7 unknown #
vertex $-1 $871 $965 #
straight-curve $-1 -7.2381906327212882 -299.31577501754816 0 0 0 -1 I I #
edge $-1 $869 -299.31577501754816 $873 299.31577501754816 $867 $966 forward 7 unknown #
straight-curve $-1 0 -299.31577501754816 -149.65788750877408 -1 0 0 I I #
vertex $-1 $668 $967 #
straight-curve $-1 0 299.31577501754816 -149.65788750877408 1 0 0 I I #
point $-1 7.2381906327212882 299.31577501754816 -149.65788750877408 #
point $-1 7.2381906327212882 -299.31577501754816 -149.65788750877408 #
straight-curve $-1 -7.2381906327212882 0 149.65788750877408 0 -1 0 I I #
point $-1 -7.2381906327212882 299.31577501754816 149.65788750877408 #
point $-1 -7.2381906327212882 -299.31577501754816 149.65788750877408 #
straight-curve $-1 7.2381906327212882 -299.31577501754816 0 0 0 -1 I I #
straight-curve $-1 7.2381906327212882 299.31577501754816 0 0 0 -1 I I #
edge $-1 $968 1 $968 0 $685 $-1 forward 7 unknown #
point $-1 2 0 -1 #
edge $-1 $969 1 $969 0 $689 $-1 forward 7 unknown #
point $-1 2 0 -1 #
plane-surface $-1 7.2381906327212882 0 0 -1 0 0 0 0 1 forward_v I I I I #
coedge $-1 $698 $696 $700 $891 reversed $456 $-1 #
edge $-1 $711 -149.65788750877408 $893 149.65788750877408 $710 $970 forward 7 unknown #
vertex $-1 $891 $971 #
straight-curve $-1 -7.2381906327212882 -299.31577501754816 0 0 0 -1 I I #
edge $-1 $889 -299.31577501754816 $893 299.31577501754816 $887 $972 forward 7 unknown #
straight-curve $-1 0 -299.31577501754816 -149.65788750877408 -1 0 0 I I #
vertex $-1 $703 $973 #
straight-curve $-1 0 299.31577501754816 -149.65788750877408 1 0 0 I I #
point $-1 7.2381906327212882 299.31577501754816 -149.65788750877408 #
point $-1 7.2381906327212882 -299.31577501754816 -149.65788750877408 #
straight-curve $-1 -7.2381906327212882 0 149.65788750877408 0 -1 0 I I #
point $-1 -7.2381906327212882 299.31577501754816 149.65788750877408 #
point $-1 -7.2381906327212882 -299.31577501754816 149.65788750877408 #
straight-curve $-1 7.2381906327212882 -299.31577501754816 0 0 0 -1 I I #
straight-curve $-1 7.2381906327212882 299.31577501754816 0 0 0 -1 I I #
edge $-1 $974 1 $974 0 $720 $-1 forward 7 unknown #
point $-1 2 0 -1 #
edge $-1 $975 1 $975 0 $724 $-1 forward 7 unknown #
point $-1 2 0 -1 #
plane-surface $-1 7.2381906327212882 0 0 -1 0 0 0 0 1 forward_v I I I I #
coedge $-1 $733 $731 $735 $911 reversed $485 $-1 #
edge $-1 $746 -149.65788750877408 $913 149.65788750877408 $745 $976 forward 7 unknown #
vertex $-1 $911 $977 #
straight-curve $-1 -7.2381906327212882 -299.31577501754816 0 0 0 -1 I I #
edge $-1 $909 -299.31577501754816 $913 299.31577501754816 $907 $978 forward 7 unknown #
straight-curve $-1 0 -299.31577501754816 -149.65788750877408 -1 0 0 I I #
vertex $-1 $738 $979 #
straight-curve $-1 0 299.31577501754816 -149.65788750877408 1 0 0 I I #
point $-1 7.2381906327212882 299.31577501754816 -149.65788750877408 #
point $-1 7.2381906327212882 -299.31577501754816 -149.65788750877408 #
straight-curve $-1 -7.2381906327212882 0 149.65788750877408 0 -1 0 I I #
point $-1 -7.2381906327212882 299.31577501754816 149.65788750877408 #
point $-1 -7.2381906327212882 -299.31577501754816 149.65788750877408 #
straight-curve $-1 7.2381906327212882 -299.31577501754816 0 0 0 -1 I I #
straight-curve $-1 7.2381906327212882 299.31577501754816 0 0 0 -1 I I #
edge $-1 $980 1 $980 0 $755 $-1 forward 7 unknown #
point $-1 2 0 -1 #
edge $-1 $981 1 $981 0 $759 $-1 forward 7 unknown #
point $-1 2 0 -1 #
plane-surface $-1 7.2381906327212882 0 0 -1 0 0 0 0 1 forward_v I I I I #
coedge $-1 $768 $766 $770 $931 reversed $514 $-1 #
edge $-1 $781 -149.65788750877408 $933 149.65788750877408 $780 $982 forward 7 unknown #
vertex $-1 $931 $983 #
straight-curve $-1 -7.2381906327212882 -299.31577501754816 0 0 0 -1 I I #
edge $-1 $929 -299.31577501754816 $933 299.31577501754816 $927 $984 forward 7 unknown #
straight-curve $-1 0 -299.31577501754816 -149.65788750877408 -1 0 0 I I #
vertex $-1 $773 $985 #
straight-curve $-1 0 299.31577501754816 -149.65788750877408 1 0 0 I I #
point $-1 7.2381906327212882 299.31577501754816 -149.65788750877408 #
point $-1 7.2381906327212882 -299.31577501754816 -149.65788750877408 #
straight-curve $-1 -7.2381906327212882 0 149.65788750877408 0 -1 0 I I #
point $-1 -7.2381906327212882 299.31577501754816 149.65788750877408 #
point $-1 -7.2381906327212882 -299.31577501754816 149.65788750877408 #
straight-curve $-1 7.2381906327212882 -299.31577501754816 0 0 0 -1 I I #
straight-curve $-1 7.2381906327212882 299.31577501754816 0 0 0 -1 I I #
edge $-1 $986 1 $986 0 $790 $-1 forward 7 unknown #
point $-1 2 0 -1 #
edge $-1 $987 1 $987 0 $794 $-1 forward 7 unknown #
point $-1 2 0 -1 #
straight-curve $-1 -74.828943754387041 31.431947265438776 0 0 0 -1 I I #
point $-1 -74.828943754387041 -31.431947265438776 -14.437668846625948 #
straight-curve $-1 -74.828943754387041 0 -14.437668846625948 0 1 0 I I #
point $-1 -74.828943754387041 31.431947265438776 -14.437668846625948 #
straight-curve $-1 -7.7031773019092791 3.9061060851534677 0 0 0 -1 I I #
point $-1 -7.7031773019092791 -3.9061060851534677 -14.437668846625948 #
straight-curve $-1 -7.7031773019092791 0 -14.437668846625948 0 1 0 I I #
point $-1 -7.7031773019092791 3.9061060851534677 -14.437668846625948 #
straight-curve $-1 -9.8266205792182788 299.31577501754816 0 0 0 -1 I I #
point $-1 -9.8266205792182788 -299.31577501754816 -149.65788750877408 #
straight-curve $-1 -9.8266205792182788 0 -149.65788750877408 0 1 0 I I #
point $-1 -9.8266205792182788 299.31577501754816 -149.65788750877408 #
vertex $-1 $846 $988 #
straight-curve $-1 -9.8266205792182788 299.31577501754816 0 0 0 -1 I I #
point $-1 -9.8266205792182788 -299.31577501754816 -149.65788750877408 #
straight-curve $-1 -9.8266205792182788 0 -149.65788750877408 0 1 0 I I #
point $-1 -9.8266205792182788 299.31577501754816 -149.65788750877408 #
vertex $-1 $864 $989 #
straight-curve $-1 -7.2381906327212882 299.31577501754816 0 0 0 -1 I I #
point $-1 -7.2381906327212882 -299.31577501754816 -149.65788750877408 #
straight-curve $-1 -7.2381906327212882 0 -149.65788750877408 0 1 0 I I #
point $-1 -7.2381906327212882 299.31577501754816 -149.65788750877408 #
vertex $-1 $882 $990 #
vertex $-1 $884 $991 #
straight-curve $-1 -7.2381906327212882 299.31577501754816 0 0 0 -1 I I #
point $-1 -7.2381906327212882 -299.31577501754816 -149.65788750877408 #
straight-curve $-1 -7.2381906327212882 0 -149.65788750877408 0 1 0 I I #
point $-1 -7.2381906327212882 299.31577501754816 -149.65788750877408 #
vertex $-1 $902 $992 #
vertex $-1 $904 $993 #
straight-curve $-1 -7.2381906327212882 299.31577501754816 0 0 0 -1 I I #
point $-1 -7.2381906327212882 -299.31577501754816 -149.65788750877408 #
straight-curve $-1 -7.2381906327212882 0 -149.65788750877408 0 1 0 I I #
point $-1 -7.2381906327212882 299.31577501754816 -149.65788750877408 #
vertex $-1 $922 $994 #
vertex $-1 $924 $995 #
straight-curve $-1 -7.2381906327212882 299.31577501754816 0 0 0 -1 I I #
point $-1 -7.2381906327212882 -299.31577501754816 -149.65788750877408 #
straight-curve $-1 -7.2381906327212882 0 -149.65788750877408 0 1 0 I I #
point $-1 -7.2381906327212882 299.31577501754816 -149.65788750877408 #
vertex $-1 $942 $996 #
vertex $-1 $944 $997 #
point $-1 0 0 1.2500000000000004 #
point $-1 0 0 1.2500000000000004 #
point $-1 0 0 1 #
point $-1 0 0 1 #
point $-1 0 0 1 #
point $-1 0 0 1 #
point $-1 0 0 1 #
point $-1 0 0 1 #
point $-1 0 0 1 #
point $-1 0 0 1 #
End-of-ACIS-data 