500 0 3 0           
7 Unknown 11 ACIS 5.0 NT 24 Thu Mar 25 21:27:46 1999 
-1 9.9999999999999995e-007 1e-010 
body $-1 $3 $-1 $4 #
body $-1 $5 $-1 $6 #
body $-1 $7 $-1 $8 #
lump $-1 $-1 $9 $0 #
transform $-1 1 0 0 0 1 0 0 0 1 40.189214758751184 20.67180530611494 4.5732591889571159 1 rotate no_reflect no_shear #
lump $-1 $-1 $10 $1 #
transform $-1 1 0 0 0 1 0 0 0 1 40.189214758751184 20.67180530611494 4.5732591889571159 1 rotate no_reflect no_shear #
lump $-1 $-1 $11 $2 #
transform $-1 1 0 0 0 1 0 0 0 1 40.189214758751184 20.67180530611494 4.5732591889571159 1 rotate no_reflect no_shear #
shell $-1 $-1 $-1 $12 $-1 $3 #
shell $-1 $-1 $-1 $13 $-1 $5 #
shell $-1 $-1 $-1 $14 $-1 $7 #
face $-1 $15 $16 $9 $-1 $17 forward single #
face $-1 $18 $19 $10 $-1 $20 reversed single #
face $-1 $21 $22 $11 $-1 $23 reversed single #
face $-1 $24 $25 $9 $-1 $26 reversed single #
loop $-1 $-1 $27 $12 #
plane-surface $-1 0 0 4.5732591889571159 0 0 1 1 0 0 forward_v I I I I #
face $-1 $28 $29 $10 $-1 $30 reversed single #
loop $-1 $-1 $31 $13 #
plane-surface $-1 0 -23.109459782431529 1.5732591889571159 0 0 1 1 0 0 forward_v I I I I #
face $-1 $32 $33 $11 $-1 $34 forward single #
loop $-1 $-1 $35 $14 #
plane-surface $-1 0 18.51229381023284 -1.5732591889571159 0 0 1 1 0 0 forward_v I I I I #
face $-1 $36 $37 $9 $-1 $38 reversed single #
loop $-1 $-1 $39 $15 #
plane-surface $-1 0 0 -4.5732591889571159 0 0 1 1 0 0 forward_v I I I I #
coedge $-1 $40 $41 $42 $43 forward $16 $-1 #
face $-1 $44 $45 $10 $-1 $46 forward single #
loop $-1 $-1 $47 $18 #
plane-surface $-1 0 -25.547114258748117 3.0732591889571159 0 1 0 0 0 1 forward_v I I I I #
coedge $-1 $48 $49 $50 $51 forward $19 $-1 #
face $-1 $52 $53 $11 $-1 $54 reversed single #
loop $-1 $-1 $55 $21 #
plane-surface $-1 0 16.352782314350744 -3.0732591889571159 0 1 0 0 0 1 forward_v I I I I #
coedge $-1 $56 $57 $58 $59 reversed $22 $-1 #
face $-1 $60 $61 $9 $-1 $62 reversed single #
loop $-1 $-1 $63 $24 #
plane-surface $-1 0 -20.67180530611494 0 0 1 0 0 0 1 forward_v I I I I #
coedge $-1 $64 $65 $66 $67 forward $25 $-1 #
coedge $-1 $68 $27 $69 $70 forward $16 $-1 #
coedge $-1 $27 $68 $71 $72 forward $16 $-1 #
coedge $-1 $73 $74 $27 $43 reversed $75 $-1 #
edge $-1 $76 -20.67180530611494 $77 20.67180530611494 $42 $78 forward 7 unknown #
face $-1 $79 $80 $10 $-1 $81 reversed single #
loop $-1 $-1 $82 $28 #
plane-surface $-1 0 0 4.5732591889571159 0 0 1 1 0 0 forward_v I I I I #
coedge $-1 $83 $84 $85 $86 forward $29 $-1 #
coedge $-1 $87 $31 $83 $88 forward $19 $-1 #
coedge $-1 $31 $87 $89 $90 reversed $19 $-1 #
coedge $-1 $91 $92 $31 $51 reversed $93 $-1 #
edge $-1 $94 -2.4376544763165882 $95 2.4376544763165882 $50 $96 forward 7 unknown #
face $-1 $97 $98 $11 $-1 $99 reversed single #
loop $-1 $-1 $100 $32 #
plane-surface $-1 0 20.67180530611494 0 0 -1 0 0 0 -1 forward_v I I I I #
coedge $-1 $101 $102 $103 $104 reversed $33 $-1 #
coedge $-1 $105 $35 $101 $106 reversed $22 $-1 #
coedge $-1 $35 $105 $100 $107 reversed $22 $-1 #
coedge $-1 $108 $109 $35 $59 forward $110 $-1 #
edge $-1 $111 7.0966354092343238 $112 11.415658400998517 $58 $113 forward 7 unknown #
face $-1 $114 $115 $9 $-1 $116 reversed single #
loop $-1 $-1 $117 $36 #
plane-surface $-1 -40.189214758751184 0 0 1 0 0 0 0 -1 forward_v I I I I #
coedge $-1 $118 $71 $119 $120 forward $37 $-1 #
coedge $-1 $121 $39 $118 $122 forward $25 $-1 #
coedge $-1 $39 $121 $123 $124 forward $25 $-1 #
coedge $-1 $74 $73 $39 $67 reversed $75 $-1 #
edge $-1 $125 -20.67180530611494 $126 20.67180530611494 $66 $127 forward 7 unknown #
coedge $-1 $41 $40 $128 $129 forward $16 $-1 #
coedge $-1 $130 $131 $40 $70 reversed $115 $-1 #
edge $-1 $77 -40.189214758751184 $132 40.189214758751184 $69 $133 forward 7 unknown #
coedge $-1 $63 $134 $41 $72 reversed $37 $-1 #
edge $-1 $135 -40.189214758751184 $76 40.189214758751184 $71 $136 forward 7 unknown #
coedge $-1 $66 $42 $134 $137 forward $75 $-1 #
coedge $-1 $42 $66 $130 $138 reversed $75 $-1 #
loop $-1 $-1 $73 $114 #
vertex $-1 $43 $139 #
vertex $-1 $43 $140 #
straight-curve $-1 40.189214758751184 0 4.5732591889571159 0 1 0 I I #
face $-1 $141 $142 $10 $-1 $143 reversed single #
loop $-1 $-1 $144 $44 #
plane-surface $-1 0 0 -4.5732591889571159 0 0 1 1 0 0 forward_v I I I I #
coedge $-1 $145 $146 $147 $148 forward $45 $-1 #
coedge $-1 $149 $47 $48 $88 reversed $29 $-1 #
coedge $-1 $47 $149 $146 $150 reversed $29 $-1 #
coedge $-1 $151 $152 $47 $86 reversed $153 $-1 #
edge $-1 $154 -1.5 $155 1.5 $85 $156 forward 7 unknown #
coedge $-1 $49 $48 $152 $157 forward $19 $-1 #
edge $-1 $95 -40.189214758751184 $155 40.189214758751184 $83 $158 forward 7 unknown #
coedge $-1 $159 $160 $49 $90 forward $142 $-1 #
edge $-1 $94 -40.189214758751184 $161 40.189214758751184 $89 $162 forward 7 unknown #
coedge $-1 $163 $50 $160 $164 forward $93 $-1 #
coedge $-1 $50 $147 $149 $165 forward $93 $-1 #
loop $-1 $-1 $91 $166 #
vertex $-1 $164 $167 #
vertex $-1 $165 $168 #
straight-curve $-1 40.189214758751184 -23.109459782431529 1.5732591889571159 0 -1 0 I I #
face $-1 $169 $170 $11 $-1 $171 reversed single #
loop $-1 $-1 $172 $52 #
plane-surface $-1 -40.189214758751184 0 0 1 0 0 0 0 -1 forward_v I I I I #
coedge $-1 $173 $174 $57 $107 forward $53 $-1 #
coedge $-1 $175 $55 $56 $106 forward $33 $-1 #
coedge $-1 $55 $175 $176 $177 reversed $33 $-1 #
coedge $-1 $178 $172 $55 $104 forward $98 $-1 #
edge $-1 $179 0.036629594478557959 $180 3.036629594478558 $103 $181 forward 7 unknown #
coedge $-1 $57 $56 $172 $182 reversed $22 $-1 #
edge $-1 $179 -40.189214758751184 $111 40.189214758751184 $101 $183 forward 7 unknown #
edge $-1 $112 -40.189214758751184 $184 40.189214758751184 $100 $185 forward 7 unknown #
coedge $-1 $186 $58 $174 $187 reversed $110 $-1 #
coedge $-1 $58 $188 $175 $189 forward $110 $-1 #
loop $-1 $-1 $58 $190 #
vertex $-1 $59 $191 #
vertex $-1 $107 $192 #
straight-curve $-1 40.189214758751184 9.2561469051164202 -1.5732591889571159 0 1 0 I I #
face $-1 $-1 $75 $9 $-1 $193 reversed single #
loop $-1 $-1 $130 $60 #
plane-surface $-1 0 20.67180530611494 0 0 -1 0 0 0 -1 forward_v I I I I #
coedge $-1 $194 $128 $131 $195 forward $61 $-1 #
coedge $-1 $134 $63 $64 $122 reversed $37 $-1 #
coedge $-1 $128 $194 $63 $120 reversed $61 $-1 #
edge $-1 $135 -4.5732591889571159 $196 4.5732591889571159 $119 $197 forward 7 unknown #
coedge $-1 $65 $64 $194 $198 forward $25 $-1 #
edge $-1 $126 -40.189214758751184 $196 40.189214758751184 $118 $199 forward 7 unknown #
coedge $-1 $131 $130 $65 $124 reversed $115 $-1 #
edge $-1 $200 -40.189214758751184 $125 40.189214758751184 $123 $201 forward 7 unknown #
vertex $-1 $67 $202 #
vertex $-1 $137 $203 #
straight-curve $-1 40.189214758751184 0 -4.5732591889571159 0 -1 0 I I #
coedge $-1 $117 $119 $68 $129 reversed $61 $-1 #
edge $-1 $132 -20.67180530611494 $135 20.67180530611494 $128 $204 forward 7 unknown #
coedge $-1 $123 $69 $74 $138 forward $115 $-1 #
coedge $-1 $69 $123 $117 $195 reversed $115 $-1 #
vertex $-1 $70 $205 #
straight-curve $-1 0 20.67180530611494 4.5732591889571159 -1 0 0 I I #
coedge $-1 $71 $118 $73 $137 reversed $37 $-1 #
vertex $-1 $129 $206 #
straight-curve $-1 0 -20.67180530611494 4.5732591889571159 1 0 0 I I #
edge $-1 $76 -4.5732591889571159 $126 4.5732591889571159 $73 $207 forward 7 unknown #
edge $-1 $77 -4.5732591889571159 $125 4.5732591889571159 $74 $208 forward 7 unknown #
point $-1 40.189214758751184 -20.67180530611494 4.5732591889571159 #
point $-1 40.189214758751184 20.67180530611494 4.5732591889571159 #
face $-1 $209 $153 $10 $-1 $210 reversed single #
loop $-1 $-1 $89 $79 #
plane-surface $-1 0 -20.67180530611494 0 0 1 0 0 0 1 forward_v I I I I #
coedge $-1 $211 $212 $163 $213 forward $80 $-1 #
coedge $-1 $214 $82 $215 $216 forward $45 $-1 #
coedge $-1 $82 $214 $84 $150 forward $45 $-1 #
coedge $-1 $92 $217 $82 $148 reversed $93 $-1 #
edge $-1 $218 -25.547114258748117 $219 20.67180530611494 $147 $220 forward 7 unknown #
coedge $-1 $84 $83 $92 $165 reversed $29 $-1 #
edge $-1 $154 -40.189214758751184 $218 40.189214758751184 $84 $221 forward 7 unknown #
coedge $-1 $222 $85 $214 $223 reversed $153 $-1 #
coedge $-1 $85 $224 $87 $157 reversed $153 $-1 #
loop $-1 $-1 $222 $141 #
vertex $-1 $223 $225 #
vertex $-1 $157 $226 #
straight-curve $-1 -40.189214758751184 -25.547114258748117 3.0732591889571159 0 0 -1 I I #
edge $-1 $155 -2.4376544763165882 $161 2.4376544763165882 $152 $227 forward 7 unknown #
straight-curve $-1 0 -25.547114258748117 1.5732591889571159 -1 0 0 I I #
coedge $-1 $228 $89 $224 $229 forward $142 $-1 #
coedge $-1 $89 $228 $91 $164 reversed $142 $-1 #
vertex $-1 $229 $230 #
straight-curve $-1 0 -20.67180530611494 1.5732591889571159 -1 0 0 I I #
coedge $-1 $217 $91 $144 $213 reversed $93 $-1 #
edge $-1 $94 -1.5732591889571159 $231 4.5732591889571159 $91 $232 forward 7 unknown #
edge $-1 $218 -1.5 $95 1.5 $92 $233 forward 7 unknown #
face $-1 $-1 $93 $10 $-1 $234 reversed single #
point $-1 40.189214758751184 -20.67180530611494 1.5732591889571159 #
point $-1 40.189214758751184 -25.547114258748117 1.5732591889571159 #
face $-1 $235 $236 $11 $-1 $237 reversed single #
loop $-1 $-1 $238 $97 #
plane-surface $-1 0 -23.109459782431529 1.5732591889571159 0 0 1 1 0 0 forward_v I I I I #
coedge $-1 $103 $239 $105 $182 forward $98 $-1 #
coedge $-1 $240 $100 $239 $241 reversed $53 $-1 #
coedge $-1 $100 $240 $108 $187 forward $53 $-1 #
coedge $-1 $102 $101 $109 $189 reversed $33 $-1 #
coedge $-1 $242 $243 $102 $177 forward $244 $-1 #
edge $-1 $180 -40.189214758751184 $245 40.189214758751184 $176 $246 forward 7 unknown #
coedge $-1 $247 $103 $243 $248 reversed $98 $-1 #
vertex $-1 $182 $249 #
vertex $-1 $104 $250 #
straight-curve $-1 -40.189214758751184 16.352782314350744 -1.536629594478558 0 0 -1 I I #
edge $-1 $184 -11.415658400998517 $179 -7.0966354092343238 $172 $251 forward 7 unknown #
straight-curve $-1 0 16.352782314350744 -1.5732591889571159 1 0 0 I I #
vertex $-1 $182 $252 #
straight-curve $-1 0 20.67180530611494 -1.5732591889571159 -1 0 0 I I #
coedge $-1 $253 $108 $254 $255 reversed $110 $-1 #
edge $-1 $256 -4.5732591889571159 $112 1.5732591889571159 $108 $257 forward 7 unknown #
coedge $-1 $109 $258 $242 $259 reversed $110 $-1 #
edge $-1 $245 -3.036629594478558 $111 -0.036629594478557959 $109 $260 forward 7 unknown #
face $-1 $-1 $110 $11 $-1 $261 reversed single #
point $-1 40.189214758751184 16.352782314350744 -1.5732591889571159 #
point $-1 40.189214758751184 20.671805306114937 -1.5732591889571159 #
plane-surface $-1 40.189214758751184 0 0 -1 0 0 0 0 1 forward_v I I I I #
coedge $-1 $119 $117 $121 $198 reversed $61 $-1 #
edge $-1 $132 -4.5732591889571159 $200 4.5732591889571159 $131 $262 forward 7 unknown #
vertex $-1 $198 $263 #
straight-curve $-1 -40.189214758751184 -20.67180530611494 0 0 0 -1 I I #
edge $-1 $196 -20.67180530611494 $200 20.67180530611494 $194 $264 forward 7 unknown #
straight-curve $-1 0 -20.67180530611494 -4.5732591889571159 -1 0 0 I I #
vertex $-1 $124 $265 #
straight-curve $-1 0 20.67180530611494 -4.5732591889571159 1 0 0 I I #
point $-1 40.189214758751184 20.67180530611494 -4.5732591889571159 #
point $-1 40.189214758751184 -20.67180530611494 -4.5732591889571159 #
straight-curve $-1 -40.189214758751184 0 4.5732591889571159 0 -1 0 I I #
point $-1 -40.189214758751184 20.67180530611494 4.5732591889571159 #
point $-1 -40.189214758751184 -20.67180530611494 4.5732591889571159 #
straight-curve $-1 40.189214758751184 -20.67180530611494 0 0 0 -1 I I #
straight-curve $-1 40.189214758751184 20.67180530611494 0 0 0 -1 I I #
face $-1 $166 $266 $10 $-1 $267 reversed single #
plane-surface $-1 -40.189214758751184 0 0 1 0 0 0 0 -1 forward_v I I I I #
coedge $-1 $268 $144 $228 $269 forward $80 $-1 #
coedge $-1 $144 $268 $270 $271 forward $80 $-1 #
edge $-1 $272 -20.67180530611494 $231 20.67180530611494 $163 $273 forward 7 unknown #
coedge $-1 $146 $145 $151 $223 forward $45 $-1 #
coedge $-1 $274 $275 $145 $216 reversed $266 $-1 #
edge $-1 $219 -40.189214758751184 $276 40.189214758751184 $215 $277 forward 7 unknown #
coedge $-1 $147 $163 $274 $278 reversed $93 $-1 #
vertex $-1 $148 $279 #
vertex $-1 $148 $280 #
straight-curve $-1 40.189214758751184 0 4.5732591889571159 0 1 0 I I #
straight-curve $-1 0 -25.547114258748117 4.5732591889571159 1 0 0 I I #
coedge $-1 $281 $151 $275 $282 forward $153 $-1 #
edge $-1 $276 -20.67180530611494 $154 25.547114258748117 $151 $283 forward 7 unknown #
coedge $-1 $152 $281 $159 $229 reversed $153 $-1 #
point $-1 -40.189214758751184 -25.547114258748117 4.5732591889571159 #
point $-1 -40.189214758751184 -25.547114258748117 1.5732591889571159 #
straight-curve $-1 -40.189214758751184 -23.109459782431529 1.5732591889571159 0 1 0 I I #
coedge $-1 $160 $159 $211 $269 reversed $142 $-1 #
edge $-1 $161 -1.5732591889571159 $284 4.5732591889571159 $224 $285 forward 7 unknown #
point $-1 -40.189214758751184 -20.67180530611494 1.5732591889571159 #
vertex $-1 $164 $286 #
straight-curve $-1 40.189214758751184 -20.67180530611494 0 0 0 -1 I I #
straight-curve $-1 40.189214758751184 -25.547114258748117 3.0732591889571159 0 0 -1 I I #
plane-surface $-1 40.189214758751184 0 0 -1 0 0 0 0 1 forward_v I I I I #
face $-1 $287 $288 $11 $-1 $289 forward single #
loop $-1 $-1 $290 $169 #
plane-surface $-1 0 -25.547114258748117 3.0732591889571159 0 1 0 0 0 1 forward_v I I I I #
coedge $-1 $291 $292 $293 $294 forward $170 $-1 #
coedge $-1 $172 $295 $173 $241 forward $98 $-1 #
coedge $-1 $174 $173 $296 $297 reversed $53 $-1 #
edge $-1 $298 -4.5732591889571159 $184 1.5732591889571159 $173 $299 forward 7 unknown #
coedge $-1 $300 $176 $188 $259 forward $244 $-1 #
coedge $-1 $176 $300 $178 $248 forward $244 $-1 #
loop $-1 $-1 $176 $287 #
vertex $-1 $259 $301 #
straight-curve $-1 0 16.352782314350744 -4.5732591889571159 1 0 0 I I #
coedge $-1 $302 $178 $303 $304 reversed $98 $-1 #
edge $-1 $305 -20.67180530611494 $180 16.352782314350744 $178 $306 forward 7 unknown #
point $-1 -40.189214758751184 16.352782314350744 -1.5732591889571159 #
point $-1 -40.189214758751184 16.352782314350744 -4.5732591889571159 #
straight-curve $-1 -40.189214758751184 9.2561469051164202 -1.5732591889571159 0 -1 0 I I #
point $-1 -40.189214758751184 20.671805306114937 -1.5732591889571159 #
coedge $-1 $293 $186 $307 $308 forward $110 $-1 #
coedge $-1 $296 $309 $186 $255 forward $288 $-1 #
edge $-1 $310 -25.547114258748117 $256 20.67180530611494 $186 $311 forward 7 unknown #
vertex $-1 $255 $312 #
straight-curve $-1 40.189214758751184 20.67180530611494 0 0 0 -1 I I #
coedge $-1 $188 $293 $313 $314 forward $110 $-1 #
edge $-1 $245 -16.352782314350744 $315 20.67180530611494 $188 $316 forward 7 unknown #
straight-curve $-1 40.189214758751184 16.352782314350744 -1.536629594478558 0 0 1 I I #
plane-surface $-1 40.189214758751184 0 0 -1 0 0 0 0 1 forward_v I I I I #
straight-curve $-1 -40.189214758751184 20.67180530611494 0 0 0 -1 I I #
point $-1 -40.189214758751184 -20.67180530611494 -4.5732591889571159 #
straight-curve $-1 -40.189214758751184 0 -4.5732591889571159 0 1 0 I I #
point $-1 -40.189214758751184 20.67180530611494 -4.5732591889571159 #
loop $-1 $-1 $274 $209 #
plane-surface $-1 0 20.67180530611494 0 0 -1 0 0 0 -1 forward_v I I I I #
coedge $-1 $212 $211 $281 $317 forward $80 $-1 #
edge $-1 $231 -40.189214758751184 $284 40.189214758751184 $228 $318 forward 7 unknown #
coedge $-1 $275 $274 $212 $271 reversed $266 $-1 #
edge $-1 $319 -40.189214758751184 $272 40.189214758751184 $270 $320 forward 7 unknown #
vertex $-1 $213 $321 #
straight-curve $-1 40.189214758751184 0 -4.5732591889571159 0 -1 0 I I #
coedge $-1 $270 $215 $217 $278 forward $266 $-1 #
coedge $-1 $215 $270 $222 $282 reversed $266 $-1 #
vertex $-1 $216 $322 #
straight-curve $-1 0 20.67180530611494 4.5732591889571159 -1 0 0 I I #
edge $-1 $219 -4.5732591889571159 $272 4.5732591889571159 $217 $323 forward 7 unknown #
point $-1 40.189214758751184 -25.547114258748117 4.5732591889571159 #
point $-1 40.189214758751184 20.67180530611494 4.5732591889571159 #
coedge $-1 $224 $222 $268 $317 reversed $153 $-1 #
edge $-1 $276 -4.5732591889571159 $319 4.5732591889571159 $275 $324 forward 7 unknown #
straight-curve $-1 -40.189214758751184 0 4.5732591889571159 0 -1 0 I I #
vertex $-1 $317 $325 #
straight-curve $-1 -40.189214758751184 -20.67180530611494 0 0 0 -1 I I #
point $-1 40.189214758751184 -20.67180530611494 -4.5732591889571159 #
face $-1 $326 $244 $11 $-1 $327 reversed single #
loop $-1 $-1 $254 $235 #
plane-surface $-1 0 0 4.5732591889571159 0 0 1 1 0 0 forward_v I I I I #
coedge $-1 $328 $329 $330 $331 forward $236 $-1 #
coedge $-1 $332 $238 $328 $333 forward $170 $-1 #
coedge $-1 $238 $332 $334 $335 reversed $170 $-1 #
coedge $-1 $258 $253 $238 $294 reversed $110 $-1 #
edge $-1 $336 -2.4376544763165882 $337 2.4376544763165882 $293 $338 forward 7 unknown #
coedge $-1 $239 $330 $339 $340 reversed $98 $-1 #
coedge $-1 $339 $254 $240 $297 forward $288 $-1 #
edge $-1 $256 -40.189214758751184 $298 40.189214758751184 $240 $341 forward 7 unknown #
vertex $-1 $297 $342 #
straight-curve $-1 -40.189214758751184 20.67180530611494 0 0 0 -1 I I #
coedge $-1 $243 $242 $343 $344 forward $244 $-1 #
point $-1 40.189214758751184 16.352782314350744 -4.5732591889571159 #
coedge $-1 $330 $247 $332 $345 reversed $98 $-1 #
coedge $-1 $343 $334 $247 $304 forward $346 $-1 #
edge $-1 $347 -1.5732591889571159 $305 4.5732591889571159 $247 $348 forward 7 unknown #
vertex $-1 $248 $349 #
straight-curve $-1 -40.189214758751184 0 -4.5732591889571159 0 1 0 I I #
coedge $-1 $329 $328 $253 $308 reversed $236 $-1 #
edge $-1 $310 -1.5 $337 1.5 $253 $350 forward 7 unknown #
coedge $-1 $254 $339 $329 $351 forward $288 $-1 #
vertex $-1 $255 $352 #
straight-curve $-1 40.189214758751184 0 4.5732591889571159 0 1 0 I I #
point $-1 40.189214758751184 20.67180530611494 4.5732591889571159 #
coedge $-1 $334 $343 $258 $314 reversed $346 $-1 #
edge $-1 $336 -1.5732591889571159 $315 4.5732591889571159 $258 $353 forward 7 unknown #
vertex $-1 $314 $354 #
straight-curve $-1 40.189214758751184 0 -4.5732591889571159 0 -1 0 I I #
edge $-1 $284 -20.67180530611494 $319 20.67180530611494 $281 $355 forward 7 unknown #
straight-curve $-1 0 -20.67180530611494 -4.5732591889571159 -1 0 0 I I #
vertex $-1 $271 $356 #
straight-curve $-1 0 20.67180530611494 -4.5732591889571159 1 0 0 I I #
point $-1 40.189214758751184 20.67180530611494 -4.5732591889571159 #
point $-1 -40.189214758751184 20.67180530611494 4.5732591889571159 #
straight-curve $-1 40.189214758751184 20.67180530611494 0 0 0 -1 I I #
straight-curve $-1 -40.189214758751184 20.67180530611494 0 0 0 -1 I I #
point $-1 -40.189214758751184 -20.67180530611494 -4.5732591889571159 #
face $-1 $190 $346 $11 $-1 $357 reversed single #
plane-surface $-1 0 0 -4.5732591889571159 0 0 1 1 0 0 forward_v I I I I #
coedge $-1 $307 $290 $291 $333 reversed $236 $-1 #
coedge $-1 $290 $307 $309 $351 reversed $236 $-1 #
coedge $-1 $295 $302 $290 $331 reversed $98 $-1 #
edge $-1 $358 -1.5 $359 1.5 $330 $360 forward 7 unknown #
coedge $-1 $292 $291 $302 $345 forward $170 $-1 #
edge $-1 $337 -40.189214758751184 $359 40.189214758751184 $328 $361 forward 7 unknown #
coedge $-1 $303 $313 $292 $335 forward $346 $-1 #
edge $-1 $336 -40.189214758751184 $347 40.189214758751184 $334 $362 forward 7 unknown #
vertex $-1 $314 $363 #
vertex $-1 $308 $364 #
straight-curve $-1 40.189214758751184 -23.109459782431529 1.5732591889571159 0 -1 0 I I #
coedge $-1 $309 $296 $295 $340 forward $288 $-1 #
edge $-1 $298 -20.67180530611494 $358 25.547114258748117 $295 $365 forward 7 unknown #
straight-curve $-1 0 20.67180530611494 4.5732591889571159 -1 0 0 I I #
point $-1 -40.189214758751184 20.67180530611494 4.5732591889571159 #
coedge $-1 $313 $303 $300 $344 reversed $346 $-1 #
edge $-1 $315 -40.189214758751184 $305 40.189214758751184 $343 $366 forward 7 unknown #
edge $-1 $359 -2.4376544763165882 $347 2.4376544763165882 $302 $367 forward 7 unknown #
loop $-1 $-1 $334 $326 #
vertex $-1 $304 $368 #
straight-curve $-1 -40.189214758751184 -20.67180530611494 0 0 0 -1 I I #
point $-1 -40.189214758751184 -20.67180530611494 -4.5732591889571159 #
straight-curve $-1 40.189214758751184 -25.547114258748117 3.0732591889571159 0 0 -1 I I #
edge $-1 $358 -40.189214758751184 $310 40.189214758751184 $329 $369 forward 7 unknown #
point $-1 40.189214758751184 -25.547114258748117 4.5732591889571159 #
straight-curve $-1 40.189214758751184 -20.67180530611494 0 0 0 -1 I I #
point $-1 40.189214758751184 -20.67180530611494 -4.5732591889571159 #
straight-curve $-1 -40.189214758751184 0 -4.5732591889571159 0 1 0 I I #
point $-1 -40.189214758751184 20.67180530611494 -4.5732591889571159 #
plane-surface $-1 0 -20.67180530611494 0 0 1 0 0 0 1 forward_v I I I I #
vertex $-1 $340 $370 #
vertex $-1 $345 $371 #
straight-curve $-1 -40.189214758751184 -25.547114258748117 3.0732591889571159 0 0 -1 I I #
straight-curve $-1 0 -25.547114258748117 1.5732591889571159 -1 0 0 I I #
straight-curve $-1 0 -20.67180530611494 1.5732591889571159 -1 0 0 I I #
point $-1 40.189214758751184 -20.67180530611494 1.5732591889571159 #
point $-1 40.189214758751184 -25.547114258748117 1.5732591889571159 #
straight-curve $-1 -40.189214758751184 0 4.5732591889571159 0 -1 0 I I #
straight-curve $-1 0 -20.67180530611494 -4.5732591889571159 -1 0 0 I I #
straight-curve $-1 -40.189214758751184 -23.109459782431529 1.5732591889571159 0 1 0 I I #
point $-1 -40.189214758751184 -20.67180530611494 1.5732591889571159 #
straight-curve $-1 0 -25.547114258748117 4.5732591889571159 1 0 0 I I #
point $-1 -40.189214758751184 -25.547114258748117 4.5732591889571159 #
point $-1 -40.189214758751184 -25.547114258748117 1.5732591889571159 #
End-of-ACIS-data 