500 0 8 0           
7 Unknown 11 ACIS 5.0 NT 24 Thu Mar 25 21:19:48 1999 
-1 9.9999999999999995e-007 1e-010 
body $-1 $8 $-1 $9 #
body $-1 $10 $-1 $11 #
body $-1 $12 $-1 $13 #
body $-1 $14 $-1 $15 #
body $-1 $16 $-1 $17 #
body $-1 $18 $-1 $19 #
body $-1 $20 $-1 $21 #
body $-1 $22 $-1 $23 #
lump $-1 $-1 $24 $0 #
transform $-1 1 0 0 0 1 0 0 0 1 68.623920407727283 37.284190430696938 8.8601582575978224 1 rotate no_reflect no_shear #
lump $-1 $-1 $25 $1 #
transform $-1 1 0 0 0 1 0 0 0 1 68.623920407727283 37.284190430696938 8.8601582575978224 1 rotate no_reflect no_shear #
lump $-1 $-1 $26 $2 #
transform $-1 1 0 0 0 1 0 0 0 1 68.623920407727283 37.284190430696938 8.8601582575978224 1 rotate no_reflect no_shear #
lump $-1 $-1 $27 $3 #
transform $-1 1 0 0 0 1 0 0 0 1 68.623920407727283 37.284190430696938 8.8601582575978224 1 rotate no_reflect no_shear #
lump $-1 $-1 $28 $4 #
transform $-1 1 0 0 0 1 0 0 0 1 68.623920407727283 37.284190430696938 8.8601582575978224 1 rotate no_reflect no_shear #
lump $-1 $-1 $29 $5 #
transform $-1 1 0 0 0 1 0 0 0 1 68.623920407727283 37.284190430696938 8.8601582575978224 1 rotate no_reflect no_shear #
lump $-1 $-1 $30 $6 #
transform $-1 1 0 0 0 1 0 0 0 1 68.623920407727283 37.284190430696938 8.8601582575978224 1 rotate no_reflect no_shear #
lump $-1 $-1 $31 $7 #
transform $-1 1 0 0 0 1 0 0 0 1 68.623920407727283 37.284190430696938 8.8601582575978224 1 rotate no_reflect no_shear #
shell $-1 $-1 $-1 $32 $-1 $8 #
shell $-1 $-1 $-1 $33 $-1 $10 #
shell $-1 $-1 $-1 $34 $-1 $12 #
shell $-1 $-1 $-1 $35 $-1 $14 #
shell $-1 $-1 $-1 $36 $-1 $16 #
shell $-1 $-1 $-1 $37 $-1 $18 #
shell $-1 $-1 $-1 $38 $-1 $20 #
shell $-1 $-1 $-1 $39 $-1 $22 #
face $-1 $40 $41 $24 $-1 $42 forward single #
face $-1 $43 $44 $25 $-1 $45 forward single #
face $-1 $46 $47 $26 $-1 $48 reversed single #
face $-1 $49 $50 $27 $-1 $51 forward single #
face $-1 $52 $53 $28 $-1 $54 forward single #
face $-1 $55 $56 $29 $-1 $57 forward single #
face $-1 $58 $59 $30 $-1 $60 reversed single #
face $-1 $61 $62 $31 $-1 $63 forward single #
face $-1 $64 $65 $24 $-1 $66 reversed single #
loop $-1 $-1 $67 $32 #
plane-surface $-1 0 0 8.8601582575978224 0 0 1 1 0 0 forward_v I I I I #
face $-1 $68 $69 $25 $-1 $70 reversed single #
loop $-1 $-1 $71 $33 #
plane-surface $-1 -64.87958351189441 0 4.1771565498235441 0 0 1 1 0 0 forward_v I I I I #
face $-1 $72 $73 $26 $-1 $74 reversed single #
loop $-1 $-1 $75 $34 #
plane-surface $-1 47.968662395721893 73.705816640448717 154.75375284463408 1 0 0 0 -0.66913061440640931 -0.74314481823134659 forward_v I I I I #
face $-1 $76 $77 $27 $-1 $78 forward single #
loop $-1 $79 $80 $35 #
cone-surface $-1 52.099713998122965 33.258387124097375 5.0891292263679002 0 -0.66913061440640931 -0.74314481823134659 1 0 0 1 I I 0 1 1 forward I I I I #
face $-1 $81 $82 $28 $-1 $83 forward single #
loop $-1 $84 $85 $36 #
cone-surface $-1 58.296291401724574 33.258387124097375 5.0891292263679002 0 -0.66913061440640931 -0.74314481823134659 1 0 0 1 I I 0 1 1 forward I I I I #
face $-1 $86 $87 $29 $-1 $88 forward single #
loop $-1 $89 $90 $37 #
cone-surface $-1 64.492868805326182 33.258387124097375 5.0891292263679002 0 -0.66913061440640931 -0.74314481823134659 1 0 0 1 I I 0 1 1 forward I I I I #
face $-1 $91 $92 $30 $-1 $93 reversed single #
loop $-1 $-1 $94 $38 #
plane-surface $-1 -25.055384991122168 -156.1443082530601 73.272771187380087 -1 0 0 0 -0.86602541151947299 0.49999998660252726 forward_v I I I I #
face $-1 $95 $96 $31 $-1 $97 forward single #
loop $-1 $98 $99 $39 #
cone-surface $-1 -41.477144742475616 -35.63547854616246 6.5045054447111523 0 0.86602541151947299 -0.49999998660252726 0.25 0 0 1 I I 0 1 0.25 forward I I I I #
face $-1 $100 $101 $24 $-1 $102 reversed single #
loop $-1 $-1 $103 $40 #
plane-surface $-1 0 0 -8.8601582575978224 0 0 1 1 0 0 forward_v I I I I #
coedge $-1 $104 $105 $106 $107 forward $41 $-1 #
face $-1 $108 $109 $25 $-1 $110 reversed single #
loop $-1 $-1 $111 $43 #
plane-surface $-1 -64.87958351189441 0 0.70323470166343593 0 0 1 1 0 0 forward_v I I I I #
coedge $-1 $112 $113 $114 $115 forward $44 $-1 #
face $-1 $116 $117 $26 $-1 $118 forward single #
loop $-1 $-1 $119 $46 #
plane-surface $-1 58.296291401724574 -18.130915410349459 52.758731129188305 0 0.66913061440640931 0.74314481823134659 1 0 0 forward_v I I I I #
coedge $-1 $120 $121 $122 $123 reversed $47 $-1 #
face $-1 $-1 $124 $27 $-1 $125 forward single #
loop $-1 $126 $127 $49 #
cone-surface $-1 52.099713998122965 32.228419754523841 3.9452346007648718 0 -0.66913061440640931 -0.74314481823134659 0.5 0 0 1 I I -0.70710678118654746 0.70710678118654746 0.5 forward I I I I #
loop $-1 $-1 $128 $35 #
coedge $-1 $80 $80 $129 $130 reversed $50 $-1 #
face $-1 $-1 $131 $28 $-1 $132 forward single #
loop $-1 $133 $134 $52 #
cone-surface $-1 58.296291401724574 32.228419754523841 3.9452346007648718 0 -0.66913061440640931 -0.74314481823134659 0.5 0 0 1 I I -0.70710678118654746 0.70710678118654746 0.5 forward I I I I #
loop $-1 $-1 $135 $36 #
coedge $-1 $85 $85 $136 $137 reversed $53 $-1 #
face $-1 $-1 $138 $29 $-1 $139 forward single #
loop $-1 $140 $141 $55 #
cone-surface $-1 64.492868805326182 32.228419754523841 3.9452346007648718 0 -0.66913061440640931 -0.74314481823134659 0.5 0 0 1 I I -0.70710678118654746 0.70710678118654746 0.5 forward I I I I #
loop $-1 $-1 $142 $37 #
coedge $-1 $90 $90 $143 $144 reversed $56 $-1 #
face $-1 $145 $146 $30 $-1 $147 reversed single #
loop $-1 $-1 $148 $58 #
plane-surface $-1 -41.477144742475616 -37.284190430696938 4.6488526184270142 0 -0.86602541151947299 0.49999998660252726 1 0 0 forward_v I I I I #
coedge $-1 $149 $150 $151 $152 reversed $59 $-1 #
face $-1 $-1 $153 $31 $-1 $154 forward single #
loop $-1 $155 $156 $61 #
cone-surface $-1 -41.477144742475616 -35.094212663962793 6.1920054530845725 0 0.86602541151947299 -0.49999998660252726 0.125 0 0 1 I I -0.70710678118654746 0.70710678118654746 0.125 forward I I I I #
loop $-1 $-1 $157 $39 #
coedge $-1 $99 $99 $158 $159 reversed $62 $-1 #
face $-1 $160 $161 $24 $-1 $162 reversed single #
loop $-1 $-1 $163 $64 #
plane-surface $-1 0 -37.284190430696938 0 0 1 0 0 0 1 forward_v I I I I #
coedge $-1 $164 $165 $166 $167 forward $65 $-1 #
coedge $-1 $168 $67 $169 $170 forward $41 $-1 #
coedge $-1 $67 $168 $171 $172 forward $41 $-1 #
coedge $-1 $173 $174 $67 $107 reversed $175 $-1 #
edge $-1 $176 -37.284190430696938 $177 37.284190430696938 $106 $178 forward 7 unknown #
face $-1 $179 $180 $25 $-1 $181 reversed single #
loop $-1 $-1 $182 $68 #
plane-surface $-1 -61.135246616061544 0 2.44019562574349 -1 0 0 0 0 1 forward_v I I I I #
coedge $-1 $183 $184 $185 $186 forward $69 $-1 #
coedge $-1 $187 $71 $188 $189 reversed $44 $-1 #
coedge $-1 $71 $187 $190 $191 reversed $44 $-1 #
coedge $-1 $182 $192 $71 $115 reversed $109 $-1 #
edge $-1 $193 -37.284190430696938 $194 37.284190430696938 $114 $195 forward 7 unknown #
face $-1 $196 $197 $26 $-1 $198 reversed single #
loop $-1 $-1 $122 $72 #
plane-surface $-1 0 0 8.8601582575978224 0 0 1 1 0 0 forward_v I I I I #
coedge $-1 $199 $200 $201 $202 reversed $73 $-1 #
coedge $-1 $121 $75 $203 $204 reversed $47 $-1 #
coedge $-1 $75 $120 $199 $205 reversed $47 $-1 #
coedge $-1 $201 $206 $75 $123 forward $117 $-1 #
edge $-1 $207 -0.43128211047257992 $208 6.229520377985871 $122 $209 forward 7 unknown #
loop $-1 $-1 $129 $76 #
plane-surface $-1 58.296291401724574 -18.130915410349459 52.758731129188305 0 0.66913061440640931 0.74314481823134659 1 0 0 forward_v I I I I #
loop $-1 $-1 $210 $49 #
coedge $-1 $127 $127 $128 $211 reversed $77 $-1 #
coedge $-1 $128 $128 $127 $211 forward $79 $-1 #
coedge $-1 $129 $129 $80 $130 forward $124 $-1 #
edge $-1 $212 -5.9430737167645847e-016 $212 6.2831853071795996 $129 $213 forward 7 unknown #
loop $-1 $-1 $136 $81 #
plane-surface $-1 58.296291401724574 -18.130915410349459 52.758731129188305 0 0.66913061440640931 0.74314481823134659 1 0 0 forward_v I I I I #
loop $-1 $-1 $214 $52 #
coedge $-1 $134 $134 $135 $215 reversed $82 $-1 #
coedge $-1 $135 $135 $134 $215 forward $84 $-1 #
coedge $-1 $136 $136 $85 $137 forward $131 $-1 #
edge $-1 $216 -5.9430737167645847e-016 $216 6.2831853071795996 $136 $217 forward 7 unknown #
loop $-1 $-1 $143 $86 #
plane-surface $-1 58.296291401724574 -18.130915410349459 52.758731129188305 0 0.66913061440640931 0.74314481823134659 1 0 0 forward_v I I I I #
loop $-1 $-1 $218 $55 #
coedge $-1 $141 $141 $142 $219 reversed $87 $-1 #
coedge $-1 $142 $142 $141 $219 forward $89 $-1 #
coedge $-1 $143 $143 $90 $144 forward $138 $-1 #
edge $-1 $220 -5.9430737167645847e-016 $220 6.2831853071795996 $143 $221 forward 7 unknown #
face $-1 $222 $223 $30 $-1 $224 reversed single #
loop $-1 $-1 $225 $91 #
plane-surface $-1 -57.898904493829065 -156.1443082530601 73.272771187380087 1 0 0 0 0.86602541151947299 -0.49999998660252726 forward_v I I I I #
coedge $-1 $226 $227 $228 $229 reversed $92 $-1 #
coedge $-1 $150 $94 $230 $231 reversed $59 $-1 #
coedge $-1 $94 $149 $226 $232 reversed $59 $-1 #
coedge $-1 $228 $233 $94 $152 forward $234 $-1 #
edge $-1 $235 40.787963695833113 $236 43.219362053382582 $151 $237 forward 7 unknown #
loop $-1 $-1 $158 $95 #
plane-surface $-1 -41.477144742475616 -37.284190430696938 4.6488526184270142 0 -0.86602541151947299 0.49999998660252726 1 0 0 forward_v I I I I #
loop $-1 $-1 $238 $61 #
coedge $-1 $156 $156 $157 $239 reversed $96 $-1 #
coedge $-1 $157 $157 $156 $239 forward $98 $-1 #
coedge $-1 $158 $158 $99 $159 forward $153 $-1 #
edge $-1 $240 1.9038930316466688e-015 $240 6.2831853071796022 $158 $241 forward 7 unknown #
face $-1 $242 $243 $24 $-1 $244 reversed single #
loop $-1 $-1 $245 $100 #
plane-surface $-1 -68.623920407727283 0 0 1 0 0 0 0 -1 forward_v I I I I #
coedge $-1 $246 $171 $247 $248 forward $101 $-1 #
coedge $-1 $249 $103 $246 $250 forward $65 $-1 #
coedge $-1 $103 $249 $251 $252 forward $65 $-1 #
coedge $-1 $174 $173 $103 $167 reversed $175 $-1 #
edge $-1 $253 -37.284190430696938 $254 37.284190430696938 $166 $255 forward 7 unknown #
coedge $-1 $105 $104 $256 $257 forward $41 $-1 #
coedge $-1 $258 $259 $104 $170 reversed $243 $-1 #
edge $-1 $177 -68.623920407727283 $260 68.623920407727283 $169 $261 forward 7 unknown #
coedge $-1 $163 $262 $105 $172 reversed $101 $-1 #
edge $-1 $263 -68.623920407727283 $176 68.623920407727283 $171 $264 forward 7 unknown #
coedge $-1 $166 $106 $262 $265 forward $175 $-1 #
coedge $-1 $106 $166 $258 $266 reversed $175 $-1 #
loop $-1 $-1 $173 $242 #
vertex $-1 $107 $267 #
vertex $-1 $107 $268 #
straight-curve $-1 68.623920407727283 0 8.8601582575978224 0 1 0 I I #
face $-1 $269 $270 $25 $-1 $271 reversed single #
loop $-1 $-1 $272 $108 #
plane-surface $-1 0 -37.284190430696938 0 0 1 0 0 0 1 forward_v I I I I #
coedge $-1 $185 $114 $273 $274 reversed $109 $-1 #
coedge $-1 $275 $111 $272 $276 reversed $69 $-1 #
coedge $-1 $111 $275 $277 $278 reversed $69 $-1 #
coedge $-1 $192 $182 $111 $186 reversed $109 $-1 #
edge $-1 $279 -37.284190430696938 $280 37.284190430696938 $185 $281 forward 7 unknown #
coedge $-1 $113 $112 $282 $283 reversed $44 $-1 #
coedge $-1 $284 $285 $112 $189 forward $286 $-1 #
edge $-1 $287 -36.184128651780078 $194 -28.695454860114339 $188 $288 forward 7 unknown #
coedge $-1 $289 $273 $113 $191 forward $180 $-1 #
edge $-1 $193 28.695454860114339 $290 36.184128651780078 $190 $291 forward 7 unknown #
coedge $-1 $114 $185 $284 $292 reversed $109 $-1 #
vertex $-1 $191 $293 #
vertex $-1 $189 $294 #
straight-curve $-1 -61.135246616061544 0 4.1771565498235441 0 1 0 I I #
face $-1 $-1 $295 $26 $-1 $296 reversed single #
loop $-1 $-1 $297 $116 #
plane-surface $-1 68.623920407727283 0 0 -1 0 0 0 0 1 forward_v I I I I #
coedge $-1 $298 $119 $121 $205 forward $73 $-1 #
coedge $-1 $119 $298 $297 $299 reversed $73 $-1 #
coedge $-1 $300 $122 $119 $202 forward $117 $-1 #
edge $-1 $208 18.820516694859606 $301 39.475774706864968 $201 $302 forward 7 unknown #
coedge $-1 $303 $304 $120 $204 forward $295 $-1 #
edge $-1 $305 -74.51413179420436 $207 -68.516718164719222 $203 $306 forward 7 unknown #
edge $-1 $208 65.605386940086774 $305 74.568380861393905 $121 $307 forward 7 unknown #
coedge $-1 $122 $300 $303 $308 forward $117 $-1 #
vertex $-1 $204 $309 #
vertex $-1 $123 $310 #
straight-curve $-1 47.968662395721893 36.852908320224358 8.8601582575978171 0 -1 0 I I #
coedge $-1 $210 $210 $-1 $311 reversed $126 $-1 #
edge $-1 $312 0 $312 6.2831853071796004 $127 $313 forward 7 unknown #
vertex $-1 $130 $314 #
ellipse-curve $-1 52.099713998122965 33.953789186467709 5.8614514428552544 0 0.66913061440640931 0.74314481823134659 1 0 0 1 I I #
coedge $-1 $214 $214 $-1 $315 reversed $133 $-1 #
edge $-1 $316 0 $316 6.2831853071796004 $134 $317 forward 7 unknown #
vertex $-1 $137 $318 #
ellipse-curve $-1 58.296291401724574 33.953789186467709 5.8614514428552544 0 0.66913061440640931 0.74314481823134659 1 0 0 1 I I #
coedge $-1 $218 $218 $-1 $319 reversed $140 $-1 #
edge $-1 $320 0 $320 6.2831853071796004 $141 $321 forward 7 unknown #
vertex $-1 $144 $322 #
ellipse-curve $-1 64.492868805326182 33.953789186467709 5.8614514428552544 0 0.66913061440640931 0.74314481823134659 1 0 0 1 I I #
face $-1 $-1 $234 $30 $-1 $323 forward single #
loop $-1 $-1 $324 $145 #
plane-surface $-1 0 -37.284190430696938 0 0 1 0 0 0 1 forward_v I I I I #
coedge $-1 $325 $326 $327 $328 reversed $146 $-1 #
coedge $-1 $329 $148 $150 $232 forward $92 $-1 #
coedge $-1 $148 $329 $325 $330 forward $92 $-1 #
coedge $-1 $327 $151 $148 $229 forward $234 $-1 #
edge $-1 $236 4.3168126198843595 $331 37.160332122591257 $228 $332 forward 7 unknown #
coedge $-1 $333 $334 $149 $231 forward $223 $-1 #
edge $-1 $335 -31.987532975263029 $235 -27.776227336092219 $230 $336 forward 7 unknown #
edge $-1 $236 -4.8627968453973178 $335 0 $150 $337 forward 7 unknown #
coedge $-1 $151 $327 $333 $338 forward $234 $-1 #
loop $-1 $-1 $327 $222 #
vertex $-1 $231 $339 #
vertex $-1 $152 $340 #
straight-curve $-1 -25.055384991122168 -78.072154126530052 8.8601582575978242 0 1 0 I I #
coedge $-1 $238 $238 $-1 $341 reversed $155 $-1 #
edge $-1 $342 0 $342 6.2831853071796004 $156 $343 forward 7 unknown #
vertex $-1 $159 $344 #
ellipse-curve $-1 -41.477144742475616 -36.068491251922204 6.7545054380124192 0 -0.86602541151947299 0.49999998660252726 0.25 0 0 1 I I #
face $-1 $-1 $175 $24 $-1 $345 reversed single #
loop $-1 $-1 $258 $160 #
plane-surface $-1 0 37.284190430696938 0 0 -1 0 0 0 -1 forward_v I I I I #
coedge $-1 $346 $256 $259 $347 forward $161 $-1 #
coedge $-1 $262 $163 $164 $250 reversed $101 $-1 #
coedge $-1 $256 $346 $163 $248 reversed $161 $-1 #
edge $-1 $263 -8.8601582575978224 $348 8.8601582575978224 $247 $349 forward 7 unknown #
coedge $-1 $165 $164 $346 $350 forward $65 $-1 #
edge $-1 $254 -68.623920407727283 $348 68.623920407727283 $246 $351 forward 7 unknown #
coedge $-1 $259 $258 $165 $252 reversed $243 $-1 #
edge $-1 $352 -68.623920407727283 $253 68.623920407727283 $251 $353 forward 7 unknown #
vertex $-1 $167 $354 #
vertex $-1 $265 $355 #
straight-curve $-1 68.623920407727283 0 -8.8601582575978224 0 -1 0 I I #
coedge $-1 $245 $247 $168 $257 reversed $161 $-1 #
edge $-1 $260 -37.284190430696938 $263 37.284190430696938 $256 $356 forward 7 unknown #
coedge $-1 $251 $169 $174 $266 forward $243 $-1 #
coedge $-1 $169 $251 $245 $347 reversed $243 $-1 #
vertex $-1 $170 $357 #
straight-curve $-1 0 37.284190430696938 8.8601582575978224 -1 0 0 I I #
coedge $-1 $171 $246 $173 $265 reversed $101 $-1 #
vertex $-1 $257 $358 #
straight-curve $-1 0 -37.284190430696938 8.8601582575978224 1 0 0 I I #
edge $-1 $176 -8.8601582575978224 $254 8.8601582575978224 $173 $359 forward 7 unknown #
edge $-1 $177 -8.8601582575978224 $253 8.8601582575978224 $174 $360 forward 7 unknown #
point $-1 68.623920407727283 -37.284190430696938 8.8601582575978224 #
point $-1 68.623920407727283 37.284190430696938 8.8601582575978224 #
face $-1 $-1 $286 $25 $-1 $361 reversed single #
loop $-1 $-1 $362 $179 #
plane-surface $-1 -68.623920407727283 0 0 1 0 0 0 0 -1 forward_v I I I I #
coedge $-1 $273 $289 $183 $276 forward $180 $-1 #
coedge $-1 $190 $272 $182 $274 forward $180 $-1 #
edge $-1 $280 -0.51686311120830908 $193 2.9570587369517991 $273 $363 forward 7 unknown #
coedge $-1 $184 $183 $362 $364 reversed $69 $-1 #
edge $-1 $365 -36.184128651780078 $280 -28.695454860114339 $272 $366 forward 7 unknown #
coedge $-1 $285 $284 $184 $278 forward $286 $-1 #
edge $-1 $279 28.695454860114339 $367 36.184128651780078 $277 $368 forward 7 unknown #
vertex $-1 $278 $369 #
vertex $-1 $276 $370 #
straight-curve $-1 -61.135246616061544 0 0.70323470166343593 0 -1 0 I I #
coedge $-1 $371 $372 $187 $283 forward $270 $-1 #
edge $-1 $290 -37.284190430696938 $287 37.284190430696938 $282 $373 forward 7 unknown #
coedge $-1 $277 $188 $192 $292 forward $286 $-1 #
coedge $-1 $188 $277 $371 $374 reversed $286 $-1 #
loop $-1 $-1 $277 $269 #
vertex $-1 $374 $375 #
straight-curve $-1 -32.439791755947205 37.284190430696938 4.1771565498235441 1 0 0 I I #
coedge $-1 $272 $190 $372 $376 forward $180 $-1 #
vertex $-1 $376 $377 #
straight-curve $-1 -32.439791755947205 -37.284190430696938 4.1771565498235441 -1 0 0 I I #
edge $-1 $194 -2.9570587369517991 $279 0.51686311120830908 $284 $378 forward 7 unknown #
point $-1 -61.135246616061544 -37.284190430696938 4.1771565498235441 #
point $-1 -61.135246616061544 37.284190430696938 4.1771565498235441 #
loop $-1 $-1 $203 $196 #
plane-surface $-1 0 37.284190430696938 0 0 -1 0 0 0 -1 forward_v I I I I #
coedge $-1 $379 $380 $200 $299 forward $197 $-1 #
coedge $-1 $200 $199 $304 $381 reversed $73 $-1 #
edge $-1 $301 41.217197933702579 $382 50.180191855009703 $297 $383 forward 7 unknown #
coedge $-1 $206 $201 $380 $384 forward $117 $-1 #
vertex $-1 $384 $385 #
straight-curve $-1 29.148145700862287 30.623387942238491 8.8601582575978171 1 0 0 I I #
coedge $-1 $386 $203 $206 $308 reversed $295 $-1 #
coedge $-1 $203 $386 $298 $381 forward $295 $-1 #
vertex $-1 $204 $387 #
straight-curve $-1 47.968662395721893 37.284190430696938 77.376876422317039 0 0 1 I I #
straight-curve $-1 47.968662395721893 -18.130915410349459 52.758731129188305 0 0.74314481823134659 -0.66913061440640931 I I #
edge $-1 $388 -68.623920407727283 $207 -47.968662395721893 $303 $389 forward 7 unknown #
point $-1 47.968662395721893 37.284190430696938 8.8601582575978224 #
point $-1 47.968662395721893 30.623387942238487 8.8601582575978242 #
edge $-1 $390 1 $390 0 $210 $-1 forward 7 unknown #
vertex $-1 $211 $391 #
ellipse-curve $-1 52.099713998122965 32.562985061727048 4.3168070098805451 0 0.66913061440640931 0.74314481823134659 1 0 0 1 I I #
point $-1 53.099713998122965 33.953789186467709 5.8614514428552553 #
edge $-1 $392 1 $392 0 $214 $-1 forward 7 unknown #
vertex $-1 $215 $393 #
ellipse-curve $-1 58.296291401724574 32.562985061727048 4.3168070098805451 0 0.66913061440640931 0.74314481823134659 1 0 0 1 I I #
point $-1 59.296291401724574 33.953789186467709 5.8614514428552553 #
edge $-1 $394 1 $394 0 $218 $-1 forward 7 unknown #
vertex $-1 $219 $395 #
ellipse-curve $-1 64.492868805326182 32.562985061727048 4.3168070098805451 0 0.66913061440640931 0.74314481823134659 1 0 0 1 I I #
point $-1 65.492868805326182 33.953789186467709 5.8614514428552553 #
plane-surface $-1 0 0 8.8601582575978224 0 0 1 1 0 0 forward_v I I I I #
coedge $-1 $334 $333 $326 $396 forward $223 $-1 #
coedge $-1 $326 $225 $227 $330 reversed $146 $-1 #
coedge $-1 $225 $325 $324 $396 reversed $146 $-1 #
coedge $-1 $233 $228 $225 $328 forward $234 $-1 #
edge $-1 $331 -43.219362053382582 $397 -40.787963695833113 $327 $398 forward 7 unknown #
coedge $-1 $227 $226 $334 $399 reversed $92 $-1 #
edge $-1 $400 0 $331 4.8627968453973178 $325 $401 forward 7 unknown #
vertex $-1 $229 $402 #
straight-curve $-1 -20.738572371237808 -34.852792073147462 8.8601582575978242 -1 0 0 I I #
coedge $-1 $324 $230 $233 $338 reversed $223 $-1 #
coedge $-1 $230 $324 $329 $399 forward $223 $-1 #
vertex $-1 $231 $403 #
straight-curve $-1 -25.055384991122168 -37.284190430696938 36.636385593690044 0 0 1 I I #
straight-curve $-1 -25.055384991122168 -37.284190430696938 4.6488526184270142 0 -0.49999998660252726 -0.86602541151947299 I I #
edge $-1 $397 -57.898904493829065 $235 -25.055384991122168 $333 $404 forward 7 unknown #
point $-1 -25.055384991122168 -37.284190430696938 8.8601582575978224 #
point $-1 -25.055384991122168 -34.852792073147469 8.8601582575978224 #
edge $-1 $405 1 $405 0 $238 $-1 forward 7 unknown #
vertex $-1 $239 $406 #
ellipse-curve $-1 -41.477144742475616 -35.202465840402724 6.2545054514098881 0 -0.86602541151947299 0.49999998660252726 0.25 0 0 1 I I #
point $-1 -41.227144742475616 -36.068491251922197 6.7545054380124157 #
plane-surface $-1 68.623920407727283 0 0 -1 0 0 0 0 1 forward_v I I I I #
coedge $-1 $247 $245 $249 $350 reversed $161 $-1 #
edge $-1 $260 -8.8601582575978224 $352 8.8601582575978224 $259 $407 forward 7 unknown #
vertex $-1 $350 $408 #
straight-curve $-1 -68.623920407727283 -37.284190430696938 0 0 0 -1 I I #
edge $-1 $348 -37.284190430696938 $352 37.284190430696938 $346 $409 forward 7 unknown #
straight-curve $-1 0 -37.284190430696938 -8.8601582575978224 -1 0 0 I I #
vertex $-1 $252 $410 #
straight-curve $-1 0 37.284190430696938 -8.8601582575978224 1 0 0 I I #
point $-1 68.623920407727283 37.284190430696938 -8.8601582575978224 #
point $-1 68.623920407727283 -37.284190430696938 -8.8601582575978224 #
straight-curve $-1 -68.623920407727283 0 8.8601582575978224 0 -1 0 I I #
point $-1 -68.623920407727283 37.284190430696938 8.8601582575978224 #
point $-1 -68.623920407727283 -37.284190430696938 8.8601582575978224 #
straight-curve $-1 68.623920407727283 -37.284190430696938 0 0 0 -1 I I #
straight-curve $-1 68.623920407727283 37.284190430696938 0 0 0 -1 I I #
plane-surface $-1 0 37.284190430696938 0 0 -1 0 0 0 -1 forward_v I I I I #
coedge $-1 $372 $371 $275 $364 forward $270 $-1 #
straight-curve $-1 -61.135246616061544 -37.284190430696938 1.220097812871745 0 0 1 I I #
edge $-1 $367 -37.284190430696938 $365 37.284190430696938 $362 $411 forward 7 unknown #
vertex $-1 $276 $412 #
straight-curve $-1 -32.439791755947205 -37.284190430696938 0.70323470166343593 1 0 0 I I #
vertex $-1 $278 $413 #
straight-curve $-1 -32.439791755947205 37.284190430696938 0.70323470166343593 -1 0 0 I I #
point $-1 -61.135246616061544 37.284190430696938 0.70323470166343593 #
point $-1 -61.135246616061544 -37.284190430696938 0.70323470166343593 #
coedge $-1 $362 $282 $285 $374 forward $270 $-1 #
coedge $-1 $282 $362 $289 $376 reversed $270 $-1 #
straight-curve $-1 -68.623920407727283 0 4.1771565498235441 0 1 0 I I #
edge $-1 $287 -4.1771565498235441 $367 -0.70323470166343593 $285 $414 forward 7 unknown #
point $-1 -68.623920407727283 37.284190430696938 4.1771565498235441 #
edge $-1 $290 -4.1771565498235441 $365 -0.70323470166343593 $372 $415 forward 7 unknown #
point $-1 -68.623920407727283 -37.284190430696938 4.1771565498235441 #
straight-curve $-1 -61.135246616061544 37.284190430696938 1.220097812871745 0 0 -1 I I #
coedge $-1 $380 $297 $386 $416 reversed $197 $-1 #
coedge $-1 $297 $379 $300 $384 reversed $197 $-1 #
edge $-1 $382 -39.475774706864968 $305 -18.820516694859606 $304 $417 forward 7 unknown #
vertex $-1 $299 $418 #
straight-curve $-1 68.623920407727283 -0.0069591242083504312 36.439847235086809 0 0.74314481823134659 -0.66913061440640931 I I #
edge $-1 $301 30.623387942238487 $388 37.284190430696938 $380 $419 forward 7 unknown #
point $-1 68.623920407727255 30.623387942238487 8.8601582575978242 #
coedge $-1 $304 $303 $379 $416 forward $295 $-1 #
point $-1 47.968662395721893 37.284190430696938 2.8627446281126723 #
vertex $-1 $384 $420 #
straight-curve $-1 0 37.284190430696938 8.8601582575978224 -1 0 0 I I #
vertex $-1 $311 $421 #
point $-1 53.099713998122965 32.562985061727048 4.3168070098805451 #
vertex $-1 $315 $422 #
point $-1 59.296291401724574 32.562985061727048 4.3168070098805451 #
vertex $-1 $319 $423 #
point $-1 65.492868805326182 32.562985061727048 4.3168070098805451 #
edge $-1 $397 27.776227336092219 $400 31.987532975263029 $324 $424 forward 7 unknown #
vertex $-1 $338 $425 #
straight-curve $-1 -57.898904493829065 -78.072154126530052 8.8601582575978242 0 -1 0 I I #
edge $-1 $400 -37.160332122591257 $335 -4.3168126198843595 $334 $426 forward 7 unknown #
vertex $-1 $399 $427 #
straight-curve $-1 -57.898904493829065 -37.284190430696938 4.6488526184270142 0 0.49999998660252726 0.86602541151947299 I I #
point $-1 -57.898904493829065 -34.852792073147469 8.8601582575978224 #
point $-1 -25.055384991122168 -37.284190430696938 4.6488526184270142 #
straight-curve $-1 0 -37.284190430696938 8.8601582575978224 1 0 0 I I #
vertex $-1 $341 $428 #
point $-1 -41.227144742475616 -35.202465840402724 6.2545054514098881 #
straight-curve $-1 -68.623920407727283 37.284190430696938 0 0 0 -1 I I #
point $-1 -68.623920407727283 -37.284190430696938 -8.8601582575978224 #
straight-curve $-1 -68.623920407727283 0 -8.8601582575978224 0 1 0 I I #
point $-1 -68.623920407727283 37.284190430696938 -8.8601582575978224 #
straight-curve $-1 -68.623920407727283 0 0.70323470166343593 0 -1 0 I I #
point $-1 -68.623920407727283 -37.284190430696938 0.70323470166343593 #
point $-1 -68.623920407727283 37.284190430696938 0.70323470166343593 #
straight-curve $-1 -68.623920407727283 37.284190430696938 0 0 0 -1 I I #
straight-curve $-1 -68.623920407727283 -37.284190430696938 0 0 0 -1 I I #
edge $-1 $388 -8.8601582575978224 $382 -2.8627446281126723 $379 $429 forward 7 unknown #
straight-curve $-1 29.148145700862287 37.284190430696938 2.8627446281126687 -1 0 0 I I #
point $-1 68.623920407727255 37.284190430696938 2.8627446281126723 #
straight-curve $-1 68.623920407727283 0 8.8601582575978224 0 1 0 I I #
point $-1 68.623920407727283 37.284190430696938 8.8601582575978224 #
point $-1 52.099713998122965 31.893854447320635 3.5736621916491984 #
point $-1 58.296291401724574 31.893854447320635 3.5736621916491984 #
point $-1 64.492868805326182 31.893854447320635 3.5736621916491984 #
straight-curve $-1 -57.898904493829065 -37.284190430696938 36.636385593690044 0 0 -1 I I #
point $-1 -57.898904493829065 -37.284190430696938 8.8601582575978224 #
straight-curve $-1 -20.738572371237808 -37.284190430696938 4.6488526184270098 1 0 0 I I #
point $-1 -57.898904493829065 -37.284190430696938 4.6488526184270142 #
point $-1 -41.477144742475616 -34.985959487522862 6.1295054547592569 #
straight-curve $-1 68.623920407727283 37.284190430696938 0 0 0 -1 I I #
End-of-ACIS-data 