500 0 4 0           
7 Unknown 11 ACIS 5.0 NT 24 Fri Mar 26 20:37:51 1999 
-1 9.9999999999999995e-007 1e-010 
body $-1 $4 $-1 $5 #
body $-1 $6 $-1 $7 #
body $-1 $8 $-1 $9 #
body $-1 $10 $-1 $11 #
lump $-1 $-1 $12 $0 #
transform $-1 1 0 0 0 1 0 0 0 1 74.358958708456683 37.950595848540715 9.4945402260683682 1 rotate no_reflect no_shear #
lump $-1 $-1 $13 $1 #
transform $-1 1 0 0 0 1 0 0 0 1 74.358958708456683 37.950595848540715 9.4945402260683682 1 rotate no_reflect no_shear #
lump $-1 $-1 $14 $2 #
transform $-1 1 0 0 0 1 0 0 0 1 74.358958708456683 37.950595848540715 9.4945402260683682 1 rotate no_reflect no_shear #
lump $-1 $-1 $15 $3 #
transform $-1 1 0 0 0 1 0 0 0 1 74.358958708456683 37.950595848540715 9.4945402260683682 1 rotate no_reflect no_shear #
shell $-1 $-1 $-1 $16 $-1 $4 #
shell $-1 $-1 $-1 $17 $-1 $6 #
shell $-1 $-1 $-1 $18 $-1 $8 #
shell $-1 $-1 $-1 $19 $-1 $10 #
face $-1 $20 $21 $12 $-1 $22 forward single #
face $-1 $23 $24 $13 $-1 $25 reversed single #
face $-1 $26 $27 $14 $-1 $28 reversed single #
face $-1 $29 $30 $15 $-1 $31 forward single #
face $-1 $32 $33 $12 $-1 $34 reversed single #
loop $-1 $-1 $35 $16 #
plane-surface $-1 0 0 9.4945402260683682 0 0 1 1 0 0 forward_v I I I I #
face $-1 $36 $37 $13 $-1 $38 reversed single #
loop $-1 $-1 $39 $17 #
plane-surface $-1 0 -32.586379105874954 6.4945402260683682 0 0 1 1 0 0 forward_v I I I I #
face $-1 $40 $41 $14 $-1 $42 reversed single #
loop $-1 $-1 $43 $18 #
plane-surface $-1 60.533098668438598 -17.560021082519214 56.817295483330099 0 0.68199836817093118 0.7313536940579346 1 0 0 forward_v I I I I #
face $-1 $44 $45 $15 $-1 $46 forward single #
loop $-1 $47 $48 $19 #
cone-surface $-1 60.533098668438598 35.200316180185425 6.8783000411642563 0 -0.68199836817093118 -0.7313536940579346 1 0 0 1 I I 0 1 1 forward I I I I #
face $-1 $49 $50 $12 $-1 $51 reversed single #
loop $-1 $-1 $52 $20 #
plane-surface $-1 0 0 -9.4945402260683682 0 0 1 1 0 0 forward_v I I I I #
coedge $-1 $53 $54 $55 $56 forward $21 $-1 #
face $-1 $57 $58 $13 $-1 $59 reversed single #
loop $-1 $-1 $60 $23 #
plane-surface $-1 0 -27.22216236320919 7.9945402260683682 0 -1 0 0 0 -1 forward_v I I I I #
coedge $-1 $61 $62 $63 $64 reversed $24 $-1 #
face $-1 $65 $66 $14 $-1 $67 forward single #
loop $-1 $-1 $68 $26 #
plane-surface $-1 46.707238628420519 83.86535591359501 165.58269375879254 1 0 0 0 -0.68199836817093118 -0.7313536940579346 forward_v I I I I #
coedge $-1 $69 $70 $71 $72 reversed $27 $-1 #
face $-1 $-1 $73 $15 $-1 $74 forward single #
loop $-1 $75 $76 $29 #
cone-surface $-1 60.533098668438598 34.49062535225768 6.1172498204195929 0 -0.68199836817093118 -0.7313536940579346 0.5 0 0 1 I I -0.70710678118654746 0.70710678118654746 0.5 forward I I I I #
loop $-1 $-1 $77 $19 #
coedge $-1 $48 $48 $78 $79 reversed $30 $-1 #
face $-1 $80 $81 $12 $-1 $82 reversed single #
loop $-1 $-1 $83 $32 #
plane-surface $-1 0 -37.950595848540715 0 0 1 0 0 0 1 forward_v I I I I #
coedge $-1 $84 $85 $86 $87 forward $33 $-1 #
coedge $-1 $88 $35 $89 $90 forward $21 $-1 #
coedge $-1 $35 $88 $91 $92 forward $21 $-1 #
coedge $-1 $93 $94 $35 $56 reversed $95 $-1 #
edge $-1 $96 -37.950595848540715 $97 37.950595848540715 $55 $98 forward 7 unknown #
face $-1 $99 $100 $13 $-1 $101 reversed single #
loop $-1 $-1 $102 $36 #
plane-surface $-1 -74.358958708456683 0 0 1 0 0 0 0 -1 forward_v I I I I #
coedge $-1 $103 $104 $105 $106 reversed $37 $-1 #
coedge $-1 $107 $39 $108 $109 reversed $24 $-1 #
coedge $-1 $39 $107 $103 $110 forward $24 $-1 #
coedge $-1 $105 $111 $39 $64 forward $112 $-1 #
edge $-1 $113 -21.657406295603238 $114 -10.928972810271713 $63 $115 forward 7 unknown #
face $-1 $116 $117 $14 $-1 $118 reversed single #
loop $-1 $-1 $119 $40 #
plane-surface $-1 0 0 9.4945402260683682 0 0 1 1 0 0 forward_v I I I I #
coedge $-1 $120 $121 $122 $123 reversed $41 $-1 #
coedge $-1 $124 $43 $125 $126 reversed $27 $-1 #
coedge $-1 $43 $124 $120 $127 forward $27 $-1 #
coedge $-1 $122 $128 $43 $72 forward $129 $-1 #
edge $-1 $130 -44.092409374237384 $131 -16.440689294201221 $71 $132 forward 7 unknown #
loop $-1 $-1 $78 $44 #
plane-surface $-1 60.533098668438598 -17.560021082519214 56.817295483330099 0 0.68199836817093118 0.7313536940579346 1 0 0 forward_v I I I I #
loop $-1 $-1 $133 $29 #
coedge $-1 $76 $76 $77 $134 reversed $45 $-1 #
coedge $-1 $77 $77 $76 $134 forward $47 $-1 #
coedge $-1 $78 $78 $48 $79 forward $73 $-1 #
edge $-1 $135 -6.0573623288012184e-016 $135 6.2831853071795996 $78 $136 forward 7 unknown #
face $-1 $137 $138 $12 $-1 $139 reversed single #
loop $-1 $-1 $140 $49 #
plane-surface $-1 -74.358958708456683 0 0 1 0 0 0 0 -1 forward_v I I I I #
coedge $-1 $141 $91 $142 $143 forward $50 $-1 #
coedge $-1 $144 $52 $141 $145 forward $33 $-1 #
coedge $-1 $52 $144 $146 $147 forward $33 $-1 #
coedge $-1 $94 $93 $52 $87 reversed $95 $-1 #
edge $-1 $148 -37.950595848540715 $149 37.950595848540715 $86 $150 forward 7 unknown #
coedge $-1 $54 $53 $151 $152 forward $21 $-1 #
coedge $-1 $153 $154 $53 $90 reversed $138 $-1 #
edge $-1 $97 -74.358958708456683 $155 74.358958708456683 $89 $156 forward 7 unknown #
coedge $-1 $83 $157 $54 $92 reversed $50 $-1 #
edge $-1 $158 -74.358958708456683 $96 74.358958708456683 $91 $159 forward 7 unknown #
coedge $-1 $86 $55 $157 $160 forward $95 $-1 #
coedge $-1 $55 $86 $153 $161 reversed $95 $-1 #
loop $-1 $-1 $93 $137 #
vertex $-1 $56 $162 #
vertex $-1 $56 $163 #
straight-curve $-1 74.358958708456683 0 9.4945402260683682 0 1 0 I I #
face $-1 $164 $165 $13 $-1 $166 forward single #
loop $-1 $-1 $108 $57 #
plane-surface $-1 0 -37.950595848540715 0 0 1 0 0 0 1 forward_v I I I I #
coedge $-1 $167 $168 $169 $170 forward $58 $-1 #
coedge $-1 $169 $60 $62 $110 reversed $37 $-1 #
coedge $-1 $60 $169 $171 $172 reversed $37 $-1 #
coedge $-1 $173 $63 $60 $106 forward $112 $-1 #
edge $-1 $114 2.4972701130341841 $174 5.4972701130341841 $105 $175 forward 7 unknown #
coedge $-1 $62 $61 $167 $176 reversed $24 $-1 #
coedge $-1 $177 $178 $61 $109 forward $100 $-1 #
edge $-1 $179 -74.358958708456683 $113 74.358958708456683 $108 $180 forward 7 unknown #
edge $-1 $181 -74.358958708456683 $114 74.358958708456683 $103 $182 forward 7 unknown #
coedge $-1 $63 $173 $177 $183 forward $112 $-1 #
loop $-1 $-1 $105 $164 #
vertex $-1 $109 $184 #
vertex $-1 $64 $185 #
straight-curve $-1 74.358958708456683 -16.293189552937477 6.4945402260683682 0 1 0 I I #
face $-1 $-1 $129 $14 $-1 $186 reversed single #
loop $-1 $-1 $125 $65 #
plane-surface $-1 74.358958708456683 0 0 -1 0 0 0 0 1 forward_v I I I I #
coedge $-1 $187 $188 $121 $189 forward $66 $-1 #
coedge $-1 $121 $68 $70 $127 reversed $41 $-1 #
coedge $-1 $68 $120 $119 $189 reversed $41 $-1 #
coedge $-1 $190 $71 $68 $123 forward $129 $-1 #
edge $-1 $131 -77.738540275704736 $191 -73.296806653327906 $122 $192 forward 7 unknown #
coedge $-1 $70 $69 $187 $193 reversed $27 $-1 #
coedge $-1 $194 $195 $69 $126 forward $117 $-1 #
edge $-1 $196 43.592425670890805 $130 50.105247152105228 $125 $197 forward 7 unknown #
edge $-1 $198 69.388370215866999 $131 75.901191697081416 $120 $199 forward 7 unknown #
coedge $-1 $71 $190 $194 $200 forward $129 $-1 #
loop $-1 $-1 $122 $116 #
vertex $-1 $126 $201 #
vertex $-1 $72 $202 #
straight-curve $-1 30.266549334219299 37.950595848540708 5.0528066036915469 -1 0 0 I I #
coedge $-1 $133 $133 $-1 $203 reversed $75 $-1 #
edge $-1 $204 0 $204 6.2831853071796004 $76 $205 forward 7 unknown #
vertex $-1 $79 $206 #
ellipse-curve $-1 60.533098668438598 35.5690078240277 7.2736734148799531 0 0.68199836817093118 0.7313536940579346 1 0 0 1 I I #
face $-1 $-1 $95 $12 $-1 $207 reversed single #
loop $-1 $-1 $153 $80 #
plane-surface $-1 0 37.950595848540715 0 0 -1 0 0 0 -1 forward_v I I I I #
coedge $-1 $208 $151 $154 $209 forward $81 $-1 #
coedge $-1 $157 $83 $84 $145 reversed $50 $-1 #
coedge $-1 $151 $208 $83 $143 reversed $81 $-1 #
edge $-1 $158 -9.4945402260683682 $210 9.4945402260683682 $142 $211 forward 7 unknown #
coedge $-1 $85 $84 $208 $212 forward $33 $-1 #
edge $-1 $149 -74.358958708456683 $210 74.358958708456683 $141 $213 forward 7 unknown #
coedge $-1 $154 $153 $85 $147 reversed $138 $-1 #
edge $-1 $214 -74.358958708456683 $148 74.358958708456683 $146 $215 forward 7 unknown #
vertex $-1 $87 $216 #
vertex $-1 $160 $217 #
straight-curve $-1 74.358958708456683 0 -9.4945402260683682 0 -1 0 I I #
coedge $-1 $140 $142 $88 $152 reversed $81 $-1 #
edge $-1 $155 -37.950595848540715 $158 37.950595848540715 $151 $218 forward 7 unknown #
coedge $-1 $146 $89 $94 $161 forward $138 $-1 #
coedge $-1 $89 $146 $140 $209 reversed $138 $-1 #
vertex $-1 $90 $219 #
straight-curve $-1 0 37.950595848540715 9.4945402260683682 -1 0 0 I I #
coedge $-1 $91 $141 $93 $160 reversed $50 $-1 #
vertex $-1 $152 $220 #
straight-curve $-1 0 -37.950595848540715 9.4945402260683682 1 0 0 I I #
edge $-1 $96 -9.4945402260683682 $149 9.4945402260683682 $93 $221 forward 7 unknown #
edge $-1 $97 -9.4945402260683682 $148 9.4945402260683682 $94 $222 forward 7 unknown #
point $-1 74.358958708456683 -37.950595848540715 9.4945402260683682 #
point $-1 74.358958708456683 37.950595848540715 9.4945402260683682 #
face $-1 $-1 $112 $13 $-1 $223 reversed single #
loop $-1 $-1 $171 $99 #
plane-surface $-1 0 0 9.4945402260683682 0 0 1 1 0 0 forward_v I I I I #
coedge $-1 $224 $102 $107 $176 forward $58 $-1 #
coedge $-1 $102 $224 $225 $226 reversed $58 $-1 #
coedge $-1 $104 $103 $102 $170 reversed $37 $-1 #
edge $-1 $227 -5.4972701130341841 $181 -2.4972701130341841 $102 $228 forward 7 unknown #
coedge $-1 $225 $229 $104 $172 forward $165 $-1 #
edge $-1 $174 -74.358958708456683 $227 74.358958708456683 $171 $230 forward 7 unknown #
coedge $-1 $111 $105 $229 $231 reversed $112 $-1 #
vertex $-1 $106 $232 #
straight-curve $-1 74.358958708456683 -27.22216236320919 3.9972701130341841 0 0 1 I I #
edge $-1 $181 10.928972810271713 $179 21.657406295603238 $167 $233 forward 7 unknown #
coedge $-1 $234 $108 $111 $183 reversed $100 $-1 #
coedge $-1 $108 $234 $224 $235 forward $100 $-1 #
vertex $-1 $109 $236 #
straight-curve $-1 0 -37.950595848540715 6.4945402260683682 1 0 0 I I #
vertex $-1 $176 $237 #
straight-curve $-1 0 -27.22216236320919 6.4945402260683682 1 0 0 I I #
edge $-1 $238 -9.4945402260683682 $113 -6.4945402260683682 $111 $239 forward 7 unknown #
point $-1 74.358958708456683 -37.950595848540715 6.4945402260683682 #
point $-1 74.358958708456683 -27.22216236320919 6.4945402260683682 #
plane-surface $-1 0 37.950595848540715 0 0 -1 0 0 0 -1 forward_v I I I I #
coedge $-1 $240 $119 $124 $193 forward $66 $-1 #
coedge $-1 $119 $240 $190 $241 forward $66 $-1 #
edge $-1 $191 3.9820821082567903 $198 8.7452581572828265 $119 $242 forward 7 unknown #
coedge $-1 $128 $122 $188 $241 reversed $129 $-1 #
vertex $-1 $189 $243 #
straight-curve $-1 46.707238628420519 37.950595848540715 82.791346879396272 0 0 1 I I #
edge $-1 $198 16.440689294201221 $196 44.09240937423737 $187 $244 forward 7 unknown #
coedge $-1 $195 $125 $128 $200 reversed $117 $-1 #
coedge $-1 $125 $194 $240 $245 reversed $117 $-1 #
vertex $-1 $245 $246 #
straight-curve $-1 74.358958708456683 1.3059382521627523 39.224503398228507 0 0.7313536940579346 -0.68199836817093118 I I #
vertex $-1 $193 $247 #
straight-curve $-1 46.707238628420519 -17.560021082519214 56.817295483330099 0 0.7313536940579346 -0.68199836817093118 I I #
edge $-1 $248 -9.4945402260683682 $130 -5.0528066036915398 $194 $249 forward 7 unknown #
point $-1 74.358958708456683 37.950595848540715 5.0528066036915398 #
point $-1 46.707238628420519 37.950595848540715 5.0528066036915433 #
edge $-1 $250 1 $250 0 $133 $-1 forward 7 unknown #
vertex $-1 $134 $251 #
ellipse-curve $-1 60.533098668438598 34.831624536343149 6.4829266674485604 0 0.68199836817093118 0.7313536940579346 1 0 0 1 I I #
point $-1 61.533098668438598 35.5690078240277 7.273673414879954 #
plane-surface $-1 74.358958708456683 0 0 -1 0 0 0 0 1 forward_v I I I I #
coedge $-1 $142 $140 $144 $212 reversed $81 $-1 #
edge $-1 $155 -9.4945402260683682 $214 9.4945402260683682 $154 $252 forward 7 unknown #
vertex $-1 $212 $253 #
straight-curve $-1 -74.358958708456683 -37.950595848540715 0 0 0 -1 I I #
edge $-1 $210 -37.950595848540715 $214 37.950595848540715 $208 $254 forward 7 unknown #
straight-curve $-1 0 -37.950595848540715 -9.4945402260683682 -1 0 0 I I #
vertex $-1 $147 $255 #
straight-curve $-1 0 37.950595848540715 -9.4945402260683682 1 0 0 I I #
point $-1 74.358958708456683 37.950595848540715 -9.4945402260683682 #
point $-1 74.358958708456683 -37.950595848540715 -9.4945402260683682 #
straight-curve $-1 -74.358958708456683 0 9.4945402260683682 0 -1 0 I I #
point $-1 -74.358958708456683 37.950595848540715 9.4945402260683682 #
point $-1 -74.358958708456683 -37.950595848540715 9.4945402260683682 #
straight-curve $-1 74.358958708456683 -37.950595848540715 0 0 0 -1 I I #
straight-curve $-1 74.358958708456683 37.950595848540715 0 0 0 -1 I I #
plane-surface $-1 74.358958708456683 0 0 -1 0 0 0 0 1 forward_v I I I I #
coedge $-1 $168 $167 $178 $235 reversed $58 $-1 #
coedge $-1 $256 $171 $168 $226 forward $165 $-1 #
edge $-1 $227 27.22216236320919 $257 37.950595848540715 $168 $258 forward 7 unknown #
vertex $-1 $226 $259 #
straight-curve $-1 -74.358958708456683 -27.22216236320919 3.9972701130341841 0 0 -1 I I #
coedge $-1 $171 $256 $173 $231 forward $165 $-1 #
straight-curve $-1 0 -27.22216236320919 9.4945402260683682 -1 0 0 I I #
edge $-1 $238 -37.950595848540715 $174 -27.22216236320919 $173 $260 forward 7 unknown #
point $-1 74.358958708456683 -27.22216236320919 9.4945402260683682 #
straight-curve $-1 -74.358958708456683 -16.293189552937477 6.4945402260683682 0 -1 0 I I #
coedge $-1 $178 $177 $256 $261 reversed $100 $-1 #
edge $-1 $257 -9.4945402260683682 $179 -6.4945402260683682 $224 $262 forward 7 unknown #
point $-1 -74.358958708456683 -37.950595848540715 6.4945402260683682 #
point $-1 -74.358958708456683 -27.22216236320919 6.4945402260683682 #
vertex $-1 $231 $263 #
straight-curve $-1 74.358958708456683 -37.950595848540715 0 0 0 -1 I I #
coedge $-1 $188 $187 $195 $245 forward $66 $-1 #
edge $-1 $248 -74.358958708456683 $191 -46.707238628420519 $190 $264 forward 7 unknown #
straight-curve $-1 46.707238628420519 41.932677956797505 9.4945402260683665 0 -1 0 I I #
point $-1 46.707238628420519 37.950595848540715 9.4945402260683682 #
straight-curve $-1 30.266549334219299 33.187419799514672 9.49454022606837 1 0 0 I I #
edge $-1 $196 33.187419799514679 $248 37.950595848540715 $195 $265 forward 7 unknown #
point $-1 74.358958708456669 33.187419799514679 9.4945402260683593 #
point $-1 46.707238628420519 33.187419799514679 9.4945402260683593 #
vertex $-1 $245 $266 #
straight-curve $-1 74.358958708456683 37.950595848540715 0 0 0 -1 I I #
vertex $-1 $203 $267 #
point $-1 61.533098668438598 34.831624536343149 6.4829266674485604 #
straight-curve $-1 -74.358958708456683 37.950595848540715 0 0 0 -1 I I #
point $-1 -74.358958708456683 -37.950595848540715 -9.4945402260683682 #
straight-curve $-1 -74.358958708456683 0 -9.4945402260683682 0 1 0 I I #
point $-1 -74.358958708456683 37.950595848540715 -9.4945402260683682 #
coedge $-1 $229 $225 $234 $261 forward $165 $-1 #
vertex $-1 $226 $268 #
straight-curve $-1 -74.358958708456683 0 9.4945402260683682 0 -1 0 I I #
point $-1 -74.358958708456683 -27.22216236320919 9.4945402260683682 #
straight-curve $-1 74.358958708456683 0 9.4945402260683682 0 1 0 I I #
edge $-1 $257 -74.358958708456683 $238 74.358958708456683 $234 $269 forward 7 unknown #
straight-curve $-1 -74.358958708456683 -37.950595848540715 0 0 0 -1 I I #
point $-1 74.358958708456683 -37.950595848540715 9.4945402260683682 #
straight-curve $-1 0 37.950595848540715 9.4945402260683682 -1 0 0 I I #
straight-curve $-1 74.358958708456683 0 9.4945402260683682 0 1 0 I I #
point $-1 74.358958708456683 37.950595848540715 9.4945402260683682 #
point $-1 60.533098668438598 34.149626168172212 5.7515729733906253 #
point $-1 -74.358958708456683 -37.950595848540715 9.4945402260683682 #
straight-curve $-1 0 -37.950595848540715 9.4945402260683682 1 0 0 I I #
End-of-ACIS-data 