500 0 13 0           
7 Unknown 11 ACIS 5.0 NT 24 Thu Mar 25 16:22:22 1999 
-1 9.9999999999999995e-007 1e-010 
body $-1 $13 $-1 $14 #
body $-1 $15 $-1 $16 #
body $-1 $17 $-1 $18 #
body $-1 $19 $-1 $20 #
body $-1 $21 $-1 $22 #
body $-1 $23 $-1 $24 #
body $-1 $25 $-1 $26 #
body $-1 $27 $-1 $28 #
body $-1 $29 $-1 $30 #
body $-1 $31 $-1 $32 #
body $-1 $33 $-1 $34 #
body $-1 $35 $-1 $36 #
body $-1 $37 $-1 $38 #
lump $-1 $-1 $39 $0 #
transform $-1 1 0 0 0 1 0 0 0 1 67.327494125186931 43.905367037494486 15.93266236862501 1 rotate no_reflect no_shear #
lump $-1 $-1 $40 $1 #
transform $-1 1 0 0 0 1 0 0 0 1 67.327494125186931 43.905367037494486 15.93266236862501 1 rotate no_reflect no_shear #
lump $-1 $-1 $41 $2 #
transform $-1 1 0 0 0 1 0 0 0 1 67.327494125186931 43.905367037494486 15.93266236862501 1 rotate no_reflect no_shear #
lump $-1 $-1 $42 $3 #
transform $-1 1 0 0 0 1 0 0 0 1 67.327494125186931 43.905367037494486 15.93266236862501 1 rotate no_reflect no_shear #
lump $-1 $-1 $43 $4 #
transform $-1 1 0 0 0 1 0 0 0 1 67.327494125186931 43.905367037494486 15.93266236862501 1 rotate no_reflect no_shear #
lump $-1 $-1 $44 $5 #
transform $-1 1 0 0 0 1 0 0 0 1 67.327494125186931 43.905367037494486 15.93266236862501 1 rotate no_reflect no_shear #
lump $-1 $-1 $45 $6 #
transform $-1 1 0 0 0 1 0 0 0 1 67.327494125186931 43.905367037494486 15.93266236862501 1 rotate no_reflect no_shear #
lump $-1 $-1 $46 $7 #
transform $-1 1 0 0 0 1 0 0 0 1 67.327494125186931 43.905367037494486 15.93266236862501 1 rotate no_reflect no_shear #
lump $-1 $-1 $47 $8 #
transform $-1 1 0 0 0 1 0 0 0 1 67.327494125186931 43.905367037494486 15.93266236862501 1 rotate no_reflect no_shear #
lump $-1 $-1 $48 $9 #
transform $-1 1 0 0 0 1 0 0 0 1 67.327494125186931 43.905367037494486 15.93266236862501 1 rotate no_reflect no_shear #
lump $-1 $-1 $49 $10 #
transform $-1 1 0 0 0 1 0 0 0 1 67.327494125186931 43.905367037494486 15.93266236862501 1 rotate no_reflect no_shear #
lump $-1 $-1 $50 $11 #
transform $-1 1 0 0 0 1 0 0 0 1 67.327494125186931 43.905367037494486 15.93266236862501 1 rotate no_reflect no_shear #
lump $-1 $-1 $51 $12 #
transform $-1 1 0 0 0 1 0 0 0 1 67.327494125186931 43.905367037494486 15.93266236862501 1 rotate no_reflect no_shear #
shell $-1 $-1 $-1 $52 $-1 $13 #
shell $-1 $-1 $-1 $53 $-1 $15 #
shell $-1 $-1 $-1 $54 $-1 $17 #
shell $-1 $-1 $-1 $55 $-1 $19 #
shell $-1 $-1 $-1 $56 $-1 $21 #
shell $-1 $-1 $-1 $57 $-1 $23 #
shell $-1 $-1 $-1 $58 $-1 $25 #
shell $-1 $-1 $-1 $59 $-1 $27 #
shell $-1 $-1 $-1 $60 $-1 $29 #
shell $-1 $-1 $-1 $61 $-1 $31 #
shell $-1 $-1 $-1 $62 $-1 $33 #
shell $-1 $-1 $-1 $63 $-1 $35 #
shell $-1 $-1 $-1 $64 $-1 $37 #
face $-1 $65 $66 $39 $-1 $67 forward single #
face $-1 $68 $69 $40 $-1 $70 reversed single #
face $-1 $71 $72 $41 $-1 $73 reversed single #
face $-1 $74 $75 $42 $-1 $76 forward single #
face $-1 $77 $78 $43 $-1 $79 forward single #
face $-1 $80 $81 $44 $-1 $82 reversed single #
face $-1 $83 $84 $45 $-1 $85 forward single #
face $-1 $86 $87 $46 $-1 $88 forward single #
face $-1 $89 $90 $47 $-1 $91 forward single #
face $-1 $92 $93 $48 $-1 $94 reversed single #
face $-1 $95 $96 $49 $-1 $97 forward single #
face $-1 $98 $99 $50 $-1 $100 forward single #
face $-1 $101 $102 $51 $-1 $103 forward single #
face $-1 $104 $105 $39 $-1 $106 reversed single #
loop $-1 $-1 $107 $52 #
plane-surface $-1 0 0 15.93266236862501 0 0 1 1 0 0 forward_v I I I I #
face $-1 $108 $109 $40 $-1 $110 reversed single #
loop $-1 $-1 $111 $53 #
plane-surface $-1 -58.204886449710557 0 9.4200462233297557 0 0 1 1 0 0 forward_v I I I I #
face $-1 $112 $113 $41 $-1 $114 reversed single #
loop $-1 $-1 $115 $54 #
plane-surface $-1 -37.106641594551611 -150.01494691707407 92.922559469949562 -1 0 0 0 -0.78801076186113728 0.61566146476048833 forward_v I I I I #
face $-1 $116 $117 $42 $-1 $118 forward single #
loop $-1 $119 $120 $55 #
cone-surface $-1 -45.660668151467732 -40.799270343763595 12.354279315612869 0 0.78801076186113728 -0.61566146476048833 1 0 0 1 I I 0 1 1 forward I I I I #
face $-1 $121 $122 $43 $-1 $123 forward single #
loop $-1 $124 $125 $56 #
cone-surface $-1 -40.528252217318055 -40.799270343763595 12.354279315612869 0 0.78801076186113728 -0.61566146476048833 1 0 0 1 I I 0 1 1 forward I I I I #
face $-1 $126 $127 $44 $-1 $128 reversed single #
loop $-1 $-1 $129 $57 #
plane-surface $-1 -39.382862100609259 49.209954456902636 172.57989817970872 1 0 0 0 -0.57357644374324357 -0.81915203911291934 forward_v I I I I #
face $-1 $130 $131 $45 $-1 $132 forward single #
loop $-1 $133 $134 $58 #
cone-surface $-1 -34.563049157795255 40.349255749989226 12.944575526588167 0 -0.57357644374324357 -0.81915203911291934 1.5 0 0 1 I I 0 1 1.5 forward I I I I #
face $-1 $135 $136 $46 $-1 $137 forward single #
loop $-1 $138 $139 $59 #
cone-surface $-1 -27.33332974357424 40.349255749989226 12.944575526588167 0 -0.57357644374324357 -0.81915203911291934 1.5 0 0 1 I I 0 1 1.5 forward I I I I #
face $-1 $140 $141 $47 $-1 $142 forward single #
loop $-1 $143 $144 $60 #
cone-surface $-1 -20.103610329353224 40.349255749989226 12.944575526588167 0 -0.57357644374324357 -0.81915203911291934 1.5 0 0 1 I I 0 1 1.5 forward I I I I #
face $-1 $145 $146 $48 $-1 $147 reversed single #
loop $-1 $-1 $148 $61 #
plane-surface $-1 18.822024349101294 49.209954456902636 172.57989817970872 1 0 0 0 -0.57357644374324357 -0.81915203911291934 forward_v I I I I #
face $-1 $149 $150 $49 $-1 $151 forward single #
loop $-1 $152 $153 $62 #
cone-surface $-1 23.641837291915309 40.349255749989226 12.944575526588167 0 -0.57357644374324357 -0.81915203911291934 1.5 0 0 1 I I 0 1 1.5 forward I I I I #
face $-1 $154 $155 $50 $-1 $156 forward single #
loop $-1 $157 $158 $63 #
cone-surface $-1 30.871556706136317 40.349255749989226 12.944575526588167 0 -0.57357644374324357 -0.81915203911291934 1.5 0 0 1 I I 0 1 1.5 forward I I I I #
face $-1 $159 $160 $51 $-1 $161 forward single #
loop $-1 $162 $163 $64 #
cone-surface $-1 38.101276120357326 40.349255749989226 12.944575526588167 0 -0.57357644374324357 -0.81915203911291934 1.5 0 0 1 I I 0 1 1.5 forward I I I I #
face $-1 $164 $165 $39 $-1 $166 reversed single #
loop $-1 $-1 $167 $65 #
plane-surface $-1 0 0 -15.93266236862501 0 0 1 1 0 0 forward_v I I I I #
coedge $-1 $168 $169 $170 $171 forward $66 $-1 #
face $-1 $172 $173 $40 $-1 $174 reversed single #
loop $-1 $-1 $175 $68 #
plane-surface $-1 -49.082278774234183 0 12.676354295977383 -1 0 0 0 0 1 forward_v I I I I #
coedge $-1 $176 $177 $178 $179 forward $69 $-1 #
face $-1 $180 $181 $41 $-1 $182 forward single #
loop $-1 $-1 $183 $71 #
plane-surface $-1 -43.094460184392894 -43.905367037494472 10.020672166418038 0 -0.78801076186113728 0.61566146476048833 1 0 0 forward_v I I I I #
coedge $-1 $184 $185 $186 $187 reversed $72 $-1 #
face $-1 $-1 $188 $42 $-1 $189 forward single #
loop $-1 $190 $191 $74 #
cone-surface $-1 -45.660668151467732 -39.608644689794602 11.424060631323961 0 0.78801076186113728 -0.61566146476048833 0.5 0 0 1 I I -0.70710678118654746 0.70710678118654746 0.5 forward I I I I #
loop $-1 $-1 $192 $55 #
coedge $-1 $120 $120 $193 $194 reversed $75 $-1 #
face $-1 $-1 $195 $43 $-1 $196 forward single #
loop $-1 $197 $198 $77 #
cone-surface $-1 -40.528252217318055 -39.608644689794602 11.424060631323961 0 0.78801076186113728 -0.61566146476048833 0.5 0 0 1 I I -0.70710678118654746 0.70710678118654746 0.5 forward I I I I #
loop $-1 $-1 $199 $56 #
coedge $-1 $125 $125 $200 $201 reversed $78 $-1 #
face $-1 $202 $203 $44 $-1 $204 reversed single #
loop $-1 $-1 $205 $80 #
plane-surface $-1 -27.33332974357424 -28.024974836035028 62.2769899776888 0 0.57357644374324357 0.81915203911291934 1 0 0 forward_v I I I I #
coedge $-1 $206 $207 $208 $209 reversed $81 $-1 #
face $-1 $-1 $210 $45 $-1 $211 forward single #
loop $-1 $212 $213 $83 #
cone-surface $-1 -34.563049157795255 39.234854152710682 11.353045137292664 0 -0.57357644374324357 -0.81915203911291934 0.75 0 0 1 I I -0.70710678118654757 0.70710678118654757 0.75 forward I I I I #
loop $-1 $-1 $214 $58 #
coedge $-1 $134 $134 $215 $216 reversed $84 $-1 #
face $-1 $-1 $217 $46 $-1 $218 forward single #
loop $-1 $219 $220 $86 #
cone-surface $-1 -27.33332974357424 39.234854152710682 11.353045137292664 0 -0.57357644374324357 -0.81915203911291934 0.75 0 0 1 I I -0.70710678118654757 0.70710678118654757 0.75 forward I I I I #
loop $-1 $-1 $221 $59 #
coedge $-1 $139 $139 $222 $223 reversed $87 $-1 #
face $-1 $-1 $224 $47 $-1 $225 forward single #
loop $-1 $226 $227 $89 #
cone-surface $-1 -20.103610329353224 39.234854152710682 11.353045137292664 0 -0.57357644374324357 -0.81915203911291934 0.75 0 0 1 I I -0.70710678118654757 0.70710678118654757 0.75 forward I I I I #
loop $-1 $-1 $228 $60 #
coedge $-1 $144 $144 $229 $230 reversed $90 $-1 #
face $-1 $231 $232 $48 $-1 $233 reversed single #
loop $-1 $-1 $234 $92 #
plane-surface $-1 30.871556706136317 -28.024974836035028 62.2769899776888 0 0.57357644374324357 0.81915203911291934 1 0 0 forward_v I I I I #
coedge $-1 $235 $236 $237 $238 reversed $93 $-1 #
face $-1 $-1 $239 $49 $-1 $240 forward single #
loop $-1 $241 $242 $95 #
cone-surface $-1 23.641837291915309 39.234854152710682 11.353045137292664 0 -0.57357644374324357 -0.81915203911291934 0.75 0 0 1 I I -0.70710678118654757 0.70710678118654757 0.75 forward I I I I #
loop $-1 $-1 $243 $62 #
coedge $-1 $153 $153 $244 $245 reversed $96 $-1 #
face $-1 $-1 $246 $50 $-1 $247 forward single #
loop $-1 $248 $249 $98 #
cone-surface $-1 30.871556706136317 39.234854152710682 11.353045137292664 0 -0.57357644374324357 -0.81915203911291934 0.75 0 0 1 I I -0.70710678118654757 0.70710678118654757 0.75 forward I I I I #
loop $-1 $-1 $250 $63 #
coedge $-1 $158 $158 $251 $252 reversed $99 $-1 #
face $-1 $-1 $253 $51 $-1 $254 forward single #
loop $-1 $255 $256 $101 #
cone-surface $-1 38.101276120357326 39.234854152710682 11.353045137292664 0 -0.57357644374324357 -0.81915203911291934 0.75 0 0 1 I I -0.70710678118654757 0.70710678118654757 0.75 forward I I I I #
loop $-1 $-1 $257 $64 #
coedge $-1 $163 $163 $258 $259 reversed $102 $-1 #
face $-1 $260 $261 $39 $-1 $262 reversed single #
loop $-1 $-1 $263 $104 #
plane-surface $-1 0 -43.905367037494486 0 0 1 0 0 0 1 forward_v I I I I #
coedge $-1 $264 $265 $266 $267 forward $105 $-1 #
coedge $-1 $268 $107 $269 $270 forward $66 $-1 #
coedge $-1 $107 $268 $271 $272 forward $66 $-1 #
coedge $-1 $273 $274 $107 $171 reversed $275 $-1 #
edge $-1 $276 -43.905367037494486 $277 43.905367037494486 $170 $278 forward 7 unknown #
face $-1 $279 $280 $40 $-1 $281 reversed single #
loop $-1 $-1 $282 $108 #
plane-surface $-1 0 43.905367037494486 0 0 -1 0 0 0 -1 forward_v I I I I #
coedge $-1 $178 $283 $284 $285 reversed $109 $-1 #
coedge $-1 $286 $111 $287 $288 reversed $69 $-1 #
coedge $-1 $111 $286 $289 $290 reversed $69 $-1 #
coedge $-1 $291 $175 $111 $179 reversed $109 $-1 #
edge $-1 $292 -43.905367037494486 $293 43.905367037494486 $178 $294 forward 7 unknown #
face $-1 $295 $296 $41 $-1 $297 reversed single #
loop $-1 $-1 $298 $112 #
plane-surface $-1 -49.082278774234183 0 12.676354295977383 -1 0 0 0 0 1 forward_v I I I I #
coedge $-1 $299 $300 $301 $302 reversed $113 $-1 #
coedge $-1 $185 $115 $303 $304 reversed $72 $-1 #
coedge $-1 $115 $184 $299 $305 reversed $72 $-1 #
coedge $-1 $301 $306 $115 $187 forward $307 $-1 #
edge $-1 $308 31.102106421042549 $309 35.721059262427488 $186 $310 forward 7 unknown #
loop $-1 $-1 $193 $116 #
plane-surface $-1 -43.094460184392894 -43.905367037494472 10.020672166418038 0 -0.78801076186113728 0.61566146476048833 1 0 0 forward_v I I I I #
loop $-1 $-1 $311 $74 #
coedge $-1 $191 $191 $192 $312 reversed $117 $-1 #
coedge $-1 $192 $192 $191 $312 forward $119 $-1 #
coedge $-1 $193 $193 $120 $194 forward $188 $-1 #
edge $-1 $313 -1.7501340976945918e-015 $313 6.2831853071795987 $193 $314 forward 7 unknown #
loop $-1 $-1 $200 $121 #
plane-surface $-1 -43.094460184392894 -43.905367037494472 10.020672166418038 0 -0.78801076186113728 0.61566146476048833 1 0 0 forward_v I I I I #
loop $-1 $-1 $315 $77 #
coedge $-1 $198 $198 $199 $316 reversed $122 $-1 #
coedge $-1 $199 $199 $198 $316 forward $124 $-1 #
coedge $-1 $200 $200 $125 $201 forward $195 $-1 #
edge $-1 $317 -1.7501340976945918e-015 $317 6.2831853071795987 $200 $318 forward 7 unknown #
face $-1 $319 $320 $44 $-1 $321 forward single #
loop $-1 $-1 $322 $126 #
plane-surface $-1 -15.283797386539216 49.209954456902636 172.57989817970872 -1 0 0 0 0.57357644374324357 0.81915203911291934 forward_v I I I I #
coedge $-1 $323 $324 $325 $326 reversed $127 $-1 #
coedge $-1 $207 $129 $327 $328 reversed $81 $-1 #
coedge $-1 $129 $206 $323 $329 reversed $81 $-1 #
coedge $-1 $325 $330 $129 $209 forward $320 $-1 #
edge $-1 $331 -19.300389809043168 $332 -13.556605762974911 $208 $333 forward 7 unknown #
loop $-1 $-1 $215 $130 #
plane-surface $-1 -27.33332974357424 -28.024974836035028 62.2769899776888 0 0.57357644374324357 0.81915203911291934 1 0 0 forward_v I I I I #
loop $-1 $-1 $334 $83 #
coedge $-1 $213 $213 $214 $335 reversed $131 $-1 #
coedge $-1 $214 $214 $213 $335 forward $133 $-1 #
coedge $-1 $215 $215 $134 $216 forward $210 $-1 #
edge $-1 $336 -2.3265594049317972e-015 $336 6.2831853071795978 $215 $337 forward 7 unknown #
loop $-1 $-1 $222 $135 #
plane-surface $-1 -27.33332974357424 -28.024974836035028 62.2769899776888 0 0.57357644374324357 0.81915203911291934 1 0 0 forward_v I I I I #
loop $-1 $-1 $338 $86 #
coedge $-1 $220 $220 $221 $339 reversed $136 $-1 #
coedge $-1 $221 $221 $220 $339 forward $138 $-1 #
coedge $-1 $222 $222 $139 $223 forward $217 $-1 #
edge $-1 $340 -2.3265594049317972e-015 $340 6.2831853071795978 $222 $341 forward 7 unknown #
loop $-1 $-1 $229 $140 #
plane-surface $-1 -27.33332974357424 -28.024974836035028 62.2769899776888 0 0.57357644374324357 0.81915203911291934 1 0 0 forward_v I I I I #
loop $-1 $-1 $342 $89 #
coedge $-1 $227 $227 $228 $343 reversed $141 $-1 #
coedge $-1 $228 $228 $227 $343 forward $143 $-1 #
coedge $-1 $229 $229 $144 $230 forward $224 $-1 #
edge $-1 $344 -2.3265594049317972e-015 $344 6.2831853071795978 $229 $345 forward 7 unknown #
face $-1 $346 $347 $48 $-1 $348 forward single #
loop $-1 $-1 $349 $145 #
plane-surface $-1 42.921089063171337 49.209954456902636 172.57989817970872 -1 0 0 0 0.57357644374324357 0.81915203911291934 forward_v I I I I #
coedge $-1 $350 $351 $352 $353 reversed $146 $-1 #
coedge $-1 $236 $148 $354 $355 reversed $93 $-1 #
coedge $-1 $148 $235 $350 $356 reversed $93 $-1 #
coedge $-1 $352 $357 $148 $238 forward $347 $-1 #
edge $-1 $358 -19.300389809043168 $359 -13.556605762974911 $237 $360 forward 7 unknown #
loop $-1 $-1 $244 $149 #
plane-surface $-1 30.871556706136317 -28.024974836035028 62.2769899776888 0 0.57357644374324357 0.81915203911291934 1 0 0 forward_v I I I I #
loop $-1 $-1 $361 $95 #
coedge $-1 $242 $242 $243 $362 reversed $150 $-1 #
coedge $-1 $243 $243 $242 $362 forward $152 $-1 #
coedge $-1 $244 $244 $153 $245 forward $239 $-1 #
edge $-1 $363 -2.3265594049317972e-015 $363 6.2831853071795978 $244 $364 forward 7 unknown #
loop $-1 $-1 $251 $154 #
plane-surface $-1 30.871556706136317 -28.024974836035028 62.2769899776888 0 0.57357644374324357 0.81915203911291934 1 0 0 forward_v I I I I #
loop $-1 $-1 $365 $98 #
coedge $-1 $249 $249 $250 $366 reversed $155 $-1 #
coedge $-1 $250 $250 $249 $366 forward $157 $-1 #
coedge $-1 $251 $251 $158 $252 forward $246 $-1 #
edge $-1 $367 -2.3265594049317972e-015 $367 6.2831853071795978 $251 $368 forward 7 unknown #
loop $-1 $-1 $258 $159 #
plane-surface $-1 30.871556706136317 -28.024974836035028 62.2769899776888 0 0.57357644374324357 0.81915203911291934 1 0 0 forward_v I I I I #
loop $-1 $-1 $369 $101 #
coedge $-1 $256 $256 $257 $370 reversed $160 $-1 #
coedge $-1 $257 $257 $256 $370 forward $162 $-1 #
coedge $-1 $258 $258 $163 $259 forward $253 $-1 #
edge $-1 $371 -2.3265594049317972e-015 $371 6.2831853071795978 $258 $372 forward 7 unknown #
face $-1 $373 $374 $39 $-1 $375 reversed single #
loop $-1 $-1 $376 $164 #
plane-surface $-1 -67.327494125186931 0 0 1 0 0 0 0 -1 forward_v I I I I #
coedge $-1 $377 $271 $378 $379 forward $165 $-1 #
coedge $-1 $380 $167 $377 $381 forward $105 $-1 #
coedge $-1 $167 $380 $382 $383 forward $105 $-1 #
coedge $-1 $274 $273 $167 $267 reversed $275 $-1 #
edge $-1 $384 -43.905367037494486 $385 43.905367037494486 $266 $386 forward 7 unknown #
coedge $-1 $169 $168 $387 $388 forward $66 $-1 #
coedge $-1 $389 $390 $168 $270 reversed $374 $-1 #
edge $-1 $277 -67.327494125186931 $391 67.327494125186931 $269 $392 forward 7 unknown #
coedge $-1 $263 $393 $169 $272 reversed $165 $-1 #
edge $-1 $394 -67.327494125186931 $276 67.327494125186931 $271 $395 forward 7 unknown #
coedge $-1 $266 $170 $393 $396 forward $275 $-1 #
coedge $-1 $170 $266 $389 $397 reversed $275 $-1 #
loop $-1 $-1 $273 $373 #
vertex $-1 $171 $398 #
vertex $-1 $171 $399 #
straight-curve $-1 67.327494125186931 0 15.93266236862501 0 1 0 I I #
face $-1 $400 $401 $40 $-1 $402 forward single #
loop $-1 $-1 $403 $172 #
plane-surface $-1 -67.327494125186931 0 0 1 0 0 0 0 -1 forward_v I I I I #
coedge $-1 $289 $404 $291 $405 forward $173 $-1 #
coedge $-1 $175 $291 $406 $407 reversed $109 $-1 #
coedge $-1 $408 $287 $175 $285 forward $409 $-1 #
edge $-1 $293 3.0818690753410642 $410 9.5944852206363187 $284 $411 forward 7 unknown #
coedge $-1 $177 $176 $403 $412 reversed $69 $-1 #
coedge $-1 $284 $413 $176 $288 forward $409 $-1 #
edge $-1 $414 -38.225050900331652 $293 -19.979835549378905 $287 $415 forward 7 unknown #
coedge $-1 $416 $282 $177 $290 forward $173 $-1 #
edge $-1 $292 19.979835549378905 $417 38.225050900331652 $289 $418 forward 7 unknown #
coedge $-1 $283 $178 $282 $405 reversed $109 $-1 #
vertex $-1 $290 $419 #
vertex $-1 $288 $420 #
straight-curve $-1 -49.082278774234183 0 9.4200462233297557 0 -1 0 I I #
face $-1 $-1 $307 $41 $-1 $421 forward single #
loop $-1 $-1 $422 $180 #
plane-surface $-1 0 -43.905367037494486 0 0 1 0 0 0 1 forward_v I I I I #
coedge $-1 $423 $424 $300 $425 forward $181 $-1 #
coedge $-1 $426 $183 $185 $305 forward $113 $-1 #
coedge $-1 $183 $426 $298 $425 reversed $113 $-1 #
coedge $-1 $427 $186 $183 $302 forward $307 $-1 #
edge $-1 $309 15.559411502355164 $428 27.535048682037736 $301 $429 forward 7 unknown #
coedge $-1 $430 $422 $184 $304 forward $296 $-1 #
edge $-1 $431 -36.440607568556757 $308 -30.528617366349771 $303 $432 forward 7 unknown #
edge $-1 $309 -7.5024231753433579 $431 2.274695869299009e-014 $185 $433 forward 7 unknown #
coedge $-1 $186 $427 $430 $434 forward $307 $-1 #
loop $-1 $-1 $301 $295 #
vertex $-1 $304 $435 #
vertex $-1 $187 $436 #
straight-curve $-1 -37.106641594551611 -75.007473458537035 15.93266236862501 0 1 0 I I #
coedge $-1 $311 $311 $-1 $437 reversed $190 $-1 #
edge $-1 $438 0 $438 6.2831853071796004 $191 $439 forward 7 unknown #
vertex $-1 $194 $440 #
ellipse-curve $-1 -45.660668151467732 -41.595890616802009 12.976667267521522 0 -0.78801076186113728 0.61566146476048833 1 0 0 1 I I #
coedge $-1 $315 $315 $-1 $441 reversed $197 $-1 #
edge $-1 $442 0 $442 6.2831853071796004 $198 $443 forward 7 unknown #
vertex $-1 $201 $444 #
ellipse-curve $-1 -40.528252217318055 -41.595890616802009 12.976667267521522 0 -0.78801076186113728 0.61566146476048833 1 0 0 1 I I #
face $-1 $-1 $445 $44 $-1 $446 reversed single #
loop $-1 $-1 $208 $202 #
plane-surface $-1 0 0 15.93266236862501 0 0 1 1 0 0 forward_v I I I I #
coedge $-1 $447 $448 $449 $450 reversed $203 $-1 #
coedge $-1 $451 $205 $207 $329 forward $127 $-1 #
coedge $-1 $205 $451 $447 $452 forward $127 $-1 #
coedge $-1 $449 $208 $205 $326 forward $320 $-1 #
edge $-1 $332 -25.716197228822139 $453 -1.6171325147520967 $325 $454 forward 7 unknown #
coedge $-1 $455 $456 $206 $328 forward $445 $-1 #
edge $-1 $457 -74.379127685381377 $331 -70.357286721229343 $327 $458 forward 7 unknown #
edge $-1 $332 80.798868423908672 $457 87.810734074988957 $207 $459 forward 7 unknown #
coedge $-1 $208 $449 $455 $460 forward $320 $-1 #
vertex $-1 $328 $461 #
vertex $-1 $209 $462 #
straight-curve $-1 -39.382862100609259 24.604977228451318 15.932662368625017 0 -1 0 I I #
coedge $-1 $334 $334 $-1 $463 reversed $212 $-1 #
edge $-1 $464 0 $464 6.2831853071796004 $213 $465 forward 7 unknown #
vertex $-1 $216 $466 #
ellipse-curve $-1 -34.563049157795255 41.03347501446035 13.921741886548995 0 0.57357644374324357 0.81915203911291934 1.5 0 0 1 I I #
coedge $-1 $338 $338 $-1 $467 reversed $219 $-1 #
edge $-1 $468 0 $468 6.2831853071796004 $220 $469 forward 7 unknown #
vertex $-1 $223 $470 #
ellipse-curve $-1 -27.33332974357424 41.03347501446035 13.921741886548995 0 0.57357644374324357 0.81915203911291934 1.5 0 0 1 I I #
coedge $-1 $342 $342 $-1 $471 reversed $226 $-1 #
edge $-1 $472 0 $472 6.2831853071796004 $227 $473 forward 7 unknown #
vertex $-1 $230 $474 #
ellipse-curve $-1 -20.103610329353224 41.03347501446035 13.921741886548995 0 0.57357644374324357 0.81915203911291934 1.5 0 0 1 I I #
face $-1 $-1 $475 $48 $-1 $476 reversed single #
loop $-1 $-1 $237 $231 #
plane-surface $-1 0 0 15.93266236862501 0 0 1 1 0 0 forward_v I I I I #
coedge $-1 $477 $478 $479 $480 reversed $232 $-1 #
coedge $-1 $481 $234 $236 $356 forward $146 $-1 #
coedge $-1 $234 $481 $477 $482 forward $146 $-1 #
coedge $-1 $479 $237 $234 $353 forward $347 $-1 #
edge $-1 $359 3.3862459960331357 $483 27.485310710103178 $352 $484 forward 7 unknown #
coedge $-1 $485 $486 $235 $355 forward $475 $-1 #
edge $-1 $487 -74.379127685381377 $358 -70.357286721229343 $354 $488 forward 7 unknown #
edge $-1 $359 80.798868423908672 $487 87.810734074988957 $236 $489 forward 7 unknown #
coedge $-1 $237 $479 $485 $490 forward $347 $-1 #
vertex $-1 $238 $491 #
vertex $-1 $238 $492 #
straight-curve $-1 18.822024349101294 24.604977228451318 15.932662368625017 0 -1 0 I I #
coedge $-1 $361 $361 $-1 $493 reversed $241 $-1 #
edge $-1 $494 0 $494 6.2831853071796004 $242 $495 forward 7 unknown #
vertex $-1 $245 $496 #
ellipse-curve $-1 23.641837291915309 41.03347501446035 13.921741886548995 0 0.57357644374324357 0.81915203911291934 1.5 0 0 1 I I #
coedge $-1 $365 $365 $-1 $497 reversed $248 $-1 #
edge $-1 $498 0 $498 6.2831853071796004 $249 $499 forward 7 unknown #
vertex $-1 $252 $500 #
ellipse-curve $-1 30.871556706136317 41.03347501446035 13.921741886548995 0 0.57357644374324357 0.81915203911291934 1.5 0 0 1 I I #
coedge $-1 $369 $369 $-1 $501 reversed $255 $-1 #
edge $-1 $502 0 $502 6.2831853071796004 $256 $503 forward 7 unknown #
vertex $-1 $259 $504 #
ellipse-curve $-1 38.101276120357326 41.03347501446035 13.921741886548995 0 0.57357644374324357 0.81915203911291934 1.5 0 0 1 I I #
face $-1 $-1 $275 $39 $-1 $505 reversed single #
loop $-1 $-1 $389 $260 #
plane-surface $-1 0 43.905367037494486 0 0 -1 0 0 0 -1 forward_v I I I I #
coedge $-1 $506 $387 $390 $507 forward $261 $-1 #
coedge $-1 $393 $263 $264 $381 reversed $165 $-1 #
coedge $-1 $387 $506 $263 $379 reversed $261 $-1 #
edge $-1 $394 -15.93266236862501 $508 15.93266236862501 $378 $509 forward 7 unknown #
coedge $-1 $265 $264 $506 $510 forward $105 $-1 #
edge $-1 $385 -67.327494125186931 $508 67.327494125186931 $377 $511 forward 7 unknown #
coedge $-1 $390 $389 $265 $383 reversed $374 $-1 #
edge $-1 $512 -67.327494125186931 $384 67.327494125186931 $382 $513 forward 7 unknown #
vertex $-1 $267 $514 #
vertex $-1 $396 $515 #
straight-curve $-1 67.327494125186931 0 -15.93266236862501 0 -1 0 I I #
coedge $-1 $376 $378 $268 $388 reversed $261 $-1 #
edge $-1 $391 -43.905367037494486 $394 43.905367037494486 $387 $516 forward 7 unknown #
coedge $-1 $382 $269 $274 $397 forward $374 $-1 #
coedge $-1 $269 $382 $376 $507 reversed $374 $-1 #
vertex $-1 $270 $517 #
straight-curve $-1 0 43.905367037494486 15.93266236862501 -1 0 0 I I #
coedge $-1 $271 $377 $273 $396 reversed $165 $-1 #
vertex $-1 $388 $518 #
straight-curve $-1 0 -43.905367037494486 15.93266236862501 1 0 0 I I #
edge $-1 $276 -15.93266236862501 $385 15.93266236862501 $273 $519 forward 7 unknown #
edge $-1 $277 -15.93266236862501 $384 15.93266236862501 $274 $520 forward 7 unknown #
point $-1 67.327494125186931 -43.905367037494486 15.93266236862501 #
point $-1 67.327494125186931 43.905367037494486 15.93266236862501 #
face $-1 $-1 $409 $40 $-1 $521 reversed single #
loop $-1 $-1 $406 $279 #
plane-surface $-1 0 0 15.93266236862501 0 0 1 1 0 0 forward_v I I I I #
coedge $-1 $522 $523 $286 $412 forward $280 $-1 #
coedge $-1 $282 $416 $524 $525 reversed $173 $-1 #
edge $-1 $526 -9.5944852206363187 $292 -3.0818690753410642 $282 $527 forward 7 unknown #
coedge $-1 $524 $528 $283 $407 forward $401 $-1 #
edge $-1 $410 -43.905367037494486 $526 43.905367037494486 $406 $529 forward 7 unknown #
coedge $-1 $413 $284 $528 $530 reversed $409 $-1 #
loop $-1 $-1 $284 $400 #
vertex $-1 $285 $531 #
straight-curve $-1 -49.082278774234183 -43.905367037494486 6.3381771479886915 0 0 1 I I #
edge $-1 $417 -43.905367037494486 $414 43.905367037494486 $403 $532 forward 7 unknown #
coedge $-1 $287 $408 $522 $533 forward $409 $-1 #
vertex $-1 $412 $534 #
straight-curve $-1 -29.102443224855278 -43.905367037494486 9.4200462233297557 1 0 0 I I #
coedge $-1 $404 $289 $523 $535 reversed $173 $-1 #
vertex $-1 $412 $536 #
straight-curve $-1 -29.102443224855278 43.905367037494486 9.4200462233297557 -1 0 0 I I #
point $-1 -49.082278774234183 43.905367037494486 9.4200462233297557 #
point $-1 -49.082278774234183 -43.905367037494486 9.4200462233297557 #
plane-surface $-1 0 0 15.93266236862501 0 0 1 1 0 0 forward_v I I I I #
coedge $-1 $303 $537 $426 $538 forward $296 $-1 #
coedge $-1 $424 $298 $537 $539 reversed $181 $-1 #
coedge $-1 $298 $423 $427 $540 reversed $181 $-1 #
edge $-1 $428 7.0593511643195317 $541 14.561774339662913 $298 $542 forward 7 unknown #
coedge $-1 $300 $299 $422 $538 reversed $113 $-1 #
coedge $-1 $306 $301 $424 $540 forward $307 $-1 #
vertex $-1 $540 $543 #
straight-curve $-1 -21.547230092196447 -39.286414196109547 15.93266236862501 -1 0 0 I I #
coedge $-1 $537 $303 $306 $434 reversed $296 $-1 #
vertex $-1 $304 $544 #
straight-curve $-1 -37.106641594551611 -43.905367037494486 46.461279734974781 0 0 1 I I #
straight-curve $-1 -37.106641594551611 -43.905367037494472 10.020672166418038 0 -0.61566146476048833 -0.78801076186113728 I I #
edge $-1 $545 -49.082278774234183 $308 -37.106641594551611 $430 $546 forward 7 unknown #
point $-1 -37.106641594551611 -43.905367037494486 15.93266236862501 #
point $-1 -37.106641594551611 -39.286414196109547 15.93266236862501 #
edge $-1 $547 1 $547 0 $311 $-1 forward 7 unknown #
vertex $-1 $312 $548 #
ellipse-curve $-1 -45.660668151467732 -40.002650070725167 11.731891363704205 0 -0.78801076186113728 0.61566146476048833 1 0 0 1 I I #
point $-1 -44.660668151467732 -41.595890616802023 12.976667267521531 #
edge $-1 $549 1 $549 0 $315 $-1 forward 7 unknown #
vertex $-1 $316 $550 #
ellipse-curve $-1 -40.528252217318055 -40.002650070725167 11.731891363704205 0 -0.78801076186113728 0.61566146476048833 1 0 0 1 I I #
point $-1 -39.528252217318055 -41.595890616802023 12.976667267521531 #
loop $-1 $-1 $327 $319 #
plane-surface $-1 0 43.905367037494486 0 0 -1 0 0 0 -1 forward_v I I I I #
coedge $-1 $448 $322 $324 $452 reversed $203 $-1 #
coedge $-1 $322 $447 $551 $552 reversed $203 $-1 #
coedge $-1 $330 $325 $322 $450 forward $320 $-1 #
edge $-1 $453 13.556605762974911 $553 19.300389809043168 $449 $554 forward 7 unknown #
coedge $-1 $324 $323 $456 $555 reversed $127 $-1 #
edge $-1 $556 -87.810734074988957 $453 -80.798868423908672 $447 $557 forward 7 unknown #
vertex $-1 $326 $558 #
straight-curve $-1 -13.66666487178712 38.161582991426236 15.93266236862501 1 0 0 I I #
coedge $-1 $551 $327 $330 $460 reversed $445 $-1 #
coedge $-1 $327 $551 $451 $555 forward $445 $-1 #
vertex $-1 $328 $559 #
straight-curve $-1 -39.382862100609259 43.905367037494486 86.28994908985436 0 0 1 I I #
straight-curve $-1 -39.382862100609259 -28.024974836035028 62.2769899776888 0 0.81915203911291934 -0.57357644374324357 I I #
edge $-1 $553 15.283797386539216 $331 39.382862100609259 $455 $560 forward 7 unknown #
point $-1 -39.382862100609259 43.905367037494486 15.93266236862501 #
point $-1 -39.382862100609259 38.161582991426229 15.93266236862501 #
edge $-1 $561 1 $561 0 $334 $-1 forward 7 unknown #
vertex $-1 $335 $562 #
ellipse-curve $-1 -34.563049157795255 39.665036485518115 11.967409166627354 0 0.57357644374324357 0.81915203911291934 1.5 0 0 1 I I #
point $-1 -33.063049157795255 41.033475014460336 13.921741886548981 #
edge $-1 $563 1 $563 0 $338 $-1 forward 7 unknown #
vertex $-1 $339 $564 #
ellipse-curve $-1 -27.33332974357424 39.665036485518115 11.967409166627354 0 0.57357644374324357 0.81915203911291934 1.5 0 0 1 I I #
point $-1 -25.83332974357424 41.033475014460336 13.921741886548981 #
edge $-1 $565 1 $565 0 $342 $-1 forward 7 unknown #
vertex $-1 $343 $566 #
ellipse-curve $-1 -20.103610329353224 39.665036485518115 11.967409166627354 0 0.57357644374324357 0.81915203911291934 1.5 0 0 1 I I #
point $-1 -18.603610329353224 41.033475014460336 13.921741886548981 #
loop $-1 $-1 $354 $346 #
plane-surface $-1 0 43.905367037494486 0 0 -1 0 0 0 -1 forward_v I I I I #
coedge $-1 $478 $349 $351 $482 reversed $232 $-1 #
coedge $-1 $349 $477 $567 $568 reversed $232 $-1 #
coedge $-1 $357 $352 $349 $480 forward $347 $-1 #
edge $-1 $483 13.556605762974911 $569 19.300389809043168 $479 $570 forward 7 unknown #
coedge $-1 $351 $350 $486 $571 reversed $146 $-1 #
edge $-1 $572 -87.810734074988957 $483 -80.798868423908672 $477 $573 forward 7 unknown #
vertex $-1 $353 $574 #
straight-curve $-1 15.435778353068159 38.161582991426236 15.93266236862501 1 0 0 I I #
coedge $-1 $567 $354 $357 $490 reversed $475 $-1 #
coedge $-1 $354 $567 $481 $571 forward $475 $-1 #
vertex $-1 $355 $575 #
straight-curve $-1 18.822024349101294 43.905367037494486 86.28994908985436 0 0 1 I I #
straight-curve $-1 18.822024349101294 -28.024974836035028 62.2769899776888 0 0.81915203911291934 -0.57357644374324357 I I #
edge $-1 $569 -42.921089063171337 $358 -18.822024349101294 $485 $576 forward 7 unknown #
point $-1 18.822024349101294 43.905367037494486 15.93266236862501 #
point $-1 18.822024349101294 38.161582991426229 15.93266236862501 #
edge $-1 $577 1 $577 0 $361 $-1 forward 7 unknown #
vertex $-1 $362 $578 #
ellipse-curve $-1 23.641837291915309 39.665036485518115 11.967409166627354 0 0.57357644374324357 0.81915203911291934 1.5 0 0 1 I I #
point $-1 25.141837291915309 41.033475014460336 13.921741886548981 #
edge $-1 $579 1 $579 0 $365 $-1 forward 7 unknown #
vertex $-1 $366 $580 #
ellipse-curve $-1 30.871556706136317 39.665036485518115 11.967409166627354 0 0.57357644374324357 0.81915203911291934 1.5 0 0 1 I I #
point $-1 32.371556706136317 41.033475014460336 13.921741886548981 #
edge $-1 $581 1 $581 0 $369 $-1 forward 7 unknown #
vertex $-1 $370 $582 #
ellipse-curve $-1 38.101276120357326 39.665036485518115 11.967409166627354 0 0.57357644374324357 0.81915203911291934 1.5 0 0 1 I I #
point $-1 39.601276120357326 41.033475014460336 13.921741886548981 #
plane-surface $-1 67.327494125186931 0 0 -1 0 0 0 0 1 forward_v I I I I #
coedge $-1 $378 $376 $380 $510 reversed $261 $-1 #
edge $-1 $391 -15.93266236862501 $512 15.93266236862501 $390 $583 forward 7 unknown #
vertex $-1 $510 $584 #
straight-curve $-1 -67.327494125186931 -43.905367037494486 0 0 0 -1 I I #
edge $-1 $508 -43.905367037494486 $512 43.905367037494486 $506 $585 forward 7 unknown #
straight-curve $-1 0 -43.905367037494486 -15.93266236862501 -1 0 0 I I #
vertex $-1 $383 $586 #
straight-curve $-1 0 43.905367037494486 -15.93266236862501 1 0 0 I I #
point $-1 67.327494125186931 43.905367037494486 -15.93266236862501 #
point $-1 67.327494125186931 -43.905367037494486 -15.93266236862501 #
straight-curve $-1 -67.327494125186931 0 15.93266236862501 0 -1 0 I I #
point $-1 -67.327494125186931 43.905367037494486 15.93266236862501 #
point $-1 -67.327494125186931 -43.905367037494486 15.93266236862501 #
straight-curve $-1 67.327494125186931 -43.905367037494486 0 0 0 -1 I I #
straight-curve $-1 67.327494125186931 43.905367037494486 0 0 0 -1 I I #
plane-surface $-1 0 -43.905367037494486 0 0 1 0 0 0 1 forward_v I I I I #
coedge $-1 $587 $403 $413 $533 reversed $280 $-1 #
coedge $-1 $403 $587 $416 $535 forward $280 $-1 #
coedge $-1 $588 $406 $404 $525 forward $401 $-1 #
edge $-1 $526 49.082278774234183 $589 67.327494125186931 $404 $590 forward 7 unknown #
vertex $-1 $525 $591 #
straight-curve $-1 -49.082278774234183 43.905367037494486 6.3381771479886915 0 0 -1 I I #
coedge $-1 $406 $588 $408 $530 forward $401 $-1 #
straight-curve $-1 -49.082278774234183 0 15.93266236862501 0 1 0 I I #
edge $-1 $592 -67.327494125186931 $410 -49.082278774234183 $408 $593 forward 7 unknown #
point $-1 -49.082278774234183 -43.905367037494486 15.93266236862501 #
straight-curve $-1 -67.327494125186931 0 9.4200462233297557 0 -1 0 I I #
edge $-1 $592 -15.93266236862501 $414 -9.4200462233297557 $522 $594 forward 7 unknown #
point $-1 -67.327494125186931 -43.905367037494486 9.4200462233297557 #
edge $-1 $589 -15.93266236862501 $417 -9.4200462233297557 $416 $595 forward 7 unknown #
point $-1 -67.327494125186931 43.905367037494486 9.4200462233297557 #
coedge $-1 $422 $430 $423 $539 forward $296 $-1 #
edge $-1 $541 -27.535048682037736 $431 -15.559411502355164 $422 $596 forward 7 unknown #
edge $-1 $545 -9.5944852206363187 $541 -3.6824950184293286 $537 $597 forward 7 unknown #
edge $-1 $428 39.286414196109547 $545 43.905367037494486 $427 $598 forward 7 unknown #
vertex $-1 $425 $599 #
straight-curve $-1 -49.082278774234183 -34.940243718025926 21.495507057865751 0 -0.61566146476048833 -0.78801076186113728 I I #
point $-1 -49.082278774234183 -39.286414196109547 15.93266236862501 #
point $-1 -37.106641594551611 -43.905367037494486 10.02067216641802 #
vertex $-1 $434 $600 #
straight-curve $-1 0 -43.905367037494486 15.93266236862501 1 0 0 I I #
vertex $-1 $437 $601 #
point $-1 -44.660668151467732 -40.002650070725167 11.731891363704205 #
vertex $-1 $441 $602 #
point $-1 -39.528252217318055 -40.002650070725167 11.731891363704205 #
coedge $-1 $456 $455 $448 $552 forward $445 $-1 #
edge $-1 $553 70.357286721229343 $556 74.379127685381377 $551 $603 forward 7 unknown #
vertex $-1 $460 $604 #
straight-curve $-1 -15.283797386539216 24.604977228451318 15.932662368625017 0 1 0 I I #
edge $-1 $556 1.6171325147520967 $457 25.716197228822139 $456 $605 forward 7 unknown #
vertex $-1 $555 $606 #
straight-curve $-1 -15.283797386539216 -28.024974836035028 62.2769899776888 0 -0.81915203911291934 0.57357644374324357 I I #
point $-1 -15.283797386539216 38.161582991426229 15.93266236862501 #
point $-1 -39.382862100609259 43.905367037494486 11.910821404472976 #
straight-curve $-1 0 43.905367037494486 15.93266236862501 -1 0 0 I I #
vertex $-1 $463 $607 #
point $-1 -33.063049157795255 39.665036485518115 11.967409166627354 #
vertex $-1 $467 $608 #
point $-1 -25.83332974357424 39.665036485518115 11.967409166627354 #
vertex $-1 $471 $609 #
point $-1 -18.603610329353224 39.665036485518115 11.967409166627354 #
coedge $-1 $486 $485 $478 $568 forward $475 $-1 #
edge $-1 $569 70.357286721229343 $572 74.379127685381377 $567 $610 forward 7 unknown #
vertex $-1 $490 $611 #
straight-curve $-1 42.921089063171337 24.604977228451318 15.932662368625017 0 1 0 I I #
edge $-1 $572 -27.485310710103178 $487 -3.3862459960331357 $486 $612 forward 7 unknown #
vertex $-1 $571 $613 #
straight-curve $-1 42.921089063171337 -28.024974836035028 62.2769899776888 0 -0.81915203911291934 0.57357644374324357 I I #
point $-1 42.921089063171337 38.161582991426229 15.93266236862501 #
point $-1 18.822024349101294 43.905367037494486 11.910821404472976 #
straight-curve $-1 0 43.905367037494486 15.93266236862501 -1 0 0 I I #
vertex $-1 $493 $614 #
point $-1 25.141837291915309 39.665036485518115 11.967409166627354 #
vertex $-1 $497 $615 #
point $-1 32.371556706136317 39.665036485518115 11.967409166627354 #
vertex $-1 $501 $616 #
point $-1 39.601276120357326 39.665036485518115 11.967409166627354 #
straight-curve $-1 -67.327494125186931 43.905367037494486 0 0 0 -1 I I #
point $-1 -67.327494125186931 -43.905367037494486 -15.93266236862501 #
straight-curve $-1 -67.327494125186931 0 -15.93266236862501 0 1 0 I I #
point $-1 -67.327494125186931 43.905367037494486 -15.93266236862501 #
coedge $-1 $523 $522 $588 $617 reversed $280 $-1 #
coedge $-1 $528 $524 $587 $617 forward $401 $-1 #
vertex $-1 $525 $618 #
straight-curve $-1 0 43.905367037494486 15.93266236862501 -1 0 0 I I #
point $-1 -49.082278774234183 43.905367037494486 15.93266236862501 #
vertex $-1 $617 $619 #
straight-curve $-1 0 -43.905367037494486 15.93266236862501 1 0 0 I I #
straight-curve $-1 -67.327494125186931 -43.905367037494486 0 0 0 -1 I I #
straight-curve $-1 -67.327494125186931 43.905367037494486 0 0 0 -1 I I #
straight-curve $-1 -21.547230092196447 -43.905367037494486 10.020672166418018 1 0 0 I I #
straight-curve $-1 -49.082278774234183 -43.905367037494486 6.3381771479886915 0 0 -1 I I #
straight-curve $-1 -49.082278774234183 0 15.93266236862501 0 -1 0 I I #
point $-1 -49.082278774234183 -43.905367037494486 10.02067216641802 #
point $-1 -49.082278774234183 -43.905367037494486 15.93266236862501 #
point $-1 -45.660668151467732 -39.214639308864037 11.116229898943716 #
point $-1 -40.528252217318055 -39.214639308864037 11.116229898943716 #
straight-curve $-1 -15.283797386539216 43.905367037494486 86.28994908985436 0 0 -1 I I #
point $-1 -15.283797386539216 43.905367037494486 15.93266236862501 #
straight-curve $-1 -13.66666487178712 43.905367037494493 11.910821404472969 -1 0 0 I I #
point $-1 -15.283797386539216 43.905367037494486 11.910821404472976 #
point $-1 -34.563049157795255 38.804671819903248 10.738681107957975 #
point $-1 -27.33332974357424 38.804671819903248 10.738681107957975 #
point $-1 -20.103610329353224 38.804671819903248 10.738681107957975 #
straight-curve $-1 42.921089063171337 43.905367037494486 86.28994908985436 0 0 -1 I I #
point $-1 42.921089063171337 43.905367037494486 15.93266236862501 #
straight-curve $-1 15.435778353068159 43.905367037494493 11.910821404472969 -1 0 0 I I #
point $-1 42.921089063171337 43.905367037494486 11.910821404472976 #
point $-1 23.641837291915309 38.804671819903248 10.738681107957975 #
point $-1 30.871556706136317 38.804671819903248 10.738681107957975 #
point $-1 38.101276120357326 38.804671819903248 10.738681107957975 #
edge $-1 $589 -43.905367037494486 $592 43.905367037494486 $587 $620 forward 7 unknown #
point $-1 -67.327494125186931 43.905367037494486 15.93266236862501 #
point $-1 -67.327494125186931 -43.905367037494486 15.93266236862501 #
straight-curve $-1 -67.327494125186931 0 15.93266236862501 0 -1 0 I I #
End-of-ACIS-data 