500 0 5 0           
7 Unknown 11 ACIS 5.0 NT 24 Fri Mar 26 17:47:14 1999 
-1 9.9999999999999995e-007 1e-010 
body $-1 $5 $-1 $6 #
body $-1 $7 $-1 $8 #
body $-1 $9 $-1 $10 #
body $-1 $11 $-1 $12 #
body $-1 $13 $-1 $14 #
lump $-1 $-1 $15 $0 #
transform $-1 1 0 0 0 1 0 0 0 1 69.10122989593188 42.71108490875875 9.7184761150768608 1 rotate no_reflect no_shear #
lump $-1 $-1 $16 $1 #
transform $-1 1 0 0 0 1 0 0 0 1 69.10122989593188 42.71108490875875 9.7184761150768608 1 rotate no_reflect no_shear #
lump $-1 $-1 $17 $2 #
transform $-1 1 0 0 0 1 0 0 0 1 69.10122989593188 42.71108490875875 9.7184761150768608 1 rotate no_reflect no_shear #
lump $-1 $-1 $18 $3 #
transform $-1 1 0 0 0 1 0 0 0 1 69.10122989593188 42.71108490875875 9.7184761150768608 1 rotate no_reflect no_shear #
lump $-1 $-1 $19 $4 #
transform $-1 1 0 0 0 1 0 0 0 1 69.10122989593188 42.71108490875875 9.7184761150768608 1 rotate no_reflect no_shear #
shell $-1 $-1 $-1 $20 $-1 $5 #
shell $-1 $-1 $-1 $21 $-1 $7 #
shell $-1 $-1 $-1 $22 $-1 $9 #
shell $-1 $-1 $-1 $23 $-1 $11 #
shell $-1 $-1 $-1 $24 $-1 $13 #
face $-1 $25 $26 $15 $-1 $27 forward single #
face $-1 $28 $29 $16 $-1 $30 reversed single #
face $-1 $31 $32 $17 $-1 $33 reversed single #
face $-1 $34 $35 $18 $-1 $36 forward single #
face $-1 $37 $38 $19 $-1 $39 forward single #
face $-1 $40 $41 $15 $-1 $42 reversed single #
loop $-1 $-1 $43 $20 #
plane-surface $-1 0 0 9.7184761150768608 0 0 1 1 0 0 forward_v I I I I #
face $-1 $44 $45 $16 $-1 $46 reversed single #
loop $-1 $-1 $47 $21 #
plane-surface $-1 -64.228873512072155 0 5.1781649463760484 0 0 1 1 0 0 forward_v I I I I #
face $-1 $48 $49 $17 $-1 $50 reversed single #
loop $-1 $-1 $51 $22 #
plane-surface $-1 -51.374118934810184 -28.107102980393051 50.468435735334396 0 0.55919291073839883 0.82903756765294845 1 0 0 forward_v I I I I #
face $-1 $52 $53 $18 $-1 $54 forward single #
loop $-1 $55 $56 $23 #
cone-surface $-1 -54.795146731982577 36.10739492248247 4.131547246663958 0 -0.55919291073839883 -0.82903756765294845 2 0 0 1 I I 0 1 2 forward I I I I #
face $-1 $57 $58 $19 $-1 $59 forward single #
loop $-1 $60 $61 $24 #
cone-surface $-1 -47.953091137637792 36.10739492248247 4.131547246663958 0 -0.55919291073839883 -0.82903756765294845 2 0 0 1 I I 0 1 2 forward I I I I #
face $-1 $62 $63 $15 $-1 $64 reversed single #
loop $-1 $-1 $65 $25 #
plane-surface $-1 0 0 -9.7184761150768608 0 0 1 1 0 0 forward_v I I I I #
coedge $-1 $66 $67 $68 $69 forward $26 $-1 #
face $-1 $70 $71 $16 $-1 $72 reversed single #
loop $-1 $-1 $73 $28 #
plane-surface $-1 -59.356517128212431 0 7.4483205307264555 -1 0 0 0 0 1 forward_v I I I I #
coedge $-1 $74 $75 $76 $77 forward $29 $-1 #
face $-1 $78 $79 $17 $-1 $80 forward single #
loop $-1 $-1 $81 $31 #
plane-surface $-1 -43.391720741407937 49.174732781825767 165.04346684483554 -1 0 0 0 0.55919291073839883 0.82903756765294845 forward_v I I I I #
coedge $-1 $82 $83 $84 $85 reversed $32 $-1 #
face $-1 $-1 $86 $18 $-1 $87 forward single #
loop $-1 $88 $89 $34 #
cone-surface $-1 -54.795146731982577 34.146456740519042 1.2243368913930439 0 -0.55919291073839883 -0.82903756765294845 1 0 0 1 I I -0.70710678118654746 0.70710678118654746 1 forward I I I I #
loop $-1 $-1 $90 $23 #
coedge $-1 $56 $56 $91 $92 reversed $35 $-1 #
face $-1 $-1 $93 $19 $-1 $94 forward single #
loop $-1 $95 $96 $37 #
cone-surface $-1 -47.953091137637792 34.146456740519042 1.2243368913930439 0 -0.55919291073839883 -0.82903756765294845 1 0 0 1 I I -0.70710678118654746 0.70710678118654746 1 forward I I I I #
loop $-1 $-1 $97 $24 #
coedge $-1 $61 $61 $98 $99 reversed $38 $-1 #
face $-1 $100 $101 $15 $-1 $102 reversed single #
loop $-1 $-1 $103 $40 #
plane-surface $-1 0 -42.71108490875875 0 0 1 0 0 0 1 forward_v I I I I #
coedge $-1 $104 $105 $106 $107 forward $41 $-1 #
coedge $-1 $108 $43 $109 $110 forward $26 $-1 #
coedge $-1 $43 $108 $111 $112 forward $26 $-1 #
coedge $-1 $113 $114 $43 $69 reversed $115 $-1 #
edge $-1 $116 -42.71108490875875 $117 42.71108490875875 $68 $118 forward 7 unknown #
face $-1 $119 $120 $16 $-1 $121 reversed single #
loop $-1 $-1 $122 $44 #
plane-surface $-1 0 42.71108490875875 0 0 -1 0 0 0 -1 forward_v I I I I #
coedge $-1 $76 $123 $124 $125 reversed $45 $-1 #
coedge $-1 $126 $47 $127 $128 reversed $29 $-1 #
coedge $-1 $47 $126 $129 $130 reversed $29 $-1 #
coedge $-1 $131 $73 $47 $77 reversed $45 $-1 #
edge $-1 $132 -42.71108490875875 $133 42.71108490875875 $76 $134 forward 7 unknown #
face $-1 $135 $136 $17 $-1 $137 reversed single #
loop $-1 $-1 $84 $48 #
plane-surface $-1 0 0 9.7184761150768608 0 0 1 1 0 0 forward_v I I I I #
coedge $-1 $138 $139 $140 $141 reversed $49 $-1 #
coedge $-1 $142 $51 $143 $144 reversed $32 $-1 #
coedge $-1 $51 $142 $138 $145 forward $32 $-1 #
coedge $-1 $140 $146 $51 $85 forward $79 $-1 #
edge $-1 $147 -33.669457660807339 $148 -17.704661274002845 $84 $149 forward 7 unknown #
loop $-1 $-1 $91 $52 #
plane-surface $-1 -51.374118934810184 -28.107102980393051 50.468435735334396 0 0.55919291073839883 0.82903756765294845 1 0 0 forward_v I I I I #
loop $-1 $-1 $150 $34 #
coedge $-1 $89 $89 $90 $151 reversed $53 $-1 #
coedge $-1 $90 $90 $89 $151 forward $55 $-1 #
coedge $-1 $91 $91 $56 $92 forward $86 $-1 #
edge $-1 $152 -1.1723669938923804e-015 $152 6.2831853071795996 $91 $153 forward 7 unknown #
loop $-1 $-1 $98 $57 #
plane-surface $-1 -51.374118934810184 -28.107102980393051 50.468435735334396 0 0.55919291073839883 0.82903756765294845 1 0 0 forward_v I I I I #
loop $-1 $-1 $154 $37 #
coedge $-1 $96 $96 $97 $155 reversed $58 $-1 #
coedge $-1 $97 $97 $96 $155 forward $60 $-1 #
coedge $-1 $98 $98 $61 $99 forward $93 $-1 #
edge $-1 $156 -1.1723669938923804e-015 $156 6.2831853071795996 $98 $157 forward 7 unknown #
face $-1 $158 $159 $15 $-1 $160 reversed single #
loop $-1 $-1 $161 $62 #
plane-surface $-1 -69.10122989593188 0 0 1 0 0 0 0 -1 forward_v I I I I #
coedge $-1 $162 $111 $163 $164 forward $63 $-1 #
coedge $-1 $165 $65 $162 $166 forward $41 $-1 #
coedge $-1 $65 $165 $167 $168 forward $41 $-1 #
coedge $-1 $114 $113 $65 $107 reversed $115 $-1 #
edge $-1 $169 -42.71108490875875 $170 42.71108490875875 $106 $171 forward 7 unknown #
coedge $-1 $67 $66 $172 $173 forward $26 $-1 #
coedge $-1 $174 $175 $66 $110 reversed $159 $-1 #
edge $-1 $117 -69.10122989593188 $176 69.10122989593188 $109 $177 forward 7 unknown #
coedge $-1 $103 $178 $67 $112 reversed $63 $-1 #
edge $-1 $179 -69.10122989593188 $116 69.10122989593188 $111 $180 forward 7 unknown #
coedge $-1 $106 $68 $178 $181 forward $115 $-1 #
coedge $-1 $68 $106 $174 $182 reversed $115 $-1 #
loop $-1 $-1 $113 $158 #
vertex $-1 $69 $183 #
vertex $-1 $69 $184 #
straight-curve $-1 69.10122989593188 0 9.7184761150768608 0 1 0 I I #
face $-1 $185 $186 $16 $-1 $187 forward single #
loop $-1 $-1 $188 $70 #
plane-surface $-1 -69.10122989593188 0 0 1 0 0 0 0 -1 forward_v I I I I #
coedge $-1 $129 $189 $131 $190 forward $71 $-1 #
coedge $-1 $73 $131 $191 $192 reversed $45 $-1 #
coedge $-1 $193 $127 $73 $125 forward $194 $-1 #
edge $-1 $133 1.4540046810128207 $195 5.9943158497136348 $124 $196 forward 7 unknown #
coedge $-1 $75 $74 $188 $197 reversed $29 $-1 #
coedge $-1 $124 $198 $74 $128 forward $194 $-1 #
edge $-1 $199 -36.986793139895802 $133 -27.242080372176353 $127 $200 forward 7 unknown #
coedge $-1 $201 $122 $75 $130 forward $71 $-1 #
edge $-1 $132 27.242080372176353 $202 36.986793139895802 $129 $203 forward 7 unknown #
coedge $-1 $123 $76 $122 $190 reversed $45 $-1 #
vertex $-1 $130 $204 #
vertex $-1 $128 $205 #
straight-curve $-1 -59.356517128212431 0 5.1781649463760484 0 -1 0 I I #
face $-1 $-1 $206 $17 $-1 $207 forward single #
loop $-1 $-1 $208 $78 #
plane-surface $-1 0 42.71108490875875 0 0 -1 0 0 0 -1 forward_v I I I I #
coedge $-1 $139 $81 $83 $145 reversed $49 $-1 #
coedge $-1 $81 $138 $208 $209 reversed $49 $-1 #
coedge $-1 $210 $84 $81 $141 forward $79 $-1 #
edge $-1 $148 7.7198290877434275 $211 18.123718517845866 $140 $212 forward 7 unknown #
coedge $-1 $83 $82 $213 $214 reversed $32 $-1 #
coedge $-1 $215 $216 $82 $144 forward $206 $-1 #
edge $-1 $217 -61.742975952416508 $147 -49.193617713372603 $143 $218 forward 7 unknown #
edge $-1 $219 -85.422169817517471 $148 -72.872811578473588 $138 $220 forward 7 unknown #
coedge $-1 $84 $210 $215 $221 forward $79 $-1 #
vertex $-1 $144 $222 #
vertex $-1 $85 $223 #
straight-curve $-1 -25.687059467405092 32.307195478656311 9.7184761150768573 1 0 0 I I #
coedge $-1 $150 $150 $-1 $224 reversed $88 $-1 #
edge $-1 $225 0 $225 6.2831853071796004 $89 $226 forward 7 unknown #
vertex $-1 $92 $227 #
ellipse-curve $-1 -54.795146731982577 37.509140193707516 6.2097200342819416 0 0.55919291073839883 0.82903756765294845 2 0 0 1 I I #
coedge $-1 $154 $154 $-1 $228 reversed $95 $-1 #
edge $-1 $229 0 $229 6.2831853071796004 $96 $230 forward 7 unknown #
vertex $-1 $99 $231 #
ellipse-curve $-1 -47.953091137637792 37.509140193707516 6.2097200342819416 0 0.55919291073839883 0.82903756765294845 2 0 0 1 I I #
face $-1 $-1 $115 $15 $-1 $232 reversed single #
loop $-1 $-1 $174 $100 #
plane-surface $-1 0 42.71108490875875 0 0 -1 0 0 0 -1 forward_v I I I I #
coedge $-1 $233 $172 $175 $234 forward $101 $-1 #
coedge $-1 $178 $103 $104 $166 reversed $63 $-1 #
coedge $-1 $172 $233 $103 $164 reversed $101 $-1 #
edge $-1 $179 -9.7184761150768608 $235 9.7184761150768608 $163 $236 forward 7 unknown #
coedge $-1 $105 $104 $233 $237 forward $41 $-1 #
edge $-1 $170 -69.10122989593188 $235 69.10122989593188 $162 $238 forward 7 unknown #
coedge $-1 $175 $174 $105 $168 reversed $159 $-1 #
edge $-1 $239 -69.10122989593188 $169 69.10122989593188 $167 $240 forward 7 unknown #
vertex $-1 $107 $241 #
vertex $-1 $181 $242 #
straight-curve $-1 69.10122989593188 0 -9.7184761150768608 0 -1 0 I I #
coedge $-1 $161 $163 $108 $173 reversed $101 $-1 #
edge $-1 $176 -42.71108490875875 $179 42.71108490875875 $172 $243 forward 7 unknown #
coedge $-1 $167 $109 $114 $182 forward $159 $-1 #
coedge $-1 $109 $167 $161 $234 reversed $159 $-1 #
vertex $-1 $110 $244 #
straight-curve $-1 0 42.71108490875875 9.7184761150768608 -1 0 0 I I #
coedge $-1 $111 $162 $113 $181 reversed $63 $-1 #
vertex $-1 $173 $245 #
straight-curve $-1 0 -42.71108490875875 9.7184761150768608 1 0 0 I I #
edge $-1 $116 -9.7184761150768608 $170 9.7184761150768608 $113 $246 forward 7 unknown #
edge $-1 $117 -9.7184761150768608 $169 9.7184761150768608 $114 $247 forward 7 unknown #
point $-1 69.10122989593188 -42.71108490875875 9.7184761150768608 #
point $-1 69.10122989593188 42.71108490875875 9.7184761150768608 #
face $-1 $-1 $194 $16 $-1 $248 reversed single #
loop $-1 $-1 $191 $119 #
plane-surface $-1 0 0 9.7184761150768608 0 0 1 1 0 0 forward_v I I I I #
coedge $-1 $249 $250 $126 $197 forward $120 $-1 #
coedge $-1 $122 $201 $251 $252 reversed $71 $-1 #
edge $-1 $253 -5.9943158497136348 $132 -1.4540046810128207 $122 $254 forward 7 unknown #
coedge $-1 $251 $255 $123 $192 forward $186 $-1 #
edge $-1 $195 -42.71108490875875 $253 42.71108490875875 $191 $256 forward 7 unknown #
coedge $-1 $198 $124 $255 $257 reversed $194 $-1 #
loop $-1 $-1 $124 $185 #
vertex $-1 $125 $258 #
straight-curve $-1 -59.356517128212431 -42.71108490875875 3.7241602653632278 0 0 1 I I #
edge $-1 $202 -42.71108490875875 $199 42.71108490875875 $188 $259 forward 7 unknown #
coedge $-1 $127 $193 $249 $260 forward $194 $-1 #
vertex $-1 $197 $261 #
straight-curve $-1 -32.114436756036078 -42.71108490875875 5.1781649463760484 1 0 0 I I #
coedge $-1 $189 $129 $250 $262 reversed $71 $-1 #
vertex $-1 $197 $263 #
straight-curve $-1 -32.114436756036078 42.71108490875875 5.1781649463760484 -1 0 0 I I #
point $-1 -59.356517128212431 42.71108490875875 5.1781649463760484 #
point $-1 -59.356517128212431 -42.71108490875875 5.1781649463760484 #
loop $-1 $-1 $143 $135 #
plane-surface $-1 -59.356517128212431 0 7.4483205307264555 -1 0 0 0 0 1 forward_v I I I I #
coedge $-1 $213 $264 $139 $209 forward $136 $-1 #
edge $-1 $211 72.803257307340914 $219 79.820769468930777 $208 $265 forward 7 unknown #
coedge $-1 $146 $140 $264 $266 forward $79 $-1 #
vertex $-1 $266 $267 #
straight-curve $-1 -43.391720741407937 24.587366390912884 9.7184761150768679 0 1 0 I I #
coedge $-1 $268 $208 $142 $214 forward $136 $-1 #
edge $-1 $219 17.704661274002845 $217 33.669457660807339 $213 $269 forward 7 unknown #
coedge $-1 $216 $143 $146 $221 reversed $206 $-1 #
coedge $-1 $143 $215 $268 $270 reversed $206 $-1 #
vertex $-1 $270 $271 #
straight-curve $-1 -59.356517128212431 -8.4761616944871179 37.227198393969744 0 -0.82903756765294845 0.55919291073839883 I I #
vertex $-1 $214 $272 #
straight-curve $-1 -43.391720741407937 -28.107102980393051 50.468435735334396 0 -0.82903756765294845 0.55919291073839883 I I #
edge $-1 $273 -42.71108490875875 $147 -32.307195478656304 $146 $274 forward 7 unknown #
point $-1 -59.356517128212431 32.307195478656304 9.7184761150768608 #
point $-1 -43.391720741407937 32.307195478656311 9.7184761150768608 #
edge $-1 $275 1 $275 0 $150 $-1 forward 7 unknown #
vertex $-1 $151 $276 #
ellipse-curve $-1 -54.795146731982577 34.705649651257438 2.0533744590459921 0 0.55919291073839883 0.82903756765294845 2 0 0 1 I I #
point $-1 -52.795146731982577 37.509140193707502 6.2097200342819248 #
edge $-1 $277 1 $277 0 $154 $-1 forward 7 unknown #
vertex $-1 $155 $278 #
ellipse-curve $-1 -47.953091137637792 34.705649651257438 2.0533744590459921 0 0.55919291073839883 0.82903756765294845 2 0 0 1 I I #
point $-1 -45.953091137637792 37.509140193707502 6.2097200342819248 #
plane-surface $-1 69.10122989593188 0 0 -1 0 0 0 0 1 forward_v I I I I #
coedge $-1 $163 $161 $165 $237 reversed $101 $-1 #
edge $-1 $176 -9.7184761150768608 $239 9.7184761150768608 $175 $279 forward 7 unknown #
vertex $-1 $237 $280 #
straight-curve $-1 -69.10122989593188 -42.71108490875875 0 0 0 -1 I I #
edge $-1 $235 -42.71108490875875 $239 42.71108490875875 $233 $281 forward 7 unknown #
straight-curve $-1 0 -42.71108490875875 -9.7184761150768608 -1 0 0 I I #
vertex $-1 $168 $282 #
straight-curve $-1 0 42.71108490875875 -9.7184761150768608 1 0 0 I I #
point $-1 69.10122989593188 42.71108490875875 -9.7184761150768608 #
point $-1 69.10122989593188 -42.71108490875875 -9.7184761150768608 #
straight-curve $-1 -69.10122989593188 0 9.7184761150768608 0 -1 0 I I #
point $-1 -69.10122989593188 42.71108490875875 9.7184761150768608 #
point $-1 -69.10122989593188 -42.71108490875875 9.7184761150768608 #
straight-curve $-1 69.10122989593188 -42.71108490875875 0 0 0 -1 I I #
straight-curve $-1 69.10122989593188 42.71108490875875 0 0 0 -1 I I #
plane-surface $-1 0 -42.71108490875875 0 0 1 0 0 0 1 forward_v I I I I #
coedge $-1 $283 $188 $198 $260 reversed $120 $-1 #
coedge $-1 $188 $283 $201 $262 forward $120 $-1 #
coedge $-1 $284 $191 $189 $252 forward $186 $-1 #
edge $-1 $253 59.356517128212431 $285 69.10122989593188 $189 $286 forward 7 unknown #
vertex $-1 $252 $287 #
straight-curve $-1 -59.356517128212431 42.71108490875875 3.7241602653632278 0 0 -1 I I #
coedge $-1 $191 $284 $193 $257 forward $186 $-1 #
straight-curve $-1 -59.356517128212431 0 9.7184761150768608 0 1 0 I I #
edge $-1 $288 -69.10122989593188 $195 -59.356517128212431 $193 $289 forward 7 unknown #
point $-1 -59.356517128212431 -42.71108490875875 9.7184761150768626 #
straight-curve $-1 -69.10122989593188 0 5.1781649463760484 0 -1 0 I I #
edge $-1 $288 -9.7184761150768608 $199 -5.1781649463760484 $249 $290 forward 7 unknown #
point $-1 -69.10122989593188 -42.71108490875875 5.1781649463760484 #
edge $-1 $285 -9.7184761150768608 $202 -5.1781649463760484 $201 $291 forward 7 unknown #
point $-1 -69.10122989593188 42.71108490875875 5.1781649463760484 #
coedge $-1 $208 $268 $210 $266 reversed $136 $-1 #
straight-curve $-1 -43.391720741407937 42.71108490875875 82.521733422417768 0 0 -1 I I #
edge $-1 $211 43.391720741407937 $273 59.356517128212431 $264 $292 forward 7 unknown #
point $-1 -43.391720741407937 42.71108490875875 9.7184761150768608 #
coedge $-1 $264 $213 $216 $270 forward $136 $-1 #
straight-curve $-1 -25.687059467405092 42.711084908758757 2.700963953486994 -1 0 0 I I #
edge $-1 $217 -79.820769468930777 $273 -72.8032573073409 $268 $293 forward 7 unknown #
point $-1 -59.356517128212431 42.71108490875875 2.7009639534869905 #
point $-1 -43.391720741407937 42.71108490875875 2.7009639534869905 #
vertex $-1 $221 $294 #
straight-curve $-1 -59.356517128212431 0 9.7184761150768608 0 -1 0 I I #
vertex $-1 $224 $295 #
point $-1 -52.795146731982577 34.705649651257438 2.0533744590459921 #
vertex $-1 $228 $296 #
point $-1 -45.953091137637792 34.705649651257438 2.0533744590459921 #
straight-curve $-1 -69.10122989593188 42.71108490875875 0 0 0 -1 I I #
point $-1 -69.10122989593188 -42.71108490875875 -9.7184761150768608 #
straight-curve $-1 -69.10122989593188 0 -9.7184761150768608 0 1 0 I I #
point $-1 -69.10122989593188 42.71108490875875 -9.7184761150768608 #
coedge $-1 $250 $249 $284 $297 reversed $120 $-1 #
coedge $-1 $255 $251 $283 $297 forward $186 $-1 #
vertex $-1 $252 $298 #
straight-curve $-1 0 42.71108490875875 9.7184761150768608 -1 0 0 I I #
point $-1 -59.356517128212431 42.71108490875875 9.7184761150768626 #
vertex $-1 $297 $299 #
straight-curve $-1 0 -42.71108490875875 9.7184761150768608 1 0 0 I I #
straight-curve $-1 -69.10122989593188 -42.71108490875875 0 0 0 -1 I I #
straight-curve $-1 -69.10122989593188 42.71108490875875 0 0 0 -1 I I #
straight-curve $-1 0 42.71108490875875 9.7184761150768608 -1 0 0 I I #
straight-curve $-1 -59.356517128212431 42.71108490875875 82.521733422417768 0 0 1 I I #
point $-1 -59.356517128212431 42.71108490875875 9.7184761150768626 #
point $-1 -54.795146731982577 33.587263829780646 0.39529932374009547 #
point $-1 -47.953091137637792 33.587263829780646 0.39529932374009547 #
edge $-1 $285 -42.71108490875875 $288 42.71108490875875 $283 $300 forward 7 unknown #
point $-1 -69.10122989593188 42.71108490875875 9.7184761150768608 #
point $-1 -69.10122989593188 -42.71108490875875 9.7184761150768608 #
straight-curve $-1 -69.10122989593188 0 9.7184761150768608 0 -1 0 I I #
End-of-ACIS-data 