500 0 3 0           
7 Unknown 11 ACIS 5.0 NT 24 Fri Mar 26 19:10:38 1999 
-1 9.9999999999999995e-007 1e-010 
body $-1 $3 $-1 $4 #
body $-1 $5 $-1 $6 #
body $-1 $7 $-1 $8 #
lump $-1 $-1 $9 $0 #
transform $-1 1 0 0 0 1 0 0 0 1 79.610583819086287 51.878199165484233 20.020928603385446 1 rotate no_reflect no_shear #
lump $-1 $-1 $10 $1 #
transform $-1 1 0 0 0 1 0 0 0 1 79.610583819086287 51.878199165484233 20.020928603385446 1 rotate no_reflect no_shear #
lump $-1 $-1 $11 $2 #
transform $-1 1 0 0 0 1 0 0 0 1 79.610583819086287 51.878199165484233 20.020928603385446 1 rotate no_reflect no_shear #
shell $-1 $-1 $-1 $12 $-1 $3 #
shell $-1 $-1 $-1 $13 $-1 $5 #
shell $-1 $-1 $-1 $14 $-1 $7 #
face $-1 $15 $16 $9 $-1 $17 forward single #
face $-1 $18 $19 $10 $-1 $20 forward single #
face $-1 $21 $22 $11 $-1 $23 reversed single #
face $-1 $24 $25 $9 $-1 $26 reversed single #
loop $-1 $-1 $27 $12 #
plane-surface $-1 0 0 20.020928603385446 0 0 1 1 0 0 forward_v I I I I #
face $-1 $28 $29 $10 $-1 $30 reversed single #
loop $-1 $-1 $31 $13 #
plane-surface $-1 0 -51.878199165484233 0 0 1 0 0 0 1 forward_v I I I I #
face $-1 $32 $33 $11 $-1 $34 reversed single #
loop $-1 $-1 $35 $14 #
plane-surface $-1 -51.527846653782916 26.441800926172959 0 0 1 0 0 0 1 forward_v I I I I #
face $-1 $36 $37 $9 $-1 $38 reversed single #
loop $-1 $-1 $39 $15 #
plane-surface $-1 0 0 -20.020928603385446 0 0 1 1 0 0 forward_v I I I I #
coedge $-1 $40 $41 $42 $43 forward $16 $-1 #
face $-1 $44 $45 $10 $-1 $46 reversed single #
loop $-1 $-1 $47 $18 #
plane-surface $-1 0 0 -20.020928603385446 0 0 1 1 0 0 forward_v I I I I #
coedge $-1 $48 $49 $50 $51 forward $19 $-1 #
face $-1 $52 $53 $11 $-1 $54 reversed single #
loop $-1 $-1 $55 $21 #
plane-surface $-1 -55.957600072822927 39.160000045828596 0 1 0 0 0 0 -1 forward_v I I I I #
coedge $-1 $56 $57 $58 $59 forward $22 $-1 #
face $-1 $60 $61 $9 $-1 $62 reversed single #
loop $-1 $-1 $63 $24 #
plane-surface $-1 0 -51.878199165484233 0 0 1 0 0 0 1 forward_v I I I I #
coedge $-1 $64 $65 $66 $67 forward $25 $-1 #
coedge $-1 $68 $27 $69 $70 forward $16 $-1 #
coedge $-1 $27 $68 $71 $72 forward $16 $-1 #
coedge $-1 $73 $74 $27 $43 reversed $75 $-1 #
edge $-1 $76 -51.878199165484233 $77 51.878199165484233 $42 $78 forward 7 unknown #
face $-1 $79 $80 $10 $-1 $81 forward single #
loop $-1 $-1 $82 $28 #
plane-surface $-1 79.610583819086287 0 0 -1 0 0 0 0 1 forward_v I I I I #
coedge $-1 $83 $84 $85 $86 forward $29 $-1 #
coedge $-1 $85 $31 $82 $87 reversed $19 $-1 #
coedge $-1 $31 $85 $88 $89 reversed $19 $-1 #
coedge $-1 $90 $91 $31 $51 reversed $80 $-1 #
edge $-1 $92 -79.610583819086287 $93 79.610583819086287 $50 $94 forward 7 unknown #
face $-1 $95 $96 $11 $-1 $97 forward single #
loop $-1 $-1 $98 $32 #
plane-surface $-1 -47.098093234742905 39.160000045828596 0 -1 0 0 0 0 1 forward_v I I I I #
coedge $-1 $99 $100 $101 $102 reversed $33 $-1 #
coedge $-1 $103 $35 $104 $105 reversed $22 $-1 #
coedge $-1 $35 $103 $106 $107 reversed $22 $-1 #
coedge $-1 $100 $99 $35 $59 reversed $33 $-1 #
edge $-1 $108 -20.020928603385446 $109 20.020928603385446 $58 $110 forward 7 unknown #
face $-1 $111 $112 $9 $-1 $113 reversed single #
loop $-1 $-1 $114 $36 #
plane-surface $-1 -79.610583819086287 0 0 1 0 0 0 0 -1 forward_v I I I I #
coedge $-1 $71 $115 $73 $116 reversed $37 $-1 #
coedge $-1 $117 $39 $115 $118 forward $25 $-1 #
coedge $-1 $39 $117 $119 $120 forward $25 $-1 #
coedge $-1 $74 $73 $39 $67 reversed $75 $-1 #
edge $-1 $121 -51.878199165484233 $122 51.878199165484233 $66 $123 forward 7 unknown #
coedge $-1 $41 $40 $124 $125 forward $16 $-1 #
coedge $-1 $126 $127 $40 $70 reversed $112 $-1 #
edge $-1 $77 -79.610583819086287 $128 79.610583819086287 $69 $129 forward 7 unknown #
coedge $-1 $130 $63 $41 $72 reversed $37 $-1 #
edge $-1 $131 -79.610583819086287 $76 79.610583819086287 $71 $132 forward 7 unknown #
coedge $-1 $66 $42 $63 $116 forward $75 $-1 #
coedge $-1 $42 $66 $126 $133 reversed $75 $-1 #
loop $-1 $-1 $73 $111 #
vertex $-1 $43 $134 #
vertex $-1 $43 $135 #
straight-curve $-1 79.610583819086287 0 20.020928603385446 0 1 0 I I #
face $-1 $136 $137 $10 $-1 $138 reversed single #
loop $-1 $-1 $91 $44 #
plane-surface $-1 0 -60.301818364892149 -12.016589820766651 0 0 1 1 0 0 forward_v I I I I #
coedge $-1 $139 $140 $48 $87 forward $45 $-1 #
coedge $-1 $141 $47 $140 $142 forward $29 $-1 #
coedge $-1 $47 $141 $143 $144 forward $29 $-1 #
coedge $-1 $49 $48 $47 $86 reversed $19 $-1 #
edge $-1 $145 -79.610583819086287 $146 79.610583819086287 $47 $147 forward 7 unknown #
edge $-1 $146 -20.020928603385446 $93 -12.016589820766651 $82 $148 forward 7 unknown #
coedge $-1 $143 $149 $49 $89 forward $150 $-1 #
edge $-1 $92 12.016589820766651 $145 20.020928603385446 $88 $151 forward 7 unknown #
coedge $-1 $152 $50 $149 $153 forward $80 $-1 #
coedge $-1 $50 $152 $139 $154 forward $80 $-1 #
vertex $-1 $89 $155 #
vertex $-1 $154 $156 #
straight-curve $-1 0 -51.878199165484233 -12.016589820766651 1 0 0 I I #
face $-1 $157 $158 $11 $-1 $159 reversed single #
loop $-1 $-1 $160 $52 #
plane-surface $-1 0 0 20.020928603385446 0 0 1 1 0 0 forward_v I I I I #
coedge $-1 $161 $162 $103 $163 forward $53 $-1 #
coedge $-1 $58 $55 $164 $165 reversed $33 $-1 #
coedge $-1 $55 $58 $160 $166 reversed $33 $-1 #
coedge $-1 $167 $168 $55 $102 forward $169 $-1 #
edge $-1 $170 -20.020928603385446 $171 20.020928603385446 $101 $172 forward 7 unknown #
coedge $-1 $57 $56 $98 $163 reversed $22 $-1 #
coedge $-1 $164 $173 $56 $105 forward $158 $-1 #
edge $-1 $174 21.334169907851447 $109 30.193676745931469 $104 $175 forward 7 unknown #
coedge $-1 $176 $160 $57 $107 forward $96 $-1 #
edge $-1 $108 -30.193676745931469 $177 -21.334169907851447 $106 $178 forward 7 unknown #
vertex $-1 $107 $179 #
vertex $-1 $105 $180 #
straight-curve $-1 -55.957600072822927 26.441800926172959 0 0 0 -1 I I #
face $-1 $-1 $75 $9 $-1 $181 reversed single #
loop $-1 $-1 $126 $60 #
plane-surface $-1 0 51.878199165484233 0 0 -1 0 0 0 -1 forward_v I I I I #
coedge $-1 $182 $124 $127 $183 forward $61 $-1 #
coedge $-1 $63 $130 $64 $118 reversed $37 $-1 #
edge $-1 $76 -20.020928603385446 $122 20.020928603385446 $73 $184 forward 7 unknown #
coedge $-1 $65 $64 $182 $185 forward $25 $-1 #
edge $-1 $122 -79.610583819086287 $186 79.610583819086287 $115 $187 forward 7 unknown #
coedge $-1 $127 $126 $65 $120 reversed $112 $-1 #
edge $-1 $188 -79.610583819086287 $121 79.610583819086287 $119 $189 forward 7 unknown #
vertex $-1 $67 $190 #
vertex $-1 $116 $191 #
straight-curve $-1 79.610583819086287 0 -20.020928603385446 0 -1 0 I I #
coedge $-1 $114 $192 $68 $125 reversed $61 $-1 #
edge $-1 $128 -51.878199165484233 $131 51.878199165484233 $124 $193 forward 7 unknown #
coedge $-1 $119 $69 $74 $133 forward $112 $-1 #
coedge $-1 $69 $119 $114 $183 reversed $112 $-1 #
vertex $-1 $70 $194 #
straight-curve $-1 0 51.878199165484233 20.020928603385446 -1 0 0 I I #
coedge $-1 $115 $71 $192 $195 forward $37 $-1 #
vertex $-1 $125 $196 #
straight-curve $-1 0 -51.878199165484233 20.020928603385446 1 0 0 I I #
edge $-1 $77 -20.020928603385446 $121 20.020928603385446 $74 $197 forward 7 unknown #
point $-1 79.610583819086287 -51.878199165484233 20.020928603385446 #
point $-1 79.610583819086287 51.878199165484233 20.020928603385446 #
face $-1 $-1 $150 $10 $-1 $198 reversed single #
loop $-1 $-1 $199 $79 #
plane-surface $-1 0 -68.725437564300066 -16.018759212076048 0 1 0 0 0 1 forward_v I I I I #
coedge $-1 $200 $82 $91 $154 reversed $45 $-1 #
coedge $-1 $82 $200 $83 $142 reversed $45 $-1 #
coedge $-1 $84 $83 $201 $202 forward $29 $-1 #
edge $-1 $146 51.878199165484233 $203 68.725437564300066 $140 $204 forward 7 unknown #
coedge $-1 $205 $88 $84 $144 reversed $150 $-1 #
edge $-1 $206 -68.725437564300066 $145 -51.878199165484233 $143 $207 forward 7 unknown #
vertex $-1 $89 $208 #
vertex $-1 $142 $209 #
straight-curve $-1 0 -51.878199165484233 -20.020928603385446 1 0 0 I I #
straight-curve $-1 79.610583819086287 -51.878199165484233 0 0 0 1 I I #
coedge $-1 $88 $205 $90 $153 reversed $150 $-1 #
loop $-1 $-1 $88 $136 #
straight-curve $-1 -79.610583819086287 -51.878199165484233 0 0 0 -1 I I #
coedge $-1 $91 $90 $210 $211 forward $80 $-1 #
edge $-1 $92 -8.4236191994079164 $212 8.4236191994079164 $149 $213 forward 7 unknown #
edge $-1 $214 -8.4236191994079164 $93 8.4236191994079164 $139 $215 forward 7 unknown #
point $-1 -79.610583819086287 -51.878199165484233 -12.016589820766651 #
point $-1 79.610583819086287 -51.878199165484233 -12.016589820766651 #
face $-1 $-1 $169 $11 $-1 $216 reversed single #
loop $-1 $-1 $164 $95 #
plane-surface $-1 0 0 -20.020928603385446 0 0 1 1 0 0 forward_v I I I I #
coedge $-1 $106 $217 $100 $166 forward $96 $-1 #
coedge $-1 $218 $98 $173 $219 reversed $53 $-1 #
coedge $-1 $98 $218 $176 $220 reversed $53 $-1 #
edge $-1 $177 -20.020928603385446 $174 20.020928603385446 $98 $221 forward 7 unknown #
coedge $-1 $222 $104 $99 $165 forward $158 $-1 #
edge $-1 $109 6.8618009032586613 $170 32.298199142569935 $164 $223 forward 7 unknown #
edge $-1 $171 -32.298199142569935 $108 -6.8618009032586613 $160 $224 forward 7 unknown #
coedge $-1 $225 $101 $217 $226 reversed $169 $-1 #
coedge $-1 $101 $225 $222 $227 reversed $169 $-1 #
loop $-1 $-1 $101 $157 #
vertex $-1 $227 $228 #
vertex $-1 $102 $229 #
straight-curve $-1 -55.957600072822927 51.878199165484233 0 0 0 1 I I #
coedge $-1 $104 $222 $161 $219 forward $158 $-1 #
vertex $-1 $105 $230 #
straight-curve $-1 -25.763923326891458 26.441800926172959 -20.020928603385446 -1 0 0 I I #
coedge $-1 $217 $106 $162 $220 forward $96 $-1 #
vertex $-1 $107 $231 #
straight-curve $-1 -25.763923326891458 26.441800926172959 20.020928603385446 1 0 0 I I #
point $-1 -55.957600072822927 26.441800926172959 20.020928603385446 #
point $-1 -55.957600072822927 26.441800926172959 -20.020928603385446 #
plane-surface $-1 79.610583819086287 0 0 -1 0 0 0 0 1 forward_v I I I I #
coedge $-1 $192 $114 $117 $185 reversed $61 $-1 #
edge $-1 $128 -20.020928603385446 $188 20.020928603385446 $127 $232 forward 7 unknown #
straight-curve $-1 79.610583819086287 -51.878199165484233 0 0 0 -1 I I #
edge $-1 $186 -51.878199165484233 $188 51.878199165484233 $182 $233 forward 7 unknown #
vertex $-1 $185 $234 #
straight-curve $-1 0 -51.878199165484233 -20.020928603385446 -1 0 0 I I #
vertex $-1 $120 $235 #
straight-curve $-1 0 51.878199165484233 -20.020928603385446 1 0 0 I I #
point $-1 79.610583819086287 51.878199165484233 -20.020928603385446 #
point $-1 79.610583819086287 -51.878199165484233 -20.020928603385446 #
coedge $-1 $124 $182 $130 $195 reversed $61 $-1 #
straight-curve $-1 -79.610583819086287 0 20.020928603385446 0 -1 0 I I #
point $-1 -79.610583819086287 51.878199165484233 20.020928603385446 #
edge $-1 $131 -20.020928603385446 $186 20.020928603385446 $192 $236 forward 7 unknown #
point $-1 -79.610583819086287 -51.878199165484233 20.020928603385446 #
straight-curve $-1 79.610583819086287 51.878199165484233 0 0 0 -1 I I #
plane-surface $-1 -79.610583819086287 0 0 1 0 0 0 0 -1 forward_v I I I I #
coedge $-1 $201 $210 $205 $237 forward $137 $-1 #
coedge $-1 $140 $139 $238 $239 forward $45 $-1 #
coedge $-1 $238 $199 $141 $202 reversed $137 $-1 #
edge $-1 $203 -79.610583819086287 $206 79.610583819086287 $201 $240 forward 7 unknown #
vertex $-1 $239 $241 #
straight-curve $-1 79.610583819086287 0 -20.020928603385446 0 -1 0 I I #
coedge $-1 $149 $143 $199 $237 reversed $150 $-1 #
vertex $-1 $144 $242 #
straight-curve $-1 -79.610583819086287 0 -20.020928603385446 0 1 0 I I #
point $-1 -79.610583819086287 -51.878199165484233 -20.020928603385446 #
point $-1 79.610583819086287 -51.878199165484233 -20.020928603385446 #
coedge $-1 $199 $238 $152 $211 reversed $137 $-1 #
edge $-1 $212 -79.610583819086287 $214 79.610583819086287 $210 $243 forward 7 unknown #
vertex $-1 $153 $244 #
straight-curve $-1 -79.610583819086287 -60.301818364892149 -12.016589820766651 0 -1 0 I I #
vertex $-1 $154 $245 #
straight-curve $-1 79.610583819086287 -60.301818364892149 -12.016589820766651 0 1 0 I I #
plane-surface $-1 0 51.878199165484233 0 0 -1 0 0 0 -1 forward_v I I I I #
coedge $-1 $160 $176 $167 $226 forward $96 $-1 #
coedge $-1 $162 $161 $225 $246 reversed $53 $-1 #
edge $-1 $247 -32.298199142569935 $174 -6.8618009032586613 $173 $248 forward 7 unknown #
edge $-1 $177 6.8618009032586613 $249 32.298199142569935 $176 $250 forward 7 unknown #
straight-curve $-1 -47.098093234742905 26.441800926172959 0 0 0 -1 I I #
coedge $-1 $173 $164 $168 $227 forward $158 $-1 #
straight-curve $-1 -55.957600072822927 19.580000022914298 -20.020928603385446 0 1 0 I I #
straight-curve $-1 -55.957600072822927 19.580000022914298 20.020928603385446 0 -1 0 I I #
coedge $-1 $168 $167 $218 $246 forward $169 $-1 #
edge $-1 $249 47.098093234742905 $171 55.957600072822927 $167 $251 forward 7 unknown #
edge $-1 $170 -55.957600072822927 $247 -47.098093234742905 $168 $252 forward 7 unknown #
point $-1 -55.957600072822927 51.878199165484233 -20.020928603385446 #
point $-1 -55.957600072822927 51.878199165484233 20.020928603385446 #
point $-1 -47.098093234742905 26.441800926172959 -20.020928603385446 #
point $-1 -47.098093234742905 26.441800926172959 20.020928603385446 #
straight-curve $-1 -79.610583819086287 51.878199165484233 0 0 0 -1 I I #
straight-curve $-1 -79.610583819086287 0 -20.020928603385446 0 1 0 I I #
point $-1 -79.610583819086287 -51.878199165484233 -20.020928603385446 #
point $-1 -79.610583819086287 51.878199165484233 -20.020928603385446 #
straight-curve $-1 -79.610583819086287 -51.878199165484233 0 0 0 -1 I I #
edge $-1 $212 -4.0021693913093976 $206 4.0021693913093976 $205 $253 forward 7 unknown #
coedge $-1 $210 $201 $200 $239 reversed $137 $-1 #
edge $-1 $214 -4.0021693913093976 $203 4.0021693913093976 $200 $254 forward 7 unknown #
straight-curve $-1 0 -68.725437564300066 -20.020928603385446 -1 0 0 I I #
point $-1 79.610583819086287 -68.725437564300066 -20.020928603385446 #
point $-1 -79.610583819086287 -68.725437564300066 -20.020928603385446 #
straight-curve $-1 0 -68.725437564300066 -12.016589820766651 1 0 0 I I #
point $-1 -79.610583819086287 -68.725437564300066 -12.016589820766651 #
point $-1 79.610583819086287 -68.725437564300066 -12.016589820766651 #
edge $-1 $249 -20.020928603385446 $247 20.020928603385446 $225 $255 forward 7 unknown #
vertex $-1 $246 $256 #
straight-curve $-1 -47.098093234742905 19.580000022914298 -20.020928603385446 0 -1 0 I I #
vertex $-1 $226 $257 #
straight-curve $-1 -47.098093234742905 19.580000022914298 20.020928603385446 0 1 0 I I #
straight-curve $-1 0 51.878199165484233 20.020928603385446 -1 0 0 I I #
straight-curve $-1 0 51.878199165484233 -20.020928603385446 1 0 0 I I #
straight-curve $-1 -79.610583819086287 -68.725437564300066 -16.018759212076048 0 0 -1 I I #
straight-curve $-1 79.610583819086287 -68.725437564300066 -16.018759212076048 0 0 -1 I I #
straight-curve $-1 -47.098093234742905 51.878199165484233 0 0 0 -1 I I #
point $-1 -47.098093234742905 51.878199165484233 -20.020928603385446 #
point $-1 -47.098093234742905 51.878199165484233 20.020928603385446 #
End-of-ACIS-data 