500 0 10 0           
7 Unknown 11 ACIS 5.0 NT 24 Fri Mar 26 18:20:19 1999 
-1 9.9999999999999995e-007 1e-010 
body $-1 $10 $-1 $11 #
body $-1 $12 $-1 $13 #
body $-1 $14 $-1 $15 #
body $-1 $16 $-1 $17 #
body $-1 $18 $-1 $19 #
body $-1 $20 $-1 $21 #
body $-1 $22 $-1 $23 #
body $-1 $24 $-1 $25 #
body $-1 $26 $-1 $27 #
body $-1 $28 $-1 $29 #
lump $-1 $-1 $30 $0 #
transform $-1 1 0 0 0 1 0 0 0 1 54.365672780541402 30.136305860061704 14.727398472156988 1 rotate no_reflect no_shear #
lump $-1 $-1 $31 $1 #
transform $-1 1 0 0 0 1 0 0 0 1 54.365672780541402 30.136305860061704 14.727398472156988 1 rotate no_reflect no_shear #
lump $-1 $-1 $32 $2 #
transform $-1 1 0 0 0 1 0 0 0 1 54.365672780541402 30.136305860061704 14.727398472156988 1 rotate no_reflect no_shear #
lump $-1 $-1 $33 $3 #
transform $-1 1 0 0 0 1 0 0 0 1 54.365672780541402 30.136305860061704 14.727398472156988 1 rotate no_reflect no_shear #
lump $-1 $-1 $34 $4 #
transform $-1 1 0 0 0 1 0 0 0 1 54.365672780541402 30.136305860061704 14.727398472156988 1 rotate no_reflect no_shear #
lump $-1 $-1 $35 $5 #
transform $-1 1 0 0 0 1 0 0 0 1 54.365672780541402 30.136305860061704 14.727398472156988 1 rotate no_reflect no_shear #
lump $-1 $-1 $36 $6 #
transform $-1 1 0 0 0 1 0 0 0 1 54.365672780541402 30.136305860061704 14.727398472156988 1 rotate no_reflect no_shear #
lump $-1 $-1 $37 $7 #
transform $-1 1 0 0 0 1 0 0 0 1 54.365672780541402 30.136305860061704 14.727398472156988 1 rotate no_reflect no_shear #
lump $-1 $-1 $38 $8 #
transform $-1 1 0 0 0 1 0 0 0 1 54.365672780541402 30.136305860061704 14.727398472156988 1 rotate no_reflect no_shear #
lump $-1 $-1 $39 $9 #
transform $-1 1 0 0 0 1 0 0 0 1 54.365672780541402 30.136305860061704 14.727398472156988 1 rotate no_reflect no_shear #
shell $-1 $-1 $-1 $40 $-1 $10 #
shell $-1 $-1 $-1 $41 $-1 $12 #
shell $-1 $-1 $-1 $42 $-1 $14 #
shell $-1 $-1 $-1 $43 $-1 $16 #
shell $-1 $-1 $-1 $44 $-1 $18 #
shell $-1 $-1 $-1 $45 $-1 $20 #
shell $-1 $-1 $-1 $46 $-1 $22 #
shell $-1 $-1 $-1 $47 $-1 $24 #
shell $-1 $-1 $-1 $48 $-1 $26 #
shell $-1 $-1 $-1 $49 $-1 $28 #
face $-1 $50 $51 $30 $-1 $52 forward single #
face $-1 $53 $54 $31 $-1 $55 reversed single #
face $-1 $56 $57 $32 $-1 $58 reversed single #
face $-1 $59 $60 $33 $-1 $61 forward single #
face $-1 $62 $63 $34 $-1 $64 forward single #
face $-1 $65 $66 $35 $-1 $67 forward single #
face $-1 $68 $69 $36 $-1 $70 reversed single #
face $-1 $71 $72 $37 $-1 $73 forward single #
face $-1 $74 $75 $38 $-1 $76 forward single #
face $-1 $77 $78 $39 $-1 $79 forward single #
face $-1 $80 $81 $30 $-1 $82 reversed single #
loop $-1 $-1 $83 $40 #
plane-surface $-1 0 0 14.727398472156988 0 0 1 1 0 0 forward_v I I I I #
face $-1 $84 $85 $31 $-1 $86 reversed single #
loop $-1 $-1 $87 $41 #
plane-surface $-1 -39.426761346454427 -21.190163007149174 0 1 0 0 0 0 -1 forward_v I I I I #
face $-1 $88 $89 $32 $-1 $90 reversed single #
loop $-1 $-1 $91 $42 #
plane-surface $-1 22.395229847393153 -3.1714808135792349 159.47335905168856 0 -1 0 -0.54463904215088732 0 -0.83867056331134215 forward_v I I I I #
face $-1 $92 $93 $33 $-1 $94 forward single #
loop $-1 $95 $96 $43 #
cone-surface $-1 49.568968989376351 -10.429512286105158 11.223735732132848 -0.54463904215088732 0 -0.83867056331134215 0.41933528165567108 0 -0.27231952107544366 1 I I 0 1 0.5 forward I I I I #
face $-1 $97 $98 $34 $-1 $99 forward single #
loop $-1 $100 $101 $44 #
cone-surface $-1 49.568968989376351 -7.7077504839079367 11.223735732132848 -0.54463904215088732 0 -0.83867056331134215 0.41933528165567108 0 -0.27231952107544366 1 I I 0 1 0.5 forward I I I I #
face $-1 $102 $103 $35 $-1 $104 forward single #
loop $-1 $105 $106 $45 #
cone-surface $-1 49.568968989376351 -4.9859886817107153 11.223735732132848 -0.54463904215088732 0 -0.83867056331134215 0.41933528165567108 0 -0.27231952107544366 1 I I 0 1 0.5 forward I I I I #
face $-1 $107 $108 $36 $-1 $109 reversed single #
loop $-1 $-1 $110 $46 #
plane-surface $-1 -113.58500867870667 -12.244020154236638 100.25402315352329 0 1 0 -0.54463904215088732 0 0.83867056331134215 forward_v I I I I #
face $-1 $111 $112 $37 $-1 $113 forward single #
loop $-1 $114 $115 $47 #
cone-surface $-1 -49.568968989376366 -10.429512286105158 11.223735732132852 0.54463904215088732 0 -0.83867056331134215 0.41933528165567108 0 0.27231952107544366 1 I I 0 1 0.5 forward I I I I #
face $-1 $116 $117 $38 $-1 $118 forward single #
loop $-1 $119 $120 $48 #
cone-surface $-1 -49.568968989376366 -7.7077504839079367 11.223735732132852 0.54463904215088732 0 -0.83867056331134215 0.41933528165567108 0 0.27231952107544366 1 I I 0 1 0.5 forward I I I I #
face $-1 $121 $122 $39 $-1 $123 forward single #
loop $-1 $124 $125 $49 #
cone-surface $-1 -49.568968989376366 -4.9859886817107153 11.223735732132852 0.54463904215088732 0 -0.83867056331134215 0.41933528165567108 0 0.27231952107544366 1 I I 0 1 0.5 forward I I I I #
face $-1 $126 $127 $30 $-1 $128 reversed single #
loop $-1 $-1 $129 $50 #
plane-surface $-1 0 0 -14.727398472156988 0 0 1 1 0 0 forward_v I I I I #
coedge $-1 $130 $131 $132 $133 forward $51 $-1 #
face $-1 $134 $135 $31 $-1 $136 reversed single #
loop $-1 $-1 $137 $53 #
plane-surface $-1 -35.939909190103627 -12.244020154236642 0 0 -1 0 0 0 -1 forward_v I I I I #
coedge $-1 $138 $139 $140 $141 forward $54 $-1 #
face $-1 $142 $143 $32 $-1 $144 reversed single #
loop $-1 $-1 $145 $56 #
plane-surface $-1 -36.824106050772116 -7.7077504839079367 68.283580220375043 0.54463904215088732 0 0.83867056331134215 0.83867056331134215 0 -0.54463904215088732 forward_v I I I I #
coedge $-1 $146 $147 $148 $149 reversed $57 $-1 #
face $-1 $-1 $150 $33 $-1 $151 forward single #
loop $-1 $152 $153 $59 #
cone-surface $-1 48.996351686545495 -10.429512286105158 10.341982426254479 -0.54463904215088732 0 -0.83867056331134215 0.20966764082783554 0 -0.13615976053772183 1 I I -0.70710678118654746 0.70710678118654746 0.25 forward I I I I #
loop $-1 $-1 $154 $43 #
coedge $-1 $96 $96 $155 $156 reversed $60 $-1 #
face $-1 $-1 $157 $34 $-1 $158 forward single #
loop $-1 $159 $160 $62 #
cone-surface $-1 48.996351686545495 -7.7077504839079367 10.341982426254479 -0.54463904215088732 0 -0.83867056331134215 0.20966764082783554 0 -0.13615976053772183 1 I I -0.70710678118654746 0.70710678118654746 0.25 forward I I I I #
loop $-1 $-1 $161 $44 #
coedge $-1 $101 $101 $162 $163 reversed $63 $-1 #
face $-1 $-1 $164 $35 $-1 $165 forward single #
loop $-1 $166 $167 $65 #
cone-surface $-1 48.996351686545495 -4.9859886817107153 10.341982426254479 -0.54463904215088732 0 -0.83867056331134215 0.20966764082783554 0 -0.13615976053772183 1 I I -0.70710678118654746 0.70710678118654746 0.25 forward I I I I #
loop $-1 $-1 $168 $45 #
coedge $-1 $106 $106 $169 $170 reversed $66 $-1 #
face $-1 $171 $172 $36 $-1 $173 reversed single #
loop $-1 $-1 $174 $68 #
plane-surface $-1 -54.365672780541402 -7.7077504839079367 9.0642443222097739 -0.54463904215088732 0 0.83867056331134215 0.83867056331134215 0 0.54463904215088732 forward_v I I I I #
coedge $-1 $175 $176 $177 $178 reversed $69 $-1 #
face $-1 $-1 $179 $37 $-1 $180 forward single #
loop $-1 $181 $182 $71 #
cone-surface $-1 -48.996351686545509 -10.429512286105158 10.341982426254482 0.54463904215088732 0 -0.83867056331134215 0.20966764082783554 0 0.13615976053772183 1 I I -0.70710678118654746 0.70710678118654746 0.25 forward I I I I #
loop $-1 $-1 $183 $47 #
coedge $-1 $115 $115 $184 $185 reversed $72 $-1 #
face $-1 $-1 $186 $38 $-1 $187 forward single #
loop $-1 $188 $189 $74 #
cone-surface $-1 -48.996351686545509 -7.7077504839079367 10.341982426254482 0.54463904215088732 0 -0.83867056331134215 0.20966764082783554 0 0.13615976053772183 1 I I -0.70710678118654746 0.70710678118654746 0.25 forward I I I I #
loop $-1 $-1 $190 $48 #
coedge $-1 $120 $120 $191 $192 reversed $75 $-1 #
face $-1 $-1 $193 $39 $-1 $194 forward single #
loop $-1 $195 $196 $77 #
cone-surface $-1 -48.996351686545509 -4.9859886817107153 10.341982426254482 0.54463904215088732 0 -0.83867056331134215 0.20966764082783554 0 0.13615976053772183 1 I I -0.70710678118654746 0.70710678118654746 0.25 forward I I I I #
loop $-1 $-1 $197 $49 #
coedge $-1 $125 $125 $198 $199 reversed $78 $-1 #
face $-1 $200 $201 $30 $-1 $202 reversed single #
loop $-1 $-1 $203 $80 #
plane-surface $-1 0 -30.136305860061704 0 0 1 0 0 0 1 forward_v I I I I #
coedge $-1 $204 $205 $206 $207 forward $81 $-1 #
coedge $-1 $208 $83 $209 $210 forward $51 $-1 #
coedge $-1 $83 $208 $211 $212 forward $51 $-1 #
coedge $-1 $213 $214 $83 $133 reversed $215 $-1 #
edge $-1 $216 -30.136305860061704 $217 30.136305860061704 $132 $218 forward 7 unknown #
face $-1 $219 $220 $31 $-1 $221 forward single #
loop $-1 $-1 $222 $84 #
plane-surface $-1 -32.453057033752827 -21.190163007149174 0 -1 0 0 0 0 1 forward_v I I I I #
coedge $-1 $223 $224 $225 $226 forward $85 $-1 #
coedge $-1 $227 $87 $228 $229 reversed $54 $-1 #
coedge $-1 $87 $227 $230 $231 reversed $54 $-1 #
coedge $-1 $224 $223 $87 $141 reversed $85 $-1 #
edge $-1 $232 -14.727398472156988 $233 14.727398472156988 $140 $234 forward 7 unknown #
face $-1 $235 $236 $32 $-1 $237 reversed single #
loop $-1 $-1 $238 $88 #
plane-surface $-1 22.395229847393153 -12.244020154236638 159.47335905168856 0 1 0 0.54463904215088732 0 0.83867056331134215 forward_v I I I I #
coedge $-1 $239 $240 $241 $242 reversed $89 $-1 #
coedge $-1 $147 $91 $243 $244 reversed $57 $-1 #
coedge $-1 $91 $146 $239 $245 reversed $57 $-1 #
coedge $-1 $241 $246 $91 $149 forward $247 $-1 #
edge $-1 $248 -43.168057856844825 $249 -34.447565359100992 $148 $250 forward 7 unknown #
loop $-1 $-1 $155 $92 #
plane-surface $-1 -36.824106050772116 -7.7077504839079367 68.283580220375043 0.54463904215088732 0 0.83867056331134215 0.83867056331134215 0 -0.54463904215088732 forward_v I I I I #
loop $-1 $-1 $251 $59 #
coedge $-1 $153 $153 $154 $252 reversed $93 $-1 #
coedge $-1 $154 $154 $153 $252 forward $95 $-1 #
coedge $-1 $155 $155 $96 $156 forward $150 $-1 #
edge $-1 $253 0 $253 6.2831853071796004 $155 $254 forward 7 unknown #
loop $-1 $-1 $162 $97 #
plane-surface $-1 -36.824106050772116 -7.7077504839079367 68.283580220375043 0.54463904215088732 0 0.83867056331134215 0.83867056331134215 0 -0.54463904215088732 forward_v I I I I #
loop $-1 $-1 $255 $62 #
coedge $-1 $160 $160 $161 $256 reversed $98 $-1 #
coedge $-1 $161 $161 $160 $256 forward $100 $-1 #
coedge $-1 $162 $162 $101 $163 forward $157 $-1 #
edge $-1 $257 0 $257 6.2831853071796004 $162 $258 forward 7 unknown #
loop $-1 $-1 $169 $102 #
plane-surface $-1 -36.824106050772116 -7.7077504839079367 68.283580220375043 0.54463904215088732 0 0.83867056331134215 0.83867056331134215 0 -0.54463904215088732 forward_v I I I I #
loop $-1 $-1 $259 $65 #
coedge $-1 $167 $167 $168 $260 reversed $103 $-1 #
coedge $-1 $168 $168 $167 $260 forward $105 $-1 #
coedge $-1 $169 $169 $106 $170 forward $164 $-1 #
edge $-1 $261 0 $261 6.2831853071796004 $169 $262 forward 7 unknown #
face $-1 $263 $264 $36 $-1 $265 reversed single #
loop $-1 $-1 $266 $107 #
plane-surface $-1 -113.58500867870667 -3.1714808135792349 100.25402315352329 0 -1 0 0.54463904215088732 0 -0.83867056331134215 forward_v I I I I #
coedge $-1 $267 $268 $269 $270 reversed $108 $-1 #
coedge $-1 $176 $110 $271 $272 reversed $69 $-1 #
coedge $-1 $110 $175 $267 $273 reversed $69 $-1 #
coedge $-1 $269 $274 $110 $178 forward $275 $-1 #
edge $-1 $276 2.4268315588119336 $277 11.147324056555753 $177 $278 forward 7 unknown #
loop $-1 $-1 $184 $111 #
plane-surface $-1 -54.365672780541402 -7.7077504839079367 9.0642443222097739 -0.54463904215088732 0 0.83867056331134215 0.83867056331134215 0 0.54463904215088732 forward_v I I I I #
loop $-1 $-1 $279 $71 #
coedge $-1 $182 $182 $183 $280 reversed $112 $-1 #
coedge $-1 $183 $183 $182 $280 forward $114 $-1 #
coedge $-1 $184 $184 $115 $185 forward $179 $-1 #
edge $-1 $281 0 $281 6.2831853071796004 $184 $282 forward 7 unknown #
loop $-1 $-1 $191 $116 #
plane-surface $-1 -54.365672780541402 -7.7077504839079367 9.0642443222097739 -0.54463904215088732 0 0.83867056331134215 0.83867056331134215 0 0.54463904215088732 forward_v I I I I #
loop $-1 $-1 $283 $74 #
coedge $-1 $189 $189 $190 $284 reversed $117 $-1 #
coedge $-1 $190 $190 $189 $284 forward $119 $-1 #
coedge $-1 $191 $191 $120 $192 forward $186 $-1 #
edge $-1 $285 0 $285 6.2831853071796004 $191 $286 forward 7 unknown #
loop $-1 $-1 $198 $121 #
plane-surface $-1 -54.365672780541402 -7.7077504839079367 9.0642443222097739 -0.54463904215088732 0 0.83867056331134215 0.83867056331134215 0 0.54463904215088732 forward_v I I I I #
loop $-1 $-1 $287 $77 #
coedge $-1 $196 $196 $197 $288 reversed $122 $-1 #
coedge $-1 $197 $197 $196 $288 forward $124 $-1 #
coedge $-1 $198 $198 $125 $199 forward $193 $-1 #
edge $-1 $289 0 $289 6.2831853071796004 $198 $290 forward 7 unknown #
face $-1 $291 $292 $30 $-1 $293 reversed single #
loop $-1 $-1 $294 $126 #
plane-surface $-1 -54.365672780541402 0 0 1 0 0 0 0 -1 forward_v I I I I #
coedge $-1 $295 $211 $296 $297 forward $127 $-1 #
coedge $-1 $298 $129 $295 $299 forward $81 $-1 #
coedge $-1 $129 $298 $300 $301 forward $81 $-1 #
coedge $-1 $214 $213 $129 $207 reversed $215 $-1 #
edge $-1 $302 -30.136305860061704 $303 30.136305860061704 $206 $304 forward 7 unknown #
coedge $-1 $131 $130 $305 $306 forward $51 $-1 #
coedge $-1 $307 $308 $130 $210 reversed $292 $-1 #
edge $-1 $217 -54.365672780541402 $309 54.365672780541402 $209 $310 forward 7 unknown #
coedge $-1 $203 $311 $131 $212 reversed $127 $-1 #
edge $-1 $312 -54.365672780541402 $216 54.365672780541402 $211 $313 forward 7 unknown #
coedge $-1 $206 $132 $311 $314 forward $215 $-1 #
coedge $-1 $132 $206 $307 $315 reversed $215 $-1 #
loop $-1 $-1 $213 $291 #
vertex $-1 $133 $316 #
vertex $-1 $133 $317 #
straight-curve $-1 54.365672780541402 0 14.727398472156988 0 1 0 I I #
face $-1 $318 $319 $31 $-1 $320 reversed single #
loop $-1 $-1 $321 $134 #
plane-surface $-1 0 0 14.727398472156988 0 0 1 1 0 0 forward_v I I I I #
coedge $-1 $322 $323 $324 $325 reversed $135 $-1 #
coedge $-1 $140 $137 $326 $327 reversed $85 $-1 #
coedge $-1 $137 $140 $328 $329 reversed $85 $-1 #
coedge $-1 $323 $322 $137 $226 reversed $135 $-1 #
edge $-1 $330 -14.727398472156988 $331 14.727398472156988 $225 $332 forward 7 unknown #
coedge $-1 $139 $138 $333 $334 reversed $54 $-1 #
coedge $-1 $326 $335 $138 $229 forward $319 $-1 #
edge $-1 $336 -19.541224356487117 $233 -1.6489386506620551 $228 $337 forward 7 unknown #
coedge $-1 $338 $328 $139 $231 forward $220 $-1 #
edge $-1 $232 1.6489386506620551 $339 19.541224356487117 $230 $340 forward 7 unknown #
vertex $-1 $231 $341 #
vertex $-1 $229 $342 #
straight-curve $-1 -39.426761346454427 -12.244020154236642 0 0 0 -1 I I #
face $-1 $-1 $247 $32 $-1 $343 forward single #
loop $-1 $-1 $344 $142 #
plane-surface $-1 54.365672780541402 0 0 -1 0 0 0 0 1 forward_v I I I I #
coedge $-1 $345 $346 $347 $348 reversed $143 $-1 #
coedge $-1 $349 $145 $147 $245 forward $89 $-1 #
coedge $-1 $145 $349 $345 $350 forward $89 $-1 #
coedge $-1 $347 $148 $145 $242 forward $247 $-1 #
edge $-1 $249 -0.68239442837473341 $351 8.3901449122826701 $241 $352 forward 7 unknown #
coedge $-1 $353 $354 $146 $244 forward $236 $-1 #
edge $-1 $355 -70.672435203634507 $248 -65.009281053687289 $243 $356 forward 7 unknown #
edge $-1 $249 98.333350353867559 $355 108.7313455610828 $147 $357 forward 7 unknown #
coedge $-1 $148 $347 $353 $358 forward $247 $-1 #
loop $-1 $-1 $347 $235 #
vertex $-1 $244 $359 #
vertex $-1 $149 $360 #
straight-curve $-1 11.197614923696577 -3.1714808135792349 14.727398472156992 -1 0 0 I I #
coedge $-1 $251 $251 $-1 $361 reversed $152 $-1 #
edge $-1 $362 0 $362 6.2831853071796004 $153 $363 forward 7 unknown #
vertex $-1 $156 $364 #
ellipse-curve $-1 50.005426531669485 -10.429512286105158 11.895821397183381 0.54463904215088732 0 0.83867056331134215 0.41933528165567108 0 -0.27231952107544366 1 I I #
coedge $-1 $255 $255 $-1 $365 reversed $159 $-1 #
edge $-1 $366 0 $366 6.2831853071796004 $160 $367 forward 7 unknown #
vertex $-1 $163 $368 #
ellipse-curve $-1 50.005426531669485 -7.7077504839079367 11.895821397183381 0.54463904215088732 0 0.83867056331134215 0.41933528165567108 0 -0.27231952107544366 1 I I #
coedge $-1 $259 $259 $-1 $369 reversed $166 $-1 #
edge $-1 $370 0 $370 6.2831853071796004 $167 $371 forward 7 unknown #
vertex $-1 $170 $372 #
ellipse-curve $-1 50.005426531669485 -4.9859886817107153 11.895821397183381 0.54463904215088732 0 0.83867056331134215 0.41933528165567108 0 -0.27231952107544366 1 I I #
face $-1 $-1 $275 $36 $-1 $373 forward single #
loop $-1 $-1 $374 $171 #
plane-surface $-1 -54.365672780541402 0 0 1 0 0 0 0 -1 forward_v I I I I #
coedge $-1 $375 $376 $377 $378 reversed $172 $-1 #
coedge $-1 $379 $174 $176 $273 forward $108 $-1 #
coedge $-1 $174 $379 $375 $380 forward $108 $-1 #
coedge $-1 $377 $177 $174 $270 forward $275 $-1 #
edge $-1 $277 -8.3901449122826701 $381 0.68239442837473341 $269 $382 forward 7 unknown #
coedge $-1 $383 $384 $175 $272 forward $264 $-1 #
edge $-1 $385 -41.062767254551872 $276 -35.399613104604654 $271 $386 forward 7 unknown #
edge $-1 $277 -10.397995207215216 $385 0 $176 $387 forward 7 unknown #
coedge $-1 $177 $377 $383 $388 forward $275 $-1 #
loop $-1 $-1 $377 $263 #
vertex $-1 $272 $389 #
vertex $-1 $178 $390 #
straight-curve $-1 -56.792504339353336 -12.244020154236638 14.727398472156985 1 0 0 I I #
coedge $-1 $279 $279 $-1 $391 reversed $181 $-1 #
edge $-1 $392 0 $392 6.2831853071796004 $182 $393 forward 7 unknown #
vertex $-1 $185 $394 #
ellipse-curve $-1 -50.005426531669492 -10.429512286105158 11.895821397183379 -0.54463904215088732 0 0.83867056331134215 0.41933528165567108 0 0.27231952107544366 1 I I #
coedge $-1 $283 $283 $-1 $395 reversed $188 $-1 #
edge $-1 $396 0 $396 6.2831853071796004 $189 $397 forward 7 unknown #
vertex $-1 $192 $398 #
ellipse-curve $-1 -50.005426531669492 -7.7077504839079367 11.895821397183379 -0.54463904215088732 0 0.83867056331134215 0.41933528165567108 0 0.27231952107544366 1 I I #
coedge $-1 $287 $287 $-1 $399 reversed $195 $-1 #
edge $-1 $400 0 $400 6.2831853071796004 $196 $401 forward 7 unknown #
vertex $-1 $199 $402 #
ellipse-curve $-1 -50.005426531669492 -4.9859886817107153 11.895821397183379 -0.54463904215088732 0 0.83867056331134215 0.41933528165567108 0 0.27231952107544366 1 I I #
face $-1 $-1 $215 $30 $-1 $403 reversed single #
loop $-1 $-1 $307 $200 #
plane-surface $-1 0 30.136305860061704 0 0 -1 0 0 0 -1 forward_v I I I I #
coedge $-1 $404 $305 $308 $405 forward $201 $-1 #
coedge $-1 $311 $203 $204 $299 reversed $127 $-1 #
coedge $-1 $305 $404 $203 $297 reversed $201 $-1 #
edge $-1 $312 -14.727398472156988 $406 14.727398472156988 $296 $407 forward 7 unknown #
coedge $-1 $205 $204 $404 $408 forward $81 $-1 #
edge $-1 $303 -54.365672780541402 $406 54.365672780541402 $295 $409 forward 7 unknown #
coedge $-1 $308 $307 $205 $301 reversed $292 $-1 #
edge $-1 $410 -54.365672780541402 $302 54.365672780541402 $300 $411 forward 7 unknown #
vertex $-1 $207 $412 #
vertex $-1 $314 $413 #
straight-curve $-1 54.365672780541402 0 -14.727398472156988 0 -1 0 I I #
coedge $-1 $294 $296 $208 $306 reversed $201 $-1 #
edge $-1 $309 -30.136305860061704 $312 30.136305860061704 $305 $414 forward 7 unknown #
coedge $-1 $300 $209 $214 $315 forward $292 $-1 #
coedge $-1 $209 $300 $294 $405 reversed $292 $-1 #
vertex $-1 $210 $415 #
straight-curve $-1 0 30.136305860061704 14.727398472156988 -1 0 0 I I #
coedge $-1 $211 $295 $213 $314 reversed $127 $-1 #
vertex $-1 $306 $416 #
straight-curve $-1 0 -30.136305860061704 14.727398472156988 1 0 0 I I #
edge $-1 $216 -14.727398472156988 $303 14.727398472156988 $213 $417 forward 7 unknown #
edge $-1 $217 -14.727398472156988 $302 14.727398472156988 $214 $418 forward 7 unknown #
point $-1 54.365672780541402 -30.136305860061704 14.727398472156988 #
point $-1 54.365672780541402 30.136305860061704 14.727398472156988 #
face $-1 $-1 $419 $31 $-1 $420 reversed single #
loop $-1 $-1 $421 $219 #
plane-surface $-1 0 0 -14.727398472156988 0 0 1 1 0 0 forward_v I I I I #
coedge $-1 $328 $338 $323 $422 forward $220 $-1 #
coedge $-1 $225 $222 $421 $423 reversed $135 $-1 #
coedge $-1 $222 $225 $321 $422 reversed $135 $-1 #
coedge $-1 $424 $425 $222 $325 forward $419 $-1 #
edge $-1 $426 -14.727398472156988 $427 14.727398472156988 $324 $428 forward 7 unknown #
coedge $-1 $421 $228 $223 $327 forward $319 $-1 #
edge $-1 $233 -21.456806751402613 $331 -14.483102438701014 $326 $429 forward 7 unknown #
coedge $-1 $230 $321 $224 $329 forward $220 $-1 #
edge $-1 $330 14.483102438701014 $232 21.456806751402613 $328 $430 forward 7 unknown #
vertex $-1 $329 $431 #
vertex $-1 $327 $432 #
straight-curve $-1 -32.453057033752827 -12.244020154236642 0 0 0 -1 I I #
coedge $-1 $425 $424 $227 $334 forward $419 $-1 #
edge $-1 $339 -14.727398472156988 $336 14.727398472156988 $333 $433 forward 7 unknown #
coedge $-1 $228 $421 $425 $434 forward $319 $-1 #
vertex $-1 $229 $435 #
straight-curve $-1 -39.426761346454427 -10.595081503574587 -14.727398472156988 0 1 0 I I #
coedge $-1 $321 $230 $424 $436 forward $220 $-1 #
vertex $-1 $436 $437 #
straight-curve $-1 -39.426761346454427 -10.595081503574587 14.727398472156988 0 -1 0 I I #
point $-1 -39.426761346454427 -12.244020154236642 14.727398472156988 #
point $-1 -39.426761346454427 -12.244020154236642 -14.727398472156988 #
plane-surface $-1 0 0 14.727398472156988 0 0 1 1 0 0 forward_v I I I I #
coedge $-1 $354 $353 $346 $438 forward $236 $-1 #
coedge $-1 $346 $238 $240 $350 reversed $143 $-1 #
coedge $-1 $238 $345 $344 $438 reversed $143 $-1 #
coedge $-1 $246 $241 $238 $348 forward $247 $-1 #
edge $-1 $351 34.447565359100992 $439 43.168057856844825 $347 $440 forward 7 unknown #
coedge $-1 $240 $239 $354 $441 reversed $89 $-1 #
edge $-1 $442 -108.7313455610828 $351 -98.333350353867559 $345 $443 forward 7 unknown #
vertex $-1 $242 $444 #
straight-curve $-1 45.645180282797583 -3.8538752419539684 14.727398472156985 0 -1 0 I I #
coedge $-1 $344 $243 $246 $358 reversed $236 $-1 #
coedge $-1 $243 $344 $349 $441 forward $236 $-1 #
vertex $-1 $244 $445 #
straight-curve $-1 54.365672780541402 -3.1714808135792349 79.736679525844281 0 0 1 I I #
straight-curve $-1 -36.824106050772116 -3.1714808135792349 68.283580220375043 0.83867056331134215 0 -0.54463904215088732 I I #
edge $-1 $439 -12.244020154236638 $248 -3.1714808135792349 $353 $446 forward 7 unknown #
point $-1 54.365672780541402 -3.1714808135792349 14.727398472156988 #
point $-1 45.645180282797568 -3.1714808135792349 14.727398472156992 #
edge $-1 $447 1 $447 0 $251 $-1 forward 7 unknown #
vertex $-1 $252 $448 #
ellipse-curve $-1 49.132511447083218 -10.429512286105158 10.551650067082313 0.54463904215088732 0 0.83867056331134215 0.41933528165567108 0 -0.27231952107544366 1 I I #
point $-1 50.424761813325155 -10.429512286105158 11.623501876107939 #
edge $-1 $449 1 $449 0 $255 $-1 forward 7 unknown #
vertex $-1 $256 $450 #
ellipse-curve $-1 49.132511447083218 -7.7077504839079367 10.551650067082313 0.54463904215088732 0 0.83867056331134215 0.41933528165567108 0 -0.27231952107544366 1 I I #
point $-1 50.424761813325155 -7.7077504839079367 11.623501876107939 #
edge $-1 $451 1 $451 0 $259 $-1 forward 7 unknown #
vertex $-1 $260 $452 #
ellipse-curve $-1 49.132511447083218 -4.9859886817107153 10.551650067082313 0.54463904215088732 0 0.83867056331134215 0.41933528165567108 0 -0.27231952107544366 1 I I #
point $-1 50.424761813325155 -4.9859886817107153 11.623501876107939 #
plane-surface $-1 0 0 14.727398472156988 0 0 1 1 0 0 forward_v I I I I #
coedge $-1 $384 $383 $376 $453 forward $264 $-1 #
coedge $-1 $376 $266 $268 $380 reversed $172 $-1 #
coedge $-1 $266 $375 $374 $453 reversed $172 $-1 #
coedge $-1 $274 $269 $266 $378 forward $275 $-1 #
edge $-1 $381 -11.147324056555753 $454 -2.4268315588119336 $377 $455 forward 7 unknown #
coedge $-1 $268 $267 $384 $456 reversed $108 $-1 #
edge $-1 $457 0 $381 10.397995207215216 $375 $458 forward 7 unknown #
vertex $-1 $270 $459 #
straight-curve $-1 -45.645180282797583 -3.8538752419539684 14.727398472156988 0 1 0 I I #
coedge $-1 $374 $271 $274 $388 reversed $264 $-1 #
coedge $-1 $271 $374 $379 $456 forward $264 $-1 #
vertex $-1 $272 $460 #
straight-curve $-1 -54.365672780541402 -12.244020154236638 50.127011576761646 0 0 1 I I #
straight-curve $-1 -54.365672780541402 -12.244020154236638 9.0642443222097739 -0.83867056331134215 0 -0.54463904215088732 I I #
edge $-1 $454 3.1714808135792349 $276 12.244020154236638 $383 $461 forward 7 unknown #
point $-1 -54.365672780541402 -12.244020154236638 14.727398472156988 #
point $-1 -45.645180282797583 -12.244020154236638 14.727398472156988 #
edge $-1 $462 1 $462 0 $279 $-1 forward 7 unknown #
vertex $-1 $280 $463 #
ellipse-curve $-1 -49.132511447083232 -10.429512286105158 10.551650067082317 -0.54463904215088732 0 0.83867056331134215 0.41933528165567108 0 0.27231952107544366 1 I I #
point $-1 -49.586091250013823 -10.429512286105158 12.16814091825883 #
edge $-1 $464 1 $464 0 $283 $-1 forward 7 unknown #
vertex $-1 $284 $465 #
ellipse-curve $-1 -49.132511447083232 -7.7077504839079367 10.551650067082317 -0.54463904215088732 0 0.83867056331134215 0.41933528165567108 0 0.27231952107544366 1 I I #
point $-1 -49.586091250013823 -7.7077504839079367 12.16814091825883 #
edge $-1 $466 1 $466 0 $287 $-1 forward 7 unknown #
vertex $-1 $288 $467 #
ellipse-curve $-1 -49.132511447083232 -4.9859886817107153 10.551650067082317 -0.54463904215088732 0 0.83867056331134215 0.41933528165567108 0 0.27231952107544366 1 I I #
point $-1 -49.586091250013823 -4.9859886817107153 12.16814091825883 #
plane-surface $-1 54.365672780541402 0 0 -1 0 0 0 0 1 forward_v I I I I #
coedge $-1 $296 $294 $298 $408 reversed $201 $-1 #
edge $-1 $309 -14.727398472156988 $410 14.727398472156988 $308 $468 forward 7 unknown #
vertex $-1 $408 $469 #
straight-curve $-1 -54.365672780541402 -30.136305860061704 0 0 0 -1 I I #
edge $-1 $406 -30.136305860061704 $410 30.136305860061704 $404 $470 forward 7 unknown #
straight-curve $-1 0 -30.136305860061704 -14.727398472156988 -1 0 0 I I #
vertex $-1 $301 $471 #
straight-curve $-1 0 30.136305860061704 -14.727398472156988 1 0 0 I I #
point $-1 54.365672780541402 30.136305860061704 -14.727398472156988 #
point $-1 54.365672780541402 -30.136305860061704 -14.727398472156988 #
straight-curve $-1 -54.365672780541402 0 14.727398472156988 0 -1 0 I I #
point $-1 -54.365672780541402 30.136305860061704 14.727398472156988 #
point $-1 -54.365672780541402 -30.136305860061704 14.727398472156988 #
straight-curve $-1 54.365672780541402 -30.136305860061704 0 0 0 -1 I I #
straight-curve $-1 54.365672780541402 30.136305860061704 0 0 0 -1 I I #
loop $-1 $-1 $324 $318 #
plane-surface $-1 0 -30.136305860061704 0 0 1 0 0 0 1 forward_v I I I I #
coedge $-1 $335 $326 $322 $423 forward $319 $-1 #
edge $-1 $427 -19.541224356487117 $330 -1.6489386506620551 $321 $472 forward 7 unknown #
edge $-1 $331 1.6489386506620551 $426 19.541224356487117 $421 $473 forward 7 unknown #
coedge $-1 $333 $324 $338 $436 reversed $419 $-1 #
coedge $-1 $324 $333 $335 $434 reversed $419 $-1 #
vertex $-1 $434 $474 #
vertex $-1 $325 $475 #
straight-curve $-1 -32.453057033752827 -30.136305860061704 0 0 0 1 I I #
straight-curve $-1 -17.969954595051814 -12.244020154236642 -14.727398472156988 1 0 0 I I #
straight-curve $-1 -17.969954595051814 -12.244020154236642 14.727398472156988 -1 0 0 I I #
point $-1 -32.453057033752827 -12.244020154236642 14.727398472156988 #
point $-1 -32.453057033752827 -12.244020154236642 -14.727398472156988 #
straight-curve $-1 -39.426761346454427 -30.136305860061704 0 0 0 -1 I I #
edge $-1 $426 32.453057033752827 $336 39.426761346454427 $425 $476 forward 7 unknown #
point $-1 -39.426761346454427 -30.136305860061704 -14.727398472156988 #
edge $-1 $339 -39.426761346454427 $427 -32.453057033752827 $424 $477 forward 7 unknown #
point $-1 -39.426761346454427 -30.136305860061704 14.727398472156988 #
edge $-1 $439 65.009281053687289 $442 70.672435203634507 $344 $478 forward 7 unknown #
vertex $-1 $358 $479 #
straight-curve $-1 11.197614923696577 -12.244020154236638 14.727398472156992 1 0 0 I I #
edge $-1 $442 -8.3901449122826701 $355 0.68239442837473341 $354 $480 forward 7 unknown #
vertex $-1 $441 $481 #
straight-curve $-1 -36.824106050772116 -12.244020154236638 68.283580220375043 -0.83867056331134215 0 0.54463904215088732 I I #
point $-1 45.645180282797568 -12.244020154236638 14.727398472156992 #
point $-1 54.365672780541402 -3.1714808135792349 9.0642443222097739 #
straight-curve $-1 54.365672780541402 0 14.727398472156988 0 1 0 I I #
vertex $-1 $361 $482 #
point $-1 49.551846728738887 -10.429512286105158 10.27933054600687 #
vertex $-1 $365 $483 #
point $-1 49.551846728738887 -7.7077504839079367 10.27933054600687 #
vertex $-1 $369 $484 #
point $-1 49.551846728738887 -4.9859886817107153 10.27933054600687 #
edge $-1 $454 35.399613104604654 $457 41.062767254551872 $374 $485 forward 7 unknown #
vertex $-1 $388 $486 #
straight-curve $-1 -56.792504339353336 -3.1714808135792349 14.727398472156985 -1 0 0 I I #
edge $-1 $457 -0.68239442837473341 $385 8.3901449122826701 $384 $487 forward 7 unknown #
vertex $-1 $456 $488 #
straight-curve $-1 -54.365672780541402 -3.1714808135792349 9.0642443222097739 0.83867056331134215 0 0.54463904215088732 I I #
point $-1 -45.645180282797583 -3.1714808135792349 14.727398472156988 #
point $-1 -54.365672780541402 -12.244020154236638 9.0642443222097739 #
straight-curve $-1 -54.365672780541402 0 14.727398472156988 0 -1 0 I I #
vertex $-1 $391 $489 #
point $-1 -48.713176165427562 -10.429512286105158 10.823969588157761 #
vertex $-1 $395 $490 #
point $-1 -48.713176165427562 -7.7077504839079367 10.823969588157761 #
vertex $-1 $399 $491 #
point $-1 -48.713176165427562 -4.9859886817107153 10.823969588157761 #
straight-curve $-1 -54.365672780541402 30.136305860061704 0 0 0 -1 I I #
point $-1 -54.365672780541402 -30.136305860061704 -14.727398472156988 #
straight-curve $-1 -54.365672780541402 0 -14.727398472156988 0 1 0 I I #
point $-1 -54.365672780541402 30.136305860061704 -14.727398472156988 #
straight-curve $-1 -32.453057033752827 -10.595081503574587 14.727398472156988 0 1 0 I I #
straight-curve $-1 -32.453057033752827 -10.595081503574587 -14.727398472156988 0 -1 0 I I #
point $-1 -32.453057033752827 -30.136305860061704 -14.727398472156988 #
point $-1 -32.453057033752827 -30.136305860061704 14.727398472156988 #
straight-curve $-1 0 -30.136305860061704 -14.727398472156988 -1 0 0 I I #
straight-curve $-1 0 -30.136305860061704 14.727398472156988 1 0 0 I I #
straight-curve $-1 54.365672780541402 -12.244020154236638 79.736679525844281 0 0 -1 I I #
point $-1 54.365672780541402 -12.244020154236638 14.727398472156988 #
straight-curve $-1 54.365672780541402 -3.8538752419539684 9.0642443222097668 0 1 0 I I #
point $-1 54.365672780541402 -12.244020154236638 9.0642443222097739 #
point $-1 48.860191926007772 -10.429512286105158 10.132314785426644 #
point $-1 48.860191926007772 -7.7077504839079367 10.132314785426644 #
point $-1 48.860191926007772 -4.9859886817107153 10.132314785426644 #
straight-curve $-1 -54.365672780541402 -3.1714808135792349 50.127011576761646 0 0 -1 I I #
point $-1 -54.365672780541402 -3.1714808135792349 14.727398472156988 #
straight-curve $-1 -54.365672780541402 -3.8538752419539684 9.0642443222097722 0 -1 0 I I #
point $-1 -54.365672780541402 -3.1714808135792349 9.0642443222097739 #
point $-1 -48.860191926007786 -10.429512286105158 10.132314785426647 #
point $-1 -48.860191926007786 -7.7077504839079367 10.132314785426647 #
point $-1 -48.860191926007786 -4.9859886817107153 10.132314785426647 #
End-of-ACIS-data 