500 0 5 0           
7 Unknown 11 ACIS 5.0 NT 24 Fri Mar 26 00:06:09 1999 
-1 9.9999999999999995e-007 1e-010 
body $-1 $5 $-1 $6 #
body $-1 $7 $-1 $8 #
body $-1 $9 $-1 $10 #
body $-1 $11 $-1 $12 #
body $-1 $13 $-1 $14 #
lump $-1 $-1 $15 $0 #
transform $-1 1 0 0 0 1 0 0 0 1 55.101779229102448 36.700606731942081 11.468393580422417 1 rotate no_reflect no_shear #
lump $-1 $-1 $16 $1 #
transform $-1 1 0 0 0 1 0 0 0 1 55.101779229102448 36.700606731942081 11.468393580422417 1 rotate no_reflect no_shear #
lump $-1 $-1 $17 $2 #
transform $-1 1 0 0 0 1 0 0 0 1 55.101779229102448 36.700606731942081 11.468393580422417 1 rotate no_reflect no_shear #
lump $-1 $-1 $18 $3 #
transform $-1 1 0 0 0 1 0 0 0 1 55.101779229102448 36.700606731942081 11.468393580422417 1 rotate no_reflect no_shear #
lump $-1 $-1 $19 $4 #
transform $-1 1 0 0 0 1 0 0 0 1 55.101779229102448 36.700606731942081 11.468393580422417 1 rotate no_reflect no_shear #
shell $-1 $-1 $-1 $20 $-1 $5 #
shell $-1 $-1 $-1 $21 $-1 $7 #
shell $-1 $-1 $-1 $22 $-1 $9 #
shell $-1 $-1 $-1 $23 $-1 $11 #
shell $-1 $-1 $-1 $24 $-1 $13 #
face $-1 $25 $26 $15 $-1 $27 forward single #
face $-1 $28 $29 $16 $-1 $30 forward single #
face $-1 $31 $32 $17 $-1 $33 reversed single #
face $-1 $34 $35 $18 $-1 $36 forward single #
face $-1 $37 $38 $19 $-1 $39 forward single #
face $-1 $40 $41 $15 $-1 $42 reversed single #
loop $-1 $-1 $43 $20 #
plane-surface $-1 0 0 11.468393580422417 0 0 1 1 0 0 forward_v I I I I #
face $-1 $44 $45 $16 $-1 $46 reversed single #
loop $-1 $-1 $47 $21 #
plane-surface $-1 -55.101779229102448 0 0 1 0 0 0 0 -1 forward_v I I I I #
face $-1 $48 $49 $17 $-1 $50 reversed single #
loop $-1 $-1 $51 $22 #
plane-surface $-1 -25.085953496380345 89.147923410606836 124.04381419442477 1 0 0 0 -0.83867057594974714 -0.54463902268945019 forward_v I I I I #
face $-1 $52 $53 $18 $-1 $54 forward single #
loop $-1 $55 $56 $23 #
cone-surface $-1 -17.787176335649932 31.660463454988871 5.5915757632357659 0 -0.83867057594974714 -0.54463902268945019 2.5 0 0 1 I I 0 1 2.5 forward I I I I #
face $-1 $57 $58 $19 $-1 $59 forward single #
loop $-1 $60 $61 $24 #
cone-surface $-1 -6.8390105945543027 31.660463454988871 5.5915757632357659 0 -0.83867057594974714 -0.54463902268945019 2.5 0 0 1 I I 0 1 2.5 forward I I I I #
face $-1 $62 $63 $15 $-1 $64 reversed single #
loop $-1 $-1 $65 $25 #
plane-surface $-1 0 0 -11.468393580422417 0 0 1 1 0 0 forward_v I I I I #
coedge $-1 $66 $67 $68 $69 forward $26 $-1 #
face $-1 $70 $71 $16 $-1 $72 forward single #
loop $-1 $-1 $73 $28 #
plane-surface $-1 0 36.700606731942081 0 0 -1 0 0 0 -1 forward_v I I I I #
coedge $-1 $74 $75 $76 $77 forward $29 $-1 #
face $-1 $78 $79 $17 $-1 $80 reversed single #
loop $-1 $-1 $81 $31 #
plane-surface $-1 -12.313093465102114 -3.2765584332474873 64.022655818848364 0 0.83867057594974714 0.54463902268945019 1 0 0 forward_v I I I I #
coedge $-1 $82 $83 $84 $85 reversed $32 $-1 #
face $-1 $-1 $86 $18 $-1 $87 forward single #
loop $-1 $88 $89 $34 #
cone-surface $-1 -17.787176335649932 28.495996613478603 3.536547034057369 0 -0.83867057594974714 -0.54463902268945019 1.25 0 0 1 I I -0.70710678118654746 0.70710678118654768 1.25 forward I I I I #
loop $-1 $-1 $90 $23 #
coedge $-1 $56 $56 $91 $92 reversed $35 $-1 #
face $-1 $-1 $93 $19 $-1 $94 forward single #
loop $-1 $95 $96 $37 #
cone-surface $-1 -6.8390105945543027 28.495996613478603 3.536547034057369 0 -0.83867057594974714 -0.54463902268945019 1.25 0 0 1 I I -0.70710678118654746 0.70710678118654768 1.25 forward I I I I #
loop $-1 $-1 $97 $24 #
coedge $-1 $61 $61 $98 $99 reversed $38 $-1 #
face $-1 $100 $101 $15 $-1 $102 reversed single #
loop $-1 $-1 $103 $40 #
plane-surface $-1 0 -36.700606731942081 0 0 1 0 0 0 1 forward_v I I I I #
coedge $-1 $104 $105 $106 $107 forward $41 $-1 #
coedge $-1 $108 $43 $109 $110 forward $26 $-1 #
coedge $-1 $43 $108 $111 $112 forward $26 $-1 #
coedge $-1 $113 $114 $43 $69 reversed $115 $-1 #
edge $-1 $116 -36.700606731942081 $117 36.700606731942081 $68 $118 forward 7 unknown #
face $-1 $119 $120 $16 $-1 $121 reversed single #
loop $-1 $-1 $76 $44 #
plane-surface $-1 -59.802144105323258 0 8.8954591413821191 0 0 1 1 0 0 forward_v I I I I #
coedge $-1 $122 $123 $75 $124 forward $45 $-1 #
coedge $-1 $125 $47 $126 $127 reversed $29 $-1 #
coedge $-1 $47 $125 $73 $124 reversed $29 $-1 #
coedge $-1 $128 $129 $47 $77 reversed $71 $-1 #
edge $-1 $130 -36.700606731942081 $131 36.700606731942081 $76 $132 forward 7 unknown #
face $-1 $133 $134 $17 $-1 $135 forward single #
loop $-1 $-1 $136 $48 #
plane-surface $-1 0.45976656617611766 89.147923410606836 124.04381419442477 -1 0 0 0 0.83867057594974714 0.54463902268945019 forward_v I I I I #
coedge $-1 $137 $138 $139 $140 reversed $49 $-1 #
coedge $-1 $83 $51 $141 $142 reversed $32 $-1 #
coedge $-1 $51 $82 $137 $143 reversed $32 $-1 #
coedge $-1 $139 $144 $51 $85 forward $134 $-1 #
edge $-1 $145 7.8733549733613373 $146 13.721384284121605 $84 $147 forward 7 unknown #
loop $-1 $-1 $91 $52 #
plane-surface $-1 -12.313093465102114 -3.2765584332474873 64.022655818848364 0 0.83867057594974714 0.54463902268945019 1 0 0 forward_v I I I I #
loop $-1 $-1 $148 $34 #
coedge $-1 $89 $89 $90 $149 reversed $53 $-1 #
coedge $-1 $90 $90 $89 $149 forward $55 $-1 #
coedge $-1 $91 $91 $56 $92 forward $86 $-1 #
edge $-1 $150 8.9386692815524841e-016 $150 6.2831853071796013 $91 $151 forward 7 unknown #
loop $-1 $-1 $98 $57 #
plane-surface $-1 -12.313093465102114 -3.2765584332474873 64.022655818848364 0 0.83867057594974714 0.54463902268945019 1 0 0 forward_v I I I I #
loop $-1 $-1 $152 $37 #
coedge $-1 $96 $96 $97 $153 reversed $58 $-1 #
coedge $-1 $97 $97 $96 $153 forward $60 $-1 #
coedge $-1 $98 $98 $61 $99 forward $93 $-1 #
edge $-1 $154 8.9386692815524841e-016 $154 6.2831853071796013 $98 $155 forward 7 unknown #
face $-1 $156 $157 $15 $-1 $158 reversed single #
loop $-1 $-1 $159 $62 #
plane-surface $-1 -55.101779229102448 0 0 1 0 0 0 0 -1 forward_v I I I I #
coedge $-1 $160 $111 $161 $162 forward $63 $-1 #
coedge $-1 $163 $65 $160 $164 forward $41 $-1 #
coedge $-1 $65 $163 $165 $166 forward $41 $-1 #
coedge $-1 $114 $113 $65 $107 reversed $115 $-1 #
edge $-1 $167 -36.700606731942081 $168 36.700606731942081 $106 $169 forward 7 unknown #
coedge $-1 $67 $66 $170 $171 forward $26 $-1 #
coedge $-1 $172 $173 $66 $110 reversed $157 $-1 #
edge $-1 $117 -55.101779229102448 $174 55.101779229102448 $109 $175 forward 7 unknown #
coedge $-1 $103 $176 $67 $112 reversed $63 $-1 #
edge $-1 $177 -55.101779229102448 $116 55.101779229102448 $111 $178 forward 7 unknown #
coedge $-1 $106 $68 $176 $179 forward $115 $-1 #
coedge $-1 $68 $106 $172 $180 reversed $115 $-1 #
loop $-1 $-1 $113 $156 #
vertex $-1 $69 $181 #
vertex $-1 $69 $182 #
straight-curve $-1 55.101779229102448 0 11.468393580422417 0 1 0 I I #
face $-1 $183 $184 $16 $-1 $185 reversed single #
loop $-1 $-1 $186 $70 #
plane-surface $-1 -59.802144105323258 0 3.7901742571940771 0 0 1 1 0 0 forward_v I I I I #
coedge $-1 $187 $73 $188 $189 reversed $45 $-1 #
coedge $-1 $73 $187 $128 $190 reversed $45 $-1 #
edge $-1 $130 -8.8954591413821191 $191 -3.7901742571940771 $73 $192 forward 7 unknown #
coedge $-1 $75 $74 $186 $193 forward $29 $-1 #
coedge $-1 $194 $195 $74 $127 forward $196 $-1 #
edge $-1 $197 3.7901742571940771 $131 8.8954591413821191 $126 $198 forward 7 unknown #
coedge $-1 $199 $76 $123 $190 forward $71 $-1 #
coedge $-1 $76 $199 $194 $200 forward $71 $-1 #
vertex $-1 $124 $201 #
vertex $-1 $200 $202 #
straight-curve $-1 -55.101779229102448 0 8.8954591413821191 0 -1 0 I I #
face $-1 $-1 $203 $17 $-1 $204 reversed single #
loop $-1 $-1 $84 $78 #
plane-surface $-1 0 0 11.468393580422417 0 0 1 1 0 0 forward_v I I I I #
coedge $-1 $205 $206 $207 $208 reversed $79 $-1 #
coedge $-1 $209 $81 $83 $143 forward $49 $-1 #
coedge $-1 $81 $209 $205 $210 forward $49 $-1 #
coedge $-1 $207 $84 $81 $140 forward $134 $-1 #
edge $-1 $146 -18.929406763829288 $211 6.6163132987271744 $139 $212 forward 7 unknown #
coedge $-1 $213 $214 $82 $142 forward $203 $-1 #
edge $-1 $215 -59.558689249530062 $145 -50.55351351678997 $141 $216 forward 7 unknown #
edge $-1 $146 62.663772577106585 $215 73.401213463884133 $83 $217 forward 7 unknown #
coedge $-1 $84 $207 $213 $218 forward $134 $-1 #
vertex $-1 $142 $219 #
vertex $-1 $85 $220 #
straight-curve $-1 -25.085953496380345 44.573961705303418 11.468393580422415 0 -1 0 I I #
coedge $-1 $148 $148 $-1 $221 reversed $88 $-1 #
edge $-1 $222 0 $222 6.2831853071796004 $89 $223 forward 7 unknown #
vertex $-1 $92 $224 #
ellipse-curve $-1 -17.787176335649932 33.776592076561954 6.9658057140523519 0 0.83867057594974714 0.54463902268945019 2.5 0 0 1 I I #
coedge $-1 $152 $152 $-1 $225 reversed $95 $-1 #
edge $-1 $226 0 $226 6.2831853071796004 $96 $227 forward 7 unknown #
vertex $-1 $99 $228 #
ellipse-curve $-1 -6.8390105945543027 33.776592076561954 6.9658057140523519 0 0.83867057594974714 0.54463902268945019 2.5 0 0 1 I I #
face $-1 $-1 $115 $15 $-1 $229 reversed single #
loop $-1 $-1 $172 $100 #
plane-surface $-1 0 36.700606731942081 0 0 -1 0 0 0 -1 forward_v I I I I #
coedge $-1 $230 $170 $173 $231 forward $101 $-1 #
coedge $-1 $176 $103 $104 $164 reversed $63 $-1 #
coedge $-1 $170 $230 $103 $162 reversed $101 $-1 #
edge $-1 $177 -11.468393580422417 $232 11.468393580422417 $161 $233 forward 7 unknown #
coedge $-1 $105 $104 $230 $234 forward $41 $-1 #
edge $-1 $168 -55.101779229102448 $232 55.101779229102448 $160 $235 forward 7 unknown #
coedge $-1 $173 $172 $105 $166 reversed $157 $-1 #
edge $-1 $236 -55.101779229102448 $167 55.101779229102448 $165 $237 forward 7 unknown #
vertex $-1 $107 $238 #
vertex $-1 $179 $239 #
straight-curve $-1 55.101779229102448 0 -11.468393580422417 0 -1 0 I I #
coedge $-1 $159 $161 $108 $171 reversed $101 $-1 #
edge $-1 $174 -36.700606731942081 $177 36.700606731942081 $170 $240 forward 7 unknown #
coedge $-1 $165 $109 $114 $180 forward $157 $-1 #
coedge $-1 $109 $165 $159 $231 reversed $157 $-1 #
vertex $-1 $110 $241 #
straight-curve $-1 0 36.700606731942081 11.468393580422417 -1 0 0 I I #
coedge $-1 $111 $160 $113 $179 reversed $63 $-1 #
vertex $-1 $171 $242 #
straight-curve $-1 0 -36.700606731942081 11.468393580422417 1 0 0 I I #
edge $-1 $116 -11.468393580422417 $168 11.468393580422417 $113 $243 forward 7 unknown #
edge $-1 $117 -11.468393580422417 $167 11.468393580422417 $114 $244 forward 7 unknown #
point $-1 55.101779229102448 -36.700606731942081 11.468393580422417 #
point $-1 55.101779229102448 36.700606731942081 11.468393580422417 #
face $-1 $-1 $196 $16 $-1 $245 reversed single #
loop $-1 $-1 $246 $119 #
plane-surface $-1 -64.502508981544068 0 6.3428166992880985 1 0 0 0 0 -1 forward_v I I I I #
coedge $-1 $247 $188 $125 $193 reversed $120 $-1 #
coedge $-1 $123 $122 $246 $248 reversed $45 $-1 #
coedge $-1 $186 $249 $122 $189 forward $120 $-1 #
edge $-1 $250 -4.7003648762208101 $191 4.7003648762208101 $122 $251 forward 7 unknown #
edge $-1 $130 -4.7003648762208101 $252 4.7003648762208101 $123 $253 forward 7 unknown #
vertex $-1 $124 $254 #
straight-curve $-1 -55.101779229102448 36.700606731942081 0 0 0 -1 I I #
edge $-1 $197 -36.700606731942081 $191 36.700606731942081 $186 $255 forward 7 unknown #
coedge $-1 $256 $126 $129 $200 reversed $196 $-1 #
coedge $-1 $126 $256 $247 $257 reversed $196 $-1 #
loop $-1 $-1 $126 $183 #
vertex $-1 $127 $258 #
straight-curve $-1 -55.101779229102448 -36.700606731942081 0 0 0 1 I I #
coedge $-1 $129 $128 $259 $260 forward $71 $-1 #
edge $-1 $261 -4.7003648762208101 $131 4.7003648762208101 $194 $262 forward 7 unknown #
point $-1 -55.101779229102448 36.700606731942081 8.8954591413821191 #
point $-1 -55.101779229102448 -36.700606731942081 8.8954591413821191 #
loop $-1 $-1 $141 $133 #
plane-surface $-1 0 36.700606731942081 0 0 -1 0 0 0 -1 forward_v I I I I #
coedge $-1 $206 $136 $138 $210 reversed $79 $-1 #
coedge $-1 $136 $205 $263 $264 reversed $79 $-1 #
coedge $-1 $144 $139 $136 $208 forward $134 $-1 #
edge $-1 $211 -13.721384284121605 $265 -7.8733549733613373 $207 $266 forward 7 unknown #
coedge $-1 $138 $137 $214 $267 reversed $49 $-1 #
edge $-1 $268 -73.401213463884133 $211 -62.663772577106585 $205 $269 forward 7 unknown #
vertex $-1 $140 $270 #
straight-curve $-1 -6.1565467325510568 30.852577421181813 11.468393580422415 1 0 0 I I #
coedge $-1 $263 $141 $144 $218 reversed $203 $-1 #
coedge $-1 $141 $263 $209 $267 forward $203 $-1 #
vertex $-1 $142 $271 #
straight-curve $-1 -25.085953496380345 36.700606731942081 62.021907097212384 0 0 1 I I #
straight-curve $-1 -25.085953496380345 -3.2765584332474873 64.022655818848364 0 0.54463902268945019 -0.83867057594974714 I I #
edge $-1 $265 -0.45976656617611766 $145 25.085953496380345 $213 $272 forward 7 unknown #
point $-1 -25.085953496380345 36.700606731942081 11.468393580422417 #
point $-1 -25.085953496380345 30.852577421181813 11.468393580422415 #
edge $-1 $273 1 $273 0 $148 $-1 forward 7 unknown #
vertex $-1 $149 $274 #
ellipse-curve $-1 -17.787176335649932 29.544334833415789 4.2173458124191825 0 0.83867057594974714 0.54463902268945019 2.5 0 0 1 I I #
point $-1 -15.287176335649932 33.776592076561954 6.9658057140523493 #
edge $-1 $275 1 $275 0 $152 $-1 forward 7 unknown #
vertex $-1 $153 $276 #
ellipse-curve $-1 -6.8390105945543027 29.544334833415789 4.2173458124191825 0 0.83867057594974714 0.54463902268945019 2.5 0 0 1 I I #
point $-1 -4.3390105945543027 33.776592076561954 6.9658057140523493 #
plane-surface $-1 55.101779229102448 0 0 -1 0 0 0 0 1 forward_v I I I I #
coedge $-1 $161 $159 $163 $234 reversed $101 $-1 #
edge $-1 $174 -11.468393580422417 $236 11.468393580422417 $173 $277 forward 7 unknown #
vertex $-1 $234 $278 #
straight-curve $-1 -55.101779229102448 -36.700606731942081 0 0 0 -1 I I #
edge $-1 $232 -36.700606731942081 $236 36.700606731942081 $230 $279 forward 7 unknown #
straight-curve $-1 0 -36.700606731942081 -11.468393580422417 -1 0 0 I I #
vertex $-1 $166 $280 #
straight-curve $-1 0 36.700606731942081 -11.468393580422417 1 0 0 I I #
point $-1 55.101779229102448 36.700606731942081 -11.468393580422417 #
point $-1 55.101779229102448 -36.700606731942081 -11.468393580422417 #
straight-curve $-1 -55.101779229102448 0 11.468393580422417 0 -1 0 I I #
point $-1 -55.101779229102448 36.700606731942081 11.468393580422417 #
point $-1 -55.101779229102448 -36.700606731942081 11.468393580422417 #
straight-curve $-1 55.101779229102448 -36.700606731942081 0 0 0 -1 I I #
straight-curve $-1 55.101779229102448 36.700606731942081 0 0 0 -1 I I #
plane-surface $-1 0 -36.700606731942081 0 0 1 0 0 0 1 forward_v I I I I #
coedge $-1 $281 $259 $187 $248 forward $184 $-1 #
coedge $-1 $249 $186 $195 $257 forward $120 $-1 #
edge $-1 $252 -2.5526424420940206 $250 2.5526424420940215 $187 $282 forward 7 unknown #
coedge $-1 $188 $247 $281 $283 forward $120 $-1 #
vertex $-1 $189 $284 #
straight-curve $-1 -59.802144105323258 36.700606731942081 3.7901742571940771 1 0 0 I I #
vertex $-1 $190 $285 #
straight-curve $-1 -59.802144105323258 36.700606731942081 8.8954591413821191 -1 0 0 I I #
point $-1 -55.101779229102448 36.700606731942081 3.7901742571940771 #
straight-curve $-1 -55.101779229102448 0 3.7901742571940771 0 1 0 I I #
coedge $-1 $195 $194 $286 $287 forward $196 $-1 #
edge $-1 $197 -4.7003648762208101 $288 4.7003648762208101 $195 $289 forward 7 unknown #
point $-1 -55.101779229102448 -36.700606731942081 3.7901742571940771 #
coedge $-1 $246 $286 $199 $260 reversed $184 $-1 #
edge $-1 $252 -36.700606731942081 $261 36.700606731942081 $259 $290 forward 7 unknown #
vertex $-1 $260 $291 #
straight-curve $-1 -59.802144105323258 -36.700606731942081 8.8954591413821191 1 0 0 I I #
coedge $-1 $214 $213 $206 $264 forward $203 $-1 #
edge $-1 $265 50.55351351678997 $268 59.558689249530062 $263 $292 forward 7 unknown #
vertex $-1 $218 $293 #
straight-curve $-1 0.45976656617611766 44.573961705303418 11.468393580422415 0 1 0 I I #
edge $-1 $268 -6.6163132987271744 $215 18.929406763829288 $214 $294 forward 7 unknown #
vertex $-1 $267 $295 #
straight-curve $-1 0.45976656617611766 -3.2765584332474873 64.022655818848364 0 -0.54463902268945019 0.83867057594974714 I I #
point $-1 0.45976656617611766 30.852577421181813 11.468393580422415 #
point $-1 -25.085953496380345 36.700606731942081 2.4632178476823228 #
straight-curve $-1 0 36.700606731942081 11.468393580422417 -1 0 0 I I #
vertex $-1 $221 $296 #
point $-1 -15.287176335649932 29.544334833415789 4.2173458124191825 #
vertex $-1 $225 $297 #
point $-1 -4.3390105945543027 29.544334833415789 4.2173458124191825 #
straight-curve $-1 -55.101779229102448 36.700606731942081 0 0 0 -1 I I #
point $-1 -55.101779229102448 -36.700606731942081 -11.468393580422417 #
straight-curve $-1 -55.101779229102448 0 -11.468393580422417 0 1 0 I I #
point $-1 -55.101779229102448 36.700606731942081 -11.468393580422417 #
coedge $-1 $286 $246 $249 $283 reversed $184 $-1 #
straight-curve $-1 -64.502508981544068 36.700606731942081 6.3428166992880985 0 0 -1 I I #
edge $-1 $288 -36.700606731942081 $250 36.700606731942081 $281 $298 forward 7 unknown #
point $-1 -64.502508981544068 36.700606731942081 3.7901742571940771 #
point $-1 -64.502508981544068 36.700606731942081 8.8954591413821191 #
coedge $-1 $259 $281 $256 $287 reversed $184 $-1 #
edge $-1 $261 -2.5526424420940206 $288 2.5526424420940215 $286 $299 forward 7 unknown #
vertex $-1 $283 $300 #
straight-curve $-1 -59.802144105323258 -36.700606731942081 3.7901742571940771 -1 0 0 I I #
straight-curve $-1 -64.502508981544068 0 8.8954591413821191 0 -1 0 I I #
point $-1 -64.502508981544068 -36.700606731942081 8.8954591413821191 #
straight-curve $-1 0.45976656617611766 36.700606731942081 62.021907097212384 0 0 -1 I I #
point $-1 0.45976656617611766 36.700606731942081 11.468393580422417 #
straight-curve $-1 -6.1565467325510568 36.700606731942081 2.4632178476823263 -1 0 0 I I #
point $-1 0.45976656617611766 36.700606731942081 2.4632178476823228 #
point $-1 -17.787176335649932 27.447658393541417 2.855748255695556 #
point $-1 -6.8390105945543027 27.447658393541417 2.855748255695556 #
straight-curve $-1 -64.502508981544068 0 3.7901742571940771 0 1 0 I I #
straight-curve $-1 -64.502508981544068 -36.700606731942081 6.3428166992880985 0 0 -1 I I #
point $-1 -64.502508981544068 -36.700606731942081 3.7901742571940771 #
End-of-ACIS-data 