500 0 4 0           
7 Unknown 11 ACIS 5.0 NT 24 Thu Mar 25 18:31:12 1999 
-1 9.9999999999999995e-007 1e-010 
body $-1 $4 $-1 $5 #
body $-1 $6 $-1 $7 #
body $-1 $8 $-1 $9 #
body $-1 $10 $-1 $11 #
lump $-1 $-1 $12 $0 #
transform $-1 1 0 0 0 1 0 0 0 1 46.455275124362927 24.867969399666979 7.1884649970935914 1 rotate no_reflect no_shear #
lump $-1 $-1 $13 $1 #
transform $-1 1 0 0 0 1 0 0 0 1 46.455275124362927 24.867969399666979 7.1884649970935914 1 rotate no_reflect no_shear #
lump $-1 $-1 $14 $2 #
transform $-1 1 0 0 0 1 0 0 0 1 46.455275124362927 24.867969399666979 7.1884649970935914 1 rotate no_reflect no_shear #
lump $-1 $-1 $15 $3 #
transform $-1 1 0 0 0 1 0 0 0 1 46.455275124362927 24.867969399666979 7.1884649970935914 1 rotate no_reflect no_shear #
shell $-1 $-1 $-1 $16 $-1 $4 #
shell $-1 $-1 $-1 $17 $-1 $6 #
shell $-1 $-1 $-1 $18 $-1 $8 #
shell $-1 $-1 $-1 $19 $-1 $10 #
face $-1 $20 $21 $12 $-1 $22 forward single #
face $-1 $23 $24 $13 $-1 $25 reversed single #
face $-1 $26 $27 $14 $-1 $28 reversed single #
face $-1 $29 $30 $15 $-1 $31 forward single #
face $-1 $32 $33 $12 $-1 $34 reversed single #
loop $-1 $-1 $35 $16 #
plane-surface $-1 0 0 7.1884649970935914 0 0 1 1 0 0 forward_v I I I I #
face $-1 $36 $37 $13 $-1 $38 reversed single #
loop $-1 $-1 $39 $17 #
plane-surface $-1 -43.61916933603392 -20.974786089280851 0 0 -1 0 0 0 -1 forward_v I I I I #
face $-1 $40 $41 $14 $-1 $42 reversed single #
loop $-1 $-1 $43 $18 #
plane-surface $-1 -28.835082577257843 -103.66058538722611 52.545135975892613 -1 0 0 0 -0.84804810408105047 0.52991925155115449 forward_v I I I I #
face $-1 $44 $45 $15 $-1 $46 forward single #
loop $-1 $47 $48 $19 #
cone-surface $-1 -34.809073062481374 -23.232193032479195 4.9842962362121579 0 0.84804810408105047 -0.52991925155115449 0.5 0 0 1 I I 0 1 0.5 forward I I I I #
face $-1 $49 $50 $12 $-1 $51 reversed single #
loop $-1 $-1 $52 $20 #
plane-surface $-1 0 0 -7.1884649970935914 0 0 1 1 0 0 forward_v I I I I #
coedge $-1 $53 $54 $55 $56 forward $21 $-1 #
face $-1 $57 $58 $13 $-1 $59 forward single #
loop $-1 $-1 $60 $23 #
plane-surface $-1 -40.783063547704913 -22.921377744473915 0 -1 0 0 0 0 1 forward_v I I I I #
coedge $-1 $61 $62 $63 $64 forward $24 $-1 #
face $-1 $65 $66 $14 $-1 $67 forward single #
loop $-1 $-1 $68 $26 #
plane-surface $-1 -34.809073062481374 -24.867969399666976 3.310046726881879 0 -0.84804810408105047 0.52991925155115449 1 0 0 forward_v I I I I #
coedge $-1 $69 $70 $71 $72 reversed $27 $-1 #
face $-1 $-1 $73 $15 $-1 $74 forward single #
loop $-1 $75 $76 $29 #
cone-surface $-1 -34.809073062481374 -22.596156954418408 4.5868567975487924 0 0.84804810408105047 -0.52991925155115449 0.25 0 0 1 I I -0.70710678118654746 0.70710678118654746 0.25 forward I I I I #
loop $-1 $-1 $77 $19 #
coedge $-1 $48 $48 $78 $79 reversed $30 $-1 #
face $-1 $80 $81 $12 $-1 $82 reversed single #
loop $-1 $-1 $83 $32 #
plane-surface $-1 0 -24.867969399666979 0 0 1 0 0 0 1 forward_v I I I I #
coedge $-1 $84 $85 $86 $87 forward $33 $-1 #
coedge $-1 $88 $35 $89 $90 forward $21 $-1 #
coedge $-1 $35 $88 $91 $92 forward $21 $-1 #
coedge $-1 $93 $94 $35 $56 reversed $95 $-1 #
edge $-1 $96 -24.867969399666979 $97 24.867969399666979 $55 $98 forward 7 unknown #
face $-1 $99 $100 $13 $-1 $101 reversed single #
loop $-1 $-1 $102 $36 #
plane-surface $-1 0 0 7.1884649970935914 0 0 1 1 0 0 forward_v I I I I #
coedge $-1 $103 $104 $105 $106 reversed $37 $-1 #
coedge $-1 $107 $39 $108 $109 reversed $24 $-1 #
coedge $-1 $39 $107 $110 $111 reversed $24 $-1 #
coedge $-1 $104 $103 $39 $64 reversed $37 $-1 #
edge $-1 $112 -7.1884649970935914 $113 7.1884649970935914 $63 $114 forward 7 unknown #
face $-1 $115 $116 $14 $-1 $117 forward single #
loop $-1 $-1 $71 $40 #
plane-surface $-1 0 0 7.1884649970935914 0 0 1 1 0 0 forward_v I I I I #
coedge $-1 $118 $119 $120 $121 reversed $41 $-1 #
coedge $-1 $70 $43 $122 $123 reversed $27 $-1 #
coedge $-1 $43 $69 $118 $124 reversed $27 $-1 #
coedge $-1 $120 $125 $43 $72 forward $66 $-1 #
edge $-1 $126 26.962323293946074 $127 29.385827924240598 $71 $128 forward 7 unknown #
loop $-1 $-1 $78 $44 #
plane-surface $-1 -34.809073062481374 -24.867969399666976 3.310046726881879 0 -0.84804810408105047 0.52991925155115449 1 0 0 forward_v I I I I #
loop $-1 $-1 $129 $29 #
coedge $-1 $76 $76 $77 $130 reversed $45 $-1 #
coedge $-1 $77 $77 $76 $130 forward $47 $-1 #
coedge $-1 $78 $78 $48 $79 forward $73 $-1 #
edge $-1 $131 -7.5243064764144144e-016 $131 6.2831853071795996 $78 $132 forward 7 unknown #
face $-1 $133 $134 $12 $-1 $135 reversed single #
loop $-1 $-1 $136 $49 #
plane-surface $-1 -46.455275124362927 0 0 1 0 0 0 0 -1 forward_v I I I I #
coedge $-1 $137 $91 $138 $139 forward $50 $-1 #
coedge $-1 $140 $52 $137 $141 forward $33 $-1 #
coedge $-1 $52 $140 $142 $143 forward $33 $-1 #
coedge $-1 $94 $93 $52 $87 reversed $95 $-1 #
edge $-1 $144 -24.867969399666979 $145 24.867969399666979 $86 $146 forward 7 unknown #
coedge $-1 $54 $53 $147 $148 forward $21 $-1 #
coedge $-1 $149 $150 $53 $90 reversed $134 $-1 #
edge $-1 $97 -46.455275124362927 $151 46.455275124362927 $89 $152 forward 7 unknown #
coedge $-1 $83 $153 $54 $92 reversed $50 $-1 #
edge $-1 $154 -46.455275124362927 $96 46.455275124362927 $91 $155 forward 7 unknown #
coedge $-1 $86 $55 $153 $156 forward $95 $-1 #
coedge $-1 $55 $86 $149 $157 reversed $95 $-1 #
loop $-1 $-1 $93 $133 #
vertex $-1 $56 $158 #
vertex $-1 $56 $159 #
straight-curve $-1 46.455275124362927 0 7.1884649970935914 0 1 0 I I #
face $-1 $160 $161 $13 $-1 $162 reversed single #
loop $-1 $-1 $163 $57 #
plane-surface $-1 -46.455275124362927 0 0 1 0 0 0 0 -1 forward_v I I I I #
coedge $-1 $110 $164 $104 $165 forward $58 $-1 #
coedge $-1 $63 $60 $166 $167 reversed $37 $-1 #
coedge $-1 $60 $63 $102 $165 reversed $37 $-1 #
coedge $-1 $168 $169 $60 $106 forward $170 $-1 #
edge $-1 $171 -7.1884649970935914 $172 7.1884649970935914 $105 $173 forward 7 unknown #
coedge $-1 $62 $61 $163 $174 reversed $24 $-1 #
coedge $-1 $166 $175 $61 $109 forward $161 $-1 #
edge $-1 $176 -24.645690456345967 $113 -18.973478879687953 $108 $177 forward 7 unknown #
coedge $-1 $178 $102 $62 $111 forward $58 $-1 #
edge $-1 $112 18.973478879687953 $179 24.645690456345967 $110 $180 forward 7 unknown #
vertex $-1 $111 $181 #
vertex $-1 $109 $182 #
straight-curve $-1 -40.783063547704913 -20.974786089280851 0 0 0 -1 I I #
face $-1 $-1 $183 $14 $-1 $184 reversed single #
loop $-1 $-1 $185 $65 #
plane-surface $-1 -40.783063547704913 -22.921377744473915 0 -1 0 0 0 0 1 forward_v I I I I #
coedge $-1 $186 $68 $70 $124 forward $41 $-1 #
coedge $-1 $68 $186 $185 $187 reversed $41 $-1 #
coedge $-1 $188 $71 $68 $121 forward $66 $-1 #
edge $-1 $127 11.430546046017156 $189 23.378527016464226 $120 $190 forward 7 unknown #
coedge $-1 $191 $192 $69 $123 forward $183 $-1 #
edge $-1 $193 -22.962521261064435 $126 -19.084102990852713 $122 $194 forward 7 unknown #
edge $-1 $127 -4.5733470207027791 $193 6.7785685355760754e-015 $70 $195 forward 7 unknown #
coedge $-1 $71 $188 $191 $196 forward $66 $-1 #
vertex $-1 $72 $197 #
vertex $-1 $72 $198 #
straight-curve $-1 -28.835082577257843 -51.830292693613053 7.1884649970935932 0 1 0 I I #
coedge $-1 $129 $129 $-1 $199 reversed $75 $-1 #
edge $-1 $200 0 $200 6.2831853071796004 $76 $201 forward 7 unknown #
vertex $-1 $79 $202 #
ellipse-curve $-1 -34.809073062481374 -23.656217084519717 5.2492558619877334 0 -0.84804810408105047 0.52991925155115449 0.5 0 0 1 I I #
face $-1 $-1 $95 $12 $-1 $203 reversed single #
loop $-1 $-1 $149 $80 #
plane-surface $-1 0 24.867969399666979 0 0 -1 0 0 0 -1 forward_v I I I I #
coedge $-1 $204 $147 $150 $205 forward $81 $-1 #
coedge $-1 $153 $83 $84 $141 reversed $50 $-1 #
coedge $-1 $147 $204 $83 $139 reversed $81 $-1 #
edge $-1 $154 -7.1884649970935914 $206 7.1884649970935914 $138 $207 forward 7 unknown #
coedge $-1 $85 $84 $204 $208 forward $33 $-1 #
edge $-1 $145 -46.455275124362927 $206 46.455275124362927 $137 $209 forward 7 unknown #
coedge $-1 $150 $149 $85 $143 reversed $134 $-1 #
edge $-1 $210 -46.455275124362927 $144 46.455275124362927 $142 $211 forward 7 unknown #
vertex $-1 $87 $212 #
vertex $-1 $156 $213 #
straight-curve $-1 46.455275124362927 0 -7.1884649970935914 0 -1 0 I I #
coedge $-1 $136 $138 $88 $148 reversed $81 $-1 #
edge $-1 $151 -24.867969399666979 $154 24.867969399666979 $147 $214 forward 7 unknown #
coedge $-1 $142 $89 $94 $157 forward $134 $-1 #
coedge $-1 $89 $142 $136 $205 reversed $134 $-1 #
vertex $-1 $90 $215 #
straight-curve $-1 0 24.867969399666979 7.1884649970935914 -1 0 0 I I #
coedge $-1 $91 $137 $93 $156 reversed $50 $-1 #
vertex $-1 $148 $216 #
straight-curve $-1 0 -24.867969399666979 7.1884649970935914 1 0 0 I I #
edge $-1 $96 -7.1884649970935914 $145 7.1884649970935914 $93 $217 forward 7 unknown #
edge $-1 $97 -7.1884649970935914 $144 7.1884649970935914 $94 $218 forward 7 unknown #
point $-1 46.455275124362927 -24.867969399666979 7.1884649970935914 #
point $-1 46.455275124362927 24.867969399666979 7.1884649970935914 #
face $-1 $-1 $170 $13 $-1 $219 reversed single #
loop $-1 $-1 $166 $99 #
plane-surface $-1 0 0 -7.1884649970935914 0 0 1 1 0 0 forward_v I I I I #
coedge $-1 $220 $221 $107 $174 forward $100 $-1 #
coedge $-1 $102 $178 $168 $222 forward $58 $-1 #
edge $-1 $172 -13.407280527430022 $112 -9.5140972170438936 $102 $223 forward 7 unknown #
coedge $-1 $224 $108 $103 $167 forward $161 $-1 #
edge $-1 $113 9.5140972170438936 $171 13.407280527430022 $166 $225 forward 7 unknown #
coedge $-1 $226 $105 $164 $222 reversed $170 $-1 #
coedge $-1 $105 $226 $224 $227 reversed $170 $-1 #
loop $-1 $-1 $105 $160 #
vertex $-1 $227 $228 #
vertex $-1 $106 $229 #
straight-curve $-1 -40.783063547704913 -24.867969399666979 0 0 0 1 I I #
edge $-1 $179 -7.1884649970935914 $176 7.1884649970935914 $163 $230 forward 7 unknown #
coedge $-1 $108 $224 $220 $231 forward $161 $-1 #
vertex $-1 $109 $232 #
straight-curve $-1 -21.80958466801696 -20.974786089280851 -7.1884649970935914 1 0 0 I I #
coedge $-1 $164 $110 $221 $233 forward $58 $-1 #
vertex $-1 $233 $234 #
straight-curve $-1 -21.80958466801696 -20.974786089280851 7.1884649970935914 -1 0 0 I I #
point $-1 -40.783063547704913 -20.974786089280851 7.1884649970935914 #
point $-1 -40.783063547704913 -20.974786089280851 -7.1884649970935914 #
loop $-1 $-1 $122 $115 #
plane-surface $-1 0 -24.867969399666979 0 0 1 0 0 0 1 forward_v I I I I #
coedge $-1 $235 $236 $119 $187 forward $116 $-1 #
coedge $-1 $119 $118 $192 $237 reversed $41 $-1 #
edge $-1 $189 -5.4611182497808937 $238 -0.88777122907810957 $185 $239 forward 7 unknown #
coedge $-1 $125 $120 $236 $240 forward $66 $-1 #
vertex $-1 $240 $241 #
straight-curve $-1 -17.404536531240687 -22.444464769372459 7.1884649970935914 -1 0 0 I I #
coedge $-1 $242 $122 $125 $196 reversed $183 $-1 #
coedge $-1 $122 $242 $186 $237 forward $183 $-1 #
vertex $-1 $123 $243 #
straight-curve $-1 -28.835082577257843 -24.867969399666976 26.272567987946307 0 0 1 I I #
straight-curve $-1 -28.835082577257843 -24.867969399666976 3.310046726881879 0 -0.52991925155115449 -0.84804810408105047 I I #
edge $-1 $244 -40.783063547704913 $126 -28.835082577257843 $191 $245 forward 7 unknown #
point $-1 -28.835082577257843 -24.867969399666979 7.1884649970935914 #
point $-1 -28.835082577257843 -22.444464769372455 7.1884649970935914 #
edge $-1 $246 1 $246 0 $129 $-1 forward 7 unknown #
vertex $-1 $130 $247 #
ellipse-curve $-1 -34.809073062481374 -22.808168980438669 4.7193366104365806 0 -0.84804810408105047 0.52991925155115449 0.5 0 0 1 I I #
point $-1 -34.309073062481374 -23.656217084519721 5.2492558619877352 #
plane-surface $-1 46.455275124362927 0 0 -1 0 0 0 0 1 forward_v I I I I #
coedge $-1 $138 $136 $140 $208 reversed $81 $-1 #
edge $-1 $151 -7.1884649970935914 $210 7.1884649970935914 $150 $248 forward 7 unknown #
vertex $-1 $208 $249 #
straight-curve $-1 -46.455275124362927 -24.867969399666979 0 0 0 -1 I I #
edge $-1 $206 -24.867969399666979 $210 24.867969399666979 $204 $250 forward 7 unknown #
straight-curve $-1 0 -24.867969399666979 -7.1884649970935914 -1 0 0 I I #
vertex $-1 $143 $251 #
straight-curve $-1 0 24.867969399666979 -7.1884649970935914 1 0 0 I I #
point $-1 46.455275124362927 24.867969399666979 -7.1884649970935914 #
point $-1 46.455275124362927 -24.867969399666979 -7.1884649970935914 #
straight-curve $-1 -46.455275124362927 0 7.1884649970935914 0 -1 0 I I #
point $-1 -46.455275124362927 24.867969399666979 7.1884649970935914 #
point $-1 -46.455275124362927 -24.867969399666979 7.1884649970935914 #
straight-curve $-1 46.455275124362927 -24.867969399666979 0 0 0 -1 I I #
straight-curve $-1 46.455275124362927 24.867969399666979 0 0 0 -1 I I #
plane-surface $-1 0 -24.867969399666979 0 0 1 0 0 0 1 forward_v I I I I #
coedge $-1 $252 $163 $175 $231 reversed $100 $-1 #
coedge $-1 $163 $252 $178 $233 reversed $100 $-1 #
edge $-1 $253 -46.455275124362927 $172 -40.783063547704913 $168 $254 forward 7 unknown #
straight-curve $-1 -40.783063547704913 -11.460688872236958 7.1884649970935914 0 1 0 I I #
coedge $-1 $175 $166 $169 $227 forward $161 $-1 #
straight-curve $-1 -40.783063547704913 -11.460688872236958 -7.1884649970935914 0 -1 0 I I #
coedge $-1 $169 $168 $252 $255 forward $170 $-1 #
edge $-1 $171 40.783063547704913 $256 46.455275124362927 $169 $257 forward 7 unknown #
point $-1 -40.783063547704913 -24.867969399666979 -7.1884649970935914 #
point $-1 -40.783063547704913 -24.867969399666979 7.1884649970935914 #
straight-curve $-1 -46.455275124362927 -20.974786089280851 0 0 0 -1 I I #
edge $-1 $256 -24.867969399666979 $176 -20.974786089280851 $220 $258 forward 7 unknown #
point $-1 -46.455275124362927 -20.974786089280851 -7.1884649970935914 #
edge $-1 $179 20.974786089280851 $253 24.867969399666979 $221 $259 forward 7 unknown #
point $-1 -46.455275124362927 -20.974786089280851 7.1884649970935914 #
coedge $-1 $236 $185 $242 $260 reversed $116 $-1 #
coedge $-1 $185 $235 $188 $240 reversed $116 $-1 #
edge $-1 $238 -23.378527016464226 $193 -11.430546046017156 $192 $261 forward 7 unknown #
vertex $-1 $187 $262 #
straight-curve $-1 -40.783063547704913 -25.338416464928699 2.5571740192044778 0 -0.52991925155115449 -0.84804810408105047 I I #
edge $-1 $189 10.983775897135502 $244 13.407280527430022 $188 $263 forward 7 unknown #
point $-1 -40.783063547704913 -22.444464769372459 7.1884649970935914 #
coedge $-1 $192 $191 $235 $260 forward $183 $-1 #
point $-1 -28.835082577257843 -24.867969399666979 3.3100467268818732 #
vertex $-1 $196 $264 #
straight-curve $-1 0 -24.867969399666979 7.1884649970935914 1 0 0 I I #
vertex $-1 $199 $265 #
point $-1 -34.309073062481374 -22.808168980438669 4.7193366104365806 #
straight-curve $-1 -46.455275124362927 24.867969399666979 0 0 0 -1 I I #
point $-1 -46.455275124362927 -24.867969399666979 -7.1884649970935914 #
straight-curve $-1 -46.455275124362927 0 -7.1884649970935914 0 1 0 I I #
point $-1 -46.455275124362927 24.867969399666979 -7.1884649970935914 #
coedge $-1 $221 $220 $226 $255 reversed $100 $-1 #
vertex $-1 $233 $266 #
straight-curve $-1 0 -24.867969399666979 7.1884649970935914 1 0 0 I I #
edge $-1 $253 -7.1884649970935914 $256 7.1884649970935914 $252 $267 forward 7 unknown #
vertex $-1 $231 $268 #
straight-curve $-1 0 -24.867969399666979 -7.1884649970935914 -1 0 0 I I #
straight-curve $-1 -46.455275124362927 0 -7.1884649970935914 0 1 0 I I #
straight-curve $-1 -46.455275124362927 0 7.1884649970935914 0 -1 0 I I #
edge $-1 $244 -7.1884649970935914 $238 -3.3100467268818732 $242 $269 forward 7 unknown #
straight-curve $-1 -17.404536531240687 -24.867969399666979 3.310046726881871 1 0 0 I I #
point $-1 -40.783063547704913 -24.867969399666979 3.3100467268818732 #
straight-curve $-1 -40.783063547704913 -11.460688872236958 7.1884649970935914 0 -1 0 I I #
point $-1 -40.783063547704913 -24.867969399666979 7.1884649970935914 #
point $-1 -34.809073062481374 -22.384144928398147 4.4543769846610042 #
point $-1 -46.455275124362927 -24.867969399666979 7.1884649970935914 #
straight-curve $-1 -46.455275124362927 -24.867969399666979 0 0 0 -1 I I #
point $-1 -46.455275124362927 -24.867969399666979 -7.1884649970935914 #
straight-curve $-1 -40.783063547704913 -24.867969399666979 0 0 0 -1 I I #
End-of-ACIS-data 