500 0 2 0           
7 Unknown 11 ACIS 5.0 NT 24 Fri Mar 26 15:52:04 1999 
-1 9.9999999999999995e-007 1e-010 
body $-1 $2 $-1 $3 #
body $-1 $4 $-1 $5 #
lump $-1 $-1 $6 $0 #
transform $-1 1 0 0 0 1 0 0 0 1 62.748496963408307 40.832578550125731 11.691498617973407 1 rotate no_reflect no_shear #
lump $-1 $-1 $7 $1 #
transform $-1 1 0 0 0 1 0 0 0 1 62.748496963408307 40.832578550125731 11.691498617973407 1 rotate no_reflect no_shear #
shell $-1 $-1 $-1 $8 $-1 $2 #
shell $-1 $-1 $-1 $9 $-1 $4 #
face $-1 $10 $11 $6 $-1 $12 forward single #
face $-1 $13 $14 $7 $-1 $15 forward single #
face $-1 $16 $17 $6 $-1 $18 reversed single #
loop $-1 $-1 $19 $8 #
plane-surface $-1 0 0 11.691498617973407 0 0 1 1 0 0 forward_v I I I I #
face $-1 $20 $21 $7 $-1 $22 forward single #
loop $-1 $-1 $23 $9 #
plane-surface $-1 0 -33.26089972241806 8.4028074725569528 0 0 1 1 0 0 forward_v I I I I #
face $-1 $24 $25 $6 $-1 $26 reversed single #
loop $-1 $-1 $27 $10 #
plane-surface $-1 0 0 -11.691498617973407 0 0 1 1 0 0 forward_v I I I I #
coedge $-1 $28 $29 $30 $31 forward $11 $-1 #
face $-1 $32 $33 $7 $-1 $34 forward single #
loop $-1 $-1 $35 $13 #
plane-surface $-1 0 -25.689220894710385 10.047153045265178 0 -1 0 0 0 -1 forward_v I I I I #
coedge $-1 $36 $37 $38 $39 reversed $14 $-1 #
face $-1 $40 $41 $6 $-1 $42 reversed single #
loop $-1 $-1 $43 $16 #
plane-surface $-1 0 -40.832578550125731 0 0 1 0 0 0 1 forward_v I I I I #
coedge $-1 $44 $45 $46 $47 forward $17 $-1 #
coedge $-1 $48 $19 $49 $50 forward $11 $-1 #
coedge $-1 $19 $48 $51 $52 forward $11 $-1 #
coedge $-1 $53 $54 $19 $31 reversed $55 $-1 #
edge $-1 $56 -40.832578550125731 $57 40.832578550125731 $30 $58 forward 7 unknown #
face $-1 $59 $60 $7 $-1 $61 reversed single #
loop $-1 $-1 $62 $20 #
plane-surface $-1 0 0 11.691498617973407 0 0 1 1 0 0 forward_v I I I I #
coedge $-1 $63 $64 $65 $66 reversed $21 $-1 #
coedge $-1 $67 $23 $64 $68 reversed $14 $-1 #
coedge $-1 $23 $67 $69 $70 reversed $14 $-1 #
coedge $-1 $71 $65 $23 $39 forward $60 $-1 #
edge $-1 $72 9.0587710335013547 $73 24.202128688916702 $38 $74 forward 7 unknown #
face $-1 $75 $76 $6 $-1 $77 reversed single #
loop $-1 $-1 $78 $24 #
plane-surface $-1 -62.748496963408307 0 0 1 0 0 0 0 -1 forward_v I I I I #
coedge $-1 $79 $51 $80 $81 forward $25 $-1 #
coedge $-1 $82 $27 $79 $83 forward $17 $-1 #
coedge $-1 $27 $82 $84 $85 forward $17 $-1 #
coedge $-1 $54 $53 $27 $47 reversed $55 $-1 #
edge $-1 $86 -40.832578550125731 $87 40.832578550125731 $46 $88 forward 7 unknown #
coedge $-1 $29 $28 $89 $90 forward $11 $-1 #
coedge $-1 $91 $92 $28 $50 reversed $76 $-1 #
edge $-1 $57 -62.748496963408307 $93 62.748496963408307 $49 $94 forward 7 unknown #
coedge $-1 $43 $95 $29 $52 reversed $25 $-1 #
edge $-1 $96 -62.748496963408307 $56 62.748496963408307 $51 $97 forward 7 unknown #
coedge $-1 $46 $30 $95 $98 forward $55 $-1 #
coedge $-1 $30 $46 $91 $99 reversed $55 $-1 #
loop $-1 $-1 $53 $75 #
vertex $-1 $31 $100 #
vertex $-1 $31 $101 #
straight-curve $-1 62.748496963408307 0 11.691498617973407 0 1 0 I I #
face $-1 $102 $103 $7 $-1 $104 reversed single #
loop $-1 $-1 $65 $32 #
plane-surface $-1 62.748496963408307 0 0 -1 0 0 0 0 1 forward_v I I I I #
coedge $-1 $105 $106 $63 $107 forward $33 $-1 #
coedge $-1 $108 $35 $62 $107 reversed $21 $-1 #
coedge $-1 $35 $108 $36 $68 forward $21 $-1 #
coedge $-1 $38 $109 $35 $66 forward $60 $-1 #
edge $-1 $110 -6.6679220953408143 $72 -3.3792309499243638 $65 $111 forward 7 unknown #
coedge $-1 $37 $36 $112 $113 reversed $14 $-1 #
edge $-1 $114 -62.748496963408307 $72 62.748496963408307 $64 $115 forward 7 unknown #
coedge $-1 $116 $117 $37 $70 forward $118 $-1 #
edge $-1 $73 -62.748496963408307 $119 62.748496963408307 $69 $120 forward 7 unknown #
coedge $-1 $121 $38 $117 $122 forward $60 $-1 #
vertex $-1 $39 $123 #
vertex $-1 $122 $124 #
straight-curve $-1 62.748496963408307 -16.63044986120903 8.4028074725569528 0 -1 0 I I #
face $-1 $-1 $55 $6 $-1 $125 reversed single #
loop $-1 $-1 $91 $40 #
plane-surface $-1 0 40.832578550125731 0 0 -1 0 0 0 -1 forward_v I I I I #
coedge $-1 $126 $89 $92 $127 forward $41 $-1 #
coedge $-1 $95 $43 $44 $83 reversed $25 $-1 #
coedge $-1 $89 $126 $43 $81 reversed $41 $-1 #
edge $-1 $96 -11.691498617973407 $128 11.691498617973407 $80 $129 forward 7 unknown #
coedge $-1 $45 $44 $126 $130 forward $17 $-1 #
edge $-1 $87 -62.748496963408307 $128 62.748496963408307 $79 $131 forward 7 unknown #
coedge $-1 $92 $91 $45 $85 reversed $76 $-1 #
edge $-1 $132 -62.748496963408307 $86 62.748496963408307 $84 $133 forward 7 unknown #
vertex $-1 $47 $134 #
vertex $-1 $98 $135 #
straight-curve $-1 62.748496963408307 0 -11.691498617973407 0 -1 0 I I #
coedge $-1 $78 $80 $48 $90 reversed $41 $-1 #
edge $-1 $93 -40.832578550125731 $96 40.832578550125731 $89 $136 forward 7 unknown #
coedge $-1 $84 $49 $54 $99 forward $76 $-1 #
coedge $-1 $49 $84 $78 $127 reversed $76 $-1 #
vertex $-1 $50 $137 #
straight-curve $-1 0 40.832578550125731 11.691498617973407 -1 0 0 I I #
coedge $-1 $51 $79 $53 $98 reversed $25 $-1 #
vertex $-1 $90 $138 #
straight-curve $-1 0 -40.832578550125731 11.691498617973407 1 0 0 I I #
edge $-1 $56 -11.691498617973407 $87 11.691498617973407 $53 $139 forward 7 unknown #
edge $-1 $57 -11.691498617973407 $86 11.691498617973407 $54 $140 forward 7 unknown #
point $-1 62.748496963408307 -40.832578550125731 11.691498617973407 #
point $-1 62.748496963408307 40.832578550125731 11.691498617973407 #
face $-1 $141 $118 $7 $-1 $142 reversed single #
loop $-1 $-1 $143 $59 #
plane-surface $-1 0 0 -11.691498617973407 0 0 1 1 0 0 forward_v I I I I #
coedge $-1 $144 $62 $109 $145 forward $33 $-1 #
coedge $-1 $62 $144 $146 $147 forward $33 $-1 #
edge $-1 $148 -62.748496963408307 $110 62.748496963408307 $62 $149 forward 7 unknown #
coedge $-1 $64 $63 $150 $151 reversed $21 $-1 #
coedge $-1 $65 $152 $105 $145 reversed $60 $-1 #
vertex $-1 $145 $153 #
straight-curve $-1 62.748496963408307 -25.689220894710385 5.023576522632589 0 0 -1 I I #
coedge $-1 $150 $154 $67 $113 forward $155 $-1 #
edge $-1 $119 -24.202128688916702 $114 -9.0587710335013547 $112 $156 forward 7 unknown #
vertex $-1 $113 $157 #
straight-curve $-1 0 -25.689220894710385 8.4028074725569528 1 0 0 I I #
coedge $-1 $158 $69 $154 $159 forward $118 $-1 #
coedge $-1 $69 $158 $71 $122 reversed $118 $-1 #
loop $-1 $-1 $69 $102 #
vertex $-1 $159 $160 #
straight-curve $-1 0 -40.832578550125731 8.4028074725569528 -1 0 0 I I #
coedge $-1 $152 $71 $143 $161 reversed $60 $-1 #
edge $-1 $73 -8.4028074725569528 $162 11.691498617973407 $71 $163 forward 7 unknown #
point $-1 62.748496963408307 -25.689220894710385 8.4028074725569528 #
point $-1 62.748496963408307 -40.832578550125731 8.4028074725569528 #
plane-surface $-1 62.748496963408307 0 0 -1 0 0 0 0 1 forward_v I I I I #
coedge $-1 $80 $78 $82 $130 reversed $41 $-1 #
edge $-1 $93 -11.691498617973407 $132 11.691498617973407 $92 $164 forward 7 unknown #
vertex $-1 $130 $165 #
straight-curve $-1 -62.748496963408307 -40.832578550125731 0 0 0 -1 I I #
edge $-1 $128 -40.832578550125731 $132 40.832578550125731 $126 $166 forward 7 unknown #
straight-curve $-1 0 -40.832578550125731 -11.691498617973407 -1 0 0 I I #
vertex $-1 $85 $167 #
straight-curve $-1 0 40.832578550125731 -11.691498617973407 1 0 0 I I #
point $-1 62.748496963408307 40.832578550125731 -11.691498617973407 #
point $-1 62.748496963408307 -40.832578550125731 -11.691498617973407 #
straight-curve $-1 -62.748496963408307 0 11.691498617973407 0 -1 0 I I #
point $-1 -62.748496963408307 40.832578550125731 11.691498617973407 #
point $-1 -62.748496963408307 -40.832578550125731 11.691498617973407 #
straight-curve $-1 62.748496963408307 -40.832578550125731 0 0 0 -1 I I #
straight-curve $-1 62.748496963408307 40.832578550125731 0 0 0 -1 I I #
face $-1 $168 $155 $7 $-1 $169 reversed single #
plane-surface $-1 0 -40.832578550125731 0 0 1 0 0 0 1 forward_v I I I I #
coedge $-1 $170 $171 $121 $161 forward $103 $-1 #
coedge $-1 $106 $105 $172 $173 forward $33 $-1 #
edge $-1 $110 -25.689220894710385 $174 40.832578550125731 $109 $175 forward 7 unknown #
coedge $-1 $176 $150 $106 $147 reversed $155 $-1 #
edge $-1 $177 -40.832578550125731 $148 25.689220894710385 $146 $178 forward 7 unknown #
vertex $-1 $151 $179 #
straight-curve $-1 0 -25.689220894710385 11.691498617973407 1 0 0 I I #
coedge $-1 $146 $112 $108 $151 forward $155 $-1 #
edge $-1 $114 3.3792309499243638 $148 6.6679220953408143 $150 $180 forward 7 unknown #
coedge $-1 $109 $121 $181 $182 reversed $60 $-1 #
point $-1 62.748496963408307 -25.689220894710385 11.691498617973403 #
coedge $-1 $112 $183 $116 $159 reversed $155 $-1 #
loop $-1 $-1 $150 $141 #
straight-curve $-1 -62.748496963408307 -16.63044986120903 8.4028074725569528 0 1 0 I I #
point $-1 -62.748496963408307 -25.689220894710385 8.4028074725569528 #
coedge $-1 $117 $116 $170 $184 reversed $118 $-1 #
edge $-1 $119 -8.4028074725569528 $185 11.691498617973407 $154 $186 forward 7 unknown #
point $-1 -62.748496963408307 -40.832578550125731 8.4028074725569528 #
edge $-1 $187 -40.832578550125731 $162 40.832578550125731 $121 $188 forward 7 unknown #
vertex $-1 $122 $189 #
straight-curve $-1 62.748496963408307 -40.832578550125731 0 0 0 -1 I I #
straight-curve $-1 -62.748496963408307 40.832578550125731 0 0 0 -1 I I #
point $-1 -62.748496963408307 -40.832578550125731 -11.691498617973407 #
straight-curve $-1 -62.748496963408307 0 -11.691498617973407 0 1 0 I I #
point $-1 -62.748496963408307 40.832578550125731 -11.691498617973407 #
face $-1 $-1 $190 $7 $-1 $191 reversed single #
plane-surface $-1 -62.748496963408307 0 0 1 0 0 0 0 -1 forward_v I I I I #
coedge $-1 $192 $143 $158 $184 forward $103 $-1 #
coedge $-1 $143 $192 $193 $194 forward $103 $-1 #
coedge $-1 $181 $195 $144 $173 reversed $190 $-1 #
edge $-1 $174 -62.748496963408307 $177 62.748496963408307 $172 $196 forward 7 unknown #
vertex $-1 $145 $197 #
straight-curve $-1 62.748496963408307 0 11.691498617973407 0 1 0 I I #
coedge $-1 $183 $146 $195 $198 forward $155 $-1 #
vertex $-1 $173 $199 #
straight-curve $-1 -62.748496963408307 0 11.691498617973407 0 -1 0 I I #
point $-1 -62.748496963408307 -25.689220894710385 11.691498617973403 #
straight-curve $-1 -62.748496963408307 -25.689220894710385 5.023576522632589 0 0 1 I I #
coedge $-1 $193 $172 $152 $182 forward $190 $-1 #
edge $-1 $174 -11.691498617973407 $187 11.691498617973407 $152 $200 forward 7 unknown #
coedge $-1 $154 $176 $192 $201 reversed $155 $-1 #
edge $-1 $162 -62.748496963408307 $185 62.748496963408307 $158 $202 forward 7 unknown #
vertex $-1 $201 $203 #
straight-curve $-1 -62.748496963408307 -40.832578550125731 0 0 0 -1 I I #
vertex $-1 $161 $204 #
straight-curve $-1 62.748496963408307 0 -11.691498617973407 0 -1 0 I I #
point $-1 62.748496963408307 -40.832578550125731 -11.691498617973407 #
loop $-1 $-1 $181 $168 #
plane-surface $-1 0 40.832578550125731 0 0 -1 0 0 0 -1 forward_v I I I I #
coedge $-1 $171 $170 $183 $201 forward $103 $-1 #
coedge $-1 $195 $181 $171 $194 reversed $190 $-1 #
edge $-1 $205 -62.748496963408307 $187 62.748496963408307 $193 $206 forward 7 unknown #
coedge $-1 $172 $193 $176 $198 reversed $190 $-1 #
straight-curve $-1 0 40.832578550125731 11.691498617973407 -1 0 0 I I #
point $-1 62.748496963408307 40.832578550125731 11.691498617973407 #
edge $-1 $177 -11.691498617973407 $205 11.691498617973407 $195 $207 forward 7 unknown #
point $-1 -62.748496963408307 40.832578550125731 11.691498617973407 #
straight-curve $-1 62.748496963408307 40.832578550125731 0 0 0 -1 I I #
edge $-1 $185 -40.832578550125731 $205 40.832578550125731 $183 $208 forward 7 unknown #
straight-curve $-1 0 -40.832578550125731 -11.691498617973407 -1 0 0 I I #
point $-1 -62.748496963408307 -40.832578550125731 -11.691498617973407 #
point $-1 62.748496963408307 40.832578550125731 -11.691498617973407 #
vertex $-1 $194 $209 #
straight-curve $-1 0 40.832578550125731 -11.691498617973407 1 0 0 I I #
straight-curve $-1 -62.748496963408307 40.832578550125731 0 0 0 -1 I I #
straight-curve $-1 -62.748496963408307 0 -11.691498617973407 0 1 0 I I #
point $-1 -62.748496963408307 40.832578550125731 -11.691498617973407 #
End-of-ACIS-data 