500 0 9 0           
7 Unknown 11 ACIS 5.0 NT 24 Fri Mar 26 00:28:14 1999 
-1 9.9999999999999995e-007 1e-010 
body $-1 $9 $-1 $10 #
body $-1 $11 $-1 $12 #
body $-1 $13 $-1 $14 #
body $-1 $15 $-1 $16 #
body $-1 $17 $-1 $18 #
body $-1 $19 $-1 $20 #
body $-1 $21 $-1 $22 #
body $-1 $23 $-1 $24 #
body $-1 $25 $-1 $26 #
lump $-1 $-1 $27 $0 #
transform $-1 1 0 0 0 1 0 0 0 1 64.291512802514717 28.084640852118135 7.6932562585689013 1 rotate no_reflect no_shear #
lump $-1 $-1 $28 $1 #
transform $-1 1 0 0 0 1 0 0 0 1 64.291512802514717 28.084640852118135 7.6932562585689013 1 rotate no_reflect no_shear #
lump $-1 $-1 $29 $2 #
transform $-1 1 0 0 0 1 0 0 0 1 64.291512802514717 28.084640852118135 7.6932562585689013 1 rotate no_reflect no_shear #
lump $-1 $-1 $30 $3 #
transform $-1 1 0 0 0 1 0 0 0 1 64.291512802514717 28.084640852118135 7.6932562585689013 1 rotate no_reflect no_shear #
lump $-1 $-1 $31 $4 #
transform $-1 1 0 0 0 1 0 0 0 1 64.291512802514717 28.084640852118135 7.6932562585689013 1 rotate no_reflect no_shear #
lump $-1 $-1 $32 $5 #
transform $-1 1 0 0 0 1 0 0 0 1 64.291512802514717 28.084640852118135 7.6932562585689013 1 rotate no_reflect no_shear #
lump $-1 $-1 $33 $6 #
transform $-1 1 0 0 0 1 0 0 0 1 64.291512802514717 28.084640852118135 7.6932562585689013 1 rotate no_reflect no_shear #
lump $-1 $-1 $34 $7 #
transform $-1 1 0 0 0 1 0 0 0 1 64.291512802514717 28.084640852118135 7.6932562585689013 1 rotate no_reflect no_shear #
lump $-1 $-1 $35 $8 #
transform $-1 1 0 0 0 1 0 0 0 1 64.291512802514717 28.084640852118135 7.6932562585689013 1 rotate no_reflect no_shear #
shell $-1 $-1 $-1 $36 $-1 $9 #
shell $-1 $-1 $-1 $37 $-1 $11 #
shell $-1 $-1 $-1 $38 $-1 $13 #
shell $-1 $-1 $-1 $39 $-1 $15 #
shell $-1 $-1 $-1 $40 $-1 $17 #
shell $-1 $-1 $-1 $41 $-1 $19 #
shell $-1 $-1 $-1 $42 $-1 $21 #
shell $-1 $-1 $-1 $43 $-1 $23 #
shell $-1 $-1 $-1 $44 $-1 $25 #
face $-1 $45 $46 $27 $-1 $47 reversed single #
face $-1 $48 $49 $28 $-1 $50 forward single #
face $-1 $51 $52 $29 $-1 $53 reversed single #
face $-1 $54 $55 $30 $-1 $56 forward single #
face $-1 $57 $58 $31 $-1 $59 forward single #
face $-1 $60 $61 $32 $-1 $62 reversed single #
face $-1 $63 $64 $33 $-1 $65 forward single #
face $-1 $66 $67 $34 $-1 $68 forward single #
face $-1 $69 $70 $35 $-1 $71 forward single #
face $-1 $72 $73 $27 $-1 $74 forward single #
loop $-1 $-1 $75 $36 #
plane-surface $-1 0 -28.084640852118135 0 0 1 0 0 0 1 forward_v I I I I #
face $-1 $76 $77 $28 $-1 $78 forward single #
loop $-1 $-1 $79 $37 #
plane-surface $-1 0 -28.084640852118135 0 0 1 0 0 0 1 forward_v I I I I #
face $-1 $80 $81 $29 $-1 $82 reversed single #
loop $-1 $-1 $83 $38 #
plane-surface $-1 -175.64768046652929 7.4249664903274599 64.428583324446748 0 1 0 -0.86602541151947299 0 0.49999998660252726 forward_v I I I I #
face $-1 $84 $85 $30 $-1 $86 forward single #
loop $-1 $87 $88 $39 #
cone-surface $-1 -61.323375511737503 9.3866276876621129 3.460873361334627 0.86602541151947299 0 -0.49999998660252726 0.24999999330126363 0 0.43301270575973649 1 I I 0 1 0.5 forward I I I I #
face $-1 $89 $90 $31 $-1 $91 forward single #
loop $-1 $92 $93 $40 #
cone-surface $-1 -61.323375511737503 12.32911948366408 3.460873361334627 0.86602541151947299 0 -0.49999998660252726 0.24999999330126363 0 0.43301270575973649 1 I I 0 1 0.5 forward I I I I #
face $-1 $94 $95 $32 $-1 $96 reversed single #
loop $-1 $-1 $97 $41 #
plane-surface $-1 111.35616938670216 -6.8478574276275328 175.87269493641995 0 -1 0 -0.86602541151947299 0 -0.49999998660252726 forward_v I I I I #
face $-1 $98 $99 $33 $-1 $100 forward single #
loop $-1 $101 $102 $42 #
cone-surface $-1 61.590595455104676 -15.160573228793002 3.6444675124254862 -0.86602541151947299 0 -0.49999998660252726 0.24999999330126363 0 -0.43301270575973649 1 I I 0 1 0.5 forward I I I I #
face $-1 $103 $104 $34 $-1 $105 forward single #
loop $-1 $106 $107 $43 #
cone-surface $-1 61.590595455104676 -12.043304803355952 3.6444675124254862 -0.86602541151947299 0 -0.49999998660252726 0.24999999330126363 0 -0.43301270575973649 1 I I 0 1 0.5 forward I I I I #
face $-1 $108 $109 $35 $-1 $110 forward single #
loop $-1 $111 $112 $44 #
cone-surface $-1 61.590595455104676 -8.9260363779189014 3.6444675124254862 -0.86602541151947299 0 -0.49999998660252726 0.24999999330126363 0 -0.43301270575973649 1 I I 0 1 0.5 forward I I I I #
face $-1 $113 $114 $27 $-1 $115 reversed single #
loop $-1 $-1 $116 $45 #
plane-surface $-1 0 0 7.6932562585689013 0 0 1 1 0 0 forward_v I I I I #
coedge $-1 $117 $118 $119 $120 reversed $46 $-1 #
face $-1 $121 $122 $28 $-1 $123 reversed single #
loop $-1 $-1 $124 $48 #
plane-surface $-1 0 0 7.6932562585689013 0 0 1 1 0 0 forward_v I I I I #
coedge $-1 $125 $126 $127 $128 forward $49 $-1 #
face $-1 $129 $130 $29 $-1 $131 reversed single #
loop $-1 $-1 $132 $51 #
plane-surface $-1 -64.291512802514745 10.857873585663093 0.13707224461961687 -0.86602541151947299 0 0.49999998660252726 0.49999998660252726 0 0.86602541151947299 forward_v I I I I #
coedge $-1 $133 $134 $135 $136 reversed $52 $-1 #
face $-1 $-1 $137 $30 $-1 $138 forward single #
loop $-1 $139 $140 $54 #
cone-surface $-1 -60.32001422740062 9.3866276876621129 2.8815824744243699 0.86602541151947299 0 -0.49999998660252726 0.12499999665063181 0 0.21650635287986825 1 I I -0.70710678118654746 0.70710678118654746 0.25 forward I I I I #
loop $-1 $-1 $141 $39 #
coedge $-1 $88 $88 $142 $143 reversed $55 $-1 #
face $-1 $-1 $144 $31 $-1 $145 forward single #
loop $-1 $146 $147 $57 #
cone-surface $-1 -60.32001422740062 12.32911948366408 2.8815824744243699 0.86602541151947299 0 -0.49999998660252726 0.12499999665063181 0 0.21650635287986825 1 I I -0.70710678118654746 0.70710678118654746 0.25 forward I I I I #
loop $-1 $-1 $148 $40 #
coedge $-1 $93 $93 $149 $150 reversed $58 $-1 #
face $-1 $151 $152 $32 $-1 $153 reversed single #
loop $-1 $-1 $154 $60 #
plane-surface $-1 1.7226876138920488e-006 -12.043304803355952 111.58118385659282 0.86602541151947299 0 0.49999998660252726 0.49999998660252726 0 -0.86602541151947299 forward_v I I I I #
coedge $-1 $155 $156 $157 $158 reversed $61 $-1 #
face $-1 $-1 $159 $33 $-1 $160 forward single #
loop $-1 $161 $162 $63 #
cone-surface $-1 60.82906688402818 -15.160573228793002 3.2047988026267475 -0.86602541151947299 0 -0.49999998660252726 0.12499999665063181 0 -0.21650635287986825 1 I I -0.70710678118654746 0.70710678118654746 0.25 forward I I I I #
loop $-1 $-1 $163 $42 #
coedge $-1 $102 $102 $164 $165 reversed $64 $-1 #
face $-1 $-1 $166 $34 $-1 $167 forward single #
loop $-1 $168 $169 $66 #
cone-surface $-1 60.82906688402818 -12.043304803355952 3.2047988026267475 -0.86602541151947299 0 -0.49999998660252726 0.12499999665063181 0 -0.21650635287986825 1 I I -0.70710678118654746 0.70710678118654746 0.25 forward I I I I #
loop $-1 $-1 $170 $43 #
coedge $-1 $107 $107 $171 $172 reversed $67 $-1 #
face $-1 $-1 $173 $35 $-1 $174 forward single #
loop $-1 $175 $176 $69 #
cone-surface $-1 60.82906688402818 -8.9260363779189014 3.2047988026267475 -0.86602541151947299 0 -0.49999998660252726 0.12499999665063181 0 -0.21650635287986825 1 I I -0.70710678118654746 0.70710678118654746 0.25 forward I I I I #
loop $-1 $-1 $177 $44 #
coedge $-1 $112 $112 $178 $179 reversed $70 $-1 #
face $-1 $180 $181 $27 $-1 $182 reversed single #
loop $-1 $-1 $183 $72 #
plane-surface $-1 0 0 -7.6932562585689013 0 0 1 1 0 0 forward_v I I I I #
coedge $-1 $184 $185 $186 $187 forward $73 $-1 #
coedge $-1 $188 $75 $189 $190 reversed $46 $-1 #
coedge $-1 $75 $188 $191 $192 forward $46 $-1 #
coedge $-1 $193 $183 $75 $120 forward $114 $-1 #
edge $-1 $194 -64.291512802514717 $195 64.291512802514717 $75 $196 forward 7 unknown #
face $-1 $197 $198 $28 $-1 $199 reversed single #
loop $-1 $-1 $200 $76 #
plane-surface $-1 -64.291512802514717 0 0 1 0 0 0 0 -1 forward_v I I I I #
coedge $-1 $201 $202 $126 $203 forward $77 $-1 #
coedge $-1 $204 $79 $205 $206 reversed $49 $-1 #
coedge $-1 $79 $204 $124 $203 reversed $49 $-1 #
coedge $-1 $207 $208 $79 $128 reversed $209 $-1 #
edge $-1 $210 -7.6932562585689013 $211 7.6932562585689013 $127 $212 forward 7 unknown #
face $-1 $213 $214 $29 $-1 $215 reversed single #
loop $-1 $-1 $216 $80 #
plane-surface $-1 -175.64768046652929 14.290780680998726 64.428583324446748 0 -1 0 0.86602541151947299 0 -0.49999998660252726 forward_v I I I I #
coedge $-1 $217 $218 $219 $220 reversed $81 $-1 #
coedge $-1 $134 $83 $221 $222 reversed $52 $-1 #
coedge $-1 $83 $133 $217 $223 reversed $52 $-1 #
coedge $-1 $219 $224 $83 $136 forward $225 $-1 #
edge $-1 $226 23.53232743074993 $227 27.894892149390287 $135 $228 forward 7 unknown #
loop $-1 $-1 $142 $84 #
plane-surface $-1 -64.291512802514745 10.857873585663093 0.13707224461961687 -0.86602541151947299 0 0.49999998660252726 0.49999998660252726 0 0.86602541151947299 forward_v I I I I #
loop $-1 $-1 $229 $54 #
coedge $-1 $140 $140 $141 $230 reversed $85 $-1 #
coedge $-1 $141 $141 $140 $230 forward $87 $-1 #
coedge $-1 $142 $142 $88 $143 forward $137 $-1 #
edge $-1 $231 0 $231 6.2831853071796004 $142 $232 forward 7 unknown #
loop $-1 $-1 $149 $89 #
plane-surface $-1 -64.291512802514745 10.857873585663093 0.13707224461961687 -0.86602541151947299 0 0.49999998660252726 0.49999998660252726 0 0.86602541151947299 forward_v I I I I #
loop $-1 $-1 $233 $57 #
coedge $-1 $147 $147 $148 $234 reversed $90 $-1 #
coedge $-1 $148 $148 $147 $234 forward $92 $-1 #
coedge $-1 $149 $149 $93 $150 forward $144 $-1 #
edge $-1 $235 0 $235 6.2831853071796004 $149 $236 forward 7 unknown #
face $-1 $237 $238 $32 $-1 $239 forward single #
loop $-1 $-1 $240 $94 #
plane-surface $-1 111.35616938670216 -17.238752179084372 175.87269493641995 0 1 0 0.86602541151947299 0 0.49999998660252726 forward_v I I I I #
coedge $-1 $241 $242 $243 $244 reversed $95 $-1 #
coedge $-1 $156 $97 $245 $246 reversed $61 $-1 #
coedge $-1 $97 $155 $241 $247 reversed $61 $-1 #
coedge $-1 $243 $248 $97 $158 forward $238 $-1 #
edge $-1 $249 -8.6134281091636353 $250 -4.3016378507368032 $157 $251 forward 7 unknown #
loop $-1 $-1 $164 $98 #
plane-surface $-1 1.7226876138920488e-006 -12.043304803355952 111.58118385659282 0.86602541151947299 0 0.49999998660252726 0.49999998660252726 0 -0.86602541151947299 forward_v I I I I #
loop $-1 $-1 $252 $63 #
coedge $-1 $162 $162 $163 $253 reversed $99 $-1 #
coedge $-1 $163 $163 $162 $253 forward $101 $-1 #
coedge $-1 $164 $164 $102 $165 forward $159 $-1 #
edge $-1 $254 0 $254 6.2831853071796004 $164 $255 forward 7 unknown #
loop $-1 $-1 $171 $103 #
plane-surface $-1 1.7226876138920488e-006 -12.043304803355952 111.58118385659282 0.86602541151947299 0 0.49999998660252726 0.49999998660252726 0 -0.86602541151947299 forward_v I I I I #
loop $-1 $-1 $256 $66 #
coedge $-1 $169 $169 $170 $257 reversed $104 $-1 #
coedge $-1 $170 $170 $169 $257 forward $106 $-1 #
coedge $-1 $171 $171 $107 $172 forward $166 $-1 #
edge $-1 $258 0 $258 6.2831853071796004 $171 $259 forward 7 unknown #
loop $-1 $-1 $178 $108 #
plane-surface $-1 1.7226876138920488e-006 -12.043304803355952 111.58118385659282 0.86602541151947299 0 0.49999998660252726 0.49999998660252726 0 -0.86602541151947299 forward_v I I I I #
loop $-1 $-1 $260 $69 #
coedge $-1 $176 $176 $177 $261 reversed $109 $-1 #
coedge $-1 $177 $177 $176 $261 forward $111 $-1 #
coedge $-1 $178 $178 $112 $179 forward $173 $-1 #
edge $-1 $262 0 $262 6.2831853071796004 $178 $263 forward 7 unknown #
face $-1 $264 $265 $27 $-1 $266 reversed single #
loop $-1 $-1 $267 $113 #
plane-surface $-1 -64.291512802514717 0 0 1 0 0 0 0 -1 forward_v I I I I #
coedge $-1 $119 $268 $269 $270 forward $114 $-1 #
coedge $-1 $271 $116 $272 $273 forward $73 $-1 #
coedge $-1 $116 $271 $188 $274 forward $73 $-1 #
coedge $-1 $189 $275 $116 $187 reversed $276 $-1 #
edge $-1 $277 -28.084640852118135 $278 28.084640852118135 $186 $279 forward 7 unknown #
coedge $-1 $118 $117 $185 $274 reversed $46 $-1 #
coedge $-1 $269 $186 $117 $190 forward $276 $-1 #
edge $-1 $277 -7.6932562585689013 $194 7.6932562585689013 $189 $280 forward 7 unknown #
coedge $-1 $281 $282 $118 $192 reversed $181 $-1 #
edge $-1 $283 -7.6932562585689013 $195 7.6932562585689013 $191 $284 forward 7 unknown #
coedge $-1 $268 $119 $282 $285 forward $114 $-1 #
vertex $-1 $190 $286 #
vertex $-1 $285 $287 #
straight-curve $-1 0 -28.084640852118135 -7.6932562585689013 -1 0 0 I I #
face $-1 $288 $209 $28 $-1 $289 reversed single #
loop $-1 $-1 $290 $121 #
plane-surface $-1 -62.4765410670609 -33.560280247877337 0 0 1 0 0 0 1 forward_v I I I I #
coedge $-1 $291 $292 $204 $293 forward $122 $-1 #
coedge $-1 $294 $124 $292 $295 forward $77 $-1 #
coedge $-1 $124 $294 $207 $296 forward $77 $-1 #
edge $-1 $210 60.661569331607083 $297 64.291512802514717 $124 $298 forward 7 unknown #
coedge $-1 $126 $125 $200 $293 reversed $49 $-1 #
coedge $-1 $299 $300 $125 $206 forward $301 $-1 #
edge $-1 $302 -64.291512802514717 $211 -60.661569331607083 $205 $303 forward 7 unknown #
coedge $-1 $304 $127 $202 $296 reversed $209 $-1 #
coedge $-1 $127 $304 $299 $305 reversed $209 $-1 #
loop $-1 $-1 $304 $197 #
vertex $-1 $203 $306 #
vertex $-1 $305 $307 #
straight-curve $-1 -60.661569331607083 -28.084640852118135 0 0 0 -1 I I #
face $-1 $-1 $225 $29 $-1 $308 forward single #
loop $-1 $-1 $309 $129 #
plane-surface $-1 -64.291512802514717 0 0 1 0 0 0 0 -1 forward_v I I I I #
coedge $-1 $310 $311 $312 $313 reversed $130 $-1 #
coedge $-1 $314 $132 $134 $223 forward $81 $-1 #
coedge $-1 $132 $314 $310 $315 forward $81 $-1 #
coedge $-1 $312 $135 $132 $220 forward $225 $-1 #
edge $-1 $227 1.9960296974959135 $316 8.8618438881671793 $219 $317 forward 7 unknown #
coedge $-1 $318 $319 $133 $222 forward $214 $-1 #
edge $-1 $320 -32.077219417603708 $226 -24.521035403654473 $221 $321 forward 7 unknown #
edge $-1 $227 -8.7251296710701425 $320 -5.6852552285839104e-014 $134 $322 forward 7 unknown #
coedge $-1 $135 $312 $318 $323 forward $225 $-1 #
loop $-1 $-1 $312 $213 #
vertex $-1 $222 $324 #
vertex $-1 $136 $325 #
straight-curve $-1 -87.823840233264647 7.4249664903274599 7.6932562585689013 1 0 0 I I #
coedge $-1 $229 $229 $-1 $326 reversed $139 $-1 #
edge $-1 $327 0 $327 6.2831853071796004 $140 $328 forward 7 unknown #
vertex $-1 $143 $329 #
ellipse-curve $-1 -62.110230443194546 9.3866276876621129 3.9151642515942697 -0.86602541151947299 0 0.49999998660252726 0.24999999330126363 0 0.43301270575973649 1 I I #
coedge $-1 $233 $233 $-1 $330 reversed $146 $-1 #
edge $-1 $331 0 $331 6.2831853071796004 $147 $332 forward 7 unknown #
vertex $-1 $150 $333 #
ellipse-curve $-1 -62.110230443194546 12.32911948366408 3.9151642515942697 -0.86602541151947299 0 0.49999998660252726 0.24999999330126363 0 0.43301270575973649 1 I I #
face $-1 $-1 $334 $32 $-1 $335 reversed single #
loop $-1 $-1 $157 $151 #
plane-surface $-1 0 0 7.6932562585689013 0 0 1 1 0 0 forward_v I I I I #
coedge $-1 $336 $337 $338 $339 reversed $152 $-1 #
coedge $-1 $340 $154 $156 $247 forward $95 $-1 #
coedge $-1 $154 $340 $336 $341 forward $95 $-1 #
coedge $-1 $338 $157 $154 $244 forward $238 $-1 #
edge $-1 $250 0.82620502594955703 $342 11.217099777406396 $243 $343 forward 7 unknown #
coedge $-1 $344 $345 $155 $246 forward $334 $-1 #
edge $-1 $346 -87.71133127563165 $249 -80.243091209641079 $245 $347 forward 7 unknown #
edge $-1 $250 119.95944485710733 $346 128.58302560502938 $156 $348 forward 7 unknown #
coedge $-1 $157 $338 $344 $349 forward $238 $-1 #
vertex $-1 $158 $350 #
vertex $-1 $158 $351 #
straight-curve $-1 55.678084693351082 -6.8478574276275328 7.6932562585688942 -1 0 0 I I #
coedge $-1 $252 $252 $-1 $352 reversed $161 $-1 #
edge $-1 $353 0 $353 6.2831853071796004 $162 $354 forward 7 unknown #
vertex $-1 $165 $355 #
ellipse-curve $-1 62.135617673301311 -15.160573228793002 3.959136225573598 0.86602541151947299 0 0.49999998660252726 0.24999999330126363 0 -0.43301270575973649 1 I I #
coedge $-1 $256 $256 $-1 $356 reversed $168 $-1 #
edge $-1 $357 0 $357 6.2831853071796004 $169 $358 forward 7 unknown #
vertex $-1 $172 $359 #
ellipse-curve $-1 62.135617673301311 -12.043304803355952 3.959136225573598 0.86602541151947299 0 0.49999998660252726 0.24999999330126363 0 -0.43301270575973649 1 I I #
coedge $-1 $260 $260 $-1 $360 reversed $175 $-1 #
edge $-1 $361 0 $361 6.2831853071796004 $176 $362 forward 7 unknown #
vertex $-1 $179 $363 #
ellipse-curve $-1 62.135617673301311 -8.9260363779189014 3.959136225573598 0.86602541151947299 0 0.49999998660252726 0.24999999330126363 0 -0.43301270575973649 1 I I #
face $-1 $-1 $276 $27 $-1 $364 reversed single #
loop $-1 $-1 $365 $180 #
plane-surface $-1 0 28.084640852118135 0 0 -1 0 0 0 -1 forward_v I I I I #
coedge $-1 $282 $281 $366 $367 forward $181 $-1 #
coedge $-1 $183 $193 $368 $369 forward $114 $-1 #
coedge $-1 $275 $189 $183 $270 reversed $276 $-1 #
edge $-1 $370 -28.084640852118135 $194 28.084640852118135 $269 $371 forward 7 unknown #
coedge $-1 $185 $184 $281 $372 forward $73 $-1 #
coedge $-1 $365 $366 $184 $273 reversed $265 $-1 #
edge $-1 $278 -64.291512802514717 $373 64.291512802514717 $272 $374 forward 7 unknown #
edge $-1 $283 -64.291512802514717 $277 64.291512802514717 $188 $375 forward 7 unknown #
coedge $-1 $186 $269 $365 $376 reversed $276 $-1 #
loop $-1 $-1 $189 $264 #
vertex $-1 $187 $377 #
vertex $-1 $187 $378 #
straight-curve $-1 64.291512802514717 0 7.6932562585689013 0 1 0 I I #
straight-curve $-1 64.291512802514717 -28.084640852118135 0 0 0 -1 I I #
coedge $-1 $267 $191 $271 $372 reversed $181 $-1 #
coedge $-1 $191 $267 $193 $285 reversed $181 $-1 #
vertex $-1 $372 $379 #
straight-curve $-1 -64.291512802514717 -28.084640852118135 0 0 0 -1 I I #
edge $-1 $195 -28.084640852118135 $380 28.084640852118135 $282 $381 forward 7 unknown #
point $-1 64.291512802514717 -28.084640852118135 -7.6932562585689013 #
point $-1 -64.291512802514717 -28.084640852118135 -7.6932562585689013 #
face $-1 $-1 $301 $28 $-1 $382 reversed single #
plane-surface $-1 -60.661569331607083 -30.822460549997736 0 -1 0 0 0 0 1 forward_v I I I I #
coedge $-1 $383 $384 $385 $386 forward $198 $-1 #
coedge $-1 $385 $200 $300 $387 reversed $122 $-1 #
coedge $-1 $200 $385 $201 $295 reversed $122 $-1 #
edge $-1 $297 -7.6932562585689013 $302 7.6932562585689013 $200 $388 forward 7 unknown #
coedge $-1 $202 $201 $384 $389 forward $77 $-1 #
edge $-1 $297 28.084640852118135 $390 33.560280247877337 $292 $391 forward 7 unknown #
edge $-1 $392 -2.7378196978796012 $210 2.7378196978796012 $207 $393 forward 7 unknown #
vertex $-1 $295 $394 #
straight-curve $-1 0 -28.084640852118135 7.6932562585689013 -1 0 0 I I #
coedge $-1 $395 $205 $208 $305 forward $301 $-1 #
coedge $-1 $205 $395 $291 $387 forward $301 $-1 #
loop $-1 $-1 $205 $288 #
vertex $-1 $293 $396 #
straight-curve $-1 0 -28.084640852118135 -7.6932562585689013 1 0 0 I I #
coedge $-1 $208 $207 $397 $398 forward $209 $-1 #
edge $-1 $211 -2.7378196978796012 $399 2.7378196978796012 $208 $400 forward 7 unknown #
point $-1 -60.661569331607083 -28.084640852118135 7.6932562585689013 #
point $-1 -60.661569331607083 -28.084640852118135 -7.6932562585689013 #
plane-surface $-1 0 0 7.6932562585689013 0 0 1 1 0 0 forward_v I I I I #
coedge $-1 $319 $318 $311 $401 forward $214 $-1 #
coedge $-1 $311 $216 $218 $315 reversed $130 $-1 #
coedge $-1 $216 $310 $309 $401 reversed $130 $-1 #
coedge $-1 $224 $219 $216 $313 forward $225 $-1 #
edge $-1 $316 -27.894892149390287 $402 -23.53232743074993 $312 $403 forward 7 unknown #
coedge $-1 $218 $217 $319 $404 reversed $81 $-1 #
edge $-1 $405 5.6852552285839104e-014 $316 8.7251296710701425 $310 $406 forward 7 unknown #
vertex $-1 $220 $407 #
straight-curve $-1 -59.92894808387436 5.4289367928315464 7.6932562585689013 0 1 0 I I #
coedge $-1 $309 $221 $224 $323 reversed $214 $-1 #
coedge $-1 $221 $309 $314 $404 forward $214 $-1 #
vertex $-1 $222 $408 #
straight-curve $-1 -64.291512802514717 7.4249664903274599 32.214291662223374 0 0 1 I I #
straight-curve $-1 -64.291512802514745 7.4249664903274599 0.13707224461961687 -0.49999998660252726 0 -0.86602541151947299 I I #
edge $-1 $402 -14.290780680998726 $226 -7.4249664903274599 $318 $409 forward 7 unknown #
point $-1 -64.291512802514717 7.4249664903274599 7.6932562585689013 #
point $-1 -59.92894808387436 7.4249664903274599 7.6932562585689013 #
edge $-1 $410 1 $410 0 $229 $-1 forward 7 unknown #
vertex $-1 $230 $411 #
ellipse-curve $-1 -60.536520580280488 9.3866276876621129 3.0065824710750015 -0.86602541151947299 0 0.49999998660252726 0.24999999330126363 0 0.43301270575973649 1 I I #
point $-1 -61.860230449893251 9.3866276876621129 4.3481769573539886 #
edge $-1 $412 1 $412 0 $233 $-1 forward 7 unknown #
vertex $-1 $234 $413 #
ellipse-curve $-1 -60.536520580280488 12.32911948366408 3.0065824710750015 -0.86602541151947299 0 0.49999998660252726 0.24999999330126363 0 0.43301270575973649 1 I I #
point $-1 -61.860230449893251 12.32911948366408 4.3481769573539886 #
loop $-1 $-1 $245 $237 #
plane-surface $-1 64.291512802514717 0 0 -1 0 0 0 0 1 forward_v I I I I #
coedge $-1 $337 $240 $242 $341 reversed $152 $-1 #
coedge $-1 $240 $336 $414 $415 reversed $152 $-1 #
coedge $-1 $248 $243 $240 $339 forward $238 $-1 #
edge $-1 $342 4.3016378507368032 $416 8.6134281091636353 $338 $417 forward 7 unknown #
coedge $-1 $242 $241 $345 $418 reversed $95 $-1 #
edge $-1 $419 -128.58302560502938 $342 -119.95944485710733 $336 $420 forward 7 unknown #
vertex $-1 $244 $421 #
straight-curve $-1 59.979722544087885 -6.0216524016779758 7.6932562585689084 0 -1 0 I I #
coedge $-1 $414 $245 $248 $349 reversed $334 $-1 #
coedge $-1 $245 $414 $340 $418 forward $334 $-1 #
vertex $-1 $246 $422 #
straight-curve $-1 64.291512802514717 -6.8478574276275328 87.936347468209973 0 0 1 I I #
straight-curve $-1 1.7226876138920488e-006 -6.8478574276275328 111.58118385659282 0.49999998660252726 0 -0.86602541151947299 I I #
edge $-1 $416 -17.238752179084372 $249 -6.8478574276275328 $344 $423 forward 7 unknown #
point $-1 64.291512802514717 -6.8478574276275328 7.6932562585689013 #
point $-1 59.979722544087885 -6.8478574276275328 7.6932562585689084 #
edge $-1 $424 1 $424 0 $252 $-1 forward 7 unknown #
vertex $-1 $253 $425 #
ellipse-curve $-1 61.045573236908048 -15.160573228793002 3.3297987992773792 0.86602541151947299 0 0.49999998660252726 0.24999999330126363 0 -0.43301270575973649 1 I I #
point $-1 62.385617666602563 -15.160573228793002 3.5261235198138565 #
edge $-1 $426 1 $426 0 $256 $-1 forward 7 unknown #
vertex $-1 $257 $427 #
ellipse-curve $-1 61.045573236908048 -12.043304803355952 3.3297987992773792 0.86602541151947299 0 0.49999998660252726 0.24999999330126363 0 -0.43301270575973649 1 I I #
point $-1 62.385617666602563 -12.043304803355952 3.5261235198138565 #
edge $-1 $428 1 $428 0 $260 $-1 forward 7 unknown #
vertex $-1 $261 $429 #
ellipse-curve $-1 61.045573236908048 -8.9260363779189014 3.3297987992773792 0.86602541151947299 0 0.49999998660252726 0.24999999330126363 0 -0.43301270575973649 1 I I #
point $-1 62.385617666602563 -8.9260363779189014 3.5261235198138565 #
plane-surface $-1 64.291512802514717 0 0 -1 0 0 0 0 1 forward_v I I I I #
coedge $-1 $368 $272 $275 $376 forward $265 $-1 #
coedge $-1 $272 $368 $267 $367 reversed $265 $-1 #
edge $-1 $373 -7.6932562585689013 $380 7.6932562585689013 $366 $430 forward 7 unknown #
coedge $-1 $366 $365 $268 $369 reversed $265 $-1 #
edge $-1 $380 -64.291512802514717 $370 64.291512802514717 $368 $431 forward 7 unknown #
vertex $-1 $270 $432 #
straight-curve $-1 64.291512802514717 0 -7.6932562585689013 0 -1 0 I I #
edge $-1 $373 -28.084640852118135 $283 28.084640852118135 $281 $433 forward 7 unknown #
vertex $-1 $273 $434 #
straight-curve $-1 0 28.084640852118135 7.6932562585689013 -1 0 0 I I #
straight-curve $-1 0 -28.084640852118135 7.6932562585689013 1 0 0 I I #
edge $-1 $278 -7.6932562585689013 $370 7.6932562585689013 $275 $435 forward 7 unknown #
point $-1 64.291512802514717 -28.084640852118135 7.6932562585689013 #
point $-1 64.291512802514717 28.084640852118135 7.6932562585689013 #
point $-1 -64.291512802514717 -28.084640852118135 7.6932562585689013 #
vertex $-1 $369 $436 #
straight-curve $-1 -64.291512802514717 0 -7.6932562585689013 0 1 0 I I #
plane-surface $-1 0 0 -7.6932562585689013 0 0 1 1 0 0 forward_v I I I I #
coedge $-1 $397 $290 $395 $437 reversed $198 $-1 #
coedge $-1 $290 $397 $294 $389 reversed $198 $-1 #
coedge $-1 $292 $291 $290 $386 reversed $122 $-1 #
edge $-1 $390 -7.6932562585689013 $438 7.6932562585689013 $385 $439 forward 7 unknown #
edge $-1 $438 -33.560280247877337 $302 -28.084640852118135 $291 $440 forward 7 unknown #
straight-curve $-1 -64.291512802514717 -28.084640852118135 0 0 0 -1 I I #
edge $-1 $390 -1.8149717354538168 $392 1.8149717354538168 $384 $441 forward 7 unknown #
vertex $-1 $295 $442 #
straight-curve $-1 -64.291512802514717 0 7.6932562585689013 0 -1 0 I I #
vertex $-1 $296 $443 #
straight-curve $-1 -60.661569331607083 -30.822460549997736 7.6932562585689013 0 1 0 I I #
point $-1 -64.291512802514717 -28.084640852118135 7.6932562585689013 #
coedge $-1 $300 $299 $383 $437 forward $301 $-1 #
point $-1 -64.291512802514717 -28.084640852118135 -7.6932562585689013 #
coedge $-1 $384 $383 $304 $398 reversed $198 $-1 #
edge $-1 $392 -7.6932562585689013 $399 7.6932562585689013 $304 $444 forward 7 unknown #
vertex $-1 $398 $445 #
straight-curve $-1 -60.661569331607083 -30.822460549997736 -7.6932562585689013 0 -1 0 I I #
edge $-1 $402 24.521035403654473 $405 32.077219417603708 $309 $446 forward 7 unknown #
vertex $-1 $323 $447 #
straight-curve $-1 -87.823840233264647 14.290780680998726 7.6932562585689013 -1 0 0 I I #
edge $-1 $405 -8.8618438881671793 $320 -1.9960296974959135 $319 $448 forward 7 unknown #
vertex $-1 $404 $449 #
straight-curve $-1 -64.291512802514745 14.290780680998726 0.13707224461961687 0.49999998660252726 0 0.86602541151947299 I I #
point $-1 -59.92894808387436 14.290780680998726 7.6932562585689013 #
point $-1 -64.291512802514717 7.4249664903274599 0.13707224461966611 #
straight-curve $-1 -64.291512802514717 0 7.6932562585689013 0 -1 0 I I #
vertex $-1 $326 $450 #
point $-1 -60.286520586979222 9.3866276876621129 3.4395951768347381 #
vertex $-1 $330 $451 #
point $-1 -60.286520586979222 12.32911948366408 3.4395951768347381 #
coedge $-1 $345 $344 $337 $415 forward $334 $-1 #
edge $-1 $416 80.243091209641079 $419 87.71133127563165 $414 $452 forward 7 unknown #
vertex $-1 $349 $453 #
straight-curve $-1 55.678084693351082 -17.238752179084372 7.6932562585688942 1 0 0 I I #
edge $-1 $419 -11.217099777406396 $346 -0.82620502594955703 $345 $454 forward 7 unknown #
vertex $-1 $418 $455 #
straight-curve $-1 1.7226876138920488e-006 -17.238752179084372 111.58118385659282 -0.49999998660252726 0 0.86602541151947299 I I #
point $-1 59.979722544087885 -17.238752179084372 7.6932562585689084 #
point $-1 64.291512802514717 -6.8478574276275328 0.22501619257832317 #
straight-curve $-1 64.291512802514717 0 7.6932562585689013 0 1 0 I I #
vertex $-1 $352 $456 #
point $-1 61.295573230209314 -15.160573228793002 2.896786093517643 #
vertex $-1 $356 $457 #
point $-1 61.295573230209314 -12.043304803355952 2.896786093517643 #
vertex $-1 $360 $458 #
point $-1 61.295573230209314 -8.9260363779189014 2.896786093517643 #
straight-curve $-1 -64.291512802514717 28.084640852118135 0 0 0 -1 I I #
straight-curve $-1 0 28.084640852118135 -7.6932562585689013 1 0 0 I I #
point $-1 64.291512802514717 28.084640852118135 -7.6932562585689013 #
straight-curve $-1 -64.291512802514717 0 7.6932562585689013 0 -1 0 I I #
point $-1 -64.291512802514717 28.084640852118135 7.6932562585689013 #
straight-curve $-1 64.291512802514717 28.084640852118135 0 0 0 -1 I I #
point $-1 -64.291512802514717 28.084640852118135 -7.6932562585689013 #
edge $-1 $399 -1.8149717354538168 $438 1.8149717354538168 $383 $459 forward 7 unknown #
vertex $-1 $387 $460 #
straight-curve $-1 -64.291512802514717 -33.560280247877337 0 0 0 -1 I I #
straight-curve $-1 -64.291512802514717 0 -7.6932562585689013 0 1 0 I I #
straight-curve $-1 -62.4765410670609 -33.560280247877337 7.6932562585689013 1 0 0 I I #
point $-1 -64.291512802514717 -33.560280247877337 7.6932562585689013 #
point $-1 -60.661569331607083 -33.560280247877337 7.6932562585689013 #
straight-curve $-1 -60.661569331607083 -33.560280247877337 0 0 0 -1 I I #
point $-1 -60.661569331607083 -33.560280247877337 -7.6932562585689013 #
straight-curve $-1 -64.291512802514717 14.290780680998726 32.214291662223374 0 0 -1 I I #
point $-1 -64.291512802514717 14.290780680998726 7.6932562585689013 #
straight-curve $-1 -64.291512802514717 5.4289367928315464 0.13707224461967121 0 -1 0 I I #
point $-1 -64.291512802514717 14.290780680998726 0.13707224461966611 #
point $-1 -60.103507874520751 9.3866276876621129 2.7565824777737382 #
point $-1 -60.103507874520751 12.32911948366408 2.7565824777737382 #
straight-curve $-1 64.291512802514717 -17.238752179084372 87.936347468209973 0 0 -1 I I #
point $-1 64.291512802514717 -17.238752179084372 7.6932562585689013 #
straight-curve $-1 64.291512802514717 -6.0216524016779758 0.22501619257831607 0 1 0 I I #
point $-1 64.291512802514717 -17.238752179084372 0.22501619257832317 #
point $-1 60.612560531148311 -15.160573228793002 3.0797988059761159 #
point $-1 60.612560531148311 -12.043304803355952 3.0797988059761159 #
point $-1 60.612560531148311 -8.9260363779189014 3.0797988059761159 #
straight-curve $-1 -62.4765410670609 -33.560280247877337 -7.6932562585689013 -1 0 0 I I #
point $-1 -64.291512802514717 -33.560280247877337 -7.6932562585689013 #
End-of-ACIS-data 