500 0 8 0           
7 Unknown 11 ACIS 5.0 NT 24 Fri Mar 26 18:22:18 1999 
-1 9.9999999999999995e-007 1e-010 
body $-1 $8 $-1 $9 #
body $-1 $10 $-1 $11 #
body $-1 $12 $-1 $13 #
body $-1 $14 $-1 $15 #
body $-1 $16 $-1 $17 #
body $-1 $18 $-1 $19 #
body $-1 $20 $-1 $21 #
body $-1 $22 $-1 $23 #
lump $-1 $-1 $24 $0 #
transform $-1 1 0 0 0 1 0 0 0 1 67.526474806970427 28.193287267425163 7.0010418969568491 1 rotate no_reflect no_shear #
lump $-1 $-1 $25 $1 #
transform $-1 1 0 0 0 1 0 0 0 1 67.526474806970427 28.193287267425163 7.0010418969568491 1 rotate no_reflect no_shear #
lump $-1 $-1 $26 $2 #
transform $-1 1 0 0 0 1 0 0 0 1 67.526474806970427 28.193287267425163 7.0010418969568491 1 rotate no_reflect no_shear #
lump $-1 $-1 $27 $3 #
transform $-1 1 0 0 0 1 0 0 0 1 67.526474806970427 28.193287267425163 7.0010418969568491 1 rotate no_reflect no_shear #
lump $-1 $-1 $28 $4 #
transform $-1 1 0 0 0 1 0 0 0 1 67.526474806970427 28.193287267425163 7.0010418969568491 1 rotate no_reflect no_shear #
lump $-1 $-1 $29 $5 #
transform $-1 1 0 0 0 1 0 0 0 1 67.526474806970427 28.193287267425163 7.0010418969568491 1 rotate no_reflect no_shear #
lump $-1 $-1 $30 $6 #
transform $-1 1 0 0 0 1 0 0 0 1 67.526474806970427 28.193287267425163 7.0010418969568491 1 rotate no_reflect no_shear #
lump $-1 $-1 $31 $7 #
transform $-1 1 0 0 0 1 0 0 0 1 67.526474806970427 28.193287267425163 7.0010418969568491 1 rotate no_reflect no_shear #
shell $-1 $-1 $-1 $32 $-1 $8 #
shell $-1 $-1 $-1 $33 $-1 $10 #
shell $-1 $-1 $-1 $34 $-1 $12 #
shell $-1 $-1 $-1 $35 $-1 $14 #
shell $-1 $-1 $-1 $36 $-1 $16 #
shell $-1 $-1 $-1 $37 $-1 $18 #
shell $-1 $-1 $-1 $38 $-1 $20 #
shell $-1 $-1 $-1 $39 $-1 $22 #
face $-1 $40 $41 $24 $-1 $42 forward single #
face $-1 $43 $44 $25 $-1 $45 forward single #
face $-1 $46 $47 $26 $-1 $48 reversed single #
face $-1 $49 $50 $27 $-1 $51 forward single #
face $-1 $52 $53 $28 $-1 $54 forward single #
face $-1 $55 $56 $29 $-1 $57 reversed single #
face $-1 $58 $59 $30 $-1 $60 forward single #
face $-1 $61 $62 $31 $-1 $63 forward single #
face $-1 $64 $65 $24 $-1 $66 reversed single #
loop $-1 $-1 $67 $32 #
plane-surface $-1 0 0 7.0010418969568491 0 0 1 1 0 0 forward_v I I I I #
face $-1 $68 $69 $25 $-1 $70 reversed single #
loop $-1 $-1 $71 $33 #
plane-surface $-1 -64.499555636768761 0 -0.57543704729403466 0 0 1 1 0 0 forward_v I I I I #
face $-1 $72 $73 $26 $-1 $74 reversed single #
loop $-1 $-1 $75 $34 #
plane-surface $-1 57.530638267085209 -19.850277965207344 191.78732357733713 0 -1 0 -0.66913061440640931 0 -0.74314481823134659 forward_v I I I I #
face $-1 $76 $77 $27 $-1 $78 forward single #
loop $-1 $79 $80 $35 #
cone-surface $-1 63.813019205452314 -24.192648176666211 3.5708713950944722 -0.66913061440640931 0 -0.74314481823134659 0.3715724091156733 0 -0.33456530720320465 1 I I 0 1 0.5 forward I I I I #
face $-1 $81 $82 $28 $-1 $83 forward single #
loop $-1 $84 $85 $36 #
cone-surface $-1 63.813019205452314 -21.587226049790889 3.5708713950944722 -0.66913061440640931 0 -0.74314481823134659 0.3715724091156733 0 -0.33456530720320465 1 I I 0 1 0.5 forward I I I I #
face $-1 $86 $87 $29 $-1 $88 reversed single #
loop $-1 $-1 $89 $37 #
plane-surface $-1 57.530638267085209 25.929596261249753 191.78732357733713 0 -1 0 -0.66913061440640931 0 -0.74314481823134659 forward_v I I I I #
face $-1 $90 $91 $30 $-1 $92 forward single #
loop $-1 $93 $94 $38 #
cone-surface $-1 63.813019205452314 21.587226049790885 3.5708713950944722 -0.66913061440640931 0 -0.74314481823134659 0.3715724091156733 0 -0.33456530720320465 1 I I 0 1 0.5 forward I I I I #
face $-1 $95 $96 $31 $-1 $97 forward single #
loop $-1 $98 $99 $39 #
cone-surface $-1 63.813019205452314 24.192648176666211 3.5708713950944722 -0.66913061440640931 0 -0.74314481823134659 0.3715724091156733 0 -0.33456530720320465 1 I I 0 1 0.5 forward I I I I #
face $-1 $100 $101 $24 $-1 $102 reversed single #
loop $-1 $-1 $103 $40 #
plane-surface $-1 0 0 -7.0010418969568491 0 0 1 1 0 0 forward_v I I I I #
coedge $-1 $104 $105 $106 $107 forward $41 $-1 #
face $-1 $108 $109 $25 $-1 $110 reversed single #
loop $-1 $-1 $111 $43 #
plane-surface $-1 -64.499555636768761 0 -4.0007278296932185 0 0 1 1 0 0 forward_v I I I I #
coedge $-1 $112 $113 $114 $115 forward $44 $-1 #
face $-1 $116 $117 $26 $-1 $118 reversed single #
loop $-1 $-1 $119 $46 #
plane-surface $-1 -32.837424885488872 -22.889937113228548 91.423423884877849 0.66913061440640931 0 0.74314481823134659 0.74314481823134659 0 -0.66913061440640931 forward_v I I I I #
coedge $-1 $120 $121 $122 $123 reversed $47 $-1 #
face $-1 $-1 $124 $27 $-1 $125 forward single #
loop $-1 $126 $127 $49 #
cone-surface $-1 63.233954833754709 -24.192648176666211 2.9277552710008052 -0.66913061440640931 0 -0.74314481823134659 0.18578620455783665 0 -0.16728265360160233 1 I I -0.70710678118654746 0.70710678118654746 0.25 forward I I I I #
loop $-1 $-1 $128 $35 #
coedge $-1 $80 $80 $129 $130 reversed $50 $-1 #
face $-1 $-1 $131 $28 $-1 $132 forward single #
loop $-1 $133 $134 $52 #
cone-surface $-1 63.233954833754709 -21.587226049790889 2.9277552710008052 -0.66913061440640931 0 -0.74314481823134659 0.18578620455783665 0 -0.16728265360160233 1 I I -0.70710678118654746 0.70710678118654746 0.25 forward I I I I #
loop $-1 $-1 $135 $36 #
coedge $-1 $85 $85 $136 $137 reversed $53 $-1 #
face $-1 $138 $139 $29 $-1 $140 reversed single #
loop $-1 $-1 $141 $55 #
plane-surface $-1 -32.837424885488872 22.889937113228548 91.423423884877849 0.66913061440640931 0 0.74314481823134659 0.74314481823134659 0 -0.66913061440640931 forward_v I I I I #
coedge $-1 $142 $143 $144 $145 reversed $56 $-1 #
face $-1 $-1 $146 $30 $-1 $147 forward single #
loop $-1 $148 $149 $58 #
cone-surface $-1 63.233954833754709 21.587226049790885 2.9277552710008052 -0.66913061440640931 0 -0.74314481823134659 0.18578620455783665 0 -0.16728265360160233 1 I I -0.70710678118654746 0.70710678118654746 0.25 forward I I I I #
loop $-1 $-1 $150 $38 #
coedge $-1 $94 $94 $151 $152 reversed $59 $-1 #
face $-1 $-1 $153 $31 $-1 $154 forward single #
loop $-1 $155 $156 $61 #
cone-surface $-1 63.233954833754709 24.192648176666211 2.9277552710008052 -0.66913061440640931 0 -0.74314481823134659 0.18578620455783665 0 -0.16728265360160233 1 I I -0.70710678118654746 0.70710678118654746 0.25 forward I I I I #
loop $-1 $-1 $157 $39 #
coedge $-1 $99 $99 $158 $159 reversed $62 $-1 #
face $-1 $160 $161 $24 $-1 $162 reversed single #
loop $-1 $-1 $163 $64 #
plane-surface $-1 0 -28.193287267425163 0 0 1 0 0 0 1 forward_v I I I I #
coedge $-1 $164 $165 $166 $167 forward $65 $-1 #
coedge $-1 $168 $67 $169 $170 forward $41 $-1 #
coedge $-1 $67 $168 $171 $172 forward $41 $-1 #
coedge $-1 $173 $174 $67 $107 reversed $175 $-1 #
edge $-1 $176 -28.193287267425163 $177 28.193287267425163 $106 $178 forward 7 unknown #
face $-1 $179 $180 $25 $-1 $181 reversed single #
loop $-1 $-1 $182 $68 #
plane-surface $-1 -61.472636466567096 0 -2.2880824384936265 -1 0 0 0 0 1 forward_v I I I I #
coedge $-1 $183 $184 $185 $186 forward $69 $-1 #
coedge $-1 $187 $71 $188 $189 reversed $44 $-1 #
coedge $-1 $71 $187 $190 $191 reversed $44 $-1 #
coedge $-1 $182 $192 $71 $115 reversed $109 $-1 #
edge $-1 $193 -28.193287267425163 $194 28.193287267425163 $114 $195 forward 7 unknown #
face $-1 $196 $197 $26 $-1 $198 reversed single #
loop $-1 $-1 $199 $72 #
plane-surface $-1 57.530638267085209 -25.929596261249753 191.78732357733713 0 1 0 0.66913061440640931 0 0.74314481823134659 forward_v I I I I #
coedge $-1 $200 $201 $202 $203 reversed $73 $-1 #
coedge $-1 $121 $75 $204 $205 reversed $47 $-1 #
coedge $-1 $75 $120 $200 $206 reversed $47 $-1 #
coedge $-1 $202 $207 $75 $123 forward $208 $-1 #
edge $-1 $209 -38.761155673427822 $210 -32.157807906583599 $122 $211 forward 7 unknown #
loop $-1 $-1 $129 $76 #
plane-surface $-1 -32.837424885488872 -22.889937113228548 91.423423884877849 0.66913061440640931 0 0.74314481823134659 0.74314481823134659 0 -0.66913061440640931 forward_v I I I I #
loop $-1 $-1 $212 $49 #
coedge $-1 $127 $127 $128 $213 reversed $77 $-1 #
coedge $-1 $128 $128 $127 $213 forward $79 $-1 #
coedge $-1 $129 $129 $80 $130 forward $124 $-1 #
edge $-1 $214 0 $214 6.2831853071796004 $129 $215 forward 7 unknown #
loop $-1 $-1 $136 $81 #
plane-surface $-1 -32.837424885488872 -22.889937113228548 91.423423884877849 0.66913061440640931 0 0.74314481823134659 0.74314481823134659 0 -0.66913061440640931 forward_v I I I I #
loop $-1 $-1 $216 $52 #
coedge $-1 $134 $134 $135 $217 reversed $82 $-1 #
coedge $-1 $135 $135 $134 $217 forward $84 $-1 #
coedge $-1 $136 $136 $85 $137 forward $131 $-1 #
edge $-1 $218 0 $218 6.2831853071796004 $136 $219 forward 7 unknown #
face $-1 $220 $221 $29 $-1 $222 reversed single #
loop $-1 $-1 $223 $86 #
plane-surface $-1 57.530638267085209 19.850277965207344 191.78732357733713 0 1 0 0.66913061440640931 0 0.74314481823134659 forward_v I I I I #
coedge $-1 $224 $225 $226 $227 reversed $87 $-1 #
coedge $-1 $143 $89 $228 $229 reversed $56 $-1 #
coedge $-1 $89 $142 $224 $230 reversed $56 $-1 #
coedge $-1 $226 $231 $89 $145 forward $232 $-1 #
edge $-1 $233 -38.761155673427822 $234 -32.157807906583599 $144 $235 forward 7 unknown #
loop $-1 $-1 $151 $90 #
plane-surface $-1 -32.837424885488872 22.889937113228548 91.423423884877849 0.66913061440640931 0 0.74314481823134659 0.74314481823134659 0 -0.66913061440640931 forward_v I I I I #
loop $-1 $-1 $236 $58 #
coedge $-1 $149 $149 $150 $237 reversed $91 $-1 #
coedge $-1 $150 $150 $149 $237 forward $93 $-1 #
coedge $-1 $151 $151 $94 $152 forward $146 $-1 #
edge $-1 $238 0 $238 6.2831853071796004 $151 $239 forward 7 unknown #
loop $-1 $-1 $158 $95 #
plane-surface $-1 -32.837424885488872 22.889937113228548 91.423423884877849 0.66913061440640931 0 0.74314481823134659 0.74314481823134659 0 -0.66913061440640931 forward_v I I I I #
loop $-1 $-1 $240 $61 #
coedge $-1 $156 $156 $157 $241 reversed $96 $-1 #
coedge $-1 $157 $157 $156 $241 forward $98 $-1 #
coedge $-1 $158 $158 $99 $159 forward $153 $-1 #
edge $-1 $242 0 $242 6.2831853071796004 $158 $243 forward 7 unknown #
face $-1 $244 $245 $24 $-1 $246 reversed single #
loop $-1 $-1 $247 $100 #
plane-surface $-1 -67.526474806970427 0 0 1 0 0 0 0 -1 forward_v I I I I #
coedge $-1 $248 $171 $249 $250 forward $101 $-1 #
coedge $-1 $251 $103 $248 $252 forward $65 $-1 #
coedge $-1 $103 $251 $253 $254 forward $65 $-1 #
coedge $-1 $174 $173 $103 $167 reversed $175 $-1 #
edge $-1 $255 -28.193287267425163 $256 28.193287267425163 $166 $257 forward 7 unknown #
coedge $-1 $105 $104 $258 $259 forward $41 $-1 #
coedge $-1 $260 $261 $104 $170 reversed $245 $-1 #
edge $-1 $177 -67.526474806970427 $262 67.526474806970427 $169 $263 forward 7 unknown #
coedge $-1 $163 $264 $105 $172 reversed $101 $-1 #
edge $-1 $265 -67.526474806970427 $176 67.526474806970427 $171 $266 forward 7 unknown #
coedge $-1 $166 $106 $264 $267 forward $175 $-1 #
coedge $-1 $106 $166 $260 $268 reversed $175 $-1 #
loop $-1 $-1 $173 $244 #
vertex $-1 $107 $269 #
vertex $-1 $107 $270 #
straight-curve $-1 67.526474806970427 0 7.0010418969568491 0 1 0 I I #
face $-1 $271 $272 $25 $-1 $273 reversed single #
loop $-1 $-1 $274 $108 #
plane-surface $-1 0 -28.193287267425163 0 0 1 0 0 0 1 forward_v I I I I #
coedge $-1 $185 $114 $275 $276 reversed $109 $-1 #
coedge $-1 $277 $111 $274 $278 reversed $69 $-1 #
coedge $-1 $111 $277 $279 $280 reversed $69 $-1 #
coedge $-1 $192 $182 $111 $186 reversed $109 $-1 #
edge $-1 $281 -28.193287267425163 $282 28.193287267425163 $185 $283 forward 7 unknown #
coedge $-1 $113 $112 $284 $285 reversed $44 $-1 #
coedge $-1 $286 $287 $112 $189 forward $288 $-1 #
edge $-1 $289 -35.276696988586046 $194 -29.222858648182715 $188 $290 forward 7 unknown #
coedge $-1 $291 $275 $113 $191 forward $180 $-1 #
edge $-1 $193 29.222858648182715 $292 35.276696988586046 $190 $293 forward 7 unknown #
coedge $-1 $114 $185 $286 $294 reversed $109 $-1 #
vertex $-1 $191 $295 #
vertex $-1 $189 $296 #
straight-curve $-1 -61.472636466567096 0 -0.57543704729403466 0 1 0 I I #
face $-1 $-1 $208 $26 $-1 $297 forward single #
loop $-1 $-1 $298 $116 #
plane-surface $-1 67.526474806970427 0 0 -1 0 0 0 0 1 forward_v I I I I #
coedge $-1 $299 $300 $301 $302 reversed $117 $-1 #
coedge $-1 $303 $119 $121 $206 forward $73 $-1 #
coedge $-1 $119 $303 $299 $304 forward $73 $-1 #
coedge $-1 $301 $122 $119 $203 forward $208 $-1 #
edge $-1 $210 8.4053094085930695 $305 14.484627704635479 $202 $306 forward 7 unknown #
coedge $-1 $307 $308 $120 $205 forward $197 $-1 #
edge $-1 $309 -94.838301056364813 $209 -88.892619891711718 $204 $310 forward 7 unknown #
edge $-1 $210 126.16726864726212 $309 135.05294961394088 $121 $311 forward 7 unknown #
coedge $-1 $122 $301 $307 $312 forward $208 $-1 #
loop $-1 $-1 $301 $196 #
vertex $-1 $205 $313 #
vertex $-1 $123 $314 #
straight-curve $-1 28.765319133542604 -19.850277965207344 7.0010418969568491 -1 0 0 I I #
coedge $-1 $212 $212 $-1 $315 reversed $126 $-1 #
edge $-1 $316 0 $316 6.2831853071796004 $127 $317 forward 7 unknown #
vertex $-1 $130 $318 #
ellipse-curve $-1 64.224800923548315 -24.192648176666211 4.0282013146303051 0.66913061440640931 0 0.74314481823134659 0.3715724091156733 0 -0.33456530720320465 1 I I #
coedge $-1 $216 $216 $-1 $319 reversed $133 $-1 #
edge $-1 $320 0 $320 6.2831853071796004 $134 $321 forward 7 unknown #
vertex $-1 $137 $322 #
ellipse-curve $-1 64.224800923548315 -21.587226049790889 4.0282013146303051 0.66913061440640931 0 0.74314481823134659 0.3715724091156733 0 -0.33456530720320465 1 I I #
face $-1 $-1 $232 $29 $-1 $323 forward single #
loop $-1 $-1 $324 $138 #
plane-surface $-1 67.526474806970427 0 0 -1 0 0 0 0 1 forward_v I I I I #
coedge $-1 $325 $326 $327 $328 reversed $139 $-1 #
coedge $-1 $329 $141 $143 $230 forward $87 $-1 #
coedge $-1 $141 $329 $325 $330 forward $87 $-1 #
coedge $-1 $327 $144 $141 $227 forward $232 $-1 #
edge $-1 $234 -14.484627704635479 $331 -8.4053094085930695 $226 $332 forward 7 unknown #
coedge $-1 $333 $334 $142 $229 forward $221 $-1 #
edge $-1 $335 -94.838301056364813 $233 -88.892619891711718 $228 $336 forward 7 unknown #
edge $-1 $234 126.16726864726212 $335 135.05294961394088 $143 $337 forward 7 unknown #
coedge $-1 $144 $327 $333 $338 forward $232 $-1 #
loop $-1 $-1 $327 $220 #
vertex $-1 $229 $339 #
vertex $-1 $145 $340 #
straight-curve $-1 28.765319133542604 25.929596261249753 7.0010418969568491 -1 0 0 I I #
coedge $-1 $236 $236 $-1 $341 reversed $148 $-1 #
edge $-1 $342 0 $342 6.2831853071796004 $149 $343 forward 7 unknown #
vertex $-1 $152 $344 #
ellipse-curve $-1 64.224800923548315 21.587226049790885 4.0282013146303051 0.66913061440640931 0 0.74314481823134659 0.3715724091156733 0 -0.33456530720320465 1 I I #
coedge $-1 $240 $240 $-1 $345 reversed $155 $-1 #
edge $-1 $346 0 $346 6.2831853071796004 $156 $347 forward 7 unknown #
vertex $-1 $159 $348 #
ellipse-curve $-1 64.224800923548315 24.192648176666211 4.0282013146303051 0.66913061440640931 0 0.74314481823134659 0.3715724091156733 0 -0.33456530720320465 1 I I #
face $-1 $-1 $175 $24 $-1 $349 reversed single #
loop $-1 $-1 $260 $160 #
plane-surface $-1 0 28.193287267425163 0 0 -1 0 0 0 -1 forward_v I I I I #
coedge $-1 $350 $258 $261 $351 forward $161 $-1 #
coedge $-1 $264 $163 $164 $252 reversed $101 $-1 #
coedge $-1 $258 $350 $163 $250 reversed $161 $-1 #
edge $-1 $265 -7.0010418969568491 $352 7.0010418969568491 $249 $353 forward 7 unknown #
coedge $-1 $165 $164 $350 $354 forward $65 $-1 #
edge $-1 $256 -67.526474806970427 $352 67.526474806970427 $248 $355 forward 7 unknown #
coedge $-1 $261 $260 $165 $254 reversed $245 $-1 #
edge $-1 $356 -67.526474806970427 $255 67.526474806970427 $253 $357 forward 7 unknown #
vertex $-1 $167 $358 #
vertex $-1 $267 $359 #
straight-curve $-1 67.526474806970427 0 -7.0010418969568491 0 -1 0 I I #
coedge $-1 $247 $249 $168 $259 reversed $161 $-1 #
edge $-1 $262 -28.193287267425163 $265 28.193287267425163 $258 $360 forward 7 unknown #
coedge $-1 $253 $169 $174 $268 forward $245 $-1 #
coedge $-1 $169 $253 $247 $351 reversed $245 $-1 #
vertex $-1 $170 $361 #
straight-curve $-1 0 28.193287267425163 7.0010418969568491 -1 0 0 I I #
coedge $-1 $171 $248 $173 $267 reversed $101 $-1 #
vertex $-1 $259 $362 #
straight-curve $-1 0 -28.193287267425163 7.0010418969568491 1 0 0 I I #
edge $-1 $176 -7.0010418969568491 $256 7.0010418969568491 $173 $363 forward 7 unknown #
edge $-1 $177 -7.0010418969568491 $255 7.0010418969568491 $174 $364 forward 7 unknown #
point $-1 67.526474806970427 -28.193287267425163 7.0010418969568491 #
point $-1 67.526474806970427 28.193287267425163 7.0010418969568491 #
face $-1 $-1 $288 $25 $-1 $365 reversed single #
loop $-1 $-1 $366 $179 #
plane-surface $-1 -67.526474806970427 0 0 1 0 0 0 0 -1 forward_v I I I I #
coedge $-1 $275 $291 $183 $278 forward $180 $-1 #
coedge $-1 $190 $274 $182 $276 forward $180 $-1 #
edge $-1 $282 -2.8566866104464053 $193 0.56860417195277857 $275 $367 forward 7 unknown #
coedge $-1 $184 $183 $366 $368 reversed $69 $-1 #
edge $-1 $369 -35.276696988586046 $282 -29.222858648182715 $274 $370 forward 7 unknown #
coedge $-1 $287 $286 $184 $280 forward $288 $-1 #
edge $-1 $281 29.222858648182715 $371 35.276696988586046 $279 $372 forward 7 unknown #
vertex $-1 $280 $373 #
vertex $-1 $278 $374 #
straight-curve $-1 -61.472636466567096 0 -4.0007278296932185 0 -1 0 I I #
coedge $-1 $375 $376 $187 $285 forward $272 $-1 #
edge $-1 $292 -28.193287267425163 $289 28.193287267425163 $284 $377 forward 7 unknown #
coedge $-1 $279 $188 $192 $294 forward $288 $-1 #
coedge $-1 $188 $279 $375 $378 reversed $288 $-1 #
loop $-1 $-1 $279 $271 #
vertex $-1 $378 $379 #
straight-curve $-1 -32.249777818384381 28.193287267425163 -0.57543704729403466 1 0 0 I I #
coedge $-1 $274 $190 $376 $380 forward $180 $-1 #
vertex $-1 $380 $381 #
straight-curve $-1 -32.249777818384381 -28.193287267425163 -0.57543704729403466 -1 0 0 I I #
edge $-1 $194 -0.56860417195277857 $281 2.8566866104464053 $286 $382 forward 7 unknown #
point $-1 -61.472636466567096 -28.193287267425163 -0.57543704729403466 #
point $-1 -61.472636466567096 28.193287267425163 -0.57543704729403466 #
plane-surface $-1 0 0 7.0010418969568491 0 0 1 1 0 0 forward_v I I I I #
coedge $-1 $308 $307 $300 $383 forward $197 $-1 #
coedge $-1 $300 $199 $201 $304 reversed $117 $-1 #
coedge $-1 $199 $299 $298 $383 reversed $117 $-1 #
coedge $-1 $207 $202 $199 $302 forward $208 $-1 #
edge $-1 $305 32.157807906583599 $384 38.761155673427822 $301 $385 forward 7 unknown #
coedge $-1 $201 $200 $308 $386 reversed $73 $-1 #
edge $-1 $387 -135.05294961394088 $305 -126.16726864726212 $299 $388 forward 7 unknown #
vertex $-1 $203 $389 #
straight-curve $-1 60.923127040126211 -11.444968556614274 7.001041896956842 0 -1 0 I I #
coedge $-1 $298 $204 $207 $312 reversed $197 $-1 #
coedge $-1 $204 $298 $303 $386 forward $197 $-1 #
vertex $-1 $205 $390 #
straight-curve $-1 67.526474806970427 -19.850277965207344 95.893661788668567 0 0 1 I I #
straight-curve $-1 -32.837424885488872 -19.850277965207344 91.423423884877849 0.74314481823134659 0 -0.66913061440640931 I I #
edge $-1 $384 -25.929596261249753 $209 -19.850277965207344 $307 $391 forward 7 unknown #
point $-1 67.526474806970427 -19.850277965207344 7.0010418969568491 #
point $-1 60.923127040126204 -19.850277965207344 7.0010418969568491 #
edge $-1 $392 1 $392 0 $212 $-1 forward 7 unknown #
vertex $-1 $213 $393 #
ellipse-curve $-1 63.401237487356312 -24.192648176666211 3.1135414755586419 0.66913061440640931 0 0.74314481823134659 0.3715724091156733 0 -0.33456530720320465 1 I I #
point $-1 64.596373332663987 -24.192648176666211 3.6936360074270977 #
edge $-1 $394 1 $394 0 $216 $-1 forward 7 unknown #
vertex $-1 $217 $395 #
ellipse-curve $-1 63.401237487356312 -21.587226049790889 3.1135414755586419 0.66913061440640931 0 0.74314481823134659 0.3715724091156733 0 -0.33456530720320465 1 I I #
point $-1 64.596373332663987 -21.587226049790889 3.6936360074270977 #
plane-surface $-1 0 0 7.0010418969568491 0 0 1 1 0 0 forward_v I I I I #
coedge $-1 $334 $333 $326 $396 forward $221 $-1 #
coedge $-1 $326 $223 $225 $330 reversed $139 $-1 #
coedge $-1 $223 $325 $324 $396 reversed $139 $-1 #
coedge $-1 $231 $226 $223 $328 forward $232 $-1 #
edge $-1 $331 32.157807906583599 $397 38.761155673427822 $327 $398 forward 7 unknown #
coedge $-1 $225 $224 $334 $399 reversed $87 $-1 #
edge $-1 $400 -135.05294961394088 $331 -126.16726864726212 $325 $401 forward 7 unknown #
vertex $-1 $227 $402 #
straight-curve $-1 60.923127040126211 11.444968556614274 7.001041896956842 0 -1 0 I I #
coedge $-1 $324 $228 $231 $338 reversed $221 $-1 #
coedge $-1 $228 $324 $329 $399 forward $221 $-1 #
vertex $-1 $229 $403 #
straight-curve $-1 67.526474806970427 25.929596261249753 95.893661788668567 0 0 1 I I #
straight-curve $-1 -32.837424885488872 25.929596261249753 91.423423884877849 0.74314481823134659 0 -0.66913061440640931 I I #
edge $-1 $397 19.850277965207344 $233 25.929596261249753 $333 $404 forward 7 unknown #
point $-1 67.526474806970427 25.929596261249753 7.0010418969568491 #
point $-1 60.923127040126204 25.929596261249753 7.0010418969568491 #
edge $-1 $405 1 $405 0 $236 $-1 forward 7 unknown #
vertex $-1 $237 $406 #
ellipse-curve $-1 63.401237487356312 21.587226049790885 3.1135414755586419 0.66913061440640931 0 0.74314481823134659 0.3715724091156733 0 -0.33456530720320465 1 I I #
point $-1 64.596373332663987 21.587226049790885 3.6936360074270977 #
edge $-1 $407 1 $407 0 $240 $-1 forward 7 unknown #
vertex $-1 $241 $408 #
ellipse-curve $-1 63.401237487356312 24.192648176666211 3.1135414755586419 0.66913061440640931 0 0.74314481823134659 0.3715724091156733 0 -0.33456530720320465 1 I I #
point $-1 64.596373332663987 24.192648176666211 3.6936360074270977 #
plane-surface $-1 67.526474806970427 0 0 -1 0 0 0 0 1 forward_v I I I I #
coedge $-1 $249 $247 $251 $354 reversed $161 $-1 #
edge $-1 $262 -7.0010418969568491 $356 7.0010418969568491 $261 $409 forward 7 unknown #
vertex $-1 $354 $410 #
straight-curve $-1 -67.526474806970427 -28.193287267425163 0 0 0 -1 I I #
edge $-1 $352 -28.193287267425163 $356 28.193287267425163 $350 $411 forward 7 unknown #
straight-curve $-1 0 -28.193287267425163 -7.0010418969568491 -1 0 0 I I #
vertex $-1 $254 $412 #
straight-curve $-1 0 28.193287267425163 -7.0010418969568491 1 0 0 I I #
point $-1 67.526474806970427 28.193287267425163 -7.0010418969568491 #
point $-1 67.526474806970427 -28.193287267425163 -7.0010418969568491 #
straight-curve $-1 -67.526474806970427 0 7.0010418969568491 0 -1 0 I I #
point $-1 -67.526474806970427 28.193287267425163 7.0010418969568491 #
point $-1 -67.526474806970427 -28.193287267425163 7.0010418969568491 #
straight-curve $-1 67.526474806970427 -28.193287267425163 0 0 0 -1 I I #
straight-curve $-1 67.526474806970427 28.193287267425163 0 0 0 -1 I I #
plane-surface $-1 0 28.193287267425163 0 0 -1 0 0 0 -1 forward_v I I I I #
coedge $-1 $376 $375 $277 $368 forward $272 $-1 #
straight-curve $-1 -61.472636466567096 -28.193287267425163 -1.1440412192468132 0 0 1 I I #
edge $-1 $371 -28.193287267425163 $369 28.193287267425163 $366 $413 forward 7 unknown #
vertex $-1 $278 $414 #
straight-curve $-1 -32.249777818384381 -28.193287267425163 -4.0007278296932185 1 0 0 I I #
vertex $-1 $280 $415 #
straight-curve $-1 -32.249777818384381 28.193287267425163 -4.0007278296932185 -1 0 0 I I #
point $-1 -61.472636466567096 28.193287267425163 -4.0007278296932185 #
point $-1 -61.472636466567096 -28.193287267425163 -4.0007278296932185 #
coedge $-1 $366 $284 $287 $378 forward $272 $-1 #
coedge $-1 $284 $366 $291 $380 reversed $272 $-1 #
straight-curve $-1 -67.526474806970427 0 -0.57543704729403466 0 1 0 I I #
edge $-1 $289 0.57543704729403466 $371 4.0007278296932185 $287 $416 forward 7 unknown #
point $-1 -67.526474806970427 28.193287267425163 -0.57543704729403466 #
edge $-1 $292 0.57543704729403466 $369 4.0007278296932185 $376 $417 forward 7 unknown #
point $-1 -67.526474806970427 -28.193287267425163 -0.57543704729403466 #
straight-curve $-1 -61.472636466567096 28.193287267425163 -1.1440412192468132 0 0 -1 I I #
edge $-1 $384 88.892619891711718 $387 94.838301056364813 $298 $418 forward 7 unknown #
vertex $-1 $312 $419 #
straight-curve $-1 28.765319133542604 -25.929596261249753 7.0010418969568491 1 0 0 I I #
edge $-1 $387 -14.484627704635479 $309 -8.4053094085930695 $308 $420 forward 7 unknown #
vertex $-1 $386 $421 #
straight-curve $-1 -32.837424885488872 -25.929596261249753 91.423423884877849 -0.74314481823134659 0 0.66913061440640931 I I #
point $-1 60.923127040126204 -25.929596261249753 7.0010418969568491 #
point $-1 67.526474806970441 -19.850277965207344 1.0553607323037539 #
straight-curve $-1 67.526474806970427 0 7.0010418969568491 0 1 0 I I #
vertex $-1 $315 $422 #
point $-1 63.772809896471983 -24.192648176666211 2.7789761683554373 #
vertex $-1 $319 $423 #
point $-1 63.772809896471983 -21.587226049790889 2.7789761683554373 #
edge $-1 $397 88.892619891711718 $400 94.838301056364813 $324 $424 forward 7 unknown #
vertex $-1 $338 $425 #
straight-curve $-1 28.765319133542604 19.850277965207344 7.0010418969568491 1 0 0 I I #
edge $-1 $400 8.4053094085930695 $335 14.484627704635479 $334 $426 forward 7 unknown #
vertex $-1 $399 $427 #
straight-curve $-1 -32.837424885488872 19.850277965207344 91.423423884877849 -0.74314481823134659 0 0.66913061440640931 I I #
point $-1 60.923127040126204 19.850277965207344 7.0010418969568491 #
point $-1 67.526474806970441 25.929596261249753 1.0553607323037539 #
straight-curve $-1 67.526474806970427 0 7.0010418969568491 0 1 0 I I #
vertex $-1 $341 $428 #
point $-1 63.772809896471983 21.587226049790885 2.7789761683554373 #
vertex $-1 $345 $429 #
point $-1 63.772809896471983 24.192648176666211 2.7789761683554373 #
straight-curve $-1 -67.526474806970427 28.193287267425163 0 0 0 -1 I I #
point $-1 -67.526474806970427 -28.193287267425163 -7.0010418969568491 #
straight-curve $-1 -67.526474806970427 0 -7.0010418969568491 0 1 0 I I #
point $-1 -67.526474806970427 28.193287267425163 -7.0010418969568491 #
straight-curve $-1 -67.526474806970427 0 -4.0007278296932185 0 -1 0 I I #
point $-1 -67.526474806970427 -28.193287267425163 -4.0007278296932185 #
point $-1 -67.526474806970427 28.193287267425163 -4.0007278296932185 #
straight-curve $-1 -67.526474806970427 28.193287267425163 0 0 0 -1 I I #
straight-curve $-1 -67.526474806970427 -28.193287267425163 0 0 0 -1 I I #
straight-curve $-1 67.526474806970427 -25.929596261249753 95.893661788668567 0 0 -1 I I #
point $-1 67.526474806970427 -25.929596261249753 7.0010418969568491 #
straight-curve $-1 67.526474806970413 -11.444968556614274 1.0553607323037539 0 1 0 I I #
point $-1 67.526474806970441 -25.929596261249753 1.0553607323037539 #
point $-1 63.066672180153105 -24.192648176666211 2.7419690664429686 #
point $-1 63.066672180153105 -21.587226049790889 2.7419690664429686 #
straight-curve $-1 67.526474806970427 19.850277965207344 95.893661788668567 0 0 -1 I I #
point $-1 67.526474806970427 19.850277965207344 7.0010418969568491 #
straight-curve $-1 67.526474806970413 11.444968556614274 1.0553607323037539 0 1 0 I I #
point $-1 67.526474806970441 19.850277965207344 1.0553607323037539 #
point $-1 63.066672180153105 21.587226049790885 2.7419690664429686 #
point $-1 63.066672180153105 24.192648176666211 2.7419690664429686 #
End-of-ACIS-data 