500 0 3 0           
7 Unknown 11 ACIS 5.0 NT 24 Fri Mar 26 00:30:12 1999 
-1 9.9999999999999995e-007 1e-010 
body $-1 $3 $-1 $4 #
body $-1 $5 $-1 $6 #
body $-1 $7 $-1 $8 #
lump $-1 $-1 $9 $0 #
transform $-1 1 0 0 0 1 0 0 0 1 77.283852656636242 53.244652148595584 24.360399264066611 1 rotate no_reflect no_shear #
lump $-1 $-1 $10 $1 #
transform $-1 1 0 0 0 1 0 0 0 1 77.283852656636242 53.244652148595584 24.360399264066611 1 rotate no_reflect no_shear #
lump $-1 $-1 $11 $2 #
transform $-1 1 0 0 0 1 0 0 0 1 77.283852656636242 53.244652148595584 24.360399264066611 1 rotate no_reflect no_shear #
shell $-1 $-1 $-1 $12 $-1 $3 #
shell $-1 $-1 $-1 $13 $-1 $5 #
shell $-1 $-1 $-1 $14 $-1 $7 #
face $-1 $15 $16 $9 $-1 $17 forward single #
face $-1 $18 $19 $10 $-1 $20 forward single #
face $-1 $21 $22 $11 $-1 $23 reversed single #
face $-1 $24 $25 $9 $-1 $26 reversed single #
loop $-1 $-1 $27 $12 #
plane-surface $-1 0 0 24.360399264066611 0 0 1 1 0 0 forward_v I I I I #
face $-1 $28 $29 $10 $-1 $30 forward single #
loop $-1 $-1 $31 $13 #
plane-surface $-1 28.6902937077137 -139.67781718887949 129.48467091060985 -1 0 0 0 -0.55919291073839883 0.82903756765294845 forward_v I I I I #
face $-1 $32 $33 $11 $-1 $34 reversed single #
loop $-1 $35 $36 $14 #
cone-surface $-1 19.573171833748205 -35.014202465341654 11.120375873036382 0 0.55919291073839883 -0.82903756765294845 4 0 0 1 I I 0 1 4 forward I I I I #
face $-1 $37 $38 $9 $-1 $39 reversed single #
loop $-1 $-1 $40 $15 #
plane-surface $-1 0 0 -24.360399264066611 0 0 1 1 0 0 forward_v I I I I #
coedge $-1 $41 $42 $43 $44 forward $16 $-1 #
face $-1 $45 $46 $10 $-1 $47 forward single #
loop $-1 $-1 $48 $18 #
plane-surface $-1 19.573171833748205 -53.244652148595577 1.3422364599967125 0 -0.55919291073839883 0.82903756765294845 1 0 0 forward_v I I I I #
coedge $-1 $49 $50 $51 $52 reversed $19 $-1 #
face $-1 $53 $54 $11 $-1 $55 forward single #
loop $-1 $56 $57 $21 #
cone-surface $-1 19.573171833748205 -32.728281508049655 7.7313587487351931 0 0.55919291073839883 -0.82903756765294845 2 0 0 1 I I -0.70710678118654746 0.70710678118654746 2 forward I I I I #
loop $-1 $-1 $58 $14 #
coedge $-1 $36 $36 $59 $60 reversed $22 $-1 #
face $-1 $61 $62 $9 $-1 $63 reversed single #
loop $-1 $-1 $64 $24 #
plane-surface $-1 0 -53.244652148595584 0 0 1 0 0 0 1 forward_v I I I I #
coedge $-1 $65 $66 $67 $68 forward $25 $-1 #
coedge $-1 $69 $27 $70 $71 forward $16 $-1 #
coedge $-1 $27 $69 $72 $73 forward $16 $-1 #
coedge $-1 $74 $75 $27 $44 reversed $76 $-1 #
edge $-1 $77 -53.244652148595584 $78 53.244652148595584 $43 $79 forward 7 unknown #
face $-1 $80 $81 $10 $-1 $82 forward single #
loop $-1 $-1 $83 $28 #
plane-surface $-1 10.45604995978271 -139.67781718887949 129.48467091060985 1 0 0 0 0.55919291073839883 -0.82903756765294845 forward_v I I I I #
coedge $-1 $84 $85 $86 $87 reversed $29 $-1 #
coedge $-1 $50 $31 $85 $88 forward $19 $-1 #
coedge $-1 $31 $49 $89 $90 reversed $19 $-1 #
coedge $-1 $91 $86 $31 $52 forward $81 $-1 #
edge $-1 $92 -50.720085540721655 $93 -16.594256445844159 $51 $94 forward 7 unknown #
face $-1 $95 $96 $11 $-1 $97 forward single #
loop $-1 $-1 $98 $32 #
plane-surface $-1 28.6902937077137 -139.67781718887949 129.48467091060985 -1 0 0 0 -0.55919291073839883 0.82903756765294845 forward_v I I I I #
loop $-1 $-1 $99 $21 #
coedge $-1 $57 $57 $58 $100 forward $33 $-1 #
coedge $-1 $58 $58 $57 $100 reversed $35 $-1 #
coedge $-1 $59 $59 $36 $60 forward $96 $-1 #
edge $-1 $101 -2.8297688564631229e-016 $101 6.2831853071796004 $59 $102 forward 7 unknown #
face $-1 $103 $104 $9 $-1 $105 reversed single #
loop $-1 $-1 $106 $37 #
plane-surface $-1 -77.283852656636242 0 0 1 0 0 0 0 -1 forward_v I I I I #
coedge $-1 $107 $72 $108 $109 forward $38 $-1 #
coedge $-1 $110 $40 $107 $111 forward $25 $-1 #
coedge $-1 $40 $110 $112 $113 forward $25 $-1 #
coedge $-1 $75 $74 $40 $68 reversed $76 $-1 #
edge $-1 $114 -53.244652148595584 $115 53.244652148595584 $67 $116 forward 7 unknown #
coedge $-1 $42 $41 $117 $118 forward $16 $-1 #
coedge $-1 $119 $120 $41 $71 reversed $104 $-1 #
edge $-1 $78 -77.283852656636242 $121 77.283852656636242 $70 $122 forward 7 unknown #
coedge $-1 $64 $123 $42 $73 reversed $38 $-1 #
edge $-1 $124 -77.283852656636242 $77 77.283852656636242 $72 $125 forward 7 unknown #
coedge $-1 $67 $43 $123 $126 forward $76 $-1 #
coedge $-1 $43 $67 $119 $127 reversed $76 $-1 #
loop $-1 $-1 $74 $103 #
vertex $-1 $44 $128 #
vertex $-1 $44 $129 #
straight-curve $-1 77.283852656636242 0 24.360399264066611 0 1 0 I I #
face $-1 $130 $131 $10 $-1 $132 reversed single #
loop $-1 $-1 $133 $45 #
plane-surface $-1 0 0 24.360399264066611 0 0 1 1 0 0 forward_v I I I I #
coedge $-1 $134 $135 $133 $136 reversed $46 $-1 #
coedge $-1 $137 $48 $135 $138 reversed $29 $-1 #
coedge $-1 $48 $137 $49 $88 reversed $29 $-1 #
coedge $-1 $51 $133 $48 $87 forward $81 $-1 #
edge $-1 $139 0.66946404290860784 $92 18.903707790839597 $86 $140 forward 7 unknown #
edge $-1 $92 -41.163187805215642 $141 8.6223131303995443e-015 $49 $142 forward 7 unknown #
coedge $-1 $143 $144 $50 $90 forward $145 $-1 #
edge $-1 $93 40.38193619123831 $141 63.40009899530822 $89 $146 forward 7 unknown #
coedge $-1 $147 $51 $144 $148 forward $81 $-1 #
vertex $-1 $87 $149 #
vertex $-1 $148 $150 #
straight-curve $-1 28.6902937077137 -69.838908594439744 24.360399264066615 0 -1 0 I I #
face $-1 $151 $152 $11 $-1 $153 forward single #
loop $-1 $154 $59 $53 #
plane-surface $-1 19.573171833748205 -53.244652148595577 1.3422364599967125 0 -0.55919291073839883 0.82903756765294845 1 0 0 forward_v I I I I #
coedge $-1 $155 $156 $157 $158 reversed $54 $-1 #
coedge $-1 $99 $99 $-1 $159 forward $56 $-1 #
edge $-1 $160 0 $160 6.2831853071796004 $57 $161 forward 7 unknown #
vertex $-1 $60 $162 #
ellipse-curve $-1 19.573171833748205 -36.181737601156847 12.851317862031653 0 0.55919291073839883 -0.82903756765294845 4 0 0 1 I I #
face $-1 $-1 $76 $9 $-1 $163 reversed single #
loop $-1 $-1 $119 $61 #
plane-surface $-1 0 53.244652148595584 0 0 -1 0 0 0 -1 forward_v I I I I #
coedge $-1 $164 $117 $120 $165 forward $62 $-1 #
coedge $-1 $123 $64 $65 $111 reversed $38 $-1 #
coedge $-1 $117 $164 $64 $109 reversed $62 $-1 #
edge $-1 $124 -24.360399264066611 $166 24.360399264066611 $108 $167 forward 7 unknown #
coedge $-1 $66 $65 $164 $168 forward $25 $-1 #
edge $-1 $115 -77.283852656636242 $166 77.283852656636242 $107 $169 forward 7 unknown #
coedge $-1 $120 $119 $66 $113 reversed $104 $-1 #
edge $-1 $170 -77.283852656636242 $114 77.283852656636242 $112 $171 forward 7 unknown #
vertex $-1 $68 $172 #
vertex $-1 $126 $173 #
straight-curve $-1 77.283852656636242 0 -24.360399264066611 0 -1 0 I I #
coedge $-1 $106 $108 $69 $118 reversed $62 $-1 #
edge $-1 $121 -53.244652148595584 $124 53.244652148595584 $117 $174 forward 7 unknown #
coedge $-1 $112 $70 $75 $127 forward $104 $-1 #
coedge $-1 $70 $112 $106 $165 reversed $104 $-1 #
vertex $-1 $71 $175 #
straight-curve $-1 0 53.244652148595584 24.360399264066611 -1 0 0 I I #
coedge $-1 $72 $107 $74 $126 reversed $38 $-1 #
vertex $-1 $118 $176 #
straight-curve $-1 0 -53.244652148595584 24.360399264066611 1 0 0 I I #
edge $-1 $77 -24.360399264066611 $115 24.360399264066611 $74 $177 forward 7 unknown #
edge $-1 $78 -24.360399264066611 $114 24.360399264066611 $75 $178 forward 7 unknown #
point $-1 77.283852656636242 -53.244652148595584 24.360399264066611 #
point $-1 77.283852656636242 53.244652148595584 24.360399264066611 #
face $-1 $179 $145 $10 $-1 $180 reversed single #
loop $-1 $-1 $181 $80 #
plane-surface $-1 0 0 -24.360399264066611 0 0 1 1 0 0 forward_v I I I I #
coedge $-1 $86 $182 $83 $136 forward $81 $-1 #
coedge $-1 $135 $83 $183 $184 reversed $46 $-1 #
coedge $-1 $83 $134 $84 $138 forward $46 $-1 #
edge $-1 $185 16.594256445844159 $139 50.720085540721655 $133 $186 forward 7 unknown #
coedge $-1 $85 $84 $143 $187 reversed $29 $-1 #
edge $-1 $188 -8.6223131303995443e-015 $139 41.163187805215642 $135 $189 forward 7 unknown #
vertex $-1 $87 $190 #
straight-curve $-1 9.7865859168741025 -19.118823053718085 24.360399264066611 1 0 0 I I #
vertex $-1 $187 $191 #
straight-curve $-1 28.6902937077137 -53.244652148595577 1.3422364599967125 0 -0.82903756765294845 -0.55919291073839883 I I #
coedge $-1 $183 $89 $137 $187 forward $145 $-1 #
coedge $-1 $89 $192 $91 $148 reversed $145 $-1 #
loop $-1 $-1 $183 $130 #
straight-curve $-1 28.6902937077137 -53.244652148595584 64.742335455304925 0 0 -1 I I #
coedge $-1 $193 $91 $194 $195 forward $81 $-1 #
edge $-1 $93 28.6902937077137 $196 77.283852656636242 $144 $197 forward 7 unknown #
point $-1 28.6902937077137 -19.118823053718089 24.360399264066611 #
point $-1 28.6902937077137 -53.244652148595584 24.360399264066611 #
face $-1 $198 $199 $11 $-1 $200 forward single #
loop $-1 $-1 $201 $95 #
plane-surface $-1 10.45604995978271 -139.67781718887949 129.48467091060985 1 0 0 0 0.55919291073839883 -0.82903756765294845 forward_v I I I I #
loop $-1 $-1 $202 $53 #
coedge $-1 $156 $98 $203 $204 forward $54 $-1 #
coedge $-1 $98 $155 $205 $206 reversed $54 $-1 #
coedge $-1 $207 $208 $98 $158 forward $199 $-1 #
edge $-1 $209 -50.720085540721655 $210 -16.594256445844159 $157 $211 forward 7 unknown #
edge $-1 $212 1 $212 0 $99 $-1 forward 7 unknown #
vertex $-1 $100 $213 #
ellipse-curve $-1 19.573171833748205 -33.846667329526454 9.3894338840410896 0 -0.55919291073839883 0.82903756765294845 4 0 0 1 I I #
point $-1 23.573171833748205 -36.181737601156861 12.851317862031676 #
plane-surface $-1 77.283852656636242 0 0 -1 0 0 0 0 1 forward_v I I I I #
coedge $-1 $108 $106 $110 $168 reversed $62 $-1 #
edge $-1 $121 -24.360399264066611 $170 24.360399264066611 $120 $214 forward 7 unknown #
vertex $-1 $168 $215 #
straight-curve $-1 -77.283852656636242 -53.244652148595584 0 0 0 -1 I I #
edge $-1 $166 -53.244652148595584 $170 53.244652148595584 $164 $216 forward 7 unknown #
straight-curve $-1 0 -53.244652148595584 -24.360399264066611 -1 0 0 I I #
vertex $-1 $113 $217 #
straight-curve $-1 0 53.244652148595584 -24.360399264066611 1 0 0 I I #
point $-1 77.283852656636242 53.244652148595584 -24.360399264066611 #
point $-1 77.283852656636242 -53.244652148595584 -24.360399264066611 #
straight-curve $-1 -77.283852656636242 0 24.360399264066611 0 -1 0 I I #
point $-1 -77.283852656636242 53.244652148595584 24.360399264066611 #
point $-1 -77.283852656636242 -53.244652148595584 24.360399264066611 #
straight-curve $-1 77.283852656636242 -53.244652148595584 0 0 0 -1 I I #
straight-curve $-1 77.283852656636242 53.244652148595584 0 0 0 -1 I I #
face $-1 $218 $219 $10 $-1 $220 reversed single #
plane-surface $-1 0 -53.244652148595584 0 0 1 0 0 0 1 forward_v I I I I #
coedge $-1 $221 $222 $223 $224 forward $131 $-1 #
coedge $-1 $133 $225 $226 $227 forward $81 $-1 #
coedge $-1 $226 $143 $134 $184 forward $145 $-1 #
edge $-1 $188 -63.40009899530822 $185 -40.38193619123831 $183 $228 forward 7 unknown #
vertex $-1 $184 $229 #
straight-curve $-1 10.45604995978271 -69.838908594439744 24.360399264066615 0 1 0 I I #
edge $-1 $141 -18.903707790839597 $188 -0.66946404290860784 $143 $230 forward 7 unknown #
vertex $-1 $187 $231 #
straight-curve $-1 10.45604995978271 -53.244652148595577 1.3422364599967125 0 0.82903756765294845 0.55919291073839883 I I #
point $-1 10.45604995978271 -19.118823053718089 24.360399264066611 #
point $-1 28.6902937077137 -53.244652148595584 1.3422364599967076 #
coedge $-1 $144 $232 $233 $234 reversed $145 $-1 #
coedge $-1 $225 $147 $235 $236 forward $81 $-1 #
coedge $-1 $233 $237 $147 $195 reversed $238 $-1 #
edge $-1 $196 -53.244652148595584 $239 53.244652148595584 $194 $240 forward 7 unknown #
vertex $-1 $195 $241 #
straight-curve $-1 0 -53.244652148595584 24.360399264066611 1 0 0 I I #
face $-1 $242 $243 $11 $-1 $244 reversed single #
loop $-1 $-1 $245 $151 #
plane-surface $-1 0 0 24.360399264066611 0 0 1 1 0 0 forward_v I I I I #
coedge $-1 $246 $247 $245 $248 reversed $152 $-1 #
coedge $-1 $249 $203 $208 $250 reversed $154 $-1 #
coedge $-1 $202 $251 $155 $204 reversed $154 $-1 #
edge $-1 $209 -41.163187805215642 $252 8.6223131303995443e-015 $155 $253 forward 7 unknown #
coedge $-1 $254 $255 $156 $206 forward $256 $-1 #
edge $-1 $210 40.38193619123831 $252 63.40009899530822 $205 $257 forward 7 unknown #
coedge $-1 $258 $157 $255 $259 forward $199 $-1 #
coedge $-1 $157 $245 $202 $250 forward $199 $-1 #
vertex $-1 $250 $260 #
vertex $-1 $259 $261 #
straight-curve $-1 28.6902937077137 -69.838908594439744 24.360399264066615 0 -1 0 I I #
vertex $-1 $159 $262 #
point $-1 23.573171833748205 -33.846667329526454 9.3894338840410896 #
straight-curve $-1 -77.283852656636242 53.244652148595584 0 0 0 -1 I I #
point $-1 -77.283852656636242 -53.244652148595584 -24.360399264066611 #
straight-curve $-1 -77.283852656636242 0 -24.360399264066611 0 1 0 I I #
point $-1 -77.283852656636242 53.244652148595584 -24.360399264066611 #
face $-1 $263 $264 $10 $-1 $265 reversed single #
loop $-1 $-1 $266 $179 #
plane-surface $-1 -77.283852656636242 0 0 1 0 0 0 0 -1 forward_v I I I I #
coedge $-1 $267 $181 $232 $268 forward $131 $-1 #
coedge $-1 $181 $267 $269 $270 forward $131 $-1 #
coedge $-1 $237 $233 $181 $224 reversed $238 $-1 #
edge $-1 $271 -53.244652148595584 $272 53.244652148595584 $223 $273 forward 7 unknown #
coedge $-1 $182 $193 $274 $275 forward $81 $-1 #
coedge $-1 $276 $183 $182 $227 reversed $145 $-1 #
edge $-1 $277 -77.283852656636242 $185 10.45604995978271 $226 $197 forward 7 unknown #
straight-curve $-1 10.45604995978271 -53.244652148595584 64.742335455304925 0 0 1 I I #
point $-1 10.45604995978271 -53.244652148595584 24.360399264066611 #
straight-curve $-1 9.7865859168741025 -53.244652148595584 1.3422364599967076 -1 0 0 I I #
point $-1 10.45604995978271 -53.244652148595584 1.3422364599967076 #
coedge $-1 $192 $276 $221 $268 reversed $145 $-1 #
coedge $-1 $223 $194 $192 $234 forward $238 $-1 #
edge $-1 $196 -24.360399264066611 $272 24.360399264066611 $233 $278 forward 7 unknown #
coedge $-1 $279 $280 $193 $236 reversed $264 $-1 #
edge $-1 $239 -77.283852656636242 $281 77.283852656636242 $235 $282 forward 7 unknown #
coedge $-1 $194 $223 $279 $283 reversed $238 $-1 #
loop $-1 $-1 $233 $263 #
vertex $-1 $195 $284 #
straight-curve $-1 77.283852656636242 0 24.360399264066611 0 1 0 I I #
point $-1 77.283852656636242 -53.244652148595584 24.360399264066611 #
face $-1 $285 $256 $11 $-1 $286 reversed single #
loop $-1 $-1 $287 $198 #
plane-surface $-1 0 0 -24.360399264066611 0 0 1 1 0 0 forward_v I I I I #
coedge $-1 $208 $288 $201 $248 forward $199 $-1 #
coedge $-1 $247 $201 $289 $290 reversed $152 $-1 #
coedge $-1 $201 $246 $249 $291 forward $152 $-1 #
edge $-1 $292 16.594256445844159 $293 50.720085540721655 $245 $294 forward 7 unknown #
coedge $-1 $251 $202 $247 $291 reversed $154 $-1 #
edge $-1 $293 0.66946404290860784 $209 18.903707790839597 $208 $295 forward 7 unknown #
coedge $-1 $203 $249 $254 $296 reversed $154 $-1 #
vertex $-1 $296 $297 #
straight-curve $-1 28.6902937077137 -53.244652148595577 1.3422364599967125 0 -0.82903756765294845 -0.55919291073839883 I I #
coedge $-1 $289 $205 $251 $296 forward $256 $-1 #
coedge $-1 $205 $298 $207 $259 reversed $256 $-1 #
loop $-1 $-1 $289 $242 #
straight-curve $-1 28.6902937077137 -53.244652148595584 64.742335455304925 0 0 -1 I I #
coedge $-1 $299 $207 $300 $301 forward $199 $-1 #
edge $-1 $210 28.6902937077137 $302 77.283852656636242 $255 $303 forward 7 unknown #
point $-1 28.6902937077137 -19.118823053718089 24.360399264066611 #
point $-1 28.6902937077137 -53.244652148595584 24.360399264066611 #
point $-1 19.573171833748205 -31.609895686572855 6.0732836134292967 #
face $-1 $-1 $238 $10 $-1 $304 reversed single #
loop $-1 $-1 $279 $218 #
plane-surface $-1 0 53.244652148595584 0 0 -1 0 0 0 -1 forward_v I I I I #
coedge $-1 $305 $274 $280 $306 forward $219 $-1 #
coedge $-1 $222 $221 $305 $307 forward $131 $-1 #
edge $-1 $272 -77.283852656636242 $308 77.283852656636242 $232 $309 forward 7 unknown #
coedge $-1 $280 $279 $222 $270 reversed $264 $-1 #
edge $-1 $310 -77.283852656636242 $271 77.283852656636242 $269 $311 forward 7 unknown #
vertex $-1 $224 $312 #
vertex $-1 $234 $313 #
straight-curve $-1 77.283852656636242 0 -24.360399264066611 0 -1 0 I I #
coedge $-1 $266 $314 $225 $275 reversed $219 $-1 #
edge $-1 $281 -53.244652148595584 $277 53.244652148595584 $274 $315 forward 7 unknown #
coedge $-1 $232 $226 $314 $316 forward $145 $-1 #
vertex $-1 $275 $317 #
straight-curve $-1 77.283852656636242 -53.244652148595584 0 0 0 -1 I I #
coedge $-1 $269 $235 $237 $283 forward $264 $-1 #
coedge $-1 $235 $269 $266 $306 reversed $264 $-1 #
vertex $-1 $236 $318 #
straight-curve $-1 0 53.244652148595584 24.360399264066611 -1 0 0 I I #
edge $-1 $239 -24.360399264066611 $271 24.360399264066611 $237 $319 forward 7 unknown #
point $-1 77.283852656636242 53.244652148595584 24.360399264066611 #
face $-1 $320 $321 $11 $-1 $322 reversed single #
plane-surface $-1 0 -53.244652148595584 0 0 1 0 0 0 1 forward_v I I I I #
coedge $-1 $323 $324 $325 $326 forward $243 $-1 #
coedge $-1 $245 $327 $328 $329 forward $199 $-1 #
coedge $-1 $328 $254 $246 $290 forward $256 $-1 #
edge $-1 $330 -63.40009899530822 $292 -40.38193619123831 $289 $331 forward 7 unknown #
edge $-1 $330 -8.6223131303995443e-015 $293 41.163187805215642 $247 $332 forward 7 unknown #
vertex $-1 $290 $333 #
vertex $-1 $250 $334 #
straight-curve $-1 10.45604995978271 -69.838908594439744 24.360399264066615 0 1 0 I I #
straight-curve $-1 9.7865859168741025 -19.118823053718085 24.360399264066611 1 0 0 I I #
edge $-1 $252 -18.903707790839597 $330 -0.66946404290860784 $254 $335 forward 7 unknown #
point $-1 28.6902937077137 -53.244652148595584 1.3422364599967076 #
coedge $-1 $255 $336 $337 $338 reversed $256 $-1 #
coedge $-1 $327 $258 $339 $340 forward $199 $-1 #
coedge $-1 $337 $341 $258 $301 reversed $342 $-1 #
edge $-1 $302 -53.244652148595584 $343 53.244652148595584 $300 $344 forward 7 unknown #
vertex $-1 $301 $345 #
straight-curve $-1 0 -53.244652148595584 24.360399264066611 1 0 0 I I #
plane-surface $-1 77.283852656636242 0 0 -1 0 0 0 0 1 forward_v I I I I #
coedge $-1 $314 $266 $267 $307 reversed $219 $-1 #
edge $-1 $281 -24.360399264066611 $310 24.360399264066611 $280 $346 forward 7 unknown #
edge $-1 $308 -53.244652148595584 $310 53.244652148595584 $305 $347 forward 7 unknown #
vertex $-1 $307 $348 #
straight-curve $-1 0 -53.244652148595584 -24.360399264066611 -1 0 0 I I #
vertex $-1 $270 $349 #
straight-curve $-1 0 53.244652148595584 -24.360399264066611 1 0 0 I I #
point $-1 77.283852656636242 53.244652148595584 -24.360399264066611 #
point $-1 77.283852656636242 -53.244652148595584 -24.360399264066611 #
coedge $-1 $274 $305 $276 $316 reversed $219 $-1 #
straight-curve $-1 -77.283852656636242 0 24.360399264066611 0 -1 0 I I #
edge $-1 $277 -24.360399264066611 $308 24.360399264066611 $314 $350 forward 7 unknown #
point $-1 -77.283852656636242 -53.244652148595584 24.360399264066611 #
point $-1 -77.283852656636242 53.244652148595584 24.360399264066611 #
straight-curve $-1 77.283852656636242 53.244652148595584 0 0 0 -1 I I #
face $-1 $351 $352 $11 $-1 $353 reversed single #
loop $-1 $-1 $354 $285 #
plane-surface $-1 -77.283852656636242 0 0 1 0 0 0 0 -1 forward_v I I I I #
coedge $-1 $355 $287 $336 $356 forward $243 $-1 #
coedge $-1 $287 $355 $357 $358 forward $243 $-1 #
coedge $-1 $341 $337 $287 $326 reversed $342 $-1 #
edge $-1 $359 -53.244652148595584 $360 53.244652148595584 $325 $361 forward 7 unknown #
coedge $-1 $288 $299 $362 $363 forward $199 $-1 #
coedge $-1 $364 $289 $288 $329 reversed $256 $-1 #
edge $-1 $365 -77.283852656636242 $292 10.45604995978271 $328 $303 forward 7 unknown #
vertex $-1 $296 $366 #
straight-curve $-1 10.45604995978271 -53.244652148595584 64.742335455304925 0 0 1 I I #
straight-curve $-1 10.45604995978271 -53.244652148595577 1.3422364599967125 0 0.82903756765294845 0.55919291073839883 I I #
point $-1 10.45604995978271 -53.244652148595584 24.360399264066611 #
point $-1 10.45604995978271 -19.118823053718089 24.360399264066611 #
straight-curve $-1 9.7865859168741025 -53.244652148595584 1.3422364599967076 -1 0 0 I I #
coedge $-1 $298 $364 $323 $356 reversed $256 $-1 #
coedge $-1 $325 $300 $298 $338 forward $342 $-1 #
edge $-1 $302 -24.360399264066611 $360 24.360399264066611 $337 $367 forward 7 unknown #
coedge $-1 $368 $369 $299 $340 reversed $352 $-1 #
edge $-1 $343 -77.283852656636242 $370 77.283852656636242 $339 $371 forward 7 unknown #
coedge $-1 $300 $325 $368 $372 reversed $342 $-1 #
loop $-1 $-1 $337 $351 #
vertex $-1 $301 $373 #
straight-curve $-1 77.283852656636242 0 24.360399264066611 0 1 0 I I #
point $-1 77.283852656636242 -53.244652148595584 24.360399264066611 #
straight-curve $-1 -77.283852656636242 53.244652148595584 0 0 0 -1 I I #
straight-curve $-1 -77.283852656636242 0 -24.360399264066611 0 1 0 I I #
point $-1 -77.283852656636242 -53.244652148595584 -24.360399264066611 #
point $-1 -77.283852656636242 53.244652148595584 -24.360399264066611 #
straight-curve $-1 -77.283852656636242 -53.244652148595584 0 0 0 -1 I I #
face $-1 $-1 $342 $11 $-1 $374 reversed single #
loop $-1 $-1 $368 $320 #
plane-surface $-1 0 53.244652148595584 0 0 -1 0 0 0 -1 forward_v I I I I #
coedge $-1 $375 $362 $369 $376 forward $321 $-1 #
coedge $-1 $324 $323 $375 $377 forward $243 $-1 #
edge $-1 $360 -77.283852656636242 $378 77.283852656636242 $336 $379 forward 7 unknown #
coedge $-1 $369 $368 $324 $358 reversed $352 $-1 #
edge $-1 $380 -77.283852656636242 $359 77.283852656636242 $357 $381 forward 7 unknown #
vertex $-1 $326 $382 #
vertex $-1 $338 $383 #
straight-curve $-1 77.283852656636242 0 -24.360399264066611 0 -1 0 I I #
coedge $-1 $354 $384 $327 $363 reversed $321 $-1 #
edge $-1 $370 -53.244652148595584 $365 53.244652148595584 $362 $385 forward 7 unknown #
coedge $-1 $336 $328 $384 $386 forward $256 $-1 #
vertex $-1 $363 $387 #
point $-1 10.45604995978271 -53.244652148595584 1.3422364599967076 #
straight-curve $-1 77.283852656636242 -53.244652148595584 0 0 0 -1 I I #
coedge $-1 $357 $339 $341 $372 forward $352 $-1 #
coedge $-1 $339 $357 $354 $376 reversed $352 $-1 #
vertex $-1 $340 $388 #
straight-curve $-1 0 53.244652148595584 24.360399264066611 -1 0 0 I I #
edge $-1 $343 -24.360399264066611 $359 24.360399264066611 $341 $389 forward 7 unknown #
point $-1 77.283852656636242 53.244652148595584 24.360399264066611 #
plane-surface $-1 77.283852656636242 0 0 -1 0 0 0 0 1 forward_v I I I I #
coedge $-1 $384 $354 $355 $377 reversed $321 $-1 #
edge $-1 $370 -24.360399264066611 $380 24.360399264066611 $369 $390 forward 7 unknown #
edge $-1 $378 -53.244652148595584 $380 53.244652148595584 $375 $391 forward 7 unknown #
vertex $-1 $377 $392 #
straight-curve $-1 0 -53.244652148595584 -24.360399264066611 -1 0 0 I I #
vertex $-1 $358 $393 #
straight-curve $-1 0 53.244652148595584 -24.360399264066611 1 0 0 I I #
point $-1 77.283852656636242 53.244652148595584 -24.360399264066611 #
point $-1 77.283852656636242 -53.244652148595584 -24.360399264066611 #
coedge $-1 $362 $375 $364 $386 reversed $321 $-1 #
straight-curve $-1 -77.283852656636242 0 24.360399264066611 0 -1 0 I I #
edge $-1 $365 -24.360399264066611 $378 24.360399264066611 $384 $394 forward 7 unknown #
point $-1 -77.283852656636242 -53.244652148595584 24.360399264066611 #
point $-1 -77.283852656636242 53.244652148595584 24.360399264066611 #
straight-curve $-1 77.283852656636242 53.244652148595584 0 0 0 -1 I I #
straight-curve $-1 -77.283852656636242 53.244652148595584 0 0 0 -1 I I #
straight-curve $-1 -77.283852656636242 0 -24.360399264066611 0 1 0 I I #
point $-1 -77.283852656636242 -53.244652148595584 -24.360399264066611 #
point $-1 -77.283852656636242 53.244652148595584 -24.360399264066611 #
straight-curve $-1 -77.283852656636242 -53.244652148595584 0 0 0 -1 I I #
End-of-ACIS-data 