500 0 3 0           
7 Unknown 11 ACIS 5.0 NT 24 Fri Mar 26 18:30:10 1999 
-1 9.9999999999999995e-007 1e-010 
body $-1 $3 $-1 $4 #
body $-1 $5 $-1 $6 #
body $-1 $7 $-1 $8 #
lump $-1 $-1 $9 $0 #
transform $-1 1 0 0 0 1 0 0 0 1 45.236976226081119 25.39121503501881 11.082261477197227 1 rotate no_reflect no_shear #
lump $-1 $-1 $10 $1 #
transform $-1 1 0 0 0 1 0 0 0 1 45.236976226081119 25.39121503501881 11.082261477197227 1 rotate no_reflect no_shear #
lump $-1 $-1 $11 $2 #
transform $-1 1 0 0 0 1 0 0 0 1 45.236976226081119 25.39121503501881 11.082261477197227 1 rotate no_reflect no_shear #
shell $-1 $-1 $-1 $12 $-1 $3 #
shell $-1 $-1 $-1 $13 $-1 $5 #
shell $-1 $-1 $-1 $14 $-1 $7 #
face $-1 $15 $16 $9 $-1 $17 forward single #
face $-1 $18 $19 $10 $-1 $20 reversed single #
face $-1 $21 $22 $11 $-1 $23 reversed single #
face $-1 $24 $25 $9 $-1 $26 reversed single #
loop $-1 $-1 $27 $12 #
plane-surface $-1 0 0 11.082261477197227 0 0 1 1 0 0 forward_v I I I I #
face $-1 $28 $29 $10 $-1 $30 reversed single #
loop $-1 $-1 $31 $13 #
plane-surface $-1 -38.106394787004966 -7.7573405469544632 0 0 1 0 0 0 1 forward_v I I I I #
face $-1 $32 $33 $11 $-1 $34 reversed single #
loop $-1 $-1 $35 $14 #
plane-surface $-1 40.738620442201118 0 7.4166293979052877 0 0 1 1 0 0 forward_v I I I I #
face $-1 $36 $37 $9 $-1 $38 reversed single #
loop $-1 $-1 $39 $15 #
plane-surface $-1 0 0 -11.082261477197227 0 0 1 1 0 0 forward_v I I I I #
coedge $-1 $40 $41 $42 $43 forward $16 $-1 #
face $-1 $44 $45 $10 $-1 $46 reversed single #
loop $-1 $-1 $47 $18 #
plane-surface $-1 -38.106394787004966 -3.2266920806243569 0 0 -1 0 0 0 -1 forward_v I I I I #
coedge $-1 $48 $49 $50 $51 reversed $19 $-1 #
face $-1 $52 $53 $11 $-1 $54 reversed single #
loop $-1 $-1 $55 $21 #
plane-surface $-1 36.240264658321124 0 9.2494454375512571 1 0 0 0 0 -1 forward_v I I I I #
coedge $-1 $56 $57 $58 $59 reversed $22 $-1 #
face $-1 $60 $61 $9 $-1 $62 reversed single #
loop $-1 $-1 $63 $24 #
plane-surface $-1 0 -25.39121503501881 0 0 1 0 0 0 1 forward_v I I I I #
coedge $-1 $64 $65 $66 $67 forward $25 $-1 #
coedge $-1 $68 $27 $69 $70 forward $16 $-1 #
coedge $-1 $27 $68 $71 $72 forward $16 $-1 #
coedge $-1 $73 $74 $27 $43 reversed $75 $-1 #
edge $-1 $76 -25.39121503501881 $77 25.39121503501881 $42 $78 forward 7 unknown #
face $-1 $79 $80 $10 $-1 $81 reversed single #
loop $-1 $-1 $82 $28 #
plane-surface $-1 -30.975813347928813 -5.49201631378941 0 -1 0 0 0 0 1 forward_v I I I I #
coedge $-1 $83 $84 $85 $86 forward $29 $-1 #
coedge $-1 $87 $31 $88 $89 reversed $19 $-1 #
coedge $-1 $31 $87 $90 $91 reversed $19 $-1 #
coedge $-1 $92 $93 $31 $51 forward $94 $-1 #
edge $-1 $95 -11.082261477197227 $96 11.082261477197227 $50 $97 forward 7 unknown #
face $-1 $98 $99 $11 $-1 $100 reversed single #
loop $-1 $-1 $101 $32 #
plane-surface $-1 0 -25.39121503501881 0 0 1 0 0 0 1 forward_v I I I I #
coedge $-1 $102 $103 $104 $105 reversed $33 $-1 #
coedge $-1 $106 $35 $107 $108 reversed $22 $-1 #
coedge $-1 $35 $106 $109 $110 reversed $22 $-1 #
coedge $-1 $111 $112 $35 $59 forward $99 $-1 #
edge $-1 $113 -25.39121503501881 $114 25.39121503501881 $58 $115 forward 7 unknown #
face $-1 $116 $117 $9 $-1 $118 reversed single #
loop $-1 $-1 $119 $36 #
plane-surface $-1 -45.236976226081119 0 0 1 0 0 0 0 -1 forward_v I I I I #
coedge $-1 $120 $71 $121 $122 forward $37 $-1 #
coedge $-1 $123 $39 $120 $124 forward $25 $-1 #
coedge $-1 $39 $123 $125 $126 forward $25 $-1 #
coedge $-1 $74 $73 $39 $67 reversed $75 $-1 #
edge $-1 $127 -25.39121503501881 $128 25.39121503501881 $66 $129 forward 7 unknown #
coedge $-1 $41 $40 $130 $131 forward $16 $-1 #
coedge $-1 $132 $133 $40 $70 reversed $117 $-1 #
edge $-1 $77 -45.236976226081119 $134 45.236976226081119 $69 $135 forward 7 unknown #
coedge $-1 $63 $136 $41 $72 reversed $37 $-1 #
edge $-1 $137 -45.236976226081119 $76 45.236976226081119 $71 $138 forward 7 unknown #
coedge $-1 $66 $42 $136 $139 forward $75 $-1 #
coedge $-1 $42 $66 $132 $140 reversed $75 $-1 #
loop $-1 $-1 $73 $116 #
vertex $-1 $43 $141 #
vertex $-1 $43 $142 #
straight-curve $-1 45.236976226081119 0 11.082261477197227 0 1 0 I I #
face $-1 $143 $144 $10 $-1 $145 forward single #
loop $-1 $-1 $146 $44 #
plane-surface $-1 0 0 -11.082261477197227 0 0 1 1 0 0 forward_v I I I I #
coedge $-1 $147 $148 $87 $149 forward $45 $-1 #
coedge $-1 $150 $47 $146 $151 reversed $29 $-1 #
coedge $-1 $47 $150 $152 $153 reversed $29 $-1 #
coedge $-1 $148 $147 $47 $86 reversed $45 $-1 #
edge $-1 $154 -11.082261477197227 $155 11.082261477197227 $85 $156 forward 7 unknown #
coedge $-1 $49 $48 $82 $149 reversed $19 $-1 #
coedge $-1 $157 $158 $48 $89 forward $80 $-1 #
edge $-1 $159 11.92261595442633 $95 26.183778832578636 $88 $160 forward 7 unknown #
coedge $-1 $161 $162 $49 $91 forward $144 $-1 #
edge $-1 $96 -26.183778832578636 $163 -11.92261595442633 $90 $164 forward 7 unknown #
coedge $-1 $165 $50 $162 $166 reversed $94 $-1 #
coedge $-1 $50 $165 $157 $167 reversed $94 $-1 #
loop $-1 $-1 $165 $143 #
vertex $-1 $167 $168 #
vertex $-1 $51 $169 #
straight-curve $-1 -45.236976226081119 -7.7573405469544632 0 0 0 1 I I #
face $-1 $170 $171 $11 $-1 $172 forward single #
loop $-1 $-1 $58 $52 #
plane-surface $-1 45.236976226081119 0 0 -1 0 0 0 0 1 forward_v I I I I #
coedge $-1 $107 $173 $174 $175 forward $53 $-1 #
coedge $-1 $174 $55 $106 $176 reversed $33 $-1 #
coedge $-1 $55 $174 $177 $178 reversed $33 $-1 #
coedge $-1 $179 $109 $55 $105 forward $180 $-1 #
edge $-1 $181 2.7919066791296592 $182 6.457538758421598 $104 $183 forward 7 unknown #
coedge $-1 $57 $56 $102 $176 forward $22 $-1 #
coedge $-1 $184 $101 $56 $108 forward $53 $-1 #
edge $-1 $185 15.870954437220565 $113 24.867666004980553 $107 $186 forward 7 unknown #
coedge $-1 $104 $187 $57 $110 forward $180 $-1 #
edge $-1 $114 -24.867666004980553 $181 -15.870954437220565 $109 $188 forward 7 unknown #
coedge $-1 $189 $58 $187 $190 reversed $99 $-1 #
coedge $-1 $58 $189 $184 $191 forward $99 $-1 #
vertex $-1 $59 $192 #
vertex $-1 $59 $193 #
straight-curve $-1 45.236976226081119 0 7.4166293979052877 0 1 0 I I #
face $-1 $-1 $75 $9 $-1 $194 reversed single #
loop $-1 $-1 $132 $60 #
plane-surface $-1 0 25.39121503501881 0 0 -1 0 0 0 -1 forward_v I I I I #
coedge $-1 $195 $130 $133 $196 forward $61 $-1 #
coedge $-1 $136 $63 $64 $124 reversed $37 $-1 #
coedge $-1 $130 $195 $63 $122 reversed $61 $-1 #
edge $-1 $137 -11.082261477197227 $197 11.082261477197227 $121 $198 forward 7 unknown #
coedge $-1 $65 $64 $195 $199 forward $25 $-1 #
edge $-1 $128 -45.236976226081119 $197 45.236976226081119 $120 $200 forward 7 unknown #
coedge $-1 $133 $132 $65 $126 reversed $117 $-1 #
edge $-1 $201 -45.236976226081119 $127 45.236976226081119 $125 $202 forward 7 unknown #
vertex $-1 $67 $203 #
vertex $-1 $139 $204 #
straight-curve $-1 45.236976226081119 0 -11.082261477197227 0 -1 0 I I #
coedge $-1 $119 $121 $68 $131 reversed $61 $-1 #
edge $-1 $134 -25.39121503501881 $137 25.39121503501881 $130 $205 forward 7 unknown #
coedge $-1 $125 $69 $74 $140 forward $117 $-1 #
coedge $-1 $69 $125 $119 $196 reversed $117 $-1 #
vertex $-1 $70 $206 #
straight-curve $-1 0 25.39121503501881 11.082261477197227 -1 0 0 I I #
coedge $-1 $71 $120 $73 $139 reversed $37 $-1 #
vertex $-1 $131 $207 #
straight-curve $-1 0 -25.39121503501881 11.082261477197227 1 0 0 I I #
edge $-1 $76 -11.082261477197227 $128 11.082261477197227 $73 $208 forward 7 unknown #
edge $-1 $77 -11.082261477197227 $127 11.082261477197227 $74 $209 forward 7 unknown #
point $-1 45.236976226081119 -25.39121503501881 11.082261477197227 #
point $-1 45.236976226081119 25.39121503501881 11.082261477197227 #
face $-1 $-1 $94 $10 $-1 $210 reversed single #
loop $-1 $-1 $152 $79 #
plane-surface $-1 0 0 11.082261477197227 0 0 1 1 0 0 forward_v I I I I #
coedge $-1 $158 $157 $83 $151 forward $80 $-1 #
coedge $-1 $85 $82 $158 $211 reversed $45 $-1 #
coedge $-1 $82 $85 $161 $212 reversed $45 $-1 #
edge $-1 $163 -11.082261477197227 $159 11.082261477197227 $82 $213 forward 7 unknown #
coedge $-1 $84 $83 $165 $214 reversed $29 $-1 #
edge $-1 $215 -26.183778832578636 $155 -11.92261595442633 $146 $216 forward 7 unknown #
coedge $-1 $162 $161 $84 $153 forward $144 $-1 #
edge $-1 $154 11.92261595442633 $217 26.183778832578636 $152 $218 forward 7 unknown #
vertex $-1 $153 $219 #
vertex $-1 $151 $220 #
straight-curve $-1 -30.975813347928813 -3.2266920806243569 0 0 0 -1 I I #
coedge $-1 $146 $88 $93 $167 forward $80 $-1 #
coedge $-1 $88 $146 $147 $211 forward $80 $-1 #
vertex $-1 $89 $221 #
straight-curve $-1 -19.053197393502483 -7.7573405469544632 -11.082261477197227 -1 0 0 I I #
coedge $-1 $152 $90 $148 $212 forward $144 $-1 #
coedge $-1 $90 $152 $92 $166 forward $144 $-1 #
vertex $-1 $91 $222 #
straight-curve $-1 -19.053197393502483 -7.7573405469544632 11.082261477197227 1 0 0 I I #
coedge $-1 $93 $92 $150 $214 forward $94 $-1 #
edge $-1 $217 3.2266920806243569 $96 7.7573405469544632 $92 $223 forward 7 unknown #
edge $-1 $95 -7.7573405469544632 $215 -3.2266920806243569 $93 $224 forward 7 unknown #
point $-1 -45.236976226081119 -7.7573405469544632 -11.082261477197227 #
point $-1 -45.236976226081119 -7.7573405469544632 11.082261477197227 #
face $-1 $-1 $180 $11 $-1 $225 reversed single #
loop $-1 $-1 $177 $98 #
plane-surface $-1 0 0 11.082261477197227 0 0 1 1 0 0 forward_v I I I I #
coedge $-1 $101 $184 $226 $227 reversed $53 $-1 #
coedge $-1 $103 $102 $101 $175 reversed $33 $-1 #
edge $-1 $228 -6.457538758421598 $185 -2.7919066791296592 $101 $229 forward 7 unknown #
edge $-1 $185 -25.39121503501881 $181 25.39121503501881 $102 $230 forward 7 unknown #
coedge $-1 $226 $231 $103 $178 forward $171 $-1 #
edge $-1 $182 -25.39121503501881 $228 25.39121503501881 $177 $232 forward 7 unknown #
coedge $-1 $187 $104 $231 $233 reversed $180 $-1 #
loop $-1 $-1 $104 $170 #
vertex $-1 $110 $234 #
vertex $-1 $105 $235 #
straight-curve $-1 36.240264658321124 25.39121503501881 4.6247227187756286 0 0 1 I I #
coedge $-1 $173 $107 $112 $191 reversed $53 $-1 #
vertex $-1 $108 $236 #
straight-curve $-1 20.369310221100559 -25.39121503501881 7.4166293979052877 1 0 0 I I #
coedge $-1 $109 $179 $111 $190 forward $180 $-1 #
straight-curve $-1 20.369310221100559 25.39121503501881 7.4166293979052877 -1 0 0 I I #
coedge $-1 $112 $111 $237 $238 reversed $99 $-1 #
edge $-1 $239 -11.082261477197227 $114 -7.4166293979052877 $111 $240 forward 7 unknown #
edge $-1 $241 -11.082261477197227 $113 -7.4166293979052877 $112 $242 forward 7 unknown #
point $-1 45.236976226081111 -25.39121503501881 7.4166293979052877 #
point $-1 45.236976226081111 25.39121503501881 7.4166293979052877 #
plane-surface $-1 45.236976226081119 0 0 -1 0 0 0 0 1 forward_v I I I I #
coedge $-1 $121 $119 $123 $199 reversed $61 $-1 #
edge $-1 $134 -11.082261477197227 $201 11.082261477197227 $133 $243 forward 7 unknown #
vertex $-1 $199 $244 #
straight-curve $-1 -45.236976226081119 -25.39121503501881 0 0 0 -1 I I #
edge $-1 $197 -25.39121503501881 $201 25.39121503501881 $195 $245 forward 7 unknown #
straight-curve $-1 0 -25.39121503501881 -11.082261477197227 -1 0 0 I I #
vertex $-1 $126 $246 #
straight-curve $-1 0 25.39121503501881 -11.082261477197227 1 0 0 I I #
point $-1 45.236976226081119 25.39121503501881 -11.082261477197227 #
point $-1 45.236976226081119 -25.39121503501881 -11.082261477197227 #
straight-curve $-1 -45.236976226081119 0 11.082261477197227 0 -1 0 I I #
point $-1 -45.236976226081119 25.39121503501881 11.082261477197227 #
point $-1 -45.236976226081119 -25.39121503501881 11.082261477197227 #
straight-curve $-1 45.236976226081119 -25.39121503501881 0 0 0 -1 I I #
straight-curve $-1 45.236976226081119 25.39121503501881 0 0 0 -1 I I #
plane-surface $-1 -45.236976226081119 0 0 1 0 0 0 0 -1 forward_v I I I I #
edge $-1 $155 0.48068392372965185 $159 5.0113323900597582 $158 $247 forward 7 unknown #
edge $-1 $163 -5.0113323900597582 $154 -0.48068392372965185 $161 $248 forward 7 unknown #
straight-curve $-1 -30.975813347928813 -7.7573405469544632 0 0 0 -1 I I #
edge $-1 $217 -11.082261477197227 $215 11.082261477197227 $165 $249 forward 7 unknown #
vertex $-1 $214 $250 #
straight-curve $-1 -19.053197393502483 -3.2266920806243569 -11.082261477197227 1 0 0 I I #
vertex $-1 $166 $251 #
straight-curve $-1 -19.053197393502483 -3.2266920806243569 11.082261477197227 -1 0 0 I I #
point $-1 -30.975813347928813 -3.2266920806243569 11.082261477197227 #
point $-1 -30.975813347928813 -3.2266920806243569 -11.082261477197227 #
point $-1 -30.975813347928813 -7.7573405469544632 -11.082261477197227 #
point $-1 -30.975813347928813 -7.7573405469544632 11.082261477197227 #
straight-curve $-1 -45.236976226081119 0 11.082261477197227 0 -1 0 I I #
straight-curve $-1 -45.236976226081119 0 -11.082261477197227 0 1 0 I I #
plane-surface $-1 0 25.39121503501881 0 0 -1 0 0 0 -1 forward_v I I I I #
coedge $-1 $237 $177 $173 $227 forward $171 $-1 #
edge $-1 $228 36.240264658321124 $241 45.236976226081119 $173 $252 forward 7 unknown #
vertex $-1 $227 $253 #
straight-curve $-1 36.240264658321124 -25.39121503501881 4.6247227187756286 0 0 -1 I I #
straight-curve $-1 36.240264658321124 0 7.4166293979052877 0 1 0 I I #
coedge $-1 $177 $237 $179 $233 forward $171 $-1 #
straight-curve $-1 36.240264658321124 0 11.082261477197227 0 -1 0 I I #
edge $-1 $239 -45.236976226081119 $182 -36.240264658321124 $179 $254 forward 7 unknown #
point $-1 36.240264658321124 25.39121503501881 7.4166293979052877 #
point $-1 36.240264658321124 25.39121503501881 11.082261477197227 #
point $-1 36.240264658321124 -25.39121503501881 7.4166293979052877 #
coedge $-1 $231 $226 $189 $238 forward $171 $-1 #
edge $-1 $241 -25.39121503501881 $239 25.39121503501881 $189 $255 forward 7 unknown #
vertex $-1 $238 $256 #
straight-curve $-1 45.236976226081119 25.39121503501881 0 0 0 -1 I I #
vertex $-1 $238 $257 #
straight-curve $-1 45.236976226081119 -25.39121503501881 0 0 0 -1 I I #
straight-curve $-1 -45.236976226081119 25.39121503501881 0 0 0 -1 I I #
point $-1 -45.236976226081119 -25.39121503501881 -11.082261477197227 #
straight-curve $-1 -45.236976226081119 0 -11.082261477197227 0 1 0 I I #
point $-1 -45.236976226081119 25.39121503501881 -11.082261477197227 #
straight-curve $-1 -30.975813347928813 -2.746008156894705 -11.082261477197227 0 -1 0 I I #
straight-curve $-1 -30.975813347928813 -2.746008156894705 11.082261477197227 0 1 0 I I #
straight-curve $-1 -45.236976226081119 -3.2266920806243569 0 0 0 -1 I I #
point $-1 -45.236976226081119 -3.2266920806243569 -11.082261477197227 #
point $-1 -45.236976226081119 -3.2266920806243569 11.082261477197227 #
straight-curve $-1 0 -25.39121503501881 11.082261477197227 1 0 0 I I #
point $-1 36.240264658321124 -25.39121503501881 11.082261477197227 #
straight-curve $-1 0 25.39121503501881 11.082261477197227 -1 0 0 I I #
straight-curve $-1 45.236976226081119 0 11.082261477197227 0 1 0 I I #
point $-1 45.236976226081119 25.39121503501881 11.082261477197227 #
point $-1 45.236976226081119 -25.39121503501881 11.082261477197227 #
End-of-ACIS-data 