500 0 10 0           
7 Unknown 11 ACIS 5.0 NT 24 Fri Mar 26 17:54:09 1999 
-1 9.9999999999999995e-007 1e-010 
body $-1 $10 $-1 $11 #
body $-1 $12 $-1 $13 #
body $-1 $14 $-1 $15 #
body $-1 $16 $-1 $17 #
body $-1 $18 $-1 $19 #
body $-1 $20 $-1 $21 #
body $-1 $22 $-1 $23 #
body $-1 $24 $-1 $25 #
body $-1 $26 $-1 $27 #
body $-1 $28 $-1 $29 #
lump $-1 $-1 $30 $0 #
transform $-1 1 0 0 0 1 0 0 0 1 79.280983916745498 54.182879901523087 18.80749654908729 1 rotate no_reflect no_shear #
lump $-1 $-1 $31 $1 #
transform $-1 1 0 0 0 1 0 0 0 1 79.280983916745498 54.182879901523087 18.80749654908729 1 rotate no_reflect no_shear #
lump $-1 $-1 $32 $2 #
transform $-1 1 0 0 0 1 0 0 0 1 79.280983916745498 54.182879901523087 18.80749654908729 1 rotate no_reflect no_shear #
lump $-1 $-1 $33 $3 #
transform $-1 1 0 0 0 1 0 0 0 1 79.280983916745498 54.182879901523087 18.80749654908729 1 rotate no_reflect no_shear #
lump $-1 $-1 $34 $4 #
transform $-1 1 0 0 0 1 0 0 0 1 79.280983916745498 54.182879901523087 18.80749654908729 1 rotate no_reflect no_shear #
lump $-1 $-1 $35 $5 #
transform $-1 1 0 0 0 1 0 0 0 1 79.280983916745498 54.182879901523087 18.80749654908729 1 rotate no_reflect no_shear #
lump $-1 $-1 $36 $6 #
transform $-1 1 0 0 0 1 0 0 0 1 79.280983916745498 54.182879901523087 18.80749654908729 1 rotate no_reflect no_shear #
lump $-1 $-1 $37 $7 #
transform $-1 1 0 0 0 1 0 0 0 1 79.280983916745498 54.182879901523087 18.80749654908729 1 rotate no_reflect no_shear #
lump $-1 $-1 $38 $8 #
transform $-1 1 0 0 0 1 0 0 0 1 79.280983916745498 54.182879901523087 18.80749654908729 1 rotate no_reflect no_shear #
lump $-1 $-1 $39 $9 #
transform $-1 1 0 0 0 1 0 0 0 1 79.280983916745498 54.182879901523087 18.80749654908729 1 rotate no_reflect no_shear #
shell $-1 $-1 $-1 $40 $-1 $10 #
shell $-1 $-1 $-1 $41 $-1 $12 #
shell $-1 $-1 $-1 $42 $-1 $14 #
shell $-1 $-1 $-1 $43 $-1 $16 #
shell $-1 $-1 $-1 $44 $-1 $18 #
shell $-1 $-1 $-1 $45 $-1 $20 #
shell $-1 $-1 $-1 $46 $-1 $22 #
shell $-1 $-1 $-1 $47 $-1 $24 #
shell $-1 $-1 $-1 $48 $-1 $26 #
shell $-1 $-1 $-1 $49 $-1 $28 #
face $-1 $50 $51 $30 $-1 $52 forward single #
face $-1 $53 $54 $31 $-1 $55 forward single #
face $-1 $56 $57 $32 $-1 $58 forward single #
face $-1 $59 $60 $33 $-1 $61 reversed single #
face $-1 $62 $63 $34 $-1 $64 forward single #
face $-1 $65 $66 $35 $-1 $67 forward single #
face $-1 $68 $69 $36 $-1 $70 reversed single #
face $-1 $71 $72 $37 $-1 $73 forward single #
face $-1 $74 $75 $38 $-1 $76 forward single #
face $-1 $77 $78 $39 $-1 $79 forward single #
face $-1 $80 $81 $30 $-1 $82 reversed single #
loop $-1 $-1 $83 $40 #
plane-surface $-1 0 0 18.80749654908729 0 0 1 1 0 0 forward_v I I I I #
face $-1 $84 $85 $31 $-1 $86 forward single #
loop $-1 $-1 $87 $41 #
plane-surface $-1 0 -54.182879901523087 0 0 1 0 0 0 1 forward_v I I I I #
face $-1 $88 $89 $32 $-1 $90 forward single #
loop $-1 $-1 $91 $42 #
plane-surface $-1 0 54.182879901523087 0 0 -1 0 0 0 -1 forward_v I I I I #
face $-1 $92 $93 $33 $-1 $94 reversed single #
loop $-1 $-1 $95 $43 #
plane-surface $-1 36.493884107021273 32.681782625696357 220.34295264867743 0 -1 0 -0.55919291073839883 0 -0.82903756765294845 forward_v I I I I #
face $-1 $96 $97 $34 $-1 $98 forward single #
loop $-1 $99 $100 $44 #
cone-surface $-1 65.144159123025702 22.899857087601497 8.9811460635454772 -0.55919291073839883 0 -0.82903756765294845 0.82903756765294845 0 -0.55919291073839883 1 I I 0 1 1 forward I I I I #
face $-1 $101 $102 $35 $-1 $103 forward single #
loop $-1 $104 $105 $45 #
cone-surface $-1 65.144159123025702 28.769012410458423 8.9811460635454772 -0.55919291073839883 0 -0.82903756765294845 0.82903756765294845 0 -0.55919291073839883 1 I I 0 1 1 forward I I I I #
face $-1 $106 $107 $36 $-1 $108 reversed single #
loop $-1 $-1 $109 $46 #
plane-surface $-1 -197.11549114280029 9.7992855272161457 120.3185124940947 0 1 0 -0.74314483375859142 0 0.66913059716165679 forward_v I I I I #
face $-1 $110 $111 $37 $-1 $112 forward single #
loop $-1 $113 $114 $47 #
cone-surface $-1 -76.24798153266353 13.18040657365534 15.642410951318972 0.74314483375859142 0 -0.66913059716165679 1.0036958957424851 0 1.1147172506378871 1 I I 0 1 1.5 forward I I I I #
face $-1 $115 $116 $38 $-1 $117 forward single #
loop $-1 $118 $119 $48 #
cone-surface $-1 -76.24798153266353 18.252088143314133 15.642410951318972 0.74314483375859142 0 -0.66913059716165679 1.0036958957424851 0 1.1147172506378871 1 I I 0 1 1.5 forward I I I I #
face $-1 $120 $121 $39 $-1 $122 forward single #
loop $-1 $123 $124 $49 #
cone-surface $-1 -76.24798153266353 23.323769712972926 15.642410951318972 0.74314483375859142 0 -0.66913059716165679 1.0036958957424851 0 1.1147172506378871 1 I I 0 1 1.5 forward I I I I #
face $-1 $125 $126 $30 $-1 $127 reversed single #
loop $-1 $-1 $128 $50 #
plane-surface $-1 0 0 -18.80749654908729 0 0 1 1 0 0 forward_v I I I I #
coedge $-1 $129 $130 $131 $132 forward $51 $-1 #
face $-1 $133 $134 $31 $-1 $135 reversed single #
loop $-1 $-1 $136 $53 #
plane-surface $-1 0 0 18.80749654908729 0 0 1 1 0 0 forward_v I I I I #
coedge $-1 $137 $138 $139 $140 forward $54 $-1 #
face $-1 $141 $142 $32 $-1 $143 reversed single #
loop $-1 $-1 $144 $56 #
plane-surface $-1 0 0 18.80749654908729 0 0 1 1 0 0 forward_v I I I I #
coedge $-1 $145 $146 $147 $148 forward $57 $-1 #
face $-1 $149 $150 $33 $-1 $151 reversed single #
loop $-1 $-1 $152 $59 #
plane-surface $-1 -52.172844218196929 25.834434749029946 88.889124513734998 0.55919291073839883 0 0.82903756765294845 0.82903756765294845 0 -0.55919291073839883 forward_v I I I I #
coedge $-1 $153 $154 $155 $156 reversed $60 $-1 #
face $-1 $-1 $157 $34 $-1 $158 forward single #
loop $-1 $159 $160 $62 #
cone-surface $-1 64.504509808659378 22.899857087601497 8.0328269744624379 -0.55919291073839883 0 -0.82903756765294845 0.41451878382647422 0 -0.27959645536919941 1 I I -0.70710678118654746 0.70710678118654746 0.5 forward I I I I #
loop $-1 $-1 $161 $44 #
coedge $-1 $100 $100 $162 $163 reversed $63 $-1 #
face $-1 $-1 $164 $35 $-1 $165 forward single #
loop $-1 $166 $167 $65 #
cone-surface $-1 64.504509808659378 28.769012410458423 8.0328269744624379 -0.55919291073839883 0 -0.82903756765294845 0.41451878382647422 0 -0.27959645536919941 1 I I -0.70710678118654746 0.70710678118654746 0.5 forward I I I I #
loop $-1 $-1 $168 $45 #
coedge $-1 $105 $105 $169 $170 reversed $66 $-1 #
face $-1 $171 $172 $36 $-1 $173 reversed single #
loop $-1 $-1 $174 $68 #
plane-surface $-1 -79.280983916745512 18.252088143314133 14.219848270543466 -0.74314483375859142 0 0.66913059716165679 0.66913059716165679 0 0.74314483375859142 forward_v I I I I #
coedge $-1 $175 $176 $177 $178 reversed $69 $-1 #
face $-1 $-1 $179 $37 $-1 $180 forward single #
loop $-1 $181 $182 $71 #
cone-surface $-1 -74.722989003767239 13.18040657365534 14.269301544951333 0.74314483375859142 0 -0.66913059716165679 0.50184794787124254 0 0.55735862531894353 1 I I -0.70710678118654757 0.70710678118654757 0.75 forward I I I I #
loop $-1 $-1 $183 $47 #
coedge $-1 $114 $114 $184 $185 reversed $72 $-1 #
face $-1 $-1 $186 $38 $-1 $187 forward single #
loop $-1 $188 $189 $74 #
cone-surface $-1 -74.722989003767239 18.252088143314133 14.269301544951333 0.74314483375859142 0 -0.66913059716165679 0.50184794787124254 0 0.55735862531894353 1 I I -0.70710678118654757 0.70710678118654757 0.75 forward I I I I #
loop $-1 $-1 $190 $48 #
coedge $-1 $119 $119 $191 $192 reversed $75 $-1 #
face $-1 $-1 $193 $39 $-1 $194 forward single #
loop $-1 $195 $196 $77 #
cone-surface $-1 -74.722989003767239 23.323769712972926 14.269301544951333 0.74314483375859142 0 -0.66913059716165679 0.50184794787124254 0 0.55735862531894353 1 I I -0.70710678118654757 0.70710678118654757 0.75 forward I I I I #
loop $-1 $-1 $197 $49 #
coedge $-1 $124 $124 $198 $199 reversed $78 $-1 #
face $-1 $200 $201 $30 $-1 $202 reversed single #
loop $-1 $-1 $203 $80 #
plane-surface $-1 0 -54.182879901523087 0 0 1 0 0 0 1 forward_v I I I I #
coedge $-1 $204 $205 $206 $207 forward $81 $-1 #
coedge $-1 $208 $83 $209 $210 forward $51 $-1 #
coedge $-1 $83 $208 $211 $212 forward $51 $-1 #
coedge $-1 $213 $214 $83 $132 reversed $215 $-1 #
edge $-1 $216 -54.182879901523087 $217 54.182879901523087 $131 $218 forward 7 unknown #
face $-1 $219 $220 $31 $-1 $221 reversed single #
loop $-1 $-1 $222 $84 #
plane-surface $-1 -79.280983916745498 0 0 1 0 0 0 0 -1 forward_v I I I I #
coedge $-1 $223 $224 $138 $225 forward $85 $-1 #
coedge $-1 $226 $87 $227 $228 reversed $54 $-1 #
coedge $-1 $87 $226 $136 $225 reversed $54 $-1 #
coedge $-1 $229 $230 $87 $140 reversed $231 $-1 #
edge $-1 $232 -18.80749654908729 $233 18.80749654908729 $139 $234 forward 7 unknown #
face $-1 $235 $236 $32 $-1 $237 reversed single #
loop $-1 $-1 $238 $88 #
plane-surface $-1 -73.794856631188964 68.171738220715454 0 0 -1 0 0 0 -1 forward_v I I I I #
coedge $-1 $239 $240 $145 $241 forward $89 $-1 #
coedge $-1 $242 $91 $144 $241 reversed $57 $-1 #
coedge $-1 $91 $242 $243 $244 reversed $57 $-1 #
coedge $-1 $245 $246 $91 $148 reversed $236 $-1 #
edge $-1 $247 -18.80749654908729 $248 18.80749654908729 $147 $249 forward 7 unknown #
face $-1 $250 $251 $33 $-1 $252 forward single #
loop $-1 $-1 $253 $92 #
plane-surface $-1 36.493884107021273 18.987086872363534 220.34295264867743 0 1 0 0.55919291073839883 0 0.82903756765294845 forward_v I I I I #
coedge $-1 $254 $255 $256 $257 reversed $93 $-1 #
coedge $-1 $154 $95 $258 $259 reversed $60 $-1 #
coedge $-1 $95 $153 $254 $260 reversed $60 $-1 #
coedge $-1 $256 $261 $95 $156 forward $251 $-1 #
edge $-1 $262 -61.034041863234862 $263 -33.480497993789541 $155 $264 forward 7 unknown #
loop $-1 $-1 $162 $96 #
plane-surface $-1 -52.172844218196929 25.834434749029946 88.889124513734998 0.55919291073839883 0 0.82903756765294845 0.82903756765294845 0 -0.55919291073839883 forward_v I I I I #
loop $-1 $-1 $265 $62 #
coedge $-1 $160 $160 $161 $266 reversed $97 $-1 #
coedge $-1 $161 $161 $160 $266 forward $99 $-1 #
coedge $-1 $162 $162 $100 $163 forward $157 $-1 #
edge $-1 $267 0 $267 6.2831853071796004 $162 $268 forward 7 unknown #
loop $-1 $-1 $169 $101 #
plane-surface $-1 -52.172844218196929 25.834434749029946 88.889124513734998 0.55919291073839883 0 0.82903756765294845 0.82903756765294845 0 -0.55919291073839883 forward_v I I I I #
loop $-1 $-1 $269 $65 #
coedge $-1 $167 $167 $168 $270 reversed $102 $-1 #
coedge $-1 $168 $168 $167 $270 forward $104 $-1 #
coedge $-1 $169 $169 $105 $170 forward $164 $-1 #
edge $-1 $271 0 $271 6.2831853071796004 $169 $272 forward 7 unknown #
face $-1 $273 $274 $36 $-1 $275 reversed single #
loop $-1 $-1 $276 $106 #
plane-surface $-1 -197.11549114280029 26.70489075941212 120.3185124940947 0 -1 0 0.74314483375859142 0 -0.66913059716165679 forward_v I I I I #
coedge $-1 $277 $278 $279 $280 reversed $107 $-1 #
coedge $-1 $176 $109 $281 $282 reversed $69 $-1 #
coedge $-1 $109 $175 $277 $283 reversed $69 $-1 #
coedge $-1 $279 $284 $109 $178 forward $285 $-1 #
edge $-1 $286 19.276761654654649 $287 23.407498615663869 $177 $288 forward 7 unknown #
loop $-1 $-1 $184 $110 #
plane-surface $-1 -79.280983916745512 18.252088143314133 14.219848270543466 -0.74314483375859142 0 0.66913059716165679 0.66913059716165679 0 0.74314483375859142 forward_v I I I I #
loop $-1 $-1 $289 $71 #
coedge $-1 $182 $182 $183 $290 reversed $111 $-1 #
coedge $-1 $183 $183 $182 $290 forward $113 $-1 #
coedge $-1 $184 $184 $114 $185 forward $179 $-1 #
edge $-1 $291 0 $291 6.2831853071796004 $184 $292 forward 7 unknown #
loop $-1 $-1 $191 $115 #
plane-surface $-1 -79.280983916745512 18.252088143314133 14.219848270543466 -0.74314483375859142 0 0.66913059716165679 0.66913059716165679 0 0.74314483375859142 forward_v I I I I #
loop $-1 $-1 $293 $74 #
coedge $-1 $189 $189 $190 $294 reversed $116 $-1 #
coedge $-1 $190 $190 $189 $294 forward $118 $-1 #
coedge $-1 $191 $191 $119 $192 forward $186 $-1 #
edge $-1 $295 0 $295 6.2831853071796004 $191 $296 forward 7 unknown #
loop $-1 $-1 $198 $120 #
plane-surface $-1 -79.280983916745512 18.252088143314133 14.219848270543466 -0.74314483375859142 0 0.66913059716165679 0.66913059716165679 0 0.74314483375859142 forward_v I I I I #
loop $-1 $-1 $297 $77 #
coedge $-1 $196 $196 $197 $298 reversed $121 $-1 #
coedge $-1 $197 $197 $196 $298 forward $123 $-1 #
coedge $-1 $198 $198 $124 $199 forward $193 $-1 #
edge $-1 $299 0 $299 6.2831853071796004 $198 $300 forward 7 unknown #
face $-1 $301 $302 $30 $-1 $303 reversed single #
loop $-1 $-1 $304 $125 #
plane-surface $-1 -79.280983916745498 0 0 1 0 0 0 0 -1 forward_v I I I I #
coedge $-1 $305 $211 $306 $307 forward $126 $-1 #
coedge $-1 $308 $128 $305 $309 forward $81 $-1 #
coedge $-1 $128 $308 $310 $311 forward $81 $-1 #
coedge $-1 $214 $213 $128 $207 reversed $215 $-1 #
edge $-1 $312 -54.182879901523087 $313 54.182879901523087 $206 $314 forward 7 unknown #
coedge $-1 $130 $129 $315 $316 forward $51 $-1 #
coedge $-1 $317 $318 $129 $210 reversed $302 $-1 #
edge $-1 $217 -79.280983916745498 $319 79.280983916745498 $209 $320 forward 7 unknown #
coedge $-1 $203 $321 $130 $212 reversed $126 $-1 #
edge $-1 $322 -79.280983916745498 $216 79.280983916745498 $211 $323 forward 7 unknown #
coedge $-1 $206 $131 $321 $324 forward $215 $-1 #
coedge $-1 $131 $206 $317 $325 reversed $215 $-1 #
loop $-1 $-1 $213 $301 #
vertex $-1 $132 $326 #
vertex $-1 $132 $327 #
straight-curve $-1 79.280983916745498 0 18.80749654908729 0 1 0 I I #
face $-1 $328 $231 $31 $-1 $329 reversed single #
loop $-1 $-1 $330 $133 #
plane-surface $-1 -73.794856631188964 -68.171738220715469 0 0 1 0 0 0 1 forward_v I I I I #
coedge $-1 $331 $332 $226 $333 forward $134 $-1 #
coedge $-1 $334 $136 $332 $335 forward $85 $-1 #
coedge $-1 $136 $334 $229 $336 forward $85 $-1 #
edge $-1 $232 68.308729345632429 $337 79.280983916745498 $136 $338 forward 7 unknown #
coedge $-1 $138 $137 $222 $333 reversed $54 $-1 #
coedge $-1 $339 $340 $137 $228 forward $341 $-1 #
edge $-1 $342 -79.280983916745498 $233 -68.308729345632429 $227 $343 forward 7 unknown #
coedge $-1 $344 $139 $224 $336 reversed $231 $-1 #
coedge $-1 $139 $344 $339 $345 reversed $231 $-1 #
loop $-1 $-1 $344 $219 #
vertex $-1 $225 $346 #
vertex $-1 $345 $347 #
straight-curve $-1 -68.308729345632429 -54.182879901523087 0 0 0 -1 I I #
face $-1 $348 $349 $32 $-1 $350 reversed single #
loop $-1 $-1 $147 $141 #
plane-surface $-1 -68.308729345632429 61.177309061119267 0 -1 0 0 0 0 1 forward_v I I I I #
coedge $-1 $351 $352 $353 $354 forward $142 $-1 #
coedge $-1 $355 $144 $246 $356 forward $89 $-1 #
coedge $-1 $144 $355 $357 $358 forward $89 $-1 #
edge $-1 $359 -79.280983916745498 $248 -68.308729345632429 $144 $360 forward 7 unknown #
coedge $-1 $146 $145 $361 $362 reversed $57 $-1 #
coedge $-1 $363 $364 $146 $244 forward $349 $-1 #
edge $-1 $247 68.308729345632429 $365 79.280983916745498 $243 $366 forward 7 unknown #
coedge $-1 $353 $147 $364 $367 reversed $236 $-1 #
coedge $-1 $147 $353 $239 $356 reversed $236 $-1 #
vertex $-1 $244 $368 #
vertex $-1 $356 $369 #
straight-curve $-1 -68.308729345632429 54.182879901523087 0 0 0 1 I I #
face $-1 $-1 $370 $33 $-1 $371 reversed single #
loop $-1 $-1 $155 $149 #
plane-surface $-1 0 0 18.80749654908729 0 0 1 1 0 0 forward_v I I I I #
coedge $-1 $372 $373 $374 $375 reversed $150 $-1 #
coedge $-1 $376 $152 $154 $260 forward $93 $-1 #
coedge $-1 $152 $376 $372 $377 forward $93 $-1 #
coedge $-1 $374 $155 $152 $257 forward $251 $-1 #
edge $-1 $263 -19.764565251181384 $378 -6.0698694978485612 $256 $379 forward 7 unknown #
coedge $-1 $380 $381 $153 $259 forward $370 $-1 #
edge $-1 $382 -109.94908013582192 $262 -91.363979775251423 $258 $383 forward 7 unknown #
edge $-1 $263 125.32638847675454 $382 158.561967833491 $154 $384 forward 7 unknown #
coedge $-1 $155 $374 $380 $385 forward $251 $-1 #
vertex $-1 $156 $386 #
vertex $-1 $156 $387 #
straight-curve $-1 18.246942053510637 32.681782625696357 18.80749654908729 -1 0 0 I I #
coedge $-1 $265 $265 $-1 $388 reversed $159 $-1 #
edge $-1 $389 0 $389 6.2831853071796004 $160 $390 forward 7 unknown #
vertex $-1 $163 $391 #
ellipse-curve $-1 65.504211982022824 22.899857087601497 9.5149463688020521 0.55919291073839883 0 0.82903756765294845 0.82903756765294845 0 -0.55919291073839883 1 I I #
coedge $-1 $269 $269 $-1 $392 reversed $166 $-1 #
edge $-1 $393 0 $393 6.2831853071796004 $167 $394 forward 7 unknown #
vertex $-1 $170 $395 #
ellipse-curve $-1 65.504211982022824 28.769012410458423 9.5149463688020521 0.55919291073839883 0 0.82903756765294845 0.82903756765294845 0 -0.55919291073839883 1 I I #
face $-1 $-1 $285 $36 $-1 $396 forward single #
loop $-1 $-1 $397 $171 #
plane-surface $-1 -79.280983916745498 0 0 1 0 0 0 0 -1 forward_v I I I I #
coedge $-1 $398 $399 $400 $401 reversed $172 $-1 #
coedge $-1 $402 $174 $176 $283 forward $107 $-1 #
coedge $-1 $174 $402 $398 $403 forward $107 $-1 #
coedge $-1 $400 $177 $174 $280 forward $285 $-1 #
edge $-1 $287 0.67324145555907933 $404 17.578846687755053 $279 $405 forward 7 unknown #
coedge $-1 $406 $407 $175 $282 forward $274 $-1 #
edge $-1 $408 -45.939407976503873 $286 -41.351759697960063 $281 $409 forward 7 unknown #
edge $-1 $287 -6.1732896067391749 $408 -2.1389731374768986e-014 $176 $410 forward 7 unknown #
coedge $-1 $177 $400 $406 $411 forward $285 $-1 #
loop $-1 $-1 $400 $273 #
vertex $-1 $282 $412 #
vertex $-1 $178 $413 #
straight-curve $-1 -98.557745571400147 9.7992855272161457 18.80749654908729 1 0 0 I I #
coedge $-1 $289 $289 $-1 $414 reversed $181 $-1 #
edge $-1 $415 0 $415 6.2831853071796004 $182 $416 forward 7 unknown #
vertex $-1 $185 $417 #
ellipse-curve $-1 -77.215615436240896 13.18040657365534 16.513672409815385 -0.74314483375859142 0 0.66913059716165679 1.0036958957424851 0 1.1147172506378871 1 I I #
coedge $-1 $293 $293 $-1 $418 reversed $188 $-1 #
edge $-1 $419 0 $419 6.2831853071796004 $189 $420 forward 7 unknown #
vertex $-1 $192 $421 #
ellipse-curve $-1 -77.215615436240896 18.252088143314133 16.513672409815385 -0.74314483375859142 0 0.66913059716165679 1.0036958957424851 0 1.1147172506378871 1 I I #
coedge $-1 $297 $297 $-1 $422 reversed $195 $-1 #
edge $-1 $423 0 $423 6.2831853071796004 $196 $424 forward 7 unknown #
vertex $-1 $199 $425 #
ellipse-curve $-1 -77.215615436240896 23.323769712972926 16.513672409815385 -0.74314483375859142 0 0.66913059716165679 1.0036958957424851 0 1.1147172506378871 1 I I #
face $-1 $-1 $215 $30 $-1 $426 reversed single #
loop $-1 $-1 $317 $200 #
plane-surface $-1 0 54.182879901523087 0 0 -1 0 0 0 -1 forward_v I I I I #
coedge $-1 $427 $315 $318 $428 forward $201 $-1 #
coedge $-1 $321 $203 $204 $309 reversed $126 $-1 #
coedge $-1 $315 $427 $203 $307 reversed $201 $-1 #
edge $-1 $322 -18.80749654908729 $429 18.80749654908729 $306 $430 forward 7 unknown #
coedge $-1 $205 $204 $427 $431 forward $81 $-1 #
edge $-1 $313 -79.280983916745498 $429 79.280983916745498 $305 $432 forward 7 unknown #
coedge $-1 $318 $317 $205 $311 reversed $302 $-1 #
edge $-1 $433 -79.280983916745498 $312 79.280983916745498 $310 $434 forward 7 unknown #
vertex $-1 $207 $435 #
vertex $-1 $324 $436 #
straight-curve $-1 79.280983916745498 0 -18.80749654908729 0 -1 0 I I #
coedge $-1 $304 $306 $208 $316 reversed $201 $-1 #
edge $-1 $319 -54.182879901523087 $322 54.182879901523087 $315 $437 forward 7 unknown #
coedge $-1 $310 $209 $214 $325 forward $302 $-1 #
coedge $-1 $209 $310 $304 $428 reversed $302 $-1 #
vertex $-1 $210 $438 #
straight-curve $-1 0 54.182879901523087 18.80749654908729 -1 0 0 I I #
coedge $-1 $211 $305 $213 $324 reversed $126 $-1 #
vertex $-1 $316 $439 #
straight-curve $-1 0 -54.182879901523087 18.80749654908729 1 0 0 I I #
edge $-1 $216 -18.80749654908729 $313 18.80749654908729 $213 $440 forward 7 unknown #
edge $-1 $217 -18.80749654908729 $312 18.80749654908729 $214 $441 forward 7 unknown #
point $-1 79.280983916745498 -54.182879901523087 18.80749654908729 #
point $-1 79.280983916745498 54.182879901523087 18.80749654908729 #
face $-1 $-1 $341 $31 $-1 $442 reversed single #
plane-surface $-1 -68.308729345632429 -61.177309061119274 0 -1 0 0 0 0 1 forward_v I I I I #
coedge $-1 $443 $444 $445 $446 forward $220 $-1 #
coedge $-1 $445 $222 $340 $447 reversed $134 $-1 #
coedge $-1 $222 $445 $223 $335 reversed $134 $-1 #
edge $-1 $337 -18.80749654908729 $342 18.80749654908729 $222 $448 forward 7 unknown #
coedge $-1 $224 $223 $444 $449 forward $85 $-1 #
edge $-1 $337 54.182879901523087 $450 68.171738220715469 $332 $451 forward 7 unknown #
edge $-1 $452 -6.9944291595961943 $232 6.9944291595961872 $229 $453 forward 7 unknown #
vertex $-1 $335 $454 #
straight-curve $-1 0 -54.182879901523087 18.80749654908729 -1 0 0 I I #
coedge $-1 $455 $227 $230 $345 forward $341 $-1 #
coedge $-1 $227 $455 $331 $447 forward $341 $-1 #
loop $-1 $-1 $227 $328 #
vertex $-1 $333 $456 #
straight-curve $-1 0 -54.182879901523087 -18.80749654908729 1 0 0 I I #
coedge $-1 $230 $229 $457 $458 forward $231 $-1 #
edge $-1 $233 -6.9944291595961872 $459 6.9944291595961943 $230 $460 forward 7 unknown #
point $-1 -68.308729345632429 -54.182879901523087 18.80749654908729 #
point $-1 -68.308729345632429 -54.182879901523087 -18.80749654908729 #
face $-1 $-1 $461 $32 $-1 $462 reversed single #
loop $-1 $-1 $243 $235 #
plane-surface $-1 0 0 -18.80749654908729 0 0 1 1 0 0 forward_v I I I I #
coedge $-1 $463 $238 $464 $465 reversed $142 $-1 #
coedge $-1 $238 $463 $355 $466 reversed $142 $-1 #
coedge $-1 $246 $245 $238 $354 reversed $236 $-1 #
edge $-1 $467 -18.80749654908729 $468 18.80749654908729 $353 $469 forward 7 unknown #
coedge $-1 $240 $239 $352 $466 forward $89 $-1 #
edge $-1 $248 -6.9944291595961872 $467 6.9944291595961872 $246 $470 forward 7 unknown #
coedge $-1 $471 $361 $240 $358 reversed $461 $-1 #
edge $-1 $472 -68.171738220715454 $359 -54.182879901523087 $357 $473 forward 7 unknown #
vertex $-1 $362 $474 #
straight-curve $-1 0 54.182879901523087 18.80749654908729 1 0 0 I I #
coedge $-1 $357 $475 $242 $362 forward $461 $-1 #
edge $-1 $365 -18.80749654908729 $359 18.80749654908729 $361 $476 forward 7 unknown #
coedge $-1 $464 $243 $475 $477 forward $349 $-1 #
coedge $-1 $243 $464 $245 $367 forward $349 $-1 #
vertex $-1 $477 $478 #
straight-curve $-1 0 54.182879901523087 -18.80749654908729 -1 0 0 I I #
edge $-1 $468 -6.9944291595961872 $247 6.9944291595961872 $245 $479 forward 7 unknown #
point $-1 -68.308729345632429 54.18287990152308 -18.80749654908729 #
point $-1 -68.308729345632429 54.18287990152308 18.80749654908729 #
loop $-1 $-1 $258 $250 #
plane-surface $-1 79.280983916745498 0 0 -1 0 0 0 0 1 forward_v I I I I #
coedge $-1 $373 $253 $255 $377 reversed $150 $-1 #
coedge $-1 $253 $372 $480 $481 reversed $150 $-1 #
coedge $-1 $261 $256 $253 $375 forward $251 $-1 #
edge $-1 $378 33.480497993789541 $482 61.034041863234862 $374 $483 forward 7 unknown #
coedge $-1 $255 $254 $381 $484 reversed $93 $-1 #
edge $-1 $485 -158.561967833491 $378 -125.32638847675454 $372 $486 forward 7 unknown #
vertex $-1 $257 $487 #
straight-curve $-1 51.727440047300171 12.917217374514973 18.80749654908729 0 -1 0 I I #
coedge $-1 $480 $258 $261 $385 reversed $370 $-1 #
coedge $-1 $258 $480 $376 $484 forward $370 $-1 #
vertex $-1 $259 $488 #
straight-curve $-1 79.280983916745498 32.681782625696357 110.17147632433871 0 0 1 I I #
straight-curve $-1 -52.172844218196929 32.681782625696357 88.889124513734998 0.82903756765294845 0 -0.55919291073839883 I I #
edge $-1 $482 18.987086872363534 $262 32.681782625696357 $380 $489 forward 7 unknown #
point $-1 79.280983916745498 32.681782625696357 18.80749654908729 #
point $-1 51.727440047300178 32.681782625696357 18.80749654908729 #
edge $-1 $490 1 $490 0 $265 $-1 forward 7 unknown #
vertex $-1 $266 $491 #
ellipse-curve $-1 64.78410626402858 22.899857087601497 8.4473457582889129 0.55919291073839883 0 0.82903756765294845 0.82903756765294845 0 -0.55919291073839883 1 I I #
point $-1 66.33324954967577 22.899857087601497 8.9557534580636453 #
edge $-1 $492 1 $492 0 $269 $-1 forward 7 unknown #
vertex $-1 $270 $493 #
ellipse-curve $-1 64.78410626402858 28.769012410458423 8.4473457582889129 0.55919291073839883 0 0.82903756765294845 0.82903756765294845 0 -0.55919291073839883 1 I I #
point $-1 66.33324954967577 28.769012410458423 8.9557534580636453 #
plane-surface $-1 0 0 18.80749654908729 0 0 1 1 0 0 forward_v I I I I #
coedge $-1 $407 $406 $399 $494 forward $274 $-1 #
coedge $-1 $399 $276 $278 $403 reversed $172 $-1 #
coedge $-1 $276 $398 $397 $494 reversed $172 $-1 #
coedge $-1 $284 $279 $276 $401 forward $285 $-1 #
edge $-1 $404 -23.407498615663869 $495 -19.276761654654649 $400 $496 forward 7 unknown #
coedge $-1 $278 $277 $407 $497 reversed $107 $-1 #
edge $-1 $498 2.1389731374768986e-014 $404 6.1732896067391749 $398 $499 forward 7 unknown #
vertex $-1 $280 $500 #
straight-curve $-1 -75.150246955736279 9.1260440716570663 18.80749654908729 0 1 0 I I #
coedge $-1 $397 $281 $284 $411 reversed $274 $-1 #
coedge $-1 $281 $397 $402 $497 forward $274 $-1 #
vertex $-1 $282 $501 #
straight-curve $-1 -79.280983916745498 9.7992855272161457 60.159256247047352 0 0 1 I I #
straight-curve $-1 -79.280983916745512 9.7992855272161457 14.219848270543466 -0.66913059716165679 0 -0.74314483375859142 I I #
edge $-1 $495 -26.70489075941212 $286 -9.7992855272161457 $406 $502 forward 7 unknown #
point $-1 -79.280983916745498 9.7992855272161457 18.80749654908729 #
point $-1 -75.150246955736279 9.7992855272161457 18.80749654908729 #
edge $-1 $503 1 $503 0 $289 $-1 forward 7 unknown #
vertex $-1 $290 $504 #
ellipse-curve $-1 -75.280347629086179 13.18040657365534 14.771149492822575 -0.74314483375859142 0 0.66913059716165679 1.0036958957424851 0 1.1147172506378871 1 I I #
point $-1 -76.211919540498386 13.18040657365534 17.628389660453255 #
edge $-1 $505 1 $505 0 $293 $-1 forward 7 unknown #
vertex $-1 $294 $506 #
ellipse-curve $-1 -75.280347629086179 18.252088143314133 14.771149492822575 -0.74314483375859142 0 0.66913059716165679 1.0036958957424851 0 1.1147172506378871 1 I I #
point $-1 -76.211919540498386 18.252088143314133 17.628389660453255 #
edge $-1 $507 1 $507 0 $297 $-1 forward 7 unknown #
vertex $-1 $298 $508 #
ellipse-curve $-1 -75.280347629086179 23.323769712972926 14.771149492822575 -0.74314483375859142 0 0.66913059716165679 1.0036958957424851 0 1.1147172506378871 1 I I #
point $-1 -76.211919540498386 23.323769712972926 17.628389660453255 #
plane-surface $-1 79.280983916745498 0 0 -1 0 0 0 0 1 forward_v I I I I #
coedge $-1 $306 $304 $308 $431 reversed $201 $-1 #
edge $-1 $319 -18.80749654908729 $433 18.80749654908729 $318 $509 forward 7 unknown #
vertex $-1 $431 $510 #
straight-curve $-1 -79.280983916745498 -54.182879901523087 0 0 0 -1 I I #
edge $-1 $429 -54.182879901523087 $433 54.182879901523087 $427 $511 forward 7 unknown #
straight-curve $-1 0 -54.182879901523087 -18.80749654908729 -1 0 0 I I #
vertex $-1 $311 $512 #
straight-curve $-1 0 54.182879901523087 -18.80749654908729 1 0 0 I I #
point $-1 79.280983916745498 54.182879901523087 -18.80749654908729 #
point $-1 79.280983916745498 -54.182879901523087 -18.80749654908729 #
straight-curve $-1 -79.280983916745498 0 18.80749654908729 0 -1 0 I I #
point $-1 -79.280983916745498 54.182879901523087 18.80749654908729 #
point $-1 -79.280983916745498 -54.182879901523087 18.80749654908729 #
straight-curve $-1 79.280983916745498 -54.182879901523087 0 0 0 -1 I I #
straight-curve $-1 79.280983916745498 54.182879901523087 0 0 0 -1 I I #
plane-surface $-1 0 0 -18.80749654908729 0 0 1 1 0 0 forward_v I I I I #
coedge $-1 $457 $330 $455 $513 reversed $220 $-1 #
coedge $-1 $330 $457 $334 $449 reversed $220 $-1 #
coedge $-1 $332 $331 $330 $446 reversed $134 $-1 #
edge $-1 $450 -18.80749654908729 $514 18.80749654908729 $445 $515 forward 7 unknown #
edge $-1 $514 -68.171738220715469 $342 -54.182879901523087 $331 $516 forward 7 unknown #
straight-curve $-1 -79.280983916745498 -54.182879901523087 0 0 0 -1 I I #
edge $-1 $450 -5.4861272855565346 $452 5.4861272855565346 $444 $517 forward 7 unknown #
vertex $-1 $335 $518 #
straight-curve $-1 -79.280983916745498 0 18.80749654908729 0 -1 0 I I #
vertex $-1 $336 $519 #
straight-curve $-1 -68.308729345632429 -61.177309061119274 18.80749654908729 0 1 0 I I #
point $-1 -79.280983916745498 -54.182879901523087 18.80749654908729 #
coedge $-1 $340 $339 $443 $513 forward $341 $-1 #
point $-1 -79.280983916745498 -54.182879901523087 -18.80749654908729 #
coedge $-1 $444 $443 $344 $458 reversed $220 $-1 #
edge $-1 $452 -18.80749654908729 $459 18.80749654908729 $344 $520 forward 7 unknown #
vertex $-1 $458 $521 #
straight-curve $-1 -68.308729345632429 -61.177309061119274 -18.80749654908729 0 -1 0 I I #
loop $-1 $-1 $361 $348 #
plane-surface $-1 -79.280983916745498 0 0 1 0 0 0 0 -1 forward_v I I I I #
coedge $-1 $352 $351 $471 $522 reversed $142 $-1 #
coedge $-1 $364 $363 $351 $465 forward $349 $-1 #
edge $-1 $523 -5.4861272855565346 $468 5.4861272855565346 $351 $524 forward 7 unknown #
edge $-1 $467 -5.4861272855565346 $472 5.4861272855565346 $352 $525 forward 7 unknown #
vertex $-1 $356 $526 #
vertex $-1 $367 $527 #
straight-curve $-1 -68.308729345632429 68.171738220715454 0 0 0 -1 I I #
straight-curve $-1 -68.308729345632429 61.177309061119267 18.80749654908729 0 1 0 I I #
coedge $-1 $475 $357 $463 $522 forward $461 $-1 #
vertex $-1 $466 $528 #
straight-curve $-1 -79.280983916745498 0 18.80749654908729 0 -1 0 I I #
point $-1 -79.280983916745498 54.182879901523087 18.80749654908729 #
coedge $-1 $361 $471 $363 $477 reversed $461 $-1 #
straight-curve $-1 -79.280983916745498 54.182879901523087 0 0 0 1 I I #
edge $-1 $365 -6.9944291595961801 $523 6.9944291595961872 $475 $529 forward 7 unknown #
point $-1 -79.280983916745498 54.182879901523087 -18.80749654908729 #
straight-curve $-1 -68.308729345632429 61.177309061119267 -18.80749654908729 0 -1 0 I I #
coedge $-1 $381 $380 $373 $481 forward $370 $-1 #
edge $-1 $482 91.363979775251423 $485 109.94908013582192 $480 $530 forward 7 unknown #
vertex $-1 $385 $531 #
straight-curve $-1 18.246942053510637 18.987086872363534 18.80749654908729 1 0 0 I I #
edge $-1 $485 6.0698694978485612 $382 19.764565251181384 $381 $532 forward 7 unknown #
vertex $-1 $484 $533 #
straight-curve $-1 -52.172844218196929 18.987086872363534 88.889124513734998 -0.82903756765294845 0 0.55919291073839883 I I #
point $-1 51.727440047300178 18.987086872363534 18.80749654908729 #
point $-1 79.280983916745498 32.681782625696357 0.22239618851679666 #
straight-curve $-1 79.280983916745498 0 18.80749654908729 0 1 0 I I #
vertex $-1 $388 $534 #
point $-1 65.613143831681526 22.899857087601497 7.8881528475505132 #
vertex $-1 $392 $535 #
point $-1 65.613143831681526 28.769012410458423 7.8881528475505132 #
edge $-1 $495 41.351759697960063 $498 45.939407976503873 $397 $536 forward 7 unknown #
vertex $-1 $411 $537 #
straight-curve $-1 -98.557745571400147 26.70489075941212 18.80749654908729 -1 0 0 I I #
edge $-1 $498 -17.578846687755053 $408 -0.67324145555907933 $407 $538 forward 7 unknown #
vertex $-1 $497 $539 #
straight-curve $-1 -79.280983916745512 26.70489075941212 14.219848270543466 0.66913059716165679 0 0.74314483375859142 I I #
point $-1 -75.150246955736279 26.70489075941212 18.80749654908729 #
point $-1 -79.280983916745498 9.7992855272161457 14.219848270543482 #
straight-curve $-1 -79.280983916745498 0 18.80749654908729 0 -1 0 I I #
vertex $-1 $414 $540 #
point $-1 -74.276651733343698 13.18040657365534 15.885866743460461 #
vertex $-1 $418 $541 #
point $-1 -74.276651733343698 18.252088143314133 15.885866743460461 #
vertex $-1 $422 $542 #
point $-1 -74.276651733343698 23.323769712972926 15.885866743460461 #
straight-curve $-1 -79.280983916745498 54.182879901523087 0 0 0 -1 I I #
point $-1 -79.280983916745498 -54.182879901523087 -18.80749654908729 #
straight-curve $-1 -79.280983916745498 0 -18.80749654908729 0 1 0 I I #
point $-1 -79.280983916745498 54.182879901523087 -18.80749654908729 #
edge $-1 $459 -5.4861272855565346 $514 5.4861272855565346 $443 $543 forward 7 unknown #
vertex $-1 $447 $544 #
straight-curve $-1 -79.280983916745498 -68.171738220715469 0 0 0 -1 I I #
straight-curve $-1 -79.280983916745498 0 -18.80749654908729 0 1 0 I I #
straight-curve $-1 -73.794856631188964 -68.171738220715469 18.80749654908729 1 0 0 I I #
point $-1 -79.280983916745498 -68.171738220715469 18.80749654908729 #
point $-1 -68.308729345632429 -68.171738220715469 18.80749654908729 #
straight-curve $-1 -68.308729345632429 -68.171738220715469 0 0 0 -1 I I #
point $-1 -68.308729345632429 -68.171738220715469 -18.80749654908729 #
edge $-1 $472 -18.80749654908729 $523 18.80749654908729 $463 $545 forward 7 unknown #
vertex $-1 $465 $546 #
straight-curve $-1 -73.794856631188964 68.171738220715454 -18.80749654908729 1 0 0 I I #
straight-curve $-1 -73.794856631188964 68.171738220715454 18.80749654908729 -1 0 0 I I #
point $-1 -68.308729345632429 68.171738220715454 18.80749654908729 #
point $-1 -68.308729345632429 68.171738220715454 -18.80749654908729 #
point $-1 -79.280983916745498 68.171738220715454 18.80749654908729 #
straight-curve $-1 -79.280983916745498 61.177309061119267 -18.80749654908729 0 1 0 I I #
straight-curve $-1 79.280983916745498 18.987086872363534 110.17147632433871 0 0 -1 I I #
point $-1 79.280983916745498 18.987086872363534 18.80749654908729 #
straight-curve $-1 79.280983916745512 12.917217374514973 0.22239618851680376 0 1 0 I I #
point $-1 79.280983916745498 18.987086872363534 0.22239618851679666 #
point $-1 64.224913353290177 22.899857087601497 7.6183081906359638 #
point $-1 64.224913353290177 28.769012410458423 7.6183081906359638 #
straight-curve $-1 -79.280983916745498 26.70489075941212 60.159256247047352 0 0 -1 I I #
point $-1 -79.280983916745498 26.70489075941212 18.80749654908729 #
straight-curve $-1 -79.280983916745498 9.1260440716570663 14.219848270543476 0 -1 0 I I #
point $-1 -79.280983916745498 26.70489075941212 14.219848270543482 #
point $-1 -74.165630378448299 13.18040657365534 13.76745359708009 #
point $-1 -74.165630378448299 18.252088143314133 13.76745359708009 #
point $-1 -74.165630378448299 23.323769712972926 13.76745359708009 #
straight-curve $-1 -73.794856631188964 -68.171738220715469 -18.80749654908729 -1 0 0 I I #
point $-1 -79.280983916745498 -68.171738220715469 -18.80749654908729 #
straight-curve $-1 -79.280983916745498 68.171738220715454 0 0 0 -1 I I #
point $-1 -79.280983916745498 68.171738220715454 -18.80749654908729 #
End-of-ACIS-data 