500 0 9 0           
7 Unknown 11 ACIS 5.0 NT 24 Thu Mar 25 19:44:22 1999 
-1 9.9999999999999995e-007 1e-010 
body $-1 $9 $-1 $10 #
body $-1 $11 $-1 $12 #
body $-1 $13 $-1 $14 #
body $-1 $15 $-1 $16 #
body $-1 $17 $-1 $18 #
body $-1 $19 $-1 $20 #
body $-1 $21 $-1 $22 #
body $-1 $23 $-1 $24 #
body $-1 $25 $-1 $26 #
lump $-1 $-1 $27 $0 #
transform $-1 1 0 0 0 1 0 0 0 1 49.99908444471572 30.563117215304359 9.7595466279761371 1 rotate no_reflect no_shear #
lump $-1 $-1 $28 $1 #
transform $-1 1 0 0 0 1 0 0 0 1 49.99908444471572 30.563117215304359 9.7595466279761371 1 rotate no_reflect no_shear #
lump $-1 $-1 $29 $2 #
transform $-1 1 0 0 0 1 0 0 0 1 49.99908444471572 30.563117215304359 9.7595466279761371 1 rotate no_reflect no_shear #
lump $-1 $-1 $30 $3 #
transform $-1 1 0 0 0 1 0 0 0 1 49.99908444471572 30.563117215304359 9.7595466279761371 1 rotate no_reflect no_shear #
lump $-1 $-1 $31 $4 #
transform $-1 1 0 0 0 1 0 0 0 1 49.99908444471572 30.563117215304359 9.7595466279761371 1 rotate no_reflect no_shear #
lump $-1 $-1 $32 $5 #
transform $-1 1 0 0 0 1 0 0 0 1 49.99908444471572 30.563117215304359 9.7595466279761371 1 rotate no_reflect no_shear #
lump $-1 $-1 $33 $6 #
transform $-1 1 0 0 0 1 0 0 0 1 49.99908444471572 30.563117215304359 9.7595466279761371 1 rotate no_reflect no_shear #
lump $-1 $-1 $34 $7 #
transform $-1 1 0 0 0 1 0 0 0 1 49.99908444471572 30.563117215304359 9.7595466279761371 1 rotate no_reflect no_shear #
lump $-1 $-1 $35 $8 #
transform $-1 1 0 0 0 1 0 0 0 1 49.99908444471572 30.563117215304359 9.7595466279761371 1 rotate no_reflect no_shear #
shell $-1 $-1 $-1 $36 $-1 $9 #
shell $-1 $-1 $-1 $37 $-1 $11 #
shell $-1 $-1 $-1 $38 $-1 $13 #
shell $-1 $-1 $-1 $39 $-1 $15 #
shell $-1 $-1 $-1 $40 $-1 $17 #
shell $-1 $-1 $-1 $41 $-1 $19 #
shell $-1 $-1 $-1 $42 $-1 $21 #
shell $-1 $-1 $-1 $43 $-1 $23 #
shell $-1 $-1 $-1 $44 $-1 $25 #
face $-1 $45 $46 $27 $-1 $47 forward single #
face $-1 $48 $49 $28 $-1 $50 reversed single #
face $-1 $51 $52 $29 $-1 $53 forward single #
face $-1 $54 $55 $30 $-1 $56 forward single #
face $-1 $57 $58 $31 $-1 $59 forward single #
face $-1 $60 $61 $32 $-1 $62 reversed single #
face $-1 $63 $64 $33 $-1 $65 forward single #
face $-1 $66 $67 $34 $-1 $68 forward single #
face $-1 $69 $70 $35 $-1 $71 forward single #
face $-1 $72 $73 $27 $-1 $74 reversed single #
loop $-1 $-1 $75 $36 #
plane-surface $-1 0 0 9.7595466279761371 0 0 1 1 0 0 forward_v I I I I #
face $-1 $76 $77 $28 $-1 $78 reversed single #
loop $-1 $-1 $79 $37 #
plane-surface $-1 88.979381486709912 18.427902942834944 140.48648396976105 0 -1 0 -0.87461971476443456 0 -0.48480960649040278 forward_v I I I I #
face $-1 $80 $81 $29 $-1 $82 forward single #
loop $-1 $83 $84 $38 #
cone-surface $-1 48.116827991632746 10.659589991837969 6.9103890655802003 -0.87461971476443456 0 -0.48480960649040278 0.24240480324520139 0 -0.43730985738221728 1 I I 0 1 0.5 forward I I I I #
face $-1 $85 $86 $30 $-1 $87 forward single #
loop $-1 $88 $89 $39 #
cone-surface $-1 48.116827991632746 13.572707348461833 6.9103890655802003 -0.87461971476443456 0 -0.48480960649040278 0.24240480324520139 0 -0.43730985738221728 1 I I 0 1 0.5 forward I I I I #
face $-1 $90 $91 $31 $-1 $92 forward single #
loop $-1 $93 $94 $40 #
cone-surface $-1 48.116827991632746 16.485824705085705 6.9103890655802003 -0.87461971476443456 0 -0.48480960649040278 0.24240480324520139 0 -0.43730985738221728 1 I I 0 1 0.5 forward I I I I #
face $-1 $95 $96 $32 $-1 $97 reversed single #
loop $-1 $-1 $98 $41 #
plane-surface $-1 -137.45945439575601 8.7175117540887221 53.026114018720776 0 1 0 -0.87461971476443456 0 0.48480960649040278 forward_v I I I I #
face $-1 $99 $100 $33 $-1 $101 forward single #
loop $-1 $102 $103 $42 #
cone-surface $-1 -48.116827991632746 10.659589991837969 6.9103890655802038 0.87461971476443456 0 -0.48480960649040278 0.24240480324520139 0 0.43730985738221728 1 I I 0 1 0.5 forward I I I I #
face $-1 $104 $105 $34 $-1 $106 forward single #
loop $-1 $107 $108 $43 #
cone-surface $-1 -48.116827991632746 13.572707348461833 6.9103890655802038 0.87461971476443456 0 -0.48480960649040278 0.24240480324520139 0 0.43730985738221728 1 I I 0 1 0.5 forward I I I I #
face $-1 $109 $110 $35 $-1 $111 forward single #
loop $-1 $112 $113 $44 #
cone-surface $-1 -48.116827991632746 16.485824705085705 6.9103890655802038 0.87461971476443456 0 -0.48480960649040278 0.24240480324520139 0 0.43730985738221728 1 I I 0 1 0.5 forward I I I I #
face $-1 $114 $115 $27 $-1 $116 reversed single #
loop $-1 $-1 $117 $45 #
plane-surface $-1 0 0 -9.7595466279761371 0 0 1 1 0 0 forward_v I I I I #
coedge $-1 $118 $119 $120 $121 forward $46 $-1 #
face $-1 $122 $123 $28 $-1 $124 reversed single #
loop $-1 $-1 $125 $48 #
plane-surface $-1 1.5190115356696339 13.572707348461833 92.006411060714953 0.87461971476443456 0 0.48480960649040278 0.48480960649040278 0 -0.87461971476443456 forward_v I I I I #
coedge $-1 $126 $127 $128 $129 reversed $49 $-1 #
face $-1 $-1 $130 $29 $-1 $131 forward single #
loop $-1 $132 $133 $51 #
cone-surface $-1 47.46086320555942 10.659589991837969 6.5467818607123984 -0.87461971476443456 0 -0.48480960649040278 0.12120240162260069 0 -0.21865492869110864 1 I I -0.70710678118654746 0.70710678118654746 0.25 forward I I I I #
loop $-1 $-1 $134 $38 #
coedge $-1 $84 $84 $135 $136 reversed $52 $-1 #
face $-1 $-1 $137 $30 $-1 $138 forward single #
loop $-1 $139 $140 $54 #
cone-surface $-1 47.46086320555942 13.572707348461833 6.5467818607123984 -0.87461971476443456 0 -0.48480960649040278 0.12120240162260069 0 -0.21865492869110864 1 I I -0.70710678118654746 0.70710678118654746 0.25 forward I I I I #
loop $-1 $-1 $141 $39 #
coedge $-1 $89 $89 $142 $143 reversed $55 $-1 #
face $-1 $-1 $144 $31 $-1 $145 forward single #
loop $-1 $146 $147 $57 #
cone-surface $-1 47.46086320555942 16.485824705085705 6.5467818607123984 -0.87461971476443456 0 -0.48480960649040278 0.12120240162260069 0 -0.21865492869110864 1 I I -0.70710678118654746 0.70710678118654746 0.25 forward I I I I #
loop $-1 $-1 $148 $40 #
coedge $-1 $94 $94 $149 $150 reversed $58 $-1 #
face $-1 $151 $152 $32 $-1 $153 reversed single #
loop $-1 $-1 $154 $60 #
plane-surface $-1 -49.999084444715734 13.572707348461833 4.5460411096746824 -0.87461971476443456 0 0.48480960649040278 0.48480960649040278 0 0.87461971476443456 forward_v I I I I #
coedge $-1 $155 $156 $157 $158 reversed $61 $-1 #
face $-1 $-1 $159 $33 $-1 $160 forward single #
loop $-1 $161 $162 $63 #
cone-surface $-1 -47.46086320555942 10.659589991837969 6.546781860712402 0.87461971476443456 0 -0.48480960649040278 0.12120240162260069 0 0.21865492869110864 1 I I -0.70710678118654746 0.70710678118654746 0.25 forward I I I I #
loop $-1 $-1 $163 $42 #
coedge $-1 $103 $103 $164 $165 reversed $64 $-1 #
face $-1 $-1 $166 $34 $-1 $167 forward single #
loop $-1 $168 $169 $66 #
cone-surface $-1 -47.46086320555942 13.572707348461833 6.546781860712402 0.87461971476443456 0 -0.48480960649040278 0.12120240162260069 0 0.21865492869110864 1 I I -0.70710678118654746 0.70710678118654746 0.25 forward I I I I #
loop $-1 $-1 $170 $43 #
coedge $-1 $108 $108 $171 $172 reversed $67 $-1 #
face $-1 $-1 $173 $35 $-1 $174 forward single #
loop $-1 $175 $176 $69 #
cone-surface $-1 -47.46086320555942 16.485824705085705 6.546781860712402 0.87461971476443456 0 -0.48480960649040278 0.12120240162260069 0 0.21865492869110864 1 I I -0.70710678118654746 0.70710678118654746 0.25 forward I I I I #
loop $-1 $-1 $177 $44 #
coedge $-1 $113 $113 $178 $179 reversed $70 $-1 #
face $-1 $180 $181 $27 $-1 $182 reversed single #
loop $-1 $-1 $183 $72 #
plane-surface $-1 0 -30.563117215304359 0 0 1 0 0 0 1 forward_v I I I I #
coedge $-1 $184 $185 $186 $187 forward $73 $-1 #
coedge $-1 $188 $75 $189 $190 forward $46 $-1 #
coedge $-1 $75 $188 $191 $192 forward $46 $-1 #
coedge $-1 $193 $194 $75 $121 reversed $195 $-1 #
edge $-1 $196 -30.563117215304359 $197 30.563117215304359 $120 $198 forward 7 unknown #
face $-1 $199 $200 $28 $-1 $201 forward single #
loop $-1 $-1 $202 $76 #
plane-surface $-1 88.979381486709912 8.7175117540887221 140.48648396976105 0 1 0 0.87461971476443456 0 0.48480960649040278 forward_v I I I I #
coedge $-1 $203 $204 $205 $206 reversed $77 $-1 #
coedge $-1 $127 $79 $207 $208 reversed $49 $-1 #
coedge $-1 $79 $126 $203 $209 reversed $49 $-1 #
coedge $-1 $205 $210 $79 $129 forward $200 $-1 #
edge $-1 $211 -5.5093937013607643 $212 -2.6195005099592521 $128 $213 forward 7 unknown #
loop $-1 $-1 $135 $80 #
plane-surface $-1 1.5190115356696339 13.572707348461833 92.006411060714953 0.87461971476443456 0 0.48480960649040278 0.48480960649040278 0 -0.87461971476443456 forward_v I I I I #
loop $-1 $-1 $214 $51 #
coedge $-1 $133 $133 $134 $215 reversed $81 $-1 #
coedge $-1 $134 $134 $133 $215 forward $83 $-1 #
coedge $-1 $135 $135 $84 $136 forward $130 $-1 #
edge $-1 $216 0 $216 6.2831853071796004 $135 $217 forward 7 unknown #
loop $-1 $-1 $142 $85 #
plane-surface $-1 1.5190115356696339 13.572707348461833 92.006411060714953 0.87461971476443456 0 0.48480960649040278 0.48480960649040278 0 -0.87461971476443456 forward_v I I I I #
loop $-1 $-1 $218 $54 #
coedge $-1 $140 $140 $141 $219 reversed $86 $-1 #
coedge $-1 $141 $141 $140 $219 forward $88 $-1 #
coedge $-1 $142 $142 $89 $143 forward $137 $-1 #
edge $-1 $220 0 $220 6.2831853071796004 $142 $221 forward 7 unknown #
loop $-1 $-1 $149 $90 #
plane-surface $-1 1.5190115356696339 13.572707348461833 92.006411060714953 0.87461971476443456 0 0.48480960649040278 0.48480960649040278 0 -0.87461971476443456 forward_v I I I I #
loop $-1 $-1 $222 $57 #
coedge $-1 $147 $147 $148 $223 reversed $91 $-1 #
coedge $-1 $148 $148 $147 $223 forward $93 $-1 #
coedge $-1 $149 $149 $94 $150 forward $144 $-1 #
edge $-1 $224 0 $224 6.2831853071796004 $149 $225 forward 7 unknown #
face $-1 $226 $227 $32 $-1 $228 reversed single #
loop $-1 $-1 $229 $95 #
plane-surface $-1 -137.45945439575601 18.427902942834944 53.026114018720776 0 -1 0 0.87461971476443456 0 -0.48480960649040278 forward_v I I I I #
coedge $-1 $230 $231 $232 $233 reversed $96 $-1 #
coedge $-1 $156 $98 $234 $235 reversed $61 $-1 #
coedge $-1 $98 $155 $230 $236 reversed $61 $-1 #
coedge $-1 $232 $237 $98 $158 forward $238 $-1 #
edge $-1 $239 18.730642753162286 $240 21.620535944563784 $157 $241 forward 7 unknown #
loop $-1 $-1 $164 $99 #
plane-surface $-1 -49.999084444715734 13.572707348461833 4.5460411096746824 -0.87461971476443456 0 0.48480960649040278 0.48480960649040278 0 0.87461971476443456 forward_v I I I I #
loop $-1 $-1 $242 $63 #
coedge $-1 $162 $162 $163 $243 reversed $100 $-1 #
coedge $-1 $163 $163 $162 $243 forward $102 $-1 #
coedge $-1 $164 $164 $103 $165 forward $159 $-1 #
edge $-1 $244 0 $244 6.2831853071796004 $164 $245 forward 7 unknown #
loop $-1 $-1 $171 $104 #
plane-surface $-1 -49.999084444715734 13.572707348461833 4.5460411096746824 -0.87461971476443456 0 0.48480960649040278 0.48480960649040278 0 0.87461971476443456 forward_v I I I I #
loop $-1 $-1 $246 $66 #
coedge $-1 $169 $169 $170 $247 reversed $105 $-1 #
coedge $-1 $170 $170 $169 $247 forward $107 $-1 #
coedge $-1 $171 $171 $108 $172 forward $166 $-1 #
edge $-1 $248 0 $248 6.2831853071796004 $171 $249 forward 7 unknown #
loop $-1 $-1 $178 $109 #
plane-surface $-1 -49.999084444715734 13.572707348461833 4.5460411096746824 -0.87461971476443456 0 0.48480960649040278 0.48480960649040278 0 0.87461971476443456 forward_v I I I I #
loop $-1 $-1 $250 $69 #
coedge $-1 $176 $176 $177 $251 reversed $110 $-1 #
coedge $-1 $177 $177 $176 $251 forward $112 $-1 #
coedge $-1 $178 $178 $113 $179 forward $173 $-1 #
edge $-1 $252 0 $252 6.2831853071796004 $178 $253 forward 7 unknown #
face $-1 $254 $255 $27 $-1 $256 reversed single #
loop $-1 $-1 $257 $114 #
plane-surface $-1 -49.99908444471572 0 0 1 0 0 0 0 -1 forward_v I I I I #
coedge $-1 $258 $191 $259 $260 forward $115 $-1 #
coedge $-1 $261 $117 $258 $262 forward $73 $-1 #
coedge $-1 $117 $261 $263 $264 forward $73 $-1 #
coedge $-1 $194 $193 $117 $187 reversed $195 $-1 #
edge $-1 $265 -30.563117215304359 $266 30.563117215304359 $186 $267 forward 7 unknown #
coedge $-1 $119 $118 $268 $269 forward $46 $-1 #
coedge $-1 $270 $271 $118 $190 reversed $255 $-1 #
edge $-1 $197 -49.99908444471572 $272 49.99908444471572 $189 $273 forward 7 unknown #
coedge $-1 $183 $274 $119 $192 reversed $115 $-1 #
edge $-1 $275 -49.99908444471572 $196 49.99908444471572 $191 $276 forward 7 unknown #
coedge $-1 $186 $120 $274 $277 forward $195 $-1 #
coedge $-1 $120 $186 $270 $278 reversed $195 $-1 #
loop $-1 $-1 $193 $254 #
vertex $-1 $121 $279 #
vertex $-1 $121 $280 #
straight-curve $-1 49.99908444471572 0 9.7595466279761371 0 1 0 I I #
face $-1 $-1 $281 $28 $-1 $282 reversed single #
loop $-1 $-1 $128 $122 #
plane-surface $-1 0 0 9.7595466279761371 0 0 1 1 0 0 forward_v I I I I #
coedge $-1 $283 $284 $285 $286 reversed $123 $-1 #
coedge $-1 $287 $125 $127 $209 forward $77 $-1 #
coedge $-1 $125 $287 $283 $288 forward $77 $-1 #
coedge $-1 $285 $128 $125 $206 forward $200 $-1 #
edge $-1 $212 -11.641549268604027 $289 -1.9311580798578056 $205 $290 forward 7 unknown #
coedge $-1 $291 $292 $126 $208 forward $281 $-1 #
edge $-1 $293 -65.697200875205837 $211 -60.483695356904391 $207 $294 forward 7 unknown #
edge $-1 $212 94.037286199169159 $293 99.998168889431426 $127 $295 forward 7 unknown #
coedge $-1 $128 $285 $291 $296 forward $200 $-1 #
vertex $-1 $208 $297 #
vertex $-1 $129 $298 #
straight-curve $-1 44.489690743354956 18.427902942834944 9.7595466279761354 -1 0 0 I I #
coedge $-1 $214 $214 $-1 $299 reversed $132 $-1 #
edge $-1 $300 0 $300 6.2831853071796004 $133 $301 forward 7 unknown #
vertex $-1 $136 $302 #
ellipse-curve $-1 48.554137849014971 10.659589991837969 7.1527938688254054 0.87461971476443456 0 0.48480960649040278 0.24240480324520139 0 -0.43730985738221728 1 I I #
coedge $-1 $218 $218 $-1 $303 reversed $139 $-1 #
edge $-1 $304 0 $304 6.2831853071796004 $140 $305 forward 7 unknown #
vertex $-1 $143 $306 #
ellipse-curve $-1 48.554137849014971 13.572707348461833 7.1527938688254054 0.87461971476443456 0 0.48480960649040278 0.24240480324520139 0 -0.43730985738221728 1 I I #
coedge $-1 $222 $222 $-1 $307 reversed $146 $-1 #
edge $-1 $308 0 $308 6.2831853071796004 $147 $309 forward 7 unknown #
vertex $-1 $150 $310 #
ellipse-curve $-1 48.554137849014971 16.485824705085705 7.1527938688254054 0.87461971476443456 0 0.48480960649040278 0.24240480324520139 0 -0.43730985738221728 1 I I #
face $-1 $-1 $238 $32 $-1 $311 forward single #
loop $-1 $-1 $312 $151 #
plane-surface $-1 -49.99908444471572 0 0 1 0 0 0 0 -1 forward_v I I I I #
coedge $-1 $313 $314 $315 $316 reversed $152 $-1 #
coedge $-1 $317 $154 $156 $236 forward $96 $-1 #
coedge $-1 $154 $317 $313 $318 forward $96 $-1 #
coedge $-1 $315 $157 $154 $233 forward $238 $-1 #
edge $-1 $240 1.9311580798578056 $319 11.641549268604027 $232 $320 forward 7 unknown #
coedge $-1 $321 $322 $155 $235 forward $227 $-1 #
edge $-1 $323 -21.967015899685681 $239 -16.753510381384253 $234 $324 forward 7 unknown #
edge $-1 $240 -5.9608826902622853 $323 -2.9417291209212814e-014 $156 $325 forward 7 unknown #
coedge $-1 $157 $315 $321 $326 forward $238 $-1 #
loop $-1 $-1 $315 $226 #
vertex $-1 $235 $327 #
vertex $-1 $158 $328 #
straight-curve $-1 -68.729727197878006 8.7175117540887221 9.7595466279761354 1 0 0 I I #
coedge $-1 $242 $242 $-1 $329 reversed $161 $-1 #
edge $-1 $330 0 $330 6.2831853071796004 $162 $331 forward 7 unknown #
vertex $-1 $165 $332 #
ellipse-curve $-1 -48.554137849014978 10.659589991837969 7.1527938688254125 -0.87461971476443456 0 0.48480960649040278 0.24240480324520139 0 0.43730985738221728 1 I I #
coedge $-1 $246 $246 $-1 $333 reversed $168 $-1 #
edge $-1 $334 0 $334 6.2831853071796004 $169 $335 forward 7 unknown #
vertex $-1 $172 $336 #
ellipse-curve $-1 -48.554137849014978 13.572707348461833 7.1527938688254125 -0.87461971476443456 0 0.48480960649040278 0.24240480324520139 0 0.43730985738221728 1 I I #
coedge $-1 $250 $250 $-1 $337 reversed $175 $-1 #
edge $-1 $338 0 $338 6.2831853071796004 $176 $339 forward 7 unknown #
vertex $-1 $179 $340 #
ellipse-curve $-1 -48.554137849014978 16.485824705085705 7.1527938688254125 -0.87461971476443456 0 0.48480960649040278 0.24240480324520139 0 0.43730985738221728 1 I I #
face $-1 $-1 $195 $27 $-1 $341 reversed single #
loop $-1 $-1 $270 $180 #
plane-surface $-1 0 30.563117215304359 0 0 -1 0 0 0 -1 forward_v I I I I #
coedge $-1 $342 $268 $271 $343 forward $181 $-1 #
coedge $-1 $274 $183 $184 $262 reversed $115 $-1 #
coedge $-1 $268 $342 $183 $260 reversed $181 $-1 #
edge $-1 $275 -9.7595466279761371 $344 9.7595466279761371 $259 $345 forward 7 unknown #
coedge $-1 $185 $184 $342 $346 forward $73 $-1 #
edge $-1 $266 -49.99908444471572 $344 49.99908444471572 $258 $347 forward 7 unknown #
coedge $-1 $271 $270 $185 $264 reversed $255 $-1 #
edge $-1 $348 -49.99908444471572 $265 49.99908444471572 $263 $349 forward 7 unknown #
vertex $-1 $187 $350 #
vertex $-1 $277 $351 #
straight-curve $-1 49.99908444471572 0 -9.7595466279761371 0 -1 0 I I #
coedge $-1 $257 $259 $188 $269 reversed $181 $-1 #
edge $-1 $272 -30.563117215304359 $275 30.563117215304359 $268 $352 forward 7 unknown #
coedge $-1 $263 $189 $194 $278 forward $255 $-1 #
coedge $-1 $189 $263 $257 $343 reversed $255 $-1 #
vertex $-1 $190 $353 #
straight-curve $-1 0 30.563117215304359 9.7595466279761371 -1 0 0 I I #
coedge $-1 $191 $258 $193 $277 reversed $115 $-1 #
vertex $-1 $269 $354 #
straight-curve $-1 0 -30.563117215304359 9.7595466279761371 1 0 0 I I #
edge $-1 $196 -9.7595466279761371 $266 9.7595466279761371 $193 $355 forward 7 unknown #
edge $-1 $197 -9.7595466279761371 $265 9.7595466279761371 $194 $356 forward 7 unknown #
point $-1 49.99908444471572 -30.563117215304359 9.7595466279761371 #
point $-1 49.99908444471572 30.563117215304359 9.7595466279761371 #
loop $-1 $-1 $207 $199 #
plane-surface $-1 49.99908444471572 0 0 -1 0 0 0 0 1 forward_v I I I I #
coedge $-1 $284 $202 $204 $288 reversed $123 $-1 #
coedge $-1 $202 $283 $357 $358 reversed $123 $-1 #
coedge $-1 $210 $205 $202 $286 forward $200 $-1 #
edge $-1 $289 2.6195005099592521 $359 5.5093937013607643 $285 $360 forward 7 unknown #
coedge $-1 $204 $203 $292 $361 reversed $77 $-1 #
edge $-1 $362 -99.998168889431426 $289 -94.037286199169159 $283 $363 forward 7 unknown #
vertex $-1 $206 $364 #
straight-curve $-1 47.109191253314208 6.7863536742309165 9.7595466279761354 0 -1 0 I I #
coedge $-1 $357 $207 $210 $296 reversed $281 $-1 #
coedge $-1 $207 $357 $287 $361 forward $281 $-1 #
vertex $-1 $208 $365 #
straight-curve $-1 49.99908444471572 18.427902942834944 70.243241984880527 0 0 1 I I #
straight-curve $-1 1.5190115356696339 18.427902942834944 92.006411060714953 0.48480960649040278 0 -0.87461971476443456 I I #
edge $-1 $359 8.7175117540887221 $211 18.427902942834944 $291 $366 forward 7 unknown #
point $-1 49.99908444471572 18.427902942834944 9.7595466279761371 #
point $-1 47.109191253314208 18.427902942834944 9.7595466279761354 #
edge $-1 $367 1 $367 0 $214 $-1 forward 7 unknown #
vertex $-1 $215 $368 #
ellipse-curve $-1 47.679518134250529 10.659589991837969 6.6679842623349987 0.87461971476443456 0 0.48480960649040278 0.24240480324520139 0 -0.43730985738221728 1 I I #
point $-1 48.796542652260165 10.659589991837969 6.7154840114431842 #
edge $-1 $369 1 $369 0 $218 $-1 forward 7 unknown #
vertex $-1 $219 $370 #
ellipse-curve $-1 47.679518134250529 13.572707348461833 6.6679842623349987 0.87461971476443456 0 0.48480960649040278 0.24240480324520139 0 -0.43730985738221728 1 I I #
point $-1 48.796542652260165 13.572707348461833 6.7154840114431842 #
edge $-1 $371 1 $371 0 $222 $-1 forward 7 unknown #
vertex $-1 $223 $372 #
ellipse-curve $-1 47.679518134250529 16.485824705085705 6.6679842623349987 0.87461971476443456 0 0.48480960649040278 0.24240480324520139 0 -0.43730985738221728 1 I I #
point $-1 48.796542652260165 16.485824705085705 6.7154840114431842 #
plane-surface $-1 0 0 9.7595466279761371 0 0 1 1 0 0 forward_v I I I I #
coedge $-1 $322 $321 $314 $373 forward $227 $-1 #
coedge $-1 $314 $229 $231 $318 reversed $152 $-1 #
coedge $-1 $229 $313 $312 $373 reversed $152 $-1 #
coedge $-1 $237 $232 $229 $316 forward $238 $-1 #
edge $-1 $319 -21.620535944563784 $374 -18.730642753162286 $315 $375 forward 7 unknown #
coedge $-1 $231 $230 $322 $376 reversed $96 $-1 #
edge $-1 $377 2.9417291209212814e-014 $319 5.9608826902622853 $313 $378 forward 7 unknown #
vertex $-1 $233 $379 #
straight-curve $-1 -47.109191253314229 6.7863536742309165 9.7595466279761371 0 1 0 I I #
coedge $-1 $312 $234 $237 $326 reversed $227 $-1 #
coedge $-1 $234 $312 $317 $376 forward $227 $-1 #
vertex $-1 $235 $380 #
straight-curve $-1 -49.99908444471572 8.7175117540887221 26.513057009360388 0 0 1 I I #
straight-curve $-1 -49.999084444715734 8.7175117540887221 4.5460411096746824 -0.48480960649040278 0 -0.87461971476443456 I I #
edge $-1 $374 -18.427902942834944 $239 -8.7175117540887221 $321 $381 forward 7 unknown #
point $-1 -49.99908444471572 8.7175117540887221 9.7595466279761371 #
point $-1 -47.109191253314222 8.7175117540887221 9.7595466279761371 #
edge $-1 $382 1 $382 0 $242 $-1 forward 7 unknown #
vertex $-1 $243 $383 #
ellipse-curve $-1 -47.679518134250529 10.659589991837969 6.6679842623350023 -0.87461971476443456 0 0.48480960649040278 0.24240480324520139 0 0.43730985738221728 1 I I #
point $-1 -48.311733045769763 10.659589991837969 7.590103726207623 #
edge $-1 $384 1 $384 0 $246 $-1 forward 7 unknown #
vertex $-1 $247 $385 #
ellipse-curve $-1 -47.679518134250529 13.572707348461833 6.6679842623350023 -0.87461971476443456 0 0.48480960649040278 0.24240480324520139 0 0.43730985738221728 1 I I #
point $-1 -48.311733045769763 13.572707348461833 7.590103726207623 #
edge $-1 $386 1 $386 0 $250 $-1 forward 7 unknown #
vertex $-1 $251 $387 #
ellipse-curve $-1 -47.679518134250529 16.485824705085705 6.6679842623350023 -0.87461971476443456 0 0.48480960649040278 0.24240480324520139 0 0.43730985738221728 1 I I #
point $-1 -48.311733045769763 16.485824705085705 7.590103726207623 #
plane-surface $-1 49.99908444471572 0 0 -1 0 0 0 0 1 forward_v I I I I #
coedge $-1 $259 $257 $261 $346 reversed $181 $-1 #
edge $-1 $272 -9.7595466279761371 $348 9.7595466279761371 $271 $388 forward 7 unknown #
vertex $-1 $346 $389 #
straight-curve $-1 -49.99908444471572 -30.563117215304359 0 0 0 -1 I I #
edge $-1 $344 -30.563117215304359 $348 30.563117215304359 $342 $390 forward 7 unknown #
straight-curve $-1 0 -30.563117215304359 -9.7595466279761371 -1 0 0 I I #
vertex $-1 $264 $391 #
straight-curve $-1 0 30.563117215304359 -9.7595466279761371 1 0 0 I I #
point $-1 49.99908444471572 30.563117215304359 -9.7595466279761371 #
point $-1 49.99908444471572 -30.563117215304359 -9.7595466279761371 #
straight-curve $-1 -49.99908444471572 0 9.7595466279761371 0 -1 0 I I #
point $-1 -49.99908444471572 30.563117215304359 9.7595466279761371 #
point $-1 -49.99908444471572 -30.563117215304359 9.7595466279761371 #
straight-curve $-1 49.99908444471572 -30.563117215304359 0 0 0 -1 I I #
straight-curve $-1 49.99908444471572 30.563117215304359 0 0 0 -1 I I #
coedge $-1 $292 $291 $284 $358 forward $281 $-1 #
edge $-1 $359 60.483695356904391 $362 65.697200875205837 $357 $392 forward 7 unknown #
vertex $-1 $296 $393 #
straight-curve $-1 44.489690743354956 8.7175117540887221 9.7595466279761354 1 0 0 I I #
edge $-1 $362 1.9311580798578056 $293 11.641549268604027 $292 $394 forward 7 unknown #
vertex $-1 $361 $395 #
straight-curve $-1 1.5190115356696339 8.7175117540887221 92.006411060714953 -0.48480960649040278 0 0.87461971476443456 I I #
point $-1 47.109191253314208 8.7175117540887221 9.7595466279761354 #
point $-1 49.99908444471572 18.427902942834944 4.5460411096746896 #
straight-curve $-1 49.99908444471572 0 9.7595466279761371 0 1 0 I I #
vertex $-1 $299 $396 #
point $-1 47.921922937495729 10.659589991837969 6.230674404952782 #
vertex $-1 $303 $397 #
point $-1 47.921922937495729 13.572707348461833 6.230674404952782 #
vertex $-1 $307 $398 #
point $-1 47.921922937495729 16.485824705085705 6.230674404952782 #
edge $-1 $374 16.753510381384253 $377 21.967015899685681 $312 $399 forward 7 unknown #
vertex $-1 $326 $400 #
straight-curve $-1 -68.729727197878006 18.427902942834944 9.7595466279761354 -1 0 0 I I #
edge $-1 $377 -11.641549268604027 $323 -1.9311580798578056 $322 $401 forward 7 unknown #
vertex $-1 $376 $402 #
straight-curve $-1 -49.999084444715734 18.427902942834944 4.5460411096746824 0.48480960649040278 0 0.87461971476443456 I I #
point $-1 -47.109191253314222 18.427902942834944 9.7595466279761371 #
point $-1 -49.99908444471572 8.7175117540887221 4.5460411096747082 #
straight-curve $-1 -49.99908444471572 0 9.7595466279761371 0 -1 0 I I #
vertex $-1 $329 $403 #
point $-1 -47.437113331005328 10.659589991837969 7.1052941197172199 #
vertex $-1 $333 $404 #
point $-1 -47.437113331005328 13.572707348461833 7.1052941197172199 #
vertex $-1 $337 $405 #
point $-1 -47.437113331005328 16.485824705085705 7.1052941197172199 #
straight-curve $-1 -49.99908444471572 30.563117215304359 0 0 0 -1 I I #
point $-1 -49.99908444471572 -30.563117215304359 -9.7595466279761371 #
straight-curve $-1 -49.99908444471572 0 -9.7595466279761371 0 1 0 I I #
point $-1 -49.99908444471572 30.563117215304359 -9.7595466279761371 #
straight-curve $-1 49.99908444471572 8.7175117540887221 70.243241984880527 0 0 -1 I I #
point $-1 49.99908444471572 8.7175117540887221 9.7595466279761371 #
straight-curve $-1 49.99908444471572 6.7863536742309165 4.5460411096746824 0 1 0 I I #
point $-1 49.99908444471572 8.7175117540887221 4.5460411096746896 #
point $-1 47.242208276868311 10.659589991837969 6.4255794590897981 #
point $-1 47.242208276868311 13.572707348461833 6.4255794590897981 #
point $-1 47.242208276868311 16.485824705085705 6.4255794590897981 #
straight-curve $-1 -49.99908444471572 18.427902942834944 26.513057009360388 0 0 -1 I I #
point $-1 -49.99908444471572 18.427902942834944 9.7595466279761371 #
straight-curve $-1 -49.99908444471572 6.7863536742309165 4.5460411096747029 0 -1 0 I I #
point $-1 -49.99908444471572 18.427902942834944 4.5460411096747082 #
point $-1 -47.242208276868311 10.659589991837969 6.4255794590898017 #
point $-1 -47.242208276868311 13.572707348461833 6.4255794590898017 #
point $-1 -47.242208276868311 16.485824705085705 6.4255794590898017 #
End-of-ACIS-data 