500 0 14 0           
7 Unknown 11 ACIS 5.0 NT 24 Fri Mar 26 16:49:56 1999 
-1 9.9999999999999995e-007 1e-010 
body $-1 $14 $-1 $15 #
body $-1 $16 $-1 $17 #
body $-1 $18 $-1 $19 #
body $-1 $20 $-1 $21 #
body $-1 $22 $-1 $23 #
body $-1 $24 $-1 $25 #
body $-1 $26 $-1 $27 #
body $-1 $28 $-1 $29 #
body $-1 $30 $-1 $31 #
body $-1 $32 $-1 $33 #
body $-1 $34 $-1 $35 #
body $-1 $36 $-1 $37 #
body $-1 $38 $-1 $39 #
body $-1 $40 $-1 $41 #
lump $-1 $-1 $42 $0 #
transform $-1 1 0 0 0 1 0 0 0 1 58.993499557481613 36.477596215221993 14.059131522630652 1 rotate no_reflect no_shear #
lump $-1 $-1 $43 $1 #
transform $-1 1 0 0 0 1 0 0 0 1 58.993499557481613 36.477596215221993 14.059131522630652 1 rotate no_reflect no_shear #
lump $-1 $-1 $44 $2 #
transform $-1 1 0 0 0 1 0 0 0 1 58.993499557481613 36.477596215221993 14.059131522630652 1 rotate no_reflect no_shear #
lump $-1 $-1 $45 $3 #
transform $-1 1 0 0 0 1 0 0 0 1 58.993499557481613 36.477596215221993 14.059131522630652 1 rotate no_reflect no_shear #
lump $-1 $-1 $46 $4 #
transform $-1 1 0 0 0 1 0 0 0 1 58.993499557481613 36.477596215221993 14.059131522630652 1 rotate no_reflect no_shear #
lump $-1 $-1 $47 $5 #
transform $-1 1 0 0 0 1 0 0 0 1 58.993499557481613 36.477596215221993 14.059131522630652 1 rotate no_reflect no_shear #
lump $-1 $-1 $48 $6 #
transform $-1 1 0 0 0 1 0 0 0 1 58.993499557481613 36.477596215221993 14.059131522630652 1 rotate no_reflect no_shear #
lump $-1 $-1 $49 $7 #
transform $-1 1 0 0 0 1 0 0 0 1 58.993499557481613 36.477596215221993 14.059131522630652 1 rotate no_reflect no_shear #
lump $-1 $-1 $50 $8 #
transform $-1 1 0 0 0 1 0 0 0 1 58.993499557481613 36.477596215221993 14.059131522630652 1 rotate no_reflect no_shear #
lump $-1 $-1 $51 $9 #
transform $-1 1 0 0 0 1 0 0 0 1 58.993499557481613 36.477596215221993 14.059131522630652 1 rotate no_reflect no_shear #
lump $-1 $-1 $52 $10 #
transform $-1 1 0 0 0 1 0 0 0 1 58.993499557481613 36.477596215221993 14.059131522630652 1 rotate no_reflect no_shear #
lump $-1 $-1 $53 $11 #
transform $-1 1 0 0 0 1 0 0 0 1 58.993499557481613 36.477596215221993 14.059131522630652 1 rotate no_reflect no_shear #
lump $-1 $-1 $54 $12 #
transform $-1 1 0 0 0 1 0 0 0 1 58.993499557481613 36.477596215221993 14.059131522630652 1 rotate no_reflect no_shear #
lump $-1 $-1 $55 $13 #
transform $-1 1 0 0 0 1 0 0 0 1 58.993499557481613 36.477596215221993 14.059131522630652 1 rotate no_reflect no_shear #
shell $-1 $-1 $-1 $56 $-1 $14 #
shell $-1 $-1 $-1 $57 $-1 $16 #
shell $-1 $-1 $-1 $58 $-1 $18 #
shell $-1 $-1 $-1 $59 $-1 $20 #
shell $-1 $-1 $-1 $60 $-1 $22 #
shell $-1 $-1 $-1 $61 $-1 $24 #
shell $-1 $-1 $-1 $62 $-1 $26 #
shell $-1 $-1 $-1 $63 $-1 $28 #
shell $-1 $-1 $-1 $64 $-1 $30 #
shell $-1 $-1 $-1 $65 $-1 $32 #
shell $-1 $-1 $-1 $66 $-1 $34 #
shell $-1 $-1 $-1 $67 $-1 $36 #
shell $-1 $-1 $-1 $68 $-1 $38 #
shell $-1 $-1 $-1 $69 $-1 $40 #
face $-1 $70 $71 $42 $-1 $72 forward single #
face $-1 $73 $74 $43 $-1 $75 forward single #
face $-1 $76 $77 $44 $-1 $78 forward single #
face $-1 $79 $80 $45 $-1 $81 reversed single #
face $-1 $82 $83 $46 $-1 $84 forward single #
face $-1 $85 $86 $47 $-1 $87 forward single #
face $-1 $88 $89 $48 $-1 $90 reversed single #
face $-1 $91 $92 $49 $-1 $93 forward single #
face $-1 $94 $95 $50 $-1 $96 reversed single #
face $-1 $97 $98 $51 $-1 $99 forward single #
face $-1 $100 $101 $52 $-1 $102 reversed single #
face $-1 $103 $104 $53 $-1 $105 forward single #
face $-1 $106 $107 $54 $-1 $108 reversed single #
face $-1 $109 $110 $55 $-1 $111 forward single #
face $-1 $112 $113 $42 $-1 $114 reversed single #
loop $-1 $-1 $115 $56 #
plane-surface $-1 0 0 14.059131522630652 0 0 1 1 0 0 forward_v I I I I #
face $-1 $116 $117 $43 $-1 $118 reversed single #
loop $-1 $-1 $119 $57 #
plane-surface $-1 0 -30.557250321566812 -10.584487554718804 0 0 1 1 0 0 forward_v I I I I #
face $-1 $120 $121 $44 $-1 $122 reversed single #
loop $-1 $-1 $123 $58 #
plane-surface $-1 0 30.557250321566812 -10.584487554718804 0 0 1 1 0 0 forward_v I I I I #
face $-1 $124 $125 $45 $-1 $126 reversed single #
loop $-1 $-1 $127 $59 #
plane-surface $-1 -129.99984906042312 12.758058662221071 98.54837412169843 0 -1 0 0.6018150307709319 0 -0.79863550430605224 forward_v I I I I #
face $-1 $128 $129 $46 $-1 $130 forward single #
loop $-1 $131 $132 $60 #
cone-surface $-1 -52.230305928693404 6.959383309050601 8.7901318001433086 0.6018150307709319 0 -0.79863550430605224 0.39931775215302612 0 0.30090751538546595 1 I I 0 1 0.5 forward I I I I #
face $-1 $133 $134 $47 $-1 $135 forward single #
loop $-1 $136 $137 $61 #
cone-surface $-1 -52.230305928693404 10.438588520952884 8.7901318001433086 0.6018150307709319 0 -0.79863550430605224 0.39931775215302612 0 0.30090751538546595 1 I I 0 1 0.5 forward I I I I #
face $-1 $138 $139 $48 $-1 $140 reversed single #
loop $-1 $-1 $141 $62 #
plane-surface $-1 44.450797374705061 -14.364606458664676 166.24479182651132 0 -1 0 -0.64278761758704617 0 -0.76604443648966558 forward_v I I I I #
face $-1 $142 $143 $49 $-1 $144 forward single #
loop $-1 $145 $146 $63 #
cone-surface $-1 48.735185420430227 -18.184134421802689 4.7837135597589304 -0.64278761758704617 0 -0.76604443648966558 1.1490666547344983 0 -0.96418142638056925 1 I I 0 1 1.5 forward I I I I #
face $-1 $147 $148 $50 $-1 $149 reversed single #
loop $-1 $-1 $150 $64 #
plane-surface $-1 44.450797374705061 -2.2418501774628812 166.24479182651132 0 -1 0 -0.64278761758704617 0 -0.76604443648966558 forward_v I I I I #
face $-1 $151 $152 $51 $-1 $153 forward single #
loop $-1 $154 $155 $65 #
cone-surface $-1 48.735185420430227 -6.061378140600894 4.7837135597589304 -0.64278761758704617 0 -0.76604443648966558 1.1490666547344983 0 -0.96418142638056925 1 I I 0 1 1.5 forward I I I I #
face $-1 $156 $157 $52 $-1 $158 reversed single #
loop $-1 $-1 $159 $66 #
plane-surface $-1 44.450797374705061 9.8809061037389139 166.24479182651132 0 -1 0 -0.64278761758704617 0 -0.76604443648966558 forward_v I I I I #
face $-1 $160 $161 $53 $-1 $162 forward single #
loop $-1 $163 $164 $67 #
cone-surface $-1 48.735185420430227 6.0613781406009011 4.7837135597589304 -0.64278761758704617 0 -0.76604443648966558 1.1490666547344983 0 -0.96418142638056925 1 I I 0 1 1.5 forward I I I I #
face $-1 $165 $166 $54 $-1 $167 reversed single #
loop $-1 $-1 $168 $68 #
plane-surface $-1 44.450797374705061 22.003662384940711 166.24479182651132 0 -1 0 -0.64278761758704617 0 -0.76604443648966558 forward_v I I I I #
face $-1 $169 $170 $55 $-1 $171 forward single #
loop $-1 $172 $173 $69 #
cone-surface $-1 48.735185420430227 18.184134421802696 4.7837135597589304 -0.64278761758704617 0 -0.76604443648966558 1.1490666547344983 0 -0.96418142638056925 1 I I 0 1 1.5 forward I I I I #
face $-1 $174 $175 $42 $-1 $176 reversed single #
loop $-1 $-1 $177 $70 #
plane-surface $-1 0 0 -14.059131522630652 0 0 1 1 0 0 forward_v I I I I #
coedge $-1 $178 $179 $180 $181 forward $71 $-1 #
face $-1 $182 $183 $43 $-1 $184 reversed single #
loop $-1 $-1 $185 $73 #
plane-surface $-1 0 -24.636904427911631 -12.321809538674728 0 -1 0 0 0 -1 forward_v I I I I #
coedge $-1 $186 $187 $188 $189 reversed $74 $-1 #
face $-1 $190 $191 $44 $-1 $192 reversed single #
loop $-1 $-1 $193 $76 #
plane-surface $-1 0 24.636904427911631 -12.321809538674728 0 1 0 0 0 1 forward_v I I I I #
coedge $-1 $194 $195 $196 $197 reversed $77 $-1 #
face $-1 $198 $199 $45 $-1 $200 reversed single #
loop $-1 $-1 $201 $79 #
plane-surface $-1 -58.993499557481613 8.6989859150017423 4.31976758196204 -0.6018150307709319 0 0.79863550430605224 0.79863550430605224 0 0.6018150307709319 forward_v I I I I #
coedge $-1 $202 $203 $204 $205 reversed $80 $-1 #
face $-1 $-1 $206 $46 $-1 $207 forward single #
loop $-1 $208 $209 $82 #
cone-surface $-1 -51.778944655615206 6.959383309050601 8.1911551719137687 0.6018150307709319 0 -0.79863550430605224 0.19965887607651306 0 0.15045375769273298 1 I I -0.70710678118654746 0.70710678118654746 0.25 forward I I I I #
loop $-1 $-1 $210 $60 #
coedge $-1 $132 $132 $211 $212 reversed $83 $-1 #
face $-1 $-1 $213 $47 $-1 $214 forward single #
loop $-1 $215 $216 $85 #
cone-surface $-1 -51.778944655615206 10.438588520952884 8.1911551719137687 0.6018150307709319 0 -0.79863550430605224 0.19965887607651306 0 0.15045375769273298 1 I I -0.70710678118654746 0.70710678118654746 0.25 forward I I I I #
loop $-1 $-1 $217 $61 #
coedge $-1 $137 $137 $218 $219 reversed $86 $-1 #
face $-1 $220 $221 $48 $-1 $222 reversed single #
loop $-1 $-1 $223 $88 #
plane-surface $-1 -31.389784692647069 -18.184134421802689 75.861507576382635 0.64278761758704617 0 0.76604443648966558 0.76604443648966558 0 -0.64278761758704617 forward_v I I I I #
coedge $-1 $224 $225 $226 $227 reversed $89 $-1 #
face $-1 $-1 $228 $49 $-1 $229 forward single #
loop $-1 $230 $231 $91 #
cone-surface $-1 46.359821620125913 -18.184134421802689 1.9528652763200309 -0.64278761758704617 0 -0.76604443648966558 0.57453332736724916 0 -0.48209071319028463 1 I I -0.70710678118654768 0.70710678118654735 0.75 forward I I I I #
loop $-1 $-1 $232 $63 #
coedge $-1 $146 $146 $233 $234 reversed $92 $-1 #
face $-1 $235 $236 $50 $-1 $237 reversed single #
loop $-1 $-1 $238 $94 #
plane-surface $-1 -31.389784692647069 -6.061378140600894 75.861507576382635 0.64278761758704617 0 0.76604443648966558 0.76604443648966558 0 -0.64278761758704617 forward_v I I I I #
coedge $-1 $239 $240 $241 $242 reversed $95 $-1 #
face $-1 $-1 $243 $51 $-1 $244 forward single #
loop $-1 $245 $246 $97 #
cone-surface $-1 46.359821620125913 -6.061378140600894 1.9528652763200309 -0.64278761758704617 0 -0.76604443648966558 0.57453332736724916 0 -0.48209071319028463 1 I I -0.70710678118654768 0.70710678118654735 0.75 forward I I I I #
loop $-1 $-1 $247 $65 #
coedge $-1 $155 $155 $248 $249 reversed $98 $-1 #
face $-1 $250 $251 $52 $-1 $252 reversed single #
loop $-1 $-1 $253 $100 #
plane-surface $-1 -31.389784692647069 6.0613781406009011 75.861507576382635 0.64278761758704617 0 0.76604443648966558 0.76604443648966558 0 -0.64278761758704617 forward_v I I I I #
coedge $-1 $254 $255 $256 $257 reversed $101 $-1 #
face $-1 $-1 $258 $53 $-1 $259 forward single #
loop $-1 $260 $261 $103 #
cone-surface $-1 46.359821620125913 6.0613781406009011 1.9528652763200309 -0.64278761758704617 0 -0.76604443648966558 0.57453332736724916 0 -0.48209071319028463 1 I I -0.70710678118654768 0.70710678118654735 0.75 forward I I I I #
loop $-1 $-1 $262 $67 #
coedge $-1 $164 $164 $263 $264 reversed $104 $-1 #
face $-1 $265 $266 $54 $-1 $267 reversed single #
loop $-1 $-1 $268 $106 #
plane-surface $-1 -31.389784692647069 18.184134421802696 75.861507576382635 0.64278761758704617 0 0.76604443648966558 0.76604443648966558 0 -0.64278761758704617 forward_v I I I I #
coedge $-1 $269 $270 $271 $272 reversed $107 $-1 #
face $-1 $-1 $273 $55 $-1 $274 forward single #
loop $-1 $275 $276 $109 #
cone-surface $-1 46.359821620125913 18.184134421802696 1.9528652763200309 -0.64278761758704617 0 -0.76604443648966558 0.57453332736724916 0 -0.48209071319028463 1 I I -0.70710678118654768 0.70710678118654735 0.75 forward I I I I #
loop $-1 $-1 $277 $69 #
coedge $-1 $173 $173 $278 $279 reversed $110 $-1 #
face $-1 $280 $281 $42 $-1 $282 reversed single #
loop $-1 $-1 $283 $112 #
plane-surface $-1 0 -36.477596215221993 0 0 1 0 0 0 1 forward_v I I I I #
coedge $-1 $284 $285 $286 $287 forward $113 $-1 #
coedge $-1 $288 $115 $289 $290 forward $71 $-1 #
coedge $-1 $115 $288 $291 $292 forward $71 $-1 #
coedge $-1 $293 $294 $115 $181 reversed $295 $-1 #
edge $-1 $296 -36.477596215221993 $297 36.477596215221993 $180 $298 forward 7 unknown #
face $-1 $299 $300 $43 $-1 $301 reversed single #
loop $-1 $-1 $302 $116 #
plane-surface $-1 0 0 -14.059131522630652 0 0 1 1 0 0 forward_v I I I I #
coedge $-1 $303 $304 $305 $306 reversed $117 $-1 #
coedge $-1 $307 $119 $304 $308 forward $74 $-1 #
coedge $-1 $119 $307 $309 $310 reversed $74 $-1 #
coedge $-1 $311 $305 $119 $189 forward $300 $-1 #
edge $-1 $312 9.3582792671282249 $313 21.198971054438587 $188 $314 forward 7 unknown #
face $-1 $315 $316 $44 $-1 $317 reversed single #
loop $-1 $-1 $196 $120 #
plane-surface $-1 58.993499557481613 0 0 -1 0 0 0 0 1 forward_v I I I I #
coedge $-1 $318 $319 $320 $321 reversed $121 $-1 #
coedge $-1 $322 $123 $323 $324 reversed $77 $-1 #
coedge $-1 $123 $322 $319 $325 forward $77 $-1 #
coedge $-1 $326 $327 $123 $197 forward $191 $-1 #
edge $-1 $328 -21.198971054438587 $329 -9.3582792671282249 $196 $330 forward 7 unknown #
face $-1 $331 $332 $45 $-1 $333 reversed single #
loop $-1 $-1 $334 $124 #
plane-surface $-1 -129.99984906042312 4.6399131677824137 98.54837412169843 0 1 0 -0.6018150307709319 0 0.79863550430605224 forward_v I I I I #
coedge $-1 $335 $336 $337 $338 reversed $125 $-1 #
coedge $-1 $203 $127 $339 $340 reversed $80 $-1 #
coedge $-1 $127 $202 $335 $341 reversed $80 $-1 #
coedge $-1 $337 $342 $127 $205 forward $332 $-1 #
edge $-1 $343 35.215055538218564 $344 44.954419478887175 $204 $345 forward 7 unknown #
loop $-1 $-1 $211 $128 #
plane-surface $-1 -58.993499557481613 8.6989859150017423 4.31976758196204 -0.6018150307709319 0 0.79863550430605224 0.79863550430605224 0 0.6018150307709319 forward_v I I I I #
loop $-1 $-1 $346 $82 #
coedge $-1 $209 $209 $210 $347 reversed $129 $-1 #
coedge $-1 $210 $210 $209 $347 forward $131 $-1 #
coedge $-1 $211 $211 $132 $212 forward $206 $-1 #
edge $-1 $348 0 $348 6.2831853071796004 $211 $349 forward 7 unknown #
loop $-1 $-1 $218 $133 #
plane-surface $-1 -58.993499557481613 8.6989859150017423 4.31976758196204 -0.6018150307709319 0 0.79863550430605224 0.79863550430605224 0 0.6018150307709319 forward_v I I I I #
loop $-1 $-1 $350 $85 #
coedge $-1 $216 $216 $217 $351 reversed $134 $-1 #
coedge $-1 $217 $217 $216 $351 forward $136 $-1 #
coedge $-1 $218 $218 $137 $219 forward $213 $-1 #
edge $-1 $352 0 $352 6.2831853071796004 $218 $353 forward 7 unknown #
face $-1 $354 $355 $48 $-1 $356 forward single #
loop $-1 $-1 $357 $138 #
plane-surface $-1 44.450797374705061 -22.003662384940704 166.24479182651132 0 1 0 0.64278761758704617 0 0.76604443648966558 forward_v I I I I #
coedge $-1 $358 $359 $360 $361 reversed $139 $-1 #
coedge $-1 $225 $141 $362 $363 reversed $89 $-1 #
coedge $-1 $141 $224 $358 $364 reversed $89 $-1 #
coedge $-1 $360 $365 $141 $227 forward $355 $-1 #
edge $-1 $366 -36.768100870129082 $367 -20.038018770254347 $226 $368 forward 7 unknown #
loop $-1 $-1 $233 $142 #
plane-surface $-1 -31.389784692647069 -18.184134421802689 75.861507576382635 0.64278761758704617 0 0.76604443648966558 0.76604443648966558 0 -0.64278761758704617 forward_v I I I I #
loop $-1 $-1 $369 $91 #
coedge $-1 $231 $231 $232 $370 reversed $143 $-1 #
coedge $-1 $232 $232 $231 $370 forward $145 $-1 #
coedge $-1 $233 $233 $146 $234 forward $228 $-1 #
edge $-1 $371 0 $371 6.2831853071796004 $233 $372 forward 7 unknown #
face $-1 $373 $374 $50 $-1 $375 reversed single #
loop $-1 $-1 $376 $147 #
plane-surface $-1 44.450797374705061 -9.8809061037389068 166.24479182651132 0 1 0 0.64278761758704617 0 0.76604443648966558 forward_v I I I I #
coedge $-1 $377 $378 $379 $380 reversed $148 $-1 #
coedge $-1 $240 $150 $381 $382 reversed $95 $-1 #
coedge $-1 $150 $239 $377 $383 reversed $95 $-1 #
coedge $-1 $379 $384 $150 $242 forward $385 $-1 #
edge $-1 $386 -36.768100870129082 $387 -20.038018770254347 $241 $388 forward 7 unknown #
loop $-1 $-1 $248 $151 #
plane-surface $-1 -31.389784692647069 -6.061378140600894 75.861507576382635 0.64278761758704617 0 0.76604443648966558 0.76604443648966558 0 -0.64278761758704617 forward_v I I I I #
loop $-1 $-1 $389 $97 #
coedge $-1 $246 $246 $247 $390 reversed $152 $-1 #
coedge $-1 $247 $247 $246 $390 forward $154 $-1 #
coedge $-1 $248 $248 $155 $249 forward $243 $-1 #
edge $-1 $391 0 $391 6.2831853071796004 $248 $392 forward 7 unknown #
face $-1 $393 $394 $52 $-1 $395 reversed single #
loop $-1 $-1 $396 $156 #
plane-surface $-1 44.450797374705061 2.2418501774628883 166.24479182651132 0 1 0 0.64278761758704617 0 0.76604443648966558 forward_v I I I I #
coedge $-1 $397 $398 $399 $400 reversed $157 $-1 #
coedge $-1 $255 $159 $401 $402 reversed $101 $-1 #
coedge $-1 $159 $254 $397 $403 reversed $101 $-1 #
coedge $-1 $399 $404 $159 $257 forward $405 $-1 #
edge $-1 $406 -36.768100870129082 $407 -20.038018770254347 $256 $408 forward 7 unknown #
loop $-1 $-1 $263 $160 #
plane-surface $-1 -31.389784692647069 6.0613781406009011 75.861507576382635 0.64278761758704617 0 0.76604443648966558 0.76604443648966558 0 -0.64278761758704617 forward_v I I I I #
loop $-1 $-1 $409 $103 #
coedge $-1 $261 $261 $262 $410 reversed $161 $-1 #
coedge $-1 $262 $262 $261 $410 forward $163 $-1 #
coedge $-1 $263 $263 $164 $264 forward $258 $-1 #
edge $-1 $411 0 $411 6.2831853071796004 $263 $412 forward 7 unknown #
face $-1 $413 $414 $54 $-1 $415 reversed single #
loop $-1 $-1 $416 $165 #
plane-surface $-1 44.450797374705061 14.364606458664683 166.24479182651132 0 1 0 0.64278761758704617 0 0.76604443648966558 forward_v I I I I #
coedge $-1 $417 $418 $419 $420 reversed $166 $-1 #
coedge $-1 $270 $168 $421 $422 reversed $107 $-1 #
coedge $-1 $168 $269 $417 $423 reversed $107 $-1 #
coedge $-1 $419 $424 $168 $272 forward $425 $-1 #
edge $-1 $426 -36.768100870129082 $427 -20.038018770254347 $271 $428 forward 7 unknown #
loop $-1 $-1 $278 $169 #
plane-surface $-1 -31.389784692647069 18.184134421802696 75.861507576382635 0.64278761758704617 0 0.76604443648966558 0.76604443648966558 0 -0.64278761758704617 forward_v I I I I #
loop $-1 $-1 $429 $109 #
coedge $-1 $276 $276 $277 $430 reversed $170 $-1 #
coedge $-1 $277 $277 $276 $430 forward $172 $-1 #
coedge $-1 $278 $278 $173 $279 forward $273 $-1 #
edge $-1 $431 0 $431 6.2831853071796004 $278 $432 forward 7 unknown #
face $-1 $433 $434 $42 $-1 $435 reversed single #
loop $-1 $-1 $436 $174 #
plane-surface $-1 -58.993499557481613 0 0 1 0 0 0 0 -1 forward_v I I I I #
coedge $-1 $437 $291 $438 $439 forward $175 $-1 #
coedge $-1 $440 $177 $437 $441 forward $113 $-1 #
coedge $-1 $177 $440 $442 $443 forward $113 $-1 #
coedge $-1 $294 $293 $177 $287 reversed $295 $-1 #
edge $-1 $444 -36.477596215221993 $445 36.477596215221993 $286 $446 forward 7 unknown #
coedge $-1 $179 $178 $447 $448 forward $71 $-1 #
coedge $-1 $449 $450 $178 $290 reversed $434 $-1 #
edge $-1 $297 -58.993499557481613 $451 58.993499557481613 $289 $452 forward 7 unknown #
coedge $-1 $283 $453 $179 $292 reversed $175 $-1 #
edge $-1 $454 -58.993499557481613 $296 58.993499557481613 $291 $455 forward 7 unknown #
coedge $-1 $286 $180 $453 $456 forward $295 $-1 #
coedge $-1 $180 $286 $449 $457 reversed $295 $-1 #
loop $-1 $-1 $293 $433 #
vertex $-1 $181 $458 #
vertex $-1 $181 $459 #
straight-curve $-1 58.993499557481613 0 14.059131522630652 0 1 0 I I #
face $-1 $460 $461 $43 $-1 $462 reversed single #
loop $-1 $-1 $305 $182 #
plane-surface $-1 58.993499557481613 0 0 -1 0 0 0 0 1 forward_v I I I I #
coedge $-1 $463 $464 $303 $465 forward $183 $-1 #
coedge $-1 $466 $185 $302 $465 reversed $117 $-1 #
coedge $-1 $185 $466 $186 $308 reversed $117 $-1 #
coedge $-1 $188 $467 $185 $306 forward $300 $-1 #
edge $-1 $468 -7.8982267532932884 $312 -4.4235827853814396 $305 $469 forward 7 unknown #
coedge $-1 $187 $186 $470 $471 reversed $74 $-1 #
edge $-1 $312 -58.993499557481613 $472 58.993499557481613 $304 $473 forward 7 unknown #
coedge $-1 $474 $475 $187 $310 forward $461 $-1 #
edge $-1 $313 -58.993499557481613 $476 58.993499557481613 $309 $477 forward 7 unknown #
coedge $-1 $467 $188 $475 $478 forward $300 $-1 #
vertex $-1 $189 $479 #
vertex $-1 $478 $480 #
straight-curve $-1 58.993499557481613 -15.278625160783406 -10.584487554718804 0 -1 0 I I #
face $-1 $481 $482 $44 $-1 $483 reversed single #
loop $-1 $-1 $484 $190 #
plane-surface $-1 0 0 -14.059131522630652 0 0 1 1 0 0 forward_v I I I I #
coedge $-1 $485 $193 $484 $486 reversed $121 $-1 #
coedge $-1 $193 $485 $195 $325 reversed $121 $-1 #
coedge $-1 $487 $488 $193 $321 forward $482 $-1 #
edge $-1 $489 -7.8982267532932884 $490 -4.4235827853814396 $320 $491 forward 7 unknown #
coedge $-1 $195 $194 $487 $492 reversed $77 $-1 #
coedge $-1 $493 $494 $194 $324 forward $495 $-1 #
edge $-1 $496 -58.993499557481613 $328 58.993499557481613 $323 $497 forward 7 unknown #
edge $-1 $490 -58.993499557481613 $329 58.993499557481613 $319 $498 forward 7 unknown #
coedge $-1 $499 $196 $485 $500 forward $191 $-1 #
coedge $-1 $196 $499 $493 $501 reversed $191 $-1 #
vertex $-1 $501 $502 #
vertex $-1 $197 $503 #
straight-curve $-1 58.993499557481613 15.278625160783406 -10.584487554718804 0 -1 0 I I #
face $-1 $-1 $504 $45 $-1 $505 forward single #
loop $-1 $-1 $204 $198 #
plane-surface $-1 -58.993499557481613 0 0 1 0 0 0 0 -1 forward_v I I I I #
coedge $-1 $506 $507 $508 $509 reversed $199 $-1 #
coedge $-1 $510 $201 $203 $341 forward $125 $-1 #
coedge $-1 $201 $510 $506 $511 forward $125 $-1 #
coedge $-1 $508 $204 $201 $338 forward $332 $-1 #
edge $-1 $344 -8.4085657047201998 $512 -0.29042021028154252 $337 $513 forward 7 unknown #
coedge $-1 $514 $515 $202 $340 forward $504 $-1 #
edge $-1 $516 -18.930997199535405 $343 -6.0064249727299455 $339 $517 forward 7 unknown #
edge $-1 $344 0 $516 16.183317867937561 $203 $518 forward 7 unknown #
coedge $-1 $204 $508 $514 $519 reversed $332 $-1 #
vertex $-1 $519 $520 #
vertex $-1 $205 $521 #
straight-curve $-1 -58.993499557481613 12.758058662221071 49.274187060849215 0 0 -1 I I #
coedge $-1 $346 $346 $-1 $522 reversed $208 $-1 #
edge $-1 $523 0 $523 6.2831853071796004 $209 $524 forward 7 unknown #
vertex $-1 $212 $525 #
ellipse-curve $-1 -52.53121344407888 6.959383309050601 9.1894495522963489 -0.6018150307709319 0 0.79863550430605224 0.39931775215302612 0 0.30090751538546595 1 I I #
coedge $-1 $350 $350 $-1 $526 reversed $215 $-1 #
edge $-1 $527 0 $527 6.2831853071796004 $216 $528 forward 7 unknown #
vertex $-1 $219 $529 #
ellipse-curve $-1 -52.53121344407888 10.438588520952884 9.1894495522963489 -0.6018150307709319 0 0.79863550430605224 0.39931775215302612 0 0.30090751538546595 1 I I #
face $-1 $-1 $530 $48 $-1 $531 reversed single #
loop $-1 $-1 $226 $220 #
plane-surface $-1 0 0 14.059131522630652 0 0 1 1 0 0 forward_v I I I I #
coedge $-1 $532 $533 $534 $535 reversed $221 $-1 #
coedge $-1 $536 $223 $225 $364 forward $139 $-1 #
coedge $-1 $223 $536 $532 $537 forward $139 $-1 #
coedge $-1 $534 $226 $223 $361 forward $355 $-1 #
edge $-1 $367 5.2725392477633317 $538 12.911595174039359 $360 $539 forward 7 unknown #
coedge $-1 $540 $541 $224 $363 forward $530 $-1 #
edge $-1 $542 -83.101470404225168 $366 -69.063264390625008 $362 $543 forward 7 unknown #
edge $-1 $367 96.147427801660655 $542 117.98699911496324 $225 $544 forward 7 unknown #
coedge $-1 $226 $534 $540 $545 forward $355 $-1 #
vertex $-1 $227 $546 #
vertex $-1 $227 $547 #
straight-curve $-1 22.225398687352531 -14.364606458664676 14.059131522630651 -1 0 0 I I #
coedge $-1 $369 $369 $-1 $548 reversed $230 $-1 #
edge $-1 $549 0 $549 6.2831853071796004 $231 $550 forward 7 unknown #
vertex $-1 $234 $551 #
ellipse-curve $-1 50.628458507544245 -18.184134421802689 7.0400285158305644 0.64278761758704617 0 0.76604443648966558 1.1490666547344983 0 -0.96418142638056925 1 I I #
face $-1 $-1 $385 $50 $-1 $552 forward single #
loop $-1 $-1 $553 $235 #
plane-surface $-1 58.993499557481613 0 0 -1 0 0 0 0 1 forward_v I I I I #
coedge $-1 $554 $555 $556 $557 reversed $236 $-1 #
coedge $-1 $558 $238 $240 $383 forward $148 $-1 #
coedge $-1 $238 $558 $554 $559 forward $148 $-1 #
coedge $-1 $556 $241 $238 $380 forward $385 $-1 #
edge $-1 $387 -0.78883889283756581 $560 6.8502170334384598 $379 $561 forward 7 unknown #
coedge $-1 $562 $563 $239 $382 forward $374 $-1 #
edge $-1 $564 -83.101470404225168 $386 -69.063264390625008 $381 $565 forward 7 unknown #
edge $-1 $387 96.147427801660655 $564 117.98699911496324 $240 $566 forward 7 unknown #
coedge $-1 $241 $556 $562 $567 forward $385 $-1 #
loop $-1 $-1 $556 $373 #
vertex $-1 $382 $568 #
vertex $-1 $242 $569 #
straight-curve $-1 22.225398687352531 -2.2418501774628812 14.059131522630651 -1 0 0 I I #
coedge $-1 $389 $389 $-1 $570 reversed $245 $-1 #
edge $-1 $571 0 $571 6.2831853071796004 $246 $572 forward 7 unknown #
vertex $-1 $249 $573 #
ellipse-curve $-1 50.628458507544245 -6.061378140600894 7.0400285158305644 0.64278761758704617 0 0.76604443648966558 1.1490666547344983 0 -0.96418142638056925 1 I I #
face $-1 $-1 $405 $52 $-1 $574 forward single #
loop $-1 $-1 $575 $250 #
plane-surface $-1 58.993499557481613 0 0 -1 0 0 0 0 1 forward_v I I I I #
coedge $-1 $576 $577 $578 $579 reversed $251 $-1 #
coedge $-1 $580 $253 $255 $403 forward $157 $-1 #
coedge $-1 $253 $580 $576 $581 forward $157 $-1 #
coedge $-1 $578 $256 $253 $400 forward $405 $-1 #
edge $-1 $407 -6.8502170334384633 $582 0.78883889283756226 $399 $583 forward 7 unknown #
coedge $-1 $584 $585 $254 $402 forward $394 $-1 #
edge $-1 $586 -83.101470404225168 $406 -69.063264390625008 $401 $587 forward 7 unknown #
edge $-1 $407 96.147427801660655 $586 117.98699911496324 $255 $588 forward 7 unknown #
coedge $-1 $256 $578 $584 $589 forward $405 $-1 #
loop $-1 $-1 $578 $393 #
vertex $-1 $402 $590 #
vertex $-1 $257 $591 #
straight-curve $-1 22.225398687352531 9.8809061037389139 14.059131522630651 -1 0 0 I I #
coedge $-1 $409 $409 $-1 $592 reversed $260 $-1 #
edge $-1 $593 0 $593 6.2831853071796004 $261 $594 forward 7 unknown #
vertex $-1 $264 $595 #
ellipse-curve $-1 50.628458507544245 6.0613781406009011 7.0400285158305644 0.64278761758704617 0 0.76604443648966558 1.1490666547344983 0 -0.96418142638056925 1 I I #
face $-1 $-1 $425 $54 $-1 $596 forward single #
loop $-1 $-1 $597 $265 #
plane-surface $-1 58.993499557481613 0 0 -1 0 0 0 0 1 forward_v I I I I #
coedge $-1 $598 $599 $600 $601 reversed $266 $-1 #
coedge $-1 $602 $268 $270 $423 forward $166 $-1 #
coedge $-1 $268 $602 $598 $603 forward $166 $-1 #
coedge $-1 $600 $271 $268 $420 forward $425 $-1 #
edge $-1 $427 -12.911595174039363 $604 -5.2725392477633353 $419 $605 forward 7 unknown #
coedge $-1 $606 $607 $269 $422 forward $414 $-1 #
edge $-1 $608 -83.101470404225168 $426 -69.063264390625008 $421 $609 forward 7 unknown #
edge $-1 $427 96.147427801660655 $608 117.98699911496324 $270 $610 forward 7 unknown #
coedge $-1 $271 $600 $606 $611 forward $425 $-1 #
loop $-1 $-1 $600 $413 #
vertex $-1 $422 $612 #
vertex $-1 $272 $613 #
straight-curve $-1 22.225398687352531 22.003662384940711 14.059131522630651 -1 0 0 I I #
coedge $-1 $429 $429 $-1 $614 reversed $275 $-1 #
edge $-1 $615 0 $615 6.2831853071796004 $276 $616 forward 7 unknown #
vertex $-1 $279 $617 #
ellipse-curve $-1 50.628458507544245 18.184134421802696 7.0400285158305644 0.64278761758704617 0 0.76604443648966558 1.1490666547344983 0 -0.96418142638056925 1 I I #
face $-1 $-1 $295 $42 $-1 $618 reversed single #
loop $-1 $-1 $449 $280 #
plane-surface $-1 0 36.477596215221993 0 0 -1 0 0 0 -1 forward_v I I I I #
coedge $-1 $619 $447 $450 $620 forward $281 $-1 #
coedge $-1 $453 $283 $284 $441 reversed $175 $-1 #
coedge $-1 $447 $619 $283 $439 reversed $281 $-1 #
edge $-1 $454 -14.059131522630652 $621 14.059131522630652 $438 $622 forward 7 unknown #
coedge $-1 $285 $284 $619 $623 forward $113 $-1 #
edge $-1 $445 -58.993499557481613 $621 58.993499557481613 $437 $624 forward 7 unknown #
coedge $-1 $450 $449 $285 $443 reversed $434 $-1 #
edge $-1 $625 -58.993499557481613 $444 58.993499557481613 $442 $626 forward 7 unknown #
vertex $-1 $287 $627 #
vertex $-1 $456 $628 #
straight-curve $-1 58.993499557481613 0 -14.059131522630652 0 -1 0 I I #
coedge $-1 $436 $438 $288 $448 reversed $281 $-1 #
edge $-1 $451 -36.477596215221993 $454 36.477596215221993 $447 $629 forward 7 unknown #
coedge $-1 $442 $289 $294 $457 forward $434 $-1 #
coedge $-1 $289 $442 $436 $620 reversed $434 $-1 #
vertex $-1 $290 $630 #
straight-curve $-1 0 36.477596215221993 14.059131522630652 -1 0 0 I I #
coedge $-1 $291 $437 $293 $456 reversed $175 $-1 #
vertex $-1 $448 $631 #
straight-curve $-1 0 -36.477596215221993 14.059131522630652 1 0 0 I I #
edge $-1 $296 -14.059131522630652 $445 14.059131522630652 $293 $632 forward 7 unknown #
edge $-1 $297 -14.059131522630652 $444 14.059131522630652 $294 $633 forward 7 unknown #
point $-1 58.993499557481613 -36.477596215221993 14.059131522630652 #
point $-1 58.993499557481613 36.477596215221993 14.059131522630652 #
face $-1 $-1 $634 $43 $-1 $635 reversed single #
loop $-1 $-1 $309 $299 #
plane-surface $-1 0 -36.477596215221993 0 0 1 0 0 0 1 forward_v I I I I #
coedge $-1 $636 $302 $467 $637 forward $183 $-1 #
coedge $-1 $302 $636 $638 $639 forward $183 $-1 #
edge $-1 $640 -58.993499557481613 $468 58.993499557481613 $302 $641 forward 7 unknown #
coedge $-1 $304 $303 $642 $643 reversed $117 $-1 #
coedge $-1 $305 $311 $463 $637 reversed $300 $-1 #
vertex $-1 $637 $644 #
straight-curve $-1 58.993499557481613 -24.636904427911631 -6.160904769337364 0 0 1 I I #
coedge $-1 $642 $645 $307 $471 forward $634 $-1 #
edge $-1 $476 -21.198971054438587 $472 -9.3582792671282249 $470 $646 forward 7 unknown #
vertex $-1 $471 $647 #
straight-curve $-1 0 -24.636904427911631 -10.584487554718804 -1 0 0 I I #
coedge $-1 $648 $309 $645 $649 forward $461 $-1 #
coedge $-1 $309 $648 $311 $478 reversed $461 $-1 #
vertex $-1 $649 $650 #
straight-curve $-1 0 -36.477596215221993 -10.584487554718804 -1 0 0 I I #
edge $-1 $313 10.584487554718804 $651 14.059131522630652 $311 $652 forward 7 unknown #
point $-1 58.993499557481613 -24.636904427911631 -10.584487554718804 #
point $-1 58.993499557481613 -36.477596215221993 -10.584487554718804 #
face $-1 $-1 $495 $44 $-1 $653 reversed single #
loop $-1 $-1 $487 $315 #
plane-surface $-1 -58.993499557481613 0 0 1 0 0 0 0 -1 forward_v I I I I #
coedge $-1 $654 $655 $318 $486 forward $316 $-1 #
coedge $-1 $319 $318 $326 $500 reversed $121 $-1 #
edge $-1 $656 -58.993499557481613 $489 58.993499557481613 $484 $657 forward 7 unknown #
coedge $-1 $658 $320 $322 $492 forward $482 $-1 #
coedge $-1 $320 $658 $654 $659 reversed $482 $-1 #
vertex $-1 $659 $660 #
vertex $-1 $492 $661 #
straight-curve $-1 -58.993499557481613 24.636904427911631 -6.160904769337364 0 0 1 I I #
edge $-1 $490 9.3582792671282249 $496 21.198971054438587 $487 $662 forward 7 unknown #
coedge $-1 $663 $323 $327 $501 forward $495 $-1 #
coedge $-1 $323 $663 $658 $664 reversed $495 $-1 #
loop $-1 $-1 $323 $481 #
vertex $-1 $664 $665 #
straight-curve $-1 0 36.477596215221993 -10.584487554718804 1 0 0 I I #
straight-curve $-1 0 24.636904427911631 -10.584487554718804 1 0 0 I I #
coedge $-1 $327 $326 $655 $666 reversed $191 $-1 #
edge $-1 $329 4.4235827853814396 $656 7.8982267532932884 $326 $667 forward 7 unknown #
edge $-1 $328 10.584487554718804 $668 14.059131522630652 $327 $669 forward 7 unknown #
point $-1 58.993499557481613 36.477596215221993 -10.584487554718804 #
point $-1 58.993499557481613 24.636904427911631 -10.584487554718804 #
loop $-1 $-1 $339 $331 #
plane-surface $-1 0 0 14.059131522630652 0 0 1 1 0 0 forward_v I I I I #
coedge $-1 $507 $334 $336 $511 reversed $199 $-1 #
coedge $-1 $334 $506 $670 $671 reversed $199 $-1 #
coedge $-1 $342 $337 $334 $509 forward $332 $-1 #
edge $-1 $512 -44.954419478887175 $672 -35.215055538218564 $508 $673 forward 7 unknown #
coedge $-1 $336 $335 $515 $674 reversed $125 $-1 #
edge $-1 $675 -16.183317867937561 $512 0 $506 $676 forward 7 unknown #
vertex $-1 $338 $677 #
straight-curve $-1 -58.993499557481613 4.3494929575008712 4.3197675819620374 0 -1 0 I I #
coedge $-1 $670 $339 $342 $519 forward $504 $-1 #
coedge $-1 $339 $670 $510 $674 forward $504 $-1 #
vertex $-1 $340 $678 #
straight-curve $-1 -64.999924530211558 12.758058662221071 14.059131522630651 -1 0 0 I I #
straight-curve $-1 -58.993499557481613 12.758058662221071 4.31976758196204 0.79863550430605224 0 0.6018150307709319 I I #
edge $-1 $343 -12.758058662221071 $672 -4.6399131677824137 $342 $679 forward 7 unknown #
point $-1 -58.993499557481613 12.758058662221071 14.059131522630652 #
point $-1 -58.993499557481613 12.758058662221071 4.31976758196204 #
edge $-1 $680 1 $680 0 $346 $-1 forward 7 unknown #
vertex $-1 $347 $681 #
ellipse-curve $-1 -51.929398413307936 6.959383309050601 8.3908140479902826 -0.6018150307709319 0 0.79863550430605224 0.39931775215302612 0 0.30090751538546595 1 I I #
point $-1 -52.131895691925841 6.959383309050601 9.4903570676817992 #
edge $-1 $682 1 $682 0 $350 $-1 forward 7 unknown #
vertex $-1 $351 $683 #
ellipse-curve $-1 -51.929398413307936 10.438588520952884 8.3908140479902826 -0.6018150307709319 0 0.79863550430605224 0.39931775215302612 0 0.30090751538546595 1 I I #
point $-1 -52.131895691925841 10.438588520952884 9.4903570676817992 #
loop $-1 $-1 $362 $354 #
plane-surface $-1 58.993499557481613 0 0 -1 0 0 0 0 1 forward_v I I I I #
coedge $-1 $533 $357 $359 $537 reversed $221 $-1 #
coedge $-1 $357 $532 $684 $685 reversed $221 $-1 #
coedge $-1 $365 $360 $357 $535 forward $355 $-1 #
edge $-1 $538 20.038018770254347 $686 36.768100870129082 $534 $687 forward 7 unknown #
coedge $-1 $359 $358 $541 $688 reversed $139 $-1 #
edge $-1 $689 -117.98699911496324 $538 -96.147427801660655 $532 $690 forward 7 unknown #
vertex $-1 $361 $691 #
straight-curve $-1 42.263417457606877 -9.0920672109013445 14.059131522630651 0 -1 0 I I #
coedge $-1 $684 $362 $365 $545 reversed $530 $-1 #
coedge $-1 $362 $684 $536 $688 forward $530 $-1 #
vertex $-1 $363 $692 #
straight-curve $-1 58.993499557481613 -14.364606458664676 83.122395913255659 0 0 1 I I #
straight-curve $-1 -31.389784692647069 -14.364606458664676 75.861507576382635 0.76604443648966558 0 -0.64278761758704617 I I #
edge $-1 $686 -22.003662384940704 $366 -14.364606458664676 $540 $693 forward 7 unknown #
point $-1 58.993499557481613 -14.364606458664676 14.059131522630652 #
point $-1 42.263417457606877 -14.364606458664676 14.059131522630643 #
edge $-1 $694 1 $694 0 $369 $-1 forward 7 unknown #
vertex $-1 $370 $695 #
ellipse-curve $-1 46.841912333316195 -18.184134421802689 2.5273986036872795 0.64278761758704617 0 0.76604443648966558 1.1490666547344983 0 -0.96418142638056925 1 I I #
point $-1 51.777525162278756 -18.184134421802689 6.0758470894500114 #
plane-surface $-1 0 0 14.059131522630652 0 0 1 1 0 0 forward_v I I I I #
coedge $-1 $563 $562 $555 $696 forward $374 $-1 #
coedge $-1 $555 $376 $378 $559 reversed $236 $-1 #
coedge $-1 $376 $554 $553 $696 reversed $236 $-1 #
coedge $-1 $384 $379 $376 $557 forward $385 $-1 #
edge $-1 $560 20.038018770254347 $697 36.768100870129082 $556 $698 forward 7 unknown #
coedge $-1 $378 $377 $563 $699 reversed $148 $-1 #
edge $-1 $700 -117.98699911496324 $560 -96.147427801660655 $554 $701 forward 7 unknown #
vertex $-1 $380 $702 #
straight-curve $-1 42.263417457606877 -3.030689070300447 14.059131522630651 0 -1 0 I I #
coedge $-1 $553 $381 $384 $567 reversed $374 $-1 #
coedge $-1 $381 $553 $558 $699 forward $374 $-1 #
vertex $-1 $382 $703 #
straight-curve $-1 58.993499557481613 -2.2418501774628812 83.122395913255659 0 0 1 I I #
straight-curve $-1 -31.389784692647069 -2.2418501774628812 75.861507576382635 0.76604443648966558 0 -0.64278761758704617 I I #
edge $-1 $697 -9.8809061037389068 $386 -2.2418501774628812 $562 $704 forward 7 unknown #
point $-1 58.993499557481613 -2.2418501774628812 14.059131522630652 #
point $-1 42.263417457606877 -2.2418501774628812 14.059131522630643 #
edge $-1 $705 1 $705 0 $389 $-1 forward 7 unknown #
vertex $-1 $390 $706 #
ellipse-curve $-1 46.841912333316195 -6.061378140600894 2.5273986036872795 0.64278761758704617 0 0.76604443648966558 1.1490666547344983 0 -0.96418142638056925 1 I I #
point $-1 51.777525162278756 -6.061378140600894 6.0758470894500114 #
plane-surface $-1 0 0 14.059131522630652 0 0 1 1 0 0 forward_v I I I I #
coedge $-1 $585 $584 $577 $707 forward $394 $-1 #
coedge $-1 $577 $396 $398 $581 reversed $251 $-1 #
coedge $-1 $396 $576 $575 $707 reversed $251 $-1 #
coedge $-1 $404 $399 $396 $579 forward $405 $-1 #
edge $-1 $582 20.038018770254347 $708 36.768100870129082 $578 $709 forward 7 unknown #
coedge $-1 $398 $397 $585 $710 reversed $157 $-1 #
edge $-1 $711 -117.98699911496324 $582 -96.147427801660655 $576 $712 forward 7 unknown #
vertex $-1 $400 $713 #
straight-curve $-1 42.263417457606877 3.0306890703004505 14.059131522630651 0 -1 0 I I #
coedge $-1 $575 $401 $404 $589 reversed $394 $-1 #
coedge $-1 $401 $575 $580 $710 forward $394 $-1 #
vertex $-1 $402 $714 #
straight-curve $-1 58.993499557481613 9.8809061037389139 83.122395913255659 0 0 1 I I #
straight-curve $-1 -31.389784692647069 9.8809061037389139 75.861507576382635 0.76604443648966558 0 -0.64278761758704617 I I #
edge $-1 $708 2.2418501774628883 $406 9.8809061037389139 $584 $715 forward 7 unknown #
point $-1 58.993499557481613 9.8809061037389139 14.059131522630652 #
point $-1 42.263417457606877 9.8809061037389139 14.059131522630643 #
edge $-1 $716 1 $716 0 $409 $-1 forward 7 unknown #
vertex $-1 $410 $717 #
ellipse-curve $-1 46.841912333316195 6.0613781406009011 2.5273986036872795 0.64278761758704617 0 0.76604443648966558 1.1490666547344983 0 -0.96418142638056925 1 I I #
point $-1 51.777525162278756 6.0613781406009011 6.0758470894500114 #
plane-surface $-1 0 0 14.059131522630652 0 0 1 1 0 0 forward_v I I I I #
coedge $-1 $607 $606 $599 $718 forward $414 $-1 #
coedge $-1 $599 $416 $418 $603 reversed $266 $-1 #
coedge $-1 $416 $598 $597 $718 reversed $266 $-1 #
coedge $-1 $424 $419 $416 $601 forward $425 $-1 #
edge $-1 $604 20.038018770254347 $719 36.768100870129082 $600 $720 forward 7 unknown #
coedge $-1 $418 $417 $607 $721 reversed $166 $-1 #
edge $-1 $722 -117.98699911496324 $604 -96.147427801660655 $598 $723 forward 7 unknown #
vertex $-1 $420 $724 #
straight-curve $-1 42.263417457606877 9.0920672109013481 14.059131522630651 0 -1 0 I I #
coedge $-1 $597 $421 $424 $611 reversed $414 $-1 #
coedge $-1 $421 $597 $602 $721 forward $414 $-1 #
vertex $-1 $422 $725 #
straight-curve $-1 58.993499557481613 22.003662384940711 83.122395913255659 0 0 1 I I #
straight-curve $-1 -31.389784692647069 22.003662384940711 75.861507576382635 0.76604443648966558 0 -0.64278761758704617 I I #
edge $-1 $719 14.364606458664683 $426 22.003662384940711 $606 $726 forward 7 unknown #
point $-1 58.993499557481613 22.003662384940711 14.059131522630652 #
point $-1 42.263417457606877 22.003662384940711 14.059131522630643 #
edge $-1 $727 1 $727 0 $429 $-1 forward 7 unknown #
vertex $-1 $430 $728 #
ellipse-curve $-1 46.841912333316195 18.184134421802696 2.5273986036872795 0.64278761758704617 0 0.76604443648966558 1.1490666547344983 0 -0.96418142638056925 1 I I #
point $-1 51.777525162278756 18.184134421802696 6.0758470894500114 #
plane-surface $-1 58.993499557481613 0 0 -1 0 0 0 0 1 forward_v I I I I #
coedge $-1 $438 $436 $440 $623 reversed $281 $-1 #
edge $-1 $451 -14.059131522630652 $625 14.059131522630652 $450 $729 forward 7 unknown #
vertex $-1 $623 $730 #
straight-curve $-1 -58.993499557481613 -36.477596215221993 0 0 0 -1 I I #
edge $-1 $621 -36.477596215221993 $625 36.477596215221993 $619 $731 forward 7 unknown #
straight-curve $-1 0 -36.477596215221993 -14.059131522630652 -1 0 0 I I #
vertex $-1 $443 $732 #
straight-curve $-1 0 36.477596215221993 -14.059131522630652 1 0 0 I I #
point $-1 58.993499557481613 36.477596215221993 -14.059131522630652 #
point $-1 58.993499557481613 -36.477596215221993 -14.059131522630652 #
straight-curve $-1 -58.993499557481613 0 14.059131522630652 0 -1 0 I I #
point $-1 -58.993499557481613 36.477596215221993 14.059131522630652 #
point $-1 -58.993499557481613 -36.477596215221993 14.059131522630652 #
straight-curve $-1 58.993499557481613 -36.477596215221993 0 0 0 -1 I I #
straight-curve $-1 58.993499557481613 36.477596215221993 0 0 0 -1 I I #
loop $-1 $-1 $642 $460 #
plane-surface $-1 -58.993499557481613 0 0 1 0 0 0 0 -1 forward_v I I I I #
coedge $-1 $464 $463 $648 $733 forward $183 $-1 #
edge $-1 $468 24.636904427911631 $651 36.477596215221993 $467 $734 forward 7 unknown #
coedge $-1 $645 $642 $464 $639 reversed $634 $-1 #
edge $-1 $735 -36.477596215221993 $640 -24.636904427911631 $638 $736 forward 7 unknown #
vertex $-1 $643 $737 #
straight-curve $-1 0 -24.636904427911631 -14.059131522630652 1 0 0 I I #
coedge $-1 $638 $470 $466 $643 forward $634 $-1 #
edge $-1 $472 4.4235827853814396 $640 7.8982267532932884 $642 $738 forward 7 unknown #
point $-1 58.993499557481613 -24.636904427911631 -14.059131522630652 #
coedge $-1 $470 $638 $474 $649 reversed $634 $-1 #
straight-curve $-1 -58.993499557481613 -15.278625160783406 -10.584487554718804 0 1 0 I I #
point $-1 -58.993499557481613 -24.636904427911631 -10.584487554718804 #
coedge $-1 $475 $474 $636 $733 reversed $461 $-1 #
edge $-1 $476 10.584487554718804 $735 14.059131522630652 $645 $739 forward 7 unknown #
point $-1 -58.993499557481613 -36.477596215221993 -10.584487554718804 #
vertex $-1 $478 $740 #
straight-curve $-1 58.993499557481613 -36.477596215221993 0 0 0 -1 I I #
plane-surface $-1 0 36.477596215221993 0 0 -1 0 0 0 -1 forward_v I I I I #
coedge $-1 $741 $484 $488 $659 forward $316 $-1 #
coedge $-1 $484 $741 $499 $666 forward $316 $-1 #
vertex $-1 $486 $742 #
straight-curve $-1 0 24.636904427911631 -14.059131522630652 -1 0 0 I I #
coedge $-1 $488 $487 $494 $664 forward $482 $-1 #
edge $-1 $489 24.636904427911631 $743 36.477596215221993 $488 $744 forward 7 unknown #
point $-1 -58.993499557481613 24.636904427911631 -14.059131522630652 #
point $-1 -58.993499557481613 24.636904427911631 -10.584487554718804 #
straight-curve $-1 -58.993499557481613 15.278625160783406 -10.584487554718804 0 1 0 I I #
coedge $-1 $494 $493 $741 $745 reversed $495 $-1 #
edge $-1 $496 10.584487554718804 $743 14.059131522630652 $494 $746 forward 7 unknown #
point $-1 -58.993499557481613 36.477596215221993 -10.584487554718804 #
edge $-1 $668 -36.477596215221993 $656 -24.636904427911631 $499 $747 forward 7 unknown #
straight-curve $-1 58.993499557481613 24.636904427911631 -6.160904769337364 0 0 -1 I I #
vertex $-1 $666 $748 #
straight-curve $-1 58.993499557481613 36.477596215221993 0 0 0 -1 I I #
coedge $-1 $515 $514 $507 $671 forward $504 $-1 #
edge $-1 $672 6.0064249727299455 $675 18.930997199535405 $670 $749 forward 7 unknown #
vertex $-1 $671 $750 #
straight-curve $-1 -58.993499557481613 4.6399131677824137 49.274187060849215 0 0 1 I I #
edge $-1 $675 0.29042021028154252 $516 8.4085657047201998 $515 $751 forward 7 unknown #
vertex $-1 $674 $752 #
straight-curve $-1 -58.993499557481613 4.6399131677824137 4.31976758196204 -0.79863550430605224 0 -0.6018150307709319 I I #
point $-1 -58.993499557481613 4.6399131677824137 4.31976758196204 #
point $-1 -46.068927330676154 12.758058662221071 14.059131522630652 #
straight-curve $-1 -58.993499557481613 0 14.059131522630652 0 -1 0 I I #
vertex $-1 $522 $753 #
point $-1 -51.530080661154912 6.959383309050601 8.6917215633757472 #
vertex $-1 $526 $754 #
point $-1 -51.530080661154912 10.438588520952884 8.6917215633757472 #
coedge $-1 $541 $540 $533 $685 forward $530 $-1 #
edge $-1 $686 69.063264390625008 $689 83.101470404225168 $684 $755 forward 7 unknown #
vertex $-1 $545 $756 #
straight-curve $-1 22.225398687352531 -22.003662384940704 14.059131522630651 1 0 0 I I #
edge $-1 $689 -12.911595174039359 $542 -5.2725392477633317 $541 $757 forward 7 unknown #
vertex $-1 $688 $758 #
straight-curve $-1 -31.389784692647069 -22.003662384940704 75.861507576382635 -0.76604443648966558 0 0.64278761758704617 I I #
point $-1 42.263417457606877 -22.003662384940704 14.059131522630643 #
point $-1 58.993499557481613 -14.364606458664676 0.02092550903049073 #
straight-curve $-1 58.993499557481613 0 14.059131522630652 0 1 0 I I #
vertex $-1 $548 $759 #
point $-1 47.990978988050699 -18.184134421802689 1.5632171773067105 #
edge $-1 $697 69.063264390625008 $700 83.101470404225168 $553 $760 forward 7 unknown #
vertex $-1 $567 $761 #
straight-curve $-1 22.225398687352531 -9.8809061037389068 14.059131522630651 1 0 0 I I #
edge $-1 $700 -6.8502170334384598 $564 0.78883889283756581 $563 $762 forward 7 unknown #
vertex $-1 $699 $763 #
straight-curve $-1 -31.389784692647069 -9.8809061037389068 75.861507576382635 -0.76604443648966558 0 0.64278761758704617 I I #
point $-1 42.263417457606877 -9.8809061037389068 14.059131522630643 #
point $-1 58.993499557481613 -2.2418501774628812 0.02092550903049073 #
straight-curve $-1 58.993499557481613 0 14.059131522630652 0 1 0 I I #
vertex $-1 $570 $764 #
point $-1 47.990978988050699 -6.061378140600894 1.5632171773067105 #
edge $-1 $708 69.063264390625008 $711 83.101470404225168 $575 $765 forward 7 unknown #
vertex $-1 $589 $766 #
straight-curve $-1 22.225398687352531 2.2418501774628883 14.059131522630651 1 0 0 I I #
edge $-1 $711 -0.78883889283756226 $586 6.8502170334384633 $585 $767 forward 7 unknown #
vertex $-1 $710 $768 #
straight-curve $-1 -31.389784692647069 2.2418501774628883 75.861507576382635 -0.76604443648966558 0 0.64278761758704617 I I #
point $-1 42.263417457606877 2.2418501774628883 14.059131522630643 #
point $-1 58.993499557481613 9.8809061037389139 0.02092550903049073 #
straight-curve $-1 58.993499557481613 0 14.059131522630652 0 1 0 I I #
vertex $-1 $592 $769 #
point $-1 47.990978988050699 6.0613781406009011 1.5632171773067105 #
edge $-1 $719 69.063264390625008 $722 83.101470404225168 $597 $770 forward 7 unknown #
vertex $-1 $611 $771 #
straight-curve $-1 22.225398687352531 14.364606458664683 14.059131522630651 1 0 0 I I #
edge $-1 $722 5.2725392477633353 $608 12.911595174039363 $607 $772 forward 7 unknown #
vertex $-1 $721 $773 #
straight-curve $-1 -31.389784692647069 14.364606458664683 75.861507576382635 -0.76604443648966558 0 0.64278761758704617 I I #
point $-1 42.263417457606877 14.364606458664683 14.059131522630643 #
point $-1 58.993499557481613 22.003662384940711 0.02092550903049073 #
straight-curve $-1 58.993499557481613 0 14.059131522630652 0 1 0 I I #
vertex $-1 $614 $774 #
point $-1 47.990978988050699 18.184134421802696 1.5632171773067105 #
straight-curve $-1 -58.993499557481613 36.477596215221993 0 0 0 -1 I I #
point $-1 -58.993499557481613 -36.477596215221993 -14.059131522630652 #
straight-curve $-1 -58.993499557481613 0 -14.059131522630652 0 1 0 I I #
point $-1 -58.993499557481613 36.477596215221993 -14.059131522630652 #
edge $-1 $651 -58.993499557481613 $735 58.993499557481613 $648 $775 forward 7 unknown #
straight-curve $-1 58.993499557481613 0 -14.059131522630652 0 -1 0 I I #
vertex $-1 $639 $776 #
straight-curve $-1 -58.993499557481613 0 -14.059131522630652 0 1 0 I I #
point $-1 -58.993499557481613 -24.636904427911631 -14.059131522630652 #
straight-curve $-1 -58.993499557481613 -24.636904427911631 -6.160904769337364 0 0 -1 I I #
straight-curve $-1 -58.993499557481613 -36.477596215221993 0 0 0 -1 I I #
point $-1 58.993499557481613 -36.477596215221993 -14.059131522630652 #
coedge $-1 $655 $654 $663 $745 forward $316 $-1 #
point $-1 58.993499557481613 24.636904427911631 -14.059131522630652 #
vertex $-1 $745 $777 #
straight-curve $-1 -58.993499557481613 0 -14.059131522630652 0 1 0 I I #
edge $-1 $743 -58.993499557481613 $668 58.993499557481613 $663 $778 forward 7 unknown #
straight-curve $-1 -58.993499557481613 36.477596215221993 0 0 0 -1 I I #
straight-curve $-1 58.993499557481613 0 -14.059131522630652 0 -1 0 I I #
point $-1 58.993499557481613 36.477596215221993 -14.059131522630652 #
straight-curve $-1 -64.999924530211558 4.6399131677824137 14.059131522630651 1 0 0 I I #
point $-1 -58.993499557481613 4.6399131677824137 14.059131522630652 #
straight-curve $-1 -46.068927330676161 4.3494929575008712 14.059131522630654 0 1 0 I I #
point $-1 -46.068927330676154 4.6399131677824137 14.059131522630652 #
point $-1 -51.628490897922475 6.959383309050601 7.9914962958372557 #
point $-1 -51.628490897922475 10.438588520952884 7.9914962958372557 #
straight-curve $-1 58.993499557481613 -22.003662384940704 83.122395913255659 0 0 -1 I I #
point $-1 58.993499557481613 -22.003662384940704 14.059131522630652 #
straight-curve $-1 58.993499557481613 -9.0920672109013445 0.020925509030497835 0 1 0 I I #
point $-1 58.993499557481613 -22.003662384940704 0.02092550903049073 #
point $-1 45.877730906935632 -18.184134421802689 1.3783319489527821 #
straight-curve $-1 58.993499557481613 -9.8809061037389068 83.122395913255659 0 0 -1 I I #
point $-1 58.993499557481613 -9.8809061037389068 14.059131522630652 #
straight-curve $-1 58.993499557481613 -3.030689070300447 0.020925509030497835 0 1 0 I I #
point $-1 58.993499557481613 -9.8809061037389068 0.02092550903049073 #
point $-1 45.877730906935632 -6.061378140600894 1.3783319489527821 #
straight-curve $-1 58.993499557481613 2.2418501774628883 83.122395913255659 0 0 -1 I I #
point $-1 58.993499557481613 2.2418501774628883 14.059131522630652 #
straight-curve $-1 58.993499557481613 3.0306890703004505 0.020925509030497835 0 1 0 I I #
point $-1 58.993499557481613 2.2418501774628883 0.02092550903049073 #
point $-1 45.877730906935632 6.0613781406009011 1.3783319489527821 #
straight-curve $-1 58.993499557481613 14.364606458664683 83.122395913255659 0 0 -1 I I #
point $-1 58.993499557481613 14.364606458664683 14.059131522630652 #
straight-curve $-1 58.993499557481613 9.0920672109013481 0.020925509030497835 0 1 0 I I #
point $-1 58.993499557481613 14.364606458664683 0.02092550903049073 #
point $-1 45.877730906935632 18.184134421802696 1.3783319489527821 #
straight-curve $-1 0 -36.477596215221993 -14.059131522630652 -1 0 0 I I #
point $-1 -58.993499557481613 -36.477596215221993 -14.059131522630652 #
point $-1 -58.993499557481613 36.477596215221993 -14.059131522630652 #
straight-curve $-1 0 36.477596215221993 -14.059131522630652 1 0 0 I I #
End-of-ACIS-data 