500 0 14 0           
7 Unknown 11 ACIS 5.0 NT 24 Fri Mar 26 17:08:19 1999 
-1 9.9999999999999995e-007 1e-010 
body $-1 $14 $-1 $15 #
body $-1 $16 $-1 $17 #
body $-1 $18 $-1 $19 #
body $-1 $20 $-1 $21 #
body $-1 $22 $-1 $23 #
body $-1 $24 $-1 $25 #
body $-1 $26 $-1 $27 #
body $-1 $28 $-1 $29 #
body $-1 $30 $-1 $31 #
body $-1 $32 $-1 $33 #
body $-1 $34 $-1 $35 #
body $-1 $36 $-1 $37 #
body $-1 $38 $-1 $39 #
body $-1 $40 $-1 $41 #
lump $-1 $-1 $42 $0 #
transform $-1 1 0 0 0 1 0 0 0 1 64.695577867976937 27.824014770619566 7.1347916900288944 1 rotate no_reflect no_shear #
lump $-1 $-1 $43 $1 #
transform $-1 1 0 0 0 1 0 0 0 1 64.695577867976937 27.824014770619566 7.1347916900288944 1 rotate no_reflect no_shear #
lump $-1 $-1 $44 $2 #
transform $-1 1 0 0 0 1 0 0 0 1 64.695577867976937 27.824014770619566 7.1347916900288944 1 rotate no_reflect no_shear #
lump $-1 $-1 $45 $3 #
transform $-1 1 0 0 0 1 0 0 0 1 64.695577867976937 27.824014770619566 7.1347916900288944 1 rotate no_reflect no_shear #
lump $-1 $-1 $46 $4 #
transform $-1 1 0 0 0 1 0 0 0 1 64.695577867976937 27.824014770619566 7.1347916900288944 1 rotate no_reflect no_shear #
lump $-1 $-1 $47 $5 #
transform $-1 1 0 0 0 1 0 0 0 1 64.695577867976937 27.824014770619566 7.1347916900288944 1 rotate no_reflect no_shear #
lump $-1 $-1 $48 $6 #
transform $-1 1 0 0 0 1 0 0 0 1 64.695577867976937 27.824014770619566 7.1347916900288944 1 rotate no_reflect no_shear #
lump $-1 $-1 $49 $7 #
transform $-1 1 0 0 0 1 0 0 0 1 64.695577867976937 27.824014770619566 7.1347916900288944 1 rotate no_reflect no_shear #
lump $-1 $-1 $50 $8 #
transform $-1 1 0 0 0 1 0 0 0 1 64.695577867976937 27.824014770619566 7.1347916900288944 1 rotate no_reflect no_shear #
lump $-1 $-1 $51 $9 #
transform $-1 1 0 0 0 1 0 0 0 1 64.695577867976937 27.824014770619566 7.1347916900288944 1 rotate no_reflect no_shear #
lump $-1 $-1 $52 $10 #
transform $-1 1 0 0 0 1 0 0 0 1 64.695577867976937 27.824014770619566 7.1347916900288944 1 rotate no_reflect no_shear #
lump $-1 $-1 $53 $11 #
transform $-1 1 0 0 0 1 0 0 0 1 64.695577867976937 27.824014770619566 7.1347916900288944 1 rotate no_reflect no_shear #
lump $-1 $-1 $54 $12 #
transform $-1 1 0 0 0 1 0 0 0 1 64.695577867976937 27.824014770619566 7.1347916900288944 1 rotate no_reflect no_shear #
lump $-1 $-1 $55 $13 #
transform $-1 1 0 0 0 1 0 0 0 1 64.695577867976937 27.824014770619566 7.1347916900288944 1 rotate no_reflect no_shear #
shell $-1 $-1 $-1 $56 $-1 $14 #
shell $-1 $-1 $-1 $57 $-1 $16 #
shell $-1 $-1 $-1 $58 $-1 $18 #
shell $-1 $-1 $-1 $59 $-1 $20 #
shell $-1 $-1 $-1 $60 $-1 $22 #
shell $-1 $-1 $-1 $61 $-1 $24 #
shell $-1 $-1 $-1 $62 $-1 $26 #
shell $-1 $-1 $-1 $63 $-1 $28 #
shell $-1 $-1 $-1 $64 $-1 $30 #
shell $-1 $-1 $-1 $65 $-1 $32 #
shell $-1 $-1 $-1 $66 $-1 $34 #
shell $-1 $-1 $-1 $67 $-1 $36 #
shell $-1 $-1 $-1 $68 $-1 $38 #
shell $-1 $-1 $-1 $69 $-1 $40 #
face $-1 $70 $71 $42 $-1 $72 forward single #
face $-1 $73 $74 $43 $-1 $75 forward single #
face $-1 $76 $77 $44 $-1 $78 forward single #
face $-1 $79 $80 $45 $-1 $81 reversed single #
face $-1 $82 $83 $46 $-1 $84 forward single #
face $-1 $85 $86 $47 $-1 $87 reversed single #
face $-1 $88 $89 $48 $-1 $90 forward single #
face $-1 $91 $92 $49 $-1 $93 reversed single #
face $-1 $94 $95 $50 $-1 $96 forward single #
face $-1 $97 $98 $51 $-1 $99 reversed single #
face $-1 $100 $101 $52 $-1 $102 forward single #
face $-1 $103 $104 $53 $-1 $105 reversed single #
face $-1 $106 $107 $54 $-1 $108 forward single #
face $-1 $109 $110 $55 $-1 $111 forward single #
face $-1 $112 $113 $42 $-1 $114 reversed single #
loop $-1 $-1 $115 $56 #
plane-surface $-1 0 0 7.1347916900288944 0 0 1 1 0 0 forward_v I I I I #
face $-1 $116 $117 $43 $-1 $118 reversed single #
loop $-1 $-1 $119 $57 #
plane-surface $-1 -60.016004153314825 0 -3.8195642539692631 0 0 1 1 0 0 forward_v I I I I #
face $-1 $120 $121 $44 $-1 $122 reversed single #
loop $-1 $-1 $123 $58 #
plane-surface $-1 60.016004153314825 0 -3.8195642539692631 0 0 1 1 0 0 forward_v I I I I #
face $-1 $124 $125 $45 $-1 $126 reversed single #
loop $-1 $-1 $127 $59 #
plane-surface $-1 -43.793920145916005 49.198676457849629 142.72097264117099 -1 0 0 0 0.52991927123019833 0.84804809178421925 forward_v I I I I #
face $-1 $128 $129 $46 $-1 $130 forward single #
loop $-1 $131 $132 $60 #
cone-surface $-1 -49.565175292284358 24.347159888552035 4.4061152159439265 0 -0.52991927123019833 -0.84804809178421925 1 0 0 1 I I 0 1 1 forward I I I I #
face $-1 $133 $134 $47 $-1 $135 reversed single #
loop $-1 $-1 $136 $61 #
plane-surface $-1 -16.125704926589648 49.198676457849629 142.72097264117099 -1 0 0 0 0.52991927123019833 0.84804809178421925 forward_v I I I I #
face $-1 $137 $138 $48 $-1 $139 forward single #
loop $-1 $140 $141 $62 #
cone-surface $-1 -21.896960072958002 24.347159888552035 4.4061152159439265 0 -0.52991927123019833 -0.84804809178421925 1 0 0 1 I I 0 1 1 forward I I I I #
face $-1 $142 $143 $49 $-1 $144 reversed single #
loop $-1 $-1 $145 $63 #
plane-surface $-1 11.542510292736713 49.198676457849629 142.72097264117099 -1 0 0 0 0.52991927123019833 0.84804809178421925 forward_v I I I I #
face $-1 $146 $147 $50 $-1 $148 forward single #
loop $-1 $149 $150 $64 #
cone-surface $-1 5.771255146368361 24.347159888552035 4.4061152159439265 0 -0.52991927123019833 -0.84804809178421925 1 0 0 1 I I 0 1 1 forward I I I I #
face $-1 $151 $152 $51 $-1 $153 reversed single #
loop $-1 $-1 $154 $65 #
plane-surface $-1 39.210725512063071 49.198676457849629 142.72097264117099 -1 0 0 0 0.52991927123019833 0.84804809178421925 forward_v I I I I #
face $-1 $155 $156 $52 $-1 $157 forward single #
loop $-1 $158 $159 $66 #
cone-surface $-1 33.439470365694717 24.347159888552035 4.4061152159439265 0 -0.52991927123019833 -0.84804809178421925 1 0 0 1 I I 0 1 1 forward I I I I #
face $-1 $160 $161 $53 $-1 $162 reversed single #
loop $-1 $-1 $163 $67 #
plane-surface $-1 -55.336430438652712 -131.16038749151676 81.523304229045735 1 0 0 0 0.79863551827123203 -0.60181501223851219 forward_v I I I I #
face $-1 $164 $165 $54 $-1 $166 forward single #
loop $-1 $167 $168 $68 #
cone-surface $-1 -51.515818904405798 -25.40262373681054 4.5579687084935205 0 0.79863551827123203 -0.60181501223851219 1 0 0 1 I I 0 1 1 forward I I I I #
face $-1 $169 $170 $55 $-1 $171 forward single #
loop $-1 $172 $173 $69 #
cone-surface $-1 -45.784901603035429 -25.40262373681054 4.5579687084935205 0 0.79863551827123203 -0.60181501223851219 1 0 0 1 I I 0 1 1 forward I I I I #
face $-1 $174 $175 $42 $-1 $176 reversed single #
loop $-1 $-1 $177 $70 #
plane-surface $-1 0 0 -7.1347916900288944 0 0 1 1 0 0 forward_v I I I I #
coedge $-1 $178 $179 $180 $181 forward $71 $-1 #
face $-1 $182 $183 $43 $-1 $184 reversed single #
loop $-1 $-1 $185 $73 #
plane-surface $-1 -55.336430438652712 0 -5.4771779719990787 -1 0 0 0 0 1 forward_v I I I I #
coedge $-1 $186 $187 $188 $189 forward $74 $-1 #
face $-1 $190 $191 $44 $-1 $192 reversed single #
loop $-1 $-1 $193 $76 #
plane-surface $-1 55.336430438652712 0 -5.4771779719990787 1 0 0 0 0 -1 forward_v I I I I #
coedge $-1 $194 $195 $196 $197 reversed $77 $-1 #
face $-1 $198 $199 $45 $-1 $200 reversed single #
loop $-1 $-1 $201 $79 #
plane-surface $-1 -49.565175292284358 -19.368190493380141 32.991049925540565 0 0.52991927123019833 0.84804809178421925 1 0 0 forward_v I I I I #
coedge $-1 $202 $203 $204 $205 reversed $80 $-1 #
face $-1 $-1 $206 $46 $-1 $207 forward single #
loop $-1 $208 $209 $82 #
cone-surface $-1 -49.565175292284358 23.512116959669317 3.0697672081560192 0 -0.52991927123019833 -0.84804809178421925 0.5 0 0 1 I I -0.70710678118654724 0.70710678118654791 0.5 forward I I I I #
loop $-1 $-1 $210 $60 #
coedge $-1 $132 $132 $211 $212 reversed $83 $-1 #
face $-1 $213 $214 $47 $-1 $215 reversed single #
loop $-1 $-1 $216 $85 #
plane-surface $-1 -21.896960072958002 -19.368190493380141 32.991049925540565 0 0.52991927123019833 0.84804809178421925 1 0 0 forward_v I I I I #
coedge $-1 $217 $218 $219 $220 reversed $86 $-1 #
face $-1 $-1 $221 $48 $-1 $222 forward single #
loop $-1 $223 $224 $88 #
cone-surface $-1 -21.896960072958002 23.512116959669317 3.0697672081560192 0 -0.52991927123019833 -0.84804809178421925 0.5 0 0 1 I I -0.70710678118654724 0.70710678118654791 0.5 forward I I I I #
loop $-1 $-1 $225 $62 #
coedge $-1 $141 $141 $226 $227 reversed $89 $-1 #
face $-1 $228 $229 $49 $-1 $230 reversed single #
loop $-1 $-1 $231 $91 #
plane-surface $-1 5.771255146368361 -19.368190493380141 32.991049925540565 0 0.52991927123019833 0.84804809178421925 1 0 0 forward_v I I I I #
coedge $-1 $232 $233 $234 $235 reversed $92 $-1 #
face $-1 $-1 $236 $50 $-1 $237 forward single #
loop $-1 $238 $239 $94 #
cone-surface $-1 5.771255146368361 23.512116959669317 3.0697672081560192 0 -0.52991927123019833 -0.84804809178421925 0.5 0 0 1 I I -0.70710678118654724 0.70710678118654791 0.5 forward I I I I #
loop $-1 $-1 $240 $64 #
coedge $-1 $150 $150 $241 $242 reversed $95 $-1 #
face $-1 $243 $244 $51 $-1 $245 reversed single #
loop $-1 $-1 $246 $97 #
plane-surface $-1 33.439470365694717 -19.368190493380141 32.991049925540565 0 0.52991927123019833 0.84804809178421925 1 0 0 forward_v I I I I #
coedge $-1 $247 $248 $249 $250 reversed $98 $-1 #
face $-1 $-1 $251 $52 $-1 $252 forward single #
loop $-1 $253 $254 $100 #
cone-surface $-1 33.439470365694717 23.512116959669317 3.0697672081560192 0 -0.52991927123019833 -0.84804809178421925 0.5 0 0 1 I I -0.70710678118654724 0.70710678118654791 0.5 forward I I I I #
loop $-1 $-1 $255 $66 #
coedge $-1 $159 $159 $256 $257 reversed $101 $-1 #
face $-1 $258 $259 $53 $-1 $260 reversed single #
loop $-1 $-1 $261 $103 #
plane-surface $-1 -48.650360253720613 -27.824014770619542 3.6537642562574177 0 -0.79863551827123203 0.60181501223851219 1 0 0 forward_v I I I I #
coedge $-1 $262 $263 $264 $265 reversed $104 $-1 #
face $-1 $-1 $266 $54 $-1 $267 forward single #
loop $-1 $268 $269 $106 #
cone-surface $-1 -51.515818904405798 -23.893486067194214 3.4207519377246314 0 0.79863551827123203 -0.60181501223851219 0.5 0 0 1 I I -0.70710678118654779 0.70710678118654713 0.5 forward I I I I #
loop $-1 $-1 $270 $68 #
coedge $-1 $168 $168 $271 $272 reversed $107 $-1 #
face $-1 $-1 $273 $55 $-1 $274 forward single #
loop $-1 $275 $276 $109 #
cone-surface $-1 -45.784901603035429 -23.893486067194214 3.4207519377246314 0 0.79863551827123203 -0.60181501223851219 0.5 0 0 1 I I -0.70710678118654779 0.70710678118654713 0.5 forward I I I I #
loop $-1 $-1 $277 $69 #
coedge $-1 $173 $173 $278 $279 reversed $110 $-1 #
face $-1 $280 $281 $42 $-1 $282 reversed single #
loop $-1 $-1 $283 $112 #
plane-surface $-1 0 -27.824014770619566 0 0 1 0 0 0 1 forward_v I I I I #
coedge $-1 $284 $285 $286 $287 forward $113 $-1 #
coedge $-1 $288 $115 $289 $290 forward $71 $-1 #
coedge $-1 $115 $288 $291 $292 forward $71 $-1 #
coedge $-1 $293 $294 $115 $181 reversed $295 $-1 #
edge $-1 $296 -27.824014770619566 $297 27.824014770619566 $180 $298 forward 7 unknown #
face $-1 $299 $300 $43 $-1 $301 reversed single #
loop $-1 $-1 $302 $116 #
plane-surface $-1 0 0 -7.1347916900288944 0 0 1 1 0 0 forward_v I I I I #
coedge $-1 $303 $188 $304 $305 reversed $117 $-1 #
coedge $-1 $306 $119 $307 $308 reversed $74 $-1 #
coedge $-1 $119 $306 $309 $310 reversed $74 $-1 #
coedge $-1 $185 $311 $119 $189 reversed $117 $-1 #
edge $-1 $312 -27.824014770619566 $313 27.824014770619566 $188 $314 forward 7 unknown #
face $-1 $315 $316 $44 $-1 $317 reversed single #
loop $-1 $-1 $318 $120 #
plane-surface $-1 0 -27.824014770619566 0 0 1 0 0 0 1 forward_v I I I I #
coedge $-1 $319 $320 $321 $322 reversed $121 $-1 #
coedge $-1 $323 $123 $324 $325 reversed $77 $-1 #
coedge $-1 $123 $323 $318 $326 reversed $77 $-1 #
coedge $-1 $327 $328 $123 $197 forward $329 $-1 #
edge $-1 $330 -27.824014770619566 $331 27.824014770619566 $196 $332 forward 7 unknown #
face $-1 $333 $334 $45 $-1 $335 reversed single #
loop $-1 $-1 $336 $124 #
plane-surface $-1 -55.336430438652712 49.198676457849629 142.72097264117099 1 0 0 0 -0.52991927123019833 -0.84804809178421925 forward_v I I I I #
coedge $-1 $337 $338 $339 $340 reversed $125 $-1 #
coedge $-1 $203 $127 $341 $342 reversed $80 $-1 #
coedge $-1 $127 $202 $337 $343 reversed $80 $-1 #
coedge $-1 $339 $344 $127 $205 forward $334 $-1 #
edge $-1 $345 64.225694630556603 $346 67.858399654934914 $204 $347 forward 7 unknown #
loop $-1 $-1 $211 $128 #
plane-surface $-1 -49.565175292284358 -19.368190493380141 32.991049925540565 0 0.52991927123019833 0.84804809178421925 1 0 0 forward_v I I I I #
loop $-1 $-1 $348 $82 #
coedge $-1 $209 $209 $210 $349 reversed $129 $-1 #
coedge $-1 $210 $210 $209 $349 forward $131 $-1 #
coedge $-1 $211 $211 $132 $212 forward $206 $-1 #
edge $-1 $350 2.1644194138262171e-015 $350 6.2831853071796022 $211 $351 forward 7 unknown #
face $-1 $352 $353 $47 $-1 $354 forward single #
loop $-1 $-1 $355 $133 #
plane-surface $-1 -27.668215219326356 49.198676457849629 142.72097264117099 1 0 0 0 -0.52991927123019833 -0.84804809178421925 forward_v I I I I #
coedge $-1 $356 $357 $358 $359 reversed $134 $-1 #
coedge $-1 $218 $136 $360 $361 reversed $86 $-1 #
coedge $-1 $136 $217 $356 $362 reversed $86 $-1 #
coedge $-1 $358 $363 $136 $220 forward $364 $-1 #
edge $-1 $365 64.225694630556603 $366 67.858399654934914 $219 $367 forward 7 unknown #
loop $-1 $-1 $226 $137 #
plane-surface $-1 -21.896960072958002 -19.368190493380141 32.991049925540565 0 0.52991927123019833 0.84804809178421925 1 0 0 forward_v I I I I #
loop $-1 $-1 $368 $88 #
coedge $-1 $224 $224 $225 $369 reversed $138 $-1 #
coedge $-1 $225 $225 $224 $369 forward $140 $-1 #
coedge $-1 $226 $226 $141 $227 forward $221 $-1 #
edge $-1 $370 2.1644194138262171e-015 $370 6.2831853071796022 $226 $371 forward 7 unknown #
face $-1 $372 $373 $49 $-1 $374 forward single #
loop $-1 $-1 $375 $142 #
plane-surface $-1 8.8817841970012523e-015 49.198676457849629 142.72097264117099 1 0 0 0 -0.52991927123019833 -0.84804809178421925 forward_v I I I I #
coedge $-1 $376 $377 $378 $379 reversed $143 $-1 #
coedge $-1 $233 $145 $380 $381 reversed $92 $-1 #
coedge $-1 $145 $232 $376 $382 reversed $92 $-1 #
coedge $-1 $378 $383 $145 $235 forward $384 $-1 #
edge $-1 $385 64.225694630556603 $386 67.858399654934914 $234 $387 forward 7 unknown #
loop $-1 $-1 $241 $146 #
plane-surface $-1 5.771255146368361 -19.368190493380141 32.991049925540565 0 0.52991927123019833 0.84804809178421925 1 0 0 forward_v I I I I #
loop $-1 $-1 $388 $94 #
coedge $-1 $239 $239 $240 $389 reversed $147 $-1 #
coedge $-1 $240 $240 $239 $389 forward $149 $-1 #
coedge $-1 $241 $241 $150 $242 forward $236 $-1 #
edge $-1 $390 2.1644194138262171e-015 $390 6.2831853071796022 $241 $391 forward 7 unknown #
face $-1 $392 $393 $51 $-1 $394 forward single #
loop $-1 $-1 $395 $151 #
plane-surface $-1 27.668215219326363 49.198676457849629 142.72097264117099 1 0 0 0 -0.52991927123019833 -0.84804809178421925 forward_v I I I I #
coedge $-1 $396 $397 $398 $399 reversed $152 $-1 #
coedge $-1 $248 $154 $400 $401 reversed $98 $-1 #
coedge $-1 $154 $247 $396 $402 reversed $98 $-1 #
coedge $-1 $398 $403 $154 $250 forward $404 $-1 #
edge $-1 $405 64.225694630556603 $406 67.858399654934914 $249 $407 forward 7 unknown #
loop $-1 $-1 $256 $155 #
plane-surface $-1 33.439470365694717 -19.368190493380141 32.991049925540565 0 0.52991927123019833 0.84804809178421925 1 0 0 forward_v I I I I #
loop $-1 $-1 $408 $100 #
coedge $-1 $254 $254 $255 $409 reversed $156 $-1 #
coedge $-1 $255 $255 $254 $409 forward $158 $-1 #
coedge $-1 $256 $256 $159 $257 forward $251 $-1 #
edge $-1 $410 2.1644194138262171e-015 $410 6.2831853071796022 $256 $411 forward 7 unknown #
face $-1 $412 $413 $53 $-1 $414 forward single #
loop $-1 $-1 $415 $160 #
plane-surface $-1 -41.964290068788515 -131.16038749151676 81.523304229045735 -1 0 0 0 -0.79863551827123203 0.60181501223851219 forward_v I I I I #
coedge $-1 $416 $417 $418 $419 reversed $161 $-1 #
coedge $-1 $263 $163 $420 $421 reversed $104 $-1 #
coedge $-1 $163 $262 $416 $422 reversed $104 $-1 #
coedge $-1 $418 $423 $163 $265 forward $424 $-1 #
edge $-1 $425 33.62686042449397 $426 37.107887858265485 $264 $427 forward 7 unknown #
loop $-1 $-1 $271 $164 #
plane-surface $-1 -48.650360253720613 -27.824014770619542 3.6537642562574177 0 -0.79863551827123203 0.60181501223851219 1 0 0 forward_v I I I I #
loop $-1 $-1 $428 $106 #
coedge $-1 $269 $269 $270 $429 reversed $165 $-1 #
coedge $-1 $270 $270 $269 $429 forward $167 $-1 #
coedge $-1 $271 $271 $168 $272 forward $266 $-1 #
edge $-1 $430 1.3884098796181073e-015 $430 6.2831853071796022 $271 $431 forward 7 unknown #
loop $-1 $-1 $278 $169 #
plane-surface $-1 -48.650360253720613 -27.824014770619542 3.6537642562574177 0 -0.79863551827123203 0.60181501223851219 1 0 0 forward_v I I I I #
loop $-1 $-1 $432 $109 #
coedge $-1 $276 $276 $277 $433 reversed $170 $-1 #
coedge $-1 $277 $277 $276 $433 forward $172 $-1 #
coedge $-1 $278 $278 $173 $279 forward $273 $-1 #
edge $-1 $434 1.3884098796181073e-015 $434 6.2831853071796022 $278 $435 forward 7 unknown #
face $-1 $436 $437 $42 $-1 $438 reversed single #
loop $-1 $-1 $439 $174 #
plane-surface $-1 -64.695577867976937 0 0 1 0 0 0 0 -1 forward_v I I I I #
coedge $-1 $440 $291 $441 $442 forward $175 $-1 #
coedge $-1 $443 $177 $440 $444 forward $113 $-1 #
coedge $-1 $177 $443 $445 $446 forward $113 $-1 #
coedge $-1 $294 $293 $177 $287 reversed $295 $-1 #
edge $-1 $447 -27.824014770619566 $448 27.824014770619566 $286 $449 forward 7 unknown #
coedge $-1 $179 $178 $450 $451 forward $71 $-1 #
coedge $-1 $452 $453 $178 $290 reversed $437 $-1 #
edge $-1 $297 -64.695577867976937 $454 64.695577867976937 $289 $455 forward 7 unknown #
coedge $-1 $283 $456 $179 $292 reversed $175 $-1 #
edge $-1 $457 -64.695577867976937 $296 64.695577867976937 $291 $458 forward 7 unknown #
coedge $-1 $286 $180 $456 $459 forward $295 $-1 #
coedge $-1 $180 $286 $452 $460 reversed $295 $-1 #
loop $-1 $-1 $293 $436 #
vertex $-1 $181 $461 #
vertex $-1 $181 $462 #
straight-curve $-1 64.695577867976937 0 7.1347916900288944 0 1 0 I I #
face $-1 $463 $464 $43 $-1 $465 reversed single #
loop $-1 $-1 $304 $182 #
plane-surface $-1 0 -27.824014770619566 0 0 1 0 0 0 1 forward_v I I I I #
coedge $-1 $466 $467 $303 $468 forward $183 $-1 #
coedge $-1 $311 $185 $302 $468 reversed $117 $-1 #
coedge $-1 $309 $469 $185 $305 forward $300 $-1 #
edge $-1 $470 -4.3962027040293545 $312 -1.0809752679697238 $304 $471 forward 7 unknown #
coedge $-1 $187 $186 $472 $473 reversed $74 $-1 #
coedge $-1 $474 $475 $186 $308 forward $476 $-1 #
edge $-1 $477 -34.687575791319524 $313 -25.3284283619953 $307 $478 forward 7 unknown #
coedge $-1 $479 $304 $187 $310 forward $300 $-1 #
edge $-1 $312 25.3284283619953 $480 34.687575791319524 $309 $481 forward 7 unknown #
coedge $-1 $188 $303 $474 $482 reversed $117 $-1 #
vertex $-1 $310 $483 #
vertex $-1 $308 $484 #
straight-curve $-1 -55.336430438652712 0 -3.8195642539692631 0 1 0 I I #
face $-1 $485 $486 $44 $-1 $487 reversed single #
loop $-1 $-1 $488 $190 #
plane-surface $-1 0 0 -7.1347916900288944 0 0 1 1 0 0 forward_v I I I I #
coedge $-1 $489 $490 $195 $326 forward $191 $-1 #
coedge $-1 $491 $193 $488 $492 reversed $121 $-1 #
coedge $-1 $193 $491 $323 $493 reversed $121 $-1 #
coedge $-1 $324 $494 $193 $322 forward $486 $-1 #
edge $-1 $495 -4.3962027040293545 $496 -1.0809752679697238 $321 $497 forward 7 unknown #
coedge $-1 $195 $194 $320 $493 forward $77 $-1 #
coedge $-1 $498 $321 $194 $325 forward $486 $-1 #
edge $-1 $496 25.3284283619953 $330 34.687575791319524 $324 $499 forward 7 unknown #
edge $-1 $331 -34.687575791319524 $500 -25.3284283619953 $318 $501 forward 7 unknown #
coedge $-1 $502 $196 $490 $503 forward $329 $-1 #
coedge $-1 $196 $502 $498 $504 reversed $329 $-1 #
loop $-1 $-1 $196 $485 #
vertex $-1 $504 $505 #
vertex $-1 $503 $506 #
straight-curve $-1 64.695577867976937 0 -3.8195642539692631 0 -1 0 I I #
face $-1 $-1 $507 $45 $-1 $508 forward single #
loop $-1 $-1 $204 $198 #
plane-surface $-1 0 27.824014770619566 0 0 -1 0 0 0 -1 forward_v I I I I #
coedge $-1 $509 $510 $511 $512 reversed $199 $-1 #
coedge $-1 $513 $201 $203 $343 forward $125 $-1 #
coedge $-1 $201 $513 $509 $514 forward $125 $-1 #
coedge $-1 $511 $204 $201 $340 forward $334 $-1 #
edge $-1 $346 19.011332499773825 $515 30.553842792510533 $339 $516 forward 7 unknown #
coedge $-1 $517 $518 $202 $342 forward $507 $-1 #
edge $-1 $519 -2.588866635905049 $345 3.2246765416947518 $341 $520 forward 7 unknown #
edge $-1 $346 -55.64802954123914 $519 -48.792824943857624 $203 $521 forward 7 unknown #
coedge $-1 $204 $511 $517 $522 reversed $334 $-1 #
vertex $-1 $522 $523 #
vertex $-1 $205 $524 #
straight-curve $-1 -43.793920145916005 27.824014770619566 71.360486320585494 0 0 -1 I I #
coedge $-1 $348 $348 $-1 $525 reversed $208 $-1 #
edge $-1 $526 0 $526 6.2831853071796004 $209 $527 forward 7 unknown #
vertex $-1 $212 $528 #
ellipse-curve $-1 -49.565175292284358 24.917243181819661 5.3184391778397346 0 0.52991927123019833 0.84804809178421925 1 0 0 1 I I #
face $-1 $-1 $364 $47 $-1 $529 reversed single #
loop $-1 $-1 $530 $213 #
plane-surface $-1 0 0 7.1347916900288944 0 0 1 1 0 0 forward_v I I I I #
coedge $-1 $531 $532 $533 $534 reversed $214 $-1 #
coedge $-1 $535 $216 $218 $362 forward $134 $-1 #
coedge $-1 $216 $535 $531 $536 forward $134 $-1 #
coedge $-1 $533 $219 $216 $359 forward $364 $-1 #
edge $-1 $366 5.1772248901106472 $537 16.719735182847355 $358 $538 forward 7 unknown #
coedge $-1 $539 $540 $217 $361 forward $353 $-1 #
edge $-1 $541 -2.588866635905049 $365 3.2246765416947518 $360 $542 forward 7 unknown #
edge $-1 $366 -55.64802954123914 $541 -48.792824943857624 $218 $543 forward 7 unknown #
coedge $-1 $219 $533 $539 $544 reversed $364 $-1 #
loop $-1 $-1 $533 $352 #
vertex $-1 $544 $545 #
vertex $-1 $220 $546 #
straight-curve $-1 -16.125704926589648 27.824014770619566 71.360486320585494 0 0 -1 I I #
coedge $-1 $368 $368 $-1 $547 reversed $223 $-1 #
edge $-1 $548 0 $548 6.2831853071796004 $224 $549 forward 7 unknown #
vertex $-1 $227 $550 #
ellipse-curve $-1 -21.896960072958002 24.917243181819661 5.3184391778397346 0 0.52991927123019833 0.84804809178421925 1 0 0 1 I I #
face $-1 $-1 $384 $49 $-1 $551 reversed single #
loop $-1 $-1 $552 $228 #
plane-surface $-1 0 0 7.1347916900288944 0 0 1 1 0 0 forward_v I I I I #
coedge $-1 $553 $554 $555 $556 reversed $229 $-1 #
coedge $-1 $557 $231 $233 $382 forward $143 $-1 #
coedge $-1 $231 $557 $553 $558 forward $143 $-1 #
coedge $-1 $555 $234 $231 $379 forward $384 $-1 #
edge $-1 $386 -8.6568827195525326 $559 2.8856275731841716 $378 $560 forward 7 unknown #
coedge $-1 $561 $562 $232 $381 forward $373 $-1 #
edge $-1 $563 -2.588866635905049 $385 3.2246765416947518 $380 $564 forward 7 unknown #
edge $-1 $386 -55.64802954123914 $563 -48.792824943857624 $233 $565 forward 7 unknown #
coedge $-1 $234 $555 $561 $566 reversed $384 $-1 #
loop $-1 $-1 $555 $372 #
vertex $-1 $566 $567 #
vertex $-1 $235 $568 #
straight-curve $-1 11.542510292736713 27.824014770619566 71.360486320585494 0 0 -1 I I #
coedge $-1 $388 $388 $-1 $569 reversed $238 $-1 #
edge $-1 $570 0 $570 6.2831853071796004 $239 $571 forward 7 unknown #
vertex $-1 $242 $572 #
ellipse-curve $-1 5.771255146368361 24.917243181819661 5.3184391778397346 0 0.52991927123019833 0.84804809178421925 1 0 0 1 I I #
face $-1 $-1 $404 $51 $-1 $573 reversed single #
loop $-1 $-1 $574 $243 #
plane-surface $-1 0 0 7.1347916900288944 0 0 1 1 0 0 forward_v I I I I #
coedge $-1 $575 $576 $577 $578 reversed $244 $-1 #
coedge $-1 $579 $246 $248 $402 forward $152 $-1 #
coedge $-1 $246 $579 $575 $580 forward $152 $-1 #
coedge $-1 $577 $249 $246 $399 forward $404 $-1 #
edge $-1 $406 -22.490990329215713 $581 -10.948480036479005 $398 $582 forward 7 unknown #
coedge $-1 $583 $584 $247 $401 forward $393 $-1 #
edge $-1 $585 -2.588866635905049 $405 3.2246765416947518 $400 $586 forward 7 unknown #
edge $-1 $406 -55.64802954123914 $585 -48.792824943857624 $248 $587 forward 7 unknown #
coedge $-1 $249 $577 $583 $588 reversed $404 $-1 #
loop $-1 $-1 $577 $392 #
vertex $-1 $588 $589 #
vertex $-1 $250 $590 #
straight-curve $-1 39.210725512063071 27.824014770619566 71.360486320585494 0 0 -1 I I #
coedge $-1 $408 $408 $-1 $591 reversed $253 $-1 #
edge $-1 $592 0 $592 6.2831853071796004 $254 $593 forward 7 unknown #
vertex $-1 $257 $594 #
ellipse-curve $-1 33.439470365694717 24.917243181819661 5.3184391778397346 0 0.52991927123019833 0.84804809178421925 1 0 0 1 I I #
face $-1 $-1 $424 $53 $-1 $595 reversed single #
loop $-1 $-1 $596 $258 #
plane-surface $-1 0 0 7.1347916900288944 0 0 1 1 0 0 forward_v I I I I #
coedge $-1 $597 $598 $599 $600 reversed $259 $-1 #
coedge $-1 $601 $261 $263 $422 forward $161 $-1 #
coedge $-1 $261 $601 $597 $602 forward $161 $-1 #
coedge $-1 $599 $264 $261 $419 forward $424 $-1 #
edge $-1 $426 -31.011250311792406 $603 -17.639109941928208 $418 $604 forward 7 unknown #
coedge $-1 $605 $606 $262 $421 forward $413 $-1 #
edge $-1 $607 -40.379321221795465 $425 -37.756178975138809 $420 $608 forward 7 unknown #
edge $-1 $426 -4.1211775786388506e-014 $607 4.3587185319614763 $263 $609 forward 7 unknown #
coedge $-1 $264 $599 $605 $610 reversed $424 $-1 #
loop $-1 $-1 $599 $412 #
vertex $-1 $610 $611 #
vertex $-1 $265 $612 #
straight-curve $-1 -55.336430438652712 -27.82401477061957 40.761652114522867 0 0 -1 I I #
coedge $-1 $428 $428 $-1 $613 reversed $268 $-1 #
edge $-1 $614 0 $614 6.2831853071796004 $269 $615 forward 7 unknown #
vertex $-1 $272 $616 #
ellipse-curve $-1 -51.515818904405798 -26.512443647291239 5.3942779731431445 0 -0.79863551827123203 0.60181501223851219 1 0 0 1 I I #
coedge $-1 $432 $432 $-1 $617 reversed $275 $-1 #
edge $-1 $618 0 $618 6.2831853071796004 $276 $619 forward 7 unknown #
vertex $-1 $279 $620 #
ellipse-curve $-1 -45.784901603035429 -26.512443647291239 5.3942779731431445 0 -0.79863551827123203 0.60181501223851219 1 0 0 1 I I #
face $-1 $-1 $295 $42 $-1 $621 reversed single #
loop $-1 $-1 $452 $280 #
plane-surface $-1 0 27.824014770619566 0 0 -1 0 0 0 -1 forward_v I I I I #
coedge $-1 $622 $450 $453 $623 forward $281 $-1 #
coedge $-1 $456 $283 $284 $444 reversed $175 $-1 #
coedge $-1 $450 $622 $283 $442 reversed $281 $-1 #
edge $-1 $457 -7.1347916900288944 $624 7.1347916900288944 $441 $625 forward 7 unknown #
coedge $-1 $285 $284 $622 $626 forward $113 $-1 #
edge $-1 $448 -64.695577867976937 $624 64.695577867976937 $440 $627 forward 7 unknown #
coedge $-1 $453 $452 $285 $446 reversed $437 $-1 #
edge $-1 $628 -64.695577867976937 $447 64.695577867976937 $445 $629 forward 7 unknown #
vertex $-1 $287 $630 #
vertex $-1 $459 $631 #
straight-curve $-1 64.695577867976937 0 -7.1347916900288944 0 -1 0 I I #
coedge $-1 $439 $441 $288 $451 reversed $281 $-1 #
edge $-1 $454 -27.824014770619566 $457 27.824014770619566 $450 $632 forward 7 unknown #
coedge $-1 $445 $289 $294 $460 forward $437 $-1 #
coedge $-1 $289 $445 $439 $623 reversed $437 $-1 #
vertex $-1 $290 $633 #
straight-curve $-1 0 27.824014770619566 7.1347916900288944 -1 0 0 I I #
coedge $-1 $291 $440 $293 $459 reversed $175 $-1 #
vertex $-1 $451 $634 #
straight-curve $-1 0 -27.824014770619566 7.1347916900288944 1 0 0 I I #
edge $-1 $296 -7.1347916900288944 $448 7.1347916900288944 $293 $635 forward 7 unknown #
edge $-1 $297 -7.1347916900288944 $447 7.1347916900288944 $294 $636 forward 7 unknown #
point $-1 64.695577867976937 -27.824014770619566 7.1347916900288944 #
point $-1 64.695577867976937 27.824014770619566 7.1347916900288944 #
face $-1 $-1 $476 $43 $-1 $637 reversed single #
loop $-1 $-1 $472 $299 #
plane-surface $-1 -64.695577867976937 0 0 1 0 0 0 0 -1 forward_v I I I I #
coedge $-1 $638 $302 $469 $639 forward $183 $-1 #
coedge $-1 $302 $638 $640 $641 forward $183 $-1 #
edge $-1 $642 -27.824014770619566 $470 27.824014770619566 $302 $643 forward 7 unknown #
coedge $-1 $304 $479 $466 $639 reversed $300 $-1 #
vertex $-1 $639 $644 #
straight-curve $-1 -55.336430438652712 -27.824014770619566 -2.7385889859995394 0 0 1 I I #
coedge $-1 $645 $646 $306 $473 forward $464 $-1 #
edge $-1 $480 -27.824014770619566 $477 27.824014770619566 $472 $647 forward 7 unknown #
coedge $-1 $640 $307 $311 $482 forward $476 $-1 #
coedge $-1 $307 $640 $645 $648 reversed $476 $-1 #
loop $-1 $-1 $474 $463 #
vertex $-1 $648 $649 #
straight-curve $-1 -30.008002076657412 27.824014770619566 -3.8195642539692631 1 0 0 I I #
coedge $-1 $469 $309 $646 $650 forward $300 $-1 #
vertex $-1 $650 $651 #
straight-curve $-1 -30.008002076657412 -27.824014770619566 -3.8195642539692631 -1 0 0 I I #
edge $-1 $313 1.0809752679697238 $642 4.3962027040293545 $474 $652 forward 7 unknown #
point $-1 -55.336430438652712 -27.824014770619566 -3.8195642539692631 #
point $-1 -55.336430438652712 27.824014770619566 -3.8195642539692631 #
face $-1 $-1 $329 $44 $-1 $653 reversed single #
loop $-1 $-1 $324 $315 #
plane-surface $-1 0 27.824014770619566 0 0 -1 0 0 0 -1 forward_v I I I I #
coedge $-1 $654 $655 $319 $492 forward $316 $-1 #
coedge $-1 $656 $318 $491 $657 forward $191 $-1 #
coedge $-1 $318 $656 $327 $503 reversed $191 $-1 #
coedge $-1 $320 $319 $489 $657 reversed $121 $-1 #
edge $-1 $658 -27.824014770619566 $495 27.824014770619566 $488 $659 forward 7 unknown #
edge $-1 $496 -27.824014770619566 $500 27.824014770619566 $320 $660 forward 7 unknown #
coedge $-1 $321 $498 $654 $661 reversed $486 $-1 #
vertex $-1 $661 $662 #
vertex $-1 $325 $663 #
straight-curve $-1 55.336430438652712 27.824014770619566 -2.7385889859995394 0 0 1 I I #
coedge $-1 $494 $324 $328 $504 forward $486 $-1 #
straight-curve $-1 30.008002076657412 27.824014770619566 -3.8195642539692631 1 0 0 I I #
vertex $-1 $326 $664 #
straight-curve $-1 30.008002076657412 -27.824014770619566 -3.8195642539692631 -1 0 0 I I #
coedge $-1 $328 $327 $665 $666 reversed $329 $-1 #
edge $-1 $331 3.8195642539692631 $667 7.1347916900288944 $327 $668 forward 7 unknown #
edge $-1 $330 3.8195642539692631 $669 7.1347916900288944 $328 $670 forward 7 unknown #
point $-1 64.695577867976937 27.824014770619566 -3.8195642539692631 #
point $-1 64.695577867976937 -27.824014770619566 -3.8195642539692631 #
loop $-1 $-1 $341 $333 #
plane-surface $-1 0 0 7.1347916900288944 0 0 1 1 0 0 forward_v I I I I #
coedge $-1 $510 $336 $338 $514 reversed $199 $-1 #
coedge $-1 $336 $509 $671 $672 reversed $199 $-1 #
coedge $-1 $344 $339 $336 $512 forward $334 $-1 #
edge $-1 $515 -67.858399654934914 $673 -64.225694630556603 $511 $674 forward 7 unknown #
coedge $-1 $338 $337 $518 $675 reversed $125 $-1 #
edge $-1 $676 48.792824943857624 $515 55.64802954123914 $509 $677 forward 7 unknown #
vertex $-1 $340 $678 #
straight-curve $-1 -24.782587646142179 27.824014770619566 3.5020866656505749 -1 0 0 I I #
coedge $-1 $671 $341 $344 $522 forward $507 $-1 #
coedge $-1 $341 $671 $513 $675 forward $507 $-1 #
vertex $-1 $342 $679 #
straight-curve $-1 -43.793920145916005 24.599338228924815 7.1347916900288908 0 1 0 I I #
straight-curve $-1 -43.793920145916005 -19.368190493380141 32.991049925540565 0 -0.84804809178421925 0.52991927123019833 I I #
edge $-1 $345 43.793920145916005 $673 55.336430438652712 $344 $680 forward 7 unknown #
point $-1 -43.793920145916005 27.824014770619566 7.1347916900288944 #
point $-1 -43.793920145916005 27.82401477061957 3.5020866656505767 #
edge $-1 $681 1 $681 0 $348 $-1 forward 7 unknown #
vertex $-1 $349 $682 #
ellipse-curve $-1 -49.565175292284358 23.777076595284417 3.4937912540481291 0 0.52991927123019833 0.84804809178421925 1 0 0 1 I I #
point $-1 -48.565175292284358 24.917243181819657 5.3184391778397249 #
plane-surface $-1 0 27.824014770619566 0 0 -1 0 0 0 -1 forward_v I I I I #
coedge $-1 $540 $539 $532 $683 forward $353 $-1 #
coedge $-1 $532 $355 $357 $536 reversed $214 $-1 #
coedge $-1 $355 $531 $530 $683 reversed $214 $-1 #
coedge $-1 $363 $358 $355 $534 forward $364 $-1 #
edge $-1 $537 -67.858399654934914 $684 -64.225694630556603 $533 $685 forward 7 unknown #
coedge $-1 $357 $356 $540 $686 reversed $134 $-1 #
edge $-1 $687 48.792824943857624 $537 55.64802954123914 $531 $688 forward 7 unknown #
vertex $-1 $359 $689 #
straight-curve $-1 -10.948480036479001 27.824014770619566 3.5020866656505749 -1 0 0 I I #
coedge $-1 $530 $360 $363 $544 forward $353 $-1 #
coedge $-1 $360 $530 $535 $686 forward $353 $-1 #
vertex $-1 $361 $690 #
straight-curve $-1 -16.125704926589648 24.599338228924815 7.1347916900288908 0 1 0 I I #
straight-curve $-1 -16.125704926589648 -19.368190493380141 32.991049925540565 0 -0.84804809178421925 0.52991927123019833 I I #
edge $-1 $365 16.125704926589648 $684 27.668215219326356 $363 $691 forward 7 unknown #
point $-1 -16.125704926589648 27.824014770619566 7.1347916900288944 #
point $-1 -16.125704926589648 27.82401477061957 3.5020866656505767 #
edge $-1 $692 1 $692 0 $368 $-1 forward 7 unknown #
vertex $-1 $369 $693 #
ellipse-curve $-1 -21.896960072958002 23.777076595284417 3.4937912540481291 0 0.52991927123019833 0.84804809178421925 1 0 0 1 I I #
point $-1 -20.896960072958002 24.917243181819657 5.3184391778397249 #
plane-surface $-1 0 27.824014770619566 0 0 -1 0 0 0 -1 forward_v I I I I #
coedge $-1 $562 $561 $554 $694 forward $373 $-1 #
coedge $-1 $554 $375 $377 $558 reversed $229 $-1 #
coedge $-1 $375 $553 $552 $694 reversed $229 $-1 #
coedge $-1 $383 $378 $375 $556 forward $384 $-1 #
edge $-1 $559 -67.858399654934914 $695 -64.225694630556603 $555 $696 forward 7 unknown #
coedge $-1 $377 $376 $562 $697 reversed $143 $-1 #
edge $-1 $698 48.792824943857624 $559 55.64802954123914 $553 $699 forward 7 unknown #
vertex $-1 $379 $700 #
straight-curve $-1 2.8856275731841805 27.824014770619566 3.5020866656505749 -1 0 0 I I #
coedge $-1 $552 $380 $383 $566 forward $373 $-1 #
coedge $-1 $380 $552 $557 $697 forward $373 $-1 #
vertex $-1 $381 $701 #
straight-curve $-1 11.542510292736713 24.599338228924815 7.1347916900288908 0 1 0 I I #
straight-curve $-1 11.542510292736713 -19.368190493380141 32.991049925540565 0 -0.84804809178421925 0.52991927123019833 I I #
edge $-1 $385 -11.542510292736713 $695 -8.8817841970012523e-015 $383 $702 forward 7 unknown #
point $-1 11.542510292736713 27.824014770619566 7.1347916900288944 #
point $-1 11.542510292736713 27.82401477061957 3.5020866656505767 #
edge $-1 $703 1 $703 0 $388 $-1 forward 7 unknown #
vertex $-1 $389 $704 #
ellipse-curve $-1 5.771255146368361 23.777076595284417 3.4937912540481291 0 0.52991927123019833 0.84804809178421925 1 0 0 1 I I #
point $-1 6.771255146368361 24.917243181819657 5.3184391778397249 #
plane-surface $-1 0 27.824014770619566 0 0 -1 0 0 0 -1 forward_v I I I I #
coedge $-1 $584 $583 $576 $705 forward $393 $-1 #
coedge $-1 $576 $395 $397 $580 reversed $244 $-1 #
coedge $-1 $395 $575 $574 $705 reversed $244 $-1 #
coedge $-1 $403 $398 $395 $578 forward $404 $-1 #
edge $-1 $581 -67.858399654934914 $706 -64.225694630556603 $577 $707 forward 7 unknown #
coedge $-1 $397 $396 $584 $708 reversed $152 $-1 #
edge $-1 $709 48.792824943857624 $581 55.64802954123914 $575 $710 forward 7 unknown #
vertex $-1 $399 $711 #
straight-curve $-1 16.719735182847359 27.824014770619566 3.5020866656505749 -1 0 0 I I #
coedge $-1 $574 $400 $403 $588 forward $393 $-1 #
coedge $-1 $400 $574 $579 $708 forward $393 $-1 #
vertex $-1 $401 $712 #
straight-curve $-1 39.210725512063071 24.599338228924815 7.1347916900288908 0 1 0 I I #
straight-curve $-1 39.210725512063071 -19.368190493380141 32.991049925540565 0 -0.84804809178421925 0.52991927123019833 I I #
edge $-1 $405 -39.210725512063071 $706 -27.668215219326363 $403 $713 forward 7 unknown #
point $-1 39.210725512063071 27.824014770619566 7.1347916900288944 #
point $-1 39.210725512063071 27.82401477061957 3.5020866656505767 #
edge $-1 $714 1 $714 0 $408 $-1 forward 7 unknown #
vertex $-1 $409 $715 #
ellipse-curve $-1 33.439470365694717 23.777076595284417 3.4937912540481291 0 0.52991927123019833 0.84804809178421925 1 0 0 1 I I #
point $-1 34.439470365694717 24.917243181819657 5.3184391778397249 #
plane-surface $-1 0 -27.824014770619566 0 0 1 0 0 0 1 forward_v I I I I #
coedge $-1 $606 $605 $598 $716 forward $413 $-1 #
coedge $-1 $598 $415 $417 $602 reversed $259 $-1 #
coedge $-1 $415 $597 $596 $716 reversed $259 $-1 #
coedge $-1 $423 $418 $415 $600 forward $424 $-1 #
edge $-1 $603 -37.107887858265485 $717 -33.62686042449397 $599 $718 forward 7 unknown #
coedge $-1 $417 $416 $606 $719 reversed $161 $-1 #
edge $-1 $720 -4.3587185319614763 $603 4.1211775786388506e-014 $597 $721 forward 7 unknown #
vertex $-1 $419 $722 #
straight-curve $-1 -24.325180126860307 -27.824014770619566 3.6537642562573867 1 0 0 I I #
coedge $-1 $596 $420 $423 $610 forward $413 $-1 #
coedge $-1 $420 $596 $601 $719 forward $413 $-1 #
vertex $-1 $421 $723 #
straight-curve $-1 -55.336430438652712 -65.580193745758379 7.1347916900288979 0 -1 0 I I #
straight-curve $-1 -55.336430438652712 -27.824014770619542 3.6537642562574177 0 0.60181501223851219 0.79863551827123203 I I #
edge $-1 $425 -55.336430438652712 $717 -41.964290068788515 $423 $724 forward 7 unknown #
point $-1 -55.336430438652712 -27.824014770619566 7.1347916900288944 #
point $-1 -55.336430438652712 -27.824014770619566 3.6537642562573849 #
edge $-1 $725 1 $725 0 $428 $-1 forward 7 unknown #
vertex $-1 $429 $726 #
ellipse-curve $-1 -51.515818904405798 -24.29280382632983 3.7216594438438872 0 -0.79863551827123203 0.60181501223851219 1 0 0 1 I I #
point $-1 -50.515818904405798 -26.512443647291249 5.3942779731431543 #
edge $-1 $727 1 $727 0 $432 $-1 forward 7 unknown #
vertex $-1 $433 $728 #
ellipse-curve $-1 -45.784901603035429 -24.29280382632983 3.7216594438438872 0 -0.79863551827123203 0.60181501223851219 1 0 0 1 I I #
point $-1 -44.784901603035429 -26.512443647291249 5.3942779731431543 #
plane-surface $-1 64.695577867976937 0 0 -1 0 0 0 0 1 forward_v I I I I #
coedge $-1 $441 $439 $443 $626 reversed $281 $-1 #
edge $-1 $454 -7.1347916900288944 $628 7.1347916900288944 $453 $729 forward 7 unknown #
vertex $-1 $626 $730 #
straight-curve $-1 -64.695577867976937 -27.824014770619566 0 0 0 -1 I I #
edge $-1 $624 -27.824014770619566 $628 27.824014770619566 $622 $731 forward 7 unknown #
straight-curve $-1 0 -27.824014770619566 -7.1347916900288944 -1 0 0 I I #
vertex $-1 $446 $732 #
straight-curve $-1 0 27.824014770619566 -7.1347916900288944 1 0 0 I I #
point $-1 64.695577867976937 27.824014770619566 -7.1347916900288944 #
point $-1 64.695577867976937 -27.824014770619566 -7.1347916900288944 #
straight-curve $-1 -64.695577867976937 0 7.1347916900288944 0 -1 0 I I #
point $-1 -64.695577867976937 27.824014770619566 7.1347916900288944 #
point $-1 -64.695577867976937 -27.824014770619566 7.1347916900288944 #
straight-curve $-1 64.695577867976937 -27.824014770619566 0 0 0 -1 I I #
straight-curve $-1 64.695577867976937 27.824014770619566 0 0 0 -1 I I #
plane-surface $-1 0 27.824014770619566 0 0 -1 0 0 0 -1 forward_v I I I I #
coedge $-1 $467 $466 $733 $734 forward $183 $-1 #
edge $-1 $470 55.336430438652712 $735 64.695577867976937 $469 $736 forward 7 unknown #
coedge $-1 $475 $474 $467 $641 reversed $476 $-1 #
edge $-1 $737 -64.695577867976937 $642 -55.336430438652712 $640 $738 forward 7 unknown #
vertex $-1 $482 $739 #
straight-curve $-1 -55.336430438652712 0 -7.1347916900288944 0 -1 0 I I #
point $-1 -55.336430438652712 -27.824014770619566 -7.1347916900288944 #
coedge $-1 $733 $472 $475 $648 forward $464 $-1 #
coedge $-1 $472 $733 $479 $650 reversed $464 $-1 #
straight-curve $-1 -64.695577867976937 0 -3.8195642539692631 0 1 0 I I #
edge $-1 $477 3.8195642539692631 $737 7.1347916900288944 $475 $740 forward 7 unknown #
point $-1 -64.695577867976937 27.824014770619566 -3.8195642539692631 #
edge $-1 $480 3.8195642539692631 $735 7.1347916900288944 $646 $741 forward 7 unknown #
point $-1 -64.695577867976937 -27.824014770619566 -3.8195642539692631 #
straight-curve $-1 -55.336430438652712 27.824014770619566 -2.7385889859995394 0 0 -1 I I #
plane-surface $-1 64.695577867976937 0 0 -1 0 0 0 0 1 forward_v I I I I #
coedge $-1 $665 $488 $494 $661 forward $316 $-1 #
coedge $-1 $488 $665 $656 $742 forward $316 $-1 #
coedge $-1 $490 $489 $655 $742 reversed $191 $-1 #
edge $-1 $500 1.0809752679697238 $658 4.3962027040293545 $489 $743 forward 7 unknown #
vertex $-1 $492 $744 #
straight-curve $-1 55.336430438652712 0 -7.1347916900288944 0 1 0 I I #
straight-curve $-1 55.336430438652712 0 -3.8195642539692631 0 -1 0 I I #
edge $-1 $495 55.336430438652712 $669 64.695577867976937 $494 $745 forward 7 unknown #
point $-1 55.336430438652712 27.824014770619566 -7.1347916900288944 #
point $-1 55.336430438652712 27.824014770619566 -3.8195642539692631 #
point $-1 55.336430438652712 -27.824014770619566 -3.8195642539692631 #
coedge $-1 $655 $654 $502 $666 forward $316 $-1 #
edge $-1 $669 -27.824014770619566 $667 27.824014770619566 $502 $746 forward 7 unknown #
vertex $-1 $503 $747 #
straight-curve $-1 64.695577867976937 -27.824014770619566 0 0 0 -1 I I #
vertex $-1 $666 $748 #
straight-curve $-1 64.695577867976937 27.824014770619566 0 0 0 -1 I I #
coedge $-1 $518 $517 $510 $672 forward $507 $-1 #
edge $-1 $673 -3.2246765416947518 $676 2.588866635905049 $671 $749 forward 7 unknown #
vertex $-1 $672 $750 #
straight-curve $-1 -55.336430438652712 27.824014770619566 71.360486320585494 0 0 1 I I #
edge $-1 $676 -30.553842792510533 $519 -19.011332499773825 $518 $751 forward 7 unknown #
vertex $-1 $675 $752 #
straight-curve $-1 -55.336430438652712 -19.368190493380141 32.991049925540565 0 0.84804809178421925 -0.52991927123019833 I I #
point $-1 -55.336430438652712 27.82401477061957 3.5020866656505767 #
point $-1 -43.793920145916005 22.010471593019766 7.1347916900288944 #
straight-curve $-1 0 27.824014770619566 7.1347916900288944 -1 0 0 I I #
vertex $-1 $525 $753 #
point $-1 -48.565175292284358 23.777076595284417 3.4937912540481291 #
edge $-1 $684 -3.2246765416947518 $687 2.588866635905049 $530 $754 forward 7 unknown #
vertex $-1 $683 $755 #
straight-curve $-1 -27.668215219326356 27.824014770619566 71.360486320585494 0 0 1 I I #
edge $-1 $687 -16.719735182847355 $541 -5.1772248901106472 $540 $756 forward 7 unknown #
vertex $-1 $686 $757 #
straight-curve $-1 -27.668215219326356 -19.368190493380141 32.991049925540565 0 0.84804809178421925 -0.52991927123019833 I I #
point $-1 -27.668215219326356 27.82401477061957 3.5020866656505767 #
point $-1 -16.125704926589648 22.010471593019766 7.1347916900288944 #
straight-curve $-1 0 27.824014770619566 7.1347916900288944 -1 0 0 I I #
vertex $-1 $547 $758 #
point $-1 -20.896960072958002 23.777076595284417 3.4937912540481291 #
edge $-1 $695 -3.2246765416947518 $698 2.588866635905049 $552 $759 forward 7 unknown #
vertex $-1 $556 $760 #
straight-curve $-1 8.8817841970012523e-015 27.824014770619566 71.360486320585494 0 0 1 I I #
edge $-1 $698 -2.8856275731841716 $563 8.6568827195525326 $562 $761 forward 7 unknown #
vertex $-1 $697 $762 #
straight-curve $-1 8.8817841970012523e-015 -19.368190493380141 32.991049925540565 0 0.84804809178421925 -0.52991927123019833 I I #
point $-1 8.8817841970012523e-015 27.82401477061957 3.5020866656505767 #
point $-1 11.542510292736713 22.010471593019766 7.1347916900288944 #
straight-curve $-1 0 27.824014770619566 7.1347916900288944 -1 0 0 I I #
vertex $-1 $569 $763 #
point $-1 6.771255146368361 23.777076595284417 3.4937912540481291 #
edge $-1 $706 -3.2246765416947518 $709 2.588866635905049 $574 $764 forward 7 unknown #
vertex $-1 $578 $765 #
straight-curve $-1 27.668215219326363 27.824014770619566 71.360486320585494 0 0 1 I I #
edge $-1 $709 10.948480036479005 $585 22.490990329215713 $584 $766 forward 7 unknown #
vertex $-1 $708 $767 #
straight-curve $-1 27.668215219326363 -19.368190493380141 32.991049925540565 0 0.84804809178421925 -0.52991927123019833 I I #
point $-1 27.668215219326363 27.82401477061957 3.5020866656505767 #
point $-1 39.210725512063071 22.010471593019766 7.1347916900288944 #
straight-curve $-1 0 27.824014770619566 7.1347916900288944 -1 0 0 I I #
vertex $-1 $591 $768 #
point $-1 34.439470365694717 23.777076595284417 3.4937912540481291 #
edge $-1 $717 37.756178975138809 $720 40.379321221795465 $596 $769 forward 7 unknown #
vertex $-1 $600 $770 #
straight-curve $-1 -41.964290068788515 -27.82401477061957 40.761652114522867 0 0 1 I I #
edge $-1 $720 17.639109941928208 $607 31.011250311792406 $606 $771 forward 7 unknown #
vertex $-1 $719 $772 #
straight-curve $-1 -41.964290068788515 -27.824014770619542 3.6537642562574177 0 -0.60181501223851219 -0.79863551827123203 I I #
point $-1 -41.964290068788515 -27.824014770619566 3.6537642562573849 #
point $-1 -55.336430438652712 -25.200872523962914 7.1347916900288944 #
straight-curve $-1 0 -27.824014770619566 7.1347916900288944 1 0 0 I I #
vertex $-1 $613 $773 #
point $-1 -50.515818904405798 -24.29280382632983 3.7216594438438872 #
vertex $-1 $617 $774 #
point $-1 -44.784901603035429 -24.29280382632983 3.7216594438438872 #
straight-curve $-1 -64.695577867976937 27.824014770619566 0 0 0 -1 I I #
point $-1 -64.695577867976937 -27.824014770619566 -7.1347916900288944 #
straight-curve $-1 -64.695577867976937 0 -7.1347916900288944 0 1 0 I I #
point $-1 -64.695577867976937 27.824014770619566 -7.1347916900288944 #
coedge $-1 $646 $645 $638 $734 reversed $464 $-1 #
edge $-1 $735 -27.824014770619566 $737 27.824014770619566 $733 $775 forward 7 unknown #
vertex $-1 $734 $776 #
straight-curve $-1 0 -27.824014770619566 -7.1347916900288944 -1 0 0 I I #
vertex $-1 $641 $777 #
straight-curve $-1 0 27.824014770619566 -7.1347916900288944 1 0 0 I I #
point $-1 -55.336430438652712 27.824014770619566 -7.1347916900288944 #
straight-curve $-1 -64.695577867976937 27.824014770619566 0 0 0 -1 I I #
straight-curve $-1 -64.695577867976937 -27.824014770619566 0 0 0 -1 I I #
edge $-1 $667 -64.695577867976937 $658 -55.336430438652712 $656 $778 forward 7 unknown #
straight-curve $-1 55.336430438652712 -27.824014770619566 -2.7385889859995394 0 0 -1 I I #
point $-1 55.336430438652712 -27.824014770619566 -7.1347916900288944 #
straight-curve $-1 0 27.824014770619566 -7.1347916900288944 1 0 0 I I #
straight-curve $-1 64.695577867976937 0 -7.1347916900288944 0 -1 0 I I #
point $-1 64.695577867976937 -27.824014770619566 -7.1347916900288944 #
point $-1 64.695577867976937 27.824014770619566 -7.1347916900288944 #
straight-curve $-1 -55.336430438652712 24.599338228924815 7.1347916900288908 0 -1 0 I I #
point $-1 -55.336430438652712 27.824014770619566 7.1347916900288944 #
straight-curve $-1 -24.782587646142179 22.010471593019766 7.1347916900288908 1 0 0 I I #
point $-1 -55.336430438652712 22.010471593019766 7.1347916900288944 #
point $-1 -49.565175292284358 23.247157324054218 2.6457431622639094 #
straight-curve $-1 -27.668215219326356 24.599338228924815 7.1347916900288908 0 -1 0 I I #
point $-1 -27.668215219326356 27.824014770619566 7.1347916900288944 #
straight-curve $-1 -10.948480036479001 22.010471593019766 7.1347916900288908 1 0 0 I I #
point $-1 -27.668215219326356 22.010471593019766 7.1347916900288944 #
point $-1 -21.896960072958002 23.247157324054218 2.6457431622639094 #
straight-curve $-1 8.8817841970012523e-015 24.599338228924815 7.1347916900288908 0 -1 0 I I #
point $-1 8.8817841970012523e-015 27.824014770619566 7.1347916900288944 #
straight-curve $-1 2.8856275731841805 22.010471593019766 7.1347916900288908 1 0 0 I I #
point $-1 8.8817841970012523e-015 22.010471593019766 7.1347916900288944 #
point $-1 5.771255146368361 23.247157324054218 2.6457431622639094 #
straight-curve $-1 27.668215219326363 24.599338228924815 7.1347916900288908 0 -1 0 I I #
point $-1 27.668215219326363 27.824014770619566 7.1347916900288944 #
straight-curve $-1 16.719735182847359 22.010471593019766 7.1347916900288908 1 0 0 I I #
point $-1 27.668215219326363 22.010471593019766 7.1347916900288944 #
point $-1 33.439470365694717 23.247157324054218 2.6457431622639094 #
straight-curve $-1 -41.964290068788515 -65.580193745758379 7.1347916900288979 0 1 0 I I #
point $-1 -41.964290068788515 -27.824014770619566 7.1347916900288944 #
straight-curve $-1 -24.325180126860307 -25.200872523962914 7.1347916900288944 -1 0 0 I I #
point $-1 -41.964290068788515 -25.200872523962914 7.1347916900288944 #
point $-1 -51.515818904405798 -23.494168308058597 3.1198444316053755 #
point $-1 -45.784901603035429 -23.494168308058597 3.1198444316053755 #
straight-curve $-1 -64.695577867976937 0 -7.1347916900288944 0 1 0 I I #
point $-1 -64.695577867976937 -27.824014770619566 -7.1347916900288944 #
point $-1 -64.695577867976937 27.824014770619566 -7.1347916900288944 #
straight-curve $-1 0 -27.824014770619566 -7.1347916900288944 -1 0 0 I I #
End-of-ACIS-data 