500 0 17 0           
7 Unknown 11 ACIS 5.0 NT 24 Fri Mar 26 01:07:55 1999 
-1 9.9999999999999995e-007 1e-010 
body $-1 $17 $-1 $18 #
body $-1 $19 $-1 $20 #
body $-1 $21 $-1 $22 #
body $-1 $23 $-1 $24 #
body $-1 $25 $-1 $26 #
body $-1 $27 $-1 $28 #
body $-1 $29 $-1 $30 #
body $-1 $31 $-1 $32 #
body $-1 $33 $-1 $34 #
body $-1 $35 $-1 $36 #
body $-1 $37 $-1 $38 #
body $-1 $39 $-1 $40 #
body $-1 $41 $-1 $42 #
body $-1 $43 $-1 $44 #
body $-1 $45 $-1 $46 #
body $-1 $47 $-1 $48 #
body $-1 $49 $-1 $50 #
lump $-1 $-1 $51 $0 #
transform $-1 1 0 0 0 1 0 0 0 1 71.480452894680624 41.30473767033147 9.2952362165366758 1 rotate no_reflect no_shear #
lump $-1 $-1 $52 $1 #
transform $-1 1 0 0 0 1 0 0 0 1 71.480452894680624 41.30473767033147 9.2952362165366758 1 rotate no_reflect no_shear #
lump $-1 $-1 $53 $2 #
transform $-1 1 0 0 0 1 0 0 0 1 71.480452894680624 41.30473767033147 9.2952362165366758 1 rotate no_reflect no_shear #
lump $-1 $-1 $54 $3 #
transform $-1 1 0 0 0 1 0 0 0 1 71.480452894680624 41.30473767033147 9.2952362165366758 1 rotate no_reflect no_shear #
lump $-1 $-1 $55 $4 #
transform $-1 1 0 0 0 1 0 0 0 1 71.480452894680624 41.30473767033147 9.2952362165366758 1 rotate no_reflect no_shear #
lump $-1 $-1 $56 $5 #
transform $-1 1 0 0 0 1 0 0 0 1 71.480452894680624 41.30473767033147 9.2952362165366758 1 rotate no_reflect no_shear #
lump $-1 $-1 $57 $6 #
transform $-1 1 0 0 0 1 0 0 0 1 71.480452894680624 41.30473767033147 9.2952362165366758 1 rotate no_reflect no_shear #
lump $-1 $-1 $58 $7 #
transform $-1 1 0 0 0 1 0 0 0 1 71.480452894680624 41.30473767033147 9.2952362165366758 1 rotate no_reflect no_shear #
lump $-1 $-1 $59 $8 #
transform $-1 1 0 0 0 1 0 0 0 1 71.480452894680624 41.30473767033147 9.2952362165366758 1 rotate no_reflect no_shear #
lump $-1 $-1 $60 $9 #
transform $-1 1 0 0 0 1 0 0 0 1 71.480452894680624 41.30473767033147 9.2952362165366758 1 rotate no_reflect no_shear #
lump $-1 $-1 $61 $10 #
transform $-1 1 0 0 0 1 0 0 0 1 71.480452894680624 41.30473767033147 9.2952362165366758 1 rotate no_reflect no_shear #
lump $-1 $-1 $62 $11 #
transform $-1 1 0 0 0 1 0 0 0 1 71.480452894680624 41.30473767033147 9.2952362165366758 1 rotate no_reflect no_shear #
lump $-1 $-1 $63 $12 #
transform $-1 1 0 0 0 1 0 0 0 1 71.480452894680624 41.30473767033147 9.2952362165366758 1 rotate no_reflect no_shear #
lump $-1 $-1 $64 $13 #
transform $-1 1 0 0 0 1 0 0 0 1 71.480452894680624 41.30473767033147 9.2952362165366758 1 rotate no_reflect no_shear #
lump $-1 $-1 $65 $14 #
transform $-1 1 0 0 0 1 0 0 0 1 71.480452894680624 41.30473767033147 9.2952362165366758 1 rotate no_reflect no_shear #
lump $-1 $-1 $66 $15 #
transform $-1 1 0 0 0 1 0 0 0 1 71.480452894680624 41.30473767033147 9.2952362165366758 1 rotate no_reflect no_shear #
lump $-1 $-1 $67 $16 #
transform $-1 1 0 0 0 1 0 0 0 1 71.480452894680624 41.30473767033147 9.2952362165366758 1 rotate no_reflect no_shear #
shell $-1 $-1 $-1 $68 $-1 $17 #
shell $-1 $-1 $-1 $69 $-1 $19 #
shell $-1 $-1 $-1 $70 $-1 $21 #
shell $-1 $-1 $-1 $71 $-1 $23 #
shell $-1 $-1 $-1 $72 $-1 $25 #
shell $-1 $-1 $-1 $73 $-1 $27 #
shell $-1 $-1 $-1 $74 $-1 $29 #
shell $-1 $-1 $-1 $75 $-1 $31 #
shell $-1 $-1 $-1 $76 $-1 $33 #
shell $-1 $-1 $-1 $77 $-1 $35 #
shell $-1 $-1 $-1 $78 $-1 $37 #
shell $-1 $-1 $-1 $79 $-1 $39 #
shell $-1 $-1 $-1 $80 $-1 $41 #
shell $-1 $-1 $-1 $81 $-1 $43 #
shell $-1 $-1 $-1 $82 $-1 $45 #
shell $-1 $-1 $-1 $83 $-1 $47 #
shell $-1 $-1 $-1 $84 $-1 $49 #
face $-1 $85 $86 $51 $-1 $87 forward single #
face $-1 $88 $89 $52 $-1 $90 forward single #
face $-1 $91 $92 $53 $-1 $93 forward single #
face $-1 $94 $95 $54 $-1 $96 reversed single #
face $-1 $97 $98 $55 $-1 $99 forward single #
face $-1 $100 $101 $56 $-1 $102 forward single #
face $-1 $103 $104 $57 $-1 $105 forward single #
face $-1 $106 $107 $58 $-1 $108 reversed single #
face $-1 $109 $110 $59 $-1 $111 forward single #
face $-1 $112 $113 $60 $-1 $114 forward single #
face $-1 $115 $116 $61 $-1 $117 forward single #
face $-1 $118 $119 $62 $-1 $120 reversed single #
face $-1 $121 $122 $63 $-1 $123 forward single #
face $-1 $124 $125 $64 $-1 $126 forward single #
face $-1 $127 $128 $65 $-1 $129 reversed single #
face $-1 $130 $131 $66 $-1 $132 forward single #
face $-1 $133 $134 $67 $-1 $135 forward single #
face $-1 $136 $137 $51 $-1 $138 reversed single #
loop $-1 $-1 $139 $68 #
plane-surface $-1 0 0 9.2952362165366758 0 0 1 1 0 0 forward_v I I I I #
face $-1 $140 $141 $52 $-1 $142 reversed single #
loop $-1 $-1 $143 $69 #
plane-surface $-1 -71.480452894680624 0 0 1 0 0 0 0 -1 forward_v I I I I #
face $-1 $144 $145 $53 $-1 $146 reversed single #
loop $-1 $-1 $147 $70 #
plane-surface $-1 71.480452894680624 0 0 -1 0 0 0 0 1 forward_v I I I I #
face $-1 $148 $149 $54 $-1 $150 reversed single #
loop $-1 $-1 $151 $71 #
plane-surface $-1 -31.281278860583669 92.268868671235055 158.95385818900445 1 0 0 0 -0.74314483375859142 -0.66913059716165679 forward_v I I I I #
face $-1 $152 $153 $55 $-1 $154 forward single #
loop $-1 $155 $156 $72 #
cone-surface $-1 -26.581336930154137 37.514813498304967 5.1832502048216398 0 -0.74314483375859142 -0.66913059716165679 1 0 0 1 I I 0 1 1 forward I I I I #
face $-1 $157 $158 $56 $-1 $159 forward single #
loop $-1 $160 $161 $73 #
cone-surface $-1 -19.53142403450984 37.514813498304967 5.1832502048216398 0 -0.74314483375859142 -0.66913059716165679 1 0 0 1 I I 0 1 1 forward I I I I #
face $-1 $162 $163 $57 $-1 $164 forward single #
loop $-1 $165 $166 $74 #
cone-surface $-1 -12.481511138865542 37.514813498304967 5.1832502048216398 0 -0.74314483375859142 -0.66913059716165679 1 0 0 1 I I 0 1 1 forward I I I I #
face $-1 $167 $168 $58 $-1 $169 reversed single #
loop $-1 $-1 $170 $75 #
plane-surface $-1 7.7815692084360109 92.268868671235055 158.95385818900445 1 0 0 0 -0.74314483375859142 -0.66913059716165679 forward_v I I I I #
face $-1 $171 $172 $59 $-1 $173 forward single #
loop $-1 $174 $175 $76 #
cone-surface $-1 12.481511138865542 37.514813498304967 5.1832502048216398 0 -0.74314483375859142 -0.66913059716165679 1 0 0 1 I I 0 1 1 forward I I I I #
face $-1 $176 $177 $60 $-1 $178 forward single #
loop $-1 $179 $180 $77 #
cone-surface $-1 19.53142403450984 37.514813498304967 5.1832502048216398 0 -0.74314483375859142 -0.66913059716165679 1 0 0 1 I I 0 1 1 forward I I I I #
face $-1 $181 $182 $61 $-1 $183 forward single #
loop $-1 $184 $185 $78 #
cone-surface $-1 26.581336930154137 37.514813498304967 5.1832502048216398 0 -0.74314483375859142 -0.66913059716165679 1 0 0 1 I I 0 1 1 forward I I I I #
face $-1 $186 $187 $62 $-1 $188 reversed single #
loop $-1 $-1 $189 $79 #
plane-surface $-1 -10.525798384140433 -114.93504835493917 123.96829747933113 -1 0 0 0 -0.51503808176128008 0.85716729658548041 forward_v I I I I #
face $-1 $190 $191 $63 $-1 $192 forward single #
loop $-1 $193 $194 $80 #
cone-surface $-1 -24.206517772815673 -33.714958890490159 3.6265305788244495 0 0.51503808176128008 -0.85716729658548041 1.5 0 0 1 I I 0 1 1.5 forward I I I I #
face $-1 $195 $196 $64 $-1 $197 forward single #
loop $-1 $198 $199 $81 #
cone-surface $-1 -15.998086139610535 -33.714958890490159 3.6265305788244495 0 0.51503808176128008 -0.85716729658548041 1.5 0 0 1 I I 0 1 1.5 forward I I I I #
face $-1 $200 $201 $65 $-1 $202 reversed single #
loop $-1 $-1 $203 $82 #
plane-surface $-1 29.678805528285775 -114.93504835493917 123.96829747933113 -1 0 0 0 -0.51503808176128008 0.85716729658548041 forward_v I I I I #
face $-1 $204 $205 $66 $-1 $206 forward single #
loop $-1 $207 $208 $83 #
cone-surface $-1 15.998086139610521 -33.714958890490159 3.6265305788244495 0 0.51503808176128008 -0.85716729658548041 1.5 0 0 1 I I 0 1 1.5 forward I I I I #
face $-1 $209 $210 $67 $-1 $211 forward single #
loop $-1 $212 $213 $84 #
cone-surface $-1 24.206517772815673 -33.714958890490159 3.6265305788244495 0 0.51503808176128008 -0.85716729658548041 1.5 0 0 1 I I 0 1 1.5 forward I I I I #
face $-1 $214 $215 $51 $-1 $216 reversed single #
loop $-1 $-1 $217 $85 #
plane-surface $-1 0 0 -9.2952362165366758 0 0 1 1 0 0 forward_v I I I I #
coedge $-1 $218 $219 $220 $221 forward $86 $-1 #
face $-1 $222 $223 $52 $-1 $224 forward single #
loop $-1 $-1 $225 $88 #
plane-surface $-1 0 41.30473767033147 0 0 -1 0 0 0 -1 forward_v I I I I #
coedge $-1 $226 $227 $228 $229 forward $89 $-1 #
face $-1 $230 $231 $53 $-1 $232 forward single #
loop $-1 $-1 $233 $91 #
plane-surface $-1 0 -41.30473767033147 0 0 1 0 0 0 1 forward_v I I I I #
coedge $-1 $234 $235 $236 $237 forward $92 $-1 #
face $-1 $238 $239 $54 $-1 $240 reversed single #
loop $-1 $-1 $241 $94 #
plane-surface $-1 -19.53142403450984 -13.971789895577459 63.294341927397795 0 0.74314483375859142 0.66913059716165679 1 0 0 forward_v I I I I #
coedge $-1 $242 $243 $244 $245 reversed $95 $-1 #
face $-1 $-1 $246 $55 $-1 $247 forward single #
loop $-1 $248 $249 $97 #
cone-surface $-1 -26.581336930154137 36.681074712141559 4.4325484485559379 0 -0.74314483375859142 -0.66913059716165679 0.5 0 0 1 I I -0.70710678118654746 0.70710678118654746 0.5 forward I I I I #
loop $-1 $-1 $250 $72 #
coedge $-1 $156 $156 $251 $252 reversed $98 $-1 #
face $-1 $-1 $253 $56 $-1 $254 forward single #
loop $-1 $255 $256 $100 #
cone-surface $-1 -19.53142403450984 36.681074712141559 4.4325484485559379 0 -0.74314483375859142 -0.66913059716165679 0.5 0 0 1 I I -0.70710678118654746 0.70710678118654746 0.5 forward I I I I #
loop $-1 $-1 $257 $73 #
coedge $-1 $161 $161 $258 $259 reversed $101 $-1 #
face $-1 $-1 $260 $57 $-1 $261 forward single #
loop $-1 $262 $263 $103 #
cone-surface $-1 -12.481511138865542 36.681074712141559 4.4325484485559379 0 -0.74314483375859142 -0.66913059716165679 0.5 0 0 1 I I -0.70710678118654746 0.70710678118654746 0.5 forward I I I I #
loop $-1 $-1 $264 $74 #
coedge $-1 $166 $166 $265 $266 reversed $104 $-1 #
face $-1 $267 $268 $58 $-1 $269 reversed single #
loop $-1 $-1 $270 $106 #
plane-surface $-1 19.53142403450984 -13.971789895577459 63.294341927397795 0 0.74314483375859142 0.66913059716165679 1 0 0 forward_v I I I I #
coedge $-1 $271 $272 $273 $274 reversed $107 $-1 #
face $-1 $-1 $275 $59 $-1 $276 forward single #
loop $-1 $277 $278 $109 #
cone-surface $-1 12.481511138865542 36.681074712141559 4.4325484485559379 0 -0.74314483375859142 -0.66913059716165679 0.5 0 0 1 I I -0.70710678118654746 0.70710678118654746 0.5 forward I I I I #
loop $-1 $-1 $279 $76 #
coedge $-1 $175 $175 $280 $281 reversed $110 $-1 #
face $-1 $-1 $282 $60 $-1 $283 forward single #
loop $-1 $284 $285 $112 #
cone-surface $-1 19.53142403450984 36.681074712141559 4.4325484485559379 0 -0.74314483375859142 -0.66913059716165679 0.5 0 0 1 I I -0.70710678118654746 0.70710678118654746 0.5 forward I I I I #
loop $-1 $-1 $286 $77 #
coedge $-1 $180 $180 $287 $288 reversed $113 $-1 #
face $-1 $-1 $289 $61 $-1 $290 forward single #
loop $-1 $291 $292 $115 #
cone-surface $-1 26.581336930154137 36.681074712141559 4.4325484485559379 0 -0.74314483375859142 -0.66913059716165679 0.5 0 0 1 I I -0.70710678118654746 0.70710678118654746 0.5 forward I I I I #
loop $-1 $-1 $293 $78 #
coedge $-1 $185 $185 $294 $295 reversed $116 $-1 #
face $-1 $296 $297 $62 $-1 $298 reversed single #
loop $-1 $-1 $299 $118 #
plane-surface $-1 -20.102301956213097 -41.304737670331477 1.4268843464527947 0 -0.51503808176128008 0.85716729658548041 1 0 0 forward_v I I I I #
coedge $-1 $300 $301 $302 $303 reversed $119 $-1 #
face $-1 $-1 $304 $63 $-1 $305 forward single #
loop $-1 $306 $307 $121 #
cone-surface $-1 -24.206517772815673 -32.286469719431857 1.2491254037150643 0 0.51503808176128008 -0.85716729658548041 0.75 0 0 1 I I -0.70710678118654757 0.70710678118654757 0.75 forward I I I I #
loop $-1 $-1 $308 $80 #
coedge $-1 $194 $194 $309 $310 reversed $122 $-1 #
face $-1 $-1 $311 $64 $-1 $312 forward single #
loop $-1 $313 $314 $124 #
cone-surface $-1 -15.998086139610535 -32.286469719431857 1.2491254037150643 0 0.51503808176128008 -0.85716729658548041 0.75 0 0 1 I I -0.70710678118654757 0.70710678118654757 0.75 forward I I I I #
loop $-1 $-1 $315 $81 #
coedge $-1 $199 $199 $316 $317 reversed $125 $-1 #
face $-1 $318 $319 $65 $-1 $320 reversed single #
loop $-1 $-1 $321 $127 #
plane-surface $-1 20.102301956213111 -41.304737670331477 1.4268843464527947 0 -0.51503808176128008 0.85716729658548041 1 0 0 forward_v I I I I #
coedge $-1 $322 $323 $324 $325 reversed $128 $-1 #
face $-1 $-1 $326 $66 $-1 $327 forward single #
loop $-1 $328 $329 $130 #
cone-surface $-1 15.998086139610521 -32.286469719431857 1.2491254037150643 0 0.51503808176128008 -0.85716729658548041 0.75 0 0 1 I I -0.70710678118654757 0.70710678118654757 0.75 forward I I I I #
loop $-1 $-1 $330 $83 #
coedge $-1 $208 $208 $331 $332 reversed $131 $-1 #
face $-1 $-1 $333 $67 $-1 $334 forward single #
loop $-1 $335 $336 $133 #
cone-surface $-1 24.206517772815673 -32.286469719431857 1.2491254037150643 0 0.51503808176128008 -0.85716729658548041 0.75 0 0 1 I I -0.70710678118654757 0.70710678118654757 0.75 forward I I I I #
loop $-1 $-1 $337 $84 #
coedge $-1 $213 $213 $338 $339 reversed $134 $-1 #
face $-1 $340 $341 $51 $-1 $342 reversed single #
loop $-1 $-1 $343 $136 #
plane-surface $-1 0 -41.30473767033147 0 0 1 0 0 0 1 forward_v I I I I #
coedge $-1 $344 $345 $346 $347 forward $137 $-1 #
coedge $-1 $348 $139 $349 $350 forward $86 $-1 #
coedge $-1 $139 $348 $351 $352 forward $86 $-1 #
coedge $-1 $353 $354 $139 $221 reversed $355 $-1 #
edge $-1 $356 -41.30473767033147 $357 41.30473767033147 $220 $358 forward 7 unknown #
face $-1 $359 $360 $52 $-1 $361 reversed single #
loop $-1 $-1 $228 $140 #
plane-surface $-1 -77.206686616494636 0 -2.2542859248847833 0 0 1 1 0 0 forward_v I I I I #
coedge $-1 $362 $363 $227 $364 forward $141 $-1 #
coedge $-1 $365 $143 $366 $367 reversed $89 $-1 #
coedge $-1 $143 $365 $225 $364 reversed $89 $-1 #
coedge $-1 $368 $369 $143 $229 reversed $223 $-1 #
edge $-1 $370 -41.30473767033147 $371 41.30473767033147 $228 $372 forward 7 unknown #
face $-1 $373 $374 $53 $-1 $375 reversed single #
loop $-1 $-1 $376 $144 #
plane-surface $-1 77.206686616494622 0 -2.2542859248847833 0 0 1 1 0 0 forward_v I I I I #
coedge $-1 $377 $378 $235 $379 forward $145 $-1 #
coedge $-1 $380 $147 $381 $382 reversed $92 $-1 #
coedge $-1 $147 $380 $233 $379 reversed $92 $-1 #
coedge $-1 $383 $384 $147 $237 reversed $231 $-1 #
edge $-1 $385 -41.30473767033147 $386 41.30473767033147 $236 $387 forward 7 unknown #
face $-1 $388 $389 $54 $-1 $390 reversed single #
loop $-1 $-1 $391 $148 #
plane-surface $-1 -7.7815692084360109 92.268868671235055 158.95385818900445 -1 0 0 0 0.74314483375859142 0.66913059716165679 forward_v I I I I #
coedge $-1 $392 $393 $394 $395 reversed $149 $-1 #
coedge $-1 $243 $151 $396 $397 reversed $95 $-1 #
coedge $-1 $151 $242 $392 $398 reversed $95 $-1 #
coedge $-1 $394 $399 $151 $245 forward $400 $-1 #
edge $-1 $401 4.8296966652860576 $402 11.485212270770781 $244 $403 forward 7 unknown #
loop $-1 $-1 $251 $152 #
plane-surface $-1 -19.53142403450984 -13.971789895577459 63.294341927397795 0 0.74314483375859142 0.66913059716165679 1 0 0 forward_v I I I I #
loop $-1 $-1 $404 $97 #
coedge $-1 $249 $249 $250 $405 reversed $153 $-1 #
coedge $-1 $250 $250 $249 $405 forward $155 $-1 #
coedge $-1 $251 $251 $156 $252 forward $246 $-1 #
edge $-1 $406 7.8352071815921243e-016 $406 6.2831853071796013 $251 $407 forward 7 unknown #
loop $-1 $-1 $258 $157 #
plane-surface $-1 -19.53142403450984 -13.971789895577459 63.294341927397795 0 0.74314483375859142 0.66913059716165679 1 0 0 forward_v I I I I #
loop $-1 $-1 $408 $100 #
coedge $-1 $256 $256 $257 $409 reversed $158 $-1 #
coedge $-1 $257 $257 $256 $409 forward $160 $-1 #
coedge $-1 $258 $258 $161 $259 forward $253 $-1 #
edge $-1 $410 7.8352071815921243e-016 $410 6.2831853071796013 $258 $411 forward 7 unknown #
loop $-1 $-1 $265 $162 #
plane-surface $-1 -19.53142403450984 -13.971789895577459 63.294341927397795 0 0.74314483375859142 0.66913059716165679 1 0 0 forward_v I I I I #
loop $-1 $-1 $412 $103 #
coedge $-1 $263 $263 $264 $413 reversed $163 $-1 #
coedge $-1 $264 $264 $263 $413 forward $165 $-1 #
coedge $-1 $265 $265 $166 $266 forward $260 $-1 #
edge $-1 $414 7.8352071815921243e-016 $414 6.2831853071796013 $265 $415 forward 7 unknown #
face $-1 $416 $417 $58 $-1 $418 forward single #
loop $-1 $-1 $419 $167 #
plane-surface $-1 31.281278860583669 92.268868671235055 158.95385818900445 -1 0 0 0 0.74314483375859142 0.66913059716165679 forward_v I I I I #
coedge $-1 $420 $421 $422 $423 reversed $168 $-1 #
coedge $-1 $272 $170 $424 $425 reversed $107 $-1 #
coedge $-1 $170 $271 $420 $426 reversed $107 $-1 #
coedge $-1 $422 $427 $170 $274 forward $417 $-1 #
edge $-1 $428 4.8296966652860576 $429 11.485212270770781 $273 $430 forward 7 unknown #
loop $-1 $-1 $280 $171 #
plane-surface $-1 19.53142403450984 -13.971789895577459 63.294341927397795 0 0.74314483375859142 0.66913059716165679 1 0 0 forward_v I I I I #
loop $-1 $-1 $431 $109 #
coedge $-1 $278 $278 $279 $432 reversed $172 $-1 #
coedge $-1 $279 $279 $278 $432 forward $174 $-1 #
coedge $-1 $280 $280 $175 $281 forward $275 $-1 #
edge $-1 $433 7.8352071815921243e-016 $433 6.2831853071796013 $280 $434 forward 7 unknown #
loop $-1 $-1 $287 $176 #
plane-surface $-1 19.53142403450984 -13.971789895577459 63.294341927397795 0 0.74314483375859142 0.66913059716165679 1 0 0 forward_v I I I I #
loop $-1 $-1 $435 $112 #
coedge $-1 $285 $285 $286 $436 reversed $177 $-1 #
coedge $-1 $286 $286 $285 $436 forward $179 $-1 #
coedge $-1 $287 $287 $180 $288 forward $282 $-1 #
edge $-1 $437 7.8352071815921243e-016 $437 6.2831853071796013 $287 $438 forward 7 unknown #
loop $-1 $-1 $294 $181 #
plane-surface $-1 19.53142403450984 -13.971789895577459 63.294341927397795 0 0.74314483375859142 0.66913059716165679 1 0 0 forward_v I I I I #
loop $-1 $-1 $439 $115 #
coedge $-1 $292 $292 $293 $440 reversed $182 $-1 #
coedge $-1 $293 $293 $292 $440 forward $184 $-1 #
coedge $-1 $294 $294 $185 $295 forward $289 $-1 #
edge $-1 $441 7.8352071815921243e-016 $441 6.2831853071796013 $294 $442 forward 7 unknown #
face $-1 $443 $444 $62 $-1 $445 forward single #
loop $-1 $-1 $446 $186 #
plane-surface $-1 -29.678805528285761 -114.93504835493917 123.96829747933113 1 0 0 0 0.51503808176128008 -0.85716729658548041 forward_v I I I I #
coedge $-1 $447 $448 $449 $450 reversed $187 $-1 #
coedge $-1 $301 $189 $451 $452 reversed $119 $-1 #
coedge $-1 $189 $300 $447 $453 reversed $119 $-1 #
coedge $-1 $449 $454 $189 $303 forward $444 $-1 #
edge $-1 $455 16.162786507138115 $456 29.257922847346016 $302 $457 forward 7 unknown #
loop $-1 $-1 $309 $190 #
plane-surface $-1 -20.102301956213097 -41.304737670331477 1.4268843464527947 0 -0.51503808176128008 0.85716729658548041 1 0 0 forward_v I I I I #
loop $-1 $-1 $458 $121 #
coedge $-1 $307 $307 $308 $459 reversed $191 $-1 #
coedge $-1 $308 $308 $307 $459 forward $193 $-1 #
coedge $-1 $309 $309 $194 $310 forward $304 $-1 #
edge $-1 $460 1.7164800119815054e-015 $460 6.2831853071796022 $309 $461 forward 7 unknown #
loop $-1 $-1 $316 $195 #
plane-surface $-1 -20.102301956213097 -41.304737670331477 1.4268843464527947 0 -0.51503808176128008 0.85716729658548041 1 0 0 forward_v I I I I #
loop $-1 $-1 $462 $124 #
coedge $-1 $314 $314 $315 $463 reversed $196 $-1 #
coedge $-1 $315 $315 $314 $463 forward $198 $-1 #
coedge $-1 $316 $316 $199 $317 forward $311 $-1 #
edge $-1 $464 1.7164800119815054e-015 $464 6.2831853071796022 $316 $465 forward 7 unknown #
face $-1 $466 $467 $65 $-1 $468 reversed single #
loop $-1 $-1 $469 $200 #
plane-surface $-1 10.525798384140447 -114.93504835493917 123.96829747933113 1 0 0 0 0.51503808176128008 -0.85716729658548041 forward_v I I I I #
coedge $-1 $470 $471 $472 $473 reversed $201 $-1 #
coedge $-1 $323 $203 $474 $475 reversed $128 $-1 #
coedge $-1 $203 $322 $470 $476 reversed $128 $-1 #
coedge $-1 $472 $477 $203 $325 forward $478 $-1 #
edge $-1 $479 16.162786507138115 $480 29.257922847346016 $324 $481 forward 7 unknown #
loop $-1 $-1 $331 $204 #
plane-surface $-1 20.102301956213111 -41.304737670331477 1.4268843464527947 0 -0.51503808176128008 0.85716729658548041 1 0 0 forward_v I I I I #
loop $-1 $-1 $482 $130 #
coedge $-1 $329 $329 $330 $483 reversed $205 $-1 #
coedge $-1 $330 $330 $329 $483 forward $207 $-1 #
coedge $-1 $331 $331 $208 $332 forward $326 $-1 #
edge $-1 $484 1.7164800119815054e-015 $484 6.2831853071796022 $331 $485 forward 7 unknown #
loop $-1 $-1 $338 $209 #
plane-surface $-1 20.102301956213111 -41.304737670331477 1.4268843464527947 0 -0.51503808176128008 0.85716729658548041 1 0 0 forward_v I I I I #
loop $-1 $-1 $486 $133 #
coedge $-1 $336 $336 $337 $487 reversed $210 $-1 #
coedge $-1 $337 $337 $336 $487 forward $212 $-1 #
coedge $-1 $338 $338 $213 $339 forward $333 $-1 #
edge $-1 $488 1.7164800119815054e-015 $488 6.2831853071796022 $338 $489 forward 7 unknown #
face $-1 $490 $491 $51 $-1 $492 reversed single #
loop $-1 $-1 $493 $214 #
plane-surface $-1 -71.480452894680624 0 0 1 0 0 0 0 -1 forward_v I I I I #
coedge $-1 $494 $351 $495 $496 forward $215 $-1 #
coedge $-1 $497 $217 $494 $498 forward $137 $-1 #
coedge $-1 $217 $497 $499 $500 forward $137 $-1 #
coedge $-1 $354 $353 $217 $347 reversed $355 $-1 #
edge $-1 $501 -41.30473767033147 $502 41.30473767033147 $346 $503 forward 7 unknown #
coedge $-1 $219 $218 $504 $505 forward $86 $-1 #
coedge $-1 $506 $507 $218 $350 reversed $491 $-1 #
edge $-1 $357 -71.480452894680624 $508 71.480452894680624 $349 $509 forward 7 unknown #
coedge $-1 $343 $510 $219 $352 reversed $215 $-1 #
edge $-1 $511 -71.480452894680624 $356 71.480452894680624 $351 $512 forward 7 unknown #
coedge $-1 $346 $220 $510 $513 forward $355 $-1 #
coedge $-1 $220 $346 $506 $514 reversed $355 $-1 #
loop $-1 $-1 $353 $490 #
vertex $-1 $221 $515 #
vertex $-1 $221 $516 #
straight-curve $-1 71.480452894680624 0 9.2952362165366758 0 1 0 I I #
face $-1 $517 $518 $52 $-1 $519 reversed single #
loop $-1 $-1 $520 $222 #
plane-surface $-1 -77.206686616494636 0 -5.6572155371877297 0 0 1 1 0 0 forward_v I I I I #
coedge $-1 $521 $225 $522 $523 reversed $141 $-1 #
coedge $-1 $225 $521 $368 $524 reversed $141 $-1 #
edge $-1 $370 2.2542859248847833 $525 5.6572155371877297 $225 $526 forward 7 unknown #
coedge $-1 $227 $226 $520 $527 forward $89 $-1 #
coedge $-1 $528 $529 $226 $367 forward $530 $-1 #
edge $-1 $531 -5.6572155371877297 $371 -2.2542859248847833 $366 $532 forward 7 unknown #
coedge $-1 $533 $228 $363 $524 forward $223 $-1 #
coedge $-1 $228 $533 $528 $534 forward $223 $-1 #
vertex $-1 $364 $535 #
vertex $-1 $534 $536 #
straight-curve $-1 -71.480452894680624 0 -2.2542859248847833 0 -1 0 I I #
face $-1 $537 $538 $53 $-1 $539 reversed single #
loop $-1 $-1 $540 $230 #
plane-surface $-1 77.206686616494622 0 -5.6572155371877297 0 0 1 1 0 0 forward_v I I I I #
coedge $-1 $384 $383 $541 $542 forward $231 $-1 #
coedge $-1 $543 $233 $544 $545 reversed $145 $-1 #
coedge $-1 $233 $543 $383 $546 reversed $145 $-1 #
edge $-1 $385 2.2542859248847833 $547 5.6572155371877297 $233 $548 forward 7 unknown #
coedge $-1 $235 $234 $549 $550 forward $92 $-1 #
coedge $-1 $551 $552 $234 $382 forward $553 $-1 #
edge $-1 $554 -5.6572155371877297 $386 -2.2542859248847833 $381 $555 forward 7 unknown #
coedge $-1 $376 $236 $378 $546 forward $231 $-1 #
coedge $-1 $236 $376 $551 $556 forward $231 $-1 #
vertex $-1 $379 $557 #
vertex $-1 $556 $558 #
straight-curve $-1 71.480452894680624 0 -2.2542859248847833 0 1 0 I I #
face $-1 $-1 $400 $54 $-1 $559 forward single #
loop $-1 $-1 $560 $238 #
plane-surface $-1 0 41.30473767033147 0 0 -1 0 0 0 -1 forward_v I I I I #
coedge $-1 $561 $562 $563 $564 reversed $239 $-1 #
coedge $-1 $565 $241 $243 $398 forward $149 $-1 #
coedge $-1 $241 $565 $561 $566 forward $149 $-1 #
coedge $-1 $563 $244 $241 $395 forward $400 $-1 #
edge $-1 $402 -21.515566843328749 $567 1.984142808818909 $394 $568 forward 7 unknown #
coedge $-1 $569 $570 $242 $397 forward $389 $-1 #
edge $-1 $571 -77.573391986025825 $401 -70.181692877965546 $396 $572 forward 7 unknown #
edge $-1 $402 72.662963204293192 $571 82.609475340662897 $243 $573 forward 7 unknown #
coedge $-1 $244 $563 $569 $574 forward $400 $-1 #
loop $-1 $-1 $563 $388 #
vertex $-1 $397 $575 #
vertex $-1 $245 $576 #
straight-curve $-1 -31.281278860583669 46.134434335617527 9.2952362165366793 0 -1 0 I I #
coedge $-1 $404 $404 $-1 $577 reversed $248 $-1 #
edge $-1 $578 0 $578 6.2831853071796004 $249 $579 forward 7 unknown #
vertex $-1 $252 $580 #
ellipse-curve $-1 -26.581336930154137 37.976979867589108 5.5993866625065394 0 0.74314483375859142 0.66913059716165679 1 0 0 1 I I #
coedge $-1 $408 $408 $-1 $581 reversed $255 $-1 #
edge $-1 $582 0 $582 6.2831853071796004 $256 $583 forward 7 unknown #
vertex $-1 $259 $584 #
ellipse-curve $-1 -19.53142403450984 37.976979867589108 5.5993866625065394 0 0.74314483375859142 0.66913059716165679 1 0 0 1 I I #
coedge $-1 $412 $412 $-1 $585 reversed $262 $-1 #
edge $-1 $586 0 $586 6.2831853071796004 $263 $587 forward 7 unknown #
vertex $-1 $266 $588 #
ellipse-curve $-1 -12.481511138865542 37.976979867589108 5.5993866625065394 0 0.74314483375859142 0.66913059716165679 1 0 0 1 I I #
face $-1 $-1 $589 $58 $-1 $590 reversed single #
loop $-1 $-1 $273 $267 #
plane-surface $-1 0 0 9.2952362165366758 0 0 1 1 0 0 forward_v I I I I #
coedge $-1 $591 $592 $593 $594 reversed $268 $-1 #
coedge $-1 $595 $270 $272 $426 forward $168 $-1 #
coedge $-1 $270 $595 $591 $596 forward $168 $-1 #
coedge $-1 $593 $273 $270 $423 forward $417 $-1 #
edge $-1 $429 -1.984142808818909 $597 21.515566843328749 $422 $598 forward 7 unknown #
coedge $-1 $599 $600 $271 $425 forward $589 $-1 #
edge $-1 $601 -77.573391986025825 $428 -70.181692877965546 $424 $602 forward 7 unknown #
edge $-1 $429 72.662963204293192 $601 82.609475340662897 $272 $603 forward 7 unknown #
coedge $-1 $273 $593 $599 $604 forward $417 $-1 #
vertex $-1 $274 $605 #
vertex $-1 $274 $606 #
straight-curve $-1 7.7815692084360109 46.134434335617527 9.2952362165366793 0 -1 0 I I #
coedge $-1 $431 $431 $-1 $607 reversed $277 $-1 #
edge $-1 $608 0 $608 6.2831853071796004 $278 $609 forward 7 unknown #
vertex $-1 $281 $610 #
ellipse-curve $-1 12.481511138865542 37.976979867589108 5.5993866625065394 0 0.74314483375859142 0.66913059716165679 1 0 0 1 I I #
coedge $-1 $435 $435 $-1 $611 reversed $284 $-1 #
edge $-1 $612 0 $612 6.2831853071796004 $285 $613 forward 7 unknown #
vertex $-1 $288 $614 #
ellipse-curve $-1 19.53142403450984 37.976979867589108 5.5993866625065394 0 0.74314483375859142 0.66913059716165679 1 0 0 1 I I #
coedge $-1 $439 $439 $-1 $615 reversed $291 $-1 #
edge $-1 $616 0 $616 6.2831853071796004 $292 $617 forward 7 unknown #
vertex $-1 $295 $618 #
ellipse-curve $-1 26.581336930154137 37.976979867589108 5.5993866625065394 0 0.74314483375859142 0.66913059716165679 1 0 0 1 I I #
face $-1 $-1 $619 $62 $-1 $620 reversed single #
loop $-1 $-1 $302 $296 #
plane-surface $-1 0 0 9.2952362165366758 0 0 1 1 0 0 forward_v I I I I #
coedge $-1 $621 $622 $623 $624 reversed $297 $-1 #
coedge $-1 $625 $299 $301 $453 forward $187 $-1 #
coedge $-1 $299 $625 $621 $626 forward $187 $-1 #
coedge $-1 $623 $302 $299 $450 forward $444 $-1 #
edge $-1 $456 0.47464740603388478 $627 19.627654550179212 $449 $628 forward 7 unknown #
coedge $-1 $629 $630 $300 $452 forward $619 $-1 #
edge $-1 $631 -60.557264393212762 $455 -52.688912523128892 $451 $632 forward 7 unknown #
edge $-1 $456 -15.277223468945078 $631 -8.2634070795339233e-015 $301 $633 forward 7 unknown #
coedge $-1 $302 $623 $629 $634 forward $444 $-1 #
vertex $-1 $452 $635 #
vertex $-1 $303 $636 #
straight-curve $-1 -10.525798384140433 -57.467524177469585 9.2952362165366793 0 1 0 I I #
coedge $-1 $458 $458 $-1 $637 reversed $306 $-1 #
edge $-1 $638 0 $638 6.2831853071796004 $307 $639 forward 7 unknown #
vertex $-1 $310 $640 #
ellipse-curve $-1 -24.206517772815673 -34.757169500227512 5.3610602814947423 0 -0.51503808176128008 0.85716729658548041 1.5 0 0 1 I I #
coedge $-1 $462 $462 $-1 $641 reversed $313 $-1 #
edge $-1 $642 0 $642 6.2831853071796004 $314 $643 forward 7 unknown #
vertex $-1 $317 $644 #
ellipse-curve $-1 -15.998086139610535 -34.757169500227512 5.3610602814947423 0 -0.51503808176128008 0.85716729658548041 1.5 0 0 1 I I #
face $-1 $-1 $478 $65 $-1 $645 forward single #
loop $-1 $-1 $646 $318 #
plane-surface $-1 0 -41.30473767033147 0 0 1 0 0 0 1 forward_v I I I I #
coedge $-1 $647 $648 $649 $650 reversed $319 $-1 #
coedge $-1 $651 $321 $323 $476 forward $201 $-1 #
coedge $-1 $321 $651 $647 $652 forward $201 $-1 #
coedge $-1 $649 $324 $321 $473 forward $478 $-1 #
edge $-1 $480 -19.627654550179219 $653 -0.47464740603389188 $472 $654 forward 7 unknown #
coedge $-1 $655 $656 $322 $475 forward $467 $-1 #
edge $-1 $657 -60.557264393212762 $479 -52.688912523128892 $474 $658 forward 7 unknown #
edge $-1 $480 -15.277223468945078 $657 -8.2634070795339233e-015 $323 $659 forward 7 unknown #
coedge $-1 $324 $649 $655 $660 forward $478 $-1 #
loop $-1 $-1 $649 $466 #
vertex $-1 $475 $661 #
vertex $-1 $325 $662 #
straight-curve $-1 29.678805528285775 -57.467524177469585 9.2952362165366793 0 1 0 I I #
coedge $-1 $482 $482 $-1 $663 reversed $328 $-1 #
edge $-1 $664 0 $664 6.2831853071796004 $329 $665 forward 7 unknown #
vertex $-1 $332 $666 #
ellipse-curve $-1 15.998086139610521 -34.757169500227512 5.3610602814947423 0 -0.51503808176128008 0.85716729658548041 1.5 0 0 1 I I #
coedge $-1 $486 $486 $-1 $667 reversed $335 $-1 #
edge $-1 $668 0 $668 6.2831853071796004 $336 $669 forward 7 unknown #
vertex $-1 $339 $670 #
ellipse-curve $-1 24.206517772815673 -34.757169500227512 5.3610602814947423 0 -0.51503808176128008 0.85716729658548041 1.5 0 0 1 I I #
face $-1 $-1 $355 $51 $-1 $671 reversed single #
loop $-1 $-1 $506 $340 #
plane-surface $-1 0 41.30473767033147 0 0 -1 0 0 0 -1 forward_v I I I I #
coedge $-1 $672 $504 $507 $673 forward $341 $-1 #
coedge $-1 $510 $343 $344 $498 reversed $215 $-1 #
coedge $-1 $504 $672 $343 $496 reversed $341 $-1 #
edge $-1 $511 -9.2952362165366758 $674 9.2952362165366758 $495 $675 forward 7 unknown #
coedge $-1 $345 $344 $672 $676 forward $137 $-1 #
edge $-1 $502 -71.480452894680624 $674 71.480452894680624 $494 $677 forward 7 unknown #
coedge $-1 $507 $506 $345 $500 reversed $491 $-1 #
edge $-1 $678 -71.480452894680624 $501 71.480452894680624 $499 $679 forward 7 unknown #
vertex $-1 $347 $680 #
vertex $-1 $513 $681 #
straight-curve $-1 71.480452894680624 0 -9.2952362165366758 0 -1 0 I I #
coedge $-1 $493 $495 $348 $505 reversed $341 $-1 #
edge $-1 $508 -41.30473767033147 $511 41.30473767033147 $504 $682 forward 7 unknown #
coedge $-1 $499 $349 $354 $514 forward $491 $-1 #
coedge $-1 $349 $499 $493 $673 reversed $491 $-1 #
vertex $-1 $350 $683 #
straight-curve $-1 0 41.30473767033147 9.2952362165366758 -1 0 0 I I #
coedge $-1 $351 $494 $353 $513 reversed $215 $-1 #
vertex $-1 $505 $684 #
straight-curve $-1 0 -41.30473767033147 9.2952362165366758 1 0 0 I I #
edge $-1 $356 -9.2952362165366758 $502 9.2952362165366758 $353 $685 forward 7 unknown #
edge $-1 $357 -9.2952362165366758 $501 9.2952362165366758 $354 $686 forward 7 unknown #
point $-1 71.480452894680624 -41.30473767033147 9.2952362165366758 #
point $-1 71.480452894680624 41.30473767033147 9.2952362165366758 #
face $-1 $-1 $530 $52 $-1 $687 reversed single #
loop $-1 $-1 $688 $359 #
plane-surface $-1 -82.932920338308648 0 -3.9557507310362565 1 0 0 0 0 -1 forward_v I I I I #
coedge $-1 $689 $522 $365 $527 reversed $360 $-1 #
coedge $-1 $363 $362 $688 $690 reversed $141 $-1 #
coedge $-1 $520 $691 $362 $523 forward $360 $-1 #
edge $-1 $692 -5.7262337218140118 $525 5.7262337218140118 $362 $693 forward 7 unknown #
edge $-1 $370 -5.7262337218140118 $694 5.7262337218140118 $363 $695 forward 7 unknown #
vertex $-1 $364 $696 #
straight-curve $-1 -71.480452894680624 41.30473767033147 0 0 0 -1 I I #
edge $-1 $531 -41.30473767033147 $525 41.30473767033147 $520 $697 forward 7 unknown #
coedge $-1 $698 $366 $369 $534 reversed $530 $-1 #
coedge $-1 $366 $698 $689 $699 reversed $530 $-1 #
loop $-1 $-1 $366 $517 #
vertex $-1 $367 $700 #
straight-curve $-1 -71.480452894680624 -41.30473767033147 0 0 0 1 I I #
coedge $-1 $369 $368 $701 $702 forward $223 $-1 #
edge $-1 $703 -5.7262337218140118 $371 5.7262337218140118 $528 $704 forward 7 unknown #
point $-1 -71.480452894680624 41.30473767033147 -2.2542859248847833 #
point $-1 -71.480452894680624 -41.30473767033147 -2.2542859248847833 #
face $-1 $-1 $553 $53 $-1 $705 reversed single #
loop $-1 $-1 $706 $373 #
plane-surface $-1 82.932920338308634 0 -3.9557507310362565 -1 0 0 0 0 1 forward_v I I I I #
coedge $-1 $544 $707 $708 $709 forward $374 $-1 #
coedge $-1 $706 $710 $376 $542 reversed $538 $-1 #
edge $-1 $711 -41.30473767033147 $712 41.30473767033147 $541 $713 forward 7 unknown #
coedge $-1 $378 $377 $706 $714 reversed $145 $-1 #
coedge $-1 $549 $540 $377 $545 forward $374 $-1 #
edge $-1 $715 -5.7262337218140118 $547 5.7262337218140118 $377 $716 forward 7 unknown #
edge $-1 $385 -5.7262337218140118 $711 5.7262337218140118 $378 $717 forward 7 unknown #
vertex $-1 $379 $718 #
straight-curve $-1 71.480452894680624 -41.30473767033147 0 0 0 -1 I I #
coedge $-1 $707 $544 $380 $550 reversed $374 $-1 #
edge $-1 $554 -41.30473767033147 $547 41.30473767033147 $549 $719 forward 7 unknown #
coedge $-1 $720 $381 $384 $556 reversed $553 $-1 #
coedge $-1 $381 $720 $707 $721 reversed $553 $-1 #
loop $-1 $-1 $381 $537 #
vertex $-1 $382 $722 #
straight-curve $-1 71.480452894680624 41.30473767033147 0 0 0 1 I I #
edge $-1 $712 -5.7262337218140118 $386 5.7262337218140118 $551 $723 forward 7 unknown #
point $-1 71.48045289468061 -41.30473767033147 -2.2542859248847833 #
point $-1 71.48045289468061 41.30473767033147 -2.2542859248847833 #
plane-surface $-1 0 0 9.2952362165366758 0 0 1 1 0 0 forward_v I I I I #
coedge $-1 $570 $569 $562 $724 forward $389 $-1 #
coedge $-1 $562 $391 $393 $566 reversed $239 $-1 #
coedge $-1 $391 $561 $560 $724 reversed $239 $-1 #
coedge $-1 $399 $394 $391 $564 forward $400 $-1 #
edge $-1 $567 -11.485212270770781 $725 -4.8296966652860576 $563 $726 forward 7 unknown #
coedge $-1 $393 $392 $570 $727 reversed $149 $-1 #
edge $-1 $728 -82.609475340662897 $567 -72.662963204293192 $561 $729 forward 7 unknown #
vertex $-1 $395 $730 #
straight-curve $-1 -9.7657120172549199 34.649222064846739 9.2952362165366793 1 0 0 I I #
coedge $-1 $560 $396 $399 $574 reversed $389 $-1 #
coedge $-1 $396 $560 $565 $727 forward $389 $-1 #
vertex $-1 $397 $731 #
straight-curve $-1 -31.281278860583669 41.30473767033147 79.476929094502225 0 0 1 I I #
straight-curve $-1 -31.281278860583669 -13.971789895577459 63.294341927397795 0 0.66913059716165679 -0.74314483375859142 I I #
edge $-1 $725 7.7815692084360109 $401 31.281278860583669 $569 $732 forward 7 unknown #
point $-1 -31.281278860583669 41.30473767033147 9.2952362165366758 #
point $-1 -31.281278860583669 34.649222064846747 9.2952362165366722 #
edge $-1 $733 1 $733 0 $404 $-1 forward 7 unknown #
vertex $-1 $405 $734 #
ellipse-curve $-1 -26.581336930154137 37.052647129020855 4.7671137471367659 0 0.74314483375859142 0.66913059716165679 1 0 0 1 I I #
point $-1 -25.581336930154137 37.97697986758908 5.5993866625065127 #
edge $-1 $735 1 $735 0 $408 $-1 forward 7 unknown #
vertex $-1 $409 $736 #
ellipse-curve $-1 -19.53142403450984 37.052647129020855 4.7671137471367659 0 0.74314483375859142 0.66913059716165679 1 0 0 1 I I #
point $-1 -18.53142403450984 37.97697986758908 5.5993866625065127 #
edge $-1 $737 1 $737 0 $412 $-1 forward 7 unknown #
vertex $-1 $413 $738 #
ellipse-curve $-1 -12.481511138865542 37.052647129020855 4.7671137471367659 0 0.74314483375859142 0.66913059716165679 1 0 0 1 I I #
point $-1 -11.481511138865542 37.97697986758908 5.5993866625065127 #
loop $-1 $-1 $424 $416 #
plane-surface $-1 0 41.30473767033147 0 0 -1 0 0 0 -1 forward_v I I I I #
coedge $-1 $592 $419 $421 $596 reversed $268 $-1 #
coedge $-1 $419 $591 $739 $740 reversed $268 $-1 #
coedge $-1 $427 $422 $419 $594 forward $417 $-1 #
edge $-1 $597 -11.485212270770781 $741 -4.8296966652860576 $593 $742 forward 7 unknown #
coedge $-1 $421 $420 $600 $743 reversed $168 $-1 #
edge $-1 $744 -82.609475340662897 $597 -72.662963204293192 $591 $745 forward 7 unknown #
vertex $-1 $423 $746 #
straight-curve $-1 9.7657120172549199 34.649222064846739 9.2952362165366793 1 0 0 I I #
coedge $-1 $739 $424 $427 $604 reversed $589 $-1 #
coedge $-1 $424 $739 $595 $743 forward $589 $-1 #
vertex $-1 $425 $747 #
straight-curve $-1 7.7815692084360109 41.30473767033147 79.476929094502225 0 0 1 I I #
straight-curve $-1 7.7815692084360109 -13.971789895577459 63.294341927397795 0 0.66913059716165679 -0.74314483375859142 I I #
edge $-1 $741 -31.281278860583669 $428 -7.7815692084360109 $599 $748 forward 7 unknown #
point $-1 7.7815692084360109 41.30473767033147 9.2952362165366758 #
point $-1 7.7815692084360109 34.649222064846747 9.2952362165366722 #
edge $-1 $749 1 $749 0 $431 $-1 forward 7 unknown #
vertex $-1 $432 $750 #
ellipse-curve $-1 12.481511138865542 37.052647129020855 4.7671137471367659 0 0.74314483375859142 0.66913059716165679 1 0 0 1 I I #
point $-1 13.481511138865542 37.97697986758908 5.5993866625065127 #
edge $-1 $751 1 $751 0 $435 $-1 forward 7 unknown #
vertex $-1 $436 $752 #
ellipse-curve $-1 19.53142403450984 37.052647129020855 4.7671137471367659 0 0.74314483375859142 0.66913059716165679 1 0 0 1 I I #
point $-1 20.53142403450984 37.97697986758908 5.5993866625065127 #
edge $-1 $753 1 $753 0 $439 $-1 forward 7 unknown #
vertex $-1 $440 $754 #
ellipse-curve $-1 26.581336930154137 37.052647129020855 4.7671137471367659 0 0.74314483375859142 0.66913059716165679 1 0 0 1 I I #
point $-1 27.581336930154137 37.97697986758908 5.5993866625065127 #
loop $-1 $-1 $451 $443 #
plane-surface $-1 0 -41.30473767033147 0 0 1 0 0 0 1 forward_v I I I I #
coedge $-1 $622 $446 $448 $626 reversed $297 $-1 #
coedge $-1 $446 $621 $755 $756 reversed $297 $-1 #
coedge $-1 $454 $449 $446 $624 forward $444 $-1 #
edge $-1 $627 -29.257922847346016 $757 -16.162786507138115 $623 $758 forward 7 unknown #
coedge $-1 $448 $447 $630 $759 reversed $187 $-1 #
edge $-1 $760 8.2634070795339233e-015 $627 15.277223468945078 $621 $761 forward 7 unknown #
vertex $-1 $450 $762 #
straight-curve $-1 -10.051150978106548 -28.209601330123569 9.2952362165366758 -1 0 0 I I #
coedge $-1 $755 $451 $454 $634 reversed $619 $-1 #
coedge $-1 $451 $755 $625 $759 forward $619 $-1 #
vertex $-1 $452 $763 #
straight-curve $-1 -10.525798384140433 -41.30473767033147 61.984148739665564 0 0 1 I I #
straight-curve $-1 -10.525798384140433 -41.304737670331477 1.4268843464527947 0 -0.85716729658548041 -0.51503808176128008 I I #
edge $-1 $757 -29.678805528285761 $455 -10.525798384140433 $629 $764 forward 7 unknown #
point $-1 -10.525798384140433 -41.30473767033147 9.2952362165366758 #
point $-1 -10.525798384140433 -28.209601330123569 9.2952362165366758 #
edge $-1 $765 1 $765 0 $458 $-1 forward 7 unknown #
vertex $-1 $459 $766 #
ellipse-curve $-1 -24.206517772815673 -32.672748280752813 1.8920008761541747 0 -0.51503808176128008 0.85716729658548041 1.5 0 0 1 I I #
point $-1 -22.706517772815673 -34.757169500227498 5.3610602814947237 #
edge $-1 $767 1 $767 0 $462 $-1 forward 7 unknown #
vertex $-1 $463 $768 #
ellipse-curve $-1 -15.998086139610535 -32.672748280752813 1.8920008761541747 0 -0.51503808176128008 0.85716729658548041 1.5 0 0 1 I I #
point $-1 -14.498086139610535 -34.757169500227498 5.3610602814947237 #
plane-surface $-1 0 0 9.2952362165366758 0 0 1 1 0 0 forward_v I I I I #
coedge $-1 $656 $655 $648 $769 forward $467 $-1 #
coedge $-1 $648 $469 $471 $652 reversed $319 $-1 #
coedge $-1 $469 $647 $646 $769 reversed $319 $-1 #
coedge $-1 $477 $472 $469 $650 forward $478 $-1 #
edge $-1 $653 -29.257922847346016 $770 -16.162786507138115 $649 $771 forward 7 unknown #
coedge $-1 $471 $470 $656 $772 reversed $201 $-1 #
edge $-1 $773 8.2634070795339233e-015 $653 15.277223468945078 $647 $774 forward 7 unknown #
vertex $-1 $473 $775 #
straight-curve $-1 10.051150978106556 -28.209601330123569 9.2952362165366758 -1 0 0 I I #
coedge $-1 $646 $474 $477 $660 reversed $467 $-1 #
coedge $-1 $474 $646 $651 $772 forward $467 $-1 #
vertex $-1 $475 $776 #
straight-curve $-1 29.678805528285775 -41.30473767033147 61.984148739665564 0 0 1 I I #
straight-curve $-1 29.678805528285775 -41.304737670331477 1.4268843464527947 0 -0.85716729658548041 -0.51503808176128008 I I #
edge $-1 $770 10.525798384140447 $479 29.678805528285775 $655 $777 forward 7 unknown #
point $-1 29.678805528285775 -41.30473767033147 9.2952362165366758 #
point $-1 29.678805528285775 -28.209601330123569 9.2952362165366758 #
edge $-1 $778 1 $778 0 $482 $-1 forward 7 unknown #
vertex $-1 $483 $779 #
ellipse-curve $-1 15.998086139610521 -32.672748280752813 1.8920008761541747 0 -0.51503808176128008 0.85716729658548041 1.5 0 0 1 I I #
point $-1 17.498086139610521 -34.757169500227498 5.3610602814947237 #
edge $-1 $780 1 $780 0 $486 $-1 forward 7 unknown #
vertex $-1 $487 $781 #
ellipse-curve $-1 24.206517772815673 -32.672748280752813 1.8920008761541747 0 -0.51503808176128008 0.85716729658548041 1.5 0 0 1 I I #
point $-1 25.706517772815673 -34.757169500227498 5.3610602814947237 #
plane-surface $-1 71.480452894680624 0 0 -1 0 0 0 0 1 forward_v I I I I #
coedge $-1 $495 $493 $497 $676 reversed $341 $-1 #
edge $-1 $508 -9.2952362165366758 $678 9.2952362165366758 $507 $782 forward 7 unknown #
vertex $-1 $676 $783 #
straight-curve $-1 -71.480452894680624 -41.30473767033147 0 0 0 -1 I I #
edge $-1 $674 -41.30473767033147 $678 41.30473767033147 $672 $784 forward 7 unknown #
straight-curve $-1 0 -41.30473767033147 -9.2952362165366758 -1 0 0 I I #
vertex $-1 $500 $785 #
straight-curve $-1 0 41.30473767033147 -9.2952362165366758 1 0 0 I I #
point $-1 71.480452894680624 41.30473767033147 -9.2952362165366758 #
point $-1 71.480452894680624 -41.30473767033147 -9.2952362165366758 #
straight-curve $-1 -71.480452894680624 0 9.2952362165366758 0 -1 0 I I #
point $-1 -71.480452894680624 41.30473767033147 9.2952362165366758 #
point $-1 -71.480452894680624 -41.30473767033147 9.2952362165366758 #
straight-curve $-1 71.480452894680624 -41.30473767033147 0 0 0 -1 I I #
straight-curve $-1 71.480452894680624 41.30473767033147 0 0 0 -1 I I #
plane-surface $-1 0 -41.30473767033147 0 0 1 0 0 0 1 forward_v I I I I #
coedge $-1 $786 $701 $521 $690 forward $518 $-1 #
coedge $-1 $691 $520 $529 $699 forward $360 $-1 #
edge $-1 $694 -1.7014648061514732 $692 1.7014648061514732 $521 $787 forward 7 unknown #
coedge $-1 $522 $689 $786 $788 forward $360 $-1 #
vertex $-1 $523 $789 #
straight-curve $-1 -77.206686616494636 41.30473767033147 -5.6572155371877297 1 0 0 I I #
vertex $-1 $524 $790 #
straight-curve $-1 -77.206686616494636 41.30473767033147 -2.2542859248847833 -1 0 0 I I #
point $-1 -71.480452894680624 41.30473767033147 -5.6572155371877297 #
straight-curve $-1 -71.480452894680624 0 -5.6572155371877297 0 1 0 I I #
coedge $-1 $529 $528 $791 $792 forward $530 $-1 #
edge $-1 $531 -5.7262337218140118 $793 5.7262337218140118 $529 $794 forward 7 unknown #
point $-1 -71.480452894680624 -41.30473767033147 -5.6572155371877297 #
coedge $-1 $688 $791 $533 $702 reversed $518 $-1 #
edge $-1 $694 -41.30473767033147 $703 41.30473767033147 $701 $795 forward 7 unknown #
vertex $-1 $702 $796 #
straight-curve $-1 -77.206686616494636 -41.30473767033147 -2.2542859248847833 1 0 0 I I #
plane-surface $-1 0 41.30473767033147 0 0 -1 0 0 0 -1 forward_v I I I I #
coedge $-1 $708 $541 $543 $714 forward $538 $-1 #
coedge $-1 $540 $549 $552 $721 forward $374 $-1 #
coedge $-1 $710 $706 $540 $709 reversed $538 $-1 #
edge $-1 $797 -41.30473767033147 $715 41.30473767033147 $708 $798 forward 7 unknown #
coedge $-1 $541 $708 $720 $799 reversed $538 $-1 #
vertex $-1 $542 $800 #
vertex $-1 $542 $801 #
straight-curve $-1 82.932920338308634 0 -2.2542859248847833 0 1 0 I I #
edge $-1 $711 -1.7014648061514732 $715 1.7014648061514732 $706 $802 forward 7 unknown #
vertex $-1 $714 $803 #
straight-curve $-1 77.206686616494622 -41.30473767033147 -5.6572155371877297 -1 0 0 I I #
straight-curve $-1 77.206686616494622 -41.30473767033147 -2.2542859248847833 1 0 0 I I #
point $-1 71.48045289468061 -41.30473767033147 -5.6572155371877297 #
straight-curve $-1 71.480452894680624 0 -5.6572155371877297 0 -1 0 I I #
coedge $-1 $552 $551 $710 $799 forward $553 $-1 #
edge $-1 $554 -5.7262337218140118 $797 5.7262337218140118 $552 $804 forward 7 unknown #
point $-1 71.48045289468061 41.30473767033147 -5.6572155371877297 #
straight-curve $-1 77.206686616494622 41.30473767033147 -2.2542859248847833 -1 0 0 I I #
edge $-1 $725 70.181692877965546 $728 77.573391986025825 $560 $805 forward 7 unknown #
vertex $-1 $574 $806 #
straight-curve $-1 -7.7815692084360109 46.134434335617527 9.2952362165366793 0 1 0 I I #
edge $-1 $728 -1.984142808818909 $571 21.515566843328749 $570 $807 forward 7 unknown #
vertex $-1 $727 $808 #
straight-curve $-1 -7.7815692084360109 -13.971789895577459 63.294341927397795 0 -0.66913059716165679 0.74314483375859142 I I #
point $-1 -7.7815692084360109 34.649222064846747 9.2952362165366722 #
point $-1 -31.281278860583669 41.30473767033147 1.9035371084764066 #
straight-curve $-1 0 41.30473767033147 9.2952362165366758 -1 0 0 I I #
vertex $-1 $577 $809 #
point $-1 -25.581336930154137 37.052647129020855 4.7671137471367659 #
vertex $-1 $581 $810 #
point $-1 -18.53142403450984 37.052647129020855 4.7671137471367659 #
vertex $-1 $585 $811 #
point $-1 -11.481511138865542 37.052647129020855 4.7671137471367659 #
coedge $-1 $600 $599 $592 $740 forward $589 $-1 #
edge $-1 $741 70.181692877965546 $744 77.573391986025825 $739 $812 forward 7 unknown #
vertex $-1 $604 $813 #
straight-curve $-1 31.281278860583669 46.134434335617527 9.2952362165366793 0 1 0 I I #
edge $-1 $744 -21.515566843328749 $601 1.984142808818909 $600 $814 forward 7 unknown #
vertex $-1 $743 $815 #
straight-curve $-1 31.281278860583669 -13.971789895577459 63.294341927397795 0 -0.66913059716165679 0.74314483375859142 I I #
point $-1 31.281278860583669 34.649222064846747 9.2952362165366722 #
point $-1 7.7815692084360109 41.30473767033147 1.9035371084764066 #
straight-curve $-1 0 41.30473767033147 9.2952362165366758 -1 0 0 I I #
vertex $-1 $607 $816 #
point $-1 13.481511138865542 37.052647129020855 4.7671137471367659 #
vertex $-1 $611 $817 #
point $-1 20.53142403450984 37.052647129020855 4.7671137471367659 #
vertex $-1 $615 $818 #
point $-1 27.581336930154137 37.052647129020855 4.7671137471367659 #
coedge $-1 $630 $629 $622 $756 forward $619 $-1 #
edge $-1 $757 52.688912523128892 $760 60.557264393212762 $755 $819 forward 7 unknown #
vertex $-1 $634 $820 #
straight-curve $-1 -29.678805528285761 -57.467524177469585 9.2952362165366793 0 -1 0 I I #
edge $-1 $760 -19.627654550179212 $631 -0.47464740603388478 $630 $821 forward 7 unknown #
vertex $-1 $759 $822 #
straight-curve $-1 -29.678805528285761 -41.304737670331477 1.4268843464527947 0 0.85716729658548041 0.51503808176128008 I I #
point $-1 -29.678805528285761 -28.209601330123569 9.2952362165366758 #
point $-1 -10.525798384140433 -41.30473767033147 1.4268843464527989 #
straight-curve $-1 0 -41.30473767033147 9.2952362165366758 1 0 0 I I #
vertex $-1 $637 $823 #
point $-1 -22.706517772815673 -32.672748280752813 1.8920008761541747 #
vertex $-1 $641 $824 #
point $-1 -14.498086139610535 -32.672748280752813 1.8920008761541747 #
edge $-1 $770 52.688912523128892 $773 60.557264393212762 $646 $825 forward 7 unknown #
vertex $-1 $660 $826 #
straight-curve $-1 10.525798384140447 -57.467524177469585 9.2952362165366793 0 -1 0 I I #
edge $-1 $773 0.47464740603389188 $657 19.627654550179219 $656 $827 forward 7 unknown #
vertex $-1 $772 $828 #
straight-curve $-1 10.525798384140447 -41.304737670331477 1.4268843464527947 0 0.85716729658548041 0.51503808176128008 I I #
point $-1 10.525798384140447 -28.209601330123569 9.2952362165366758 #
point $-1 29.678805528285775 -41.30473767033147 1.4268843464527989 #
straight-curve $-1 0 -41.30473767033147 9.2952362165366758 1 0 0 I I #
vertex $-1 $663 $829 #
point $-1 17.498086139610521 -32.672748280752813 1.8920008761541747 #
vertex $-1 $667 $830 #
point $-1 25.706517772815673 -32.672748280752813 1.8920008761541747 #
straight-curve $-1 -71.480452894680624 41.30473767033147 0 0 0 -1 I I #
point $-1 -71.480452894680624 -41.30473767033147 -9.2952362165366758 #
straight-curve $-1 -71.480452894680624 0 -9.2952362165366758 0 1 0 I I #
point $-1 -71.480452894680624 41.30473767033147 -9.2952362165366758 #
coedge $-1 $791 $688 $691 $788 reversed $518 $-1 #
straight-curve $-1 -82.932920338308648 41.30473767033147 -3.9557507310362565 0 0 -1 I I #
edge $-1 $793 -41.30473767033147 $692 41.30473767033147 $786 $831 forward 7 unknown #
point $-1 -82.932920338308648 41.30473767033147 -5.6572155371877297 #
point $-1 -82.932920338308648 41.30473767033147 -2.2542859248847833 #
coedge $-1 $701 $786 $698 $792 reversed $518 $-1 #
edge $-1 $703 -1.7014648061514732 $793 1.7014648061514732 $791 $832 forward 7 unknown #
vertex $-1 $788 $833 #
straight-curve $-1 -77.206686616494636 -41.30473767033147 -5.6572155371877297 -1 0 0 I I #
straight-curve $-1 -82.932920338308648 0 -2.2542859248847833 0 -1 0 I I #
point $-1 -82.932920338308648 -41.30473767033147 -2.2542859248847833 #
vertex $-1 $709 $834 #
straight-curve $-1 82.932920338308634 0 -5.6572155371877297 0 -1 0 I I #
edge $-1 $712 -1.7014648061514732 $797 1.7014648061514732 $710 $835 forward 7 unknown #
point $-1 82.932920338308634 -41.30473767033147 -2.2542859248847833 #
point $-1 82.932920338308634 41.30473767033147 -2.2542859248847833 #
straight-curve $-1 82.932920338308634 -41.30473767033147 -3.9557507310362565 0 0 -1 I I #
point $-1 82.932920338308634 -41.30473767033147 -5.6572155371877297 #
straight-curve $-1 77.206686616494622 41.30473767033147 -5.6572155371877297 1 0 0 I I #
straight-curve $-1 -7.7815692084360109 41.30473767033147 79.476929094502225 0 0 -1 I I #
point $-1 -7.7815692084360109 41.30473767033147 9.2952362165366758 #
straight-curve $-1 -9.7657120172549199 41.304737670331463 1.9035371084764137 -1 0 0 I I #
point $-1 -7.7815692084360109 41.30473767033147 1.9035371084764066 #
point $-1 -26.581336930154137 36.309502295262263 4.0979831499751098 #
point $-1 -19.53142403450984 36.309502295262263 4.0979831499751098 #
point $-1 -12.481511138865542 36.309502295262263 4.0979831499751098 #
straight-curve $-1 31.281278860583669 41.30473767033147 79.476929094502225 0 0 -1 I I #
point $-1 31.281278860583669 41.30473767033147 9.2952362165366758 #
straight-curve $-1 9.7657120172549199 41.304737670331463 1.9035371084764137 -1 0 0 I I #
point $-1 31.281278860583669 41.30473767033147 1.9035371084764066 #
point $-1 12.481511138865542 36.309502295262263 4.0979831499751098 #
point $-1 19.53142403450984 36.309502295262263 4.0979831499751098 #
point $-1 26.581336930154137 36.309502295262263 4.0979831499751098 #
straight-curve $-1 -29.678805528285761 -41.30473767033147 61.984148739665564 0 0 -1 I I #
point $-1 -29.678805528285761 -41.30473767033147 9.2952362165366758 #
straight-curve $-1 -10.051150978106548 -41.30473767033147 1.4268843464528009 1 0 0 I I #
point $-1 -29.678805528285761 -41.30473767033147 1.4268843464527989 #
point $-1 -24.206517772815673 -31.900191158110896 0.60624993127595395 #
point $-1 -15.998086139610535 -31.900191158110896 0.60624993127595395 #
straight-curve $-1 10.525798384140447 -41.30473767033147 61.984148739665564 0 0 -1 I I #
point $-1 10.525798384140447 -41.30473767033147 9.2952362165366758 #
straight-curve $-1 10.051150978106556 -41.30473767033147 1.4268843464528009 1 0 0 I I #
point $-1 10.525798384140447 -41.30473767033147 1.4268843464527989 #
point $-1 15.998086139610521 -31.900191158110896 0.60624993127595395 #
point $-1 24.206517772815673 -31.900191158110896 0.60624993127595395 #
straight-curve $-1 -82.932920338308648 0 -5.6572155371877297 0 1 0 I I #
straight-curve $-1 -82.932920338308648 -41.30473767033147 -3.9557507310362565 0 0 -1 I I #
point $-1 -82.932920338308648 -41.30473767033147 -5.6572155371877297 #
point $-1 82.932920338308634 41.30473767033147 -5.6572155371877297 #
straight-curve $-1 82.932920338308634 41.30473767033147 -3.9557507310362565 0 0 -1 I I #
End-of-ACIS-data 