500 0 8 0           
7 Unknown 11 ACIS 5.0 NT 24 Fri Mar 26 14:26:46 1999 
-1 9.9999999999999995e-007 1e-010 
body $-1 $8 $-1 $9 #
body $-1 $10 $-1 $11 #
body $-1 $12 $-1 $13 #
body $-1 $14 $-1 $15 #
body $-1 $16 $-1 $17 #
body $-1 $18 $-1 $19 #
body $-1 $20 $-1 $21 #
body $-1 $22 $-1 $23 #
lump $-1 $-1 $24 $0 #
transform $-1 1 0 0 0 1 0 0 0 1 41.187780388805812 22.524500622552168 5.7770975579696247 1 rotate no_reflect no_shear #
lump $-1 $-1 $25 $1 #
transform $-1 1 0 0 0 1 0 0 0 1 41.187780388805812 22.524500622552168 5.7770975579696247 1 rotate no_reflect no_shear #
lump $-1 $-1 $26 $2 #
transform $-1 1 0 0 0 1 0 0 0 1 41.187780388805812 22.524500622552168 5.7770975579696247 1 rotate no_reflect no_shear #
lump $-1 $-1 $27 $3 #
transform $-1 1 0 0 0 1 0 0 0 1 41.187780388805812 22.524500622552168 5.7770975579696247 1 rotate no_reflect no_shear #
lump $-1 $-1 $28 $4 #
transform $-1 1 0 0 0 1 0 0 0 1 41.187780388805812 22.524500622552168 5.7770975579696247 1 rotate no_reflect no_shear #
lump $-1 $-1 $29 $5 #
transform $-1 1 0 0 0 1 0 0 0 1 41.187780388805812 22.524500622552168 5.7770975579696247 1 rotate no_reflect no_shear #
lump $-1 $-1 $30 $6 #
transform $-1 1 0 0 0 1 0 0 0 1 41.187780388805812 22.524500622552168 5.7770975579696247 1 rotate no_reflect no_shear #
lump $-1 $-1 $31 $7 #
transform $-1 1 0 0 0 1 0 0 0 1 41.187780388805812 22.524500622552168 5.7770975579696247 1 rotate no_reflect no_shear #
shell $-1 $-1 $-1 $32 $-1 $8 #
shell $-1 $-1 $-1 $33 $-1 $10 #
shell $-1 $-1 $-1 $34 $-1 $12 #
shell $-1 $-1 $-1 $35 $-1 $14 #
shell $-1 $-1 $-1 $36 $-1 $16 #
shell $-1 $-1 $-1 $37 $-1 $18 #
shell $-1 $-1 $-1 $38 $-1 $20 #
shell $-1 $-1 $-1 $39 $-1 $22 #
face $-1 $40 $41 $24 $-1 $42 forward single #
face $-1 $43 $44 $25 $-1 $45 reversed single #
face $-1 $46 $47 $26 $-1 $48 reversed single #
face $-1 $49 $50 $27 $-1 $51 reversed single #
face $-1 $52 $53 $28 $-1 $54 forward single #
face $-1 $55 $56 $29 $-1 $57 forward single #
face $-1 $58 $59 $30 $-1 $60 reversed single #
face $-1 $61 $62 $31 $-1 $63 forward single #
face $-1 $64 $65 $24 $-1 $66 reversed single #
loop $-1 $-1 $67 $32 #
plane-surface $-1 0 0 5.7770975579696247 0 0 1 1 0 0 forward_v I I I I #
face $-1 $68 $69 $25 $-1 $70 reversed single #
loop $-1 $-1 $71 $33 #
plane-surface $-1 -32.633585272866561 -18.954117869020259 0 1 0 0 0 0 -1 forward_v I I I I #
face $-1 $72 $73 $26 $-1 $74 reversed single #
loop $-1 $-1 $75 $34 #
plane-surface $-1 -31.133585272866561 15.383735115488349 0 0 1 0 0 0 1 forward_v I I I I #
face $-1 $76 $77 $27 $-1 $78 reversed single #
loop $-1 $-1 $79 $35 #
plane-surface $-1 -94.137770848443722 4.1301952531870114 63.791109642500956 0 1 0 -0.64278761758704617 0 0.76604443648966558 forward_v I I I I #
face $-1 $80 $81 $28 $-1 $82 forward single #
loop $-1 $83 $84 $36 #
cone-surface $-1 -37.512478484068502 6.5977893692030527 2.466506038214749 0.64278761758704617 0 -0.76604443648966558 0.76604443648966558 0 0.64278761758704617 1 I I 0 1 1 forward I I I I #
face $-1 $85 $86 $29 $-1 $87 forward single #
loop $-1 $88 $89 $37 #
cone-surface $-1 -37.512478484068502 10.299180543227116 2.466506038214749 0.64278761758704617 0 -0.76604443648966558 0.76604443648966558 0 0.64278761758704617 1 I I 0 1 1 forward I I I I #
face $-1 $90 $91 $30 $-1 $92 reversed single #
loop $-1 $-1 $93 $38 #
plane-surface $-1 53.364996171851253 12.410534681073003 117.53706984687972 0 -1 0 -0.77714596973225614 0 -0.62932038083071107 forward_v I I I I #
face $-1 $94 $95 $31 $-1 $96 forward single #
loop $-1 $97 $98 $39 #
cone-surface $-1 39.093444826443026 8.291430197335881 3.375687179005288 -0.77714596973225614 0 -0.62932038083071107 0.62932038083071107 0 -0.77714596973225614 1 I I 0 1 1 forward I I I I #
face $-1 $99 $100 $24 $-1 $101 reversed single #
loop $-1 $-1 $102 $40 #
plane-surface $-1 0 0 -5.7770975579696247 0 0 1 1 0 0 forward_v I I I I #
coedge $-1 $103 $104 $105 $106 forward $41 $-1 #
face $-1 $107 $108 $25 $-1 $109 reversed single #
loop $-1 $-1 $110 $43 #
plane-surface $-1 -31.133585272866561 -15.383735115488349 0 0 -1 0 0 0 -1 forward_v I I I I #
coedge $-1 $111 $112 $113 $114 forward $44 $-1 #
face $-1 $115 $116 $26 $-1 $117 reversed single #
loop $-1 $-1 $118 $46 #
plane-surface $-1 -32.633585272866561 18.954117869020259 0 1 0 0 0 0 -1 forward_v I I I I #
coedge $-1 $119 $120 $121 $122 forward $47 $-1 #
face $-1 $123 $124 $27 $-1 $125 reversed single #
loop $-1 $-1 $126 $49 #
plane-surface $-1 -41.18778038880582 8.4484849562150828 0.68776960609525872 -0.64278761758704617 0 0.76604443648966558 0.76604443648966558 0 0.64278761758704617 forward_v I I I I #
coedge $-1 $127 $128 $129 $130 reversed $50 $-1 #
face $-1 $-1 $131 $28 $-1 $132 forward single #
loop $-1 $133 $134 $52 #
cone-surface $-1 -36.548395142287923 6.5977893692030527 1.3175562761522208 0.64278761758704617 0 -0.76604443648966558 0.38302221824483279 0 0.32139380879352308 1 I I -0.70710678118654746 0.70710678118654746 0.5 forward I I I I #
loop $-1 $-1 $135 $36 #
coedge $-1 $84 $84 $136 $137 reversed $53 $-1 #
face $-1 $-1 $138 $29 $-1 $139 forward single #
loop $-1 $140 $141 $55 #
cone-surface $-1 -36.548395142287923 10.299180543227116 1.3175562761522208 0.64278761758704617 0 -0.76604443648966558 0.38302221824483279 0 0.32139380879352308 1 I I -0.70710678118654746 0.70710678118654746 0.5 forward I I I I #
loop $-1 $-1 $142 $37 #
coedge $-1 $89 $89 $143 $144 reversed $56 $-1 #
face $-1 $145 $146 $30 $-1 $147 reversed single #
loop $-1 $-1 $148 $58 #
plane-surface $-1 -10.652838890904142 8.291430197335881 65.696450567169791 0.77714596973225614 0 0.62932038083071107 0.62932038083071107 0 -0.77714596973225614 forward_v I I I I #
coedge $-1 $149 $150 $151 $152 reversed $59 $-1 #
face $-1 $-1 $153 $31 $-1 $154 forward single #
loop $-1 $155 $156 $61 #
cone-surface $-1 38.26997889824991 8.291430197335881 2.7088576364032102 -0.77714596973225614 0 -0.62932038083071107 0.31466019041535553 0 -0.38857298486612807 1 I I -0.70710678118654746 0.70710678118654746 0.5 forward I I I I #
loop $-1 $-1 $157 $39 #
coedge $-1 $98 $98 $158 $159 reversed $62 $-1 #
face $-1 $160 $161 $24 $-1 $162 reversed single #
loop $-1 $-1 $163 $64 #
plane-surface $-1 0 -22.524500622552168 0 0 1 0 0 0 1 forward_v I I I I #
coedge $-1 $164 $165 $166 $167 forward $65 $-1 #
coedge $-1 $168 $67 $169 $170 forward $41 $-1 #
coedge $-1 $67 $168 $171 $172 forward $41 $-1 #
coedge $-1 $173 $174 $67 $106 reversed $175 $-1 #
edge $-1 $176 -22.524500622552168 $177 22.524500622552168 $105 $178 forward 7 unknown #
face $-1 $179 $180 $25 $-1 $181 forward single #
loop $-1 $-1 $182 $68 #
plane-surface $-1 -29.633585272866561 -18.954117869020259 0 -1 0 0 0 0 1 forward_v I I I I #
coedge $-1 $183 $184 $185 $186 forward $69 $-1 #
coedge $-1 $187 $71 $188 $189 reversed $44 $-1 #
coedge $-1 $71 $187 $190 $191 reversed $44 $-1 #
coedge $-1 $184 $183 $71 $114 reversed $69 $-1 #
edge $-1 $192 -5.7770975579696247 $193 5.7770975579696247 $113 $194 forward 7 unknown #
face $-1 $195 $196 $26 $-1 $197 reversed single #
loop $-1 $-1 $198 $72 #
plane-surface $-1 -29.633585272866561 18.954117869020259 0 -1 0 0 0 0 1 forward_v I I I I #
coedge $-1 $199 $200 $201 $202 reversed $73 $-1 #
coedge $-1 $203 $75 $204 $205 reversed $47 $-1 #
coedge $-1 $75 $203 $206 $207 reversed $47 $-1 #
coedge $-1 $200 $199 $75 $122 reversed $73 $-1 #
edge $-1 $208 -5.7770975579696247 $209 5.7770975579696247 $121 $210 forward 7 unknown #
face $-1 $211 $212 $27 $-1 $213 reversed single #
loop $-1 $-1 $214 $76 #
plane-surface $-1 -94.137770848443722 12.766774659243154 63.791109642500956 0 -1 0 0.64278761758704617 0 -0.76604443648966558 forward_v I I I I #
coedge $-1 $215 $216 $217 $218 reversed $77 $-1 #
coedge $-1 $128 $79 $219 $220 reversed $50 $-1 #
coedge $-1 $79 $127 $215 $221 reversed $50 $-1 #
coedge $-1 $217 $222 $79 $130 forward $223 $-1 #
edge $-1 $224 5.8811050354160486 $225 11.946329778916564 $129 $226 forward 7 unknown #
loop $-1 $-1 $136 $80 #
plane-surface $-1 -41.18778038880582 8.4484849562150828 0.68776960609525872 -0.64278761758704617 0 0.76604443648966558 0.76604443648966558 0 0.64278761758704617 forward_v I I I I #
loop $-1 $-1 $227 $52 #
coedge $-1 $134 $134 $135 $228 reversed $81 $-1 #
coedge $-1 $135 $135 $134 $228 forward $83 $-1 #
coedge $-1 $136 $136 $84 $137 forward $131 $-1 #
edge $-1 $229 0 $229 6.2831853071796004 $136 $230 forward 7 unknown #
loop $-1 $-1 $143 $85 #
plane-surface $-1 -41.18778038880582 8.4484849562150828 0.68776960609525872 -0.64278761758704617 0 0.76604443648966558 0.76604443648966558 0 0.64278761758704617 forward_v I I I I #
loop $-1 $-1 $231 $55 #
coedge $-1 $141 $141 $142 $232 reversed $86 $-1 #
coedge $-1 $142 $142 $141 $232 forward $88 $-1 #
coedge $-1 $143 $143 $89 $144 forward $138 $-1 #
edge $-1 $233 0 $233 6.2831853071796004 $143 $234 forward 7 unknown #
face $-1 $235 $236 $30 $-1 $237 forward single #
loop $-1 $-1 $238 $90 #
plane-surface $-1 53.364996171851253 4.1723257135987595 117.53706984687972 0 1 0 0.77714596973225614 0 0.62932038083071107 forward_v I I I I #
coedge $-1 $239 $240 $241 $242 reversed $91 $-1 #
coedge $-1 $150 $93 $243 $244 reversed $59 $-1 #
coedge $-1 $93 $149 $239 $245 reversed $59 $-1 #
coedge $-1 $241 $246 $93 $152 forward $236 $-1 #
edge $-1 $247 -14.505282302880186 $248 -11.186397064808585 $151 $249 forward 7 unknown #
loop $-1 $-1 $158 $94 #
plane-surface $-1 -10.652838890904142 8.291430197335881 65.696450567169791 0.77714596973225614 0 0.62932038083071107 0.62932038083071107 0 -0.77714596973225614 forward_v I I I I #
loop $-1 $-1 $250 $61 #
coedge $-1 $156 $156 $157 $251 reversed $95 $-1 #
coedge $-1 $157 $157 $156 $251 forward $97 $-1 #
coedge $-1 $158 $158 $98 $159 forward $153 $-1 #
edge $-1 $252 0 $252 6.2831853071796004 $158 $253 forward 7 unknown #
face $-1 $254 $255 $24 $-1 $256 reversed single #
loop $-1 $-1 $257 $99 #
plane-surface $-1 -41.187780388805812 0 0 1 0 0 0 0 -1 forward_v I I I I #
coedge $-1 $258 $171 $259 $260 forward $100 $-1 #
coedge $-1 $261 $102 $258 $262 forward $65 $-1 #
coedge $-1 $102 $261 $263 $264 forward $65 $-1 #
coedge $-1 $174 $173 $102 $167 reversed $175 $-1 #
edge $-1 $265 -22.524500622552168 $266 22.524500622552168 $166 $267 forward 7 unknown #
coedge $-1 $104 $103 $268 $269 forward $41 $-1 #
coedge $-1 $270 $271 $103 $170 reversed $255 $-1 #
edge $-1 $177 -41.187780388805812 $272 41.187780388805812 $169 $273 forward 7 unknown #
coedge $-1 $163 $274 $104 $172 reversed $100 $-1 #
edge $-1 $275 -41.187780388805812 $176 41.187780388805812 $171 $276 forward 7 unknown #
coedge $-1 $166 $105 $274 $277 forward $175 $-1 #
coedge $-1 $105 $166 $270 $278 reversed $175 $-1 #
loop $-1 $-1 $173 $254 #
vertex $-1 $106 $279 #
vertex $-1 $106 $280 #
straight-curve $-1 41.187780388805812 0 5.7770975579696247 0 1 0 I I #
face $-1 $281 $282 $25 $-1 $283 reversed single #
loop $-1 $-1 $284 $107 #
plane-surface $-1 0 0 5.7770975579696247 0 0 1 1 0 0 forward_v I I I I #
coedge $-1 $285 $286 $287 $288 reversed $108 $-1 #
coedge $-1 $113 $110 $289 $290 reversed $69 $-1 #
coedge $-1 $110 $113 $291 $292 reversed $69 $-1 #
coedge $-1 $286 $285 $110 $186 reversed $108 $-1 #
edge $-1 $293 -5.7770975579696247 $294 5.7770975579696247 $185 $295 forward 7 unknown #
coedge $-1 $112 $111 $296 $297 reversed $44 $-1 #
coedge $-1 $289 $298 $111 $189 forward $282 $-1 #
edge $-1 $299 -13.047441688042039 $193 -5.90667618097822 $188 $300 forward 7 unknown #
coedge $-1 $301 $291 $112 $191 forward $180 $-1 #
edge $-1 $192 5.90667618097822 $302 13.047441688042039 $190 $303 forward 7 unknown #
vertex $-1 $191 $304 #
vertex $-1 $189 $305 #
straight-curve $-1 -32.633585272866561 -15.383735115488349 0 0 0 -1 I I #
face $-1 $306 $307 $26 $-1 $308 forward single #
loop $-1 $-1 $309 $115 #
plane-surface $-1 0 0 -5.7770975579696247 0 0 1 1 0 0 forward_v I I I I #
coedge $-1 $310 $311 $203 $312 forward $116 $-1 #
coedge $-1 $121 $118 $313 $314 reversed $73 $-1 #
coedge $-1 $118 $121 $315 $316 reversed $73 $-1 #
coedge $-1 $317 $318 $118 $202 forward $319 $-1 #
edge $-1 $320 -5.7770975579696247 $321 5.7770975579696247 $201 $322 forward 7 unknown #
coedge $-1 $120 $119 $198 $312 reversed $47 $-1 #
coedge $-1 $313 $309 $119 $205 forward $196 $-1 #
edge $-1 $323 14.066792636433281 $209 17.066792636433281 $204 $324 forward 7 unknown #
coedge $-1 $325 $315 $120 $207 forward $307 $-1 #
edge $-1 $208 -17.066792636433281 $326 -14.066792636433281 $206 $327 forward 7 unknown #
vertex $-1 $207 $328 #
vertex $-1 $205 $329 #
straight-curve $-1 -32.633585272866561 15.383735115488349 0 0 0 -1 I I #
face $-1 $-1 $223 $27 $-1 $330 forward single #
loop $-1 $-1 $331 $123 #
plane-surface $-1 -41.187780388805812 0 0 1 0 0 0 0 -1 forward_v I I I I #
coedge $-1 $332 $333 $334 $335 reversed $124 $-1 #
coedge $-1 $336 $126 $128 $221 forward $77 $-1 #
coedge $-1 $126 $336 $332 $337 forward $77 $-1 #
coedge $-1 $334 $129 $126 $218 forward $223 $-1 #
edge $-1 $225 -0.09404722492052997 $338 8.5425321811356127 $217 $339 forward 7 unknown #
coedge $-1 $340 $341 $127 $220 forward $212 $-1 #
edge $-1 $342 -31.207785215155212 $224 -26.118457263280852 $219 $343 forward 7 unknown #
edge $-1 $225 -7.9175886601225187 $342 -9.2967162063127932e-015 $128 $344 forward 7 unknown #
coedge $-1 $129 $334 $340 $345 forward $223 $-1 #
loop $-1 $-1 $334 $211 #
vertex $-1 $220 $346 #
vertex $-1 $130 $347 #
straight-curve $-1 -47.068885424221861 4.1301952531870114 5.7770975579696255 1 0 0 I I #
coedge $-1 $227 $227 $-1 $348 reversed $133 $-1 #
edge $-1 $349 0 $349 6.2831853071796004 $134 $350 forward 7 unknown #
vertex $-1 $137 $351 #
ellipse-curve $-1 -38.155168017055558 6.5977893692030527 3.2324335820324439 -0.64278761758704617 0 0.76604443648966558 0.76604443648966558 0 0.64278761758704617 1 I I #
coedge $-1 $231 $231 $-1 $352 reversed $140 $-1 #
edge $-1 $353 0 $353 6.2831853071796004 $141 $354 forward 7 unknown #
vertex $-1 $144 $355 #
ellipse-curve $-1 -38.155168017055558 10.299180543227116 3.2324335820324439 -0.64278761758704617 0 0.76604443648966558 0.76604443648966558 0 0.64278761758704617 1 I I #
face $-1 $-1 $356 $30 $-1 $357 reversed single #
loop $-1 $-1 $151 $145 #
plane-surface $-1 0 0 5.7770975579696247 0 0 1 1 0 0 forward_v I I I I #
coedge $-1 $358 $359 $360 $361 reversed $146 $-1 #
coedge $-1 $362 $148 $150 $245 forward $91 $-1 #
coedge $-1 $148 $362 $358 $363 forward $91 $-1 #
coedge $-1 $360 $151 $148 $242 forward $236 $-1 #
edge $-1 $248 -8.2648195824050621 $364 -0.026610614930818954 $241 $365 forward 7 unknown #
coedge $-1 $366 $367 $149 $244 forward $356 $-1 #
edge $-1 $368 -57.089919419025478 $247 -52.991437365470233 $243 $369 forward 7 unknown #
edge $-1 $248 77.101799845714567 $368 82.375560777611639 $150 $370 forward 7 unknown #
coedge $-1 $151 $360 $366 $371 forward $236 $-1 #
vertex $-1 $152 $372 #
vertex $-1 $152 $373 #
straight-curve $-1 26.682498085925626 12.410534681073003 5.7770975579696255 -1 0 0 I I #
coedge $-1 $250 $250 $-1 $374 reversed $155 $-1 #
edge $-1 $375 0 $375 6.2831853071796004 $156 $376 forward 7 unknown #
vertex $-1 $159 $377 #
ellipse-curve $-1 39.528337769770012 8.291430197335881 3.7278565311920051 0.77714596973225614 0 0.62932038083071107 0.62932038083071107 0 -0.77714596973225614 1 I I #
face $-1 $-1 $175 $24 $-1 $378 reversed single #
loop $-1 $-1 $270 $160 #
plane-surface $-1 0 22.524500622552168 0 0 -1 0 0 0 -1 forward_v I I I I #
coedge $-1 $379 $268 $271 $380 forward $161 $-1 #
coedge $-1 $274 $163 $164 $262 reversed $100 $-1 #
coedge $-1 $268 $379 $163 $260 reversed $161 $-1 #
edge $-1 $275 -5.7770975579696247 $381 5.7770975579696247 $259 $382 forward 7 unknown #
coedge $-1 $165 $164 $379 $383 forward $65 $-1 #
edge $-1 $266 -41.187780388805812 $381 41.187780388805812 $258 $384 forward 7 unknown #
coedge $-1 $271 $270 $165 $264 reversed $255 $-1 #
edge $-1 $385 -41.187780388805812 $265 41.187780388805812 $263 $386 forward 7 unknown #
vertex $-1 $167 $387 #
vertex $-1 $277 $388 #
straight-curve $-1 41.187780388805812 0 -5.7770975579696247 0 -1 0 I I #
coedge $-1 $257 $259 $168 $269 reversed $161 $-1 #
edge $-1 $272 -22.524500622552168 $275 22.524500622552168 $268 $389 forward 7 unknown #
coedge $-1 $263 $169 $174 $278 forward $255 $-1 #
coedge $-1 $169 $263 $257 $380 reversed $255 $-1 #
vertex $-1 $170 $390 #
straight-curve $-1 0 22.524500622552168 5.7770975579696247 -1 0 0 I I #
coedge $-1 $171 $258 $173 $277 reversed $100 $-1 #
vertex $-1 $269 $391 #
straight-curve $-1 0 -22.524500622552168 5.7770975579696247 1 0 0 I I #
edge $-1 $176 -5.7770975579696247 $266 5.7770975579696247 $173 $392 forward 7 unknown #
edge $-1 $177 -5.7770975579696247 $265 5.7770975579696247 $174 $393 forward 7 unknown #
point $-1 41.187780388805812 -22.524500622552168 5.7770975579696247 #
point $-1 41.187780388805812 22.524500622552168 5.7770975579696247 #
face $-1 $-1 $394 $25 $-1 $395 reversed single #
loop $-1 $-1 $396 $179 #
plane-surface $-1 0 0 -5.7770975579696247 0 0 1 1 0 0 forward_v I I I I #
coedge $-1 $291 $301 $286 $397 forward $180 $-1 #
coedge $-1 $185 $182 $396 $398 reversed $108 $-1 #
coedge $-1 $182 $185 $284 $397 reversed $108 $-1 #
coedge $-1 $399 $400 $182 $288 forward $394 $-1 #
edge $-1 $401 -5.7770975579696247 $402 5.7770975579696247 $287 $403 forward 7 unknown #
coedge $-1 $396 $188 $183 $290 forward $282 $-1 #
edge $-1 $193 -17.066792636433281 $294 -14.066792636433281 $289 $404 forward 7 unknown #
coedge $-1 $190 $284 $184 $292 forward $180 $-1 #
edge $-1 $293 14.066792636433281 $192 17.066792636433281 $291 $405 forward 7 unknown #
vertex $-1 $292 $406 #
vertex $-1 $290 $407 #
straight-curve $-1 -29.633585272866561 -15.383735115488349 0 0 0 -1 I I #
coedge $-1 $400 $399 $187 $297 forward $394 $-1 #
edge $-1 $302 -5.7770975579696247 $299 5.7770975579696247 $296 $408 forward 7 unknown #
coedge $-1 $188 $396 $400 $409 forward $282 $-1 #
vertex $-1 $189 $410 #
straight-curve $-1 -32.633585272866561 -9.4770589345101293 -5.7770975579696247 0 1 0 I I #
coedge $-1 $284 $190 $399 $411 forward $180 $-1 #
vertex $-1 $411 $412 #
straight-curve $-1 -32.633585272866561 -9.4770589345101293 5.7770975579696247 0 -1 0 I I #
point $-1 -32.633585272866561 -15.383735115488349 5.7770975579696247 #
point $-1 -32.633585272866561 -15.383735115488349 -5.7770975579696247 #
face $-1 $-1 $319 $26 $-1 $413 reversed single #
loop $-1 $-1 $325 $195 #
plane-surface $-1 0 0 5.7770975579696247 0 0 1 1 0 0 forward_v I I I I #
coedge $-1 $204 $414 $310 $415 forward $196 $-1 #
coedge $-1 $416 $198 $309 $415 reversed $116 $-1 #
coedge $-1 $198 $416 $325 $417 reversed $116 $-1 #
edge $-1 $326 -5.7770975579696247 $323 5.7770975579696247 $198 $418 forward 7 unknown #
coedge $-1 $414 $204 $199 $314 forward $196 $-1 #
edge $-1 $209 5.90667618097822 $320 13.047441688042039 $313 $419 forward 7 unknown #
coedge $-1 $206 $420 $200 $316 forward $307 $-1 #
edge $-1 $321 -13.047441688042039 $208 -5.90667618097822 $315 $421 forward 7 unknown #
coedge $-1 $422 $201 $420 $423 reversed $319 $-1 #
coedge $-1 $201 $422 $414 $424 reversed $319 $-1 #
loop $-1 $-1 $422 $306 #
vertex $-1 $424 $425 #
vertex $-1 $202 $426 #
straight-curve $-1 -32.633585272866561 22.524500622552168 0 0 0 1 I I #
vertex $-1 $205 $427 #
straight-curve $-1 -15.566792636433281 15.383735115488349 -5.7770975579696247 -1 0 0 I I #
coedge $-1 $420 $206 $311 $417 forward $307 $-1 #
vertex $-1 $207 $428 #
straight-curve $-1 -15.566792636433281 15.383735115488349 5.7770975579696247 1 0 0 I I #
point $-1 -32.633585272866561 15.383735115488349 5.7770975579696247 #
point $-1 -32.633585272866561 15.383735115488349 -5.7770975579696247 #
plane-surface $-1 0 0 5.7770975579696247 0 0 1 1 0 0 forward_v I I I I #
coedge $-1 $341 $340 $333 $429 forward $212 $-1 #
coedge $-1 $333 $214 $216 $337 reversed $124 $-1 #
coedge $-1 $214 $332 $331 $429 reversed $124 $-1 #
coedge $-1 $222 $217 $214 $335 forward $223 $-1 #
edge $-1 $338 -11.946329778916564 $430 -5.8811050354160486 $334 $431 forward 7 unknown #
coedge $-1 $216 $215 $341 $432 reversed $77 $-1 #
edge $-1 $433 9.2967162063127932e-015 $338 7.9175886601225187 $332 $434 forward 7 unknown #
vertex $-1 $218 $435 #
straight-curve $-1 -35.122555645305297 4.2242424781075414 5.7770975579696247 0 1 0 I I #
coedge $-1 $331 $219 $222 $345 reversed $212 $-1 #
coedge $-1 $219 $331 $336 $432 forward $212 $-1 #
vertex $-1 $220 $436 #
straight-curve $-1 -41.187780388805812 4.1301952531870114 31.895554821250478 0 0 1 I I #
straight-curve $-1 -41.18778038880582 4.1301952531870114 0.68776960609525872 -0.76604443648966558 0 -0.64278761758704617 I I #
edge $-1 $430 -12.766774659243154 $224 -4.1301952531870114 $340 $437 forward 7 unknown #
point $-1 -41.187780388805812 4.1301952531870114 5.7770975579696247 #
point $-1 -35.122555645305297 4.1301952531870114 5.7770975579696247 #
edge $-1 $438 1 $438 0 $227 $-1 forward 7 unknown #
vertex $-1 $228 $439 #
ellipse-curve $-1 -36.869788951081446 6.5977893692030527 1.7005784943970537 -0.64278761758704617 0 0.76604443648966558 0.76604443648966558 0 0.64278761758704617 1 I I #
point $-1 -37.389123580565887 6.5977893692030527 3.8752211996194905 #
edge $-1 $440 1 $440 0 $231 $-1 forward 7 unknown #
vertex $-1 $232 $441 #
ellipse-curve $-1 -36.869788951081446 10.299180543227116 1.7005784943970537 -0.64278761758704617 0 0.76604443648966558 0.76604443648966558 0 0.64278761758704617 1 I I #
point $-1 -37.389123580565887 10.299180543227116 3.8752211996194905 #
loop $-1 $-1 $243 $235 #
plane-surface $-1 41.187780388805812 0 0 -1 0 0 0 0 1 forward_v I I I I #
coedge $-1 $359 $238 $240 $363 reversed $146 $-1 #
coedge $-1 $238 $358 $442 $443 reversed $146 $-1 #
coedge $-1 $246 $241 $238 $361 forward $236 $-1 #
edge $-1 $364 11.186397064808585 $444 14.505282302880186 $360 $445 forward 7 unknown #
coedge $-1 $240 $239 $367 $446 reversed $91 $-1 #
edge $-1 $447 -82.375560777611639 $364 -77.101799845714567 $358 $448 forward 7 unknown #
vertex $-1 $242 $449 #
straight-curve $-1 37.868895150734204 4.1457150986679405 5.7770975579696255 0 -1 0 I I #
coedge $-1 $442 $243 $246 $371 reversed $356 $-1 #
coedge $-1 $243 $442 $362 $446 forward $356 $-1 #
vertex $-1 $244 $450 #
straight-curve $-1 41.187780388805812 12.410534681073003 58.768534923439859 0 0 1 I I #
straight-curve $-1 -10.652838890904142 12.410534681073003 65.696450567169791 0.62932038083071107 0 -0.77714596973225614 I I #
edge $-1 $444 4.1723257135987595 $247 12.410534681073003 $366 $451 forward 7 unknown #
point $-1 41.187780388805812 12.410534681073003 5.7770975579696247 #
point $-1 37.868895150734211 12.410534681073003 5.7770975579696255 #
edge $-1 $452 1 $452 0 $250 $-1 forward 7 unknown #
vertex $-1 $251 $453 #
ellipse-curve $-1 38.65855188311604 8.291430197335881 3.0235178268185656 0.77714596973225614 0 0.62932038083071107 0.62932038083071107 0 -0.77714596973225614 1 I I #
point $-1 40.157658150600732 8.291430197335881 2.9507105614597546 #
plane-surface $-1 41.187780388805812 0 0 -1 0 0 0 0 1 forward_v I I I I #
coedge $-1 $259 $257 $261 $383 reversed $161 $-1 #
edge $-1 $272 -5.7770975579696247 $385 5.7770975579696247 $271 $454 forward 7 unknown #
vertex $-1 $383 $455 #
straight-curve $-1 -41.187780388805812 -22.524500622552168 0 0 0 -1 I I #
edge $-1 $381 -22.524500622552168 $385 22.524500622552168 $379 $456 forward 7 unknown #
straight-curve $-1 0 -22.524500622552168 -5.7770975579696247 -1 0 0 I I #
vertex $-1 $264 $457 #
straight-curve $-1 0 22.524500622552168 -5.7770975579696247 1 0 0 I I #
point $-1 41.187780388805812 22.524500622552168 -5.7770975579696247 #
point $-1 41.187780388805812 -22.524500622552168 -5.7770975579696247 #
straight-curve $-1 -41.187780388805812 0 5.7770975579696247 0 -1 0 I I #
point $-1 -41.187780388805812 22.524500622552168 5.7770975579696247 #
point $-1 -41.187780388805812 -22.524500622552168 5.7770975579696247 #
straight-curve $-1 41.187780388805812 -22.524500622552168 0 0 0 -1 I I #
straight-curve $-1 41.187780388805812 22.524500622552168 0 0 0 -1 I I #
loop $-1 $-1 $287 $281 #
plane-surface $-1 0 -22.524500622552168 0 0 1 0 0 0 1 forward_v I I I I #
coedge $-1 $298 $289 $285 $398 forward $282 $-1 #
edge $-1 $402 -13.047441688042039 $293 -5.90667618097822 $284 $458 forward 7 unknown #
edge $-1 $294 5.90667618097822 $401 13.047441688042039 $396 $459 forward 7 unknown #
coedge $-1 $296 $287 $301 $411 reversed $394 $-1 #
coedge $-1 $287 $296 $298 $409 reversed $394 $-1 #
vertex $-1 $409 $460 #
vertex $-1 $288 $461 #
straight-curve $-1 -29.633585272866561 -22.524500622552168 0 0 0 1 I I #
straight-curve $-1 -15.566792636433281 -15.383735115488349 -5.7770975579696247 1 0 0 I I #
straight-curve $-1 -15.566792636433281 -15.383735115488349 5.7770975579696247 -1 0 0 I I #
point $-1 -29.633585272866561 -15.383735115488349 5.7770975579696247 #
point $-1 -29.633585272866561 -15.383735115488349 -5.7770975579696247 #
straight-curve $-1 -32.633585272866561 -22.524500622552168 0 0 0 -1 I I #
edge $-1 $401 29.633585272866561 $299 32.633585272866561 $400 $462 forward 7 unknown #
point $-1 -32.633585272866561 -22.524500622552168 -5.7770975579696247 #
edge $-1 $302 -32.633585272866561 $402 -29.633585272866561 $399 $463 forward 7 unknown #
point $-1 -32.633585272866561 -22.524500622552168 5.7770975579696247 #
plane-surface $-1 0 22.524500622552168 0 0 -1 0 0 0 -1 forward_v I I I I #
coedge $-1 $309 $313 $318 $424 forward $196 $-1 #
edge $-1 $464 -13.047441688042039 $323 -5.90667618097822 $309 $465 forward 7 unknown #
coedge $-1 $311 $310 $422 $466 reversed $116 $-1 #
edge $-1 $326 5.90667618097822 $467 13.047441688042039 $325 $468 forward 7 unknown #
straight-curve $-1 -29.633585272866561 15.383735115488349 0 0 0 -1 I I #
straight-curve $-1 -32.633585272866561 9.4770589345101293 -5.7770975579696247 0 1 0 I I #
coedge $-1 $315 $325 $317 $423 forward $307 $-1 #
straight-curve $-1 -32.633585272866561 9.4770589345101293 5.7770975579696247 0 -1 0 I I #
coedge $-1 $318 $317 $416 $466 forward $319 $-1 #
edge $-1 $467 29.633585272866561 $321 32.633585272866561 $317 $469 forward 7 unknown #
edge $-1 $320 -32.633585272866561 $464 -29.633585272866561 $318 $470 forward 7 unknown #
point $-1 -32.633585272866561 22.524500622552168 -5.7770975579696247 #
point $-1 -32.633585272866561 22.524500622552168 5.7770975579696247 #
point $-1 -29.633585272866561 15.383735115488349 -5.7770975579696247 #
point $-1 -29.633585272866561 15.383735115488349 5.7770975579696247 #
edge $-1 $430 26.118457263280852 $433 31.207785215155212 $331 $471 forward 7 unknown #
vertex $-1 $345 $472 #
straight-curve $-1 -47.068885424221861 12.766774659243154 5.7770975579696255 -1 0 0 I I #
edge $-1 $433 -8.5425321811356127 $342 0.09404722492052997 $341 $473 forward 7 unknown #
vertex $-1 $432 $474 #
straight-curve $-1 -41.18778038880582 12.766774659243154 0.68776960609525872 0.76604443648966558 0 0.64278761758704617 I I #
point $-1 -35.122555645305297 12.766774659243154 5.7770975579696247 #
point $-1 -41.187780388805812 4.1301952531870114 0.68776960609526472 #
straight-curve $-1 -41.187780388805812 0 5.7770975579696247 0 -1 0 I I #
vertex $-1 $348 $475 #
point $-1 -36.103744514591781 6.5977893692030527 2.3433661119840998 #
vertex $-1 $352 $476 #
point $-1 -36.103744514591781 10.299180543227116 2.3433661119840998 #
coedge $-1 $367 $366 $359 $443 forward $356 $-1 #
edge $-1 $444 52.991437365470233 $447 57.089919419025478 $442 $477 forward 7 unknown #
vertex $-1 $371 $478 #
straight-curve $-1 26.682498085925626 4.1723257135987595 5.7770975579696255 1 0 0 I I #
edge $-1 $447 0.026610614930818954 $368 8.2648195824050621 $367 $479 forward 7 unknown #
vertex $-1 $446 $480 #
straight-curve $-1 -10.652838890904142 4.1723257135987595 65.696450567169791 -0.62932038083071107 0 0.77714596973225614 I I #
point $-1 37.868895150734211 4.1723257135987595 5.7770975579696255 #
point $-1 41.187780388805805 12.410534681073003 1.6786155044143811 #
straight-curve $-1 41.187780388805812 0 5.7770975579696247 0 1 0 I I #
vertex $-1 $374 $481 #
point $-1 39.287872263946753 8.291430197335881 2.2463718570863094 #
straight-curve $-1 -41.187780388805812 22.524500622552168 0 0 0 -1 I I #
point $-1 -41.187780388805812 -22.524500622552168 -5.7770975579696247 #
straight-curve $-1 -41.187780388805812 0 -5.7770975579696247 0 1 0 I I #
point $-1 -41.187780388805812 22.524500622552168 -5.7770975579696247 #
straight-curve $-1 -29.633585272866561 -9.4770589345101293 5.7770975579696247 0 1 0 I I #
straight-curve $-1 -29.633585272866561 -9.4770589345101293 -5.7770975579696247 0 -1 0 I I #
point $-1 -29.633585272866561 -22.524500622552168 -5.7770975579696247 #
point $-1 -29.633585272866561 -22.524500622552168 5.7770975579696247 #
straight-curve $-1 0 -22.524500622552168 -5.7770975579696247 -1 0 0 I I #
straight-curve $-1 0 -22.524500622552168 5.7770975579696247 1 0 0 I I #
vertex $-1 $466 $482 #
straight-curve $-1 -29.633585272866561 9.4770589345101293 -5.7770975579696247 0 -1 0 I I #
edge $-1 $467 -5.7770975579696247 $464 5.7770975579696247 $422 $483 forward 7 unknown #
vertex $-1 $423 $484 #
straight-curve $-1 -29.633585272866561 9.4770589345101293 5.7770975579696247 0 1 0 I I #
straight-curve $-1 0 22.524500622552168 5.7770975579696247 -1 0 0 I I #
straight-curve $-1 0 22.524500622552168 -5.7770975579696247 1 0 0 I I #
straight-curve $-1 -41.187780388805812 12.766774659243154 31.895554821250478 0 0 -1 I I #
point $-1 -41.187780388805812 12.766774659243154 5.7770975579696247 #
straight-curve $-1 -41.187780388805812 4.2242424781075414 0.68776960609526661 0 -1 0 I I #
point $-1 -41.187780388805812 12.766774659243154 0.68776960609526472 #
point $-1 -36.2270013334944 6.5977893692030527 0.93453405790738797 #
point $-1 -36.2270013334944 10.299180543227116 0.93453405790738797 #
straight-curve $-1 41.187780388805812 4.1723257135987595 58.768534923439859 0 0 -1 I I #
point $-1 41.187780388805812 4.1723257135987595 5.7770975579696247 #
straight-curve $-1 41.187780388805812 4.1457150986679405 1.6786155044143705 0 1 0 I I #
point $-1 41.187780388805805 4.1723257135987595 1.6786155044143811 #
point $-1 37.88140591338378 8.291430197335881 2.3941974459878548 #
point $-1 -29.633585272866561 22.524500622552168 -5.7770975579696247 #
straight-curve $-1 -29.633585272866561 22.524500622552168 0 0 0 -1 I I #
point $-1 -29.633585272866561 22.524500622552168 5.7770975579696247 #
End-of-ACIS-data 