500 0 15 0           
7 Unknown 11 ACIS 5.0 NT 24 Fri Mar 26 16:45:25 1999 
-1 9.9999999999999995e-007 1e-010 
body $-1 $15 $-1 $16 #
body $-1 $17 $-1 $18 #
body $-1 $19 $-1 $20 #
body $-1 $21 $-1 $22 #
body $-1 $23 $-1 $24 #
body $-1 $25 $-1 $26 #
body $-1 $27 $-1 $28 #
body $-1 $29 $-1 $30 #
body $-1 $31 $-1 $32 #
body $-1 $33 $-1 $34 #
body $-1 $35 $-1 $36 #
body $-1 $37 $-1 $38 #
body $-1 $39 $-1 $40 #
body $-1 $41 $-1 $42 #
body $-1 $43 $-1 $44 #
lump $-1 $-1 $45 $0 #
transform $-1 1 0 0 0 1 0 0 0 1 54.332712790307319 25.585804564600942 8.4004395479259593 1 rotate no_reflect no_shear #
lump $-1 $-1 $46 $1 #
transform $-1 1 0 0 0 1 0 0 0 1 54.332712790307319 25.585804564600942 8.4004395479259593 1 rotate no_reflect no_shear #
lump $-1 $-1 $47 $2 #
transform $-1 1 0 0 0 1 0 0 0 1 54.332712790307319 25.585804564600942 8.4004395479259593 1 rotate no_reflect no_shear #
lump $-1 $-1 $48 $3 #
transform $-1 1 0 0 0 1 0 0 0 1 54.332712790307319 25.585804564600942 8.4004395479259593 1 rotate no_reflect no_shear #
lump $-1 $-1 $49 $4 #
transform $-1 1 0 0 0 1 0 0 0 1 54.332712790307319 25.585804564600942 8.4004395479259593 1 rotate no_reflect no_shear #
lump $-1 $-1 $50 $5 #
transform $-1 1 0 0 0 1 0 0 0 1 54.332712790307319 25.585804564600942 8.4004395479259593 1 rotate no_reflect no_shear #
lump $-1 $-1 $51 $6 #
transform $-1 1 0 0 0 1 0 0 0 1 54.332712790307319 25.585804564600942 8.4004395479259593 1 rotate no_reflect no_shear #
lump $-1 $-1 $52 $7 #
transform $-1 1 0 0 0 1 0 0 0 1 54.332712790307319 25.585804564600942 8.4004395479259593 1 rotate no_reflect no_shear #
lump $-1 $-1 $53 $8 #
transform $-1 1 0 0 0 1 0 0 0 1 54.332712790307319 25.585804564600942 8.4004395479259593 1 rotate no_reflect no_shear #
lump $-1 $-1 $54 $9 #
transform $-1 1 0 0 0 1 0 0 0 1 54.332712790307319 25.585804564600942 8.4004395479259593 1 rotate no_reflect no_shear #
lump $-1 $-1 $55 $10 #
transform $-1 1 0 0 0 1 0 0 0 1 54.332712790307319 25.585804564600942 8.4004395479259593 1 rotate no_reflect no_shear #
lump $-1 $-1 $56 $11 #
transform $-1 1 0 0 0 1 0 0 0 1 54.332712790307319 25.585804564600942 8.4004395479259593 1 rotate no_reflect no_shear #
lump $-1 $-1 $57 $12 #
transform $-1 1 0 0 0 1 0 0 0 1 54.332712790307319 25.585804564600942 8.4004395479259593 1 rotate no_reflect no_shear #
lump $-1 $-1 $58 $13 #
transform $-1 1 0 0 0 1 0 0 0 1 54.332712790307319 25.585804564600942 8.4004395479259593 1 rotate no_reflect no_shear #
lump $-1 $-1 $59 $14 #
transform $-1 1 0 0 0 1 0 0 0 1 54.332712790307319 25.585804564600942 8.4004395479259593 1 rotate no_reflect no_shear #
shell $-1 $-1 $-1 $60 $-1 $15 #
shell $-1 $-1 $-1 $61 $-1 $17 #
shell $-1 $-1 $-1 $62 $-1 $19 #
shell $-1 $-1 $-1 $63 $-1 $21 #
shell $-1 $-1 $-1 $64 $-1 $23 #
shell $-1 $-1 $-1 $65 $-1 $25 #
shell $-1 $-1 $-1 $66 $-1 $27 #
shell $-1 $-1 $-1 $67 $-1 $29 #
shell $-1 $-1 $-1 $68 $-1 $31 #
shell $-1 $-1 $-1 $69 $-1 $33 #
shell $-1 $-1 $-1 $70 $-1 $35 #
shell $-1 $-1 $-1 $71 $-1 $37 #
shell $-1 $-1 $-1 $72 $-1 $39 #
shell $-1 $-1 $-1 $73 $-1 $41 #
shell $-1 $-1 $-1 $74 $-1 $43 #
face $-1 $75 $76 $45 $-1 $77 forward single #
face $-1 $78 $79 $46 $-1 $80 forward single #
face $-1 $81 $82 $47 $-1 $83 forward single #
face $-1 $84 $85 $48 $-1 $86 reversed single #
face $-1 $87 $88 $49 $-1 $89 forward single #
face $-1 $90 $91 $50 $-1 $92 reversed single #
face $-1 $93 $94 $51 $-1 $95 forward single #
face $-1 $96 $97 $52 $-1 $98 reversed single #
face $-1 $99 $100 $53 $-1 $101 forward single #
face $-1 $102 $103 $54 $-1 $104 forward single #
face $-1 $105 $106 $55 $-1 $107 forward single #
face $-1 $108 $109 $56 $-1 $110 reversed single #
face $-1 $111 $112 $57 $-1 $113 forward single #
face $-1 $114 $115 $58 $-1 $116 forward single #
face $-1 $117 $118 $59 $-1 $119 forward single #
face $-1 $120 $121 $45 $-1 $122 reversed single #
loop $-1 $-1 $123 $60 #
plane-surface $-1 0 0 8.4004395479259593 0 0 1 1 0 0 forward_v I I I I #
face $-1 $124 $125 $46 $-1 $126 reversed single #
loop $-1 $-1 $127 $61 #
plane-surface $-1 0 -25.585804564600942 0 0 1 0 0 0 1 forward_v I I I I #
face $-1 $128 $129 $47 $-1 $130 reversed single #
loop $-1 $-1 $131 $62 #
plane-surface $-1 0 25.585804564600942 0 0 -1 0 0 0 -1 forward_v I I I I #
face $-1 $132 $133 $48 $-1 $134 reversed single #
loop $-1 $-1 $135 $63 #
plane-surface $-1 81.018292885259569 -5.1660900457457481 153.6066275842455 0 -1 0 -0.81915205242281985 0 -0.57357642473473569 forward_v I I I I #
face $-1 $136 $137 $49 $-1 $138 forward single #
loop $-1 $139 $140 $64 #
cone-surface $-1 51.100370955339265 -8.9662856702868332 4.5735334607226248 -0.81915205242281985 0 -0.57357642473473569 0.57357642473473569 0 -0.81915205242281985 1 I I 0 1 1 forward I I I I #
face $-1 $141 $142 $50 $-1 $143 reversed single #
loop $-1 $-1 $144 $65 #
plane-surface $-1 81.018292885259569 14.471544662061323 153.6066275842455 0 -1 0 -0.81915205242281985 0 -0.57357642473473569 forward_v I I I I #
face $-1 $145 $146 $51 $-1 $147 forward single #
loop $-1 $148 $149 $66 #
cone-surface $-1 51.100370955339265 10.671349037520237 4.5735334607226248 -0.81915205242281985 0 -0.57357642473473569 0.57357642473473569 0 -0.81915205242281985 1 I I 0 1 1 forward I I I I #
face $-1 $150 $151 $52 $-1 $152 reversed single #
loop $-1 $-1 $153 $67 #
plane-surface $-1 -127.04407577379794 -8.5308099253458334 83.278429447410375 0 1 0 -0.66913061440640931 0 0.74314481823134659 forward_v I I I I #
face $-1 $154 $155 $53 $-1 $156 forward single #
loop $-1 $157 $158 $68 #
cone-surface $-1 -50.472176851400562 -6.6541416035533238 4.798804348455878 0.66913061440640931 0 -0.74314481823134659 0.3715724091156733 0 0.33456530720320465 1 I I 0 1 0.5 forward I I I I #
face $-1 $159 $160 $54 $-1 $161 forward single #
loop $-1 $162 $163 $69 #
cone-surface $-1 -50.472176851400562 -3.8391391208645658 4.798804348455878 0.66913061440640931 0 -0.74314481823134659 0.3715724091156733 0 0.33456530720320465 1 I I 0 1 0.5 forward I I I I #
face $-1 $164 $165 $55 $-1 $166 forward single #
loop $-1 $167 $168 $70 #
cone-surface $-1 -50.472176851400562 -1.0241366381758041 4.798804348455878 0.66913061440640931 0 -0.74314481823134659 0.3715724091156733 0 0.33456530720320465 1 I I 0 1 0.5 forward I I I I #
face $-1 $169 $170 $56 $-1 $171 reversed single #
loop $-1 $-1 $172 $71 #
plane-surface $-1 -54.332712790307326 -3.8391391208645658 2.5242815062725867 -0.66913061440640931 0 0.74314481823134659 0.74314481823134659 0 0.66913061440640931 forward_v I I I I #
face $-1 $173 $174 $57 $-1 $175 forward single #
loop $-1 $176 $177 $72 #
cone-surface $-1 -50.472176851400562 2.7292000054092114 4.798804348455878 0.66913061440640931 0 -0.74314481823134659 0.3715724091156733 0 0.33456530720320465 1 I I 0 1 0.5 forward I I I I #
face $-1 $178 $179 $58 $-1 $180 forward single #
loop $-1 $181 $182 $73 #
cone-surface $-1 -50.472176851400562 5.5442024880979695 4.798804348455878 0.66913061440640931 0 -0.74314481823134659 0.3715724091156733 0 0.33456530720320465 1 I I 0 1 0.5 forward I I I I #
face $-1 $183 $184 $59 $-1 $185 forward single #
loop $-1 $186 $187 $74 #
cone-surface $-1 -50.472176851400562 8.3592049707867275 4.798804348455878 0.66913061440640931 0 -0.74314481823134659 0.3715724091156733 0 0.33456530720320465 1 I I 0 1 0.5 forward I I I I #
face $-1 $188 $189 $45 $-1 $190 reversed single #
loop $-1 $-1 $191 $75 #
plane-surface $-1 0 0 -8.4004395479259593 0 0 1 1 0 0 forward_v I I I I #
coedge $-1 $192 $193 $194 $195 forward $76 $-1 #
face $-1 $196 $197 $46 $-1 $198 forward single #
loop $-1 $-1 $199 $78 #
plane-surface $-1 -54.332712790307319 0 0 1 0 0 0 0 -1 forward_v I I I I #
coedge $-1 $200 $201 $202 $203 forward $79 $-1 #
face $-1 $204 $205 $47 $-1 $206 forward single #
loop $-1 $-1 $207 $81 #
plane-surface $-1 54.332712790307319 0 0 -1 0 0 0 0 1 forward_v I I I I #
coedge $-1 $208 $209 $210 $211 forward $82 $-1 #
face $-1 $212 $213 $48 $-1 $214 reversed single #
loop $-1 $-1 $215 $84 #
plane-surface $-1 -7.9952135065001073 -8.9662856702868332 91.278701287438068 0.81915205242281985 0 0.57357642473473569 0.57357642473473569 0 -0.81915205242281985 forward_v I I I I #
coedge $-1 $216 $217 $218 $219 reversed $85 $-1 #
face $-1 $-1 $220 $49 $-1 $221 forward single #
loop $-1 $222 $223 $87 #
cone-surface $-1 49.606425306461993 -8.9662856702868332 3.5274614872756977 -0.81915205242281985 0 -0.57357642473473569 0.28678821236736785 0 -0.40957602621140993 1 I I -0.70710678118654779 0.70710678118654713 0.5 forward I I I I #
loop $-1 $-1 $224 $64 #
coedge $-1 $140 $140 $225 $226 reversed $88 $-1 #
face $-1 $227 $228 $50 $-1 $229 reversed single #
loop $-1 $-1 $230 $90 #
plane-surface $-1 -7.9952135065001073 10.671349037520237 91.278701287438068 0.81915205242281985 0 0.57357642473473569 0.57357642473473569 0 -0.81915205242281985 forward_v I I I I #
coedge $-1 $231 $232 $233 $234 reversed $91 $-1 #
face $-1 $-1 $235 $51 $-1 $236 forward single #
loop $-1 $237 $238 $93 #
cone-surface $-1 49.606425306461993 10.671349037520237 3.5274614872756977 -0.81915205242281985 0 -0.57357642473473569 0.28678821236736785 0 -0.40957602621140993 1 I I -0.70710678118654779 0.70710678118654713 0.5 forward I I I I #
loop $-1 $-1 $239 $66 #
coedge $-1 $149 $149 $240 $241 reversed $94 $-1 #
face $-1 $242 $243 $52 $-1 $244 reversed single #
loop $-1 $-1 $245 $96 #
plane-surface $-1 -54.332712790307326 -3.8391391208645658 2.5242815062725867 -0.66913061440640931 0 0.74314481823134659 0.74314481823134659 0 0.66913061440640931 forward_v I I I I #
coedge $-1 $246 $247 $248 $249 reversed $97 $-1 #
face $-1 $-1 $250 $53 $-1 $251 forward single #
loop $-1 $252 $253 $99 #
cone-surface $-1 -49.707425517918317 -6.6541416035533238 3.9494619652546454 0.66913061440640931 0 -0.74314481823134659 0.18578620455783665 0 0.16728265360160233 1 I I -0.70710678118654746 0.70710678118654746 0.25 forward I I I I #
loop $-1 $-1 $254 $68 #
coedge $-1 $158 $158 $255 $256 reversed $100 $-1 #
face $-1 $-1 $257 $54 $-1 $258 forward single #
loop $-1 $259 $260 $102 #
cone-surface $-1 -49.707425517918317 -3.8391391208645658 3.9494619652546454 0.66913061440640931 0 -0.74314481823134659 0.18578620455783665 0 0.16728265360160233 1 I I -0.70710678118654746 0.70710678118654746 0.25 forward I I I I #
loop $-1 $-1 $261 $69 #
coedge $-1 $163 $163 $262 $263 reversed $103 $-1 #
face $-1 $-1 $264 $55 $-1 $265 forward single #
loop $-1 $266 $267 $105 #
cone-surface $-1 -49.707425517918317 -1.0241366381758041 3.9494619652546454 0.66913061440640931 0 -0.74314481823134659 0.18578620455783665 0 0.16728265360160233 1 I I -0.70710678118654746 0.70710678118654746 0.25 forward I I I I #
loop $-1 $-1 $268 $70 #
coedge $-1 $168 $168 $269 $270 reversed $106 $-1 #
face $-1 $271 $272 $56 $-1 $273 forward single #
loop $-1 $-1 $274 $108 #
plane-surface $-1 -127.04407577379794 10.235873292579237 83.278429447410375 0 -1 0 0.66913061440640931 0 -0.74314481823134659 forward_v I I I I #
coedge $-1 $275 $276 $277 $278 reversed $109 $-1 #
face $-1 $-1 $279 $57 $-1 $280 forward single #
loop $-1 $281 $282 $111 #
cone-surface $-1 -49.707425517918317 2.7292000054092114 3.9494619652546454 0.66913061440640931 0 -0.74314481823134659 0.18578620455783665 0 0.16728265360160233 1 I I -0.70710678118654746 0.70710678118654746 0.25 forward I I I I #
loop $-1 $-1 $283 $72 #
coedge $-1 $177 $177 $284 $285 reversed $112 $-1 #
face $-1 $-1 $286 $58 $-1 $287 forward single #
loop $-1 $288 $289 $114 #
cone-surface $-1 -49.707425517918317 5.5442024880979695 3.9494619652546454 0.66913061440640931 0 -0.74314481823134659 0.18578620455783665 0 0.16728265360160233 1 I I -0.70710678118654746 0.70710678118654746 0.25 forward I I I I #
loop $-1 $-1 $290 $73 #
coedge $-1 $182 $182 $291 $292 reversed $115 $-1 #
face $-1 $-1 $293 $59 $-1 $294 forward single #
loop $-1 $295 $296 $117 #
cone-surface $-1 -49.707425517918317 8.3592049707867275 3.9494619652546454 0.66913061440640931 0 -0.74314481823134659 0.18578620455783665 0 0.16728265360160233 1 I I -0.70710678118654746 0.70710678118654746 0.25 forward I I I I #
loop $-1 $-1 $297 $74 #
coedge $-1 $187 $187 $298 $299 reversed $118 $-1 #
face $-1 $300 $301 $45 $-1 $302 reversed single #
loop $-1 $-1 $303 $120 #
plane-surface $-1 0 -25.585804564600942 0 0 1 0 0 0 1 forward_v I I I I #
coedge $-1 $304 $305 $306 $307 forward $121 $-1 #
coedge $-1 $308 $123 $309 $310 forward $76 $-1 #
coedge $-1 $123 $308 $311 $312 forward $76 $-1 #
coedge $-1 $313 $314 $123 $195 reversed $315 $-1 #
edge $-1 $316 -25.585804564600942 $317 25.585804564600942 $194 $318 forward 7 unknown #
face $-1 $319 $320 $46 $-1 $321 reversed single #
loop $-1 $-1 $322 $124 #
plane-surface $-1 0 -29.231547131048746 -4.6445789814352665 0 0 1 1 0 0 forward_v I I I I #
coedge $-1 $323 $324 $201 $325 forward $125 $-1 #
coedge $-1 $326 $127 $327 $328 reversed $79 $-1 #
coedge $-1 $127 $326 $199 $325 reversed $79 $-1 #
coedge $-1 $329 $322 $127 $203 reversed $197 $-1 #
edge $-1 $330 -54.332712790307319 $331 54.332712790307319 $202 $332 forward 7 unknown #
face $-1 $333 $334 $47 $-1 $335 reversed single #
loop $-1 $-1 $336 $128 #
plane-surface $-1 0 28.379015447432046 1.077332553708608 0 0 1 1 0 0 forward_v I I I I #
coedge $-1 $337 $338 $209 $339 forward $129 $-1 #
coedge $-1 $340 $131 $341 $342 reversed $82 $-1 #
coedge $-1 $131 $340 $207 $339 reversed $82 $-1 #
coedge $-1 $336 $343 $131 $211 reversed $205 $-1 #
edge $-1 $344 -54.332712790307319 $345 54.332712790307319 $210 $346 forward 7 unknown #
face $-1 $347 $348 $48 $-1 $349 forward single #
loop $-1 $-1 $350 $132 #
plane-surface $-1 81.018292885259569 -12.766481294827919 153.6066275842455 0 1 0 0.81915205242281985 0 0.57357642473473569 forward_v I I I I #
coedge $-1 $351 $352 $353 $354 reversed $133 $-1 #
coedge $-1 $217 $135 $355 $356 reversed $85 $-1 #
coedge $-1 $135 $216 $351 $357 reversed $85 $-1 #
coedge $-1 $353 $358 $135 $219 forward $348 $-1 #
edge $-1 $359 -13.823566347677534 $360 -9.5276219230731485 $218 $361 forward 7 unknown #
loop $-1 $-1 $225 $136 #
plane-surface $-1 -7.9952135065001073 -8.9662856702868332 91.278701287438068 0.81915205242281985 0 0.57357642473473569 0.57357642473473569 0 -0.81915205242281985 forward_v I I I I #
loop $-1 $-1 $362 $87 #
coedge $-1 $223 $223 $224 $363 reversed $137 $-1 #
coedge $-1 $224 $224 $223 $363 forward $139 $-1 #
coedge $-1 $225 $225 $140 $226 forward $220 $-1 #
edge $-1 $364 0 $364 6.2831853071796004 $225 $365 forward 7 unknown #
face $-1 $366 $367 $50 $-1 $368 reversed single #
loop $-1 $-1 $369 $141 #
plane-surface $-1 81.018292885259569 6.8711534129791518 153.6066275842455 0 1 0 0.81915205242281985 0 0.57357642473473569 forward_v I I I I #
coedge $-1 $370 $371 $372 $373 reversed $142 $-1 #
coedge $-1 $232 $144 $374 $375 reversed $91 $-1 #
coedge $-1 $144 $231 $370 $376 reversed $91 $-1 #
coedge $-1 $372 $377 $144 $234 forward $378 $-1 #
edge $-1 $379 -13.823566347677534 $380 -9.5276219230731485 $233 $381 forward 7 unknown #
loop $-1 $-1 $240 $145 #
plane-surface $-1 -7.9952135065001073 10.671349037520237 91.278701287438068 0.81915205242281985 0 0.57357642473473569 0.57357642473473569 0 -0.81915205242281985 forward_v I I I I #
loop $-1 $-1 $382 $93 #
coedge $-1 $238 $238 $239 $383 reversed $146 $-1 #
coedge $-1 $239 $239 $238 $383 forward $148 $-1 #
coedge $-1 $240 $240 $149 $241 forward $235 $-1 #
edge $-1 $384 0 $384 6.2831853071796004 $240 $385 forward 7 unknown #
face $-1 $386 $387 $52 $-1 $388 reversed single #
loop $-1 $-1 $389 $150 #
plane-surface $-1 -127.04407577379794 0.85253168361670184 83.278429447410375 0 -1 0 0.66913061440640931 0 -0.74314481823134659 forward_v I I I I #
coedge $-1 $390 $391 $392 $393 reversed $151 $-1 #
coedge $-1 $247 $153 $394 $395 reversed $97 $-1 #
coedge $-1 $153 $246 $390 $396 reversed $97 $-1 #
coedge $-1 $392 $397 $153 $249 forward $398 $-1 #
edge $-1 $399 9.1893250965916522 $400 15.715459614643869 $248 $401 forward 7 unknown #
loop $-1 $-1 $255 $154 #
plane-surface $-1 -54.332712790307326 -3.8391391208645658 2.5242815062725867 -0.66913061440640931 0 0.74314481823134659 0.74314481823134659 0 0.66913061440640931 forward_v I I I I #
loop $-1 $-1 $402 $99 #
coedge $-1 $253 $253 $254 $403 reversed $155 $-1 #
coedge $-1 $254 $254 $253 $403 forward $157 $-1 #
coedge $-1 $255 $255 $158 $256 forward $250 $-1 #
edge $-1 $404 0 $404 6.2831853071796004 $255 $405 forward 7 unknown #
loop $-1 $-1 $262 $159 #
plane-surface $-1 -54.332712790307326 -3.8391391208645658 2.5242815062725867 -0.66913061440640931 0 0.74314481823134659 0.74314481823134659 0 0.66913061440640931 forward_v I I I I #
loop $-1 $-1 $406 $102 #
coedge $-1 $260 $260 $261 $407 reversed $160 $-1 #
coedge $-1 $261 $261 $260 $407 forward $162 $-1 #
coedge $-1 $262 $262 $163 $263 forward $257 $-1 #
edge $-1 $408 0 $408 6.2831853071796004 $262 $409 forward 7 unknown #
loop $-1 $-1 $269 $164 #
plane-surface $-1 -54.332712790307326 -3.8391391208645658 2.5242815062725867 -0.66913061440640931 0 0.74314481823134659 0.74314481823134659 0 0.66913061440640931 forward_v I I I I #
loop $-1 $-1 $410 $105 #
coedge $-1 $267 $267 $268 $411 reversed $165 $-1 #
coedge $-1 $268 $268 $267 $411 forward $167 $-1 #
coedge $-1 $269 $269 $168 $270 forward $264 $-1 #
edge $-1 $412 0 $412 6.2831853071796004 $269 $413 forward 7 unknown #
face $-1 $414 $415 $56 $-1 $416 forward single #
loop $-1 $-1 $417 $169 #
plane-surface $-1 0 0 8.4004395479259593 0 0 1 1 0 0 forward_v I I I I #
coedge $-1 $418 $419 $420 $421 reversed $170 $-1 #
coedge $-1 $422 $172 $423 $424 reversed $109 $-1 #
coedge $-1 $172 $422 $417 $425 reversed $109 $-1 #
coedge $-1 $426 $427 $172 $278 forward $415 $-1 #
edge $-1 $428 9.4405131238556439e-015 $429 8.7817802909319216 $277 $430 forward 7 unknown #
loop $-1 $-1 $284 $173 #
plane-surface $-1 -54.332712790307326 -3.8391391208645658 2.5242815062725867 -0.66913061440640931 0 0.74314481823134659 0.74314481823134659 0 0.66913061440640931 forward_v I I I I #
loop $-1 $-1 $431 $111 #
coedge $-1 $282 $282 $283 $432 reversed $174 $-1 #
coedge $-1 $283 $283 $282 $432 forward $176 $-1 #
coedge $-1 $284 $284 $177 $285 forward $279 $-1 #
edge $-1 $433 0 $433 6.2831853071796004 $284 $434 forward 7 unknown #
loop $-1 $-1 $291 $178 #
plane-surface $-1 -54.332712790307326 -3.8391391208645658 2.5242815062725867 -0.66913061440640931 0 0.74314481823134659 0.74314481823134659 0 0.66913061440640931 forward_v I I I I #
loop $-1 $-1 $435 $114 #
coedge $-1 $289 $289 $290 $436 reversed $179 $-1 #
coedge $-1 $290 $290 $289 $436 forward $181 $-1 #
coedge $-1 $291 $291 $182 $292 forward $286 $-1 #
edge $-1 $437 0 $437 6.2831853071796004 $291 $438 forward 7 unknown #
loop $-1 $-1 $298 $183 #
plane-surface $-1 -54.332712790307326 -3.8391391208645658 2.5242815062725867 -0.66913061440640931 0 0.74314481823134659 0.74314481823134659 0 0.66913061440640931 forward_v I I I I #
loop $-1 $-1 $439 $117 #
coedge $-1 $296 $296 $297 $440 reversed $184 $-1 #
coedge $-1 $297 $297 $296 $440 forward $186 $-1 #
coedge $-1 $298 $298 $187 $299 forward $293 $-1 #
edge $-1 $441 0 $441 6.2831853071796004 $298 $442 forward 7 unknown #
face $-1 $443 $444 $45 $-1 $445 reversed single #
loop $-1 $-1 $446 $188 #
plane-surface $-1 -54.332712790307319 0 0 1 0 0 0 0 -1 forward_v I I I I #
coedge $-1 $447 $311 $448 $449 forward $189 $-1 #
coedge $-1 $450 $191 $447 $451 forward $121 $-1 #
coedge $-1 $191 $450 $452 $453 forward $121 $-1 #
coedge $-1 $314 $313 $191 $307 reversed $315 $-1 #
edge $-1 $454 -25.585804564600942 $455 25.585804564600942 $306 $456 forward 7 unknown #
coedge $-1 $193 $192 $457 $458 forward $76 $-1 #
coedge $-1 $459 $460 $192 $310 reversed $444 $-1 #
edge $-1 $317 -54.332712790307319 $461 54.332712790307319 $309 $462 forward 7 unknown #
coedge $-1 $303 $463 $193 $312 reversed $189 $-1 #
edge $-1 $464 -54.332712790307319 $316 54.332712790307319 $311 $465 forward 7 unknown #
coedge $-1 $306 $194 $463 $466 forward $315 $-1 #
coedge $-1 $194 $306 $459 $467 reversed $315 $-1 #
loop $-1 $-1 $313 $443 #
vertex $-1 $195 $468 #
vertex $-1 $195 $469 #
straight-curve $-1 54.332712790307319 0 8.4004395479259593 0 1 0 I I #
face $-1 $470 $471 $46 $-1 $472 reversed single #
loop $-1 $-1 $473 $196 #
plane-surface $-1 0 -29.231547131048746 -7.879185316350938 0 0 1 1 0 0 forward_v I I I I #
coedge $-1 $202 $474 $475 $476 forward $197 $-1 #
coedge $-1 $477 $199 $478 $479 reversed $125 $-1 #
coedge $-1 $199 $477 $329 $480 reversed $125 $-1 #
edge $-1 $330 4.6445789814352665 $481 7.879185316350938 $199 $482 forward 7 unknown #
coedge $-1 $201 $200 $483 $484 forward $79 $-1 #
coedge $-1 $475 $485 $200 $328 forward $486 $-1 #
edge $-1 $487 -7.879185316350938 $331 -4.6445789814352665 $327 $488 forward 7 unknown #
coedge $-1 $474 $202 $324 $480 forward $197 $-1 #
vertex $-1 $325 $489 #
vertex $-1 $476 $490 #
straight-curve $-1 0 -25.585804564600942 -4.6445789814352665 1 0 0 I I #
face $-1 $491 $492 $47 $-1 $493 reversed single #
loop $-1 $-1 $494 $204 #
plane-surface $-1 0 28.379015447432046 -3.0529241490965298 0 0 1 1 0 0 forward_v I I I I #
coedge $-1 $495 $210 $338 $496 forward $205 $-1 #
coedge $-1 $497 $207 $494 $498 reversed $129 $-1 #
coedge $-1 $207 $497 $336 $496 reversed $129 $-1 #
edge $-1 $344 -1.077332553708608 $499 3.0529241490965298 $207 $500 forward 7 unknown #
coedge $-1 $209 $208 $501 $502 forward $82 $-1 #
coedge $-1 $503 $504 $208 $342 forward $505 $-1 #
edge $-1 $506 -3.0529241490965298 $345 1.077332553708608 $341 $507 forward 7 unknown #
coedge $-1 $210 $495 $503 $508 forward $205 $-1 #
vertex $-1 $339 $509 #
vertex $-1 $508 $510 #
straight-curve $-1 0 25.585804564600942 1.077332553708608 -1 0 0 I I #
face $-1 $-1 $511 $48 $-1 $512 reversed single #
loop $-1 $-1 $218 $212 #
plane-surface $-1 0 0 8.4004395479259593 0 0 1 1 0 0 forward_v I I I I #
coedge $-1 $513 $514 $515 $516 reversed $213 $-1 #
coedge $-1 $517 $215 $217 $357 forward $133 $-1 #
coedge $-1 $215 $517 $513 $518 forward $133 $-1 #
coedge $-1 $515 $218 $215 $354 forward $348 $-1 #
edge $-1 $360 0.68294721060233154 $519 8.2833384596845026 $353 $520 forward 7 unknown #
coedge $-1 $521 $522 $216 $356 forward $511 $-1 #
edge $-1 $523 -74.538118896444345 $359 -68.402874244196795 $355 $524 forward 7 unknown #
edge $-1 $360 101.17567488768623 $523 108.66542558061462 $217 $525 forward 7 unknown #
coedge $-1 $218 $515 $521 $526 forward $348 $-1 #
vertex $-1 $356 $527 #
vertex $-1 $219 $528 #
straight-curve $-1 40.509146442629785 -5.1660900457457481 8.4004395479259557 -1 0 0 I I #
coedge $-1 $362 $362 $-1 $529 reversed $222 $-1 #
edge $-1 $530 0 $530 6.2831853071796004 $223 $531 forward 7 unknown #
vertex $-1 $226 $532 #
ellipse-curve $-1 52.184740578005119 -8.9662856702868332 5.3328172218021779 0.81915205242281985 0 0.57357642473473569 0.57357642473473569 0 -0.81915205242281985 1 I I #
face $-1 $-1 $378 $50 $-1 $533 forward single #
loop $-1 $-1 $534 $227 #
plane-surface $-1 54.332712790307319 0 0 -1 0 0 0 0 1 forward_v I I I I #
coedge $-1 $535 $536 $537 $538 reversed $228 $-1 #
coedge $-1 $539 $230 $232 $376 forward $142 $-1 #
coedge $-1 $230 $539 $535 $540 forward $142 $-1 #
coedge $-1 $537 $233 $230 $373 forward $378 $-1 #
edge $-1 $380 -9.1358701433012044 $541 -1.5354788942190334 $372 $542 forward 7 unknown #
coedge $-1 $543 $544 $231 $375 forward $367 $-1 #
edge $-1 $545 -74.538118896444345 $379 -68.402874244196795 $374 $546 forward 7 unknown #
edge $-1 $380 101.17567488768623 $545 108.66542558061462 $232 $547 forward 7 unknown #
coedge $-1 $233 $537 $543 $548 forward $378 $-1 #
loop $-1 $-1 $537 $366 #
vertex $-1 $375 $549 #
vertex $-1 $234 $550 #
straight-curve $-1 40.509146442629785 14.471544662061323 8.4004395479259557 -1 0 0 I I #
coedge $-1 $382 $382 $-1 $551 reversed $237 $-1 #
edge $-1 $552 0 $552 6.2831853071796004 $238 $553 forward 7 unknown #
vertex $-1 $241 $554 #
ellipse-curve $-1 52.184740578005119 10.671349037520237 5.3328172218021779 0.81915205242281985 0 0.57357642473473569 0.57357642473473569 0 -0.81915205242281985 1 I I #
face $-1 $-1 $398 $52 $-1 $555 forward single #
loop $-1 $-1 $556 $242 #
plane-surface $-1 -54.332712790307319 0 0 1 0 0 0 0 -1 forward_v I I I I #
coedge $-1 $557 $558 $559 $560 reversed $243 $-1 #
coedge $-1 $561 $245 $247 $396 forward $151 $-1 #
coedge $-1 $245 $561 $557 $562 forward $151 $-1 #
coedge $-1 $559 $248 $245 $393 forward $398 $-1 #
edge $-1 $400 -6.6112403649135505 $563 2.7721012440489847 $392 $564 forward 7 unknown #
coedge $-1 $565 $566 $246 $395 forward $387 $-1 #
edge $-1 $567 -39.114933217432593 $399 -33.238775175779224 $394 $568 forward 7 unknown #
edge $-1 $400 -8.7817802909319216 $567 -9.4405131238556439e-015 $247 $569 forward 7 unknown #
coedge $-1 $248 $559 $565 $570 forward $398 $-1 #
loop $-1 $-1 $559 $386 #
vertex $-1 $395 $571 #
vertex $-1 $249 $572 #
straight-curve $-1 -63.522037886898971 -8.5308099253458334 8.4004395479259557 1 0 0 I I #
coedge $-1 $402 $402 $-1 $573 reversed $252 $-1 #
edge $-1 $574 0 $574 6.2831853071796004 $253 $575 forward 7 unknown #
vertex $-1 $256 $576 #
ellipse-curve $-1 -51.069645531281211 -6.6541416035533238 5.4623605270992766 -0.66913061440640931 0 0.74314481823134659 0.3715724091156733 0 0.33456530720320465 1 I I #
coedge $-1 $406 $406 $-1 $577 reversed $259 $-1 #
edge $-1 $578 0 $578 6.2831853071796004 $260 $579 forward 7 unknown #
vertex $-1 $263 $580 #
ellipse-curve $-1 -51.069645531281211 -3.8391391208645658 5.4623605270992766 -0.66913061440640931 0 0.74314481823134659 0.3715724091156733 0 0.33456530720320465 1 I I #
coedge $-1 $410 $410 $-1 $581 reversed $266 $-1 #
edge $-1 $582 0 $582 6.2831853071796004 $267 $583 forward 7 unknown #
vertex $-1 $270 $584 #
ellipse-curve $-1 -51.069645531281211 -1.0241366381758041 5.4623605270992766 -0.66913061440640931 0 0.74314481823134659 0.3715724091156733 0 0.33456530720320465 1 I I #
face $-1 $-1 $585 $56 $-1 $586 reversed single #
loop $-1 $-1 $426 $271 #
plane-surface $-1 -127.04407577379794 0.85253168361670184 83.278429447410375 0 -1 0 0.66913061440640931 0 -0.74314481823134659 forward_v I I I I #
coedge $-1 $420 $587 $276 $425 forward $272 $-1 #
coedge $-1 $419 $274 $422 $588 reversed $170 $-1 #
coedge $-1 $274 $418 $589 $590 reversed $170 $-1 #
coedge $-1 $591 $417 $274 $421 forward $272 $-1 #
edge $-1 $592 -15.715459614643869 $593 -9.1893250965916522 $420 $594 forward 7 unknown #
coedge $-1 $276 $275 $418 $588 forward $109 $-1 #
coedge $-1 $595 $589 $275 $424 forward $585 $-1 #
edge $-1 $596 -12.15544285301152 $428 -2.7721012440489847 $423 $597 forward 7 unknown #
edge $-1 $429 2.7721012440489847 $592 12.15544285301152 $417 $598 forward 7 unknown #
coedge $-1 $427 $277 $587 $599 reversed $415 $-1 #
coedge $-1 $277 $426 $595 $600 reversed $415 $-1 #
vertex $-1 $424 $601 #
vertex $-1 $425 $602 #
straight-curve $-1 -54.332712790307326 0.85253168361670184 2.5242815062725867 0.74314481823134659 0 0.66913061440640931 I I #
coedge $-1 $431 $431 $-1 $603 reversed $281 $-1 #
edge $-1 $604 0 $604 6.2831853071796004 $282 $605 forward 7 unknown #
vertex $-1 $285 $606 #
ellipse-curve $-1 -51.069645531281211 2.7292000054092114 5.4623605270992766 -0.66913061440640931 0 0.74314481823134659 0.3715724091156733 0 0.33456530720320465 1 I I #
coedge $-1 $435 $435 $-1 $607 reversed $288 $-1 #
edge $-1 $608 0 $608 6.2831853071796004 $289 $609 forward 7 unknown #
vertex $-1 $292 $610 #
ellipse-curve $-1 -51.069645531281211 5.5442024880979695 5.4623605270992766 -0.66913061440640931 0 0.74314481823134659 0.3715724091156733 0 0.33456530720320465 1 I I #
coedge $-1 $439 $439 $-1 $611 reversed $295 $-1 #
edge $-1 $612 0 $612 6.2831853071796004 $296 $613 forward 7 unknown #
vertex $-1 $299 $614 #
ellipse-curve $-1 -51.069645531281211 8.3592049707867275 5.4623605270992766 -0.66913061440640931 0 0.74314481823134659 0.3715724091156733 0 0.33456530720320465 1 I I #
face $-1 $-1 $315 $45 $-1 $615 reversed single #
loop $-1 $-1 $459 $300 #
plane-surface $-1 0 25.585804564600942 0 0 -1 0 0 0 -1 forward_v I I I I #
coedge $-1 $616 $457 $460 $617 forward $301 $-1 #
coedge $-1 $463 $303 $304 $451 reversed $189 $-1 #
coedge $-1 $457 $616 $303 $449 reversed $301 $-1 #
edge $-1 $464 -8.4004395479259593 $618 8.4004395479259593 $448 $619 forward 7 unknown #
coedge $-1 $305 $304 $616 $620 forward $121 $-1 #
edge $-1 $455 -54.332712790307319 $618 54.332712790307319 $447 $621 forward 7 unknown #
coedge $-1 $460 $459 $305 $453 reversed $444 $-1 #
edge $-1 $622 -54.332712790307319 $454 54.332712790307319 $452 $623 forward 7 unknown #
vertex $-1 $307 $624 #
vertex $-1 $466 $625 #
straight-curve $-1 54.332712790307319 0 -8.4004395479259593 0 -1 0 I I #
coedge $-1 $446 $448 $308 $458 reversed $301 $-1 #
edge $-1 $461 -25.585804564600942 $464 25.585804564600942 $457 $626 forward 7 unknown #
coedge $-1 $452 $309 $314 $467 forward $444 $-1 #
coedge $-1 $309 $452 $446 $617 reversed $444 $-1 #
vertex $-1 $310 $627 #
straight-curve $-1 0 25.585804564600942 8.4004395479259593 -1 0 0 I I #
coedge $-1 $311 $447 $313 $466 reversed $189 $-1 #
vertex $-1 $458 $628 #
straight-curve $-1 0 -25.585804564600942 8.4004395479259593 1 0 0 I I #
edge $-1 $316 -8.4004395479259593 $455 8.4004395479259593 $313 $629 forward 7 unknown #
edge $-1 $317 -8.4004395479259593 $454 8.4004395479259593 $314 $630 forward 7 unknown #
point $-1 54.332712790307319 -25.585804564600942 8.4004395479259593 #
point $-1 54.332712790307319 25.585804564600942 8.4004395479259593 #
face $-1 $-1 $486 $46 $-1 $631 reversed single #
loop $-1 $-1 $632 $319 #
plane-surface $-1 0 -32.877289697496551 -6.2618821488931022 0 1 0 0 0 1 forward_v I I I I #
coedge $-1 $633 $483 $485 $634 forward $320 $-1 #
coedge $-1 $322 $329 $635 $636 forward $197 $-1 #
coedge $-1 $637 $327 $322 $476 reversed $486 $-1 #
edge $-1 $638 -3.6457425664478045 $331 3.6457425664478045 $475 $639 forward 7 unknown #
coedge $-1 $324 $323 $632 $640 reversed $125 $-1 #
coedge $-1 $483 $633 $323 $479 forward $320 $-1 #
edge $-1 $641 -3.6457425664478045 $481 3.6457425664478045 $323 $642 forward 7 unknown #
edge $-1 $330 -3.6457425664478045 $643 3.6457425664478045 $324 $644 forward 7 unknown #
vertex $-1 $325 $645 #
straight-curve $-1 -54.332712790307319 -25.585804564600942 0 0 0 -1 I I #
coedge $-1 $473 $478 $326 $484 reversed $320 $-1 #
edge $-1 $487 -54.332712790307319 $481 54.332712790307319 $483 $646 forward 7 unknown #
coedge $-1 $327 $637 $473 $634 reversed $486 $-1 #
loop $-1 $-1 $327 $470 #
vertex $-1 $328 $647 #
straight-curve $-1 54.332712790307319 -25.585804564600942 0 0 0 1 I I #
point $-1 -54.332712790307319 -25.585804564600942 -4.6445789814352665 #
point $-1 54.332712790307319 -25.585804564600942 -4.6445789814352665 #
face $-1 $-1 $505 $47 $-1 $648 reversed single #
loop $-1 $-1 $649 $333 #
plane-surface $-1 0 31.17222633026315 -0.98779579769396086 0 -1 0 0 0 -1 forward_v I I I I #
coedge $-1 $501 $650 $337 $498 forward $334 $-1 #
coedge $-1 $343 $336 $651 $652 forward $205 $-1 #
edge $-1 $344 -2.7932108828311044 $653 2.7932108828311044 $338 $654 forward 7 unknown #
coedge $-1 $338 $337 $649 $655 reversed $129 $-1 #
edge $-1 $656 -2.7932108828311044 $499 2.7932108828311044 $337 $657 forward 7 unknown #
vertex $-1 $339 $658 #
straight-curve $-1 54.332712790307319 25.585804564600942 0 0 0 -1 I I #
coedge $-1 $659 $494 $340 $502 reversed $334 $-1 #
edge $-1 $506 -54.332712790307319 $499 54.332712790307319 $501 $660 forward 7 unknown #
coedge $-1 $661 $341 $343 $508 reversed $505 $-1 #
coedge $-1 $341 $661 $659 $662 reversed $505 $-1 #
loop $-1 $-1 $341 $491 #
vertex $-1 $342 $663 #
straight-curve $-1 -54.332712790307319 25.585804564600942 0 0 0 1 I I #
edge $-1 $664 -2.7932108828311044 $345 2.7932108828311044 $503 $665 forward 7 unknown #
point $-1 54.332712790307319 25.585804564600942 1.077332553708608 #
point $-1 -54.332712790307319 25.585804564600942 1.077332553708608 #
loop $-1 $-1 $355 $347 #
plane-surface $-1 54.332712790307319 0 0 -1 0 0 0 0 1 forward_v I I I I #
coedge $-1 $514 $350 $352 $518 reversed $213 $-1 #
coedge $-1 $350 $513 $666 $667 reversed $213 $-1 #
coedge $-1 $358 $353 $350 $516 forward $348 $-1 #
edge $-1 $519 9.5276219230731485 $668 13.823566347677534 $515 $669 forward 7 unknown #
coedge $-1 $352 $351 $522 $670 reversed $133 $-1 #
edge $-1 $671 -108.66542558061462 $519 -101.17567488768623 $513 $672 forward 7 unknown #
vertex $-1 $354 $673 #
straight-curve $-1 50.036768365702926 -4.4831428351434166 8.4004395479259628 0 -1 0 I I #
coedge $-1 $666 $355 $358 $526 reversed $511 $-1 #
coedge $-1 $355 $666 $517 $670 forward $511 $-1 #
vertex $-1 $356 $674 #
straight-curve $-1 54.332712790307319 -5.1660900457457481 76.803313792122751 0 0 1 I I #
straight-curve $-1 -7.9952135065001073 -5.1660900457457481 91.278701287438068 0.57357642473473569 0 -0.81915205242281985 I I #
edge $-1 $668 -12.766481294827919 $359 -5.1660900457457481 $521 $675 forward 7 unknown #
point $-1 54.332712790307319 -5.1660900457457481 8.4004395479259593 #
point $-1 50.036768365702933 -5.1660900457457481 8.4004395479259557 #
edge $-1 $676 1 $676 0 $362 $-1 forward 7 unknown #
vertex $-1 $363 $677 #
ellipse-curve $-1 50.016001332673405 -8.9662856702868332 3.8142496996430655 0.81915205242281985 0 0.57357642473473569 0.57357642473473569 0 -0.81915205242281985 1 I I #
point $-1 52.758317002739858 -8.9662856702868332 4.5136651693793644 #
plane-surface $-1 0 0 8.4004395479259593 0 0 1 1 0 0 forward_v I I I I #
coedge $-1 $544 $543 $536 $678 forward $367 $-1 #
coedge $-1 $536 $369 $371 $540 reversed $228 $-1 #
coedge $-1 $369 $535 $534 $678 reversed $228 $-1 #
coedge $-1 $377 $372 $369 $538 forward $378 $-1 #
edge $-1 $541 9.5276219230731485 $679 13.823566347677534 $537 $680 forward 7 unknown #
coedge $-1 $371 $370 $544 $681 reversed $142 $-1 #
edge $-1 $682 -108.66542558061462 $541 -101.17567488768623 $535 $683 forward 7 unknown #
vertex $-1 $373 $684 #
straight-curve $-1 50.036768365702926 5.3356745187601184 8.4004395479259628 0 -1 0 I I #
coedge $-1 $534 $374 $377 $548 reversed $367 $-1 #
coedge $-1 $374 $534 $539 $681 forward $367 $-1 #
vertex $-1 $375 $685 #
straight-curve $-1 54.332712790307319 14.471544662061323 76.803313792122751 0 0 1 I I #
straight-curve $-1 -7.9952135065001073 14.471544662061323 91.278701287438068 0.57357642473473569 0 -0.81915205242281985 I I #
edge $-1 $679 6.8711534129791518 $379 14.471544662061323 $543 $686 forward 7 unknown #
point $-1 54.332712790307319 14.471544662061323 8.4004395479259593 #
point $-1 50.036768365702933 14.471544662061323 8.4004395479259557 #
edge $-1 $687 1 $687 0 $382 $-1 forward 7 unknown #
vertex $-1 $383 $688 #
ellipse-curve $-1 50.016001332673405 10.671349037520237 3.8142496996430655 0.81915205242281985 0 0.57357642473473569 0.57357642473473569 0 -0.81915205242281985 1 I I #
point $-1 52.758317002739858 10.671349037520237 4.5136651693793644 #
plane-surface $-1 0 0 8.4004395479259593 0 0 1 1 0 0 forward_v I I I I #
coedge $-1 $566 $565 $558 $689 forward $387 $-1 #
coedge $-1 $558 $389 $391 $562 reversed $243 $-1 #
coedge $-1 $389 $557 $556 $689 reversed $243 $-1 #
coedge $-1 $397 $392 $389 $560 forward $398 $-1 #
edge $-1 $563 -15.715459614643869 $690 -9.1893250965916522 $559 $691 forward 7 unknown #
coedge $-1 $391 $390 $566 $692 reversed $151 $-1 #
edge $-1 $693 9.4405131238556439e-015 $563 8.7817802909319216 $557 $694 forward 7 unknown #
vertex $-1 $393 $695 #
straight-curve $-1 -47.806578272255102 -1.9195695604322829 8.4004395479259575 0 1 0 I I #
coedge $-1 $556 $394 $397 $570 reversed $387 $-1 #
coedge $-1 $394 $556 $561 $692 forward $387 $-1 #
vertex $-1 $395 $696 #
straight-curve $-1 -54.332712790307319 -8.5308099253458334 41.639214723705187 0 0 1 I I #
straight-curve $-1 -54.332712790307326 -8.5308099253458334 2.5242815062725867 -0.74314481823134659 0 -0.66913061440640931 I I #
edge $-1 $690 -0.85253168361670184 $399 8.5308099253458334 $565 $697 forward 7 unknown #
point $-1 -54.332712790307319 -8.5308099253458334 8.4004395479259593 #
point $-1 -47.806578272255102 -8.5308099253458334 8.4004395479259593 #
edge $-1 $698 1 $698 0 $402 $-1 forward 7 unknown #
vertex $-1 $403 $699 #
ellipse-curve $-1 -49.87470817151992 -6.6541416035533238 4.1352481698124821 -0.66913061440640931 0 0.74314481823134659 0.3715724091156733 0 0.33456530720320465 1 I I #
point $-1 -50.698073122165539 -6.6541416035533238 5.7969258343024794 #
edge $-1 $700 1 $700 0 $406 $-1 forward 7 unknown #
vertex $-1 $407 $701 #
ellipse-curve $-1 -49.87470817151992 -3.8391391208645658 4.1352481698124821 -0.66913061440640931 0 0.74314481823134659 0.3715724091156733 0 0.33456530720320465 1 I I #
point $-1 -50.698073122165539 -3.8391391208645658 5.7969258343024794 #
edge $-1 $702 1 $702 0 $410 $-1 forward 7 unknown #
vertex $-1 $411 $703 #
ellipse-curve $-1 -49.87470817151992 -1.0241366381758041 4.1352481698124821 -0.66913061440640931 0 0.74314481823134659 0.3715724091156733 0 0.33456530720320465 1 I I #
point $-1 -50.698073122165539 -1.0241366381758041 5.7969258343024794 #
loop $-1 $-1 $423 $414 #
plane-surface $-1 -54.332712790307319 0 0 1 0 0 0 0 -1 forward_v I I I I #
coedge $-1 $417 $591 $426 $599 forward $272 $-1 #
edge $-1 $596 9.4405131238556439e-015 $592 8.7817802909319216 $418 $704 forward 7 unknown #
coedge $-1 $423 $705 $419 $590 forward $585 $-1 #
edge $-1 $593 33.238775175779224 $596 39.114933217432593 $589 $706 forward 7 unknown #
coedge $-1 $587 $420 $705 $707 forward $272 $-1 #
vertex $-1 $421 $708 #
vertex $-1 $707 $709 #
straight-curve $-1 -63.522037886898971 10.235873292579237 8.4004395479259557 -1 0 0 I I #
coedge $-1 $705 $423 $427 $600 forward $585 $-1 #
vertex $-1 $590 $710 #
straight-curve $-1 -54.332712790307319 -1.9195695604322829 2.5242815062725965 0 -1 0 I I #
straight-curve $-1 -47.806578272255102 -1.9195695604322829 8.4004395479259575 0 1 0 I I #
edge $-1 $711 9.1893250965916522 $429 15.715459614643869 $587 $712 forward 7 unknown #
edge $-1 $428 -39.114933217432593 $711 -33.238775175779224 $595 $713 forward 7 unknown #
point $-1 -54.332712790307319 0.85253168361670184 2.524281506272593 #
point $-1 -47.806578272255102 0.85253168361670184 8.4004395479259593 #
edge $-1 $714 1 $714 0 $431 $-1 forward 7 unknown #
vertex $-1 $432 $715 #
ellipse-curve $-1 -49.87470817151992 2.7292000054092114 4.1352481698124821 -0.66913061440640931 0 0.74314481823134659 0.3715724091156733 0 0.33456530720320465 1 I I #
point $-1 -50.698073122165539 2.7292000054092114 5.7969258343024794 #
edge $-1 $716 1 $716 0 $435 $-1 forward 7 unknown #
vertex $-1 $436 $717 #
ellipse-curve $-1 -49.87470817151992 5.5442024880979695 4.1352481698124821 -0.66913061440640931 0 0.74314481823134659 0.3715724091156733 0 0.33456530720320465 1 I I #
point $-1 -50.698073122165539 5.5442024880979695 5.7969258343024794 #
edge $-1 $718 1 $718 0 $439 $-1 forward 7 unknown #
vertex $-1 $440 $719 #
ellipse-curve $-1 -49.87470817151992 8.3592049707867275 4.1352481698124821 -0.66913061440640931 0 0.74314481823134659 0.3715724091156733 0 0.33456530720320465 1 I I #
point $-1 -50.698073122165539 8.3592049707867275 5.7969258343024794 #
plane-surface $-1 54.332712790307319 0 0 -1 0 0 0 0 1 forward_v I I I I #
coedge $-1 $448 $446 $450 $620 reversed $301 $-1 #
edge $-1 $461 -8.4004395479259593 $622 8.4004395479259593 $460 $720 forward 7 unknown #
vertex $-1 $620 $721 #
straight-curve $-1 -54.332712790307319 -25.585804564600942 0 0 0 -1 I I #
edge $-1 $618 -25.585804564600942 $622 25.585804564600942 $616 $722 forward 7 unknown #
straight-curve $-1 0 -25.585804564600942 -8.4004395479259593 -1 0 0 I I #
vertex $-1 $453 $723 #
straight-curve $-1 0 25.585804564600942 -8.4004395479259593 1 0 0 I I #
point $-1 54.332712790307319 25.585804564600942 -8.4004395479259593 #
point $-1 54.332712790307319 -25.585804564600942 -8.4004395479259593 #
straight-curve $-1 -54.332712790307319 0 8.4004395479259593 0 -1 0 I I #
point $-1 -54.332712790307319 25.585804564600942 8.4004395479259593 #
point $-1 -54.332712790307319 -25.585804564600942 8.4004395479259593 #
straight-curve $-1 54.332712790307319 -25.585804564600942 0 0 0 -1 I I #
straight-curve $-1 54.332712790307319 25.585804564600942 0 0 0 -1 I I #
plane-surface $-1 54.332712790307319 0 0 -1 0 0 0 0 1 forward_v I I I I #
coedge $-1 $724 $635 $477 $640 forward $471 $-1 #
coedge $-1 $478 $473 $724 $725 forward $320 $-1 #
edge $-1 $487 -3.6457425664478045 $726 3.6457425664478045 $485 $727 forward 7 unknown #
coedge $-1 $632 $728 $474 $636 reversed $471 $-1 #
edge $-1 $643 -54.332712790307319 $638 54.332712790307319 $635 $729 forward 7 unknown #
coedge $-1 $485 $475 $728 $730 forward $486 $-1 #
vertex $-1 $476 $731 #
straight-curve $-1 54.332712790307319 -29.231547131048746 -4.6445789814352665 0 1 0 I I #
edge $-1 $643 -1.6173031674578358 $641 1.6173031674578358 $477 $732 forward 7 unknown #
vertex $-1 $479 $733 #
straight-curve $-1 -54.332712790307319 -29.231547131048746 -7.879185316350938 0 1 0 I I #
vertex $-1 $480 $734 #
straight-curve $-1 -54.332712790307319 -29.231547131048746 -4.6445789814352665 0 -1 0 I I #
point $-1 -54.332712790307319 -25.585804564600942 -7.879185316350938 #
straight-curve $-1 0 -25.585804564600942 -7.879185316350938 -1 0 0 I I #
point $-1 54.332712790307319 -25.585804564600942 -7.879185316350938 #
plane-surface $-1 -54.332712790307319 0 0 1 0 0 0 0 -1 forward_v I I I I #
coedge $-1 $735 $651 $497 $655 forward $492 $-1 #
coedge $-1 $494 $659 $735 $736 forward $334 $-1 #
coedge $-1 $649 $737 $495 $652 reversed $492 $-1 #
edge $-1 $653 -54.332712790307319 $664 54.332712790307319 $651 $738 forward 7 unknown #
vertex $-1 $496 $739 #
straight-curve $-1 54.332712790307319 28.379015447432046 1.077332553708608 0 1 0 I I #
edge $-1 $653 -2.0651283514025689 $656 2.0651283514025689 $497 $740 forward 7 unknown #
vertex $-1 $498 $741 #
straight-curve $-1 54.332712790307319 28.379015447432046 -3.0529241490965298 0 -1 0 I I #
point $-1 54.332712790307319 25.585804564600942 -3.0529241490965298 #
coedge $-1 $650 $501 $504 $662 forward $334 $-1 #
straight-curve $-1 0 25.585804564600942 -3.0529241490965298 1 0 0 I I #
coedge $-1 $504 $503 $737 $742 forward $505 $-1 #
edge $-1 $506 -2.7932108828311044 $743 2.7932108828311044 $504 $744 forward 7 unknown #
point $-1 -54.332712790307319 25.585804564600942 -3.0529241490965298 #
vertex $-1 $652 $745 #
straight-curve $-1 -54.332712790307319 28.379015447432046 1.077332553708608 0 -1 0 I I #
coedge $-1 $522 $521 $514 $667 forward $511 $-1 #
edge $-1 $668 68.402874244196795 $671 74.538118896444345 $666 $746 forward 7 unknown #
vertex $-1 $526 $747 #
straight-curve $-1 40.509146442629785 -12.766481294827919 8.4004395479259557 1 0 0 I I #
edge $-1 $671 -8.2833384596845026 $523 -0.68294721060233154 $522 $748 forward 7 unknown #
vertex $-1 $670 $749 #
straight-curve $-1 -7.9952135065001073 -12.766481294827919 91.278701287438068 -0.57357642473473569 0 0.81915205242281985 I I #
point $-1 50.036768365702933 -12.766481294827919 8.4004395479259557 #
point $-1 54.332712790307319 -5.1660900457457481 2.2651948956784054 #
straight-curve $-1 54.332712790307319 0 8.4004395479259593 0 1 0 I I #
vertex $-1 $529 $750 #
point $-1 50.589577757408136 -8.9662856702868332 2.9950976472202457 #
edge $-1 $679 68.402874244196795 $682 74.538118896444345 $534 $751 forward 7 unknown #
vertex $-1 $548 $752 #
straight-curve $-1 40.509146442629785 6.8711534129791518 8.4004395479259557 1 0 0 I I #
edge $-1 $682 1.5354788942190334 $545 9.1358701433012044 $544 $753 forward 7 unknown #
vertex $-1 $681 $754 #
straight-curve $-1 -7.9952135065001073 6.8711534129791518 91.278701287438068 -0.57357642473473569 0 0.81915205242281985 I I #
point $-1 50.036768365702933 6.8711534129791518 8.4004395479259557 #
point $-1 54.332712790307319 14.471544662061323 2.2651948956784054 #
straight-curve $-1 54.332712790307319 0 8.4004395479259593 0 1 0 I I #
vertex $-1 $551 $755 #
point $-1 50.589577757408136 10.671349037520237 2.9950976472202457 #
edge $-1 $690 33.238775175779224 $693 39.114933217432593 $556 $756 forward 7 unknown #
vertex $-1 $570 $757 #
straight-curve $-1 -63.522037886898971 0.85253168361670184 8.4004395479259557 -1 0 0 I I #
edge $-1 $693 -2.7721012440489847 $567 6.6112403649135505 $566 $758 forward 7 unknown #
vertex $-1 $692 $759 #
straight-curve $-1 -54.332712790307326 0.85253168361670184 2.5242815062725867 0.74314481823134659 0 0.66913061440640931 I I #
point $-1 -47.806578272255102 0.85253168361670184 8.4004395479259593 #
point $-1 -54.332712790307319 -8.5308099253458334 2.524281506272593 #
straight-curve $-1 -54.332712790307319 0 8.4004395479259593 0 -1 0 I I #
vertex $-1 $573 $760 #
point $-1 -49.503135762404249 -6.6541416035533238 4.4698134770156868 #
vertex $-1 $577 $761 #
point $-1 -49.503135762404249 -3.8391391208645658 4.4698134770156868 #
vertex $-1 $581 $762 #
point $-1 -49.503135762404249 -1.0241366381758041 4.4698134770156868 #
straight-curve $-1 -54.332712790307326 10.235873292579237 2.5242815062725867 0.74314481823134659 0 0.66913061440640931 I I #
coedge $-1 $589 $595 $591 $707 reversed $585 $-1 #
straight-curve $-1 -54.332712790307319 10.235873292579237 41.639214723705187 0 0 -1 I I #
edge $-1 $593 -10.235873292579237 $711 -0.85253168361670184 $705 $763 forward 7 unknown #
point $-1 -47.806578272255102 10.235873292579237 8.4004395479259593 #
point $-1 -54.332712790307319 10.235873292579237 8.4004395479259593 #
point $-1 -54.332712790307319 10.235873292579237 2.524281506272593 #
vertex $-1 $600 $764 #
straight-curve $-1 -63.522037886898971 0.85253168361670184 8.4004395479259557 1 0 0 I I #
straight-curve $-1 -54.332712790307319 0.85253168361670184 41.639214723705187 0 0 1 I I #
vertex $-1 $603 $765 #
point $-1 -49.503135762404249 2.7292000054092114 4.4698134770156868 #
vertex $-1 $607 $766 #
point $-1 -49.503135762404249 5.5442024880979695 4.4698134770156868 #
vertex $-1 $611 $767 #
point $-1 -49.503135762404249 8.3592049707867275 4.4698134770156868 #
straight-curve $-1 -54.332712790307319 25.585804564600942 0 0 0 -1 I I #
point $-1 -54.332712790307319 -25.585804564600942 -8.4004395479259593 #
straight-curve $-1 -54.332712790307319 0 -8.4004395479259593 0 1 0 I I #
point $-1 -54.332712790307319 25.585804564600942 -8.4004395479259593 #
coedge $-1 $728 $632 $633 $725 reversed $471 $-1 #
edge $-1 $726 -54.332712790307319 $641 54.332712790307319 $724 $768 forward 7 unknown #
vertex $-1 $730 $769 #
straight-curve $-1 54.332712790307319 -29.231547131048746 -7.879185316350938 0 -1 0 I I #
coedge $-1 $635 $724 $637 $730 reversed $471 $-1 #
straight-curve $-1 0 -32.877289697496551 -4.6445789814352665 1 0 0 I I #
edge $-1 $638 -1.6173031674578358 $726 1.6173031674578358 $637 $770 forward 7 unknown #
point $-1 54.332712790307319 -32.877289697496551 -4.6445789814352665 #
straight-curve $-1 -54.332712790307319 -32.877289697496551 -6.2618821488931022 0 0 -1 I I #
point $-1 -54.332712790307319 -32.877289697496551 -7.879185316350938 #
point $-1 -54.332712790307319 -32.877289697496551 -4.6445789814352665 #
coedge $-1 $737 $649 $650 $736 reversed $492 $-1 #
edge $-1 $743 -54.332712790307319 $656 54.332712790307319 $735 $771 forward 7 unknown #
coedge $-1 $651 $735 $661 $742 reversed $492 $-1 #
straight-curve $-1 0 31.17222633026315 1.077332553708608 -1 0 0 I I #
point $-1 54.332712790307319 31.17222633026315 1.077332553708608 #
straight-curve $-1 54.332712790307319 31.17222633026315 -0.98779579769396086 0 0 -1 I I #
point $-1 54.332712790307319 31.17222633026315 -3.0529241490965298 #
edge $-1 $664 -2.0651283514025689 $743 2.0651283514025689 $737 $772 forward 7 unknown #
vertex $-1 $736 $773 #
straight-curve $-1 -54.332712790307319 28.379015447432046 -3.0529241490965298 0 1 0 I I #
point $-1 -54.332712790307319 31.17222633026315 1.077332553708608 #
straight-curve $-1 54.332712790307319 -12.766481294827919 76.803313792122751 0 0 -1 I I #
point $-1 54.332712790307319 -12.766481294827919 8.4004395479259593 #
straight-curve $-1 54.332712790307326 -4.4831428351434166 2.2651948956783983 0 1 0 I I #
point $-1 54.332712790307319 -12.766481294827919 2.2651948956784054 #
point $-1 49.196849280250582 -8.9662856702868332 3.24067327490833 #
straight-curve $-1 54.332712790307319 6.8711534129791518 76.803313792122751 0 0 -1 I I #
point $-1 54.332712790307319 6.8711534129791518 8.4004395479259593 #
straight-curve $-1 54.332712790307326 5.3356745187601184 2.2651948956783983 0 1 0 I I #
point $-1 54.332712790307319 6.8711534129791518 2.2651948956784054 #
point $-1 49.196849280250582 10.671349037520237 3.24067327490833 #
straight-curve $-1 -54.332712790307319 0.85253168361670184 41.639214723705187 0 0 -1 I I #
point $-1 -54.332712790307319 0.85253168361670184 8.4004395479259593 #
straight-curve $-1 -54.332712790307319 -1.9195695604322829 2.5242815062725965 0 -1 0 I I #
point $-1 -54.332712790307319 0.85253168361670184 2.524281506272593 #
point $-1 -49.540142864316714 -6.6541416035533238 3.7636757606968088 #
point $-1 -49.540142864316714 -3.8391391208645658 3.7636757606968088 #
point $-1 -49.540142864316714 -1.0241366381758041 3.7636757606968088 #
straight-curve $-1 -54.332712790307319 0 8.4004395479259593 0 -1 0 I I #
point $-1 -54.332712790307319 0.85253168361670184 8.4004395479259593 #
point $-1 -49.540142864316714 2.7292000054092114 3.7636757606968088 #
point $-1 -49.540142864316714 5.5442024880979695 3.7636757606968088 #
point $-1 -49.540142864316714 8.3592049707867275 3.7636757606968088 #
straight-curve $-1 0 -32.877289697496551 -7.879185316350938 -1 0 0 I I #
point $-1 54.332712790307319 -32.877289697496551 -7.879185316350938 #
straight-curve $-1 54.332712790307319 -32.877289697496551 -6.2618821488931022 0 0 -1 I I #
straight-curve $-1 0 31.17222633026315 -3.0529241490965298 1 0 0 I I #
straight-curve $-1 -54.332712790307319 31.17222633026315 -0.98779579769396086 0 0 -1 I I #
point $-1 -54.332712790307319 31.17222633026315 -3.0529241490965298 #
End-of-ACIS-data 