500 0 11 0           
7 Unknown 11 ACIS 5.0 NT 24 Fri Mar 26 03:22:24 1999 
-1 9.9999999999999995e-007 1e-010 
body $-1 $11 $-1 $12 #
body $-1 $13 $-1 $14 #
body $-1 $15 $-1 $16 #
body $-1 $17 $-1 $18 #
body $-1 $19 $-1 $20 #
body $-1 $21 $-1 $22 #
body $-1 $23 $-1 $24 #
body $-1 $25 $-1 $26 #
body $-1 $27 $-1 $28 #
body $-1 $29 $-1 $30 #
body $-1 $31 $-1 $32 #
lump $-1 $-1 $33 $0 #
transform $-1 1 0 0 0 1 0 0 0 1 47.657704397717218 31.46583679468775 7.7699019950919386 1 rotate no_reflect no_shear #
lump $-1 $-1 $34 $1 #
transform $-1 1 0 0 0 1 0 0 0 1 47.657704397717218 31.46583679468775 7.7699019950919386 1 rotate no_reflect no_shear #
lump $-1 $-1 $35 $2 #
transform $-1 1 0 0 0 1 0 0 0 1 47.657704397717218 31.46583679468775 7.7699019950919386 1 rotate no_reflect no_shear #
lump $-1 $-1 $36 $3 #
transform $-1 1 0 0 0 1 0 0 0 1 47.657704397717218 31.46583679468775 7.7699019950919386 1 rotate no_reflect no_shear #
lump $-1 $-1 $37 $4 #
transform $-1 1 0 0 0 1 0 0 0 1 47.657704397717218 31.46583679468775 7.7699019950919386 1 rotate no_reflect no_shear #
lump $-1 $-1 $38 $5 #
transform $-1 1 0 0 0 1 0 0 0 1 47.657704397717218 31.46583679468775 7.7699019950919386 1 rotate no_reflect no_shear #
lump $-1 $-1 $39 $6 #
transform $-1 1 0 0 0 1 0 0 0 1 47.657704397717218 31.46583679468775 7.7699019950919386 1 rotate no_reflect no_shear #
lump $-1 $-1 $40 $7 #
transform $-1 1 0 0 0 1 0 0 0 1 47.657704397717218 31.46583679468775 7.7699019950919386 1 rotate no_reflect no_shear #
lump $-1 $-1 $41 $8 #
transform $-1 1 0 0 0 1 0 0 0 1 47.657704397717218 31.46583679468775 7.7699019950919386 1 rotate no_reflect no_shear #
lump $-1 $-1 $42 $9 #
transform $-1 1 0 0 0 1 0 0 0 1 47.657704397717218 31.46583679468775 7.7699019950919386 1 rotate no_reflect no_shear #
lump $-1 $-1 $43 $10 #
transform $-1 1 0 0 0 1 0 0 0 1 47.657704397717218 31.46583679468775 7.7699019950919386 1 rotate no_reflect no_shear #
shell $-1 $-1 $-1 $44 $-1 $11 #
shell $-1 $-1 $-1 $45 $-1 $13 #
shell $-1 $-1 $-1 $46 $-1 $15 #
shell $-1 $-1 $-1 $47 $-1 $17 #
shell $-1 $-1 $-1 $48 $-1 $19 #
shell $-1 $-1 $-1 $49 $-1 $21 #
shell $-1 $-1 $-1 $50 $-1 $23 #
shell $-1 $-1 $-1 $51 $-1 $25 #
shell $-1 $-1 $-1 $52 $-1 $27 #
shell $-1 $-1 $-1 $53 $-1 $29 #
shell $-1 $-1 $-1 $54 $-1 $31 #
face $-1 $55 $56 $33 $-1 $57 forward single #
face $-1 $58 $59 $34 $-1 $60 forward single #
face $-1 $61 $62 $35 $-1 $63 forward single #
face $-1 $64 $65 $36 $-1 $66 reversed single #
face $-1 $67 $68 $37 $-1 $69 forward single #
face $-1 $70 $71 $38 $-1 $72 forward single #
face $-1 $73 $74 $39 $-1 $75 reversed single #
face $-1 $76 $77 $40 $-1 $78 forward single #
face $-1 $79 $80 $41 $-1 $81 forward single #
face $-1 $82 $83 $42 $-1 $84 reversed single #
face $-1 $85 $86 $43 $-1 $87 forward single #
face $-1 $88 $89 $33 $-1 $90 reversed single #
loop $-1 $-1 $91 $44 #
plane-surface $-1 0 0 7.7699019950919386 0 0 1 1 0 0 forward_v I I I I #
face $-1 $92 $93 $34 $-1 $94 reversed single #
loop $-1 $-1 $95 $45 #
plane-surface $-1 0 -27.356927566687222 -2.9695302600600368 0 0 1 1 0 0 forward_v I I I I #
face $-1 $96 $97 $35 $-1 $98 reversed single #
loop $-1 $-1 $99 $46 #
plane-surface $-1 0 27.170062929454271 6.0175364300096312 0 0 1 1 0 0 forward_v I I I I #
face $-1 $100 $101 $36 $-1 $102 reversed single #
loop $-1 $-1 $103 $47 #
plane-surface $-1 -117.366982229347 -12.519587906432324 65.659726848387621 0 -1 0 0.73135370988377701 0 -0.68199835119979291 forward_v I I I I #
face $-1 $104 $105 $37 $-1 $106 forward single #
loop $-1 $107 $108 $48 #
cone-surface $-1 -43.974546088055035 -17.471038306654535 3.8713394249296167 0.73135370988377701 0 -0.68199835119979291 0.17049958779994823 0 0.18283842747094425 1 I I 0 1 0.25 forward I I I I #
face $-1 $109 $110 $38 $-1 $111 forward single #
loop $-1 $112 $113 $49 #
cone-surface $-1 -43.974546088055035 -14.500168066521208 3.8713394249296167 0.73135370988377701 0 -0.68199835119979291 0.17049958779994823 0 0.18283842747094425 1 I I 0 1 0.25 forward I I I I #
face $-1 $114 $115 $39 $-1 $116 reversed single #
loop $-1 $-1 $117 $50 #
plane-surface $-1 -117.366982229347 10.541565795021413 65.659726848387621 0 -1 0 0.73135370988377701 0 -0.68199835119979291 forward_v I I I I #
face $-1 $118 $119 $40 $-1 $120 forward single #
loop $-1 $121 $122 $51 #
cone-surface $-1 -43.974546088055035 5.5901153947992022 3.8713394249296167 0.73135370988377701 0 -0.68199835119979291 0.17049958779994823 0 0.18283842747094425 1 I I 0 1 0.25 forward I I I I #
face $-1 $123 $124 $41 $-1 $125 forward single #
loop $-1 $126 $127 $52 #
cone-surface $-1 -43.974546088055035 8.560985634932532 3.8713394249296167 0.73135370988377701 0 -0.68199835119979291 0.17049958779994823 0 0.18283842747094425 1 I I 0 1 0.25 forward I I I I #
face $-1 $128 $129 $42 $-1 $130 reversed single #
loop $-1 $-1 $131 $53 #
plane-surface $-1 45.305185348075646 -23.248018338686698 138.01780984656565 0 1 0 0.69465837861970381 0 0.71933979245794832 forward_v I I I I #
face $-1 $132 $133 $43 $-1 $134 forward single #
loop $-1 $135 $136 $54 #
cone-surface $-1 44.480239786674993 -19.435218921204648 4.6432769712975785 -0.69465837861970381 0 -0.71933979245794832 0.71933979245794832 0 -0.69465837861970381 1 I I 0 1 1 forward I I I I #
face $-1 $137 $138 $33 $-1 $139 reversed single #
loop $-1 $-1 $140 $55 #
plane-surface $-1 0 0 -7.7699019950919386 0 0 1 1 0 0 forward_v I I I I #
coedge $-1 $141 $142 $143 $144 forward $56 $-1 #
face $-1 $145 $146 $34 $-1 $147 reversed single #
loop $-1 $-1 $148 $58 #
plane-surface $-1 0 -27.356927566687222 -7.2699019950919386 0 0 1 1 0 0 forward_v I I I I #
coedge $-1 $149 $150 $151 $152 reversed $59 $-1 #
face $-1 $153 $154 $35 $-1 $155 reversed single #
loop $-1 $-1 $156 $61 #
plane-surface $-1 0 27.170062929454271 3.0175364300096312 0 0 1 1 0 0 forward_v I I I I #
coedge $-1 $157 $158 $159 $160 reversed $62 $-1 #
face $-1 $161 $162 $36 $-1 $163 reversed single #
loop $-1 $-1 $164 $64 #
plane-surface $-1 -47.657704397717225 -15.985603186587873 0.65477520596708416 -0.73135370988377701 0 0.68199835119979291 0.68199835119979291 0 0.73135370988377701 forward_v I I I I #
coedge $-1 $165 $166 $167 $168 reversed $65 $-1 #
face $-1 $-1 $169 $37 $-1 $170 forward single #
loop $-1 $171 $172 $67 #
cone-surface $-1 -43.517450019377677 -17.471038306654535 3.4450904554297459 0.73135370988377701 0 -0.68199835119979291 0.085249793899974113 0 0.091419213735472127 1 I I -0.70710678118654746 0.70710678118654746 0.125 forward I I I I #
loop $-1 $-1 $173 $48 #
coedge $-1 $108 $108 $174 $175 reversed $68 $-1 #
face $-1 $-1 $176 $38 $-1 $177 forward single #
loop $-1 $178 $179 $70 #
cone-surface $-1 -43.517450019377677 -14.500168066521208 3.4450904554297459 0.73135370988377701 0 -0.68199835119979291 0.085249793899974113 0 0.091419213735472127 1 I I -0.70710678118654746 0.70710678118654746 0.125 forward I I I I #
loop $-1 $-1 $180 $49 #
coedge $-1 $113 $113 $181 $182 reversed $71 $-1 #
face $-1 $183 $184 $39 $-1 $185 reversed single #
loop $-1 $-1 $186 $73 #
plane-surface $-1 -47.657704397717225 7.0755505148658635 0.65477520596708416 -0.73135370988377701 0 0.68199835119979291 0.68199835119979291 0 0.73135370988377701 forward_v I I I I #
coedge $-1 $187 $188 $189 $190 reversed $74 $-1 #
face $-1 $-1 $191 $40 $-1 $192 forward single #
loop $-1 $193 $194 $76 #
cone-surface $-1 -43.517450019377677 5.5901153947992022 3.4450904554297459 0.73135370988377701 0 -0.68199835119979291 0.085249793899974113 0 0.091419213735472127 1 I I -0.70710678118654746 0.70710678118654746 0.125 forward I I I I #
loop $-1 $-1 $195 $51 #
coedge $-1 $122 $122 $196 $197 reversed $77 $-1 #
face $-1 $-1 $198 $41 $-1 $199 forward single #
loop $-1 $200 $201 $79 #
cone-surface $-1 -43.517450019377677 8.560985634932532 3.4450904554297459 0.73135370988377701 0 -0.68199835119979291 0.085249793899974113 0 0.091419213735472127 1 I I -0.70710678118654746 0.70710678118654746 0.125 forward I I I I #
loop $-1 $-1 $202 $52 #
coedge $-1 $127 $127 $203 $204 reversed $80 $-1 #
face $-1 $205 $206 $42 $-1 $207 reversed single #
loop $-1 $-1 $208 $82 #
plane-surface $-1 -20.906461983235097 -19.435218921204648 69.453643465613339 0.69465837861970381 0 0.71933979245794832 0.71933979245794832 0 -0.69465837861970381 forward_v I I I I #
coedge $-1 $209 $210 $211 $212 reversed $83 $-1 #
face $-1 $-1 $213 $43 $-1 $214 forward single #
loop $-1 $215 $216 $85 #
cone-surface $-1 43.29983782151627 -19.435218921204648 3.4209349816689176 -0.69465837861970381 0 -0.71933979245794832 0.35966989622897416 0 -0.3473291893098519 1 I I -0.70710678118654724 0.70710678118654791 0.5 forward I I I I #
loop $-1 $-1 $217 $54 #
coedge $-1 $136 $136 $218 $219 reversed $86 $-1 #
face $-1 $220 $221 $33 $-1 $222 reversed single #
loop $-1 $-1 $223 $88 #
plane-surface $-1 0 -31.46583679468775 0 0 1 0 0 0 1 forward_v I I I I #
coedge $-1 $224 $225 $226 $227 forward $89 $-1 #
coedge $-1 $228 $91 $229 $230 forward $56 $-1 #
coedge $-1 $91 $228 $231 $232 forward $56 $-1 #
coedge $-1 $233 $234 $91 $144 reversed $235 $-1 #
edge $-1 $236 -31.46583679468775 $237 31.46583679468775 $143 $238 forward 7 unknown #
face $-1 $239 $240 $34 $-1 $241 reversed single #
loop $-1 $-1 $242 $92 #
plane-surface $-1 0 -23.248018338686695 -5.1197161275759875 0 -1 0 0 0 -1 forward_v I I I I #
coedge $-1 $243 $244 $245 $246 reversed $93 $-1 #
coedge $-1 $247 $95 $248 $249 forward $59 $-1 #
coedge $-1 $95 $247 $250 $251 reversed $59 $-1 #
coedge $-1 $252 $253 $95 $152 forward $254 $-1 #
edge $-1 $255 9.5695545553430836 $256 17.787373011344137 $151 $257 forward 7 unknown #
face $-1 $258 $259 $35 $-1 $260 reversed single #
loop $-1 $-1 $261 $96 #
plane-surface $-1 0 22.87428906422079 4.5175364300096312 0 1 0 0 0 1 forward_v I I I I #
coedge $-1 $262 $263 $264 $265 reversed $97 $-1 #
coedge $-1 $266 $99 $267 $268 reversed $62 $-1 #
coedge $-1 $99 $266 $269 $270 forward $62 $-1 #
coedge $-1 $271 $272 $99 $160 forward $259 $-1 #
edge $-1 $273 -17.880805329960616 $274 -9.2892575994936539 $159 $275 forward 7 unknown #
face $-1 $276 $277 $36 $-1 $278 reversed single #
loop $-1 $-1 $279 $100 #
plane-surface $-1 -117.366982229347 -19.451618466743422 65.659726848387621 0 1 0 -0.73135370988377701 0 0.68199835119979291 forward_v I I I I #
coedge $-1 $280 $281 $282 $283 reversed $101 $-1 #
coedge $-1 $166 $103 $284 $285 reversed $65 $-1 #
coedge $-1 $103 $165 $280 $286 reversed $65 $-1 #
coedge $-1 $282 $287 $103 $168 forward $277 $-1 #
edge $-1 $288 25.059961429101872 $289 32.175088218226719 $167 $290 forward 7 unknown #
loop $-1 $-1 $174 $104 #
plane-surface $-1 -47.657704397717225 -15.985603186587873 0.65477520596708416 -0.73135370988377701 0 0.68199835119979291 0.68199835119979291 0 0.73135370988377701 forward_v I I I I #
loop $-1 $-1 $291 $67 #
coedge $-1 $172 $172 $173 $292 reversed $105 $-1 #
coedge $-1 $173 $173 $172 $292 forward $107 $-1 #
coedge $-1 $174 $174 $108 $175 forward $169 $-1 #
edge $-1 $293 0 $293 6.2831853071796004 $174 $294 forward 7 unknown #
loop $-1 $-1 $181 $109 #
plane-surface $-1 -47.657704397717225 -15.985603186587873 0.65477520596708416 -0.73135370988377701 0 0.68199835119979291 0.68199835119979291 0 0.73135370988377701 forward_v I I I I #
loop $-1 $-1 $295 $70 #
coedge $-1 $179 $179 $180 $296 reversed $110 $-1 #
coedge $-1 $180 $180 $179 $296 forward $112 $-1 #
coedge $-1 $181 $181 $113 $182 forward $176 $-1 #
edge $-1 $297 0 $297 6.2831853071796004 $181 $298 forward 7 unknown #
face $-1 $299 $300 $39 $-1 $301 forward single #
loop $-1 $-1 $302 $114 #
plane-surface $-1 -117.366982229347 3.6095352347103145 65.659726848387621 0 1 0 -0.73135370988377701 0 0.68199835119979291 forward_v I I I I #
coedge $-1 $303 $304 $305 $306 reversed $115 $-1 #
coedge $-1 $188 $117 $307 $308 reversed $74 $-1 #
coedge $-1 $117 $187 $303 $309 reversed $74 $-1 #
coedge $-1 $305 $310 $117 $190 forward $311 $-1 #
edge $-1 $312 25.059961429101872 $313 32.175088218226719 $189 $314 forward 7 unknown #
loop $-1 $-1 $196 $118 #
plane-surface $-1 -47.657704397717225 7.0755505148658635 0.65477520596708416 -0.73135370988377701 0 0.68199835119979291 0.68199835119979291 0 0.73135370988377701 forward_v I I I I #
loop $-1 $-1 $315 $76 #
coedge $-1 $194 $194 $195 $316 reversed $119 $-1 #
coedge $-1 $195 $195 $194 $316 forward $121 $-1 #
coedge $-1 $196 $196 $122 $197 forward $191 $-1 #
edge $-1 $317 0 $317 6.2831853071796004 $196 $318 forward 7 unknown #
loop $-1 $-1 $203 $123 #
plane-surface $-1 -47.657704397717225 7.0755505148658635 0.65477520596708416 -0.73135370988377701 0 0.68199835119979291 0.68199835119979291 0 0.73135370988377701 forward_v I I I I #
loop $-1 $-1 $319 $79 #
coedge $-1 $201 $201 $202 $320 reversed $124 $-1 #
coedge $-1 $202 $202 $201 $320 forward $126 $-1 #
coedge $-1 $203 $203 $127 $204 forward $198 $-1 #
edge $-1 $321 0 $321 6.2831853071796004 $203 $322 forward 7 unknown #
face $-1 $323 $324 $42 $-1 $325 forward single #
loop $-1 $-1 $326 $128 #
plane-surface $-1 45.305185348075646 -15.622419503722597 138.01780984656565 0 -1 0 -0.69465837861970381 0 -0.71933979245794832 forward_v I I I I #
coedge $-1 $327 $328 $329 $330 reversed $129 $-1 #
coedge $-1 $210 $131 $331 $332 reversed $83 $-1 #
coedge $-1 $131 $209 $327 $333 reversed $83 $-1 #
coedge $-1 $329 $334 $131 $212 forward $335 $-1 #
edge $-1 $336 61.239002928190885 $337 65.766908788980246 $211 $338 forward 7 unknown #
loop $-1 $-1 $218 $132 #
plane-surface $-1 -20.906461983235097 -19.435218921204648 69.453643465613339 0.69465837861970381 0 0.71933979245794832 0.71933979245794832 0 -0.69465837861970381 forward_v I I I I #
loop $-1 $-1 $339 $85 #
coedge $-1 $216 $216 $217 $340 reversed $133 $-1 #
coedge $-1 $217 $217 $216 $340 forward $135 $-1 #
coedge $-1 $218 $218 $136 $219 forward $213 $-1 #
edge $-1 $341 0 $341 6.2831853071796004 $218 $342 forward 7 unknown #
face $-1 $343 $344 $33 $-1 $345 reversed single #
loop $-1 $-1 $346 $137 #
plane-surface $-1 -47.657704397717218 0 0 1 0 0 0 0 -1 forward_v I I I I #
coedge $-1 $347 $231 $348 $349 forward $138 $-1 #
coedge $-1 $350 $140 $347 $351 forward $89 $-1 #
coedge $-1 $140 $350 $352 $353 forward $89 $-1 #
coedge $-1 $234 $233 $140 $227 reversed $235 $-1 #
edge $-1 $354 -31.46583679468775 $355 31.46583679468775 $226 $356 forward 7 unknown #
coedge $-1 $142 $141 $357 $358 forward $56 $-1 #
coedge $-1 $359 $360 $141 $230 reversed $344 $-1 #
edge $-1 $237 -47.657704397717218 $361 47.657704397717218 $229 $362 forward 7 unknown #
coedge $-1 $223 $363 $142 $232 reversed $138 $-1 #
edge $-1 $364 -47.657704397717218 $236 47.657704397717218 $231 $365 forward 7 unknown #
coedge $-1 $226 $143 $363 $366 forward $235 $-1 #
coedge $-1 $143 $226 $359 $367 reversed $235 $-1 #
loop $-1 $-1 $233 $343 #
vertex $-1 $144 $368 #
vertex $-1 $144 $369 #
straight-curve $-1 47.657704397717218 0 7.7699019950919386 0 1 0 I I #
face $-1 $370 $371 $34 $-1 $372 reversed single #
loop $-1 $-1 $373 $145 #
plane-surface $-1 -47.657704397717218 0 0 1 0 0 0 0 -1 forward_v I I I I #
coedge $-1 $374 $248 $253 $375 reversed $146 $-1 #
coedge $-1 $376 $148 $377 $378 reversed $93 $-1 #
coedge $-1 $148 $376 $374 $379 forward $93 $-1 #
coedge $-1 $253 $252 $148 $246 forward $254 $-1 #
edge $-1 $380 -17.787373011344137 $381 -9.5695545553430836 $245 $382 forward 7 unknown #
coedge $-1 $150 $149 $373 $383 reversed $59 $-1 #
coedge $-1 $242 $384 $149 $249 reversed $146 $-1 #
edge $-1 $255 -47.657704397717218 $385 47.657704397717218 $248 $386 forward 7 unknown #
coedge $-1 $387 $388 $150 $251 forward $371 $-1 #
edge $-1 $256 -47.657704397717218 $389 47.657704397717218 $250 $390 forward 7 unknown #
coedge $-1 $245 $151 $388 $391 forward $254 $-1 #
coedge $-1 $151 $245 $242 $375 forward $254 $-1 #
loop $-1 $-1 $151 $370 #
vertex $-1 $152 $392 #
vertex $-1 $391 $393 #
straight-curve $-1 47.657704397717218 -13.678463783343611 -2.9695302600600368 0 -1 0 I I #
face $-1 $394 $395 $35 $-1 $396 reversed single #
loop $-1 $-1 $159 $153 #
plane-surface $-1 47.657704397717218 0 0 -1 0 0 0 0 1 forward_v I I I I #
coedge $-1 $397 $269 $398 $399 reversed $154 $-1 #
coedge $-1 $400 $156 $397 $401 forward $97 $-1 #
coedge $-1 $156 $400 $402 $403 reversed $97 $-1 #
coedge $-1 $272 $271 $156 $265 forward $259 $-1 #
edge $-1 $404 9.2892575994936539 $405 17.880805329960616 $264 $406 forward 7 unknown #
coedge $-1 $158 $157 $407 $408 reversed $62 $-1 #
coedge $-1 $409 $410 $157 $268 forward $411 $-1 #
edge $-1 $412 -47.657704397717218 $273 47.657704397717218 $267 $413 forward 7 unknown #
coedge $-1 $261 $414 $158 $270 reversed $154 $-1 #
edge $-1 $415 -47.657704397717218 $274 47.657704397717218 $269 $416 forward 7 unknown #
coedge $-1 $264 $159 $414 $417 forward $259 $-1 #
coedge $-1 $159 $264 $409 $418 reversed $259 $-1 #
vertex $-1 $418 $419 #
vertex $-1 $160 $420 #
straight-curve $-1 47.657704397717218 13.585031464727136 6.0175364300096312 0 -1 0 I I #
face $-1 $-1 $421 $36 $-1 $422 forward single #
loop $-1 $-1 $167 $161 #
plane-surface $-1 -47.657704397717218 0 0 1 0 0 0 0 -1 forward_v I I I I #
coedge $-1 $423 $424 $425 $426 reversed $162 $-1 #
coedge $-1 $427 $164 $166 $286 forward $101 $-1 #
coedge $-1 $164 $427 $423 $428 forward $101 $-1 #
coedge $-1 $425 $167 $164 $283 forward $277 $-1 #
edge $-1 $289 4.5267863131383876 $429 11.458816873449486 $282 $430 forward 7 unknown #
coedge $-1 $431 $432 $165 $285 forward $421 $-1 #
edge $-1 $433 -17.660749626396857 $288 -11.025786716956283 $284 $434 forward 7 unknown #
edge $-1 $289 1.0448453264673958e-014 $433 9.7287081380301661 $166 $435 forward 7 unknown #
coedge $-1 $167 $425 $431 $436 reversed $277 $-1 #
vertex $-1 $436 $437 #
vertex $-1 $168 $438 #
straight-curve $-1 -47.657704397717218 -12.519587906432324 32.82986342419381 0 0 -1 I I #
coedge $-1 $291 $291 $-1 $439 reversed $171 $-1 #
edge $-1 $440 0 $440 6.2831853071796004 $172 $441 forward 7 unknown #
vertex $-1 $175 $442 #
ellipse-curve $-1 -44.340222942996931 -17.471038306654535 4.2123386005295176 -0.73135370988377701 0 0.68199835119979291 0.17049958779994823 0 0.18283842747094425 1 I I #
coedge $-1 $295 $295 $-1 $443 reversed $178 $-1 #
edge $-1 $444 0 $444 6.2831853071796004 $179 $445 forward 7 unknown #
vertex $-1 $182 $446 #
ellipse-curve $-1 -44.340222942996931 -14.500168066521208 4.2123386005295176 -0.73135370988377701 0 0.68199835119979291 0.17049958779994823 0 0.18283842747094425 1 I I #
face $-1 $-1 $311 $39 $-1 $447 reversed single #
loop $-1 $-1 $448 $183 #
plane-surface $-1 0 0 7.7699019950919386 0 0 1 1 0 0 forward_v I I I I #
coedge $-1 $449 $450 $451 $452 reversed $184 $-1 #
coedge $-1 $453 $186 $188 $309 forward $115 $-1 #
coedge $-1 $186 $453 $449 $454 forward $115 $-1 #
coedge $-1 $451 $189 $186 $306 forward $311 $-1 #
edge $-1 $313 -7.0037905375884808 $455 -0.071759977277382703 $305 $456 forward 7 unknown #
coedge $-1 $457 $458 $187 $308 forward $300 $-1 #
edge $-1 $459 -17.660749626396857 $312 -11.025786716956283 $307 $460 forward 7 unknown #
edge $-1 $313 1.0448453264673958e-014 $459 9.7287081380301661 $188 $461 forward 7 unknown #
coedge $-1 $189 $451 $457 $462 reversed $311 $-1 #
loop $-1 $-1 $451 $299 #
vertex $-1 $462 $463 #
vertex $-1 $190 $464 #
straight-curve $-1 -47.657704397717218 10.541565795021413 32.82986342419381 0 0 -1 I I #
coedge $-1 $315 $315 $-1 $465 reversed $193 $-1 #
edge $-1 $466 0 $466 6.2831853071796004 $194 $467 forward 7 unknown #
vertex $-1 $197 $468 #
ellipse-curve $-1 -44.340222942996931 5.5901153947992022 4.2123386005295176 -0.73135370988377701 0 0.68199835119979291 0.17049958779994823 0 0.18283842747094425 1 I I #
coedge $-1 $319 $319 $-1 $469 reversed $200 $-1 #
edge $-1 $470 0 $470 6.2831853071796004 $201 $471 forward 7 unknown #
vertex $-1 $204 $472 #
ellipse-curve $-1 -44.340222942996931 8.560985634932532 4.2123386005295176 -0.73135370988377701 0 0.68199835119979291 0.17049958779994823 0 0.18283842747094425 1 I I #
face $-1 $-1 $335 $42 $-1 $473 reversed single #
loop $-1 $-1 $474 $205 #
plane-surface $-1 0 0 7.7699019950919386 0 0 1 1 0 0 forward_v I I I I #
coedge $-1 $475 $476 $477 $478 reversed $206 $-1 #
coedge $-1 $479 $208 $210 $333 forward $129 $-1 #
coedge $-1 $208 $479 $475 $480 forward $129 $-1 #
coedge $-1 $477 $211 $208 $330 forward $335 $-1 #
edge $-1 $337 -13.530408878084375 $481 -5.904810043120273 $329 $482 forward 7 unknown #
coedge $-1 $483 $484 $209 $332 forward $324 $-1 #
edge $-1 $485 20.316328053292732 $336 25.005111723679395 $331 $486 forward 7 unknown #
edge $-1 $337 -95.31540879543445 $485 -88.797232379299686 $210 $487 forward 7 unknown #
coedge $-1 $211 $477 $483 $488 reversed $335 $-1 #
loop $-1 $-1 $477 $323 #
vertex $-1 $488 $489 #
vertex $-1 $212 $490 #
straight-curve $-1 47.657704397717218 -23.248018338686698 69.008904923282827 0 0 -1 I I #
coedge $-1 $339 $339 $-1 $491 reversed $215 $-1 #
edge $-1 $492 0 $492 6.2831853071796004 $216 $493 forward 7 unknown #
vertex $-1 $219 $494 #
ellipse-curve $-1 45.313312562523876 -19.435218921204648 5.5059490646972815 0.69465837861970381 0 0.71933979245794832 0.71933979245794832 0 -0.69465837861970381 1 I I #
face $-1 $-1 $235 $33 $-1 $495 reversed single #
loop $-1 $-1 $359 $220 #
plane-surface $-1 0 31.46583679468775 0 0 -1 0 0 0 -1 forward_v I I I I #
coedge $-1 $496 $357 $360 $497 forward $221 $-1 #
coedge $-1 $363 $223 $224 $351 reversed $138 $-1 #
coedge $-1 $357 $496 $223 $349 reversed $221 $-1 #
edge $-1 $364 -7.7699019950919386 $498 7.7699019950919386 $348 $499 forward 7 unknown #
coedge $-1 $225 $224 $496 $500 forward $89 $-1 #
edge $-1 $355 -47.657704397717218 $498 47.657704397717218 $347 $501 forward 7 unknown #
coedge $-1 $360 $359 $225 $353 reversed $344 $-1 #
edge $-1 $502 -47.657704397717218 $354 47.657704397717218 $352 $503 forward 7 unknown #
vertex $-1 $227 $504 #
vertex $-1 $366 $505 #
straight-curve $-1 47.657704397717218 0 -7.7699019950919386 0 -1 0 I I #
coedge $-1 $346 $348 $228 $358 reversed $221 $-1 #
edge $-1 $361 -31.46583679468775 $364 31.46583679468775 $357 $506 forward 7 unknown #
coedge $-1 $352 $229 $234 $367 forward $344 $-1 #
coedge $-1 $229 $352 $346 $497 reversed $344 $-1 #
vertex $-1 $230 $507 #
straight-curve $-1 0 31.46583679468775 7.7699019950919386 -1 0 0 I I #
coedge $-1 $231 $347 $233 $366 reversed $138 $-1 #
vertex $-1 $358 $508 #
straight-curve $-1 0 -31.46583679468775 7.7699019950919386 1 0 0 I I #
edge $-1 $236 -7.7699019950919386 $355 7.7699019950919386 $233 $509 forward 7 unknown #
edge $-1 $237 -7.7699019950919386 $354 7.7699019950919386 $234 $510 forward 7 unknown #
point $-1 47.657704397717218 -31.46583679468775 7.7699019950919386 #
point $-1 47.657704397717218 31.46583679468775 7.7699019950919386 #
face $-1 $-1 $254 $34 $-1 $511 reversed single #
loop $-1 $-1 $250 $239 #
plane-surface $-1 0 -31.46583679468775 0 0 1 0 0 0 1 forward_v I I I I #
coedge $-1 $512 $513 $247 $383 forward $240 $-1 #
coedge $-1 $384 $242 $244 $379 reversed $146 $-1 #
edge $-1 $381 -4.7100439313039448 $255 -0.4096721962720431 $253 $514 forward 7 unknown #
coedge $-1 $244 $243 $515 $516 reversed $93 $-1 #
coedge $-1 $388 $387 $243 $378 forward $371 $-1 #
edge $-1 $517 -47.657704397717218 $380 47.657704397717218 $377 $518 forward 7 unknown #
edge $-1 $519 -47.657704397717218 $381 47.657704397717218 $374 $520 forward 7 unknown #
vertex $-1 $378 $521 #
vertex $-1 $246 $522 #
straight-curve $-1 47.657704397717218 -13.678463783343611 -7.2699019950919386 0 1 0 I I #
edge $-1 $389 -17.787373011344137 $385 -9.5695545553430836 $373 $523 forward 7 unknown #
coedge $-1 $248 $374 $512 $524 reversed $146 $-1 #
vertex $-1 $383 $525 #
straight-curve $-1 0 -23.248018338686695 -2.9695302600600368 -1 0 0 I I #
coedge $-1 $377 $250 $513 $526 forward $371 $-1 #
coedge $-1 $250 $377 $252 $391 reversed $371 $-1 #
vertex $-1 $526 $527 #
straight-curve $-1 0 -31.46583679468775 -2.9695302600600368 -1 0 0 I I #
edge $-1 $256 2.9695302600600368 $380 7.2699019950919386 $252 $528 forward 7 unknown #
point $-1 47.657704397717218 -23.248018338686695 -2.9695302600600368 #
point $-1 47.657704397717218 -31.46583679468775 -2.9695302600600368 #
face $-1 $-1 $411 $35 $-1 $529 reversed single #
loop $-1 $-1 $407 $258 #
plane-surface $-1 -47.657704397717218 0 0 1 0 0 0 0 -1 forward_v I I I I #
coedge $-1 $414 $261 $262 $401 reversed $154 $-1 #
coedge $-1 $407 $530 $261 $399 forward $395 $-1 #
edge $-1 $531 0.75876821500481562 $415 3.7587682150048156 $398 $532 forward 7 unknown #
coedge $-1 $263 $262 $530 $533 reversed $97 $-1 #
edge $-1 $404 -47.657704397717218 $531 47.657704397717218 $397 $534 forward 7 unknown #
coedge $-1 $410 $409 $263 $403 forward $411 $-1 #
edge $-1 $405 -47.657704397717218 $535 47.657704397717218 $402 $536 forward 7 unknown #
vertex $-1 $265 $537 #
vertex $-1 $403 $538 #
straight-curve $-1 47.657704397717218 13.585031464727136 3.0175364300096312 0 1 0 I I #
coedge $-1 $539 $398 $266 $408 forward $395 $-1 #
edge $-1 $415 9.2892575994936539 $412 17.880805329960616 $407 $540 forward 7 unknown #
coedge $-1 $402 $267 $272 $418 forward $411 $-1 #
coedge $-1 $267 $402 $539 $541 reversed $411 $-1 #
loop $-1 $-1 $267 $394 #
vertex $-1 $541 $542 #
straight-curve $-1 0 31.46583679468775 6.0175364300096312 1 0 0 I I #
coedge $-1 $269 $397 $271 $417 reversed $154 $-1 #
vertex $-1 $408 $543 #
straight-curve $-1 0 22.87428906422079 6.0175364300096312 1 0 0 I I #
edge $-1 $274 -3.7587682150048156 $404 -0.75876821500481562 $271 $544 forward 7 unknown #
edge $-1 $273 -6.0175364300096312 $405 -3.0175364300096312 $272 $545 forward 7 unknown #
point $-1 47.657704397717218 31.465836794687753 6.0175364300096312 #
point $-1 47.657704397717218 22.87428906422079 6.0175364300096312 #
loop $-1 $-1 $284 $276 #
plane-surface $-1 0 0 7.7699019950919386 0 0 1 1 0 0 forward_v I I I I #
coedge $-1 $424 $279 $281 $428 reversed $162 $-1 #
coedge $-1 $279 $423 $546 $547 reversed $162 $-1 #
coedge $-1 $287 $282 $279 $426 forward $277 $-1 #
edge $-1 $429 -32.175088218226719 $548 -25.059961429101872 $425 $549 forward 7 unknown #
coedge $-1 $281 $280 $432 $550 reversed $101 $-1 #
edge $-1 $551 -9.7287081380301661 $429 -1.0448453264673958e-014 $423 $552 forward 7 unknown #
vertex $-1 $283 $553 #
straight-curve $-1 -47.657704397717218 -7.9928015932939367 0.65477520596709604 0 -1 0 I I #
coedge $-1 $546 $284 $287 $436 forward $421 $-1 #
coedge $-1 $284 $546 $427 $550 forward $421 $-1 #
vertex $-1 $285 $554 #
straight-curve $-1 -58.683491114673501 -12.519587906432324 7.7699019950919386 -1 0 0 I I #
straight-curve $-1 -47.657704397717225 -12.519587906432324 0.65477520596708416 0.68199835119979291 0 0.73135370988377701 I I #
edge $-1 $288 12.519587906432324 $548 19.451618466743422 $287 $555 forward 7 unknown #
point $-1 -47.657704397717218 -12.519587906432324 7.7699019950919386 #
point $-1 -47.657704397717218 -12.519587906432324 0.65477520596709182 #
edge $-1 $556 1 $556 0 $291 $-1 forward 7 unknown #
vertex $-1 $292 $557 #
ellipse-curve $-1 -43.608869233113147 -17.471038306654535 3.5303402493297202 -0.73135370988377701 0 0.68199835119979291 0.17049958779994823 0 0.18283842747094425 1 I I #
point $-1 -44.169723355196979 -17.471038306654535 4.3951770280004574 #
edge $-1 $558 1 $558 0 $295 $-1 forward 7 unknown #
vertex $-1 $296 $559 #
ellipse-curve $-1 -43.608869233113147 -14.500168066521208 3.5303402493297202 -0.73135370988377701 0 0.68199835119979291 0.17049958779994823 0 0.18283842747094425 1 I I #
point $-1 -44.169723355196979 -14.500168066521208 4.3951770280004574 #
plane-surface $-1 -47.657704397717218 0 0 1 0 0 0 0 -1 forward_v I I I I #
coedge $-1 $458 $457 $450 $560 forward $300 $-1 #
coedge $-1 $450 $302 $304 $454 reversed $184 $-1 #
coedge $-1 $302 $449 $448 $560 reversed $184 $-1 #
coedge $-1 $310 $305 $302 $452 forward $311 $-1 #
edge $-1 $455 -32.175088218226719 $561 -25.059961429101872 $451 $562 forward 7 unknown #
coedge $-1 $304 $303 $458 $563 reversed $115 $-1 #
edge $-1 $564 -9.7287081380301661 $455 -1.0448453264673958e-014 $449 $565 forward 7 unknown #
vertex $-1 $306 $566 #
straight-curve $-1 -47.657704397717218 3.5377752574329318 0.65477520596709604 0 -1 0 I I #
coedge $-1 $448 $307 $310 $462 forward $300 $-1 #
coedge $-1 $307 $448 $453 $563 forward $300 $-1 #
vertex $-1 $308 $567 #
straight-curve $-1 -58.683491114673501 10.541565795021413 7.7699019950919386 -1 0 0 I I #
straight-curve $-1 -47.657704397717225 10.541565795021413 0.65477520596708416 0.68199835119979291 0 0.73135370988377701 I I #
edge $-1 $312 -10.541565795021413 $561 -3.6095352347103145 $310 $568 forward 7 unknown #
point $-1 -47.657704397717218 10.541565795021413 7.7699019950919386 #
point $-1 -47.657704397717218 10.541565795021413 0.65477520596709182 #
edge $-1 $569 1 $569 0 $315 $-1 forward 7 unknown #
vertex $-1 $316 $570 #
ellipse-curve $-1 -43.608869233113147 5.5901153947992022 3.5303402493297202 -0.73135370988377701 0 0.68199835119979291 0.17049958779994823 0 0.18283842747094425 1 I I #
point $-1 -44.169723355196979 5.5901153947992022 4.3951770280004574 #
edge $-1 $571 1 $571 0 $319 $-1 forward 7 unknown #
vertex $-1 $320 $572 #
ellipse-curve $-1 -43.608869233113147 8.560985634932532 3.5303402493297202 -0.73135370988377701 0 0.68199835119979291 0.17049958779994823 0 0.18283842747094425 1 I I #
point $-1 -44.169723355196979 8.560985634932532 4.3951770280004574 #
plane-surface $-1 47.657704397717218 0 0 -1 0 0 0 0 1 forward_v I I I I #
coedge $-1 $484 $483 $476 $573 forward $324 $-1 #
coedge $-1 $476 $326 $328 $480 reversed $206 $-1 #
coedge $-1 $326 $475 $474 $573 reversed $206 $-1 #
coedge $-1 $334 $329 $326 $478 forward $335 $-1 #
edge $-1 $481 -65.766908788980246 $574 -61.239002928190885 $477 $575 forward 7 unknown #
coedge $-1 $328 $327 $484 $576 reversed $129 $-1 #
edge $-1 $577 88.797232379299686 $481 95.31540879543445 $475 $578 forward 7 unknown #
vertex $-1 $330 $579 #
straight-curve $-1 47.657704397717211 -9.7176094606023238 3.241996134302596 0 1 0 I I #
coedge $-1 $474 $331 $334 $488 forward $324 $-1 #
coedge $-1 $331 $474 $479 $576 forward $324 $-1 #
vertex $-1 $332 $580 #
straight-curve $-1 22.652592674037823 -23.248018338686698 7.7699019950919421 1 0 0 I I #
straight-curve $-1 -20.906461983235097 -23.248018338686698 69.453643465613339 -0.71933979245794832 0 0.69465837861970381 I I #
edge $-1 $336 -23.248018338686698 $574 -15.622419503722597 $334 $581 forward 7 unknown #
point $-1 47.657704397717218 -23.248018338686698 7.7699019950919386 #
point $-1 47.657704397717218 -23.248018338686698 3.2419961343025818 #
edge $-1 $582 1 $582 0 $339 $-1 forward 7 unknown #
vertex $-1 $340 $583 #
ellipse-curve $-1 43.647167010826124 -19.435218921204648 3.780604877897892 0.69465837861970381 0 0.71933979245794832 0.71933979245794832 0 -0.69465837861970381 1 I I #
point $-1 46.032652354981806 -19.435218921204648 4.8112906860775615 #
plane-surface $-1 47.657704397717218 0 0 -1 0 0 0 0 1 forward_v I I I I #
coedge $-1 $348 $346 $350 $500 reversed $221 $-1 #
edge $-1 $361 -7.7699019950919386 $502 7.7699019950919386 $360 $584 forward 7 unknown #
vertex $-1 $500 $585 #
straight-curve $-1 -47.657704397717218 -31.46583679468775 0 0 0 -1 I I #
edge $-1 $498 -31.46583679468775 $502 31.46583679468775 $496 $586 forward 7 unknown #
straight-curve $-1 0 -31.46583679468775 -7.7699019950919386 -1 0 0 I I #
vertex $-1 $353 $587 #
straight-curve $-1 0 31.46583679468775 -7.7699019950919386 1 0 0 I I #
point $-1 47.657704397717218 31.46583679468775 -7.7699019950919386 #
point $-1 47.657704397717218 -31.46583679468775 -7.7699019950919386 #
straight-curve $-1 -47.657704397717218 0 7.7699019950919386 0 -1 0 I I #
point $-1 -47.657704397717218 31.46583679468775 7.7699019950919386 #
point $-1 -47.657704397717218 -31.46583679468775 7.7699019950919386 #
straight-curve $-1 47.657704397717218 -31.46583679468775 0 0 0 -1 I I #
straight-curve $-1 47.657704397717218 31.46583679468775 0 0 0 -1 I I #
plane-surface $-1 47.657704397717218 0 0 -1 0 0 0 0 1 forward_v I I I I #
coedge $-1 $515 $373 $384 $524 forward $240 $-1 #
coedge $-1 $373 $515 $387 $526 reversed $240 $-1 #
straight-curve $-1 47.657704397717218 -23.248018338686695 -2.5598580637879937 0 0 1 I I #
coedge $-1 $513 $512 $376 $516 forward $240 $-1 #
edge $-1 $519 9.5695545553430836 $517 17.787373011344137 $515 $588 forward 7 unknown #
vertex $-1 $378 $589 #
straight-curve $-1 0 -31.46583679468775 -7.2699019950919386 1 0 0 I I #
vertex $-1 $516 $590 #
straight-curve $-1 0 -23.248018338686695 -7.2699019950919386 1 0 0 I I #
point $-1 47.657704397717218 -31.46583679468775 -7.2699019950919386 #
point $-1 47.657704397717218 -23.248018338686695 -7.2699019950919386 #
straight-curve $-1 -47.657704397717218 -13.678463783343611 -2.9695302600600368 0 1 0 I I #
edge $-1 $385 0.4096721962720431 $519 4.7100439313039448 $512 $591 forward 7 unknown #
point $-1 -47.657704397717218 -23.248018338686695 -2.9695302600600368 #
edge $-1 $389 2.9695302600600368 $517 7.2699019950919386 $513 $592 forward 7 unknown #
point $-1 -47.657704397717218 -31.46583679468775 -2.9695302600600368 #
straight-curve $-1 47.657704397717218 -31.46583679468775 0 0 0 -1 I I #
plane-surface $-1 0 31.46583679468775 0 0 -1 0 0 0 -1 forward_v I I I I #
coedge $-1 $398 $539 $400 $533 forward $395 $-1 #
vertex $-1 $533 $593 #
straight-curve $-1 -47.657704397717218 22.87428906422079 2.2587682150048156 0 0 1 I I #
edge $-1 $535 -17.880805329960616 $531 -9.2892575994936539 $530 $594 forward 7 unknown #
straight-curve $-1 0 22.87428906422079 3.0175364300096312 -1 0 0 I I #
vertex $-1 $403 $595 #
straight-curve $-1 0 31.46583679468775 3.0175364300096312 -1 0 0 I I #
point $-1 47.657704397717218 22.87428906422079 3.0175364300096312 #
point $-1 47.657704397717218 31.465836794687753 3.0175364300096312 #
coedge $-1 $530 $407 $410 $541 forward $395 $-1 #
straight-curve $-1 -47.657704397717218 13.585031464727136 6.0175364300096312 0 1 0 I I #
edge $-1 $412 -6.0175364300096312 $535 -3.0175364300096312 $410 $596 forward 7 unknown #
point $-1 -47.657704397717218 31.465836794687753 6.0175364300096312 #
point $-1 -47.657704397717218 22.87428906422079 6.0175364300096312 #
straight-curve $-1 47.657704397717218 22.87428906422079 2.2587682150048156 0 0 -1 I I #
straight-curve $-1 47.657704397717218 31.46583679468775 0 0 0 -1 I I #
coedge $-1 $432 $431 $424 $547 forward $421 $-1 #
edge $-1 $548 11.025786716956283 $551 17.660749626396857 $546 $597 forward 7 unknown #
vertex $-1 $547 $598 #
straight-curve $-1 -47.657704397717218 -19.451618466743422 32.82986342419381 0 0 1 I I #
edge $-1 $551 -11.458816873449486 $433 -4.5267863131383876 $432 $599 forward 7 unknown #
vertex $-1 $550 $600 #
straight-curve $-1 -47.657704397717225 -19.451618466743422 0.65477520596708416 -0.68199835119979291 0 -0.73135370988377701 I I #
point $-1 -47.657704397717218 -19.451618466743422 0.65477520596709182 #
point $-1 -41.022741488276644 -12.519587906432324 7.7699019950919386 #
straight-curve $-1 -47.657704397717218 0 7.7699019950919386 0 -1 0 I I #
vertex $-1 $439 $601 #
point $-1 -43.438369645313202 -17.471038306654535 3.7131786768006645 #
vertex $-1 $443 $602 #
point $-1 -43.438369645313202 -14.500168066521208 3.7131786768006645 #
edge $-1 $561 11.025786716956283 $564 17.660749626396857 $448 $603 forward 7 unknown #
vertex $-1 $560 $604 #
straight-curve $-1 -47.657704397717218 3.6095352347103145 32.82986342419381 0 0 1 I I #
edge $-1 $564 0.071759977277382703 $459 7.0037905375884808 $458 $605 forward 7 unknown #
vertex $-1 $563 $606 #
straight-curve $-1 -47.657704397717225 3.6095352347103145 0.65477520596708416 -0.68199835119979291 0 -0.73135370988377701 I I #
point $-1 -47.657704397717218 3.6095352347103145 0.65477520596709182 #
point $-1 -41.022741488276644 10.541565795021413 7.7699019950919386 #
straight-curve $-1 -47.657704397717218 0 7.7699019950919386 0 -1 0 I I #
vertex $-1 $465 $607 #
point $-1 -43.438369645313202 5.5901153947992022 3.7131786768006645 #
vertex $-1 $469 $608 #
point $-1 -43.438369645313202 8.560985634932532 3.7131786768006645 #
edge $-1 $574 -25.005111723679395 $577 -20.316328053292732 $474 $609 forward 7 unknown #
vertex $-1 $478 $610 #
straight-curve $-1 47.657704397717218 -15.622419503722597 69.008904923282827 0 0 1 I I #
edge $-1 $577 5.904810043120273 $485 13.530408878084375 $484 $611 forward 7 unknown #
vertex $-1 $576 $612 #
straight-curve $-1 -20.906461983235097 -15.622419503722597 69.453643465613339 0.71933979245794832 0 -0.69465837861970381 I I #
point $-1 47.657704397717218 -15.622419503722597 3.2419961343025818 #
point $-1 42.968920727330556 -23.248018338686698 7.7699019950919492 #
straight-curve $-1 47.657704397717218 0 7.7699019950919386 0 1 0 I I #
vertex $-1 $491 $613 #
point $-1 44.366506803284068 -19.435218921204648 3.0859464992781884 #
straight-curve $-1 -47.657704397717218 31.46583679468775 0 0 0 -1 I I #
point $-1 -47.657704397717218 -31.46583679468775 -7.7699019950919386 #
straight-curve $-1 -47.657704397717218 0 -7.7699019950919386 0 1 0 I I #
point $-1 -47.657704397717218 31.46583679468775 -7.7699019950919386 #
straight-curve $-1 -47.657704397717218 -13.678463783343611 -7.2699019950919386 0 -1 0 I I #
point $-1 -47.657704397717218 -31.46583679468775 -7.2699019950919386 #
point $-1 -47.657704397717218 -23.248018338686695 -7.2699019950919386 #
straight-curve $-1 -47.657704397717218 -23.248018338686695 -2.5598580637879937 0 0 -1 I I #
straight-curve $-1 -47.657704397717218 -31.46583679468775 0 0 0 -1 I I #
point $-1 -47.657704397717218 22.87428906422079 3.0175364300096312 #
straight-curve $-1 -47.657704397717218 13.585031464727136 3.0175364300096312 0 -1 0 I I #
point $-1 -47.657704397717218 31.465836794687753 3.0175364300096312 #
straight-curve $-1 -47.657704397717218 31.46583679468775 0 0 0 -1 I I #
straight-curve $-1 -58.683491114673501 -19.451618466743422 7.7699019950919386 1 0 0 I I #
point $-1 -47.657704397717218 -19.451618466743422 7.7699019950919386 #
straight-curve $-1 -41.022741488276637 -7.9928015932939367 7.7699019950919377 0 1 0 I I #
point $-1 -41.022741488276644 -19.451618466743422 7.7699019950919386 #
point $-1 -43.426030805642206 -17.471038306654535 3.3598406615297716 #
point $-1 -43.426030805642206 -14.500168066521208 3.3598406615297716 #
straight-curve $-1 -58.683491114673501 3.6095352347103145 7.7699019950919386 1 0 0 I I #
point $-1 -47.657704397717218 3.6095352347103145 7.7699019950919386 #
straight-curve $-1 -41.022741488276637 3.5377752574329318 7.7699019950919377 0 1 0 I I #
point $-1 -41.022741488276644 3.6095352347103145 7.7699019950919386 #
point $-1 -43.426030805642206 5.5901153947992022 3.3598406615297716 #
point $-1 -43.426030805642206 8.560985634932532 3.3598406615297716 #
straight-curve $-1 22.652592674037823 -15.622419503722597 7.7699019950919421 -1 0 0 I I #
point $-1 47.657704397717218 -15.622419503722597 7.7699019950919386 #
straight-curve $-1 42.96892072733057 -9.7176094606023238 7.7699019950919421 0 -1 0 I I #
point $-1 42.968920727330556 -15.622419503722597 7.7699019950919492 #
point $-1 42.952508632206417 -19.435218921204648 3.0612650854399432 #
End-of-ACIS-data 