500 0 9 0           
7 Unknown 11 ACIS 5.0 NT 24 Fri Mar 26 02:17:36 1999 
-1 9.9999999999999995e-007 1e-010 
body $-1 $9 $-1 $10 #
body $-1 $11 $-1 $12 #
body $-1 $13 $-1 $14 #
body $-1 $15 $-1 $16 #
body $-1 $17 $-1 $18 #
body $-1 $19 $-1 $20 #
body $-1 $21 $-1 $22 #
body $-1 $23 $-1 $24 #
body $-1 $25 $-1 $26 #
lump $-1 $-1 $27 $0 #
transform $-1 1 0 0 0 1 0 0 0 1 41.272011474959562 22.20932247484884 9.2699368193462224 1 rotate no_reflect no_shear #
lump $-1 $-1 $28 $1 #
transform $-1 1 0 0 0 1 0 0 0 1 41.272011474959562 22.20932247484884 9.2699368193462224 1 rotate no_reflect no_shear #
lump $-1 $-1 $29 $2 #
transform $-1 1 0 0 0 1 0 0 0 1 41.272011474959562 22.20932247484884 9.2699368193462224 1 rotate no_reflect no_shear #
lump $-1 $-1 $30 $3 #
transform $-1 1 0 0 0 1 0 0 0 1 41.272011474959562 22.20932247484884 9.2699368193462224 1 rotate no_reflect no_shear #
lump $-1 $-1 $31 $4 #
transform $-1 1 0 0 0 1 0 0 0 1 41.272011474959562 22.20932247484884 9.2699368193462224 1 rotate no_reflect no_shear #
lump $-1 $-1 $32 $5 #
transform $-1 1 0 0 0 1 0 0 0 1 41.272011474959562 22.20932247484884 9.2699368193462224 1 rotate no_reflect no_shear #
lump $-1 $-1 $33 $6 #
transform $-1 1 0 0 0 1 0 0 0 1 41.272011474959562 22.20932247484884 9.2699368193462224 1 rotate no_reflect no_shear #
lump $-1 $-1 $34 $7 #
transform $-1 1 0 0 0 1 0 0 0 1 41.272011474959562 22.20932247484884 9.2699368193462224 1 rotate no_reflect no_shear #
lump $-1 $-1 $35 $8 #
transform $-1 1 0 0 0 1 0 0 0 1 41.272011474959562 22.20932247484884 9.2699368193462224 1 rotate no_reflect no_shear #
shell $-1 $-1 $-1 $36 $-1 $9 #
shell $-1 $-1 $-1 $37 $-1 $11 #
shell $-1 $-1 $-1 $38 $-1 $13 #
shell $-1 $-1 $-1 $39 $-1 $15 #
shell $-1 $-1 $-1 $40 $-1 $17 #
shell $-1 $-1 $-1 $41 $-1 $19 #
shell $-1 $-1 $-1 $42 $-1 $21 #
shell $-1 $-1 $-1 $43 $-1 $23 #
shell $-1 $-1 $-1 $44 $-1 $25 #
face $-1 $45 $46 $27 $-1 $47 forward single #
face $-1 $48 $49 $28 $-1 $50 forward single #
face $-1 $51 $52 $29 $-1 $53 reversed single #
face $-1 $54 $55 $30 $-1 $56 forward single #
face $-1 $57 $58 $31 $-1 $59 reversed single #
face $-1 $60 $61 $32 $-1 $62 forward single #
face $-1 $63 $64 $33 $-1 $65 reversed single #
face $-1 $66 $67 $34 $-1 $68 forward single #
face $-1 $69 $70 $35 $-1 $71 forward single #
face $-1 $72 $73 $27 $-1 $74 reversed single #
loop $-1 $-1 $75 $36 #
plane-surface $-1 0 0 9.2699368193462224 0 0 1 1 0 0 forward_v I I I I #
face $-1 $76 $77 $28 $-1 $78 reversed single #
loop $-1 $-1 $79 $37 #
plane-surface $-1 0 -18.297599814821975 -4.5427697827184037 0 0 1 1 0 0 forward_v I I I I #
face $-1 $80 $81 $29 $-1 $82 reversed single #
loop $-1 $-1 $83 $38 #
plane-surface $-1 -110.49925474357738 -11.23875860844214 49.94497636012288 0 1 0 -0.83867057594974714 0 0.54463902268945019 forward_v I I I I #
face $-1 $84 $85 $30 $-1 $86 forward single #
loop $-1 $87 $88 $39 #
cone-surface $-1 -38.252083703687283 -8.108307365596886 6.070796537304826 0.83867057594974714 0 -0.54463902268945019 0.54463902268945019 0 0.83867057594974714 1 I I 0 1 1 forward I I I I #
face $-1 $89 $90 $31 $-1 $91 reversed single #
loop $-1 $-1 $92 $40 #
plane-surface $-1 -110.49925474357738 12.801301442805354 49.94497636012288 0 1 0 -0.83867057594974714 0 0.54463902268945019 forward_v I I I I #
face $-1 $93 $94 $32 $-1 $95 forward single #
loop $-1 $96 $97 $41 #
cone-surface $-1 -38.252083703687283 15.931752685650608 6.070796537304826 0.83867057594974714 0 -0.54463902268945019 0.54463902268945019 0 0.83867057594974714 1 I I 0 1 1 forward I I I I #
face $-1 $98 $99 $33 $-1 $100 reversed single #
loop $-1 $-1 $101 $42 #
plane-surface $-1 39.234708284659057 1.6929652166215003 116.90308883527793 0 -1 0 -0.69465837861970381 0 -0.71933979245794832 forward_v I I I I #
face $-1 $102 $103 $34 $-1 $104 forward single #
loop $-1 $105 $106 $43 #
cone-surface $-1 35.86116618967273 -3.6397119814338694 3.9953316431213786 -0.69465837861970381 0 -0.71933979245794832 0.71933979245794832 0 -0.69465837861970381 1 I I 0 1 1 forward I I I I #
face $-1 $107 $108 $35 $-1 $109 forward single #
loop $-1 $110 $111 $44 #
cone-surface $-1 35.86116618967273 -0.44010566260064721 3.9953316431213786 -0.69465837861970381 0 -0.71933979245794832 0.71933979245794832 0 -0.69465837861970381 1 I I 0 1 1 forward I I I I #
face $-1 $112 $113 $27 $-1 $114 reversed single #
loop $-1 $-1 $115 $45 #
plane-surface $-1 0 0 -9.2699368193462224 0 0 1 1 0 0 forward_v I I I I #
coedge $-1 $116 $117 $118 $119 forward $46 $-1 #
face $-1 $120 $121 $28 $-1 $122 reversed single #
loop $-1 $-1 $123 $48 #
plane-surface $-1 0 -14.385877154795113 -6.906353301032313 0 -1 0 0 0 -1 forward_v I I I I #
coedge $-1 $124 $125 $126 $127 reversed $49 $-1 #
face $-1 $128 $129 $29 $-1 $130 reversed single #
loop $-1 $-1 $131 $51 #
plane-surface $-1 -41.272011474959569 -8.108307365596886 4.9882803718233788 -0.83867057594974714 0 0.54463902268945019 0.54463902268945019 0 0.83867057594974714 forward_v I I I I #
coedge $-1 $132 $133 $134 $135 reversed $52 $-1 #
face $-1 $-1 $136 $30 $-1 $137 forward single #
loop $-1 $138 $139 $54 #
cone-surface $-1 -36.203090703950686 -8.108307365596886 4.7401649676801245 0.83867057594974714 0 -0.54463902268945019 0.2723195113447251 0 0.41933528797487357 1 I I -0.70710678118654746 0.70710678118654746 0.5 forward I I I I #
loop $-1 $-1 $140 $39 #
coedge $-1 $88 $88 $141 $142 reversed $55 $-1 #
face $-1 $143 $144 $31 $-1 $145 reversed single #
loop $-1 $-1 $146 $57 #
plane-surface $-1 -41.272011474959569 15.931752685650608 4.9882803718233788 -0.83867057594974714 0 0.54463902268945019 0.54463902268945019 0 0.83867057594974714 forward_v I I I I #
coedge $-1 $147 $148 $149 $150 reversed $58 $-1 #
face $-1 $-1 $151 $32 $-1 $152 forward single #
loop $-1 $153 $154 $60 #
cone-surface $-1 -36.203090703950686 15.931752685650608 4.7401649676801245 0.83867057594974714 0 -0.54463902268945019 0.2723195113447251 0 0.41933528797487357 1 I I -0.70710678118654746 0.70710678118654746 0.5 forward I I I I #
loop $-1 $-1 $155 $41 #
coedge $-1 $97 $97 $156 $157 reversed $61 $-1 #
face $-1 $158 $159 $33 $-1 $160 reversed single #
loop $-1 $-1 $161 $63 #
plane-surface $-1 -18.105188862479373 -2.0399088220172601 57.525888497838991 0.69465837861970381 0 0.71933979245794832 0.71933979245794832 0 -0.69465837861970381 forward_v I I I I #
coedge $-1 $162 $163 $164 $165 reversed $64 $-1 #
face $-1 $-1 $166 $34 $-1 $167 forward single #
loop $-1 $168 $169 $66 #
cone-surface $-1 34.806342059096174 -3.6397119814338694 2.9030293049904028 -0.69465837861970381 0 -0.71933979245794832 0.35966989622897416 0 -0.3473291893098519 1 I I -0.70710678118654746 0.70710678118654746 0.5 forward I I I I #
loop $-1 $-1 $170 $43 #
coedge $-1 $106 $106 $171 $172 reversed $67 $-1 #
face $-1 $-1 $173 $35 $-1 $174 forward single #
loop $-1 $175 $176 $69 #
cone-surface $-1 34.806342059096174 -0.44010566260064721 2.9030293049904028 -0.69465837861970381 0 -0.71933979245794832 0.35966989622897416 0 -0.3473291893098519 1 I I -0.70710678118654746 0.70710678118654746 0.5 forward I I I I #
loop $-1 $-1 $177 $44 #
coedge $-1 $111 $111 $178 $179 reversed $70 $-1 #
face $-1 $180 $181 $27 $-1 $182 reversed single #
loop $-1 $-1 $183 $72 #
plane-surface $-1 0 -22.20932247484884 0 0 1 0 0 0 1 forward_v I I I I #
coedge $-1 $184 $185 $186 $187 forward $73 $-1 #
coedge $-1 $188 $75 $189 $190 forward $46 $-1 #
coedge $-1 $75 $188 $191 $192 forward $46 $-1 #
coedge $-1 $193 $194 $75 $119 reversed $195 $-1 #
edge $-1 $196 -22.20932247484884 $197 22.20932247484884 $118 $198 forward 7 unknown #
face $-1 $199 $200 $28 $-1 $201 reversed single #
loop $-1 $-1 $202 $76 #
plane-surface $-1 0 0 -9.2699368193462224 0 0 1 1 0 0 forward_v I I I I #
coedge $-1 $203 $204 $205 $206 reversed $77 $-1 #
coedge $-1 $207 $79 $204 $208 forward $49 $-1 #
coedge $-1 $79 $207 $209 $210 reversed $49 $-1 #
coedge $-1 $211 $205 $79 $127 forward $200 $-1 #
edge $-1 $212 5.2370772473841249 $213 13.060522567437852 $126 $214 forward 7 unknown #
face $-1 $215 $216 $29 $-1 $217 forward single #
loop $-1 $-1 $218 $80 #
plane-surface $-1 -110.49925474357738 -4.977856122751632 49.94497636012288 0 -1 0 0.83867057594974714 0 -0.54463902268945019 forward_v I I I I #
coedge $-1 $219 $220 $221 $222 reversed $81 $-1 #
coedge $-1 $133 $83 $223 $224 reversed $52 $-1 #
coedge $-1 $83 $132 $219 $225 reversed $52 $-1 #
coedge $-1 $221 $226 $83 $135 forward $216 $-1 #
edge $-1 $227 13.977615896829128 $228 16.758156015850247 $134 $229 forward 7 unknown #
loop $-1 $-1 $141 $84 #
plane-surface $-1 -41.272011474959569 -8.108307365596886 4.9882803718233788 -0.83867057594974714 0 0.54463902268945019 0.54463902268945019 0 0.83867057594974714 forward_v I I I I #
loop $-1 $-1 $230 $54 #
coedge $-1 $139 $139 $140 $231 reversed $85 $-1 #
coedge $-1 $140 $140 $139 $231 forward $87 $-1 #
coedge $-1 $141 $141 $88 $142 forward $136 $-1 #
edge $-1 $232 0 $232 6.2831853071796004 $141 $233 forward 7 unknown #
face $-1 $234 $235 $31 $-1 $236 forward single #
loop $-1 $-1 $237 $89 #
plane-surface $-1 -110.49925474357738 19.062203928495862 49.94497636012288 0 -1 0 0.83867057594974714 0 -0.54463902268945019 forward_v I I I I #
coedge $-1 $238 $239 $240 $241 reversed $90 $-1 #
coedge $-1 $148 $92 $242 $243 reversed $58 $-1 #
coedge $-1 $92 $147 $238 $244 reversed $58 $-1 #
coedge $-1 $240 $245 $92 $150 forward $235 $-1 #
edge $-1 $246 13.977615896829128 $247 16.758156015850247 $149 $248 forward 7 unknown #
loop $-1 $-1 $156 $93 #
plane-surface $-1 -41.272011474959569 15.931752685650608 4.9882803718233788 -0.83867057594974714 0 0.54463902268945019 0.54463902268945019 0 0.83867057594974714 forward_v I I I I #
loop $-1 $-1 $249 $60 #
coedge $-1 $154 $154 $155 $250 reversed $94 $-1 #
coedge $-1 $155 $155 $154 $250 forward $96 $-1 #
coedge $-1 $156 $156 $97 $157 forward $151 $-1 #
edge $-1 $251 0 $251 6.2831853071796004 $156 $252 forward 7 unknown #
face $-1 $253 $254 $33 $-1 $255 reversed single #
loop $-1 $-1 $256 $98 #
plane-surface $-1 39.234708284659057 -5.7727828606560205 116.90308883527793 0 1 0 0.69465837861970381 0 0.71933979245794832 forward_v I I I I #
coedge $-1 $257 $258 $259 $260 reversed $99 $-1 #
coedge $-1 $163 $101 $261 $262 reversed $64 $-1 #
coedge $-1 $101 $162 $257 $263 reversed $64 $-1 #
coedge $-1 $259 $264 $101 $165 forward $265 $-1 #
edge $-1 $266 -21.654657332630034 $267 -12.247956644589788 $164 $268 forward 7 unknown #
loop $-1 $-1 $171 $102 #
plane-surface $-1 -18.105188862479373 -2.0399088220172601 57.525888497838991 0.69465837861970381 0 0.71933979245794832 0.71933979245794832 0 -0.69465837861970381 forward_v I I I I #
loop $-1 $-1 $269 $66 #
coedge $-1 $169 $169 $170 $270 reversed $103 $-1 #
coedge $-1 $170 $170 $169 $270 forward $105 $-1 #
coedge $-1 $171 $171 $106 $172 forward $166 $-1 #
edge $-1 $271 0 $271 6.2831853071796004 $171 $272 forward 7 unknown #
loop $-1 $-1 $178 $107 #
plane-surface $-1 -18.105188862479373 -2.0399088220172601 57.525888497838991 0.69465837861970381 0 0.71933979245794832 0.71933979245794832 0 -0.69465837861970381 forward_v I I I I #
loop $-1 $-1 $273 $69 #
coedge $-1 $176 $176 $177 $274 reversed $108 $-1 #
coedge $-1 $177 $177 $176 $274 forward $110 $-1 #
coedge $-1 $178 $178 $111 $179 forward $173 $-1 #
edge $-1 $275 0 $275 6.2831853071796004 $178 $276 forward 7 unknown #
face $-1 $277 $278 $27 $-1 $279 reversed single #
loop $-1 $-1 $280 $112 #
plane-surface $-1 -41.272011474959562 0 0 1 0 0 0 0 -1 forward_v I I I I #
coedge $-1 $281 $191 $282 $283 forward $113 $-1 #
coedge $-1 $284 $115 $281 $285 forward $73 $-1 #
coedge $-1 $115 $284 $286 $287 forward $73 $-1 #
coedge $-1 $194 $193 $115 $187 reversed $195 $-1 #
edge $-1 $288 -22.20932247484884 $289 22.20932247484884 $186 $290 forward 7 unknown #
coedge $-1 $117 $116 $291 $292 forward $46 $-1 #
coedge $-1 $293 $294 $116 $190 reversed $278 $-1 #
edge $-1 $197 -41.272011474959562 $295 41.272011474959562 $189 $296 forward 7 unknown #
coedge $-1 $183 $297 $117 $192 reversed $113 $-1 #
edge $-1 $298 -41.272011474959562 $196 41.272011474959562 $191 $299 forward 7 unknown #
coedge $-1 $186 $118 $297 $300 forward $195 $-1 #
coedge $-1 $118 $186 $293 $301 reversed $195 $-1 #
loop $-1 $-1 $193 $277 #
vertex $-1 $119 $302 #
vertex $-1 $119 $303 #
straight-curve $-1 41.272011474959562 0 9.2699368193462224 0 1 0 I I #
face $-1 $304 $305 $28 $-1 $306 reversed single #
loop $-1 $-1 $205 $120 #
plane-surface $-1 41.272011474959562 0 0 -1 0 0 0 0 1 forward_v I I I I #
coedge $-1 $307 $308 $203 $309 forward $121 $-1 #
coedge $-1 $310 $123 $202 $309 reversed $77 $-1 #
coedge $-1 $123 $310 $124 $208 reversed $77 $-1 #
coedge $-1 $126 $311 $123 $206 forward $200 $-1 #
edge $-1 $312 -5.8167601688300659 $212 -1.0895931322022472 $205 $313 forward 7 unknown #
coedge $-1 $125 $124 $314 $315 reversed $49 $-1 #
edge $-1 $212 -41.272011474959562 $316 41.272011474959562 $204 $317 forward 7 unknown #
coedge $-1 $318 $319 $125 $210 forward $305 $-1 #
edge $-1 $213 -41.272011474959562 $320 41.272011474959562 $209 $321 forward 7 unknown #
coedge $-1 $311 $126 $319 $322 forward $200 $-1 #
vertex $-1 $127 $323 #
vertex $-1 $322 $324 #
straight-curve $-1 41.272011474959562 -9.1487999074109876 -4.5427697827184037 0 -1 0 I I #
face $-1 $-1 $325 $29 $-1 $326 reversed single #
loop $-1 $-1 $134 $128 #
plane-surface $-1 0 0 9.2699368193462224 0 0 1 1 0 0 forward_v I I I I #
coedge $-1 $327 $328 $329 $330 reversed $129 $-1 #
coedge $-1 $331 $131 $133 $225 forward $81 $-1 #
coedge $-1 $131 $331 $327 $332 forward $81 $-1 #
coedge $-1 $329 $134 $131 $222 forward $216 $-1 #
edge $-1 $228 -7.184604925643697 $333 -0.92370243995318901 $221 $334 forward 7 unknown #
coedge $-1 $335 $336 $132 $224 forward $325 $-1 #
edge $-1 $337 -19.98420780823805 $227 -15.702551360715217 $223 $338 forward 7 unknown #
edge $-1 $228 -5.1052899318354052 $337 -1.2808562293387176e-014 $133 $339 forward 7 unknown #
coedge $-1 $134 $329 $335 $340 forward $216 $-1 #
vertex $-1 $224 $341 #
vertex $-1 $135 $342 #
straight-curve $-1 -55.249627371788691 -11.23875860844214 9.2699368193462242 1 0 0 I I #
coedge $-1 $230 $230 $-1 $343 reversed $138 $-1 #
edge $-1 $344 0 $344 6.2831853071796004 $139 $345 forward 7 unknown #
vertex $-1 $142 $346 #
ellipse-curve $-1 -39.881741415449007 -8.108307365596886 7.1291085955848024 -0.83867057594974714 0 0.54463902268945019 0.54463902268945019 0 0.83867057594974714 1 I I #
face $-1 $-1 $347 $31 $-1 $348 reversed single #
loop $-1 $-1 $149 $143 #
plane-surface $-1 0 0 9.2699368193462224 0 0 1 1 0 0 forward_v I I I I #
coedge $-1 $349 $350 $351 $352 reversed $144 $-1 #
coedge $-1 $353 $146 $148 $244 forward $90 $-1 #
coedge $-1 $146 $353 $349 $354 forward $90 $-1 #
coedge $-1 $351 $149 $146 $241 forward $235 $-1 #
edge $-1 $247 4.8354250999800499 $355 11.096327585670558 $240 $356 forward 7 unknown #
coedge $-1 $357 $358 $147 $243 forward $347 $-1 #
edge $-1 $359 -19.98420780823805 $246 -15.702551360715217 $242 $360 forward 7 unknown #
edge $-1 $247 -5.1052899318354052 $359 -1.2808562293387176e-014 $148 $361 forward 7 unknown #
coedge $-1 $149 $351 $357 $362 forward $235 $-1 #
vertex $-1 $150 $363 #
vertex $-1 $150 $364 #
straight-curve $-1 -55.249627371788691 12.801301442805354 9.2699368193462242 1 0 0 I I #
coedge $-1 $249 $249 $-1 $365 reversed $153 $-1 #
edge $-1 $366 0 $366 6.2831853071796004 $154 $367 forward 7 unknown #
vertex $-1 $157 $368 #
ellipse-curve $-1 -39.881741415449007 15.931752685650608 7.1291085955848024 -0.83867057594974714 0 0.54463902268945019 0.54463902268945019 0 0.83867057594974714 1 I I #
face $-1 $-1 $265 $33 $-1 $369 forward single #
loop $-1 $-1 $370 $158 #
plane-surface $-1 41.272011474959562 0 0 -1 0 0 0 0 1 forward_v I I I I #
coedge $-1 $371 $372 $373 $374 reversed $159 $-1 #
coedge $-1 $375 $161 $163 $263 forward $99 $-1 #
coedge $-1 $161 $375 $371 $376 forward $99 $-1 #
coedge $-1 $373 $164 $161 $260 forward $265 $-1 #
edge $-1 $267 -2.7129196276301304 $377 4.7528284496473905 $259 $378 forward 7 unknown #
coedge $-1 $379 $380 $162 $262 forward $254 $-1 #
edge $-1 $381 -58.265553066938402 $266 -49.181607598292743 $261 $382 forward 7 unknown #
edge $-1 $267 69.467169998550986 $381 82.54402294991911 $163 $383 forward 7 unknown #
coedge $-1 $164 $373 $379 $384 forward $265 $-1 #
loop $-1 $-1 $373 $253 #
vertex $-1 $262 $385 #
vertex $-1 $165 $386 #
straight-curve $-1 19.617354142329528 1.6929652166215003 9.2699368193462206 -1 0 0 I I #
coedge $-1 $269 $269 $-1 $387 reversed $168 $-1 #
edge $-1 $388 0 $388 6.2831853071796004 $169 $389 forward 7 unknown #
vertex $-1 $172 $390 #
ellipse-curve $-1 36.568661130939446 -3.6397119814338694 4.7279640850233946 0.69465837861970381 0 0.71933979245794832 0.71933979245794832 0 -0.69465837861970381 1 I I #
coedge $-1 $273 $273 $-1 $391 reversed $175 $-1 #
edge $-1 $392 0 $392 6.2831853071796004 $176 $393 forward 7 unknown #
vertex $-1 $179 $394 #
ellipse-curve $-1 36.568661130939446 -0.44010566260064721 4.7279640850233946 0.69465837861970381 0 0.71933979245794832 0.71933979245794832 0 -0.69465837861970381 1 I I #
face $-1 $-1 $195 $27 $-1 $395 reversed single #
loop $-1 $-1 $293 $180 #
plane-surface $-1 0 22.20932247484884 0 0 -1 0 0 0 -1 forward_v I I I I #
coedge $-1 $396 $291 $294 $397 forward $181 $-1 #
coedge $-1 $297 $183 $184 $285 reversed $113 $-1 #
coedge $-1 $291 $396 $183 $283 reversed $181 $-1 #
edge $-1 $298 -9.2699368193462224 $398 9.2699368193462224 $282 $399 forward 7 unknown #
coedge $-1 $185 $184 $396 $400 forward $73 $-1 #
edge $-1 $289 -41.272011474959562 $398 41.272011474959562 $281 $401 forward 7 unknown #
coedge $-1 $294 $293 $185 $287 reversed $278 $-1 #
edge $-1 $402 -41.272011474959562 $288 41.272011474959562 $286 $403 forward 7 unknown #
vertex $-1 $187 $404 #
vertex $-1 $300 $405 #
straight-curve $-1 41.272011474959562 0 -9.2699368193462224 0 -1 0 I I #
coedge $-1 $280 $282 $188 $292 reversed $181 $-1 #
edge $-1 $295 -22.20932247484884 $298 22.20932247484884 $291 $406 forward 7 unknown #
coedge $-1 $286 $189 $194 $301 forward $278 $-1 #
coedge $-1 $189 $286 $280 $397 reversed $278 $-1 #
vertex $-1 $190 $407 #
straight-curve $-1 0 22.20932247484884 9.2699368193462224 -1 0 0 I I #
coedge $-1 $191 $281 $193 $300 reversed $113 $-1 #
vertex $-1 $292 $408 #
straight-curve $-1 0 -22.20932247484884 9.2699368193462224 1 0 0 I I #
edge $-1 $196 -9.2699368193462224 $289 9.2699368193462224 $193 $409 forward 7 unknown #
edge $-1 $197 -9.2699368193462224 $288 9.2699368193462224 $194 $410 forward 7 unknown #
point $-1 41.272011474959562 -22.20932247484884 9.2699368193462224 #
point $-1 41.272011474959562 22.20932247484884 9.2699368193462224 #
face $-1 $-1 $411 $28 $-1 $412 reversed single #
loop $-1 $-1 $209 $199 #
plane-surface $-1 0 -22.20932247484884 0 0 1 0 0 0 1 forward_v I I I I #
coedge $-1 $413 $202 $311 $414 forward $121 $-1 #
coedge $-1 $202 $413 $415 $416 forward $121 $-1 #
edge $-1 $417 -41.272011474959562 $312 41.272011474959562 $202 $418 forward 7 unknown #
coedge $-1 $204 $203 $419 $420 reversed $77 $-1 #
coedge $-1 $205 $211 $307 $414 reversed $200 $-1 #
vertex $-1 $414 $421 #
straight-curve $-1 41.272011474959562 -14.385877154795113 -3.4531766505161565 0 0 1 I I #
coedge $-1 $419 $422 $207 $315 forward $411 $-1 #
edge $-1 $320 -13.060522567437852 $316 -5.2370772473841249 $314 $423 forward 7 unknown #
vertex $-1 $315 $424 #
straight-curve $-1 0 -14.385877154795113 -4.5427697827184037 -1 0 0 I I #
coedge $-1 $425 $209 $422 $426 forward $305 $-1 #
coedge $-1 $209 $425 $211 $322 reversed $305 $-1 #
vertex $-1 $426 $427 #
straight-curve $-1 0 -22.20932247484884 -4.5427697827184037 -1 0 0 I I #
edge $-1 $213 4.5427697827184037 $428 9.2699368193462224 $211 $429 forward 7 unknown #
point $-1 41.272011474959562 -14.385877154795113 -4.5427697827184037 #
point $-1 41.272011474959562 -22.20932247484884 -4.5427697827184037 #
loop $-1 $-1 $223 $215 #
plane-surface $-1 -41.272011474959562 0 0 1 0 0 0 0 -1 forward_v I I I I #
coedge $-1 $328 $218 $220 $332 reversed $129 $-1 #
coedge $-1 $218 $327 $430 $431 reversed $129 $-1 #
coedge $-1 $226 $221 $218 $330 forward $216 $-1 #
edge $-1 $333 -16.758156015850247 $432 -13.977615896829128 $329 $433 forward 7 unknown #
coedge $-1 $220 $219 $336 $434 reversed $81 $-1 #
edge $-1 $435 1.2808562293387176e-014 $333 5.1052899318354052 $327 $436 forward 7 unknown #
vertex $-1 $222 $437 #
straight-curve $-1 -38.491471355938444 -4.054153682798443 9.2699368193462224 0 1 0 I I #
coedge $-1 $430 $223 $226 $340 reversed $325 $-1 #
coedge $-1 $223 $430 $331 $434 forward $325 $-1 #
vertex $-1 $224 $438 #
straight-curve $-1 -41.272011474959562 -11.23875860844214 24.97248818006144 0 0 1 I I #
straight-curve $-1 -41.272011474959569 -11.23875860844214 4.9882803718233788 -0.54463902268945019 0 -0.83867057594974714 I I #
edge $-1 $432 4.977856122751632 $227 11.23875860844214 $335 $439 forward 7 unknown #
point $-1 -41.272011474959562 -11.23875860844214 9.2699368193462224 #
point $-1 -38.491471355938444 -11.23875860844214 9.2699368193462224 #
edge $-1 $440 1 $440 0 $230 $-1 forward 7 unknown #
vertex $-1 $231 $441 #
ellipse-curve $-1 -36.62242599192556 -8.108307365596886 5.0124844790248497 -0.83867057594974714 0 0.54463902268945019 0.54463902268945019 0 0.83867057594974714 1 I I #
point $-1 -39.337102392759554 -8.108307365596886 7.9677791715345485 #
loop $-1 $-1 $242 $234 #
plane-surface $-1 -41.272011474959562 0 0 1 0 0 0 0 -1 forward_v I I I I #
coedge $-1 $350 $237 $239 $354 reversed $144 $-1 #
coedge $-1 $237 $349 $442 $443 reversed $144 $-1 #
coedge $-1 $245 $240 $237 $352 forward $235 $-1 #
edge $-1 $355 -16.758156015850247 $444 -13.977615896829128 $351 $445 forward 7 unknown #
coedge $-1 $239 $238 $358 $446 reversed $90 $-1 #
edge $-1 $447 1.2808562293387176e-014 $355 5.1052899318354052 $349 $448 forward 7 unknown #
vertex $-1 $241 $449 #
straight-curve $-1 -38.491471355938444 7.9658763428253039 9.2699368193462224 0 1 0 I I #
coedge $-1 $442 $242 $245 $362 reversed $347 $-1 #
coedge $-1 $242 $442 $353 $446 forward $347 $-1 #
vertex $-1 $243 $450 #
straight-curve $-1 -41.272011474959562 12.801301442805354 24.97248818006144 0 0 1 I I #
straight-curve $-1 -41.272011474959569 12.801301442805354 4.9882803718233788 -0.54463902268945019 0 -0.83867057594974714 I I #
edge $-1 $444 -19.062203928495862 $246 -12.801301442805354 $357 $451 forward 7 unknown #
point $-1 -41.272011474959562 12.801301442805354 9.2699368193462224 #
point $-1 -38.491471355938444 12.801301442805354 9.2699368193462224 #
edge $-1 $452 1 $452 0 $249 $-1 forward 7 unknown #
vertex $-1 $250 $453 #
ellipse-curve $-1 -36.62242599192556 15.931752685650608 5.0124844790248497 -0.83867057594974714 0 0.54463902268945019 0.54463902268945019 0 0.83867057594974714 1 I I #
point $-1 -39.337102392759554 15.931752685650608 7.9677791715345485 #
plane-surface $-1 0 0 9.2699368193462224 0 0 1 1 0 0 forward_v I I I I #
coedge $-1 $380 $379 $372 $454 forward $254 $-1 #
coedge $-1 $372 $256 $258 $376 reversed $159 $-1 #
coedge $-1 $256 $371 $370 $454 reversed $159 $-1 #
coedge $-1 $264 $259 $256 $374 forward $265 $-1 #
edge $-1 $377 12.247956644589788 $455 21.654657332630034 $373 $456 forward 7 unknown #
coedge $-1 $258 $257 $380 $457 reversed $99 $-1 #
edge $-1 $458 -82.54402294991911 $377 -69.467169998550986 $371 $459 forward 7 unknown #
vertex $-1 $260 $460 #
straight-curve $-1 31.865310786919324 -1.01995441100863 9.2699368193462206 0 -1 0 I I #
coedge $-1 $370 $261 $264 $384 reversed $254 $-1 #
coedge $-1 $261 $370 $375 $457 forward $254 $-1 #
vertex $-1 $262 $461 #
straight-curve $-1 41.272011474959562 1.6929652166215003 58.451544417638964 0 0 1 I I #
straight-curve $-1 -18.105188862479373 1.6929652166215003 57.525888497838991 0.71933979245794832 0 -0.69465837861970381 I I #
edge $-1 $455 -5.7727828606560205 $266 1.6929652166215003 $379 $462 forward 7 unknown #
point $-1 41.272011474959562 1.6929652166215003 9.2699368193462224 #
point $-1 31.865310786919316 1.6929652166215003 9.2699368193462206 #
edge $-1 $463 1 $463 0 $269 $-1 forward 7 unknown #
vertex $-1 $270 $464 #
ellipse-curve $-1 35.153671248406027 -3.6397119814338694 3.2626992012193767 0.69465837861970381 0 0.71933979245794832 0.71933979245794832 0 -0.69465837861970381 1 I I #
point $-1 37.288000923397384 -3.6397119814338694 4.0333057064036764 #
edge $-1 $465 1 $465 0 $273 $-1 forward 7 unknown #
vertex $-1 $274 $466 #
ellipse-curve $-1 35.153671248406027 -0.44010566260064721 3.2626992012193767 0.69465837861970381 0 0.71933979245794832 0.71933979245794832 0 -0.69465837861970381 1 I I #
point $-1 37.288000923397384 -0.44010566260064721 4.0333057064036764 #
plane-surface $-1 41.272011474959562 0 0 -1 0 0 0 0 1 forward_v I I I I #
coedge $-1 $282 $280 $284 $400 reversed $181 $-1 #
edge $-1 $295 -9.2699368193462224 $402 9.2699368193462224 $294 $467 forward 7 unknown #
vertex $-1 $400 $468 #
straight-curve $-1 -41.272011474959562 -22.20932247484884 0 0 0 -1 I I #
edge $-1 $398 -22.20932247484884 $402 22.20932247484884 $396 $469 forward 7 unknown #
straight-curve $-1 0 -22.20932247484884 -9.2699368193462224 -1 0 0 I I #
vertex $-1 $287 $470 #
straight-curve $-1 0 22.20932247484884 -9.2699368193462224 1 0 0 I I #
point $-1 41.272011474959562 22.20932247484884 -9.2699368193462224 #
point $-1 41.272011474959562 -22.20932247484884 -9.2699368193462224 #
straight-curve $-1 -41.272011474959562 0 9.2699368193462224 0 -1 0 I I #
point $-1 -41.272011474959562 22.20932247484884 9.2699368193462224 #
point $-1 -41.272011474959562 -22.20932247484884 9.2699368193462224 #
straight-curve $-1 41.272011474959562 -22.20932247484884 0 0 0 -1 I I #
straight-curve $-1 41.272011474959562 22.20932247484884 0 0 0 -1 I I #
loop $-1 $-1 $419 $304 #
plane-surface $-1 -41.272011474959562 0 0 1 0 0 0 0 -1 forward_v I I I I #
coedge $-1 $308 $307 $425 $471 forward $121 $-1 #
edge $-1 $312 14.385877154795113 $428 22.20932247484884 $311 $472 forward 7 unknown #
coedge $-1 $422 $419 $308 $416 reversed $411 $-1 #
edge $-1 $473 -22.20932247484884 $417 -14.385877154795113 $415 $474 forward 7 unknown #
vertex $-1 $420 $475 #
straight-curve $-1 0 -14.385877154795113 -9.2699368193462224 1 0 0 I I #
coedge $-1 $415 $314 $310 $420 forward $411 $-1 #
edge $-1 $316 1.0895931322022472 $417 5.8167601688300659 $419 $476 forward 7 unknown #
point $-1 41.272011474959562 -14.385877154795113 -9.2699368193462224 #
coedge $-1 $314 $415 $318 $426 reversed $411 $-1 #
straight-curve $-1 -41.272011474959562 -9.1487999074109876 -4.5427697827184037 0 1 0 I I #
point $-1 -41.272011474959562 -14.385877154795113 -4.5427697827184037 #
coedge $-1 $319 $318 $413 $471 reversed $305 $-1 #
edge $-1 $320 4.5427697827184037 $473 9.2699368193462224 $422 $477 forward 7 unknown #
point $-1 -41.272011474959562 -22.20932247484884 -4.5427697827184037 #
vertex $-1 $322 $478 #
straight-curve $-1 41.272011474959562 -22.20932247484884 0 0 0 -1 I I #
coedge $-1 $336 $335 $328 $431 forward $325 $-1 #
edge $-1 $432 15.702551360715217 $435 19.98420780823805 $430 $479 forward 7 unknown #
vertex $-1 $340 $480 #
straight-curve $-1 -55.249627371788691 -4.977856122751632 9.2699368193462242 -1 0 0 I I #
edge $-1 $435 0.92370243995318901 $337 7.184604925643697 $336 $481 forward 7 unknown #
vertex $-1 $434 $482 #
straight-curve $-1 -41.272011474959569 -4.977856122751632 4.9882803718233788 0.54463902268945019 0 0.83867057594974714 I I #
point $-1 -38.491471355938444 -4.977856122751632 9.2699368193462224 #
point $-1 -41.272011474959562 -11.23875860844214 4.9882803718233895 #
straight-curve $-1 -41.272011474959562 0 9.2699368193462224 0 -1 0 I I #
vertex $-1 $343 $483 #
point $-1 -36.077786969236108 -8.108307365596886 5.8511550549745968 #
coedge $-1 $358 $357 $350 $443 forward $347 $-1 #
edge $-1 $444 15.702551360715217 $447 19.98420780823805 $442 $484 forward 7 unknown #
vertex $-1 $362 $485 #
straight-curve $-1 -55.249627371788691 19.062203928495862 9.2699368193462242 -1 0 0 I I #
edge $-1 $447 -11.096327585670558 $359 -4.8354250999800499 $358 $486 forward 7 unknown #
vertex $-1 $446 $487 #
straight-curve $-1 -41.272011474959569 19.062203928495862 4.9882803718233788 0.54463902268945019 0 0.83867057594974714 I I #
point $-1 -38.491471355938444 19.062203928495862 9.2699368193462224 #
point $-1 -41.272011474959562 12.801301442805354 4.9882803718233895 #
straight-curve $-1 -41.272011474959562 0 9.2699368193462224 0 -1 0 I I #
vertex $-1 $365 $488 #
point $-1 -36.077786969236108 15.931752685650608 5.8511550549745968 #
edge $-1 $455 49.181607598292743 $458 58.265553066938402 $370 $489 forward 7 unknown #
vertex $-1 $384 $490 #
straight-curve $-1 19.617354142329528 -5.7727828606560205 9.2699368193462206 1 0 0 I I #
edge $-1 $458 -4.7528284496473905 $381 2.7129196276301304 $380 $491 forward 7 unknown #
vertex $-1 $457 $492 #
straight-curve $-1 -18.105188862479373 -5.7727828606560205 57.525888497838991 -0.71933979245794832 0 0.69465837861970381 I I #
point $-1 31.865310786919316 -5.7727828606560205 9.2699368193462206 #
point $-1 41.272011474959562 1.6929652166215003 0.1859913507005615 #
straight-curve $-1 41.272011474959562 0 9.2699368193462224 0 1 0 I I #
vertex $-1 $387 $493 #
point $-1 35.873011040863972 -3.6397119814338694 2.5680408225996731 #
vertex $-1 $391 $494 #
point $-1 35.873011040863972 -0.44010566260064721 2.5680408225996731 #
straight-curve $-1 -41.272011474959562 22.20932247484884 0 0 0 -1 I I #
point $-1 -41.272011474959562 -22.20932247484884 -9.2699368193462224 #
straight-curve $-1 -41.272011474959562 0 -9.2699368193462224 0 1 0 I I #
point $-1 -41.272011474959562 22.20932247484884 -9.2699368193462224 #
edge $-1 $428 -41.272011474959562 $473 41.272011474959562 $425 $495 forward 7 unknown #
straight-curve $-1 41.272011474959562 0 -9.2699368193462224 0 -1 0 I I #
vertex $-1 $416 $496 #
straight-curve $-1 -41.272011474959562 0 -9.2699368193462224 0 1 0 I I #
point $-1 -41.272011474959562 -14.385877154795113 -9.2699368193462224 #
straight-curve $-1 -41.272011474959562 -14.385877154795113 -3.4531766505161565 0 0 -1 I I #
straight-curve $-1 -41.272011474959562 -22.20932247484884 0 0 0 -1 I I #
point $-1 41.272011474959562 -22.20932247484884 -9.2699368193462224 #
straight-curve $-1 -41.272011474959562 -4.977856122751632 24.97248818006144 0 0 -1 I I #
point $-1 -41.272011474959562 -4.977856122751632 9.2699368193462224 #
straight-curve $-1 -41.272011474959562 -4.054153682798443 4.9882803718233983 0 -1 0 I I #
point $-1 -41.272011474959562 -4.977856122751632 4.9882803718233895 #
point $-1 -35.783755415975811 -8.108307365596886 4.4678454563353993 #
straight-curve $-1 -41.272011474959562 19.062203928495862 24.97248818006144 0 0 -1 I I #
point $-1 -41.272011474959562 19.062203928495862 9.2699368193462224 #
straight-curve $-1 -41.272011474959562 7.9658763428253039 4.9882803718233983 0 -1 0 I I #
point $-1 -41.272011474959562 19.062203928495862 4.9882803718233895 #
point $-1 -35.783755415975811 15.931752685650608 4.4678454563353993 #
straight-curve $-1 41.272011474959562 -5.7727828606560205 58.451544417638964 0 0 -1 I I #
point $-1 41.272011474959562 -5.7727828606560205 9.2699368193462224 #
straight-curve $-1 41.272011474959555 -1.01995441100863 0.1859913507005686 0 1 0 I I #
point $-1 41.272011474959562 -5.7727828606560205 0.1859913507005615 #
point $-1 34.459012869786321 -3.6397119814338694 2.5433594087614289 #
point $-1 34.459012869786321 -0.44010566260064721 2.5433594087614289 #
straight-curve $-1 0 -22.20932247484884 -9.2699368193462224 -1 0 0 I I #
point $-1 -41.272011474959562 -22.20932247484884 -9.2699368193462224 #
End-of-ACIS-data 