500 0 5 0           
7 Unknown 11 ACIS 5.0 NT 24 Fri Mar 26 20:31:28 1999 
-1 9.9999999999999995e-007 1e-010 
body $-1 $5 $-1 $6 #
body $-1 $7 $-1 $8 #
body $-1 $9 $-1 $10 #
body $-1 $11 $-1 $12 #
body $-1 $13 $-1 $14 #
lump $-1 $-1 $15 $0 #
transform $-1 1 0 0 0 1 0 0 0 1 52.764061403241065 22.101744083500012 9.7258601066437276 1 rotate no_reflect no_shear #
lump $-1 $-1 $16 $1 #
transform $-1 1 0 0 0 1 0 0 0 1 52.764061403241065 22.101744083500012 9.7258601066437276 1 rotate no_reflect no_shear #
lump $-1 $-1 $17 $2 #
transform $-1 1 0 0 0 1 0 0 0 1 52.764061403241065 22.101744083500012 9.7258601066437276 1 rotate no_reflect no_shear #
lump $-1 $-1 $18 $3 #
transform $-1 1 0 0 0 1 0 0 0 1 52.764061403241065 22.101744083500012 9.7258601066437276 1 rotate no_reflect no_shear #
lump $-1 $-1 $19 $4 #
transform $-1 1 0 0 0 1 0 0 0 1 52.764061403241065 22.101744083500012 9.7258601066437276 1 rotate no_reflect no_shear #
shell $-1 $-1 $-1 $20 $-1 $5 #
shell $-1 $-1 $-1 $21 $-1 $7 #
shell $-1 $-1 $-1 $22 $-1 $9 #
shell $-1 $-1 $-1 $23 $-1 $11 #
shell $-1 $-1 $-1 $24 $-1 $13 #
face $-1 $25 $26 $15 $-1 $27 forward single #
face $-1 $28 $29 $16 $-1 $30 forward single #
face $-1 $31 $32 $17 $-1 $33 forward single #
face $-1 $34 $35 $18 $-1 $36 reversed single #
face $-1 $37 $38 $19 $-1 $39 reversed single #
face $-1 $40 $41 $15 $-1 $42 reversed single #
loop $-1 $-1 $43 $20 #
plane-surface $-1 0 0 9.7258601066437276 0 0 1 1 0 0 forward_v I I I I #
face $-1 $44 $45 $16 $-1 $46 forward single #
loop $-1 $-1 $47 $21 #
plane-surface $-1 -49.422146280374982 -17.283770198632759 0 1 0 0 0 0 -1 forward_v I I I I #
face $-1 $48 $49 $17 $-1 $50 forward single #
loop $-1 $-1 $51 $22 #
plane-surface $-1 37.200056181924303 81.493631735508799 99.103136504375158 1 0 0 0 -0.80901700255871778 -0.5877852410284794 forward_v I I I I #
face $-1 $52 $53 $18 $-1 $54 reversed single #
loop $-1 $55 $56 $23 #
cone-surface $-1 41.646914816586239 18.118338776123409 4.8459499071722067 0 -0.80901700255871778 -0.5877852410284794 1.5 0 0 1 I I 0 1 1.5 forward I I I I #
face $-1 $57 $58 $19 $-1 $59 reversed single #
loop $-1 $60 $61 $24 #
cone-surface $-1 48.317202768579129 18.118338776123409 4.8459499071722067 0 -0.80901700255871778 -0.5877852410284794 1.5 0 0 1 I I 0 1 1.5 forward I I I I #
face $-1 $62 $63 $15 $-1 $64 reversed single #
loop $-1 $-1 $65 $25 #
plane-surface $-1 0 0 -9.7258601066437276 0 0 1 1 0 0 forward_v I I I I #
coedge $-1 $66 $67 $68 $69 forward $26 $-1 #
face $-1 $70 $71 $16 $-1 $72 forward single #
loop $-1 $-1 $73 $28 #
plane-surface $-1 -46.943442549042508 -12.465796313765507 0 0 -1 0 0 0 -1 forward_v I I I I #
coedge $-1 $74 $75 $76 $77 reversed $29 $-1 #
face $-1 $78 $79 $17 $-1 $80 forward single #
loop $-1 $-1 $81 $31 #
plane-surface $-1 44.982058792582684 -3.8804138630396352 37.075263405284083 0 0.80901700255871778 0.5877852410284794 1 0 0 forward_v I I I I #
coedge $-1 $82 $83 $84 $85 reversed $32 $-1 #
face $-1 $86 $87 $18 $-1 $88 forward single #
loop $-1 $89 $90 $34 #
cone-surface $-1 41.646914816586239 16.583997674977144 3.7311858773622131 0 -0.80901700255871778 -0.5877852410284794 0.75 0 0 1 I I -0.70710678118654757 0.70710678118654757 0.75 forward I I I I #
loop $-1 $-1 $91 $23 #
coedge $-1 $56 $56 $92 $93 reversed $35 $-1 #
face $-1 $94 $95 $19 $-1 $96 reversed single #
loop $-1 $97 $98 $37 #
cone-surface $-1 48.317202768579129 16.583997674977144 3.7311858773622131 0 -0.80901700255871778 -0.5877852410284794 0.75 0 0 1 I I -0.70710678118654757 0.70710678118654757 0.75 forward I I I I #
loop $-1 $-1 $99 $24 #
coedge $-1 $61 $61 $100 $101 reversed $38 $-1 #
face $-1 $102 $103 $15 $-1 $104 reversed single #
loop $-1 $-1 $105 $40 #
plane-surface $-1 0 -22.101744083500012 0 0 1 0 0 0 1 forward_v I I I I #
coedge $-1 $106 $107 $108 $109 forward $41 $-1 #
coedge $-1 $110 $43 $111 $112 forward $26 $-1 #
coedge $-1 $43 $110 $113 $114 forward $26 $-1 #
coedge $-1 $115 $116 $43 $69 reversed $117 $-1 #
edge $-1 $118 -22.101744083500012 $119 22.101744083500012 $68 $120 forward 7 unknown #
face $-1 $121 $122 $16 $-1 $123 forward single #
loop $-1 $-1 $124 $44 #
plane-surface $-1 -44.464738817710035 -17.283770198632759 0 -1 0 0 0 0 1 forward_v I I I I #
coedge $-1 $125 $126 $127 $128 reversed $45 $-1 #
coedge $-1 $129 $47 $130 $131 reversed $29 $-1 #
coedge $-1 $47 $129 $132 $133 reversed $29 $-1 #
coedge $-1 $126 $125 $47 $77 forward $45 $-1 #
edge $-1 $134 -9.7258601066437276 $135 9.7258601066437276 $76 $136 forward 7 unknown #
face $-1 $137 $138 $17 $-1 $139 reversed single #
loop $-1 $-1 $140 $48 #
plane-surface $-1 0 0 9.7258601066437276 0 0 1 1 0 0 forward_v I I I I #
coedge $-1 $141 $142 $140 $143 reversed $49 $-1 #
coedge $-1 $83 $51 $142 $144 forward $32 $-1 #
coedge $-1 $51 $82 $145 $146 reversed $32 $-1 #
coedge $-1 $147 $140 $51 $85 forward $79 $-1 #
edge $-1 $148 -24.75672570055314 $149 -18.645071784254387 $84 $150 forward 7 unknown #
face $-1 $151 $152 $18 $-1 $153 forward single #
loop $-1 $-1 $154 $52 #
plane-surface $-1 37.200056181924303 81.493631735508799 99.103136504375158 1 0 0 0 -0.80901700255871778 -0.5877852410284794 forward_v I I I I #
loop $-1 $-1 $155 $34 #
coedge $-1 $90 $90 $91 $156 forward $53 $-1 #
coedge $-1 $91 $91 $90 $156 reversed $55 $-1 #
coedge $-1 $92 $92 $56 $93 forward $152 $-1 #
edge $-1 $157 8.2322526539656455e-016 $157 6.2831853071796013 $92 $158 forward 7 unknown #
face $-1 $159 $160 $19 $-1 $161 reversed single #
loop $-1 $162 $163 $57 #
cone-surface $-1 41.646914816586239 18.118338776123409 4.8459499071722067 0 -0.80901700255871778 -0.5877852410284794 1.5 0 0 1 I I 0 1 1.5 forward I I I I #
loop $-1 $-1 $164 $37 #
coedge $-1 $98 $98 $99 $165 forward $58 $-1 #
coedge $-1 $99 $99 $98 $165 reversed $60 $-1 #
coedge $-1 $100 $100 $61 $101 forward $166 $-1 #
edge $-1 $167 8.2322526539656455e-016 $167 6.2831853071796013 $100 $168 forward 7 unknown #
face $-1 $169 $170 $15 $-1 $171 reversed single #
loop $-1 $-1 $172 $62 #
plane-surface $-1 -52.764061403241065 0 0 1 0 0 0 0 -1 forward_v I I I I #
coedge $-1 $173 $113 $174 $175 forward $63 $-1 #
coedge $-1 $176 $65 $173 $177 forward $41 $-1 #
coedge $-1 $65 $176 $178 $179 forward $41 $-1 #
coedge $-1 $116 $115 $65 $109 reversed $117 $-1 #
edge $-1 $180 -22.101744083500012 $181 22.101744083500012 $108 $182 forward 7 unknown #
coedge $-1 $67 $66 $183 $184 forward $26 $-1 #
coedge $-1 $185 $186 $66 $112 reversed $170 $-1 #
edge $-1 $119 -52.764061403241065 $187 52.764061403241065 $111 $188 forward 7 unknown #
coedge $-1 $105 $189 $67 $114 reversed $63 $-1 #
edge $-1 $190 -52.764061403241065 $118 52.764061403241065 $113 $191 forward 7 unknown #
coedge $-1 $108 $68 $189 $192 forward $117 $-1 #
coedge $-1 $68 $108 $185 $193 reversed $117 $-1 #
loop $-1 $-1 $115 $169 #
vertex $-1 $69 $194 #
vertex $-1 $69 $195 #
straight-curve $-1 52.764061403241065 0 9.7258601066437276 0 1 0 I I #
face $-1 $196 $197 $16 $-1 $198 reversed single #
loop $-1 $-1 $130 $70 #
plane-surface $-1 0 0 9.7258601066437276 0 0 1 1 0 0 forward_v I I I I #
coedge $-1 $199 $200 $201 $202 reversed $71 $-1 #
coedge $-1 $76 $73 $203 $204 reversed $45 $-1 #
coedge $-1 $73 $76 $205 $206 reversed $45 $-1 #
coedge $-1 $200 $199 $73 $128 forward $71 $-1 #
edge $-1 $207 -9.7258601066437276 $208 9.7258601066437276 $127 $209 forward 7 unknown #
coedge $-1 $75 $74 $210 $211 reversed $29 $-1 #
coedge $-1 $203 $212 $74 $131 forward $122 $-1 #
edge $-1 $213 -13.459858984183629 $134 -3.8239112144491276 $130 $214 forward 7 unknown #
coedge $-1 $215 $205 $75 $133 forward $216 $-1 #
edge $-1 $135 3.8239112144491276 $217 13.459858984183629 $132 $218 forward 7 unknown #
vertex $-1 $131 $219 #
vertex $-1 $133 $220 #
straight-curve $-1 -49.422146280374982 -12.465796313765507 0 0 0 -1 I I #
face $-1 $221 $222 $17 $-1 $223 forward single #
loop $-1 $-1 $145 $78 #
plane-surface $-1 0 22.101744083500012 0 0 -1 0 0 0 -1 forward_v I I I I #
coedge $-1 $84 $224 $81 $143 forward $79 $-1 #
coedge $-1 $225 $81 $226 $227 reversed $49 $-1 #
coedge $-1 $81 $225 $82 $144 reversed $49 $-1 #
edge $-1 $228 -30.273032006949723 $148 -14.709026785632961 $140 $229 forward 7 unknown #
edge $-1 $148 33.805721279208043 $230 44.203488167000025 $82 $231 forward 7 unknown #
coedge $-1 $232 $233 $83 $146 forward $138 $-1 #
edge $-1 $149 39.82570814554385 $230 48.237678346409602 $145 $234 forward 7 unknown #
coedge $-1 $235 $84 $233 $236 forward $79 $-1 #
vertex $-1 $143 $237 #
vertex $-1 $236 $238 #
straight-curve $-1 37.200056181924303 40.7468158677544 9.7258601066437294 0 1 0 I I #
face $-1 $239 $240 $18 $-1 $241 forward single #
loop $-1 $242 $92 $86 #
plane-surface $-1 44.982058792582684 -3.8804138630396352 37.075263405284083 0 0.80901700255871778 0.5877852410284794 1 0 0 forward_v I I I I #
coedge $-1 $243 $244 $245 $246 reversed $87 $-1 #
coedge $-1 $155 $155 $-1 $247 forward $89 $-1 #
edge $-1 $248 0 $248 6.2831853071796004 $90 $249 forward 7 unknown #
vertex $-1 $93 $250 #
ellipse-curve $-1 41.646914816586239 19.045917125350641 5.5198750062108477 0 -0.80901700255871778 -0.5877852410284794 1.5 0 0 1 I I #
face $-1 $251 $252 $19 $-1 $253 forward single #
loop $-1 $254 $255 $94 #
cone-surface $-1 41.646914816586239 16.583997674977144 3.7311858773622131 0 -0.80901700255871778 -0.5877852410284794 0.75 0 0 1 I I -0.70710678118654757 0.70710678118654757 0.75 forward I I I I #
loop $-1 $-1 $256 $57 #
coedge $-1 $163 $163 $257 $258 reversed $95 $-1 #
coedge $-1 $164 $164 $-1 $259 forward $97 $-1 #
edge $-1 $260 0 $260 6.2831853071796004 $98 $261 forward 7 unknown #
loop $-1 $262 $100 $251 #
vertex $-1 $101 $263 #
ellipse-curve $-1 48.317202768579129 19.045917125350641 5.5198750062108477 0 -0.80901700255871778 -0.5877852410284794 1.5 0 0 1 I I #
face $-1 $-1 $117 $15 $-1 $264 reversed single #
loop $-1 $-1 $185 $102 #
plane-surface $-1 0 22.101744083500012 0 0 -1 0 0 0 -1 forward_v I I I I #
coedge $-1 $265 $183 $186 $266 forward $103 $-1 #
coedge $-1 $189 $105 $106 $177 reversed $63 $-1 #
coedge $-1 $183 $265 $105 $175 reversed $103 $-1 #
edge $-1 $190 -9.7258601066437276 $267 9.7258601066437276 $174 $268 forward 7 unknown #
coedge $-1 $107 $106 $265 $269 forward $41 $-1 #
edge $-1 $181 -52.764061403241065 $267 52.764061403241065 $173 $270 forward 7 unknown #
coedge $-1 $186 $185 $107 $179 reversed $170 $-1 #
edge $-1 $271 -52.764061403241065 $180 52.764061403241065 $178 $272 forward 7 unknown #
vertex $-1 $109 $273 #
vertex $-1 $192 $274 #
straight-curve $-1 52.764061403241065 0 -9.7258601066437276 0 -1 0 I I #
coedge $-1 $172 $174 $110 $184 reversed $103 $-1 #
edge $-1 $187 -22.101744083500012 $190 22.101744083500012 $183 $275 forward 7 unknown #
coedge $-1 $178 $111 $116 $193 forward $170 $-1 #
coedge $-1 $111 $178 $172 $266 reversed $170 $-1 #
vertex $-1 $112 $276 #
straight-curve $-1 0 22.101744083500012 9.7258601066437276 -1 0 0 I I #
coedge $-1 $113 $173 $115 $192 reversed $63 $-1 #
vertex $-1 $184 $277 #
straight-curve $-1 0 -22.101744083500012 9.7258601066437276 1 0 0 I I #
edge $-1 $118 -9.7258601066437276 $181 9.7258601066437276 $115 $278 forward 7 unknown #
edge $-1 $119 -9.7258601066437276 $180 9.7258601066437276 $116 $279 forward 7 unknown #
point $-1 52.764061403241065 -22.101744083500012 9.7258601066437276 #
point $-1 52.764061403241065 22.101744083500012 9.7258601066437276 #
face $-1 $280 $216 $16 $-1 $281 reversed single #
loop $-1 $-1 $201 $121 #
plane-surface $-1 0 -22.101744083500012 0 0 1 0 0 0 1 forward_v I I I I #
coedge $-1 $127 $124 $282 $283 reversed $71 $-1 #
coedge $-1 $124 $127 $284 $285 reversed $71 $-1 #
coedge $-1 $286 $287 $124 $202 forward $197 $-1 #
edge $-1 $288 -9.7258601066437276 $289 9.7258601066437276 $201 $290 forward 7 unknown #
coedge $-1 $282 $130 $125 $204 forward $122 $-1 #
edge $-1 $134 -25.950425005853727 $207 -20.993017543188781 $203 $291 forward 7 unknown #
coedge $-1 $132 $284 $126 $206 forward $216 $-1 #
edge $-1 $208 20.993017543188781 $135 25.950425005853727 $205 $292 forward 7 unknown #
vertex $-1 $204 $293 #
vertex $-1 $206 $294 #
straight-curve $-1 -44.464738817710035 -12.465796313765507 0 0 0 -1 I I #
coedge $-1 $295 $296 $129 $211 forward $297 $-1 #
edge $-1 $217 -9.7258601066437276 $213 9.7258601066437276 $210 $298 forward 7 unknown #
coedge $-1 $130 $299 $295 $300 forward $122 $-1 #
vertex $-1 $211 $301 #
straight-curve $-1 -49.422146280374982 -8.6418850993163794 9.7258601066437276 0 1 0 I I #
coedge $-1 $302 $132 $296 $303 forward $216 $-1 #
loop $-1 $-1 $132 $196 #
vertex $-1 $303 $304 #
straight-curve $-1 -49.422146280374982 -8.6418850993163794 -9.7258601066437276 0 -1 0 I I #
point $-1 -49.422146280374982 -12.465796313765507 9.7258601066437276 #
point $-1 -49.422146280374982 -12.465796313765507 -9.7258601066437276 #
face $-1 $305 $306 $17 $-1 $307 forward single #
loop $-1 $-1 $308 $137 #
plane-surface $-1 -49.422146280374982 -17.283770198632759 0 1 0 0 0 0 -1 forward_v I I I I #
coedge $-1 $140 $309 $310 $311 forward $79 $-1 #
coedge $-1 $142 $141 $232 $312 reversed $49 $-1 #
coedge $-1 $310 $313 $141 $227 forward $314 $-1 #
edge $-1 $315 -28.0658039335026 $228 -17.668037045710619 $226 $316 forward 7 unknown #
vertex $-1 $227 $317 #
straight-curve $-1 22.491029396291342 15.990090167201259 9.7258601066437258 -1 0 0 I I #
vertex $-1 $312 $318 #
straight-curve $-1 37.200056181924303 -3.8804138630396352 37.075263405284083 0 0.5877852410284794 -0.80901700255871778 I I #
coedge $-1 $319 $145 $225 $312 forward $138 $-1 #
coedge $-1 $145 $320 $147 $236 reversed $138 $-1 #
straight-curve $-1 37.200056181924303 22.101744083500012 49.551568252187579 0 0 -1 I I #
coedge $-1 $321 $147 $322 $323 forward $79 $-1 #
edge $-1 $149 -37.200056181924303 $324 52.764061403241065 $233 $325 forward 7 unknown #
point $-1 37.200056181924303 15.990090167201259 9.7258601066437294 #
point $-1 37.200056181924303 22.101744083500012 9.7258601066437276 #
face $-1 $326 $327 $18 $-1 $328 reversed single #
loop $-1 $-1 $329 $151 #
plane-surface $-1 0 0 9.7258601066437276 0 0 1 1 0 0 forward_v I I I I #
loop $-1 $-1 $330 $86 #
coedge $-1 $244 $154 $331 $332 forward $87 $-1 #
coedge $-1 $154 $243 $333 $334 reversed $87 $-1 #
coedge $-1 $335 $329 $154 $246 forward $240 $-1 #
edge $-1 $336 -24.75672570055314 $337 -18.645071784254387 $245 $338 forward 7 unknown #
edge $-1 $339 1 $339 0 $155 $-1 forward 7 unknown #
vertex $-1 $156 $340 #
ellipse-curve $-1 41.646914816586239 17.190760426896183 4.1720248081335729 0 0.80901700255871778 0.5877852410284794 1.5 0 0 1 I I #
point $-1 43.146914816586239 19.045917125350631 5.5198750062108415 #
face $-1 $341 $166 $19 $-1 $342 forward single #
loop $-1 $-1 $343 $159 #
plane-surface $-1 37.200056181924303 81.493631735508799 99.103136504375158 1 0 0 0 -0.80901700255871778 -0.5877852410284794 forward_v I I I I #
loop $-1 $-1 $344 $94 #
coedge $-1 $255 $255 $256 $345 forward $160 $-1 #
coedge $-1 $256 $256 $255 $345 reversed $162 $-1 #
coedge $-1 $257 $257 $163 $258 forward $262 $-1 #
edge $-1 $346 8.2322526539656455e-016 $346 6.2831853071796013 $257 $347 forward 7 unknown #
edge $-1 $348 1 $348 0 $164 $-1 forward 7 unknown #
vertex $-1 $165 $349 #
ellipse-curve $-1 48.317202768579129 17.190760426896183 4.1720248081335729 0 0.80901700255871778 0.5877852410284794 1.5 0 0 1 I I #
loop $-1 $350 $257 $251 #
point $-1 49.817202768579129 19.045917125350631 5.5198750062108415 #
plane-surface $-1 52.764061403241065 0 0 -1 0 0 0 0 1 forward_v I I I I #
coedge $-1 $174 $172 $176 $269 reversed $103 $-1 #
edge $-1 $187 -9.7258601066437276 $271 9.7258601066437276 $186 $351 forward 7 unknown #
vertex $-1 $269 $352 #
straight-curve $-1 -52.764061403241065 -22.101744083500012 0 0 0 -1 I I #
edge $-1 $267 -22.101744083500012 $271 22.101744083500012 $265 $353 forward 7 unknown #
straight-curve $-1 0 -22.101744083500012 -9.7258601066437276 -1 0 0 I I #
vertex $-1 $179 $354 #
straight-curve $-1 0 22.101744083500012 -9.7258601066437276 1 0 0 I I #
point $-1 52.764061403241065 22.101744083500012 -9.7258601066437276 #
point $-1 52.764061403241065 -22.101744083500012 -9.7258601066437276 #
straight-curve $-1 -52.764061403241065 0 9.7258601066437276 0 -1 0 I I #
point $-1 -52.764061403241065 22.101744083500012 9.7258601066437276 #
point $-1 -52.764061403241065 -22.101744083500012 9.7258601066437276 #
straight-curve $-1 52.764061403241065 -22.101744083500012 0 0 0 -1 I I #
straight-curve $-1 52.764061403241065 22.101744083500012 0 0 0 -1 I I #
face $-1 $355 $297 $16 $-1 $198 reversed single #
plane-surface $-1 0 0 -9.7258601066437276 0 0 1 1 0 0 forward_v I I I I #
coedge $-1 $356 $203 $199 $283 forward $122 $-1 #
edge $-1 $207 3.8239112144491276 $288 13.459858984183629 $282 $357 forward 7 unknown #
coedge $-1 $205 $358 $200 $285 forward $216 $-1 #
edge $-1 $289 -13.459858984183629 $208 -3.8239112144491276 $284 $359 forward 7 unknown #
coedge $-1 $360 $201 $358 $361 reversed $197 $-1 #
coedge $-1 $201 $360 $356 $362 reversed $197 $-1 #
vertex $-1 $362 $363 #
vertex $-1 $202 $364 #
straight-curve $-1 -44.464738817710035 -22.101744083500012 0 0 0 -1 I I #
straight-curve $-1 -23.471721274521254 -12.465796313765507 9.7258601066437276 1 0 0 I I #
straight-curve $-1 -23.471721274521254 -12.465796313765507 -9.7258601066437276 -1 0 0 I I #
point $-1 -44.464738817710035 -12.465796313765507 9.7258601066437276 #
point $-1 -44.464738817710035 -12.465796313765507 -9.7258601066437276 #
coedge $-1 $365 $210 $212 $300 reversed $297 $-1 #
coedge $-1 $210 $365 $215 $303 reversed $297 $-1 #
loop $-1 $-1 $210 $280 #
straight-curve $-1 -49.422146280374982 -22.101744083500012 0 0 0 1 I I #
coedge $-1 $212 $366 $367 $368 forward $122 $-1 #
edge $-1 $369 -52.764061403241065 $213 -49.422146280374982 $295 $370 forward 7 unknown #
point $-1 -49.422146280374982 -22.101744083500009 9.7258601066437276 #
coedge $-1 $371 $215 $372 $373 forward $216 $-1 #
edge $-1 $217 49.422146280374982 $374 52.764061403241065 $296 $375 forward 7 unknown #
point $-1 -49.422146280374982 -22.101744083500009 -9.7258601066437276 #
face $-1 $376 $377 $17 $-1 $378 forward single #
loop $-1 $-1 $379 $221 #
plane-surface $-1 -46.943442549042508 -12.465796313765507 0 0 -1 0 0 0 -1 forward_v I I I I #
coedge $-1 $380 $381 $382 $383 reversed $222 $-1 #
coedge $-1 $224 $384 $385 $386 forward $79 $-1 #
coedge $-1 $387 $226 $224 $311 reversed $314 $-1 #
edge $-1 $388 -22.101744083500012 $228 15.990090167201259 $310 $389 forward 7 unknown #
edge $-1 $230 14.709026785632961 $315 30.273032006949723 $232 $390 forward 7 unknown #
coedge $-1 $226 $391 $319 $392 reversed $314 $-1 #
loop $-1 $-1 $226 $393 #
vertex $-1 $392 $394 #
straight-curve $-1 52.764061403241065 5.6050787537881419 24.019602478460918 0 -0.5877852410284794 0.80901700255871778 I I #
point $-1 52.764061403241065 15.990090167201259 9.7258601066437294 #
point $-1 37.200056181924303 22.101744083500012 1.3138899057779767 #
coedge $-1 $395 $232 $313 $392 forward $138 $-1 #
coedge $-1 $233 $395 $396 $397 reversed $138 $-1 #
coedge $-1 $398 $235 $399 $400 forward $79 $-1 #
coedge $-1 $396 $401 $235 $323 reversed $402 $-1 #
edge $-1 $324 -22.101744083500012 $403 22.101744083500012 $322 $404 forward 7 unknown #
vertex $-1 $236 $405 #
straight-curve $-1 0 22.101744083500012 9.7258601066437276 -1 0 0 I I #
face $-1 $406 $407 $18 $-1 $408 forward single #
loop $-1 $-1 $333 $239 #
plane-surface $-1 0 22.101744083500012 0 0 -1 0 0 0 -1 forward_v I I I I #
coedge $-1 $245 $409 $330 $410 forward $240 $-1 #
coedge $-1 $411 $331 $329 $410 reversed $242 $-1 #
coedge $-1 $330 $412 $243 $332 reversed $242 $-1 #
edge $-1 $336 33.805721279208043 $413 44.203488167000025 $243 $414 forward 7 unknown #
coedge $-1 $415 $416 $244 $334 forward $327 $-1 #
edge $-1 $337 39.82570814554385 $413 48.237678346409602 $333 $417 forward 7 unknown #
coedge $-1 $418 $245 $416 $419 forward $240 $-1 #
vertex $-1 $410 $420 #
vertex $-1 $419 $421 #
straight-curve $-1 37.200056181924303 40.7468158677544 9.7258601066437294 0 1 0 I I #
vertex $-1 $247 $422 #
point $-1 43.146914816586239 17.190760426896183 4.1720248081335729 #
face $-1 $423 $424 $19 $-1 $425 forward single #
plane-surface $-1 44.982058792582684 -3.8804138630396352 37.075263405284083 0 0.80901700255871778 0.5877852410284794 1 0 0 forward_v I I I I #
coedge $-1 $426 $427 $428 $429 reversed $252 $-1 #
coedge $-1 $344 $344 $-1 $430 forward $254 $-1 #
edge $-1 $431 0 $431 6.2831853071796004 $255 $432 forward 7 unknown #
vertex $-1 $258 $433 #
ellipse-curve $-1 41.646914816586239 19.045917125350641 5.5198750062108477 0 -0.80901700255871778 -0.5877852410284794 1.5 0 0 1 I I #
vertex $-1 $259 $434 #
point $-1 49.817202768579129 17.190760426896183 4.1720248081335729 #
loop $-1 $-1 $435 $251 #
straight-curve $-1 -52.764061403241065 22.101744083500012 0 0 0 -1 I I #
point $-1 -52.764061403241065 -22.101744083500012 -9.7258601066437276 #
straight-curve $-1 -52.764061403241065 0 -9.7258601066437276 0 1 0 I I #
point $-1 -52.764061403241065 22.101744083500012 -9.7258601066437276 #
face $-1 $436 $437 $16 $-1 $438 reversed single #
coedge $-1 $439 $282 $287 $362 forward $122 $-1 #
straight-curve $-1 -44.464738817710035 -8.6418850993163794 9.7258601066437276 0 -1 0 I I #
coedge $-1 $284 $440 $286 $361 forward $216 $-1 #
straight-curve $-1 -44.464738817710035 -8.6418850993163794 -9.7258601066437276 0 1 0 I I #
coedge $-1 $287 $286 $441 $442 reversed $197 $-1 #
edge $-1 $443 -52.764061403241065 $289 44.464738817710035 $286 $375 forward 7 unknown #
edge $-1 $288 -44.464738817710035 $444 52.764061403241065 $287 $370 forward 7 unknown #
point $-1 -44.464738817710035 -22.101744083500009 9.7258601066437276 #
point $-1 -44.464738817710035 -22.101744083500009 -9.7258601066437276 #
coedge $-1 $296 $295 $445 $446 forward $297 $-1 #
coedge $-1 $299 $439 $447 $448 forward $122 $-1 #
coedge $-1 $449 $445 $299 $368 reversed $437 $-1 #
edge $-1 $450 -22.101744083500012 $369 22.101744083500012 $367 $451 forward 7 unknown #
vertex $-1 $368 $452 #
straight-curve $-1 0 -22.101744083500012 9.7258601066437276 1 0 0 I I #
coedge $-1 $440 $302 $453 $454 forward $216 $-1 #
coedge $-1 $445 $449 $302 $373 reversed $437 $-1 #
edge $-1 $374 -22.101744083500012 $455 22.101744083500012 $372 $456 forward 7 unknown #
vertex $-1 $373 $457 #
straight-curve $-1 0 -22.101744083500012 -9.7258601066437276 -1 0 0 I I #
face $-1 $458 $459 $17 $-1 $460 reversed single #
loop $-1 $-1 $461 $305 #
plane-surface $-1 -44.464738817710035 -17.283770198632759 0 -1 0 0 0 0 1 forward_v I I I I #
coedge $-1 $462 $463 $464 $465 reversed $306 $-1 #
coedge $-1 $466 $308 $398 $467 reversed $222 $-1 #
coedge $-1 $308 $466 $468 $469 reversed $222 $-1 #
coedge $-1 $463 $462 $308 $383 forward $306 $-1 #
edge $-1 $470 -9.7258601066437276 $471 9.7258601066437276 $382 $472 forward 7 unknown #
coedge $-1 $309 $473 $474 $475 forward $79 $-1 #
coedge $-1 $476 $477 $309 $386 reversed $459 $-1 #
edge $-1 $478 -44.464738817710035 $388 52.764061403241065 $385 $479 forward 7 unknown #
coedge $-1 $391 $310 $477 $480 forward $314 $-1 #
vertex $-1 $311 $481 #
straight-curve $-1 52.764061403241065 0 9.7258601066437276 0 1 0 I I #
straight-curve $-1 22.491029396291342 22.101744083500012 1.3138899057779696 1 0 0 I I #
coedge $-1 $313 $387 $482 $483 reversed $314 $-1 #
edge $-1 $315 -1.3138899057779767 $484 9.7258601066437276 $313 $485 forward 7 unknown #
face $-1 $-1 $314 $17 $-1 $486 reversed single #
point $-1 52.764061403241065 22.101744083500012 1.3138899057779767 #
coedge $-1 $320 $319 $487 $488 reversed $138 $-1 #
coedge $-1 $489 $322 $320 $397 forward $402 $-1 #
edge $-1 $324 -9.7258601066437276 $490 9.7258601066437276 $320 $491 forward 7 unknown #
coedge $-1 $473 $321 $380 $467 forward $79 $-1 #
coedge $-1 $492 $493 $321 $400 reversed $494 $-1 #
edge $-1 $403 -52.764061403241065 $495 -49.422146280374982 $399 $479 forward 7 unknown #
coedge $-1 $322 $489 $492 $496 reversed $402 $-1 #
loop $-1 $-1 $396 $497 #
vertex $-1 $323 $498 #
straight-curve $-1 -52.764061403241065 0 9.7258601066437276 0 -1 0 I I #
point $-1 -52.764061403241065 22.101744083500012 9.7258601066437276 #
face $-1 $499 $500 $18 $-1 $501 forward single #
loop $-1 $-1 $502 $326 #
plane-surface $-1 -49.422146280374982 -17.283770198632759 0 1 0 0 0 0 -1 forward_v I I I I #
coedge $-1 $329 $503 $504 $505 forward $240 $-1 #
edge $-1 $506 -30.273032006949723 $336 -14.709026785632961 $329 $507 forward 7 unknown #
coedge $-1 $412 $330 $508 $509 reversed $242 $-1 #
coedge $-1 $331 $411 $415 $510 reversed $242 $-1 #
vertex $-1 $510 $511 #
straight-curve $-1 37.200056181924303 -3.8804138630396352 37.075263405284083 0 0.5877852410284794 -0.80901700255871778 I I #
coedge $-1 $512 $333 $412 $510 forward $327 $-1 #
coedge $-1 $333 $513 $335 $419 reversed $327 $-1 #
straight-curve $-1 37.200056181924303 22.101744083500012 49.551568252187579 0 0 -1 I I #
coedge $-1 $514 $335 $515 $516 forward $240 $-1 #
edge $-1 $337 -37.200056181924303 $517 52.764061403241065 $416 $518 forward 7 unknown #
point $-1 37.200056181924303 15.990090167201259 9.7258601066437294 #
point $-1 37.200056181924303 22.101744083500012 9.7258601066437276 #
point $-1 41.646914816586239 15.977234923058106 3.2903469465908537 #
face $-1 $519 $520 $19 $-1 $521 reversed single #
loop $-1 $-1 $522 $341 #
plane-surface $-1 0 0 9.7258601066437276 0 0 1 1 0 0 forward_v I I I I #
coedge $-1 $427 $343 $523 $524 forward $252 $-1 #
coedge $-1 $343 $426 $525 $526 reversed $252 $-1 #
coedge $-1 $527 $522 $343 $429 forward $424 $-1 #
edge $-1 $528 -24.75672570055314 $529 -18.645071784254387 $428 $530 forward 7 unknown #
edge $-1 $531 1 $531 0 $344 $-1 forward 7 unknown #
vertex $-1 $345 $532 #
ellipse-curve $-1 41.646914816586239 17.190760426896183 4.1720248081335729 0 0.80901700255871778 0.5877852410284794 1.5 0 0 1 I I #
point $-1 43.146914816586239 19.045917125350631 5.5198750062108415 #
point $-1 48.317202768579129 15.977234923058106 3.2903469465908537 #
coedge $-1 $533 $523 $522 $534 reversed $350 $-1 #
face $-1 $535 $536 $16 $-1 $537 reversed single #
loop $-1 $-1 $449 $355 #
plane-surface $-1 -52.764061403241065 0 0 1 0 0 0 0 -1 forward_v I I I I #
coedge $-1 $366 $356 $538 $539 forward $122 $-1 #
coedge $-1 $358 $371 $540 $541 forward $216 $-1 #
coedge $-1 $540 $538 $360 $442 forward $542 $-1 #
edge $-1 $444 -9.7258601066437276 $443 9.7258601066437276 $441 $543 forward 7 unknown #
vertex $-1 $442 $544 #
vertex $-1 $539 $545 #
coedge $-1 $367 $372 $365 $446 reversed $437 $-1 #
edge $-1 $369 -9.7258601066437276 $374 9.7258601066437276 $445 $546 forward 7 unknown #
coedge $-1 $547 $548 $366 $448 reversed $536 $-1 #
edge $-1 $549 -52.764061403241065 $450 52.764061403241065 $447 $550 forward 7 unknown #
coedge $-1 $372 $367 $548 $551 forward $437 $-1 #
vertex $-1 $448 $552 #
straight-curve $-1 -52.764061403241065 0 9.7258601066437276 0 -1 0 I I #
point $-1 -52.764061403241065 -22.101744083500012 9.7258601066437276 #
coedge $-1 $548 $547 $371 $454 reversed $536 $-1 #
edge $-1 $455 -52.764061403241065 $553 52.764061403241065 $453 $554 forward 7 unknown #
vertex $-1 $454 $555 #
straight-curve $-1 -52.764061403241065 0 -9.7258601066437276 0 1 0 I I #
point $-1 -52.764061403241065 -22.101744083500012 -9.7258601066437276 #
face $-1 $556 $557 $17 $-1 $558 reversed single #
loop $-1 $-1 $476 $376 #
plane-surface $-1 0 -22.101744083500012 0 0 1 0 0 0 1 forward_v I I I I #
coedge $-1 $474 $559 $476 $560 reversed $377 $-1 #
coedge $-1 $382 $379 $473 $561 reversed $306 $-1 #
coedge $-1 $379 $382 $562 $563 reversed $306 $-1 #
coedge $-1 $559 $474 $379 $465 forward $377 $-1 #
edge $-1 $564 -9.7258601066437276 $565 9.7258601066437276 $464 $566 forward 7 unknown #
coedge $-1 $381 $380 $493 $567 reversed $222 $-1 #
edge $-1 $495 -13.459858984183629 $470 -3.8239112144491276 $398 $568 forward 7 unknown #
coedge $-1 $569 $562 $381 $469 forward $557 $-1 #
edge $-1 $471 3.8239112144491276 $570 13.459858984183629 $468 $571 forward 7 unknown #
vertex $-1 $467 $572 #
vertex $-1 $469 $573 #
straight-curve $-1 -49.422146280374982 -12.465796313765507 0 0 0 -1 I I #
coedge $-1 $384 $398 $462 $561 forward $79 $-1 #
coedge $-1 $464 $461 $384 $475 reversed $377 $-1 #
edge $-1 $564 3.8239112144491276 $478 13.459858984183629 $384 $574 forward 7 unknown #
coedge $-1 $575 $385 $461 $560 forward $459 $-1 #
coedge $-1 $385 $575 $387 $480 reversed $459 $-1 #
vertex $-1 $386 $576 #
straight-curve $-1 0 -22.101744083500012 9.7258601066437276 1 0 0 I I #
edge $-1 $388 -9.7258601066437276 $577 9.7258601066437276 $387 $578 forward 7 unknown #
point $-1 52.764061403241065 -22.101744083500012 9.7258601066437276 #
coedge $-1 $579 $487 $391 $483 forward $557 $-1 #
edge $-1 $484 -22.101744083500012 $577 22.101744083500012 $391 $580 forward 7 unknown #
vertex $-1 $483 $581 #
straight-curve $-1 52.764061403241065 22.101744083500012 0 0 0 -1 I I #
plane-surface $-1 52.764061403241065 0 0 -1 0 0 0 0 1 forward_v I I I I #
coedge $-1 $482 $582 $395 $488 forward $557 $-1 #
edge $-1 $490 -52.764061403241065 $484 52.764061403241065 $395 $583 forward 7 unknown #
coedge $-1 $401 $396 $582 $584 reversed $402 $-1 #
vertex $-1 $488 $585 #
straight-curve $-1 -52.764061403241065 22.101744083500012 0 0 0 -1 I I #
coedge $-1 $586 $399 $401 $496 forward $494 $-1 #
coedge $-1 $399 $586 $466 $567 forward $494 $-1 #
loop $-1 $-1 $493 $556 #
vertex $-1 $567 $587 #
edge $-1 $403 -9.7258601066437276 $588 9.7258601066437276 $401 $589 forward 7 unknown #
face $-1 $393 $402 $17 $-1 $590 reversed single #
point $-1 -52.764061403241065 -22.101744083500012 9.7258601066437276 #
face $-1 $591 $592 $18 $-1 $593 forward single #
loop $-1 $-1 $594 $406 #
plane-surface $-1 -46.943442549042508 -12.465796313765507 0 0 -1 0 0 0 -1 forward_v I I I I #
coedge $-1 $595 $596 $597 $598 reversed $407 $-1 #
coedge $-1 $409 $599 $600 $601 forward $240 $-1 #
coedge $-1 $602 $508 $409 $505 reversed $603 $-1 #
edge $-1 $604 -22.101744083500012 $506 15.990090167201259 $504 $605 forward 7 unknown #
vertex $-1 $509 $606 #
straight-curve $-1 22.491029396291342 15.990090167201259 9.7258601066437258 -1 0 0 I I #
coedge $-1 $504 $607 $411 $509 forward $603 $-1 #
edge $-1 $608 -28.0658039335026 $506 -17.668037045710619 $508 $609 forward 7 unknown #
edge $-1 $413 14.709026785632961 $608 30.273032006949723 $415 $610 forward 7 unknown #
point $-1 37.200056181924303 22.101744083500012 1.3138899057779767 #
coedge $-1 $611 $415 $607 $612 forward $327 $-1 #
coedge $-1 $416 $611 $613 $614 reversed $327 $-1 #
coedge $-1 $615 $418 $616 $617 forward $240 $-1 #
coedge $-1 $613 $618 $418 $516 reversed $619 $-1 #
edge $-1 $517 -22.101744083500012 $620 22.101744083500012 $515 $621 forward 7 unknown #
vertex $-1 $419 $622 #
straight-curve $-1 0 22.101744083500012 9.7258601066437276 -1 0 0 I I #
face $-1 $623 $624 $19 $-1 $625 forward single #
loop $-1 $-1 $525 $423 #
plane-surface $-1 0 22.101744083500012 0 0 -1 0 0 0 -1 forward_v I I I I #
coedge $-1 $428 $626 $435 $534 forward $424 $-1 #
coedge $-1 $435 $627 $426 $524 reversed $350 $-1 #
edge $-1 $528 33.805721279208043 $628 44.203488167000025 $426 $629 forward 7 unknown #
coedge $-1 $630 $631 $427 $526 forward $520 $-1 #
edge $-1 $529 39.82570814554385 $628 48.237678346409602 $525 $632 forward 7 unknown #
coedge $-1 $633 $428 $631 $634 forward $424 $-1 #
vertex $-1 $534 $635 #
vertex $-1 $634 $636 #
straight-curve $-1 37.200056181924303 40.7468158677544 9.7258601066437294 0 1 0 I I #
vertex $-1 $430 $637 #
point $-1 43.146914816586239 17.190760426896183 4.1720248081335729 #
coedge $-1 $627 $435 $638 $639 reversed $350 $-1 #
edge $-1 $640 -30.273032006949723 $528 -14.709026785632961 $522 $641 forward 7 unknown #
face $-1 $-1 $542 $16 $-1 $642 reversed single #
loop $-1 $-1 $547 $436 #
plane-surface $-1 0 22.101744083500012 0 0 -1 0 0 0 -1 forward_v I I I I #
coedge $-1 $441 $643 $439 $539 reversed $542 $-1 #
edge $-1 $444 -22.101744083500012 $549 22.101744083500012 $538 $644 forward 7 unknown #
coedge $-1 $643 $441 $440 $541 reversed $542 $-1 #
edge $-1 $553 -22.101744083500012 $443 22.101744083500012 $540 $645 forward 7 unknown #
loop $-1 $-1 $441 $535 #
straight-curve $-1 52.764061403241065 -22.101744083500012 0 0 0 -1 I I #
point $-1 52.764061403241065 -22.101744083500012 -9.7258601066437276 #
point $-1 52.764061403241065 -22.101744083500012 9.7258601066437276 #
straight-curve $-1 -52.764061403241065 -22.101744083500012 0 0 0 -1 I I #
coedge $-1 $453 $447 $643 $646 forward $536 $-1 #
coedge $-1 $447 $453 $449 $551 reversed $536 $-1 #
vertex $-1 $539 $647 #
straight-curve $-1 0 22.101744083500012 9.7258601066437276 -1 0 0 I I #
edge $-1 $450 -9.7258601066437276 $455 9.7258601066437276 $548 $648 forward 7 unknown #
point $-1 -52.764061403241065 22.101744083500012 9.7258601066437276 #
vertex $-1 $541 $649 #
straight-curve $-1 0 22.101744083500012 -9.7258601066437276 1 0 0 I I #
point $-1 -52.764061403241065 22.101744083500012 -9.7258601066437276 #
face $-1 $497 $494 $17 $-1 $460 reversed single #
loop $-1 $-1 $468 $458 #
plane-surface $-1 0 0 -9.7258601066437276 0 0 1 1 0 0 forward_v I I I I #
coedge $-1 $461 $464 $650 $651 reversed $377 $-1 #
edge $-1 $478 -9.7258601066437276 $652 9.7258601066437276 $476 $653 forward 7 unknown #
edge $-1 $470 -25.950425005853727 $564 -20.993017543188781 $473 $654 forward 7 unknown #
coedge $-1 $468 $650 $463 $563 forward $557 $-1 #
edge $-1 $565 20.993017543188781 $471 25.950425005853727 $562 $655 forward 7 unknown #
vertex $-1 $561 $656 #
vertex $-1 $563 $657 #
straight-curve $-1 -44.464738817710035 -12.465796313765507 0 0 0 -1 I I #
edge $-1 $570 -9.7258601066437276 $495 9.7258601066437276 $493 $658 forward 7 unknown #
straight-curve $-1 -49.422146280374982 -8.6418850993163794 9.7258601066437276 0 1 0 I I #
coedge $-1 $582 $468 $586 $659 forward $557 $-1 #
vertex $-1 $659 $660 #
straight-curve $-1 -49.422146280374982 -8.6418850993163794 -9.7258601066437276 0 -1 0 I I #
point $-1 -49.422146280374982 -12.465796313765507 9.7258601066437276 #
point $-1 -49.422146280374982 -12.465796313765507 -9.7258601066437276 #
straight-curve $-1 -44.464738817710035 -8.6418850993163794 9.7258601066437276 0 -1 0 I I #
coedge $-1 $477 $476 $579 $661 reversed $459 $-1 #
point $-1 -44.464738817710035 -22.101744083500009 9.7258601066437276 #
vertex $-1 $480 $662 #
straight-curve $-1 52.764061403241065 -22.101744083500012 0 0 0 -1 I I #
coedge $-1 $650 $482 $575 $661 forward $557 $-1 #
straight-curve $-1 52.764061403241065 0 -9.7258601066437276 0 -1 0 I I #
point $-1 52.764061403241065 22.101744083500012 -9.7258601066437276 #
coedge $-1 $487 $569 $489 $584 forward $557 $-1 #
straight-curve $-1 0 22.101744083500012 -9.7258601066437276 1 0 0 I I #
edge $-1 $588 -22.101744083500012 $490 22.101744083500012 $489 $663 forward 7 unknown #
point $-1 -52.764061403241065 22.101744083500012 -9.7258601066437276 #
coedge $-1 $493 $492 $569 $659 reversed $494 $-1 #
point $-1 -49.422146280374982 -22.101744083500009 9.7258601066437276 #
vertex $-1 $584 $664 #
straight-curve $-1 -52.764061403241065 -22.101744083500012 0 0 0 -1 I I #
plane-surface $-1 -52.764061403241065 0 0 1 0 0 0 0 -1 forward_v I I I I #
face $-1 $665 $666 $18 $-1 $667 reversed single #
loop $-1 $-1 $668 $499 #
plane-surface $-1 -44.464738817710035 -17.283770198632759 0 -1 0 0 0 0 1 forward_v I I I I #
coedge $-1 $669 $670 $671 $672 reversed $500 $-1 #
coedge $-1 $673 $502 $615 $674 reversed $407 $-1 #
coedge $-1 $502 $673 $675 $676 reversed $407 $-1 #
coedge $-1 $670 $669 $502 $598 forward $500 $-1 #
edge $-1 $677 -9.7258601066437276 $678 9.7258601066437276 $597 $679 forward 7 unknown #
coedge $-1 $503 $680 $681 $682 forward $240 $-1 #
coedge $-1 $683 $684 $503 $601 reversed $666 $-1 #
edge $-1 $685 -44.464738817710035 $604 52.764061403241065 $600 $686 forward 7 unknown #
coedge $-1 $687 $504 $684 $688 forward $603 $-1 #
loop $-1 $-1 $508 $689 #
vertex $-1 $505 $690 #
straight-curve $-1 52.764061403241065 0 9.7258601066437276 0 1 0 I I #
point $-1 52.764061403241065 15.990090167201259 9.7258601066437294 #
coedge $-1 $508 $687 $512 $612 reversed $603 $-1 #
vertex $-1 $612 $691 #
straight-curve $-1 52.764061403241065 5.6050787537881419 24.019602478460918 0 -0.5877852410284794 0.80901700255871778 I I #
straight-curve $-1 22.491029396291342 22.101744083500012 1.3138899057779696 1 0 0 I I #
coedge $-1 $513 $512 $692 $693 reversed $327 $-1 #
edge $-1 $608 -1.3138899057779767 $694 9.7258601066437276 $607 $695 forward 7 unknown #
coedge $-1 $696 $515 $513 $614 forward $619 $-1 #
edge $-1 $517 -9.7258601066437276 $697 9.7258601066437276 $513 $698 forward 7 unknown #
coedge $-1 $680 $514 $595 $674 forward $240 $-1 #
coedge $-1 $699 $700 $514 $617 reversed $701 $-1 #
edge $-1 $620 -52.764061403241065 $702 -49.422146280374982 $616 $686 forward 7 unknown #
coedge $-1 $515 $696 $699 $703 reversed $619 $-1 #
loop $-1 $-1 $613 $704 #
vertex $-1 $516 $705 #
straight-curve $-1 -52.764061403241065 0 9.7258601066437276 0 -1 0 I I #
point $-1 -52.764061403241065 22.101744083500012 9.7258601066437276 #
face $-1 $706 $707 $19 $-1 $708 forward single #
loop $-1 $-1 $709 $519 #
plane-surface $-1 -49.422146280374982 -17.283770198632759 0 1 0 0 0 0 -1 forward_v I I I I #
coedge $-1 $522 $710 $711 $712 forward $424 $-1 #
coedge $-1 $523 $533 $630 $713 reversed $350 $-1 #
vertex $-1 $713 $714 #
straight-curve $-1 37.200056181924303 -3.8804138630396352 37.075263405284083 0 0.5877852410284794 -0.80901700255871778 I I #
coedge $-1 $715 $525 $627 $713 forward $520 $-1 #
coedge $-1 $525 $716 $527 $634 reversed $520 $-1 #
straight-curve $-1 37.200056181924303 22.101744083500012 49.551568252187579 0 0 -1 I I #
coedge $-1 $717 $527 $718 $719 forward $424 $-1 #
edge $-1 $529 -37.200056181924303 $720 52.764061403241065 $631 $721 forward 7 unknown #
point $-1 37.200056181924303 15.990090167201259 9.7258601066437294 #
point $-1 37.200056181924303 22.101744083500012 9.7258601066437276 #
point $-1 41.646914816586239 15.977234923058106 3.2903469465908537 #
coedge $-1 $711 $722 $533 $639 forward $723 $-1 #
edge $-1 $724 -28.0658039335026 $640 -17.668037045710619 $638 $725 forward 7 unknown #
vertex $-1 $639 $726 #
straight-curve $-1 22.491029396291342 15.990090167201259 9.7258601066437258 -1 0 0 I I #
plane-surface $-1 52.764061403241065 0 0 -1 0 0 0 0 1 forward_v I I I I #
coedge $-1 $538 $540 $547 $646 reversed $542 $-1 #
straight-curve $-1 52.764061403241065 0 9.7258601066437276 0 1 0 I I #
straight-curve $-1 52.764061403241065 0 -9.7258601066437276 0 -1 0 I I #
edge $-1 $549 -9.7258601066437276 $553 9.7258601066437276 $643 $727 forward 7 unknown #
point $-1 52.764061403241065 22.101744083500012 9.7258601066437276 #
straight-curve $-1 -52.764061403241065 22.101744083500012 0 0 0 -1 I I #
point $-1 52.764061403241065 22.101744083500012 -9.7258601066437276 #
coedge $-1 $562 $579 $559 $651 forward $557 $-1 #
edge $-1 $652 -13.459858984183629 $565 -3.8239112144491276 $650 $728 forward 7 unknown #
vertex $-1 $560 $729 #
straight-curve $-1 -44.464738817710035 -22.101744083500012 0 0 0 -1 I I #
straight-curve $-1 -23.471721274521254 -12.465796313765507 9.7258601066437276 1 0 0 I I #
straight-curve $-1 -23.471721274521254 -12.465796313765507 -9.7258601066437276 -1 0 0 I I #
point $-1 -44.464738817710035 -12.465796313765507 9.7258601066437276 #
point $-1 -44.464738817710035 -12.465796313765507 -9.7258601066437276 #
straight-curve $-1 -49.422146280374982 -22.101744083500012 0 0 0 1 I I #
edge $-1 $570 49.422146280374982 $588 52.764061403241065 $586 $730 forward 7 unknown #
point $-1 -49.422146280374982 -22.101744083500009 -9.7258601066437276 #
edge $-1 $577 -52.764061403241065 $652 44.464738817710035 $575 $730 forward 7 unknown #
point $-1 52.764061403241065 -22.101744083500012 -9.7258601066437276 #
straight-curve $-1 -52.764061403241065 0 -9.7258601066437276 0 1 0 I I #
point $-1 -52.764061403241065 -22.101744083500012 -9.7258601066437276 #
face $-1 $731 $732 $18 $-1 $733 reversed single #
loop $-1 $-1 $683 $591 #
plane-surface $-1 0 -22.101744083500012 0 0 1 0 0 0 1 forward_v I I I I #
coedge $-1 $681 $734 $683 $735 reversed $592 $-1 #
coedge $-1 $597 $594 $680 $736 reversed $500 $-1 #
coedge $-1 $594 $597 $737 $738 reversed $500 $-1 #
coedge $-1 $734 $681 $594 $672 forward $592 $-1 #
edge $-1 $739 -9.7258601066437276 $740 9.7258601066437276 $671 $741 forward 7 unknown #
coedge $-1 $596 $595 $700 $742 reversed $407 $-1 #
edge $-1 $702 -13.459858984183629 $677 -3.8239112144491276 $615 $743 forward 7 unknown #
coedge $-1 $744 $737 $596 $676 forward $732 $-1 #
edge $-1 $678 3.8239112144491276 $745 13.459858984183629 $675 $746 forward 7 unknown #
vertex $-1 $674 $747 #
vertex $-1 $676 $748 #
straight-curve $-1 -49.422146280374982 -12.465796313765507 0 0 0 -1 I I #
coedge $-1 $599 $615 $669 $736 forward $240 $-1 #
coedge $-1 $671 $668 $599 $682 reversed $592 $-1 #
edge $-1 $739 3.8239112144491276 $685 13.459858984183629 $599 $749 forward 7 unknown #
coedge $-1 $750 $600 $668 $735 forward $666 $-1 #
coedge $-1 $600 $750 $602 $688 reversed $666 $-1 #
vertex $-1 $601 $751 #
straight-curve $-1 0 -22.101744083500012 9.7258601066437276 1 0 0 I I #
coedge $-1 $607 $602 $752 $753 reversed $603 $-1 #
edge $-1 $604 -9.7258601066437276 $754 9.7258601066437276 $602 $755 forward 7 unknown #
face $-1 $-1 $603 $18 $-1 $756 reversed single #
point $-1 52.764061403241065 -22.101744083500012 9.7258601066437276 #
point $-1 52.764061403241065 22.101744083500012 1.3138899057779767 #
coedge $-1 $752 $757 $611 $693 forward $732 $-1 #
edge $-1 $697 -52.764061403241065 $694 52.764061403241065 $611 $758 forward 7 unknown #
vertex $-1 $753 $759 #
straight-curve $-1 52.764061403241065 22.101744083500012 0 0 0 -1 I I #
coedge $-1 $618 $613 $757 $760 reversed $619 $-1 #
vertex $-1 $693 $761 #
straight-curve $-1 -52.764061403241065 22.101744083500012 0 0 0 -1 I I #
coedge $-1 $762 $616 $618 $703 forward $701 $-1 #
coedge $-1 $616 $762 $673 $742 forward $701 $-1 #
loop $-1 $-1 $700 $731 #
vertex $-1 $742 $763 #
edge $-1 $620 -9.7258601066437276 $764 9.7258601066437276 $618 $765 forward 7 unknown #
face $-1 $689 $619 $18 $-1 $766 reversed single #
point $-1 -52.764061403241065 -22.101744083500012 9.7258601066437276 #
face $-1 $767 $768 $19 $-1 $769 forward single #
loop $-1 $-1 $770 $623 #
plane-surface $-1 -46.943442549042508 -12.465796313765507 0 0 -1 0 0 0 -1 forward_v I I I I #
coedge $-1 $771 $772 $773 $774 reversed $624 $-1 #
coedge $-1 $626 $775 $776 $777 forward $424 $-1 #
coedge $-1 $778 $638 $626 $712 reversed $723 $-1 #
edge $-1 $779 -22.101744083500012 $640 15.990090167201259 $711 $780 forward 7 unknown #
edge $-1 $628 14.709026785632961 $724 30.273032006949723 $630 $781 forward 7 unknown #
point $-1 37.200056181924303 22.101744083500012 1.3138899057779767 #
coedge $-1 $782 $630 $722 $783 forward $520 $-1 #
coedge $-1 $631 $782 $784 $785 reversed $520 $-1 #
coedge $-1 $786 $633 $787 $788 forward $424 $-1 #
coedge $-1 $784 $789 $633 $719 reversed $790 $-1 #
edge $-1 $720 -22.101744083500012 $791 22.101744083500012 $718 $792 forward 7 unknown #
vertex $-1 $634 $793 #
straight-curve $-1 0 22.101744083500012 9.7258601066437276 -1 0 0 I I #
coedge $-1 $638 $794 $715 $783 reversed $723 $-1 #
loop $-1 $-1 $638 $795 #
vertex $-1 $783 $796 #
straight-curve $-1 52.764061403241065 5.6050787537881419 24.019602478460918 0 -0.5877852410284794 0.80901700255871778 I I #
point $-1 52.764061403241065 15.990090167201259 9.7258601066437294 #
straight-curve $-1 52.764061403241065 22.101744083500012 0 0 0 -1 I I #
straight-curve $-1 -44.464738817710035 -8.6418850993163794 -9.7258601066437276 0 1 0 I I #
point $-1 -44.464738817710035 -22.101744083500009 -9.7258601066437276 #
straight-curve $-1 0 -22.101744083500012 -9.7258601066437276 -1 0 0 I I #
face $-1 $704 $701 $18 $-1 $667 reversed single #
loop $-1 $-1 $675 $665 #
plane-surface $-1 0 0 -9.7258601066437276 0 0 1 1 0 0 forward_v I I I I #
coedge $-1 $668 $671 $797 $798 reversed $592 $-1 #
edge $-1 $685 -9.7258601066437276 $799 9.7258601066437276 $683 $800 forward 7 unknown #
edge $-1 $677 -25.950425005853727 $739 -20.993017543188781 $680 $801 forward 7 unknown #
coedge $-1 $675 $797 $670 $738 forward $732 $-1 #
edge $-1 $740 20.993017543188781 $678 25.950425005853727 $737 $802 forward 7 unknown #
vertex $-1 $736 $803 #
vertex $-1 $738 $804 #
straight-curve $-1 -44.464738817710035 -12.465796313765507 0 0 0 -1 I I #
edge $-1 $745 -9.7258601066437276 $702 9.7258601066437276 $700 $805 forward 7 unknown #
straight-curve $-1 -49.422146280374982 -8.6418850993163794 9.7258601066437276 0 1 0 I I #
coedge $-1 $757 $675 $762 $806 forward $732 $-1 #
vertex $-1 $806 $807 #
straight-curve $-1 -49.422146280374982 -8.6418850993163794 -9.7258601066437276 0 -1 0 I I #
point $-1 -49.422146280374982 -12.465796313765507 9.7258601066437276 #
point $-1 -49.422146280374982 -12.465796313765507 -9.7258601066437276 #
straight-curve $-1 -44.464738817710035 -8.6418850993163794 9.7258601066437276 0 -1 0 I I #
coedge $-1 $684 $683 $808 $809 reversed $666 $-1 #
point $-1 -44.464738817710035 -22.101744083500009 9.7258601066437276 #
coedge $-1 $808 $692 $687 $753 forward $732 $-1 #
edge $-1 $694 -22.101744083500012 $754 22.101744083500012 $687 $810 forward 7 unknown #
vertex $-1 $688 $811 #
straight-curve $-1 52.764061403241065 -22.101744083500012 0 0 0 -1 I I #
plane-surface $-1 52.764061403241065 0 0 -1 0 0 0 0 1 forward_v I I I I #
coedge $-1 $692 $744 $696 $760 forward $732 $-1 #
straight-curve $-1 0 22.101744083500012 -9.7258601066437276 1 0 0 I I #
point $-1 52.764061403241065 22.101744083500012 -9.7258601066437276 #
edge $-1 $764 -22.101744083500012 $697 22.101744083500012 $696 $812 forward 7 unknown #
point $-1 -52.764061403241065 22.101744083500012 -9.7258601066437276 #
coedge $-1 $700 $699 $744 $806 reversed $701 $-1 #
point $-1 -49.422146280374982 -22.101744083500009 9.7258601066437276 #
vertex $-1 $760 $813 #
straight-curve $-1 -52.764061403241065 -22.101744083500012 0 0 0 -1 I I #
plane-surface $-1 -52.764061403241065 0 0 1 0 0 0 0 -1 forward_v I I I I #
face $-1 $814 $815 $19 $-1 $816 reversed single #
loop $-1 $-1 $817 $706 #
plane-surface $-1 -44.464738817710035 -17.283770198632759 0 -1 0 0 0 0 1 forward_v I I I I #
coedge $-1 $818 $819 $820 $821 reversed $707 $-1 #
coedge $-1 $822 $709 $786 $823 reversed $624 $-1 #
coedge $-1 $709 $822 $824 $825 reversed $624 $-1 #
coedge $-1 $819 $818 $709 $774 forward $707 $-1 #
edge $-1 $826 -9.7258601066437276 $827 9.7258601066437276 $773 $828 forward 7 unknown #
coedge $-1 $710 $829 $830 $831 forward $424 $-1 #
coedge $-1 $832 $833 $710 $777 reversed $815 $-1 #
edge $-1 $834 -44.464738817710035 $779 52.764061403241065 $776 $835 forward 7 unknown #
coedge $-1 $794 $711 $833 $836 forward $723 $-1 #
vertex $-1 $712 $837 #
straight-curve $-1 52.764061403241065 0 9.7258601066437276 0 1 0 I I #
straight-curve $-1 22.491029396291342 22.101744083500012 1.3138899057779696 1 0 0 I I #
coedge $-1 $716 $715 $838 $839 reversed $520 $-1 #
edge $-1 $724 -1.3138899057779767 $840 9.7258601066437276 $722 $841 forward 7 unknown #
coedge $-1 $842 $718 $716 $785 forward $790 $-1 #
edge $-1 $720 -9.7258601066437276 $843 9.7258601066437276 $716 $844 forward 7 unknown #
coedge $-1 $829 $717 $771 $823 forward $424 $-1 #
coedge $-1 $845 $846 $717 $788 reversed $847 $-1 #
edge $-1 $791 -52.764061403241065 $848 -49.422146280374982 $787 $835 forward 7 unknown #
coedge $-1 $718 $842 $845 $849 reversed $790 $-1 #
loop $-1 $-1 $784 $850 #
vertex $-1 $719 $851 #
straight-curve $-1 -52.764061403241065 0 9.7258601066437276 0 -1 0 I I #
point $-1 -52.764061403241065 22.101744083500012 9.7258601066437276 #
coedge $-1 $722 $778 $852 $853 reversed $723 $-1 #
face $-1 $-1 $723 $19 $-1 $854 reversed single #
point $-1 52.764061403241065 22.101744083500012 1.3138899057779767 #
coedge $-1 $737 $808 $734 $798 forward $732 $-1 #
edge $-1 $799 -13.459858984183629 $740 -3.8239112144491276 $797 $855 forward 7 unknown #
vertex $-1 $735 $856 #
straight-curve $-1 -44.464738817710035 -22.101744083500012 0 0 0 -1 I I #
straight-curve $-1 -23.471721274521254 -12.465796313765507 9.7258601066437276 1 0 0 I I #
straight-curve $-1 -23.471721274521254 -12.465796313765507 -9.7258601066437276 -1 0 0 I I #
point $-1 -44.464738817710035 -12.465796313765507 9.7258601066437276 #
point $-1 -44.464738817710035 -12.465796313765507 -9.7258601066437276 #
straight-curve $-1 -49.422146280374982 -22.101744083500012 0 0 0 1 I I #
edge $-1 $745 49.422146280374982 $764 52.764061403241065 $762 $857 forward 7 unknown #
point $-1 -49.422146280374982 -22.101744083500009 -9.7258601066437276 #
coedge $-1 $797 $752 $750 $809 forward $732 $-1 #
edge $-1 $754 -52.764061403241065 $799 44.464738817710035 $750 $857 forward 7 unknown #
straight-curve $-1 52.764061403241065 0 -9.7258601066437276 0 -1 0 I I #
point $-1 52.764061403241065 -22.101744083500012 -9.7258601066437276 #
straight-curve $-1 -52.764061403241065 0 -9.7258601066437276 0 1 0 I I #
point $-1 -52.764061403241065 -22.101744083500012 -9.7258601066437276 #
face $-1 $858 $859 $19 $-1 $860 reversed single #
loop $-1 $-1 $832 $767 #
plane-surface $-1 0 -22.101744083500012 0 0 1 0 0 0 1 forward_v I I I I #
coedge $-1 $830 $861 $832 $862 reversed $768 $-1 #
coedge $-1 $773 $770 $829 $863 reversed $707 $-1 #
coedge $-1 $770 $773 $864 $865 reversed $707 $-1 #
coedge $-1 $861 $830 $770 $821 forward $768 $-1 #
edge $-1 $866 -9.7258601066437276 $867 9.7258601066437276 $820 $868 forward 7 unknown #
coedge $-1 $772 $771 $846 $869 reversed $624 $-1 #
edge $-1 $848 -13.459858984183629 $826 -3.8239112144491276 $786 $870 forward 7 unknown #
coedge $-1 $871 $864 $772 $825 forward $859 $-1 #
edge $-1 $827 3.8239112144491276 $872 13.459858984183629 $824 $873 forward 7 unknown #
vertex $-1 $823 $874 #
vertex $-1 $825 $875 #
straight-curve $-1 -49.422146280374982 -12.465796313765507 0 0 0 -1 I I #
coedge $-1 $775 $786 $818 $863 forward $424 $-1 #
coedge $-1 $820 $817 $775 $831 reversed $768 $-1 #
edge $-1 $866 3.8239112144491276 $834 13.459858984183629 $775 $876 forward 7 unknown #
coedge $-1 $877 $776 $817 $862 forward $815 $-1 #
coedge $-1 $776 $877 $778 $836 reversed $815 $-1 #
vertex $-1 $777 $878 #
straight-curve $-1 0 -22.101744083500012 9.7258601066437276 1 0 0 I I #
edge $-1 $779 -9.7258601066437276 $879 9.7258601066437276 $778 $880 forward 7 unknown #
point $-1 52.764061403241065 -22.101744083500012 9.7258601066437276 #
coedge $-1 $852 $881 $782 $839 forward $859 $-1 #
edge $-1 $843 -52.764061403241065 $840 52.764061403241065 $782 $882 forward 7 unknown #
vertex $-1 $853 $883 #
straight-curve $-1 52.764061403241065 22.101744083500012 0 0 0 -1 I I #
coedge $-1 $789 $784 $881 $884 reversed $790 $-1 #
vertex $-1 $839 $885 #
straight-curve $-1 -52.764061403241065 22.101744083500012 0 0 0 -1 I I #
coedge $-1 $886 $787 $789 $849 forward $847 $-1 #
coedge $-1 $787 $886 $822 $869 forward $847 $-1 #
loop $-1 $-1 $846 $858 #
vertex $-1 $869 $887 #
edge $-1 $791 -9.7258601066437276 $888 9.7258601066437276 $789 $889 forward 7 unknown #
face $-1 $795 $790 $19 $-1 $890 reversed single #
point $-1 -52.764061403241065 -22.101744083500012 9.7258601066437276 #
coedge $-1 $891 $838 $794 $853 forward $859 $-1 #
edge $-1 $840 -22.101744083500012 $879 22.101744083500012 $794 $892 forward 7 unknown #
plane-surface $-1 52.764061403241065 0 0 -1 0 0 0 0 1 forward_v I I I I #
straight-curve $-1 -44.464738817710035 -8.6418850993163794 -9.7258601066437276 0 1 0 I I #
point $-1 -44.464738817710035 -22.101744083500009 -9.7258601066437276 #
straight-curve $-1 0 -22.101744083500012 -9.7258601066437276 -1 0 0 I I #
face $-1 $850 $847 $19 $-1 $816 reversed single #
loop $-1 $-1 $824 $814 #
plane-surface $-1 0 0 -9.7258601066437276 0 0 1 1 0 0 forward_v I I I I #
coedge $-1 $817 $820 $893 $894 reversed $768 $-1 #
edge $-1 $834 -9.7258601066437276 $895 9.7258601066437276 $832 $896 forward 7 unknown #
edge $-1 $826 -25.950425005853727 $866 -20.993017543188781 $829 $897 forward 7 unknown #
coedge $-1 $824 $893 $819 $865 forward $859 $-1 #
edge $-1 $867 20.993017543188781 $827 25.950425005853727 $864 $898 forward 7 unknown #
vertex $-1 $863 $899 #
vertex $-1 $865 $900 #
straight-curve $-1 -44.464738817710035 -12.465796313765507 0 0 0 -1 I I #
edge $-1 $872 -9.7258601066437276 $848 9.7258601066437276 $846 $901 forward 7 unknown #
straight-curve $-1 -49.422146280374982 -8.6418850993163794 9.7258601066437276 0 1 0 I I #
coedge $-1 $881 $824 $886 $902 forward $859 $-1 #
vertex $-1 $902 $903 #
straight-curve $-1 -49.422146280374982 -8.6418850993163794 -9.7258601066437276 0 -1 0 I I #
point $-1 -49.422146280374982 -12.465796313765507 9.7258601066437276 #
point $-1 -49.422146280374982 -12.465796313765507 -9.7258601066437276 #
straight-curve $-1 -44.464738817710035 -8.6418850993163794 9.7258601066437276 0 -1 0 I I #
coedge $-1 $833 $832 $891 $904 reversed $815 $-1 #
point $-1 -44.464738817710035 -22.101744083500009 9.7258601066437276 #
vertex $-1 $836 $905 #
straight-curve $-1 52.764061403241065 -22.101744083500012 0 0 0 -1 I I #
coedge $-1 $838 $871 $842 $884 forward $859 $-1 #
straight-curve $-1 0 22.101744083500012 -9.7258601066437276 1 0 0 I I #
point $-1 52.764061403241065 22.101744083500012 -9.7258601066437276 #
edge $-1 $888 -22.101744083500012 $843 22.101744083500012 $842 $906 forward 7 unknown #
point $-1 -52.764061403241065 22.101744083500012 -9.7258601066437276 #
coedge $-1 $846 $845 $871 $902 reversed $847 $-1 #
point $-1 -49.422146280374982 -22.101744083500009 9.7258601066437276 #
vertex $-1 $884 $907 #
straight-curve $-1 -52.764061403241065 -22.101744083500012 0 0 0 -1 I I #
plane-surface $-1 -52.764061403241065 0 0 1 0 0 0 0 -1 forward_v I I I I #
coedge $-1 $893 $852 $877 $904 forward $859 $-1 #
straight-curve $-1 52.764061403241065 0 -9.7258601066437276 0 -1 0 I I #
coedge $-1 $864 $891 $861 $894 forward $859 $-1 #
edge $-1 $895 -13.459858984183629 $867 -3.8239112144491276 $893 $908 forward 7 unknown #
vertex $-1 $862 $909 #
straight-curve $-1 -44.464738817710035 -22.101744083500012 0 0 0 -1 I I #
straight-curve $-1 -23.471721274521254 -12.465796313765507 9.7258601066437276 1 0 0 I I #
straight-curve $-1 -23.471721274521254 -12.465796313765507 -9.7258601066437276 -1 0 0 I I #
point $-1 -44.464738817710035 -12.465796313765507 9.7258601066437276 #
point $-1 -44.464738817710035 -12.465796313765507 -9.7258601066437276 #
straight-curve $-1 -49.422146280374982 -22.101744083500012 0 0 0 1 I I #
edge $-1 $872 49.422146280374982 $888 52.764061403241065 $886 $910 forward 7 unknown #
point $-1 -49.422146280374982 -22.101744083500009 -9.7258601066437276 #
edge $-1 $879 -52.764061403241065 $895 44.464738817710035 $877 $910 forward 7 unknown #
point $-1 52.764061403241065 -22.101744083500012 -9.7258601066437276 #
straight-curve $-1 -52.764061403241065 0 -9.7258601066437276 0 1 0 I I #
point $-1 -52.764061403241065 -22.101744083500012 -9.7258601066437276 #
straight-curve $-1 -44.464738817710035 -8.6418850993163794 -9.7258601066437276 0 1 0 I I #
point $-1 -44.464738817710035 -22.101744083500009 -9.7258601066437276 #
straight-curve $-1 0 -22.101744083500012 -9.7258601066437276 -1 0 0 I I #
End-of-ACIS-data 