500 0 14 0           
7 Unknown 11 ACIS 5.0 NT 24 Fri Mar 26 18:53:00 1999 
-1 9.9999999999999995e-007 1e-010 
body $-1 $14 $-1 $15 #
body $-1 $16 $-1 $17 #
body $-1 $18 $-1 $19 #
body $-1 $20 $-1 $21 #
body $-1 $22 $-1 $23 #
body $-1 $24 $-1 $25 #
body $-1 $26 $-1 $27 #
body $-1 $28 $-1 $29 #
body $-1 $30 $-1 $31 #
body $-1 $32 $-1 $33 #
body $-1 $34 $-1 $35 #
body $-1 $36 $-1 $37 #
body $-1 $38 $-1 $39 #
body $-1 $40 $-1 $41 #
lump $-1 $-1 $42 $0 #
transform $-1 1 0 0 0 1 0 0 0 1 67.379985961485644 44.774881811700318 22.183291385214517 1 rotate no_reflect no_shear #
lump $-1 $-1 $43 $1 #
transform $-1 1 0 0 0 1 0 0 0 1 67.379985961485644 44.774881811700318 22.183291385214517 1 rotate no_reflect no_shear #
lump $-1 $-1 $44 $2 #
transform $-1 1 0 0 0 1 0 0 0 1 67.379985961485644 44.774881811700318 22.183291385214517 1 rotate no_reflect no_shear #
lump $-1 $-1 $45 $3 #
transform $-1 1 0 0 0 1 0 0 0 1 67.379985961485644 44.774881811700318 22.183291385214517 1 rotate no_reflect no_shear #
lump $-1 $-1 $46 $4 #
transform $-1 1 0 0 0 1 0 0 0 1 67.379985961485644 44.774881811700318 22.183291385214517 1 rotate no_reflect no_shear #
lump $-1 $-1 $47 $5 #
transform $-1 1 0 0 0 1 0 0 0 1 67.379985961485644 44.774881811700318 22.183291385214517 1 rotate no_reflect no_shear #
lump $-1 $-1 $48 $6 #
transform $-1 1 0 0 0 1 0 0 0 1 67.379985961485644 44.774881811700318 22.183291385214517 1 rotate no_reflect no_shear #
lump $-1 $-1 $49 $7 #
transform $-1 1 0 0 0 1 0 0 0 1 67.379985961485644 44.774881811700318 22.183291385214517 1 rotate no_reflect no_shear #
lump $-1 $-1 $50 $8 #
transform $-1 1 0 0 0 1 0 0 0 1 67.379985961485644 44.774881811700318 22.183291385214517 1 rotate no_reflect no_shear #
lump $-1 $-1 $51 $9 #
transform $-1 1 0 0 0 1 0 0 0 1 67.379985961485644 44.774881811700318 22.183291385214517 1 rotate no_reflect no_shear #
lump $-1 $-1 $52 $10 #
transform $-1 1 0 0 0 1 0 0 0 1 67.379985961485644 44.774881811700318 22.183291385214517 1 rotate no_reflect no_shear #
lump $-1 $-1 $53 $11 #
transform $-1 1 0 0 0 1 0 0 0 1 67.379985961485644 44.774881811700318 22.183291385214517 1 rotate no_reflect no_shear #
lump $-1 $-1 $54 $12 #
transform $-1 1 0 0 0 1 0 0 0 1 67.379985961485644 44.774881811700318 22.183291385214517 1 rotate no_reflect no_shear #
lump $-1 $-1 $55 $13 #
transform $-1 1 0 0 0 1 0 0 0 1 67.379985961485644 44.774881811700318 22.183291385214517 1 rotate no_reflect no_shear #
shell $-1 $-1 $-1 $56 $-1 $14 #
shell $-1 $-1 $-1 $57 $-1 $16 #
shell $-1 $-1 $-1 $58 $-1 $18 #
shell $-1 $-1 $-1 $59 $-1 $20 #
shell $-1 $-1 $-1 $60 $-1 $22 #
shell $-1 $-1 $-1 $61 $-1 $24 #
shell $-1 $-1 $-1 $62 $-1 $26 #
shell $-1 $-1 $-1 $63 $-1 $28 #
shell $-1 $-1 $-1 $64 $-1 $30 #
shell $-1 $-1 $-1 $65 $-1 $32 #
shell $-1 $-1 $-1 $66 $-1 $34 #
shell $-1 $-1 $-1 $67 $-1 $36 #
shell $-1 $-1 $-1 $68 $-1 $38 #
shell $-1 $-1 $-1 $69 $-1 $40 #
face $-1 $70 $71 $42 $-1 $72 reversed single #
face $-1 $73 $74 $43 $-1 $75 forward single #
face $-1 $76 $77 $44 $-1 $78 reversed single #
face $-1 $79 $80 $45 $-1 $81 forward single #
face $-1 $82 $83 $46 $-1 $84 forward single #
face $-1 $85 $86 $47 $-1 $87 reversed single #
face $-1 $88 $89 $48 $-1 $90 forward single #
face $-1 $91 $92 $49 $-1 $93 forward single #
face $-1 $94 $95 $50 $-1 $96 reversed single #
face $-1 $97 $98 $51 $-1 $99 forward single #
face $-1 $100 $101 $52 $-1 $102 forward single #
face $-1 $103 $104 $53 $-1 $105 reversed single #
face $-1 $106 $107 $54 $-1 $108 forward single #
face $-1 $109 $110 $55 $-1 $111 forward single #
face $-1 $112 $113 $42 $-1 $114 forward single #
loop $-1 $-1 $115 $56 #
plane-surface $-1 0 -44.774881811700318 0 0 1 0 0 0 1 forward_v I I I I #
face $-1 $116 $117 $43 $-1 $118 reversed single #
loop $-1 $-1 $119 $57 #
plane-surface $-1 0 -44.774881811700318 0 0 1 0 0 0 1 forward_v I I I I #
face $-1 $120 $121 $44 $-1 $122 reversed single #
loop $-1 $-1 $123 $58 #
plane-surface $-1 -64.863545155258734 95.83485131376807 155.71348350074328 1 0 0 0 -0.78801076186113728 -0.61566146476048833 forward_v I I I I #
face $-1 $124 $125 $45 $-1 $126 forward single #
loop $-1 $127 $128 $59 #
cone-surface $-1 -58.133742529831252 34.642574784482541 10.370649361009308 0 -0.78801076186113728 -0.61566146476048833 1.5 0 0 1 I I 0 1 1.5 forward I I I I #
face $-1 $129 $130 $46 $-1 $131 forward single #
loop $-1 $132 $133 $60 #
cone-surface $-1 -48.039038591690044 34.642574784482541 10.370649361009308 0 -0.78801076186113728 -0.61566146476048833 1.5 0 0 1 I I 0 1 1.5 forward I I I I #
face $-1 $134 $135 $47 $-1 $136 reversed single #
loop $-1 $-1 $137 $61 #
plane-surface $-1 -31.173552174515905 95.83485131376807 155.71348350074328 1 0 0 0 -0.78801076186113728 -0.61566146476048833 forward_v I I I I #
face $-1 $138 $139 $48 $-1 $140 forward single #
loop $-1 $141 $142 $62 #
cone-surface $-1 -24.443749549088437 34.642574784482541 10.370649361009308 0 -0.78801076186113728 -0.61566146476048833 1.5 0 0 1 I I 0 1 1.5 forward I I I I #
face $-1 $143 $144 $49 $-1 $145 forward single #
loop $-1 $146 $147 $63 #
cone-surface $-1 -14.349045610947222 34.642574784482541 10.370649361009308 0 -0.78801076186113728 -0.61566146476048833 1.5 0 0 1 I I 0 1 1.5 forward I I I I #
face $-1 $148 $149 $50 $-1 $150 reversed single #
loop $-1 $-1 $151 $64 #
plane-surface $-1 2.5164408062269157 95.83485131376807 155.71348350074328 1 0 0 0 -0.78801076186113728 -0.61566146476048833 forward_v I I I I #
face $-1 $152 $153 $51 $-1 $154 forward single #
loop $-1 $155 $156 $65 #
cone-surface $-1 9.2462434316543778 34.642574784482541 10.370649361009308 0 -0.78801076186113728 -0.61566146476048833 1.5 0 0 1 I I 0 1 1.5 forward I I I I #
face $-1 $157 $158 $52 $-1 $159 forward single #
loop $-1 $160 $161 $66 #
cone-surface $-1 19.3409473697956 34.642574784482541 10.370649361009308 0 -0.78801076186113728 -0.61566146476048833 1.5 0 0 1 I I 0 1 1.5 forward I I I I #
face $-1 $162 $163 $53 $-1 $164 reversed single #
loop $-1 $-1 $165 $67 #
plane-surface $-1 36.206433786969733 95.83485131376807 155.71348350074328 1 0 0 0 -0.78801076186113728 -0.61566146476048833 forward_v I I I I #
face $-1 $166 $167 $54 $-1 $168 forward single #
loop $-1 $169 $170 $68 #
cone-surface $-1 42.936236412397207 34.642574784482541 10.370649361009308 0 -0.78801076186113728 -0.61566146476048833 1.5 0 0 1 I I 0 1 1.5 forward I I I I #
face $-1 $171 $172 $55 $-1 $173 forward single #
loop $-1 $174 $175 $69 #
cone-surface $-1 53.030940350538415 34.642574784482541 10.370649361009308 0 -0.78801076186113728 -0.61566146476048833 1.5 0 0 1 I I 0 1 1.5 forward I I I I #
face $-1 $176 $177 $42 $-1 $178 reversed single #
loop $-1 $-1 $179 $70 #
plane-surface $-1 0 0 22.183291385214517 0 0 1 1 0 0 forward_v I I I I #
coedge $-1 $180 $181 $182 $183 reversed $71 $-1 #
face $-1 $184 $185 $43 $-1 $186 reversed single #
loop $-1 $-1 $187 $73 #
plane-surface $-1 0 0 -22.183291385214517 0 0 1 1 0 0 forward_v I I I I #
coedge $-1 $188 $189 $190 $191 forward $74 $-1 #
face $-1 $192 $193 $44 $-1 $194 reversed single #
loop $-1 $-1 $195 $76 #
plane-surface $-1 -53.086390560760648 -10.357456829638025 72.746961795564474 0 0.78801076186113728 0.61566146476048833 1 0 0 forward_v I I I I #
coedge $-1 $196 $197 $198 $199 reversed $77 $-1 #
face $-1 $-1 $200 $45 $-1 $201 forward single #
loop $-1 $202 $203 $79 #
cone-surface $-1 -58.133742529831252 31.733095094892597 8.0975147617390917 0 -0.78801076186113728 -0.61566146476048833 0.75 0 0 1 I I -0.70710678118654757 0.70710678118654757 0.75 forward I I I I #
loop $-1 $-1 $204 $59 #
coedge $-1 $128 $128 $205 $206 reversed $80 $-1 #
face $-1 $-1 $207 $46 $-1 $208 forward single #
loop $-1 $209 $210 $82 #
cone-surface $-1 -48.039038591690044 31.733095094892597 8.0975147617390917 0 -0.78801076186113728 -0.61566146476048833 0.75 0 0 1 I I -0.70710678118654757 0.70710678118654757 0.75 forward I I I I #
loop $-1 $-1 $211 $60 #
coedge $-1 $133 $133 $212 $213 reversed $83 $-1 #
face $-1 $214 $215 $47 $-1 $216 reversed single #
loop $-1 $-1 $217 $85 #
plane-surface $-1 -19.396397580017826 -10.357456829638025 72.746961795564474 0 0.78801076186113728 0.61566146476048833 1 0 0 forward_v I I I I #
coedge $-1 $218 $219 $220 $221 reversed $86 $-1 #
face $-1 $-1 $222 $48 $-1 $223 forward single #
loop $-1 $224 $225 $88 #
cone-surface $-1 -24.443749549088437 31.733095094892597 8.0975147617390917 0 -0.78801076186113728 -0.61566146476048833 0.75 0 0 1 I I -0.70710678118654757 0.70710678118654757 0.75 forward I I I I #
loop $-1 $-1 $226 $62 #
coedge $-1 $142 $142 $227 $228 reversed $89 $-1 #
face $-1 $-1 $229 $49 $-1 $230 forward single #
loop $-1 $231 $232 $91 #
cone-surface $-1 -14.349045610947222 31.733095094892597 8.0975147617390917 0 -0.78801076186113728 -0.61566146476048833 0.75 0 0 1 I I -0.70710678118654757 0.70710678118654757 0.75 forward I I I I #
loop $-1 $-1 $233 $63 #
coedge $-1 $147 $147 $234 $235 reversed $92 $-1 #
face $-1 $236 $237 $50 $-1 $238 reversed single #
loop $-1 $-1 $239 $94 #
plane-surface $-1 14.293595400724996 -10.357456829638025 72.746961795564474 0 0.78801076186113728 0.61566146476048833 1 0 0 forward_v I I I I #
coedge $-1 $240 $241 $242 $243 reversed $95 $-1 #
face $-1 $-1 $244 $51 $-1 $245 forward single #
loop $-1 $246 $247 $97 #
cone-surface $-1 9.2462434316543778 31.733095094892597 8.0975147617390917 0 -0.78801076186113728 -0.61566146476048833 0.75 0 0 1 I I -0.70710678118654757 0.70710678118654757 0.75 forward I I I I #
loop $-1 $-1 $248 $65 #
coedge $-1 $156 $156 $249 $250 reversed $98 $-1 #
face $-1 $-1 $251 $52 $-1 $252 forward single #
loop $-1 $253 $254 $100 #
cone-surface $-1 19.3409473697956 31.733095094892597 8.0975147617390917 0 -0.78801076186113728 -0.61566146476048833 0.75 0 0 1 I I -0.70710678118654757 0.70710678118654757 0.75 forward I I I I #
loop $-1 $-1 $255 $66 #
coedge $-1 $161 $161 $256 $257 reversed $101 $-1 #
face $-1 $258 $259 $53 $-1 $260 reversed single #
loop $-1 $-1 $261 $103 #
plane-surface $-1 47.983588381467811 -10.357456829638025 72.746961795564474 0 0.78801076186113728 0.61566146476048833 1 0 0 forward_v I I I I #
coedge $-1 $262 $263 $264 $265 reversed $104 $-1 #
face $-1 $-1 $266 $54 $-1 $267 forward single #
loop $-1 $268 $269 $106 #
cone-surface $-1 42.936236412397207 31.733095094892597 8.0975147617390917 0 -0.78801076186113728 -0.61566146476048833 0.75 0 0 1 I I -0.70710678118654757 0.70710678118654757 0.75 forward I I I I #
loop $-1 $-1 $270 $68 #
coedge $-1 $170 $170 $271 $272 reversed $107 $-1 #
face $-1 $-1 $273 $55 $-1 $274 forward single #
loop $-1 $275 $276 $109 #
cone-surface $-1 53.030940350538415 31.733095094892597 8.0975147617390917 0 -0.78801076186113728 -0.61566146476048833 0.75 0 0 1 I I -0.70710678118654757 0.70710678118654757 0.75 forward I I I I #
loop $-1 $-1 $277 $69 #
coedge $-1 $175 $175 $278 $279 reversed $110 $-1 #
face $-1 $280 $281 $42 $-1 $282 reversed single #
loop $-1 $-1 $283 $112 #
plane-surface $-1 0 0 -22.183291385214517 0 0 1 1 0 0 forward_v I I I I #
coedge $-1 $284 $285 $286 $287 forward $113 $-1 #
coedge $-1 $288 $115 $289 $290 reversed $71 $-1 #
coedge $-1 $115 $288 $291 $292 forward $71 $-1 #
coedge $-1 $293 $283 $115 $183 forward $177 $-1 #
edge $-1 $294 -67.379985961485644 $295 67.379985961485644 $115 $296 forward 7 unknown #
face $-1 $297 $298 $43 $-1 $299 reversed single #
loop $-1 $-1 $300 $116 #
plane-surface $-1 -41.839719266760369 -72.555062227769596 0 0 1 0 0 0 1 forward_v I I I I #
coedge $-1 $301 $302 $189 $303 forward $117 $-1 #
coedge $-1 $304 $119 $305 $306 reversed $74 $-1 #
coedge $-1 $119 $304 $187 $303 reversed $74 $-1 #
coedge $-1 $307 $308 $119 $191 reversed $298 $-1 #
edge $-1 $309 -22.183291385214517 $310 22.183291385214517 $190 $311 forward 7 unknown #
face $-1 $312 $313 $44 $-1 $314 forward single #
loop $-1 $-1 $315 $120 #
plane-surface $-1 -41.30923596626257 95.83485131376807 155.71348350074328 -1 0 0 0 0.78801076186113728 0.61566146476048833 forward_v I I I I #
coedge $-1 $316 $317 $318 $319 reversed $121 $-1 #
coedge $-1 $197 $123 $320 $321 reversed $77 $-1 #
coedge $-1 $123 $196 $316 $322 reversed $77 $-1 #
coedge $-1 $318 $323 $123 $199 forward $313 $-1 #
edge $-1 $324 3.1425438451837167 $325 18.770214663231165 $198 $326 forward 7 unknown #
loop $-1 $-1 $205 $124 #
plane-surface $-1 -53.086390560760648 -10.357456829638025 72.746961795564474 0 0.78801076186113728 0.61566146476048833 1 0 0 forward_v I I I I #
loop $-1 $-1 $327 $79 #
coedge $-1 $203 $203 $204 $328 reversed $125 $-1 #
coedge $-1 $204 $204 $203 $328 forward $127 $-1 #
coedge $-1 $205 $205 $128 $206 forward $200 $-1 #
edge $-1 $329 1.4003199260240991e-015 $329 6.2831853071796022 $205 $330 forward 7 unknown #
loop $-1 $-1 $212 $129 #
plane-surface $-1 -53.086390560760648 -10.357456829638025 72.746961795564474 0 0.78801076186113728 0.61566146476048833 1 0 0 forward_v I I I I #
loop $-1 $-1 $331 $82 #
coedge $-1 $210 $210 $211 $332 reversed $130 $-1 #
coedge $-1 $211 $211 $210 $332 forward $132 $-1 #
coedge $-1 $212 $212 $133 $213 forward $207 $-1 #
edge $-1 $333 1.4003199260240991e-015 $333 6.2831853071796022 $212 $334 forward 7 unknown #
face $-1 $335 $336 $47 $-1 $337 forward single #
loop $-1 $-1 $338 $134 #
plane-surface $-1 -7.6192429855197457 95.83485131376807 155.71348350074328 -1 0 0 0 0.78801076186113728 0.61566146476048833 forward_v I I I I #
coedge $-1 $339 $340 $341 $342 reversed $135 $-1 #
coedge $-1 $219 $137 $343 $344 reversed $86 $-1 #
coedge $-1 $137 $218 $339 $345 reversed $86 $-1 #
coedge $-1 $341 $346 $137 $221 forward $336 $-1 #
edge $-1 $347 3.1425438451837167 $348 18.770214663231165 $220 $349 forward 7 unknown #
loop $-1 $-1 $227 $138 #
plane-surface $-1 -19.396397580017826 -10.357456829638025 72.746961795564474 0 0.78801076186113728 0.61566146476048833 1 0 0 forward_v I I I I #
loop $-1 $-1 $350 $88 #
coedge $-1 $225 $225 $226 $351 reversed $139 $-1 #
coedge $-1 $226 $226 $225 $351 forward $141 $-1 #
coedge $-1 $227 $227 $142 $228 forward $222 $-1 #
edge $-1 $352 1.4003199260240991e-015 $352 6.2831853071796022 $227 $353 forward 7 unknown #
loop $-1 $-1 $234 $143 #
plane-surface $-1 -19.396397580017826 -10.357456829638025 72.746961795564474 0 0.78801076186113728 0.61566146476048833 1 0 0 forward_v I I I I #
loop $-1 $-1 $354 $91 #
coedge $-1 $232 $232 $233 $355 reversed $144 $-1 #
coedge $-1 $233 $233 $232 $355 forward $146 $-1 #
coedge $-1 $234 $234 $147 $235 forward $229 $-1 #
edge $-1 $356 1.4003199260240991e-015 $356 6.2831853071796022 $234 $357 forward 7 unknown #
face $-1 $358 $359 $50 $-1 $360 forward single #
loop $-1 $-1 $361 $148 #
plane-surface $-1 26.070749995223075 95.83485131376807 155.71348350074328 -1 0 0 0 0.78801076186113728 0.61566146476048833 forward_v I I I I #
coedge $-1 $362 $363 $364 $365 reversed $149 $-1 #
coedge $-1 $241 $151 $366 $367 reversed $95 $-1 #
coedge $-1 $151 $240 $362 $368 reversed $95 $-1 #
coedge $-1 $364 $369 $151 $243 forward $359 $-1 #
edge $-1 $370 3.1425438451837167 $371 18.770214663231165 $242 $372 forward 7 unknown #
loop $-1 $-1 $249 $152 #
plane-surface $-1 14.293595400724996 -10.357456829638025 72.746961795564474 0 0.78801076186113728 0.61566146476048833 1 0 0 forward_v I I I I #
loop $-1 $-1 $373 $97 #
coedge $-1 $247 $247 $248 $374 reversed $153 $-1 #
coedge $-1 $248 $248 $247 $374 forward $155 $-1 #
coedge $-1 $249 $249 $156 $250 forward $244 $-1 #
edge $-1 $375 1.4003199260240991e-015 $375 6.2831853071796022 $249 $376 forward 7 unknown #
loop $-1 $-1 $256 $157 #
plane-surface $-1 14.293595400724996 -10.357456829638025 72.746961795564474 0 0.78801076186113728 0.61566146476048833 1 0 0 forward_v I I I I #
loop $-1 $-1 $377 $100 #
coedge $-1 $254 $254 $255 $378 reversed $158 $-1 #
coedge $-1 $255 $255 $254 $378 forward $160 $-1 #
coedge $-1 $256 $256 $161 $257 forward $251 $-1 #
edge $-1 $379 1.4003199260240991e-015 $379 6.2831853071796022 $256 $380 forward 7 unknown #
face $-1 $381 $382 $53 $-1 $383 forward single #
loop $-1 $-1 $384 $162 #
plane-surface $-1 59.76074297596589 95.83485131376807 155.71348350074328 -1 0 0 0 0.78801076186113728 0.61566146476048833 forward_v I I I I #
coedge $-1 $385 $386 $387 $388 reversed $163 $-1 #
coedge $-1 $263 $165 $389 $390 reversed $104 $-1 #
coedge $-1 $165 $262 $385 $391 reversed $104 $-1 #
coedge $-1 $387 $392 $165 $265 forward $382 $-1 #
edge $-1 $393 3.1425438451837167 $394 18.770214663231165 $264 $395 forward 7 unknown #
loop $-1 $-1 $271 $166 #
plane-surface $-1 47.983588381467811 -10.357456829638025 72.746961795564474 0 0.78801076186113728 0.61566146476048833 1 0 0 forward_v I I I I #
loop $-1 $-1 $396 $106 #
coedge $-1 $269 $269 $270 $397 reversed $167 $-1 #
coedge $-1 $270 $270 $269 $397 forward $169 $-1 #
coedge $-1 $271 $271 $170 $272 forward $266 $-1 #
edge $-1 $398 1.4003199260240991e-015 $398 6.2831853071796022 $271 $399 forward 7 unknown #
loop $-1 $-1 $278 $171 #
plane-surface $-1 47.983588381467811 -10.357456829638025 72.746961795564474 0 0.78801076186113728 0.61566146476048833 1 0 0 forward_v I I I I #
loop $-1 $-1 $400 $109 #
coedge $-1 $276 $276 $277 $401 reversed $172 $-1 #
coedge $-1 $277 $277 $276 $401 forward $174 $-1 #
coedge $-1 $278 $278 $175 $279 forward $273 $-1 #
edge $-1 $402 1.4003199260240991e-015 $402 6.2831853071796022 $278 $403 forward 7 unknown #
face $-1 $404 $405 $42 $-1 $406 reversed single #
loop $-1 $-1 $407 $176 #
plane-surface $-1 -67.379985961485644 0 0 1 0 0 0 0 -1 forward_v I I I I #
coedge $-1 $182 $408 $409 $410 forward $177 $-1 #
coedge $-1 $411 $179 $412 $413 forward $113 $-1 #
coedge $-1 $179 $411 $288 $414 forward $113 $-1 #
coedge $-1 $289 $415 $179 $287 reversed $416 $-1 #
edge $-1 $417 -44.774881811700318 $418 44.774881811700318 $286 $419 forward 7 unknown #
coedge $-1 $181 $180 $285 $414 reversed $71 $-1 #
coedge $-1 $409 $286 $180 $290 forward $416 $-1 #
edge $-1 $417 -22.183291385214517 $294 22.183291385214517 $289 $420 forward 7 unknown #
coedge $-1 $421 $422 $181 $292 reversed $281 $-1 #
edge $-1 $423 -22.183291385214517 $295 22.183291385214517 $291 $424 forward 7 unknown #
coedge $-1 $408 $182 $422 $425 forward $177 $-1 #
vertex $-1 $290 $426 #
vertex $-1 $425 $427 #
straight-curve $-1 0 -44.774881811700318 -22.183291385214517 -1 0 0 I I #
face $-1 $428 $429 $43 $-1 $430 reversed single #
loop $-1 $-1 $190 $184 #
plane-surface $-1 -44.27116831641392 -58.664972019734954 0 1 0 0 0 0 -1 forward_v I I I I #
coedge $-1 $431 $432 $433 $434 forward $185 $-1 #
coedge $-1 $435 $187 $436 $437 forward $117 $-1 #
coedge $-1 $187 $435 $307 $438 forward $117 $-1 #
edge $-1 $309 -44.27116831641392 $439 -39.408270217106818 $187 $440 forward 7 unknown #
coedge $-1 $189 $188 $441 $442 forward $74 $-1 #
coedge $-1 $443 $444 $188 $306 forward $445 $-1 #
edge $-1 $446 39.408270217106818 $310 44.27116831641392 $305 $447 forward 7 unknown #
coedge $-1 $433 $190 $302 $438 reversed $298 $-1 #
coedge $-1 $190 $433 $443 $448 reversed $298 $-1 #
vertex $-1 $303 $449 #
vertex $-1 $448 $450 #
straight-curve $-1 -44.27116831641392 -44.774881811700318 0 0 0 1 I I #
face $-1 $-1 $451 $44 $-1 $452 reversed single #
loop $-1 $-1 $198 $192 #
plane-surface $-1 0 0 22.183291385214517 0 0 1 1 0 0 forward_v I I I I #
coedge $-1 $453 $454 $455 $456 reversed $193 $-1 #
coedge $-1 $457 $195 $197 $322 forward $121 $-1 #
coedge $-1 $195 $457 $453 $458 forward $121 $-1 #
coedge $-1 $455 $198 $195 $319 forward $313 $-1 #
edge $-1 $325 -38.32034987487841 $459 -14.766040685882245 $318 $460 forward 7 unknown #
coedge $-1 $461 $462 $196 $321 forward $451 $-1 #
edge $-1 $463 -75.675957412167875 $324 -55.673450365157123 $320 $464 forward 7 unknown #
edge $-1 $325 64.166218099519114 $463 89.549763623400651 $197 $465 forward 7 unknown #
coedge $-1 $198 $455 $461 $466 forward $313 $-1 #
vertex $-1 $321 $467 #
vertex $-1 $199 $468 #
straight-curve $-1 -64.863545155258734 47.917425656884035 22.183291385214517 0 -1 0 I I #
coedge $-1 $327 $327 $-1 $469 reversed $202 $-1 #
edge $-1 $470 0 $470 6.2831853071796004 $203 $471 forward 7 unknown #
vertex $-1 $206 $472 #
ellipse-curve $-1 -58.133742529831252 36.961046402676601 12.182037861709139 0 0.78801076186113728 0.61566146476048833 1.5 0 0 1 I I #
coedge $-1 $331 $331 $-1 $473 reversed $209 $-1 #
edge $-1 $474 0 $474 6.2831853071796004 $210 $475 forward 7 unknown #
vertex $-1 $213 $476 #
ellipse-curve $-1 -48.039038591690044 36.961046402676601 12.182037861709139 0 0.78801076186113728 0.61566146476048833 1.5 0 0 1 I I #
face $-1 $-1 $477 $47 $-1 $478 reversed single #
loop $-1 $-1 $220 $214 #
plane-surface $-1 0 0 22.183291385214517 0 0 1 1 0 0 forward_v I I I I #
coedge $-1 $479 $480 $481 $482 reversed $215 $-1 #
coedge $-1 $483 $217 $219 $345 forward $135 $-1 #
coedge $-1 $217 $483 $479 $484 forward $135 $-1 #
coedge $-1 $481 $220 $217 $342 forward $336 $-1 #
edge $-1 $348 -21.475353384506992 $485 2.0789558044891674 $341 $486 forward 7 unknown #
coedge $-1 $487 $488 $218 $344 forward $477 $-1 #
edge $-1 $489 -75.675957412167875 $347 -55.673450365157123 $343 $490 forward 7 unknown #
edge $-1 $348 64.166218099519114 $489 89.549763623400651 $219 $491 forward 7 unknown #
coedge $-1 $220 $481 $487 $492 forward $336 $-1 #
vertex $-1 $221 $493 #
vertex $-1 $221 $494 #
straight-curve $-1 -31.173552174515905 47.917425656884035 22.183291385214517 0 -1 0 I I #
coedge $-1 $350 $350 $-1 $495 reversed $224 $-1 #
edge $-1 $496 0 $496 6.2831853071796004 $225 $497 forward 7 unknown #
vertex $-1 $228 $498 #
ellipse-curve $-1 -24.443749549088437 36.961046402676601 12.182037861709139 0 0.78801076186113728 0.61566146476048833 1.5 0 0 1 I I #
coedge $-1 $354 $354 $-1 $499 reversed $231 $-1 #
edge $-1 $500 0 $500 6.2831853071796004 $232 $501 forward 7 unknown #
vertex $-1 $235 $502 #
ellipse-curve $-1 -14.349045610947222 36.961046402676601 12.182037861709139 0 0.78801076186113728 0.61566146476048833 1.5 0 0 1 I I #
face $-1 $-1 $503 $50 $-1 $504 reversed single #
loop $-1 $-1 $242 $236 #
plane-surface $-1 0 0 22.183291385214517 0 0 1 1 0 0 forward_v I I I I #
coedge $-1 $505 $506 $507 $508 reversed $237 $-1 #
coedge $-1 $509 $239 $241 $368 forward $149 $-1 #
coedge $-1 $239 $509 $505 $510 forward $149 $-1 #
coedge $-1 $507 $242 $239 $365 forward $359 $-1 #
edge $-1 $371 -4.6303568941355824 $511 18.923952294860577 $364 $512 forward 7 unknown #
coedge $-1 $513 $514 $240 $367 forward $503 $-1 #
edge $-1 $515 -75.675957412167875 $370 -55.673450365157123 $366 $516 forward 7 unknown #
edge $-1 $371 64.166218099519114 $515 89.549763623400651 $241 $517 forward 7 unknown #
coedge $-1 $242 $507 $513 $518 forward $359 $-1 #
vertex $-1 $243 $519 #
vertex $-1 $243 $520 #
straight-curve $-1 2.5164408062269157 47.917425656884035 22.183291385214517 0 -1 0 I I #
coedge $-1 $373 $373 $-1 $521 reversed $246 $-1 #
edge $-1 $522 0 $522 6.2831853071796004 $247 $523 forward 7 unknown #
vertex $-1 $250 $524 #
ellipse-curve $-1 9.2462434316543778 36.961046402676601 12.182037861709139 0 0.78801076186113728 0.61566146476048833 1.5 0 0 1 I I #
coedge $-1 $377 $377 $-1 $525 reversed $253 $-1 #
edge $-1 $526 0 $526 6.2831853071796004 $254 $527 forward 7 unknown #
vertex $-1 $257 $528 #
ellipse-curve $-1 19.3409473697956 36.961046402676601 12.182037861709139 0 0.78801076186113728 0.61566146476048833 1.5 0 0 1 I I #
face $-1 $-1 $529 $53 $-1 $530 reversed single #
loop $-1 $-1 $264 $258 #
plane-surface $-1 0 0 22.183291385214517 0 0 1 1 0 0 forward_v I I I I #
coedge $-1 $531 $532 $533 $534 reversed $259 $-1 #
coedge $-1 $535 $261 $263 $391 forward $163 $-1 #
coedge $-1 $261 $535 $531 $536 forward $163 $-1 #
coedge $-1 $533 $264 $261 $388 forward $382 $-1 #
edge $-1 $394 12.214639596235827 $537 35.768948785231984 $387 $538 forward 7 unknown #
coedge $-1 $539 $540 $262 $390 forward $529 $-1 #
edge $-1 $541 -75.675957412167875 $393 -55.673450365157123 $389 $542 forward 7 unknown #
edge $-1 $394 64.166218099519114 $541 89.549763623400651 $263 $543 forward 7 unknown #
coedge $-1 $264 $533 $539 $544 forward $382 $-1 #
vertex $-1 $265 $545 #
vertex $-1 $265 $546 #
straight-curve $-1 36.206433786969733 47.917425656884035 22.183291385214517 0 -1 0 I I #
coedge $-1 $396 $396 $-1 $547 reversed $268 $-1 #
edge $-1 $548 0 $548 6.2831853071796004 $269 $549 forward 7 unknown #
vertex $-1 $272 $550 #
ellipse-curve $-1 42.936236412397207 36.961046402676601 12.182037861709139 0 0.78801076186113728 0.61566146476048833 1.5 0 0 1 I I #
coedge $-1 $400 $400 $-1 $551 reversed $275 $-1 #
edge $-1 $552 0 $552 6.2831853071796004 $276 $553 forward 7 unknown #
vertex $-1 $279 $554 #
ellipse-curve $-1 53.030940350538415 36.961046402676601 12.182037861709139 0 0.78801076186113728 0.61566146476048833 1.5 0 0 1 I I #
face $-1 $-1 $416 $42 $-1 $555 reversed single #
loop $-1 $-1 $556 $280 #
plane-surface $-1 0 44.774881811700318 0 0 -1 0 0 0 -1 forward_v I I I I #
coedge $-1 $422 $421 $557 $558 forward $281 $-1 #
coedge $-1 $283 $293 $559 $560 forward $177 $-1 #
coedge $-1 $415 $289 $283 $410 reversed $416 $-1 #
edge $-1 $561 -44.774881811700318 $294 44.774881811700318 $409 $562 forward 7 unknown #
coedge $-1 $285 $284 $421 $563 forward $113 $-1 #
coedge $-1 $556 $557 $284 $413 reversed $405 $-1 #
edge $-1 $418 -67.379985961485644 $564 67.379985961485644 $412 $565 forward 7 unknown #
edge $-1 $423 -67.379985961485644 $417 67.379985961485644 $288 $566 forward 7 unknown #
coedge $-1 $286 $409 $556 $567 reversed $416 $-1 #
loop $-1 $-1 $289 $404 #
vertex $-1 $287 $568 #
vertex $-1 $287 $569 #
straight-curve $-1 67.379985961485644 0 22.183291385214517 0 1 0 I I #
straight-curve $-1 67.379985961485644 -44.774881811700318 0 0 0 -1 I I #
coedge $-1 $407 $291 $411 $563 reversed $281 $-1 #
coedge $-1 $291 $407 $293 $425 reversed $281 $-1 #
vertex $-1 $563 $570 #
straight-curve $-1 -67.379985961485644 -44.774881811700318 0 0 0 -1 I I #
edge $-1 $295 -44.774881811700318 $571 44.774881811700318 $422 $572 forward 7 unknown #
point $-1 67.379985961485644 -44.774881811700318 -22.183291385214517 #
point $-1 -67.379985961485644 -44.774881811700318 -22.183291385214517 #
face $-1 $-1 $445 $43 $-1 $573 forward single #
loop $-1 $-1 $574 $297 #
plane-surface $-1 -39.408270217106818 -58.664972019734954 0 -1 0 0 0 0 1 forward_v I I I I #
coedge $-1 $575 $300 $435 $576 reversed $185 $-1 #
coedge $-1 $300 $575 $577 $578 reversed $185 $-1 #
coedge $-1 $308 $307 $300 $434 reversed $298 $-1 #
edge $-1 $579 -22.183291385214517 $580 22.183291385214517 $433 $581 forward 7 unknown #
coedge $-1 $302 $301 $431 $576 forward $117 $-1 #
coedge $-1 $441 $574 $301 $437 reversed $429 $-1 #
edge $-1 $439 -13.890090208034636 $582 13.890090208034643 $436 $583 forward 7 unknown #
edge $-1 $580 -13.890090208034643 $309 13.890090208034636 $307 $584 forward 7 unknown #
vertex $-1 $437 $585 #
straight-curve $-1 0 -44.774881811700318 -22.183291385214517 1 0 0 I I #
coedge $-1 $586 $436 $304 $442 reversed $429 $-1 #
edge $-1 $446 -22.183291385214517 $439 22.183291385214517 $441 $587 forward 7 unknown #
coedge $-1 $577 $305 $308 $448 forward $445 $-1 #
coedge $-1 $305 $577 $586 $588 forward $445 $-1 #
loop $-1 $-1 $305 $428 #
vertex $-1 $306 $589 #
straight-curve $-1 0 -44.774881811700318 22.183291385214517 -1 0 0 I I #
edge $-1 $310 -13.890090208034636 $579 13.890090208034643 $308 $590 forward 7 unknown #
point $-1 -44.27116831641392 -44.774881811700318 -22.183291385214517 #
point $-1 -44.27116831641392 -44.774881811700318 22.183291385214517 #
loop $-1 $-1 $320 $312 #
plane-surface $-1 0 44.774881811700318 0 0 -1 0 0 0 -1 forward_v I I I I #
coedge $-1 $454 $315 $317 $458 reversed $193 $-1 #
coedge $-1 $315 $453 $591 $592 reversed $193 $-1 #
coedge $-1 $323 $318 $315 $456 forward $313 $-1 #
edge $-1 $459 -18.770214663231165 $593 -3.1425438451837167 $455 $594 forward 7 unknown #
coedge $-1 $317 $316 $462 $595 reversed $121 $-1 #
edge $-1 $596 -89.549763623400651 $459 -64.166218099519114 $453 $597 forward 7 unknown #
vertex $-1 $319 $598 #
straight-curve $-1 -26.543195280380324 29.147210993652873 22.183291385214517 1 0 0 I I #
coedge $-1 $591 $320 $323 $466 reversed $451 $-1 #
coedge $-1 $320 $591 $457 $595 forward $451 $-1 #
vertex $-1 $321 $599 #
straight-curve $-1 -64.863545155258734 44.774881811700318 77.85674175037164 0 0 1 I I #
straight-curve $-1 -64.863545155258734 -10.357456829638025 72.746961795564474 0 0.61566146476048833 -0.78801076186113728 I I #
edge $-1 $593 41.30923596626257 $324 64.863545155258734 $461 $600 forward 7 unknown #
point $-1 -64.863545155258734 44.774881811700318 22.183291385214517 #
point $-1 -64.863545155258734 29.14721099365287 22.183291385214524 #
edge $-1 $601 1 $601 0 $327 $-1 forward 7 unknown #
vertex $-1 $328 $602 #
ellipse-curve $-1 -58.133742529831252 32.324103166288452 8.5592608603094575 0 0.78801076186113728 0.61566146476048833 1.5 0 0 1 I I #
point $-1 -56.633742529831252 36.961046402676629 12.182037861709158 #
edge $-1 $603 1 $603 0 $331 $-1 forward 7 unknown #
vertex $-1 $332 $604 #
ellipse-curve $-1 -48.039038591690044 32.324103166288452 8.5592608603094575 0 0.78801076186113728 0.61566146476048833 1.5 0 0 1 I I #
point $-1 -46.539038591690044 36.961046402676629 12.182037861709158 #
loop $-1 $-1 $343 $335 #
plane-surface $-1 0 44.774881811700318 0 0 -1 0 0 0 -1 forward_v I I I I #
coedge $-1 $480 $338 $340 $484 reversed $215 $-1 #
coedge $-1 $338 $479 $605 $606 reversed $215 $-1 #
coedge $-1 $346 $341 $338 $482 forward $336 $-1 #
edge $-1 $485 -18.770214663231165 $607 -3.1425438451837167 $481 $608 forward 7 unknown #
coedge $-1 $340 $339 $488 $609 reversed $135 $-1 #
edge $-1 $610 -89.549763623400651 $485 -64.166218099519114 $479 $611 forward 7 unknown #
vertex $-1 $342 $612 #
straight-curve $-1 -9.6981987900089131 29.147210993652873 22.183291385214517 1 0 0 I I #
coedge $-1 $605 $343 $346 $492 reversed $477 $-1 #
coedge $-1 $343 $605 $483 $609 forward $477 $-1 #
vertex $-1 $344 $613 #
straight-curve $-1 -31.173552174515905 44.774881811700318 77.85674175037164 0 0 1 I I #
straight-curve $-1 -31.173552174515905 -10.357456829638025 72.746961795564474 0 0.61566146476048833 -0.78801076186113728 I I #
edge $-1 $607 7.6192429855197457 $347 31.173552174515905 $487 $614 forward 7 unknown #
point $-1 -31.173552174515905 44.774881811700318 22.183291385214517 #
point $-1 -31.173552174515905 29.14721099365287 22.183291385214524 #
edge $-1 $615 1 $615 0 $350 $-1 forward 7 unknown #
vertex $-1 $351 $616 #
ellipse-curve $-1 -24.443749549088437 32.324103166288452 8.5592608603094575 0 0.78801076186113728 0.61566146476048833 1.5 0 0 1 I I #
point $-1 -22.943749549088437 36.961046402676629 12.182037861709158 #
edge $-1 $617 1 $617 0 $354 $-1 forward 7 unknown #
vertex $-1 $355 $618 #
ellipse-curve $-1 -14.349045610947222 32.324103166288452 8.5592608603094575 0 0.78801076186113728 0.61566146476048833 1.5 0 0 1 I I #
point $-1 -12.849045610947222 36.961046402676629 12.182037861709158 #
loop $-1 $-1 $366 $358 #
plane-surface $-1 0 44.774881811700318 0 0 -1 0 0 0 -1 forward_v I I I I #
coedge $-1 $506 $361 $363 $510 reversed $237 $-1 #
coedge $-1 $361 $505 $619 $620 reversed $237 $-1 #
coedge $-1 $369 $364 $361 $508 forward $359 $-1 #
edge $-1 $511 -18.770214663231165 $621 -3.1425438451837167 $507 $622 forward 7 unknown #
coedge $-1 $363 $362 $514 $623 reversed $149 $-1 #
edge $-1 $624 -89.549763623400651 $511 -64.166218099519114 $505 $625 forward 7 unknown #
vertex $-1 $365 $626 #
straight-curve $-1 7.1467977003624981 29.147210993652873 22.183291385214517 1 0 0 I I #
coedge $-1 $619 $366 $369 $518 reversed $503 $-1 #
coedge $-1 $366 $619 $509 $623 forward $503 $-1 #
vertex $-1 $367 $627 #
straight-curve $-1 2.5164408062269157 44.774881811700318 77.85674175037164 0 0 1 I I #
straight-curve $-1 2.5164408062269157 -10.357456829638025 72.746961795564474 0 0.61566146476048833 -0.78801076186113728 I I #
edge $-1 $621 -26.070749995223075 $370 -2.5164408062269157 $513 $628 forward 7 unknown #
point $-1 2.5164408062269157 44.774881811700318 22.183291385214517 #
point $-1 2.5164408062269157 29.14721099365287 22.183291385214524 #
edge $-1 $629 1 $629 0 $373 $-1 forward 7 unknown #
vertex $-1 $374 $630 #
ellipse-curve $-1 9.2462434316543778 32.324103166288452 8.5592608603094575 0 0.78801076186113728 0.61566146476048833 1.5 0 0 1 I I #
point $-1 10.746243431654378 36.961046402676629 12.182037861709158 #
edge $-1 $631 1 $631 0 $377 $-1 forward 7 unknown #
vertex $-1 $378 $632 #
ellipse-curve $-1 19.3409473697956 32.324103166288452 8.5592608603094575 0 0.78801076186113728 0.61566146476048833 1.5 0 0 1 I I #
point $-1 20.8409473697956 36.961046402676629 12.182037861709158 #
loop $-1 $-1 $389 $381 #
plane-surface $-1 0 44.774881811700318 0 0 -1 0 0 0 -1 forward_v I I I I #
coedge $-1 $532 $384 $386 $536 reversed $259 $-1 #
coedge $-1 $384 $531 $633 $634 reversed $259 $-1 #
coedge $-1 $392 $387 $384 $534 forward $382 $-1 #
edge $-1 $537 -18.770214663231165 $635 -3.1425438451837167 $533 $636 forward 7 unknown #
coedge $-1 $386 $385 $540 $637 reversed $163 $-1 #
edge $-1 $638 -89.549763623400651 $537 -64.166218099519114 $531 $639 forward 7 unknown #
vertex $-1 $388 $640 #
straight-curve $-1 23.991794190733906 29.147210993652873 22.183291385214517 1 0 0 I I #
coedge $-1 $633 $389 $392 $544 reversed $529 $-1 #
coedge $-1 $389 $633 $535 $637 forward $529 $-1 #
vertex $-1 $390 $641 #
straight-curve $-1 36.206433786969733 44.774881811700318 77.85674175037164 0 0 1 I I #
straight-curve $-1 36.206433786969733 -10.357456829638025 72.746961795564474 0 0.61566146476048833 -0.78801076186113728 I I #
edge $-1 $635 -59.76074297596589 $393 -36.206433786969733 $539 $642 forward 7 unknown #
point $-1 36.206433786969733 44.774881811700318 22.183291385214517 #
point $-1 36.206433786969733 29.14721099365287 22.183291385214524 #
edge $-1 $643 1 $643 0 $396 $-1 forward 7 unknown #
vertex $-1 $397 $644 #
ellipse-curve $-1 42.936236412397207 32.324103166288452 8.5592608603094575 0 0.78801076186113728 0.61566146476048833 1.5 0 0 1 I I #
point $-1 44.436236412397207 36.961046402676629 12.182037861709158 #
edge $-1 $645 1 $645 0 $400 $-1 forward 7 unknown #
vertex $-1 $401 $646 #
ellipse-curve $-1 53.030940350538415 32.324103166288452 8.5592608603094575 0 0.78801076186113728 0.61566146476048833 1.5 0 0 1 I I #
point $-1 54.530940350538415 36.961046402676629 12.182037861709158 #
plane-surface $-1 67.379985961485644 0 0 -1 0 0 0 0 1 forward_v I I I I #
coedge $-1 $559 $412 $415 $567 forward $405 $-1 #
coedge $-1 $412 $559 $407 $558 reversed $405 $-1 #
edge $-1 $564 -22.183291385214517 $571 22.183291385214517 $557 $647 forward 7 unknown #
coedge $-1 $557 $556 $408 $560 reversed $405 $-1 #
edge $-1 $571 -67.379985961485644 $561 67.379985961485644 $559 $648 forward 7 unknown #
vertex $-1 $410 $649 #
straight-curve $-1 67.379985961485644 0 -22.183291385214517 0 -1 0 I I #
edge $-1 $564 -44.774881811700318 $423 44.774881811700318 $421 $650 forward 7 unknown #
vertex $-1 $413 $651 #
straight-curve $-1 0 44.774881811700318 22.183291385214517 -1 0 0 I I #
straight-curve $-1 0 -44.774881811700318 22.183291385214517 1 0 0 I I #
edge $-1 $418 -22.183291385214517 $561 22.183291385214517 $415 $652 forward 7 unknown #
point $-1 67.379985961485644 -44.774881811700318 22.183291385214517 #
point $-1 67.379985961485644 44.774881811700318 22.183291385214517 #
point $-1 -67.379985961485644 -44.774881811700318 22.183291385214517 #
vertex $-1 $560 $653 #
straight-curve $-1 -67.379985961485644 0 -22.183291385214517 0 1 0 I I #
plane-surface $-1 0 0 22.183291385214517 0 0 1 1 0 0 forward_v I I I I #
coedge $-1 $436 $586 $575 $654 forward $429 $-1 #
coedge $-1 $432 $431 $574 $654 reversed $185 $-1 #
edge $-1 $582 -2.4314490496535512 $580 2.4314490496535512 $431 $655 forward 7 unknown #
coedge $-1 $444 $443 $432 $578 forward $445 $-1 #
edge $-1 $579 -2.4314490496535512 $656 2.4314490496535512 $432 $657 forward 7 unknown #
vertex $-1 $448 $658 #
vertex $-1 $438 $659 #
straight-curve $-1 -44.27116831641392 -72.555062227769596 0 0 0 -1 I I #
vertex $-1 $654 $660 #
straight-curve $-1 -39.408270217106818 -58.664972019734954 -22.183291385214517 0 -1 0 I I #
straight-curve $-1 -44.27116831641392 -58.664972019734954 -22.183291385214517 0 1 0 I I #
point $-1 -39.408270217106818 -44.774881811700318 -22.183291385214517 #
coedge $-1 $574 $441 $444 $588 reversed $429 $-1 #
straight-curve $-1 -39.408270217106818 -44.774881811700318 0 0 0 -1 I I #
edge $-1 $656 -13.890090208034643 $446 13.890090208034636 $586 $661 forward 7 unknown #
point $-1 -39.408270217106818 -44.774881811700318 22.183291385214517 #
straight-curve $-1 -44.27116831641392 -58.664972019734954 22.183291385214517 0 -1 0 I I #
coedge $-1 $462 $461 $454 $592 forward $451 $-1 #
edge $-1 $593 55.673450365157123 $596 75.675957412167875 $591 $662 forward 7 unknown #
vertex $-1 $466 $663 #
straight-curve $-1 -41.30923596626257 47.917425656884035 22.183291385214517 0 1 0 I I #
edge $-1 $596 14.766040685882245 $463 38.32034987487841 $462 $664 forward 7 unknown #
vertex $-1 $595 $665 #
straight-curve $-1 -41.30923596626257 -10.357456829638025 72.746961795564474 0 -0.61566146476048833 0.78801076186113728 I I #
point $-1 -41.30923596626257 29.14721099365287 22.183291385214524 #
point $-1 -64.863545155258734 44.774881811700311 2.1807843382037646 #
straight-curve $-1 0 44.774881811700318 22.183291385214517 -1 0 0 I I #
vertex $-1 $469 $666 #
point $-1 -56.633742529831252 32.324103166288452 8.5592608603094575 #
vertex $-1 $473 $667 #
point $-1 -46.539038591690044 32.324103166288452 8.5592608603094575 #
coedge $-1 $488 $487 $480 $606 forward $477 $-1 #
edge $-1 $607 55.673450365157123 $610 75.675957412167875 $605 $668 forward 7 unknown #
vertex $-1 $492 $669 #
straight-curve $-1 -7.6192429855197457 47.917425656884035 22.183291385214517 0 1 0 I I #
edge $-1 $610 -2.0789558044891674 $489 21.475353384506992 $488 $670 forward 7 unknown #
vertex $-1 $609 $671 #
straight-curve $-1 -7.6192429855197457 -10.357456829638025 72.746961795564474 0 -0.61566146476048833 0.78801076186113728 I I #
point $-1 -7.6192429855197457 29.14721099365287 22.183291385214524 #
point $-1 -31.173552174515905 44.774881811700311 2.1807843382037646 #
straight-curve $-1 0 44.774881811700318 22.183291385214517 -1 0 0 I I #
vertex $-1 $495 $672 #
point $-1 -22.943749549088437 32.324103166288452 8.5592608603094575 #
vertex $-1 $499 $673 #
point $-1 -12.849045610947222 32.324103166288452 8.5592608603094575 #
coedge $-1 $514 $513 $506 $620 forward $503 $-1 #
edge $-1 $621 55.673450365157123 $624 75.675957412167875 $619 $674 forward 7 unknown #
vertex $-1 $518 $675 #
straight-curve $-1 26.070749995223075 47.917425656884035 22.183291385214517 0 1 0 I I #
edge $-1 $624 -18.923952294860577 $515 4.6303568941355824 $514 $676 forward 7 unknown #
vertex $-1 $623 $677 #
straight-curve $-1 26.070749995223075 -10.357456829638025 72.746961795564474 0 -0.61566146476048833 0.78801076186113728 I I #
point $-1 26.070749995223075 29.14721099365287 22.183291385214524 #
point $-1 2.5164408062269157 44.774881811700311 2.1807843382037646 #
straight-curve $-1 0 44.774881811700318 22.183291385214517 -1 0 0 I I #
vertex $-1 $521 $678 #
point $-1 10.746243431654378 32.324103166288452 8.5592608603094575 #
vertex $-1 $525 $679 #
point $-1 20.8409473697956 32.324103166288452 8.5592608603094575 #
coedge $-1 $540 $539 $532 $634 forward $529 $-1 #
edge $-1 $635 55.673450365157123 $638 75.675957412167875 $633 $680 forward 7 unknown #
vertex $-1 $544 $681 #
straight-curve $-1 59.76074297596589 47.917425656884035 22.183291385214517 0 1 0 I I #
edge $-1 $638 -35.768948785231984 $541 -12.214639596235827 $540 $682 forward 7 unknown #
vertex $-1 $637 $683 #
straight-curve $-1 59.76074297596589 -10.357456829638025 72.746961795564474 0 -0.61566146476048833 0.78801076186113728 I I #
point $-1 59.76074297596589 29.14721099365287 22.183291385214524 #
point $-1 36.206433786969733 44.774881811700311 2.1807843382037646 #
straight-curve $-1 0 44.774881811700318 22.183291385214517 -1 0 0 I I #
vertex $-1 $547 $684 #
point $-1 44.436236412397207 32.324103166288452 8.5592608603094575 #
vertex $-1 $551 $685 #
point $-1 54.530940350538415 32.324103166288452 8.5592608603094575 #
straight-curve $-1 -67.379985961485644 44.774881811700318 0 0 0 -1 I I #
straight-curve $-1 0 44.774881811700318 -22.183291385214517 1 0 0 I I #
point $-1 67.379985961485644 44.774881811700318 -22.183291385214517 #
straight-curve $-1 -67.379985961485644 0 22.183291385214517 0 -1 0 I I #
point $-1 -67.379985961485644 44.774881811700318 22.183291385214517 #
straight-curve $-1 67.379985961485644 44.774881811700318 0 0 0 -1 I I #
point $-1 -67.379985961485644 44.774881811700318 -22.183291385214517 #
edge $-1 $656 -22.183291385214517 $582 22.183291385214517 $574 $686 forward 7 unknown #
straight-curve $-1 -41.839719266760369 -72.555062227769596 -22.183291385214517 -1 0 0 I I #
vertex $-1 $588 $687 #
straight-curve $-1 -41.839719266760369 -72.555062227769596 22.183291385214517 1 0 0 I I #
point $-1 -44.27116831641392 -72.555062227769596 22.183291385214517 #
point $-1 -44.27116831641392 -72.555062227769596 -22.183291385214517 #
point $-1 -39.408270217106818 -72.555062227769596 -22.183291385214517 #
straight-curve $-1 -39.408270217106818 -58.664972019734954 22.183291385214517 0 1 0 I I #
straight-curve $-1 -41.30923596626257 44.774881811700318 77.85674175037164 0 0 -1 I I #
point $-1 -41.30923596626257 44.774881811700318 22.183291385214517 #
straight-curve $-1 -26.543195280380324 44.774881811700318 2.1807843382037717 -1 0 0 I I #
point $-1 -41.30923596626257 44.774881811700311 2.1807843382037646 #
point $-1 -58.133742529831252 31.142087023496746 7.6357686631687258 #
point $-1 -48.039038591690044 31.142087023496746 7.6357686631687258 #
straight-curve $-1 -7.6192429855197457 44.774881811700318 77.85674175037164 0 0 -1 I I #
point $-1 -7.6192429855197457 44.774881811700318 22.183291385214517 #
straight-curve $-1 -9.6981987900089131 44.774881811700318 2.1807843382037717 -1 0 0 I I #
point $-1 -7.6192429855197457 44.774881811700311 2.1807843382037646 #
point $-1 -24.443749549088437 31.142087023496746 7.6357686631687258 #
point $-1 -14.349045610947222 31.142087023496746 7.6357686631687258 #
straight-curve $-1 26.070749995223075 44.774881811700318 77.85674175037164 0 0 -1 I I #
point $-1 26.070749995223075 44.774881811700318 22.183291385214517 #
straight-curve $-1 7.1467977003624981 44.774881811700318 2.1807843382037717 -1 0 0 I I #
point $-1 26.070749995223075 44.774881811700311 2.1807843382037646 #
point $-1 9.2462434316543778 31.142087023496746 7.6357686631687258 #
point $-1 19.3409473697956 31.142087023496746 7.6357686631687258 #
straight-curve $-1 59.76074297596589 44.774881811700318 77.85674175037164 0 0 -1 I I #
point $-1 59.76074297596589 44.774881811700318 22.183291385214517 #
straight-curve $-1 23.991794190733906 44.774881811700318 2.1807843382037717 -1 0 0 I I #
point $-1 59.76074297596589 44.774881811700311 2.1807843382037646 #
point $-1 42.936236412397207 31.142087023496746 7.6357686631687258 #
point $-1 53.030940350538415 31.142087023496746 7.6357686631687258 #
straight-curve $-1 -39.408270217106818 -72.555062227769596 0 0 0 -1 I I #
point $-1 -39.408270217106818 -72.555062227769596 22.183291385214517 #
End-of-ACIS-data 