500 0 10 0           
7 Unknown 11 ACIS 5.0 NT 24 Fri Mar 26 14:56:51 1999 
-1 9.9999999999999995e-007 1e-010 
body $-1 $10 $-1 $11 #
body $-1 $12 $-1 $13 #
body $-1 $14 $-1 $15 #
body $-1 $16 $-1 $17 #
body $-1 $18 $-1 $19 #
body $-1 $20 $-1 $21 #
body $-1 $22 $-1 $23 #
body $-1 $24 $-1 $25 #
body $-1 $26 $-1 $27 #
body $-1 $28 $-1 $29 #
lump $-1 $-1 $30 $0 #
transform $-1 1 0 0 0 1 0 0 0 1 77.691579943235581 32.356988835393757 9.634417602237594 1 rotate no_reflect no_shear #
lump $-1 $-1 $31 $1 #
transform $-1 1 0 0 0 1 0 0 0 1 77.691579943235581 32.356988835393757 9.634417602237594 1 rotate no_reflect no_shear #
lump $-1 $-1 $32 $2 #
transform $-1 1 0 0 0 1 0 0 0 1 77.691579943235581 32.356988835393757 9.634417602237594 1 rotate no_reflect no_shear #
lump $-1 $-1 $33 $3 #
transform $-1 1 0 0 0 1 0 0 0 1 77.691579943235581 32.356988835393757 9.634417602237594 1 rotate no_reflect no_shear #
lump $-1 $-1 $34 $4 #
transform $-1 1 0 0 0 1 0 0 0 1 77.691579943235581 32.356988835393757 9.634417602237594 1 rotate no_reflect no_shear #
lump $-1 $-1 $35 $5 #
transform $-1 1 0 0 0 1 0 0 0 1 77.691579943235581 32.356988835393757 9.634417602237594 1 rotate no_reflect no_shear #
lump $-1 $-1 $36 $6 #
transform $-1 1 0 0 0 1 0 0 0 1 77.691579943235581 32.356988835393757 9.634417602237594 1 rotate no_reflect no_shear #
lump $-1 $-1 $37 $7 #
transform $-1 1 0 0 0 1 0 0 0 1 77.691579943235581 32.356988835393757 9.634417602237594 1 rotate no_reflect no_shear #
lump $-1 $-1 $38 $8 #
transform $-1 1 0 0 0 1 0 0 0 1 77.691579943235581 32.356988835393757 9.634417602237594 1 rotate no_reflect no_shear #
lump $-1 $-1 $39 $9 #
transform $-1 1 0 0 0 1 0 0 0 1 77.691579943235581 32.356988835393757 9.634417602237594 1 rotate no_reflect no_shear #
shell $-1 $-1 $-1 $40 $-1 $10 #
shell $-1 $-1 $-1 $41 $-1 $12 #
shell $-1 $-1 $-1 $42 $-1 $14 #
shell $-1 $-1 $-1 $43 $-1 $16 #
shell $-1 $-1 $-1 $44 $-1 $18 #
shell $-1 $-1 $-1 $45 $-1 $20 #
shell $-1 $-1 $-1 $46 $-1 $22 #
shell $-1 $-1 $-1 $47 $-1 $24 #
shell $-1 $-1 $-1 $48 $-1 $26 #
shell $-1 $-1 $-1 $49 $-1 $28 #
face $-1 $50 $51 $30 $-1 $52 forward single #
face $-1 $53 $54 $31 $-1 $55 reversed single #
face $-1 $56 $57 $32 $-1 $58 forward single #
face $-1 $59 $60 $33 $-1 $61 forward single #
face $-1 $62 $63 $34 $-1 $64 reversed single #
face $-1 $65 $66 $35 $-1 $67 forward single #
face $-1 $68 $69 $36 $-1 $70 forward single #
face $-1 $71 $72 $37 $-1 $73 reversed single #
face $-1 $74 $75 $38 $-1 $76 forward single #
face $-1 $77 $78 $39 $-1 $79 forward single #
face $-1 $80 $81 $30 $-1 $82 reversed single #
loop $-1 $-1 $83 $40 #
plane-surface $-1 0 0 9.634417602237594 0 0 1 1 0 0 forward_v I I I I #
face $-1 $84 $85 $31 $-1 $86 reversed single #
loop $-1 $-1 $87 $41 #
plane-surface $-1 -201.78609036978918 -23.094602666818851 98.018754457834319 0 1 0 -0.79863551827123203 0 0.60181501223851219 forward_v I I I I #
face $-1 $88 $89 $32 $-1 $90 forward single #
loop $-1 $91 $92 $42 #
cone-surface $-1 -75.32929251521081 -20.876678492811781 6.7463480219208272 0.79863551827123203 0 -0.60181501223851219 0.3009075061192561 0 0.39931775913561601 1 I I 0 1 0.5 forward I I I I #
face $-1 $93 $94 $33 $-1 $95 forward single #
loop $-1 $96 $97 $43 #
cone-surface $-1 -75.32929251521081 -17.549792231801174 6.7463480219208272 0.79863551827123203 0 -0.60181501223851219 0.3009075061192561 0 0.39931775913561601 1 I I 0 1 0.5 forward I I I I #
face $-1 $98 $99 $34 $-1 $100 reversed single #
loop $-1 $-1 $101 $44 #
plane-surface $-1 -201.78609036978918 9.2623861685749063 98.018754457834319 0 1 0 -0.79863551827123203 0 0.60181501223851219 forward_v I I I I #
face $-1 $102 $103 $35 $-1 $104 forward single #
loop $-1 $105 $106 $45 #
cone-surface $-1 -75.32929251521081 11.48031034258198 6.7463480219208272 0.79863551827123203 0 -0.60181501223851219 0.3009075061192561 0 0.39931775913561601 1 I I 0 1 0.5 forward I I I I #
face $-1 $107 $108 $36 $-1 $109 forward single #
loop $-1 $110 $111 $46 #
cone-surface $-1 -75.32929251521081 14.80719660359258 6.7463480219208272 0.79863551827123203 0 -0.60181501223851219 0.3009075061192561 0 0.39931775913561601 1 I I 0 1 0.5 forward I I I I #
face $-1 $112 $113 $37 $-1 $114 reversed single #
loop $-1 $-1 $115 $47 #
plane-surface $-1 -52.623702287847522 -27.527485820248636 89.583048224307277 0.54463904215088732 0 0.83867056331134215 0.83867056331134215 0 -0.54463904215088732 forward_v I I I I #
face $-1 $116 $117 $38 $-1 $118 forward single #
loop $-1 $119 $120 $48 #
cone-surface $-1 73.805496063712155 -29.597272826739403 6.8583301245852404 -0.54463904215088732 0 -0.83867056331134215 0.83867056331134215 0 -0.54463904215088732 1 I I 0 1 1 forward I I I I #
face $-1 $121 $122 $39 $-1 $123 forward single #
loop $-1 $124 $125 $49 #
cone-surface $-1 73.805496063712155 -25.457698813757865 6.8583301245852404 -0.54463904215088732 0 -0.83867056331134215 0.83867056331134215 0 -0.54463904215088732 1 I I 0 1 1 forward I I I I #
face $-1 $126 $127 $30 $-1 $128 reversed single #
loop $-1 $-1 $129 $50 #
plane-surface $-1 0 0 -9.634417602237594 0 0 1 1 0 0 forward_v I I I I #
coedge $-1 $130 $131 $132 $133 forward $51 $-1 #
face $-1 $134 $135 $31 $-1 $136 reversed single #
loop $-1 $-1 $137 $53 #
plane-surface $-1 -77.691579943235567 -19.213235362306477 4.5068361890989763 -0.79863551827123203 0 0.60181501223851219 0.60181501223851219 0 0.79863551827123203 forward_v I I I I #
coedge $-1 $138 $139 $140 $141 reversed $54 $-1 #
face $-1 $-1 $142 $32 $-1 $143 forward single #
loop $-1 $144 $145 $56 #
cone-surface $-1 -74.69930102324038 -20.876678492811781 6.2716153951137343 0.79863551827123203 0 -0.60181501223851219 0.15045375305962805 0 0.19965887956780801 1 I I -0.70710678118654746 0.70710678118654746 0.25 forward I I I I #
loop $-1 $-1 $146 $42 #
coedge $-1 $92 $92 $147 $148 reversed $57 $-1 #
face $-1 $-1 $149 $33 $-1 $150 forward single #
loop $-1 $151 $152 $59 #
cone-surface $-1 -74.69930102324038 -17.549792231801174 6.2716153951137343 0.79863551827123203 0 -0.60181501223851219 0.15045375305962805 0 0.19965887956780801 1 I I -0.70710678118654746 0.70710678118654746 0.25 forward I I I I #
loop $-1 $-1 $153 $43 #
coedge $-1 $97 $97 $154 $155 reversed $60 $-1 #
face $-1 $156 $157 $34 $-1 $158 reversed single #
loop $-1 $-1 $159 $62 #
plane-surface $-1 -77.691579943235567 13.14375347308728 4.5068361890989763 -0.79863551827123203 0 0.60181501223851219 0.60181501223851219 0 0.79863551827123203 forward_v I I I I #
coedge $-1 $160 $161 $162 $163 reversed $63 $-1 #
face $-1 $-1 $164 $35 $-1 $165 forward single #
loop $-1 $166 $167 $65 #
cone-surface $-1 -74.69930102324038 11.48031034258198 6.2716153951137343 0.79863551827123203 0 -0.60181501223851219 0.15045375305962805 0 0.19965887956780801 1 I I -0.70710678118654746 0.70710678118654746 0.25 forward I I I I #
loop $-1 $-1 $168 $45 #
coedge $-1 $106 $106 $169 $170 reversed $66 $-1 #
face $-1 $-1 $171 $36 $-1 $172 forward single #
loop $-1 $173 $174 $68 #
cone-surface $-1 -74.69930102324038 14.80719660359258 6.2716153951137343 0.79863551827123203 0 -0.60181501223851219 0.15045375305962805 0 0.19965887956780801 1 I I -0.70710678118654746 0.70710678118654746 0.25 forward I I I I #
loop $-1 $-1 $175 $46 #
coedge $-1 $111 $111 $176 $177 reversed $69 $-1 #
face $-1 $178 $179 $37 $-1 $180 forward single #
loop $-1 $-1 $181 $71 #
plane-surface $-1 32.004033079098306 -22.697982805103514 219.89833045539038 0 -1 0 -0.54463904215088732 0 -0.83867056331134215 forward_v I I I I #
coedge $-1 $182 $183 $184 $185 reversed $72 $-1 #
face $-1 $-1 $186 $38 $-1 $187 forward single #
loop $-1 $188 $189 $74 #
cone-surface $-1 73.249687325332587 -29.597272826739403 6.0024597377152809 -0.54463904215088732 0 -0.83867056331134215 0.41933528165567108 0 -0.27231952107544366 1 I I -0.70710678118654746 0.70710678118654746 0.5 forward I I I I #
loop $-1 $-1 $190 $48 #
coedge $-1 $120 $120 $191 $192 reversed $75 $-1 #
face $-1 $-1 $193 $39 $-1 $194 forward single #
loop $-1 $195 $196 $77 #
cone-surface $-1 73.249687325332587 -25.457698813757865 6.0024597377152809 -0.54463904215088732 0 -0.83867056331134215 0.41933528165567108 0 -0.27231952107544366 1 I I -0.70710678118654746 0.70710678118654746 0.5 forward I I I I #
loop $-1 $-1 $197 $49 #
coedge $-1 $125 $125 $198 $199 reversed $78 $-1 #
face $-1 $200 $201 $30 $-1 $202 reversed single #
loop $-1 $-1 $203 $80 #
plane-surface $-1 0 -32.356988835393757 0 0 1 0 0 0 1 forward_v I I I I #
coedge $-1 $204 $205 $206 $207 forward $81 $-1 #
coedge $-1 $208 $83 $209 $210 forward $51 $-1 #
coedge $-1 $83 $208 $211 $212 forward $51 $-1 #
coedge $-1 $213 $214 $83 $133 reversed $215 $-1 #
edge $-1 $216 -32.356988835393757 $217 32.356988835393757 $132 $218 forward 7 unknown #
face $-1 $219 $220 $31 $-1 $221 reversed single #
loop $-1 $-1 $222 $84 #
plane-surface $-1 -201.78609036978918 -15.331868057794104 98.018754457834319 0 -1 0 0.79863551827123203 0 -0.60181501223851219 forward_v I I I I #
coedge $-1 $223 $224 $225 $226 reversed $85 $-1 #
coedge $-1 $139 $87 $227 $228 reversed $54 $-1 #
coedge $-1 $87 $138 $223 $229 reversed $54 $-1 #
coedge $-1 $225 $230 $87 $141 forward $231 $-1 #
edge $-1 $232 23.201465241659008 $233 27.065374872903305 $140 $234 forward 7 unknown #
loop $-1 $-1 $147 $88 #
plane-surface $-1 -77.691579943235567 -19.213235362306477 4.5068361890989763 -0.79863551827123203 0 0.60181501223851219 0.60181501223851219 0 0.79863551827123203 forward_v I I I I #
loop $-1 $-1 $235 $56 #
coedge $-1 $145 $145 $146 $236 reversed $89 $-1 #
coedge $-1 $146 $146 $145 $236 forward $91 $-1 #
coedge $-1 $147 $147 $92 $148 forward $142 $-1 #
edge $-1 $237 0 $237 6.2831853071796004 $147 $238 forward 7 unknown #
loop $-1 $-1 $154 $93 #
plane-surface $-1 -77.691579943235567 -19.213235362306477 4.5068361890989763 -0.79863551827123203 0 0.60181501223851219 0.60181501223851219 0 0.79863551827123203 forward_v I I I I #
loop $-1 $-1 $239 $59 #
coedge $-1 $152 $152 $153 $240 reversed $94 $-1 #
coedge $-1 $153 $153 $152 $240 forward $96 $-1 #
coedge $-1 $154 $154 $97 $155 forward $149 $-1 #
edge $-1 $241 0 $241 6.2831853071796004 $154 $242 forward 7 unknown #
face $-1 $243 $244 $34 $-1 $245 forward single #
loop $-1 $-1 $246 $98 #
plane-surface $-1 -201.78609036978918 17.025120777599653 98.018754457834319 0 -1 0 0.79863551827123203 0 -0.60181501223851219 forward_v I I I I #
coedge $-1 $247 $248 $249 $250 reversed $99 $-1 #
coedge $-1 $161 $101 $251 $252 reversed $63 $-1 #
coedge $-1 $101 $160 $247 $253 reversed $63 $-1 #
coedge $-1 $249 $254 $101 $163 forward $244 $-1 #
edge $-1 $255 23.201465241659008 $256 27.065374872903305 $162 $257 forward 7 unknown #
loop $-1 $-1 $169 $102 #
plane-surface $-1 -77.691579943235567 13.14375347308728 4.5068361890989763 -0.79863551827123203 0 0.60181501223851219 0.60181501223851219 0 0.79863551827123203 forward_v I I I I #
loop $-1 $-1 $258 $65 #
coedge $-1 $167 $167 $168 $259 reversed $103 $-1 #
coedge $-1 $168 $168 $167 $259 forward $105 $-1 #
coedge $-1 $169 $169 $106 $170 forward $164 $-1 #
edge $-1 $260 0 $260 6.2831853071796004 $169 $261 forward 7 unknown #
loop $-1 $-1 $176 $107 #
plane-surface $-1 -77.691579943235567 13.14375347308728 4.5068361890989763 -0.79863551827123203 0 0.60181501223851219 0.60181501223851219 0 0.79863551827123203 forward_v I I I I #
loop $-1 $-1 $262 $68 #
coedge $-1 $174 $174 $175 $263 reversed $108 $-1 #
coedge $-1 $175 $175 $174 $263 forward $110 $-1 #
coedge $-1 $176 $176 $111 $177 forward $171 $-1 #
edge $-1 $264 0 $264 6.2831853071796004 $176 $265 forward 7 unknown #
face $-1 $266 $267 $37 $-1 $268 reversed single #
loop $-1 $-1 $269 $112 #
plane-surface $-1 0 0 9.634417602237594 0 0 1 1 0 0 forward_v I I I I #
coedge $-1 $270 $271 $272 $273 reversed $113 $-1 #
coedge $-1 $274 $115 $275 $276 reversed $72 $-1 #
coedge $-1 $115 $274 $270 $277 forward $72 $-1 #
coedge $-1 $272 $278 $115 $185 forward $279 $-1 #
edge $-1 $280 -18.593245925269439 $281 -8.9342398949791964 $184 $282 forward 7 unknown #
loop $-1 $-1 $191 $116 #
plane-surface $-1 -52.623702287847522 -27.527485820248636 89.583048224307277 0.54463904215088732 0 0.83867056331134215 0.83867056331134215 0 -0.54463904215088732 forward_v I I I I #
loop $-1 $-1 $283 $74 #
coedge $-1 $189 $189 $190 $284 reversed $117 $-1 #
coedge $-1 $190 $190 $189 $284 forward $119 $-1 #
coedge $-1 $191 $191 $120 $192 forward $186 $-1 #
edge $-1 $285 0 $285 6.2831853071796004 $191 $286 forward 7 unknown #
loop $-1 $-1 $198 $121 #
plane-surface $-1 -52.623702287847522 -27.527485820248636 89.583048224307277 0.54463904215088732 0 0.83867056331134215 0.83867056331134215 0 -0.54463904215088732 forward_v I I I I #
loop $-1 $-1 $287 $77 #
coedge $-1 $196 $196 $197 $288 reversed $122 $-1 #
coedge $-1 $197 $197 $196 $288 forward $124 $-1 #
coedge $-1 $198 $198 $125 $199 forward $193 $-1 #
edge $-1 $289 0 $289 6.2831853071796004 $198 $290 forward 7 unknown #
face $-1 $291 $292 $30 $-1 $293 reversed single #
loop $-1 $-1 $294 $126 #
plane-surface $-1 -77.691579943235581 0 0 1 0 0 0 0 -1 forward_v I I I I #
coedge $-1 $295 $211 $296 $297 forward $127 $-1 #
coedge $-1 $298 $129 $295 $299 forward $81 $-1 #
coedge $-1 $129 $298 $300 $301 forward $81 $-1 #
coedge $-1 $214 $213 $129 $207 reversed $215 $-1 #
edge $-1 $302 -32.356988835393757 $303 32.356988835393757 $206 $304 forward 7 unknown #
coedge $-1 $131 $130 $305 $306 forward $51 $-1 #
coedge $-1 $307 $308 $130 $210 reversed $292 $-1 #
edge $-1 $217 -77.691579943235581 $309 77.691579943235581 $209 $310 forward 7 unknown #
coedge $-1 $203 $311 $131 $212 reversed $127 $-1 #
edge $-1 $312 -77.691579943235581 $216 77.691579943235581 $211 $313 forward 7 unknown #
coedge $-1 $206 $132 $311 $314 forward $215 $-1 #
coedge $-1 $132 $206 $307 $315 reversed $215 $-1 #
loop $-1 $-1 $213 $291 #
vertex $-1 $133 $316 #
vertex $-1 $133 $317 #
straight-curve $-1 77.691579943235581 0 9.634417602237594 0 1 0 I I #
face $-1 $-1 $231 $31 $-1 $318 forward single #
loop $-1 $-1 $319 $134 #
plane-surface $-1 -77.691579943235581 0 0 1 0 0 0 0 -1 forward_v I I I I #
coedge $-1 $320 $321 $322 $323 reversed $135 $-1 #
coedge $-1 $324 $137 $139 $229 forward $85 $-1 #
coedge $-1 $137 $324 $320 $325 forward $85 $-1 #
coedge $-1 $322 $140 $137 $226 forward $231 $-1 #
edge $-1 $233 -13.487984985665612 $326 -5.7252503766408651 $225 $327 forward 7 unknown #
coedge $-1 $328 $329 $138 $228 forward $220 $-1 #
edge $-1 $330 -44.502541039818205 $232 -39.374959626679569 $227 $331 forward 7 unknown #
edge $-1 $233 -6.4204274613756791 $330 2.3448253187574213e-014 $139 $332 forward 7 unknown #
coedge $-1 $140 $322 $328 $333 forward $231 $-1 #
loop $-1 $-1 $322 $219 #
vertex $-1 $228 $334 #
vertex $-1 $141 $335 #
straight-curve $-1 -100.89304518489459 -23.094602666818851 9.6344176022375905 1 0 0 I I #
coedge $-1 $235 $235 $-1 $336 reversed $144 $-1 #
edge $-1 $337 0 $337 6.2831853071796004 $145 $338 forward 7 unknown #
vertex $-1 $148 $339 #
ellipse-curve $-1 -75.759625127613432 -20.876678492811781 7.0706268956682834 -0.79863551827123203 0 0.60181501223851219 0.3009075061192561 0 0.39931775913561601 1 I I #
coedge $-1 $239 $239 $-1 $340 reversed $151 $-1 #
edge $-1 $341 0 $341 6.2831853071796004 $152 $342 forward 7 unknown #
vertex $-1 $155 $343 #
ellipse-curve $-1 -75.759625127613432 -17.549792231801174 7.0706268956682834 -0.79863551827123203 0 0.60181501223851219 0.3009075061192561 0 0.39931775913561601 1 I I #
face $-1 $-1 $344 $34 $-1 $345 reversed single #
loop $-1 $-1 $162 $156 #
plane-surface $-1 0 0 9.634417602237594 0 0 1 1 0 0 forward_v I I I I #
coedge $-1 $346 $347 $348 $349 reversed $157 $-1 #
coedge $-1 $350 $159 $161 $253 forward $99 $-1 #
coedge $-1 $159 $350 $346 $351 forward $99 $-1 #
coedge $-1 $348 $162 $159 $250 forward $244 $-1 #
edge $-1 $256 2.6905094320312664 $352 10.453244041056013 $249 $353 forward 7 unknown #
coedge $-1 $354 $355 $160 $252 forward $344 $-1 #
edge $-1 $356 -44.502541039818205 $255 -39.374959626679569 $251 $357 forward 7 unknown #
edge $-1 $256 -6.4204274613756791 $356 2.3448253187574213e-014 $161 $358 forward 7 unknown #
coedge $-1 $162 $348 $354 $359 forward $244 $-1 #
vertex $-1 $163 $360 #
vertex $-1 $163 $361 #
straight-curve $-1 -100.89304518489459 9.2623861685749063 9.6344176022375905 1 0 0 I I #
coedge $-1 $258 $258 $-1 $362 reversed $166 $-1 #
edge $-1 $363 0 $363 6.2831853071796004 $167 $364 forward 7 unknown #
vertex $-1 $170 $365 #
ellipse-curve $-1 -75.759625127613432 11.48031034258198 7.0706268956682834 -0.79863551827123203 0 0.60181501223851219 0.3009075061192561 0 0.39931775913561601 1 I I #
coedge $-1 $262 $262 $-1 $366 reversed $173 $-1 #
edge $-1 $367 0 $367 6.2831853071796004 $174 $368 forward 7 unknown #
vertex $-1 $177 $369 #
ellipse-curve $-1 -75.759625127613432 14.80719660359258 7.0706268956682834 -0.79863551827123203 0 0.60181501223851219 0.3009075061192561 0 0.39931775913561601 1 I I #
face $-1 $-1 $279 $37 $-1 $370 reversed single #
loop $-1 $-1 $275 $178 #
plane-surface $-1 0 -32.356988835393757 0 0 1 0 0 0 1 forward_v I I I I #
coedge $-1 $371 $372 $271 $373 forward $179 $-1 #
coedge $-1 $271 $181 $183 $277 reversed $113 $-1 #
coedge $-1 $181 $270 $269 $373 reversed $113 $-1 #
coedge $-1 $374 $184 $181 $273 forward $279 $-1 #
edge $-1 $281 -104.99385237033374 $375 -100.3147476254576 $272 $376 forward 7 unknown #
coedge $-1 $183 $182 $371 $377 reversed $72 $-1 #
coedge $-1 $378 $379 $182 $276 forward $267 $-1 #
edge $-1 $380 100.3297687610459 $280 108.92097207691069 $275 $381 forward 7 unknown #
edge $-1 $382 146.79195657060635 $281 155.38315988647113 $270 $383 forward 7 unknown #
coedge $-1 $184 $374 $378 $384 forward $279 $-1 #
loop $-1 $-1 $272 $266 #
vertex $-1 $276 $385 #
vertex $-1 $185 $386 #
straight-curve $-1 77.691579943235581 -13.763742910124318 4.9553128573614487 0 1 0 I I #
coedge $-1 $283 $283 $-1 $387 reversed $188 $-1 #
edge $-1 $388 0 $388 6.2831853071796004 $189 $389 forward 7 unknown #
vertex $-1 $192 $390 #
ellipse-curve $-1 74.088985281016278 -29.597272826739403 7.2948652297995169 0.54463904215088732 0 0.83867056331134215 0.83867056331134215 0 -0.54463904215088732 1 I I #
coedge $-1 $287 $287 $-1 $391 reversed $195 $-1 #
edge $-1 $392 0 $392 6.2831853071796004 $196 $393 forward 7 unknown #
vertex $-1 $199 $394 #
ellipse-curve $-1 74.088985281016278 -25.457698813757865 7.2948652297995169 0.54463904215088732 0 0.83867056331134215 0.83867056331134215 0 -0.54463904215088732 1 I I #
face $-1 $-1 $215 $30 $-1 $395 reversed single #
loop $-1 $-1 $307 $200 #
plane-surface $-1 0 32.356988835393757 0 0 -1 0 0 0 -1 forward_v I I I I #
coedge $-1 $396 $305 $308 $397 forward $201 $-1 #
coedge $-1 $311 $203 $204 $299 reversed $127 $-1 #
coedge $-1 $305 $396 $203 $297 reversed $201 $-1 #
edge $-1 $312 -9.634417602237594 $398 9.634417602237594 $296 $399 forward 7 unknown #
coedge $-1 $205 $204 $396 $400 forward $81 $-1 #
edge $-1 $303 -77.691579943235581 $398 77.691579943235581 $295 $401 forward 7 unknown #
coedge $-1 $308 $307 $205 $301 reversed $292 $-1 #
edge $-1 $402 -77.691579943235581 $302 77.691579943235581 $300 $403 forward 7 unknown #
vertex $-1 $207 $404 #
vertex $-1 $314 $405 #
straight-curve $-1 77.691579943235581 0 -9.634417602237594 0 -1 0 I I #
coedge $-1 $294 $296 $208 $306 reversed $201 $-1 #
edge $-1 $309 -32.356988835393757 $312 32.356988835393757 $305 $406 forward 7 unknown #
coedge $-1 $300 $209 $214 $315 forward $292 $-1 #
coedge $-1 $209 $300 $294 $397 reversed $292 $-1 #
vertex $-1 $210 $407 #
straight-curve $-1 0 32.356988835393757 9.634417602237594 -1 0 0 I I #
coedge $-1 $211 $295 $213 $314 reversed $127 $-1 #
vertex $-1 $306 $408 #
straight-curve $-1 0 -32.356988835393757 9.634417602237594 1 0 0 I I #
edge $-1 $216 -9.634417602237594 $303 9.634417602237594 $213 $409 forward 7 unknown #
edge $-1 $217 -9.634417602237594 $302 9.634417602237594 $214 $410 forward 7 unknown #
point $-1 77.691579943235581 -32.356988835393757 9.634417602237594 #
point $-1 77.691579943235581 32.356988835393757 9.634417602237594 #
plane-surface $-1 0 0 9.634417602237594 0 0 1 1 0 0 forward_v I I I I #
coedge $-1 $329 $328 $321 $411 forward $220 $-1 #
coedge $-1 $321 $222 $224 $325 reversed $135 $-1 #
coedge $-1 $222 $320 $319 $411 reversed $135 $-1 #
coedge $-1 $230 $225 $222 $323 forward $231 $-1 #
edge $-1 $326 -27.065374872903305 $412 -23.201465241659008 $322 $413 forward 7 unknown #
coedge $-1 $224 $223 $329 $414 reversed $85 $-1 #
edge $-1 $415 -2.3448253187574213e-014 $326 6.4204274613756791 $320 $416 forward 7 unknown #
vertex $-1 $226 $417 #
straight-curve $-1 -73.827670311991284 -9.6066176811532387 9.6344176022375958 0 1 0 I I #
coedge $-1 $319 $227 $230 $333 reversed $220 $-1 #
coedge $-1 $227 $319 $324 $414 forward $220 $-1 #
vertex $-1 $228 $418 #
straight-curve $-1 -77.691579943235581 -23.094602666818851 49.00937722891716 0 0 1 I I #
straight-curve $-1 -77.691579943235567 -23.094602666818851 4.5068361890989763 -0.60181501223851219 0 -0.79863551827123203 I I #
edge $-1 $412 15.331868057794104 $232 23.094602666818851 $328 $419 forward 7 unknown #
point $-1 -77.691579943235581 -23.094602666818851 9.634417602237594 #
point $-1 -73.827670311991284 -23.094602666818851 9.634417602237594 #
edge $-1 $420 1 $420 0 $235 $-1 forward 7 unknown #
vertex $-1 $236 $421 #
ellipse-curve $-1 -74.898959902808187 -20.876678492811781 6.4220691481733621 -0.79863551827123203 0 0.60181501223851219 0.3009075061192561 0 0.39931775913561601 1 I I #
point $-1 -75.458717621494188 -20.876678492811781 7.4699446548039079 #
edge $-1 $422 1 $422 0 $239 $-1 forward 7 unknown #
vertex $-1 $240 $423 #
ellipse-curve $-1 -74.898959902808187 -17.549792231801174 6.4220691481733621 -0.79863551827123203 0 0.60181501223851219 0.3009075061192561 0 0.39931775913561601 1 I I #
point $-1 -75.458717621494188 -17.549792231801174 7.4699446548039079 #
loop $-1 $-1 $251 $243 #
plane-surface $-1 -77.691579943235581 0 0 1 0 0 0 0 -1 forward_v I I I I #
coedge $-1 $347 $246 $248 $351 reversed $157 $-1 #
coedge $-1 $246 $346 $424 $425 reversed $157 $-1 #
coedge $-1 $254 $249 $246 $349 forward $244 $-1 #
edge $-1 $352 -27.065374872903305 $426 -23.201465241659008 $348 $427 forward 7 unknown #
coedge $-1 $248 $247 $355 $428 reversed $99 $-1 #
edge $-1 $429 -2.3448253187574213e-014 $352 6.4204274613756791 $346 $430 forward 7 unknown #
vertex $-1 $250 $431 #
straight-curve $-1 -73.827670311991284 6.5718767365436399 9.6344176022375958 0 1 0 I I #
coedge $-1 $424 $251 $254 $359 reversed $344 $-1 #
coedge $-1 $251 $424 $350 $428 forward $344 $-1 #
vertex $-1 $252 $432 #
straight-curve $-1 -77.691579943235581 9.2623861685749063 49.00937722891716 0 0 1 I I #
straight-curve $-1 -77.691579943235567 9.2623861685749063 4.5068361890989763 -0.60181501223851219 0 -0.79863551827123203 I I #
edge $-1 $426 -17.025120777599653 $255 -9.2623861685749063 $354 $433 forward 7 unknown #
point $-1 -77.691579943235581 9.2623861685749063 9.634417602237594 #
point $-1 -73.827670311991284 9.2623861685749063 9.634417602237594 #
edge $-1 $434 1 $434 0 $258 $-1 forward 7 unknown #
vertex $-1 $259 $435 #
ellipse-curve $-1 -74.898959902808187 11.48031034258198 6.4220691481733621 -0.79863551827123203 0 0.60181501223851219 0.3009075061192561 0 0.39931775913561601 1 I I #
point $-1 -75.458717621494188 11.48031034258198 7.4699446548039079 #
edge $-1 $436 1 $436 0 $262 $-1 forward 7 unknown #
vertex $-1 $263 $437 #
ellipse-curve $-1 -74.898959902808187 14.80719660359258 6.4220691481733621 -0.79863551827123203 0 0.60181501223851219 0.3009075061192561 0 0.39931775913561601 1 I I #
point $-1 -75.458717621494188 14.80719660359258 7.4699446548039079 #
plane-surface $-1 77.691579943235581 0 0 -1 0 0 0 0 1 forward_v I I I I #
coedge $-1 $438 $269 $274 $377 forward $179 $-1 #
coedge $-1 $269 $438 $374 $439 forward $179 $-1 #
edge $-1 $375 -61.689563403686428 $382 -54.484374079247821 $269 $440 forward 7 unknown #
coedge $-1 $278 $272 $372 $439 reversed $279 $-1 #
vertex $-1 $373 $441 #
straight-curve $-1 77.691579943235581 -22.697982805103514 109.94916522769519 0 0 1 I I #
edge $-1 $382 8.9342398949791964 $380 18.593245925269439 $371 $442 forward 7 unknown #
coedge $-1 $379 $275 $278 $384 reversed $267 $-1 #
coedge $-1 $275 $378 $438 $443 reversed $267 $-1 #
vertex $-1 $443 $444 #
straight-curve $-1 -13.657233064926078 -32.356988835393757 64.277926759473644 0.83867056331134215 0 -0.54463904215088732 I I #
vertex $-1 $377 $445 #
straight-curve $-1 -52.623702287847522 -22.697982805103514 89.583048224307277 0.83867056331134215 0 -0.54463904215088732 I I #
edge $-1 $446 -9.634417602237594 $280 -4.955312857361454 $278 $447 forward 7 unknown #
point $-1 77.691579943235581 -32.356988835393757 4.955312857361454 #
point $-1 77.691579943235581 -22.697982805103514 4.9553128573614487 #
edge $-1 $448 1 $448 0 $283 $-1 forward 7 unknown #
vertex $-1 $284 $449 #
ellipse-curve $-1 73.522006846408033 -29.597272826739403 6.4217950193709523 0.54463904215088732 0 0.83867056331134215 0.83867056331134215 0 -0.54463904215088732 1 I I #
point $-1 74.927655844327631 -29.597272826739403 6.7502261876486411 #
edge $-1 $450 1 $450 0 $287 $-1 forward 7 unknown #
vertex $-1 $288 $451 #
ellipse-curve $-1 73.522006846408033 -25.457698813757865 6.4217950193709523 0.54463904215088732 0 0.83867056331134215 0.83867056331134215 0 -0.54463904215088732 1 I I #
point $-1 74.927655844327631 -25.457698813757865 6.7502261876486411 #
plane-surface $-1 77.691579943235581 0 0 -1 0 0 0 0 1 forward_v I I I I #
coedge $-1 $296 $294 $298 $400 reversed $201 $-1 #
edge $-1 $309 -9.634417602237594 $402 9.634417602237594 $308 $452 forward 7 unknown #
vertex $-1 $400 $453 #
straight-curve $-1 -77.691579943235581 -32.356988835393757 0 0 0 -1 I I #
edge $-1 $398 -32.356988835393757 $402 32.356988835393757 $396 $454 forward 7 unknown #
straight-curve $-1 0 -32.356988835393757 -9.634417602237594 -1 0 0 I I #
vertex $-1 $301 $455 #
straight-curve $-1 0 32.356988835393757 -9.634417602237594 1 0 0 I I #
point $-1 77.691579943235581 32.356988835393757 -9.634417602237594 #
point $-1 77.691579943235581 -32.356988835393757 -9.634417602237594 #
straight-curve $-1 -77.691579943235581 0 9.634417602237594 0 -1 0 I I #
point $-1 -77.691579943235581 32.356988835393757 9.634417602237594 #
point $-1 -77.691579943235581 -32.356988835393757 9.634417602237594 #
straight-curve $-1 77.691579943235581 -32.356988835393757 0 0 0 -1 I I #
straight-curve $-1 77.691579943235581 32.356988835393757 0 0 0 -1 I I #
edge $-1 $412 39.374959626679569 $415 44.502541039818205 $319 $456 forward 7 unknown #
vertex $-1 $333 $457 #
straight-curve $-1 -100.89304518489459 -15.331868057794104 9.6344176022375905 -1 0 0 I I #
edge $-1 $415 5.7252503766408651 $330 13.487984985665612 $329 $458 forward 7 unknown #
vertex $-1 $414 $459 #
straight-curve $-1 -77.691579943235567 -15.331868057794104 4.5068361890989763 0.60181501223851219 0 0.79863551827123203 I I #
point $-1 -73.827670311991284 -15.331868057794104 9.634417602237594 #
point $-1 -77.691579943235581 -23.094602666818851 4.5068361890989577 #
straight-curve $-1 -77.691579943235581 0 9.634417602237594 0 -1 0 I I #
vertex $-1 $336 $460 #
point $-1 -74.598052396688928 -20.876678492811781 6.8213869073089786 #
vertex $-1 $340 $461 #
point $-1 -74.598052396688928 -17.549792231801174 6.8213869073089786 #
coedge $-1 $355 $354 $347 $425 forward $344 $-1 #
edge $-1 $426 39.374959626679569 $429 44.502541039818205 $424 $462 forward 7 unknown #
vertex $-1 $359 $463 #
straight-curve $-1 -100.89304518489459 17.025120777599653 9.6344176022375905 -1 0 0 I I #
edge $-1 $429 -10.453244041056013 $356 -2.6905094320312664 $355 $464 forward 7 unknown #
vertex $-1 $428 $465 #
straight-curve $-1 -77.691579943235567 17.025120777599653 4.5068361890989763 0.60181501223851219 0 0.79863551827123203 I I #
point $-1 -73.827670311991284 17.025120777599653 9.634417602237594 #
point $-1 -77.691579943235581 9.2623861685749063 4.5068361890989577 #
straight-curve $-1 -77.691579943235581 0 9.634417602237594 0 -1 0 I I #
vertex $-1 $362 $466 #
point $-1 -74.598052396688928 11.48031034258198 6.8213869073089786 #
vertex $-1 $366 $467 #
point $-1 -74.598052396688928 14.80719660359258 6.8213869073089786 #
coedge $-1 $372 $371 $379 $443 forward $179 $-1 #
edge $-1 $446 -32.356988835393757 $375 -22.697982805103514 $374 $468 forward 7 unknown #
straight-curve $-1 16.002016539549153 -22.697982805103514 9.6344176022375905 -1 0 0 I I #
point $-1 77.691579943235581 -22.697982805103514 9.634417602237594 #
straight-curve $-1 70.48639061879696 -13.763742910124318 9.6344176022375763 0 -1 0 I I #
edge $-1 $380 70.486390618796975 $446 77.691579943235581 $379 $469 forward 7 unknown #
point $-1 70.486390618796975 -32.356988835393757 9.6344176022375905 #
point $-1 70.486390618796975 -22.697982805103514 9.6344176022375905 #
vertex $-1 $439 $470 #
straight-curve $-1 77.691579943235581 -32.356988835393757 0 0 0 -1 I I #
vertex $-1 $387 $471 #
point $-1 74.360677409719372 -29.597272826739403 5.877155977220065 #
vertex $-1 $391 $472 #
point $-1 74.360677409719372 -25.457698813757865 5.877155977220065 #
straight-curve $-1 -77.691579943235581 32.356988835393757 0 0 0 -1 I I #
point $-1 -77.691579943235581 -32.356988835393757 -9.634417602237594 #
straight-curve $-1 -77.691579943235581 0 -9.634417602237594 0 1 0 I I #
point $-1 -77.691579943235581 32.356988835393757 -9.634417602237594 #
straight-curve $-1 -77.691579943235581 -15.331868057794104 49.00937722891716 0 0 -1 I I #
point $-1 -77.691579943235581 -15.331868057794104 9.634417602237594 #
straight-curve $-1 -77.691579943235581 -9.6066176811532387 4.5068361890989737 0 -1 0 I I #
point $-1 -77.691579943235581 -15.331868057794104 4.5068361890989577 #
point $-1 -74.499642143672574 -20.876678492811781 6.1211616420541066 #
point $-1 -74.499642143672574 -17.549792231801174 6.1211616420541066 #
straight-curve $-1 -77.691579943235581 17.025120777599653 49.00937722891716 0 0 -1 I I #
point $-1 -77.691579943235581 17.025120777599653 9.634417602237594 #
straight-curve $-1 -77.691579943235581 6.5718767365436399 4.5068361890989737 0 -1 0 I I #
point $-1 -77.691579943235581 17.025120777599653 4.5068361890989577 #
point $-1 -74.499642143672574 11.48031034258198 6.1211616420541066 #
point $-1 -74.499642143672574 14.80719660359258 6.1211616420541066 #
straight-curve $-1 77.691579943235581 0 9.634417602237594 0 1 0 I I #
straight-curve $-1 0 -32.356988835393757 9.634417602237594 1 0 0 I I #
point $-1 77.691579943235581 -32.356988835393757 9.634417602237594 #
point $-1 72.977367804257142 -29.597272826739403 5.5831244560596094 #
point $-1 72.977367804257142 -25.457698813757865 5.5831244560596094 #
End-of-ACIS-data 