500 0 10 0           
7 Unknown 11 ACIS 5.0 NT 24 Fri Mar 26 02:44:48 1999 
-1 9.9999999999999995e-007 1e-010 
body $-1 $10 $-1 $11 #
body $-1 $12 $-1 $13 #
body $-1 $14 $-1 $15 #
body $-1 $16 $-1 $17 #
body $-1 $18 $-1 $19 #
body $-1 $20 $-1 $21 #
body $-1 $22 $-1 $23 #
body $-1 $24 $-1 $25 #
body $-1 $26 $-1 $27 #
body $-1 $28 $-1 $29 #
lump $-1 $-1 $30 $0 #
transform $-1 1 0 0 0 1 0 0 0 1 46.333201086458935 28.638293250043077 6.9463614945735763 1 rotate no_reflect no_shear #
lump $-1 $-1 $31 $1 #
transform $-1 1 0 0 0 1 0 0 0 1 46.333201086458935 28.638293250043077 6.9463614945735763 1 rotate no_reflect no_shear #
lump $-1 $-1 $32 $2 #
transform $-1 1 0 0 0 1 0 0 0 1 46.333201086458935 28.638293250043077 6.9463614945735763 1 rotate no_reflect no_shear #
lump $-1 $-1 $33 $3 #
transform $-1 1 0 0 0 1 0 0 0 1 46.333201086458935 28.638293250043077 6.9463614945735763 1 rotate no_reflect no_shear #
lump $-1 $-1 $34 $4 #
transform $-1 1 0 0 0 1 0 0 0 1 46.333201086458935 28.638293250043077 6.9463614945735763 1 rotate no_reflect no_shear #
lump $-1 $-1 $35 $5 #
transform $-1 1 0 0 0 1 0 0 0 1 46.333201086458935 28.638293250043077 6.9463614945735763 1 rotate no_reflect no_shear #
lump $-1 $-1 $36 $6 #
transform $-1 1 0 0 0 1 0 0 0 1 46.333201086458935 28.638293250043077 6.9463614945735763 1 rotate no_reflect no_shear #
lump $-1 $-1 $37 $7 #
transform $-1 1 0 0 0 1 0 0 0 1 46.333201086458935 28.638293250043077 6.9463614945735763 1 rotate no_reflect no_shear #
lump $-1 $-1 $38 $8 #
transform $-1 1 0 0 0 1 0 0 0 1 46.333201086458935 28.638293250043077 6.9463614945735763 1 rotate no_reflect no_shear #
lump $-1 $-1 $39 $9 #
transform $-1 1 0 0 0 1 0 0 0 1 46.333201086458935 28.638293250043077 6.9463614945735763 1 rotate no_reflect no_shear #
shell $-1 $-1 $-1 $40 $-1 $10 #
shell $-1 $-1 $-1 $41 $-1 $12 #
shell $-1 $-1 $-1 $42 $-1 $14 #
shell $-1 $-1 $-1 $43 $-1 $16 #
shell $-1 $-1 $-1 $44 $-1 $18 #
shell $-1 $-1 $-1 $45 $-1 $20 #
shell $-1 $-1 $-1 $46 $-1 $22 #
shell $-1 $-1 $-1 $47 $-1 $24 #
shell $-1 $-1 $-1 $48 $-1 $26 #
shell $-1 $-1 $-1 $49 $-1 $28 #
face $-1 $50 $51 $30 $-1 $52 forward single #
face $-1 $53 $54 $31 $-1 $55 forward single #
face $-1 $56 $57 $32 $-1 $58 reversed single #
face $-1 $59 $60 $33 $-1 $61 forward single #
face $-1 $62 $63 $34 $-1 $64 forward single #
face $-1 $65 $66 $35 $-1 $67 forward single #
face $-1 $68 $69 $36 $-1 $70 reversed single #
face $-1 $71 $72 $37 $-1 $73 forward single #
face $-1 $74 $75 $38 $-1 $76 forward single #
face $-1 $77 $78 $39 $-1 $79 forward single #
face $-1 $80 $81 $30 $-1 $82 reversed single #
loop $-1 $-1 $83 $40 #
plane-surface $-1 0 0 6.9463614945735763 0 0 1 1 0 0 forward_v I I I I #
face $-1 $84 $85 $31 $-1 $86 reversed single #
loop $-1 $-1 $87 $41 #
plane-surface $-1 0 -25.647887488529239 -2.7971521262004657 0 0 1 1 0 0 forward_v I I I I #
face $-1 $88 $89 $32 $-1 $90 reversed single #
loop $-1 $-1 $91 $42 #
plane-surface $-1 80.25146031732578 -11.337606131448908 127.60018430066486 0 1 0 0.86602541151947299 0 0.49999998660252726 forward_v I I I I #
face $-1 $92 $93 $33 $-1 $94 forward single #
loop $-1 $95 $96 $43 #
cone-surface $-1 43.757073057789576 -9.5952643150234209 3.482087894694629 -0.86602541151947299 0 -0.49999998660252726 0.24999999330126363 0 -0.43301270575973649 1 I I 0 1 0.5 forward I I I I #
face $-1 $97 $98 $34 $-1 $99 forward single #
loop $-1 $100 $101 $44 #
cone-surface $-1 43.757073057789576 -6.9817515903851906 3.482087894694629 -0.86602541151947299 0 -0.49999998660252726 0.24999999330126363 0 -0.43301270575973649 1 I I 0 1 0.5 forward I I I I #
face $-1 $102 $103 $35 $-1 $104 forward single #
loop $-1 $105 $106 $45 #
cone-surface $-1 43.757073057789576 -4.3682388657469602 3.482087894694629 -0.86602541151947299 0 -0.49999998660252726 0.24999999330126363 0 -0.43301270575973649 1 I I 0 1 0.5 forward I I I I #
face $-1 $107 $108 $36 $-1 $109 reversed single #
loop $-1 $-1 $110 $46 #
plane-surface $-1 80.25146031732578 14.310281357080331 127.60018430066486 0 1 0 0.86602541151947299 0 0.49999998660252726 forward_v I I I I #
face $-1 $111 $112 $37 $-1 $113 forward single #
loop $-1 $114 $115 $47 #
cone-surface $-1 43.757073057789576 16.052623173505815 3.482087894694629 -0.86602541151947299 0 -0.49999998660252726 0.24999999330126363 0 -0.43301270575973649 1 I I 0 1 0.5 forward I I I I #
face $-1 $116 $117 $38 $-1 $118 forward single #
loop $-1 $119 $120 $48 #
cone-surface $-1 43.757073057789576 18.666135898144049 3.482087894694629 -0.86602541151947299 0 -0.49999998660252726 0.24999999330126363 0 -0.43301270575973649 1 I I 0 1 0.5 forward I I I I #
face $-1 $121 $122 $39 $-1 $123 forward single #
loop $-1 $124 $125 $49 #
cone-surface $-1 43.757073057789576 21.279648622782275 3.482087894694629 -0.86602541151947299 0 -0.49999998660252726 0.24999999330126363 0 -0.43301270575973649 1 I I 0 1 0.5 forward I I I I #
face $-1 $126 $127 $30 $-1 $128 reversed single #
loop $-1 $-1 $129 $50 #
plane-surface $-1 0 0 -6.9463614945735763 0 0 1 1 0 0 forward_v I I I I #
coedge $-1 $130 $131 $132 $133 forward $51 $-1 #
face $-1 $134 $135 $31 $-1 $136 reversed single #
loop $-1 $-1 $137 $53 #
plane-surface $-1 0 -25.647887488529239 -5.7971521262004657 0 0 1 1 0 0 forward_v I I I I #
coedge $-1 $138 $139 $140 $141 reversed $54 $-1 #
face $-1 $142 $143 $32 $-1 $144 reversed single #
loop $-1 $-1 $145 $56 #
plane-surface $-1 1.241495596104869e-006 -6.9817515903851906 81.266984455701532 0.86602541151947299 0 0.49999998660252726 0.49999998660252726 0 -0.86602541151947299 forward_v I I I I #
coedge $-1 $146 $147 $148 $149 reversed $57 $-1 #
face $-1 $-1 $150 $33 $-1 $151 forward single #
loop $-1 $152 $153 $59 #
cone-surface $-1 42.676523528744831 -9.5952643150234209 2.8582323555161544 -0.86602541151947299 0 -0.49999998660252726 0.12499999665063181 0 -0.21650635287986825 1 I I -0.70710678118654746 0.70710678118654746 0.25 forward I I I I #
loop $-1 $-1 $154 $43 #
coedge $-1 $96 $96 $155 $156 reversed $60 $-1 #
face $-1 $-1 $157 $34 $-1 $158 forward single #
loop $-1 $159 $160 $62 #
cone-surface $-1 42.676523528744831 -6.9817515903851906 2.8582323555161544 -0.86602541151947299 0 -0.49999998660252726 0.12499999665063181 0 -0.21650635287986825 1 I I -0.70710678118654746 0.70710678118654746 0.25 forward I I I I #
loop $-1 $-1 $161 $44 #
coedge $-1 $101 $101 $162 $163 reversed $63 $-1 #
face $-1 $-1 $164 $35 $-1 $165 forward single #
loop $-1 $166 $167 $65 #
cone-surface $-1 42.676523528744831 -4.3682388657469602 2.8582323555161544 -0.86602541151947299 0 -0.49999998660252726 0.12499999665063181 0 -0.21650635287986825 1 I I -0.70710678118654746 0.70710678118654746 0.25 forward I I I I #
loop $-1 $-1 $168 $45 #
coedge $-1 $106 $106 $169 $170 reversed $66 $-1 #
face $-1 $171 $172 $36 $-1 $173 reversed single #
loop $-1 $-1 $174 $68 #
plane-surface $-1 1.241495596104869e-006 18.666135898144049 81.266984455701532 0.86602541151947299 0 0.49999998660252726 0.49999998660252726 0 -0.86602541151947299 forward_v I I I I #
coedge $-1 $175 $176 $177 $178 reversed $69 $-1 #
face $-1 $-1 $179 $37 $-1 $180 forward single #
loop $-1 $181 $182 $71 #
cone-surface $-1 42.676523528744831 16.052623173505815 2.8582323555161544 -0.86602541151947299 0 -0.49999998660252726 0.12499999665063181 0 -0.21650635287986825 1 I I -0.70710678118654746 0.70710678118654746 0.25 forward I I I I #
loop $-1 $-1 $183 $47 #
coedge $-1 $115 $115 $184 $185 reversed $72 $-1 #
face $-1 $-1 $186 $38 $-1 $187 forward single #
loop $-1 $188 $189 $74 #
cone-surface $-1 42.676523528744831 18.666135898144049 2.8582323555161544 -0.86602541151947299 0 -0.49999998660252726 0.12499999665063181 0 -0.21650635287986825 1 I I -0.70710678118654746 0.70710678118654746 0.25 forward I I I I #
loop $-1 $-1 $190 $48 #
coedge $-1 $120 $120 $191 $192 reversed $75 $-1 #
face $-1 $-1 $193 $39 $-1 $194 forward single #
loop $-1 $195 $196 $77 #
cone-surface $-1 42.676523528744831 21.279648622782275 2.8582323555161544 -0.86602541151947299 0 -0.49999998660252726 0.12499999665063181 0 -0.21650635287986825 1 I I -0.70710678118654746 0.70710678118654746 0.25 forward I I I I #
loop $-1 $-1 $197 $49 #
coedge $-1 $125 $125 $198 $199 reversed $78 $-1 #
face $-1 $200 $201 $30 $-1 $202 reversed single #
loop $-1 $-1 $203 $80 #
plane-surface $-1 0 -28.638293250043077 0 0 1 0 0 0 1 forward_v I I I I #
coedge $-1 $204 $205 $206 $207 forward $81 $-1 #
coedge $-1 $208 $83 $209 $210 forward $51 $-1 #
coedge $-1 $83 $208 $211 $212 forward $51 $-1 #
coedge $-1 $213 $214 $83 $133 reversed $215 $-1 #
edge $-1 $216 -28.638293250043077 $217 28.638293250043077 $132 $218 forward 7 unknown #
face $-1 $219 $220 $31 $-1 $221 reversed single #
loop $-1 $-1 $222 $84 #
plane-surface $-1 0 -22.657481727015401 -4.2971521262004657 0 -1 0 0 0 -1 forward_v I I I I #
coedge $-1 $223 $224 $225 $226 reversed $85 $-1 #
coedge $-1 $227 $87 $228 $229 forward $54 $-1 #
coedge $-1 $87 $227 $230 $231 reversed $54 $-1 #
coedge $-1 $232 $233 $87 $141 forward $234 $-1 #
edge $-1 $235 9.8335379827507818 $236 15.814349505778457 $140 $237 forward 7 unknown #
face $-1 $238 $239 $32 $-1 $240 forward single #
loop $-1 $-1 $241 $88 #
plane-surface $-1 80.25146031732578 -2.6258970493214733 127.60018430066486 0 -1 0 -0.86602541151947299 0 -0.49999998660252726 forward_v I I I I #
coedge $-1 $242 $243 $244 $245 reversed $89 $-1 #
coedge $-1 $147 $91 $246 $247 reversed $57 $-1 #
coedge $-1 $91 $146 $242 $248 reversed $57 $-1 #
coedge $-1 $244 $249 $91 $149 forward $250 $-1 #
edge $-1 $251 56.853730655758852 $252 62.784566770461083 $148 $253 forward 7 unknown #
loop $-1 $-1 $155 $92 #
plane-surface $-1 1.241495596104869e-006 -6.9817515903851906 81.266984455701532 0.86602541151947299 0 0.49999998660252726 0.49999998660252726 0 -0.86602541151947299 forward_v I I I I #
loop $-1 $-1 $254 $59 #
coedge $-1 $153 $153 $154 $255 reversed $93 $-1 #
coedge $-1 $154 $154 $153 $255 forward $95 $-1 #
coedge $-1 $155 $155 $96 $156 forward $150 $-1 #
edge $-1 $256 0 $256 6.2831853071796004 $155 $257 forward 7 unknown #
loop $-1 $-1 $162 $97 #
plane-surface $-1 1.241495596104869e-006 -6.9817515903851906 81.266984455701532 0.86602541151947299 0 0.49999998660252726 0.49999998660252726 0 -0.86602541151947299 forward_v I I I I #
loop $-1 $-1 $258 $62 #
coedge $-1 $160 $160 $161 $259 reversed $98 $-1 #
coedge $-1 $161 $161 $160 $259 forward $100 $-1 #
coedge $-1 $162 $162 $101 $163 forward $157 $-1 #
edge $-1 $260 0 $260 6.2831853071796004 $162 $261 forward 7 unknown #
loop $-1 $-1 $169 $102 #
plane-surface $-1 1.241495596104869e-006 -6.9817515903851906 81.266984455701532 0.86602541151947299 0 0.49999998660252726 0.49999998660252726 0 -0.86602541151947299 forward_v I I I I #
loop $-1 $-1 $262 $65 #
coedge $-1 $167 $167 $168 $263 reversed $103 $-1 #
coedge $-1 $168 $168 $167 $263 forward $105 $-1 #
coedge $-1 $169 $169 $106 $170 forward $164 $-1 #
edge $-1 $264 0 $264 6.2831853071796004 $169 $265 forward 7 unknown #
face $-1 $266 $267 $36 $-1 $268 reversed single #
loop $-1 $-1 $269 $107 #
plane-surface $-1 80.25146031732578 23.021990439207766 127.60018430066486 0 -1 0 -0.86602541151947299 0 -0.49999998660252726 forward_v I I I I #
coedge $-1 $270 $271 $272 $273 reversed $108 $-1 #
coedge $-1 $176 $110 $274 $275 reversed $69 $-1 #
coedge $-1 $110 $175 $270 $276 reversed $69 $-1 #
coedge $-1 $272 $277 $110 $178 forward $267 $-1 #
edge $-1 $278 56.853730655758852 $279 62.784566770461083 $177 $280 forward 7 unknown #
loop $-1 $-1 $184 $111 #
plane-surface $-1 1.241495596104869e-006 18.666135898144049 81.266984455701532 0.86602541151947299 0 0.49999998660252726 0.49999998660252726 0 -0.86602541151947299 forward_v I I I I #
loop $-1 $-1 $281 $71 #
coedge $-1 $182 $182 $183 $282 reversed $112 $-1 #
coedge $-1 $183 $183 $182 $282 forward $114 $-1 #
coedge $-1 $184 $184 $115 $185 forward $179 $-1 #
edge $-1 $283 0 $283 6.2831853071796004 $184 $284 forward 7 unknown #
loop $-1 $-1 $191 $116 #
plane-surface $-1 1.241495596104869e-006 18.666135898144049 81.266984455701532 0.86602541151947299 0 0.49999998660252726 0.49999998660252726 0 -0.86602541151947299 forward_v I I I I #
loop $-1 $-1 $285 $74 #
coedge $-1 $189 $189 $190 $286 reversed $117 $-1 #
coedge $-1 $190 $190 $189 $286 forward $119 $-1 #
coedge $-1 $191 $191 $120 $192 forward $186 $-1 #
edge $-1 $287 0 $287 6.2831853071796004 $191 $288 forward 7 unknown #
loop $-1 $-1 $198 $121 #
plane-surface $-1 1.241495596104869e-006 18.666135898144049 81.266984455701532 0.86602541151947299 0 0.49999998660252726 0.49999998660252726 0 -0.86602541151947299 forward_v I I I I #
loop $-1 $-1 $289 $77 #
coedge $-1 $196 $196 $197 $290 reversed $122 $-1 #
coedge $-1 $197 $197 $196 $290 forward $124 $-1 #
coedge $-1 $198 $198 $125 $199 forward $193 $-1 #
edge $-1 $291 0 $291 6.2831853071796004 $198 $292 forward 7 unknown #
face $-1 $293 $294 $30 $-1 $295 reversed single #
loop $-1 $-1 $296 $126 #
plane-surface $-1 -46.333201086458935 0 0 1 0 0 0 0 -1 forward_v I I I I #
coedge $-1 $297 $211 $298 $299 forward $127 $-1 #
coedge $-1 $300 $129 $297 $301 forward $81 $-1 #
coedge $-1 $129 $300 $302 $303 forward $81 $-1 #
coedge $-1 $214 $213 $129 $207 reversed $215 $-1 #
edge $-1 $304 -28.638293250043077 $305 28.638293250043077 $206 $306 forward 7 unknown #
coedge $-1 $131 $130 $307 $308 forward $51 $-1 #
coedge $-1 $309 $310 $130 $210 reversed $294 $-1 #
edge $-1 $217 -46.333201086458935 $311 46.333201086458935 $209 $312 forward 7 unknown #
coedge $-1 $203 $313 $131 $212 reversed $127 $-1 #
edge $-1 $314 -46.333201086458935 $216 46.333201086458935 $211 $315 forward 7 unknown #
coedge $-1 $206 $132 $313 $316 forward $215 $-1 #
coedge $-1 $132 $206 $309 $317 reversed $215 $-1 #
loop $-1 $-1 $213 $293 #
vertex $-1 $133 $318 #
vertex $-1 $133 $319 #
straight-curve $-1 46.333201086458935 0 6.9463614945735763 0 1 0 I I #
face $-1 $320 $321 $31 $-1 $322 reversed single #
loop $-1 $-1 $323 $134 #
plane-surface $-1 -46.333201086458935 0 0 1 0 0 0 0 -1 forward_v I I I I #
coedge $-1 $324 $228 $233 $325 reversed $135 $-1 #
coedge $-1 $326 $137 $327 $328 reversed $85 $-1 #
coedge $-1 $137 $326 $324 $329 forward $85 $-1 #
coedge $-1 $233 $232 $137 $226 forward $234 $-1 #
edge $-1 $330 -15.814349505778457 $331 -9.8335379827507818 $225 $332 forward 7 unknown #
coedge $-1 $139 $138 $323 $333 reversed $54 $-1 #
coedge $-1 $222 $334 $138 $229 reversed $135 $-1 #
edge $-1 $235 -46.333201086458935 $335 46.333201086458935 $228 $336 forward 7 unknown #
coedge $-1 $337 $338 $139 $231 forward $321 $-1 #
edge $-1 $236 -46.333201086458935 $339 46.333201086458935 $230 $340 forward 7 unknown #
coedge $-1 $225 $140 $338 $341 forward $234 $-1 #
coedge $-1 $140 $225 $222 $325 forward $234 $-1 #
loop $-1 $-1 $140 $320 #
vertex $-1 $141 $342 #
vertex $-1 $341 $343 #
straight-curve $-1 46.333201086458935 -12.82394374426462 -2.7971521262004657 0 -1 0 I I #
face $-1 $-1 $250 $32 $-1 $344 reversed single #
loop $-1 $-1 $345 $142 #
plane-surface $-1 0 0 6.9463614945735763 0 0 1 1 0 0 forward_v I I I I #
coedge $-1 $346 $347 $348 $349 reversed $143 $-1 #
coedge $-1 $350 $145 $147 $248 forward $89 $-1 #
coedge $-1 $145 $350 $346 $351 forward $89 $-1 #
coedge $-1 $348 $148 $145 $245 forward $250 $-1 #
edge $-1 $252 -7.8467303362563126 $352 0.864978745871122 $244 $353 forward 7 unknown #
coedge $-1 $354 $355 $146 $247 forward $239 $-1 #
edge $-1 $356 2.783301222787081 $251 6.2074709277960451 $246 $357 forward 7 unknown #
edge $-1 $252 -92.666402172917856 $356 -85.818062579399054 $147 $358 forward 7 unknown #
coedge $-1 $148 $348 $354 $359 reversed $250 $-1 #
loop $-1 $-1 $348 $238 #
vertex $-1 $359 $360 #
vertex $-1 $149 $361 #
straight-curve $-1 46.333201086458935 -11.337606131448908 63.800092150332432 0 0 -1 I I #
coedge $-1 $254 $254 $-1 $362 reversed $152 $-1 #
edge $-1 $363 0 $363 6.2831853071796004 $153 $364 forward 7 unknown #
vertex $-1 $156 $365 #
ellipse-curve $-1 44.621116233954446 -9.5952643150234209 3.9809434372224644 0.86602541151947299 0 0.49999998660252726 0.24999999330126363 0 -0.43301270575973649 1 I I #
coedge $-1 $258 $258 $-1 $366 reversed $159 $-1 #
edge $-1 $367 0 $367 6.2831853071796004 $160 $368 forward 7 unknown #
vertex $-1 $163 $369 #
ellipse-curve $-1 44.621116233954446 -6.9817515903851906 3.9809434372224644 0.86602541151947299 0 0.49999998660252726 0.24999999330126363 0 -0.43301270575973649 1 I I #
coedge $-1 $262 $262 $-1 $370 reversed $166 $-1 #
edge $-1 $371 0 $371 6.2831853071796004 $167 $372 forward 7 unknown #
vertex $-1 $170 $373 #
ellipse-curve $-1 44.621116233954446 -4.3682388657469602 3.9809434372224644 0.86602541151947299 0 0.49999998660252726 0.24999999330126363 0 -0.43301270575973649 1 I I #
face $-1 $-1 $374 $36 $-1 $375 forward single #
loop $-1 $-1 $177 $171 #
plane-surface $-1 46.333201086458935 0 0 -1 0 0 0 0 1 forward_v I I I I #
coedge $-1 $376 $377 $378 $379 reversed $172 $-1 #
coedge $-1 $380 $174 $176 $276 forward $108 $-1 #
coedge $-1 $174 $380 $376 $381 forward $108 $-1 #
coedge $-1 $378 $177 $174 $273 forward $267 $-1 #
edge $-1 $279 4.977213408008307 $382 13.688922490135742 $272 $383 forward 7 unknown #
coedge $-1 $384 $385 $175 $275 forward $374 $-1 #
edge $-1 $386 2.783301222787081 $278 6.2074709277960451 $274 $387 forward 7 unknown #
edge $-1 $279 -92.666402172917856 $386 -85.818062579399054 $176 $388 forward 7 unknown #
coedge $-1 $177 $378 $384 $389 reversed $267 $-1 #
vertex $-1 $389 $390 #
vertex $-1 $178 $391 #
straight-curve $-1 46.333201086458935 14.310281357080331 63.800092150332432 0 0 -1 I I #
coedge $-1 $281 $281 $-1 $392 reversed $181 $-1 #
edge $-1 $393 0 $393 6.2831853071796004 $182 $394 forward 7 unknown #
vertex $-1 $185 $395 #
ellipse-curve $-1 44.621116233954446 16.052623173505815 3.9809434372224644 0.86602541151947299 0 0.49999998660252726 0.24999999330126363 0 -0.43301270575973649 1 I I #
coedge $-1 $285 $285 $-1 $396 reversed $188 $-1 #
edge $-1 $397 0 $397 6.2831853071796004 $189 $398 forward 7 unknown #
vertex $-1 $192 $399 #
ellipse-curve $-1 44.621116233954446 18.666135898144049 3.9809434372224644 0.86602541151947299 0 0.49999998660252726 0.24999999330126363 0 -0.43301270575973649 1 I I #
coedge $-1 $289 $289 $-1 $400 reversed $195 $-1 #
edge $-1 $401 0 $401 6.2831853071796004 $196 $402 forward 7 unknown #
vertex $-1 $199 $403 #
ellipse-curve $-1 44.621116233954446 21.279648622782275 3.9809434372224644 0.86602541151947299 0 0.49999998660252726 0.24999999330126363 0 -0.43301270575973649 1 I I #
face $-1 $-1 $215 $30 $-1 $404 reversed single #
loop $-1 $-1 $309 $200 #
plane-surface $-1 0 28.638293250043077 0 0 -1 0 0 0 -1 forward_v I I I I #
coedge $-1 $405 $307 $310 $406 forward $201 $-1 #
coedge $-1 $313 $203 $204 $301 reversed $127 $-1 #
coedge $-1 $307 $405 $203 $299 reversed $201 $-1 #
edge $-1 $314 -6.9463614945735763 $407 6.9463614945735763 $298 $408 forward 7 unknown #
coedge $-1 $205 $204 $405 $409 forward $81 $-1 #
edge $-1 $305 -46.333201086458935 $407 46.333201086458935 $297 $410 forward 7 unknown #
coedge $-1 $310 $309 $205 $303 reversed $294 $-1 #
edge $-1 $411 -46.333201086458935 $304 46.333201086458935 $302 $412 forward 7 unknown #
vertex $-1 $207 $413 #
vertex $-1 $316 $414 #
straight-curve $-1 46.333201086458935 0 -6.9463614945735763 0 -1 0 I I #
coedge $-1 $296 $298 $208 $308 reversed $201 $-1 #
edge $-1 $311 -28.638293250043077 $314 28.638293250043077 $307 $415 forward 7 unknown #
coedge $-1 $302 $209 $214 $317 forward $294 $-1 #
coedge $-1 $209 $302 $296 $406 reversed $294 $-1 #
vertex $-1 $210 $416 #
straight-curve $-1 0 28.638293250043077 6.9463614945735763 -1 0 0 I I #
coedge $-1 $211 $297 $213 $316 reversed $127 $-1 #
vertex $-1 $308 $417 #
straight-curve $-1 0 -28.638293250043077 6.9463614945735763 1 0 0 I I #
edge $-1 $216 -6.9463614945735763 $305 6.9463614945735763 $213 $418 forward 7 unknown #
edge $-1 $217 -6.9463614945735763 $304 6.9463614945735763 $214 $419 forward 7 unknown #
point $-1 46.333201086458935 -28.638293250043077 6.9463614945735763 #
point $-1 46.333201086458935 28.638293250043077 6.9463614945735763 #
face $-1 $-1 $234 $31 $-1 $420 reversed single #
loop $-1 $-1 $230 $219 #
plane-surface $-1 0 -28.638293250043077 0 0 1 0 0 0 1 forward_v I I I I #
coedge $-1 $421 $422 $227 $333 forward $220 $-1 #
coedge $-1 $334 $222 $224 $329 reversed $135 $-1 #
edge $-1 $331 -3.6485760631002329 $235 -0.64857606310023286 $233 $423 forward 7 unknown #
coedge $-1 $224 $223 $424 $425 reversed $85 $-1 #
coedge $-1 $338 $337 $223 $328 forward $321 $-1 #
edge $-1 $426 -46.333201086458935 $330 46.333201086458935 $327 $427 forward 7 unknown #
edge $-1 $428 -46.333201086458935 $331 46.333201086458935 $324 $429 forward 7 unknown #
vertex $-1 $328 $430 #
vertex $-1 $226 $431 #
straight-curve $-1 46.333201086458935 -12.82394374426462 -5.7971521262004657 0 1 0 I I #
edge $-1 $339 -15.814349505778457 $335 -9.8335379827507818 $323 $432 forward 7 unknown #
coedge $-1 $228 $324 $421 $433 reversed $135 $-1 #
vertex $-1 $333 $434 #
straight-curve $-1 0 -22.657481727015401 -2.7971521262004657 -1 0 0 I I #
coedge $-1 $327 $230 $422 $435 forward $321 $-1 #
coedge $-1 $230 $327 $232 $341 reversed $321 $-1 #
vertex $-1 $435 $436 #
straight-curve $-1 0 -28.638293250043077 -2.7971521262004657 -1 0 0 I I #
edge $-1 $236 2.7971521262004657 $330 5.7971521262004657 $232 $437 forward 7 unknown #
point $-1 46.333201086458935 -22.657481727015401 -2.7971521262004657 #
point $-1 46.333201086458935 -28.638293250043077 -2.7971521262004657 #
plane-surface $-1 46.333201086458935 0 0 -1 0 0 0 0 1 forward_v I I I I #
coedge $-1 $355 $354 $347 $438 forward $239 $-1 #
coedge $-1 $347 $241 $243 $351 reversed $143 $-1 #
coedge $-1 $241 $346 $345 $438 reversed $143 $-1 #
coedge $-1 $249 $244 $241 $349 forward $250 $-1 #
edge $-1 $352 -62.784566770461083 $439 -56.853730655758852 $348 $440 forward 7 unknown #
coedge $-1 $243 $242 $355 $441 reversed $89 $-1 #
edge $-1 $442 85.818062579399054 $352 92.666402172917856 $346 $443 forward 7 unknown #
vertex $-1 $245 $444 #
straight-curve $-1 46.333201086458942 -3.4908757951925953 1.0155253798713488 0 1 0 I I #
coedge $-1 $345 $246 $249 $359 forward $239 $-1 #
coedge $-1 $246 $345 $350 $441 forward $239 $-1 #
vertex $-1 $247 $445 #
straight-curve $-1 40.12573015866289 -11.337606131448908 6.9463614945735799 1 0 0 I I #
straight-curve $-1 1.241495596104869e-006 -11.337606131448908 81.266984455701532 -0.49999998660252726 0 0.86602541151947299 I I #
edge $-1 $251 -11.337606131448908 $439 -2.6258970493214733 $249 $446 forward 7 unknown #
point $-1 46.333201086458935 -11.337606131448908 6.9463614945735763 #
point $-1 46.333201086458935 -11.337606131448908 1.0155253798713488 #
edge $-1 $447 1 $447 0 $254 $-1 forward 7 unknown #
vertex $-1 $255 $448 #
ellipse-curve $-1 42.893029881624699 -9.5952643150234209 2.9832323521667861 0.86602541151947299 0 0.49999998660252726 0.24999999330126363 0 -0.43301270575973649 1 I I #
point $-1 44.871116227255719 -9.5952643150234209 3.5479307314627353 #
edge $-1 $449 1 $449 0 $258 $-1 forward 7 unknown #
vertex $-1 $259 $450 #
ellipse-curve $-1 42.893029881624699 -6.9817515903851906 2.9832323521667861 0.86602541151947299 0 0.49999998660252726 0.24999999330126363 0 -0.43301270575973649 1 I I #
point $-1 44.871116227255719 -6.9817515903851906 3.5479307314627353 #
edge $-1 $451 1 $451 0 $262 $-1 forward 7 unknown #
vertex $-1 $263 $452 #
ellipse-curve $-1 42.893029881624699 -4.3682388657469602 2.9832323521667861 0.86602541151947299 0 0.49999998660252726 0.24999999330126363 0 -0.43301270575973649 1 I I #
point $-1 44.871116227255719 -4.3682388657469602 3.5479307314627353 #
loop $-1 $-1 $274 $266 #
plane-surface $-1 0 0 6.9463614945735763 0 0 1 1 0 0 forward_v I I I I #
coedge $-1 $377 $269 $271 $381 reversed $172 $-1 #
coedge $-1 $269 $376 $453 $454 reversed $172 $-1 #
coedge $-1 $277 $272 $269 $379 forward $267 $-1 #
edge $-1 $382 -62.784566770461083 $455 -56.853730655758852 $378 $456 forward 7 unknown #
coedge $-1 $271 $270 $385 $457 reversed $108 $-1 #
edge $-1 $458 85.818062579399054 $382 92.666402172917856 $376 $459 forward 7 unknown #
vertex $-1 $273 $460 #
straight-curve $-1 46.333201086458942 9.3330679490720243 1.0155253798713488 0 1 0 I I #
coedge $-1 $453 $274 $277 $389 forward $374 $-1 #
coedge $-1 $274 $453 $380 $457 forward $374 $-1 #
vertex $-1 $275 $461 #
straight-curve $-1 40.12573015866289 14.310281357080331 6.9463614945735799 1 0 0 I I #
straight-curve $-1 1.241495596104869e-006 14.310281357080331 81.266984455701532 -0.49999998660252726 0 0.86602541151947299 I I #
edge $-1 $278 14.310281357080331 $455 23.021990439207766 $277 $462 forward 7 unknown #
point $-1 46.333201086458935 14.310281357080331 6.9463614945735763 #
point $-1 46.333201086458935 14.310281357080331 1.0155253798713488 #
edge $-1 $463 1 $463 0 $281 $-1 forward 7 unknown #
vertex $-1 $282 $464 #
ellipse-curve $-1 42.893029881624699 16.052623173505815 2.9832323521667861 0.86602541151947299 0 0.49999998660252726 0.24999999330126363 0 -0.43301270575973649 1 I I #
point $-1 44.871116227255719 16.052623173505815 3.5479307314627353 #
edge $-1 $465 1 $465 0 $285 $-1 forward 7 unknown #
vertex $-1 $286 $466 #
ellipse-curve $-1 42.893029881624699 18.666135898144049 2.9832323521667861 0.86602541151947299 0 0.49999998660252726 0.24999999330126363 0 -0.43301270575973649 1 I I #
point $-1 44.871116227255719 18.666135898144049 3.5479307314627353 #
edge $-1 $467 1 $467 0 $289 $-1 forward 7 unknown #
vertex $-1 $290 $468 #
ellipse-curve $-1 42.893029881624699 21.279648622782275 2.9832323521667861 0.86602541151947299 0 0.49999998660252726 0.24999999330126363 0 -0.43301270575973649 1 I I #
point $-1 44.871116227255719 21.279648622782275 3.5479307314627353 #
plane-surface $-1 46.333201086458935 0 0 -1 0 0 0 0 1 forward_v I I I I #
coedge $-1 $298 $296 $300 $409 reversed $201 $-1 #
edge $-1 $311 -6.9463614945735763 $411 6.9463614945735763 $310 $469 forward 7 unknown #
vertex $-1 $409 $470 #
straight-curve $-1 -46.333201086458935 -28.638293250043077 0 0 0 -1 I I #
edge $-1 $407 -28.638293250043077 $411 28.638293250043077 $405 $471 forward 7 unknown #
straight-curve $-1 0 -28.638293250043077 -6.9463614945735763 -1 0 0 I I #
vertex $-1 $303 $472 #
straight-curve $-1 0 28.638293250043077 -6.9463614945735763 1 0 0 I I #
point $-1 46.333201086458935 28.638293250043077 -6.9463614945735763 #
point $-1 46.333201086458935 -28.638293250043077 -6.9463614945735763 #
straight-curve $-1 -46.333201086458935 0 6.9463614945735763 0 -1 0 I I #
point $-1 -46.333201086458935 28.638293250043077 6.9463614945735763 #
point $-1 -46.333201086458935 -28.638293250043077 6.9463614945735763 #
straight-curve $-1 46.333201086458935 -28.638293250043077 0 0 0 -1 I I #
straight-curve $-1 46.333201086458935 28.638293250043077 0 0 0 -1 I I #
plane-surface $-1 46.333201086458935 0 0 -1 0 0 0 0 1 forward_v I I I I #
coedge $-1 $424 $323 $334 $433 forward $220 $-1 #
coedge $-1 $323 $424 $337 $435 reversed $220 $-1 #
straight-curve $-1 46.333201086458935 -22.657481727015401 -2.1485760631002329 0 0 1 I I #
coedge $-1 $422 $421 $326 $425 forward $220 $-1 #
edge $-1 $428 9.8335379827507818 $426 15.814349505778457 $424 $473 forward 7 unknown #
vertex $-1 $328 $474 #
straight-curve $-1 0 -28.638293250043077 -5.7971521262004657 1 0 0 I I #
vertex $-1 $425 $475 #
straight-curve $-1 0 -22.657481727015401 -5.7971521262004657 1 0 0 I I #
point $-1 46.333201086458935 -28.638293250043077 -5.7971521262004657 #
point $-1 46.333201086458935 -22.657481727015401 -5.7971521262004657 #
straight-curve $-1 -46.333201086458935 -12.82394374426462 -2.7971521262004657 0 1 0 I I #
edge $-1 $335 0.64857606310023286 $428 3.6485760631002329 $421 $476 forward 7 unknown #
point $-1 -46.333201086458935 -22.657481727015401 -2.7971521262004657 #
edge $-1 $339 2.7971521262004657 $426 5.7971521262004657 $422 $477 forward 7 unknown #
point $-1 -46.333201086458935 -28.638293250043077 -2.7971521262004657 #
straight-curve $-1 46.333201086458935 -28.638293250043077 0 0 0 -1 I I #
edge $-1 $439 -6.2074709277960451 $442 -2.783301222787081 $345 $478 forward 7 unknown #
vertex $-1 $438 $479 #
straight-curve $-1 46.333201086458935 -2.6258970493214733 63.800092150332432 0 0 1 I I #
edge $-1 $442 -0.864978745871122 $356 7.8467303362563126 $355 $480 forward 7 unknown #
vertex $-1 $441 $481 #
straight-curve $-1 1.241495596104869e-006 -2.6258970493214733 81.266984455701532 0.49999998660252726 0 -0.86602541151947299 I I #
point $-1 46.333201086458935 -2.6258970493214733 1.0155253798713488 #
point $-1 42.909031381449971 -11.337606131448908 6.9463614945735799 #
straight-curve $-1 46.333201086458935 0 6.9463614945735763 0 1 0 I I #
vertex $-1 $362 $482 #
point $-1 43.143029874925965 -9.5952643150234209 2.5502196464070499 #
vertex $-1 $366 $483 #
point $-1 43.143029874925965 -6.9817515903851906 2.5502196464070499 #
vertex $-1 $370 $484 #
point $-1 43.143029874925965 -4.3682388657469602 2.5502196464070499 #
coedge $-1 $385 $384 $377 $454 forward $374 $-1 #
edge $-1 $455 -6.2074709277960451 $458 -2.783301222787081 $453 $485 forward 7 unknown #
vertex $-1 $454 $486 #
straight-curve $-1 46.333201086458935 23.021990439207766 63.800092150332432 0 0 1 I I #
edge $-1 $458 -13.688922490135742 $386 -4.977213408008307 $385 $487 forward 7 unknown #
vertex $-1 $457 $488 #
straight-curve $-1 1.241495596104869e-006 23.021990439207766 81.266984455701532 0.49999998660252726 0 -0.86602541151947299 I I #
point $-1 46.333201086458935 23.021990439207766 1.0155253798713488 #
point $-1 42.909031381449971 14.310281357080331 6.9463614945735799 #
straight-curve $-1 46.333201086458935 0 6.9463614945735763 0 1 0 I I #
vertex $-1 $392 $489 #
point $-1 43.143029874925965 16.052623173505815 2.5502196464070499 #
vertex $-1 $396 $490 #
point $-1 43.143029874925965 18.666135898144049 2.5502196464070499 #
vertex $-1 $400 $491 #
point $-1 43.143029874925965 21.279648622782275 2.5502196464070499 #
straight-curve $-1 -46.333201086458935 28.638293250043077 0 0 0 -1 I I #
point $-1 -46.333201086458935 -28.638293250043077 -6.9463614945735763 #
straight-curve $-1 -46.333201086458935 0 -6.9463614945735763 0 1 0 I I #
point $-1 -46.333201086458935 28.638293250043077 -6.9463614945735763 #
straight-curve $-1 -46.333201086458935 -12.82394374426462 -5.7971521262004657 0 -1 0 I I #
point $-1 -46.333201086458935 -28.638293250043077 -5.7971521262004657 #
point $-1 -46.333201086458935 -22.657481727015401 -5.7971521262004657 #
straight-curve $-1 -46.333201086458935 -22.657481727015401 -2.1485760631002329 0 0 -1 I I #
straight-curve $-1 -46.333201086458935 -28.638293250043077 0 0 0 -1 I I #
straight-curve $-1 40.12573015866289 -2.6258970493214733 6.9463614945735799 -1 0 0 I I #
point $-1 46.333201086458935 -2.6258970493214733 6.9463614945735763 #
straight-curve $-1 42.909031381449978 -3.4908757951925953 6.9463614945735657 0 -1 0 I I #
point $-1 42.909031381449971 -2.6258970493214733 6.9463614945735799 #
point $-1 42.460017175864962 -9.5952643150234209 2.7332323588655227 #
point $-1 42.460017175864962 -6.9817515903851906 2.7332323588655227 #
point $-1 42.460017175864962 -4.3682388657469602 2.7332323588655227 #
straight-curve $-1 40.12573015866289 23.021990439207766 6.9463614945735799 -1 0 0 I I #
point $-1 46.333201086458935 23.021990439207766 6.9463614945735763 #
straight-curve $-1 42.909031381449978 9.3330679490720243 6.9463614945735657 0 -1 0 I I #
point $-1 42.909031381449971 23.021990439207766 6.9463614945735799 #
point $-1 42.460017175864962 16.052623173505815 2.7332323588655227 #
point $-1 42.460017175864962 18.666135898144049 2.7332323588655227 #
point $-1 42.460017175864962 21.279648622782275 2.7332323588655227 #
End-of-ACIS-data 