500 0 8 0           
7 Unknown 11 ACIS 5.0 NT 24 Fri Mar 26 20:12:20 1999 
-1 9.9999999999999995e-007 1e-010 
body $-1 $8 $-1 $9 #
body $-1 $10 $-1 $11 #
body $-1 $12 $-1 $13 #
body $-1 $14 $-1 $15 #
body $-1 $16 $-1 $17 #
body $-1 $18 $-1 $19 #
body $-1 $20 $-1 $21 #
body $-1 $22 $-1 $23 #
lump $-1 $-1 $24 $0 #
transform $-1 1 0 0 0 1 0 0 0 1 74.501785332804346 44.070351412966708 15.858574802253235 1 rotate no_reflect no_shear #
lump $-1 $-1 $25 $1 #
transform $-1 1 0 0 0 1 0 0 0 1 74.501785332804346 44.070351412966708 15.858574802253235 1 rotate no_reflect no_shear #
lump $-1 $-1 $26 $2 #
transform $-1 1 0 0 0 1 0 0 0 1 74.501785332804346 44.070351412966708 15.858574802253235 1 rotate no_reflect no_shear #
lump $-1 $-1 $27 $3 #
transform $-1 1 0 0 0 1 0 0 0 1 74.501785332804346 44.070351412966708 15.858574802253235 1 rotate no_reflect no_shear #
lump $-1 $-1 $28 $4 #
transform $-1 1 0 0 0 1 0 0 0 1 74.501785332804346 44.070351412966708 15.858574802253235 1 rotate no_reflect no_shear #
lump $-1 $-1 $29 $5 #
transform $-1 1 0 0 0 1 0 0 0 1 74.501785332804346 44.070351412966708 15.858574802253235 1 rotate no_reflect no_shear #
lump $-1 $-1 $30 $6 #
transform $-1 1 0 0 0 1 0 0 0 1 74.501785332804346 44.070351412966708 15.858574802253235 1 rotate no_reflect no_shear #
lump $-1 $-1 $31 $7 #
transform $-1 1 0 0 0 1 0 0 0 1 74.501785332804346 44.070351412966708 15.858574802253235 1 rotate no_reflect no_shear #
shell $-1 $-1 $-1 $32 $-1 $8 #
shell $-1 $-1 $-1 $33 $-1 $10 #
shell $-1 $-1 $-1 $34 $-1 $12 #
shell $-1 $-1 $-1 $35 $-1 $14 #
shell $-1 $-1 $-1 $36 $-1 $16 #
shell $-1 $-1 $-1 $37 $-1 $18 #
shell $-1 $-1 $-1 $38 $-1 $20 #
shell $-1 $-1 $-1 $39 $-1 $22 #
face $-1 $40 $41 $24 $-1 $42 forward single #
face $-1 $43 $44 $25 $-1 $45 forward single #
face $-1 $46 $47 $26 $-1 $48 reversed single #
face $-1 $49 $50 $27 $-1 $51 forward single #
face $-1 $52 $53 $28 $-1 $54 forward single #
face $-1 $55 $56 $29 $-1 $57 reversed single #
face $-1 $58 $59 $30 $-1 $60 forward single #
face $-1 $61 $62 $31 $-1 $63 forward single #
face $-1 $64 $65 $24 $-1 $66 reversed single #
loop $-1 $-1 $67 $32 #
plane-surface $-1 0 0 15.858574802253235 0 0 1 1 0 0 forward_v I I I I #
face $-1 $68 $69 $25 $-1 $70 reversed single #
loop $-1 $-1 $71 $33 #
plane-surface $-1 0 -44.070351412966708 0 0 1 0 0 0 1 forward_v I I I I #
face $-1 $72 $73 $26 $-1 $74 reversed single #
loop $-1 $-1 $75 $34 #
plane-surface $-1 -40.915843006010547 110.02549714585905 160.15121498401439 -1 0 0 0 0.79863551827123203 0.60181501223851219 forward_v I I I I #
face $-1 $76 $77 $27 $-1 $78 forward single #
loop $-1 $79 $80 $35 #
cone-surface $-1 -64.905801810863252 37.718434816826004 7.6640255134874193 0 -0.79863551827123203 -0.60181501223851219 1 0 0 1 I I 0 1 1 forward I I I I #
face $-1 $81 $82 $28 $-1 $83 forward single #
loop $-1 $84 $85 $36 #
cone-surface $-1 -50.511826527951627 37.718434816826004 7.6640255134874193 0 -0.79863551827123203 -0.60181501223851219 1 0 0 1 I I 0 1 1 forward I I I I #
face $-1 $86 $87 $29 $-1 $88 reversed single #
loop $-1 $-1 $89 $37 #
plane-surface $-1 33.585942326793798 110.02549714585905 160.15121498401439 -1 0 0 0 0.79863551827123203 0.60181501223851219 forward_v I I I I #
face $-1 $90 $91 $30 $-1 $92 forward single #
loop $-1 $93 $94 $38 #
cone-surface $-1 9.5959835219410934 37.718434816826004 7.6640255134874193 0 -0.79863551827123203 -0.60181501223851219 1 0 0 1 I I 0 1 1 forward I I I I #
face $-1 $95 $96 $31 $-1 $97 forward single #
loop $-1 $98 $99 $39 #
cone-surface $-1 23.989958804852719 37.718434816826004 7.6640255134874193 0 -0.79863551827123203 -0.60181501223851219 1 0 0 1 I I 0 1 1 forward I I I I #
face $-1 $100 $101 $24 $-1 $102 reversed single #
loop $-1 $-1 $103 $40 #
plane-surface $-1 0 0 -15.858574802253235 0 0 1 1 0 0 forward_v I I I I #
coedge $-1 $104 $105 $106 $107 forward $41 $-1 #
face $-1 $108 $109 $25 $-1 $110 forward single #
loop $-1 $-1 $111 $43 #
plane-surface $-1 -74.501785332804346 0 0 1 0 0 0 0 -1 forward_v I I I I #
coedge $-1 $112 $113 $114 $115 forward $44 $-1 #
face $-1 $116 $117 $26 $-1 $118 forward single #
loop $-1 $-1 $119 $46 #
plane-surface $-1 -57.708814169407447 -8.974046736933488 70.478629280309079 0 0.79863551827123203 0.60181501223851219 1 0 0 forward_v I I I I #
coedge $-1 $120 $121 $122 $123 reversed $47 $-1 #
face $-1 $-1 $124 $27 $-1 $125 forward single #
loop $-1 $126 $127 $49 #
cone-surface $-1 -64.905801810863252 36.909818487228371 7.0546894206644257 0 -0.79863551827123203 -0.60181501223851219 0.5 0 0 1 I I -0.70710678118654691 0.70710678118654813 0.5 forward I I I I #
loop $-1 $-1 $128 $35 #
coedge $-1 $80 $80 $129 $130 reversed $50 $-1 #
face $-1 $-1 $131 $28 $-1 $132 forward single #
loop $-1 $133 $134 $52 #
cone-surface $-1 -50.511826527951627 36.909818487228371 7.0546894206644257 0 -0.79863551827123203 -0.60181501223851219 0.5 0 0 1 I I -0.70710678118654691 0.70710678118654813 0.5 forward I I I I #
loop $-1 $-1 $135 $36 #
coedge $-1 $85 $85 $136 $137 reversed $53 $-1 #
face $-1 $138 $139 $29 $-1 $140 reversed single #
loop $-1 $-1 $141 $55 #
plane-surface $-1 16.792971163396899 -8.974046736933488 70.478629280309079 0 0.79863551827123203 0.60181501223851219 1 0 0 forward_v I I I I #
coedge $-1 $142 $143 $144 $145 reversed $56 $-1 #
face $-1 $-1 $146 $30 $-1 $147 forward single #
loop $-1 $148 $149 $58 #
cone-surface $-1 9.5959835219410934 36.909818487228371 7.0546894206644257 0 -0.79863551827123203 -0.60181501223851219 0.5 0 0 1 I I -0.70710678118654691 0.70710678118654813 0.5 forward I I I I #
loop $-1 $-1 $150 $38 #
coedge $-1 $94 $94 $151 $152 reversed $59 $-1 #
face $-1 $-1 $153 $31 $-1 $154 forward single #
loop $-1 $155 $156 $61 #
cone-surface $-1 23.989958804852719 36.909818487228371 7.0546894206644257 0 -0.79863551827123203 -0.60181501223851219 0.5 0 0 1 I I -0.70710678118654691 0.70710678118654813 0.5 forward I I I I #
loop $-1 $-1 $157 $39 #
coedge $-1 $99 $99 $158 $159 reversed $62 $-1 #
face $-1 $160 $161 $24 $-1 $162 reversed single #
loop $-1 $-1 $163 $64 #
plane-surface $-1 0 -44.070351412966708 0 0 1 0 0 0 1 forward_v I I I I #
coedge $-1 $164 $165 $166 $167 forward $65 $-1 #
coedge $-1 $168 $67 $169 $170 forward $41 $-1 #
coedge $-1 $67 $168 $171 $172 forward $41 $-1 #
coedge $-1 $173 $174 $67 $107 reversed $175 $-1 #
edge $-1 $176 -44.070351412966708 $177 44.070351412966708 $106 $178 forward 7 unknown #
face $-1 $179 $180 $25 $-1 $181 reversed single #
loop $-1 $-1 $182 $68 #
plane-surface $-1 0 -52.447799514833051 15.346953544846144 0 0 1 1 0 0 forward_v I I I I #
coedge $-1 $183 $184 $113 $185 forward $69 $-1 #
coedge $-1 $186 $71 $187 $188 reversed $44 $-1 #
coedge $-1 $71 $186 $111 $185 reversed $44 $-1 #
coedge $-1 $189 $182 $71 $115 reversed $109 $-1 #
edge $-1 $190 -74.501785332804346 $191 74.501785332804346 $114 $192 forward 7 unknown #
face $-1 $193 $194 $26 $-1 $195 reversed single #
loop $-1 $-1 $196 $72 #
plane-surface $-1 0 0 15.858574802253235 0 0 1 1 0 0 forward_v I I I I #
coedge $-1 $197 $198 $199 $200 reversed $73 $-1 #
coedge $-1 $121 $75 $201 $202 reversed $47 $-1 #
coedge $-1 $75 $120 $197 $203 reversed $47 $-1 #
coedge $-1 $199 $204 $75 $123 forward $194 $-1 #
edge $-1 $205 64.217032689753964 $206 79.989274093878109 $122 $207 forward 7 unknown #
loop $-1 $-1 $129 $76 #
plane-surface $-1 -57.708814169407447 -8.974046736933488 70.478629280309079 0 0.79863551827123203 0.60181501223851219 1 0 0 forward_v I I I I #
loop $-1 $-1 $208 $49 #
coedge $-1 $127 $127 $128 $209 reversed $77 $-1 #
coedge $-1 $128 $128 $127 $209 forward $79 $-1 #
coedge $-1 $129 $129 $80 $130 forward $124 $-1 #
edge $-1 $210 0 $210 6.2831853071796004 $129 $211 forward 7 unknown #
loop $-1 $-1 $136 $81 #
plane-surface $-1 -57.708814169407447 -8.974046736933488 70.478629280309079 0 0.79863551827123203 0.60181501223851219 1 0 0 forward_v I I I I #
loop $-1 $-1 $212 $52 #
coedge $-1 $134 $134 $135 $213 reversed $82 $-1 #
coedge $-1 $135 $135 $134 $213 forward $84 $-1 #
coedge $-1 $136 $136 $85 $137 forward $131 $-1 #
edge $-1 $214 0 $214 6.2831853071796004 $136 $215 forward 7 unknown #
face $-1 $216 $217 $29 $-1 $218 forward single #
loop $-1 $-1 $219 $86 #
plane-surface $-1 -3.5527136788005009e-015 110.02549714585905 160.15121498401439 1 0 0 0 -0.79863551827123203 -0.60181501223851219 forward_v I I I I #
coedge $-1 $220 $221 $222 $223 reversed $87 $-1 #
coedge $-1 $143 $89 $224 $225 reversed $56 $-1 #
coedge $-1 $89 $142 $220 $226 reversed $56 $-1 #
coedge $-1 $222 $227 $89 $145 forward $228 $-1 #
edge $-1 $229 64.217032689753964 $230 79.989274093878109 $144 $231 forward 7 unknown #
loop $-1 $-1 $151 $90 #
plane-surface $-1 16.792971163396899 -8.974046736933488 70.478629280309079 0 0.79863551827123203 0.60181501223851219 1 0 0 forward_v I I I I #
loop $-1 $-1 $232 $58 #
coedge $-1 $149 $149 $150 $233 reversed $91 $-1 #
coedge $-1 $150 $150 $149 $233 forward $93 $-1 #
coedge $-1 $151 $151 $94 $152 forward $146 $-1 #
edge $-1 $234 0 $234 6.2831853071796004 $151 $235 forward 7 unknown #
loop $-1 $-1 $158 $95 #
plane-surface $-1 16.792971163396899 -8.974046736933488 70.478629280309079 0 0.79863551827123203 0.60181501223851219 1 0 0 forward_v I I I I #
loop $-1 $-1 $236 $61 #
coedge $-1 $156 $156 $157 $237 reversed $96 $-1 #
coedge $-1 $157 $157 $156 $237 forward $98 $-1 #
coedge $-1 $158 $158 $99 $159 forward $153 $-1 #
edge $-1 $238 0 $238 6.2831853071796004 $158 $239 forward 7 unknown #
face $-1 $240 $241 $24 $-1 $242 reversed single #
loop $-1 $-1 $243 $100 #
plane-surface $-1 -74.501785332804346 0 0 1 0 0 0 0 -1 forward_v I I I I #
coedge $-1 $244 $171 $245 $246 forward $101 $-1 #
coedge $-1 $247 $103 $244 $248 forward $65 $-1 #
coedge $-1 $103 $247 $249 $250 forward $65 $-1 #
coedge $-1 $174 $173 $103 $167 reversed $175 $-1 #
edge $-1 $251 -44.070351412966708 $252 44.070351412966708 $166 $253 forward 7 unknown #
coedge $-1 $105 $104 $254 $255 forward $41 $-1 #
coedge $-1 $256 $257 $104 $170 reversed $241 $-1 #
edge $-1 $177 -74.501785332804346 $258 74.501785332804346 $169 $259 forward 7 unknown #
coedge $-1 $163 $260 $105 $172 reversed $101 $-1 #
edge $-1 $261 -74.501785332804346 $176 74.501785332804346 $171 $262 forward 7 unknown #
coedge $-1 $166 $106 $260 $263 forward $175 $-1 #
coedge $-1 $106 $166 $256 $264 reversed $175 $-1 #
loop $-1 $-1 $173 $240 #
vertex $-1 $107 $265 #
vertex $-1 $107 $266 #
straight-curve $-1 74.501785332804346 0 15.858574802253235 0 1 0 I I #
face $-1 $267 $268 $25 $-1 $269 reversed single #
loop $-1 $-1 $270 $108 #
plane-surface $-1 0 -52.447799514833051 11.852520676801195 0 0 1 1 0 0 forward_v I I I I #
coedge $-1 $114 $271 $272 $273 forward $109 $-1 #
coedge $-1 $274 $111 $275 $276 reversed $69 $-1 #
coedge $-1 $111 $274 $189 $277 reversed $69 $-1 #
edge $-1 $190 -15.346953544846144 $278 -11.852520676801195 $111 $279 forward 7 unknown #
coedge $-1 $113 $112 $280 $281 forward $44 $-1 #
coedge $-1 $272 $282 $112 $188 forward $283 $-1 #
edge $-1 $284 11.852520676801195 $191 15.346953544846144 $187 $285 forward 7 unknown #
coedge $-1 $271 $114 $184 $277 forward $109 $-1 #
vertex $-1 $185 $286 #
vertex $-1 $273 $287 #
straight-curve $-1 0 -44.070351412966708 15.346953544846144 1 0 0 I I #
face $-1 $-1 $288 $26 $-1 $289 reversed single #
loop $-1 $-1 $122 $116 #
plane-surface $-1 0 44.070351412966708 0 0 -1 0 0 0 -1 forward_v I I I I #
coedge $-1 $201 $290 $291 $292 forward $117 $-1 #
coedge $-1 $291 $119 $121 $203 forward $73 $-1 #
coedge $-1 $119 $291 $293 $294 reversed $73 $-1 #
coedge $-1 $295 $122 $119 $200 forward $194 $-1 #
edge $-1 $206 12.061435921306824 $296 45.647378248100622 $199 $297 forward 7 unknown #
coedge $-1 $298 $196 $120 $202 forward $117 $-1 #
edge $-1 $299 -22.827633211320212 $205 -10.942397159962816 $201 $300 forward 7 unknown #
edge $-1 $206 -88.140702825933431 $299 -68.391717158146506 $121 $301 forward 7 unknown #
coedge $-1 $122 $295 $298 $302 reversed $194 $-1 #
vertex $-1 $302 $303 #
vertex $-1 $123 $304 #
straight-curve $-1 -40.915843006010547 44.070351412966708 80.075607492007194 0 0 -1 I I #
coedge $-1 $208 $208 $-1 $305 reversed $126 $-1 #
edge $-1 $306 0 $306 6.2831853071796004 $127 $307 forward 7 unknown #
vertex $-1 $130 $308 #
ellipse-curve $-1 -64.905801810863252 38.127733387288018 7.9724541001911557 0 0.79863551827123203 0.60181501223851219 1 0 0 1 I I #
coedge $-1 $212 $212 $-1 $309 reversed $133 $-1 #
edge $-1 $310 0 $310 6.2831853071796004 $134 $311 forward 7 unknown #
vertex $-1 $137 $312 #
ellipse-curve $-1 -50.511826527951627 38.127733387288018 7.9724541001911557 0 0.79863551827123203 0.60181501223851219 1 0 0 1 I I #
face $-1 $-1 $228 $29 $-1 $313 reversed single #
loop $-1 $-1 $314 $138 #
plane-surface $-1 0 0 15.858574802253235 0 0 1 1 0 0 forward_v I I I I #
coedge $-1 $315 $316 $317 $318 reversed $139 $-1 #
coedge $-1 $319 $141 $143 $226 forward $87 $-1 #
coedge $-1 $141 $319 $315 $320 forward $87 $-1 #
coedge $-1 $317 $144 $141 $223 forward $228 $-1 #
edge $-1 $230 -25.189456745095349 $321 8.3964855816984532 $222 $322 forward 7 unknown #
coedge $-1 $323 $324 $142 $225 forward $217 $-1 #
edge $-1 $325 -22.827633211320212 $229 -10.942397159962816 $224 $326 forward 7 unknown #
edge $-1 $230 -88.140702825933431 $325 -68.391717158146506 $143 $327 forward 7 unknown #
coedge $-1 $144 $317 $323 $328 reversed $228 $-1 #
loop $-1 $-1 $317 $216 #
vertex $-1 $328 $329 #
vertex $-1 $145 $330 #
straight-curve $-1 33.585942326793798 44.070351412966708 80.075607492007194 0 0 -1 I I #
coedge $-1 $232 $232 $-1 $331 reversed $148 $-1 #
edge $-1 $332 0 $332 6.2831853071796004 $149 $333 forward 7 unknown #
vertex $-1 $152 $334 #
ellipse-curve $-1 9.5959835219410934 38.127733387288018 7.9724541001911557 0 0.79863551827123203 0.60181501223851219 1 0 0 1 I I #
coedge $-1 $236 $236 $-1 $335 reversed $155 $-1 #
edge $-1 $336 0 $336 6.2831853071796004 $156 $337 forward 7 unknown #
vertex $-1 $159 $338 #
ellipse-curve $-1 23.989958804852719 38.127733387288018 7.9724541001911557 0 0.79863551827123203 0.60181501223851219 1 0 0 1 I I #
face $-1 $-1 $175 $24 $-1 $339 reversed single #
loop $-1 $-1 $256 $160 #
plane-surface $-1 0 44.070351412966708 0 0 -1 0 0 0 -1 forward_v I I I I #
coedge $-1 $340 $254 $257 $341 forward $161 $-1 #
coedge $-1 $260 $163 $164 $248 reversed $101 $-1 #
coedge $-1 $254 $340 $163 $246 reversed $161 $-1 #
edge $-1 $261 -15.858574802253235 $342 15.858574802253235 $245 $343 forward 7 unknown #
coedge $-1 $165 $164 $340 $344 forward $65 $-1 #
edge $-1 $252 -74.501785332804346 $342 74.501785332804346 $244 $345 forward 7 unknown #
coedge $-1 $257 $256 $165 $250 reversed $241 $-1 #
edge $-1 $346 -74.501785332804346 $251 74.501785332804346 $249 $347 forward 7 unknown #
vertex $-1 $167 $348 #
vertex $-1 $263 $349 #
straight-curve $-1 74.501785332804346 0 -15.858574802253235 0 -1 0 I I #
coedge $-1 $243 $245 $168 $255 reversed $161 $-1 #
edge $-1 $258 -44.070351412966708 $261 44.070351412966708 $254 $350 forward 7 unknown #
coedge $-1 $249 $169 $174 $264 forward $241 $-1 #
coedge $-1 $169 $249 $243 $341 reversed $241 $-1 #
vertex $-1 $170 $351 #
straight-curve $-1 0 44.070351412966708 15.858574802253235 -1 0 0 I I #
coedge $-1 $171 $244 $173 $263 reversed $101 $-1 #
vertex $-1 $255 $352 #
straight-curve $-1 0 -44.070351412966708 15.858574802253235 1 0 0 I I #
edge $-1 $176 -15.858574802253235 $252 15.858574802253235 $173 $353 forward 7 unknown #
edge $-1 $177 -15.858574802253235 $251 15.858574802253235 $174 $354 forward 7 unknown #
point $-1 74.501785332804346 -44.070351412966708 15.858574802253235 #
point $-1 74.501785332804346 44.070351412966708 15.858574802253235 #
face $-1 $-1 $283 $25 $-1 $355 reversed single #
loop $-1 $-1 $356 $179 #
plane-surface $-1 0 -60.825247616699393 13.59973711082367 0 1 0 0 0 1 forward_v I I I I #
coedge $-1 $357 $280 $282 $358 forward $180 $-1 #
coedge $-1 $182 $189 $359 $360 forward $109 $-1 #
coedge $-1 $361 $187 $182 $273 reversed $283 $-1 #
edge $-1 $362 -8.3774481018663423 $191 8.3774481018663423 $272 $363 forward 7 unknown #
coedge $-1 $184 $183 $356 $364 reversed $69 $-1 #
coedge $-1 $280 $357 $183 $276 forward $180 $-1 #
edge $-1 $365 -8.3774481018663423 $278 8.3774481018663423 $183 $366 forward 7 unknown #
edge $-1 $190 -8.3774481018663423 $367 8.3774481018663423 $184 $368 forward 7 unknown #
vertex $-1 $185 $369 #
straight-curve $-1 -74.501785332804346 -44.070351412966708 0 0 0 -1 I I #
coedge $-1 $270 $275 $186 $281 reversed $180 $-1 #
edge $-1 $284 -74.501785332804346 $278 74.501785332804346 $280 $370 forward 7 unknown #
coedge $-1 $187 $361 $270 $358 reversed $283 $-1 #
loop $-1 $-1 $187 $267 #
vertex $-1 $188 $371 #
straight-curve $-1 74.501785332804346 -44.070351412966708 0 0 0 1 I I #
point $-1 -74.501785332804346 -44.070351412966708 15.346953544846144 #
point $-1 74.501785332804346 -44.070351412966708 15.346953544846144 #
loop $-1 $-1 $293 $193 #
plane-surface $-1 -74.501785332804346 0 0 1 0 0 0 0 -1 forward_v I I I I #
coedge $-1 $196 $298 $372 $373 forward $117 $-1 #
coedge $-1 $198 $197 $196 $292 reversed $73 $-1 #
edge $-1 $374 -45.647378248100622 $299 -12.061435921306824 $196 $375 forward 7 unknown #
coedge $-1 $372 $376 $198 $294 forward $288 $-1 #
edge $-1 $296 -57.296976491362287 $374 -37.547990823575361 $293 $377 forward 7 unknown #
coedge $-1 $204 $199 $376 $378 reversed $194 $-1 #
vertex $-1 $200 $379 #
straight-curve $-1 -28.854407084703723 44.070351412966701 0.086333398129085026 -1 0 0 I I #
coedge $-1 $290 $201 $204 $302 forward $117 $-1 #
vertex $-1 $202 $380 #
straight-curve $-1 -40.915843006010547 55.012748572929524 15.85857480225323 0 1 0 I I #
straight-curve $-1 -40.915843006010547 -8.974046736933488 70.478629280309079 0 -0.60181501223851219 0.79863551827123203 I I #
edge $-1 $205 40.915843006010547 $381 74.501785332804346 $204 $382 forward 7 unknown #
point $-1 -40.915843006010547 44.070351412966708 15.858574802253235 #
point $-1 -40.915843006010547 44.070351412966708 0.086333398129085026 #
edge $-1 $383 1 $383 0 $208 $-1 forward 7 unknown #
vertex $-1 $209 $384 #
ellipse-curve $-1 -64.905801810863252 37.309136246363991 7.355596926783682 0 0.79863551827123203 0.60181501223851219 1 0 0 1 I I #
point $-1 -63.905801810863252 38.127733387288018 7.9724541001911557 #
edge $-1 $385 1 $385 0 $212 $-1 forward 7 unknown #
vertex $-1 $213 $386 #
ellipse-curve $-1 -50.511826527951627 37.309136246363991 7.355596926783682 0 0.79863551827123203 0.60181501223851219 1 0 0 1 I I #
point $-1 -49.511826527951627 38.127733387288018 7.9724541001911557 #
plane-surface $-1 0 44.070351412966708 0 0 -1 0 0 0 -1 forward_v I I I I #
coedge $-1 $324 $323 $316 $387 forward $217 $-1 #
coedge $-1 $316 $219 $221 $320 reversed $139 $-1 #
coedge $-1 $219 $315 $314 $387 reversed $139 $-1 #
coedge $-1 $227 $222 $219 $318 forward $228 $-1 #
edge $-1 $321 -79.989274093878109 $388 -64.217032689753964 $317 $389 forward 7 unknown #
coedge $-1 $221 $220 $324 $390 reversed $87 $-1 #
edge $-1 $391 68.391717158146506 $321 88.140702825933431 $315 $392 forward 7 unknown #
vertex $-1 $223 $393 #
straight-curve $-1 8.3964855816984496 44.070351412966701 0.086333398129085026 -1 0 0 I I #
coedge $-1 $314 $224 $227 $328 forward $217 $-1 #
coedge $-1 $224 $314 $319 $390 forward $217 $-1 #
vertex $-1 $225 $394 #
straight-curve $-1 33.585942326793798 55.012748572929524 15.85857480225323 0 1 0 I I #
straight-curve $-1 33.585942326793798 -8.974046736933488 70.478629280309079 0 -0.60181501223851219 0.79863551827123203 I I #
edge $-1 $229 -33.585942326793798 $388 3.5527136788005009e-015 $227 $395 forward 7 unknown #
point $-1 33.585942326793798 44.070351412966708 15.858574802253235 #
point $-1 33.585942326793798 44.070351412966708 0.086333398129085026 #
edge $-1 $396 1 $396 0 $232 $-1 forward 7 unknown #
vertex $-1 $233 $397 #
ellipse-curve $-1 9.5959835219410934 37.309136246363991 7.355596926783682 0 0.79863551827123203 0.60181501223851219 1 0 0 1 I I #
point $-1 10.595983521941093 38.127733387288018 7.9724541001911557 #
edge $-1 $398 1 $398 0 $236 $-1 forward 7 unknown #
vertex $-1 $237 $399 #
ellipse-curve $-1 23.989958804852719 37.309136246363991 7.355596926783682 0 0.79863551827123203 0.60181501223851219 1 0 0 1 I I #
point $-1 24.989958804852719 38.127733387288018 7.9724541001911557 #
plane-surface $-1 74.501785332804346 0 0 -1 0 0 0 0 1 forward_v I I I I #
coedge $-1 $245 $243 $247 $344 reversed $161 $-1 #
edge $-1 $258 -15.858574802253235 $346 15.858574802253235 $257 $400 forward 7 unknown #
vertex $-1 $344 $401 #
straight-curve $-1 -74.501785332804346 -44.070351412966708 0 0 0 -1 I I #
edge $-1 $342 -44.070351412966708 $346 44.070351412966708 $340 $402 forward 7 unknown #
straight-curve $-1 0 -44.070351412966708 -15.858574802253235 -1 0 0 I I #
vertex $-1 $250 $403 #
straight-curve $-1 0 44.070351412966708 -15.858574802253235 1 0 0 I I #
point $-1 74.501785332804346 44.070351412966708 -15.858574802253235 #
point $-1 74.501785332804346 -44.070351412966708 -15.858574802253235 #
straight-curve $-1 -74.501785332804346 0 15.858574802253235 0 -1 0 I I #
point $-1 -74.501785332804346 44.070351412966708 15.858574802253235 #
point $-1 -74.501785332804346 -44.070351412966708 15.858574802253235 #
straight-curve $-1 74.501785332804346 -44.070351412966708 0 0 0 -1 I I #
straight-curve $-1 74.501785332804346 44.070351412966708 0 0 0 -1 I I #
plane-surface $-1 74.501785332804346 0 0 -1 0 0 0 0 1 forward_v I I I I #
coedge $-1 $404 $359 $274 $364 forward $268 $-1 #
coedge $-1 $275 $270 $404 $405 forward $180 $-1 #
edge $-1 $284 -8.3774481018663423 $406 8.3774481018663423 $282 $407 forward 7 unknown #
coedge $-1 $356 $408 $271 $360 reversed $268 $-1 #
edge $-1 $367 -74.501785332804346 $362 74.501785332804346 $359 $409 forward 7 unknown #
coedge $-1 $282 $272 $408 $410 forward $283 $-1 #
vertex $-1 $273 $411 #
straight-curve $-1 74.501785332804346 -52.447799514833051 15.346953544846144 0 1 0 I I #
edge $-1 $367 -1.7472164340224747 $365 1.7472164340224747 $274 $412 forward 7 unknown #
vertex $-1 $276 $413 #
straight-curve $-1 -74.501785332804346 -52.447799514833051 11.852520676801195 0 1 0 I I #
vertex $-1 $277 $414 #
straight-curve $-1 -74.501785332804346 -52.447799514833051 15.346953544846144 0 -1 0 I I #
point $-1 -74.501785332804346 -44.070351412966708 11.852520676801195 #
straight-curve $-1 0 -44.070351412966708 11.852520676801195 -1 0 0 I I #
point $-1 74.501785332804346 -44.070351412966708 11.852520676801195 #
coedge $-1 $376 $293 $290 $373 reversed $288 $-1 #
edge $-1 $381 -44.070351412966708 $374 -32.185115361609313 $372 $415 forward 7 unknown #
vertex $-1 $294 $416 #
straight-curve $-1 -28.854407084703723 32.185115361609306 15.858574802253244 1 0 0 I I #
coedge $-1 $293 $372 $295 $378 forward $288 $-1 #
straight-curve $-1 -74.501785332804346 9.5881708045877634 45.845733913682807 0 -0.60181501223851219 0.79863551827123203 I I #
edge $-1 $381 -15.858574802253235 $296 -0.086333398129083569 $295 $417 forward 7 unknown #
point $-1 -74.501785332804346 44.070351412966708 0.086333398129083569 #
point $-1 -40.915843006010547 32.185115361609313 15.85857480225323 #
vertex $-1 $302 $418 #
straight-curve $-1 0 44.070351412966708 15.858574802253235 -1 0 0 I I #
vertex $-1 $305 $419 #
point $-1 -63.905801810863252 37.309136246363991 7.355596926783682 #
vertex $-1 $309 $420 #
point $-1 -49.511826527951627 37.309136246363991 7.355596926783682 #
edge $-1 $388 10.942397159962816 $391 22.827633211320212 $314 $421 forward 7 unknown #
vertex $-1 $318 $422 #
straight-curve $-1 -3.5527136788005009e-015 44.070351412966708 80.075607492007194 0 0 1 I I #
edge $-1 $391 -8.3964855816984532 $325 25.189456745095349 $324 $423 forward 7 unknown #
vertex $-1 $390 $424 #
straight-curve $-1 -3.5527136788005009e-015 -8.974046736933488 70.478629280309079 0 0.60181501223851219 -0.79863551827123203 I I #
point $-1 -3.5527136788005009e-015 44.070351412966708 0.086333398129085026 #
point $-1 33.585942326793798 32.185115361609313 15.85857480225323 #
straight-curve $-1 0 44.070351412966708 15.858574802253235 -1 0 0 I I #
vertex $-1 $331 $425 #
point $-1 10.595983521941093 37.309136246363991 7.355596926783682 #
vertex $-1 $335 $426 #
point $-1 24.989958804852719 37.309136246363991 7.355596926783682 #
straight-curve $-1 -74.501785332804346 44.070351412966708 0 0 0 -1 I I #
point $-1 -74.501785332804346 -44.070351412966708 -15.858574802253235 #
straight-curve $-1 -74.501785332804346 0 -15.858574802253235 0 1 0 I I #
point $-1 -74.501785332804346 44.070351412966708 -15.858574802253235 #
coedge $-1 $408 $356 $357 $405 reversed $268 $-1 #
edge $-1 $406 -74.501785332804346 $365 74.501785332804346 $404 $427 forward 7 unknown #
vertex $-1 $410 $428 #
straight-curve $-1 74.501785332804346 -52.447799514833051 11.852520676801195 0 -1 0 I I #
coedge $-1 $359 $404 $361 $410 reversed $268 $-1 #
straight-curve $-1 0 -60.825247616699393 15.346953544846144 1 0 0 I I #
edge $-1 $362 -1.7472164340224747 $406 1.7472164340224747 $361 $429 forward 7 unknown #
point $-1 74.501785332804346 -60.825247616699393 15.346953544846144 #
straight-curve $-1 -74.501785332804346 -60.825247616699393 13.59973711082367 0 0 -1 I I #
point $-1 -74.501785332804346 -60.825247616699393 11.852520676801195 #
point $-1 -74.501785332804346 -60.825247616699393 15.346953544846144 #
straight-curve $-1 -74.501785332804346 0 15.858574802253235 0 -1 0 I I #
point $-1 -74.501785332804346 32.185115361609313 15.85857480225323 #
straight-curve $-1 -74.501785332804346 44.070351412966708 0 0 0 -1 I I #
point $-1 -74.501785332804346 44.070351412966708 15.858574802253235 #
point $-1 -64.905801810863252 36.510500728092751 6.7537819145451694 #
point $-1 -50.511826527951627 36.510500728092751 6.7537819145451694 #
straight-curve $-1 -3.5527136788005009e-015 55.012748572929524 15.85857480225323 0 -1 0 I I #
point $-1 -3.5527136788005009e-015 44.070351412966708 15.858574802253235 #
straight-curve $-1 8.3964855816984496 32.185115361609306 15.858574802253244 1 0 0 I I #
point $-1 -3.5527136788005009e-015 32.185115361609313 15.85857480225323 #
point $-1 9.5959835219410934 36.510500728092751 6.7537819145451694 #
point $-1 23.989958804852719 36.510500728092751 6.7537819145451694 #
straight-curve $-1 0 -60.825247616699393 11.852520676801195 -1 0 0 I I #
point $-1 74.501785332804346 -60.825247616699393 11.852520676801195 #
straight-curve $-1 74.501785332804346 -60.825247616699393 13.59973711082367 0 0 -1 I I #
End-of-ACIS-data 