500 0 7 0           
7 Unknown 11 ACIS 5.0 NT 24 Thu Mar 25 17:06:48 1999 
-1 9.9999999999999995e-007 1e-010 
body $-1 $7 $-1 $8 #
body $-1 $9 $-1 $10 #
body $-1 $11 $-1 $12 #
body $-1 $13 $-1 $14 #
body $-1 $15 $-1 $16 #
body $-1 $17 $-1 $18 #
body $-1 $19 $-1 $20 #
lump $-1 $-1 $21 $0 #
transform $-1 1 0 0 0 1 0 0 0 1 51.764275032807397 36.162007217428638 15.654826153750633 1 rotate no_reflect no_shear #
lump $-1 $-1 $22 $1 #
transform $-1 1 0 0 0 1 0 0 0 1 51.764275032807397 36.162007217428638 15.654826153750633 1 rotate no_reflect no_shear #
lump $-1 $-1 $23 $2 #
transform $-1 1 0 0 0 1 0 0 0 1 51.764275032807397 36.162007217428638 15.654826153750633 1 rotate no_reflect no_shear #
lump $-1 $-1 $24 $3 #
transform $-1 1 0 0 0 1 0 0 0 1 51.764275032807397 36.162007217428638 15.654826153750633 1 rotate no_reflect no_shear #
lump $-1 $-1 $25 $4 #
transform $-1 1 0 0 0 1 0 0 0 1 51.764275032807397 36.162007217428638 15.654826153750633 1 rotate no_reflect no_shear #
lump $-1 $-1 $26 $5 #
transform $-1 1 0 0 0 1 0 0 0 1 51.764275032807397 36.162007217428638 15.654826153750633 1 rotate no_reflect no_shear #
lump $-1 $-1 $27 $6 #
transform $-1 1 0 0 0 1 0 0 0 1 51.764275032807397 36.162007217428638 15.654826153750633 1 rotate no_reflect no_shear #
shell $-1 $-1 $-1 $28 $-1 $7 #
shell $-1 $-1 $-1 $29 $-1 $9 #
shell $-1 $-1 $-1 $30 $-1 $11 #
shell $-1 $-1 $-1 $31 $-1 $13 #
shell $-1 $-1 $-1 $32 $-1 $15 #
shell $-1 $-1 $-1 $33 $-1 $17 #
shell $-1 $-1 $-1 $34 $-1 $19 #
face $-1 $35 $36 $21 $-1 $37 forward single #
face $-1 $38 $39 $22 $-1 $40 reversed single #
face $-1 $41 $42 $23 $-1 $43 forward single #
face $-1 $44 $45 $24 $-1 $46 forward single #
face $-1 $47 $48 $25 $-1 $49 reversed single #
face $-1 $50 $51 $26 $-1 $52 forward single #
face $-1 $53 $54 $27 $-1 $55 forward single #
face $-1 $56 $57 $21 $-1 $58 reversed single #
loop $-1 $-1 $59 $28 #
plane-surface $-1 0 0 15.654826153750633 0 0 1 1 0 0 forward_v I I I I #
face $-1 $60 $61 $22 $-1 $62 reversed single #
loop $-1 $-1 $63 $29 #
plane-surface $-1 -105.08542086612829 -15.585629771642637 97.944972857536186 0 -1 0 0.51503808176128008 0 -0.85716729658548041 forward_v I I I I #
face $-1 $64 $65 $23 $-1 $66 forward single #
loop $-1 $67 $68 $30 #
cone-surface $-1 -45.071027949706831 -30.283042232918351 10.224091119868248 0.51503808176128008 0 -0.85716729658548041 1.2857509448782207 0 0.77255712264192011 1 I I 0 1 1.5 forward I I I I #
face $-1 $69 $70 $24 $-1 $71 forward single #
loop $-1 $72 $73 $31 #
cone-surface $-1 -45.071027949706831 -21.464594756152923 10.224091119868248 0.51503808176128008 0 -0.85716729658548041 1.2857509448782207 0 0.77255712264192011 1 I I 0 1 1.5 forward I I I I #
face $-1 $74 $75 $25 $-1 $76 reversed single #
loop $-1 $-1 $77 $32 #
plane-surface $-1 -36.977012346350193 -25.873818494535637 62.524831311699501 0.51503808176128008 0 0.85716729658548041 0.85716729658548041 0 -0.51503808176128008 forward_v I I I I #
face $-1 $78 $79 $26 $-1 $80 forward single #
loop $-1 $81 $82 $33 #
cone-surface $-1 45.071027949706838 -30.283042232918351 10.224091119868248 -0.51503808176128008 0 -0.85716729658548041 1.2857509448782207 0 -0.77255712264192011 1 I I 0 1 1.5 forward I I I I #
face $-1 $83 $84 $27 $-1 $85 forward single #
loop $-1 $86 $87 $34 #
cone-surface $-1 45.071027949706838 -21.464594756152923 10.224091119868248 -0.51503808176128008 0 -0.85716729658548041 1.2857509448782207 0 -0.77255712264192011 1 I I 0 1 1.5 forward I I I I #
face $-1 $88 $89 $21 $-1 $90 reversed single #
loop $-1 $-1 $91 $35 #
plane-surface $-1 0 0 -15.654826153750633 0 0 1 1 0 0 forward_v I I I I #
coedge $-1 $92 $93 $94 $95 forward $36 $-1 #
face $-1 $96 $97 $22 $-1 $98 forward single #
loop $-1 $-1 $99 $38 #
plane-surface $-1 -51.764275032807397 -25.873818494535637 9.2036854783785884 -0.51503808176128008 0 0.85716729658548041 0.85716729658548041 0 0.51503808176128008 forward_v I I I I #
coedge $-1 $100 $101 $102 $103 reversed $39 $-1 #
face $-1 $-1 $104 $23 $-1 $105 forward single #
loop $-1 $106 $107 $41 #
cone-surface $-1 -43.359752739982582 -30.283042232918351 7.3760509512327772 0.51503808176128008 0 -0.85716729658548041 0.64287547243911036 0 0.38627856132096006 1 I I -0.70710678118654757 0.70710678118654757 0.75 forward I I I I #
loop $-1 $-1 $108 $30 #
coedge $-1 $68 $68 $109 $110 reversed $42 $-1 #
face $-1 $-1 $111 $24 $-1 $112 forward single #
loop $-1 $113 $114 $44 #
cone-surface $-1 -43.359752739982582 -21.464594756152923 7.3760509512327772 0.51503808176128008 0 -0.85716729658548041 0.64287547243911036 0 0.38627856132096006 1 I I -0.70710678118654757 0.70710678118654757 0.75 forward I I I I #
loop $-1 $-1 $115 $31 #
coedge $-1 $73 $73 $116 $117 reversed $45 $-1 #
face $-1 $118 $119 $25 $-1 $120 forward single #
loop $-1 $-1 $121 $47 #
plane-surface $-1 16.344133486970698 -15.585629771642637 151.2661186908571 0 -1 0 -0.51503808176128008 0 -0.85716729658548041 forward_v I I I I #
coedge $-1 $122 $123 $124 $125 reversed $48 $-1 #
face $-1 $-1 $126 $26 $-1 $127 forward single #
loop $-1 $128 $129 $50 #
cone-surface $-1 43.359752739982589 -30.283042232918351 7.3760509512327772 -0.51503808176128008 0 -0.85716729658548041 0.64287547243911036 0 -0.38627856132096006 1 I I -0.70710678118654757 0.70710678118654757 0.75 forward I I I I #
loop $-1 $-1 $130 $33 #
coedge $-1 $82 $82 $131 $132 reversed $51 $-1 #
face $-1 $-1 $133 $27 $-1 $134 forward single #
loop $-1 $135 $136 $53 #
cone-surface $-1 43.359752739982589 -21.464594756152923 7.3760509512327772 -0.51503808176128008 0 -0.85716729658548041 0.64287547243911036 0 -0.38627856132096006 1 I I -0.70710678118654757 0.70710678118654757 0.75 forward I I I I #
loop $-1 $-1 $137 $34 #
coedge $-1 $87 $87 $138 $139 reversed $54 $-1 #
face $-1 $140 $141 $21 $-1 $142 reversed single #
loop $-1 $-1 $143 $56 #
plane-surface $-1 0 -36.162007217428638 0 0 1 0 0 0 1 forward_v I I I I #
coedge $-1 $144 $145 $146 $147 forward $57 $-1 #
coedge $-1 $148 $59 $149 $150 forward $36 $-1 #
coedge $-1 $59 $148 $151 $152 forward $36 $-1 #
coedge $-1 $153 $154 $59 $95 reversed $155 $-1 #
edge $-1 $156 -36.162007217428638 $157 36.162007217428638 $94 $158 forward 7 unknown #
face $-1 $159 $160 $22 $-1 $161 reversed single #
loop $-1 $-1 $162 $60 #
plane-surface $-1 0 0 15.654826153750633 0 0 1 1 0 0 forward_v I I I I #
coedge $-1 $163 $164 $165 $166 reversed $61 $-1 #
coedge $-1 $101 $63 $167 $168 reversed $39 $-1 #
coedge $-1 $63 $100 $163 $169 reversed $39 $-1 #
coedge $-1 $165 $170 $63 $103 forward $160 $-1 #
edge $-1 $171 33.31766027501746 $172 39.768800950389505 $102 $173 forward 7 unknown #
loop $-1 $-1 $109 $64 #
plane-surface $-1 -51.764275032807397 -25.873818494535637 9.2036854783785884 -0.51503808176128008 0 0.85716729658548041 0.85716729658548041 0 0.51503808176128008 forward_v I I I I #
loop $-1 $-1 $174 $41 #
coedge $-1 $107 $107 $108 $175 reversed $65 $-1 #
coedge $-1 $108 $108 $107 $175 forward $67 $-1 #
coedge $-1 $109 $109 $68 $110 forward $104 $-1 #
edge $-1 $176 0 $176 6.2831853071796004 $109 $177 forward 7 unknown #
loop $-1 $-1 $116 $69 #
plane-surface $-1 -51.764275032807397 -25.873818494535637 9.2036854783785884 -0.51503808176128008 0 0.85716729658548041 0.85716729658548041 0 0.51503808176128008 forward_v I I I I #
loop $-1 $-1 $178 $44 #
coedge $-1 $114 $114 $115 $179 reversed $70 $-1 #
coedge $-1 $115 $115 $114 $179 forward $72 $-1 #
coedge $-1 $116 $116 $73 $117 forward $111 $-1 #
edge $-1 $180 0 $180 6.2831853071796004 $116 $181 forward 7 unknown #
face $-1 $182 $183 $25 $-1 $184 reversed single #
loop $-1 $-1 $185 $74 #
plane-surface $-1 0 0 15.654826153750633 0 0 1 1 0 0 forward_v I I I I #
coedge $-1 $186 $187 $188 $189 reversed $75 $-1 #
coedge $-1 $190 $77 $191 $192 reversed $48 $-1 #
coedge $-1 $77 $190 $186 $193 forward $48 $-1 #
coedge $-1 $188 $194 $77 $125 forward $195 $-1 #
edge $-1 $196 -23.225097970160817 $197 -2.6487205243748182 $124 $198 forward 7 unknown #
loop $-1 $-1 $131 $78 #
plane-surface $-1 -36.977012346350193 -25.873818494535637 62.524831311699501 0.51503808176128008 0 0.85716729658548041 0.85716729658548041 0 -0.51503808176128008 forward_v I I I I #
loop $-1 $-1 $199 $50 #
coedge $-1 $129 $129 $130 $200 reversed $79 $-1 #
coedge $-1 $130 $130 $129 $200 forward $81 $-1 #
coedge $-1 $131 $131 $82 $132 forward $126 $-1 #
edge $-1 $201 0 $201 6.2831853071796004 $131 $202 forward 7 unknown #
loop $-1 $-1 $138 $83 #
plane-surface $-1 -36.977012346350193 -25.873818494535637 62.524831311699501 0.51503808176128008 0 0.85716729658548041 0.85716729658548041 0 -0.51503808176128008 forward_v I I I I #
loop $-1 $-1 $203 $53 #
coedge $-1 $136 $136 $137 $204 reversed $84 $-1 #
coedge $-1 $137 $137 $136 $204 forward $86 $-1 #
coedge $-1 $138 $138 $87 $139 forward $133 $-1 #
edge $-1 $205 0 $205 6.2831853071796004 $138 $206 forward 7 unknown #
face $-1 $207 $208 $21 $-1 $209 reversed single #
loop $-1 $-1 $210 $88 #
plane-surface $-1 -51.764275032807397 0 0 1 0 0 0 0 -1 forward_v I I I I #
coedge $-1 $211 $151 $212 $213 forward $89 $-1 #
coedge $-1 $214 $91 $211 $215 forward $57 $-1 #
coedge $-1 $91 $214 $216 $217 forward $57 $-1 #
coedge $-1 $154 $153 $91 $147 reversed $155 $-1 #
edge $-1 $218 -36.162007217428638 $219 36.162007217428638 $146 $220 forward 7 unknown #
coedge $-1 $93 $92 $221 $222 forward $36 $-1 #
coedge $-1 $223 $224 $92 $150 reversed $208 $-1 #
edge $-1 $157 -51.764275032807397 $225 51.764275032807397 $149 $226 forward 7 unknown #
coedge $-1 $143 $227 $93 $152 reversed $89 $-1 #
edge $-1 $228 -51.764275032807397 $156 51.764275032807397 $151 $229 forward 7 unknown #
coedge $-1 $146 $94 $227 $230 forward $155 $-1 #
coedge $-1 $94 $146 $223 $231 reversed $155 $-1 #
loop $-1 $-1 $153 $207 #
vertex $-1 $95 $232 #
vertex $-1 $95 $233 #
straight-curve $-1 51.764275032807397 0 15.654826153750633 0 1 0 I I #
face $-1 $-1 $234 $22 $-1 $235 reversed single #
loop $-1 $-1 $102 $96 #
plane-surface $-1 -51.764275032807397 0 0 1 0 0 0 0 -1 forward_v I I I I #
coedge $-1 $167 $236 $237 $238 forward $97 $-1 #
coedge $-1 $237 $99 $101 $169 forward $61 $-1 #
coedge $-1 $99 $237 $239 $240 reversed $61 $-1 #
coedge $-1 $241 $102 $99 $166 forward $160 $-1 #
edge $-1 $172 2.6487205243748182 $242 23.225097970160817 $165 $243 forward 7 unknown #
coedge $-1 $244 $162 $100 $168 forward $97 $-1 #
edge $-1 $245 -11.514936269651301 $171 -0.77843540025674685 $167 $246 forward 7 unknown #
edge $-1 $172 0 $245 12.525560543622378 $101 $247 forward 7 unknown #
coedge $-1 $102 $241 $244 $248 reversed $160 $-1 #
vertex $-1 $248 $249 #
vertex $-1 $103 $250 #
straight-curve $-1 -51.764275032807397 -15.585629771642637 48.972486428768093 0 0 -1 I I #
coedge $-1 $174 $174 $-1 $251 reversed $106 $-1 #
edge $-1 $252 0 $252 6.2831853071796004 $107 $253 forward 7 unknown #
vertex $-1 $110 $254 #
ellipse-curve $-1 -46.396024598110124 -30.283042232918351 12.429255816064611 -0.51503808176128008 0 0.85716729658548041 1.2857509448782207 0 0.77255712264192011 1 I I #
coedge $-1 $178 $178 $-1 $255 reversed $113 $-1 #
edge $-1 $256 0 $256 6.2831853071796004 $114 $257 forward 7 unknown #
vertex $-1 $117 $258 #
ellipse-curve $-1 -46.396024598110124 -21.464594756152923 12.429255816064611 -0.51503808176128008 0 0.85716729658548041 1.2857509448782207 0 0.77255712264192011 1 I I #
face $-1 $-1 $195 $25 $-1 $259 reversed single #
loop $-1 $-1 $191 $118 #
plane-surface $-1 0 -36.162007217428638 0 0 1 0 0 0 1 forward_v I I I I #
coedge $-1 $260 $261 $187 $262 forward $119 $-1 #
coedge $-1 $187 $121 $123 $193 reversed $75 $-1 #
coedge $-1 $121 $186 $185 $262 reversed $75 $-1 #
coedge $-1 $263 $124 $121 $189 forward $195 $-1 #
edge $-1 $197 -66.429373867049947 $264 -59.978233191677916 $188 $265 forward 7 unknown #
coedge $-1 $123 $122 $260 $266 reversed $48 $-1 #
coedge $-1 $267 $268 $122 $192 forward $183 $-1 #
edge $-1 $269 59.053912077015326 $196 71.579472620637659 $191 $270 forward 7 unknown #
edge $-1 $271 91.002989521992461 $197 103.52855006561478 $186 $272 forward 7 unknown #
coedge $-1 $124 $263 $267 $273 forward $195 $-1 #
loop $-1 $-1 $188 $182 #
vertex $-1 $192 $274 #
vertex $-1 $125 $275 #
straight-curve $-1 51.764275032807397 -12.936909247267819 9.2036854783786133 0 1 0 I I #
coedge $-1 $199 $199 $-1 $276 reversed $128 $-1 #
edge $-1 $277 0 $277 6.2831853071796004 $129 $278 forward 7 unknown #
vertex $-1 $132 $279 #
ellipse-curve $-1 46.396024598110138 -30.283042232918351 12.429255816064629 0.51503808176128008 0 0.85716729658548041 1.2857509448782207 0 -0.77255712264192011 1 I I #
coedge $-1 $203 $203 $-1 $280 reversed $135 $-1 #
edge $-1 $281 0 $281 6.2831853071796004 $136 $282 forward 7 unknown #
vertex $-1 $139 $283 #
ellipse-curve $-1 46.396024598110138 -21.464594756152923 12.429255816064629 0.51503808176128008 0 0.85716729658548041 1.2857509448782207 0 -0.77255712264192011 1 I I #
face $-1 $-1 $155 $21 $-1 $284 reversed single #
loop $-1 $-1 $223 $140 #
plane-surface $-1 0 36.162007217428638 0 0 -1 0 0 0 -1 forward_v I I I I #
coedge $-1 $285 $221 $224 $286 forward $141 $-1 #
coedge $-1 $227 $143 $144 $215 reversed $89 $-1 #
coedge $-1 $221 $285 $143 $213 reversed $141 $-1 #
edge $-1 $228 -15.654826153750633 $287 15.654826153750633 $212 $288 forward 7 unknown #
coedge $-1 $145 $144 $285 $289 forward $57 $-1 #
edge $-1 $219 -51.764275032807397 $287 51.764275032807397 $211 $290 forward 7 unknown #
coedge $-1 $224 $223 $145 $217 reversed $208 $-1 #
edge $-1 $291 -51.764275032807397 $218 51.764275032807397 $216 $292 forward 7 unknown #
vertex $-1 $147 $293 #
vertex $-1 $230 $294 #
straight-curve $-1 51.764275032807397 0 -15.654826153750633 0 -1 0 I I #
coedge $-1 $210 $212 $148 $222 reversed $141 $-1 #
edge $-1 $225 -36.162007217428638 $228 36.162007217428638 $221 $295 forward 7 unknown #
coedge $-1 $216 $149 $154 $231 forward $208 $-1 #
coedge $-1 $149 $216 $210 $286 reversed $208 $-1 #
vertex $-1 $150 $296 #
straight-curve $-1 0 36.162007217428638 15.654826153750633 -1 0 0 I I #
coedge $-1 $151 $211 $153 $230 reversed $89 $-1 #
vertex $-1 $222 $297 #
straight-curve $-1 0 -36.162007217428638 15.654826153750633 1 0 0 I I #
edge $-1 $156 -15.654826153750633 $219 15.654826153750633 $153 $298 forward 7 unknown #
edge $-1 $157 -15.654826153750633 $218 15.654826153750633 $154 $299 forward 7 unknown #
point $-1 51.764275032807397 -36.162007217428638 15.654826153750633 #
point $-1 51.764275032807397 36.162007217428638 15.654826153750633 #
loop $-1 $-1 $239 $159 #
plane-surface $-1 0 -36.162007217428638 0 0 1 0 0 0 1 forward_v I I I I #
coedge $-1 $162 $244 $300 $301 forward $97 $-1 #
coedge $-1 $164 $163 $162 $238 reversed $61 $-1 #
edge $-1 $302 -23.225097970160817 $245 -2.6487205243748182 $162 $303 forward 7 unknown #
coedge $-1 $300 $304 $164 $240 forward $234 $-1 #
edge $-1 $242 -19.815197587830269 $302 -7.2896370442078915 $239 $305 forward 7 unknown #
coedge $-1 $170 $165 $304 $306 reversed $160 $-1 #
vertex $-1 $166 $307 #
straight-curve $-1 -51.764275032807397 -12.936909247267819 9.2036854783785884 0 -1 0 I I #
coedge $-1 $236 $167 $170 $248 forward $97 $-1 #
vertex $-1 $168 $308 #
straight-curve $-1 -52.542710433064144 -15.585629771642637 15.654826153750633 -1 0 0 I I #
straight-curve $-1 -51.764275032807397 -15.585629771642637 9.2036854783785884 0.85716729658548041 0 0.51503808176128008 I I #
edge $-1 $171 15.585629771642637 $309 36.162007217428638 $170 $310 forward 7 unknown #
point $-1 -51.764275032807397 -15.585629771642637 15.654826153750633 #
point $-1 -51.764275032807397 -15.585629771642637 9.2036854783785884 #
edge $-1 $311 1 $311 0 $174 $-1 forward 7 unknown #
vertex $-1 $175 $312 #
ellipse-curve $-1 -43.746031301303539 -30.283042232918351 8.0189264236718873 -0.51503808176128008 0 0.85716729658548041 1.2857509448782207 0 0.77255712264192011 1 I I #
point $-1 -45.1102736532319 -30.283042232918351 13.201812938706533 #
edge $-1 $313 1 $313 0 $178 $-1 forward 7 unknown #
vertex $-1 $179 $314 #
ellipse-curve $-1 -43.746031301303539 -21.464594756152923 8.0189264236718873 -0.51503808176128008 0 0.85716729658548041 1.2857509448782207 0 0.77255712264192011 1 I I #
point $-1 -45.1102736532319 -21.464594756152923 13.201812938706533 #
plane-surface $-1 51.764275032807397 0 0 -1 0 0 0 0 1 forward_v I I I I #
coedge $-1 $315 $185 $190 $266 forward $119 $-1 #
coedge $-1 $185 $315 $263 $316 forward $119 $-1 #
edge $-1 $264 -43.592208289322045 $271 -32.855707419927541 $185 $317 forward 7 unknown #
coedge $-1 $194 $188 $261 $316 reversed $195 $-1 #
vertex $-1 $262 $318 #
straight-curve $-1 51.764275032807397 -15.585629771642637 75.633059345428549 0 0 1 I I #
edge $-1 $271 2.6487205243748182 $269 23.225097970160817 $260 $319 forward 7 unknown #
coedge $-1 $268 $191 $194 $273 reversed $183 $-1 #
coedge $-1 $191 $267 $315 $320 reversed $183 $-1 #
vertex $-1 $320 $321 #
straight-curve $-1 -9.5913080044389982 -36.162007217428638 46.0698397503959 0.85716729658548041 0 -0.51503808176128008 I I #
vertex $-1 $266 $322 #
straight-curve $-1 -36.977012346350193 -15.585629771642637 62.524831311699501 0.85716729658548041 0 -0.51503808176128008 I I #
edge $-1 $323 -15.654826153750633 $196 -9.203685478378608 $194 $324 forward 7 unknown #
point $-1 51.764275032807397 -36.162007217428638 9.203685478378608 #
point $-1 51.764275032807404 -15.585629771642637 9.2036854783786097 #
edge $-1 $325 1 $325 0 $199 $-1 forward 7 unknown #
vertex $-1 $200 $326 #
ellipse-curve $-1 43.746031301303546 -30.283042232918351 8.0189264236718873 0.51503808176128008 0 0.85716729658548041 1.2857509448782207 0 -0.77255712264192011 1 I I #
point $-1 47.681775542988348 -30.283042232918351 11.656698693422692 #
edge $-1 $327 1 $327 0 $203 $-1 forward 7 unknown #
vertex $-1 $204 $328 #
ellipse-curve $-1 43.746031301303546 -21.464594756152923 8.0189264236718873 0.51503808176128008 0 0.85716729658548041 1.2857509448782207 0 -0.77255712264192011 1 I I #
point $-1 47.681775542988348 -21.464594756152923 11.656698693422692 #
plane-surface $-1 51.764275032807397 0 0 -1 0 0 0 0 1 forward_v I I I I #
coedge $-1 $212 $210 $214 $289 reversed $141 $-1 #
edge $-1 $225 -15.654826153750633 $291 15.654826153750633 $224 $329 forward 7 unknown #
vertex $-1 $289 $330 #
straight-curve $-1 -51.764275032807397 -36.162007217428638 0 0 0 -1 I I #
edge $-1 $287 -36.162007217428638 $291 36.162007217428638 $285 $331 forward 7 unknown #
straight-curve $-1 0 -36.162007217428638 -15.654826153750633 -1 0 0 I I #
vertex $-1 $217 $332 #
straight-curve $-1 0 36.162007217428638 -15.654826153750633 1 0 0 I I #
point $-1 51.764275032807397 36.162007217428638 -15.654826153750633 #
point $-1 51.764275032807397 -36.162007217428638 -15.654826153750633 #
straight-curve $-1 -51.764275032807397 0 15.654826153750633 0 -1 0 I I #
point $-1 -51.764275032807397 36.162007217428638 15.654826153750633 #
point $-1 -51.764275032807397 -36.162007217428638 15.654826153750633 #
straight-curve $-1 51.764275032807397 -36.162007217428638 0 0 0 -1 I I #
straight-curve $-1 51.764275032807397 36.162007217428638 0 0 0 -1 I I #
coedge $-1 $304 $239 $236 $301 reversed $234 $-1 #
edge $-1 $309 -51.764275032807397 $302 -41.027774163412843 $300 $333 forward 7 unknown #
vertex $-1 $240 $334 #
straight-curve $-1 -41.027774163412843 -12.936909247267819 15.654826153750633 0 1 0 I I #
coedge $-1 $239 $300 $241 $306 forward $234 $-1 #
straight-curve $-1 -34.779335685139792 -36.162007217428638 19.409266833735433 0.85716729658548041 0 0.51503808176128008 I I #
edge $-1 $309 -15.654826153750633 $242 -9.2036854783785884 $241 $335 forward 7 unknown #
point $-1 -51.764275032807397 -36.162007217428638 9.2036854783785884 #
point $-1 -41.027774163412843 -15.585629771642637 15.654826153750633 #
vertex $-1 $248 $336 #
straight-curve $-1 -51.764275032807397 0 15.654826153750633 0 -1 0 I I #
vertex $-1 $251 $337 #
point $-1 -42.460280356425322 -30.283042232918351 8.7914835463138079 #
vertex $-1 $255 $338 #
point $-1 -42.460280356425322 -21.464594756152923 8.7914835463138079 #
coedge $-1 $261 $260 $268 $320 forward $119 $-1 #
edge $-1 $323 -36.162007217428638 $264 -15.585629771642637 $263 $339 forward 7 unknown #
straight-curve $-1 8.1720667434853489 -15.585629771642637 15.654826153750633 -1 0 0 I I #
point $-1 51.764275032807397 -15.585629771642637 15.654826153750633 #
straight-curve $-1 41.027774163412893 -12.936909247267819 15.654826153750633 0 -1 0 I I #
edge $-1 $269 41.027774163412886 $323 51.764275032807397 $268 $340 forward 7 unknown #
point $-1 41.027774163412886 -36.162007217428638 15.654826153750633 #
point $-1 41.027774163412886 -15.585629771642637 15.654826153750633 #
vertex $-1 $316 $341 #
straight-curve $-1 51.764275032807397 -36.162007217428638 0 0 0 -1 I I #
vertex $-1 $276 $342 #
point $-1 45.03178224618177 -30.283042232918351 7.2463693010299677 #
vertex $-1 $280 $343 #
point $-1 45.03178224618177 -21.464594756152923 7.2463693010299677 #
straight-curve $-1 -51.764275032807397 36.162007217428638 0 0 0 -1 I I #
point $-1 -51.764275032807397 -36.162007217428638 -15.654826153750633 #
straight-curve $-1 -51.764275032807397 0 -15.654826153750633 0 1 0 I I #
point $-1 -51.764275032807397 36.162007217428638 -15.654826153750633 #
straight-curve $-1 0 -36.162007217428638 15.654826153750633 1 0 0 I I #
point $-1 -41.027774163412843 -36.162007217428638 15.654826153750633 #
straight-curve $-1 -51.764275032807397 -36.162007217428638 0 0 0 -1 I I #
point $-1 -51.764275032807397 -36.162007217428638 15.654826153750633 #
point $-1 -42.973474178661625 -30.283042232918351 6.7331754787936671 #
point $-1 -42.973474178661625 -21.464594756152923 6.7331754787936671 #
straight-curve $-1 51.764275032807397 0 15.654826153750633 0 1 0 I I #
straight-curve $-1 0 -36.162007217428638 15.654826153750633 1 0 0 I I #
point $-1 51.764275032807397 -36.162007217428638 15.654826153750633 #
point $-1 42.973474178661633 -30.283042232918351 6.7331754787936671 #
point $-1 42.973474178661633 -21.464594756152923 6.7331754787936671 #
End-of-ACIS-data 