500 0 10 0           
7 Unknown 11 ACIS 5.0 NT 24 Thu Mar 25 15:31:33 1999 
-1 9.9999999999999995e-007 1e-010 
body $-1 $10 $-1 $11 #
body $-1 $12 $-1 $13 #
body $-1 $14 $-1 $15 #
body $-1 $16 $-1 $17 #
body $-1 $18 $-1 $19 #
body $-1 $20 $-1 $21 #
body $-1 $22 $-1 $23 #
body $-1 $24 $-1 $25 #
body $-1 $26 $-1 $27 #
body $-1 $28 $-1 $29 #
lump $-1 $-1 $30 $0 #
transform $-1 1 0 0 0 1 0 0 0 1 44.719382305368207 30.711530868127422 8.1915536204492341 1 rotate no_reflect no_shear #
lump $-1 $-1 $31 $1 #
transform $-1 1 0 0 0 1 0 0 0 1 44.719382305368207 30.711530868127422 8.1915536204492341 1 rotate no_reflect no_shear #
lump $-1 $-1 $32 $2 #
transform $-1 1 0 0 0 1 0 0 0 1 44.719382305368207 30.711530868127422 8.1915536204492341 1 rotate no_reflect no_shear #
lump $-1 $-1 $33 $3 #
transform $-1 1 0 0 0 1 0 0 0 1 44.719382305368207 30.711530868127422 8.1915536204492341 1 rotate no_reflect no_shear #
lump $-1 $-1 $34 $4 #
transform $-1 1 0 0 0 1 0 0 0 1 44.719382305368207 30.711530868127422 8.1915536204492341 1 rotate no_reflect no_shear #
lump $-1 $-1 $35 $5 #
transform $-1 1 0 0 0 1 0 0 0 1 44.719382305368207 30.711530868127422 8.1915536204492341 1 rotate no_reflect no_shear #
lump $-1 $-1 $36 $6 #
transform $-1 1 0 0 0 1 0 0 0 1 44.719382305368207 30.711530868127422 8.1915536204492341 1 rotate no_reflect no_shear #
lump $-1 $-1 $37 $7 #
transform $-1 1 0 0 0 1 0 0 0 1 44.719382305368207 30.711530868127422 8.1915536204492341 1 rotate no_reflect no_shear #
lump $-1 $-1 $38 $8 #
transform $-1 1 0 0 0 1 0 0 0 1 44.719382305368207 30.711530868127422 8.1915536204492341 1 rotate no_reflect no_shear #
lump $-1 $-1 $39 $9 #
transform $-1 1 0 0 0 1 0 0 0 1 44.719382305368207 30.711530868127422 8.1915536204492341 1 rotate no_reflect no_shear #
shell $-1 $-1 $-1 $40 $-1 $10 #
shell $-1 $-1 $-1 $41 $-1 $12 #
shell $-1 $-1 $-1 $42 $-1 $14 #
shell $-1 $-1 $-1 $43 $-1 $16 #
shell $-1 $-1 $-1 $44 $-1 $18 #
shell $-1 $-1 $-1 $45 $-1 $20 #
shell $-1 $-1 $-1 $46 $-1 $22 #
shell $-1 $-1 $-1 $47 $-1 $24 #
shell $-1 $-1 $-1 $48 $-1 $26 #
shell $-1 $-1 $-1 $49 $-1 $28 #
face $-1 $50 $51 $30 $-1 $52 forward single #
face $-1 $53 $54 $31 $-1 $55 reversed single #
face $-1 $56 $57 $32 $-1 $58 reversed single #
face $-1 $59 $60 $33 $-1 $61 forward single #
face $-1 $62 $63 $34 $-1 $64 forward single #
face $-1 $65 $66 $35 $-1 $67 forward single #
face $-1 $68 $69 $36 $-1 $70 reversed single #
face $-1 $71 $72 $37 $-1 $73 forward single #
face $-1 $74 $75 $38 $-1 $76 reversed single #
face $-1 $77 $78 $39 $-1 $79 forward single #
face $-1 $80 $81 $30 $-1 $82 reversed single #
loop $-1 $-1 $83 $40 #
plane-surface $-1 0 0 8.1915536204492341 0 0 1 1 0 0 forward_v I I I I #
face $-1 $84 $85 $31 $-1 $86 reversed single #
loop $-1 $-1 $87 $41 #
plane-surface $-1 0 -26.67193271110839 5.1915536204492341 0 0 1 1 0 0 forward_v I I I I #
face $-1 $88 $89 $32 $-1 $90 reversed single #
loop $-1 $-1 $91 $42 #
plane-surface $-1 -98.544975181692678 -19.354330333102499 72.875040871405048 0 1 0 -0.6018150307709319 0 0.79863550430605224 forward_v I I I I #
face $-1 $92 $93 $33 $-1 $94 forward single #
loop $-1 $95 $96 $43 #
cone-surface $-1 -39.67306921440133 -16.936867623939619 4.061688895555374 0.6018150307709319 0 -0.79863550430605224 0.39931775215302612 0 0.30090751538546595 1 I I 0 1 0.5 forward I I I I #
face $-1 $97 $98 $34 $-1 $99 forward single #
loop $-1 $100 $101 $44 #
cone-surface $-1 -39.67306921440133 -13.310673560195294 4.061688895555374 0.6018150307709319 0 -0.79863550430605224 0.39931775215302612 0 0.30090751538546595 1 I I 0 1 0.5 forward I I I I #
face $-1 $102 $103 $35 $-1 $104 forward single #
loop $-1 $105 $106 $45 #
cone-surface $-1 -39.67306921440133 -9.6844794964509724 4.061688895555374 0.6018150307709319 0 -0.79863550430605224 0.39931775215302612 0 0.30090751538546595 1 I I 0 1 0.5 forward I I I I #
face $-1 $107 $108 $36 $-1 $109 reversed single #
loop $-1 $-1 $110 $46 #
plane-surface $-1 79.583516822175 0.34657515382268755 125.97315741141259 0 -1 0 -0.87461971476443456 0 -0.48480960649040278 forward_v I I I I #
face $-1 $111 $112 $37 $-1 $113 forward single #
loop $-1 $114 $115 $47 #
cone-surface $-1 43.201090409716642 -4.4289270643456682 6.032330307460275 -0.87461971476443456 0 -0.48480960649040278 0.48480960649040278 0 -0.87461971476443456 1 I I 0 1 1 forward I I I I #
face $-1 $116 $117 $38 $-1 $118 reversed single #
loop $-1 $-1 $119 $48 #
plane-surface $-1 79.583516822175 17.283625596552088 125.97315741141259 0 -1 0 -0.87461971476443456 0 -0.48480960649040278 forward_v I I I I #
face $-1 $120 $121 $39 $-1 $122 forward single #
loop $-1 $123 $124 $49 #
cone-surface $-1 43.201090409716642 12.508123378383733 6.032330307460275 -0.87461971476443456 0 -0.48480960649040278 0.48480960649040278 0 -0.87461971476443456 1 I I 0 1 1 forward I I I I #
face $-1 $125 $126 $30 $-1 $127 reversed single #
loop $-1 $-1 $128 $50 #
plane-surface $-1 0 0 -8.1915536204492341 0 0 1 1 0 0 forward_v I I I I #
coedge $-1 $129 $130 $131 $132 forward $51 $-1 #
face $-1 $133 $134 $31 $-1 $135 reversed single #
loop $-1 $-1 $136 $53 #
plane-surface $-1 0 -22.632334554089354 6.6915536204492341 0 -1 0 0 0 -1 forward_v I I I I #
coedge $-1 $137 $138 $139 $140 reversed $54 $-1 #
face $-1 $141 $142 $32 $-1 $143 reversed single #
loop $-1 $-1 $144 $56 #
plane-surface $-1 -44.719382305368207 -13.310673560195294 1.4460679919992714 -0.6018150307709319 0 0.79863550430605224 0.79863550430605224 0 0.6018150307709319 forward_v I I I I #
coedge $-1 $145 $146 $147 $148 reversed $57 $-1 #
face $-1 $-1 $149 $33 $-1 $150 forward single #
loop $-1 $151 $152 $59 #
cone-surface $-1 -38.952083163178202 -16.936867623939619 3.1049081088099832 0.6018150307709319 0 -0.79863550430605224 0.19965887607651306 0 0.15045375769273298 1 I I -0.70710678118654746 0.70710678118654746 0.25 forward I I I I #
loop $-1 $-1 $153 $43 #
coedge $-1 $96 $96 $154 $155 reversed $60 $-1 #
face $-1 $-1 $156 $34 $-1 $157 forward single #
loop $-1 $158 $159 $62 #
cone-surface $-1 -38.952083163178202 -13.310673560195294 3.1049081088099832 0.6018150307709319 0 -0.79863550430605224 0.19965887607651306 0 0.15045375769273298 1 I I -0.70710678118654746 0.70710678118654746 0.25 forward I I I I #
loop $-1 $-1 $160 $44 #
coedge $-1 $101 $101 $161 $162 reversed $63 $-1 #
face $-1 $-1 $163 $35 $-1 $164 forward single #
loop $-1 $165 $166 $65 #
cone-surface $-1 -38.952083163178202 -9.6844794964509724 3.1049081088099832 0.6018150307709319 0 -0.79863550430605224 0.19965887607651306 0 0.15045375769273298 1 I I -0.70710678118654746 0.70710678118654746 0.25 forward I I I I #
loop $-1 $-1 $167 $45 #
coedge $-1 $106 $106 $168 $169 reversed $66 $-1 #
face $-1 $170 $171 $36 $-1 $172 reversed single #
loop $-1 $-1 $173 $68 #
plane-surface $-1 1.3586100294493093 -4.4289270643456682 82.612385135493696 0.87461971476443456 0 0.48480960649040278 0.48480960649040278 0 -0.87461971476443456 forward_v I I I I #
coedge $-1 $174 $175 $176 $177 reversed $69 $-1 #
face $-1 $-1 $178 $37 $-1 $179 forward single #
loop $-1 $180 $181 $71 #
cone-surface $-1 42.299805296989327 -4.4289270643456682 5.5327398300667099 -0.87461971476443456 0 -0.48480960649040278 0.24240480324520139 0 -0.43730985738221728 1 I I -0.70710678118654746 0.70710678118654746 0.5 forward I I I I #
loop $-1 $-1 $182 $47 #
coedge $-1 $115 $115 $183 $184 reversed $72 $-1 #
face $-1 $185 $186 $38 $-1 $187 reversed single #
loop $-1 $-1 $188 $74 #
plane-surface $-1 1.3586100294493093 12.508123378383733 82.612385135493696 0.87461971476443456 0 0.48480960649040278 0.48480960649040278 0 -0.87461971476443456 forward_v I I I I #
coedge $-1 $189 $190 $191 $192 reversed $75 $-1 #
face $-1 $-1 $193 $39 $-1 $194 forward single #
loop $-1 $195 $196 $77 #
cone-surface $-1 42.299805296989327 12.508123378383733 5.5327398300667099 -0.87461971476443456 0 -0.48480960649040278 0.24240480324520139 0 -0.43730985738221728 1 I I -0.70710678118654746 0.70710678118654746 0.5 forward I I I I #
loop $-1 $-1 $197 $49 #
coedge $-1 $124 $124 $198 $199 reversed $78 $-1 #
face $-1 $200 $201 $30 $-1 $202 reversed single #
loop $-1 $-1 $203 $80 #
plane-surface $-1 0 -30.711530868127422 0 0 1 0 0 0 1 forward_v I I I I #
coedge $-1 $204 $205 $206 $207 forward $81 $-1 #
coedge $-1 $208 $83 $209 $210 forward $51 $-1 #
coedge $-1 $83 $208 $211 $212 forward $51 $-1 #
coedge $-1 $213 $214 $83 $132 reversed $215 $-1 #
edge $-1 $216 -30.711530868127422 $217 30.711530868127422 $131 $218 forward 7 unknown #
face $-1 $219 $220 $31 $-1 $221 reversed single #
loop $-1 $-1 $222 $84 #
plane-surface $-1 -44.719382305368207 0 0 1 0 0 0 0 -1 forward_v I I I I #
coedge $-1 $223 $224 $225 $226 reversed $85 $-1 #
coedge $-1 $227 $87 $228 $229 reversed $54 $-1 #
coedge $-1 $87 $227 $223 $230 forward $54 $-1 #
coedge $-1 $225 $231 $87 $140 forward $232 $-1 #
edge $-1 $233 -17.375564512573231 $234 -9.2963681985351592 $139 $235 forward 7 unknown #
face $-1 $236 $237 $32 $-1 $238 forward single #
loop $-1 $-1 $239 $88 #
plane-surface $-1 -98.544975181692678 -7.2670167872880889 72.875040871405048 0 -1 0 0.6018150307709319 0 -0.79863550430605224 forward_v I I I I #
coedge $-1 $240 $241 $242 $243 reversed $89 $-1 #
coedge $-1 $146 $91 $244 $245 reversed $57 $-1 #
coedge $-1 $91 $145 $240 $246 reversed $57 $-1 #
coedge $-1 $242 $247 $91 $148 forward $237 $-1 #
edge $-1 $248 4.5531052854781322 $249 13.504666880351095 $147 $250 forward 7 unknown #
loop $-1 $-1 $154 $92 #
plane-surface $-1 -44.719382305368207 -13.310673560195294 1.4460679919992714 -0.6018150307709319 0 0.79863550430605224 0.79863550430605224 0 0.6018150307709319 forward_v I I I I #
loop $-1 $-1 $251 $59 #
coedge $-1 $152 $152 $153 $252 reversed $93 $-1 #
coedge $-1 $153 $153 $152 $252 forward $95 $-1 #
coedge $-1 $154 $154 $96 $155 forward $149 $-1 #
edge $-1 $253 0 $253 6.2831853071796004 $154 $254 forward 7 unknown #
loop $-1 $-1 $161 $97 #
plane-surface $-1 -44.719382305368207 -13.310673560195294 1.4460679919992714 -0.6018150307709319 0 0.79863550430605224 0.79863550430605224 0 0.6018150307709319 forward_v I I I I #
loop $-1 $-1 $255 $62 #
coedge $-1 $159 $159 $160 $256 reversed $98 $-1 #
coedge $-1 $160 $160 $159 $256 forward $100 $-1 #
coedge $-1 $161 $161 $101 $162 forward $156 $-1 #
edge $-1 $257 0 $257 6.2831853071796004 $161 $258 forward 7 unknown #
loop $-1 $-1 $168 $102 #
plane-surface $-1 -44.719382305368207 -13.310673560195294 1.4460679919992714 -0.6018150307709319 0 0.79863550430605224 0.79863550430605224 0 0.6018150307709319 forward_v I I I I #
loop $-1 $-1 $259 $65 #
coedge $-1 $166 $166 $167 $260 reversed $103 $-1 #
coedge $-1 $167 $167 $166 $260 forward $105 $-1 #
coedge $-1 $168 $168 $106 $169 forward $163 $-1 #
edge $-1 $261 0 $261 6.2831853071796004 $168 $262 forward 7 unknown #
face $-1 $263 $264 $36 $-1 $265 reversed single #
loop $-1 $-1 $266 $107 #
plane-surface $-1 79.583516822175 -9.2044292825140239 125.97315741141259 0 1 0 0.87461971476443456 0 0.48480960649040278 forward_v I I I I #
coedge $-1 $267 $268 $269 $270 reversed $108 $-1 #
coedge $-1 $175 $110 $271 $272 reversed $69 $-1 #
coedge $-1 $110 $174 $267 $273 reversed $69 $-1 #
coedge $-1 $269 $274 $110 $177 forward $275 $-1 #
edge $-1 $276 -4.9276238942807069 $277 -2.8189906136677294 $176 $278 forward 7 unknown #
loop $-1 $-1 $183 $111 #
plane-surface $-1 1.3586100294493093 -4.4289270643456682 82.612385135493696 0.87461971476443456 0 0.48480960649040278 0.48480960649040278 0 -0.87461971476443456 forward_v I I I I #
loop $-1 $-1 $279 $71 #
coedge $-1 $181 $181 $182 $280 reversed $112 $-1 #
coedge $-1 $182 $182 $181 $280 forward $114 $-1 #
coedge $-1 $183 $183 $115 $184 forward $178 $-1 #
edge $-1 $281 0 $281 6.2831853071796004 $183 $282 forward 7 unknown #
face $-1 $283 $284 $38 $-1 $285 reversed single #
loop $-1 $-1 $286 $116 #
plane-surface $-1 79.583516822175 7.7326211602153769 125.97315741141259 0 1 0 0.87461971476443456 0 0.48480960649040278 forward_v I I I I #
coedge $-1 $287 $288 $289 $290 reversed $117 $-1 #
coedge $-1 $190 $119 $291 $292 reversed $75 $-1 #
coedge $-1 $119 $189 $287 $293 reversed $75 $-1 #
coedge $-1 $289 $294 $119 $192 forward $295 $-1 #
edge $-1 $296 -4.9276238942807069 $297 -2.8189906136677294 $191 $298 forward 7 unknown #
loop $-1 $-1 $198 $120 #
plane-surface $-1 1.3586100294493093 12.508123378383733 82.612385135493696 0.87461971476443456 0 0.48480960649040278 0.48480960649040278 0 -0.87461971476443456 forward_v I I I I #
loop $-1 $-1 $299 $77 #
coedge $-1 $196 $196 $197 $300 reversed $121 $-1 #
coedge $-1 $197 $197 $196 $300 forward $123 $-1 #
coedge $-1 $198 $198 $124 $199 forward $193 $-1 #
edge $-1 $301 0 $301 6.2831853071796004 $198 $302 forward 7 unknown #
face $-1 $303 $304 $30 $-1 $305 reversed single #
loop $-1 $-1 $306 $125 #
plane-surface $-1 -44.719382305368207 0 0 1 0 0 0 0 -1 forward_v I I I I #
coedge $-1 $307 $211 $308 $309 forward $126 $-1 #
coedge $-1 $310 $128 $307 $311 forward $81 $-1 #
coedge $-1 $128 $310 $312 $313 forward $81 $-1 #
coedge $-1 $214 $213 $128 $207 reversed $215 $-1 #
edge $-1 $314 -30.711530868127422 $315 30.711530868127422 $206 $316 forward 7 unknown #
coedge $-1 $130 $129 $317 $318 forward $51 $-1 #
coedge $-1 $319 $320 $129 $210 reversed $304 $-1 #
edge $-1 $217 -44.719382305368207 $321 44.719382305368207 $209 $322 forward 7 unknown #
coedge $-1 $203 $323 $130 $212 reversed $126 $-1 #
edge $-1 $324 -44.719382305368207 $216 44.719382305368207 $211 $325 forward 7 unknown #
coedge $-1 $206 $131 $323 $326 forward $215 $-1 #
coedge $-1 $131 $206 $319 $327 reversed $215 $-1 #
loop $-1 $-1 $213 $303 #
vertex $-1 $132 $328 #
vertex $-1 $132 $329 #
straight-curve $-1 44.719382305368207 0 8.1915536204492341 0 1 0 I I #
face $-1 $330 $331 $31 $-1 $332 forward single #
loop $-1 $-1 $228 $133 #
plane-surface $-1 0 -30.711530868127422 0 0 1 0 0 0 1 forward_v I I I I #
coedge $-1 $333 $334 $335 $336 forward $134 $-1 #
coedge $-1 $335 $136 $138 $230 reversed $85 $-1 #
coedge $-1 $136 $335 $337 $338 reversed $85 $-1 #
coedge $-1 $339 $139 $136 $226 forward $232 $-1 #
edge $-1 $234 1.845776810224617 $340 4.845776810224617 $225 $341 forward 7 unknown #
coedge $-1 $138 $137 $333 $342 reversed $54 $-1 #
coedge $-1 $343 $344 $137 $229 forward $220 $-1 #
edge $-1 $345 -44.719382305368207 $233 44.719382305368207 $228 $346 forward 7 unknown #
edge $-1 $347 -44.719382305368207 $234 44.719382305368207 $223 $348 forward 7 unknown #
coedge $-1 $139 $339 $343 $349 forward $232 $-1 #
loop $-1 $-1 $225 $330 #
vertex $-1 $229 $350 #
vertex $-1 $140 $351 #
straight-curve $-1 44.719382305368207 -13.335966355554195 5.1915536204492341 0 1 0 I I #
face $-1 $-1 $352 $32 $-1 $353 reversed single #
loop $-1 $-1 $147 $141 #
plane-surface $-1 0 0 8.1915536204492341 0 0 1 1 0 0 forward_v I I I I #
coedge $-1 $354 $355 $356 $357 reversed $142 $-1 #
coedge $-1 $358 $144 $146 $246 forward $89 $-1 #
coedge $-1 $144 $358 $354 $359 forward $89 $-1 #
coedge $-1 $356 $147 $144 $243 forward $237 $-1 #
edge $-1 $249 -12.698993553004852 $360 -0.6116800071904418 $242 $361 forward 7 unknown #
coedge $-1 $362 $363 $145 $245 forward $352 $-1 #
edge $-1 $364 -34.991452443703253 $248 -28.24596681525329 $244 $365 forward 7 unknown #
edge $-1 $249 -11.208569549698552 $364 0 $146 $366 forward 7 unknown #
coedge $-1 $147 $356 $362 $367 forward $237 $-1 #
vertex $-1 $245 $368 #
vertex $-1 $148 $369 #
straight-curve $-1 -49.272487590846339 -19.354330333102499 8.1915536204492341 1 0 0 I I #
coedge $-1 $251 $251 $-1 $370 reversed $151 $-1 #
edge $-1 $371 0 $371 6.2831853071796004 $152 $372 forward 7 unknown #
vertex $-1 $155 $373 #
ellipse-curve $-1 -40.243601507931729 -16.936867623939619 4.8188108062242518 -0.6018150307709319 0 0.79863550430605224 0.39931775215302612 0 0.30090751538546595 1 I I #
coedge $-1 $255 $255 $-1 $374 reversed $158 $-1 #
edge $-1 $375 0 $375 6.2831853071796004 $159 $376 forward 7 unknown #
vertex $-1 $162 $377 #
ellipse-curve $-1 -40.243601507931729 -13.310673560195294 4.8188108062242518 -0.6018150307709319 0 0.79863550430605224 0.39931775215302612 0 0.30090751538546595 1 I I #
coedge $-1 $259 $259 $-1 $378 reversed $165 $-1 #
edge $-1 $379 0 $379 6.2831853071796004 $166 $380 forward 7 unknown #
vertex $-1 $169 $381 #
ellipse-curve $-1 -40.243601507931729 -9.6844794964509724 4.8188108062242518 -0.6018150307709319 0 0.79863550430605224 0.39931775215302612 0 0.30090751538546595 1 I I #
face $-1 $-1 $275 $36 $-1 $382 forward single #
loop $-1 $-1 $383 $170 #
plane-surface $-1 44.719382305368207 0 0 -1 0 0 0 0 1 forward_v I I I I #
coedge $-1 $384 $385 $386 $387 reversed $171 $-1 #
coedge $-1 $388 $173 $175 $273 forward $108 $-1 #
coedge $-1 $173 $388 $384 $389 forward $108 $-1 #
coedge $-1 $386 $176 $173 $270 forward $275 $-1 #
edge $-1 $277 -2.5610386859955216 $390 6.9899657503411898 $269 $391 forward 7 unknown #
coedge $-1 $392 $393 $174 $272 forward $264 $-1 #
edge $-1 $394 -58.599100362938302 $276 -54.795025085257059 $271 $395 forward 7 unknown #
edge $-1 $277 85.089359705421884 $394 89.438764610736442 $175 $396 forward 7 unknown #
coedge $-1 $176 $386 $392 $397 forward $275 $-1 #
loop $-1 $-1 $386 $263 #
vertex $-1 $272 $398 #
vertex $-1 $177 $399 #
straight-curve $-1 39.7917584110875 0.34657515382268755 8.1915536204492341 -1 0 0 I I #
coedge $-1 $279 $279 $-1 $400 reversed $180 $-1 #
edge $-1 $401 0 $401 6.2831853071796004 $181 $402 forward 7 unknown #
vertex $-1 $184 $403 #
ellipse-curve $-1 43.665065665061711 -4.4289270643456682 6.2895159816086244 0.87461971476443456 0 0.48480960649040278 0.48480960649040278 0 -0.87461971476443456 1 I I #
face $-1 $-1 $295 $38 $-1 $404 forward single #
loop $-1 $-1 $405 $185 #
plane-surface $-1 44.719382305368207 0 0 -1 0 0 0 0 1 forward_v I I I I #
coedge $-1 $406 $407 $408 $409 reversed $186 $-1 #
coedge $-1 $410 $188 $190 $293 forward $117 $-1 #
coedge $-1 $188 $410 $406 $411 forward $117 $-1 #
coedge $-1 $408 $191 $188 $290 forward $295 $-1 #
edge $-1 $297 -11.029563907360222 $412 -1.4785594710235106 $289 $413 forward 7 unknown #
coedge $-1 $414 $415 $189 $292 forward $284 $-1 #
edge $-1 $416 -58.599100362938302 $296 -54.795025085257059 $291 $417 forward 7 unknown #
edge $-1 $297 85.089359705421884 $416 89.438764610736442 $190 $418 forward 7 unknown #
coedge $-1 $191 $408 $414 $419 forward $295 $-1 #
loop $-1 $-1 $408 $283 #
vertex $-1 $292 $420 #
vertex $-1 $192 $421 #
straight-curve $-1 39.7917584110875 17.283625596552088 8.1915536204492341 -1 0 0 I I #
coedge $-1 $299 $299 $-1 $422 reversed $195 $-1 #
edge $-1 $423 0 $423 6.2831853071796004 $196 $424 forward 7 unknown #
vertex $-1 $199 $425 #
ellipse-curve $-1 43.665065665061711 12.508123378383733 6.2895159816086244 0.87461971476443456 0 0.48480960649040278 0.48480960649040278 0 -0.87461971476443456 1 I I #
face $-1 $-1 $215 $30 $-1 $426 reversed single #
loop $-1 $-1 $319 $200 #
plane-surface $-1 0 30.711530868127422 0 0 -1 0 0 0 -1 forward_v I I I I #
coedge $-1 $427 $317 $320 $428 forward $201 $-1 #
coedge $-1 $323 $203 $204 $311 reversed $126 $-1 #
coedge $-1 $317 $427 $203 $309 reversed $201 $-1 #
edge $-1 $324 -8.1915536204492341 $429 8.1915536204492341 $308 $430 forward 7 unknown #
coedge $-1 $205 $204 $427 $431 forward $81 $-1 #
edge $-1 $315 -44.719382305368207 $429 44.719382305368207 $307 $432 forward 7 unknown #
coedge $-1 $320 $319 $205 $313 reversed $304 $-1 #
edge $-1 $433 -44.719382305368207 $314 44.719382305368207 $312 $434 forward 7 unknown #
vertex $-1 $207 $435 #
vertex $-1 $326 $436 #
straight-curve $-1 44.719382305368207 0 -8.1915536204492341 0 -1 0 I I #
coedge $-1 $306 $308 $208 $318 reversed $201 $-1 #
edge $-1 $321 -30.711530868127422 $324 30.711530868127422 $317 $437 forward 7 unknown #
coedge $-1 $312 $209 $214 $327 forward $304 $-1 #
coedge $-1 $209 $312 $306 $428 reversed $304 $-1 #
vertex $-1 $210 $438 #
straight-curve $-1 0 30.711530868127422 8.1915536204492341 -1 0 0 I I #
coedge $-1 $211 $307 $213 $326 reversed $126 $-1 #
vertex $-1 $318 $439 #
straight-curve $-1 0 -30.711530868127422 8.1915536204492341 1 0 0 I I #
edge $-1 $216 -8.1915536204492341 $315 8.1915536204492341 $213 $440 forward 7 unknown #
edge $-1 $217 -8.1915536204492341 $314 8.1915536204492341 $214 $441 forward 7 unknown #
point $-1 44.719382305368207 -30.711530868127422 8.1915536204492341 #
point $-1 44.719382305368207 30.711530868127422 8.1915536204492341 #
face $-1 $-1 $232 $31 $-1 $442 reversed single #
loop $-1 $-1 $337 $219 #
plane-surface $-1 0 0 8.1915536204492341 0 0 1 1 0 0 forward_v I I I I #
coedge $-1 $443 $222 $227 $342 forward $134 $-1 #
coedge $-1 $222 $443 $444 $445 reversed $134 $-1 #
coedge $-1 $224 $223 $222 $336 reversed $85 $-1 #
edge $-1 $446 -4.845776810224617 $347 -1.845776810224617 $222 $447 forward 7 unknown #
coedge $-1 $444 $448 $224 $338 forward $331 $-1 #
edge $-1 $340 -44.719382305368207 $446 44.719382305368207 $337 $449 forward 7 unknown #
coedge $-1 $231 $225 $448 $450 reversed $232 $-1 #
vertex $-1 $226 $451 #
straight-curve $-1 44.719382305368207 -22.632334554089354 3.345776810224617 0 0 1 I I #
edge $-1 $347 9.2963681985351592 $345 17.375564512573231 $333 $452 forward 7 unknown #
coedge $-1 $453 $228 $231 $349 reversed $220 $-1 #
coedge $-1 $228 $453 $443 $454 forward $220 $-1 #
vertex $-1 $229 $455 #
straight-curve $-1 0 -30.711530868127422 5.1915536204492341 1 0 0 I I #
vertex $-1 $342 $456 #
straight-curve $-1 0 -22.632334554089354 5.1915536204492341 1 0 0 I I #
edge $-1 $457 -8.1915536204492341 $233 -5.1915536204492341 $231 $458 forward 7 unknown #
point $-1 44.719382305368207 -30.711530868127426 5.1915536204492341 #
point $-1 44.719382305368207 -22.632334554089354 5.1915536204492341 #
loop $-1 $-1 $244 $236 #
plane-surface $-1 -44.719382305368207 0 0 1 0 0 0 0 -1 forward_v I I I I #
coedge $-1 $355 $239 $241 $359 reversed $142 $-1 #
coedge $-1 $239 $354 $459 $460 reversed $142 $-1 #
coedge $-1 $247 $242 $239 $357 forward $237 $-1 #
edge $-1 $360 -13.504666880351095 $461 -4.5531052854781322 $356 $462 forward 7 unknown #
coedge $-1 $241 $240 $363 $463 reversed $89 $-1 #
edge $-1 $464 0 $360 11.208569549698552 $354 $465 forward 7 unknown #
vertex $-1 $243 $466 #
straight-curve $-1 -35.767820710495251 -6.6553367800976471 8.1915536204492341 0 1 0 I I #
coedge $-1 $459 $244 $247 $367 reversed $352 $-1 #
coedge $-1 $244 $459 $358 $463 forward $352 $-1 #
vertex $-1 $245 $467 #
straight-curve $-1 -44.719382305368207 -19.354330333102499 36.437520435702524 0 0 1 I I #
straight-curve $-1 -44.719382305368207 -19.354330333102499 1.4460679919992714 -0.79863550430605224 0 -0.6018150307709319 I I #
edge $-1 $461 7.2670167872880889 $248 19.354330333102499 $362 $468 forward 7 unknown #
point $-1 -44.719382305368207 -19.354330333102499 8.1915536204492341 #
point $-1 -35.767820710495243 -19.354330333102499 8.1915536204492341 #
edge $-1 $469 1 $469 0 $251 $-1 forward 7 unknown #
vertex $-1 $252 $470 #
ellipse-curve $-1 -39.102536920870932 -16.936867623939619 3.3045669848864963 -0.6018150307709319 0 0.79863550430605224 0.39931775215302612 0 0.30090751538546595 1 I I #
point $-1 -39.844283755778704 -16.936867623939619 5.1197183216097182 #
edge $-1 $471 1 $471 0 $255 $-1 forward 7 unknown #
vertex $-1 $256 $472 #
ellipse-curve $-1 -39.102536920870932 -13.310673560195294 3.3045669848864963 -0.6018150307709319 0 0.79863550430605224 0.39931775215302612 0 0.30090751538546595 1 I I #
point $-1 -39.844283755778704 -13.310673560195294 5.1197183216097182 #
edge $-1 $473 1 $473 0 $259 $-1 forward 7 unknown #
vertex $-1 $260 $474 #
ellipse-curve $-1 -39.102536920870932 -9.6844794964509724 3.3045669848864963 -0.6018150307709319 0 0.79863550430605224 0.39931775215302612 0 0.30090751538546595 1 I I #
point $-1 -39.844283755778704 -9.6844794964509724 5.1197183216097182 #
plane-surface $-1 0 0 8.1915536204492341 0 0 1 1 0 0 forward_v I I I I #
coedge $-1 $393 $392 $385 $475 forward $264 $-1 #
coedge $-1 $385 $266 $268 $389 reversed $171 $-1 #
coedge $-1 $266 $384 $383 $475 reversed $171 $-1 #
coedge $-1 $274 $269 $266 $387 forward $275 $-1 #
edge $-1 $390 2.8189906136677294 $476 4.9276238942807069 $386 $477 forward 7 unknown #
coedge $-1 $268 $267 $393 $478 reversed $108 $-1 #
edge $-1 $479 -89.438764610736442 $390 -85.089359705421884 $384 $480 forward 7 unknown #
vertex $-1 $270 $481 #
straight-curve $-1 42.610749024755222 -2.2144635321728341 8.1915536204492412 0 -1 0 I I #
coedge $-1 $383 $271 $274 $397 reversed $264 $-1 #
coedge $-1 $271 $383 $388 $478 forward $264 $-1 #
vertex $-1 $272 $482 #
straight-curve $-1 44.719382305368207 0.34657515382268755 62.986578705706293 0 0 1 I I #
straight-curve $-1 1.3586100294493093 0.34657515382268755 82.612385135493696 0.48480960649040278 0 -0.87461971476443456 I I #
edge $-1 $476 -9.2044292825140239 $276 0.34657515382268755 $392 $483 forward 7 unknown #
point $-1 44.719382305368207 0.34657515382268755 8.1915536204492341 #
point $-1 42.610749024755229 0.34657515382268755 8.1915536204492412 #
edge $-1 $484 1 $484 0 $279 $-1 forward 7 unknown #
vertex $-1 $280 $485 #
ellipse-curve $-1 42.737115154371544 -4.4289270643456682 5.7751446333119114 0.87461971476443456 0 0.48480960649040278 0.48480960649040278 0 -0.87461971476443456 1 I I #
point $-1 44.149875271552141 -4.4289270643456682 5.4148962668442042 #
plane-surface $-1 0 0 8.1915536204492341 0 0 1 1 0 0 forward_v I I I I #
coedge $-1 $415 $414 $407 $486 forward $284 $-1 #
coedge $-1 $407 $286 $288 $411 reversed $186 $-1 #
coedge $-1 $286 $406 $405 $486 reversed $186 $-1 #
coedge $-1 $294 $289 $286 $409 forward $295 $-1 #
edge $-1 $412 2.8189906136677294 $487 4.9276238942807069 $408 $488 forward 7 unknown #
coedge $-1 $288 $287 $415 $489 reversed $117 $-1 #
edge $-1 $490 -89.438764610736442 $412 -85.089359705421884 $406 $491 forward 7 unknown #
vertex $-1 $290 $492 #
straight-curve $-1 42.610749024755222 6.2540616891918663 8.1915536204492412 0 -1 0 I I #
coedge $-1 $405 $291 $294 $419 reversed $284 $-1 #
coedge $-1 $291 $405 $410 $489 forward $284 $-1 #
vertex $-1 $292 $493 #
straight-curve $-1 44.719382305368207 17.283625596552088 62.986578705706293 0 0 1 I I #
straight-curve $-1 1.3586100294493093 17.283625596552088 82.612385135493696 0.48480960649040278 0 -0.87461971476443456 I I #
edge $-1 $487 7.7326211602153769 $296 17.283625596552088 $414 $494 forward 7 unknown #
point $-1 44.719382305368207 17.283625596552088 8.1915536204492341 #
point $-1 42.610749024755229 17.283625596552088 8.1915536204492412 #
edge $-1 $495 1 $495 0 $299 $-1 forward 7 unknown #
vertex $-1 $300 $496 #
ellipse-curve $-1 42.737115154371544 12.508123378383733 5.7751446333119114 0.87461971476443456 0 0.48480960649040278 0.48480960649040278 0 -0.87461971476443456 1 I I #
point $-1 44.149875271552141 12.508123378383733 5.4148962668442042 #
plane-surface $-1 44.719382305368207 0 0 -1 0 0 0 0 1 forward_v I I I I #
coedge $-1 $308 $306 $310 $431 reversed $201 $-1 #
edge $-1 $321 -8.1915536204492341 $433 8.1915536204492341 $320 $497 forward 7 unknown #
vertex $-1 $431 $498 #
straight-curve $-1 -44.719382305368207 -30.711530868127422 0 0 0 -1 I I #
edge $-1 $429 -30.711530868127422 $433 30.711530868127422 $427 $499 forward 7 unknown #
straight-curve $-1 0 -30.711530868127422 -8.1915536204492341 -1 0 0 I I #
vertex $-1 $313 $500 #
straight-curve $-1 0 30.711530868127422 -8.1915536204492341 1 0 0 I I #
point $-1 44.719382305368207 30.711530868127422 -8.1915536204492341 #
point $-1 44.719382305368207 -30.711530868127422 -8.1915536204492341 #
straight-curve $-1 -44.719382305368207 0 8.1915536204492341 0 -1 0 I I #
point $-1 -44.719382305368207 30.711530868127422 8.1915536204492341 #
point $-1 -44.719382305368207 -30.711530868127422 8.1915536204492341 #
straight-curve $-1 44.719382305368207 -30.711530868127422 0 0 0 -1 I I #
straight-curve $-1 44.719382305368207 30.711530868127422 0 0 0 -1 I I #
plane-surface $-1 44.719382305368207 0 0 -1 0 0 0 0 1 forward_v I I I I #
coedge $-1 $334 $333 $344 $454 reversed $134 $-1 #
coedge $-1 $501 $337 $334 $445 forward $331 $-1 #
edge $-1 $446 22.632334554089354 $502 30.711530868127422 $334 $503 forward 7 unknown #
vertex $-1 $445 $504 #
straight-curve $-1 -44.719382305368207 -22.632334554089354 3.345776810224617 0 0 -1 I I #
coedge $-1 $337 $501 $339 $450 forward $331 $-1 #
straight-curve $-1 0 -22.632334554089354 8.1915536204492341 -1 0 0 I I #
edge $-1 $457 -30.711530868127422 $340 -22.632334554089354 $339 $505 forward 7 unknown #
point $-1 44.719382305368207 -22.632334554089354 8.1915536204492341 #
straight-curve $-1 -44.719382305368207 -13.335966355554195 5.1915536204492341 0 -1 0 I I #
coedge $-1 $344 $343 $501 $506 reversed $220 $-1 #
edge $-1 $502 -8.1915536204492341 $345 -5.1915536204492341 $443 $507 forward 7 unknown #
point $-1 -44.719382305368207 -30.711530868127426 5.1915536204492341 #
point $-1 -44.719382305368207 -22.632334554089354 5.1915536204492341 #
vertex $-1 $450 $508 #
straight-curve $-1 44.719382305368207 -30.711530868127422 0 0 0 -1 I I #
coedge $-1 $363 $362 $355 $460 forward $352 $-1 #
edge $-1 $461 28.24596681525329 $464 34.991452443703253 $459 $509 forward 7 unknown #
vertex $-1 $367 $510 #
straight-curve $-1 -49.272487590846339 -7.2670167872880889 8.1915536204492341 -1 0 0 I I #
edge $-1 $464 0.6116800071904418 $364 12.698993553004852 $363 $511 forward 7 unknown #
vertex $-1 $463 $512 #
straight-curve $-1 -44.719382305368207 -7.2670167872880889 1.4460679919992714 0.79863550430605224 0 0.6018150307709319 I I #
point $-1 -35.767820710495243 -7.2670167872880889 8.1915536204492341 #
point $-1 -44.719382305368207 -19.354330333102499 1.4460679919992714 #
straight-curve $-1 -44.719382305368207 0 8.1915536204492341 0 -1 0 I I #
vertex $-1 $370 $513 #
point $-1 -38.703219168717908 -16.936867623939619 3.6054745002719621 #
vertex $-1 $374 $514 #
point $-1 -38.703219168717908 -13.310673560195294 3.6054745002719621 #
vertex $-1 $378 $515 #
point $-1 -38.703219168717908 -9.6844794964509724 3.6054745002719621 #
edge $-1 $476 54.795025085257059 $479 58.599100362938302 $383 $516 forward 7 unknown #
vertex $-1 $397 $517 #
straight-curve $-1 39.7917584110875 -9.2044292825140239 8.1915536204492341 1 0 0 I I #
edge $-1 $479 -6.9899657503411898 $394 2.5610386859955216 $393 $518 forward 7 unknown #
vertex $-1 $478 $519 #
straight-curve $-1 1.3586100294493093 -9.2044292825140239 82.612385135493696 -0.48480960649040278 0 0.87461971476443456 I I #
point $-1 42.610749024755229 -9.2044292825140239 8.1915536204492412 #
point $-1 44.719382305368207 0.34657515382268755 4.3874783427679915 #
straight-curve $-1 44.719382305368207 0 8.1915536204492341 0 1 0 I I #
vertex $-1 $400 $520 #
point $-1 43.221924760861945 -4.4289270643456682 4.9005249185474771 #
edge $-1 $487 54.795025085257059 $490 58.599100362938302 $405 $521 forward 7 unknown #
vertex $-1 $419 $522 #
straight-curve $-1 39.7917584110875 7.7326211602153769 8.1915536204492341 1 0 0 I I #
edge $-1 $490 1.4785594710235106 $416 11.029563907360222 $415 $523 forward 7 unknown #
vertex $-1 $489 $524 #
straight-curve $-1 1.3586100294493093 7.7326211602153769 82.612385135493696 -0.48480960649040278 0 0.87461971476443456 I I #
point $-1 42.610749024755229 7.7326211602153769 8.1915536204492412 #
point $-1 44.719382305368207 17.283625596552088 4.3874783427679915 #
straight-curve $-1 44.719382305368207 0 8.1915536204492341 0 1 0 I I #
vertex $-1 $422 $525 #
point $-1 43.221924760861945 12.508123378383733 4.9005249185474771 #
straight-curve $-1 -44.719382305368207 30.711530868127422 0 0 0 -1 I I #
point $-1 -44.719382305368207 -30.711530868127422 -8.1915536204492341 #
straight-curve $-1 -44.719382305368207 0 -8.1915536204492341 0 1 0 I I #
point $-1 -44.719382305368207 30.711530868127422 -8.1915536204492341 #
coedge $-1 $448 $444 $453 $506 forward $331 $-1 #
vertex $-1 $445 $526 #
straight-curve $-1 -44.719382305368207 0 8.1915536204492341 0 -1 0 I I #
point $-1 -44.719382305368207 -22.632334554089354 8.1915536204492341 #
straight-curve $-1 44.719382305368207 0 8.1915536204492341 0 1 0 I I #
edge $-1 $502 -44.719382305368207 $457 44.719382305368207 $453 $527 forward 7 unknown #
straight-curve $-1 -44.719382305368207 -30.711530868127422 0 0 0 -1 I I #
point $-1 44.719382305368207 -30.711530868127422 8.1915536204492341 #
straight-curve $-1 -44.719382305368207 -7.2670167872880889 36.437520435702524 0 0 -1 I I #
point $-1 -44.719382305368207 -7.2670167872880889 8.1915536204492341 #
straight-curve $-1 -44.719382305368207 -6.6553367800976471 1.4460679919992712 0 -1 0 I I #
point $-1 -44.719382305368207 -7.2670167872880889 1.4460679919992714 #
point $-1 -38.801629405485471 -16.936867623939619 2.9052492327334702 #
point $-1 -38.801629405485471 -13.310673560195294 2.9052492327334702 #
point $-1 -38.801629405485471 -9.6844794964509724 2.9052492327334702 #
straight-curve $-1 44.719382305368207 -9.2044292825140239 62.986578705706293 0 0 -1 I I #
point $-1 44.719382305368207 -9.2044292825140239 8.1915536204492341 #
straight-curve $-1 44.7193823053682 -2.2144635321728341 4.3874783427679915 0 1 0 I I #
point $-1 44.719382305368207 -9.2044292825140239 4.3874783427679915 #
point $-1 41.862495439607109 -4.4289270643456682 5.2903350268215084 #
straight-curve $-1 44.719382305368207 7.7326211602153769 62.986578705706293 0 0 -1 I I #
point $-1 44.719382305368207 7.7326211602153769 8.1915536204492341 #
straight-curve $-1 44.7193823053682 6.2540616891918663 4.3874783427679915 0 1 0 I I #
point $-1 44.719382305368207 7.7326211602153769 4.3874783427679915 #
point $-1 41.862495439607109 12.508123378383733 5.2903350268215084 #
point $-1 -44.719382305368207 -30.711530868127422 8.1915536204492341 #
straight-curve $-1 0 -30.711530868127422 8.1915536204492341 1 0 0 I I #
End-of-ACIS-data 