500 0 7 0           
7 Unknown 11 ACIS 5.0 NT 24 Fri Mar 26 19:51:04 1999 
-1 9.9999999999999995e-007 1e-010 
body $-1 $7 $-1 $8 #
body $-1 $9 $-1 $10 #
body $-1 $11 $-1 $12 #
body $-1 $13 $-1 $14 #
body $-1 $15 $-1 $16 #
body $-1 $17 $-1 $18 #
body $-1 $19 $-1 $20 #
lump $-1 $-1 $21 $0 #
transform $-1 1 0 0 0 1 0 0 0 1 55.117648854029966 29.737659552617721 11.516978888962353 1 rotate no_reflect no_shear #
lump $-1 $-1 $22 $1 #
transform $-1 1 0 0 0 1 0 0 0 1 55.117648854029966 29.737659552617721 11.516978888962353 1 rotate no_reflect no_shear #
lump $-1 $-1 $23 $2 #
transform $-1 1 0 0 0 1 0 0 0 1 55.117648854029966 29.737659552617721 11.516978888962353 1 rotate no_reflect no_shear #
lump $-1 $-1 $24 $3 #
transform $-1 1 0 0 0 1 0 0 0 1 55.117648854029966 29.737659552617721 11.516978888962353 1 rotate no_reflect no_shear #
lump $-1 $-1 $25 $4 #
transform $-1 1 0 0 0 1 0 0 0 1 55.117648854029966 29.737659552617721 11.516978888962353 1 rotate no_reflect no_shear #
lump $-1 $-1 $26 $5 #
transform $-1 1 0 0 0 1 0 0 0 1 55.117648854029966 29.737659552617721 11.516978888962353 1 rotate no_reflect no_shear #
lump $-1 $-1 $27 $6 #
transform $-1 1 0 0 0 1 0 0 0 1 55.117648854029966 29.737659552617721 11.516978888962353 1 rotate no_reflect no_shear #
shell $-1 $-1 $-1 $28 $-1 $7 #
shell $-1 $-1 $-1 $29 $-1 $9 #
shell $-1 $-1 $-1 $30 $-1 $11 #
shell $-1 $-1 $-1 $31 $-1 $13 #
shell $-1 $-1 $-1 $32 $-1 $15 #
shell $-1 $-1 $-1 $33 $-1 $17 #
shell $-1 $-1 $-1 $34 $-1 $19 #
face $-1 $35 $36 $21 $-1 $37 forward single #
face $-1 $38 $39 $22 $-1 $40 reversed single #
face $-1 $41 $42 $23 $-1 $43 forward single #
face $-1 $44 $45 $24 $-1 $46 reversed single #
face $-1 $47 $48 $25 $-1 $49 forward single #
face $-1 $50 $51 $26 $-1 $52 forward single #
face $-1 $53 $54 $27 $-1 $55 forward single #
face $-1 $56 $57 $21 $-1 $58 reversed single #
loop $-1 $-1 $59 $28 #
plane-surface $-1 0 0 11.516978888962353 0 0 1 1 0 0 forward_v I I I I #
face $-1 $60 $61 $22 $-1 $62 reversed single #
loop $-1 $-1 $63 $29 #
plane-surface $-1 84.864058495058003 19.720400005222945 159.9452379308305 0 -1 0 -0.82903758062907751 0 -0.55919289150049634 forward_v I I I I #
face $-1 $64 $65 $23 $-1 $66 forward single #
loop $-1 $67 $68 $30 #
cone-surface $-1 53.111257240049042 15.152747825112236 8.909043320095396 -0.82903758062907751 0 -0.55919289150049634 0.55919289150049634 0 -0.82903758062907751 1 I I 0 1 1 forward I I I I #
face $-1 $69 $70 $24 $-1 $71 reversed single #
loop $-1 $-1 $72 $31 #
plane-surface $-1 -137.03844084361498 -22.54208697459314 77.588953659375548 0 1 0 -0.74314483375859142 0 0.66913059716165679 forward_v I I I I #
face $-1 $73 $74 $25 $-1 $75 forward single #
loop $-1 $76 $77 $32 #
cone-surface $-1 -51.284096890184856 -20.217931276376113 7.3374956837445477 0.74314483375859142 0 -0.66913059716165679 0.3345652985808284 0 0.37157241687929571 1 I I 0 1 0.5 forward I I I I #
face $-1 $78 $79 $26 $-1 $80 forward single #
loop $-1 $81 $82 $33 #
cone-surface $-1 -51.284096890184856 -16.731697729050573 7.3374956837445477 0.74314483375859142 0 -0.66913059716165679 0.3345652985808284 0 0.37157241687929571 1 I I 0 1 0.5 forward I I I I #
face $-1 $83 $84 $27 $-1 $85 forward single #
loop $-1 $86 $87 $34 #
cone-surface $-1 -51.284096890184856 -13.245464181725033 7.3374956837445477 0.74314483375859142 0 -0.66913059716165679 0.3345652985808284 0 0.37157241687929571 1 I I 0 1 0.5 forward I I I I #
face $-1 $88 $89 $21 $-1 $90 reversed single #
loop $-1 $-1 $91 $35 #
plane-surface $-1 0 0 -11.516978888962353 0 0 1 1 0 0 forward_v I I I I #
coedge $-1 $92 $93 $94 $95 forward $36 $-1 #
face $-1 $96 $97 $22 $-1 $98 reversed single #
loop $-1 $-1 $99 $38 #
plane-surface $-1 -6.5251460167581001 15.152747825112236 98.302443060042435 0.82903758062907751 0 0.55919289150049634 0.55919289150049634 0 -0.82903758062907751 forward_v I I I I #
coedge $-1 $100 $101 $102 $103 reversed $39 $-1 #
face $-1 $-1 $104 $23 $-1 $105 forward single #
loop $-1 $106 $107 $41 #
cone-surface $-1 52.242977821975103 15.152747825112236 8.3233814758461797 -0.82903758062907751 0 -0.55919289150049634 0.27959644575024817 0 -0.41451879031453875 1 I I -0.70710678118654746 0.70710678118654746 0.5 forward I I I I #
loop $-1 $-1 $108 $30 #
coedge $-1 $68 $68 $109 $110 reversed $42 $-1 #
face $-1 $111 $112 $24 $-1 $113 reversed single #
loop $-1 $-1 $114 $44 #
plane-surface $-1 -55.117648854029952 -16.731697729050573 3.8271430756883831 -0.74314483375859142 0 0.66913059716165679 0.66913059716165679 0 0.74314483375859142 forward_v I I I I #
coedge $-1 $115 $116 $117 $118 reversed $45 $-1 #
face $-1 $-1 $119 $25 $-1 $120 forward single #
loop $-1 $121 $122 $47 #
cone-surface $-1 -50.726738264865915 -20.217931276376113 6.8356477358733052 0.74314483375859142 0 -0.66913059716165679 0.1672826492904142 0 0.18578620843964785 1 I I -0.70710678118654746 0.70710678118654746 0.25 forward I I I I #
loop $-1 $-1 $123 $32 #
coedge $-1 $77 $77 $124 $125 reversed $48 $-1 #
face $-1 $-1 $126 $26 $-1 $127 forward single #
loop $-1 $128 $129 $50 #
cone-surface $-1 -50.726738264865915 -16.731697729050573 6.8356477358733052 0.74314483375859142 0 -0.66913059716165679 0.1672826492904142 0 0.18578620843964785 1 I I -0.70710678118654746 0.70710678118654746 0.25 forward I I I I #
loop $-1 $-1 $130 $33 #
coedge $-1 $82 $82 $131 $132 reversed $51 $-1 #
face $-1 $-1 $133 $27 $-1 $134 forward single #
loop $-1 $135 $136 $53 #
cone-surface $-1 -50.726738264865915 -13.245464181725033 6.8356477358733052 0.74314483375859142 0 -0.66913059716165679 0.1672826492904142 0 0.18578620843964785 1 I I -0.70710678118654746 0.70710678118654746 0.25 forward I I I I #
loop $-1 $-1 $137 $34 #
coedge $-1 $87 $87 $138 $139 reversed $54 $-1 #
face $-1 $140 $141 $21 $-1 $142 reversed single #
loop $-1 $-1 $143 $56 #
plane-surface $-1 0 -29.737659552617721 0 0 1 0 0 0 1 forward_v I I I I #
coedge $-1 $144 $145 $146 $147 forward $57 $-1 #
coedge $-1 $148 $59 $149 $150 forward $36 $-1 #
coedge $-1 $59 $148 $151 $152 forward $36 $-1 #
coedge $-1 $153 $154 $59 $95 reversed $155 $-1 #
edge $-1 $156 -29.737659552617721 $157 29.737659552617721 $94 $158 forward 7 unknown #
face $-1 $159 $160 $22 $-1 $161 forward single #
loop $-1 $-1 $162 $60 #
plane-surface $-1 84.864058495058003 10.585095645001527 159.9452379308305 0 1 0 0.82903758062907751 0 0.55919289150049634 forward_v I I I I #
coedge $-1 $163 $164 $165 $166 reversed $61 $-1 #
coedge $-1 $101 $63 $167 $168 reversed $39 $-1 #
coedge $-1 $63 $100 $163 $169 reversed $39 $-1 #
coedge $-1 $165 $170 $63 $103 forward $160 $-1 #
edge $-1 $171 -12.685619606500964 $172 -9.5803576340579255 $102 $173 forward 7 unknown #
loop $-1 $-1 $109 $64 #
plane-surface $-1 -6.5251460167581001 15.152747825112236 98.302443060042435 0.82903758062907751 0 0.55919289150049634 0.55919289150049634 0 -0.82903758062907751 forward_v I I I I #
loop $-1 $-1 $174 $41 #
coedge $-1 $107 $107 $108 $175 reversed $65 $-1 #
coedge $-1 $108 $108 $107 $175 forward $67 $-1 #
coedge $-1 $109 $109 $68 $110 forward $104 $-1 #
edge $-1 $176 0 $176 6.2831853071796004 $109 $177 forward 7 unknown #
face $-1 $178 $179 $24 $-1 $180 reversed single #
loop $-1 $-1 $181 $69 #
plane-surface $-1 -137.03844084361498 -10.921308483508007 77.588953659375548 0 -1 0 0.74314483375859142 0 -0.66913059716165679 forward_v I I I I #
coedge $-1 $182 $183 $184 $185 reversed $70 $-1 #
coedge $-1 $116 $72 $186 $187 reversed $45 $-1 #
coedge $-1 $72 $115 $182 $188 reversed $45 $-1 #
coedge $-1 $184 $189 $72 $118 forward $190 $-1 #
edge $-1 $191 13.401571567777523 $192 20.325530661709166 $117 $193 forward 7 unknown #
loop $-1 $-1 $124 $73 #
plane-surface $-1 -55.117648854029952 -16.731697729050573 3.8271430756883831 -0.74314483375859142 0 0.66913059716165679 0.66913059716165679 0 0.74314483375859142 forward_v I I I I #
loop $-1 $-1 $194 $47 #
coedge $-1 $122 $122 $123 $195 reversed $74 $-1 #
coedge $-1 $123 $123 $122 $195 forward $76 $-1 #
coedge $-1 $124 $124 $77 $125 forward $119 $-1 #
edge $-1 $196 0 $196 6.2831853071796004 $124 $197 forward 7 unknown #
loop $-1 $-1 $131 $78 #
plane-surface $-1 -55.117648854029952 -16.731697729050573 3.8271430756883831 -0.74314483375859142 0 0.66913059716165679 0.66913059716165679 0 0.74314483375859142 forward_v I I I I #
loop $-1 $-1 $198 $50 #
coedge $-1 $129 $129 $130 $199 reversed $79 $-1 #
coedge $-1 $130 $130 $129 $199 forward $81 $-1 #
coedge $-1 $131 $131 $82 $132 forward $126 $-1 #
edge $-1 $200 0 $200 6.2831853071796004 $131 $201 forward 7 unknown #
loop $-1 $-1 $138 $83 #
plane-surface $-1 -55.117648854029952 -16.731697729050573 3.8271430756883831 -0.74314483375859142 0 0.66913059716165679 0.66913059716165679 0 0.74314483375859142 forward_v I I I I #
loop $-1 $-1 $202 $53 #
coedge $-1 $136 $136 $137 $203 reversed $84 $-1 #
coedge $-1 $137 $137 $136 $203 forward $86 $-1 #
coedge $-1 $138 $138 $87 $139 forward $133 $-1 #
edge $-1 $204 0 $204 6.2831853071796004 $138 $205 forward 7 unknown #
face $-1 $206 $207 $21 $-1 $208 reversed single #
loop $-1 $-1 $209 $88 #
plane-surface $-1 -55.117648854029966 0 0 1 0 0 0 0 -1 forward_v I I I I #
coedge $-1 $210 $151 $211 $212 forward $89 $-1 #
coedge $-1 $213 $91 $210 $214 forward $57 $-1 #
coedge $-1 $91 $213 $215 $216 forward $57 $-1 #
coedge $-1 $154 $153 $91 $147 reversed $155 $-1 #
edge $-1 $217 -29.737659552617721 $218 29.737659552617721 $146 $219 forward 7 unknown #
coedge $-1 $93 $92 $220 $221 forward $36 $-1 #
coedge $-1 $222 $223 $92 $150 reversed $207 $-1 #
edge $-1 $157 -55.117648854029966 $224 55.117648854029966 $149 $225 forward 7 unknown #
coedge $-1 $143 $226 $93 $152 reversed $89 $-1 #
edge $-1 $227 -55.117648854029966 $156 55.117648854029966 $151 $228 forward 7 unknown #
coedge $-1 $146 $94 $226 $229 forward $155 $-1 #
coedge $-1 $94 $146 $222 $230 reversed $155 $-1 #
loop $-1 $-1 $153 $206 #
vertex $-1 $95 $231 #
vertex $-1 $95 $232 #
straight-curve $-1 55.117648854029966 0 11.516978888962353 0 1 0 I I #
face $-1 $-1 $233 $22 $-1 $234 reversed single #
loop $-1 $-1 $102 $96 #
plane-surface $-1 0 0 11.516978888962353 0 0 1 1 0 0 forward_v I I I I #
coedge $-1 $235 $236 $237 $238 reversed $97 $-1 #
coedge $-1 $239 $99 $101 $169 forward $61 $-1 #
coedge $-1 $99 $239 $235 $240 forward $61 $-1 #
coedge $-1 $237 $102 $99 $166 forward $160 $-1 #
edge $-1 $172 -12.144026092666827 $241 -3.0087217324454087 $165 $242 forward 7 unknown #
coedge $-1 $243 $244 $100 $168 forward $233 $-1 #
edge $-1 $245 -73.059380417188919 $171 -68.455640076452895 $167 $246 forward 7 unknown #
edge $-1 $172 104.6821835328947 $245 110.23529770805995 $101 $247 forward 7 unknown #
coedge $-1 $102 $237 $243 $248 forward $160 $-1 #
vertex $-1 $168 $249 #
vertex $-1 $103 $250 #
straight-curve $-1 42.432029247529002 19.720400005222945 11.516978888962356 -1 0 0 I I #
coedge $-1 $174 $174 $-1 $251 reversed $106 $-1 #
edge $-1 $252 0 $252 6.2831853071796004 $107 $253 forward 7 unknown #
vertex $-1 $110 $254 #
ellipse-curve $-1 53.565017867808436 15.152747825112236 9.2151087185943616 0.82903758062907751 0 0.55919289150049634 0.55919289150049634 0 -0.82903758062907751 1 I I #
face $-1 $-1 $190 $24 $-1 $255 forward single #
loop $-1 $-1 $256 $111 #
plane-surface $-1 -55.117648854029966 0 0 1 0 0 0 0 -1 forward_v I I I I #
coedge $-1 $257 $258 $259 $260 reversed $112 $-1 #
coedge $-1 $261 $114 $116 $188 forward $70 $-1 #
coedge $-1 $114 $261 $257 $262 forward $70 $-1 #
coedge $-1 $259 $117 $114 $185 forward $190 $-1 #
edge $-1 $192 -14.176238110067853 $263 -2.5554596189827201 $184 $264 forward 7 unknown #
coedge $-1 $265 $266 $115 $187 forward $179 $-1 #
edge $-1 $267 -34.967333753999405 $191 -27.277497940725421 $186 $268 forward 7 unknown #
edge $-1 $192 -10.347694640331703 $267 2.1389731374768986e-014 $116 $269 forward 7 unknown #
coedge $-1 $117 $259 $265 $270 forward $190 $-1 #
loop $-1 $-1 $259 $178 #
vertex $-1 $187 $271 #
vertex $-1 $118 $272 #
straight-curve $-1 -68.519220421807489 -22.54208697459314 11.516978888962356 1 0 0 I I #
coedge $-1 $194 $194 $-1 $273 reversed $121 $-1 #
edge $-1 $274 0 $274 6.2831853071796004 $122 $275 forward 7 unknown #
vertex $-1 $125 $276 #
ellipse-curve $-1 -51.655669307064137 -20.217931276376113 7.672060982325366 -0.74314483375859142 0 0.66913059716165679 0.3345652985808284 0 0.37157241687929571 1 I I #
coedge $-1 $198 $198 $-1 $277 reversed $128 $-1 #
edge $-1 $278 0 $278 6.2831853071796004 $129 $279 forward 7 unknown #
vertex $-1 $132 $280 #
ellipse-curve $-1 -51.655669307064137 -16.731697729050573 7.672060982325366 -0.74314483375859142 0 0.66913059716165679 0.3345652985808284 0 0.37157241687929571 1 I I #
coedge $-1 $202 $202 $-1 $281 reversed $135 $-1 #
edge $-1 $282 0 $282 6.2831853071796004 $136 $283 forward 7 unknown #
vertex $-1 $139 $284 #
ellipse-curve $-1 -51.655669307064137 -13.245464181725033 7.672060982325366 -0.74314483375859142 0 0.66913059716165679 0.3345652985808284 0 0.37157241687929571 1 I I #
face $-1 $-1 $155 $21 $-1 $285 reversed single #
loop $-1 $-1 $222 $140 #
plane-surface $-1 0 29.737659552617721 0 0 -1 0 0 0 -1 forward_v I I I I #
coedge $-1 $286 $220 $223 $287 forward $141 $-1 #
coedge $-1 $226 $143 $144 $214 reversed $89 $-1 #
coedge $-1 $220 $286 $143 $212 reversed $141 $-1 #
edge $-1 $227 -11.516978888962353 $288 11.516978888962353 $211 $289 forward 7 unknown #
coedge $-1 $145 $144 $286 $290 forward $57 $-1 #
edge $-1 $218 -55.117648854029966 $288 55.117648854029966 $210 $291 forward 7 unknown #
coedge $-1 $223 $222 $145 $216 reversed $207 $-1 #
edge $-1 $292 -55.117648854029966 $217 55.117648854029966 $215 $293 forward 7 unknown #
vertex $-1 $147 $294 #
vertex $-1 $229 $295 #
straight-curve $-1 55.117648854029966 0 -11.516978888962353 0 -1 0 I I #
coedge $-1 $209 $211 $148 $221 reversed $141 $-1 #
edge $-1 $224 -29.737659552617721 $227 29.737659552617721 $220 $296 forward 7 unknown #
coedge $-1 $215 $149 $154 $230 forward $207 $-1 #
coedge $-1 $149 $215 $209 $287 reversed $207 $-1 #
vertex $-1 $150 $297 #
straight-curve $-1 0 29.737659552617721 11.516978888962353 -1 0 0 I I #
coedge $-1 $151 $210 $153 $229 reversed $89 $-1 #
vertex $-1 $221 $298 #
straight-curve $-1 0 -29.737659552617721 11.516978888962353 1 0 0 I I #
edge $-1 $156 -11.516978888962353 $218 11.516978888962353 $153 $299 forward 7 unknown #
edge $-1 $157 -11.516978888962353 $217 11.516978888962353 $154 $300 forward 7 unknown #
point $-1 55.117648854029966 -29.737659552617721 11.516978888962353 #
point $-1 55.117648854029966 29.737659552617721 11.516978888962353 #
loop $-1 $-1 $167 $159 #
plane-surface $-1 55.117648854029966 0 0 -1 0 0 0 0 1 forward_v I I I I #
coedge $-1 $236 $162 $164 $240 reversed $97 $-1 #
coedge $-1 $162 $235 $301 $302 reversed $97 $-1 #
coedge $-1 $170 $165 $162 $238 forward $160 $-1 #
edge $-1 $241 9.5803576340579255 $303 12.685619606500964 $237 $304 forward 7 unknown #
coedge $-1 $164 $163 $244 $305 reversed $61 $-1 #
edge $-1 $306 -110.23529770805995 $241 -104.6821835328947 $235 $307 forward 7 unknown #
vertex $-1 $166 $308 #
straight-curve $-1 52.012386881586934 7.576373912556118 11.516978888962356 0 -1 0 I I #
coedge $-1 $301 $167 $170 $248 reversed $233 $-1 #
coedge $-1 $167 $301 $239 $305 forward $233 $-1 #
vertex $-1 $168 $309 #
straight-curve $-1 55.117648854029966 19.720400005222945 79.972618965415251 0 0 1 I I #
straight-curve $-1 -6.5251460167581001 19.720400005222945 98.302443060042435 0.55919289150049634 0 -0.82903758062907751 I I #
edge $-1 $303 10.585095645001527 $171 19.720400005222945 $243 $310 forward 7 unknown #
point $-1 55.117648854029966 19.720400005222945 11.516978888962353 #
point $-1 52.012386881586927 19.720400005222945 11.516978888962356 #
edge $-1 $311 1 $311 0 $174 $-1 forward 7 unknown #
vertex $-1 $175 $312 #
ellipse-curve $-1 52.657496612289641 15.152747825112236 8.6029779215964286 0.82903758062907751 0 0.55919289150049634 0.55919289150049634 0 -0.82903758062907751 1 I I #
point $-1 54.124210759308937 15.152747825112236 8.3860711379652866 #
plane-surface $-1 0 0 11.516978888962353 0 0 1 1 0 0 forward_v I I I I #
coedge $-1 $266 $265 $258 $313 forward $179 $-1 #
coedge $-1 $258 $181 $183 $262 reversed $112 $-1 #
coedge $-1 $181 $257 $256 $313 reversed $112 $-1 #
coedge $-1 $189 $184 $181 $260 forward $190 $-1 #
edge $-1 $263 -20.325530661709166 $314 -13.401571567777523 $259 $315 forward 7 unknown #
coedge $-1 $183 $182 $266 $316 reversed $70 $-1 #
edge $-1 $317 -2.1389731374768986e-014 $263 10.347694640331703 $257 $318 forward 7 unknown #
vertex $-1 $185 $319 #
straight-curve $-1 -48.193689760098323 -8.3658488645252866 11.516978888962353 0 1 0 I I #
coedge $-1 $256 $186 $189 $270 reversed $179 $-1 #
coedge $-1 $186 $256 $261 $316 forward $179 $-1 #
vertex $-1 $187 $320 #
straight-curve $-1 -55.117648854029966 -22.54208697459314 38.794476829687774 0 0 1 I I #
straight-curve $-1 -55.117648854029952 -22.54208697459314 3.8271430756883831 -0.66913059716165679 0 -0.74314483375859142 I I #
edge $-1 $314 10.921308483508007 $191 22.54208697459314 $265 $321 forward 7 unknown #
point $-1 -55.117648854029966 -22.54208697459314 11.516978888962353 #
point $-1 -48.193689760098323 -22.54208697459314 11.516978888962353 #
edge $-1 $322 1 $322 0 $194 $-1 forward 7 unknown #
vertex $-1 $195 $323 #
ellipse-curve $-1 -50.91252447330556 -20.217931276376113 7.0029303851637197 -0.74314483375859142 0 0.66913059716165679 0.3345652985808284 0 0.37157241687929571 1 I I #
point $-1 -51.321104008483324 -20.217931276376113 8.0436333992046727 #
edge $-1 $324 1 $324 0 $198 $-1 forward 7 unknown #
vertex $-1 $199 $325 #
ellipse-curve $-1 -50.91252447330556 -16.731697729050573 7.0029303851637197 -0.74314483375859142 0 0.66913059716165679 0.3345652985808284 0 0.37157241687929571 1 I I #
point $-1 -51.321104008483324 -16.731697729050573 8.0436333992046727 #
edge $-1 $326 1 $326 0 $202 $-1 forward 7 unknown #
vertex $-1 $203 $327 #
ellipse-curve $-1 -50.91252447330556 -13.245464181725033 7.0029303851637197 -0.74314483375859142 0 0.66913059716165679 0.3345652985808284 0 0.37157241687929571 1 I I #
point $-1 -51.321104008483324 -13.245464181725033 8.0436333992046727 #
plane-surface $-1 55.117648854029966 0 0 -1 0 0 0 0 1 forward_v I I I I #
coedge $-1 $211 $209 $213 $290 reversed $141 $-1 #
edge $-1 $224 -11.516978888962353 $292 11.516978888962353 $223 $328 forward 7 unknown #
vertex $-1 $290 $329 #
straight-curve $-1 -55.117648854029966 -29.737659552617721 0 0 0 -1 I I #
edge $-1 $288 -29.737659552617721 $292 29.737659552617721 $286 $330 forward 7 unknown #
straight-curve $-1 0 -29.737659552617721 -11.516978888962353 -1 0 0 I I #
vertex $-1 $216 $331 #
straight-curve $-1 0 29.737659552617721 -11.516978888962353 1 0 0 I I #
point $-1 55.117648854029966 29.737659552617721 -11.516978888962353 #
point $-1 55.117648854029966 -29.737659552617721 -11.516978888962353 #
straight-curve $-1 -55.117648854029966 0 11.516978888962353 0 -1 0 I I #
point $-1 -55.117648854029966 29.737659552617721 11.516978888962353 #
point $-1 -55.117648854029966 -29.737659552617721 11.516978888962353 #
straight-curve $-1 55.117648854029966 -29.737659552617721 0 0 0 -1 I I #
straight-curve $-1 55.117648854029966 29.737659552617721 0 0 0 -1 I I #
coedge $-1 $244 $243 $236 $302 forward $233 $-1 #
edge $-1 $303 68.455640076452895 $306 73.059380417188919 $301 $332 forward 7 unknown #
vertex $-1 $248 $333 #
straight-curve $-1 42.432029247529002 10.585095645001527 11.516978888962356 1 0 0 I I #
edge $-1 $306 3.0087217324454087 $245 12.144026092666827 $244 $334 forward 7 unknown #
vertex $-1 $305 $335 #
straight-curve $-1 -6.5251460167581001 10.585095645001527 98.302443060042435 -0.55919289150049634 0 0.82903758062907751 I I #
point $-1 52.012386881586927 10.585095645001527 11.516978888962356 #
point $-1 55.117648854029973 19.720400005222945 6.9132385482263317 #
straight-curve $-1 55.117648854029966 0 11.516978888962353 0 1 0 I I #
vertex $-1 $251 $336 #
point $-1 53.216689503790136 15.152747825112236 7.77394034096735 #
edge $-1 $314 27.277497940725421 $317 34.967333753999405 $256 $337 forward 7 unknown #
vertex $-1 $270 $338 #
straight-curve $-1 -68.519220421807489 -10.921308483508007 11.516978888962356 -1 0 0 I I #
edge $-1 $317 2.5554596189827201 $267 14.176238110067853 $266 $339 forward 7 unknown #
vertex $-1 $316 $340 #
straight-curve $-1 -55.117648854029952 -10.921308483508007 3.8271430756883831 0.66913059716165679 0 0.74314483375859142 I I #
point $-1 -48.193689760098323 -10.921308483508007 11.516978888962353 #
point $-1 -55.117648854029966 -22.54208697459314 3.8271430756883671 #
straight-curve $-1 -55.117648854029966 0 11.516978888962353 0 -1 0 I I #
vertex $-1 $273 $341 #
point $-1 -50.577959174724732 -20.217931276376113 7.3745028020430148 #
vertex $-1 $277 $342 #
point $-1 -50.577959174724732 -16.731697729050573 7.3745028020430148 #
vertex $-1 $281 $343 #
point $-1 -50.577959174724732 -13.245464181725033 7.3745028020430148 #
straight-curve $-1 -55.117648854029966 29.737659552617721 0 0 0 -1 I I #
point $-1 -55.117648854029966 -29.737659552617721 -11.516978888962353 #
straight-curve $-1 -55.117648854029966 0 -11.516978888962353 0 1 0 I I #
point $-1 -55.117648854029966 29.737659552617721 -11.516978888962353 #
straight-curve $-1 55.117648854029966 10.585095645001527 79.972618965415251 0 0 -1 I I #
point $-1 55.117648854029966 10.585095645001527 11.516978888962353 #
straight-curve $-1 55.117648854029966 7.576373912556118 6.913238548226353 0 1 0 I I #
point $-1 55.117648854029973 10.585095645001527 6.9132385482263317 #
point $-1 51.828459031660564 15.152747825112236 8.0437850300959308 #
straight-curve $-1 -55.117648854029966 -10.921308483508007 38.794476829687774 0 0 -1 I I #
point $-1 -55.117648854029966 -10.921308483508007 11.516978888962353 #
straight-curve $-1 -55.117648854029966 -8.3658488645252866 3.8271430756883644 0 -1 0 I I #
point $-1 -55.117648854029966 -10.921308483508007 3.8271430756883671 #
point $-1 -50.540952056426271 -20.217931276376113 6.6683650865828907 #
point $-1 -50.540952056426271 -16.731697729050573 6.6683650865828907 #
point $-1 -50.540952056426271 -13.245464181725033 6.6683650865828907 #
End-of-ACIS-data 