500 0 17 0           
7 Unknown 11 ACIS 5.0 NT 24 Fri Mar 26 00:37:45 1999 
-1 9.9999999999999995e-007 1e-010 
body $-1 $17 $-1 $18 #
body $-1 $19 $-1 $20 #
body $-1 $21 $-1 $22 #
body $-1 $23 $-1 $24 #
body $-1 $25 $-1 $26 #
body $-1 $27 $-1 $28 #
body $-1 $29 $-1 $30 #
body $-1 $31 $-1 $32 #
body $-1 $33 $-1 $34 #
body $-1 $35 $-1 $36 #
body $-1 $37 $-1 $38 #
body $-1 $39 $-1 $40 #
body $-1 $41 $-1 $42 #
body $-1 $43 $-1 $44 #
body $-1 $45 $-1 $46 #
body $-1 $47 $-1 $48 #
body $-1 $49 $-1 $50 #
lump $-1 $-1 $51 $0 #
transform $-1 1 0 0 0 1 0 0 0 1 44.284798730430005 25.050164631138646 10.936387985298953 1 rotate no_reflect no_shear #
lump $-1 $-1 $52 $1 #
transform $-1 1 0 0 0 1 0 0 0 1 44.284798730430005 25.050164631138646 10.936387985298953 1 rotate no_reflect no_shear #
lump $-1 $-1 $53 $2 #
transform $-1 1 0 0 0 1 0 0 0 1 44.284798730430005 25.050164631138646 10.936387985298953 1 rotate no_reflect no_shear #
lump $-1 $-1 $54 $3 #
transform $-1 1 0 0 0 1 0 0 0 1 44.284798730430005 25.050164631138646 10.936387985298953 1 rotate no_reflect no_shear #
lump $-1 $-1 $55 $4 #
transform $-1 1 0 0 0 1 0 0 0 1 44.284798730430005 25.050164631138646 10.936387985298953 1 rotate no_reflect no_shear #
lump $-1 $-1 $56 $5 #
transform $-1 1 0 0 0 1 0 0 0 1 44.284798730430005 25.050164631138646 10.936387985298953 1 rotate no_reflect no_shear #
lump $-1 $-1 $57 $6 #
transform $-1 1 0 0 0 1 0 0 0 1 44.284798730430005 25.050164631138646 10.936387985298953 1 rotate no_reflect no_shear #
lump $-1 $-1 $58 $7 #
transform $-1 1 0 0 0 1 0 0 0 1 44.284798730430005 25.050164631138646 10.936387985298953 1 rotate no_reflect no_shear #
lump $-1 $-1 $59 $8 #
transform $-1 1 0 0 0 1 0 0 0 1 44.284798730430005 25.050164631138646 10.936387985298953 1 rotate no_reflect no_shear #
lump $-1 $-1 $60 $9 #
transform $-1 1 0 0 0 1 0 0 0 1 44.284798730430005 25.050164631138646 10.936387985298953 1 rotate no_reflect no_shear #
lump $-1 $-1 $61 $10 #
transform $-1 1 0 0 0 1 0 0 0 1 44.284798730430005 25.050164631138646 10.936387985298953 1 rotate no_reflect no_shear #
lump $-1 $-1 $62 $11 #
transform $-1 1 0 0 0 1 0 0 0 1 44.284798730430005 25.050164631138646 10.936387985298953 1 rotate no_reflect no_shear #
lump $-1 $-1 $63 $12 #
transform $-1 1 0 0 0 1 0 0 0 1 44.284798730430005 25.050164631138646 10.936387985298953 1 rotate no_reflect no_shear #
lump $-1 $-1 $64 $13 #
transform $-1 1 0 0 0 1 0 0 0 1 44.284798730430005 25.050164631138646 10.936387985298953 1 rotate no_reflect no_shear #
lump $-1 $-1 $65 $14 #
transform $-1 1 0 0 0 1 0 0 0 1 44.284798730430005 25.050164631138646 10.936387985298953 1 rotate no_reflect no_shear #
lump $-1 $-1 $66 $15 #
transform $-1 1 0 0 0 1 0 0 0 1 44.284798730430005 25.050164631138646 10.936387985298953 1 rotate no_reflect no_shear #
lump $-1 $-1 $67 $16 #
transform $-1 1 0 0 0 1 0 0 0 1 44.284798730430005 25.050164631138646 10.936387985298953 1 rotate no_reflect no_shear #
shell $-1 $-1 $-1 $68 $-1 $17 #
shell $-1 $-1 $-1 $69 $-1 $19 #
shell $-1 $-1 $-1 $70 $-1 $21 #
shell $-1 $-1 $-1 $71 $-1 $23 #
shell $-1 $-1 $-1 $72 $-1 $25 #
shell $-1 $-1 $-1 $73 $-1 $27 #
shell $-1 $-1 $-1 $74 $-1 $29 #
shell $-1 $-1 $-1 $75 $-1 $31 #
shell $-1 $-1 $-1 $76 $-1 $33 #
shell $-1 $-1 $-1 $77 $-1 $35 #
shell $-1 $-1 $-1 $78 $-1 $37 #
shell $-1 $-1 $-1 $79 $-1 $39 #
shell $-1 $-1 $-1 $80 $-1 $41 #
shell $-1 $-1 $-1 $81 $-1 $43 #
shell $-1 $-1 $-1 $82 $-1 $45 #
shell $-1 $-1 $-1 $83 $-1 $47 #
shell $-1 $-1 $-1 $84 $-1 $49 #
face $-1 $85 $86 $51 $-1 $87 forward single #
face $-1 $88 $89 $52 $-1 $90 reversed single #
face $-1 $91 $92 $53 $-1 $93 forward single #
face $-1 $94 $95 $54 $-1 $96 forward single #
face $-1 $97 $98 $55 $-1 $99 forward single #
face $-1 $100 $101 $56 $-1 $102 reversed single #
face $-1 $103 $104 $57 $-1 $105 forward single #
face $-1 $106 $107 $58 $-1 $108 forward single #
face $-1 $109 $110 $59 $-1 $111 forward single #
face $-1 $112 $113 $60 $-1 $114 reversed single #
face $-1 $115 $116 $61 $-1 $117 forward single #
face $-1 $118 $119 $62 $-1 $120 forward single #
face $-1 $121 $122 $63 $-1 $123 forward single #
face $-1 $124 $125 $64 $-1 $126 reversed single #
face $-1 $127 $128 $65 $-1 $129 forward single #
face $-1 $130 $131 $66 $-1 $132 forward single #
face $-1 $133 $134 $67 $-1 $135 forward single #
face $-1 $136 $137 $51 $-1 $138 reversed single #
loop $-1 $-1 $139 $68 #
plane-surface $-1 0 0 10.936387985298953 0 0 1 1 0 0 forward_v I I I I #
face $-1 $140 $141 $52 $-1 $142 reversed single #
loop $-1 $-1 $143 $69 #
plane-surface $-1 -31.514012615025724 45.345851326923082 103.16720707766828 -1 0 0 0 0.6560590369687036 0.75470957328743171 forward_v I I I I #
face $-1 $144 $145 $53 $-1 $146 forward single #
loop $-1 $147 $148 $70 #
cone-surface $-1 -41.730641507349148 19.952876955421594 6.2823169983432274 0 -0.6560590369687036 -0.75470957328743171 1 0 0 1 I I 0 1 1 forward I I I I #
face $-1 $149 $150 $54 $-1 $151 forward single #
loop $-1 $152 $153 $71 #
cone-surface $-1 -37.899405672727866 19.952876955421594 6.2823169983432274 0 -0.6560590369687036 -0.75470957328743171 1 0 0 1 I I 0 1 1 forward I I I I #
face $-1 $154 $155 $55 $-1 $156 forward single #
loop $-1 $157 $158 $72 #
cone-surface $-1 -34.068169838106577 19.952876955421594 6.2823169983432274 0 -0.6560590369687036 -0.75470957328743171 1 0 0 1 I I 0 1 1 forward I I I I #
face $-1 $159 $160 $56 $-1 $161 reversed single #
loop $-1 $-1 $162 $73 #
plane-surface $-1 -6.2477421665404762 45.345851326923082 103.16720707766828 -1 0 0 0 0.6560590369687036 0.75470957328743171 forward_v I I I I #
face $-1 $163 $164 $57 $-1 $165 forward single #
loop $-1 $166 $167 $74 #
cone-surface $-1 -16.464371058863904 19.952876955421594 6.2823169983432274 0 -0.6560590369687036 -0.75470957328743171 1 0 0 1 I I 0 1 1 forward I I I I #
face $-1 $168 $169 $58 $-1 $170 forward single #
loop $-1 $171 $172 $75 #
cone-surface $-1 -12.633135224242618 19.952876955421594 6.2823169983432274 0 -0.6560590369687036 -0.75470957328743171 1 0 0 1 I I 0 1 1 forward I I I I #
face $-1 $173 $174 $59 $-1 $175 forward single #
loop $-1 $176 $177 $76 #
cone-surface $-1 -8.8018993896213331 19.952876955421594 6.2823169983432274 0 -0.6560590369687036 -0.75470957328743171 1 0 0 1 I I 0 1 1 forward I I I I #
face $-1 $178 $179 $60 $-1 $180 reversed single #
loop $-1 $-1 $181 $77 #
plane-surface $-1 19.018528281944771 45.345851326923082 103.16720707766828 -1 0 0 0 0.6560590369687036 0.75470957328743171 forward_v I I I I #
face $-1 $182 $183 $61 $-1 $184 forward single #
loop $-1 $185 $186 $78 #
cone-surface $-1 8.8018993896213402 19.952876955421594 6.2823169983432274 0 -0.6560590369687036 -0.75470957328743171 1 0 0 1 I I 0 1 1 forward I I I I #
face $-1 $187 $188 $62 $-1 $189 forward single #
loop $-1 $190 $191 $79 #
cone-surface $-1 12.633135224242629 19.952876955421594 6.2823169983432274 0 -0.6560590369687036 -0.75470957328743171 1 0 0 1 I I 0 1 1 forward I I I I #
face $-1 $192 $193 $63 $-1 $194 forward single #
loop $-1 $195 $196 $80 #
cone-surface $-1 16.464371058863911 19.952876955421594 6.2823169983432274 0 -0.6560590369687036 -0.75470957328743171 1 0 0 1 I I 0 1 1 forward I I I I #
face $-1 $197 $198 $64 $-1 $199 reversed single #
loop $-1 $-1 $200 $81 #
plane-surface $-1 37.899405672727873 -12.761033487954471 36.322883971743025 0 0.6560590369687036 0.75470957328743171 1 0 0 forward_v I I I I #
face $-1 $201 $202 $65 $-1 $203 forward single #
loop $-1 $204 $205 $82 #
cone-surface $-1 34.068169838106591 19.952876955421594 6.2823169983432274 0 -0.6560590369687036 -0.75470957328743171 1 0 0 1 I I 0 1 1 forward I I I I #
face $-1 $206 $207 $66 $-1 $208 forward single #
loop $-1 $209 $210 $83 #
cone-surface $-1 37.899405672727873 19.952876955421594 6.2823169983432274 0 -0.6560590369687036 -0.75470957328743171 1 0 0 1 I I 0 1 1 forward I I I I #
face $-1 $211 $212 $67 $-1 $213 forward single #
loop $-1 $214 $215 $84 #
cone-surface $-1 41.730641507349155 19.952876955421594 6.2823169983432274 0 -0.6560590369687036 -0.75470957328743171 1 0 0 1 I I 0 1 1 forward I I I I #
face $-1 $216 $217 $51 $-1 $218 reversed single #
loop $-1 $-1 $219 $85 #
plane-surface $-1 0 0 -10.936387985298953 0 0 1 1 0 0 forward_v I I I I #
coedge $-1 $220 $221 $222 $223 forward $86 $-1 #
face $-1 $224 $225 $52 $-1 $226 reversed single #
loop $-1 $-1 $227 $88 #
plane-surface $-1 -37.899405672727866 -12.761033487954471 36.322883971743025 0 0.6560590369687036 0.75470957328743171 1 0 0 forward_v I I I I #
coedge $-1 $228 $229 $230 $231 reversed $89 $-1 #
face $-1 $-1 $232 $53 $-1 $233 forward single #
loop $-1 $234 $235 $91 #
cone-surface $-1 -41.730641507349148 18.831247656096455 4.9920301153340425 0 -0.6560590369687036 -0.75470957328743171 0.5 0 0 1 I I -0.70710678118654746 0.70710678118654746 0.5 forward I I I I #
loop $-1 $-1 $236 $70 #
coedge $-1 $148 $148 $237 $238 reversed $92 $-1 #
face $-1 $-1 $239 $54 $-1 $240 forward single #
loop $-1 $241 $242 $94 #
cone-surface $-1 -37.899405672727866 18.831247656096455 4.9920301153340425 0 -0.6560590369687036 -0.75470957328743171 0.5 0 0 1 I I -0.70710678118654746 0.70710678118654746 0.5 forward I I I I #
loop $-1 $-1 $243 $71 #
coedge $-1 $153 $153 $244 $245 reversed $95 $-1 #
face $-1 $-1 $246 $55 $-1 $247 forward single #
loop $-1 $248 $249 $97 #
cone-surface $-1 -34.068169838106577 18.831247656096455 4.9920301153340425 0 -0.6560590369687036 -0.75470957328743171 0.5 0 0 1 I I -0.70710678118654746 0.70710678118654746 0.5 forward I I I I #
loop $-1 $-1 $250 $72 #
coedge $-1 $158 $158 $251 $252 reversed $98 $-1 #
face $-1 $253 $254 $56 $-1 $255 reversed single #
loop $-1 $-1 $256 $100 #
plane-surface $-1 -12.633135224242618 -12.761033487954471 36.322883971743025 0 0.6560590369687036 0.75470957328743171 1 0 0 forward_v I I I I #
coedge $-1 $257 $258 $259 $260 reversed $101 $-1 #
face $-1 $-1 $261 $57 $-1 $262 forward single #
loop $-1 $263 $264 $103 #
cone-surface $-1 -16.464371058863904 18.831247656096455 4.9920301153340425 0 -0.6560590369687036 -0.75470957328743171 0.5 0 0 1 I I -0.70710678118654746 0.70710678118654746 0.5 forward I I I I #
loop $-1 $-1 $265 $74 #
coedge $-1 $167 $167 $266 $267 reversed $104 $-1 #
face $-1 $-1 $268 $58 $-1 $269 forward single #
loop $-1 $270 $271 $106 #
cone-surface $-1 -12.633135224242618 18.831247656096455 4.9920301153340425 0 -0.6560590369687036 -0.75470957328743171 0.5 0 0 1 I I -0.70710678118654746 0.70710678118654746 0.5 forward I I I I #
loop $-1 $-1 $272 $75 #
coedge $-1 $172 $172 $273 $274 reversed $107 $-1 #
face $-1 $-1 $275 $59 $-1 $276 forward single #
loop $-1 $277 $278 $109 #
cone-surface $-1 -8.8018993896213331 18.831247656096455 4.9920301153340425 0 -0.6560590369687036 -0.75470957328743171 0.5 0 0 1 I I -0.70710678118654746 0.70710678118654746 0.5 forward I I I I #
loop $-1 $-1 $279 $76 #
coedge $-1 $177 $177 $280 $281 reversed $110 $-1 #
face $-1 $282 $283 $60 $-1 $284 reversed single #
loop $-1 $-1 $285 $112 #
plane-surface $-1 12.633135224242629 -12.761033487954471 36.322883971743025 0 0.6560590369687036 0.75470957328743171 1 0 0 forward_v I I I I #
coedge $-1 $286 $287 $288 $289 reversed $113 $-1 #
face $-1 $-1 $290 $61 $-1 $291 forward single #
loop $-1 $292 $293 $115 #
cone-surface $-1 8.8018993896213402 18.831247656096455 4.9920301153340425 0 -0.6560590369687036 -0.75470957328743171 0.5 0 0 1 I I -0.70710678118654746 0.70710678118654746 0.5 forward I I I I #
loop $-1 $-1 $294 $78 #
coedge $-1 $186 $186 $295 $296 reversed $116 $-1 #
face $-1 $-1 $297 $62 $-1 $298 forward single #
loop $-1 $299 $300 $118 #
cone-surface $-1 12.633135224242629 18.831247656096455 4.9920301153340425 0 -0.6560590369687036 -0.75470957328743171 0.5 0 0 1 I I -0.70710678118654746 0.70710678118654746 0.5 forward I I I I #
loop $-1 $-1 $301 $79 #
coedge $-1 $191 $191 $302 $303 reversed $119 $-1 #
face $-1 $-1 $304 $63 $-1 $305 forward single #
loop $-1 $306 $307 $121 #
cone-surface $-1 16.464371058863911 18.831247656096455 4.9920301153340425 0 -0.6560590369687036 -0.75470957328743171 0.5 0 0 1 I I -0.70710678118654746 0.70710678118654746 0.5 forward I I I I #
loop $-1 $-1 $308 $80 #
coedge $-1 $196 $196 $309 $310 reversed $122 $-1 #
face $-1 $311 $312 $64 $-1 $313 forward single #
loop $-1 $-1 $314 $124 #
plane-surface $-1 31.514012615025731 45.345851326923082 103.16720707766828 1 0 0 0 -0.6560590369687036 -0.75470957328743171 forward_v I I I I #
coedge $-1 $315 $316 $317 $318 reversed $125 $-1 #
face $-1 $-1 $319 $65 $-1 $320 forward single #
loop $-1 $321 $322 $127 #
cone-surface $-1 34.068169838106591 18.831247656096455 4.9920301153340425 0 -0.6560590369687036 -0.75470957328743171 0.5 0 0 1 I I -0.70710678118654746 0.70710678118654746 0.5 forward I I I I #
loop $-1 $-1 $323 $82 #
coedge $-1 $205 $205 $324 $325 reversed $128 $-1 #
face $-1 $-1 $326 $66 $-1 $327 forward single #
loop $-1 $328 $329 $130 #
cone-surface $-1 37.899405672727873 18.831247656096455 4.9920301153340425 0 -0.6560590369687036 -0.75470957328743171 0.5 0 0 1 I I -0.70710678118654746 0.70710678118654746 0.5 forward I I I I #
loop $-1 $-1 $330 $83 #
coedge $-1 $210 $210 $331 $332 reversed $131 $-1 #
face $-1 $-1 $333 $67 $-1 $334 forward single #
loop $-1 $335 $336 $133 #
cone-surface $-1 41.730641507349155 18.831247656096455 4.9920301153340425 0 -0.6560590369687036 -0.75470957328743171 0.5 0 0 1 I I -0.70710678118654746 0.70710678118654746 0.5 forward I I I I #
loop $-1 $-1 $337 $84 #
coedge $-1 $215 $215 $338 $339 reversed $134 $-1 #
face $-1 $340 $341 $51 $-1 $342 reversed single #
loop $-1 $-1 $343 $136 #
plane-surface $-1 0 -25.050164631138646 0 0 1 0 0 0 1 forward_v I I I I #
coedge $-1 $344 $345 $346 $347 forward $137 $-1 #
coedge $-1 $348 $139 $349 $350 forward $86 $-1 #
coedge $-1 $139 $348 $351 $352 forward $86 $-1 #
coedge $-1 $353 $354 $139 $223 reversed $355 $-1 #
edge $-1 $356 -25.050164631138646 $357 25.050164631138646 $222 $358 forward 7 unknown #
face $-1 $359 $360 $52 $-1 $361 forward single #
loop $-1 $-1 $230 $140 #
plane-surface $-1 0 25.050164631138646 0 0 -1 0 0 0 -1 forward_v I I I I #
coedge $-1 $362 $363 $364 $365 reversed $141 $-1 #
coedge $-1 $229 $143 $366 $367 reversed $89 $-1 #
coedge $-1 $143 $228 $362 $368 reversed $89 $-1 #
coedge $-1 $364 $369 $143 $231 forward $225 $-1 #
edge $-1 $370 40.64721555353519 $371 48.129493334715711 $230 $372 forward 7 unknown #
loop $-1 $-1 $237 $144 #
plane-surface $-1 -37.899405672727866 -12.761033487954471 36.322883971743025 0 0.6560590369687036 0.75470957328743171 1 0 0 forward_v I I I I #
loop $-1 $-1 $373 $91 #
coedge $-1 $235 $235 $236 $374 reversed $145 $-1 #
coedge $-1 $236 $236 $235 $374 forward $147 $-1 #
coedge $-1 $237 $237 $148 $238 forward $232 $-1 #
edge $-1 $375 3.5047710980055092e-016 $375 6.2831853071796004 $237 $376 forward 7 unknown #
loop $-1 $-1 $244 $149 #
plane-surface $-1 -37.899405672727866 -12.761033487954471 36.322883971743025 0 0.6560590369687036 0.75470957328743171 1 0 0 forward_v I I I I #
loop $-1 $-1 $377 $94 #
coedge $-1 $242 $242 $243 $378 reversed $150 $-1 #
coedge $-1 $243 $243 $242 $378 forward $152 $-1 #
coedge $-1 $244 $244 $153 $245 forward $239 $-1 #
edge $-1 $379 3.5047710980055092e-016 $379 6.2831853071796004 $244 $380 forward 7 unknown #
loop $-1 $-1 $251 $154 #
plane-surface $-1 -37.899405672727866 -12.761033487954471 36.322883971743025 0 0.6560590369687036 0.75470957328743171 1 0 0 forward_v I I I I #
loop $-1 $-1 $381 $97 #
coedge $-1 $249 $249 $250 $382 reversed $155 $-1 #
coedge $-1 $250 $250 $249 $382 forward $157 $-1 #
coedge $-1 $251 $251 $158 $252 forward $246 $-1 #
edge $-1 $383 3.5047710980055092e-016 $383 6.2831853071796004 $251 $384 forward 7 unknown #
face $-1 $385 $386 $56 $-1 $387 forward single #
loop $-1 $-1 $388 $159 #
plane-surface $-1 -19.018528281944761 45.345851326923082 103.16720707766828 1 0 0 0 -0.6560590369687036 -0.75470957328743171 forward_v I I I I #
coedge $-1 $389 $390 $391 $392 reversed $160 $-1 #
coedge $-1 $258 $162 $393 $394 reversed $101 $-1 #
coedge $-1 $162 $257 $389 $395 reversed $101 $-1 #
coedge $-1 $391 $396 $162 $260 forward $397 $-1 #
edge $-1 $398 40.64721555353519 $399 48.129493334715711 $259 $400 forward 7 unknown #
loop $-1 $-1 $266 $163 #
plane-surface $-1 -12.633135224242618 -12.761033487954471 36.322883971743025 0 0.6560590369687036 0.75470957328743171 1 0 0 forward_v I I I I #
loop $-1 $-1 $401 $103 #
coedge $-1 $264 $264 $265 $402 reversed $164 $-1 #
coedge $-1 $265 $265 $264 $402 forward $166 $-1 #
coedge $-1 $266 $266 $167 $267 forward $261 $-1 #
edge $-1 $403 3.5047710980055092e-016 $403 6.2831853071796004 $266 $404 forward 7 unknown #
loop $-1 $-1 $273 $168 #
plane-surface $-1 -12.633135224242618 -12.761033487954471 36.322883971743025 0 0.6560590369687036 0.75470957328743171 1 0 0 forward_v I I I I #
loop $-1 $-1 $405 $106 #
coedge $-1 $271 $271 $272 $406 reversed $169 $-1 #
coedge $-1 $272 $272 $271 $406 forward $171 $-1 #
coedge $-1 $273 $273 $172 $274 forward $268 $-1 #
edge $-1 $407 3.5047710980055092e-016 $407 6.2831853071796004 $273 $408 forward 7 unknown #
loop $-1 $-1 $280 $173 #
plane-surface $-1 -12.633135224242618 -12.761033487954471 36.322883971743025 0 0.6560590369687036 0.75470957328743171 1 0 0 forward_v I I I I #
loop $-1 $-1 $409 $109 #
coedge $-1 $278 $278 $279 $410 reversed $174 $-1 #
coedge $-1 $279 $279 $278 $410 forward $176 $-1 #
coedge $-1 $280 $280 $177 $281 forward $275 $-1 #
edge $-1 $411 3.5047710980055092e-016 $411 6.2831853071796004 $280 $412 forward 7 unknown #
face $-1 $413 $414 $60 $-1 $415 forward single #
loop $-1 $-1 $416 $178 #
plane-surface $-1 6.2477421665404869 45.345851326923082 103.16720707766828 1 0 0 0 -0.6560590369687036 -0.75470957328743171 forward_v I I I I #
coedge $-1 $417 $418 $419 $420 reversed $179 $-1 #
coedge $-1 $287 $181 $421 $422 reversed $113 $-1 #
coedge $-1 $181 $286 $417 $423 reversed $113 $-1 #
coedge $-1 $419 $424 $181 $289 forward $425 $-1 #
edge $-1 $426 40.64721555353519 $427 48.129493334715711 $288 $428 forward 7 unknown #
loop $-1 $-1 $295 $182 #
plane-surface $-1 12.633135224242629 -12.761033487954471 36.322883971743025 0 0.6560590369687036 0.75470957328743171 1 0 0 forward_v I I I I #
loop $-1 $-1 $429 $115 #
coedge $-1 $293 $293 $294 $430 reversed $183 $-1 #
coedge $-1 $294 $294 $293 $430 forward $185 $-1 #
coedge $-1 $295 $295 $186 $296 forward $290 $-1 #
edge $-1 $431 3.5047710980055092e-016 $431 6.2831853071796004 $295 $432 forward 7 unknown #
loop $-1 $-1 $302 $187 #
plane-surface $-1 12.633135224242629 -12.761033487954471 36.322883971743025 0 0.6560590369687036 0.75470957328743171 1 0 0 forward_v I I I I #
loop $-1 $-1 $433 $118 #
coedge $-1 $300 $300 $301 $434 reversed $188 $-1 #
coedge $-1 $301 $301 $300 $434 forward $190 $-1 #
coedge $-1 $302 $302 $191 $303 forward $297 $-1 #
edge $-1 $435 3.5047710980055092e-016 $435 6.2831853071796004 $302 $436 forward 7 unknown #
loop $-1 $-1 $309 $192 #
plane-surface $-1 12.633135224242629 -12.761033487954471 36.322883971743025 0 0.6560590369687036 0.75470957328743171 1 0 0 forward_v I I I I #
loop $-1 $-1 $437 $121 #
coedge $-1 $307 $307 $308 $438 reversed $193 $-1 #
coedge $-1 $308 $308 $307 $438 forward $195 $-1 #
coedge $-1 $309 $309 $196 $310 forward $304 $-1 #
edge $-1 $439 3.5047710980055092e-016 $439 6.2831853071796004 $309 $440 forward 7 unknown #
face $-1 $441 $442 $64 $-1 $443 reversed single #
loop $-1 $-1 $444 $197 #
plane-surface $-1 0 0 10.936387985298953 0 0 1 1 0 0 forward_v I I I I #
coedge $-1 $445 $446 $447 $448 reversed $198 $-1 #
coedge $-1 $449 $200 $450 $451 reversed $125 $-1 #
coedge $-1 $200 $449 $445 $452 forward $125 $-1 #
coedge $-1 $447 $453 $200 $318 forward $454 $-1 #
edge $-1 $455 -25.335095894066075 $456 -12.564309778661794 $317 $457 forward 7 unknown #
loop $-1 $-1 $324 $201 #
plane-surface $-1 37.899405672727873 -12.761033487954471 36.322883971743025 0 0.6560590369687036 0.75470957328743171 1 0 0 forward_v I I I I #
loop $-1 $-1 $458 $127 #
coedge $-1 $322 $322 $323 $459 reversed $202 $-1 #
coedge $-1 $323 $323 $322 $459 forward $204 $-1 #
coedge $-1 $324 $324 $205 $325 forward $319 $-1 #
edge $-1 $460 3.5047710980055092e-016 $460 6.2831853071796004 $324 $461 forward 7 unknown #
loop $-1 $-1 $331 $206 #
plane-surface $-1 37.899405672727873 -12.761033487954471 36.322883971743025 0 0.6560590369687036 0.75470957328743171 1 0 0 forward_v I I I I #
loop $-1 $-1 $462 $130 #
coedge $-1 $329 $329 $330 $463 reversed $207 $-1 #
coedge $-1 $330 $330 $329 $463 forward $209 $-1 #
coedge $-1 $331 $331 $210 $332 forward $326 $-1 #
edge $-1 $464 3.5047710980055092e-016 $464 6.2831853071796004 $331 $465 forward 7 unknown #
loop $-1 $-1 $338 $211 #
plane-surface $-1 37.899405672727873 -12.761033487954471 36.322883971743025 0 0.6560590369687036 0.75470957328743171 1 0 0 forward_v I I I I #
loop $-1 $-1 $466 $133 #
coedge $-1 $336 $336 $337 $467 reversed $212 $-1 #
coedge $-1 $337 $337 $336 $467 forward $214 $-1 #
coedge $-1 $338 $338 $215 $339 forward $333 $-1 #
edge $-1 $468 3.5047710980055092e-016 $468 6.2831853071796004 $338 $469 forward 7 unknown #
face $-1 $470 $471 $51 $-1 $472 reversed single #
loop $-1 $-1 $473 $216 #
plane-surface $-1 -44.284798730430005 0 0 1 0 0 0 0 -1 forward_v I I I I #
coedge $-1 $474 $351 $475 $476 forward $217 $-1 #
coedge $-1 $477 $219 $474 $478 forward $137 $-1 #
coedge $-1 $219 $477 $479 $480 forward $137 $-1 #
coedge $-1 $354 $353 $219 $347 reversed $355 $-1 #
edge $-1 $481 -25.050164631138646 $482 25.050164631138646 $346 $483 forward 7 unknown #
coedge $-1 $221 $220 $484 $485 forward $86 $-1 #
coedge $-1 $486 $487 $220 $350 reversed $471 $-1 #
edge $-1 $357 -44.284798730430005 $488 44.284798730430005 $349 $489 forward 7 unknown #
coedge $-1 $343 $490 $221 $352 reversed $217 $-1 #
edge $-1 $491 -44.284798730430005 $356 44.284798730430005 $351 $492 forward 7 unknown #
coedge $-1 $346 $222 $490 $493 forward $355 $-1 #
coedge $-1 $222 $346 $486 $494 reversed $355 $-1 #
loop $-1 $-1 $353 $470 #
vertex $-1 $223 $495 #
vertex $-1 $223 $496 #
straight-curve $-1 44.284798730430005 0 10.936387985298953 0 1 0 I I #
face $-1 $-1 $497 $52 $-1 $498 reversed single #
loop $-1 $-1 $366 $224 #
plane-surface $-1 0 0 10.936387985298953 0 0 1 1 0 0 forward_v I I I I #
coedge $-1 $499 $227 $229 $368 forward $141 $-1 #
coedge $-1 $227 $499 $500 $501 reversed $141 $-1 #
coedge $-1 $502 $230 $227 $365 forward $225 $-1 #
edge $-1 $371 12.564309778661791 $503 25.335095894066072 $364 $504 forward 7 unknown #
coedge $-1 $505 $506 $228 $367 forward $360 $-1 #
edge $-1 $507 -6.2301368220754334 $370 2.3772389676771049 $366 $508 forward 7 unknown #
edge $-1 $371 -50.100329262277285 $507 -38.69544439741496 $229 $509 forward 7 unknown #
coedge $-1 $230 $502 $505 $510 reversed $225 $-1 #
vertex $-1 $510 $511 #
vertex $-1 $231 $512 #
straight-curve $-1 -31.514012615025724 25.050164631138646 51.58360353883414 0 0 -1 I I #
coedge $-1 $373 $373 $-1 $513 reversed $234 $-1 #
edge $-1 $514 0 $514 6.2831853071796004 $235 $515 forward 7 unknown #
vertex $-1 $238 $516 #
ellipse-curve $-1 -41.730641507349148 20.746476736262377 7.1952490947086911 0 0.6560590369687036 0.75470957328743171 1 0 0 1 I I #
coedge $-1 $377 $377 $-1 $517 reversed $241 $-1 #
edge $-1 $518 0 $518 6.2831853071796004 $242 $519 forward 7 unknown #
vertex $-1 $245 $520 #
ellipse-curve $-1 -37.899405672727866 20.746476736262377 7.1952490947086911 0 0.6560590369687036 0.75470957328743171 1 0 0 1 I I #
coedge $-1 $381 $381 $-1 $521 reversed $248 $-1 #
edge $-1 $522 0 $522 6.2831853071796004 $249 $523 forward 7 unknown #
vertex $-1 $252 $524 #
ellipse-curve $-1 -34.068169838106577 20.746476736262377 7.1952490947086911 0 0.6560590369687036 0.75470957328743171 1 0 0 1 I I #
face $-1 $-1 $397 $56 $-1 $525 reversed single #
loop $-1 $-1 $526 $253 #
plane-surface $-1 0 0 10.936387985298953 0 0 1 1 0 0 forward_v I I I I #
coedge $-1 $527 $528 $529 $530 reversed $254 $-1 #
coedge $-1 $531 $256 $258 $395 forward $160 $-1 #
coedge $-1 $256 $531 $527 $532 forward $160 $-1 #
coedge $-1 $529 $259 $256 $392 forward $397 $-1 #
edge $-1 $399 -0.068825445580833033 $533 12.701960669823452 $391 $534 forward 7 unknown #
coedge $-1 $535 $536 $257 $394 forward $386 $-1 #
edge $-1 $537 -6.2301368220754334 $398 2.3772389676771049 $393 $538 forward 7 unknown #
edge $-1 $399 -50.100329262277285 $537 -38.69544439741496 $258 $539 forward 7 unknown #
coedge $-1 $259 $529 $535 $540 reversed $397 $-1 #
loop $-1 $-1 $529 $385 #
vertex $-1 $540 $541 #
vertex $-1 $260 $542 #
straight-curve $-1 -6.2477421665404762 25.050164631138646 51.58360353883414 0 0 -1 I I #
coedge $-1 $401 $401 $-1 $543 reversed $263 $-1 #
edge $-1 $544 0 $544 6.2831853071796004 $264 $545 forward 7 unknown #
vertex $-1 $267 $546 #
ellipse-curve $-1 -16.464371058863904 20.746476736262377 7.1952490947086911 0 0.6560590369687036 0.75470957328743171 1 0 0 1 I I #
coedge $-1 $405 $405 $-1 $547 reversed $270 $-1 #
edge $-1 $548 0 $548 6.2831853071796004 $271 $549 forward 7 unknown #
vertex $-1 $274 $550 #
ellipse-curve $-1 -12.633135224242618 20.746476736262377 7.1952490947086911 0 0.6560590369687036 0.75470957328743171 1 0 0 1 I I #
coedge $-1 $409 $409 $-1 $551 reversed $277 $-1 #
edge $-1 $552 0 $552 6.2831853071796004 $278 $553 forward 7 unknown #
vertex $-1 $281 $554 #
ellipse-curve $-1 -8.8018993896213331 20.746476736262377 7.1952490947086911 0 0.6560590369687036 0.75470957328743171 1 0 0 1 I I #
face $-1 $-1 $425 $60 $-1 $555 reversed single #
loop $-1 $-1 $556 $282 #
plane-surface $-1 0 0 10.936387985298953 0 0 1 1 0 0 forward_v I I I I #
coedge $-1 $557 $558 $559 $560 reversed $283 $-1 #
coedge $-1 $561 $285 $287 $423 forward $179 $-1 #
coedge $-1 $285 $561 $557 $562 forward $179 $-1 #
coedge $-1 $559 $288 $285 $420 forward $425 $-1 #
edge $-1 $427 -12.701960669823457 $563 0.068825445580827704 $419 $564 forward 7 unknown #
coedge $-1 $565 $566 $286 $422 forward $414 $-1 #
edge $-1 $567 -6.2301368220754334 $426 2.3772389676771049 $421 $568 forward 7 unknown #
edge $-1 $427 -50.100329262277285 $567 -38.69544439741496 $287 $569 forward 7 unknown #
coedge $-1 $288 $559 $565 $570 reversed $425 $-1 #
loop $-1 $-1 $559 $413 #
vertex $-1 $570 $571 #
vertex $-1 $289 $572 #
straight-curve $-1 19.018528281944771 25.050164631138646 51.58360353883414 0 0 -1 I I #
coedge $-1 $429 $429 $-1 $573 reversed $292 $-1 #
edge $-1 $574 0 $574 6.2831853071796004 $293 $575 forward 7 unknown #
vertex $-1 $296 $576 #
ellipse-curve $-1 8.8018993896213402 20.746476736262377 7.1952490947086911 0 0.6560590369687036 0.75470957328743171 1 0 0 1 I I #
coedge $-1 $433 $433 $-1 $577 reversed $299 $-1 #
edge $-1 $578 0 $578 6.2831853071796004 $300 $579 forward 7 unknown #
vertex $-1 $303 $580 #
ellipse-curve $-1 12.633135224242629 20.746476736262377 7.1952490947086911 0 0.6560590369687036 0.75470957328743171 1 0 0 1 I I #
coedge $-1 $437 $437 $-1 $581 reversed $306 $-1 #
edge $-1 $582 0 $582 6.2831853071796004 $307 $583 forward 7 unknown #
vertex $-1 $310 $584 #
ellipse-curve $-1 16.464371058863911 20.746476736262377 7.1952490947086911 0 0.6560590369687036 0.75470957328743171 1 0 0 1 I I #
face $-1 $-1 $454 $64 $-1 $585 reversed single #
loop $-1 $-1 $450 $311 #
plane-surface $-1 44.284798730430005 0 0 -1 0 0 0 0 1 forward_v I I I I #
coedge $-1 $586 $587 $446 $588 forward $312 $-1 #
coedge $-1 $446 $314 $316 $452 reversed $198 $-1 #
coedge $-1 $314 $445 $444 $588 reversed $198 $-1 #
coedge $-1 $589 $317 $314 $448 forward $454 $-1 #
edge $-1 $456 -48.129493334715711 $590 -40.64721555353519 $447 $591 forward 7 unknown #
coedge $-1 $316 $315 $586 $592 reversed $125 $-1 #
coedge $-1 $593 $594 $315 $451 forward $442 $-1 #
edge $-1 $595 21.965029189000738 $455 33.36991405386307 $450 $596 forward 7 unknown #
edge $-1 $597 38.69544439741496 $456 50.100329262277285 $445 $598 forward 7 unknown #
coedge $-1 $317 $589 $593 $599 forward $454 $-1 #
loop $-1 $-1 $447 $441 #
vertex $-1 $451 $600 #
vertex $-1 $318 $601 #
straight-curve $-1 18.949702836363937 25.050164631138646 3.4541102041184253 -1 0 0 I I #
coedge $-1 $458 $458 $-1 $602 reversed $321 $-1 #
edge $-1 $603 0 $603 6.2831853071796004 $322 $604 forward 7 unknown #
vertex $-1 $325 $605 #
ellipse-curve $-1 34.068169838106591 20.746476736262377 7.1952490947086911 0 0.6560590369687036 0.75470957328743171 1 0 0 1 I I #
coedge $-1 $462 $462 $-1 $606 reversed $328 $-1 #
edge $-1 $607 0 $607 6.2831853071796004 $329 $608 forward 7 unknown #
vertex $-1 $332 $609 #
ellipse-curve $-1 37.899405672727873 20.746476736262377 7.1952490947086911 0 0.6560590369687036 0.75470957328743171 1 0 0 1 I I #
coedge $-1 $466 $466 $-1 $610 reversed $335 $-1 #
edge $-1 $611 0 $611 6.2831853071796004 $336 $612 forward 7 unknown #
vertex $-1 $339 $613 #
ellipse-curve $-1 41.730641507349155 20.746476736262377 7.1952490947086911 0 0.6560590369687036 0.75470957328743171 1 0 0 1 I I #
face $-1 $-1 $355 $51 $-1 $614 reversed single #
loop $-1 $-1 $486 $340 #
plane-surface $-1 0 25.050164631138646 0 0 -1 0 0 0 -1 forward_v I I I I #
coedge $-1 $615 $484 $487 $616 forward $341 $-1 #
coedge $-1 $490 $343 $344 $478 reversed $217 $-1 #
coedge $-1 $484 $615 $343 $476 reversed $341 $-1 #
edge $-1 $491 -10.936387985298953 $617 10.936387985298953 $475 $618 forward 7 unknown #
coedge $-1 $345 $344 $615 $619 forward $137 $-1 #
edge $-1 $482 -44.284798730430005 $617 44.284798730430005 $474 $620 forward 7 unknown #
coedge $-1 $487 $486 $345 $480 reversed $471 $-1 #
edge $-1 $621 -44.284798730430005 $481 44.284798730430005 $479 $622 forward 7 unknown #
vertex $-1 $347 $623 #
vertex $-1 $493 $624 #
straight-curve $-1 44.284798730430005 0 -10.936387985298953 0 -1 0 I I #
coedge $-1 $473 $475 $348 $485 reversed $341 $-1 #
edge $-1 $488 -25.050164631138646 $491 25.050164631138646 $484 $625 forward 7 unknown #
coedge $-1 $479 $349 $354 $494 forward $471 $-1 #
coedge $-1 $349 $479 $473 $616 reversed $471 $-1 #
vertex $-1 $350 $626 #
straight-curve $-1 0 25.050164631138646 10.936387985298953 -1 0 0 I I #
coedge $-1 $351 $474 $353 $493 reversed $217 $-1 #
vertex $-1 $485 $627 #
straight-curve $-1 0 -25.050164631138646 10.936387985298953 1 0 0 I I #
edge $-1 $356 -10.936387985298953 $482 10.936387985298953 $353 $628 forward 7 unknown #
edge $-1 $357 -10.936387985298953 $481 10.936387985298953 $354 $629 forward 7 unknown #
point $-1 44.284798730430005 -25.050164631138646 10.936387985298953 #
point $-1 44.284798730430005 25.050164631138646 10.936387985298953 #
loop $-1 $-1 $500 $359 #
plane-surface $-1 -44.284798730430005 0 0 1 0 0 0 0 -1 forward_v I I I I #
coedge $-1 $363 $362 $506 $630 reversed $141 $-1 #
coedge $-1 $631 $632 $363 $501 forward $497 $-1 #
edge $-1 $503 -33.36991405386307 $633 -21.965029189000738 $500 $634 forward 7 unknown #
coedge $-1 $369 $364 $632 $635 reversed $225 $-1 #
vertex $-1 $365 $636 #
straight-curve $-1 -18.949702836363933 25.050164631138646 3.4541102041184253 -1 0 0 I I #
coedge $-1 $637 $366 $369 $510 forward $360 $-1 #
coedge $-1 $366 $637 $499 $630 forward $360 $-1 #
vertex $-1 $367 $638 #
straight-curve $-1 -31.514012615025724 22.672925663461541 10.93638798529895 0 1 0 I I #
straight-curve $-1 -31.514012615025724 -12.761033487954471 36.322883971743025 0 -0.75470957328743171 0.6560590369687036 I I #
edge $-1 $370 31.514012615025724 $639 44.284798730430005 $369 $640 forward 7 unknown #
point $-1 -31.514012615025724 25.050164631138646 10.936387985298953 #
point $-1 -31.514012615025724 25.050164631138649 3.4541102041184288 #
edge $-1 $641 1 $641 0 $373 $-1 forward 7 unknown #
vertex $-1 $374 $642 #
ellipse-curve $-1 -41.730641507349148 19.159277174580808 5.3693849019777584 0 0.6560590369687036 0.75470957328743171 1 0 0 1 I I #
point $-1 -40.730641507349148 20.74647673626238 7.1952490947086947 #
edge $-1 $643 1 $643 0 $377 $-1 forward 7 unknown #
vertex $-1 $378 $644 #
ellipse-curve $-1 -37.899405672727866 19.159277174580808 5.3693849019777584 0 0.6560590369687036 0.75470957328743171 1 0 0 1 I I #
point $-1 -36.899405672727866 20.74647673626238 7.1952490947086947 #
edge $-1 $645 1 $645 0 $381 $-1 forward 7 unknown #
vertex $-1 $382 $646 #
ellipse-curve $-1 -34.068169838106577 19.159277174580808 5.3693849019777584 0 0.6560590369687036 0.75470957328743171 1 0 0 1 I I #
point $-1 -33.068169838106577 20.74647673626238 7.1952490947086947 #
plane-surface $-1 0 25.050164631138646 0 0 -1 0 0 0 -1 forward_v I I I I #
coedge $-1 $536 $535 $528 $647 forward $386 $-1 #
coedge $-1 $528 $388 $390 $532 reversed $254 $-1 #
coedge $-1 $388 $527 $526 $647 reversed $254 $-1 #
coedge $-1 $396 $391 $388 $530 forward $397 $-1 #
edge $-1 $533 -48.129493334715711 $648 -40.64721555353519 $529 $649 forward 7 unknown #
coedge $-1 $390 $389 $536 $650 reversed $160 $-1 #
edge $-1 $651 38.69544439741496 $533 50.100329262277285 $527 $652 forward 7 unknown #
vertex $-1 $392 $653 #
straight-curve $-1 -6.3165676121213092 25.050164631138646 3.4541102041184253 -1 0 0 I I #
coedge $-1 $526 $393 $396 $540 forward $386 $-1 #
coedge $-1 $393 $526 $531 $650 forward $386 $-1 #
vertex $-1 $394 $654 #
straight-curve $-1 -6.2477421665404762 22.672925663461541 10.93638798529895 0 1 0 I I #
straight-curve $-1 -6.2477421665404762 -12.761033487954471 36.322883971743025 0 -0.75470957328743171 0.6560590369687036 I I #
edge $-1 $398 6.2477421665404762 $648 19.018528281944761 $396 $655 forward 7 unknown #
point $-1 -6.2477421665404762 25.050164631138646 10.936387985298953 #
point $-1 -6.2477421665404762 25.050164631138649 3.4541102041184288 #
edge $-1 $656 1 $656 0 $401 $-1 forward 7 unknown #
vertex $-1 $402 $657 #
ellipse-curve $-1 -16.464371058863904 19.159277174580808 5.3693849019777584 0 0.6560590369687036 0.75470957328743171 1 0 0 1 I I #
point $-1 -15.464371058863904 20.74647673626238 7.1952490947086947 #
edge $-1 $658 1 $658 0 $405 $-1 forward 7 unknown #
vertex $-1 $406 $659 #
ellipse-curve $-1 -12.633135224242618 19.159277174580808 5.3693849019777584 0 0.6560590369687036 0.75470957328743171 1 0 0 1 I I #
point $-1 -11.633135224242618 20.74647673626238 7.1952490947086947 #
edge $-1 $660 1 $660 0 $409 $-1 forward 7 unknown #
vertex $-1 $410 $661 #
ellipse-curve $-1 -8.8018993896213331 19.159277174580808 5.3693849019777584 0 0.6560590369687036 0.75470957328743171 1 0 0 1 I I #
point $-1 -7.8018993896213331 20.74647673626238 7.1952490947086947 #
plane-surface $-1 0 25.050164631138646 0 0 -1 0 0 0 -1 forward_v I I I I #
coedge $-1 $566 $565 $558 $662 forward $414 $-1 #
coedge $-1 $558 $416 $418 $562 reversed $283 $-1 #
coedge $-1 $416 $557 $556 $662 reversed $283 $-1 #
coedge $-1 $424 $419 $416 $560 forward $425 $-1 #
edge $-1 $563 -48.129493334715711 $663 -40.64721555353519 $559 $664 forward 7 unknown #
coedge $-1 $418 $417 $566 $665 reversed $179 $-1 #
edge $-1 $666 38.69544439741496 $563 50.100329262277285 $557 $667 forward 7 unknown #
vertex $-1 $420 $668 #
straight-curve $-1 6.3165676121213146 25.050164631138646 3.4541102041184253 -1 0 0 I I #
coedge $-1 $556 $421 $424 $570 forward $414 $-1 #
coedge $-1 $421 $556 $561 $665 forward $414 $-1 #
vertex $-1 $422 $669 #
straight-curve $-1 19.018528281944771 22.672925663461541 10.93638798529895 0 1 0 I I #
straight-curve $-1 19.018528281944771 -12.761033487954471 36.322883971743025 0 -0.75470957328743171 0.6560590369687036 I I #
edge $-1 $426 -19.018528281944771 $663 -6.2477421665404869 $424 $670 forward 7 unknown #
point $-1 19.018528281944771 25.050164631138646 10.936387985298953 #
point $-1 19.018528281944771 25.050164631138649 3.4541102041184288 #
edge $-1 $671 1 $671 0 $429 $-1 forward 7 unknown #
vertex $-1 $430 $672 #
ellipse-curve $-1 8.8018993896213402 19.159277174580808 5.3693849019777584 0 0.6560590369687036 0.75470957328743171 1 0 0 1 I I #
point $-1 9.8018993896213402 20.74647673626238 7.1952490947086947 #
edge $-1 $673 1 $673 0 $433 $-1 forward 7 unknown #
vertex $-1 $434 $674 #
ellipse-curve $-1 12.633135224242629 19.159277174580808 5.3693849019777584 0 0.6560590369687036 0.75470957328743171 1 0 0 1 I I #
point $-1 13.633135224242629 20.74647673626238 7.1952490947086947 #
edge $-1 $675 1 $675 0 $437 $-1 forward 7 unknown #
vertex $-1 $438 $676 #
ellipse-curve $-1 16.464371058863911 19.159277174580808 5.3693849019777584 0 0.6560590369687036 0.75470957328743171 1 0 0 1 I I #
point $-1 17.464371058863911 20.74647673626238 7.1952490947086947 #
plane-surface $-1 0 25.050164631138646 0 0 -1 0 0 0 -1 forward_v I I I I #
coedge $-1 $677 $444 $449 $592 forward $312 $-1 #
coedge $-1 $444 $677 $589 $678 forward $312 $-1 #
edge $-1 $590 -2.3772389676771049 $597 6.2301368220754334 $444 $679 forward 7 unknown #
coedge $-1 $453 $447 $587 $678 reversed $454 $-1 #
vertex $-1 $448 $680 #
straight-curve $-1 31.514012615025731 25.050164631138646 51.58360353883414 0 0 1 I I #
edge $-1 $597 12.564309778661794 $595 25.335095894066075 $586 $681 forward 7 unknown #
coedge $-1 $594 $450 $453 $599 reversed $442 $-1 #
coedge $-1 $450 $593 $677 $682 reversed $442 $-1 #
vertex $-1 $682 $683 #
straight-curve $-1 44.284798730430005 -0.13442896509062052 25.346743882024242 0 0.75470957328743171 -0.6560590369687036 I I #
vertex $-1 $592 $684 #
straight-curve $-1 31.514012615025731 -12.761033487954471 36.322883971743025 0 0.75470957328743171 -0.6560590369687036 I I #
edge $-1 $685 -10.936387985298953 $455 -3.4541102041184288 $593 $686 forward 7 unknown #
point $-1 44.284798730430012 25.050164631138649 3.4541102041184288 #
point $-1 31.514012615025731 25.050164631138649 3.4541102041184288 #
edge $-1 $687 1 $687 0 $458 $-1 forward 7 unknown #
vertex $-1 $459 $688 #
ellipse-curve $-1 34.068169838106591 19.159277174580808 5.3693849019777584 0 0.6560590369687036 0.75470957328743171 1 0 0 1 I I #
point $-1 35.068169838106591 20.74647673626238 7.1952490947086947 #
edge $-1 $689 1 $689 0 $462 $-1 forward 7 unknown #
vertex $-1 $463 $690 #
ellipse-curve $-1 37.899405672727873 19.159277174580808 5.3693849019777584 0 0.6560590369687036 0.75470957328743171 1 0 0 1 I I #
point $-1 38.899405672727873 20.74647673626238 7.1952490947086947 #
edge $-1 $691 1 $691 0 $466 $-1 forward 7 unknown #
vertex $-1 $467 $692 #
ellipse-curve $-1 41.730641507349155 19.159277174580808 5.3693849019777584 0 0.6560590369687036 0.75470957328743171 1 0 0 1 I I #
point $-1 42.730641507349155 20.74647673626238 7.1952490947086947 #
plane-surface $-1 44.284798730430005 0 0 -1 0 0 0 0 1 forward_v I I I I #
coedge $-1 $475 $473 $477 $619 reversed $341 $-1 #
edge $-1 $488 -10.936387985298953 $621 10.936387985298953 $487 $693 forward 7 unknown #
vertex $-1 $619 $694 #
straight-curve $-1 -44.284798730430005 -25.050164631138646 0 0 0 -1 I I #
edge $-1 $617 -25.050164631138646 $621 25.050164631138646 $615 $695 forward 7 unknown #
straight-curve $-1 0 -25.050164631138646 -10.936387985298953 -1 0 0 I I #
vertex $-1 $480 $696 #
straight-curve $-1 0 25.050164631138646 -10.936387985298953 1 0 0 I I #
point $-1 44.284798730430005 25.050164631138646 -10.936387985298953 #
point $-1 44.284798730430005 -25.050164631138646 -10.936387985298953 #
straight-curve $-1 -44.284798730430005 0 10.936387985298953 0 -1 0 I I #
point $-1 -44.284798730430005 25.050164631138646 10.936387985298953 #
point $-1 -44.284798730430005 -25.050164631138646 10.936387985298953 #
straight-curve $-1 44.284798730430005 -25.050164631138646 0 0 0 -1 I I #
straight-curve $-1 44.284798730430005 25.050164631138646 0 0 0 -1 I I #
edge $-1 $633 -25.335095894066079 $507 -12.564309778661791 $506 $697 forward 7 unknown #
coedge $-1 $632 $500 $637 $698 reversed $497 $-1 #
coedge $-1 $500 $631 $502 $635 forward $497 $-1 #
vertex $-1 $501 $699 #
straight-curve $-1 -44.284798730430005 -0.13442896509062052 25.346743882024242 0 -0.75470957328743171 0.6560590369687036 I I #
edge $-1 $639 -10.936387985298953 $503 -3.454110204118424 $502 $700 forward 7 unknown #
point $-1 -44.284798730430005 25.050164631138646 3.454110204118424 #
coedge $-1 $506 $505 $631 $698 forward $360 $-1 #
point $-1 -31.514012615025724 16.442788841386108 10.936387985298953 #
vertex $-1 $510 $701 #
straight-curve $-1 0 25.050164631138646 10.936387985298953 -1 0 0 I I #
vertex $-1 $513 $702 #
point $-1 -40.730641507349148 19.159277174580808 5.3693849019777584 #
vertex $-1 $517 $703 #
point $-1 -36.899405672727866 19.159277174580808 5.3693849019777584 #
vertex $-1 $521 $704 #
point $-1 -33.068169838106577 19.159277174580808 5.3693849019777584 #
edge $-1 $648 -2.3772389676771049 $651 6.2301368220754334 $526 $705 forward 7 unknown #
vertex $-1 $647 $706 #
straight-curve $-1 -19.018528281944761 25.050164631138646 51.58360353883414 0 0 1 I I #
edge $-1 $651 -12.701960669823452 $537 0.068825445580833033 $536 $707 forward 7 unknown #
vertex $-1 $650 $708 #
straight-curve $-1 -19.018528281944761 -12.761033487954471 36.322883971743025 0 0.75470957328743171 -0.6560590369687036 I I #
point $-1 -19.018528281944761 25.050164631138649 3.4541102041184288 #
point $-1 -6.2477421665404762 16.442788841386108 10.936387985298953 #
straight-curve $-1 0 25.050164631138646 10.936387985298953 -1 0 0 I I #
vertex $-1 $543 $709 #
point $-1 -15.464371058863904 19.159277174580808 5.3693849019777584 #
vertex $-1 $547 $710 #
point $-1 -11.633135224242618 19.159277174580808 5.3693849019777584 #
vertex $-1 $551 $711 #
point $-1 -7.8018993896213331 19.159277174580808 5.3693849019777584 #
edge $-1 $663 -2.3772389676771049 $666 6.2301368220754334 $556 $712 forward 7 unknown #
vertex $-1 $560 $713 #
straight-curve $-1 6.2477421665404869 25.050164631138646 51.58360353883414 0 0 1 I I #
edge $-1 $666 -0.068825445580827704 $567 12.701960669823457 $566 $714 forward 7 unknown #
vertex $-1 $665 $715 #
straight-curve $-1 6.2477421665404869 -12.761033487954471 36.322883971743025 0 0.75470957328743171 -0.6560590369687036 I I #
point $-1 6.2477421665404869 25.050164631138649 3.4541102041184288 #
point $-1 19.018528281944771 16.442788841386108 10.936387985298953 #
straight-curve $-1 0 25.050164631138646 10.936387985298953 -1 0 0 I I #
vertex $-1 $573 $716 #
point $-1 9.8018993896213402 19.159277174580808 5.3693849019777584 #
vertex $-1 $577 $717 #
point $-1 13.633135224242629 19.159277174580808 5.3693849019777584 #
vertex $-1 $581 $718 #
point $-1 17.464371058863911 19.159277174580808 5.3693849019777584 #
coedge $-1 $587 $586 $594 $682 forward $312 $-1 #
edge $-1 $685 -44.284798730430005 $590 -31.514012615025731 $589 $719 forward 7 unknown #
straight-curve $-1 31.514012615025731 22.672925663461541 10.93638798529895 0 -1 0 I I #
point $-1 31.514012615025731 25.050164631138646 10.936387985298953 #
straight-curve $-1 18.949702836363937 16.442788841386104 10.936387985298957 1 0 0 I I #
edge $-1 $595 16.442788841386108 $685 25.050164631138646 $594 $720 forward 7 unknown #
point $-1 44.284798730430012 16.442788841386108 10.936387985298953 #
point $-1 31.514012615025731 16.442788841386108 10.936387985298953 #
vertex $-1 $682 $721 #
straight-curve $-1 44.284798730430005 25.050164631138646 0 0 0 -1 I I #
vertex $-1 $602 $722 #
point $-1 35.068169838106591 19.159277174580808 5.3693849019777584 #
vertex $-1 $606 $723 #
point $-1 38.899405672727873 19.159277174580808 5.3693849019777584 #
vertex $-1 $610 $724 #
point $-1 42.730641507349155 19.159277174580808 5.3693849019777584 #
straight-curve $-1 -44.284798730430005 25.050164631138646 0 0 0 -1 I I #
point $-1 -44.284798730430005 -25.050164631138646 -10.936387985298953 #
straight-curve $-1 -44.284798730430005 0 -10.936387985298953 0 1 0 I I #
point $-1 -44.284798730430005 25.050164631138646 -10.936387985298953 #
straight-curve $-1 -18.949702836363933 16.442788841386104 10.936387985298957 1 0 0 I I #
edge $-1 $639 -25.050164631138646 $633 -16.442788841386108 $631 $725 forward 7 unknown #
point $-1 -44.284798730430012 16.442788841386108 10.936387985298953 #
straight-curve $-1 -44.284798730430005 25.050164631138646 0 0 0 -1 I I #
point $-1 -44.284798730430005 25.050164631138646 10.936387985298953 #
point $-1 -41.730641507349148 18.503218137612102 4.6146753286903266 #
point $-1 -37.899405672727866 18.503218137612102 4.6146753286903266 #
point $-1 -34.068169838106577 18.503218137612102 4.6146753286903266 #
straight-curve $-1 -19.018528281944761 22.672925663461541 10.93638798529895 0 -1 0 I I #
point $-1 -19.018528281944761 25.050164631138646 10.936387985298953 #
straight-curve $-1 -6.3165676121213092 16.442788841386104 10.936387985298957 1 0 0 I I #
point $-1 -19.018528281944761 16.442788841386108 10.936387985298953 #
point $-1 -16.464371058863904 18.503218137612102 4.6146753286903266 #
point $-1 -12.633135224242618 18.503218137612102 4.6146753286903266 #
point $-1 -8.8018993896213331 18.503218137612102 4.6146753286903266 #
straight-curve $-1 6.2477421665404869 22.672925663461541 10.93638798529895 0 -1 0 I I #
point $-1 6.2477421665404869 25.050164631138646 10.936387985298953 #
straight-curve $-1 6.3165676121213146 16.442788841386104 10.936387985298957 1 0 0 I I #
point $-1 6.2477421665404869 16.442788841386108 10.936387985298953 #
point $-1 8.8018993896213402 18.503218137612102 4.6146753286903266 #
point $-1 12.633135224242629 18.503218137612102 4.6146753286903266 #
point $-1 16.464371058863911 18.503218137612102 4.6146753286903266 #
straight-curve $-1 0 25.050164631138646 10.936387985298953 -1 0 0 I I #
straight-curve $-1 44.284798730430005 0 10.936387985298953 0 1 0 I I #
point $-1 44.284798730430005 25.050164631138646 10.936387985298953 #
point $-1 34.068169838106591 18.503218137612102 4.6146753286903266 #
point $-1 37.899405672727873 18.503218137612102 4.6146753286903266 #
point $-1 41.730641507349155 18.503218137612102 4.6146753286903266 #
straight-curve $-1 -44.284798730430005 0 10.936387985298953 0 -1 0 I I #
End-of-ACIS-data 