500 0 20 0           
7 Unknown 11 ACIS 5.0 NT 24 Fri Mar 26 17:05:35 1999 
-1 9.9999999999999995e-007 1e-010 
body $-1 $20 $-1 $21 #
body $-1 $22 $-1 $23 #
body $-1 $24 $-1 $25 #
body $-1 $26 $-1 $27 #
body $-1 $28 $-1 $29 #
body $-1 $30 $-1 $31 #
body $-1 $32 $-1 $33 #
body $-1 $34 $-1 $35 #
body $-1 $36 $-1 $37 #
body $-1 $38 $-1 $39 #
body $-1 $40 $-1 $41 #
body $-1 $42 $-1 $43 #
body $-1 $44 $-1 $45 #
body $-1 $46 $-1 $47 #
body $-1 $48 $-1 $49 #
body $-1 $50 $-1 $51 #
body $-1 $52 $-1 $53 #
body $-1 $54 $-1 $55 #
body $-1 $56 $-1 $57 #
body $-1 $58 $-1 $59 #
lump $-1 $-1 $60 $0 #
transform $-1 1 0 0 0 1 0 0 0 1 50.952482680745874 31.212147064560906 11.084993982351396 1 rotate no_reflect no_shear #
lump $-1 $-1 $61 $1 #
transform $-1 1 0 0 0 1 0 0 0 1 50.952482680745874 31.212147064560906 11.084993982351396 1 rotate no_reflect no_shear #
lump $-1 $-1 $62 $2 #
transform $-1 1 0 0 0 1 0 0 0 1 50.952482680745874 31.212147064560906 11.084993982351396 1 rotate no_reflect no_shear #
lump $-1 $-1 $63 $3 #
transform $-1 1 0 0 0 1 0 0 0 1 50.952482680745874 31.212147064560906 11.084993982351396 1 rotate no_reflect no_shear #
lump $-1 $-1 $64 $4 #
transform $-1 1 0 0 0 1 0 0 0 1 50.952482680745874 31.212147064560906 11.084993982351396 1 rotate no_reflect no_shear #
lump $-1 $-1 $65 $5 #
transform $-1 1 0 0 0 1 0 0 0 1 50.952482680745874 31.212147064560906 11.084993982351396 1 rotate no_reflect no_shear #
lump $-1 $-1 $66 $6 #
transform $-1 1 0 0 0 1 0 0 0 1 50.952482680745874 31.212147064560906 11.084993982351396 1 rotate no_reflect no_shear #
lump $-1 $-1 $67 $7 #
transform $-1 1 0 0 0 1 0 0 0 1 50.952482680745874 31.212147064560906 11.084993982351396 1 rotate no_reflect no_shear #
lump $-1 $-1 $68 $8 #
transform $-1 1 0 0 0 1 0 0 0 1 50.952482680745874 31.212147064560906 11.084993982351396 1 rotate no_reflect no_shear #
lump $-1 $-1 $69 $9 #
transform $-1 1 0 0 0 1 0 0 0 1 50.952482680745874 31.212147064560906 11.084993982351396 1 rotate no_reflect no_shear #
lump $-1 $-1 $70 $10 #
transform $-1 1 0 0 0 1 0 0 0 1 50.952482680745874 31.212147064560906 11.084993982351396 1 rotate no_reflect no_shear #
lump $-1 $-1 $71 $11 #
transform $-1 1 0 0 0 1 0 0 0 1 50.952482680745874 31.212147064560906 11.084993982351396 1 rotate no_reflect no_shear #
lump $-1 $-1 $72 $12 #
transform $-1 1 0 0 0 1 0 0 0 1 50.952482680745874 31.212147064560906 11.084993982351396 1 rotate no_reflect no_shear #
lump $-1 $-1 $73 $13 #
transform $-1 1 0 0 0 1 0 0 0 1 50.952482680745874 31.212147064560906 11.084993982351396 1 rotate no_reflect no_shear #
lump $-1 $-1 $74 $14 #
transform $-1 1 0 0 0 1 0 0 0 1 50.952482680745874 31.212147064560906 11.084993982351396 1 rotate no_reflect no_shear #
lump $-1 $-1 $75 $15 #
transform $-1 1 0 0 0 1 0 0 0 1 50.952482680745874 31.212147064560906 11.084993982351396 1 rotate no_reflect no_shear #
lump $-1 $-1 $76 $16 #
transform $-1 1 0 0 0 1 0 0 0 1 50.952482680745874 31.212147064560906 11.084993982351396 1 rotate no_reflect no_shear #
lump $-1 $-1 $77 $17 #
transform $-1 1 0 0 0 1 0 0 0 1 50.952482680745874 31.212147064560906 11.084993982351396 1 rotate no_reflect no_shear #
lump $-1 $-1 $78 $18 #
transform $-1 1 0 0 0 1 0 0 0 1 50.952482680745874 31.212147064560906 11.084993982351396 1 rotate no_reflect no_shear #
lump $-1 $-1 $79 $19 #
transform $-1 1 0 0 0 1 0 0 0 1 50.952482680745874 31.212147064560906 11.084993982351396 1 rotate no_reflect no_shear #
shell $-1 $-1 $-1 $80 $-1 $20 #
shell $-1 $-1 $-1 $81 $-1 $22 #
shell $-1 $-1 $-1 $82 $-1 $24 #
shell $-1 $-1 $-1 $83 $-1 $26 #
shell $-1 $-1 $-1 $84 $-1 $28 #
shell $-1 $-1 $-1 $85 $-1 $30 #
shell $-1 $-1 $-1 $86 $-1 $32 #
shell $-1 $-1 $-1 $87 $-1 $34 #
shell $-1 $-1 $-1 $88 $-1 $36 #
shell $-1 $-1 $-1 $89 $-1 $38 #
shell $-1 $-1 $-1 $90 $-1 $40 #
shell $-1 $-1 $-1 $91 $-1 $42 #
shell $-1 $-1 $-1 $92 $-1 $44 #
shell $-1 $-1 $-1 $93 $-1 $46 #
shell $-1 $-1 $-1 $94 $-1 $48 #
shell $-1 $-1 $-1 $95 $-1 $50 #
shell $-1 $-1 $-1 $96 $-1 $52 #
shell $-1 $-1 $-1 $97 $-1 $54 #
shell $-1 $-1 $-1 $98 $-1 $56 #
shell $-1 $-1 $-1 $99 $-1 $58 #
face $-1 $100 $101 $60 $-1 $102 forward single #
face $-1 $103 $104 $61 $-1 $105 reversed single #
face $-1 $106 $107 $62 $-1 $108 reversed single #
face $-1 $109 $110 $63 $-1 $111 forward single #
face $-1 $112 $113 $64 $-1 $114 forward single #
face $-1 $115 $116 $65 $-1 $117 forward single #
face $-1 $118 $119 $66 $-1 $120 reversed single #
face $-1 $121 $122 $67 $-1 $123 forward single #
face $-1 $124 $125 $68 $-1 $126 forward single #
face $-1 $127 $128 $69 $-1 $129 forward single #
face $-1 $130 $131 $70 $-1 $132 reversed single #
face $-1 $133 $134 $71 $-1 $135 forward single #
face $-1 $136 $137 $72 $-1 $138 forward single #
face $-1 $139 $140 $73 $-1 $141 forward single #
face $-1 $142 $143 $74 $-1 $144 reversed single #
face $-1 $145 $146 $75 $-1 $147 forward single #
face $-1 $148 $149 $76 $-1 $150 forward single #
face $-1 $151 $152 $77 $-1 $153 forward single #
face $-1 $154 $155 $78 $-1 $156 reversed single #
face $-1 $157 $158 $79 $-1 $159 forward single #
face $-1 $160 $161 $60 $-1 $162 reversed single #
loop $-1 $-1 $163 $80 #
plane-surface $-1 0 0 11.084993982351396 0 0 1 1 0 0 forward_v I I I I #
face $-1 $164 $165 $61 $-1 $166 reversed single #
loop $-1 $-1 $167 $81 #
plane-surface $-1 -44.090419101921029 0 5.5900277890674932 0 0 1 1 0 0 forward_v I I I I #
face $-1 $168 $169 $62 $-1 $170 reversed single #
loop $-1 $-1 $171 $82 #
plane-surface $-1 -32.73382299675567 88.252290399391327 112.96131177701577 1 0 0 0 -0.86602541151947299 -0.49999998660252726 forward_v I I I I #
face $-1 $172 $173 $63 $-1 $174 forward single #
loop $-1 $175 $176 $83 #
cone-surface $-1 -30.328851901774577 29.630530266886581 9.126117582789945 0 -0.86602541151947299 -0.49999998660252726 0.5 0 0 1 I I 0 1 0.5 forward I I I I #
face $-1 $177 $178 $64 $-1 $179 forward single #
loop $-1 $180 $181 $84 #
cone-surface $-1 -26.721395259302938 29.630530266886581 9.126117582789945 0 -0.86602541151947299 -0.49999998660252726 0.5 0 0 1 I I 0 1 0.5 forward I I I I #
face $-1 $182 $183 $65 $-1 $184 forward single #
loop $-1 $185 $186 $85 #
cone-surface $-1 -23.113938616831298 29.630530266886581 9.126117582789945 0 -0.86602541151947299 -0.49999998660252726 0.5 0 0 1 I I 0 1 0.5 forward I I I I #
face $-1 $187 $188 $66 $-1 $189 reversed single #
loop $-1 $-1 $190 $86 #
plane-surface $-1 -10.688613445795156 88.252290399391327 112.96131177701577 1 0 0 0 -0.86602541151947299 -0.49999998660252726 forward_v I I I I #
face $-1 $191 $192 $67 $-1 $193 forward single #
loop $-1 $194 $195 $87 #
cone-surface $-1 -8.2836423508140626 29.630530266886581 9.126117582789945 0 -0.86602541151947299 -0.49999998660252726 0.5 0 0 1 I I 0 1 0.5 forward I I I I #
face $-1 $196 $197 $68 $-1 $198 forward single #
loop $-1 $199 $200 $88 #
cone-surface $-1 -4.6761857083424232 29.630530266886581 9.126117582789945 0 -0.86602541151947299 -0.49999998660252726 0.5 0 0 1 I I 0 1 0.5 forward I I I I #
face $-1 $201 $202 $69 $-1 $203 forward single #
loop $-1 $204 $205 $89 #
cone-surface $-1 -1.0687290658707838 29.630530266886581 9.126117582789945 0 -0.86602541151947299 -0.49999998660252726 0.5 0 0 1 I I 0 1 0.5 forward I I I I #
face $-1 $206 $207 $70 $-1 $208 reversed single #
loop $-1 $-1 $209 $90 #
plane-surface $-1 11.356596105165359 88.252290399391327 112.96131177701577 1 0 0 0 -0.86602541151947299 -0.49999998660252726 forward_v I I I I #
face $-1 $210 $211 $71 $-1 $212 forward single #
loop $-1 $213 $214 $91 #
cone-surface $-1 13.761567200146459 29.630530266886581 9.126117582789945 0 -0.86602541151947299 -0.49999998660252726 0.5 0 0 1 I I 0 1 0.5 forward I I I I #
face $-1 $215 $216 $72 $-1 $217 forward single #
loop $-1 $218 $219 $92 #
cone-surface $-1 17.369023842618091 29.630530266886581 9.126117582789945 0 -0.86602541151947299 -0.49999998660252726 0.5 0 0 1 I I 0 1 0.5 forward I I I I #
face $-1 $220 $221 $73 $-1 $222 forward single #
loop $-1 $223 $224 $93 #
cone-surface $-1 20.976480485089724 29.630530266886581 9.126117582789945 0 -0.86602541151947299 -0.49999998660252726 0.5 0 0 1 I I 0 1 0.5 forward I I I I #
face $-1 $225 $226 $74 $-1 $227 reversed single #
loop $-1 $-1 $228 $94 #
plane-surface $-1 33.401805656125866 88.252290399391327 112.96131177701577 1 0 0 0 -0.86602541151947299 -0.49999998660252726 forward_v I I I I #
face $-1 $229 $230 $75 $-1 $231 forward single #
loop $-1 $232 $233 $95 #
cone-surface $-1 35.80677675110698 29.630530266886581 9.126117582789945 0 -0.86602541151947299 -0.49999998660252726 0.5 0 0 1 I I 0 1 0.5 forward I I I I #
face $-1 $234 $235 $76 $-1 $236 forward single #
loop $-1 $237 $238 $96 #
cone-surface $-1 39.414233393578598 29.630530266886581 9.126117582789945 0 -0.86602541151947299 -0.49999998660252726 0.5 0 0 1 I I 0 1 0.5 forward I I I I #
face $-1 $239 $240 $77 $-1 $241 forward single #
loop $-1 $242 $243 $97 #
cone-surface $-1 43.021690036050245 29.630530266886581 9.126117582789945 0 -0.86602541151947299 -0.49999998660252726 0.5 0 0 1 I I 0 1 0.5 forward I I I I #
face $-1 $244 $245 $78 $-1 $246 reversed single #
loop $-1 $-1 $247 $98 #
plane-surface $-1 46.32330488490436 -31.212147064560909 5.1660365309149938 0 -0.83867057594974714 0.54463902268945019 1 0 0 forward_v I I I I #
face $-1 $248 $249 $79 $-1 $250 forward single #
loop $-1 $251 $252 $99 #
cone-surface $-1 46.32330488490436 -28.365172752844433 7.5247701204427049 0 0.83867057594974714 -0.54463902268945019 1.5 0 0 1 I I 0 1 1.5 forward I I I I #
face $-1 $253 $254 $60 $-1 $255 reversed single #
loop $-1 $-1 $256 $100 #
plane-surface $-1 0 0 -11.084993982351396 0 0 1 1 0 0 forward_v I I I I #
coedge $-1 $257 $258 $259 $260 forward $101 $-1 #
face $-1 $261 $262 $61 $-1 $263 reversed single #
loop $-1 $-1 $264 $103 #
plane-surface $-1 -37.228355523096184 0 8.3375108857094453 -1 0 0 0 0 1 forward_v I I I I #
coedge $-1 $265 $266 $267 $268 forward $104 $-1 #
face $-1 $269 $270 $62 $-1 $271 reversed single #
loop $-1 $-1 $272 $106 #
plane-surface $-1 -26.721395259302938 8.3632779990239214e-007 62.008830461538885 0 0.86602541151947299 0.49999998660252726 1 0 0 forward_v I I I I #
coedge $-1 $273 $274 $275 $276 reversed $107 $-1 #
face $-1 $-1 $277 $63 $-1 $278 forward single #
loop $-1 $279 $280 $109 #
cone-surface $-1 -30.328851901774577 28.738035405932106 8.6108354529767972 0 -0.86602541151947299 -0.49999998660252726 0.25 0 0 1 I I -0.70710678118654746 0.70710678118654746 0.25 forward I I I I #
loop $-1 $-1 $281 $83 #
coedge $-1 $176 $176 $282 $283 reversed $110 $-1 #
face $-1 $-1 $284 $64 $-1 $285 forward single #
loop $-1 $286 $287 $112 #
cone-surface $-1 -26.721395259302938 28.738035405932106 8.6108354529767972 0 -0.86602541151947299 -0.49999998660252726 0.25 0 0 1 I I -0.70710678118654746 0.70710678118654746 0.25 forward I I I I #
loop $-1 $-1 $288 $84 #
coedge $-1 $181 $181 $289 $290 reversed $113 $-1 #
face $-1 $-1 $291 $65 $-1 $292 forward single #
loop $-1 $293 $294 $115 #
cone-surface $-1 -23.113938616831298 28.738035405932106 8.6108354529767972 0 -0.86602541151947299 -0.49999998660252726 0.25 0 0 1 I I -0.70710678118654746 0.70710678118654746 0.25 forward I I I I #
loop $-1 $-1 $295 $85 #
coedge $-1 $186 $186 $296 $297 reversed $116 $-1 #
face $-1 $298 $299 $66 $-1 $300 reversed single #
loop $-1 $-1 $301 $118 #
plane-surface $-1 -4.6761857083424232 8.3632779990239214e-007 62.008830461538885 0 0.86602541151947299 0.49999998660252726 1 0 0 forward_v I I I I #
coedge $-1 $302 $303 $304 $305 reversed $119 $-1 #
face $-1 $-1 $306 $67 $-1 $307 forward single #
loop $-1 $308 $309 $121 #
cone-surface $-1 -8.2836423508140626 28.738035405932106 8.6108354529767972 0 -0.86602541151947299 -0.49999998660252726 0.25 0 0 1 I I -0.70710678118654746 0.70710678118654746 0.25 forward I I I I #
loop $-1 $-1 $310 $87 #
coedge $-1 $195 $195 $311 $312 reversed $122 $-1 #
face $-1 $-1 $313 $68 $-1 $314 forward single #
loop $-1 $315 $316 $124 #
cone-surface $-1 -4.6761857083424232 28.738035405932106 8.6108354529767972 0 -0.86602541151947299 -0.49999998660252726 0.25 0 0 1 I I -0.70710678118654746 0.70710678118654746 0.25 forward I I I I #
loop $-1 $-1 $317 $88 #
coedge $-1 $200 $200 $318 $319 reversed $125 $-1 #
face $-1 $-1 $320 $69 $-1 $321 forward single #
loop $-1 $322 $323 $127 #
cone-surface $-1 -1.0687290658707838 28.738035405932106 8.6108354529767972 0 -0.86602541151947299 -0.49999998660252726 0.25 0 0 1 I I -0.70710678118654746 0.70710678118654746 0.25 forward I I I I #
loop $-1 $-1 $324 $89 #
coedge $-1 $205 $205 $325 $326 reversed $128 $-1 #
face $-1 $327 $328 $70 $-1 $329 reversed single #
loop $-1 $-1 $330 $130 #
plane-surface $-1 17.369023842618091 8.3632779990239214e-007 62.008830461538885 0 0.86602541151947299 0.49999998660252726 1 0 0 forward_v I I I I #
coedge $-1 $331 $332 $333 $334 reversed $131 $-1 #
face $-1 $-1 $335 $71 $-1 $336 forward single #
loop $-1 $337 $338 $133 #
cone-surface $-1 13.761567200146459 28.738035405932106 8.6108354529767972 0 -0.86602541151947299 -0.49999998660252726 0.25 0 0 1 I I -0.70710678118654746 0.70710678118654746 0.25 forward I I I I #
loop $-1 $-1 $339 $91 #
coedge $-1 $214 $214 $340 $341 reversed $134 $-1 #
face $-1 $-1 $342 $72 $-1 $343 forward single #
loop $-1 $344 $345 $136 #
cone-surface $-1 17.369023842618091 28.738035405932106 8.6108354529767972 0 -0.86602541151947299 -0.49999998660252726 0.25 0 0 1 I I -0.70710678118654746 0.70710678118654746 0.25 forward I I I I #
loop $-1 $-1 $346 $92 #
coedge $-1 $219 $219 $347 $348 reversed $137 $-1 #
face $-1 $-1 $349 $73 $-1 $350 forward single #
loop $-1 $351 $352 $139 #
cone-surface $-1 20.976480485089724 28.738035405932106 8.6108354529767972 0 -0.86602541151947299 -0.49999998660252726 0.25 0 0 1 I I -0.70710678118654746 0.70710678118654746 0.25 forward I I I I #
loop $-1 $-1 $353 $93 #
coedge $-1 $224 $224 $354 $355 reversed $140 $-1 #
face $-1 $356 $357 $74 $-1 $358 reversed single #
loop $-1 $-1 $359 $142 #
plane-surface $-1 39.414233393578598 8.3632779990239214e-007 62.008830461538885 0 0.86602541151947299 0.49999998660252726 1 0 0 forward_v I I I I #
coedge $-1 $360 $361 $362 $363 reversed $143 $-1 #
face $-1 $-1 $364 $75 $-1 $365 forward single #
loop $-1 $366 $367 $145 #
cone-surface $-1 35.80677675110698 28.738035405932106 8.6108354529767972 0 -0.86602541151947299 -0.49999998660252726 0.25 0 0 1 I I -0.70710678118654746 0.70710678118654746 0.25 forward I I I I #
loop $-1 $-1 $368 $95 #
coedge $-1 $233 $233 $369 $370 reversed $146 $-1 #
face $-1 $-1 $371 $76 $-1 $372 forward single #
loop $-1 $373 $374 $148 #
cone-surface $-1 39.414233393578598 28.738035405932106 8.6108354529767972 0 -0.86602541151947299 -0.49999998660252726 0.25 0 0 1 I I -0.70710678118654746 0.70710678118654746 0.25 forward I I I I #
loop $-1 $-1 $375 $96 #
coedge $-1 $238 $238 $376 $377 reversed $149 $-1 #
face $-1 $-1 $378 $77 $-1 $379 forward single #
loop $-1 $380 $381 $151 #
cone-surface $-1 43.021690036050245 28.738035405932106 8.6108354529767972 0 -0.86602541151947299 -0.49999998660252726 0.25 0 0 1 I I -0.70710678118654746 0.70710678118654746 0.25 forward I I I I #
loop $-1 $-1 $382 $97 #
coedge $-1 $243 $243 $383 $384 reversed $152 $-1 #
face $-1 $385 $386 $78 $-1 $387 reversed single #
loop $-1 $-1 $388 $154 #
plane-surface $-1 41.694127089062846 -116.67684305642223 60.667457272600132 1 0 0 0 0.83867057594974714 -0.54463902268945019 forward_v I I I I #
coedge $-1 $389 $390 $391 $392 reversed $155 $-1 #
face $-1 $-1 $393 $79 $-1 $394 forward single #
loop $-1 $395 $396 $157 #
cone-surface $-1 46.32330488490436 -26.811103403716569 6.5155457172351383 0 0.83867057594974714 -0.54463902268945019 0.75 0 0 1 I I -0.70710678118654757 0.70710678118654757 0.75 forward I I I I #
loop $-1 $-1 $397 $99 #
coedge $-1 $252 $252 $398 $399 reversed $158 $-1 #
face $-1 $400 $401 $60 $-1 $402 reversed single #
loop $-1 $-1 $403 $160 #
plane-surface $-1 0 -31.212147064560906 0 0 1 0 0 0 1 forward_v I I I I #
coedge $-1 $404 $405 $406 $407 forward $161 $-1 #
coedge $-1 $408 $163 $409 $410 forward $101 $-1 #
coedge $-1 $163 $408 $411 $412 forward $101 $-1 #
coedge $-1 $413 $414 $163 $260 reversed $415 $-1 #
edge $-1 $416 -31.212147064560906 $417 31.212147064560906 $259 $418 forward 7 unknown #
face $-1 $419 $420 $61 $-1 $421 reversed single #
loop $-1 $-1 $422 $164 #
plane-surface $-1 0 31.212147064560906 0 0 -1 0 0 0 -1 forward_v I I I I #
coedge $-1 $267 $423 $424 $425 reversed $165 $-1 #
coedge $-1 $426 $167 $427 $428 reversed $104 $-1 #
coedge $-1 $167 $426 $429 $430 reversed $104 $-1 #
coedge $-1 $431 $264 $167 $268 reversed $165 $-1 #
edge $-1 $432 -31.212147064560906 $433 31.212147064560906 $267 $434 forward 7 unknown #
face $-1 $435 $436 $62 $-1 $437 forward single #
loop $-1 $-1 $438 $168 #
plane-surface $-1 -20.708967521850205 88.252290399391327 112.96131177701577 -1 0 0 0 0.86602541151947299 0.49999998660252726 forward_v I I I I #
coedge $-1 $439 $440 $441 $442 reversed $169 $-1 #
coedge $-1 $274 $171 $443 $444 reversed $107 $-1 #
coedge $-1 $171 $273 $439 $445 reversed $107 $-1 #
coedge $-1 $441 $446 $171 $276 forward $436 $-1 #
edge $-1 $447 12.913998135134758 $448 14.725254714334152 $275 $449 forward 7 unknown #
loop $-1 $-1 $282 $172 #
plane-surface $-1 -26.721395259302938 8.3632779990239214e-007 62.008830461538885 0 0.86602541151947299 0.49999998660252726 1 0 0 forward_v I I I I #
loop $-1 $-1 $450 $109 #
coedge $-1 $280 $280 $281 $451 reversed $173 $-1 #
coedge $-1 $281 $281 $280 $451 forward $175 $-1 #
coedge $-1 $282 $282 $176 $283 forward $277 $-1 #
edge $-1 $452 -7.3104573759927282e-016 $452 6.2831853071795996 $282 $453 forward 7 unknown #
loop $-1 $-1 $289 $177 #
plane-surface $-1 -26.721395259302938 8.3632779990239214e-007 62.008830461538885 0 0.86602541151947299 0.49999998660252726 1 0 0 forward_v I I I I #
loop $-1 $-1 $454 $112 #
coedge $-1 $287 $287 $288 $455 reversed $178 $-1 #
coedge $-1 $288 $288 $287 $455 forward $180 $-1 #
coedge $-1 $289 $289 $181 $290 forward $284 $-1 #
edge $-1 $456 -7.3104573759927282e-016 $456 6.2831853071795996 $289 $457 forward 7 unknown #
loop $-1 $-1 $296 $182 #
plane-surface $-1 -26.721395259302938 8.3632779990239214e-007 62.008830461538885 0 0.86602541151947299 0.49999998660252726 1 0 0 forward_v I I I I #
loop $-1 $-1 $458 $115 #
coedge $-1 $294 $294 $295 $459 reversed $183 $-1 #
coedge $-1 $295 $295 $294 $459 forward $185 $-1 #
coedge $-1 $296 $296 $186 $297 forward $291 $-1 #
edge $-1 $460 -7.3104573759927282e-016 $460 6.2831853071795996 $296 $461 forward 7 unknown #
face $-1 $462 $463 $66 $-1 $464 forward single #
loop $-1 $-1 $465 $187 #
plane-surface $-1 1.3362420291103092 88.252290399391327 112.96131177701577 -1 0 0 0 0.86602541151947299 0.49999998660252726 forward_v I I I I #
coedge $-1 $466 $467 $468 $469 reversed $188 $-1 #
coedge $-1 $303 $190 $470 $471 reversed $119 $-1 #
coedge $-1 $190 $302 $466 $472 reversed $119 $-1 #
coedge $-1 $468 $473 $190 $305 forward $463 $-1 #
edge $-1 $474 12.913998135134758 $475 14.725254714334152 $304 $476 forward 7 unknown #
loop $-1 $-1 $311 $191 #
plane-surface $-1 -4.6761857083424232 8.3632779990239214e-007 62.008830461538885 0 0.86602541151947299 0.49999998660252726 1 0 0 forward_v I I I I #
loop $-1 $-1 $477 $121 #
coedge $-1 $309 $309 $310 $478 reversed $192 $-1 #
coedge $-1 $310 $310 $309 $478 forward $194 $-1 #
coedge $-1 $311 $311 $195 $312 forward $306 $-1 #
edge $-1 $479 -7.3104573759927282e-016 $479 6.2831853071795996 $311 $480 forward 7 unknown #
loop $-1 $-1 $318 $196 #
plane-surface $-1 -4.6761857083424232 8.3632779990239214e-007 62.008830461538885 0 0.86602541151947299 0.49999998660252726 1 0 0 forward_v I I I I #
loop $-1 $-1 $481 $124 #
coedge $-1 $316 $316 $317 $482 reversed $197 $-1 #
coedge $-1 $317 $317 $316 $482 forward $199 $-1 #
coedge $-1 $318 $318 $200 $319 forward $313 $-1 #
edge $-1 $483 -7.3104573759927282e-016 $483 6.2831853071795996 $318 $484 forward 7 unknown #
loop $-1 $-1 $325 $201 #
plane-surface $-1 -4.6761857083424232 8.3632779990239214e-007 62.008830461538885 0 0.86602541151947299 0.49999998660252726 1 0 0 forward_v I I I I #
loop $-1 $-1 $485 $127 #
coedge $-1 $323 $323 $324 $486 reversed $202 $-1 #
coedge $-1 $324 $324 $323 $486 forward $204 $-1 #
coedge $-1 $325 $325 $205 $326 forward $320 $-1 #
edge $-1 $487 -7.3104573759927282e-016 $487 6.2831853071795996 $325 $488 forward 7 unknown #
face $-1 $489 $490 $70 $-1 $491 forward single #
loop $-1 $-1 $492 $206 #
plane-surface $-1 23.381451580070824 88.252290399391327 112.96131177701577 -1 0 0 0 0.86602541151947299 0.49999998660252726 forward_v I I I I #
coedge $-1 $493 $494 $495 $496 reversed $207 $-1 #
coedge $-1 $332 $209 $497 $498 reversed $131 $-1 #
coedge $-1 $209 $331 $493 $499 reversed $131 $-1 #
coedge $-1 $495 $500 $209 $334 forward $490 $-1 #
edge $-1 $501 12.913998135134758 $502 14.725254714334152 $333 $503 forward 7 unknown #
loop $-1 $-1 $340 $210 #
plane-surface $-1 17.369023842618091 8.3632779990239214e-007 62.008830461538885 0 0.86602541151947299 0.49999998660252726 1 0 0 forward_v I I I I #
loop $-1 $-1 $504 $133 #
coedge $-1 $338 $338 $339 $505 reversed $211 $-1 #
coedge $-1 $339 $339 $338 $505 forward $213 $-1 #
coedge $-1 $340 $340 $214 $341 forward $335 $-1 #
edge $-1 $506 -7.3104573759927282e-016 $506 6.2831853071795996 $340 $507 forward 7 unknown #
loop $-1 $-1 $347 $215 #
plane-surface $-1 17.369023842618091 8.3632779990239214e-007 62.008830461538885 0 0.86602541151947299 0.49999998660252726 1 0 0 forward_v I I I I #
loop $-1 $-1 $508 $136 #
coedge $-1 $345 $345 $346 $509 reversed $216 $-1 #
coedge $-1 $346 $346 $345 $509 forward $218 $-1 #
coedge $-1 $347 $347 $219 $348 forward $342 $-1 #
edge $-1 $510 -7.3104573759927282e-016 $510 6.2831853071795996 $347 $511 forward 7 unknown #
loop $-1 $-1 $354 $220 #
plane-surface $-1 17.369023842618091 8.3632779990239214e-007 62.008830461538885 0 0.86602541151947299 0.49999998660252726 1 0 0 forward_v I I I I #
loop $-1 $-1 $512 $139 #
coedge $-1 $352 $352 $353 $513 reversed $221 $-1 #
coedge $-1 $353 $353 $352 $513 forward $223 $-1 #
coedge $-1 $354 $354 $224 $355 forward $349 $-1 #
edge $-1 $514 -7.3104573759927282e-016 $514 6.2831853071795996 $354 $515 forward 7 unknown #
face $-1 $516 $517 $74 $-1 $518 forward single #
loop $-1 $-1 $519 $225 #
plane-surface $-1 45.426661131031331 88.252290399391327 112.96131177701577 -1 0 0 0 0.86602541151947299 0.49999998660252726 forward_v I I I I #
coedge $-1 $520 $521 $522 $523 reversed $226 $-1 #
coedge $-1 $361 $228 $524 $525 reversed $143 $-1 #
coedge $-1 $228 $360 $520 $526 reversed $143 $-1 #
coedge $-1 $522 $527 $228 $363 forward $517 $-1 #
edge $-1 $528 12.913998135134758 $529 14.725254714334152 $362 $530 forward 7 unknown #
loop $-1 $-1 $369 $229 #
plane-surface $-1 39.414233393578598 8.3632779990239214e-007 62.008830461538885 0 0.86602541151947299 0.49999998660252726 1 0 0 forward_v I I I I #
loop $-1 $-1 $531 $145 #
coedge $-1 $367 $367 $368 $532 reversed $230 $-1 #
coedge $-1 $368 $368 $367 $532 forward $232 $-1 #
coedge $-1 $369 $369 $233 $370 forward $364 $-1 #
edge $-1 $533 -7.3104573759927282e-016 $533 6.2831853071795996 $369 $534 forward 7 unknown #
loop $-1 $-1 $376 $234 #
plane-surface $-1 39.414233393578598 8.3632779990239214e-007 62.008830461538885 0 0.86602541151947299 0.49999998660252726 1 0 0 forward_v I I I I #
loop $-1 $-1 $535 $148 #
coedge $-1 $374 $374 $375 $536 reversed $235 $-1 #
coedge $-1 $375 $375 $374 $536 forward $237 $-1 #
coedge $-1 $376 $376 $238 $377 forward $371 $-1 #
edge $-1 $537 -7.3104573759927282e-016 $537 6.2831853071795996 $376 $538 forward 7 unknown #
loop $-1 $-1 $383 $239 #
plane-surface $-1 39.414233393578598 8.3632779990239214e-007 62.008830461538885 0 0.86602541151947299 0.49999998660252726 1 0 0 forward_v I I I I #
loop $-1 $-1 $539 $151 #
coedge $-1 $381 $381 $382 $540 reversed $240 $-1 #
coedge $-1 $382 $382 $381 $540 forward $242 $-1 #
coedge $-1 $383 $383 $243 $384 forward $378 $-1 #
edge $-1 $541 -7.3104573759927282e-016 $541 6.2831853071795996 $383 $542 forward 7 unknown #
face $-1 $543 $544 $78 $-1 $545 forward single #
loop $-1 $-1 $546 $244 #
plane-surface $-1 50.952482680745874 0 0 -1 0 0 0 0 1 forward_v I I I I #
coedge $-1 $547 $548 $549 $550 reversed $245 $-1 #
coedge $-1 $551 $247 $546 $552 reversed $155 $-1 #
coedge $-1 $247 $551 $547 $553 forward $155 $-1 #
coedge $-1 $549 $554 $247 $392 forward $544 $-1 #
edge $-1 $555 -27.790830238293694 $556 -18.532474646610666 $391 $557 forward 7 unknown #
loop $-1 $-1 $398 $248 #
plane-surface $-1 46.32330488490436 -31.212147064560909 5.1660365309149938 0 -0.83867057594974714 0.54463902268945019 1 0 0 forward_v I I I I #
loop $-1 $-1 $558 $157 #
coedge $-1 $396 $396 $397 $559 reversed $249 $-1 #
coedge $-1 $397 $397 $396 $559 forward $251 $-1 #
coedge $-1 $398 $398 $252 $399 forward $393 $-1 #
edge $-1 $560 8.9033658465053088e-016 $560 6.2831853071796013 $398 $561 forward 7 unknown #
face $-1 $562 $563 $60 $-1 $564 reversed single #
loop $-1 $-1 $565 $253 #
plane-surface $-1 -50.952482680745874 0 0 1 0 0 0 0 -1 forward_v I I I I #
coedge $-1 $566 $411 $567 $568 forward $254 $-1 #
coedge $-1 $569 $256 $566 $570 forward $161 $-1 #
coedge $-1 $256 $569 $571 $572 forward $161 $-1 #
coedge $-1 $414 $413 $256 $407 reversed $415 $-1 #
edge $-1 $573 -31.212147064560906 $574 31.212147064560906 $406 $575 forward 7 unknown #
coedge $-1 $258 $257 $576 $577 forward $101 $-1 #
coedge $-1 $578 $579 $257 $410 reversed $563 $-1 #
edge $-1 $417 -50.952482680745874 $580 50.952482680745874 $409 $581 forward 7 unknown #
coedge $-1 $403 $582 $258 $412 reversed $254 $-1 #
edge $-1 $583 -50.952482680745874 $416 50.952482680745874 $411 $584 forward 7 unknown #
coedge $-1 $406 $259 $582 $585 forward $415 $-1 #
coedge $-1 $259 $406 $578 $586 reversed $415 $-1 #
loop $-1 $-1 $413 $562 #
vertex $-1 $260 $587 #
vertex $-1 $260 $588 #
straight-curve $-1 50.952482680745874 0 11.084993982351396 0 1 0 I I #
face $-1 $589 $590 $61 $-1 $591 forward single #
loop $-1 $-1 $592 $261 #
plane-surface $-1 -50.952482680745874 0 0 1 0 0 0 0 -1 forward_v I I I I #
coedge $-1 $429 $593 $431 $594 forward $262 $-1 #
coedge $-1 $264 $431 $595 $596 reversed $165 $-1 #
coedge $-1 $597 $427 $264 $425 forward $598 $-1 #
edge $-1 $433 1.4212723462127705 $599 6.9162385394966748 $424 $600 forward 7 unknown #
coedge $-1 $266 $265 $592 $601 reversed $104 $-1 #
coedge $-1 $424 $602 $265 $428 forward $598 $-1 #
edge $-1 $603 -28.907273129785359 $433 -15.183145972135669 $427 $604 forward 7 unknown #
coedge $-1 $605 $422 $266 $430 forward $262 $-1 #
edge $-1 $432 15.183145972135669 $606 28.907273129785359 $429 $607 forward 7 unknown #
coedge $-1 $423 $267 $422 $594 reversed $165 $-1 #
vertex $-1 $430 $608 #
vertex $-1 $428 $609 #
straight-curve $-1 -37.228355523096184 0 5.5900277890674932 0 -1 0 I I #
face $-1 $-1 $610 $62 $-1 $611 reversed single #
loop $-1 $-1 $275 $269 #
plane-surface $-1 0 0 11.084993982351396 0 0 1 1 0 0 forward_v I I I I #
coedge $-1 $612 $613 $614 $615 reversed $270 $-1 #
coedge $-1 $616 $272 $274 $445 forward $169 $-1 #
coedge $-1 $272 $616 $612 $617 forward $169 $-1 #
coedge $-1 $614 $275 $272 $442 forward $436 $-1 #
edge $-1 $448 -19.373125367104201 $618 -7.3482698921987364 $441 $619 forward 7 unknown #
coedge $-1 $620 $621 $273 $444 forward $610 $-1 #
edge $-1 $622 -48.532850438954299 $447 -45.395661906156491 $443 $623 forward 7 unknown #
edge $-1 $448 58.801780873657925 $622 62.424294129121769 $274 $624 forward 7 unknown #
coedge $-1 $275 $614 $620 $625 forward $436 $-1 #
vertex $-1 $444 $626 #
vertex $-1 $276 $627 #
straight-curve $-1 -32.73382299675567 44.126145199695664 11.084993982351392 0 -1 0 I I #
coedge $-1 $450 $450 $-1 $628 reversed $279 $-1 #
edge $-1 $629 0 $629 6.2831853071796004 $280 $630 forward 7 unknown #
vertex $-1 $283 $631 #
ellipse-curve $-1 -30.328851901774577 30.306518774961216 9.5163997159524776 0 0.86602541151947299 0.49999998660252726 0.5 0 0 1 I I #
coedge $-1 $454 $454 $-1 $632 reversed $286 $-1 #
edge $-1 $633 0 $633 6.2831853071796004 $287 $634 forward 7 unknown #
vertex $-1 $290 $635 #
ellipse-curve $-1 -26.721395259302938 30.306518774961216 9.5163997159524776 0 0.86602541151947299 0.49999998660252726 0.5 0 0 1 I I #
coedge $-1 $458 $458 $-1 $636 reversed $293 $-1 #
edge $-1 $637 0 $637 6.2831853071796004 $294 $638 forward 7 unknown #
vertex $-1 $297 $639 #
ellipse-curve $-1 -23.113938616831298 30.306518774961216 9.5163997159524776 0 0.86602541151947299 0.49999998660252726 0.5 0 0 1 I I #
face $-1 $-1 $640 $66 $-1 $641 reversed single #
loop $-1 $-1 $304 $298 #
plane-surface $-1 0 0 11.084993982351396 0 0 1 1 0 0 forward_v I I I I #
coedge $-1 $642 $643 $644 $645 reversed $299 $-1 #
coedge $-1 $646 $301 $303 $472 forward $188 $-1 #
coedge $-1 $301 $646 $642 $647 forward $188 $-1 #
coedge $-1 $644 $304 $301 $469 forward $463 $-1 #
edge $-1 $475 -8.350520591623944 $648 3.6743348832815208 $468 $649 forward 7 unknown #
coedge $-1 $650 $651 $302 $471 forward $640 $-1 #
edge $-1 $652 -48.532850438954299 $474 -45.395661906156491 $470 $653 forward 7 unknown #
edge $-1 $475 58.801780873657925 $652 62.424294129121769 $303 $654 forward 7 unknown #
coedge $-1 $304 $644 $650 $655 forward $463 $-1 #
vertex $-1 $305 $656 #
vertex $-1 $305 $657 #
straight-curve $-1 -10.688613445795156 44.126145199695664 11.084993982351392 0 -1 0 I I #
coedge $-1 $477 $477 $-1 $658 reversed $308 $-1 #
edge $-1 $659 0 $659 6.2831853071796004 $309 $660 forward 7 unknown #
vertex $-1 $312 $661 #
ellipse-curve $-1 -8.2836423508140626 30.306518774961216 9.5163997159524776 0 0.86602541151947299 0.49999998660252726 0.5 0 0 1 I I #
coedge $-1 $481 $481 $-1 $662 reversed $315 $-1 #
edge $-1 $663 0 $663 6.2831853071796004 $316 $664 forward 7 unknown #
vertex $-1 $319 $665 #
ellipse-curve $-1 -4.6761857083424232 30.306518774961216 9.5163997159524776 0 0.86602541151947299 0.49999998660252726 0.5 0 0 1 I I #
coedge $-1 $485 $485 $-1 $666 reversed $322 $-1 #
edge $-1 $667 0 $667 6.2831853071796004 $323 $668 forward 7 unknown #
vertex $-1 $326 $669 #
ellipse-curve $-1 -1.0687290658707838 30.306518774961216 9.5163997159524776 0 0.86602541151947299 0.49999998660252726 0.5 0 0 1 I I #
face $-1 $-1 $670 $70 $-1 $671 reversed single #
loop $-1 $-1 $333 $327 #
plane-surface $-1 0 0 11.084993982351396 0 0 1 1 0 0 forward_v I I I I #
coedge $-1 $672 $673 $674 $675 reversed $328 $-1 #
coedge $-1 $676 $330 $332 $499 forward $207 $-1 #
coedge $-1 $330 $676 $672 $677 forward $207 $-1 #
coedge $-1 $674 $333 $330 $496 forward $490 $-1 #
edge $-1 $502 2.6720841838563132 $678 14.696939658761778 $495 $679 forward 7 unknown #
coedge $-1 $680 $681 $331 $498 forward $670 $-1 #
edge $-1 $682 -48.532850438954299 $501 -45.395661906156491 $497 $683 forward 7 unknown #
edge $-1 $502 58.801780873657925 $682 62.424294129121769 $332 $684 forward 7 unknown #
coedge $-1 $333 $674 $680 $685 forward $490 $-1 #
vertex $-1 $334 $686 #
vertex $-1 $334 $687 #
straight-curve $-1 11.356596105165359 44.126145199695664 11.084993982351392 0 -1 0 I I #
coedge $-1 $504 $504 $-1 $688 reversed $337 $-1 #
edge $-1 $689 0 $689 6.2831853071796004 $338 $690 forward 7 unknown #
vertex $-1 $341 $691 #
ellipse-curve $-1 13.761567200146459 30.306518774961216 9.5163997159524776 0 0.86602541151947299 0.49999998660252726 0.5 0 0 1 I I #
coedge $-1 $508 $508 $-1 $692 reversed $344 $-1 #
edge $-1 $693 0 $693 6.2831853071796004 $345 $694 forward 7 unknown #
vertex $-1 $348 $695 #
ellipse-curve $-1 17.369023842618091 30.306518774961216 9.5163997159524776 0 0.86602541151947299 0.49999998660252726 0.5 0 0 1 I I #
coedge $-1 $512 $512 $-1 $696 reversed $351 $-1 #
edge $-1 $697 0 $697 6.2831853071796004 $352 $698 forward 7 unknown #
vertex $-1 $355 $699 #
ellipse-curve $-1 20.976480485089724 30.306518774961216 9.5163997159524776 0 0.86602541151947299 0.49999998660252726 0.5 0 0 1 I I #
face $-1 $-1 $700 $74 $-1 $701 reversed single #
loop $-1 $-1 $362 $356 #
plane-surface $-1 0 0 11.084993982351396 0 0 1 1 0 0 forward_v I I I I #
coedge $-1 $702 $703 $704 $705 reversed $357 $-1 #
coedge $-1 $706 $359 $361 $526 forward $226 $-1 #
coedge $-1 $359 $706 $702 $707 forward $226 $-1 #
coedge $-1 $704 $362 $359 $523 forward $517 $-1 #
edge $-1 $529 13.694688959336567 $708 25.719544434242032 $522 $709 forward 7 unknown #
coedge $-1 $710 $711 $360 $525 forward $700 $-1 #
edge $-1 $712 -48.532850438954299 $528 -45.395661906156491 $524 $713 forward 7 unknown #
edge $-1 $529 58.801780873657925 $712 62.424294129121769 $361 $714 forward 7 unknown #
coedge $-1 $362 $704 $710 $715 forward $517 $-1 #
vertex $-1 $363 $716 #
vertex $-1 $363 $717 #
straight-curve $-1 33.401805656125866 44.126145199695664 11.084993982351392 0 -1 0 I I #
coedge $-1 $531 $531 $-1 $718 reversed $366 $-1 #
edge $-1 $719 0 $719 6.2831853071796004 $367 $720 forward 7 unknown #
vertex $-1 $370 $721 #
ellipse-curve $-1 35.80677675110698 30.306518774961216 9.5163997159524776 0 0.86602541151947299 0.49999998660252726 0.5 0 0 1 I I #
coedge $-1 $535 $535 $-1 $722 reversed $373 $-1 #
edge $-1 $723 0 $723 6.2831853071796004 $374 $724 forward 7 unknown #
vertex $-1 $377 $725 #
ellipse-curve $-1 39.414233393578598 30.306518774961216 9.5163997159524776 0 0.86602541151947299 0.49999998660252726 0.5 0 0 1 I I #
coedge $-1 $539 $539 $-1 $726 reversed $380 $-1 #
edge $-1 $727 0 $727 6.2831853071796004 $381 $728 forward 7 unknown #
vertex $-1 $384 $729 #
ellipse-curve $-1 43.021690036050245 30.306518774961216 9.5163997159524776 0 0.86602541151947299 0.49999998660252726 0.5 0 0 1 I I #
face $-1 $-1 $730 $78 $-1 $731 reversed single #
loop $-1 $-1 $391 $385 #
plane-surface $-1 0 0 11.084993982351396 0 0 1 1 0 0 forward_v I I I I #
coedge $-1 $732 $733 $389 $552 forward $386 $-1 #
coedge $-1 $548 $388 $390 $553 reversed $245 $-1 #
coedge $-1 $388 $547 $734 $735 reversed $245 $-1 #
coedge $-1 $736 $391 $388 $550 forward $544 $-1 #
edge $-1 $556 -30.97009025275203 $737 -27.126274463650208 $549 $738 forward 7 unknown #
coedge $-1 $390 $389 $739 $740 reversed $155 $-1 #
edge $-1 $741 -6.3333752202609608 $555 0.72417230933194277 $546 $742 forward 7 unknown #
edge $-1 $743 6.4042811466935879e-015 $556 7.0575475295929095 $547 $744 forward 7 unknown #
coedge $-1 $391 $736 $732 $745 forward $544 $-1 #
vertex $-1 $392 $746 #
vertex $-1 $392 $747 #
straight-curve $-1 23.16165244245218 -27.368331275459084 11.084993982351396 -1 0 0 I I #
coedge $-1 $558 $558 $-1 $748 reversed $395 $-1 #
edge $-1 $749 0 $749 6.2831853071796004 $396 $750 forward 7 unknown #
vertex $-1 $399 $751 #
ellipse-curve $-1 46.32330488490436 -29.290239170009997 8.1255152566331912 0 -0.83867057594974714 0.54463902268945019 1.5 0 0 1 I I #
face $-1 $-1 $415 $60 $-1 $752 reversed single #
loop $-1 $-1 $578 $400 #
plane-surface $-1 0 31.212147064560906 0 0 -1 0 0 0 -1 forward_v I I I I #
coedge $-1 $753 $576 $579 $754 forward $401 $-1 #
coedge $-1 $582 $403 $404 $570 reversed $254 $-1 #
coedge $-1 $576 $753 $403 $568 reversed $401 $-1 #
edge $-1 $583 -11.084993982351396 $755 11.084993982351396 $567 $756 forward 7 unknown #
coedge $-1 $405 $404 $753 $757 forward $161 $-1 #
edge $-1 $574 -50.952482680745874 $755 50.952482680745874 $566 $758 forward 7 unknown #
coedge $-1 $579 $578 $405 $572 reversed $563 $-1 #
edge $-1 $759 -50.952482680745874 $573 50.952482680745874 $571 $760 forward 7 unknown #
vertex $-1 $407 $761 #
vertex $-1 $585 $762 #
straight-curve $-1 50.952482680745874 0 -11.084993982351396 0 -1 0 I I #
coedge $-1 $565 $567 $408 $577 reversed $401 $-1 #
edge $-1 $580 -31.212147064560906 $583 31.212147064560906 $576 $763 forward 7 unknown #
coedge $-1 $571 $409 $414 $586 forward $563 $-1 #
coedge $-1 $409 $571 $565 $754 reversed $563 $-1 #
vertex $-1 $410 $764 #
straight-curve $-1 0 31.212147064560906 11.084993982351396 -1 0 0 I I #
coedge $-1 $411 $566 $413 $585 reversed $254 $-1 #
vertex $-1 $577 $765 #
straight-curve $-1 0 -31.212147064560906 11.084993982351396 1 0 0 I I #
edge $-1 $416 -11.084993982351396 $574 11.084993982351396 $413 $766 forward 7 unknown #
edge $-1 $417 -11.084993982351396 $573 11.084993982351396 $414 $767 forward 7 unknown #
point $-1 50.952482680745874 -31.212147064560906 11.084993982351396 #
point $-1 50.952482680745874 31.212147064560906 11.084993982351396 #
face $-1 $-1 $598 $61 $-1 $768 reversed single #
loop $-1 $-1 $595 $419 #
plane-surface $-1 0 0 11.084993982351396 0 0 1 1 0 0 forward_v I I I I #
coedge $-1 $769 $770 $426 $601 forward $420 $-1 #
coedge $-1 $422 $605 $771 $772 reversed $262 $-1 #
edge $-1 $773 -6.9162385394966748 $432 -1.4212723462127705 $422 $774 forward 7 unknown #
coedge $-1 $771 $775 $423 $596 forward $590 $-1 #
edge $-1 $599 -31.212147064560906 $773 31.212147064560906 $595 $776 forward 7 unknown #
coedge $-1 $602 $424 $775 $777 reversed $598 $-1 #
loop $-1 $-1 $424 $589 #
vertex $-1 $425 $778 #
straight-curve $-1 -37.228355523096184 -31.212147064560906 4.1687554428547227 0 0 1 I I #
edge $-1 $606 -31.212147064560906 $603 31.212147064560906 $592 $779 forward 7 unknown #
coedge $-1 $427 $597 $769 $780 forward $598 $-1 #
vertex $-1 $601 $781 #
straight-curve $-1 -22.045209550960514 -31.212147064560906 5.5900277890674932 1 0 0 I I #
coedge $-1 $593 $429 $770 $782 reversed $262 $-1 #
vertex $-1 $601 $783 #
straight-curve $-1 -22.045209550960514 31.212147064560906 5.5900277890674932 -1 0 0 I I #
point $-1 -37.228355523096184 31.212147064560906 5.5900277890674932 #
point $-1 -37.228355523096184 -31.212147064560906 5.5900277890674932 #
loop $-1 $-1 $443 $435 #
plane-surface $-1 0 31.212147064560906 0 0 -1 0 0 0 -1 forward_v I I I I #
coedge $-1 $613 $438 $440 $617 reversed $270 $-1 #
coedge $-1 $438 $612 $784 $785 reversed $270 $-1 #
coedge $-1 $446 $441 $438 $615 forward $436 $-1 #
edge $-1 $618 -14.725254714334152 $786 -12.913998135134758 $614 $787 forward 7 unknown #
coedge $-1 $440 $439 $621 $788 reversed $169 $-1 #
edge $-1 $789 -62.424294129121769 $618 -58.801780873657925 $612 $790 forward 7 unknown #
vertex $-1 $442 $791 #
straight-curve $-1 -13.360697629651469 29.400890485361508 11.084993982351396 1 0 0 I I #
coedge $-1 $784 $443 $446 $625 reversed $610 $-1 #
coedge $-1 $443 $784 $616 $788 forward $610 $-1 #
vertex $-1 $444 $792 #
straight-curve $-1 -32.73382299675567 31.212147064560906 56.480655888507883 0 0 1 I I #
straight-curve $-1 -32.73382299675567 8.3632779990239214e-007 62.008830461538885 0 0.49999998660252726 -0.86602541151947299 I I #
edge $-1 $786 20.708967521850205 $447 32.73382299675567 $620 $793 forward 7 unknown #
point $-1 -32.73382299675567 31.212147064560906 11.084993982351396 #
point $-1 -32.73382299675567 29.400890485361511 11.084993982351399 #
edge $-1 $794 1 $794 0 $450 $-1 forward 7 unknown #
vertex $-1 $451 $795 #
ellipse-curve $-1 -30.328851901774577 28.954541758811974 8.7358354496274284 0 0.86602541151947299 0.49999998660252726 0.5 0 0 1 I I #
point $-1 -29.828851901774577 30.306518774961187 9.5163997159524616 #
edge $-1 $796 1 $796 0 $454 $-1 forward 7 unknown #
vertex $-1 $455 $797 #
ellipse-curve $-1 -26.721395259302938 28.954541758811974 8.7358354496274284 0 0.86602541151947299 0.49999998660252726 0.5 0 0 1 I I #
point $-1 -26.221395259302938 30.306518774961187 9.5163997159524616 #
edge $-1 $798 1 $798 0 $458 $-1 forward 7 unknown #
vertex $-1 $459 $799 #
ellipse-curve $-1 -23.113938616831298 28.954541758811974 8.7358354496274284 0 0.86602541151947299 0.49999998660252726 0.5 0 0 1 I I #
point $-1 -22.613938616831298 30.306518774961187 9.5163997159524616 #
loop $-1 $-1 $470 $462 #
plane-surface $-1 0 31.212147064560906 0 0 -1 0 0 0 -1 forward_v I I I I #
coedge $-1 $643 $465 $467 $647 reversed $299 $-1 #
coedge $-1 $465 $642 $800 $801 reversed $299 $-1 #
coedge $-1 $473 $468 $465 $645 forward $463 $-1 #
edge $-1 $648 -14.725254714334152 $802 -12.913998135134758 $644 $803 forward 7 unknown #
coedge $-1 $467 $466 $651 $804 reversed $188 $-1 #
edge $-1 $805 -62.424294129121769 $648 -58.801780873657925 $642 $806 forward 7 unknown #
vertex $-1 $469 $807 #
straight-curve $-1 -2.3380928541712116 29.400890485361508 11.084993982351396 1 0 0 I I #
coedge $-1 $800 $470 $473 $655 reversed $640 $-1 #
coedge $-1 $470 $800 $646 $804 forward $640 $-1 #
vertex $-1 $471 $808 #
straight-curve $-1 -10.688613445795156 31.212147064560906 56.480655888507883 0 0 1 I I #
straight-curve $-1 -10.688613445795156 8.3632779990239214e-007 62.008830461538885 0 0.49999998660252726 -0.86602541151947299 I I #
edge $-1 $802 -1.3362420291103092 $474 10.688613445795156 $650 $809 forward 7 unknown #
point $-1 -10.688613445795156 31.212147064560906 11.084993982351396 #
point $-1 -10.688613445795156 29.400890485361511 11.084993982351399 #
edge $-1 $810 1 $810 0 $477 $-1 forward 7 unknown #
vertex $-1 $478 $811 #
ellipse-curve $-1 -8.2836423508140626 28.954541758811974 8.7358354496274284 0 0.86602541151947299 0.49999998660252726 0.5 0 0 1 I I #
point $-1 -7.7836423508140626 30.306518774961187 9.5163997159524616 #
edge $-1 $812 1 $812 0 $481 $-1 forward 7 unknown #
vertex $-1 $482 $813 #
ellipse-curve $-1 -4.6761857083424232 28.954541758811974 8.7358354496274284 0 0.86602541151947299 0.49999998660252726 0.5 0 0 1 I I #
point $-1 -4.1761857083424232 30.306518774961187 9.5163997159524616 #
edge $-1 $814 1 $814 0 $485 $-1 forward 7 unknown #
vertex $-1 $486 $815 #
ellipse-curve $-1 -1.0687290658707838 28.954541758811974 8.7358354496274284 0 0.86602541151947299 0.49999998660252726 0.5 0 0 1 I I #
point $-1 -0.56872906587078376 30.306518774961187 9.5163997159524616 #
loop $-1 $-1 $497 $489 #
plane-surface $-1 0 31.212147064560906 0 0 -1 0 0 0 -1 forward_v I I I I #
coedge $-1 $673 $492 $494 $677 reversed $328 $-1 #
coedge $-1 $492 $672 $816 $817 reversed $328 $-1 #
coedge $-1 $500 $495 $492 $675 forward $490 $-1 #
edge $-1 $678 -14.725254714334152 $818 -12.913998135134758 $674 $819 forward 7 unknown #
coedge $-1 $494 $493 $681 $820 reversed $207 $-1 #
edge $-1 $821 -62.424294129121769 $678 -58.801780873657925 $672 $822 forward 7 unknown #
vertex $-1 $496 $823 #
straight-curve $-1 8.6845119213090456 29.400890485361508 11.084993982351396 1 0 0 I I #
coedge $-1 $816 $497 $500 $685 reversed $670 $-1 #
coedge $-1 $497 $816 $676 $820 forward $670 $-1 #
vertex $-1 $498 $824 #
straight-curve $-1 11.356596105165359 31.212147064560906 56.480655888507883 0 0 1 I I #
straight-curve $-1 11.356596105165359 8.3632779990239214e-007 62.008830461538885 0 0.49999998660252726 -0.86602541151947299 I I #
edge $-1 $818 -23.381451580070824 $501 -11.356596105165359 $680 $825 forward 7 unknown #
point $-1 11.356596105165359 31.212147064560906 11.084993982351396 #
point $-1 11.356596105165359 29.400890485361511 11.084993982351399 #
edge $-1 $826 1 $826 0 $504 $-1 forward 7 unknown #
vertex $-1 $505 $827 #
ellipse-curve $-1 13.761567200146459 28.954541758811974 8.7358354496274284 0 0.86602541151947299 0.49999998660252726 0.5 0 0 1 I I #
point $-1 14.261567200146459 30.306518774961187 9.5163997159524616 #
edge $-1 $828 1 $828 0 $508 $-1 forward 7 unknown #
vertex $-1 $509 $829 #
ellipse-curve $-1 17.369023842618091 28.954541758811974 8.7358354496274284 0 0.86602541151947299 0.49999998660252726 0.5 0 0 1 I I #
point $-1 17.869023842618091 30.306518774961187 9.5163997159524616 #
edge $-1 $830 1 $830 0 $512 $-1 forward 7 unknown #
vertex $-1 $513 $831 #
ellipse-curve $-1 20.976480485089724 28.954541758811974 8.7358354496274284 0 0.86602541151947299 0.49999998660252726 0.5 0 0 1 I I #
point $-1 21.476480485089724 30.306518774961187 9.5163997159524616 #
loop $-1 $-1 $524 $516 #
plane-surface $-1 0 31.212147064560906 0 0 -1 0 0 0 -1 forward_v I I I I #
coedge $-1 $703 $519 $521 $707 reversed $357 $-1 #
coedge $-1 $519 $702 $832 $833 reversed $357 $-1 #
coedge $-1 $527 $522 $519 $705 forward $517 $-1 #
edge $-1 $708 -14.725254714334152 $834 -12.913998135134758 $704 $835 forward 7 unknown #
coedge $-1 $521 $520 $711 $836 reversed $226 $-1 #
edge $-1 $837 -62.424294129121769 $708 -58.801780873657925 $702 $838 forward 7 unknown #
vertex $-1 $523 $839 #
straight-curve $-1 19.707116696789299 29.400890485361508 11.084993982351396 1 0 0 I I #
coedge $-1 $832 $524 $527 $715 reversed $700 $-1 #
coedge $-1 $524 $832 $706 $836 forward $700 $-1 #
vertex $-1 $525 $840 #
straight-curve $-1 33.401805656125866 31.212147064560906 56.480655888507883 0 0 1 I I #
straight-curve $-1 33.401805656125866 8.3632779990239214e-007 62.008830461538885 0 0.49999998660252726 -0.86602541151947299 I I #
edge $-1 $834 -45.426661131031331 $528 -33.401805656125866 $710 $841 forward 7 unknown #
point $-1 33.401805656125866 31.212147064560906 11.084993982351396 #
point $-1 33.401805656125866 29.400890485361511 11.084993982351399 #
edge $-1 $842 1 $842 0 $531 $-1 forward 7 unknown #
vertex $-1 $532 $843 #
ellipse-curve $-1 35.80677675110698 28.954541758811974 8.7358354496274284 0 0.86602541151947299 0.49999998660252726 0.5 0 0 1 I I #
point $-1 36.30677675110698 30.306518774961187 9.5163997159524616 #
edge $-1 $844 1 $844 0 $535 $-1 forward 7 unknown #
vertex $-1 $536 $845 #
ellipse-curve $-1 39.414233393578598 28.954541758811974 8.7358354496274284 0 0.86602541151947299 0.49999998660252726 0.5 0 0 1 I I #
point $-1 39.914233393578598 30.306518774961187 9.5163997159524616 #
edge $-1 $846 1 $846 0 $539 $-1 forward 7 unknown #
vertex $-1 $540 $847 #
ellipse-curve $-1 43.021690036050245 28.954541758811974 8.7358354496274284 0 0.86602541151947299 0.49999998660252726 0.5 0 0 1 I I #
point $-1 43.521690036050245 30.306518774961187 9.5163997159524616 #
loop $-1 $-1 $739 $543 #
plane-surface $-1 0 -31.212147064560906 0 0 1 0 0 0 1 forward_v I I I I #
coedge $-1 $733 $546 $554 $745 reversed $386 $-1 #
coedge $-1 $546 $732 $848 $849 forward $386 $-1 #
coedge $-1 $739 $850 $548 $735 forward $730 $-1 #
edge $-1 $737 19.24873465394867 $743 25.167692105385065 $734 $851 forward 7 unknown #
coedge $-1 $554 $549 $850 $852 forward $544 $-1 #
vertex $-1 $852 $853 #
straight-curve $-1 41.694127089062846 -58.338421528211114 11.084993982351396 0 -1 0 I I #
coedge $-1 $848 $734 $551 $740 forward $730 $-1 #
edge $-1 $743 18.532474646610666 $741 27.790830238293694 $739 $854 forward 7 unknown #
vertex $-1 $740 $855 #
straight-curve $-1 50.952482680745874 -27.762743774272394 10.477651974597116 0 0.54463902268945019 0.83867057594974714 I I #
vertex $-1 $740 $856 #
straight-curve $-1 41.694127089062846 -31.212147064560909 5.1660365309149938 0 0.54463902268945019 0.83867057594974714 I I #
edge $-1 $857 -31.212147064560906 $555 -27.368331275459084 $732 $858 forward 7 unknown #
point $-1 50.952482680745874 -27.368331275459084 11.084993982351396 #
point $-1 41.694127089062846 -27.368331275459084 11.084993982351396 #
edge $-1 $859 1 $859 0 $558 $-1 forward 7 unknown #
vertex $-1 $559 $860 #
ellipse-curve $-1 46.32330488490436 -27.44010633567888 6.9240249842522257 0 -0.83867057594974714 0.54463902268945019 1.5 0 0 1 I I #
point $-1 47.82330488490436 -29.290239170009986 8.1255152566331859 #
plane-surface $-1 50.952482680745874 0 0 -1 0 0 0 0 1 forward_v I I I I #
coedge $-1 $567 $565 $569 $757 reversed $401 $-1 #
edge $-1 $580 -11.084993982351396 $759 11.084993982351396 $579 $861 forward 7 unknown #
vertex $-1 $757 $862 #
straight-curve $-1 -50.952482680745874 -31.212147064560906 0 0 0 -1 I I #
edge $-1 $755 -31.212147064560906 $759 31.212147064560906 $753 $863 forward 7 unknown #
straight-curve $-1 0 -31.212147064560906 -11.084993982351396 -1 0 0 I I #
vertex $-1 $572 $864 #
straight-curve $-1 0 31.212147064560906 -11.084993982351396 1 0 0 I I #
point $-1 50.952482680745874 31.212147064560906 -11.084993982351396 #
point $-1 50.952482680745874 -31.212147064560906 -11.084993982351396 #
straight-curve $-1 -50.952482680745874 0 11.084993982351396 0 -1 0 I I #
point $-1 -50.952482680745874 31.212147064560906 11.084993982351396 #
point $-1 -50.952482680745874 -31.212147064560906 11.084993982351396 #
straight-curve $-1 50.952482680745874 -31.212147064560906 0 0 0 -1 I I #
straight-curve $-1 50.952482680745874 31.212147064560906 0 0 0 -1 I I #
plane-surface $-1 0 -31.212147064560906 0 0 1 0 0 0 1 forward_v I I I I #
coedge $-1 $865 $592 $602 $780 reversed $420 $-1 #
coedge $-1 $592 $865 $605 $782 forward $420 $-1 #
coedge $-1 $866 $595 $593 $772 forward $590 $-1 #
edge $-1 $773 37.228355523096184 $867 50.952482680745874 $593 $868 forward 7 unknown #
vertex $-1 $772 $869 #
straight-curve $-1 -37.228355523096184 31.212147064560906 4.1687554428547227 0 0 -1 I I #
coedge $-1 $595 $866 $597 $777 forward $590 $-1 #
straight-curve $-1 -37.228355523096184 0 11.084993982351396 0 1 0 I I #
edge $-1 $870 -50.952482680745874 $599 -37.228355523096184 $597 $871 forward 7 unknown #
point $-1 -37.228355523096184 -31.212147064560906 11.084993982351397 #
straight-curve $-1 -50.952482680745874 0 5.5900277890674932 0 -1 0 I I #
edge $-1 $870 -11.084993982351396 $603 -5.5900277890674932 $769 $872 forward 7 unknown #
point $-1 -50.952482680745874 -31.212147064560906 5.5900277890674932 #
edge $-1 $867 -11.084993982351396 $606 -5.5900277890674932 $605 $873 forward 7 unknown #
point $-1 -50.952482680745874 31.212147064560906 5.5900277890674932 #
coedge $-1 $621 $620 $613 $785 forward $610 $-1 #
edge $-1 $786 45.395661906156491 $789 48.532850438954299 $784 $874 forward 7 unknown #
vertex $-1 $625 $875 #
straight-curve $-1 -20.708967521850205 44.126145199695664 11.084993982351392 0 1 0 I I #
edge $-1 $789 7.3482698921987364 $622 19.373125367104201 $621 $876 forward 7 unknown #
vertex $-1 $788 $877 #
straight-curve $-1 -20.708967521850205 8.3632779990239214e-007 62.008830461538885 0 -0.49999998660252726 0.86602541151947299 I I #
point $-1 -20.708967521850205 29.400890485361511 11.084993982351399 #
point $-1 -32.73382299675567 31.212147064560906 7.9478054495535844 #
straight-curve $-1 0 31.212147064560906 11.084993982351396 -1 0 0 I I #
vertex $-1 $628 $878 #
point $-1 -29.828851901774577 28.954541758811974 8.7358354496274284 #
vertex $-1 $632 $879 #
point $-1 -26.221395259302938 28.954541758811974 8.7358354496274284 #
vertex $-1 $636 $880 #
point $-1 -22.613938616831298 28.954541758811974 8.7358354496274284 #
coedge $-1 $651 $650 $643 $801 forward $640 $-1 #
edge $-1 $802 45.395661906156491 $805 48.532850438954299 $800 $881 forward 7 unknown #
vertex $-1 $655 $882 #
straight-curve $-1 1.3362420291103092 44.126145199695664 11.084993982351392 0 1 0 I I #
edge $-1 $805 -3.6743348832815208 $652 8.350520591623944 $651 $883 forward 7 unknown #
vertex $-1 $804 $884 #
straight-curve $-1 1.3362420291103092 8.3632779990239214e-007 62.008830461538885 0 -0.49999998660252726 0.86602541151947299 I I #
point $-1 1.3362420291103092 29.400890485361511 11.084993982351399 #
point $-1 -10.688613445795156 31.212147064560906 7.9478054495535844 #
straight-curve $-1 0 31.212147064560906 11.084993982351396 -1 0 0 I I #
vertex $-1 $658 $885 #
point $-1 -7.7836423508140626 28.954541758811974 8.7358354496274284 #
vertex $-1 $662 $886 #
point $-1 -4.1761857083424232 28.954541758811974 8.7358354496274284 #
vertex $-1 $666 $887 #
point $-1 -0.56872906587078376 28.954541758811974 8.7358354496274284 #
coedge $-1 $681 $680 $673 $817 forward $670 $-1 #
edge $-1 $818 45.395661906156491 $821 48.532850438954299 $816 $888 forward 7 unknown #
vertex $-1 $685 $889 #
straight-curve $-1 23.381451580070824 44.126145199695664 11.084993982351392 0 1 0 I I #
edge $-1 $821 -14.696939658761778 $682 -2.6720841838563132 $681 $890 forward 7 unknown #
vertex $-1 $820 $891 #
straight-curve $-1 23.381451580070824 8.3632779990239214e-007 62.008830461538885 0 -0.49999998660252726 0.86602541151947299 I I #
point $-1 23.381451580070824 29.400890485361511 11.084993982351399 #
point $-1 11.356596105165359 31.212147064560906 7.9478054495535844 #
straight-curve $-1 0 31.212147064560906 11.084993982351396 -1 0 0 I I #
vertex $-1 $688 $892 #
point $-1 14.261567200146459 28.954541758811974 8.7358354496274284 #
vertex $-1 $692 $893 #
point $-1 17.869023842618091 28.954541758811974 8.7358354496274284 #
vertex $-1 $696 $894 #
point $-1 21.476480485089724 28.954541758811974 8.7358354496274284 #
coedge $-1 $711 $710 $703 $833 forward $700 $-1 #
edge $-1 $834 45.395661906156491 $837 48.532850438954299 $832 $895 forward 7 unknown #
vertex $-1 $715 $896 #
straight-curve $-1 45.426661131031331 44.126145199695664 11.084993982351392 0 1 0 I I #
edge $-1 $837 -25.719544434242032 $712 -13.694688959336567 $711 $897 forward 7 unknown #
vertex $-1 $836 $898 #
straight-curve $-1 45.426661131031331 8.3632779990239214e-007 62.008830461538885 0 -0.49999998660252726 0.86602541151947299 I I #
point $-1 45.426661131031331 29.400890485361511 11.084993982351399 #
point $-1 33.401805656125866 31.212147064560906 7.9478054495535844 #
straight-curve $-1 0 31.212147064560906 11.084993982351396 -1 0 0 I I #
vertex $-1 $718 $899 #
point $-1 36.30677675110698 28.954541758811974 8.7358354496274284 #
vertex $-1 $722 $900 #
point $-1 39.914233393578598 28.954541758811974 8.7358354496274284 #
vertex $-1 $726 $901 #
point $-1 43.521690036050245 28.954541758811974 8.7358354496274284 #
coedge $-1 $850 $739 $733 $849 reversed $730 $-1 #
edge $-1 $857 -11.084993982351396 $741 -5.1660365309149991 $733 $902 forward 7 unknown #
coedge $-1 $734 $848 $736 $852 reversed $730 $-1 #
straight-curve $-1 41.694127089062846 -31.212147064560909 30.333728636300066 0 0 -1 I I #
edge $-1 $737 41.694127089062846 $857 50.952482680745874 $850 $903 forward 7 unknown #
point $-1 41.694127089062846 -31.212147064560906 11.084993982351396 #
straight-curve $-1 23.16165244245218 -31.212147064560906 5.1660365309150018 1 0 0 I I #
point $-1 50.952482680745874 -31.212147064560906 5.1660365309149991 #
point $-1 41.694127089062846 -31.212147064560906 5.1660365309149991 #
vertex $-1 $745 $904 #
straight-curve $-1 50.952482680745874 0 11.084993982351396 0 1 0 I I #
vertex $-1 $748 $905 #
point $-1 47.82330488490436 -27.44010633567888 6.9240249842522257 #
straight-curve $-1 -50.952482680745874 31.212147064560906 0 0 0 -1 I I #
point $-1 -50.952482680745874 -31.212147064560906 -11.084993982351396 #
straight-curve $-1 -50.952482680745874 0 -11.084993982351396 0 1 0 I I #
point $-1 -50.952482680745874 31.212147064560906 -11.084993982351396 #
coedge $-1 $770 $769 $866 $906 reversed $420 $-1 #
coedge $-1 $775 $771 $865 $906 forward $590 $-1 #
vertex $-1 $772 $907 #
straight-curve $-1 0 31.212147064560906 11.084993982351396 -1 0 0 I I #
point $-1 -37.228355523096184 31.212147064560906 11.084993982351397 #
vertex $-1 $906 $908 #
straight-curve $-1 0 -31.212147064560906 11.084993982351396 1 0 0 I I #
straight-curve $-1 -50.952482680745874 -31.212147064560906 0 0 0 -1 I I #
straight-curve $-1 -50.952482680745874 31.212147064560906 0 0 0 -1 I I #
straight-curve $-1 -20.708967521850205 31.212147064560906 56.480655888507883 0 0 -1 I I #
point $-1 -20.708967521850205 31.212147064560906 11.084993982351396 #
straight-curve $-1 -13.360697629651469 31.212147064560909 7.9478054495535808 -1 0 0 I I #
point $-1 -20.708967521850205 31.212147064560906 7.9478054495535844 #
point $-1 -30.328851901774577 28.521529053052237 8.485835456326166 #
point $-1 -26.721395259302938 28.521529053052237 8.485835456326166 #
point $-1 -23.113938616831298 28.521529053052237 8.485835456326166 #
straight-curve $-1 1.3362420291103092 31.212147064560906 56.480655888507883 0 0 -1 I I #
point $-1 1.3362420291103092 31.212147064560906 11.084993982351396 #
straight-curve $-1 -2.3380928541712116 31.212147064560909 7.9478054495535808 -1 0 0 I I #
point $-1 1.3362420291103092 31.212147064560906 7.9478054495535844 #
point $-1 -8.2836423508140626 28.521529053052237 8.485835456326166 #
point $-1 -4.6761857083424232 28.521529053052237 8.485835456326166 #
point $-1 -1.0687290658707838 28.521529053052237 8.485835456326166 #
straight-curve $-1 23.381451580070824 31.212147064560906 56.480655888507883 0 0 -1 I I #
point $-1 23.381451580070824 31.212147064560906 11.084993982351396 #
straight-curve $-1 8.6845119213090456 31.212147064560909 7.9478054495535808 -1 0 0 I I #
point $-1 23.381451580070824 31.212147064560906 7.9478054495535844 #
point $-1 13.761567200146459 28.521529053052237 8.485835456326166 #
point $-1 17.369023842618091 28.521529053052237 8.485835456326166 #
point $-1 20.976480485089724 28.521529053052237 8.485835456326166 #
straight-curve $-1 45.426661131031331 31.212147064560906 56.480655888507883 0 0 -1 I I #
point $-1 45.426661131031331 31.212147064560906 11.084993982351396 #
straight-curve $-1 19.707116696789299 31.212147064560909 7.9478054495535808 -1 0 0 I I #
point $-1 45.426661131031331 31.212147064560906 7.9478054495535844 #
point $-1 35.80677675110698 28.521529053052237 8.485835456326166 #
point $-1 39.414233393578598 28.521529053052237 8.485835456326166 #
point $-1 43.021690036050245 28.521529053052237 8.485835456326166 #
straight-curve $-1 50.952482680745874 -31.212147064560906 0 0 0 -1 I I #
straight-curve $-1 0 -31.212147064560906 11.084993982351396 1 0 0 I I #
point $-1 50.952482680745874 -31.212147064560906 11.084993982351396 #
point $-1 46.32330488490436 -26.182100471754257 6.1070664502180509 #
edge $-1 $867 -31.212147064560906 $870 31.212147064560906 $865 $909 forward 7 unknown #
point $-1 -50.952482680745874 31.212147064560906 11.084993982351396 #
point $-1 -50.952482680745874 -31.212147064560906 11.084993982351396 #
straight-curve $-1 -50.952482680745874 0 11.084993982351396 0 -1 0 I I #
End-of-ACIS-data 