500 0 17 0           
7 Unknown 11 ACIS 5.0 NT 24 Fri Mar 26 01:52:41 1999 
-1 9.9999999999999995e-007 1e-010 
body $-1 $17 $-1 $18 #
body $-1 $19 $-1 $20 #
body $-1 $21 $-1 $22 #
body $-1 $23 $-1 $24 #
body $-1 $25 $-1 $26 #
body $-1 $27 $-1 $28 #
body $-1 $29 $-1 $30 #
body $-1 $31 $-1 $32 #
body $-1 $33 $-1 $34 #
body $-1 $35 $-1 $36 #
body $-1 $37 $-1 $38 #
body $-1 $39 $-1 $40 #
body $-1 $41 $-1 $42 #
body $-1 $43 $-1 $44 #
body $-1 $45 $-1 $46 #
body $-1 $47 $-1 $48 #
body $-1 $49 $-1 $50 #
lump $-1 $-1 $51 $0 #
transform $-1 1 0 0 0 1 0 0 0 1 42.474440748313853 26.451931140671764 12.179739099853061 1 rotate no_reflect no_shear #
lump $-1 $-1 $52 $1 #
transform $-1 1 0 0 0 1 0 0 0 1 42.474440748313853 26.451931140671764 12.179739099853061 1 rotate no_reflect no_shear #
lump $-1 $-1 $53 $2 #
transform $-1 1 0 0 0 1 0 0 0 1 42.474440748313853 26.451931140671764 12.179739099853061 1 rotate no_reflect no_shear #
lump $-1 $-1 $54 $3 #
transform $-1 1 0 0 0 1 0 0 0 1 42.474440748313853 26.451931140671764 12.179739099853061 1 rotate no_reflect no_shear #
lump $-1 $-1 $55 $4 #
transform $-1 1 0 0 0 1 0 0 0 1 42.474440748313853 26.451931140671764 12.179739099853061 1 rotate no_reflect no_shear #
lump $-1 $-1 $56 $5 #
transform $-1 1 0 0 0 1 0 0 0 1 42.474440748313853 26.451931140671764 12.179739099853061 1 rotate no_reflect no_shear #
lump $-1 $-1 $57 $6 #
transform $-1 1 0 0 0 1 0 0 0 1 42.474440748313853 26.451931140671764 12.179739099853061 1 rotate no_reflect no_shear #
lump $-1 $-1 $58 $7 #
transform $-1 1 0 0 0 1 0 0 0 1 42.474440748313853 26.451931140671764 12.179739099853061 1 rotate no_reflect no_shear #
lump $-1 $-1 $59 $8 #
transform $-1 1 0 0 0 1 0 0 0 1 42.474440748313853 26.451931140671764 12.179739099853061 1 rotate no_reflect no_shear #
lump $-1 $-1 $60 $9 #
transform $-1 1 0 0 0 1 0 0 0 1 42.474440748313853 26.451931140671764 12.179739099853061 1 rotate no_reflect no_shear #
lump $-1 $-1 $61 $10 #
transform $-1 1 0 0 0 1 0 0 0 1 42.474440748313853 26.451931140671764 12.179739099853061 1 rotate no_reflect no_shear #
lump $-1 $-1 $62 $11 #
transform $-1 1 0 0 0 1 0 0 0 1 42.474440748313853 26.451931140671764 12.179739099853061 1 rotate no_reflect no_shear #
lump $-1 $-1 $63 $12 #
transform $-1 1 0 0 0 1 0 0 0 1 42.474440748313853 26.451931140671764 12.179739099853061 1 rotate no_reflect no_shear #
lump $-1 $-1 $64 $13 #
transform $-1 1 0 0 0 1 0 0 0 1 42.474440748313853 26.451931140671764 12.179739099853061 1 rotate no_reflect no_shear #
lump $-1 $-1 $65 $14 #
transform $-1 1 0 0 0 1 0 0 0 1 42.474440748313853 26.451931140671764 12.179739099853061 1 rotate no_reflect no_shear #
lump $-1 $-1 $66 $15 #
transform $-1 1 0 0 0 1 0 0 0 1 42.474440748313853 26.451931140671764 12.179739099853061 1 rotate no_reflect no_shear #
lump $-1 $-1 $67 $16 #
transform $-1 1 0 0 0 1 0 0 0 1 42.474440748313853 26.451931140671764 12.179739099853061 1 rotate no_reflect no_shear #
shell $-1 $-1 $-1 $68 $-1 $17 #
shell $-1 $-1 $-1 $69 $-1 $19 #
shell $-1 $-1 $-1 $70 $-1 $21 #
shell $-1 $-1 $-1 $71 $-1 $23 #
shell $-1 $-1 $-1 $72 $-1 $25 #
shell $-1 $-1 $-1 $73 $-1 $27 #
shell $-1 $-1 $-1 $74 $-1 $29 #
shell $-1 $-1 $-1 $75 $-1 $31 #
shell $-1 $-1 $-1 $76 $-1 $33 #
shell $-1 $-1 $-1 $77 $-1 $35 #
shell $-1 $-1 $-1 $78 $-1 $37 #
shell $-1 $-1 $-1 $79 $-1 $39 #
shell $-1 $-1 $-1 $80 $-1 $41 #
shell $-1 $-1 $-1 $81 $-1 $43 #
shell $-1 $-1 $-1 $82 $-1 $45 #
shell $-1 $-1 $-1 $83 $-1 $47 #
shell $-1 $-1 $-1 $84 $-1 $49 #
face $-1 $85 $86 $51 $-1 $87 forward single #
face $-1 $88 $89 $52 $-1 $90 reversed single #
face $-1 $91 $92 $53 $-1 $93 reversed single #
face $-1 $94 $95 $54 $-1 $96 forward single #
face $-1 $97 $98 $55 $-1 $99 forward single #
face $-1 $100 $101 $56 $-1 $102 reversed single #
face $-1 $103 $104 $57 $-1 $105 forward single #
face $-1 $106 $107 $58 $-1 $108 forward single #
face $-1 $109 $110 $59 $-1 $111 reversed single #
face $-1 $112 $113 $60 $-1 $114 forward single #
face $-1 $115 $116 $61 $-1 $117 forward single #
face $-1 $118 $119 $62 $-1 $120 reversed single #
face $-1 $121 $122 $63 $-1 $123 forward single #
face $-1 $124 $125 $64 $-1 $126 forward single #
face $-1 $127 $128 $65 $-1 $129 reversed single #
face $-1 $130 $131 $66 $-1 $132 forward single #
face $-1 $133 $134 $67 $-1 $135 forward single #
face $-1 $136 $137 $51 $-1 $138 reversed single #
loop $-1 $-1 $139 $68 #
plane-surface $-1 0 0 12.179739099853061 0 0 1 1 0 0 forward_v I I I I #
face $-1 $140 $141 $52 $-1 $142 reversed single #
loop $-1 $-1 $143 $69 #
plane-surface $-1 -31.185237318039029 -21.407518623658369 0 1 0 0 0 0 -1 forward_v I I I I #
face $-1 $144 $145 $53 $-1 $146 reversed single #
loop $-1 $-1 $147 $70 #
plane-surface $-1 -89.977253056384427 -8.885256206974395 71.25002114154799 0 1 0 -0.55919291073839883 0 0.82903756765294845 forward_v I I I I #
face $-1 $148 $149 $54 $-1 $150 forward single #
loop $-1 $151 $152 $71 #
cone-surface $-1 -33.592106670361183 -5.8828706651387428 5.813027094062214 0.55919291073839883 0 -0.82903756765294845 0.82903756765294845 0 0.55919291073839883 1 I I 0 1 1 forward I I I I #
face $-1 $153 $154 $55 $-1 $155 forward single #
loop $-1 $156 $157 $72 #
cone-surface $-1 -33.592106670361183 -1.37929235238526 5.813027094062214 0.55919291073839883 0 -0.82903756765294845 0.82903756765294845 0 0.55919291073839883 1 I I 0 1 1 forward I I I I #
face $-1 $158 $159 $56 $-1 $160 reversed single #
loop $-1 $-1 $161 $73 #
plane-surface $-1 57.115320763743952 -8.0414641681225021 119.67574177700121 0 -1 0 -0.78801076186113728 0 -0.61566146476048833 forward_v I I I I #
face $-1 $162 $163 $57 $-1 $164 forward single #
loop $-1 $165 $166 $74 #
cone-surface $-1 37.460621699529028 -12.538887065358894 5.9747509092631121 -0.78801076186113728 0 -0.61566146476048833 0.30783073238024417 0 -0.39400538093056864 1 I I 0 1 0.5 forward I I I I #
face $-1 $167 $168 $58 $-1 $169 forward single #
loop $-1 $170 $171 $75 #
cone-surface $-1 37.460621699529028 -9.8404333270170596 5.9747509092631121 -0.78801076186113728 0 -0.61566146476048833 0.30783073238024417 0 -0.39400538093056864 1 I I 0 1 0.5 forward I I I I #
face $-1 $172 $173 $59 $-1 $174 reversed single #
loop $-1 $-1 $175 $76 #
plane-surface $-1 57.115320763743952 2.7812509740117477 119.67574177700121 0 -1 0 -0.78801076186113728 0 -0.61566146476048833 forward_v I I I I #
face $-1 $176 $177 $60 $-1 $178 forward single #
loop $-1 $179 $180 $77 #
cone-surface $-1 37.460621699529028 -1.7161719232246462 5.9747509092631121 -0.78801076186113728 0 -0.61566146476048833 0.30783073238024417 0 -0.39400538093056864 1 I I 0 1 0.5 forward I I I I #
face $-1 $181 $182 $61 $-1 $183 forward single #
loop $-1 $184 $185 $78 #
cone-surface $-1 37.460621699529028 0.9822818151171866 5.9747509092631121 -0.78801076186113728 0 -0.61566146476048833 0.30783073238024417 0 -0.39400538093056864 1 I I 0 1 0.5 forward I I I I #
face $-1 $186 $187 $62 $-1 $188 reversed single #
loop $-1 $-1 $189 $79 #
plane-surface $-1 57.115320763743952 13.603966116145997 119.67574177700121 0 -1 0 -0.78801076186113728 0 -0.61566146476048833 forward_v I I I I #
face $-1 $190 $191 $63 $-1 $192 forward single #
loop $-1 $193 $194 $80 #
cone-surface $-1 37.460621699529028 9.1065432189096036 5.9747509092631121 -0.78801076186113728 0 -0.61566146476048833 0.30783073238024417 0 -0.39400538093056864 1 I I 0 1 0.5 forward I I I I #
face $-1 $195 $196 $64 $-1 $197 forward single #
loop $-1 $198 $199 $81 #
cone-surface $-1 37.460621699529028 11.804996957251436 5.9747509092631121 -0.78801076186113728 0 -0.61566146476048833 0.30783073238024417 0 -0.39400538093056864 1 I I 0 1 0.5 forward I I I I #
face $-1 $200 $201 $65 $-1 $202 reversed single #
loop $-1 $-1 $203 $82 #
plane-surface $-1 57.115320763743952 24.426681258280247 119.67574177700121 0 -1 0 -0.78801076186113728 0 -0.61566146476048833 forward_v I I I I #
face $-1 $204 $205 $66 $-1 $206 forward single #
loop $-1 $207 $208 $83 #
cone-surface $-1 37.460621699529028 19.929258361043853 5.9747509092631121 -0.78801076186113728 0 -0.61566146476048833 0.30783073238024417 0 -0.39400538093056864 1 I I 0 1 0.5 forward I I I I #
face $-1 $209 $210 $67 $-1 $211 forward single #
loop $-1 $212 $213 $84 #
cone-surface $-1 37.460621699529028 22.627712099385686 5.9747509092631121 -0.78801076186113728 0 -0.61566146476048833 0.30783073238024417 0 -0.39400538093056864 1 I I 0 1 0.5 forward I I I I #
face $-1 $214 $215 $51 $-1 $216 reversed single #
loop $-1 $-1 $217 $85 #
plane-surface $-1 0 0 -12.179739099853061 0 0 1 1 0 0 forward_v I I I I #
coedge $-1 $218 $219 $220 $221 forward $86 $-1 #
face $-1 $222 $223 $52 $-1 $224 reversed single #
loop $-1 $-1 $225 $88 #
plane-surface $-1 -28.022935905276192 -16.363106106644974 0 0 -1 0 0 0 -1 forward_v I I I I #
coedge $-1 $226 $227 $228 $229 forward $89 $-1 #
face $-1 $230 $231 $53 $-1 $232 reversed single #
loop $-1 $-1 $233 $91 #
plane-surface $-1 -42.474440748313867 -3.6310815087619979 0.82420705074520129 -0.55919291073839883 0 0.82903756765294845 0.82903756765294845 0 0.55919291073839883 forward_v I I I I #
coedge $-1 $234 $235 $236 $237 reversed $92 $-1 #
face $-1 $-1 $238 $54 $-1 $239 forward single #
loop $-1 $240 $241 $94 #
cone-surface $-1 -32.847810274216002 -5.8828706651387428 4.7095623289988335 0.55919291073839883 0 -0.82903756765294845 0.41451878382647422 0 0.27959645536919941 1 I I -0.70710678118654813 0.70710678118654691 0.5 forward I I I I #
loop $-1 $-1 $242 $71 #
coedge $-1 $152 $152 $243 $244 reversed $95 $-1 #
face $-1 $-1 $245 $55 $-1 $246 forward single #
loop $-1 $247 $248 $97 #
cone-surface $-1 -32.847810274216002 -1.37929235238526 4.7095623289988335 0.55919291073839883 0 -0.82903756765294845 0.41451878382647422 0 0.27959645536919941 1 I I -0.70710678118654813 0.70710678118654691 0.5 forward I I I I #
loop $-1 $-1 $249 $72 #
coedge $-1 $157 $157 $250 $251 reversed $98 $-1 #
face $-1 $252 $253 $56 $-1 $254 reversed single #
loop $-1 $-1 $255 $100 #
plane-surface $-1 -9.825312063665109 -11.189660196187976 67.375988965022259 0.78801076186113728 0 0.61566146476048833 0.61566146476048833 0 -0.78801076186113728 forward_v I I I I #
coedge $-1 $256 $257 $258 $259 reversed $101 $-1 #
face $-1 $-1 $260 $57 $-1 $261 forward single #
loop $-1 $262 $263 $103 #
cone-surface $-1 36.8376586337845 -12.538887065358894 5.4880388336029764 -0.78801076186113728 0 -0.61566146476048833 0.15391536619012208 0 -0.19700269046528432 1 I I -0.70710678118654746 0.70710678118654746 0.25 forward I I I I #
loop $-1 $-1 $264 $74 #
coedge $-1 $166 $166 $265 $266 reversed $104 $-1 #
face $-1 $-1 $267 $58 $-1 $268 forward single #
loop $-1 $269 $270 $106 #
cone-surface $-1 36.8376586337845 -9.8404333270170596 5.4880388336029764 -0.78801076186113728 0 -0.61566146476048833 0.15391536619012208 0 -0.19700269046528432 1 I I -0.70710678118654746 0.70710678118654746 0.25 forward I I I I #
loop $-1 $-1 $271 $75 #
coedge $-1 $171 $171 $272 $273 reversed $107 $-1 #
face $-1 $274 $275 $59 $-1 $276 reversed single #
loop $-1 $-1 $277 $109 #
plane-surface $-1 -9.825312063665109 -0.36694505405372624 67.375988965022259 0.78801076186113728 0 0.61566146476048833 0.61566146476048833 0 -0.78801076186113728 forward_v I I I I #
coedge $-1 $278 $279 $280 $281 reversed $110 $-1 #
face $-1 $-1 $282 $60 $-1 $283 forward single #
loop $-1 $284 $285 $112 #
cone-surface $-1 36.8376586337845 -1.7161719232246462 5.4880388336029764 -0.78801076186113728 0 -0.61566146476048833 0.15391536619012208 0 -0.19700269046528432 1 I I -0.70710678118654746 0.70710678118654746 0.25 forward I I I I #
loop $-1 $-1 $286 $77 #
coedge $-1 $180 $180 $287 $288 reversed $113 $-1 #
face $-1 $-1 $289 $61 $-1 $290 forward single #
loop $-1 $291 $292 $115 #
cone-surface $-1 36.8376586337845 0.9822818151171866 5.4880388336029764 -0.78801076186113728 0 -0.61566146476048833 0.15391536619012208 0 -0.19700269046528432 1 I I -0.70710678118654746 0.70710678118654746 0.25 forward I I I I #
loop $-1 $-1 $293 $78 #
coedge $-1 $185 $185 $294 $295 reversed $116 $-1 #
face $-1 $296 $297 $62 $-1 $298 reversed single #
loop $-1 $-1 $299 $118 #
plane-surface $-1 -9.825312063665109 10.455770088080524 67.375988965022259 0.78801076186113728 0 0.61566146476048833 0.61566146476048833 0 -0.78801076186113728 forward_v I I I I #
coedge $-1 $300 $301 $302 $303 reversed $119 $-1 #
face $-1 $-1 $304 $63 $-1 $305 forward single #
loop $-1 $306 $307 $121 #
cone-surface $-1 36.8376586337845 9.1065432189096036 5.4880388336029764 -0.78801076186113728 0 -0.61566146476048833 0.15391536619012208 0 -0.19700269046528432 1 I I -0.70710678118654746 0.70710678118654746 0.25 forward I I I I #
loop $-1 $-1 $308 $80 #
coedge $-1 $194 $194 $309 $310 reversed $122 $-1 #
face $-1 $-1 $311 $64 $-1 $312 forward single #
loop $-1 $313 $314 $124 #
cone-surface $-1 36.8376586337845 11.804996957251436 5.4880388336029764 -0.78801076186113728 0 -0.61566146476048833 0.15391536619012208 0 -0.19700269046528432 1 I I -0.70710678118654746 0.70710678118654746 0.25 forward I I I I #
loop $-1 $-1 $315 $81 #
coedge $-1 $199 $199 $316 $317 reversed $125 $-1 #
face $-1 $318 $319 $65 $-1 $320 reversed single #
loop $-1 $-1 $321 $127 #
plane-surface $-1 -9.825312063665109 21.278485230214773 67.375988965022259 0.78801076186113728 0 0.61566146476048833 0.61566146476048833 0 -0.78801076186113728 forward_v I I I I #
coedge $-1 $322 $323 $324 $325 reversed $128 $-1 #
face $-1 $-1 $326 $66 $-1 $327 forward single #
loop $-1 $328 $329 $130 #
cone-surface $-1 36.8376586337845 19.929258361043853 5.4880388336029764 -0.78801076186113728 0 -0.61566146476048833 0.15391536619012208 0 -0.19700269046528432 1 I I -0.70710678118654746 0.70710678118654746 0.25 forward I I I I #
loop $-1 $-1 $330 $83 #
coedge $-1 $208 $208 $331 $332 reversed $131 $-1 #
face $-1 $-1 $333 $67 $-1 $334 forward single #
loop $-1 $335 $336 $133 #
cone-surface $-1 36.8376586337845 22.627712099385686 5.4880388336029764 -0.78801076186113728 0 -0.61566146476048833 0.15391536619012208 0 -0.19700269046528432 1 I I -0.70710678118654746 0.70710678118654746 0.25 forward I I I I #
loop $-1 $-1 $337 $84 #
coedge $-1 $213 $213 $338 $339 reversed $134 $-1 #
face $-1 $340 $341 $51 $-1 $342 reversed single #
loop $-1 $-1 $343 $136 #
plane-surface $-1 0 -26.451931140671764 0 0 1 0 0 0 1 forward_v I I I I #
coedge $-1 $344 $345 $346 $347 forward $137 $-1 #
coedge $-1 $348 $139 $349 $350 forward $86 $-1 #
coedge $-1 $139 $348 $351 $352 forward $86 $-1 #
coedge $-1 $353 $354 $139 $221 reversed $355 $-1 #
edge $-1 $356 -26.451931140671764 $357 26.451931140671764 $220 $358 forward 7 unknown #
face $-1 $359 $360 $52 $-1 $361 forward single #
loop $-1 $-1 $362 $140 #
plane-surface $-1 -24.860634492513356 -21.407518623658369 0 -1 0 0 0 0 1 forward_v I I I I #
coedge $-1 $363 $364 $365 $366 forward $141 $-1 #
coedge $-1 $367 $143 $368 $369 reversed $89 $-1 #
coedge $-1 $143 $367 $370 $371 reversed $89 $-1 #
coedge $-1 $364 $363 $143 $229 reversed $141 $-1 #
edge $-1 $372 -12.179739099853061 $373 12.179739099853061 $228 $374 forward 7 unknown #
face $-1 $375 $376 $53 $-1 $377 reversed single #
loop $-1 $-1 $378 $144 #
plane-surface $-1 -89.977253056384427 1.6230931894503993 71.25002114154799 0 -1 0 0.55919291073839883 0 -0.82903756765294845 forward_v I I I I #
coedge $-1 $379 $380 $381 $382 reversed $145 $-1 #
coedge $-1 $235 $147 $383 $384 reversed $92 $-1 #
coedge $-1 $147 $234 $379 $385 reversed $92 $-1 #
coedge $-1 $381 $386 $147 $237 forward $387 $-1 #
edge $-1 $388 2.5141857798783604 $389 19.349454054231714 $236 $390 forward 7 unknown #
loop $-1 $-1 $243 $148 #
plane-surface $-1 -42.474440748313867 -3.6310815087619979 0.82420705074520129 -0.55919291073839883 0 0.82903756765294845 0.82903756765294845 0 0.55919291073839883 forward_v I I I I #
loop $-1 $-1 $391 $94 #
coedge $-1 $241 $241 $242 $392 reversed $149 $-1 #
coedge $-1 $242 $242 $241 $392 forward $151 $-1 #
coedge $-1 $243 $243 $152 $244 forward $238 $-1 #
edge $-1 $393 0 $393 6.2831853071796004 $243 $394 forward 7 unknown #
loop $-1 $-1 $250 $153 #
plane-surface $-1 -42.474440748313867 -3.6310815087619979 0.82420705074520129 -0.55919291073839883 0 0.82903756765294845 0.82903756765294845 0 0.55919291073839883 forward_v I I I I #
loop $-1 $-1 $395 $97 #
coedge $-1 $248 $248 $249 $396 reversed $154 $-1 #
coedge $-1 $249 $249 $248 $396 forward $156 $-1 #
coedge $-1 $250 $250 $157 $251 forward $245 $-1 #
edge $-1 $397 0 $397 6.2831853071796004 $250 $398 forward 7 unknown #
face $-1 $399 $400 $56 $-1 $401 forward single #
loop $-1 $-1 $402 $158 #
plane-surface $-1 57.115320763743952 -14.33785622425345 119.67574177700121 0 1 0 0.78801076186113728 0 0.61566146476048833 forward_v I I I I #
coedge $-1 $403 $404 $405 $406 reversed $159 $-1 #
coedge $-1 $257 $161 $407 $408 reversed $101 $-1 #
coedge $-1 $161 $256 $403 $409 reversed $101 $-1 #
coedge $-1 $405 $410 $161 $259 forward $400 $-1 #
edge $-1 $411 -13.916780366441877 $412 -4.7410630194307117 $258 $413 forward 7 unknown #
loop $-1 $-1 $265 $162 #
plane-surface $-1 -9.825312063665109 -11.189660196187976 67.375988965022259 0.78801076186113728 0 0.61566146476048833 0.61566146476048833 0 -0.78801076186113728 forward_v I I I I #
loop $-1 $-1 $414 $103 #
coedge $-1 $263 $263 $264 $415 reversed $163 $-1 #
coedge $-1 $264 $264 $263 $415 forward $165 $-1 #
coedge $-1 $265 $265 $166 $266 forward $260 $-1 #
edge $-1 $416 0 $416 6.2831853071796004 $265 $417 forward 7 unknown #
loop $-1 $-1 $272 $167 #
plane-surface $-1 -9.825312063665109 -11.189660196187976 67.375988965022259 0.78801076186113728 0 0.61566146476048833 0.61566146476048833 0 -0.78801076186113728 forward_v I I I I #
loop $-1 $-1 $418 $106 #
coedge $-1 $270 $270 $271 $419 reversed $168 $-1 #
coedge $-1 $271 $271 $270 $419 forward $170 $-1 #
coedge $-1 $272 $272 $171 $273 forward $267 $-1 #
edge $-1 $420 0 $420 6.2831853071796004 $272 $421 forward 7 unknown #
face $-1 $422 $423 $59 $-1 $424 reversed single #
loop $-1 $-1 $425 $172 #
plane-surface $-1 57.115320763743952 -3.5151410821192002 119.67574177700121 0 1 0 0.78801076186113728 0 0.61566146476048833 forward_v I I I I #
coedge $-1 $426 $427 $428 $429 reversed $173 $-1 #
coedge $-1 $279 $175 $430 $431 reversed $110 $-1 #
coedge $-1 $175 $278 $426 $432 reversed $110 $-1 #
coedge $-1 $428 $433 $175 $281 forward $434 $-1 #
edge $-1 $435 -13.916780366441877 $436 -4.7410630194307117 $280 $437 forward 7 unknown #
loop $-1 $-1 $287 $176 #
plane-surface $-1 -9.825312063665109 -0.36694505405372624 67.375988965022259 0.78801076186113728 0 0.61566146476048833 0.61566146476048833 0 -0.78801076186113728 forward_v I I I I #
loop $-1 $-1 $438 $112 #
coedge $-1 $285 $285 $286 $439 reversed $177 $-1 #
coedge $-1 $286 $286 $285 $439 forward $179 $-1 #
coedge $-1 $287 $287 $180 $288 forward $282 $-1 #
edge $-1 $440 0 $440 6.2831853071796004 $287 $441 forward 7 unknown #
loop $-1 $-1 $294 $181 #
plane-surface $-1 -9.825312063665109 -0.36694505405372624 67.375988965022259 0.78801076186113728 0 0.61566146476048833 0.61566146476048833 0 -0.78801076186113728 forward_v I I I I #
loop $-1 $-1 $442 $115 #
coedge $-1 $292 $292 $293 $443 reversed $182 $-1 #
coedge $-1 $293 $293 $292 $443 forward $184 $-1 #
coedge $-1 $294 $294 $185 $295 forward $289 $-1 #
edge $-1 $444 0 $444 6.2831853071796004 $294 $445 forward 7 unknown #
face $-1 $446 $447 $62 $-1 $448 reversed single #
loop $-1 $-1 $449 $186 #
plane-surface $-1 57.115320763743952 7.3075740600150496 119.67574177700121 0 1 0 0.78801076186113728 0 0.61566146476048833 forward_v I I I I #
coedge $-1 $450 $451 $452 $453 reversed $187 $-1 #
coedge $-1 $301 $189 $454 $455 reversed $119 $-1 #
coedge $-1 $189 $300 $450 $456 reversed $119 $-1 #
coedge $-1 $452 $457 $189 $303 forward $458 $-1 #
edge $-1 $459 -13.916780366441877 $460 -4.7410630194307117 $302 $461 forward 7 unknown #
loop $-1 $-1 $309 $190 #
plane-surface $-1 -9.825312063665109 10.455770088080524 67.375988965022259 0.78801076186113728 0 0.61566146476048833 0.61566146476048833 0 -0.78801076186113728 forward_v I I I I #
loop $-1 $-1 $462 $121 #
coedge $-1 $307 $307 $308 $463 reversed $191 $-1 #
coedge $-1 $308 $308 $307 $463 forward $193 $-1 #
coedge $-1 $309 $309 $194 $310 forward $304 $-1 #
edge $-1 $464 0 $464 6.2831853071796004 $309 $465 forward 7 unknown #
loop $-1 $-1 $316 $195 #
plane-surface $-1 -9.825312063665109 10.455770088080524 67.375988965022259 0.78801076186113728 0 0.61566146476048833 0.61566146476048833 0 -0.78801076186113728 forward_v I I I I #
loop $-1 $-1 $466 $124 #
coedge $-1 $314 $314 $315 $467 reversed $196 $-1 #
coedge $-1 $315 $315 $314 $467 forward $198 $-1 #
coedge $-1 $316 $316 $199 $317 forward $311 $-1 #
edge $-1 $468 0 $468 6.2831853071796004 $316 $469 forward 7 unknown #
face $-1 $470 $471 $65 $-1 $472 reversed single #
loop $-1 $-1 $473 $200 #
plane-surface $-1 57.115320763743952 18.130289202149299 119.67574177700121 0 1 0 0.78801076186113728 0 0.61566146476048833 forward_v I I I I #
coedge $-1 $474 $475 $476 $477 reversed $201 $-1 #
coedge $-1 $323 $203 $478 $479 reversed $128 $-1 #
coedge $-1 $203 $322 $474 $480 reversed $128 $-1 #
coedge $-1 $476 $481 $203 $325 forward $482 $-1 #
edge $-1 $483 -13.916780366441877 $484 -4.7410630194307117 $324 $485 forward 7 unknown #
loop $-1 $-1 $331 $204 #
plane-surface $-1 -9.825312063665109 21.278485230214773 67.375988965022259 0.78801076186113728 0 0.61566146476048833 0.61566146476048833 0 -0.78801076186113728 forward_v I I I I #
loop $-1 $-1 $486 $130 #
coedge $-1 $329 $329 $330 $487 reversed $205 $-1 #
coedge $-1 $330 $330 $329 $487 forward $207 $-1 #
coedge $-1 $331 $331 $208 $332 forward $326 $-1 #
edge $-1 $488 0 $488 6.2831853071796004 $331 $489 forward 7 unknown #
loop $-1 $-1 $338 $209 #
plane-surface $-1 -9.825312063665109 21.278485230214773 67.375988965022259 0.78801076186113728 0 0.61566146476048833 0.61566146476048833 0 -0.78801076186113728 forward_v I I I I #
loop $-1 $-1 $490 $133 #
coedge $-1 $336 $336 $337 $491 reversed $210 $-1 #
coedge $-1 $337 $337 $336 $491 forward $212 $-1 #
coedge $-1 $338 $338 $213 $339 forward $333 $-1 #
edge $-1 $492 0 $492 6.2831853071796004 $338 $493 forward 7 unknown #
face $-1 $494 $495 $51 $-1 $496 reversed single #
loop $-1 $-1 $497 $214 #
plane-surface $-1 -42.474440748313853 0 0 1 0 0 0 0 -1 forward_v I I I I #
coedge $-1 $498 $351 $499 $500 forward $215 $-1 #
coedge $-1 $501 $217 $498 $502 forward $137 $-1 #
coedge $-1 $217 $501 $503 $504 forward $137 $-1 #
coedge $-1 $354 $353 $217 $347 reversed $355 $-1 #
edge $-1 $505 -26.451931140671764 $506 26.451931140671764 $346 $507 forward 7 unknown #
coedge $-1 $219 $218 $508 $509 forward $86 $-1 #
coedge $-1 $510 $511 $218 $350 reversed $495 $-1 #
edge $-1 $357 -42.474440748313853 $512 42.474440748313853 $349 $513 forward 7 unknown #
coedge $-1 $343 $514 $219 $352 reversed $215 $-1 #
edge $-1 $515 -42.474440748313853 $356 42.474440748313853 $351 $516 forward 7 unknown #
coedge $-1 $346 $220 $514 $517 forward $355 $-1 #
coedge $-1 $220 $346 $510 $518 reversed $355 $-1 #
loop $-1 $-1 $353 $494 #
vertex $-1 $221 $519 #
vertex $-1 $221 $520 #
straight-curve $-1 42.474440748313853 0 12.179739099853061 0 1 0 I I #
face $-1 $521 $522 $52 $-1 $523 reversed single #
loop $-1 $-1 $524 $222 #
plane-surface $-1 0 0 12.179739099853061 0 0 1 1 0 0 forward_v I I I I #
coedge $-1 $525 $526 $527 $528 reversed $223 $-1 #
coedge $-1 $228 $225 $529 $530 reversed $141 $-1 #
coedge $-1 $225 $228 $531 $532 reversed $141 $-1 #
coedge $-1 $526 $525 $225 $366 reversed $223 $-1 #
edge $-1 $533 -12.179739099853061 $534 12.179739099853061 $365 $535 forward 7 unknown #
coedge $-1 $227 $226 $536 $537 reversed $89 $-1 #
coedge $-1 $529 $538 $226 $369 forward $522 $-1 #
edge $-1 $539 -15.74817182884258 $373 -5.6593467948157894 $368 $540 forward 7 unknown #
coedge $-1 $541 $531 $227 $371 forward $360 $-1 #
edge $-1 $372 5.6593467948157894 $542 15.74817182884258 $370 $543 forward 7 unknown #
vertex $-1 $371 $544 #
vertex $-1 $369 $545 #
straight-curve $-1 -31.185237318039029 -16.363106106644974 0 0 0 -1 I I #
face $-1 $-1 $387 $53 $-1 $546 forward single #
loop $-1 $-1 $547 $230 #
plane-surface $-1 -42.474440748313853 0 0 1 0 0 0 0 -1 forward_v I I I I #
coedge $-1 $548 $549 $550 $551 reversed $231 $-1 #
coedge $-1 $552 $233 $235 $385 forward $145 $-1 #
coedge $-1 $233 $552 $548 $553 forward $145 $-1 #
coedge $-1 $550 $236 $233 $382 forward $387 $-1 #
edge $-1 $389 -7.0697154525933961 $554 3.4386339438313982 $381 $555 forward 7 unknown #
coedge $-1 $556 $557 $234 $384 forward $376 $-1 #
edge $-1 $558 -34.800803520028786 $388 -23.445271470920936 $383 $559 forward 7 unknown #
edge $-1 $389 -20.307002880478564 $558 -1.7120460491857305e-014 $235 $560 forward 7 unknown #
coedge $-1 $236 $550 $556 $561 forward $387 $-1 #
loop $-1 $-1 $550 $375 #
vertex $-1 $384 $562 #
vertex $-1 $237 $563 #
straight-curve $-1 -44.988626528192214 -8.885256206974395 12.179739099853059 1 0 0 I I #
coedge $-1 $391 $391 $-1 $564 reversed $240 $-1 #
edge $-1 $565 0 $565 6.2831853071796004 $241 $566 forward 7 unknown #
vertex $-1 $244 $567 #
ellipse-curve $-1 -34.056806611137176 -5.8828706651387428 6.5019730752991372 -0.55919291073839883 0 0.82903756765294845 0.82903756765294845 0 0.55919291073839883 1 I I #
coedge $-1 $395 $395 $-1 $568 reversed $247 $-1 #
edge $-1 $569 0 $569 6.2831853071796004 $248 $570 forward 7 unknown #
vertex $-1 $251 $571 #
ellipse-curve $-1 -34.056806611137176 -1.37929235238526 6.5019730752991372 -0.55919291073839883 0 0.82903756765294845 0.82903756765294845 0 0.55919291073839883 1 I I #
face $-1 $-1 $572 $56 $-1 $573 reversed single #
loop $-1 $-1 $258 $252 #
plane-surface $-1 0 0 12.179739099853061 0 0 1 1 0 0 forward_v I I I I #
coedge $-1 $574 $575 $576 $577 reversed $253 $-1 #
coedge $-1 $578 $255 $257 $409 forward $159 $-1 #
coedge $-1 $255 $578 $574 $579 forward $159 $-1 #
coedge $-1 $576 $258 $255 $406 forward $400 $-1 #
edge $-1 $412 2.4466340700285141 $580 8.743026126159462 $405 $581 forward 7 unknown #
coedge $-1 $582 $583 $256 $408 forward $572 $-1 #
edge $-1 $584 -59.40251475088742 $411 -47.658131788647545 $407 $585 forward 7 unknown #
edge $-1 $412 70.045045748874998 $584 84.94888149662772 $257 $586 forward 7 unknown #
coedge $-1 $258 $576 $582 $587 forward $400 $-1 #
vertex $-1 $408 $588 #
vertex $-1 $259 $589 #
straight-curve $-1 28.557660381871976 -8.0414641681225021 12.179739099853059 -1 0 0 I I #
coedge $-1 $414 $414 $-1 $590 reversed $262 $-1 #
edge $-1 $591 0 $591 6.2831853071796004 $263 $592 forward 7 unknown #
vertex $-1 $266 $593 #
ellipse-curve $-1 37.886582074808267 -12.538887065358894 6.3075476187331256 0.78801076186113728 0 0.61566146476048833 0.30783073238024417 0 -0.39400538093056864 1 I I #
coedge $-1 $418 $418 $-1 $594 reversed $269 $-1 #
edge $-1 $595 0 $595 6.2831853071796004 $270 $596 forward 7 unknown #
vertex $-1 $273 $597 #
ellipse-curve $-1 37.886582074808267 -9.8404333270170596 6.3075476187331256 0.78801076186113728 0 0.61566146476048833 0.30783073238024417 0 -0.39400538093056864 1 I I #
face $-1 $-1 $434 $59 $-1 $598 forward single #
loop $-1 $-1 $599 $274 #
plane-surface $-1 42.474440748313853 0 0 -1 0 0 0 0 1 forward_v I I I I #
coedge $-1 $600 $601 $602 $603 reversed $275 $-1 #
coedge $-1 $604 $277 $279 $432 forward $173 $-1 #
coedge $-1 $277 $604 $600 $605 forward $173 $-1 #
coedge $-1 $602 $280 $277 $429 forward $434 $-1 #
edge $-1 $436 -2.9647235010386108 $606 3.3316685550923371 $428 $607 forward 7 unknown #
coedge $-1 $608 $609 $278 $431 forward $423 $-1 #
edge $-1 $610 -59.40251475088742 $435 -47.658131788647545 $430 $611 forward 7 unknown #
edge $-1 $436 70.045045748874998 $610 84.94888149662772 $279 $612 forward 7 unknown #
coedge $-1 $280 $602 $608 $613 forward $434 $-1 #
loop $-1 $-1 $602 $422 #
vertex $-1 $431 $614 #
vertex $-1 $281 $615 #
straight-curve $-1 28.557660381871976 2.7812509740117477 12.179739099853059 -1 0 0 I I #
coedge $-1 $438 $438 $-1 $616 reversed $284 $-1 #
edge $-1 $617 0 $617 6.2831853071796004 $285 $618 forward 7 unknown #
vertex $-1 $288 $619 #
ellipse-curve $-1 37.886582074808267 -1.7161719232246462 6.3075476187331256 0.78801076186113728 0 0.61566146476048833 0.30783073238024417 0 -0.39400538093056864 1 I I #
coedge $-1 $442 $442 $-1 $620 reversed $291 $-1 #
edge $-1 $621 0 $621 6.2831853071796004 $292 $622 forward 7 unknown #
vertex $-1 $295 $623 #
ellipse-curve $-1 37.886582074808267 0.9822818151171866 6.3075476187331256 0.78801076186113728 0 0.61566146476048833 0.30783073238024417 0 -0.39400538093056864 1 I I #
face $-1 $-1 $458 $62 $-1 $624 forward single #
loop $-1 $-1 $625 $296 #
plane-surface $-1 42.474440748313853 0 0 -1 0 0 0 0 1 forward_v I I I I #
coedge $-1 $626 $627 $628 $629 reversed $297 $-1 #
coedge $-1 $630 $299 $301 $456 forward $187 $-1 #
coedge $-1 $299 $630 $626 $631 forward $187 $-1 #
coedge $-1 $628 $302 $299 $453 forward $458 $-1 #
edge $-1 $460 -8.3760810721057357 $632 -2.0796890159747878 $452 $633 forward 7 unknown #
coedge $-1 $634 $635 $300 $455 forward $447 $-1 #
edge $-1 $636 -59.40251475088742 $459 -47.658131788647545 $454 $637 forward 7 unknown #
edge $-1 $460 70.045045748874998 $636 84.94888149662772 $301 $638 forward 7 unknown #
coedge $-1 $302 $628 $634 $639 forward $458 $-1 #
loop $-1 $-1 $628 $446 #
vertex $-1 $455 $640 #
vertex $-1 $303 $641 #
straight-curve $-1 28.557660381871976 13.603966116145997 12.179739099853059 -1 0 0 I I #
coedge $-1 $462 $462 $-1 $642 reversed $306 $-1 #
edge $-1 $643 0 $643 6.2831853071796004 $307 $644 forward 7 unknown #
vertex $-1 $310 $645 #
ellipse-curve $-1 37.886582074808267 9.1065432189096036 6.3075476187331256 0.78801076186113728 0 0.61566146476048833 0.30783073238024417 0 -0.39400538093056864 1 I I #
coedge $-1 $466 $466 $-1 $646 reversed $313 $-1 #
edge $-1 $647 0 $647 6.2831853071796004 $314 $648 forward 7 unknown #
vertex $-1 $317 $649 #
ellipse-curve $-1 37.886582074808267 11.804996957251436 6.3075476187331256 0.78801076186113728 0 0.61566146476048833 0.30783073238024417 0 -0.39400538093056864 1 I I #
face $-1 $-1 $482 $65 $-1 $650 forward single #
loop $-1 $-1 $651 $318 #
plane-surface $-1 42.474440748313853 0 0 -1 0 0 0 0 1 forward_v I I I I #
coedge $-1 $652 $653 $654 $655 reversed $319 $-1 #
coedge $-1 $656 $321 $323 $480 forward $201 $-1 #
coedge $-1 $321 $656 $652 $657 forward $201 $-1 #
coedge $-1 $654 $324 $321 $477 forward $482 $-1 #
edge $-1 $484 -13.787438643172861 $658 -7.4910465870419127 $476 $659 forward 7 unknown #
coedge $-1 $660 $661 $322 $479 forward $471 $-1 #
edge $-1 $662 -59.40251475088742 $483 -47.658131788647545 $478 $663 forward 7 unknown #
edge $-1 $484 70.045045748874998 $662 84.94888149662772 $323 $664 forward 7 unknown #
coedge $-1 $324 $654 $660 $665 forward $482 $-1 #
loop $-1 $-1 $654 $470 #
vertex $-1 $479 $666 #
vertex $-1 $325 $667 #
straight-curve $-1 28.557660381871976 24.426681258280247 12.179739099853059 -1 0 0 I I #
coedge $-1 $486 $486 $-1 $668 reversed $328 $-1 #
edge $-1 $669 0 $669 6.2831853071796004 $329 $670 forward 7 unknown #
vertex $-1 $332 $671 #
ellipse-curve $-1 37.886582074808267 19.929258361043853 6.3075476187331256 0.78801076186113728 0 0.61566146476048833 0.30783073238024417 0 -0.39400538093056864 1 I I #
coedge $-1 $490 $490 $-1 $672 reversed $335 $-1 #
edge $-1 $673 0 $673 6.2831853071796004 $336 $674 forward 7 unknown #
vertex $-1 $339 $675 #
ellipse-curve $-1 37.886582074808267 22.627712099385686 6.3075476187331256 0.78801076186113728 0 0.61566146476048833 0.30783073238024417 0 -0.39400538093056864 1 I I #
face $-1 $-1 $355 $51 $-1 $676 reversed single #
loop $-1 $-1 $510 $340 #
plane-surface $-1 0 26.451931140671764 0 0 -1 0 0 0 -1 forward_v I I I I #
coedge $-1 $677 $508 $511 $678 forward $341 $-1 #
coedge $-1 $514 $343 $344 $502 reversed $215 $-1 #
coedge $-1 $508 $677 $343 $500 reversed $341 $-1 #
edge $-1 $515 -12.179739099853061 $679 12.179739099853061 $499 $680 forward 7 unknown #
coedge $-1 $345 $344 $677 $681 forward $137 $-1 #
edge $-1 $506 -42.474440748313853 $679 42.474440748313853 $498 $682 forward 7 unknown #
coedge $-1 $511 $510 $345 $504 reversed $495 $-1 #
edge $-1 $683 -42.474440748313853 $505 42.474440748313853 $503 $684 forward 7 unknown #
vertex $-1 $347 $685 #
vertex $-1 $517 $686 #
straight-curve $-1 42.474440748313853 0 -12.179739099853061 0 -1 0 I I #
coedge $-1 $497 $499 $348 $509 reversed $341 $-1 #
edge $-1 $512 -26.451931140671764 $515 26.451931140671764 $508 $687 forward 7 unknown #
coedge $-1 $503 $349 $354 $518 forward $495 $-1 #
coedge $-1 $349 $503 $497 $678 reversed $495 $-1 #
vertex $-1 $350 $688 #
straight-curve $-1 0 26.451931140671764 12.179739099853061 -1 0 0 I I #
coedge $-1 $351 $498 $353 $517 reversed $215 $-1 #
vertex $-1 $509 $689 #
straight-curve $-1 0 -26.451931140671764 12.179739099853061 1 0 0 I I #
edge $-1 $356 -12.179739099853061 $506 12.179739099853061 $353 $690 forward 7 unknown #
edge $-1 $357 -12.179739099853061 $505 12.179739099853061 $354 $691 forward 7 unknown #
point $-1 42.474440748313853 -26.451931140671764 12.179739099853061 #
point $-1 42.474440748313853 26.451931140671764 12.179739099853061 #
face $-1 $-1 $692 $52 $-1 $693 reversed single #
loop $-1 $-1 $694 $359 #
plane-surface $-1 0 0 -12.179739099853061 0 0 1 1 0 0 forward_v I I I I #
coedge $-1 $531 $541 $526 $695 forward $360 $-1 #
coedge $-1 $365 $362 $694 $696 reversed $223 $-1 #
coedge $-1 $362 $365 $524 $695 reversed $223 $-1 #
coedge $-1 $697 $698 $362 $528 forward $692 $-1 #
edge $-1 $699 -12.179739099853061 $700 12.179739099853061 $527 $701 forward 7 unknown #
coedge $-1 $694 $368 $363 $530 forward $522 $-1 #
edge $-1 $373 -17.173769365400933 $534 -10.849166539875259 $529 $702 forward 7 unknown #
coedge $-1 $370 $524 $364 $532 forward $360 $-1 #
edge $-1 $533 10.849166539875259 $372 17.173769365400933 $531 $703 forward 7 unknown #
vertex $-1 $532 $704 #
vertex $-1 $530 $705 #
straight-curve $-1 -24.860634492513356 -16.363106106644974 0 0 0 -1 I I #
coedge $-1 $698 $697 $367 $537 forward $692 $-1 #
edge $-1 $542 -12.179739099853061 $539 12.179739099853061 $536 $706 forward 7 unknown #
coedge $-1 $368 $694 $698 $707 forward $522 $-1 #
vertex $-1 $369 $708 #
straight-curve $-1 -31.185237318039029 -10.703759311829184 -12.179739099853061 0 1 0 I I #
coedge $-1 $524 $370 $697 $709 forward $360 $-1 #
vertex $-1 $709 $710 #
straight-curve $-1 -31.185237318039029 -10.703759311829184 12.179739099853061 0 -1 0 I I #
point $-1 -31.185237318039029 -16.363106106644974 12.179739099853061 #
point $-1 -31.185237318039029 -16.363106106644974 -12.179739099853061 #
plane-surface $-1 0 0 12.179739099853061 0 0 1 1 0 0 forward_v I I I I #
coedge $-1 $557 $556 $549 $711 forward $376 $-1 #
coedge $-1 $549 $378 $380 $553 reversed $231 $-1 #
coedge $-1 $378 $548 $547 $711 reversed $231 $-1 #
coedge $-1 $386 $381 $378 $551 forward $387 $-1 #
edge $-1 $554 -19.349454054231714 $712 -2.5141857798783604 $550 $713 forward 7 unknown #
coedge $-1 $380 $379 $557 $714 reversed $145 $-1 #
edge $-1 $715 1.7120460491857305e-014 $554 20.307002880478564 $548 $716 forward 7 unknown #
vertex $-1 $382 $717 #
straight-curve $-1 -25.639172473960496 -1.8155407543809989 12.179739099853061 0 1 0 I I #
coedge $-1 $547 $383 $386 $561 reversed $376 $-1 #
coedge $-1 $383 $547 $552 $714 forward $376 $-1 #
vertex $-1 $384 $718 #
straight-curve $-1 -42.474440748313853 -8.885256206974395 35.625010570773995 0 0 1 I I #
straight-curve $-1 -42.474440748313867 -8.885256206974395 0.82420705074520129 -0.82903756765294845 0 -0.55919291073839883 I I #
edge $-1 $712 -1.6230931894503993 $388 8.885256206974395 $556 $719 forward 7 unknown #
point $-1 -42.474440748313853 -8.885256206974395 12.179739099853061 #
point $-1 -25.6391724739605 -8.885256206974395 12.179739099853061 #
edge $-1 $720 1 $720 0 $391 $-1 forward 7 unknown #
vertex $-1 $392 $721 #
ellipse-curve $-1 -33.127406729585203 -5.8828706651387428 5.1240811128253068 -0.55919291073839883 0 0.82903756765294845 0.82903756765294845 0 0.55919291073839883 1 I I #
point $-1 -33.227769043484216 -5.8828706651387428 7.0611659860375227 #
edge $-1 $722 1 $722 0 $395 $-1 forward 7 unknown #
vertex $-1 $396 $723 #
ellipse-curve $-1 -33.127406729585203 -1.37929235238526 5.1240811128253068 -0.55919291073839883 0 0.82903756765294845 0.82903756765294845 0 0.55919291073839883 1 I I #
point $-1 -33.227769043484216 -1.37929235238526 7.0611659860375227 #
loop $-1 $-1 $407 $399 #
plane-surface $-1 42.474440748313853 0 0 -1 0 0 0 0 1 forward_v I I I I #
coedge $-1 $575 $402 $404 $579 reversed $253 $-1 #
coedge $-1 $402 $574 $724 $725 reversed $253 $-1 #
coedge $-1 $410 $405 $402 $577 forward $400 $-1 #
edge $-1 $580 4.7410630194307117 $726 13.916780366441877 $576 $727 forward 7 unknown #
coedge $-1 $404 $403 $583 $728 reversed $159 $-1 #
edge $-1 $729 -84.94888149662772 $580 -70.045045748874998 $574 $730 forward 7 unknown #
vertex $-1 $406 $731 #
straight-curve $-1 33.298723401302695 -5.594830098093988 12.179739099853059 0 -1 0 I I #
coedge $-1 $724 $407 $410 $587 reversed $572 $-1 #
coedge $-1 $407 $724 $578 $728 forward $572 $-1 #
vertex $-1 $408 $732 #
straight-curve $-1 42.474440748313853 -8.0414641681225021 59.837870888500603 0 0 1 I I #
straight-curve $-1 -9.825312063665109 -8.0414641681225021 67.375988965022259 0.61566146476048833 0 -0.78801076186113728 I I #
edge $-1 $726 -14.33785622425345 $411 -8.0414641681225021 $582 $733 forward 7 unknown #
point $-1 42.474440748313853 -8.0414641681225021 12.179739099853061 #
point $-1 33.298723401302688 -8.0414641681225021 12.179739099853059 #
edge $-1 $734 1 $734 0 $414 $-1 forward 7 unknown #
vertex $-1 $415 $735 #
ellipse-curve $-1 37.034661324249782 -12.538887065358894 5.6419541997930986 0.78801076186113728 0 0.61566146476048833 0.30783073238024417 0 -0.39400538093056864 1 I I #
point $-1 38.194412807188513 -12.538887065358894 5.9135422378025577 #
edge $-1 $736 1 $736 0 $418 $-1 forward 7 unknown #
vertex $-1 $419 $737 #
ellipse-curve $-1 37.034661324249782 -9.8404333270170596 5.6419541997930986 0.78801076186113728 0 0.61566146476048833 0.30783073238024417 0 -0.39400538093056864 1 I I #
point $-1 38.194412807188513 -9.8404333270170596 5.9135422378025577 #
plane-surface $-1 0 0 12.179739099853061 0 0 1 1 0 0 forward_v I I I I #
coedge $-1 $609 $608 $601 $738 forward $423 $-1 #
coedge $-1 $601 $425 $427 $605 reversed $275 $-1 #
coedge $-1 $425 $600 $599 $738 reversed $275 $-1 #
coedge $-1 $433 $428 $425 $603 forward $434 $-1 #
edge $-1 $606 4.7410630194307117 $739 13.916780366441877 $602 $740 forward 7 unknown #
coedge $-1 $427 $426 $609 $741 reversed $173 $-1 #
edge $-1 $742 -84.94888149662772 $606 -70.045045748874998 $600 $743 forward 7 unknown #
vertex $-1 $429 $744 #
straight-curve $-1 33.298723401302695 -0.18347252702686312 12.179739099853059 0 -1 0 I I #
coedge $-1 $599 $430 $433 $613 reversed $423 $-1 #
coedge $-1 $430 $599 $604 $741 forward $423 $-1 #
vertex $-1 $431 $745 #
straight-curve $-1 42.474440748313853 2.7812509740117477 59.837870888500603 0 0 1 I I #
straight-curve $-1 -9.825312063665109 2.7812509740117477 67.375988965022259 0.61566146476048833 0 -0.78801076186113728 I I #
edge $-1 $739 -3.5151410821192002 $435 2.7812509740117477 $608 $746 forward 7 unknown #
point $-1 42.474440748313853 2.7812509740117477 12.179739099853061 #
point $-1 33.298723401302688 2.7812509740117477 12.179739099853059 #
edge $-1 $747 1 $747 0 $438 $-1 forward 7 unknown #
vertex $-1 $439 $748 #
ellipse-curve $-1 37.034661324249782 -1.7161719232246462 5.6419541997930986 0.78801076186113728 0 0.61566146476048833 0.30783073238024417 0 -0.39400538093056864 1 I I #
point $-1 38.194412807188513 -1.7161719232246462 5.9135422378025577 #
edge $-1 $749 1 $749 0 $442 $-1 forward 7 unknown #
vertex $-1 $443 $750 #
ellipse-curve $-1 37.034661324249782 0.9822818151171866 5.6419541997930986 0.78801076186113728 0 0.61566146476048833 0.30783073238024417 0 -0.39400538093056864 1 I I #
point $-1 38.194412807188513 0.9822818151171866 5.9135422378025577 #
plane-surface $-1 0 0 12.179739099853061 0 0 1 1 0 0 forward_v I I I I #
coedge $-1 $635 $634 $627 $751 forward $447 $-1 #
coedge $-1 $627 $449 $451 $631 reversed $297 $-1 #
coedge $-1 $449 $626 $625 $751 reversed $297 $-1 #
coedge $-1 $457 $452 $449 $629 forward $458 $-1 #
edge $-1 $632 4.7410630194307117 $752 13.916780366441877 $628 $753 forward 7 unknown #
coedge $-1 $451 $450 $635 $754 reversed $187 $-1 #
edge $-1 $755 -84.94888149662772 $632 -70.045045748874998 $626 $756 forward 7 unknown #
vertex $-1 $453 $757 #
straight-curve $-1 33.298723401302695 5.2278850440402618 12.179739099853059 0 -1 0 I I #
coedge $-1 $625 $454 $457 $639 reversed $447 $-1 #
coedge $-1 $454 $625 $630 $754 forward $447 $-1 #
vertex $-1 $455 $758 #
straight-curve $-1 42.474440748313853 13.603966116145997 59.837870888500603 0 0 1 I I #
straight-curve $-1 -9.825312063665109 13.603966116145997 67.375988965022259 0.61566146476048833 0 -0.78801076186113728 I I #
edge $-1 $752 7.3075740600150496 $459 13.603966116145997 $634 $759 forward 7 unknown #
point $-1 42.474440748313853 13.603966116145997 12.179739099853061 #
point $-1 33.298723401302688 13.603966116145997 12.179739099853059 #
edge $-1 $760 1 $760 0 $462 $-1 forward 7 unknown #
vertex $-1 $463 $761 #
ellipse-curve $-1 37.034661324249782 9.1065432189096036 5.6419541997930986 0.78801076186113728 0 0.61566146476048833 0.30783073238024417 0 -0.39400538093056864 1 I I #
point $-1 38.194412807188513 9.1065432189096036 5.9135422378025577 #
edge $-1 $762 1 $762 0 $466 $-1 forward 7 unknown #
vertex $-1 $467 $763 #
ellipse-curve $-1 37.034661324249782 11.804996957251436 5.6419541997930986 0.78801076186113728 0 0.61566146476048833 0.30783073238024417 0 -0.39400538093056864 1 I I #
point $-1 38.194412807188513 11.804996957251436 5.9135422378025577 #
plane-surface $-1 0 0 12.179739099853061 0 0 1 1 0 0 forward_v I I I I #
coedge $-1 $661 $660 $653 $764 forward $471 $-1 #
coedge $-1 $653 $473 $475 $657 reversed $319 $-1 #
coedge $-1 $473 $652 $651 $764 reversed $319 $-1 #
coedge $-1 $481 $476 $473 $655 forward $482 $-1 #
edge $-1 $658 4.7410630194307117 $765 13.916780366441877 $654 $766 forward 7 unknown #
coedge $-1 $475 $474 $661 $767 reversed $201 $-1 #
edge $-1 $768 -84.94888149662772 $658 -70.045045748874998 $652 $769 forward 7 unknown #
vertex $-1 $477 $770 #
straight-curve $-1 33.298723401302695 10.639242615107387 12.179739099853059 0 -1 0 I I #
coedge $-1 $651 $478 $481 $665 reversed $471 $-1 #
coedge $-1 $478 $651 $656 $767 forward $471 $-1 #
vertex $-1 $479 $771 #
straight-curve $-1 42.474440748313853 24.426681258280247 59.837870888500603 0 0 1 I I #
straight-curve $-1 -9.825312063665109 24.426681258280247 67.375988965022259 0.61566146476048833 0 -0.78801076186113728 I I #
edge $-1 $765 18.130289202149299 $483 24.426681258280247 $660 $772 forward 7 unknown #
point $-1 42.474440748313853 24.426681258280247 12.179739099853061 #
point $-1 33.298723401302688 24.426681258280247 12.179739099853059 #
edge $-1 $773 1 $773 0 $486 $-1 forward 7 unknown #
vertex $-1 $487 $774 #
ellipse-curve $-1 37.034661324249782 19.929258361043853 5.6419541997930986 0.78801076186113728 0 0.61566146476048833 0.30783073238024417 0 -0.39400538093056864 1 I I #
point $-1 38.194412807188513 19.929258361043853 5.9135422378025577 #
edge $-1 $775 1 $775 0 $490 $-1 forward 7 unknown #
vertex $-1 $491 $776 #
ellipse-curve $-1 37.034661324249782 22.627712099385686 5.6419541997930986 0.78801076186113728 0 0.61566146476048833 0.30783073238024417 0 -0.39400538093056864 1 I I #
point $-1 38.194412807188513 22.627712099385686 5.9135422378025577 #
plane-surface $-1 42.474440748313853 0 0 -1 0 0 0 0 1 forward_v I I I I #
coedge $-1 $499 $497 $501 $681 reversed $341 $-1 #
edge $-1 $512 -12.179739099853061 $683 12.179739099853061 $511 $777 forward 7 unknown #
vertex $-1 $681 $778 #
straight-curve $-1 -42.474440748313853 -26.451931140671764 0 0 0 -1 I I #
edge $-1 $679 -26.451931140671764 $683 26.451931140671764 $677 $779 forward 7 unknown #
straight-curve $-1 0 -26.451931140671764 -12.179739099853061 -1 0 0 I I #
vertex $-1 $504 $780 #
straight-curve $-1 0 26.451931140671764 -12.179739099853061 1 0 0 I I #
point $-1 42.474440748313853 26.451931140671764 -12.179739099853061 #
point $-1 42.474440748313853 -26.451931140671764 -12.179739099853061 #
straight-curve $-1 -42.474440748313853 0 12.179739099853061 0 -1 0 I I #
point $-1 -42.474440748313853 26.451931140671764 12.179739099853061 #
point $-1 -42.474440748313853 -26.451931140671764 12.179739099853061 #
straight-curve $-1 42.474440748313853 -26.451931140671764 0 0 0 -1 I I #
straight-curve $-1 42.474440748313853 26.451931140671764 0 0 0 -1 I I #
loop $-1 $-1 $527 $521 #
plane-surface $-1 0 -26.451931140671764 0 0 1 0 0 0 1 forward_v I I I I #
coedge $-1 $538 $529 $525 $696 forward $522 $-1 #
edge $-1 $700 -15.74817182884258 $533 -5.6593467948157894 $524 $781 forward 7 unknown #
edge $-1 $534 5.6593467948157894 $699 15.74817182884258 $694 $782 forward 7 unknown #
coedge $-1 $536 $527 $541 $709 reversed $692 $-1 #
coedge $-1 $527 $536 $538 $707 reversed $692 $-1 #
vertex $-1 $707 $783 #
vertex $-1 $528 $784 #
straight-curve $-1 -24.860634492513356 -26.451931140671764 0 0 0 1 I I #
straight-curve $-1 -14.011467952638096 -16.363106106644974 -12.179739099853061 1 0 0 I I #
straight-curve $-1 -14.011467952638096 -16.363106106644974 12.179739099853061 -1 0 0 I I #
point $-1 -24.860634492513356 -16.363106106644974 12.179739099853061 #
point $-1 -24.860634492513356 -16.363106106644974 -12.179739099853061 #
straight-curve $-1 -31.185237318039029 -26.451931140671764 0 0 0 -1 I I #
edge $-1 $699 24.860634492513356 $539 31.185237318039029 $698 $785 forward 7 unknown #
point $-1 -31.185237318039029 -26.451931140671764 -12.179739099853061 #
edge $-1 $542 -31.185237318039029 $700 -24.860634492513356 $697 $786 forward 7 unknown #
point $-1 -31.185237318039029 -26.451931140671764 12.179739099853061 #
edge $-1 $712 23.445271470920936 $715 34.800803520028786 $547 $787 forward 7 unknown #
vertex $-1 $561 $788 #
straight-curve $-1 -44.988626528192214 1.6230931894503993 12.179739099853059 -1 0 0 I I #
edge $-1 $715 -3.4386339438313982 $558 7.0697154525933961 $557 $789 forward 7 unknown #
vertex $-1 $714 $790 #
straight-curve $-1 -42.474440748313867 1.6230931894503993 0.82420705074520129 0.82903756765294845 0 0.55919291073839883 I I #
point $-1 -25.6391724739605 1.6230931894503993 12.179739099853061 #
point $-1 -42.474440748313853 -8.885256206974395 0.82420705074521083 #
straight-curve $-1 -42.474440748313853 0 12.179739099853061 0 -1 0 I I #
vertex $-1 $564 $791 #
point $-1 -32.29836916193225 -5.8828706651387428 5.6832740235637056 #
vertex $-1 $568 $792 #
point $-1 -32.29836916193225 -1.37929235238526 5.6832740235637056 #
coedge $-1 $583 $582 $575 $725 forward $572 $-1 #
edge $-1 $726 47.658131788647545 $729 59.40251475088742 $724 $793 forward 7 unknown #
vertex $-1 $587 $794 #
straight-curve $-1 28.557660381871976 -14.33785622425345 12.179739099853059 1 0 0 I I #
edge $-1 $729 -8.743026126159462 $584 -2.4466340700285141 $583 $795 forward 7 unknown #
vertex $-1 $728 $796 #
straight-curve $-1 -9.825312063665109 -14.33785622425345 67.375988965022259 -0.61566146476048833 0 0.78801076186113728 I I #
point $-1 33.298723401302688 -14.33785622425345 12.179739099853059 #
point $-1 42.47444074831386 -8.0414641681225021 0.43535613761318359 #
straight-curve $-1 42.474440748313853 0 12.179739099853061 0 1 0 I I #
vertex $-1 $590 $797 #
point $-1 37.342492056630029 -12.538887065358894 5.2479488188625298 #
vertex $-1 $594 $798 #
point $-1 37.342492056630029 -9.8404333270170596 5.2479488188625298 #
edge $-1 $739 47.658131788647545 $742 59.40251475088742 $599 $799 forward 7 unknown #
vertex $-1 $613 $800 #
straight-curve $-1 28.557660381871976 -3.5151410821192002 12.179739099853059 1 0 0 I I #
edge $-1 $742 -3.3316685550923371 $610 2.9647235010386108 $609 $801 forward 7 unknown #
vertex $-1 $741 $802 #
straight-curve $-1 -9.825312063665109 -3.5151410821192002 67.375988965022259 -0.61566146476048833 0 0.78801076186113728 I I #
point $-1 33.298723401302688 -3.5151410821192002 12.179739099853059 #
point $-1 42.47444074831386 2.7812509740117477 0.43535613761318359 #
straight-curve $-1 42.474440748313853 0 12.179739099853061 0 1 0 I I #
vertex $-1 $616 $803 #
point $-1 37.342492056630029 -1.7161719232246462 5.2479488188625298 #
vertex $-1 $620 $804 #
point $-1 37.342492056630029 0.9822818151171866 5.2479488188625298 #
edge $-1 $752 47.658131788647545 $755 59.40251475088742 $625 $805 forward 7 unknown #
vertex $-1 $639 $806 #
straight-curve $-1 28.557660381871976 7.3075740600150496 12.179739099853059 1 0 0 I I #
edge $-1 $755 2.0796890159747878 $636 8.3760810721057357 $635 $807 forward 7 unknown #
vertex $-1 $754 $808 #
straight-curve $-1 -9.825312063665109 7.3075740600150496 67.375988965022259 -0.61566146476048833 0 0.78801076186113728 I I #
point $-1 33.298723401302688 7.3075740600150496 12.179739099853059 #
point $-1 42.47444074831386 13.603966116145997 0.43535613761318359 #
straight-curve $-1 42.474440748313853 0 12.179739099853061 0 1 0 I I #
vertex $-1 $642 $809 #
point $-1 37.342492056630029 9.1065432189096036 5.2479488188625298 #
vertex $-1 $646 $810 #
point $-1 37.342492056630029 11.804996957251436 5.2479488188625298 #
edge $-1 $765 47.658131788647545 $768 59.40251475088742 $651 $811 forward 7 unknown #
vertex $-1 $665 $812 #
straight-curve $-1 28.557660381871976 18.130289202149299 12.179739099853059 1 0 0 I I #
edge $-1 $768 7.4910465870419127 $662 13.787438643172861 $661 $813 forward 7 unknown #
vertex $-1 $767 $814 #
straight-curve $-1 -9.825312063665109 18.130289202149299 67.375988965022259 -0.61566146476048833 0 0.78801076186113728 I I #
point $-1 33.298723401302688 18.130289202149299 12.179739099853059 #
point $-1 42.47444074831386 24.426681258280247 0.43535613761318359 #
straight-curve $-1 42.474440748313853 0 12.179739099853061 0 1 0 I I #
vertex $-1 $668 $815 #
point $-1 37.342492056630029 19.929258361043853 5.2479488188625298 #
vertex $-1 $672 $816 #
point $-1 37.342492056630029 22.627712099385686 5.2479488188625298 #
straight-curve $-1 -42.474440748313853 26.451931140671764 0 0 0 -1 I I #
point $-1 -42.474440748313853 -26.451931140671764 -12.179739099853061 #
straight-curve $-1 -42.474440748313853 0 -12.179739099853061 0 1 0 I I #
point $-1 -42.474440748313853 26.451931140671764 -12.179739099853061 #
straight-curve $-1 -24.860634492513356 -10.703759311829184 12.179739099853061 0 1 0 I I #
straight-curve $-1 -24.860634492513356 -10.703759311829184 -12.179739099853061 0 -1 0 I I #
point $-1 -24.860634492513356 -26.451931140671764 -12.179739099853061 #
point $-1 -24.860634492513356 -26.451931140671764 12.179739099853061 #
straight-curve $-1 0 -26.451931140671764 -12.179739099853061 -1 0 0 I I #
straight-curve $-1 0 -26.451931140671764 12.179739099853061 1 0 0 I I #
straight-curve $-1 -42.474440748313853 1.6230931894503993 35.625010570773995 0 0 -1 I I #
point $-1 -42.474440748313853 1.6230931894503993 12.179739099853061 #
straight-curve $-1 -42.474440748313853 -1.8155407543809989 0.82420705074520983 0 -1 0 I I #
point $-1 -42.474440748313853 1.6230931894503993 0.82420705074521083 #
point $-1 -32.5682138188468 -5.8828706651387428 4.2950435451723603 #
point $-1 -32.5682138188468 -1.37929235238526 4.2950435451723603 #
straight-curve $-1 42.474440748313853 -14.33785622425345 59.837870888500603 0 0 -1 I I #
point $-1 42.474440748313853 -14.33785622425345 12.179739099853061 #
straight-curve $-1 42.474440748313853 -5.594830098093988 0.43535613761318359 0 1 0 I I #
point $-1 42.47444074831386 -14.33785622425345 0.43535613761318359 #
point $-1 36.640655943319217 -12.538887065358894 5.3341234674128541 #
point $-1 36.640655943319217 -9.8404333270170596 5.3341234674128541 #
straight-curve $-1 42.474440748313853 -3.5151410821192002 59.837870888500603 0 0 -1 I I #
point $-1 42.474440748313853 -3.5151410821192002 12.179739099853061 #
straight-curve $-1 42.474440748313853 -0.18347252702686312 0.43535613761318359 0 1 0 I I #
point $-1 42.47444074831386 -3.5151410821192002 0.43535613761318359 #
point $-1 36.640655943319217 -1.7161719232246462 5.3341234674128541 #
point $-1 36.640655943319217 0.9822818151171866 5.3341234674128541 #
straight-curve $-1 42.474440748313853 7.3075740600150496 59.837870888500603 0 0 -1 I I #
point $-1 42.474440748313853 7.3075740600150496 12.179739099853061 #
straight-curve $-1 42.474440748313853 5.2278850440402618 0.43535613761318359 0 1 0 I I #
point $-1 42.47444074831386 7.3075740600150496 0.43535613761318359 #
point $-1 36.640655943319217 9.1065432189096036 5.3341234674128541 #
point $-1 36.640655943319217 11.804996957251436 5.3341234674128541 #
straight-curve $-1 42.474440748313853 18.130289202149299 59.837870888500603 0 0 -1 I I #
point $-1 42.474440748313853 18.130289202149299 12.179739099853061 #
straight-curve $-1 42.474440748313853 10.639242615107387 0.43535613761318359 0 1 0 I I #
point $-1 42.47444074831386 18.130289202149299 0.43535613761318359 #
point $-1 36.640655943319217 19.929258361043853 5.3341234674128541 #
point $-1 36.640655943319217 22.627712099385686 5.3341234674128541 #
End-of-ACIS-data 