500 0 15 0           
7 Unknown 11 ACIS 5.0 NT 24 Fri Mar 26 20:05:38 1999 
-1 9.9999999999999995e-007 1e-010 
body $-1 $15 $-1 $16 #
body $-1 $17 $-1 $18 #
body $-1 $19 $-1 $20 #
body $-1 $21 $-1 $22 #
body $-1 $23 $-1 $24 #
body $-1 $25 $-1 $26 #
body $-1 $27 $-1 $28 #
body $-1 $29 $-1 $30 #
body $-1 $31 $-1 $32 #
body $-1 $33 $-1 $34 #
body $-1 $35 $-1 $36 #
body $-1 $37 $-1 $38 #
body $-1 $39 $-1 $40 #
body $-1 $41 $-1 $42 #
body $-1 $43 $-1 $44 #
lump $-1 $-1 $45 $0 #
transform $-1 1 0 0 0 1 0 0 0 1 44.664448988311413 24.035681078545267 11.818246166230482 1 rotate no_reflect no_shear #
lump $-1 $-1 $46 $1 #
transform $-1 1 0 0 0 1 0 0 0 1 44.664448988311413 24.035681078545267 11.818246166230482 1 rotate no_reflect no_shear #
lump $-1 $-1 $47 $2 #
transform $-1 1 0 0 0 1 0 0 0 1 44.664448988311413 24.035681078545267 11.818246166230482 1 rotate no_reflect no_shear #
lump $-1 $-1 $48 $3 #
transform $-1 1 0 0 0 1 0 0 0 1 44.664448988311413 24.035681078545267 11.818246166230482 1 rotate no_reflect no_shear #
lump $-1 $-1 $49 $4 #
transform $-1 1 0 0 0 1 0 0 0 1 44.664448988311413 24.035681078545267 11.818246166230482 1 rotate no_reflect no_shear #
lump $-1 $-1 $50 $5 #
transform $-1 1 0 0 0 1 0 0 0 1 44.664448988311413 24.035681078545267 11.818246166230482 1 rotate no_reflect no_shear #
lump $-1 $-1 $51 $6 #
transform $-1 1 0 0 0 1 0 0 0 1 44.664448988311413 24.035681078545267 11.818246166230482 1 rotate no_reflect no_shear #
lump $-1 $-1 $52 $7 #
transform $-1 1 0 0 0 1 0 0 0 1 44.664448988311413 24.035681078545267 11.818246166230482 1 rotate no_reflect no_shear #
lump $-1 $-1 $53 $8 #
transform $-1 1 0 0 0 1 0 0 0 1 44.664448988311413 24.035681078545267 11.818246166230482 1 rotate no_reflect no_shear #
lump $-1 $-1 $54 $9 #
transform $-1 1 0 0 0 1 0 0 0 1 44.664448988311413 24.035681078545267 11.818246166230482 1 rotate no_reflect no_shear #
lump $-1 $-1 $55 $10 #
transform $-1 1 0 0 0 1 0 0 0 1 44.664448988311413 24.035681078545267 11.818246166230482 1 rotate no_reflect no_shear #
lump $-1 $-1 $56 $11 #
transform $-1 1 0 0 0 1 0 0 0 1 44.664448988311413 24.035681078545267 11.818246166230482 1 rotate no_reflect no_shear #
lump $-1 $-1 $57 $12 #
transform $-1 1 0 0 0 1 0 0 0 1 44.664448988311413 24.035681078545267 11.818246166230482 1 rotate no_reflect no_shear #
lump $-1 $-1 $58 $13 #
transform $-1 1 0 0 0 1 0 0 0 1 44.664448988311413 24.035681078545267 11.818246166230482 1 rotate no_reflect no_shear #
lump $-1 $-1 $59 $14 #
transform $-1 1 0 0 0 1 0 0 0 1 44.664448988311413 24.035681078545267 11.818246166230482 1 rotate no_reflect no_shear #
shell $-1 $-1 $-1 $60 $-1 $15 #
shell $-1 $-1 $-1 $61 $-1 $17 #
shell $-1 $-1 $-1 $62 $-1 $19 #
shell $-1 $-1 $-1 $63 $-1 $21 #
shell $-1 $-1 $-1 $64 $-1 $23 #
shell $-1 $-1 $-1 $65 $-1 $25 #
shell $-1 $-1 $-1 $66 $-1 $27 #
shell $-1 $-1 $-1 $67 $-1 $29 #
shell $-1 $-1 $-1 $68 $-1 $31 #
shell $-1 $-1 $-1 $69 $-1 $33 #
shell $-1 $-1 $-1 $70 $-1 $35 #
shell $-1 $-1 $-1 $71 $-1 $37 #
shell $-1 $-1 $-1 $72 $-1 $39 #
shell $-1 $-1 $-1 $73 $-1 $41 #
shell $-1 $-1 $-1 $74 $-1 $43 #
face $-1 $75 $76 $45 $-1 $77 forward single #
face $-1 $78 $79 $46 $-1 $80 forward single #
face $-1 $81 $82 $47 $-1 $83 reversed single #
face $-1 $84 $85 $48 $-1 $86 reversed single #
face $-1 $87 $88 $49 $-1 $89 forward single #
face $-1 $90 $91 $50 $-1 $92 forward single #
face $-1 $93 $94 $51 $-1 $95 reversed single #
face $-1 $96 $97 $52 $-1 $98 forward single #
face $-1 $99 $100 $53 $-1 $101 forward single #
face $-1 $102 $103 $54 $-1 $104 reversed single #
face $-1 $105 $106 $55 $-1 $107 forward single #
face $-1 $108 $109 $56 $-1 $110 forward single #
face $-1 $111 $112 $57 $-1 $113 reversed single #
face $-1 $114 $115 $58 $-1 $116 forward single #
face $-1 $117 $118 $59 $-1 $119 forward single #
face $-1 $120 $121 $45 $-1 $122 reversed single #
loop $-1 $-1 $123 $60 #
plane-surface $-1 0 0 11.818246166230482 0 0 1 1 0 0 forward_v I I I I #
face $-1 $124 $125 $46 $-1 $126 reversed single #
loop $-1 $-1 $127 $61 #
plane-surface $-1 0 -24.035681078545267 0 0 1 0 0 0 1 forward_v I I I I #
face $-1 $128 $129 $47 $-1 $130 reversed single #
loop $-1 $-1 $131 $62 #
plane-surface $-1 0 18.782608255266595 6.6061280184538553 0 0 1 1 0 0 forward_v I I I I #
face $-1 $132 $133 $48 $-1 $134 reversed single #
loop $-1 $-1 $135 $63 #
plane-surface $-1 -102.0839585003811 -8.9753033511824931 76.835860053862731 0 1 0 -0.64278761758704617 0 0.76604443648966558 forward_v I I I I #
face $-1 $136 $137 $49 $-1 $138 forward single #
loop $-1 $139 $140 $64 #
cone-surface $-1 -42.26938322255053 -7.1234921973289786 9.6809710562799989 0.64278761758704617 0 -0.76604443648966558 0.38302221824483279 0 0.32139380879352308 1 I I 0 1 0.5 forward I I I I #
face $-1 $141 $142 $50 $-1 $143 forward single #
loop $-1 $144 $145 $65 #
cone-surface $-1 -42.26938322255053 -4.3457754665487052 9.6809710562799989 0.64278761758704617 0 -0.76604443648966558 0.38302221824483279 0 0.32139380879352308 1 I I 0 1 0.5 forward I I I I #
face $-1 $146 $147 $51 $-1 $148 reversed single #
loop $-1 $-1 $149 $66 #
plane-surface $-1 -102.0839585003811 4.1074203581683406 76.835860053862731 0 1 0 -0.64278761758704617 0 0.76604443648966558 forward_v I I I I #
face $-1 $150 $151 $52 $-1 $152 forward single #
loop $-1 $153 $154 $67 #
cone-surface $-1 -42.26938322255053 5.9592315120218515 9.6809710562799989 0.64278761758704617 0 -0.76604443648966558 0.38302221824483279 0 0.32139380879352308 1 I I 0 1 0.5 forward I I I I #
face $-1 $155 $156 $53 $-1 $157 forward single #
loop $-1 $158 $159 $68 #
cone-surface $-1 -42.26938322255053 8.7369482428021286 9.6809710562799989 0.64278761758704617 0 -0.76604443648966558 0.38302221824483279 0 0.32139380879352308 1 I I 0 1 0.5 forward I I I I #
face $-1 $160 $161 $54 $-1 $162 reversed single #
loop $-1 $-1 $163 $69 #
plane-surface $-1 33.654053187636244 -2.4939643126951871 134.25536956593243 0 -1 0 -0.64278761758704617 0 -0.76604443648966558 forward_v I I I I #
face $-1 $164 $165 $55 $-1 $166 forward single #
loop $-1 $167 $168 $70 #
cone-surface $-1 42.269383222550523 -7.1234921973289786 9.6809710562799918 -0.64278761758704617 0 -0.76604443648966558 0.38302221824483279 0 -0.32139380879352308 1 I I 0 1 0.5 forward I I I I #
face $-1 $169 $170 $56 $-1 $171 forward single #
loop $-1 $172 $173 $71 #
cone-surface $-1 42.269383222550523 -4.3457754665487052 9.6809710562799918 -0.64278761758704617 0 -0.76604443648966558 0.38302221824483279 0 -0.32139380879352308 1 I I 0 1 0.5 forward I I I I #
face $-1 $174 $175 $57 $-1 $176 reversed single #
loop $-1 $-1 $177 $72 #
plane-surface $-1 33.654053187636244 10.588759396655647 134.25536956593243 0 -1 0 -0.64278761758704617 0 -0.76604443648966558 forward_v I I I I #
face $-1 $178 $179 $58 $-1 $180 forward single #
loop $-1 $181 $182 $73 #
cone-surface $-1 42.269383222550523 5.9592315120218515 9.6809710562799918 -0.64278761758704617 0 -0.76604443648966558 0.38302221824483279 0 -0.32139380879352308 1 I I 0 1 0.5 forward I I I I #
face $-1 $183 $184 $59 $-1 $185 forward single #
loop $-1 $186 $187 $74 #
cone-surface $-1 42.269383222550523 8.7369482428021286 9.6809710562799918 -0.64278761758704617 0 -0.76604443648966558 0.38302221824483279 0 -0.32139380879352308 1 I I 0 1 0.5 forward I I I I #
face $-1 $188 $189 $45 $-1 $190 reversed single #
loop $-1 $-1 $191 $75 #
plane-surface $-1 0 0 -11.818246166230482 0 0 1 1 0 0 forward_v I I I I #
coedge $-1 $192 $193 $194 $195 forward $76 $-1 #
face $-1 $196 $197 $46 $-1 $198 forward single #
loop $-1 $-1 $199 $78 #
plane-surface $-1 -44.664448988311413 0 0 1 0 0 0 0 -1 forward_v I I I I #
coedge $-1 $200 $201 $202 $203 forward $79 $-1 #
face $-1 $204 $205 $47 $-1 $206 reversed single #
loop $-1 $-1 $207 $81 #
plane-surface $-1 0 13.529535431987924 9.2121870923421678 0 1 0 0 0 1 forward_v I I I I #
coedge $-1 $208 $209 $210 $211 reversed $82 $-1 #
face $-1 $212 $213 $48 $-1 $214 reversed single #
loop $-1 $-1 $215 $84 #
plane-surface $-1 -44.664448988311406 -5.7346338319388401 8.405954741117867 -0.64278761758704617 0 0.76604443648966558 0.76604443648966558 0 0.64278761758704617 forward_v I I I I #
coedge $-1 $216 $217 $218 $219 reversed $85 $-1 #
face $-1 $-1 $220 $49 $-1 $221 forward single #
loop $-1 $222 $223 $87 #
cone-surface $-1 -41.746925792233569 -7.1234921973289786 9.0583305497634026 0.64278761758704617 0 -0.76604443648966558 0.1915111091224164 0 0.16069690439676154 1 I I -0.70710678118654746 0.70710678118654746 0.25 forward I I I I #
loop $-1 $-1 $224 $64 #
coedge $-1 $140 $140 $225 $226 reversed $88 $-1 #
face $-1 $-1 $227 $50 $-1 $228 forward single #
loop $-1 $229 $230 $90 #
cone-surface $-1 -41.746925792233569 -4.3457754665487052 9.0583305497634026 0.64278761758704617 0 -0.76604443648966558 0.1915111091224164 0 0.16069690439676154 1 I I -0.70710678118654746 0.70710678118654746 0.25 forward I I I I #
loop $-1 $-1 $231 $65 #
coedge $-1 $145 $145 $232 $233 reversed $91 $-1 #
face $-1 $234 $235 $51 $-1 $236 reversed single #
loop $-1 $-1 $237 $93 #
plane-surface $-1 -44.664448988311406 7.3480898774119936 8.405954741117867 -0.64278761758704617 0 0.76604443648966558 0.76604443648966558 0 0.64278761758704617 forward_v I I I I #
coedge $-1 $238 $239 $240 $241 reversed $94 $-1 #
face $-1 $-1 $242 $52 $-1 $243 forward single #
loop $-1 $244 $245 $96 #
cone-surface $-1 -41.746925792233569 5.9592315120218515 9.0583305497634026 0.64278761758704617 0 -0.76604443648966558 0.1915111091224164 0 0.16069690439676154 1 I I -0.70710678118654746 0.70710678118654746 0.25 forward I I I I #
loop $-1 $-1 $246 $67 #
coedge $-1 $154 $154 $247 $248 reversed $97 $-1 #
face $-1 $-1 $249 $53 $-1 $250 forward single #
loop $-1 $251 $252 $99 #
cone-surface $-1 -41.746925792233569 8.7369482428021286 9.0583305497634026 0.64278761758704617 0 -0.76604443648966558 0.1915111091224164 0 0.16069690439676154 1 I I -0.70710678118654746 0.70710678118654746 0.25 forward I I I I #
loop $-1 $-1 $253 $68 #
coedge $-1 $159 $159 $254 $255 reversed $100 $-1 #
face $-1 $256 $257 $54 $-1 $258 reversed single #
loop $-1 $-1 $259 $102 #
plane-surface $-1 -23.765456324433451 -5.7346338319388401 65.825464253187562 0.64278761758704617 0 0.76604443648966558 0.76604443648966558 0 -0.64278761758704617 forward_v I I I I #
coedge $-1 $260 $261 $262 $263 reversed $103 $-1 #
face $-1 $-1 $264 $55 $-1 $265 forward single #
loop $-1 $266 $267 $105 #
cone-surface $-1 41.746925792233561 -7.1234921973289786 9.0583305497633955 -0.64278761758704617 0 -0.76604443648966558 0.1915111091224164 0 -0.16069690439676154 1 I I -0.70710678118654746 0.70710678118654746 0.25 forward I I I I #
loop $-1 $-1 $268 $70 #
coedge $-1 $168 $168 $269 $270 reversed $106 $-1 #
face $-1 $-1 $271 $56 $-1 $272 forward single #
loop $-1 $273 $274 $108 #
cone-surface $-1 41.746925792233561 -4.3457754665487052 9.0583305497633955 -0.64278761758704617 0 -0.76604443648966558 0.1915111091224164 0 -0.16069690439676154 1 I I -0.70710678118654746 0.70710678118654746 0.25 forward I I I I #
loop $-1 $-1 $275 $71 #
coedge $-1 $173 $173 $276 $277 reversed $109 $-1 #
face $-1 $278 $279 $57 $-1 $280 reversed single #
loop $-1 $-1 $281 $111 #
plane-surface $-1 -23.765456324433451 7.3480898774119936 65.825464253187562 0.64278761758704617 0 0.76604443648966558 0.76604443648966558 0 -0.64278761758704617 forward_v I I I I #
coedge $-1 $282 $283 $284 $285 reversed $112 $-1 #
face $-1 $-1 $286 $58 $-1 $287 forward single #
loop $-1 $288 $289 $114 #
cone-surface $-1 41.746925792233561 5.9592315120218515 9.0583305497633955 -0.64278761758704617 0 -0.76604443648966558 0.1915111091224164 0 -0.16069690439676154 1 I I -0.70710678118654746 0.70710678118654746 0.25 forward I I I I #
loop $-1 $-1 $290 $73 #
coedge $-1 $182 $182 $291 $292 reversed $115 $-1 #
face $-1 $-1 $293 $59 $-1 $294 forward single #
loop $-1 $295 $296 $117 #
cone-surface $-1 41.746925792233561 8.7369482428021286 9.0583305497633955 -0.64278761758704617 0 -0.76604443648966558 0.1915111091224164 0 -0.16069690439676154 1 I I -0.70710678118654746 0.70710678118654746 0.25 forward I I I I #
loop $-1 $-1 $297 $74 #
coedge $-1 $187 $187 $298 $299 reversed $118 $-1 #
face $-1 $300 $301 $45 $-1 $302 reversed single #
loop $-1 $-1 $303 $120 #
plane-surface $-1 0 -24.035681078545267 0 0 1 0 0 0 1 forward_v I I I I #
coedge $-1 $304 $305 $306 $307 forward $121 $-1 #
coedge $-1 $308 $123 $309 $310 forward $76 $-1 #
coedge $-1 $123 $308 $311 $312 forward $76 $-1 #
coedge $-1 $313 $314 $123 $195 reversed $315 $-1 #
edge $-1 $316 -24.035681078545267 $317 24.035681078545267 $194 $318 forward 7 unknown #
face $-1 $319 $320 $46 $-1 $321 reversed single #
loop $-1 $-1 $322 $124 #
plane-surface $-1 0 -29.735565624461032 8.4260211221267998 0 0 1 1 0 0 forward_v I I I I #
coedge $-1 $323 $324 $201 $325 forward $125 $-1 #
coedge $-1 $326 $127 $327 $328 reversed $79 $-1 #
coedge $-1 $127 $326 $199 $325 reversed $79 $-1 #
coedge $-1 $329 $322 $127 $203 reversed $197 $-1 #
edge $-1 $330 -44.664448988311413 $331 44.664448988311413 $202 $332 forward 7 unknown #
face $-1 $333 $334 $47 $-1 $335 reversed single #
loop $-1 $-1 $336 $128 #
plane-surface $-1 44.664448988311413 0 0 -1 0 0 0 0 1 forward_v I I I I #
coedge $-1 $337 $338 $339 $340 reversed $129 $-1 #
coedge $-1 $341 $131 $337 $342 forward $82 $-1 #
coedge $-1 $131 $341 $343 $344 reversed $82 $-1 #
coedge $-1 $345 $336 $131 $211 forward $205 $-1 #
edge $-1 $346 4.1382313043546262 $347 14.644376950911969 $210 $348 forward 7 unknown #
face $-1 $349 $350 $48 $-1 $351 reversed single #
loop $-1 $-1 $352 $132 #
plane-surface $-1 -102.0839585003811 -2.4939643126951871 76.835860053862731 0 -1 0 0.64278761758704617 0 -0.76604443648966558 forward_v I I I I #
coedge $-1 $353 $354 $355 $356 reversed $133 $-1 #
coedge $-1 $217 $135 $357 $358 reversed $85 $-1 #
coedge $-1 $135 $216 $353 $359 reversed $85 $-1 #
coedge $-1 $355 $360 $135 $219 forward $361 $-1 #
edge $-1 $362 6.3775302618791372 $363 10.444140741560524 $218 $364 forward 7 unknown #
loop $-1 $-1 $225 $136 #
plane-surface $-1 -44.664448988311406 -5.7346338319388401 8.405954741117867 -0.64278761758704617 0 0.76604443648966558 0.76604443648966558 0 0.64278761758704617 forward_v I I I I #
loop $-1 $-1 $365 $87 #
coedge $-1 $223 $223 $224 $366 reversed $137 $-1 #
coedge $-1 $224 $224 $223 $366 forward $139 $-1 #
coedge $-1 $225 $225 $140 $226 forward $220 $-1 #
edge $-1 $367 0 $367 6.2831853071796004 $225 $368 forward 7 unknown #
loop $-1 $-1 $232 $141 #
plane-surface $-1 -44.664448988311406 -5.7346338319388401 8.405954741117867 -0.64278761758704617 0 0.76604443648966558 0.76604443648966558 0 0.64278761758704617 forward_v I I I I #
loop $-1 $-1 $369 $90 #
coedge $-1 $230 $230 $231 $370 reversed $142 $-1 #
coedge $-1 $231 $231 $230 $370 forward $144 $-1 #
coedge $-1 $232 $232 $145 $233 forward $227 $-1 #
edge $-1 $371 0 $371 6.2831853071796004 $232 $372 forward 7 unknown #
face $-1 $373 $374 $51 $-1 $375 forward single #
loop $-1 $-1 $376 $146 #
plane-surface $-1 -102.0839585003811 10.588759396655647 76.835860053862731 0 -1 0 0.64278761758704617 0 -0.76604443648966558 forward_v I I I I #
coedge $-1 $377 $378 $379 $380 reversed $147 $-1 #
coedge $-1 $239 $149 $381 $382 reversed $94 $-1 #
coedge $-1 $149 $238 $377 $383 reversed $94 $-1 #
coedge $-1 $379 $384 $149 $241 forward $374 $-1 #
edge $-1 $385 6.3775302618791372 $386 10.444140741560524 $240 $387 forward 7 unknown #
loop $-1 $-1 $247 $150 #
plane-surface $-1 -44.664448988311406 7.3480898774119936 8.405954741117867 -0.64278761758704617 0 0.76604443648966558 0.76604443648966558 0 0.64278761758704617 forward_v I I I I #
loop $-1 $-1 $388 $96 #
coedge $-1 $245 $245 $246 $389 reversed $151 $-1 #
coedge $-1 $246 $246 $245 $389 forward $153 $-1 #
coedge $-1 $247 $247 $154 $248 forward $242 $-1 #
edge $-1 $390 0 $390 6.2831853071796004 $247 $391 forward 7 unknown #
loop $-1 $-1 $254 $155 #
plane-surface $-1 -44.664448988311406 7.3480898774119936 8.405954741117867 -0.64278761758704617 0 0.76604443648966558 0.76604443648966558 0 0.64278761758704617 forward_v I I I I #
loop $-1 $-1 $392 $99 #
coedge $-1 $252 $252 $253 $393 reversed $156 $-1 #
coedge $-1 $253 $253 $252 $393 forward $158 $-1 #
coedge $-1 $254 $254 $159 $255 forward $249 $-1 #
edge $-1 $394 0 $394 6.2831853071796004 $254 $395 forward 7 unknown #
face $-1 $396 $397 $54 $-1 $398 forward single #
loop $-1 $-1 $399 $160 #
plane-surface $-1 33.654053187636244 -8.9753033511824931 134.25536956593243 0 1 0 0.64278761758704617 0 0.76604443648966558 forward_v I I I I #
coedge $-1 $400 $401 $402 $403 reversed $161 $-1 #
coedge $-1 $261 $163 $404 $405 reversed $103 $-1 #
coedge $-1 $163 $260 $400 $406 reversed $103 $-1 #
coedge $-1 $402 $407 $163 $263 forward $397 $-1 #
edge $-1 $408 -27.837422394493291 $409 -23.770811914811905 $262 $410 forward 7 unknown #
loop $-1 $-1 $269 $164 #
plane-surface $-1 -23.765456324433451 -5.7346338319388401 65.825464253187562 0.64278761758704617 0 0.76604443648966558 0.76604443648966558 0 -0.64278761758704617 forward_v I I I I #
loop $-1 $-1 $411 $105 #
coedge $-1 $267 $267 $268 $412 reversed $165 $-1 #
coedge $-1 $268 $268 $267 $412 forward $167 $-1 #
coedge $-1 $269 $269 $168 $270 forward $264 $-1 #
edge $-1 $413 0 $413 6.2831853071796004 $269 $414 forward 7 unknown #
loop $-1 $-1 $276 $169 #
plane-surface $-1 -23.765456324433451 -5.7346338319388401 65.825464253187562 0.64278761758704617 0 0.76604443648966558 0.76604443648966558 0 -0.64278761758704617 forward_v I I I I #
loop $-1 $-1 $415 $108 #
coedge $-1 $274 $274 $275 $416 reversed $170 $-1 #
coedge $-1 $275 $275 $274 $416 forward $172 $-1 #
coedge $-1 $276 $276 $173 $277 forward $271 $-1 #
edge $-1 $417 0 $417 6.2831853071796004 $276 $418 forward 7 unknown #
face $-1 $419 $420 $57 $-1 $421 reversed single #
loop $-1 $-1 $422 $174 #
plane-surface $-1 33.654053187636244 4.1074203581683406 134.25536956593243 0 1 0 0.64278761758704617 0 0.76604443648966558 forward_v I I I I #
coedge $-1 $423 $424 $425 $426 reversed $175 $-1 #
coedge $-1 $283 $177 $427 $428 reversed $112 $-1 #
coedge $-1 $177 $282 $423 $429 reversed $112 $-1 #
coedge $-1 $425 $430 $177 $285 forward $431 $-1 #
edge $-1 $432 -27.837422394493291 $433 -23.770811914811905 $284 $434 forward 7 unknown #
loop $-1 $-1 $291 $178 #
plane-surface $-1 -23.765456324433451 7.3480898774119936 65.825464253187562 0.64278761758704617 0 0.76604443648966558 0.76604443648966558 0 -0.64278761758704617 forward_v I I I I #
loop $-1 $-1 $435 $114 #
coedge $-1 $289 $289 $290 $436 reversed $179 $-1 #
coedge $-1 $290 $290 $289 $436 forward $181 $-1 #
coedge $-1 $291 $291 $182 $292 forward $286 $-1 #
edge $-1 $437 0 $437 6.2831853071796004 $291 $438 forward 7 unknown #
loop $-1 $-1 $298 $183 #
plane-surface $-1 -23.765456324433451 7.3480898774119936 65.825464253187562 0.64278761758704617 0 0.76604443648966558 0.76604443648966558 0 -0.64278761758704617 forward_v I I I I #
loop $-1 $-1 $439 $117 #
coedge $-1 $296 $296 $297 $440 reversed $184 $-1 #
coedge $-1 $297 $297 $296 $440 forward $186 $-1 #
coedge $-1 $298 $298 $187 $299 forward $293 $-1 #
edge $-1 $441 0 $441 6.2831853071796004 $298 $442 forward 7 unknown #
face $-1 $443 $444 $45 $-1 $445 reversed single #
loop $-1 $-1 $446 $188 #
plane-surface $-1 -44.664448988311413 0 0 1 0 0 0 0 -1 forward_v I I I I #
coedge $-1 $447 $311 $448 $449 forward $189 $-1 #
coedge $-1 $450 $191 $447 $451 forward $121 $-1 #
coedge $-1 $191 $450 $452 $453 forward $121 $-1 #
coedge $-1 $314 $313 $191 $307 reversed $315 $-1 #
edge $-1 $454 -24.035681078545267 $455 24.035681078545267 $306 $456 forward 7 unknown #
coedge $-1 $193 $192 $457 $458 forward $76 $-1 #
coedge $-1 $459 $460 $192 $310 reversed $444 $-1 #
edge $-1 $317 -44.664448988311413 $461 44.664448988311413 $309 $462 forward 7 unknown #
coedge $-1 $303 $463 $193 $312 reversed $189 $-1 #
edge $-1 $464 -44.664448988311413 $316 44.664448988311413 $311 $465 forward 7 unknown #
coedge $-1 $306 $194 $463 $466 forward $315 $-1 #
coedge $-1 $194 $306 $459 $467 reversed $315 $-1 #
loop $-1 $-1 $313 $443 #
vertex $-1 $195 $468 #
vertex $-1 $195 $469 #
straight-curve $-1 44.664448988311413 0 11.818246166230482 0 1 0 I I #
face $-1 $470 $471 $46 $-1 $472 reversed single #
loop $-1 $-1 $473 $196 #
plane-surface $-1 0 -29.735565624461032 3.3801021330586014 0 0 1 1 0 0 forward_v I I I I #
coedge $-1 $202 $474 $475 $476 forward $197 $-1 #
coedge $-1 $477 $199 $478 $479 reversed $125 $-1 #
coedge $-1 $199 $477 $329 $480 reversed $125 $-1 #
edge $-1 $330 -8.4260211221267998 $481 -3.3801021330586014 $199 $482 forward 7 unknown #
coedge $-1 $201 $200 $483 $484 forward $79 $-1 #
coedge $-1 $475 $485 $200 $328 forward $486 $-1 #
edge $-1 $487 3.3801021330586014 $331 8.4260211221267998 $327 $488 forward 7 unknown #
coedge $-1 $474 $202 $324 $480 forward $197 $-1 #
vertex $-1 $325 $489 #
vertex $-1 $476 $490 #
straight-curve $-1 0 -24.035681078545267 8.4260211221267998 1 0 0 I I #
face $-1 $491 $492 $47 $-1 $493 forward single #
loop $-1 $-1 $343 $204 #
plane-surface $-1 0 24.035681078545267 0 0 -1 0 0 0 -1 forward_v I I I I #
coedge $-1 $210 $494 $495 $496 forward $205 $-1 #
coedge $-1 $495 $207 $208 $342 reversed $129 $-1 #
coedge $-1 $207 $495 $497 $498 reversed $129 $-1 #
coedge $-1 $499 $500 $207 $340 forward $501 $-1 #
edge $-1 $502 2.0000344722827714 $503 7.2121526200593964 $339 $504 forward 7 unknown #
coedge $-1 $209 $208 $500 $505 reversed $82 $-1 #
edge $-1 $346 -44.664448988311413 $502 44.664448988311413 $337 $506 forward 7 unknown #
coedge $-1 $507 $508 $209 $344 forward $334 $-1 #
edge $-1 $347 -44.664448988311413 $509 44.664448988311413 $343 $510 forward 7 unknown #
coedge $-1 $494 $210 $508 $511 reversed $205 $-1 #
vertex $-1 $211 $512 #
vertex $-1 $344 $513 #
straight-curve $-1 44.664448988311413 9.3913041276332976 6.6061280184538553 0 1 0 I I #
face $-1 $-1 $361 $48 $-1 $514 forward single #
loop $-1 $-1 $515 $212 #
plane-surface $-1 -44.664448988311413 0 0 1 0 0 0 0 -1 forward_v I I I I #
coedge $-1 $516 $517 $518 $519 reversed $213 $-1 #
coedge $-1 $520 $215 $217 $359 forward $133 $-1 #
coedge $-1 $215 $520 $516 $521 forward $133 $-1 #
coedge $-1 $518 $218 $215 $356 forward $361 $-1 #
edge $-1 $363 -6.1079864352130731 $522 0.37335260327423292 $355 $523 forward 7 unknown #
coedge $-1 $524 $525 $216 $358 forward $350 $-1 #
edge $-1 $526 -30.011975285813506 $362 -26.599683860700885 $357 $527 forward 7 unknown #
edge $-1 $363 -5.3085830089913353 $526 8.8685336385193395e-015 $217 $528 forward 7 unknown #
coedge $-1 $218 $518 $524 $529 forward $361 $-1 #
loop $-1 $-1 $518 $349 #
vertex $-1 $358 $530 #
vertex $-1 $219 $531 #
straight-curve $-1 -51.04197925019055 -8.9753033511824931 11.81824616623048 1 0 0 I I #
coedge $-1 $365 $365 $-1 $532 reversed $222 $-1 #
edge $-1 $533 0 $533 6.2831853071796004 $223 $534 forward 7 unknown #
vertex $-1 $226 $535 #
ellipse-curve $-1 -42.63114374847072 -7.1234921973289786 10.11210045367417 -0.64278761758704617 0 0.76604443648966558 0.38302221824483279 0 0.32139380879352308 1 I I #
coedge $-1 $369 $369 $-1 $536 reversed $229 $-1 #
edge $-1 $537 0 $537 6.2831853071796004 $230 $538 forward 7 unknown #
vertex $-1 $233 $539 #
ellipse-curve $-1 -42.63114374847072 -4.3457754665487052 10.11210045367417 -0.64278761758704617 0 0.76604443648966558 0.38302221824483279 0 0.32139380879352308 1 I I #
face $-1 $-1 $540 $51 $-1 $541 reversed single #
loop $-1 $-1 $240 $234 #
plane-surface $-1 0 0 11.818246166230482 0 0 1 1 0 0 forward_v I I I I #
coedge $-1 $542 $543 $544 $545 reversed $235 $-1 #
coedge $-1 $546 $237 $239 $383 forward $147 $-1 #
coedge $-1 $237 $546 $542 $547 forward $147 $-1 #
coedge $-1 $544 $240 $237 $380 forward $374 $-1 #
edge $-1 $386 0.43337541946234381 $548 6.9147144579496498 $379 $549 forward 7 unknown #
coedge $-1 $550 $551 $238 $382 forward $540 $-1 #
edge $-1 $552 -30.011975285813506 $385 -26.599683860700885 $381 $553 forward 7 unknown #
edge $-1 $386 -5.3085830089913353 $552 8.8685336385193395e-015 $239 $554 forward 7 unknown #
coedge $-1 $240 $544 $550 $555 forward $374 $-1 #
vertex $-1 $241 $556 #
vertex $-1 $241 $557 #
straight-curve $-1 -51.04197925019055 4.1074203581683406 11.81824616623048 1 0 0 I I #
coedge $-1 $388 $388 $-1 $558 reversed $244 $-1 #
edge $-1 $559 0 $559 6.2831853071796004 $245 $560 forward 7 unknown #
vertex $-1 $248 $561 #
ellipse-curve $-1 -42.63114374847072 5.9592315120218515 10.11210045367417 -0.64278761758704617 0 0.76604443648966558 0.38302221824483279 0 0.32139380879352308 1 I I #
coedge $-1 $392 $392 $-1 $562 reversed $251 $-1 #
edge $-1 $563 0 $563 6.2831853071796004 $252 $564 forward 7 unknown #
vertex $-1 $255 $565 #
ellipse-curve $-1 -42.63114374847072 8.7369482428021286 10.11210045367417 -0.64278761758704617 0 0.76604443648966558 0.38302221824483279 0 0.32139380879352308 1 I I #
face $-1 $-1 $566 $54 $-1 $567 reversed single #
loop $-1 $-1 $262 $256 #
plane-surface $-1 0 0 11.818246166230482 0 0 1 1 0 0 forward_v I I I I #
coedge $-1 $568 $569 $570 $571 reversed $257 $-1 #
coedge $-1 $572 $259 $261 $406 forward $161 $-1 #
coedge $-1 $259 $572 $568 $573 forward $161 $-1 #
coedge $-1 $570 $262 $259 $403 forward $397 $-1 #
edge $-1 $409 -0.37335260327423292 $574 6.1079864352130731 $402 $575 forward 7 unknown #
coedge $-1 $576 $577 $260 $405 forward $566 $-1 #
edge $-1 $578 -58.721730041848346 $408 -55.309438616735733 $404 $579 forward 7 unknown #
edge $-1 $409 84.020314967631492 $578 89.328897976622827 $261 $580 forward 7 unknown #
coedge $-1 $262 $570 $576 $581 forward $397 $-1 #
vertex $-1 $405 $582 #
vertex $-1 $263 $583 #
straight-curve $-1 16.827026593818122 -2.4939643126951871 11.81824616623048 -1 0 0 I I #
coedge $-1 $411 $411 $-1 $584 reversed $266 $-1 #
edge $-1 $585 0 $585 6.2831853071796004 $267 $586 forward 7 unknown #
vertex $-1 $270 $587 #
ellipse-curve $-1 42.63114374847072 -7.1234921973289786 10.112100453674168 0.64278761758704617 0 0.76604443648966558 0.38302221824483279 0 -0.32139380879352308 1 I I #
coedge $-1 $415 $415 $-1 $588 reversed $273 $-1 #
edge $-1 $589 0 $589 6.2831853071796004 $274 $590 forward 7 unknown #
vertex $-1 $277 $591 #
ellipse-curve $-1 42.63114374847072 -4.3457754665487052 10.112100453674168 0.64278761758704617 0 0.76604443648966558 0.38302221824483279 0 -0.32139380879352308 1 I I #
face $-1 $-1 $431 $57 $-1 $592 forward single #
loop $-1 $-1 $593 $278 #
plane-surface $-1 44.664448988311413 0 0 -1 0 0 0 0 1 forward_v I I I I #
coedge $-1 $594 $595 $596 $597 reversed $279 $-1 #
coedge $-1 $598 $281 $283 $429 forward $175 $-1 #
coedge $-1 $281 $598 $594 $599 forward $175 $-1 #
coedge $-1 $596 $284 $281 $426 forward $431 $-1 #
edge $-1 $433 -6.9147144579496498 $600 -0.43337541946234381 $425 $601 forward 7 unknown #
coedge $-1 $602 $603 $282 $428 forward $420 $-1 #
edge $-1 $604 -58.721730041848346 $432 -55.309438616735733 $427 $605 forward 7 unknown #
edge $-1 $433 84.020314967631492 $604 89.328897976622827 $283 $606 forward 7 unknown #
coedge $-1 $284 $596 $602 $607 forward $431 $-1 #
loop $-1 $-1 $596 $419 #
vertex $-1 $428 $608 #
vertex $-1 $285 $609 #
straight-curve $-1 16.827026593818122 10.588759396655647 11.81824616623048 -1 0 0 I I #
coedge $-1 $435 $435 $-1 $610 reversed $288 $-1 #
edge $-1 $611 0 $611 6.2831853071796004 $289 $612 forward 7 unknown #
vertex $-1 $292 $613 #
ellipse-curve $-1 42.63114374847072 5.9592315120218515 10.112100453674168 0.64278761758704617 0 0.76604443648966558 0.38302221824483279 0 -0.32139380879352308 1 I I #
coedge $-1 $439 $439 $-1 $614 reversed $295 $-1 #
edge $-1 $615 0 $615 6.2831853071796004 $296 $616 forward 7 unknown #
vertex $-1 $299 $617 #
ellipse-curve $-1 42.63114374847072 8.7369482428021286 10.112100453674168 0.64278761758704617 0 0.76604443648966558 0.38302221824483279 0 -0.32139380879352308 1 I I #
face $-1 $-1 $315 $45 $-1 $618 reversed single #
loop $-1 $-1 $459 $300 #
plane-surface $-1 0 24.035681078545267 0 0 -1 0 0 0 -1 forward_v I I I I #
coedge $-1 $619 $457 $460 $620 forward $301 $-1 #
coedge $-1 $463 $303 $304 $451 reversed $189 $-1 #
coedge $-1 $457 $619 $303 $449 reversed $301 $-1 #
edge $-1 $464 -11.818246166230482 $621 11.818246166230482 $448 $622 forward 7 unknown #
coedge $-1 $305 $304 $619 $623 forward $121 $-1 #
edge $-1 $455 -44.664448988311413 $621 44.664448988311413 $447 $624 forward 7 unknown #
coedge $-1 $460 $459 $305 $453 reversed $444 $-1 #
edge $-1 $625 -44.664448988311413 $454 44.664448988311413 $452 $626 forward 7 unknown #
vertex $-1 $307 $627 #
vertex $-1 $466 $628 #
straight-curve $-1 44.664448988311413 0 -11.818246166230482 0 -1 0 I I #
coedge $-1 $446 $448 $308 $458 reversed $301 $-1 #
edge $-1 $461 -24.035681078545267 $464 24.035681078545267 $457 $629 forward 7 unknown #
coedge $-1 $452 $309 $314 $467 forward $444 $-1 #
coedge $-1 $309 $452 $446 $620 reversed $444 $-1 #
vertex $-1 $310 $630 #
straight-curve $-1 0 24.035681078545267 11.818246166230482 -1 0 0 I I #
coedge $-1 $311 $447 $313 $466 reversed $189 $-1 #
vertex $-1 $458 $631 #
straight-curve $-1 0 -24.035681078545267 11.818246166230482 1 0 0 I I #
edge $-1 $316 -11.818246166230482 $455 11.818246166230482 $313 $632 forward 7 unknown #
edge $-1 $317 -11.818246166230482 $454 11.818246166230482 $314 $633 forward 7 unknown #
point $-1 44.664448988311413 -24.035681078545267 11.818246166230482 #
point $-1 44.664448988311413 24.035681078545267 11.818246166230482 #
face $-1 $-1 $486 $46 $-1 $634 reversed single #
loop $-1 $-1 $635 $319 #
plane-surface $-1 0 -35.435450170376797 5.9030616275927006 0 1 0 0 0 1 forward_v I I I I #
coedge $-1 $636 $483 $485 $637 forward $320 $-1 #
coedge $-1 $322 $329 $638 $639 forward $197 $-1 #
coedge $-1 $640 $327 $322 $476 reversed $486 $-1 #
edge $-1 $641 -5.699884545915765 $331 5.699884545915765 $475 $642 forward 7 unknown #
coedge $-1 $324 $323 $635 $643 reversed $125 $-1 #
coedge $-1 $483 $636 $323 $479 forward $320 $-1 #
edge $-1 $644 -5.699884545915765 $481 5.699884545915765 $323 $645 forward 7 unknown #
edge $-1 $330 -5.699884545915765 $646 5.699884545915765 $324 $647 forward 7 unknown #
vertex $-1 $325 $648 #
straight-curve $-1 -44.664448988311413 -24.035681078545267 0 0 0 -1 I I #
coedge $-1 $473 $478 $326 $484 reversed $320 $-1 #
edge $-1 $487 -44.664448988311413 $481 44.664448988311413 $483 $649 forward 7 unknown #
coedge $-1 $327 $640 $473 $637 reversed $486 $-1 #
loop $-1 $-1 $327 $470 #
vertex $-1 $328 $650 #
straight-curve $-1 44.664448988311413 -24.035681078545267 0 0 0 1 I I #
point $-1 -44.664448988311413 -24.035681078545267 8.4260211221267998 #
point $-1 44.664448988311413 -24.035681078545267 8.4260211221267998 #
face $-1 $-1 $501 $47 $-1 $651 reversed single #
loop $-1 $-1 $497 $333 #
plane-surface $-1 0 0 11.818246166230482 0 0 1 1 0 0 forward_v I I I I #
coedge $-1 $336 $345 $652 $653 reversed $205 $-1 #
coedge $-1 $338 $337 $336 $496 reversed $129 $-1 #
edge $-1 $654 -7.2121526200593964 $346 -2.0000344722827714 $336 $655 forward 7 unknown #
coedge $-1 $652 $656 $338 $498 forward $492 $-1 #
edge $-1 $503 -44.664448988311413 $654 44.664448988311413 $497 $657 forward 7 unknown #
coedge $-1 $658 $339 $656 $659 reversed $501 $-1 #
coedge $-1 $339 $658 $341 $505 forward $501 $-1 #
loop $-1 $-1 $339 $491 #
vertex $-1 $505 $660 #
vertex $-1 $340 $661 #
straight-curve $-1 -44.664448988311413 13.529535431987924 4.6060935461710839 0 0 1 I I #
edge $-1 $509 -14.644376950911969 $502 -4.1382313043546262 $500 $662 forward 7 unknown #
straight-curve $-1 0 13.529535431987924 6.6061280184538553 -1 0 0 I I #
coedge $-1 $663 $343 $658 $664 reversed $334 $-1 #
coedge $-1 $343 $663 $345 $511 forward $334 $-1 #
vertex $-1 $344 $665 #
straight-curve $-1 0 24.035681078545267 6.6061280184538553 -1 0 0 I I #
edge $-1 $666 -11.818246166230482 $347 -6.6061280184538553 $345 $667 forward 7 unknown #
point $-1 44.664448988311413 13.529535431987924 6.6061280184538553 #
point $-1 44.664448988311413 24.035681078545267 6.6061280184538553 #
plane-surface $-1 0 0 11.818246166230482 0 0 1 1 0 0 forward_v I I I I #
coedge $-1 $525 $524 $517 $668 forward $350 $-1 #
coedge $-1 $517 $352 $354 $521 reversed $213 $-1 #
coedge $-1 $352 $516 $515 $668 reversed $213 $-1 #
coedge $-1 $360 $355 $352 $519 forward $361 $-1 #
edge $-1 $522 -10.444140741560524 $669 -6.3775302618791372 $518 $670 forward 7 unknown #
coedge $-1 $354 $353 $525 $671 reversed $133 $-1 #
edge $-1 $672 -8.8685336385193395e-015 $522 5.3085830089913353 $516 $673 forward 7 unknown #
vertex $-1 $356 $674 #
straight-curve $-1 -40.597838508630019 -2.8673169159694201 11.818246166230482 0 1 0 I I #
coedge $-1 $515 $357 $360 $529 reversed $350 $-1 #
coedge $-1 $357 $515 $520 $671 forward $350 $-1 #
vertex $-1 $358 $675 #
straight-curve $-1 -44.664448988311413 -8.9753033511824931 38.417930026931366 0 0 1 I I #
straight-curve $-1 -44.664448988311406 -8.9753033511824931 8.405954741117867 -0.76604443648966558 0 -0.64278761758704617 I I #
edge $-1 $669 2.4939643126951871 $362 8.9753033511824931 $524 $676 forward 7 unknown #
point $-1 -44.664448988311413 -8.9753033511824931 11.818246166230482 #
point $-1 -40.597838508630026 -8.9753033511824931 11.818246166230482 #
edge $-1 $677 1 $677 0 $365 $-1 forward 7 unknown #
vertex $-1 $366 $678 #
ellipse-curve $-1 -41.907622696630327 -7.1234921973289786 9.2498416588858188 -0.64278761758704617 0 0.76604443648966558 0.38302221824483279 0 0.32139380879352308 1 I I #
point $-1 -42.248121530225895 -7.1234921973289786 10.433494262467701 #
edge $-1 $679 1 $679 0 $369 $-1 forward 7 unknown #
vertex $-1 $370 $680 #
ellipse-curve $-1 -41.907622696630327 -4.3457754665487052 9.2498416588858188 -0.64278761758704617 0 0.76604443648966558 0.38302221824483279 0 0.32139380879352308 1 I I #
point $-1 -42.248121530225895 -4.3457754665487052 10.433494262467701 #
loop $-1 $-1 $381 $373 #
plane-surface $-1 -44.664448988311413 0 0 1 0 0 0 0 -1 forward_v I I I I #
coedge $-1 $543 $376 $378 $547 reversed $235 $-1 #
coedge $-1 $376 $542 $681 $682 reversed $235 $-1 #
coedge $-1 $384 $379 $376 $545 forward $374 $-1 #
edge $-1 $548 -10.444140741560524 $683 -6.3775302618791372 $544 $684 forward 7 unknown #
coedge $-1 $378 $377 $551 $685 reversed $147 $-1 #
edge $-1 $686 -8.8685336385193395e-015 $548 5.3085830089913353 $542 $687 forward 7 unknown #
vertex $-1 $380 $688 #
straight-curve $-1 -40.597838508630019 3.6740449387059968 11.818246166230482 0 1 0 I I #
coedge $-1 $681 $381 $384 $555 reversed $540 $-1 #
coedge $-1 $381 $681 $546 $685 forward $540 $-1 #
vertex $-1 $382 $689 #
straight-curve $-1 -44.664448988311413 4.1074203581683406 38.417930026931366 0 0 1 I I #
straight-curve $-1 -44.664448988311406 4.1074203581683406 8.405954741117867 -0.76604443648966558 0 -0.64278761758704617 I I #
edge $-1 $683 -10.588759396655647 $385 -4.1074203581683406 $550 $690 forward 7 unknown #
point $-1 -44.664448988311413 4.1074203581683406 11.818246166230482 #
point $-1 -40.597838508630026 4.1074203581683406 11.818246166230482 #
edge $-1 $691 1 $691 0 $388 $-1 forward 7 unknown #
vertex $-1 $389 $692 #
ellipse-curve $-1 -41.907622696630327 5.9592315120218515 9.2498416588858188 -0.64278761758704617 0 0.76604443648966558 0.38302221824483279 0 0.32139380879352308 1 I I #
point $-1 -42.248121530225895 5.9592315120218515 10.433494262467701 #
edge $-1 $693 1 $693 0 $392 $-1 forward 7 unknown #
vertex $-1 $393 $694 #
ellipse-curve $-1 -41.907622696630327 8.7369482428021286 9.2498416588858188 -0.64278761758704617 0 0.76604443648966558 0.38302221824483279 0 0.32139380879352308 1 I I #
point $-1 -42.248121530225895 8.7369482428021286 10.433494262467701 #
loop $-1 $-1 $404 $396 #
plane-surface $-1 44.664448988311413 0 0 -1 0 0 0 0 1 forward_v I I I I #
coedge $-1 $569 $399 $401 $573 reversed $257 $-1 #
coedge $-1 $399 $568 $695 $696 reversed $257 $-1 #
coedge $-1 $407 $402 $399 $571 forward $397 $-1 #
edge $-1 $574 23.770811914811905 $697 27.837422394493291 $570 $698 forward 7 unknown #
coedge $-1 $401 $400 $577 $699 reversed $161 $-1 #
edge $-1 $700 -89.328897976622827 $574 -84.020314967631492 $568 $701 forward 7 unknown #
vertex $-1 $403 $702 #
straight-curve $-1 40.597838508630019 -2.8673169159694201 11.81824616623048 0 -1 0 I I #
coedge $-1 $695 $404 $407 $581 reversed $566 $-1 #
coedge $-1 $404 $695 $572 $699 forward $566 $-1 #
vertex $-1 $405 $703 #
straight-curve $-1 44.664448988311413 -2.4939643126951871 67.127684782966213 0 0 1 I I #
straight-curve $-1 -23.765456324433451 -2.4939643126951871 65.825464253187562 0.76604443648966558 0 -0.64278761758704617 I I #
edge $-1 $697 -8.9753033511824931 $408 -2.4939643126951871 $576 $704 forward 7 unknown #
point $-1 44.664448988311413 -2.4939643126951871 11.818246166230482 #
point $-1 40.597838508630026 -2.4939643126951871 11.81824616623048 #
edge $-1 $705 1 $705 0 $411 $-1 forward 7 unknown #
vertex $-1 $412 $706 #
ellipse-curve $-1 41.90762269663032 -7.1234921973289786 9.2498416588858117 0.64278761758704617 0 0.76604443648966558 0.38302221824483279 0 -0.32139380879352308 1 I I #
point $-1 43.014165966715552 -7.1234921973289786 9.7907066448806468 #
edge $-1 $707 1 $707 0 $415 $-1 forward 7 unknown #
vertex $-1 $416 $708 #
ellipse-curve $-1 41.90762269663032 -4.3457754665487052 9.2498416588858117 0.64278761758704617 0 0.76604443648966558 0.38302221824483279 0 -0.32139380879352308 1 I I #
point $-1 43.014165966715552 -4.3457754665487052 9.7907066448806468 #
plane-surface $-1 0 0 11.818246166230482 0 0 1 1 0 0 forward_v I I I I #
coedge $-1 $603 $602 $595 $709 forward $420 $-1 #
coedge $-1 $595 $422 $424 $599 reversed $279 $-1 #
coedge $-1 $422 $594 $593 $709 reversed $279 $-1 #
coedge $-1 $430 $425 $422 $597 forward $431 $-1 #
edge $-1 $600 23.770811914811905 $710 27.837422394493291 $596 $711 forward 7 unknown #
coedge $-1 $424 $423 $603 $712 reversed $175 $-1 #
edge $-1 $713 -89.328897976622827 $600 -84.020314967631492 $594 $714 forward 7 unknown #
vertex $-1 $426 $715 #
straight-curve $-1 40.597838508630019 3.6740449387059968 11.81824616623048 0 -1 0 I I #
coedge $-1 $593 $427 $430 $607 reversed $420 $-1 #
coedge $-1 $427 $593 $598 $712 forward $420 $-1 #
vertex $-1 $428 $716 #
straight-curve $-1 44.664448988311413 10.588759396655647 67.127684782966213 0 0 1 I I #
straight-curve $-1 -23.765456324433451 10.588759396655647 65.825464253187562 0.76604443648966558 0 -0.64278761758704617 I I #
edge $-1 $710 4.1074203581683406 $432 10.588759396655647 $602 $717 forward 7 unknown #
point $-1 44.664448988311413 10.588759396655647 11.818246166230482 #
point $-1 40.597838508630026 10.588759396655647 11.81824616623048 #
edge $-1 $718 1 $718 0 $435 $-1 forward 7 unknown #
vertex $-1 $436 $719 #
ellipse-curve $-1 41.90762269663032 5.9592315120218515 9.2498416588858117 0.64278761758704617 0 0.76604443648966558 0.38302221824483279 0 -0.32139380879352308 1 I I #
point $-1 43.014165966715552 5.9592315120218515 9.7907066448806468 #
edge $-1 $720 1 $720 0 $439 $-1 forward 7 unknown #
vertex $-1 $440 $721 #
ellipse-curve $-1 41.90762269663032 8.7369482428021286 9.2498416588858117 0.64278761758704617 0 0.76604443648966558 0.38302221824483279 0 -0.32139380879352308 1 I I #
point $-1 43.014165966715552 8.7369482428021286 9.7907066448806468 #
plane-surface $-1 44.664448988311413 0 0 -1 0 0 0 0 1 forward_v I I I I #
coedge $-1 $448 $446 $450 $623 reversed $301 $-1 #
edge $-1 $461 -11.818246166230482 $625 11.818246166230482 $460 $722 forward 7 unknown #
vertex $-1 $623 $723 #
straight-curve $-1 -44.664448988311413 -24.035681078545267 0 0 0 -1 I I #
edge $-1 $621 -24.035681078545267 $625 24.035681078545267 $619 $724 forward 7 unknown #
straight-curve $-1 0 -24.035681078545267 -11.818246166230482 -1 0 0 I I #
vertex $-1 $453 $725 #
straight-curve $-1 0 24.035681078545267 -11.818246166230482 1 0 0 I I #
point $-1 44.664448988311413 24.035681078545267 -11.818246166230482 #
point $-1 44.664448988311413 -24.035681078545267 -11.818246166230482 #
straight-curve $-1 -44.664448988311413 0 11.818246166230482 0 -1 0 I I #
point $-1 -44.664448988311413 24.035681078545267 11.818246166230482 #
point $-1 -44.664448988311413 -24.035681078545267 11.818246166230482 #
straight-curve $-1 44.664448988311413 -24.035681078545267 0 0 0 -1 I I #
straight-curve $-1 44.664448988311413 24.035681078545267 0 0 0 -1 I I #
plane-surface $-1 44.664448988311413 0 0 -1 0 0 0 0 1 forward_v I I I I #
coedge $-1 $726 $638 $477 $643 forward $471 $-1 #
coedge $-1 $478 $473 $726 $727 forward $320 $-1 #
edge $-1 $487 -5.699884545915765 $728 5.699884545915765 $485 $729 forward 7 unknown #
coedge $-1 $635 $730 $474 $639 reversed $471 $-1 #
edge $-1 $646 -44.664448988311413 $641 44.664448988311413 $638 $731 forward 7 unknown #
coedge $-1 $485 $475 $730 $732 forward $486 $-1 #
vertex $-1 $476 $733 #
straight-curve $-1 44.664448988311413 -29.735565624461032 8.4260211221267998 0 1 0 I I #
edge $-1 $646 -2.5229594945340992 $644 2.5229594945340992 $477 $734 forward 7 unknown #
vertex $-1 $479 $735 #
straight-curve $-1 -44.664448988311413 -29.735565624461032 3.3801021330586014 0 1 0 I I #
vertex $-1 $480 $736 #
straight-curve $-1 -44.664448988311413 -29.735565624461032 8.4260211221267998 0 -1 0 I I #
point $-1 -44.664448988311413 -24.035681078545267 3.3801021330586014 #
straight-curve $-1 0 -24.035681078545267 3.3801021330586014 -1 0 0 I I #
point $-1 44.664448988311413 -24.035681078545267 3.3801021330586014 #
plane-surface $-1 -44.664448988311413 0 0 1 0 0 0 0 -1 forward_v I I I I #
coedge $-1 $737 $497 $494 $653 forward $492 $-1 #
edge $-1 $654 13.529535431987924 $666 24.035681078545267 $494 $738 forward 7 unknown #
vertex $-1 $653 $739 #
straight-curve $-1 44.664448988311413 13.529535431987924 4.6060935461710839 0 0 -1 I I #
coedge $-1 $497 $737 $499 $659 forward $492 $-1 #
straight-curve $-1 0 13.529535431987924 11.818246166230482 1 0 0 I I #
coedge $-1 $500 $499 $507 $664 forward $501 $-1 #
edge $-1 $740 -24.035681078545267 $503 -13.529535431987924 $499 $741 forward 7 unknown #
point $-1 -44.664448988311413 13.529535431987924 6.6061280184538553 #
point $-1 -44.664448988311413 13.529535431987924 11.81824616623048 #
straight-curve $-1 -44.664448988311413 9.3913041276332976 6.6061280184538553 0 -1 0 I I #
coedge $-1 $508 $507 $737 $742 reversed $334 $-1 #
edge $-1 $740 -11.818246166230482 $509 -6.6061280184538553 $507 $743 forward 7 unknown #
point $-1 -44.664448988311413 24.035681078545267 6.6061280184538553 #
vertex $-1 $653 $744 #
straight-curve $-1 44.664448988311413 24.035681078545267 0 0 0 -1 I I #
edge $-1 $669 26.599683860700885 $672 30.011975285813506 $515 $745 forward 7 unknown #
vertex $-1 $529 $746 #
straight-curve $-1 -51.04197925019055 -2.4939643126951871 11.81824616623048 -1 0 0 I I #
edge $-1 $672 -0.37335260327423292 $526 6.1079864352130731 $525 $747 forward 7 unknown #
vertex $-1 $671 $748 #
straight-curve $-1 -44.664448988311406 -2.4939643126951871 8.405954741117867 0.76604443648966558 0 0.64278761758704617 I I #
point $-1 -40.597838508630026 -2.4939643126951871 11.818246166230482 #
point $-1 -44.664448988311413 -8.9753033511824931 8.4059547411178617 #
straight-curve $-1 -44.664448988311413 0 11.818246166230482 0 -1 0 I I #
vertex $-1 $532 $749 #
point $-1 -41.524600478385494 -7.1234921973289786 9.5712354676793421 #
vertex $-1 $536 $750 #
point $-1 -41.524600478385494 -4.3457754665487052 9.5712354676793421 #
coedge $-1 $551 $550 $543 $682 forward $540 $-1 #
edge $-1 $683 26.599683860700885 $686 30.011975285813506 $681 $751 forward 7 unknown #
vertex $-1 $555 $752 #
straight-curve $-1 -51.04197925019055 10.588759396655647 11.81824616623048 -1 0 0 I I #
edge $-1 $686 -6.9147144579496498 $552 -0.43337541946234381 $551 $753 forward 7 unknown #
vertex $-1 $685 $754 #
straight-curve $-1 -44.664448988311406 10.588759396655647 8.405954741117867 0.76604443648966558 0 0.64278761758704617 I I #
point $-1 -40.597838508630026 10.588759396655647 11.818246166230482 #
point $-1 -44.664448988311413 4.1074203581683406 8.4059547411178617 #
straight-curve $-1 -44.664448988311413 0 11.818246166230482 0 -1 0 I I #
vertex $-1 $558 $755 #
point $-1 -41.524600478385494 5.9592315120218515 9.5712354676793421 #
vertex $-1 $562 $756 #
point $-1 -41.524600478385494 8.7369482428021286 9.5712354676793421 #
coedge $-1 $577 $576 $569 $696 forward $566 $-1 #
edge $-1 $697 55.309438616735733 $700 58.721730041848346 $695 $757 forward 7 unknown #
vertex $-1 $581 $758 #
straight-curve $-1 16.827026593818122 -8.9753033511824931 11.81824616623048 1 0 0 I I #
edge $-1 $700 -6.1079864352130731 $578 0.37335260327423292 $577 $759 forward 7 unknown #
vertex $-1 $699 $760 #
straight-curve $-1 -23.765456324433451 -8.9753033511824931 65.825464253187562 -0.76604443648966558 0 0.64278761758704617 I I #
point $-1 40.597838508630026 -8.9753033511824931 11.81824616623048 #
point $-1 44.664448988311413 -2.4939643126951871 8.405954741117867 #
straight-curve $-1 44.664448988311413 0 11.818246166230482 0 1 0 I I #
vertex $-1 $584 $761 #
point $-1 42.290644914875159 -7.1234921973289786 8.9284478500922884 #
vertex $-1 $588 $762 #
point $-1 42.290644914875159 -4.3457754665487052 8.9284478500922884 #
edge $-1 $710 55.309438616735733 $713 58.721730041848346 $593 $763 forward 7 unknown #
vertex $-1 $607 $764 #
straight-curve $-1 16.827026593818122 4.1074203581683406 11.81824616623048 1 0 0 I I #
edge $-1 $713 0.43337541946234381 $604 6.9147144579496498 $603 $765 forward 7 unknown #
vertex $-1 $712 $766 #
straight-curve $-1 -23.765456324433451 4.1074203581683406 65.825464253187562 -0.76604443648966558 0 0.64278761758704617 I I #
point $-1 40.597838508630026 4.1074203581683406 11.81824616623048 #
point $-1 44.664448988311413 10.588759396655647 8.405954741117867 #
straight-curve $-1 44.664448988311413 0 11.818246166230482 0 1 0 I I #
vertex $-1 $610 $767 #
point $-1 42.290644914875159 5.9592315120218515 8.9284478500922884 #
vertex $-1 $614 $768 #
point $-1 42.290644914875159 8.7369482428021286 8.9284478500922884 #
straight-curve $-1 -44.664448988311413 24.035681078545267 0 0 0 -1 I I #
point $-1 -44.664448988311413 -24.035681078545267 -11.818246166230482 #
straight-curve $-1 -44.664448988311413 0 -11.818246166230482 0 1 0 I I #
point $-1 -44.664448988311413 24.035681078545267 -11.818246166230482 #
coedge $-1 $730 $635 $636 $727 reversed $471 $-1 #
edge $-1 $728 -44.664448988311413 $644 44.664448988311413 $726 $769 forward 7 unknown #
vertex $-1 $732 $770 #
straight-curve $-1 44.664448988311413 -29.735565624461032 3.3801021330586014 0 -1 0 I I #
coedge $-1 $638 $726 $640 $732 reversed $471 $-1 #
straight-curve $-1 0 -35.435450170376797 8.4260211221267998 1 0 0 I I #
edge $-1 $641 -2.5229594945340992 $728 2.5229594945340992 $640 $771 forward 7 unknown #
point $-1 44.664448988311413 -35.435450170376797 8.4260211221267998 #
straight-curve $-1 -44.664448988311413 -35.435450170376797 5.9030616275927006 0 0 -1 I I #
point $-1 -44.664448988311413 -35.435450170376797 3.3801021330586014 #
point $-1 -44.664448988311413 -35.435450170376797 8.4260211221267998 #
coedge $-1 $656 $652 $663 $742 forward $492 $-1 #
straight-curve $-1 44.664448988311413 0 11.818246166230482 0 1 0 I I #
point $-1 44.664448988311413 13.529535431987924 11.81824616623048 #
vertex $-1 $742 $772 #
straight-curve $-1 -44.664448988311413 0 11.818246166230482 0 -1 0 I I #
edge $-1 $666 -44.664448988311413 $740 44.664448988311413 $663 $773 forward 7 unknown #
straight-curve $-1 -44.664448988311413 24.035681078545267 0 0 0 -1 I I #
point $-1 44.664448988311413 24.035681078545267 11.818246166230482 #
straight-curve $-1 -44.664448988311413 -2.4939643126951871 38.417930026931366 0 0 -1 I I #
point $-1 -44.664448988311413 -2.4939643126951871 11.818246166230482 #
straight-curve $-1 -44.664448988311413 -2.8673169159694201 8.4059547411178581 0 -1 0 I I #
point $-1 -44.664448988311413 -2.4939643126951871 8.4059547411178617 #
point $-1 -41.58622888783681 -7.1234921973289786 8.8668194406409864 #
point $-1 -41.58622888783681 -4.3457754665487052 8.8668194406409864 #
straight-curve $-1 -44.664448988311413 10.588759396655647 38.417930026931366 0 0 -1 I I #
point $-1 -44.664448988311413 10.588759396655647 11.818246166230482 #
straight-curve $-1 -44.664448988311413 3.6740449387059968 8.4059547411178581 0 -1 0 I I #
point $-1 -44.664448988311413 10.588759396655647 8.4059547411178617 #
point $-1 -41.58622888783681 5.9592315120218515 8.8668194406409864 #
point $-1 -41.58622888783681 8.7369482428021286 8.8668194406409864 #
straight-curve $-1 44.664448988311413 -8.9753033511824931 67.127684782966213 0 0 -1 I I #
point $-1 44.664448988311413 -8.9753033511824931 11.818246166230482 #
straight-curve $-1 44.664448988311406 -2.8673169159694201 8.4059547411178634 0 1 0 I I #
point $-1 44.664448988311413 -8.9753033511824931 8.405954741117867 #
point $-1 41.586228887836803 -7.1234921973289786 8.8668194406409793 #
point $-1 41.586228887836803 -4.3457754665487052 8.8668194406409793 #
straight-curve $-1 44.664448988311413 4.1074203581683406 67.127684782966213 0 0 -1 I I #
point $-1 44.664448988311413 4.1074203581683406 11.818246166230482 #
straight-curve $-1 44.664448988311406 3.6740449387059968 8.4059547411178634 0 1 0 I I #
point $-1 44.664448988311413 4.1074203581683406 8.405954741117867 #
point $-1 41.586228887836803 5.9592315120218515 8.8668194406409793 #
point $-1 41.586228887836803 8.7369482428021286 8.8668194406409793 #
straight-curve $-1 0 -35.435450170376797 3.3801021330586014 -1 0 0 I I #
point $-1 44.664448988311413 -35.435450170376797 3.3801021330586014 #
straight-curve $-1 44.664448988311413 -35.435450170376797 5.9030616275927006 0 0 -1 I I #
point $-1 -44.664448988311413 24.035681078545267 11.818246166230482 #
straight-curve $-1 0 24.035681078545267 11.818246166230482 -1 0 0 I I #
End-of-ACIS-data 