500 0 5 0           
7 Unknown 11 ACIS 5.0 NT 24 Fri Mar 26 18:04:46 1999 
-1 9.9999999999999995e-007 1e-010 
body $-1 $5 $-1 $6 #
body $-1 $7 $-1 $8 #
body $-1 $9 $-1 $10 #
body $-1 $11 $-1 $12 #
body $-1 $13 $-1 $14 #
lump $-1 $-1 $15 $0 #
transform $-1 1 0 0 0 1 0 0 0 1 66.171452986236147 29.465653046567372 7.394964379663894 1 rotate no_reflect no_shear #
lump $-1 $-1 $16 $1 #
transform $-1 1 0 0 0 1 0 0 0 1 66.171452986236147 29.465653046567372 7.394964379663894 1 rotate no_reflect no_shear #
lump $-1 $-1 $17 $2 #
transform $-1 1 0 0 0 1 0 0 0 1 66.171452986236147 29.465653046567372 7.394964379663894 1 rotate no_reflect no_shear #
lump $-1 $-1 $18 $3 #
transform $-1 1 0 0 0 1 0 0 0 1 66.171452986236147 29.465653046567372 7.394964379663894 1 rotate no_reflect no_shear #
lump $-1 $-1 $19 $4 #
transform $-1 1 0 0 0 1 0 0 0 1 66.171452986236147 29.465653046567372 7.394964379663894 1 rotate no_reflect no_shear #
shell $-1 $-1 $-1 $20 $-1 $5 #
shell $-1 $-1 $-1 $21 $-1 $7 #
shell $-1 $-1 $-1 $22 $-1 $9 #
shell $-1 $-1 $-1 $23 $-1 $11 #
shell $-1 $-1 $-1 $24 $-1 $13 #
face $-1 $25 $26 $15 $-1 $27 forward single #
face $-1 $28 $29 $16 $-1 $30 reversed single #
face $-1 $31 $32 $17 $-1 $33 forward single #
face $-1 $34 $35 $18 $-1 $36 reversed single #
face $-1 $37 $38 $19 $-1 $39 reversed single #
face $-1 $40 $41 $15 $-1 $42 reversed single #
loop $-1 $-1 $43 $20 #
plane-surface $-1 0 0 7.394964379663894 0 0 1 1 0 0 forward_v I I I I #
face $-1 $44 $45 $16 $-1 $46 reversed single #
loop $-1 $-1 $47 $21 #
plane-surface $-1 -73.454410748827172 -27.806406926515891 0 1 0 0 0 0 -1 forward_v I I I I #
face $-1 $48 $49 $17 $-1 $50 forward single #
loop $-1 $-1 $51 $22 #
plane-surface $-1 30.070206484498222 108.36146526498622 122.22118342943838 1 0 0 0 -0.83867057594974714 -0.54463902268945019 forward_v I I I I #
face $-1 $52 $53 $18 $-1 $54 reversed single #
loop $-1 $55 $56 $23 #
cone-surface $-1 40.38484834213763 25.710115230434031 3.0255809459748821 0 -0.83867057594974714 -0.54463902268945019 1 0 0 1 I I 0 1 1 forward I I I I #
face $-1 $57 $58 $19 $-1 $59 reversed single #
loop $-1 $60 $61 $24 #
cone-surface $-1 55.856811128596732 25.710115230434031 3.0255809459748821 0 -0.83867057594974714 -0.54463902268945019 1 0 0 1 I I 0 1 1 forward I I I I #
face $-1 $62 $63 $15 $-1 $64 reversed single #
loop $-1 $-1 $65 $25 #
plane-surface $-1 0 0 -7.394964379663894 0 0 1 1 0 0 forward_v I I I I #
coedge $-1 $66 $67 $68 $69 forward $26 $-1 #
face $-1 $70 $71 $16 $-1 $72 forward single #
loop $-1 $-1 $73 $28 #
plane-surface $-1 -69.81293186753166 -26.147160806464409 0 0 -1 0 0 0 -1 forward_v I I I I #
coedge $-1 $74 $75 $76 $77 forward $29 $-1 #
face $-1 $78 $79 $17 $-1 $80 forward single #
loop $-1 $-1 $81 $31 #
plane-surface $-1 48.120829735367181 -2.6306359098103513 50.142072460709272 0 0.83867057594974714 0.54463902268945019 1 0 0 forward_v I I I I #
coedge $-1 $82 $83 $84 $85 reversed $32 $-1 #
face $-1 $86 $87 $18 $-1 $88 forward single #
loop $-1 $89 $90 $34 #
cone-surface $-1 40.38484834213763 23.703238763572745 1.7223001717185538 0 -0.83867057594974714 -0.54463902268945019 0.5 0 0 1 I I -0.70710678118654746 0.70710678118654746 0.5 forward I I I I #
loop $-1 $-1 $91 $23 #
coedge $-1 $56 $56 $92 $93 reversed $35 $-1 #
face $-1 $94 $95 $19 $-1 $96 reversed single #
loop $-1 $97 $98 $37 #
cone-surface $-1 55.856811128596732 23.703238763572745 1.7223001717185538 0 -0.83867057594974714 -0.54463902268945019 0.5 0 0 1 I I -0.70710678118654746 0.70710678118654746 0.5 forward I I I I #
loop $-1 $-1 $99 $24 #
coedge $-1 $61 $61 $100 $101 reversed $38 $-1 #
face $-1 $102 $103 $15 $-1 $104 reversed single #
loop $-1 $-1 $105 $40 #
plane-surface $-1 0 -29.465653046567372 0 0 1 0 0 0 1 forward_v I I I I #
coedge $-1 $106 $107 $108 $109 forward $41 $-1 #
coedge $-1 $110 $43 $111 $112 forward $26 $-1 #
coedge $-1 $43 $110 $113 $114 forward $26 $-1 #
coedge $-1 $115 $116 $43 $69 reversed $117 $-1 #
edge $-1 $118 -29.465653046567372 $119 29.465653046567372 $68 $120 forward 7 unknown #
face $-1 $121 $122 $16 $-1 $123 reversed single #
loop $-1 $-1 $124 $44 #
plane-surface $-1 0 0 7.394964379663894 0 0 1 1 0 0 forward_v I I I I #
coedge $-1 $125 $126 $127 $128 reversed $45 $-1 #
coedge $-1 $129 $47 $130 $131 reversed $29 $-1 #
coedge $-1 $47 $129 $132 $133 reversed $29 $-1 #
coedge $-1 $126 $125 $47 $77 reversed $45 $-1 #
edge $-1 $134 -7.394964379663894 $135 7.394964379663894 $76 $136 forward 7 unknown #
face $-1 $137 $138 $17 $-1 $139 reversed single #
loop $-1 $-1 $140 $48 #
plane-surface $-1 0 0 7.394964379663894 0 0 1 1 0 0 forward_v I I I I #
coedge $-1 $141 $142 $140 $143 reversed $49 $-1 #
coedge $-1 $83 $51 $142 $144 forward $32 $-1 #
coedge $-1 $51 $82 $145 $146 reversed $32 $-1 #
coedge $-1 $147 $140 $51 $85 forward $79 $-1 #
edge $-1 $148 -29.051072860419559 $149 -24.715079585925739 $84 $150 forward 7 unknown #
face $-1 $151 $152 $18 $-1 $153 forward single #
loop $-1 $-1 $154 $52 #
plane-surface $-1 30.070206484498222 108.36146526498622 122.22118342943838 1 0 0 0 -0.83867057594974714 -0.54463902268945019 forward_v I I I I #
loop $-1 $-1 $155 $34 #
coedge $-1 $90 $90 $91 $156 forward $53 $-1 #
coedge $-1 $91 $91 $90 $156 reversed $55 $-1 #
coedge $-1 $92 $92 $56 $93 forward $152 $-1 #
edge $-1 $157 2.8206909694719076e-016 $157 6.2831853071796004 $92 $158 forward 7 unknown #
face $-1 $159 $160 $19 $-1 $161 reversed single #
loop $-1 $162 $163 $57 #
cone-surface $-1 40.38484834213763 25.710115230434031 3.0255809459748821 0 -0.83867057594974714 -0.54463902268945019 1 0 0 1 I I 0 1 1 forward I I I I #
loop $-1 $-1 $164 $37 #
coedge $-1 $98 $98 $99 $165 forward $58 $-1 #
coedge $-1 $99 $99 $98 $165 reversed $60 $-1 #
coedge $-1 $100 $100 $61 $101 forward $166 $-1 #
edge $-1 $167 2.8206909694719076e-016 $167 6.2831853071796004 $100 $168 forward 7 unknown #
face $-1 $169 $170 $15 $-1 $171 reversed single #
loop $-1 $-1 $172 $62 #
plane-surface $-1 -66.171452986236147 0 0 1 0 0 0 0 -1 forward_v I I I I #
coedge $-1 $173 $113 $174 $175 forward $63 $-1 #
coedge $-1 $176 $65 $173 $177 forward $41 $-1 #
coedge $-1 $65 $176 $178 $179 forward $41 $-1 #
coedge $-1 $116 $115 $65 $109 reversed $117 $-1 #
edge $-1 $180 -29.465653046567372 $181 29.465653046567372 $108 $182 forward 7 unknown #
coedge $-1 $67 $66 $183 $184 forward $26 $-1 #
coedge $-1 $185 $186 $66 $112 reversed $170 $-1 #
edge $-1 $119 -66.171452986236147 $187 66.171452986236147 $111 $188 forward 7 unknown #
coedge $-1 $105 $189 $67 $114 reversed $63 $-1 #
edge $-1 $190 -66.171452986236147 $118 66.171452986236147 $113 $191 forward 7 unknown #
coedge $-1 $108 $68 $189 $192 forward $117 $-1 #
coedge $-1 $68 $108 $185 $193 reversed $117 $-1 #
loop $-1 $-1 $115 $169 #
vertex $-1 $69 $194 #
vertex $-1 $69 $195 #
straight-curve $-1 66.171452986236147 0 7.394964379663894 0 1 0 I I #
face $-1 $196 $197 $16 $-1 $198 reversed single #
loop $-1 $-1 $199 $70 #
plane-surface $-1 0 0 -7.394964379663894 0 0 1 1 0 0 forward_v I I I I #
coedge $-1 $200 $201 $202 $203 forward $71 $-1 #
coedge $-1 $76 $73 $204 $205 reversed $45 $-1 #
coedge $-1 $73 $76 $206 $207 reversed $45 $-1 #
coedge $-1 $208 $209 $73 $128 forward $210 $-1 #
edge $-1 $211 -7.394964379663894 $212 7.394964379663894 $127 $213 forward 7 unknown #
coedge $-1 $75 $74 $214 $215 reversed $29 $-1 #
coedge $-1 $204 $216 $74 $131 forward $122 $-1 #
edge $-1 $217 -1.6592461200514812 $135 1.6592461200514812 $74 $218 forward 7 unknown #
coedge $-1 $201 $206 $75 $133 forward $71 $-1 #
edge $-1 $134 -1.6592461200514812 $219 1.6592461200514812 $75 $220 forward 7 unknown #
vertex $-1 $207 $221 #
vertex $-1 $205 $222 #
straight-curve $-1 -73.454410748827172 -26.147160806464409 0 0 0 -1 I I #
face $-1 $223 $224 $17 $-1 $225 reversed single #
loop $-1 $-1 $145 $78 #
plane-surface $-1 0 29.465653046567372 0 0 -1 0 0 0 -1 forward_v I I I I #
coedge $-1 $84 $226 $81 $143 forward $79 $-1 #
coedge $-1 $227 $81 $228 $229 reversed $49 $-1 #
coedge $-1 $81 $227 $82 $144 reversed $49 $-1 #
edge $-1 $230 -42.111038118552557 $148 -6.0097916168146313 $140 $231 forward 7 unknown #
edge $-1 $148 50.970082064267828 $232 58.931306093134694 $82 $233 forward 7 unknown #
coedge $-1 $234 $235 $83 $146 forward $138 $-1 #
edge $-1 $149 53.715627335055295 $232 60.392471676610036 $145 $236 forward 7 unknown #
coedge $-1 $237 $84 $235 $238 forward $79 $-1 #
vertex $-1 $143 $239 #
vertex $-1 $238 $240 #
straight-curve $-1 30.070206484498222 54.180732632493111 7.3949643796638966 0 1 0 I I #
face $-1 $241 $242 $18 $-1 $243 forward single #
loop $-1 $244 $92 $86 #
plane-surface $-1 48.120829735367181 -2.6306359098103513 50.142072460709272 0 0.83867057594974714 0.54463902268945019 1 0 0 forward_v I I I I #
coedge $-1 $245 $246 $247 $248 reversed $87 $-1 #
coedge $-1 $155 $155 $-1 $249 forward $89 $-1 #
edge $-1 $250 0 $250 6.2831853071796004 $90 $251 forward 7 unknown #
vertex $-1 $93 $252 #
ellipse-curve $-1 40.38484834213763 27.297656409320474 4.0565422088865057 0 -0.83867057594974714 -0.54463902268945019 1 0 0 1 I I #
face $-1 $253 $254 $19 $-1 $255 forward single #
loop $-1 $256 $257 $94 #
cone-surface $-1 40.38484834213763 23.703238763572745 1.7223001717185538 0 -0.83867057594974714 -0.54463902268945019 0.5 0 0 1 I I -0.70710678118654746 0.70710678118654746 0.5 forward I I I I #
loop $-1 $-1 $258 $57 #
coedge $-1 $163 $163 $259 $260 reversed $95 $-1 #
coedge $-1 $164 $164 $-1 $261 forward $97 $-1 #
edge $-1 $262 0 $262 6.2831853071796004 $98 $263 forward 7 unknown #
loop $-1 $264 $100 $253 #
vertex $-1 $101 $265 #
ellipse-curve $-1 55.856811128596732 27.297656409320474 4.0565422088865057 0 -0.83867057594974714 -0.54463902268945019 1 0 0 1 I I #
face $-1 $-1 $117 $15 $-1 $266 reversed single #
loop $-1 $-1 $185 $102 #
plane-surface $-1 0 29.465653046567372 0 0 -1 0 0 0 -1 forward_v I I I I #
coedge $-1 $267 $183 $186 $268 forward $103 $-1 #
coedge $-1 $189 $105 $106 $177 reversed $63 $-1 #
coedge $-1 $183 $267 $105 $175 reversed $103 $-1 #
edge $-1 $190 -7.394964379663894 $269 7.394964379663894 $174 $270 forward 7 unknown #
coedge $-1 $107 $106 $267 $271 forward $41 $-1 #
edge $-1 $181 -66.171452986236147 $269 66.171452986236147 $173 $272 forward 7 unknown #
coedge $-1 $186 $185 $107 $179 reversed $170 $-1 #
edge $-1 $273 -66.171452986236147 $180 66.171452986236147 $178 $274 forward 7 unknown #
vertex $-1 $109 $275 #
vertex $-1 $192 $276 #
straight-curve $-1 66.171452986236147 0 -7.394964379663894 0 -1 0 I I #
coedge $-1 $172 $174 $110 $184 reversed $103 $-1 #
edge $-1 $187 -29.465653046567372 $190 29.465653046567372 $183 $277 forward 7 unknown #
coedge $-1 $178 $111 $116 $193 forward $170 $-1 #
coedge $-1 $111 $178 $172 $268 reversed $170 $-1 #
vertex $-1 $112 $278 #
straight-curve $-1 0 29.465653046567372 7.394964379663894 -1 0 0 I I #
coedge $-1 $113 $173 $115 $192 reversed $63 $-1 #
vertex $-1 $184 $279 #
straight-curve $-1 0 -29.465653046567372 7.394964379663894 1 0 0 I I #
edge $-1 $118 -7.394964379663894 $181 7.394964379663894 $115 $280 forward 7 unknown #
edge $-1 $119 -7.394964379663894 $180 7.394964379663894 $116 $281 forward 7 unknown #
point $-1 66.171452986236147 -29.465653046567372 7.394964379663894 #
point $-1 66.171452986236147 29.465653046567372 7.394964379663894 #
face $-1 $282 $210 $16 $-1 $283 reversed single #
loop $-1 $-1 $284 $121 #
plane-surface $-1 0 -29.465653046567372 0 0 1 0 0 0 1 forward_v I I I I #
coedge $-1 $216 $285 $286 $287 forward $122 $-1 #
coedge $-1 $288 $124 $289 $290 forward $71 $-1 #
coedge $-1 $124 $132 $291 $292 forward $71 $-1 #
coedge $-1 $293 $294 $124 $203 reversed $295 $-1 #
edge $-1 $296 -29.465653046567372 $297 29.465653046567372 $202 $298 forward 7 unknown #
coedge $-1 $299 $130 $125 $205 forward $122 $-1 #
edge $-1 $135 -3.6414788812955123 $211 3.6414788812955123 $125 $300 forward 7 unknown #
coedge $-1 $132 $288 $126 $207 forward $71 $-1 #
edge $-1 $212 -3.6414788812955123 $134 3.6414788812955123 $126 $301 forward 7 unknown #
coedge $-1 $302 $127 $288 $303 reversed $210 $-1 #
coedge $-1 $127 $302 $299 $304 reversed $210 $-1 #
loop $-1 $-1 $127 $196 #
vertex $-1 $304 $305 #
vertex $-1 $207 $306 #
straight-curve $-1 -66.171452986236147 -26.147160806464409 0 0 0 1 I I #
coedge $-1 $284 $291 $129 $215 forward $197 $-1 #
edge $-1 $219 -7.394964379663894 $217 7.394964379663894 $129 $307 forward 7 unknown #
coedge $-1 $130 $199 $284 $308 forward $122 $-1 #
vertex $-1 $131 $309 #
straight-curve $-1 -73.454410748827172 -27.806406926515891 -7.394964379663894 0 1 0 I I #
vertex $-1 $133 $310 #
straight-curve $-1 -73.454410748827172 -27.806406926515891 7.394964379663894 0 -1 0 I I #
point $-1 -73.454410748827172 -26.147160806464409 7.394964379663894 #
point $-1 -73.454410748827172 -26.147160806464409 -7.394964379663894 #
face $-1 $311 $312 $17 $-1 $313 reversed single #
loop $-1 $-1 $314 $137 #
plane-surface $-1 -73.454410748827172 -27.806406926515891 0 1 0 0 0 0 -1 forward_v I I I I #
coedge $-1 $140 $315 $316 $317 forward $79 $-1 #
coedge $-1 $142 $141 $234 $318 reversed $49 $-1 #
coedge $-1 $316 $319 $141 $229 forward $320 $-1 #
edge $-1 $321 -37.188592212680753 $230 -29.227368183813887 $228 $322 forward 7 unknown #
vertex $-1 $229 $323 #
straight-curve $-1 24.060414867683591 25.129659772073559 7.3949643796638931 -1 0 0 I I #
vertex $-1 $318 $324 #
straight-curve $-1 30.070206484498222 -2.6306359098103513 50.142072460709272 0 0.54463902268945019 -0.83867057594974714 I I #
coedge $-1 $325 $145 $227 $318 forward $138 $-1 #
coedge $-1 $145 $326 $147 $238 reversed $138 $-1 #
straight-curve $-1 30.070206484498222 29.465653046567368 61.110591714719192 0 0 -1 I I #
coedge $-1 $327 $147 $328 $329 forward $79 $-1 #
edge $-1 $149 -30.070206484498222 $330 66.171452986236147 $235 $331 forward 7 unknown #
point $-1 30.070206484498222 25.129659772073552 7.3949643796638966 #
point $-1 30.070206484498222 29.465653046567372 7.394964379663894 #
face $-1 $332 $333 $18 $-1 $334 reversed single #
loop $-1 $-1 $335 $151 #
plane-surface $-1 0 0 7.394964379663894 0 0 1 1 0 0 forward_v I I I I #
loop $-1 $-1 $336 $86 #
coedge $-1 $246 $154 $337 $338 forward $87 $-1 #
coedge $-1 $154 $245 $339 $340 reversed $87 $-1 #
coedge $-1 $341 $335 $154 $248 forward $242 $-1 #
edge $-1 $342 -29.051072860419559 $343 -24.715079585925739 $247 $344 forward 7 unknown #
edge $-1 $345 1 $345 0 $155 $-1 forward 7 unknown #
vertex $-1 $156 $346 #
ellipse-curve $-1 40.38484834213763 24.12257405154762 1.994619683063279 0 0.83867057594974714 0.54463902268945019 1 0 0 1 I I #
point $-1 41.38484834213763 27.297656409320442 4.0565422088864853 #
face $-1 $347 $166 $19 $-1 $348 forward single #
loop $-1 $-1 $349 $159 #
plane-surface $-1 30.070206484498222 108.36146526498622 122.22118342943838 1 0 0 0 -0.83867057594974714 -0.54463902268945019 forward_v I I I I #
loop $-1 $-1 $350 $94 #
coedge $-1 $257 $257 $258 $351 forward $160 $-1 #
coedge $-1 $258 $258 $257 $351 reversed $162 $-1 #
coedge $-1 $259 $259 $163 $260 forward $264 $-1 #
edge $-1 $352 2.8206909694719076e-016 $352 6.2831853071796004 $259 $353 forward 7 unknown #
edge $-1 $354 1 $354 0 $164 $-1 forward 7 unknown #
vertex $-1 $165 $355 #
ellipse-curve $-1 55.856811128596732 24.12257405154762 1.994619683063279 0 0.83867057594974714 0.54463902268945019 1 0 0 1 I I #
loop $-1 $356 $259 $253 #
point $-1 56.856811128596732 27.297656409320442 4.0565422088864853 #
plane-surface $-1 66.171452986236147 0 0 -1 0 0 0 0 1 forward_v I I I I #
coedge $-1 $174 $172 $176 $271 reversed $103 $-1 #
edge $-1 $187 -7.394964379663894 $273 7.394964379663894 $186 $357 forward 7 unknown #
vertex $-1 $271 $358 #
straight-curve $-1 -66.171452986236147 -29.465653046567372 0 0 0 -1 I I #
edge $-1 $269 -29.465653046567372 $273 29.465653046567372 $267 $359 forward 7 unknown #
straight-curve $-1 0 -29.465653046567372 -7.394964379663894 -1 0 0 I I #
vertex $-1 $179 $360 #
straight-curve $-1 0 29.465653046567372 -7.394964379663894 1 0 0 I I #
point $-1 66.171452986236147 29.465653046567372 -7.394964379663894 #
point $-1 66.171452986236147 -29.465653046567372 -7.394964379663894 #
straight-curve $-1 -66.171452986236147 0 7.394964379663894 0 -1 0 I I #
point $-1 -66.171452986236147 29.465653046567372 7.394964379663894 #
point $-1 -66.171452986236147 -29.465653046567372 7.394964379663894 #
straight-curve $-1 66.171452986236147 -29.465653046567372 0 0 0 -1 I I #
straight-curve $-1 66.171452986236147 29.465653046567372 0 0 0 -1 I I #
face $-1 $361 $362 $16 $-1 $363 reversed single #
plane-surface $-1 -66.171452986236147 0 0 1 0 0 0 0 -1 forward_v I I I I #
coedge $-1 $364 $214 $216 $308 reversed $197 $-1 #
coedge $-1 $199 $299 $365 $366 forward $122 $-1 #
coedge $-1 $294 $293 $199 $287 reversed $295 $-1 #
edge $-1 $367 -29.465653046567372 $368 29.465653046567372 $286 $369 forward 7 unknown #
coedge $-1 $206 $200 $208 $303 forward $71 $-1 #
coedge $-1 $370 $371 $200 $290 reversed $362 $-1 #
edge $-1 $297 -66.171452986236147 $372 66.171452986236147 $289 $373 forward 7 unknown #
coedge $-1 $214 $364 $201 $292 reversed $197 $-1 #
edge $-1 $219 -73.454410748827172 $296 66.171452986236147 $291 $374 forward 7 unknown #
coedge $-1 $286 $202 $364 $375 forward $295 $-1 #
coedge $-1 $202 $286 $370 $376 reversed $295 $-1 #
loop $-1 $-1 $293 $361 #
vertex $-1 $203 $377 #
vertex $-1 $203 $378 #
straight-curve $-1 66.171452986236147 0 7.394964379663894 0 1 0 I I #
coedge $-1 $285 $204 $209 $304 forward $122 $-1 #
straight-curve $-1 -69.81293186753166 -26.147160806464409 -7.394964379663894 1 0 0 I I #
straight-curve $-1 -69.81293186753166 -26.147160806464409 7.394964379663894 -1 0 0 I I #
coedge $-1 $209 $208 $371 $379 forward $210 $-1 #
edge $-1 $372 -29.465653046567372 $212 26.147160806464409 $208 $380 forward 7 unknown #
edge $-1 $211 -26.147160806464409 $381 29.465653046567372 $209 $382 forward 7 unknown #
point $-1 -66.171452986236147 -26.147160806464409 -7.394964379663894 #
point $-1 -66.171452986236147 -26.147160806464409 7.394964379663894 #
straight-curve $-1 -73.454410748827172 -29.465653046567372 0 0 0 -1 I I #
edge $-1 $368 -135.98438485376781 $217 3.6414788812955123 $284 $383 forward 7 unknown #
point $-1 -73.454410748827172 -29.465653046567372 -7.394964379663894 #
point $-1 -73.454410748827172 -29.465653046567372 7.394964379663894 #
face $-1 $384 $385 $17 $-1 $386 reversed single #
loop $-1 $-1 $387 $223 #
plane-surface $-1 -69.81293186753166 -26.147160806464409 0 0 -1 0 0 0 -1 forward_v I I I I #
coedge $-1 $388 $389 $390 $391 forward $224 $-1 #
coedge $-1 $226 $392 $393 $394 forward $79 $-1 #
coedge $-1 $395 $228 $226 $317 reversed $320 $-1 #
edge $-1 $396 -29.465653046567372 $230 25.129659772073552 $316 $397 forward 7 unknown #
edge $-1 $232 6.0097916168146313 $321 42.111038118552557 $234 $398 forward 7 unknown #
coedge $-1 $228 $399 $325 $400 reversed $320 $-1 #
loop $-1 $-1 $228 $401 #
vertex $-1 $400 $402 #
straight-curve $-1 66.171452986236147 9.2112945286564258 31.907098087878403 0 -0.54463902268945019 0.83867057594974714 I I #
point $-1 66.171452986236147 25.129659772073552 7.3949643796638966 #
point $-1 30.070206484498222 29.465653046567368 0.7181200381091557 #
coedge $-1 $403 $234 $319 $400 forward $138 $-1 #
coedge $-1 $235 $403 $404 $405 reversed $138 $-1 #
coedge $-1 $392 $237 $406 $407 forward $79 $-1 #
coedge $-1 $404 $408 $237 $329 reversed $409 $-1 #
edge $-1 $330 -29.465653046567372 $410 26.147160806464409 $328 $411 forward 7 unknown #
vertex $-1 $238 $412 #
straight-curve $-1 0 29.465653046567372 7.394964379663894 -1 0 0 I I #
face $-1 $413 $414 $18 $-1 $415 reversed single #
loop $-1 $-1 $339 $241 #
plane-surface $-1 0 29.465653046567372 0 0 -1 0 0 0 -1 forward_v I I I I #
coedge $-1 $247 $416 $336 $417 forward $242 $-1 #
coedge $-1 $418 $337 $335 $417 reversed $244 $-1 #
coedge $-1 $336 $419 $245 $338 reversed $244 $-1 #
edge $-1 $342 50.970082064267828 $420 58.931306093134694 $245 $421 forward 7 unknown #
coedge $-1 $422 $423 $246 $340 forward $333 $-1 #
edge $-1 $343 53.715627335055295 $420 60.392471676610036 $339 $424 forward 7 unknown #
coedge $-1 $425 $247 $423 $426 forward $242 $-1 #
vertex $-1 $417 $427 #
vertex $-1 $426 $428 #
straight-curve $-1 30.070206484498222 54.180732632493111 7.3949643796638966 0 1 0 I I #
vertex $-1 $249 $429 #
point $-1 41.38484834213763 24.12257405154762 1.994619683063279 #
face $-1 $430 $431 $19 $-1 $432 forward single #
plane-surface $-1 48.120829735367181 -2.6306359098103513 50.142072460709272 0 0.83867057594974714 0.54463902268945019 1 0 0 forward_v I I I I #
coedge $-1 $433 $434 $435 $436 reversed $254 $-1 #
coedge $-1 $350 $350 $-1 $437 forward $256 $-1 #
edge $-1 $438 0 $438 6.2831853071796004 $257 $439 forward 7 unknown #
vertex $-1 $260 $440 #
ellipse-curve $-1 40.38484834213763 27.297656409320474 4.0565422088865057 0 -0.83867057594974714 -0.54463902268945019 1 0 0 1 I I #
vertex $-1 $261 $441 #
point $-1 56.856811128596732 24.12257405154762 1.994619683063279 #
loop $-1 $-1 $442 $253 #
straight-curve $-1 -66.171452986236147 29.465653046567372 0 0 0 -1 I I #
point $-1 -66.171452986236147 -29.465653046567372 -7.394964379663894 #
straight-curve $-1 -66.171452986236147 0 -7.394964379663894 0 1 0 I I #
point $-1 -66.171452986236147 29.465653046567372 -7.394964379663894 #
face $-1 $-1 $295 $16 $-1 $443 reversed single #
loop $-1 $-1 $370 $282 #
plane-surface $-1 0 29.465653046567372 0 0 -1 0 0 0 -1 forward_v I I I I #
coedge $-1 $291 $284 $293 $375 reversed $197 $-1 #
coedge $-1 $371 $370 $285 $366 reversed $362 $-1 #
edge $-1 $381 -66.171452986236147 $367 66.171452986236147 $365 $444 forward 7 unknown #
vertex $-1 $287 $445 #
vertex $-1 $375 $446 #
straight-curve $-1 66.171452986236147 0 -7.394964379663894 0 -1 0 I I #
coedge $-1 $365 $289 $294 $376 forward $362 $-1 #
coedge $-1 $289 $365 $302 $379 reversed $362 $-1 #
vertex $-1 $290 $447 #
straight-curve $-1 0 29.465653046567372 7.394964379663894 -1 0 0 I I #
straight-curve $-1 0 -29.465653046567372 7.394964379663894 1 0 0 I I #
edge $-1 $296 -7.394964379663894 $368 7.394964379663894 $293 $448 forward 7 unknown #
edge $-1 $297 -7.394964379663894 $367 7.394964379663894 $294 $449 forward 7 unknown #
point $-1 66.171452986236147 -29.465653046567372 7.394964379663894 #
point $-1 66.171452986236147 29.465653046567372 7.394964379663894 #
edge $-1 $372 -7.394964379663894 $381 7.394964379663894 $371 $450 forward 7 unknown #
straight-curve $-1 -66.171452986236147 0 7.394964379663894 0 -1 0 I I #
vertex $-1 $366 $451 #
straight-curve $-1 -66.171452986236147 0 -7.394964379663894 0 1 0 I I #
straight-curve $-1 -69.81293186753166 -29.465653046567372 -7.394964379663894 -1 0 0 I I #
face $-1 $452 $453 $17 $-1 $454 reversed single #
loop $-1 $-1 $455 $311 #
plane-surface $-1 0 0 -7.394964379663894 0 0 1 1 0 0 forward_v I I I I #
coedge $-1 $456 $406 $408 $457 reversed $312 $-1 #
coedge $-1 $458 $314 $459 $460 reversed $224 $-1 #
coedge $-1 $314 $458 $392 $461 reversed $224 $-1 #
coedge $-1 $406 $456 $314 $391 reversed $312 $-1 #
edge $-1 $462 -7.394964379663894 $463 7.394964379663894 $390 $464 forward 7 unknown #
coedge $-1 $315 $327 $389 $461 forward $79 $-1 #
coedge $-1 $465 $466 $315 $394 reversed $453 $-1 #
edge $-1 $467 -73.454410748827172 $396 66.171452986236147 $393 $468 forward 7 unknown #
coedge $-1 $399 $316 $466 $469 forward $320 $-1 #
vertex $-1 $317 $470 #
straight-curve $-1 66.171452986236147 0 7.394964379663894 0 1 0 I I #
straight-curve $-1 24.060414867683591 29.465653046567375 0.71812003810915215 1 0 0 I I #
coedge $-1 $319 $395 $455 $471 reversed $320 $-1 #
edge $-1 $321 -0.7181200381091557 $472 7.394964379663894 $319 $473 forward 7 unknown #
face $-1 $-1 $320 $17 $-1 $474 reversed single #
point $-1 66.171452986236147 29.465653046567368 0.7181200381091557 #
coedge $-1 $326 $325 $475 $476 reversed $138 $-1 #
coedge $-1 $477 $328 $326 $405 forward $409 $-1 #
edge $-1 $330 -7.394964379663894 $478 7.394964379663894 $326 $479 forward 7 unknown #
coedge $-1 $387 $390 $327 $407 reversed $312 $-1 #
edge $-1 $410 -3.6414788812955123 $462 3.6414788812955123 $406 $480 forward 7 unknown #
coedge $-1 $328 $477 $387 $457 forward $409 $-1 #
loop $-1 $-1 $408 $452 #
vertex $-1 $407 $481 #
straight-curve $-1 -66.171452986236147 0 7.394964379663894 0 -1 0 I I #
point $-1 -66.171452986236147 29.465653046567372 7.394964379663894 #
face $-1 $482 $483 $18 $-1 $484 reversed single #
loop $-1 $-1 $485 $332 #
plane-surface $-1 -73.454410748827172 -27.806406926515891 0 1 0 0 0 0 -1 forward_v I I I I #
coedge $-1 $335 $486 $487 $488 forward $242 $-1 #
edge $-1 $489 -42.111038118552557 $342 -6.0097916168146313 $335 $490 forward 7 unknown #
coedge $-1 $419 $336 $491 $492 reversed $244 $-1 #
coedge $-1 $337 $418 $422 $493 reversed $244 $-1 #
vertex $-1 $493 $494 #
straight-curve $-1 30.070206484498222 -2.6306359098103513 50.142072460709272 0 0.54463902268945019 -0.83867057594974714 I I #
coedge $-1 $495 $339 $419 $493 forward $333 $-1 #
coedge $-1 $339 $496 $341 $426 reversed $333 $-1 #
straight-curve $-1 30.070206484498222 29.465653046567368 61.110591714719192 0 0 -1 I I #
coedge $-1 $497 $341 $498 $499 forward $242 $-1 #
edge $-1 $343 -30.070206484498222 $500 66.171452986236147 $423 $501 forward 7 unknown #
point $-1 30.070206484498222 25.129659772073552 7.3949643796638966 #
point $-1 30.070206484498222 29.465653046567372 7.394964379663894 #
point $-1 40.38484834213763 23.283903475597871 1.4499806603738286 #
face $-1 $502 $503 $19 $-1 $504 reversed single #
loop $-1 $-1 $505 $347 #
plane-surface $-1 0 0 7.394964379663894 0 0 1 1 0 0 forward_v I I I I #
coedge $-1 $434 $349 $506 $507 forward $254 $-1 #
coedge $-1 $349 $433 $508 $509 reversed $254 $-1 #
coedge $-1 $510 $505 $349 $436 forward $431 $-1 #
edge $-1 $511 -29.051072860419559 $512 -24.715079585925739 $435 $513 forward 7 unknown #
edge $-1 $514 1 $514 0 $350 $-1 forward 7 unknown #
vertex $-1 $351 $515 #
ellipse-curve $-1 40.38484834213763 24.12257405154762 1.994619683063279 0 0.83867057594974714 0.54463902268945019 1 0 0 1 I I #
point $-1 41.38484834213763 27.297656409320442 4.0565422088864853 #
point $-1 55.856811128596732 23.283903475597871 1.4499806603738286 #
coedge $-1 $516 $506 $505 $517 reversed $356 $-1 #
plane-surface $-1 66.171452986236147 0 0 -1 0 0 0 0 1 forward_v I I I I #
straight-curve $-1 0 29.465653046567372 -7.394964379663894 1 0 0 I I #
point $-1 66.171452986236147 29.465653046567372 -7.394964379663894 #
point $-1 66.171452986236147 -29.465653046567372 -7.394964379663894 #
point $-1 -66.171452986236147 29.465653046567372 7.394964379663894 #
straight-curve $-1 66.171452986236147 -29.465653046567372 0 0 0 -1 I I #
straight-curve $-1 66.171452986236147 29.465653046567372 0 0 0 -1 I I #
straight-curve $-1 -66.171452986236147 29.465653046567372 0 0 0 -1 I I #
point $-1 -66.171452986236147 29.465653046567372 -7.394964379663894 #
face $-1 $401 $409 $17 $-1 $518 reversed single #
loop $-1 $-1 $519 $384 #
plane-surface $-1 0 -29.465653046567372 0 0 1 0 0 0 1 forward_v I I I I #
coedge $-1 $520 $475 $399 $471 forward $385 $-1 #
coedge $-1 $390 $387 $521 $522 reversed $312 $-1 #
edge $-1 $523 -7.394964379663894 $410 7.394964379663894 $408 $524 forward 7 unknown #
coedge $-1 $389 $388 $465 $525 reversed $224 $-1 #
coedge $-1 $521 $520 $388 $460 forward $385 $-1 #
edge $-1 $526 -1.6592461200514812 $463 1.6592461200514812 $388 $527 forward 7 unknown #
edge $-1 $462 -1.6592461200514812 $467 1.6592461200514812 $389 $528 forward 7 unknown #
vertex $-1 $407 $529 #
vertex $-1 $522 $530 #
straight-curve $-1 -73.454410748827172 -26.147160806464409 0 0 0 -1 I I #
coedge $-1 $519 $393 $458 $525 forward $453 $-1 #
coedge $-1 $393 $519 $395 $469 reversed $453 $-1 #
vertex $-1 $461 $531 #
straight-curve $-1 0 -29.465653046567372 7.394964379663894 1 0 0 I I #
edge $-1 $396 -7.394964379663894 $532 7.394964379663894 $395 $533 forward 7 unknown #
point $-1 66.171452986236147 -29.465653046567372 7.394964379663894 #
edge $-1 $472 -29.465653046567372 $532 29.465653046567372 $399 $534 forward 7 unknown #
vertex $-1 $471 $535 #
straight-curve $-1 66.171452986236147 29.465653046567372 0 0 0 -1 I I #
plane-surface $-1 66.171452986236147 0 0 -1 0 0 0 0 1 forward_v I I I I #
coedge $-1 $455 $536 $403 $476 forward $385 $-1 #
edge $-1 $478 -66.171452986236147 $472 66.171452986236147 $403 $537 forward 7 unknown #
coedge $-1 $408 $404 $536 $538 reversed $409 $-1 #
vertex $-1 $476 $539 #
straight-curve $-1 -66.171452986236147 29.465653046567372 0 0 0 -1 I I #
straight-curve $-1 -69.81293186753166 -26.147160806464409 7.394964379663894 -1 0 0 I I #
point $-1 -66.171452986236147 -26.147160806464409 7.394964379663894 #
face $-1 $540 $541 $18 $-1 $542 reversed single #
loop $-1 $-1 $543 $413 #
plane-surface $-1 -69.81293186753166 -26.147160806464409 0 0 -1 0 0 0 -1 forward_v I I I I #
coedge $-1 $544 $545 $546 $547 forward $414 $-1 #
coedge $-1 $416 $548 $549 $550 forward $242 $-1 #
coedge $-1 $551 $491 $416 $488 reversed $552 $-1 #
edge $-1 $553 -29.465653046567372 $489 25.129659772073552 $487 $554 forward 7 unknown #
vertex $-1 $492 $555 #
straight-curve $-1 24.060414867683591 25.129659772073559 7.3949643796638931 -1 0 0 I I #
coedge $-1 $487 $556 $418 $492 forward $552 $-1 #
edge $-1 $557 -37.188592212680753 $489 -29.227368183813887 $491 $558 forward 7 unknown #
edge $-1 $420 6.0097916168146313 $557 42.111038118552557 $422 $559 forward 7 unknown #
point $-1 30.070206484498222 29.465653046567368 0.7181200381091557 #
coedge $-1 $560 $422 $556 $561 forward $333 $-1 #
coedge $-1 $423 $560 $562 $563 reversed $333 $-1 #
coedge $-1 $548 $425 $564 $565 forward $242 $-1 #
coedge $-1 $562 $566 $425 $499 reversed $567 $-1 #
edge $-1 $500 -29.465653046567372 $568 26.147160806464409 $498 $569 forward 7 unknown #
vertex $-1 $426 $570 #
straight-curve $-1 0 29.465653046567372 7.394964379663894 -1 0 0 I I #
face $-1 $571 $572 $19 $-1 $573 reversed single #
loop $-1 $-1 $508 $430 #
plane-surface $-1 0 29.465653046567372 0 0 -1 0 0 0 -1 forward_v I I I I #
coedge $-1 $435 $574 $442 $517 forward $431 $-1 #
coedge $-1 $442 $575 $433 $507 reversed $356 $-1 #
edge $-1 $511 50.970082064267828 $576 58.931306093134694 $433 $577 forward 7 unknown #
coedge $-1 $578 $579 $434 $509 forward $503 $-1 #
edge $-1 $512 53.715627335055295 $576 60.392471676610036 $508 $580 forward 7 unknown #
coedge $-1 $581 $435 $579 $582 forward $431 $-1 #
vertex $-1 $517 $583 #
vertex $-1 $582 $584 #
straight-curve $-1 30.070206484498222 54.180732632493111 7.3949643796638966 0 1 0 I I #
vertex $-1 $437 $585 #
point $-1 41.38484834213763 24.12257405154762 1.994619683063279 #
coedge $-1 $575 $442 $586 $587 reversed $356 $-1 #
edge $-1 $588 -42.111038118552557 $511 -6.0097916168146313 $505 $589 forward 7 unknown #
plane-surface $-1 -66.171452986236147 0 0 1 0 0 0 0 -1 forward_v I I I I #
coedge $-1 $466 $465 $520 $590 reversed $453 $-1 #
coedge $-1 $459 $455 $519 $590 forward $385 $-1 #
coedge $-1 $536 $459 $456 $522 forward $385 $-1 #
edge $-1 $463 -3.6414788812955123 $523 3.6414788812955123 $456 $591 forward 7 unknown #
vertex $-1 $538 $592 #
straight-curve $-1 -66.171452986236147 -26.147160806464409 0 0 0 1 I I #
edge $-1 $467 -7.394964379663894 $526 7.394964379663894 $458 $593 forward 7 unknown #
vertex $-1 $460 $594 #
straight-curve $-1 -73.454410748827172 -27.806406926515891 -7.394964379663894 0 1 0 I I #
straight-curve $-1 -73.454410748827172 -27.806406926515891 7.394964379663894 0 -1 0 I I #
point $-1 -73.454410748827172 -26.147160806464409 7.394964379663894 #
point $-1 -73.454410748827172 -26.147160806464409 -7.394964379663894 #
point $-1 -73.454410748827172 -29.465653046567372 7.394964379663894 #
vertex $-1 $469 $595 #
straight-curve $-1 66.171452986236147 -29.465653046567372 0 0 0 -1 I I #
straight-curve $-1 66.171452986236147 0 -7.394964379663894 0 -1 0 I I #
point $-1 66.171452986236147 29.465653046567372 -7.394964379663894 #
coedge $-1 $475 $521 $477 $538 forward $385 $-1 #
straight-curve $-1 0 29.465653046567372 -7.394964379663894 1 0 0 I I #
edge $-1 $523 -26.147160806464409 $478 29.465653046567372 $477 $596 forward 7 unknown #
point $-1 -66.171452986236147 29.465653046567372 -7.394964379663894 #
face $-1 $597 $598 $18 $-1 $599 reversed single #
loop $-1 $-1 $600 $482 #
plane-surface $-1 0 0 -7.394964379663894 0 0 1 1 0 0 forward_v I I I I #
coedge $-1 $601 $564 $566 $602 reversed $483 $-1 #
coedge $-1 $603 $485 $604 $605 reversed $414 $-1 #
coedge $-1 $485 $603 $548 $606 reversed $414 $-1 #
coedge $-1 $564 $601 $485 $547 reversed $483 $-1 #
edge $-1 $607 -7.394964379663894 $608 7.394964379663894 $546 $609 forward 7 unknown #
coedge $-1 $486 $497 $545 $606 forward $242 $-1 #
coedge $-1 $610 $611 $486 $550 reversed $598 $-1 #
edge $-1 $612 -73.454410748827172 $553 66.171452986236147 $549 $613 forward 7 unknown #
coedge $-1 $614 $487 $611 $615 forward $552 $-1 #
loop $-1 $-1 $491 $616 #
vertex $-1 $488 $617 #
straight-curve $-1 66.171452986236147 0 7.394964379663894 0 1 0 I I #
point $-1 66.171452986236147 25.129659772073552 7.3949643796638966 #
coedge $-1 $491 $614 $495 $561 reversed $552 $-1 #
vertex $-1 $561 $618 #
straight-curve $-1 66.171452986236147 9.2112945286564258 31.907098087878403 0 -0.54463902268945019 0.83867057594974714 I I #
straight-curve $-1 24.060414867683591 29.465653046567375 0.71812003810915215 1 0 0 I I #
coedge $-1 $496 $495 $619 $620 reversed $333 $-1 #
edge $-1 $557 -0.7181200381091557 $621 7.394964379663894 $556 $622 forward 7 unknown #
coedge $-1 $623 $498 $496 $563 forward $567 $-1 #
edge $-1 $500 -7.394964379663894 $624 7.394964379663894 $496 $625 forward 7 unknown #
coedge $-1 $543 $546 $497 $565 reversed $483 $-1 #
edge $-1 $568 -3.6414788812955123 $607 3.6414788812955123 $564 $626 forward 7 unknown #
coedge $-1 $498 $623 $543 $602 forward $567 $-1 #
loop $-1 $-1 $566 $597 #
vertex $-1 $565 $627 #
straight-curve $-1 -66.171452986236147 0 7.394964379663894 0 -1 0 I I #
point $-1 -66.171452986236147 29.465653046567372 7.394964379663894 #
face $-1 $628 $629 $19 $-1 $630 reversed single #
loop $-1 $-1 $631 $502 #
plane-surface $-1 -73.454410748827172 -27.806406926515891 0 1 0 0 0 0 -1 forward_v I I I I #
coedge $-1 $505 $632 $633 $634 forward $431 $-1 #
coedge $-1 $506 $516 $578 $635 reversed $356 $-1 #
vertex $-1 $635 $636 #
straight-curve $-1 30.070206484498222 -2.6306359098103513 50.142072460709272 0 0.54463902268945019 -0.83867057594974714 I I #
coedge $-1 $637 $508 $575 $635 forward $503 $-1 #
coedge $-1 $508 $638 $510 $582 reversed $503 $-1 #
straight-curve $-1 30.070206484498222 29.465653046567368 61.110591714719192 0 0 -1 I I #
coedge $-1 $639 $510 $640 $641 forward $431 $-1 #
edge $-1 $512 -30.070206484498222 $642 66.171452986236147 $579 $643 forward 7 unknown #
point $-1 30.070206484498222 25.129659772073552 7.3949643796638966 #
point $-1 30.070206484498222 29.465653046567372 7.394964379663894 #
point $-1 40.38484834213763 23.283903475597871 1.4499806603738286 #
coedge $-1 $633 $644 $516 $587 forward $645 $-1 #
edge $-1 $646 -37.188592212680753 $588 -29.227368183813887 $586 $647 forward 7 unknown #
vertex $-1 $587 $648 #
straight-curve $-1 24.060414867683591 25.129659772073559 7.3949643796638931 -1 0 0 I I #
edge $-1 $532 -135.98438485376781 $526 3.6414788812955123 $519 $649 forward 7 unknown #
straight-curve $-1 -69.81293186753166 -26.147160806464409 -7.394964379663894 1 0 0 I I #
point $-1 -66.171452986236147 -26.147160806464409 -7.394964379663894 #
straight-curve $-1 -73.454410748827172 -29.465653046567372 0 0 0 -1 I I #
point $-1 -73.454410748827172 -29.465653046567372 -7.394964379663894 #
point $-1 66.171452986236147 -29.465653046567372 -7.394964379663894 #
straight-curve $-1 -66.171452986236147 0 -7.394964379663894 0 1 0 I I #
face $-1 $616 $567 $18 $-1 $650 reversed single #
loop $-1 $-1 $651 $540 #
plane-surface $-1 0 -29.465653046567372 0 0 1 0 0 0 1 forward_v I I I I #
coedge $-1 $652 $619 $614 $653 forward $541 $-1 #
coedge $-1 $546 $543 $654 $655 reversed $483 $-1 #
edge $-1 $656 -7.394964379663894 $568 7.394964379663894 $566 $657 forward 7 unknown #
coedge $-1 $545 $544 $610 $658 reversed $414 $-1 #
coedge $-1 $654 $652 $544 $605 forward $541 $-1 #
edge $-1 $659 -1.6592461200514812 $608 1.6592461200514812 $544 $660 forward 7 unknown #
edge $-1 $607 -1.6592461200514812 $612 1.6592461200514812 $545 $661 forward 7 unknown #
vertex $-1 $565 $662 #
vertex $-1 $655 $663 #
straight-curve $-1 -73.454410748827172 -26.147160806464409 0 0 0 -1 I I #
coedge $-1 $651 $549 $603 $658 forward $598 $-1 #
coedge $-1 $549 $651 $551 $615 reversed $598 $-1 #
vertex $-1 $606 $664 #
straight-curve $-1 0 -29.465653046567372 7.394964379663894 1 0 0 I I #
coedge $-1 $556 $551 $600 $653 reversed $552 $-1 #
edge $-1 $553 -7.394964379663894 $665 7.394964379663894 $551 $666 forward 7 unknown #
face $-1 $-1 $552 $18 $-1 $667 reversed single #
point $-1 66.171452986236147 -29.465653046567372 7.394964379663894 #
point $-1 66.171452986236147 29.465653046567368 0.7181200381091557 #
coedge $-1 $600 $668 $560 $620 forward $541 $-1 #
edge $-1 $624 -66.171452986236147 $621 66.171452986236147 $560 $669 forward 7 unknown #
vertex $-1 $653 $670 #
straight-curve $-1 66.171452986236147 29.465653046567372 0 0 0 -1 I I #
coedge $-1 $566 $562 $668 $671 reversed $567 $-1 #
vertex $-1 $620 $672 #
straight-curve $-1 -66.171452986236147 29.465653046567372 0 0 0 -1 I I #
straight-curve $-1 -69.81293186753166 -26.147160806464409 7.394964379663894 -1 0 0 I I #
point $-1 -66.171452986236147 -26.147160806464409 7.394964379663894 #
face $-1 $673 $674 $19 $-1 $675 reversed single #
loop $-1 $-1 $676 $571 #
plane-surface $-1 -69.81293186753166 -26.147160806464409 0 0 -1 0 0 0 -1 forward_v I I I I #
coedge $-1 $677 $678 $679 $680 forward $572 $-1 #
coedge $-1 $574 $681 $682 $683 forward $431 $-1 #
coedge $-1 $684 $586 $574 $634 reversed $645 $-1 #
edge $-1 $685 -29.465653046567372 $588 25.129659772073552 $633 $686 forward 7 unknown #
edge $-1 $576 6.0097916168146313 $646 42.111038118552557 $578 $687 forward 7 unknown #
point $-1 30.070206484498222 29.465653046567368 0.7181200381091557 #
coedge $-1 $688 $578 $644 $689 forward $503 $-1 #
coedge $-1 $579 $688 $690 $691 reversed $503 $-1 #
coedge $-1 $681 $581 $692 $693 forward $431 $-1 #
coedge $-1 $690 $694 $581 $641 reversed $695 $-1 #
edge $-1 $642 -29.465653046567372 $696 26.147160806464409 $640 $697 forward 7 unknown #
vertex $-1 $582 $698 #
straight-curve $-1 0 29.465653046567372 7.394964379663894 -1 0 0 I I #
coedge $-1 $586 $699 $637 $689 reversed $645 $-1 #
loop $-1 $-1 $586 $700 #
vertex $-1 $689 $701 #
straight-curve $-1 66.171452986236147 9.2112945286564258 31.907098087878403 0 -0.54463902268945019 0.83867057594974714 I I #
point $-1 66.171452986236147 25.129659772073552 7.3949643796638966 #
straight-curve $-1 -69.81293186753166 -29.465653046567372 -7.394964379663894 -1 0 0 I I #
plane-surface $-1 -66.171452986236147 0 0 1 0 0 0 0 -1 forward_v I I I I #
coedge $-1 $611 $610 $652 $702 reversed $598 $-1 #
coedge $-1 $604 $600 $651 $702 forward $541 $-1 #
edge $-1 $621 -29.465653046567372 $665 29.465653046567372 $614 $703 forward 7 unknown #
coedge $-1 $668 $604 $601 $655 forward $541 $-1 #
edge $-1 $608 -3.6414788812955123 $656 3.6414788812955123 $601 $704 forward 7 unknown #
vertex $-1 $671 $705 #
straight-curve $-1 -66.171452986236147 -26.147160806464409 0 0 0 1 I I #
edge $-1 $612 -7.394964379663894 $659 7.394964379663894 $603 $706 forward 7 unknown #
vertex $-1 $605 $707 #
straight-curve $-1 -73.454410748827172 -27.806406926515891 -7.394964379663894 0 1 0 I I #
straight-curve $-1 -73.454410748827172 -27.806406926515891 7.394964379663894 0 -1 0 I I #
point $-1 -73.454410748827172 -26.147160806464409 7.394964379663894 #
point $-1 -73.454410748827172 -26.147160806464409 -7.394964379663894 #
point $-1 -73.454410748827172 -29.465653046567372 7.394964379663894 #
vertex $-1 $615 $708 #
straight-curve $-1 66.171452986236147 -29.465653046567372 0 0 0 -1 I I #
plane-surface $-1 66.171452986236147 0 0 -1 0 0 0 0 1 forward_v I I I I #
coedge $-1 $619 $654 $623 $671 forward $541 $-1 #
straight-curve $-1 0 29.465653046567372 -7.394964379663894 1 0 0 I I #
point $-1 66.171452986236147 29.465653046567372 -7.394964379663894 #
edge $-1 $656 -26.147160806464409 $624 29.465653046567372 $623 $709 forward 7 unknown #
point $-1 -66.171452986236147 29.465653046567372 -7.394964379663894 #
face $-1 $710 $711 $19 $-1 $712 reversed single #
loop $-1 $-1 $713 $628 #
plane-surface $-1 0 0 -7.394964379663894 0 0 1 1 0 0 forward_v I I I I #
coedge $-1 $714 $692 $694 $715 reversed $629 $-1 #
coedge $-1 $716 $631 $717 $718 reversed $572 $-1 #
coedge $-1 $631 $716 $681 $719 reversed $572 $-1 #
coedge $-1 $692 $714 $631 $680 reversed $629 $-1 #
edge $-1 $720 -7.394964379663894 $721 7.394964379663894 $679 $722 forward 7 unknown #
coedge $-1 $632 $639 $678 $719 forward $431 $-1 #
coedge $-1 $723 $724 $632 $683 reversed $711 $-1 #
edge $-1 $725 -73.454410748827172 $685 66.171452986236147 $682 $726 forward 7 unknown #
coedge $-1 $699 $633 $724 $727 forward $645 $-1 #
vertex $-1 $634 $728 #
straight-curve $-1 66.171452986236147 0 7.394964379663894 0 1 0 I I #
straight-curve $-1 24.060414867683591 29.465653046567375 0.71812003810915215 1 0 0 I I #
coedge $-1 $638 $637 $729 $730 reversed $503 $-1 #
edge $-1 $646 -0.7181200381091557 $731 7.394964379663894 $644 $732 forward 7 unknown #
coedge $-1 $733 $640 $638 $691 forward $695 $-1 #
edge $-1 $642 -7.394964379663894 $734 7.394964379663894 $638 $735 forward 7 unknown #
coedge $-1 $676 $679 $639 $693 reversed $629 $-1 #
edge $-1 $696 -3.6414788812955123 $720 3.6414788812955123 $692 $736 forward 7 unknown #
coedge $-1 $640 $733 $676 $715 forward $695 $-1 #
loop $-1 $-1 $694 $710 #
vertex $-1 $693 $737 #
straight-curve $-1 -66.171452986236147 0 7.394964379663894 0 -1 0 I I #
point $-1 -66.171452986236147 29.465653046567372 7.394964379663894 #
coedge $-1 $644 $684 $713 $738 reversed $645 $-1 #
face $-1 $-1 $645 $19 $-1 $739 reversed single #
point $-1 66.171452986236147 29.465653046567368 0.7181200381091557 #
edge $-1 $665 -135.98438485376781 $659 3.6414788812955123 $651 $740 forward 7 unknown #
straight-curve $-1 66.171452986236147 0 -7.394964379663894 0 -1 0 I I #
straight-curve $-1 -69.81293186753166 -26.147160806464409 -7.394964379663894 1 0 0 I I #
point $-1 -66.171452986236147 -26.147160806464409 -7.394964379663894 #
straight-curve $-1 -73.454410748827172 -29.465653046567372 0 0 0 -1 I I #
point $-1 -73.454410748827172 -29.465653046567372 -7.394964379663894 #
point $-1 66.171452986236147 -29.465653046567372 -7.394964379663894 #
straight-curve $-1 -66.171452986236147 0 -7.394964379663894 0 1 0 I I #
face $-1 $700 $695 $19 $-1 $741 reversed single #
loop $-1 $-1 $742 $673 #
plane-surface $-1 0 -29.465653046567372 0 0 1 0 0 0 1 forward_v I I I I #
coedge $-1 $743 $729 $699 $738 forward $674 $-1 #
coedge $-1 $679 $676 $744 $745 reversed $629 $-1 #
edge $-1 $746 -7.394964379663894 $696 7.394964379663894 $694 $747 forward 7 unknown #
coedge $-1 $678 $677 $723 $748 reversed $572 $-1 #
coedge $-1 $744 $743 $677 $718 forward $674 $-1 #
edge $-1 $749 -1.6592461200514812 $721 1.6592461200514812 $677 $750 forward 7 unknown #
edge $-1 $720 -1.6592461200514812 $725 1.6592461200514812 $678 $751 forward 7 unknown #
vertex $-1 $693 $752 #
vertex $-1 $745 $753 #
straight-curve $-1 -73.454410748827172 -26.147160806464409 0 0 0 -1 I I #
coedge $-1 $742 $682 $716 $748 forward $711 $-1 #
coedge $-1 $682 $742 $684 $727 reversed $711 $-1 #
vertex $-1 $719 $754 #
straight-curve $-1 0 -29.465653046567372 7.394964379663894 1 0 0 I I #
edge $-1 $685 -7.394964379663894 $755 7.394964379663894 $684 $756 forward 7 unknown #
point $-1 66.171452986236147 -29.465653046567372 7.394964379663894 #
coedge $-1 $713 $757 $688 $730 forward $674 $-1 #
edge $-1 $734 -66.171452986236147 $731 66.171452986236147 $688 $758 forward 7 unknown #
vertex $-1 $738 $759 #
straight-curve $-1 66.171452986236147 29.465653046567372 0 0 0 -1 I I #
coedge $-1 $694 $690 $757 $760 reversed $695 $-1 #
vertex $-1 $730 $761 #
straight-curve $-1 -66.171452986236147 29.465653046567372 0 0 0 -1 I I #
straight-curve $-1 -69.81293186753166 -26.147160806464409 7.394964379663894 -1 0 0 I I #
point $-1 -66.171452986236147 -26.147160806464409 7.394964379663894 #
edge $-1 $731 -29.465653046567372 $755 29.465653046567372 $699 $762 forward 7 unknown #
plane-surface $-1 66.171452986236147 0 0 -1 0 0 0 0 1 forward_v I I I I #
straight-curve $-1 -69.81293186753166 -29.465653046567372 -7.394964379663894 -1 0 0 I I #
plane-surface $-1 -66.171452986236147 0 0 1 0 0 0 0 -1 forward_v I I I I #
coedge $-1 $724 $723 $743 $763 reversed $711 $-1 #
coedge $-1 $717 $713 $742 $763 forward $674 $-1 #
coedge $-1 $757 $717 $714 $745 forward $674 $-1 #
edge $-1 $721 -3.6414788812955123 $746 3.6414788812955123 $714 $764 forward 7 unknown #
vertex $-1 $760 $765 #
straight-curve $-1 -66.171452986236147 -26.147160806464409 0 0 0 1 I I #
edge $-1 $725 -7.394964379663894 $749 7.394964379663894 $716 $766 forward 7 unknown #
vertex $-1 $718 $767 #
straight-curve $-1 -73.454410748827172 -27.806406926515891 -7.394964379663894 0 1 0 I I #
straight-curve $-1 -73.454410748827172 -27.806406926515891 7.394964379663894 0 -1 0 I I #
point $-1 -73.454410748827172 -26.147160806464409 7.394964379663894 #
point $-1 -73.454410748827172 -26.147160806464409 -7.394964379663894 #
point $-1 -73.454410748827172 -29.465653046567372 7.394964379663894 #
vertex $-1 $727 $768 #
straight-curve $-1 66.171452986236147 -29.465653046567372 0 0 0 -1 I I #
coedge $-1 $729 $744 $733 $760 forward $674 $-1 #
straight-curve $-1 0 29.465653046567372 -7.394964379663894 1 0 0 I I #
point $-1 66.171452986236147 29.465653046567372 -7.394964379663894 #
edge $-1 $746 -26.147160806464409 $734 29.465653046567372 $733 $769 forward 7 unknown #
point $-1 -66.171452986236147 29.465653046567372 -7.394964379663894 #
straight-curve $-1 66.171452986236147 0 -7.394964379663894 0 -1 0 I I #
edge $-1 $755 -135.98438485376781 $749 3.6414788812955123 $742 $770 forward 7 unknown #
straight-curve $-1 -69.81293186753166 -26.147160806464409 -7.394964379663894 1 0 0 I I #
point $-1 -66.171452986236147 -26.147160806464409 -7.394964379663894 #
straight-curve $-1 -73.454410748827172 -29.465653046567372 0 0 0 -1 I I #
point $-1 -73.454410748827172 -29.465653046567372 -7.394964379663894 #
point $-1 66.171452986236147 -29.465653046567372 -7.394964379663894 #
straight-curve $-1 -66.171452986236147 0 -7.394964379663894 0 1 0 I I #
straight-curve $-1 -69.81293186753166 -29.465653046567372 -7.394964379663894 -1 0 0 I I #
End-of-ACIS-data 