500 0 7 0           
7 Unknown 11 ACIS 5.0 NT 24 Fri Mar 26 03:32:11 1999 
-1 9.9999999999999995e-007 1e-010 
body $-1 $7 $-1 $8 #
body $-1 $9 $-1 $10 #
body $-1 $11 $-1 $12 #
body $-1 $13 $-1 $14 #
body $-1 $15 $-1 $16 #
body $-1 $17 $-1 $18 #
body $-1 $19 $-1 $20 #
lump $-1 $-1 $21 $0 #
transform $-1 1 0 0 0 1 0 0 0 1 79.976805932798243 41.722083964173301 10.173760889985079 1 rotate no_reflect no_shear #
lump $-1 $-1 $22 $1 #
transform $-1 1 0 0 0 1 0 0 0 1 79.976805932798243 41.722083964173301 10.173760889985079 1 rotate no_reflect no_shear #
lump $-1 $-1 $23 $2 #
transform $-1 1 0 0 0 1 0 0 0 1 79.976805932798243 41.722083964173301 10.173760889985079 1 rotate no_reflect no_shear #
lump $-1 $-1 $24 $3 #
transform $-1 1 0 0 0 1 0 0 0 1 79.976805932798243 41.722083964173301 10.173760889985079 1 rotate no_reflect no_shear #
lump $-1 $-1 $25 $4 #
transform $-1 1 0 0 0 1 0 0 0 1 79.976805932798243 41.722083964173301 10.173760889985079 1 rotate no_reflect no_shear #
lump $-1 $-1 $26 $5 #
transform $-1 1 0 0 0 1 0 0 0 1 79.976805932798243 41.722083964173301 10.173760889985079 1 rotate no_reflect no_shear #
lump $-1 $-1 $27 $6 #
transform $-1 1 0 0 0 1 0 0 0 1 79.976805932798243 41.722083964173301 10.173760889985079 1 rotate no_reflect no_shear #
shell $-1 $-1 $-1 $28 $-1 $7 #
shell $-1 $-1 $-1 $29 $-1 $9 #
shell $-1 $-1 $-1 $30 $-1 $11 #
shell $-1 $-1 $-1 $31 $-1 $13 #
shell $-1 $-1 $-1 $32 $-1 $15 #
shell $-1 $-1 $-1 $33 $-1 $17 #
shell $-1 $-1 $-1 $34 $-1 $19 #
face $-1 $35 $36 $21 $-1 $37 forward single #
face $-1 $38 $39 $22 $-1 $40 reversed single #
face $-1 $41 $42 $23 $-1 $43 reversed single #
face $-1 $44 $45 $24 $-1 $46 reversed single #
face $-1 $47 $48 $25 $-1 $49 forward single #
face $-1 $50 $51 $26 $-1 $52 reversed single #
face $-1 $53 $54 $27 $-1 $55 forward single #
face $-1 $56 $57 $21 $-1 $58 reversed single #
loop $-1 $-1 $59 $28 #
plane-surface $-1 0 0 10.173760889985079 0 0 1 1 0 0 forward_v I I I I #
face $-1 $60 $61 $22 $-1 $62 reversed single #
loop $-1 $-1 $63 $29 #
plane-surface $-1 -65.182983333075384 -36.350461167516357 0 1 0 0 0 0 -1 forward_v I I I I #
face $-1 $64 $65 $23 $-1 $66 reversed single #
loop $-1 $-1 $67 $30 #
plane-surface $-1 0 36.536325504927866 7.0600007513912395 0 0 1 1 0 0 forward_v I I I I #
face $-1 $68 $69 $24 $-1 $70 reversed single #
loop $-1 $-1 $71 $31 #
plane-surface $-1 68.137966701643052 -2.3615632476714641 232.55432301881291 0 -1 0 -0.66913061440640931 0 -0.74314481823134659 forward_v I I I I #
face $-1 $72 $73 $25 $-1 $74 forward single #
loop $-1 $75 $76 $32 #
cone-surface $-1 77.051269641689089 -10.429271329671888 7.3352793980508446 -0.66913061440640931 0 -0.74314481823134659 0.74314481823134659 0 -0.66913061440640931 1 I I 0 1 1 forward I I I I #
face $-1 $77 $78 $26 $-1 $79 reversed single #
loop $-1 $-1 $80 $33 #
plane-surface $-1 -187.00666451694912 -18.496979411672321 125.52446443466199 0 1 0 -0.66913061440640931 0 0.74314481823134659 forward_v I I I I #
face $-1 $81 $82 $27 $-1 $83 forward single #
loop $-1 $84 $85 $34 #
cone-surface $-1 -77.051269641689075 -10.429271329671888 7.3352793980508233 0.66913061440640931 0 -0.74314481823134659 0.74314481823134659 0 0.66913061440640931 1 I I 0 1 1 forward I I I I #
face $-1 $86 $87 $21 $-1 $88 reversed single #
loop $-1 $-1 $89 $35 #
plane-surface $-1 0 0 -10.173760889985079 0 0 1 1 0 0 forward_v I I I I #
coedge $-1 $90 $91 $92 $93 forward $36 $-1 #
face $-1 $94 $95 $22 $-1 $96 reversed single #
loop $-1 $-1 $97 $38 #
plane-surface $-1 -62.406133742951731 -30.978838370859414 0 0 -1 0 0 0 -1 forward_v I I I I #
coedge $-1 $98 $99 $100 $101 forward $39 $-1 #
face $-1 $102 $103 $23 $-1 $104 reversed single #
loop $-1 $-1 $105 $41 #
plane-surface $-1 0 31.350567045682432 8.6168808206881593 0 1 0 0 0 1 forward_v I I I I #
coedge $-1 $106 $107 $108 $109 reversed $42 $-1 #
face $-1 $110 $111 $24 $-1 $112 reversed single #
loop $-1 $-1 $113 $44 #
plane-surface $-1 -38.891891882507849 -10.429271329671892 113.68562520350685 0.66913061440640931 0 0.74314481823134659 0.74314481823134659 0 -0.66913061440640931 forward_v I I I I #
coedge $-1 $114 $115 $116 $117 reversed $45 $-1 #
face $-1 $-1 $118 $25 $-1 $119 forward single #
loop $-1 $120 $121 $47 #
cone-surface $-1 75.744732232862248 -10.429271329671888 5.8842226323154811 -0.66913061440640931 0 -0.74314481823134659 0.3715724091156733 0 -0.33456530720320465 1 I I -0.70710678118654746 0.70710678118654746 0.5 forward I I I I #
loop $-1 $-1 $122 $32 #
coedge $-1 $76 $76 $123 $124 reversed $48 $-1 #
face $-1 $125 $126 $26 $-1 $127 reversed single #
loop $-1 $-1 $128 $50 #
plane-surface $-1 -79.976805932798214 -10.429271329671892 6.6557666193559299 -0.66913061440640931 0 0.74314481823134659 0.74314481823134659 0 0.66913061440640931 forward_v I I I I #
coedge $-1 $129 $130 $131 $132 reversed $51 $-1 #
face $-1 $-1 $133 $27 $-1 $134 forward single #
loop $-1 $135 $136 $53 #
cone-surface $-1 -75.744732232862233 -10.429271329671888 5.8842226323154598 0.66913061440640931 0 -0.74314481823134659 0.3715724091156733 0 0.33456530720320465 1 I I -0.70710678118654746 0.70710678118654746 0.5 forward I I I I #
loop $-1 $-1 $137 $34 #
coedge $-1 $85 $85 $138 $139 reversed $54 $-1 #
face $-1 $140 $141 $21 $-1 $142 reversed single #
loop $-1 $-1 $143 $56 #
plane-surface $-1 0 -41.722083964173301 0 0 1 0 0 0 1 forward_v I I I I #
coedge $-1 $144 $145 $146 $147 forward $57 $-1 #
coedge $-1 $148 $59 $149 $150 forward $36 $-1 #
coedge $-1 $59 $148 $151 $152 forward $36 $-1 #
coedge $-1 $153 $154 $59 $93 reversed $155 $-1 #
edge $-1 $156 -41.722083964173301 $157 41.722083964173301 $92 $158 forward 7 unknown #
face $-1 $159 $160 $22 $-1 $161 forward single #
loop $-1 $-1 $162 $60 #
plane-surface $-1 -59.629284152828085 -36.350461167516357 0 -1 0 0 0 0 1 forward_v I I I I #
coedge $-1 $163 $164 $165 $166 forward $61 $-1 #
coedge $-1 $167 $63 $168 $169 reversed $39 $-1 #
coedge $-1 $63 $167 $170 $171 reversed $39 $-1 #
coedge $-1 $164 $163 $63 $101 reversed $61 $-1 #
edge $-1 $172 -10.173760889985079 $173 10.173760889985079 $100 $174 forward 7 unknown #
face $-1 $175 $176 $23 $-1 $177 reversed single #
loop $-1 $-1 $178 $64 #
plane-surface $-1 79.976805932798243 0 0 -1 0 0 0 0 1 forward_v I I I I #
coedge $-1 $179 $180 $181 $182 reversed $65 $-1 #
coedge $-1 $183 $67 $179 $184 forward $42 $-1 #
coedge $-1 $67 $183 $185 $186 reversed $42 $-1 #
coedge $-1 $187 $178 $67 $109 forward $103 $-1 #
edge $-1 $188 13.082404293218499 $189 23.453921211709368 $108 $190 forward 7 unknown #
face $-1 $191 $192 $24 $-1 $193 reversed single #
loop $-1 $-1 $194 $68 #
plane-surface $-1 68.137966701643052 -18.496979411672321 232.55432301881291 0 1 0 0.66913061440640931 0 0.74314481823134659 forward_v I I I I #
coedge $-1 $195 $196 $197 $198 reversed $69 $-1 #
coedge $-1 $115 $71 $199 $200 reversed $45 $-1 #
coedge $-1 $71 $114 $195 $201 reversed $45 $-1 #
coedge $-1 $197 $202 $71 $117 forward $203 $-1 #
edge $-1 $204 -45.907822581976717 $205 -42.000694203005651 $116 $206 forward 7 unknown #
loop $-1 $-1 $123 $72 #
plane-surface $-1 -38.891891882507849 -10.429271329671892 113.68562520350685 0.66913061440640931 0 0.74314481823134659 0.74314481823134659 0 -0.66913061440640931 forward_v I I I I #
loop $-1 $-1 $207 $47 #
coedge $-1 $121 $121 $122 $208 reversed $73 $-1 #
coedge $-1 $122 $122 $121 $208 forward $75 $-1 #
coedge $-1 $123 $123 $76 $124 forward $118 $-1 #
edge $-1 $209 0 $209 6.2831853071796004 $123 $210 forward 7 unknown #
face $-1 $211 $212 $26 $-1 $213 reversed single #
loop $-1 $-1 $214 $77 #
plane-surface $-1 -187.00666451694912 -2.3615632476714641 125.52446443466199 0 -1 0 0.66913061440640931 0 -0.74314481823134659 forward_v I I I I #
coedge $-1 $215 $216 $217 $218 reversed $78 $-1 #
coedge $-1 $130 $80 $219 $220 reversed $51 $-1 #
coedge $-1 $80 $129 $215 $221 reversed $51 $-1 #
coedge $-1 $217 $222 $80 $132 forward $223 $-1 #
edge $-1 $224 13.526526325676315 $225 17.433654704647395 $131 $226 forward 7 unknown #
loop $-1 $-1 $138 $81 #
plane-surface $-1 -79.976805932798214 -10.429271329671892 6.6557666193559299 -0.66913061440640931 0 0.74314481823134659 0.74314481823134659 0 0.66913061440640931 forward_v I I I I #
loop $-1 $-1 $227 $53 #
coedge $-1 $136 $136 $137 $228 reversed $82 $-1 #
coedge $-1 $137 $137 $136 $228 forward $84 $-1 #
coedge $-1 $138 $138 $85 $139 forward $133 $-1 #
edge $-1 $229 0 $229 6.2831853071796004 $138 $230 forward 7 unknown #
face $-1 $231 $232 $21 $-1 $233 reversed single #
loop $-1 $-1 $234 $86 #
plane-surface $-1 -79.976805932798243 0 0 1 0 0 0 0 -1 forward_v I I I I #
coedge $-1 $235 $151 $236 $237 forward $87 $-1 #
coedge $-1 $238 $89 $235 $239 forward $57 $-1 #
coedge $-1 $89 $238 $240 $241 forward $57 $-1 #
coedge $-1 $154 $153 $89 $147 reversed $155 $-1 #
edge $-1 $242 -41.722083964173301 $243 41.722083964173301 $146 $244 forward 7 unknown #
coedge $-1 $91 $90 $245 $246 forward $36 $-1 #
coedge $-1 $247 $248 $90 $150 reversed $232 $-1 #
edge $-1 $157 -79.976805932798243 $249 79.976805932798243 $149 $250 forward 7 unknown #
coedge $-1 $143 $251 $91 $152 reversed $87 $-1 #
edge $-1 $252 -79.976805932798243 $156 79.976805932798243 $151 $253 forward 7 unknown #
coedge $-1 $146 $92 $251 $254 forward $155 $-1 #
coedge $-1 $92 $146 $247 $255 reversed $155 $-1 #
loop $-1 $-1 $153 $231 #
vertex $-1 $93 $256 #
vertex $-1 $93 $257 #
straight-curve $-1 79.976805932798243 0 10.173760889985079 0 1 0 I I #
face $-1 $258 $259 $22 $-1 $260 reversed single #
loop $-1 $-1 $261 $94 #
plane-surface $-1 0 0 10.173760889985079 0 0 1 1 0 0 forward_v I I I I #
coedge $-1 $262 $263 $264 $265 reversed $95 $-1 #
coedge $-1 $100 $97 $266 $267 reversed $61 $-1 #
coedge $-1 $97 $100 $268 $269 reversed $61 $-1 #
coedge $-1 $263 $262 $97 $166 reversed $95 $-1 #
edge $-1 $270 -10.173760889985079 $271 10.173760889985079 $165 $272 forward 7 unknown #
coedge $-1 $99 $98 $273 $274 reversed $39 $-1 #
coedge $-1 $266 $275 $98 $169 forward $259 $-1 #
edge $-1 $276 -23.546853380415122 $173 -12.803607787101235 $168 $277 forward 7 unknown #
coedge $-1 $278 $268 $99 $171 forward $160 $-1 #
edge $-1 $172 12.803607787101235 $279 23.546853380415122 $170 $280 forward 7 unknown #
vertex $-1 $171 $281 #
vertex $-1 $169 $282 #
straight-curve $-1 -65.182983333075384 -30.978838370859414 0 0 0 -1 I I #
face $-1 $283 $284 $23 $-1 $285 forward single #
loop $-1 $-1 $185 $102 #
plane-surface $-1 0 41.722083964173301 0 0 -1 0 0 0 -1 forward_v I I I I #
coedge $-1 $108 $286 $287 $288 forward $103 $-1 #
coedge $-1 $287 $105 $106 $184 reversed $65 $-1 #
coedge $-1 $105 $287 $289 $290 reversed $65 $-1 #
coedge $-1 $291 $292 $105 $182 forward $293 $-1 #
edge $-1 $294 2.7515603410471599 $295 5.8653204796409995 $181 $296 forward 7 unknown #
coedge $-1 $107 $106 $292 $297 reversed $42 $-1 #
edge $-1 $188 -79.976805932798243 $294 79.976805932798243 $179 $298 forward 7 unknown #
coedge $-1 $299 $300 $107 $186 forward $176 $-1 #
edge $-1 $189 -79.976805932798243 $301 79.976805932798243 $185 $302 forward 7 unknown #
coedge $-1 $286 $108 $300 $303 reversed $103 $-1 #
vertex $-1 $109 $304 #
vertex $-1 $186 $305 #
straight-curve $-1 79.976805932798243 18.268162752463933 7.0600007513912395 0 1 0 I I #
face $-1 $-1 $203 $24 $-1 $306 forward single #
loop $-1 $-1 $307 $110 #
plane-surface $-1 79.976805932798243 0 0 -1 0 0 0 0 1 forward_v I I I I #
coedge $-1 $308 $309 $310 $311 reversed $111 $-1 #
coedge $-1 $312 $113 $115 $201 forward $69 $-1 #
coedge $-1 $113 $312 $308 $313 forward $69 $-1 #
coedge $-1 $310 $116 $113 $198 forward $203 $-1 #
edge $-1 $205 -2.8530724171644817 $314 13.282343746836375 $197 $315 forward 7 unknown #
coedge $-1 $316 $317 $114 $200 forward $192 $-1 #
edge $-1 $318 -109.62139489005052 $204 -106.10340061942138 $199 $319 forward 7 unknown #
edge $-1 $205 154.69605198881521 $318 159.95361186559651 $115 $320 forward 7 unknown #
coedge $-1 $116 $310 $316 $321 forward $203 $-1 #
loop $-1 $-1 $310 $191 #
vertex $-1 $200 $322 #
vertex $-1 $117 $323 #
straight-curve $-1 34.068983350821526 -2.3615632476714641 10.173760889985076 -1 0 0 I I #
coedge $-1 $207 $207 $-1 $324 reversed $120 $-1 #
edge $-1 $325 0 $325 6.2831853071796004 $121 $326 forward 7 unknown #
vertex $-1 $124 $327 #
ellipse-curve $-1 78.02324174331271 -10.429271329671888 8.4147637546705152 0.66913061440640931 0 0.74314481823134659 0.74314481823134659 0 -0.66913061440640931 1 I I #
face $-1 $-1 $223 $26 $-1 $328 forward single #
loop $-1 $-1 $329 $125 #
plane-surface $-1 -79.976805932798243 0 0 1 0 0 0 0 -1 forward_v I I I I #
coedge $-1 $330 $331 $332 $333 reversed $126 $-1 #
coedge $-1 $334 $128 $130 $221 forward $78 $-1 #
coedge $-1 $128 $334 $330 $335 forward $78 $-1 #
coedge $-1 $332 $131 $128 $218 forward $223 $-1 #
edge $-1 $225 -13.282343746836375 $336 2.8530724171644817 $217 $337 forward 7 unknown #
coedge $-1 $338 $339 $129 $220 forward $212 $-1 #
edge $-1 $340 -56.106465597975095 $224 -52.588471327345914 $219 $341 forward 7 unknown #
edge $-1 $225 -5.2575598767812881 $340 3.8356359867099031e-014 $130 $342 forward 7 unknown #
coedge $-1 $131 $332 $338 $343 forward $223 $-1 #
loop $-1 $-1 $332 $211 #
vertex $-1 $220 $344 #
vertex $-1 $132 $345 #
straight-curve $-1 -93.503332258474558 -18.496979411672321 10.173760889985076 1 0 0 I I #
coedge $-1 $227 $227 $-1 $346 reversed $135 $-1 #
edge $-1 $347 0 $347 6.2831853071796004 $136 $348 forward 7 unknown #
vertex $-1 $139 $349 #
ellipse-curve $-1 -78.023241743312695 -10.429271329671888 8.4147637546704956 -0.66913061440640931 0 0.74314481823134659 0.74314481823134659 0 0.66913061440640931 1 I I #
face $-1 $-1 $155 $21 $-1 $350 reversed single #
loop $-1 $-1 $247 $140 #
plane-surface $-1 0 41.722083964173301 0 0 -1 0 0 0 -1 forward_v I I I I #
coedge $-1 $351 $245 $248 $352 forward $141 $-1 #
coedge $-1 $251 $143 $144 $239 reversed $87 $-1 #
coedge $-1 $245 $351 $143 $237 reversed $141 $-1 #
edge $-1 $252 -10.173760889985079 $353 10.173760889985079 $236 $354 forward 7 unknown #
coedge $-1 $145 $144 $351 $355 forward $57 $-1 #
edge $-1 $243 -79.976805932798243 $353 79.976805932798243 $235 $356 forward 7 unknown #
coedge $-1 $248 $247 $145 $241 reversed $232 $-1 #
edge $-1 $357 -79.976805932798243 $242 79.976805932798243 $240 $358 forward 7 unknown #
vertex $-1 $147 $359 #
vertex $-1 $254 $360 #
straight-curve $-1 79.976805932798243 0 -10.173760889985079 0 -1 0 I I #
coedge $-1 $234 $236 $148 $246 reversed $141 $-1 #
edge $-1 $249 -41.722083964173301 $252 41.722083964173301 $245 $361 forward 7 unknown #
coedge $-1 $240 $149 $154 $255 forward $232 $-1 #
coedge $-1 $149 $240 $234 $352 reversed $232 $-1 #
vertex $-1 $150 $362 #
straight-curve $-1 0 41.722083964173301 10.173760889985079 -1 0 0 I I #
coedge $-1 $151 $235 $153 $254 reversed $87 $-1 #
vertex $-1 $246 $363 #
straight-curve $-1 0 -41.722083964173301 10.173760889985079 1 0 0 I I #
edge $-1 $156 -10.173760889985079 $243 10.173760889985079 $153 $364 forward 7 unknown #
edge $-1 $157 -10.173760889985079 $242 10.173760889985079 $154 $365 forward 7 unknown #
point $-1 79.976805932798243 -41.722083964173301 10.173760889985079 #
point $-1 79.976805932798243 41.722083964173301 10.173760889985079 #
face $-1 $-1 $366 $22 $-1 $367 reversed single #
loop $-1 $-1 $368 $159 #
plane-surface $-1 0 0 -10.173760889985079 0 0 1 1 0 0 forward_v I I I I #
coedge $-1 $268 $278 $263 $369 forward $160 $-1 #
coedge $-1 $165 $162 $368 $370 reversed $95 $-1 #
coedge $-1 $162 $165 $261 $369 reversed $95 $-1 #
coedge $-1 $371 $372 $162 $265 forward $366 $-1 #
edge $-1 $373 -10.173760889985079 $374 10.173760889985079 $264 $375 forward 7 unknown #
coedge $-1 $368 $168 $163 $267 forward $259 $-1 #
edge $-1 $173 -33.979916461599515 $271 -28.426217281352219 $266 $376 forward 7 unknown #
coedge $-1 $170 $261 $164 $269 forward $160 $-1 #
edge $-1 $270 28.426217281352219 $172 33.979916461599515 $268 $377 forward 7 unknown #
vertex $-1 $269 $378 #
vertex $-1 $267 $379 #
straight-curve $-1 -59.629284152828085 -30.978838370859414 0 0 0 -1 I I #
coedge $-1 $372 $371 $167 $274 forward $366 $-1 #
edge $-1 $279 -10.173760889985079 $276 10.173760889985079 $273 $380 forward 7 unknown #
coedge $-1 $168 $368 $372 $381 forward $259 $-1 #
vertex $-1 $169 $382 #
straight-curve $-1 -65.182983333075384 -18.175230583758179 -10.173760889985079 0 1 0 I I #
coedge $-1 $261 $170 $371 $383 forward $160 $-1 #
vertex $-1 $383 $384 #
straight-curve $-1 -65.182983333075384 -18.175230583758179 10.173760889985079 0 -1 0 I I #
point $-1 -65.182983333075384 -30.978838370859414 10.173760889985079 #
point $-1 -65.182983333075384 -30.978838370859414 -10.173760889985079 #
face $-1 $-1 $293 $23 $-1 $385 reversed single #
loop $-1 $-1 $289 $175 #
plane-surface $-1 0 0 10.173760889985079 0 0 1 1 0 0 forward_v I I I I #
coedge $-1 $178 $187 $386 $387 reversed $103 $-1 #
coedge $-1 $180 $179 $178 $288 reversed $65 $-1 #
edge $-1 $388 -5.8653204796409995 $188 -2.7515603410471599 $178 $389 forward 7 unknown #
coedge $-1 $386 $390 $180 $290 forward $284 $-1 #
edge $-1 $295 -79.976805932798243 $388 79.976805932798243 $289 $391 forward 7 unknown #
coedge $-1 $392 $181 $390 $393 reversed $293 $-1 #
coedge $-1 $181 $392 $183 $297 forward $293 $-1 #
loop $-1 $-1 $181 $283 #
vertex $-1 $297 $394 #
vertex $-1 $182 $395 #
straight-curve $-1 -79.976805932798243 31.350567045682432 4.3084404103440797 0 0 1 I I #
edge $-1 $301 -23.453921211709368 $294 -13.082404293218499 $292 $396 forward 7 unknown #
straight-curve $-1 0 31.350567045682432 7.0600007513912395 -1 0 0 I I #
coedge $-1 $397 $185 $392 $398 reversed $176 $-1 #
coedge $-1 $185 $397 $187 $303 forward $176 $-1 #
vertex $-1 $186 $399 #
straight-curve $-1 0 41.722083964173301 7.0600007513912395 -1 0 0 I I #
edge $-1 $400 -10.173760889985079 $189 -7.0600007513912395 $187 $401 forward 7 unknown #
point $-1 79.976805932798243 31.350567045682432 7.0600007513912395 #
point $-1 79.976805932798243 41.722083964173301 7.0600007513912395 #
plane-surface $-1 0 0 10.173760889985079 0 0 1 1 0 0 forward_v I I I I #
coedge $-1 $317 $316 $309 $402 forward $192 $-1 #
coedge $-1 $309 $194 $196 $313 reversed $111 $-1 #
coedge $-1 $194 $308 $307 $402 reversed $111 $-1 #
coedge $-1 $202 $197 $194 $311 forward $203 $-1 #
edge $-1 $314 42.000694203005651 $403 45.907822581976717 $310 $404 forward 7 unknown #
coedge $-1 $196 $195 $317 $405 reversed $69 $-1 #
edge $-1 $406 -159.95361186559651 $314 -154.69605198881521 $308 $407 forward 7 unknown #
vertex $-1 $198 $408 #
straight-curve $-1 76.069677553827205 -5.2146356648359458 10.173760889985061 0 -1 0 I I #
coedge $-1 $307 $199 $202 $321 reversed $192 $-1 #
coedge $-1 $199 $307 $312 $405 forward $192 $-1 #
vertex $-1 $200 $409 #
straight-curve $-1 79.976805932798243 -2.3615632476714641 116.27716150940645 0 0 1 I I #
straight-curve $-1 -38.891891882507849 -2.3615632476714641 113.68562520350685 0.74314481823134659 0 -0.66913061440640931 I I #
edge $-1 $403 -18.496979411672321 $204 -2.3615632476714641 $316 $410 forward 7 unknown #
point $-1 79.976805932798243 -2.3615632476714641 10.173760889985079 #
point $-1 76.069677553827177 -2.3615632476714641 10.17376088998509 #
edge $-1 $411 1 $411 0 $207 $-1 forward 7 unknown #
vertex $-1 $208 $412 #
ellipse-curve $-1 76.079297540065454 -10.429271329671888 6.2557950414311545 0.66913061440640931 0 0.74314481823134659 0.74314481823134659 0 -0.66913061440640931 1 I I #
point $-1 78.766386561544081 -10.429271329671888 7.7456331402641254 #
plane-surface $-1 0 0 10.173760889985079 0 0 1 1 0 0 forward_v I I I I #
coedge $-1 $339 $338 $331 $413 forward $212 $-1 #
coedge $-1 $331 $214 $216 $335 reversed $126 $-1 #
coedge $-1 $214 $330 $329 $413 reversed $126 $-1 #
coedge $-1 $222 $217 $214 $333 forward $223 $-1 #
edge $-1 $336 -17.433654704647395 $414 -13.526526325676315 $332 $415 forward 7 unknown #
coedge $-1 $216 $215 $339 $416 reversed $78 $-1 #
edge $-1 $417 -3.8356359867099031e-014 $336 5.2575598767812881 $330 $418 forward 7 unknown #
vertex $-1 $218 $419 #
straight-curve $-1 -76.069677553827162 -5.2146356648359458 10.173760889985076 0 1 0 I I #
coedge $-1 $329 $219 $222 $343 reversed $212 $-1 #
coedge $-1 $219 $329 $334 $416 forward $212 $-1 #
vertex $-1 $220 $420 #
straight-curve $-1 -79.976805932798243 -18.496979411672321 62.762232217330997 0 0 1 I I #
straight-curve $-1 -79.976805932798214 -18.496979411672321 6.6557666193559299 -0.74314481823134659 0 -0.66913061440640931 I I #
edge $-1 $414 2.3615632476714641 $224 18.496979411672321 $338 $421 forward 7 unknown #
point $-1 -79.976805932798243 -18.496979411672321 10.173760889985079 #
point $-1 -76.069677553827162 -18.496979411672321 10.173760889985079 #
edge $-1 $422 1 $422 0 $227 $-1 forward 7 unknown #
vertex $-1 $228 $423 #
ellipse-curve $-1 -76.07929754006544 -10.429271329671888 6.2557950414311332 -0.66913061440640931 0 0.74314481823134659 0.74314481823134659 0 0.66913061440640931 1 I I #
point $-1 -77.280096925081381 -10.429271329671888 9.0838943690769227 #
plane-surface $-1 79.976805932798243 0 0 -1 0 0 0 0 1 forward_v I I I I #
coedge $-1 $236 $234 $238 $355 reversed $141 $-1 #
edge $-1 $249 -10.173760889985079 $357 10.173760889985079 $248 $424 forward 7 unknown #
vertex $-1 $355 $425 #
straight-curve $-1 -79.976805932798243 -41.722083964173301 0 0 0 -1 I I #
edge $-1 $353 -41.722083964173301 $357 41.722083964173301 $351 $426 forward 7 unknown #
straight-curve $-1 0 -41.722083964173301 -10.173760889985079 -1 0 0 I I #
vertex $-1 $241 $427 #
straight-curve $-1 0 41.722083964173301 -10.173760889985079 1 0 0 I I #
point $-1 79.976805932798243 41.722083964173301 -10.173760889985079 #
point $-1 79.976805932798243 -41.722083964173301 -10.173760889985079 #
straight-curve $-1 -79.976805932798243 0 10.173760889985079 0 -1 0 I I #
point $-1 -79.976805932798243 41.722083964173301 10.173760889985079 #
point $-1 -79.976805932798243 -41.722083964173301 10.173760889985079 #
straight-curve $-1 79.976805932798243 -41.722083964173301 0 0 0 -1 I I #
straight-curve $-1 79.976805932798243 41.722083964173301 0 0 0 -1 I I #
loop $-1 $-1 $264 $258 #
plane-surface $-1 0 -41.722083964173301 0 0 1 0 0 0 1 forward_v I I I I #
coedge $-1 $275 $266 $262 $370 forward $259 $-1 #
edge $-1 $374 -23.546853380415122 $270 -12.803607787101235 $261 $428 forward 7 unknown #
edge $-1 $271 12.803607787101235 $373 23.546853380415122 $368 $429 forward 7 unknown #
coedge $-1 $273 $264 $278 $383 reversed $366 $-1 #
coedge $-1 $264 $273 $275 $381 reversed $366 $-1 #
vertex $-1 $381 $430 #
vertex $-1 $265 $431 #
straight-curve $-1 -59.629284152828085 -41.722083964173301 0 0 0 1 I I #
straight-curve $-1 -31.203066871475865 -30.978838370859414 -10.173760889985079 1 0 0 I I #
straight-curve $-1 -31.203066871475865 -30.978838370859414 10.173760889985079 -1 0 0 I I #
point $-1 -59.629284152828085 -30.978838370859414 10.173760889985079 #
point $-1 -59.629284152828085 -30.978838370859414 -10.173760889985079 #
straight-curve $-1 -65.182983333075384 -41.722083964173301 0 0 0 -1 I I #
edge $-1 $373 59.629284152828085 $276 65.182983333075384 $372 $432 forward 7 unknown #
point $-1 -65.182983333075384 -41.722083964173301 -10.173760889985079 #
edge $-1 $279 -65.182983333075384 $374 -59.629284152828085 $371 $433 forward 7 unknown #
point $-1 -65.182983333075384 -41.722083964173301 10.173760889985079 #
plane-surface $-1 -79.976805932798243 0 0 1 0 0 0 0 -1 forward_v I I I I #
coedge $-1 $434 $289 $286 $387 forward $284 $-1 #
edge $-1 $388 31.350567045682432 $400 41.722083964173301 $286 $435 forward 7 unknown #
vertex $-1 $387 $436 #
straight-curve $-1 79.976805932798243 31.350567045682432 4.3084404103440797 0 0 -1 I I #
coedge $-1 $289 $434 $291 $393 forward $284 $-1 #
straight-curve $-1 0 31.350567045682432 10.173760889985079 1 0 0 I I #
coedge $-1 $292 $291 $299 $398 forward $293 $-1 #
edge $-1 $437 -41.722083964173301 $295 -31.350567045682432 $291 $438 forward 7 unknown #
point $-1 -79.976805932798243 31.350567045682432 7.0600007513912395 #
point $-1 -79.976805932798243 31.350567045682432 10.173760889985079 #
straight-curve $-1 -79.976805932798243 18.268162752463933 7.0600007513912395 0 -1 0 I I #
coedge $-1 $300 $299 $434 $439 reversed $176 $-1 #
edge $-1 $437 -10.173760889985079 $301 -7.0600007513912395 $299 $440 forward 7 unknown #
point $-1 -79.976805932798243 41.722083964173301 7.0600007513912395 #
vertex $-1 $387 $441 #
straight-curve $-1 79.976805932798243 41.722083964173301 0 0 0 -1 I I #
edge $-1 $403 106.10340061942138 $406 109.62139489005052 $307 $442 forward 7 unknown #
vertex $-1 $321 $443 #
straight-curve $-1 34.068983350821526 -18.496979411672321 10.173760889985076 1 0 0 I I #
edge $-1 $406 -13.282343746836375 $318 2.8530724171644817 $317 $444 forward 7 unknown #
vertex $-1 $405 $445 #
straight-curve $-1 -38.891891882507849 -18.496979411672321 113.68562520350685 -0.74314481823134659 0 0.66913061440640931 I I #
point $-1 76.069677553827177 -18.496979411672321 10.17376088998509 #
point $-1 79.976805932798243 -2.3615632476714641 6.6557666193559299 #
straight-curve $-1 79.976805932798243 0 10.173760889985079 0 1 0 I I #
vertex $-1 $324 $446 #
point $-1 76.822442358296797 -10.429271329671888 5.5866644270247452 #
edge $-1 $414 52.588471327345914 $417 56.106465597975095 $329 $447 forward 7 unknown #
vertex $-1 $343 $448 #
straight-curve $-1 -93.503332258474558 -2.3615632476714641 10.173760889985076 -1 0 0 I I #
edge $-1 $417 -2.8530724171644817 $340 13.282343746836375 $339 $449 forward 7 unknown #
vertex $-1 $416 $450 #
straight-curve $-1 -79.976805932798214 -2.3615632476714641 6.6557666193559299 0.74314481823134659 0 0.66913061440640931 I I #
point $-1 -76.069677553827162 -2.3615632476714641 10.173760889985079 #
point $-1 -79.976805932798243 -18.496979411672321 6.6557666193559042 #
straight-curve $-1 -79.976805932798243 0 10.173760889985079 0 -1 0 I I #
vertex $-1 $346 $451 #
point $-1 -75.336152721834097 -10.429271329671888 6.9249256558375425 #
straight-curve $-1 -79.976805932798243 41.722083964173301 0 0 0 -1 I I #
point $-1 -79.976805932798243 -41.722083964173301 -10.173760889985079 #
straight-curve $-1 -79.976805932798243 0 -10.173760889985079 0 1 0 I I #
point $-1 -79.976805932798243 41.722083964173301 -10.173760889985079 #
straight-curve $-1 -59.629284152828085 -18.175230583758179 10.173760889985079 0 1 0 I I #
straight-curve $-1 -59.629284152828085 -18.175230583758179 -10.173760889985079 0 -1 0 I I #
point $-1 -59.629284152828085 -41.722083964173301 -10.173760889985079 #
point $-1 -59.629284152828085 -41.722083964173301 10.173760889985079 #
straight-curve $-1 0 -41.722083964173301 -10.173760889985079 -1 0 0 I I #
straight-curve $-1 0 -41.722083964173301 10.173760889985079 1 0 0 I I #
coedge $-1 $390 $386 $397 $439 forward $284 $-1 #
straight-curve $-1 79.976805932798243 0 10.173760889985079 0 1 0 I I #
point $-1 79.976805932798243 31.350567045682432 10.173760889985079 #
vertex $-1 $439 $452 #
straight-curve $-1 -79.976805932798243 0 10.173760889985079 0 -1 0 I I #
edge $-1 $400 -79.976805932798243 $437 79.976805932798243 $397 $453 forward 7 unknown #
straight-curve $-1 -79.976805932798243 41.722083964173301 0 0 0 -1 I I #
point $-1 79.976805932798243 41.722083964173301 10.173760889985079 #
straight-curve $-1 79.976805932798243 -18.496979411672321 116.27716150940645 0 0 -1 I I #
point $-1 79.976805932798243 -18.496979411672321 10.173760889985079 #
straight-curve $-1 79.976805932798243 -5.2146356648359458 6.6557666193559299 0 1 0 I I #
point $-1 79.976805932798243 -18.496979411672321 6.6557666193559299 #
point $-1 75.410166925659041 -10.429271329671888 5.5126502231998078 #
straight-curve $-1 -79.976805932798243 -2.3615632476714641 62.762232217330997 0 0 -1 I I #
point $-1 -79.976805932798243 -2.3615632476714641 10.173760889985079 #
straight-curve $-1 -79.976805932798243 -5.2146356648359458 6.6557666193559086 0 -1 0 I I #
point $-1 -79.976805932798243 -2.3615632476714641 6.6557666193559042 #
point $-1 -75.410166925659027 -10.429271329671888 5.5126502231997865 #
point $-1 -79.976805932798243 41.722083964173301 10.173760889985079 #
straight-curve $-1 0 41.722083964173301 10.173760889985079 -1 0 0 I I #
End-of-ACIS-data 