500 0 6 0           
7 Unknown 11 ACIS 5.0 NT 24 Thu Mar 25 22:37:33 1999 
-1 9.9999999999999995e-007 1e-010 
body $-1 $6 $-1 $7 #
body $-1 $8 $-1 $9 #
body $-1 $10 $-1 $11 #
body $-1 $12 $-1 $13 #
body $-1 $14 $-1 $15 #
body $-1 $16 $-1 $17 #
lump $-1 $-1 $18 $0 #
transform $-1 1 0 0 0 1 0 0 0 1 69.507736442152165 32.421953347243935 10.306514189750734 1 rotate no_reflect no_shear #
lump $-1 $-1 $19 $1 #
transform $-1 1 0 0 0 1 0 0 0 1 69.507736442152165 32.421953347243935 10.306514189750734 1 rotate no_reflect no_shear #
lump $-1 $-1 $20 $2 #
transform $-1 1 0 0 0 1 0 0 0 1 69.507736442152165 32.421953347243935 10.306514189750734 1 rotate no_reflect no_shear #
lump $-1 $-1 $21 $3 #
transform $-1 1 0 0 0 1 0 0 0 1 69.507736442152165 32.421953347243935 10.306514189750734 1 rotate no_reflect no_shear #
lump $-1 $-1 $22 $4 #
transform $-1 1 0 0 0 1 0 0 0 1 69.507736442152165 32.421953347243935 10.306514189750734 1 rotate no_reflect no_shear #
lump $-1 $-1 $23 $5 #
transform $-1 1 0 0 0 1 0 0 0 1 69.507736442152165 32.421953347243935 10.306514189750734 1 rotate no_reflect no_shear #
shell $-1 $-1 $-1 $24 $-1 $6 #
shell $-1 $-1 $-1 $25 $-1 $8 #
shell $-1 $-1 $-1 $26 $-1 $10 #
shell $-1 $-1 $-1 $27 $-1 $12 #
shell $-1 $-1 $-1 $28 $-1 $14 #
shell $-1 $-1 $-1 $29 $-1 $16 #
face $-1 $30 $31 $18 $-1 $32 forward single #
face $-1 $33 $34 $19 $-1 $35 forward single #
face $-1 $36 $37 $20 $-1 $38 reversed single #
face $-1 $39 $40 $21 $-1 $41 forward single #
face $-1 $42 $43 $22 $-1 $44 reversed single #
face $-1 $45 $46 $23 $-1 $47 forward single #
face $-1 $48 $49 $18 $-1 $50 reversed single #
loop $-1 $-1 $51 $24 #
plane-surface $-1 0 0 10.306514189750734 0 0 1 1 0 0 forward_v I I I I #
face $-1 $52 $53 $19 $-1 $54 reversed single #
loop $-1 $-1 $55 $25 #
plane-surface $-1 0 -26.822050231999111 -4.4423035738605172 0 0 1 1 0 0 forward_v I I I I #
face $-1 $56 $57 $20 $-1 $58 reversed single #
loop $-1 $-1 $59 $26 #
plane-surface $-1 93.466955479876319 -7.9740334349170947 198.55496156930363 0 -1 0 -0.78801076186113728 0 -0.61566146476048833 forward_v I I I I #
face $-1 $60 $61 $21 $-1 $62 forward single #
loop $-1 $63 $64 $27 #
cone-surface $-1 65.548304466063954 -11.244792103466438 5.8721448536518484 -0.78801076186113728 0 -0.61566146476048833 0.9234921971407325 0 -1.182016142791706 1 I I 0 1 1.5 forward I I I I #
face $-1 $65 $66 $22 $-1 $67 reversed single #
loop $-1 $-1 $68 $28 #
plane-surface $-1 -179.05342514019907 -14.51555077201578 89.009272871256712 0 1 0 -0.78801076186113728 0 0.61566146476048833 forward_v I I I I #
face $-1 $69 $70 $23 $-1 $71 forward single #
loop $-1 $72 $73 $29 #
cone-surface $-1 -65.548304466063954 -11.244792103466438 5.8721448536518448 0.78801076186113728 0 -0.61566146476048833 0.9234921971407325 0 1.182016142791706 1 I I 0 1 1.5 forward I I I I #
face $-1 $74 $75 $18 $-1 $76 reversed single #
loop $-1 $-1 $77 $30 #
plane-surface $-1 0 0 -10.306514189750734 0 0 1 1 0 0 forward_v I I I I #
coedge $-1 $78 $79 $80 $81 forward $31 $-1 #
face $-1 $82 $83 $19 $-1 $84 reversed single #
loop $-1 $-1 $85 $33 #
plane-surface $-1 0 -21.222147116754286 -7.3744088818056257 0 -1 0 0 0 -1 forward_v I I I I #
coedge $-1 $86 $87 $88 $89 reversed $34 $-1 #
face $-1 $90 $91 $20 $-1 $92 reversed single #
loop $-1 $-1 $93 $36 #
plane-surface $-1 -16.078733218170612 -11.244792103466438 112.96849190898088 0.78801076186113728 0 0.61566146476048833 0.61566146476048833 0 -0.78801076186113728 forward_v I I I I #
coedge $-1 $94 $95 $96 $97 reversed $37 $-1 #
face $-1 $-1 $98 $21 $-1 $99 forward single #
loop $-1 $100 $101 $39 #
cone-surface $-1 63.686936566653557 -11.244792103466438 4.4178849083909686 -0.78801076186113728 0 -0.61566146476048833 0.46174609857036625 0 -0.59100807139585299 1 I I -0.70710678118654757 0.70710678118654757 0.75 forward I I I I #
loop $-1 $-1 $102 $27 #
coedge $-1 $64 $64 $103 $104 reversed $40 $-1 #
face $-1 $105 $106 $22 $-1 $107 reversed single #
loop $-1 $-1 $108 $42 #
plane-surface $-1 -69.507736442152137 -11.244792103466438 3.4228032109339637 -0.78801076186113728 0 0.61566146476048833 0.61566146476048833 0 0.78801076186113728 forward_v I I I I #
coedge $-1 $109 $110 $111 $112 reversed $43 $-1 #
face $-1 $-1 $113 $23 $-1 $114 forward single #
loop $-1 $115 $116 $45 #
cone-surface $-1 -63.686936566653557 -11.244792103466438 4.417884908390965 0.78801076186113728 0 -0.61566146476048833 0.46174609857036625 0 0.59100807139585299 1 I I -0.70710678118654757 0.70710678118654757 0.75 forward I I I I #
loop $-1 $-1 $117 $29 #
coedge $-1 $73 $73 $118 $119 reversed $46 $-1 #
face $-1 $120 $121 $18 $-1 $122 reversed single #
loop $-1 $-1 $123 $48 #
plane-surface $-1 0 -32.421953347243935 0 0 1 0 0 0 1 forward_v I I I I #
coedge $-1 $124 $125 $126 $127 forward $49 $-1 #
coedge $-1 $128 $51 $129 $130 forward $31 $-1 #
coedge $-1 $51 $128 $131 $132 forward $31 $-1 #
coedge $-1 $133 $134 $51 $81 reversed $135 $-1 #
edge $-1 $136 -32.421953347243935 $137 32.421953347243935 $80 $138 forward 7 unknown #
face $-1 $139 $140 $19 $-1 $141 reversed single #
loop $-1 $-1 $142 $52 #
plane-surface $-1 0 0 -10.306514189750734 0 0 1 1 0 0 forward_v I I I I #
coedge $-1 $143 $144 $145 $146 reversed $53 $-1 #
coedge $-1 $147 $55 $144 $148 forward $34 $-1 #
coedge $-1 $55 $147 $149 $150 reversed $34 $-1 #
coedge $-1 $151 $145 $55 $89 forward $140 $-1 #
edge $-1 $152 7.8111220007547306 $153 19.010928231244378 $88 $154 forward 7 unknown #
face $-1 $155 $156 $20 $-1 $157 reversed single #
loop $-1 $-1 $158 $56 #
plane-surface $-1 93.466955479876319 -14.51555077201578 198.55496156930363 0 1 0 0.78801076186113728 0 0.61566146476048833 forward_v I I I I #
coedge $-1 $159 $160 $161 $162 reversed $57 $-1 #
coedge $-1 $95 $59 $163 $164 reversed $37 $-1 #
coedge $-1 $59 $94 $159 $165 reversed $37 $-1 #
coedge $-1 $161 $166 $59 $97 forward $167 $-1 #
edge $-1 $168 -22.774258702214006 $169 -17.396114406066637 $96 $170 forward 7 unknown #
loop $-1 $-1 $103 $60 #
plane-surface $-1 -16.078733218170612 -11.244792103466438 112.96849190898088 0.78801076186113728 0 0.61566146476048833 0.61566146476048833 0 -0.78801076186113728 forward_v I I I I #
loop $-1 $-1 $171 $39 #
coedge $-1 $101 $101 $102 $172 reversed $61 $-1 #
coedge $-1 $102 $102 $101 $172 forward $63 $-1 #
coedge $-1 $103 $103 $64 $104 forward $98 $-1 #
edge $-1 $173 0 $173 6.2831853071796004 $103 $174 forward 7 unknown #
face $-1 $175 $176 $22 $-1 $177 forward single #
loop $-1 $-1 $178 $65 #
plane-surface $-1 -179.05342514019907 -7.9740334349170947 89.009272871256712 0 -1 0 0.78801076186113728 0 -0.61566146476048833 forward_v I I I I #
coedge $-1 $179 $180 $181 $182 reversed $66 $-1 #
coedge $-1 $110 $68 $183 $184 reversed $43 $-1 #
coedge $-1 $68 $109 $179 $185 reversed $43 $-1 #
coedge $-1 $181 $186 $68 $112 forward $176 $-1 #
edge $-1 $187 20.018976127947369 $188 25.397120424094723 $111 $189 forward 7 unknown #
loop $-1 $-1 $118 $69 #
plane-surface $-1 -69.507736442152137 -11.244792103466438 3.4228032109339637 -0.78801076186113728 0 0.61566146476048833 0.61566146476048833 0 0.78801076186113728 forward_v I I I I #
loop $-1 $-1 $190 $45 #
coedge $-1 $116 $116 $117 $191 reversed $70 $-1 #
coedge $-1 $117 $117 $116 $191 forward $72 $-1 #
coedge $-1 $118 $118 $73 $119 forward $113 $-1 #
edge $-1 $192 0 $192 6.2831853071796004 $118 $193 forward 7 unknown #
face $-1 $194 $195 $18 $-1 $196 reversed single #
loop $-1 $-1 $197 $74 #
plane-surface $-1 -69.507736442152165 0 0 1 0 0 0 0 -1 forward_v I I I I #
coedge $-1 $198 $131 $199 $200 forward $75 $-1 #
coedge $-1 $201 $77 $198 $202 forward $49 $-1 #
coedge $-1 $77 $201 $203 $204 forward $49 $-1 #
coedge $-1 $134 $133 $77 $127 reversed $135 $-1 #
edge $-1 $205 -32.421953347243935 $206 32.421953347243935 $126 $207 forward 7 unknown #
coedge $-1 $79 $78 $208 $209 forward $31 $-1 #
coedge $-1 $210 $211 $78 $130 reversed $195 $-1 #
edge $-1 $137 -69.507736442152165 $212 69.507736442152165 $129 $213 forward 7 unknown #
coedge $-1 $123 $214 $79 $132 reversed $75 $-1 #
edge $-1 $215 -69.507736442152165 $136 69.507736442152165 $131 $216 forward 7 unknown #
coedge $-1 $126 $80 $214 $217 forward $135 $-1 #
coedge $-1 $80 $126 $210 $218 reversed $135 $-1 #
loop $-1 $-1 $133 $194 #
vertex $-1 $81 $219 #
vertex $-1 $81 $220 #
straight-curve $-1 69.507736442152165 0 10.306514189750734 0 1 0 I I #
face $-1 $221 $222 $19 $-1 $223 reversed single #
loop $-1 $-1 $145 $82 #
plane-surface $-1 69.507736442152165 0 0 -1 0 0 0 0 1 forward_v I I I I #
coedge $-1 $224 $225 $143 $226 forward $83 $-1 #
coedge $-1 $227 $85 $142 $226 reversed $53 $-1 #
coedge $-1 $85 $227 $86 $148 reversed $53 $-1 #
coedge $-1 $88 $228 $85 $146 forward $140 $-1 #
edge $-1 $229 -6.6193097488479218 $152 -0.75509913295770437 $145 $230 forward 7 unknown #
coedge $-1 $87 $86 $231 $232 reversed $34 $-1 #
edge $-1 $152 -69.507736442152165 $233 69.507736442152165 $144 $234 forward 7 unknown #
coedge $-1 $235 $236 $87 $150 forward $222 $-1 #
edge $-1 $153 -69.507736442152165 $237 69.507736442152165 $149 $238 forward 7 unknown #
coedge $-1 $228 $88 $236 $239 forward $140 $-1 #
vertex $-1 $89 $240 #
vertex $-1 $239 $241 #
straight-curve $-1 69.507736442152165 -13.411025115999555 -4.4423035738605172 0 -1 0 I I #
face $-1 $-1 $167 $20 $-1 $242 forward single #
loop $-1 $-1 $243 $90 #
plane-surface $-1 69.507736442152165 0 0 -1 0 0 0 0 1 forward_v I I I I #
coedge $-1 $244 $245 $246 $247 reversed $91 $-1 #
coedge $-1 $248 $93 $95 $165 forward $57 $-1 #
coedge $-1 $93 $248 $244 $249 forward $57 $-1 #
coedge $-1 $246 $96 $93 $162 forward $167 $-1 #
edge $-1 $169 2.3516373831838759 $250 8.8931547202825616 $161 $251 forward 7 unknown #
coedge $-1 $252 $253 $94 $164 forward $156 $-1 #
edge $-1 $254 -95.854677573717879 $168 -88.970966594901086 $163 $255 forward 7 unknown #
edge $-1 $169 130.27991835639571 $254 139.01547288430436 $95 $256 forward 7 unknown #
coedge $-1 $96 $246 $252 $257 forward $167 $-1 #
loop $-1 $-1 $246 $155 #
vertex $-1 $164 $258 #
vertex $-1 $97 $259 #
straight-curve $-1 46.733477739938159 -7.9740334349170947 10.306514189750729 -1 0 0 I I #
coedge $-1 $171 $171 $-1 $260 reversed $100 $-1 #
edge $-1 $261 0 $261 6.2831853071796004 $101 $262 forward 7 unknown #
vertex $-1 $104 $263 #
ellipse-curve $-1 66.818664294078474 -11.244792103466438 6.8646587003423418 0.78801076186113728 0 0.61566146476048833 0.9234921971407325 0 -1.182016142791706 1 I I #
face $-1 $-1 $264 $22 $-1 $265 reversed single #
loop $-1 $-1 $111 $105 #
plane-surface $-1 0 0 10.306514189750734 0 0 1 1 0 0 forward_v I I I I #
coedge $-1 $266 $267 $268 $269 reversed $106 $-1 #
coedge $-1 $270 $108 $110 $185 forward $66 $-1 #
coedge $-1 $108 $270 $266 $271 forward $66 $-1 #
coedge $-1 $268 $111 $108 $182 forward $176 $-1 #
edge $-1 $188 -8.8931547202825616 $272 -2.3516373831838759 $181 $273 forward 7 unknown #
coedge $-1 $274 $275 $109 $184 forward $264 $-1 #
edge $-1 $276 -41.081833224694428 $187 -34.19812224587762 $183 $277 forward 7 unknown #
edge $-1 $188 -8.7355545279086062 $276 4.6193811539156697e-014 $110 $278 forward 7 unknown #
coedge $-1 $111 $268 $274 $279 forward $176 $-1 #
vertex $-1 $184 $280 #
vertex $-1 $112 $281 #
straight-curve $-1 -89.526712570099534 -14.51555077201578 10.306514189750736 1 0 0 I I #
coedge $-1 $190 $190 $-1 $282 reversed $115 $-1 #
edge $-1 $283 0 $283 6.2831853071796004 $116 $284 forward 7 unknown #
vertex $-1 $119 $285 #
ellipse-curve $-1 -66.818664294078474 -11.244792103466438 6.8646587003423392 -0.78801076186113728 0 0.61566146476048833 0.9234921971407325 0 1.182016142791706 1 I I #
face $-1 $-1 $135 $18 $-1 $286 reversed single #
loop $-1 $-1 $210 $120 #
plane-surface $-1 0 32.421953347243935 0 0 -1 0 0 0 -1 forward_v I I I I #
coedge $-1 $287 $208 $211 $288 forward $121 $-1 #
coedge $-1 $214 $123 $124 $202 reversed $75 $-1 #
coedge $-1 $208 $287 $123 $200 reversed $121 $-1 #
edge $-1 $215 -10.306514189750734 $289 10.306514189750734 $199 $290 forward 7 unknown #
coedge $-1 $125 $124 $287 $291 forward $49 $-1 #
edge $-1 $206 -69.507736442152165 $289 69.507736442152165 $198 $292 forward 7 unknown #
coedge $-1 $211 $210 $125 $204 reversed $195 $-1 #
edge $-1 $293 -69.507736442152165 $205 69.507736442152165 $203 $294 forward 7 unknown #
vertex $-1 $127 $295 #
vertex $-1 $217 $296 #
straight-curve $-1 69.507736442152165 0 -10.306514189750734 0 -1 0 I I #
coedge $-1 $197 $199 $128 $209 reversed $121 $-1 #
edge $-1 $212 -32.421953347243935 $215 32.421953347243935 $208 $297 forward 7 unknown #
coedge $-1 $203 $129 $134 $218 forward $195 $-1 #
coedge $-1 $129 $203 $197 $288 reversed $195 $-1 #
vertex $-1 $130 $298 #
straight-curve $-1 0 32.421953347243935 10.306514189750734 -1 0 0 I I #
coedge $-1 $131 $198 $133 $217 reversed $75 $-1 #
vertex $-1 $209 $299 #
straight-curve $-1 0 -32.421953347243935 10.306514189750734 1 0 0 I I #
edge $-1 $136 -10.306514189750734 $206 10.306514189750734 $133 $300 forward 7 unknown #
edge $-1 $137 -10.306514189750734 $205 10.306514189750734 $134 $301 forward 7 unknown #
point $-1 69.507736442152165 -32.421953347243935 10.306514189750734 #
point $-1 69.507736442152165 32.421953347243935 10.306514189750734 #
face $-1 $-1 $302 $19 $-1 $303 reversed single #
loop $-1 $-1 $149 $139 #
plane-surface $-1 0 -32.421953347243935 0 0 1 0 0 0 1 forward_v I I I I #
coedge $-1 $304 $142 $228 $305 forward $83 $-1 #
coedge $-1 $142 $304 $306 $307 forward $83 $-1 #
edge $-1 $308 -69.507736442152165 $229 69.507736442152165 $142 $309 forward 7 unknown #
coedge $-1 $144 $143 $310 $311 reversed $53 $-1 #
coedge $-1 $145 $151 $224 $305 reversed $140 $-1 #
vertex $-1 $305 $312 #
straight-curve $-1 69.507736442152165 -21.222147116754286 -3.6872044409028129 0 0 1 I I #
coedge $-1 $310 $313 $147 $232 forward $302 $-1 #
edge $-1 $237 -19.010928231244378 $233 -7.8111220007547306 $231 $314 forward 7 unknown #
vertex $-1 $232 $315 #
straight-curve $-1 0 -21.222147116754286 -4.4423035738605172 -1 0 0 I I #
coedge $-1 $316 $149 $313 $317 forward $222 $-1 #
coedge $-1 $149 $316 $151 $239 reversed $222 $-1 #
vertex $-1 $317 $318 #
straight-curve $-1 0 -32.421953347243935 -4.4423035738605172 -1 0 0 I I #
edge $-1 $153 4.4423035738605172 $319 10.306514189750734 $151 $320 forward 7 unknown #
point $-1 69.507736442152165 -21.222147116754286 -4.4423035738605172 #
point $-1 69.507736442152165 -32.421953347243935 -4.4423035738605172 #
plane-surface $-1 0 0 10.306514189750734 0 0 1 1 0 0 forward_v I I I I #
coedge $-1 $253 $252 $245 $321 forward $156 $-1 #
coedge $-1 $245 $158 $160 $249 reversed $91 $-1 #
coedge $-1 $158 $244 $243 $321 reversed $91 $-1 #
coedge $-1 $166 $161 $158 $247 forward $167 $-1 #
edge $-1 $250 17.396114406066637 $322 22.774258702214006 $246 $323 forward 7 unknown #
coedge $-1 $160 $159 $253 $324 reversed $57 $-1 #
edge $-1 $325 -139.01547288430436 $250 -130.27991835639571 $244 $326 forward 7 unknown #
vertex $-1 $162 $327 #
straight-curve $-1 64.129592146004811 -5.6223960517332188 10.306514189750729 0 -1 0 I I #
coedge $-1 $243 $163 $166 $257 reversed $156 $-1 #
coedge $-1 $163 $243 $248 $324 forward $156 $-1 #
vertex $-1 $164 $328 #
straight-curve $-1 69.507736442152165 -7.9740334349170947 99.277480784651814 0 0 1 I I #
straight-curve $-1 -16.078733218170612 -7.9740334349170947 112.96849190898088 0.61566146476048833 0 -0.78801076186113728 I I #
edge $-1 $322 -14.51555077201578 $168 -7.9740334349170947 $252 $329 forward 7 unknown #
point $-1 69.507736442152165 -7.9740334349170947 10.306514189750734 #
point $-1 64.129592146004796 -7.9740334349170947 10.306514189750729 #
edge $-1 $330 1 $330 0 $171 $-1 forward 7 unknown #
vertex $-1 $172 $331 #
ellipse-curve $-1 64.277944638049405 -11.244792103466438 4.8796310069613344 0.78801076186113728 0 0.61566146476048833 0.9234921971407325 0 -1.182016142791706 1 I I #
point $-1 67.742156491219234 -11.244792103466438 5.6826425575506549 #
loop $-1 $-1 $183 $175 #
plane-surface $-1 -69.507736442152165 0 0 1 0 0 0 0 -1 forward_v I I I I #
coedge $-1 $267 $178 $180 $271 reversed $106 $-1 #
coedge $-1 $178 $266 $332 $333 reversed $106 $-1 #
coedge $-1 $186 $181 $178 $269 forward $176 $-1 #
edge $-1 $272 -25.397120424094723 $334 -20.018976127947369 $268 $335 forward 7 unknown #
coedge $-1 $180 $179 $275 $336 reversed $66 $-1 #
edge $-1 $337 -4.6193811539156697e-014 $272 8.7355545279086062 $266 $338 forward 7 unknown #
vertex $-1 $182 $339 #
straight-curve $-1 -64.129592146004811 -5.6223960517332188 10.306514189750736 0 1 0 I I #
coedge $-1 $332 $183 $186 $279 reversed $264 $-1 #
coedge $-1 $183 $332 $270 $336 forward $264 $-1 #
vertex $-1 $184 $340 #
straight-curve $-1 -69.507736442152165 -14.51555077201578 44.504636435628356 0 0 1 I I #
straight-curve $-1 -69.507736442152137 -14.51555077201578 3.4228032109339637 -0.61566146476048833 0 -0.78801076186113728 I I #
edge $-1 $334 7.9740334349170947 $187 14.51555077201578 $274 $341 forward 7 unknown #
point $-1 -69.507736442152165 -14.51555077201578 10.306514189750734 #
point $-1 -64.129592146004811 -14.51555077201578 10.306514189750734 #
edge $-1 $342 1 $342 0 $190 $-1 forward 7 unknown #
vertex $-1 $191 $343 #
ellipse-curve $-1 -64.277944638049405 -11.244792103466438 4.8796310069613309 -0.78801076186113728 0 0.61566146476048833 0.9234921971407325 0 1.182016142791706 1 I I #
point $-1 -65.89517209693777 -11.244792103466438 8.0466748431340633 #
plane-surface $-1 69.507736442152165 0 0 -1 0 0 0 0 1 forward_v I I I I #
coedge $-1 $199 $197 $201 $291 reversed $121 $-1 #
edge $-1 $212 -10.306514189750734 $293 10.306514189750734 $211 $344 forward 7 unknown #
vertex $-1 $291 $345 #
straight-curve $-1 -69.507736442152165 -32.421953347243935 0 0 0 -1 I I #
edge $-1 $289 -32.421953347243935 $293 32.421953347243935 $287 $346 forward 7 unknown #
straight-curve $-1 0 -32.421953347243935 -10.306514189750734 -1 0 0 I I #
vertex $-1 $204 $347 #
straight-curve $-1 0 32.421953347243935 -10.306514189750734 1 0 0 I I #
point $-1 69.507736442152165 32.421953347243935 -10.306514189750734 #
point $-1 69.507736442152165 -32.421953347243935 -10.306514189750734 #
straight-curve $-1 -69.507736442152165 0 10.306514189750734 0 -1 0 I I #
point $-1 -69.507736442152165 32.421953347243935 10.306514189750734 #
point $-1 -69.507736442152165 -32.421953347243935 10.306514189750734 #
straight-curve $-1 69.507736442152165 -32.421953347243935 0 0 0 -1 I I #
straight-curve $-1 69.507736442152165 32.421953347243935 0 0 0 -1 I I #
loop $-1 $-1 $310 $221 #
plane-surface $-1 -69.507736442152165 0 0 1 0 0 0 0 -1 forward_v I I I I #
coedge $-1 $225 $224 $316 $348 forward $83 $-1 #
edge $-1 $229 21.222147116754286 $319 32.421953347243935 $228 $349 forward 7 unknown #
coedge $-1 $313 $310 $225 $307 reversed $302 $-1 #
edge $-1 $350 -32.421953347243935 $308 -21.222147116754286 $306 $351 forward 7 unknown #
vertex $-1 $311 $352 #
straight-curve $-1 0 -21.222147116754286 -10.306514189750734 1 0 0 I I #
coedge $-1 $306 $231 $227 $311 forward $302 $-1 #
edge $-1 $233 0.75509913295770437 $308 6.6193097488479218 $310 $353 forward 7 unknown #
point $-1 69.507736442152165 -21.222147116754286 -10.306514189750734 #
coedge $-1 $231 $306 $235 $317 reversed $302 $-1 #
straight-curve $-1 -69.507736442152165 -13.411025115999555 -4.4423035738605172 0 1 0 I I #
point $-1 -69.507736442152165 -21.222147116754286 -4.4423035738605172 #
coedge $-1 $236 $235 $304 $348 reversed $222 $-1 #
edge $-1 $237 4.4423035738605172 $350 10.306514189750734 $313 $354 forward 7 unknown #
point $-1 -69.507736442152165 -32.421953347243935 -4.4423035738605172 #
vertex $-1 $239 $355 #
straight-curve $-1 69.507736442152165 -32.421953347243935 0 0 0 -1 I I #
edge $-1 $322 88.970966594901086 $325 95.854677573717879 $243 $356 forward 7 unknown #
vertex $-1 $257 $357 #
straight-curve $-1 46.733477739938159 -14.51555077201578 10.306514189750729 1 0 0 I I #
edge $-1 $325 -8.8931547202825616 $254 -2.3516373831838759 $253 $358 forward 7 unknown #
vertex $-1 $324 $359 #
straight-curve $-1 -16.078733218170612 -14.51555077201578 112.96849190898088 -0.61566146476048833 0 0.78801076186113728 I I #
point $-1 64.129592146004796 -14.51555077201578 10.306514189750729 #
point $-1 69.507736442152151 -7.9740334349170947 3.4228032109339352 #
straight-curve $-1 69.507736442152165 0 10.306514189750734 0 1 0 I I #
vertex $-1 $260 $360 #
point $-1 65.201436835190137 -11.244792103466438 3.6976148641696289 #
coedge $-1 $275 $274 $267 $333 forward $264 $-1 #
edge $-1 $334 34.19812224587762 $337 41.081833224694428 $332 $361 forward 7 unknown #
vertex $-1 $279 $362 #
straight-curve $-1 -89.526712570099534 -7.9740334349170947 10.306514189750736 -1 0 0 I I #
edge $-1 $337 2.3516373831838759 $276 8.8931547202825616 $275 $363 forward 7 unknown #
vertex $-1 $336 $364 #
straight-curve $-1 -69.507736442152137 -7.9740334349170947 3.4228032109339637 0.61566146476048833 0 0.78801076186113728 I I #
point $-1 -64.129592146004811 -7.9740334349170947 10.306514189750734 #
point $-1 -69.507736442152165 -14.51555077201578 3.4228032109339273 #
straight-curve $-1 -69.507736442152165 0 10.306514189750734 0 -1 0 I I #
vertex $-1 $282 $365 #
point $-1 -63.35445244090868 -11.244792103466438 6.0616471497530373 #
straight-curve $-1 -69.507736442152165 32.421953347243935 0 0 0 -1 I I #
point $-1 -69.507736442152165 -32.421953347243935 -10.306514189750734 #
straight-curve $-1 -69.507736442152165 0 -10.306514189750734 0 1 0 I I #
point $-1 -69.507736442152165 32.421953347243935 -10.306514189750734 #
edge $-1 $319 -69.507736442152165 $350 69.507736442152165 $316 $366 forward 7 unknown #
straight-curve $-1 69.507736442152165 0 -10.306514189750734 0 -1 0 I I #
vertex $-1 $307 $367 #
straight-curve $-1 -69.507736442152165 0 -10.306514189750734 0 1 0 I I #
point $-1 -69.507736442152165 -21.222147116754286 -10.306514189750734 #
straight-curve $-1 -69.507736442152165 -21.222147116754286 -3.6872044409028129 0 0 -1 I I #
straight-curve $-1 -69.507736442152165 -32.421953347243935 0 0 0 -1 I I #
point $-1 69.507736442152165 -32.421953347243935 -10.306514189750734 #
straight-curve $-1 69.507736442152165 -14.51555077201578 99.277480784651814 0 0 -1 I I #
point $-1 69.507736442152165 -14.51555077201578 10.306514189750734 #
straight-curve $-1 69.507736442152165 -5.6223960517332188 3.422803210933921 0 1 0 I I #
point $-1 69.507736442152151 -14.51555077201578 3.4228032109339352 #
point $-1 63.095928495257702 -11.244792103466438 3.9561388098206023 #
straight-curve $-1 -69.507736442152165 -7.9740334349170947 44.504636435628356 0 0 -1 I I #
point $-1 -69.507736442152165 -7.9740334349170947 10.306514189750734 #
straight-curve $-1 -69.507736442152165 -5.6223960517332188 3.4228032109339201 0 -1 0 I I #
point $-1 -69.507736442152165 -7.9740334349170947 3.4228032109339273 #
point $-1 -63.095928495257702 -11.244792103466438 3.9561388098205987 #
straight-curve $-1 0 -32.421953347243935 -10.306514189750734 -1 0 0 I I #
point $-1 -69.507736442152165 -32.421953347243935 -10.306514189750734 #
End-of-ACIS-data 