500 0 10 0           
7 Unknown 11 ACIS 5.0 NT 24 Fri Mar 26 00:24:01 1999 
-1 9.9999999999999995e-007 1e-010 
body $-1 $10 $-1 $11 #
body $-1 $12 $-1 $13 #
body $-1 $14 $-1 $15 #
body $-1 $16 $-1 $17 #
body $-1 $18 $-1 $19 #
body $-1 $20 $-1 $21 #
body $-1 $22 $-1 $23 #
body $-1 $24 $-1 $25 #
body $-1 $26 $-1 $27 #
body $-1 $28 $-1 $29 #
lump $-1 $-1 $30 $0 #
transform $-1 1 0 0 0 1 0 0 0 1 71.35349589526048 48.958380143570444 23.630669789686355 1 rotate no_reflect no_shear #
lump $-1 $-1 $31 $1 #
transform $-1 1 0 0 0 1 0 0 0 1 71.35349589526048 48.958380143570444 23.630669789686355 1 rotate no_reflect no_shear #
lump $-1 $-1 $32 $2 #
transform $-1 1 0 0 0 1 0 0 0 1 71.35349589526048 48.958380143570444 23.630669789686355 1 rotate no_reflect no_shear #
lump $-1 $-1 $33 $3 #
transform $-1 1 0 0 0 1 0 0 0 1 71.35349589526048 48.958380143570444 23.630669789686355 1 rotate no_reflect no_shear #
lump $-1 $-1 $34 $4 #
transform $-1 1 0 0 0 1 0 0 0 1 71.35349589526048 48.958380143570444 23.630669789686355 1 rotate no_reflect no_shear #
lump $-1 $-1 $35 $5 #
transform $-1 1 0 0 0 1 0 0 0 1 71.35349589526048 48.958380143570444 23.630669789686355 1 rotate no_reflect no_shear #
lump $-1 $-1 $36 $6 #
transform $-1 1 0 0 0 1 0 0 0 1 71.35349589526048 48.958380143570444 23.630669789686355 1 rotate no_reflect no_shear #
lump $-1 $-1 $37 $7 #
transform $-1 1 0 0 0 1 0 0 0 1 71.35349589526048 48.958380143570444 23.630669789686355 1 rotate no_reflect no_shear #
lump $-1 $-1 $38 $8 #
transform $-1 1 0 0 0 1 0 0 0 1 71.35349589526048 48.958380143570444 23.630669789686355 1 rotate no_reflect no_shear #
lump $-1 $-1 $39 $9 #
transform $-1 1 0 0 0 1 0 0 0 1 71.35349589526048 48.958380143570444 23.630669789686355 1 rotate no_reflect no_shear #
shell $-1 $-1 $-1 $40 $-1 $10 #
shell $-1 $-1 $-1 $41 $-1 $12 #
shell $-1 $-1 $-1 $42 $-1 $14 #
shell $-1 $-1 $-1 $43 $-1 $16 #
shell $-1 $-1 $-1 $44 $-1 $18 #
shell $-1 $-1 $-1 $45 $-1 $20 #
shell $-1 $-1 $-1 $46 $-1 $22 #
shell $-1 $-1 $-1 $47 $-1 $24 #
shell $-1 $-1 $-1 $48 $-1 $26 #
shell $-1 $-1 $-1 $49 $-1 $28 #
face $-1 $50 $51 $30 $-1 $52 forward single #
face $-1 $53 $54 $31 $-1 $55 forward single #
face $-1 $56 $57 $32 $-1 $58 reversed single #
face $-1 $59 $60 $33 $-1 $61 forward single #
face $-1 $62 $63 $34 $-1 $64 forward single #
face $-1 $65 $66 $35 $-1 $67 forward single #
face $-1 $68 $69 $36 $-1 $70 reversed single #
face $-1 $71 $72 $37 $-1 $73 forward single #
face $-1 $74 $75 $38 $-1 $76 forward single #
face $-1 $77 $78 $39 $-1 $79 forward single #
face $-1 $80 $81 $30 $-1 $82 reversed single #
loop $-1 $-1 $83 $40 #
plane-surface $-1 0 0 23.630669789686355 0 0 1 1 0 0 forward_v I I I I #
face $-1 $84 $85 $31 $-1 $86 reversed single #
loop $-1 $-1 $87 $41 #
plane-surface $-1 0 -48.958380143570444 0 0 1 0 0 0 1 forward_v I I I I #
face $-1 $88 $89 $32 $-1 $90 reversed single #
loop $-1 $-1 $91 $42 #
plane-surface $-1 -186.80587863779931 34.530507253641176 91.165106011088398 0 1 0 -0.80901700255871778 0 0.5877852410284794 forward_v I I I I #
face $-1 $92 $93 $33 $-1 $94 forward single #
loop $-1 $95 $96 $43 #
cone-surface $-1 -64.078964287129992 37.416081831627032 14.486497850972738 0.80901700255871778 0 -0.5877852410284794 0.5877852410284794 0 0.80901700255871778 1 I I 0 1 1 forward I I I I #
face $-1 $97 $98 $34 $-1 $99 forward single #
loop $-1 $100 $101 $44 #
cone-surface $-1 -64.078964287129992 41.744443698605814 14.486497850972738 0.80901700255871778 0 -0.5877852410284794 0.5877852410284794 0 0.80901700255871778 1 I I 0 1 1 forward I I I I #
face $-1 $102 $103 $35 $-1 $104 forward single #
loop $-1 $105 $106 $45 #
cone-surface $-1 -64.078964287129992 46.072805565584595 14.486497850972738 0.80901700255871778 0 -0.5877852410284794 0.5877852410284794 0 0.80901700255871778 1 I I 0 1 1 forward I I I I #
face $-1 $107 $108 $36 $-1 $109 reversed single #
loop $-1 $-1 $110 $46 #
plane-surface $-1 102.92481507175869 34.530507253641176 206.61748875362721 0 1 0 0.80901700255871778 0 0.5877852410284794 forward_v I I I I #
face $-1 $111 $112 $37 $-1 $113 forward single #
loop $-1 $114 $115 $47 #
cone-surface $-1 64.078964287129992 37.416081831627032 14.48649785097273 -0.80901700255871778 0 -0.5877852410284794 0.5877852410284794 0 -0.80901700255871778 1 I I 0 1 1 forward I I I I #
face $-1 $116 $117 $38 $-1 $118 forward single #
loop $-1 $119 $120 $48 #
cone-surface $-1 64.078964287129992 41.744443698605814 14.48649785097273 -0.80901700255871778 0 -0.5877852410284794 0.5877852410284794 0 -0.80901700255871778 1 I I 0 1 1 forward I I I I #
face $-1 $121 $122 $39 $-1 $123 forward single #
loop $-1 $124 $125 $49 #
cone-surface $-1 64.078964287129992 46.072805565584595 14.48649785097273 -0.80901700255871778 0 -0.5877852410284794 0.5877852410284794 0 -0.80901700255871778 1 I I 0 1 1 forward I I I I #
face $-1 $126 $127 $30 $-1 $128 reversed single #
loop $-1 $-1 $129 $50 #
plane-surface $-1 0 0 -23.630669789686355 0 0 1 1 0 0 forward_v I I I I #
coedge $-1 $130 $131 $132 $133 forward $51 $-1 #
face $-1 $134 $135 $31 $-1 $136 forward single #
loop $-1 $-1 $137 $53 #
plane-surface $-1 -71.35349589526048 0 0 1 0 0 0 0 -1 forward_v I I I I #
coedge $-1 $138 $139 $140 $141 forward $54 $-1 #
face $-1 $142 $143 $32 $-1 $144 forward single #
loop $-1 $-1 $145 $56 #
plane-surface $-1 -71.353495895260494 41.744443698605814 7.2840424450478025 -0.80901700255871778 0 0.5877852410284794 0.5877852410284794 0 0.80901700255871778 forward_v I I I I #
coedge $-1 $146 $147 $148 $149 reversed $57 $-1 #
face $-1 $-1 $150 $33 $-1 $151 forward single #
loop $-1 $152 $153 $59 #
cone-surface $-1 -62.338183981520572 37.416081831627032 13.221746964064156 0.80901700255871778 0 -0.5877852410284794 0.2938926205142397 0 0.40450850127935889 1 I I -0.70710678118654746 0.70710678118654746 0.5 forward I I I I #
loop $-1 $-1 $154 $43 #
coedge $-1 $96 $96 $155 $156 reversed $60 $-1 #
face $-1 $-1 $157 $34 $-1 $158 forward single #
loop $-1 $159 $160 $62 #
cone-surface $-1 -62.338183981520572 41.744443698605814 13.221746964064156 0.80901700255871778 0 -0.5877852410284794 0.2938926205142397 0 0.40450850127935889 1 I I -0.70710678118654746 0.70710678118654746 0.5 forward I I I I #
loop $-1 $-1 $161 $44 #
coedge $-1 $101 $101 $162 $163 reversed $63 $-1 #
face $-1 $-1 $164 $35 $-1 $165 forward single #
loop $-1 $166 $167 $65 #
cone-surface $-1 -62.338183981520572 46.072805565584595 13.221746964064156 0.80901700255871778 0 -0.5877852410284794 0.2938926205142397 0 0.40450850127935889 1 I I -0.70710678118654746 0.70710678118654746 0.5 forward I I I I #
loop $-1 $-1 $168 $45 #
coedge $-1 $106 $106 $169 $170 reversed $66 $-1 #
face $-1 $171 $172 $36 $-1 $173 reversed single #
loop $-1 $-1 $174 $68 #
plane-surface $-1 -12.52756767078013 41.744443698605814 122.73642518758662 0.80901700255871778 0 0.5877852410284794 0.5877852410284794 0 -0.80901700255871778 forward_v I I I I #
coedge $-1 $175 $176 $177 $178 reversed $69 $-1 #
face $-1 $-1 $179 $37 $-1 $180 forward single #
loop $-1 $181 $182 $71 #
cone-surface $-1 62.338183981520572 37.416081831627032 13.221746964064149 -0.80901700255871778 0 -0.5877852410284794 0.2938926205142397 0 -0.40450850127935889 1 I I -0.70710678118654746 0.70710678118654746 0.5 forward I I I I #
loop $-1 $-1 $183 $47 #
coedge $-1 $115 $115 $184 $185 reversed $72 $-1 #
face $-1 $-1 $186 $38 $-1 $187 forward single #
loop $-1 $188 $189 $74 #
cone-surface $-1 62.338183981520572 41.744443698605814 13.221746964064149 -0.80901700255871778 0 -0.5877852410284794 0.2938926205142397 0 -0.40450850127935889 1 I I -0.70710678118654746 0.70710678118654746 0.5 forward I I I I #
loop $-1 $-1 $190 $48 #
coedge $-1 $120 $120 $191 $192 reversed $75 $-1 #
face $-1 $-1 $193 $39 $-1 $194 forward single #
loop $-1 $195 $196 $77 #
cone-surface $-1 62.338183981520572 46.072805565584595 13.221746964064149 -0.80901700255871778 0 -0.5877852410284794 0.2938926205142397 0 -0.40450850127935889 1 I I -0.70710678118654746 0.70710678118654746 0.5 forward I I I I #
loop $-1 $-1 $197 $49 #
coedge $-1 $125 $125 $198 $199 reversed $78 $-1 #
face $-1 $200 $201 $30 $-1 $202 reversed single #
loop $-1 $-1 $203 $80 #
plane-surface $-1 0 -48.958380143570444 0 0 1 0 0 0 1 forward_v I I I I #
coedge $-1 $204 $205 $206 $207 forward $81 $-1 #
coedge $-1 $208 $83 $209 $210 forward $51 $-1 #
coedge $-1 $83 $208 $211 $212 forward $51 $-1 #
coedge $-1 $213 $214 $83 $133 reversed $215 $-1 #
edge $-1 $216 -48.958380143570444 $217 48.958380143570444 $132 $218 forward 7 unknown #
face $-1 $219 $220 $31 $-1 $221 reversed single #
loop $-1 $-1 $222 $84 #
plane-surface $-1 0 -62.43772756786791 4.5146283616236609 0 0 1 1 0 0 forward_v I I I I #
coedge $-1 $223 $224 $139 $225 forward $85 $-1 #
coedge $-1 $226 $87 $227 $228 reversed $54 $-1 #
coedge $-1 $87 $226 $137 $225 reversed $54 $-1 #
coedge $-1 $229 $222 $87 $141 reversed $135 $-1 #
edge $-1 $230 -71.35349589526048 $231 71.35349589526048 $140 $232 forward 7 unknown #
face $-1 $233 $234 $32 $-1 $235 reversed single #
loop $-1 $-1 $148 $88 #
plane-surface $-1 0 0 23.630669789686355 0 0 1 1 0 0 forward_v I I I I #
coedge $-1 $236 $237 $238 $239 reversed $89 $-1 #
coedge $-1 $147 $91 $240 $241 reversed $57 $-1 #
coedge $-1 $91 $146 $236 $242 reversed $57 $-1 #
coedge $-1 $238 $243 $91 $149 forward $143 $-1 #
edge $-1 $244 22.049443423639175 $245 33.925963031240045 $148 $246 forward 7 unknown #
loop $-1 $-1 $155 $92 #
plane-surface $-1 -71.353495895260494 41.744443698605814 7.2840424450478025 -0.80901700255871778 0 0.5877852410284794 0.5877852410284794 0 0.80901700255871778 forward_v I I I I #
loop $-1 $-1 $247 $59 #
coedge $-1 $153 $153 $154 $248 reversed $93 $-1 #
coedge $-1 $154 $154 $153 $248 forward $95 $-1 #
coedge $-1 $155 $155 $96 $156 forward $150 $-1 #
edge $-1 $249 0 $249 6.2831853071796004 $155 $250 forward 7 unknown #
loop $-1 $-1 $162 $97 #
plane-surface $-1 -71.353495895260494 41.744443698605814 7.2840424450478025 -0.80901700255871778 0 0.5877852410284794 0.5877852410284794 0 0.80901700255871778 forward_v I I I I #
loop $-1 $-1 $251 $62 #
coedge $-1 $160 $160 $161 $252 reversed $98 $-1 #
coedge $-1 $161 $161 $160 $252 forward $100 $-1 #
coedge $-1 $162 $162 $101 $163 forward $157 $-1 #
edge $-1 $253 0 $253 6.2831853071796004 $162 $254 forward 7 unknown #
loop $-1 $-1 $169 $102 #
plane-surface $-1 -71.353495895260494 41.744443698605814 7.2840424450478025 -0.80901700255871778 0 0.5877852410284794 0.5877852410284794 0 0.80901700255871778 forward_v I I I I #
loop $-1 $-1 $255 $65 #
coedge $-1 $167 $167 $168 $256 reversed $103 $-1 #
coedge $-1 $168 $168 $167 $256 forward $105 $-1 #
coedge $-1 $169 $169 $106 $170 forward $164 $-1 #
edge $-1 $257 0 $257 6.2831853071796004 $169 $258 forward 7 unknown #
face $-1 $259 $260 $36 $-1 $261 forward single #
loop $-1 $-1 $177 $107 #
plane-surface $-1 71.35349589526048 0 0 -1 0 0 0 0 1 forward_v I I I I #
coedge $-1 $262 $263 $264 $265 reversed $108 $-1 #
coedge $-1 $176 $110 $266 $267 reversed $69 $-1 #
coedge $-1 $110 $175 $262 $268 reversed $69 $-1 #
coedge $-1 $264 $269 $110 $178 forward $172 $-1 #
edge $-1 $270 79.678074587127256 $271 96.024701931765819 $177 $272 forward 7 unknown #
loop $-1 $-1 $184 $111 #
plane-surface $-1 -12.52756767078013 41.744443698605814 122.73642518758662 0.80901700255871778 0 0.5877852410284794 0.5877852410284794 0 -0.80901700255871778 forward_v I I I I #
loop $-1 $-1 $273 $71 #
coedge $-1 $182 $182 $183 $274 reversed $112 $-1 #
coedge $-1 $183 $183 $182 $274 forward $114 $-1 #
coedge $-1 $184 $184 $115 $185 forward $179 $-1 #
edge $-1 $275 0 $275 6.2831853071796004 $184 $276 forward 7 unknown #
loop $-1 $-1 $191 $116 #
plane-surface $-1 -12.52756767078013 41.744443698605814 122.73642518758662 0.80901700255871778 0 0.5877852410284794 0.5877852410284794 0 -0.80901700255871778 forward_v I I I I #
loop $-1 $-1 $277 $74 #
coedge $-1 $189 $189 $190 $278 reversed $117 $-1 #
coedge $-1 $190 $190 $189 $278 forward $119 $-1 #
coedge $-1 $191 $191 $120 $192 forward $186 $-1 #
edge $-1 $279 0 $279 6.2831853071796004 $191 $280 forward 7 unknown #
loop $-1 $-1 $198 $121 #
plane-surface $-1 -12.52756767078013 41.744443698605814 122.73642518758662 0.80901700255871778 0 0.5877852410284794 0.5877852410284794 0 -0.80901700255871778 forward_v I I I I #
loop $-1 $-1 $281 $77 #
coedge $-1 $196 $196 $197 $282 reversed $122 $-1 #
coedge $-1 $197 $197 $196 $282 forward $124 $-1 #
coedge $-1 $198 $198 $125 $199 forward $193 $-1 #
edge $-1 $283 0 $283 6.2831853071796004 $198 $284 forward 7 unknown #
face $-1 $285 $286 $30 $-1 $287 reversed single #
loop $-1 $-1 $288 $126 #
plane-surface $-1 -71.35349589526048 0 0 1 0 0 0 0 -1 forward_v I I I I #
coedge $-1 $289 $211 $290 $291 forward $127 $-1 #
coedge $-1 $292 $129 $289 $293 forward $81 $-1 #
coedge $-1 $129 $292 $294 $295 forward $81 $-1 #
coedge $-1 $214 $213 $129 $207 reversed $215 $-1 #
edge $-1 $296 -48.958380143570444 $297 48.958380143570444 $206 $298 forward 7 unknown #
coedge $-1 $131 $130 $299 $300 forward $51 $-1 #
coedge $-1 $301 $302 $130 $210 reversed $286 $-1 #
edge $-1 $217 -71.35349589526048 $303 71.35349589526048 $209 $304 forward 7 unknown #
coedge $-1 $203 $305 $131 $212 reversed $127 $-1 #
edge $-1 $306 -71.35349589526048 $216 71.35349589526048 $211 $307 forward 7 unknown #
coedge $-1 $206 $132 $305 $308 forward $215 $-1 #
coedge $-1 $132 $206 $301 $309 reversed $215 $-1 #
loop $-1 $-1 $213 $285 #
vertex $-1 $133 $310 #
vertex $-1 $133 $311 #
straight-curve $-1 71.35349589526048 0 23.630669789686355 0 1 0 I I #
face $-1 $312 $313 $31 $-1 $314 reversed single #
loop $-1 $-1 $315 $134 #
plane-surface $-1 0 -62.43772756786791 -4.9129754438102786 0 0 1 1 0 0 forward_v I I I I #
coedge $-1 $140 $316 $317 $318 forward $135 $-1 #
coedge $-1 $319 $137 $320 $321 reversed $85 $-1 #
coedge $-1 $137 $319 $229 $322 reversed $85 $-1 #
edge $-1 $230 -4.5146283616236609 $323 4.9129754438102786 $137 $324 forward 7 unknown #
coedge $-1 $139 $138 $325 $326 forward $54 $-1 #
coedge $-1 $317 $327 $138 $228 forward $328 $-1 #
edge $-1 $329 -4.9129754438102786 $231 4.5146283616236609 $227 $330 forward 7 unknown #
coedge $-1 $316 $140 $224 $322 forward $135 $-1 #
vertex $-1 $225 $331 #
vertex $-1 $318 $332 #
straight-curve $-1 0 -48.958380143570444 4.5146283616236609 1 0 0 I I #
face $-1 $-1 $333 $32 $-1 $334 reversed single #
loop $-1 $-1 $335 $142 #
plane-surface $-1 0 48.958380143570444 0 0 -1 0 0 0 -1 forward_v I I I I #
coedge $-1 $336 $145 $147 $242 forward $89 $-1 #
coedge $-1 $145 $336 $335 $337 reversed $89 $-1 #
coedge $-1 $338 $148 $145 $239 forward $143 $-1 #
edge $-1 $245 13.658285404338269 $339 28.086158294267545 $238 $340 forward 7 unknown #
coedge $-1 $341 $342 $146 $241 forward $333 $-1 #
edge $-1 $343 -38.298510560496375 $244 -21.951883215857844 $240 $344 forward 7 unknown #
edge $-1 $245 -20.205542396437 $343 -2.4161062406544664e-014 $147 $345 forward 7 unknown #
coedge $-1 $148 $338 $341 $346 forward $143 $-1 #
vertex $-1 $241 $347 #
vertex $-1 $149 $348 #
straight-curve $-1 -93.402939318899655 34.530507253641176 23.630669789686351 1 0 0 I I #
coedge $-1 $247 $247 $-1 $349 reversed $152 $-1 #
edge $-1 $350 0 $350 6.2831853071796004 $153 $351 forward 7 unknown #
vertex $-1 $156 $352 #
ellipse-curve $-1 -65.415236091460045 37.416081831627032 15.457356117367082 -0.80901700255871778 0 0.5877852410284794 0.5877852410284794 0 0.80901700255871778 1 I I #
coedge $-1 $251 $251 $-1 $353 reversed $159 $-1 #
edge $-1 $354 0 $354 6.2831853071796004 $160 $355 forward 7 unknown #
vertex $-1 $163 $356 #
ellipse-curve $-1 -65.415236091460045 41.744443698605814 15.457356117367082 -0.80901700255871778 0 0.5877852410284794 0.5877852410284794 0 0.80901700255871778 1 I I #
coedge $-1 $255 $255 $-1 $357 reversed $166 $-1 #
edge $-1 $358 0 $358 6.2831853071796004 $167 $359 forward 7 unknown #
vertex $-1 $170 $360 #
ellipse-curve $-1 -65.415236091460045 46.072805565584595 15.457356117367082 -0.80901700255871778 0 0.5877852410284794 0.5877852410284794 0 0.80901700255871778 1 I I #
face $-1 $-1 $361 $36 $-1 $362 reversed single #
loop $-1 $-1 $266 $171 #
plane-surface $-1 0 0 23.630669789686355 0 0 1 1 0 0 forward_v I I I I #
coedge $-1 $363 $174 $176 $268 forward $108 $-1 #
coedge $-1 $174 $363 $364 $365 reversed $108 $-1 #
coedge $-1 $366 $177 $174 $265 forward $172 $-1 #
edge $-1 $271 13.658285404338269 $367 28.086158294267538 $264 $368 forward 7 unknown #
coedge $-1 $369 $370 $175 $267 forward $260 $-1 #
edge $-1 $371 8.0145687517802529 $270 19.891088359381136 $266 $372 forward 7 unknown #
edge $-1 $271 -142.70699179052099 $371 -122.50144939408398 $176 $373 forward 7 unknown #
coedge $-1 $177 $366 $369 $374 reversed $172 $-1 #
vertex $-1 $374 $375 #
vertex $-1 $178 $376 #
straight-curve $-1 71.35349589526048 34.530507253641176 103.30874437681361 0 0 -1 I I #
coedge $-1 $273 $273 $-1 $377 reversed $181 $-1 #
edge $-1 $378 0 $378 6.2831853071796004 $182 $379 forward 7 unknown #
vertex $-1 $185 $380 #
ellipse-curve $-1 65.415236091460045 37.416081831627032 15.457356117367068 0.80901700255871778 0 0.5877852410284794 0.5877852410284794 0 -0.80901700255871778 1 I I #
coedge $-1 $277 $277 $-1 $381 reversed $188 $-1 #
edge $-1 $382 0 $382 6.2831853071796004 $189 $383 forward 7 unknown #
vertex $-1 $192 $384 #
ellipse-curve $-1 65.415236091460045 41.744443698605814 15.457356117367068 0.80901700255871778 0 0.5877852410284794 0.5877852410284794 0 -0.80901700255871778 1 I I #
coedge $-1 $281 $281 $-1 $385 reversed $195 $-1 #
edge $-1 $386 0 $386 6.2831853071796004 $196 $387 forward 7 unknown #
vertex $-1 $199 $388 #
ellipse-curve $-1 65.415236091460045 46.072805565584595 15.457356117367068 0.80901700255871778 0 0.5877852410284794 0.5877852410284794 0 -0.80901700255871778 1 I I #
face $-1 $-1 $215 $30 $-1 $389 reversed single #
loop $-1 $-1 $301 $200 #
plane-surface $-1 0 48.958380143570444 0 0 -1 0 0 0 -1 forward_v I I I I #
coedge $-1 $390 $299 $302 $391 forward $201 $-1 #
coedge $-1 $305 $203 $204 $293 reversed $127 $-1 #
coedge $-1 $299 $390 $203 $291 reversed $201 $-1 #
edge $-1 $306 -23.630669789686355 $392 23.630669789686355 $290 $393 forward 7 unknown #
coedge $-1 $205 $204 $390 $394 forward $81 $-1 #
edge $-1 $297 -71.35349589526048 $392 71.35349589526048 $289 $395 forward 7 unknown #
coedge $-1 $302 $301 $205 $295 reversed $286 $-1 #
edge $-1 $396 -71.35349589526048 $296 71.35349589526048 $294 $397 forward 7 unknown #
vertex $-1 $207 $398 #
vertex $-1 $308 $399 #
straight-curve $-1 71.35349589526048 0 -23.630669789686355 0 -1 0 I I #
coedge $-1 $288 $290 $208 $300 reversed $201 $-1 #
edge $-1 $303 -48.958380143570444 $306 48.958380143570444 $299 $400 forward 7 unknown #
coedge $-1 $294 $209 $214 $309 forward $286 $-1 #
coedge $-1 $209 $294 $288 $391 reversed $286 $-1 #
vertex $-1 $210 $401 #
straight-curve $-1 0 48.958380143570444 23.630669789686355 -1 0 0 I I #
coedge $-1 $211 $289 $213 $308 reversed $127 $-1 #
vertex $-1 $300 $402 #
straight-curve $-1 0 -48.958380143570444 23.630669789686355 1 0 0 I I #
edge $-1 $216 -23.630669789686355 $297 23.630669789686355 $213 $403 forward 7 unknown #
edge $-1 $217 -23.630669789686355 $296 23.630669789686355 $214 $404 forward 7 unknown #
point $-1 71.35349589526048 -48.958380143570444 23.630669789686355 #
point $-1 71.35349589526048 48.958380143570444 23.630669789686355 #
face $-1 $-1 $328 $31 $-1 $405 reversed single #
loop $-1 $-1 $406 $219 #
plane-surface $-1 0 -75.917074992165382 -0.19917354109330887 0 1 0 0 0 1 forward_v I I I I #
coedge $-1 $407 $325 $327 $408 forward $220 $-1 #
coedge $-1 $222 $229 $409 $410 forward $135 $-1 #
coedge $-1 $411 $227 $222 $318 reversed $328 $-1 #
edge $-1 $412 -13.479347424297472 $231 13.479347424297465 $317 $413 forward 7 unknown #
coedge $-1 $224 $223 $406 $414 reversed $85 $-1 #
coedge $-1 $325 $407 $223 $321 forward $220 $-1 #
edge $-1 $415 -13.479347424297472 $323 13.479347424297465 $223 $416 forward 7 unknown #
edge $-1 $230 -13.479347424297465 $417 13.479347424297472 $224 $418 forward 7 unknown #
vertex $-1 $225 $419 #
straight-curve $-1 -71.35349589526048 -48.958380143570444 0 0 0 -1 I I #
coedge $-1 $315 $320 $226 $326 reversed $220 $-1 #
edge $-1 $329 -71.35349589526048 $323 71.35349589526048 $325 $420 forward 7 unknown #
coedge $-1 $227 $411 $315 $408 reversed $328 $-1 #
loop $-1 $-1 $227 $312 #
vertex $-1 $228 $421 #
straight-curve $-1 71.35349589526048 -48.958380143570444 0 0 0 1 I I #
point $-1 -71.35349589526048 -48.958380143570444 4.5146283616236609 #
point $-1 71.35349589526048 -48.958380143570444 4.5146283616236609 #
loop $-1 $-1 $240 $233 #
plane-surface $-1 -71.35349589526048 0 0 1 0 0 0 0 -1 forward_v I I I I #
coedge $-1 $422 $423 $237 $337 forward $234 $-1 #
coedge $-1 $237 $236 $342 $424 reversed $89 $-1 #
edge $-1 $339 -2.181733597628368 $425 18.023808798808609 $335 $426 forward 7 unknown #
coedge $-1 $243 $238 $423 $427 forward $143 $-1 #
vertex $-1 $427 $428 #
straight-curve $-1 -59.47697628765961 20.872221849302907 23.630669789686355 0 1 0 I I #
coedge $-1 $429 $240 $243 $346 reversed $333 $-1 #
coedge $-1 $240 $429 $336 $424 forward $333 $-1 #
vertex $-1 $241 $430 #
straight-curve $-1 -71.35349589526048 34.530507253641176 45.582553005544199 0 0 1 I I #
straight-curve $-1 -71.353495895260494 34.530507253641176 7.2840424450478025 -0.5877852410284794 0 -0.80901700255871778 I I #
edge $-1 $431 -48.958380143570444 $244 -34.530507253641176 $341 $432 forward 7 unknown #
point $-1 -71.35349589526048 34.530507253641176 23.630669789686355 #
point $-1 -59.47697628765961 34.530507253641176 23.630669789686355 #
edge $-1 $433 1 $433 0 $247 $-1 forward 7 unknown #
vertex $-1 $248 $434 #
ellipse-curve $-1 -62.742692482799931 37.416081831627032 13.515639584578397 -0.80901700255871778 0 0.5877852410284794 0.5877852410284794 0 0.80901700255871778 1 I I #
point $-1 -64.827450850431561 37.416081831627032 16.266373119925795 #
edge $-1 $435 1 $435 0 $251 $-1 forward 7 unknown #
vertex $-1 $252 $436 #
ellipse-curve $-1 -62.742692482799931 41.744443698605814 13.515639584578397 -0.80901700255871778 0 0.5877852410284794 0.5877852410284794 0 0.80901700255871778 1 I I #
point $-1 -64.827450850431561 41.744443698605814 16.266373119925795 #
edge $-1 $437 1 $437 0 $255 $-1 forward 7 unknown #
vertex $-1 $256 $438 #
ellipse-curve $-1 -62.742692482799931 46.072805565584595 13.515639584578397 -0.80901700255871778 0 0.5877852410284794 0.5877852410284794 0 0.80901700255871778 1 I I #
point $-1 -64.827450850431561 46.072805565584595 16.266373119925795 #
loop $-1 $-1 $364 $259 #
plane-surface $-1 0 48.958380143570444 0 0 -1 0 0 0 -1 forward_v I I I I #
coedge $-1 $263 $262 $370 $439 reversed $108 $-1 #
coedge $-1 $440 $441 $263 $365 forward $361 $-1 #
edge $-1 $367 -89.377304694069124 $442 -69.171762297632114 $364 $443 forward 7 unknown #
coedge $-1 $269 $264 $441 $444 reversed $172 $-1 #
vertex $-1 $265 $445 #
straight-curve $-1 71.353495895260494 20.872221849302907 7.2840424450477883 0 1 0 I I #
coedge $-1 $446 $266 $269 $374 forward $260 $-1 #
coedge $-1 $266 $446 $363 $439 forward $260 $-1 #
vertex $-1 $267 $447 #
straight-curve $-1 51.462407535879343 34.530507253641176 23.630669789686351 1 0 0 I I #
straight-curve $-1 -12.52756767078013 34.530507253641176 122.73642518758662 -0.5877852410284794 0 0.80901700255871778 I I #
edge $-1 $270 34.530507253641176 $448 48.958380143570444 $269 $449 forward 7 unknown #
point $-1 71.35349589526048 34.530507253641176 23.630669789686355 #
point $-1 71.35349589526048 34.530507253641176 7.2840424450477883 #
edge $-1 $450 1 $450 0 $273 $-1 forward 7 unknown #
vertex $-1 $274 $451 #
ellipse-curve $-1 62.742692482799931 37.416081831627032 13.515639584578389 0.80901700255871778 0 0.5877852410284794 0.5877852410284794 0 -0.80901700255871778 1 I I #
point $-1 66.00302133248853 37.416081831627032 14.648339114808355 #
edge $-1 $452 1 $452 0 $277 $-1 forward 7 unknown #
vertex $-1 $278 $453 #
ellipse-curve $-1 62.742692482799931 41.744443698605814 13.515639584578389 0.80901700255871778 0 0.5877852410284794 0.5877852410284794 0 -0.80901700255871778 1 I I #
point $-1 66.00302133248853 41.744443698605814 14.648339114808355 #
edge $-1 $454 1 $454 0 $281 $-1 forward 7 unknown #
vertex $-1 $282 $455 #
ellipse-curve $-1 62.742692482799931 46.072805565584595 13.515639584578389 0.80901700255871778 0 0.5877852410284794 0.5877852410284794 0 -0.80901700255871778 1 I I #
point $-1 66.00302133248853 46.072805565584595 14.648339114808355 #
plane-surface $-1 71.35349589526048 0 0 -1 0 0 0 0 1 forward_v I I I I #
coedge $-1 $290 $288 $292 $394 reversed $201 $-1 #
edge $-1 $303 -23.630669789686355 $396 23.630669789686355 $302 $456 forward 7 unknown #
vertex $-1 $394 $457 #
straight-curve $-1 -71.35349589526048 -48.958380143570444 0 0 0 -1 I I #
edge $-1 $392 -48.958380143570444 $396 48.958380143570444 $390 $458 forward 7 unknown #
straight-curve $-1 0 -48.958380143570444 -23.630669789686355 -1 0 0 I I #
vertex $-1 $295 $459 #
straight-curve $-1 0 48.958380143570444 -23.630669789686355 1 0 0 I I #
point $-1 71.35349589526048 48.958380143570444 -23.630669789686355 #
point $-1 71.35349589526048 -48.958380143570444 -23.630669789686355 #
straight-curve $-1 -71.35349589526048 0 23.630669789686355 0 -1 0 I I #
point $-1 -71.35349589526048 48.958380143570444 23.630669789686355 #
point $-1 -71.35349589526048 -48.958380143570444 23.630669789686355 #
straight-curve $-1 71.35349589526048 -48.958380143570444 0 0 0 -1 I I #
straight-curve $-1 71.35349589526048 48.958380143570444 0 0 0 -1 I I #
plane-surface $-1 71.35349589526048 0 0 -1 0 0 0 0 1 forward_v I I I I #
coedge $-1 $460 $409 $319 $414 forward $313 $-1 #
coedge $-1 $320 $315 $460 $461 forward $220 $-1 #
edge $-1 $329 -13.479347424297465 $462 13.479347424297472 $327 $463 forward 7 unknown #
coedge $-1 $406 $464 $316 $410 reversed $313 $-1 #
edge $-1 $417 -71.35349589526048 $412 71.35349589526048 $409 $465 forward 7 unknown #
coedge $-1 $327 $317 $464 $466 forward $328 $-1 #
vertex $-1 $318 $467 #
straight-curve $-1 71.35349589526048 -62.43772756786791 4.5146283616236609 0 1 0 I I #
edge $-1 $417 -4.7138019027169697 $415 4.7138019027169697 $319 $468 forward 7 unknown #
vertex $-1 $321 $469 #
straight-curve $-1 -71.35349589526048 -62.43772756786791 -4.9129754438102786 0 1 0 I I #
vertex $-1 $322 $470 #
straight-curve $-1 -71.35349589526048 -62.43772756786791 4.5146283616236609 0 -1 0 I I #
point $-1 -71.35349589526048 -48.958380143570444 -4.9129754438102786 #
straight-curve $-1 0 -48.958380143570444 -4.9129754438102786 -1 0 0 I I #
point $-1 71.35349589526048 -48.958380143570444 -4.9129754438102786 #
coedge $-1 $423 $335 $429 $471 reversed $234 $-1 #
coedge $-1 $335 $422 $338 $427 reversed $234 $-1 #
edge $-1 $425 -28.086158294267545 $343 -13.658285404338269 $342 $472 forward 7 unknown #
vertex $-1 $337 $473 #
straight-curve $-1 -60.75936709620153 48.958380143570444 21.865610214151403 -0.5877852410284794 0 -0.80901700255871778 I I #
edge $-1 $339 59.47697628765961 $431 71.35349589526048 $423 $474 forward 7 unknown #
point $-1 -59.47697628765961 48.958380143570452 23.630669789686355 #
coedge $-1 $342 $341 $422 $471 forward $333 $-1 #
point $-1 -71.35349589526048 34.530507253641176 7.2840424450478221 #
vertex $-1 $427 $475 #
straight-curve $-1 -71.35349589526048 0 23.630669789686355 0 -1 0 I I #
vertex $-1 $349 $476 #
point $-1 -62.154907241771454 37.416081831627032 14.324656587137113 #
vertex $-1 $353 $477 #
point $-1 -62.154907241771454 41.744443698605814 14.324656587137113 #
vertex $-1 $357 $478 #
point $-1 -62.154907241771454 46.072805565584595 14.324656587137113 #
edge $-1 $442 -28.086158294267545 $371 -13.658285404338269 $370 $479 forward 7 unknown #
coedge $-1 $441 $364 $446 $480 reversed $361 $-1 #
coedge $-1 $364 $440 $366 $444 forward $361 $-1 #
vertex $-1 $365 $481 #
straight-curve $-1 18.818835313181218 48.958380143570444 79.591801585420811 -0.5877852410284794 0 0.80901700255871778 I I #
edge $-1 $448 -23.630669789686355 $367 -7.2840424450477892 $366 $482 forward 7 unknown #
point $-1 71.35349589526048 48.958380143570444 7.2840424450477892 #
coedge $-1 $370 $369 $440 $480 forward $260 $-1 #
point $-1 59.476976287659596 34.530507253641176 23.630669789686351 #
vertex $-1 $374 $483 #
straight-curve $-1 71.35349589526048 0 23.630669789686355 0 1 0 I I #
vertex $-1 $377 $484 #
point $-1 63.330477723828409 37.416081831627032 12.706622582019671 #
vertex $-1 $381 $485 #
point $-1 63.330477723828409 41.744443698605814 12.706622582019671 #
vertex $-1 $385 $486 #
point $-1 63.330477723828409 46.072805565584595 12.706622582019671 #
straight-curve $-1 -71.35349589526048 48.958380143570444 0 0 0 -1 I I #
point $-1 -71.35349589526048 -48.958380143570444 -23.630669789686355 #
straight-curve $-1 -71.35349589526048 0 -23.630669789686355 0 1 0 I I #
point $-1 -71.35349589526048 48.958380143570444 -23.630669789686355 #
coedge $-1 $464 $406 $407 $461 reversed $313 $-1 #
edge $-1 $462 -71.35349589526048 $415 71.35349589526048 $460 $487 forward 7 unknown #
vertex $-1 $466 $488 #
straight-curve $-1 71.35349589526048 -62.43772756786791 -4.9129754438102786 0 -1 0 I I #
coedge $-1 $409 $460 $411 $466 reversed $313 $-1 #
straight-curve $-1 0 -75.917074992165382 4.5146283616236609 1 0 0 I I #
edge $-1 $412 -4.7138019027169697 $462 4.7138019027169697 $411 $489 forward 7 unknown #
point $-1 71.35349589526048 -75.917074992165382 4.5146283616236609 #
straight-curve $-1 -71.35349589526048 -75.917074992165382 -0.19917354109330887 0 0 -1 I I #
point $-1 -71.35349589526048 -75.917074992165382 -4.9129754438102786 #
point $-1 -71.35349589526048 -75.917074992165382 4.5146283616236609 #
edge $-1 $431 -23.630669789686355 $425 -7.2840424450478221 $422 $490 forward 7 unknown #
straight-curve $-1 -71.35349589526048 20.872221849302907 7.2840424450478327 0 -1 0 I I #
point $-1 -71.35349589526048 48.958380143570452 7.2840424450478221 #
straight-curve $-1 0 48.958380143570444 23.630669789686355 -1 0 0 I I #
point $-1 -71.35349589526048 48.958380143570444 23.630669789686355 #
point $-1 -61.933675480241213 37.416081831627032 12.927854343549916 #
point $-1 -61.933675480241213 41.744443698605814 12.927854343549916 #
point $-1 -61.933675480241213 46.072805565584595 12.927854343549916 #
straight-curve $-1 59.476976287659589 20.872221849302907 23.630669789686351 0 -1 0 I I #
edge $-1 $448 -71.35349589526048 $442 -59.476976287659596 $440 $491 forward 7 unknown #
point $-1 59.476976287659596 48.958380143570452 23.630669789686351 #
straight-curve $-1 71.35349589526048 48.958380143570444 0 0 0 -1 I I #
point $-1 71.35349589526048 48.958380143570444 23.630669789686355 #
point $-1 61.933675480241213 37.416081831627032 12.927854343549908 #
point $-1 61.933675480241213 41.744443698605814 12.927854343549908 #
point $-1 61.933675480241213 46.072805565584595 12.927854343549908 #
straight-curve $-1 0 -75.917074992165382 -4.9129754438102786 -1 0 0 I I #
point $-1 71.35349589526048 -75.917074992165382 -4.9129754438102786 #
straight-curve $-1 71.35349589526048 -75.917074992165382 -0.19917354109330887 0 0 -1 I I #
straight-curve $-1 -71.35349589526048 48.958380143570444 0 0 0 -1 I I #
straight-curve $-1 0 48.958380143570444 23.630669789686355 -1 0 0 I I #
End-of-ACIS-data 