500 0 9 0           
7 Unknown 11 ACIS 5.0 NT 24 Fri Mar 26 02:48:50 1999 
-1 9.9999999999999995e-007 1e-010 
body $-1 $9 $-1 $10 #
body $-1 $11 $-1 $12 #
body $-1 $13 $-1 $14 #
body $-1 $15 $-1 $16 #
body $-1 $17 $-1 $18 #
body $-1 $19 $-1 $20 #
body $-1 $21 $-1 $22 #
body $-1 $23 $-1 $24 #
body $-1 $25 $-1 $26 #
lump $-1 $-1 $27 $0 #
transform $-1 1 0 0 0 1 0 0 0 1 64.870143742179636 33.557386531798507 8.1419701042238994 1 rotate no_reflect no_shear #
lump $-1 $-1 $28 $1 #
transform $-1 1 0 0 0 1 0 0 0 1 64.870143742179636 33.557386531798507 8.1419701042238994 1 rotate no_reflect no_shear #
lump $-1 $-1 $29 $2 #
transform $-1 1 0 0 0 1 0 0 0 1 64.870143742179636 33.557386531798507 8.1419701042238994 1 rotate no_reflect no_shear #
lump $-1 $-1 $30 $3 #
transform $-1 1 0 0 0 1 0 0 0 1 64.870143742179636 33.557386531798507 8.1419701042238994 1 rotate no_reflect no_shear #
lump $-1 $-1 $31 $4 #
transform $-1 1 0 0 0 1 0 0 0 1 64.870143742179636 33.557386531798507 8.1419701042238994 1 rotate no_reflect no_shear #
lump $-1 $-1 $32 $5 #
transform $-1 1 0 0 0 1 0 0 0 1 64.870143742179636 33.557386531798507 8.1419701042238994 1 rotate no_reflect no_shear #
lump $-1 $-1 $33 $6 #
transform $-1 1 0 0 0 1 0 0 0 1 64.870143742179636 33.557386531798507 8.1419701042238994 1 rotate no_reflect no_shear #
lump $-1 $-1 $34 $7 #
transform $-1 1 0 0 0 1 0 0 0 1 64.870143742179636 33.557386531798507 8.1419701042238994 1 rotate no_reflect no_shear #
lump $-1 $-1 $35 $8 #
transform $-1 1 0 0 0 1 0 0 0 1 64.870143742179636 33.557386531798507 8.1419701042238994 1 rotate no_reflect no_shear #
shell $-1 $-1 $-1 $36 $-1 $9 #
shell $-1 $-1 $-1 $37 $-1 $11 #
shell $-1 $-1 $-1 $38 $-1 $13 #
shell $-1 $-1 $-1 $39 $-1 $15 #
shell $-1 $-1 $-1 $40 $-1 $17 #
shell $-1 $-1 $-1 $41 $-1 $19 #
shell $-1 $-1 $-1 $42 $-1 $21 #
shell $-1 $-1 $-1 $43 $-1 $23 #
shell $-1 $-1 $-1 $44 $-1 $25 #
face $-1 $45 $46 $27 $-1 $47 forward single #
face $-1 $48 $49 $28 $-1 $50 reversed single #
face $-1 $51 $52 $29 $-1 $53 reversed single #
face $-1 $54 $55 $30 $-1 $56 reversed single #
face $-1 $57 $58 $31 $-1 $59 forward single #
face $-1 $60 $61 $32 $-1 $62 forward single #
face $-1 $63 $64 $33 $-1 $65 reversed single #
face $-1 $66 $67 $34 $-1 $68 forward single #
face $-1 $69 $70 $35 $-1 $71 forward single #
face $-1 $72 $73 $27 $-1 $74 reversed single #
loop $-1 $-1 $75 $36 #
plane-surface $-1 0 0 8.1419701042238994 0 0 1 1 0 0 forward_v I I I I #
face $-1 $76 $77 $28 $-1 $78 reversed single #
loop $-1 $-1 $79 $37 #
plane-surface $-1 -57.307073306176228 -29.377422774028105 0 1 0 0 0 0 -1 forward_v I I I I #
face $-1 $80 $81 $29 $-1 $82 reversed single #
loop $-1 $-1 $83 $38 #
plane-surface $-1 -55.068932270384856 25.197459016257703 0 0 1 0 0 0 1 forward_v I I I I #
face $-1 $84 $85 $30 $-1 $86 reversed single #
loop $-1 $-1 $87 $39 #
plane-surface $-1 -173.679505370573 -10.717607271261528 72.186780013438593 0 1 0 -0.83867057594974714 0 0.54463902268945019 forward_v I I I I #
face $-1 $88 $89 $31 $-1 $90 forward single #
loop $-1 $91 $92 $40 #
cone-surface $-1 -61.641608157435726 -7.6554337651868067 4.1321829304971933 0.83867057594974714 0 -0.54463902268945019 0.54463902268945019 0 0.83867057594974714 1 I I 0 1 1 forward I I I I #
face $-1 $93 $94 $32 $-1 $95 forward single #
loop $-1 $96 $97 $41 #
cone-surface $-1 -61.641608157435726 -3.0621735060747213 4.1321829304971933 0.83867057594974714 0 -0.54463902268945019 0.54463902268945019 0 0.83867057594974714 1 I I 0 1 1 forward I I I I #
face $-1 $98 $99 $33 $-1 $100 reversed single #
loop $-1 $-1 $101 $42 #
plane-surface $-1 -64.870143742179636 -5.358803635630764 1.5251566345088463 -0.83867057594974714 0 0.54463902268945019 0.54463902268945019 0 0.83867057594974714 forward_v I I I I #
face $-1 $102 $103 $34 $-1 $104 forward single #
loop $-1 $105 $106 $43 #
cone-surface $-1 -61.641608157435726 3.0621735060747213 4.1321829304971933 0.83867057594974714 0 -0.54463902268945019 0.54463902268945019 0 0.83867057594974714 1 I I 0 1 1 forward I I I I #
face $-1 $107 $108 $35 $-1 $109 forward single #
loop $-1 $110 $111 $44 #
cone-surface $-1 -61.641608157435726 7.6554337651868067 4.1321829304971933 0.83867057594974714 0 -0.54463902268945019 0.54463902268945019 0 0.83867057594974714 1 I I 0 1 1 forward I I I I #
face $-1 $112 $113 $27 $-1 $114 reversed single #
loop $-1 $-1 $115 $45 #
plane-surface $-1 0 0 -8.1419701042238994 0 0 1 1 0 0 forward_v I I I I #
coedge $-1 $116 $117 $118 $119 forward $46 $-1 #
face $-1 $120 $121 $28 $-1 $122 reversed single #
loop $-1 $-1 $123 $48 #
plane-surface $-1 -55.068932270384856 -25.197459016257703 0 0 -1 0 0 0 -1 forward_v I I I I #
coedge $-1 $124 $125 $126 $127 forward $49 $-1 #
face $-1 $128 $129 $29 $-1 $130 reversed single #
loop $-1 $-1 $131 $51 #
plane-surface $-1 -57.307073306176228 29.377422774028105 0 1 0 0 0 0 -1 forward_v I I I I #
coedge $-1 $132 $133 $134 $135 forward $52 $-1 #
face $-1 $136 $137 $30 $-1 $138 reversed single #
loop $-1 $-1 $139 $54 #
plane-surface $-1 -64.870143742179636 -5.358803635630764 1.5251566345088463 -0.83867057594974714 0 0.54463902268945019 0.54463902268945019 0 0.83867057594974714 forward_v I I I I #
coedge $-1 $140 $141 $142 $143 reversed $55 $-1 #
face $-1 $-1 $144 $31 $-1 $145 forward single #
loop $-1 $146 $147 $57 #
cone-surface $-1 -60.142241670591517 -7.6554337651868067 3.1584829802832797 0.83867057594974714 0 -0.54463902268945019 0.2723195113447251 0 0.41933528797487357 1 I I -0.70710678118654746 0.70710678118654746 0.5 forward I I I I #
loop $-1 $-1 $148 $40 #
coedge $-1 $92 $92 $149 $150 reversed $58 $-1 #
face $-1 $-1 $151 $32 $-1 $152 forward single #
loop $-1 $153 $154 $60 #
cone-surface $-1 -60.142241670591517 -3.0621735060747213 3.1584829802832797 0.83867057594974714 0 -0.54463902268945019 0.2723195113447251 0 0.41933528797487357 1 I I -0.70710678118654746 0.70710678118654746 0.5 forward I I I I #
loop $-1 $-1 $155 $41 #
coedge $-1 $97 $97 $156 $157 reversed $61 $-1 #
face $-1 $158 $159 $33 $-1 $160 reversed single #
loop $-1 $-1 $161 $63 #
plane-surface $-1 -173.679505370573 10.717607271261528 72.186780013438593 0 -1 0 0.83867057594974714 0 -0.54463902268945019 forward_v I I I I #
coedge $-1 $162 $163 $164 $165 reversed $64 $-1 #
face $-1 $-1 $166 $34 $-1 $167 forward single #
loop $-1 $168 $169 $66 #
cone-surface $-1 -60.142241670591517 3.0621735060747213 3.1584829802832797 0.83867057594974714 0 -0.54463902268945019 0.2723195113447251 0 0.41933528797487357 1 I I -0.70710678118654746 0.70710678118654746 0.5 forward I I I I #
loop $-1 $-1 $170 $43 #
coedge $-1 $106 $106 $171 $172 reversed $67 $-1 #
face $-1 $-1 $173 $35 $-1 $174 forward single #
loop $-1 $175 $176 $69 #
cone-surface $-1 -60.142241670591517 7.6554337651868067 3.1584829802832797 0.83867057594974714 0 -0.54463902268945019 0.2723195113447251 0 0.41933528797487357 1 I I -0.70710678118654746 0.70710678118654746 0.5 forward I I I I #
loop $-1 $-1 $177 $44 #
coedge $-1 $111 $111 $178 $179 reversed $70 $-1 #
face $-1 $180 $181 $27 $-1 $182 reversed single #
loop $-1 $-1 $183 $72 #
plane-surface $-1 0 -33.557386531798507 0 0 1 0 0 0 1 forward_v I I I I #
coedge $-1 $184 $185 $186 $187 forward $73 $-1 #
coedge $-1 $188 $75 $189 $190 forward $46 $-1 #
coedge $-1 $75 $188 $191 $192 forward $46 $-1 #
coedge $-1 $193 $194 $75 $119 reversed $195 $-1 #
edge $-1 $196 -33.557386531798507 $197 33.557386531798507 $118 $198 forward 7 unknown #
face $-1 $199 $200 $28 $-1 $201 forward single #
loop $-1 $-1 $202 $76 #
plane-surface $-1 -52.830791234593484 -29.377422774028105 0 -1 0 0 0 0 1 forward_v I I I I #
coedge $-1 $203 $204 $205 $206 forward $77 $-1 #
coedge $-1 $207 $79 $208 $209 reversed $49 $-1 #
coedge $-1 $79 $207 $210 $211 reversed $49 $-1 #
coedge $-1 $204 $203 $79 $127 reversed $77 $-1 #
edge $-1 $212 -8.1419701042238994 $213 8.1419701042238994 $126 $214 forward 7 unknown #
face $-1 $215 $216 $29 $-1 $217 reversed single #
loop $-1 $-1 $218 $80 #
plane-surface $-1 -52.830791234593484 29.377422774028105 0 -1 0 0 0 0 1 forward_v I I I I #
coedge $-1 $219 $220 $221 $222 reversed $81 $-1 #
coedge $-1 $223 $83 $224 $225 reversed $52 $-1 #
coedge $-1 $83 $223 $226 $227 reversed $52 $-1 #
coedge $-1 $220 $219 $83 $135 reversed $81 $-1 #
edge $-1 $228 -8.1419701042238994 $229 8.1419701042238994 $134 $230 forward 7 unknown #
face $-1 $231 $232 $30 $-1 $233 reversed single #
loop $-1 $-1 $234 $84 #
plane-surface $-1 -173.679505370573 0 72.186780013438593 0 -1 0 0.83867057594974714 0 -0.54463902268945019 forward_v I I I I #
coedge $-1 $235 $236 $237 $238 reversed $85 $-1 #
coedge $-1 $141 $87 $239 $240 reversed $55 $-1 #
coedge $-1 $87 $140 $235 $241 reversed $55 $-1 #
coedge $-1 $237 $242 $87 $143 forward $243 $-1 #
edge $-1 $244 21.969608943106863 $245 26.266617714856039 $142 $246 forward 7 unknown #
loop $-1 $-1 $149 $88 #
plane-surface $-1 -64.870143742179636 -5.358803635630764 1.5251566345088463 -0.83867057594974714 0 0.54463902268945019 0.54463902268945019 0 0.83867057594974714 forward_v I I I I #
loop $-1 $-1 $247 $57 #
coedge $-1 $147 $147 $148 $248 reversed $89 $-1 #
coedge $-1 $148 $148 $147 $248 forward $91 $-1 #
coedge $-1 $149 $149 $92 $150 forward $144 $-1 #
edge $-1 $249 0 $249 6.2831853071796004 $149 $250 forward 7 unknown #
loop $-1 $-1 $156 $93 #
plane-surface $-1 -64.870143742179636 -5.358803635630764 1.5251566345088463 -0.83867057594974714 0 0.54463902268945019 0.54463902268945019 0 0.83867057594974714 forward_v I I I I #
loop $-1 $-1 $251 $60 #
coedge $-1 $154 $154 $155 $252 reversed $94 $-1 #
coedge $-1 $155 $155 $154 $252 forward $96 $-1 #
coedge $-1 $156 $156 $97 $157 forward $151 $-1 #
edge $-1 $253 0 $253 6.2831853071796004 $156 $254 forward 7 unknown #
face $-1 $255 $256 $33 $-1 $257 forward single #
loop $-1 $-1 $258 $98 #
plane-surface $-1 -64.870143742179636 0 0 1 0 0 0 0 -1 forward_v I I I I #
coedge $-1 $259 $260 $261 $262 reversed $99 $-1 #
coedge $-1 $263 $101 $264 $265 reversed $64 $-1 #
coedge $-1 $101 $263 $266 $267 reversed $64 $-1 #
coedge $-1 $268 $269 $101 $165 forward $256 $-1 #
edge $-1 $270 0 $271 7.8896454215314353 $164 $272 forward 7 unknown #
loop $-1 $-1 $171 $102 #
plane-surface $-1 -64.870143742179636 -5.358803635630764 1.5251566345088463 -0.83867057594974714 0 0.54463902268945019 0.54463902268945019 0 0.83867057594974714 forward_v I I I I #
loop $-1 $-1 $273 $66 #
coedge $-1 $169 $169 $170 $274 reversed $103 $-1 #
coedge $-1 $170 $170 $169 $274 forward $105 $-1 #
coedge $-1 $171 $171 $106 $172 forward $166 $-1 #
edge $-1 $275 0 $275 6.2831853071796004 $171 $276 forward 7 unknown #
loop $-1 $-1 $178 $107 #
plane-surface $-1 -64.870143742179636 -5.358803635630764 1.5251566345088463 -0.83867057594974714 0 0.54463902268945019 0.54463902268945019 0 0.83867057594974714 forward_v I I I I #
loop $-1 $-1 $277 $69 #
coedge $-1 $176 $176 $177 $278 reversed $108 $-1 #
coedge $-1 $177 $177 $176 $278 forward $110 $-1 #
coedge $-1 $178 $178 $111 $179 forward $173 $-1 #
edge $-1 $279 0 $279 6.2831853071796004 $178 $280 forward 7 unknown #
face $-1 $281 $282 $27 $-1 $283 reversed single #
loop $-1 $-1 $284 $112 #
plane-surface $-1 -64.870143742179636 0 0 1 0 0 0 0 -1 forward_v I I I I #
coedge $-1 $285 $191 $286 $287 forward $113 $-1 #
coedge $-1 $288 $115 $285 $289 forward $73 $-1 #
coedge $-1 $115 $288 $290 $291 forward $73 $-1 #
coedge $-1 $194 $193 $115 $187 reversed $195 $-1 #
edge $-1 $292 -33.557386531798507 $293 33.557386531798507 $186 $294 forward 7 unknown #
coedge $-1 $117 $116 $295 $296 forward $46 $-1 #
coedge $-1 $297 $298 $116 $190 reversed $282 $-1 #
edge $-1 $197 -64.870143742179636 $299 64.870143742179636 $189 $300 forward 7 unknown #
coedge $-1 $183 $301 $117 $192 reversed $113 $-1 #
edge $-1 $302 -64.870143742179636 $196 64.870143742179636 $191 $303 forward 7 unknown #
coedge $-1 $186 $118 $301 $304 forward $195 $-1 #
coedge $-1 $118 $186 $297 $305 reversed $195 $-1 #
loop $-1 $-1 $193 $281 #
vertex $-1 $119 $306 #
vertex $-1 $119 $307 #
straight-curve $-1 64.870143742179636 0 8.1419701042238994 0 1 0 I I #
face $-1 $308 $309 $28 $-1 $310 reversed single #
loop $-1 $-1 $311 $120 #
plane-surface $-1 0 0 8.1419701042238994 0 0 1 1 0 0 forward_v I I I I #
coedge $-1 $312 $313 $314 $315 reversed $121 $-1 #
coedge $-1 $126 $123 $316 $317 reversed $77 $-1 #
coedge $-1 $123 $126 $318 $319 reversed $77 $-1 #
coedge $-1 $313 $312 $123 $206 reversed $121 $-1 #
edge $-1 $320 -8.1419701042238994 $321 8.1419701042238994 $205 $322 forward 7 unknown #
coedge $-1 $125 $124 $323 $324 reversed $49 $-1 #
coedge $-1 $316 $325 $124 $209 forward $309 $-1 #
edge $-1 $326 -18.868675144784454 $213 -10.508747629243651 $208 $327 forward 7 unknown #
coedge $-1 $328 $318 $125 $211 forward $200 $-1 #
edge $-1 $212 10.508747629243651 $329 18.868675144784454 $210 $330 forward 7 unknown #
vertex $-1 $211 $331 #
vertex $-1 $209 $332 #
straight-curve $-1 -57.307073306176228 -25.197459016257703 0 0 0 -1 I I #
face $-1 $333 $334 $29 $-1 $335 forward single #
loop $-1 $-1 $336 $128 #
plane-surface $-1 0 0 -8.1419701042238994 0 0 1 1 0 0 forward_v I I I I #
coedge $-1 $337 $338 $223 $339 forward $129 $-1 #
coedge $-1 $134 $131 $340 $341 reversed $81 $-1 #
coedge $-1 $131 $134 $342 $343 reversed $81 $-1 #
coedge $-1 $344 $345 $131 $222 forward $346 $-1 #
edge $-1 $347 -8.1419701042238994 $348 8.1419701042238994 $221 $349 forward 7 unknown #
coedge $-1 $133 $132 $218 $339 reversed $52 $-1 #
coedge $-1 $340 $336 $132 $225 forward $216 $-1 #
edge $-1 $350 25.296325099401056 $229 29.7726071709838 $224 $351 forward 7 unknown #
coedge $-1 $352 $342 $133 $227 forward $334 $-1 #
edge $-1 $228 -29.7726071709838 $353 -25.296325099401056 $226 $354 forward 7 unknown #
vertex $-1 $227 $355 #
vertex $-1 $225 $356 #
straight-curve $-1 -57.307073306176228 25.197459016257703 0 0 0 -1 I I #
face $-1 $-1 $243 $30 $-1 $357 forward single #
loop $-1 $-1 $358 $136 #
plane-surface $-1 -64.870143742179636 0 0 1 0 0 0 0 -1 forward_v I I I I #
coedge $-1 $359 $360 $361 $362 reversed $137 $-1 #
coedge $-1 $363 $139 $141 $241 forward $85 $-1 #
coedge $-1 $139 $363 $359 $364 forward $85 $-1 #
coedge $-1 $361 $142 $139 $238 forward $243 $-1 #
edge $-1 $245 -8.038205453446146 $365 2.679401817815382 $237 $366 forward 7 unknown #
coedge $-1 $367 $368 $140 $240 forward $232 $-1 #
edge $-1 $369 -34.56823337221045 $244 -27.951419902495395 $239 $370 forward 7 unknown #
edge $-1 $245 -7.8896454215314353 $369 0 $141 $371 forward 7 unknown #
coedge $-1 $142 $361 $367 $372 forward $243 $-1 #
loop $-1 $-1 $361 $231 #
vertex $-1 $240 $373 #
vertex $-1 $143 $374 #
straight-curve $-1 -86.839752685286498 -10.717607271261528 8.1419701042239012 1 0 0 I I #
coedge $-1 $247 $247 $-1 $375 reversed $146 $-1 #
edge $-1 $376 0 $376 6.2831853071796004 $147 $377 forward 7 unknown #
vertex $-1 $150 $378 #
ellipse-curve $-1 -62.721639356305047 -7.6554337651868067 4.8335633693663738 -0.83867057594974714 0 0.54463902268945019 0.54463902268945019 0 0.83867057594974714 1 I I #
coedge $-1 $251 $251 $-1 $379 reversed $153 $-1 #
edge $-1 $380 0 $380 6.2831853071796004 $154 $381 forward 7 unknown #
vertex $-1 $157 $382 #
ellipse-curve $-1 -62.721639356305047 -3.0621735060747213 4.8335633693663738 -0.83867057594974714 0 0.54463902268945019 0.54463902268945019 0 0.83867057594974714 1 I I #
face $-1 $-1 $383 $33 $-1 $384 forward single #
loop $-1 $-1 $268 $158 #
plane-surface $-1 -173.679505370573 0 72.186780013438593 0 -1 0 0.83867057594974714 0 -0.54463902268945019 forward_v I I I I #
coedge $-1 $264 $385 $260 $386 forward $159 $-1 #
coedge $-1 $260 $161 $263 $387 reversed $99 $-1 #
coedge $-1 $161 $259 $258 $386 reversed $99 $-1 #
coedge $-1 $388 $266 $161 $262 forward $383 $-1 #
edge $-1 $389 -26.266617714856039 $390 -21.969608943106863 $261 $391 forward 7 unknown #
coedge $-1 $163 $162 $259 $387 forward $64 $-1 #
coedge $-1 $392 $258 $162 $265 forward $159 $-1 #
edge $-1 $393 -13.39700908907691 $270 -2.679401817815382 $264 $394 forward 7 unknown #
coedge $-1 $261 $395 $163 $267 forward $383 $-1 #
edge $-1 $271 2.679401817815382 $389 13.39700908907691 $266 $396 forward 7 unknown #
coedge $-1 $269 $164 $395 $397 reversed $256 $-1 #
coedge $-1 $164 $268 $392 $398 reversed $256 $-1 #
vertex $-1 $265 $399 #
vertex $-1 $267 $400 #
straight-curve $-1 -64.870143742179636 0 1.5251566345088463 0.54463902268945019 0 0.83867057594974714 I I #
coedge $-1 $273 $273 $-1 $401 reversed $168 $-1 #
edge $-1 $402 0 $402 6.2831853071796004 $169 $403 forward 7 unknown #
vertex $-1 $172 $404 #
ellipse-curve $-1 -62.721639356305047 3.0621735060747213 4.8335633693663738 -0.83867057594974714 0 0.54463902268945019 0.54463902268945019 0 0.83867057594974714 1 I I #
coedge $-1 $277 $277 $-1 $405 reversed $175 $-1 #
edge $-1 $406 0 $406 6.2831853071796004 $176 $407 forward 7 unknown #
vertex $-1 $179 $408 #
ellipse-curve $-1 -62.721639356305047 7.6554337651868067 4.8335633693663738 -0.83867057594974714 0 0.54463902268945019 0.54463902268945019 0 0.83867057594974714 1 I I #
face $-1 $-1 $195 $27 $-1 $409 reversed single #
loop $-1 $-1 $297 $180 #
plane-surface $-1 0 33.557386531798507 0 0 -1 0 0 0 -1 forward_v I I I I #
coedge $-1 $410 $295 $298 $411 forward $181 $-1 #
coedge $-1 $301 $183 $184 $289 reversed $113 $-1 #
coedge $-1 $295 $410 $183 $287 reversed $181 $-1 #
edge $-1 $302 -8.1419701042238994 $412 8.1419701042238994 $286 $413 forward 7 unknown #
coedge $-1 $185 $184 $410 $414 forward $73 $-1 #
edge $-1 $293 -64.870143742179636 $412 64.870143742179636 $285 $415 forward 7 unknown #
coedge $-1 $298 $297 $185 $291 reversed $282 $-1 #
edge $-1 $416 -64.870143742179636 $292 64.870143742179636 $290 $417 forward 7 unknown #
vertex $-1 $187 $418 #
vertex $-1 $304 $419 #
straight-curve $-1 64.870143742179636 0 -8.1419701042238994 0 -1 0 I I #
coedge $-1 $284 $286 $188 $296 reversed $181 $-1 #
edge $-1 $299 -33.557386531798507 $302 33.557386531798507 $295 $420 forward 7 unknown #
coedge $-1 $290 $189 $194 $305 forward $282 $-1 #
coedge $-1 $189 $290 $284 $411 reversed $282 $-1 #
vertex $-1 $190 $421 #
straight-curve $-1 0 33.557386531798507 8.1419701042238994 -1 0 0 I I #
coedge $-1 $191 $285 $193 $304 reversed $113 $-1 #
vertex $-1 $296 $422 #
straight-curve $-1 0 -33.557386531798507 8.1419701042238994 1 0 0 I I #
edge $-1 $196 -8.1419701042238994 $293 8.1419701042238994 $193 $423 forward 7 unknown #
edge $-1 $197 -8.1419701042238994 $292 8.1419701042238994 $194 $424 forward 7 unknown #
point $-1 64.870143742179636 -33.557386531798507 8.1419701042238994 #
point $-1 64.870143742179636 33.557386531798507 8.1419701042238994 #
face $-1 $-1 $425 $28 $-1 $426 reversed single #
loop $-1 $-1 $427 $199 #
plane-surface $-1 0 0 -8.1419701042238994 0 0 1 1 0 0 forward_v I I I I #
coedge $-1 $318 $328 $313 $428 forward $200 $-1 #
coedge $-1 $205 $202 $427 $429 reversed $121 $-1 #
coedge $-1 $202 $205 $311 $428 reversed $121 $-1 #
coedge $-1 $430 $431 $202 $315 forward $425 $-1 #
edge $-1 $432 -8.1419701042238994 $433 8.1419701042238994 $314 $434 forward 7 unknown #
coedge $-1 $427 $208 $203 $317 forward $309 $-1 #
edge $-1 $213 -29.7726071709838 $321 -25.296325099401056 $316 $435 forward 7 unknown #
coedge $-1 $210 $311 $204 $319 forward $200 $-1 #
edge $-1 $320 25.296325099401056 $212 29.7726071709838 $318 $436 forward 7 unknown #
vertex $-1 $319 $437 #
vertex $-1 $317 $438 #
straight-curve $-1 -52.830791234593484 -25.197459016257703 0 0 0 -1 I I #
coedge $-1 $431 $430 $207 $324 forward $425 $-1 #
edge $-1 $329 -8.1419701042238994 $326 8.1419701042238994 $323 $439 forward 7 unknown #
coedge $-1 $208 $427 $431 $440 forward $309 $-1 #
vertex $-1 $209 $441 #
straight-curve $-1 -57.307073306176228 -14.688711387014052 -8.1419701042238994 0 1 0 I I #
coedge $-1 $311 $210 $430 $442 forward $200 $-1 #
vertex $-1 $442 $443 #
straight-curve $-1 -57.307073306176228 -14.688711387014052 8.1419701042238994 0 -1 0 I I #
point $-1 -57.307073306176228 -25.197459016257703 8.1419701042238994 #
point $-1 -57.307073306176228 -25.197459016257703 -8.1419701042238994 #
face $-1 $-1 $346 $29 $-1 $444 reversed single #
loop $-1 $-1 $352 $215 #
plane-surface $-1 0 0 8.1419701042238994 0 0 1 1 0 0 forward_v I I I I #
coedge $-1 $224 $445 $337 $446 forward $216 $-1 #
coedge $-1 $447 $218 $336 $446 reversed $129 $-1 #
coedge $-1 $218 $447 $352 $448 reversed $129 $-1 #
edge $-1 $353 -8.1419701042238994 $350 8.1419701042238994 $218 $449 forward 7 unknown #
coedge $-1 $445 $224 $219 $341 forward $216 $-1 #
edge $-1 $229 10.508747629243651 $347 18.868675144784454 $340 $450 forward 7 unknown #
coedge $-1 $226 $451 $220 $343 forward $334 $-1 #
edge $-1 $348 -18.868675144784454 $228 -10.508747629243651 $342 $452 forward 7 unknown #
coedge $-1 $453 $221 $451 $454 reversed $346 $-1 #
coedge $-1 $221 $453 $445 $455 reversed $346 $-1 #
loop $-1 $-1 $453 $333 #
vertex $-1 $455 $456 #
vertex $-1 $222 $457 #
straight-curve $-1 -57.307073306176228 33.557386531798507 0 0 0 1 I I #
vertex $-1 $225 $458 #
straight-curve $-1 -27.534466135192428 25.197459016257703 -8.1419701042238994 -1 0 0 I I #
coedge $-1 $451 $226 $338 $448 forward $334 $-1 #
vertex $-1 $227 $459 #
straight-curve $-1 -27.534466135192428 25.197459016257703 8.1419701042238994 1 0 0 I I #
point $-1 -57.307073306176228 25.197459016257703 8.1419701042238994 #
point $-1 -57.307073306176228 25.197459016257703 -8.1419701042238994 #
plane-surface $-1 0 0 8.1419701042238994 0 0 1 1 0 0 forward_v I I I I #
coedge $-1 $368 $367 $360 $460 forward $232 $-1 #
coedge $-1 $360 $234 $236 $364 reversed $137 $-1 #
coedge $-1 $234 $359 $358 $460 reversed $137 $-1 #
coedge $-1 $242 $237 $234 $362 forward $243 $-1 #
edge $-1 $365 -26.266617714856039 $461 -21.969608943106863 $361 $462 forward 7 unknown #
coedge $-1 $236 $235 $368 $463 reversed $85 $-1 #
edge $-1 $464 0 $365 7.8896454215314353 $359 $465 forward 7 unknown #
vertex $-1 $238 $466 #
straight-curve $-1 -60.573134970430466 -2.679401817815382 8.1419701042238994 0 1 0 I I #
coedge $-1 $358 $239 $242 $372 reversed $232 $-1 #
coedge $-1 $239 $358 $363 $463 forward $232 $-1 #
vertex $-1 $240 $467 #
straight-curve $-1 -64.870143742179636 -10.717607271261528 36.093390006719297 0 0 1 I I #
straight-curve $-1 -64.870143742179636 -10.717607271261528 1.5251566345088463 -0.54463902268945019 0 -0.83867057594974714 I I #
edge $-1 $461 0 $244 10.717607271261528 $367 $468 forward 7 unknown #
point $-1 -64.870143742179636 -10.717607271261528 8.1419701042238994 #
point $-1 -60.573134970430459 -10.717607271261528 8.1419701042238994 #
edge $-1 $469 1 $469 0 $247 $-1 forward 7 unknown #
vertex $-1 $248 $470 #
ellipse-curve $-1 -60.561576958566391 -7.6554337651868067 3.4308024916280049 -0.83867057594974714 0 0.54463902268945019 0.54463902268945019 0 0.83867057594974714 1 I I #
point $-1 -62.177000333615609 -7.6554337651868067 5.6722339453161297 #
edge $-1 $471 1 $471 0 $251 $-1 forward 7 unknown #
vertex $-1 $252 $472 #
ellipse-curve $-1 -60.561576958566391 -3.0621735060747213 3.4308024916280049 -0.83867057594974714 0 0.54463902268945019 0.54463902268945019 0 0.83867057594974714 1 I I #
point $-1 -62.177000333615609 -3.0621735060747213 5.6722339453161297 #
loop $-1 $-1 $261 $255 #
plane-surface $-1 0 0 8.1419701042238994 0 0 1 1 0 0 forward_v I I I I #
coedge $-1 $258 $392 $388 $473 reversed $159 $-1 #
edge $-1 $390 27.951419902495395 $393 34.56823337221045 $258 $474 forward 7 unknown #
edge $-1 $393 0 $389 7.8896454215314353 $259 $475 forward 7 unknown #
coedge $-1 $395 $261 $385 $473 forward $383 $-1 #
vertex $-1 $262 $476 #
vertex $-1 $473 $477 #
straight-curve $-1 -86.839752685286498 10.717607271261528 8.1419701042239012 -1 0 0 I I #
coedge $-1 $385 $264 $269 $398 forward $159 $-1 #
vertex $-1 $386 $478 #
straight-curve $-1 -64.870143742179636 -2.679401817815382 1.525156634508843 0 -1 0 I I #
coedge $-1 $266 $388 $268 $397 forward $383 $-1 #
straight-curve $-1 -60.573134970430466 -2.679401817815382 8.1419701042238994 0 1 0 I I #
edge $-1 $479 21.969608943106863 $271 26.266617714856039 $395 $480 forward 7 unknown #
edge $-1 $270 -34.56823337221045 $479 -27.951419902495395 $392 $481 forward 7 unknown #
point $-1 -64.870143742179636 0 1.5251566345088463 #
point $-1 -60.573134970430459 0 8.1419701042238994 #
edge $-1 $482 1 $482 0 $273 $-1 forward 7 unknown #
vertex $-1 $274 $483 #
ellipse-curve $-1 -60.561576958566391 3.0621735060747213 3.4308024916280049 -0.83867057594974714 0 0.54463902268945019 0.54463902268945019 0 0.83867057594974714 1 I I #
point $-1 -62.177000333615609 3.0621735060747213 5.6722339453161297 #
edge $-1 $484 1 $484 0 $277 $-1 forward 7 unknown #
vertex $-1 $278 $485 #
ellipse-curve $-1 -60.561576958566391 7.6554337651868067 3.4308024916280049 -0.83867057594974714 0 0.54463902268945019 0.54463902268945019 0 0.83867057594974714 1 I I #
point $-1 -62.177000333615609 7.6554337651868067 5.6722339453161297 #
plane-surface $-1 64.870143742179636 0 0 -1 0 0 0 0 1 forward_v I I I I #
coedge $-1 $286 $284 $288 $414 reversed $181 $-1 #
edge $-1 $299 -8.1419701042238994 $416 8.1419701042238994 $298 $486 forward 7 unknown #
vertex $-1 $414 $487 #
straight-curve $-1 -64.870143742179636 -33.557386531798507 0 0 0 -1 I I #
edge $-1 $412 -33.557386531798507 $416 33.557386531798507 $410 $488 forward 7 unknown #
straight-curve $-1 0 -33.557386531798507 -8.1419701042238994 -1 0 0 I I #
vertex $-1 $291 $489 #
straight-curve $-1 0 33.557386531798507 -8.1419701042238994 1 0 0 I I #
point $-1 64.870143742179636 33.557386531798507 -8.1419701042238994 #
point $-1 64.870143742179636 -33.557386531798507 -8.1419701042238994 #
straight-curve $-1 -64.870143742179636 0 8.1419701042238994 0 -1 0 I I #
point $-1 -64.870143742179636 33.557386531798507 8.1419701042238994 #
point $-1 -64.870143742179636 -33.557386531798507 8.1419701042238994 #
straight-curve $-1 64.870143742179636 -33.557386531798507 0 0 0 -1 I I #
straight-curve $-1 64.870143742179636 33.557386531798507 0 0 0 -1 I I #
loop $-1 $-1 $314 $308 #
plane-surface $-1 0 -33.557386531798507 0 0 1 0 0 0 1 forward_v I I I I #
coedge $-1 $325 $316 $312 $429 forward $309 $-1 #
edge $-1 $433 -18.868675144784454 $320 -10.508747629243651 $311 $490 forward 7 unknown #
edge $-1 $321 10.508747629243651 $432 18.868675144784454 $427 $491 forward 7 unknown #
coedge $-1 $323 $314 $328 $442 reversed $425 $-1 #
coedge $-1 $314 $323 $325 $440 reversed $425 $-1 #
vertex $-1 $440 $492 #
vertex $-1 $315 $493 #
straight-curve $-1 -52.830791234593484 -33.557386531798507 0 0 0 1 I I #
straight-curve $-1 -27.534466135192428 -25.197459016257703 -8.1419701042238994 1 0 0 I I #
straight-curve $-1 -27.534466135192428 -25.197459016257703 8.1419701042238994 -1 0 0 I I #
point $-1 -52.830791234593484 -25.197459016257703 8.1419701042238994 #
point $-1 -52.830791234593484 -25.197459016257703 -8.1419701042238994 #
straight-curve $-1 -57.307073306176228 -33.557386531798507 0 0 0 -1 I I #
edge $-1 $432 52.830791234593484 $326 57.307073306176228 $431 $494 forward 7 unknown #
point $-1 -57.307073306176228 -33.557386531798507 -8.1419701042238994 #
edge $-1 $329 -57.307073306176228 $433 -52.830791234593484 $430 $495 forward 7 unknown #
point $-1 -57.307073306176228 -33.557386531798507 8.1419701042238994 #
plane-surface $-1 0 33.557386531798507 0 0 -1 0 0 0 -1 forward_v I I I I #
coedge $-1 $336 $340 $345 $455 forward $216 $-1 #
edge $-1 $496 -18.868675144784454 $350 -10.508747629243651 $336 $497 forward 7 unknown #
coedge $-1 $338 $337 $453 $498 reversed $129 $-1 #
edge $-1 $353 10.508747629243651 $499 18.868675144784454 $352 $500 forward 7 unknown #
straight-curve $-1 -52.830791234593484 25.197459016257703 0 0 0 -1 I I #
straight-curve $-1 -57.307073306176228 14.688711387014052 -8.1419701042238994 0 1 0 I I #
coedge $-1 $342 $352 $344 $454 forward $334 $-1 #
straight-curve $-1 -57.307073306176228 14.688711387014052 8.1419701042238994 0 -1 0 I I #
coedge $-1 $345 $344 $447 $498 forward $346 $-1 #
edge $-1 $499 52.830791234593484 $348 57.307073306176228 $344 $501 forward 7 unknown #
edge $-1 $347 -57.307073306176228 $496 -52.830791234593484 $345 $502 forward 7 unknown #
point $-1 -57.307073306176228 33.557386531798507 -8.1419701042238994 #
point $-1 -57.307073306176228 33.557386531798507 8.1419701042238994 #
point $-1 -52.830791234593484 25.197459016257703 -8.1419701042238994 #
point $-1 -52.830791234593484 25.197459016257703 8.1419701042238994 #
edge $-1 $461 27.951419902495395 $464 34.56823337221045 $358 $503 forward 7 unknown #
vertex $-1 $372 $504 #
straight-curve $-1 -86.839752685286498 0 8.1419701042239012 -1 0 0 I I #
edge $-1 $464 -2.679401817815382 $369 8.038205453446146 $368 $505 forward 7 unknown #
vertex $-1 $463 $506 #
straight-curve $-1 -64.870143742179636 0 1.5251566345088463 0.54463902268945019 0 0.83867057594974714 I I #
point $-1 -60.573134970430459 0 8.1419701042238994 #
point $-1 -64.870143742179636 -10.717607271261528 1.5251566345088463 #
straight-curve $-1 -64.870143742179636 0 8.1419701042238994 0 -1 0 I I #
vertex $-1 $375 $507 #
point $-1 -60.016937935876939 -7.6554337651868067 4.2694730675777519 #
vertex $-1 $379 $508 #
point $-1 -60.016937935876939 -3.0621735060747213 4.2694730675777519 #
edge $-1 $390 -10.717607271261528 $479 0 $385 $509 forward 7 unknown #
straight-curve $-1 -64.870143742179636 10.717607271261528 36.093390006719297 0 0 -1 I I #
straight-curve $-1 -64.870143742179636 10.717607271261528 1.5251566345088463 0.54463902268945019 0 0.83867057594974714 I I #
point $-1 -60.573134970430459 10.717607271261528 8.1419701042238994 #
point $-1 -64.870143742179636 10.717607271261528 8.1419701042238994 #
point $-1 -64.870143742179636 10.717607271261528 1.5251566345088463 #
vertex $-1 $398 $510 #
straight-curve $-1 -86.839752685286498 0 8.1419701042239012 1 0 0 I I #
straight-curve $-1 -64.870143742179636 0 36.093390006719297 0 0 1 I I #
vertex $-1 $401 $511 #
point $-1 -60.016937935876939 3.0621735060747213 4.2694730675777519 #
vertex $-1 $405 $512 #
point $-1 -60.016937935876939 7.6554337651868067 4.2694730675777519 #
straight-curve $-1 -64.870143742179636 33.557386531798507 0 0 0 -1 I I #
point $-1 -64.870143742179636 -33.557386531798507 -8.1419701042238994 #
straight-curve $-1 -64.870143742179636 0 -8.1419701042238994 0 1 0 I I #
point $-1 -64.870143742179636 33.557386531798507 -8.1419701042238994 #
straight-curve $-1 -52.830791234593484 -14.688711387014052 8.1419701042238994 0 1 0 I I #
straight-curve $-1 -52.830791234593484 -14.688711387014052 -8.1419701042238994 0 -1 0 I I #
point $-1 -52.830791234593484 -33.557386531798507 -8.1419701042238994 #
point $-1 -52.830791234593484 -33.557386531798507 8.1419701042238994 #
straight-curve $-1 0 -33.557386531798507 -8.1419701042238994 -1 0 0 I I #
straight-curve $-1 0 -33.557386531798507 8.1419701042238994 1 0 0 I I #
vertex $-1 $498 $513 #
straight-curve $-1 -52.830791234593484 14.688711387014052 -8.1419701042238994 0 -1 0 I I #
edge $-1 $499 -8.1419701042238994 $496 8.1419701042238994 $453 $514 forward 7 unknown #
vertex $-1 $454 $515 #
straight-curve $-1 -52.830791234593484 14.688711387014052 8.1419701042238994 0 1 0 I I #
straight-curve $-1 0 33.557386531798507 8.1419701042238994 -1 0 0 I I #
straight-curve $-1 0 33.557386531798507 -8.1419701042238994 1 0 0 I I #
straight-curve $-1 -64.870143742179636 0 36.093390006719297 0 0 -1 I I #
point $-1 -64.870143742179636 0 8.1419701042238994 #
straight-curve $-1 -64.870143742179636 -2.679401817815382 1.525156634508843 0 -1 0 I I #
point $-1 -64.870143742179636 0 1.5251566345088463 #
point $-1 -59.722906382616642 -7.6554337651868067 2.8861634689385545 #
point $-1 -59.722906382616642 -3.0621735060747213 2.8861634689385545 #
straight-curve $-1 -64.870143742179636 0 8.1419701042238994 0 -1 0 I I #
point $-1 -64.870143742179636 0 8.1419701042238994 #
point $-1 -59.722906382616642 3.0621735060747213 2.8861634689385545 #
point $-1 -59.722906382616642 7.6554337651868067 2.8861634689385545 #
point $-1 -52.830791234593484 33.557386531798507 -8.1419701042238994 #
straight-curve $-1 -52.830791234593484 33.557386531798507 0 0 0 -1 I I #
point $-1 -52.830791234593484 33.557386531798507 8.1419701042238994 #
End-of-ACIS-data 