500 0 7 0           
7 Unknown 11 ACIS 5.0 NT 24 Fri Mar 26 01:57:01 1999 
-1 9.9999999999999995e-007 1e-010 
body $-1 $7 $-1 $8 #
body $-1 $9 $-1 $10 #
body $-1 $11 $-1 $12 #
body $-1 $13 $-1 $14 #
body $-1 $15 $-1 $16 #
body $-1 $17 $-1 $18 #
body $-1 $19 $-1 $20 #
lump $-1 $-1 $21 $0 #
transform $-1 1 0 0 0 1 0 0 0 1 41.396526993621634 23.253030698156731 7.3639446471053978 1 rotate no_reflect no_shear #
lump $-1 $-1 $22 $1 #
transform $-1 1 0 0 0 1 0 0 0 1 41.396526993621634 23.253030698156731 7.3639446471053978 1 rotate no_reflect no_shear #
lump $-1 $-1 $23 $2 #
transform $-1 1 0 0 0 1 0 0 0 1 41.396526993621634 23.253030698156731 7.3639446471053978 1 rotate no_reflect no_shear #
lump $-1 $-1 $24 $3 #
transform $-1 1 0 0 0 1 0 0 0 1 41.396526993621634 23.253030698156731 7.3639446471053978 1 rotate no_reflect no_shear #
lump $-1 $-1 $25 $4 #
transform $-1 1 0 0 0 1 0 0 0 1 41.396526993621634 23.253030698156731 7.3639446471053978 1 rotate no_reflect no_shear #
lump $-1 $-1 $26 $5 #
transform $-1 1 0 0 0 1 0 0 0 1 41.396526993621634 23.253030698156731 7.3639446471053978 1 rotate no_reflect no_shear #
lump $-1 $-1 $27 $6 #
transform $-1 1 0 0 0 1 0 0 0 1 41.396526993621634 23.253030698156731 7.3639446471053978 1 rotate no_reflect no_shear #
shell $-1 $-1 $-1 $28 $-1 $7 #
shell $-1 $-1 $-1 $29 $-1 $9 #
shell $-1 $-1 $-1 $30 $-1 $11 #
shell $-1 $-1 $-1 $31 $-1 $13 #
shell $-1 $-1 $-1 $32 $-1 $15 #
shell $-1 $-1 $-1 $33 $-1 $17 #
shell $-1 $-1 $-1 $34 $-1 $19 #
face $-1 $35 $36 $21 $-1 $37 forward single #
face $-1 $38 $39 $22 $-1 $40 reversed single #
face $-1 $41 $42 $23 $-1 $43 reversed single #
face $-1 $44 $45 $24 $-1 $46 forward single #
face $-1 $47 $48 $25 $-1 $49 forward single #
face $-1 $50 $51 $26 $-1 $52 reversed single #
face $-1 $53 $54 $27 $-1 $55 forward single #
face $-1 $56 $57 $21 $-1 $58 reversed single #
loop $-1 $-1 $59 $28 #
plane-surface $-1 0 0 7.3639446471053978 0 0 1 1 0 0 forward_v I I I I #
face $-1 $60 $61 $22 $-1 $62 reversed single #
loop $-1 $-1 $63 $29 #
plane-surface $-1 0 -20.816847591823759 4.3639446471053978 0 0 1 1 0 0 forward_v I I I I #
face $-1 $64 $65 $23 $-1 $66 reversed single #
loop $-1 $-1 $67 $30 #
plane-surface $-1 -96.795894076688739 -12.50142845655615 63.172281831247943 0 1 0 -0.66913061440640931 0 0.74314481823134659 forward_v I I I I #
face $-1 $68 $69 $24 $-1 $70 forward single #
loop $-1 $71 $72 $31 #
cone-surface $-1 -36.567557908553781 -9.3594654307948826 2.6683978109683788 0.66913061440640931 0 -0.74314481823134659 1.1147172273470198 0 1.003695921609614 1 I I 0 1 1.5 forward I I I I #
face $-1 $73 $74 $25 $-1 $75 forward single #
loop $-1 $76 $77 $32 #
cone-surface $-1 -36.567557908553781 -4.646520892152985 2.6683978109683788 0.66913061440640931 0 -0.74314481823134659 1.1147172273470198 0 1.003695921609614 1 I I 0 1 1.5 forward I I I I #
face $-1 $78 $79 $26 $-1 $80 reversed single #
loop $-1 $-1 $81 $33 #
plane-surface $-1 -15.068199316473731 18.701560612031873 60.738526155358308 0.73135370988377701 0 0.68199835119979291 0.68199835119979291 0 -0.73135370988377701 forward_v I I I I #
face $-1 $82 $83 $27 $-1 $84 forward single #
loop $-1 $85 $86 $34 #
cone-surface $-1 35.840511625170173 18.701560612031873 1.7149174904650479 -0.73135370988377701 0 -0.68199835119979291 1.3639967023995858 0 -1.462707419767554 1 I I 0 1 2 forward I I I I #
face $-1 $87 $88 $21 $-1 $89 reversed single #
loop $-1 $-1 $90 $35 #
plane-surface $-1 0 0 -7.3639446471053978 0 0 1 1 0 0 forward_v I I I I #
coedge $-1 $91 $92 $93 $94 forward $36 $-1 #
face $-1 $95 $96 $22 $-1 $97 reversed single #
loop $-1 $-1 $98 $38 #
plane-surface $-1 0 -18.380664485490787 5.8639446471053978 0 -1 0 0 0 -1 forward_v I I I I #
coedge $-1 $99 $100 $101 $102 reversed $39 $-1 #
face $-1 $103 $104 $23 $-1 $105 reversed single #
loop $-1 $-1 $106 $41 #
plane-surface $-1 -41.396526993621634 -7.0029931614739347 1.6450527750799822 -0.66913061440640931 0 0.74314481823134659 0.74314481823134659 0 0.66913061440640931 forward_v I I I I #
coedge $-1 $107 $108 $109 $110 reversed $42 $-1 #
face $-1 $-1 $111 $24 $-1 $112 forward single #
loop $-1 $113 $114 $44 #
cone-surface $-1 -34.412477235535036 -9.3594654307948826 0.27493829717055629 0.66913061440640931 0 -0.74314481823134659 0.55735861367350992 0 0.50184796080480698 1 I I -0.70710678118654757 0.70710678118654757 0.75 forward I I I I #
loop $-1 $-1 $115 $31 #
coedge $-1 $72 $72 $116 $117 reversed $45 $-1 #
face $-1 $-1 $118 $25 $-1 $119 forward single #
loop $-1 $120 $121 $47 #
cone-surface $-1 -34.412477235535036 -4.646520892152985 0.27493829717055629 0.66913061440640931 0 -0.74314481823134659 0.55735861367350992 0 0.50184796080480698 1 I I -0.70710678118654757 0.70710678118654757 0.75 forward I I I I #
loop $-1 $-1 $122 $32 #
coedge $-1 $77 $77 $123 $124 reversed $48 $-1 #
face $-1 $125 $126 $26 $-1 $127 reversed single #
loop $-1 $-1 $128 $50 #
plane-surface $-1 45.482807869704473 14.150090525907011 117.20325246545366 0 1 0 0.73135370988377701 0 0.68199835119979291 forward_v I I I I #
coedge $-1 $129 $130 $131 $132 reversed $51 $-1 #
face $-1 $-1 $133 $27 $-1 $134 forward single #
loop $-1 $135 $136 $53 #
cone-surface $-1 32.899205070145783 18.701560612031873 -1.0278951784124422 -0.73135370988377701 0 -0.68199835119979291 0.68199835119979291 0 -0.73135370988377701 1 I I -0.70710678118654746 0.70710678118654746 1 forward I I I I #
loop $-1 $-1 $137 $34 #
coedge $-1 $86 $86 $138 $139 reversed $54 $-1 #
face $-1 $140 $141 $21 $-1 $142 reversed single #
loop $-1 $-1 $143 $56 #
plane-surface $-1 0 -23.253030698156731 0 0 1 0 0 0 1 forward_v I I I I #
coedge $-1 $144 $145 $146 $147 forward $57 $-1 #
coedge $-1 $148 $59 $149 $150 forward $36 $-1 #
coedge $-1 $59 $148 $151 $152 forward $36 $-1 #
coedge $-1 $153 $154 $59 $94 reversed $155 $-1 #
edge $-1 $156 -23.253030698156731 $157 23.253030698156731 $93 $158 forward 7 unknown #
face $-1 $159 $160 $22 $-1 $161 reversed single #
loop $-1 $-1 $162 $60 #
plane-surface $-1 -41.396526993621634 0 0 1 0 0 0 0 -1 forward_v I I I I #
coedge $-1 $163 $164 $165 $166 reversed $61 $-1 #
coedge $-1 $167 $63 $168 $169 reversed $39 $-1 #
coedge $-1 $63 $167 $163 $170 forward $39 $-1 #
coedge $-1 $165 $171 $63 $102 forward $172 $-1 #
edge $-1 $173 -12.844606902244852 $174 -7.9722406895789071 $101 $175 forward 7 unknown #
face $-1 $176 $177 $23 $-1 $178 forward single #
loop $-1 $-1 $179 $64 #
plane-surface $-1 -96.795894076688739 -1.5045578663917194 63.172281831247943 0 -1 0 0.66913061440640931 0 -0.74314481823134659 forward_v I I I I #
coedge $-1 $180 $181 $182 $183 reversed $65 $-1 #
coedge $-1 $108 $67 $184 $185 reversed $42 $-1 #
coedge $-1 $67 $107 $180 $186 reversed $42 $-1 #
coedge $-1 $182 $187 $67 $110 forward $177 $-1 #
edge $-1 $188 7.0014200447227353 $189 13.35289279043058 $109 $190 forward 7 unknown #
loop $-1 $-1 $116 $68 #
plane-surface $-1 -41.396526993621634 -7.0029931614739347 1.6450527750799822 -0.66913061440640931 0 0.74314481823134659 0.74314481823134659 0 0.66913061440640931 forward_v I I I I #
loop $-1 $-1 $191 $44 #
coedge $-1 $114 $114 $115 $192 reversed $69 $-1 #
coedge $-1 $115 $115 $114 $192 forward $71 $-1 #
coedge $-1 $116 $116 $72 $117 forward $111 $-1 #
edge $-1 $193 0 $193 6.2831853071796004 $116 $194 forward 7 unknown #
loop $-1 $-1 $123 $73 #
plane-surface $-1 -41.396526993621634 -7.0029931614739347 1.6450527750799822 -0.66913061440640931 0 0.74314481823134659 0.74314481823134659 0 0.66913061440640931 forward_v I I I I #
loop $-1 $-1 $195 $47 #
coedge $-1 $121 $121 $122 $196 reversed $74 $-1 #
coedge $-1 $122 $122 $121 $196 forward $76 $-1 #
coedge $-1 $123 $123 $77 $124 forward $118 $-1 #
edge $-1 $197 0 $197 6.2831853071796004 $123 $198 forward 7 unknown #
face $-1 $199 $200 $26 $-1 $201 forward single #
loop $-1 $-1 $202 $78 #
plane-surface $-1 0 23.253030698156731 0 0 -1 0 0 0 -1 forward_v I I I I #
coedge $-1 $203 $204 $205 $206 reversed $79 $-1 #
coedge $-1 $207 $81 $202 $208 reversed $51 $-1 #
coedge $-1 $81 $207 $203 $209 forward $51 $-1 #
coedge $-1 $205 $210 $81 $132 forward $200 $-1 #
edge $-1 $211 -13.902250392140798 $212 -4.7993102198910744 $131 $213 forward 7 unknown #
loop $-1 $-1 $138 $82 #
plane-surface $-1 -15.068199316473731 18.701560612031873 60.738526155358308 0.73135370988377701 0 0.68199835119979291 0.68199835119979291 0 -0.73135370988377701 forward_v I I I I #
loop $-1 $-1 $214 $53 #
coedge $-1 $136 $136 $137 $215 reversed $83 $-1 #
coedge $-1 $137 $137 $136 $215 forward $85 $-1 #
coedge $-1 $138 $138 $86 $139 forward $133 $-1 #
edge $-1 $216 0 $216 6.2831853071796004 $138 $217 forward 7 unknown #
face $-1 $218 $219 $21 $-1 $220 reversed single #
loop $-1 $-1 $221 $87 #
plane-surface $-1 -41.396526993621634 0 0 1 0 0 0 0 -1 forward_v I I I I #
coedge $-1 $222 $151 $223 $224 forward $88 $-1 #
coedge $-1 $225 $90 $222 $226 forward $57 $-1 #
coedge $-1 $90 $225 $227 $228 forward $57 $-1 #
coedge $-1 $154 $153 $90 $147 reversed $155 $-1 #
edge $-1 $229 -23.253030698156731 $230 23.253030698156731 $146 $231 forward 7 unknown #
coedge $-1 $92 $91 $232 $233 forward $36 $-1 #
coedge $-1 $234 $235 $91 $150 reversed $219 $-1 #
edge $-1 $157 -41.396526993621634 $236 41.396526993621634 $149 $237 forward 7 unknown #
coedge $-1 $143 $238 $92 $152 reversed $88 $-1 #
edge $-1 $239 -41.396526993621634 $156 41.396526993621634 $151 $240 forward 7 unknown #
coedge $-1 $146 $93 $238 $241 forward $155 $-1 #
coedge $-1 $93 $146 $234 $242 reversed $155 $-1 #
loop $-1 $-1 $153 $218 #
vertex $-1 $94 $243 #
vertex $-1 $94 $244 #
straight-curve $-1 41.396526993621634 0 7.3639446471053978 0 1 0 I I #
face $-1 $245 $246 $22 $-1 $247 forward single #
loop $-1 $-1 $168 $95 #
plane-surface $-1 0 -23.253030698156731 0 0 1 0 0 0 1 forward_v I I I I #
coedge $-1 $248 $249 $250 $251 forward $96 $-1 #
coedge $-1 $250 $98 $100 $170 reversed $61 $-1 #
coedge $-1 $98 $250 $252 $253 reversed $61 $-1 #
coedge $-1 $254 $101 $98 $166 forward $172 $-1 #
edge $-1 $174 1.4319723235526989 $255 4.4319723235526993 $165 $256 forward 7 unknown #
coedge $-1 $100 $99 $248 $257 reversed $39 $-1 #
coedge $-1 $258 $259 $99 $169 forward $160 $-1 #
edge $-1 $260 -41.396526993621634 $173 41.396526993621634 $168 $261 forward 7 unknown #
edge $-1 $262 -41.396526993621634 $174 41.396526993621634 $163 $263 forward 7 unknown #
coedge $-1 $101 $254 $258 $264 forward $172 $-1 #
loop $-1 $-1 $165 $245 #
vertex $-1 $169 $265 #
vertex $-1 $102 $266 #
straight-curve $-1 41.396526993621634 -10.408423795911879 4.3639446471053978 0 1 0 I I #
face $-1 $-1 $267 $23 $-1 $268 reversed single #
loop $-1 $-1 $109 $103 #
plane-surface $-1 0 0 7.3639446471053978 0 0 1 1 0 0 forward_v I I I I #
coedge $-1 $269 $270 $271 $272 reversed $104 $-1 #
coedge $-1 $273 $106 $108 $186 forward $65 $-1 #
coedge $-1 $106 $273 $269 $274 forward $65 $-1 #
coedge $-1 $271 $109 $106 $183 forward $177 $-1 #
edge $-1 $189 -8.9999318758191826 $275 1.9969387143452479 $182 $276 forward 7 unknown #
coedge $-1 $277 $278 $107 $185 forward $267 $-1 #
edge $-1 $279 -29.941088140543989 $188 -24.222196268518573 $184 $280 forward 7 unknown #
edge $-1 $189 -8.546749691162594 $279 0 $108 $281 forward 7 unknown #
coedge $-1 $109 $271 $277 $282 forward $177 $-1 #
vertex $-1 $185 $283 #
vertex $-1 $110 $284 #
straight-curve $-1 -48.39794703834437 -12.50142845655615 7.3639446471053986 1 0 0 I I #
coedge $-1 $191 $191 $-1 $285 reversed $113 $-1 #
edge $-1 $286 0 $286 6.2831853071796004 $114 $287 forward 7 unknown #
vertex $-1 $117 $288 #
ellipse-curve $-1 -38.220790620767715 -9.3594654307948826 4.5044987110926877 -0.66913061440640931 0 0.74314481823134659 1.1147172273470198 0 1.003695921609614 1 I I #
coedge $-1 $195 $195 $-1 $289 reversed $120 $-1 #
edge $-1 $290 0 $290 6.2831853071796004 $121 $291 forward 7 unknown #
vertex $-1 $124 $292 #
ellipse-curve $-1 -38.220790620767715 -4.646520892152985 4.5044987110926877 -0.66913061440640931 0 0.74314481823134659 1.1147172273470198 0 1.003695921609614 1 I I #
face $-1 $-1 $293 $26 $-1 $294 reversed single #
loop $-1 $-1 $131 $125 #
plane-surface $-1 0 0 7.3639446471053978 0 0 1 1 0 0 forward_v I I I I #
coedge $-1 $295 $296 $129 $208 forward $126 $-1 #
coedge $-1 $204 $128 $130 $209 reversed $79 $-1 #
coedge $-1 $128 $203 $297 $298 reversed $79 $-1 #
coedge $-1 $299 $131 $128 $206 forward $200 $-1 #
edge $-1 $212 11.962998012147708 $300 18.655123058769398 $205 $301 forward 7 unknown #
coedge $-1 $130 $129 $302 $303 reversed $51 $-1 #
edge $-1 $304 -55.444137224253772 $211 -45.631613433179055 $202 $305 forward 7 unknown #
edge $-1 $306 -82.793053987243297 $212 -72.980530196168587 $203 $307 forward 7 unknown #
coedge $-1 $131 $299 $295 $308 forward $200 $-1 #
vertex $-1 $132 $309 #
vertex $-1 $132 $310 #
straight-curve $-1 34.704401946999944 9.3507803060159365 7.3639446471053986 0 -1 0 I I #
coedge $-1 $214 $214 $-1 $311 reversed $135 $-1 #
edge $-1 $312 0 $312 6.2831853071796004 $136 $313 forward 7 unknown #
vertex $-1 $139 $314 #
ellipse-curve $-1 38.050464470310786 18.701560612031873 3.7757318081427491 0.73135370988377701 0 0.68199835119979291 1.3639967023995858 0 -1.462707419767554 1 I I #
face $-1 $-1 $155 $21 $-1 $315 reversed single #
loop $-1 $-1 $234 $140 #
plane-surface $-1 0 23.253030698156731 0 0 -1 0 0 0 -1 forward_v I I I I #
coedge $-1 $316 $232 $235 $317 forward $141 $-1 #
coedge $-1 $238 $143 $144 $226 reversed $88 $-1 #
coedge $-1 $232 $316 $143 $224 reversed $141 $-1 #
edge $-1 $239 -7.3639446471053978 $318 7.3639446471053978 $223 $319 forward 7 unknown #
coedge $-1 $145 $144 $316 $320 forward $57 $-1 #
edge $-1 $230 -41.396526993621634 $318 41.396526993621634 $222 $321 forward 7 unknown #
coedge $-1 $235 $234 $145 $228 reversed $219 $-1 #
edge $-1 $322 -41.396526993621634 $229 41.396526993621634 $227 $323 forward 7 unknown #
vertex $-1 $147 $324 #
vertex $-1 $241 $325 #
straight-curve $-1 41.396526993621634 0 -7.3639446471053978 0 -1 0 I I #
coedge $-1 $221 $223 $148 $233 reversed $141 $-1 #
edge $-1 $236 -23.253030698156731 $239 23.253030698156731 $232 $326 forward 7 unknown #
coedge $-1 $227 $149 $154 $242 forward $219 $-1 #
coedge $-1 $149 $227 $221 $317 reversed $219 $-1 #
vertex $-1 $150 $327 #
straight-curve $-1 0 23.253030698156731 7.3639446471053978 -1 0 0 I I #
coedge $-1 $151 $222 $153 $241 reversed $88 $-1 #
vertex $-1 $233 $328 #
straight-curve $-1 0 -23.253030698156731 7.3639446471053978 1 0 0 I I #
edge $-1 $156 -7.3639446471053978 $230 7.3639446471053978 $153 $329 forward 7 unknown #
edge $-1 $157 -7.3639446471053978 $229 7.3639446471053978 $154 $330 forward 7 unknown #
point $-1 41.396526993621634 -23.253030698156731 7.3639446471053978 #
point $-1 41.396526993621634 23.253030698156731 7.3639446471053978 #
face $-1 $-1 $172 $22 $-1 $331 reversed single #
loop $-1 $-1 $252 $159 #
plane-surface $-1 0 0 7.3639446471053978 0 0 1 1 0 0 forward_v I I I I #
coedge $-1 $332 $162 $167 $257 forward $96 $-1 #
coedge $-1 $162 $332 $333 $334 reversed $96 $-1 #
coedge $-1 $164 $163 $162 $251 reversed $61 $-1 #
edge $-1 $335 -4.4319723235526993 $262 -1.4319723235526989 $162 $336 forward 7 unknown #
coedge $-1 $333 $337 $164 $253 forward $246 $-1 #
edge $-1 $255 -41.396526993621634 $335 41.396526993621634 $252 $338 forward 7 unknown #
coedge $-1 $171 $165 $337 $339 reversed $172 $-1 #
vertex $-1 $166 $340 #
straight-curve $-1 41.396526993621634 -18.380664485490787 2.9319723235526989 0 0 1 I I #
edge $-1 $262 7.9722406895789071 $260 12.844606902244852 $248 $341 forward 7 unknown #
coedge $-1 $342 $168 $171 $264 reversed $160 $-1 #
coedge $-1 $168 $342 $332 $343 forward $160 $-1 #
vertex $-1 $169 $344 #
straight-curve $-1 0 -23.253030698156731 4.3639446471053978 1 0 0 I I #
vertex $-1 $257 $345 #
straight-curve $-1 0 -18.380664485490787 4.3639446471053978 1 0 0 I I #
edge $-1 $346 -7.3639446471053978 $173 -4.3639446471053978 $171 $347 forward 7 unknown #
point $-1 41.396526993621634 -23.253030698156731 4.3639446471053978 #
point $-1 41.396526993621634 -18.380664485490787 4.3639446471053978 #
loop $-1 $-1 $184 $176 #
plane-surface $-1 -41.396526993621634 0 0 1 0 0 0 0 -1 forward_v I I I I #
coedge $-1 $270 $179 $181 $274 reversed $104 $-1 #
coedge $-1 $179 $269 $348 $349 reversed $104 $-1 #
coedge $-1 $187 $182 $179 $272 forward $177 $-1 #
edge $-1 $275 -13.35289279043058 $350 -7.0014200447227353 $271 $351 forward 7 unknown #
coedge $-1 $181 $180 $278 $352 reversed $65 $-1 #
edge $-1 $353 0 $275 8.546749691162594 $269 $354 forward 7 unknown #
vertex $-1 $183 $355 #
straight-curve $-1 -35.045054247913789 -3.5014965807369673 7.3639446471053969 0 1 0 I I #
coedge $-1 $348 $184 $187 $282 reversed $267 $-1 #
coedge $-1 $184 $348 $273 $352 forward $267 $-1 #
vertex $-1 $185 $356 #
straight-curve $-1 -41.396526993621634 -12.50142845655615 31.586140915623972 0 0 1 I I #
straight-curve $-1 -41.396526993621634 -12.50142845655615 1.6450527750799822 -0.74314481823134659 0 -0.66913061440640931 I I #
edge $-1 $350 1.5045578663917194 $188 12.50142845655615 $277 $357 forward 7 unknown #
point $-1 -41.396526993621634 -12.50142845655615 7.3639446471053978 #
point $-1 -35.045054247913789 -12.50142845655615 7.3639446471053978 #
edge $-1 $358 1 $358 0 $191 $-1 forward 7 unknown #
vertex $-1 $192 $359 #
ellipse-curve $-1 -34.914325196339846 -9.3594654307948826 0.83229691084406621 -0.66913061440640931 0 0.74314481823134659 1.1147172273470198 0 1.003695921609614 1 I I #
point $-1 -37.106073393420701 -9.3594654307948826 5.5081946327023061 #
edge $-1 $360 1 $360 0 $195 $-1 forward 7 unknown #
vertex $-1 $196 $361 #
ellipse-curve $-1 -34.914325196339846 -4.646520892152985 0.83229691084406621 -0.66913061440640931 0 0.74314481823134659 1.1147172273470198 0 1.003695921609614 1 I I #
point $-1 -37.106073393420701 -4.646520892152985 5.5081946327023061 #
loop $-1 $-1 $302 $199 #
plane-surface $-1 41.396526993621634 0 0 -1 0 0 0 0 1 forward_v I I I I #
coedge $-1 $296 $202 $210 $308 reversed $126 $-1 #
coedge $-1 $202 $295 $362 $363 forward $126 $-1 #
coedge $-1 $302 $364 $204 $298 forward $293 $-1 #
edge $-1 $300 51.237681585621431 $306 58.414107263546747 $297 $365 forward 7 unknown #
coedge $-1 $210 $205 $364 $366 forward $200 $-1 #
vertex $-1 $366 $367 #
straight-curve $-1 22.741403934852237 14.150090525907011 7.3639446471053986 1 0 0 I I #
coedge $-1 $362 $297 $207 $303 forward $293 $-1 #
edge $-1 $306 4.7993102198910744 $304 13.902250392140798 $302 $368 forward 7 unknown #
vertex $-1 $303 $369 #
straight-curve $-1 3.5837168229855045 23.253030698156731 40.736794419443299 -0.68199835119979291 0 0.73135370988377701 I I #
vertex $-1 $303 $370 #
straight-curve $-1 -15.068199316473731 14.150090525907011 60.738526155358308 -0.68199835119979291 0 0.73135370988377701 I I #
edge $-1 $371 -41.396526993621634 $211 -34.704401946999944 $295 $372 forward 7 unknown #
point $-1 34.704401946999944 23.253030698156735 7.3639446471053986 #
point $-1 34.704401946999944 14.150090525907011 7.3639446471053986 #
edge $-1 $373 1 $373 0 $214 $-1 forward 7 unknown #
vertex $-1 $215 $374 #
ellipse-curve $-1 33.63055878002956 18.701560612031873 -0.34589682721264925 0.73135370988377701 0 0.68199835119979291 1.3639967023995858 0 -1.462707419767554 1 I I #
point $-1 39.414461172710368 18.701560612031873 2.3130243883751911 #
plane-surface $-1 41.396526993621634 0 0 -1 0 0 0 0 1 forward_v I I I I #
coedge $-1 $223 $221 $225 $320 reversed $141 $-1 #
edge $-1 $236 -7.3639446471053978 $322 7.3639446471053978 $235 $375 forward 7 unknown #
vertex $-1 $320 $376 #
straight-curve $-1 -41.396526993621634 -23.253030698156731 0 0 0 -1 I I #
edge $-1 $318 -23.253030698156731 $322 23.253030698156731 $316 $377 forward 7 unknown #
straight-curve $-1 0 -23.253030698156731 -7.3639446471053978 -1 0 0 I I #
vertex $-1 $228 $378 #
straight-curve $-1 0 23.253030698156731 -7.3639446471053978 1 0 0 I I #
point $-1 41.396526993621634 23.253030698156731 -7.3639446471053978 #
point $-1 41.396526993621634 -23.253030698156731 -7.3639446471053978 #
straight-curve $-1 -41.396526993621634 0 7.3639446471053978 0 -1 0 I I #
point $-1 -41.396526993621634 23.253030698156731 7.3639446471053978 #
point $-1 -41.396526993621634 -23.253030698156731 7.3639446471053978 #
straight-curve $-1 41.396526993621634 -23.253030698156731 0 0 0 -1 I I #
straight-curve $-1 41.396526993621634 23.253030698156731 0 0 0 -1 I I #
plane-surface $-1 41.396526993621634 0 0 -1 0 0 0 0 1 forward_v I I I I #
coedge $-1 $249 $248 $259 $343 reversed $96 $-1 #
coedge $-1 $379 $252 $249 $334 forward $246 $-1 #
edge $-1 $335 18.380664485490787 $380 23.253030698156731 $249 $381 forward 7 unknown #
vertex $-1 $334 $382 #
straight-curve $-1 -41.396526993621634 -18.380664485490787 2.9319723235526989 0 0 -1 I I #
coedge $-1 $252 $379 $254 $339 forward $246 $-1 #
straight-curve $-1 0 -18.380664485490787 7.3639446471053978 -1 0 0 I I #
edge $-1 $346 -23.253030698156731 $255 -18.380664485490787 $254 $383 forward 7 unknown #
point $-1 41.396526993621634 -18.380664485490787 7.3639446471053978 #
straight-curve $-1 -41.396526993621634 -10.408423795911879 4.3639446471053978 0 -1 0 I I #
coedge $-1 $259 $258 $379 $384 reversed $160 $-1 #
edge $-1 $380 -7.3639446471053978 $260 -4.3639446471053978 $332 $385 forward 7 unknown #
point $-1 -41.396526993621634 -23.253030698156731 4.3639446471053978 #
point $-1 -41.396526993621634 -18.380664485490787 4.3639446471053978 #
vertex $-1 $339 $386 #
straight-curve $-1 41.396526993621634 -23.253030698156731 0 0 0 -1 I I #
coedge $-1 $278 $277 $270 $349 forward $267 $-1 #
edge $-1 $350 24.222196268518573 $353 29.941088140543989 $348 $387 forward 7 unknown #
vertex $-1 $282 $388 #
straight-curve $-1 -48.39794703834437 -1.5045578663917194 7.3639446471053986 -1 0 0 I I #
edge $-1 $353 -1.9969387143452479 $279 8.9999318758191826 $278 $389 forward 7 unknown #
vertex $-1 $352 $390 #
straight-curve $-1 -41.396526993621634 -1.5045578663917194 1.6450527750799822 0.74314481823134659 0 0.66913061440640931 I I #
point $-1 -35.045054247913789 -1.5045578663917194 7.3639446471053978 #
point $-1 -41.396526993621634 -12.50142845655615 1.6450527750799822 #
straight-curve $-1 -41.396526993621634 0 7.3639446471053978 0 -1 0 I I #
vertex $-1 $285 $391 #
point $-1 -33.799607968992824 -9.3594654307948826 1.8359928324536803 #
vertex $-1 $289 $392 #
point $-1 -33.799607968992824 -4.646520892152985 1.8359928324536803 #
coedge $-1 $364 $302 $296 $363 reversed $293 $-1 #
edge $-1 $371 -7.3639446471053978 $304 -0.18751896918008271 $362 $393 forward 7 unknown #
coedge $-1 $297 $362 $299 $366 reversed $293 $-1 #
straight-curve $-1 41.396526993621634 14.150090525907011 58.601626232726829 0 0 -1 I I #
edge $-1 $300 14.150090525907011 $371 23.253030698156731 $364 $394 forward 7 unknown #
point $-1 41.396526993621634 14.150090525907011 7.3639446471053978 #
straight-curve $-1 41.396526993621627 9.3507803060159365 0.18751896918009336 0 1 0 I I #
point $-1 41.396526993621642 23.253030698156735 0.18751896918008271 #
point $-1 41.396526993621642 14.150090525907011 0.18751896918008271 #
vertex $-1 $366 $395 #
straight-curve $-1 0 23.253030698156731 7.3639446471053978 -1 0 0 I I #
vertex $-1 $311 $396 #
point $-1 34.994555482429149 18.701560612031873 -1.8086042469802033 #
straight-curve $-1 -41.396526993621634 23.253030698156731 0 0 0 -1 I I #
point $-1 -41.396526993621634 -23.253030698156731 -7.3639446471053978 #
straight-curve $-1 -41.396526993621634 0 -7.3639446471053978 0 1 0 I I #
point $-1 -41.396526993621634 23.253030698156731 -7.3639446471053978 #
coedge $-1 $337 $333 $342 $384 forward $246 $-1 #
vertex $-1 $334 $397 #
straight-curve $-1 -41.396526993621634 0 7.3639446471053978 0 -1 0 I I #
point $-1 -41.396526993621634 -18.380664485490787 7.3639446471053978 #
straight-curve $-1 41.396526993621634 0 7.3639446471053978 0 1 0 I I #
edge $-1 $380 -41.396526993621634 $346 41.396526993621634 $342 $398 forward 7 unknown #
straight-curve $-1 -41.396526993621634 -23.253030698156731 0 0 0 -1 I I #
point $-1 41.396526993621634 -23.253030698156731 7.3639446471053978 #
straight-curve $-1 -41.396526993621634 -1.5045578663917194 31.586140915623972 0 0 -1 I I #
point $-1 -41.396526993621634 -1.5045578663917194 7.3639446471053978 #
straight-curve $-1 -41.396526993621634 -3.5014965807369673 1.6450527750799839 0 -1 0 I I #
point $-1 -41.396526993621634 -1.5045578663917194 1.6450527750799822 #
point $-1 -33.910629274730226 -9.3594654307948826 -0.28242031650295363 #
point $-1 -33.910629274730226 -4.646520892152985 -0.28242031650295363 #
straight-curve $-1 41.396526993621634 23.253030698156731 0 0 0 -1 I I #
straight-curve $-1 41.396526993621634 0 7.3639446471053978 0 1 0 I I #
point $-1 41.396526993621634 23.253030698156731 7.3639446471053978 #
point $-1 32.167851360262006 18.701560612031873 -1.7098935296122351 #
point $-1 -41.396526993621634 -23.253030698156731 7.3639446471053978 #
straight-curve $-1 0 -23.253030698156731 7.3639446471053978 1 0 0 I I #
End-of-ACIS-data 