500 0 13 0           
7 Unknown 11 ACIS 5.0 NT 24 Thu Mar 25 20:13:00 1999 
-1 9.9999999999999995e-007 1e-010 
body $-1 $13 $-1 $14 #
body $-1 $15 $-1 $16 #
body $-1 $17 $-1 $18 #
body $-1 $19 $-1 $20 #
body $-1 $21 $-1 $22 #
body $-1 $23 $-1 $24 #
body $-1 $25 $-1 $26 #
body $-1 $27 $-1 $28 #
body $-1 $29 $-1 $30 #
body $-1 $31 $-1 $32 #
body $-1 $33 $-1 $34 #
body $-1 $35 $-1 $36 #
body $-1 $37 $-1 $38 #
lump $-1 $-1 $39 $0 #
transform $-1 1 0 0 0 1 0 0 0 1 43.283791619617297 29.397497401565506 10.559485607988089 1 rotate no_reflect no_shear #
lump $-1 $-1 $40 $1 #
transform $-1 1 0 0 0 1 0 0 0 1 43.283791619617297 29.397497401565506 10.559485607988089 1 rotate no_reflect no_shear #
lump $-1 $-1 $41 $2 #
transform $-1 1 0 0 0 1 0 0 0 1 43.283791619617297 29.397497401565506 10.559485607988089 1 rotate no_reflect no_shear #
lump $-1 $-1 $42 $3 #
transform $-1 1 0 0 0 1 0 0 0 1 43.283791619617297 29.397497401565506 10.559485607988089 1 rotate no_reflect no_shear #
lump $-1 $-1 $43 $4 #
transform $-1 1 0 0 0 1 0 0 0 1 43.283791619617297 29.397497401565506 10.559485607988089 1 rotate no_reflect no_shear #
lump $-1 $-1 $44 $5 #
transform $-1 1 0 0 0 1 0 0 0 1 43.283791619617297 29.397497401565506 10.559485607988089 1 rotate no_reflect no_shear #
lump $-1 $-1 $45 $6 #
transform $-1 1 0 0 0 1 0 0 0 1 43.283791619617297 29.397497401565506 10.559485607988089 1 rotate no_reflect no_shear #
lump $-1 $-1 $46 $7 #
transform $-1 1 0 0 0 1 0 0 0 1 43.283791619617297 29.397497401565506 10.559485607988089 1 rotate no_reflect no_shear #
lump $-1 $-1 $47 $8 #
transform $-1 1 0 0 0 1 0 0 0 1 43.283791619617297 29.397497401565506 10.559485607988089 1 rotate no_reflect no_shear #
lump $-1 $-1 $48 $9 #
transform $-1 1 0 0 0 1 0 0 0 1 43.283791619617297 29.397497401565506 10.559485607988089 1 rotate no_reflect no_shear #
lump $-1 $-1 $49 $10 #
transform $-1 1 0 0 0 1 0 0 0 1 43.283791619617297 29.397497401565506 10.559485607988089 1 rotate no_reflect no_shear #
lump $-1 $-1 $50 $11 #
transform $-1 1 0 0 0 1 0 0 0 1 43.283791619617297 29.397497401565506 10.559485607988089 1 rotate no_reflect no_shear #
lump $-1 $-1 $51 $12 #
transform $-1 1 0 0 0 1 0 0 0 1 43.283791619617297 29.397497401565506 10.559485607988089 1 rotate no_reflect no_shear #
shell $-1 $-1 $-1 $52 $-1 $13 #
shell $-1 $-1 $-1 $53 $-1 $15 #
shell $-1 $-1 $-1 $54 $-1 $17 #
shell $-1 $-1 $-1 $55 $-1 $19 #
shell $-1 $-1 $-1 $56 $-1 $21 #
shell $-1 $-1 $-1 $57 $-1 $23 #
shell $-1 $-1 $-1 $58 $-1 $25 #
shell $-1 $-1 $-1 $59 $-1 $27 #
shell $-1 $-1 $-1 $60 $-1 $29 #
shell $-1 $-1 $-1 $61 $-1 $31 #
shell $-1 $-1 $-1 $62 $-1 $33 #
shell $-1 $-1 $-1 $63 $-1 $35 #
shell $-1 $-1 $-1 $64 $-1 $37 #
face $-1 $65 $66 $39 $-1 $67 forward single #
face $-1 $68 $69 $40 $-1 $70 reversed single #
face $-1 $71 $72 $41 $-1 $73 reversed single #
face $-1 $74 $75 $42 $-1 $76 forward single #
face $-1 $77 $78 $43 $-1 $79 reversed single #
face $-1 $80 $81 $44 $-1 $82 forward single #
face $-1 $83 $84 $45 $-1 $85 reversed single #
face $-1 $86 $87 $46 $-1 $88 forward single #
face $-1 $89 $90 $47 $-1 $91 reversed single #
face $-1 $92 $93 $48 $-1 $94 forward single #
face $-1 $95 $96 $49 $-1 $97 reversed single #
face $-1 $98 $99 $50 $-1 $100 forward single #
face $-1 $101 $102 $51 $-1 $103 forward single #
face $-1 $104 $105 $39 $-1 $106 reversed single #
loop $-1 $-1 $107 $52 #
plane-surface $-1 0 0 10.559485607988089 0 0 1 1 0 0 forward_v I I I I #
face $-1 $108 $109 $40 $-1 $110 reversed single #
loop $-1 $-1 $111 $53 #
plane-surface $-1 -37.591743231451005 0 7.4365951623333348 0 0 1 1 0 0 forward_v I I I I #
face $-1 $112 $113 $41 $-1 $114 reversed single #
loop $-1 $-1 $115 $54 #
plane-surface $-1 -18.729609987350749 -93.729749656769499 62.510957414485794 -1 0 0 0 -0.74314483375859142 0.66913059716165679 forward_v I I I I #
face $-1 $116 $117 $42 $-1 $118 forward single #
loop $-1 $119 $120 $55 #
cone-surface $-1 -22.497216553690258 -25.290420215740561 6.2961424267067416 0 0.74314483375859142 -0.66913059716165679 1 0 0 1 I I 0 1 1 forward I I I I #
face $-1 $121 $122 $43 $-1 $123 reversed single #
loop $-1 $-1 $124 $56 #
plane-surface $-1 0.063233307220293966 -93.729749656769499 62.510957414485794 -1 0 0 0 -0.74314483375859142 0.66913059716165679 forward_v I I I I #
face $-1 $125 $126 $44 $-1 $127 forward single #
loop $-1 $128 $129 $57 #
cone-surface $-1 -3.7043732591192153 -25.290420215740561 6.2961424267067416 0 0.74314483375859142 -0.66913059716165679 1 0 0 1 I I 0 1 1 forward I I I I #
face $-1 $130 $131 $45 $-1 $132 reversed single #
loop $-1 $-1 $133 $58 #
plane-surface $-1 18.856076601791337 -93.729749656769499 62.510957414485794 -1 0 0 0 -0.74314483375859142 0.66913059716165679 forward_v I I I I #
face $-1 $134 $135 $46 $-1 $136 forward single #
loop $-1 $137 $138 $59 #
cone-surface $-1 15.088470035451827 -25.290420215740561 6.2961424267067416 0 0.74314483375859142 -0.66913059716165679 1 0 0 1 I I 0 1 1 forward I I I I #
face $-1 $139 $140 $47 $-1 $141 reversed single #
loop $-1 $-1 $142 $60 #
plane-surface $-1 37.648919896362379 -93.729749656769499 62.510957414485794 -1 0 0 0 -0.74314483375859142 0.66913059716165679 forward_v I I I I #
face $-1 $143 $144 $48 $-1 $145 forward single #
loop $-1 $146 $147 $61 #
cone-surface $-1 33.88131333002287 -25.290420215740561 6.2961424267067416 0 0.74314483375859142 -0.66913059716165679 1 0 0 1 I I 0 1 1 forward I I I I #
face $-1 $148 $149 $49 $-1 $150 reversed single #
loop $-1 $-1 $151 $62 #
plane-surface $-1 -12.673510403191907 45.436511265837837 110.37388098646828 1 0 0 0 -0.68199836817093118 -0.7313536940579346 forward_v I I I I #
face $-1 $152 $153 $50 $-1 $154 forward single #
loop $-1 $155 $156 $63 #
cone-surface $-1 -9.1906743745092214 26.737139771737183 7.9761969999727667 0 -0.68199836817093118 -0.7313536940579346 1 0 0 1 I I 0 1 1 forward I I I I #
face $-1 $157 $158 $51 $-1 $159 forward single #
loop $-1 $160 $161 $64 #
cone-surface $-1 -3.9664203314851889 26.737139771737183 7.9761969999727667 0 -0.68199836817093118 -0.7313536940579346 1 0 0 1 I I 0 1 1 forward I I I I #
face $-1 $162 $163 $39 $-1 $164 reversed single #
loop $-1 $-1 $165 $65 #
plane-surface $-1 0 0 -10.559485607988089 0 0 1 1 0 0 forward_v I I I I #
coedge $-1 $166 $167 $168 $169 forward $66 $-1 #
face $-1 $170 $171 $40 $-1 $172 reversed single #
loop $-1 $-1 $173 $68 #
plane-surface $-1 -31.89969484328471 0 8.9980403851607118 -1 0 0 0 0 1 forward_v I I I I #
coedge $-1 $174 $175 $176 $177 forward $69 $-1 #
face $-1 $178 $179 $41 $-1 $180 reversed single #
loop $-1 $-1 $181 $71 #
plane-surface $-1 -22.497216553690258 -29.397497401565488 4.5859387467753194 0 -0.74314483375859142 0.66913059716165679 1 0 0 forward_v I I I I #
coedge $-1 $182 $183 $184 $185 reversed $72 $-1 #
face $-1 $-1 $186 $42 $-1 $187 forward single #
loop $-1 $188 $189 $74 #
cone-surface $-1 -22.497216553690258 -23.501073422423055 4.6850073774509458 0 0.74314483375859142 -0.66913059716165679 0.5 0 0 1 I I -0.70710678118654746 0.70710678118654746 0.5 forward I I I I #
loop $-1 $-1 $190 $55 #
coedge $-1 $120 $120 $191 $192 reversed $75 $-1 #
face $-1 $193 $194 $43 $-1 $195 reversed single #
loop $-1 $-1 $196 $77 #
plane-surface $-1 -3.7043732591192153 -29.397497401565488 4.5859387467753194 0 -0.74314483375859142 0.66913059716165679 1 0 0 forward_v I I I I #
coedge $-1 $197 $198 $199 $200 reversed $78 $-1 #
face $-1 $-1 $201 $44 $-1 $202 forward single #
loop $-1 $203 $204 $80 #
cone-surface $-1 -3.7043732591192153 -23.501073422423055 4.6850073774509458 0 0.74314483375859142 -0.66913059716165679 0.5 0 0 1 I I -0.70710678118654746 0.70710678118654746 0.5 forward I I I I #
loop $-1 $-1 $205 $57 #
coedge $-1 $129 $129 $206 $207 reversed $81 $-1 #
face $-1 $208 $209 $45 $-1 $210 reversed single #
loop $-1 $-1 $211 $83 #
plane-surface $-1 15.088470035451827 -29.397497401565488 4.5859387467753194 0 -0.74314483375859142 0.66913059716165679 1 0 0 forward_v I I I I #
coedge $-1 $212 $213 $214 $215 reversed $84 $-1 #
face $-1 $-1 $216 $46 $-1 $217 forward single #
loop $-1 $218 $219 $86 #
cone-surface $-1 15.088470035451827 -23.501073422423055 4.6850073774509458 0 0.74314483375859142 -0.66913059716165679 0.5 0 0 1 I I -0.70710678118654746 0.70710678118654746 0.5 forward I I I I #
loop $-1 $-1 $220 $59 #
coedge $-1 $138 $138 $221 $222 reversed $87 $-1 #
face $-1 $223 $224 $47 $-1 $225 reversed single #
loop $-1 $-1 $226 $89 #
plane-surface $-1 33.88131333002287 -29.397497401565488 4.5859387467753194 0 -0.74314483375859142 0.66913059716165679 1 0 0 forward_v I I I I #
coedge $-1 $227 $228 $229 $230 reversed $90 $-1 #
face $-1 $-1 $231 $48 $-1 $232 forward single #
loop $-1 $233 $234 $92 #
cone-surface $-1 33.88131333002287 -23.501073422423055 4.6850073774509458 0 0.74314483375859142 -0.66913059716165679 0.5 0 0 1 I I -0.70710678118654746 0.70710678118654746 0.5 forward I I I I #
loop $-1 $-1 $235 $61 #
coedge $-1 $147 $147 $236 $237 reversed $93 $-1 #
face $-1 $238 $239 $49 $-1 $240 reversed single #
loop $-1 $-1 $241 $95 #
plane-surface $-1 -6.5785473529972052 -13.602439239821408 47.062359198786318 0 0.68199836817093118 0.7313536940579346 1 0 0 forward_v I I I I #
coedge $-1 $242 $243 $244 $245 reversed $96 $-1 #
face $-1 $-1 $246 $50 $-1 $247 forward single #
loop $-1 $248 $249 $98 #
cone-surface $-1 -9.1906743745092214 25.663481981188358 6.8248400057062337 0 -0.68199836817093118 -0.7313536940579346 0.5 0 0 1 I I -0.70710678118654746 0.70710678118654746 0.5 forward I I I I #
loop $-1 $-1 $250 $63 #
coedge $-1 $156 $156 $251 $252 reversed $99 $-1 #
face $-1 $-1 $253 $51 $-1 $254 forward single #
loop $-1 $255 $256 $101 #
cone-surface $-1 -3.9664203314851889 25.663481981188358 6.8248400057062337 0 -0.68199836817093118 -0.7313536940579346 0.5 0 0 1 I I -0.70710678118654746 0.70710678118654746 0.5 forward I I I I #
loop $-1 $-1 $257 $64 #
coedge $-1 $161 $161 $258 $259 reversed $102 $-1 #
face $-1 $260 $261 $39 $-1 $262 reversed single #
loop $-1 $-1 $263 $104 #
plane-surface $-1 0 -29.397497401565506 0 0 1 0 0 0 1 forward_v I I I I #
coedge $-1 $264 $265 $266 $267 forward $105 $-1 #
coedge $-1 $268 $107 $269 $270 forward $66 $-1 #
coedge $-1 $107 $268 $271 $272 forward $66 $-1 #
coedge $-1 $273 $274 $107 $169 reversed $275 $-1 #
edge $-1 $276 -29.397497401565506 $277 29.397497401565506 $168 $278 forward 7 unknown #
face $-1 $279 $280 $40 $-1 $281 reversed single #
loop $-1 $-1 $282 $108 #
plane-surface $-1 0 29.397497401565506 0 0 -1 0 0 0 -1 forward_v I I I I #
coedge $-1 $176 $283 $284 $285 reversed $109 $-1 #
coedge $-1 $286 $111 $287 $288 reversed $69 $-1 #
coedge $-1 $111 $286 $289 $290 reversed $69 $-1 #
coedge $-1 $291 $173 $111 $177 reversed $109 $-1 #
edge $-1 $292 -29.397497401565506 $293 29.397497401565506 $176 $294 forward 7 unknown #
face $-1 $295 $296 $41 $-1 $297 reversed single #
loop $-1 $-1 $298 $112 #
plane-surface $-1 -26.264823120029767 -93.729749656769499 62.510957414485794 1 0 0 0 0.74314483375859142 -0.66913059716165679 forward_v I I I I #
coedge $-1 $299 $300 $301 $302 reversed $113 $-1 #
coedge $-1 $183 $115 $303 $304 reversed $72 $-1 #
coedge $-1 $115 $182 $299 $305 reversed $72 $-1 #
coedge $-1 $301 $306 $115 $185 forward $307 $-1 #
edge $-1 $308 17.467377426819244 $309 22.845983045592739 $184 $310 forward 7 unknown #
loop $-1 $-1 $191 $116 #
plane-surface $-1 -22.497216553690258 -29.397497401565488 4.5859387467753194 0 -0.74314483375859142 0.66913059716165679 1 0 0 forward_v I I I I #
loop $-1 $-1 $311 $74 #
coedge $-1 $189 $189 $190 $312 reversed $117 $-1 #
coedge $-1 $190 $190 $189 $312 forward $119 $-1 #
coedge $-1 $191 $191 $120 $192 forward $186 $-1 #
edge $-1 $313 -2.6828484497641021e-016 $313 6.2831853071796004 $191 $314 forward 7 unknown #
face $-1 $315 $316 $43 $-1 $317 reversed single #
loop $-1 $-1 $318 $121 #
plane-surface $-1 -7.4719798254587246 -93.729749656769499 62.510957414485794 1 0 0 0 0.74314483375859142 -0.66913059716165679 forward_v I I I I #
coedge $-1 $319 $320 $321 $322 reversed $122 $-1 #
coedge $-1 $198 $124 $323 $324 reversed $78 $-1 #
coedge $-1 $124 $197 $319 $325 reversed $78 $-1 #
coedge $-1 $321 $326 $124 $200 forward $327 $-1 #
edge $-1 $328 17.467377426819244 $329 22.845983045592739 $199 $330 forward 7 unknown #
loop $-1 $-1 $206 $125 #
plane-surface $-1 -3.7043732591192153 -29.397497401565488 4.5859387467753194 0 -0.74314483375859142 0.66913059716165679 1 0 0 forward_v I I I I #
loop $-1 $-1 $331 $80 #
coedge $-1 $204 $204 $205 $332 reversed $126 $-1 #
coedge $-1 $205 $205 $204 $332 forward $128 $-1 #
coedge $-1 $206 $206 $129 $207 forward $201 $-1 #
edge $-1 $333 -2.6828484497641021e-016 $333 6.2831853071796004 $206 $334 forward 7 unknown #
face $-1 $335 $336 $45 $-1 $337 reversed single #
loop $-1 $-1 $338 $130 #
plane-surface $-1 11.320863469112318 -93.729749656769499 62.510957414485794 1 0 0 0 0.74314483375859142 -0.66913059716165679 forward_v I I I I #
coedge $-1 $339 $340 $341 $342 reversed $131 $-1 #
coedge $-1 $213 $133 $343 $344 reversed $84 $-1 #
coedge $-1 $133 $212 $339 $345 reversed $84 $-1 #
coedge $-1 $341 $346 $133 $215 forward $347 $-1 #
edge $-1 $348 17.467377426819244 $349 22.845983045592739 $214 $350 forward 7 unknown #
loop $-1 $-1 $221 $134 #
plane-surface $-1 15.088470035451827 -29.397497401565488 4.5859387467753194 0 -0.74314483375859142 0.66913059716165679 1 0 0 forward_v I I I I #
loop $-1 $-1 $351 $86 #
coedge $-1 $219 $219 $220 $352 reversed $135 $-1 #
coedge $-1 $220 $220 $219 $352 forward $137 $-1 #
coedge $-1 $221 $221 $138 $222 forward $216 $-1 #
edge $-1 $353 -2.6828484497641021e-016 $353 6.2831853071796004 $221 $354 forward 7 unknown #
face $-1 $355 $356 $47 $-1 $357 reversed single #
loop $-1 $-1 $358 $139 #
plane-surface $-1 30.113706763683361 -93.729749656769499 62.510957414485794 1 0 0 0 0.74314483375859142 -0.66913059716165679 forward_v I I I I #
coedge $-1 $359 $360 $361 $362 reversed $140 $-1 #
coedge $-1 $228 $142 $363 $364 reversed $90 $-1 #
coedge $-1 $142 $227 $359 $365 reversed $90 $-1 #
coedge $-1 $361 $366 $142 $230 forward $367 $-1 #
edge $-1 $368 17.467377426819244 $369 22.845983045592739 $229 $370 forward 7 unknown #
loop $-1 $-1 $236 $143 #
plane-surface $-1 33.88131333002287 -29.397497401565488 4.5859387467753194 0 -0.74314483375859142 0.66913059716165679 1 0 0 forward_v I I I I #
loop $-1 $-1 $371 $92 #
coedge $-1 $234 $234 $235 $372 reversed $144 $-1 #
coedge $-1 $235 $235 $234 $372 forward $146 $-1 #
coedge $-1 $236 $236 $147 $237 forward $231 $-1 #
edge $-1 $373 -2.6828484497641021e-016 $373 6.2831853071796004 $236 $374 forward 7 unknown #
face $-1 $375 $376 $49 $-1 $377 forward single #
loop $-1 $-1 $378 $148 #
plane-surface $-1 -0.48358430280250353 45.436511265837837 110.37388098646828 -1 0 0 0 0.68199836817093118 0.7313536940579346 forward_v I I I I #
coedge $-1 $379 $380 $381 $382 reversed $149 $-1 #
coedge $-1 $243 $151 $383 $384 reversed $96 $-1 #
coedge $-1 $151 $242 $379 $385 reversed $96 $-1 #
coedge $-1 $381 $386 $151 $245 forward $376 $-1 #
edge $-1 $387 -6.6792417686465875 $388 -2.8238437219166741 $244 $389 forward 7 unknown #
loop $-1 $-1 $251 $152 #
plane-surface $-1 -6.5785473529972052 -13.602439239821408 47.062359198786318 0 0.68199836817093118 0.7313536940579346 1 0 0 forward_v I I I I #
loop $-1 $-1 $390 $98 #
coedge $-1 $249 $249 $250 $391 reversed $153 $-1 #
coedge $-1 $250 $250 $249 $391 forward $155 $-1 #
coedge $-1 $251 $251 $156 $252 forward $246 $-1 #
edge $-1 $392 6.8543644155900283e-016 $392 6.2831853071796013 $251 $393 forward 7 unknown #
loop $-1 $-1 $258 $157 #
plane-surface $-1 -6.5785473529972052 -13.602439239821408 47.062359198786318 0 0.68199836817093118 0.7313536940579346 1 0 0 forward_v I I I I #
loop $-1 $-1 $394 $101 #
coedge $-1 $256 $256 $257 $395 reversed $158 $-1 #
coedge $-1 $257 $257 $256 $395 forward $160 $-1 #
coedge $-1 $258 $258 $161 $259 forward $253 $-1 #
edge $-1 $396 6.8543644155900283e-016 $396 6.2831853071796013 $258 $397 forward 7 unknown #
face $-1 $398 $399 $39 $-1 $400 reversed single #
loop $-1 $-1 $401 $162 #
plane-surface $-1 -43.283791619617297 0 0 1 0 0 0 0 -1 forward_v I I I I #
coedge $-1 $402 $271 $403 $404 forward $163 $-1 #
coedge $-1 $405 $165 $402 $406 forward $105 $-1 #
coedge $-1 $165 $405 $407 $408 forward $105 $-1 #
coedge $-1 $274 $273 $165 $267 reversed $275 $-1 #
edge $-1 $409 -29.397497401565506 $410 29.397497401565506 $266 $411 forward 7 unknown #
coedge $-1 $167 $166 $412 $413 forward $66 $-1 #
coedge $-1 $414 $415 $166 $270 reversed $399 $-1 #
edge $-1 $277 -43.283791619617297 $416 43.283791619617297 $269 $417 forward 7 unknown #
coedge $-1 $263 $418 $167 $272 reversed $163 $-1 #
edge $-1 $419 -43.283791619617297 $276 43.283791619617297 $271 $420 forward 7 unknown #
coedge $-1 $266 $168 $418 $421 forward $275 $-1 #
coedge $-1 $168 $266 $414 $422 reversed $275 $-1 #
loop $-1 $-1 $273 $398 #
vertex $-1 $169 $423 #
vertex $-1 $169 $424 #
straight-curve $-1 43.283791619617297 0 10.559485607988089 0 1 0 I I #
face $-1 $425 $426 $40 $-1 $427 forward single #
loop $-1 $-1 $428 $170 #
plane-surface $-1 -43.283791619617297 0 0 1 0 0 0 0 -1 forward_v I I I I #
coedge $-1 $289 $429 $291 $430 forward $171 $-1 #
coedge $-1 $173 $291 $431 $432 reversed $109 $-1 #
coedge $-1 $433 $287 $173 $285 forward $434 $-1 #
edge $-1 $293 2.9375749697529789 $435 6.0604654154077329 $284 $436 forward 7 unknown #
coedge $-1 $175 $174 $428 $437 reversed $69 $-1 #
coedge $-1 $284 $438 $174 $288 forward $434 $-1 #
edge $-1 $439 -24.487920003891801 $293 -13.103823227559207 $287 $440 forward 7 unknown #
coedge $-1 $441 $282 $175 $290 forward $171 $-1 #
edge $-1 $292 13.103823227559207 $442 24.487920003891801 $289 $443 forward 7 unknown #
coedge $-1 $283 $176 $282 $430 reversed $109 $-1 #
vertex $-1 $290 $444 #
vertex $-1 $288 $445 #
straight-curve $-1 -31.89969484328471 0 7.4365951623333348 0 -1 0 I I #
face $-1 $-1 $307 $41 $-1 $446 forward single #
loop $-1 $-1 $447 $178 #
plane-surface $-1 0 -29.397497401565506 0 0 1 0 0 0 1 forward_v I I I I #
coedge $-1 $448 $449 $450 $451 reversed $179 $-1 #
coedge $-1 $452 $181 $183 $305 forward $113 $-1 #
coedge $-1 $181 $452 $448 $453 forward $113 $-1 #
coedge $-1 $450 $184 $181 $302 forward $307 $-1 #
edge $-1 $309 7.4810017105056197 $454 15.016214843184638 $301 $455 forward 7 unknown #
coedge $-1 $456 $457 $182 $304 forward $296 $-1 #
edge $-1 $458 -26.669539960467596 $308 -20.695993099254807 $303 $459 forward 7 unknown #
edge $-1 $309 -8.0382000787120589 $458 2.6407141616433227e-014 $183 $460 forward 7 unknown #
coedge $-1 $184 $450 $456 $461 forward $307 $-1 #
loop $-1 $-1 $450 $295 #
vertex $-1 $304 $462 #
vertex $-1 $185 $463 #
straight-curve $-1 -18.729609987350749 -46.86487482838475 10.559485607988087 0 1 0 I I #
coedge $-1 $311 $311 $-1 $464 reversed $188 $-1 #
edge $-1 $465 0 $465 6.2831853071796004 $189 $466 forward 7 unknown #
vertex $-1 $192 $467 #
ellipse-curve $-1 -22.497216553690258 -26.708194592178756 7.5727121773816961 0 -0.74314483375859142 0.66913059716165679 1 0 0 1 I I #
face $-1 $-1 $327 $43 $-1 $468 forward single #
loop $-1 $-1 $469 $193 #
plane-surface $-1 0 -29.397497401565506 0 0 1 0 0 0 1 forward_v I I I I #
coedge $-1 $470 $471 $472 $473 reversed $194 $-1 #
coedge $-1 $474 $196 $198 $325 forward $122 $-1 #
coedge $-1 $196 $474 $470 $475 forward $122 $-1 #
coedge $-1 $472 $199 $196 $322 forward $327 $-1 #
edge $-1 $329 -1.9154199367799016 $476 5.619793195899117 $321 $477 forward 7 unknown #
coedge $-1 $478 $479 $197 $324 forward $316 $-1 #
edge $-1 $480 -26.669539960467596 $328 -20.695993099254807 $323 $481 forward 7 unknown #
edge $-1 $329 -8.0382000787120589 $480 2.6407141616433227e-014 $198 $482 forward 7 unknown #
coedge $-1 $199 $472 $478 $483 forward $327 $-1 #
loop $-1 $-1 $472 $315 #
vertex $-1 $324 $484 #
vertex $-1 $200 $485 #
straight-curve $-1 0.063233307220293966 -46.86487482838475 10.559485607988087 0 1 0 I I #
coedge $-1 $331 $331 $-1 $486 reversed $203 $-1 #
edge $-1 $487 0 $487 6.2831853071796004 $204 $488 forward 7 unknown #
vertex $-1 $207 $489 #
ellipse-curve $-1 -3.7043732591192153 -26.708194592178756 7.5727121773816961 0 -0.74314483375859142 0.66913059716165679 1 0 0 1 I I #
face $-1 $-1 $347 $45 $-1 $490 forward single #
loop $-1 $-1 $491 $208 #
plane-surface $-1 0 -29.397497401565506 0 0 1 0 0 0 1 forward_v I I I I #
coedge $-1 $492 $493 $494 $495 reversed $209 $-1 #
coedge $-1 $496 $211 $213 $345 forward $131 $-1 #
coedge $-1 $211 $496 $492 $497 forward $131 $-1 #
coedge $-1 $494 $214 $211 $342 forward $347 $-1 #
edge $-1 $349 -11.311841584065423 $498 -3.7766284513864044 $341 $499 forward 7 unknown #
coedge $-1 $500 $501 $212 $344 forward $336 $-1 #
edge $-1 $502 -26.669539960467596 $348 -20.695993099254807 $343 $503 forward 7 unknown #
edge $-1 $349 -8.0382000787120589 $502 2.6407141616433227e-014 $213 $504 forward 7 unknown #
coedge $-1 $214 $494 $500 $505 forward $347 $-1 #
loop $-1 $-1 $494 $335 #
vertex $-1 $344 $506 #
vertex $-1 $215 $507 #
straight-curve $-1 18.856076601791337 -46.86487482838475 10.559485607988087 0 1 0 I I #
coedge $-1 $351 $351 $-1 $508 reversed $218 $-1 #
edge $-1 $509 0 $509 6.2831853071796004 $219 $510 forward 7 unknown #
vertex $-1 $222 $511 #
ellipse-curve $-1 15.088470035451827 -26.708194592178756 7.5727121773816961 0 -0.74314483375859142 0.66913059716165679 1 0 0 1 I I #
face $-1 $-1 $367 $47 $-1 $512 forward single #
loop $-1 $-1 $513 $223 #
plane-surface $-1 0 -29.397497401565506 0 0 1 0 0 0 1 forward_v I I I I #
coedge $-1 $514 $515 $516 $517 reversed $224 $-1 #
coedge $-1 $518 $226 $228 $365 forward $140 $-1 #
coedge $-1 $226 $518 $514 $519 forward $140 $-1 #
coedge $-1 $516 $229 $226 $362 forward $367 $-1 #
edge $-1 $369 -20.708263231350944 $520 -13.173050098671926 $361 $521 forward 7 unknown #
coedge $-1 $522 $523 $227 $364 forward $356 $-1 #
edge $-1 $524 -26.669539960467596 $368 -20.695993099254807 $363 $525 forward 7 unknown #
edge $-1 $369 -8.0382000787120589 $524 2.6407141616433227e-014 $228 $526 forward 7 unknown #
coedge $-1 $229 $516 $522 $527 forward $367 $-1 #
loop $-1 $-1 $516 $355 #
vertex $-1 $364 $528 #
vertex $-1 $230 $529 #
straight-curve $-1 37.648919896362379 -46.86487482838475 10.559485607988087 0 1 0 I I #
coedge $-1 $371 $371 $-1 $530 reversed $233 $-1 #
edge $-1 $531 0 $531 6.2831853071796004 $234 $532 forward 7 unknown #
vertex $-1 $237 $533 #
ellipse-curve $-1 33.88131333002287 -26.708194592178756 7.5727121773816961 0 -0.74314483375859142 0.66913059716165679 1 0 0 1 I I #
face $-1 $-1 $534 $49 $-1 $535 reversed single #
loop $-1 $-1 $244 $238 #
plane-surface $-1 0 0 10.559485607988089 0 0 1 1 0 0 forward_v I I I I #
coedge $-1 $536 $537 $538 $539 reversed $239 $-1 #
coedge $-1 $540 $241 $243 $385 forward $149 $-1 #
coedge $-1 $241 $540 $536 $541 forward $149 $-1 #
coedge $-1 $538 $244 $241 $382 forward $376 $-1 #
edge $-1 $388 -9.3842367266933042 $542 2.8056893736960991 $381 $543 forward 7 unknown #
coedge $-1 $544 $545 $242 $384 forward $534 $-1 #
edge $-1 $546 -48.222671806801529 $387 -44.627454885246053 $383 $547 forward 7 unknown #
edge $-1 $388 53.523403125869962 $546 58.794994803130976 $243 $548 forward 7 unknown #
coedge $-1 $244 $538 $544 $549 forward $376 $-1 #
vertex $-1 $384 $550 #
vertex $-1 $245 $551 #
straight-curve $-1 -12.673510403191907 22.718255632918918 10.559485607988087 0 -1 0 I I #
coedge $-1 $390 $390 $-1 $552 reversed $248 $-1 #
edge $-1 $553 0 $553 6.2831853071796004 $249 $554 forward 7 unknown #
vertex $-1 $252 $555 #
ellipse-curve $-1 -9.1906743745092214 27.469798378200554 8.7618771472103454 0 0.68199836817093118 0.7313536940579346 1 0 0 1 I I #
coedge $-1 $394 $394 $-1 $556 reversed $255 $-1 #
edge $-1 $557 0 $557 6.2831853071796004 $256 $558 forward 7 unknown #
vertex $-1 $259 $559 #
ellipse-curve $-1 -3.9664203314851889 27.469798378200554 8.7618771472103454 0 0.68199836817093118 0.7313536940579346 1 0 0 1 I I #
face $-1 $-1 $275 $39 $-1 $560 reversed single #
loop $-1 $-1 $414 $260 #
plane-surface $-1 0 29.397497401565506 0 0 -1 0 0 0 -1 forward_v I I I I #
coedge $-1 $561 $412 $415 $562 forward $261 $-1 #
coedge $-1 $418 $263 $264 $406 reversed $163 $-1 #
coedge $-1 $412 $561 $263 $404 reversed $261 $-1 #
edge $-1 $419 -10.559485607988089 $563 10.559485607988089 $403 $564 forward 7 unknown #
coedge $-1 $265 $264 $561 $565 forward $105 $-1 #
edge $-1 $410 -43.283791619617297 $563 43.283791619617297 $402 $566 forward 7 unknown #
coedge $-1 $415 $414 $265 $408 reversed $399 $-1 #
edge $-1 $567 -43.283791619617297 $409 43.283791619617297 $407 $568 forward 7 unknown #
vertex $-1 $267 $569 #
vertex $-1 $421 $570 #
straight-curve $-1 43.283791619617297 0 -10.559485607988089 0 -1 0 I I #
coedge $-1 $401 $403 $268 $413 reversed $261 $-1 #
edge $-1 $416 -29.397497401565506 $419 29.397497401565506 $412 $571 forward 7 unknown #
coedge $-1 $407 $269 $274 $422 forward $399 $-1 #
coedge $-1 $269 $407 $401 $562 reversed $399 $-1 #
vertex $-1 $270 $572 #
straight-curve $-1 0 29.397497401565506 10.559485607988089 -1 0 0 I I #
coedge $-1 $271 $402 $273 $421 reversed $163 $-1 #
vertex $-1 $413 $573 #
straight-curve $-1 0 -29.397497401565506 10.559485607988089 1 0 0 I I #
edge $-1 $276 -10.559485607988089 $410 10.559485607988089 $273 $574 forward 7 unknown #
edge $-1 $277 -10.559485607988089 $409 10.559485607988089 $274 $575 forward 7 unknown #
point $-1 43.283791619617297 -29.397497401565506 10.559485607988089 #
point $-1 43.283791619617297 29.397497401565506 10.559485607988089 #
face $-1 $-1 $434 $40 $-1 $576 reversed single #
loop $-1 $-1 $431 $279 #
plane-surface $-1 0 0 10.559485607988089 0 0 1 1 0 0 forward_v I I I I #
coedge $-1 $577 $578 $286 $437 forward $280 $-1 #
coedge $-1 $282 $441 $579 $580 reversed $171 $-1 #
edge $-1 $581 -6.0604654154077329 $292 -2.9375749697529789 $282 $582 forward 7 unknown #
coedge $-1 $579 $583 $283 $432 forward $426 $-1 #
edge $-1 $435 -29.397497401565506 $581 29.397497401565506 $431 $584 forward 7 unknown #
coedge $-1 $438 $284 $583 $585 reversed $434 $-1 #
loop $-1 $-1 $284 $425 #
vertex $-1 $285 $586 #
straight-curve $-1 -31.89969484328471 -29.397497401565506 4.4990201925803559 0 0 1 I I #
edge $-1 $442 -29.397497401565506 $439 29.397497401565506 $428 $587 forward 7 unknown #
coedge $-1 $287 $433 $577 $588 forward $434 $-1 #
vertex $-1 $437 $589 #
straight-curve $-1 -18.795871615725503 -29.397497401565506 7.4365951623333348 1 0 0 I I #
coedge $-1 $429 $289 $578 $590 reversed $171 $-1 #
vertex $-1 $437 $591 #
straight-curve $-1 -18.795871615725503 29.397497401565506 7.4365951623333348 -1 0 0 I I #
point $-1 -31.89969484328471 29.397497401565506 7.4365951623333348 #
point $-1 -31.89969484328471 -29.397497401565506 7.4365951623333348 #
plane-surface $-1 0 0 10.559485607988089 0 0 1 1 0 0 forward_v I I I I #
coedge $-1 $457 $456 $449 $592 forward $296 $-1 #
coedge $-1 $449 $298 $300 $453 reversed $179 $-1 #
coedge $-1 $298 $448 $447 $592 reversed $179 $-1 #
coedge $-1 $306 $301 $298 $451 forward $307 $-1 #
edge $-1 $454 -22.845983045592739 $593 -17.467377426819244 $450 $594 forward 7 unknown #
coedge $-1 $300 $299 $457 $595 reversed $113 $-1 #
edge $-1 $596 -2.6407141616433227e-014 $454 8.0382000787120589 $448 $597 forward 7 unknown #
vertex $-1 $302 $598 #
straight-curve $-1 -11.248608276845129 -24.018891782792011 10.559485607988089 -1 0 0 I I #
coedge $-1 $447 $303 $306 $461 reversed $296 $-1 #
coedge $-1 $303 $447 $452 $595 forward $296 $-1 #
vertex $-1 $304 $599 #
straight-curve $-1 -18.729609987350749 -29.397497401565502 31.255478707242897 0 0 1 I I #
straight-curve $-1 -18.729609987350749 -29.397497401565488 4.5859387467753194 0 -0.66913059716165679 -0.74314483375859142 I I #
edge $-1 $593 -26.264823120029767 $308 -18.729609987350749 $456 $600 forward 7 unknown #
point $-1 -18.729609987350749 -29.397497401565506 10.559485607988089 #
point $-1 -18.729609987350749 -24.018891782792011 10.559485607988089 #
edge $-1 $601 1 $601 0 $311 $-1 forward 7 unknown #
vertex $-1 $312 $602 #
ellipse-curve $-1 -22.497216553690258 -23.872645839302351 5.0195726760317738 0 -0.74314483375859142 0.66913059716165679 1 0 0 1 I I #
point $-1 -21.497216553690258 -26.708194592178771 7.5727121773817085 #
plane-surface $-1 0 0 10.559485607988089 0 0 1 1 0 0 forward_v I I I I #
coedge $-1 $479 $478 $471 $603 forward $316 $-1 #
coedge $-1 $471 $318 $320 $475 reversed $194 $-1 #
coedge $-1 $318 $470 $469 $603 reversed $194 $-1 #
coedge $-1 $326 $321 $318 $473 forward $327 $-1 #
edge $-1 $476 -22.845983045592739 $604 -17.467377426819244 $472 $605 forward 7 unknown #
coedge $-1 $320 $319 $479 $606 reversed $122 $-1 #
edge $-1 $607 -2.6407141616433227e-014 $476 8.0382000787120589 $470 $608 forward 7 unknown #
vertex $-1 $322 $609 #
straight-curve $-1 -1.8521866295596077 -24.018891782792011 10.559485607988089 -1 0 0 I I #
coedge $-1 $469 $323 $326 $483 reversed $316 $-1 #
coedge $-1 $323 $469 $474 $606 forward $316 $-1 #
vertex $-1 $324 $610 #
straight-curve $-1 0.063233307220293966 -29.397497401565502 31.255478707242897 0 0 1 I I #
straight-curve $-1 0.063233307220293966 -29.397497401565488 4.5859387467753194 0 -0.66913059716165679 -0.74314483375859142 I I #
edge $-1 $604 -7.4719798254587246 $328 0.063233307220293966 $478 $611 forward 7 unknown #
point $-1 0.063233307220293966 -29.397497401565506 10.559485607988089 #
point $-1 0.063233307220293966 -24.018891782792011 10.559485607988089 #
edge $-1 $612 1 $612 0 $331 $-1 forward 7 unknown #
vertex $-1 $332 $613 #
ellipse-curve $-1 -3.7043732591192153 -23.872645839302351 5.0195726760317738 0 -0.74314483375859142 0.66913059716165679 1 0 0 1 I I #
point $-1 -2.7043732591192153 -26.708194592178771 7.5727121773817085 #
plane-surface $-1 0 0 10.559485607988089 0 0 1 1 0 0 forward_v I I I I #
coedge $-1 $501 $500 $493 $614 forward $336 $-1 #
coedge $-1 $493 $338 $340 $497 reversed $209 $-1 #
coedge $-1 $338 $492 $491 $614 reversed $209 $-1 #
coedge $-1 $346 $341 $338 $495 forward $347 $-1 #
edge $-1 $498 -22.845983045592739 $615 -17.467377426819244 $494 $616 forward 7 unknown #
coedge $-1 $340 $339 $501 $617 reversed $131 $-1 #
edge $-1 $618 -2.6407141616433227e-014 $498 8.0382000787120589 $492 $619 forward 7 unknown #
vertex $-1 $342 $620 #
straight-curve $-1 7.5442350177259137 -24.018891782792011 10.559485607988089 -1 0 0 I I #
coedge $-1 $491 $343 $346 $505 reversed $336 $-1 #
coedge $-1 $343 $491 $496 $617 forward $336 $-1 #
vertex $-1 $344 $621 #
straight-curve $-1 18.856076601791337 -29.397497401565502 31.255478707242897 0 0 1 I I #
straight-curve $-1 18.856076601791337 -29.397497401565488 4.5859387467753194 0 -0.66913059716165679 -0.74314483375859142 I I #
edge $-1 $615 11.320863469112318 $348 18.856076601791337 $500 $622 forward 7 unknown #
point $-1 18.856076601791337 -29.397497401565506 10.559485607988089 #
point $-1 18.856076601791337 -24.018891782792011 10.559485607988089 #
edge $-1 $623 1 $623 0 $351 $-1 forward 7 unknown #
vertex $-1 $352 $624 #
ellipse-curve $-1 15.088470035451827 -23.872645839302351 5.0195726760317738 0 -0.74314483375859142 0.66913059716165679 1 0 0 1 I I #
point $-1 16.088470035451827 -26.708194592178771 7.5727121773817085 #
plane-surface $-1 0 0 10.559485607988089 0 0 1 1 0 0 forward_v I I I I #
coedge $-1 $523 $522 $515 $625 forward $356 $-1 #
coedge $-1 $515 $358 $360 $519 reversed $224 $-1 #
coedge $-1 $358 $514 $513 $625 reversed $224 $-1 #
coedge $-1 $366 $361 $358 $517 forward $367 $-1 #
edge $-1 $520 -22.845983045592739 $626 -17.467377426819244 $516 $627 forward 7 unknown #
coedge $-1 $360 $359 $523 $628 reversed $140 $-1 #
edge $-1 $629 -2.6407141616433227e-014 $520 8.0382000787120589 $514 $630 forward 7 unknown #
vertex $-1 $362 $631 #
straight-curve $-1 16.940656665011435 -24.018891782792011 10.559485607988089 -1 0 0 I I #
coedge $-1 $513 $363 $366 $527 reversed $356 $-1 #
coedge $-1 $363 $513 $518 $628 forward $356 $-1 #
vertex $-1 $364 $632 #
straight-curve $-1 37.648919896362379 -29.397497401565502 31.255478707242897 0 0 1 I I #
straight-curve $-1 37.648919896362379 -29.397497401565488 4.5859387467753194 0 -0.66913059716165679 -0.74314483375859142 I I #
edge $-1 $626 30.113706763683361 $368 37.648919896362379 $522 $633 forward 7 unknown #
point $-1 37.648919896362379 -29.397497401565506 10.559485607988089 #
point $-1 37.648919896362379 -24.018891782792011 10.559485607988089 #
edge $-1 $634 1 $634 0 $371 $-1 forward 7 unknown #
vertex $-1 $372 $635 #
ellipse-curve $-1 33.88131333002287 -23.872645839302351 5.0195726760317738 0 -0.74314483375859142 0.66913059716165679 1 0 0 1 I I #
point $-1 34.88131333002287 -26.708194592178771 7.5727121773817085 #
loop $-1 $-1 $383 $375 #
plane-surface $-1 0 29.397497401565506 0 0 -1 0 0 0 -1 forward_v I I I I #
coedge $-1 $537 $378 $380 $541 reversed $239 $-1 #
coedge $-1 $378 $536 $636 $637 reversed $239 $-1 #
coedge $-1 $386 $381 $378 $539 forward $376 $-1 #
edge $-1 $542 2.8238437219166741 $638 6.6792417686465875 $538 $639 forward 7 unknown #
coedge $-1 $380 $379 $545 $640 reversed $149 $-1 #
edge $-1 $641 -58.794994803130976 $542 -53.523403125869962 $536 $642 forward 7 unknown #
vertex $-1 $382 $643 #
straight-curve $-1 -3.2892736764986026 25.542099354835592 10.559485607988083 1 0 0 I I #
coedge $-1 $636 $383 $386 $549 reversed $534 $-1 #
coedge $-1 $383 $636 $540 $640 forward $534 $-1 #
vertex $-1 $384 $644 #
straight-curve $-1 -12.673510403191907 29.397497401565506 55.18694049323414 0 0 1 I I #
straight-curve $-1 -12.673510403191907 -13.602439239821408 47.062359198786318 0 0.7313536940579346 -0.68199836817093118 I I #
edge $-1 $638 0.48358430280250353 $387 12.673510403191907 $544 $645 forward 7 unknown #
point $-1 -12.673510403191907 29.397497401565506 10.559485607988089 #
point $-1 -12.673510403191907 25.542099354835592 10.559485607988087 #
edge $-1 $646 1 $646 0 $390 $-1 forward 7 unknown #
vertex $-1 $391 $647 #
ellipse-curve $-1 -9.1906743745092214 26.004481165273823 7.1905168527352012 0 0.68199836817093118 0.7313536940579346 1 0 0 1 I I #
point $-1 -8.1906743745092214 27.469798378200544 8.761877147210333 #
edge $-1 $648 1 $648 0 $394 $-1 forward 7 unknown #
vertex $-1 $395 $649 #
ellipse-curve $-1 -3.9664203314851889 26.004481165273823 7.1905168527352012 0 0.68199836817093118 0.7313536940579346 1 0 0 1 I I #
point $-1 -2.9664203314851889 27.469798378200544 8.761877147210333 #
plane-surface $-1 43.283791619617297 0 0 -1 0 0 0 0 1 forward_v I I I I #
coedge $-1 $403 $401 $405 $565 reversed $261 $-1 #
edge $-1 $416 -10.559485607988089 $567 10.559485607988089 $415 $650 forward 7 unknown #
vertex $-1 $565 $651 #
straight-curve $-1 -43.283791619617297 -29.397497401565506 0 0 0 -1 I I #
edge $-1 $563 -29.397497401565506 $567 29.397497401565506 $561 $652 forward 7 unknown #
straight-curve $-1 0 -29.397497401565506 -10.559485607988089 -1 0 0 I I #
vertex $-1 $408 $653 #
straight-curve $-1 0 29.397497401565506 -10.559485607988089 1 0 0 I I #
point $-1 43.283791619617297 29.397497401565506 -10.559485607988089 #
point $-1 43.283791619617297 -29.397497401565506 -10.559485607988089 #
straight-curve $-1 -43.283791619617297 0 10.559485607988089 0 -1 0 I I #
point $-1 -43.283791619617297 29.397497401565506 10.559485607988089 #
point $-1 -43.283791619617297 -29.397497401565506 10.559485607988089 #
straight-curve $-1 43.283791619617297 -29.397497401565506 0 0 0 -1 I I #
straight-curve $-1 43.283791619617297 29.397497401565506 0 0 0 -1 I I #
plane-surface $-1 0 -29.397497401565506 0 0 1 0 0 0 1 forward_v I I I I #
coedge $-1 $654 $428 $438 $588 reversed $280 $-1 #
coedge $-1 $428 $654 $441 $590 forward $280 $-1 #
coedge $-1 $655 $431 $429 $580 forward $426 $-1 #
edge $-1 $581 31.89969484328471 $656 43.283791619617297 $429 $657 forward 7 unknown #
vertex $-1 $580 $658 #
straight-curve $-1 -31.89969484328471 29.397497401565506 4.4990201925803559 0 0 -1 I I #
coedge $-1 $431 $655 $433 $585 forward $426 $-1 #
straight-curve $-1 -31.89969484328471 0 10.559485607988089 0 1 0 I I #
edge $-1 $659 -43.283791619617297 $435 -31.89969484328471 $433 $660 forward 7 unknown #
point $-1 -31.89969484328471 -29.397497401565506 10.559485607988089 #
straight-curve $-1 -43.283791619617297 0 7.4365951623333348 0 -1 0 I I #
edge $-1 $659 -10.559485607988089 $439 -7.4365951623333348 $577 $661 forward 7 unknown #
point $-1 -43.283791619617304 -29.397497401565506 7.4365951623333348 #
edge $-1 $656 -10.559485607988089 $442 -7.4365951623333348 $441 $662 forward 7 unknown #
point $-1 -43.283791619617304 29.397497401565506 7.4365951623333348 #
edge $-1 $593 20.695993099254807 $596 26.669539960467596 $447 $663 forward 7 unknown #
vertex $-1 $461 $664 #
straight-curve $-1 -26.264823120029767 -46.86487482838475 10.559485607988087 0 -1 0 I I #
edge $-1 $596 -15.016214843184638 $458 -7.4810017105056197 $457 $665 forward 7 unknown #
vertex $-1 $595 $666 #
straight-curve $-1 -26.264823120029767 -29.397497401565488 4.5859387467753194 0 0.66913059716165679 0.74314483375859142 I I #
point $-1 -26.264823120029767 -24.018891782792011 10.559485607988089 #
point $-1 -18.729609987350749 -29.397497401565506 4.5859387467752999 #
straight-curve $-1 0 -29.397497401565506 10.559485607988089 1 0 0 I I #
vertex $-1 $464 $667 #
point $-1 -21.497216553690258 -23.872645839302351 5.0195726760317738 #
edge $-1 $604 20.695993099254807 $607 26.669539960467596 $469 $668 forward 7 unknown #
vertex $-1 $483 $669 #
straight-curve $-1 -7.4719798254587246 -46.86487482838475 10.559485607988087 0 -1 0 I I #
edge $-1 $607 -5.619793195899117 $480 1.9154199367799016 $479 $670 forward 7 unknown #
vertex $-1 $606 $671 #
straight-curve $-1 -7.4719798254587246 -29.397497401565488 4.5859387467753194 0 0.66913059716165679 0.74314483375859142 I I #
point $-1 -7.4719798254587246 -24.018891782792011 10.559485607988089 #
point $-1 0.063233307220293966 -29.397497401565506 4.5859387467752999 #
straight-curve $-1 0 -29.397497401565506 10.559485607988089 1 0 0 I I #
vertex $-1 $486 $672 #
point $-1 -2.7043732591192153 -23.872645839302351 5.0195726760317738 #
edge $-1 $615 20.695993099254807 $618 26.669539960467596 $491 $673 forward 7 unknown #
vertex $-1 $505 $674 #
straight-curve $-1 11.320863469112318 -46.86487482838475 10.559485607988087 0 -1 0 I I #
edge $-1 $618 3.7766284513864044 $502 11.311841584065423 $501 $675 forward 7 unknown #
vertex $-1 $617 $676 #
straight-curve $-1 11.320863469112318 -29.397497401565488 4.5859387467753194 0 0.66913059716165679 0.74314483375859142 I I #
point $-1 11.320863469112318 -24.018891782792011 10.559485607988089 #
point $-1 18.856076601791337 -29.397497401565506 4.5859387467752999 #
straight-curve $-1 0 -29.397497401565506 10.559485607988089 1 0 0 I I #
vertex $-1 $508 $677 #
point $-1 16.088470035451827 -23.872645839302351 5.0195726760317738 #
edge $-1 $626 20.695993099254807 $629 26.669539960467596 $513 $678 forward 7 unknown #
vertex $-1 $527 $679 #
straight-curve $-1 30.113706763683361 -46.86487482838475 10.559485607988087 0 -1 0 I I #
edge $-1 $629 13.173050098671926 $524 20.708263231350944 $523 $680 forward 7 unknown #
vertex $-1 $628 $681 #
straight-curve $-1 30.113706763683361 -29.397497401565488 4.5859387467753194 0 0.66913059716165679 0.74314483375859142 I I #
point $-1 30.113706763683361 -24.018891782792011 10.559485607988089 #
point $-1 37.648919896362379 -29.397497401565506 4.5859387467752999 #
straight-curve $-1 0 -29.397497401565506 10.559485607988089 1 0 0 I I #
vertex $-1 $530 $682 #
point $-1 34.88131333002287 -23.872645839302351 5.0195726760317738 #
coedge $-1 $545 $544 $537 $637 forward $534 $-1 #
edge $-1 $638 44.627454885246053 $641 48.222671806801529 $636 $683 forward 7 unknown #
vertex $-1 $549 $684 #
straight-curve $-1 -0.48358430280250353 22.718255632918918 10.559485607988087 0 1 0 I I #
edge $-1 $641 -2.8056893736960991 $546 9.3842367266933042 $545 $685 forward 7 unknown #
vertex $-1 $640 $686 #
straight-curve $-1 -0.48358430280250353 -13.602439239821408 47.062359198786318 0 -0.7313536940579346 0.68199836817093118 I I #
point $-1 -0.48358430280250353 25.542099354835592 10.559485607988087 #
point $-1 -12.673510403191907 29.397497401565502 6.9642686864326109 #
straight-curve $-1 0 29.397497401565506 10.559485607988089 -1 0 0 I I #
vertex $-1 $552 $687 #
point $-1 -8.1906743745092214 26.004481165273823 7.1905168527352012 #
vertex $-1 $556 $688 #
point $-1 -2.9664203314851889 26.004481165273823 7.1905168527352012 #
straight-curve $-1 -43.283791619617297 29.397497401565506 0 0 0 -1 I I #
point $-1 -43.283791619617297 -29.397497401565506 -10.559485607988089 #
straight-curve $-1 -43.283791619617297 0 -10.559485607988089 0 1 0 I I #
point $-1 -43.283791619617297 29.397497401565506 -10.559485607988089 #
coedge $-1 $578 $577 $655 $689 reversed $280 $-1 #
coedge $-1 $583 $579 $654 $689 forward $426 $-1 #
vertex $-1 $580 $690 #
straight-curve $-1 0 29.397497401565506 10.559485607988089 -1 0 0 I I #
point $-1 -31.89969484328471 29.397497401565506 10.559485607988089 #
vertex $-1 $689 $691 #
straight-curve $-1 0 -29.397497401565506 10.559485607988089 1 0 0 I I #
straight-curve $-1 -43.283791619617297 -29.397497401565506 0 0 0 -1 I I #
straight-curve $-1 -43.283791619617297 29.397497401565506 0 0 0 -1 I I #
straight-curve $-1 -26.264823120029767 -29.397497401565502 31.255478707242897 0 0 -1 I I #
point $-1 -26.264823120029767 -29.397497401565506 10.559485607988089 #
straight-curve $-1 -11.248608276845129 -29.397497401565506 4.5859387467752954 1 0 0 I I #
point $-1 -26.264823120029767 -29.397497401565506 4.5859387467752999 #
point $-1 -22.497216553690258 -23.129501005543759 4.3504420788701177 #
straight-curve $-1 -7.4719798254587246 -29.397497401565502 31.255478707242897 0 0 -1 I I #
point $-1 -7.4719798254587246 -29.397497401565506 10.559485607988089 #
straight-curve $-1 -1.8521866295596077 -29.397497401565506 4.5859387467752954 1 0 0 I I #
point $-1 -7.4719798254587246 -29.397497401565506 4.5859387467752999 #
point $-1 -3.7043732591192153 -23.129501005543759 4.3504420788701177 #
straight-curve $-1 11.320863469112318 -29.397497401565502 31.255478707242897 0 0 -1 I I #
point $-1 11.320863469112318 -29.397497401565506 10.559485607988089 #
straight-curve $-1 7.5442350177259137 -29.397497401565506 4.5859387467752954 1 0 0 I I #
point $-1 11.320863469112318 -29.397497401565506 4.5859387467752999 #
point $-1 15.088470035451827 -23.129501005543759 4.3504420788701177 #
straight-curve $-1 30.113706763683361 -29.397497401565502 31.255478707242897 0 0 -1 I I #
point $-1 30.113706763683361 -29.397497401565506 10.559485607988089 #
straight-curve $-1 16.940656665011435 -29.397497401565506 4.5859387467752954 1 0 0 I I #
point $-1 30.113706763683361 -29.397497401565506 4.5859387467752999 #
point $-1 33.88131333002287 -23.129501005543759 4.3504420788701177 #
straight-curve $-1 -0.48358430280250353 29.397497401565506 55.18694049323414 0 0 -1 I I #
point $-1 -0.48358430280250353 29.397497401565506 10.559485607988089 #
straight-curve $-1 -3.2892736764986026 29.397497401565502 6.9642686864326109 -1 0 0 I I #
point $-1 -0.48358430280250353 29.397497401565502 6.9642686864326109 #
point $-1 -9.1906743745092214 25.322482797102893 6.4591631586772662 #
point $-1 -3.9664203314851889 25.322482797102893 6.4591631586772662 #
edge $-1 $656 -29.397497401565506 $659 29.397497401565506 $654 $692 forward 7 unknown #
point $-1 -43.283791619617297 29.397497401565506 10.559485607988089 #
point $-1 -43.283791619617297 -29.397497401565506 10.559485607988089 #
straight-curve $-1 -43.283791619617297 0 10.559485607988089 0 -1 0 I I #
End-of-ACIS-data 