500 0 12 0           
7 Unknown 11 ACIS 5.0 NT 24 Fri Mar 26 02:26:34 1999 
-1 9.9999999999999995e-007 1e-010 
body $-1 $12 $-1 $13 #
body $-1 $14 $-1 $15 #
body $-1 $16 $-1 $17 #
body $-1 $18 $-1 $19 #
body $-1 $20 $-1 $21 #
body $-1 $22 $-1 $23 #
body $-1 $24 $-1 $25 #
body $-1 $26 $-1 $27 #
body $-1 $28 $-1 $29 #
body $-1 $30 $-1 $31 #
body $-1 $32 $-1 $33 #
body $-1 $34 $-1 $35 #
lump $-1 $-1 $36 $0 #
transform $-1 1 0 0 0 1 0 0 0 1 73.307901242103327 37.267851438973139 10.918876533842891 1 rotate no_reflect no_shear #
lump $-1 $-1 $37 $1 #
transform $-1 1 0 0 0 1 0 0 0 1 73.307901242103327 37.267851438973139 10.918876533842891 1 rotate no_reflect no_shear #
lump $-1 $-1 $38 $2 #
transform $-1 1 0 0 0 1 0 0 0 1 73.307901242103327 37.267851438973139 10.918876533842891 1 rotate no_reflect no_shear #
lump $-1 $-1 $39 $3 #
transform $-1 1 0 0 0 1 0 0 0 1 73.307901242103327 37.267851438973139 10.918876533842891 1 rotate no_reflect no_shear #
lump $-1 $-1 $40 $4 #
transform $-1 1 0 0 0 1 0 0 0 1 73.307901242103327 37.267851438973139 10.918876533842891 1 rotate no_reflect no_shear #
lump $-1 $-1 $41 $5 #
transform $-1 1 0 0 0 1 0 0 0 1 73.307901242103327 37.267851438973139 10.918876533842891 1 rotate no_reflect no_shear #
lump $-1 $-1 $42 $6 #
transform $-1 1 0 0 0 1 0 0 0 1 73.307901242103327 37.267851438973139 10.918876533842891 1 rotate no_reflect no_shear #
lump $-1 $-1 $43 $7 #
transform $-1 1 0 0 0 1 0 0 0 1 73.307901242103327 37.267851438973139 10.918876533842891 1 rotate no_reflect no_shear #
lump $-1 $-1 $44 $8 #
transform $-1 1 0 0 0 1 0 0 0 1 73.307901242103327 37.267851438973139 10.918876533842891 1 rotate no_reflect no_shear #
lump $-1 $-1 $45 $9 #
transform $-1 1 0 0 0 1 0 0 0 1 73.307901242103327 37.267851438973139 10.918876533842891 1 rotate no_reflect no_shear #
lump $-1 $-1 $46 $10 #
transform $-1 1 0 0 0 1 0 0 0 1 73.307901242103327 37.267851438973139 10.918876533842891 1 rotate no_reflect no_shear #
lump $-1 $-1 $47 $11 #
transform $-1 1 0 0 0 1 0 0 0 1 73.307901242103327 37.267851438973139 10.918876533842891 1 rotate no_reflect no_shear #
shell $-1 $-1 $-1 $48 $-1 $12 #
shell $-1 $-1 $-1 $49 $-1 $14 #
shell $-1 $-1 $-1 $50 $-1 $16 #
shell $-1 $-1 $-1 $51 $-1 $18 #
shell $-1 $-1 $-1 $52 $-1 $20 #
shell $-1 $-1 $-1 $53 $-1 $22 #
shell $-1 $-1 $-1 $54 $-1 $24 #
shell $-1 $-1 $-1 $55 $-1 $26 #
shell $-1 $-1 $-1 $56 $-1 $28 #
shell $-1 $-1 $-1 $57 $-1 $30 #
shell $-1 $-1 $-1 $58 $-1 $32 #
shell $-1 $-1 $-1 $59 $-1 $34 #
face $-1 $60 $61 $36 $-1 $62 forward single #
face $-1 $63 $64 $37 $-1 $65 reversed single #
face $-1 $66 $67 $38 $-1 $68 reversed single #
face $-1 $69 $70 $39 $-1 $71 forward single #
face $-1 $72 $73 $40 $-1 $74 reversed single #
face $-1 $75 $76 $41 $-1 $77 forward single #
face $-1 $78 $79 $42 $-1 $80 forward single #
face $-1 $81 $82 $43 $-1 $83 forward single #
face $-1 $84 $85 $44 $-1 $86 reversed single #
face $-1 $87 $88 $45 $-1 $89 forward single #
face $-1 $90 $91 $46 $-1 $92 forward single #
face $-1 $93 $94 $47 $-1 $95 forward single #
face $-1 $96 $97 $36 $-1 $98 reversed single #
loop $-1 $-1 $99 $48 #
plane-surface $-1 0 0 10.918876533842891 0 0 1 1 0 0 forward_v I I I I #
face $-1 $100 $101 $37 $-1 $102 reversed single #
loop $-1 $-1 $103 $49 #
plane-surface $-1 -70.35626903061555 -25.774510107872246 0 0 -1 0 0 0 -1 forward_v I I I I #
face $-1 $104 $105 $38 $-1 $106 reversed single #
loop $-1 $-1 $107 $50 #
plane-surface $-1 119.95061824915385 30.108613760702184 206.18831167758958 0 -1 0 -0.84804810408105047 0 -0.52991925155115449 forward_v I I I I #
face $-1 $108 $109 $39 $-1 $110 forward single #
loop $-1 $111 $112 $51 #
cone-surface $-1 70.655355598411717 26.287150379177426 7.2004250146152469 -0.84804810408105047 0 -0.52991925155115449 0.52991925155115449 0 -0.84804810408105047 1 I I 0 1 1 forward I I I I #
face $-1 $113 $114 $40 $-1 $115 reversed single #
loop $-1 $-1 $116 $52 #
plane-surface $-1 -200.28091192374617 -17.99873853447134 79.435742333094794 0 1 0 -0.86602541151947299 0 0.49999998660252726 forward_v I I I I #
face $-1 $117 $118 $41 $-1 $119 forward single #
loop $-1 $120 $121 $53 #
cone-surface $-1 -71.457689043772362 -16.290224544761276 8.2536448446632953 0.86602541151947299 0 -0.49999998660252726 0.24999999330126363 0 0.43301270575973649 1 I I 0 1 0.5 forward I I I I #
face $-1 $122 $123 $42 $-1 $124 forward single #
loop $-1 $125 $126 $54 #
cone-surface $-1 -71.457689043772362 -13.727453560196182 8.2536448446632953 0.86602541151947299 0 -0.49999998660252726 0.24999999330126363 0 0.43301270575973649 1 I I 0 1 0.5 forward I I I I #
face $-1 $127 $128 $43 $-1 $129 forward single #
loop $-1 $130 $131 $55 #
cone-surface $-1 -71.457689043772362 -11.164682575631087 8.2536448446632953 0.86602541151947299 0 -0.49999998660252726 0.24999999330126363 0 0.43301270575973649 1 I I 0 1 0.5 forward I I I I #
face $-1 $132 $133 $44 $-1 $134 reversed single #
loop $-1 $-1 $135 $56 #
plane-surface $-1 -200.28091192374617 13.522442238951353 79.435742333094794 0 1 0 -0.86602541151947299 0 0.49999998660252726 forward_v I I I I #
face $-1 $136 $137 $45 $-1 $138 forward single #
loop $-1 $139 $140 $57 #
cone-surface $-1 -71.457689043772362 15.230956228661412 8.2536448446632953 0.86602541151947299 0 -0.49999998660252726 0.24999999330126363 0 0.43301270575973649 1 I I 0 1 0.5 forward I I I I #
face $-1 $141 $142 $46 $-1 $143 forward single #
loop $-1 $144 $145 $58 #
cone-surface $-1 -71.457689043772362 17.793727213226511 8.2536448446632953 0.86602541151947299 0 -0.49999998660252726 0.24999999330126363 0 0.43301270575973649 1 I I 0 1 0.5 forward I I I I #
face $-1 $146 $147 $47 $-1 $148 forward single #
loop $-1 $149 $150 $59 #
cone-surface $-1 -71.457689043772362 20.356498197791609 8.2536448446632953 0.86602541151947299 0 -0.49999998660252726 0.24999999330126363 0 0.43301270575973649 1 I I 0 1 0.5 forward I I I I #
face $-1 $151 $152 $36 $-1 $153 reversed single #
loop $-1 $-1 $154 $60 #
plane-surface $-1 0 0 -10.918876533842891 0 0 1 1 0 0 forward_v I I I I #
coedge $-1 $155 $156 $157 $158 forward $61 $-1 #
face $-1 $159 $160 $37 $-1 $161 forward single #
loop $-1 $-1 $162 $63 #
plane-surface $-1 -67.404636819127774 -31.521180773422692 0 -1 0 0 0 0 1 forward_v I I I I #
coedge $-1 $163 $164 $165 $166 forward $64 $-1 #
face $-1 $167 $168 $38 $-1 $169 reversed single #
loop $-1 $-1 $170 $66 #
plane-surface $-1 -4.3866350758993775 26.287150379177426 128.49377535958689 0.84804810408105047 0 0.52991925155115449 0.52991925155115449 0 -0.84804810408105047 forward_v I I I I #
coedge $-1 $171 $172 $173 $174 reversed $67 $-1 #
face $-1 $-1 $175 $39 $-1 $176 forward single #
loop $-1 $177 $178 $69 #
cone-surface $-1 69.691579869055289 26.287150379177426 6.5981911192666445 -0.84804810408105047 0 -0.52991925155115449 0.26495962577557725 0 -0.42402405204052523 1 I I -0.70710678118654746 0.70710678118654746 0.5 forward I I I I #
loop $-1 $-1 $179 $51 #
coedge $-1 $112 $112 $180 $181 reversed $70 $-1 #
face $-1 $182 $183 $40 $-1 $184 reversed single #
loop $-1 $-1 $185 $72 #
plane-surface $-1 -73.307901242103341 -13.727453560196182 6.1278430552726775 -0.86602541151947299 0 0.49999998660252726 0.49999998660252726 0 0.86602541151947299 forward_v I I I I #
coedge $-1 $186 $187 $188 $189 reversed $73 $-1 #
face $-1 $-1 $190 $41 $-1 $191 forward single #
loop $-1 $192 $193 $75 #
cone-surface $-1 -70.774022677424298 -16.290224544761276 7.8589298981181663 0.86602541151947299 0 -0.49999998660252726 0.12499999665063181 0 0.21650635287986825 1 I I -0.70710678118654746 0.70710678118654746 0.25 forward I I I I #
loop $-1 $-1 $194 $53 #
coedge $-1 $121 $121 $195 $196 reversed $76 $-1 #
face $-1 $-1 $197 $42 $-1 $198 forward single #
loop $-1 $199 $200 $78 #
cone-surface $-1 -70.774022677424298 -13.727453560196182 7.8589298981181663 0.86602541151947299 0 -0.49999998660252726 0.12499999665063181 0 0.21650635287986825 1 I I -0.70710678118654746 0.70710678118654746 0.25 forward I I I I #
loop $-1 $-1 $201 $54 #
coedge $-1 $126 $126 $202 $203 reversed $79 $-1 #
face $-1 $-1 $204 $43 $-1 $205 forward single #
loop $-1 $206 $207 $81 #
cone-surface $-1 -70.774022677424298 -11.164682575631087 7.8589298981181663 0.86602541151947299 0 -0.49999998660252726 0.12499999665063181 0 0.21650635287986825 1 I I -0.70710678118654746 0.70710678118654746 0.25 forward I I I I #
loop $-1 $-1 $208 $55 #
coedge $-1 $131 $131 $209 $210 reversed $82 $-1 #
face $-1 $211 $212 $44 $-1 $213 reversed single #
loop $-1 $-1 $214 $84 #
plane-surface $-1 -73.307901242103341 17.793727213226511 6.1278430552726775 -0.86602541151947299 0 0.49999998660252726 0.49999998660252726 0 0.86602541151947299 forward_v I I I I #
coedge $-1 $215 $216 $217 $218 reversed $85 $-1 #
face $-1 $-1 $219 $45 $-1 $220 forward single #
loop $-1 $221 $222 $87 #
cone-surface $-1 -70.774022677424298 15.230956228661412 7.8589298981181663 0.86602541151947299 0 -0.49999998660252726 0.12499999665063181 0 0.21650635287986825 1 I I -0.70710678118654746 0.70710678118654746 0.25 forward I I I I #
loop $-1 $-1 $223 $57 #
coedge $-1 $140 $140 $224 $225 reversed $88 $-1 #
face $-1 $-1 $226 $46 $-1 $227 forward single #
loop $-1 $228 $229 $90 #
cone-surface $-1 -70.774022677424298 17.793727213226511 7.8589298981181663 0.86602541151947299 0 -0.49999998660252726 0.12499999665063181 0 0.21650635287986825 1 I I -0.70710678118654746 0.70710678118654746 0.25 forward I I I I #
loop $-1 $-1 $230 $58 #
coedge $-1 $145 $145 $231 $232 reversed $91 $-1 #
face $-1 $-1 $233 $47 $-1 $234 forward single #
loop $-1 $235 $236 $93 #
cone-surface $-1 -70.774022677424298 20.356498197791609 7.8589298981181663 0.86602541151947299 0 -0.49999998660252726 0.12499999665063181 0 0.21650635287986825 1 I I -0.70710678118654746 0.70710678118654746 0.25 forward I I I I #
loop $-1 $-1 $237 $59 #
coedge $-1 $150 $150 $238 $239 reversed $94 $-1 #
face $-1 $240 $241 $36 $-1 $242 reversed single #
loop $-1 $-1 $243 $96 #
plane-surface $-1 0 -37.267851438973139 0 0 1 0 0 0 1 forward_v I I I I #
coedge $-1 $244 $245 $246 $247 forward $97 $-1 #
coedge $-1 $248 $99 $249 $250 forward $61 $-1 #
coedge $-1 $99 $248 $251 $252 forward $61 $-1 #
coedge $-1 $253 $254 $99 $158 reversed $255 $-1 #
edge $-1 $256 -37.267851438973139 $257 37.267851438973139 $157 $258 forward 7 unknown #
face $-1 $259 $260 $37 $-1 $261 reversed single #
loop $-1 $-1 $262 $100 #
plane-surface $-1 0 0 10.918876533842891 0 0 1 1 0 0 forward_v I I I I #
coedge $-1 $263 $264 $265 $266 reversed $101 $-1 #
coedge $-1 $267 $103 $268 $269 reversed $64 $-1 #
coedge $-1 $103 $267 $270 $271 reversed $64 $-1 #
coedge $-1 $264 $263 $103 $166 reversed $101 $-1 #
edge $-1 $272 -10.918876533842891 $273 10.918876533842891 $165 $274 forward 7 unknown #
face $-1 $275 $276 $38 $-1 $277 reversed single #
loop $-1 $-1 $278 $104 #
plane-surface $-1 119.95061824915385 22.465686997652668 206.18831167758958 0 1 0 0.84804810408105047 0 0.52991925155115449 forward_v I I I I #
coedge $-1 $279 $280 $281 $282 reversed $105 $-1 #
coedge $-1 $172 $107 $283 $284 reversed $67 $-1 #
coedge $-1 $107 $171 $279 $285 reversed $67 $-1 #
coedge $-1 $281 $286 $107 $174 forward $287 $-1 #
edge $-1 $288 -13.332592117526403 $289 -9.1070041847750502 $173 $290 forward 7 unknown #
loop $-1 $-1 $180 $108 #
plane-surface $-1 -4.3866350758993775 26.287150379177426 128.49377535958689 0.84804810408105047 0 0.52991925155115449 0.52991925155115449 0 -0.84804810408105047 forward_v I I I I #
loop $-1 $-1 $291 $69 #
coedge $-1 $178 $178 $179 $292 reversed $109 $-1 #
coedge $-1 $179 $179 $178 $292 forward $111 $-1 #
coedge $-1 $180 $180 $112 $181 forward $175 $-1 #
edge $-1 $293 0 $293 6.2831853071796004 $180 $294 forward 7 unknown #
face $-1 $295 $296 $40 $-1 $297 reversed single #
loop $-1 $-1 $298 $113 #
plane-surface $-1 -200.28091192374617 -9.4561685859210236 79.435742333094794 0 -1 0 0.86602541151947299 0 -0.49999998660252726 forward_v I I I I #
coedge $-1 $299 $300 $301 $302 reversed $114 $-1 #
coedge $-1 $187 $116 $303 $304 reversed $73 $-1 #
coedge $-1 $116 $186 $299 $305 reversed $73 $-1 #
coedge $-1 $301 $306 $116 $189 forward $307 $-1 #
edge $-1 $308 26.83255471976976 $309 29.598659089495271 $188 $310 forward 7 unknown #
loop $-1 $-1 $195 $117 #
plane-surface $-1 -73.307901242103341 -13.727453560196182 6.1278430552726775 -0.86602541151947299 0 0.49999998660252726 0.49999998660252726 0 0.86602541151947299 forward_v I I I I #
loop $-1 $-1 $311 $75 #
coedge $-1 $193 $193 $194 $312 reversed $118 $-1 #
coedge $-1 $194 $194 $193 $312 forward $120 $-1 #
coedge $-1 $195 $195 $121 $196 forward $190 $-1 #
edge $-1 $313 0 $313 6.2831853071796004 $195 $314 forward 7 unknown #
loop $-1 $-1 $202 $122 #
plane-surface $-1 -73.307901242103341 -13.727453560196182 6.1278430552726775 -0.86602541151947299 0 0.49999998660252726 0.49999998660252726 0 0.86602541151947299 forward_v I I I I #
loop $-1 $-1 $315 $78 #
coedge $-1 $200 $200 $201 $316 reversed $123 $-1 #
coedge $-1 $201 $201 $200 $316 forward $125 $-1 #
coedge $-1 $202 $202 $126 $203 forward $197 $-1 #
edge $-1 $317 0 $317 6.2831853071796004 $202 $318 forward 7 unknown #
loop $-1 $-1 $209 $127 #
plane-surface $-1 -73.307901242103341 -13.727453560196182 6.1278430552726775 -0.86602541151947299 0 0.49999998660252726 0.49999998660252726 0 0.86602541151947299 forward_v I I I I #
loop $-1 $-1 $319 $81 #
coedge $-1 $207 $207 $208 $320 reversed $128 $-1 #
coedge $-1 $208 $208 $207 $320 forward $130 $-1 #
coedge $-1 $209 $209 $131 $210 forward $204 $-1 #
edge $-1 $321 0 $321 6.2831853071796004 $209 $322 forward 7 unknown #
face $-1 $323 $324 $44 $-1 $325 forward single #
loop $-1 $-1 $326 $132 #
plane-surface $-1 -200.28091192374617 22.065012187501669 79.435742333094794 0 -1 0 0.86602541151947299 0 -0.49999998660252726 forward_v I I I I #
coedge $-1 $327 $328 $329 $330 reversed $133 $-1 #
coedge $-1 $216 $135 $331 $332 reversed $85 $-1 #
coedge $-1 $135 $215 $327 $333 reversed $85 $-1 #
coedge $-1 $329 $334 $135 $218 forward $324 $-1 #
edge $-1 $335 26.83255471976976 $336 29.598659089495271 $217 $337 forward 7 unknown #
loop $-1 $-1 $224 $136 #
plane-surface $-1 -73.307901242103341 17.793727213226511 6.1278430552726775 -0.86602541151947299 0 0.49999998660252726 0.49999998660252726 0 0.86602541151947299 forward_v I I I I #
loop $-1 $-1 $338 $87 #
coedge $-1 $222 $222 $223 $339 reversed $137 $-1 #
coedge $-1 $223 $223 $222 $339 forward $139 $-1 #
coedge $-1 $224 $224 $140 $225 forward $219 $-1 #
edge $-1 $340 0 $340 6.2831853071796004 $224 $341 forward 7 unknown #
loop $-1 $-1 $231 $141 #
plane-surface $-1 -73.307901242103341 17.793727213226511 6.1278430552726775 -0.86602541151947299 0 0.49999998660252726 0.49999998660252726 0 0.86602541151947299 forward_v I I I I #
loop $-1 $-1 $342 $90 #
coedge $-1 $229 $229 $230 $343 reversed $142 $-1 #
coedge $-1 $230 $230 $229 $343 forward $144 $-1 #
coedge $-1 $231 $231 $145 $232 forward $226 $-1 #
edge $-1 $344 0 $344 6.2831853071796004 $231 $345 forward 7 unknown #
loop $-1 $-1 $238 $146 #
plane-surface $-1 -73.307901242103341 17.793727213226511 6.1278430552726775 -0.86602541151947299 0 0.49999998660252726 0.49999998660252726 0 0.86602541151947299 forward_v I I I I #
loop $-1 $-1 $346 $93 #
coedge $-1 $236 $236 $237 $347 reversed $147 $-1 #
coedge $-1 $237 $237 $236 $347 forward $149 $-1 #
coedge $-1 $238 $238 $150 $239 forward $233 $-1 #
edge $-1 $348 0 $348 6.2831853071796004 $238 $349 forward 7 unknown #
face $-1 $350 $351 $36 $-1 $352 reversed single #
loop $-1 $-1 $353 $151 #
plane-surface $-1 -73.307901242103327 0 0 1 0 0 0 0 -1 forward_v I I I I #
coedge $-1 $354 $251 $355 $356 forward $152 $-1 #
coedge $-1 $357 $154 $354 $358 forward $97 $-1 #
coedge $-1 $154 $357 $359 $360 forward $97 $-1 #
coedge $-1 $254 $253 $154 $247 reversed $255 $-1 #
edge $-1 $361 -37.267851438973139 $362 37.267851438973139 $246 $363 forward 7 unknown #
coedge $-1 $156 $155 $364 $365 forward $61 $-1 #
coedge $-1 $366 $367 $155 $250 reversed $351 $-1 #
edge $-1 $257 -73.307901242103327 $368 73.307901242103327 $249 $369 forward 7 unknown #
coedge $-1 $243 $370 $156 $252 reversed $152 $-1 #
edge $-1 $371 -73.307901242103327 $256 73.307901242103327 $251 $372 forward 7 unknown #
coedge $-1 $246 $157 $370 $373 forward $255 $-1 #
coedge $-1 $157 $246 $366 $374 reversed $255 $-1 #
loop $-1 $-1 $253 $350 #
vertex $-1 $158 $375 #
vertex $-1 $158 $376 #
straight-curve $-1 73.307901242103327 0 10.918876533842891 0 1 0 I I #
face $-1 $377 $378 $37 $-1 $379 reversed single #
loop $-1 $-1 $380 $159 #
plane-surface $-1 -73.307901242103327 0 0 1 0 0 0 0 -1 forward_v I I I I #
coedge $-1 $270 $381 $264 $382 forward $160 $-1 #
coedge $-1 $165 $162 $383 $384 reversed $101 $-1 #
coedge $-1 $162 $165 $262 $382 reversed $101 $-1 #
coedge $-1 $385 $386 $162 $266 forward $387 $-1 #
edge $-1 $388 -10.918876533842891 $389 10.918876533842891 $265 $390 forward 7 unknown #
coedge $-1 $164 $163 $380 $391 reversed $64 $-1 #
coedge $-1 $383 $392 $163 $269 forward $378 $-1 #
edge $-1 $393 -38.129766726795552 $273 -32.226502303819998 $268 $394 forward 7 unknown #
coedge $-1 $395 $262 $164 $271 forward $160 $-1 #
edge $-1 $272 32.226502303819998 $396 38.129766726795552 $270 $397 forward 7 unknown #
vertex $-1 $271 $398 #
vertex $-1 $269 $399 #
straight-curve $-1 -67.404636819127774 -25.774510107872246 0 0 0 -1 I I #
face $-1 $-1 $287 $38 $-1 $400 forward single #
loop $-1 $-1 $401 $167 #
plane-surface $-1 73.307901242103327 0 0 -1 0 0 0 0 1 forward_v I I I I #
coedge $-1 $402 $403 $404 $405 reversed $168 $-1 #
coedge $-1 $406 $170 $172 $285 forward $105 $-1 #
coedge $-1 $170 $406 $402 $407 forward $105 $-1 #
coedge $-1 $404 $173 $170 $282 forward $287 $-1 #
edge $-1 $289 -16.965038571113471 $408 -9.3221118080639549 $281 $409 forward 7 unknown #
coedge $-1 $410 $411 $171 $284 forward $276 $-1 #
edge $-1 $412 -98.937633804261139 $288 -92.1752793049519 $283 $413 forward 7 unknown #
edge $-1 $289 138.64178017725632 $412 146.61580248420665 $172 $414 forward 7 unknown #
coedge $-1 $173 $404 $410 $415 forward $287 $-1 #
loop $-1 $-1 $404 $275 #
vertex $-1 $284 $416 #
vertex $-1 $174 $417 #
straight-curve $-1 59.975309124576924 30.108613760702184 10.918876533842891 -1 0 0 I I #
coedge $-1 $291 $291 $-1 $418 reversed $177 $-1 #
edge $-1 $419 0 $419 6.2831853071796004 $178 $420 forward 7 unknown #
vertex $-1 $181 $421 #
ellipse-curve $-1 71.195107275727651 26.287150379177426 7.5376992841882853 0.84804810408105047 0 0.52991925155115449 0.52991925155115449 0 -0.84804810408105047 1 I I #
face $-1 $-1 $307 $40 $-1 $422 forward single #
loop $-1 $-1 $423 $182 #
plane-surface $-1 -73.307901242103327 0 0 1 0 0 0 0 -1 forward_v I I I I #
coedge $-1 $424 $425 $426 $427 reversed $183 $-1 #
coedge $-1 $428 $185 $187 $305 forward $114 $-1 #
coedge $-1 $185 $428 $424 $429 forward $114 $-1 #
coedge $-1 $426 $188 $185 $302 forward $307 $-1 #
edge $-1 $309 -11.135011754373249 $430 -2.5924418058229328 $301 $431 forward 7 unknown #
coedge $-1 $432 $433 $186 $304 forward $296 $-1 #
edge $-1 $434 -33.590028111274691 $308 -28.798994632704506 $303 $435 forward 7 unknown #
edge $-1 $309 -5.5322088876862958 $434 -2.8642609447069912e-014 $187 $436 forward 7 unknown #
coedge $-1 $188 $426 $432 $437 forward $307 $-1 #
loop $-1 $-1 $426 $295 #
vertex $-1 $304 $438 #
vertex $-1 $189 $439 #
straight-curve $-1 -100.14045596187309 -17.99873853447134 10.918876533842891 1 0 0 I I #
coedge $-1 $311 $311 $-1 $440 reversed $192 $-1 #
edge $-1 $441 0 $441 6.2831853071796004 $193 $442 forward 7 unknown #
vertex $-1 $196 $443 #
ellipse-curve $-1 -71.924849057240564 -16.290224544761276 8.5233597945577966 -0.86602541151947299 0 0.49999998660252726 0.24999999330126363 0 0.43301270575973649 1 I I #
coedge $-1 $315 $315 $-1 $444 reversed $199 $-1 #
edge $-1 $445 0 $445 6.2831853071796004 $200 $446 forward 7 unknown #
vertex $-1 $203 $447 #
ellipse-curve $-1 -71.924849057240564 -13.727453560196182 8.5233597945577966 -0.86602541151947299 0 0.49999998660252726 0.24999999330126363 0 0.43301270575973649 1 I I #
coedge $-1 $319 $319 $-1 $448 reversed $206 $-1 #
edge $-1 $449 0 $449 6.2831853071796004 $207 $450 forward 7 unknown #
vertex $-1 $210 $451 #
ellipse-curve $-1 -71.924849057240564 -11.164682575631087 8.5233597945577966 -0.86602541151947299 0 0.49999998660252726 0.24999999330126363 0 0.43301270575973649 1 I I #
face $-1 $-1 $452 $44 $-1 $453 reversed single #
loop $-1 $-1 $217 $211 #
plane-surface $-1 0 0 10.918876533842891 0 0 1 1 0 0 forward_v I I I I #
coedge $-1 $454 $455 $456 $457 reversed $212 $-1 #
coedge $-1 $458 $214 $216 $333 forward $133 $-1 #
coedge $-1 $214 $458 $454 $459 forward $133 $-1 #
coedge $-1 $456 $217 $214 $330 forward $324 $-1 #
edge $-1 $336 4.6255786323380974 $460 13.168148580888413 $329 $461 forward 7 unknown #
coedge $-1 $462 $463 $215 $332 forward $452 $-1 #
edge $-1 $464 -33.590028111274691 $335 -28.798994632704506 $331 $465 forward 7 unknown #
edge $-1 $336 -5.5322088876862958 $464 -2.8642609447069912e-014 $216 $466 forward 7 unknown #
coedge $-1 $217 $456 $462 $467 forward $324 $-1 #
vertex $-1 $332 $468 #
vertex $-1 $218 $469 #
straight-curve $-1 -100.14045596187309 13.522442238951353 10.918876533842891 1 0 0 I I #
coedge $-1 $338 $338 $-1 $470 reversed $221 $-1 #
edge $-1 $471 0 $471 6.2831853071796004 $222 $472 forward 7 unknown #
vertex $-1 $225 $473 #
ellipse-curve $-1 -71.924849057240564 15.230956228661412 8.5233597945577966 -0.86602541151947299 0 0.49999998660252726 0.24999999330126363 0 0.43301270575973649 1 I I #
coedge $-1 $342 $342 $-1 $474 reversed $228 $-1 #
edge $-1 $475 0 $475 6.2831853071796004 $229 $476 forward 7 unknown #
vertex $-1 $232 $477 #
ellipse-curve $-1 -71.924849057240564 17.793727213226511 8.5233597945577966 -0.86602541151947299 0 0.49999998660252726 0.24999999330126363 0 0.43301270575973649 1 I I #
coedge $-1 $346 $346 $-1 $478 reversed $235 $-1 #
edge $-1 $479 0 $479 6.2831853071796004 $236 $480 forward 7 unknown #
vertex $-1 $239 $481 #
ellipse-curve $-1 -71.924849057240564 20.356498197791609 8.5233597945577966 -0.86602541151947299 0 0.49999998660252726 0.24999999330126363 0 0.43301270575973649 1 I I #
face $-1 $-1 $255 $36 $-1 $482 reversed single #
loop $-1 $-1 $366 $240 #
plane-surface $-1 0 37.267851438973139 0 0 -1 0 0 0 -1 forward_v I I I I #
coedge $-1 $483 $364 $367 $484 forward $241 $-1 #
coedge $-1 $370 $243 $244 $358 reversed $152 $-1 #
coedge $-1 $364 $483 $243 $356 reversed $241 $-1 #
edge $-1 $371 -10.918876533842891 $485 10.918876533842891 $355 $486 forward 7 unknown #
coedge $-1 $245 $244 $483 $487 forward $97 $-1 #
edge $-1 $362 -73.307901242103327 $485 73.307901242103327 $354 $488 forward 7 unknown #
coedge $-1 $367 $366 $245 $360 reversed $351 $-1 #
edge $-1 $489 -73.307901242103327 $361 73.307901242103327 $359 $490 forward 7 unknown #
vertex $-1 $247 $491 #
vertex $-1 $373 $492 #
straight-curve $-1 73.307901242103327 0 -10.918876533842891 0 -1 0 I I #
coedge $-1 $353 $355 $248 $365 reversed $241 $-1 #
edge $-1 $368 -37.267851438973139 $371 37.267851438973139 $364 $493 forward 7 unknown #
coedge $-1 $359 $249 $254 $374 forward $351 $-1 #
coedge $-1 $249 $359 $353 $484 reversed $351 $-1 #
vertex $-1 $250 $494 #
straight-curve $-1 0 37.267851438973139 10.918876533842891 -1 0 0 I I #
coedge $-1 $251 $354 $253 $373 reversed $152 $-1 #
vertex $-1 $365 $495 #
straight-curve $-1 0 -37.267851438973139 10.918876533842891 1 0 0 I I #
edge $-1 $256 -10.918876533842891 $362 10.918876533842891 $253 $496 forward 7 unknown #
edge $-1 $257 -10.918876533842891 $361 10.918876533842891 $254 $497 forward 7 unknown #
point $-1 73.307901242103327 -37.267851438973139 10.918876533842891 #
point $-1 73.307901242103327 37.267851438973139 10.918876533842891 #
face $-1 $-1 $387 $37 $-1 $498 reversed single #
loop $-1 $-1 $383 $259 #
plane-surface $-1 0 0 -10.918876533842891 0 0 1 1 0 0 forward_v I I I I #
coedge $-1 $499 $500 $267 $391 forward $260 $-1 #
coedge $-1 $262 $395 $385 $501 forward $160 $-1 #
edge $-1 $389 -21.507261052261793 $272 -10.013919721160899 $262 $502 forward 7 unknown #
coedge $-1 $503 $268 $263 $384 forward $378 $-1 #
edge $-1 $273 10.013919721160899 $388 21.507261052261793 $383 $504 forward 7 unknown #
coedge $-1 $505 $265 $381 $501 reversed $387 $-1 #
coedge $-1 $265 $505 $503 $506 reversed $387 $-1 #
loop $-1 $-1 $265 $377 #
vertex $-1 $506 $507 #
vertex $-1 $266 $508 #
straight-curve $-1 -67.404636819127774 -37.267851438973139 0 0 0 1 I I #
edge $-1 $396 -10.918876533842891 $393 10.918876533842891 $380 $509 forward 7 unknown #
coedge $-1 $268 $503 $499 $510 forward $378 $-1 #
vertex $-1 $269 $511 #
straight-curve $-1 -35.178134515307775 -25.774510107872246 -10.918876533842891 1 0 0 I I #
coedge $-1 $381 $270 $500 $512 forward $160 $-1 #
vertex $-1 $512 $513 #
straight-curve $-1 -35.178134515307775 -25.774510107872246 10.918876533842891 -1 0 0 I I #
point $-1 -67.404636819127774 -25.774510107872246 10.918876533842891 #
point $-1 -67.404636819127774 -25.774510107872246 -10.918876533842891 #
plane-surface $-1 0 0 10.918876533842891 0 0 1 1 0 0 forward_v I I I I #
coedge $-1 $411 $410 $403 $514 forward $276 $-1 #
coedge $-1 $403 $278 $280 $407 reversed $168 $-1 #
coedge $-1 $278 $402 $401 $514 reversed $168 $-1 #
coedge $-1 $286 $281 $278 $405 forward $287 $-1 #
edge $-1 $408 9.1070041847750502 $515 13.332592117526403 $404 $516 forward 7 unknown #
coedge $-1 $280 $279 $411 $517 reversed $105 $-1 #
edge $-1 $518 -146.61580248420665 $408 -138.64178017725632 $402 $519 forward 7 unknown #
vertex $-1 $282 $520 #
straight-curve $-1 69.082313309351989 13.143575189588713 10.918876533842891 0 -1 0 I I #
coedge $-1 $401 $283 $286 $415 reversed $276 $-1 #
coedge $-1 $283 $401 $406 $517 forward $276 $-1 #
vertex $-1 $284 $521 #
straight-curve $-1 73.307901242103327 30.108613760702184 103.09415583879479 0 0 1 I I #
straight-curve $-1 -4.3866350758993775 30.108613760702184 128.49377535958689 0.52991925155115449 0 -0.84804810408105047 I I #
edge $-1 $515 22.465686997652668 $288 30.108613760702184 $410 $522 forward 7 unknown #
point $-1 73.307901242103327 30.108613760702184 10.918876533842891 #
point $-1 69.082313309351974 30.108613760702184 10.918876533842905 #
edge $-1 $523 1 $523 0 $291 $-1 forward 7 unknown #
vertex $-1 $292 $524 #
ellipse-curve $-1 70.115603921095811 26.287150379177426 6.8631507450422218 0.84804810408105047 0 0.52991925155115449 0.52991925155115449 0 -0.84804810408105047 1 I I #
point $-1 71.725026527278786 26.287150379177426 6.689651180107222 #
plane-surface $-1 0 0 10.918876533842891 0 0 1 1 0 0 forward_v I I I I #
coedge $-1 $433 $432 $425 $525 forward $296 $-1 #
coedge $-1 $425 $298 $300 $429 reversed $183 $-1 #
coedge $-1 $298 $424 $423 $525 reversed $183 $-1 #
coedge $-1 $306 $301 $298 $427 forward $307 $-1 #
edge $-1 $430 -29.598659089495271 $526 -26.83255471976976 $426 $527 forward 7 unknown #
coedge $-1 $300 $299 $433 $528 reversed $114 $-1 #
edge $-1 $529 2.8642609447069912e-014 $430 5.5322088876862958 $424 $530 forward 7 unknown #
vertex $-1 $302 $531 #
straight-curve $-1 -70.541796872377802 -6.8637267800980908 10.918876533842891 0 1 0 I I #
coedge $-1 $423 $303 $306 $437 reversed $296 $-1 #
coedge $-1 $303 $423 $428 $528 forward $296 $-1 #
vertex $-1 $304 $532 #
straight-curve $-1 -73.307901242103327 -17.99873853447134 39.717871166547397 0 0 1 I I #
straight-curve $-1 -73.307901242103341 -17.99873853447134 6.1278430552726775 -0.49999998660252726 0 -0.86602541151947299 I I #
edge $-1 $526 9.4561685859210236 $308 17.99873853447134 $432 $533 forward 7 unknown #
point $-1 -73.307901242103327 -17.99873853447134 10.918876533842891 #
point $-1 -70.541796872377816 -17.99873853447134 10.918876533842891 #
edge $-1 $534 1 $534 0 $311 $-1 forward 7 unknown #
vertex $-1 $312 $535 #
ellipse-curve $-1 -70.99052903030416 -16.290224544761276 7.9839298947687984 -0.86602541151947299 0 0.49999998660252726 0.24999999330126363 0 0.43301270575973649 1 I I #
point $-1 -71.674849063939305 -16.290224544761276 8.9563725003175279 #
edge $-1 $536 1 $536 0 $315 $-1 forward 7 unknown #
vertex $-1 $316 $537 #
ellipse-curve $-1 -70.99052903030416 -13.727453560196182 7.9839298947687984 -0.86602541151947299 0 0.49999998660252726 0.24999999330126363 0 0.43301270575973649 1 I I #
point $-1 -71.674849063939305 -13.727453560196182 8.9563725003175279 #
edge $-1 $538 1 $538 0 $319 $-1 forward 7 unknown #
vertex $-1 $320 $539 #
ellipse-curve $-1 -70.99052903030416 -11.164682575631087 7.9839298947687984 -0.86602541151947299 0 0.49999998660252726 0.24999999330126363 0 0.43301270575973649 1 I I #
point $-1 -71.674849063939305 -11.164682575631087 8.9563725003175279 #
loop $-1 $-1 $331 $323 #
plane-surface $-1 -73.307901242103327 0 0 1 0 0 0 0 -1 forward_v I I I I #
coedge $-1 $455 $326 $328 $459 reversed $212 $-1 #
coedge $-1 $326 $454 $540 $541 reversed $212 $-1 #
coedge $-1 $334 $329 $326 $457 forward $324 $-1 #
edge $-1 $460 -29.598659089495271 $542 -26.83255471976976 $456 $543 forward 7 unknown #
coedge $-1 $328 $327 $463 $544 reversed $133 $-1 #
edge $-1 $545 2.8642609447069912e-014 $460 5.5322088876862958 $454 $546 forward 7 unknown #
vertex $-1 $330 $547 #
straight-curve $-1 -70.541796872377802 8.8968636066132554 10.918876533842891 0 1 0 I I #
coedge $-1 $540 $331 $334 $467 reversed $452 $-1 #
coedge $-1 $331 $540 $458 $544 forward $452 $-1 #
vertex $-1 $332 $548 #
straight-curve $-1 -73.307901242103327 13.522442238951353 39.717871166547397 0 0 1 I I #
straight-curve $-1 -73.307901242103341 13.522442238951353 6.1278430552726775 -0.49999998660252726 0 -0.86602541151947299 I I #
edge $-1 $542 -22.065012187501669 $335 -13.522442238951353 $462 $549 forward 7 unknown #
point $-1 -73.307901242103327 13.522442238951353 10.918876533842891 #
point $-1 -70.541796872377816 13.522442238951353 10.918876533842891 #
edge $-1 $550 1 $550 0 $338 $-1 forward 7 unknown #
vertex $-1 $339 $551 #
ellipse-curve $-1 -70.99052903030416 15.230956228661412 7.9839298947687984 -0.86602541151947299 0 0.49999998660252726 0.24999999330126363 0 0.43301270575973649 1 I I #
point $-1 -71.674849063939305 15.230956228661412 8.9563725003175279 #
edge $-1 $552 1 $552 0 $342 $-1 forward 7 unknown #
vertex $-1 $343 $553 #
ellipse-curve $-1 -70.99052903030416 17.793727213226511 7.9839298947687984 -0.86602541151947299 0 0.49999998660252726 0.24999999330126363 0 0.43301270575973649 1 I I #
point $-1 -71.674849063939305 17.793727213226511 8.9563725003175279 #
edge $-1 $554 1 $554 0 $346 $-1 forward 7 unknown #
vertex $-1 $347 $555 #
ellipse-curve $-1 -70.99052903030416 20.356498197791609 7.9839298947687984 -0.86602541151947299 0 0.49999998660252726 0.24999999330126363 0 0.43301270575973649 1 I I #
point $-1 -71.674849063939305 20.356498197791609 8.9563725003175279 #
plane-surface $-1 73.307901242103327 0 0 -1 0 0 0 0 1 forward_v I I I I #
coedge $-1 $355 $353 $357 $487 reversed $241 $-1 #
edge $-1 $368 -10.918876533842891 $489 10.918876533842891 $367 $556 forward 7 unknown #
vertex $-1 $487 $557 #
straight-curve $-1 -73.307901242103327 -37.267851438973139 0 0 0 -1 I I #
edge $-1 $485 -37.267851438973139 $489 37.267851438973139 $483 $558 forward 7 unknown #
straight-curve $-1 0 -37.267851438973139 -10.918876533842891 -1 0 0 I I #
vertex $-1 $360 $559 #
straight-curve $-1 0 37.267851438973139 -10.918876533842891 1 0 0 I I #
point $-1 73.307901242103327 37.267851438973139 -10.918876533842891 #
point $-1 73.307901242103327 -37.267851438973139 -10.918876533842891 #
straight-curve $-1 -73.307901242103327 0 10.918876533842891 0 -1 0 I I #
point $-1 -73.307901242103327 37.267851438973139 10.918876533842891 #
point $-1 -73.307901242103327 -37.267851438973139 10.918876533842891 #
straight-curve $-1 73.307901242103327 -37.267851438973139 0 0 0 -1 I I #
straight-curve $-1 73.307901242103327 37.267851438973139 0 0 0 -1 I I #
plane-surface $-1 0 -37.267851438973139 0 0 1 0 0 0 1 forward_v I I I I #
coedge $-1 $560 $380 $392 $510 reversed $260 $-1 #
coedge $-1 $380 $560 $395 $512 reversed $260 $-1 #
edge $-1 $561 -73.307901242103327 $389 -67.404636819127774 $385 $562 forward 7 unknown #
straight-curve $-1 -67.404636819127774 -15.760590386711346 10.918876533842891 0 1 0 I I #
coedge $-1 $392 $383 $386 $506 forward $378 $-1 #
straight-curve $-1 -67.404636819127774 -15.760590386711346 -10.918876533842891 0 -1 0 I I #
coedge $-1 $386 $385 $560 $563 forward $387 $-1 #
edge $-1 $388 67.404636819127774 $564 73.307901242103327 $386 $565 forward 7 unknown #
point $-1 -67.404636819127774 -37.267851438973139 -10.918876533842891 #
point $-1 -67.404636819127774 -37.267851438973139 10.918876533842891 #
straight-curve $-1 -73.307901242103327 -25.774510107872246 0 0 0 -1 I I #
edge $-1 $564 -37.267851438973139 $393 -25.774510107872246 $499 $566 forward 7 unknown #
point $-1 -73.307901242103327 -25.774510107872246 -10.918876533842891 #
edge $-1 $396 25.774510107872246 $561 37.267851438973139 $500 $567 forward 7 unknown #
point $-1 -73.307901242103327 -25.774510107872246 10.918876533842891 #
edge $-1 $515 92.1752793049519 $518 98.937633804261139 $401 $568 forward 7 unknown #
vertex $-1 $415 $569 #
straight-curve $-1 59.975309124576924 22.465686997652668 10.918876533842891 1 0 0 I I #
edge $-1 $518 9.3221118080639549 $412 16.965038571113471 $411 $570 forward 7 unknown #
vertex $-1 $517 $571 #
straight-curve $-1 -4.3866350758993775 22.465686997652668 128.49377535958689 -0.52991925155115449 0 0.84804810408105047 I I #
point $-1 69.082313309351974 22.465686997652668 10.918876533842905 #
point $-1 73.307901242103327 30.108613760702184 4.1565220345336513 #
straight-curve $-1 73.307901242103327 0 10.918876533842891 0 1 0 I I #
vertex $-1 $418 $572 #
point $-1 70.645523172646975 26.287150379177426 6.015102640961171 #
edge $-1 $526 28.798994632704506 $529 33.590028111274691 $423 $573 forward 7 unknown #
vertex $-1 $437 $574 #
straight-curve $-1 -100.14045596187309 -9.4561685859210236 10.918876533842891 -1 0 0 I I #
edge $-1 $529 2.5924418058229328 $434 11.135011754373249 $433 $575 forward 7 unknown #
vertex $-1 $528 $576 #
straight-curve $-1 -73.307901242103341 -9.4561685859210236 6.1278430552726775 0.49999998660252726 0 0.86602541151947299 I I #
point $-1 -70.541796872377816 -9.4561685859210236 10.918876533842891 #
point $-1 -73.307901242103327 -17.99873853447134 6.1278430552727023 #
straight-curve $-1 -73.307901242103327 0 10.918876533842891 0 -1 0 I I #
vertex $-1 $440 $577 #
point $-1 -70.740529037002901 -16.290224544761276 8.4169426005285342 #
vertex $-1 $444 $578 #
point $-1 -70.740529037002901 -13.727453560196182 8.4169426005285342 #
vertex $-1 $448 $579 #
point $-1 -70.740529037002901 -11.164682575631087 8.4169426005285342 #
coedge $-1 $463 $462 $455 $541 forward $452 $-1 #
edge $-1 $542 28.798994632704506 $545 33.590028111274691 $540 $580 forward 7 unknown #
vertex $-1 $467 $581 #
straight-curve $-1 -100.14045596187309 22.065012187501669 10.918876533842891 -1 0 0 I I #
edge $-1 $545 -13.168148580888413 $464 -4.6255786323380974 $463 $582 forward 7 unknown #
vertex $-1 $544 $583 #
straight-curve $-1 -73.307901242103341 22.065012187501669 6.1278430552726775 0.49999998660252726 0 0.86602541151947299 I I #
point $-1 -70.541796872377816 22.065012187501669 10.918876533842891 #
point $-1 -73.307901242103327 13.522442238951353 6.1278430552727023 #
straight-curve $-1 -73.307901242103327 0 10.918876533842891 0 -1 0 I I #
vertex $-1 $470 $584 #
point $-1 -70.740529037002901 15.230956228661412 8.4169426005285342 #
vertex $-1 $474 $585 #
point $-1 -70.740529037002901 17.793727213226511 8.4169426005285342 #
vertex $-1 $478 $586 #
point $-1 -70.740529037002901 20.356498197791609 8.4169426005285342 #
straight-curve $-1 -73.307901242103327 37.267851438973139 0 0 0 -1 I I #
point $-1 -73.307901242103327 -37.267851438973139 -10.918876533842891 #
straight-curve $-1 -73.307901242103327 0 -10.918876533842891 0 1 0 I I #
point $-1 -73.307901242103327 37.267851438973139 -10.918876533842891 #
coedge $-1 $500 $499 $505 $563 reversed $260 $-1 #
vertex $-1 $512 $587 #
straight-curve $-1 0 -37.267851438973139 10.918876533842891 1 0 0 I I #
edge $-1 $561 -10.918876533842891 $564 10.918876533842891 $560 $588 forward 7 unknown #
vertex $-1 $510 $589 #
straight-curve $-1 0 -37.267851438973139 -10.918876533842891 -1 0 0 I I #
straight-curve $-1 -73.307901242103327 0 -10.918876533842891 0 1 0 I I #
straight-curve $-1 -73.307901242103327 0 10.918876533842891 0 -1 0 I I #
straight-curve $-1 73.307901242103327 22.465686997652668 103.09415583879479 0 0 -1 I I #
point $-1 73.307901242103327 22.465686997652668 10.918876533842891 #
straight-curve $-1 73.307901242103327 13.143575189588713 4.15652203453363 0 1 0 I I #
point $-1 73.307901242103327 22.465686997652668 4.1565220345336513 #
point $-1 69.267555817014767 26.287150379177426 6.3332314934910672 #
straight-curve $-1 -73.307901242103327 -9.4561685859210236 39.717871166547397 0 0 -1 I I #
point $-1 -73.307901242103327 -9.4561685859210236 10.918876533842891 #
straight-curve $-1 -73.307901242103327 -6.8637267800980908 6.1278430552726846 0 -1 0 I I #
point $-1 -73.307901242103327 -9.4561685859210236 6.1278430552727023 #
point $-1 -70.557516324544437 -16.290224544761276 7.7339299014675342 #
point $-1 -70.557516324544437 -13.727453560196182 7.7339299014675342 #
point $-1 -70.557516324544437 -11.164682575631087 7.7339299014675342 #
straight-curve $-1 -73.307901242103327 22.065012187501669 39.717871166547397 0 0 -1 I I #
point $-1 -73.307901242103327 22.065012187501669 10.918876533842891 #
straight-curve $-1 -73.307901242103327 8.8968636066132554 6.1278430552726846 0 -1 0 I I #
point $-1 -73.307901242103327 22.065012187501669 6.1278430552727023 #
point $-1 -70.557516324544437 15.230956228661412 7.7339299014675342 #
point $-1 -70.557516324544437 17.793727213226511 7.7339299014675342 #
point $-1 -70.557516324544437 20.356498197791609 7.7339299014675342 #
point $-1 -73.307901242103327 -37.267851438973139 10.918876533842891 #
straight-curve $-1 -73.307901242103327 -37.267851438973139 0 0 0 -1 I I #
point $-1 -73.307901242103327 -37.267851438973139 -10.918876533842891 #
End-of-ACIS-data 