500 0 10 0           
7 Unknown 11 ACIS 5.0 NT 24 Thu Mar 25 19:15:21 1999 
-1 9.9999999999999995e-007 1e-010 
body $-1 $10 $-1 $11 #
body $-1 $12 $-1 $13 #
body $-1 $14 $-1 $15 #
body $-1 $16 $-1 $17 #
body $-1 $18 $-1 $19 #
body $-1 $20 $-1 $21 #
body $-1 $22 $-1 $23 #
body $-1 $24 $-1 $25 #
body $-1 $26 $-1 $27 #
body $-1 $28 $-1 $29 #
lump $-1 $-1 $30 $0 #
transform $-1 1 0 0 0 1 0 0 0 1 47.304910428174686 28.410376088690917 11.11791041322263 1 rotate no_reflect no_shear #
lump $-1 $-1 $31 $1 #
transform $-1 1 0 0 0 1 0 0 0 1 47.304910428174686 28.410376088690917 11.11791041322263 1 rotate no_reflect no_shear #
lump $-1 $-1 $32 $2 #
transform $-1 1 0 0 0 1 0 0 0 1 47.304910428174686 28.410376088690917 11.11791041322263 1 rotate no_reflect no_shear #
lump $-1 $-1 $33 $3 #
transform $-1 1 0 0 0 1 0 0 0 1 47.304910428174686 28.410376088690917 11.11791041322263 1 rotate no_reflect no_shear #
lump $-1 $-1 $34 $4 #
transform $-1 1 0 0 0 1 0 0 0 1 47.304910428174686 28.410376088690917 11.11791041322263 1 rotate no_reflect no_shear #
lump $-1 $-1 $35 $5 #
transform $-1 1 0 0 0 1 0 0 0 1 47.304910428174686 28.410376088690917 11.11791041322263 1 rotate no_reflect no_shear #
lump $-1 $-1 $36 $6 #
transform $-1 1 0 0 0 1 0 0 0 1 47.304910428174686 28.410376088690917 11.11791041322263 1 rotate no_reflect no_shear #
lump $-1 $-1 $37 $7 #
transform $-1 1 0 0 0 1 0 0 0 1 47.304910428174686 28.410376088690917 11.11791041322263 1 rotate no_reflect no_shear #
lump $-1 $-1 $38 $8 #
transform $-1 1 0 0 0 1 0 0 0 1 47.304910428174686 28.410376088690917 11.11791041322263 1 rotate no_reflect no_shear #
lump $-1 $-1 $39 $9 #
transform $-1 1 0 0 0 1 0 0 0 1 47.304910428174686 28.410376088690917 11.11791041322263 1 rotate no_reflect no_shear #
shell $-1 $-1 $-1 $40 $-1 $10 #
shell $-1 $-1 $-1 $41 $-1 $12 #
shell $-1 $-1 $-1 $42 $-1 $14 #
shell $-1 $-1 $-1 $43 $-1 $16 #
shell $-1 $-1 $-1 $44 $-1 $18 #
shell $-1 $-1 $-1 $45 $-1 $20 #
shell $-1 $-1 $-1 $46 $-1 $22 #
shell $-1 $-1 $-1 $47 $-1 $24 #
shell $-1 $-1 $-1 $48 $-1 $26 #
shell $-1 $-1 $-1 $49 $-1 $28 #
face $-1 $50 $51 $30 $-1 $52 forward single #
face $-1 $53 $54 $31 $-1 $55 reversed single #
face $-1 $56 $57 $32 $-1 $58 reversed single #
face $-1 $59 $60 $33 $-1 $61 forward single #
face $-1 $62 $63 $34 $-1 $64 reversed single #
face $-1 $65 $66 $35 $-1 $67 forward single #
face $-1 $68 $69 $36 $-1 $70 reversed single #
face $-1 $71 $72 $37 $-1 $73 forward single #
face $-1 $74 $75 $38 $-1 $76 reversed single #
face $-1 $77 $78 $39 $-1 $79 forward single #
face $-1 $80 $81 $30 $-1 $82 reversed single #
loop $-1 $-1 $83 $40 #
plane-surface $-1 0 0 11.11791041322263 0 0 1 1 0 0 forward_v I I I I #
face $-1 $84 $85 $31 $-1 $86 reversed single #
loop $-1 $-1 $87 $41 #
plane-surface $-1 -32.129223379961459 -23.437690722641598 0 1 0 0 0 0 -1 forward_v I I I I #
face $-1 $88 $89 $32 $-1 $90 reversed single #
loop $-1 $-1 $91 $42 #
plane-surface $-1 65.926063244786349 -5.1616272128544036 136.61243459053097 0 -1 0 -0.79863551827123203 0 -0.60181501223851219 forward_v I I I I #
face $-1 $92 $93 $33 $-1 $94 forward single #
loop $-1 $95 $96 $43 #
cone-surface $-1 43.362669921803047 -8.5873947002332365 6.6342723919367899 -0.79863551827123203 0 -0.60181501223851219 0.90272251835776829 0 -1.197953277406848 1 I I 0 1 1.5 forward I I I I #
face $-1 $97 $98 $34 $-1 $99 reversed single #
loop $-1 $-1 $100 $44 #
plane-surface $-1 65.926063244786349 21.958532919710699 136.61243459053097 0 -1 0 -0.79863551827123203 0 -0.60181501223851219 forward_v I I I I #
face $-1 $101 $102 $35 $-1 $103 forward single #
loop $-1 $104 $105 $45 #
cone-surface $-1 43.362669921803047 18.532765432331864 6.6342723919367899 -0.79863551827123203 0 -0.60181501223851219 0.90272251835776829 0 -1.197953277406848 1 I I 0 1 1.5 forward I I I I #
face $-1 $106 $107 $36 $-1 $108 reversed single #
loop $-1 $-1 $109 $46 #
plane-surface $-1 -122.86367374133368 -12.013162187612062 61.053671277371961 0 1 0 -0.79863551827123203 0 0.60181501223851219 forward_v I I I I #
face $-1 $110 $111 $37 $-1 $112 forward single #
loop $-1 $113 $114 $47 #
cone-surface $-1 -43.362669921803047 -8.5873947002332365 6.6342723919367828 0.79863551827123203 0 -0.60181501223851219 0.90272251835776829 0 1.197953277406848 1 I I 0 1 1.5 forward I I I I #
face $-1 $115 $116 $38 $-1 $117 reversed single #
loop $-1 $-1 $118 $48 #
plane-surface $-1 -122.86367374133368 15.106997944953042 61.053671277371961 0 1 0 -0.79863551827123203 0 0.60181501223851219 forward_v I I I I #
face $-1 $119 $120 $39 $-1 $121 forward single #
loop $-1 $122 $123 $49 #
cone-surface $-1 -43.362669921803047 18.532765432331864 6.6342723919367828 0.79863551827123203 0 -0.60181501223851219 0.90272251835776829 0 1.197953277406848 1 I I 0 1 1.5 forward I I I I #
face $-1 $124 $125 $30 $-1 $126 reversed single #
loop $-1 $-1 $127 $50 #
plane-surface $-1 0 0 -11.11791041322263 0 0 1 1 0 0 forward_v I I I I #
coedge $-1 $128 $129 $130 $131 forward $51 $-1 #
face $-1 $132 $133 $31 $-1 $134 reversed single #
loop $-1 $-1 $135 $53 #
plane-surface $-1 -28.849156490845441 -18.465005356592279 0 0 -1 0 0 0 -1 forward_v I I I I #
coedge $-1 $136 $137 $138 $139 forward $54 $-1 #
face $-1 $140 $141 $32 $-1 $142 reversed single #
loop $-1 $-1 $143 $56 #
plane-surface $-1 -9.6327000683726567 -8.5873947002332329 79.674824093983631 0.79863551827123203 0 0.60181501223851219 0.60181501223851219 0 -0.79863551827123203 forward_v I I I I #
coedge $-1 $144 $145 $146 $147 reversed $57 $-1 #
face $-1 $-1 $148 $33 $-1 $149 forward single #
loop $-1 $150 $151 $59 #
cone-surface $-1 41.459588776073012 -8.5873947002332365 5.2001979276710575 -0.79863551827123203 0 -0.60181501223851219 0.45136125917888414 0 -0.59897663870342399 1 I I -0.70710678118654757 0.70710678118654757 0.75 forward I I I I #
loop $-1 $-1 $152 $43 #
coedge $-1 $96 $96 $153 $154 reversed $60 $-1 #
face $-1 $155 $156 $34 $-1 $157 reversed single #
loop $-1 $-1 $158 $62 #
plane-surface $-1 -9.6327000683726567 18.532765432331871 79.674824093983631 0.79863551827123203 0 0.60181501223851219 0.60181501223851219 0 -0.79863551827123203 forward_v I I I I #
coedge $-1 $159 $160 $161 $162 reversed $63 $-1 #
face $-1 $-1 $163 $35 $-1 $164 forward single #
loop $-1 $165 $166 $65 #
cone-surface $-1 41.459588776073012 18.532765432331864 5.2001979276710575 -0.79863551827123203 0 -0.60181501223851219 0.45136125917888414 0 -0.59897663870342399 1 I I -0.70710678118654757 0.70710678118654757 0.75 forward I I I I #
loop $-1 $-1 $167 $45 #
coedge $-1 $105 $105 $168 $169 reversed $66 $-1 #
face $-1 $170 $171 $36 $-1 $172 reversed single #
loop $-1 $-1 $173 $68 #
plane-surface $-1 -47.304910428174679 -8.5873947002332329 4.1160607808246183 -0.79863551827123203 0 0.60181501223851219 0.60181501223851219 0 0.79863551827123203 forward_v I I I I #
coedge $-1 $174 $175 $176 $177 reversed $69 $-1 #
face $-1 $-1 $178 $37 $-1 $179 forward single #
loop $-1 $180 $181 $71 #
cone-surface $-1 -41.459588776073012 -8.5873947002332365 5.2001979276710504 0.79863551827123203 0 -0.60181501223851219 0.45136125917888414 0 0.59897663870342399 1 I I -0.70710678118654757 0.70710678118654757 0.75 forward I I I I #
loop $-1 $-1 $182 $47 #
coedge $-1 $114 $114 $183 $184 reversed $72 $-1 #
face $-1 $185 $186 $38 $-1 $187 reversed single #
loop $-1 $-1 $188 $74 #
plane-surface $-1 -47.304910428174679 18.532765432331871 4.1160607808246183 -0.79863551827123203 0 0.60181501223851219 0.60181501223851219 0 0.79863551827123203 forward_v I I I I #
coedge $-1 $189 $190 $191 $192 reversed $75 $-1 #
face $-1 $-1 $193 $39 $-1 $194 forward single #
loop $-1 $195 $196 $77 #
cone-surface $-1 -41.459588776073012 18.532765432331864 5.2001979276710504 0.79863551827123203 0 -0.60181501223851219 0.45136125917888414 0 0.59897663870342399 1 I I -0.70710678118654757 0.70710678118654757 0.75 forward I I I I #
loop $-1 $-1 $197 $49 #
coedge $-1 $123 $123 $198 $199 reversed $78 $-1 #
face $-1 $200 $201 $30 $-1 $202 reversed single #
loop $-1 $-1 $203 $80 #
plane-surface $-1 0 -28.410376088690917 0 0 1 0 0 0 1 forward_v I I I I #
coedge $-1 $204 $205 $206 $207 forward $81 $-1 #
coedge $-1 $208 $83 $209 $210 forward $51 $-1 #
coedge $-1 $83 $208 $211 $212 forward $51 $-1 #
coedge $-1 $213 $214 $83 $131 reversed $215 $-1 #
edge $-1 $216 -28.410376088690917 $217 28.410376088690917 $130 $218 forward 7 unknown #
face $-1 $219 $220 $31 $-1 $221 forward single #
loop $-1 $-1 $222 $84 #
plane-surface $-1 -25.569089601729427 -23.437690722641598 0 -1 0 0 0 0 1 forward_v I I I I #
coedge $-1 $223 $224 $225 $226 forward $85 $-1 #
coedge $-1 $227 $87 $228 $229 reversed $54 $-1 #
coedge $-1 $87 $227 $230 $231 reversed $54 $-1 #
coedge $-1 $224 $223 $87 $139 reversed $85 $-1 #
edge $-1 $232 -11.11791041322263 $233 11.11791041322263 $138 $234 forward 7 unknown #
face $-1 $235 $236 $32 $-1 $237 reversed single #
loop $-1 $-1 $238 $88 #
plane-surface $-1 65.926063244786349 -12.013162187612062 136.61243459053097 0 1 0 0.79863551827123203 0 0.60181501223851219 forward_v I I I I #
coedge $-1 $239 $240 $241 $242 reversed $89 $-1 #
coedge $-1 $145 $91 $243 $244 reversed $57 $-1 #
coedge $-1 $91 $144 $239 $245 reversed $57 $-1 #
coedge $-1 $241 $246 $91 $147 forward $247 $-1 #
edge $-1 $248 -14.341878805781512 $249 -9.0656068070914486 $146 $250 forward 7 unknown #
loop $-1 $-1 $153 $92 #
plane-surface $-1 -9.6327000683726567 -8.5873947002332329 79.674824093983631 0.79863551827123203 0 0.60181501223851219 0.60181501223851219 0 -0.79863551827123203 forward_v I I I I #
loop $-1 $-1 $251 $59 #
coedge $-1 $151 $151 $152 $252 reversed $93 $-1 #
coedge $-1 $152 $152 $151 $252 forward $95 $-1 #
coedge $-1 $153 $153 $96 $154 forward $148 $-1 #
edge $-1 $253 0 $253 6.2831853071796004 $153 $254 forward 7 unknown #
face $-1 $255 $256 $34 $-1 $257 reversed single #
loop $-1 $-1 $258 $97 #
plane-surface $-1 65.926063244786349 15.106997944953042 136.61243459053097 0 1 0 0.79863551827123203 0 0.60181501223851219 forward_v I I I I #
coedge $-1 $259 $260 $261 $262 reversed $98 $-1 #
coedge $-1 $160 $100 $263 $264 reversed $63 $-1 #
coedge $-1 $100 $159 $259 $265 reversed $63 $-1 #
coedge $-1 $261 $266 $100 $162 forward $267 $-1 #
edge $-1 $268 -14.341878805781512 $269 -9.0656068070914486 $161 $270 forward 7 unknown #
loop $-1 $-1 $168 $101 #
plane-surface $-1 -9.6327000683726567 18.532765432331871 79.674824093983631 0.79863551827123203 0 0.60181501223851219 0.60181501223851219 0 -0.79863551827123203 forward_v I I I I #
loop $-1 $-1 $271 $65 #
coedge $-1 $166 $166 $167 $272 reversed $102 $-1 #
coedge $-1 $167 $167 $166 $272 forward $104 $-1 #
coedge $-1 $168 $168 $105 $169 forward $163 $-1 #
edge $-1 $273 0 $273 6.2831853071796004 $168 $274 forward 7 unknown #
face $-1 $275 $276 $36 $-1 $277 reversed single #
loop $-1 $-1 $278 $106 #
plane-surface $-1 -122.86367374133368 -5.1616272128544036 61.053671277371961 0 -1 0 0.79863551827123203 0 -0.60181501223851219 forward_v I I I I #
coedge $-1 $279 $280 $281 $282 reversed $107 $-1 #
coedge $-1 $175 $109 $283 $284 reversed $69 $-1 #
coedge $-1 $109 $174 $279 $285 reversed $69 $-1 #
coedge $-1 $281 $286 $109 $177 forward $287 $-1 #
edge $-1 $288 14.126926442492156 $289 19.403198441182226 $176 $290 forward 7 unknown #
loop $-1 $-1 $183 $110 #
plane-surface $-1 -47.304910428174679 -8.5873947002332329 4.1160607808246183 -0.79863551827123203 0 0.60181501223851219 0.60181501223851219 0 0.79863551827123203 forward_v I I I I #
loop $-1 $-1 $291 $71 #
coedge $-1 $181 $181 $182 $292 reversed $111 $-1 #
coedge $-1 $182 $182 $181 $292 forward $113 $-1 #
coedge $-1 $183 $183 $114 $184 forward $178 $-1 #
edge $-1 $293 0 $293 6.2831853071796004 $183 $294 forward 7 unknown #
face $-1 $295 $296 $38 $-1 $297 forward single #
loop $-1 $-1 $298 $115 #
plane-surface $-1 -122.86367374133368 21.958532919710699 61.053671277371961 0 -1 0 0.79863551827123203 0 -0.60181501223851219 forward_v I I I I #
coedge $-1 $299 $300 $301 $302 reversed $116 $-1 #
coedge $-1 $190 $118 $303 $304 reversed $75 $-1 #
coedge $-1 $118 $189 $299 $305 reversed $75 $-1 #
coedge $-1 $301 $306 $118 $192 forward $296 $-1 #
edge $-1 $307 14.126926442492156 $308 19.403198441182226 $191 $309 forward 7 unknown #
loop $-1 $-1 $198 $119 #
plane-surface $-1 -47.304910428174679 18.532765432331871 4.1160607808246183 -0.79863551827123203 0 0.60181501223851219 0.60181501223851219 0 0.79863551827123203 forward_v I I I I #
loop $-1 $-1 $310 $77 #
coedge $-1 $196 $196 $197 $311 reversed $120 $-1 #
coedge $-1 $197 $197 $196 $311 forward $122 $-1 #
coedge $-1 $198 $198 $123 $199 forward $193 $-1 #
edge $-1 $312 0 $312 6.2831853071796004 $198 $313 forward 7 unknown #
face $-1 $314 $315 $30 $-1 $316 reversed single #
loop $-1 $-1 $317 $124 #
plane-surface $-1 -47.304910428174686 0 0 1 0 0 0 0 -1 forward_v I I I I #
coedge $-1 $318 $211 $319 $320 forward $125 $-1 #
coedge $-1 $321 $127 $318 $322 forward $81 $-1 #
coedge $-1 $127 $321 $323 $324 forward $81 $-1 #
coedge $-1 $214 $213 $127 $207 reversed $215 $-1 #
edge $-1 $325 -28.410376088690917 $326 28.410376088690917 $206 $327 forward 7 unknown #
coedge $-1 $129 $128 $328 $329 forward $51 $-1 #
coedge $-1 $330 $331 $128 $210 reversed $315 $-1 #
edge $-1 $217 -47.304910428174686 $332 47.304910428174686 $209 $333 forward 7 unknown #
coedge $-1 $203 $334 $129 $212 reversed $125 $-1 #
edge $-1 $335 -47.304910428174686 $216 47.304910428174686 $211 $336 forward 7 unknown #
coedge $-1 $206 $130 $334 $337 forward $215 $-1 #
coedge $-1 $130 $206 $330 $338 reversed $215 $-1 #
loop $-1 $-1 $213 $314 #
vertex $-1 $131 $339 #
vertex $-1 $131 $340 #
straight-curve $-1 47.304910428174686 0 11.11791041322263 0 1 0 I I #
face $-1 $341 $342 $31 $-1 $343 reversed single #
loop $-1 $-1 $344 $132 #
plane-surface $-1 0 0 11.11791041322263 0 0 1 1 0 0 forward_v I I I I #
coedge $-1 $345 $346 $347 $348 reversed $133 $-1 #
coedge $-1 $138 $135 $349 $350 reversed $85 $-1 #
coedge $-1 $135 $138 $351 $352 reversed $85 $-1 #
coedge $-1 $346 $345 $135 $226 reversed $133 $-1 #
edge $-1 $353 -11.11791041322263 $354 11.11791041322263 $225 $355 forward 7 unknown #
coedge $-1 $137 $136 $356 $357 reversed $54 $-1 #
coedge $-1 $349 $358 $136 $229 forward $342 $-1 #
edge $-1 $359 -16.691530727370118 $233 -6.7461599952714799 $228 $360 forward 7 unknown #
coedge $-1 $361 $351 $137 $231 forward $220 $-1 #
edge $-1 $232 6.7461599952714799 $362 16.691530727370118 $230 $363 forward 7 unknown #
vertex $-1 $231 $364 #
vertex $-1 $229 $365 #
straight-curve $-1 -32.129223379961459 -18.465005356592279 0 0 0 -1 I I #
face $-1 $-1 $247 $32 $-1 $366 forward single #
loop $-1 $-1 $367 $140 #
plane-surface $-1 47.304910428174686 0 0 -1 0 0 0 0 1 forward_v I I I I #
coedge $-1 $368 $369 $370 $371 reversed $141 $-1 #
coedge $-1 $372 $143 $145 $245 forward $89 $-1 #
coedge $-1 $143 $372 $368 $373 forward $89 $-1 #
coedge $-1 $370 $146 $143 $242 forward $247 $-1 #
edge $-1 $249 0.86792986273778716 $374 7.7194648374954458 $241 $375 forward 7 unknown #
coedge $-1 $376 $377 $144 $244 forward $236 $-1 #
edge $-1 $378 -64.190156514440858 $248 -57.188306882042852 $243 $379 forward 7 unknown #
edge $-1 $249 85.842555348856578 $378 94.609820856349387 $145 $380 forward 7 unknown #
coedge $-1 $146 $370 $376 $381 forward $247 $-1 #
loop $-1 $-1 $370 $235 #
vertex $-1 $244 $382 #
vertex $-1 $147 $383 #
straight-curve $-1 32.963031622393174 -5.1616272128544036 11.117910413222631 -1 0 0 I I #
coedge $-1 $251 $251 $-1 $384 reversed $150 $-1 #
edge $-1 $385 0 $385 6.2831853071796004 $151 $386 forward 7 unknown #
vertex $-1 $154 $387 #
ellipse-curve $-1 44.666774428829655 -8.5873947002332365 7.6169855970236364 0.79863551827123203 0 0.60181501223851219 0.90272251835776829 0 -1.197953277406848 1 I I #
face $-1 $-1 $267 $34 $-1 $388 forward single #
loop $-1 $-1 $389 $155 #
plane-surface $-1 47.304910428174686 0 0 -1 0 0 0 0 1 forward_v I I I I #
coedge $-1 $390 $391 $392 $393 reversed $156 $-1 #
coedge $-1 $394 $158 $160 $265 forward $98 $-1 #
coedge $-1 $158 $394 $390 $395 forward $98 $-1 #
coedge $-1 $392 $161 $158 $262 forward $267 $-1 #
edge $-1 $269 -12.692150203544763 $396 -5.8406152287871063 $261 $397 forward 7 unknown #
coedge $-1 $398 $399 $159 $264 forward $256 $-1 #
edge $-1 $400 -64.190156514440858 $268 -57.188306882042852 $263 $401 forward 7 unknown #
edge $-1 $269 85.842555348856578 $400 94.609820856349387 $160 $402 forward 7 unknown #
coedge $-1 $161 $392 $398 $403 forward $267 $-1 #
loop $-1 $-1 $392 $255 #
vertex $-1 $264 $404 #
vertex $-1 $162 $405 #
straight-curve $-1 32.963031622393174 21.958532919710699 11.117910413222631 -1 0 0 I I #
coedge $-1 $271 $271 $-1 $406 reversed $165 $-1 #
edge $-1 $407 0 $407 6.2831853071796004 $166 $408 forward 7 unknown #
vertex $-1 $169 $409 #
ellipse-curve $-1 44.666774428829655 18.532765432331864 7.6169855970236364 0.79863551827123203 0 0.60181501223851219 0.90272251835776829 0 -1.197953277406848 1 I I #
face $-1 $-1 $287 $36 $-1 $410 forward single #
loop $-1 $-1 $411 $170 #
plane-surface $-1 -47.304910428174686 0 0 1 0 0 0 0 -1 forward_v I I I I #
coedge $-1 $412 $413 $414 $415 reversed $171 $-1 #
coedge $-1 $416 $173 $175 $285 forward $107 $-1 #
coedge $-1 $173 $416 $412 $417 forward $107 $-1 #
coedge $-1 $414 $176 $173 $282 forward $287 $-1 #
edge $-1 $289 -7.7194648374954458 $418 -0.86792986273778716 $281 $419 forward 7 unknown #
coedge $-1 $420 $421 $174 $284 forward $276 $-1 #
edge $-1 $422 -26.410774857861373 $288 -19.408925225463349 $283 $423 forward 7 unknown #
edge $-1 $289 -8.7672655074928016 $422 1.2078792010054373e-014 $175 $424 forward 7 unknown #
coedge $-1 $176 $414 $420 $425 forward $287 $-1 #
loop $-1 $-1 $414 $275 #
vertex $-1 $284 $426 #
vertex $-1 $177 $427 #
straight-curve $-1 -61.431836870666842 -12.013162187612062 11.117910413222631 1 0 0 I I #
coedge $-1 $291 $291 $-1 $428 reversed $180 $-1 #
edge $-1 $429 0 $429 6.2831853071796004 $181 $430 forward 7 unknown #
vertex $-1 $184 $431 #
ellipse-curve $-1 -44.666774428829648 -8.5873947002332365 7.6169855970236231 -0.79863551827123203 0 0.60181501223851219 0.90272251835776829 0 1.197953277406848 1 I I #
face $-1 $-1 $432 $38 $-1 $433 reversed single #
loop $-1 $-1 $191 $185 #
plane-surface $-1 0 0 11.11791041322263 0 0 1 1 0 0 forward_v I I I I #
coedge $-1 $434 $435 $436 $437 reversed $186 $-1 #
coedge $-1 $438 $188 $190 $305 forward $116 $-1 #
coedge $-1 $188 $438 $434 $439 forward $116 $-1 #
coedge $-1 $436 $191 $188 $302 forward $296 $-1 #
edge $-1 $308 5.8406152287871063 $440 12.692150203544763 $301 $441 forward 7 unknown #
coedge $-1 $442 $443 $189 $304 forward $432 $-1 #
edge $-1 $444 -26.410774857861373 $307 -19.408925225463349 $303 $445 forward 7 unknown #
edge $-1 $308 -8.7672655074928016 $444 1.2078792010054373e-014 $190 $446 forward 7 unknown #
coedge $-1 $191 $436 $442 $447 forward $296 $-1 #
vertex $-1 $304 $448 #
vertex $-1 $192 $449 #
straight-curve $-1 -61.431836870666842 15.106997944953042 11.117910413222631 1 0 0 I I #
coedge $-1 $310 $310 $-1 $450 reversed $195 $-1 #
edge $-1 $451 0 $451 6.2831853071796004 $196 $452 forward 7 unknown #
vertex $-1 $199 $453 #
ellipse-curve $-1 -44.666774428829648 18.532765432331864 7.6169855970236231 -0.79863551827123203 0 0.60181501223851219 0.90272251835776829 0 1.197953277406848 1 I I #
face $-1 $-1 $215 $30 $-1 $454 reversed single #
loop $-1 $-1 $330 $200 #
plane-surface $-1 0 28.410376088690917 0 0 -1 0 0 0 -1 forward_v I I I I #
coedge $-1 $455 $328 $331 $456 forward $201 $-1 #
coedge $-1 $334 $203 $204 $322 reversed $125 $-1 #
coedge $-1 $328 $455 $203 $320 reversed $201 $-1 #
edge $-1 $335 -11.11791041322263 $457 11.11791041322263 $319 $458 forward 7 unknown #
coedge $-1 $205 $204 $455 $459 forward $81 $-1 #
edge $-1 $326 -47.304910428174686 $457 47.304910428174686 $318 $460 forward 7 unknown #
coedge $-1 $331 $330 $205 $324 reversed $315 $-1 #
edge $-1 $461 -47.304910428174686 $325 47.304910428174686 $323 $462 forward 7 unknown #
vertex $-1 $207 $463 #
vertex $-1 $337 $464 #
straight-curve $-1 47.304910428174686 0 -11.11791041322263 0 -1 0 I I #
coedge $-1 $317 $319 $208 $329 reversed $201 $-1 #
edge $-1 $332 -28.410376088690917 $335 28.410376088690917 $328 $465 forward 7 unknown #
coedge $-1 $323 $209 $214 $338 forward $315 $-1 #
coedge $-1 $209 $323 $317 $456 reversed $315 $-1 #
vertex $-1 $210 $466 #
straight-curve $-1 0 28.410376088690917 11.11791041322263 -1 0 0 I I #
coedge $-1 $211 $318 $213 $337 reversed $125 $-1 #
vertex $-1 $329 $467 #
straight-curve $-1 0 -28.410376088690917 11.11791041322263 1 0 0 I I #
edge $-1 $216 -11.11791041322263 $326 11.11791041322263 $213 $468 forward 7 unknown #
edge $-1 $217 -11.11791041322263 $325 11.11791041322263 $214 $469 forward 7 unknown #
point $-1 47.304910428174686 -28.410376088690917 11.11791041322263 #
point $-1 47.304910428174686 28.410376088690917 11.11791041322263 #
face $-1 $-1 $470 $31 $-1 $471 reversed single #
loop $-1 $-1 $472 $219 #
plane-surface $-1 0 0 -11.11791041322263 0 0 1 1 0 0 forward_v I I I I #
coedge $-1 $351 $361 $346 $473 forward $220 $-1 #
coedge $-1 $225 $222 $472 $474 reversed $133 $-1 #
coedge $-1 $222 $225 $344 $473 reversed $133 $-1 #
coedge $-1 $475 $476 $222 $348 forward $470 $-1 #
edge $-1 $477 -11.11791041322263 $478 11.11791041322263 $347 $479 forward 7 unknown #
coedge $-1 $472 $228 $223 $350 forward $342 $-1 #
edge $-1 $233 -17.704645134538737 $354 -11.144511356306706 $349 $480 forward 7 unknown #
coedge $-1 $230 $344 $224 $352 forward $220 $-1 #
edge $-1 $353 11.144511356306706 $232 17.704645134538737 $351 $481 forward 7 unknown #
vertex $-1 $352 $482 #
vertex $-1 $350 $483 #
straight-curve $-1 -25.569089601729427 -18.465005356592279 0 0 0 -1 I I #
coedge $-1 $476 $475 $227 $357 forward $470 $-1 #
edge $-1 $362 -11.11791041322263 $359 11.11791041322263 $356 $484 forward 7 unknown #
coedge $-1 $228 $472 $476 $485 forward $342 $-1 #
vertex $-1 $229 $486 #
straight-curve $-1 -32.129223379961459 -11.718845361320799 -11.11791041322263 0 1 0 I I #
coedge $-1 $344 $230 $475 $487 forward $220 $-1 #
vertex $-1 $487 $488 #
straight-curve $-1 -32.129223379961459 -11.718845361320799 11.11791041322263 0 -1 0 I I #
point $-1 -32.129223379961459 -18.465005356592279 11.11791041322263 #
point $-1 -32.129223379961459 -18.465005356592279 -11.11791041322263 #
plane-surface $-1 0 0 11.11791041322263 0 0 1 1 0 0 forward_v I I I I #
coedge $-1 $377 $376 $369 $489 forward $236 $-1 #
coedge $-1 $369 $238 $240 $373 reversed $141 $-1 #
coedge $-1 $238 $368 $367 $489 reversed $141 $-1 #
coedge $-1 $246 $241 $238 $371 forward $247 $-1 #
edge $-1 $374 9.0656068070914486 $490 14.341878805781512 $370 $491 forward 7 unknown #
coedge $-1 $240 $239 $377 $492 reversed $89 $-1 #
edge $-1 $493 -94.609820856349387 $374 -85.842555348856578 $368 $494 forward 7 unknown #
vertex $-1 $242 $495 #
straight-curve $-1 42.02863842948463 -4.2936973501166165 11.117910413222631 0 -1 0 I I #
coedge $-1 $367 $243 $246 $381 reversed $236 $-1 #
coedge $-1 $243 $367 $372 $492 forward $236 $-1 #
vertex $-1 $244 $496 #
straight-curve $-1 47.304910428174686 -5.1616272128544036 68.306217295265483 0 0 1 I I #
straight-curve $-1 -9.6327000683726567 -5.1616272128544036 79.674824093983631 0.60181501223851219 0 -0.79863551827123203 I I #
edge $-1 $490 -12.013162187612062 $248 -5.1616272128544036 $376 $497 forward 7 unknown #
point $-1 47.304910428174686 -5.1616272128544036 11.11791041322263 #
point $-1 42.028638429484623 -5.1616272128544036 11.117910413222631 #
edge $-1 $498 1 $498 0 $251 $-1 forward 7 unknown #
vertex $-1 $252 $499 #
ellipse-curve $-1 42.058565414776439 -8.5873947002332365 5.6515591868499415 0.79863551827123203 0 0.60181501223851219 0.90272251835776829 0 -1.197953277406848 1 I I #
point $-1 45.569496947187424 -8.5873947002332365 6.4190323196167913 #
plane-surface $-1 0 0 11.11791041322263 0 0 1 1 0 0 forward_v I I I I #
coedge $-1 $399 $398 $391 $500 forward $256 $-1 #
coedge $-1 $391 $258 $260 $395 reversed $156 $-1 #
coedge $-1 $258 $390 $389 $500 reversed $156 $-1 #
coedge $-1 $266 $261 $258 $393 forward $267 $-1 #
edge $-1 $396 9.0656068070914486 $501 14.341878805781512 $392 $502 forward 7 unknown #
coedge $-1 $260 $259 $399 $503 reversed $98 $-1 #
edge $-1 $504 -94.609820856349387 $396 -85.842555348856578 $390 $505 forward 7 unknown #
vertex $-1 $262 $506 #
straight-curve $-1 42.02863842948463 9.2663827161659356 11.117910413222631 0 -1 0 I I #
coedge $-1 $389 $263 $266 $403 reversed $256 $-1 #
coedge $-1 $263 $389 $394 $503 forward $256 $-1 #
vertex $-1 $264 $507 #
straight-curve $-1 47.304910428174686 21.958532919710699 68.306217295265483 0 0 1 I I #
straight-curve $-1 -9.6327000683726567 21.958532919710699 79.674824093983631 0.60181501223851219 0 -0.79863551827123203 I I #
edge $-1 $501 15.106997944953042 $268 21.958532919710699 $398 $508 forward 7 unknown #
point $-1 47.304910428174686 21.958532919710699 11.11791041322263 #
point $-1 42.028638429484623 21.958532919710699 11.117910413222631 #
edge $-1 $509 1 $509 0 $271 $-1 forward 7 unknown #
vertex $-1 $272 $510 #
ellipse-curve $-1 42.058565414776439 18.532765432331864 5.6515591868499415 0.79863551827123203 0 0.60181501223851219 0.90272251835776829 0 -1.197953277406848 1 I I #
point $-1 45.569496947187424 18.532765432331864 6.4190323196167913 #
plane-surface $-1 0 0 11.11791041322263 0 0 1 1 0 0 forward_v I I I I #
coedge $-1 $421 $420 $413 $511 forward $276 $-1 #
coedge $-1 $413 $278 $280 $417 reversed $171 $-1 #
coedge $-1 $278 $412 $411 $511 reversed $171 $-1 #
coedge $-1 $286 $281 $278 $415 forward $287 $-1 #
edge $-1 $418 -19.403198441182226 $512 -14.126926442492156 $414 $513 forward 7 unknown #
coedge $-1 $280 $279 $421 $514 reversed $107 $-1 #
edge $-1 $515 -1.2078792010054373e-014 $418 8.7672655074928016 $412 $516 forward 7 unknown #
vertex $-1 $282 $517 #
straight-curve $-1 -42.028638429484616 -4.2936973501166165 11.117910413222631 0 1 0 I I #
coedge $-1 $411 $283 $286 $425 reversed $276 $-1 #
coedge $-1 $283 $411 $416 $514 forward $276 $-1 #
vertex $-1 $284 $518 #
straight-curve $-1 -47.304910428174686 -12.013162187612062 30.526835638685981 0 0 1 I I #
straight-curve $-1 -47.304910428174679 -12.013162187612062 4.1160607808246183 -0.60181501223851219 0 -0.79863551827123203 I I #
edge $-1 $512 5.1616272128544036 $288 12.013162187612062 $420 $519 forward 7 unknown #
point $-1 -47.304910428174686 -12.013162187612062 11.11791041322263 #
point $-1 -42.028638429484616 -12.013162187612062 11.11791041322263 #
edge $-1 $520 1 $520 0 $291 $-1 forward 7 unknown #
vertex $-1 $292 $521 #
ellipse-curve $-1 -42.058565414776439 -8.5873947002332365 5.6515591868499344 -0.79863551827123203 0 0.60181501223851219 0.90272251835776829 0 1.197953277406848 1 I I #
point $-1 -43.764051910471892 -8.5873947002332365 8.8149388744304797 #
loop $-1 $-1 $303 $295 #
plane-surface $-1 -47.304910428174686 0 0 1 0 0 0 0 -1 forward_v I I I I #
coedge $-1 $435 $298 $300 $439 reversed $186 $-1 #
coedge $-1 $298 $434 $522 $523 reversed $186 $-1 #
coedge $-1 $306 $301 $298 $437 forward $296 $-1 #
edge $-1 $440 -19.403198441182226 $524 -14.126926442492156 $436 $525 forward 7 unknown #
coedge $-1 $300 $299 $443 $526 reversed $116 $-1 #
edge $-1 $527 -1.2078792010054373e-014 $440 8.7672655074928016 $434 $528 forward 7 unknown #
vertex $-1 $302 $529 #
straight-curve $-1 -42.028638429484616 9.2663827161659356 11.117910413222631 0 1 0 I I #
coedge $-1 $522 $303 $306 $447 reversed $432 $-1 #
coedge $-1 $303 $522 $438 $526 forward $432 $-1 #
vertex $-1 $304 $530 #
straight-curve $-1 -47.304910428174686 15.106997944953042 30.526835638685981 0 0 1 I I #
straight-curve $-1 -47.304910428174679 15.106997944953042 4.1160607808246183 -0.60181501223851219 0 -0.79863551827123203 I I #
edge $-1 $524 -21.958532919710699 $307 -15.106997944953042 $442 $531 forward 7 unknown #
point $-1 -47.304910428174686 15.106997944953042 11.11791041322263 #
point $-1 -42.028638429484616 15.106997944953042 11.11791041322263 #
edge $-1 $532 1 $532 0 $310 $-1 forward 7 unknown #
vertex $-1 $311 $533 #
ellipse-curve $-1 -42.058565414776439 18.532765432331864 5.6515591868499344 -0.79863551827123203 0 0.60181501223851219 0.90272251835776829 0 1.197953277406848 1 I I #
point $-1 -43.764051910471892 18.532765432331864 8.8149388744304797 #
plane-surface $-1 47.304910428174686 0 0 -1 0 0 0 0 1 forward_v I I I I #
coedge $-1 $319 $317 $321 $459 reversed $201 $-1 #
edge $-1 $332 -11.11791041322263 $461 11.11791041322263 $331 $534 forward 7 unknown #
vertex $-1 $459 $535 #
straight-curve $-1 -47.304910428174686 -28.410376088690917 0 0 0 -1 I I #
edge $-1 $457 -28.410376088690917 $461 28.410376088690917 $455 $536 forward 7 unknown #
straight-curve $-1 0 -28.410376088690917 -11.11791041322263 -1 0 0 I I #
vertex $-1 $324 $537 #
straight-curve $-1 0 28.410376088690917 -11.11791041322263 1 0 0 I I #
point $-1 47.304910428174686 28.410376088690917 -11.11791041322263 #
point $-1 47.304910428174686 -28.410376088690917 -11.11791041322263 #
straight-curve $-1 -47.304910428174686 0 11.11791041322263 0 -1 0 I I #
point $-1 -47.304910428174686 28.410376088690917 11.11791041322263 #
point $-1 -47.304910428174686 -28.410376088690917 11.11791041322263 #
straight-curve $-1 47.304910428174686 -28.410376088690917 0 0 0 -1 I I #
straight-curve $-1 47.304910428174686 28.410376088690917 0 0 0 -1 I I #
loop $-1 $-1 $347 $341 #
plane-surface $-1 0 -28.410376088690917 0 0 1 0 0 0 1 forward_v I I I I #
coedge $-1 $358 $349 $345 $474 forward $342 $-1 #
edge $-1 $478 -16.691530727370118 $353 -6.7461599952714799 $344 $538 forward 7 unknown #
edge $-1 $354 6.7461599952714799 $477 16.691530727370118 $472 $539 forward 7 unknown #
coedge $-1 $356 $347 $361 $487 reversed $470 $-1 #
coedge $-1 $347 $356 $358 $485 reversed $470 $-1 #
vertex $-1 $485 $540 #
vertex $-1 $348 $541 #
straight-curve $-1 -25.569089601729427 -28.410376088690917 0 0 0 1 I I #
straight-curve $-1 -14.424578245422721 -18.465005356592279 -11.11791041322263 1 0 0 I I #
straight-curve $-1 -14.424578245422721 -18.465005356592279 11.11791041322263 -1 0 0 I I #
point $-1 -25.569089601729427 -18.465005356592279 11.11791041322263 #
point $-1 -25.569089601729427 -18.465005356592279 -11.11791041322263 #
straight-curve $-1 -32.129223379961459 -28.410376088690917 0 0 0 -1 I I #
edge $-1 $477 25.569089601729427 $359 32.129223379961459 $476 $542 forward 7 unknown #
point $-1 -32.129223379961459 -28.410376088690917 -11.11791041322263 #
edge $-1 $362 -32.129223379961459 $478 -25.569089601729427 $475 $543 forward 7 unknown #
point $-1 -32.129223379961459 -28.410376088690917 11.11791041322263 #
edge $-1 $490 57.188306882042852 $493 64.190156514440858 $367 $544 forward 7 unknown #
vertex $-1 $381 $545 #
straight-curve $-1 32.963031622393174 -12.013162187612062 11.117910413222631 1 0 0 I I #
edge $-1 $493 -7.7194648374954458 $378 -0.86792986273778716 $377 $546 forward 7 unknown #
vertex $-1 $492 $547 #
straight-curve $-1 -9.6327000683726567 -12.013162187612062 79.674824093983631 -0.60181501223851219 0 0.79863551827123203 I I #
point $-1 42.028638429484623 -12.013162187612062 11.117910413222631 #
point $-1 47.304910428174686 -5.1616272128544036 4.1160607808246255 #
straight-curve $-1 47.304910428174686 0 11.11791041322263 0 1 0 I I #
vertex $-1 $384 $548 #
point $-1 42.961287933134201 -8.5873947002332365 4.4536059094430938 #
edge $-1 $501 57.188306882042852 $504 64.190156514440858 $389 $549 forward 7 unknown #
vertex $-1 $403 $550 #
straight-curve $-1 32.963031622393174 15.106997944953042 11.117910413222631 1 0 0 I I #
edge $-1 $504 5.8406152287871063 $400 12.692150203544763 $399 $551 forward 7 unknown #
vertex $-1 $503 $552 #
straight-curve $-1 -9.6327000683726567 15.106997944953042 79.674824093983631 -0.60181501223851219 0 0.79863551827123203 I I #
point $-1 42.028638429484623 15.106997944953042 11.117910413222631 #
point $-1 47.304910428174686 21.958532919710699 4.1160607808246255 #
straight-curve $-1 47.304910428174686 0 11.11791041322263 0 1 0 I I #
vertex $-1 $406 $553 #
point $-1 42.961287933134201 18.532765432331864 4.4536059094430938 #
edge $-1 $512 19.408925225463349 $515 26.410774857861373 $411 $554 forward 7 unknown #
vertex $-1 $425 $555 #
straight-curve $-1 -61.431836870666842 -5.1616272128544036 11.117910413222631 -1 0 0 I I #
edge $-1 $515 0.86792986273778716 $422 7.7194648374954458 $421 $556 forward 7 unknown #
vertex $-1 $514 $557 #
straight-curve $-1 -47.304910428174679 -5.1616272128544036 4.1160607808246183 0.60181501223851219 0 0.79863551827123203 I I #
point $-1 -42.028638429484616 -5.1616272128544036 11.11791041322263 #
point $-1 -47.304910428174686 -12.013162187612062 4.1160607808246086 #
straight-curve $-1 -47.304910428174686 0 11.11791041322263 0 -1 0 I I #
vertex $-1 $428 $558 #
point $-1 -41.155842896418669 -8.5873947002332365 6.8495124642567831 #
coedge $-1 $443 $442 $435 $523 forward $432 $-1 #
edge $-1 $524 19.408925225463349 $527 26.410774857861373 $522 $559 forward 7 unknown #
vertex $-1 $447 $560 #
straight-curve $-1 -61.431836870666842 21.958532919710699 11.117910413222631 -1 0 0 I I #
edge $-1 $527 -12.692150203544763 $444 -5.8406152287871063 $443 $561 forward 7 unknown #
vertex $-1 $526 $562 #
straight-curve $-1 -47.304910428174679 21.958532919710699 4.1160607808246183 0.60181501223851219 0 0.79863551827123203 I I #
point $-1 -42.028638429484616 21.958532919710699 11.11791041322263 #
point $-1 -47.304910428174686 15.106997944953042 4.1160607808246086 #
straight-curve $-1 -47.304910428174686 0 11.11791041322263 0 -1 0 I I #
vertex $-1 $450 $563 #
point $-1 -41.155842896418669 18.532765432331864 6.8495124642567831 #
straight-curve $-1 -47.304910428174686 28.410376088690917 0 0 0 -1 I I #
point $-1 -47.304910428174686 -28.410376088690917 -11.11791041322263 #
straight-curve $-1 -47.304910428174686 0 -11.11791041322263 0 1 0 I I #
point $-1 -47.304910428174686 28.410376088690917 -11.11791041322263 #
straight-curve $-1 -25.569089601729427 -11.718845361320799 11.11791041322263 0 1 0 I I #
straight-curve $-1 -25.569089601729427 -11.718845361320799 -11.11791041322263 0 -1 0 I I #
point $-1 -25.569089601729427 -28.410376088690917 -11.11791041322263 #
point $-1 -25.569089601729427 -28.410376088690917 11.11791041322263 #
straight-curve $-1 0 -28.410376088690917 -11.11791041322263 -1 0 0 I I #
straight-curve $-1 0 -28.410376088690917 11.11791041322263 1 0 0 I I #
straight-curve $-1 47.304910428174686 -12.013162187612062 68.306217295265483 0 0 -1 I I #
point $-1 47.304910428174686 -12.013162187612062 11.11791041322263 #
straight-curve $-1 47.304910428174686 -4.2936973501166165 4.1160607808246326 0 1 0 I I #
point $-1 47.304910428174686 -12.013162187612062 4.1160607808246255 #
point $-1 40.860612137369586 -8.5873947002332365 4.7488366684921735 #
straight-curve $-1 47.304910428174686 15.106997944953042 68.306217295265483 0 0 -1 I I #
point $-1 47.304910428174686 15.106997944953042 11.11791041322263 #
straight-curve $-1 47.304910428174686 9.2663827161659356 4.1160607808246326 0 1 0 I I #
point $-1 47.304910428174686 15.106997944953042 4.1160607808246255 #
point $-1 40.860612137369586 18.532765432331864 4.7488366684921735 #
straight-curve $-1 -47.304910428174686 -5.1616272128544036 30.526835638685981 0 0 -1 I I #
point $-1 -47.304910428174686 -5.1616272128544036 11.11791041322263 #
straight-curve $-1 -47.304910428174686 -4.2936973501166165 4.1160607808246006 0 -1 0 I I #
point $-1 -47.304910428174686 -5.1616272128544036 4.1160607808246086 #
point $-1 -40.860612137369586 -8.5873947002332365 4.7488366684921663 #
straight-curve $-1 -47.304910428174686 21.958532919710699 30.526835638685981 0 0 -1 I I #
point $-1 -47.304910428174686 21.958532919710699 11.11791041322263 #
straight-curve $-1 -47.304910428174686 9.2663827161659356 4.1160607808246006 0 -1 0 I I #
point $-1 -47.304910428174686 21.958532919710699 4.1160607808246086 #
point $-1 -40.860612137369586 18.532765432331864 4.7488366684921663 #
End-of-ACIS-data 