500 0 21 0           
7 Unknown 11 ACIS 5.0 NT 24 Thu Mar 25 22:16:32 1999 
-1 9.9999999999999995e-007 1e-010 
body $-1 $21 $-1 $22 #
body $-1 $23 $-1 $24 #
body $-1 $25 $-1 $26 #
body $-1 $27 $-1 $28 #
body $-1 $29 $-1 $30 #
body $-1 $31 $-1 $32 #
body $-1 $33 $-1 $34 #
body $-1 $35 $-1 $36 #
body $-1 $37 $-1 $38 #
body $-1 $39 $-1 $40 #
body $-1 $41 $-1 $42 #
body $-1 $43 $-1 $44 #
body $-1 $45 $-1 $46 #
body $-1 $47 $-1 $48 #
body $-1 $49 $-1 $50 #
body $-1 $51 $-1 $52 #
body $-1 $53 $-1 $54 #
body $-1 $55 $-1 $56 #
body $-1 $57 $-1 $58 #
body $-1 $59 $-1 $60 #
body $-1 $61 $-1 $62 #
lump $-1 $-1 $63 $0 #
transform $-1 1 0 0 0 1 0 0 0 1 50.1699880977813 34.928368067928893 11.556410923637729 1 rotate no_reflect no_shear #
lump $-1 $-1 $64 $1 #
transform $-1 1 0 0 0 1 0 0 0 1 50.1699880977813 34.928368067928893 11.556410923637729 1 rotate no_reflect no_shear #
lump $-1 $-1 $65 $2 #
transform $-1 1 0 0 0 1 0 0 0 1 50.1699880977813 34.928368067928893 11.556410923637729 1 rotate no_reflect no_shear #
lump $-1 $-1 $66 $3 #
transform $-1 1 0 0 0 1 0 0 0 1 50.1699880977813 34.928368067928893 11.556410923637729 1 rotate no_reflect no_shear #
lump $-1 $-1 $67 $4 #
transform $-1 1 0 0 0 1 0 0 0 1 50.1699880977813 34.928368067928893 11.556410923637729 1 rotate no_reflect no_shear #
lump $-1 $-1 $68 $5 #
transform $-1 1 0 0 0 1 0 0 0 1 50.1699880977813 34.928368067928893 11.556410923637729 1 rotate no_reflect no_shear #
lump $-1 $-1 $69 $6 #
transform $-1 1 0 0 0 1 0 0 0 1 50.1699880977813 34.928368067928893 11.556410923637729 1 rotate no_reflect no_shear #
lump $-1 $-1 $70 $7 #
transform $-1 1 0 0 0 1 0 0 0 1 50.1699880977813 34.928368067928893 11.556410923637729 1 rotate no_reflect no_shear #
lump $-1 $-1 $71 $8 #
transform $-1 1 0 0 0 1 0 0 0 1 50.1699880977813 34.928368067928893 11.556410923637729 1 rotate no_reflect no_shear #
lump $-1 $-1 $72 $9 #
transform $-1 1 0 0 0 1 0 0 0 1 50.1699880977813 34.928368067928893 11.556410923637729 1 rotate no_reflect no_shear #
lump $-1 $-1 $73 $10 #
transform $-1 1 0 0 0 1 0 0 0 1 50.1699880977813 34.928368067928893 11.556410923637729 1 rotate no_reflect no_shear #
lump $-1 $-1 $74 $11 #
transform $-1 1 0 0 0 1 0 0 0 1 50.1699880977813 34.928368067928893 11.556410923637729 1 rotate no_reflect no_shear #
lump $-1 $-1 $75 $12 #
transform $-1 1 0 0 0 1 0 0 0 1 50.1699880977813 34.928368067928893 11.556410923637729 1 rotate no_reflect no_shear #
lump $-1 $-1 $76 $13 #
transform $-1 1 0 0 0 1 0 0 0 1 50.1699880977813 34.928368067928893 11.556410923637729 1 rotate no_reflect no_shear #
lump $-1 $-1 $77 $14 #
transform $-1 1 0 0 0 1 0 0 0 1 50.1699880977813 34.928368067928893 11.556410923637729 1 rotate no_reflect no_shear #
lump $-1 $-1 $78 $15 #
transform $-1 1 0 0 0 1 0 0 0 1 50.1699880977813 34.928368067928893 11.556410923637729 1 rotate no_reflect no_shear #
lump $-1 $-1 $79 $16 #
transform $-1 1 0 0 0 1 0 0 0 1 50.1699880977813 34.928368067928893 11.556410923637729 1 rotate no_reflect no_shear #
lump $-1 $-1 $80 $17 #
transform $-1 1 0 0 0 1 0 0 0 1 50.1699880977813 34.928368067928893 11.556410923637729 1 rotate no_reflect no_shear #
lump $-1 $-1 $81 $18 #
transform $-1 1 0 0 0 1 0 0 0 1 50.1699880977813 34.928368067928893 11.556410923637729 1 rotate no_reflect no_shear #
lump $-1 $-1 $82 $19 #
transform $-1 1 0 0 0 1 0 0 0 1 50.1699880977813 34.928368067928893 11.556410923637729 1 rotate no_reflect no_shear #
lump $-1 $-1 $83 $20 #
transform $-1 1 0 0 0 1 0 0 0 1 50.1699880977813 34.928368067928893 11.556410923637729 1 rotate no_reflect no_shear #
shell $-1 $-1 $-1 $84 $-1 $21 #
shell $-1 $-1 $-1 $85 $-1 $23 #
shell $-1 $-1 $-1 $86 $-1 $25 #
shell $-1 $-1 $-1 $87 $-1 $27 #
shell $-1 $-1 $-1 $88 $-1 $29 #
shell $-1 $-1 $-1 $89 $-1 $31 #
shell $-1 $-1 $-1 $90 $-1 $33 #
shell $-1 $-1 $-1 $91 $-1 $35 #
shell $-1 $-1 $-1 $92 $-1 $37 #
shell $-1 $-1 $-1 $93 $-1 $39 #
shell $-1 $-1 $-1 $94 $-1 $41 #
shell $-1 $-1 $-1 $95 $-1 $43 #
shell $-1 $-1 $-1 $96 $-1 $45 #
shell $-1 $-1 $-1 $97 $-1 $47 #
shell $-1 $-1 $-1 $98 $-1 $49 #
shell $-1 $-1 $-1 $99 $-1 $51 #
shell $-1 $-1 $-1 $100 $-1 $53 #
shell $-1 $-1 $-1 $101 $-1 $55 #
shell $-1 $-1 $-1 $102 $-1 $57 #
shell $-1 $-1 $-1 $103 $-1 $59 #
shell $-1 $-1 $-1 $104 $-1 $61 #
face $-1 $105 $106 $63 $-1 $107 forward single #
face $-1 $108 $109 $64 $-1 $110 forward single #
face $-1 $111 $112 $65 $-1 $113 reversed single #
face $-1 $114 $115 $66 $-1 $116 forward single #
face $-1 $117 $118 $67 $-1 $119 forward single #
face $-1 $120 $121 $68 $-1 $122 forward single #
face $-1 $123 $124 $69 $-1 $125 reversed single #
face $-1 $126 $127 $70 $-1 $128 forward single #
face $-1 $129 $130 $71 $-1 $131 forward single #
face $-1 $132 $133 $72 $-1 $134 forward single #
face $-1 $135 $136 $73 $-1 $137 reversed single #
face $-1 $138 $139 $74 $-1 $140 forward single #
face $-1 $141 $142 $75 $-1 $143 forward single #
face $-1 $144 $145 $76 $-1 $146 forward single #
face $-1 $147 $148 $77 $-1 $149 reversed single #
face $-1 $150 $151 $78 $-1 $152 forward single #
face $-1 $153 $154 $79 $-1 $155 forward single #
face $-1 $156 $157 $80 $-1 $158 forward single #
face $-1 $159 $160 $81 $-1 $161 reversed single #
face $-1 $162 $163 $82 $-1 $164 forward single #
face $-1 $165 $166 $83 $-1 $167 forward single #
face $-1 $168 $169 $63 $-1 $170 reversed single #
loop $-1 $-1 $171 $84 #
plane-surface $-1 0 0 11.556410923637729 0 0 1 1 0 0 forward_v I I I I #
face $-1 $172 $173 $64 $-1 $174 reversed single #
loop $-1 $-1 $175 $85 #
plane-surface $-1 -50.1699880977813 0 0 1 0 0 0 0 -1 forward_v I I I I #
face $-1 $176 $177 $65 $-1 $178 reversed single #
loop $-1 $-1 $179 $86 #
plane-surface $-1 -36.619414727142946 62.752223430770492 125.34768856170182 1 0 0 0 -0.74314483375859142 -0.66913059716165679 forward_v I I I I #
face $-1 $180 $181 $66 $-1 $182 forward single #
loop $-1 $183 $184 $87 #
cone-surface $-1 -34.012024485897683 32.104876748208262 8.5160625269645021 0 -0.74314483375859142 -0.66913059716165679 1 0 0 1 I I 0 1 1 forward I I I I #
face $-1 $185 $186 $67 $-1 $187 forward single #
loop $-1 $188 $189 $88 #
cone-surface $-1 -30.100939124029779 32.104876748208262 8.5160625269645021 0 -0.74314483375859142 -0.66913059716165679 1 0 0 1 I I 0 1 1 forward I I I I #
face $-1 $190 $191 $68 $-1 $192 forward single #
loop $-1 $193 $194 $89 #
cone-surface $-1 -26.189853762161878 32.104876748208262 8.5160625269645021 0 -0.74314483375859142 -0.66913059716165679 1 0 0 1 I I 0 1 1 forward I I I I #
face $-1 $195 $196 $69 $-1 $197 reversed single #
loop $-1 $-1 $198 $90 #
plane-surface $-1 -14.922064020911884 62.752223430770492 125.34768856170182 1 0 0 0 -0.74314483375859142 -0.66913059716165679 forward_v I I I I #
face $-1 $199 $200 $70 $-1 $201 forward single #
loop $-1 $202 $203 $91 #
cone-surface $-1 -12.31467377966662 32.104876748208262 8.5160625269645021 0 -0.74314483375859142 -0.66913059716165679 1 0 0 1 I I 0 1 1 forward I I I I #
face $-1 $204 $205 $71 $-1 $206 forward single #
loop $-1 $207 $208 $92 #
cone-surface $-1 -8.4035884177987157 32.104876748208262 8.5160625269645021 0 -0.74314483375859142 -0.66913059716165679 1 0 0 1 I I 0 1 1 forward I I I I #
face $-1 $209 $210 $72 $-1 $211 forward single #
loop $-1 $212 $213 $93 #
cone-surface $-1 -4.4925030559308112 32.104876748208262 8.5160625269645021 0 -0.74314483375859142 -0.66913059716165679 1 0 0 1 I I 0 1 1 forward I I I I #
face $-1 $214 $215 $73 $-1 $216 reversed single #
loop $-1 $-1 $217 $94 #
plane-surface $-1 6.7752866853191787 62.752223430770492 125.34768856170182 1 0 0 0 -0.74314483375859142 -0.66913059716165679 forward_v I I I I #
face $-1 $218 $219 $74 $-1 $220 forward single #
loop $-1 $221 $222 $95 #
cone-surface $-1 9.382676926564443 32.104876748208262 8.5160625269645021 0 -0.74314483375859142 -0.66913059716165679 1 0 0 1 I I 0 1 1 forward I I I I #
face $-1 $223 $224 $75 $-1 $225 forward single #
loop $-1 $226 $227 $96 #
cone-surface $-1 13.293762288432347 32.104876748208262 8.5160625269645021 0 -0.74314483375859142 -0.66913059716165679 1 0 0 1 I I 0 1 1 forward I I I I #
face $-1 $228 $229 $76 $-1 $230 forward single #
loop $-1 $231 $232 $97 #
cone-surface $-1 17.204847650300252 32.104876748208262 8.5160625269645021 0 -0.74314483375859142 -0.66913059716165679 1 0 0 1 I I 0 1 1 forward I I I I #
face $-1 $233 $234 $77 $-1 $235 reversed single #
loop $-1 $-1 $236 $98 #
plane-surface $-1 28.472637391550244 62.752223430770492 125.34768856170182 1 0 0 0 -0.74314483375859142 -0.66913059716165679 forward_v I I I I #
face $-1 $237 $238 $78 $-1 $239 forward single #
loop $-1 $240 $241 $99 #
cone-surface $-1 31.080027632795506 32.104876748208262 8.5160625269645021 0 -0.74314483375859142 -0.66913059716165679 1 0 0 1 I I 0 1 1 forward I I I I #
face $-1 $242 $243 $79 $-1 $244 forward single #
loop $-1 $245 $246 $100 #
cone-surface $-1 34.991112994663411 32.104876748208262 8.5160625269645021 0 -0.74314483375859142 -0.66913059716165679 1 0 0 1 I I 0 1 1 forward I I I I #
face $-1 $247 $248 $80 $-1 $249 forward single #
loop $-1 $250 $251 $101 #
cone-surface $-1 38.902198356531315 32.104876748208262 8.5160625269645021 0 -0.74314483375859142 -0.66913059716165679 1 0 0 1 I I 0 1 1 forward I I I I #
face $-1 $252 $253 $81 $-1 $254 reversed single #
loop $-1 $-1 $255 $102 #
plane-surface $-1 43.10343372091566 -34.928368067928901 3.1714105858815387 0 -0.85716730853699208 0.51503806187062418 1 0 0 forward_v I I I I #
face $-1 $256 $257 $82 $-1 $258 forward single #
loop $-1 $259 $260 $103 #
cone-surface $-1 40.074910416544682 -29.520208192699187 5.6279934125253188 0 0.85716730853699208 -0.51503806187062418 2 0 0 1 I I 0 1 2 forward I I I I #
face $-1 $261 $262 $83 $-1 $263 forward single #
loop $-1 $264 $265 $104 #
cone-surface $-1 46.131957025286667 -29.520208192699187 5.6279934125253188 0 0.85716730853699208 -0.51503806187062418 2 0 0 1 I I 0 1 2 forward I I I I #
face $-1 $266 $267 $63 $-1 $268 reversed single #
loop $-1 $-1 $269 $105 #
plane-surface $-1 0 0 -11.556410923637729 0 0 1 1 0 0 forward_v I I I I #
coedge $-1 $270 $271 $272 $273 forward $106 $-1 #
face $-1 $274 $275 $64 $-1 $276 reversed single #
loop $-1 $-1 $277 $108 #
plane-surface $-1 0 0 -11.556410923637729 0 0 1 1 0 0 forward_v I I I I #
coedge $-1 $278 $279 $280 $281 forward $109 $-1 #
face $-1 $282 $283 $65 $-1 $284 reversed single #
loop $-1 $-1 $285 $111 #
plane-surface $-1 -30.100939124029779 -11.8149114984219 58.207140370778589 0 0.74314483375859142 0.66913059716165679 1 0 0 forward_v I I I I #
coedge $-1 $286 $287 $288 $289 reversed $112 $-1 #
face $-1 $-1 $290 $66 $-1 $291 forward single #
loop $-1 $292 $293 $114 #
cone-surface $-1 -34.012024485897683 31.279200585672321 7.7726203894399415 0 -0.74314483375859142 -0.66913059716165679 0.5 0 0 1 I I -0.70710678118654746 0.70710678118654746 0.5 forward I I I I #
loop $-1 $-1 $294 $87 #
coedge $-1 $184 $184 $295 $296 reversed $115 $-1 #
face $-1 $-1 $297 $67 $-1 $298 forward single #
loop $-1 $299 $300 $117 #
cone-surface $-1 -30.100939124029779 31.279200585672321 7.7726203894399415 0 -0.74314483375859142 -0.66913059716165679 0.5 0 0 1 I I -0.70710678118654746 0.70710678118654746 0.5 forward I I I I #
loop $-1 $-1 $301 $88 #
coedge $-1 $189 $189 $302 $303 reversed $118 $-1 #
face $-1 $-1 $304 $68 $-1 $305 forward single #
loop $-1 $306 $307 $120 #
cone-surface $-1 -26.189853762161878 31.279200585672321 7.7726203894399415 0 -0.74314483375859142 -0.66913059716165679 0.5 0 0 1 I I -0.70710678118654746 0.70710678118654746 0.5 forward I I I I #
loop $-1 $-1 $308 $89 #
coedge $-1 $194 $194 $309 $310 reversed $121 $-1 #
face $-1 $311 $312 $69 $-1 $313 reversed single #
loop $-1 $-1 $314 $123 #
plane-surface $-1 -8.4035884177987157 -11.8149114984219 58.207140370778589 0 0.74314483375859142 0.66913059716165679 1 0 0 forward_v I I I I #
coedge $-1 $315 $316 $317 $318 reversed $124 $-1 #
face $-1 $-1 $319 $70 $-1 $320 forward single #
loop $-1 $321 $322 $126 #
cone-surface $-1 -12.31467377966662 31.279200585672321 7.7726203894399415 0 -0.74314483375859142 -0.66913059716165679 0.5 0 0 1 I I -0.70710678118654746 0.70710678118654746 0.5 forward I I I I #
loop $-1 $-1 $323 $91 #
coedge $-1 $203 $203 $324 $325 reversed $127 $-1 #
face $-1 $-1 $326 $71 $-1 $327 forward single #
loop $-1 $328 $329 $129 #
cone-surface $-1 -8.4035884177987157 31.279200585672321 7.7726203894399415 0 -0.74314483375859142 -0.66913059716165679 0.5 0 0 1 I I -0.70710678118654746 0.70710678118654746 0.5 forward I I I I #
loop $-1 $-1 $330 $92 #
coedge $-1 $208 $208 $331 $332 reversed $130 $-1 #
face $-1 $-1 $333 $72 $-1 $334 forward single #
loop $-1 $335 $336 $132 #
cone-surface $-1 -4.4925030559308112 31.279200585672321 7.7726203894399415 0 -0.74314483375859142 -0.66913059716165679 0.5 0 0 1 I I -0.70710678118654746 0.70710678118654746 0.5 forward I I I I #
loop $-1 $-1 $337 $93 #
coedge $-1 $213 $213 $338 $339 reversed $133 $-1 #
face $-1 $340 $341 $73 $-1 $342 reversed single #
loop $-1 $-1 $343 $135 #
plane-surface $-1 13.293762288432347 -11.8149114984219 58.207140370778589 0 0.74314483375859142 0.66913059716165679 1 0 0 forward_v I I I I #
coedge $-1 $344 $345 $346 $347 reversed $136 $-1 #
face $-1 $-1 $348 $74 $-1 $349 forward single #
loop $-1 $350 $351 $138 #
cone-surface $-1 9.382676926564443 31.279200585672321 7.7726203894399415 0 -0.74314483375859142 -0.66913059716165679 0.5 0 0 1 I I -0.70710678118654746 0.70710678118654746 0.5 forward I I I I #
loop $-1 $-1 $352 $95 #
coedge $-1 $222 $222 $353 $354 reversed $139 $-1 #
face $-1 $-1 $355 $75 $-1 $356 forward single #
loop $-1 $357 $358 $141 #
cone-surface $-1 13.293762288432347 31.279200585672321 7.7726203894399415 0 -0.74314483375859142 -0.66913059716165679 0.5 0 0 1 I I -0.70710678118654746 0.70710678118654746 0.5 forward I I I I #
loop $-1 $-1 $359 $96 #
coedge $-1 $227 $227 $360 $361 reversed $142 $-1 #
face $-1 $-1 $362 $76 $-1 $363 forward single #
loop $-1 $364 $365 $144 #
cone-surface $-1 17.204847650300252 31.279200585672321 7.7726203894399415 0 -0.74314483375859142 -0.66913059716165679 0.5 0 0 1 I I -0.70710678118654746 0.70710678118654746 0.5 forward I I I I #
loop $-1 $-1 $366 $97 #
coedge $-1 $232 $232 $367 $368 reversed $145 $-1 #
face $-1 $369 $370 $77 $-1 $371 reversed single #
loop $-1 $-1 $372 $147 #
plane-surface $-1 34.991112994663411 -11.8149114984219 58.207140370778589 0 0.74314483375859142 0.66913059716165679 1 0 0 forward_v I I I I #
coedge $-1 $373 $374 $375 $376 reversed $148 $-1 #
face $-1 $-1 $377 $78 $-1 $378 forward single #
loop $-1 $379 $380 $150 #
cone-surface $-1 31.080027632795506 31.279200585672321 7.7726203894399415 0 -0.74314483375859142 -0.66913059716165679 0.5 0 0 1 I I -0.70710678118654746 0.70710678118654746 0.5 forward I I I I #
loop $-1 $-1 $381 $99 #
coedge $-1 $241 $241 $382 $383 reversed $151 $-1 #
face $-1 $-1 $384 $79 $-1 $385 forward single #
loop $-1 $386 $387 $153 #
cone-surface $-1 34.991112994663411 31.279200585672321 7.7726203894399415 0 -0.74314483375859142 -0.66913059716165679 0.5 0 0 1 I I -0.70710678118654746 0.70710678118654746 0.5 forward I I I I #
loop $-1 $-1 $388 $100 #
coedge $-1 $246 $246 $389 $390 reversed $154 $-1 #
face $-1 $-1 $391 $80 $-1 $392 forward single #
loop $-1 $393 $394 $156 #
cone-surface $-1 38.902198356531315 31.279200585672321 7.7726203894399415 0 -0.74314483375859142 -0.66913059716165679 0.5 0 0 1 I I -0.70710678118654746 0.70710678118654746 0.5 forward I I I I #
loop $-1 $-1 $395 $101 #
coedge $-1 $251 $251 $396 $397 reversed $157 $-1 #
face $-1 $398 $399 $81 $-1 $400 reversed single #
loop $-1 $-1 $401 $159 #
plane-surface $-1 36.036879344050014 -120.93651540214515 54.850317453788662 1 0 0 0 0.85716730853699208 -0.51503806187062418 forward_v I I I I #
coedge $-1 $402 $403 $404 $405 reversed $160 $-1 #
face $-1 $-1 $406 $82 $-1 $407 forward single #
loop $-1 $408 $409 $162 #
cone-surface $-1 40.074910416544682 -25.773989168874696 3.3770380084203815 0 0.85716730853699208 -0.51503806187062418 1 0 0 1 I I -0.70710678118654746 0.70710678118654746 1 forward I I I I #
loop $-1 $-1 $410 $103 #
coedge $-1 $260 $260 $411 $412 reversed $163 $-1 #
face $-1 $-1 $413 $83 $-1 $414 forward single #
loop $-1 $415 $416 $165 #
cone-surface $-1 46.131957025286667 -25.773989168874696 3.3770380084203815 0 0.85716730853699208 -0.51503806187062418 1 0 0 1 I I -0.70710678118654746 0.70710678118654746 1 forward I I I I #
loop $-1 $-1 $417 $104 #
coedge $-1 $265 $265 $418 $419 reversed $166 $-1 #
face $-1 $420 $421 $63 $-1 $422 reversed single #
loop $-1 $-1 $423 $168 #
plane-surface $-1 0 -34.928368067928893 0 0 1 0 0 0 1 forward_v I I I I #
coedge $-1 $424 $425 $426 $427 forward $169 $-1 #
coedge $-1 $428 $171 $429 $430 forward $106 $-1 #
coedge $-1 $171 $428 $431 $432 forward $106 $-1 #
coedge $-1 $433 $434 $171 $273 reversed $435 $-1 #
edge $-1 $436 -34.928368067928893 $437 34.928368067928893 $272 $438 forward 7 unknown #
face $-1 $439 $440 $64 $-1 $441 reversed single #
loop $-1 $-1 $442 $172 #
plane-surface $-1 -56.945274783100473 -18.546001840021667 0 0 1 0 0 0 1 forward_v I I I I #
coedge $-1 $443 $444 $279 $445 forward $173 $-1 #
coedge $-1 $446 $175 $447 $448 reversed $109 $-1 #
coedge $-1 $175 $446 $277 $445 reversed $109 $-1 #
coedge $-1 $449 $450 $175 $281 reversed $451 $-1 #
edge $-1 $452 -11.556410923637729 $453 11.556410923637729 $280 $454 forward 7 unknown #
face $-1 $455 $456 $65 $-1 $457 forward single #
loop $-1 $-1 $458 $176 #
plane-surface $-1 -23.582463520916612 62.752223430770492 125.34768856170182 -1 0 0 0 0.74314483375859142 0.66913059716165679 forward_v I I I I #
coedge $-1 $459 $460 $461 $462 reversed $177 $-1 #
coedge $-1 $287 $179 $463 $464 reversed $112 $-1 #
coedge $-1 $179 $286 $459 $465 reversed $112 $-1 #
coedge $-1 $461 $466 $179 $289 forward $456 $-1 #
edge $-1 $467 -3.5522563525436475 $468 1.1865187955842735 $288 $469 forward 7 unknown #
loop $-1 $-1 $295 $180 #
plane-surface $-1 -30.100939124029779 -11.8149114984219 58.207140370778589 0 0.74314483375859142 0.66913059716165679 1 0 0 forward_v I I I I #
loop $-1 $-1 $470 $114 #
coedge $-1 $293 $293 $294 $471 reversed $181 $-1 #
coedge $-1 $294 $294 $293 $471 forward $183 $-1 #
coedge $-1 $295 $295 $184 $296 forward $290 $-1 #
edge $-1 $472 1.5777083447034361e-015 $472 6.2831853071796022 $295 $473 forward 7 unknown #
loop $-1 $-1 $302 $185 #
plane-surface $-1 -30.100939124029779 -11.8149114984219 58.207140370778589 0 0.74314483375859142 0.66913059716165679 1 0 0 forward_v I I I I #
loop $-1 $-1 $474 $117 #
coedge $-1 $300 $300 $301 $475 reversed $186 $-1 #
coedge $-1 $301 $301 $300 $475 forward $188 $-1 #
coedge $-1 $302 $302 $189 $303 forward $297 $-1 #
edge $-1 $476 1.5777083447034361e-015 $476 6.2831853071796022 $302 $477 forward 7 unknown #
loop $-1 $-1 $309 $190 #
plane-surface $-1 -30.100939124029779 -11.8149114984219 58.207140370778589 0 0.74314483375859142 0.66913059716165679 1 0 0 forward_v I I I I #
loop $-1 $-1 $478 $120 #
coedge $-1 $307 $307 $308 $479 reversed $191 $-1 #
coedge $-1 $308 $308 $307 $479 forward $193 $-1 #
coedge $-1 $309 $309 $194 $310 forward $304 $-1 #
edge $-1 $480 1.5777083447034361e-015 $480 6.2831853071796022 $309 $481 forward 7 unknown #
face $-1 $482 $483 $69 $-1 $484 forward single #
loop $-1 $-1 $485 $195 #
plane-surface $-1 -1.8851128146855469 62.752223430770492 125.34768856170182 -1 0 0 0 0.74314483375859142 0.66913059716165679 forward_v I I I I #
coedge $-1 $486 $487 $488 $489 reversed $196 $-1 #
coedge $-1 $316 $198 $490 $491 reversed $124 $-1 #
coedge $-1 $198 $315 $486 $492 reversed $124 $-1 #
coedge $-1 $488 $493 $198 $318 forward $483 $-1 #
edge $-1 $494 -3.5522563525436475 $495 1.1865187955842735 $317 $496 forward 7 unknown #
loop $-1 $-1 $324 $199 #
plane-surface $-1 -8.4035884177987157 -11.8149114984219 58.207140370778589 0 0.74314483375859142 0.66913059716165679 1 0 0 forward_v I I I I #
loop $-1 $-1 $497 $126 #
coedge $-1 $322 $322 $323 $498 reversed $200 $-1 #
coedge $-1 $323 $323 $322 $498 forward $202 $-1 #
coedge $-1 $324 $324 $203 $325 forward $319 $-1 #
edge $-1 $499 1.5777083447034361e-015 $499 6.2831853071796022 $324 $500 forward 7 unknown #
loop $-1 $-1 $331 $204 #
plane-surface $-1 -8.4035884177987157 -11.8149114984219 58.207140370778589 0 0.74314483375859142 0.66913059716165679 1 0 0 forward_v I I I I #
loop $-1 $-1 $501 $129 #
coedge $-1 $329 $329 $330 $502 reversed $205 $-1 #
coedge $-1 $330 $330 $329 $502 forward $207 $-1 #
coedge $-1 $331 $331 $208 $332 forward $326 $-1 #
edge $-1 $503 1.5777083447034361e-015 $503 6.2831853071796022 $331 $504 forward 7 unknown #
loop $-1 $-1 $338 $209 #
plane-surface $-1 -8.4035884177987157 -11.8149114984219 58.207140370778589 0 0.74314483375859142 0.66913059716165679 1 0 0 forward_v I I I I #
loop $-1 $-1 $505 $132 #
coedge $-1 $336 $336 $337 $506 reversed $210 $-1 #
coedge $-1 $337 $337 $336 $506 forward $212 $-1 #
coedge $-1 $338 $338 $213 $339 forward $333 $-1 #
edge $-1 $507 1.5777083447034361e-015 $507 6.2831853071796022 $338 $508 forward 7 unknown #
face $-1 $509 $510 $73 $-1 $511 forward single #
loop $-1 $-1 $512 $214 #
plane-surface $-1 19.812237891545514 62.752223430770492 125.34768856170182 -1 0 0 0 0.74314483375859142 0.66913059716165679 forward_v I I I I #
coedge $-1 $513 $514 $515 $516 reversed $215 $-1 #
coedge $-1 $345 $217 $517 $518 reversed $136 $-1 #
coedge $-1 $217 $344 $513 $519 reversed $136 $-1 #
coedge $-1 $515 $520 $217 $347 forward $510 $-1 #
edge $-1 $521 -3.5522563525436475 $522 1.1865187955842735 $346 $523 forward 7 unknown #
loop $-1 $-1 $353 $218 #
plane-surface $-1 13.293762288432347 -11.8149114984219 58.207140370778589 0 0.74314483375859142 0.66913059716165679 1 0 0 forward_v I I I I #
loop $-1 $-1 $524 $138 #
coedge $-1 $351 $351 $352 $525 reversed $219 $-1 #
coedge $-1 $352 $352 $351 $525 forward $221 $-1 #
coedge $-1 $353 $353 $222 $354 forward $348 $-1 #
edge $-1 $526 1.5777083447034361e-015 $526 6.2831853071796022 $353 $527 forward 7 unknown #
loop $-1 $-1 $360 $223 #
plane-surface $-1 13.293762288432347 -11.8149114984219 58.207140370778589 0 0.74314483375859142 0.66913059716165679 1 0 0 forward_v I I I I #
loop $-1 $-1 $528 $141 #
coedge $-1 $358 $358 $359 $529 reversed $224 $-1 #
coedge $-1 $359 $359 $358 $529 forward $226 $-1 #
coedge $-1 $360 $360 $227 $361 forward $355 $-1 #
edge $-1 $530 1.5777083447034361e-015 $530 6.2831853071796022 $360 $531 forward 7 unknown #
loop $-1 $-1 $367 $228 #
plane-surface $-1 13.293762288432347 -11.8149114984219 58.207140370778589 0 0.74314483375859142 0.66913059716165679 1 0 0 forward_v I I I I #
loop $-1 $-1 $532 $144 #
coedge $-1 $365 $365 $366 $533 reversed $229 $-1 #
coedge $-1 $366 $366 $365 $533 forward $231 $-1 #
coedge $-1 $367 $367 $232 $368 forward $362 $-1 #
edge $-1 $534 1.5777083447034361e-015 $534 6.2831853071796022 $367 $535 forward 7 unknown #
face $-1 $536 $537 $77 $-1 $538 forward single #
loop $-1 $-1 $539 $233 #
plane-surface $-1 41.509588597776578 62.752223430770492 125.34768856170182 -1 0 0 0 0.74314483375859142 0.66913059716165679 forward_v I I I I #
coedge $-1 $540 $541 $542 $543 reversed $234 $-1 #
coedge $-1 $374 $236 $544 $545 reversed $148 $-1 #
coedge $-1 $236 $373 $540 $546 reversed $148 $-1 #
coedge $-1 $542 $547 $236 $376 forward $537 $-1 #
edge $-1 $548 -3.5522563525436475 $549 1.1865187955842735 $375 $550 forward 7 unknown #
loop $-1 $-1 $382 $237 #
plane-surface $-1 34.991112994663411 -11.8149114984219 58.207140370778589 0 0.74314483375859142 0.66913059716165679 1 0 0 forward_v I I I I #
loop $-1 $-1 $551 $150 #
coedge $-1 $380 $380 $381 $552 reversed $238 $-1 #
coedge $-1 $381 $381 $380 $552 forward $240 $-1 #
coedge $-1 $382 $382 $241 $383 forward $377 $-1 #
edge $-1 $553 1.5777083447034361e-015 $553 6.2831853071796022 $382 $554 forward 7 unknown #
loop $-1 $-1 $389 $242 #
plane-surface $-1 34.991112994663411 -11.8149114984219 58.207140370778589 0 0.74314483375859142 0.66913059716165679 1 0 0 forward_v I I I I #
loop $-1 $-1 $555 $153 #
coedge $-1 $387 $387 $388 $556 reversed $243 $-1 #
coedge $-1 $388 $388 $387 $556 forward $245 $-1 #
coedge $-1 $389 $389 $246 $390 forward $384 $-1 #
edge $-1 $557 1.5777083447034361e-015 $557 6.2831853071796022 $389 $558 forward 7 unknown #
loop $-1 $-1 $396 $247 #
plane-surface $-1 34.991112994663411 -11.8149114984219 58.207140370778589 0 0.74314483375859142 0.66913059716165679 1 0 0 forward_v I I I I #
loop $-1 $-1 $559 $156 #
coedge $-1 $394 $394 $395 $560 reversed $248 $-1 #
coedge $-1 $395 $395 $394 $560 forward $250 $-1 #
coedge $-1 $396 $396 $251 $397 forward $391 $-1 #
edge $-1 $561 1.5777083447034361e-015 $561 6.2831853071796022 $396 $562 forward 7 unknown #
face $-1 $563 $564 $81 $-1 $565 forward single #
loop $-1 $-1 $566 $252 #
plane-surface $-1 0 -34.928368067928893 0 0 1 0 0 0 1 forward_v I I I I #
coedge $-1 $567 $568 $569 $570 reversed $253 $-1 #
coedge $-1 $571 $255 $572 $573 reversed $160 $-1 #
coedge $-1 $255 $571 $567 $574 forward $160 $-1 #
coedge $-1 $569 $575 $255 $405 forward $564 $-1 #
edge $-1 $576 -28.618271237323476 $577 -14.485162483592184 $404 $578 forward 7 unknown #
loop $-1 $-1 $411 $256 #
plane-surface $-1 43.10343372091566 -34.928368067928901 3.1714105858815387 0 -0.85716730853699208 0.51503806187062418 1 0 0 forward_v I I I I #
loop $-1 $-1 $579 $162 #
coedge $-1 $409 $409 $410 $580 reversed $257 $-1 #
coedge $-1 $410 $410 $409 $580 forward $259 $-1 #
coedge $-1 $411 $411 $260 $412 forward $406 $-1 #
edge $-1 $581 3.0714775648067455e-016 $581 6.2831853071796004 $411 $582 forward 7 unknown #
loop $-1 $-1 $418 $261 #
plane-surface $-1 43.10343372091566 -34.928368067928901 3.1714105858815387 0 -0.85716730853699208 0.51503806187062418 1 0 0 forward_v I I I I #
loop $-1 $-1 $583 $165 #
coedge $-1 $416 $416 $417 $584 reversed $262 $-1 #
coedge $-1 $417 $417 $416 $584 forward $264 $-1 #
coedge $-1 $418 $418 $265 $419 forward $413 $-1 #
edge $-1 $585 3.0714775648067455e-016 $585 6.2831853071796004 $418 $586 forward 7 unknown #
face $-1 $587 $588 $63 $-1 $589 reversed single #
loop $-1 $-1 $590 $266 #
plane-surface $-1 -50.1699880977813 0 0 1 0 0 0 0 -1 forward_v I I I I #
coedge $-1 $591 $431 $592 $593 forward $267 $-1 #
coedge $-1 $594 $269 $591 $595 forward $169 $-1 #
coedge $-1 $269 $594 $596 $597 forward $169 $-1 #
coedge $-1 $434 $433 $269 $427 reversed $435 $-1 #
edge $-1 $598 -34.928368067928893 $599 34.928368067928893 $426 $600 forward 7 unknown #
coedge $-1 $271 $270 $601 $602 forward $106 $-1 #
coedge $-1 $603 $604 $270 $430 reversed $588 $-1 #
edge $-1 $437 -50.1699880977813 $605 50.1699880977813 $429 $606 forward 7 unknown #
coedge $-1 $423 $607 $271 $432 reversed $267 $-1 #
edge $-1 $608 -50.1699880977813 $436 50.1699880977813 $431 $609 forward 7 unknown #
coedge $-1 $426 $272 $607 $610 forward $435 $-1 #
coedge $-1 $272 $426 $603 $611 reversed $435 $-1 #
loop $-1 $-1 $433 $587 #
vertex $-1 $273 $612 #
vertex $-1 $273 $613 #
straight-curve $-1 50.1699880977813 0 11.556410923637729 0 1 0 I I #
face $-1 $614 $451 $64 $-1 $615 reversed single #
loop $-1 $-1 $616 $274 #
plane-surface $-1 -63.720561468419646 -15.863801433656811 0 1 0 0 0 0 -1 forward_v I I I I #
coedge $-1 $617 $618 $619 $620 forward $275 $-1 #
coedge $-1 $621 $277 $617 $622 forward $173 $-1 #
coedge $-1 $277 $621 $449 $623 forward $173 $-1 #
edge $-1 $452 13.181601027291952 $624 18.546001840021667 $277 $625 forward 7 unknown #
coedge $-1 $279 $278 $626 $627 forward $109 $-1 #
coedge $-1 $628 $629 $278 $448 forward $630 $-1 #
edge $-1 $631 -18.546001840021667 $453 -13.181601027291952 $447 $632 forward 7 unknown #
coedge $-1 $633 $280 $444 $623 reversed $451 $-1 #
coedge $-1 $280 $633 $628 $634 reversed $451 $-1 #
loop $-1 $-1 $280 $439 #
vertex $-1 $445 $635 #
vertex $-1 $634 $636 #
straight-curve $-1 -50.1699880977813 -13.181601027291952 0 0 0 1 I I #
face $-1 $-1 $637 $65 $-1 $638 reversed single #
loop $-1 $-1 $288 $282 #
plane-surface $-1 0 0 11.556410923637729 0 0 1 1 0 0 forward_v I I I I #
coedge $-1 $639 $640 $641 $642 reversed $283 $-1 #
coedge $-1 $643 $285 $287 $465 forward $177 $-1 #
coedge $-1 $285 $643 $639 $644 forward $177 $-1 #
coedge $-1 $641 $288 $285 $462 forward $456 $-1 #
edge $-1 $468 -21.568945165128056 $645 -8.5319939589017224 $461 $646 forward 7 unknown #
coedge $-1 $647 $648 $286 $464 forward $637 $-1 #
edge $-1 $649 -56.380376472672118 $467 -51.11743335721318 $463 $650 forward 7 unknown #
edge $-1 $468 62.774747704557441 $649 69.856736135857744 $287 $651 forward 7 unknown #
coedge $-1 $288 $641 $647 $652 forward $456 $-1 #
vertex $-1 $464 $653 #
vertex $-1 $289 $654 #
straight-curve $-1 -36.619414727142946 31.376111715385246 11.556410923637728 0 -1 0 I I #
coedge $-1 $470 $470 $-1 $655 reversed $292 $-1 #
edge $-1 $656 0 $656 6.2831853071796004 $293 $657 forward 7 unknown #
vertex $-1 $296 $658 #
ellipse-curve $-1 -34.012024485897683 32.558980493864937 8.9249393659082568 0 0.74314483375859142 0.66913059716165679 1 0 0 1 I I #
coedge $-1 $474 $474 $-1 $659 reversed $299 $-1 #
edge $-1 $660 0 $660 6.2831853071796004 $300 $661 forward 7 unknown #
vertex $-1 $303 $662 #
ellipse-curve $-1 -30.100939124029779 32.558980493864937 8.9249393659082568 0 0.74314483375859142 0.66913059716165679 1 0 0 1 I I #
coedge $-1 $478 $478 $-1 $663 reversed $306 $-1 #
edge $-1 $664 0 $664 6.2831853071796004 $307 $665 forward 7 unknown #
vertex $-1 $310 $666 #
ellipse-curve $-1 -26.189853762161878 32.558980493864937 8.9249393659082568 0 0.74314483375859142 0.66913059716165679 1 0 0 1 I I #
face $-1 $-1 $667 $69 $-1 $668 reversed single #
loop $-1 $-1 $317 $311 #
plane-surface $-1 0 0 11.556410923637729 0 0 1 1 0 0 forward_v I I I I #
coedge $-1 $669 $670 $671 $672 reversed $312 $-1 #
coedge $-1 $673 $314 $316 $492 forward $196 $-1 #
coedge $-1 $314 $673 $669 $674 forward $196 $-1 #
coedge $-1 $671 $317 $314 $489 forward $483 $-1 #
edge $-1 $495 -10.720269812012527 $675 2.3166813942138109 $488 $676 forward 7 unknown #
coedge $-1 $677 $678 $315 $491 forward $667 $-1 #
edge $-1 $679 -56.380376472672118 $494 -51.11743335721318 $490 $680 forward 7 unknown #
edge $-1 $495 62.774747704557441 $679 69.856736135857744 $316 $681 forward 7 unknown #
coedge $-1 $317 $671 $677 $682 forward $483 $-1 #
vertex $-1 $318 $683 #
vertex $-1 $318 $684 #
straight-curve $-1 -14.922064020911884 31.376111715385246 11.556410923637728 0 -1 0 I I #
coedge $-1 $497 $497 $-1 $685 reversed $321 $-1 #
edge $-1 $686 0 $686 6.2831853071796004 $322 $687 forward 7 unknown #
vertex $-1 $325 $688 #
ellipse-curve $-1 -12.31467377966662 32.558980493864937 8.9249393659082568 0 0.74314483375859142 0.66913059716165679 1 0 0 1 I I #
coedge $-1 $501 $501 $-1 $689 reversed $328 $-1 #
edge $-1 $690 0 $690 6.2831853071796004 $329 $691 forward 7 unknown #
vertex $-1 $332 $692 #
ellipse-curve $-1 -8.4035884177987157 32.558980493864937 8.9249393659082568 0 0.74314483375859142 0.66913059716165679 1 0 0 1 I I #
coedge $-1 $505 $505 $-1 $693 reversed $335 $-1 #
edge $-1 $694 0 $694 6.2831853071796004 $336 $695 forward 7 unknown #
vertex $-1 $339 $696 #
ellipse-curve $-1 -4.4925030559308112 32.558980493864937 8.9249393659082568 0 0.74314483375859142 0.66913059716165679 1 0 0 1 I I #
face $-1 $-1 $697 $73 $-1 $698 reversed single #
loop $-1 $-1 $346 $340 #
plane-surface $-1 0 0 11.556410923637729 0 0 1 1 0 0 forward_v I I I I #
coedge $-1 $699 $700 $701 $702 reversed $341 $-1 #
coedge $-1 $703 $343 $345 $519 forward $215 $-1 #
coedge $-1 $343 $703 $699 $704 forward $215 $-1 #
coedge $-1 $701 $346 $343 $516 forward $510 $-1 #
edge $-1 $522 0.12840554110300495 $705 13.165356747329341 $515 $706 forward 7 unknown #
coedge $-1 $707 $708 $344 $518 forward $697 $-1 #
edge $-1 $709 -56.380376472672118 $521 -51.11743335721318 $517 $710 forward 7 unknown #
edge $-1 $522 62.774747704557441 $709 69.856736135857744 $345 $711 forward 7 unknown #
coedge $-1 $346 $701 $707 $712 forward $510 $-1 #
vertex $-1 $347 $713 #
vertex $-1 $347 $714 #
straight-curve $-1 6.7752866853191787 31.376111715385246 11.556410923637728 0 -1 0 I I #
coedge $-1 $524 $524 $-1 $715 reversed $350 $-1 #
edge $-1 $716 0 $716 6.2831853071796004 $351 $717 forward 7 unknown #
vertex $-1 $354 $718 #
ellipse-curve $-1 9.382676926564443 32.558980493864937 8.9249393659082568 0 0.74314483375859142 0.66913059716165679 1 0 0 1 I I #
coedge $-1 $528 $528 $-1 $719 reversed $357 $-1 #
edge $-1 $720 0 $720 6.2831853071796004 $358 $721 forward 7 unknown #
vertex $-1 $361 $722 #
ellipse-curve $-1 13.293762288432347 32.558980493864937 8.9249393659082568 0 0.74314483375859142 0.66913059716165679 1 0 0 1 I I #
coedge $-1 $532 $532 $-1 $723 reversed $364 $-1 #
edge $-1 $724 0 $724 6.2831853071796004 $365 $725 forward 7 unknown #
vertex $-1 $368 $726 #
ellipse-curve $-1 17.204847650300252 32.558980493864937 8.9249393659082568 0 0.74314483375859142 0.66913059716165679 1 0 0 1 I I #
face $-1 $-1 $727 $77 $-1 $728 reversed single #
loop $-1 $-1 $375 $369 #
plane-surface $-1 0 0 11.556410923637729 0 0 1 1 0 0 forward_v I I I I #
coedge $-1 $729 $730 $731 $732 reversed $370 $-1 #
coedge $-1 $733 $372 $374 $546 forward $234 $-1 #
coedge $-1 $372 $733 $729 $734 forward $234 $-1 #
coedge $-1 $731 $375 $372 $543 forward $537 $-1 #
edge $-1 $549 10.977080894218538 $735 24.014032100444872 $542 $736 forward 7 unknown #
coedge $-1 $737 $738 $373 $545 forward $727 $-1 #
edge $-1 $739 -56.380376472672118 $548 -51.11743335721318 $544 $740 forward 7 unknown #
edge $-1 $549 62.774747704557441 $739 69.856736135857744 $374 $741 forward 7 unknown #
coedge $-1 $375 $731 $737 $742 forward $537 $-1 #
vertex $-1 $376 $743 #
vertex $-1 $376 $744 #
straight-curve $-1 28.472637391550244 31.376111715385246 11.556410923637728 0 -1 0 I I #
coedge $-1 $551 $551 $-1 $745 reversed $379 $-1 #
edge $-1 $746 0 $746 6.2831853071796004 $380 $747 forward 7 unknown #
vertex $-1 $383 $748 #
ellipse-curve $-1 31.080027632795506 32.558980493864937 8.9249393659082568 0 0.74314483375859142 0.66913059716165679 1 0 0 1 I I #
coedge $-1 $555 $555 $-1 $749 reversed $386 $-1 #
edge $-1 $750 0 $750 6.2831853071796004 $387 $751 forward 7 unknown #
vertex $-1 $390 $752 #
ellipse-curve $-1 34.991112994663411 32.558980493864937 8.9249393659082568 0 0.74314483375859142 0.66913059716165679 1 0 0 1 I I #
coedge $-1 $559 $559 $-1 $753 reversed $393 $-1 #
edge $-1 $754 0 $754 6.2831853071796004 $394 $755 forward 7 unknown #
vertex $-1 $397 $756 #
ellipse-curve $-1 38.902198356531315 32.558980493864937 8.9249393659082568 0 0.74314483375859142 0.66913059716165679 1 0 0 1 I I #
face $-1 $-1 $757 $81 $-1 $758 reversed single #
loop $-1 $-1 $569 $398 #
plane-surface $-1 0 0 11.556410923637729 0 0 1 1 0 0 forward_v I I I I #
coedge $-1 $759 $760 $568 $761 forward $399 $-1 #
coedge $-1 $568 $401 $403 $574 reversed $253 $-1 #
coedge $-1 $401 $567 $566 $761 reversed $253 $-1 #
coedge $-1 $762 $404 $401 $570 forward $564 $-1 #
edge $-1 $577 -30.578105953028093 $763 -25.53988963314368 $569 $764 forward 7 unknown #
coedge $-1 $403 $402 $759 $765 reversed $160 $-1 #
coedge $-1 $766 $767 $402 $573 forward $757 $-1 #
edge $-1 $768 -7.6355047589220346 $576 2.1467165813524165 $572 $769 forward 7 unknown #
edge $-1 $770 1.393735185947377e-014 $577 9.782221340274468 $567 $771 forward 7 unknown #
coedge $-1 $404 $762 $766 $772 forward $564 $-1 #
vertex $-1 $573 $773 #
vertex $-1 $405 $774 #
straight-curve $-1 21.55171686045783 -29.890151748044481 11.556410923637729 -1 0 0 I I #
coedge $-1 $579 $579 $-1 $775 reversed $408 $-1 #
edge $-1 $776 0 $776 6.2831853071796004 $409 $777 forward 7 unknown #
vertex $-1 $412 $778 #
ellipse-curve $-1 40.074910416544682 -32.409259907986687 7.363910754759635 0 -0.85716730853699208 0.51503806187062418 2 0 0 1 I I #
coedge $-1 $583 $583 $-1 $779 reversed $415 $-1 #
edge $-1 $780 0 $780 6.2831853071796004 $416 $781 forward 7 unknown #
vertex $-1 $419 $782 #
ellipse-curve $-1 46.131957025286667 -32.409259907986687 7.363910754759635 0 -0.85716730853699208 0.51503806187062418 2 0 0 1 I I #
face $-1 $-1 $435 $63 $-1 $783 reversed single #
loop $-1 $-1 $603 $420 #
plane-surface $-1 0 34.928368067928893 0 0 -1 0 0 0 -1 forward_v I I I I #
coedge $-1 $784 $601 $604 $785 forward $421 $-1 #
coedge $-1 $607 $423 $424 $595 reversed $267 $-1 #
coedge $-1 $601 $784 $423 $593 reversed $421 $-1 #
edge $-1 $608 -11.556410923637729 $786 11.556410923637729 $592 $787 forward 7 unknown #
coedge $-1 $425 $424 $784 $788 forward $169 $-1 #
edge $-1 $599 -50.1699880977813 $786 50.1699880977813 $591 $789 forward 7 unknown #
coedge $-1 $604 $603 $425 $597 reversed $588 $-1 #
edge $-1 $790 -50.1699880977813 $598 50.1699880977813 $596 $791 forward 7 unknown #
vertex $-1 $427 $792 #
vertex $-1 $610 $793 #
straight-curve $-1 50.1699880977813 0 -11.556410923637729 0 -1 0 I I #
coedge $-1 $590 $592 $428 $602 reversed $421 $-1 #
edge $-1 $605 -34.928368067928893 $608 34.928368067928893 $601 $794 forward 7 unknown #
coedge $-1 $596 $429 $434 $611 forward $588 $-1 #
coedge $-1 $429 $596 $590 $785 reversed $588 $-1 #
vertex $-1 $430 $795 #
straight-curve $-1 0 34.928368067928893 11.556410923637729 -1 0 0 I I #
coedge $-1 $431 $591 $433 $610 reversed $267 $-1 #
vertex $-1 $602 $796 #
straight-curve $-1 0 -34.928368067928893 11.556410923637729 1 0 0 I I #
edge $-1 $436 -11.556410923637729 $599 11.556410923637729 $433 $797 forward 7 unknown #
edge $-1 $437 -11.556410923637729 $598 11.556410923637729 $434 $798 forward 7 unknown #
point $-1 50.1699880977813 -34.928368067928893 11.556410923637729 #
point $-1 50.1699880977813 34.928368067928893 11.556410923637729 #
face $-1 $-1 $630 $64 $-1 $799 forward single #
plane-surface $-1 -56.945274783100473 -13.181601027291952 0 0 -1 0 0 0 -1 forward_v I I I I #
coedge $-1 $800 $801 $633 $802 forward $440 $-1 #
coedge $-1 $626 $442 $443 $622 reversed $275 $-1 #
coedge $-1 $442 $626 $629 $803 reversed $275 $-1 #
coedge $-1 $801 $800 $442 $620 reversed $440 $-1 #
edge $-1 $804 -11.556410923637729 $805 11.556410923637729 $619 $806 forward 7 unknown #
coedge $-1 $444 $443 $800 $807 forward $173 $-1 #
edge $-1 $624 -6.7752866853191733 $805 6.7752866853191733 $617 $808 forward 7 unknown #
edge $-1 $809 -6.7752866853191733 $452 6.7752866853191733 $449 $810 forward 7 unknown #
vertex $-1 $622 $811 #
straight-curve $-1 -50.1699880977813 0 -11.556410923637729 0 -1 0 I I #
coedge $-1 $618 $617 $446 $627 reversed $275 $-1 #
edge $-1 $631 -11.556410923637729 $624 11.556410923637729 $626 $812 forward 7 unknown #
coedge $-1 $813 $447 $450 $634 forward $630 $-1 #
coedge $-1 $447 $813 $618 $803 forward $630 $-1 #
loop $-1 $-1 $447 $614 #
vertex $-1 $448 $814 #
straight-curve $-1 -50.1699880977813 0 11.556410923637729 0 1 0 I I #
coedge $-1 $450 $449 $616 $802 reversed $451 $-1 #
edge $-1 $453 -6.7752866853191733 $815 6.7752866853191733 $450 $816 forward 7 unknown #
point $-1 -50.1699880977813 -13.181601027291952 -11.556410923637729 #
point $-1 -50.1699880977813 -13.181601027291952 11.556410923637729 #
loop $-1 $-1 $463 $455 #
plane-surface $-1 0 34.928368067928893 0 0 -1 0 0 0 -1 forward_v I I I I #
coedge $-1 $640 $458 $460 $644 reversed $283 $-1 #
coedge $-1 $458 $639 $817 $818 reversed $283 $-1 #
coedge $-1 $466 $461 $458 $642 forward $456 $-1 #
edge $-1 $645 -1.1865187955842735 $819 3.5522563525436475 $641 $820 forward 7 unknown #
coedge $-1 $460 $459 $648 $821 reversed $177 $-1 #
edge $-1 $822 -69.856736135857744 $645 -62.774747704557441 $639 $823 forward 7 unknown #
vertex $-1 $462 $824 #
straight-curve $-1 -15.050469562014889 30.189592919800972 11.556410923637728 1 0 0 I I #
coedge $-1 $817 $463 $466 $652 reversed $637 $-1 #
coedge $-1 $463 $817 $643 $821 forward $637 $-1 #
vertex $-1 $464 $825 #
straight-curve $-1 -36.619414727142946 34.928368067928893 62.673844280850908 0 0 1 I I #
straight-curve $-1 -36.619414727142946 -11.8149114984219 58.207140370778589 0 0.66913059716165679 -0.74314483375859142 I I #
edge $-1 $819 23.582463520916612 $467 36.619414727142946 $647 $826 forward 7 unknown #
point $-1 -36.619414727142946 34.928368067928893 11.556410923637729 #
point $-1 -36.619414727142946 30.189592919800972 11.556410923637728 #
edge $-1 $827 1 $827 0 $470 $-1 forward 7 unknown #
vertex $-1 $471 $828 #
ellipse-curve $-1 -34.012024485897683 31.650773002551617 8.1071856880207704 0 0.74314483375859142 0.66913059716165679 1 0 0 1 I I #
point $-1 -33.012024485897683 32.558980493864915 8.9249393659082354 #
edge $-1 $829 1 $829 0 $474 $-1 forward 7 unknown #
vertex $-1 $475 $830 #
ellipse-curve $-1 -30.100939124029779 31.650773002551617 8.1071856880207704 0 0.74314483375859142 0.66913059716165679 1 0 0 1 I I #
point $-1 -29.100939124029779 32.558980493864915 8.9249393659082354 #
edge $-1 $831 1 $831 0 $478 $-1 forward 7 unknown #
vertex $-1 $479 $832 #
ellipse-curve $-1 -26.189853762161878 31.650773002551617 8.1071856880207704 0 0.74314483375859142 0.66913059716165679 1 0 0 1 I I #
point $-1 -25.189853762161878 32.558980493864915 8.9249393659082354 #
loop $-1 $-1 $490 $482 #
plane-surface $-1 0 34.928368067928893 0 0 -1 0 0 0 -1 forward_v I I I I #
coedge $-1 $670 $485 $487 $674 reversed $312 $-1 #
coedge $-1 $485 $669 $833 $834 reversed $312 $-1 #
coedge $-1 $493 $488 $485 $672 forward $483 $-1 #
edge $-1 $675 -1.1865187955842735 $835 3.5522563525436475 $671 $836 forward 7 unknown #
coedge $-1 $487 $486 $678 $837 reversed $196 $-1 #
edge $-1 $838 -69.856736135857744 $675 -62.774747704557441 $669 $839 forward 7 unknown #
vertex $-1 $489 $840 #
straight-curve $-1 -4.2017942088993578 30.189592919800972 11.556410923637728 1 0 0 I I #
coedge $-1 $833 $490 $493 $682 reversed $667 $-1 #
coedge $-1 $490 $833 $673 $837 forward $667 $-1 #
vertex $-1 $491 $841 #
straight-curve $-1 -14.922064020911884 34.928368067928893 62.673844280850908 0 0 1 I I #
straight-curve $-1 -14.922064020911884 -11.8149114984219 58.207140370778589 0 0.66913059716165679 -0.74314483375859142 I I #
edge $-1 $835 1.8851128146855469 $494 14.922064020911884 $677 $842 forward 7 unknown #
point $-1 -14.922064020911884 34.928368067928893 11.556410923637729 #
point $-1 -14.922064020911884 30.189592919800972 11.556410923637728 #
edge $-1 $843 1 $843 0 $497 $-1 forward 7 unknown #
vertex $-1 $498 $844 #
ellipse-curve $-1 -12.31467377966662 31.650773002551617 8.1071856880207704 0 0.74314483375859142 0.66913059716165679 1 0 0 1 I I #
point $-1 -11.31467377966662 32.558980493864915 8.9249393659082354 #
edge $-1 $845 1 $845 0 $501 $-1 forward 7 unknown #
vertex $-1 $502 $846 #
ellipse-curve $-1 -8.4035884177987157 31.650773002551617 8.1071856880207704 0 0.74314483375859142 0.66913059716165679 1 0 0 1 I I #
point $-1 -7.4035884177987157 32.558980493864915 8.9249393659082354 #
edge $-1 $847 1 $847 0 $505 $-1 forward 7 unknown #
vertex $-1 $506 $848 #
ellipse-curve $-1 -4.4925030559308112 31.650773002551617 8.1071856880207704 0 0.74314483375859142 0.66913059716165679 1 0 0 1 I I #
point $-1 -3.4925030559308112 32.558980493864915 8.9249393659082354 #
loop $-1 $-1 $517 $509 #
plane-surface $-1 0 34.928368067928893 0 0 -1 0 0 0 -1 forward_v I I I I #
coedge $-1 $700 $512 $514 $704 reversed $341 $-1 #
coedge $-1 $512 $699 $849 $850 reversed $341 $-1 #
coedge $-1 $520 $515 $512 $702 forward $510 $-1 #
edge $-1 $705 -1.1865187955842735 $851 3.5522563525436475 $701 $852 forward 7 unknown #
coedge $-1 $514 $513 $708 $853 reversed $215 $-1 #
edge $-1 $854 -69.856736135857744 $705 -62.774747704557441 $699 $855 forward 7 unknown #
vertex $-1 $516 $856 #
straight-curve $-1 6.6468811442161737 30.189592919800972 11.556410923637728 1 0 0 I I #
coedge $-1 $849 $517 $520 $712 reversed $697 $-1 #
coedge $-1 $517 $849 $703 $853 forward $697 $-1 #
vertex $-1 $518 $857 #
straight-curve $-1 6.7752866853191787 34.928368067928893 62.673844280850908 0 0 1 I I #
straight-curve $-1 6.7752866853191787 -11.8149114984219 58.207140370778589 0 0.66913059716165679 -0.74314483375859142 I I #
edge $-1 $851 -19.812237891545514 $521 -6.7752866853191787 $707 $858 forward 7 unknown #
point $-1 6.7752866853191787 34.928368067928893 11.556410923637729 #
point $-1 6.7752866853191787 30.189592919800972 11.556410923637728 #
edge $-1 $859 1 $859 0 $524 $-1 forward 7 unknown #
vertex $-1 $525 $860 #
ellipse-curve $-1 9.382676926564443 31.650773002551617 8.1071856880207704 0 0.74314483375859142 0.66913059716165679 1 0 0 1 I I #
point $-1 10.382676926564443 32.558980493864915 8.9249393659082354 #
edge $-1 $861 1 $861 0 $528 $-1 forward 7 unknown #
vertex $-1 $529 $862 #
ellipse-curve $-1 13.293762288432347 31.650773002551617 8.1071856880207704 0 0.74314483375859142 0.66913059716165679 1 0 0 1 I I #
point $-1 14.293762288432347 32.558980493864915 8.9249393659082354 #
edge $-1 $863 1 $863 0 $532 $-1 forward 7 unknown #
vertex $-1 $533 $864 #
ellipse-curve $-1 17.204847650300252 31.650773002551617 8.1071856880207704 0 0.74314483375859142 0.66913059716165679 1 0 0 1 I I #
point $-1 18.204847650300252 32.558980493864915 8.9249393659082354 #
loop $-1 $-1 $544 $536 #
plane-surface $-1 0 34.928368067928893 0 0 -1 0 0 0 -1 forward_v I I I I #
coedge $-1 $730 $539 $541 $734 reversed $370 $-1 #
coedge $-1 $539 $729 $865 $866 reversed $370 $-1 #
coedge $-1 $547 $542 $539 $732 forward $537 $-1 #
edge $-1 $735 -1.1865187955842735 $867 3.5522563525436475 $731 $868 forward 7 unknown #
coedge $-1 $541 $540 $738 $869 reversed $234 $-1 #
edge $-1 $870 -69.856736135857744 $735 -62.774747704557441 $729 $871 forward 7 unknown #
vertex $-1 $543 $872 #
straight-curve $-1 17.495556497331705 30.189592919800972 11.556410923637728 1 0 0 I I #
coedge $-1 $865 $544 $547 $742 reversed $727 $-1 #
coedge $-1 $544 $865 $733 $869 forward $727 $-1 #
vertex $-1 $545 $873 #
straight-curve $-1 28.472637391550244 34.928368067928893 62.673844280850908 0 0 1 I I #
straight-curve $-1 28.472637391550244 -11.8149114984219 58.207140370778589 0 0.66913059716165679 -0.74314483375859142 I I #
edge $-1 $867 -41.509588597776578 $548 -28.472637391550244 $737 $874 forward 7 unknown #
point $-1 28.472637391550244 34.928368067928893 11.556410923637729 #
point $-1 28.472637391550244 30.189592919800972 11.556410923637728 #
edge $-1 $875 1 $875 0 $551 $-1 forward 7 unknown #
vertex $-1 $552 $876 #
ellipse-curve $-1 31.080027632795506 31.650773002551617 8.1071856880207704 0 0.74314483375859142 0.66913059716165679 1 0 0 1 I I #
point $-1 32.080027632795506 32.558980493864915 8.9249393659082354 #
edge $-1 $877 1 $877 0 $555 $-1 forward 7 unknown #
vertex $-1 $556 $878 #
ellipse-curve $-1 34.991112994663411 31.650773002551617 8.1071856880207704 0 0.74314483375859142 0.66913059716165679 1 0 0 1 I I #
point $-1 35.991112994663411 32.558980493864915 8.9249393659082354 #
edge $-1 $879 1 $879 0 $559 $-1 forward 7 unknown #
vertex $-1 $560 $880 #
ellipse-curve $-1 38.902198356531315 31.650773002551617 8.1071856880207704 0 0.74314483375859142 0.66913059716165679 1 0 0 1 I I #
point $-1 39.902198356531315 32.558980493864915 8.9249393659082354 #
loop $-1 $-1 $572 $563 #
plane-surface $-1 50.1699880977813 0 0 -1 0 0 0 0 1 forward_v I I I I #
coedge $-1 $881 $566 $571 $765 forward $399 $-1 #
coedge $-1 $566 $881 $762 $882 reversed $399 $-1 #
edge $-1 $763 15.868747803256602 $770 24.253748141012782 $566 $883 forward 7 unknown #
coedge $-1 $575 $569 $760 $882 forward $564 $-1 #
vertex $-1 $882 $884 #
straight-curve $-1 36.036879344050014 -60.468257701072574 11.556410923637728 0 -1 0 I I #
edge $-1 $770 14.485162483592184 $768 28.618271237323476 $759 $885 forward 7 unknown #
coedge $-1 $767 $572 $575 $772 reversed $757 $-1 #
coedge $-1 $572 $766 $881 $886 forward $757 $-1 #
vertex $-1 $765 $887 #
straight-curve $-1 50.1699880977813 -30.995792495489759 9.7163156494081448 0 0.51503806187062429 0.85716730853699219 I I #
vertex $-1 $765 $888 #
straight-curve $-1 36.036879344050014 -34.928368067928901 3.1714105858815387 0 0.51503806187062418 0.85716730853699208 I I #
edge $-1 $889 -34.928368067928893 $576 -29.890151748044481 $766 $890 forward 7 unknown #
point $-1 50.169988097781307 -29.890151748044481 11.556410923637729 #
point $-1 36.036879344050014 -29.890151748044481 11.556410923637729 #
edge $-1 $891 1 $891 0 $579 $-1 forward 7 unknown #
vertex $-1 $580 $892 #
ellipse-curve $-1 40.074910416544682 -26.63115647741169 3.8920760702910058 0 -0.85716730853699208 0.51503806187062418 2 0 0 1 I I #
point $-1 42.074910416544682 -32.40925990798668 7.3639107547596314 #
edge $-1 $893 1 $893 0 $583 $-1 forward 7 unknown #
vertex $-1 $584 $894 #
ellipse-curve $-1 46.131957025286667 -26.63115647741169 3.8920760702910058 0 -0.85716730853699208 0.51503806187062418 2 0 0 1 I I #
point $-1 48.131957025286667 -32.40925990798668 7.3639107547596314 #
plane-surface $-1 50.1699880977813 0 0 -1 0 0 0 0 1 forward_v I I I I #
coedge $-1 $592 $590 $594 $788 reversed $421 $-1 #
edge $-1 $605 -11.556410923637729 $790 11.556410923637729 $604 $895 forward 7 unknown #
vertex $-1 $788 $896 #
straight-curve $-1 -50.1699880977813 -34.928368067928893 0 0 0 -1 I I #
edge $-1 $786 -34.928368067928893 $790 34.928368067928893 $784 $897 forward 7 unknown #
straight-curve $-1 0 -34.928368067928893 -11.556410923637729 -1 0 0 I I #
vertex $-1 $597 $898 #
straight-curve $-1 0 34.928368067928893 -11.556410923637729 1 0 0 I I #
point $-1 50.1699880977813 34.928368067928893 -11.556410923637729 #
point $-1 50.1699880977813 -34.928368067928893 -11.556410923637729 #
straight-curve $-1 -50.1699880977813 0 11.556410923637729 0 -1 0 I I #
point $-1 -50.1699880977813 34.928368067928893 11.556410923637729 #
point $-1 -50.1699880977813 -34.928368067928893 11.556410923637729 #
straight-curve $-1 50.1699880977813 -34.928368067928893 0 0 0 -1 I I #
straight-curve $-1 50.1699880977813 34.928368067928893 0 0 0 -1 I I #
plane-surface $-1 0 0 11.556410923637729 0 0 1 1 0 0 forward_v I I I I #
coedge $-1 $619 $616 $621 $807 reversed $440 $-1 #
coedge $-1 $616 $619 $813 $899 reversed $440 $-1 #
edge $-1 $815 -11.556410923637729 $809 11.556410923637729 $633 $900 forward 7 unknown #
edge $-1 $804 -6.7752866853191733 $631 6.7752866853191733 $618 $901 forward 7 unknown #
vertex $-1 $899 $902 #
vertex $-1 $807 $903 #
straight-curve $-1 -63.720561468419646 -18.546001840021667 0 0 0 -1 I I #
edge $-1 $805 -2.6822004063648563 $809 2.6822004063648581 $800 $904 forward 7 unknown #
straight-curve $-1 -56.945274783100473 -18.546001840021667 -11.556410923637729 -1 0 0 I I #
vertex $-1 $623 $905 #
straight-curve $-1 -56.945274783100473 -13.181601027291952 -11.556410923637729 1 0 0 I I #
point $-1 -50.1699880977813 -18.546001840021667 -11.556410923637729 #
straight-curve $-1 -50.1699880977813 -18.546001840021667 0 0 0 -1 I I #
coedge $-1 $629 $628 $801 $899 forward $630 $-1 #
point $-1 -50.1699880977813 -18.546001840021667 11.556410923637729 #
vertex $-1 $634 $906 #
straight-curve $-1 -56.945274783100473 -13.181601027291952 11.556410923637729 -1 0 0 I I #
coedge $-1 $648 $647 $640 $818 forward $637 $-1 #
edge $-1 $819 51.11743335721318 $822 56.380376472672118 $817 $907 forward 7 unknown #
vertex $-1 $652 $908 #
straight-curve $-1 -23.582463520916612 31.376111715385246 11.556410923637728 0 1 0 I I #
edge $-1 $822 8.5319939589017224 $649 21.568945165128056 $648 $909 forward 7 unknown #
vertex $-1 $821 $910 #
straight-curve $-1 -23.582463520916612 -11.8149114984219 58.207140370778589 0 -0.66913059716165679 0.74314483375859142 I I #
point $-1 -23.582463520916612 30.189592919800972 11.556410923637728 #
point $-1 -36.619414727142946 34.928368067928893 6.2934678081787894 #
straight-curve $-1 0 34.928368067928893 11.556410923637729 -1 0 0 I I #
vertex $-1 $655 $911 #
point $-1 -33.012024485897683 31.650773002551617 8.1071856880207704 #
vertex $-1 $659 $912 #
point $-1 -29.100939124029779 31.650773002551617 8.1071856880207704 #
vertex $-1 $663 $913 #
point $-1 -25.189853762161878 31.650773002551617 8.1071856880207704 #
coedge $-1 $678 $677 $670 $834 forward $667 $-1 #
edge $-1 $835 51.11743335721318 $838 56.380376472672118 $833 $914 forward 7 unknown #
vertex $-1 $682 $915 #
straight-curve $-1 -1.8851128146855469 31.376111715385246 11.556410923637728 0 1 0 I I #
edge $-1 $838 -2.3166813942138109 $679 10.720269812012527 $678 $916 forward 7 unknown #
vertex $-1 $837 $917 #
straight-curve $-1 -1.8851128146855469 -11.8149114984219 58.207140370778589 0 -0.66913059716165679 0.74314483375859142 I I #
point $-1 -1.8851128146855469 30.189592919800972 11.556410923637728 #
point $-1 -14.922064020911884 34.928368067928893 6.2934678081787894 #
straight-curve $-1 0 34.928368067928893 11.556410923637729 -1 0 0 I I #
vertex $-1 $685 $918 #
point $-1 -11.31467377966662 31.650773002551617 8.1071856880207704 #
vertex $-1 $689 $919 #
point $-1 -7.4035884177987157 31.650773002551617 8.1071856880207704 #
vertex $-1 $693 $920 #
point $-1 -3.4925030559308112 31.650773002551617 8.1071856880207704 #
coedge $-1 $708 $707 $700 $850 forward $697 $-1 #
edge $-1 $851 51.11743335721318 $854 56.380376472672118 $849 $921 forward 7 unknown #
vertex $-1 $712 $922 #
straight-curve $-1 19.812237891545514 31.376111715385246 11.556410923637728 0 1 0 I I #
edge $-1 $854 -13.165356747329341 $709 -0.12840554110300495 $708 $923 forward 7 unknown #
vertex $-1 $853 $924 #
straight-curve $-1 19.812237891545514 -11.8149114984219 58.207140370778589 0 -0.66913059716165679 0.74314483375859142 I I #
point $-1 19.812237891545514 30.189592919800972 11.556410923637728 #
point $-1 6.7752866853191787 34.928368067928893 6.2934678081787894 #
straight-curve $-1 0 34.928368067928893 11.556410923637729 -1 0 0 I I #
vertex $-1 $715 $925 #
point $-1 10.382676926564443 31.650773002551617 8.1071856880207704 #
vertex $-1 $719 $926 #
point $-1 14.293762288432347 31.650773002551617 8.1071856880207704 #
vertex $-1 $723 $927 #
point $-1 18.204847650300252 31.650773002551617 8.1071856880207704 #
coedge $-1 $738 $737 $730 $866 forward $727 $-1 #
edge $-1 $867 51.11743335721318 $870 56.380376472672118 $865 $928 forward 7 unknown #
vertex $-1 $742 $929 #
straight-curve $-1 41.509588597776578 31.376111715385246 11.556410923637728 0 1 0 I I #
edge $-1 $870 -24.014032100444872 $739 -10.977080894218538 $738 $930 forward 7 unknown #
vertex $-1 $869 $931 #
straight-curve $-1 41.509588597776578 -11.8149114984219 58.207140370778589 0 -0.66913059716165679 0.74314483375859142 I I #
point $-1 41.509588597776578 30.189592919800972 11.556410923637728 #
point $-1 28.472637391550244 34.928368067928893 6.2934678081787894 #
straight-curve $-1 0 34.928368067928893 11.556410923637729 -1 0 0 I I #
vertex $-1 $745 $932 #
point $-1 32.080027632795506 31.650773002551617 8.1071856880207704 #
vertex $-1 $749 $933 #
point $-1 35.991112994663411 31.650773002551617 8.1071856880207704 #
vertex $-1 $753 $934 #
point $-1 39.902198356531315 31.650773002551617 8.1071856880207704 #
coedge $-1 $760 $759 $767 $886 reversed $399 $-1 #
edge $-1 $763 36.036879344050014 $889 50.1699880977813 $760 $935 forward 7 unknown #
straight-curve $-1 36.036879344050014 -34.928368067928893 27.425158726894331 0 0 -1 I I #
point $-1 36.036879344050014 -34.928368067928893 11.556410923637729 #
straight-curve $-1 21.55171686045783 -34.928368067928893 3.1714105858815529 1 0 0 I I #
edge $-1 $889 -11.556410923637729 $768 -3.1714105858815507 $767 $936 forward 7 unknown #
point $-1 50.169988097781307 -34.928368067928893 3.1714105858815507 #
point $-1 36.036879344050014 -34.928368067928893 3.1714105858815507 #
vertex $-1 $772 $937 #
straight-curve $-1 50.1699880977813 0 11.556410923637729 0 1 0 I I #
vertex $-1 $775 $938 #
point $-1 42.074910416544682 -26.63115647741169 3.8920760702910058 #
vertex $-1 $779 $939 #
point $-1 48.131957025286667 -26.63115647741169 3.8920760702910058 #
straight-curve $-1 -50.1699880977813 34.928368067928893 0 0 0 -1 I I #
point $-1 -50.1699880977813 -34.928368067928893 -11.556410923637729 #
straight-curve $-1 -50.1699880977813 0 -11.556410923637729 0 1 0 I I #
point $-1 -50.1699880977813 34.928368067928893 -11.556410923637729 #
edge $-1 $815 -2.6822004063648581 $804 2.6822004063648563 $801 $940 forward 7 unknown #
straight-curve $-1 -63.720561468419646 -13.181601027291952 0 0 0 -1 I I #
straight-curve $-1 -56.945274783100473 -18.546001840021667 11.556410923637729 1 0 0 I I #
point $-1 -63.720561468419646 -18.546001840021667 11.556410923637729 #
point $-1 -63.720561468419646 -18.546001840021667 -11.556410923637729 #
straight-curve $-1 -63.720561468419646 -15.863801433656811 -11.556410923637729 0 1 0 I I #
point $-1 -63.720561468419646 -13.181601027291952 -11.556410923637729 #
point $-1 -63.720561468419646 -13.181601027291952 11.556410923637729 #
straight-curve $-1 -23.582463520916612 34.928368067928893 62.673844280850908 0 0 -1 I I #
point $-1 -23.582463520916612 34.928368067928893 11.556410923637729 #
straight-curve $-1 -15.050469562014889 34.928368067928901 6.2934678081787823 -1 0 0 I I #
point $-1 -23.582463520916612 34.928368067928893 6.2934678081787894 #
point $-1 -34.012024485897683 30.907628168793025 7.4380550908591134 #
point $-1 -30.100939124029779 30.907628168793025 7.4380550908591134 #
point $-1 -26.189853762161878 30.907628168793025 7.4380550908591134 #
straight-curve $-1 -1.8851128146855469 34.928368067928893 62.673844280850908 0 0 -1 I I #
point $-1 -1.8851128146855469 34.928368067928893 11.556410923637729 #
straight-curve $-1 -4.2017942088993578 34.928368067928901 6.2934678081787823 -1 0 0 I I #
point $-1 -1.8851128146855469 34.928368067928893 6.2934678081787894 #
point $-1 -12.31467377966662 30.907628168793025 7.4380550908591134 #
point $-1 -8.4035884177987157 30.907628168793025 7.4380550908591134 #
point $-1 -4.4925030559308112 30.907628168793025 7.4380550908591134 #
straight-curve $-1 19.812237891545514 34.928368067928893 62.673844280850908 0 0 -1 I I #
point $-1 19.812237891545514 34.928368067928893 11.556410923637729 #
straight-curve $-1 6.6468811442161737 34.928368067928901 6.2934678081787823 -1 0 0 I I #
point $-1 19.812237891545514 34.928368067928893 6.2934678081787894 #
point $-1 9.382676926564443 30.907628168793025 7.4380550908591134 #
point $-1 13.293762288432347 30.907628168793025 7.4380550908591134 #
point $-1 17.204847650300252 30.907628168793025 7.4380550908591134 #
straight-curve $-1 41.509588597776578 34.928368067928893 62.673844280850908 0 0 -1 I I #
point $-1 41.509588597776578 34.928368067928893 11.556410923637729 #
straight-curve $-1 17.495556497331705 34.928368067928901 6.2934678081787823 -1 0 0 I I #
point $-1 41.509588597776578 34.928368067928893 6.2934678081787894 #
point $-1 31.080027632795506 30.907628168793025 7.4380550908591134 #
point $-1 34.991112994663411 30.907628168793025 7.4380550908591134 #
point $-1 38.902198356531315 30.907628168793025 7.4380550908591134 #
straight-curve $-1 0 -34.928368067928893 11.556410923637729 1 0 0 I I #
straight-curve $-1 50.1699880977813 -34.928368067928893 0 0 0 -1 I I #
point $-1 50.1699880977813 -34.928368067928893 11.556410923637729 #
point $-1 40.074910416544682 -24.916821860337702 2.8619999465497572 #
point $-1 46.131957025286667 -24.916821860337702 2.8619999465497572 #
straight-curve $-1 -63.720561468419646 -15.863801433656811 11.556410923637729 0 -1 0 I I #
End-of-ACIS-data 