500 0 3 0           
7 Unknown 11 ACIS 5.0 NT 24 Fri Mar 26 14:51:45 1999 
-1 9.9999999999999995e-007 1e-010 
body $-1 $3 $-1 $4 #
body $-1 $5 $-1 $6 #
body $-1 $7 $-1 $8 #
lump $-1 $-1 $9 $0 #
transform $-1 1 0 0 0 1 0 0 0 1 41.342814416943874 24.923154882113629 11.332973137517271 1 rotate no_reflect no_shear #
lump $-1 $-1 $10 $1 #
transform $-1 1 0 0 0 1 0 0 0 1 41.342814416943874 24.923154882113629 11.332973137517271 1 rotate no_reflect no_shear #
lump $-1 $-1 $11 $2 #
transform $-1 1 0 0 0 1 0 0 0 1 41.342814416943874 24.923154882113629 11.332973137517271 1 rotate no_reflect no_shear #
shell $-1 $-1 $-1 $12 $-1 $3 #
shell $-1 $-1 $-1 $13 $-1 $5 #
shell $-1 $-1 $-1 $14 $-1 $7 #
face $-1 $15 $16 $9 $-1 $17 forward single #
face $-1 $18 $19 $10 $-1 $20 reversed single #
face $-1 $21 $22 $11 $-1 $23 forward single #
face $-1 $24 $25 $9 $-1 $26 reversed single #
loop $-1 $-1 $27 $12 #
plane-surface $-1 0 0 11.332973137517271 0 0 1 1 0 0 forward_v I I I I #
face $-1 $28 $29 $10 $-1 $30 reversed single #
loop $-1 $-1 $31 $13 #
plane-surface $-1 -39.568420908615224 -13.367153869050943 0 0 -1 0 0 0 -1 forward_v I I I I #
face $-1 $32 $33 $11 $-1 $34 reversed single #
loop $-1 $-1 $35 $14 #
plane-surface $-1 0 20.496063311962359 -7.8292869752907173 0 0 1 1 0 0 forward_v I I I I #
face $-1 $36 $37 $9 $-1 $38 reversed single #
loop $-1 $-1 $39 $15 #
plane-surface $-1 0 0 -11.332973137517271 0 0 1 1 0 0 forward_v I I I I #
coedge $-1 $40 $41 $42 $43 forward $16 $-1 #
face $-1 $44 $45 $10 $-1 $46 forward single #
loop $-1 $-1 $47 $18 #
plane-surface $-1 -37.794027400286573 -19.145154375582287 0 -1 0 0 0 0 1 forward_v I I I I #
coedge $-1 $48 $49 $50 $51 forward $19 $-1 #
face $-1 $52 $53 $11 $-1 $54 reversed single #
loop $-1 $-1 $55 $21 #
plane-surface $-1 0 16.06897174181109 -9.5811300564039943 0 1 0 0 0 1 forward_v I I I I #
coedge $-1 $56 $57 $58 $59 reversed $22 $-1 #
face $-1 $60 $61 $9 $-1 $62 reversed single #
loop $-1 $-1 $63 $24 #
plane-surface $-1 0 -24.923154882113629 0 0 1 0 0 0 1 forward_v I I I I #
coedge $-1 $64 $65 $66 $67 forward $25 $-1 #
coedge $-1 $68 $27 $69 $70 forward $16 $-1 #
coedge $-1 $27 $68 $71 $72 forward $16 $-1 #
coedge $-1 $73 $74 $27 $43 reversed $75 $-1 #
edge $-1 $76 -24.923154882113629 $77 24.923154882113629 $42 $78 forward 7 unknown #
face $-1 $79 $80 $10 $-1 $81 reversed single #
loop $-1 $-1 $82 $28 #
plane-surface $-1 0 0 11.332973137517271 0 0 1 1 0 0 forward_v I I I I #
coedge $-1 $83 $84 $85 $86 reversed $29 $-1 #
coedge $-1 $87 $31 $88 $89 reversed $19 $-1 #
coedge $-1 $31 $87 $90 $91 reversed $19 $-1 #
coedge $-1 $84 $83 $31 $51 reversed $29 $-1 #
edge $-1 $92 -11.332973137517271 $93 11.332973137517271 $50 $94 forward 7 unknown #
face $-1 $95 $96 $11 $-1 $97 reversed single #
loop $-1 $-1 $58 $32 #
plane-surface $-1 41.342814416943874 0 0 -1 0 0 0 0 1 forward_v I I I I #
coedge $-1 $98 $99 $100 $101 reversed $33 $-1 #
coedge $-1 $102 $35 $103 $104 reversed $22 $-1 #
coedge $-1 $35 $102 $99 $105 forward $22 $-1 #
coedge $-1 $106 $107 $35 $59 forward $53 $-1 #
edge $-1 $108 -14.675123226132449 $109 -5.8209400858299105 $58 $110 forward 7 unknown #
face $-1 $111 $112 $9 $-1 $113 reversed single #
loop $-1 $-1 $114 $36 #
plane-surface $-1 -41.342814416943874 0 0 1 0 0 0 0 -1 forward_v I I I I #
coedge $-1 $115 $71 $116 $117 forward $37 $-1 #
coedge $-1 $118 $39 $115 $119 forward $25 $-1 #
coedge $-1 $39 $118 $120 $121 forward $25 $-1 #
coedge $-1 $74 $73 $39 $67 reversed $75 $-1 #
edge $-1 $122 -24.923154882113629 $123 24.923154882113629 $66 $124 forward 7 unknown #
coedge $-1 $41 $40 $125 $126 forward $16 $-1 #
coedge $-1 $127 $128 $40 $70 reversed $112 $-1 #
edge $-1 $77 -41.342814416943874 $129 41.342814416943874 $69 $130 forward 7 unknown #
coedge $-1 $63 $131 $41 $72 reversed $37 $-1 #
edge $-1 $132 -41.342814416943874 $76 41.342814416943874 $71 $133 forward 7 unknown #
coedge $-1 $66 $42 $131 $134 forward $75 $-1 #
coedge $-1 $42 $66 $127 $135 reversed $75 $-1 #
loop $-1 $-1 $73 $111 #
vertex $-1 $43 $136 #
vertex $-1 $43 $137 #
straight-curve $-1 41.342814416943874 0 11.332973137517271 0 1 0 I I #
face $-1 $138 $139 $10 $-1 $140 reversed single #
loop $-1 $-1 $141 $44 #
plane-surface $-1 -41.342814416943874 0 0 1 0 0 0 0 -1 forward_v I I I I #
coedge $-1 $90 $142 $84 $143 forward $45 $-1 #
coedge $-1 $50 $47 $144 $145 reversed $29 $-1 #
coedge $-1 $47 $50 $82 $143 reversed $29 $-1 #
coedge $-1 $146 $147 $47 $86 forward $148 $-1 #
edge $-1 $149 -11.332973137517271 $150 11.332973137517271 $85 $151 forward 7 unknown #
coedge $-1 $49 $48 $141 $152 reversed $19 $-1 #
coedge $-1 $144 $153 $48 $89 forward $139 $-1 #
edge $-1 $154 -21.558603962636262 $93 -18.009816945978962 $88 $155 forward 7 unknown #
coedge $-1 $156 $82 $49 $91 forward $45 $-1 #
edge $-1 $92 18.009816945978962 $157 21.558603962636262 $90 $158 forward 7 unknown #
vertex $-1 $91 $159 #
vertex $-1 $89 $160 #
straight-curve $-1 -37.794027400286573 -13.367153869050943 0 0 0 -1 I I #
face $-1 $161 $162 $11 $-1 $163 reversed single #
loop $-1 $-1 $164 $52 #
plane-surface $-1 0 0 -11.332973137517271 0 0 1 1 0 0 forward_v I I I I #
coedge $-1 $165 $55 $164 $166 reversed $33 $-1 #
coedge $-1 $55 $165 $57 $105 reversed $33 $-1 #
coedge $-1 $167 $168 $55 $101 forward $162 $-1 #
edge $-1 $169 -6.5424081093152742 $170 -3.0387219470887201 $100 $171 forward 7 unknown #
coedge $-1 $57 $56 $167 $172 reversed $22 $-1 #
coedge $-1 $173 $174 $56 $104 forward $175 $-1 #
edge $-1 $176 -41.342814416943874 $108 41.342814416943874 $103 $177 forward 7 unknown #
edge $-1 $170 -41.342814416943874 $109 41.342814416943874 $99 $178 forward 7 unknown #
coedge $-1 $179 $58 $165 $180 forward $53 $-1 #
coedge $-1 $58 $179 $173 $181 reversed $53 $-1 #
vertex $-1 $181 $182 #
vertex $-1 $59 $183 #
straight-curve $-1 41.342814416943874 10.24803165598118 -7.8292869752907173 0 -1 0 I I #
face $-1 $-1 $75 $9 $-1 $184 reversed single #
loop $-1 $-1 $127 $60 #
plane-surface $-1 0 24.923154882113629 0 0 -1 0 0 0 -1 forward_v I I I I #
coedge $-1 $185 $125 $128 $186 forward $61 $-1 #
coedge $-1 $131 $63 $64 $119 reversed $37 $-1 #
coedge $-1 $125 $185 $63 $117 reversed $61 $-1 #
edge $-1 $132 -11.332973137517271 $187 11.332973137517271 $116 $188 forward 7 unknown #
coedge $-1 $65 $64 $185 $189 forward $25 $-1 #
edge $-1 $123 -41.342814416943874 $187 41.342814416943874 $115 $190 forward 7 unknown #
coedge $-1 $128 $127 $65 $121 reversed $112 $-1 #
edge $-1 $191 -41.342814416943874 $122 41.342814416943874 $120 $192 forward 7 unknown #
vertex $-1 $67 $193 #
vertex $-1 $134 $194 #
straight-curve $-1 41.342814416943874 0 -11.332973137517271 0 -1 0 I I #
coedge $-1 $114 $116 $68 $126 reversed $61 $-1 #
edge $-1 $129 -24.923154882113629 $132 24.923154882113629 $125 $195 forward 7 unknown #
coedge $-1 $120 $69 $74 $135 forward $112 $-1 #
coedge $-1 $69 $120 $114 $186 reversed $112 $-1 #
vertex $-1 $70 $196 #
straight-curve $-1 0 24.923154882113629 11.332973137517271 -1 0 0 I I #
coedge $-1 $71 $115 $73 $134 reversed $37 $-1 #
vertex $-1 $126 $197 #
straight-curve $-1 0 -24.923154882113629 11.332973137517271 1 0 0 I I #
edge $-1 $76 -11.332973137517271 $123 11.332973137517271 $73 $198 forward 7 unknown #
edge $-1 $77 -11.332973137517271 $122 11.332973137517271 $74 $199 forward 7 unknown #
point $-1 41.342814416943874 -24.923154882113629 11.332973137517271 #
point $-1 41.342814416943874 24.923154882113629 11.332973137517271 #
face $-1 $-1 $148 $10 $-1 $200 reversed single #
loop $-1 $-1 $144 $79 #
plane-surface $-1 0 0 -11.332973137517271 0 0 1 1 0 0 forward_v I I I I #
coedge $-1 $201 $202 $87 $152 forward $80 $-1 #
coedge $-1 $82 $156 $146 $203 forward $45 $-1 #
edge $-1 $150 -15.350577694322485 $92 -3.7945766812597999 $82 $204 forward 7 unknown #
coedge $-1 $205 $88 $83 $145 forward $139 $-1 #
edge $-1 $93 3.7945766812597999 $149 15.350577694322485 $144 $206 forward 7 unknown #
coedge $-1 $207 $85 $142 $203 reversed $148 $-1 #
coedge $-1 $85 $207 $205 $208 reversed $148 $-1 #
loop $-1 $-1 $85 $138 #
vertex $-1 $208 $209 #
vertex $-1 $86 $210 #
straight-curve $-1 -37.794027400286573 -24.923154882113629 0 0 0 1 I I #
edge $-1 $157 -11.332973137517271 $154 11.332973137517271 $141 $211 forward 7 unknown #
coedge $-1 $88 $205 $201 $212 forward $139 $-1 #
vertex $-1 $89 $213 #
straight-curve $-1 -19.784210454307612 -13.367153869050943 -11.332973137517271 1 0 0 I I #
coedge $-1 $142 $90 $202 $214 forward $45 $-1 #
vertex $-1 $214 $215 #
straight-curve $-1 -19.784210454307612 -13.367153869050943 11.332973137517271 -1 0 0 I I #
point $-1 -37.794027400286573 -13.367153869050943 11.332973137517271 #
point $-1 -37.794027400286573 -13.367153869050943 -11.332973137517271 #
face $-1 $-1 $175 $11 $-1 $216 reversed single #
loop $-1 $-1 $167 $95 #
plane-surface $-1 -41.342814416943874 0 0 1 0 0 0 0 -1 forward_v I I I I #
coedge $-1 $217 $218 $98 $166 forward $96 $-1 #
coedge $-1 $99 $98 $106 $180 reversed $33 $-1 #
edge $-1 $219 -41.342814416943874 $169 41.342814416943874 $164 $220 forward 7 unknown #
coedge $-1 $221 $100 $102 $172 forward $162 $-1 #
coedge $-1 $100 $221 $217 $222 reversed $162 $-1 #
vertex $-1 $222 $223 #
vertex $-1 $172 $224 #
straight-curve $-1 -41.342814416943874 16.06897174181109 -4.7905650282019971 0 0 1 I I #
edge $-1 $170 5.8209400858299105 $176 14.675123226132449 $167 $225 forward 7 unknown #
coedge $-1 $226 $103 $107 $181 forward $175 $-1 #
coedge $-1 $103 $226 $221 $227 reversed $175 $-1 #
loop $-1 $-1 $103 $161 #
vertex $-1 $227 $228 #
straight-curve $-1 0 24.923154882113629 -7.8292869752907173 1 0 0 I I #
straight-curve $-1 0 16.06897174181109 -7.8292869752907173 1 0 0 I I #
coedge $-1 $107 $106 $218 $229 reversed $53 $-1 #
edge $-1 $109 3.0387219470887201 $219 6.5424081093152742 $106 $230 forward 7 unknown #
edge $-1 $108 7.8292869752907173 $231 11.332973137517271 $107 $232 forward 7 unknown #
point $-1 41.342814416943874 24.923154882113629 -7.8292869752907173 #
point $-1 41.342814416943874 16.06897174181109 -7.8292869752907173 #
plane-surface $-1 41.342814416943874 0 0 -1 0 0 0 0 1 forward_v I I I I #
coedge $-1 $116 $114 $118 $189 reversed $61 $-1 #
edge $-1 $129 -11.332973137517271 $191 11.332973137517271 $128 $233 forward 7 unknown #
vertex $-1 $189 $234 #
straight-curve $-1 -41.342814416943874 -24.923154882113629 0 0 0 -1 I I #
edge $-1 $187 -24.923154882113629 $191 24.923154882113629 $185 $235 forward 7 unknown #
straight-curve $-1 0 -24.923154882113629 -11.332973137517271 -1 0 0 I I #
vertex $-1 $121 $236 #
straight-curve $-1 0 24.923154882113629 -11.332973137517271 1 0 0 I I #
point $-1 41.342814416943874 24.923154882113629 -11.332973137517271 #
point $-1 41.342814416943874 -24.923154882113629 -11.332973137517271 #
straight-curve $-1 -41.342814416943874 0 11.332973137517271 0 -1 0 I I #
point $-1 -41.342814416943874 24.923154882113629 11.332973137517271 #
point $-1 -41.342814416943874 -24.923154882113629 11.332973137517271 #
straight-curve $-1 41.342814416943874 -24.923154882113629 0 0 0 -1 I I #
straight-curve $-1 41.342814416943874 24.923154882113629 0 0 0 -1 I I #
plane-surface $-1 0 -24.923154882113629 0 0 1 0 0 0 1 forward_v I I I I #
coedge $-1 $237 $141 $153 $212 reversed $80 $-1 #
coedge $-1 $141 $237 $156 $214 reversed $80 $-1 #
edge $-1 $238 -41.342814416943874 $150 -37.794027400286573 $146 $239 forward 7 unknown #
straight-curve $-1 -37.794027400286573 -9.5725771877911434 11.332973137517271 0 1 0 I I #
coedge $-1 $153 $144 $147 $208 forward $139 $-1 #
straight-curve $-1 -37.794027400286573 -9.5725771877911434 -11.332973137517271 0 -1 0 I I #
coedge $-1 $147 $146 $237 $240 forward $148 $-1 #
edge $-1 $149 37.794027400286573 $241 41.342814416943874 $147 $242 forward 7 unknown #
point $-1 -37.794027400286573 -24.923154882113629 -11.332973137517271 #
point $-1 -37.794027400286573 -24.923154882113629 11.332973137517271 #
straight-curve $-1 -41.342814416943874 -13.367153869050943 0 0 0 -1 I I #
edge $-1 $241 -24.923154882113629 $154 -13.367153869050943 $201 $243 forward 7 unknown #
point $-1 -41.342814416943874 -13.367153869050943 -11.332973137517271 #
edge $-1 $157 13.367153869050943 $238 24.923154882113629 $202 $244 forward 7 unknown #
point $-1 -41.342814416943874 -13.367153869050943 11.332973137517271 #
plane-surface $-1 0 24.923154882113629 0 0 -1 0 0 0 -1 forward_v I I I I #
coedge $-1 $245 $164 $168 $222 forward $96 $-1 #
coedge $-1 $164 $245 $179 $229 forward $96 $-1 #
vertex $-1 $166 $246 #
straight-curve $-1 0 16.06897174181109 -11.332973137517271 -1 0 0 I I #
coedge $-1 $168 $167 $174 $227 forward $162 $-1 #
edge $-1 $169 16.06897174181109 $247 24.923154882113629 $168 $248 forward 7 unknown #
point $-1 -41.342814416943874 16.06897174181109 -11.332973137517271 #
point $-1 -41.342814416943874 16.06897174181109 -7.8292869752907173 #
straight-curve $-1 -41.342814416943874 10.24803165598118 -7.8292869752907173 0 1 0 I I #
coedge $-1 $174 $173 $245 $249 reversed $175 $-1 #
edge $-1 $176 7.8292869752907173 $247 11.332973137517271 $174 $250 forward 7 unknown #
point $-1 -41.342814416943874 24.923154882113629 -7.8292869752907173 #
edge $-1 $231 -24.923154882113629 $219 -16.06897174181109 $179 $251 forward 7 unknown #
straight-curve $-1 41.342814416943874 16.06897174181109 -4.7905650282019971 0 0 -1 I I #
vertex $-1 $229 $252 #
straight-curve $-1 41.342814416943874 24.923154882113629 0 0 0 -1 I I #
straight-curve $-1 -41.342814416943874 24.923154882113629 0 0 0 -1 I I #
point $-1 -41.342814416943874 -24.923154882113629 -11.332973137517271 #
straight-curve $-1 -41.342814416943874 0 -11.332973137517271 0 1 0 I I #
point $-1 -41.342814416943874 24.923154882113629 -11.332973137517271 #
coedge $-1 $202 $201 $207 $240 reversed $80 $-1 #
vertex $-1 $214 $253 #
straight-curve $-1 0 -24.923154882113629 11.332973137517271 1 0 0 I I #
edge $-1 $238 -11.332973137517271 $241 11.332973137517271 $237 $254 forward 7 unknown #
vertex $-1 $212 $255 #
straight-curve $-1 0 -24.923154882113629 -11.332973137517271 -1 0 0 I I #
straight-curve $-1 -41.342814416943874 0 -11.332973137517271 0 1 0 I I #
straight-curve $-1 -41.342814416943874 0 11.332973137517271 0 -1 0 I I #
coedge $-1 $218 $217 $226 $249 forward $96 $-1 #
point $-1 41.342814416943874 16.06897174181109 -11.332973137517271 #
vertex $-1 $249 $256 #
straight-curve $-1 -41.342814416943874 0 -11.332973137517271 0 1 0 I I #
edge $-1 $247 -41.342814416943874 $231 41.342814416943874 $226 $257 forward 7 unknown #
straight-curve $-1 -41.342814416943874 24.923154882113629 0 0 0 -1 I I #
straight-curve $-1 41.342814416943874 0 -11.332973137517271 0 -1 0 I I #
point $-1 41.342814416943874 24.923154882113629 -11.332973137517271 #
point $-1 -41.342814416943874 -24.923154882113629 11.332973137517271 #
straight-curve $-1 -41.342814416943874 -24.923154882113629 0 0 0 -1 I I #
point $-1 -41.342814416943874 -24.923154882113629 -11.332973137517271 #
point $-1 -41.342814416943874 24.923154882113629 -11.332973137517271 #
straight-curve $-1 0 24.923154882113629 -11.332973137517271 1 0 0 I I #
End-of-ACIS-data 