500 0 13 0           
7 Unknown 11 ACIS 5.0 NT 24 Thu Mar 25 20:02:07 1999 
-1 9.9999999999999995e-007 1e-010 
body $-1 $13 $-1 $14 #
body $-1 $15 $-1 $16 #
body $-1 $17 $-1 $18 #
body $-1 $19 $-1 $20 #
body $-1 $21 $-1 $22 #
body $-1 $23 $-1 $24 #
body $-1 $25 $-1 $26 #
body $-1 $27 $-1 $28 #
body $-1 $29 $-1 $30 #
body $-1 $31 $-1 $32 #
body $-1 $33 $-1 $34 #
body $-1 $35 $-1 $36 #
body $-1 $37 $-1 $38 #
lump $-1 $-1 $39 $0 #
transform $-1 1 0 0 0 1 0 0 0 1 53.802911465804009 25.628917618762838 8.6363359377145805 1 rotate no_reflect no_shear #
lump $-1 $-1 $40 $1 #
transform $-1 1 0 0 0 1 0 0 0 1 53.802911465804009 25.628917618762838 8.6363359377145805 1 rotate no_reflect no_shear #
lump $-1 $-1 $41 $2 #
transform $-1 1 0 0 0 1 0 0 0 1 53.802911465804009 25.628917618762838 8.6363359377145805 1 rotate no_reflect no_shear #
lump $-1 $-1 $42 $3 #
transform $-1 1 0 0 0 1 0 0 0 1 53.802911465804009 25.628917618762838 8.6363359377145805 1 rotate no_reflect no_shear #
lump $-1 $-1 $43 $4 #
transform $-1 1 0 0 0 1 0 0 0 1 53.802911465804009 25.628917618762838 8.6363359377145805 1 rotate no_reflect no_shear #
lump $-1 $-1 $44 $5 #
transform $-1 1 0 0 0 1 0 0 0 1 53.802911465804009 25.628917618762838 8.6363359377145805 1 rotate no_reflect no_shear #
lump $-1 $-1 $45 $6 #
transform $-1 1 0 0 0 1 0 0 0 1 53.802911465804009 25.628917618762838 8.6363359377145805 1 rotate no_reflect no_shear #
lump $-1 $-1 $46 $7 #
transform $-1 1 0 0 0 1 0 0 0 1 53.802911465804009 25.628917618762838 8.6363359377145805 1 rotate no_reflect no_shear #
lump $-1 $-1 $47 $8 #
transform $-1 1 0 0 0 1 0 0 0 1 53.802911465804009 25.628917618762838 8.6363359377145805 1 rotate no_reflect no_shear #
lump $-1 $-1 $48 $9 #
transform $-1 1 0 0 0 1 0 0 0 1 53.802911465804009 25.628917618762838 8.6363359377145805 1 rotate no_reflect no_shear #
lump $-1 $-1 $49 $10 #
transform $-1 1 0 0 0 1 0 0 0 1 53.802911465804009 25.628917618762838 8.6363359377145805 1 rotate no_reflect no_shear #
lump $-1 $-1 $50 $11 #
transform $-1 1 0 0 0 1 0 0 0 1 53.802911465804009 25.628917618762838 8.6363359377145805 1 rotate no_reflect no_shear #
lump $-1 $-1 $51 $12 #
transform $-1 1 0 0 0 1 0 0 0 1 53.802911465804009 25.628917618762838 8.6363359377145805 1 rotate no_reflect no_shear #
shell $-1 $-1 $-1 $52 $-1 $13 #
shell $-1 $-1 $-1 $53 $-1 $15 #
shell $-1 $-1 $-1 $54 $-1 $17 #
shell $-1 $-1 $-1 $55 $-1 $19 #
shell $-1 $-1 $-1 $56 $-1 $21 #
shell $-1 $-1 $-1 $57 $-1 $23 #
shell $-1 $-1 $-1 $58 $-1 $25 #
shell $-1 $-1 $-1 $59 $-1 $27 #
shell $-1 $-1 $-1 $60 $-1 $29 #
shell $-1 $-1 $-1 $61 $-1 $31 #
shell $-1 $-1 $-1 $62 $-1 $33 #
shell $-1 $-1 $-1 $63 $-1 $35 #
shell $-1 $-1 $-1 $64 $-1 $37 #
face $-1 $65 $66 $39 $-1 $67 forward single #
face $-1 $68 $69 $40 $-1 $70 reversed single #
face $-1 $71 $72 $41 $-1 $73 reversed single #
face $-1 $74 $75 $42 $-1 $76 forward single #
face $-1 $77 $78 $43 $-1 $79 forward single #
face $-1 $80 $81 $44 $-1 $82 reversed single #
face $-1 $83 $84 $45 $-1 $85 forward single #
face $-1 $86 $87 $46 $-1 $88 forward single #
face $-1 $89 $90 $47 $-1 $91 forward single #
face $-1 $92 $93 $48 $-1 $94 reversed single #
face $-1 $95 $96 $49 $-1 $97 forward single #
face $-1 $98 $99 $50 $-1 $100 forward single #
face $-1 $101 $102 $51 $-1 $103 forward single #
face $-1 $104 $105 $39 $-1 $106 reversed single #
loop $-1 $-1 $107 $52 #
plane-surface $-1 0 0 8.6363359377145805 0 0 1 1 0 0 forward_v I I I I #
face $-1 $108 $109 $40 $-1 $110 reversed single #
loop $-1 $-1 $111 $53 #
plane-surface $-1 -43.723911811818439 -21.372587997563453 0 1 0 0 0 0 -1 forward_v I I I I #
face $-1 $112 $113 $41 $-1 $114 reversed single #
loop $-1 $-1 $115 $54 #
plane-surface $-1 -144.04874895940222 18.519806555650135 60.442048402614716 0 1 0 -0.83867057594974714 0 0.54463902268945019 forward_v I I I I #
face $-1 $116 $117 $42 $-1 $118 forward single #
loop $-1 $119 $120 $55 #
cone-surface $-1 -50.659087984760305 20.550981145110907 4.6284172064964029 0.83867057594974714 0 -0.54463902268945019 0.54463902268945019 0 0.83867057594974714 1 I I 0 1 1 forward I I I I #
face $-1 $121 $122 $43 $-1 $123 forward single #
loop $-1 $124 $125 $56 #
cone-surface $-1 -50.659087984760305 23.597743029302062 4.6284172064964029 0.83867057594974714 0 -0.54463902268945019 0.54463902268945019 0 0.83867057594974714 1 I I 0 1 1 forward I I I I #
face $-1 $126 $127 $44 $-1 $128 reversed single #
loop $-1 $-1 $129 $57 #
plane-surface $-1 85.442418722237164 0.78220021262277228 151.76726478378754 0 -1 0 -0.83867057594974714 0 -0.54463902268945019 forward_v I I I I #
face $-1 $130 $131 $45 $-1 $132 forward single #
loop $-1 $133 $134 $58 #
cone-surface $-1 51.16842161429129 -7.1359508625149779 5.271268431781035 -0.83867057594974714 0 -0.54463902268945019 0.2723195113447251 0 -0.41933528797487357 1 I I 0 1 0.5 forward I I I I #
face $-1 $135 $136 $46 $-1 $137 forward single #
loop $-1 $138 $139 $59 #
cone-surface $-1 51.16842161429129 -4.1666442093383189 5.271268431781035 -0.83867057594974714 0 -0.54463902268945019 0.2723195113447251 0 -0.41933528797487357 1 I I 0 1 0.5 forward I I I I #
face $-1 $140 $141 $47 $-1 $142 forward single #
loop $-1 $143 $144 $60 #
cone-surface $-1 51.16842161429129 -1.1973375561616599 5.271268431781035 -0.83867057594974714 0 -0.54463902268945019 0.2723195113447251 0 -0.41933528797487357 1 I I 0 1 0.5 forward I I I I #
face $-1 $145 $146 $48 $-1 $147 reversed single #
loop $-1 $-1 $148 $61 #
plane-surface $-1 85.442418722237164 17.628147873698182 151.76726478378754 0 -1 0 -0.83867057594974714 0 -0.54463902268945019 forward_v I I I I #
face $-1 $149 $150 $49 $-1 $151 forward single #
loop $-1 $152 $153 $62 #
cone-surface $-1 51.16842161429129 9.7099967985604358 5.271268431781035 -0.83867057594974714 0 -0.54463902268945019 0.2723195113447251 0 -0.41933528797487357 1 I I 0 1 0.5 forward I I I I #
face $-1 $154 $155 $50 $-1 $156 forward single #
loop $-1 $157 $158 $63 #
cone-surface $-1 51.16842161429129 12.679303451737095 5.271268431781035 -0.83867057594974714 0 -0.54463902268945019 0.2723195113447251 0 -0.41933528797487357 1 I I 0 1 0.5 forward I I I I #
face $-1 $159 $160 $51 $-1 $161 forward single #
loop $-1 $162 $163 $64 #
cone-surface $-1 51.16842161429129 15.648610104913754 5.271268431781035 -0.83867057594974714 0 -0.54463902268945019 0.2723195113447251 0 -0.41933528797487357 1 I I 0 1 0.5 forward I I I I #
face $-1 $164 $165 $39 $-1 $166 reversed single #
loop $-1 $-1 $167 $65 #
plane-surface $-1 0 0 -8.6363359377145805 0 0 1 1 0 0 forward_v I I I I #
coedge $-1 $168 $169 $170 $171 forward $66 $-1 #
face $-1 $172 $173 $40 $-1 $174 reversed single #
loop $-1 $-1 $175 $68 #
plane-surface $-1 -41.491410933092169 -17.116258376364069 0 0 -1 0 0 0 -1 forward_v I I I I #
coedge $-1 $176 $177 $178 $179 forward $69 $-1 #
face $-1 $180 $181 $41 $-1 $182 forward single #
loop $-1 $-1 $183 $71 #
plane-surface $-1 -53.802911465804016 22.074362087206485 1.8357181654496983 -0.83867057594974714 0 0.54463902268945019 0.54463902268945019 0 0.83867057594974714 forward_v I I I I #
coedge $-1 $184 $185 $186 $187 reversed $72 $-1 #
face $-1 $-1 $188 $42 $-1 $189 forward single #
loop $-1 $190 $191 $74 #
cone-surface $-1 -49.304115554565179 20.550981145110907 3.7484878500659455 0.83867057594974714 0 -0.54463902268945019 0.2723195113447251 0 0.41933528797487357 1 I I -0.70710678118654746 0.70710678118654746 0.5 forward I I I I #
loop $-1 $-1 $192 $55 #
coedge $-1 $120 $120 $193 $194 reversed $75 $-1 #
face $-1 $-1 $195 $43 $-1 $196 forward single #
loop $-1 $197 $198 $77 #
cone-surface $-1 -49.304115554565179 23.597743029302062 3.7484878500659455 0.83867057594974714 0 -0.54463902268945019 0.2723195113447251 0 0.41933528797487357 1 I I -0.70710678118654746 0.70710678118654746 0.5 forward I I I I #
loop $-1 $-1 $199 $56 #
coedge $-1 $125 $125 $200 $201 reversed $78 $-1 #
face $-1 $202 $203 $44 $-1 $204 reversed single #
loop $-1 $-1 $205 $80 #
plane-surface $-1 -4.8034187713610379 -4.1666442093383225 93.160934546622514 0.83867057594974714 0 0.54463902268945019 0.54463902268945019 0 -0.83867057594974714 forward_v I I I I #
coedge $-1 $206 $207 $208 $209 reversed $81 $-1 #
face $-1 $-1 $210 $45 $-1 $211 forward single #
loop $-1 $212 $213 $83 #
cone-surface $-1 50.181972046127122 -7.1359508625149779 4.6306606125202414 -0.83867057594974714 0 -0.54463902268945019 0.13615975567236255 0 -0.20966764398743679 1 I I -0.70710678118654746 0.70710678118654746 0.25 forward I I I I #
loop $-1 $-1 $214 $58 #
coedge $-1 $134 $134 $215 $216 reversed $84 $-1 #
face $-1 $-1 $217 $46 $-1 $218 forward single #
loop $-1 $219 $220 $86 #
cone-surface $-1 50.181972046127122 -4.1666442093383189 4.6306606125202414 -0.83867057594974714 0 -0.54463902268945019 0.13615975567236255 0 -0.20966764398743679 1 I I -0.70710678118654746 0.70710678118654746 0.25 forward I I I I #
loop $-1 $-1 $221 $59 #
coedge $-1 $139 $139 $222 $223 reversed $87 $-1 #
face $-1 $-1 $224 $47 $-1 $225 forward single #
loop $-1 $226 $227 $89 #
cone-surface $-1 50.181972046127122 -1.1973375561616599 4.6306606125202414 -0.83867057594974714 0 -0.54463902268945019 0.13615975567236255 0 -0.20966764398743679 1 I I -0.70710678118654746 0.70710678118654746 0.25 forward I I I I #
loop $-1 $-1 $228 $60 #
coedge $-1 $144 $144 $229 $230 reversed $90 $-1 #
face $-1 $231 $232 $48 $-1 $233 reversed single #
loop $-1 $-1 $234 $92 #
plane-surface $-1 -4.8034187713610379 12.679303451737088 93.160934546622514 0.83867057594974714 0 0.54463902268945019 0.54463902268945019 0 -0.83867057594974714 forward_v I I I I #
coedge $-1 $235 $236 $237 $238 reversed $93 $-1 #
face $-1 $-1 $239 $49 $-1 $240 forward single #
loop $-1 $241 $242 $95 #
cone-surface $-1 50.181972046127122 9.7099967985604358 4.6306606125202414 -0.83867057594974714 0 -0.54463902268945019 0.13615975567236255 0 -0.20966764398743679 1 I I -0.70710678118654746 0.70710678118654746 0.25 forward I I I I #
loop $-1 $-1 $243 $62 #
coedge $-1 $153 $153 $244 $245 reversed $96 $-1 #
face $-1 $-1 $246 $50 $-1 $247 forward single #
loop $-1 $248 $249 $98 #
cone-surface $-1 50.181972046127122 12.679303451737095 4.6306606125202414 -0.83867057594974714 0 -0.54463902268945019 0.13615975567236255 0 -0.20966764398743679 1 I I -0.70710678118654746 0.70710678118654746 0.25 forward I I I I #
loop $-1 $-1 $250 $63 #
coedge $-1 $158 $158 $251 $252 reversed $99 $-1 #
face $-1 $-1 $253 $51 $-1 $254 forward single #
loop $-1 $255 $256 $101 #
cone-surface $-1 50.181972046127122 15.648610104913754 4.6306606125202414 -0.83867057594974714 0 -0.54463902268945019 0.13615975567236255 0 -0.20966764398743679 1 I I -0.70710678118654746 0.70710678118654746 0.25 forward I I I I #
loop $-1 $-1 $257 $64 #
coedge $-1 $163 $163 $258 $259 reversed $102 $-1 #
face $-1 $260 $261 $39 $-1 $262 reversed single #
loop $-1 $-1 $263 $104 #
plane-surface $-1 0 -25.628917618762838 0 0 1 0 0 0 1 forward_v I I I I #
coedge $-1 $264 $265 $266 $267 forward $105 $-1 #
coedge $-1 $268 $107 $269 $270 forward $66 $-1 #
coedge $-1 $107 $268 $271 $272 forward $66 $-1 #
coedge $-1 $273 $274 $107 $171 reversed $275 $-1 #
edge $-1 $276 -25.628917618762838 $277 25.628917618762838 $170 $278 forward 7 unknown #
face $-1 $279 $280 $40 $-1 $281 forward single #
loop $-1 $-1 $282 $108 #
plane-surface $-1 -39.258910054365899 -21.372587997563453 0 -1 0 0 0 0 1 forward_v I I I I #
coedge $-1 $283 $284 $285 $286 forward $109 $-1 #
coedge $-1 $287 $111 $288 $289 reversed $69 $-1 #
coedge $-1 $111 $287 $290 $291 reversed $69 $-1 #
coedge $-1 $284 $283 $111 $179 reversed $109 $-1 #
edge $-1 $292 -8.6363359377145805 $293 8.6363359377145805 $178 $294 forward 7 unknown #
face $-1 $295 $296 $41 $-1 $297 reversed single #
loop $-1 $-1 $186 $112 #
plane-surface $-1 0 0 8.6363359377145805 0 0 1 1 0 0 forward_v I I I I #
coedge $-1 $298 $299 $300 $301 reversed $113 $-1 #
coedge $-1 $185 $115 $302 $303 reversed $72 $-1 #
coedge $-1 $115 $184 $298 $304 reversed $72 $-1 #
coedge $-1 $300 $305 $115 $187 forward $181 $-1 #
edge $-1 $306 18.2214630138971 $307 22.637835691543991 $186 $308 forward 7 unknown #
loop $-1 $-1 $193 $116 #
plane-surface $-1 -53.802911465804016 22.074362087206485 1.8357181654496983 -0.83867057594974714 0 0.54463902268945019 0.54463902268945019 0 0.83867057594974714 forward_v I I I I #
loop $-1 $-1 $309 $74 #
coedge $-1 $191 $191 $192 $310 reversed $117 $-1 #
coedge $-1 $192 $192 $191 $310 forward $119 $-1 #
coedge $-1 $193 $193 $120 $194 forward $188 $-1 #
edge $-1 $311 0 $311 6.2831853071796004 $193 $312 forward 7 unknown #
loop $-1 $-1 $200 $121 #
plane-surface $-1 -53.802911465804016 22.074362087206485 1.8357181654496983 -0.83867057594974714 0 0.54463902268945019 0.54463902268945019 0 0.83867057594974714 forward_v I I I I #
loop $-1 $-1 $313 $77 #
coedge $-1 $198 $198 $199 $314 reversed $122 $-1 #
coedge $-1 $199 $199 $198 $314 forward $124 $-1 #
coedge $-1 $200 $200 $125 $201 forward $195 $-1 #
edge $-1 $315 0 $315 6.2831853071796004 $200 $316 forward 7 unknown #
face $-1 $317 $318 $44 $-1 $319 reversed single #
loop $-1 $-1 $320 $126 #
plane-surface $-1 85.442418722237164 -9.1154886312994172 151.76726478378754 0 1 0 0.83867057594974714 0 0.54463902268945019 forward_v I I I I #
coedge $-1 $321 $322 $323 $324 reversed $127 $-1 #
coedge $-1 $207 $129 $325 $326 reversed $81 $-1 #
coedge $-1 $129 $206 $321 $327 reversed $81 $-1 #
coedge $-1 $323 $328 $129 $209 forward $329 $-1 #
edge $-1 $330 -11.081702104685426 $331 -7.3662862500133954 $208 $332 forward 7 unknown #
loop $-1 $-1 $215 $130 #
plane-surface $-1 -4.8034187713610379 -4.1666442093383225 93.160934546622514 0.83867057594974714 0 0.54463902268945019 0.54463902268945019 0 -0.83867057594974714 forward_v I I I I #
loop $-1 $-1 $333 $83 #
coedge $-1 $213 $213 $214 $334 reversed $131 $-1 #
coedge $-1 $214 $214 $213 $334 forward $133 $-1 #
coedge $-1 $215 $215 $134 $216 forward $210 $-1 #
edge $-1 $335 0 $335 6.2831853071796004 $215 $336 forward 7 unknown #
loop $-1 $-1 $222 $135 #
plane-surface $-1 -4.8034187713610379 -4.1666442093383225 93.160934546622514 0.83867057594974714 0 0.54463902268945019 0.54463902268945019 0 -0.83867057594974714 forward_v I I I I #
loop $-1 $-1 $337 $86 #
coedge $-1 $220 $220 $221 $338 reversed $136 $-1 #
coedge $-1 $221 $221 $220 $338 forward $138 $-1 #
coedge $-1 $222 $222 $139 $223 forward $217 $-1 #
edge $-1 $339 0 $339 6.2831853071796004 $222 $340 forward 7 unknown #
loop $-1 $-1 $229 $140 #
plane-surface $-1 -4.8034187713610379 -4.1666442093383225 93.160934546622514 0.83867057594974714 0 0.54463902268945019 0.54463902268945019 0 -0.83867057594974714 forward_v I I I I #
loop $-1 $-1 $341 $89 #
coedge $-1 $227 $227 $228 $342 reversed $141 $-1 #
coedge $-1 $228 $228 $227 $342 forward $143 $-1 #
coedge $-1 $229 $229 $144 $230 forward $224 $-1 #
edge $-1 $343 0 $343 6.2831853071796004 $229 $344 forward 7 unknown #
face $-1 $345 $346 $48 $-1 $347 reversed single #
loop $-1 $-1 $348 $145 #
plane-surface $-1 85.442418722237164 7.730459029775993 151.76726478378754 0 1 0 0.83867057594974714 0 0.54463902268945019 forward_v I I I I #
coedge $-1 $349 $350 $351 $352 reversed $146 $-1 #
coedge $-1 $236 $148 $353 $354 reversed $93 $-1 #
coedge $-1 $148 $235 $349 $355 reversed $93 $-1 #
coedge $-1 $351 $356 $148 $238 forward $357 $-1 #
edge $-1 $358 -11.081702104685426 $359 -7.3662862500133954 $237 $360 forward 7 unknown #
loop $-1 $-1 $244 $149 #
plane-surface $-1 -4.8034187713610379 12.679303451737088 93.160934546622514 0.83867057594974714 0 0.54463902268945019 0.54463902268945019 0 -0.83867057594974714 forward_v I I I I #
loop $-1 $-1 $361 $95 #
coedge $-1 $242 $242 $243 $362 reversed $150 $-1 #
coedge $-1 $243 $243 $242 $362 forward $152 $-1 #
coedge $-1 $244 $244 $153 $245 forward $239 $-1 #
edge $-1 $363 0 $363 6.2831853071796004 $244 $364 forward 7 unknown #
loop $-1 $-1 $251 $154 #
plane-surface $-1 -4.8034187713610379 12.679303451737088 93.160934546622514 0.83867057594974714 0 0.54463902268945019 0.54463902268945019 0 -0.83867057594974714 forward_v I I I I #
loop $-1 $-1 $365 $98 #
coedge $-1 $249 $249 $250 $366 reversed $155 $-1 #
coedge $-1 $250 $250 $249 $366 forward $157 $-1 #
coedge $-1 $251 $251 $158 $252 forward $246 $-1 #
edge $-1 $367 0 $367 6.2831853071796004 $251 $368 forward 7 unknown #
loop $-1 $-1 $258 $159 #
plane-surface $-1 -4.8034187713610379 12.679303451737088 93.160934546622514 0.83867057594974714 0 0.54463902268945019 0.54463902268945019 0 -0.83867057594974714 forward_v I I I I #
loop $-1 $-1 $369 $101 #
coedge $-1 $256 $256 $257 $370 reversed $160 $-1 #
coedge $-1 $257 $257 $256 $370 forward $162 $-1 #
coedge $-1 $258 $258 $163 $259 forward $253 $-1 #
edge $-1 $371 0 $371 6.2831853071796004 $258 $372 forward 7 unknown #
face $-1 $373 $374 $39 $-1 $375 reversed single #
loop $-1 $-1 $376 $164 #
plane-surface $-1 -53.802911465804009 0 0 1 0 0 0 0 -1 forward_v I I I I #
coedge $-1 $377 $271 $378 $379 forward $165 $-1 #
coedge $-1 $380 $167 $377 $381 forward $105 $-1 #
coedge $-1 $167 $380 $382 $383 forward $105 $-1 #
coedge $-1 $274 $273 $167 $267 reversed $275 $-1 #
edge $-1 $384 -25.628917618762838 $385 25.628917618762838 $266 $386 forward 7 unknown #
coedge $-1 $169 $168 $387 $388 forward $66 $-1 #
coedge $-1 $389 $390 $168 $270 reversed $374 $-1 #
edge $-1 $277 -53.802911465804009 $391 53.802911465804009 $269 $392 forward 7 unknown #
coedge $-1 $263 $393 $169 $272 reversed $165 $-1 #
edge $-1 $394 -53.802911465804009 $276 53.802911465804009 $271 $395 forward 7 unknown #
coedge $-1 $266 $170 $393 $396 forward $275 $-1 #
coedge $-1 $170 $266 $389 $397 reversed $275 $-1 #
loop $-1 $-1 $273 $373 #
vertex $-1 $171 $398 #
vertex $-1 $171 $399 #
straight-curve $-1 53.802911465804009 0 8.6363359377145805 0 1 0 I I #
face $-1 $400 $401 $40 $-1 $402 reversed single #
loop $-1 $-1 $403 $172 #
plane-surface $-1 0 0 8.6363359377145805 0 0 1 1 0 0 forward_v I I I I #
coedge $-1 $404 $405 $406 $407 reversed $173 $-1 #
coedge $-1 $178 $175 $408 $409 reversed $109 $-1 #
coedge $-1 $175 $178 $410 $411 reversed $109 $-1 #
coedge $-1 $405 $404 $175 $286 reversed $173 $-1 #
edge $-1 $412 -8.6363359377145805 $413 8.6363359377145805 $285 $414 forward 7 unknown #
coedge $-1 $177 $176 $415 $416 reversed $69 $-1 #
coedge $-1 $408 $417 $176 $289 forward $401 $-1 #
edge $-1 $418 -14.942623619981111 $293 -6.4299643775823423 $288 $419 forward 7 unknown #
coedge $-1 $420 $410 $177 $291 forward $280 $-1 #
edge $-1 $292 6.4299643775823423 $421 14.942623619981111 $290 $422 forward 7 unknown #
vertex $-1 $291 $423 #
vertex $-1 $289 $424 #
straight-curve $-1 -43.723911811818439 -17.116258376364069 0 0 0 -1 I I #
face $-1 $-1 $425 $41 $-1 $426 reversed single #
loop $-1 $-1 $427 $180 #
plane-surface $-1 0 25.628917618762838 0 0 -1 0 0 0 -1 forward_v I I I I #
coedge $-1 $428 $183 $185 $304 forward $113 $-1 #
coedge $-1 $183 $428 $427 $429 reversed $113 $-1 #
coedge $-1 $430 $186 $183 $301 forward $181 $-1 #
edge $-1 $307 7.4826255120468925 $431 14.591736575159592 $300 $432 forward 7 unknown #
coedge $-1 $433 $434 $184 $303 forward $425 $-1 #
edge $-1 $435 -28.385306035857649 $306 -21.584688263592778 $302 $436 forward 7 unknown #
edge $-1 $307 -8.1088069228654724 $435 -1.2994784570086186e-014 $185 $437 forward 7 unknown #
coedge $-1 $186 $430 $433 $438 forward $181 $-1 #
vertex $-1 $303 $439 #
vertex $-1 $187 $440 #
straight-curve $-1 -72.024374479701109 18.519806555650135 8.6363359377145805 1 0 0 I I #
coedge $-1 $309 $309 $-1 $441 reversed $190 $-1 #
edge $-1 $442 0 $442 6.2831853071796004 $191 $443 forward 7 unknown #
vertex $-1 $194 $444 #
ellipse-curve $-1 -51.594725126980563 20.550981145110907 5.2360270515821412 -0.83867057594974714 0 0.54463902268945019 0.54463902268945019 0 0.83867057594974714 1 I I #
coedge $-1 $313 $313 $-1 $445 reversed $197 $-1 #
edge $-1 $446 0 $446 6.2831853071796004 $198 $447 forward 7 unknown #
vertex $-1 $201 $448 #
ellipse-curve $-1 -51.594725126980563 23.597743029302062 5.2360270515821412 -0.83867057594974714 0 0.54463902268945019 0.54463902268945019 0 0.83867057594974714 1 I I #
face $-1 $-1 $329 $44 $-1 $449 forward single #
loop $-1 $-1 $450 $202 #
plane-surface $-1 53.802911465804009 0 0 -1 0 0 0 0 1 forward_v I I I I #
coedge $-1 $451 $452 $453 $454 reversed $203 $-1 #
coedge $-1 $455 $205 $207 $327 forward $127 $-1 #
coedge $-1 $205 $455 $451 $456 forward $127 $-1 #
coedge $-1 $453 $208 $205 $324 forward $329 $-1 #
edge $-1 $331 -2.8655223172919335 $457 7.032166526630256 $323 $458 forward 7 unknown #
coedge $-1 $459 $460 $206 $326 forward $318 $-1 #
edge $-1 $461 -72.968535338869515 $330 -67.247296454179192 $325 $462 forward 7 unknown #
edge $-1 $331 100.7840277610653 $461 107.60582293160809 $207 $463 forward 7 unknown #
coedge $-1 $208 $453 $459 $464 forward $329 $-1 #
loop $-1 $-1 $453 $317 #
vertex $-1 $326 $465 #
vertex $-1 $209 $466 #
straight-curve $-1 42.721209361118582 0.78220021262277228 8.636335937714577 -1 0 0 I I #
coedge $-1 $333 $333 $-1 $467 reversed $212 $-1 #
edge $-1 $468 0 $468 6.2831853071796004 $213 $469 forward 7 unknown #
vertex $-1 $216 $470 #
ellipse-curve $-1 51.945203538467979 -7.1359508625149779 5.7757164953694407 0.83867057594974714 0 0.54463902268945019 0.2723195113447251 0 -0.41933528797487357 1 I I #
coedge $-1 $337 $337 $-1 $471 reversed $219 $-1 #
edge $-1 $472 0 $472 6.2831853071796004 $220 $473 forward 7 unknown #
vertex $-1 $223 $474 #
ellipse-curve $-1 51.945203538467979 -4.1666442093383189 5.7757164953694407 0.83867057594974714 0 0.54463902268945019 0.2723195113447251 0 -0.41933528797487357 1 I I #
coedge $-1 $341 $341 $-1 $475 reversed $226 $-1 #
edge $-1 $476 0 $476 6.2831853071796004 $227 $477 forward 7 unknown #
vertex $-1 $230 $478 #
ellipse-curve $-1 51.945203538467979 -1.1973375561616599 5.7757164953694407 0.83867057594974714 0 0.54463902268945019 0.2723195113447251 0 -0.41933528797487357 1 I I #
face $-1 $-1 $357 $48 $-1 $479 forward single #
loop $-1 $-1 $480 $231 #
plane-surface $-1 53.802911465804009 0 0 -1 0 0 0 0 1 forward_v I I I I #
coedge $-1 $481 $482 $483 $484 reversed $232 $-1 #
coedge $-1 $485 $234 $236 $355 forward $146 $-1 #
coedge $-1 $234 $485 $481 $486 forward $146 $-1 #
coedge $-1 $483 $237 $234 $352 forward $357 $-1 #
edge $-1 $359 -11.288496147829639 $487 -1.3908073039074491 $351 $488 forward 7 unknown #
coedge $-1 $489 $490 $235 $354 forward $346 $-1 #
edge $-1 $491 -72.968535338869515 $358 -67.247296454179192 $353 $492 forward 7 unknown #
edge $-1 $359 100.7840277610653 $491 107.60582293160809 $236 $493 forward 7 unknown #
coedge $-1 $237 $483 $489 $494 forward $357 $-1 #
loop $-1 $-1 $483 $345 #
vertex $-1 $354 $495 #
vertex $-1 $238 $496 #
straight-curve $-1 42.721209361118582 17.628147873698182 8.636335937714577 -1 0 0 I I #
coedge $-1 $361 $361 $-1 $497 reversed $241 $-1 #
edge $-1 $498 0 $498 6.2831853071796004 $242 $499 forward 7 unknown #
vertex $-1 $245 $500 #
ellipse-curve $-1 51.945203538467979 9.7099967985604358 5.7757164953694407 0.83867057594974714 0 0.54463902268945019 0.2723195113447251 0 -0.41933528797487357 1 I I #
coedge $-1 $365 $365 $-1 $501 reversed $248 $-1 #
edge $-1 $502 0 $502 6.2831853071796004 $249 $503 forward 7 unknown #
vertex $-1 $252 $504 #
ellipse-curve $-1 51.945203538467979 12.679303451737095 5.7757164953694407 0.83867057594974714 0 0.54463902268945019 0.2723195113447251 0 -0.41933528797487357 1 I I #
coedge $-1 $369 $369 $-1 $505 reversed $255 $-1 #
edge $-1 $506 0 $506 6.2831853071796004 $256 $507 forward 7 unknown #
vertex $-1 $259 $508 #
ellipse-curve $-1 51.945203538467979 15.648610104913754 5.7757164953694407 0.83867057594974714 0 0.54463902268945019 0.2723195113447251 0 -0.41933528797487357 1 I I #
face $-1 $-1 $275 $39 $-1 $509 reversed single #
loop $-1 $-1 $389 $260 #
plane-surface $-1 0 25.628917618762838 0 0 -1 0 0 0 -1 forward_v I I I I #
coedge $-1 $510 $387 $390 $511 forward $261 $-1 #
coedge $-1 $393 $263 $264 $381 reversed $165 $-1 #
coedge $-1 $387 $510 $263 $379 reversed $261 $-1 #
edge $-1 $394 -8.6363359377145805 $512 8.6363359377145805 $378 $513 forward 7 unknown #
coedge $-1 $265 $264 $510 $514 forward $105 $-1 #
edge $-1 $385 -53.802911465804009 $512 53.802911465804009 $377 $515 forward 7 unknown #
coedge $-1 $390 $389 $265 $383 reversed $374 $-1 #
edge $-1 $516 -53.802911465804009 $384 53.802911465804009 $382 $517 forward 7 unknown #
vertex $-1 $267 $518 #
vertex $-1 $396 $519 #
straight-curve $-1 53.802911465804009 0 -8.6363359377145805 0 -1 0 I I #
coedge $-1 $376 $378 $268 $388 reversed $261 $-1 #
edge $-1 $391 -25.628917618762838 $394 25.628917618762838 $387 $520 forward 7 unknown #
coedge $-1 $382 $269 $274 $397 forward $374 $-1 #
coedge $-1 $269 $382 $376 $511 reversed $374 $-1 #
vertex $-1 $270 $521 #
straight-curve $-1 0 25.628917618762838 8.6363359377145805 -1 0 0 I I #
coedge $-1 $271 $377 $273 $396 reversed $165 $-1 #
vertex $-1 $388 $522 #
straight-curve $-1 0 -25.628917618762838 8.6363359377145805 1 0 0 I I #
edge $-1 $276 -8.6363359377145805 $385 8.6363359377145805 $273 $523 forward 7 unknown #
edge $-1 $277 -8.6363359377145805 $384 8.6363359377145805 $274 $524 forward 7 unknown #
point $-1 53.802911465804009 -25.628917618762838 8.6363359377145805 #
point $-1 53.802911465804009 25.628917618762838 8.6363359377145805 #
face $-1 $-1 $525 $40 $-1 $526 reversed single #
loop $-1 $-1 $527 $279 #
plane-surface $-1 0 0 -8.6363359377145805 0 0 1 1 0 0 forward_v I I I I #
coedge $-1 $410 $420 $405 $528 forward $280 $-1 #
coedge $-1 $285 $282 $527 $529 reversed $173 $-1 #
coedge $-1 $282 $285 $403 $528 reversed $173 $-1 #
coedge $-1 $530 $531 $282 $407 forward $525 $-1 #
edge $-1 $532 -8.6363359377145805 $533 8.6363359377145805 $406 $534 forward 7 unknown #
coedge $-1 $527 $288 $283 $409 forward $401 $-1 #
edge $-1 $293 -22.978206345272355 $413 -18.513204587819814 $408 $535 forward 7 unknown #
coedge $-1 $290 $403 $284 $411 forward $280 $-1 #
edge $-1 $412 18.513204587819814 $292 22.978206345272355 $410 $536 forward 7 unknown #
vertex $-1 $411 $537 #
vertex $-1 $409 $538 #
straight-curve $-1 -39.258910054365899 -17.116258376364069 0 0 0 -1 I I #
coedge $-1 $531 $530 $287 $416 forward $525 $-1 #
edge $-1 $421 -8.6363359377145805 $418 8.6363359377145805 $415 $539 forward 7 unknown #
coedge $-1 $288 $527 $531 $540 forward $401 $-1 #
vertex $-1 $289 $541 #
straight-curve $-1 -43.723911811818439 -10.686293998781727 -8.6363359377145805 0 1 0 I I #
coedge $-1 $403 $290 $530 $542 forward $280 $-1 #
vertex $-1 $542 $543 #
straight-curve $-1 -43.723911811818439 -10.686293998781727 8.6363359377145805 0 -1 0 I I #
point $-1 -43.723911811818439 -17.116258376364069 8.6363359377145805 #
point $-1 -43.723911811818439 -17.116258376364069 -8.6363359377145805 #
loop $-1 $-1 $302 $295 #
plane-surface $-1 -53.802911465804009 0 0 1 0 0 0 0 -1 forward_v I I I I #
coedge $-1 $544 $545 $299 $429 forward $296 $-1 #
coedge $-1 $299 $298 $434 $546 reversed $113 $-1 #
edge $-1 $431 5.7729942308762316 $547 13.881801153741691 $427 $548 forward 7 unknown #
coedge $-1 $305 $300 $545 $549 forward $181 $-1 #
vertex $-1 $549 $550 #
straight-curve $-1 -49.386538788157111 11.037181043603242 8.6363359377145805 0 1 0 I I #
coedge $-1 $551 $302 $305 $438 reversed $425 $-1 #
coedge $-1 $302 $551 $428 $546 forward $425 $-1 #
vertex $-1 $303 $552 #
straight-curve $-1 -53.802911465804009 18.519806555650135 30.221024201307358 0 0 1 I I #
straight-curve $-1 -53.802911465804016 18.519806555650135 1.8357181654496983 -0.54463902268945019 0 -0.83867057594974714 I I #
edge $-1 $553 -25.628917618762838 $306 -18.519806555650135 $433 $554 forward 7 unknown #
point $-1 -53.802911465804009 18.519806555650135 8.6363359377145805 #
point $-1 -49.386538788157118 18.519806555650135 8.6363359377145805 #
edge $-1 $555 1 $555 0 $309 $-1 forward 7 unknown #
vertex $-1 $310 $556 #
ellipse-curve $-1 -49.723450842540053 20.550981145110907 4.0208073614106707 -0.83867057594974714 0 0.54463902268945019 0.54463902268945019 0 0.83867057594974714 1 I I #
point $-1 -51.050086104291104 20.550981145110907 6.0746976275318829 #
edge $-1 $557 1 $557 0 $313 $-1 forward 7 unknown #
vertex $-1 $314 $558 #
ellipse-curve $-1 -49.723450842540053 23.597743029302062 4.0208073614106707 -0.83867057594974714 0 0.54463902268945019 0.54463902268945019 0 0.83867057594974714 1 I I #
point $-1 -51.050086104291104 23.597743029302062 6.0746976275318829 #
plane-surface $-1 0 0 8.6363359377145805 0 0 1 1 0 0 forward_v I I I I #
coedge $-1 $460 $459 $452 $559 forward $318 $-1 #
coedge $-1 $452 $320 $322 $456 reversed $203 $-1 #
coedge $-1 $320 $451 $450 $559 reversed $203 $-1 #
coedge $-1 $328 $323 $320 $454 forward $329 $-1 #
edge $-1 $457 7.3662862500133954 $560 11.081702104685426 $453 $561 forward 7 unknown #
coedge $-1 $322 $321 $460 $562 reversed $127 $-1 #
edge $-1 $563 -107.60582293160809 $457 -100.7840277610653 $451 $564 forward 7 unknown #
vertex $-1 $324 $565 #
straight-curve $-1 50.08749561113197 -2.0833221046691612 8.636335937714577 0 -1 0 I I #
coedge $-1 $450 $325 $328 $464 reversed $318 $-1 #
coedge $-1 $325 $450 $455 $562 forward $318 $-1 #
vertex $-1 $326 $566 #
straight-curve $-1 53.802911465804009 0.78220021262277228 75.883632391893769 0 0 1 I I #
straight-curve $-1 -4.8034187713610379 0.78220021262277228 93.160934546622514 0.54463902268945019 0 -0.83867057594974714 I I #
edge $-1 $560 -9.1154886312994172 $330 0.78220021262277228 $459 $567 forward 7 unknown #
point $-1 53.802911465804009 0.78220021262277228 8.6363359377145805 #
point $-1 50.087495611131978 0.78220021262277228 8.636335937714577 #
edge $-1 $568 1 $568 0 $333 $-1 forward 7 unknown #
vertex $-1 $334 $569 #
ellipse-curve $-1 50.391639690114559 -7.1359508625149779 4.7668203681926036 0.83867057594974714 0 0.54463902268945019 0.2723195113447251 0 -0.41933528797487357 1 I I #
point $-1 52.217523049812741 -7.1359508625149779 5.3563812073945929 #
edge $-1 $570 1 $570 0 $337 $-1 forward 7 unknown #
vertex $-1 $338 $571 #
ellipse-curve $-1 50.391639690114559 -4.1666442093383189 4.7668203681926036 0.83867057594974714 0 0.54463902268945019 0.2723195113447251 0 -0.41933528797487357 1 I I #
point $-1 52.217523049812741 -4.1666442093383189 5.3563812073945929 #
edge $-1 $572 1 $572 0 $341 $-1 forward 7 unknown #
vertex $-1 $342 $573 #
ellipse-curve $-1 50.391639690114559 -1.1973375561616599 4.7668203681926036 0.83867057594974714 0 0.54463902268945019 0.2723195113447251 0 -0.41933528797487357 1 I I #
point $-1 52.217523049812741 -1.1973375561616599 5.3563812073945929 #
plane-surface $-1 0 0 8.6363359377145805 0 0 1 1 0 0 forward_v I I I I #
coedge $-1 $490 $489 $482 $574 forward $346 $-1 #
coedge $-1 $482 $348 $350 $486 reversed $232 $-1 #
coedge $-1 $348 $481 $480 $574 reversed $232 $-1 #
coedge $-1 $356 $351 $348 $484 forward $357 $-1 #
edge $-1 $487 7.3662862500133954 $575 11.081702104685426 $483 $576 forward 7 unknown #
coedge $-1 $350 $349 $490 $577 reversed $146 $-1 #
edge $-1 $578 -107.60582293160809 $487 -100.7840277610653 $481 $579 forward 7 unknown #
vertex $-1 $352 $580 #
straight-curve $-1 50.08749561113197 6.3396517258685439 8.636335937714577 0 -1 0 I I #
coedge $-1 $480 $353 $356 $494 reversed $346 $-1 #
coedge $-1 $353 $480 $485 $577 forward $346 $-1 #
vertex $-1 $354 $581 #
straight-curve $-1 53.802911465804009 17.628147873698182 75.883632391893769 0 0 1 I I #
straight-curve $-1 -4.8034187713610379 17.628147873698182 93.160934546622514 0.54463902268945019 0 -0.83867057594974714 I I #
edge $-1 $575 7.730459029775993 $358 17.628147873698182 $489 $582 forward 7 unknown #
point $-1 53.802911465804009 17.628147873698182 8.6363359377145805 #
point $-1 50.087495611131978 17.628147873698182 8.636335937714577 #
edge $-1 $583 1 $583 0 $361 $-1 forward 7 unknown #
vertex $-1 $362 $584 #
ellipse-curve $-1 50.391639690114559 9.7099967985604358 4.7668203681926036 0.83867057594974714 0 0.54463902268945019 0.2723195113447251 0 -0.41933528797487357 1 I I #
point $-1 52.217523049812741 9.7099967985604358 5.3563812073945929 #
edge $-1 $585 1 $585 0 $365 $-1 forward 7 unknown #
vertex $-1 $366 $586 #
ellipse-curve $-1 50.391639690114559 12.679303451737095 4.7668203681926036 0.83867057594974714 0 0.54463902268945019 0.2723195113447251 0 -0.41933528797487357 1 I I #
point $-1 52.217523049812741 12.679303451737095 5.3563812073945929 #
edge $-1 $587 1 $587 0 $369 $-1 forward 7 unknown #
vertex $-1 $370 $588 #
ellipse-curve $-1 50.391639690114559 15.648610104913754 4.7668203681926036 0.83867057594974714 0 0.54463902268945019 0.2723195113447251 0 -0.41933528797487357 1 I I #
point $-1 52.217523049812741 15.648610104913754 5.3563812073945929 #
plane-surface $-1 53.802911465804009 0 0 -1 0 0 0 0 1 forward_v I I I I #
coedge $-1 $378 $376 $380 $514 reversed $261 $-1 #
edge $-1 $391 -8.6363359377145805 $516 8.6363359377145805 $390 $589 forward 7 unknown #
vertex $-1 $514 $590 #
straight-curve $-1 -53.802911465804009 -25.628917618762838 0 0 0 -1 I I #
edge $-1 $512 -25.628917618762838 $516 25.628917618762838 $510 $591 forward 7 unknown #
straight-curve $-1 0 -25.628917618762838 -8.6363359377145805 -1 0 0 I I #
vertex $-1 $383 $592 #
straight-curve $-1 0 25.628917618762838 -8.6363359377145805 1 0 0 I I #
point $-1 53.802911465804009 25.628917618762838 -8.6363359377145805 #
point $-1 53.802911465804009 -25.628917618762838 -8.6363359377145805 #
straight-curve $-1 -53.802911465804009 0 8.6363359377145805 0 -1 0 I I #
point $-1 -53.802911465804009 25.628917618762838 8.6363359377145805 #
point $-1 -53.802911465804009 -25.628917618762838 8.6363359377145805 #
straight-curve $-1 53.802911465804009 -25.628917618762838 0 0 0 -1 I I #
straight-curve $-1 53.802911465804009 25.628917618762838 0 0 0 -1 I I #
loop $-1 $-1 $406 $400 #
plane-surface $-1 0 -25.628917618762838 0 0 1 0 0 0 1 forward_v I I I I #
coedge $-1 $417 $408 $404 $529 forward $401 $-1 #
edge $-1 $533 -14.942623619981111 $412 -6.4299643775823423 $403 $593 forward 7 unknown #
edge $-1 $413 6.4299643775823423 $532 14.942623619981111 $527 $594 forward 7 unknown #
coedge $-1 $415 $406 $420 $542 reversed $525 $-1 #
coedge $-1 $406 $415 $417 $540 reversed $525 $-1 #
vertex $-1 $540 $595 #
vertex $-1 $407 $596 #
straight-curve $-1 -39.258910054365899 -25.628917618762838 0 0 0 1 I I #
straight-curve $-1 -20.745705466546084 -17.116258376364069 -8.6363359377145805 1 0 0 I I #
straight-curve $-1 -20.745705466546084 -17.116258376364069 8.6363359377145805 -1 0 0 I I #
point $-1 -39.258910054365899 -17.116258376364069 8.6363359377145805 #
point $-1 -39.258910054365899 -17.116258376364069 -8.6363359377145805 #
straight-curve $-1 -43.723911811818439 -25.628917618762838 0 0 0 -1 I I #
edge $-1 $532 39.258910054365899 $418 43.723911811818439 $531 $597 forward 7 unknown #
point $-1 -43.723911811818439 -25.628917618762838 -8.6363359377145805 #
edge $-1 $421 -43.723911811818439 $533 -39.258910054365899 $530 $598 forward 7 unknown #
point $-1 -43.723911811818439 -25.628917618762838 8.6363359377145805 #
coedge $-1 $545 $427 $551 $599 reversed $296 $-1 #
coedge $-1 $427 $544 $430 $549 reversed $296 $-1 #
edge $-1 $547 -14.591736575159592 $435 -7.4826255120468925 $434 $600 forward 7 unknown #
vertex $-1 $429 $601 #
straight-curve $-1 -46.242340852260853 25.628917618762838 13.477976334278116 -0.54463902268945019 0 -0.83867057594974714 I I #
edge $-1 $431 49.386538788157118 $553 53.802911465804009 $545 $602 forward 7 unknown #
point $-1 -49.386538788157118 25.628917618762834 8.6363359377145805 #
coedge $-1 $434 $433 $544 $599 forward $425 $-1 #
point $-1 -53.802911465804009 18.519806555650135 1.8357181654497092 #
vertex $-1 $549 $603 #
straight-curve $-1 -53.802911465804009 0 8.6363359377145805 0 -1 0 I I #
vertex $-1 $441 $604 #
point $-1 -49.178811819850601 20.550981145110907 4.8594779373604178 #
vertex $-1 $445 $605 #
point $-1 -49.178811819850601 23.597743029302062 4.8594779373604178 #
edge $-1 $560 67.247296454179192 $563 72.968535338869515 $450 $606 forward 7 unknown #
vertex $-1 $464 $607 #
straight-curve $-1 42.721209361118582 -9.1154886312994172 8.636335937714577 1 0 0 I I #
edge $-1 $563 -7.032166526630256 $461 2.8655223172919335 $460 $608 forward 7 unknown #
vertex $-1 $562 $609 #
straight-curve $-1 -4.8034187713610379 -9.1154886312994172 93.160934546622514 -0.54463902268945019 0 0.83867057594974714 I I #
point $-1 50.087495611131978 -9.1154886312994172 8.636335937714577 #
point $-1 53.802911465804009 0.78220021262277228 2.9150970530242546 #
straight-curve $-1 53.802911465804009 0 8.6363359377145805 0 1 0 I I #
vertex $-1 $467 $610 #
point $-1 50.663959201459285 -7.1359508625149779 4.3474850802177301 #
vertex $-1 $471 $611 #
point $-1 50.663959201459285 -4.1666442093383189 4.3474850802177301 #
vertex $-1 $475 $612 #
point $-1 50.663959201459285 -1.1973375561616599 4.3474850802177301 #
edge $-1 $575 67.247296454179192 $578 72.968535338869515 $480 $613 forward 7 unknown #
vertex $-1 $494 $614 #
straight-curve $-1 42.721209361118582 7.730459029775993 8.636335937714577 1 0 0 I I #
edge $-1 $578 1.3908073039074491 $491 11.288496147829639 $490 $615 forward 7 unknown #
vertex $-1 $577 $616 #
straight-curve $-1 -4.8034187713610379 7.730459029775993 93.160934546622514 -0.54463902268945019 0 0.83867057594974714 I I #
point $-1 50.087495611131978 7.730459029775993 8.636335937714577 #
point $-1 53.802911465804009 17.628147873698182 2.9150970530242546 #
straight-curve $-1 53.802911465804009 0 8.6363359377145805 0 1 0 I I #
vertex $-1 $497 $617 #
point $-1 50.663959201459285 9.7099967985604358 4.3474850802177301 #
vertex $-1 $501 $618 #
point $-1 50.663959201459285 12.679303451737095 4.3474850802177301 #
vertex $-1 $505 $619 #
point $-1 50.663959201459285 15.648610104913754 4.3474850802177301 #
straight-curve $-1 -53.802911465804009 25.628917618762838 0 0 0 -1 I I #
point $-1 -53.802911465804009 -25.628917618762838 -8.6363359377145805 #
straight-curve $-1 -53.802911465804009 0 -8.6363359377145805 0 1 0 I I #
point $-1 -53.802911465804009 25.628917618762838 -8.6363359377145805 #
straight-curve $-1 -39.258910054365899 -10.686293998781727 8.6363359377145805 0 1 0 I I #
straight-curve $-1 -39.258910054365899 -10.686293998781727 -8.6363359377145805 0 -1 0 I I #
point $-1 -39.258910054365899 -25.628917618762838 -8.6363359377145805 #
point $-1 -39.258910054365899 -25.628917618762838 8.6363359377145805 #
straight-curve $-1 0 -25.628917618762838 -8.6363359377145805 -1 0 0 I I #
straight-curve $-1 0 -25.628917618762838 8.6363359377145805 1 0 0 I I #
edge $-1 $553 -8.6363359377145805 $547 -1.8357181654497092 $544 $620 forward 7 unknown #
straight-curve $-1 -53.802911465804009 11.037181043603242 1.8357181654497148 0 -1 0 I I #
point $-1 -53.802911465804009 25.628917618762834 1.8357181654497092 #
straight-curve $-1 0 25.628917618762838 8.6363359377145805 -1 0 0 I I #
point $-1 -53.802911465804009 25.628917618762838 8.6363359377145805 #
point $-1 -48.884780266590305 20.550981145110907 3.4761683387212203 #
point $-1 -48.884780266590305 23.597743029302062 3.4761683387212203 #
straight-curve $-1 53.802911465804009 -9.1154886312994172 75.883632391893769 0 0 -1 I I #
point $-1 53.802911465804009 -9.1154886312994172 8.6363359377145805 #
straight-curve $-1 53.802911465804002 -2.0833221046691612 2.9150970530242617 0 1 0 I I #
point $-1 53.802911465804009 -9.1154886312994172 2.9150970530242546 #
point $-1 49.972304402139684 -7.1359508625149779 4.4945008568478793 #
point $-1 49.972304402139684 -4.1666442093383189 4.4945008568478793 #
point $-1 49.972304402139684 -1.1973375561616599 4.4945008568478793 #
straight-curve $-1 53.802911465804009 7.730459029775993 75.883632391893769 0 0 -1 I I #
point $-1 53.802911465804009 7.730459029775993 8.6363359377145805 #
straight-curve $-1 53.802911465804002 6.3396517258685439 2.9150970530242617 0 1 0 I I #
point $-1 53.802911465804009 7.730459029775993 2.9150970530242546 #
point $-1 49.972304402139684 9.7099967985604358 4.4945008568478793 #
point $-1 49.972304402139684 12.679303451737095 4.4945008568478793 #
point $-1 49.972304402139684 15.648610104913754 4.4945008568478793 #
straight-curve $-1 -53.802911465804009 25.628917618762838 0 0 0 -1 I I #
End-of-ACIS-data 