500 0 10 0           
7 Unknown 11 ACIS 5.0 NT 24 Fri Mar 26 18:45:26 1999 
-1 9.9999999999999995e-007 1e-010 
body $-1 $10 $-1 $11 #
body $-1 $12 $-1 $13 #
body $-1 $14 $-1 $15 #
body $-1 $16 $-1 $17 #
body $-1 $18 $-1 $19 #
body $-1 $20 $-1 $21 #
body $-1 $22 $-1 $23 #
body $-1 $24 $-1 $25 #
body $-1 $26 $-1 $27 #
body $-1 $28 $-1 $29 #
lump $-1 $-1 $30 $0 #
transform $-1 1 0 0 0 1 0 0 0 1 61.393475142674035 37.928415662348677 13.799475086527787 1 rotate no_reflect no_shear #
lump $-1 $-1 $31 $1 #
transform $-1 1 0 0 0 1 0 0 0 1 61.393475142674035 37.928415662348677 13.799475086527787 1 rotate no_reflect no_shear #
lump $-1 $-1 $32 $2 #
transform $-1 1 0 0 0 1 0 0 0 1 61.393475142674035 37.928415662348677 13.799475086527787 1 rotate no_reflect no_shear #
lump $-1 $-1 $33 $3 #
transform $-1 1 0 0 0 1 0 0 0 1 61.393475142674035 37.928415662348677 13.799475086527787 1 rotate no_reflect no_shear #
lump $-1 $-1 $34 $4 #
transform $-1 1 0 0 0 1 0 0 0 1 61.393475142674035 37.928415662348677 13.799475086527787 1 rotate no_reflect no_shear #
lump $-1 $-1 $35 $5 #
transform $-1 1 0 0 0 1 0 0 0 1 61.393475142674035 37.928415662348677 13.799475086527787 1 rotate no_reflect no_shear #
lump $-1 $-1 $36 $6 #
transform $-1 1 0 0 0 1 0 0 0 1 61.393475142674035 37.928415662348677 13.799475086527787 1 rotate no_reflect no_shear #
lump $-1 $-1 $37 $7 #
transform $-1 1 0 0 0 1 0 0 0 1 61.393475142674035 37.928415662348677 13.799475086527787 1 rotate no_reflect no_shear #
lump $-1 $-1 $38 $8 #
transform $-1 1 0 0 0 1 0 0 0 1 61.393475142674035 37.928415662348677 13.799475086527787 1 rotate no_reflect no_shear #
lump $-1 $-1 $39 $9 #
transform $-1 1 0 0 0 1 0 0 0 1 61.393475142674035 37.928415662348677 13.799475086527787 1 rotate no_reflect no_shear #
shell $-1 $-1 $-1 $40 $-1 $10 #
shell $-1 $-1 $-1 $41 $-1 $12 #
shell $-1 $-1 $-1 $42 $-1 $14 #
shell $-1 $-1 $-1 $43 $-1 $16 #
shell $-1 $-1 $-1 $44 $-1 $18 #
shell $-1 $-1 $-1 $45 $-1 $20 #
shell $-1 $-1 $-1 $46 $-1 $22 #
shell $-1 $-1 $-1 $47 $-1 $24 #
shell $-1 $-1 $-1 $48 $-1 $26 #
shell $-1 $-1 $-1 $49 $-1 $28 #
face $-1 $50 $51 $30 $-1 $52 forward single #
face $-1 $53 $54 $31 $-1 $55 forward single #
face $-1 $56 $57 $32 $-1 $58 reversed single #
face $-1 $59 $60 $33 $-1 $61 forward single #
face $-1 $62 $63 $34 $-1 $64 forward single #
face $-1 $65 $66 $35 $-1 $67 reversed single #
face $-1 $68 $69 $36 $-1 $70 forward single #
face $-1 $71 $72 $37 $-1 $73 forward single #
face $-1 $74 $75 $38 $-1 $76 reversed single #
face $-1 $77 $78 $39 $-1 $79 forward single #
face $-1 $80 $81 $30 $-1 $82 reversed single #
loop $-1 $-1 $83 $40 #
plane-surface $-1 0 0 13.799475086527787 0 0 1 1 0 0 forward_v I I I I #
face $-1 $84 $85 $31 $-1 $86 reversed single #
loop $-1 $-1 $87 $41 #
plane-surface $-1 0 -37.928415662348677 0 0 1 0 0 0 1 forward_v I I I I #
face $-1 $88 $89 $32 $-1 $90 reversed single #
loop $-1 $-1 $91 $42 #
plane-surface $-1 -148.21696133803312 -18.120512892237286 88.77857577316712 0 1 0 -0.70710678939079041 0 0.70710677298230451 forward_v I I I I #
face $-1 $92 $93 $33 $-1 $94 forward single #
loop $-1 $95 $96 $43 #
cone-surface $-1 -54.873505634733235 -16.189061165270115 7.2795054550334086 0.70710678939079041 0 -0.70710677298230451 0.35355338649115226 0 0.35355339469539521 1 I I 0 1 0.5 forward I I I I #
face $-1 $97 $98 $34 $-1 $99 forward single #
loop $-1 $100 $101 $44 #
cone-surface $-1 -54.873505634733235 -13.291883574819355 7.2795054550334086 0.70710678939079041 0 -0.70710677298230451 0.35355338649115226 0 0.35355339469539521 1 I I 0 1 0.5 forward I I I I #
face $-1 $102 $103 $35 $-1 $104 reversed single #
loop $-1 $-1 $105 $45 #
plane-surface $-1 -148.21696133803312 11.430985050938716 88.77857577316712 0 1 0 -0.70710678939079041 0 0.70710677298230451 forward_v I I I I #
face $-1 $106 $107 $36 $-1 $108 forward single #
loop $-1 $109 $110 $46 #
cone-surface $-1 -54.873505634733235 13.362436777905884 7.2795054550334086 0.70710678939079041 0 -0.70710677298230451 0.35355338649115226 0 0.35355339469539521 1 I I 0 1 0.5 forward I I I I #
face $-1 $111 $112 $37 $-1 $113 forward single #
loop $-1 $114 $115 $47 #
cone-surface $-1 -54.873505634733235 16.259614368356644 7.2795054550334086 0.70710678939079041 0 -0.70710677298230451 0.35355338649115226 0 0.35355339469539521 1 I I 0 1 0.5 forward I I I I #
face $-1 $116 $117 $38 $-1 $118 reversed single #
loop $-1 $-1 $119 $48 #
plane-surface $-1 25.290241371619999 11.790473070703804 171.3216527044971 0 -1 0 -0.54463904215088732 0 -0.83867056331134215 forward_v I I I I #
face $-1 $120 $121 $39 $-1 $122 forward single #
loop $-1 $123 $124 $49 #
cone-surface $-1 51.523674242895332 7.2297304586256317 7.0547945944729378 -0.54463904215088732 0 -0.83867056331134215 0.83867056331134215 0 -0.54463904215088732 1 I I 0 1 1 forward I I I I #
face $-1 $125 $126 $30 $-1 $127 reversed single #
loop $-1 $-1 $128 $50 #
plane-surface $-1 0 0 -13.799475086527787 0 0 1 1 0 0 forward_v I I I I #
coedge $-1 $129 $130 $131 $132 forward $51 $-1 #
face $-1 $133 $134 $31 $-1 $135 forward single #
loop $-1 $-1 $136 $53 #
plane-surface $-1 -61.393475142674035 0 0 1 0 0 0 0 -1 forward_v I I I I #
coedge $-1 $137 $138 $139 $140 forward $54 $-1 #
face $-1 $141 $142 $32 $-1 $143 reversed single #
loop $-1 $-1 $144 $56 #
plane-surface $-1 -61.393475142674049 -14.740472370044735 1.955091592556002 -0.70710678939079041 0 0.70710677298230451 0.70710677298230451 0 0.70710678939079041 forward_v I I I I #
coedge $-1 $145 $146 $147 $148 reversed $57 $-1 #
face $-1 $-1 $149 $33 $-1 $150 forward single #
loop $-1 $151 $152 $59 #
cone-surface $-1 -54.098951039005556 -16.189061165270115 6.504950877279347 0.70710678939079041 0 -0.70710677298230451 0.17677669324557613 0 0.1767766973476976 1 I I -0.70710678118654746 0.70710678118654746 0.25 forward I I I I #
loop $-1 $-1 $153 $43 #
coedge $-1 $96 $96 $154 $155 reversed $60 $-1 #
face $-1 $-1 $156 $34 $-1 $157 forward single #
loop $-1 $158 $159 $62 #
cone-surface $-1 -54.098951039005556 -13.291883574819355 6.504950877279347 0.70710678939079041 0 -0.70710677298230451 0.17677669324557613 0 0.1767766973476976 1 I I -0.70710678118654746 0.70710678118654746 0.25 forward I I I I #
loop $-1 $-1 $160 $44 #
coedge $-1 $101 $101 $161 $162 reversed $63 $-1 #
face $-1 $163 $164 $35 $-1 $165 reversed single #
loop $-1 $-1 $166 $65 #
plane-surface $-1 -61.393475142674049 14.811025573131268 1.955091592556002 -0.70710678939079041 0 0.70710677298230451 0.70710677298230451 0 0.70710678939079041 forward_v I I I I #
coedge $-1 $167 $168 $169 $170 reversed $66 $-1 #
face $-1 $-1 $171 $36 $-1 $172 forward single #
loop $-1 $173 $174 $68 #
cone-surface $-1 -54.098951039005556 13.362436777905884 6.504950877279347 0.70710678939079041 0 -0.70710677298230451 0.17677669324557613 0 0.1767766973476976 1 I I -0.70710678118654746 0.70710678118654746 0.25 forward I I I I #
loop $-1 $-1 $175 $46 #
coedge $-1 $110 $110 $176 $177 reversed $69 $-1 #
face $-1 $-1 $178 $37 $-1 $179 forward single #
loop $-1 $180 $181 $71 #
cone-surface $-1 -54.098951039005556 16.259614368356644 6.504950877279347 0.70710678939079041 0 -0.70710677298230451 0.17677669324557613 0 0.1767766973476976 1 I I -0.70710678118654746 0.70710678118654746 0.25 forward I I I I #
loop $-1 $-1 $182 $47 #
coedge $-1 $115 $115 $183 $184 reversed $72 $-1 #
face $-1 $185 $186 $38 $-1 $187 reversed single #
loop $-1 $-1 $188 $74 #
plane-surface $-1 -41.5843256204206 7.2297304586256317 68.343851941402463 0.54463904215088732 0 0.83867056331134215 0.83867056331134215 0 -0.54463904215088732 forward_v I I I I #
coedge $-1 $189 $190 $191 $192 reversed $75 $-1 #
face $-1 $-1 $193 $39 $-1 $194 forward single #
loop $-1 $195 $196 $77 #
cone-surface $-1 50.874967539899487 7.2297304586256317 6.055873889345369 -0.54463904215088732 0 -0.83867056331134215 0.41933528165567108 0 -0.27231952107544366 1 I I -0.70710678118654746 0.70710678118654746 0.5 forward I I I I #
loop $-1 $-1 $197 $49 #
coedge $-1 $124 $124 $198 $199 reversed $78 $-1 #
face $-1 $200 $201 $30 $-1 $202 reversed single #
loop $-1 $-1 $203 $80 #
plane-surface $-1 0 -37.928415662348677 0 0 1 0 0 0 1 forward_v I I I I #
coedge $-1 $204 $205 $206 $207 forward $81 $-1 #
coedge $-1 $208 $83 $209 $210 forward $51 $-1 #
coedge $-1 $83 $208 $211 $212 forward $51 $-1 #
coedge $-1 $213 $214 $83 $132 reversed $215 $-1 #
edge $-1 $216 -37.928415662348677 $217 37.928415662348677 $131 $218 forward 7 unknown #
face $-1 $219 $220 $31 $-1 $221 reversed single #
loop $-1 $-1 $222 $84 #
plane-surface $-1 0 -46.305333381521351 -6.7905068826727373 0 0 1 1 0 0 forward_v I I I I #
coedge $-1 $223 $224 $138 $225 forward $85 $-1 #
coedge $-1 $226 $87 $227 $228 reversed $54 $-1 #
coedge $-1 $87 $226 $136 $225 reversed $54 $-1 #
coedge $-1 $229 $222 $87 $140 reversed $134 $-1 #
edge $-1 $230 -61.393475142674035 $231 61.393475142674035 $139 $232 forward 7 unknown #
face $-1 $233 $234 $32 $-1 $235 forward single #
loop $-1 $-1 $236 $88 #
plane-surface $-1 -148.21696133803312 -11.360431847852183 88.77857577316712 0 -1 0 0.70710678939079041 0 -0.70710677298230451 forward_v I I I I #
coedge $-1 $237 $238 $239 $240 reversed $89 $-1 #
coedge $-1 $146 $91 $241 $242 reversed $57 $-1 #
coedge $-1 $91 $145 $237 $243 reversed $57 $-1 #
coedge $-1 $239 $244 $91 $148 forward $234 $-1 #
edge $-1 $245 12.715005526342523 $246 24.559388745464155 $147 $247 forward 7 unknown #
loop $-1 $-1 $154 $92 #
plane-surface $-1 -61.393475142674049 -14.740472370044735 1.955091592556002 -0.70710678939079041 0 0.70710677298230451 0.70710677298230451 0 0.70710678939079041 forward_v I I I I #
loop $-1 $-1 $248 $59 #
coedge $-1 $152 $152 $153 $249 reversed $93 $-1 #
coedge $-1 $153 $153 $152 $249 forward $95 $-1 #
coedge $-1 $154 $154 $96 $155 forward $149 $-1 #
edge $-1 $250 0 $250 6.2831853071796004 $154 $251 forward 7 unknown #
loop $-1 $-1 $161 $97 #
plane-surface $-1 -61.393475142674049 -14.740472370044735 1.955091592556002 -0.70710678939079041 0 0.70710677298230451 0.70710677298230451 0 0.70710678939079041 forward_v I I I I #
loop $-1 $-1 $252 $62 #
coedge $-1 $159 $159 $160 $253 reversed $98 $-1 #
coedge $-1 $160 $160 $159 $253 forward $100 $-1 #
coedge $-1 $161 $161 $101 $162 forward $156 $-1 #
edge $-1 $254 0 $254 6.2831853071796004 $161 $255 forward 7 unknown #
face $-1 $256 $257 $35 $-1 $258 forward single #
loop $-1 $-1 $259 $102 #
plane-surface $-1 -148.21696133803312 18.191066095323819 88.77857577316712 0 -1 0 0.70710678939079041 0 -0.70710677298230451 forward_v I I I I #
coedge $-1 $260 $261 $262 $263 reversed $103 $-1 #
coedge $-1 $168 $105 $264 $265 reversed $66 $-1 #
coedge $-1 $105 $167 $260 $266 reversed $66 $-1 #
coedge $-1 $262 $267 $105 $170 forward $257 $-1 #
edge $-1 $268 12.715005526342523 $269 24.559388745464155 $169 $270 forward 7 unknown #
loop $-1 $-1 $176 $106 #
plane-surface $-1 -61.393475142674049 14.811025573131268 1.955091592556002 -0.70710678939079041 0 0.70710677298230451 0.70710677298230451 0 0.70710678939079041 forward_v I I I I #
loop $-1 $-1 $271 $68 #
coedge $-1 $174 $174 $175 $272 reversed $107 $-1 #
coedge $-1 $175 $175 $174 $272 forward $109 $-1 #
coedge $-1 $176 $176 $110 $177 forward $171 $-1 #
edge $-1 $273 0 $273 6.2831853071796004 $176 $274 forward 7 unknown #
loop $-1 $-1 $183 $111 #
plane-surface $-1 -61.393475142674049 14.811025573131268 1.955091592556002 -0.70710678939079041 0 0.70710677298230451 0.70710677298230451 0 0.70710678939079041 forward_v I I I I #
loop $-1 $-1 $275 $71 #
coedge $-1 $181 $181 $182 $276 reversed $112 $-1 #
coedge $-1 $182 $182 $181 $276 forward $114 $-1 #
coedge $-1 $183 $183 $115 $184 forward $178 $-1 #
edge $-1 $277 0 $277 6.2831853071796004 $183 $278 forward 7 unknown #
face $-1 $279 $280 $38 $-1 $281 reversed single #
loop $-1 $-1 $282 $116 #
plane-surface $-1 25.290241371619999 2.6689878465474592 171.3216527044971 0 1 0 0.54463904215088732 0 0.83867056331134215 forward_v I I I I #
coedge $-1 $283 $284 $285 $286 reversed $117 $-1 #
coedge $-1 $190 $119 $287 $288 reversed $75 $-1 #
coedge $-1 $119 $189 $283 $289 reversed $75 $-1 #
coedge $-1 $285 $290 $119 $192 forward $291 $-1 #
edge $-1 $292 -48.748354456864035 $293 -29.761527021147401 $191 $294 forward 7 unknown #
loop $-1 $-1 $198 $120 #
plane-surface $-1 -41.5843256204206 7.2297304586256317 68.343851941402463 0.54463904215088732 0 0.83867056331134215 0.83867056331134215 0 -0.54463904215088732 forward_v I I I I #
loop $-1 $-1 $295 $77 #
coedge $-1 $196 $196 $197 $296 reversed $121 $-1 #
coedge $-1 $197 $197 $196 $296 forward $123 $-1 #
coedge $-1 $198 $198 $124 $199 forward $193 $-1 #
edge $-1 $297 0 $297 6.2831853071796004 $198 $298 forward 7 unknown #
face $-1 $299 $300 $30 $-1 $301 reversed single #
loop $-1 $-1 $302 $125 #
plane-surface $-1 -61.393475142674035 0 0 1 0 0 0 0 -1 forward_v I I I I #
coedge $-1 $303 $211 $304 $305 forward $126 $-1 #
coedge $-1 $306 $128 $303 $307 forward $81 $-1 #
coedge $-1 $128 $306 $308 $309 forward $81 $-1 #
coedge $-1 $214 $213 $128 $207 reversed $215 $-1 #
edge $-1 $310 -37.928415662348677 $311 37.928415662348677 $206 $312 forward 7 unknown #
coedge $-1 $130 $129 $313 $314 forward $51 $-1 #
coedge $-1 $315 $316 $129 $210 reversed $300 $-1 #
edge $-1 $217 -61.393475142674035 $317 61.393475142674035 $209 $318 forward 7 unknown #
coedge $-1 $203 $319 $130 $212 reversed $126 $-1 #
edge $-1 $320 -61.393475142674035 $216 61.393475142674035 $211 $321 forward 7 unknown #
coedge $-1 $206 $131 $319 $322 forward $215 $-1 #
coedge $-1 $131 $206 $315 $323 reversed $215 $-1 #
loop $-1 $-1 $213 $299 #
vertex $-1 $132 $324 #
vertex $-1 $132 $325 #
straight-curve $-1 61.393475142674035 0 13.799475086527787 0 1 0 I I #
face $-1 $326 $327 $31 $-1 $328 reversed single #
loop $-1 $-1 $329 $133 #
plane-surface $-1 0 -46.305333381521351 -10.159032577032953 0 0 1 1 0 0 forward_v I I I I #
coedge $-1 $139 $330 $331 $332 forward $134 $-1 #
coedge $-1 $333 $136 $334 $335 reversed $85 $-1 #
coedge $-1 $136 $333 $229 $336 reversed $85 $-1 #
edge $-1 $230 6.7905068826727373 $337 10.159032577032953 $136 $338 forward 7 unknown #
coedge $-1 $138 $137 $339 $340 forward $54 $-1 #
coedge $-1 $331 $341 $137 $228 forward $342 $-1 #
edge $-1 $343 -10.159032577032953 $231 -6.7905068826727373 $227 $344 forward 7 unknown #
coedge $-1 $330 $139 $224 $336 forward $134 $-1 #
vertex $-1 $225 $345 #
vertex $-1 $332 $346 #
straight-curve $-1 0 -37.928415662348677 -6.7905068826727373 1 0 0 I I #
face $-1 $-1 $347 $32 $-1 $348 reversed single #
loop $-1 $-1 $147 $141 #
plane-surface $-1 0 0 13.799475086527787 0 0 1 1 0 0 forward_v I I I I #
coedge $-1 $349 $350 $351 $352 reversed $142 $-1 #
coedge $-1 $353 $144 $146 $243 forward $89 $-1 #
coedge $-1 $144 $353 $349 $354 forward $89 $-1 #
coedge $-1 $351 $147 $144 $240 forward $234 $-1 #
edge $-1 $246 -10.750276707214919 $355 -3.9901956628298159 $239 $356 forward 7 unknown #
coedge $-1 $357 $358 $145 $242 forward $347 $-1 #
edge $-1 $359 -42.434196294027544 $245 -30.589812800055775 $241 $360 forward 7 unknown #
edge $-1 $246 -16.750487580774536 $359 -2.0097183471152325e-014 $146 $361 forward 7 unknown #
coedge $-1 $147 $351 $357 $362 forward $234 $-1 #
vertex $-1 $242 $363 #
vertex $-1 $148 $364 #
straight-curve $-1 -74.108480669016558 -18.120512892237286 13.799475086527785 1 0 0 I I #
coedge $-1 $248 $248 $-1 $365 reversed $151 $-1 #
edge $-1 $366 0 $366 6.2831853071796004 $152 $367 forward 7 unknown #
vertex $-1 $155 $368 #
ellipse-curve $-1 -55.471283533113223 -16.189061165270115 7.8772833395418989 -0.70710678939079041 0 0.70710677298230451 0.35355338649115226 0 0.35355339469539521 1 I I #
coedge $-1 $252 $252 $-1 $369 reversed $158 $-1 #
edge $-1 $370 0 $370 6.2831853071796004 $159 $371 forward 7 unknown #
vertex $-1 $162 $372 #
ellipse-curve $-1 -55.471283533113223 -13.291883574819355 7.8772833395418989 -0.70710678939079041 0 0.70710677298230451 0.35355338649115226 0 0.35355339469539521 1 I I #
face $-1 $-1 $373 $35 $-1 $374 reversed single #
loop $-1 $-1 $169 $163 #
plane-surface $-1 0 0 13.799475086527787 0 0 1 1 0 0 forward_v I I I I #
coedge $-1 $375 $376 $377 $378 reversed $164 $-1 #
coedge $-1 $379 $166 $168 $266 forward $103 $-1 #
coedge $-1 $166 $379 $375 $380 forward $103 $-1 #
coedge $-1 $377 $169 $166 $263 forward $257 $-1 #
edge $-1 $269 4.0254722643730823 $381 10.785553308758185 $262 $382 forward 7 unknown #
coedge $-1 $383 $384 $167 $265 forward $373 $-1 #
edge $-1 $385 -42.434196294027544 $268 -30.589812800055775 $264 $386 forward 7 unknown #
edge $-1 $269 -16.750487580774536 $385 -2.0097183471152325e-014 $168 $387 forward 7 unknown #
coedge $-1 $169 $377 $383 $388 forward $257 $-1 #
vertex $-1 $170 $389 #
vertex $-1 $170 $390 #
straight-curve $-1 -74.108480669016558 11.430985050938716 13.799475086527785 1 0 0 I I #
coedge $-1 $271 $271 $-1 $391 reversed $173 $-1 #
edge $-1 $392 0 $392 6.2831853071796004 $174 $393 forward 7 unknown #
vertex $-1 $177 $394 #
ellipse-curve $-1 -55.471283533113223 13.362436777905884 7.8772833395418989 -0.70710678939079041 0 0.70710677298230451 0.35355338649115226 0 0.35355339469539521 1 I I #
coedge $-1 $275 $275 $-1 $395 reversed $180 $-1 #
edge $-1 $396 0 $396 6.2831853071796004 $181 $397 forward 7 unknown #
vertex $-1 $184 $398 #
ellipse-curve $-1 -55.471283533113223 16.259614368356644 7.8772833395418989 -0.70710678939079041 0 0.70710677298230451 0.35355338649115226 0 0.35355339469539521 1 I I #
face $-1 $-1 $291 $38 $-1 $399 forward single #
loop $-1 $-1 $400 $185 #
plane-surface $-1 61.393475142674035 0 0 -1 0 0 0 0 1 forward_v I I I I #
coedge $-1 $401 $402 $403 $404 reversed $186 $-1 #
coedge $-1 $405 $188 $190 $289 forward $117 $-1 #
coedge $-1 $188 $405 $401 $406 forward $117 $-1 #
coedge $-1 $403 $191 $188 $286 forward $291 $-1 #
edge $-1 $293 -8.1756078413909883 $407 0.9458773827653566 $285 $408 forward 7 unknown #
coedge $-1 $409 $410 $189 $288 forward $280 $-1 #
edge $-1 $411 -84.191541402886685 $292 -71.861351265720756 $287 $412 forward 7 unknown #
edge $-1 $293 100.14775407849601 $411 122.78695028534807 $190 $413 forward 7 unknown #
coedge $-1 $191 $403 $409 $414 forward $291 $-1 #
loop $-1 $-1 $403 $279 #
vertex $-1 $288 $415 #
vertex $-1 $192 $416 #
straight-curve $-1 12.645120685809999 11.790473070703804 13.799475086527792 -1 0 0 I I #
coedge $-1 $295 $295 $-1 $417 reversed $195 $-1 #
edge $-1 $418 0 $418 6.2831853071796004 $196 $419 forward 7 unknown #
vertex $-1 $199 $420 #
ellipse-curve $-1 51.900061424815725 7.2297304586256317 7.6343800179448191 0.54463904215088732 0 0.83867056331134215 0.83867056331134215 0 -0.54463904215088732 1 I I #
face $-1 $-1 $215 $30 $-1 $421 reversed single #
loop $-1 $-1 $315 $200 #
plane-surface $-1 0 37.928415662348677 0 0 -1 0 0 0 -1 forward_v I I I I #
coedge $-1 $422 $313 $316 $423 forward $201 $-1 #
coedge $-1 $319 $203 $204 $307 reversed $126 $-1 #
coedge $-1 $313 $422 $203 $305 reversed $201 $-1 #
edge $-1 $320 -13.799475086527787 $424 13.799475086527787 $304 $425 forward 7 unknown #
coedge $-1 $205 $204 $422 $426 forward $81 $-1 #
edge $-1 $311 -61.393475142674035 $424 61.393475142674035 $303 $427 forward 7 unknown #
coedge $-1 $316 $315 $205 $309 reversed $300 $-1 #
edge $-1 $428 -61.393475142674035 $310 61.393475142674035 $308 $429 forward 7 unknown #
vertex $-1 $207 $430 #
vertex $-1 $322 $431 #
straight-curve $-1 61.393475142674035 0 -13.799475086527787 0 -1 0 I I #
coedge $-1 $302 $304 $208 $314 reversed $201 $-1 #
edge $-1 $317 -37.928415662348677 $320 37.928415662348677 $313 $432 forward 7 unknown #
coedge $-1 $308 $209 $214 $323 forward $300 $-1 #
coedge $-1 $209 $308 $302 $423 reversed $300 $-1 #
vertex $-1 $210 $433 #
straight-curve $-1 0 37.928415662348677 13.799475086527787 -1 0 0 I I #
coedge $-1 $211 $303 $213 $322 reversed $126 $-1 #
vertex $-1 $314 $434 #
straight-curve $-1 0 -37.928415662348677 13.799475086527787 1 0 0 I I #
edge $-1 $216 -13.799475086527787 $311 13.799475086527787 $213 $435 forward 7 unknown #
edge $-1 $217 -13.799475086527787 $310 13.799475086527787 $214 $436 forward 7 unknown #
point $-1 61.393475142674035 -37.928415662348677 13.799475086527787 #
point $-1 61.393475142674035 37.928415662348677 13.799475086527787 #
face $-1 $-1 $342 $31 $-1 $437 reversed single #
loop $-1 $-1 $438 $219 #
plane-surface $-1 0 -54.682251100694032 -8.474769729852845 0 1 0 0 0 1 forward_v I I I I #
coedge $-1 $439 $339 $341 $440 forward $220 $-1 #
coedge $-1 $222 $229 $441 $442 forward $134 $-1 #
coedge $-1 $443 $227 $222 $332 reversed $342 $-1 #
edge $-1 $444 -8.3769177191726811 $231 8.3769177191726811 $331 $445 forward 7 unknown #
coedge $-1 $224 $223 $438 $446 reversed $85 $-1 #
coedge $-1 $339 $439 $223 $335 forward $220 $-1 #
edge $-1 $447 -8.3769177191726811 $337 8.3769177191726811 $223 $448 forward 7 unknown #
edge $-1 $230 -8.3769177191726811 $449 8.3769177191726811 $224 $450 forward 7 unknown #
vertex $-1 $225 $451 #
straight-curve $-1 -61.393475142674035 -37.928415662348677 0 0 0 -1 I I #
coedge $-1 $329 $334 $226 $340 reversed $220 $-1 #
edge $-1 $343 -61.393475142674035 $337 61.393475142674035 $339 $452 forward 7 unknown #
coedge $-1 $227 $443 $329 $440 reversed $342 $-1 #
loop $-1 $-1 $227 $326 #
vertex $-1 $228 $453 #
straight-curve $-1 61.393475142674035 -37.928415662348677 0 0 0 1 I I #
point $-1 -61.393475142674035 -37.928415662348669 -6.7905068826727373 #
point $-1 61.393475142674035 -37.928415662348669 -6.7905068826727373 #
loop $-1 $-1 $241 $233 #
plane-surface $-1 -61.393475142674035 0 0 1 0 0 0 0 -1 forward_v I I I I #
coedge $-1 $350 $236 $238 $354 reversed $142 $-1 #
coedge $-1 $236 $349 $454 $455 reversed $142 $-1 #
coedge $-1 $244 $239 $236 $352 forward $234 $-1 #
edge $-1 $355 -24.559388745464155 $456 -12.715005526342523 $351 $457 forward 7 unknown #
coedge $-1 $238 $237 $358 $458 reversed $89 $-1 #
edge $-1 $459 2.0097183471152325e-014 $355 16.750487580774536 $349 $460 forward 7 unknown #
vertex $-1 $240 $461 #
straight-curve $-1 -49.54909192355241 -7.3702361850223674 13.799475086527787 0 1 0 I I #
coedge $-1 $454 $241 $244 $362 reversed $347 $-1 #
coedge $-1 $241 $454 $353 $458 forward $347 $-1 #
vertex $-1 $242 $462 #
straight-curve $-1 -61.393475142674035 -18.120512892237286 44.38928788658356 0 0 1 I I #
straight-curve $-1 -61.393475142674049 -18.120512892237286 1.955091592556002 -0.70710677298230451 0 -0.70710678939079041 I I #
edge $-1 $456 11.360431847852183 $245 18.120512892237286 $357 $463 forward 7 unknown #
point $-1 -61.393475142674035 -18.120512892237286 13.799475086527787 #
point $-1 -49.549091923552403 -18.120512892237286 13.799475086527787 #
edge $-1 $464 1 $464 0 $248 $-1 forward 7 unknown #
vertex $-1 $249 $465 #
ellipse-curve $-1 -54.275727736353254 -16.189061165270115 6.6817275705249228 -0.70710678939079041 0 0.70710677298230451 0.35355338649115226 0 0.35355339469539521 1 I I #
point $-1 -55.117730146622065 -16.189061165270115 8.2308367342372897 #
edge $-1 $466 1 $466 0 $252 $-1 forward 7 unknown #
vertex $-1 $253 $467 #
ellipse-curve $-1 -54.275727736353254 -13.291883574819355 6.6817275705249228 -0.70710678939079041 0 0.70710677298230451 0.35355338649115226 0 0.35355339469539521 1 I I #
point $-1 -55.117730146622065 -13.291883574819355 8.2308367342372897 #
loop $-1 $-1 $264 $256 #
plane-surface $-1 -61.393475142674035 0 0 1 0 0 0 0 -1 forward_v I I I I #
coedge $-1 $376 $259 $261 $380 reversed $164 $-1 #
coedge $-1 $259 $375 $468 $469 reversed $164 $-1 #
coedge $-1 $267 $262 $259 $378 forward $257 $-1 #
edge $-1 $381 -24.559388745464155 $470 -12.715005526342523 $377 $471 forward 7 unknown #
coedge $-1 $261 $260 $384 $472 reversed $103 $-1 #
edge $-1 $473 2.0097183471152325e-014 $381 16.750487580774536 $375 $474 forward 7 unknown #
vertex $-1 $263 $475 #
straight-curve $-1 -49.54909192355241 7.4055127865656338 13.799475086527787 0 1 0 I I #
coedge $-1 $468 $264 $267 $388 reversed $373 $-1 #
coedge $-1 $264 $468 $379 $472 forward $373 $-1 #
vertex $-1 $265 $476 #
straight-curve $-1 -61.393475142674035 11.430985050938716 44.38928788658356 0 0 1 I I #
straight-curve $-1 -61.393475142674049 11.430985050938716 1.955091592556002 -0.70710677298230451 0 -0.70710678939079041 I I #
edge $-1 $470 -18.191066095323819 $268 -11.430985050938716 $383 $477 forward 7 unknown #
point $-1 -61.393475142674035 11.430985050938716 13.799475086527787 #
point $-1 -49.549091923552403 11.430985050938716 13.799475086527787 #
edge $-1 $478 1 $478 0 $271 $-1 forward 7 unknown #
vertex $-1 $272 $479 #
ellipse-curve $-1 -54.275727736353254 13.362436777905884 6.6817275705249228 -0.70710678939079041 0 0.70710677298230451 0.35355338649115226 0 0.35355339469539521 1 I I #
point $-1 -55.117730146622065 13.362436777905884 8.2308367342372897 #
edge $-1 $480 1 $480 0 $275 $-1 forward 7 unknown #
vertex $-1 $276 $481 #
ellipse-curve $-1 -54.275727736353254 16.259614368356644 6.6817275705249228 -0.70710678939079041 0 0.70710677298230451 0.35355338649115226 0 0.35355339469539521 1 I I #
point $-1 -55.117730146622065 16.259614368356644 8.2308367342372897 #
plane-surface $-1 0 0 13.799475086527787 0 0 1 1 0 0 forward_v I I I I #
coedge $-1 $410 $409 $402 $482 forward $280 $-1 #
coedge $-1 $402 $282 $284 $406 reversed $186 $-1 #
coedge $-1 $282 $401 $400 $482 reversed $186 $-1 #
coedge $-1 $290 $285 $282 $404 forward $291 $-1 #
edge $-1 $407 29.761527021147401 $483 48.748354456864035 $403 $484 forward 7 unknown #
coedge $-1 $284 $283 $410 $485 reversed $117 $-1 #
edge $-1 $486 -122.78695028534807 $407 -100.14775407849601 $401 $487 forward 7 unknown #
vertex $-1 $286 $488 #
straight-curve $-1 42.406647706957415 3.6148652293128158 13.799475086527778 0 -1 0 I I #
coedge $-1 $400 $287 $290 $414 reversed $280 $-1 #
coedge $-1 $287 $400 $405 $485 forward $280 $-1 #
vertex $-1 $288 $489 #
straight-curve $-1 61.393475142674035 11.790473070703804 85.660826352248549 0 0 1 I I #
straight-curve $-1 -41.5843256204206 11.790473070703804 68.343851941402463 0.83867056331134215 0 -0.54463904215088732 I I #
edge $-1 $483 2.6689878465474592 $292 11.790473070703804 $409 $490 forward 7 unknown #
point $-1 61.393475142674035 11.790473070703804 13.799475086527787 #
point $-1 42.406647706957401 11.790473070703804 13.799475086527785 #
edge $-1 $491 1 $491 0 $295 $-1 forward 7 unknown #
vertex $-1 $296 $492 #
ellipse-curve $-1 51.147287060974932 7.2297304586256317 6.4752091710010404 0.54463904215088732 0 0.83867056331134215 0.83867056331134215 0 -0.54463904215088732 1 I I #
point $-1 52.738731988127071 7.2297304586256317 7.0897409757939487 #
plane-surface $-1 61.393475142674035 0 0 -1 0 0 0 0 1 forward_v I I I I #
coedge $-1 $304 $302 $306 $426 reversed $201 $-1 #
edge $-1 $317 -13.799475086527787 $428 13.799475086527787 $316 $493 forward 7 unknown #
vertex $-1 $426 $494 #
straight-curve $-1 -61.393475142674035 -37.928415662348677 0 0 0 -1 I I #
edge $-1 $424 -37.928415662348677 $428 37.928415662348677 $422 $495 forward 7 unknown #
straight-curve $-1 0 -37.928415662348677 -13.799475086527787 -1 0 0 I I #
vertex $-1 $309 $496 #
straight-curve $-1 0 37.928415662348677 -13.799475086527787 1 0 0 I I #
point $-1 61.393475142674035 37.928415662348677 -13.799475086527787 #
point $-1 61.393475142674035 -37.928415662348677 -13.799475086527787 #
straight-curve $-1 -61.393475142674035 0 13.799475086527787 0 -1 0 I I #
point $-1 -61.393475142674035 37.928415662348677 13.799475086527787 #
point $-1 -61.393475142674035 -37.928415662348677 13.799475086527787 #
straight-curve $-1 61.393475142674035 -37.928415662348677 0 0 0 -1 I I #
straight-curve $-1 61.393475142674035 37.928415662348677 0 0 0 -1 I I #
plane-surface $-1 61.393475142674035 0 0 -1 0 0 0 0 1 forward_v I I I I #
coedge $-1 $497 $441 $333 $446 forward $327 $-1 #
coedge $-1 $334 $329 $497 $498 forward $220 $-1 #
edge $-1 $343 -8.3769177191726811 $499 8.3769177191726811 $341 $500 forward 7 unknown #
coedge $-1 $438 $501 $330 $442 reversed $327 $-1 #
edge $-1 $449 -61.393475142674035 $444 61.393475142674035 $441 $502 forward 7 unknown #
coedge $-1 $341 $331 $501 $503 forward $342 $-1 #
vertex $-1 $332 $504 #
straight-curve $-1 61.393475142674035 -46.305333381521351 -6.7905068826727373 0 1 0 I I #
edge $-1 $449 -1.6842628471801078 $447 1.6842628471801078 $333 $505 forward 7 unknown #
vertex $-1 $335 $506 #
straight-curve $-1 -61.393475142674035 -46.305333381521351 -10.159032577032953 0 1 0 I I #
vertex $-1 $336 $507 #
straight-curve $-1 -61.393475142674035 -46.305333381521351 -6.7905068826727373 0 -1 0 I I #
point $-1 -61.393475142674035 -37.928415662348669 -10.159032577032953 #
straight-curve $-1 0 -37.928415662348677 -10.159032577032953 -1 0 0 I I #
point $-1 61.393475142674035 -37.928415662348669 -10.159032577032953 #
coedge $-1 $358 $357 $350 $455 forward $347 $-1 #
edge $-1 $456 30.589812800055775 $459 42.434196294027544 $454 $508 forward 7 unknown #
vertex $-1 $362 $509 #
straight-curve $-1 -74.108480669016558 -11.360431847852183 13.799475086527785 -1 0 0 I I #
edge $-1 $459 3.9901956628298159 $359 10.750276707214919 $358 $510 forward 7 unknown #
vertex $-1 $458 $511 #
straight-curve $-1 -61.393475142674049 -11.360431847852183 1.955091592556002 0.70710677298230451 0 0.70710678939079041 I I #
point $-1 -49.549091923552403 -11.360431847852183 13.799475086527787 #
point $-1 -61.393475142674035 -18.120512892237286 1.9550915925560162 #
straight-curve $-1 -61.393475142674035 0 13.799475086527787 0 -1 0 I I #
vertex $-1 $365 $512 #
point $-1 -53.922174349862104 -16.189061165270115 7.0352809652203181 #
vertex $-1 $369 $513 #
point $-1 -53.922174349862104 -13.291883574819355 7.0352809652203181 #
coedge $-1 $384 $383 $376 $469 forward $373 $-1 #
edge $-1 $470 30.589812800055775 $473 42.434196294027544 $468 $514 forward 7 unknown #
vertex $-1 $388 $515 #
straight-curve $-1 -74.108480669016558 18.191066095323819 13.799475086527785 -1 0 0 I I #
edge $-1 $473 -10.785553308758185 $385 -4.0254722643730823 $384 $516 forward 7 unknown #
vertex $-1 $472 $517 #
straight-curve $-1 -61.393475142674049 18.191066095323819 1.955091592556002 0.70710677298230451 0 0.70710678939079041 I I #
point $-1 -49.549091923552403 18.191066095323819 13.799475086527787 #
point $-1 -61.393475142674035 11.430985050938716 1.9550915925560162 #
straight-curve $-1 -61.393475142674035 0 13.799475086527787 0 -1 0 I I #
vertex $-1 $391 $518 #
point $-1 -53.922174349862104 13.362436777905884 7.0352809652203181 #
vertex $-1 $395 $519 #
point $-1 -53.922174349862104 16.259614368356644 7.0352809652203181 #
edge $-1 $483 71.861351265720756 $486 84.191541402886685 $400 $520 forward 7 unknown #
vertex $-1 $414 $521 #
straight-curve $-1 12.645120685809999 2.6689878465474592 13.799475086527792 1 0 0 I I #
edge $-1 $486 -0.9458773827653566 $411 8.1756078413909883 $410 $522 forward 7 unknown #
vertex $-1 $485 $523 #
straight-curve $-1 -41.5843256204206 2.6689878465474592 68.343851941402463 -0.83867056331134215 0 0.54463904215088732 I I #
point $-1 42.406647706957401 2.6689878465474592 13.799475086527785 #
point $-1 61.393475142674035 11.790473070703804 1.4692849493618638 #
straight-curve $-1 61.393475142674035 0 13.799475086527787 0 1 0 I I #
vertex $-1 $417 $524 #
point $-1 51.985957624286272 7.2297304586256317 5.9305701288501531 #
straight-curve $-1 -61.393475142674035 37.928415662348677 0 0 0 -1 I I #
point $-1 -61.393475142674035 -37.928415662348677 -13.799475086527787 #
straight-curve $-1 -61.393475142674035 0 -13.799475086527787 0 1 0 I I #
point $-1 -61.393475142674035 37.928415662348677 -13.799475086527787 #
coedge $-1 $501 $438 $439 $498 reversed $327 $-1 #
edge $-1 $499 -61.393475142674035 $447 61.393475142674035 $497 $525 forward 7 unknown #
vertex $-1 $503 $526 #
straight-curve $-1 61.393475142674035 -46.305333381521351 -10.159032577032953 0 -1 0 I I #
coedge $-1 $441 $497 $443 $503 reversed $327 $-1 #
straight-curve $-1 0 -54.682251100694032 -6.7905068826727373 1 0 0 I I #
edge $-1 $444 -1.6842628471801078 $499 1.6842628471801078 $443 $527 forward 7 unknown #
point $-1 61.393475142674035 -54.682251100694032 -6.7905068826727373 #
straight-curve $-1 -61.393475142674035 -54.682251100694032 -8.474769729852845 0 0 -1 I I #
point $-1 -61.393475142674035 -54.682251100694032 -10.159032577032953 #
point $-1 -61.393475142674035 -54.682251100694032 -6.7905068826727373 #
straight-curve $-1 -61.393475142674035 -11.360431847852183 44.38928788658356 0 0 -1 I I #
point $-1 -61.393475142674035 -11.360431847852183 13.799475086527787 #
straight-curve $-1 -61.393475142674035 -7.3702361850223674 1.9550915925560164 0 -1 0 I I #
point $-1 -61.393475142674035 -11.360431847852183 1.9550915925560162 #
point $-1 -53.922174341657858 -16.189061165270115 6.3281741840337711 #
point $-1 -53.922174341657858 -13.291883574819355 6.3281741840337711 #
straight-curve $-1 -61.393475142674035 18.191066095323819 44.38928788658356 0 0 -1 I I #
point $-1 -61.393475142674035 18.191066095323819 13.799475086527787 #
straight-curve $-1 -61.393475142674035 7.4055127865656338 1.9550915925560164 0 -1 0 I I #
point $-1 -61.393475142674035 18.191066095323819 1.9550915925560162 #
point $-1 -53.922174341657858 13.362436777905884 6.3281741840337711 #
point $-1 -53.922174341657858 16.259614368356644 6.3281741840337711 #
straight-curve $-1 61.393475142674035 2.6689878465474592 85.660826352248549 0 0 -1 I I #
point $-1 61.393475142674035 2.6689878465474592 13.799475086527787 #
straight-curve $-1 61.393475142674035 3.6148652293128158 1.4692849493618638 0 1 0 I I #
point $-1 61.393475142674035 2.6689878465474592 1.4692849493618638 #
point $-1 50.602648018824041 7.2297304586256317 5.6365386076896975 #
straight-curve $-1 0 -54.682251100694032 -10.159032577032953 -1 0 0 I I #
point $-1 61.393475142674035 -54.682251100694032 -10.159032577032953 #
straight-curve $-1 61.393475142674035 -54.682251100694032 -8.474769729852845 0 0 -1 I I #
End-of-ACIS-data 