500 0 10 0           
7 Unknown 11 ACIS 5.0 NT 24 Fri Mar 26 17:53:53 1999 
-1 9.9999999999999995e-007 1e-010 
body $-1 $10 $-1 $11 #
body $-1 $12 $-1 $13 #
body $-1 $14 $-1 $15 #
body $-1 $16 $-1 $17 #
body $-1 $18 $-1 $19 #
body $-1 $20 $-1 $21 #
body $-1 $22 $-1 $23 #
body $-1 $24 $-1 $25 #
body $-1 $26 $-1 $27 #
body $-1 $28 $-1 $29 #
lump $-1 $-1 $30 $0 #
transform $-1 1 0 0 0 1 0 0 0 1 62.475051118503373 41.083633273752959 9.4320459007068518 1 rotate no_reflect no_shear #
lump $-1 $-1 $31 $1 #
transform $-1 1 0 0 0 1 0 0 0 1 62.475051118503373 41.083633273752959 9.4320459007068518 1 rotate no_reflect no_shear #
lump $-1 $-1 $32 $2 #
transform $-1 1 0 0 0 1 0 0 0 1 62.475051118503373 41.083633273752959 9.4320459007068518 1 rotate no_reflect no_shear #
lump $-1 $-1 $33 $3 #
transform $-1 1 0 0 0 1 0 0 0 1 62.475051118503373 41.083633273752959 9.4320459007068518 1 rotate no_reflect no_shear #
lump $-1 $-1 $34 $4 #
transform $-1 1 0 0 0 1 0 0 0 1 62.475051118503373 41.083633273752959 9.4320459007068518 1 rotate no_reflect no_shear #
lump $-1 $-1 $35 $5 #
transform $-1 1 0 0 0 1 0 0 0 1 62.475051118503373 41.083633273752959 9.4320459007068518 1 rotate no_reflect no_shear #
lump $-1 $-1 $36 $6 #
transform $-1 1 0 0 0 1 0 0 0 1 62.475051118503373 41.083633273752959 9.4320459007068518 1 rotate no_reflect no_shear #
lump $-1 $-1 $37 $7 #
transform $-1 1 0 0 0 1 0 0 0 1 62.475051118503373 41.083633273752959 9.4320459007068518 1 rotate no_reflect no_shear #
lump $-1 $-1 $38 $8 #
transform $-1 1 0 0 0 1 0 0 0 1 62.475051118503373 41.083633273752959 9.4320459007068518 1 rotate no_reflect no_shear #
lump $-1 $-1 $39 $9 #
transform $-1 1 0 0 0 1 0 0 0 1 62.475051118503373 41.083633273752959 9.4320459007068518 1 rotate no_reflect no_shear #
shell $-1 $-1 $-1 $40 $-1 $10 #
shell $-1 $-1 $-1 $41 $-1 $12 #
shell $-1 $-1 $-1 $42 $-1 $14 #
shell $-1 $-1 $-1 $43 $-1 $16 #
shell $-1 $-1 $-1 $44 $-1 $18 #
shell $-1 $-1 $-1 $45 $-1 $20 #
shell $-1 $-1 $-1 $46 $-1 $22 #
shell $-1 $-1 $-1 $47 $-1 $24 #
shell $-1 $-1 $-1 $48 $-1 $26 #
shell $-1 $-1 $-1 $49 $-1 $28 #
face $-1 $50 $51 $30 $-1 $52 forward single #
face $-1 $53 $54 $31 $-1 $55 forward single #
face $-1 $56 $57 $32 $-1 $58 reversed single #
face $-1 $59 $60 $33 $-1 $61 forward single #
face $-1 $62 $63 $34 $-1 $64 forward single #
face $-1 $65 $66 $35 $-1 $67 forward single #
face $-1 $68 $69 $36 $-1 $70 reversed single #
face $-1 $71 $72 $37 $-1 $73 forward single #
face $-1 $74 $75 $38 $-1 $76 forward single #
face $-1 $77 $78 $39 $-1 $79 forward single #
face $-1 $80 $81 $30 $-1 $82 reversed single #
loop $-1 $-1 $83 $40 #
plane-surface $-1 0 0 9.4320459007068518 0 0 1 1 0 0 forward_v I I I I #
face $-1 $84 $85 $31 $-1 $86 forward single #
loop $-1 $-1 $87 $41 #
plane-surface $-1 0 -41.083633273752959 0 0 1 0 0 0 1 forward_v I I I I #
face $-1 $88 $89 $32 $-1 $90 reversed single #
loop $-1 $-1 $91 $42 #
plane-surface $-1 -30.781570964485706 105.8675063978356 135.56209456707629 1 0 0 0 -0.85716730853699208 -0.51503806187062418 forward_v I I I I #
face $-1 $92 $93 $33 $-1 $94 forward single #
loop $-1 $95 $96 $43 #
cone-surface $-1 -26.586493402518606 37.201184353450557 4.3340742139399895 0 -0.85716730853699208 -0.51503806187062418 1 0 0 1 I I 0 1 1 forward I I I I #
face $-1 $97 $98 $34 $-1 $99 forward single #
loop $-1 $100 $101 $44 #
cone-surface $-1 -20.293877059567961 37.201184353450557 4.3340742139399895 0 -0.85716730853699208 -0.51503806187062418 1 0 0 1 I I 0 1 1 forward I I I I #
face $-1 $102 $103 $35 $-1 $104 forward single #
loop $-1 $105 $106 $45 #
cone-surface $-1 -14.001260716617317 37.201184353450557 4.3340742139399895 0 -0.85716730853699208 -0.51503806187062418 1 0 0 1 I I 0 1 1 forward I I I I #
face $-1 $107 $108 $36 $-1 $109 reversed single #
loop $-1 $-1 $110 $46 #
plane-surface $-1 31.693480154017667 105.8675063978356 135.56209456707629 1 0 0 0 -0.85716730853699208 -0.51503806187062418 forward_v I I I I #
face $-1 $111 $112 $37 $-1 $113 forward single #
loop $-1 $114 $115 $47 #
cone-surface $-1 35.88855771598476 37.201184353450557 4.3340742139399895 0 -0.85716730853699208 -0.51503806187062418 1 0 0 1 I I 0 1 1 forward I I I I #
face $-1 $116 $117 $38 $-1 $118 forward single #
loop $-1 $119 $120 $48 #
cone-surface $-1 42.181174058935412 37.201184353450557 4.3340742139399895 0 -0.85716730853699208 -0.51503806187062418 1 0 0 1 I I 0 1 1 forward I I I I #
face $-1 $121 $122 $39 $-1 $123 forward single #
loop $-1 $124 $125 $49 #
cone-surface $-1 48.473790401886063 37.201184353450557 4.3340742139399895 0 -0.85716730853699208 -0.51503806187062418 1 0 0 1 I I 0 1 1 forward I I I I #
face $-1 $126 $127 $30 $-1 $128 reversed single #
loop $-1 $-1 $129 $50 #
plane-surface $-1 0 0 -9.4320459007068518 0 0 1 1 0 0 forward_v I I I I #
coedge $-1 $130 $131 $132 $133 forward $51 $-1 #
face $-1 $134 $135 $31 $-1 $136 reversed single #
loop $-1 $-1 $137 $53 #
plane-surface $-1 0 0 9.4320459007068518 0 0 1 1 0 0 forward_v I I I I #
coedge $-1 $138 $139 $140 $141 forward $54 $-1 #
face $-1 $142 $143 $32 $-1 $144 reversed single #
loop $-1 $-1 $145 $56 #
plane-surface $-1 -20.293877059567961 -1.2356364380814568 71.208036080391992 0 0.85716730853699208 0.51503806187062418 1 0 0 forward_v I I I I #
coedge $-1 $146 $147 $148 $149 reversed $57 $-1 #
face $-1 $-1 $150 $33 $-1 $151 forward single #
loop $-1 $152 $153 $59 #
cone-surface $-1 -26.586493402518606 35.490407424109996 3.306135764578892 0 -0.85716730853699208 -0.51503806187062418 0.5 0 0 1 I I -0.70710678118654746 0.70710678118654746 0.5 forward I I I I #
loop $-1 $-1 $154 $43 #
coedge $-1 $96 $96 $155 $156 reversed $60 $-1 #
face $-1 $-1 $157 $34 $-1 $158 forward single #
loop $-1 $159 $160 $62 #
cone-surface $-1 -20.293877059567961 35.490407424109996 3.306135764578892 0 -0.85716730853699208 -0.51503806187062418 0.5 0 0 1 I I -0.70710678118654746 0.70710678118654746 0.5 forward I I I I #
loop $-1 $-1 $161 $44 #
coedge $-1 $101 $101 $162 $163 reversed $63 $-1 #
face $-1 $-1 $164 $35 $-1 $165 forward single #
loop $-1 $166 $167 $65 #
cone-surface $-1 -14.001260716617317 35.490407424109996 3.306135764578892 0 -0.85716730853699208 -0.51503806187062418 0.5 0 0 1 I I -0.70710678118654746 0.70710678118654746 0.5 forward I I I I #
loop $-1 $-1 $168 $45 #
coedge $-1 $106 $106 $169 $170 reversed $66 $-1 #
face $-1 $171 $172 $36 $-1 $173 reversed single #
loop $-1 $-1 $174 $68 #
plane-surface $-1 42.181174058935412 -1.2356364380814568 71.208036080391992 0 0.85716730853699208 0.51503806187062418 1 0 0 forward_v I I I I #
coedge $-1 $175 $176 $177 $178 reversed $69 $-1 #
face $-1 $-1 $179 $37 $-1 $180 forward single #
loop $-1 $181 $182 $71 #
cone-surface $-1 35.88855771598476 35.490407424109996 3.306135764578892 0 -0.85716730853699208 -0.51503806187062418 0.5 0 0 1 I I -0.70710678118654746 0.70710678118654746 0.5 forward I I I I #
loop $-1 $-1 $183 $47 #
coedge $-1 $115 $115 $184 $185 reversed $72 $-1 #
face $-1 $-1 $186 $38 $-1 $187 forward single #
loop $-1 $188 $189 $74 #
cone-surface $-1 42.181174058935412 35.490407424109996 3.306135764578892 0 -0.85716730853699208 -0.51503806187062418 0.5 0 0 1 I I -0.70710678118654746 0.70710678118654746 0.5 forward I I I I #
loop $-1 $-1 $190 $48 #
coedge $-1 $120 $120 $191 $192 reversed $75 $-1 #
face $-1 $-1 $193 $39 $-1 $194 forward single #
loop $-1 $195 $196 $77 #
cone-surface $-1 48.473790401886063 35.490407424109996 3.306135764578892 0 -0.85716730853699208 -0.51503806187062418 0.5 0 0 1 I I -0.70710678118654746 0.70710678118654746 0.5 forward I I I I #
loop $-1 $-1 $197 $49 #
coedge $-1 $125 $125 $198 $199 reversed $78 $-1 #
face $-1 $200 $201 $30 $-1 $202 reversed single #
loop $-1 $-1 $203 $80 #
plane-surface $-1 0 -41.083633273752959 0 0 1 0 0 0 1 forward_v I I I I #
coedge $-1 $204 $205 $206 $207 forward $81 $-1 #
coedge $-1 $208 $83 $209 $210 forward $51 $-1 #
coedge $-1 $83 $208 $211 $212 forward $51 $-1 #
coedge $-1 $213 $214 $83 $133 reversed $215 $-1 #
edge $-1 $216 -41.083633273752959 $217 41.083633273752959 $132 $218 forward 7 unknown #
face $-1 $219 $220 $31 $-1 $221 reversed single #
loop $-1 $-1 $222 $84 #
plane-surface $-1 -62.475051118503373 0 0 1 0 0 0 0 -1 forward_v I I I I #
coedge $-1 $223 $224 $139 $225 forward $85 $-1 #
coedge $-1 $226 $87 $227 $228 reversed $54 $-1 #
coedge $-1 $87 $226 $137 $225 reversed $54 $-1 #
coedge $-1 $229 $230 $87 $141 reversed $231 $-1 #
edge $-1 $232 -9.4320459007068518 $233 9.4320459007068518 $140 $234 forward 7 unknown #
face $-1 $235 $236 $32 $-1 $237 reversed single #
loop $-1 $-1 $238 $88 #
plane-surface $-1 -9.8061831546502169 105.8675063978356 135.56209456707629 -1 0 0 0 0.85716730853699208 0.51503806187062418 forward_v I I I I #
coedge $-1 $239 $240 $241 $242 reversed $89 $-1 #
coedge $-1 $147 $91 $243 $244 reversed $57 $-1 #
coedge $-1 $91 $146 $239 $245 reversed $57 $-1 #
coedge $-1 $241 $246 $91 $149 forward $247 $-1 #
edge $-1 $248 11.85011992516484 $249 17.050631215625501 $148 $250 forward 7 unknown #
loop $-1 $-1 $155 $92 #
plane-surface $-1 -20.293877059567961 -1.2356364380814568 71.208036080391992 0 0.85716730853699208 0.51503806187062418 1 0 0 forward_v I I I I #
loop $-1 $-1 $251 $59 #
coedge $-1 $153 $153 $154 $252 reversed $93 $-1 #
coedge $-1 $154 $154 $153 $252 forward $95 $-1 #
coedge $-1 $155 $155 $96 $156 forward $150 $-1 #
edge $-1 $253 -6.1429551296134909e-016 $253 6.2831853071795996 $155 $254 forward 7 unknown #
loop $-1 $-1 $162 $97 #
plane-surface $-1 -20.293877059567961 -1.2356364380814568 71.208036080391992 0 0.85716730853699208 0.51503806187062418 1 0 0 forward_v I I I I #
loop $-1 $-1 $255 $62 #
coedge $-1 $160 $160 $161 $256 reversed $98 $-1 #
coedge $-1 $161 $161 $160 $256 forward $100 $-1 #
coedge $-1 $162 $162 $101 $163 forward $157 $-1 #
edge $-1 $257 -6.1429551296134909e-016 $257 6.2831853071795996 $162 $258 forward 7 unknown #
loop $-1 $-1 $169 $102 #
plane-surface $-1 -20.293877059567961 -1.2356364380814568 71.208036080391992 0 0.85716730853699208 0.51503806187062418 1 0 0 forward_v I I I I #
loop $-1 $-1 $259 $65 #
coedge $-1 $167 $167 $168 $260 reversed $103 $-1 #
coedge $-1 $168 $168 $167 $260 forward $105 $-1 #
coedge $-1 $169 $169 $106 $170 forward $164 $-1 #
edge $-1 $261 -6.1429551296134909e-016 $261 6.2831853071795996 $169 $262 forward 7 unknown #
face $-1 $263 $264 $36 $-1 $265 forward single #
loop $-1 $-1 $266 $107 #
plane-surface $-1 52.66886796385316 105.8675063978356 135.56209456707629 -1 0 0 0 0.85716730853699208 0.51503806187062418 forward_v I I I I #
coedge $-1 $267 $268 $269 $270 reversed $108 $-1 #
coedge $-1 $176 $110 $271 $272 reversed $69 $-1 #
coedge $-1 $110 $175 $267 $273 reversed $69 $-1 #
coedge $-1 $269 $274 $110 $178 forward $264 $-1 #
edge $-1 $275 11.85011992516484 $276 17.050631215625501 $177 $277 forward 7 unknown #
loop $-1 $-1 $184 $111 #
plane-surface $-1 42.181174058935412 -1.2356364380814568 71.208036080391992 0 0.85716730853699208 0.51503806187062418 1 0 0 forward_v I I I I #
loop $-1 $-1 $278 $71 #
coedge $-1 $182 $182 $183 $279 reversed $112 $-1 #
coedge $-1 $183 $183 $182 $279 forward $114 $-1 #
coedge $-1 $184 $184 $115 $185 forward $179 $-1 #
edge $-1 $280 -6.1429551296134909e-016 $280 6.2831853071795996 $184 $281 forward 7 unknown #
loop $-1 $-1 $191 $116 #
plane-surface $-1 42.181174058935412 -1.2356364380814568 71.208036080391992 0 0.85716730853699208 0.51503806187062418 1 0 0 forward_v I I I I #
loop $-1 $-1 $282 $74 #
coedge $-1 $189 $189 $190 $283 reversed $117 $-1 #
coedge $-1 $190 $190 $189 $283 forward $119 $-1 #
coedge $-1 $191 $191 $120 $192 forward $186 $-1 #
edge $-1 $284 -6.1429551296134909e-016 $284 6.2831853071795996 $191 $285 forward 7 unknown #
loop $-1 $-1 $198 $121 #
plane-surface $-1 42.181174058935412 -1.2356364380814568 71.208036080391992 0 0.85716730853699208 0.51503806187062418 1 0 0 forward_v I I I I #
loop $-1 $-1 $286 $77 #
coedge $-1 $196 $196 $197 $287 reversed $122 $-1 #
coedge $-1 $197 $197 $196 $287 forward $124 $-1 #
coedge $-1 $198 $198 $125 $199 forward $193 $-1 #
edge $-1 $288 -6.1429551296134909e-016 $288 6.2831853071795996 $198 $289 forward 7 unknown #
face $-1 $290 $291 $30 $-1 $292 reversed single #
loop $-1 $-1 $293 $126 #
plane-surface $-1 -62.475051118503373 0 0 1 0 0 0 0 -1 forward_v I I I I #
coedge $-1 $294 $211 $295 $296 forward $127 $-1 #
coedge $-1 $297 $129 $294 $298 forward $81 $-1 #
coedge $-1 $129 $297 $299 $300 forward $81 $-1 #
coedge $-1 $214 $213 $129 $207 reversed $215 $-1 #
edge $-1 $301 -41.083633273752959 $302 41.083633273752959 $206 $303 forward 7 unknown #
coedge $-1 $131 $130 $304 $305 forward $51 $-1 #
coedge $-1 $306 $307 $130 $210 reversed $291 $-1 #
edge $-1 $217 -62.475051118503373 $308 62.475051118503373 $209 $309 forward 7 unknown #
coedge $-1 $203 $310 $131 $212 reversed $127 $-1 #
edge $-1 $311 -62.475051118503373 $216 62.475051118503373 $211 $312 forward 7 unknown #
coedge $-1 $206 $132 $310 $313 forward $215 $-1 #
coedge $-1 $132 $206 $306 $314 reversed $215 $-1 #
loop $-1 $-1 $213 $290 #
vertex $-1 $133 $315 #
vertex $-1 $133 $316 #
straight-curve $-1 62.475051118503373 0 9.4320459007068518 0 1 0 I I #
face $-1 $317 $231 $31 $-1 $318 reversed single #
loop $-1 $-1 $319 $134 #
plane-surface $-1 -60.975051118503373 -48.505862092510192 0 0 1 0 0 0 1 forward_v I I I I #
coedge $-1 $320 $321 $226 $322 forward $135 $-1 #
coedge $-1 $323 $137 $321 $324 forward $85 $-1 #
coedge $-1 $137 $323 $229 $325 forward $85 $-1 #
edge $-1 $232 59.475051118503373 $326 62.475051118503373 $137 $327 forward 7 unknown #
coedge $-1 $139 $138 $222 $322 reversed $54 $-1 #
coedge $-1 $328 $329 $138 $228 forward $330 $-1 #
edge $-1 $331 -62.475051118503373 $233 -59.475051118503373 $227 $332 forward 7 unknown #
coedge $-1 $333 $140 $224 $325 reversed $231 $-1 #
coedge $-1 $140 $333 $328 $334 reversed $231 $-1 #
loop $-1 $-1 $333 $219 #
vertex $-1 $225 $335 #
vertex $-1 $334 $336 #
straight-curve $-1 -59.475051118503373 -41.083633273752959 0 0 0 -1 I I #
face $-1 $-1 $247 $32 $-1 $337 forward single #
loop $-1 $-1 $338 $142 #
plane-surface $-1 0 41.083633273752959 0 0 -1 0 0 0 -1 forward_v I I I I #
coedge $-1 $339 $340 $341 $342 reversed $143 $-1 #
coedge $-1 $343 $145 $147 $245 forward $89 $-1 #
coedge $-1 $145 $343 $339 $344 forward $89 $-1 #
coedge $-1 $341 $148 $145 $242 forward $247 $-1 #
edge $-1 $249 -20.634632434701725 $345 0.34075537513376375 $241 $346 forward 7 unknown #
coedge $-1 $347 $348 $146 $244 forward $236 $-1 #
edge $-1 $349 -67.004105919513407 $248 -58.34900138283129 $243 $350 forward 7 unknown #
edge $-1 $249 72.069932630916639 $349 82.167266547505918 $147 $351 forward 7 unknown #
coedge $-1 $148 $341 $347 $352 forward $247 $-1 #
loop $-1 $-1 $341 $235 #
vertex $-1 $244 $353 #
vertex $-1 $149 $354 #
straight-curve $-1 -30.781570964485706 52.933753198917799 9.4320459007068536 0 -1 0 I I #
coedge $-1 $251 $251 $-1 $355 reversed $152 $-1 #
edge $-1 $356 0 $356 6.2831853071796004 $153 $357 forward 7 unknown #
vertex $-1 $156 $358 #
ellipse-curve $-1 -26.586493402518606 38.483377628522632 5.104493632365779 0 0.85716730853699208 0.51503806187062418 1 0 0 1 I I #
coedge $-1 $255 $255 $-1 $359 reversed $159 $-1 #
edge $-1 $360 0 $360 6.2831853071796004 $160 $361 forward 7 unknown #
vertex $-1 $163 $362 #
ellipse-curve $-1 -20.293877059567961 38.483377628522632 5.104493632365779 0 0.85716730853699208 0.51503806187062418 1 0 0 1 I I #
coedge $-1 $259 $259 $-1 $363 reversed $166 $-1 #
edge $-1 $364 0 $364 6.2831853071796004 $167 $365 forward 7 unknown #
vertex $-1 $170 $366 #
ellipse-curve $-1 -14.001260716617317 38.483377628522632 5.104493632365779 0 0.85716730853699208 0.51503806187062418 1 0 0 1 I I #
face $-1 $-1 $367 $36 $-1 $368 reversed single #
loop $-1 $-1 $177 $171 #
plane-surface $-1 0 0 9.4320459007068518 0 0 1 1 0 0 forward_v I I I I #
coedge $-1 $369 $370 $371 $372 reversed $172 $-1 #
coedge $-1 $373 $174 $176 $273 forward $108 $-1 #
coedge $-1 $174 $373 $369 $374 forward $108 $-1 #
coedge $-1 $371 $177 $174 $270 forward $264 $-1 #
edge $-1 $276 10.602893124549961 $375 31.578280934385454 $269 $376 forward 7 unknown #
coedge $-1 $377 $378 $175 $272 forward $367 $-1 #
edge $-1 $379 -67.004105919513407 $275 -58.34900138283129 $271 $380 forward 7 unknown #
edge $-1 $276 72.069932630916639 $379 82.167266547505918 $176 $381 forward 7 unknown #
coedge $-1 $177 $371 $377 $382 forward $264 $-1 #
vertex $-1 $178 $383 #
vertex $-1 $178 $384 #
straight-curve $-1 31.693480154017667 52.933753198917799 9.4320459007068536 0 -1 0 I I #
coedge $-1 $278 $278 $-1 $385 reversed $181 $-1 #
edge $-1 $386 0 $386 6.2831853071796004 $182 $387 forward 7 unknown #
vertex $-1 $185 $388 #
ellipse-curve $-1 35.88855771598476 38.483377628522632 5.104493632365779 0 0.85716730853699208 0.51503806187062418 1 0 0 1 I I #
coedge $-1 $282 $282 $-1 $389 reversed $188 $-1 #
edge $-1 $390 0 $390 6.2831853071796004 $189 $391 forward 7 unknown #
vertex $-1 $192 $392 #
ellipse-curve $-1 42.181174058935412 38.483377628522632 5.104493632365779 0 0.85716730853699208 0.51503806187062418 1 0 0 1 I I #
coedge $-1 $286 $286 $-1 $393 reversed $195 $-1 #
edge $-1 $394 0 $394 6.2831853071796004 $196 $395 forward 7 unknown #
vertex $-1 $199 $396 #
ellipse-curve $-1 48.473790401886063 38.483377628522632 5.104493632365779 0 0.85716730853699208 0.51503806187062418 1 0 0 1 I I #
face $-1 $-1 $215 $30 $-1 $397 reversed single #
loop $-1 $-1 $306 $200 #
plane-surface $-1 0 41.083633273752959 0 0 -1 0 0 0 -1 forward_v I I I I #
coedge $-1 $398 $304 $307 $399 forward $201 $-1 #
coedge $-1 $310 $203 $204 $298 reversed $127 $-1 #
coedge $-1 $304 $398 $203 $296 reversed $201 $-1 #
edge $-1 $311 -9.4320459007068518 $400 9.4320459007068518 $295 $401 forward 7 unknown #
coedge $-1 $205 $204 $398 $402 forward $81 $-1 #
edge $-1 $302 -62.475051118503373 $400 62.475051118503373 $294 $403 forward 7 unknown #
coedge $-1 $307 $306 $205 $300 reversed $291 $-1 #
edge $-1 $404 -62.475051118503373 $301 62.475051118503373 $299 $405 forward 7 unknown #
vertex $-1 $207 $406 #
vertex $-1 $313 $407 #
straight-curve $-1 62.475051118503373 0 -9.4320459007068518 0 -1 0 I I #
coedge $-1 $293 $295 $208 $305 reversed $201 $-1 #
edge $-1 $308 -41.083633273752959 $311 41.083633273752959 $304 $408 forward 7 unknown #
coedge $-1 $299 $209 $214 $314 forward $291 $-1 #
coedge $-1 $209 $299 $293 $399 reversed $291 $-1 #
vertex $-1 $210 $409 #
straight-curve $-1 0 41.083633273752959 9.4320459007068518 -1 0 0 I I #
coedge $-1 $211 $294 $213 $313 reversed $127 $-1 #
vertex $-1 $305 $410 #
straight-curve $-1 0 -41.083633273752959 9.4320459007068518 1 0 0 I I #
edge $-1 $216 -9.4320459007068518 $302 9.4320459007068518 $213 $411 forward 7 unknown #
edge $-1 $217 -9.4320459007068518 $301 9.4320459007068518 $214 $412 forward 7 unknown #
point $-1 62.475051118503373 -41.083633273752959 9.4320459007068518 #
point $-1 62.475051118503373 41.083633273752959 9.4320459007068518 #
face $-1 $-1 $330 $31 $-1 $413 reversed single #
plane-surface $-1 -59.475051118503373 -44.794747683131575 0 -1 0 0 0 0 1 forward_v I I I I #
coedge $-1 $414 $415 $416 $417 forward $220 $-1 #
coedge $-1 $416 $222 $329 $418 reversed $135 $-1 #
coedge $-1 $222 $416 $223 $324 reversed $135 $-1 #
edge $-1 $326 -9.4320459007068518 $331 9.4320459007068518 $222 $419 forward 7 unknown #
coedge $-1 $224 $223 $415 $420 forward $85 $-1 #
edge $-1 $326 41.083633273752959 $421 48.505862092510192 $321 $422 forward 7 unknown #
edge $-1 $423 -3.7111144093786166 $232 3.7111144093786166 $229 $424 forward 7 unknown #
vertex $-1 $324 $425 #
straight-curve $-1 0 -41.083633273752959 9.4320459007068518 -1 0 0 I I #
coedge $-1 $426 $227 $230 $334 forward $330 $-1 #
coedge $-1 $227 $426 $320 $418 forward $330 $-1 #
loop $-1 $-1 $227 $317 #
vertex $-1 $322 $427 #
straight-curve $-1 0 -41.083633273752959 -9.4320459007068518 1 0 0 I I #
coedge $-1 $230 $229 $428 $429 forward $231 $-1 #
edge $-1 $233 -3.7111144093786166 $430 3.7111144093786166 $230 $431 forward 7 unknown #
point $-1 -59.475051118503373 -41.083633273752959 9.4320459007068518 #
point $-1 -59.475051118503373 -41.083633273752959 -9.4320459007068518 #
plane-surface $-1 0 0 9.4320459007068518 0 0 1 1 0 0 forward_v I I I I #
coedge $-1 $348 $347 $340 $432 forward $236 $-1 #
coedge $-1 $340 $238 $240 $344 reversed $143 $-1 #
coedge $-1 $238 $339 $338 $432 reversed $143 $-1 #
coedge $-1 $246 $241 $238 $342 forward $247 $-1 #
edge $-1 $345 -17.050631215625501 $433 -11.85011992516484 $341 $434 forward 7 unknown #
coedge $-1 $240 $239 $348 $435 reversed $89 $-1 #
edge $-1 $436 -82.167266547505918 $345 -72.069932630916639 $339 $437 forward 7 unknown #
vertex $-1 $242 $438 #
straight-curve $-1 -10.146938529783981 35.883121983292291 9.4320459007068465 1 0 0 I I #
coedge $-1 $338 $243 $246 $352 reversed $236 $-1 #
coedge $-1 $243 $338 $343 $435 forward $236 $-1 #
vertex $-1 $244 $439 #
straight-curve $-1 -30.781570964485706 41.083633273752959 67.781047283538143 0 0 1 I I #
straight-curve $-1 -30.781570964485706 -1.2356364380814568 71.208036080391992 0 0.51503806187062418 -0.85716730853699208 I I #
edge $-1 $433 9.8061831546502169 $248 30.781570964485706 $347 $440 forward 7 unknown #
point $-1 -30.781570964485706 41.083633273752959 9.4320459007068518 #
point $-1 -30.781570964485706 35.883121983292298 9.4320459007068536 #
edge $-1 $441 1 $441 0 $251 $-1 forward 7 unknown #
vertex $-1 $252 $442 #
ellipse-curve $-1 -26.586493402518606 35.91899107837849 3.5636547955142039 0 0.85716730853699208 0.51503806187062418 1 0 0 1 I I #
point $-1 -25.586493402518606 38.483377628522625 5.1044936323657755 #
edge $-1 $443 1 $443 0 $255 $-1 forward 7 unknown #
vertex $-1 $256 $444 #
ellipse-curve $-1 -20.293877059567961 35.91899107837849 3.5636547955142039 0 0.85716730853699208 0.51503806187062418 1 0 0 1 I I #
point $-1 -19.293877059567961 38.483377628522625 5.1044936323657755 #
edge $-1 $445 1 $445 0 $259 $-1 forward 7 unknown #
vertex $-1 $260 $446 #
ellipse-curve $-1 -14.001260716617317 35.91899107837849 3.5636547955142039 0 0.85716730853699208 0.51503806187062418 1 0 0 1 I I #
point $-1 -13.001260716617317 38.483377628522625 5.1044936323657755 #
loop $-1 $-1 $271 $263 #
plane-surface $-1 0 41.083633273752959 0 0 -1 0 0 0 -1 forward_v I I I I #
coedge $-1 $370 $266 $268 $374 reversed $172 $-1 #
coedge $-1 $266 $369 $447 $448 reversed $172 $-1 #
coedge $-1 $274 $269 $266 $372 forward $264 $-1 #
edge $-1 $375 -17.050631215625501 $449 -11.85011992516484 $371 $450 forward 7 unknown #
coedge $-1 $268 $267 $378 $451 reversed $108 $-1 #
edge $-1 $452 -82.167266547505918 $375 -72.069932630916639 $369 $453 forward 7 unknown #
vertex $-1 $270 $454 #
straight-curve $-1 21.090587029467706 35.883121983292291 9.4320459007068465 1 0 0 I I #
coedge $-1 $447 $271 $274 $382 reversed $367 $-1 #
coedge $-1 $271 $447 $373 $451 forward $367 $-1 #
vertex $-1 $272 $455 #
straight-curve $-1 31.693480154017667 41.083633273752959 67.781047283538143 0 0 1 I I #
straight-curve $-1 31.693480154017667 -1.2356364380814568 71.208036080391992 0 0.51503806187062418 -0.85716730853699208 I I #
edge $-1 $449 -52.66886796385316 $275 -31.693480154017667 $377 $456 forward 7 unknown #
point $-1 31.693480154017667 41.083633273752959 9.4320459007068518 #
point $-1 31.693480154017667 35.883121983292298 9.4320459007068536 #
edge $-1 $457 1 $457 0 $278 $-1 forward 7 unknown #
vertex $-1 $279 $458 #
ellipse-curve $-1 35.88855771598476 35.91899107837849 3.5636547955142039 0 0.85716730853699208 0.51503806187062418 1 0 0 1 I I #
point $-1 36.88855771598476 38.483377628522625 5.1044936323657755 #
edge $-1 $459 1 $459 0 $282 $-1 forward 7 unknown #
vertex $-1 $283 $460 #
ellipse-curve $-1 42.181174058935412 35.91899107837849 3.5636547955142039 0 0.85716730853699208 0.51503806187062418 1 0 0 1 I I #
point $-1 43.181174058935412 38.483377628522625 5.1044936323657755 #
edge $-1 $461 1 $461 0 $286 $-1 forward 7 unknown #
vertex $-1 $287 $462 #
ellipse-curve $-1 48.473790401886063 35.91899107837849 3.5636547955142039 0 0.85716730853699208 0.51503806187062418 1 0 0 1 I I #
point $-1 49.473790401886063 38.483377628522625 5.1044936323657755 #
plane-surface $-1 62.475051118503373 0 0 -1 0 0 0 0 1 forward_v I I I I #
coedge $-1 $295 $293 $297 $402 reversed $201 $-1 #
edge $-1 $308 -9.4320459007068518 $404 9.4320459007068518 $307 $463 forward 7 unknown #
vertex $-1 $402 $464 #
straight-curve $-1 -62.475051118503373 -41.083633273752959 0 0 0 -1 I I #
edge $-1 $400 -41.083633273752959 $404 41.083633273752959 $398 $465 forward 7 unknown #
straight-curve $-1 0 -41.083633273752959 -9.4320459007068518 -1 0 0 I I #
vertex $-1 $300 $466 #
straight-curve $-1 0 41.083633273752959 -9.4320459007068518 1 0 0 I I #
point $-1 62.475051118503373 41.083633273752959 -9.4320459007068518 #
point $-1 62.475051118503373 -41.083633273752959 -9.4320459007068518 #
straight-curve $-1 -62.475051118503373 0 9.4320459007068518 0 -1 0 I I #
point $-1 -62.475051118503373 41.083633273752959 9.4320459007068518 #
point $-1 -62.475051118503373 -41.083633273752959 9.4320459007068518 #
straight-curve $-1 62.475051118503373 -41.083633273752959 0 0 0 -1 I I #
straight-curve $-1 62.475051118503373 41.083633273752959 0 0 0 -1 I I #
plane-surface $-1 0 0 -9.4320459007068518 0 0 1 1 0 0 forward_v I I I I #
coedge $-1 $428 $319 $426 $467 reversed $220 $-1 #
coedge $-1 $319 $428 $323 $420 reversed $220 $-1 #
coedge $-1 $321 $320 $319 $417 reversed $135 $-1 #
edge $-1 $421 -9.4320459007068518 $468 9.4320459007068518 $416 $469 forward 7 unknown #
edge $-1 $468 -48.505862092510192 $331 -41.083633273752959 $320 $470 forward 7 unknown #
straight-curve $-1 -62.475051118503373 -41.083633273752959 0 0 0 -1 I I #
edge $-1 $421 -1.5 $423 1.5 $415 $471 forward 7 unknown #
vertex $-1 $324 $472 #
straight-curve $-1 -62.475051118503373 0 9.4320459007068518 0 -1 0 I I #
vertex $-1 $325 $473 #
straight-curve $-1 -59.475051118503373 -44.794747683131575 9.4320459007068518 0 1 0 I I #
point $-1 -62.475051118503373 -41.083633273752959 9.4320459007068518 #
coedge $-1 $329 $328 $414 $467 forward $330 $-1 #
point $-1 -62.475051118503373 -41.083633273752959 -9.4320459007068518 #
coedge $-1 $415 $414 $333 $429 reversed $220 $-1 #
edge $-1 $423 -9.4320459007068518 $430 9.4320459007068518 $333 $474 forward 7 unknown #
vertex $-1 $429 $475 #
straight-curve $-1 -59.475051118503373 -44.794747683131575 -9.4320459007068518 0 -1 0 I I #
edge $-1 $433 58.34900138283129 $436 67.004105919513407 $338 $476 forward 7 unknown #
vertex $-1 $352 $477 #
straight-curve $-1 -9.8061831546502169 52.933753198917799 9.4320459007068536 0 1 0 I I #
edge $-1 $436 -0.34075537513376375 $349 20.634632434701725 $348 $478 forward 7 unknown #
vertex $-1 $435 $479 #
straight-curve $-1 -9.8061831546502169 -1.2356364380814568 71.208036080391992 0 -0.51503806187062418 0.85716730853699208 I I #
point $-1 -9.8061831546502169 35.883121983292298 9.4320459007068536 #
point $-1 -30.781570964485706 41.083633273752959 0.77694136402473646 #
straight-curve $-1 0 41.083633273752959 9.4320459007068518 -1 0 0 I I #
vertex $-1 $355 $480 #
point $-1 -25.586493402518606 35.91899107837849 3.5636547955142039 #
vertex $-1 $359 $481 #
point $-1 -19.293877059567961 35.91899107837849 3.5636547955142039 #
vertex $-1 $363 $482 #
point $-1 -13.001260716617317 35.91899107837849 3.5636547955142039 #
coedge $-1 $378 $377 $370 $448 forward $367 $-1 #
edge $-1 $449 58.34900138283129 $452 67.004105919513407 $447 $483 forward 7 unknown #
vertex $-1 $382 $484 #
straight-curve $-1 52.66886796385316 52.933753198917799 9.4320459007068536 0 1 0 I I #
edge $-1 $452 -31.578280934385454 $379 -10.602893124549961 $378 $485 forward 7 unknown #
vertex $-1 $451 $486 #
straight-curve $-1 52.66886796385316 -1.2356364380814568 71.208036080391992 0 -0.51503806187062418 0.85716730853699208 I I #
point $-1 52.66886796385316 35.883121983292298 9.4320459007068536 #
point $-1 31.693480154017667 41.083633273752959 0.77694136402473646 #
straight-curve $-1 0 41.083633273752959 9.4320459007068518 -1 0 0 I I #
vertex $-1 $385 $487 #
point $-1 36.88855771598476 35.91899107837849 3.5636547955142039 #
vertex $-1 $389 $488 #
point $-1 43.181174058935412 35.91899107837849 3.5636547955142039 #
vertex $-1 $393 $489 #
point $-1 49.473790401886063 35.91899107837849 3.5636547955142039 #
straight-curve $-1 -62.475051118503373 41.083633273752959 0 0 0 -1 I I #
point $-1 -62.475051118503373 -41.083633273752959 -9.4320459007068518 #
straight-curve $-1 -62.475051118503373 0 -9.4320459007068518 0 1 0 I I #
point $-1 -62.475051118503373 41.083633273752959 -9.4320459007068518 #
edge $-1 $430 -1.5 $468 1.5 $414 $490 forward 7 unknown #
vertex $-1 $418 $491 #
straight-curve $-1 -62.475051118503373 -48.505862092510192 0 0 0 -1 I I #
straight-curve $-1 -62.475051118503373 0 -9.4320459007068518 0 1 0 I I #
straight-curve $-1 -60.975051118503373 -48.505862092510192 9.4320459007068518 1 0 0 I I #
point $-1 -62.475051118503373 -48.505862092510192 9.4320459007068518 #
point $-1 -59.475051118503373 -48.505862092510192 9.4320459007068518 #
straight-curve $-1 -59.475051118503373 -48.505862092510192 0 0 0 -1 I I #
point $-1 -59.475051118503373 -48.505862092510192 -9.4320459007068518 #
straight-curve $-1 -9.8061831546502169 41.083633273752959 67.781047283538143 0 0 -1 I I #
point $-1 -9.8061831546502169 41.083633273752959 9.4320459007068518 #
straight-curve $-1 -10.146938529783981 41.083633273752959 0.77694136402473646 -1 0 0 I I #
point $-1 -9.8061831546502169 41.083633273752959 0.77694136402473646 #
point $-1 -26.586493402518606 35.061823769841503 3.0486167336435801 #
point $-1 -20.293877059567961 35.061823769841503 3.0486167336435801 #
point $-1 -14.001260716617317 35.061823769841503 3.0486167336435801 #
straight-curve $-1 52.66886796385316 41.083633273752959 67.781047283538143 0 0 -1 I I #
point $-1 52.66886796385316 41.083633273752959 9.4320459007068518 #
straight-curve $-1 21.090587029467706 41.083633273752959 0.77694136402473646 -1 0 0 I I #
point $-1 52.66886796385316 41.083633273752959 0.77694136402473646 #
point $-1 35.88855771598476 35.061823769841503 3.0486167336435801 #
point $-1 42.181174058935412 35.061823769841503 3.0486167336435801 #
point $-1 48.473790401886063 35.061823769841503 3.0486167336435801 #
straight-curve $-1 -60.975051118503373 -48.505862092510192 -9.4320459007068518 -1 0 0 I I #
point $-1 -62.475051118503373 -48.505862092510192 -9.4320459007068518 #
End-of-ACIS-data 