500 0 3 0           
7 Unknown 11 ACIS 5.0 NT 24 Fri Mar 26 16:36:05 1999 
-1 9.9999999999999995e-007 1e-010 
body $-1 $3 $-1 $4 #
body $-1 $5 $-1 $6 #
body $-1 $7 $-1 $8 #
lump $-1 $-1 $9 $0 #
transform $-1 1 0 0 0 1 0 0 0 1 78.913541062654502 52.843678376136701 23.277054104494432 1 rotate no_reflect no_shear #
lump $-1 $-1 $10 $1 #
transform $-1 1 0 0 0 1 0 0 0 1 78.913541062654502 52.843678376136701 23.277054104494432 1 rotate no_reflect no_shear #
lump $-1 $-1 $11 $2 #
transform $-1 1 0 0 0 1 0 0 0 1 78.913541062654502 52.843678376136701 23.277054104494432 1 rotate no_reflect no_shear #
shell $-1 $-1 $-1 $12 $-1 $3 #
shell $-1 $-1 $-1 $13 $-1 $5 #
shell $-1 $-1 $-1 $14 $-1 $7 #
face $-1 $15 $16 $9 $-1 $17 forward single #
face $-1 $18 $19 $10 $-1 $20 reversed single #
face $-1 $21 $22 $11 $-1 $23 reversed single #
face $-1 $24 $25 $9 $-1 $26 reversed single #
loop $-1 $-1 $27 $12 #
plane-surface $-1 0 0 23.277054104494432 0 0 1 1 0 0 forward_v I I I I #
face $-1 $28 $29 $10 $-1 $30 reversed single #
loop $-1 $-1 $31 $13 #
plane-surface $-1 -70.698560249499394 -37.504945315761134 0 0 1 0 0 0 1 forward_v I I I I #
face $-1 $32 $33 $11 $-1 $34 reversed single #
loop $-1 $-1 $35 $14 #
plane-surface $-1 66.918210947415133 0 12.750486425695051 0 0 1 1 0 0 forward_v I I I I #
face $-1 $36 $37 $9 $-1 $38 reversed single #
loop $-1 $-1 $39 $15 #
plane-surface $-1 0 0 -23.277054104494432 0 0 1 1 0 0 forward_v I I I I #
coedge $-1 $40 $41 $42 $43 forward $16 $-1 #
face $-1 $44 $45 $10 $-1 $46 reversed single #
loop $-1 $-1 $47 $18 #
plane-surface $-1 -70.698560249499394 -25.382861919358845 0 0 -1 0 0 0 -1 forward_v I I I I #
coedge $-1 $48 $49 $50 $51 reversed $19 $-1 #
face $-1 $52 $53 $11 $-1 $54 reversed single #
loop $-1 $-1 $55 $21 #
plane-surface $-1 54.92288083217575 0 18.013770265094742 1 0 0 0 0 -1 forward_v I I I I #
coedge $-1 $56 $57 $58 $59 reversed $22 $-1 #
face $-1 $60 $61 $9 $-1 $62 reversed single #
loop $-1 $-1 $63 $24 #
plane-surface $-1 0 -52.843678376136701 0 0 1 0 0 0 1 forward_v I I I I #
coedge $-1 $64 $65 $66 $67 forward $25 $-1 #
coedge $-1 $68 $27 $69 $70 forward $16 $-1 #
coedge $-1 $27 $68 $71 $72 forward $16 $-1 #
coedge $-1 $73 $74 $27 $43 reversed $75 $-1 #
edge $-1 $76 -52.843678376136701 $77 52.843678376136701 $42 $78 forward 7 unknown #
face $-1 $79 $80 $10 $-1 $81 reversed single #
loop $-1 $-1 $82 $28 #
plane-surface $-1 -62.483579436344286 -31.44390361755999 0 -1 0 0 0 0 1 forward_v I I I I #
coedge $-1 $83 $84 $85 $86 forward $29 $-1 #
coedge $-1 $87 $31 $88 $89 reversed $19 $-1 #
coedge $-1 $31 $87 $90 $91 reversed $19 $-1 #
coedge $-1 $92 $93 $31 $51 forward $94 $-1 #
edge $-1 $95 -23.277054104494432 $96 23.277054104494432 $50 $97 forward 7 unknown #
face $-1 $98 $99 $11 $-1 $100 reversed single #
loop $-1 $-1 $101 $32 #
plane-surface $-1 0 -52.843678376136701 0 0 1 0 0 0 1 forward_v I I I I #
coedge $-1 $102 $103 $104 $105 reversed $33 $-1 #
coedge $-1 $106 $35 $107 $108 reversed $22 $-1 #
coedge $-1 $35 $106 $109 $110 reversed $22 $-1 #
coedge $-1 $111 $112 $35 $59 forward $99 $-1 #
edge $-1 $113 -52.843678376136701 $114 52.843678376136701 $58 $115 forward 7 unknown #
face $-1 $116 $117 $9 $-1 $118 reversed single #
loop $-1 $-1 $119 $36 #
plane-surface $-1 -78.913541062654502 0 0 1 0 0 0 0 -1 forward_v I I I I #
coedge $-1 $120 $71 $121 $122 forward $37 $-1 #
coedge $-1 $123 $39 $120 $124 forward $25 $-1 #
coedge $-1 $39 $123 $125 $126 forward $25 $-1 #
coedge $-1 $74 $73 $39 $67 reversed $75 $-1 #
edge $-1 $127 -52.843678376136701 $128 52.843678376136701 $66 $129 forward 7 unknown #
coedge $-1 $41 $40 $130 $131 forward $16 $-1 #
coedge $-1 $132 $133 $40 $70 reversed $117 $-1 #
edge $-1 $77 -78.913541062654502 $134 78.913541062654502 $69 $135 forward 7 unknown #
coedge $-1 $63 $136 $41 $72 reversed $37 $-1 #
edge $-1 $137 -78.913541062654502 $76 78.913541062654502 $71 $138 forward 7 unknown #
coedge $-1 $66 $42 $136 $139 forward $75 $-1 #
coedge $-1 $42 $66 $132 $140 reversed $75 $-1 #
loop $-1 $-1 $73 $116 #
vertex $-1 $43 $141 #
vertex $-1 $43 $142 #
straight-curve $-1 78.913541062654502 0 23.277054104494432 0 1 0 I I #
face $-1 $143 $144 $10 $-1 $145 forward single #
loop $-1 $-1 $146 $44 #
plane-surface $-1 0 0 -23.277054104494432 0 0 1 1 0 0 forward_v I I I I #
coedge $-1 $147 $148 $87 $149 forward $45 $-1 #
coedge $-1 $150 $47 $146 $151 reversed $29 $-1 #
coedge $-1 $47 $150 $152 $153 reversed $29 $-1 #
coedge $-1 $148 $147 $47 $86 reversed $45 $-1 #
edge $-1 $154 -23.277054104494432 $155 23.277054104494432 $85 $156 forward 7 unknown #
coedge $-1 $49 $48 $82 $149 reversed $19 $-1 #
coedge $-1 $157 $158 $48 $89 forward $80 $-1 #
edge $-1 $159 27.134299311594589 $95 43.564260937904805 $88 $160 forward 7 unknown #
coedge $-1 $161 $162 $49 $91 forward $144 $-1 #
edge $-1 $96 -43.564260937904805 $163 -27.134299311594589 $90 $164 forward 7 unknown #
coedge $-1 $165 $50 $162 $166 reversed $94 $-1 #
coedge $-1 $50 $165 $157 $167 reversed $94 $-1 #
loop $-1 $-1 $165 $143 #
vertex $-1 $167 $168 #
vertex $-1 $51 $169 #
straight-curve $-1 -78.913541062654502 -37.504945315761134 0 0 0 1 I I #
face $-1 $170 $171 $11 $-1 $172 forward single #
loop $-1 $-1 $58 $52 #
plane-surface $-1 78.913541062654502 0 0 -1 0 0 0 0 1 forward_v I I I I #
coedge $-1 $107 $173 $174 $175 forward $53 $-1 #
coedge $-1 $174 $55 $106 $176 reversed $33 $-1 #
coedge $-1 $55 $174 $177 $178 reversed $33 $-1 #
coedge $-1 $179 $109 $55 $105 forward $180 $-1 #
edge $-1 $181 3.7436012931476803 $182 14.270168971947061 $104 $183 forward 7 unknown #
coedge $-1 $57 $56 $102 $176 forward $22 $-1 #
coedge $-1 $184 $101 $56 $108 forward $53 $-1 #
edge $-1 $185 21.463775358468183 $113 45.45443558894695 $107 $186 forward 7 unknown #
coedge $-1 $104 $187 $57 $110 forward $180 $-1 #
edge $-1 $114 -45.45443558894695 $181 -21.463775358468183 $109 $188 forward 7 unknown #
coedge $-1 $189 $58 $187 $190 reversed $99 $-1 #
coedge $-1 $58 $189 $184 $191 forward $99 $-1 #
vertex $-1 $59 $192 #
vertex $-1 $59 $193 #
straight-curve $-1 78.913541062654502 0 12.750486425695051 0 1 0 I I #
face $-1 $-1 $75 $9 $-1 $194 reversed single #
loop $-1 $-1 $132 $60 #
plane-surface $-1 0 52.843678376136701 0 0 -1 0 0 0 -1 forward_v I I I I #
coedge $-1 $195 $130 $133 $196 forward $61 $-1 #
coedge $-1 $136 $63 $64 $124 reversed $37 $-1 #
coedge $-1 $130 $195 $63 $122 reversed $61 $-1 #
edge $-1 $137 -23.277054104494432 $197 23.277054104494432 $121 $198 forward 7 unknown #
coedge $-1 $65 $64 $195 $199 forward $25 $-1 #
edge $-1 $128 -78.913541062654502 $197 78.913541062654502 $120 $200 forward 7 unknown #
coedge $-1 $133 $132 $65 $126 reversed $117 $-1 #
edge $-1 $201 -78.913541062654502 $127 78.913541062654502 $125 $202 forward 7 unknown #
vertex $-1 $67 $203 #
vertex $-1 $139 $204 #
straight-curve $-1 78.913541062654502 0 -23.277054104494432 0 -1 0 I I #
coedge $-1 $119 $121 $68 $131 reversed $61 $-1 #
edge $-1 $134 -52.843678376136701 $137 52.843678376136701 $130 $205 forward 7 unknown #
coedge $-1 $125 $69 $74 $140 forward $117 $-1 #
coedge $-1 $69 $125 $119 $196 reversed $117 $-1 #
vertex $-1 $70 $206 #
straight-curve $-1 0 52.843678376136701 23.277054104494432 -1 0 0 I I #
coedge $-1 $71 $120 $73 $139 reversed $37 $-1 #
vertex $-1 $131 $207 #
straight-curve $-1 0 -52.843678376136701 23.277054104494432 1 0 0 I I #
edge $-1 $76 -23.277054104494432 $128 23.277054104494432 $73 $208 forward 7 unknown #
edge $-1 $77 -23.277054104494432 $127 23.277054104494432 $74 $209 forward 7 unknown #
point $-1 78.913541062654502 -52.843678376136701 23.277054104494432 #
point $-1 78.913541062654502 52.843678376136701 23.277054104494432 #
face $-1 $-1 $94 $10 $-1 $210 reversed single #
loop $-1 $-1 $152 $79 #
plane-surface $-1 0 0 23.277054104494432 0 0 1 1 0 0 forward_v I I I I #
coedge $-1 $158 $157 $83 $151 forward $80 $-1 #
coedge $-1 $85 $82 $158 $211 reversed $45 $-1 #
coedge $-1 $82 $85 $161 $212 reversed $45 $-1 #
edge $-1 $163 -23.277054104494432 $159 23.277054104494432 $82 $213 forward 7 unknown #
coedge $-1 $84 $83 $165 $214 reversed $29 $-1 #
edge $-1 $215 -43.564260937904805 $155 -27.134299311594589 $146 $216 forward 7 unknown #
coedge $-1 $162 $161 $84 $153 forward $144 $-1 #
edge $-1 $154 27.134299311594589 $217 43.564260937904805 $152 $218 forward 7 unknown #
vertex $-1 $153 $219 #
vertex $-1 $151 $220 #
straight-curve $-1 -62.483579436344286 -25.382861919358845 0 0 0 -1 I I #
coedge $-1 $146 $88 $93 $167 forward $80 $-1 #
coedge $-1 $88 $146 $147 $211 forward $80 $-1 #
vertex $-1 $89 $221 #
straight-curve $-1 -35.349280124749697 -37.504945315761134 -23.277054104494432 -1 0 0 I I #
coedge $-1 $152 $90 $148 $212 forward $144 $-1 #
coedge $-1 $90 $152 $92 $166 forward $144 $-1 #
vertex $-1 $91 $222 #
straight-curve $-1 -35.349280124749697 -37.504945315761134 23.277054104494432 1 0 0 I I #
coedge $-1 $93 $92 $150 $214 forward $94 $-1 #
edge $-1 $217 25.382861919358845 $96 37.504945315761134 $92 $223 forward 7 unknown #
edge $-1 $95 -37.504945315761134 $215 -25.382861919358845 $93 $224 forward 7 unknown #
point $-1 -78.913541062654502 -37.504945315761134 -23.277054104494432 #
point $-1 -78.913541062654502 -37.504945315761134 23.277054104494432 #
face $-1 $-1 $180 $11 $-1 $225 reversed single #
loop $-1 $-1 $177 $98 #
plane-surface $-1 0 0 23.277054104494432 0 0 1 1 0 0 forward_v I I I I #
coedge $-1 $101 $184 $226 $227 reversed $53 $-1 #
coedge $-1 $103 $102 $101 $175 reversed $33 $-1 #
edge $-1 $228 -14.270168971947061 $185 -3.7436012931476803 $101 $229 forward 7 unknown #
edge $-1 $185 -52.843678376136701 $181 52.843678376136701 $102 $230 forward 7 unknown #
coedge $-1 $226 $231 $103 $178 forward $171 $-1 #
edge $-1 $182 -52.843678376136701 $228 52.843678376136701 $177 $232 forward 7 unknown #
coedge $-1 $187 $104 $231 $233 reversed $180 $-1 #
loop $-1 $-1 $104 $170 #
vertex $-1 $110 $234 #
vertex $-1 $105 $235 #
straight-curve $-1 54.92288083217575 52.843678376136701 9.0068851325473709 0 0 1 I I #
coedge $-1 $173 $107 $112 $191 reversed $53 $-1 #
vertex $-1 $108 $236 #
straight-curve $-1 33.459105473707567 -52.843678376136701 12.750486425695051 1 0 0 I I #
coedge $-1 $109 $179 $111 $190 forward $180 $-1 #
straight-curve $-1 33.459105473707567 52.843678376136701 12.750486425695051 -1 0 0 I I #
coedge $-1 $112 $111 $237 $238 reversed $99 $-1 #
edge $-1 $239 -23.277054104494432 $114 -12.750486425695051 $111 $240 forward 7 unknown #
edge $-1 $241 -23.277054104494432 $113 -12.750486425695051 $112 $242 forward 7 unknown #
point $-1 78.913541062654517 -52.843678376136701 12.750486425695051 #
point $-1 78.913541062654517 52.843678376136701 12.750486425695051 #
plane-surface $-1 78.913541062654502 0 0 -1 0 0 0 0 1 forward_v I I I I #
coedge $-1 $121 $119 $123 $199 reversed $61 $-1 #
edge $-1 $134 -23.277054104494432 $201 23.277054104494432 $133 $243 forward 7 unknown #
vertex $-1 $199 $244 #
straight-curve $-1 -78.913541062654502 -52.843678376136701 0 0 0 -1 I I #
edge $-1 $197 -52.843678376136701 $201 52.843678376136701 $195 $245 forward 7 unknown #
straight-curve $-1 0 -52.843678376136701 -23.277054104494432 -1 0 0 I I #
vertex $-1 $126 $246 #
straight-curve $-1 0 52.843678376136701 -23.277054104494432 1 0 0 I I #
point $-1 78.913541062654502 52.843678376136701 -23.277054104494432 #
point $-1 78.913541062654502 -52.843678376136701 -23.277054104494432 #
straight-curve $-1 -78.913541062654502 0 23.277054104494432 0 -1 0 I I #
point $-1 -78.913541062654502 52.843678376136701 23.277054104494432 #
point $-1 -78.913541062654502 -52.843678376136701 23.277054104494432 #
straight-curve $-1 78.913541062654502 -52.843678376136701 0 0 0 -1 I I #
straight-curve $-1 78.913541062654502 52.843678376136701 0 0 0 -1 I I #
plane-surface $-1 -78.913541062654502 0 0 1 0 0 0 0 -1 forward_v I I I I #
edge $-1 $155 9.6609101105788504 $159 21.782993506981139 $158 $247 forward 7 unknown #
edge $-1 $163 -21.782993506981139 $154 -9.6609101105788504 $161 $248 forward 7 unknown #
straight-curve $-1 -62.483579436344286 -37.504945315761134 0 0 0 -1 I I #
edge $-1 $217 -23.277054104494432 $215 23.277054104494432 $165 $249 forward 7 unknown #
vertex $-1 $214 $250 #
straight-curve $-1 -35.349280124749697 -25.382861919358845 -23.277054104494432 1 0 0 I I #
vertex $-1 $166 $251 #
straight-curve $-1 -35.349280124749697 -25.382861919358845 23.277054104494432 -1 0 0 I I #
point $-1 -62.483579436344286 -25.382861919358845 23.277054104494432 #
point $-1 -62.483579436344286 -25.382861919358845 -23.277054104494432 #
point $-1 -62.483579436344286 -37.504945315761134 -23.277054104494432 #
point $-1 -62.483579436344286 -37.504945315761134 23.277054104494432 #
straight-curve $-1 -78.913541062654502 0 23.277054104494432 0 -1 0 I I #
straight-curve $-1 -78.913541062654502 0 -23.277054104494432 0 1 0 I I #
plane-surface $-1 0 52.843678376136701 0 0 -1 0 0 0 -1 forward_v I I I I #
coedge $-1 $237 $177 $173 $227 forward $171 $-1 #
edge $-1 $228 54.92288083217575 $241 78.913541062654502 $173 $252 forward 7 unknown #
vertex $-1 $227 $253 #
straight-curve $-1 54.92288083217575 -52.843678376136701 9.0068851325473709 0 0 -1 I I #
straight-curve $-1 54.92288083217575 0 12.750486425695051 0 1 0 I I #
coedge $-1 $177 $237 $179 $233 forward $171 $-1 #
straight-curve $-1 54.92288083217575 0 23.277054104494432 0 -1 0 I I #
edge $-1 $239 -78.913541062654502 $182 -54.92288083217575 $179 $254 forward 7 unknown #
point $-1 54.92288083217575 52.843678376136701 12.750486425695051 #
point $-1 54.92288083217575 52.843678376136701 23.277054104494432 #
point $-1 54.92288083217575 -52.843678376136701 12.750486425695051 #
coedge $-1 $231 $226 $189 $238 forward $171 $-1 #
edge $-1 $241 -52.843678376136701 $239 52.843678376136701 $189 $255 forward 7 unknown #
vertex $-1 $238 $256 #
straight-curve $-1 78.913541062654502 52.843678376136701 0 0 0 -1 I I #
vertex $-1 $238 $257 #
straight-curve $-1 78.913541062654502 -52.843678376136701 0 0 0 -1 I I #
straight-curve $-1 -78.913541062654502 52.843678376136701 0 0 0 -1 I I #
point $-1 -78.913541062654502 -52.843678376136701 -23.277054104494432 #
straight-curve $-1 -78.913541062654502 0 -23.277054104494432 0 1 0 I I #
point $-1 -78.913541062654502 52.843678376136701 -23.277054104494432 #
straight-curve $-1 -62.483579436344286 -15.721951808779995 -23.277054104494432 0 -1 0 I I #
straight-curve $-1 -62.483579436344286 -15.721951808779995 23.277054104494432 0 1 0 I I #
straight-curve $-1 -78.913541062654502 -25.382861919358845 0 0 0 -1 I I #
point $-1 -78.913541062654502 -25.382861919358845 -23.277054104494432 #
point $-1 -78.913541062654502 -25.382861919358845 23.277054104494432 #
straight-curve $-1 0 -52.843678376136701 23.277054104494432 1 0 0 I I #
point $-1 54.92288083217575 -52.843678376136701 23.277054104494432 #
straight-curve $-1 0 52.843678376136701 23.277054104494432 -1 0 0 I I #
straight-curve $-1 78.913541062654502 0 23.277054104494432 0 1 0 I I #
point $-1 78.913541062654502 52.843678376136701 23.277054104494432 #
point $-1 78.913541062654502 -52.843678376136701 23.277054104494432 #
End-of-ACIS-data 