500 0 11 0           
7 Unknown 11 ACIS 5.0 NT 24 Fri Mar 26 18:10:58 1999 
-1 9.9999999999999995e-007 1e-010 
body $-1 $11 $-1 $12 #
body $-1 $13 $-1 $14 #
body $-1 $15 $-1 $16 #
body $-1 $17 $-1 $18 #
body $-1 $19 $-1 $20 #
body $-1 $21 $-1 $22 #
body $-1 $23 $-1 $24 #
body $-1 $25 $-1 $26 #
body $-1 $27 $-1 $28 #
body $-1 $29 $-1 $30 #
body $-1 $31 $-1 $32 #
lump $-1 $-1 $33 $0 #
transform $-1 1 0 0 0 1 0 0 0 1 65.370647297585975 26.300279040622453 12.67698010704645 1 rotate no_reflect no_shear #
lump $-1 $-1 $34 $1 #
transform $-1 1 0 0 0 1 0 0 0 1 65.370647297585975 26.300279040622453 12.67698010704645 1 rotate no_reflect no_shear #
lump $-1 $-1 $35 $2 #
transform $-1 1 0 0 0 1 0 0 0 1 65.370647297585975 26.300279040622453 12.67698010704645 1 rotate no_reflect no_shear #
lump $-1 $-1 $36 $3 #
transform $-1 1 0 0 0 1 0 0 0 1 65.370647297585975 26.300279040622453 12.67698010704645 1 rotate no_reflect no_shear #
lump $-1 $-1 $37 $4 #
transform $-1 1 0 0 0 1 0 0 0 1 65.370647297585975 26.300279040622453 12.67698010704645 1 rotate no_reflect no_shear #
lump $-1 $-1 $38 $5 #
transform $-1 1 0 0 0 1 0 0 0 1 65.370647297585975 26.300279040622453 12.67698010704645 1 rotate no_reflect no_shear #
lump $-1 $-1 $39 $6 #
transform $-1 1 0 0 0 1 0 0 0 1 65.370647297585975 26.300279040622453 12.67698010704645 1 rotate no_reflect no_shear #
lump $-1 $-1 $40 $7 #
transform $-1 1 0 0 0 1 0 0 0 1 65.370647297585975 26.300279040622453 12.67698010704645 1 rotate no_reflect no_shear #
lump $-1 $-1 $41 $8 #
transform $-1 1 0 0 0 1 0 0 0 1 65.370647297585975 26.300279040622453 12.67698010704645 1 rotate no_reflect no_shear #
lump $-1 $-1 $42 $9 #
transform $-1 1 0 0 0 1 0 0 0 1 65.370647297585975 26.300279040622453 12.67698010704645 1 rotate no_reflect no_shear #
lump $-1 $-1 $43 $10 #
transform $-1 1 0 0 0 1 0 0 0 1 65.370647297585975 26.300279040622453 12.67698010704645 1 rotate no_reflect no_shear #
shell $-1 $-1 $-1 $44 $-1 $11 #
shell $-1 $-1 $-1 $45 $-1 $13 #
shell $-1 $-1 $-1 $46 $-1 $15 #
shell $-1 $-1 $-1 $47 $-1 $17 #
shell $-1 $-1 $-1 $48 $-1 $19 #
shell $-1 $-1 $-1 $49 $-1 $21 #
shell $-1 $-1 $-1 $50 $-1 $23 #
shell $-1 $-1 $-1 $51 $-1 $25 #
shell $-1 $-1 $-1 $52 $-1 $27 #
shell $-1 $-1 $-1 $53 $-1 $29 #
shell $-1 $-1 $-1 $54 $-1 $31 #
face $-1 $55 $56 $33 $-1 $57 forward single #
face $-1 $58 $59 $34 $-1 $60 forward single #
face $-1 $61 $62 $35 $-1 $63 reversed single #
face $-1 $64 $65 $36 $-1 $66 forward single #
face $-1 $67 $68 $37 $-1 $69 forward single #
face $-1 $70 $71 $38 $-1 $72 reversed single #
face $-1 $73 $74 $39 $-1 $75 forward single #
face $-1 $76 $77 $40 $-1 $78 forward single #
face $-1 $79 $80 $41 $-1 $81 reversed single #
face $-1 $82 $83 $42 $-1 $84 forward single #
face $-1 $85 $86 $43 $-1 $87 forward single #
face $-1 $88 $89 $33 $-1 $90 reversed single #
loop $-1 $-1 $91 $44 #
plane-surface $-1 0 0 12.67698010704645 0 0 1 1 0 0 forward_v I I I I #
face $-1 $92 $93 $34 $-1 $94 reversed single #
loop $-1 $-1 $95 $45 #
plane-surface $-1 -60.550802743906914 0 7.4929032205416473 0 0 1 1 0 0 forward_v I I I I #
face $-1 $96 $97 $35 $-1 $98 reversed single #
loop $-1 $-1 $99 $46 #
plane-surface $-1 35.506292265828336 -139.52556249499492 74.277117486298209 1 0 0 0 0.86602541151947299 -0.49999998660252726 forward_v I I I I #
face $-1 $100 $101 $36 $-1 $102 forward single #
loop $-1 $103 $104 $47 #
cone-surface $-1 42.270841920886198 -23.747259142697015 9.9461573339136873 0 0.86602541151947299 -0.49999998660252726 1 0 0 1 I I 0 1 1 forward I I I I #
face $-1 $105 $106 $37 $-1 $107 forward single #
loop $-1 $108 $109 $48 #
cone-surface $-1 52.417666403473007 -23.747259142697015 9.9461573339136873 0 0.86602541151947299 -0.49999998660252726 1 0 0 1 I I 0 1 1 forward I I I I #
face $-1 $110 $111 $38 $-1 $112 reversed single #
loop $-1 $-1 $113 $49 #
plane-surface $-1 -53.45592673933956 79.283140229410677 132.4092970841146 1 0 0 0 -0.69465837861970381 -0.71933979245794832 forward_v I I I I #
face $-1 $114 $115 $39 $-1 $116 forward single #
loop $-1 $117 $118 $50 #
cone-surface $-1 -46.870466955107595 18.188639151489788 4.669646822129784 0 -0.69465837861970381 -0.71933979245794832 2.5 0 0 1 I I 0 1 2.5 forward I I I I #
face $-1 $119 $120 $40 $-1 $121 forward single #
loop $-1 $122 $123 $51 #
cone-surface $-1 -36.992277278759644 18.188639151489788 4.669646822129784 0 -0.69465837861970381 -0.71933979245794832 2.5 0 0 1 I I 0 1 2.5 forward I I I I #
face $-1 $124 $125 $41 $-1 $126 reversed single #
loop $-1 $-1 $127 $52 #
plane-surface $-1 7.0948760045673431 79.283140229410677 132.4092970841146 1 0 0 0 -0.69465837861970381 -0.71933979245794832 forward_v I I I I #
face $-1 $128 $129 $42 $-1 $130 forward single #
loop $-1 $131 $132 $53 #
cone-surface $-1 13.680335788799312 18.188639151489788 4.669646822129784 0 -0.69465837861970381 -0.71933979245794832 2.5 0 0 1 I I 0 1 2.5 forward I I I I #
face $-1 $133 $134 $43 $-1 $135 forward single #
loop $-1 $136 $137 $54 #
cone-surface $-1 23.558525465147255 18.188639151489788 4.669646822129784 0 -0.69465837861970381 -0.71933979245794832 2.5 0 0 1 I I 0 1 2.5 forward I I I I #
face $-1 $138 $139 $33 $-1 $140 reversed single #
loop $-1 $-1 $141 $55 #
plane-surface $-1 0 0 -12.67698010704645 0 0 1 1 0 0 forward_v I I I I #
coedge $-1 $142 $143 $144 $145 forward $56 $-1 #
face $-1 $146 $147 $34 $-1 $148 reversed single #
loop $-1 $-1 $149 $58 #
plane-surface $-1 -60.550802743906914 0 0.39043622016992607 0 0 1 1 0 0 forward_v I I I I #
coedge $-1 $150 $151 $152 $153 forward $59 $-1 #
face $-1 $154 $155 $35 $-1 $156 reversed single #
loop $-1 $-1 $157 $61 #
plane-surface $-1 47.34425416217961 -26.30027904062247 8.9064719403151713 0 -0.86602541151947299 0.49999998660252726 1 0 0 forward_v I I I I #
coedge $-1 $158 $159 $160 $161 reversed $62 $-1 #
face $-1 $-1 $162 $36 $-1 $163 forward single #
loop $-1 $164 $165 $64 #
cone-surface $-1 42.270841920886198 -21.849678452647161 8.8505886508453067 0 0.86602541151947299 -0.49999998660252726 0.5 0 0 1 I I -0.70710678118654746 0.70710678118654746 0.5 forward I I I I #
loop $-1 $-1 $166 $47 #
coedge $-1 $104 $104 $167 $168 reversed $65 $-1 #
face $-1 $-1 $169 $37 $-1 $170 forward single #
loop $-1 $171 $172 $67 #
cone-surface $-1 52.417666403473007 -21.849678452647161 8.8505886508453067 0 0.86602541151947299 -0.49999998660252726 0.5 0 0 1 I I -0.70710678118654746 0.70710678118654746 0.5 forward I I I I #
loop $-1 $-1 $173 $48 #
coedge $-1 $109 $109 $174 $175 reversed $68 $-1 #
face $-1 $176 $177 $38 $-1 $178 reversed single #
loop $-1 $-1 $179 $70 #
plane-surface $-1 -41.931372116933616 -11.53739549271252 38.361881364340121 0 0.69465837861970381 0.71933979245794832 1 0 0 forward_v I I I I #
coedge $-1 $180 $181 $182 $183 reversed $71 $-1 #
face $-1 $-1 $184 $39 $-1 $185 forward single #
loop $-1 $186 $187 $73 #
cone-surface $-1 -46.870466955107595 14.828766928352369 1.1903973635983967 0 -0.69465837861970381 -0.71933979245794832 1.25 0 0 1 I I -0.70710678118654746 0.70710678118654746 1.25 forward I I I I #
loop $-1 $-1 $188 $50 #
coedge $-1 $118 $118 $189 $190 reversed $74 $-1 #
face $-1 $-1 $191 $40 $-1 $192 forward single #
loop $-1 $193 $194 $76 #
cone-surface $-1 -36.992277278759644 14.828766928352369 1.1903973635983967 0 -0.69465837861970381 -0.71933979245794832 1.25 0 0 1 I I -0.70710678118654746 0.70710678118654746 1.25 forward I I I I #
loop $-1 $-1 $195 $51 #
coedge $-1 $123 $123 $196 $197 reversed $77 $-1 #
face $-1 $198 $199 $41 $-1 $200 reversed single #
loop $-1 $-1 $201 $79 #
plane-surface $-1 18.619430626973283 -11.53739549271252 38.361881364340121 0 0.69465837861970381 0.71933979245794832 1 0 0 forward_v I I I I #
coedge $-1 $202 $203 $204 $205 reversed $80 $-1 #
face $-1 $-1 $206 $42 $-1 $207 forward single #
loop $-1 $208 $209 $82 #
cone-surface $-1 13.680335788799312 14.828766928352369 1.1903973635983967 0 -0.69465837861970381 -0.71933979245794832 1.25 0 0 1 I I -0.70710678118654746 0.70710678118654746 1.25 forward I I I I #
loop $-1 $-1 $210 $53 #
coedge $-1 $132 $132 $211 $212 reversed $83 $-1 #
face $-1 $-1 $213 $43 $-1 $214 forward single #
loop $-1 $215 $216 $85 #
cone-surface $-1 23.558525465147255 14.828766928352369 1.1903973635983967 0 -0.69465837861970381 -0.71933979245794832 1.25 0 0 1 I I -0.70710678118654746 0.70710678118654746 1.25 forward I I I I #
loop $-1 $-1 $217 $54 #
coedge $-1 $137 $137 $218 $219 reversed $86 $-1 #
face $-1 $220 $221 $33 $-1 $222 reversed single #
loop $-1 $-1 $223 $88 #
plane-surface $-1 0 -26.300279040622453 0 0 1 0 0 0 1 forward_v I I I I #
coedge $-1 $224 $225 $226 $227 forward $89 $-1 #
coedge $-1 $228 $91 $229 $230 forward $56 $-1 #
coedge $-1 $91 $228 $231 $232 forward $56 $-1 #
coedge $-1 $233 $234 $91 $145 reversed $235 $-1 #
edge $-1 $236 -26.300279040622453 $237 26.300279040622453 $144 $238 forward 7 unknown #
face $-1 $239 $240 $34 $-1 $241 reversed single #
loop $-1 $-1 $242 $92 #
plane-surface $-1 -55.730958190227852 0 3.9416697203557867 -1 0 0 0 0 1 forward_v I I I I #
coedge $-1 $243 $244 $245 $246 forward $93 $-1 #
coedge $-1 $247 $95 $248 $249 reversed $59 $-1 #
coedge $-1 $95 $247 $250 $251 reversed $59 $-1 #
coedge $-1 $242 $252 $95 $153 reversed $147 $-1 #
edge $-1 $253 -26.300279040622453 $254 26.300279040622453 $152 $255 forward 7 unknown #
face $-1 $256 $257 $35 $-1 $258 forward single #
loop $-1 $-1 $259 $96 #
plane-surface $-1 59.182216058530884 -139.52556249499492 74.277117486298209 -1 0 0 0 -0.86602541151947299 0.49999998660252726 forward_v I I I I #
coedge $-1 $260 $261 $262 $263 reversed $97 $-1 #
coedge $-1 $159 $99 $264 $265 reversed $62 $-1 #
coedge $-1 $99 $158 $260 $266 reversed $62 $-1 #
coedge $-1 $262 $267 $99 $161 forward $268 $-1 #
edge $-1 $269 24.461578636102654 $270 28.232086802833905 $160 $271 forward 7 unknown #
loop $-1 $-1 $167 $100 #
plane-surface $-1 47.34425416217961 -26.30027904062247 8.9064719403151713 0 -0.86602541151947299 0.49999998660252726 1 0 0 forward_v I I I I #
loop $-1 $-1 $272 $64 #
coedge $-1 $165 $165 $166 $273 reversed $101 $-1 #
coedge $-1 $166 $166 $165 $273 forward $103 $-1 #
coedge $-1 $167 $167 $104 $168 forward $162 $-1 #
edge $-1 $274 1.4279197737350022e-015 $274 6.2831853071796022 $167 $275 forward 7 unknown #
loop $-1 $-1 $174 $105 #
plane-surface $-1 47.34425416217961 -26.30027904062247 8.9064719403151713 0 -0.86602541151947299 0.49999998660252726 1 0 0 forward_v I I I I #
loop $-1 $-1 $276 $67 #
coedge $-1 $172 $172 $173 $277 reversed $106 $-1 #
coedge $-1 $173 $173 $172 $277 forward $108 $-1 #
coedge $-1 $174 $174 $109 $175 forward $169 $-1 #
edge $-1 $278 1.4279197737350022e-015 $278 6.2831853071796022 $174 $279 forward 7 unknown #
face $-1 $280 $281 $38 $-1 $282 reversed single #
loop $-1 $-1 $283 $110 #
plane-surface $-1 -30.406817494527676 79.283140229410677 132.4092970841146 -1 0 0 0 0.69465837861970381 0.71933979245794832 forward_v I I I I #
coedge $-1 $284 $285 $286 $287 reversed $111 $-1 #
coedge $-1 $181 $113 $288 $289 reversed $71 $-1 #
coedge $-1 $113 $180 $284 $290 reversed $71 $-1 #
coedge $-1 $286 $291 $113 $183 forward $292 $-1 #
edge $-1 $293 13.341291074082886 $294 24.581472352622683 $182 $295 forward 7 unknown #
loop $-1 $-1 $189 $114 #
plane-surface $-1 -41.931372116933616 -11.53739549271252 38.361881364340121 0 0.69465837861970381 0.71933979245794832 1 0 0 forward_v I I I I #
loop $-1 $-1 $296 $73 #
coedge $-1 $187 $187 $188 $297 reversed $115 $-1 #
coedge $-1 $188 $188 $187 $297 forward $117 $-1 #
coedge $-1 $189 $189 $118 $190 forward $184 $-1 #
edge $-1 $298 -7.7672253779359871e-016 $298 6.2831853071795996 $189 $299 forward 7 unknown #
loop $-1 $-1 $196 $119 #
plane-surface $-1 -41.931372116933616 -11.53739549271252 38.361881364340121 0 0.69465837861970381 0.71933979245794832 1 0 0 forward_v I I I I #
loop $-1 $-1 $300 $76 #
coedge $-1 $194 $194 $195 $301 reversed $120 $-1 #
coedge $-1 $195 $195 $194 $301 forward $122 $-1 #
coedge $-1 $196 $196 $123 $197 forward $191 $-1 #
edge $-1 $302 -7.7672253779359871e-016 $302 6.2831853071795996 $196 $303 forward 7 unknown #
face $-1 $304 $305 $41 $-1 $306 forward single #
loop $-1 $-1 $307 $124 #
plane-surface $-1 30.143985249379224 79.283140229410677 132.4092970841146 -1 0 0 0 0.69465837861970381 0.71933979245794832 forward_v I I I I #
coedge $-1 $308 $309 $310 $311 reversed $125 $-1 #
coedge $-1 $203 $127 $312 $313 reversed $80 $-1 #
coedge $-1 $127 $202 $308 $314 reversed $80 $-1 #
coedge $-1 $310 $315 $127 $205 forward $305 $-1 #
edge $-1 $316 13.341291074082886 $317 24.581472352622683 $204 $318 forward 7 unknown #
loop $-1 $-1 $211 $128 #
plane-surface $-1 18.619430626973283 -11.53739549271252 38.361881364340121 0 0.69465837861970381 0.71933979245794832 1 0 0 forward_v I I I I #
loop $-1 $-1 $319 $82 #
coedge $-1 $209 $209 $210 $320 reversed $129 $-1 #
coedge $-1 $210 $210 $209 $320 forward $131 $-1 #
coedge $-1 $211 $211 $132 $212 forward $206 $-1 #
edge $-1 $321 -7.7672253779359871e-016 $321 6.2831853071795996 $211 $322 forward 7 unknown #
loop $-1 $-1 $218 $133 #
plane-surface $-1 18.619430626973283 -11.53739549271252 38.361881364340121 0 0.69465837861970381 0.71933979245794832 1 0 0 forward_v I I I I #
loop $-1 $-1 $323 $85 #
coedge $-1 $216 $216 $217 $324 reversed $134 $-1 #
coedge $-1 $217 $217 $216 $324 forward $136 $-1 #
coedge $-1 $218 $218 $137 $219 forward $213 $-1 #
edge $-1 $325 -7.7672253779359871e-016 $325 6.2831853071795996 $218 $326 forward 7 unknown #
face $-1 $327 $328 $33 $-1 $329 reversed single #
loop $-1 $-1 $330 $138 #
plane-surface $-1 -65.370647297585975 0 0 1 0 0 0 0 -1 forward_v I I I I #
coedge $-1 $331 $231 $332 $333 forward $139 $-1 #
coedge $-1 $334 $141 $331 $335 forward $89 $-1 #
coedge $-1 $141 $334 $336 $337 forward $89 $-1 #
coedge $-1 $234 $233 $141 $227 reversed $235 $-1 #
edge $-1 $338 -26.300279040622453 $339 26.300279040622453 $226 $340 forward 7 unknown #
coedge $-1 $143 $142 $341 $342 forward $56 $-1 #
coedge $-1 $343 $344 $142 $230 reversed $328 $-1 #
edge $-1 $237 -65.370647297585975 $345 65.370647297585975 $229 $346 forward 7 unknown #
coedge $-1 $223 $347 $143 $232 reversed $139 $-1 #
edge $-1 $348 -65.370647297585975 $236 65.370647297585975 $231 $349 forward 7 unknown #
coedge $-1 $226 $144 $347 $350 forward $235 $-1 #
coedge $-1 $144 $226 $343 $351 reversed $235 $-1 #
loop $-1 $-1 $233 $327 #
vertex $-1 $145 $352 #
vertex $-1 $145 $353 #
straight-curve $-1 65.370647297585975 0 12.67698010704645 0 1 0 I I #
face $-1 $354 $355 $34 $-1 $356 reversed single #
loop $-1 $-1 $357 $146 #
plane-surface $-1 0 -26.300279040622453 0 0 1 0 0 0 1 forward_v I I I I #
coedge $-1 $245 $152 $358 $359 reversed $147 $-1 #
coedge $-1 $360 $149 $357 $361 reversed $93 $-1 #
coedge $-1 $149 $360 $362 $363 reversed $93 $-1 #
coedge $-1 $252 $242 $149 $246 reversed $147 $-1 #
edge $-1 $364 -26.300279040622453 $365 26.300279040622453 $245 $366 forward 7 unknown #
coedge $-1 $151 $150 $367 $368 reversed $59 $-1 #
coedge $-1 $369 $370 $150 $249 forward $371 $-1 #
edge $-1 $372 -35.095245925632518 $254 -25.455556818274395 $248 $373 forward 7 unknown #
coedge $-1 $374 $358 $151 $251 forward $240 $-1 #
edge $-1 $253 25.455556818274395 $375 35.095245925632518 $250 $376 forward 7 unknown #
coedge $-1 $152 $245 $369 $377 reversed $147 $-1 #
vertex $-1 $251 $378 #
vertex $-1 $249 $379 #
straight-curve $-1 -55.730958190227852 0 7.4929032205416473 0 1 0 I I #
face $-1 $-1 $268 $35 $-1 $380 reversed single #
loop $-1 $-1 $381 $154 #
plane-surface $-1 0 0 12.67698010704645 0 0 1 1 0 0 forward_v I I I I #
coedge $-1 $382 $383 $384 $385 reversed $155 $-1 #
coedge $-1 $386 $157 $159 $266 forward $97 $-1 #
coedge $-1 $157 $386 $382 $387 forward $97 $-1 #
coedge $-1 $384 $160 $157 $263 forward $268 $-1 #
edge $-1 $270 11.834165184738531 $388 35.510088977441079 $262 $389 forward 7 unknown #
coedge $-1 $390 $391 $158 $265 forward $257 $-1 #
edge $-1 $392 -45.639406034145608 $269 -43.462502206875001 $264 $393 forward 7 unknown #
edge $-1 $270 3.503407672741388e-014 $392 4.3538077712012919 $159 $394 forward 7 unknown #
coedge $-1 $160 $384 $390 $395 reversed $268 $-1 #
loop $-1 $-1 $384 $256 #
vertex $-1 $395 $396 #
vertex $-1 $161 $397 #
straight-curve $-1 35.506292265828336 -26.300279040622456 37.138558743149105 0 0 -1 I I #
coedge $-1 $272 $272 $-1 $398 reversed $164 $-1 #
edge $-1 $399 0 $399 6.2831853071796004 $165 $400 forward 7 unknown #
vertex $-1 $168 $401 #
ellipse-curve $-1 42.270841920886198 -25.211827126987153 10.791726023680816 0 -0.86602541151947299 0.49999998660252726 1 0 0 1 I I #
coedge $-1 $276 $276 $-1 $402 reversed $171 $-1 #
edge $-1 $403 0 $403 6.2831853071796004 $172 $404 forward 7 unknown #
vertex $-1 $175 $405 #
ellipse-curve $-1 52.417666403473007 -25.211827126987153 10.791726023680816 0 -0.86602541151947299 0.49999998660252726 1 0 0 1 I I #
face $-1 $-1 $292 $38 $-1 $406 forward single #
loop $-1 $-1 $407 $176 #
plane-surface $-1 0 26.300279040622453 0 0 -1 0 0 0 -1 forward_v I I I I #
coedge $-1 $408 $409 $410 $411 reversed $177 $-1 #
coedge $-1 $412 $179 $181 $290 forward $111 $-1 #
coedge $-1 $179 $412 $408 $413 forward $111 $-1 #
coedge $-1 $410 $182 $179 $287 forward $292 $-1 #
edge $-1 $294 -32.490240680872752 $414 -9.4411314360608678 $286 $415 forward 7 unknown #
coedge $-1 $416 $417 $180 $289 forward $281 $-1 #
edge $-1 $418 -64.382185568926332 $293 -53.527668435010852 $288 $419 forward 7 unknown #
edge $-1 $294 36.97486714020485 $418 52.600558081244913 $181 $420 forward 7 unknown #
coedge $-1 $182 $410 $416 $421 forward $292 $-1 #
loop $-1 $-1 $410 $280 #
vertex $-1 $289 $422 #
vertex $-1 $183 $423 #
straight-curve $-1 -53.45592673933956 39.641570114705338 12.676980107046447 0 -1 0 I I #
coedge $-1 $296 $296 $-1 $424 reversed $186 $-1 #
edge $-1 $425 0 $425 6.2831853071796004 $187 $426 forward 7 unknown #
vertex $-1 $190 $427 #
ellipse-curve $-1 -46.870466955107595 20.680188401352552 7.2497215400887107 0 0.69465837861970381 0.71933979245794832 2.5 0 0 1 I I #
coedge $-1 $300 $300 $-1 $428 reversed $193 $-1 #
edge $-1 $429 0 $429 6.2831853071796004 $194 $430 forward 7 unknown #
vertex $-1 $197 $431 #
ellipse-curve $-1 -36.992277278759644 20.680188401352552 7.2497215400887107 0 0.69465837861970381 0.71933979245794832 2.5 0 0 1 I I #
face $-1 $-1 $432 $41 $-1 $433 reversed single #
loop $-1 $-1 $204 $198 #
plane-surface $-1 0 0 12.67698010704645 0 0 1 1 0 0 forward_v I I I I #
coedge $-1 $434 $435 $436 $437 reversed $199 $-1 #
coedge $-1 $438 $201 $203 $314 forward $125 $-1 #
coedge $-1 $201 $438 $434 $439 forward $125 $-1 #
coedge $-1 $436 $204 $201 $311 forward $305 $-1 #
edge $-1 $317 -2.2148393089192986 $440 20.834269935892582 $310 $441 forward 7 unknown #
coedge $-1 $442 $443 $202 $313 forward $432 $-1 #
edge $-1 $444 -64.382185568926332 $316 -53.527668435010852 $312 $445 forward 7 unknown #
edge $-1 $317 36.97486714020485 $444 52.600558081244913 $203 $446 forward 7 unknown #
coedge $-1 $204 $436 $442 $447 forward $305 $-1 #
vertex $-1 $205 $448 #
vertex $-1 $205 $449 #
straight-curve $-1 7.0948760045673431 39.641570114705338 12.676980107046447 0 -1 0 I I #
coedge $-1 $319 $319 $-1 $450 reversed $208 $-1 #
edge $-1 $451 0 $451 6.2831853071796004 $209 $452 forward 7 unknown #
vertex $-1 $212 $453 #
ellipse-curve $-1 13.680335788799312 20.680188401352552 7.2497215400887107 0 0.69465837861970381 0.71933979245794832 2.5 0 0 1 I I #
coedge $-1 $323 $323 $-1 $454 reversed $215 $-1 #
edge $-1 $455 0 $455 6.2831853071796004 $216 $456 forward 7 unknown #
vertex $-1 $219 $457 #
ellipse-curve $-1 23.558525465147255 20.680188401352552 7.2497215400887107 0 0.69465837861970381 0.71933979245794832 2.5 0 0 1 I I #
face $-1 $-1 $235 $33 $-1 $458 reversed single #
loop $-1 $-1 $343 $220 #
plane-surface $-1 0 26.300279040622453 0 0 -1 0 0 0 -1 forward_v I I I I #
coedge $-1 $459 $341 $344 $460 forward $221 $-1 #
coedge $-1 $347 $223 $224 $335 reversed $139 $-1 #
coedge $-1 $341 $459 $223 $333 reversed $221 $-1 #
edge $-1 $348 -12.67698010704645 $461 12.67698010704645 $332 $462 forward 7 unknown #
coedge $-1 $225 $224 $459 $463 forward $89 $-1 #
edge $-1 $339 -65.370647297585975 $461 65.370647297585975 $331 $464 forward 7 unknown #
coedge $-1 $344 $343 $225 $337 reversed $328 $-1 #
edge $-1 $465 -65.370647297585975 $338 65.370647297585975 $336 $466 forward 7 unknown #
vertex $-1 $227 $467 #
vertex $-1 $350 $468 #
straight-curve $-1 65.370647297585975 0 -12.67698010704645 0 -1 0 I I #
coedge $-1 $330 $332 $228 $342 reversed $221 $-1 #
edge $-1 $345 -26.300279040622453 $348 26.300279040622453 $341 $469 forward 7 unknown #
coedge $-1 $336 $229 $234 $351 forward $328 $-1 #
coedge $-1 $229 $336 $330 $460 reversed $328 $-1 #
vertex $-1 $230 $470 #
straight-curve $-1 0 26.300279040622453 12.67698010704645 -1 0 0 I I #
coedge $-1 $231 $331 $233 $350 reversed $139 $-1 #
vertex $-1 $342 $471 #
straight-curve $-1 0 -26.300279040622453 12.67698010704645 1 0 0 I I #
edge $-1 $236 -12.67698010704645 $339 12.67698010704645 $233 $472 forward 7 unknown #
edge $-1 $237 -12.67698010704645 $338 12.67698010704645 $234 $473 forward 7 unknown #
point $-1 65.370647297585975 -26.300279040622453 12.67698010704645 #
point $-1 65.370647297585975 26.300279040622453 12.67698010704645 #
face $-1 $-1 $371 $34 $-1 $474 reversed single #
loop $-1 $-1 $475 $239 #
plane-surface $-1 -65.370647297585975 0 0 1 0 0 0 0 -1 forward_v I I I I #
coedge $-1 $358 $374 $243 $361 forward $240 $-1 #
coedge $-1 $250 $357 $242 $359 forward $240 $-1 #
edge $-1 $365 -1.5803986400079673 $253 5.5220683603637539 $358 $476 forward 7 unknown #
coedge $-1 $244 $243 $475 $477 reversed $93 $-1 #
edge $-1 $478 -35.095245925632518 $365 -25.455556818274395 $357 $479 forward 7 unknown #
coedge $-1 $370 $369 $244 $363 forward $371 $-1 #
edge $-1 $364 25.455556818274395 $480 35.095245925632518 $362 $481 forward 7 unknown #
vertex $-1 $363 $482 #
vertex $-1 $361 $483 #
straight-curve $-1 -55.730958190227852 0 0.39043622016992607 0 -1 0 I I #
coedge $-1 $484 $485 $247 $368 forward $355 $-1 #
edge $-1 $375 -26.300279040622453 $372 26.300279040622453 $367 $486 forward 7 unknown #
coedge $-1 $362 $248 $252 $377 forward $371 $-1 #
coedge $-1 $248 $362 $484 $487 reversed $371 $-1 #
loop $-1 $-1 $362 $354 #
vertex $-1 $487 $488 #
straight-curve $-1 -30.275401371953457 26.300279040622453 7.4929032205416473 1 0 0 I I #
coedge $-1 $357 $250 $485 $489 forward $240 $-1 #
vertex $-1 $489 $490 #
straight-curve $-1 -30.275401371953457 -26.300279040622453 7.4929032205416473 -1 0 0 I I #
edge $-1 $254 -5.5220683603637539 $364 1.5803986400079673 $369 $491 forward 7 unknown #
point $-1 -55.730958190227852 -26.300279040622453 7.4929032205416473 #
point $-1 -55.730958190227852 26.300279040622453 7.4929032205416473 #
plane-surface $-1 0 -26.300279040622453 0 0 1 0 0 0 1 forward_v I I I I #
coedge $-1 $391 $390 $383 $492 forward $257 $-1 #
coedge $-1 $383 $259 $261 $387 reversed $155 $-1 #
coedge $-1 $259 $382 $381 $492 reversed $155 $-1 #
coedge $-1 $267 $262 $259 $385 forward $268 $-1 #
edge $-1 $388 -28.232086802833905 $493 -24.461578636102654 $384 $494 forward 7 unknown #
coedge $-1 $261 $260 $391 $495 reversed $97 $-1 #
edge $-1 $496 -4.3538077712012919 $388 -3.503407672741388e-014 $382 $497 forward 7 unknown #
vertex $-1 $263 $498 #
straight-curve $-1 23.672127081089805 -26.300279040622453 8.9064719403152015 1 0 0 I I #
coedge $-1 $381 $264 $267 $395 forward $257 $-1 #
coedge $-1 $264 $381 $386 $495 forward $257 $-1 #
vertex $-1 $265 $499 #
straight-curve $-1 35.506292265828336 -69.762781247497458 12.67698010704645 0 -1 0 I I #
straight-curve $-1 35.506292265828336 -26.30027904062247 8.9064719403151713 0 0.49999998660252726 0.86602541151947299 I I #
edge $-1 $269 35.506292265828336 $493 59.182216058530884 $267 $500 forward 7 unknown #
point $-1 35.506292265828336 -26.300279040622453 12.67698010704645 #
point $-1 35.506292265828336 -26.300279040622453 8.9064719403152015 #
edge $-1 $501 1 $501 0 $272 $-1 forward 7 unknown #
vertex $-1 $273 $502 #
ellipse-curve $-1 42.270841920886198 -22.282691158406898 9.1005886441465709 0 -0.86602541151947299 0.49999998660252726 1 0 0 1 I I #
point $-1 43.270841920886198 -25.211827126987131 10.791726023680805 #
edge $-1 $503 1 $503 0 $276 $-1 forward 7 unknown #
vertex $-1 $277 $504 #
ellipse-curve $-1 52.417666403473007 -22.282691158406898 9.1005886441465709 0 -0.86602541151947299 0.49999998660252726 1 0 0 1 I I #
point $-1 53.417666403473007 -25.211827126987131 10.791726023680805 #
plane-surface $-1 0 0 12.67698010704645 0 0 1 1 0 0 forward_v I I I I #
coedge $-1 $417 $416 $409 $505 forward $281 $-1 #
coedge $-1 $409 $283 $285 $413 reversed $177 $-1 #
coedge $-1 $283 $408 $407 $505 reversed $177 $-1 #
coedge $-1 $291 $286 $283 $411 forward $292 $-1 #
edge $-1 $414 -24.581472352622683 $506 -13.341291074082886 $410 $507 forward 7 unknown #
coedge $-1 $285 $284 $417 $508 reversed $111 $-1 #
edge $-1 $509 -52.600558081244913 $414 -36.97486714020485 $408 $510 forward 7 unknown #
vertex $-1 $287 $511 #
straight-curve $-1 -20.965686058466808 15.060097762082652 12.67698010704645 1 0 0 I I #
coedge $-1 $407 $288 $291 $421 reversed $281 $-1 #
coedge $-1 $288 $407 $412 $508 forward $281 $-1 #
vertex $-1 $289 $512 #
straight-curve $-1 -53.45592673933956 26.300279040622453 66.204648542057299 0 0 1 I I #
straight-curve $-1 -53.45592673933956 -11.53739549271252 38.361881364340121 0 0.71933979245794832 -0.69465837861970381 I I #
edge $-1 $506 30.406817494527676 $293 53.45592673933956 $416 $513 forward 7 unknown #
point $-1 -53.45592673933956 26.300279040622453 12.67698010704645 #
point $-1 -53.45592673933956 15.060097762082655 12.67698010704645 #
edge $-1 $514 1 $514 0 $296 $-1 forward 7 unknown #
vertex $-1 $297 $515 #
ellipse-curve $-1 -46.870466955107595 15.697089901626999 2.0895721041708319 0 0.69465837861970381 0.71933979245794832 2.5 0 0 1 I I #
point $-1 -44.370466955107595 20.680188401352574 7.2497215400887356 #
edge $-1 $516 1 $516 0 $300 $-1 forward 7 unknown #
vertex $-1 $301 $517 #
ellipse-curve $-1 -36.992277278759644 15.697089901626999 2.0895721041708319 0 0.69465837861970381 0.71933979245794832 2.5 0 0 1 I I #
point $-1 -34.492277278759644 20.680188401352574 7.2497215400887356 #
loop $-1 $-1 $312 $304 #
plane-surface $-1 0 26.300279040622453 0 0 -1 0 0 0 -1 forward_v I I I I #
coedge $-1 $435 $307 $309 $439 reversed $199 $-1 #
coedge $-1 $307 $434 $518 $519 reversed $199 $-1 #
coedge $-1 $315 $310 $307 $437 forward $305 $-1 #
edge $-1 $440 -24.581472352622683 $520 -13.341291074082886 $436 $521 forward 7 unknown #
coedge $-1 $309 $308 $443 $522 reversed $125 $-1 #
edge $-1 $523 -52.600558081244913 $440 -36.97486714020485 $434 $524 forward 7 unknown #
vertex $-1 $311 $525 #
straight-curve $-1 9.3097153134866417 15.060097762082652 12.67698010704645 1 0 0 I I #
coedge $-1 $518 $312 $315 $447 reversed $432 $-1 #
coedge $-1 $312 $518 $438 $522 forward $432 $-1 #
vertex $-1 $313 $526 #
straight-curve $-1 7.0948760045673431 26.300279040622453 66.204648542057299 0 0 1 I I #
straight-curve $-1 7.0948760045673431 -11.53739549271252 38.361881364340121 0 0.71933979245794832 -0.69465837861970381 I I #
edge $-1 $520 -30.143985249379224 $316 -7.0948760045673431 $442 $527 forward 7 unknown #
point $-1 7.0948760045673431 26.300279040622453 12.67698010704645 #
point $-1 7.0948760045673431 15.060097762082655 12.67698010704645 #
edge $-1 $528 1 $528 0 $319 $-1 forward 7 unknown #
vertex $-1 $320 $529 #
ellipse-curve $-1 13.680335788799312 15.697089901626999 2.0895721041708319 0 0.69465837861970381 0.71933979245794832 2.5 0 0 1 I I #
point $-1 16.180335788799312 20.680188401352574 7.2497215400887356 #
edge $-1 $530 1 $530 0 $323 $-1 forward 7 unknown #
vertex $-1 $324 $531 #
ellipse-curve $-1 23.558525465147255 15.697089901626999 2.0895721041708319 0 0.69465837861970381 0.71933979245794832 2.5 0 0 1 I I #
point $-1 26.058525465147255 20.680188401352574 7.2497215400887356 #
plane-surface $-1 65.370647297585975 0 0 -1 0 0 0 0 1 forward_v I I I I #
coedge $-1 $332 $330 $334 $463 reversed $221 $-1 #
edge $-1 $345 -12.67698010704645 $465 12.67698010704645 $344 $532 forward 7 unknown #
vertex $-1 $463 $533 #
straight-curve $-1 -65.370647297585975 -26.300279040622453 0 0 0 -1 I I #
edge $-1 $461 -26.300279040622453 $465 26.300279040622453 $459 $534 forward 7 unknown #
straight-curve $-1 0 -26.300279040622453 -12.67698010704645 -1 0 0 I I #
vertex $-1 $337 $535 #
straight-curve $-1 0 26.300279040622453 -12.67698010704645 1 0 0 I I #
point $-1 65.370647297585975 26.300279040622453 -12.67698010704645 #
point $-1 65.370647297585975 -26.300279040622453 -12.67698010704645 #
straight-curve $-1 -65.370647297585975 0 12.67698010704645 0 -1 0 I I #
point $-1 -65.370647297585975 26.300279040622453 12.67698010704645 #
point $-1 -65.370647297585975 -26.300279040622453 12.67698010704645 #
straight-curve $-1 65.370647297585975 -26.300279040622453 0 0 0 -1 I I #
straight-curve $-1 65.370647297585975 26.300279040622453 0 0 0 -1 I I #
plane-surface $-1 0 26.300279040622453 0 0 -1 0 0 0 -1 forward_v I I I I #
coedge $-1 $485 $484 $360 $477 forward $355 $-1 #
straight-curve $-1 -55.730958190227852 -26.300279040622453 1.9708348601778933 0 0 1 I I #
edge $-1 $480 -26.300279040622453 $478 26.300279040622453 $475 $536 forward 7 unknown #
vertex $-1 $361 $537 #
straight-curve $-1 -30.275401371953457 -26.300279040622453 0.39043622016992607 1 0 0 I I #
vertex $-1 $363 $538 #
straight-curve $-1 -30.275401371953457 26.300279040622453 0.39043622016992607 -1 0 0 I I #
point $-1 -55.730958190227852 26.300279040622453 0.39043622016992607 #
point $-1 -55.730958190227852 -26.300279040622453 0.39043622016992607 #
coedge $-1 $475 $367 $370 $487 forward $355 $-1 #
coedge $-1 $367 $475 $374 $489 reversed $355 $-1 #
straight-curve $-1 -65.370647297585975 0 7.4929032205416473 0 1 0 I I #
edge $-1 $372 -7.4929032205416473 $480 -0.39043622016992607 $370 $539 forward 7 unknown #
point $-1 -65.370647297585975 26.300279040622453 7.4929032205416473 #
edge $-1 $375 -7.4929032205416473 $478 -0.39043622016992607 $485 $540 forward 7 unknown #
point $-1 -65.370647297585975 -26.300279040622453 7.4929032205416473 #
straight-curve $-1 -55.730958190227852 26.300279040622453 1.9708348601778933 0 0 -1 I I #
edge $-1 $493 43.462502206875001 $496 45.639406034145608 $381 $541 forward 7 unknown #
vertex $-1 $492 $542 #
straight-curve $-1 59.182216058530884 -26.300279040622456 37.138558743149105 0 0 1 I I #
edge $-1 $496 -35.510088977441079 $392 -11.834165184738531 $391 $543 forward 7 unknown #
vertex $-1 $495 $544 #
straight-curve $-1 59.182216058530884 -26.30027904062247 8.9064719403151713 0 -0.49999998660252726 -0.86602541151947299 I I #
point $-1 59.182216058530884 -26.300279040622453 8.9064719403152015 #
point $-1 35.506292265828336 -24.123375213351846 12.67698010704645 #
straight-curve $-1 0 -26.300279040622453 12.67698010704645 1 0 0 I I #
vertex $-1 $398 $545 #
point $-1 43.270841920886198 -22.282691158406898 9.1005886441465709 #
vertex $-1 $402 $546 #
point $-1 53.417666403473007 -22.282691158406898 9.1005886441465709 #
edge $-1 $506 53.527668435010852 $509 64.382185568926332 $407 $547 forward 7 unknown #
vertex $-1 $421 $548 #
straight-curve $-1 -30.406817494527676 39.641570114705338 12.676980107046447 0 1 0 I I #
edge $-1 $509 9.4411314360608678 $418 32.490240680872752 $417 $549 forward 7 unknown #
vertex $-1 $508 $550 #
straight-curve $-1 -30.406817494527676 -11.53739549271252 38.361881364340121 0 -0.71933979245794832 0.69465837861970381 I I #
point $-1 -30.406817494527676 15.060097762082655 12.67698010704645 #
point $-1 -53.45592673933956 26.300279040622456 1.8224629731309676 #
straight-curve $-1 0 26.300279040622453 12.67698010704645 -1 0 0 I I #
vertex $-1 $424 $551 #
point $-1 -44.370466955107595 15.697089901626999 2.0895721041708319 #
vertex $-1 $428 $552 #
point $-1 -34.492277278759644 15.697089901626999 2.0895721041708319 #
coedge $-1 $443 $442 $435 $519 forward $432 $-1 #
edge $-1 $520 53.527668435010852 $523 64.382185568926332 $518 $553 forward 7 unknown #
vertex $-1 $447 $554 #
straight-curve $-1 30.143985249379224 39.641570114705338 12.676980107046447 0 1 0 I I #
edge $-1 $523 -20.834269935892582 $444 2.2148393089192986 $443 $555 forward 7 unknown #
vertex $-1 $522 $556 #
straight-curve $-1 30.143985249379224 -11.53739549271252 38.361881364340121 0 -0.71933979245794832 0.69465837861970381 I I #
point $-1 30.143985249379224 15.060097762082655 12.67698010704645 #
point $-1 7.0948760045673431 26.300279040622456 1.8224629731309676 #
straight-curve $-1 0 26.300279040622453 12.67698010704645 -1 0 0 I I #
vertex $-1 $450 $557 #
point $-1 16.180335788799312 15.697089901626999 2.0895721041708319 #
vertex $-1 $454 $558 #
point $-1 26.058525465147255 15.697089901626999 2.0895721041708319 #
straight-curve $-1 -65.370647297585975 26.300279040622453 0 0 0 -1 I I #
point $-1 -65.370647297585975 -26.300279040622453 -12.67698010704645 #
straight-curve $-1 -65.370647297585975 0 -12.67698010704645 0 1 0 I I #
point $-1 -65.370647297585975 26.300279040622453 -12.67698010704645 #
straight-curve $-1 -65.370647297585975 0 0.39043622016992607 0 -1 0 I I #
point $-1 -65.370647297585975 -26.300279040622453 0.39043622016992607 #
point $-1 -65.370647297585975 26.300279040622453 0.39043622016992607 #
straight-curve $-1 -65.370647297585975 26.300279040622453 0 0 0 -1 I I #
straight-curve $-1 -65.370647297585975 -26.300279040622453 0 0 0 -1 I I #
straight-curve $-1 59.182216058530884 -69.762781247497458 12.67698010704645 0 1 0 I I #
point $-1 59.182216058530884 -26.300279040622453 12.67698010704645 #
straight-curve $-1 23.672127081089805 -24.123375213351849 12.67698010704645 -1 0 0 I I #
point $-1 59.182216058530884 -24.123375213351846 12.67698010704645 #
point $-1 42.270841920886198 -21.416665746887425 8.6005886575440424 #
point $-1 52.417666403473007 -21.416665746887425 8.6005886575440424 #
straight-curve $-1 -30.406817494527676 26.300279040622453 66.204648542057299 0 0 -1 I I #
point $-1 -30.406817494527676 26.300279040622453 12.67698010704645 #
straight-curve $-1 -20.965686058466808 26.300279040622449 1.8224629731309747 -1 0 0 I I #
point $-1 -30.406817494527676 26.300279040622456 1.8224629731309676 #
point $-1 -46.870466955107595 13.960443955077739 0.29122262302596125 #
point $-1 -36.992277278759644 13.960443955077739 0.29122262302596125 #
straight-curve $-1 30.143985249379224 26.300279040622453 66.204648542057299 0 0 -1 I I #
point $-1 30.143985249379224 26.300279040622453 12.67698010704645 #
straight-curve $-1 9.3097153134866417 26.300279040622449 1.8224629731309747 -1 0 0 I I #
point $-1 30.143985249379224 26.300279040622456 1.8224629731309676 #
point $-1 13.680335788799312 13.960443955077739 0.29122262302596125 #
point $-1 23.558525465147255 13.960443955077739 0.29122262302596125 #
End-of-ACIS-data 