500 0 9 0           
7 Unknown 11 ACIS 5.0 NT 24 Thu Mar 25 21:58:25 1999 
-1 9.9999999999999995e-007 1e-010 
body $-1 $9 $-1 $10 #
body $-1 $11 $-1 $12 #
body $-1 $13 $-1 $14 #
body $-1 $15 $-1 $16 #
body $-1 $17 $-1 $18 #
body $-1 $19 $-1 $20 #
body $-1 $21 $-1 $22 #
body $-1 $23 $-1 $24 #
body $-1 $25 $-1 $26 #
lump $-1 $-1 $27 $0 #
transform $-1 1 0 0 0 1 0 0 0 1 68.28089236121707 44.998456304738227 21.70203573667953 1 rotate no_reflect no_shear #
lump $-1 $-1 $28 $1 #
transform $-1 1 0 0 0 1 0 0 0 1 68.28089236121707 44.998456304738227 21.70203573667953 1 rotate no_reflect no_shear #
lump $-1 $-1 $29 $2 #
transform $-1 1 0 0 0 1 0 0 0 1 68.28089236121707 44.998456304738227 21.70203573667953 1 rotate no_reflect no_shear #
lump $-1 $-1 $30 $3 #
transform $-1 1 0 0 0 1 0 0 0 1 68.28089236121707 44.998456304738227 21.70203573667953 1 rotate no_reflect no_shear #
lump $-1 $-1 $31 $4 #
transform $-1 1 0 0 0 1 0 0 0 1 68.28089236121707 44.998456304738227 21.70203573667953 1 rotate no_reflect no_shear #
lump $-1 $-1 $32 $5 #
transform $-1 1 0 0 0 1 0 0 0 1 68.28089236121707 44.998456304738227 21.70203573667953 1 rotate no_reflect no_shear #
lump $-1 $-1 $33 $6 #
transform $-1 1 0 0 0 1 0 0 0 1 68.28089236121707 44.998456304738227 21.70203573667953 1 rotate no_reflect no_shear #
lump $-1 $-1 $34 $7 #
transform $-1 1 0 0 0 1 0 0 0 1 68.28089236121707 44.998456304738227 21.70203573667953 1 rotate no_reflect no_shear #
lump $-1 $-1 $35 $8 #
transform $-1 1 0 0 0 1 0 0 0 1 68.28089236121707 44.998456304738227 21.70203573667953 1 rotate no_reflect no_shear #
shell $-1 $-1 $-1 $36 $-1 $9 #
shell $-1 $-1 $-1 $37 $-1 $11 #
shell $-1 $-1 $-1 $38 $-1 $13 #
shell $-1 $-1 $-1 $39 $-1 $15 #
shell $-1 $-1 $-1 $40 $-1 $17 #
shell $-1 $-1 $-1 $41 $-1 $19 #
shell $-1 $-1 $-1 $42 $-1 $21 #
shell $-1 $-1 $-1 $43 $-1 $23 #
shell $-1 $-1 $-1 $44 $-1 $25 #
face $-1 $45 $46 $27 $-1 $47 forward single #
face $-1 $48 $49 $28 $-1 $50 reversed single #
face $-1 $51 $52 $29 $-1 $53 reversed single #
face $-1 $54 $55 $30 $-1 $56 forward single #
face $-1 $57 $58 $31 $-1 $59 forward single #
face $-1 $60 $61 $32 $-1 $62 forward single #
face $-1 $63 $64 $33 $-1 $65 reversed single #
face $-1 $66 $67 $34 $-1 $68 forward single #
face $-1 $69 $70 $35 $-1 $71 forward single #
face $-1 $72 $73 $27 $-1 $74 reversed single #
loop $-1 $-1 $75 $36 #
plane-surface $-1 0 0 21.70203573667953 0 0 1 1 0 0 forward_v I I I I #
face $-1 $76 $77 $28 $-1 $78 reversed single #
loop $-1 $-1 $79 $37 #
plane-surface $-1 -32.668677622613707 -33.331971213874908 0 1 0 0 0 0 -1 forward_v I I I I #
face $-1 $80 $81 $29 $-1 $82 reversed single #
loop $-1 $-1 $83 $38 #
plane-surface $-1 -180.1457585991223 -21.665486123011583 89.614793967898109 0 1 0 -0.81915205242281985 0 0.57357642473473569 forward_v I I I I #
face $-1 $84 $85 $30 $-1 $86 forward single #
loop $-1 $87 $88 $39 #
cone-surface $-1 -64.154998350705583 -19.263696194313329 16.158522177246926 0.81915205242281985 0 -0.57357642473473569 0.28678821236736785 0 0.40957602621140993 1 I I 0 1 0.5 forward I I I I #
face $-1 $89 $90 $31 $-1 $91 forward single #
loop $-1 $92 $93 $40 #
cone-surface $-1 -64.154998350705583 -15.661011301265944 16.158522177246926 0.81915205242281985 0 -0.57357642473473569 0.28678821236736785 0 0.40957602621140993 1 I I 0 1 0.5 forward I I I I #
face $-1 $94 $95 $32 $-1 $96 forward single #
loop $-1 $97 $98 $41 #
cone-surface $-1 -64.154998350705583 -12.058326408218562 16.158522177246926 0.81915205242281985 0 -0.57357642473473569 0.28678821236736785 0 0.40957602621140993 1 I I 0 1 0.5 forward I I I I #
face $-1 $99 $100 $33 $-1 $101 reversed single #
loop $-1 $-1 $102 $42 #
plane-surface $-1 105.13136470648655 -2.7527179354263627 198.95564749076257 0 -1 0 -0.82903758062907751 0 -0.55919289150049634 forward_v I I I I #
face $-1 $103 $104 $34 $-1 $105 forward single #
loop $-1 $106 $107 $43 #
cone-surface $-1 60.191650012356597 -16.261838069415809 12.886805867568706 -0.82903758062907751 0 -0.55919289150049634 1.3979822287512409 0 -2.0725939515726939 1 I I 0 1 2.5 forward I I I I #
face $-1 $108 $109 $35 $-1 $110 forward single #
loop $-1 $111 $112 $44 #
cone-surface $-1 60.191650012356597 -8.1563659890221416 12.886805867568706 -0.82903758062907751 0 -0.55919289150049634 1.3979822287512409 0 -2.0725939515726939 1 I I 0 1 2.5 forward I I I I #
face $-1 $113 $114 $27 $-1 $115 reversed single #
loop $-1 $-1 $116 $45 #
plane-surface $-1 0 0 -21.70203573667953 0 0 1 1 0 0 forward_v I I I I #
coedge $-1 $117 $118 $119 $120 forward $46 $-1 #
face $-1 $121 $122 $28 $-1 $123 reversed single #
loop $-1 $-1 $124 $48 #
plane-surface $-1 -28.772749255235858 -21.66548612301159 0 0 -1 0 0 0 -1 forward_v I I I I #
coedge $-1 $125 $126 $127 $128 forward $49 $-1 #
face $-1 $129 $130 $29 $-1 $131 reversed single #
loop $-1 $-1 $132 $51 #
plane-surface $-1 -68.280892361217099 -15.661011301265944 11.28617373140969 -0.81915205242281985 0 0.57357642473473569 0.57357642473473569 0 0.81915205242281985 forward_v I I I I #
coedge $-1 $133 $134 $135 $136 reversed $52 $-1 #
face $-1 $-1 $137 $30 $-1 $138 forward single #
loop $-1 $139 $140 $54 #
cone-surface $-1 -63.470948763546772 -19.263696194313329 15.679545514265559 0.81915205242281985 0 -0.57357642473473569 0.14339410618368392 0 0.20478801310570496 1 I I -0.70710678118654746 0.70710678118654746 0.25 forward I I I I #
loop $-1 $-1 $141 $39 #
coedge $-1 $88 $88 $142 $143 reversed $55 $-1 #
face $-1 $-1 $144 $31 $-1 $145 forward single #
loop $-1 $146 $147 $57 #
cone-surface $-1 -63.470948763546772 -15.661011301265944 15.679545514265559 0.81915205242281985 0 -0.57357642473473569 0.14339410618368392 0 0.20478801310570496 1 I I -0.70710678118654746 0.70710678118654746 0.25 forward I I I I #
loop $-1 $-1 $148 $40 #
coedge $-1 $93 $93 $149 $150 reversed $58 $-1 #
face $-1 $-1 $151 $32 $-1 $152 forward single #
loop $-1 $153 $154 $60 #
cone-surface $-1 -63.470948763546772 -12.058326408218562 15.679545514265559 0.81915205242281985 0 -0.57357642473473569 0.14339410618368392 0 0.20478801310570496 1 I I -0.70710678118654746 0.70710678118654746 0.25 forward I I I I #
loop $-1 $-1 $155 $41 #
coedge $-1 $98 $98 $156 $157 reversed $61 $-1 #
face $-1 $158 $159 $33 $-1 $160 reversed single #
loop $-1 $-1 $161 $63 #
plane-surface $-1 -8.0834869061891652 -12.209102029218975 122.59126822335632 0.82903758062907751 0 0.55919289150049634 0.55919289150049634 0 -0.82903758062907751 forward_v I I I I #
coedge $-1 $162 $163 $164 $165 reversed $64 $-1 #
face $-1 $-1 $166 $34 $-1 $167 forward single #
loop $-1 $168 $169 $66 #
cone-surface $-1 55.222978096163786 -16.261838069415809 9.535394447081746 -0.82903758062907751 0 -0.55919289150049634 0.69899111437562045 0 -1.0362969757863469 1 I I -0.70710678118654746 0.70710678118654746 1.25 forward I I I I #
loop $-1 $-1 $170 $43 #
coedge $-1 $107 $107 $171 $172 reversed $67 $-1 #
face $-1 $-1 $173 $35 $-1 $174 forward single #
loop $-1 $175 $176 $69 #
cone-surface $-1 55.222978096163786 -8.1563659890221416 9.535394447081746 -0.82903758062907751 0 -0.55919289150049634 0.69899111437562045 0 -1.0362969757863469 1 I I -0.70710678118654746 0.70710678118654746 1.25 forward I I I I #
loop $-1 $-1 $177 $44 #
coedge $-1 $112 $112 $178 $179 reversed $70 $-1 #
face $-1 $180 $181 $27 $-1 $182 reversed single #
loop $-1 $-1 $183 $72 #
plane-surface $-1 0 -44.998456304738227 0 0 1 0 0 0 1 forward_v I I I I #
coedge $-1 $184 $185 $186 $187 forward $73 $-1 #
coedge $-1 $188 $75 $189 $190 forward $46 $-1 #
coedge $-1 $75 $188 $191 $192 forward $46 $-1 #
coedge $-1 $193 $194 $75 $120 reversed $195 $-1 #
edge $-1 $196 -44.998456304738227 $197 44.998456304738227 $119 $198 forward 7 unknown #
face $-1 $199 $200 $28 $-1 $201 forward single #
loop $-1 $-1 $202 $76 #
plane-surface $-1 -24.87682088785801 -33.331971213874908 0 -1 0 0 0 0 1 forward_v I I I I #
coedge $-1 $203 $204 $205 $206 forward $77 $-1 #
coedge $-1 $207 $79 $208 $209 reversed $49 $-1 #
coedge $-1 $79 $207 $210 $211 reversed $49 $-1 #
coedge $-1 $204 $203 $79 $128 reversed $77 $-1 #
edge $-1 $212 -21.70203573667953 $213 21.70203573667953 $127 $214 forward 7 unknown #
face $-1 $215 $216 $29 $-1 $217 reversed single #
loop $-1 $-1 $218 $80 #
plane-surface $-1 -180.1457585991223 -9.6565364795203035 89.614793967898109 0 -1 0 0.81915205242281985 0 -0.57357642473473569 forward_v I I I I #
coedge $-1 $219 $220 $221 $222 reversed $81 $-1 #
coedge $-1 $134 $83 $223 $224 reversed $52 $-1 #
coedge $-1 $83 $133 $219 $225 reversed $52 $-1 #
coedge $-1 $221 $226 $83 $136 forward $227 $-1 #
edge $-1 $228 21.791986938344081 $229 29.085251811260846 $135 $230 forward 7 unknown #
loop $-1 $-1 $142 $84 #
plane-surface $-1 -68.280892361217099 -15.661011301265944 11.28617373140969 -0.81915205242281985 0 0.57357642473473569 0.57357642473473569 0 0.81915205242281985 forward_v I I I I #
loop $-1 $-1 $231 $54 #
coedge $-1 $140 $140 $141 $232 reversed $85 $-1 #
coedge $-1 $141 $141 $140 $232 forward $87 $-1 #
coedge $-1 $142 $142 $88 $143 forward $137 $-1 #
edge $-1 $233 0 $233 6.2831853071796004 $142 $234 forward 7 unknown #
loop $-1 $-1 $149 $89 #
plane-surface $-1 -68.280892361217099 -15.661011301265944 11.28617373140969 -0.81915205242281985 0 0.57357642473473569 0.57357642473473569 0 0.81915205242281985 forward_v I I I I #
loop $-1 $-1 $235 $57 #
coedge $-1 $147 $147 $148 $236 reversed $90 $-1 #
coedge $-1 $148 $148 $147 $236 forward $92 $-1 #
coedge $-1 $149 $149 $93 $150 forward $144 $-1 #
edge $-1 $237 0 $237 6.2831853071796004 $149 $238 forward 7 unknown #
loop $-1 $-1 $156 $94 #
plane-surface $-1 -68.280892361217099 -15.661011301265944 11.28617373140969 -0.81915205242281985 0 0.57357642473473569 0.57357642473473569 0 0.81915205242281985 forward_v I I I I #
loop $-1 $-1 $239 $60 #
coedge $-1 $154 $154 $155 $240 reversed $95 $-1 #
coedge $-1 $155 $155 $154 $240 forward $97 $-1 #
coedge $-1 $156 $156 $98 $157 forward $151 $-1 #
edge $-1 $241 0 $241 6.2831853071796004 $156 $242 forward 7 unknown #
face $-1 $243 $244 $33 $-1 $245 forward single #
loop $-1 $-1 $246 $99 #
plane-surface $-1 105.13136470648655 -21.66548612301159 198.95564749076257 0 1 0 0.82903758062907751 0 0.55919289150049634 forward_v I I I I #
coedge $-1 $247 $248 $249 $250 reversed $100 $-1 #
coedge $-1 $163 $102 $251 $252 reversed $64 $-1 #
coedge $-1 $102 $162 $247 $253 reversed $64 $-1 #
coedge $-1 $249 $254 $102 $165 forward $244 $-1 #
edge $-1 $255 -15.715210007973795 $256 -7.4014751910657708 $164 $257 forward 7 unknown #
loop $-1 $-1 $171 $103 #
plane-surface $-1 -8.0834869061891652 -12.209102029218975 122.59126822335632 0.82903758062907751 0 0.55919289150049634 0.55919289150049634 0 -0.82903758062907751 forward_v I I I I #
loop $-1 $-1 $258 $66 #
coedge $-1 $169 $169 $170 $259 reversed $104 $-1 #
coedge $-1 $170 $170 $169 $259 forward $106 $-1 #
coedge $-1 $171 $171 $107 $172 forward $166 $-1 #
edge $-1 $260 0 $260 6.2831853071796004 $171 $261 forward 7 unknown #
loop $-1 $-1 $178 $108 #
plane-surface $-1 -8.0834869061891652 -12.209102029218975 122.59126822335632 0.82903758062907751 0 0.55919289150049634 0.55919289150049634 0 -0.82903758062907751 forward_v I I I I #
loop $-1 $-1 $262 $69 #
coedge $-1 $176 $176 $177 $263 reversed $109 $-1 #
coedge $-1 $177 $177 $176 $263 forward $111 $-1 #
coedge $-1 $178 $178 $112 $179 forward $173 $-1 #
edge $-1 $264 0 $264 6.2831853071796004 $178 $265 forward 7 unknown #
face $-1 $266 $267 $27 $-1 $268 reversed single #
loop $-1 $-1 $269 $113 #
plane-surface $-1 -68.28089236121707 0 0 1 0 0 0 0 -1 forward_v I I I I #
coedge $-1 $270 $191 $271 $272 forward $114 $-1 #
coedge $-1 $273 $116 $270 $274 forward $73 $-1 #
coedge $-1 $116 $273 $275 $276 forward $73 $-1 #
coedge $-1 $194 $193 $116 $187 reversed $195 $-1 #
edge $-1 $277 -44.998456304738227 $278 44.998456304738227 $186 $279 forward 7 unknown #
coedge $-1 $118 $117 $280 $281 forward $46 $-1 #
coedge $-1 $282 $283 $117 $190 reversed $267 $-1 #
edge $-1 $197 -68.28089236121707 $284 68.28089236121707 $189 $285 forward 7 unknown #
coedge $-1 $183 $286 $118 $192 reversed $114 $-1 #
edge $-1 $287 -68.28089236121707 $196 68.28089236121707 $191 $288 forward 7 unknown #
coedge $-1 $186 $119 $286 $289 forward $195 $-1 #
coedge $-1 $119 $186 $282 $290 reversed $195 $-1 #
loop $-1 $-1 $193 $266 #
vertex $-1 $120 $291 #
vertex $-1 $120 $292 #
straight-curve $-1 68.28089236121707 0 21.70203573667953 0 1 0 I I #
face $-1 $293 $294 $28 $-1 $295 reversed single #
loop $-1 $-1 $296 $121 #
plane-surface $-1 0 0 21.70203573667953 0 0 1 1 0 0 forward_v I I I I #
coedge $-1 $297 $298 $299 $300 reversed $122 $-1 #
coedge $-1 $127 $124 $301 $302 reversed $77 $-1 #
coedge $-1 $124 $127 $303 $304 reversed $77 $-1 #
coedge $-1 $298 $297 $124 $206 reversed $122 $-1 #
edge $-1 $305 -21.70203573667953 $306 21.70203573667953 $205 $307 forward 7 unknown #
coedge $-1 $126 $125 $308 $309 reversed $49 $-1 #
coedge $-1 $301 $310 $125 $209 forward $294 $-1 #
edge $-1 $311 -28.332470697800773 $213 -4.9995005160741357 $208 $312 forward 7 unknown #
coedge $-1 $313 $303 $126 $211 forward $200 $-1 #
edge $-1 $212 4.9995005160741357 $314 28.332470697800773 $210 $315 forward 7 unknown #
vertex $-1 $211 $316 #
vertex $-1 $209 $317 #
straight-curve $-1 -32.668677622613707 -21.66548612301159 0 0 0 -1 I I #
face $-1 $-1 $227 $29 $-1 $318 forward single #
loop $-1 $-1 $319 $129 #
plane-surface $-1 -68.28089236121707 0 0 1 0 0 0 0 -1 forward_v I I I I #
coedge $-1 $320 $321 $322 $323 reversed $130 $-1 #
coedge $-1 $324 $132 $134 $225 forward $81 $-1 #
coedge $-1 $132 $324 $320 $325 forward $81 $-1 #
coedge $-1 $322 $135 $132 $222 forward $227 $-1 #
edge $-1 $229 -13.834980472378611 $326 -1.8260308288873315 $221 $327 forward 7 unknown #
coedge $-1 $328 $329 $133 $224 forward $216 $-1 #
edge $-1 $330 -33.521223252539322 $228 -23.105361247269524 $223 $331 forward 7 unknown #
edge $-1 $229 -12.715419529820709 $330 -4.9769468549031306e-014 $134 $332 forward 7 unknown #
coedge $-1 $135 $322 $328 $333 forward $227 $-1 #
loop $-1 $-1 $322 $215 #
vertex $-1 $224 $334 #
vertex $-1 $136 $335 #
straight-curve $-1 -90.072879299561151 -21.665486123011583 21.702035736679527 1 0 0 I I #
coedge $-1 $231 $231 $-1 $336 reversed $139 $-1 #
edge $-1 $337 0 $337 6.2831853071796004 $140 $338 forward 7 unknown #
vertex $-1 $143 $339 #
ellipse-curve $-1 -64.634259924758695 -19.263696194313329 16.494104734044619 -0.81915205242281985 0 0.57357642473473569 0.28678821236736785 0 0.40957602621140993 1 I I #
coedge $-1 $235 $235 $-1 $340 reversed $146 $-1 #
edge $-1 $341 0 $341 6.2831853071796004 $147 $342 forward 7 unknown #
vertex $-1 $150 $343 #
ellipse-curve $-1 -64.634259924758695 -15.661011301265944 16.494104734044619 -0.81915205242281985 0 0.57357642473473569 0.28678821236736785 0 0.40957602621140993 1 I I #
coedge $-1 $239 $239 $-1 $344 reversed $153 $-1 #
edge $-1 $345 0 $345 6.2831853071796004 $154 $346 forward 7 unknown #
vertex $-1 $157 $347 #
ellipse-curve $-1 -64.634259924758695 -12.058326408218562 16.494104734044619 -0.81915205242281985 0 0.57357642473473569 0.28678821236736785 0 0.40957602621140993 1 I I #
face $-1 $-1 $348 $33 $-1 $349 reversed single #
loop $-1 $-1 $164 $158 #
plane-surface $-1 0 0 21.70203573667953 0 0 1 1 0 0 forward_v I I I I #
coedge $-1 $350 $351 $352 $353 reversed $159 $-1 #
coedge $-1 $354 $161 $163 $253 forward $100 $-1 #
coedge $-1 $161 $354 $350 $355 forward $100 $-1 #
coedge $-1 $352 $164 $161 $250 forward $244 $-1 #
edge $-1 $256 -3.351833079183125 $356 15.560935108402102 $249 $357 forward 7 unknown #
coedge $-1 $358 $359 $162 $252 forward $348 $-1 #
edge $-1 $360 -90.101407134700665 $255 -77.775788008701753 $251 $361 forward 7 unknown #
edge $-1 $256 121.69440185102536 $360 136.56178472243414 $163 $362 forward 7 unknown #
coedge $-1 $164 $352 $358 $363 forward $244 $-1 #
vertex $-1 $252 $364 #
vertex $-1 $165 $365 #
straight-curve $-1 52.565682353243275 -2.7527179354263627 21.702035736679534 -1 0 0 I I #
coedge $-1 $258 $258 $-1 $366 reversed $168 $-1 #
edge $-1 $367 0 $367 6.2831853071796004 $169 $368 forward 7 unknown #
vertex $-1 $172 $369 #
ellipse-curve $-1 64.124024952763065 -16.261838069415809 15.539226173680053 0.82903758062907751 0 0.55919289150049634 1.3979822287512409 0 -2.0725939515726939 1 I I #
coedge $-1 $262 $262 $-1 $370 reversed $175 $-1 #
edge $-1 $371 0 $371 6.2831853071796004 $176 $372 forward 7 unknown #
vertex $-1 $179 $373 #
ellipse-curve $-1 64.124024952763065 -8.1563659890221416 15.539226173680053 0.82903758062907751 0 0.55919289150049634 1.3979822287512409 0 -2.0725939515726939 1 I I #
face $-1 $-1 $195 $27 $-1 $374 reversed single #
loop $-1 $-1 $282 $180 #
plane-surface $-1 0 44.998456304738227 0 0 -1 0 0 0 -1 forward_v I I I I #
coedge $-1 $375 $280 $283 $376 forward $181 $-1 #
coedge $-1 $286 $183 $184 $274 reversed $114 $-1 #
coedge $-1 $280 $375 $183 $272 reversed $181 $-1 #
edge $-1 $287 -21.70203573667953 $377 21.70203573667953 $271 $378 forward 7 unknown #
coedge $-1 $185 $184 $375 $379 forward $73 $-1 #
edge $-1 $278 -68.28089236121707 $377 68.28089236121707 $270 $380 forward 7 unknown #
coedge $-1 $283 $282 $185 $276 reversed $267 $-1 #
edge $-1 $381 -68.28089236121707 $277 68.28089236121707 $275 $382 forward 7 unknown #
vertex $-1 $187 $383 #
vertex $-1 $289 $384 #
straight-curve $-1 68.28089236121707 0 -21.70203573667953 0 -1 0 I I #
coedge $-1 $269 $271 $188 $281 reversed $181 $-1 #
edge $-1 $284 -44.998456304738227 $287 44.998456304738227 $280 $385 forward 7 unknown #
coedge $-1 $275 $189 $194 $290 forward $267 $-1 #
coedge $-1 $189 $275 $269 $376 reversed $267 $-1 #
vertex $-1 $190 $386 #
straight-curve $-1 0 44.998456304738227 21.70203573667953 -1 0 0 I I #
coedge $-1 $191 $270 $193 $289 reversed $114 $-1 #
vertex $-1 $281 $387 #
straight-curve $-1 0 -44.998456304738227 21.70203573667953 1 0 0 I I #
edge $-1 $196 -21.70203573667953 $278 21.70203573667953 $193 $388 forward 7 unknown #
edge $-1 $197 -21.70203573667953 $277 21.70203573667953 $194 $389 forward 7 unknown #
point $-1 68.28089236121707 -44.998456304738227 21.70203573667953 #
point $-1 68.28089236121707 44.998456304738227 21.70203573667953 #
face $-1 $-1 $390 $28 $-1 $391 reversed single #
loop $-1 $-1 $392 $199 #
plane-surface $-1 0 0 -21.70203573667953 0 0 1 1 0 0 forward_v I I I I #
coedge $-1 $303 $313 $298 $393 forward $200 $-1 #
coedge $-1 $205 $202 $392 $394 reversed $122 $-1 #
coedge $-1 $202 $205 $296 $393 reversed $122 $-1 #
coedge $-1 $395 $396 $202 $300 forward $390 $-1 #
edge $-1 $397 -21.70203573667953 $398 21.70203573667953 $299 $399 forward 7 unknown #
coedge $-1 $392 $208 $203 $302 forward $294 $-1 #
edge $-1 $213 -18.282302994995778 $306 -10.490446260240081 $301 $400 forward 7 unknown #
coedge $-1 $210 $296 $204 $304 forward $200 $-1 #
edge $-1 $305 10.490446260240081 $212 18.282302994995778 $303 $401 forward 7 unknown #
vertex $-1 $304 $402 #
vertex $-1 $302 $403 #
straight-curve $-1 -24.87682088785801 -21.66548612301159 0 0 0 -1 I I #
coedge $-1 $396 $395 $207 $309 forward $390 $-1 #
edge $-1 $314 -21.70203573667953 $311 21.70203573667953 $308 $404 forward 7 unknown #
coedge $-1 $208 $392 $396 $405 forward $294 $-1 #
vertex $-1 $209 $406 #
straight-curve $-1 -32.668677622613707 -16.665985606937454 -21.70203573667953 0 1 0 I I #
coedge $-1 $296 $210 $395 $407 forward $200 $-1 #
vertex $-1 $407 $408 #
straight-curve $-1 -32.668677622613707 -16.665985606937454 21.70203573667953 0 -1 0 I I #
point $-1 -32.668677622613707 -21.66548612301159 21.70203573667953 #
point $-1 -32.668677622613707 -21.66548612301159 -21.70203573667953 #
plane-surface $-1 0 0 21.70203573667953 0 0 1 1 0 0 forward_v I I I I #
coedge $-1 $329 $328 $321 $409 forward $216 $-1 #
coedge $-1 $321 $218 $220 $325 reversed $130 $-1 #
coedge $-1 $218 $320 $319 $409 reversed $130 $-1 #
coedge $-1 $226 $221 $218 $323 forward $227 $-1 #
edge $-1 $326 -29.085251811260846 $410 -21.791986938344081 $322 $411 forward 7 unknown #
coedge $-1 $220 $219 $329 $412 reversed $81 $-1 #
edge $-1 $413 4.9769468549031306e-014 $326 12.715419529820709 $320 $414 forward 7 unknown #
vertex $-1 $222 $415 #
straight-curve $-1 -60.987627488300312 -7.830505650632972 21.702035736679527 0 1 0 I I #
coedge $-1 $319 $223 $226 $333 reversed $216 $-1 #
coedge $-1 $223 $319 $324 $412 forward $216 $-1 #
vertex $-1 $224 $416 #
straight-curve $-1 -68.28089236121707 -21.665486123011583 44.807396983949054 0 0 1 I I #
straight-curve $-1 -68.280892361217099 -21.665486123011583 11.28617373140969 -0.57357642473473569 0 -0.81915205242281985 I I #
edge $-1 $410 9.6565364795203035 $228 21.665486123011583 $328 $417 forward 7 unknown #
point $-1 -68.28089236121707 -21.665486123011583 21.70203573667953 #
point $-1 -60.987627488300305 -21.665486123011583 21.70203573667953 #
edge $-1 $418 1 $418 0 $231 $-1 forward 7 unknown #
vertex $-1 $232 $419 #
ellipse-curve $-1 -63.675736776652478 -19.263696194313329 15.822939620449244 -0.81915205242281985 0 0.57357642473473569 0.28678821236736785 0 0.40957602621140993 1 I I #
point $-1 -64.347471712391311 -19.263696194313329 16.903680760256016 #
edge $-1 $420 1 $420 0 $235 $-1 forward 7 unknown #
vertex $-1 $236 $421 #
ellipse-curve $-1 -63.675736776652478 -15.661011301265944 15.822939620449244 -0.81915205242281985 0 0.57357642473473569 0.28678821236736785 0 0.40957602621140993 1 I I #
point $-1 -64.347471712391311 -15.661011301265944 16.903680760256016 #
edge $-1 $422 1 $422 0 $239 $-1 forward 7 unknown #
vertex $-1 $240 $423 #
ellipse-curve $-1 -63.675736776652478 -12.058326408218562 15.822939620449244 -0.81915205242281985 0 0.57357642473473569 0.28678821236736785 0 0.40957602621140993 1 I I #
point $-1 -64.347471712391311 -12.058326408218562 16.903680760256016 #
loop $-1 $-1 $251 $243 #
plane-surface $-1 68.28089236121707 0 0 -1 0 0 0 0 1 forward_v I I I I #
coedge $-1 $351 $246 $248 $355 reversed $159 $-1 #
coedge $-1 $246 $350 $424 $425 reversed $159 $-1 #
coedge $-1 $254 $249 $246 $353 forward $244 $-1 #
edge $-1 $356 7.4014751910657708 $426 15.715210007973795 $352 $427 forward 7 unknown #
coedge $-1 $248 $247 $359 $428 reversed $100 $-1 #
edge $-1 $429 -136.56178472243414 $356 -121.69440185102536 $350 $430 forward 7 unknown #
vertex $-1 $250 $431 #
straight-curve $-1 59.967157544309046 -6.1045510146094877 21.702035736679534 0 -1 0 I I #
coedge $-1 $424 $251 $254 $363 reversed $348 $-1 #
coedge $-1 $251 $424 $354 $428 forward $348 $-1 #
vertex $-1 $252 $432 #
straight-curve $-1 68.28089236121707 -2.7527179354263627 99.477823745381286 0 0 1 I I #
straight-curve $-1 -8.0834869061891652 -2.7527179354263627 122.59126822335632 0.55919289150049634 0 -0.82903758062907751 I I #
edge $-1 $426 -21.66548612301159 $255 -2.7527179354263627 $358 $433 forward 7 unknown #
point $-1 68.28089236121707 -2.7527179354263627 21.70203573667953 #
point $-1 59.967157544309046 -2.7527179354263627 21.702035736679534 #
edge $-1 $434 1 $434 0 $258 $-1 forward 7 unknown #
vertex $-1 $259 $435 #
ellipse-curve $-1 56.259275071950135 -16.261838069415809 10.234385561457366 0.82903758062907751 0 0.55919289150049634 1.3979822287512409 0 -2.0725939515726939 1 I I #
point $-1 65.522007181514297 -16.261838069415809 13.466632222107352 #
edge $-1 $436 1 $436 0 $262 $-1 forward 7 unknown #
vertex $-1 $263 $437 #
ellipse-curve $-1 56.259275071950135 -8.1563659890221416 10.234385561457366 0.82903758062907751 0 0.55919289150049634 1.3979822287512409 0 -2.0725939515726939 1 I I #
point $-1 65.522007181514297 -8.1563659890221416 13.466632222107352 #
plane-surface $-1 68.28089236121707 0 0 -1 0 0 0 0 1 forward_v I I I I #
coedge $-1 $271 $269 $273 $379 reversed $181 $-1 #
edge $-1 $284 -21.70203573667953 $381 21.70203573667953 $283 $438 forward 7 unknown #
vertex $-1 $379 $439 #
straight-curve $-1 -68.28089236121707 -44.998456304738227 0 0 0 -1 I I #
edge $-1 $377 -44.998456304738227 $381 44.998456304738227 $375 $440 forward 7 unknown #
straight-curve $-1 0 -44.998456304738227 -21.70203573667953 -1 0 0 I I #
vertex $-1 $276 $441 #
straight-curve $-1 0 44.998456304738227 -21.70203573667953 1 0 0 I I #
point $-1 68.28089236121707 44.998456304738227 -21.70203573667953 #
point $-1 68.28089236121707 -44.998456304738227 -21.70203573667953 #
straight-curve $-1 -68.28089236121707 0 21.70203573667953 0 -1 0 I I #
point $-1 -68.28089236121707 44.998456304738227 21.70203573667953 #
point $-1 -68.28089236121707 -44.998456304738227 21.70203573667953 #
straight-curve $-1 68.28089236121707 -44.998456304738227 0 0 0 -1 I I #
straight-curve $-1 68.28089236121707 44.998456304738227 0 0 0 -1 I I #
loop $-1 $-1 $299 $293 #
plane-surface $-1 0 -44.998456304738227 0 0 1 0 0 0 1 forward_v I I I I #
coedge $-1 $310 $301 $297 $394 forward $294 $-1 #
edge $-1 $398 -28.332470697800773 $305 -4.9995005160741357 $296 $442 forward 7 unknown #
edge $-1 $306 4.9995005160741357 $397 28.332470697800773 $392 $443 forward 7 unknown #
coedge $-1 $308 $299 $313 $407 reversed $390 $-1 #
coedge $-1 $299 $308 $310 $405 reversed $390 $-1 #
vertex $-1 $405 $444 #
vertex $-1 $300 $445 #
straight-curve $-1 -24.87682088785801 -44.998456304738227 0 0 0 1 I I #
straight-curve $-1 -14.386374627617929 -21.66548612301159 -21.70203573667953 1 0 0 I I #
straight-curve $-1 -14.386374627617929 -21.66548612301159 21.70203573667953 -1 0 0 I I #
point $-1 -24.87682088785801 -21.66548612301159 21.70203573667953 #
point $-1 -24.87682088785801 -21.66548612301159 -21.70203573667953 #
straight-curve $-1 -32.668677622613707 -44.998456304738227 0 0 0 -1 I I #
edge $-1 $397 24.87682088785801 $311 32.668677622613707 $396 $446 forward 7 unknown #
point $-1 -32.668677622613707 -44.998456304738227 -21.70203573667953 #
edge $-1 $314 -32.668677622613707 $398 -24.87682088785801 $395 $447 forward 7 unknown #
point $-1 -32.668677622613707 -44.998456304738227 21.70203573667953 #
edge $-1 $410 23.105361247269524 $413 33.521223252539322 $319 $448 forward 7 unknown #
vertex $-1 $333 $449 #
straight-curve $-1 -90.072879299561151 -9.6565364795203035 21.702035736679527 -1 0 0 I I #
edge $-1 $413 1.8260308288873315 $330 13.834980472378611 $329 $450 forward 7 unknown #
vertex $-1 $412 $451 #
straight-curve $-1 -68.280892361217099 -9.6565364795203035 11.28617373140969 0.57357642473473569 0 0.81915205242281985 I I #
point $-1 -60.987627488300305 -9.6565364795203035 21.70203573667953 #
point $-1 -68.28089236121707 -21.665486123011583 11.286173731409731 #
straight-curve $-1 -68.28089236121707 0 21.70203573667953 0 -1 0 I I #
vertex $-1 $336 $452 #
point $-1 -63.388948564285108 -19.263696194313329 16.232515646660651 #
vertex $-1 $340 $453 #
point $-1 -63.388948564285108 -15.661011301265944 16.232515646660651 #
vertex $-1 $344 $454 #
point $-1 -63.388948564285108 -12.058326408218562 16.232515646660651 #
coedge $-1 $359 $358 $351 $425 forward $348 $-1 #
edge $-1 $426 77.775788008701753 $429 90.101407134700665 $424 $455 forward 7 unknown #
vertex $-1 $363 $456 #
straight-curve $-1 52.565682353243275 -21.66548612301159 21.702035736679534 1 0 0 I I #
edge $-1 $429 -15.560935108402102 $360 3.351833079183125 $359 $457 forward 7 unknown #
vertex $-1 $428 $458 #
straight-curve $-1 -8.0834869061891652 -21.66548612301159 122.59126822335632 -0.55919289150049634 0 0.82903758062907751 I I #
point $-1 59.967157544309046 -21.66548612301159 21.702035736679534 #
point $-1 68.28089236121707 -2.7527179354263627 9.3764166106806215 #
straight-curve $-1 68.28089236121707 0 21.70203573667953 0 1 0 I I #
vertex $-1 $366 $459 #
point $-1 57.657257300701374 -16.261838069415809 8.1617916098846734 #
vertex $-1 $370 $460 #
point $-1 57.657257300701374 -8.1563659890221416 8.1617916098846734 #
straight-curve $-1 -68.28089236121707 44.998456304738227 0 0 0 -1 I I #
point $-1 -68.28089236121707 -44.998456304738227 -21.70203573667953 #
straight-curve $-1 -68.28089236121707 0 -21.70203573667953 0 1 0 I I #
point $-1 -68.28089236121707 44.998456304738227 -21.70203573667953 #
straight-curve $-1 -24.87682088785801 -16.665985606937454 21.70203573667953 0 1 0 I I #
straight-curve $-1 -24.87682088785801 -16.665985606937454 -21.70203573667953 0 -1 0 I I #
point $-1 -24.87682088785801 -44.998456304738227 -21.70203573667953 #
point $-1 -24.87682088785801 -44.998456304738227 21.70203573667953 #
straight-curve $-1 0 -44.998456304738227 -21.70203573667953 -1 0 0 I I #
straight-curve $-1 0 -44.998456304738227 21.70203573667953 1 0 0 I I #
straight-curve $-1 -68.28089236121707 -9.6565364795203035 44.807396983949054 0 0 -1 I I #
point $-1 -68.28089236121707 -9.6565364795203035 21.70203573667953 #
straight-curve $-1 -68.28089236121707 -7.830505650632972 11.28617373140974 0 -1 0 I I #
point $-1 -68.28089236121707 -9.6565364795203035 11.286173731409731 #
point $-1 -63.266160750441067 -19.263696194313329 15.536151408081874 #
point $-1 -63.266160750441067 -15.661011301265944 15.536151408081874 #
point $-1 -63.266160750441067 -12.058326408218562 15.536151408081874 #
straight-curve $-1 68.28089236121707 -21.66548612301159 99.477823745381286 0 0 -1 I I #
point $-1 68.28089236121707 -21.66548612301159 21.70203573667953 #
straight-curve $-1 68.28089236121707 -6.1045510146094877 9.3764166106806215 0 1 0 I I #
point $-1 68.28089236121707 -21.66548612301159 9.3764166106806215 #
point $-1 54.186681120377436 -16.261838069415809 8.8364033327061264 #
point $-1 54.186681120377436 -8.1563659890221416 8.8364033327061264 #
End-of-ACIS-data 