500 0 8 0           
7 Unknown 11 ACIS 5.0 NT 24 Fri Mar 26 01:13:40 1999 
-1 9.9999999999999995e-007 1e-010 
body $-1 $8 $-1 $9 #
body $-1 $10 $-1 $11 #
body $-1 $12 $-1 $13 #
body $-1 $14 $-1 $15 #
body $-1 $16 $-1 $17 #
body $-1 $18 $-1 $19 #
body $-1 $20 $-1 $21 #
body $-1 $22 $-1 $23 #
lump $-1 $-1 $24 $0 #
transform $-1 1 0 0 0 1 0 0 0 1 68.500625629444258 32.781919631271656 8.2515554287790263 1 rotate no_reflect no_shear #
lump $-1 $-1 $25 $1 #
transform $-1 1 0 0 0 1 0 0 0 1 68.500625629444258 32.781919631271656 8.2515554287790263 1 rotate no_reflect no_shear #
lump $-1 $-1 $26 $2 #
transform $-1 1 0 0 0 1 0 0 0 1 68.500625629444258 32.781919631271656 8.2515554287790263 1 rotate no_reflect no_shear #
lump $-1 $-1 $27 $3 #
transform $-1 1 0 0 0 1 0 0 0 1 68.500625629444258 32.781919631271656 8.2515554287790263 1 rotate no_reflect no_shear #
lump $-1 $-1 $28 $4 #
transform $-1 1 0 0 0 1 0 0 0 1 68.500625629444258 32.781919631271656 8.2515554287790263 1 rotate no_reflect no_shear #
lump $-1 $-1 $29 $5 #
transform $-1 1 0 0 0 1 0 0 0 1 68.500625629444258 32.781919631271656 8.2515554287790263 1 rotate no_reflect no_shear #
lump $-1 $-1 $30 $6 #
transform $-1 1 0 0 0 1 0 0 0 1 68.500625629444258 32.781919631271656 8.2515554287790263 1 rotate no_reflect no_shear #
lump $-1 $-1 $31 $7 #
transform $-1 1 0 0 0 1 0 0 0 1 68.500625629444258 32.781919631271656 8.2515554287790263 1 rotate no_reflect no_shear #
shell $-1 $-1 $-1 $32 $-1 $8 #
shell $-1 $-1 $-1 $33 $-1 $10 #
shell $-1 $-1 $-1 $34 $-1 $12 #
shell $-1 $-1 $-1 $35 $-1 $14 #
shell $-1 $-1 $-1 $36 $-1 $16 #
shell $-1 $-1 $-1 $37 $-1 $18 #
shell $-1 $-1 $-1 $38 $-1 $20 #
shell $-1 $-1 $-1 $39 $-1 $22 #
face $-1 $40 $41 $24 $-1 $42 forward single #
face $-1 $43 $44 $25 $-1 $45 reversed single #
face $-1 $46 $47 $26 $-1 $48 reversed single #
face $-1 $49 $50 $27 $-1 $51 forward single #
face $-1 $52 $53 $28 $-1 $54 reversed single #
face $-1 $55 $56 $29 $-1 $57 forward single #
face $-1 $58 $59 $30 $-1 $60 forward single #
face $-1 $61 $62 $31 $-1 $63 forward single #
face $-1 $64 $65 $24 $-1 $66 reversed single #
loop $-1 $-1 $67 $32 #
plane-surface $-1 0 0 8.2515554287790263 0 0 1 1 0 0 forward_v I I I I #
face $-1 $68 $69 $25 $-1 $70 reversed single #
loop $-1 $-1 $71 $33 #
plane-surface $-1 0 -28.384394854937206 4.9695179550012289 0 0 1 1 0 0 forward_v I I I I #
face $-1 $72 $73 $26 $-1 $74 reversed single #
loop $-1 $-1 $75 $34 #
plane-surface $-1 -33.311144334809498 27.503717925028404 92.068078259208079 0.66913061440640931 0 0.74314481823134659 0.74314481823134659 0 -0.66913061440640931 forward_v I I I I #
face $-1 $76 $77 $27 $-1 $78 forward single #
loop $-1 $79 $80 $35 #
cone-surface $-1 62.964665161054945 27.503717925028411 3.0201874945597416 -0.66913061440640931 0 -0.74314481823134659 1.1147172273470198 0 -1.003695921609614 1 I I 0 1 1.5 forward I I I I #
face $-1 $81 $82 $28 $-1 $83 reversed single #
loop $-1 $-1 $84 $36 #
plane-surface $-1 -68.500625629444272 -18.525705294806023 2.6837151907377716 -0.7660444514056185 0 0.64278759981090561 0.64278759981090561 0 0.7660444514056185 forward_v I I I I #
face $-1 $85 $86 $29 $-1 $87 forward single #
loop $-1 $88 $89 $37 #
cone-surface $-1 -64.982351770376738 -21.802404165084063 4.4755782674952354 0.7660444514056185 0 -0.64278759981090561 0.64278759981090561 0 0.7660444514056185 1 I I 0 1 1 forward I I I I #
face $-1 $90 $91 $30 $-1 $92 forward single #
loop $-1 $93 $94 $38 #
cone-surface $-1 -64.982351770376738 -18.525705294806023 4.4755782674952354 0.7660444514056185 0 -0.64278759981090561 0.64278759981090561 0 0.7660444514056185 1 I I 0 1 1 forward I I I I #
face $-1 $95 $96 $31 $-1 $97 forward single #
loop $-1 $98 $99 $39 #
cone-surface $-1 -64.982351770376738 -15.249006424527984 4.4755782674952354 0.7660444514056185 0 -0.64278759981090561 0.64278759981090561 0 0.7660444514056185 1 I I 0 1 1 forward I I I I #
face $-1 $100 $101 $24 $-1 $102 reversed single #
loop $-1 $-1 $103 $40 #
plane-surface $-1 0 0 -8.2515554287790263 0 0 1 1 0 0 forward_v I I I I #
coedge $-1 $104 $105 $106 $107 forward $41 $-1 #
face $-1 $108 $109 $25 $-1 $110 reversed single #
loop $-1 $-1 $111 $43 #
plane-surface $-1 0 -23.986870078602756 6.6105366918901272 0 -1 0 0 0 -1 forward_v I I I I #
coedge $-1 $112 $113 $114 $115 reversed $44 $-1 #
face $-1 $116 $117 $26 $-1 $118 reversed single #
loop $-1 $-1 $119 $46 #
plane-surface $-1 58.360587094497433 22.225516218785156 193.87984822346183 0 1 0 0.66913061440640931 0 0.74314481823134659 forward_v I I I I #
coedge $-1 $120 $121 $122 $123 reversed $47 $-1 #
face $-1 $-1 $124 $27 $-1 $125 forward single #
loop $-1 $126 $127 $49 #
cone-surface $-1 61.288903125120683 27.503717925028411 1.1590652461058983 -0.66913061440640931 0 -0.74314481823134659 0.55735861367350992 0 -0.50184796080480698 1 I I -0.70710678118654757 0.70710678118654757 0.75 forward I I I I #
loop $-1 $-1 $128 $35 #
coedge $-1 $80 $80 $129 $130 reversed $50 $-1 #
face $-1 $131 $132 $28 $-1 $133 forward single #
loop $-1 $-1 $134 $52 #
plane-surface $-1 -173.44967399194283 -13.064540511009291 90.74642065852953 0 -1 0 0.7660444514056185 0 -0.64278759981090561 forward_v I I I I #
coedge $-1 $135 $136 $137 $138 reversed $53 $-1 #
face $-1 $-1 $139 $29 $-1 $140 forward single #
loop $-1 $141 $142 $55 #
cone-surface $-1 -63.417041969544712 -21.802404165084063 3.1621274253266147 0.7660444514056185 0 -0.64278759981090561 0.3213937999054528 0 0.38302222570280925 1 I I -0.70710678118654746 0.70710678118654746 0.5 forward I I I I #
loop $-1 $-1 $143 $37 #
coedge $-1 $89 $89 $144 $145 reversed $56 $-1 #
face $-1 $-1 $146 $30 $-1 $147 forward single #
loop $-1 $148 $149 $58 #
cone-surface $-1 -63.417041969544712 -18.525705294806023 3.1621274253266147 0.7660444514056185 0 -0.64278759981090561 0.3213937999054528 0 0.38302222570280925 1 I I -0.70710678118654746 0.70710678118654746 0.5 forward I I I I #
loop $-1 $-1 $150 $38 #
coedge $-1 $94 $94 $151 $152 reversed $59 $-1 #
face $-1 $-1 $153 $31 $-1 $154 forward single #
loop $-1 $155 $156 $61 #
cone-surface $-1 -63.417041969544712 -15.249006424527984 3.1621274253266147 0.7660444514056185 0 -0.64278759981090561 0.3213937999054528 0 0.38302222570280925 1 I I -0.70710678118654746 0.70710678118654746 0.5 forward I I I I #
loop $-1 $-1 $157 $39 #
coedge $-1 $99 $99 $158 $159 reversed $62 $-1 #
face $-1 $160 $161 $24 $-1 $162 reversed single #
loop $-1 $-1 $163 $64 #
plane-surface $-1 0 -32.781919631271656 0 0 1 0 0 0 1 forward_v I I I I #
coedge $-1 $164 $165 $166 $167 forward $65 $-1 #
coedge $-1 $168 $67 $169 $170 forward $41 $-1 #
coedge $-1 $67 $168 $171 $172 forward $41 $-1 #
coedge $-1 $173 $174 $67 $107 reversed $175 $-1 #
edge $-1 $176 -32.781919631271656 $177 32.781919631271656 $106 $178 forward 7 unknown #
face $-1 $179 $180 $25 $-1 $181 reversed single #
loop $-1 $-1 $182 $68 #
plane-surface $-1 -68.500625629444258 0 0 1 0 0 0 0 -1 forward_v I I I I #
coedge $-1 $183 $184 $185 $186 reversed $69 $-1 #
coedge $-1 $187 $71 $188 $189 reversed $44 $-1 #
coedge $-1 $71 $187 $183 $190 forward $44 $-1 #
coedge $-1 $185 $191 $71 $115 forward $192 $-1 #
edge $-1 $193 -18.589722203803053 $194 -9.7946726511341531 $114 $195 forward 7 unknown #
face $-1 $196 $197 $26 $-1 $198 forward single #
loop $-1 $-1 $199 $72 #
plane-surface $-1 0 32.781919631271656 0 0 -1 0 0 0 -1 forward_v I I I I #
coedge $-1 $200 $201 $202 $203 reversed $73 $-1 #
coedge $-1 $204 $75 $199 $205 reversed $47 $-1 #
coedge $-1 $75 $204 $200 $206 forward $47 $-1 #
coedge $-1 $202 $207 $75 $123 forward $197 $-1 #
edge $-1 $208 -19.030060668757447 $209 -8.473657256270954 $122 $210 forward 7 unknown #
loop $-1 $-1 $129 $76 #
plane-surface $-1 -33.311144334809498 27.503717925028404 92.068078259208079 0.66913061440640931 0 0.74314481823134659 0.74314481823134659 0 -0.66913061440640931 forward_v I I I I #
loop $-1 $-1 $211 $49 #
coedge $-1 $127 $127 $128 $212 reversed $77 $-1 #
coedge $-1 $128 $128 $127 $212 forward $79 $-1 #
coedge $-1 $129 $129 $80 $130 forward $124 $-1 #
edge $-1 $213 0 $213 6.2831853071796004 $129 $214 forward 7 unknown #
face $-1 $215 $216 $28 $-1 $217 forward single #
loop $-1 $-1 $218 $81 #
plane-surface $-1 0 -23.986870078602756 6.6105366918901272 0 -1 0 0 0 -1 forward_v I I I I #
coedge $-1 $219 $220 $221 $222 reversed $82 $-1 #
coedge $-1 $223 $84 $218 $224 reversed $53 $-1 #
coedge $-1 $84 $223 $219 $225 forward $53 $-1 #
coedge $-1 $221 $226 $84 $138 forward $216 $-1 #
edge $-1 $227 -14.724017431199744 $228 -3.8016878636062792 $137 $229 forward 7 unknown #
loop $-1 $-1 $144 $85 #
plane-surface $-1 -68.500625629444272 -18.525705294806023 2.6837151907377716 -0.7660444514056185 0 0.64278759981090561 0.64278759981090561 0 0.7660444514056185 forward_v I I I I #
loop $-1 $-1 $230 $55 #
coedge $-1 $142 $142 $143 $231 reversed $86 $-1 #
coedge $-1 $143 $143 $142 $231 forward $88 $-1 #
coedge $-1 $144 $144 $89 $145 forward $139 $-1 #
edge $-1 $232 0 $232 6.2831853071796004 $144 $233 forward 7 unknown #
loop $-1 $-1 $151 $90 #
plane-surface $-1 -68.500625629444272 -18.525705294806023 2.6837151907377716 -0.7660444514056185 0 0.64278759981090561 0.64278759981090561 0 0.7660444514056185 forward_v I I I I #
loop $-1 $-1 $234 $58 #
coedge $-1 $149 $149 $150 $235 reversed $91 $-1 #
coedge $-1 $150 $150 $149 $235 forward $93 $-1 #
coedge $-1 $151 $151 $94 $152 forward $146 $-1 #
edge $-1 $236 0 $236 6.2831853071796004 $151 $237 forward 7 unknown #
loop $-1 $-1 $158 $95 #
plane-surface $-1 -68.500625629444272 -18.525705294806023 2.6837151907377716 -0.7660444514056185 0 0.64278759981090561 0.64278759981090561 0 0.7660444514056185 forward_v I I I I #
loop $-1 $-1 $238 $61 #
coedge $-1 $156 $156 $157 $239 reversed $96 $-1 #
coedge $-1 $157 $157 $156 $239 forward $98 $-1 #
coedge $-1 $158 $158 $99 $159 forward $153 $-1 #
edge $-1 $240 0 $240 6.2831853071796004 $158 $241 forward 7 unknown #
face $-1 $242 $243 $24 $-1 $244 reversed single #
loop $-1 $-1 $245 $100 #
plane-surface $-1 -68.500625629444258 0 0 1 0 0 0 0 -1 forward_v I I I I #
coedge $-1 $246 $171 $247 $248 forward $101 $-1 #
coedge $-1 $249 $103 $246 $250 forward $65 $-1 #
coedge $-1 $103 $249 $251 $252 forward $65 $-1 #
coedge $-1 $174 $173 $103 $167 reversed $175 $-1 #
edge $-1 $253 -32.781919631271656 $254 32.781919631271656 $166 $255 forward 7 unknown #
coedge $-1 $105 $104 $256 $257 forward $41 $-1 #
coedge $-1 $258 $259 $104 $170 reversed $243 $-1 #
edge $-1 $177 -68.500625629444258 $260 68.500625629444258 $169 $261 forward 7 unknown #
coedge $-1 $163 $262 $105 $172 reversed $101 $-1 #
edge $-1 $263 -68.500625629444258 $176 68.500625629444258 $171 $264 forward 7 unknown #
coedge $-1 $166 $106 $262 $265 forward $175 $-1 #
coedge $-1 $106 $166 $258 $266 reversed $175 $-1 #
loop $-1 $-1 $173 $242 #
vertex $-1 $107 $267 #
vertex $-1 $107 $268 #
straight-curve $-1 68.500625629444258 0 8.2515554287790263 0 1 0 I I #
face $-1 $269 $270 $25 $-1 $271 forward single #
loop $-1 $-1 $188 $108 #
plane-surface $-1 0 -32.781919631271656 0 0 1 0 0 0 1 forward_v I I I I #
coedge $-1 $272 $273 $274 $275 forward $109 $-1 #
coedge $-1 $274 $111 $113 $190 reversed $69 $-1 #
coedge $-1 $111 $274 $276 $277 reversed $69 $-1 #
coedge $-1 $278 $114 $111 $186 forward $192 $-1 #
edge $-1 $194 1.6642496090561654 $279 4.9462870828339609 $185 $280 forward 7 unknown #
coedge $-1 $113 $112 $272 $281 reversed $44 $-1 #
coedge $-1 $282 $283 $112 $189 forward $180 $-1 #
edge $-1 $284 -68.500625629444258 $193 68.500625629444258 $188 $285 forward 7 unknown #
edge $-1 $286 -68.500625629444258 $194 68.500625629444258 $183 $287 forward 7 unknown #
coedge $-1 $114 $278 $282 $288 forward $192 $-1 #
loop $-1 $-1 $185 $269 #
vertex $-1 $189 $289 #
vertex $-1 $115 $290 #
straight-curve $-1 68.500625629444258 -14.192197427468603 4.9695179550012289 0 1 0 I I #
face $-1 $-1 $291 $26 $-1 $292 reversed single #
loop $-1 $-1 $122 $116 #
plane-surface $-1 0 0 8.2515554287790263 0 0 1 1 0 0 forward_v I I I I #
coedge $-1 $293 $294 $120 $205 forward $117 $-1 #
coedge $-1 $201 $119 $121 $206 reversed $73 $-1 #
coedge $-1 $119 $200 $295 $296 reversed $73 $-1 #
coedge $-1 $297 $122 $119 $203 forward $197 $-1 #
edge $-1 $209 30.596239295675893 $298 39.320332082195542 $202 $299 forward 7 unknown #
coedge $-1 $121 $120 $300 $301 reversed $47 $-1 #
edge $-1 $302 -93.820964221602807 $208 -82.081539317473585 $199 $303 forward 7 unknown #
edge $-1 $304 -137.00125125888852 $209 -125.26182635475931 $200 $305 forward 7 unknown #
coedge $-1 $122 $297 $293 $306 forward $197 $-1 #
vertex $-1 $123 $307 #
vertex $-1 $123 $308 #
straight-curve $-1 59.776532842924624 13.751858962514202 8.2515554287790138 0 -1 0 I I #
coedge $-1 $211 $211 $-1 $309 reversed $126 $-1 #
edge $-1 $310 0 $310 6.2831853071796004 $127 $311 forward 7 unknown #
vertex $-1 $130 $312 #
ellipse-curve $-1 64.138579236184427 27.503717925028411 4.3239511293401014 0.66913061440640931 0 0.74314481823134659 1.1147172273470198 0 -1.003695921609614 1 I I #
face $-1 $-1 $313 $28 $-1 $314 reversed single #
loop $-1 $-1 $221 $131 #
plane-surface $-1 0 0 8.2515554287790263 0 0 1 1 0 0 forward_v I I I I #
coedge $-1 $315 $316 $135 $224 forward $132 $-1 #
coedge $-1 $220 $134 $136 $225 reversed $82 $-1 #
coedge $-1 $134 $219 $317 $318 reversed $82 $-1 #
coedge $-1 $319 $137 $134 $222 forward $216 $-1 #
edge $-1 $228 -22.89618393440373 $320 -18.224211366527157 $221 $321 forward 7 unknown #
coedge $-1 $136 $135 $322 $323 reversed $53 $-1 #
edge $-1 $324 -23.519736278256943 $227 -16.25143712430474 $218 $325 forward 7 unknown #
edge $-1 $326 2.2061860048766535e-014 $228 7.2682991539522286 $219 $327 forward 7 unknown #
coedge $-1 $137 $319 $315 $328 forward $216 $-1 #
vertex $-1 $138 $329 #
vertex $-1 $138 $330 #
straight-curve $-1 -63.828653061567685 -9.2628526474030117 8.2515554287790263 0 1 0 I I #
coedge $-1 $230 $230 $-1 $331 reversed $141 $-1 #
edge $-1 $332 0 $332 6.2831853071796004 $142 $333 forward 7 unknown #
vertex $-1 $145 $334 #
ellipse-curve $-1 -66.164639345505975 -21.802404165084063 5.4676353097584096 -0.7660444514056185 0 0.64278759981090561 0.64278759981090561 0 0.7660444514056185 1 I I #
coedge $-1 $234 $234 $-1 $335 reversed $148 $-1 #
edge $-1 $336 0 $336 6.2831853071796004 $149 $337 forward 7 unknown #
vertex $-1 $152 $338 #
ellipse-curve $-1 -66.164639345505975 -18.525705294806023 5.4676353097584096 -0.7660444514056185 0 0.64278759981090561 0.64278759981090561 0 0.7660444514056185 1 I I #
coedge $-1 $238 $238 $-1 $339 reversed $155 $-1 #
edge $-1 $340 0 $340 6.2831853071796004 $156 $341 forward 7 unknown #
vertex $-1 $159 $342 #
ellipse-curve $-1 -66.164639345505975 -15.249006424527984 5.4676353097584096 -0.7660444514056185 0 0.64278759981090561 0.64278759981090561 0 0.7660444514056185 1 I I #
face $-1 $-1 $175 $24 $-1 $343 reversed single #
loop $-1 $-1 $258 $160 #
plane-surface $-1 0 32.781919631271656 0 0 -1 0 0 0 -1 forward_v I I I I #
coedge $-1 $344 $256 $259 $345 forward $161 $-1 #
coedge $-1 $262 $163 $164 $250 reversed $101 $-1 #
coedge $-1 $256 $344 $163 $248 reversed $161 $-1 #
edge $-1 $263 -8.2515554287790263 $346 8.2515554287790263 $247 $347 forward 7 unknown #
coedge $-1 $165 $164 $344 $348 forward $65 $-1 #
edge $-1 $254 -68.500625629444258 $346 68.500625629444258 $246 $349 forward 7 unknown #
coedge $-1 $259 $258 $165 $252 reversed $243 $-1 #
edge $-1 $350 -68.500625629444258 $253 68.500625629444258 $251 $351 forward 7 unknown #
vertex $-1 $167 $352 #
vertex $-1 $265 $353 #
straight-curve $-1 68.500625629444258 0 -8.2515554287790263 0 -1 0 I I #
coedge $-1 $245 $247 $168 $257 reversed $161 $-1 #
edge $-1 $260 -32.781919631271656 $263 32.781919631271656 $256 $354 forward 7 unknown #
coedge $-1 $251 $169 $174 $266 forward $243 $-1 #
coedge $-1 $169 $251 $245 $345 reversed $243 $-1 #
vertex $-1 $170 $355 #
straight-curve $-1 0 32.781919631271656 8.2515554287790263 -1 0 0 I I #
coedge $-1 $171 $246 $173 $265 reversed $101 $-1 #
vertex $-1 $257 $356 #
straight-curve $-1 0 -32.781919631271656 8.2515554287790263 1 0 0 I I #
edge $-1 $176 -8.2515554287790263 $254 8.2515554287790263 $173 $357 forward 7 unknown #
edge $-1 $177 -8.2515554287790263 $253 8.2515554287790263 $174 $358 forward 7 unknown #
point $-1 68.500625629444258 -32.781919631271656 8.2515554287790263 #
point $-1 68.500625629444258 32.781919631271656 8.2515554287790263 #
face $-1 $-1 $192 $25 $-1 $359 reversed single #
loop $-1 $-1 $276 $179 #
plane-surface $-1 0 0 8.2515554287790263 0 0 1 1 0 0 forward_v I I I I #
coedge $-1 $360 $182 $187 $281 forward $109 $-1 #
coedge $-1 $182 $360 $361 $362 reversed $109 $-1 #
coedge $-1 $184 $183 $182 $275 reversed $69 $-1 #
edge $-1 $363 -4.9462870828339609 $286 -1.6642496090561654 $182 $364 forward 7 unknown #
coedge $-1 $361 $365 $184 $277 forward $270 $-1 #
edge $-1 $279 -68.500625629444258 $363 68.500625629444258 $276 $366 forward 7 unknown #
coedge $-1 $191 $185 $365 $367 reversed $192 $-1 #
vertex $-1 $186 $368 #
straight-curve $-1 68.500625629444258 -23.986870078602756 3.3052683459450636 0 0 1 I I #
edge $-1 $286 9.7946726511341531 $284 18.589722203803053 $272 $369 forward 7 unknown #
coedge $-1 $370 $188 $191 $288 reversed $180 $-1 #
coedge $-1 $188 $370 $360 $371 forward $180 $-1 #
vertex $-1 $189 $372 #
straight-curve $-1 0 -32.781919631271656 4.9695179550012289 1 0 0 I I #
vertex $-1 $281 $373 #
straight-curve $-1 0 -23.986870078602756 4.9695179550012289 1 0 0 I I #
edge $-1 $374 -8.2515554287790263 $193 -4.9695179550012289 $191 $375 forward 7 unknown #
point $-1 68.500625629444258 -32.781919631271656 4.9695179550012289 #
point $-1 68.500625629444258 -23.986870078602756 4.9695179550012289 #
loop $-1 $-1 $300 $196 #
plane-surface $-1 68.500625629444258 0 0 -1 0 0 0 0 1 forward_v I I I I #
coedge $-1 $294 $199 $207 $306 reversed $117 $-1 #
coedge $-1 $199 $293 $376 $377 forward $117 $-1 #
coedge $-1 $300 $378 $201 $296 forward $291 $-1 #
edge $-1 $298 88.688368682951889 $304 96.543577281829769 $295 $379 forward 7 unknown #
coedge $-1 $207 $202 $378 $380 forward $197 $-1 #
vertex $-1 $380 $381 #
straight-curve $-1 29.180293547248716 22.225516218785156 8.251555428779028 1 0 0 I I #
coedge $-1 $376 $295 $204 $301 forward $291 $-1 #
edge $-1 $304 8.473657256270954 $302 19.030060668757447 $300 $382 forward 7 unknown #
vertex $-1 $301 $383 #
straight-curve $-1 -1.2219377733084347 32.781919631271656 63.174826263703977 -0.74314481823134659 0 0.66913061440640931 I I #
vertex $-1 $301 $384 #
straight-curve $-1 -33.311144334809498 22.225516218785156 92.068078259208079 -0.74314481823134659 0 0.66913061440640931 I I #
edge $-1 $385 -68.500625629444258 $208 -59.77653284292461 $293 $386 forward 7 unknown #
point $-1 59.77653284292461 32.781919631271649 8.251555428779028 #
point $-1 59.77653284292461 22.225516218785156 8.251555428779028 #
edge $-1 $387 1 $387 0 $211 $-1 forward 7 unknown #
vertex $-1 $212 $388 #
ellipse-curve $-1 61.790751085925493 27.503717925028411 1.7164238597794084 0.66913061440640931 0 0.74314481823134659 1.1147172273470198 0 -1.003695921609614 1 I I #
point $-1 65.253296463531413 27.503717925028411 3.3202552077304612 #
loop $-1 $-1 $389 $215 #
plane-surface $-1 -68.500625629444258 0 0 1 0 0 0 0 -1 forward_v I I I I #
coedge $-1 $316 $218 $226 $328 reversed $132 $-1 #
coedge $-1 $218 $315 $389 $390 reversed $132 $-1 #
coedge $-1 $322 $391 $220 $318 forward $313 $-1 #
edge $-1 $320 37.121654900485737 $326 42.689495138526979 $317 $392 forward 7 unknown #
coedge $-1 $226 $221 $391 $393 forward $216 $-1 #
vertex $-1 $393 $394 #
straight-curve $-1 -86.724836995971415 -13.064540511009291 8.251555428779028 -1 0 0 I I #
coedge $-1 $389 $317 $223 $323 forward $313 $-1 #
edge $-1 $326 3.8016878636062792 $324 14.724017431199744 $322 $395 forward 7 unknown #
vertex $-1 $390 $396 #
straight-curve $-1 -53.382430798957998 -23.986870078602756 20.700878665219953 0.64278759981090572 0 0.76604445140561861 I I #
vertex $-1 $323 $397 #
straight-curve $-1 -68.500625629444272 -13.064540511009291 2.6837151907377716 0.64278759981090561 0 0.7660444514056185 I I #
edge $-1 $398 -68.500625629444258 $227 -63.828653061567685 $226 $399 forward 7 unknown #
point $-1 -63.828653061567685 -23.986870078602756 8.2515554287790263 #
point $-1 -63.828653061567685 -13.064540511009291 8.2515554287790263 #
edge $-1 $400 1 $400 0 $230 $-1 forward 7 unknown #
vertex $-1 $231 $401 #
ellipse-curve $-1 -63.800064195247522 -21.802404165084063 3.4835212252320673 -0.7660444514056185 0 0.64278759981090561 0.64278759981090561 0 0.7660444514056185 1 I I #
point $-1 -65.521851745695059 -21.802404165084063 6.2336797611640211 #
edge $-1 $402 1 $402 0 $234 $-1 forward 7 unknown #
vertex $-1 $235 $403 #
ellipse-curve $-1 -63.800064195247522 -18.525705294806023 3.4835212252320673 -0.7660444514056185 0 0.64278759981090561 0.64278759981090561 0 0.7660444514056185 1 I I #
point $-1 -65.521851745695059 -18.525705294806023 6.2336797611640211 #
edge $-1 $404 1 $404 0 $238 $-1 forward 7 unknown #
vertex $-1 $239 $405 #
ellipse-curve $-1 -63.800064195247522 -15.249006424527984 3.4835212252320673 -0.7660444514056185 0 0.64278759981090561 0.64278759981090561 0 0.7660444514056185 1 I I #
point $-1 -65.521851745695059 -15.249006424527984 6.2336797611640211 #
plane-surface $-1 68.500625629444258 0 0 -1 0 0 0 0 1 forward_v I I I I #
coedge $-1 $247 $245 $249 $348 reversed $161 $-1 #
edge $-1 $260 -8.2515554287790263 $350 8.2515554287790263 $259 $406 forward 7 unknown #
vertex $-1 $348 $407 #
straight-curve $-1 -68.500625629444258 -32.781919631271656 0 0 0 -1 I I #
edge $-1 $346 -32.781919631271656 $350 32.781919631271656 $344 $408 forward 7 unknown #
straight-curve $-1 0 -32.781919631271656 -8.2515554287790263 -1 0 0 I I #
vertex $-1 $252 $409 #
straight-curve $-1 0 32.781919631271656 -8.2515554287790263 1 0 0 I I #
point $-1 68.500625629444258 32.781919631271656 -8.2515554287790263 #
point $-1 68.500625629444258 -32.781919631271656 -8.2515554287790263 #
straight-curve $-1 -68.500625629444258 0 8.2515554287790263 0 -1 0 I I #
point $-1 -68.500625629444258 32.781919631271656 8.2515554287790263 #
point $-1 -68.500625629444258 -32.781919631271656 8.2515554287790263 #
straight-curve $-1 68.500625629444258 -32.781919631271656 0 0 0 -1 I I #
straight-curve $-1 68.500625629444258 32.781919631271656 0 0 0 -1 I I #
plane-surface $-1 68.500625629444258 0 0 -1 0 0 0 0 1 forward_v I I I I #
coedge $-1 $273 $272 $283 $371 reversed $109 $-1 #
coedge $-1 $410 $276 $273 $362 forward $270 $-1 #
edge $-1 $363 23.986870078602756 $411 32.781919631271656 $273 $412 forward 7 unknown #
vertex $-1 $362 $413 #
straight-curve $-1 -68.500625629444258 -23.986870078602756 3.3052683459450636 0 0 -1 I I #
coedge $-1 $276 $410 $278 $367 forward $270 $-1 #
straight-curve $-1 0 -23.986870078602756 8.2515554287790263 -1 0 0 I I #
edge $-1 $374 -32.781919631271656 $279 -23.986870078602756 $278 $414 forward 7 unknown #
point $-1 68.500625629444258 -23.986870078602756 8.2515554287790245 #
straight-curve $-1 -68.500625629444258 -14.192197427468603 4.9695179550012289 0 -1 0 I I #
coedge $-1 $283 $282 $410 $415 reversed $180 $-1 #
edge $-1 $411 -8.2515554287790263 $284 -4.9695179550012289 $360 $416 forward 7 unknown #
point $-1 -68.500625629444258 -32.781919631271656 4.9695179550012289 #
point $-1 -68.500625629444258 -23.986870078602756 4.9695179550012289 #
vertex $-1 $367 $417 #
straight-curve $-1 68.500625629444258 -32.781919631271656 0 0 0 -1 I I #
coedge $-1 $378 $300 $294 $377 reversed $291 $-1 #
edge $-1 $385 -8.2515554287790263 $302 -0.39634682990114811 $376 $418 forward 7 unknown #
coedge $-1 $295 $376 $297 $380 reversed $291 $-1 #
straight-curve $-1 68.500625629444258 22.225516218785156 96.939924111730917 0 0 -1 I I #
edge $-1 $298 22.225516218785156 $385 32.781919631271656 $378 $419 forward 7 unknown #
point $-1 68.500625629444258 22.225516218785156 8.2515554287790263 #
straight-curve $-1 68.500625629444258 13.751858962514202 0.39634682990114101 0 1 0 I I #
point $-1 68.500625629444258 32.781919631271649 0.39634682990114811 #
point $-1 68.500625629444258 22.225516218785156 0.39634682990114811 #
vertex $-1 $380 $420 #
straight-curve $-1 0 32.781919631271656 8.2515554287790263 -1 0 0 I I #
vertex $-1 $309 $421 #
point $-1 62.905468313272507 27.503717925028411 0.7127279381697943 #
coedge $-1 $391 $322 $316 $390 forward $313 $-1 #
edge $-1 $324 -42.689495138526979 $398 -37.121654900485737 $389 $422 forward 7 unknown #
coedge $-1 $317 $389 $319 $393 reversed $313 $-1 #
straight-curve $-1 -68.500625629444258 -13.064540511009291 45.373210329264765 0 0 -1 I I #
edge $-1 $320 13.064540511009291 $398 23.986870078602756 $391 $423 forward 7 unknown #
point $-1 -68.500625629444258 -13.064540511009291 8.2515554287790263 #
straight-curve $-1 -68.500625629444258 -9.2628526474030117 2.6837151907377939 0 -1 0 I I #
point $-1 -68.500625629444258 -23.986870078602756 2.6837151907377885 #
point $-1 -68.500625629444258 -13.064540511009291 2.6837151907377885 #
vertex $-1 $390 $424 #
straight-curve $-1 0 -23.986870078602756 8.2515554287790263 1 0 0 I I #
vertex $-1 $331 $425 #
point $-1 -63.157276595436613 -21.802404165084063 4.2495656766376859 #
vertex $-1 $335 $426 #
point $-1 -63.157276595436613 -18.525705294806023 4.2495656766376859 #
vertex $-1 $339 $427 #
point $-1 -63.157276595436613 -15.249006424527984 4.2495656766376859 #
straight-curve $-1 -68.500625629444258 32.781919631271656 0 0 0 -1 I I #
point $-1 -68.500625629444258 -32.781919631271656 -8.2515554287790263 #
straight-curve $-1 -68.500625629444258 0 -8.2515554287790263 0 1 0 I I #
point $-1 -68.500625629444258 32.781919631271656 -8.2515554287790263 #
coedge $-1 $365 $361 $370 $415 forward $270 $-1 #
vertex $-1 $362 $428 #
straight-curve $-1 -68.500625629444258 0 8.2515554287790263 0 -1 0 I I #
point $-1 -68.500625629444258 -23.986870078602756 8.2515554287790245 #
straight-curve $-1 68.500625629444258 0 8.2515554287790263 0 1 0 I I #
edge $-1 $411 -68.500625629444258 $374 68.500625629444258 $370 $429 forward 7 unknown #
straight-curve $-1 -68.500625629444258 -32.781919631271656 0 0 0 -1 I I #
point $-1 68.500625629444258 -32.781919631271656 8.2515554287790263 #
straight-curve $-1 68.500625629444258 32.781919631271656 0 0 0 -1 I I #
straight-curve $-1 68.500625629444258 0 8.2515554287790263 0 1 0 I I #
point $-1 68.500625629444258 32.781919631271656 8.2515554287790263 #
point $-1 60.787055164315873 27.503717925028411 0.60170663243238842 #
straight-curve $-1 -68.500625629444258 -23.986870078602756 45.373210329264765 0 0 1 I I #
straight-curve $-1 -68.500625629444258 0 8.2515554287790263 0 -1 0 I I #
point $-1 -68.500625629444258 -23.986870078602756 8.2515554287790245 #
point $-1 -63.034019743841903 -21.802404165084063 2.8407336254211621 #
point $-1 -63.034019743841903 -18.525705294806023 2.8407336254211621 #
point $-1 -63.034019743841903 -15.249006424527984 2.8407336254211621 #
point $-1 -68.500625629444258 -32.781919631271656 8.2515554287790263 #
straight-curve $-1 0 -32.781919631271656 8.2515554287790263 1 0 0 I I #
End-of-ACIS-data 