500 0 9 0           
7 Unknown 11 ACIS 5.0 NT 24 Fri Mar 26 15:36:26 1999 
-1 9.9999999999999995e-007 1e-010 
body $-1 $9 $-1 $10 #
body $-1 $11 $-1 $12 #
body $-1 $13 $-1 $14 #
body $-1 $15 $-1 $16 #
body $-1 $17 $-1 $18 #
body $-1 $19 $-1 $20 #
body $-1 $21 $-1 $22 #
body $-1 $23 $-1 $24 #
body $-1 $25 $-1 $26 #
lump $-1 $-1 $27 $0 #
transform $-1 1 0 0 0 1 0 0 0 1 51.770378734702597 24.504308877403176 11.101909451844877 1 rotate no_reflect no_shear #
lump $-1 $-1 $28 $1 #
transform $-1 1 0 0 0 1 0 0 0 1 51.770378734702597 24.504308877403176 11.101909451844877 1 rotate no_reflect no_shear #
lump $-1 $-1 $29 $2 #
transform $-1 1 0 0 0 1 0 0 0 1 51.770378734702597 24.504308877403176 11.101909451844877 1 rotate no_reflect no_shear #
lump $-1 $-1 $30 $3 #
transform $-1 1 0 0 0 1 0 0 0 1 51.770378734702597 24.504308877403176 11.101909451844877 1 rotate no_reflect no_shear #
lump $-1 $-1 $31 $4 #
transform $-1 1 0 0 0 1 0 0 0 1 51.770378734702597 24.504308877403176 11.101909451844877 1 rotate no_reflect no_shear #
lump $-1 $-1 $32 $5 #
transform $-1 1 0 0 0 1 0 0 0 1 51.770378734702597 24.504308877403176 11.101909451844877 1 rotate no_reflect no_shear #
lump $-1 $-1 $33 $6 #
transform $-1 1 0 0 0 1 0 0 0 1 51.770378734702597 24.504308877403176 11.101909451844877 1 rotate no_reflect no_shear #
lump $-1 $-1 $34 $7 #
transform $-1 1 0 0 0 1 0 0 0 1 51.770378734702597 24.504308877403176 11.101909451844877 1 rotate no_reflect no_shear #
lump $-1 $-1 $35 $8 #
transform $-1 1 0 0 0 1 0 0 0 1 51.770378734702597 24.504308877403176 11.101909451844877 1 rotate no_reflect no_shear #
shell $-1 $-1 $-1 $36 $-1 $9 #
shell $-1 $-1 $-1 $37 $-1 $11 #
shell $-1 $-1 $-1 $38 $-1 $13 #
shell $-1 $-1 $-1 $39 $-1 $15 #
shell $-1 $-1 $-1 $40 $-1 $17 #
shell $-1 $-1 $-1 $41 $-1 $19 #
shell $-1 $-1 $-1 $42 $-1 $21 #
shell $-1 $-1 $-1 $43 $-1 $23 #
shell $-1 $-1 $-1 $44 $-1 $25 #
face $-1 $45 $46 $27 $-1 $47 forward single #
face $-1 $48 $49 $28 $-1 $50 reversed single #
face $-1 $51 $52 $29 $-1 $53 reversed single #
face $-1 $54 $55 $30 $-1 $56 reversed single #
face $-1 $57 $58 $31 $-1 $59 forward single #
face $-1 $60 $61 $32 $-1 $62 forward single #
face $-1 $63 $64 $33 $-1 $65 reversed single #
face $-1 $66 $67 $34 $-1 $68 forward single #
face $-1 $69 $70 $35 $-1 $71 forward single #
face $-1 $72 $73 $27 $-1 $74 reversed single #
loop $-1 $-1 $75 $36 #
plane-surface $-1 0 0 11.101909451844877 0 0 1 1 0 0 forward_v I I I I #
face $-1 $76 $77 $28 $-1 $78 reversed single #
loop $-1 $-1 $79 $37 #
plane-surface $-1 -47.767633342567358 -7.3324837112209647 0 0 1 0 0 0 1 forward_v I I I I #
face $-1 $80 $81 $29 $-1 $82 reversed single #
loop $-1 $-1 $83 $38 #
plane-surface $-1 46.607172604439661 0 6.1641059309458992 0 0 1 1 0 0 forward_v I I I I #
face $-1 $84 $85 $30 $-1 $86 reversed single #
loop $-1 $-1 $87 $39 #
plane-surface $-1 -8.4703176896744807 -86.81669301989885 82.724952173060714 -1 0 0 0 -0.6018150307709319 0.79863550430605224 forward_v I I I I #
face $-1 $88 $89 $31 $-1 $90 forward single #
loop $-1 $91 $92 $40 #
cone-surface $-1 -20.600846784512768 -16.227678355469163 4.3301964470467809 0 0.6018150307709319 -0.79863550430605224 2 0 0 1 I I 0 1 2 forward I I I I #
face $-1 $93 $94 $32 $-1 $95 forward single #
loop $-1 $96 $97 $41 #
cone-surface $-1 -13.322529327609793 -16.227678355469163 4.3301964470467809 0 0.6018150307709319 -0.79863550430605224 2 0 0 1 I I 0 1 2 forward I I I I #
face $-1 $98 $99 $33 $-1 $100 reversed single #
loop $-1 $-1 $101 $42 #
plane-surface $-1 1.2263334019643288 51.57777061217611 115.30706334811438 1 0 0 0 -0.62932039886446345 -0.77714595512881146 forward_v I I I I #
face $-1 $102 $103 $34 $-1 $104 forward single #
loop $-1 $105 $106 $43 #
cone-surface $-1 7.6089453847048176 18.200072492778784 5.1813258429452516 0 -0.62932039886446345 -0.77714595512881146 2 0 0 1 I I 0 1 2 forward I I I I #
face $-1 $107 $108 $35 $-1 $109 forward single #
loop $-1 $110 $111 $44 #
cone-surface $-1 17.18286335881556 18.200072492778784 5.1813258429452516 0 -0.62932039886446345 -0.77714595512881146 2 0 0 1 I I 0 1 2 forward I I I I #
face $-1 $112 $113 $27 $-1 $114 reversed single #
loop $-1 $-1 $115 $45 #
plane-surface $-1 0 0 -11.101909451844877 0 0 1 1 0 0 forward_v I I I I #
coedge $-1 $116 $117 $118 $119 forward $46 $-1 #
face $-1 $120 $121 $28 $-1 $122 reversed single #
loop $-1 $-1 $123 $48 #
plane-surface $-1 -47.767633342567358 -2.3004899737134199 0 0 -1 0 0 0 -1 forward_v I I I I #
coedge $-1 $124 $125 $126 $127 reversed $49 $-1 #
face $-1 $128 $129 $29 $-1 $130 reversed single #
loop $-1 $-1 $131 $51 #
plane-surface $-1 41.443966474176719 0 8.6330076913953899 1 0 0 0 0 -1 forward_v I I I I #
coedge $-1 $132 $133 $134 $135 reversed $52 $-1 #
face $-1 $136 $137 $30 $-1 $138 reversed single #
loop $-1 $-1 $139 $54 #
plane-surface $-1 -16.961688056061284 -24.504308877403169 0.03362711525164741 0 -0.6018150307709319 0.79863550430605224 1 0 0 forward_v I I I I #
coedge $-1 $140 $141 $142 $143 reversed $55 $-1 #
face $-1 $-1 $144 $31 $-1 $145 forward single #
loop $-1 $146 $147 $57 #
cone-surface $-1 -20.600846784512768 -14.693286036498979 2.2939891062392448 0 0.6018150307709319 -0.79863550430605224 1 0 0 1 I I -0.70710678118654768 0.70710678118654735 1 forward I I I I #
loop $-1 $-1 $148 $40 #
coedge $-1 $92 $92 $149 $150 reversed $58 $-1 #
face $-1 $-1 $151 $32 $-1 $152 forward single #
loop $-1 $153 $154 $60 #
cone-surface $-1 -13.322529327609793 -14.693286036498979 2.2939891062392448 0 0.6018150307709319 -0.79863550430605224 1 0 0 1 I I -0.70710678118654768 0.70710678118654735 1 forward I I I I #
loop $-1 $-1 $155 $41 #
coedge $-1 $97 $97 $156 $157 reversed $61 $-1 #
face $-1 $158 $159 $33 $-1 $160 reversed single #
loop $-1 $-1 $161 $63 #
plane-surface $-1 12.395904371760189 -13.582540177198638 34.840782489792858 0 0.62932039886446345 0.77714595512881146 1 0 0 forward_v I I I I #
coedge $-1 $162 $163 $164 $165 reversed $64 $-1 #
face $-1 $-1 $166 $34 $-1 $167 forward single #
loop $-1 $168 $169 $66 #
cone-surface $-1 7.6089453847048176 15.652407131001048 2.0352211965681999 0 -0.62932039886446345 -0.77714595512881146 1 0 0 1 I I -0.70710678118654746 0.70710678118654746 1 forward I I I I #
loop $-1 $-1 $170 $43 #
coedge $-1 $106 $106 $171 $172 reversed $67 $-1 #
face $-1 $-1 $173 $35 $-1 $174 forward single #
loop $-1 $175 $176 $69 #
cone-surface $-1 17.18286335881556 15.652407131001048 2.0352211965681999 0 -0.62932039886446345 -0.77714595512881146 1 0 0 1 I I -0.70710678118654746 0.70710678118654746 1 forward I I I I #
loop $-1 $-1 $177 $44 #
coedge $-1 $111 $111 $178 $179 reversed $70 $-1 #
face $-1 $180 $181 $27 $-1 $182 reversed single #
loop $-1 $-1 $183 $72 #
plane-surface $-1 0 -24.504308877403176 0 0 1 0 0 0 1 forward_v I I I I #
coedge $-1 $184 $185 $186 $187 forward $73 $-1 #
coedge $-1 $188 $75 $189 $190 forward $46 $-1 #
coedge $-1 $75 $188 $191 $192 forward $46 $-1 #
coedge $-1 $193 $194 $75 $119 reversed $195 $-1 #
edge $-1 $196 -24.504308877403176 $197 24.504308877403176 $118 $198 forward 7 unknown #
face $-1 $199 $200 $28 $-1 $201 reversed single #
loop $-1 $-1 $202 $76 #
plane-surface $-1 -43.764887950432119 -4.8164868424671923 0 -1 0 0 0 0 1 forward_v I I I I #
coedge $-1 $203 $204 $205 $206 forward $77 $-1 #
coedge $-1 $207 $79 $208 $209 reversed $49 $-1 #
coedge $-1 $79 $207 $210 $211 reversed $49 $-1 #
coedge $-1 $212 $213 $79 $127 forward $214 $-1 #
edge $-1 $215 -11.101909451844877 $216 11.101909451844877 $126 $217 forward 7 unknown #
face $-1 $218 $219 $29 $-1 $220 reversed single #
loop $-1 $-1 $221 $80 #
plane-surface $-1 0 -24.504308877403176 0 0 1 0 0 0 1 forward_v I I I I #
coedge $-1 $222 $223 $224 $225 reversed $81 $-1 #
coedge $-1 $226 $83 $227 $228 reversed $52 $-1 #
coedge $-1 $83 $226 $229 $230 reversed $52 $-1 #
coedge $-1 $231 $232 $83 $135 forward $219 $-1 #
edge $-1 $233 -24.504308877403176 $234 24.504308877403176 $134 $235 forward 7 unknown #
face $-1 $236 $237 $30 $-1 $238 reversed single #
loop $-1 $-1 $239 $84 #
plane-surface $-1 -25.453058422448088 -86.81669301989885 82.724952173060714 1 0 0 0 0.6018150307709319 -0.79863550430605224 forward_v I I I I #
coedge $-1 $240 $241 $242 $243 reversed $85 $-1 #
coedge $-1 $141 $87 $244 $245 reversed $55 $-1 #
coedge $-1 $87 $140 $240 $246 reversed $55 $-1 #
coedge $-1 $242 $247 $87 $143 forward $248 $-1 #
edge $-1 $249 18.904037632546249 $250 33.592144100015794 $142 $251 forward 7 unknown #
loop $-1 $-1 $149 $88 #
plane-surface $-1 -16.961688056061284 -24.504308877403169 0.03362711525164741 0 -0.6018150307709319 0.79863550430605224 1 0 0 forward_v I I I I #
loop $-1 $-1 $252 $57 #
coedge $-1 $147 $147 $148 $253 reversed $89 $-1 #
coedge $-1 $148 $148 $147 $253 forward $91 $-1 #
coedge $-1 $149 $149 $92 $150 forward $144 $-1 #
edge $-1 $254 9.866744131566643e-016 $254 6.2831853071796013 $149 $255 forward 7 unknown #
loop $-1 $-1 $156 $93 #
plane-surface $-1 -16.961688056061284 -24.504308877403169 0.03362711525164741 0 -0.6018150307709319 0.79863550430605224 1 0 0 forward_v I I I I #
loop $-1 $-1 $256 $60 #
coedge $-1 $154 $154 $155 $257 reversed $94 $-1 #
coedge $-1 $155 $155 $154 $257 forward $96 $-1 #
coedge $-1 $156 $156 $97 $157 forward $151 $-1 #
edge $-1 $258 9.866744131566643e-016 $258 6.2831853071796013 $156 $259 forward 7 unknown #
face $-1 $260 $261 $33 $-1 $262 reversed single #
loop $-1 $-1 $263 $98 #
plane-surface $-1 23.565475341556049 51.57777061217611 115.30706334811438 -1 0 0 0 0.62932039886446345 0.77714595512881146 forward_v I I I I #
coedge $-1 $264 $265 $266 $267 reversed $99 $-1 #
coedge $-1 $163 $101 $268 $269 reversed $64 $-1 #
coedge $-1 $101 $162 $264 $270 reversed $64 $-1 #
coedge $-1 $266 $271 $101 $165 forward $272 $-1 #
edge $-1 $273 1.2845764286848791 $274 10.056359272107137 $164 $275 forward 7 unknown #
loop $-1 $-1 $171 $102 #
plane-surface $-1 12.395904371760189 -13.582540177198638 34.840782489792858 0 0.62932039886446345 0.77714595512881146 1 0 0 forward_v I I I I #
loop $-1 $-1 $276 $66 #
coedge $-1 $169 $169 $170 $277 reversed $103 $-1 #
coedge $-1 $170 $170 $169 $277 forward $105 $-1 #
coedge $-1 $171 $171 $106 $172 forward $166 $-1 #
edge $-1 $278 8.0465627449088813e-016 $278 6.2831853071796013 $171 $279 forward 7 unknown #
loop $-1 $-1 $178 $107 #
plane-surface $-1 12.395904371760189 -13.582540177198638 34.840782489792858 0 0.62932039886446345 0.77714595512881146 1 0 0 forward_v I I I I #
loop $-1 $-1 $280 $69 #
coedge $-1 $176 $176 $177 $281 reversed $108 $-1 #
coedge $-1 $177 $177 $176 $281 forward $110 $-1 #
coedge $-1 $178 $178 $111 $179 forward $173 $-1 #
edge $-1 $282 8.0465627449088813e-016 $282 6.2831853071796013 $178 $283 forward 7 unknown #
face $-1 $284 $285 $27 $-1 $286 reversed single #
loop $-1 $-1 $287 $112 #
plane-surface $-1 -51.770378734702597 0 0 1 0 0 0 0 -1 forward_v I I I I #
coedge $-1 $288 $191 $289 $290 forward $113 $-1 #
coedge $-1 $291 $115 $288 $292 forward $73 $-1 #
coedge $-1 $115 $291 $293 $294 forward $73 $-1 #
coedge $-1 $194 $193 $115 $187 reversed $195 $-1 #
edge $-1 $295 -24.504308877403176 $296 24.504308877403176 $186 $297 forward 7 unknown #
coedge $-1 $117 $116 $298 $299 forward $46 $-1 #
coedge $-1 $300 $301 $116 $190 reversed $285 $-1 #
edge $-1 $197 -51.770378734702597 $302 51.770378734702597 $189 $303 forward 7 unknown #
coedge $-1 $183 $304 $117 $192 reversed $113 $-1 #
edge $-1 $305 -51.770378734702597 $196 51.770378734702597 $191 $306 forward 7 unknown #
coedge $-1 $186 $118 $304 $307 forward $195 $-1 #
coedge $-1 $118 $186 $300 $308 reversed $195 $-1 #
loop $-1 $-1 $193 $284 #
vertex $-1 $119 $309 #
vertex $-1 $119 $310 #
straight-curve $-1 51.770378734702597 0 11.101909451844877 0 1 0 I I #
face $-1 $311 $312 $28 $-1 $313 forward single #
loop $-1 $-1 $314 $120 #
plane-surface $-1 0 0 -11.101909451844877 0 0 1 1 0 0 forward_v I I I I #
coedge $-1 $315 $316 $207 $317 forward $121 $-1 #
coedge $-1 $318 $123 $314 $319 reversed $77 $-1 #
coedge $-1 $123 $318 $320 $321 reversed $77 $-1 #
coedge $-1 $316 $315 $123 $206 reversed $121 $-1 #
edge $-1 $322 -11.101909451844877 $323 11.101909451844877 $205 $324 forward 7 unknown #
coedge $-1 $125 $124 $202 $317 reversed $49 $-1 #
coedge $-1 $325 $326 $124 $209 forward $200 $-1 #
edge $-1 $327 19.88107127914844 $215 27.886562063418918 $208 $328 forward 7 unknown #
coedge $-1 $329 $330 $125 $211 forward $312 $-1 #
edge $-1 $216 -27.886562063418918 $331 -19.88107127914844 $210 $332 forward 7 unknown #
coedge $-1 $333 $126 $330 $334 reversed $214 $-1 #
coedge $-1 $126 $333 $325 $335 reversed $214 $-1 #
loop $-1 $-1 $333 $311 #
vertex $-1 $335 $336 #
vertex $-1 $127 $337 #
straight-curve $-1 -51.770378734702597 -7.3324837112209647 0 0 0 1 I I #
face $-1 $338 $339 $29 $-1 $340 forward single #
loop $-1 $-1 $134 $128 #
plane-surface $-1 51.770378734702597 0 0 -1 0 0 0 0 1 forward_v I I I I #
coedge $-1 $227 $341 $342 $343 forward $129 $-1 #
coedge $-1 $342 $131 $226 $344 reversed $81 $-1 #
coedge $-1 $131 $342 $345 $346 reversed $81 $-1 #
coedge $-1 $347 $229 $131 $225 forward $348 $-1 #
edge $-1 $349 1.8476020852482042 $350 6.7854056061471857 $224 $351 forward 7 unknown #
coedge $-1 $133 $132 $222 $344 forward $52 $-1 #
coedge $-1 $352 $221 $132 $228 forward $129 $-1 #
edge $-1 $353 18.140380171956888 $233 28.466792432482773 $227 $354 forward 7 unknown #
coedge $-1 $224 $355 $133 $230 forward $348 $-1 #
edge $-1 $234 -28.466792432482773 $349 -18.140380171956888 $229 $356 forward 7 unknown #
coedge $-1 $357 $134 $355 $358 reversed $219 $-1 #
coedge $-1 $134 $357 $352 $359 forward $219 $-1 #
vertex $-1 $135 $360 #
vertex $-1 $135 $361 #
straight-curve $-1 51.770378734702597 0 6.1641059309458992 0 1 0 I I #
face $-1 $-1 $248 $30 $-1 $362 forward single #
loop $-1 $-1 $363 $136 #
plane-surface $-1 0 -24.504308877403176 0 0 1 0 0 0 1 forward_v I I I I #
coedge $-1 $364 $365 $366 $367 reversed $137 $-1 #
coedge $-1 $368 $139 $141 $246 forward $85 $-1 #
coedge $-1 $139 $368 $364 $369 forward $85 $-1 #
coedge $-1 $366 $142 $139 $243 forward $248 $-1 #
edge $-1 $250 -0.010526338356161347 $370 16.972214394417446 $242 $371 forward 7 unknown #
coedge $-1 $372 $373 $140 $245 forward $237 $-1 #
edge $-1 $374 -41.328848971278717 $249 -30.260566634685482 $244 $375 forward 7 unknown #
edge $-1 $250 -18.391501990926741 $374 8.8984650215323313e-015 $141 $376 forward 7 unknown #
coedge $-1 $142 $366 $372 $377 forward $248 $-1 #
loop $-1 $-1 $366 $236 #
vertex $-1 $245 $378 #
vertex $-1 $143 $379 #
straight-curve $-1 -8.4703176896744807 -43.408346509949425 11.101909451844875 0 1 0 I I #
coedge $-1 $252 $252 $-1 $380 reversed $146 $-1 #
edge $-1 $381 0 $381 6.2831853071796004 $147 $382 forward 7 unknown #
vertex $-1 $150 $383 #
ellipse-curve $-1 -20.600846784512768 -17.160255643668407 5.5677682835482569 0 -0.6018150307709319 0.79863550430605224 2 0 0 1 I I #
coedge $-1 $256 $256 $-1 $384 reversed $153 $-1 #
edge $-1 $385 0 $385 6.2831853071796004 $154 $386 forward 7 unknown #
vertex $-1 $157 $387 #
ellipse-curve $-1 -13.322529327609793 -17.160255643668407 5.5677682835482569 0 -0.6018150307709319 0.79863550430605224 2 0 0 1 I I #
face $-1 $-1 $272 $33 $-1 $388 forward single #
loop $-1 $-1 $389 $158 #
plane-surface $-1 0 24.504308877403176 0 0 -1 0 0 0 -1 forward_v I I I I #
coedge $-1 $390 $391 $392 $393 reversed $159 $-1 #
coedge $-1 $394 $161 $163 $270 forward $99 $-1 #
coedge $-1 $161 $394 $390 $395 forward $99 $-1 #
coedge $-1 $392 $164 $161 $267 forward $272 $-1 #
edge $-1 $274 -4.9716187839157655 $396 17.367523155675954 $266 $397 forward 7 unknown #
coedge $-1 $398 $399 $162 $269 forward $261 $-1 #
edge $-1 $400 -53.654872057515092 $273 -46.551622222212316 $268 $401 forward 7 unknown #
edge $-1 $274 37.721442179185765 $400 49.008617754806359 $163 $402 forward 7 unknown #
coedge $-1 $164 $392 $398 $403 forward $272 $-1 #
loop $-1 $-1 $392 $260 #
vertex $-1 $269 $404 #
vertex $-1 $165 $405 #
straight-curve $-1 1.2263334019643288 25.788885306088055 11.101909451844875 0 -1 0 I I #
coedge $-1 $276 $276 $-1 $406 reversed $168 $-1 #
edge $-1 $407 0 $407 6.2831853071796004 $169 $408 forward 7 unknown #
vertex $-1 $172 $409 #
ellipse-curve $-1 7.6089453847048176 20.11841745569205 7.5502845341934854 0 0.62932039886446345 0.77714595512881146 2 0 0 1 I I #
coedge $-1 $280 $280 $-1 $410 reversed $175 $-1 #
edge $-1 $411 0 $411 6.2831853071796004 $176 $412 forward 7 unknown #
vertex $-1 $179 $413 #
ellipse-curve $-1 17.18286335881556 20.11841745569205 7.5502845341934854 0 0.62932039886446345 0.77714595512881146 2 0 0 1 I I #
face $-1 $-1 $195 $27 $-1 $414 reversed single #
loop $-1 $-1 $300 $180 #
plane-surface $-1 0 24.504308877403176 0 0 -1 0 0 0 -1 forward_v I I I I #
coedge $-1 $415 $298 $301 $416 forward $181 $-1 #
coedge $-1 $304 $183 $184 $292 reversed $113 $-1 #
coedge $-1 $298 $415 $183 $290 reversed $181 $-1 #
edge $-1 $305 -11.101909451844877 $417 11.101909451844877 $289 $418 forward 7 unknown #
coedge $-1 $185 $184 $415 $419 forward $73 $-1 #
edge $-1 $296 -51.770378734702597 $417 51.770378734702597 $288 $420 forward 7 unknown #
coedge $-1 $301 $300 $185 $294 reversed $285 $-1 #
edge $-1 $421 -51.770378734702597 $295 51.770378734702597 $293 $422 forward 7 unknown #
vertex $-1 $187 $423 #
vertex $-1 $307 $424 #
straight-curve $-1 51.770378734702597 0 -11.101909451844877 0 -1 0 I I #
coedge $-1 $287 $289 $188 $299 reversed $181 $-1 #
edge $-1 $302 -24.504308877403176 $305 24.504308877403176 $298 $425 forward 7 unknown #
coedge $-1 $293 $189 $194 $308 forward $285 $-1 #
coedge $-1 $189 $293 $287 $416 reversed $285 $-1 #
vertex $-1 $190 $426 #
straight-curve $-1 0 24.504308877403176 11.101909451844877 -1 0 0 I I #
coedge $-1 $191 $288 $193 $307 reversed $113 $-1 #
vertex $-1 $299 $427 #
straight-curve $-1 0 -24.504308877403176 11.101909451844877 1 0 0 I I #
edge $-1 $196 -11.101909451844877 $296 11.101909451844877 $193 $428 forward 7 unknown #
edge $-1 $197 -11.101909451844877 $295 11.101909451844877 $194 $429 forward 7 unknown #
point $-1 51.770378734702597 -24.504308877403176 11.101909451844877 #
point $-1 51.770378734702597 24.504308877403176 11.101909451844877 #
face $-1 $-1 $214 $28 $-1 $430 reversed single #
loop $-1 $-1 $320 $199 #
plane-surface $-1 0 0 11.101909451844877 0 0 1 1 0 0 forward_v I I I I #
coedge $-1 $326 $325 $203 $319 forward $200 $-1 #
coedge $-1 $205 $202 $326 $431 reversed $121 $-1 #
coedge $-1 $202 $205 $329 $432 reversed $121 $-1 #
edge $-1 $331 -11.101909451844877 $327 11.101909451844877 $202 $433 forward 7 unknown #
coedge $-1 $204 $203 $333 $434 reversed $77 $-1 #
edge $-1 $435 -27.886562063418918 $323 -19.88107127914844 $314 $436 forward 7 unknown #
coedge $-1 $330 $329 $204 $321 forward $312 $-1 #
edge $-1 $322 19.88107127914844 $437 27.886562063418918 $320 $438 forward 7 unknown #
vertex $-1 $321 $439 #
vertex $-1 $319 $440 #
straight-curve $-1 -43.764887950432119 -2.3004899737134199 0 0 0 -1 I I #
coedge $-1 $314 $208 $213 $335 forward $200 $-1 #
coedge $-1 $208 $314 $315 $431 forward $200 $-1 #
vertex $-1 $209 $441 #
straight-curve $-1 -23.883816671283679 -7.3324837112209647 -11.101909451844877 -1 0 0 I I #
coedge $-1 $320 $210 $316 $432 forward $312 $-1 #
coedge $-1 $210 $320 $212 $334 forward $312 $-1 #
vertex $-1 $211 $442 #
straight-curve $-1 -23.883816671283679 -7.3324837112209647 11.101909451844877 1 0 0 I I #
coedge $-1 $213 $212 $318 $434 forward $214 $-1 #
edge $-1 $437 2.3004899737134199 $216 7.3324837112209647 $212 $443 forward 7 unknown #
edge $-1 $215 -7.3324837112209647 $435 -2.3004899737134199 $213 $444 forward 7 unknown #
point $-1 -51.770378734702597 -7.3324837112209647 -11.101909451844877 #
point $-1 -51.770378734702597 -7.3324837112209647 11.101909451844877 #
face $-1 $-1 $348 $29 $-1 $445 reversed single #
loop $-1 $-1 $345 $218 #
plane-surface $-1 0 0 11.101909451844877 0 0 1 1 0 0 forward_v I I I I #
coedge $-1 $221 $352 $446 $447 reversed $129 $-1 #
coedge $-1 $223 $222 $221 $343 reversed $81 $-1 #
edge $-1 $448 -6.7854056061471857 $353 -1.8476020852482042 $221 $449 forward 7 unknown #
edge $-1 $353 -24.504308877403176 $349 24.504308877403176 $222 $450 forward 7 unknown #
coedge $-1 $446 $451 $223 $346 forward $339 $-1 #
edge $-1 $350 -24.504308877403176 $448 24.504308877403176 $345 $452 forward 7 unknown #
coedge $-1 $355 $224 $451 $453 reversed $348 $-1 #
loop $-1 $-1 $224 $338 #
vertex $-1 $230 $454 #
vertex $-1 $225 $455 #
straight-curve $-1 41.443966474176719 24.504308877403176 4.316503845697695 0 0 1 I I #
coedge $-1 $341 $227 $232 $359 reversed $129 $-1 #
vertex $-1 $228 $456 #
straight-curve $-1 23.303586302219831 -24.504308877403176 6.1641059309458992 1 0 0 I I #
coedge $-1 $229 $347 $231 $358 forward $348 $-1 #
straight-curve $-1 23.303586302219831 24.504308877403176 6.1641059309458992 -1 0 0 I I #
coedge $-1 $232 $231 $457 $458 reversed $219 $-1 #
edge $-1 $459 -11.101909451844877 $234 -6.1641059309458992 $231 $460 forward 7 unknown #
edge $-1 $461 -11.101909451844877 $233 -6.1641059309458992 $232 $462 forward 7 unknown #
point $-1 51.770378734702604 -24.504308877403176 6.1641059309458992 #
point $-1 51.770378734702604 24.504308877403176 6.1641059309458992 #
plane-surface $-1 0 0 11.101909451844877 0 0 1 1 0 0 forward_v I I I I #
coedge $-1 $373 $372 $365 $463 forward $237 $-1 #
coedge $-1 $365 $239 $241 $369 reversed $137 $-1 #
coedge $-1 $239 $364 $363 $463 reversed $137 $-1 #
coedge $-1 $247 $242 $239 $367 forward $248 $-1 #
edge $-1 $370 -33.592144100015794 $464 -18.904037632546249 $366 $465 forward 7 unknown #
coedge $-1 $241 $240 $373 $466 reversed $85 $-1 #
edge $-1 $467 -8.8984650215323313e-015 $370 18.391501990926741 $364 $468 forward 7 unknown #
vertex $-1 $243 $469 #
straight-curve $-1 -8.4808440280306421 -9.8162024099336307 11.101909451844877 -1 0 0 I I #
coedge $-1 $363 $244 $247 $377 reversed $237 $-1 #
coedge $-1 $244 $363 $368 $466 forward $237 $-1 #
vertex $-1 $245 $470 #
straight-curve $-1 -8.4703176896744807 -24.504308877403176 41.362476086530357 0 0 1 I I #
straight-curve $-1 -8.4703176896744807 -24.504308877403169 0.03362711525164741 0 -0.79863550430605224 -0.6018150307709319 I I #
edge $-1 $464 -25.453058422448088 $249 -8.4703176896744807 $372 $471 forward 7 unknown #
point $-1 -8.4703176896744807 -24.504308877403176 11.101909451844877 #
point $-1 -8.4703176896744807 -9.8162024099336289 11.101909451844877 #
edge $-1 $472 1 $472 0 $252 $-1 forward 7 unknown #
vertex $-1 $253 $473 #
ellipse-curve $-1 -20.600846784512768 -15.295101067269909 3.0926246105452968 0 -0.6018150307709319 0.79863550430605224 2 0 0 1 I I #
point $-1 -18.600846784512768 -17.16025564366841 5.5677682835482649 #
edge $-1 $474 1 $474 0 $256 $-1 forward 7 unknown #
vertex $-1 $257 $475 #
ellipse-curve $-1 -13.322529327609793 -15.295101067269909 3.0926246105452968 0 -0.6018150307709319 0.79863550430605224 2 0 0 1 I I #
point $-1 -11.322529327609793 -17.16025564366841 5.5677682835482649 #
plane-surface $-1 0 0 11.101909451844877 0 0 1 1 0 0 forward_v I I I I #
coedge $-1 $399 $398 $391 $476 forward $261 $-1 #
coedge $-1 $391 $263 $265 $395 reversed $159 $-1 #
coedge $-1 $263 $390 $389 $476 reversed $159 $-1 #
coedge $-1 $271 $266 $263 $393 forward $272 $-1 #
edge $-1 $396 -10.056359272107137 $477 -1.2845764286848791 $392 $478 forward 7 unknown #
coedge $-1 $265 $264 $399 $479 reversed $99 $-1 #
edge $-1 $480 -49.008617754806359 $396 -37.721442179185765 $390 $481 forward 7 unknown #
vertex $-1 $267 $482 #
straight-curve $-1 6.1979521858800943 15.732526033980916 11.101909451844877 1 0 0 I I #
coedge $-1 $389 $268 $271 $403 reversed $261 $-1 #
coedge $-1 $268 $389 $394 $479 forward $261 $-1 #
vertex $-1 $269 $483 #
straight-curve $-1 1.2263334019643288 24.504308877403176 57.653531674057191 0 0 1 I I #
straight-curve $-1 1.2263334019643288 -13.582540177198638 34.840782489792858 0 0.77714595512881146 -0.62932039886446345 I I #
edge $-1 $477 -23.565475341556049 $273 -1.2263334019643288 $398 $484 forward 7 unknown #
point $-1 1.2263334019643288 24.504308877403176 11.101909451844877 #
point $-1 1.2263334019643288 15.732526033980918 11.101909451844875 #
edge $-1 $485 1 $485 0 $276 $-1 forward 7 unknown #
vertex $-1 $277 $486 #
ellipse-curve $-1 7.6089453847048176 16.281727529865513 2.8123671516970115 0 0.62932039886446345 0.77714595512881146 2 0 0 1 I I #
point $-1 9.6089453847048176 20.118417455692057 7.5502845341934917 #
edge $-1 $487 1 $487 0 $280 $-1 forward 7 unknown #
vertex $-1 $281 $488 #
ellipse-curve $-1 17.18286335881556 16.281727529865513 2.8123671516970115 0 0.62932039886446345 0.77714595512881146 2 0 0 1 I I #
point $-1 19.18286335881556 20.118417455692057 7.5502845341934917 #
plane-surface $-1 51.770378734702597 0 0 -1 0 0 0 0 1 forward_v I I I I #
coedge $-1 $289 $287 $291 $419 reversed $181 $-1 #
edge $-1 $302 -11.101909451844877 $421 11.101909451844877 $301 $489 forward 7 unknown #
vertex $-1 $419 $490 #
straight-curve $-1 -51.770378734702597 -24.504308877403176 0 0 0 -1 I I #
edge $-1 $417 -24.504308877403176 $421 24.504308877403176 $415 $491 forward 7 unknown #
straight-curve $-1 0 -24.504308877403176 -11.101909451844877 -1 0 0 I I #
vertex $-1 $294 $492 #
straight-curve $-1 0 24.504308877403176 -11.101909451844877 1 0 0 I I #
point $-1 51.770378734702597 24.504308877403176 -11.101909451844877 #
point $-1 51.770378734702597 -24.504308877403176 -11.101909451844877 #
straight-curve $-1 -51.770378734702597 0 11.101909451844877 0 -1 0 I I #
point $-1 -51.770378734702597 24.504308877403176 11.101909451844877 #
point $-1 -51.770378734702597 -24.504308877403176 11.101909451844877 #
straight-curve $-1 51.770378734702597 -24.504308877403176 0 0 0 -1 I I #
straight-curve $-1 51.770378734702597 24.504308877403176 0 0 0 -1 I I #
plane-surface $-1 -51.770378734702597 0 0 1 0 0 0 0 -1 forward_v I I I I #
edge $-1 $323 -0.10775344752017624 $327 4.9242402899873685 $326 $493 forward 7 unknown #
edge $-1 $331 -4.9242402899873685 $322 0.10775344752017624 $329 $494 forward 7 unknown #
straight-curve $-1 -43.764887950432119 -7.3324837112209647 0 0 0 -1 I I #
edge $-1 $437 -11.101909451844877 $435 11.101909451844877 $333 $495 forward 7 unknown #
vertex $-1 $434 $496 #
straight-curve $-1 -23.883816671283679 -2.3004899737134199 -11.101909451844877 1 0 0 I I #
vertex $-1 $334 $497 #
straight-curve $-1 -23.883816671283679 -2.3004899737134199 11.101909451844877 -1 0 0 I I #
point $-1 -43.764887950432119 -2.3004899737134199 11.101909451844877 #
point $-1 -43.764887950432119 -2.3004899737134199 -11.101909451844877 #
point $-1 -43.764887950432119 -7.3324837112209647 -11.101909451844877 #
point $-1 -43.764887950432119 -7.3324837112209647 11.101909451844877 #
straight-curve $-1 -51.770378734702597 0 11.101909451844877 0 -1 0 I I #
straight-curve $-1 -51.770378734702597 0 -11.101909451844877 0 1 0 I I #
plane-surface $-1 0 24.504308877403176 0 0 -1 0 0 0 -1 forward_v I I I I #
coedge $-1 $457 $345 $341 $447 forward $339 $-1 #
edge $-1 $448 41.443966474176719 $461 51.770378734702597 $341 $498 forward 7 unknown #
vertex $-1 $447 $499 #
straight-curve $-1 41.443966474176719 -24.504308877403176 4.316503845697695 0 0 -1 I I #
straight-curve $-1 41.443966474176719 0 6.1641059309458992 0 1 0 I I #
coedge $-1 $345 $457 $347 $453 forward $339 $-1 #
straight-curve $-1 41.443966474176719 0 11.101909451844877 0 -1 0 I I #
edge $-1 $459 -51.770378734702597 $350 -41.443966474176719 $347 $500 forward 7 unknown #
point $-1 41.443966474176719 24.504308877403176 6.1641059309458992 #
point $-1 41.443966474176719 24.504308877403176 11.101909451844881 #
point $-1 41.443966474176719 -24.504308877403176 6.1641059309458992 #
coedge $-1 $451 $446 $357 $458 forward $339 $-1 #
edge $-1 $461 -24.504308877403176 $459 24.504308877403176 $357 $501 forward 7 unknown #
vertex $-1 $458 $502 #
straight-curve $-1 51.770378734702597 24.504308877403176 0 0 0 -1 I I #
vertex $-1 $458 $503 #
straight-curve $-1 51.770378734702597 -24.504308877403176 0 0 0 -1 I I #
edge $-1 $464 30.260566634685482 $467 41.328848971278717 $363 $504 forward 7 unknown #
vertex $-1 $377 $505 #
straight-curve $-1 -25.453058422448088 -43.408346509949425 11.101909451844875 0 -1 0 I I #
edge $-1 $467 -16.972214394417446 $374 0.010526338356161347 $373 $506 forward 7 unknown #
vertex $-1 $466 $507 #
straight-curve $-1 -25.453058422448088 -24.504308877403169 0.03362711525164741 0 0.79863550430605224 0.6018150307709319 I I #
point $-1 -25.453058422448088 -9.8162024099336289 11.101909451844877 #
point $-1 -8.4703176896744807 -24.504308877403176 0.033627115251642054 #
straight-curve $-1 0 -24.504308877403176 11.101909451844877 1 0 0 I I #
vertex $-1 $380 $508 #
point $-1 -18.600846784512768 -15.295101067269909 3.0926246105452968 #
vertex $-1 $384 $509 #
point $-1 -11.322529327609793 -15.295101067269909 3.0926246105452968 #
edge $-1 $477 46.551622222212316 $480 53.654872057515092 $389 $510 forward 7 unknown #
vertex $-1 $403 $511 #
straight-curve $-1 23.565475341556049 25.788885306088055 11.101909451844875 0 1 0 I I #
edge $-1 $480 -17.367523155675954 $400 4.9716187839157655 $399 $512 forward 7 unknown #
vertex $-1 $479 $513 #
straight-curve $-1 23.565475341556049 -13.582540177198638 34.840782489792858 0 -0.77714595512881146 0.62932039886446345 I I #
point $-1 23.565475341556049 15.732526033980918 11.101909451844875 #
point $-1 1.2263334019643288 24.504308877403176 3.9986596165420956 #
straight-curve $-1 0 24.504308877403176 11.101909451844877 -1 0 0 I I #
vertex $-1 $406 $514 #
point $-1 9.6089453847048176 16.281727529865513 2.8123671516970115 #
vertex $-1 $410 $515 #
point $-1 19.18286335881556 16.281727529865513 2.8123671516970115 #
straight-curve $-1 -51.770378734702597 24.504308877403176 0 0 0 -1 I I #
point $-1 -51.770378734702597 -24.504308877403176 -11.101909451844877 #
straight-curve $-1 -51.770378734702597 0 -11.101909451844877 0 1 0 I I #
point $-1 -51.770378734702597 24.504308877403176 -11.101909451844877 #
straight-curve $-1 -43.764887950432119 -2.4082434212335961 -11.101909451844877 0 -1 0 I I #
straight-curve $-1 -43.764887950432119 -2.4082434212335961 11.101909451844877 0 1 0 I I #
straight-curve $-1 -51.770378734702597 -2.3004899737134199 0 0 0 -1 I I #
point $-1 -51.770378734702597 -2.3004899737134199 -11.101909451844877 #
point $-1 -51.770378734702597 -2.3004899737134199 11.101909451844877 #
straight-curve $-1 0 -24.504308877403176 11.101909451844877 1 0 0 I I #
point $-1 41.443966474176719 -24.504308877403176 11.101909451844881 #
straight-curve $-1 0 24.504308877403176 11.101909451844877 -1 0 0 I I #
straight-curve $-1 51.770378734702597 0 11.101909451844877 0 1 0 I I #
point $-1 51.770378734702597 24.504308877403176 11.101909451844877 #
point $-1 51.770378734702597 -24.504308877403176 11.101909451844877 #
straight-curve $-1 -25.453058422448088 -24.504308877403176 41.362476086530357 0 0 -1 I I #
point $-1 -25.453058422448088 -24.504308877403176 11.101909451844877 #
straight-curve $-1 -8.4808440280306421 -24.504308877403176 0.033627115251641165 1 0 0 I I #
point $-1 -25.453058422448088 -24.504308877403176 0.033627115251642054 #
point $-1 -20.600846784512768 -14.091471005728048 1.4953536019331928 #
point $-1 -13.322529327609793 -14.091471005728048 1.4953536019331928 #
straight-curve $-1 23.565475341556049 24.504308877403176 57.653531674057191 0 0 -1 I I #
point $-1 23.565475341556049 24.504308877403176 11.101909451844877 #
straight-curve $-1 6.1979521858800943 24.504308877403176 3.9986596165420938 -1 0 0 I I #
point $-1 23.565475341556049 24.504308877403176 3.9986596165420956 #
point $-1 7.6089453847048176 15.023086732136585 1.2580752414393883 #
point $-1 17.18286335881556 15.023086732136585 1.2580752414393883 #
End-of-ACIS-data 