500 0 10 0           
7 Unknown 11 ACIS 5.0 NT 24 Fri Mar 26 19:50:19 1999 
-1 9.9999999999999995e-007 1e-010 
body $-1 $10 $-1 $11 #
body $-1 $12 $-1 $13 #
body $-1 $14 $-1 $15 #
body $-1 $16 $-1 $17 #
body $-1 $18 $-1 $19 #
body $-1 $20 $-1 $21 #
body $-1 $22 $-1 $23 #
body $-1 $24 $-1 $25 #
body $-1 $26 $-1 $27 #
body $-1 $28 $-1 $29 #
lump $-1 $-1 $30 $0 #
transform $-1 1 0 0 0 1 0 0 0 1 77.634205145420708 38.971816571428455 15.472882793796849 1 rotate no_reflect no_shear #
lump $-1 $-1 $31 $1 #
transform $-1 1 0 0 0 1 0 0 0 1 77.634205145420708 38.971816571428455 15.472882793796849 1 rotate no_reflect no_shear #
lump $-1 $-1 $32 $2 #
transform $-1 1 0 0 0 1 0 0 0 1 77.634205145420708 38.971816571428455 15.472882793796849 1 rotate no_reflect no_shear #
lump $-1 $-1 $33 $3 #
transform $-1 1 0 0 0 1 0 0 0 1 77.634205145420708 38.971816571428455 15.472882793796849 1 rotate no_reflect no_shear #
lump $-1 $-1 $34 $4 #
transform $-1 1 0 0 0 1 0 0 0 1 77.634205145420708 38.971816571428455 15.472882793796849 1 rotate no_reflect no_shear #
lump $-1 $-1 $35 $5 #
transform $-1 1 0 0 0 1 0 0 0 1 77.634205145420708 38.971816571428455 15.472882793796849 1 rotate no_reflect no_shear #
lump $-1 $-1 $36 $6 #
transform $-1 1 0 0 0 1 0 0 0 1 77.634205145420708 38.971816571428455 15.472882793796849 1 rotate no_reflect no_shear #
lump $-1 $-1 $37 $7 #
transform $-1 1 0 0 0 1 0 0 0 1 77.634205145420708 38.971816571428455 15.472882793796849 1 rotate no_reflect no_shear #
lump $-1 $-1 $38 $8 #
transform $-1 1 0 0 0 1 0 0 0 1 77.634205145420708 38.971816571428455 15.472882793796849 1 rotate no_reflect no_shear #
lump $-1 $-1 $39 $9 #
transform $-1 1 0 0 0 1 0 0 0 1 77.634205145420708 38.971816571428455 15.472882793796849 1 rotate no_reflect no_shear #
shell $-1 $-1 $-1 $40 $-1 $10 #
shell $-1 $-1 $-1 $41 $-1 $12 #
shell $-1 $-1 $-1 $42 $-1 $14 #
shell $-1 $-1 $-1 $43 $-1 $16 #
shell $-1 $-1 $-1 $44 $-1 $18 #
shell $-1 $-1 $-1 $45 $-1 $20 #
shell $-1 $-1 $-1 $46 $-1 $22 #
shell $-1 $-1 $-1 $47 $-1 $24 #
shell $-1 $-1 $-1 $48 $-1 $26 #
shell $-1 $-1 $-1 $49 $-1 $28 #
face $-1 $50 $51 $30 $-1 $52 forward single #
face $-1 $53 $54 $31 $-1 $55 forward single #
face $-1 $56 $57 $32 $-1 $58 reversed single #
face $-1 $59 $60 $33 $-1 $61 forward single #
face $-1 $62 $63 $34 $-1 $64 forward single #
face $-1 $65 $66 $35 $-1 $67 forward single #
face $-1 $68 $69 $36 $-1 $70 reversed single #
face $-1 $71 $72 $37 $-1 $73 forward single #
face $-1 $74 $75 $38 $-1 $76 forward single #
face $-1 $77 $78 $39 $-1 $79 forward single #
face $-1 $80 $81 $30 $-1 $82 reversed single #
loop $-1 $-1 $83 $40 #
plane-surface $-1 0 0 15.472882793796849 0 0 1 1 0 0 forward_v I I I I #
face $-1 $84 $85 $31 $-1 $86 reversed single #
loop $-1 $-1 $87 $41 #
plane-surface $-1 -77.634205145420708 0 0 1 0 0 0 0 -1 forward_v I I I I #
face $-1 $88 $89 $32 $-1 $90 reversed single #
loop $-1 $-1 $91 $42 #
plane-surface $-1 -41.478055069042298 -161.32499485768204 97.969959840080037 -1 0 0 0 -0.78801076186113728 0.61566146476048833 forward_v I I I I #
face $-1 $92 $93 $33 $-1 $94 forward single #
loop $-1 $95 $96 $43 #
cone-surface $-1 -59.56250732157212 -32.144556559370699 7.5878476130363097 0 0.78801076186113728 -0.61566146476048833 1.5 0 0 1 I I 0 1 1.5 forward I I I I #
face $-1 $97 $98 $34 $-1 $99 forward single #
loop $-1 $100 $101 $44 #
cone-surface $-1 -52.780837726873436 -32.144556559370699 7.5878476130363097 0 0.78801076186113728 -0.61566146476048833 1.5 0 0 1 I I 0 1 1.5 forward I I I I #
face $-1 $102 $103 $35 $-1 $104 forward single #
loop $-1 $105 $106 $45 #
cone-surface $-1 -45.999168132174752 -32.144556559370699 7.5878476130363097 0 0.78801076186113728 -0.61566146476048833 1.5 0 0 1 I I 0 1 1.5 forward I I I I #
face $-1 $107 $108 $36 $-1 $109 reversed single #
loop $-1 $-1 $110 $46 #
plane-surface $-1 -64.083620384704574 113.33810350819658 159.39038157520767 1 0 0 0 -0.78801076186113728 -0.61566146476048833 forward_v I I I I #
face $-1 $111 $112 $37 $-1 $113 forward single #
loop $-1 $114 $115 $47 #
cone-surface $-1 -59.56250732157212 32.144556559370692 7.5878476130363026 0 -0.78801076186113728 -0.61566146476048833 1.5 0 0 1 I I 0 1 1.5 forward I I I I #
face $-1 $116 $117 $38 $-1 $118 forward single #
loop $-1 $119 $120 $48 #
cone-surface $-1 -52.780837726873436 32.144556559370692 7.5878476130363026 0 -0.78801076186113728 -0.61566146476048833 1.5 0 0 1 I I 0 1 1.5 forward I I I I #
face $-1 $121 $122 $39 $-1 $123 forward single #
loop $-1 $124 $125 $49 #
cone-surface $-1 -45.999168132174752 32.144556559370692 7.5878476130363026 0 -0.78801076186113728 -0.61566146476048833 1.5 0 0 1 I I 0 1 1.5 forward I I I I #
face $-1 $126 $127 $30 $-1 $128 reversed single #
loop $-1 $-1 $129 $50 #
plane-surface $-1 0 0 -15.472882793796849 0 0 1 1 0 0 forward_v I I I I #
coedge $-1 $130 $131 $132 $133 forward $51 $-1 #
face $-1 $134 $135 $31 $-1 $136 forward single #
loop $-1 $-1 $137 $53 #
plane-surface $-1 0 38.971816571428455 0 0 -1 0 0 0 -1 forward_v I I I I #
coedge $-1 $138 $139 $140 $141 forward $54 $-1 #
face $-1 $142 $143 $32 $-1 $144 reversed single #
loop $-1 $-1 $145 $56 #
plane-surface $-1 -52.780837726873436 -38.971816571428448 2.3771829293881268 0 -0.78801076186113728 0.61566146476048833 1 0 0 forward_v I I I I #
coedge $-1 $146 $147 $148 $149 reversed $57 $-1 #
face $-1 $-1 $150 $33 $-1 $151 forward single #
loop $-1 $152 $153 $59 #
cone-surface $-1 -59.56250732157212 -29.842029371094327 5.7889162659097551 0 0.78801076186113728 -0.61566146476048833 0.75 0 0 1 I I -0.70710678118654757 0.70710678118654757 0.75 forward I I I I #
loop $-1 $-1 $154 $43 #
coedge $-1 $96 $96 $155 $156 reversed $60 $-1 #
face $-1 $-1 $157 $34 $-1 $158 forward single #
loop $-1 $159 $160 $62 #
cone-surface $-1 -52.780837726873436 -29.842029371094327 5.7889162659097551 0 0.78801076186113728 -0.61566146476048833 0.75 0 0 1 I I -0.70710678118654757 0.70710678118654757 0.75 forward I I I I #
loop $-1 $-1 $161 $44 #
coedge $-1 $101 $101 $162 $163 reversed $63 $-1 #
face $-1 $-1 $164 $35 $-1 $165 forward single #
loop $-1 $166 $167 $65 #
cone-surface $-1 -45.999168132174752 -29.842029371094327 5.7889162659097551 0 0.78801076186113728 -0.61566146476048833 0.75 0 0 1 I I -0.70710678118654757 0.70710678118654757 0.75 forward I I I I #
loop $-1 $-1 $168 $45 #
coedge $-1 $106 $106 $169 $170 reversed $66 $-1 #
face $-1 $171 $172 $36 $-1 $173 reversed single #
loop $-1 $-1 $174 $68 #
plane-surface $-1 -52.780837726873436 -9.0150747780570128 63.79760466451576 0 0.78801076186113728 0.61566146476048833 1 0 0 forward_v I I I I #
coedge $-1 $175 $176 $177 $178 reversed $69 $-1 #
face $-1 $-1 $179 $37 $-1 $180 forward single #
loop $-1 $181 $182 $71 #
cone-surface $-1 -59.56250732157212 29.84202937109432 5.7889162659097479 0 -0.78801076186113728 -0.61566146476048833 0.75 0 0 1 I I -0.70710678118654757 0.70710678118654757 0.75 forward I I I I #
loop $-1 $-1 $183 $47 #
coedge $-1 $115 $115 $184 $185 reversed $72 $-1 #
face $-1 $-1 $186 $38 $-1 $187 forward single #
loop $-1 $188 $189 $74 #
cone-surface $-1 -52.780837726873436 29.84202937109432 5.7889162659097479 0 -0.78801076186113728 -0.61566146476048833 0.75 0 0 1 I I -0.70710678118654757 0.70710678118654757 0.75 forward I I I I #
loop $-1 $-1 $190 $48 #
coedge $-1 $120 $120 $191 $192 reversed $75 $-1 #
face $-1 $-1 $193 $39 $-1 $194 forward single #
loop $-1 $195 $196 $77 #
cone-surface $-1 -45.999168132174752 29.84202937109432 5.7889162659097479 0 -0.78801076186113728 -0.61566146476048833 0.75 0 0 1 I I -0.70710678118654757 0.70710678118654757 0.75 forward I I I I #
loop $-1 $-1 $197 $49 #
coedge $-1 $125 $125 $198 $199 reversed $78 $-1 #
face $-1 $200 $201 $30 $-1 $202 reversed single #
loop $-1 $-1 $203 $80 #
plane-surface $-1 0 -38.971816571428455 0 0 1 0 0 0 1 forward_v I I I I #
coedge $-1 $204 $205 $206 $207 forward $81 $-1 #
coedge $-1 $208 $83 $209 $210 forward $51 $-1 #
coedge $-1 $83 $208 $211 $212 forward $51 $-1 #
coedge $-1 $213 $214 $83 $133 reversed $215 $-1 #
edge $-1 $216 -38.971816571428455 $217 38.971816571428455 $132 $218 forward 7 unknown #
face $-1 $219 $220 $31 $-1 $221 reversed single #
loop $-1 $-1 $140 $84 #
plane-surface $-1 -84.409497525778775 0 2.1444933290344688 0 0 1 1 0 0 forward_v I I I I #
coedge $-1 $222 $223 $139 $224 forward $85 $-1 #
coedge $-1 $225 $87 $226 $227 reversed $54 $-1 #
coedge $-1 $87 $225 $137 $224 reversed $54 $-1 #
coedge $-1 $228 $229 $87 $141 reversed $135 $-1 #
edge $-1 $230 -38.971816571428455 $231 38.971816571428455 $140 $232 forward 7 unknown #
face $-1 $233 $234 $32 $-1 $235 reversed single #
loop $-1 $-1 $236 $88 #
plane-surface $-1 -64.083620384704574 -161.32499485768204 97.969959840080037 1 0 0 0 0.78801076186113728 -0.61566146476048833 forward_v I I I I #
coedge $-1 $237 $238 $239 $240 reversed $89 $-1 #
coedge $-1 $147 $91 $241 $242 reversed $57 $-1 #
coedge $-1 $91 $146 $237 $243 reversed $57 $-1 #
coedge $-1 $239 $244 $91 $149 forward $245 $-1 #
edge $-1 $246 41.690680857412566 $247 51.922162647767074 $148 $248 forward 7 unknown #
loop $-1 $-1 $155 $92 #
plane-surface $-1 -52.780837726873436 -38.971816571428448 2.3771829293881268 0 -0.78801076186113728 0.61566146476048833 1 0 0 forward_v I I I I #
loop $-1 $-1 $249 $59 #
coedge $-1 $153 $153 $154 $250 reversed $93 $-1 #
coedge $-1 $154 $154 $153 $250 forward $95 $-1 #
coedge $-1 $155 $155 $96 $156 forward $150 $-1 #
edge $-1 $251 6.9962834334098429e-016 $251 6.2831853071796013 $155 $252 forward 7 unknown #
loop $-1 $-1 $162 $97 #
plane-surface $-1 -52.780837726873436 -38.971816571428448 2.3771829293881268 0 -0.78801076186113728 0.61566146476048833 1 0 0 forward_v I I I I #
loop $-1 $-1 $253 $62 #
coedge $-1 $160 $160 $161 $254 reversed $98 $-1 #
coedge $-1 $161 $161 $160 $254 forward $100 $-1 #
coedge $-1 $162 $162 $101 $163 forward $157 $-1 #
edge $-1 $255 6.9962834334098429e-016 $255 6.2831853071796013 $162 $256 forward 7 unknown #
loop $-1 $-1 $169 $102 #
plane-surface $-1 -52.780837726873436 -38.971816571428448 2.3771829293881268 0 -0.78801076186113728 0.61566146476048833 1 0 0 forward_v I I I I #
loop $-1 $-1 $257 $65 #
coedge $-1 $167 $167 $168 $258 reversed $103 $-1 #
coedge $-1 $168 $168 $167 $258 forward $105 $-1 #
coedge $-1 $169 $169 $106 $170 forward $164 $-1 #
edge $-1 $259 6.9962834334098429e-016 $259 6.2831853071796013 $169 $260 forward 7 unknown #
face $-1 $261 $262 $36 $-1 $263 forward single #
loop $-1 $-1 $264 $107 #
plane-surface $-1 -41.478055069042298 113.33810350819658 159.39038157520767 -1 0 0 0 0.78801076186113728 0.61566146476048833 forward_v I I I I #
coedge $-1 $265 $266 $267 $268 reversed $108 $-1 #
coedge $-1 $176 $110 $269 $270 reversed $69 $-1 #
coedge $-1 $110 $175 $265 $271 reversed $69 $-1 #
coedge $-1 $267 $272 $110 $178 forward $262 $-1 #
edge $-1 $273 17.697235182669836 $274 27.9287169730244 $177 $275 forward 7 unknown #
loop $-1 $-1 $184 $111 #
plane-surface $-1 -52.780837726873436 -9.0150747780570128 63.79760466451576 0 0.78801076186113728 0.61566146476048833 1 0 0 forward_v I I I I #
loop $-1 $-1 $276 $71 #
coedge $-1 $182 $182 $183 $277 reversed $112 $-1 #
coedge $-1 $183 $183 $182 $277 forward $114 $-1 #
coedge $-1 $184 $184 $115 $185 forward $179 $-1 #
edge $-1 $278 -2.3250062155223827e-016 $278 6.2831853071796004 $184 $279 forward 7 unknown #
loop $-1 $-1 $191 $116 #
plane-surface $-1 -52.780837726873436 -9.0150747780570128 63.79760466451576 0 0.78801076186113728 0.61566146476048833 1 0 0 forward_v I I I I #
loop $-1 $-1 $280 $74 #
coedge $-1 $189 $189 $190 $281 reversed $117 $-1 #
coedge $-1 $190 $190 $189 $281 forward $119 $-1 #
coedge $-1 $191 $191 $120 $192 forward $186 $-1 #
edge $-1 $282 -2.3250062155223827e-016 $282 6.2831853071796004 $191 $283 forward 7 unknown #
loop $-1 $-1 $198 $121 #
plane-surface $-1 -52.780837726873436 -9.0150747780570128 63.79760466451576 0 0.78801076186113728 0.61566146476048833 1 0 0 forward_v I I I I #
loop $-1 $-1 $284 $77 #
coedge $-1 $196 $196 $197 $285 reversed $122 $-1 #
coedge $-1 $197 $197 $196 $285 forward $124 $-1 #
coedge $-1 $198 $198 $125 $199 forward $193 $-1 #
edge $-1 $286 -2.3250062155223827e-016 $286 6.2831853071796004 $198 $287 forward 7 unknown #
face $-1 $288 $289 $30 $-1 $290 reversed single #
loop $-1 $-1 $291 $126 #
plane-surface $-1 -77.634205145420708 0 0 1 0 0 0 0 -1 forward_v I I I I #
coedge $-1 $292 $211 $291 $293 forward $127 $-1 #
coedge $-1 $294 $129 $292 $295 forward $81 $-1 #
coedge $-1 $129 $294 $296 $297 forward $81 $-1 #
coedge $-1 $214 $213 $129 $207 reversed $215 $-1 #
edge $-1 $298 -38.971816571428455 $299 38.971816571428455 $206 $300 forward 7 unknown #
coedge $-1 $131 $130 $301 $302 forward $51 $-1 #
coedge $-1 $303 $304 $130 $210 reversed $289 $-1 #
edge $-1 $217 -77.634205145420708 $305 77.634205145420708 $209 $306 forward 7 unknown #
coedge $-1 $203 $307 $131 $212 reversed $127 $-1 #
edge $-1 $308 -77.634205145420708 $216 77.634205145420708 $211 $309 forward 7 unknown #
coedge $-1 $206 $132 $307 $310 forward $215 $-1 #
coedge $-1 $132 $206 $303 $311 reversed $215 $-1 #
loop $-1 $-1 $213 $288 #
vertex $-1 $133 $312 #
vertex $-1 $133 $313 #
straight-curve $-1 77.634205145420708 0 15.472882793796849 0 1 0 I I #
face $-1 $314 $315 $31 $-1 $316 reversed single #
loop $-1 $-1 $317 $134 #
plane-surface $-1 -84.409497525778775 0 -3.3847944844878208 0 0 1 1 0 0 forward_v I I I I #
coedge $-1 $318 $137 $319 $320 reversed $85 $-1 #
coedge $-1 $137 $318 $228 $321 reversed $85 $-1 #
edge $-1 $230 -2.1444933290344688 $322 3.3847944844878208 $137 $323 forward 7 unknown #
coedge $-1 $139 $138 $317 $324 forward $54 $-1 #
coedge $-1 $325 $326 $138 $227 forward $327 $-1 #
edge $-1 $328 -3.3847944844878208 $231 2.1444933290344688 $226 $329 forward 7 unknown #
coedge $-1 $330 $140 $223 $321 forward $135 $-1 #
coedge $-1 $140 $330 $325 $331 forward $135 $-1 #
vertex $-1 $224 $332 #
vertex $-1 $331 $333 #
straight-curve $-1 -77.634205145420708 0 2.1444933290344688 0 -1 0 I I #
face $-1 $-1 $245 $32 $-1 $334 forward single #
loop $-1 $-1 $335 $142 #
plane-surface $-1 0 -38.971816571428455 0 0 1 0 0 0 1 forward_v I I I I #
coedge $-1 $336 $337 $338 $339 reversed $143 $-1 #
coedge $-1 $340 $145 $147 $243 forward $89 $-1 #
coedge $-1 $145 $340 $336 $341 forward $89 $-1 #
coedge $-1 $338 $148 $145 $240 forward $245 $-1 #
edge $-1 $247 15.08763620560558 $342 37.693201521267852 $239 $343 forward 7 unknown #
coedge $-1 $344 $345 $146 $242 forward $234 $-1 #
edge $-1 $346 -46.607796990651899 $246 -33.512097126243169 $241 $347 forward 7 unknown #
edge $-1 $247 -16.618681492977423 $346 1.1373479346495045e-014 $147 $348 forward 7 unknown #
coedge $-1 $148 $338 $344 $349 forward $245 $-1 #
loop $-1 $-1 $338 $233 #
vertex $-1 $242 $350 #
vertex $-1 $149 $351 #
straight-curve $-1 -41.478055069042298 -80.662497428841021 15.472882793796849 0 1 0 I I #
coedge $-1 $249 $249 $-1 $352 reversed $152 $-1 #
edge $-1 $353 0 $353 6.2831853071796004 $153 $354 forward 7 unknown #
vertex $-1 $156 $355 #
ellipse-curve $-1 -59.56250732157212 -33.856075676251201 8.9250328615924861 0 -0.78801076186113728 0.61566146476048833 1.5 0 0 1 I I #
coedge $-1 $253 $253 $-1 $356 reversed $159 $-1 #
edge $-1 $357 0 $357 6.2831853071796004 $160 $358 forward 7 unknown #
vertex $-1 $163 $359 #
ellipse-curve $-1 -52.780837726873436 -33.856075676251201 8.9250328615924861 0 -0.78801076186113728 0.61566146476048833 1.5 0 0 1 I I #
coedge $-1 $257 $257 $-1 $360 reversed $166 $-1 #
edge $-1 $361 0 $361 6.2831853071796004 $167 $362 forward 7 unknown #
vertex $-1 $170 $363 #
ellipse-curve $-1 -45.999168132174752 -33.856075676251201 8.9250328615924861 0 -0.78801076186113728 0.61566146476048833 1.5 0 0 1 I I #
face $-1 $-1 $364 $36 $-1 $365 reversed single #
loop $-1 $-1 $177 $171 #
plane-surface $-1 0 0 15.472882793796849 0 0 1 1 0 0 forward_v I I I I #
coedge $-1 $366 $367 $368 $369 reversed $172 $-1 #
coedge $-1 $370 $174 $176 $271 forward $108 $-1 #
coedge $-1 $174 $370 $366 $371 forward $108 $-1 #
coedge $-1 $368 $177 $174 $268 forward $262 $-1 #
edge $-1 $274 -37.693201521267852 $372 -15.08763620560558 $267 $373 forward 7 unknown #
coedge $-1 $374 $375 $175 $270 forward $364 $-1 #
edge $-1 $376 -77.318007858215793 $273 -64.222307993806993 $269 $377 forward 7 unknown #
edge $-1 $274 61.324951649879452 $376 77.943633142856982 $176 $378 forward 7 unknown #
coedge $-1 $177 $368 $374 $379 forward $262 $-1 #
vertex $-1 $178 $380 #
vertex $-1 $178 $381 #
straight-curve $-1 -64.083620384704574 56.669051754098291 15.472882793796856 0 -1 0 I I #
coedge $-1 $276 $276 $-1 $382 reversed $181 $-1 #
edge $-1 $383 0 $383 6.2831853071796004 $182 $384 forward 7 unknown #
vertex $-1 $185 $385 #
ellipse-curve $-1 -59.56250732157212 33.856075676251166 8.9250328615924577 0 0.78801076186113728 0.61566146476048833 1.5 0 0 1 I I #
coedge $-1 $280 $280 $-1 $386 reversed $188 $-1 #
edge $-1 $387 0 $387 6.2831853071796004 $189 $388 forward 7 unknown #
vertex $-1 $192 $389 #
ellipse-curve $-1 -52.780837726873436 33.856075676251166 8.9250328615924577 0 0.78801076186113728 0.61566146476048833 1.5 0 0 1 I I #
coedge $-1 $284 $284 $-1 $390 reversed $195 $-1 #
edge $-1 $391 0 $391 6.2831853071796004 $196 $392 forward 7 unknown #
vertex $-1 $199 $393 #
ellipse-curve $-1 -45.999168132174752 33.856075676251166 8.9250328615924577 0 0.78801076186113728 0.61566146476048833 1.5 0 0 1 I I #
face $-1 $-1 $215 $30 $-1 $394 reversed single #
loop $-1 $-1 $303 $200 #
plane-surface $-1 0 38.971816571428455 0 0 -1 0 0 0 -1 forward_v I I I I #
coedge $-1 $301 $395 $203 $293 reversed $201 $-1 #
coedge $-1 $307 $203 $204 $295 reversed $127 $-1 #
edge $-1 $308 -15.472882793796849 $396 15.472882793796849 $291 $397 forward 7 unknown #
coedge $-1 $205 $204 $395 $398 forward $81 $-1 #
edge $-1 $299 -77.634205145420708 $396 77.634205145420708 $292 $399 forward 7 unknown #
coedge $-1 $304 $303 $205 $297 reversed $289 $-1 #
edge $-1 $400 -77.634205145420708 $298 77.634205145420708 $296 $401 forward 7 unknown #
vertex $-1 $207 $402 #
vertex $-1 $310 $403 #
straight-curve $-1 77.634205145420708 0 -15.472882793796849 0 -1 0 I I #
coedge $-1 $404 $291 $208 $302 reversed $201 $-1 #
edge $-1 $305 -38.971816571428455 $308 38.971816571428455 $301 $405 forward 7 unknown #
coedge $-1 $296 $209 $214 $311 forward $289 $-1 #
coedge $-1 $209 $296 $404 $406 reversed $289 $-1 #
vertex $-1 $210 $407 #
straight-curve $-1 0 38.971816571428455 15.472882793796849 -1 0 0 I I #
coedge $-1 $211 $292 $213 $310 reversed $127 $-1 #
vertex $-1 $302 $408 #
straight-curve $-1 0 -38.971816571428455 15.472882793796849 1 0 0 I I #
edge $-1 $216 -15.472882793796849 $299 15.472882793796849 $213 $409 forward 7 unknown #
edge $-1 $217 -15.472882793796849 $298 15.472882793796849 $214 $410 forward 7 unknown #
point $-1 77.634205145420708 -38.971816571428455 15.472882793796849 #
point $-1 77.634205145420708 38.971816571428455 15.472882793796849 #
face $-1 $-1 $327 $31 $-1 $411 reversed single #
loop $-1 $-1 $412 $219 #
plane-surface $-1 -91.184789906136842 0 -0.62015057772667603 1 0 0 0 0 -1 forward_v I I I I #
coedge $-1 $413 $319 $225 $324 reversed $220 $-1 #
coedge $-1 $223 $222 $412 $414 reversed $85 $-1 #
coedge $-1 $317 $415 $222 $320 forward $220 $-1 #
edge $-1 $416 -6.7752923803580671 $322 6.7752923803580671 $222 $417 forward 7 unknown #
edge $-1 $230 -6.7752923803580671 $418 6.7752923803580671 $223 $419 forward 7 unknown #
vertex $-1 $224 $420 #
straight-curve $-1 -77.634205145420708 38.971816571428455 0 0 0 -1 I I #
edge $-1 $328 -38.971816571428455 $322 38.971816571428455 $317 $421 forward 7 unknown #
coedge $-1 $422 $226 $229 $331 reversed $327 $-1 #
coedge $-1 $226 $422 $413 $423 reversed $327 $-1 #
loop $-1 $-1 $226 $314 #
vertex $-1 $227 $424 #
straight-curve $-1 -77.634205145420708 -38.971816571428455 0 0 0 1 I I #
coedge $-1 $229 $228 $425 $426 forward $135 $-1 #
edge $-1 $427 -6.7752923803580671 $231 6.7752923803580671 $325 $428 forward 7 unknown #
point $-1 -77.634205145420708 38.971816571428455 2.1444933290344688 #
point $-1 -77.634205145420708 -38.971816571428455 2.1444933290344688 #
plane-surface $-1 0 0 15.472882793796849 0 0 1 1 0 0 forward_v I I I I #
coedge $-1 $345 $344 $337 $429 forward $234 $-1 #
coedge $-1 $337 $236 $238 $341 reversed $143 $-1 #
coedge $-1 $236 $336 $335 $429 reversed $143 $-1 #
coedge $-1 $244 $239 $236 $339 forward $245 $-1 #
edge $-1 $342 -51.922162647767074 $430 -41.690680857412566 $338 $431 forward 7 unknown #
coedge $-1 $238 $237 $345 $432 reversed $89 $-1 #
edge $-1 $433 -1.1373479346495045e-014 $342 16.618681492977423 $336 $434 forward 7 unknown #
vertex $-1 $240 $435 #
straight-curve $-1 -26.390418863436718 -28.740334781073951 15.472882793796849 -1 0 0 I I #
coedge $-1 $335 $241 $244 $349 reversed $234 $-1 #
coedge $-1 $241 $335 $340 $432 forward $234 $-1 #
vertex $-1 $242 $436 #
straight-curve $-1 -41.478055069042298 -38.971816571428455 48.984979920040018 0 0 1 I I #
straight-curve $-1 -41.478055069042298 -38.971816571428448 2.3771829293881268 0 -0.61566146476048833 -0.78801076186113728 I I #
edge $-1 $430 -64.083620384704574 $246 -41.478055069042298 $344 $437 forward 7 unknown #
point $-1 -41.478055069042298 -38.971816571428455 15.472882793796849 #
point $-1 -41.478055069042298 -28.740334781073948 15.472882793796849 #
edge $-1 $438 1 $438 0 $249 $-1 forward 7 unknown #
vertex $-1 $250 $439 #
ellipse-curve $-1 -59.56250732157212 -30.433037442490178 6.2506623644801209 0 -0.78801076186113728 0.61566146476048833 1.5 0 0 1 I I #
point $-1 -58.06250732157212 -33.856075676251216 8.9250328615924985 #
edge $-1 $440 1 $440 0 $253 $-1 forward 7 unknown #
vertex $-1 $254 $441 #
ellipse-curve $-1 -52.780837726873436 -30.433037442490178 6.2506623644801209 0 -0.78801076186113728 0.61566146476048833 1.5 0 0 1 I I #
point $-1 -51.280837726873436 -33.856075676251216 8.9250328615924985 #
edge $-1 $442 1 $442 0 $257 $-1 forward 7 unknown #
vertex $-1 $258 $443 #
ellipse-curve $-1 -45.999168132174752 -30.433037442490178 6.2506623644801209 0 -0.78801076186113728 0.61566146476048833 1.5 0 0 1 I I #
point $-1 -44.499168132174752 -33.856075676251216 8.9250328615924985 #
loop $-1 $-1 $269 $261 #
plane-surface $-1 0 38.971816571428455 0 0 -1 0 0 0 -1 forward_v I I I I #
coedge $-1 $367 $264 $266 $371 reversed $172 $-1 #
coedge $-1 $264 $366 $444 $445 reversed $172 $-1 #
coedge $-1 $272 $267 $264 $369 forward $262 $-1 #
edge $-1 $372 -27.9287169730244 $446 -17.697235182669836 $368 $447 forward 7 unknown #
coedge $-1 $266 $265 $375 $448 reversed $108 $-1 #
edge $-1 $449 -77.943633142856982 $372 -61.324951649879452 $366 $450 forward 7 unknown #
vertex $-1 $268 $451 #
straight-curve $-1 -26.390418863436718 28.740334781073891 15.472882793796845 1 0 0 I I #
coedge $-1 $444 $269 $272 $379 reversed $364 $-1 #
coedge $-1 $269 $444 $370 $448 forward $364 $-1 #
vertex $-1 $270 $452 #
straight-curve $-1 -64.083620384704574 38.971816571428455 79.695190787603835 0 0 1 I I #
straight-curve $-1 -64.083620384704574 -9.0150747780570128 63.79760466451576 0 0.61566146476048833 -0.78801076186113728 I I #
edge $-1 $446 41.478055069042298 $273 64.083620384704574 $374 $453 forward 7 unknown #
point $-1 -64.083620384704574 38.971816571428455 15.472882793796849 #
point $-1 -64.083620384704574 28.740334781073891 15.472882793796849 #
edge $-1 $454 1 $454 0 $276 $-1 forward 7 unknown #
vertex $-1 $277 $455 #
ellipse-curve $-1 -59.56250732157212 30.433037442490171 6.2506623644801138 0 0.78801076186113728 0.61566146476048833 1.5 0 0 1 I I #
point $-1 -58.06250732157212 33.856075676251209 8.9250328615924914 #
edge $-1 $456 1 $456 0 $280 $-1 forward 7 unknown #
vertex $-1 $281 $457 #
ellipse-curve $-1 -52.780837726873436 30.433037442490171 6.2506623644801138 0 0.78801076186113728 0.61566146476048833 1.5 0 0 1 I I #
point $-1 -51.280837726873436 33.856075676251209 8.9250328615924914 #
edge $-1 $458 1 $458 0 $284 $-1 forward 7 unknown #
vertex $-1 $285 $459 #
ellipse-curve $-1 -45.999168132174752 30.433037442490171 6.2506623644801138 0 0.78801076186113728 0.61566146476048833 1.5 0 0 1 I I #
point $-1 -44.499168132174752 33.856075676251209 8.9250328615924914 #
plane-surface $-1 77.634205145420708 0 0 -1 0 0 0 0 1 forward_v I I I I #
coedge $-1 $291 $404 $294 $398 reversed $201 $-1 #
vertex $-1 $398 $460 #
straight-curve $-1 -77.634205145420708 -38.971816571428455 0 0 0 -1 I I #
edge $-1 $396 -38.971816571428455 $400 38.971816571428455 $395 $461 forward 7 unknown #
straight-curve $-1 0 -38.971816571428455 -15.472882793796849 -1 0 0 I I #
vertex $-1 $297 $462 #
straight-curve $-1 0 38.971816571428455 -15.472882793796849 1 0 0 I I #
point $-1 77.634205145420708 38.971816571428455 -15.472882793796849 #
point $-1 77.634205145420708 -38.971816571428455 -15.472882793796849 #
coedge $-1 $395 $301 $304 $406 forward $201 $-1 #
straight-curve $-1 -77.634205145420708 0 15.472882793796849 0 -1 0 I I #
edge $-1 $305 -15.472882793796849 $400 15.472882793796849 $304 $463 forward 7 unknown #
point $-1 -77.634205145420708 38.971816571428455 15.472882793796849 #
point $-1 -77.634205145420708 -38.971816571428455 15.472882793796849 #
straight-curve $-1 77.634205145420708 -38.971816571428455 0 0 0 -1 I I #
straight-curve $-1 77.634205145420708 38.971816571428455 0 0 0 -1 I I #
plane-surface $-1 0 -38.971816571428455 0 0 1 0 0 0 1 forward_v I I I I #
coedge $-1 $464 $425 $318 $414 forward $315 $-1 #
coedge $-1 $415 $317 $326 $423 forward $220 $-1 #
edge $-1 $418 -2.7646439067611448 $416 2.7646439067611448 $318 $465 forward 7 unknown #
coedge $-1 $319 $413 $464 $466 forward $220 $-1 #
vertex $-1 $320 $467 #
straight-curve $-1 -84.409497525778775 38.971816571428455 -3.3847944844878208 1 0 0 I I #
vertex $-1 $321 $468 #
straight-curve $-1 -84.409497525778775 38.971816571428455 2.1444933290344688 -1 0 0 I I #
point $-1 -77.634205145420708 38.971816571428455 -3.3847944844878208 #
straight-curve $-1 -77.634205145420708 0 -3.3847944844878208 0 1 0 I I #
coedge $-1 $326 $325 $469 $470 forward $327 $-1 #
edge $-1 $328 -6.7752923803580671 $471 6.7752923803580671 $326 $472 forward 7 unknown #
point $-1 -77.634205145420708 -38.971816571428455 -3.3847944844878208 #
coedge $-1 $412 $469 $330 $426 reversed $315 $-1 #
edge $-1 $418 -38.971816571428455 $427 38.971816571428455 $425 $473 forward 7 unknown #
vertex $-1 $426 $474 #
straight-curve $-1 -84.409497525778775 -38.971816571428455 2.1444933290344688 1 0 0 I I #
edge $-1 $430 33.512097126243169 $433 46.607796990651899 $335 $475 forward 7 unknown #
vertex $-1 $349 $476 #
straight-curve $-1 -64.083620384704574 -80.662497428841021 15.472882793796849 0 -1 0 I I #
edge $-1 $433 -37.693201521267852 $346 -15.08763620560558 $345 $477 forward 7 unknown #
vertex $-1 $432 $478 #
straight-curve $-1 -64.083620384704574 -38.971816571428448 2.3771829293881268 0 0.61566146476048833 0.78801076186113728 I I #
point $-1 -64.083620384704574 -28.740334781073948 15.472882793796849 #
point $-1 -41.478055069042298 -38.971816571428455 2.3771829293881179 #
straight-curve $-1 0 -38.971816571428455 15.472882793796849 1 0 0 I I #
vertex $-1 $352 $479 #
point $-1 -58.06250732157212 -30.433037442490178 6.2506623644801209 #
vertex $-1 $356 $480 #
point $-1 -51.280837726873436 -30.433037442490178 6.2506623644801209 #
vertex $-1 $360 $481 #
point $-1 -44.499168132174752 -30.433037442490178 6.2506623644801209 #
coedge $-1 $375 $374 $367 $445 forward $364 $-1 #
edge $-1 $446 64.222307993806993 $449 77.318007858215793 $444 $482 forward 7 unknown #
vertex $-1 $379 $483 #
straight-curve $-1 -41.478055069042298 56.669051754098291 15.472882793796856 0 1 0 I I #
edge $-1 $449 15.08763620560558 $376 37.693201521267852 $375 $484 forward 7 unknown #
vertex $-1 $448 $485 #
straight-curve $-1 -41.478055069042298 -9.0150747780570128 63.79760466451576 0 -0.61566146476048833 0.78801076186113728 I I #
point $-1 -41.478055069042298 28.740334781073891 15.472882793796849 #
point $-1 -64.083620384704574 38.971816571428455 2.3771829293880486 #
straight-curve $-1 0 38.971816571428455 15.472882793796849 -1 0 0 I I #
vertex $-1 $382 $486 #
point $-1 -58.06250732157212 30.433037442490171 6.2506623644801138 #
vertex $-1 $386 $487 #
point $-1 -51.280837726873436 30.433037442490171 6.2506623644801138 #
vertex $-1 $390 $488 #
point $-1 -44.499168132174752 30.433037442490171 6.2506623644801138 #
point $-1 -77.634205145420708 -38.971816571428455 -15.472882793796849 #
straight-curve $-1 -77.634205145420708 0 -15.472882793796849 0 1 0 I I #
point $-1 -77.634205145420708 38.971816571428455 -15.472882793796849 #
straight-curve $-1 -77.634205145420708 38.971816571428455 0 0 0 -1 I I #
coedge $-1 $469 $412 $415 $466 reversed $315 $-1 #
straight-curve $-1 -91.184789906136842 38.971816571428455 -0.62015057772667603 0 0 -1 I I #
edge $-1 $471 -38.971816571428455 $416 38.971816571428455 $464 $489 forward 7 unknown #
point $-1 -91.184789906136842 38.971816571428455 -3.3847944844878208 #
point $-1 -91.184789906136842 38.971816571428455 2.1444933290344688 #
coedge $-1 $425 $464 $422 $470 reversed $315 $-1 #
edge $-1 $427 -2.7646439067611448 $471 2.7646439067611448 $469 $490 forward 7 unknown #
vertex $-1 $466 $491 #
straight-curve $-1 -84.409497525778775 -38.971816571428455 -3.3847944844878208 -1 0 0 I I #
straight-curve $-1 -91.184789906136842 0 2.1444933290344688 0 -1 0 I I #
point $-1 -91.184789906136842 -38.971816571428455 2.1444933290344688 #
straight-curve $-1 -64.083620384704574 -38.971816571428455 48.984979920040018 0 0 -1 I I #
point $-1 -64.083620384704574 -38.971816571428455 15.472882793796849 #
straight-curve $-1 -26.390418863436718 -38.971816571428455 2.3771829293881122 1 0 0 I I #
point $-1 -64.083620384704574 -38.971816571428455 2.3771829293881179 #
point $-1 -59.56250732157212 -29.251021299698476 5.3271701673393892 #
point $-1 -52.780837726873436 -29.251021299698476 5.3271701673393892 #
point $-1 -45.999168132174752 -29.251021299698476 5.3271701673393892 #
straight-curve $-1 -41.478055069042298 38.971816571428455 79.695190787603835 0 0 -1 I I #
point $-1 -41.478055069042298 38.971816571428455 15.472882793796849 #
straight-curve $-1 -26.390418863436718 38.971816571428462 2.3771829293880486 -1 0 0 I I #
point $-1 -41.478055069042298 38.971816571428455 2.3771829293880486 #
point $-1 -59.56250732157212 29.251021299698468 5.3271701673393821 #
point $-1 -52.780837726873436 29.251021299698468 5.3271701673393821 #
point $-1 -45.999168132174752 29.251021299698468 5.3271701673393821 #
straight-curve $-1 -91.184789906136842 0 -3.3847944844878208 0 1 0 I I #
straight-curve $-1 -91.184789906136842 -38.971816571428455 -0.62015057772667603 0 0 -1 I I #
point $-1 -91.184789906136842 -38.971816571428455 -3.3847944844878208 #
End-of-ACIS-data 