500 0 5 0           
7 Unknown 11 ACIS 5.0 NT 24 Thu Mar 25 16:24:16 1999 
-1 9.9999999999999995e-007 1e-010 
body $-1 $5 $-1 $6 #
body $-1 $7 $-1 $8 #
body $-1 $9 $-1 $10 #
body $-1 $11 $-1 $12 #
body $-1 $13 $-1 $14 #
lump $-1 $-1 $15 $0 #
transform $-1 1 0 0 0 1 0 0 0 1 53.605151524399545 36.518969586744774 16.019330709405072 1 rotate no_reflect no_shear #
lump $-1 $-1 $16 $1 #
transform $-1 1 0 0 0 1 0 0 0 1 53.605151524399545 36.518969586744774 16.019330709405072 1 rotate no_reflect no_shear #
lump $-1 $-1 $17 $2 #
transform $-1 1 0 0 0 1 0 0 0 1 53.605151524399545 36.518969586744774 16.019330709405072 1 rotate no_reflect no_shear #
lump $-1 $-1 $18 $3 #
transform $-1 1 0 0 0 1 0 0 0 1 53.605151524399545 36.518969586744774 16.019330709405072 1 rotate no_reflect no_shear #
lump $-1 $-1 $19 $4 #
transform $-1 1 0 0 0 1 0 0 0 1 53.605151524399545 36.518969586744774 16.019330709405072 1 rotate no_reflect no_shear #
shell $-1 $-1 $-1 $20 $-1 $5 #
shell $-1 $-1 $-1 $21 $-1 $7 #
shell $-1 $-1 $-1 $22 $-1 $9 #
shell $-1 $-1 $-1 $23 $-1 $11 #
shell $-1 $-1 $-1 $24 $-1 $13 #
face $-1 $25 $26 $15 $-1 $27 forward single #
face $-1 $28 $29 $16 $-1 $30 reversed single #
face $-1 $31 $32 $17 $-1 $33 forward single #
face $-1 $34 $35 $18 $-1 $36 reversed single #
face $-1 $37 $38 $19 $-1 $39 reversed single #
face $-1 $40 $41 $15 $-1 $42 reversed single #
loop $-1 $-1 $43 $20 #
plane-surface $-1 0 0 16.019330709405072 0 0 1 1 0 0 forward_v I I I I #
face $-1 $44 $45 $16 $-1 $46 forward single #
loop $-1 $-1 $47 $21 #
plane-surface $-1 0 -27.03375310579268 -5.5911424521578397 0 0 1 1 0 0 forward_v I I I I #
face $-1 $48 $49 $17 $-1 $50 forward single #
loop $-1 $-1 $51 $22 #
plane-surface $-1 30.032757703937719 71.698945754329898 136.11735508456471 1 0 0 0 -0.7660444514056185 -0.64278759981090561 forward_v I I I I #
face $-1 $52 $53 $18 $-1 $54 reversed single #
loop $-1 $55 $56 $23 #
cone-surface $-1 36.76772736692682 34.136483316052711 13.315068388234394 0 -0.7660444514056185 -0.64278759981090561 0.5 0 0 1 I I 0 1 0.5 forward I I I I #
face $-1 $57 $58 $19 $-1 $59 reversed single #
loop $-1 $60 $61 $24 #
cone-surface $-1 46.870181861410458 34.136483316052711 13.315068388234394 0 -0.7660444514056185 -0.64278759981090561 0.5 0 0 1 I I 0 1 0.5 forward I I I I #
face $-1 $62 $63 $15 $-1 $64 reversed single #
loop $-1 $-1 $65 $25 #
plane-surface $-1 0 0 -16.019330709405072 0 0 1 1 0 0 forward_v I I I I #
coedge $-1 $66 $67 $68 $69 forward $26 $-1 #
face $-1 $70 $71 $16 $-1 $72 forward single #
loop $-1 $-1 $73 $28 #
plane-surface $-1 0 -27.03375310579268 -14.330568082440347 0 0 1 1 0 0 forward_v I I I I #
coedge $-1 $74 $75 $76 $77 reversed $29 $-1 #
face $-1 $78 $79 $17 $-1 $80 reversed single #
loop $-1 $-1 $81 $31 #
plane-surface $-1 41.818954614168632 -10.428912029717509 67.203901712827317 0 0.7660444514056185 0.64278759981090561 1 0 0 forward_v I I I I #
coedge $-1 $82 $83 $84 $85 reversed $32 $-1 #
face $-1 $86 $87 $18 $-1 $88 forward single #
loop $-1 $89 $90 $34 #
cone-surface $-1 36.76772736692682 33.5619499774985 12.832977688376214 0 -0.7660444514056185 -0.64278759981090561 0.25 0 0 1 I I -0.70710678118654746 0.70710678118654746 0.25 forward I I I I #
loop $-1 $-1 $91 $23 #
coedge $-1 $56 $56 $92 $93 reversed $35 $-1 #
face $-1 $94 $95 $19 $-1 $96 reversed single #
loop $-1 $97 $98 $37 #
cone-surface $-1 46.870181861410458 33.5619499774985 12.832977688376214 0 -0.7660444514056185 -0.64278759981090561 0.25 0 0 1 I I -0.70710678118654746 0.70710678118654746 0.25 forward I I I I #
loop $-1 $-1 $99 $24 #
coedge $-1 $61 $61 $100 $101 reversed $38 $-1 #
face $-1 $102 $103 $15 $-1 $104 reversed single #
loop $-1 $-1 $105 $40 #
plane-surface $-1 0 -36.518969586744774 0 0 1 0 0 0 1 forward_v I I I I #
coedge $-1 $106 $107 $108 $109 forward $41 $-1 #
coedge $-1 $110 $43 $111 $112 forward $26 $-1 #
coedge $-1 $43 $110 $113 $114 forward $26 $-1 #
coedge $-1 $115 $116 $43 $69 reversed $117 $-1 #
edge $-1 $118 -36.518969586744774 $119 36.518969586744774 $68 $120 forward 7 unknown #
face $-1 $121 $122 $16 $-1 $123 reversed single #
loop $-1 $-1 $124 $44 #
plane-surface $-1 0 -17.548536624840587 -9.9608552672990935 0 -1 0 0 0 -1 forward_v I I I I #
coedge $-1 $125 $126 $127 $128 reversed $45 $-1 #
coedge $-1 $129 $47 $130 $131 reversed $29 $-1 #
coedge $-1 $47 $129 $132 $133 reversed $29 $-1 #
coedge $-1 $134 $135 $47 $77 forward $122 $-1 #
edge $-1 $136 -23.002093033848432 $137 -4.0316600719442466 $76 $138 forward 7 unknown #
face $-1 $139 $140 $17 $-1 $141 reversed single #
loop $-1 $-1 $142 $48 #
plane-surface $-1 0 36.518969586744774 0 0 -1 0 0 0 -1 forward_v I I I I #
coedge $-1 $143 $144 $145 $146 reversed $49 $-1 #
coedge $-1 $83 $51 $144 $147 forward $32 $-1 #
coedge $-1 $51 $82 $142 $148 reversed $32 $-1 #
coedge $-1 $149 $145 $51 $85 forward $150 $-1 #
edge $-1 $151 -3.329431380398681 $152 0.66949670957982477 $84 $153 forward 7 unknown #
face $-1 $154 $155 $18 $-1 $156 forward single #
loop $-1 $-1 $157 $52 #
plane-surface $-1 30.032757703937719 71.698945754329898 136.11735508456471 1 0 0 0 -0.7660444514056185 -0.64278759981090561 forward_v I I I I #
loop $-1 $-1 $158 $34 #
coedge $-1 $90 $90 $91 $159 forward $53 $-1 #
coedge $-1 $91 $91 $90 $159 reversed $55 $-1 #
coedge $-1 $92 $92 $56 $93 forward $155 $-1 #
edge $-1 $160 3.5031704213313594e-015 $160 6.283185307179604 $92 $161 forward 7 unknown #
face $-1 $162 $163 $19 $-1 $164 reversed single #
loop $-1 $165 $166 $57 #
cone-surface $-1 36.76772736692682 34.136483316052711 13.315068388234394 0 -0.7660444514056185 -0.64278759981090561 0.5 0 0 1 I I 0 1 0.5 forward I I I I #
loop $-1 $-1 $167 $37 #
coedge $-1 $98 $98 $99 $168 forward $58 $-1 #
coedge $-1 $99 $99 $98 $168 reversed $60 $-1 #
coedge $-1 $100 $100 $61 $101 forward $169 $-1 #
edge $-1 $170 3.5031704213313594e-015 $170 6.283185307179604 $100 $171 forward 7 unknown #
face $-1 $172 $173 $15 $-1 $174 reversed single #
loop $-1 $-1 $175 $62 #
plane-surface $-1 -53.605151524399545 0 0 1 0 0 0 0 -1 forward_v I I I I #
coedge $-1 $176 $113 $177 $178 forward $63 $-1 #
coedge $-1 $179 $65 $176 $180 forward $41 $-1 #
coedge $-1 $65 $179 $181 $182 forward $41 $-1 #
coedge $-1 $116 $115 $65 $109 reversed $117 $-1 #
edge $-1 $183 -36.518969586744774 $184 36.518969586744774 $108 $185 forward 7 unknown #
coedge $-1 $67 $66 $186 $187 forward $26 $-1 #
coedge $-1 $188 $189 $66 $112 reversed $173 $-1 #
edge $-1 $119 -53.605151524399545 $190 53.605151524399545 $111 $191 forward 7 unknown #
coedge $-1 $105 $192 $67 $114 reversed $63 $-1 #
edge $-1 $193 -53.605151524399545 $118 53.605151524399545 $113 $194 forward 7 unknown #
coedge $-1 $108 $68 $192 $195 forward $117 $-1 #
coedge $-1 $68 $108 $188 $196 reversed $117 $-1 #
loop $-1 $-1 $115 $172 #
vertex $-1 $69 $197 #
vertex $-1 $69 $198 #
straight-curve $-1 53.605151524399545 0 16.019330709405072 0 1 0 I I #
face $-1 $199 $200 $16 $-1 $201 reversed single #
loop $-1 $-1 $76 $70 #
plane-surface $-1 53.605151524399545 0 0 -1 0 0 0 0 1 forward_v I I I I #
coedge $-1 $132 $202 $134 $203 reversed $71 $-1 #
coedge $-1 $204 $73 $202 $205 reversed $45 $-1 #
coedge $-1 $73 $204 $206 $207 reversed $45 $-1 #
coedge $-1 $208 $134 $73 $128 forward $122 $-1 #
edge $-1 $209 4.0316600719442466 $210 23.002093033848432 $127 $211 forward 7 unknown #
coedge $-1 $75 $74 $212 $213 reversed $29 $-1 #
coedge $-1 $214 $215 $74 $131 forward $216 $-1 #
edge $-1 $217 -53.605151524399545 $136 53.605151524399545 $130 $218 forward 7 unknown #
coedge $-1 $219 $124 $75 $133 forward $71 $-1 #
edge $-1 $137 -53.605151524399545 $220 53.605151524399545 $132 $221 forward 7 unknown #
coedge $-1 $127 $76 $124 $203 forward $122 $-1 #
coedge $-1 $76 $222 $214 $223 forward $122 $-1 #
vertex $-1 $131 $224 #
vertex $-1 $77 $225 #
straight-curve $-1 53.605151524399545 -13.51687655289634 -5.5911424521578397 0 1 0 I I #
face $-1 $226 $227 $17 $-1 $228 forward single #
loop $-1 $-1 $229 $78 #
plane-surface $-1 0 -27.03375310579268 -5.5911424521578397 0 0 1 1 0 0 forward_v I I I I #
coedge $-1 $230 $231 $83 $148 forward $79 $-1 #
coedge $-1 $232 $81 $233 $234 reversed $49 $-1 #
coedge $-1 $81 $232 $82 $147 reversed $49 $-1 #
coedge $-1 $84 $235 $81 $146 forward $150 $-1 #
edge $-1 $236 -32.695674217315229 $151 -9.1232803968534029 $145 $237 forward 7 unknown #
edge $-1 $151 66.816711366427185 $238 73.03793917348959 $82 $239 forward 7 unknown #
edge $-1 $152 52.039346832877285 $238 56.805083875407789 $142 $240 forward 7 unknown #
coedge $-1 $241 $84 $231 $242 forward $150 $-1 #
loop $-1 $-1 $84 $243 #
vertex $-1 $146 $244 #
vertex $-1 $242 $245 #
straight-curve $-1 30.032757703937719 35.849472877164949 16.019330709405068 0 1 0 I I #
face $-1 $246 $247 $18 $-1 $248 reversed single #
loop $-1 $249 $92 $86 #
plane-surface $-1 41.818954614168632 -10.428912029717509 67.203901712827317 0 0.7660444514056185 0.64278759981090561 1 0 0 forward_v I I I I #
coedge $-1 $250 $251 $252 $253 reversed $87 $-1 #
coedge $-1 $158 $158 $-1 $254 forward $89 $-1 #
edge $-1 $255 0 $255 6.2831853071796004 $90 $256 forward 7 unknown #
vertex $-1 $93 $257 #
ellipse-curve $-1 36.76772736692682 34.519505541755507 13.636462188139832 0 -0.7660444514056185 -0.64278759981090561 0.5 0 0 1 I I #
face $-1 $258 $259 $19 $-1 $260 forward single #
loop $-1 $261 $262 $94 #
cone-surface $-1 36.76772736692682 33.5619499774985 12.832977688376214 0 -0.7660444514056185 -0.64278759981090561 0.25 0 0 1 I I -0.70710678118654746 0.70710678118654746 0.25 forward I I I I #
loop $-1 $-1 $263 $57 #
coedge $-1 $166 $166 $264 $265 reversed $95 $-1 #
coedge $-1 $167 $167 $-1 $266 forward $97 $-1 #
edge $-1 $267 0 $267 6.2831853071796004 $98 $268 forward 7 unknown #
loop $-1 $269 $100 $258 #
vertex $-1 $101 $270 #
ellipse-curve $-1 46.870181861410458 34.519505541755507 13.636462188139832 0 -0.7660444514056185 -0.64278759981090561 0.5 0 0 1 I I #
face $-1 $-1 $117 $15 $-1 $271 reversed single #
loop $-1 $-1 $188 $102 #
plane-surface $-1 0 36.518969586744774 0 0 -1 0 0 0 -1 forward_v I I I I #
coedge $-1 $272 $186 $189 $273 forward $103 $-1 #
coedge $-1 $192 $105 $106 $180 reversed $63 $-1 #
coedge $-1 $186 $272 $105 $178 reversed $103 $-1 #
edge $-1 $193 -16.019330709405072 $274 16.019330709405072 $177 $275 forward 7 unknown #
coedge $-1 $107 $106 $272 $276 forward $41 $-1 #
edge $-1 $184 -53.605151524399545 $274 53.605151524399545 $176 $277 forward 7 unknown #
coedge $-1 $189 $188 $107 $182 reversed $173 $-1 #
edge $-1 $278 -53.605151524399545 $183 53.605151524399545 $181 $279 forward 7 unknown #
vertex $-1 $109 $280 #
vertex $-1 $195 $281 #
straight-curve $-1 53.605151524399545 0 -16.019330709405072 0 -1 0 I I #
coedge $-1 $175 $177 $110 $187 reversed $103 $-1 #
edge $-1 $190 -36.518969586744774 $193 36.518969586744774 $186 $282 forward 7 unknown #
coedge $-1 $181 $111 $116 $196 forward $173 $-1 #
coedge $-1 $111 $181 $175 $273 reversed $173 $-1 #
vertex $-1 $112 $283 #
straight-curve $-1 0 36.518969586744774 16.019330709405072 -1 0 0 I I #
coedge $-1 $113 $176 $115 $195 reversed $63 $-1 #
vertex $-1 $187 $284 #
straight-curve $-1 0 -36.518969586744774 16.019330709405072 1 0 0 I I #
edge $-1 $118 -16.019330709405072 $184 16.019330709405072 $115 $285 forward 7 unknown #
edge $-1 $119 -16.019330709405072 $183 16.019330709405072 $116 $286 forward 7 unknown #
point $-1 53.605151524399545 -36.518969586744774 16.019330709405072 #
point $-1 53.605151524399545 36.518969586744774 16.019330709405072 #
face $-1 $287 $288 $16 $-1 $289 forward single #
loop $-1 $-1 $206 $121 #
plane-surface $-1 0 -36.518969586744774 0 0 1 0 0 0 1 forward_v I I I I #
coedge $-1 $124 $219 $125 $205 forward $71 $-1 #
edge $-1 $137 0.6107148185082929 $209 9.3501404487907998 $134 $290 forward 7 unknown #
coedge $-1 $126 $125 $291 $292 reversed $45 $-1 #
edge $-1 $293 -53.605151524399545 $209 53.605151524399545 $202 $294 forward 7 unknown #
coedge $-1 $295 $296 $126 $207 forward $200 $-1 #
edge $-1 $210 -53.605151524399545 $297 53.605151524399545 $206 $298 forward 7 unknown #
coedge $-1 $299 $127 $296 $300 forward $122 $-1 #
vertex $-1 $128 $301 #
vertex $-1 $300 $302 #
straight-curve $-1 53.605151524399545 -13.51687655289634 -14.330568082440347 0 -1 0 I I #
coedge $-1 $303 $304 $129 $213 forward $305 $-1 #
edge $-1 $220 4.0316600719442466 $217 23.002093033848432 $212 $306 forward 7 unknown #
coedge $-1 $307 $130 $135 $223 reversed $216 $-1 #
coedge $-1 $130 $307 $303 $308 forward $216 $-1 #
loop $-1 $-1 $130 $309 #
vertex $-1 $213 $310 #
straight-curve $-1 0 -36.518969586744774 -5.5911424521578397 1 0 0 I I #
coedge $-1 $202 $132 $304 $311 reversed $71 $-1 #
vertex $-1 $213 $312 #
straight-curve $-1 0 -17.548536624840587 -5.5911424521578397 -1 0 0 I I #
coedge $-1 $135 $313 $314 $315 reversed $122 $-1 #
edge $-1 $316 -16.019330709405072 $136 5.5911424521578397 $135 $317 forward 7 unknown #
point $-1 53.605151524399545 -36.518969586744774 -5.5911424521578397 #
point $-1 53.605151524399545 -17.548536624840587 -5.5911424521578397 #
face $-1 $318 $319 $17 $-1 $320 forward single #
loop $-1 $-1 $321 $139 #
plane-surface $-1 0 -27.03375310579268 -14.330568082440347 0 0 1 1 0 0 forward_v I I I I #
coedge $-1 $322 $323 $324 $325 reversed $140 $-1 #
coedge $-1 $326 $142 $232 $327 forward $79 $-1 #
coedge $-1 $142 $328 $149 $242 reversed $79 $-1 #
coedge $-1 $144 $143 $230 $327 reversed $49 $-1 #
coedge $-1 $329 $330 $143 $234 forward $331 $-1 #
edge $-1 $332 -43.94556349741903 $236 -37.724335690356611 $233 $333 forward 7 unknown #
coedge $-1 $145 $334 $329 $335 forward $150 $-1 #
vertex $-1 $234 $336 #
straight-curve $-1 20.909477307084316 32.520041496766261 16.019330709405068 -1 0 0 I I #
vertex $-1 $327 $337 #
straight-curve $-1 30.032757703937719 -10.428912029717509 67.203901712827317 0 0.64278759981090561 -0.7660444514056185 I I #
straight-curve $-1 30.032757703937719 36.518969586744774 68.058677542282354 0 0 -1 I I #
coedge $-1 $334 $149 $338 $339 forward $150 $-1 #
edge $-1 $152 -30.032757703937719 $340 53.605151524399545 $231 $341 forward 7 unknown #
face $-1 $342 $150 $17 $-1 $343 forward single #
point $-1 30.032757703937719 32.520041496766268 16.019330709405068 #
point $-1 30.032757703937719 36.518969586744774 16.019330709405072 #
face $-1 $344 $345 $18 $-1 $346 reversed single #
loop $-1 $-1 $347 $154 #
plane-surface $-1 0 36.518969586744774 0 0 -1 0 0 0 -1 forward_v I I I I #
loop $-1 $-1 $348 $86 #
coedge $-1 $251 $157 $349 $350 forward $87 $-1 #
coedge $-1 $157 $250 $347 $351 reversed $87 $-1 #
coedge $-1 $352 $353 $157 $253 forward $354 $-1 #
edge $-1 $355 -3.329431380398681 $356 0.66949670957982477 $252 $357 forward 7 unknown #
edge $-1 $358 1 $358 0 $158 $-1 forward 7 unknown #
vertex $-1 $159 $359 #
ellipse-curve $-1 36.76772736692682 33.753461090349901 12.993674588328942 0 0.7660444514056185 0.64278759981090561 0.5 0 0 1 I I #
point $-1 37.26772736692682 34.519505541755521 13.636462188139847 #
face $-1 $360 $169 $19 $-1 $361 forward single #
loop $-1 $-1 $362 $162 #
plane-surface $-1 30.032757703937719 71.698945754329898 136.11735508456471 1 0 0 0 -0.7660444514056185 -0.64278759981090561 forward_v I I I I #
loop $-1 $-1 $363 $94 #
coedge $-1 $262 $262 $263 $364 forward $163 $-1 #
coedge $-1 $263 $263 $262 $364 reversed $165 $-1 #
coedge $-1 $264 $264 $166 $265 forward $269 $-1 #
edge $-1 $365 3.5031704213313594e-015 $365 6.283185307179604 $264 $366 forward 7 unknown #
edge $-1 $367 1 $367 0 $167 $-1 forward 7 unknown #
vertex $-1 $168 $368 #
ellipse-curve $-1 46.870181861410458 33.753461090349901 12.993674588328942 0 0.7660444514056185 0.64278759981090561 0.5 0 0 1 I I #
loop $-1 $369 $264 $258 #
point $-1 47.370181861410458 34.519505541755521 13.636462188139847 #
plane-surface $-1 53.605151524399545 0 0 -1 0 0 0 0 1 forward_v I I I I #
coedge $-1 $177 $175 $179 $276 reversed $103 $-1 #
edge $-1 $190 -16.019330709405072 $278 16.019330709405072 $189 $370 forward 7 unknown #
vertex $-1 $276 $371 #
straight-curve $-1 -53.605151524399545 -36.518969586744774 0 0 0 -1 I I #
edge $-1 $274 -36.518969586744774 $278 36.518969586744774 $272 $372 forward 7 unknown #
straight-curve $-1 0 -36.518969586744774 -16.019330709405072 -1 0 0 I I #
vertex $-1 $182 $373 #
straight-curve $-1 0 36.518969586744774 -16.019330709405072 1 0 0 I I #
point $-1 53.605151524399545 36.518969586744774 -16.019330709405072 #
point $-1 53.605151524399545 -36.518969586744774 -16.019330709405072 #
straight-curve $-1 -53.605151524399545 0 16.019330709405072 0 -1 0 I I #
point $-1 -53.605151524399545 36.518969586744774 16.019330709405072 #
point $-1 -53.605151524399545 -36.518969586744774 16.019330709405072 #
straight-curve $-1 53.605151524399545 -36.518969586744774 0 0 0 -1 I I #
straight-curve $-1 53.605151524399545 36.518969586744774 0 0 0 -1 I I #
face $-1 $309 $374 $16 $-1 $375 reversed single #
loop $-1 $-1 $314 $199 #
plane-surface $-1 0 0 16.019330709405072 0 0 1 1 0 0 forward_v I I I I #
straight-curve $-1 53.605151524399545 -17.548536624840587 -4.9804276336495468 0 0 -1 I I #
coedge $-1 $304 $376 $204 $292 forward $305 $-1 #
edge $-1 $297 -23.002093033848432 $293 -4.0316600719442466 $291 $377 forward 7 unknown #
vertex $-1 $292 $378 #
straight-curve $-1 0 -17.548536624840587 -14.330568082440347 1 0 0 I I #
coedge $-1 $379 $206 $376 $380 forward $200 $-1 #
coedge $-1 $206 $379 $208 $300 reversed $200 $-1 #
vertex $-1 $380 $381 #
straight-curve $-1 0 -36.518969586744774 -14.330568082440347 -1 0 0 I I #
coedge $-1 $313 $208 $382 $383 reversed $122 $-1 #
edge $-1 $210 14.330568082440347 $384 16.019330709405072 $208 $317 forward 7 unknown #
point $-1 53.605151524399545 -17.548536624840587 -14.330568082440347 #
point $-1 53.605151524399545 -36.518969586744774 -14.330568082440347 #
coedge $-1 $385 $212 $215 $308 reversed $305 $-1 #
coedge $-1 $212 $291 $219 $311 forward $305 $-1 #
loop $-1 $-1 $212 $386 #
straight-curve $-1 -53.605151524399545 -13.51687655289634 -5.5911424521578397 0 -1 0 I I #
coedge $-1 $215 $214 $387 $388 reversed $216 $-1 #
edge $-1 $389 -16.019330709405072 $217 5.5911424521578397 $303 $390 forward 7 unknown #
face $-1 $386 $216 $16 $-1 $201 reversed single #
point $-1 -53.605151524399545 -36.518969586744774 -5.5911424521578397 #
edge $-1 $293 -9.3501404487907998 $220 -0.6107148185082929 $304 $391 forward 7 unknown #
point $-1 -53.605151524399545 -17.548536624840587 -5.5911424521578397 #
coedge $-1 $222 $299 $392 $393 reversed $122 $-1 #
coedge $-1 $394 $387 $222 $315 forward $288 $-1 #
edge $-1 $316 -36.518969586744774 $395 36.518969586744774 $222 $396 forward 7 unknown #
vertex $-1 $315 $397 #
straight-curve $-1 53.605151524399545 -36.518969586744774 0 0 0 -1 I I #
face $-1 $398 $331 $17 $-1 $399 reversed single #
loop $-1 $-1 $400 $226 #
plane-surface $-1 0 -17.548536624840587 -9.9608552672990935 0 -1 0 0 0 -1 forward_v I I I I #
coedge $-1 $401 $402 $403 $404 reversed $227 $-1 #
coedge $-1 $405 $229 $406 $407 reversed $140 $-1 #
coedge $-1 $229 $405 $408 $409 reversed $140 $-1 #
coedge $-1 $410 $411 $229 $325 forward $331 $-1 #
edge $-1 $412 -23.002093033848432 $413 -4.0316600719442466 $324 $414 forward 7 unknown #
coedge $-1 $415 $230 $330 $416 forward $79 $-1 #
edge $-1 $238 9.1232803968534029 $332 32.695674217315229 $230 $417 forward 7 unknown #
coedge $-1 $231 $415 $418 $419 reversed $79 $-1 #
coedge $-1 $411 $233 $235 $335 reversed $331 $-1 #
coedge $-1 $233 $420 $326 $416 reversed $331 $-1 #
loop $-1 $-1 $233 $318 #
vertex $-1 $416 $421 #
straight-curve $-1 53.605151524399545 8.2713063039010528 44.917848747965692 0 -0.64278759981090572 0.76604445140561861 I I #
coedge $-1 $235 $241 $422 $423 forward $150 $-1 #
edge $-1 $424 -36.518969586744774 $236 32.520041496766261 $329 $425 forward 7 unknown #
point $-1 53.605151524399545 32.520041496766261 16.019330709405072 #
point $-1 30.032757703937719 36.518969586744774 11.253593666874565 #
coedge $-1 $418 $426 $241 $339 reversed $427 $-1 #
edge $-1 $340 -36.518969586744774 $428 36.518969586744774 $338 $429 forward 7 unknown #
vertex $-1 $242 $430 #
straight-curve $-1 0 36.518969586744774 16.019330709405072 -1 0 0 I I #
face $-1 $431 $432 $17 $-1 $433 reversed single #
plane-surface $-1 0 0 16.019330709405072 0 0 1 1 0 0 forward_v I I I I #
face $-1 $434 $435 $18 $-1 $436 forward single #
loop $-1 $-1 $437 $246 #
plane-surface $-1 0 -27.03375310579268 -5.5911424521578397 0 0 1 1 0 0 forward_v I I I I #
coedge $-1 $438 $439 $251 $351 forward $247 $-1 #
coedge $-1 $440 $349 $353 $441 reversed $249 $-1 #
coedge $-1 $348 $442 $250 $350 reversed $249 $-1 #
edge $-1 $355 66.816711366427185 $443 73.03793917348959 $250 $444 forward 7 unknown #
edge $-1 $356 52.039346832877285 $443 56.805083875407789 $347 $445 forward 7 unknown #
coedge $-1 $446 $252 $439 $447 forward $354 $-1 #
coedge $-1 $252 $448 $348 $441 forward $354 $-1 #
loop $-1 $-1 $252 $449 #
vertex $-1 $441 $450 #
vertex $-1 $447 $451 #
straight-curve $-1 30.032757703937719 35.849472877164949 16.019330709405068 0 1 0 I I #
vertex $-1 $254 $452 #
point $-1 37.26772736692682 33.753461090349901 12.993674588328942 #
face $-1 $453 $454 $19 $-1 $455 reversed single #
plane-surface $-1 41.818954614168632 -10.428912029717509 67.203901712827317 0 0.7660444514056185 0.64278759981090561 1 0 0 forward_v I I I I #
coedge $-1 $456 $457 $458 $459 reversed $259 $-1 #
coedge $-1 $363 $363 $-1 $460 forward $261 $-1 #
edge $-1 $461 0 $461 6.2831853071796004 $262 $462 forward 7 unknown #
vertex $-1 $265 $463 #
ellipse-curve $-1 36.76772736692682 34.519505541755507 13.636462188139832 0 -0.7660444514056185 -0.64278759981090561 0.5 0 0 1 I I #
vertex $-1 $266 $464 #
point $-1 47.370181861410458 33.753461090349901 12.993674588328942 #
loop $-1 $-1 $465 $258 #
straight-curve $-1 -53.605151524399545 36.518969586744774 0 0 0 -1 I I #
point $-1 -53.605151524399545 -36.518969586744774 -16.019330709405072 #
straight-curve $-1 -53.605151524399545 0 -16.019330709405072 0 1 0 I I #
point $-1 -53.605151524399545 36.518969586744774 -16.019330709405072 #
loop $-1 $-1 $382 $287 #
plane-surface $-1 0 0 -16.019330709405072 0 0 1 1 0 0 forward_v I I I I #
coedge $-1 $291 $466 $295 $380 reversed $305 $-1 #
straight-curve $-1 -53.605151524399545 -13.51687655289634 -14.330568082440347 0 1 0 I I #
point $-1 -53.605151524399545 -17.548536624840587 -14.330568082440347 #
coedge $-1 $296 $295 $467 $468 reversed $200 $-1 #
edge $-1 $297 14.330568082440347 $469 16.019330709405072 $376 $390 forward 7 unknown #
point $-1 -53.605151524399545 -36.518969586744774 -14.330568082440347 #
coedge $-1 $467 $470 $299 $383 forward $374 $-1 #
edge $-1 $471 -36.518969586744774 $384 36.518969586744774 $299 $472 forward 7 unknown #
vertex $-1 $300 $473 #
coedge $-1 $474 $303 $475 $476 reversed $305 $-1 #
face $-1 $477 $305 $16 $-1 $478 reversed single #
coedge $-1 $314 $475 $307 $388 forward $288 $-1 #
edge $-1 $389 -53.605151524399545 $316 53.605151524399545 $307 $479 forward 7 unknown #
vertex $-1 $476 $480 #
straight-curve $-1 -53.605151524399545 -36.518969586744774 0 0 0 -1 I I #
straight-curve $-1 -53.605151524399545 -17.548536624840587 -4.9804276336495468 0 0 1 I I #
coedge $-1 $481 $482 $313 $393 forward $483 $-1 #
edge $-1 $395 -16.019330709405072 $471 16.019330709405072 $313 $484 forward 7 unknown #
coedge $-1 $475 $314 $482 $485 forward $288 $-1 #
vertex $-1 $315 $486 #
straight-curve $-1 53.605151524399545 0 16.019330709405072 0 1 0 I I #
point $-1 53.605151524399545 -36.518969586744774 16.019330709405072 #
face $-1 $243 $487 $17 $-1 $488 reversed single #
plane-surface $-1 53.605151524399545 0 0 -1 0 0 0 0 1 forward_v I I I I #
coedge $-1 $408 $489 $410 $490 reversed $319 $-1 #
coedge $-1 $491 $321 $489 $492 reversed $227 $-1 #
coedge $-1 $321 $491 $493 $494 reversed $227 $-1 #
coedge $-1 $495 $410 $321 $404 forward $331 $-1 #
edge $-1 $496 4.0316600719442466 $497 23.002093033848432 $403 $498 forward 7 unknown #
coedge $-1 $323 $322 $499 $500 reversed $140 $-1 #
coedge $-1 $501 $502 $322 $407 forward $503 $-1 #
edge $-1 $504 -53.605151524399545 $412 53.605151524399545 $406 $505 forward 7 unknown #
coedge $-1 $506 $400 $323 $409 forward $319 $-1 #
edge $-1 $413 -53.605151524399545 $507 53.605151524399545 $408 $508 forward 7 unknown #
coedge $-1 $403 $324 $400 $490 forward $331 $-1 #
coedge $-1 $324 $329 $501 $509 forward $331 $-1 #
vertex $-1 $407 $510 #
vertex $-1 $325 $511 #
straight-curve $-1 53.605151524399545 -13.51687655289634 -5.5911424521578397 0 1 0 I I #
coedge $-1 $328 $326 $512 $513 reversed $79 $-1 #
edge $-1 $332 -11.253593666874556 $514 16.019330709405072 $330 $515 forward 7 unknown #
straight-curve $-1 20.909477307084316 36.518969586744781 11.253593666874554 1 0 0 I I #
coedge $-1 $516 $338 $328 $419 forward $427 $-1 #
edge $-1 $340 -16.019330709405072 $517 16.019330709405072 $328 $518 forward 7 unknown #
coedge $-1 $330 $495 $519 $520 reversed $331 $-1 #
point $-1 53.605151524399545 36.518969586744774 11.253593666874556 #
coedge $-1 $502 $501 $334 $423 reversed $503 $-1 #
edge $-1 $428 -53.605151524399545 $424 53.605151524399545 $422 $521 forward 7 unknown #
vertex $-1 $335 $522 #
straight-curve $-1 53.605151524399545 0 16.019330709405072 0 1 0 I I #
coedge $-1 $338 $499 $502 $523 reversed $427 $-1 #
loop $-1 $-1 $499 $524 #
vertex $-1 $339 $525 #
straight-curve $-1 -53.605151524399545 0 16.019330709405072 0 -1 0 I I #
point $-1 -53.605151524399545 36.518969586744774 16.019330709405072 #
face $-1 $524 $503 $17 $-1 $488 reversed single #
loop $-1 $-1 $519 $342 #
plane-surface $-1 0 0 -16.019330709405072 0 0 1 1 0 0 forward_v I I I I #
face $-1 $526 $527 $18 $-1 $528 forward single #
loop $-1 $-1 $529 $344 #
plane-surface $-1 0 -27.03375310579268 -14.330568082440347 0 0 1 1 0 0 forward_v I I I I #
coedge $-1 $530 $531 $532 $533 reversed $345 $-1 #
coedge $-1 $534 $347 $442 $535 forward $247 $-1 #
coedge $-1 $347 $536 $352 $447 reversed $247 $-1 #
coedge $-1 $442 $348 $537 $538 reversed $249 $-1 #
edge $-1 $539 -32.695674217315229 $355 -9.1232803968534029 $353 $540 forward 7 unknown #
coedge $-1 $349 $440 $438 $535 reversed $249 $-1 #
vertex $-1 $535 $541 #
straight-curve $-1 30.032757703937719 -10.428912029717509 67.203901712827317 0 0.64278759981090561 -0.7660444514056185 I I #
straight-curve $-1 30.032757703937719 36.518969586744774 68.058677542282354 0 0 -1 I I #
coedge $-1 $542 $352 $543 $544 forward $354 $-1 #
edge $-1 $356 -30.032757703937719 $545 53.605151524399545 $439 $546 forward 7 unknown #
coedge $-1 $353 $542 $547 $548 forward $354 $-1 #
face $-1 $549 $354 $18 $-1 $550 forward single #
point $-1 30.032757703937719 32.520041496766268 16.019330709405068 #
point $-1 30.032757703937719 36.518969586744774 16.019330709405072 #
point $-1 36.76772736692682 33.370438864647099 12.672280788423487 #
face $-1 $551 $552 $19 $-1 $553 reversed single #
loop $-1 $-1 $554 $360 #
plane-surface $-1 0 36.518969586744774 0 0 -1 0 0 0 -1 forward_v I I I I #
coedge $-1 $457 $362 $555 $556 forward $259 $-1 #
coedge $-1 $362 $456 $554 $557 reversed $259 $-1 #
coedge $-1 $558 $559 $362 $459 forward $560 $-1 #
edge $-1 $561 -3.329431380398681 $562 0.66949670957982477 $458 $563 forward 7 unknown #
edge $-1 $564 1 $564 0 $363 $-1 forward 7 unknown #
vertex $-1 $364 $565 #
ellipse-curve $-1 36.76772736692682 33.753461090349901 12.993674588328942 0 0.7660444514056185 0.64278759981090561 0.5 0 0 1 I I #
point $-1 37.26772736692682 34.519505541755521 13.636462188139847 #
point $-1 46.870181861410458 33.370438864647099 12.672280788423487 #
coedge $-1 $566 $555 $559 $567 reversed $369 $-1 #
coedge $-1 $376 $474 $568 $569 reversed $305 $-1 #
coedge $-1 $568 $382 $379 $468 forward $374 $-1 #
edge $-1 $384 -53.605151524399545 $469 53.605151524399545 $379 $570 forward 7 unknown #
vertex $-1 $569 $571 #
coedge $-1 $382 $568 $481 $572 forward $374 $-1 #
vertex $-1 $383 $573 #
straight-curve $-1 53.605151524399545 0 -16.019330709405072 0 -1 0 I I #
point $-1 53.605151524399545 -36.518969586744774 -16.019330709405072 #
coedge $-1 $466 $385 $574 $575 forward $305 $-1 #
coedge $-1 $387 $394 $385 $476 forward $288 $-1 #
edge $-1 $576 -36.518969586744774 $389 36.518969586744774 $385 $577 forward 7 unknown #
face $-1 $-1 $483 $16 $-1 $578 reversed single #
plane-surface $-1 -53.605151524399545 0 0 1 0 0 0 0 -1 forward_v I I I I #
straight-curve $-1 0 -36.518969586744774 16.019330709405072 1 0 0 I I #
point $-1 -53.605151524399545 -36.518969586744774 16.019330709405072 #
coedge $-1 $574 $392 $470 $572 reversed $483 $-1 #
coedge $-1 $392 $574 $394 $485 reversed $483 $-1 #
loop $-1 $-1 $392 $477 #
straight-curve $-1 53.605151524399545 36.518969586744774 0 0 0 -1 I I #
edge $-1 $395 -53.605151524399545 $576 53.605151524399545 $482 $579 forward 7 unknown #
point $-1 53.605151524399545 36.518969586744774 16.019330709405072 #
loop $-1 $-1 $493 $398 #
plane-surface $-1 0 -36.518969586744774 0 0 1 0 0 0 1 forward_v I I I I #
coedge $-1 $400 $506 $401 $492 forward $319 $-1 #
edge $-1 $413 0.6107148185082929 $496 9.3501404487907998 $410 $580 forward 7 unknown #
coedge $-1 $402 $401 $581 $582 reversed $227 $-1 #
edge $-1 $583 -53.605151524399545 $496 53.605151524399545 $489 $584 forward 7 unknown #
coedge $-1 $585 $586 $402 $494 forward $487 $-1 #
edge $-1 $497 -53.605151524399545 $587 53.605151524399545 $493 $588 forward 7 unknown #
coedge $-1 $420 $403 $586 $589 forward $331 $-1 #
vertex $-1 $404 $590 #
vertex $-1 $589 $591 #
straight-curve $-1 53.605151524399545 -13.51687655289634 -14.330568082440347 0 -1 0 I I #
coedge $-1 $426 $592 $405 $500 forward $427 $-1 #
edge $-1 $507 4.0316600719442466 $504 23.002093033848432 $499 $593 forward 7 unknown #
coedge $-1 $422 $406 $411 $509 reversed $503 $-1 #
coedge $-1 $406 $422 $426 $523 forward $503 $-1 #
loop $-1 $-1 $406 $431 #
vertex $-1 $500 $594 #
straight-curve $-1 0 -36.518969586744774 -5.5911424521578397 1 0 0 I I #
coedge $-1 $489 $408 $592 $595 reversed $319 $-1 #
vertex $-1 $500 $596 #
straight-curve $-1 0 -17.548536624840587 -5.5911424521578397 -1 0 0 I I #
edge $-1 $424 -16.019330709405072 $412 5.5911424521578397 $411 $597 forward 7 unknown #
point $-1 53.605151524399545 -36.518969586744774 -5.5911424521578397 #
point $-1 53.605151524399545 -17.548536624840587 -5.5911424521578397 #
coedge $-1 $519 $598 $415 $513 forward $432 $-1 #
edge $-1 $517 -53.605151524399545 $514 53.605151524399545 $415 $599 forward 7 unknown #
vertex $-1 $520 $600 #
straight-curve $-1 53.605151524399545 36.518969586744774 0 0 0 -1 I I #
coedge $-1 $601 $418 $598 $602 reversed $427 $-1 #
vertex $-1 $513 $603 #
straight-curve $-1 -53.605151524399545 36.518969586744774 0 0 0 -1 I I #
coedge $-1 $604 $512 $420 $520 forward $432 $-1 #
edge $-1 $514 -36.518969586744774 $605 36.518969586744774 $420 $606 forward 7 unknown #
straight-curve $-1 0 -36.518969586744774 16.019330709405072 1 0 0 I I #
point $-1 53.605151524399545 -36.518969586744774 16.019330709405072 #
edge $-1 $428 -16.019330709405072 $504 5.5911424521578397 $426 $607 forward 7 unknown #
face $-1 $-1 $427 $17 $-1 $608 reversed single #
point $-1 -53.605151524399545 -36.518969586744774 16.019330709405072 #
face $-1 $609 $610 $18 $-1 $611 reversed single #
loop $-1 $-1 $612 $434 #
plane-surface $-1 0 -17.548536624840587 -9.9608552672990935 0 -1 0 0 0 -1 forward_v I I I I #
coedge $-1 $613 $614 $615 $616 reversed $435 $-1 #
coedge $-1 $617 $437 $618 $619 reversed $345 $-1 #
coedge $-1 $437 $617 $620 $621 reversed $345 $-1 #
coedge $-1 $622 $623 $437 $533 forward $610 $-1 #
edge $-1 $624 -23.002093033848432 $625 -4.0316600719442466 $532 $626 forward 7 unknown #
coedge $-1 $627 $438 $628 $629 forward $247 $-1 #
edge $-1 $443 9.1232803968534029 $630 32.695674217315229 $438 $631 forward 7 unknown #
coedge $-1 $439 $627 $632 $633 reversed $247 $-1 #
coedge $-1 $547 $628 $440 $538 forward $610 $-1 #
edge $-1 $630 -43.94556349741903 $539 -37.724335690356611 $537 $634 forward 7 unknown #
vertex $-1 $538 $635 #
straight-curve $-1 20.909477307084316 32.520041496766261 16.019330709405068 -1 0 0 I I #
point $-1 30.032757703937719 36.518969586744774 11.253593666874565 #
coedge $-1 $448 $446 $636 $637 forward $354 $-1 #
coedge $-1 $632 $638 $446 $544 reversed $639 $-1 #
edge $-1 $545 -36.518969586744774 $640 36.518969586744774 $543 $641 forward 7 unknown #
vertex $-1 $447 $642 #
straight-curve $-1 0 36.518969586744774 16.019330709405072 -1 0 0 I I #
coedge $-1 $623 $537 $448 $548 reversed $610 $-1 #
edge $-1 $643 -36.518969586744774 $539 32.520041496766261 $547 $644 forward 7 unknown #
face $-1 $645 $646 $18 $-1 $647 reversed single #
plane-surface $-1 0 0 16.019330709405072 0 0 1 1 0 0 forward_v I I I I #
face $-1 $648 $649 $19 $-1 $650 forward single #
loop $-1 $-1 $651 $453 #
plane-surface $-1 0 -27.03375310579268 -5.5911424521578397 0 0 1 1 0 0 forward_v I I I I #
coedge $-1 $652 $653 $457 $557 forward $454 $-1 #
coedge $-1 $465 $654 $456 $556 reversed $369 $-1 #
edge $-1 $561 66.816711366427185 $655 73.03793917348959 $456 $656 forward 7 unknown #
edge $-1 $562 52.039346832877285 $655 56.805083875407789 $554 $657 forward 7 unknown #
coedge $-1 $658 $458 $653 $659 forward $560 $-1 #
coedge $-1 $458 $660 $465 $567 forward $560 $-1 #
loop $-1 $-1 $458 $661 #
vertex $-1 $567 $662 #
vertex $-1 $659 $663 #
straight-curve $-1 30.032757703937719 35.849472877164949 16.019330709405068 0 1 0 I I #
vertex $-1 $460 $664 #
point $-1 37.26772736692682 33.753461090349901 12.993674588328942 #
coedge $-1 $654 $465 $665 $666 reversed $369 $-1 #
edge $-1 $667 -32.695674217315229 $561 -9.1232803968534029 $559 $668 forward 7 unknown #
coedge $-1 $470 $467 $466 $569 forward $374 $-1 #
edge $-1 $469 -36.518969586744774 $669 36.518969586744774 $466 $670 forward 7 unknown #
straight-curve $-1 0 -36.518969586744774 -16.019330709405072 -1 0 0 I I #
point $-1 -53.605151524399545 -36.518969586744774 -16.019330709405072 #
edge $-1 $669 -53.605151524399545 $471 53.605151524399545 $481 $671 forward 7 unknown #
point $-1 53.605151524399545 36.518969586744774 -16.019330709405072 #
coedge $-1 $482 $481 $474 $575 reversed $483 $-1 #
edge $-1 $576 -16.019330709405072 $669 16.019330709405072 $574 $672 forward 7 unknown #
vertex $-1 $485 $673 #
straight-curve $-1 -53.605151524399545 0 16.019330709405072 0 -1 0 I I #
plane-surface $-1 0 36.518969586744774 0 0 -1 0 0 0 -1 forward_v I I I I #
straight-curve $-1 0 36.518969586744774 16.019330709405072 -1 0 0 I I #
straight-curve $-1 53.605151524399545 -17.548536624840587 -4.9804276336495468 0 0 -1 I I #
coedge $-1 $592 $601 $491 $582 forward $427 $-1 #
edge $-1 $587 -23.002093033848432 $583 -4.0316600719442466 $581 $674 forward 7 unknown #
vertex $-1 $582 $675 #
straight-curve $-1 0 -17.548536624840587 -14.330568082440347 1 0 0 I I #
coedge $-1 $676 $493 $601 $677 forward $487 $-1 #
coedge $-1 $493 $676 $495 $589 reversed $487 $-1 #
vertex $-1 $677 $678 #
straight-curve $-1 0 -36.518969586744774 -14.330568082440347 -1 0 0 I I #
edge $-1 $497 14.330568082440347 $605 16.019330709405072 $495 $597 forward 7 unknown #
point $-1 53.605151524399545 -17.548536624840587 -14.330568082440347 #
point $-1 53.605151524399545 -36.518969586744774 -14.330568082440347 #
coedge $-1 $499 $581 $506 $595 forward $427 $-1 #
straight-curve $-1 -53.605151524399545 -13.51687655289634 -5.5911424521578397 0 -1 0 I I #
point $-1 -53.605151524399545 -36.518969586744774 -5.5911424521578397 #
edge $-1 $583 -9.3501404487907998 $507 -0.6107148185082929 $592 $679 forward 7 unknown #
point $-1 -53.605151524399545 -17.548536624840587 -5.5911424521578397 #
straight-curve $-1 53.605151524399545 -36.518969586744774 0 0 0 -1 I I #
coedge $-1 $512 $604 $516 $602 forward $432 $-1 #
straight-curve $-1 0 36.518969586744774 -16.019330709405072 1 0 0 I I #
point $-1 53.605151524399545 36.518969586744774 -16.019330709405072 #
coedge $-1 $581 $516 $585 $677 reversed $427 $-1 #
edge $-1 $680 -36.518969586744774 $517 36.518969586744774 $516 $681 forward 7 unknown #
point $-1 -53.605151524399545 36.518969586744774 -16.019330709405072 #
coedge $-1 $598 $519 $676 $682 forward $432 $-1 #
vertex $-1 $589 $683 #
straight-curve $-1 53.605151524399545 0 -16.019330709405072 0 -1 0 I I #
straight-curve $-1 -53.605151524399545 -36.518969586744774 0 0 0 -1 I I #
plane-surface $-1 -53.605151524399545 0 0 1 0 0 0 0 -1 forward_v I I I I #
face $-1 $449 $684 $18 $-1 $685 reversed single #
loop $-1 $-1 $537 $526 #
plane-surface $-1 53.605151524399545 0 0 -1 0 0 0 0 1 forward_v I I I I #
coedge $-1 $620 $686 $622 $687 reversed $527 $-1 #
coedge $-1 $688 $529 $686 $689 reversed $435 $-1 #
coedge $-1 $529 $688 $690 $691 reversed $435 $-1 #
coedge $-1 $692 $622 $529 $616 forward $610 $-1 #
edge $-1 $693 4.0316600719442466 $694 23.002093033848432 $615 $695 forward 7 unknown #
coedge $-1 $531 $530 $696 $697 reversed $345 $-1 #
coedge $-1 $698 $699 $530 $619 forward $700 $-1 #
edge $-1 $701 -53.605151524399545 $624 53.605151524399545 $618 $702 forward 7 unknown #
coedge $-1 $703 $612 $531 $621 forward $527 $-1 #
edge $-1 $625 -53.605151524399545 $704 53.605151524399545 $620 $705 forward 7 unknown #
coedge $-1 $615 $532 $612 $687 forward $610 $-1 #
coedge $-1 $532 $547 $698 $706 forward $610 $-1 #
vertex $-1 $619 $707 #
vertex $-1 $533 $708 #
straight-curve $-1 53.605151524399545 -13.51687655289634 -5.5911424521578397 0 1 0 I I #
coedge $-1 $536 $534 $709 $710 reversed $247 $-1 #
coedge $-1 $537 $711 $534 $629 reversed $610 $-1 #
edge $-1 $630 -11.253593666874556 $712 16.019330709405072 $628 $713 forward 7 unknown #
vertex $-1 $629 $714 #
straight-curve $-1 20.909477307084316 36.518969586744781 11.253593666874554 1 0 0 I I #
coedge $-1 $715 $543 $536 $633 forward $639 $-1 #
edge $-1 $545 -16.019330709405072 $716 16.019330709405072 $536 $717 forward 7 unknown #
straight-curve $-1 53.605151524399545 8.2713063039010528 44.917848747965692 0 -0.64278759981090572 0.76604445140561861 I I #
point $-1 53.605151524399545 32.520041496766261 16.019330709405072 #
coedge $-1 $699 $698 $542 $637 reversed $700 $-1 #
edge $-1 $640 -53.605151524399545 $643 53.605151524399545 $636 $718 forward 7 unknown #
coedge $-1 $543 $696 $699 $719 reversed $639 $-1 #
loop $-1 $-1 $696 $720 #
vertex $-1 $544 $721 #
straight-curve $-1 -53.605151524399545 0 16.019330709405072 0 -1 0 I I #
point $-1 -53.605151524399545 36.518969586744774 16.019330709405072 #
vertex $-1 $548 $722 #
straight-curve $-1 53.605151524399545 0 16.019330709405072 0 1 0 I I #
face $-1 $720 $700 $18 $-1 $685 reversed single #
loop $-1 $-1 $723 $549 #
plane-surface $-1 0 0 -16.019330709405072 0 0 1 1 0 0 forward_v I I I I #
face $-1 $724 $725 $19 $-1 $726 forward single #
loop $-1 $-1 $727 $551 #
plane-surface $-1 0 -27.03375310579268 -14.330568082440347 0 0 1 1 0 0 forward_v I I I I #
coedge $-1 $728 $729 $730 $731 reversed $552 $-1 #
coedge $-1 $732 $554 $654 $733 forward $454 $-1 #
coedge $-1 $554 $734 $558 $659 reversed $454 $-1 #
coedge $-1 $555 $566 $652 $733 reversed $369 $-1 #
vertex $-1 $733 $735 #
straight-curve $-1 30.032757703937719 -10.428912029717509 67.203901712827317 0 0.64278759981090561 -0.7660444514056185 I I #
straight-curve $-1 30.032757703937719 36.518969586744774 68.058677542282354 0 0 -1 I I #
coedge $-1 $736 $558 $737 $738 forward $560 $-1 #
edge $-1 $562 -30.032757703937719 $739 53.605151524399545 $653 $740 forward 7 unknown #
coedge $-1 $559 $736 $741 $742 forward $560 $-1 #
face $-1 $743 $560 $19 $-1 $744 forward single #
point $-1 30.032757703937719 32.520041496766268 16.019330709405068 #
point $-1 30.032757703937719 36.518969586744774 16.019330709405072 #
point $-1 36.76772736692682 33.370438864647099 12.672280788423487 #
coedge $-1 $741 $745 $566 $666 forward $746 $-1 #
edge $-1 $747 -43.94556349741903 $667 -37.724335690356611 $665 $748 forward 7 unknown #
vertex $-1 $666 $749 #
straight-curve $-1 20.909477307084316 32.520041496766261 16.019330709405068 -1 0 0 I I #
vertex $-1 $572 $750 #
straight-curve $-1 -53.605151524399545 0 -16.019330709405072 0 1 0 I I #
straight-curve $-1 0 36.518969586744774 -16.019330709405072 1 0 0 I I #
straight-curve $-1 -53.605151524399545 36.518969586744774 0 0 0 -1 I I #
point $-1 -53.605151524399545 36.518969586744774 16.019330709405072 #
straight-curve $-1 -53.605151524399545 -13.51687655289634 -14.330568082440347 0 1 0 I I #
point $-1 -53.605151524399545 -17.548536624840587 -14.330568082440347 #
coedge $-1 $586 $585 $604 $682 reversed $487 $-1 #
edge $-1 $587 14.330568082440347 $680 16.019330709405072 $601 $607 forward 7 unknown #
point $-1 -53.605151524399545 -36.518969586744774 -14.330568082440347 #
straight-curve $-1 -53.605151524399545 -17.548536624840587 -4.9804276336495468 0 0 1 I I #
vertex $-1 $602 $751 #
straight-curve $-1 -53.605151524399545 0 -16.019330709405072 0 1 0 I I #
edge $-1 $605 -53.605151524399545 $680 53.605151524399545 $676 $752 forward 7 unknown #
point $-1 53.605151524399545 -36.518969586744774 -16.019330709405072 #
loop $-1 $-1 $690 $609 #
plane-surface $-1 0 -36.518969586744774 0 0 1 0 0 0 1 forward_v I I I I #
coedge $-1 $612 $703 $613 $689 forward $527 $-1 #
edge $-1 $625 0.6107148185082929 $693 9.3501404487907998 $622 $753 forward 7 unknown #
coedge $-1 $614 $613 $754 $755 reversed $435 $-1 #
edge $-1 $756 -53.605151524399545 $693 53.605151524399545 $686 $757 forward 7 unknown #
coedge $-1 $758 $759 $614 $691 forward $684 $-1 #
edge $-1 $694 -53.605151524399545 $760 53.605151524399545 $690 $761 forward 7 unknown #
coedge $-1 $711 $615 $759 $762 forward $610 $-1 #
vertex $-1 $616 $763 #
vertex $-1 $762 $764 #
straight-curve $-1 53.605151524399545 -13.51687655289634 -14.330568082440347 0 -1 0 I I #
coedge $-1 $638 $765 $617 $697 forward $639 $-1 #
edge $-1 $704 4.0316600719442466 $701 23.002093033848432 $696 $766 forward 7 unknown #
coedge $-1 $636 $618 $623 $706 reversed $700 $-1 #
coedge $-1 $618 $636 $638 $719 forward $700 $-1 #
loop $-1 $-1 $618 $645 #
vertex $-1 $697 $767 #
straight-curve $-1 0 -36.518969586744774 -5.5911424521578397 1 0 0 I I #
coedge $-1 $686 $620 $765 $768 reversed $527 $-1 #
vertex $-1 $697 $769 #
straight-curve $-1 0 -17.548536624840587 -5.5911424521578397 -1 0 0 I I #
edge $-1 $643 -16.019330709405072 $624 5.5911424521578397 $623 $770 forward 7 unknown #
point $-1 53.605151524399545 -36.518969586744774 -5.5911424521578397 #
point $-1 53.605151524399545 -17.548536624840587 -5.5911424521578397 #
coedge $-1 $723 $771 $627 $710 forward $646 $-1 #
edge $-1 $716 -53.605151524399545 $712 53.605151524399545 $627 $772 forward 7 unknown #
coedge $-1 $628 $692 $723 $773 reversed $610 $-1 #
vertex $-1 $773 $774 #
straight-curve $-1 53.605151524399545 36.518969586744774 0 0 0 -1 I I #
point $-1 53.605151524399545 36.518969586744774 11.253593666874556 #
coedge $-1 $775 $632 $771 $776 reversed $639 $-1 #
vertex $-1 $710 $777 #
straight-curve $-1 -53.605151524399545 36.518969586744774 0 0 0 -1 I I #
straight-curve $-1 0 -36.518969586744774 16.019330709405072 1 0 0 I I #
edge $-1 $640 -16.019330709405072 $701 5.5911424521578397 $638 $778 forward 7 unknown #
face $-1 $-1 $639 $18 $-1 $779 reversed single #
point $-1 -53.605151524399545 -36.518969586744774 16.019330709405072 #
point $-1 53.605151524399545 -36.518969586744774 16.019330709405072 #
coedge $-1 $780 $709 $711 $773 forward $646 $-1 #
face $-1 $781 $746 $19 $-1 $782 reversed single #
loop $-1 $-1 $783 $648 #
plane-surface $-1 0 -17.548536624840587 -9.9608552672990935 0 -1 0 0 0 -1 forward_v I I I I #
coedge $-1 $784 $785 $786 $787 reversed $649 $-1 #
coedge $-1 $788 $651 $789 $790 reversed $552 $-1 #
coedge $-1 $651 $788 $791 $792 reversed $552 $-1 #
coedge $-1 $793 $794 $651 $731 forward $746 $-1 #
edge $-1 $795 -23.002093033848432 $796 -4.0316600719442466 $730 $797 forward 7 unknown #
coedge $-1 $798 $652 $745 $799 forward $454 $-1 #
edge $-1 $655 9.1232803968534029 $747 32.695674217315229 $652 $800 forward 7 unknown #
coedge $-1 $653 $798 $801 $802 reversed $454 $-1 #
point $-1 30.032757703937719 36.518969586744774 11.253593666874565 #
coedge $-1 $660 $658 $803 $804 forward $560 $-1 #
coedge $-1 $801 $805 $658 $738 reversed $806 $-1 #
edge $-1 $739 -36.518969586744774 $807 36.518969586744774 $737 $808 forward 7 unknown #
vertex $-1 $659 $809 #
straight-curve $-1 0 36.518969586744774 16.019330709405072 -1 0 0 I I #
coedge $-1 $794 $665 $660 $742 reversed $746 $-1 #
edge $-1 $810 -36.518969586744774 $667 32.520041496766261 $741 $811 forward 7 unknown #
face $-1 $812 $813 $19 $-1 $814 reversed single #
plane-surface $-1 0 0 16.019330709405072 0 0 1 1 0 0 forward_v I I I I #
coedge $-1 $665 $815 $732 $799 reversed $746 $-1 #
loop $-1 $-1 $665 $724 #
vertex $-1 $799 $816 #
straight-curve $-1 53.605151524399545 8.2713063039010528 44.917848747965692 0 -0.64278759981090572 0.76604445140561861 I I #
point $-1 53.605151524399545 32.520041496766261 16.019330709405072 #
point $-1 -53.605151524399545 36.518969586744774 -16.019330709405072 #
point $-1 -53.605151524399545 -36.518969586744774 -16.019330709405072 #
straight-curve $-1 0 -36.518969586744774 -16.019330709405072 -1 0 0 I I #
straight-curve $-1 53.605151524399545 -17.548536624840587 -4.9804276336495468 0 0 -1 I I #
coedge $-1 $765 $775 $688 $755 forward $639 $-1 #
edge $-1 $760 -23.002093033848432 $756 -4.0316600719442466 $754 $817 forward 7 unknown #
vertex $-1 $755 $818 #
straight-curve $-1 0 -17.548536624840587 -14.330568082440347 1 0 0 I I #
coedge $-1 $819 $690 $775 $820 forward $684 $-1 #
coedge $-1 $690 $819 $692 $762 reversed $684 $-1 #
vertex $-1 $820 $821 #
straight-curve $-1 0 -36.518969586744774 -14.330568082440347 -1 0 0 I I #
edge $-1 $694 14.330568082440347 $822 16.019330709405072 $692 $770 forward 7 unknown #
point $-1 53.605151524399545 -17.548536624840587 -14.330568082440347 #
point $-1 53.605151524399545 -36.518969586744774 -14.330568082440347 #
coedge $-1 $696 $754 $703 $768 forward $639 $-1 #
straight-curve $-1 -53.605151524399545 -13.51687655289634 -5.5911424521578397 0 -1 0 I I #
point $-1 -53.605151524399545 -36.518969586744774 -5.5911424521578397 #
edge $-1 $756 -9.3501404487907998 $704 -0.6107148185082929 $765 $823 forward 7 unknown #
point $-1 -53.605151524399545 -17.548536624840587 -5.5911424521578397 #
straight-curve $-1 53.605151524399545 -36.518969586744774 0 0 0 -1 I I #
coedge $-1 $709 $780 $715 $776 forward $646 $-1 #
straight-curve $-1 0 36.518969586744774 -16.019330709405072 1 0 0 I I #
edge $-1 $712 -36.518969586744774 $822 36.518969586744774 $711 $824 forward 7 unknown #
point $-1 53.605151524399545 36.518969586744774 -16.019330709405072 #
coedge $-1 $754 $715 $758 $820 reversed $639 $-1 #
edge $-1 $825 -36.518969586744774 $716 36.518969586744774 $715 $826 forward 7 unknown #
point $-1 -53.605151524399545 36.518969586744774 -16.019330709405072 #
straight-curve $-1 -53.605151524399545 -36.518969586744774 0 0 0 -1 I I #
plane-surface $-1 -53.605151524399545 0 0 1 0 0 0 0 -1 forward_v I I I I #
coedge $-1 $771 $723 $819 $827 forward $646 $-1 #
face $-1 $661 $828 $19 $-1 $829 reversed single #
plane-surface $-1 53.605151524399545 0 0 -1 0 0 0 0 1 forward_v I I I I #
coedge $-1 $791 $830 $793 $831 reversed $725 $-1 #
coedge $-1 $832 $727 $830 $833 reversed $649 $-1 #
coedge $-1 $727 $832 $834 $835 reversed $649 $-1 #
coedge $-1 $836 $793 $727 $787 forward $746 $-1 #
edge $-1 $837 4.0316600719442466 $838 23.002093033848432 $786 $839 forward 7 unknown #
coedge $-1 $729 $728 $840 $841 reversed $552 $-1 #
coedge $-1 $842 $843 $728 $790 forward $844 $-1 #
edge $-1 $845 -53.605151524399545 $795 53.605151524399545 $789 $846 forward 7 unknown #
coedge $-1 $847 $783 $729 $792 forward $725 $-1 #
edge $-1 $796 -53.605151524399545 $848 53.605151524399545 $791 $849 forward 7 unknown #
coedge $-1 $786 $730 $783 $831 forward $746 $-1 #
coedge $-1 $730 $741 $842 $850 forward $746 $-1 #
vertex $-1 $790 $851 #
vertex $-1 $731 $852 #
straight-curve $-1 53.605151524399545 -13.51687655289634 -5.5911424521578397 0 1 0 I I #
coedge $-1 $734 $732 $853 $854 reversed $454 $-1 #
edge $-1 $747 -11.253593666874556 $855 16.019330709405072 $745 $856 forward 7 unknown #
straight-curve $-1 20.909477307084316 36.518969586744781 11.253593666874554 1 0 0 I I #
coedge $-1 $857 $737 $734 $802 forward $806 $-1 #
edge $-1 $739 -16.019330709405072 $858 16.019330709405072 $734 $859 forward 7 unknown #
coedge $-1 $843 $842 $736 $804 reversed $844 $-1 #
edge $-1 $807 -53.605151524399545 $810 53.605151524399545 $803 $860 forward 7 unknown #
coedge $-1 $737 $840 $843 $861 reversed $806 $-1 #
loop $-1 $-1 $840 $862 #
vertex $-1 $738 $863 #
straight-curve $-1 -53.605151524399545 0 16.019330709405072 0 -1 0 I I #
point $-1 -53.605151524399545 36.518969586744774 16.019330709405072 #
vertex $-1 $742 $864 #
straight-curve $-1 53.605151524399545 0 16.019330709405072 0 1 0 I I #
face $-1 $862 $844 $19 $-1 $829 reversed single #
loop $-1 $-1 $865 $743 #
plane-surface $-1 0 0 -16.019330709405072 0 0 1 1 0 0 forward_v I I I I #
coedge $-1 $745 $836 $865 $866 reversed $746 $-1 #
point $-1 53.605151524399545 36.518969586744774 11.253593666874556 #
straight-curve $-1 -53.605151524399545 -13.51687655289634 -14.330568082440347 0 1 0 I I #
point $-1 -53.605151524399545 -17.548536624840587 -14.330568082440347 #
coedge $-1 $759 $758 $780 $827 reversed $684 $-1 #
edge $-1 $760 14.330568082440347 $825 16.019330709405072 $775 $778 forward 7 unknown #
point $-1 -53.605151524399545 -36.518969586744774 -14.330568082440347 #
vertex $-1 $762 $867 #
straight-curve $-1 -53.605151524399545 -17.548536624840587 -4.9804276336495468 0 0 1 I I #
straight-curve $-1 53.605151524399545 0 -16.019330709405072 0 -1 0 I I #
vertex $-1 $776 $868 #
straight-curve $-1 -53.605151524399545 0 -16.019330709405072 0 1 0 I I #
edge $-1 $822 -53.605151524399545 $825 53.605151524399545 $819 $869 forward 7 unknown #
loop $-1 $-1 $834 $781 #
plane-surface $-1 0 -36.518969586744774 0 0 1 0 0 0 1 forward_v I I I I #
coedge $-1 $783 $847 $784 $833 forward $725 $-1 #
edge $-1 $796 0.6107148185082929 $837 9.3501404487907998 $793 $870 forward 7 unknown #
coedge $-1 $785 $784 $871 $872 reversed $649 $-1 #
edge $-1 $873 -53.605151524399545 $837 53.605151524399545 $830 $874 forward 7 unknown #
coedge $-1 $875 $876 $785 $835 forward $828 $-1 #
edge $-1 $838 -53.605151524399545 $877 53.605151524399545 $834 $878 forward 7 unknown #
coedge $-1 $815 $786 $876 $879 forward $746 $-1 #
vertex $-1 $787 $880 #
vertex $-1 $879 $881 #
straight-curve $-1 53.605151524399545 -13.51687655289634 -14.330568082440347 0 -1 0 I I #
coedge $-1 $805 $882 $788 $841 forward $806 $-1 #
edge $-1 $848 4.0316600719442466 $845 23.002093033848432 $840 $883 forward 7 unknown #
coedge $-1 $803 $789 $794 $850 reversed $844 $-1 #
coedge $-1 $789 $803 $805 $861 forward $844 $-1 #
loop $-1 $-1 $789 $812 #
vertex $-1 $841 $884 #
straight-curve $-1 0 -36.518969586744774 -5.5911424521578397 1 0 0 I I #
coedge $-1 $830 $791 $882 $885 reversed $725 $-1 #
vertex $-1 $841 $886 #
straight-curve $-1 0 -17.548536624840587 -5.5911424521578397 -1 0 0 I I #
edge $-1 $810 -16.019330709405072 $795 5.5911424521578397 $794 $887 forward 7 unknown #
point $-1 53.605151524399545 -36.518969586744774 -5.5911424521578397 #
point $-1 53.605151524399545 -17.548536624840587 -5.5911424521578397 #
coedge $-1 $865 $888 $798 $854 forward $813 $-1 #
edge $-1 $858 -53.605151524399545 $855 53.605151524399545 $798 $889 forward 7 unknown #
vertex $-1 $866 $890 #
straight-curve $-1 53.605151524399545 36.518969586744774 0 0 0 -1 I I #
coedge $-1 $891 $801 $888 $892 reversed $806 $-1 #
vertex $-1 $854 $893 #
straight-curve $-1 -53.605151524399545 36.518969586744774 0 0 0 -1 I I #
straight-curve $-1 0 -36.518969586744774 16.019330709405072 1 0 0 I I #
edge $-1 $807 -16.019330709405072 $845 5.5911424521578397 $805 $894 forward 7 unknown #
face $-1 $-1 $806 $19 $-1 $895 reversed single #
point $-1 -53.605151524399545 -36.518969586744774 16.019330709405072 #
point $-1 53.605151524399545 -36.518969586744774 16.019330709405072 #
coedge $-1 $896 $853 $815 $866 forward $813 $-1 #
edge $-1 $855 -36.518969586744774 $897 36.518969586744774 $815 $898 forward 7 unknown #
point $-1 53.605151524399545 -36.518969586744774 -16.019330709405072 #
point $-1 -53.605151524399545 -36.518969586744774 -16.019330709405072 #
straight-curve $-1 0 -36.518969586744774 -16.019330709405072 -1 0 0 I I #
straight-curve $-1 53.605151524399545 -17.548536624840587 -4.9804276336495468 0 0 -1 I I #
coedge $-1 $882 $891 $832 $872 forward $806 $-1 #
edge $-1 $877 -23.002093033848432 $873 -4.0316600719442466 $871 $899 forward 7 unknown #
vertex $-1 $872 $900 #
straight-curve $-1 0 -17.548536624840587 -14.330568082440347 1 0 0 I I #
coedge $-1 $901 $834 $891 $902 forward $828 $-1 #
coedge $-1 $834 $901 $836 $879 reversed $828 $-1 #
vertex $-1 $902 $903 #
straight-curve $-1 0 -36.518969586744774 -14.330568082440347 -1 0 0 I I #
edge $-1 $838 14.330568082440347 $897 16.019330709405072 $836 $887 forward 7 unknown #
point $-1 53.605151524399545 -17.548536624840587 -14.330568082440347 #
point $-1 53.605151524399545 -36.518969586744774 -14.330568082440347 #
coedge $-1 $840 $871 $847 $885 forward $806 $-1 #
straight-curve $-1 -53.605151524399545 -13.51687655289634 -5.5911424521578397 0 -1 0 I I #
point $-1 -53.605151524399545 -36.518969586744774 -5.5911424521578397 #
edge $-1 $873 -9.3501404487907998 $848 -0.6107148185082929 $882 $904 forward 7 unknown #
point $-1 -53.605151524399545 -17.548536624840587 -5.5911424521578397 #
straight-curve $-1 53.605151524399545 -36.518969586744774 0 0 0 -1 I I #
coedge $-1 $853 $896 $857 $892 forward $813 $-1 #
straight-curve $-1 0 36.518969586744774 -16.019330709405072 1 0 0 I I #
point $-1 53.605151524399545 36.518969586744774 -16.019330709405072 #
coedge $-1 $871 $857 $875 $902 reversed $806 $-1 #
edge $-1 $905 -36.518969586744774 $858 36.518969586744774 $857 $906 forward 7 unknown #
point $-1 -53.605151524399545 36.518969586744774 -16.019330709405072 #
straight-curve $-1 -53.605151524399545 -36.518969586744774 0 0 0 -1 I I #
plane-surface $-1 -53.605151524399545 0 0 1 0 0 0 0 -1 forward_v I I I I #
coedge $-1 $888 $865 $901 $907 forward $813 $-1 #
vertex $-1 $879 $908 #
straight-curve $-1 53.605151524399545 0 -16.019330709405072 0 -1 0 I I #
straight-curve $-1 -53.605151524399545 -13.51687655289634 -14.330568082440347 0 1 0 I I #
point $-1 -53.605151524399545 -17.548536624840587 -14.330568082440347 #
coedge $-1 $876 $875 $896 $907 reversed $828 $-1 #
edge $-1 $877 14.330568082440347 $905 16.019330709405072 $891 $894 forward 7 unknown #
point $-1 -53.605151524399545 -36.518969586744774 -14.330568082440347 #
straight-curve $-1 -53.605151524399545 -17.548536624840587 -4.9804276336495468 0 0 1 I I #
vertex $-1 $892 $909 #
straight-curve $-1 -53.605151524399545 0 -16.019330709405072 0 1 0 I I #
edge $-1 $897 -53.605151524399545 $905 53.605151524399545 $901 $910 forward 7 unknown #
point $-1 53.605151524399545 -36.518969586744774 -16.019330709405072 #
point $-1 -53.605151524399545 -36.518969586744774 -16.019330709405072 #
straight-curve $-1 0 -36.518969586744774 -16.019330709405072 -1 0 0 I I #
End-of-ACIS-data 