500 0 17 0           
7 Unknown 11 ACIS 5.0 NT 24 Fri Mar 26 01:00:59 1999 
-1 9.9999999999999995e-007 1e-010 
body $-1 $17 $-1 $18 #
body $-1 $19 $-1 $20 #
body $-1 $21 $-1 $22 #
body $-1 $23 $-1 $24 #
body $-1 $25 $-1 $26 #
body $-1 $27 $-1 $28 #
body $-1 $29 $-1 $30 #
body $-1 $31 $-1 $32 #
body $-1 $33 $-1 $34 #
body $-1 $35 $-1 $36 #
body $-1 $37 $-1 $38 #
body $-1 $39 $-1 $40 #
body $-1 $41 $-1 $42 #
body $-1 $43 $-1 $44 #
body $-1 $45 $-1 $46 #
body $-1 $47 $-1 $48 #
body $-1 $49 $-1 $50 #
lump $-1 $-1 $51 $0 #
transform $-1 1 0 0 0 1 0 0 0 1 60.53407391582995 41.534204028603625 14.050037468009007 1 rotate no_reflect no_shear #
lump $-1 $-1 $52 $1 #
transform $-1 1 0 0 0 1 0 0 0 1 60.53407391582995 41.534204028603625 14.050037468009007 1 rotate no_reflect no_shear #
lump $-1 $-1 $53 $2 #
transform $-1 1 0 0 0 1 0 0 0 1 60.53407391582995 41.534204028603625 14.050037468009007 1 rotate no_reflect no_shear #
lump $-1 $-1 $54 $3 #
transform $-1 1 0 0 0 1 0 0 0 1 60.53407391582995 41.534204028603625 14.050037468009007 1 rotate no_reflect no_shear #
lump $-1 $-1 $55 $4 #
transform $-1 1 0 0 0 1 0 0 0 1 60.53407391582995 41.534204028603625 14.050037468009007 1 rotate no_reflect no_shear #
lump $-1 $-1 $56 $5 #
transform $-1 1 0 0 0 1 0 0 0 1 60.53407391582995 41.534204028603625 14.050037468009007 1 rotate no_reflect no_shear #
lump $-1 $-1 $57 $6 #
transform $-1 1 0 0 0 1 0 0 0 1 60.53407391582995 41.534204028603625 14.050037468009007 1 rotate no_reflect no_shear #
lump $-1 $-1 $58 $7 #
transform $-1 1 0 0 0 1 0 0 0 1 60.53407391582995 41.534204028603625 14.050037468009007 1 rotate no_reflect no_shear #
lump $-1 $-1 $59 $8 #
transform $-1 1 0 0 0 1 0 0 0 1 60.53407391582995 41.534204028603625 14.050037468009007 1 rotate no_reflect no_shear #
lump $-1 $-1 $60 $9 #
transform $-1 1 0 0 0 1 0 0 0 1 60.53407391582995 41.534204028603625 14.050037468009007 1 rotate no_reflect no_shear #
lump $-1 $-1 $61 $10 #
transform $-1 1 0 0 0 1 0 0 0 1 60.53407391582995 41.534204028603625 14.050037468009007 1 rotate no_reflect no_shear #
lump $-1 $-1 $62 $11 #
transform $-1 1 0 0 0 1 0 0 0 1 60.53407391582995 41.534204028603625 14.050037468009007 1 rotate no_reflect no_shear #
lump $-1 $-1 $63 $12 #
transform $-1 1 0 0 0 1 0 0 0 1 60.53407391582995 41.534204028603625 14.050037468009007 1 rotate no_reflect no_shear #
lump $-1 $-1 $64 $13 #
transform $-1 1 0 0 0 1 0 0 0 1 60.53407391582995 41.534204028603625 14.050037468009007 1 rotate no_reflect no_shear #
lump $-1 $-1 $65 $14 #
transform $-1 1 0 0 0 1 0 0 0 1 60.53407391582995 41.534204028603625 14.050037468009007 1 rotate no_reflect no_shear #
lump $-1 $-1 $66 $15 #
transform $-1 1 0 0 0 1 0 0 0 1 60.53407391582995 41.534204028603625 14.050037468009007 1 rotate no_reflect no_shear #
lump $-1 $-1 $67 $16 #
transform $-1 1 0 0 0 1 0 0 0 1 60.53407391582995 41.534204028603625 14.050037468009007 1 rotate no_reflect no_shear #
shell $-1 $-1 $-1 $68 $-1 $17 #
shell $-1 $-1 $-1 $69 $-1 $19 #
shell $-1 $-1 $-1 $70 $-1 $21 #
shell $-1 $-1 $-1 $71 $-1 $23 #
shell $-1 $-1 $-1 $72 $-1 $25 #
shell $-1 $-1 $-1 $73 $-1 $27 #
shell $-1 $-1 $-1 $74 $-1 $29 #
shell $-1 $-1 $-1 $75 $-1 $31 #
shell $-1 $-1 $-1 $76 $-1 $33 #
shell $-1 $-1 $-1 $77 $-1 $35 #
shell $-1 $-1 $-1 $78 $-1 $37 #
shell $-1 $-1 $-1 $79 $-1 $39 #
shell $-1 $-1 $-1 $80 $-1 $41 #
shell $-1 $-1 $-1 $81 $-1 $43 #
shell $-1 $-1 $-1 $82 $-1 $45 #
shell $-1 $-1 $-1 $83 $-1 $47 #
shell $-1 $-1 $-1 $84 $-1 $49 #
face $-1 $85 $86 $51 $-1 $87 forward single #
face $-1 $88 $89 $52 $-1 $90 reversed single #
face $-1 $91 $92 $53 $-1 $93 reversed single #
face $-1 $94 $95 $54 $-1 $96 forward single #
face $-1 $97 $98 $55 $-1 $99 forward single #
face $-1 $100 $101 $56 $-1 $102 reversed single #
face $-1 $103 $104 $57 $-1 $105 forward single #
face $-1 $106 $107 $58 $-1 $108 forward single #
face $-1 $109 $110 $59 $-1 $111 reversed single #
face $-1 $112 $113 $60 $-1 $114 forward single #
face $-1 $115 $116 $61 $-1 $117 forward single #
face $-1 $118 $119 $62 $-1 $120 reversed single #
face $-1 $121 $122 $63 $-1 $123 forward single #
face $-1 $124 $125 $64 $-1 $126 forward single #
face $-1 $127 $128 $65 $-1 $129 reversed single #
face $-1 $130 $131 $66 $-1 $132 forward single #
face $-1 $133 $134 $67 $-1 $135 forward single #
face $-1 $136 $137 $51 $-1 $138 reversed single #
loop $-1 $-1 $139 $68 #
plane-surface $-1 0 0 14.050037468009007 0 0 1 1 0 0 forward_v I I I I #
face $-1 $140 $141 $52 $-1 $142 reversed single #
loop $-1 $-1 $143 $69 #
plane-surface $-1 -55.24765459347546 -20.338272096046502 0 0 1 0 0 0 1 forward_v I I I I #
face $-1 $144 $145 $53 $-1 $146 reversed single #
loop $-1 $-1 $147 $70 #
plane-surface $-1 -42.006624706754621 60.812751165807597 155.11324783559076 1 0 0 0 -0.66913061440640931 -0.74314481823134659 forward_v I I I I #
face $-1 $148 $149 $54 $-1 $150 forward single #
loop $-1 $151 $152 $71 #
cone-surface $-1 -38.751197203941864 37.919258109776983 10.559534726009916 0 -0.66913061440640931 -0.74314481823134659 1 0 0 1 I I 0 1 1 forward I I I I #
face $-1 $153 $154 $55 $-1 $155 forward single #
loop $-1 $156 $157 $72 #
cone-surface $-1 -33.868055949722731 37.919258109776983 10.559534726009916 0 -0.66913061440640931 -0.74314481823134659 1 0 0 1 I I 0 1 1 forward I I I I #
face $-1 $158 $159 $56 $-1 $160 reversed single #
loop $-1 $-1 $161 $73 #
plane-surface $-1 -14.382797410016888 60.812751165807597 155.11324783559076 1 0 0 0 -0.66913061440640931 -0.74314481823134659 forward_v I I I I #
face $-1 $162 $163 $57 $-1 $164 forward single #
loop $-1 $165 $166 $74 #
cone-surface $-1 -11.127369907204141 37.919258109776983 10.559534726009916 0 -0.66913061440640931 -0.74314481823134659 1 0 0 1 I I 0 1 1 forward I I I I #
face $-1 $167 $168 $58 $-1 $169 forward single #
loop $-1 $170 $171 $75 #
cone-surface $-1 -6.244228652985008 37.919258109776983 10.559534726009916 0 -0.66913061440640931 -0.74314481823134659 1 0 0 1 I I 0 1 1 forward I I I I #
face $-1 $172 $173 $59 $-1 $174 reversed single #
loop $-1 $-1 $175 $76 #
plane-surface $-1 13.241029886720842 60.812751165807597 155.11324783559076 1 0 0 0 -0.66913061440640931 -0.74314481823134659 forward_v I I I I #
face $-1 $176 $177 $60 $-1 $178 forward single #
loop $-1 $179 $180 $77 #
cone-surface $-1 16.496457389533589 37.919258109776983 10.559534726009916 0 -0.66913061440640931 -0.74314481823134659 1 0 0 1 I I 0 1 1 forward I I I I #
face $-1 $181 $182 $61 $-1 $183 forward single #
loop $-1 $184 $185 $78 #
cone-surface $-1 21.379598643752715 37.919258109776983 10.559534726009916 0 -0.66913061440640931 -0.74314481823134659 1 0 0 1 I I 0 1 1 forward I I I I #
face $-1 $186 $187 $62 $-1 $188 reversed single #
loop $-1 $-1 $189 $79 #
plane-surface $-1 40.864857183458568 60.812751165807597 155.11324783559076 1 0 0 0 -0.66913061440640931 -0.74314481823134659 forward_v I I I I #
face $-1 $190 $191 $63 $-1 $192 forward single #
loop $-1 $193 $194 $80 #
cone-surface $-1 44.120284686271319 37.919258109776983 10.559534726009916 0 -0.66913061440640931 -0.74314481823134659 1 0 0 1 I I 0 1 1 forward I I I I #
face $-1 $195 $196 $64 $-1 $197 forward single #
loop $-1 $198 $199 $81 #
cone-surface $-1 49.003425940490445 37.919258109776983 10.559534726009916 0 -0.66913061440640931 -0.74314481823134659 1 0 0 1 I I 0 1 1 forward I I I I #
face $-1 $200 $201 $65 $-1 $202 reversed single #
loop $-1 $-1 $203 $82 #
plane-surface $-1 -3.6138149769610592 -107.47264409862089 103.34587153330982 -1 0 0 0 -0.54463904215088732 0.83867056331134215 forward_v I I I I #
face $-1 $204 $205 $66 $-1 $206 forward single #
loop $-1 $207 $208 $83 #
cone-surface $-1 -12.321916143718198 -31.025586633421931 6.2601459961773029 0 0.54463904215088732 -0.83867056331134215 1 0 0 1 I I 0 1 1 forward I I I I #
face $-1 $209 $210 $67 $-1 $211 forward single #
loop $-1 $212 $213 $84 #
cone-surface $-1 -7.0970554436639119 -31.025586633421931 6.2601459961773029 0 0.54463904215088732 -0.83867056331134215 1 0 0 1 I I 0 1 1 forward I I I I #
face $-1 $214 $215 $51 $-1 $216 reversed single #
loop $-1 $-1 $217 $85 #
plane-surface $-1 0 0 -14.050037468009007 0 0 1 1 0 0 forward_v I I I I #
coedge $-1 $218 $219 $220 $221 forward $86 $-1 #
face $-1 $222 $223 $52 $-1 $224 reversed single #
loop $-1 $-1 $225 $88 #
plane-surface $-1 -55.24765459347546 -15.668704603321757 0 0 -1 0 0 0 -1 forward_v I I I I #
coedge $-1 $226 $227 $228 $229 reversed $89 $-1 #
face $-1 $230 $231 $53 $-1 $232 reversed single #
loop $-1 $-1 $233 $91 #
plane-surface $-1 -36.309626576832301 -20.197652977836981 65.142081121626063 0 0.66913061440640931 0.74314481823134659 1 0 0 forward_v I I I I #
coedge $-1 $234 $235 $236 $237 reversed $92 $-1 #
face $-1 $-1 $238 $54 $-1 $239 forward single #
loop $-1 $240 $241 $94 #
cone-surface $-1 -38.751197203941864 36.463944459876558 8.9432452086273333 0 -0.66913061440640931 -0.74314481823134659 0.5 0 0 1 I I -0.70710678118654746 0.70710678118654746 0.5 forward I I I I #
loop $-1 $-1 $242 $71 #
coedge $-1 $152 $152 $243 $244 reversed $95 $-1 #
face $-1 $-1 $245 $55 $-1 $246 forward single #
loop $-1 $247 $248 $97 #
cone-surface $-1 -33.868055949722731 36.463944459876558 8.9432452086273333 0 -0.66913061440640931 -0.74314481823134659 0.5 0 0 1 I I -0.70710678118654746 0.70710678118654746 0.5 forward I I I I #
loop $-1 $-1 $249 $72 #
coedge $-1 $157 $157 $250 $251 reversed $98 $-1 #
face $-1 $252 $253 $56 $-1 $254 reversed single #
loop $-1 $-1 $255 $100 #
plane-surface $-1 -8.6857992800945709 -20.197652977836981 65.142081121626063 0 0.66913061440640931 0.74314481823134659 1 0 0 forward_v I I I I #
coedge $-1 $256 $257 $258 $259 reversed $101 $-1 #
face $-1 $-1 $260 $57 $-1 $261 forward single #
loop $-1 $262 $263 $103 #
cone-surface $-1 -11.127369907204141 36.463944459876558 8.9432452086273333 0 -0.66913061440640931 -0.74314481823134659 0.5 0 0 1 I I -0.70710678118654746 0.70710678118654746 0.5 forward I I I I #
loop $-1 $-1 $264 $74 #
coedge $-1 $166 $166 $265 $266 reversed $104 $-1 #
face $-1 $-1 $267 $58 $-1 $268 forward single #
loop $-1 $269 $270 $106 #
cone-surface $-1 -6.244228652985008 36.463944459876558 8.9432452086273333 0 -0.66913061440640931 -0.74314481823134659 0.5 0 0 1 I I -0.70710678118654746 0.70710678118654746 0.5 forward I I I I #
loop $-1 $-1 $271 $75 #
coedge $-1 $171 $171 $272 $273 reversed $107 $-1 #
face $-1 $274 $275 $59 $-1 $276 reversed single #
loop $-1 $-1 $277 $109 #
plane-surface $-1 18.938028016643159 -20.197652977836981 65.142081121626063 0 0.66913061440640931 0.74314481823134659 1 0 0 forward_v I I I I #
coedge $-1 $278 $279 $280 $281 reversed $110 $-1 #
face $-1 $-1 $282 $60 $-1 $283 forward single #
loop $-1 $284 $285 $112 #
cone-surface $-1 16.496457389533589 36.463944459876558 8.9432452086273333 0 -0.66913061440640931 -0.74314481823134659 0.5 0 0 1 I I -0.70710678118654746 0.70710678118654746 0.5 forward I I I I #
loop $-1 $-1 $286 $77 #
coedge $-1 $180 $180 $287 $288 reversed $113 $-1 #
face $-1 $-1 $289 $61 $-1 $290 forward single #
loop $-1 $291 $292 $115 #
cone-surface $-1 21.379598643752715 36.463944459876558 8.9432452086273333 0 -0.66913061440640931 -0.74314481823134659 0.5 0 0 1 I I -0.70710678118654746 0.70710678118654746 0.5 forward I I I I #
loop $-1 $-1 $293 $78 #
coedge $-1 $185 $185 $294 $295 reversed $116 $-1 #
face $-1 $296 $297 $62 $-1 $298 reversed single #
loop $-1 $-1 $299 $118 #
plane-surface $-1 46.561855313380889 -20.197652977836981 65.142081121626063 0 0.66913061440640931 0.74314481823134659 1 0 0 forward_v I I I I #
coedge $-1 $300 $301 $302 $303 reversed $119 $-1 #
face $-1 $-1 $304 $63 $-1 $305 forward single #
loop $-1 $306 $307 $121 #
cone-surface $-1 44.120284686271319 36.463944459876558 8.9432452086273333 0 -0.66913061440640931 -0.74314481823134659 0.5 0 0 1 I I -0.70710678118654746 0.70710678118654746 0.5 forward I I I I #
loop $-1 $-1 $308 $80 #
coedge $-1 $194 $194 $309 $310 reversed $122 $-1 #
face $-1 $-1 $311 $64 $-1 $312 forward single #
loop $-1 $313 $314 $124 #
cone-surface $-1 49.003425940490445 36.463944459876558 8.9432452086273333 0 -0.66913061440640931 -0.74314481823134659 0.5 0 0 1 I I -0.70710678118654746 0.70710678118654746 0.5 forward I I I I #
loop $-1 $-1 $315 $81 #
coedge $-1 $199 $199 $316 $317 reversed $125 $-1 #
face $-1 $318 $319 $65 $-1 $320 reversed single #
loop $-1 $-1 $321 $127 #
plane-surface $-1 -9.7094857936910586 -41.534204028603611 1.8095797922707675 0 -0.54463904215088732 0.83867056331134215 1 0 0 forward_v I I I I #
coedge $-1 $322 $323 $324 $325 reversed $128 $-1 #
face $-1 $-1 $326 $66 $-1 $327 forward single #
loop $-1 $328 $329 $130 #
cone-surface $-1 -12.321916143718198 -29.668975499575374 4.1711480805590444 0 0.54463904215088732 -0.83867056331134215 0.5 0 0 1 I I -0.70710678118654746 0.70710678118654746 0.5 forward I I I I #
loop $-1 $-1 $330 $83 #
coedge $-1 $208 $208 $331 $332 reversed $131 $-1 #
face $-1 $-1 $333 $67 $-1 $334 forward single #
loop $-1 $335 $336 $133 #
cone-surface $-1 -7.0970554436639119 -29.668975499575374 4.1711480805590444 0 0.54463904215088732 -0.83867056331134215 0.5 0 0 1 I I -0.70710678118654746 0.70710678118654746 0.5 forward I I I I #
loop $-1 $-1 $337 $84 #
coedge $-1 $213 $213 $338 $339 reversed $134 $-1 #
face $-1 $340 $341 $51 $-1 $342 reversed single #
loop $-1 $-1 $343 $136 #
plane-surface $-1 0 -41.534204028603625 0 0 1 0 0 0 1 forward_v I I I I #
coedge $-1 $344 $345 $346 $347 forward $137 $-1 #
coedge $-1 $348 $139 $349 $350 forward $86 $-1 #
coedge $-1 $139 $348 $351 $352 forward $86 $-1 #
coedge $-1 $353 $354 $139 $221 reversed $355 $-1 #
edge $-1 $356 -41.534204028603625 $357 41.534204028603625 $220 $358 forward 7 unknown #
face $-1 $359 $360 $52 $-1 $361 reversed single #
loop $-1 $-1 $362 $140 #
plane-surface $-1 -49.96123527112097 -18.00348834968413 0 -1 0 0 0 0 1 forward_v I I I I #
coedge $-1 $363 $364 $365 $366 forward $141 $-1 #
coedge $-1 $367 $143 $368 $369 reversed $89 $-1 #
coedge $-1 $143 $367 $370 $371 reversed $89 $-1 #
coedge $-1 $372 $373 $143 $229 forward $374 $-1 #
edge $-1 $375 -14.050037468009007 $376 14.050037468009007 $228 $377 forward 7 unknown #
face $-1 $378 $379 $53 $-1 $380 reversed single #
loop $-1 $-1 $381 $144 #
plane-surface $-1 -30.612628446909984 60.812751165807597 155.11324783559076 -1 0 0 0 0.66913061440640931 0.74314481823134659 forward_v I I I I #
coedge $-1 $382 $383 $384 $385 reversed $145 $-1 #
coedge $-1 $235 $147 $386 $387 reversed $92 $-1 #
coedge $-1 $147 $234 $382 $388 reversed $92 $-1 #
coedge $-1 $384 $389 $147 $237 forward $390 $-1 #
edge $-1 $391 -11.127828445699826 $392 -6.1394332934409519 $236 $393 forward 7 unknown #
loop $-1 $-1 $243 $148 #
plane-surface $-1 -36.309626576832301 -20.197652977836981 65.142081121626063 0 0.66913061440640931 0.74314481823134659 1 0 0 forward_v I I I I #
loop $-1 $-1 $394 $94 #
coedge $-1 $241 $241 $242 $395 reversed $149 $-1 #
coedge $-1 $242 $242 $241 $395 forward $151 $-1 #
coedge $-1 $243 $243 $152 $244 forward $238 $-1 #
edge $-1 $396 2.9031320354146e-015 $396 6.2831853071796031 $243 $397 forward 7 unknown #
loop $-1 $-1 $250 $153 #
plane-surface $-1 -36.309626576832301 -20.197652977836981 65.142081121626063 0 0.66913061440640931 0.74314481823134659 1 0 0 forward_v I I I I #
loop $-1 $-1 $398 $97 #
coedge $-1 $248 $248 $249 $399 reversed $154 $-1 #
coedge $-1 $249 $249 $248 $399 forward $156 $-1 #
coedge $-1 $250 $250 $157 $251 forward $245 $-1 #
edge $-1 $400 2.9031320354146e-015 $400 6.2831853071796031 $250 $401 forward 7 unknown #
face $-1 $402 $403 $56 $-1 $404 forward single #
loop $-1 $-1 $405 $158 #
plane-surface $-1 -2.9888011501722538 60.812751165807597 155.11324783559076 -1 0 0 0 0.66913061440640931 0.74314481823134659 forward_v I I I I #
coedge $-1 $406 $407 $408 $409 reversed $159 $-1 #
coedge $-1 $257 $161 $410 $411 reversed $101 $-1 #
coedge $-1 $161 $256 $406 $412 reversed $101 $-1 #
coedge $-1 $408 $413 $161 $259 forward $403 $-1 #
edge $-1 $414 -11.127828445699826 $415 -6.1394332934409519 $258 $416 forward 7 unknown #
loop $-1 $-1 $265 $162 #
plane-surface $-1 -8.6857992800945709 -20.197652977836981 65.142081121626063 0 0.66913061440640931 0.74314481823134659 1 0 0 forward_v I I I I #
loop $-1 $-1 $417 $103 #
coedge $-1 $263 $263 $264 $418 reversed $163 $-1 #
coedge $-1 $264 $264 $263 $418 forward $165 $-1 #
coedge $-1 $265 $265 $166 $266 forward $260 $-1 #
edge $-1 $419 2.9031320354146e-015 $419 6.2831853071796031 $265 $420 forward 7 unknown #
loop $-1 $-1 $272 $167 #
plane-surface $-1 -8.6857992800945709 -20.197652977836981 65.142081121626063 0 0.66913061440640931 0.74314481823134659 1 0 0 forward_v I I I I #
loop $-1 $-1 $421 $106 #
coedge $-1 $270 $270 $271 $422 reversed $168 $-1 #
coedge $-1 $271 $271 $270 $422 forward $170 $-1 #
coedge $-1 $272 $272 $171 $273 forward $267 $-1 #
edge $-1 $423 2.9031320354146e-015 $423 6.2831853071796031 $272 $424 forward 7 unknown #
face $-1 $425 $426 $59 $-1 $427 forward single #
loop $-1 $-1 $428 $172 #
plane-surface $-1 24.635026146565476 60.812751165807597 155.11324783559076 -1 0 0 0 0.66913061440640931 0.74314481823134659 forward_v I I I I #
coedge $-1 $429 $430 $431 $432 reversed $173 $-1 #
coedge $-1 $279 $175 $433 $434 reversed $110 $-1 #
coedge $-1 $175 $278 $429 $435 reversed $110 $-1 #
coedge $-1 $431 $436 $175 $281 forward $426 $-1 #
edge $-1 $437 -11.127828445699826 $438 -6.1394332934409519 $280 $439 forward 7 unknown #
loop $-1 $-1 $287 $176 #
plane-surface $-1 18.938028016643159 -20.197652977836981 65.142081121626063 0 0.66913061440640931 0.74314481823134659 1 0 0 forward_v I I I I #
loop $-1 $-1 $440 $112 #
coedge $-1 $285 $285 $286 $441 reversed $177 $-1 #
coedge $-1 $286 $286 $285 $441 forward $179 $-1 #
coedge $-1 $287 $287 $180 $288 forward $282 $-1 #
edge $-1 $442 2.9031320354146e-015 $442 6.2831853071796031 $287 $443 forward 7 unknown #
loop $-1 $-1 $294 $181 #
plane-surface $-1 18.938028016643159 -20.197652977836981 65.142081121626063 0 0.66913061440640931 0.74314481823134659 1 0 0 forward_v I I I I #
loop $-1 $-1 $444 $115 #
coedge $-1 $292 $292 $293 $445 reversed $182 $-1 #
coedge $-1 $293 $293 $292 $445 forward $184 $-1 #
coedge $-1 $294 $294 $185 $295 forward $289 $-1 #
edge $-1 $446 2.9031320354146e-015 $446 6.2831853071796031 $294 $447 forward 7 unknown #
face $-1 $448 $449 $62 $-1 $450 forward single #
loop $-1 $-1 $451 $186 #
plane-surface $-1 52.258853443303209 60.812751165807597 155.11324783559076 -1 0 0 0 0.66913061440640931 0.74314481823134659 forward_v I I I I #
coedge $-1 $452 $453 $454 $455 reversed $187 $-1 #
coedge $-1 $301 $189 $456 $457 reversed $119 $-1 #
coedge $-1 $189 $300 $452 $458 reversed $119 $-1 #
coedge $-1 $454 $459 $189 $303 forward $449 $-1 #
edge $-1 $460 -11.127828445699826 $461 -6.1394332934409519 $302 $462 forward 7 unknown #
loop $-1 $-1 $309 $190 #
plane-surface $-1 46.561855313380889 -20.197652977836981 65.142081121626063 0 0.66913061440640931 0.74314481823134659 1 0 0 forward_v I I I I #
loop $-1 $-1 $463 $121 #
coedge $-1 $307 $307 $308 $464 reversed $191 $-1 #
coedge $-1 $308 $308 $307 $464 forward $193 $-1 #
coedge $-1 $309 $309 $194 $310 forward $304 $-1 #
edge $-1 $465 2.9031320354146e-015 $465 6.2831853071796031 $309 $466 forward 7 unknown #
loop $-1 $-1 $316 $195 #
plane-surface $-1 46.561855313380889 -20.197652977836981 65.142081121626063 0 0.66913061440640931 0.74314481823134659 1 0 0 forward_v I I I I #
loop $-1 $-1 $467 $124 #
coedge $-1 $314 $314 $315 $468 reversed $196 $-1 #
coedge $-1 $315 $315 $314 $468 forward $198 $-1 #
coedge $-1 $316 $316 $199 $317 forward $311 $-1 #
edge $-1 $469 2.9031320354146e-015 $469 6.2831853071796031 $316 $470 forward 7 unknown #
face $-1 $471 $472 $65 $-1 $473 forward single #
loop $-1 $-1 $474 $200 #
plane-surface $-1 -15.805156610421058 -107.47264409862089 103.34587153330982 1 0 0 0 0.54463904215088732 -0.83867056331134215 forward_v I I I I #
coedge $-1 $475 $476 $477 $478 reversed $201 $-1 #
coedge $-1 $323 $203 $479 $480 reversed $128 $-1 #
coedge $-1 $203 $322 $475 $481 reversed $128 $-1 #
coedge $-1 $477 $482 $203 $325 forward $472 $-1 #
edge $-1 $483 12.20211802070682 $484 31.050769585528016 $324 $485 forward 7 unknown #
loop $-1 $-1 $331 $204 #
plane-surface $-1 -9.7094857936910586 -41.534204028603611 1.8095797922707675 0 -0.54463904215088732 0.83867056331134215 1 0 0 forward_v I I I I #
loop $-1 $-1 $486 $130 #
coedge $-1 $329 $329 $330 $487 reversed $205 $-1 #
coedge $-1 $330 $330 $329 $487 forward $207 $-1 #
coedge $-1 $331 $331 $208 $332 forward $326 $-1 #
edge $-1 $488 3.2946360437229039e-016 $488 6.2831853071796004 $331 $489 forward 7 unknown #
loop $-1 $-1 $338 $209 #
plane-surface $-1 -9.7094857936910586 -41.534204028603611 1.8095797922707675 0 -0.54463904215088732 0.83867056331134215 1 0 0 forward_v I I I I #
loop $-1 $-1 $490 $133 #
coedge $-1 $336 $336 $337 $491 reversed $210 $-1 #
coedge $-1 $337 $337 $336 $491 forward $212 $-1 #
coedge $-1 $338 $338 $213 $339 forward $333 $-1 #
edge $-1 $492 3.2946360437229039e-016 $492 6.2831853071796004 $338 $493 forward 7 unknown #
face $-1 $494 $495 $51 $-1 $496 reversed single #
loop $-1 $-1 $497 $214 #
plane-surface $-1 -60.53407391582995 0 0 1 0 0 0 0 -1 forward_v I I I I #
coedge $-1 $498 $351 $499 $500 forward $215 $-1 #
coedge $-1 $501 $217 $498 $502 forward $137 $-1 #
coedge $-1 $217 $501 $503 $504 forward $137 $-1 #
coedge $-1 $354 $353 $217 $347 reversed $355 $-1 #
edge $-1 $505 -41.534204028603625 $506 41.534204028603625 $346 $507 forward 7 unknown #
coedge $-1 $219 $218 $508 $509 forward $86 $-1 #
coedge $-1 $510 $511 $218 $350 reversed $495 $-1 #
edge $-1 $357 -60.53407391582995 $512 60.53407391582995 $349 $513 forward 7 unknown #
coedge $-1 $343 $514 $219 $352 reversed $215 $-1 #
edge $-1 $515 -60.53407391582995 $356 60.53407391582995 $351 $516 forward 7 unknown #
coedge $-1 $346 $220 $514 $517 forward $355 $-1 #
coedge $-1 $220 $346 $510 $518 reversed $355 $-1 #
loop $-1 $-1 $353 $494 #
vertex $-1 $221 $519 #
vertex $-1 $221 $520 #
straight-curve $-1 60.53407391582995 0 14.050037468009007 0 1 0 I I #
face $-1 $521 $522 $52 $-1 $523 forward single #
loop $-1 $-1 $524 $222 #
plane-surface $-1 0 0 -14.050037468009007 0 0 1 1 0 0 forward_v I I I I #
coedge $-1 $525 $526 $367 $527 forward $223 $-1 #
coedge $-1 $528 $225 $524 $529 reversed $141 $-1 #
coedge $-1 $225 $528 $530 $531 reversed $141 $-1 #
coedge $-1 $526 $525 $225 $366 reversed $223 $-1 #
edge $-1 $532 -14.050037468009007 $533 14.050037468009007 $365 $534 forward 7 unknown #
coedge $-1 $227 $226 $362 $527 reversed $89 $-1 #
coedge $-1 $535 $536 $226 $369 forward $360 $-1 #
edge $-1 $537 22.33740797438324 $375 32.91024661909222 $368 $538 forward 7 unknown #
coedge $-1 $539 $540 $227 $371 forward $522 $-1 #
edge $-1 $376 -32.91024661909222 $541 -22.33740797438324 $370 $542 forward 7 unknown #
coedge $-1 $543 $228 $540 $544 reversed $374 $-1 #
coedge $-1 $228 $543 $535 $545 reversed $374 $-1 #
loop $-1 $-1 $543 $521 #
vertex $-1 $545 $546 #
vertex $-1 $229 $547 #
straight-curve $-1 -60.53407391582995 -20.338272096046502 0 0 0 1 I I #
face $-1 $-1 $390 $53 $-1 $548 forward single #
loop $-1 $-1 $549 $230 #
plane-surface $-1 0 41.534204028603625 0 0 -1 0 0 0 -1 forward_v I I I I #
coedge $-1 $550 $551 $552 $553 reversed $231 $-1 #
coedge $-1 $554 $233 $235 $388 forward $145 $-1 #
coedge $-1 $233 $554 $550 $555 forward $145 $-1 #
coedge $-1 $552 $236 $233 $385 forward $390 $-1 #
edge $-1 $392 -23.851811418338471 $556 -12.457815158493833 $384 $557 forward 7 unknown #
coedge $-1 $558 $559 $234 $387 forward $379 $-1 #
edge $-1 $560 -67.99815771725072 $391 -63.506586449786369 $386 $561 forward 7 unknown #
edge $-1 $392 76.355860206667103 $560 83.06840805720725 $235 $562 forward 7 unknown #
coedge $-1 $236 $552 $558 $563 forward $390 $-1 #
loop $-1 $-1 $552 $378 #
vertex $-1 $387 $564 #
vertex $-1 $237 $565 #
straight-curve $-1 -42.006624706754621 30.406375582903799 14.050037468009009 0 -1 0 I I #
coedge $-1 $394 $394 $-1 $566 reversed $240 $-1 #
edge $-1 $567 0 $567 6.2831853071796004 $241 $568 forward 7 unknown #
vertex $-1 $244 $569 #
ellipse-curve $-1 -38.751197203941864 39.040006452474195 11.804251834276824 0 0.66913061440640931 0.74314481823134659 1 0 0 1 I I #
coedge $-1 $398 $398 $-1 $570 reversed $247 $-1 #
edge $-1 $571 0 $571 6.2831853071796004 $248 $572 forward 7 unknown #
vertex $-1 $251 $573 #
ellipse-curve $-1 -33.868055949722731 39.040006452474195 11.804251834276824 0 0.66913061440640931 0.74314481823134659 1 0 0 1 I I #
face $-1 $-1 $574 $56 $-1 $575 reversed single #
loop $-1 $-1 $258 $252 #
plane-surface $-1 0 0 14.050037468009007 0 0 1 1 0 0 forward_v I I I I #
coedge $-1 $576 $577 $578 $579 reversed $253 $-1 #
coedge $-1 $580 $255 $257 $412 forward $159 $-1 #
coedge $-1 $255 $580 $576 $581 forward $159 $-1 #
coedge $-1 $578 $258 $255 $409 forward $403 $-1 #
edge $-1 $415 -10.039897769969603 $582 1.3540984898750317 $408 $583 forward 7 unknown #
coedge $-1 $584 $585 $256 $411 forward $574 $-1 #
edge $-1 $586 -67.99815771725072 $414 -63.506586449786369 $410 $587 forward 7 unknown #
edge $-1 $415 76.355860206667103 $586 83.06840805720725 $257 $588 forward 7 unknown #
coedge $-1 $258 $578 $584 $589 forward $403 $-1 #
vertex $-1 $411 $590 #
vertex $-1 $259 $591 #
straight-curve $-1 -14.382797410016888 30.406375582903799 14.050037468009009 0 -1 0 I I #
coedge $-1 $417 $417 $-1 $592 reversed $262 $-1 #
edge $-1 $593 0 $593 6.2831853071796004 $263 $594 forward 7 unknown #
vertex $-1 $266 $595 #
ellipse-curve $-1 -11.127369907204141 39.040006452474195 11.804251834276824 0 0.66913061440640931 0.74314481823134659 1 0 0 1 I I #
coedge $-1 $421 $421 $-1 $596 reversed $269 $-1 #
edge $-1 $597 0 $597 6.2831853071796004 $270 $598 forward 7 unknown #
vertex $-1 $273 $599 #
ellipse-curve $-1 -6.244228652985008 39.040006452474195 11.804251834276824 0 0.66913061440640931 0.74314481823134659 1 0 0 1 I I #
face $-1 $-1 $600 $59 $-1 $601 reversed single #
loop $-1 $-1 $280 $274 #
plane-surface $-1 0 0 14.050037468009007 0 0 1 1 0 0 forward_v I I I I #
coedge $-1 $602 $603 $604 $605 reversed $275 $-1 #
coedge $-1 $606 $277 $279 $435 forward $173 $-1 #
coedge $-1 $277 $606 $602 $607 forward $173 $-1 #
coedge $-1 $604 $280 $277 $432 forward $426 $-1 #
edge $-1 $438 3.7720158783992623 $608 15.166012138243897 $431 $609 forward 7 unknown #
coedge $-1 $610 $611 $278 $434 forward $600 $-1 #
edge $-1 $612 -67.99815771725072 $437 -63.506586449786369 $433 $613 forward 7 unknown #
edge $-1 $438 76.355860206667103 $612 83.06840805720725 $279 $614 forward 7 unknown #
coedge $-1 $280 $604 $610 $615 forward $426 $-1 #
vertex $-1 $281 $616 #
vertex $-1 $281 $617 #
straight-curve $-1 13.241029886720842 30.406375582903799 14.050037468009009 0 -1 0 I I #
coedge $-1 $440 $440 $-1 $618 reversed $284 $-1 #
edge $-1 $619 0 $619 6.2831853071796004 $285 $620 forward 7 unknown #
vertex $-1 $288 $621 #
ellipse-curve $-1 16.496457389533589 39.040006452474195 11.804251834276824 0 0.66913061440640931 0.74314481823134659 1 0 0 1 I I #
coedge $-1 $444 $444 $-1 $622 reversed $291 $-1 #
edge $-1 $623 0 $623 6.2831853071796004 $292 $624 forward 7 unknown #
vertex $-1 $295 $625 #
ellipse-curve $-1 21.379598643752715 39.040006452474195 11.804251834276824 0 0.66913061440640931 0.74314481823134659 1 0 0 1 I I #
face $-1 $-1 $626 $62 $-1 $627 reversed single #
loop $-1 $-1 $302 $296 #
plane-surface $-1 0 0 14.050037468009007 0 0 1 1 0 0 forward_v I I I I #
coedge $-1 $628 $629 $630 $631 reversed $297 $-1 #
coedge $-1 $632 $299 $301 $458 forward $187 $-1 #
coedge $-1 $299 $632 $628 $633 forward $187 $-1 #
coedge $-1 $630 $302 $299 $455 forward $449 $-1 #
edge $-1 $461 17.583929526768124 $634 28.977925786612765 $454 $635 forward 7 unknown #
coedge $-1 $636 $637 $300 $457 forward $626 $-1 #
edge $-1 $638 -67.99815771725072 $460 -63.506586449786369 $456 $639 forward 7 unknown #
edge $-1 $461 76.355860206667103 $638 83.06840805720725 $301 $640 forward 7 unknown #
coedge $-1 $302 $630 $636 $641 forward $449 $-1 #
vertex $-1 $303 $642 #
vertex $-1 $303 $643 #
straight-curve $-1 40.864857183458568 30.406375582903799 14.050037468009009 0 -1 0 I I #
coedge $-1 $463 $463 $-1 $644 reversed $306 $-1 #
edge $-1 $645 0 $645 6.2831853071796004 $307 $646 forward 7 unknown #
vertex $-1 $310 $647 #
ellipse-curve $-1 44.120284686271319 39.040006452474195 11.804251834276824 0 0.66913061440640931 0.74314481823134659 1 0 0 1 I I #
coedge $-1 $467 $467 $-1 $648 reversed $313 $-1 #
edge $-1 $649 0 $649 6.2831853071796004 $314 $650 forward 7 unknown #
vertex $-1 $317 $651 #
ellipse-curve $-1 49.003425940490445 39.040006452474195 11.804251834276824 0 0.66913061440640931 0.74314481823134659 1 0 0 1 I I #
face $-1 $-1 $652 $65 $-1 $653 reversed single #
loop $-1 $-1 $324 $318 #
plane-surface $-1 0 0 14.050037468009007 0 0 1 1 0 0 forward_v I I I I #
coedge $-1 $654 $655 $656 $657 reversed $319 $-1 #
coedge $-1 $658 $321 $323 $481 forward $201 $-1 #
coedge $-1 $321 $658 $654 $659 forward $201 $-1 #
coedge $-1 $656 $324 $321 $478 forward $472 $-1 #
edge $-1 $484 -1.24092791988447 $660 10.950413713575529 $477 $661 forward 7 unknown #
coedge $-1 $662 $663 $322 $480 forward $652 $-1 #
edge $-1 $664 -49.863355974384149 $483 -37.6228982986459 $479 $665 forward 7 unknown #
edge $-1 $484 -22.474440369530342 $664 1.699746028866204e-014 $323 $666 forward 7 unknown #
coedge $-1 $324 $656 $662 $667 forward $472 $-1 #
vertex $-1 $480 $668 #
vertex $-1 $325 $669 #
straight-curve $-1 -3.6138149769610592 -53.736322049310445 14.050037468009009 0 1 0 I I #
coedge $-1 $486 $486 $-1 $670 reversed $328 $-1 #
edge $-1 $671 0 $671 6.2831853071796004 $329 $672 forward 7 unknown #
vertex $-1 $332 $673 #
ellipse-curve $-1 -12.321916143718198 -32.109878246193034 7.9298086301398785 0 -0.54463904215088732 0.83867056331134215 1 0 0 1 I I #
coedge $-1 $490 $490 $-1 $674 reversed $335 $-1 #
edge $-1 $675 0 $675 6.2831853071796004 $336 $676 forward 7 unknown #
vertex $-1 $339 $677 #
ellipse-curve $-1 -7.0970554436639119 -32.109878246193034 7.9298086301398785 0 -0.54463904215088732 0.83867056331134215 1 0 0 1 I I #
face $-1 $-1 $355 $51 $-1 $678 reversed single #
loop $-1 $-1 $510 $340 #
plane-surface $-1 0 41.534204028603625 0 0 -1 0 0 0 -1 forward_v I I I I #
coedge $-1 $679 $508 $511 $680 forward $341 $-1 #
coedge $-1 $514 $343 $344 $502 reversed $215 $-1 #
coedge $-1 $508 $679 $343 $500 reversed $341 $-1 #
edge $-1 $515 -14.050037468009007 $681 14.050037468009007 $499 $682 forward 7 unknown #
coedge $-1 $345 $344 $679 $683 forward $137 $-1 #
edge $-1 $506 -60.53407391582995 $681 60.53407391582995 $498 $684 forward 7 unknown #
coedge $-1 $511 $510 $345 $504 reversed $495 $-1 #
edge $-1 $685 -60.53407391582995 $505 60.53407391582995 $503 $686 forward 7 unknown #
vertex $-1 $347 $687 #
vertex $-1 $517 $688 #
straight-curve $-1 60.53407391582995 0 -14.050037468009007 0 -1 0 I I #
coedge $-1 $497 $499 $348 $509 reversed $341 $-1 #
edge $-1 $512 -41.534204028603625 $515 41.534204028603625 $508 $689 forward 7 unknown #
coedge $-1 $503 $349 $354 $518 forward $495 $-1 #
coedge $-1 $349 $503 $497 $680 reversed $495 $-1 #
vertex $-1 $350 $690 #
straight-curve $-1 0 41.534204028603625 14.050037468009007 -1 0 0 I I #
coedge $-1 $351 $498 $353 $517 reversed $215 $-1 #
vertex $-1 $509 $691 #
straight-curve $-1 0 -41.534204028603625 14.050037468009007 1 0 0 I I #
edge $-1 $356 -14.050037468009007 $506 14.050037468009007 $353 $692 forward 7 unknown #
edge $-1 $357 -14.050037468009007 $505 14.050037468009007 $354 $693 forward 7 unknown #
point $-1 60.53407391582995 -41.534204028603625 14.050037468009007 #
point $-1 60.53407391582995 41.534204028603625 14.050037468009007 #
face $-1 $-1 $374 $52 $-1 $694 reversed single #
loop $-1 $-1 $530 $359 #
plane-surface $-1 0 0 14.050037468009007 0 0 1 1 0 0 forward_v I I I I #
coedge $-1 $536 $535 $363 $529 forward $360 $-1 #
coedge $-1 $365 $362 $536 $695 reversed $223 $-1 #
coedge $-1 $362 $365 $539 $696 reversed $223 $-1 #
edge $-1 $541 -14.050037468009007 $537 14.050037468009007 $362 $697 forward 7 unknown #
coedge $-1 $364 $363 $543 $698 reversed $141 $-1 #
edge $-1 $699 -32.91024661909222 $533 -22.33740797438324 $524 $700 forward 7 unknown #
coedge $-1 $540 $539 $364 $531 forward $522 $-1 #
edge $-1 $532 22.33740797438324 $701 32.91024661909222 $530 $702 forward 7 unknown #
vertex $-1 $531 $703 #
vertex $-1 $529 $704 #
straight-curve $-1 -49.96123527112097 -15.668704603321757 0 0 0 -1 I I #
coedge $-1 $524 $368 $373 $545 forward $360 $-1 #
coedge $-1 $368 $524 $525 $695 forward $360 $-1 #
vertex $-1 $369 $705 #
straight-curve $-1 -27.62382729673773 -20.338272096046502 -14.050037468009007 -1 0 0 I I #
coedge $-1 $530 $370 $526 $696 forward $522 $-1 #
coedge $-1 $370 $530 $372 $544 forward $522 $-1 #
vertex $-1 $371 $706 #
straight-curve $-1 -27.62382729673773 -20.338272096046502 14.050037468009007 1 0 0 I I #
coedge $-1 $373 $372 $528 $698 forward $374 $-1 #
edge $-1 $701 15.668704603321757 $376 20.338272096046502 $372 $707 forward 7 unknown #
edge $-1 $375 -20.338272096046502 $699 -15.668704603321757 $373 $708 forward 7 unknown #
point $-1 -60.53407391582995 -20.338272096046502 -14.050037468009007 #
point $-1 -60.53407391582995 -20.338272096046502 14.050037468009007 #
plane-surface $-1 0 0 14.050037468009007 0 0 1 1 0 0 forward_v I I I I #
coedge $-1 $559 $558 $551 $709 forward $379 $-1 #
coedge $-1 $551 $381 $383 $555 reversed $231 $-1 #
coedge $-1 $381 $550 $549 $709 reversed $231 $-1 #
coedge $-1 $389 $384 $381 $553 forward $390 $-1 #
edge $-1 $556 6.1394332934409519 $710 11.127828445699826 $552 $711 forward 7 unknown #
coedge $-1 $383 $382 $559 $712 reversed $145 $-1 #
edge $-1 $713 -83.06840805720725 $556 -76.355860206667103 $550 $714 forward 7 unknown #
vertex $-1 $385 $715 #
straight-curve $-1 -18.15481328841615 36.545808876344751 14.050037468009009 1 0 0 I I #
coedge $-1 $549 $386 $389 $563 reversed $379 $-1 #
coedge $-1 $386 $549 $554 $712 forward $379 $-1 #
vertex $-1 $387 $716 #
straight-curve $-1 -42.006624706754621 41.534204028603625 77.556623917795378 0 0 1 I I #
straight-curve $-1 -42.006624706754621 -20.197652977836981 65.142081121626063 0 0.74314481823134659 -0.66913061440640931 I I #
edge $-1 $710 30.612628446909984 $391 42.006624706754621 $558 $717 forward 7 unknown #
point $-1 -42.006624706754621 41.534204028603625 14.050037468009007 #
point $-1 -42.006624706754621 36.545808876344751 14.050037468009009 #
edge $-1 $718 1 $718 0 $394 $-1 forward 7 unknown #
vertex $-1 $395 $719 #
ellipse-curve $-1 -38.751197203941864 36.798509767079764 9.3148176177430067 0 0.66913061440640931 0.74314481823134659 1 0 0 1 I I #
point $-1 -37.751197203941864 39.040006452474202 11.804251834276828 #
edge $-1 $720 1 $720 0 $398 $-1 forward 7 unknown #
vertex $-1 $399 $721 #
ellipse-curve $-1 -33.868055949722731 36.798509767079764 9.3148176177430067 0 0.66913061440640931 0.74314481823134659 1 0 0 1 I I #
point $-1 -32.868055949722731 39.040006452474202 11.804251834276828 #
loop $-1 $-1 $410 $402 #
plane-surface $-1 0 41.534204028603625 0 0 -1 0 0 0 -1 forward_v I I I I #
coedge $-1 $577 $405 $407 $581 reversed $253 $-1 #
coedge $-1 $405 $576 $722 $723 reversed $253 $-1 #
coedge $-1 $413 $408 $405 $579 forward $403 $-1 #
edge $-1 $582 6.1394332934409519 $724 11.127828445699826 $578 $725 forward 7 unknown #
coedge $-1 $407 $406 $585 $726 reversed $159 $-1 #
edge $-1 $727 -83.06840805720725 $582 -76.355860206667103 $576 $728 forward 7 unknown #
vertex $-1 $409 $729 #
straight-curve $-1 -4.3428996400472855 36.545808876344751 14.050037468009009 1 0 0 I I #
coedge $-1 $722 $410 $413 $589 reversed $574 $-1 #
coedge $-1 $410 $722 $580 $726 forward $574 $-1 #
vertex $-1 $411 $730 #
straight-curve $-1 -14.382797410016888 41.534204028603625 77.556623917795378 0 0 1 I I #
straight-curve $-1 -14.382797410016888 -20.197652977836981 65.142081121626063 0 0.74314481823134659 -0.66913061440640931 I I #
edge $-1 $724 2.9888011501722538 $414 14.382797410016888 $584 $731 forward 7 unknown #
point $-1 -14.382797410016888 41.534204028603625 14.050037468009007 #
point $-1 -14.382797410016888 36.545808876344751 14.050037468009009 #
edge $-1 $732 1 $732 0 $417 $-1 forward 7 unknown #
vertex $-1 $418 $733 #
ellipse-curve $-1 -11.127369907204141 36.798509767079764 9.3148176177430067 0 0.66913061440640931 0.74314481823134659 1 0 0 1 I I #
point $-1 -10.127369907204141 39.040006452474202 11.804251834276828 #
edge $-1 $734 1 $734 0 $421 $-1 forward 7 unknown #
vertex $-1 $422 $735 #
ellipse-curve $-1 -6.244228652985008 36.798509767079764 9.3148176177430067 0 0.66913061440640931 0.74314481823134659 1 0 0 1 I I #
point $-1 -5.244228652985008 39.040006452474202 11.804251834276828 #
loop $-1 $-1 $433 $425 #
plane-surface $-1 0 41.534204028603625 0 0 -1 0 0 0 -1 forward_v I I I I #
coedge $-1 $603 $428 $430 $607 reversed $275 $-1 #
coedge $-1 $428 $602 $736 $737 reversed $275 $-1 #
coedge $-1 $436 $431 $428 $605 forward $426 $-1 #
edge $-1 $608 6.1394332934409519 $738 11.127828445699826 $604 $739 forward 7 unknown #
coedge $-1 $430 $429 $611 $740 reversed $173 $-1 #
edge $-1 $741 -83.06840805720725 $608 -76.355860206667103 $602 $742 forward 7 unknown #
vertex $-1 $432 $743 #
straight-curve $-1 9.4690140083215795 36.545808876344751 14.050037468009009 1 0 0 I I #
coedge $-1 $736 $433 $436 $615 reversed $600 $-1 #
coedge $-1 $433 $736 $606 $740 forward $600 $-1 #
vertex $-1 $434 $744 #
straight-curve $-1 13.241029886720842 41.534204028603625 77.556623917795378 0 0 1 I I #
straight-curve $-1 13.241029886720842 -20.197652977836981 65.142081121626063 0 0.74314481823134659 -0.66913061440640931 I I #
edge $-1 $738 -24.635026146565476 $437 -13.241029886720842 $610 $745 forward 7 unknown #
point $-1 13.241029886720842 41.534204028603625 14.050037468009007 #
point $-1 13.241029886720842 36.545808876344751 14.050037468009009 #
edge $-1 $746 1 $746 0 $440 $-1 forward 7 unknown #
vertex $-1 $441 $747 #
ellipse-curve $-1 16.496457389533589 36.798509767079764 9.3148176177430067 0 0.66913061440640931 0.74314481823134659 1 0 0 1 I I #
point $-1 17.496457389533589 39.040006452474202 11.804251834276828 #
edge $-1 $748 1 $748 0 $444 $-1 forward 7 unknown #
vertex $-1 $445 $749 #
ellipse-curve $-1 21.379598643752715 36.798509767079764 9.3148176177430067 0 0.66913061440640931 0.74314481823134659 1 0 0 1 I I #
point $-1 22.379598643752715 39.040006452474202 11.804251834276828 #
loop $-1 $-1 $456 $448 #
plane-surface $-1 0 41.534204028603625 0 0 -1 0 0 0 -1 forward_v I I I I #
coedge $-1 $629 $451 $453 $633 reversed $297 $-1 #
coedge $-1 $451 $628 $750 $751 reversed $297 $-1 #
coedge $-1 $459 $454 $451 $631 forward $449 $-1 #
edge $-1 $634 6.1394332934409519 $752 11.127828445699826 $630 $753 forward 7 unknown #
coedge $-1 $453 $452 $637 $754 reversed $187 $-1 #
edge $-1 $755 -83.06840805720725 $634 -76.355860206667103 $628 $756 forward 7 unknown #
vertex $-1 $455 $757 #
straight-curve $-1 23.280927656690444 36.545808876344751 14.050037468009009 1 0 0 I I #
coedge $-1 $750 $456 $459 $641 reversed $626 $-1 #
coedge $-1 $456 $750 $632 $754 forward $626 $-1 #
vertex $-1 $457 $758 #
straight-curve $-1 40.864857183458568 41.534204028603625 77.556623917795378 0 0 1 I I #
straight-curve $-1 40.864857183458568 -20.197652977836981 65.142081121626063 0 0.74314481823134659 -0.66913061440640931 I I #
edge $-1 $752 -52.258853443303209 $460 -40.864857183458568 $636 $759 forward 7 unknown #
point $-1 40.864857183458568 41.534204028603625 14.050037468009007 #
point $-1 40.864857183458568 36.545808876344751 14.050037468009009 #
edge $-1 $760 1 $760 0 $463 $-1 forward 7 unknown #
vertex $-1 $464 $761 #
ellipse-curve $-1 44.120284686271319 36.798509767079764 9.3148176177430067 0 0.66913061440640931 0.74314481823134659 1 0 0 1 I I #
point $-1 45.120284686271319 39.040006452474202 11.804251834276828 #
edge $-1 $762 1 $762 0 $467 $-1 forward 7 unknown #
vertex $-1 $468 $763 #
ellipse-curve $-1 49.003425940490445 36.798509767079764 9.3148176177430067 0 0.66913061440640931 0.74314481823134659 1 0 0 1 I I #
point $-1 50.003425940490445 39.040006452474202 11.804251834276828 #
loop $-1 $-1 $479 $471 #
plane-surface $-1 0 -41.534204028603625 0 0 1 0 0 0 1 forward_v I I I I #
coedge $-1 $655 $474 $476 $659 reversed $319 $-1 #
coedge $-1 $474 $654 $764 $765 reversed $319 $-1 #
coedge $-1 $482 $477 $474 $657 forward $472 $-1 #
edge $-1 $660 -31.050769585528016 $766 -12.20211802070682 $656 $767 forward 7 unknown #
coedge $-1 $476 $475 $663 $768 reversed $201 $-1 #
edge $-1 $769 -1.699746028866204e-014 $660 22.474440369530342 $654 $770 forward 7 unknown #
vertex $-1 $478 $771 #
straight-curve $-1 -4.8547428968455293 -22.685552463782432 14.050037468009007 -1 0 0 I I #
coedge $-1 $764 $479 $482 $667 reversed $652 $-1 #
coedge $-1 $479 $764 $658 $768 forward $652 $-1 #
vertex $-1 $480 $772 #
straight-curve $-1 -3.6138149769610592 -41.534204028603625 51.672935766654909 0 0 1 I I #
straight-curve $-1 -3.6138149769610592 -41.534204028603611 1.8095797922707675 0 -0.83867056331134215 -0.54463904215088732 I I #
edge $-1 $766 -15.805156610421058 $483 -3.6138149769610592 $662 $773 forward 7 unknown #
point $-1 -3.6138149769610592 -41.534204028603625 14.050037468009007 #
point $-1 -3.6138149769610592 -22.685552463782429 14.050037468009007 #
edge $-1 $774 1 $774 0 $486 $-1 forward 7 unknown #
vertex $-1 $487 $775 #
ellipse-curve $-1 -12.321916143718198 -29.94129502065082 4.5904833622147159 0 -0.54463904215088732 0.83867056331134215 1 0 0 1 I I #
point $-1 -11.321916143718198 -32.109878246193041 7.92980863013989 #
edge $-1 $776 1 $776 0 $490 $-1 forward 7 unknown #
vertex $-1 $491 $777 #
ellipse-curve $-1 -7.0970554436639119 -29.94129502065082 4.5904833622147159 0 -0.54463904215088732 0.83867056331134215 1 0 0 1 I I #
point $-1 -6.0970554436639119 -32.109878246193041 7.92980863013989 #
plane-surface $-1 60.53407391582995 0 0 -1 0 0 0 0 1 forward_v I I I I #
coedge $-1 $499 $497 $501 $683 reversed $341 $-1 #
edge $-1 $512 -14.050037468009007 $685 14.050037468009007 $511 $778 forward 7 unknown #
vertex $-1 $683 $779 #
straight-curve $-1 -60.53407391582995 -41.534204028603625 0 0 0 -1 I I #
edge $-1 $681 -41.534204028603625 $685 41.534204028603625 $679 $780 forward 7 unknown #
straight-curve $-1 0 -41.534204028603625 -14.050037468009007 -1 0 0 I I #
vertex $-1 $504 $781 #
straight-curve $-1 0 41.534204028603625 -14.050037468009007 1 0 0 I I #
point $-1 60.53407391582995 41.534204028603625 -14.050037468009007 #
point $-1 60.53407391582995 -41.534204028603625 -14.050037468009007 #
straight-curve $-1 -60.53407391582995 0 14.050037468009007 0 -1 0 I I #
point $-1 -60.53407391582995 41.534204028603625 14.050037468009007 #
point $-1 -60.53407391582995 -41.534204028603625 14.050037468009007 #
straight-curve $-1 60.53407391582995 -41.534204028603625 0 0 0 -1 I I #
straight-curve $-1 60.53407391582995 41.534204028603625 0 0 0 -1 I I #
plane-surface $-1 -60.53407391582995 0 0 1 0 0 0 0 -1 forward_v I I I I #
edge $-1 $533 6.6669604284796922 $537 11.336527921204437 $536 $782 forward 7 unknown #
edge $-1 $541 -11.336527921204437 $532 -6.6669604284796922 $539 $783 forward 7 unknown #
straight-curve $-1 -49.96123527112097 -20.338272096046502 0 0 0 -1 I I #
edge $-1 $701 -14.050037468009007 $699 14.050037468009007 $543 $784 forward 7 unknown #
vertex $-1 $698 $785 #
straight-curve $-1 -27.62382729673773 -15.668704603321757 -14.050037468009007 1 0 0 I I #
vertex $-1 $544 $786 #
straight-curve $-1 -27.62382729673773 -15.668704603321757 14.050037468009007 -1 0 0 I I #
point $-1 -49.96123527112097 -15.668704603321757 14.050037468009007 #
point $-1 -49.96123527112097 -15.668704603321757 -14.050037468009007 #
point $-1 -49.96123527112097 -20.338272096046502 -14.050037468009007 #
point $-1 -49.96123527112097 -20.338272096046502 14.050037468009007 #
straight-curve $-1 -60.53407391582995 0 14.050037468009007 0 -1 0 I I #
straight-curve $-1 -60.53407391582995 0 -14.050037468009007 0 1 0 I I #
edge $-1 $710 63.506586449786369 $713 67.99815771725072 $549 $787 forward 7 unknown #
vertex $-1 $563 $788 #
straight-curve $-1 -30.612628446909984 30.406375582903799 14.050037468009009 0 1 0 I I #
edge $-1 $713 12.457815158493833 $560 23.851811418338471 $559 $789 forward 7 unknown #
vertex $-1 $712 $790 #
straight-curve $-1 -30.612628446909984 -20.197652977836981 65.142081121626063 0 -0.74314481823134659 0.66913061440640931 I I #
point $-1 -30.612628446909984 36.545808876344751 14.050037468009009 #
point $-1 -42.006624706754621 41.534204028603625 9.5584662005446575 #
straight-curve $-1 0 41.534204028603625 14.050037468009007 -1 0 0 I I #
vertex $-1 $566 $791 #
point $-1 -37.751197203941864 36.798509767079764 9.3148176177430067 #
vertex $-1 $570 $792 #
point $-1 -32.868055949722731 36.798509767079764 9.3148176177430067 #
coedge $-1 $585 $584 $577 $723 forward $574 $-1 #
edge $-1 $724 63.506586449786369 $727 67.99815771725072 $722 $793 forward 7 unknown #
vertex $-1 $589 $794 #
straight-curve $-1 -2.9888011501722538 30.406375582903799 14.050037468009009 0 1 0 I I #
edge $-1 $727 -1.3540984898750317 $586 10.039897769969603 $585 $795 forward 7 unknown #
vertex $-1 $726 $796 #
straight-curve $-1 -2.9888011501722538 -20.197652977836981 65.142081121626063 0 -0.74314481823134659 0.66913061440640931 I I #
point $-1 -2.9888011501722538 36.545808876344751 14.050037468009009 #
point $-1 -14.382797410016888 41.534204028603625 9.5584662005446575 #
straight-curve $-1 0 41.534204028603625 14.050037468009007 -1 0 0 I I #
vertex $-1 $592 $797 #
point $-1 -10.127369907204141 36.798509767079764 9.3148176177430067 #
vertex $-1 $596 $798 #
point $-1 -5.244228652985008 36.798509767079764 9.3148176177430067 #
coedge $-1 $611 $610 $603 $737 forward $600 $-1 #
edge $-1 $738 63.506586449786369 $741 67.99815771725072 $736 $799 forward 7 unknown #
vertex $-1 $615 $800 #
straight-curve $-1 24.635026146565476 30.406375582903799 14.050037468009009 0 1 0 I I #
edge $-1 $741 -15.166012138243897 $612 -3.7720158783992623 $611 $801 forward 7 unknown #
vertex $-1 $740 $802 #
straight-curve $-1 24.635026146565476 -20.197652977836981 65.142081121626063 0 -0.74314481823134659 0.66913061440640931 I I #
point $-1 24.635026146565476 36.545808876344751 14.050037468009009 #
point $-1 13.241029886720842 41.534204028603625 9.5584662005446575 #
straight-curve $-1 0 41.534204028603625 14.050037468009007 -1 0 0 I I #
vertex $-1 $618 $803 #
point $-1 17.496457389533589 36.798509767079764 9.3148176177430067 #
vertex $-1 $622 $804 #
point $-1 22.379598643752715 36.798509767079764 9.3148176177430067 #
coedge $-1 $637 $636 $629 $751 forward $626 $-1 #
edge $-1 $752 63.506586449786369 $755 67.99815771725072 $750 $805 forward 7 unknown #
vertex $-1 $641 $806 #
straight-curve $-1 52.258853443303209 30.406375582903799 14.050037468009009 0 1 0 I I #
edge $-1 $755 -28.977925786612765 $638 -17.583929526768124 $637 $807 forward 7 unknown #
vertex $-1 $754 $808 #
straight-curve $-1 52.258853443303209 -20.197652977836981 65.142081121626063 0 -0.74314481823134659 0.66913061440640931 I I #
point $-1 52.258853443303209 36.545808876344751 14.050037468009009 #
point $-1 40.864857183458568 41.534204028603625 9.5584662005446575 #
straight-curve $-1 0 41.534204028603625 14.050037468009007 -1 0 0 I I #
vertex $-1 $644 $809 #
point $-1 45.120284686271319 36.798509767079764 9.3148176177430067 #
vertex $-1 $648 $810 #
point $-1 50.003425940490445 36.798509767079764 9.3148176177430067 #
coedge $-1 $663 $662 $655 $765 forward $652 $-1 #
edge $-1 $766 37.6228982986459 $769 49.863355974384149 $764 $811 forward 7 unknown #
vertex $-1 $667 $812 #
straight-curve $-1 -15.805156610421058 -53.736322049310445 14.050037468009009 0 -1 0 I I #
edge $-1 $769 -10.950413713575529 $664 1.24092791988447 $663 $813 forward 7 unknown #
vertex $-1 $768 $814 #
straight-curve $-1 -15.805156610421058 -41.534204028603611 1.8095797922707675 0 0.83867056331134215 0.54463904215088732 I I #
point $-1 -15.805156610421058 -22.685552463782429 14.050037468009007 #
point $-1 -3.6138149769610592 -41.534204028603625 1.8095797922707582 #
straight-curve $-1 0 -41.534204028603625 14.050037468009007 1 0 0 I I #
vertex $-1 $670 $815 #
point $-1 -11.321916143718198 -29.94129502065082 4.5904833622147159 #
vertex $-1 $674 $816 #
point $-1 -6.0970554436639119 -29.94129502065082 4.5904833622147159 #
straight-curve $-1 -60.53407391582995 41.534204028603625 0 0 0 -1 I I #
point $-1 -60.53407391582995 -41.534204028603625 -14.050037468009007 #
straight-curve $-1 -60.53407391582995 0 -14.050037468009007 0 1 0 I I #
point $-1 -60.53407391582995 41.534204028603625 -14.050037468009007 #
straight-curve $-1 -49.96123527112097 -9.0017441748420648 -14.050037468009007 0 -1 0 I I #
straight-curve $-1 -49.96123527112097 -9.0017441748420648 14.050037468009007 0 1 0 I I #
straight-curve $-1 -60.53407391582995 -15.668704603321757 0 0 0 -1 I I #
point $-1 -60.53407391582995 -15.668704603321757 -14.050037468009007 #
point $-1 -60.53407391582995 -15.668704603321757 14.050037468009007 #
straight-curve $-1 -30.612628446909984 41.534204028603625 77.556623917795378 0 0 -1 I I #
point $-1 -30.612628446909984 41.534204028603625 14.050037468009007 #
straight-curve $-1 -18.15481328841615 41.534204028603625 9.558466200544661 -1 0 0 I I #
point $-1 -30.612628446909984 41.534204028603625 9.5584662005446575 #
point $-1 -38.751197203941864 36.129379152673351 8.5716727995116599 #
point $-1 -33.868055949722731 36.129379152673351 8.5716727995116599 #
straight-curve $-1 -2.9888011501722538 41.534204028603625 77.556623917795378 0 0 -1 I I #
point $-1 -2.9888011501722538 41.534204028603625 14.050037468009007 #
straight-curve $-1 -4.3428996400472855 41.534204028603625 9.558466200544661 -1 0 0 I I #
point $-1 -2.9888011501722538 41.534204028603625 9.5584662005446575 #
point $-1 -11.127369907204141 36.129379152673351 8.5716727995116599 #
point $-1 -6.244228652985008 36.129379152673351 8.5716727995116599 #
straight-curve $-1 24.635026146565476 41.534204028603625 77.556623917795378 0 0 -1 I I #
point $-1 24.635026146565476 41.534204028603625 14.050037468009007 #
straight-curve $-1 9.4690140083215795 41.534204028603625 9.558466200544661 -1 0 0 I I #
point $-1 24.635026146565476 41.534204028603625 9.5584662005446575 #
point $-1 16.496457389533589 36.129379152673351 8.5716727995116599 #
point $-1 21.379598643752715 36.129379152673351 8.5716727995116599 #
straight-curve $-1 52.258853443303209 41.534204028603625 77.556623917795378 0 0 -1 I I #
point $-1 52.258853443303209 41.534204028603625 14.050037468009007 #
straight-curve $-1 23.280927656690444 41.534204028603625 9.558466200544661 -1 0 0 I I #
point $-1 52.258853443303209 41.534204028603625 9.5584662005446575 #
point $-1 44.120284686271319 36.129379152673351 8.5716727995116599 #
point $-1 49.003425940490445 36.129379152673351 8.5716727995116599 #
straight-curve $-1 -15.805156610421058 -41.534204028603625 51.672935766654909 0 0 -1 I I #
point $-1 -15.805156610421058 -41.534204028603625 14.050037468009007 #
straight-curve $-1 -4.8547428968455293 -41.534204028603625 1.8095797922707602 1 0 0 I I #
point $-1 -15.805156610421058 -41.534204028603625 1.8095797922707582 #
point $-1 -12.321916143718198 -29.396655978499929 3.7518127989033734 #
point $-1 -7.0970554436639119 -29.396655978499929 3.7518127989033734 #
End-of-ACIS-data 