500 0 8 0           
7 Unknown 11 ACIS 5.0 NT 24 Thu Mar 25 18:52:01 1999 
-1 9.9999999999999995e-007 1e-010 
body $-1 $8 $-1 $9 #
body $-1 $10 $-1 $11 #
body $-1 $12 $-1 $13 #
body $-1 $14 $-1 $15 #
body $-1 $16 $-1 $17 #
body $-1 $18 $-1 $19 #
body $-1 $20 $-1 $21 #
body $-1 $22 $-1 $23 #
lump $-1 $-1 $24 $0 #
transform $-1 1 0 0 0 1 0 0 0 1 42.547685171056244 24.161818493879395 9.9804746639807611 1 rotate no_reflect no_shear #
lump $-1 $-1 $25 $1 #
transform $-1 1 0 0 0 1 0 0 0 1 42.547685171056244 24.161818493879395 9.9804746639807611 1 rotate no_reflect no_shear #
lump $-1 $-1 $26 $2 #
transform $-1 1 0 0 0 1 0 0 0 1 42.547685171056244 24.161818493879395 9.9804746639807611 1 rotate no_reflect no_shear #
lump $-1 $-1 $27 $3 #
transform $-1 1 0 0 0 1 0 0 0 1 42.547685171056244 24.161818493879395 9.9804746639807611 1 rotate no_reflect no_shear #
lump $-1 $-1 $28 $4 #
transform $-1 1 0 0 0 1 0 0 0 1 42.547685171056244 24.161818493879395 9.9804746639807611 1 rotate no_reflect no_shear #
lump $-1 $-1 $29 $5 #
transform $-1 1 0 0 0 1 0 0 0 1 42.547685171056244 24.161818493879395 9.9804746639807611 1 rotate no_reflect no_shear #
lump $-1 $-1 $30 $6 #
transform $-1 1 0 0 0 1 0 0 0 1 42.547685171056244 24.161818493879395 9.9804746639807611 1 rotate no_reflect no_shear #
lump $-1 $-1 $31 $7 #
transform $-1 1 0 0 0 1 0 0 0 1 42.547685171056244 24.161818493879395 9.9804746639807611 1 rotate no_reflect no_shear #
shell $-1 $-1 $-1 $32 $-1 $8 #
shell $-1 $-1 $-1 $33 $-1 $10 #
shell $-1 $-1 $-1 $34 $-1 $12 #
shell $-1 $-1 $-1 $35 $-1 $14 #
shell $-1 $-1 $-1 $36 $-1 $16 #
shell $-1 $-1 $-1 $37 $-1 $18 #
shell $-1 $-1 $-1 $38 $-1 $20 #
shell $-1 $-1 $-1 $39 $-1 $22 #
face $-1 $40 $41 $24 $-1 $42 forward single #
face $-1 $43 $44 $25 $-1 $45 forward single #
face $-1 $46 $47 $26 $-1 $48 reversed single #
face $-1 $49 $50 $27 $-1 $51 forward single #
face $-1 $52 $53 $28 $-1 $54 forward single #
face $-1 $55 $56 $29 $-1 $57 forward single #
face $-1 $58 $59 $30 $-1 $60 reversed single #
face $-1 $61 $62 $31 $-1 $63 forward single #
face $-1 $64 $65 $24 $-1 $66 reversed single #
loop $-1 $-1 $67 $32 #
plane-surface $-1 0 0 9.9804746639807611 0 0 1 1 0 0 forward_v I I I I #
face $-1 $68 $69 $25 $-1 $70 reversed single #
loop $-1 $-1 $71 $33 #
plane-surface $-1 -37.403155128540455 0 9.0823989449947931 0 0 1 1 0 0 forward_v I I I I #
face $-1 $72 $73 $26 $-1 $74 reversed single #
loop $-1 $-1 $75 $34 #
plane-surface $-1 -8.4843224754869802 28.274726995093324 103.06498870043494 1 0 0 0 -0.52991927123019833 -0.84804809178421925 forward_v I I I I #
face $-1 $76 $77 $27 $-1 $78 forward single #
loop $-1 $79 $80 $35 #
cone-surface $-1 -5.7900898943293697 19.552078464389634 6.262559519995496 0 -0.52991927123019833 -0.84804809178421925 1 0 0 1 I I 0 1 1 forward I I I I #
face $-1 $81 $82 $28 $-1 $83 forward single #
loop $-1 $84 $85 $36 #
cone-surface $-1 -1.7487410225929523 19.552078464389634 6.262559519995496 0 -0.52991927123019833 -0.84804809178421925 1 0 0 1 I I 0 1 1 forward I I I I #
face $-1 $86 $87 $29 $-1 $88 forward single #
loop $-1 $89 $90 $37 #
cone-surface $-1 2.2926078491434652 19.552078464389634 6.262559519995496 0 -0.52991927123019833 -0.84804809178421925 1 0 0 1 I I 0 1 1 forward I I I I #
face $-1 $91 $92 $30 $-1 $93 reversed single #
loop $-1 $-1 $94 $38 #
plane-surface $-1 7.7942136985848975 -95.528801749355907 51.00232349624352 -1 0 0 0 -0.83867057594974714 0.54463902268945019 forward_v I I I I #
face $-1 $95 $96 $31 $-1 $97 forward single #
loop $-1 $98 $99 $39 #
cone-surface $-1 -0.61615974639246218 -20.743578655401784 6.2211709162329409 0 0.83867057594974714 -0.54463902268945019 1.5 0 0 1 I I 0 1 1.5 forward I I I I #
face $-1 $100 $101 $24 $-1 $102 reversed single #
loop $-1 $-1 $103 $40 #
plane-surface $-1 0 0 -9.9804746639807611 0 0 1 1 0 0 forward_v I I I I #
coedge $-1 $104 $105 $106 $107 forward $41 $-1 #
face $-1 $108 $109 $25 $-1 $110 reversed single #
loop $-1 $-1 $111 $43 #
plane-surface $-1 -37.403155128540455 0 6.0823989449947931 0 0 1 1 0 0 forward_v I I I I #
coedge $-1 $112 $113 $114 $115 forward $44 $-1 #
face $-1 $116 $117 $26 $-1 $118 reversed single #
loop $-1 $-1 $119 $46 #
plane-surface $-1 -1.7487410225929523 -16.818949641662755 30.900022262134996 0 0.52991927123019833 0.84804809178421925 1 0 0 forward_v I I I I #
coedge $-1 $120 $121 $122 $123 reversed $47 $-1 #
face $-1 $-1 $124 $27 $-1 $125 forward single #
loop $-1 $126 $127 $49 #
cone-surface $-1 -5.7900898943293697 18.428625997756015 4.4646597789139122 0 -0.52991927123019833 -0.84804809178421925 0.5 0 0 1 I I -0.70710678118654746 0.70710678118654746 0.5 forward I I I I #
loop $-1 $-1 $128 $35 #
coedge $-1 $80 $80 $129 $130 reversed $50 $-1 #
face $-1 $-1 $131 $28 $-1 $132 forward single #
loop $-1 $133 $134 $52 #
cone-surface $-1 -1.7487410225929523 18.428625997756015 4.4646597789139122 0 -0.52991927123019833 -0.84804809178421925 0.5 0 0 1 I I -0.70710678118654746 0.70710678118654746 0.5 forward I I I I #
loop $-1 $-1 $135 $36 #
coedge $-1 $85 $85 $136 $137 reversed $53 $-1 #
face $-1 $-1 $138 $29 $-1 $139 forward single #
loop $-1 $140 $141 $55 #
cone-surface $-1 2.2926078491434652 18.428625997756015 4.4646597789139122 0 -0.52991927123019833 -0.84804809178421925 0.5 0 0 1 I I -0.70710678118654746 0.70710678118654746 0.5 forward I I I I #
loop $-1 $-1 $142 $37 #
coedge $-1 $90 $90 $143 $144 reversed $56 $-1 #
face $-1 $145 $146 $30 $-1 $147 reversed single #
loop $-1 $-1 $148 $58 #
plane-surface $-1 -0.61615974639246218 -24.161818493879395 4.6560641577185464 0 -0.83867057594974714 0.54463902268945019 1 0 0 forward_v I I I I #
coedge $-1 $149 $150 $151 $152 reversed $59 $-1 #
face $-1 $-1 $153 $31 $-1 $154 forward single #
loop $-1 $155 $156 $61 #
cone-surface $-1 -0.61615974639246218 -18.425192135369919 4.7155931545991407 0 0.83867057594974714 -0.54463902268945019 0.75 0 0 1 I I -0.70710678118654757 0.70710678118654757 0.75 forward I I I I #
loop $-1 $-1 $157 $39 #
coedge $-1 $99 $99 $158 $159 reversed $62 $-1 #
face $-1 $160 $161 $24 $-1 $162 reversed single #
loop $-1 $-1 $163 $64 #
plane-surface $-1 0 -24.161818493879395 0 0 1 0 0 0 1 forward_v I I I I #
coedge $-1 $164 $165 $166 $167 forward $65 $-1 #
coedge $-1 $168 $67 $169 $170 forward $41 $-1 #
coedge $-1 $67 $168 $171 $172 forward $41 $-1 #
coedge $-1 $173 $174 $67 $107 reversed $175 $-1 #
edge $-1 $176 -24.161818493879395 $177 24.161818493879395 $106 $178 forward 7 unknown #
face $-1 $179 $180 $25 $-1 $181 reversed single #
loop $-1 $-1 $182 $68 #
plane-surface $-1 -32.258625086024665 0 7.5823989449947931 -1 0 0 0 0 1 forward_v I I I I #
coedge $-1 $183 $184 $185 $186 forward $69 $-1 #
coedge $-1 $187 $71 $188 $189 reversed $44 $-1 #
coedge $-1 $71 $187 $190 $191 reversed $44 $-1 #
coedge $-1 $182 $192 $71 $115 reversed $109 $-1 #
edge $-1 $193 -24.161818493879395 $194 24.161818493879395 $114 $195 forward 7 unknown #
face $-1 $196 $197 $26 $-1 $198 forward single #
loop $-1 $-1 $199 $72 #
plane-surface $-1 4.9868404303010756 28.274726995093324 103.06498870043494 -1 0 0 0 0.52991927123019833 0.84804809178421925 forward_v I I I I #
coedge $-1 $200 $201 $202 $203 reversed $73 $-1 #
coedge $-1 $121 $75 $204 $205 reversed $47 $-1 #
coedge $-1 $75 $120 $200 $206 reversed $47 $-1 #
coedge $-1 $202 $207 $75 $123 forward $197 $-1 #
edge $-1 $208 -10.024454996332732 $209 -2.5219605993902938 $122 $210 forward 7 unknown #
loop $-1 $-1 $129 $76 #
plane-surface $-1 -1.7487410225929523 -16.818949641662755 30.900022262134996 0 0.52991927123019833 0.84804809178421925 1 0 0 forward_v I I I I #
loop $-1 $-1 $211 $49 #
coedge $-1 $127 $127 $128 $212 reversed $77 $-1 #
coedge $-1 $128 $128 $127 $212 forward $79 $-1 #
coedge $-1 $129 $129 $80 $130 forward $124 $-1 #
edge $-1 $213 -7.5557956249272337e-016 $213 6.2831853071795996 $129 $214 forward 7 unknown #
loop $-1 $-1 $136 $81 #
plane-surface $-1 -1.7487410225929523 -16.818949641662755 30.900022262134996 0 0.52991927123019833 0.84804809178421925 1 0 0 forward_v I I I I #
loop $-1 $-1 $215 $52 #
coedge $-1 $134 $134 $135 $216 reversed $82 $-1 #
coedge $-1 $135 $135 $134 $216 forward $84 $-1 #
coedge $-1 $136 $136 $85 $137 forward $131 $-1 #
edge $-1 $217 -7.5557956249272337e-016 $217 6.2831853071795996 $136 $218 forward 7 unknown #
loop $-1 $-1 $143 $86 #
plane-surface $-1 -1.7487410225929523 -16.818949641662755 30.900022262134996 0 0.52991927123019833 0.84804809178421925 1 0 0 forward_v I I I I #
loop $-1 $-1 $219 $55 #
coedge $-1 $141 $141 $142 $220 reversed $87 $-1 #
coedge $-1 $142 $142 $141 $220 forward $89 $-1 #
coedge $-1 $143 $143 $90 $144 forward $138 $-1 #
edge $-1 $221 -7.5557956249272337e-016 $221 6.2831853071795996 $143 $222 forward 7 unknown #
face $-1 $223 $224 $30 $-1 $225 reversed single #
loop $-1 $-1 $226 $91 #
plane-surface $-1 -9.0265331913698219 -95.528801749355907 51.00232349624352 1 0 0 0 0.83867057594974714 -0.54463902268945019 forward_v I I I I #
coedge $-1 $227 $228 $229 $230 reversed $92 $-1 #
coedge $-1 $150 $94 $231 $232 reversed $59 $-1 #
coedge $-1 $94 $149 $227 $233 reversed $59 $-1 #
coedge $-1 $229 $234 $94 $152 forward $235 $-1 #
edge $-1 $236 23.602582380798559 $237 27.060294881614677 $151 $238 forward 7 unknown #
loop $-1 $-1 $158 $95 #
plane-surface $-1 -0.61615974639246218 -24.161818493879395 4.6560641577185464 0 -0.83867057594974714 0.54463902268945019 1 0 0 forward_v I I I I #
loop $-1 $-1 $239 $61 #
coedge $-1 $156 $156 $157 $240 reversed $96 $-1 #
coedge $-1 $157 $157 $156 $240 forward $98 $-1 #
coedge $-1 $158 $158 $99 $159 forward $153 $-1 #
edge $-1 $241 4.9659273786402691e-016 $241 6.2831853071796013 $158 $242 forward 7 unknown #
face $-1 $243 $244 $24 $-1 $245 reversed single #
loop $-1 $-1 $246 $100 #
plane-surface $-1 -42.547685171056244 0 0 1 0 0 0 0 -1 forward_v I I I I #
coedge $-1 $247 $171 $248 $249 forward $101 $-1 #
coedge $-1 $250 $103 $247 $251 forward $65 $-1 #
coedge $-1 $103 $250 $252 $253 forward $65 $-1 #
coedge $-1 $174 $173 $103 $167 reversed $175 $-1 #
edge $-1 $254 -24.161818493879395 $255 24.161818493879395 $166 $256 forward 7 unknown #
coedge $-1 $105 $104 $257 $258 forward $41 $-1 #
coedge $-1 $259 $260 $104 $170 reversed $244 $-1 #
edge $-1 $177 -42.547685171056244 $261 42.547685171056244 $169 $262 forward 7 unknown #
coedge $-1 $163 $263 $105 $172 reversed $101 $-1 #
edge $-1 $264 -42.547685171056244 $176 42.547685171056244 $171 $265 forward 7 unknown #
coedge $-1 $166 $106 $263 $266 forward $175 $-1 #
coedge $-1 $106 $166 $259 $267 reversed $175 $-1 #
loop $-1 $-1 $173 $243 #
vertex $-1 $107 $268 #
vertex $-1 $107 $269 #
straight-curve $-1 42.547685171056244 0 9.9804746639807611 0 1 0 I I #
face $-1 $270 $271 $25 $-1 $272 reversed single #
loop $-1 $-1 $273 $108 #
plane-surface $-1 0 -24.161818493879395 0 0 1 0 0 0 1 forward_v I I I I #
coedge $-1 $185 $114 $274 $275 reversed $109 $-1 #
coedge $-1 $276 $111 $273 $277 reversed $69 $-1 #
coedge $-1 $111 $276 $278 $279 reversed $69 $-1 #
coedge $-1 $192 $182 $111 $186 reversed $109 $-1 #
edge $-1 $280 -24.161818493879395 $281 24.161818493879395 $185 $282 forward 7 unknown #
coedge $-1 $113 $112 $283 $284 reversed $44 $-1 #
coedge $-1 $285 $286 $112 $189 forward $287 $-1 #
edge $-1 $288 -23.846107606786017 $194 -13.557047521754438 $188 $289 forward 7 unknown #
coedge $-1 $290 $274 $113 $191 forward $180 $-1 #
edge $-1 $193 13.557047521754438 $291 23.846107606786017 $190 $292 forward 7 unknown #
coedge $-1 $114 $185 $285 $293 reversed $109 $-1 #
vertex $-1 $191 $294 #
vertex $-1 $189 $295 #
straight-curve $-1 -32.258625086024665 0 9.0823989449947931 0 1 0 I I #
face $-1 $-1 $296 $26 $-1 $297 reversed single #
loop $-1 $-1 $122 $116 #
plane-surface $-1 0 0 9.9804746639807611 0 0 1 1 0 0 forward_v I I I I #
coedge $-1 $298 $299 $300 $301 reversed $117 $-1 #
coedge $-1 $302 $119 $121 $206 forward $73 $-1 #
coedge $-1 $119 $302 $298 $303 forward $73 $-1 #
coedge $-1 $300 $122 $119 $203 forward $197 $-1 #
edge $-1 $209 -7.609951964190504 $304 5.8612109415975517 $202 $305 forward 7 unknown #
coedge $-1 $306 $307 $120 $205 forward $296 $-1 #
edge $-1 $308 -46.240098583828264 $208 -41.552019686236704 $204 $309 forward 7 unknown #
edge $-1 $209 39.476857577928563 $308 48.323636987758782 $121 $310 forward 7 unknown #
coedge $-1 $122 $300 $306 $311 forward $197 $-1 #
vertex $-1 $205 $312 #
vertex $-1 $123 $313 #
straight-curve $-1 -8.4843224754869802 14.137363497546662 9.9804746639807576 0 -1 0 I I #
coedge $-1 $211 $211 $-1 $314 reversed $126 $-1 #
edge $-1 $315 0 $315 6.2831853071796004 $127 $316 forward 7 unknown #
vertex $-1 $130 $317 #
ellipse-curve $-1 -5.7900898943293697 20.410571295408168 7.6364352151849912 0 0.52991927123019833 0.84804809178421925 1 0 0 1 I I #
coedge $-1 $215 $215 $-1 $318 reversed $133 $-1 #
edge $-1 $319 0 $319 6.2831853071796004 $134 $320 forward 7 unknown #
vertex $-1 $137 $321 #
ellipse-curve $-1 -1.7487410225929523 20.410571295408168 7.6364352151849912 0 0.52991927123019833 0.84804809178421925 1 0 0 1 I I #
coedge $-1 $219 $219 $-1 $322 reversed $140 $-1 #
edge $-1 $323 0 $323 6.2831853071796004 $141 $324 forward 7 unknown #
vertex $-1 $144 $325 #
ellipse-curve $-1 2.2926078491434652 20.410571295408168 7.6364352151849912 0 0.52991927123019833 0.84804809178421925 1 0 0 1 I I #
face $-1 $-1 $235 $30 $-1 $326 forward single #
loop $-1 $-1 $327 $145 #
plane-surface $-1 0 -24.161818493879395 0 0 1 0 0 0 1 forward_v I I I I #
coedge $-1 $328 $329 $330 $331 reversed $146 $-1 #
coedge $-1 $332 $148 $150 $233 forward $92 $-1 #
coedge $-1 $148 $332 $328 $333 forward $92 $-1 #
coedge $-1 $330 $151 $148 $230 forward $235 $-1 #
edge $-1 $237 -8.1022935717811286 $334 8.7184533181735908 $229 $335 forward 7 unknown #
coedge $-1 $336 $337 $149 $232 forward $224 $-1 #
edge $-1 $338 -20.845097590403213 $236 -15.520687084140999 $231 $339 forward 7 unknown #
edge $-1 $237 -6.3486315830654023 $338 0 $150 $340 forward 7 unknown #
coedge $-1 $151 $330 $336 $341 forward $235 $-1 #
loop $-1 $-1 $330 $223 #
vertex $-1 $232 $342 #
vertex $-1 $152 $343 #
straight-curve $-1 7.7942136985848975 -47.764400874677953 9.9804746639807611 0 1 0 I I #
coedge $-1 $239 $239 $-1 $344 reversed $155 $-1 #
edge $-1 $345 0 $345 6.2831853071796004 $156 $346 forward 7 unknown #
vertex $-1 $159 $347 #
ellipse-curve $-1 -0.61615974639246218 -22.432962243471337 7.318269410849652 0 -0.83867057594974714 0.54463902268945019 1.5 0 0 1 I I #
face $-1 $-1 $175 $24 $-1 $348 reversed single #
loop $-1 $-1 $259 $160 #
plane-surface $-1 0 24.161818493879395 0 0 -1 0 0 0 -1 forward_v I I I I #
coedge $-1 $349 $257 $260 $350 forward $161 $-1 #
coedge $-1 $263 $163 $164 $251 reversed $101 $-1 #
coedge $-1 $257 $349 $163 $249 reversed $161 $-1 #
edge $-1 $264 -9.9804746639807611 $351 9.9804746639807611 $248 $352 forward 7 unknown #
coedge $-1 $165 $164 $349 $353 forward $65 $-1 #
edge $-1 $255 -42.547685171056244 $351 42.547685171056244 $247 $354 forward 7 unknown #
coedge $-1 $260 $259 $165 $253 reversed $244 $-1 #
edge $-1 $355 -42.547685171056244 $254 42.547685171056244 $252 $356 forward 7 unknown #
vertex $-1 $167 $357 #
vertex $-1 $266 $358 #
straight-curve $-1 42.547685171056244 0 -9.9804746639807611 0 -1 0 I I #
coedge $-1 $246 $248 $168 $258 reversed $161 $-1 #
edge $-1 $261 -24.161818493879395 $264 24.161818493879395 $257 $359 forward 7 unknown #
coedge $-1 $252 $169 $174 $267 forward $244 $-1 #
coedge $-1 $169 $252 $246 $350 reversed $244 $-1 #
vertex $-1 $170 $360 #
straight-curve $-1 0 24.161818493879395 9.9804746639807611 -1 0 0 I I #
coedge $-1 $171 $247 $173 $266 reversed $101 $-1 #
vertex $-1 $258 $361 #
straight-curve $-1 0 -24.161818493879395 9.9804746639807611 1 0 0 I I #
edge $-1 $176 -9.9804746639807611 $255 9.9804746639807611 $173 $362 forward 7 unknown #
edge $-1 $177 -9.9804746639807611 $254 9.9804746639807611 $174 $363 forward 7 unknown #
point $-1 42.547685171056244 -24.161818493879395 9.9804746639807611 #
point $-1 42.547685171056244 24.161818493879395 9.9804746639807611 #
face $-1 $-1 $287 $25 $-1 $364 reversed single #
loop $-1 $-1 $365 $179 #
plane-surface $-1 -42.547685171056244 0 0 1 0 0 0 0 -1 forward_v I I I I #
coedge $-1 $274 $290 $183 $277 forward $180 $-1 #
coedge $-1 $190 $273 $182 $275 forward $180 $-1 #
edge $-1 $281 2.2911994724973965 $193 5.2911994724973965 $274 $366 forward 7 unknown #
coedge $-1 $184 $183 $365 $367 reversed $69 $-1 #
edge $-1 $368 -23.846107606786017 $281 -13.557047521754438 $273 $369 forward 7 unknown #
coedge $-1 $286 $285 $184 $279 forward $287 $-1 #
edge $-1 $280 13.557047521754438 $370 23.846107606786017 $278 $371 forward 7 unknown #
vertex $-1 $279 $372 #
vertex $-1 $277 $373 #
straight-curve $-1 -32.258625086024665 0 6.0823989449947931 0 -1 0 I I #
coedge $-1 $374 $375 $187 $284 forward $271 $-1 #
edge $-1 $291 -24.161818493879395 $288 24.161818493879395 $283 $376 forward 7 unknown #
coedge $-1 $278 $188 $192 $293 forward $287 $-1 #
coedge $-1 $188 $278 $374 $377 reversed $287 $-1 #
loop $-1 $-1 $278 $270 #
vertex $-1 $377 $378 #
straight-curve $-1 -18.701577564270227 24.161818493879395 9.0823989449947931 1 0 0 I I #
coedge $-1 $273 $190 $375 $379 forward $180 $-1 #
vertex $-1 $379 $380 #
straight-curve $-1 -18.701577564270227 -24.161818493879395 9.0823989449947931 -1 0 0 I I #
edge $-1 $194 -5.2911994724973965 $280 -2.2911994724973965 $285 $381 forward 7 unknown #
point $-1 -32.258625086024665 -24.161818493879395 9.0823989449947931 #
point $-1 -32.258625086024665 24.161818493879395 9.0823989449947931 #
loop $-1 $-1 $204 $196 #
plane-surface $-1 0 24.161818493879395 0 0 -1 0 0 0 -1 forward_v I I I I #
coedge $-1 $299 $199 $201 $303 reversed $117 $-1 #
coedge $-1 $199 $298 $382 $383 reversed $117 $-1 #
coedge $-1 $207 $202 $199 $301 forward $197 $-1 #
edge $-1 $304 2.5219605993902938 $384 10.024454996332732 $300 $385 forward 7 unknown #
coedge $-1 $201 $200 $307 $386 reversed $73 $-1 #
edge $-1 $387 -48.323636987758782 $304 -39.476857577928563 $298 $388 forward 7 unknown #
vertex $-1 $203 $389 #
straight-curve $-1 -0.87437051129647614 16.659324096936956 9.9804746639807593 1 0 0 I I #
coedge $-1 $382 $204 $207 $311 reversed $296 $-1 #
coedge $-1 $204 $382 $302 $386 forward $296 $-1 #
vertex $-1 $205 $390 #
straight-curve $-1 -8.4843224754869802 24.161818493879395 51.532494350217469 0 0 1 I I #
straight-curve $-1 -8.4843224754869802 -16.818949641662755 30.900022262134996 0 0.84804809178421925 -0.52991927123019833 I I #
edge $-1 $384 -4.9868404303010756 $208 8.4843224754869802 $306 $391 forward 7 unknown #
point $-1 -8.4843224754869802 24.161818493879395 9.9804746639807611 #
point $-1 -8.4843224754869802 16.659324096936956 9.9804746639807611 #
edge $-1 $392 1 $392 0 $211 $-1 forward 7 unknown #
vertex $-1 $212 $393 #
ellipse-curve $-1 -5.7900898943293697 18.693585633371114 4.888683824806022 0 0.52991927123019833 0.84804809178421925 1 0 0 1 I I #
point $-1 -4.7900898943293697 20.410571295408154 7.6364352151849699 #
edge $-1 $394 1 $394 0 $215 $-1 forward 7 unknown #
vertex $-1 $216 $395 #
ellipse-curve $-1 -1.7487410225929523 18.693585633371114 4.888683824806022 0 0.52991927123019833 0.84804809178421925 1 0 0 1 I I #
point $-1 -0.74874102259295228 20.410571295408154 7.6364352151849699 #
edge $-1 $396 1 $396 0 $219 $-1 forward 7 unknown #
vertex $-1 $220 $397 #
ellipse-curve $-1 2.2926078491434652 18.693585633371114 4.888683824806022 0 0.52991927123019833 0.84804809178421925 1 0 0 1 I I #
point $-1 3.2926078491434652 20.410571295408154 7.6364352151849699 #
plane-surface $-1 0 0 9.9804746639807611 0 0 1 1 0 0 forward_v I I I I #
coedge $-1 $337 $336 $329 $398 forward $224 $-1 #
coedge $-1 $329 $226 $228 $333 reversed $146 $-1 #
coedge $-1 $226 $328 $327 $398 reversed $146 $-1 #
coedge $-1 $234 $229 $226 $331 forward $235 $-1 #
edge $-1 $334 -27.060294881614677 $399 -23.602582380798559 $330 $400 forward 7 unknown #
coedge $-1 $228 $227 $337 $401 reversed $92 $-1 #
edge $-1 $402 0 $334 6.3486315830654023 $328 $403 forward 7 unknown #
vertex $-1 $230 $404 #
straight-curve $-1 -0.30807987319623109 -20.70410599306328 9.9804746639807611 -1 0 0 I I #
coedge $-1 $327 $231 $234 $341 reversed $224 $-1 #
coedge $-1 $231 $327 $332 $401 forward $224 $-1 #
vertex $-1 $232 $405 #
straight-curve $-1 7.7942136985848975 -24.161818493879395 25.50116174812176 0 0 1 I I #
straight-curve $-1 7.7942136985848975 -24.161818493879395 4.6560641577185464 0 -0.54463902268945019 -0.83867057594974714 I I #
edge $-1 $399 -9.0265331913698219 $236 7.7942136985848975 $336 $406 forward 7 unknown #
point $-1 7.7942136985848975 -24.161818493879395 9.9804746639807611 #
point $-1 7.7942136985848975 -20.704105993063276 9.9804746639807611 #
edge $-1 $407 1 $407 0 $239 $-1 forward 7 unknown #
vertex $-1 $240 $408 #
ellipse-curve $-1 -0.61615974639246218 -19.05419506733223 5.1240724216162281 0 -0.83867057594974714 0.54463902268945019 1.5 0 0 1 I I #
point $-1 0.88384025360753782 -22.432962243471337 7.3182694108496529 #
plane-surface $-1 42.547685171056244 0 0 -1 0 0 0 0 1 forward_v I I I I #
coedge $-1 $248 $246 $250 $353 reversed $161 $-1 #
edge $-1 $261 -9.9804746639807611 $355 9.9804746639807611 $260 $409 forward 7 unknown #
vertex $-1 $353 $410 #
straight-curve $-1 -42.547685171056244 -24.161818493879395 0 0 0 -1 I I #
edge $-1 $351 -24.161818493879395 $355 24.161818493879395 $349 $411 forward 7 unknown #
straight-curve $-1 0 -24.161818493879395 -9.9804746639807611 -1 0 0 I I #
vertex $-1 $253 $412 #
straight-curve $-1 0 24.161818493879395 -9.9804746639807611 1 0 0 I I #
point $-1 42.547685171056244 24.161818493879395 -9.9804746639807611 #
point $-1 42.547685171056244 -24.161818493879395 -9.9804746639807611 #
straight-curve $-1 -42.547685171056244 0 9.9804746639807611 0 -1 0 I I #
point $-1 -42.547685171056244 24.161818493879395 9.9804746639807611 #
point $-1 -42.547685171056244 -24.161818493879395 9.9804746639807611 #
straight-curve $-1 42.547685171056244 -24.161818493879395 0 0 0 -1 I I #
straight-curve $-1 42.547685171056244 24.161818493879395 0 0 0 -1 I I #
plane-surface $-1 0 24.161818493879395 0 0 -1 0 0 0 -1 forward_v I I I I #
coedge $-1 $375 $374 $276 $367 forward $271 $-1 #
straight-curve $-1 -32.258625086024665 -24.161818493879395 3.7911994724973965 0 0 1 I I #
edge $-1 $370 -24.161818493879395 $368 24.161818493879395 $365 $413 forward 7 unknown #
vertex $-1 $277 $414 #
straight-curve $-1 -18.701577564270227 -24.161818493879395 6.0823989449947931 1 0 0 I I #
vertex $-1 $279 $415 #
straight-curve $-1 -18.701577564270227 24.161818493879395 6.0823989449947931 -1 0 0 I I #
point $-1 -32.258625086024665 24.161818493879395 6.0823989449947931 #
point $-1 -32.258625086024665 -24.161818493879395 6.0823989449947931 #
coedge $-1 $365 $283 $286 $377 forward $271 $-1 #
coedge $-1 $283 $365 $290 $379 reversed $271 $-1 #
straight-curve $-1 -42.547685171056244 0 9.0823989449947931 0 1 0 I I #
edge $-1 $288 -9.0823989449947931 $370 -6.0823989449947931 $286 $416 forward 7 unknown #
point $-1 -42.547685171056244 24.161818493879395 9.0823989449947931 #
edge $-1 $291 -9.0823989449947931 $368 -6.0823989449947931 $375 $417 forward 7 unknown #
point $-1 -42.547685171056244 -24.161818493879395 9.0823989449947931 #
straight-curve $-1 -32.258625086024665 24.161818493879395 3.7911994724973965 0 0 -1 I I #
coedge $-1 $307 $306 $299 $383 forward $296 $-1 #
edge $-1 $384 41.552019686236704 $387 46.240098583828264 $382 $418 forward 7 unknown #
vertex $-1 $311 $419 #
straight-curve $-1 4.9868404303010756 14.137363497546662 9.9804746639807576 0 1 0 I I #
edge $-1 $387 -5.8612109415975517 $308 7.609951964190504 $307 $420 forward 7 unknown #
vertex $-1 $386 $421 #
straight-curve $-1 4.9868404303010756 -16.818949641662755 30.900022262134996 0 -0.84804809178421925 0.52991927123019833 I I #
point $-1 4.9868404303010756 16.659324096936956 9.9804746639807611 #
point $-1 -8.4843224754869802 24.161818493879395 5.2923957663892054 #
straight-curve $-1 0 24.161818493879395 9.9804746639807611 -1 0 0 I I #
vertex $-1 $314 $422 #
point $-1 -4.7900898943293697 18.693585633371114 4.888683824806022 #
vertex $-1 $318 $423 #
point $-1 -0.74874102259295228 18.693585633371114 4.888683824806022 #
vertex $-1 $322 $424 #
point $-1 3.2926078491434652 18.693585633371114 4.888683824806022 #
edge $-1 $399 15.520687084140999 $402 20.845097590403213 $327 $425 forward 7 unknown #
vertex $-1 $341 $426 #
straight-curve $-1 -9.0265331913698219 -47.764400874677953 9.9804746639807611 0 -1 0 I I #
edge $-1 $402 -8.7184533181735908 $338 8.1022935717811286 $337 $427 forward 7 unknown #
vertex $-1 $401 $428 #
straight-curve $-1 -9.0265331913698219 -24.161818493879395 4.6560641577185464 0 0.54463902268945019 0.83867057594974714 I I #
point $-1 -9.0265331913698219 -20.704105993063276 9.9804746639807611 #
point $-1 7.7942136985848975 -24.161818493879395 4.6560641577185464 #
straight-curve $-1 0 -24.161818493879395 9.9804746639807611 1 0 0 I I #
vertex $-1 $344 $429 #
point $-1 0.88384025360753782 -19.05419506733223 5.1240724216162281 #
straight-curve $-1 -42.547685171056244 24.161818493879395 0 0 0 -1 I I #
point $-1 -42.547685171056244 -24.161818493879395 -9.9804746639807611 #
straight-curve $-1 -42.547685171056244 0 -9.9804746639807611 0 1 0 I I #
point $-1 -42.547685171056244 24.161818493879395 -9.9804746639807611 #
straight-curve $-1 -42.547685171056244 0 6.0823989449947931 0 -1 0 I I #
point $-1 -42.547685171056244 -24.161818493879395 6.0823989449947931 #
point $-1 -42.547685171056244 24.161818493879395 6.0823989449947931 #
straight-curve $-1 -42.547685171056244 24.161818493879395 0 0 0 -1 I I #
straight-curve $-1 -42.547685171056244 -24.161818493879395 0 0 0 -1 I I #
straight-curve $-1 4.9868404303010756 24.161818493879395 51.532494350217469 0 0 -1 I I #
point $-1 4.9868404303010756 24.161818493879395 9.9804746639807611 #
straight-curve $-1 -0.87437051129647614 24.161818493879395 5.2923957663892054 -1 0 0 I I #
point $-1 4.9868404303010756 24.161818493879395 5.2923957663892054 #
point $-1 -5.7900898943293697 18.163666362140916 4.0406357330218023 #
point $-1 -1.7487410225929523 18.163666362140916 4.0406357330218023 #
point $-1 2.2926078491434652 18.163666362140916 4.0406357330218023 #
straight-curve $-1 -9.0265331913698219 -24.161818493879395 25.50116174812176 0 0 -1 I I #
point $-1 -9.0265331913698219 -24.161818493879395 9.9804746639807611 #
straight-curve $-1 -0.30807987319623109 -24.161818493879395 4.6560641577185482 1 0 0 I I #
point $-1 -9.0265331913698219 -24.161818493879395 4.6560641577185464 #
point $-1 -0.61615974639246218 -17.796189203407607 4.3071138875820534 #
End-of-ACIS-data 