500 0 10 0           
7 Unknown 11 ACIS 5.0 NT 24 Fri Mar 26 15:00:51 1999 
-1 9.9999999999999995e-007 1e-010 
body $-1 $10 $-1 $11 #
body $-1 $12 $-1 $13 #
body $-1 $14 $-1 $15 #
body $-1 $16 $-1 $17 #
body $-1 $18 $-1 $19 #
body $-1 $20 $-1 $21 #
body $-1 $22 $-1 $23 #
body $-1 $24 $-1 $25 #
body $-1 $26 $-1 $27 #
body $-1 $28 $-1 $29 #
lump $-1 $-1 $30 $0 #
transform $-1 1 0 0 0 1 0 0 0 1 46.384472182378616 30.371658301564672 7.3064568283255671 1 rotate no_reflect no_shear #
lump $-1 $-1 $31 $1 #
transform $-1 1 0 0 0 1 0 0 0 1 46.384472182378616 30.371658301564672 7.3064568283255671 1 rotate no_reflect no_shear #
lump $-1 $-1 $32 $2 #
transform $-1 1 0 0 0 1 0 0 0 1 46.384472182378616 30.371658301564672 7.3064568283255671 1 rotate no_reflect no_shear #
lump $-1 $-1 $33 $3 #
transform $-1 1 0 0 0 1 0 0 0 1 46.384472182378616 30.371658301564672 7.3064568283255671 1 rotate no_reflect no_shear #
lump $-1 $-1 $34 $4 #
transform $-1 1 0 0 0 1 0 0 0 1 46.384472182378616 30.371658301564672 7.3064568283255671 1 rotate no_reflect no_shear #
lump $-1 $-1 $35 $5 #
transform $-1 1 0 0 0 1 0 0 0 1 46.384472182378616 30.371658301564672 7.3064568283255671 1 rotate no_reflect no_shear #
lump $-1 $-1 $36 $6 #
transform $-1 1 0 0 0 1 0 0 0 1 46.384472182378616 30.371658301564672 7.3064568283255671 1 rotate no_reflect no_shear #
lump $-1 $-1 $37 $7 #
transform $-1 1 0 0 0 1 0 0 0 1 46.384472182378616 30.371658301564672 7.3064568283255671 1 rotate no_reflect no_shear #
lump $-1 $-1 $38 $8 #
transform $-1 1 0 0 0 1 0 0 0 1 46.384472182378616 30.371658301564672 7.3064568283255671 1 rotate no_reflect no_shear #
lump $-1 $-1 $39 $9 #
transform $-1 1 0 0 0 1 0 0 0 1 46.384472182378616 30.371658301564672 7.3064568283255671 1 rotate no_reflect no_shear #
shell $-1 $-1 $-1 $40 $-1 $10 #
shell $-1 $-1 $-1 $41 $-1 $12 #
shell $-1 $-1 $-1 $42 $-1 $14 #
shell $-1 $-1 $-1 $43 $-1 $16 #
shell $-1 $-1 $-1 $44 $-1 $18 #
shell $-1 $-1 $-1 $45 $-1 $20 #
shell $-1 $-1 $-1 $46 $-1 $22 #
shell $-1 $-1 $-1 $47 $-1 $24 #
shell $-1 $-1 $-1 $48 $-1 $26 #
shell $-1 $-1 $-1 $49 $-1 $28 #
face $-1 $50 $51 $30 $-1 $52 reversed single #
face $-1 $53 $54 $31 $-1 $55 forward single #
face $-1 $56 $57 $32 $-1 $58 forward single #
face $-1 $59 $60 $33 $-1 $61 reversed single #
face $-1 $62 $63 $34 $-1 $64 forward single #
face $-1 $65 $66 $35 $-1 $67 forward single #
face $-1 $68 $69 $36 $-1 $70 forward single #
face $-1 $71 $72 $37 $-1 $73 reversed single #
face $-1 $74 $75 $38 $-1 $76 forward single #
face $-1 $77 $78 $39 $-1 $79 forward single #
face $-1 $80 $81 $30 $-1 $82 forward single #
loop $-1 $-1 $83 $40 #
plane-surface $-1 46.384472182378616 0 0 -1 0 0 0 0 1 forward_v I I I I #
face $-1 $84 $85 $31 $-1 $86 reversed single #
loop $-1 $-1 $87 $41 #
plane-surface $-1 -46.384472182378616 0 0 1 0 0 0 0 -1 forward_v I I I I #
face $-1 $88 $89 $32 $-1 $90 reversed single #
loop $-1 $-1 $91 $42 #
plane-surface $-1 46.384472182378616 0 0 -1 0 0 0 0 1 forward_v I I I I #
face $-1 $92 $93 $33 $-1 $94 reversed single #
loop $-1 $-1 $95 $43 #
plane-surface $-1 -8.7005495888111 -109.89016465852157 51.475780229855552 -1 0 0 0 -0.85716730853699208 0.51503806187062418 forward_v I I I I #
face $-1 $96 $97 $34 $-1 $98 forward single #
loop $-1 $99 $100 $44 #
cone-surface $-1 -22.628801792873027 -28.729163829821388 5.166143670745968 0 0.85716730853699208 -0.51503806187062418 1 0 0 1 I I 0 1 1 forward I I I I #
face $-1 $101 $102 $35 $-1 $103 forward single #
loop $-1 $104 $105 $45 #
cone-surface $-1 -17.405707216349803 -28.729163829821388 5.166143670745968 0 0.85716730853699208 -0.51503806187062418 1 0 0 1 I I 0 1 1 forward I I I I #
face $-1 $106 $107 $36 $-1 $108 forward single #
loop $-1 $109 $110 $46 #
cone-surface $-1 -12.18261263982658 -28.729163829821388 5.166143670745968 0 0.85716730853699208 -0.51503806187062418 1 0 0 1 I I 0 1 1 forward I I I I #
face $-1 $111 $112 $37 $-1 $113 reversed single #
loop $-1 $-1 $114 $47 #
plane-surface $-1 16.840115878530167 54.908200173287959 110.0565062366089 1 0 0 0 -0.71933980857756763 -0.69465836192734942 forward_v I I I I #
face $-1 $115 $116 $38 $-1 $117 forward single #
loop $-1 $118 $119 $48 #
cone-surface $-1 22.683757119579411 27.006501861304489 3.87507376233728 0 -0.71933980857756763 -0.69465836192734942 1.5 0 0 1 I I 0 1 1.5 forward I I I I #
face $-1 $120 $121 $39 $-1 $122 forward single #
loop $-1 $123 $124 $49 #
cone-surface $-1 31.449218981153294 27.006501861304489 3.87507376233728 0 -0.71933980857756763 -0.69465836192734942 1.5 0 0 1 I I 0 1 1.5 forward I I I I #
face $-1 $125 $126 $30 $-1 $127 reversed single #
loop $-1 $-1 $128 $50 #
plane-surface $-1 0 0 7.3064568283255671 0 0 1 1 0 0 forward_v I I I I #
coedge $-1 $129 $130 $131 $132 reversed $51 $-1 #
face $-1 $133 $134 $31 $-1 $135 forward single #
loop $-1 $-1 $136 $53 #
plane-surface $-1 0 30.371658301564672 0 0 -1 0 0 0 -1 forward_v I I I I #
coedge $-1 $137 $138 $139 $140 forward $54 $-1 #
face $-1 $141 $142 $32 $-1 $143 forward single #
loop $-1 $-1 $144 $56 #
plane-surface $-1 0 -30.371658301564672 0 0 1 0 0 0 1 forward_v I I I I #
coedge $-1 $145 $146 $147 $148 forward $57 $-1 #
face $-1 $149 $150 $33 $-1 $151 reversed single #
loop $-1 $-1 $152 $59 #
plane-surface $-1 -17.405707216349803 -30.371658301564651 3.696242922447226 0 -0.85716730853699208 0.51503806187062418 1 0 0 forward_v I I I I #
coedge $-1 $153 $154 $155 $156 reversed $60 $-1 #
face $-1 $-1 $157 $34 $-1 $158 forward single #
loop $-1 $159 $160 $62 #
cone-surface $-1 -22.628801792873027 -27.742703347590005 4.5734184351702272 0 0.85716730853699208 -0.51503806187062418 0.5 0 0 1 I I -0.70710678118654746 0.70710678118654746 0.5 forward I I I I #
loop $-1 $-1 $161 $44 #
coedge $-1 $100 $100 $162 $163 reversed $63 $-1 #
face $-1 $-1 $164 $35 $-1 $165 forward single #
loop $-1 $166 $167 $65 #
cone-surface $-1 -17.405707216349803 -27.742703347590005 4.5734184351702272 0 0.85716730853699208 -0.51503806187062418 0.5 0 0 1 I I -0.70710678118654746 0.70710678118654746 0.5 forward I I I I #
loop $-1 $-1 $168 $45 #
coedge $-1 $105 $105 $169 $170 reversed $66 $-1 #
face $-1 $-1 $171 $36 $-1 $172 forward single #
loop $-1 $173 $174 $68 #
cone-surface $-1 -12.18261263982658 -27.742703347590005 4.5734184351702272 0 0.85716730853699208 -0.51503806187062418 0.5 0 0 1 I I -0.70710678118654746 0.70710678118654746 0.5 forward I I I I #
loop $-1 $-1 $175 $46 #
coedge $-1 $110 $110 $176 $177 reversed $69 $-1 #
face $-1 $178 $179 $37 $-1 $180 reversed single #
loop $-1 $-1 $181 $71 #
plane-surface $-1 27.06648805036636 -11.824194507999529 45.613783306457222 0 0.71933980857756763 0.69465836192734942 1 0 0 forward_v I I I I #
coedge $-1 $182 $183 $184 $185 reversed $72 $-1 #
face $-1 $-1 $186 $38 $-1 $187 forward single #
loop $-1 $188 $189 $74 #
cone-surface $-1 22.683757119579411 25.703289822010618 2.6165765546684749 0 -0.71933980857756763 -0.69465836192734942 0.75 0 0 1 I I -0.70710678118654757 0.70710678118654757 0.75 forward I I I I #
loop $-1 $-1 $190 $48 #
coedge $-1 $119 $119 $191 $192 reversed $75 $-1 #
face $-1 $-1 $193 $39 $-1 $194 forward single #
loop $-1 $195 $196 $77 #
cone-surface $-1 31.449218981153294 25.703289822010618 2.6165765546684749 0 -0.71933980857756763 -0.69465836192734942 0.75 0 0 1 I I -0.70710678118654757 0.70710678118654757 0.75 forward I I I I #
loop $-1 $-1 $197 $49 #
coedge $-1 $124 $124 $198 $199 reversed $78 $-1 #
face $-1 $200 $201 $30 $-1 $202 reversed single #
loop $-1 $-1 $203 $80 #
plane-surface $-1 0 0 -7.3064568283255671 0 0 1 1 0 0 forward_v I I I I #
coedge $-1 $204 $205 $129 $206 forward $81 $-1 #
coedge $-1 $207 $83 $128 $206 reversed $51 $-1 #
coedge $-1 $83 $207 $203 $208 reversed $51 $-1 #
coedge $-1 $209 $210 $83 $132 forward $211 $-1 #
edge $-1 $212 -7.3064568283255671 $213 7.3064568283255671 $83 $214 forward 7 unknown #
face $-1 $215 $216 $31 $-1 $217 reversed single #
loop $-1 $-1 $139 $84 #
plane-surface $-1 -50.930278162466649 0 -1.1025652881777785 0 0 1 1 0 0 forward_v I I I I #
coedge $-1 $218 $219 $138 $220 forward $85 $-1 #
coedge $-1 $221 $87 $222 $223 reversed $54 $-1 #
coedge $-1 $87 $221 $136 $220 reversed $54 $-1 #
coedge $-1 $224 $225 $87 $140 reversed $134 $-1 #
edge $-1 $226 -30.371658301564672 $227 30.371658301564672 $139 $228 forward 7 unknown #
face $-1 $229 $230 $32 $-1 $231 reversed single #
loop $-1 $-1 $232 $88 #
plane-surface $-1 50.930278162466649 0 -1.1025652881777785 0 0 1 1 0 0 forward_v I I I I #
coedge $-1 $233 $234 $146 $235 forward $89 $-1 #
coedge $-1 $236 $91 $237 $238 reversed $57 $-1 #
coedge $-1 $91 $236 $144 $235 reversed $57 $-1 #
coedge $-1 $239 $240 $91 $148 reversed $142 $-1 #
edge $-1 $241 -30.371658301564672 $242 30.371658301564672 $147 $243 forward 7 unknown #
face $-1 $244 $245 $33 $-1 $246 forward single #
loop $-1 $-1 $247 $92 #
plane-surface $-1 -26.110864843888507 -109.89016465852157 51.475780229855552 1 0 0 0 0.85716730853699208 -0.51503806187062418 forward_v I I I I #
coedge $-1 $248 $249 $250 $251 reversed $93 $-1 #
coedge $-1 $154 $95 $252 $253 reversed $60 $-1 #
coedge $-1 $95 $153 $248 $254 reversed $60 $-1 #
coedge $-1 $250 $255 $95 $156 forward $245 $-1 #
edge $-1 $256 24.573424027696113 $257 26.742659315256933 $155 $258 forward 7 unknown #
loop $-1 $-1 $162 $96 #
plane-surface $-1 -17.405707216349803 -30.371658301564651 3.696242922447226 0 -0.85716730853699208 0.51503806187062418 1 0 0 forward_v I I I I #
loop $-1 $-1 $259 $62 #
coedge $-1 $160 $160 $161 $260 reversed $97 $-1 #
coedge $-1 $161 $161 $160 $260 forward $99 $-1 #
coedge $-1 $162 $162 $100 $163 forward $157 $-1 #
edge $-1 $261 -7.7442127688837882e-016 $261 6.2831853071795996 $162 $262 forward 7 unknown #
loop $-1 $-1 $169 $101 #
plane-surface $-1 -17.405707216349803 -30.371658301564651 3.696242922447226 0 -0.85716730853699208 0.51503806187062418 1 0 0 forward_v I I I I #
loop $-1 $-1 $263 $65 #
coedge $-1 $167 $167 $168 $264 reversed $102 $-1 #
coedge $-1 $168 $168 $167 $264 forward $104 $-1 #
coedge $-1 $169 $169 $105 $170 forward $164 $-1 #
edge $-1 $265 -7.7442127688837882e-016 $265 6.2831853071795996 $169 $266 forward 7 unknown #
loop $-1 $-1 $176 $106 #
plane-surface $-1 -17.405707216349803 -30.371658301564651 3.696242922447226 0 -0.85716730853699208 0.51503806187062418 1 0 0 forward_v I I I I #
loop $-1 $-1 $267 $68 #
coedge $-1 $174 $174 $175 $268 reversed $107 $-1 #
coedge $-1 $175 $175 $174 $268 forward $109 $-1 #
coedge $-1 $176 $176 $110 $177 forward $171 $-1 #
edge $-1 $269 -7.7442127688837882e-016 $269 6.2831853071795996 $176 $270 forward 7 unknown #
face $-1 $271 $272 $37 $-1 $273 reversed single #
loop $-1 $-1 $274 $111 #
plane-surface $-1 37.292860222202549 54.908200173287959 110.0565062366089 -1 0 0 0 0.71933980857756763 0.69465836192734942 forward_v I I I I #
coedge $-1 $275 $276 $277 $278 reversed $112 $-1 #
coedge $-1 $183 $114 $279 $280 reversed $72 $-1 #
coedge $-1 $114 $182 $275 $281 reversed $72 $-1 #
coedge $-1 $277 $282 $114 $185 forward $283 $-1 #
edge $-1 $284 -2.9175582149206924 $285 2.2853402998782961 $184 $286 forward 7 unknown #
loop $-1 $-1 $191 $115 #
plane-surface $-1 27.06648805036636 -11.824194507999529 45.613783306457222 0 0.71933980857756763 0.69465836192734942 1 0 0 forward_v I I I I #
loop $-1 $-1 $287 $74 #
coedge $-1 $189 $189 $190 $288 reversed $116 $-1 #
coedge $-1 $190 $190 $189 $288 forward $118 $-1 #
coedge $-1 $191 $191 $119 $192 forward $186 $-1 #
edge $-1 $289 -5.4284954710896305e-016 $289 6.2831853071795996 $191 $290 forward 7 unknown #
loop $-1 $-1 $198 $120 #
plane-surface $-1 27.06648805036636 -11.824194507999529 45.613783306457222 0 0.71933980857756763 0.69465836192734942 1 0 0 forward_v I I I I #
loop $-1 $-1 $291 $77 #
coedge $-1 $196 $196 $197 $292 reversed $121 $-1 #
coedge $-1 $197 $197 $196 $292 forward $123 $-1 #
coedge $-1 $198 $198 $124 $199 forward $193 $-1 #
edge $-1 $293 -5.4284954710896305e-016 $293 6.2831853071795996 $198 $294 forward 7 unknown #
face $-1 $295 $296 $30 $-1 $297 reversed single #
loop $-1 $-1 $298 $125 #
plane-surface $-1 0 -30.371658301564672 0 0 1 0 0 0 1 forward_v I I I I #
coedge $-1 $299 $300 $130 $208 forward $126 $-1 #
coedge $-1 $301 $128 $210 $302 forward $81 $-1 #
coedge $-1 $128 $301 $303 $304 forward $81 $-1 #
edge $-1 $305 -30.371658301564672 $212 30.371658301564672 $129 $306 forward 7 unknown #
coedge $-1 $130 $129 $307 $308 forward $51 $-1 #
edge $-1 $213 -30.371658301564672 $309 30.371658301564672 $130 $310 forward 7 unknown #
coedge $-1 $311 $131 $300 $312 reversed $211 $-1 #
coedge $-1 $131 $311 $204 $302 reversed $211 $-1 #
loop $-1 $-1 $131 $295 #
vertex $-1 $206 $313 #
vertex $-1 $208 $314 #
straight-curve $-1 46.384472182378616 30.371658301564672 0 0 0 -1 I I #
face $-1 $315 $316 $31 $-1 $317 reversed single #
loop $-1 $-1 $318 $133 #
plane-surface $-1 -50.930278162466649 0 -4.8845659066423899 0 0 1 1 0 0 forward_v I I I I #
coedge $-1 $319 $136 $320 $321 reversed $85 $-1 #
coedge $-1 $136 $319 $224 $322 reversed $85 $-1 #
edge $-1 $226 1.1025652881777785 $323 4.8845659066423899 $136 $324 forward 7 unknown #
coedge $-1 $138 $137 $318 $325 forward $54 $-1 #
coedge $-1 $326 $327 $137 $223 forward $328 $-1 #
edge $-1 $329 -4.8845659066423899 $227 -1.1025652881777785 $222 $330 forward 7 unknown #
coedge $-1 $331 $139 $219 $322 forward $134 $-1 #
coedge $-1 $139 $331 $326 $332 forward $134 $-1 #
vertex $-1 $220 $333 #
vertex $-1 $332 $334 #
straight-curve $-1 -46.384472182378616 0 -1.1025652881777785 0 -1 0 I I #
face $-1 $335 $336 $32 $-1 $337 reversed single #
loop $-1 $-1 $338 $141 #
plane-surface $-1 50.930278162466649 0 -4.8845659066423899 0 0 1 1 0 0 forward_v I I I I #
coedge $-1 $240 $239 $339 $340 forward $142 $-1 #
coedge $-1 $341 $144 $342 $343 reversed $89 $-1 #
coedge $-1 $144 $341 $239 $344 reversed $89 $-1 #
edge $-1 $241 1.1025652881777785 $345 4.8845659066423899 $144 $346 forward 7 unknown #
coedge $-1 $146 $145 $347 $348 forward $57 $-1 #
coedge $-1 $349 $350 $145 $238 forward $351 $-1 #
edge $-1 $352 -4.8845659066423899 $242 -1.1025652881777785 $237 $353 forward 7 unknown #
coedge $-1 $232 $147 $234 $344 forward $142 $-1 #
coedge $-1 $147 $232 $349 $354 forward $142 $-1 #
vertex $-1 $235 $355 #
vertex $-1 $354 $356 #
straight-curve $-1 46.384472182378616 0 -1.1025652881777785 0 1 0 I I #
face $-1 $-1 $357 $33 $-1 $358 reversed single #
loop $-1 $-1 $155 $149 #
plane-surface $-1 0 0 7.3064568283255671 0 0 1 1 0 0 forward_v I I I I #
coedge $-1 $359 $360 $361 $362 reversed $150 $-1 #
coedge $-1 $363 $152 $154 $254 forward $93 $-1 #
coedge $-1 $152 $363 $359 $364 forward $93 $-1 #
coedge $-1 $361 $155 $152 $251 forward $245 $-1 #
edge $-1 $257 -0.002304019363801757 $365 17.408011235713605 $250 $366 forward 7 unknown #
coedge $-1 $367 $368 $153 $253 forward $357 $-1 #
edge $-1 $369 -22.041647192480585 $256 -18.431433286602207 $252 $370 forward 7 unknown #
edge $-1 $257 -4.2117960751912404 $369 4.1431396825663817e-014 $154 $371 forward 7 unknown #
coedge $-1 $155 $361 $367 $372 forward $245 $-1 #
vertex $-1 $253 $373 #
vertex $-1 $156 $374 #
straight-curve $-1 -8.7005495888111 -54.945082329260785 7.3064568283255689 0 1 0 I I #
coedge $-1 $259 $259 $-1 $375 reversed $159 $-1 #
edge $-1 $376 0 $376 6.2831853071796004 $160 $377 forward 7 unknown #
vertex $-1 $163 $378 #
ellipse-curve $-1 -22.628801792873027 -29.287040657784257 5.5013498753863868 0 -0.85716730853699208 0.51503806187062418 1 0 0 1 I I #
coedge $-1 $263 $263 $-1 $379 reversed $166 $-1 #
edge $-1 $380 0 $380 6.2831853071796004 $167 $381 forward 7 unknown #
vertex $-1 $170 $382 #
ellipse-curve $-1 -17.405707216349803 -29.287040657784257 5.5013498753863868 0 -0.85716730853699208 0.51503806187062418 1 0 0 1 I I #
coedge $-1 $267 $267 $-1 $383 reversed $173 $-1 #
edge $-1 $384 0 $384 6.2831853071796004 $174 $385 forward 7 unknown #
vertex $-1 $177 $386 #
ellipse-curve $-1 -12.18261263982658 -29.287040657784257 5.5013498753863868 0 -0.85716730853699208 0.51503806187062418 1 0 0 1 I I #
face $-1 $-1 $283 $37 $-1 $387 forward single #
loop $-1 $-1 $388 $178 #
plane-surface $-1 0 30.371658301564672 0 0 -1 0 0 0 -1 forward_v I I I I #
coedge $-1 $389 $390 $391 $392 reversed $179 $-1 #
coedge $-1 $393 $181 $183 $281 forward $112 $-1 #
coedge $-1 $181 $393 $389 $394 forward $112 $-1 #
coedge $-1 $391 $184 $181 $278 forward $283 $-1 #
edge $-1 $285 3.306871853346987 $395 23.759616197019369 $277 $396 forward 7 unknown #
coedge $-1 $397 $398 $182 $280 forward $272 $-1 #
edge $-1 $399 -53.109555549508876 $284 -47.721796289978883 $279 $400 forward 7 unknown #
edge $-1 $285 53.253449929152524 $399 60.743316603129344 $183 $401 forward 7 unknown #
coedge $-1 $184 $391 $397 $402 forward $283 $-1 #
loop $-1 $-1 $391 $271 #
vertex $-1 $280 $403 #
vertex $-1 $185 $404 #
straight-curve $-1 16.840115878530167 27.454100086643979 7.3064568283255653 0 -1 0 I I #
coedge $-1 $287 $287 $-1 $405 reversed $188 $-1 #
edge $-1 $406 0 $406 6.2831853071796004 $189 $407 forward 7 unknown #
vertex $-1 $192 $408 #
ellipse-curve $-1 22.683757119579411 27.770209044165178 4.6125771985605644 0 0.71933980857756763 0.69465836192734942 1.5 0 0 1 I I #
coedge $-1 $291 $291 $-1 $409 reversed $195 $-1 #
edge $-1 $410 0 $410 6.2831853071796004 $196 $411 forward 7 unknown #
vertex $-1 $199 $412 #
ellipse-curve $-1 31.449218981153294 27.770209044165178 4.6125771985605644 0 0.71933980857756763 0.69465836192734942 1.5 0 0 1 I I #
face $-1 $-1 $211 $30 $-1 $413 reversed single #
loop $-1 $-1 $414 $200 #
plane-surface $-1 -46.384472182378616 0 0 1 0 0 0 0 -1 forward_v I I I I #
coedge $-1 $415 $303 $414 $416 forward $201 $-1 #
coedge $-1 $417 $203 $415 $418 forward $126 $-1 #
coedge $-1 $203 $417 $209 $312 forward $126 $-1 #
coedge $-1 $205 $204 $419 $420 forward $81 $-1 #
edge $-1 $212 -46.384472182378616 $421 46.384472182378616 $210 $422 forward 7 unknown #
coedge $-1 $298 $307 $205 $304 reversed $201 $-1 #
edge $-1 $423 -46.384472182378616 $305 46.384472182378616 $303 $424 forward 7 unknown #
vertex $-1 $206 $425 #
straight-curve $-1 46.384472182378616 0 7.3064568283255671 0 1 0 I I #
coedge $-1 $303 $415 $207 $308 reversed $201 $-1 #
edge $-1 $305 -7.3064568283255671 $309 7.3064568283255671 $207 $426 forward 7 unknown #
vertex $-1 $308 $427 #
straight-curve $-1 46.384472182378616 0 -7.3064568283255671 0 -1 0 I I #
coedge $-1 $210 $209 $428 $429 reversed $211 $-1 #
edge $-1 $430 -46.384472182378616 $213 46.384472182378616 $209 $431 forward 7 unknown #
point $-1 46.384472182378616 30.371658301564672 7.3064568283255671 #
point $-1 46.384472182378616 30.371658301564672 -7.3064568283255671 #
face $-1 $-1 $328 $31 $-1 $432 reversed single #
loop $-1 $-1 $433 $215 #
plane-surface $-1 -55.476084142554683 0 -2.9935655974100843 1 0 0 0 0 -1 forward_v I I I I #
coedge $-1 $434 $320 $221 $325 reversed $216 $-1 #
coedge $-1 $219 $218 $433 $435 reversed $85 $-1 #
coedge $-1 $318 $436 $218 $321 forward $216 $-1 #
edge $-1 $437 -4.5458059800880335 $323 4.5458059800880335 $218 $438 forward 7 unknown #
edge $-1 $226 -4.5458059800880335 $439 4.5458059800880335 $219 $440 forward 7 unknown #
vertex $-1 $220 $441 #
straight-curve $-1 -46.384472182378616 30.371658301564672 0 0 0 -1 I I #
edge $-1 $329 -30.371658301564672 $323 30.371658301564672 $318 $442 forward 7 unknown #
coedge $-1 $443 $222 $225 $332 reversed $328 $-1 #
coedge $-1 $222 $443 $434 $444 reversed $328 $-1 #
loop $-1 $-1 $222 $315 #
vertex $-1 $223 $445 #
straight-curve $-1 -46.384472182378616 -30.371658301564672 0 0 0 1 I I #
coedge $-1 $225 $224 $446 $447 forward $134 $-1 #
edge $-1 $448 -4.5458059800880335 $227 4.5458059800880335 $326 $449 forward 7 unknown #
point $-1 -46.384472182378616 30.371658301564672 -1.1025652881777785 #
point $-1 -46.384472182378616 -30.371658301564672 -1.1025652881777785 #
face $-1 $-1 $351 $32 $-1 $450 reversed single #
loop $-1 $-1 $451 $229 #
plane-surface $-1 55.476084142554683 0 -2.9935655974100843 -1 0 0 0 0 1 forward_v I I I I #
coedge $-1 $342 $452 $453 $454 forward $230 $-1 #
coedge $-1 $451 $455 $232 $340 reversed $336 $-1 #
edge $-1 $456 -30.371658301564672 $457 30.371658301564672 $339 $458 forward 7 unknown #
coedge $-1 $234 $233 $451 $459 reversed $89 $-1 #
coedge $-1 $347 $338 $233 $343 forward $230 $-1 #
edge $-1 $460 -4.5458059800880335 $345 4.5458059800880335 $233 $461 forward 7 unknown #
edge $-1 $241 -4.5458059800880335 $456 4.5458059800880335 $234 $462 forward 7 unknown #
vertex $-1 $235 $463 #
straight-curve $-1 46.384472182378616 -30.371658301564672 0 0 0 -1 I I #
coedge $-1 $452 $342 $236 $348 reversed $230 $-1 #
edge $-1 $352 -30.371658301564672 $345 30.371658301564672 $347 $464 forward 7 unknown #
coedge $-1 $465 $237 $240 $354 reversed $351 $-1 #
coedge $-1 $237 $465 $452 $466 reversed $351 $-1 #
loop $-1 $-1 $237 $335 #
vertex $-1 $238 $467 #
straight-curve $-1 46.384472182378616 30.371658301564672 0 0 0 1 I I #
edge $-1 $457 -4.5458059800880335 $242 4.5458059800880335 $349 $468 forward 7 unknown #
point $-1 46.384472182378616 -30.371658301564672 -1.1025652881777785 #
point $-1 46.384472182378616 30.371658301564672 -1.1025652881777785 #
loop $-1 $-1 $252 $244 #
plane-surface $-1 0 -30.371658301564672 0 0 1 0 0 0 1 forward_v I I I I #
coedge $-1 $360 $247 $249 $364 reversed $150 $-1 #
coedge $-1 $247 $359 $469 $470 reversed $150 $-1 #
coedge $-1 $255 $250 $247 $362 forward $245 $-1 #
edge $-1 $365 -26.742659315256933 $471 -24.573424027696113 $361 $472 forward 7 unknown #
coedge $-1 $249 $248 $368 $473 reversed $93 $-1 #
edge $-1 $474 -4.1431396825663817e-014 $365 4.2117960751912404 $359 $475 forward 7 unknown #
vertex $-1 $251 $476 #
straight-curve $-1 -8.7028536081749017 -28.202423014003852 7.3064568283255662 -1 0 0 I I #
coedge $-1 $469 $252 $255 $372 reversed $357 $-1 #
coedge $-1 $252 $469 $363 $473 forward $357 $-1 #
vertex $-1 $253 $477 #
straight-curve $-1 -8.7005495888111 -30.371658301564672 25.737890114927776 0 0 1 I I #
straight-curve $-1 -8.7005495888111 -30.371658301564651 3.696242922447226 0 -0.51503806187062418 -0.85716730853699208 I I #
edge $-1 $471 -26.110864843888507 $256 -8.7005495888111 $367 $478 forward 7 unknown #
point $-1 -8.7005495888111 -30.371658301564672 7.3064568283255671 #
point $-1 -8.7005495888111 -28.202423014003852 7.3064568283255671 #
edge $-1 $479 1 $479 0 $259 $-1 forward 7 unknown #
vertex $-1 $260 $480 #
ellipse-curve $-1 -22.628801792873027 -28.171287001858502 4.8309374661055395 0 -0.85716730853699208 0.51503806187062418 1 0 0 1 I I #
point $-1 -21.628801792873027 -29.287040657784274 5.5013498753863965 #
edge $-1 $481 1 $481 0 $263 $-1 forward 7 unknown #
vertex $-1 $264 $482 #
ellipse-curve $-1 -17.405707216349803 -28.171287001858502 4.8309374661055395 0 -0.85716730853699208 0.51503806187062418 1 0 0 1 I I #
point $-1 -16.405707216349803 -29.287040657784274 5.5013498753863965 #
edge $-1 $483 1 $483 0 $267 $-1 forward 7 unknown #
vertex $-1 $268 $484 #
ellipse-curve $-1 -12.18261263982658 -28.171287001858502 4.8309374661055395 0 -0.85716730853699208 0.51503806187062418 1 0 0 1 I I #
point $-1 -11.18261263982658 -29.287040657784274 5.5013498753863965 #
plane-surface $-1 0 0 7.3064568283255671 0 0 1 1 0 0 forward_v I I I I #
coedge $-1 $398 $397 $390 $485 forward $272 $-1 #
coedge $-1 $390 $274 $276 $394 reversed $179 $-1 #
coedge $-1 $274 $389 $388 $485 reversed $179 $-1 #
coedge $-1 $282 $277 $274 $392 forward $283 $-1 #
edge $-1 $395 -2.2853402998782961 $486 2.9175582149206924 $391 $487 forward 7 unknown #
coedge $-1 $276 $275 $398 $488 reversed $112 $-1 #
edge $-1 $489 -60.743316603129344 $395 -53.253449929152524 $389 $490 forward 7 unknown #
vertex $-1 $278 $491 #
straight-curve $-1 13.53324402518318 25.16875978676568 7.3064568283255689 1 0 0 I I #
coedge $-1 $388 $279 $282 $402 reversed $272 $-1 #
coedge $-1 $279 $388 $393 $488 forward $272 $-1 #
vertex $-1 $280 $492 #
straight-curve $-1 16.840115878530167 30.371658301564672 55.028253118304448 0 0 1 I I #
straight-curve $-1 16.840115878530167 -11.824194507999529 45.613783306457222 0 0.69465836192734942 -0.71933980857756763 I I #
edge $-1 $486 -37.292860222202549 $284 -16.840115878530167 $397 $493 forward 7 unknown #
point $-1 16.840115878530167 30.371658301564672 7.3064568283255671 #
point $-1 16.840115878530167 25.168759786765683 7.3064568283255653 #
edge $-1 $494 1 $494 0 $287 $-1 forward 7 unknown #
vertex $-1 $288 $495 #
ellipse-curve $-1 22.683757119579411 26.242794678443794 3.1375703261139871 0 0.71933980857756763 0.69465836192734942 1.5 0 0 1 I I #
point $-1 24.183757119579411 27.770209044165185 4.6125771985605724 #
edge $-1 $496 1 $496 0 $291 $-1 forward 7 unknown #
vertex $-1 $292 $497 #
ellipse-curve $-1 31.449218981153294 26.242794678443794 3.1375703261139871 0 0.71933980857756763 0.69465836192734942 1.5 0 0 1 I I #
point $-1 32.949218981153294 27.770209044165185 4.6125771985605724 #
plane-surface $-1 0 30.371658301564672 0 0 -1 0 0 0 -1 forward_v I I I I #
coedge $-1 $419 $498 $298 $416 reversed $296 $-1 #
coedge $-1 $307 $298 $299 $418 reversed $201 $-1 #
edge $-1 $423 -7.3064568283255671 $499 7.3064568283255671 $414 $500 forward 7 unknown #
coedge $-1 $300 $299 $498 $501 forward $126 $-1 #
edge $-1 $309 -46.384472182378616 $499 46.384472182378616 $415 $502 forward 7 unknown #
coedge $-1 $428 $414 $301 $420 reversed $296 $-1 #
edge $-1 $421 -30.371658301564672 $423 30.371658301564672 $419 $503 forward 7 unknown #
vertex $-1 $302 $504 #
straight-curve $-1 0 30.371658301564672 7.3064568283255671 -1 0 0 I I #
vertex $-1 $420 $505 #
straight-curve $-1 0 -30.371658301564672 7.3064568283255671 1 0 0 I I #
point $-1 46.384472182378616 -30.371658301564672 7.3064568283255671 #
straight-curve $-1 46.384472182378616 -30.371658301564672 0 0 0 -1 I I #
point $-1 46.384472182378616 -30.371658301564672 -7.3064568283255671 #
coedge $-1 $498 $419 $311 $429 forward $296 $-1 #
edge $-1 $421 -7.3064568283255671 $430 7.3064568283255671 $311 $506 forward 7 unknown #
vertex $-1 $312 $507 #
straight-curve $-1 0 30.371658301564672 -7.3064568283255671 1 0 0 I I #
plane-surface $-1 0 -30.371658301564672 0 0 1 0 0 0 1 forward_v I I I I #
coedge $-1 $508 $446 $319 $435 forward $316 $-1 #
coedge $-1 $436 $318 $327 $444 forward $216 $-1 #
edge $-1 $439 -1.8910003092323058 $437 1.8910003092323056 $319 $509 forward 7 unknown #
coedge $-1 $320 $434 $508 $510 forward $216 $-1 #
vertex $-1 $321 $511 #
straight-curve $-1 -50.930278162466649 30.371658301564672 -4.8845659066423899 1 0 0 I I #
vertex $-1 $322 $512 #
straight-curve $-1 -50.930278162466649 30.371658301564672 -1.1025652881777785 -1 0 0 I I #
point $-1 -46.384472182378616 30.371658301564672 -4.8845659066423899 #
straight-curve $-1 -46.384472182378616 0 -4.8845659066423899 0 1 0 I I #
coedge $-1 $327 $326 $513 $514 forward $328 $-1 #
edge $-1 $329 -4.5458059800880335 $515 4.5458059800880335 $327 $516 forward 7 unknown #
point $-1 -46.384472182378616 -30.371658301564672 -4.8845659066423899 #
coedge $-1 $433 $513 $331 $447 reversed $316 $-1 #
edge $-1 $439 -30.371658301564672 $448 30.371658301564672 $446 $517 forward 7 unknown #
vertex $-1 $447 $518 #
straight-curve $-1 -50.930278162466649 -30.371658301564672 -1.1025652881777785 1 0 0 I I #
plane-surface $-1 0 30.371658301564672 0 0 -1 0 0 0 -1 forward_v I I I I #
coedge $-1 $453 $339 $341 $459 forward $336 $-1 #
coedge $-1 $338 $347 $350 $466 forward $230 $-1 #
coedge $-1 $455 $451 $338 $454 reversed $336 $-1 #
edge $-1 $519 -30.371658301564672 $460 30.371658301564672 $453 $520 forward 7 unknown #
coedge $-1 $339 $453 $465 $521 reversed $336 $-1 #
vertex $-1 $340 $522 #
vertex $-1 $340 $523 #
straight-curve $-1 55.476084142554683 0 -1.1025652881777785 0 1 0 I I #
edge $-1 $456 -1.8910003092323058 $460 1.8910003092323056 $451 $524 forward 7 unknown #
vertex $-1 $459 $525 #
straight-curve $-1 50.930278162466649 -30.371658301564672 -4.8845659066423899 -1 0 0 I I #
straight-curve $-1 50.930278162466649 -30.371658301564672 -1.1025652881777785 1 0 0 I I #
point $-1 46.384472182378616 -30.371658301564672 -4.8845659066423899 #
straight-curve $-1 46.384472182378616 0 -4.8845659066423899 0 -1 0 I I #
coedge $-1 $350 $349 $455 $521 forward $351 $-1 #
edge $-1 $352 -4.5458059800880335 $519 4.5458059800880335 $350 $526 forward 7 unknown #
point $-1 46.384472182378616 30.371658301564672 -4.8845659066423899 #
straight-curve $-1 50.930278162466649 30.371658301564672 -1.1025652881777785 -1 0 0 I I #
coedge $-1 $368 $367 $360 $470 forward $357 $-1 #
edge $-1 $471 18.431433286602207 $474 22.041647192480585 $469 $527 forward 7 unknown #
vertex $-1 $372 $528 #
straight-curve $-1 -26.110864843888507 -54.945082329260785 7.3064568283255689 0 -1 0 I I #
edge $-1 $474 -17.408011235713605 $369 0.002304019363801757 $368 $529 forward 7 unknown #
vertex $-1 $473 $530 #
straight-curve $-1 -26.110864843888507 -30.371658301564651 3.696242922447226 0 0.51503806187062418 0.85716730853699208 I I #
point $-1 -26.110864843888507 -28.202423014003852 7.3064568283255671 #
point $-1 -8.7005495888111 -30.371658301564672 3.6962429224471904 #
straight-curve $-1 0 -30.371658301564672 7.3064568283255671 1 0 0 I I #
vertex $-1 $375 $531 #
point $-1 -21.628801792873027 -28.171287001858502 4.8309374661055395 #
vertex $-1 $379 $532 #
point $-1 -16.405707216349803 -28.171287001858502 4.8309374661055395 #
vertex $-1 $383 $533 #
point $-1 -11.18261263982658 -28.171287001858502 4.8309374661055395 #
edge $-1 $486 47.721796289978883 $489 53.109555549508876 $388 $534 forward 7 unknown #
vertex $-1 $402 $535 #
straight-curve $-1 37.292860222202549 27.454100086643979 7.3064568283255653 0 1 0 I I #
edge $-1 $489 -23.759616197019369 $399 -3.306871853346987 $398 $536 forward 7 unknown #
vertex $-1 $488 $537 #
straight-curve $-1 37.292860222202549 -11.824194507999529 45.613783306457222 0 -0.69465836192734942 0.71933980857756763 I I #
point $-1 37.292860222202549 25.168759786765683 7.3064568283255653 #
point $-1 16.840115878530167 30.371658301564672 1.9186975687955723 #
straight-curve $-1 0 30.371658301564672 7.3064568283255671 -1 0 0 I I #
vertex $-1 $405 $538 #
point $-1 24.183757119579411 26.242794678443794 3.1375703261139871 #
vertex $-1 $409 $539 #
point $-1 32.949218981153294 26.242794678443794 3.1375703261139871 #
coedge $-1 $414 $428 $417 $501 reversed $296 $-1 #
vertex $-1 $501 $540 #
straight-curve $-1 -46.384472182378616 -30.371658301564672 0 0 0 -1 I I #
edge $-1 $499 -30.371658301564672 $430 30.371658301564672 $498 $541 forward 7 unknown #
straight-curve $-1 0 -30.371658301564672 -7.3064568283255671 -1 0 0 I I #
straight-curve $-1 -46.384472182378616 0 7.3064568283255671 0 -1 0 I I #
point $-1 -46.384472182378616 30.371658301564672 7.3064568283255671 #
point $-1 -46.384472182378616 -30.371658301564672 7.3064568283255671 #
straight-curve $-1 -46.384472182378616 30.371658301564672 0 0 0 -1 I I #
point $-1 -46.384472182378616 30.371658301564672 -7.3064568283255671 #
coedge $-1 $513 $433 $436 $510 reversed $316 $-1 #
straight-curve $-1 -55.476084142554683 30.371658301564672 -2.9935655974100843 0 0 -1 I I #
edge $-1 $515 -30.371658301564672 $437 30.371658301564672 $508 $542 forward 7 unknown #
point $-1 -55.476084142554683 30.371658301564672 -4.8845659066423899 #
point $-1 -55.476084142554683 30.371658301564672 -1.1025652881777785 #
coedge $-1 $446 $508 $443 $514 reversed $316 $-1 #
edge $-1 $448 -1.8910003092323058 $515 1.8910003092323056 $513 $543 forward 7 unknown #
vertex $-1 $510 $544 #
straight-curve $-1 -50.930278162466649 -30.371658301564672 -4.8845659066423899 -1 0 0 I I #
straight-curve $-1 -55.476084142554683 0 -1.1025652881777785 0 -1 0 I I #
point $-1 -55.476084142554683 -30.371658301564672 -1.1025652881777785 #
vertex $-1 $454 $545 #
straight-curve $-1 55.476084142554683 0 -4.8845659066423899 0 -1 0 I I #
edge $-1 $457 -1.8910003092323058 $519 1.8910003092323056 $455 $546 forward 7 unknown #
point $-1 55.476084142554683 -30.371658301564672 -1.1025652881777785 #
point $-1 55.476084142554683 30.371658301564672 -1.1025652881777785 #
straight-curve $-1 55.476084142554683 -30.371658301564672 -2.9935655974100843 0 0 -1 I I #
point $-1 55.476084142554683 -30.371658301564672 -4.8845659066423899 #
straight-curve $-1 50.930278162466649 30.371658301564672 -4.8845659066423899 1 0 0 I I #
straight-curve $-1 -26.110864843888507 -30.371658301564672 25.737890114927776 0 0 -1 I I #
point $-1 -26.110864843888507 -30.371658301564672 7.3064568283255671 #
straight-curve $-1 -8.7028536081749017 -30.371658301564672 3.6962429224471909 1 0 0 I I #
point $-1 -26.110864843888507 -30.371658301564672 3.6962429224471904 #
point $-1 -22.628801792873027 -27.314119693321508 4.3158994042349148 #
point $-1 -17.405707216349803 -27.314119693321508 4.3158994042349148 #
point $-1 -12.18261263982658 -27.314119693321508 4.3158994042349148 #
straight-curve $-1 37.292860222202549 30.371658301564672 55.028253118304448 0 0 -1 I I #
point $-1 37.292860222202549 30.371658301564672 7.3064568283255671 #
straight-curve $-1 13.53324402518318 30.371658301564672 1.9186975687955723 -1 0 0 I I #
point $-1 37.292860222202549 30.371658301564672 1.9186975687955723 #
point $-1 22.683757119579411 25.163784965577442 2.0955827832229628 #
point $-1 31.449218981153294 25.163784965577442 2.0955827832229628 #
point $-1 -46.384472182378616 -30.371658301564672 -7.3064568283255671 #
straight-curve $-1 -46.384472182378616 0 -7.3064568283255671 0 1 0 I I #
straight-curve $-1 -55.476084142554683 0 -4.8845659066423899 0 1 0 I I #
straight-curve $-1 -55.476084142554683 -30.371658301564672 -2.9935655974100843 0 0 -1 I I #
point $-1 -55.476084142554683 -30.371658301564672 -4.8845659066423899 #
point $-1 55.476084142554683 30.371658301564672 -4.8845659066423899 #
straight-curve $-1 55.476084142554683 30.371658301564672 -2.9935655974100843 0 0 -1 I I #
End-of-ACIS-data 