500 0 8 0           
7 Unknown 11 ACIS 5.0 NT 24 Thu Mar 25 15:46:35 1999 
-1 9.9999999999999995e-007 1e-010 
body $-1 $8 $-1 $9 #
body $-1 $10 $-1 $11 #
body $-1 $12 $-1 $13 #
body $-1 $14 $-1 $15 #
body $-1 $16 $-1 $17 #
body $-1 $18 $-1 $19 #
body $-1 $20 $-1 $21 #
body $-1 $22 $-1 $23 #
lump $-1 $-1 $24 $0 #
transform $-1 1 0 0 0 1 0 0 0 1 50.853602710043646 31.471903681017213 9.0259733162020073 1 rotate no_reflect no_shear #
lump $-1 $-1 $25 $1 #
transform $-1 1 0 0 0 1 0 0 0 1 50.853602710043646 31.471903681017213 9.0259733162020073 1 rotate no_reflect no_shear #
lump $-1 $-1 $26 $2 #
transform $-1 1 0 0 0 1 0 0 0 1 50.853602710043646 31.471903681017213 9.0259733162020073 1 rotate no_reflect no_shear #
lump $-1 $-1 $27 $3 #
transform $-1 1 0 0 0 1 0 0 0 1 50.853602710043646 31.471903681017213 9.0259733162020073 1 rotate no_reflect no_shear #
lump $-1 $-1 $28 $4 #
transform $-1 1 0 0 0 1 0 0 0 1 50.853602710043646 31.471903681017213 9.0259733162020073 1 rotate no_reflect no_shear #
lump $-1 $-1 $29 $5 #
transform $-1 1 0 0 0 1 0 0 0 1 50.853602710043646 31.471903681017213 9.0259733162020073 1 rotate no_reflect no_shear #
lump $-1 $-1 $30 $6 #
transform $-1 1 0 0 0 1 0 0 0 1 50.853602710043646 31.471903681017213 9.0259733162020073 1 rotate no_reflect no_shear #
lump $-1 $-1 $31 $7 #
transform $-1 1 0 0 0 1 0 0 0 1 50.853602710043646 31.471903681017213 9.0259733162020073 1 rotate no_reflect no_shear #
shell $-1 $-1 $-1 $32 $-1 $8 #
shell $-1 $-1 $-1 $33 $-1 $10 #
shell $-1 $-1 $-1 $34 $-1 $12 #
shell $-1 $-1 $-1 $35 $-1 $14 #
shell $-1 $-1 $-1 $36 $-1 $16 #
shell $-1 $-1 $-1 $37 $-1 $18 #
shell $-1 $-1 $-1 $38 $-1 $20 #
shell $-1 $-1 $-1 $39 $-1 $22 #
face $-1 $40 $41 $24 $-1 $42 forward single #
face $-1 $43 $44 $25 $-1 $45 forward single #
face $-1 $46 $47 $26 $-1 $48 forward single #
face $-1 $49 $50 $27 $-1 $51 reversed single #
face $-1 $52 $53 $28 $-1 $54 forward single #
face $-1 $55 $56 $29 $-1 $57 forward single #
face $-1 $58 $59 $30 $-1 $60 reversed single #
face $-1 $61 $62 $31 $-1 $63 forward single #
face $-1 $64 $65 $24 $-1 $66 reversed single #
loop $-1 $-1 $67 $32 #
plane-surface $-1 0 0 9.0259733162020073 0 0 1 1 0 0 forward_v I I I I #
face $-1 $68 $69 $25 $-1 $70 reversed single #
loop $-1 $-1 $71 $33 #
plane-surface $-1 0 -31.471903681017213 0 0 1 0 0 0 1 forward_v I I I I #
face $-1 $72 $73 $26 $-1 $74 reversed single #
loop $-1 $-1 $75 $34 #
plane-surface $-1 0 31.471903681017213 0 0 -1 0 0 0 -1 forward_v I I I I #
face $-1 $76 $77 $27 $-1 $78 reversed single #
loop $-1 $-1 $79 $35 #
plane-surface $-1 75.830413521482484 22.73680982593288 145.45328252042549 0 -1 0 -0.81915205242281985 0 -0.57357642473473569 forward_v I I I I #
face $-1 $80 $81 $28 $-1 $82 forward single #
loop $-1 $83 $84 $36 #
cone-surface $-1 47.068260080413921 14.804476123174776 5.0442877089919493 -0.81915205242281985 0 -0.57357642473473569 0.86036463710210354 0 -1.2287280786342298 1 I I 0 1 1.5 forward I I I I #
face $-1 $85 $86 $29 $-1 $87 forward single #
loop $-1 $88 $89 $37 #
cone-surface $-1 47.068260080413921 19.563876344829641 5.0442877089919493 -0.81915205242281985 0 -0.57357642473473569 0.86036463710210354 0 -1.2287280786342298 1 I I 0 1 1.5 forward I I I I #
face $-1 $90 $91 $30 $-1 $92 reversed single #
loop $-1 $-1 $93 $38 #
plane-surface $-1 -124.01564438788859 5.1768640400519352 76.080966445951034 0 1 0 -0.71933980857756763 0 0.69465836192734942 forward_v I I I I #
face $-1 $94 $95 $31 $-1 $96 forward single #
loop $-1 $97 $98 $39 #
cone-surface $-1 -48.548676655008229 9.7708901064261759 6.6788397344018362 0.71933980857756763 0 -0.69465836192734942 0.69465836192734942 0 0.71933980857756763 1 I I 0 1 1 forward I I I I #
face $-1 $99 $100 $24 $-1 $101 reversed single #
loop $-1 $-1 $102 $40 #
plane-surface $-1 0 0 -9.0259733162020073 0 0 1 1 0 0 forward_v I I I I #
coedge $-1 $103 $104 $105 $106 forward $41 $-1 #
face $-1 $107 $108 $25 $-1 $109 reversed single #
loop $-1 $-1 $110 $43 #
plane-surface $-1 0 0 -9.0259733162020073 0 0 1 1 0 0 forward_v I I I I #
coedge $-1 $111 $112 $113 $114 forward $44 $-1 #
face $-1 $115 $116 $26 $-1 $117 forward single #
loop $-1 $-1 $118 $46 #
plane-surface $-1 50.853602710043646 0 0 -1 0 0 0 0 1 forward_v I I I I #
coedge $-1 $119 $120 $121 $122 forward $47 $-1 #
face $-1 $123 $124 $27 $-1 $125 reversed single #
loop $-1 $-1 $126 $49 #
plane-surface $-1 -7.4832525445713713 17.184176234002205 87.116427265810486 0.81915205242281985 0 0.57357642473473569 0.57357642473473569 0 -0.81915205242281985 forward_v I I I I #
coedge $-1 $127 $128 $129 $130 reversed $50 $-1 #
face $-1 $-1 $131 $28 $-1 $132 forward single #
loop $-1 $133 $134 $52 #
cone-surface $-1 44.497219605075969 14.804476123174776 3.2440258414535261 -0.81915205242281985 0 -0.57357642473473569 0.43018231855105177 0 -0.61436403931711492 1 I I -0.70710678118654724 0.70710678118654768 0.75 forward I I I I #
loop $-1 $-1 $135 $36 #
coedge $-1 $84 $84 $136 $137 reversed $53 $-1 #
face $-1 $-1 $138 $29 $-1 $139 forward single #
loop $-1 $140 $141 $55 #
cone-surface $-1 44.497219605075969 19.563876344829641 3.2440258414535261 -0.81915205242281985 0 -0.57357642473473569 0.43018231855105177 0 -0.61436403931711492 1 I I -0.70710678118654724 0.70710678118654768 0.75 forward I I I I #
loop $-1 $-1 $142 $37 #
coedge $-1 $89 $89 $143 $144 reversed $56 $-1 #
face $-1 $145 $146 $30 $-1 $147 reversed single #
loop $-1 $-1 $148 $58 #
plane-surface $-1 -50.853602710043646 9.7708901064261759 5.4292057326247658 -0.71933980857756763 0 0.69465836192734942 0.69465836192734942 0 0.71933980857756763 forward_v I I I I #
coedge $-1 $149 $150 $151 $152 reversed $59 $-1 #
face $-1 $-1 $153 $31 $-1 $154 forward single #
loop $-1 $155 $156 $61 #
cone-surface $-1 -47.620759694988799 9.7708901064261759 5.7827607634266105 0.71933980857756763 0 -0.69465836192734942 0.34732918096367471 0 0.35966990428878381 1 I I -0.70710678118654746 0.70710678118654746 0.5 forward I I I I #
loop $-1 $-1 $157 $39 #
coedge $-1 $98 $98 $158 $159 reversed $62 $-1 #
face $-1 $160 $161 $24 $-1 $162 reversed single #
loop $-1 $-1 $163 $64 #
plane-surface $-1 0 -31.471903681017213 0 0 1 0 0 0 1 forward_v I I I I #
coedge $-1 $164 $165 $166 $167 forward $65 $-1 #
coedge $-1 $168 $67 $169 $170 forward $41 $-1 #
coedge $-1 $67 $168 $171 $172 forward $41 $-1 #
coedge $-1 $173 $174 $67 $106 reversed $175 $-1 #
edge $-1 $176 -31.471903681017213 $177 31.471903681017213 $105 $178 forward 7 unknown #
face $-1 $179 $180 $25 $-1 $181 reversed single #
loop $-1 $-1 $182 $68 #
plane-surface $-1 -47.416469040533229 -40.742589487671431 0 0 1 0 0 0 1 forward_v I I I I #
coedge $-1 $183 $184 $112 $185 forward $69 $-1 #
coedge $-1 $186 $71 $187 $188 reversed $44 $-1 #
coedge $-1 $71 $186 $110 $185 reversed $44 $-1 #
coedge $-1 $189 $190 $71 $114 reversed $180 $-1 #
edge $-1 $191 -9.0259733162020073 $192 9.0259733162020073 $113 $193 forward 7 unknown #
face $-1 $194 $195 $26 $-1 $196 reversed single #
loop $-1 $-1 $197 $72 #
plane-surface $-1 0 35.839450608559375 -3.0828347293978293 0 0 1 1 0 0 forward_v I I I I #
coedge $-1 $198 $199 $120 $200 forward $73 $-1 #
coedge $-1 $201 $75 $202 $203 reversed $47 $-1 #
coedge $-1 $75 $201 $118 $200 reversed $47 $-1 #
coedge $-1 $197 $204 $75 $122 reversed $116 $-1 #
edge $-1 $205 -50.853602710043646 $206 50.853602710043646 $121 $207 forward 7 unknown #
face $-1 $208 $209 $27 $-1 $210 forward single #
loop $-1 $-1 $211 $76 #
plane-surface $-1 75.830413521482484 11.63154264207153 145.45328252042549 0 1 0 0.81915205242281985 0 0.57357642473473569 forward_v I I I I #
coedge $-1 $212 $213 $214 $215 reversed $77 $-1 #
coedge $-1 $128 $79 $216 $217 reversed $50 $-1 #
coedge $-1 $79 $127 $212 $218 reversed $50 $-1 #
coedge $-1 $214 $219 $79 $130 forward $209 $-1 #
edge $-1 $220 -12.938395949302404 $221 -9.2810635620846114 $129 $222 forward 7 unknown #
loop $-1 $-1 $136 $80 #
plane-surface $-1 -7.4832525445713713 17.184176234002205 87.116427265810486 0.81915205242281985 0 0.57357642473473569 0.57357642473473569 0 -0.81915205242281985 forward_v I I I I #
loop $-1 $-1 $223 $52 #
coedge $-1 $134 $134 $135 $224 reversed $81 $-1 #
coedge $-1 $135 $135 $134 $224 forward $83 $-1 #
coedge $-1 $136 $136 $84 $137 forward $131 $-1 #
edge $-1 $225 0 $225 6.2831853071796004 $136 $226 forward 7 unknown #
loop $-1 $-1 $143 $85 #
plane-surface $-1 -7.4832525445713713 17.184176234002205 87.116427265810486 0.81915205242281985 0 0.57357642473473569 0.57357642473473569 0 -0.81915205242281985 forward_v I I I I #
loop $-1 $-1 $227 $55 #
coedge $-1 $141 $141 $142 $228 reversed $86 $-1 #
coedge $-1 $142 $142 $141 $228 forward $88 $-1 #
coedge $-1 $143 $143 $89 $144 forward $138 $-1 #
edge $-1 $229 0 $229 6.2831853071796004 $143 $230 forward 7 unknown #
face $-1 $231 $232 $30 $-1 $233 reversed single #
loop $-1 $-1 $234 $90 #
plane-surface $-1 -124.01564438788859 14.364916172800417 76.080966445951034 0 -1 0 0.71933980857756763 0 -0.69465836192734942 forward_v I I I I #
coedge $-1 $235 $236 $237 $238 reversed $91 $-1 #
coedge $-1 $150 $93 $239 $240 reversed $59 $-1 #
coedge $-1 $93 $149 $235 $241 reversed $59 $-1 #
coedge $-1 $237 $242 $93 $152 forward $243 $-1 #
edge $-1 $244 11.154219483900647 $245 14.627577482510198 $151 $246 forward 7 unknown #
loop $-1 $-1 $158 $94 #
plane-surface $-1 -50.853602710043646 9.7708901064261759 5.4292057326247658 -0.71933980857756763 0 0.69465836192734942 0.69465836192734942 0 0.71933980857756763 forward_v I I I I #
loop $-1 $-1 $247 $61 #
coedge $-1 $156 $156 $157 $248 reversed $95 $-1 #
coedge $-1 $157 $157 $156 $248 forward $97 $-1 #
coedge $-1 $158 $158 $98 $159 forward $153 $-1 #
edge $-1 $249 0 $249 6.2831853071796004 $158 $250 forward 7 unknown #
face $-1 $251 $252 $24 $-1 $253 reversed single #
loop $-1 $-1 $254 $99 #
plane-surface $-1 -50.853602710043646 0 0 1 0 0 0 0 -1 forward_v I I I I #
coedge $-1 $255 $171 $256 $257 forward $100 $-1 #
coedge $-1 $258 $102 $255 $259 forward $65 $-1 #
coedge $-1 $102 $258 $260 $261 forward $65 $-1 #
coedge $-1 $174 $173 $102 $167 reversed $175 $-1 #
edge $-1 $262 -31.471903681017213 $263 31.471903681017213 $166 $264 forward 7 unknown #
coedge $-1 $104 $103 $265 $266 forward $41 $-1 #
coedge $-1 $267 $268 $103 $170 reversed $252 $-1 #
edge $-1 $177 -50.853602710043646 $269 50.853602710043646 $169 $270 forward 7 unknown #
coedge $-1 $163 $271 $104 $172 reversed $100 $-1 #
edge $-1 $272 -50.853602710043646 $176 50.853602710043646 $171 $273 forward 7 unknown #
coedge $-1 $166 $105 $271 $274 forward $175 $-1 #
coedge $-1 $105 $166 $267 $275 reversed $175 $-1 #
loop $-1 $-1 $173 $251 #
vertex $-1 $106 $276 #
vertex $-1 $106 $277 #
straight-curve $-1 50.853602710043646 0 9.0259733162020073 0 1 0 I I #
face $-1 $278 $279 $25 $-1 $280 reversed single #
loop $-1 $-1 $113 $107 #
plane-surface $-1 -48.916469040533229 -36.107246584344324 0 1 0 0 0 0 -1 forward_v I I I I #
coedge $-1 $281 $282 $283 $284 forward $108 $-1 #
coedge $-1 $285 $110 $286 $287 forward $69 $-1 #
coedge $-1 $110 $285 $189 $288 forward $69 $-1 #
edge $-1 $191 -48.916469040533229 $289 -45.916469040533229 $110 $290 forward 7 unknown #
coedge $-1 $112 $111 $291 $292 forward $44 $-1 #
coedge $-1 $293 $294 $111 $188 forward $295 $-1 #
edge $-1 $296 45.916469040533229 $192 48.916469040533229 $187 $297 forward 7 unknown #
coedge $-1 $283 $113 $184 $288 reversed $180 $-1 #
coedge $-1 $113 $283 $293 $298 reversed $180 $-1 #
vertex $-1 $185 $299 #
vertex $-1 $298 $300 #
straight-curve $-1 -48.916469040533229 -31.471903681017213 0 0 0 1 I I #
face $-1 $301 $302 $26 $-1 $303 reversed single #
loop $-1 $-1 $304 $115 #
plane-surface $-1 0 35.839450608559375 -6.0828347293978293 0 0 1 1 0 0 forward_v I I I I #
coedge $-1 $305 $121 $199 $306 forward $116 $-1 #
coedge $-1 $307 $118 $304 $308 reversed $73 $-1 #
coedge $-1 $118 $307 $197 $306 reversed $73 $-1 #
edge $-1 $205 3.0828347293978293 $309 6.0828347293978293 $118 $310 forward 7 unknown #
coedge $-1 $120 $119 $311 $312 forward $47 $-1 #
coedge $-1 $313 $314 $119 $203 forward $315 $-1 #
edge $-1 $316 -6.0828347293978293 $206 -3.0828347293978293 $202 $317 forward 7 unknown #
coedge $-1 $121 $305 $313 $318 forward $116 $-1 #
vertex $-1 $200 $319 #
vertex $-1 $318 $320 #
straight-curve $-1 0 31.471903681017213 -3.0828347293978293 -1 0 0 I I #
face $-1 $-1 $321 $27 $-1 $322 reversed single #
loop $-1 $-1 $129 $123 #
plane-surface $-1 0 0 9.0259733162020073 0 0 1 1 0 0 forward_v I I I I #
coedge $-1 $323 $324 $325 $326 reversed $124 $-1 #
coedge $-1 $327 $126 $128 $218 forward $77 $-1 #
coedge $-1 $126 $327 $323 $328 forward $77 $-1 #
coedge $-1 $325 $129 $126 $215 forward $209 $-1 #
edge $-1 $221 -14.144721708931778 $329 -3.0394545250704272 $214 $330 forward 7 unknown #
coedge $-1 $331 $332 $127 $217 forward $321 $-1 #
edge $-1 $333 -68.923880060456128 $220 -63.700667944010739 $216 $334 forward 7 unknown #
edge $-1 $221 95.330840859934398 $333 101.70720542008732 $128 $335 forward 7 unknown #
coedge $-1 $129 $325 $331 $336 forward $209 $-1 #
vertex $-1 $217 $337 #
vertex $-1 $130 $338 #
straight-curve $-1 37.915206760741242 22.73680982593288 9.0259733162020126 -1 0 0 I I #
coedge $-1 $223 $223 $-1 $339 reversed $133 $-1 #
edge $-1 $340 0 $340 6.2831853071796004 $134 $341 forward 7 unknown #
vertex $-1 $137 $342 #
ellipse-curve $-1 49.024936516434749 14.804476123174776 6.4143672579793147 0.81915205242281985 0 0.57357642473473569 0.86036463710210354 0 -1.2287280786342298 1 I I #
coedge $-1 $227 $227 $-1 $343 reversed $140 $-1 #
edge $-1 $344 0 $344 6.2831853071796004 $141 $345 forward 7 unknown #
vertex $-1 $144 $346 #
ellipse-curve $-1 49.024936516434749 19.563876344829641 6.4143672579793147 0.81915205242281985 0 0.57357642473473569 0.86036463710210354 0 -1.2287280786342298 1 I I #
face $-1 $-1 $243 $30 $-1 $347 forward single #
loop $-1 $-1 $348 $145 #
plane-surface $-1 -50.853602710043646 0 0 1 0 0 0 0 -1 forward_v I I I I #
coedge $-1 $349 $350 $351 $352 reversed $146 $-1 #
coedge $-1 $353 $148 $150 $241 forward $91 $-1 #
coedge $-1 $148 $353 $349 $354 forward $91 $-1 #
coedge $-1 $351 $151 $148 $238 forward $243 $-1 #
edge $-1 $245 0.29141898683884726 $355 9.4794711195873287 $237 $356 forward 7 unknown #
coedge $-1 $357 $358 $149 $240 forward $232 $-1 #
edge $-1 $359 -32.611277490350751 $244 -29.014509906773512 $239 $360 forward 7 unknown #
edge $-1 $245 -5.00009528276982 $359 0 $150 $361 forward 7 unknown #
coedge $-1 $151 $351 $357 $362 forward $243 $-1 #
loop $-1 $-1 $351 $231 #
vertex $-1 $240 $363 #
vertex $-1 $152 $364 #
straight-curve $-1 -62.007822193944293 5.1768640400519352 9.0259733162020055 1 0 0 I I #
coedge $-1 $247 $247 $-1 $365 reversed $155 $-1 #
edge $-1 $366 0 $366 6.2831853071796004 $156 $367 forward 7 unknown #
vertex $-1 $159 $368 #
ellipse-curve $-1 -49.116923710738874 9.7708901064261759 7.2275895244133848 -0.71933980857756763 0 0.69465836192734942 0.69465836192734942 0 0.71933980857756763 1 I I #
face $-1 $-1 $175 $24 $-1 $369 reversed single #
loop $-1 $-1 $267 $160 #
plane-surface $-1 0 31.471903681017213 0 0 -1 0 0 0 -1 forward_v I I I I #
coedge $-1 $370 $265 $268 $371 forward $161 $-1 #
coedge $-1 $271 $163 $164 $259 reversed $100 $-1 #
coedge $-1 $265 $370 $163 $257 reversed $161 $-1 #
edge $-1 $272 -9.0259733162020073 $372 9.0259733162020073 $256 $373 forward 7 unknown #
coedge $-1 $165 $164 $370 $374 forward $65 $-1 #
edge $-1 $263 -50.853602710043646 $372 50.853602710043646 $255 $375 forward 7 unknown #
coedge $-1 $268 $267 $165 $261 reversed $252 $-1 #
edge $-1 $376 -50.853602710043646 $262 50.853602710043646 $260 $377 forward 7 unknown #
vertex $-1 $167 $378 #
vertex $-1 $274 $379 #
straight-curve $-1 50.853602710043646 0 -9.0259733162020073 0 -1 0 I I #
coedge $-1 $254 $256 $168 $266 reversed $161 $-1 #
edge $-1 $269 -31.471903681017213 $272 31.471903681017213 $265 $380 forward 7 unknown #
coedge $-1 $260 $169 $174 $275 forward $252 $-1 #
coedge $-1 $169 $260 $254 $371 reversed $252 $-1 #
vertex $-1 $170 $381 #
straight-curve $-1 0 31.471903681017213 9.0259733162020073 -1 0 0 I I #
coedge $-1 $171 $255 $173 $274 reversed $100 $-1 #
vertex $-1 $266 $382 #
straight-curve $-1 0 -31.471903681017213 9.0259733162020073 1 0 0 I I #
edge $-1 $176 -9.0259733162020073 $263 9.0259733162020073 $173 $383 forward 7 unknown #
edge $-1 $177 -9.0259733162020073 $262 9.0259733162020073 $174 $384 forward 7 unknown #
point $-1 50.853602710043646 -31.471903681017213 9.0259733162020073 #
point $-1 50.853602710043646 31.471903681017213 9.0259733162020073 #
face $-1 $-1 $295 $25 $-1 $385 forward single #
loop $-1 $-1 $386 $179 #
plane-surface $-1 -45.916469040533229 -36.107246584344324 0 -1 0 0 0 0 1 forward_v I I I I #
coedge $-1 $387 $182 $285 $388 reversed $108 $-1 #
coedge $-1 $182 $387 $389 $390 reversed $108 $-1 #
coedge $-1 $190 $189 $182 $284 reversed $180 $-1 #
edge $-1 $391 -9.0259733162020073 $392 9.0259733162020073 $283 $393 forward 7 unknown #
coedge $-1 $184 $183 $281 $388 forward $69 $-1 #
coedge $-1 $291 $386 $183 $287 reversed $279 $-1 #
edge $-1 $289 -4.635342903327107 $394 4.635342903327107 $286 $395 forward 7 unknown #
edge $-1 $392 -4.635342903327107 $191 4.635342903327107 $189 $396 forward 7 unknown #
vertex $-1 $287 $397 #
straight-curve $-1 0 -31.471903681017213 -9.0259733162020073 1 0 0 I I #
coedge $-1 $398 $286 $186 $292 reversed $279 $-1 #
edge $-1 $296 -9.0259733162020073 $289 9.0259733162020073 $291 $399 forward 7 unknown #
coedge $-1 $389 $187 $190 $298 forward $295 $-1 #
coedge $-1 $187 $389 $398 $400 forward $295 $-1 #
loop $-1 $-1 $187 $278 #
vertex $-1 $188 $401 #
straight-curve $-1 0 -31.471903681017213 9.0259733162020073 -1 0 0 I I #
edge $-1 $192 -4.635342903327107 $391 4.635342903327107 $190 $402 forward 7 unknown #
point $-1 -48.916469040533229 -31.471903681017217 -9.0259733162020073 #
point $-1 -48.916469040533229 -31.471903681017217 9.0259733162020073 #
face $-1 $-1 $315 $26 $-1 $403 reversed single #
loop $-1 $-1 $404 $194 #
plane-surface $-1 0 40.206997536101539 -4.5828347293978293 0 -1 0 0 0 -1 forward_v I I I I #
coedge $-1 $311 $405 $198 $308 forward $195 $-1 #
coedge $-1 $204 $197 $406 $407 forward $116 $-1 #
edge $-1 $205 -4.3675469275421612 $408 4.3675469275421648 $199 $409 forward 7 unknown #
coedge $-1 $199 $198 $404 $410 reversed $73 $-1 #
edge $-1 $411 -4.3675469275421648 $309 4.3675469275421612 $198 $412 forward 7 unknown #
vertex $-1 $200 $413 #
straight-curve $-1 50.853602710043646 31.471903681017213 0 0 0 -1 I I #
coedge $-1 $414 $304 $201 $312 reversed $195 $-1 #
edge $-1 $316 -50.853602710043646 $309 50.853602710043646 $311 $415 forward 7 unknown #
coedge $-1 $416 $202 $204 $318 reversed $315 $-1 #
coedge $-1 $202 $416 $414 $417 reversed $315 $-1 #
loop $-1 $-1 $202 $301 #
vertex $-1 $203 $418 #
straight-curve $-1 -50.853602710043646 31.471903681017213 0 0 0 1 I I #
edge $-1 $419 -4.3675469275421648 $206 4.3675469275421612 $313 $420 forward 7 unknown #
point $-1 50.853602710043646 31.471903681017213 -3.0828347293978293 #
point $-1 -50.853602710043646 31.471903681017213 -3.0828347293978293 #
loop $-1 $-1 $216 $208 #
plane-surface $-1 50.853602710043646 0 0 -1 0 0 0 0 1 forward_v I I I I #
coedge $-1 $324 $211 $213 $328 reversed $124 $-1 #
coedge $-1 $211 $323 $421 $422 reversed $124 $-1 #
coedge $-1 $219 $214 $211 $326 forward $209 $-1 #
edge $-1 $329 9.2810635620846114 $423 12.938395949302404 $325 $424 forward 7 unknown #
coedge $-1 $213 $212 $332 $425 reversed $77 $-1 #
edge $-1 $426 -101.70720542008732 $329 -95.330840859934398 $323 $427 forward 7 unknown #
vertex $-1 $215 $428 #
straight-curve $-1 47.196270322825868 8.5920881170011025 9.0259733162019984 0 -1 0 I I #
coedge $-1 $421 $216 $219 $336 reversed $321 $-1 #
coedge $-1 $216 $421 $327 $425 forward $321 $-1 #
vertex $-1 $217 $429 #
straight-curve $-1 50.853602710043646 22.73680982593288 72.726641260212745 0 0 1 I I #
straight-curve $-1 -7.4832525445713713 22.73680982593288 87.116427265810486 0.57357642473473569 0 -0.81915205242281985 I I #
edge $-1 $423 11.63154264207153 $220 22.73680982593288 $331 $430 forward 7 unknown #
point $-1 50.853602710043646 22.73680982593288 9.0259733162020073 #
point $-1 47.196270322825853 22.73680982593288 9.0259733162020126 #
edge $-1 $431 1 $431 0 $223 $-1 forward 7 unknown #
vertex $-1 $224 $432 #
ellipse-curve $-1 45.111583644393086 14.804476123174776 3.6742081600045782 0.81915205242281985 0 0.57357642473473569 0.86036463710210354 0 -1.2287280786342298 1 I I #
point $-1 49.885301153536865 14.804476123174776 5.1856391793450909 #
edge $-1 $433 1 $433 0 $227 $-1 forward 7 unknown #
vertex $-1 $228 $434 #
ellipse-curve $-1 45.111583644393086 19.563876344829641 3.6742081600045782 0.81915205242281985 0 0.57357642473473569 0.86036463710210354 0 -1.2287280786342298 1 I I #
point $-1 49.885301153536865 19.563876344829641 5.1856391793450909 #
plane-surface $-1 0 0 9.0259733162020073 0 0 1 1 0 0 forward_v I I I I #
coedge $-1 $358 $357 $350 $435 forward $232 $-1 #
coedge $-1 $350 $234 $236 $354 reversed $146 $-1 #
coedge $-1 $234 $349 $348 $435 reversed $146 $-1 #
coedge $-1 $242 $237 $234 $352 forward $243 $-1 #
edge $-1 $355 -14.627577482510198 $436 -11.154219483900647 $351 $437 forward 7 unknown #
coedge $-1 $236 $235 $358 $438 reversed $91 $-1 #
edge $-1 $439 0 $355 5.00009528276982 $349 $440 forward 7 unknown #
vertex $-1 $238 $441 #
straight-curve $-1 -47.380244711434088 4.885445053213088 9.025973316202009 0 1 0 I I #
coedge $-1 $348 $239 $242 $362 reversed $232 $-1 #
coedge $-1 $239 $348 $353 $438 forward $232 $-1 #
vertex $-1 $240 $442 #
straight-curve $-1 -50.853602710043646 5.1768640400519352 38.040483222975517 0 0 1 I I #
straight-curve $-1 -50.853602710043646 5.1768640400519352 5.4292057326247658 -0.69465836192734942 0 -0.71933980857756763 I I #
edge $-1 $436 -14.364916172800417 $244 -5.1768640400519352 $357 $443 forward 7 unknown #
point $-1 -50.853602710043646 5.1768640400519352 9.0259733162020073 #
point $-1 -47.380244711434095 5.1768640400519352 9.0259733162020073 #
edge $-1 $444 1 $444 0 $247 $-1 forward 7 unknown #
vertex $-1 $248 $445 #
ellipse-curve $-1 -47.980429599277585 9.7708901064261759 6.130089944390285 -0.71933980857756763 0 0.69465836192734942 0.69465836192734942 0 0.71933980857756763 1 I I #
point $-1 -48.422265348811521 9.7708901064261759 7.9469293329909547 #
plane-surface $-1 50.853602710043646 0 0 -1 0 0 0 0 1 forward_v I I I I #
coedge $-1 $256 $254 $258 $374 reversed $161 $-1 #
edge $-1 $269 -9.0259733162020073 $376 9.0259733162020073 $268 $446 forward 7 unknown #
vertex $-1 $374 $447 #
straight-curve $-1 -50.853602710043646 -31.471903681017213 0 0 0 -1 I I #
edge $-1 $372 -31.471903681017213 $376 31.471903681017213 $370 $448 forward 7 unknown #
straight-curve $-1 0 -31.471903681017213 -9.0259733162020073 -1 0 0 I I #
vertex $-1 $261 $449 #
straight-curve $-1 0 31.471903681017213 -9.0259733162020073 1 0 0 I I #
point $-1 50.853602710043646 31.471903681017213 -9.0259733162020073 #
point $-1 50.853602710043646 -31.471903681017213 -9.0259733162020073 #
straight-curve $-1 -50.853602710043646 0 9.0259733162020073 0 -1 0 I I #
point $-1 -50.853602710043646 31.471903681017213 9.0259733162020073 #
point $-1 -50.853602710043646 -31.471903681017213 9.0259733162020073 #
straight-curve $-1 50.853602710043646 -31.471903681017213 0 0 0 -1 I I #
straight-curve $-1 50.853602710043646 31.471903681017213 0 0 0 -1 I I #
plane-surface $-1 0 0 9.0259733162020073 0 0 1 1 0 0 forward_v I I I I #
coedge $-1 $286 $398 $387 $450 forward $279 $-1 #
coedge $-1 $282 $281 $386 $450 reversed $108 $-1 #
edge $-1 $394 -1.5 $392 1.5 $281 $451 forward 7 unknown #
coedge $-1 $294 $293 $282 $390 forward $295 $-1 #
edge $-1 $391 -1.5 $452 1.5 $282 $453 forward 7 unknown #
vertex $-1 $298 $454 #
vertex $-1 $288 $455 #
straight-curve $-1 -48.916469040533229 -40.742589487671431 0 0 0 -1 I I #
vertex $-1 $450 $456 #
straight-curve $-1 -45.916469040533229 -36.107246584344324 -9.0259733162020073 0 -1 0 I I #
straight-curve $-1 -48.916469040533229 -36.107246584344324 -9.0259733162020073 0 1 0 I I #
point $-1 -45.916469040533229 -31.471903681017217 -9.0259733162020073 #
coedge $-1 $386 $291 $294 $400 reversed $279 $-1 #
straight-curve $-1 -45.916469040533229 -31.471903681017213 0 0 0 -1 I I #
edge $-1 $452 -4.635342903327107 $296 4.635342903327107 $398 $457 forward 7 unknown #
point $-1 -45.916469040533229 -31.471903681017217 9.0259733162020073 #
straight-curve $-1 -48.916469040533229 -36.107246584344324 9.0259733162020073 0 -1 0 I I #
plane-surface $-1 -50.853602710043646 0 0 1 0 0 0 0 -1 forward_v I I I I #
coedge $-1 $458 $406 $307 $410 forward $302 $-1 #
coedge $-1 $304 $414 $458 $459 forward $195 $-1 #
coedge $-1 $404 $460 $305 $407 reversed $302 $-1 #
edge $-1 $408 -50.853602710043646 $419 50.853602710043646 $406 $461 forward 7 unknown #
vertex $-1 $306 $462 #
straight-curve $-1 50.853602710043646 35.839450608559375 -3.0828347293978293 0 1 0 I I #
edge $-1 $408 -1.5 $411 1.5 $307 $463 forward 7 unknown #
vertex $-1 $308 $464 #
straight-curve $-1 50.853602710043646 35.839450608559375 -6.0828347293978293 0 -1 0 I I #
point $-1 50.853602710043646 31.471903681017213 -6.0828347293978293 #
coedge $-1 $405 $311 $314 $417 forward $195 $-1 #
straight-curve $-1 0 31.471903681017213 -6.0828347293978293 1 0 0 I I #
coedge $-1 $314 $313 $460 $465 forward $315 $-1 #
edge $-1 $316 -4.3675469275421612 $466 4.3675469275421648 $314 $467 forward 7 unknown #
point $-1 -50.853602710043646 31.471903681017213 -6.0828347293978293 #
vertex $-1 $407 $468 #
straight-curve $-1 -50.853602710043646 35.839450608559375 -3.0828347293978293 0 -1 0 I I #
coedge $-1 $332 $331 $324 $422 forward $321 $-1 #
edge $-1 $423 63.700667944010739 $426 68.923880060456128 $421 $469 forward 7 unknown #
vertex $-1 $336 $470 #
straight-curve $-1 37.915206760741242 11.63154264207153 9.0259733162020126 1 0 0 I I #
edge $-1 $426 3.0394545250704272 $333 14.144721708931778 $332 $471 forward 7 unknown #
vertex $-1 $425 $472 #
straight-curve $-1 -7.4832525445713713 11.63154264207153 87.116427265810486 -0.57357642473473569 0 0.81915205242281985 I I #
point $-1 47.196270322825853 11.63154264207153 9.0259733162020126 #
point $-1 50.853602710043646 22.73680982593288 3.8027611997566169 #
straight-curve $-1 50.853602710043646 0 9.0259733162020073 0 1 0 I I #
vertex $-1 $339 $473 #
point $-1 45.971948281495187 14.804476123174776 2.4454800813703486 #
vertex $-1 $343 $474 #
point $-1 45.971948281495187 19.563876344829641 2.4454800813703486 #
edge $-1 $436 29.014509906773512 $439 32.611277490350751 $348 $475 forward 7 unknown #
vertex $-1 $362 $476 #
straight-curve $-1 -62.007822193944293 14.364916172800417 9.0259733162020055 -1 0 0 I I #
edge $-1 $439 -9.4794711195873287 $359 -0.29141898683884726 $358 $477 forward 7 unknown #
vertex $-1 $438 $478 #
straight-curve $-1 -50.853602710043646 14.364916172800417 5.4292057326247658 0.69465836192734942 0 0.71933980857756763 I I #
point $-1 -47.380244711434095 14.364916172800417 9.0259733162020073 #
point $-1 -50.853602710043646 5.1768640400519352 5.4292057326247658 #
straight-curve $-1 -50.853602710043646 0 9.0259733162020073 0 -1 0 I I #
vertex $-1 $365 $479 #
point $-1 -47.285771237350232 9.7708901064261759 6.8494297529678523 #
straight-curve $-1 -50.853602710043646 31.471903681017213 0 0 0 -1 I I #
point $-1 -50.853602710043646 -31.471903681017213 -9.0259733162020073 #
straight-curve $-1 -50.853602710043646 0 -9.0259733162020073 0 1 0 I I #
point $-1 -50.853602710043646 31.471903681017213 -9.0259733162020073 #
edge $-1 $452 -9.0259733162020073 $394 9.0259733162020073 $386 $480 forward 7 unknown #
straight-curve $-1 -47.416469040533229 -40.742589487671431 -9.0259733162020073 -1 0 0 I I #
vertex $-1 $400 $481 #
straight-curve $-1 -47.416469040533229 -40.742589487671431 9.0259733162020073 1 0 0 I I #
point $-1 -48.916469040533229 -40.742589487671431 9.0259733162020073 #
point $-1 -48.916469040533229 -40.742589487671431 -9.0259733162020073 #
point $-1 -45.916469040533229 -40.742589487671431 -9.0259733162020073 #
straight-curve $-1 -45.916469040533229 -36.107246584344324 9.0259733162020073 0 1 0 I I #
coedge $-1 $460 $404 $405 $459 reversed $302 $-1 #
edge $-1 $466 -50.853602710043646 $411 50.853602710043646 $458 $482 forward 7 unknown #
coedge $-1 $406 $458 $416 $465 reversed $302 $-1 #
straight-curve $-1 0 40.206997536101539 -3.0828347293978293 -1 0 0 I I #
point $-1 50.853602710043646 40.206997536101539 -3.0828347293978293 #
straight-curve $-1 50.853602710043646 40.206997536101539 -4.5828347293978293 0 0 -1 I I #
point $-1 50.853602710043646 40.206997536101539 -6.0828347293978293 #
edge $-1 $419 -1.5 $466 1.5 $460 $483 forward 7 unknown #
vertex $-1 $459 $484 #
straight-curve $-1 -50.853602710043646 35.839450608559375 -6.0828347293978293 0 1 0 I I #
point $-1 -50.853602710043646 40.206997536101539 -3.0828347293978293 #
straight-curve $-1 50.853602710043646 11.63154264207153 72.726641260212745 0 0 -1 I I #
point $-1 50.853602710043646 11.63154264207153 9.0259733162020073 #
straight-curve $-1 50.853602710043653 8.5920881170011025 3.8027611997566027 0 1 0 I I #
point $-1 50.853602710043646 11.63154264207153 3.8027611997566169 #
point $-1 43.882855565758852 14.804476123174776 2.8138435229024741 #
point $-1 43.882855565758852 19.563876344829641 2.8138435229024741 #
straight-curve $-1 -50.853602710043646 14.364916172800417 38.040483222975517 0 0 -1 I I #
point $-1 -50.853602710043646 14.364916172800417 9.0259733162020073 #
straight-curve $-1 -50.853602710043646 4.885445053213088 5.4292057326247622 0 -1 0 I I #
point $-1 -50.853602710043646 14.364916172800417 5.4292057326247658 #
point $-1 -47.261089790700012 9.7708901064261759 5.435431582462936 #
straight-curve $-1 -45.916469040533229 -40.742589487671431 0 0 0 -1 I I #
point $-1 -45.916469040533229 -40.742589487671431 9.0259733162020073 #
straight-curve $-1 0 40.206997536101539 -6.0828347293978293 1 0 0 I I #
straight-curve $-1 -50.853602710043646 40.206997536101539 -4.5828347293978293 0 0 -1 I I #
point $-1 -50.853602710043646 40.206997536101539 -6.0828347293978293 #
End-of-ACIS-data 