500 0 9 0           
7 Unknown 11 ACIS 5.0 NT 24 Fri Mar 26 00:43:49 1999 
-1 9.9999999999999995e-007 1e-010 
body $-1 $9 $-1 $10 #
body $-1 $11 $-1 $12 #
body $-1 $13 $-1 $14 #
body $-1 $15 $-1 $16 #
body $-1 $17 $-1 $18 #
body $-1 $19 $-1 $20 #
body $-1 $21 $-1 $22 #
body $-1 $23 $-1 $24 #
body $-1 $25 $-1 $26 #
lump $-1 $-1 $27 $0 #
transform $-1 1 0 0 0 1 0 0 0 1 65.412152470473345 29.416803380669609 7.354694611513402 1 rotate no_reflect no_shear #
lump $-1 $-1 $28 $1 #
transform $-1 1 0 0 0 1 0 0 0 1 65.412152470473345 29.416803380669609 7.354694611513402 1 rotate no_reflect no_shear #
lump $-1 $-1 $29 $2 #
transform $-1 1 0 0 0 1 0 0 0 1 65.412152470473345 29.416803380669609 7.354694611513402 1 rotate no_reflect no_shear #
lump $-1 $-1 $30 $3 #
transform $-1 1 0 0 0 1 0 0 0 1 65.412152470473345 29.416803380669609 7.354694611513402 1 rotate no_reflect no_shear #
lump $-1 $-1 $31 $4 #
transform $-1 1 0 0 0 1 0 0 0 1 65.412152470473345 29.416803380669609 7.354694611513402 1 rotate no_reflect no_shear #
lump $-1 $-1 $32 $5 #
transform $-1 1 0 0 0 1 0 0 0 1 65.412152470473345 29.416803380669609 7.354694611513402 1 rotate no_reflect no_shear #
lump $-1 $-1 $33 $6 #
transform $-1 1 0 0 0 1 0 0 0 1 65.412152470473345 29.416803380669609 7.354694611513402 1 rotate no_reflect no_shear #
lump $-1 $-1 $34 $7 #
transform $-1 1 0 0 0 1 0 0 0 1 65.412152470473345 29.416803380669609 7.354694611513402 1 rotate no_reflect no_shear #
lump $-1 $-1 $35 $8 #
transform $-1 1 0 0 0 1 0 0 0 1 65.412152470473345 29.416803380669609 7.354694611513402 1 rotate no_reflect no_shear #
shell $-1 $-1 $-1 $36 $-1 $9 #
shell $-1 $-1 $-1 $37 $-1 $11 #
shell $-1 $-1 $-1 $38 $-1 $13 #
shell $-1 $-1 $-1 $39 $-1 $15 #
shell $-1 $-1 $-1 $40 $-1 $17 #
shell $-1 $-1 $-1 $41 $-1 $19 #
shell $-1 $-1 $-1 $42 $-1 $21 #
shell $-1 $-1 $-1 $43 $-1 $23 #
shell $-1 $-1 $-1 $44 $-1 $25 #
face $-1 $45 $46 $27 $-1 $47 forward single #
face $-1 $48 $49 $28 $-1 $50 reversed single #
face $-1 $51 $52 $29 $-1 $53 reversed single #
face $-1 $54 $55 $30 $-1 $56 reversed single #
face $-1 $57 $58 $31 $-1 $59 forward single #
face $-1 $60 $61 $32 $-1 $62 forward single #
face $-1 $63 $64 $33 $-1 $65 reversed single #
face $-1 $66 $67 $34 $-1 $68 forward single #
face $-1 $69 $70 $35 $-1 $71 forward single #
face $-1 $72 $73 $27 $-1 $74 reversed single #
loop $-1 $-1 $75 $36 #
plane-surface $-1 0 0 7.354694611513402 0 0 1 1 0 0 forward_v I I I I #
face $-1 $76 $77 $28 $-1 $78 reversed single #
loop $-1 $-1 $79 $37 #
plane-surface $-1 -64.638820389585902 -26.211427390393723 0 1 0 0 0 0 -1 forward_v I I I I #
face $-1 $80 $81 $29 $-1 $82 reversed single #
loop $-1 $-1 $83 $38 #
plane-surface $-1 -62.689367308456191 23.006051400117833 0 0 1 0 0 0 1 forward_v I I I I #
face $-1 $84 $85 $30 $-1 $86 reversed single #
loop $-1 $-1 $87 $39 #
plane-surface $-1 -65.412152470473359 -17.45338508463891 3.190501221918467 -0.86602541151947299 0 0.49999998660252726 0.49999998660252726 0 0.86602541151947299 forward_v I I I I #
face $-1 $88 $89 $31 $-1 $90 forward single #
loop $-1 $91 $92 $40 #
cone-surface $-1 -63.413696979943396 -19.833099219844165 4.8128213245249851 0.86602541151947299 0 -0.49999998660252726 0.49999998660252726 0 0.86602541151947299 1 I I 0 1 1 forward I I I I #
face $-1 $93 $94 $32 $-1 $95 forward single #
loop $-1 $96 $97 $41 #
cone-surface $-1 -63.413696979943396 -15.073670949433662 4.8128213245249851 0.86602541151947299 0 -0.49999998660252726 0.49999998660252726 0 0.86602541151947299 1 I I 0 1 1 forward I I I I #
face $-1 $98 $99 $33 $-1 $100 reversed single #
loop $-1 $-1 $101 $42 #
plane-surface $-1 113.29717427594746 -11.900718769159988 181.89982446290912 0 -1 0 -0.86602541151947299 0 -0.49999998660252726 forward_v I I I I #
face $-1 $102 $103 $34 $-1 $104 forward single #
loop $-1 $105 $106 $43 #
cone-surface $-1 63.41369697994341 -19.833099219844165 4.8128213245249709 -0.86602541151947299 0 -0.49999998660252726 0.49999998660252726 0 -0.86602541151947299 1 I I 0 1 1 forward I I I I #
face $-1 $107 $108 $35 $-1 $109 forward single #
loop $-1 $110 $111 $44 #
cone-surface $-1 63.41369697994341 -15.073670949433662 4.8128213245249709 -0.86602541151947299 0 -0.49999998660252726 0.49999998660252726 0 -0.86602541151947299 1 I I 0 1 1 forward I I I I #
face $-1 $112 $113 $27 $-1 $114 reversed single #
loop $-1 $-1 $115 $45 #
plane-surface $-1 0 0 -7.354694611513402 0 0 1 1 0 0 forward_v I I I I #
coedge $-1 $116 $117 $118 $119 forward $46 $-1 #
face $-1 $120 $121 $28 $-1 $122 reversed single #
loop $-1 $-1 $123 $48 #
plane-surface $-1 -62.689367308456191 -23.006051400117833 0 0 -1 0 0 0 -1 forward_v I I I I #
coedge $-1 $124 $125 $126 $127 forward $49 $-1 #
face $-1 $128 $129 $29 $-1 $130 reversed single #
loop $-1 $-1 $131 $51 #
plane-surface $-1 -64.638820389585902 26.21142739039372 0 1 0 0 0 0 -1 forward_v I I I I #
coedge $-1 $132 $133 $134 $135 forward $52 $-1 #
face $-1 $136 $137 $30 $-1 $138 forward single #
loop $-1 $-1 $139 $54 #
plane-surface $-1 -178.70932499370574 -11.900718769159988 68.602651939676747 0 -1 0 0.86602541151947299 0 -0.49999998660252726 forward_v I I I I #
coedge $-1 $140 $141 $142 $143 reversed $55 $-1 #
face $-1 $-1 $144 $31 $-1 $145 forward single #
loop $-1 $146 $147 $57 #
cone-surface $-1 -62.184327827926964 -19.833099219844165 4.1030447390327751 0.86602541151947299 0 -0.49999998660252726 0.24999999330126363 0 0.43301270575973649 1 I I -0.70710678118654724 0.70710678118654791 0.5 forward I I I I #
loop $-1 $-1 $148 $40 #
coedge $-1 $92 $92 $149 $150 reversed $58 $-1 #
face $-1 $-1 $151 $32 $-1 $152 forward single #
loop $-1 $153 $154 $60 #
cone-surface $-1 -62.184327827926964 -15.073670949433662 4.1030447390327751 0.86602541151947299 0 -0.49999998660252726 0.24999999330126363 0 0.43301270575973649 1 I I -0.70710678118654724 0.70710678118654791 0.5 forward I I I I #
loop $-1 $-1 $155 $41 #
coedge $-1 $97 $97 $156 $157 reversed $61 $-1 #
face $-1 $158 $159 $33 $-1 $160 reversed single #
loop $-1 $-1 $161 $63 #
plane-surface $-1 1.7527150788509971e-006 -17.45338508463891 116.48767374515084 0.86602541151947299 0 0.49999998660252726 0.49999998660252726 0 -0.86602541151947299 forward_v I I I I #
coedge $-1 $162 $163 $164 $165 reversed $64 $-1 #
face $-1 $-1 $166 $34 $-1 $167 forward single #
loop $-1 $168 $169 $66 #
cone-surface $-1 62.184327827926978 -19.833099219844165 4.1030447390327609 -0.86602541151947299 0 -0.49999998660252726 0.24999999330126363 0 -0.43301270575973649 1 I I -0.70710678118654724 0.70710678118654791 0.5 forward I I I I #
loop $-1 $-1 $170 $43 #
coedge $-1 $106 $106 $171 $172 reversed $67 $-1 #
face $-1 $-1 $173 $35 $-1 $174 forward single #
loop $-1 $175 $176 $69 #
cone-surface $-1 62.184327827926978 -15.073670949433662 4.1030447390327609 -0.86602541151947299 0 -0.49999998660252726 0.24999999330126363 0 -0.43301270575973649 1 I I -0.70710678118654724 0.70710678118654791 0.5 forward I I I I #
loop $-1 $-1 $177 $44 #
coedge $-1 $111 $111 $178 $179 reversed $70 $-1 #
face $-1 $180 $181 $27 $-1 $182 reversed single #
loop $-1 $-1 $183 $72 #
plane-surface $-1 0 -29.416803380669609 0 0 1 0 0 0 1 forward_v I I I I #
coedge $-1 $184 $185 $186 $187 forward $73 $-1 #
coedge $-1 $188 $75 $189 $190 forward $46 $-1 #
coedge $-1 $75 $188 $191 $192 forward $46 $-1 #
coedge $-1 $193 $194 $75 $119 reversed $195 $-1 #
edge $-1 $196 -29.416803380669609 $197 29.416803380669609 $118 $198 forward 7 unknown #
face $-1 $199 $200 $28 $-1 $201 forward single #
loop $-1 $-1 $202 $76 #
plane-surface $-1 -60.73991422732648 -26.211427390393723 0 -1 0 0 0 0 1 forward_v I I I I #
coedge $-1 $203 $204 $205 $206 forward $77 $-1 #
coedge $-1 $207 $79 $208 $209 reversed $49 $-1 #
coedge $-1 $79 $207 $210 $211 reversed $49 $-1 #
coedge $-1 $204 $203 $79 $127 reversed $77 $-1 #
edge $-1 $212 -7.354694611513402 $213 7.354694611513402 $126 $214 forward 7 unknown #
face $-1 $215 $216 $29 $-1 $217 reversed single #
loop $-1 $-1 $218 $80 #
plane-surface $-1 -60.73991422732648 26.21142739039372 0 -1 0 0 0 0 1 forward_v I I I I #
coedge $-1 $219 $220 $221 $222 reversed $81 $-1 #
coedge $-1 $223 $83 $224 $225 reversed $52 $-1 #
coedge $-1 $83 $223 $226 $227 reversed $52 $-1 #
coedge $-1 $220 $219 $83 $135 reversed $81 $-1 #
edge $-1 $228 -7.354694611513402 $229 7.354694611513402 $134 $230 forward 7 unknown #
face $-1 $231 $232 $30 $-1 $233 forward single #
loop $-1 $-1 $234 $84 #
plane-surface $-1 -62.689367308456191 -23.006051400117833 0 0 -1 0 0 0 -1 forward_v I I I I #
coedge $-1 $235 $236 $237 $238 reversed $85 $-1 #
coedge $-1 $239 $87 $234 $240 reversed $55 $-1 #
coedge $-1 $87 $239 $235 $241 forward $55 $-1 #
coedge $-1 $237 $242 $87 $143 forward $232 $-1 #
edge $-1 $243 -14.279358857798378 $244 -3.1740262268405335 $142 $245 forward 7 unknown #
loop $-1 $-1 $149 $88 #
plane-surface $-1 -65.412152470473359 -17.45338508463891 3.190501221918467 -0.86602541151947299 0 0.49999998660252726 0.49999998660252726 0 0.86602541151947299 forward_v I I I I #
loop $-1 $-1 $246 $57 #
coedge $-1 $147 $147 $148 $247 reversed $89 $-1 #
coedge $-1 $148 $148 $147 $247 forward $91 $-1 #
coedge $-1 $149 $149 $92 $150 forward $144 $-1 #
edge $-1 $248 0 $248 6.2831853071796004 $149 $249 forward 7 unknown #
loop $-1 $-1 $156 $93 #
plane-surface $-1 -65.412152470473359 -17.45338508463891 3.190501221918467 -0.86602541151947299 0 0.49999998660252726 0.49999998660252726 0 0.86602541151947299 forward_v I I I I #
loop $-1 $-1 $250 $60 #
coedge $-1 $154 $154 $155 $251 reversed $94 $-1 #
coedge $-1 $155 $155 $154 $251 forward $96 $-1 #
coedge $-1 $156 $156 $97 $157 forward $151 $-1 #
edge $-1 $252 0 $252 6.2831853071796004 $156 $253 forward 7 unknown #
face $-1 $254 $255 $33 $-1 $256 forward single #
loop $-1 $-1 $257 $98 #
plane-surface $-1 113.29717427594746 -23.006051400117833 181.89982446290912 0 1 0 0.86602541151947299 0 0.49999998660252726 forward_v I I I I #
coedge $-1 $258 $259 $260 $261 reversed $99 $-1 #
coedge $-1 $163 $101 $262 $263 reversed $64 $-1 #
coedge $-1 $101 $162 $258 $264 reversed $64 $-1 #
coedge $-1 $260 $265 $101 $165 forward $255 $-1 #
edge $-1 $266 -8.763565332499617 $267 -6.3593672439531446 $164 $268 forward 7 unknown #
loop $-1 $-1 $171 $102 #
plane-surface $-1 1.7527150788509971e-006 -17.45338508463891 116.48767374515084 0.86602541151947299 0 0.49999998660252726 0.49999998660252726 0 -0.86602541151947299 forward_v I I I I #
loop $-1 $-1 $269 $66 #
coedge $-1 $169 $169 $170 $270 reversed $103 $-1 #
coedge $-1 $170 $170 $169 $270 forward $105 $-1 #
coedge $-1 $171 $171 $106 $172 forward $166 $-1 #
edge $-1 $271 0 $271 6.2831853071796004 $171 $272 forward 7 unknown #
loop $-1 $-1 $178 $107 #
plane-surface $-1 1.7527150788509971e-006 -17.45338508463891 116.48767374515084 0.86602541151947299 0 0.49999998660252726 0.49999998660252726 0 -0.86602541151947299 forward_v I I I I #
loop $-1 $-1 $273 $69 #
coedge $-1 $176 $176 $177 $274 reversed $108 $-1 #
coedge $-1 $177 $177 $176 $274 forward $110 $-1 #
coedge $-1 $178 $178 $111 $179 forward $173 $-1 #
edge $-1 $275 0 $275 6.2831853071796004 $178 $276 forward 7 unknown #
face $-1 $277 $278 $27 $-1 $279 reversed single #
loop $-1 $-1 $280 $112 #
plane-surface $-1 -65.412152470473345 0 0 1 0 0 0 0 -1 forward_v I I I I #
coedge $-1 $281 $191 $282 $283 forward $113 $-1 #
coedge $-1 $284 $115 $281 $285 forward $73 $-1 #
coedge $-1 $115 $284 $286 $287 forward $73 $-1 #
coedge $-1 $194 $193 $115 $187 reversed $195 $-1 #
edge $-1 $288 -29.416803380669609 $289 29.416803380669609 $186 $290 forward 7 unknown #
coedge $-1 $117 $116 $291 $292 forward $46 $-1 #
coedge $-1 $293 $294 $116 $190 reversed $278 $-1 #
edge $-1 $197 -65.412152470473345 $295 65.412152470473345 $189 $296 forward 7 unknown #
coedge $-1 $183 $297 $117 $192 reversed $113 $-1 #
edge $-1 $298 -65.412152470473345 $196 65.412152470473345 $191 $299 forward 7 unknown #
coedge $-1 $186 $118 $297 $300 forward $195 $-1 #
coedge $-1 $118 $186 $293 $301 reversed $195 $-1 #
loop $-1 $-1 $193 $277 #
vertex $-1 $119 $302 #
vertex $-1 $119 $303 #
straight-curve $-1 65.412152470473345 0 7.354694611513402 0 1 0 I I #
face $-1 $304 $305 $28 $-1 $306 reversed single #
loop $-1 $-1 $307 $120 #
plane-surface $-1 0 0 7.354694611513402 0 0 1 1 0 0 forward_v I I I I #
coedge $-1 $308 $309 $310 $311 reversed $121 $-1 #
coedge $-1 $126 $123 $312 $313 reversed $77 $-1 #
coedge $-1 $123 $126 $314 $315 reversed $77 $-1 #
coedge $-1 $309 $308 $123 $206 reversed $121 $-1 #
edge $-1 $316 -7.354694611513402 $317 7.354694611513402 $205 $318 forward 7 unknown #
coedge $-1 $125 $124 $319 $320 reversed $49 $-1 #
coedge $-1 $312 $321 $124 $209 forward $305 $-1 #
edge $-1 $322 -16.311089685472751 $213 -9.9003377049209718 $208 $323 forward 7 unknown #
coedge $-1 $324 $314 $125 $211 forward $200 $-1 #
edge $-1 $212 9.9003377049209718 $325 16.311089685472751 $210 $326 forward 7 unknown #
vertex $-1 $211 $327 #
vertex $-1 $209 $328 #
straight-curve $-1 -64.638820389585902 -23.006051400117833 0 0 0 -1 I I #
face $-1 $329 $330 $29 $-1 $331 forward single #
loop $-1 $-1 $332 $128 #
plane-surface $-1 0 0 -7.354694611513402 0 0 1 1 0 0 forward_v I I I I #
coedge $-1 $333 $334 $223 $335 forward $129 $-1 #
coedge $-1 $134 $131 $336 $337 reversed $81 $-1 #
coedge $-1 $131 $134 $338 $339 reversed $81 $-1 #
coedge $-1 $340 $341 $131 $222 forward $342 $-1 #
edge $-1 $343 -7.354694611513402 $344 7.354694611513402 $221 $345 forward 7 unknown #
coedge $-1 $133 $132 $218 $335 reversed $52 $-1 #
coedge $-1 $336 $332 $132 $225 forward $216 $-1 #
edge $-1 $346 29.395230573098384 $229 33.29413673535781 $224 $347 forward 7 unknown #
coedge $-1 $348 $338 $133 $227 forward $330 $-1 #
edge $-1 $228 -33.29413673535781 $349 -29.395230573098384 $226 $350 forward 7 unknown #
vertex $-1 $227 $351 #
vertex $-1 $225 $352 #
straight-curve $-1 -64.638820389585902 23.006051400117833 0 0 0 -1 I I #
face $-1 $-1 $353 $30 $-1 $354 reversed single #
loop $-1 $-1 $242 $136 #
plane-surface $-1 0 0 7.354694611513402 0 0 1 1 0 0 forward_v I I I I #
coedge $-1 $355 $356 $140 $240 forward $137 $-1 #
coedge $-1 $236 $139 $141 $241 reversed $85 $-1 #
coedge $-1 $139 $235 $357 $358 reversed $85 $-1 #
coedge $-1 $359 $142 $139 $238 forward $232 $-1 #
edge $-1 $244 -26.346708114925995 $360 -23.942510026379523 $237 $361 forward 7 unknown #
coedge $-1 $141 $140 $362 $363 reversed $55 $-1 #
edge $-1 $364 0.70083129456761828 $243 5.5092276005012772 $234 $365 forward 7 unknown #
edge $-1 $366 2.8258016906358157e-014 $244 4.8083963059336874 $235 $367 forward 7 unknown #
coedge $-1 $142 $359 $355 $368 forward $232 $-1 #
vertex $-1 $143 $369 #
vertex $-1 $143 $370 #
straight-curve $-1 -63.007954381926872 -8.726692542319455 7.354694611513402 0 1 0 I I #
coedge $-1 $246 $246 $-1 $371 reversed $146 $-1 #
edge $-1 $372 0 $372 6.2831853071796004 $147 $373 forward 7 unknown #
vertex $-1 $150 $374 #
ellipse-curve $-1 -64.210053426200119 -19.833099219844165 5.2725979167159416 -0.86602541151947299 0 0.49999998660252726 0.49999998660252726 0 0.86602541151947299 1 I I #
coedge $-1 $250 $250 $-1 $375 reversed $153 $-1 #
edge $-1 $376 0 $376 6.2831853071796004 $154 $377 forward 7 unknown #
vertex $-1 $157 $378 #
ellipse-curve $-1 -64.210053426200119 -15.073670949433662 5.2725979167159416 -0.86602541151947299 0 0.49999998660252726 0.49999998660252726 0 0.86602541151947299 1 I I #
face $-1 $-1 $379 $33 $-1 $380 reversed single #
loop $-1 $-1 $164 $158 #
plane-surface $-1 0 0 7.354694611513402 0 0 1 1 0 0 forward_v I I I I #
coedge $-1 $381 $382 $383 $384 reversed $159 $-1 #
coedge $-1 $385 $161 $163 $264 forward $99 $-1 #
coedge $-1 $161 $385 $381 $386 forward $99 $-1 #
coedge $-1 $383 $164 $161 $261 forward $255 $-1 #
edge $-1 $267 3.1740262268405335 $387 14.279358857798378 $260 $388 forward 7 unknown #
coedge $-1 $389 $390 $162 $263 forward $379 $-1 #
edge $-1 $391 -87.75941100953608 $266 -83.595217619941167 $262 $392 forward 7 unknown #
edge $-1 $267 126.01590863501299 $391 130.82430494094666 $163 $393 forward 7 unknown #
coedge $-1 $164 $383 $389 $394 forward $255 $-1 #
vertex $-1 $165 $395 #
vertex $-1 $165 $396 #
straight-curve $-1 56.648587137973728 -11.900718769159988 7.3546946115134091 -1 0 0 I I #
coedge $-1 $269 $269 $-1 $397 reversed $168 $-1 #
edge $-1 $398 0 $398 6.2831853071796004 $169 $399 forward 7 unknown #
vertex $-1 $172 $400 #
ellipse-curve $-1 64.210053426200119 -19.833099219844165 5.2725979167159256 0.86602541151947299 0 0.49999998660252726 0.49999998660252726 0 -0.86602541151947299 1 I I #
coedge $-1 $273 $273 $-1 $401 reversed $175 $-1 #
edge $-1 $402 0 $402 6.2831853071796004 $176 $403 forward 7 unknown #
vertex $-1 $179 $404 #
ellipse-curve $-1 64.210053426200119 -15.073670949433662 5.2725979167159256 0.86602541151947299 0 0.49999998660252726 0.49999998660252726 0 -0.86602541151947299 1 I I #
face $-1 $-1 $195 $27 $-1 $405 reversed single #
loop $-1 $-1 $293 $180 #
plane-surface $-1 0 29.416803380669609 0 0 -1 0 0 0 -1 forward_v I I I I #
coedge $-1 $406 $291 $294 $407 forward $181 $-1 #
coedge $-1 $297 $183 $184 $285 reversed $113 $-1 #
coedge $-1 $291 $406 $183 $283 reversed $181 $-1 #
edge $-1 $298 -7.354694611513402 $408 7.354694611513402 $282 $409 forward 7 unknown #
coedge $-1 $185 $184 $406 $410 forward $73 $-1 #
edge $-1 $289 -65.412152470473345 $408 65.412152470473345 $281 $411 forward 7 unknown #
coedge $-1 $294 $293 $185 $287 reversed $278 $-1 #
edge $-1 $412 -65.412152470473345 $288 65.412152470473345 $286 $413 forward 7 unknown #
vertex $-1 $187 $414 #
vertex $-1 $300 $415 #
straight-curve $-1 65.412152470473345 0 -7.354694611513402 0 -1 0 I I #
coedge $-1 $280 $282 $188 $292 reversed $181 $-1 #
edge $-1 $295 -29.416803380669609 $298 29.416803380669609 $291 $416 forward 7 unknown #
coedge $-1 $286 $189 $194 $301 forward $278 $-1 #
coedge $-1 $189 $286 $280 $407 reversed $278 $-1 #
vertex $-1 $190 $417 #
straight-curve $-1 0 29.416803380669609 7.354694611513402 -1 0 0 I I #
coedge $-1 $191 $281 $193 $300 reversed $113 $-1 #
vertex $-1 $292 $418 #
straight-curve $-1 0 -29.416803380669609 7.354694611513402 1 0 0 I I #
edge $-1 $196 -7.354694611513402 $289 7.354694611513402 $193 $419 forward 7 unknown #
edge $-1 $197 -7.354694611513402 $288 7.354694611513402 $194 $420 forward 7 unknown #
point $-1 65.412152470473345 -29.416803380669609 7.354694611513402 #
point $-1 65.412152470473345 29.416803380669609 7.354694611513402 #
face $-1 $-1 $421 $28 $-1 $422 reversed single #
loop $-1 $-1 $423 $199 #
plane-surface $-1 0 0 -7.354694611513402 0 0 1 1 0 0 forward_v I I I I #
coedge $-1 $314 $324 $309 $424 forward $200 $-1 #
coedge $-1 $205 $202 $423 $425 reversed $121 $-1 #
coedge $-1 $202 $205 $307 $424 reversed $121 $-1 #
coedge $-1 $426 $427 $202 $311 forward $421 $-1 #
edge $-1 $428 -7.354694611513402 $429 7.354694611513402 $310 $430 forward 7 unknown #
coedge $-1 $423 $208 $203 $313 forward $305 $-1 #
edge $-1 $213 -33.29413673535781 $317 -29.395230573098384 $312 $431 forward 7 unknown #
coedge $-1 $210 $307 $204 $315 forward $200 $-1 #
edge $-1 $316 29.395230573098384 $212 33.29413673535781 $314 $432 forward 7 unknown #
vertex $-1 $315 $433 #
vertex $-1 $313 $434 #
straight-curve $-1 -60.73991422732648 -23.006051400117833 0 0 0 -1 I I #
coedge $-1 $427 $426 $207 $320 forward $421 $-1 #
edge $-1 $325 -7.354694611513402 $322 7.354694611513402 $319 $435 forward 7 unknown #
coedge $-1 $208 $423 $427 $436 forward $305 $-1 #
vertex $-1 $209 $437 #
straight-curve $-1 -64.638820389585902 -13.105713695196862 -7.354694611513402 0 1 0 I I #
coedge $-1 $307 $210 $426 $438 forward $200 $-1 #
vertex $-1 $438 $439 #
straight-curve $-1 -64.638820389585902 -13.105713695196862 7.354694611513402 0 -1 0 I I #
point $-1 -64.638820389585902 -23.006051400117833 7.354694611513402 #
point $-1 -64.638820389585902 -23.006051400117833 -7.354694611513402 #
face $-1 $-1 $342 $29 $-1 $440 reversed single #
loop $-1 $-1 $348 $215 #
plane-surface $-1 0 0 7.354694611513402 0 0 1 1 0 0 forward_v I I I I #
coedge $-1 $224 $441 $333 $442 forward $216 $-1 #
coedge $-1 $443 $218 $332 $442 reversed $129 $-1 #
coedge $-1 $218 $443 $348 $444 reversed $129 $-1 #
edge $-1 $349 -7.354694611513402 $346 7.354694611513402 $218 $445 forward 7 unknown #
coedge $-1 $441 $224 $219 $337 forward $216 $-1 #
edge $-1 $229 9.9003377049209735 $343 16.311089685472744 $336 $446 forward 7 unknown #
coedge $-1 $226 $447 $220 $339 forward $330 $-1 #
edge $-1 $344 -16.311089685472744 $228 -9.9003377049209735 $338 $448 forward 7 unknown #
coedge $-1 $449 $221 $447 $450 reversed $342 $-1 #
coedge $-1 $221 $449 $441 $451 reversed $342 $-1 #
loop $-1 $-1 $449 $329 #
vertex $-1 $451 $452 #
vertex $-1 $222 $453 #
straight-curve $-1 -64.638820389585902 29.416803380669609 0 0 0 1 I I #
vertex $-1 $225 $454 #
straight-curve $-1 -31.344683654228096 23.006051400117833 -7.354694611513402 -1 0 0 I I #
coedge $-1 $447 $226 $334 $444 forward $330 $-1 #
vertex $-1 $227 $455 #
straight-curve $-1 -31.344683654228096 23.006051400117833 7.354694611513402 1 0 0 I I #
point $-1 -64.638820389585902 23.006051400117833 7.354694611513402 #
point $-1 -64.638820389585902 23.006051400117833 -7.354694611513402 #
loop $-1 $-1 $456 $231 #
plane-surface $-1 -65.412152470473345 0 0 1 0 0 0 0 -1 forward_v I I I I #
coedge $-1 $356 $234 $242 $368 reversed $137 $-1 #
coedge $-1 $234 $355 $456 $457 reversed $137 $-1 #
coedge $-1 $362 $458 $236 $358 forward $353 $-1 #
edge $-1 $360 26.946631358324971 $366 31.110824747919882 $357 $459 forward 7 unknown #
coedge $-1 $242 $237 $458 $460 forward $232 $-1 #
vertex $-1 $460 $461 #
straight-curve $-1 -89.354662496852868 -11.900718769159988 7.354694611513402 -1 0 0 I I #
coedge $-1 $456 $357 $239 $363 forward $353 $-1 #
edge $-1 $366 3.1740262268405335 $364 14.279358857798378 $362 $462 forward 7 unknown #
vertex $-1 $457 $463 #
straight-curve $-1 -65.762568108367788 -23.006051400117833 2.5835635116348459 0.49999998660252726 0 0.86602541151947299 I I #
vertex $-1 $363 $464 #
straight-curve $-1 -65.412152470473359 -11.900718769159988 3.190501221918467 0.49999998660252726 0 0.86602541151947299 I I #
edge $-1 $465 23.942510026379523 $243 26.346708114925995 $242 $466 forward 7 unknown #
point $-1 -63.007954381926872 -23.006051400117833 7.354694611513402 #
point $-1 -63.007954381926872 -11.900718769159988 7.354694611513402 #
edge $-1 $467 1 $467 0 $246 $-1 forward 7 unknown #
vertex $-1 $247 $468 #
ellipse-curve $-1 -62.617340533686701 -19.833099219844165 4.3530447323340393 -0.86602541151947299 0 0.49999998660252726 0.49999998660252726 0 0.86602541151947299 1 I I #
point $-1 -63.710053439597566 -19.833099219844165 6.1386233282354041 #
edge $-1 $469 1 $469 0 $250 $-1 forward 7 unknown #
vertex $-1 $251 $470 #
ellipse-curve $-1 -62.617340533686701 -15.073670949433662 4.3530447323340393 -0.86602541151947299 0 0.49999998660252726 0.49999998660252726 0 0.86602541151947299 1 I I #
point $-1 -63.710053439597566 -15.073670949433662 6.1386233282354041 #
loop $-1 $-1 $262 $254 #
plane-surface $-1 65.412152470473345 0 0 -1 0 0 0 0 1 forward_v I I I I #
coedge $-1 $382 $257 $259 $386 reversed $159 $-1 #
coedge $-1 $257 $381 $471 $472 reversed $159 $-1 #
coedge $-1 $265 $260 $257 $384 forward $255 $-1 #
edge $-1 $387 6.3593672439531446 $473 8.763565332499617 $383 $474 forward 7 unknown #
coedge $-1 $259 $258 $390 $475 reversed $99 $-1 #
edge $-1 $476 -130.82430494094666 $387 -126.01590863501299 $381 $477 forward 7 unknown #
vertex $-1 $261 $478 #
straight-curve $-1 63.007954381926879 -8.726692542319455 7.3546946115133949 0 -1 0 I I #
coedge $-1 $471 $262 $265 $394 reversed $379 $-1 #
coedge $-1 $262 $471 $385 $475 forward $379 $-1 #
vertex $-1 $263 $479 #
straight-curve $-1 65.412152470473345 -11.900718769159988 90.949912231454562 0 0 1 I I #
straight-curve $-1 1.7527150788509971e-006 -11.900718769159988 116.48767374515084 0.49999998660252726 0 -0.86602541151947299 I I #
edge $-1 $473 -23.006051400117833 $266 -11.900718769159988 $389 $480 forward 7 unknown #
point $-1 65.412152470473345 -11.900718769159988 7.354694611513402 #
point $-1 63.007954381926872 -11.900718769159988 7.3546946115134091 #
edge $-1 $481 1 $481 0 $269 $-1 forward 7 unknown #
vertex $-1 $270 $482 #
ellipse-curve $-1 62.617340533686715 -19.833099219844165 4.3530447323340251 0.86602541151947299 0 0.49999998660252726 0.49999998660252726 0 -0.86602541151947299 1 I I #
point $-1 64.710053412802637 -19.833099219844165 4.4065725051964435 #
edge $-1 $483 1 $483 0 $273 $-1 forward 7 unknown #
vertex $-1 $274 $484 #
ellipse-curve $-1 62.617340533686715 -15.073670949433662 4.3530447323340251 0.86602541151947299 0 0.49999998660252726 0.49999998660252726 0 -0.86602541151947299 1 I I #
point $-1 64.710053412802637 -15.073670949433662 4.4065725051964435 #
plane-surface $-1 65.412152470473345 0 0 -1 0 0 0 0 1 forward_v I I I I #
coedge $-1 $282 $280 $284 $410 reversed $181 $-1 #
edge $-1 $295 -7.354694611513402 $412 7.354694611513402 $294 $485 forward 7 unknown #
vertex $-1 $410 $486 #
straight-curve $-1 -65.412152470473345 -29.416803380669609 0 0 0 -1 I I #
edge $-1 $408 -29.416803380669609 $412 29.416803380669609 $406 $487 forward 7 unknown #
straight-curve $-1 0 -29.416803380669609 -7.354694611513402 -1 0 0 I I #
vertex $-1 $287 $488 #
straight-curve $-1 0 29.416803380669609 -7.354694611513402 1 0 0 I I #
point $-1 65.412152470473345 29.416803380669609 -7.354694611513402 #
point $-1 65.412152470473345 -29.416803380669609 -7.354694611513402 #
straight-curve $-1 -65.412152470473345 0 7.354694611513402 0 -1 0 I I #
point $-1 -65.412152470473345 29.416803380669609 7.354694611513402 #
point $-1 -65.412152470473345 -29.416803380669609 7.354694611513402 #
straight-curve $-1 65.412152470473345 -29.416803380669609 0 0 0 -1 I I #
straight-curve $-1 65.412152470473345 29.416803380669609 0 0 0 -1 I I #
loop $-1 $-1 $310 $304 #
plane-surface $-1 0 -29.416803380669609 0 0 1 0 0 0 1 forward_v I I I I #
coedge $-1 $321 $312 $308 $425 forward $305 $-1 #
edge $-1 $429 -16.311089685472751 $316 -9.9003377049209718 $307 $489 forward 7 unknown #
edge $-1 $317 9.9003377049209718 $428 16.311089685472751 $423 $490 forward 7 unknown #
coedge $-1 $319 $310 $324 $438 reversed $421 $-1 #
coedge $-1 $310 $319 $321 $436 reversed $421 $-1 #
vertex $-1 $436 $491 #
vertex $-1 $311 $492 #
straight-curve $-1 -60.73991422732648 -29.416803380669609 0 0 0 1 I I #
straight-curve $-1 -31.344683654228096 -23.006051400117833 -7.354694611513402 1 0 0 I I #
straight-curve $-1 -31.344683654228096 -23.006051400117833 7.354694611513402 -1 0 0 I I #
point $-1 -60.73991422732648 -23.006051400117833 7.354694611513402 #
point $-1 -60.73991422732648 -23.006051400117833 -7.354694611513402 #
straight-curve $-1 -64.638820389585902 -29.416803380669609 0 0 0 -1 I I #
edge $-1 $428 60.73991422732648 $322 64.638820389585902 $427 $493 forward 7 unknown #
point $-1 -64.638820389585902 -29.416803380669613 -7.354694611513402 #
edge $-1 $325 -64.638820389585902 $429 -60.73991422732648 $426 $494 forward 7 unknown #
point $-1 -64.638820389585902 -29.416803380669613 7.354694611513402 #
plane-surface $-1 0 29.416803380669609 0 0 -1 0 0 0 -1 forward_v I I I I #
coedge $-1 $332 $336 $341 $451 forward $216 $-1 #
edge $-1 $495 -16.311089685472744 $346 -9.9003377049209735 $332 $496 forward 7 unknown #
coedge $-1 $334 $333 $449 $497 reversed $129 $-1 #
edge $-1 $349 9.9003377049209735 $498 16.311089685472744 $348 $499 forward 7 unknown #
straight-curve $-1 -60.73991422732648 23.006051400117833 0 0 0 -1 I I #
straight-curve $-1 -64.638820389585902 13.10571369519686 -7.354694611513402 0 1 0 I I #
coedge $-1 $338 $348 $340 $450 forward $330 $-1 #
straight-curve $-1 -64.638820389585902 13.10571369519686 7.354694611513402 0 -1 0 I I #
coedge $-1 $341 $340 $443 $497 forward $342 $-1 #
edge $-1 $498 60.73991422732648 $344 64.638820389585902 $340 $500 forward 7 unknown #
edge $-1 $343 -64.638820389585902 $495 -60.73991422732648 $341 $501 forward 7 unknown #
point $-1 -64.638820389585902 29.416803380669606 -7.354694611513402 #
point $-1 -64.638820389585902 29.416803380669606 7.354694611513402 #
point $-1 -60.73991422732648 23.006051400117833 -7.354694611513402 #
point $-1 -60.73991422732648 23.006051400117833 7.354694611513402 #
coedge $-1 $458 $362 $356 $457 forward $353 $-1 #
edge $-1 $364 -31.110824747919882 $465 -26.946631358324971 $456 $502 forward 7 unknown #
coedge $-1 $357 $456 $359 $460 reversed $353 $-1 #
straight-curve $-1 -65.412152470473345 -11.900718769159988 34.301325969838373 0 0 -1 I I #
edge $-1 $360 11.900718769159988 $465 23.006051400117833 $458 $503 forward 7 unknown #
point $-1 -65.412152470473345 -11.900718769159988 7.354694611513402 #
straight-curve $-1 -65.412152470473345 -8.726692542319455 3.190501221918506 0 -1 0 I I #
point $-1 -65.412152470473345 -23.006051400117833 3.1905012219184914 #
point $-1 -65.412152470473345 -11.900718769159988 3.1905012219184914 #
vertex $-1 $457 $504 #
straight-curve $-1 -89.354662496852868 -23.006051400117833 7.354694611513402 1 0 0 I I #
vertex $-1 $371 $505 #
point $-1 -62.117340547084176 -19.833099219844165 5.2190701438535116 #
vertex $-1 $375 $506 #
point $-1 -62.117340547084176 -15.073670949433662 5.2190701438535116 #
coedge $-1 $390 $389 $382 $472 forward $379 $-1 #
edge $-1 $473 83.595217619941167 $476 87.75941100953608 $471 $507 forward 7 unknown #
vertex $-1 $394 $508 #
straight-curve $-1 56.648587137973728 -23.006051400117833 7.3546946115134091 1 0 0 I I #
edge $-1 $476 -14.279358857798378 $391 -3.1740262268405335 $390 $509 forward 7 unknown #
vertex $-1 $475 $510 #
straight-curve $-1 1.7527150788509971e-006 -23.006051400117833 116.48767374515084 -0.49999998660252726 0 0.86602541151947299 I I #
point $-1 63.007954381926872 -23.006051400117833 7.3546946115134091 #
point $-1 65.412152470473345 -11.900718769159988 3.1905012219184812 #
straight-curve $-1 65.412152470473345 0 7.354694611513402 0 1 0 I I #
vertex $-1 $397 $511 #
point $-1 63.11734052028924 -19.833099219844165 3.4870193208145519 #
vertex $-1 $401 $512 #
point $-1 63.11734052028924 -15.073670949433662 3.4870193208145519 #
straight-curve $-1 -65.412152470473345 29.416803380669609 0 0 0 -1 I I #
point $-1 -65.412152470473345 -29.416803380669609 -7.354694611513402 #
straight-curve $-1 -65.412152470473345 0 -7.354694611513402 0 1 0 I I #
point $-1 -65.412152470473345 29.416803380669609 -7.354694611513402 #
straight-curve $-1 -60.73991422732648 -13.105713695196862 7.354694611513402 0 1 0 I I #
straight-curve $-1 -60.73991422732648 -13.105713695196862 -7.354694611513402 0 -1 0 I I #
point $-1 -60.73991422732648 -29.416803380669613 -7.354694611513402 #
point $-1 -60.73991422732648 -29.416803380669613 7.354694611513402 #
straight-curve $-1 0 -29.416803380669609 -7.354694611513402 -1 0 0 I I #
straight-curve $-1 0 -29.416803380669609 7.354694611513402 1 0 0 I I #
vertex $-1 $497 $513 #
straight-curve $-1 -60.73991422732648 13.10571369519686 -7.354694611513402 0 -1 0 I I #
edge $-1 $498 -7.354694611513402 $495 7.354694611513402 $449 $514 forward 7 unknown #
vertex $-1 $450 $515 #
straight-curve $-1 -60.73991422732648 13.10571369519686 7.354694611513402 0 1 0 I I #
straight-curve $-1 0 29.416803380669609 7.354694611513402 -1 0 0 I I #
straight-curve $-1 0 29.416803380669609 -7.354694611513402 1 0 0 I I #
straight-curve $-1 -65.412152470473345 -23.006051400117833 34.301325969838373 0 0 1 I I #
straight-curve $-1 -65.412152470473345 0 7.354694611513402 0 -1 0 I I #
point $-1 -65.412152470473345 -23.006051400117833 7.354694611513402 #
point $-1 -61.751315122167227 -19.833099219844165 3.8530447457315113 #
point $-1 -61.751315122167227 -15.073670949433662 3.8530447457315113 #
straight-curve $-1 65.412152470473345 -23.006051400117833 90.949912231454562 0 0 -1 I I #
point $-1 65.412152470473345 -23.006051400117833 7.354694611513402 #
straight-curve $-1 65.412152470473359 -8.726692542319455 3.1905012219184883 0 1 0 I I #
point $-1 65.412152470473345 -23.006051400117833 3.1905012219184812 #
point $-1 61.751315122167242 -19.833099219844165 3.8530447457314971 #
point $-1 61.751315122167242 -15.073670949433662 3.8530447457314971 #
point $-1 -60.73991422732648 29.416803380669606 -7.354694611513402 #
straight-curve $-1 -60.73991422732648 29.416803380669609 0 0 0 -1 I I #
point $-1 -60.73991422732648 29.416803380669606 7.354694611513402 #
End-of-ACIS-data 