500 0 8 0           
7 Unknown 11 ACIS 5.0 NT 24 Thu Mar 25 19:19:47 1999 
-1 9.9999999999999995e-007 1e-010 
body $-1 $8 $-1 $9 #
body $-1 $10 $-1 $11 #
body $-1 $12 $-1 $13 #
body $-1 $14 $-1 $15 #
body $-1 $16 $-1 $17 #
body $-1 $18 $-1 $19 #
body $-1 $20 $-1 $21 #
body $-1 $22 $-1 $23 #
lump $-1 $-1 $24 $0 #
transform $-1 1 0 0 0 1 0 0 0 1 66.320383312479009 36.497766413839464 15.721317926415431 1 rotate no_reflect no_shear #
lump $-1 $-1 $25 $1 #
transform $-1 1 0 0 0 1 0 0 0 1 66.320383312479009 36.497766413839464 15.721317926415431 1 rotate no_reflect no_shear #
lump $-1 $-1 $26 $2 #
transform $-1 1 0 0 0 1 0 0 0 1 66.320383312479009 36.497766413839464 15.721317926415431 1 rotate no_reflect no_shear #
lump $-1 $-1 $27 $3 #
transform $-1 1 0 0 0 1 0 0 0 1 66.320383312479009 36.497766413839464 15.721317926415431 1 rotate no_reflect no_shear #
lump $-1 $-1 $28 $4 #
transform $-1 1 0 0 0 1 0 0 0 1 66.320383312479009 36.497766413839464 15.721317926415431 1 rotate no_reflect no_shear #
lump $-1 $-1 $29 $5 #
transform $-1 1 0 0 0 1 0 0 0 1 66.320383312479009 36.497766413839464 15.721317926415431 1 rotate no_reflect no_shear #
lump $-1 $-1 $30 $6 #
transform $-1 1 0 0 0 1 0 0 0 1 66.320383312479009 36.497766413839464 15.721317926415431 1 rotate no_reflect no_shear #
lump $-1 $-1 $31 $7 #
transform $-1 1 0 0 0 1 0 0 0 1 66.320383312479009 36.497766413839464 15.721317926415431 1 rotate no_reflect no_shear #
shell $-1 $-1 $-1 $32 $-1 $8 #
shell $-1 $-1 $-1 $33 $-1 $10 #
shell $-1 $-1 $-1 $34 $-1 $12 #
shell $-1 $-1 $-1 $35 $-1 $14 #
shell $-1 $-1 $-1 $36 $-1 $16 #
shell $-1 $-1 $-1 $37 $-1 $18 #
shell $-1 $-1 $-1 $38 $-1 $20 #
shell $-1 $-1 $-1 $39 $-1 $22 #
face $-1 $40 $41 $24 $-1 $42 forward single #
face $-1 $43 $44 $25 $-1 $45 reversed single #
face $-1 $46 $47 $26 $-1 $48 reversed single #
face $-1 $49 $50 $27 $-1 $51 forward single #
face $-1 $52 $53 $28 $-1 $54 forward single #
face $-1 $55 $56 $29 $-1 $57 reversed single #
face $-1 $58 $59 $30 $-1 $60 forward single #
face $-1 $61 $62 $31 $-1 $63 forward single #
face $-1 $64 $65 $24 $-1 $66 reversed single #
loop $-1 $-1 $67 $32 #
plane-surface $-1 0 0 15.721317926415431 0 0 1 1 0 0 forward_v I I I I #
face $-1 $68 $69 $25 $-1 $70 reversed single #
loop $-1 $-1 $71 $33 #
plane-surface $-1 -59.195325808216033 -10.850144513425086 0 0 1 0 0 0 1 forward_v I I I I #
face $-1 $72 $73 $26 $-1 $74 reversed single #
loop $-1 $-1 $75 $34 #
plane-surface $-1 -52.070268303953057 96.079581314156826 148.26429446573641 1 0 0 0 -0.78801076186113728 -0.61566146476048833 forward_v I I I I #
face $-1 $76 $77 $27 $-1 $78 forward single #
loop $-1 $79 $80 $35 #
cone-surface $-1 -46.827857637265524 32.648482738211243 11.420460888511503 0 -0.78801076186113728 -0.61566146476048833 2 0 0 1 I I 0 1 2 forward I I I I #
face $-1 $81 $82 $28 $-1 $83 forward single #
loop $-1 $84 $85 $36 #
cone-surface $-1 -38.964241637234217 32.648482738211243 11.420460888511503 0 -0.78801076186113728 -0.61566146476048833 2 0 0 1 I I 0 1 2 forward I I I I #
face $-1 $86 $87 $29 $-1 $88 reversed single #
loop $-1 $-1 $89 $37 #
plane-surface $-1 52.069168902204368 -126.95855280500214 104.64895718277509 -1 0 0 0 -0.68199836817093118 0.7313536940579346 forward_v I I I I #
face $-1 $90 $91 $30 $-1 $92 forward single #
loop $-1 $93 $94 $38 #
cone-surface $-1 40.813568779808904 -30.957889373678814 10.386400302580357 0 0.68199836817093118 -0.7313536940579346 1.5 0 0 1 I I 0 1 1.5 forward I I I I #
face $-1 $95 $96 $31 $-1 $97 forward single #
loop $-1 $98 $99 $39 #
cone-surface $-1 47.566928853246182 -30.957889373678814 10.386400302580357 0 0.68199836817093118 -0.7313536940579346 1.5 0 0 1 I I 0 1 1.5 forward I I I I #
face $-1 $100 $101 $24 $-1 $102 reversed single #
loop $-1 $-1 $103 $40 #
plane-surface $-1 0 0 -15.721317926415431 0 0 1 1 0 0 forward_v I I I I #
coedge $-1 $104 $105 $106 $107 forward $41 $-1 #
face $-1 $108 $109 $25 $-1 $110 reversed single #
loop $-1 $-1 $111 $43 #
plane-surface $-1 -59.195325808216033 -5.0551305610086033 0 0 -1 0 0 0 -1 forward_v I I I I #
coedge $-1 $112 $113 $114 $115 reversed $44 $-1 #
face $-1 $116 $117 $26 $-1 $118 reversed single #
loop $-1 $-1 $119 $46 #
plane-surface $-1 -42.896049637249867 -8.442770247821656 66.602485798460663 0 0.78801076186113728 0.61566146476048833 1 0 0 forward_v I I I I #
coedge $-1 $120 $121 $122 $123 reversed $47 $-1 #
face $-1 $-1 $124 $27 $-1 $125 forward single #
loop $-1 $126 $127 $49 #
cone-surface $-1 -46.827857637265524 30.605094621697155 9.823991167823948 0 -0.78801076186113728 -0.61566146476048833 1 0 0 1 I I -0.70710678118654746 0.70710678118654746 1 forward I I I I #
loop $-1 $-1 $128 $35 #
coedge $-1 $80 $80 $129 $130 reversed $50 $-1 #
face $-1 $-1 $131 $28 $-1 $132 forward single #
loop $-1 $133 $134 $52 #
cone-surface $-1 -38.964241637234217 30.605094621697155 9.823991167823948 0 -0.78801076186113728 -0.61566146476048833 1 0 0 1 I I -0.70710678118654746 0.70710678118654746 1 forward I I I I #
loop $-1 $-1 $135 $36 #
coedge $-1 $85 $85 $136 $137 reversed $53 $-1 #
face $-1 $138 $139 $29 $-1 $140 reversed single #
loop $-1 $-1 $141 $55 #
plane-surface $-1 44.190248816527543 -36.497766413839457 7.6416425289356482 0 -0.68199836817093118 0.7313536940579346 1 0 0 forward_v I I I I #
coedge $-1 $142 $143 $144 $145 reversed $56 $-1 #
face $-1 $-1 $146 $30 $-1 $147 forward single #
loop $-1 $148 $149 $58 #
cone-surface $-1 40.813568779808904 -29.23870900280108 8.5428051069417172 0 0.68199836817093118 -0.7313536940579346 0.75 0 0 1 I I -0.70710678118654757 0.70710678118654757 0.75 forward I I I I #
loop $-1 $-1 $150 $38 #
coedge $-1 $94 $94 $151 $152 reversed $59 $-1 #
face $-1 $-1 $153 $31 $-1 $154 forward single #
loop $-1 $155 $156 $61 #
cone-surface $-1 47.566928853246182 -29.23870900280108 8.5428051069417172 0 0.68199836817093118 -0.7313536940579346 0.75 0 0 1 I I -0.70710678118654757 0.70710678118654757 0.75 forward I I I I #
loop $-1 $-1 $157 $39 #
coedge $-1 $99 $99 $158 $159 reversed $62 $-1 #
face $-1 $160 $161 $24 $-1 $162 reversed single #
loop $-1 $-1 $163 $64 #
plane-surface $-1 0 -36.497766413839464 0 0 1 0 0 0 1 forward_v I I I I #
coedge $-1 $164 $165 $166 $167 forward $65 $-1 #
coedge $-1 $168 $67 $169 $170 forward $41 $-1 #
coedge $-1 $67 $168 $171 $172 forward $41 $-1 #
coedge $-1 $173 $174 $67 $107 reversed $175 $-1 #
edge $-1 $176 -36.497766413839464 $177 36.497766413839464 $106 $178 forward 7 unknown #
face $-1 $179 $180 $25 $-1 $181 reversed single #
loop $-1 $-1 $182 $68 #
plane-surface $-1 -52.070268303953057 -7.9526375372168445 0 -1 0 0 0 0 1 forward_v I I I I #
coedge $-1 $183 $184 $185 $186 forward $69 $-1 #
coedge $-1 $187 $71 $188 $189 reversed $44 $-1 #
coedge $-1 $71 $187 $190 $191 reversed $44 $-1 #
coedge $-1 $192 $193 $71 $115 forward $194 $-1 #
edge $-1 $195 -15.721317926415431 $196 15.721317926415431 $114 $197 forward 7 unknown #
face $-1 $198 $199 $26 $-1 $200 reversed single #
loop $-1 $-1 $201 $72 #
plane-surface $-1 -33.721830970546677 96.079581314156826 148.26429446573641 -1 0 0 0 0.78801076186113728 0.61566146476048833 forward_v I I I I #
coedge $-1 $202 $203 $204 $205 reversed $73 $-1 #
coedge $-1 $121 $75 $206 $207 reversed $47 $-1 #
coedge $-1 $75 $120 $202 $208 reversed $47 $-1 #
coedge $-1 $204 $209 $75 $123 forward $210 $-1 #
edge $-1 $211 11.542024243238949 $212 16.729836885189485 $122 $213 forward 7 unknown #
loop $-1 $-1 $129 $76 #
plane-surface $-1 -42.896049637249867 -8.442770247821656 66.602485798460663 0 0.78801076186113728 0.61566146476048833 1 0 0 forward_v I I I I #
loop $-1 $-1 $214 $49 #
coedge $-1 $127 $127 $128 $215 reversed $77 $-1 #
coedge $-1 $128 $128 $127 $215 forward $79 $-1 #
coedge $-1 $129 $129 $80 $130 forward $124 $-1 #
edge $-1 $216 6.1230770534112703e-016 $216 6.2831853071796013 $129 $217 forward 7 unknown #
loop $-1 $-1 $136 $81 #
plane-surface $-1 -42.896049637249867 -8.442770247821656 66.602485798460663 0 0.78801076186113728 0.61566146476048833 1 0 0 forward_v I I I I #
loop $-1 $-1 $218 $52 #
coedge $-1 $134 $134 $135 $219 reversed $82 $-1 #
coedge $-1 $135 $135 $134 $219 forward $84 $-1 #
coedge $-1 $136 $136 $85 $137 forward $131 $-1 #
edge $-1 $220 6.1230770534112703e-016 $220 6.2831853071796013 $136 $221 forward 7 unknown #
face $-1 $222 $223 $29 $-1 $224 forward single #
loop $-1 $-1 $225 $86 #
plane-surface $-1 36.311328730850718 -126.95855280500214 104.64895718277509 1 0 0 0 0.68199836817093118 -0.7313536940579346 forward_v I I I I #
coedge $-1 $226 $227 $228 $229 reversed $87 $-1 #
coedge $-1 $143 $89 $230 $231 reversed $56 $-1 #
coedge $-1 $89 $142 $226 $232 reversed $56 $-1 #
coedge $-1 $228 $233 $89 $145 forward $223 $-1 #
edge $-1 $234 26.981509988661607 $235 35.645900879483854 $144 $236 forward 7 unknown #
loop $-1 $-1 $151 $90 #
plane-surface $-1 44.190248816527543 -36.497766413839457 7.6416425289356482 0 -0.68199836817093118 0.7313536940579346 1 0 0 forward_v I I I I #
loop $-1 $-1 $237 $58 #
coedge $-1 $149 $149 $150 $238 reversed $91 $-1 #
coedge $-1 $150 $150 $149 $238 forward $93 $-1 #
coedge $-1 $151 $151 $94 $152 forward $146 $-1 #
edge $-1 $239 1.3815028324797736e-015 $239 6.2831853071796022 $151 $240 forward 7 unknown #
loop $-1 $-1 $158 $95 #
plane-surface $-1 44.190248816527543 -36.497766413839457 7.6416425289356482 0 -0.68199836817093118 0.7313536940579346 1 0 0 forward_v I I I I #
loop $-1 $-1 $241 $61 #
coedge $-1 $156 $156 $157 $242 reversed $96 $-1 #
coedge $-1 $157 $157 $156 $242 forward $98 $-1 #
coedge $-1 $158 $158 $99 $159 forward $153 $-1 #
edge $-1 $243 1.3815028324797736e-015 $243 6.2831853071796022 $158 $244 forward 7 unknown #
face $-1 $245 $246 $24 $-1 $247 reversed single #
loop $-1 $-1 $248 $100 #
plane-surface $-1 -66.320383312479009 0 0 1 0 0 0 0 -1 forward_v I I I I #
coedge $-1 $249 $171 $250 $251 forward $101 $-1 #
coedge $-1 $252 $103 $249 $253 forward $65 $-1 #
coedge $-1 $103 $252 $254 $255 forward $65 $-1 #
coedge $-1 $174 $173 $103 $167 reversed $175 $-1 #
edge $-1 $256 -36.497766413839464 $257 36.497766413839464 $166 $258 forward 7 unknown #
coedge $-1 $105 $104 $259 $260 forward $41 $-1 #
coedge $-1 $261 $262 $104 $170 reversed $246 $-1 #
edge $-1 $177 -66.320383312479009 $263 66.320383312479009 $169 $264 forward 7 unknown #
coedge $-1 $163 $265 $105 $172 reversed $101 $-1 #
edge $-1 $266 -66.320383312479009 $176 66.320383312479009 $171 $267 forward 7 unknown #
coedge $-1 $166 $106 $265 $268 forward $175 $-1 #
coedge $-1 $106 $166 $261 $269 reversed $175 $-1 #
loop $-1 $-1 $173 $245 #
vertex $-1 $107 $270 #
vertex $-1 $107 $271 #
straight-curve $-1 66.320383312479009 0 15.721317926415431 0 1 0 I I #
face $-1 $272 $273 $25 $-1 $274 forward single #
loop $-1 $-1 $275 $108 #
plane-surface $-1 0 0 -15.721317926415431 0 0 1 1 0 0 forward_v I I I I #
coedge $-1 $276 $277 $187 $278 forward $109 $-1 #
coedge $-1 $279 $111 $275 $280 reversed $69 $-1 #
coedge $-1 $111 $279 $281 $282 reversed $69 $-1 #
coedge $-1 $277 $276 $111 $186 reversed $109 $-1 #
edge $-1 $283 -15.721317926415431 $284 15.721317926415431 $185 $285 forward 7 unknown #
coedge $-1 $113 $112 $182 $278 reversed $44 $-1 #
coedge $-1 $286 $287 $112 $189 forward $180 $-1 #
edge $-1 $288 22.47260539984504 $195 36.722720408370989 $188 $289 forward 7 unknown #
coedge $-1 $290 $291 $113 $191 forward $273 $-1 #
edge $-1 $196 -36.722720408370989 $292 -22.47260539984504 $190 $293 forward 7 unknown #
coedge $-1 $294 $114 $291 $295 reversed $194 $-1 #
coedge $-1 $114 $294 $286 $296 reversed $194 $-1 #
loop $-1 $-1 $294 $272 #
vertex $-1 $296 $297 #
vertex $-1 $115 $298 #
straight-curve $-1 -66.320383312479009 -10.850144513425086 0 0 0 1 I I #
face $-1 $-1 $210 $26 $-1 $299 forward single #
loop $-1 $-1 $300 $116 #
plane-surface $-1 0 36.497766413839464 0 0 -1 0 0 0 -1 forward_v I I I I #
coedge $-1 $301 $302 $303 $304 reversed $117 $-1 #
coedge $-1 $305 $119 $121 $208 forward $73 $-1 #
coedge $-1 $119 $305 $301 $306 forward $73 $-1 #
coedge $-1 $303 $122 $119 $205 forward $210 $-1 #
edge $-1 $212 -30.622243485328124 $307 -12.273806151921743 $204 $308 forward 7 unknown #
coedge $-1 $309 $310 $120 $207 forward $199 $-1 #
edge $-1 $311 -65.050926870406471 $211 -58.410829306452776 $206 $312 forward 7 unknown #
edge $-1 $212 64.569128157429247 $311 72.995532827678929 $121 $313 forward 7 unknown #
coedge $-1 $122 $303 $309 $314 forward $210 $-1 #
loop $-1 $-1 $303 $198 #
vertex $-1 $207 $315 #
vertex $-1 $123 $316 #
straight-curve $-1 -52.070268303953057 48.039790657078413 15.721317926415423 0 -1 0 I I #
coedge $-1 $214 $214 $-1 $317 reversed $126 $-1 #
edge $-1 $318 0 $318 6.2831853071796004 $127 $319 forward 7 unknown #
vertex $-1 $130 $320 #
ellipse-curve $-1 -46.827857637265524 33.9038600928642 12.401269144438578 0 0.78801076186113728 0.61566146476048833 2 0 0 1 I I #
coedge $-1 $218 $218 $-1 $321 reversed $133 $-1 #
edge $-1 $322 0 $322 6.2831853071796004 $134 $323 forward 7 unknown #
vertex $-1 $137 $324 #
ellipse-curve $-1 -38.964241637234217 33.9038600928642 12.401269144438578 0 0.78801076186113728 0.61566146476048833 2 0 0 1 I I #
face $-1 $-1 $325 $29 $-1 $326 reversed single #
loop $-1 $-1 $144 $138 #
plane-surface $-1 0 0 15.721317926415431 0 0 1 1 0 0 forward_v I I I I #
coedge $-1 $327 $328 $329 $330 reversed $139 $-1 #
coedge $-1 $331 $141 $143 $232 forward $87 $-1 #
coedge $-1 $141 $331 $327 $332 forward $87 $-1 #
coedge $-1 $329 $144 $141 $229 forward $223 $-1 #
edge $-1 $235 -29.974044493940596 $333 -14.216204322586947 $228 $334 forward 7 unknown #
coedge $-1 $335 $336 $142 $231 forward $325 $-1 #
edge $-1 $337 -44.682836062451905 $234 -36.603160664972116 $230 $338 forward 7 unknown #
edge $-1 $235 -11.847059721196796 $337 9.4367341760026555e-015 $143 $339 forward 7 unknown #
coedge $-1 $144 $329 $335 $340 forward $223 $-1 #
vertex $-1 $231 $341 #
vertex $-1 $145 $342 #
straight-curve $-1 52.069168902204368 -63.479276402501071 15.721317926415431 0 1 0 I I #
coedge $-1 $237 $237 $-1 $343 reversed $148 $-1 #
edge $-1 $344 0 $344 6.2831853071796004 $149 $345 forward 7 unknown #
vertex $-1 $152 $346 #
ellipse-curve $-1 40.813568779808904 -32.165570968428341 11.681480227675536 0 -0.68199836817093118 0.7313536940579346 1.5 0 0 1 I I #
coedge $-1 $241 $241 $-1 $347 reversed $155 $-1 #
edge $-1 $348 0 $348 6.2831853071796004 $156 $349 forward 7 unknown #
vertex $-1 $159 $350 #
ellipse-curve $-1 47.566928853246182 -32.165570968428341 11.681480227675536 0 -0.68199836817093118 0.7313536940579346 1.5 0 0 1 I I #
face $-1 $-1 $175 $24 $-1 $351 reversed single #
loop $-1 $-1 $261 $160 #
plane-surface $-1 0 36.497766413839464 0 0 -1 0 0 0 -1 forward_v I I I I #
coedge $-1 $352 $259 $262 $353 forward $161 $-1 #
coedge $-1 $265 $163 $164 $253 reversed $101 $-1 #
coedge $-1 $259 $352 $163 $251 reversed $161 $-1 #
edge $-1 $266 -15.721317926415431 $354 15.721317926415431 $250 $355 forward 7 unknown #
coedge $-1 $165 $164 $352 $356 forward $65 $-1 #
edge $-1 $257 -66.320383312479009 $354 66.320383312479009 $249 $357 forward 7 unknown #
coedge $-1 $262 $261 $165 $255 reversed $246 $-1 #
edge $-1 $358 -66.320383312479009 $256 66.320383312479009 $254 $359 forward 7 unknown #
vertex $-1 $167 $360 #
vertex $-1 $268 $361 #
straight-curve $-1 66.320383312479009 0 -15.721317926415431 0 -1 0 I I #
coedge $-1 $248 $250 $168 $260 reversed $161 $-1 #
edge $-1 $263 -36.497766413839464 $266 36.497766413839464 $259 $362 forward 7 unknown #
coedge $-1 $254 $169 $174 $269 forward $246 $-1 #
coedge $-1 $169 $254 $248 $353 reversed $246 $-1 #
vertex $-1 $170 $363 #
straight-curve $-1 0 36.497766413839464 15.721317926415431 -1 0 0 I I #
coedge $-1 $171 $249 $173 $268 reversed $101 $-1 #
vertex $-1 $260 $364 #
straight-curve $-1 0 -36.497766413839464 15.721317926415431 1 0 0 I I #
edge $-1 $176 -15.721317926415431 $257 15.721317926415431 $173 $365 forward 7 unknown #
edge $-1 $177 -15.721317926415431 $256 15.721317926415431 $174 $366 forward 7 unknown #
point $-1 66.320383312479009 -36.497766413839464 15.721317926415431 #
point $-1 66.320383312479009 36.497766413839464 15.721317926415431 #
face $-1 $-1 $194 $25 $-1 $367 reversed single #
loop $-1 $-1 $281 $179 #
plane-surface $-1 0 0 15.721317926415431 0 0 1 1 0 0 forward_v I I I I #
coedge $-1 $287 $286 $183 $280 forward $180 $-1 #
coedge $-1 $185 $182 $287 $368 reversed $109 $-1 #
coedge $-1 $182 $185 $290 $369 reversed $109 $-1 #
edge $-1 $292 -15.721317926415431 $288 15.721317926415431 $182 $370 forward 7 unknown #
coedge $-1 $184 $183 $294 $371 reversed $69 $-1 #
edge $-1 $372 -36.722720408370989 $284 -22.47260539984504 $275 $373 forward 7 unknown #
coedge $-1 $291 $290 $184 $282 forward $273 $-1 #
edge $-1 $283 22.47260539984504 $374 36.722720408370989 $281 $375 forward 7 unknown #
vertex $-1 $282 $376 #
vertex $-1 $280 $377 #
straight-curve $-1 -52.070268303953057 -5.0551305610086033 0 0 0 -1 I I #
coedge $-1 $275 $188 $193 $296 forward $180 $-1 #
coedge $-1 $188 $275 $276 $368 forward $180 $-1 #
vertex $-1 $189 $378 #
straight-curve $-1 -29.597662904108017 -10.850144513425086 -15.721317926415431 -1 0 0 I I #
coedge $-1 $281 $190 $277 $369 forward $273 $-1 #
coedge $-1 $190 $281 $192 $295 forward $273 $-1 #
vertex $-1 $191 $379 #
straight-curve $-1 -29.597662904108017 -10.850144513425086 15.721317926415431 1 0 0 I I #
coedge $-1 $193 $192 $279 $371 forward $194 $-1 #
edge $-1 $374 5.0551305610086033 $196 10.850144513425086 $192 $380 forward 7 unknown #
edge $-1 $195 -10.850144513425086 $372 -5.0551305610086033 $193 $381 forward 7 unknown #
point $-1 -66.320383312479009 -10.850144513425086 -15.721317926415431 #
point $-1 -66.320383312479009 -10.850144513425086 15.721317926415431 #
plane-surface $-1 0 0 15.721317926415431 0 0 1 1 0 0 forward_v I I I I #
coedge $-1 $310 $309 $302 $382 forward $199 $-1 #
coedge $-1 $302 $201 $203 $306 reversed $117 $-1 #
coedge $-1 $201 $301 $300 $382 reversed $117 $-1 #
coedge $-1 $209 $204 $201 $304 forward $210 $-1 #
edge $-1 $307 -16.729836885189485 $383 -11.542024243238949 $303 $384 forward 7 unknown #
coedge $-1 $203 $202 $310 $385 reversed $73 $-1 #
edge $-1 $386 -72.995532827678929 $307 -64.569128157429247 $301 $387 forward 7 unknown #
vertex $-1 $205 $388 #
straight-curve $-1 -21.448024818624933 31.309953771888921 15.721317926415438 1 0 0 I I #
coedge $-1 $300 $206 $209 $314 reversed $199 $-1 #
coedge $-1 $206 $300 $305 $385 forward $199 $-1 #
vertex $-1 $207 $389 #
straight-curve $-1 -52.070268303953057 36.497766413839464 74.132147232868206 0 0 1 I I #
straight-curve $-1 -52.070268303953057 -8.442770247821656 66.602485798460663 0 0.61566146476048833 -0.78801076186113728 I I #
edge $-1 $383 33.721830970546677 $211 52.070268303953057 $309 $390 forward 7 unknown #
point $-1 -52.070268303953057 36.497766413839464 15.721317926415431 #
point $-1 -52.070268303953057 31.309953771888928 15.721317926415431 #
edge $-1 $391 1 $391 0 $214 $-1 forward 7 unknown #
vertex $-1 $215 $392 #
ellipse-curve $-1 -46.827857637265524 31.393105383558293 10.439652632584437 0 0.78801076186113728 0.61566146476048833 2 0 0 1 I I #
point $-1 -44.827857637265524 33.903860092864193 12.401269144438571 #
edge $-1 $393 1 $393 0 $218 $-1 forward 7 unknown #
vertex $-1 $219 $394 #
ellipse-curve $-1 -38.964241637234217 31.393105383558293 10.439652632584437 0 0.78801076186113728 0.61566146476048833 2 0 0 1 I I #
point $-1 -36.964241637234217 33.903860092864193 12.401269144438571 #
loop $-1 $-1 $230 $222 #
plane-surface $-1 0 -36.497766413839464 0 0 1 0 0 0 1 forward_v I I I I #
coedge $-1 $328 $225 $227 $332 reversed $139 $-1 #
coedge $-1 $225 $327 $395 $396 reversed $139 $-1 #
coedge $-1 $233 $228 $225 $330 forward $223 $-1 #
edge $-1 $333 -35.645900879483854 $397 -26.981509988661607 $329 $398 forward 7 unknown #
coedge $-1 $227 $226 $336 $399 reversed $87 $-1 #
edge $-1 $400 -9.4367341760026555e-015 $333 11.847059721196796 $327 $401 forward 7 unknown #
vertex $-1 $229 $402 #
straight-curve $-1 22.095124408263771 -27.833375523017214 15.721317926415431 -1 0 0 I I #
coedge $-1 $395 $230 $233 $340 reversed $325 $-1 #
coedge $-1 $230 $395 $331 $399 forward $325 $-1 #
vertex $-1 $231 $403 #
straight-curve $-1 52.069168902204368 -36.497766413839464 52.324478591387546 0 0 1 I I #
straight-curve $-1 52.069168902204368 -36.497766413839457 7.6416425289356482 0 -0.7313536940579346 -0.68199836817093118 I I #
edge $-1 $397 36.311328730850718 $234 52.069168902204368 $335 $404 forward 7 unknown #
point $-1 52.069168902204368 -36.497766413839464 15.721317926415431 #
point $-1 52.069168902204368 -27.833375523017217 15.721317926415431 #
edge $-1 $405 1 $405 0 $237 $-1 forward 7 unknown #
vertex $-1 $238 $406 #
ellipse-curve $-1 40.813568779808904 -29.75020777892928 9.0913203774851681 0 -0.68199836817093118 0.7313536940579346 1.5 0 0 1 I I #
point $-1 42.313568779808904 -32.165570968428348 11.681480227675547 #
edge $-1 $407 1 $407 0 $241 $-1 forward 7 unknown #
vertex $-1 $242 $408 #
ellipse-curve $-1 47.566928853246182 -29.75020777892928 9.0913203774851681 0 -0.68199836817093118 0.7313536940579346 1.5 0 0 1 I I #
point $-1 49.066928853246182 -32.165570968428348 11.681480227675547 #
plane-surface $-1 66.320383312479009 0 0 -1 0 0 0 0 1 forward_v I I I I #
coedge $-1 $250 $248 $252 $356 reversed $161 $-1 #
edge $-1 $263 -15.721317926415431 $358 15.721317926415431 $262 $409 forward 7 unknown #
vertex $-1 $356 $410 #
straight-curve $-1 -66.320383312479009 -36.497766413839464 0 0 0 -1 I I #
edge $-1 $354 -36.497766413839464 $358 36.497766413839464 $352 $411 forward 7 unknown #
straight-curve $-1 0 -36.497766413839464 -15.721317926415431 -1 0 0 I I #
vertex $-1 $255 $412 #
straight-curve $-1 0 36.497766413839464 -15.721317926415431 1 0 0 I I #
point $-1 66.320383312479009 36.497766413839464 -15.721317926415431 #
point $-1 66.320383312479009 -36.497766413839464 -15.721317926415431 #
straight-curve $-1 -66.320383312479009 0 15.721317926415431 0 -1 0 I I #
point $-1 -66.320383312479009 36.497766413839464 15.721317926415431 #
point $-1 -66.320383312479009 -36.497766413839464 15.721317926415431 #
straight-curve $-1 66.320383312479009 -36.497766413839464 0 0 0 -1 I I #
straight-curve $-1 66.320383312479009 36.497766413839464 0 0 0 -1 I I #
plane-surface $-1 -66.320383312479009 0 0 1 0 0 0 0 -1 forward_v I I I I #
edge $-1 $284 1.078811792400181 $288 6.8738257448166635 $287 $413 forward 7 unknown #
edge $-1 $292 -6.8738257448166635 $283 -1.078811792400181 $290 $414 forward 7 unknown #
straight-curve $-1 -52.070268303953057 -10.850144513425086 0 0 0 -1 I I #
edge $-1 $374 -15.721317926415431 $372 15.721317926415431 $294 $415 forward 7 unknown #
vertex $-1 $371 $416 #
straight-curve $-1 -29.597662904108017 -5.0551305610086033 -15.721317926415431 1 0 0 I I #
vertex $-1 $295 $417 #
straight-curve $-1 -29.597662904108017 -5.0551305610086033 15.721317926415431 -1 0 0 I I #
point $-1 -52.070268303953057 -5.0551305610086033 15.721317926415431 #
point $-1 -52.070268303953057 -5.0551305610086033 -15.721317926415431 #
point $-1 -52.070268303953057 -10.850144513425086 -15.721317926415431 #
point $-1 -52.070268303953057 -10.850144513425086 15.721317926415431 #
straight-curve $-1 -66.320383312479009 0 15.721317926415431 0 -1 0 I I #
straight-curve $-1 -66.320383312479009 0 -15.721317926415431 0 1 0 I I #
edge $-1 $383 58.410829306452776 $386 65.050926870406471 $300 $418 forward 7 unknown #
vertex $-1 $314 $419 #
straight-curve $-1 -33.721830970546677 48.039790657078413 15.721317926415423 0 1 0 I I #
edge $-1 $386 12.273806151921743 $311 30.622243485328124 $310 $420 forward 7 unknown #
vertex $-1 $385 $421 #
straight-curve $-1 -33.721830970546677 -8.442770247821656 66.602485798460663 0 -0.61566146476048833 0.78801076186113728 I I #
point $-1 -33.721830970546677 31.309953771888928 15.721317926415431 #
point $-1 -52.070268303953057 36.497766413839464 9.0812203624617354 #
straight-curve $-1 0 36.497766413839464 15.721317926415431 -1 0 0 I I #
vertex $-1 $317 $422 #
point $-1 -44.827857637265524 31.393105383558293 10.439652632584437 #
vertex $-1 $321 $423 #
point $-1 -36.964241637234217 31.393105383558293 10.439652632584437 #
coedge $-1 $336 $335 $328 $396 forward $325 $-1 #
edge $-1 $397 36.603160664972116 $400 44.682836062451905 $395 $424 forward 7 unknown #
vertex $-1 $340 $425 #
straight-curve $-1 36.311328730850718 -63.479276402501071 15.721317926415431 0 -1 0 I I #
edge $-1 $400 14.216204322586947 $337 29.974044493940596 $336 $426 forward 7 unknown #
vertex $-1 $399 $427 #
straight-curve $-1 36.311328730850718 -36.497766413839457 7.6416425289356482 0 0.7313536940579346 0.68199836817093118 I I #
point $-1 36.311328730850718 -27.833375523017217 15.721317926415431 #
point $-1 52.069168902204368 -36.497766413839464 7.641642528935642 #
straight-curve $-1 0 -36.497766413839464 15.721317926415431 1 0 0 I I #
vertex $-1 $343 $428 #
point $-1 42.313568779808904 -29.75020777892928 9.0913203774851681 #
vertex $-1 $347 $429 #
point $-1 49.066928853246182 -29.75020777892928 9.0913203774851681 #
straight-curve $-1 -66.320383312479009 36.497766413839464 0 0 0 -1 I I #
point $-1 -66.320383312479009 -36.497766413839464 -15.721317926415431 #
straight-curve $-1 -66.320383312479009 0 -15.721317926415431 0 1 0 I I #
point $-1 -66.320383312479009 36.497766413839464 -15.721317926415431 #
straight-curve $-1 -52.070268303953057 -3.9763187686084223 -15.721317926415431 0 -1 0 I I #
straight-curve $-1 -52.070268303953057 -3.9763187686084223 15.721317926415431 0 1 0 I I #
straight-curve $-1 -66.320383312479009 -5.0551305610086033 0 0 0 -1 I I #
point $-1 -66.320383312479009 -5.0551305610086033 -15.721317926415431 #
point $-1 -66.320383312479009 -5.0551305610086033 15.721317926415431 #
straight-curve $-1 -33.721830970546677 36.497766413839464 74.132147232868206 0 0 -1 I I #
point $-1 -33.721830970546677 36.497766413839464 15.721317926415431 #
straight-curve $-1 -21.448024818624933 36.497766413839464 9.0812203624617283 -1 0 0 I I #
point $-1 -33.721830970546677 36.497766413839464 9.0812203624617354 #
point $-1 -46.827857637265524 29.817083859836018 9.208329703063459 #
point $-1 -38.964241637234217 29.817083859836018 9.208329703063459 #
straight-curve $-1 36.311328730850718 -36.497766413839464 52.324478591387546 0 0 -1 I I #
point $-1 36.311328730850718 -36.497766413839464 15.721317926415431 #
straight-curve $-1 22.095124408263771 -36.497766413839464 7.6416425289356358 1 0 0 I I #
point $-1 36.311328730850718 -36.497766413839464 7.641642528935642 #
point $-1 40.813568779808904 -28.727210226672881 7.9942898363982664 #
point $-1 47.566928853246182 -28.727210226672881 7.9942898363982664 #
End-of-ACIS-data 