500 0 8 0           
7 Unknown 11 ACIS 5.0 NT 24 Thu Mar 25 21:20:09 1999 
-1 9.9999999999999995e-007 1e-010 
body $-1 $8 $-1 $9 #
body $-1 $10 $-1 $11 #
body $-1 $12 $-1 $13 #
body $-1 $14 $-1 $15 #
body $-1 $16 $-1 $17 #
body $-1 $18 $-1 $19 #
body $-1 $20 $-1 $21 #
body $-1 $22 $-1 $23 #
lump $-1 $-1 $24 $0 #
transform $-1 1 0 0 0 1 0 0 0 1 44.111453596606339 27.977057058768665 12.299505601632138 1 rotate no_reflect no_shear #
lump $-1 $-1 $25 $1 #
transform $-1 1 0 0 0 1 0 0 0 1 44.111453596606339 27.977057058768665 12.299505601632138 1 rotate no_reflect no_shear #
lump $-1 $-1 $26 $2 #
transform $-1 1 0 0 0 1 0 0 0 1 44.111453596606339 27.977057058768665 12.299505601632138 1 rotate no_reflect no_shear #
lump $-1 $-1 $27 $3 #
transform $-1 1 0 0 0 1 0 0 0 1 44.111453596606339 27.977057058768665 12.299505601632138 1 rotate no_reflect no_shear #
lump $-1 $-1 $28 $4 #
transform $-1 1 0 0 0 1 0 0 0 1 44.111453596606339 27.977057058768665 12.299505601632138 1 rotate no_reflect no_shear #
lump $-1 $-1 $29 $5 #
transform $-1 1 0 0 0 1 0 0 0 1 44.111453596606339 27.977057058768665 12.299505601632138 1 rotate no_reflect no_shear #
lump $-1 $-1 $30 $6 #
transform $-1 1 0 0 0 1 0 0 0 1 44.111453596606339 27.977057058768665 12.299505601632138 1 rotate no_reflect no_shear #
lump $-1 $-1 $31 $7 #
transform $-1 1 0 0 0 1 0 0 0 1 44.111453596606339 27.977057058768665 12.299505601632138 1 rotate no_reflect no_shear #
shell $-1 $-1 $-1 $32 $-1 $8 #
shell $-1 $-1 $-1 $33 $-1 $10 #
shell $-1 $-1 $-1 $34 $-1 $12 #
shell $-1 $-1 $-1 $35 $-1 $14 #
shell $-1 $-1 $-1 $36 $-1 $16 #
shell $-1 $-1 $-1 $37 $-1 $18 #
shell $-1 $-1 $-1 $38 $-1 $20 #
shell $-1 $-1 $-1 $39 $-1 $22 #
face $-1 $40 $41 $24 $-1 $42 forward single #
face $-1 $43 $44 $25 $-1 $45 forward single #
face $-1 $46 $47 $26 $-1 $48 reversed single #
face $-1 $49 $50 $27 $-1 $51 forward single #
face $-1 $52 $53 $28 $-1 $54 forward single #
face $-1 $55 $56 $29 $-1 $57 reversed single #
face $-1 $58 $59 $30 $-1 $60 forward single #
face $-1 $61 $62 $31 $-1 $63 forward single #
face $-1 $64 $65 $24 $-1 $66 reversed single #
loop $-1 $-1 $67 $32 #
plane-surface $-1 0 0 12.299505601632138 0 0 1 1 0 0 forward_v I I I I #
face $-1 $68 $69 $25 $-1 $70 reversed single #
loop $-1 $-1 $71 $33 #
plane-surface $-1 -44.111453596606339 0 0 1 0 0 0 0 -1 forward_v I I I I #
face $-1 $72 $73 $26 $-1 $74 reversed single #
loop $-1 $-1 $75 $34 #
plane-surface $-1 20.304973473049699 -14.640451945164944 131.76131436344852 0 -1 0 -0.55919291073839883 0 -0.82903756765294845 forward_v I I I I #
face $-1 $76 $77 $27 $-1 $78 forward single #
loop $-1 $79 $80 $35 #
cone-surface $-1 41.527379934356645 -20.374500395018444 10.272579275945189 -0.55919291073839883 0 -0.82903756765294845 0.41451878382647422 0 -0.27959645536919941 1 I I 0 1 0.5 forward I I I I #
face $-1 $81 $82 $28 $-1 $83 forward single #
loop $-1 $84 $85 $36 #
cone-surface $-1 41.527379934356645 -16.934071325106345 10.272579275945189 -0.55919291073839883 0 -0.82903756765294845 0.41451878382647422 0 -0.27959645536919941 1 I I 0 1 0.5 forward I I I I #
face $-1 $86 $87 $29 $-1 $88 reversed single #
loop $-1 $-1 $89 $37 #
plane-surface $-1 20.304973473049699 22.668119774959852 131.76131436344852 0 -1 0 -0.55919291073839883 0 -0.82903756765294845 forward_v I I I I #
face $-1 $90 $91 $30 $-1 $92 forward single #
loop $-1 $93 $94 $38 #
cone-surface $-1 41.527379934356645 16.934071325106352 10.272579275945189 -0.55919291073839883 0 -0.82903756765294845 0.41451878382647422 0 -0.27959645536919941 1 I I 0 1 0.5 forward I I I I #
face $-1 $95 $96 $31 $-1 $97 forward single #
loop $-1 $98 $99 $39 #
cone-surface $-1 41.527379934356645 20.374500395018451 10.272579275945189 -0.55919291073839883 0 -0.82903756765294845 0.41451878382647422 0 -0.27959645536919941 1 I I 0 1 0.5 forward I I I I #
face $-1 $100 $101 $24 $-1 $102 reversed single #
loop $-1 $-1 $103 $40 #
plane-surface $-1 0 0 -12.299505601632138 0 0 1 1 0 0 forward_v I I I I #
coedge $-1 $104 $105 $106 $107 forward $41 $-1 #
face $-1 $108 $109 $25 $-1 $110 reversed single #
loop $-1 $-1 $111 $43 #
plane-surface $-1 0 27.977057058768665 0 0 -1 0 0 0 -1 forward_v I I I I #
coedge $-1 $112 $113 $114 $115 forward $44 $-1 #
face $-1 $116 $117 $26 $-1 $118 reversed single #
loop $-1 $-1 $119 $46 #
plane-surface $-1 -29.02865079412652 -18.654285860062394 58.621209972715675 0.55919291073839883 0 0.82903756765294845 0.82903756765294845 0 -0.55919291073839883 forward_v I I I I #
coedge $-1 $120 $121 $122 $123 reversed $47 $-1 #
face $-1 $-1 $124 $27 $-1 $125 forward single #
loop $-1 $126 $127 $49 #
cone-surface $-1 41.036185441320114 -20.374500395018444 9.5443535063913387 -0.55919291073839883 0 -0.82903756765294845 0.20725939191323711 0 -0.13979822768459971 1 I I -0.70710678118654746 0.70710678118654746 0.25 forward I I I I #
loop $-1 $-1 $128 $35 #
coedge $-1 $80 $80 $129 $130 reversed $50 $-1 #
face $-1 $-1 $131 $28 $-1 $132 forward single #
loop $-1 $133 $134 $52 #
cone-surface $-1 41.036185441320114 -16.934071325106345 9.5443535063913387 -0.55919291073839883 0 -0.82903756765294845 0.20725939191323711 0 -0.13979822768459971 1 I I -0.70710678118654746 0.70710678118654746 0.25 forward I I I I #
loop $-1 $-1 $135 $36 #
coedge $-1 $85 $85 $136 $137 reversed $53 $-1 #
face $-1 $138 $139 $29 $-1 $140 reversed single #
loop $-1 $-1 $141 $55 #
plane-surface $-1 -29.02865079412652 18.654285860062402 58.621209972715675 0.55919291073839883 0 0.82903756765294845 0.82903756765294845 0 -0.55919291073839883 forward_v I I I I #
coedge $-1 $142 $143 $144 $145 reversed $56 $-1 #
face $-1 $-1 $146 $30 $-1 $147 forward single #
loop $-1 $148 $149 $58 #
cone-surface $-1 41.036185441320114 16.934071325106352 9.5443535063913387 -0.55919291073839883 0 -0.82903756765294845 0.20725939191323711 0 -0.13979822768459971 1 I I -0.70710678118654746 0.70710678118654746 0.25 forward I I I I #
loop $-1 $-1 $150 $38 #
coedge $-1 $94 $94 $151 $152 reversed $59 $-1 #
face $-1 $-1 $153 $31 $-1 $154 forward single #
loop $-1 $155 $156 $61 #
cone-surface $-1 41.036185441320114 20.374500395018451 9.5443535063913387 -0.55919291073839883 0 -0.82903756765294845 0.20725939191323711 0 -0.13979822768459971 1 I I -0.70710678118654746 0.70710678118654746 0.25 forward I I I I #
loop $-1 $-1 $157 $39 #
coedge $-1 $99 $99 $158 $159 reversed $62 $-1 #
face $-1 $160 $161 $24 $-1 $162 reversed single #
loop $-1 $-1 $163 $64 #
plane-surface $-1 0 -27.977057058768665 0 0 1 0 0 0 1 forward_v I I I I #
coedge $-1 $164 $165 $166 $167 forward $65 $-1 #
coedge $-1 $168 $67 $169 $170 forward $41 $-1 #
coedge $-1 $67 $168 $171 $172 forward $41 $-1 #
coedge $-1 $173 $174 $67 $107 reversed $175 $-1 #
edge $-1 $176 -27.977057058768665 $177 27.977057058768665 $106 $178 forward 7 unknown #
face $-1 $179 $180 $25 $-1 $181 reversed single #
loop $-1 $-1 $114 $68 #
plane-surface $-1 -49.828285721419526 0 8.8615597474084122 0 0 1 1 0 0 forward_v I I I I #
coedge $-1 $182 $183 $112 $184 forward $69 $-1 #
coedge $-1 $185 $71 $111 $184 reversed $44 $-1 #
coedge $-1 $71 $185 $186 $187 reversed $44 $-1 #
coedge $-1 $188 $189 $71 $115 reversed $109 $-1 #
edge $-1 $190 -27.977057058768665 $191 27.977057058768665 $114 $192 forward 7 unknown #
face $-1 $193 $194 $26 $-1 $195 forward single #
loop $-1 $-1 $196 $72 #
plane-surface $-1 20.304973473049699 -22.668119774959845 131.76131436344852 0 1 0 0.55919291073839883 0 0.82903756765294845 forward_v I I I I #
coedge $-1 $197 $198 $199 $200 reversed $73 $-1 #
coedge $-1 $121 $75 $201 $202 reversed $47 $-1 #
coedge $-1 $75 $120 $197 $203 reversed $47 $-1 #
coedge $-1 $199 $204 $75 $123 forward $194 $-1 #
edge $-1 $205 -33.958966860081489 $206 -29.493612066285934 $122 $207 forward 7 unknown #
loop $-1 $-1 $129 $76 #
plane-surface $-1 -29.02865079412652 -18.654285860062394 58.621209972715675 0.55919291073839883 0 0.82903756765294845 0.82903756765294845 0 -0.55919291073839883 forward_v I I I I #
loop $-1 $-1 $208 $49 #
coedge $-1 $127 $127 $128 $209 reversed $77 $-1 #
coedge $-1 $128 $128 $127 $209 forward $79 $-1 #
coedge $-1 $129 $129 $80 $130 forward $124 $-1 #
edge $-1 $210 0 $210 6.2831853071796004 $129 $211 forward 7 unknown #
loop $-1 $-1 $136 $81 #
plane-surface $-1 -29.02865079412652 -18.654285860062394 58.621209972715675 0.55919291073839883 0 0.82903756765294845 0.82903756765294845 0 -0.55919291073839883 forward_v I I I I #
loop $-1 $-1 $212 $52 #
coedge $-1 $134 $134 $135 $213 reversed $82 $-1 #
coedge $-1 $135 $135 $134 $213 forward $84 $-1 #
coedge $-1 $136 $136 $85 $137 forward $131 $-1 #
edge $-1 $214 0 $214 6.2831853071796004 $136 $215 forward 7 unknown #
face $-1 $216 $217 $29 $-1 $218 reversed single #
loop $-1 $-1 $219 $86 #
plane-surface $-1 20.304973473049699 14.640451945164951 131.76131436344852 0 1 0 0.55919291073839883 0 0.82903756765294845 forward_v I I I I #
coedge $-1 $220 $221 $222 $223 reversed $87 $-1 #
coedge $-1 $143 $89 $224 $225 reversed $56 $-1 #
coedge $-1 $89 $142 $220 $226 reversed $56 $-1 #
coedge $-1 $222 $227 $89 $145 forward $228 $-1 #
edge $-1 $229 -33.958966860081489 $230 -29.493612066285934 $144 $231 forward 7 unknown #
loop $-1 $-1 $151 $90 #
plane-surface $-1 -29.02865079412652 18.654285860062402 58.621209972715675 0.55919291073839883 0 0.82903756765294845 0.82903756765294845 0 -0.55919291073839883 forward_v I I I I #
loop $-1 $-1 $232 $58 #
coedge $-1 $149 $149 $150 $233 reversed $91 $-1 #
coedge $-1 $150 $150 $149 $233 forward $93 $-1 #
coedge $-1 $151 $151 $94 $152 forward $146 $-1 #
edge $-1 $234 0 $234 6.2831853071796004 $151 $235 forward 7 unknown #
loop $-1 $-1 $158 $95 #
plane-surface $-1 -29.02865079412652 18.654285860062402 58.621209972715675 0.55919291073839883 0 0.82903756765294845 0.82903756765294845 0 -0.55919291073839883 forward_v I I I I #
loop $-1 $-1 $236 $61 #
coedge $-1 $156 $156 $157 $237 reversed $96 $-1 #
coedge $-1 $157 $157 $156 $237 forward $98 $-1 #
coedge $-1 $158 $158 $99 $159 forward $153 $-1 #
edge $-1 $238 0 $238 6.2831853071796004 $158 $239 forward 7 unknown #
face $-1 $240 $241 $24 $-1 $242 reversed single #
loop $-1 $-1 $243 $100 #
plane-surface $-1 -44.111453596606339 0 0 1 0 0 0 0 -1 forward_v I I I I #
coedge $-1 $244 $171 $245 $246 forward $101 $-1 #
coedge $-1 $247 $103 $244 $248 forward $65 $-1 #
coedge $-1 $103 $247 $249 $250 forward $65 $-1 #
coedge $-1 $174 $173 $103 $167 reversed $175 $-1 #
edge $-1 $251 -27.977057058768665 $252 27.977057058768665 $166 $253 forward 7 unknown #
coedge $-1 $105 $104 $254 $255 forward $41 $-1 #
coedge $-1 $256 $257 $104 $170 reversed $241 $-1 #
edge $-1 $177 -44.111453596606339 $258 44.111453596606339 $169 $259 forward 7 unknown #
coedge $-1 $163 $260 $105 $172 reversed $101 $-1 #
edge $-1 $261 -44.111453596606339 $176 44.111453596606339 $171 $262 forward 7 unknown #
coedge $-1 $166 $106 $260 $263 forward $175 $-1 #
coedge $-1 $106 $166 $256 $264 reversed $175 $-1 #
loop $-1 $-1 $173 $240 #
vertex $-1 $107 $265 #
vertex $-1 $107 $266 #
straight-curve $-1 44.111453596606339 0 12.299505601632138 0 1 0 I I #
face $-1 $267 $268 $25 $-1 $269 forward single #
loop $-1 $-1 $270 $108 #
plane-surface $-1 -55.545117846232714 0 10.580532674520274 1 0 0 0 0 -1 forward_v I I I I #
coedge $-1 $271 $111 $189 $272 reversed $69 $-1 #
coedge $-1 $111 $271 $273 $274 reversed $69 $-1 #
edge $-1 $275 -12.299505601632138 $191 -8.8615597474084122 $111 $276 forward 7 unknown #
coedge $-1 $113 $112 $277 $278 reversed $44 $-1 #
coedge $-1 $279 $280 $113 $187 forward $281 $-1 #
edge $-1 $190 8.8615597474084122 $282 12.299505601632138 $186 $283 forward 7 unknown #
coedge $-1 $284 $114 $280 $285 forward $109 $-1 #
coedge $-1 $114 $284 $182 $272 forward $109 $-1 #
vertex $-1 $187 $286 #
vertex $-1 $184 $287 #
straight-curve $-1 -44.111453596606339 0 8.8615597474084122 0 1 0 I I #
face $-1 $-1 $288 $26 $-1 $289 reversed single #
loop $-1 $-1 $122 $116 #
plane-surface $-1 0 0 12.299505601632138 0 0 1 1 0 0 forward_v I I I I #
coedge $-1 $290 $291 $292 $293 reversed $117 $-1 #
coedge $-1 $294 $119 $121 $203 forward $73 $-1 #
coedge $-1 $119 $294 $290 $295 forward $73 $-1 #
coedge $-1 $292 $122 $119 $200 forward $194 $-1 #
edge $-1 $206 5.313309015133747 $296 13.340976844928647 $199 $297 forward 7 unknown #
coedge $-1 $298 $299 $120 $202 forward $288 $-1 #
edge $-1 $300 -56.593071476184811 $205 -53.581151580092126 $201 $301 forward 7 unknown #
edge $-1 $206 82.836716062650027 $300 88.222907193212691 $121 $302 forward 7 unknown #
coedge $-1 $122 $292 $298 $303 forward $194 $-1 #
vertex $-1 $202 $304 #
vertex $-1 $123 $305 #
straight-curve $-1 10.15248673652485 -14.640451945164944 12.299505601632134 -1 0 0 I I #
coedge $-1 $208 $208 $-1 $306 reversed $126 $-1 #
edge $-1 $307 0 $307 6.2831853071796004 $127 $308 forward 7 unknown #
vertex $-1 $130 $309 #
ellipse-curve $-1 41.878776199708568 -20.374500395018444 10.793545653585786 0.55919291073839883 0 0.82903756765294845 0.41451878382647422 0 -0.27959645536919941 1 I I #
coedge $-1 $212 $212 $-1 $310 reversed $133 $-1 #
edge $-1 $311 0 $311 6.2831853071796004 $134 $312 forward 7 unknown #
vertex $-1 $137 $313 #
ellipse-curve $-1 41.878776199708568 -16.934071325106345 10.793545653585786 0.55919291073839883 0 0.82903756765294845 0.41451878382647422 0 -0.27959645536919941 1 I I #
face $-1 $-1 $228 $29 $-1 $314 forward single #
loop $-1 $-1 $315 $138 #
plane-surface $-1 44.111453596606339 0 0 -1 0 0 0 0 1 forward_v I I I I #
coedge $-1 $316 $317 $318 $319 reversed $139 $-1 #
coedge $-1 $320 $141 $143 $226 forward $87 $-1 #
coedge $-1 $141 $320 $316 $321 forward $87 $-1 #
coedge $-1 $318 $144 $141 $223 forward $228 $-1 #
edge $-1 $230 -13.340976844928651 $322 -5.3133090151337505 $222 $323 forward 7 unknown #
coedge $-1 $324 $325 $142 $225 forward $217 $-1 #
edge $-1 $326 -56.593071476184811 $229 -53.581151580092126 $224 $327 forward 7 unknown #
edge $-1 $230 82.836716062650027 $326 88.222907193212691 $143 $328 forward 7 unknown #
coedge $-1 $144 $318 $324 $329 forward $228 $-1 #
loop $-1 $-1 $318 $216 #
vertex $-1 $225 $330 #
vertex $-1 $145 $331 #
straight-curve $-1 10.15248673652485 22.668119774959852 12.299505601632134 -1 0 0 I I #
coedge $-1 $232 $232 $-1 $332 reversed $148 $-1 #
edge $-1 $333 0 $333 6.2831853071796004 $149 $334 forward 7 unknown #
vertex $-1 $152 $335 #
ellipse-curve $-1 41.878776199708568 16.934071325106352 10.793545653585786 0.55919291073839883 0 0.82903756765294845 0.41451878382647422 0 -0.27959645536919941 1 I I #
coedge $-1 $236 $236 $-1 $336 reversed $155 $-1 #
edge $-1 $337 0 $337 6.2831853071796004 $156 $338 forward 7 unknown #
vertex $-1 $159 $339 #
ellipse-curve $-1 41.878776199708568 20.374500395018451 10.793545653585786 0.55919291073839883 0 0.82903756765294845 0.41451878382647422 0 -0.27959645536919941 1 I I #
face $-1 $-1 $175 $24 $-1 $340 reversed single #
loop $-1 $-1 $256 $160 #
plane-surface $-1 0 27.977057058768665 0 0 -1 0 0 0 -1 forward_v I I I I #
coedge $-1 $341 $254 $257 $342 forward $161 $-1 #
coedge $-1 $260 $163 $164 $248 reversed $101 $-1 #
coedge $-1 $254 $341 $163 $246 reversed $161 $-1 #
edge $-1 $261 -12.299505601632138 $343 12.299505601632138 $245 $344 forward 7 unknown #
coedge $-1 $165 $164 $341 $345 forward $65 $-1 #
edge $-1 $252 -44.111453596606339 $343 44.111453596606339 $244 $346 forward 7 unknown #
coedge $-1 $257 $256 $165 $250 reversed $241 $-1 #
edge $-1 $347 -44.111453596606339 $251 44.111453596606339 $249 $348 forward 7 unknown #
vertex $-1 $167 $349 #
vertex $-1 $263 $350 #
straight-curve $-1 44.111453596606339 0 -12.299505601632138 0 -1 0 I I #
coedge $-1 $243 $245 $168 $255 reversed $161 $-1 #
edge $-1 $258 -27.977057058768665 $261 27.977057058768665 $254 $351 forward 7 unknown #
coedge $-1 $249 $169 $174 $264 forward $241 $-1 #
coedge $-1 $169 $249 $243 $342 reversed $241 $-1 #
vertex $-1 $170 $352 #
straight-curve $-1 0 27.977057058768665 12.299505601632138 -1 0 0 I I #
coedge $-1 $171 $244 $173 $263 reversed $101 $-1 #
vertex $-1 $255 $353 #
straight-curve $-1 0 -27.977057058768665 12.299505601632138 1 0 0 I I #
edge $-1 $176 -12.299505601632138 $252 12.299505601632138 $173 $354 forward 7 unknown #
edge $-1 $177 -12.299505601632138 $251 12.299505601632138 $174 $355 forward 7 unknown #
point $-1 44.111453596606339 -27.977057058768665 12.299505601632138 #
point $-1 44.111453596606339 27.977057058768665 12.299505601632138 #
face $-1 $-1 $281 $25 $-1 $356 reversed single #
loop $-1 $-1 $277 $179 #
plane-surface $-1 0 0 12.299505601632138 0 0 1 1 0 0 forward_v I I I I #
coedge $-1 $357 $358 $271 $359 forward $180 $-1 #
coedge $-1 $183 $182 $270 $359 reversed $69 $-1 #
edge $-1 $360 -5.7168321248131875 $191 5.7168321248131875 $182 $361 forward 7 unknown #
coedge $-1 $362 $277 $183 $274 forward $268 $-1 #
edge $-1 $275 44.111453596606339 $363 55.545117846232714 $183 $364 forward 7 unknown #
vertex $-1 $274 $365 #
straight-curve $-1 -44.111453596606339 27.977057058768665 0 0 0 -1 I I #
coedge $-1 $273 $366 $185 $278 forward $268 $-1 #
edge $-1 $282 -27.977057058768665 $275 27.977057058768665 $277 $367 forward 7 unknown #
coedge $-1 $368 $186 $366 $369 reversed $281 $-1 #
coedge $-1 $186 $368 $188 $285 reversed $281 $-1 #
loop $-1 $-1 $186 $267 #
vertex $-1 $187 $370 #
straight-curve $-1 -44.111453596606339 -27.977057058768665 0 0 0 1 I I #
coedge $-1 $189 $188 $357 $371 forward $109 $-1 #
edge $-1 $190 -5.7168321248131875 $372 5.7168321248131875 $280 $373 forward 7 unknown #
point $-1 -44.111453596606339 -27.977057058768665 8.8615597474084122 #
point $-1 -44.111453596606339 27.977057058768665 8.8615597474084122 #
loop $-1 $-1 $201 $193 #
plane-surface $-1 44.111453596606339 0 0 -1 0 0 0 0 1 forward_v I I I I #
coedge $-1 $291 $196 $198 $295 reversed $117 $-1 #
coedge $-1 $196 $290 $374 $375 reversed $117 $-1 #
coedge $-1 $204 $199 $196 $293 forward $194 $-1 #
edge $-1 $296 29.493612066285934 $376 33.958966860081489 $292 $377 forward 7 unknown #
coedge $-1 $198 $197 $299 $378 reversed $73 $-1 #
edge $-1 $379 -88.222907193212691 $296 -82.836716062650027 $290 $380 forward 7 unknown #
vertex $-1 $200 $381 #
straight-curve $-1 39.646098802810769 -9.3271429300311972 12.299505601632134 0 -1 0 I I #
coedge $-1 $374 $201 $204 $303 reversed $288 $-1 #
coedge $-1 $201 $374 $294 $378 forward $288 $-1 #
vertex $-1 $202 $382 #
straight-curve $-1 44.111453596606339 -14.640451945164944 65.88065718172426 0 0 1 I I #
straight-curve $-1 -29.02865079412652 -14.640451945164944 58.621209972715675 0.82903756765294845 0 -0.55919291073839883 I I #
edge $-1 $376 -22.668119774959845 $205 -14.640451945164944 $298 $383 forward 7 unknown #
point $-1 44.111453596606339 -14.640451945164944 12.299505601632138 #
point $-1 39.646098802810783 -14.640451945164944 12.299505601632127 #
edge $-1 $384 1 $384 0 $208 $-1 forward 7 unknown #
vertex $-1 $209 $385 #
ellipse-curve $-1 41.175983669004715 -20.374500395018444 9.7516128983045753 0.55919291073839883 0 0.82903756765294845 0.41451878382647422 0 -0.27959645536919941 1 I I #
point $-1 42.293294983535048 -20.374500395018444 10.513949198216601 #
edge $-1 $386 1 $386 0 $212 $-1 forward 7 unknown #
vertex $-1 $213 $387 #
ellipse-curve $-1 41.175983669004715 -16.934071325106345 9.7516128983045753 0.55919291073839883 0 0.82903756765294845 0.41451878382647422 0 -0.27959645536919941 1 I I #
point $-1 42.293294983535048 -16.934071325106345 10.513949198216601 #
plane-surface $-1 0 0 12.299505601632138 0 0 1 1 0 0 forward_v I I I I #
coedge $-1 $325 $324 $317 $388 forward $217 $-1 #
coedge $-1 $317 $219 $221 $321 reversed $139 $-1 #
coedge $-1 $219 $316 $315 $388 reversed $139 $-1 #
coedge $-1 $227 $222 $219 $319 forward $228 $-1 #
edge $-1 $322 29.493612066285934 $389 33.958966860081489 $318 $390 forward 7 unknown #
coedge $-1 $221 $220 $325 $391 reversed $87 $-1 #
edge $-1 $392 -88.222907193212691 $322 -82.836716062650027 $316 $393 forward 7 unknown #
vertex $-1 $223 $394 #
straight-curve $-1 39.646098802810769 9.3271429300312008 12.299505601632134 0 -1 0 I I #
coedge $-1 $315 $224 $227 $329 reversed $217 $-1 #
coedge $-1 $224 $315 $320 $391 forward $217 $-1 #
vertex $-1 $225 $395 #
straight-curve $-1 44.111453596606339 22.668119774959852 65.88065718172426 0 0 1 I I #
straight-curve $-1 -29.02865079412652 22.668119774959852 58.621209972715675 0.82903756765294845 0 -0.55919291073839883 I I #
edge $-1 $389 14.640451945164951 $229 22.668119774959852 $324 $396 forward 7 unknown #
point $-1 44.111453596606339 22.668119774959852 12.299505601632138 #
point $-1 39.646098802810783 22.668119774959852 12.299505601632127 #
edge $-1 $397 1 $397 0 $232 $-1 forward 7 unknown #
vertex $-1 $233 $398 #
ellipse-curve $-1 41.175983669004715 16.934071325106352 9.7516128983045753 0.55919291073839883 0 0.82903756765294845 0.41451878382647422 0 -0.27959645536919941 1 I I #
point $-1 42.293294983535048 16.934071325106352 10.513949198216601 #
edge $-1 $399 1 $399 0 $236 $-1 forward 7 unknown #
vertex $-1 $237 $400 #
ellipse-curve $-1 41.175983669004715 20.374500395018451 9.7516128983045753 0.55919291073839883 0 0.82903756765294845 0.41451878382647422 0 -0.27959645536919941 1 I I #
point $-1 42.293294983535048 20.374500395018451 10.513949198216601 #
plane-surface $-1 44.111453596606339 0 0 -1 0 0 0 0 1 forward_v I I I I #
coedge $-1 $245 $243 $247 $345 reversed $161 $-1 #
edge $-1 $258 -12.299505601632138 $347 12.299505601632138 $257 $401 forward 7 unknown #
vertex $-1 $345 $402 #
straight-curve $-1 -44.111453596606339 -27.977057058768665 0 0 0 -1 I I #
edge $-1 $343 -27.977057058768665 $347 27.977057058768665 $341 $403 forward 7 unknown #
straight-curve $-1 0 -27.977057058768665 -12.299505601632138 -1 0 0 I I #
vertex $-1 $250 $404 #
straight-curve $-1 0 27.977057058768665 -12.299505601632138 1 0 0 I I #
point $-1 44.111453596606339 27.977057058768665 -12.299505601632138 #
point $-1 44.111453596606339 -27.977057058768665 -12.299505601632138 #
straight-curve $-1 -44.111453596606339 0 12.299505601632138 0 -1 0 I I #
point $-1 -44.111453596606339 27.977057058768665 12.299505601632138 #
point $-1 -44.111453596606339 -27.977057058768665 12.299505601632138 #
straight-curve $-1 44.111453596606339 -27.977057058768665 0 0 0 -1 I I #
straight-curve $-1 44.111453596606339 27.977057058768665 0 0 0 -1 I I #
plane-surface $-1 0 -27.977057058768665 0 0 1 0 0 0 1 forward_v I I I I #
coedge $-1 $405 $270 $284 $371 reversed $180 $-1 #
coedge $-1 $270 $405 $362 $406 reversed $180 $-1 #
edge $-1 $363 -1.7189729271118619 $360 1.7189729271118619 $271 $407 forward 7 unknown #
vertex $-1 $272 $408 #
straight-curve $-1 -49.828285721419526 27.977057058768665 8.8615597474084122 1 0 0 I I #
coedge $-1 $366 $273 $358 $406 forward $268 $-1 #
vertex $-1 $274 $409 #
straight-curve $-1 0 27.977057058768665 12.299505601632138 -1 0 0 I I #
point $-1 -44.111453596606339 27.977057058768665 12.299505601632138 #
coedge $-1 $277 $362 $279 $369 forward $268 $-1 #
straight-curve $-1 -44.111453596606339 0 12.299505601632138 0 1 0 I I #
coedge $-1 $280 $279 $405 $410 forward $281 $-1 #
edge $-1 $411 -55.545117846232714 $282 -44.111453596606339 $279 $412 forward 7 unknown #
point $-1 -44.111453596606339 -27.977057058768665 12.299505601632138 #
edge $-1 $372 -27.977057058768665 $360 27.977057058768665 $357 $413 forward 7 unknown #
vertex $-1 $371 $414 #
straight-curve $-1 -49.828285721419526 -27.977057058768665 8.8615597474084122 -1 0 0 I I #
coedge $-1 $299 $298 $291 $375 forward $288 $-1 #
edge $-1 $376 53.581151580092126 $379 56.593071476184811 $374 $415 forward 7 unknown #
vertex $-1 $303 $416 #
straight-curve $-1 10.15248673652485 -22.668119774959845 12.299505601632134 1 0 0 I I #
edge $-1 $379 -13.340976844928647 $300 -5.313309015133747 $299 $417 forward 7 unknown #
vertex $-1 $378 $418 #
straight-curve $-1 -29.02865079412652 -22.668119774959845 58.621209972715675 -0.82903756765294845 0 0.55919291073839883 I I #
point $-1 39.646098802810783 -22.668119774959845 12.299505601632127 #
point $-1 44.111453596606339 -14.640451945164944 9.2875857055394491 #
straight-curve $-1 44.111453596606339 0 12.299505601632138 0 1 0 I I #
vertex $-1 $306 $419 #
point $-1 41.590502452831188 -20.374500395018444 9.4720164429353773 #
vertex $-1 $310 $420 #
point $-1 41.590502452831188 -16.934071325106345 9.4720164429353773 #
edge $-1 $389 53.581151580092126 $392 56.593071476184811 $315 $421 forward 7 unknown #
vertex $-1 $329 $422 #
straight-curve $-1 10.15248673652485 14.640451945164951 12.299505601632134 1 0 0 I I #
edge $-1 $392 5.3133090151337505 $326 13.340976844928651 $325 $423 forward 7 unknown #
vertex $-1 $391 $424 #
straight-curve $-1 -29.02865079412652 14.640451945164951 58.621209972715675 -0.82903756765294845 0 0.55919291073839883 I I #
point $-1 39.646098802810783 14.640451945164951 12.299505601632127 #
point $-1 44.111453596606339 22.668119774959852 9.2875857055394491 #
straight-curve $-1 44.111453596606339 0 12.299505601632138 0 1 0 I I #
vertex $-1 $332 $425 #
point $-1 41.590502452831188 16.934071325106352 9.4720164429353773 #
vertex $-1 $336 $426 #
point $-1 41.590502452831188 20.374500395018451 9.4720164429353773 #
straight-curve $-1 -44.111453596606339 27.977057058768665 0 0 0 -1 I I #
point $-1 -44.111453596606339 -27.977057058768665 -12.299505601632138 #
straight-curve $-1 -44.111453596606339 0 -12.299505601632138 0 1 0 I I #
point $-1 -44.111453596606339 27.977057058768665 -12.299505601632138 #
coedge $-1 $358 $357 $368 $410 reversed $180 $-1 #
edge $-1 $363 -27.977057058768665 $411 27.977057058768665 $358 $427 forward 7 unknown #
straight-curve $-1 -55.545117846232714 27.977057058768665 10.580532674520274 0 0 -1 I I #
point $-1 -55.545117846232714 27.977057058768665 8.8615597474084122 #
point $-1 -55.545117846232714 27.977057058768665 12.299505601632136 #
edge $-1 $411 -1.7189729271118619 $372 1.7189729271118619 $405 $428 forward 7 unknown #
vertex $-1 $406 $429 #
straight-curve $-1 0 -27.977057058768665 12.299505601632138 1 0 0 I I #
straight-curve $-1 -55.545117846232714 0 8.8615597474084122 0 1 0 I I #
point $-1 -55.545117846232714 -27.977057058768665 8.8615597474084122 #
straight-curve $-1 44.111453596606339 -22.668119774959845 65.88065718172426 0 0 -1 I I #
point $-1 44.111453596606339 -22.668119774959845 12.299505601632138 #
straight-curve $-1 44.111453596606339 -9.3271429300311972 9.287585705539442 0 1 0 I I #
point $-1 44.111453596606339 -22.668119774959845 9.2875857055394491 #
point $-1 40.896387213635514 -20.374500395018444 9.3370941144781021 #
point $-1 40.896387213635514 -16.934071325106345 9.3370941144781021 #
straight-curve $-1 44.111453596606339 14.640451945164951 65.88065718172426 0 0 -1 I I #
point $-1 44.111453596606339 14.640451945164951 12.299505601632138 #
straight-curve $-1 44.111453596606339 9.3271429300312008 9.287585705539442 0 1 0 I I #
point $-1 44.111453596606339 14.640451945164951 9.2875857055394491 #
point $-1 40.896387213635514 16.934071325106352 9.3370941144781021 #
point $-1 40.896387213635514 20.374500395018451 9.3370941144781021 #
straight-curve $-1 -55.545117846232714 0 12.299505601632136 0 -1 0 I I #
straight-curve $-1 -55.545117846232714 -27.977057058768665 10.580532674520274 0 0 -1 I I #
point $-1 -55.545117846232714 -27.977057058768665 12.299505601632136 #
End-of-ACIS-data 