500 0 6 0           
7 Unknown 11 ACIS 5.0 NT 24 Fri Mar 26 18:11:25 1999 
-1 9.9999999999999995e-007 1e-010 
body $-1 $6 $-1 $7 #
body $-1 $8 $-1 $9 #
body $-1 $10 $-1 $11 #
body $-1 $12 $-1 $13 #
body $-1 $14 $-1 $15 #
body $-1 $16 $-1 $17 #
lump $-1 $-1 $18 $0 #
transform $-1 1 0 0 0 1 0 0 0 1 60.429090243232523 27.072387342252281 13.412262334679783 1 rotate no_reflect no_shear #
lump $-1 $-1 $19 $1 #
transform $-1 1 0 0 0 1 0 0 0 1 60.429090243232523 27.072387342252281 13.412262334679783 1 rotate no_reflect no_shear #
lump $-1 $-1 $20 $2 #
transform $-1 1 0 0 0 1 0 0 0 1 60.429090243232523 27.072387342252281 13.412262334679783 1 rotate no_reflect no_shear #
lump $-1 $-1 $21 $3 #
transform $-1 1 0 0 0 1 0 0 0 1 60.429090243232523 27.072387342252281 13.412262334679783 1 rotate no_reflect no_shear #
lump $-1 $-1 $22 $4 #
transform $-1 1 0 0 0 1 0 0 0 1 60.429090243232523 27.072387342252281 13.412262334679783 1 rotate no_reflect no_shear #
lump $-1 $-1 $23 $5 #
transform $-1 1 0 0 0 1 0 0 0 1 60.429090243232523 27.072387342252281 13.412262334679783 1 rotate no_reflect no_shear #
shell $-1 $-1 $-1 $24 $-1 $6 #
shell $-1 $-1 $-1 $25 $-1 $8 #
shell $-1 $-1 $-1 $26 $-1 $10 #
shell $-1 $-1 $-1 $27 $-1 $12 #
shell $-1 $-1 $-1 $28 $-1 $14 #
shell $-1 $-1 $-1 $29 $-1 $16 #
face $-1 $30 $31 $18 $-1 $32 forward single #
face $-1 $33 $34 $19 $-1 $35 reversed single #
face $-1 $36 $37 $20 $-1 $38 reversed single #
face $-1 $39 $40 $21 $-1 $41 forward single #
face $-1 $42 $43 $22 $-1 $44 forward single #
face $-1 $45 $46 $23 $-1 $47 forward single #
face $-1 $48 $49 $18 $-1 $50 reversed single #
loop $-1 $-1 $51 $24 #
plane-surface $-1 0 0 13.412262334679783 0 0 1 1 0 0 forward_v I I I I #
face $-1 $52 $53 $19 $-1 $54 reversed single #
loop $-1 $-1 $55 $25 #
plane-surface $-1 -52.41663165789921 0 5.9114320089555168 0 0 1 1 0 0 forward_v I I I I #
face $-1 $56 $57 $20 $-1 $58 reversed single #
loop $-1 $-1 $59 $26 #
plane-surface $-1 38.519328516379247 -122.30993422454243 74.416939661659626 -1 0 0 0 -0.78801076186113728 0.61566146476048833 forward_v I I I I #
face $-1 $60 $61 $21 $-1 $62 forward single #
loop $-1 $63 $64 $27 #
cone-surface $-1 16.283811684054072 -19.899425410214608 5.1972650847353465 0 0.78801076186113728 -0.61566146476048833 1.5 0 0 1 I I 0 1 1.5 forward I I I I #
face $-1 $65 $66 $22 $-1 $67 forward single #
loop $-1 $68 $69 $28 #
cone-surface $-1 24.622130496176013 -19.899425410214608 5.1972650847353465 0 0.78801076186113728 -0.61566146476048833 1.5 0 0 1 I I 0 1 1.5 forward I I I I #
face $-1 $70 $71 $23 $-1 $72 forward single #
loop $-1 $73 $74 $29 #
cone-surface $-1 32.960449308297953 -19.899425410214608 5.1972650847353465 0 0.78801076186113728 -0.61566146476048833 1.5 0 0 1 I I 0 1 1.5 forward I I I I #
face $-1 $75 $76 $18 $-1 $77 reversed single #
loop $-1 $-1 $78 $30 #
plane-surface $-1 0 0 -13.412262334679783 0 0 1 1 0 0 forward_v I I I I #
coedge $-1 $79 $80 $81 $82 forward $31 $-1 #
face $-1 $83 $84 $19 $-1 $85 reversed single #
loop $-1 $-1 $86 $33 #
plane-surface $-1 -44.404173072565897 0 9.6618471718176497 -1 0 0 0 0 1 forward_v I I I I #
coedge $-1 $87 $88 $89 $90 forward $34 $-1 #
face $-1 $91 $92 $20 $-1 $93 reversed single #
loop $-1 $-1 $94 $36 #
plane-surface $-1 24.622130496176013 -27.07238734225227 0.0092152350750893675 0 -0.78801076186113728 0.61566146476048833 1 0 0 forward_v I I I I #
coedge $-1 $95 $96 $97 $98 reversed $37 $-1 #
face $-1 $-1 $99 $21 $-1 $100 forward single #
loop $-1 $101 $102 $39 #
cone-surface $-1 16.283811684054072 -17.3712592872429 3.2220452860228885 0 0.78801076186113728 -0.61566146476048833 0.75 0 0 1 I I -0.70710678118654757 0.70710678118654757 0.75 forward I I I I #
loop $-1 $-1 $103 $27 #
coedge $-1 $64 $64 $104 $105 reversed $40 $-1 #
face $-1 $-1 $106 $22 $-1 $107 forward single #
loop $-1 $108 $109 $42 #
cone-surface $-1 24.622130496176013 -17.3712592872429 3.2220452860228885 0 0.78801076186113728 -0.61566146476048833 0.75 0 0 1 I I -0.70710678118654757 0.70710678118654757 0.75 forward I I I I #
loop $-1 $-1 $110 $28 #
coedge $-1 $69 $69 $111 $112 reversed $43 $-1 #
face $-1 $-1 $113 $23 $-1 $114 forward single #
loop $-1 $115 $116 $45 #
cone-surface $-1 32.960449308297953 -17.3712592872429 3.2220452860228885 0 0.78801076186113728 -0.61566146476048833 0.75 0 0 1 I I -0.70710678118654757 0.70710678118654757 0.75 forward I I I I #
loop $-1 $-1 $117 $29 #
coedge $-1 $74 $74 $118 $119 reversed $46 $-1 #
face $-1 $120 $121 $18 $-1 $122 reversed single #
loop $-1 $-1 $123 $48 #
plane-surface $-1 0 -27.072387342252281 0 0 1 0 0 0 1 forward_v I I I I #
coedge $-1 $124 $125 $126 $127 forward $49 $-1 #
coedge $-1 $128 $51 $129 $130 forward $31 $-1 #
coedge $-1 $51 $128 $131 $132 forward $31 $-1 #
coedge $-1 $133 $134 $51 $82 reversed $135 $-1 #
edge $-1 $136 -27.072387342252281 $137 27.072387342252281 $81 $138 forward 7 unknown #
face $-1 $139 $140 $19 $-1 $141 reversed single #
loop $-1 $-1 $142 $52 #
plane-surface $-1 0 27.072387342252281 0 0 -1 0 0 0 -1 forward_v I I I I #
coedge $-1 $89 $143 $144 $145 reversed $53 $-1 #
coedge $-1 $146 $55 $147 $148 reversed $34 $-1 #
coedge $-1 $55 $146 $149 $150 reversed $34 $-1 #
coedge $-1 $151 $86 $55 $90 reversed $53 $-1 #
edge $-1 $152 -27.072387342252281 $153 27.072387342252281 $89 $154 forward 7 unknown #
face $-1 $155 $156 $20 $-1 $157 reversed single #
loop $-1 $-1 $158 $56 #
plane-surface $-1 10.724932475972778 -122.30993422454243 74.416939661659626 1 0 0 0 0.78801076186113728 -0.61566146476048833 forward_v I I I I #
coedge $-1 $159 $160 $161 $162 reversed $57 $-1 #
coedge $-1 $96 $59 $163 $164 reversed $37 $-1 #
coedge $-1 $59 $95 $159 $165 reversed $37 $-1 #
coedge $-1 $161 $166 $59 $98 forward $167 $-1 #
edge $-1 $168 34.082579770018938 $169 44.554187530942592 $97 $170 forward 7 unknown #
loop $-1 $-1 $104 $60 #
plane-surface $-1 24.622130496176013 -27.07238734225227 0.0092152350750893675 0 -0.78801076186113728 0.61566146476048833 1 0 0 forward_v I I I I #
loop $-1 $-1 $171 $39 #
coedge $-1 $102 $102 $103 $172 reversed $61 $-1 #
coedge $-1 $103 $103 $102 $172 forward $63 $-1 #
coedge $-1 $104 $104 $64 $105 forward $99 $-1 #
edge $-1 $173 2.9142320644689852e-016 $173 6.2831853071796004 $104 $174 forward 7 unknown #
loop $-1 $-1 $111 $65 #
plane-surface $-1 24.622130496176013 -27.07238734225227 0.0092152350750893675 0 -0.78801076186113728 0.61566146476048833 1 0 0 forward_v I I I I #
loop $-1 $-1 $175 $42 #
coedge $-1 $109 $109 $110 $176 reversed $66 $-1 #
coedge $-1 $110 $110 $109 $176 forward $68 $-1 #
coedge $-1 $111 $111 $69 $112 forward $106 $-1 #
edge $-1 $177 2.9142320644689852e-016 $177 6.2831853071796004 $111 $178 forward 7 unknown #
loop $-1 $-1 $118 $70 #
plane-surface $-1 24.622130496176013 -27.07238734225227 0.0092152350750893675 0 -0.78801076186113728 0.61566146476048833 1 0 0 forward_v I I I I #
loop $-1 $-1 $179 $45 #
coedge $-1 $116 $116 $117 $180 reversed $71 $-1 #
coedge $-1 $117 $117 $116 $180 forward $73 $-1 #
coedge $-1 $118 $118 $74 $119 forward $113 $-1 #
edge $-1 $181 2.9142320644689852e-016 $181 6.2831853071796004 $118 $182 forward 7 unknown #
face $-1 $183 $184 $18 $-1 $185 reversed single #
loop $-1 $-1 $186 $75 #
plane-surface $-1 -60.429090243232523 0 0 1 0 0 0 0 -1 forward_v I I I I #
coedge $-1 $187 $131 $188 $189 forward $76 $-1 #
coedge $-1 $190 $78 $187 $191 forward $49 $-1 #
coedge $-1 $78 $190 $192 $193 forward $49 $-1 #
coedge $-1 $134 $133 $78 $127 reversed $135 $-1 #
edge $-1 $194 -27.072387342252281 $195 27.072387342252281 $126 $196 forward 7 unknown #
coedge $-1 $80 $79 $197 $198 forward $31 $-1 #
coedge $-1 $199 $200 $79 $130 reversed $184 $-1 #
edge $-1 $137 -60.429090243232523 $201 60.429090243232523 $129 $202 forward 7 unknown #
coedge $-1 $123 $203 $80 $132 reversed $76 $-1 #
edge $-1 $204 -60.429090243232523 $136 60.429090243232523 $131 $205 forward 7 unknown #
coedge $-1 $126 $81 $203 $206 forward $135 $-1 #
coedge $-1 $81 $126 $199 $207 reversed $135 $-1 #
loop $-1 $-1 $133 $183 #
vertex $-1 $82 $208 #
vertex $-1 $82 $209 #
straight-curve $-1 60.429090243232523 0 13.412262334679783 0 1 0 I I #
face $-1 $210 $211 $19 $-1 $212 forward single #
loop $-1 $-1 $213 $83 #
plane-surface $-1 -60.429090243232523 0 0 1 0 0 0 0 -1 forward_v I I I I #
coedge $-1 $149 $214 $151 $215 forward $84 $-1 #
coedge $-1 $86 $151 $216 $217 reversed $53 $-1 #
coedge $-1 $218 $147 $86 $145 forward $219 $-1 #
edge $-1 $153 1.0805084230466919 $220 8.5813387487709569 $144 $221 forward 7 unknown #
coedge $-1 $88 $87 $213 $222 reversed $34 $-1 #
coedge $-1 $144 $223 $87 $148 forward $219 $-1 #
edge $-1 $224 -34.220774414282914 $153 -18.195857243616292 $147 $225 forward 7 unknown #
coedge $-1 $226 $142 $88 $150 forward $84 $-1 #
edge $-1 $152 18.195857243616292 $227 34.220774414282914 $149 $228 forward 7 unknown #
coedge $-1 $143 $89 $142 $215 reversed $53 $-1 #
vertex $-1 $150 $229 #
vertex $-1 $148 $230 #
straight-curve $-1 -44.404173072565897 0 5.9114320089555168 0 -1 0 I I #
face $-1 $-1 $167 $20 $-1 $231 forward single #
loop $-1 $-1 $232 $91 #
plane-surface $-1 0 -27.072387342252281 0 0 1 0 0 0 1 forward_v I I I I #
coedge $-1 $233 $234 $235 $236 reversed $92 $-1 #
coedge $-1 $237 $94 $96 $165 forward $57 $-1 #
coedge $-1 $94 $237 $233 $238 forward $57 $-1 #
coedge $-1 $235 $97 $94 $162 forward $167 $-1 #
edge $-1 $169 -26.20826326829124 $239 1.5861327721152279 $161 $240 forward 7 unknown #
coedge $-1 $241 $242 $95 $164 forward $156 $-1 #
edge $-1 $243 -37.199254595754738 $168 -23.796207496150032 $163 $244 forward 7 unknown #
edge $-1 $169 -17.008710728707751 $243 1.7311743481040377e-014 $96 $245 forward 7 unknown #
coedge $-1 $97 $235 $241 $246 forward $167 $-1 #
loop $-1 $-1 $235 $155 #
vertex $-1 $164 $247 #
vertex $-1 $98 $248 #
straight-curve $-1 38.519328516379247 -61.154967112271216 13.412262334679781 0 1 0 I I #
coedge $-1 $171 $171 $-1 $249 reversed $101 $-1 #
edge $-1 $250 0 $250 6.2831853071796004 $102 $251 forward 7 unknown #
vertex $-1 $105 $252 #
ellipse-curve $-1 16.283811684054072 -21.83658346179045 6.7107387848774298 0 -0.78801076186113728 0.61566146476048833 1.5 0 0 1 I I #
coedge $-1 $175 $175 $-1 $253 reversed $108 $-1 #
edge $-1 $254 0 $254 6.2831853071796004 $109 $255 forward 7 unknown #
vertex $-1 $112 $256 #
ellipse-curve $-1 24.622130496176013 -21.83658346179045 6.7107387848774298 0 -0.78801076186113728 0.61566146476048833 1.5 0 0 1 I I #
coedge $-1 $179 $179 $-1 $257 reversed $115 $-1 #
edge $-1 $258 0 $258 6.2831853071796004 $116 $259 forward 7 unknown #
vertex $-1 $119 $260 #
ellipse-curve $-1 32.960449308297953 -21.83658346179045 6.7107387848774298 0 -0.78801076186113728 0.61566146476048833 1.5 0 0 1 I I #
face $-1 $-1 $135 $18 $-1 $261 reversed single #
loop $-1 $-1 $199 $120 #
plane-surface $-1 0 27.072387342252281 0 0 -1 0 0 0 -1 forward_v I I I I #
coedge $-1 $262 $197 $200 $263 forward $121 $-1 #
coedge $-1 $203 $123 $124 $191 reversed $76 $-1 #
coedge $-1 $197 $262 $123 $189 reversed $121 $-1 #
edge $-1 $204 -13.412262334679783 $264 13.412262334679783 $188 $265 forward 7 unknown #
coedge $-1 $125 $124 $262 $266 forward $49 $-1 #
edge $-1 $195 -60.429090243232523 $264 60.429090243232523 $187 $267 forward 7 unknown #
coedge $-1 $200 $199 $125 $193 reversed $184 $-1 #
edge $-1 $268 -60.429090243232523 $194 60.429090243232523 $192 $269 forward 7 unknown #
vertex $-1 $127 $270 #
vertex $-1 $206 $271 #
straight-curve $-1 60.429090243232523 0 -13.412262334679783 0 -1 0 I I #
coedge $-1 $186 $188 $128 $198 reversed $121 $-1 #
edge $-1 $201 -27.072387342252281 $204 27.072387342252281 $197 $272 forward 7 unknown #
coedge $-1 $192 $129 $134 $207 forward $184 $-1 #
coedge $-1 $129 $192 $186 $263 reversed $184 $-1 #
vertex $-1 $130 $273 #
straight-curve $-1 0 27.072387342252281 13.412262334679783 -1 0 0 I I #
coedge $-1 $131 $187 $133 $206 reversed $76 $-1 #
vertex $-1 $198 $274 #
straight-curve $-1 0 -27.072387342252281 13.412262334679783 1 0 0 I I #
edge $-1 $136 -13.412262334679783 $195 13.412262334679783 $133 $275 forward 7 unknown #
edge $-1 $137 -13.412262334679783 $194 13.412262334679783 $134 $276 forward 7 unknown #
point $-1 60.429090243232523 -27.072387342252281 13.412262334679783 #
point $-1 60.429090243232523 27.072387342252281 13.412262334679783 #
face $-1 $-1 $219 $19 $-1 $277 reversed single #
loop $-1 $-1 $216 $139 #
plane-surface $-1 0 0 13.412262334679783 0 0 1 1 0 0 forward_v I I I I #
coedge $-1 $278 $279 $146 $222 forward $140 $-1 #
coedge $-1 $142 $226 $280 $281 reversed $84 $-1 #
edge $-1 $282 -8.5813387487709569 $152 -1.0805084230466919 $142 $283 forward 7 unknown #
coedge $-1 $280 $284 $143 $217 forward $211 $-1 #
edge $-1 $220 -27.072387342252281 $282 27.072387342252281 $216 $285 forward 7 unknown #
coedge $-1 $223 $144 $284 $286 reversed $219 $-1 #
loop $-1 $-1 $144 $210 #
vertex $-1 $145 $287 #
straight-curve $-1 -44.404173072565897 -27.072387342252281 4.8309235859088249 0 0 1 I I #
edge $-1 $227 -27.072387342252281 $224 27.072387342252281 $213 $288 forward 7 unknown #
coedge $-1 $147 $218 $278 $289 forward $219 $-1 #
vertex $-1 $222 $290 #
straight-curve $-1 -26.208315828949605 -27.072387342252281 5.9114320089555168 1 0 0 I I #
coedge $-1 $214 $149 $279 $291 reversed $84 $-1 #
vertex $-1 $222 $292 #
straight-curve $-1 -26.208315828949605 27.072387342252281 5.9114320089555168 -1 0 0 I I #
point $-1 -44.404173072565897 27.072387342252281 5.9114320089555168 #
point $-1 -44.404173072565897 -27.072387342252281 5.9114320089555168 #
plane-surface $-1 0 0 13.412262334679783 0 0 1 1 0 0 forward_v I I I I #
coedge $-1 $242 $241 $234 $293 forward $156 $-1 #
coedge $-1 $234 $158 $160 $238 reversed $92 $-1 #
coedge $-1 $158 $233 $232 $293 reversed $92 $-1 #
coedge $-1 $166 $161 $158 $236 forward $167 $-1 #
edge $-1 $239 -44.554187530942592 $294 -34.082579770018938 $235 $295 forward 7 unknown #
coedge $-1 $160 $159 $242 $296 reversed $57 $-1 #
edge $-1 $297 -1.7311743481040377e-014 $239 17.008710728707751 $233 $298 forward 7 unknown #
vertex $-1 $162 $299 #
straight-curve $-1 12.311065248088006 -16.600779581328627 13.412262334679783 -1 0 0 I I #
coedge $-1 $232 $163 $166 $246 reversed $156 $-1 #
coedge $-1 $163 $232 $237 $296 forward $156 $-1 #
vertex $-1 $164 $300 #
straight-curve $-1 38.519328516379247 -27.072387342252284 37.208469830829813 0 0 1 I I #
straight-curve $-1 38.519328516379247 -27.07238734225227 0.0092152350750893675 0 -0.61566146476048833 -0.78801076186113728 I I #
edge $-1 $294 10.724932475972778 $168 38.519328516379247 $241 $301 forward 7 unknown #
point $-1 38.519328516379247 -27.072387342252281 13.412262334679783 #
point $-1 38.519328516379247 -16.600779581328624 13.412262334679783 #
edge $-1 $302 1 $302 0 $171 $-1 forward 7 unknown #
vertex $-1 $172 $303 #
ellipse-curve $-1 16.283811684054072 -17.962267358638751 3.6837913845932548 0 -0.78801076186113728 0.61566146476048833 1.5 0 0 1 I I #
point $-1 17.783811684054072 -21.836583461790461 6.7107387848774387 #
edge $-1 $304 1 $304 0 $175 $-1 forward 7 unknown #
vertex $-1 $176 $305 #
ellipse-curve $-1 24.622130496176013 -17.962267358638751 3.6837913845932548 0 -0.78801076186113728 0.61566146476048833 1.5 0 0 1 I I #
point $-1 26.122130496176013 -21.836583461790461 6.7107387848774387 #
edge $-1 $306 1 $306 0 $179 $-1 forward 7 unknown #
vertex $-1 $180 $307 #
ellipse-curve $-1 32.960449308297953 -17.962267358638751 3.6837913845932548 0 -0.78801076186113728 0.61566146476048833 1.5 0 0 1 I I #
point $-1 34.460449308297953 -21.836583461790461 6.7107387848774387 #
plane-surface $-1 60.429090243232523 0 0 -1 0 0 0 0 1 forward_v I I I I #
coedge $-1 $188 $186 $190 $266 reversed $121 $-1 #
edge $-1 $201 -13.412262334679783 $268 13.412262334679783 $200 $308 forward 7 unknown #
vertex $-1 $266 $309 #
straight-curve $-1 -60.429090243232523 -27.072387342252281 0 0 0 -1 I I #
edge $-1 $264 -27.072387342252281 $268 27.072387342252281 $262 $310 forward 7 unknown #
straight-curve $-1 0 -27.072387342252281 -13.412262334679783 -1 0 0 I I #
vertex $-1 $193 $311 #
straight-curve $-1 0 27.072387342252281 -13.412262334679783 1 0 0 I I #
point $-1 60.429090243232523 27.072387342252281 -13.412262334679783 #
point $-1 60.429090243232523 -27.072387342252281 -13.412262334679783 #
straight-curve $-1 -60.429090243232523 0 13.412262334679783 0 -1 0 I I #
point $-1 -60.429090243232523 27.072387342252281 13.412262334679783 #
point $-1 -60.429090243232523 -27.072387342252281 13.412262334679783 #
straight-curve $-1 60.429090243232523 -27.072387342252281 0 0 0 -1 I I #
straight-curve $-1 60.429090243232523 27.072387342252281 0 0 0 -1 I I #
plane-surface $-1 0 -27.072387342252281 0 0 1 0 0 0 1 forward_v I I I I #
coedge $-1 $312 $213 $223 $289 reversed $140 $-1 #
coedge $-1 $213 $312 $226 $291 forward $140 $-1 #
coedge $-1 $313 $216 $214 $281 forward $211 $-1 #
edge $-1 $282 44.404173072565897 $314 60.429090243232523 $214 $315 forward 7 unknown #
vertex $-1 $281 $316 #
straight-curve $-1 -44.404173072565897 27.072387342252281 4.8309235859088249 0 0 -1 I I #
coedge $-1 $216 $313 $218 $286 forward $211 $-1 #
straight-curve $-1 -44.404173072565897 0 13.412262334679783 0 1 0 I I #
edge $-1 $317 -60.429090243232523 $220 -44.404173072565897 $218 $318 forward 7 unknown #
point $-1 -44.404173072565897 -27.072387342252281 13.412262334679783 #
straight-curve $-1 -60.429090243232523 0 5.9114320089555168 0 -1 0 I I #
edge $-1 $317 -13.412262334679783 $224 -5.9114320089555168 $278 $319 forward 7 unknown #
point $-1 -60.429090243232523 -27.072387342252281 5.9114320089555168 #
edge $-1 $314 -13.412262334679783 $227 -5.9114320089555168 $226 $320 forward 7 unknown #
point $-1 -60.429090243232523 27.072387342252281 5.9114320089555168 #
edge $-1 $294 23.796207496150032 $297 37.199254595754738 $232 $321 forward 7 unknown #
vertex $-1 $246 $322 #
straight-curve $-1 10.724932475972778 -61.154967112271216 13.412262334679781 0 -1 0 I I #
edge $-1 $297 -1.5861327721152279 $243 26.20826326829124 $242 $323 forward 7 unknown #
vertex $-1 $296 $324 #
straight-curve $-1 10.724932475972778 -27.07238734225227 0.0092152350750893675 0 0.61566146476048833 0.78801076186113728 I I #
point $-1 10.724932475972778 -16.600779581328624 13.412262334679783 #
point $-1 38.519328516379247 -27.072387342252281 0.0092152350750757256 #
straight-curve $-1 0 -27.072387342252281 13.412262334679783 1 0 0 I I #
vertex $-1 $249 $325 #
point $-1 17.783811684054072 -17.962267358638751 3.6837913845932548 #
vertex $-1 $253 $326 #
point $-1 26.122130496176013 -17.962267358638751 3.6837913845932548 #
vertex $-1 $257 $327 #
point $-1 34.460449308297953 -17.962267358638751 3.6837913845932548 #
straight-curve $-1 -60.429090243232523 27.072387342252281 0 0 0 -1 I I #
point $-1 -60.429090243232523 -27.072387342252281 -13.412262334679783 #
straight-curve $-1 -60.429090243232523 0 -13.412262334679783 0 1 0 I I #
point $-1 -60.429090243232523 27.072387342252281 -13.412262334679783 #
coedge $-1 $279 $278 $313 $328 reversed $140 $-1 #
coedge $-1 $284 $280 $312 $328 forward $211 $-1 #
vertex $-1 $281 $329 #
straight-curve $-1 0 27.072387342252281 13.412262334679783 -1 0 0 I I #
point $-1 -44.404173072565897 27.072387342252281 13.412262334679783 #
vertex $-1 $328 $330 #
straight-curve $-1 0 -27.072387342252281 13.412262334679783 1 0 0 I I #
straight-curve $-1 -60.429090243232523 -27.072387342252281 0 0 0 -1 I I #
straight-curve $-1 -60.429090243232523 27.072387342252281 0 0 0 -1 I I #
straight-curve $-1 10.724932475972778 -27.072387342252284 37.208469830829813 0 0 -1 I I #
point $-1 10.724932475972778 -27.072387342252281 13.412262334679783 #
straight-curve $-1 12.311065248088006 -27.072387342252281 0.0092152350750788047 1 0 0 I I #
point $-1 10.724932475972778 -27.072387342252281 0.0092152350750757256 #
point $-1 16.283811684054072 -16.780251215847048 2.7602991874525222 #
point $-1 24.622130496176013 -16.780251215847048 2.7602991874525222 #
point $-1 32.960449308297953 -16.780251215847048 2.7602991874525222 #
edge $-1 $314 -27.072387342252281 $317 27.072387342252281 $312 $331 forward 7 unknown #
point $-1 -60.429090243232523 27.072387342252281 13.412262334679783 #
point $-1 -60.429090243232523 -27.072387342252281 13.412262334679783 #
straight-curve $-1 -60.429090243232523 0 13.412262334679783 0 -1 0 I I #
End-of-ACIS-data 