500 0 11 0           
7 Unknown 11 ACIS 5.0 NT 24 Fri Mar 26 17:48:17 1999 
-1 9.9999999999999995e-007 1e-010 
body $-1 $11 $-1 $12 #
body $-1 $13 $-1 $14 #
body $-1 $15 $-1 $16 #
body $-1 $17 $-1 $18 #
body $-1 $19 $-1 $20 #
body $-1 $21 $-1 $22 #
body $-1 $23 $-1 $24 #
body $-1 $25 $-1 $26 #
body $-1 $27 $-1 $28 #
body $-1 $29 $-1 $30 #
body $-1 $31 $-1 $32 #
lump $-1 $-1 $33 $0 #
transform $-1 1 0 0 0 1 0 0 0 1 78.232367931150236 38.256432517715773 15.613019047506873 1 rotate no_reflect no_shear #
lump $-1 $-1 $34 $1 #
transform $-1 1 0 0 0 1 0 0 0 1 78.232367931150236 38.256432517715773 15.613019047506873 1 rotate no_reflect no_shear #
lump $-1 $-1 $35 $2 #
transform $-1 1 0 0 0 1 0 0 0 1 78.232367931150236 38.256432517715773 15.613019047506873 1 rotate no_reflect no_shear #
lump $-1 $-1 $36 $3 #
transform $-1 1 0 0 0 1 0 0 0 1 78.232367931150236 38.256432517715773 15.613019047506873 1 rotate no_reflect no_shear #
lump $-1 $-1 $37 $4 #
transform $-1 1 0 0 0 1 0 0 0 1 78.232367931150236 38.256432517715773 15.613019047506873 1 rotate no_reflect no_shear #
lump $-1 $-1 $38 $5 #
transform $-1 1 0 0 0 1 0 0 0 1 78.232367931150236 38.256432517715773 15.613019047506873 1 rotate no_reflect no_shear #
lump $-1 $-1 $39 $6 #
transform $-1 1 0 0 0 1 0 0 0 1 78.232367931150236 38.256432517715773 15.613019047506873 1 rotate no_reflect no_shear #
lump $-1 $-1 $40 $7 #
transform $-1 1 0 0 0 1 0 0 0 1 78.232367931150236 38.256432517715773 15.613019047506873 1 rotate no_reflect no_shear #
lump $-1 $-1 $41 $8 #
transform $-1 1 0 0 0 1 0 0 0 1 78.232367931150236 38.256432517715773 15.613019047506873 1 rotate no_reflect no_shear #
lump $-1 $-1 $42 $9 #
transform $-1 1 0 0 0 1 0 0 0 1 78.232367931150236 38.256432517715773 15.613019047506873 1 rotate no_reflect no_shear #
lump $-1 $-1 $43 $10 #
transform $-1 1 0 0 0 1 0 0 0 1 78.232367931150236 38.256432517715773 15.613019047506873 1 rotate no_reflect no_shear #
shell $-1 $-1 $-1 $44 $-1 $11 #
shell $-1 $-1 $-1 $45 $-1 $13 #
shell $-1 $-1 $-1 $46 $-1 $15 #
shell $-1 $-1 $-1 $47 $-1 $17 #
shell $-1 $-1 $-1 $48 $-1 $19 #
shell $-1 $-1 $-1 $49 $-1 $21 #
shell $-1 $-1 $-1 $50 $-1 $23 #
shell $-1 $-1 $-1 $51 $-1 $25 #
shell $-1 $-1 $-1 $52 $-1 $27 #
shell $-1 $-1 $-1 $53 $-1 $29 #
shell $-1 $-1 $-1 $54 $-1 $31 #
face $-1 $55 $56 $33 $-1 $57 forward single #
face $-1 $58 $59 $34 $-1 $60 reversed single #
face $-1 $61 $62 $35 $-1 $63 reversed single #
face $-1 $64 $65 $36 $-1 $66 reversed single #
face $-1 $67 $68 $37 $-1 $69 forward single #
face $-1 $70 $71 $38 $-1 $72 reversed single #
face $-1 $73 $74 $39 $-1 $75 forward single #
face $-1 $76 $77 $40 $-1 $78 reversed single #
face $-1 $79 $80 $41 $-1 $81 forward single #
face $-1 $82 $83 $42 $-1 $84 reversed single #
face $-1 $85 $86 $43 $-1 $87 forward single #
face $-1 $88 $89 $33 $-1 $90 reversed single #
loop $-1 $-1 $91 $44 #
plane-surface $-1 0 0 15.613019047506873 0 0 1 1 0 0 forward_v I I I I #
face $-1 $92 $93 $34 $-1 $94 reversed single #
loop $-1 $-1 $95 $45 #
plane-surface $-1 -70.40085241845631 0 8.1704019352217152 0 0 1 1 0 0 forward_v I I I I #
face $-1 $96 $97 $35 $-1 $98 reversed single #
loop $-1 $-1 $99 $46 #
plane-surface $-1 70.40085241845631 0 8.1704019352217152 0 0 1 1 0 0 forward_v I I I I #
face $-1 $100 $101 $36 $-1 $102 reversed single #
loop $-1 $-1 $103 $47 #
plane-surface $-1 -33.483692507841326 -116.48880149698201 145.02369238765061 -1 0 0 0 -0.50000000669873634 0.8660253999169214 forward_v I I I I #
face $-1 $104 $105 $37 $-1 $106 forward single #
loop $-1 $107 $108 $48 #
cone-surface $-1 -42.035490821158291 -31.893876069084236 10.68450999075405 0 0.50000000669873634 -0.8660253999169214 1.5 0 0 1 I I 0 1 1.5 forward I I I I #
face $-1 $109 $110 $38 $-1 $111 reversed single #
loop $-1 $-1 $112 $49 #
plane-surface $-1 29.085644397921069 -116.48880149698201 145.02369238765061 -1 0 0 0 -0.50000000669873634 0.8660253999169214 forward_v I I I I #
face $-1 $113 $114 $39 $-1 $115 forward single #
loop $-1 $116 $117 $50 #
cone-surface $-1 20.533846084604107 -31.893876069084236 10.68450999075405 0 0.50000000669873634 -0.8660253999169214 1.5 0 0 1 I I 0 1 1.5 forward I I I I #
face $-1 $118 $119 $40 $-1 $120 reversed single #
loop $-1 $-1 $121 $51 #
plane-surface $-1 -50.587289134475256 50.226716955882971 183.28012541790591 1 0 0 0 -0.50000000669873634 -0.8660253999169214 forward_v I I I I #
face $-1 $122 $123 $41 $-1 $124 forward single #
loop $-1 $125 $126 $52 #
cone-surface $-1 -42.035490821158291 31.893876069084236 10.684509990754057 0 -0.50000000669873634 -0.8660253999169214 1.5 0 0 1 I I 0 1 1.5 forward I I I I #
face $-1 $127 $128 $42 $-1 $129 reversed single #
loop $-1 $-1 $130 $53 #
plane-surface $-1 11.982047771287146 50.226716955882971 183.28012541790591 1 0 0 0 -0.50000000669873634 -0.8660253999169214 forward_v I I I I #
face $-1 $131 $132 $43 $-1 $133 forward single #
loop $-1 $134 $135 $54 #
cone-surface $-1 20.533846084604107 31.893876069084236 10.684509990754057 0 -0.50000000669873634 -0.8660253999169214 1.5 0 0 1 I I 0 1 1.5 forward I I I I #
face $-1 $136 $137 $33 $-1 $138 reversed single #
loop $-1 $-1 $139 $55 #
plane-surface $-1 0 0 -15.613019047506873 0 0 1 1 0 0 forward_v I I I I #
coedge $-1 $140 $141 $142 $143 forward $56 $-1 #
face $-1 $144 $145 $34 $-1 $146 reversed single #
loop $-1 $-1 $147 $58 #
plane-surface $-1 -62.569336905762384 0 11.891710491364295 -1 0 0 0 0 1 forward_v I I I I #
coedge $-1 $148 $149 $150 $151 forward $59 $-1 #
face $-1 $152 $153 $35 $-1 $154 forward single #
loop $-1 $-1 $155 $61 #
plane-surface $-1 62.569336905762384 0 11.891710491364295 1 0 0 0 0 -1 forward_v I I I I #
coedge $-1 $156 $157 $158 $159 reversed $62 $-1 #
face $-1 $160 $161 $36 $-1 $162 reversed single #
loop $-1 $-1 $163 $64 #
plane-surface $-1 -42.035490821158291 -38.256432517715751 9.52125693960636 0 -0.50000000669873634 0.8660253999169214 1 0 0 forward_v I I I I #
coedge $-1 $164 $165 $166 $167 reversed $65 $-1 #
face $-1 $-1 $168 $37 $-1 $169 forward single #
loop $-1 $170 $171 $67 #
cone-surface $-1 -42.035490821158291 -30.431940260441927 8.1523629380137752 0 0.50000000669873634 -0.8660253999169214 0.75 0 0 1 I I -0.70710678118654757 0.70710678118654757 0.75 forward I I I I #
loop $-1 $-1 $172 $48 #
coedge $-1 $108 $108 $173 $174 reversed $68 $-1 #
face $-1 $175 $176 $38 $-1 $177 reversed single #
loop $-1 $-1 $178 $70 #
plane-surface $-1 20.533846084604107 -38.256432517715751 9.52125693960636 0 -0.50000000669873634 0.8660253999169214 1 0 0 forward_v I I I I #
coedge $-1 $179 $180 $181 $182 reversed $71 $-1 #
face $-1 $-1 $183 $39 $-1 $184 forward single #
loop $-1 $185 $186 $73 #
cone-surface $-1 20.533846084604107 -30.431940260441927 8.1523629380137752 0 0.50000000669873634 -0.8660253999169214 0.75 0 0 1 I I -0.70710678118654757 0.70710678118654757 0.75 forward I I I I #
loop $-1 $-1 $187 $50 #
coedge $-1 $117 $117 $188 $189 reversed $74 $-1 #
face $-1 $190 $191 $40 $-1 $192 reversed single #
loop $-1 $-1 $193 $76 #
plane-surface $-1 -42.035490821158291 -28.005652023383284 47.777689969861655 0 0.50000000669873634 0.8660253999169214 1 0 0 forward_v I I I I #
coedge $-1 $194 $195 $196 $197 reversed $77 $-1 #
face $-1 $-1 $198 $41 $-1 $199 forward single #
loop $-1 $200 $201 $79 #
cone-surface $-1 -42.035490821158291 30.431940260441927 8.1523629380137823 0 -0.50000000669873634 -0.8660253999169214 0.75 0 0 1 I I -0.70710678118654757 0.70710678118654757 0.75 forward I I I I #
loop $-1 $-1 $202 $52 #
coedge $-1 $126 $126 $203 $204 reversed $80 $-1 #
face $-1 $205 $206 $42 $-1 $207 reversed single #
loop $-1 $-1 $208 $82 #
plane-surface $-1 20.533846084604107 -28.005652023383284 47.777689969861655 0 0.50000000669873634 0.8660253999169214 1 0 0 forward_v I I I I #
coedge $-1 $209 $210 $211 $212 reversed $83 $-1 #
face $-1 $-1 $213 $43 $-1 $214 forward single #
loop $-1 $215 $216 $85 #
cone-surface $-1 20.533846084604107 30.431940260441927 8.1523629380137823 0 -0.50000000669873634 -0.8660253999169214 0.75 0 0 1 I I -0.70710678118654757 0.70710678118654757 0.75 forward I I I I #
loop $-1 $-1 $217 $54 #
coedge $-1 $135 $135 $218 $219 reversed $86 $-1 #
face $-1 $220 $221 $33 $-1 $222 reversed single #
loop $-1 $-1 $223 $88 #
plane-surface $-1 0 -38.256432517715773 0 0 1 0 0 0 1 forward_v I I I I #
coedge $-1 $224 $225 $226 $227 forward $89 $-1 #
coedge $-1 $228 $91 $229 $230 forward $56 $-1 #
coedge $-1 $91 $228 $231 $232 forward $56 $-1 #
coedge $-1 $233 $234 $91 $143 reversed $235 $-1 #
edge $-1 $236 -38.256432517715773 $237 38.256432517715773 $142 $238 forward 7 unknown #
face $-1 $239 $240 $34 $-1 $241 reversed single #
loop $-1 $-1 $242 $92 #
plane-surface $-1 0 38.256432517715773 0 0 -1 0 0 0 -1 forward_v I I I I #
coedge $-1 $150 $243 $244 $245 reversed $93 $-1 #
coedge $-1 $246 $95 $247 $248 reversed $59 $-1 #
coedge $-1 $95 $246 $249 $250 reversed $59 $-1 #
coedge $-1 $251 $147 $95 $151 reversed $93 $-1 #
edge $-1 $252 -38.256432517715773 $253 38.256432517715773 $150 $254 forward 7 unknown #
face $-1 $255 $256 $35 $-1 $257 reversed single #
loop $-1 $-1 $258 $96 #
plane-surface $-1 0 0 15.613019047506873 0 0 1 1 0 0 forward_v I I I I #
coedge $-1 $259 $260 $261 $262 reversed $97 $-1 #
coedge $-1 $263 $99 $264 $265 reversed $62 $-1 #
coedge $-1 $99 $263 $266 $267 reversed $62 $-1 #
coedge $-1 $268 $269 $99 $159 forward $270 $-1 #
edge $-1 $271 -38.256432517715773 $272 38.256432517715773 $158 $273 forward 7 unknown #
face $-1 $274 $275 $36 $-1 $276 forward single #
loop $-1 $-1 $277 $100 #
plane-surface $-1 -50.587289134475256 -116.48880149698201 145.02369238765061 1 0 0 0 0.50000000669873634 -0.8660253999169214 forward_v I I I I #
coedge $-1 $278 $279 $280 $281 reversed $101 $-1 #
coedge $-1 $165 $103 $282 $283 reversed $65 $-1 #
coedge $-1 $103 $164 $278 $284 reversed $65 $-1 #
coedge $-1 $280 $285 $103 $167 forward $275 $-1 #
edge $-1 $286 19.98796823077523 $287 30.539209520801865 $166 $288 forward 7 unknown #
loop $-1 $-1 $173 $104 #
plane-surface $-1 -42.035490821158291 -38.256432517715751 9.52125693960636 0 -0.50000000669873634 0.8660253999169214 1 0 0 forward_v I I I I #
loop $-1 $-1 $289 $67 #
coedge $-1 $171 $171 $172 $290 reversed $105 $-1 #
coedge $-1 $172 $172 $171 $290 forward $107 $-1 #
coedge $-1 $173 $173 $108 $174 forward $168 $-1 #
edge $-1 $291 1.8613814661979543e-015 $291 6.2831853071796022 $173 $292 forward 7 unknown #
face $-1 $293 $294 $38 $-1 $295 reversed single #
loop $-1 $-1 $296 $109 #
plane-surface $-1 11.982047771287146 -116.48880149698201 145.02369238765061 1 0 0 0 0.50000000669873634 -0.8660253999169214 forward_v I I I I #
coedge $-1 $297 $298 $299 $300 reversed $110 $-1 #
coedge $-1 $180 $112 $301 $302 reversed $71 $-1 #
coedge $-1 $112 $179 $297 $303 reversed $71 $-1 #
coedge $-1 $299 $304 $112 $182 forward $305 $-1 #
edge $-1 $306 19.98796823077523 $307 30.539209520801865 $181 $308 forward 7 unknown #
loop $-1 $-1 $188 $113 #
plane-surface $-1 20.533846084604107 -38.256432517715751 9.52125693960636 0 -0.50000000669873634 0.8660253999169214 1 0 0 forward_v I I I I #
loop $-1 $-1 $309 $73 #
coedge $-1 $186 $186 $187 $310 reversed $114 $-1 #
coedge $-1 $187 $187 $186 $310 forward $116 $-1 #
coedge $-1 $188 $188 $117 $189 forward $183 $-1 #
edge $-1 $311 1.8613814661979543e-015 $311 6.2831853071796022 $188 $312 forward 7 unknown #
face $-1 $313 $314 $40 $-1 $315 reversed single #
loop $-1 $-1 $316 $118 #
plane-surface $-1 -33.483692507841326 50.226716955882971 183.28012541790591 -1 0 0 0 0.50000000669873634 0.8660253999169214 forward_v I I I I #
coedge $-1 $317 $318 $319 $320 reversed $119 $-1 #
coedge $-1 $195 $121 $321 $322 reversed $77 $-1 #
coedge $-1 $121 $194 $317 $323 reversed $77 $-1 #
coedge $-1 $319 $324 $121 $197 forward $325 $-1 #
edge $-1 $326 -13.143074039774287 $327 -2.5918327497476703 $196 $328 forward 7 unknown #
loop $-1 $-1 $203 $122 #
plane-surface $-1 -42.035490821158291 -28.005652023383284 47.777689969861655 0 0.50000000669873634 0.8660253999169214 1 0 0 forward_v I I I I #
loop $-1 $-1 $329 $79 #
coedge $-1 $201 $201 $202 $330 reversed $123 $-1 #
coedge $-1 $202 $202 $201 $330 forward $125 $-1 #
coedge $-1 $203 $203 $126 $204 forward $198 $-1 #
edge $-1 $331 -8.5024602999010392e-017 $331 6.2831853071796004 $203 $332 forward 7 unknown #
face $-1 $333 $334 $42 $-1 $335 forward single #
loop $-1 $-1 $336 $127 #
plane-surface $-1 29.085644397921069 50.226716955882971 183.28012541790591 -1 0 0 0 0.50000000669873634 0.8660253999169214 forward_v I I I I #
coedge $-1 $337 $338 $339 $340 reversed $128 $-1 #
coedge $-1 $210 $130 $341 $342 reversed $83 $-1 #
coedge $-1 $130 $209 $337 $343 reversed $83 $-1 #
coedge $-1 $339 $344 $130 $212 forward $334 $-1 #
edge $-1 $345 -13.143074039774287 $346 -2.5918327497476703 $211 $347 forward 7 unknown #
loop $-1 $-1 $218 $131 #
plane-surface $-1 20.533846084604107 -28.005652023383284 47.777689969861655 0 0.50000000669873634 0.8660253999169214 1 0 0 forward_v I I I I #
loop $-1 $-1 $348 $85 #
coedge $-1 $216 $216 $217 $349 reversed $132 $-1 #
coedge $-1 $217 $217 $216 $349 forward $134 $-1 #
coedge $-1 $218 $218 $135 $219 forward $213 $-1 #
edge $-1 $350 -8.5024602999010392e-017 $350 6.2831853071796004 $218 $351 forward 7 unknown #
face $-1 $352 $353 $33 $-1 $354 reversed single #
loop $-1 $-1 $355 $136 #
plane-surface $-1 -78.232367931150236 0 0 1 0 0 0 0 -1 forward_v I I I I #
coedge $-1 $356 $231 $357 $358 forward $137 $-1 #
coedge $-1 $359 $139 $356 $360 forward $89 $-1 #
coedge $-1 $139 $359 $361 $362 forward $89 $-1 #
coedge $-1 $234 $233 $139 $227 reversed $235 $-1 #
edge $-1 $363 -38.256432517715773 $364 38.256432517715773 $226 $365 forward 7 unknown #
coedge $-1 $141 $140 $366 $367 forward $56 $-1 #
coedge $-1 $368 $369 $140 $230 reversed $353 $-1 #
edge $-1 $237 -78.232367931150236 $370 78.232367931150236 $229 $371 forward 7 unknown #
coedge $-1 $223 $372 $141 $232 reversed $137 $-1 #
edge $-1 $373 -78.232367931150236 $236 78.232367931150236 $231 $374 forward 7 unknown #
coedge $-1 $226 $142 $372 $375 forward $235 $-1 #
coedge $-1 $142 $226 $368 $376 reversed $235 $-1 #
loop $-1 $-1 $233 $352 #
vertex $-1 $143 $377 #
vertex $-1 $143 $378 #
straight-curve $-1 78.232367931150236 0 15.613019047506873 0 1 0 I I #
face $-1 $379 $380 $34 $-1 $381 forward single #
loop $-1 $-1 $382 $144 #
plane-surface $-1 -78.232367931150236 0 0 1 0 0 0 0 -1 forward_v I I I I #
coedge $-1 $249 $383 $251 $384 forward $145 $-1 #
coedge $-1 $147 $251 $385 $386 reversed $93 $-1 #
coedge $-1 $387 $247 $147 $245 forward $388 $-1 #
edge $-1 $253 2.2245466895395678 $389 9.6671638018247279 $244 $390 forward 7 unknown #
coedge $-1 $149 $148 $382 $391 reversed $59 $-1 #
coedge $-1 $244 $392 $148 $248 forward $388 $-1 #
edge $-1 $393 -43.031941721922081 $253 -27.368910696534229 $247 $394 forward 7 unknown #
coedge $-1 $395 $242 $149 $250 forward $145 $-1 #
edge $-1 $252 27.368910696534229 $396 43.031941721922081 $249 $397 forward 7 unknown #
coedge $-1 $243 $150 $242 $384 reversed $93 $-1 #
vertex $-1 $250 $398 #
vertex $-1 $248 $399 #
straight-curve $-1 -62.569336905762384 0 8.1704019352217152 0 -1 0 I I #
face $-1 $400 $401 $35 $-1 $402 reversed single #
loop $-1 $-1 $403 $152 #
plane-surface $-1 0 -38.256432517715773 0 0 1 0 0 0 1 forward_v I I I I #
coedge $-1 $404 $405 $260 $406 forward $153 $-1 #
coedge $-1 $407 $155 $263 $408 reversed $97 $-1 #
coedge $-1 $155 $407 $258 $406 reversed $97 $-1 #
coedge $-1 $409 $266 $155 $262 forward $401 $-1 #
edge $-1 $410 2.2245466895395678 $411 9.6671638018247279 $261 $412 forward 7 unknown #
coedge $-1 $157 $156 $259 $408 forward $62 $-1 #
coedge $-1 $413 $403 $156 $265 forward $256 $-1 #
edge $-1 $414 27.368910696534229 $271 43.031941721922081 $264 $415 forward 7 unknown #
coedge $-1 $261 $416 $157 $267 forward $401 $-1 #
edge $-1 $272 -43.031941721922081 $410 -27.368910696534229 $266 $417 forward 7 unknown #
coedge $-1 $418 $158 $416 $419 reversed $270 $-1 #
coedge $-1 $158 $418 $413 $420 forward $270 $-1 #
loop $-1 $-1 $158 $400 #
vertex $-1 $265 $421 #
vertex $-1 $159 $422 #
straight-curve $-1 78.232367931150236 0 8.1704019352217152 0 1 0 I I #
face $-1 $-1 $423 $36 $-1 $424 reversed single #
loop $-1 $-1 $166 $160 #
plane-surface $-1 0 0 15.613019047506873 0 0 1 1 0 0 forward_v I I I I #
coedge $-1 $425 $426 $427 $428 reversed $161 $-1 #
coedge $-1 $429 $163 $165 $284 forward $101 $-1 #
coedge $-1 $163 $429 $425 $430 forward $101 $-1 #
coedge $-1 $427 $166 $163 $281 forward $275 $-1 #
edge $-1 $287 12.46594709726218 $431 29.569543723896111 $280 $432 forward 7 unknown #
coedge $-1 $433 $434 $164 $283 forward $423 $-1 #
edge $-1 $435 -62.99058925421896 $286 -56.898827146318432 $282 $436 forward 7 unknown #
edge $-1 $287 -12.183524052572595 $435 2.4677690728037424e-014 $165 $437 forward 7 unknown #
coedge $-1 $166 $427 $433 $438 forward $275 $-1 #
vertex $-1 $283 $439 #
vertex $-1 $167 $440 #
straight-curve $-1 -33.483692507841326 -58.244400748491003 15.613019047506867 0 1 0 I I #
coedge $-1 $289 $289 $-1 $441 reversed $170 $-1 #
edge $-1 $442 0 $442 6.2831853071796004 $171 $443 forward 7 unknown #
vertex $-1 $174 $444 #
ellipse-curve $-1 -42.035490821158291 -32.980811872702475 12.567137993556601 0 -0.50000000669873634 0.8660253999169214 1.5 0 0 1 I I #
face $-1 $-1 $305 $38 $-1 $445 forward single #
loop $-1 $-1 $446 $175 #
plane-surface $-1 0 -38.256432517715773 0 0 1 0 0 0 1 forward_v I I I I #
coedge $-1 $447 $448 $449 $450 reversed $176 $-1 #
coedge $-1 $451 $178 $180 $303 forward $110 $-1 #
coedge $-1 $178 $451 $447 $452 forward $110 $-1 #
coedge $-1 $449 $181 $178 $300 forward $305 $-1 #
edge $-1 $307 -18.818721355619015 $453 -1.7151247289850922 $299 $454 forward 7 unknown #
coedge $-1 $455 $456 $179 $302 forward $294 $-1 #
edge $-1 $457 -62.99058925421896 $306 -56.898827146318432 $301 $458 forward 7 unknown #
edge $-1 $307 -12.183524052572595 $457 2.4677690728037424e-014 $180 $459 forward 7 unknown #
coedge $-1 $181 $449 $455 $460 forward $305 $-1 #
loop $-1 $-1 $449 $293 #
vertex $-1 $302 $461 #
vertex $-1 $182 $462 #
straight-curve $-1 29.085644397921069 -58.244400748491003 15.613019047506867 0 1 0 I I #
coedge $-1 $309 $309 $-1 $463 reversed $185 $-1 #
edge $-1 $464 0 $464 6.2831853071796004 $186 $465 forward 7 unknown #
vertex $-1 $189 $466 #
ellipse-curve $-1 20.533846084604107 -32.980811872702475 12.567137993556601 0 -0.50000000669873634 0.8660253999169214 1.5 0 0 1 I I #
face $-1 $-1 $325 $40 $-1 $467 forward single #
loop $-1 $-1 $468 $190 #
plane-surface $-1 0 38.256432517715773 0 0 -1 0 0 0 -1 forward_v I I I I #
coedge $-1 $469 $470 $471 $472 reversed $191 $-1 #
coedge $-1 $473 $193 $195 $323 forward $119 $-1 #
coedge $-1 $193 $473 $469 $474 forward $119 $-1 #
coedge $-1 $471 $196 $193 $320 forward $325 $-1 #
edge $-1 $327 -29.569543723896111 $475 -12.46594709726218 $319 $476 forward 7 unknown #
coedge $-1 $477 $478 $194 $322 forward $314 $-1 #
edge $-1 $479 -82.118805769346594 $326 -76.027043661446086 $321 $480 forward 7 unknown #
edge $-1 $327 64.329340982858966 $479 76.512865035431574 $195 $481 forward 7 unknown #
coedge $-1 $196 $471 $477 $482 forward $325 $-1 #
loop $-1 $-1 $471 $313 #
vertex $-1 $322 $483 #
vertex $-1 $197 $484 #
straight-curve $-1 -50.587289134475256 25.113358477941485 15.613019047506867 0 -1 0 I I #
coedge $-1 $329 $329 $-1 $485 reversed $200 $-1 #
edge $-1 $486 0 $486 6.2831853071796004 $201 $487 forward 7 unknown #
vertex $-1 $204 $488 #
ellipse-curve $-1 -42.035490821158291 32.980811872702475 12.567137993556614 0 0.50000000669873634 0.8660253999169214 1.5 0 0 1 I I #
face $-1 $-1 $489 $42 $-1 $490 reversed single #
loop $-1 $-1 $211 $205 #
plane-surface $-1 0 0 15.613019047506873 0 0 1 1 0 0 forward_v I I I I #
coedge $-1 $491 $492 $493 $494 reversed $206 $-1 #
coedge $-1 $495 $208 $210 $343 forward $128 $-1 #
coedge $-1 $208 $495 $491 $496 forward $128 $-1 #
coedge $-1 $493 $211 $208 $340 forward $334 $-1 #
edge $-1 $346 1.7151247289850922 $497 18.818721355619015 $339 $498 forward 7 unknown #
coedge $-1 $499 $500 $209 $342 forward $489 $-1 #
edge $-1 $501 -82.118805769346594 $345 -76.027043661446086 $341 $502 forward 7 unknown #
edge $-1 $346 64.329340982858966 $501 76.512865035431574 $210 $503 forward 7 unknown #
coedge $-1 $211 $493 $499 $504 forward $334 $-1 #
vertex $-1 $212 $505 #
vertex $-1 $212 $506 #
straight-curve $-1 11.982047771287146 25.113358477941485 15.613019047506867 0 -1 0 I I #
coedge $-1 $348 $348 $-1 $507 reversed $215 $-1 #
edge $-1 $508 0 $508 6.2831853071796004 $216 $509 forward 7 unknown #
vertex $-1 $219 $510 #
ellipse-curve $-1 20.533846084604107 32.980811872702475 12.567137993556614 0 0.50000000669873634 0.8660253999169214 1.5 0 0 1 I I #
face $-1 $-1 $235 $33 $-1 $511 reversed single #
loop $-1 $-1 $368 $220 #
plane-surface $-1 0 38.256432517715773 0 0 -1 0 0 0 -1 forward_v I I I I #
coedge $-1 $512 $366 $369 $513 forward $221 $-1 #
coedge $-1 $372 $223 $224 $360 reversed $137 $-1 #
coedge $-1 $366 $512 $223 $358 reversed $221 $-1 #
edge $-1 $373 -15.613019047506873 $514 15.613019047506873 $357 $515 forward 7 unknown #
coedge $-1 $225 $224 $512 $516 forward $89 $-1 #
edge $-1 $364 -78.232367931150236 $514 78.232367931150236 $356 $517 forward 7 unknown #
coedge $-1 $369 $368 $225 $362 reversed $353 $-1 #
edge $-1 $518 -78.232367931150236 $363 78.232367931150236 $361 $519 forward 7 unknown #
vertex $-1 $227 $520 #
vertex $-1 $375 $521 #
straight-curve $-1 78.232367931150236 0 -15.613019047506873 0 -1 0 I I #
coedge $-1 $355 $357 $228 $367 reversed $221 $-1 #
edge $-1 $370 -38.256432517715773 $373 38.256432517715773 $366 $522 forward 7 unknown #
coedge $-1 $361 $229 $234 $376 forward $353 $-1 #
coedge $-1 $229 $361 $355 $513 reversed $353 $-1 #
vertex $-1 $230 $523 #
straight-curve $-1 0 38.256432517715773 15.613019047506873 -1 0 0 I I #
coedge $-1 $231 $356 $233 $375 reversed $137 $-1 #
vertex $-1 $367 $524 #
straight-curve $-1 0 -38.256432517715773 15.613019047506873 1 0 0 I I #
edge $-1 $236 -15.613019047506873 $364 15.613019047506873 $233 $525 forward 7 unknown #
edge $-1 $237 -15.613019047506873 $363 15.613019047506873 $234 $526 forward 7 unknown #
point $-1 78.232367931150236 -38.256432517715773 15.613019047506873 #
point $-1 78.232367931150236 38.256432517715773 15.613019047506873 #
face $-1 $-1 $388 $34 $-1 $527 reversed single #
loop $-1 $-1 $385 $239 #
plane-surface $-1 0 0 15.613019047506873 0 0 1 1 0 0 forward_v I I I I #
coedge $-1 $528 $529 $246 $391 forward $240 $-1 #
coedge $-1 $242 $395 $530 $531 reversed $145 $-1 #
edge $-1 $532 -9.6671638018247279 $252 -2.2245466895395678 $242 $533 forward 7 unknown #
coedge $-1 $530 $534 $243 $386 forward $380 $-1 #
edge $-1 $389 -38.256432517715773 $532 38.256432517715773 $385 $535 forward 7 unknown #
coedge $-1 $392 $244 $534 $536 reversed $388 $-1 #
loop $-1 $-1 $244 $379 #
vertex $-1 $245 $537 #
straight-curve $-1 -62.569336905762384 -38.256432517715773 5.9458552456821474 0 0 1 I I #
edge $-1 $396 -38.256432517715773 $393 38.256432517715773 $382 $538 forward 7 unknown #
coedge $-1 $247 $387 $528 $539 forward $388 $-1 #
vertex $-1 $391 $540 #
straight-curve $-1 -35.200426209228155 -38.256432517715773 8.1704019352217152 1 0 0 I I #
coedge $-1 $383 $249 $529 $541 reversed $145 $-1 #
vertex $-1 $391 $542 #
straight-curve $-1 -35.200426209228155 38.256432517715773 8.1704019352217152 -1 0 0 I I #
point $-1 -62.569336905762384 38.256432517715773 8.1704019352217152 #
point $-1 -62.569336905762384 -38.256432517715773 8.1704019352217152 #
face $-1 $-1 $270 $35 $-1 $543 reversed single #
loop $-1 $-1 $261 $255 #
plane-surface $-1 0 38.256432517715773 0 0 -1 0 0 0 -1 forward_v I I I I #
coedge $-1 $264 $544 $407 $545 forward $256 $-1 #
coedge $-1 $546 $258 $544 $547 forward $153 $-1 #
coedge $-1 $258 $546 $409 $548 forward $153 $-1 #
edge $-1 $411 -38.256432517715773 $549 38.256432517715773 $258 $550 forward 7 unknown #
coedge $-1 $260 $259 $403 $545 reversed $97 $-1 #
edge $-1 $414 -38.256432517715773 $410 38.256432517715773 $259 $551 forward 7 unknown #
coedge $-1 $416 $261 $405 $548 reversed $401 $-1 #
vertex $-1 $267 $552 #
vertex $-1 $262 $553 #
straight-curve $-1 62.569336905762384 38.256432517715773 5.9458552456821474 0 0 1 I I #
coedge $-1 $544 $264 $269 $420 reversed $256 $-1 #
vertex $-1 $265 $554 #
straight-curve $-1 35.200426209228155 -38.256432517715773 8.1704019352217152 1 0 0 I I #
coedge $-1 $266 $409 $268 $419 forward $401 $-1 #
straight-curve $-1 35.200426209228155 38.256432517715773 8.1704019352217152 -1 0 0 I I #
coedge $-1 $269 $268 $546 $555 reversed $270 $-1 #
edge $-1 $556 -15.613019047506873 $272 -8.1704019352217152 $268 $557 forward 7 unknown #
edge $-1 $558 -15.613019047506873 $271 -8.1704019352217152 $269 $559 forward 7 unknown #
point $-1 78.232367931150236 -38.256432517715773 8.1704019352217152 #
point $-1 78.232367931150236 38.256432517715773 8.1704019352217152 #
loop $-1 $-1 $282 $274 #
plane-surface $-1 0 -38.256432517715773 0 0 1 0 0 0 1 forward_v I I I I #
coedge $-1 $426 $277 $279 $430 reversed $161 $-1 #
coedge $-1 $277 $425 $560 $561 reversed $161 $-1 #
coedge $-1 $285 $280 $277 $428 forward $275 $-1 #
edge $-1 $431 -30.539209520801865 $562 -19.98796823077523 $427 $563 forward 7 unknown #
coedge $-1 $279 $278 $434 $564 reversed $101 $-1 #
edge $-1 $565 -2.4677690728037424e-014 $431 12.183524052572595 $425 $566 forward 7 unknown #
vertex $-1 $281 $567 #
straight-curve $-1 -21.017745410579145 -27.705191227689138 15.613019047506873 -1 0 0 I I #
coedge $-1 $560 $282 $285 $438 reversed $423 $-1 #
coedge $-1 $282 $560 $429 $564 forward $423 $-1 #
vertex $-1 $283 $568 #
straight-curve $-1 -33.483692507841326 -38.256432517715773 72.511846193825306 0 0 1 I I #
straight-curve $-1 -33.483692507841326 -38.256432517715751 9.52125693960636 0 -0.8660253999169214 -0.50000000669873634 I I #
edge $-1 $562 -50.587289134475256 $286 -33.483692507841326 $433 $569 forward 7 unknown #
point $-1 -33.483692507841326 -38.256432517715773 15.613019047506873 #
point $-1 -33.483692507841326 -27.705191227689138 15.613019047506873 #
edge $-1 $570 1 $570 0 $289 $-1 forward 7 unknown #
vertex $-1 $290 $571 #
ellipse-curve $-1 -42.035490821158291 -30.806940265465979 8.8018819879514663 0 -0.50000000669873634 0.8660253999169214 1.5 0 0 1 I I #
point $-1 -40.535490821158291 -32.980811872702489 12.567137993556631 #
plane-surface $-1 0 0 15.613019047506873 0 0 1 1 0 0 forward_v I I I I #
coedge $-1 $456 $455 $448 $572 forward $294 $-1 #
coedge $-1 $448 $296 $298 $452 reversed $176 $-1 #
coedge $-1 $296 $447 $446 $572 reversed $176 $-1 #
coedge $-1 $304 $299 $296 $450 forward $305 $-1 #
edge $-1 $453 -30.539209520801865 $573 -19.98796823077523 $449 $574 forward 7 unknown #
coedge $-1 $298 $297 $456 $575 reversed $110 $-1 #
edge $-1 $576 -2.4677690728037424e-014 $453 12.183524052572595 $447 $577 forward 7 unknown #
vertex $-1 $300 $578 #
straight-curve $-1 10.266923042302054 -27.705191227689138 15.613019047506873 -1 0 0 I I #
coedge $-1 $446 $301 $304 $460 reversed $294 $-1 #
coedge $-1 $301 $446 $451 $575 forward $294 $-1 #
vertex $-1 $302 $579 #
straight-curve $-1 29.085644397921069 -38.256432517715773 72.511846193825306 0 0 1 I I #
straight-curve $-1 29.085644397921069 -38.256432517715751 9.52125693960636 0 -0.8660253999169214 -0.50000000669873634 I I #
edge $-1 $573 11.982047771287146 $306 29.085644397921069 $455 $580 forward 7 unknown #
point $-1 29.085644397921069 -38.256432517715773 15.613019047506873 #
point $-1 29.085644397921069 -27.705191227689138 15.613019047506873 #
edge $-1 $581 1 $581 0 $309 $-1 forward 7 unknown #
vertex $-1 $310 $582 #
ellipse-curve $-1 20.533846084604107 -30.806940265465979 8.8018819879514663 0 -0.50000000669873634 0.8660253999169214 1.5 0 0 1 I I #
point $-1 22.033846084604107 -32.980811872702489 12.567137993556631 #
plane-surface $-1 0 0 15.613019047506873 0 0 1 1 0 0 forward_v I I I I #
coedge $-1 $478 $477 $470 $583 forward $314 $-1 #
coedge $-1 $470 $316 $318 $474 reversed $191 $-1 #
coedge $-1 $316 $469 $468 $583 reversed $191 $-1 #
coedge $-1 $324 $319 $316 $472 forward $325 $-1 #
edge $-1 $475 2.5918327497476703 $584 13.143074039774287 $471 $585 forward 7 unknown #
coedge $-1 $318 $317 $478 $586 reversed $119 $-1 #
edge $-1 $587 -76.512865035431574 $475 -64.329340982858966 $469 $588 forward 7 unknown #
vertex $-1 $320 $589 #
straight-curve $-1 -21.017745410579145 27.705191227689152 15.613019047506874 1 0 0 I I #
coedge $-1 $468 $321 $324 $482 reversed $314 $-1 #
coedge $-1 $321 $468 $473 $586 forward $314 $-1 #
vertex $-1 $322 $590 #
straight-curve $-1 -50.587289134475256 38.256432517715773 91.640062708952954 0 0 1 I I #
straight-curve $-1 -50.587289134475256 -28.005652023383284 47.777689969861655 0 0.8660253999169214 -0.50000000669873634 I I #
edge $-1 $584 33.483692507841326 $326 50.587289134475256 $477 $591 forward 7 unknown #
point $-1 -50.587289134475256 38.256432517715773 15.613019047506873 #
point $-1 -50.587289134475256 27.705191227689156 15.613019047506874 #
edge $-1 $592 1 $592 0 $329 $-1 forward 7 unknown #
vertex $-1 $330 $593 #
ellipse-curve $-1 -42.035490821158291 30.806940265465979 8.8018819879514734 0 0.50000000669873634 0.8660253999169214 1.5 0 0 1 I I #
point $-1 -40.535490821158291 32.980811872702489 12.567137993556639 #
loop $-1 $-1 $341 $333 #
plane-surface $-1 0 38.256432517715773 0 0 -1 0 0 0 -1 forward_v I I I I #
coedge $-1 $492 $336 $338 $496 reversed $206 $-1 #
coedge $-1 $336 $491 $594 $595 reversed $206 $-1 #
coedge $-1 $344 $339 $336 $494 forward $334 $-1 #
edge $-1 $497 2.5918327497476703 $596 13.143074039774287 $493 $597 forward 7 unknown #
coedge $-1 $338 $337 $500 $598 reversed $128 $-1 #
edge $-1 $599 -76.512865035431574 $497 -64.329340982858966 $491 $600 forward 7 unknown #
vertex $-1 $340 $601 #
straight-curve $-1 10.266923042302054 27.705191227689152 15.613019047506874 1 0 0 I I #
coedge $-1 $594 $341 $344 $504 reversed $489 $-1 #
coedge $-1 $341 $594 $495 $598 forward $489 $-1 #
vertex $-1 $342 $602 #
straight-curve $-1 11.982047771287146 38.256432517715773 91.640062708952954 0 0 1 I I #
straight-curve $-1 11.982047771287146 -28.005652023383284 47.777689969861655 0 0.8660253999169214 -0.50000000669873634 I I #
edge $-1 $596 -29.085644397921069 $345 -11.982047771287146 $499 $603 forward 7 unknown #
point $-1 11.982047771287146 38.256432517715773 15.613019047506873 #
point $-1 11.982047771287146 27.705191227689156 15.613019047506874 #
edge $-1 $604 1 $604 0 $348 $-1 forward 7 unknown #
vertex $-1 $349 $605 #
ellipse-curve $-1 20.533846084604107 30.806940265465979 8.8018819879514734 0 0.50000000669873634 0.8660253999169214 1.5 0 0 1 I I #
point $-1 22.033846084604107 32.980811872702489 12.567137993556639 #
plane-surface $-1 78.232367931150236 0 0 -1 0 0 0 0 1 forward_v I I I I #
coedge $-1 $357 $355 $359 $516 reversed $221 $-1 #
edge $-1 $370 -15.613019047506873 $518 15.613019047506873 $369 $606 forward 7 unknown #
vertex $-1 $516 $607 #
straight-curve $-1 -78.232367931150236 -38.256432517715773 0 0 0 -1 I I #
edge $-1 $514 -38.256432517715773 $518 38.256432517715773 $512 $608 forward 7 unknown #
straight-curve $-1 0 -38.256432517715773 -15.613019047506873 -1 0 0 I I #
vertex $-1 $362 $609 #
straight-curve $-1 0 38.256432517715773 -15.613019047506873 1 0 0 I I #
point $-1 78.232367931150236 38.256432517715773 -15.613019047506873 #
point $-1 78.232367931150236 -38.256432517715773 -15.613019047506873 #
straight-curve $-1 -78.232367931150236 0 15.613019047506873 0 -1 0 I I #
point $-1 -78.232367931150236 38.256432517715773 15.613019047506873 #
point $-1 -78.232367931150236 -38.256432517715773 15.613019047506873 #
straight-curve $-1 78.232367931150236 -38.256432517715773 0 0 0 -1 I I #
straight-curve $-1 78.232367931150236 38.256432517715773 0 0 0 -1 I I #
plane-surface $-1 0 -38.256432517715773 0 0 1 0 0 0 1 forward_v I I I I #
coedge $-1 $610 $382 $392 $539 reversed $240 $-1 #
coedge $-1 $382 $610 $395 $541 forward $240 $-1 #
coedge $-1 $611 $385 $383 $531 forward $380 $-1 #
edge $-1 $532 62.569336905762384 $612 78.232367931150236 $383 $613 forward 7 unknown #
vertex $-1 $531 $614 #
straight-curve $-1 -62.569336905762384 38.256432517715773 5.9458552456821474 0 0 -1 I I #
coedge $-1 $385 $611 $387 $536 forward $380 $-1 #
straight-curve $-1 -62.569336905762384 0 15.613019047506873 0 1 0 I I #
edge $-1 $615 -78.232367931150236 $389 -62.569336905762384 $387 $616 forward 7 unknown #
point $-1 -62.569336905762384 -38.256432517715773 15.613019047506874 #
straight-curve $-1 -78.232367931150236 0 8.1704019352217152 0 -1 0 I I #
edge $-1 $615 -15.613019047506873 $393 -8.1704019352217152 $528 $617 forward 7 unknown #
point $-1 -78.232367931150236 -38.256432517715773 8.1704019352217152 #
edge $-1 $612 -15.613019047506873 $396 -8.1704019352217152 $395 $618 forward 7 unknown #
point $-1 -78.232367931150236 38.256432517715773 8.1704019352217152 #
plane-surface $-1 78.232367931150236 0 0 -1 0 0 0 0 1 forward_v I I I I #
coedge $-1 $403 $413 $404 $547 reversed $256 $-1 #
edge $-1 $549 -9.6671638018247279 $414 -2.2245466895395678 $403 $619 forward 7 unknown #
coedge $-1 $405 $404 $418 $555 forward $153 $-1 #
edge $-1 $549 62.569336905762384 $558 78.232367931150236 $544 $620 forward 7 unknown #
edge $-1 $556 -78.232367931150236 $411 -62.569336905762384 $409 $621 forward 7 unknown #
vertex $-1 $547 $622 #
straight-curve $-1 62.569336905762384 0 15.613019047506873 0 -1 0 I I #
straight-curve $-1 62.569336905762384 0 8.1704019352217152 0 1 0 I I #
point $-1 62.569336905762384 38.256432517715773 8.1704019352217152 #
point $-1 62.569336905762384 38.256432517715773 15.613019047506874 #
point $-1 62.569336905762384 -38.256432517715773 8.1704019352217152 #
edge $-1 $558 -38.256432517715773 $556 38.256432517715773 $418 $623 forward 7 unknown #
vertex $-1 $555 $624 #
straight-curve $-1 78.232367931150236 38.256432517715773 0 0 0 -1 I I #
vertex $-1 $555 $625 #
straight-curve $-1 78.232367931150236 -38.256432517715773 0 0 0 -1 I I #
coedge $-1 $434 $433 $426 $561 forward $423 $-1 #
edge $-1 $562 56.898827146318432 $565 62.99058925421896 $560 $626 forward 7 unknown #
vertex $-1 $438 $627 #
straight-curve $-1 -50.587289134475256 -58.244400748491003 15.613019047506867 0 -1 0 I I #
edge $-1 $565 -29.569543723896111 $435 -12.46594709726218 $434 $628 forward 7 unknown #
vertex $-1 $564 $629 #
straight-curve $-1 -50.587289134475256 -38.256432517715751 9.52125693960636 0 0.8660253999169214 0.50000000669873634 I I #
point $-1 -50.587289134475256 -27.705191227689138 15.613019047506873 #
point $-1 -33.483692507841326 -38.256432517715773 9.5212569396063476 #
straight-curve $-1 0 -38.256432517715773 15.613019047506873 1 0 0 I I #
vertex $-1 $441 $630 #
point $-1 -40.535490821158291 -30.806940265465979 8.8018819879514663 #
edge $-1 $573 56.898827146318432 $576 62.99058925421896 $446 $631 forward 7 unknown #
vertex $-1 $460 $632 #
straight-curve $-1 11.982047771287146 -58.244400748491003 15.613019047506867 0 -1 0 I I #
edge $-1 $576 1.7151247289850922 $457 18.818721355619015 $456 $633 forward 7 unknown #
vertex $-1 $575 $634 #
straight-curve $-1 11.982047771287146 -38.256432517715751 9.52125693960636 0 0.8660253999169214 0.50000000669873634 I I #
point $-1 11.982047771287146 -27.705191227689138 15.613019047506873 #
point $-1 29.085644397921069 -38.256432517715773 9.5212569396063476 #
straight-curve $-1 0 -38.256432517715773 15.613019047506873 1 0 0 I I #
vertex $-1 $463 $635 #
point $-1 22.033846084604107 -30.806940265465979 8.8018819879514663 #
edge $-1 $584 76.027043661446086 $587 82.118805769346594 $468 $636 forward 7 unknown #
vertex $-1 $482 $637 #
straight-curve $-1 -33.483692507841326 25.113358477941485 15.613019047506867 0 1 0 I I #
edge $-1 $587 12.46594709726218 $479 29.569543723896111 $478 $638 forward 7 unknown #
vertex $-1 $586 $639 #
straight-curve $-1 -33.483692507841326 -28.005652023383284 47.777689969861655 0 -0.8660253999169214 0.50000000669873634 I I #
point $-1 -33.483692507841326 27.705191227689156 15.613019047506874 #
point $-1 -50.587289134475256 38.256432517715773 9.52125693960636 #
straight-curve $-1 0 38.256432517715773 15.613019047506873 -1 0 0 I I #
vertex $-1 $485 $640 #
point $-1 -40.535490821158291 30.806940265465979 8.8018819879514734 #
coedge $-1 $500 $499 $492 $595 forward $489 $-1 #
edge $-1 $596 76.027043661446086 $599 82.118805769346594 $594 $641 forward 7 unknown #
vertex $-1 $504 $642 #
straight-curve $-1 29.085644397921069 25.113358477941485 15.613019047506867 0 1 0 I I #
edge $-1 $599 -18.818721355619015 $501 -1.7151247289850922 $500 $643 forward 7 unknown #
vertex $-1 $598 $644 #
straight-curve $-1 29.085644397921069 -28.005652023383284 47.777689969861655 0 -0.8660253999169214 0.50000000669873634 I I #
point $-1 29.085644397921069 27.705191227689156 15.613019047506874 #
point $-1 11.982047771287146 38.256432517715773 9.52125693960636 #
straight-curve $-1 0 38.256432517715773 15.613019047506873 -1 0 0 I I #
vertex $-1 $507 $645 #
point $-1 22.033846084604107 30.806940265465979 8.8018819879514734 #
straight-curve $-1 -78.232367931150236 38.256432517715773 0 0 0 -1 I I #
point $-1 -78.232367931150236 -38.256432517715773 -15.613019047506873 #
straight-curve $-1 -78.232367931150236 0 -15.613019047506873 0 1 0 I I #
point $-1 -78.232367931150236 38.256432517715773 -15.613019047506873 #
coedge $-1 $529 $528 $611 $646 reversed $240 $-1 #
coedge $-1 $534 $530 $610 $646 forward $380 $-1 #
vertex $-1 $531 $647 #
straight-curve $-1 0 38.256432517715773 15.613019047506873 -1 0 0 I I #
point $-1 -62.569336905762384 38.256432517715773 15.613019047506874 #
vertex $-1 $646 $648 #
straight-curve $-1 0 -38.256432517715773 15.613019047506873 1 0 0 I I #
straight-curve $-1 -78.232367931150236 -38.256432517715773 0 0 0 -1 I I #
straight-curve $-1 -78.232367931150236 38.256432517715773 0 0 0 -1 I I #
straight-curve $-1 62.569336905762384 -38.256432517715773 5.9458552456821474 0 0 -1 I I #
straight-curve $-1 0 -38.256432517715773 15.613019047506873 1 0 0 I I #
straight-curve $-1 0 38.256432517715773 15.613019047506873 -1 0 0 I I #
point $-1 62.569336905762384 -38.256432517715773 15.613019047506874 #
straight-curve $-1 78.232367931150236 0 15.613019047506873 0 1 0 I I #
point $-1 78.232367931150236 38.256432517715773 15.613019047506873 #
point $-1 78.232367931150236 -38.256432517715773 15.613019047506873 #
straight-curve $-1 -50.587289134475256 -38.256432517715773 72.511846193825306 0 0 -1 I I #
point $-1 -50.587289134475256 -38.256432517715773 15.613019047506873 #
straight-curve $-1 -21.017745410579145 -38.256432517715773 9.5212569396063529 1 0 0 I I #
point $-1 -50.587289134475256 -38.256432517715773 9.5212569396063476 #
point $-1 -42.035490821158291 -30.056940255417874 7.5028438880760842 #
straight-curve $-1 11.982047771287146 -38.256432517715773 72.511846193825306 0 0 -1 I I #
point $-1 11.982047771287146 -38.256432517715773 15.613019047506873 #
straight-curve $-1 10.266923042302054 -38.256432517715773 9.5212569396063529 1 0 0 I I #
point $-1 11.982047771287146 -38.256432517715773 9.5212569396063476 #
point $-1 20.533846084604107 -30.056940255417874 7.5028438880760842 #
straight-curve $-1 -33.483692507841326 38.256432517715773 91.640062708952954 0 0 -1 I I #
point $-1 -33.483692507841326 38.256432517715773 15.613019047506873 #
straight-curve $-1 -21.017745410579145 38.256432517715773 9.5212569396063635 -1 0 0 I I #
point $-1 -33.483692507841326 38.256432517715773 9.52125693960636 #
point $-1 -42.035490821158291 30.056940255417874 7.5028438880760913 #
straight-curve $-1 29.085644397921069 38.256432517715773 91.640062708952954 0 0 -1 I I #
point $-1 29.085644397921069 38.256432517715773 15.613019047506873 #
straight-curve $-1 10.266923042302054 38.256432517715773 9.5212569396063635 -1 0 0 I I #
point $-1 29.085644397921069 38.256432517715773 9.52125693960636 #
point $-1 20.533846084604107 30.056940255417874 7.5028438880760913 #
edge $-1 $612 -38.256432517715773 $615 38.256432517715773 $610 $649 forward 7 unknown #
point $-1 -78.232367931150236 38.256432517715773 15.613019047506873 #
point $-1 -78.232367931150236 -38.256432517715773 15.613019047506873 #
straight-curve $-1 -78.232367931150236 0 15.613019047506873 0 -1 0 I I #
End-of-ACIS-data 