500 0 10 0           
7 Unknown 11 ACIS 5.0 NT 24 Thu Mar 25 21:54:26 1999 
-1 9.9999999999999995e-007 1e-010 
body $-1 $10 $-1 $11 #
body $-1 $12 $-1 $13 #
body $-1 $14 $-1 $15 #
body $-1 $16 $-1 $17 #
body $-1 $18 $-1 $19 #
body $-1 $20 $-1 $21 #
body $-1 $22 $-1 $23 #
body $-1 $24 $-1 $25 #
body $-1 $26 $-1 $27 #
body $-1 $28 $-1 $29 #
lump $-1 $-1 $30 $0 #
transform $-1 1 0 0 0 1 0 0 0 1 65.845515305032507 39.783013541058097 19.764752822542157 1 rotate no_reflect no_shear #
lump $-1 $-1 $31 $1 #
transform $-1 1 0 0 0 1 0 0 0 1 65.845515305032507 39.783013541058097 19.764752822542157 1 rotate no_reflect no_shear #
lump $-1 $-1 $32 $2 #
transform $-1 1 0 0 0 1 0 0 0 1 65.845515305032507 39.783013541058097 19.764752822542157 1 rotate no_reflect no_shear #
lump $-1 $-1 $33 $3 #
transform $-1 1 0 0 0 1 0 0 0 1 65.845515305032507 39.783013541058097 19.764752822542157 1 rotate no_reflect no_shear #
lump $-1 $-1 $34 $4 #
transform $-1 1 0 0 0 1 0 0 0 1 65.845515305032507 39.783013541058097 19.764752822542157 1 rotate no_reflect no_shear #
lump $-1 $-1 $35 $5 #
transform $-1 1 0 0 0 1 0 0 0 1 65.845515305032507 39.783013541058097 19.764752822542157 1 rotate no_reflect no_shear #
lump $-1 $-1 $36 $6 #
transform $-1 1 0 0 0 1 0 0 0 1 65.845515305032507 39.783013541058097 19.764752822542157 1 rotate no_reflect no_shear #
lump $-1 $-1 $37 $7 #
transform $-1 1 0 0 0 1 0 0 0 1 65.845515305032507 39.783013541058097 19.764752822542157 1 rotate no_reflect no_shear #
lump $-1 $-1 $38 $8 #
transform $-1 1 0 0 0 1 0 0 0 1 65.845515305032507 39.783013541058097 19.764752822542157 1 rotate no_reflect no_shear #
lump $-1 $-1 $39 $9 #
transform $-1 1 0 0 0 1 0 0 0 1 65.845515305032507 39.783013541058097 19.764752822542157 1 rotate no_reflect no_shear #
shell $-1 $-1 $-1 $40 $-1 $10 #
shell $-1 $-1 $-1 $41 $-1 $12 #
shell $-1 $-1 $-1 $42 $-1 $14 #
shell $-1 $-1 $-1 $43 $-1 $16 #
shell $-1 $-1 $-1 $44 $-1 $18 #
shell $-1 $-1 $-1 $45 $-1 $20 #
shell $-1 $-1 $-1 $46 $-1 $22 #
shell $-1 $-1 $-1 $47 $-1 $24 #
shell $-1 $-1 $-1 $48 $-1 $26 #
shell $-1 $-1 $-1 $49 $-1 $28 #
face $-1 $50 $51 $30 $-1 $52 reversed single #
face $-1 $53 $54 $31 $-1 $55 forward single #
face $-1 $56 $57 $32 $-1 $58 reversed single #
face $-1 $59 $60 $33 $-1 $61 forward single #
face $-1 $62 $63 $34 $-1 $64 forward single #
face $-1 $65 $66 $35 $-1 $67 forward single #
face $-1 $68 $69 $36 $-1 $70 reversed single #
face $-1 $71 $72 $37 $-1 $73 forward single #
face $-1 $74 $75 $38 $-1 $76 forward single #
face $-1 $77 $78 $39 $-1 $79 forward single #
face $-1 $80 $81 $30 $-1 $82 forward single #
loop $-1 $-1 $83 $40 #
plane-surface $-1 0 -39.783013541058097 0 0 1 0 0 0 1 forward_v I I I I #
face $-1 $84 $85 $31 $-1 $86 forward single #
loop $-1 $-1 $87 $41 #
plane-surface $-1 0 -39.783013541058097 0 0 1 0 0 0 1 forward_v I I I I #
face $-1 $88 $89 $32 $-1 $90 reversed single #
loop $-1 $-1 $91 $42 #
plane-surface $-1 85.312819458016747 -0.65829743623342019 197.66913583254529 0 -1 0 -0.77714596973225614 0 -0.62932038083071107 forward_v I I I I #
face $-1 $92 $93 $33 $-1 $94 forward single #
loop $-1 $95 $96 $43 #
cone-surface $-1 61.748493645197023 -13.120016407257431 15.188021714498035 -0.77714596973225614 0 -0.62932038083071107 0.9439805712460666 0 -1.1657189545983841 1 I I 0 1 1.5 forward I I I I #
face $-1 $97 $98 $34 $-1 $99 forward single #
loop $-1 $100 $101 $44 #
cone-surface $-1 61.748493645197023 -8.4468717931234245 15.188021714498035 -0.77714596973225614 0 -0.62932038083071107 0.9439805712460666 0 -1.1657189545983841 1 I I 0 1 1.5 forward I I I I #
face $-1 $102 $103 $35 $-1 $104 forward single #
loop $-1 $105 $106 $45 #
cone-surface $-1 61.748493645197023 -3.773727178989418 15.188021714498035 -0.77714596973225614 0 -0.62932038083071107 0.9439805712460666 0 -1.1657189545983841 1 I I 0 1 1.5 forward I I I I #
face $-1 $107 $108 $36 $-1 $109 reversed single #
loop $-1 $-1 $110 $46 #
plane-surface $-1 -168.18866899353168 -16.235446150013438 95.325982144046094 0 1 0 -0.77714596973225614 0 0.62932038083071107 forward_v I I I I #
face $-1 $111 $112 $37 $-1 $113 forward single #
loop $-1 $114 $115 $47 #
cone-surface $-1 -61.748493645197037 -13.120016407257431 15.188021714498035 0.77714596973225614 0 -0.62932038083071107 0.9439805712460666 0 1.1657189545983841 1 I I 0 1 1.5 forward I I I I #
face $-1 $116 $117 $38 $-1 $118 forward single #
loop $-1 $119 $120 $48 #
cone-surface $-1 -61.748493645197037 -8.4468717931234245 15.188021714498035 0.77714596973225614 0 -0.62932038083071107 0.9439805712460666 0 1.1657189545983841 1 I I 0 1 1.5 forward I I I I #
face $-1 $121 $122 $39 $-1 $123 forward single #
loop $-1 $124 $125 $49 #
cone-surface $-1 -61.748493645197037 -3.773727178989418 15.188021714498035 0.77714596973225614 0 -0.62932038083071107 0.9439805712460666 0 1.1657189545983841 1 I I 0 1 1.5 forward I I I I #
face $-1 $126 $127 $30 $-1 $128 reversed single #
loop $-1 $-1 $129 $50 #
plane-surface $-1 0 0 19.764752822542157 0 0 1 1 0 0 forward_v I I I I #
coedge $-1 $130 $131 $132 $133 reversed $51 $-1 #
face $-1 $134 $135 $31 $-1 $136 reversed single #
loop $-1 $-1 $137 $53 #
plane-surface $-1 0 0 19.764752822542157 0 0 1 1 0 0 forward_v I I I I #
coedge $-1 $138 $139 $140 $141 forward $54 $-1 #
face $-1 $142 $143 $32 $-1 $144 reversed single #
loop $-1 $-1 $145 $56 #
plane-surface $-1 -17.030334230482453 -8.4468717931234281 114.79328629703035 0.77714596973225614 0 0.62932038083071107 0.62932038083071107 0 -0.77714596973225614 forward_v I I I I #
coedge $-1 $146 $147 $148 $149 reversed $57 $-1 #
face $-1 $-1 $150 $33 $-1 $151 forward single #
loop $-1 $152 $153 $59 #
cone-surface $-1 60.030243757529774 -13.120016407257431 13.796610427836377 -0.77714596973225614 0 -0.62932038083071107 0.4719902856230333 0 -0.58285947729919207 1 I I -0.70710678118654757 0.70710678118654757 0.75 forward I I I I #
loop $-1 $-1 $154 $43 #
coedge $-1 $96 $96 $155 $156 reversed $60 $-1 #
face $-1 $-1 $157 $34 $-1 $158 forward single #
loop $-1 $159 $160 $62 #
cone-surface $-1 60.030243757529774 -8.4468717931234245 13.796610427836377 -0.77714596973225614 0 -0.62932038083071107 0.4719902856230333 0 -0.58285947729919207 1 I I -0.70710678118654757 0.70710678118654757 0.75 forward I I I I #
loop $-1 $-1 $161 $44 #
coedge $-1 $101 $101 $162 $163 reversed $63 $-1 #
face $-1 $-1 $164 $35 $-1 $165 forward single #
loop $-1 $166 $167 $65 #
cone-surface $-1 60.030243757529774 -3.773727178989418 13.796610427836377 -0.77714596973225614 0 -0.62932038083071107 0.4719902856230333 0 -0.58285947729919207 1 I I -0.70710678118654757 0.70710678118654757 0.75 forward I I I I #
loop $-1 $-1 $168 $45 #
coedge $-1 $106 $106 $169 $170 reversed $66 $-1 #
face $-1 $171 $172 $36 $-1 $173 reversed single #
loop $-1 $-1 $174 $68 #
plane-surface $-1 -65.845515305032478 -8.4468717931234281 12.450132608531149 -0.77714596973225614 0 0.62932038083071107 0.62932038083071107 0 0.77714596973225614 forward_v I I I I #
coedge $-1 $175 $176 $177 $178 reversed $69 $-1 #
face $-1 $-1 $179 $37 $-1 $180 forward single #
loop $-1 $181 $182 $71 #
cone-surface $-1 -60.030243757529789 -13.120016407257431 13.796610427836377 0.77714596973225614 0 -0.62932038083071107 0.4719902856230333 0 0.58285947729919207 1 I I -0.70710678118654757 0.70710678118654757 0.75 forward I I I I #
loop $-1 $-1 $183 $47 #
coedge $-1 $115 $115 $184 $185 reversed $72 $-1 #
face $-1 $-1 $186 $38 $-1 $187 forward single #
loop $-1 $188 $189 $74 #
cone-surface $-1 -60.030243757529789 -8.4468717931234245 13.796610427836377 0.77714596973225614 0 -0.62932038083071107 0.4719902856230333 0 0.58285947729919207 1 I I -0.70710678118654757 0.70710678118654757 0.75 forward I I I I #
loop $-1 $-1 $190 $48 #
coedge $-1 $120 $120 $191 $192 reversed $75 $-1 #
face $-1 $-1 $193 $39 $-1 $194 forward single #
loop $-1 $195 $196 $77 #
cone-surface $-1 -60.030243757529789 -3.773727178989418 13.796610427836377 0.77714596973225614 0 -0.62932038083071107 0.4719902856230333 0 0.58285947729919207 1 I I -0.70710678118654757 0.70710678118654757 0.75 forward I I I I #
loop $-1 $-1 $197 $49 #
coedge $-1 $125 $125 $198 $199 reversed $78 $-1 #
face $-1 $200 $201 $30 $-1 $202 reversed single #
loop $-1 $-1 $203 $80 #
plane-surface $-1 0 0 -19.764752822542157 0 0 1 1 0 0 forward_v I I I I #
coedge $-1 $204 $205 $206 $207 forward $81 $-1 #
coedge $-1 $208 $83 $209 $210 reversed $51 $-1 #
coedge $-1 $83 $208 $211 $212 forward $51 $-1 #
coedge $-1 $213 $203 $83 $133 forward $127 $-1 #
edge $-1 $214 -65.845515305032507 $215 65.845515305032507 $83 $216 forward 7 unknown #
face $-1 $217 $218 $31 $-1 $219 reversed single #
loop $-1 $-1 $220 $84 #
plane-surface $-1 -65.845515305032507 0 0 1 0 0 0 0 -1 forward_v I I I I #
coedge $-1 $221 $222 $139 $223 forward $85 $-1 #
coedge $-1 $224 $87 $225 $226 reversed $54 $-1 #
coedge $-1 $87 $224 $137 $223 reversed $54 $-1 #
coedge $-1 $227 $228 $87 $141 reversed $229 $-1 #
edge $-1 $230 -19.764752822542157 $231 19.764752822542157 $140 $232 forward 7 unknown #
face $-1 $233 $234 $32 $-1 $235 forward single #
loop $-1 $-1 $236 $88 #
plane-surface $-1 85.312819458016747 -16.235446150013438 197.66913583254529 0 1 0 0.77714596973225614 0 0.62932038083071107 forward_v I I I I #
coedge $-1 $237 $238 $239 $240 reversed $89 $-1 #
coedge $-1 $147 $91 $241 $242 reversed $57 $-1 #
coedge $-1 $91 $146 $237 $243 reversed $57 $-1 #
coedge $-1 $239 $244 $91 $149 forward $234 $-1 #
edge $-1 $245 -23.189105576024133 $246 -17.265843077089286 $148 $247 forward 7 unknown #
loop $-1 $-1 $155 $92 #
plane-surface $-1 -17.030334230482453 -8.4468717931234281 114.79328629703035 0.77714596973225614 0 0.62932038083071107 0.62932038083071107 0 -0.77714596973225614 forward_v I I I I #
loop $-1 $-1 $248 $59 #
coedge $-1 $153 $153 $154 $249 reversed $93 $-1 #
coedge $-1 $154 $154 $153 $249 forward $95 $-1 #
coedge $-1 $155 $155 $96 $156 forward $150 $-1 #
edge $-1 $250 0 $250 6.2831853071796004 $155 $251 forward 7 unknown #
loop $-1 $-1 $162 $97 #
plane-surface $-1 -17.030334230482453 -8.4468717931234281 114.79328629703035 0.77714596973225614 0 0.62932038083071107 0.62932038083071107 0 -0.77714596973225614 forward_v I I I I #
loop $-1 $-1 $252 $62 #
coedge $-1 $160 $160 $161 $253 reversed $98 $-1 #
coedge $-1 $161 $161 $160 $253 forward $100 $-1 #
coedge $-1 $162 $162 $101 $163 forward $157 $-1 #
edge $-1 $254 0 $254 6.2831853071796004 $162 $255 forward 7 unknown #
loop $-1 $-1 $169 $102 #
plane-surface $-1 -17.030334230482453 -8.4468717931234281 114.79328629703035 0.77714596973225614 0 0.62932038083071107 0.62932038083071107 0 -0.77714596973225614 forward_v I I I I #
loop $-1 $-1 $256 $65 #
coedge $-1 $167 $167 $168 $257 reversed $103 $-1 #
coedge $-1 $168 $168 $167 $257 forward $105 $-1 #
coedge $-1 $169 $169 $106 $170 forward $164 $-1 #
edge $-1 $258 0 $258 6.2831853071796004 $169 $259 forward 7 unknown #
face $-1 $260 $261 $36 $-1 $262 reversed single #
loop $-1 $-1 $263 $107 #
plane-surface $-1 -168.18866899353168 -0.65829743623342019 95.325982144046094 0 -1 0 0.77714596973225614 0 -0.62932038083071107 forward_v I I I I #
coedge $-1 $264 $265 $266 $267 reversed $108 $-1 #
coedge $-1 $176 $110 $268 $269 reversed $69 $-1 #
coedge $-1 $110 $175 $264 $270 reversed $69 $-1 #
coedge $-1 $266 $271 $110 $178 forward $272 $-1 #
edge $-1 $273 18.248819191733332 $274 24.172081690668207 $177 $275 forward 7 unknown #
loop $-1 $-1 $184 $111 #
plane-surface $-1 -65.845515305032478 -8.4468717931234281 12.450132608531149 -0.77714596973225614 0 0.62932038083071107 0.62932038083071107 0 0.77714596973225614 forward_v I I I I #
loop $-1 $-1 $276 $71 #
coedge $-1 $182 $182 $183 $277 reversed $112 $-1 #
coedge $-1 $183 $183 $182 $277 forward $114 $-1 #
coedge $-1 $184 $184 $115 $185 forward $179 $-1 #
edge $-1 $278 0 $278 6.2831853071796004 $184 $279 forward 7 unknown #
loop $-1 $-1 $191 $116 #
plane-surface $-1 -65.845515305032478 -8.4468717931234281 12.450132608531149 -0.77714596973225614 0 0.62932038083071107 0.62932038083071107 0 0.77714596973225614 forward_v I I I I #
loop $-1 $-1 $280 $74 #
coedge $-1 $189 $189 $190 $281 reversed $117 $-1 #
coedge $-1 $190 $190 $189 $281 forward $119 $-1 #
coedge $-1 $191 $191 $120 $192 forward $186 $-1 #
edge $-1 $282 0 $282 6.2831853071796004 $191 $283 forward 7 unknown #
loop $-1 $-1 $198 $121 #
plane-surface $-1 -65.845515305032478 -8.4468717931234281 12.450132608531149 -0.77714596973225614 0 0.62932038083071107 0.62932038083071107 0 0.77714596973225614 forward_v I I I I #
loop $-1 $-1 $284 $77 #
coedge $-1 $196 $196 $197 $285 reversed $122 $-1 #
coedge $-1 $197 $197 $196 $285 forward $124 $-1 #
coedge $-1 $198 $198 $125 $199 forward $193 $-1 #
edge $-1 $286 0 $286 6.2831853071796004 $198 $287 forward 7 unknown #
face $-1 $288 $289 $30 $-1 $290 reversed single #
loop $-1 $-1 $291 $126 #
plane-surface $-1 -65.845515305032507 0 0 1 0 0 0 0 -1 forward_v I I I I #
coedge $-1 $132 $292 $293 $294 forward $127 $-1 #
coedge $-1 $295 $129 $296 $297 forward $81 $-1 #
coedge $-1 $129 $295 $208 $298 forward $81 $-1 #
coedge $-1 $209 $299 $129 $207 reversed $300 $-1 #
edge $-1 $301 -39.783013541058097 $302 39.783013541058097 $206 $303 forward 7 unknown #
coedge $-1 $131 $130 $205 $298 reversed $51 $-1 #
coedge $-1 $293 $206 $130 $210 forward $300 $-1 #
edge $-1 $301 -19.764752822542157 $214 19.764752822542157 $209 $304 forward 7 unknown #
coedge $-1 $305 $306 $131 $212 reversed $201 $-1 #
edge $-1 $307 -19.764752822542157 $215 19.764752822542157 $211 $308 forward 7 unknown #
coedge $-1 $292 $132 $306 $309 forward $127 $-1 #
vertex $-1 $210 $310 #
vertex $-1 $309 $311 #
straight-curve $-1 0 -39.783013541058097 -19.764752822542157 -1 0 0 I I #
face $-1 $312 $229 $31 $-1 $313 reversed single #
loop $-1 $-1 $314 $134 #
plane-surface $-1 -62.968476163894188 -63.330580932102762 0 0 1 0 0 0 1 forward_v I I I I #
coedge $-1 $315 $316 $224 $317 forward $135 $-1 #
coedge $-1 $318 $137 $316 $319 forward $85 $-1 #
coedge $-1 $137 $318 $227 $320 forward $85 $-1 #
edge $-1 $230 60.091437022755869 $321 65.845515305032507 $137 $322 forward 7 unknown #
coedge $-1 $139 $138 $220 $317 reversed $54 $-1 #
coedge $-1 $323 $324 $138 $226 forward $325 $-1 #
edge $-1 $326 -65.845515305032507 $231 -60.091437022755869 $225 $327 forward 7 unknown #
coedge $-1 $328 $140 $222 $320 reversed $229 $-1 #
coedge $-1 $140 $328 $323 $329 reversed $229 $-1 #
loop $-1 $-1 $328 $217 #
vertex $-1 $223 $330 #
vertex $-1 $329 $331 #
straight-curve $-1 -60.091437022755869 -39.783013541058097 0 0 0 -1 I I #
face $-1 $-1 $332 $32 $-1 $333 reversed single #
loop $-1 $-1 $148 $142 #
plane-surface $-1 0 0 19.764752822542157 0 0 1 1 0 0 forward_v I I I I #
coedge $-1 $334 $335 $336 $337 reversed $143 $-1 #
coedge $-1 $338 $145 $147 $243 forward $89 $-1 #
coedge $-1 $145 $338 $334 $339 forward $89 $-1 #
coedge $-1 $336 $148 $145 $240 forward $234 $-1 #
edge $-1 $246 -3.5651384603282938 $340 12.012010253451724 $239 $341 forward 7 unknown #
coedge $-1 $342 $343 $146 $242 forward $332 $-1 #
edge $-1 $344 -86.384435307741526 $245 -79.069815093730483 $241 $345 forward 7 unknown #
edge $-1 $246 122.27887317903432 $344 131.69103061006504 $147 $346 forward 7 unknown #
coedge $-1 $148 $336 $342 $347 forward $234 $-1 #
vertex $-1 $242 $348 #
vertex $-1 $149 $349 #
straight-curve $-1 42.656409729008374 -0.65829743623342019 19.764752822542164 -1 0 0 I I #
coedge $-1 $248 $248 $-1 $350 reversed $152 $-1 #
edge $-1 $351 0 $351 6.2831853071796004 $153 $352 forward 7 unknown #
vertex $-1 $156 $353 #
ellipse-curve $-1 62.883884055565076 -13.120016407257431 16.107442715536656 0.77714596973225614 0 0.62932038083071107 0.9439805712460666 0 -1.1657189545983841 1 I I #
coedge $-1 $252 $252 $-1 $354 reversed $159 $-1 #
edge $-1 $355 0 $355 6.2831853071796004 $160 $356 forward 7 unknown #
vertex $-1 $163 $357 #
ellipse-curve $-1 62.883884055565076 -8.4468717931234245 16.107442715536656 0.77714596973225614 0 0.62932038083071107 0.9439805712460666 0 -1.1657189545983841 1 I I #
coedge $-1 $256 $256 $-1 $358 reversed $166 $-1 #
edge $-1 $359 0 $359 6.2831853071796004 $167 $360 forward 7 unknown #
vertex $-1 $170 $361 #
ellipse-curve $-1 62.883884055565076 -3.773727178989418 16.107442715536656 0.77714596973225614 0 0.62932038083071107 0.9439805712460666 0 -1.1657189545983841 1 I I #
face $-1 $-1 $272 $36 $-1 $362 forward single #
loop $-1 $-1 $363 $171 #
plane-surface $-1 -65.845515305032507 0 0 1 0 0 0 0 -1 forward_v I I I I #
coedge $-1 $364 $365 $366 $367 reversed $172 $-1 #
coedge $-1 $368 $174 $176 $270 forward $108 $-1 #
coedge $-1 $174 $368 $364 $369 forward $108 $-1 #
coedge $-1 $366 $177 $174 $267 forward $272 $-1 #
edge $-1 $274 -12.012010253451724 $370 3.5651384603282938 $266 $371 forward 7 unknown #
coedge $-1 $372 $373 $175 $269 forward $261 $-1 #
edge $-1 $374 -35.212858463491933 $273 -27.89823824948089 $268 $375 forward 7 unknown #
edge $-1 $274 -9.4121574310306944 $374 4.5496132173526324e-014 $176 $376 forward 7 unknown #
coedge $-1 $177 $366 $372 $377 forward $272 $-1 #
loop $-1 $-1 $366 $260 #
vertex $-1 $269 $378 #
vertex $-1 $178 $379 #
straight-curve $-1 -84.094334496765839 -16.235446150013438 19.764752822542157 1 0 0 I I #
coedge $-1 $276 $276 $-1 $380 reversed $181 $-1 #
edge $-1 $381 0 $381 6.2831853071796004 $182 $382 forward 7 unknown #
vertex $-1 $185 $383 #
ellipse-curve $-1 -62.883884055565069 -13.120016407257431 16.107442715536639 -0.77714596973225614 0 0.62932038083071107 0.9439805712460666 0 1.1657189545983841 1 I I #
coedge $-1 $280 $280 $-1 $384 reversed $188 $-1 #
edge $-1 $385 0 $385 6.2831853071796004 $189 $386 forward 7 unknown #
vertex $-1 $192 $387 #
ellipse-curve $-1 -62.883884055565069 -8.4468717931234245 16.107442715536639 -0.77714596973225614 0 0.62932038083071107 0.9439805712460666 0 1.1657189545983841 1 I I #
coedge $-1 $284 $284 $-1 $388 reversed $195 $-1 #
edge $-1 $389 0 $389 6.2831853071796004 $196 $390 forward 7 unknown #
vertex $-1 $199 $391 #
ellipse-curve $-1 -62.883884055565069 -3.773727178989418 16.107442715536639 -0.77714596973225614 0 0.62932038083071107 0.9439805712460666 0 1.1657189545983841 1 I I #
face $-1 $-1 $300 $30 $-1 $392 reversed single #
loop $-1 $-1 $393 $200 #
plane-surface $-1 0 39.783013541058097 0 0 -1 0 0 0 -1 forward_v I I I I #
coedge $-1 $306 $305 $394 $395 forward $201 $-1 #
coedge $-1 $203 $213 $396 $397 forward $127 $-1 #
coedge $-1 $299 $209 $203 $294 reversed $300 $-1 #
edge $-1 $398 -39.783013541058097 $214 39.783013541058097 $293 $399 forward 7 unknown #
coedge $-1 $205 $204 $305 $400 forward $81 $-1 #
coedge $-1 $393 $394 $204 $297 reversed $289 $-1 #
edge $-1 $302 -65.845515305032507 $401 65.845515305032507 $296 $402 forward 7 unknown #
edge $-1 $307 -65.845515305032507 $301 65.845515305032507 $208 $403 forward 7 unknown #
coedge $-1 $206 $293 $393 $404 reversed $300 $-1 #
loop $-1 $-1 $209 $288 #
vertex $-1 $207 $405 #
vertex $-1 $207 $406 #
straight-curve $-1 65.845515305032507 0 19.764752822542157 0 1 0 I I #
straight-curve $-1 65.845515305032507 -39.783013541058097 0 0 0 -1 I I #
coedge $-1 $291 $211 $295 $400 reversed $201 $-1 #
coedge $-1 $211 $291 $213 $309 reversed $201 $-1 #
vertex $-1 $400 $407 #
straight-curve $-1 -65.845515305032507 -39.783013541058097 0 0 0 -1 I I #
edge $-1 $215 -39.783013541058097 $408 39.783013541058097 $306 $409 forward 7 unknown #
point $-1 65.845515305032507 -39.783013541058097 -19.764752822542157 #
point $-1 -65.845515305032507 -39.783013541058097 -19.764752822542157 #
face $-1 $-1 $325 $31 $-1 $410 reversed single #
plane-surface $-1 -60.091437022755869 -51.556797236580429 0 -1 0 0 0 0 1 forward_v I I I I #
coedge $-1 $411 $412 $413 $414 forward $218 $-1 #
coedge $-1 $413 $220 $324 $415 reversed $135 $-1 #
coedge $-1 $220 $413 $221 $319 reversed $135 $-1 #
edge $-1 $321 -19.764752822542157 $326 19.764752822542157 $220 $416 forward 7 unknown #
coedge $-1 $222 $221 $412 $417 forward $85 $-1 #
edge $-1 $321 39.783013541058097 $418 63.330580932102762 $316 $419 forward 7 unknown #
edge $-1 $420 -11.773783695522333 $230 11.773783695522333 $227 $421 forward 7 unknown #
vertex $-1 $319 $422 #
straight-curve $-1 0 -39.783013541058097 19.764752822542157 -1 0 0 I I #
coedge $-1 $423 $225 $228 $329 forward $325 $-1 #
coedge $-1 $225 $423 $315 $415 forward $325 $-1 #
loop $-1 $-1 $225 $312 #
vertex $-1 $317 $424 #
straight-curve $-1 0 -39.783013541058097 -19.764752822542157 1 0 0 I I #
coedge $-1 $228 $227 $425 $426 forward $229 $-1 #
edge $-1 $231 -11.773783695522333 $427 11.773783695522333 $228 $428 forward 7 unknown #
point $-1 -60.091437022755869 -39.783013541058097 19.764752822542157 #
point $-1 -60.091437022755869 -39.783013541058097 -19.764752822542157 #
loop $-1 $-1 $241 $233 #
plane-surface $-1 65.845515305032507 0 0 -1 0 0 0 0 1 forward_v I I I I #
coedge $-1 $335 $236 $238 $339 reversed $143 $-1 #
coedge $-1 $236 $334 $429 $430 reversed $143 $-1 #
coedge $-1 $244 $239 $236 $337 forward $234 $-1 #
edge $-1 $340 17.265843077089286 $431 23.189105576024133 $336 $432 forward 7 unknown #
coedge $-1 $238 $237 $343 $433 reversed $89 $-1 #
edge $-1 $434 -131.69103061006504 $340 -122.27887317903432 $334 $435 forward 7 unknown #
vertex $-1 $240 $436 #
straight-curve $-1 59.922252806097646 -4.223435896561714 19.764752822542157 0 -1 0 I I #
coedge $-1 $429 $241 $244 $347 reversed $332 $-1 #
coedge $-1 $241 $429 $338 $433 forward $332 $-1 #
vertex $-1 $242 $437 #
straight-curve $-1 65.845515305032507 -0.65829743623342019 98.834567916272647 0 0 1 I I #
straight-curve $-1 -17.030334230482453 -0.65829743623342019 114.79328629703035 0.62932038083071107 0 -0.77714596973225614 I I #
edge $-1 $431 -16.235446150013438 $245 -0.65829743623342019 $342 $438 forward 7 unknown #
point $-1 65.845515305032507 -0.65829743623342019 19.764752822542157 #
point $-1 59.92225280609766 -0.65829743623342019 19.76475282254215 #
edge $-1 $439 1 $439 0 $248 $-1 forward 7 unknown #
vertex $-1 $249 $440 #
ellipse-curve $-1 60.613103234828969 -13.120016407257431 14.26860071345941 0.77714596973225614 0 0.62932038083071107 0.9439805712460666 0 -1.1657189545983841 1 I I #
point $-1 63.827864626811149 -13.120016407257431 14.941723760938276 #
edge $-1 $441 1 $441 0 $252 $-1 forward 7 unknown #
vertex $-1 $253 $442 #
ellipse-curve $-1 60.613103234828969 -8.4468717931234245 14.26860071345941 0.77714596973225614 0 0.62932038083071107 0.9439805712460666 0 -1.1657189545983841 1 I I #
point $-1 63.827864626811149 -8.4468717931234245 14.941723760938276 #
edge $-1 $443 1 $443 0 $256 $-1 forward 7 unknown #
vertex $-1 $257 $444 #
ellipse-curve $-1 60.613103234828969 -3.773727178989418 14.26860071345941 0.77714596973225614 0 0.62932038083071107 0.9439805712460666 0 -1.1657189545983841 1 I I #
point $-1 63.827864626811149 -3.773727178989418 14.941723760938276 #
plane-surface $-1 0 0 19.764752822542157 0 0 1 1 0 0 forward_v I I I I #
coedge $-1 $373 $372 $365 $445 forward $261 $-1 #
coedge $-1 $365 $263 $265 $369 reversed $172 $-1 #
coedge $-1 $263 $364 $363 $445 reversed $172 $-1 #
coedge $-1 $271 $266 $263 $367 forward $272 $-1 #
edge $-1 $370 -24.172081690668207 $446 -18.248819191733332 $366 $447 forward 7 unknown #
coedge $-1 $265 $264 $373 $448 reversed $108 $-1 #
edge $-1 $449 -4.5496132173526324e-014 $370 9.4121574310306944 $364 $450 forward 7 unknown #
vertex $-1 $267 $451 #
straight-curve $-1 -59.922252806097632 -4.223435896561714 19.764752822542157 0 1 0 I I #
coedge $-1 $363 $268 $271 $377 reversed $261 $-1 #
coedge $-1 $268 $363 $368 $448 forward $261 $-1 #
vertex $-1 $269 $452 #
straight-curve $-1 -65.845515305032507 -16.235446150013438 47.662991072023047 0 0 1 I I #
straight-curve $-1 -65.845515305032478 -16.235446150013438 12.450132608531149 -0.62932038083071107 0 -0.77714596973225614 I I #
edge $-1 $446 0.65829743623342019 $273 16.235446150013438 $372 $453 forward 7 unknown #
point $-1 -65.845515305032507 -16.235446150013438 19.764752822542157 #
point $-1 -59.922252806097632 -16.235446150013438 19.764752822542157 #
edge $-1 $454 1 $454 0 $276 $-1 forward 7 unknown #
vertex $-1 $277 $455 #
ellipse-curve $-1 -60.613103234828984 -13.120016407257431 14.26860071345941 -0.77714596973225614 0 0.62932038083071107 0.9439805712460666 0 1.1657189545983841 1 I I #
point $-1 -61.939903484319032 -13.120016407257431 17.273161670135046 #
edge $-1 $456 1 $456 0 $280 $-1 forward 7 unknown #
vertex $-1 $281 $457 #
ellipse-curve $-1 -60.613103234828984 -8.4468717931234245 14.26860071345941 -0.77714596973225614 0 0.62932038083071107 0.9439805712460666 0 1.1657189545983841 1 I I #
point $-1 -61.939903484319032 -8.4468717931234245 17.273161670135046 #
edge $-1 $458 1 $458 0 $284 $-1 forward 7 unknown #
vertex $-1 $285 $459 #
ellipse-curve $-1 -60.613103234828984 -3.773727178989418 14.26860071345941 -0.77714596973225614 0 0.62932038083071107 0.9439805712460666 0 1.1657189545983841 1 I I #
point $-1 -61.939903484319032 -3.773727178989418 17.273161670135046 #
plane-surface $-1 65.845515305032507 0 0 -1 0 0 0 0 1 forward_v I I I I #
coedge $-1 $396 $296 $299 $404 forward $289 $-1 #
coedge $-1 $296 $396 $291 $395 reversed $289 $-1 #
edge $-1 $401 -19.764752822542157 $408 19.764752822542157 $394 $460 forward 7 unknown #
coedge $-1 $394 $393 $292 $397 reversed $289 $-1 #
edge $-1 $408 -65.845515305032507 $398 65.845515305032507 $396 $461 forward 7 unknown #
vertex $-1 $294 $462 #
straight-curve $-1 65.845515305032507 0 -19.764752822542157 0 -1 0 I I #
edge $-1 $401 -39.783013541058097 $307 39.783013541058097 $305 $463 forward 7 unknown #
vertex $-1 $297 $464 #
straight-curve $-1 0 39.783013541058097 19.764752822542157 -1 0 0 I I #
straight-curve $-1 0 -39.783013541058097 19.764752822542157 1 0 0 I I #
edge $-1 $302 -19.764752822542157 $398 19.764752822542157 $299 $465 forward 7 unknown #
point $-1 65.845515305032507 -39.783013541058097 19.764752822542157 #
point $-1 65.845515305032507 39.783013541058097 19.764752822542157 #
point $-1 -65.845515305032507 -39.783013541058097 19.764752822542157 #
vertex $-1 $397 $466 #
straight-curve $-1 -65.845515305032507 0 -19.764752822542157 0 1 0 I I #
plane-surface $-1 0 0 -19.764752822542157 0 0 1 1 0 0 forward_v I I I I #
coedge $-1 $425 $314 $423 $467 reversed $218 $-1 #
coedge $-1 $314 $425 $318 $417 reversed $218 $-1 #
coedge $-1 $316 $315 $314 $414 reversed $135 $-1 #
edge $-1 $418 -19.764752822542157 $468 19.764752822542157 $413 $469 forward 7 unknown #
edge $-1 $468 -63.330580932102762 $326 -39.783013541058097 $315 $470 forward 7 unknown #
straight-curve $-1 -65.845515305032507 -39.783013541058097 0 0 0 -1 I I #
edge $-1 $418 -2.8770391411383187 $420 2.8770391411383187 $412 $471 forward 7 unknown #
vertex $-1 $319 $472 #
straight-curve $-1 -65.845515305032507 0 19.764752822542157 0 -1 0 I I #
vertex $-1 $320 $473 #
straight-curve $-1 -60.091437022755869 -51.556797236580429 19.764752822542157 0 1 0 I I #
point $-1 -65.845515305032507 -39.783013541058097 19.764752822542157 #
coedge $-1 $324 $323 $411 $467 forward $325 $-1 #
point $-1 -65.845515305032507 -39.783013541058097 -19.764752822542157 #
coedge $-1 $412 $411 $328 $426 reversed $218 $-1 #
edge $-1 $420 -19.764752822542157 $427 19.764752822542157 $328 $474 forward 7 unknown #
vertex $-1 $426 $475 #
straight-curve $-1 -60.091437022755869 -51.556797236580429 -19.764752822542157 0 -1 0 I I #
coedge $-1 $343 $342 $335 $430 forward $332 $-1 #
edge $-1 $431 79.069815093730483 $434 86.384435307741526 $429 $476 forward 7 unknown #
vertex $-1 $347 $477 #
straight-curve $-1 42.656409729008374 -16.235446150013438 19.764752822542164 1 0 0 I I #
edge $-1 $434 -12.012010253451724 $344 3.5651384603282938 $343 $478 forward 7 unknown #
vertex $-1 $433 $479 #
straight-curve $-1 -17.030334230482453 -16.235446150013438 114.79328629703035 -0.62932038083071107 0 0.77714596973225614 I I #
point $-1 59.92225280609766 -16.235446150013438 19.76475282254215 #
point $-1 65.845515305032507 -0.65829743623342019 12.450132608531121 #
straight-curve $-1 65.845515305032507 0 19.764752822542157 0 1 0 I I #
vertex $-1 $350 $480 #
point $-1 61.557083806075035 -13.120016407257431 13.102881758861027 #
vertex $-1 $354 $481 #
point $-1 61.557083806075035 -8.4468717931234245 13.102881758861027 #
vertex $-1 $358 $482 #
point $-1 61.557083806075035 -3.773727178989418 13.102881758861027 #
edge $-1 $446 27.89823824948089 $449 35.212858463491933 $363 $483 forward 7 unknown #
vertex $-1 $377 $484 #
straight-curve $-1 -84.094334496765839 -0.65829743623342019 19.764752822542157 -1 0 0 I I #
edge $-1 $449 -3.5651384603282938 $374 12.012010253451724 $373 $485 forward 7 unknown #
vertex $-1 $448 $486 #
straight-curve $-1 -65.845515305032478 -0.65829743623342019 12.450132608531149 0.62932038083071107 0 0.77714596973225614 I I #
point $-1 -59.922252806097632 -0.65829743623342019 19.764752822542157 #
point $-1 -65.845515305032507 -16.235446150013438 12.450132608531113 #
straight-curve $-1 -65.845515305032507 0 19.764752822542157 0 -1 0 I I #
vertex $-1 $380 $487 #
point $-1 -59.669122663582911 -13.120016407257431 15.434319668057794 #
vertex $-1 $384 $488 #
point $-1 -59.669122663582911 -8.4468717931234245 15.434319668057794 #
vertex $-1 $388 $489 #
point $-1 -59.669122663582911 -3.773727178989418 15.434319668057794 #
straight-curve $-1 -65.845515305032507 39.783013541058097 0 0 0 -1 I I #
straight-curve $-1 0 39.783013541058097 -19.764752822542157 1 0 0 I I #
point $-1 65.845515305032507 39.783013541058097 -19.764752822542157 #
straight-curve $-1 -65.845515305032507 0 19.764752822542157 0 -1 0 I I #
point $-1 -65.845515305032507 39.783013541058097 19.764752822542157 #
straight-curve $-1 65.845515305032507 39.783013541058097 0 0 0 -1 I I #
point $-1 -65.845515305032507 39.783013541058097 -19.764752822542157 #
edge $-1 $427 -2.8770391411383187 $468 2.8770391411383187 $411 $490 forward 7 unknown #
vertex $-1 $415 $491 #
straight-curve $-1 -65.845515305032507 -63.330580932102762 0 0 0 -1 I I #
straight-curve $-1 -65.845515305032507 0 -19.764752822542157 0 1 0 I I #
straight-curve $-1 -62.968476163894188 -63.330580932102762 19.764752822542157 1 0 0 I I #
point $-1 -65.845515305032507 -63.330580932102762 19.764752822542157 #
point $-1 -60.091437022755869 -63.330580932102762 19.764752822542157 #
straight-curve $-1 -60.091437022755869 -63.330580932102762 0 0 0 -1 I I #
point $-1 -60.091437022755869 -63.330580932102762 -19.764752822542157 #
straight-curve $-1 65.845515305032507 -16.235446150013438 98.834567916272647 0 0 -1 I I #
point $-1 65.845515305032507 -16.235446150013438 19.764752822542157 #
straight-curve $-1 65.845515305032507 -4.223435896561714 12.450132608531121 0 1 0 I I #
point $-1 65.845515305032507 -16.235446150013438 12.450132608531121 #
point $-1 59.44738428023058 -13.120016407257431 13.324620142213345 #
point $-1 59.44738428023058 -8.4468717931234245 13.324620142213345 #
point $-1 59.44738428023058 -3.773727178989418 13.324620142213345 #
straight-curve $-1 -65.845515305032507 -0.65829743623342019 47.662991072023047 0 0 -1 I I #
point $-1 -65.845515305032507 -0.65829743623342019 19.764752822542157 #
straight-curve $-1 -65.845515305032507 -4.223435896561714 12.45013260853111 0 -1 0 I I #
point $-1 -65.845515305032507 -0.65829743623342019 12.450132608531113 #
point $-1 -59.447384280230594 -13.120016407257431 13.324620142213345 #
point $-1 -59.447384280230594 -8.4468717931234245 13.324620142213345 #
point $-1 -59.447384280230594 -3.773727178989418 13.324620142213345 #
straight-curve $-1 -62.968476163894188 -63.330580932102762 -19.764752822542157 -1 0 0 I I #
point $-1 -65.845515305032507 -63.330580932102762 -19.764752822542157 #
End-of-ACIS-data 