500 0 18 0           
7 Unknown 11 ACIS 5.0 NT 24 Fri Mar 26 14:44:52 1999 
-1 9.9999999999999995e-007 1e-010 
body $-1 $18 $-1 $19 #
body $-1 $20 $-1 $21 #
body $-1 $22 $-1 $23 #
body $-1 $24 $-1 $25 #
body $-1 $26 $-1 $27 #
body $-1 $28 $-1 $29 #
body $-1 $30 $-1 $31 #
body $-1 $32 $-1 $33 #
body $-1 $34 $-1 $35 #
body $-1 $36 $-1 $37 #
body $-1 $38 $-1 $39 #
body $-1 $40 $-1 $41 #
body $-1 $42 $-1 $43 #
body $-1 $44 $-1 $45 #
body $-1 $46 $-1 $47 #
body $-1 $48 $-1 $49 #
body $-1 $50 $-1 $51 #
body $-1 $52 $-1 $53 #
lump $-1 $-1 $54 $0 #
transform $-1 1 0 0 0 1 0 0 0 1 64.794457838679165 40.284011830310618 14.235684017051172 1 rotate no_reflect no_shear #
lump $-1 $-1 $55 $1 #
transform $-1 1 0 0 0 1 0 0 0 1 64.794457838679165 40.284011830310618 14.235684017051172 1 rotate no_reflect no_shear #
lump $-1 $-1 $56 $2 #
transform $-1 1 0 0 0 1 0 0 0 1 64.794457838679165 40.284011830310618 14.235684017051172 1 rotate no_reflect no_shear #
lump $-1 $-1 $57 $3 #
transform $-1 1 0 0 0 1 0 0 0 1 64.794457838679165 40.284011830310618 14.235684017051172 1 rotate no_reflect no_shear #
lump $-1 $-1 $58 $4 #
transform $-1 1 0 0 0 1 0 0 0 1 64.794457838679165 40.284011830310618 14.235684017051172 1 rotate no_reflect no_shear #
lump $-1 $-1 $59 $5 #
transform $-1 1 0 0 0 1 0 0 0 1 64.794457838679165 40.284011830310618 14.235684017051172 1 rotate no_reflect no_shear #
lump $-1 $-1 $60 $6 #
transform $-1 1 0 0 0 1 0 0 0 1 64.794457838679165 40.284011830310618 14.235684017051172 1 rotate no_reflect no_shear #
lump $-1 $-1 $61 $7 #
transform $-1 1 0 0 0 1 0 0 0 1 64.794457838679165 40.284011830310618 14.235684017051172 1 rotate no_reflect no_shear #
lump $-1 $-1 $62 $8 #
transform $-1 1 0 0 0 1 0 0 0 1 64.794457838679165 40.284011830310618 14.235684017051172 1 rotate no_reflect no_shear #
lump $-1 $-1 $63 $9 #
transform $-1 1 0 0 0 1 0 0 0 1 64.794457838679165 40.284011830310618 14.235684017051172 1 rotate no_reflect no_shear #
lump $-1 $-1 $64 $10 #
transform $-1 1 0 0 0 1 0 0 0 1 64.794457838679165 40.284011830310618 14.235684017051172 1 rotate no_reflect no_shear #
lump $-1 $-1 $65 $11 #
transform $-1 1 0 0 0 1 0 0 0 1 64.794457838679165 40.284011830310618 14.235684017051172 1 rotate no_reflect no_shear #
lump $-1 $-1 $66 $12 #
transform $-1 1 0 0 0 1 0 0 0 1 64.794457838679165 40.284011830310618 14.235684017051172 1 rotate no_reflect no_shear #
lump $-1 $-1 $67 $13 #
transform $-1 1 0 0 0 1 0 0 0 1 64.794457838679165 40.284011830310618 14.235684017051172 1 rotate no_reflect no_shear #
lump $-1 $-1 $68 $14 #
transform $-1 1 0 0 0 1 0 0 0 1 64.794457838679165 40.284011830310618 14.235684017051172 1 rotate no_reflect no_shear #
lump $-1 $-1 $69 $15 #
transform $-1 1 0 0 0 1 0 0 0 1 64.794457838679165 40.284011830310618 14.235684017051172 1 rotate no_reflect no_shear #
lump $-1 $-1 $70 $16 #
transform $-1 1 0 0 0 1 0 0 0 1 64.794457838679165 40.284011830310618 14.235684017051172 1 rotate no_reflect no_shear #
lump $-1 $-1 $71 $17 #
transform $-1 1 0 0 0 1 0 0 0 1 64.794457838679165 40.284011830310618 14.235684017051172 1 rotate no_reflect no_shear #
shell $-1 $-1 $-1 $72 $-1 $18 #
shell $-1 $-1 $-1 $73 $-1 $20 #
shell $-1 $-1 $-1 $74 $-1 $22 #
shell $-1 $-1 $-1 $75 $-1 $24 #
shell $-1 $-1 $-1 $76 $-1 $26 #
shell $-1 $-1 $-1 $77 $-1 $28 #
shell $-1 $-1 $-1 $78 $-1 $30 #
shell $-1 $-1 $-1 $79 $-1 $32 #
shell $-1 $-1 $-1 $80 $-1 $34 #
shell $-1 $-1 $-1 $81 $-1 $36 #
shell $-1 $-1 $-1 $82 $-1 $38 #
shell $-1 $-1 $-1 $83 $-1 $40 #
shell $-1 $-1 $-1 $84 $-1 $42 #
shell $-1 $-1 $-1 $85 $-1 $44 #
shell $-1 $-1 $-1 $86 $-1 $46 #
shell $-1 $-1 $-1 $87 $-1 $48 #
shell $-1 $-1 $-1 $88 $-1 $50 #
shell $-1 $-1 $-1 $89 $-1 $52 #
face $-1 $90 $91 $54 $-1 $92 forward single #
face $-1 $93 $94 $55 $-1 $95 reversed single #
face $-1 $96 $97 $56 $-1 $98 reversed single #
face $-1 $99 $100 $57 $-1 $101 forward single #
face $-1 $102 $103 $58 $-1 $104 forward single #
face $-1 $105 $106 $59 $-1 $107 forward single #
face $-1 $108 $109 $60 $-1 $110 reversed single #
face $-1 $111 $112 $61 $-1 $113 forward single #
face $-1 $114 $115 $62 $-1 $116 forward single #
face $-1 $117 $118 $63 $-1 $119 forward single #
face $-1 $120 $121 $64 $-1 $122 reversed single #
face $-1 $123 $124 $65 $-1 $125 forward single #
face $-1 $126 $127 $66 $-1 $128 forward single #
face $-1 $129 $130 $67 $-1 $131 forward single #
face $-1 $132 $133 $68 $-1 $134 reversed single #
face $-1 $135 $136 $69 $-1 $137 forward single #
face $-1 $138 $139 $70 $-1 $140 forward single #
face $-1 $141 $142 $71 $-1 $143 forward single #
face $-1 $144 $145 $54 $-1 $146 reversed single #
loop $-1 $-1 $147 $72 #
plane-surface $-1 0 0 14.235684017051172 0 0 1 1 0 0 forward_v I I I I #
face $-1 $148 $149 $55 $-1 $150 reversed single #
loop $-1 $-1 $151 $73 #
plane-surface $-1 -58.812094860584338 0 8.6372504900110147 0 0 1 1 0 0 forward_v I I I I #
face $-1 $152 $153 $56 $-1 $154 reversed single #
loop $-1 $-1 $155 $74 #
plane-surface $-1 -29.557789356385502 -136.58734502831717 95.36455450233413 -1 0 0 0 -0.74314483375859142 0.66913059716165679 forward_v I I I I #
face $-1 $156 $157 $57 $-1 $158 forward single #
loop $-1 $159 $160 $75 #
cone-surface $-1 -48.175343377268717 -36.314941153346616 10.133558760133873 0 0.74314483375859142 -0.66913059716165679 1.5 0 0 1 I I 0 1 1.5 forward I I I I #
face $-1 $161 $162 $58 $-1 $163 forward single #
loop $-1 $164 $165 $76 #
cone-surface $-1 -41.193760619437512 -36.314941153346616 10.133558760133873 0 0.74314483375859142 -0.66913059716165679 1.5 0 0 1 I I 0 1 1.5 forward I I I I #
face $-1 $166 $167 $59 $-1 $168 forward single #
loop $-1 $169 $170 $77 #
cone-surface $-1 -34.212177861606307 -36.314941153346616 10.133558760133873 0 0.74314483375859142 -0.66913059716165679 1.5 0 0 1 I I 0 1 1.5 forward I I I I #
face $-1 $171 $172 $60 $-1 $173 reversed single #
loop $-1 $-1 $174 $78 #
plane-surface $-1 41.522515312575123 -136.58734502831717 95.36455450233413 1 0 0 0 0.74314483375859142 -0.66913059716165679 forward_v I I I I #
face $-1 $175 $176 $61 $-1 $177 forward single #
loop $-1 $178 $179 $79 #
cone-surface $-1 46.176903817795932 -36.314941153346616 10.133558760133873 0 0.74314483375859142 -0.66913059716165679 1.5 0 0 1 I I 0 1 1.5 forward I I I I #
face $-1 $180 $181 $62 $-1 $182 forward single #
loop $-1 $183 $184 $80 #
cone-surface $-1 53.158486575627137 -36.314941153346616 10.133558760133873 0 0.74314483375859142 -0.66913059716165679 1.5 0 0 1 I I 0 1 1.5 forward I I I I #
face $-1 $185 $186 $63 $-1 $187 forward single #
loop $-1 $188 $189 $81 #
cone-surface $-1 60.140069333458342 -36.314941153346616 10.133558760133873 0 0.74314483375859142 -0.66913059716165679 1.5 0 0 1 I I 0 1 1.5 forward I I I I #
face $-1 $190 $191 $64 $-1 $192 reversed single #
loop $-1 $-1 $193 $82 #
plane-surface $-1 -29.557789356385502 82.6768152441512 155.23826505186477 -1 0 0 0 0.74314483375859142 0.66913059716165679 forward_v I I I I #
face $-1 $194 $195 $65 $-1 $196 forward single #
loop $-1 $197 $198 $83 #
cone-surface $-1 -48.175343377268717 36.314941153346616 10.13355876013388 0 -0.74314483375859142 -0.66913059716165679 1.5 0 0 1 I I 0 1 1.5 forward I I I I #
face $-1 $199 $200 $66 $-1 $201 forward single #
loop $-1 $202 $203 $84 #
cone-surface $-1 -41.193760619437512 36.314941153346616 10.13355876013388 0 -0.74314483375859142 -0.66913059716165679 1.5 0 0 1 I I 0 1 1.5 forward I I I I #
face $-1 $204 $205 $67 $-1 $206 forward single #
loop $-1 $207 $208 $85 #
cone-surface $-1 -34.212177861606307 36.314941153346616 10.13355876013388 0 -0.74314483375859142 -0.66913059716165679 1.5 0 0 1 I I 0 1 1.5 forward I I I I #
face $-1 $209 $210 $68 $-1 $211 reversed single #
loop $-1 $-1 $212 $86 #
plane-surface $-1 53.158486575627137 -13.626517953855384 68.526356519142411 0 0.74314483375859142 0.66913059716165679 1 0 0 forward_v I I I I #
face $-1 $213 $214 $69 $-1 $215 forward single #
loop $-1 $216 $217 $87 #
cone-surface $-1 46.176903817795932 36.314941153346616 10.13355876013388 0 -0.74314483375859142 -0.66913059716165679 1.5 0 0 1 I I 0 1 1.5 forward I I I I #
face $-1 $218 $219 $70 $-1 $220 forward single #
loop $-1 $221 $222 $88 #
cone-surface $-1 53.158486575627137 36.314941153346616 10.13355876013388 0 -0.74314483375859142 -0.66913059716165679 1.5 0 0 1 I I 0 1 1.5 forward I I I I #
face $-1 $223 $224 $71 $-1 $225 forward single #
loop $-1 $226 $227 $89 #
cone-surface $-1 60.140069333458342 36.314941153346616 10.13355876013388 0 -0.74314483375859142 -0.66913059716165679 1.5 0 0 1 I I 0 1 1.5 forward I I I I #
face $-1 $228 $229 $54 $-1 $230 reversed single #
loop $-1 $-1 $231 $90 #
plane-surface $-1 0 0 -14.235684017051172 0 0 1 1 0 0 forward_v I I I I #
coedge $-1 $232 $233 $234 $235 forward $91 $-1 #
face $-1 $236 $237 $55 $-1 $238 reversed single #
loop $-1 $-1 $239 $93 #
plane-surface $-1 -52.829731882489511 0 11.436467253531093 -1 0 0 0 0 1 forward_v I I I I #
coedge $-1 $240 $241 $242 $243 forward $94 $-1 #
face $-1 $244 $245 $56 $-1 $246 forward single #
loop $-1 $-1 $247 $96 #
plane-surface $-1 -41.193760619437512 -40.28401183031059 8.6526459696117684 0 -0.74314483375859142 0.66913059716165679 1 0 0 forward_v I I I I #
coedge $-1 $248 $249 $250 $251 reversed $97 $-1 #
face $-1 $-1 $252 $57 $-1 $253 forward single #
loop $-1 $254 $255 $99 #
cone-surface $-1 -48.175343377268717 -34.302006807198239 8.3211045790650271 0 0.74314483375859142 -0.66913059716165679 0.75 0 0 1 I I -0.70710678118654757 0.70710678118654757 0.75 forward I I I I #
loop $-1 $-1 $256 $75 #
coedge $-1 $160 $160 $257 $258 reversed $100 $-1 #
face $-1 $-1 $259 $58 $-1 $260 forward single #
loop $-1 $261 $262 $102 #
cone-surface $-1 -41.193760619437512 -34.302006807198239 8.3211045790650271 0 0.74314483375859142 -0.66913059716165679 0.75 0 0 1 I I -0.70710678118654757 0.70710678118654757 0.75 forward I I I I #
loop $-1 $-1 $263 $76 #
coedge $-1 $165 $165 $264 $265 reversed $103 $-1 #
face $-1 $-1 $266 $59 $-1 $267 forward single #
loop $-1 $268 $269 $105 #
cone-surface $-1 -34.212177861606307 -34.302006807198239 8.3211045790650271 0 0.74314483375859142 -0.66913059716165679 0.75 0 0 1 I I -0.70710678118654757 0.70710678118654757 0.75 forward I I I I #
loop $-1 $-1 $270 $77 #
coedge $-1 $170 $170 $271 $272 reversed $106 $-1 #
face $-1 $273 $274 $60 $-1 $275 reversed single #
loop $-1 $-1 $276 $108 #
plane-surface $-1 53.158486575627137 -40.28401183031059 8.6526459696117684 0 -0.74314483375859142 0.66913059716165679 1 0 0 forward_v I I I I #
coedge $-1 $277 $278 $279 $280 reversed $109 $-1 #
face $-1 $-1 $281 $61 $-1 $282 forward single #
loop $-1 $283 $284 $111 #
cone-surface $-1 46.176903817795932 -34.302006807198239 8.3211045790650271 0 0.74314483375859142 -0.66913059716165679 0.75 0 0 1 I I -0.70710678118654757 0.70710678118654757 0.75 forward I I I I #
loop $-1 $-1 $285 $79 #
coedge $-1 $179 $179 $286 $287 reversed $112 $-1 #
face $-1 $-1 $288 $62 $-1 $289 forward single #
loop $-1 $290 $291 $114 #
cone-surface $-1 53.158486575627137 -34.302006807198239 8.3211045790650271 0 0.74314483375859142 -0.66913059716165679 0.75 0 0 1 I I -0.70710678118654757 0.70710678118654757 0.75 forward I I I I #
loop $-1 $-1 $292 $80 #
coedge $-1 $184 $184 $293 $294 reversed $115 $-1 #
face $-1 $-1 $295 $63 $-1 $296 forward single #
loop $-1 $297 $298 $117 #
cone-surface $-1 60.140069333458342 -34.302006807198239 8.3211045790650271 0 0.74314483375859142 -0.66913059716165679 0.75 0 0 1 I I -0.70710678118654757 0.70710678118654757 0.75 forward I I I I #
loop $-1 $-1 $299 $81 #
coedge $-1 $189 $189 $300 $301 reversed $118 $-1 #
face $-1 $302 $303 $64 $-1 $304 forward single #
loop $-1 $-1 $305 $120 #
plane-surface $-1 -41.193760619437512 -13.626517953855384 68.526356519142411 0 0.74314483375859142 0.66913059716165679 1 0 0 forward_v I I I I #
coedge $-1 $306 $307 $308 $309 reversed $121 $-1 #
face $-1 $-1 $310 $65 $-1 $311 forward single #
loop $-1 $312 $313 $123 #
cone-surface $-1 -48.175343377268717 34.302006807198239 8.3211045790650342 0 -0.74314483375859142 -0.66913059716165679 0.75 0 0 1 I I -0.70710678118654757 0.70710678118654757 0.75 forward I I I I #
loop $-1 $-1 $314 $83 #
coedge $-1 $198 $198 $315 $316 reversed $124 $-1 #
face $-1 $-1 $317 $66 $-1 $318 forward single #
loop $-1 $319 $320 $126 #
cone-surface $-1 -41.193760619437512 34.302006807198239 8.3211045790650342 0 -0.74314483375859142 -0.66913059716165679 0.75 0 0 1 I I -0.70710678118654757 0.70710678118654757 0.75 forward I I I I #
loop $-1 $-1 $321 $84 #
coedge $-1 $203 $203 $322 $323 reversed $127 $-1 #
face $-1 $-1 $324 $67 $-1 $325 forward single #
loop $-1 $326 $327 $129 #
cone-surface $-1 -34.212177861606307 34.302006807198239 8.3211045790650342 0 -0.74314483375859142 -0.66913059716165679 0.75 0 0 1 I I -0.70710678118654757 0.70710678118654757 0.75 forward I I I I #
loop $-1 $-1 $328 $85 #
coedge $-1 $208 $208 $329 $330 reversed $130 $-1 #
face $-1 $331 $332 $68 $-1 $333 forward single #
loop $-1 $-1 $334 $132 #
plane-surface $-1 41.522515312575123 82.6768152441512 155.23826505186477 1 0 0 0 -0.74314483375859142 -0.66913059716165679 forward_v I I I I #
coedge $-1 $335 $336 $337 $338 reversed $133 $-1 #
face $-1 $-1 $339 $69 $-1 $340 forward single #
loop $-1 $341 $342 $135 #
cone-surface $-1 46.176903817795932 34.302006807198239 8.3211045790650342 0 -0.74314483375859142 -0.66913059716165679 0.75 0 0 1 I I -0.70710678118654757 0.70710678118654757 0.75 forward I I I I #
loop $-1 $-1 $343 $87 #
coedge $-1 $217 $217 $344 $345 reversed $136 $-1 #
face $-1 $-1 $346 $70 $-1 $347 forward single #
loop $-1 $348 $349 $138 #
cone-surface $-1 53.158486575627137 34.302006807198239 8.3211045790650342 0 -0.74314483375859142 -0.66913059716165679 0.75 0 0 1 I I -0.70710678118654757 0.70710678118654757 0.75 forward I I I I #
loop $-1 $-1 $350 $88 #
coedge $-1 $222 $222 $351 $352 reversed $139 $-1 #
face $-1 $-1 $353 $71 $-1 $354 forward single #
loop $-1 $355 $356 $141 #
cone-surface $-1 60.140069333458342 34.302006807198239 8.3211045790650342 0 -0.74314483375859142 -0.66913059716165679 0.75 0 0 1 I I -0.70710678118654757 0.70710678118654757 0.75 forward I I I I #
loop $-1 $-1 $357 $89 #
coedge $-1 $227 $227 $358 $359 reversed $142 $-1 #
face $-1 $360 $361 $54 $-1 $362 reversed single #
loop $-1 $-1 $363 $144 #
plane-surface $-1 0 -40.284011830310618 0 0 1 0 0 0 1 forward_v I I I I #
coedge $-1 $364 $365 $366 $367 forward $145 $-1 #
coedge $-1 $368 $147 $369 $370 forward $91 $-1 #
coedge $-1 $147 $368 $371 $372 forward $91 $-1 #
coedge $-1 $373 $374 $147 $235 reversed $375 $-1 #
edge $-1 $376 -40.284011830310618 $377 40.284011830310618 $234 $378 forward 7 unknown #
face $-1 $379 $380 $55 $-1 $381 reversed single #
loop $-1 $-1 $382 $148 #
plane-surface $-1 0 40.284011830310618 0 0 -1 0 0 0 -1 forward_v I I I I #
coedge $-1 $383 $384 $385 $386 reversed $149 $-1 #
coedge $-1 $387 $151 $388 $389 reversed $94 $-1 #
coedge $-1 $151 $387 $390 $391 reversed $94 $-1 #
coedge $-1 $384 $383 $151 $243 reversed $149 $-1 #
edge $-1 $392 -40.284011830310618 $393 40.284011830310618 $242 $394 forward 7 unknown #
face $-1 $395 $396 $56 $-1 $397 reversed single #
loop $-1 $-1 $398 $152 #
plane-surface $-1 -52.829731882489511 0 11.436467253531093 -1 0 0 0 0 1 forward_v I I I I #
coedge $-1 $399 $400 $401 $402 reversed $153 $-1 #
coedge $-1 $249 $155 $403 $404 reversed $97 $-1 #
coedge $-1 $155 $248 $399 $405 reversed $97 $-1 #
coedge $-1 $401 $406 $155 $251 forward $407 $-1 #
edge $-1 $408 28.009660683847969 $409 33.036650596117155 $250 $410 forward 7 unknown #
loop $-1 $-1 $257 $156 #
plane-surface $-1 -41.193760619437512 -40.28401183031059 8.6526459696117684 0 -0.74314483375859142 0.66913059716165679 1 0 0 forward_v I I I I #
loop $-1 $-1 $411 $99 #
coedge $-1 $255 $255 $256 $412 reversed $157 $-1 #
coedge $-1 $256 $256 $255 $412 forward $159 $-1 #
coedge $-1 $257 $257 $160 $258 forward $252 $-1 #
edge $-1 $413 1.0518055631356241e-015 $413 6.2831853071796013 $257 $414 forward 7 unknown #
loop $-1 $-1 $264 $161 #
plane-surface $-1 -41.193760619437512 -40.28401183031059 8.6526459696117684 0 -0.74314483375859142 0.66913059716165679 1 0 0 forward_v I I I I #
loop $-1 $-1 $415 $102 #
coedge $-1 $262 $262 $263 $416 reversed $162 $-1 #
coedge $-1 $263 $263 $262 $416 forward $164 $-1 #
coedge $-1 $264 $264 $165 $265 forward $259 $-1 #
edge $-1 $417 1.0518055631356241e-015 $417 6.2831853071796013 $264 $418 forward 7 unknown #
loop $-1 $-1 $271 $166 #
plane-surface $-1 -41.193760619437512 -40.28401183031059 8.6526459696117684 0 -0.74314483375859142 0.66913059716165679 1 0 0 forward_v I I I I #
loop $-1 $-1 $419 $105 #
coedge $-1 $269 $269 $270 $420 reversed $167 $-1 #
coedge $-1 $270 $270 $269 $420 forward $169 $-1 #
coedge $-1 $271 $271 $170 $272 forward $266 $-1 #
edge $-1 $421 1.0518055631356241e-015 $421 6.2831853071796013 $271 $422 forward 7 unknown #
face $-1 $423 $424 $60 $-1 $425 forward single #
loop $-1 $-1 $279 $171 #
plane-surface $-1 0 -40.284011830310618 0 0 1 0 0 0 1 forward_v I I I I #
coedge $-1 $426 $427 $428 $429 reversed $172 $-1 #
coedge $-1 $278 $174 $430 $431 reversed $109 $-1 #
coedge $-1 $174 $277 $426 $432 reversed $109 $-1 #
coedge $-1 $428 $433 $174 $280 forward $274 $-1 #
edge $-1 $434 33.446593234115895 $435 39.029631281555325 $279 $436 forward 7 unknown #
loop $-1 $-1 $286 $175 #
plane-surface $-1 53.158486575627137 -40.28401183031059 8.6526459696117684 0 -0.74314483375859142 0.66913059716165679 1 0 0 forward_v I I I I #
loop $-1 $-1 $437 $111 #
coedge $-1 $284 $284 $285 $438 reversed $176 $-1 #
coedge $-1 $285 $285 $284 $438 forward $178 $-1 #
coedge $-1 $286 $286 $179 $287 forward $281 $-1 #
edge $-1 $439 1.0518055631356241e-015 $439 6.2831853071796013 $286 $440 forward 7 unknown #
loop $-1 $-1 $293 $180 #
plane-surface $-1 53.158486575627137 -40.28401183031059 8.6526459696117684 0 -0.74314483375859142 0.66913059716165679 1 0 0 forward_v I I I I #
loop $-1 $-1 $441 $114 #
coedge $-1 $291 $291 $292 $442 reversed $181 $-1 #
coedge $-1 $292 $292 $291 $442 forward $183 $-1 #
coedge $-1 $293 $293 $184 $294 forward $288 $-1 #
edge $-1 $443 1.0518055631356241e-015 $443 6.2831853071796013 $293 $444 forward 7 unknown #
loop $-1 $-1 $300 $185 #
plane-surface $-1 53.158486575627137 -40.28401183031059 8.6526459696117684 0 -0.74314483375859142 0.66913059716165679 1 0 0 forward_v I I I I #
loop $-1 $-1 $445 $117 #
coedge $-1 $298 $298 $299 $446 reversed $186 $-1 #
coedge $-1 $299 $299 $298 $446 forward $188 $-1 #
coedge $-1 $300 $300 $189 $301 forward $295 $-1 #
edge $-1 $447 1.0518055631356241e-015 $447 6.2831853071796013 $300 $448 forward 7 unknown #
face $-1 $449 $450 $64 $-1 $451 forward single #
loop $-1 $-1 $452 $190 #
plane-surface $-1 0 0 14.235684017051172 0 0 1 1 0 0 forward_v I I I I #
coedge $-1 $453 $454 $455 $456 reversed $191 $-1 #
coedge $-1 $307 $193 $457 $458 reversed $121 $-1 #
coedge $-1 $193 $306 $453 $459 reversed $121 $-1 #
coedge $-1 $455 $460 $193 $309 forward $461 $-1 #
edge $-1 $462 63.383448508881216 $463 68.966486556320632 $308 $464 forward 7 unknown #
loop $-1 $-1 $315 $194 #
plane-surface $-1 -41.193760619437512 -13.626517953855384 68.526356519142411 0 0.74314483375859142 0.66913059716165679 1 0 0 forward_v I I I I #
loop $-1 $-1 $465 $123 #
coedge $-1 $313 $313 $314 $466 reversed $195 $-1 #
coedge $-1 $314 $314 $313 $466 forward $197 $-1 #
coedge $-1 $315 $315 $198 $316 forward $310 $-1 #
edge $-1 $467 -7.0120370875708324e-016 $467 6.2831853071795996 $315 $468 forward 7 unknown #
loop $-1 $-1 $322 $199 #
plane-surface $-1 -41.193760619437512 -13.626517953855384 68.526356519142411 0 0.74314483375859142 0.66913059716165679 1 0 0 forward_v I I I I #
loop $-1 $-1 $469 $126 #
coedge $-1 $320 $320 $321 $470 reversed $200 $-1 #
coedge $-1 $321 $321 $320 $470 forward $202 $-1 #
coedge $-1 $322 $322 $203 $323 forward $317 $-1 #
edge $-1 $471 -7.0120370875708324e-016 $471 6.2831853071795996 $322 $472 forward 7 unknown #
loop $-1 $-1 $329 $204 #
plane-surface $-1 -41.193760619437512 -13.626517953855384 68.526356519142411 0 0.74314483375859142 0.66913059716165679 1 0 0 forward_v I I I I #
loop $-1 $-1 $473 $129 #
coedge $-1 $327 $327 $328 $474 reversed $205 $-1 #
coedge $-1 $328 $328 $327 $474 forward $207 $-1 #
coedge $-1 $329 $329 $208 $330 forward $324 $-1 #
edge $-1 $475 -7.0120370875708324e-016 $475 6.2831853071795996 $329 $476 forward 7 unknown #
face $-1 $477 $478 $68 $-1 $479 reversed single #
loop $-1 $-1 $480 $209 #
plane-surface $-1 0 0 14.235684017051172 0 0 1 1 0 0 forward_v I I I I #
coedge $-1 $481 $482 $483 $484 reversed $210 $-1 #
coedge $-1 $485 $212 $486 $487 reversed $133 $-1 #
coedge $-1 $212 $485 $481 $488 forward $133 $-1 #
coedge $-1 $483 $489 $212 $338 forward $490 $-1 #
edge $-1 $491 -38.215214550865582 $492 -14.943272024761555 $337 $493 forward 7 unknown #
loop $-1 $-1 $344 $213 #
plane-surface $-1 53.158486575627137 -13.626517953855384 68.526356519142411 0 0.74314483375859142 0.66913059716165679 1 0 0 forward_v I I I I #
loop $-1 $-1 $494 $135 #
coedge $-1 $342 $342 $343 $495 reversed $214 $-1 #
coedge $-1 $343 $343 $342 $495 forward $216 $-1 #
coedge $-1 $344 $344 $217 $345 forward $339 $-1 #
edge $-1 $496 -7.0120370875708324e-016 $496 6.2831853071795996 $344 $497 forward 7 unknown #
loop $-1 $-1 $351 $218 #
plane-surface $-1 53.158486575627137 -13.626517953855384 68.526356519142411 0 0.74314483375859142 0.66913059716165679 1 0 0 forward_v I I I I #
loop $-1 $-1 $498 $138 #
coedge $-1 $349 $349 $350 $499 reversed $219 $-1 #
coedge $-1 $350 $350 $349 $499 forward $221 $-1 #
coedge $-1 $351 $351 $222 $352 forward $346 $-1 #
edge $-1 $500 -7.0120370875708324e-016 $500 6.2831853071795996 $351 $501 forward 7 unknown #
loop $-1 $-1 $358 $223 #
plane-surface $-1 53.158486575627137 -13.626517953855384 68.526356519142411 0 0.74314483375859142 0.66913059716165679 1 0 0 forward_v I I I I #
loop $-1 $-1 $502 $141 #
coedge $-1 $356 $356 $357 $503 reversed $224 $-1 #
coedge $-1 $357 $357 $356 $503 forward $226 $-1 #
coedge $-1 $358 $358 $227 $359 forward $353 $-1 #
edge $-1 $504 -7.0120370875708324e-016 $504 6.2831853071795996 $358 $505 forward 7 unknown #
face $-1 $506 $507 $54 $-1 $508 reversed single #
loop $-1 $-1 $509 $228 #
plane-surface $-1 -64.794457838679165 0 0 1 0 0 0 0 -1 forward_v I I I I #
coedge $-1 $510 $371 $511 $512 forward $229 $-1 #
coedge $-1 $513 $231 $510 $514 forward $145 $-1 #
coedge $-1 $231 $513 $515 $516 forward $145 $-1 #
coedge $-1 $374 $373 $231 $367 reversed $375 $-1 #
edge $-1 $517 -40.284011830310618 $518 40.284011830310618 $366 $519 forward 7 unknown #
coedge $-1 $233 $232 $520 $521 forward $91 $-1 #
coedge $-1 $522 $523 $232 $370 reversed $507 $-1 #
edge $-1 $377 -64.794457838679165 $524 64.794457838679165 $369 $525 forward 7 unknown #
coedge $-1 $363 $526 $233 $372 reversed $229 $-1 #
edge $-1 $527 -64.794457838679165 $376 64.794457838679165 $371 $528 forward 7 unknown #
coedge $-1 $366 $234 $526 $529 forward $375 $-1 #
coedge $-1 $234 $366 $522 $530 reversed $375 $-1 #
loop $-1 $-1 $373 $506 #
vertex $-1 $235 $531 #
vertex $-1 $235 $532 #
straight-curve $-1 64.794457838679165 0 14.235684017051172 0 1 0 I I #
face $-1 $533 $534 $55 $-1 $535 forward single #
loop $-1 $-1 $536 $236 #
plane-surface $-1 -64.794457838679165 0 0 1 0 0 0 0 -1 forward_v I I I I #
coedge $-1 $390 $537 $384 $538 forward $237 $-1 #
coedge $-1 $242 $239 $539 $540 reversed $149 $-1 #
coedge $-1 $239 $242 $382 $538 reversed $149 $-1 #
coedge $-1 $541 $542 $239 $386 forward $534 $-1 #
edge $-1 $543 -40.284011830310618 $544 40.284011830310618 $385 $545 forward 7 unknown #
coedge $-1 $241 $240 $536 $546 reversed $94 $-1 #
coedge $-1 $539 $547 $240 $389 forward $548 $-1 #
edge $-1 $549 -35.388410408386996 $393 -23.423684452197342 $388 $550 forward 7 unknown #
coedge $-1 $551 $382 $241 $391 forward $237 $-1 #
edge $-1 $392 23.423684452197342 $552 35.388410408386996 $390 $553 forward 7 unknown #
vertex $-1 $391 $554 #
vertex $-1 $389 $555 #
straight-curve $-1 -52.829731882489511 0 8.6372504900110147 0 -1 0 I I #
face $-1 $-1 $407 $56 $-1 $556 forward single #
loop $-1 $-1 $557 $244 #
plane-surface $-1 0 -40.284011830310618 0 0 1 0 0 0 1 forward_v I I I I #
coedge $-1 $558 $559 $400 $560 forward $245 $-1 #
coedge $-1 $561 $247 $249 $405 forward $153 $-1 #
coedge $-1 $247 $561 $398 $560 reversed $153 $-1 #
coedge $-1 $562 $250 $247 $402 forward $407 $-1 #
edge $-1 $409 8.960909046666746 $563 32.232851572770755 $401 $564 forward 7 unknown #
coedge $-1 $565 $557 $248 $404 forward $396 $-1 #
edge $-1 $566 -39.029631281555325 $408 -33.446593234115895 $403 $567 forward 7 unknown #
edge $-1 $409 -7.5127186435545328 $566 4.2779462749537973e-014 $249 $568 forward 7 unknown #
coedge $-1 $250 $562 $565 $569 forward $407 $-1 #
loop $-1 $-1 $401 $395 #
vertex $-1 $404 $570 #
vertex $-1 $251 $571 #
straight-curve $-1 -29.557789356385502 -68.293672514158587 14.23568401705117 0 1 0 I I #
coedge $-1 $411 $411 $-1 $572 reversed $254 $-1 #
edge $-1 $573 0 $573 6.2831853071796004 $255 $574 forward 7 unknown #
vertex $-1 $258 $575 #
ellipse-curve $-1 -48.175343377268717 -37.770516874176025 11.444164993331455 0 -0.74314483375859142 0.66913059716165679 1.5 0 0 1 I I #
coedge $-1 $415 $415 $-1 $576 reversed $261 $-1 #
edge $-1 $577 0 $577 6.2831853071796004 $262 $578 forward 7 unknown #
vertex $-1 $265 $579 #
ellipse-curve $-1 -41.193760619437512 -37.770516874176025 11.444164993331455 0 -0.74314483375859142 0.66913059716165679 1.5 0 0 1 I I #
coedge $-1 $419 $419 $-1 $580 reversed $268 $-1 #
edge $-1 $581 0 $581 6.2831853071796004 $269 $582 forward 7 unknown #
vertex $-1 $272 $583 #
ellipse-curve $-1 -34.212177861606307 -37.770516874176025 11.444164993331455 0 -0.74314483375859142 0.66913059716165679 1.5 0 0 1 I I #
face $-1 $-1 $584 $60 $-1 $585 reversed single #
loop $-1 $-1 $430 $273 #
plane-surface $-1 0 0 14.235684017051172 0 0 1 1 0 0 forward_v I I I I #
coedge $-1 $586 $276 $278 $432 forward $172 $-1 #
coedge $-1 $276 $586 $587 $588 reversed $172 $-1 #
coedge $-1 $589 $279 $276 $429 forward $274 $-1 #
edge $-1 $435 14.943272024761555 $590 38.215214550865582 $428 $591 forward 7 unknown #
coedge $-1 $592 $593 $277 $431 forward $424 $-1 #
edge $-1 $594 -33.036650596117155 $434 -28.009660683847969 $430 $595 forward 7 unknown #
edge $-1 $435 -4.2779462749537973e-014 $594 7.5127186435545328 $278 $596 forward 7 unknown #
coedge $-1 $279 $589 $592 $597 reversed $274 $-1 #
vertex $-1 $597 $598 #
vertex $-1 $280 $599 #
straight-curve $-1 41.522515312575123 -40.284011830310618 47.682277251167065 0 0 -1 I I #
coedge $-1 $437 $437 $-1 $600 reversed $283 $-1 #
edge $-1 $601 0 $601 6.2831853071796004 $284 $602 forward 7 unknown #
vertex $-1 $287 $603 #
ellipse-curve $-1 46.176903817795932 -37.770516874176025 11.444164993331455 0 -0.74314483375859142 0.66913059716165679 1.5 0 0 1 I I #
coedge $-1 $441 $441 $-1 $604 reversed $290 $-1 #
edge $-1 $605 0 $605 6.2831853071796004 $291 $606 forward 7 unknown #
vertex $-1 $294 $607 #
ellipse-curve $-1 53.158486575627137 -37.770516874176025 11.444164993331455 0 -0.74314483375859142 0.66913059716165679 1.5 0 0 1 I I #
coedge $-1 $445 $445 $-1 $608 reversed $297 $-1 #
edge $-1 $609 0 $609 6.2831853071796004 $298 $610 forward 7 unknown #
vertex $-1 $301 $611 #
ellipse-curve $-1 60.140069333458342 -37.770516874176025 11.444164993331455 0 -0.74314483375859142 0.66913059716165679 1.5 0 0 1 I I #
face $-1 $-1 $461 $64 $-1 $612 reversed single #
loop $-1 $-1 $613 $302 #
plane-surface $-1 -52.829731882489511 0 11.436467253531093 -1 0 0 0 0 1 forward_v I I I I #
coedge $-1 $457 $614 $615 $616 forward $303 $-1 #
coedge $-1 $615 $305 $307 $459 forward $191 $-1 #
coedge $-1 $305 $615 $613 $617 reversed $191 $-1 #
coedge $-1 $618 $308 $305 $456 forward $461 $-1 #
edge $-1 $463 8.960909046666746 $619 32.232851572770755 $455 $620 forward 7 unknown #
coedge $-1 $621 $452 $306 $458 forward $303 $-1 #
edge $-1 $622 -6.0813857040341404 $462 -1.054395791764982 $457 $623 forward 7 unknown #
edge $-1 $463 -80.568023660621265 $622 -73.055305017066729 $307 $624 forward 7 unknown #
coedge $-1 $308 $618 $621 $625 reversed $461 $-1 #
loop $-1 $-1 $455 $449 #
vertex $-1 $625 $626 #
vertex $-1 $309 $627 #
straight-curve $-1 -29.557789356385502 40.284011830310618 77.619132525932386 0 0 -1 I I #
coedge $-1 $465 $465 $-1 $628 reversed $312 $-1 #
edge $-1 $629 0 $629 6.2831853071796004 $313 $630 forward 7 unknown #
vertex $-1 $316 $631 #
ellipse-curve $-1 -48.175343377268717 37.770516874176032 11.444164993331469 0 0.74314483375859142 0.66913059716165679 1.5 0 0 1 I I #
coedge $-1 $469 $469 $-1 $632 reversed $319 $-1 #
edge $-1 $633 0 $633 6.2831853071796004 $320 $634 forward 7 unknown #
vertex $-1 $323 $635 #
ellipse-curve $-1 -41.193760619437512 37.770516874176032 11.444164993331469 0 0.74314483375859142 0.66913059716165679 1.5 0 0 1 I I #
coedge $-1 $473 $473 $-1 $636 reversed $326 $-1 #
edge $-1 $637 0 $637 6.2831853071796004 $327 $638 forward 7 unknown #
vertex $-1 $330 $639 #
ellipse-curve $-1 -34.212177861606307 37.770516874176032 11.444164993331469 0 0.74314483375859142 0.66913059716165679 1.5 0 0 1 I I #
face $-1 $-1 $490 $68 $-1 $640 reversed single #
loop $-1 $-1 $486 $331 #
plane-surface $-1 64.794457838679165 0 0 -1 0 0 0 0 1 forward_v I I I I #
coedge $-1 $641 $642 $482 $643 forward $332 $-1 #
coedge $-1 $482 $334 $336 $488 reversed $210 $-1 #
coedge $-1 $334 $481 $480 $643 reversed $210 $-1 #
coedge $-1 $644 $337 $334 $484 forward $490 $-1 #
edge $-1 $492 -68.966486556320632 $645 -63.383448508881216 $483 $646 forward 7 unknown #
coedge $-1 $336 $335 $641 $647 reversed $133 $-1 #
coedge $-1 $648 $649 $335 $487 forward $478 $-1 #
edge $-1 $650 43.033841057468052 $491 50.546559701022588 $486 $651 forward 7 unknown #
edge $-1 $652 73.055305017066729 $492 80.568023660621265 $481 $653 forward 7 unknown #
coedge $-1 $337 $644 $648 $654 forward $490 $-1 #
loop $-1 $-1 $483 $477 #
vertex $-1 $487 $655 #
vertex $-1 $338 $656 #
straight-curve $-1 26.579243287813568 40.284011830310618 8.6526459696117648 -1 0 0 I I #
coedge $-1 $494 $494 $-1 $657 reversed $341 $-1 #
edge $-1 $658 0 $658 6.2831853071796004 $342 $659 forward 7 unknown #
vertex $-1 $345 $660 #
ellipse-curve $-1 46.176903817795932 37.770516874176032 11.444164993331469 0 0.74314483375859142 0.66913059716165679 1.5 0 0 1 I I #
coedge $-1 $498 $498 $-1 $661 reversed $348 $-1 #
edge $-1 $662 0 $662 6.2831853071796004 $349 $663 forward 7 unknown #
vertex $-1 $352 $664 #
ellipse-curve $-1 53.158486575627137 37.770516874176032 11.444164993331469 0 0.74314483375859142 0.66913059716165679 1.5 0 0 1 I I #
coedge $-1 $502 $502 $-1 $665 reversed $355 $-1 #
edge $-1 $666 0 $666 6.2831853071796004 $356 $667 forward 7 unknown #
vertex $-1 $359 $668 #
ellipse-curve $-1 60.140069333458342 37.770516874176032 11.444164993331469 0 0.74314483375859142 0.66913059716165679 1.5 0 0 1 I I #
face $-1 $-1 $375 $54 $-1 $669 reversed single #
loop $-1 $-1 $522 $360 #
plane-surface $-1 0 40.284011830310618 0 0 -1 0 0 0 -1 forward_v I I I I #
coedge $-1 $670 $520 $523 $671 forward $361 $-1 #
coedge $-1 $526 $363 $364 $514 reversed $229 $-1 #
coedge $-1 $520 $670 $363 $512 reversed $361 $-1 #
edge $-1 $527 -14.235684017051172 $672 14.235684017051172 $511 $673 forward 7 unknown #
coedge $-1 $365 $364 $670 $674 forward $145 $-1 #
edge $-1 $518 -64.794457838679165 $672 64.794457838679165 $510 $675 forward 7 unknown #
coedge $-1 $523 $522 $365 $516 reversed $507 $-1 #
edge $-1 $676 -64.794457838679165 $517 64.794457838679165 $515 $677 forward 7 unknown #
vertex $-1 $367 $678 #
vertex $-1 $529 $679 #
straight-curve $-1 64.794457838679165 0 -14.235684017051172 0 -1 0 I I #
coedge $-1 $509 $511 $368 $521 reversed $361 $-1 #
edge $-1 $524 -40.284011830310618 $527 40.284011830310618 $520 $680 forward 7 unknown #
coedge $-1 $515 $369 $374 $530 forward $507 $-1 #
coedge $-1 $369 $515 $509 $671 reversed $507 $-1 #
vertex $-1 $370 $681 #
straight-curve $-1 0 40.284011830310618 14.235684017051172 -1 0 0 I I #
coedge $-1 $371 $510 $373 $529 reversed $229 $-1 #
vertex $-1 $521 $682 #
straight-curve $-1 0 -40.284011830310618 14.235684017051172 1 0 0 I I #
edge $-1 $376 -14.235684017051172 $518 14.235684017051172 $373 $683 forward 7 unknown #
edge $-1 $377 -14.235684017051172 $517 14.235684017051172 $374 $684 forward 7 unknown #
point $-1 64.794457838679165 -40.284011830310618 14.235684017051172 #
point $-1 64.794457838679165 40.284011830310618 14.235684017051172 #
face $-1 $-1 $548 $55 $-1 $685 reversed single #
loop $-1 $-1 $385 $379 #
plane-surface $-1 0 0 14.235684017051172 0 0 1 1 0 0 forward_v I I I I #
coedge $-1 $686 $687 $387 $546 forward $380 $-1 #
coedge $-1 $382 $551 $541 $688 reversed $237 $-1 #
edge $-1 $544 -8.5174503902856245 $392 -2.9190168632454681 $382 $689 forward 7 unknown #
coedge $-1 $690 $388 $383 $540 forward $548 $-1 #
edge $-1 $393 2.9190168632454681 $543 8.5174503902856245 $539 $691 forward 7 unknown #
coedge $-1 $692 $385 $537 $688 forward $534 $-1 #
coedge $-1 $385 $692 $690 $693 forward $534 $-1 #
vertex $-1 $540 $694 #
vertex $-1 $688 $695 #
straight-curve $-1 -52.829731882489511 0 14.235684017051172 0 1 0 I I #
edge $-1 $552 -40.284011830310618 $549 40.284011830310618 $536 $696 forward 7 unknown #
coedge $-1 $388 $690 $686 $697 forward $548 $-1 #
loop $-1 $-1 $539 $533 #
vertex $-1 $546 $698 #
straight-curve $-1 -29.406047430292169 -40.284011830310618 8.6372504900110147 1 0 0 I I #
coedge $-1 $537 $390 $687 $699 reversed $237 $-1 #
vertex $-1 $546 $700 #
straight-curve $-1 -29.406047430292169 40.284011830310618 8.6372504900110147 -1 0 0 I I #
point $-1 -52.829731882489511 40.284011830310618 8.6372504900110147 #
point $-1 -52.829731882489511 -40.284011830310618 8.6372504900110147 #
plane-surface $-1 0 0 14.235684017051172 0 0 1 1 0 0 forward_v I I I I #
coedge $-1 $403 $701 $561 $702 forward $396 $-1 #
coedge $-1 $559 $398 $701 $703 reversed $245 $-1 #
coedge $-1 $398 $558 $562 $704 reversed $245 $-1 #
edge $-1 $563 6.9993050051128787 $705 14.512023648667455 $398 $706 forward 7 unknown #
coedge $-1 $400 $399 $557 $702 reversed $153 $-1 #
coedge $-1 $406 $401 $559 $704 forward $407 $-1 #
vertex $-1 $704 $707 #
straight-curve $-1 -20.596880309718756 -35.257021918041431 14.235684017051174 -1 0 0 I I #
coedge $-1 $701 $403 $406 $569 reversed $396 $-1 #
vertex $-1 $404 $708 #
straight-curve $-1 -29.557789356385502 -40.284011830310618 47.682277251167065 0 0 1 I I #
straight-curve $-1 -29.557789356385502 -40.28401183031059 8.6526459696117684 0 -0.66913059716165679 -0.74314483375859142 I I #
edge $-1 $709 -52.829731882489511 $408 -29.557789356385502 $565 $710 forward 7 unknown #
point $-1 -29.557789356385502 -40.284011830310618 14.235684017051172 #
point $-1 -29.557789356385502 -35.257021918041431 14.235684017051172 #
edge $-1 $711 1 $711 0 $411 $-1 forward 7 unknown #
vertex $-1 $412 $712 #
ellipse-curve $-1 -48.175343377268717 -34.85936543251718 8.8229525269362696 0 -0.74314483375859142 0.66913059716165679 1.5 0 0 1 I I #
point $-1 -46.675343377268717 -37.770516874176046 11.444164993331476 #
edge $-1 $713 1 $713 0 $415 $-1 forward 7 unknown #
vertex $-1 $416 $714 #
ellipse-curve $-1 -41.193760619437512 -34.85936543251718 8.8229525269362696 0 -0.74314483375859142 0.66913059716165679 1.5 0 0 1 I I #
point $-1 -39.693760619437512 -37.770516874176046 11.444164993331476 #
edge $-1 $715 1 $715 0 $419 $-1 forward 7 unknown #
vertex $-1 $420 $716 #
ellipse-curve $-1 -34.212177861606307 -34.85936543251718 8.8229525269362696 0 -0.74314483375859142 0.66913059716165679 1.5 0 0 1 I I #
point $-1 -32.712177861606307 -37.770516874176046 11.444164993331476 #
loop $-1 $-1 $587 $423 #
plane-surface $-1 64.794457838679165 0 0 -1 0 0 0 0 1 forward_v I I I I #
coedge $-1 $427 $426 $593 $717 reversed $172 $-1 #
coedge $-1 $718 $719 $427 $588 forward $584 $-1 #
edge $-1 $590 -10.262547870711986 $720 -2.7498292271574094 $587 $721 forward 7 unknown #
coedge $-1 $433 $428 $719 $722 reversed $274 $-1 #
vertex $-1 $429 $723 #
straight-curve $-1 26.579243287813568 -40.284011830310618 8.6526459696117382 1 0 0 I I #
coedge $-1 $724 $430 $433 $597 forward $424 $-1 #
coedge $-1 $430 $724 $586 $717 forward $424 $-1 #
vertex $-1 $431 $725 #
straight-curve $-1 41.522515312575123 -68.293672514158587 14.23568401705117 0 -1 0 I I #
straight-curve $-1 41.522515312575123 -40.28401183031059 8.6526459696117684 0 0.66913059716165679 0.74314483375859142 I I #
edge $-1 $434 41.522515312575123 $726 64.794457838679165 $433 $727 forward 7 unknown #
point $-1 41.522515312575123 -40.284011830310618 14.235684017051172 #
point $-1 41.522515312575123 -40.284011830310618 8.6526459696117364 #
edge $-1 $728 1 $728 0 $437 $-1 forward 7 unknown #
vertex $-1 $438 $729 #
ellipse-curve $-1 46.176903817795932 -34.85936543251718 8.8229525269362696 0 -0.74314483375859142 0.66913059716165679 1.5 0 0 1 I I #
point $-1 47.676903817795932 -37.770516874176046 11.444164993331476 #
edge $-1 $730 1 $730 0 $441 $-1 forward 7 unknown #
vertex $-1 $442 $731 #
ellipse-curve $-1 53.158486575627137 -34.85936543251718 8.8229525269362696 0 -0.74314483375859142 0.66913059716165679 1.5 0 0 1 I I #
point $-1 54.658486575627137 -37.770516874176046 11.444164993331476 #
edge $-1 $732 1 $732 0 $445 $-1 forward 7 unknown #
vertex $-1 $446 $733 #
ellipse-curve $-1 60.140069333458342 -34.85936543251718 8.8229525269362696 0 -0.74314483375859142 0.66913059716165679 1.5 0 0 1 I I #
point $-1 61.640069333458342 -37.770516874176046 11.444164993331476 #
plane-surface $-1 0 40.284011830310618 0 0 -1 0 0 0 -1 forward_v I I I I #
coedge $-1 $734 $735 $454 $617 forward $450 $-1 #
coedge $-1 $452 $621 $734 $736 forward $303 $-1 #
coedge $-1 $454 $453 $452 $616 reversed $191 $-1 #
edge $-1 $737 -32.23285157277077 $622 -8.960909046666746 $452 $738 forward 7 unknown #
edge $-1 $619 -54.796035478978055 $737 -47.28331683542352 $613 $739 forward 7 unknown #
coedge $-1 $460 $455 $735 $740 forward $461 $-1 #
vertex $-1 $740 $741 #
straight-curve $-1 -20.596880309718756 40.284011830310618 8.6526459696117648 -1 0 0 I I #
coedge $-1 $614 $457 $460 $625 forward $303 $-1 #
vertex $-1 $458 $742 #
straight-curve $-1 -29.557789356385502 41.3384076220756 14.23568401705117 0 1 0 I I #
straight-curve $-1 -29.557789356385502 -13.626517953855384 68.526356519142411 0 -0.66913059716165679 0.74314483375859142 I I #
edge $-1 $462 29.557789356385502 $743 52.829731882489511 $460 $744 forward 7 unknown #
point $-1 -29.557789356385502 40.284011830310618 14.235684017051172 #
point $-1 -29.557789356385502 40.284011830310618 8.6526459696117612 #
edge $-1 $745 1 $745 0 $465 $-1 forward 7 unknown #
vertex $-1 $466 $746 #
ellipse-curve $-1 -48.175343377268717 34.85936543251718 8.8229525269362767 0 0.74314483375859142 0.66913059716165679 1.5 0 0 1 I I #
point $-1 -46.675343377268717 37.770516874176046 11.444164993331484 #
edge $-1 $747 1 $747 0 $469 $-1 forward 7 unknown #
vertex $-1 $470 $748 #
ellipse-curve $-1 -41.193760619437512 34.85936543251718 8.8229525269362767 0 0.74314483375859142 0.66913059716165679 1.5 0 0 1 I I #
point $-1 -39.693760619437512 37.770516874176046 11.444164993331484 #
edge $-1 $749 1 $749 0 $473 $-1 forward 7 unknown #
vertex $-1 $474 $750 #
ellipse-curve $-1 -34.212177861606307 34.85936543251718 8.8229525269362767 0 0.74314483375859142 0.66913059716165679 1.5 0 0 1 I I #
point $-1 -32.712177861606307 37.770516874176046 11.444164993331484 #
plane-surface $-1 0 40.284011830310618 0 0 -1 0 0 0 -1 forward_v I I I I #
coedge $-1 $751 $480 $485 $647 forward $332 $-1 #
coedge $-1 $480 $751 $644 $752 forward $332 $-1 #
edge $-1 $645 1.054395791764982 $652 6.0813857040341404 $480 $753 forward 7 unknown #
coedge $-1 $489 $483 $642 $752 reversed $490 $-1 #
vertex $-1 $484 $754 #
straight-curve $-1 41.522515312575123 40.284011830310618 77.619132525932386 0 0 1 I I #
edge $-1 $652 14.943272024761555 $650 38.215214550865582 $641 $755 forward 7 unknown #
coedge $-1 $649 $486 $489 $654 reversed $478 $-1 #
coedge $-1 $486 $648 $751 $756 reversed $478 $-1 #
vertex $-1 $756 $757 #
straight-curve $-1 64.794457838679165 6.461762153098034 46.216060675696909 0 0.66913059716165679 -0.74314483375859142 I I #
vertex $-1 $647 $758 #
straight-curve $-1 41.522515312575123 -13.626517953855384 68.526356519142411 0 0.66913059716165679 -0.74314483375859142 I I #
edge $-1 $759 -14.235684017051172 $491 -8.6526459696117612 $648 $760 forward 7 unknown #
point $-1 64.794457838679151 40.284011830310618 8.6526459696117612 #
point $-1 41.522515312575123 40.284011830310618 8.6526459696117612 #
edge $-1 $761 1 $761 0 $494 $-1 forward 7 unknown #
vertex $-1 $495 $762 #
ellipse-curve $-1 46.176903817795932 34.85936543251718 8.8229525269362767 0 0.74314483375859142 0.66913059716165679 1.5 0 0 1 I I #
point $-1 47.676903817795932 37.770516874176046 11.444164993331484 #
edge $-1 $763 1 $763 0 $498 $-1 forward 7 unknown #
vertex $-1 $499 $764 #
ellipse-curve $-1 53.158486575627137 34.85936543251718 8.8229525269362767 0 0.74314483375859142 0.66913059716165679 1.5 0 0 1 I I #
point $-1 54.658486575627137 37.770516874176046 11.444164993331484 #
edge $-1 $765 1 $765 0 $502 $-1 forward 7 unknown #
vertex $-1 $503 $766 #
ellipse-curve $-1 60.140069333458342 34.85936543251718 8.8229525269362767 0 0.74314483375859142 0.66913059716165679 1.5 0 0 1 I I #
point $-1 61.640069333458342 37.770516874176046 11.444164993331484 #
plane-surface $-1 64.794457838679165 0 0 -1 0 0 0 0 1 forward_v I I I I #
coedge $-1 $511 $509 $513 $674 reversed $361 $-1 #
edge $-1 $524 -14.235684017051172 $676 14.235684017051172 $523 $767 forward 7 unknown #
vertex $-1 $674 $768 #
straight-curve $-1 -64.794457838679165 -40.284011830310618 0 0 0 -1 I I #
edge $-1 $672 -40.284011830310618 $676 40.284011830310618 $670 $769 forward 7 unknown #
straight-curve $-1 0 -40.284011830310618 -14.235684017051172 -1 0 0 I I #
vertex $-1 $516 $770 #
straight-curve $-1 0 40.284011830310618 -14.235684017051172 1 0 0 I I #
point $-1 64.794457838679165 40.284011830310618 -14.235684017051172 #
point $-1 64.794457838679165 -40.284011830310618 -14.235684017051172 #
straight-curve $-1 -64.794457838679165 0 14.235684017051172 0 -1 0 I I #
point $-1 -64.794457838679165 40.284011830310618 14.235684017051172 #
point $-1 -64.794457838679165 -40.284011830310618 14.235684017051172 #
straight-curve $-1 64.794457838679165 -40.284011830310618 0 0 0 -1 I I #
straight-curve $-1 64.794457838679165 40.284011830310618 0 0 0 -1 I I #
plane-surface $-1 0 -40.284011830310618 0 0 1 0 0 0 1 forward_v I I I I #
coedge $-1 $771 $536 $547 $697 reversed $380 $-1 #
coedge $-1 $536 $771 $551 $699 forward $380 $-1 #
edge $-1 $544 52.829731882489511 $772 64.794457838679165 $537 $773 forward 7 unknown #
straight-curve $-1 -52.829731882489511 40.284011830310618 5.7182336267655467 0 0 -1 I I #
coedge $-1 $547 $539 $542 $693 reversed $548 $-1 #
straight-curve $-1 -52.829731882489511 -40.284011830310618 5.7182336267655467 0 0 1 I I #
coedge $-1 $542 $541 $771 $774 forward $534 $-1 #
edge $-1 $775 -64.794457838679165 $543 -52.829731882489511 $690 $776 forward 7 unknown #
point $-1 -52.829731882489511 -40.284011830310618 14.235684017051172 #
point $-1 -52.829731882489511 40.284011830310618 14.235684017051172 #
straight-curve $-1 -64.794457838679165 0 8.6372504900110147 0 -1 0 I I #
edge $-1 $775 -14.235684017051172 $549 -8.6372504900110147 $686 $777 forward 7 unknown #
point $-1 -64.794457838679165 -40.284011830310618 8.6372504900110147 #
edge $-1 $772 -14.235684017051172 $552 -8.6372504900110147 $551 $778 forward 7 unknown #
point $-1 -64.794457838679165 40.284011830310618 8.6372504900110147 #
coedge $-1 $557 $565 $558 $703 forward $396 $-1 #
edge $-1 $705 -32.232851572770755 $566 -8.960909046666746 $557 $779 forward 7 unknown #
edge $-1 $709 -8.5174503902856245 $705 -2.9344123428461897 $701 $780 forward 7 unknown #
edge $-1 $563 35.257021918041431 $709 40.284011830310618 $562 $781 forward 7 unknown #
vertex $-1 $560 $782 #
straight-curve $-1 -52.829731882489511 -30.573572780253677 19.43718137150146 0 -0.66913059716165679 -0.74314483375859142 I I #
point $-1 -52.829731882489511 -35.257021918041431 14.235684017051172 #
point $-1 -29.557789356385502 -40.284011830310618 8.6526459696117364 #
vertex $-1 $569 $783 #
straight-curve $-1 0 -40.284011830310618 14.235684017051172 1 0 0 I I #
vertex $-1 $572 $784 #
point $-1 -46.675343377268717 -34.85936543251718 8.8229525269362696 #
vertex $-1 $576 $785 #
point $-1 -39.693760619437512 -34.85936543251718 8.8229525269362696 #
vertex $-1 $580 $786 #
point $-1 -32.712177861606307 -34.85936543251718 8.8229525269362696 #
edge $-1 $720 -38.215214550865582 $594 -14.943272024761555 $593 $787 forward 7 unknown #
coedge $-1 $719 $587 $724 $788 reversed $584 $-1 #
coedge $-1 $587 $718 $589 $722 forward $584 $-1 #
vertex $-1 $588 $789 #
straight-curve $-1 64.794457838679165 -33.417027045181015 16.279205400931581 0 0.66913059716165679 0.74314483375859142 I I #
edge $-1 $726 -14.235684017051172 $590 -8.6526459696117364 $719 $790 forward 7 unknown #
point $-1 64.794457838679151 -40.284011830310618 8.6526459696117364 #
coedge $-1 $593 $592 $718 $788 forward $424 $-1 #
point $-1 41.522515312575123 -35.257021918041431 14.235684017051172 #
vertex $-1 $788 $791 #
straight-curve $-1 0 -40.284011830310618 14.235684017051172 1 0 0 I I #
vertex $-1 $600 $792 #
point $-1 47.676903817795932 -34.85936543251718 8.8229525269362696 #
vertex $-1 $604 $793 #
point $-1 54.658486575627137 -34.85936543251718 8.8229525269362696 #
vertex $-1 $608 $794 #
point $-1 61.640069333458342 -34.85936543251718 8.8229525269362696 #
coedge $-1 $735 $613 $614 $736 reversed $450 $-1 #
coedge $-1 $613 $734 $618 $740 reversed $450 $-1 #
edge $-1 $743 -40.284011830310618 $737 -35.25702191804146 $614 $795 forward 7 unknown #
vertex $-1 $617 $796 #
straight-curve $-1 -20.596880309718756 35.25702191804146 14.23568401705117 1 0 0 I I #
straight-curve $-1 -52.829731882489511 3.618307888170694 49.374036646266788 0 -0.66913059716165679 0.74314483375859142 I I #
edge $-1 $619 2.9344123428462145 $743 8.5174503902856245 $618 $797 forward 7 unknown #
point $-1 -52.829731882489511 40.284011830310618 8.6526459696117612 #
point $-1 -29.557789356385502 35.25702191804146 14.23568401705117 #
vertex $-1 $736 $798 #
straight-curve $-1 0 40.284011830310618 14.235684017051172 -1 0 0 I I #
vertex $-1 $628 $799 #
point $-1 -46.675343377268717 34.85936543251718 8.8229525269362767 #
vertex $-1 $632 $800 #
point $-1 -39.693760619437512 34.85936543251718 8.8229525269362767 #
vertex $-1 $636 $801 #
point $-1 -32.712177861606307 34.85936543251718 8.8229525269362767 #
coedge $-1 $642 $641 $649 $756 forward $332 $-1 #
edge $-1 $759 -64.794457838679165 $645 -41.522515312575123 $644 $802 forward 7 unknown #
straight-curve $-1 41.522515312575123 41.3384076220756 14.23568401705117 0 -1 0 I I #
point $-1 41.522515312575123 40.284011830310618 14.235684017051172 #
straight-curve $-1 26.579243287813568 35.25702191804146 14.23568401705117 1 0 0 I I #
edge $-1 $650 35.25702191804146 $759 40.284011830310618 $649 $803 forward 7 unknown #
point $-1 64.794457838679151 35.25702191804146 14.23568401705117 #
point $-1 41.522515312575123 35.25702191804146 14.23568401705117 #
vertex $-1 $756 $804 #
straight-curve $-1 64.794457838679165 40.284011830310618 0 0 0 -1 I I #
vertex $-1 $657 $805 #
point $-1 47.676903817795932 34.85936543251718 8.8229525269362767 #
vertex $-1 $661 $806 #
point $-1 54.658486575627137 34.85936543251718 8.8229525269362767 #
vertex $-1 $665 $807 #
point $-1 61.640069333458342 34.85936543251718 8.8229525269362767 #
straight-curve $-1 -64.794457838679165 40.284011830310618 0 0 0 -1 I I #
point $-1 -64.794457838679165 -40.284011830310618 -14.235684017051172 #
straight-curve $-1 -64.794457838679165 0 -14.235684017051172 0 1 0 I I #
point $-1 -64.794457838679165 40.284011830310618 -14.235684017051172 #
coedge $-1 $687 $686 $692 $774 reversed $380 $-1 #
vertex $-1 $688 $808 #
straight-curve $-1 0 40.284011830310618 14.235684017051172 -1 0 0 I I #
edge $-1 $772 -40.284011830310618 $775 40.284011830310618 $771 $809 forward 7 unknown #
vertex $-1 $774 $810 #
straight-curve $-1 0 -40.284011830310618 14.235684017051172 1 0 0 I I #
straight-curve $-1 -64.794457838679165 -40.284011830310618 0 0 0 -1 I I #
straight-curve $-1 -64.794457838679165 40.284011830310618 0 0 0 -1 I I #
straight-curve $-1 -20.596880309718756 -40.284011830310618 8.6526459696117382 1 0 0 I I #
straight-curve $-1 -52.829731882489511 -40.284011830310618 5.7182336267655467 0 0 -1 I I #
straight-curve $-1 -52.829731882489511 0 14.235684017051172 0 -1 0 I I #
point $-1 -52.829731882489511 -40.284011830310618 8.6526459696117364 #
point $-1 -52.829731882489511 -40.284011830310618 14.235684017051172 #
point $-1 -48.175343377268717 -33.744648181879299 7.8192566311937846 #
point $-1 -41.193760619437512 -33.744648181879299 7.8192566311937846 #
point $-1 -34.212177861606307 -33.744648181879299 7.8192566311937846 #
straight-curve $-1 26.579243287813568 -35.257021918041431 14.235684017051174 -1 0 0 I I #
edge $-1 $726 -40.284011830310618 $720 -35.257021918041431 $718 $811 forward 7 unknown #
point $-1 64.794457838679151 -35.257021918041431 14.235684017051172 #
straight-curve $-1 64.794457838679165 -40.284011830310618 0 0 0 -1 I I #
point $-1 64.794457838679165 -40.284011830310618 14.235684017051172 #
point $-1 46.176903817795932 -33.744648181879299 7.8192566311937846 #
point $-1 53.158486575627137 -33.744648181879299 7.8192566311937846 #
point $-1 60.140069333458342 -33.744648181879299 7.8192566311937846 #
straight-curve $-1 -52.829731882489511 0 14.235684017051172 0 -1 0 I I #
point $-1 -52.829731882489526 35.25702191804146 14.23568401705117 #
straight-curve $-1 -52.829731882489511 40.284011830310618 5.7182336267655467 0 0 1 I I #
point $-1 -52.829731882489511 40.284011830310618 14.235684017051172 #
point $-1 -48.175343377268717 33.744648181879299 7.8192566311937917 #
point $-1 -41.193760619437512 33.744648181879299 7.8192566311937917 #
point $-1 -34.212177861606307 33.744648181879299 7.8192566311937917 #
straight-curve $-1 0 40.284011830310618 14.235684017051172 -1 0 0 I I #
straight-curve $-1 64.794457838679165 0 14.235684017051172 0 1 0 I I #
point $-1 64.794457838679165 40.284011830310618 14.235684017051172 #
point $-1 46.176903817795932 33.744648181879299 7.8192566311937917 #
point $-1 53.158486575627137 33.744648181879299 7.8192566311937917 #
point $-1 60.140069333458342 33.744648181879299 7.8192566311937917 #
point $-1 -64.794457838679165 40.284011830310618 14.235684017051172 #
straight-curve $-1 -64.794457838679165 0 14.235684017051172 0 -1 0 I I #
point $-1 -64.794457838679165 -40.284011830310618 14.235684017051172 #
straight-curve $-1 64.794457838679165 0 14.235684017051172 0 1 0 I I #
End-of-ACIS-data 