500 0 7 0           
7 Unknown 11 ACIS 5.0 NT 24 Thu Mar 25 21:47:39 1999 
-1 9.9999999999999995e-007 1e-010 
body $-1 $7 $-1 $8 #
body $-1 $9 $-1 $10 #
body $-1 $11 $-1 $12 #
body $-1 $13 $-1 $14 #
body $-1 $15 $-1 $16 #
body $-1 $17 $-1 $18 #
body $-1 $19 $-1 $20 #
lump $-1 $-1 $21 $0 #
transform $-1 1 0 0 0 1 0 0 0 1 63.465071565904722 39.007185958262319 19.111104523964709 1 rotate no_reflect no_shear #
lump $-1 $-1 $22 $1 #
transform $-1 1 0 0 0 1 0 0 0 1 63.465071565904722 39.007185958262319 19.111104523964709 1 rotate no_reflect no_shear #
lump $-1 $-1 $23 $2 #
transform $-1 1 0 0 0 1 0 0 0 1 63.465071565904722 39.007185958262319 19.111104523964709 1 rotate no_reflect no_shear #
lump $-1 $-1 $24 $3 #
transform $-1 1 0 0 0 1 0 0 0 1 63.465071565904722 39.007185958262319 19.111104523964709 1 rotate no_reflect no_shear #
lump $-1 $-1 $25 $4 #
transform $-1 1 0 0 0 1 0 0 0 1 63.465071565904722 39.007185958262319 19.111104523964709 1 rotate no_reflect no_shear #
lump $-1 $-1 $26 $5 #
transform $-1 1 0 0 0 1 0 0 0 1 63.465071565904722 39.007185958262319 19.111104523964709 1 rotate no_reflect no_shear #
lump $-1 $-1 $27 $6 #
transform $-1 1 0 0 0 1 0 0 0 1 63.465071565904722 39.007185958262319 19.111104523964709 1 rotate no_reflect no_shear #
shell $-1 $-1 $-1 $28 $-1 $7 #
shell $-1 $-1 $-1 $29 $-1 $9 #
shell $-1 $-1 $-1 $30 $-1 $11 #
shell $-1 $-1 $-1 $31 $-1 $13 #
shell $-1 $-1 $-1 $32 $-1 $15 #
shell $-1 $-1 $-1 $33 $-1 $17 #
shell $-1 $-1 $-1 $34 $-1 $19 #
face $-1 $35 $36 $21 $-1 $37 forward single #
face $-1 $38 $39 $22 $-1 $40 reversed single #
face $-1 $41 $42 $23 $-1 $43 forward single #
face $-1 $44 $45 $24 $-1 $46 forward single #
face $-1 $47 $48 $25 $-1 $49 reversed single #
face $-1 $50 $51 $26 $-1 $52 forward single #
face $-1 $53 $54 $27 $-1 $55 forward single #
face $-1 $56 $57 $21 $-1 $58 reversed single #
loop $-1 $-1 $59 $28 #
plane-surface $-1 0 0 19.111104523964709 0 0 1 1 0 0 forward_v I I I I #
face $-1 $60 $61 $22 $-1 $62 reversed single #
loop $-1 $-1 $63 $29 #
plane-surface $-1 -11.142593208605263 -32.063461632692437 110.00543663146254 0.80901700255871778 0 0.5877852410284794 0.5877852410284794 0 -0.80901700255871778 forward_v I I I I #
face $-1 $64 $65 $23 $-1 $66 forward single #
loop $-1 $67 $68 $30 #
cone-surface $-1 58.219349524964414 -35.039343486508102 12.515604962290904 -0.80901700255871778 0 -0.5877852410284794 0.8816778615427191 0 -1.2135255038380768 1 I I 0 1 1.5 forward I I I I #
face $-1 $69 $70 $24 $-1 $71 forward single #
loop $-1 $72 $73 $31 #
cone-surface $-1 58.219349524964414 -29.087579778876773 12.515604962290904 -0.80901700255871778 0 -0.5877852410284794 0.8816778615427191 0 -1.2135255038380768 1 I I 0 1 1.5 forward I I I I #
face $-1 $74 $75 $25 $-1 $76 reversed single #
loop $-1 $-1 $77 $32 #
plane-surface $-1 -166.15371549675024 -25.119737307122556 81.924457475127042 0 -1 0 0.80901700255871778 0 -0.5877852410284794 forward_v I I I I #
face $-1 $78 $79 $26 $-1 $80 forward single #
loop $-1 $81 $82 $33 #
cone-surface $-1 -58.219349524964414 -35.039343486508102 12.515604962290908 0.80901700255871778 0 -0.5877852410284794 0.8816778615427191 0 1.2135255038380768 1 I I 0 1 1.5 forward I I I I #
face $-1 $83 $84 $27 $-1 $85 forward single #
loop $-1 $86 $87 $34 #
cone-surface $-1 -58.219349524964414 -29.087579778876773 12.515604962290908 0.80901700255871778 0 -0.5877852410284794 0.8816778615427191 0 1.2135255038380768 1 I I 0 1 1.5 forward I I I I #
face $-1 $88 $89 $21 $-1 $90 reversed single #
loop $-1 $-1 $91 $35 #
plane-surface $-1 0 0 -19.111104523964709 0 0 1 1 0 0 forward_v I I I I #
coedge $-1 $92 $93 $94 $95 forward $36 $-1 #
face $-1 $96 $97 $22 $-1 $98 forward single #
loop $-1 $-1 $99 $38 #
plane-surface $-1 91.546050722240224 -25.119737307122556 184.61310140597254 0 -1 0 -0.80901700255871778 0 -0.5877852410284794 forward_v I I I I #
coedge $-1 $100 $101 $102 $103 reversed $39 $-1 #
face $-1 $-1 $104 $23 $-1 $105 forward single #
loop $-1 $106 $107 $41 #
cone-surface $-1 56.651399170766823 -35.039343486508102 11.376422381519578 -0.80901700255871778 0 -0.5877852410284794 0.44083893077135955 0 -0.60676275191903839 1 I I -0.70710678118654757 0.70710678118654757 0.75 forward I I I I #
loop $-1 $-1 $108 $30 #
coedge $-1 $68 $68 $109 $110 reversed $42 $-1 #
face $-1 $-1 $111 $24 $-1 $112 forward single #
loop $-1 $113 $114 $44 #
cone-surface $-1 56.651399170766823 -29.087579778876773 11.376422381519578 -0.80901700255871778 0 -0.5877852410284794 0.44083893077135955 0 -0.60676275191903839 1 I I -0.70710678118654757 0.70710678118654757 0.75 forward I I I I #
loop $-1 $-1 $115 $31 #
coedge $-1 $73 $73 $116 $117 reversed $45 $-1 #
face $-1 $118 $119 $25 $-1 $120 reversed single #
loop $-1 $-1 $121 $47 #
plane-surface $-1 -63.465071565904751 -32.063461632692437 7.316792700617043 -0.80901700255871778 0 0.5877852410284794 0.5877852410284794 0 0.80901700255871778 forward_v I I I I #
coedge $-1 $122 $123 $124 $125 reversed $48 $-1 #
face $-1 $-1 $126 $26 $-1 $127 forward single #
loop $-1 $128 $129 $50 #
cone-surface $-1 -56.651399170766823 -35.039343486508102 11.376422381519582 0.80901700255871778 0 -0.5877852410284794 0.44083893077135955 0 0.60676275191903839 1 I I -0.70710678118654757 0.70710678118654757 0.75 forward I I I I #
loop $-1 $-1 $130 $33 #
coedge $-1 $82 $82 $131 $132 reversed $51 $-1 #
face $-1 $-1 $133 $27 $-1 $134 forward single #
loop $-1 $135 $136 $53 #
cone-surface $-1 -56.651399170766823 -29.087579778876773 11.376422381519582 0.80901700255871778 0 -0.5877852410284794 0.44083893077135955 0 0.60676275191903839 1 I I -0.70710678118654757 0.70710678118654757 0.75 forward I I I I #
loop $-1 $-1 $137 $34 #
coedge $-1 $87 $87 $138 $139 reversed $54 $-1 #
face $-1 $140 $141 $21 $-1 $142 reversed single #
loop $-1 $-1 $143 $56 #
plane-surface $-1 0 -39.007185958262319 0 0 1 0 0 0 1 forward_v I I I I #
coedge $-1 $144 $145 $146 $147 forward $57 $-1 #
coedge $-1 $148 $59 $149 $150 forward $36 $-1 #
coedge $-1 $59 $148 $151 $152 forward $36 $-1 #
coedge $-1 $153 $154 $59 $95 reversed $155 $-1 #
edge $-1 $156 -39.007185958262319 $157 39.007185958262319 $94 $158 forward 7 unknown #
face $-1 $159 $160 $22 $-1 $161 reversed single #
loop $-1 $-1 $162 $60 #
plane-surface $-1 0 0 19.111104523964709 0 0 1 1 0 0 forward_v I I I I #
coedge $-1 $163 $164 $165 $166 reversed $61 $-1 #
coedge $-1 $167 $63 $168 $169 reversed $39 $-1 #
coedge $-1 $63 $167 $163 $170 forward $39 $-1 #
coedge $-1 $165 $171 $63 $103 forward $172 $-1 #
edge $-1 $173 -22.9754551419161 $174 -9.0880064907763369 $102 $175 forward 7 unknown #
loop $-1 $-1 $109 $64 #
plane-surface $-1 -11.142593208605263 -32.063461632692437 110.00543663146254 0.80901700255871778 0 0.5877852410284794 0.5877852410284794 0 -0.80901700255871778 forward_v I I I I #
loop $-1 $-1 $176 $41 #
coedge $-1 $107 $107 $108 $177 reversed $65 $-1 #
coedge $-1 $108 $108 $107 $177 forward $67 $-1 #
coedge $-1 $109 $109 $68 $110 forward $104 $-1 #
edge $-1 $178 0 $178 6.2831853071796004 $109 $179 forward 7 unknown #
loop $-1 $-1 $116 $69 #
plane-surface $-1 -11.142593208605263 -32.063461632692437 110.00543663146254 0.80901700255871778 0 0.5877852410284794 0.5877852410284794 0 -0.80901700255871778 forward_v I I I I #
loop $-1 $-1 $180 $44 #
coedge $-1 $114 $114 $115 $181 reversed $70 $-1 #
coedge $-1 $115 $115 $114 $181 forward $72 $-1 #
coedge $-1 $116 $116 $73 $117 forward $111 $-1 #
edge $-1 $182 0 $182 6.2831853071796004 $116 $183 forward 7 unknown #
face $-1 $184 $185 $25 $-1 $186 reversed single #
loop $-1 $-1 $124 $74 #
plane-surface $-1 -63.465071565904722 0 0 1 0 0 0 0 -1 forward_v I I I I #
coedge $-1 $187 $188 $189 $190 reversed $75 $-1 #
coedge $-1 $123 $77 $191 $192 reversed $48 $-1 #
coedge $-1 $77 $122 $187 $193 reversed $48 $-1 #
coedge $-1 $189 $194 $77 $125 forward $119 $-1 #
edge $-1 $195 21.851124213598812 $196 33.645436036946435 $124 $197 forward 7 unknown #
loop $-1 $-1 $131 $78 #
plane-surface $-1 -63.465071565904751 -32.063461632692437 7.316792700617043 -0.80901700255871778 0 0.5877852410284794 0.5877852410284794 0 0.80901700255871778 forward_v I I I I #
loop $-1 $-1 $198 $50 #
coedge $-1 $129 $129 $130 $199 reversed $79 $-1 #
coedge $-1 $130 $130 $129 $199 forward $81 $-1 #
coedge $-1 $131 $131 $82 $132 forward $126 $-1 #
edge $-1 $200 0 $200 6.2831853071796004 $131 $201 forward 7 unknown #
loop $-1 $-1 $138 $83 #
plane-surface $-1 -63.465071565904751 -32.063461632692437 7.316792700617043 -0.80901700255871778 0 0.5877852410284794 0.5877852410284794 0 0.80901700255871778 forward_v I I I I #
loop $-1 $-1 $202 $53 #
coedge $-1 $136 $136 $137 $203 reversed $84 $-1 #
coedge $-1 $137 $137 $136 $203 forward $86 $-1 #
coedge $-1 $138 $138 $87 $139 forward $133 $-1 #
edge $-1 $204 0 $204 6.2831853071796004 $138 $205 forward 7 unknown #
face $-1 $206 $207 $21 $-1 $208 reversed single #
loop $-1 $-1 $209 $88 #
plane-surface $-1 -63.465071565904722 0 0 1 0 0 0 0 -1 forward_v I I I I #
coedge $-1 $210 $151 $211 $212 forward $89 $-1 #
coedge $-1 $213 $91 $210 $214 forward $57 $-1 #
coedge $-1 $91 $213 $215 $216 forward $57 $-1 #
coedge $-1 $154 $153 $91 $147 reversed $155 $-1 #
edge $-1 $217 -39.007185958262319 $218 39.007185958262319 $146 $219 forward 7 unknown #
coedge $-1 $93 $92 $220 $221 forward $36 $-1 #
coedge $-1 $222 $223 $92 $150 reversed $207 $-1 #
edge $-1 $157 -63.465071565904722 $224 63.465071565904722 $149 $225 forward 7 unknown #
coedge $-1 $143 $226 $93 $152 reversed $89 $-1 #
edge $-1 $227 -63.465071565904722 $156 63.465071565904722 $151 $228 forward 7 unknown #
coedge $-1 $146 $94 $226 $229 forward $155 $-1 #
coedge $-1 $94 $146 $222 $230 reversed $155 $-1 #
loop $-1 $-1 $153 $206 #
vertex $-1 $95 $231 #
vertex $-1 $95 $232 #
straight-curve $-1 63.465071565904722 0 19.111104523964709 0 1 0 I I #
face $-1 $-1 $172 $22 $-1 $233 reversed single #
loop $-1 $-1 $168 $96 #
plane-surface $-1 0 -39.007185958262319 0 0 1 0 0 0 1 forward_v I I I I #
coedge $-1 $234 $235 $164 $236 forward $97 $-1 #
coedge $-1 $164 $99 $101 $170 reversed $61 $-1 #
coedge $-1 $99 $163 $162 $236 reversed $61 $-1 #
coedge $-1 $237 $102 $99 $166 forward $172 $-1 #
edge $-1 $174 -84.9897580023692 $238 -73.195446179021559 $165 $239 forward 7 unknown #
coedge $-1 $101 $100 $234 $240 reversed $39 $-1 #
coedge $-1 $241 $242 $100 $169 forward $160 $-1 #
edge $-1 $243 64.578711896019072 $173 79.157282910033842 $168 $244 forward 7 unknown #
edge $-1 $245 112.35157211779465 $174 126.93014313180942 $163 $246 forward 7 unknown #
coedge $-1 $102 $237 $241 $247 forward $172 $-1 #
loop $-1 $-1 $165 $159 #
vertex $-1 $169 $248 #
vertex $-1 $103 $249 #
straight-curve $-1 63.465071565904736 -16.031730816346219 7.3167927006170785 0 1 0 I I #
coedge $-1 $176 $176 $-1 $250 reversed $106 $-1 #
edge $-1 $251 0 $251 6.2831853071796004 $107 $252 forward 7 unknown #
vertex $-1 $110 $253 #
ellipse-curve $-1 59.180537127242985 -35.039343486508102 13.213948612290881 0.80901700255871778 0 0.5877852410284794 0.8816778615427191 0 -1.2135255038380768 1 I I #
coedge $-1 $180 $180 $-1 $254 reversed $113 $-1 #
edge $-1 $255 0 $255 6.2831853071796004 $114 $256 forward 7 unknown #
vertex $-1 $117 $257 #
ellipse-curve $-1 59.180537127242985 -29.087579778876773 13.213948612290881 0.80901700255871778 0 0.5877852410284794 0.8816778615427191 0 -1.2135255038380768 1 I I #
face $-1 $-1 $258 $25 $-1 $259 forward single #
loop $-1 $-1 $260 $118 #
plane-surface $-1 0 -39.007185958262319 0 0 1 0 0 0 1 forward_v I I I I #
coedge $-1 $261 $121 $123 $193 forward $75 $-1 #
coedge $-1 $121 $261 $260 $262 reversed $75 $-1 #
coedge $-1 $263 $124 $121 $190 forward $119 $-1 #
edge $-1 $196 9.0880064907763369 $264 22.9754551419161 $189 $265 forward 7 unknown #
coedge $-1 $266 $267 $122 $192 forward $258 $-1 #
edge $-1 $268 -28.180855059793863 $195 -19.611786182470397 $191 $269 forward 7 unknown #
edge $-1 $196 4.8322124813089328e-014 $268 14.578571014014805 $123 $270 forward 7 unknown #
coedge $-1 $124 $263 $266 $271 reversed $119 $-1 #
vertex $-1 $271 $272 #
vertex $-1 $125 $273 #
straight-curve $-1 -63.465071565904722 -25.119737307122556 40.962228737563521 0 0 -1 I I #
coedge $-1 $198 $198 $-1 $274 reversed $128 $-1 #
edge $-1 $275 0 $275 6.2831853071796004 $129 $276 forward 7 unknown #
vertex $-1 $132 $277 #
ellipse-curve $-1 -59.180537127242992 -35.039343486508102 13.21394861229089 -0.80901700255871778 0 0.5877852410284794 0.8816778615427191 0 1.2135255038380768 1 I I #
coedge $-1 $202 $202 $-1 $278 reversed $135 $-1 #
edge $-1 $279 0 $279 6.2831853071796004 $136 $280 forward 7 unknown #
vertex $-1 $139 $281 #
ellipse-curve $-1 -59.180537127242992 -29.087579778876773 13.21394861229089 -0.80901700255871778 0 0.5877852410284794 0.8816778615427191 0 1.2135255038380768 1 I I #
face $-1 $-1 $155 $21 $-1 $282 reversed single #
loop $-1 $-1 $222 $140 #
plane-surface $-1 0 39.007185958262319 0 0 -1 0 0 0 -1 forward_v I I I I #
coedge $-1 $283 $220 $223 $284 forward $141 $-1 #
coedge $-1 $226 $143 $144 $214 reversed $89 $-1 #
coedge $-1 $220 $283 $143 $212 reversed $141 $-1 #
edge $-1 $227 -19.111104523964709 $285 19.111104523964709 $211 $286 forward 7 unknown #
coedge $-1 $145 $144 $283 $287 forward $57 $-1 #
edge $-1 $218 -63.465071565904722 $285 63.465071565904722 $210 $288 forward 7 unknown #
coedge $-1 $223 $222 $145 $216 reversed $207 $-1 #
edge $-1 $289 -63.465071565904722 $217 63.465071565904722 $215 $290 forward 7 unknown #
vertex $-1 $147 $291 #
vertex $-1 $229 $292 #
straight-curve $-1 63.465071565904722 0 -19.111104523964709 0 -1 0 I I #
coedge $-1 $209 $211 $148 $221 reversed $141 $-1 #
edge $-1 $224 -39.007185958262319 $227 39.007185958262319 $220 $293 forward 7 unknown #
coedge $-1 $215 $149 $154 $230 forward $207 $-1 #
coedge $-1 $149 $215 $209 $284 reversed $207 $-1 #
vertex $-1 $150 $294 #
straight-curve $-1 0 39.007185958262319 19.111104523964709 -1 0 0 I I #
coedge $-1 $151 $210 $153 $229 reversed $89 $-1 #
vertex $-1 $221 $295 #
straight-curve $-1 0 -39.007185958262319 19.111104523964709 1 0 0 I I #
edge $-1 $156 -19.111104523964709 $218 19.111104523964709 $153 $296 forward 7 unknown #
edge $-1 $157 -19.111104523964709 $217 19.111104523964709 $154 $297 forward 7 unknown #
point $-1 63.465071565904722 -39.007185958262319 19.111104523964709 #
point $-1 63.465071565904722 39.007185958262319 19.111104523964709 #
plane-surface $-1 63.465071565904722 0 0 -1 0 0 0 0 1 forward_v I I I I #
coedge $-1 $298 $162 $167 $240 forward $97 $-1 #
coedge $-1 $162 $298 $237 $299 forward $97 $-1 #
edge $-1 $238 -17.69204620478461 $245 -9.1229773274611361 $162 $300 forward 7 unknown #
coedge $-1 $171 $165 $235 $299 reversed $172 $-1 #
vertex $-1 $166 $301 #
straight-curve $-1 63.465071565904722 -25.119737307122556 92.306550702986272 0 0 1 I I #
edge $-1 $245 9.0880064907763369 $243 22.9754551419161 $234 $302 forward 7 unknown #
coedge $-1 $242 $168 $171 $247 reversed $160 $-1 #
coedge $-1 $168 $241 $298 $303 reversed $160 $-1 #
vertex $-1 $303 $304 #
straight-curve $-1 16.93758895147095 -39.007185958262319 71.356380451185075 0.5877852410284794 0 -0.80901700255871778 I I #
vertex $-1 $240 $305 #
straight-curve $-1 -11.142593208605263 -25.119737307122556 110.00543663146254 0.5877852410284794 0 -0.80901700255871778 I I #
edge $-1 $306 -19.111104523964709 $173 -7.3167927006170901 $171 $307 forward 7 unknown #
point $-1 63.465071565904722 -39.007185958262319 7.3167927006170901 #
point $-1 63.465071565904722 -25.119737307122556 7.3167927006170714 #
edge $-1 $308 1 $308 0 $176 $-1 forward 7 unknown #
vertex $-1 $177 $309 #
ellipse-curve $-1 57.258161922685858 -35.039343486508102 11.817261312290938 0.80901700255871778 0 0.5877852410284794 0.8816778615427191 0 -1.2135255038380768 1 I I #
point $-1 60.062214988785698 -35.039343486508102 12.000423108452797 #
edge $-1 $310 1 $310 0 $180 $-1 forward 7 unknown #
vertex $-1 $181 $311 #
ellipse-curve $-1 57.258161922685858 -29.087579778876773 11.817261312290938 0.80901700255871778 0 0.5877852410284794 0.8816778615427191 0 -1.2135255038380768 1 I I #
point $-1 60.062214988785698 -29.087579778876773 12.000423108452797 #
loop $-1 $-1 $191 $184 #
plane-surface $-1 0 0 19.111104523964709 0 0 1 1 0 0 forward_v I I I I #
coedge $-1 $312 $313 $188 $262 forward $185 $-1 #
coedge $-1 $188 $187 $267 $314 reversed $75 $-1 #
edge $-1 $264 -15.692211344129106 $315 -1.1136403301143494 $260 $316 forward 7 unknown #
coedge $-1 $194 $189 $313 $317 reversed $119 $-1 #
vertex $-1 $262 $318 #
straight-curve $-1 -63.465071565904722 -16.031730816346219 7.3167927006170874 0 -1 0 I I #
coedge $-1 $319 $191 $194 $271 forward $258 $-1 #
coedge $-1 $191 $319 $261 $314 forward $258 $-1 #
vertex $-1 $192 $320 #
straight-curve $-1 -83.076857748375119 -25.119737307122556 19.111104523964709 -1 0 0 I I #
straight-curve $-1 -63.465071565904751 -25.119737307122556 7.316792700617043 0.5877852410284794 0 0.80901700255871778 I I #
edge $-1 $195 25.119737307122556 $321 39.007185958262319 $194 $322 forward 7 unknown #
point $-1 -63.465071565904722 -25.119737307122556 19.111104523964709 #
point $-1 -63.465071565904722 -25.119737307122556 7.3167927006170821 #
edge $-1 $323 1 $323 0 $198 $-1 forward 7 unknown #
vertex $-1 $199 $324 #
ellipse-curve $-1 -57.258161922685858 -35.039343486508102 11.817261312290942 -0.80901700255871778 0 0.5877852410284794 0.8816778615427191 0 1.2135255038380768 1 I I #
point $-1 -58.298859265700258 -35.039343486508102 14.427474116128954 #
edge $-1 $325 1 $325 0 $202 $-1 forward 7 unknown #
vertex $-1 $203 $326 #
ellipse-curve $-1 -57.258161922685858 -29.087579778876773 11.817261312290942 -0.80901700255871778 0 0.5877852410284794 0.8816778615427191 0 1.2135255038380768 1 I I #
point $-1 -58.298859265700258 -29.087579778876773 14.427474116128954 #
plane-surface $-1 63.465071565904722 0 0 -1 0 0 0 0 1 forward_v I I I I #
coedge $-1 $211 $209 $213 $287 reversed $141 $-1 #
edge $-1 $224 -19.111104523964709 $289 19.111104523964709 $223 $327 forward 7 unknown #
vertex $-1 $287 $328 #
straight-curve $-1 -63.465071565904722 -39.007185958262319 0 0 0 -1 I I #
edge $-1 $285 -39.007185958262319 $289 39.007185958262319 $283 $329 forward 7 unknown #
straight-curve $-1 0 -39.007185958262319 -19.111104523964709 -1 0 0 I I #
vertex $-1 $216 $330 #
straight-curve $-1 0 39.007185958262319 -19.111104523964709 1 0 0 I I #
point $-1 63.465071565904722 39.007185958262319 -19.111104523964709 #
point $-1 63.465071565904722 -39.007185958262319 -19.111104523964709 #
straight-curve $-1 -63.465071565904722 0 19.111104523964709 0 -1 0 I I #
point $-1 -63.465071565904722 39.007185958262319 19.111104523964709 #
point $-1 -63.465071565904722 -39.007185958262319 19.111104523964709 #
straight-curve $-1 63.465071565904722 -39.007185958262319 0 0 0 -1 I I #
straight-curve $-1 63.465071565904722 39.007185958262319 0 0 0 -1 I I #
coedge $-1 $235 $234 $242 $303 forward $97 $-1 #
edge $-1 $306 -39.007185958262319 $238 -25.119737307122556 $237 $331 forward 7 unknown #
straight-curve $-1 45.773025361120112 -25.119737307122556 19.111104523964713 -1 0 0 I I #
point $-1 63.465071565904722 -25.119737307122556 19.111104523964709 #
straight-curve $-1 54.896002688581241 -16.031730816346219 19.111104523964713 0 -1 0 I I #
edge $-1 $243 54.896002688581248 $306 63.465071565904722 $242 $332 forward 7 unknown #
point $-1 54.896002688581248 -39.007185958262319 19.111104523964713 #
point $-1 54.896002688581248 -25.119737307122556 19.111104523964713 #
vertex $-1 $299 $333 #
straight-curve $-1 63.465071565904722 -39.007185958262319 0 0 0 -1 I I #
vertex $-1 $250 $334 #
point $-1 58.139839784228577 -35.039343486508102 10.603735808452861 #
vertex $-1 $254 $335 #
point $-1 58.139839784228577 -29.087579778876773 10.603735808452861 #
coedge $-1 $313 $260 $319 $336 reversed $185 $-1 #
coedge $-1 $260 $312 $263 $317 forward $185 $-1 #
edge $-1 $315 -22.9754551419161 $268 -9.0880064907763369 $267 $337 forward 7 unknown #
vertex $-1 $314 $338 #
straight-curve $-1 -54.241421338725957 -39.007185958262319 20.012058485762321 0.5877852410284794 0 0.80901700255871778 I I #
edge $-1 $321 -19.111104523964709 $264 -7.3167927006170821 $263 $339 forward 7 unknown #
point $-1 -63.465071565904722 -39.007185958262319 7.3167927006170821 #
coedge $-1 $267 $266 $312 $336 forward $258 $-1 #
point $-1 -54.896002688581255 -25.119737307122556 19.111104523964709 #
vertex $-1 $271 $340 #
straight-curve $-1 -63.465071565904722 0 19.111104523964709 0 -1 0 I I #
vertex $-1 $274 $341 #
point $-1 -56.376484061143145 -35.039343486508102 13.030786816129018 #
vertex $-1 $278 $342 #
point $-1 -56.376484061143145 -29.087579778876773 13.030786816129018 #
straight-curve $-1 -63.465071565904722 39.007185958262319 0 0 0 -1 I I #
point $-1 -63.465071565904722 -39.007185958262319 -19.111104523964709 #
straight-curve $-1 -63.465071565904722 0 -19.111104523964709 0 1 0 I I #
point $-1 -63.465071565904722 39.007185958262319 -19.111104523964709 #
straight-curve $-1 63.465071565904722 0 19.111104523964709 0 1 0 I I #
straight-curve $-1 0 -39.007185958262319 19.111104523964709 1 0 0 I I #
point $-1 63.465071565904722 -39.007185958262319 19.111104523964709 #
point $-1 56.044636418847787 -35.039343486508102 10.935583450748219 #
point $-1 56.044636418847787 -29.087579778876773 10.935583450748219 #
edge $-1 $321 -63.465071565904722 $315 -54.896002688581255 $312 $343 forward 7 unknown #
straight-curve $-1 -54.896002688581255 -16.031730816346219 19.111104523964709 0 1 0 I I #
point $-1 -54.896002688581255 -39.007185958262319 19.111104523964709 #
straight-curve $-1 -63.465071565904722 -39.007185958262319 0 0 0 -1 I I #
point $-1 -63.465071565904722 -39.007185958262319 19.111104523964709 #
point $-1 -56.044636418847787 -35.039343486508102 10.935583450748222 #
point $-1 -56.044636418847787 -29.087579778876773 10.935583450748222 #
straight-curve $-1 0 -39.007185958262319 19.111104523964709 1 0 0 I I #
End-of-ACIS-data 