500 0 6 0           
7 Unknown 11 ACIS 5.0 NT 24 Fri Mar 26 18:38:28 1999 
-1 9.9999999999999995e-007 1e-010 
body $-1 $6 $-1 $7 #
body $-1 $8 $-1 $9 #
body $-1 $10 $-1 $11 #
body $-1 $12 $-1 $13 #
body $-1 $14 $-1 $15 #
body $-1 $16 $-1 $17 #
lump $-1 $-1 $18 $0 #
transform $-1 1 0 0 0 1 0 0 0 1 53.924985503708001 28.523448858615893 12.590899888177317 1 rotate no_reflect no_shear #
lump $-1 $-1 $19 $1 #
transform $-1 1 0 0 0 1 0 0 0 1 53.924985503708001 28.523448858615893 12.590899888177317 1 rotate no_reflect no_shear #
lump $-1 $-1 $20 $2 #
transform $-1 1 0 0 0 1 0 0 0 1 53.924985503708001 28.523448858615893 12.590899888177317 1 rotate no_reflect no_shear #
lump $-1 $-1 $21 $3 #
transform $-1 1 0 0 0 1 0 0 0 1 53.924985503708001 28.523448858615893 12.590899888177317 1 rotate no_reflect no_shear #
lump $-1 $-1 $22 $4 #
transform $-1 1 0 0 0 1 0 0 0 1 53.924985503708001 28.523448858615893 12.590899888177317 1 rotate no_reflect no_shear #
lump $-1 $-1 $23 $5 #
transform $-1 1 0 0 0 1 0 0 0 1 53.924985503708001 28.523448858615893 12.590899888177317 1 rotate no_reflect no_shear #
shell $-1 $-1 $-1 $24 $-1 $6 #
shell $-1 $-1 $-1 $25 $-1 $8 #
shell $-1 $-1 $-1 $26 $-1 $10 #
shell $-1 $-1 $-1 $27 $-1 $12 #
shell $-1 $-1 $-1 $28 $-1 $14 #
shell $-1 $-1 $-1 $29 $-1 $16 #
face $-1 $30 $31 $18 $-1 $32 forward single #
face $-1 $33 $34 $19 $-1 $35 forward single #
face $-1 $36 $37 $20 $-1 $38 forward single #
face $-1 $39 $40 $21 $-1 $41 reversed single #
face $-1 $42 $43 $22 $-1 $44 forward single #
face $-1 $45 $46 $23 $-1 $47 forward single #
face $-1 $48 $49 $18 $-1 $50 reversed single #
loop $-1 $-1 $51 $24 #
plane-surface $-1 0 0 12.590899888177317 0 0 1 1 0 0 forward_v I I I I #
face $-1 $52 $53 $19 $-1 $54 forward single #
loop $-1 $-1 $55 $25 #
plane-surface $-1 -53.924985503708001 0 0 1 0 0 0 0 -1 forward_v I I I I #
face $-1 $56 $57 $20 $-1 $58 reversed single #
loop $-1 $-1 $59 $26 #
plane-surface $-1 53.924985503708001 0 0 -1 0 0 0 0 1 forward_v I I I I #
face $-1 $60 $61 $21 $-1 $62 reversed single #
loop $-1 $-1 $63 $27 #
plane-surface $-1 27.181230844044734 43.653569096724937 123.29606875298975 1 0 0 0 -0.57357644374324357 -0.81915203911291934 forward_v I I I I #
face $-1 $64 $65 $22 $-1 $66 forward single #
loop $-1 $67 $68 $28 #
cone-surface $-1 30.744711617212644 20.092421519900146 5.9358854556456357 0 -0.57357644374324357 -0.81915203911291934 1.5 0 0 1 I I 0 1 1.5 forward I I I I #
face $-1 $69 $70 $23 $-1 $71 forward single #
loop $-1 $72 $73 $29 #
cone-surface $-1 36.089932776964503 20.092421519900146 5.9358854556456357 0 -0.57357644374324357 -0.81915203911291934 1.5 0 0 1 I I 0 1 1.5 forward I I I I #
face $-1 $74 $75 $18 $-1 $76 reversed single #
loop $-1 $-1 $77 $30 #
plane-surface $-1 0 0 -12.590899888177317 0 0 1 1 0 0 forward_v I I I I #
coedge $-1 $78 $79 $80 $81 forward $31 $-1 #
face $-1 $82 $83 $19 $-1 $84 reversed single #
loop $-1 $-1 $85 $33 #
plane-surface $-1 0 0 12.590899888177317 0 0 1 1 0 0 forward_v I I I I #
coedge $-1 $86 $87 $88 $89 forward $34 $-1 #
face $-1 $90 $91 $20 $-1 $92 reversed single #
loop $-1 $-1 $93 $36 #
plane-surface $-1 0 -28.523448858615893 0 0 1 0 0 0 1 forward_v I I I I #
coedge $-1 $94 $95 $96 $97 forward $37 $-1 #
face $-1 $98 $99 $21 $-1 $100 reversed single #
loop $-1 $-1 $101 $39 #
plane-surface $-1 33.417322197088566 -18.206633731520661 34.950545083995706 0 0.57357644374324357 0.81915203911291934 1 0 0 forward_v I I I I #
coedge $-1 $102 $103 $104 $105 reversed $40 $-1 #
face $-1 $-1 $106 $22 $-1 $107 forward single #
loop $-1 $108 $109 $42 #
cone-surface $-1 30.744711617212644 18.629812091173754 3.8470627554872525 0 -0.57357644374324357 -0.81915203911291934 0.75 0 0 1 I I -0.70710678118654757 0.70710678118654757 0.75 forward I I I I #
loop $-1 $-1 $110 $28 #
coedge $-1 $68 $68 $111 $112 reversed $43 $-1 #
face $-1 $-1 $113 $23 $-1 $114 forward single #
loop $-1 $115 $116 $45 #
cone-surface $-1 36.089932776964503 18.629812091173754 3.8470627554872525 0 -0.57357644374324357 -0.81915203911291934 0.75 0 0 1 I I -0.70710678118654757 0.70710678118654757 0.75 forward I I I I #
loop $-1 $-1 $117 $29 #
coedge $-1 $73 $73 $118 $119 reversed $46 $-1 #
face $-1 $120 $121 $18 $-1 $122 reversed single #
loop $-1 $-1 $123 $48 #
plane-surface $-1 0 -28.523448858615893 0 0 1 0 0 0 1 forward_v I I I I #
coedge $-1 $124 $125 $126 $127 forward $49 $-1 #
coedge $-1 $128 $51 $129 $130 forward $31 $-1 #
coedge $-1 $51 $128 $131 $132 forward $31 $-1 #
coedge $-1 $133 $134 $51 $81 reversed $135 $-1 #
edge $-1 $136 -28.523448858615893 $137 28.523448858615893 $80 $138 forward 7 unknown #
face $-1 $139 $140 $19 $-1 $141 reversed single #
loop $-1 $-1 $142 $52 #
plane-surface $-1 -68.196557457283603 -26.555407476820864 0 1 0 0 0 0 -1 forward_v I I I I #
coedge $-1 $143 $144 $86 $145 forward $53 $-1 #
coedge $-1 $146 $55 $85 $145 reversed $34 $-1 #
coedge $-1 $55 $146 $147 $148 reversed $34 $-1 #
coedge $-1 $149 $150 $55 $89 reversed $140 $-1 #
edge $-1 $151 -12.590899888177317 $152 12.590899888177317 $88 $153 forward 7 unknown #
face $-1 $154 $155 $20 $-1 $156 reversed single #
loop $-1 $-1 $157 $56 #
plane-surface $-1 0 0 -12.590899888177317 0 0 1 1 0 0 forward_v I I I I #
coedge $-1 $158 $159 $160 $161 forward $57 $-1 #
coedge $-1 $160 $59 $157 $162 reversed $37 $-1 #
coedge $-1 $59 $160 $163 $164 reversed $37 $-1 #
coedge $-1 $165 $166 $59 $97 reversed $155 $-1 #
edge $-1 $167 -12.590899888177317 $168 12.590899888177317 $96 $169 forward 7 unknown #
face $-1 $170 $171 $21 $-1 $172 reversed single #
loop $-1 $-1 $173 $60 #
plane-surface $-1 39.653413550132399 43.653569096724937 123.29606875298975 -1 0 0 0 0.57357644374324357 0.81915203911291934 forward_v I I I I #
coedge $-1 $174 $175 $176 $177 reversed $61 $-1 #
coedge $-1 $103 $63 $178 $179 reversed $40 $-1 #
coedge $-1 $63 $102 $174 $180 reversed $40 $-1 #
coedge $-1 $176 $181 $63 $105 forward $182 $-1 #
edge $-1 $183 -6.6966643102534249 $184 8.1005361753401566 $104 $185 forward 7 unknown #
loop $-1 $-1 $111 $64 #
plane-surface $-1 33.417322197088566 -18.206633731520661 34.950545083995706 0 0.57357644374324357 0.81915203911291934 1 0 0 forward_v I I I I #
loop $-1 $-1 $186 $42 #
coedge $-1 $109 $109 $110 $187 reversed $65 $-1 #
coedge $-1 $110 $110 $109 $187 forward $67 $-1 #
coedge $-1 $111 $111 $68 $112 forward $106 $-1 #
edge $-1 $188 -1.0188764387621837e-015 $188 6.2831853071795996 $111 $189 forward 7 unknown #
loop $-1 $-1 $118 $69 #
plane-surface $-1 33.417322197088566 -18.206633731520661 34.950545083995706 0 0.57357644374324357 0.81915203911291934 1 0 0 forward_v I I I I #
loop $-1 $-1 $190 $45 #
coedge $-1 $116 $116 $117 $191 reversed $70 $-1 #
coedge $-1 $117 $117 $116 $191 forward $72 $-1 #
coedge $-1 $118 $118 $73 $119 forward $113 $-1 #
edge $-1 $192 -1.0188764387621837e-015 $192 6.2831853071795996 $118 $193 forward 7 unknown #
face $-1 $194 $195 $18 $-1 $196 reversed single #
loop $-1 $-1 $197 $74 #
plane-surface $-1 -53.924985503708001 0 0 1 0 0 0 0 -1 forward_v I I I I #
coedge $-1 $198 $131 $199 $200 forward $75 $-1 #
coedge $-1 $201 $77 $198 $202 forward $49 $-1 #
coedge $-1 $77 $201 $203 $204 forward $49 $-1 #
coedge $-1 $134 $133 $77 $127 reversed $135 $-1 #
edge $-1 $205 -28.523448858615893 $206 28.523448858615893 $126 $207 forward 7 unknown #
coedge $-1 $79 $78 $208 $209 forward $31 $-1 #
coedge $-1 $210 $211 $78 $130 reversed $195 $-1 #
edge $-1 $137 -53.924985503708001 $212 53.924985503708001 $129 $213 forward 7 unknown #
coedge $-1 $123 $214 $79 $132 reversed $75 $-1 #
edge $-1 $215 -53.924985503708001 $136 53.924985503708001 $131 $216 forward 7 unknown #
coedge $-1 $126 $80 $214 $217 forward $135 $-1 #
coedge $-1 $80 $126 $210 $218 reversed $135 $-1 #
loop $-1 $-1 $133 $194 #
vertex $-1 $81 $219 #
vertex $-1 $81 $220 #
straight-curve $-1 53.924985503708001 0 12.590899888177317 0 1 0 I I #
face $-1 $221 $222 $19 $-1 $223 reversed single #
loop $-1 $-1 $88 $82 #
plane-surface $-1 -61.060771480495802 -24.587366095025835 0 0 -1 0 0 0 -1 forward_v I I I I #
coedge $-1 $224 $225 $226 $227 forward $83 $-1 #
coedge $-1 $228 $85 $150 $229 forward $53 $-1 #
coedge $-1 $85 $228 $230 $231 forward $53 $-1 #
edge $-1 $232 -28.523448858615893 $152 -24.587366095025835 $85 $233 forward 7 unknown #
coedge $-1 $87 $86 $234 $235 reversed $34 $-1 #
coedge $-1 $236 $237 $87 $148 forward $222 $-1 #
edge $-1 $151 24.587366095025835 $238 28.523448858615893 $147 $239 forward 7 unknown #
coedge $-1 $226 $88 $237 $240 reversed $140 $-1 #
coedge $-1 $88 $226 $143 $229 reversed $140 $-1 #
vertex $-1 $148 $241 #
vertex $-1 $229 $242 #
straight-curve $-1 -53.924985503708001 -24.587366095025835 0 0 0 1 I I #
face $-1 $243 $244 $20 $-1 $245 reversed single #
loop $-1 $-1 $246 $90 #
plane-surface $-1 61.060771480495802 -24.587366095025835 0 0 -1 0 0 0 -1 forward_v I I I I #
coedge $-1 $247 $248 $94 $162 forward $91 $-1 #
coedge $-1 $249 $93 $248 $250 reversed $57 $-1 #
coedge $-1 $93 $249 $251 $252 reversed $57 $-1 #
coedge $-1 $95 $94 $93 $161 reversed $37 $-1 #
edge $-1 $253 -12.590899888177317 $254 12.590899888177317 $93 $255 forward 7 unknown #
edge $-1 $254 -28.523448858615893 $168 -24.587366095025835 $157 $256 forward 7 unknown #
coedge $-1 $251 $257 $95 $164 forward $258 $-1 #
edge $-1 $167 24.587366095025835 $253 28.523448858615893 $163 $259 forward 7 unknown #
coedge $-1 $246 $96 $257 $260 reversed $155 $-1 #
coedge $-1 $96 $246 $247 $261 reversed $155 $-1 #
vertex $-1 $164 $262 #
vertex $-1 $261 $263 #
straight-curve $-1 53.924985503708001 -24.587366095025835 0 0 0 -1 I I #
face $-1 $-1 $182 $21 $-1 $264 forward single #
loop $-1 $-1 $265 $98 #
plane-surface $-1 0 28.523448858615893 0 0 -1 0 0 0 -1 forward_v I I I I #
coedge $-1 $266 $267 $268 $269 reversed $99 $-1 #
coedge $-1 $270 $101 $103 $180 forward $61 $-1 #
coedge $-1 $101 $270 $266 $271 forward $61 $-1 #
coedge $-1 $268 $104 $101 $177 forward $182 $-1 #
edge $-1 $184 10.472569745500451 $272 22.944752451588116 $176 $273 forward 7 unknown #
coedge $-1 $274 $275 $102 $179 forward $171 $-1 #
edge $-1 $276 -59.418246011733537 $183 -49.057134488317558 $178 $277 forward 7 unknown #
edge $-1 $184 38.98285126546704 $276 57.046897717231786 $103 $278 forward 7 unknown #
coedge $-1 $104 $268 $274 $279 forward $182 $-1 #
loop $-1 $-1 $268 $170 #
vertex $-1 $179 $280 #
vertex $-1 $105 $281 #
straight-curve $-1 27.181230844044734 21.826784548362468 12.590899888177319 0 -1 0 I I #
coedge $-1 $186 $186 $-1 $282 reversed $108 $-1 #
edge $-1 $283 0 $283 6.2831853071796004 $109 $284 forward 7 unknown #
vertex $-1 $112 $285 #
ellipse-curve $-1 30.744711617212644 21.124848615819104 7.4103441264693286 0 0.57357644374324357 0.81915203911291934 1.5 0 0 1 I I #
coedge $-1 $190 $190 $-1 $286 reversed $115 $-1 #
edge $-1 $287 0 $287 6.2831853071796004 $116 $288 forward 7 unknown #
vertex $-1 $119 $289 #
ellipse-curve $-1 36.089932776964503 21.124848615819104 7.4103441264693286 0 0.57357644374324357 0.81915203911291934 1.5 0 0 1 I I #
face $-1 $-1 $135 $18 $-1 $290 reversed single #
loop $-1 $-1 $210 $120 #
plane-surface $-1 0 28.523448858615893 0 0 -1 0 0 0 -1 forward_v I I I I #
coedge $-1 $291 $208 $211 $292 forward $121 $-1 #
coedge $-1 $214 $123 $124 $202 reversed $75 $-1 #
coedge $-1 $208 $291 $123 $200 reversed $121 $-1 #
edge $-1 $215 -12.590899888177317 $293 12.590899888177317 $199 $294 forward 7 unknown #
coedge $-1 $125 $124 $291 $295 forward $49 $-1 #
edge $-1 $206 -53.924985503708001 $293 53.924985503708001 $198 $296 forward 7 unknown #
coedge $-1 $211 $210 $125 $204 reversed $195 $-1 #
edge $-1 $297 -53.924985503708001 $205 53.924985503708001 $203 $298 forward 7 unknown #
vertex $-1 $127 $299 #
vertex $-1 $217 $300 #
straight-curve $-1 53.924985503708001 0 -12.590899888177317 0 -1 0 I I #
coedge $-1 $197 $199 $128 $209 reversed $121 $-1 #
edge $-1 $212 -28.523448858615893 $215 28.523448858615893 $208 $301 forward 7 unknown #
coedge $-1 $203 $129 $134 $218 forward $195 $-1 #
coedge $-1 $129 $203 $197 $292 reversed $195 $-1 #
vertex $-1 $130 $302 #
straight-curve $-1 0 28.523448858615893 12.590899888177317 -1 0 0 I I #
coedge $-1 $131 $198 $133 $217 reversed $75 $-1 #
vertex $-1 $209 $303 #
straight-curve $-1 0 -28.523448858615893 12.590899888177317 1 0 0 I I #
edge $-1 $136 -12.590899888177317 $206 12.590899888177317 $133 $304 forward 7 unknown #
edge $-1 $137 -12.590899888177317 $205 12.590899888177317 $134 $305 forward 7 unknown #
point $-1 53.924985503708001 -28.523448858615893 12.590899888177317 #
point $-1 53.924985503708001 28.523448858615893 12.590899888177317 #
face $-1 $-1 $306 $19 $-1 $307 reversed single #
loop $-1 $-1 $147 $139 #
plane-surface $-1 0 0 -12.590899888177317 0 0 1 1 0 0 forward_v I I I I #
coedge $-1 $308 $142 $309 $310 reversed $83 $-1 #
coedge $-1 $142 $308 $228 $311 reversed $83 $-1 #
coedge $-1 $150 $149 $142 $227 reversed $140 $-1 #
edge $-1 $312 -12.590899888177317 $313 12.590899888177317 $226 $314 forward 7 unknown #
coedge $-1 $144 $143 $225 $311 forward $53 $-1 #
edge $-1 $152 -7.1357859767878011 $312 7.1357859767878011 $150 $315 forward 7 unknown #
coedge $-1 $316 $234 $144 $231 reversed $306 $-1 #
edge $-1 $317 -68.196557457283603 $232 -53.924985503708001 $230 $318 forward 7 unknown #
vertex $-1 $235 $319 #
straight-curve $-1 -53.924985503708001 0 12.590899888177317 0 1 0 I I #
coedge $-1 $230 $320 $146 $235 forward $306 $-1 #
edge $-1 $238 -12.590899888177317 $232 12.590899888177317 $234 $321 forward 7 unknown #
coedge $-1 $309 $147 $320 $322 forward $222 $-1 #
coedge $-1 $147 $309 $149 $240 forward $222 $-1 #
vertex $-1 $322 $323 #
straight-curve $-1 -53.924985503708001 0 -12.590899888177317 0 -1 0 I I #
edge $-1 $313 -7.1357859767878011 $151 7.1357859767878011 $149 $324 forward 7 unknown #
point $-1 -53.924985503708001 -24.587366095025835 -12.590899888177317 #
point $-1 -53.924985503708001 -24.587366095025835 12.590899888177317 #
face $-1 $-1 $258 $20 $-1 $325 forward single #
loop $-1 $-1 $326 $154 #
plane-surface $-1 68.196557457283603 -26.555407476820864 0 -1 0 0 0 0 1 forward_v I I I I #
coedge $-1 $166 $165 $327 $328 forward $155 $-1 #
coedge $-1 $329 $157 $166 $261 forward $91 $-1 #
coedge $-1 $157 $329 $158 $250 forward $91 $-1 #
coedge $-1 $159 $158 $326 $330 reversed $57 $-1 #
edge $-1 $331 -7.1357859767878011 $254 7.1357859767878011 $158 $332 forward 7 unknown #
coedge $-1 $333 $163 $159 $252 forward $258 $-1 #
edge $-1 $253 -7.1357859767878011 $334 7.1357859767878011 $159 $335 forward 7 unknown #
vertex $-1 $252 $336 #
vertex $-1 $162 $337 #
straight-curve $-1 53.924985503708001 -28.523448858615893 0 0 0 -1 I I #
straight-curve $-1 53.924985503708001 0 -12.590899888177317 0 1 0 I I #
coedge $-1 $163 $333 $165 $260 forward $258 $-1 #
loop $-1 $-1 $163 $243 #
straight-curve $-1 53.924985503708001 0 12.590899888177317 0 -1 0 I I #
edge $-1 $338 -7.1357859767878011 $167 7.1357859767878011 $165 $339 forward 7 unknown #
edge $-1 $168 -7.1357859767878011 $340 7.1357859767878011 $166 $341 forward 7 unknown #
point $-1 53.924985503708001 -24.587366095025835 12.590899888177317 #
point $-1 53.924985503708001 -24.587366095025835 -12.590899888177317 #
plane-surface $-1 0 0 12.590899888177317 0 0 1 1 0 0 forward_v I I I I #
coedge $-1 $275 $274 $267 $342 forward $171 $-1 #
coedge $-1 $267 $173 $175 $271 reversed $99 $-1 #
coedge $-1 $173 $266 $265 $342 reversed $99 $-1 #
coedge $-1 $181 $176 $173 $269 forward $182 $-1 #
edge $-1 $272 -8.1005361753401566 $343 6.6966643102534249 $268 $344 forward 7 unknown #
coedge $-1 $175 $174 $275 $345 reversed $61 $-1 #
edge $-1 $346 -57.046897717231786 $272 -38.98285126546704 $266 $347 forward 7 unknown #
vertex $-1 $177 $348 #
straight-curve $-1 16.708661098544283 13.726248373022313 12.590899888177319 1 0 0 I I #
coedge $-1 $265 $178 $181 $279 reversed $171 $-1 #
coedge $-1 $178 $265 $270 $345 forward $171 $-1 #
vertex $-1 $179 $349 #
straight-curve $-1 27.181230844044734 28.523448858615893 61.648034376494877 0 0 1 I I #
straight-curve $-1 27.181230844044734 -18.206633731520661 34.950545083995706 0 0.81915203911291934 -0.57357644374324357 I I #
edge $-1 $343 -39.653413550132399 $183 -27.181230844044734 $274 $350 forward 7 unknown #
point $-1 27.181230844044734 28.523448858615893 12.590899888177317 #
point $-1 27.181230844044734 13.726248373022312 12.590899888177319 #
edge $-1 $351 1 $351 0 $186 $-1 forward 7 unknown #
vertex $-1 $187 $352 #
ellipse-curve $-1 30.744711617212644 19.059994423981188 4.461426784821942 0 0.57357644374324357 0.81915203911291934 1.5 0 0 1 I I #
point $-1 32.244711617212644 21.124848615819104 7.4103441264693313 #
edge $-1 $353 1 $353 0 $190 $-1 forward 7 unknown #
vertex $-1 $191 $354 #
ellipse-curve $-1 36.089932776964503 19.059994423981188 4.461426784821942 0 0.57357644374324357 0.81915203911291934 1.5 0 0 1 I I #
point $-1 37.589932776964503 21.124848615819104 7.4103441264693313 #
plane-surface $-1 53.924985503708001 0 0 -1 0 0 0 0 1 forward_v I I I I #
coedge $-1 $199 $197 $201 $295 reversed $121 $-1 #
edge $-1 $212 -12.590899888177317 $297 12.590899888177317 $211 $355 forward 7 unknown #
vertex $-1 $295 $356 #
straight-curve $-1 -53.924985503708001 -28.523448858615893 0 0 0 -1 I I #
edge $-1 $293 -28.523448858615893 $297 28.523448858615893 $291 $357 forward 7 unknown #
straight-curve $-1 0 -28.523448858615893 -12.590899888177317 -1 0 0 I I #
vertex $-1 $204 $358 #
straight-curve $-1 0 28.523448858615893 -12.590899888177317 1 0 0 I I #
point $-1 53.924985503708001 28.523448858615893 -12.590899888177317 #
point $-1 53.924985503708001 -28.523448858615893 -12.590899888177317 #
straight-curve $-1 -53.924985503708001 0 12.590899888177317 0 -1 0 I I #
point $-1 -53.924985503708001 28.523448858615893 12.590899888177317 #
point $-1 -53.924985503708001 -28.523448858615893 12.590899888177317 #
straight-curve $-1 53.924985503708001 -28.523448858615893 0 0 0 -1 I I #
straight-curve $-1 53.924985503708001 28.523448858615893 0 0 0 -1 I I #
loop $-1 $-1 $234 $221 #
plane-surface $-1 0 -28.523448858615893 0 0 1 0 0 0 1 forward_v I I I I #
coedge $-1 $225 $224 $316 $359 reversed $83 $-1 #
coedge $-1 $237 $236 $224 $310 forward $222 $-1 #
edge $-1 $360 -1.9680413817950289 $313 1.9680413817950289 $224 $361 forward 7 unknown #
edge $-1 $312 -1.9680413817950289 $317 1.9680413817950289 $225 $362 forward 7 unknown #
vertex $-1 $229 $363 #
vertex $-1 $240 $364 #
straight-curve $-1 -68.196557457283603 -24.587366095025835 0 0 0 -1 I I #
straight-curve $-1 -61.060771480495802 -24.587366095025835 12.590899888177317 -1 0 0 I I #
coedge $-1 $320 $230 $308 $359 forward $306 $-1 #
vertex $-1 $311 $365 #
straight-curve $-1 0 -28.523448858615893 12.590899888177317 1 0 0 I I #
point $-1 -53.924985503708001 -28.523448858615893 12.590899888177317 #
coedge $-1 $234 $316 $236 $322 reversed $306 $-1 #
straight-curve $-1 -53.924985503708001 -28.523448858615893 0 0 0 1 I I #
edge $-1 $238 -7.1357859767878011 $360 7.1357859767878011 $320 $366 forward 7 unknown #
point $-1 -53.924985503708001 -28.523448858615893 -12.590899888177317 #
straight-curve $-1 -61.060771480495802 -24.587366095025835 -12.590899888177317 1 0 0 I I #
plane-surface $-1 0 0 12.590899888177317 0 0 1 1 0 0 forward_v I I I I #
coedge $-1 $367 $368 $249 $330 forward $244 $-1 #
coedge $-1 $368 $367 $246 $328 reversed $244 $-1 #
edge $-1 $338 -12.590899888177317 $340 12.590899888177317 $327 $369 forward 7 unknown #
coedge $-1 $248 $247 $367 $370 forward $91 $-1 #
edge $-1 $334 -12.590899888177317 $331 12.590899888177317 $326 $371 forward 7 unknown #
vertex $-1 $330 $372 #
straight-curve $-1 61.060771480495802 -28.523448858615893 -12.590899888177317 -1 0 0 I I #
coedge $-1 $257 $251 $368 $373 forward $258 $-1 #
vertex $-1 $373 $374 #
straight-curve $-1 61.060771480495802 -28.523448858615893 12.590899888177317 1 0 0 I I #
point $-1 53.924985503708001 -28.523448858615893 12.590899888177317 #
point $-1 53.924985503708001 -28.523448858615893 -12.590899888177317 #
vertex $-1 $373 $375 #
straight-curve $-1 61.060771480495802 -24.587366095025835 12.590899888177317 -1 0 0 I I #
vertex $-1 $370 $376 #
straight-curve $-1 61.060771480495802 -24.587366095025835 -12.590899888177317 1 0 0 I I #
edge $-1 $343 49.057134488317558 $346 59.418246011733537 $265 $377 forward 7 unknown #
vertex $-1 $279 $378 #
straight-curve $-1 39.653413550132399 21.826784548362468 12.590899888177319 0 1 0 I I #
edge $-1 $346 -22.944752451588116 $276 -10.472569745500451 $275 $379 forward 7 unknown #
vertex $-1 $345 $380 #
straight-curve $-1 39.653413550132399 -18.206633731520661 34.950545083995706 0 -0.81915203911291934 0.57357644374324357 I I #
point $-1 39.653413550132399 13.726248373022312 12.590899888177319 #
point $-1 27.181230844044734 28.523448858615893 2.2297883647613403 #
straight-curve $-1 0 28.523448858615893 12.590899888177317 -1 0 0 I I #
vertex $-1 $282 $381 #
point $-1 32.244711617212644 19.059994423981188 4.461426784821942 #
vertex $-1 $286 $382 #
point $-1 37.589932776964503 19.059994423981188 4.461426784821942 #
straight-curve $-1 -53.924985503708001 28.523448858615893 0 0 0 -1 I I #
point $-1 -53.924985503708001 -28.523448858615893 -12.590899888177317 #
straight-curve $-1 -53.924985503708001 0 -12.590899888177317 0 1 0 I I #
point $-1 -53.924985503708001 28.523448858615893 -12.590899888177317 #
edge $-1 $317 -12.590899888177317 $360 12.590899888177317 $308 $383 forward 7 unknown #
vertex $-1 $310 $384 #
straight-curve $-1 -68.196557457283603 -26.555407476820864 -12.590899888177317 0 1 0 I I #
straight-curve $-1 -68.196557457283603 -26.555407476820864 12.590899888177317 0 -1 0 I I #
point $-1 -68.196557457283603 -24.587366095025835 12.590899888177317 #
point $-1 -68.196557457283603 -24.587366095025835 -12.590899888177317 #
point $-1 -68.196557457283603 -28.523448858615893 12.590899888177317 #
straight-curve $-1 -61.060771480495802 -28.523448858615893 -12.590899888177317 -1 0 0 I I #
coedge $-1 $327 $326 $329 $370 reversed $244 $-1 #
coedge $-1 $326 $327 $333 $373 reversed $244 $-1 #
straight-curve $-1 68.196557457283603 -24.587366095025835 0 0 0 -1 I I #
edge $-1 $340 -1.9680413817950289 $331 1.9680413817950289 $367 $385 forward 7 unknown #
straight-curve $-1 68.196557457283603 -28.523448858615893 0 0 0 -1 I I #
point $-1 68.196557457283603 -28.523448858615893 -12.590899888177317 #
edge $-1 $334 -1.9680413817950289 $338 1.9680413817950289 $368 $386 forward 7 unknown #
point $-1 68.196557457283603 -28.523448858615893 12.590899888177317 #
point $-1 68.196557457283603 -24.587366095025835 12.590899888177317 #
point $-1 68.196557457283603 -24.587366095025835 -12.590899888177317 #
straight-curve $-1 39.653413550132399 28.523448858615893 61.648034376494877 0 0 -1 I I #
point $-1 39.653413550132399 28.523448858615893 12.590899888177317 #
straight-curve $-1 16.708661098544283 28.523448858615893 2.2297883647613403 -1 0 0 I I #
point $-1 39.653413550132399 28.523448858615893 2.2297883647613403 #
point $-1 30.744711617212644 18.199629758366321 3.232698726152563 #
point $-1 36.089932776964503 18.199629758366321 3.232698726152563 #
straight-curve $-1 -68.196557457283603 -28.523448858615893 0 0 0 -1 I I #
point $-1 -68.196557457283603 -28.523448858615893 -12.590899888177317 #
straight-curve $-1 68.196557457283603 -26.555407476820864 -12.590899888177317 0 -1 0 I I #
straight-curve $-1 68.196557457283603 -26.555407476820864 12.590899888177317 0 1 0 I I #
End-of-ACIS-data 