500 0 11 0           
7 Unknown 11 ACIS 5.0 NT 24 Thu Mar 25 20:21:40 1999 
-1 9.9999999999999995e-007 1e-010 
body $-1 $11 $-1 $12 #
body $-1 $13 $-1 $14 #
body $-1 $15 $-1 $16 #
body $-1 $17 $-1 $18 #
body $-1 $19 $-1 $20 #
body $-1 $21 $-1 $22 #
body $-1 $23 $-1 $24 #
body $-1 $25 $-1 $26 #
body $-1 $27 $-1 $28 #
body $-1 $29 $-1 $30 #
body $-1 $31 $-1 $32 #
lump $-1 $-1 $33 $0 #
transform $-1 1 0 0 0 1 0 0 0 1 62.255317850276192 41.514818207930084 14.108855375276606 1 rotate no_reflect no_shear #
lump $-1 $-1 $34 $1 #
transform $-1 1 0 0 0 1 0 0 0 1 62.255317850276192 41.514818207930084 14.108855375276606 1 rotate no_reflect no_shear #
lump $-1 $-1 $35 $2 #
transform $-1 1 0 0 0 1 0 0 0 1 62.255317850276192 41.514818207930084 14.108855375276606 1 rotate no_reflect no_shear #
lump $-1 $-1 $36 $3 #
transform $-1 1 0 0 0 1 0 0 0 1 62.255317850276192 41.514818207930084 14.108855375276606 1 rotate no_reflect no_shear #
lump $-1 $-1 $37 $4 #
transform $-1 1 0 0 0 1 0 0 0 1 62.255317850276192 41.514818207930084 14.108855375276606 1 rotate no_reflect no_shear #
lump $-1 $-1 $38 $5 #
transform $-1 1 0 0 0 1 0 0 0 1 62.255317850276192 41.514818207930084 14.108855375276606 1 rotate no_reflect no_shear #
lump $-1 $-1 $39 $6 #
transform $-1 1 0 0 0 1 0 0 0 1 62.255317850276192 41.514818207930084 14.108855375276606 1 rotate no_reflect no_shear #
lump $-1 $-1 $40 $7 #
transform $-1 1 0 0 0 1 0 0 0 1 62.255317850276192 41.514818207930084 14.108855375276606 1 rotate no_reflect no_shear #
lump $-1 $-1 $41 $8 #
transform $-1 1 0 0 0 1 0 0 0 1 62.255317850276192 41.514818207930084 14.108855375276606 1 rotate no_reflect no_shear #
lump $-1 $-1 $42 $9 #
transform $-1 1 0 0 0 1 0 0 0 1 62.255317850276192 41.514818207930084 14.108855375276606 1 rotate no_reflect no_shear #
lump $-1 $-1 $43 $10 #
transform $-1 1 0 0 0 1 0 0 0 1 62.255317850276192 41.514818207930084 14.108855375276606 1 rotate no_reflect no_shear #
shell $-1 $-1 $-1 $44 $-1 $11 #
shell $-1 $-1 $-1 $45 $-1 $13 #
shell $-1 $-1 $-1 $46 $-1 $15 #
shell $-1 $-1 $-1 $47 $-1 $17 #
shell $-1 $-1 $-1 $48 $-1 $19 #
shell $-1 $-1 $-1 $49 $-1 $21 #
shell $-1 $-1 $-1 $50 $-1 $23 #
shell $-1 $-1 $-1 $51 $-1 $25 #
shell $-1 $-1 $-1 $52 $-1 $27 #
shell $-1 $-1 $-1 $53 $-1 $29 #
shell $-1 $-1 $-1 $54 $-1 $31 #
face $-1 $55 $56 $33 $-1 $57 forward single #
face $-1 $58 $59 $34 $-1 $60 forward single #
face $-1 $61 $62 $35 $-1 $63 forward single #
face $-1 $64 $65 $36 $-1 $66 reversed single #
face $-1 $67 $68 $37 $-1 $69 forward single #
face $-1 $70 $71 $38 $-1 $72 reversed single #
face $-1 $73 $74 $39 $-1 $75 forward single #
face $-1 $76 $77 $40 $-1 $78 forward single #
face $-1 $79 $80 $41 $-1 $81 reversed single #
face $-1 $82 $83 $42 $-1 $84 forward single #
face $-1 $85 $86 $43 $-1 $87 forward single #
face $-1 $88 $89 $33 $-1 $90 reversed single #
loop $-1 $-1 $91 $44 #
plane-surface $-1 0 0 14.108855375276606 0 0 1 1 0 0 forward_v I I I I #
face $-1 $92 $93 $34 $-1 $94 reversed single #
loop $-1 $-1 $95 $45 #
plane-surface $-1 -54.039143234341736 0 -7.5234598285205561 0 0 1 1 0 0 forward_v I I I I #
face $-1 $96 $97 $35 $-1 $98 reversed single #
loop $-1 $-1 $99 $46 #
plane-surface $-1 54.039143234341729 0 -7.5234598285205561 0 0 1 1 0 0 forward_v I I I I #
face $-1 $100 $101 $36 $-1 $102 reversed single #
loop $-1 $-1 $103 $47 #
plane-surface $-1 -45.822968618407273 -140.9534342809213 83.898582648430192 1 0 0 0 0.79863551827123203 -0.60181501223851219 forward_v I I I I #
face $-1 $104 $105 $37 $-1 $106 forward single #
loop $-1 $107 $108 $48 #
cone-surface $-1 -39.235855697380515 -37.304397128548757 9.8248628699095502 0 0.79863551827123203 -0.60181501223851219 1.5 0 0 1 I I 0 1 1.5 forward I I I I #
face $-1 $109 $110 $38 $-1 $111 reversed single #
loop $-1 $-1 $112 $49 #
plane-surface $-1 -11.889465867304658 110.16070953167127 136.6329209639166 -1 0 0 0 0.87461971476443456 0.48480960649040278 forward_v I I I I #
face $-1 $113 $114 $39 $-1 $115 forward single #
loop $-1 $116 $117 $50 #
cone-surface $-1 -20.045718143328905 36.283770239834354 7.5864621946217783 0 -0.87461971476443456 -0.48480960649040278 1.5 0 0 1 I I 0 1 1.5 forward I I I I #
face $-1 $118 $119 $40 $-1 $120 forward single #
loop $-1 $121 $122 $51 #
cone-surface $-1 -15.151966777714357 36.283770239834354 7.5864621946217783 0 -0.87461971476443456 -0.48480960649040278 1.5 0 0 1 I I 0 1 1.5 forward I I I I #
face $-1 $123 $124 $41 $-1 $125 reversed single #
loop $-1 $-1 $126 $52 #
plane-surface $-1 23.308219053738604 110.16070953167127 136.6329209639166 -1 0 0 0 0.87461971476443456 0.48480960649040278 forward_v I I I I #
face $-1 $127 $128 $42 $-1 $129 forward single #
loop $-1 $130 $131 $53 #
cone-surface $-1 15.151966777714357 36.283770239834354 7.5864621946217783 0 -0.87461971476443456 -0.48480960649040278 1.5 0 0 1 I I 0 1 1.5 forward I I I I #
face $-1 $132 $133 $43 $-1 $134 forward single #
loop $-1 $135 $136 $54 #
cone-surface $-1 20.045718143328905 36.283770239834354 7.5864621946217783 0 -0.87461971476443456 -0.48480960649040278 1.5 0 0 1 I I 0 1 1.5 forward I I I I #
face $-1 $137 $138 $33 $-1 $139 reversed single #
loop $-1 $-1 $140 $55 #
plane-surface $-1 0 0 -14.108855375276606 0 0 1 1 0 0 forward_v I I I I #
coedge $-1 $141 $142 $143 $144 forward $56 $-1 #
face $-1 $145 $146 $34 $-1 $147 reversed single #
loop $-1 $-1 $148 $58 #
plane-surface $-1 -45.82296861840728 0 -10.816157601898581 -1 0 0 0 0 1 forward_v I I I I #
coedge $-1 $149 $150 $151 $152 forward $59 $-1 #
face $-1 $153 $154 $35 $-1 $155 reversed single #
loop $-1 $-1 $156 $61 #
plane-surface $-1 45.822968618407273 0 -10.816157601898581 1 0 0 0 0 -1 forward_v I I I I #
coedge $-1 $157 $158 $159 $160 reversed $62 $-1 #
face $-1 $161 $162 $36 $-1 $163 reversed single #
loop $-1 $-1 $164 $64 #
plane-surface $-1 -39.235855697380515 -41.514818207930077 8.9662129004773305 0 -0.79863551827123203 0.60181501223851219 1 0 0 forward_v I I I I #
coedge $-1 $165 $166 $167 $168 reversed $65 $-1 #
face $-1 $-1 $169 $37 $-1 $170 forward single #
loop $-1 $171 $172 $67 #
cone-surface $-1 -39.235855697380515 -34.432628887931429 7.6608303427632531 0 0.79863551827123203 -0.60181501223851219 0.75 0 0 1 I I -0.70710678118654791 0.70710678118654702 0.75 forward I I I I #
loop $-1 $-1 $173 $48 #
coedge $-1 $108 $108 $174 $175 reversed $68 $-1 #
face $-1 $176 $177 $38 $-1 $178 reversed single #
loop $-1 $-1 $179 $70 #
plane-surface $-1 -17.598842460521631 1.2612528501157101 76.268968666061909 0 0.87461971476443456 0.48480960649040278 1 0 0 forward_v I I I I #
coedge $-1 $180 $181 $182 $183 reversed $71 $-1 #
face $-1 $-1 $184 $39 $-1 $185 forward single #
loop $-1 $186 $187 $73 #
cone-surface $-1 -20.045718143328905 33.295584085386061 5.9300836232236573 0 -0.87461971476443456 -0.48480960649040278 0.75 0 0 1 I I -0.70710678118654757 0.70710678118654757 0.75 forward I I I I #
loop $-1 $-1 $188 $50 #
coedge $-1 $117 $117 $189 $190 reversed $74 $-1 #
face $-1 $-1 $191 $40 $-1 $192 forward single #
loop $-1 $193 $194 $76 #
cone-surface $-1 -15.151966777714357 33.295584085386061 5.9300836232236573 0 -0.87461971476443456 -0.48480960649040278 0.75 0 0 1 I I -0.70710678118654757 0.70710678118654757 0.75 forward I I I I #
loop $-1 $-1 $195 $51 #
coedge $-1 $122 $122 $196 $197 reversed $77 $-1 #
face $-1 $198 $199 $41 $-1 $200 reversed single #
loop $-1 $-1 $201 $79 #
plane-surface $-1 17.598842460521631 1.2612528501157101 76.268968666061909 0 0.87461971476443456 0.48480960649040278 1 0 0 forward_v I I I I #
coedge $-1 $202 $203 $204 $205 reversed $80 $-1 #
face $-1 $-1 $206 $42 $-1 $207 forward single #
loop $-1 $208 $209 $82 #
cone-surface $-1 15.151966777714357 33.295584085386061 5.9300836232236573 0 -0.87461971476443456 -0.48480960649040278 0.75 0 0 1 I I -0.70710678118654757 0.70710678118654757 0.75 forward I I I I #
loop $-1 $-1 $210 $53 #
coedge $-1 $131 $131 $211 $212 reversed $83 $-1 #
face $-1 $-1 $213 $43 $-1 $214 forward single #
loop $-1 $215 $216 $85 #
cone-surface $-1 20.045718143328905 33.295584085386061 5.9300836232236573 0 -0.87461971476443456 -0.48480960649040278 0.75 0 0 1 I I -0.70710678118654757 0.70710678118654757 0.75 forward I I I I #
loop $-1 $-1 $217 $54 #
coedge $-1 $136 $136 $218 $219 reversed $86 $-1 #
face $-1 $220 $221 $33 $-1 $222 reversed single #
loop $-1 $-1 $223 $88 #
plane-surface $-1 0 -41.514818207930084 0 0 1 0 0 0 1 forward_v I I I I #
coedge $-1 $224 $225 $226 $227 forward $89 $-1 #
coedge $-1 $228 $91 $229 $230 forward $56 $-1 #
coedge $-1 $91 $228 $231 $232 forward $56 $-1 #
coedge $-1 $233 $234 $91 $144 reversed $235 $-1 #
edge $-1 $236 -41.514818207930084 $237 41.514818207930084 $143 $238 forward 7 unknown #
face $-1 $239 $240 $34 $-1 $241 reversed single #
loop $-1 $-1 $242 $92 #
plane-surface $-1 0 0 -14.108855375276606 0 0 1 1 0 0 forward_v I I I I #
coedge $-1 $243 $151 $244 $245 reversed $93 $-1 #
coedge $-1 $246 $95 $247 $248 reversed $59 $-1 #
coedge $-1 $95 $246 $249 $250 reversed $59 $-1 #
coedge $-1 $148 $251 $95 $152 reversed $93 $-1 #
edge $-1 $252 -41.514818207930084 $253 41.514818207930084 $151 $254 forward 7 unknown #
face $-1 $255 $256 $35 $-1 $257 reversed single #
loop $-1 $-1 $258 $96 #
plane-surface $-1 0 -41.514818207930084 0 0 1 0 0 0 1 forward_v I I I I #
coedge $-1 $259 $260 $261 $262 reversed $97 $-1 #
coedge $-1 $263 $99 $264 $265 reversed $62 $-1 #
coedge $-1 $99 $263 $258 $266 reversed $62 $-1 #
coedge $-1 $267 $268 $99 $160 forward $269 $-1 #
edge $-1 $270 -41.514818207930084 $271 41.514818207930084 $159 $272 forward 7 unknown #
face $-1 $273 $274 $36 $-1 $275 forward single #
loop $-1 $-1 $276 $100 #
plane-surface $-1 -32.648742776353757 -140.9534342809213 83.898582648430192 -1 0 0 0 -0.79863551827123203 0.60181501223851219 forward_v I I I I #
coedge $-1 $277 $278 $279 $280 reversed $101 $-1 #
coedge $-1 $166 $103 $281 $282 reversed $65 $-1 #
coedge $-1 $103 $165 $277 $283 reversed $65 $-1 #
coedge $-1 $279 $284 $103 $168 forward $285 $-1 #
edge $-1 $286 27.840435948938492 $287 32.983078423737773 $167 $288 forward 7 unknown #
loop $-1 $-1 $174 $104 #
plane-surface $-1 -39.235855697380515 -41.514818207930077 8.9662129004773305 0 -0.79863551827123203 0.60181501223851219 1 0 0 forward_v I I I I #
loop $-1 $-1 $289 $67 #
coedge $-1 $172 $172 $173 $290 reversed $105 $-1 #
coedge $-1 $173 $173 $172 $290 forward $107 $-1 #
coedge $-1 $174 $174 $108 $175 forward $169 $-1 #
edge $-1 $291 0 $291 6.2831853071796004 $174 $292 forward 7 unknown #
face $-1 $293 $294 $38 $-1 $295 reversed single #
loop $-1 $-1 $296 $109 #
plane-surface $-1 -23.308219053738604 110.16070953167127 136.6329209639166 1 0 0 0 -0.87461971476443456 -0.48480960649040278 forward_v I I I I #
coedge $-1 $297 $298 $299 $300 reversed $110 $-1 #
coedge $-1 $181 $112 $301 $302 reversed $71 $-1 #
coedge $-1 $112 $180 $297 $303 reversed $71 $-1 #
coedge $-1 $299 $304 $112 $183 forward $294 $-1 #
edge $-1 $305 54.207605106681697 $306 64.666848734930696 $182 $307 forward 7 unknown #
loop $-1 $-1 $189 $113 #
plane-surface $-1 -17.598842460521631 1.2612528501157101 76.268968666061909 0 0.87461971476443456 0.48480960649040278 1 0 0 forward_v I I I I #
loop $-1 $-1 $308 $73 #
coedge $-1 $187 $187 $188 $309 reversed $114 $-1 #
coedge $-1 $188 $188 $187 $309 forward $116 $-1 #
coedge $-1 $189 $189 $117 $190 forward $184 $-1 #
edge $-1 $310 -4.5000802238998038e-016 $310 6.2831853071795996 $189 $311 forward 7 unknown #
loop $-1 $-1 $196 $118 #
plane-surface $-1 -17.598842460521631 1.2612528501157101 76.268968666061909 0 0.87461971476443456 0.48480960649040278 1 0 0 forward_v I I I I #
loop $-1 $-1 $312 $76 #
coedge $-1 $194 $194 $195 $313 reversed $119 $-1 #
coedge $-1 $195 $195 $194 $313 forward $121 $-1 #
coedge $-1 $196 $196 $122 $197 forward $191 $-1 #
edge $-1 $314 -4.5000802238998038e-016 $314 6.2831853071795996 $196 $315 forward 7 unknown #
face $-1 $316 $317 $41 $-1 $318 reversed single #
loop $-1 $-1 $319 $123 #
plane-surface $-1 11.889465867304658 110.16070953167127 136.6329209639166 1 0 0 0 -0.87461971476443456 -0.48480960649040278 forward_v I I I I #
coedge $-1 $320 $321 $322 $323 reversed $124 $-1 #
coedge $-1 $203 $126 $324 $325 reversed $80 $-1 #
coedge $-1 $126 $202 $320 $326 reversed $80 $-1 #
coedge $-1 $322 $327 $126 $205 forward $317 $-1 #
edge $-1 $328 54.207605106681697 $329 64.666848734930696 $204 $330 forward 7 unknown #
loop $-1 $-1 $211 $127 #
plane-surface $-1 17.598842460521631 1.2612528501157101 76.268968666061909 0 0.87461971476443456 0.48480960649040278 1 0 0 forward_v I I I I #
loop $-1 $-1 $331 $82 #
coedge $-1 $209 $209 $210 $332 reversed $128 $-1 #
coedge $-1 $210 $210 $209 $332 forward $130 $-1 #
coedge $-1 $211 $211 $131 $212 forward $206 $-1 #
edge $-1 $333 -4.5000802238998038e-016 $333 6.2831853071795996 $211 $334 forward 7 unknown #
loop $-1 $-1 $218 $132 #
plane-surface $-1 17.598842460521631 1.2612528501157101 76.268968666061909 0 0.87461971476443456 0.48480960649040278 1 0 0 forward_v I I I I #
loop $-1 $-1 $335 $85 #
coedge $-1 $216 $216 $217 $336 reversed $133 $-1 #
coedge $-1 $217 $217 $216 $336 forward $135 $-1 #
coedge $-1 $218 $218 $136 $219 forward $213 $-1 #
edge $-1 $337 -4.5000802238998038e-016 $337 6.2831853071795996 $218 $338 forward 7 unknown #
face $-1 $339 $340 $33 $-1 $341 reversed single #
loop $-1 $-1 $342 $137 #
plane-surface $-1 -62.255317850276192 0 0 1 0 0 0 0 -1 forward_v I I I I #
coedge $-1 $343 $231 $344 $345 forward $138 $-1 #
coedge $-1 $346 $140 $343 $347 forward $89 $-1 #
coedge $-1 $140 $346 $348 $349 forward $89 $-1 #
coedge $-1 $234 $233 $140 $227 reversed $235 $-1 #
edge $-1 $350 -41.514818207930084 $351 41.514818207930084 $226 $352 forward 7 unknown #
coedge $-1 $142 $141 $353 $354 forward $56 $-1 #
coedge $-1 $355 $356 $141 $230 reversed $340 $-1 #
edge $-1 $237 -62.255317850276192 $357 62.255317850276192 $229 $358 forward 7 unknown #
coedge $-1 $223 $359 $142 $232 reversed $138 $-1 #
edge $-1 $360 -62.255317850276192 $236 62.255317850276192 $231 $361 forward 7 unknown #
coedge $-1 $226 $143 $359 $362 forward $235 $-1 #
coedge $-1 $143 $226 $355 $363 reversed $235 $-1 #
loop $-1 $-1 $233 $339 #
vertex $-1 $144 $364 #
vertex $-1 $144 $365 #
straight-curve $-1 62.255317850276192 0 14.108855375276606 0 1 0 I I #
face $-1 $366 $367 $34 $-1 $368 reversed single #
loop $-1 $-1 $244 $145 #
plane-surface $-1 0 -41.514818207930084 0 0 1 0 0 0 1 forward_v I I I I #
coedge $-1 $369 $370 $243 $371 forward $146 $-1 #
coedge $-1 $251 $148 $242 $371 reversed $93 $-1 #
coedge $-1 $249 $372 $148 $245 forward $240 $-1 #
edge $-1 $373 -8.7007765743273158 $252 -2.1153810275712654 $244 $374 forward 7 unknown #
coedge $-1 $150 $149 $375 $376 reversed $59 $-1 #
coedge $-1 $377 $378 $149 $248 forward $379 $-1 #
edge $-1 $380 -35.235746233105324 $253 -18.803397001236412 $247 $381 forward 7 unknown #
coedge $-1 $382 $244 $150 $250 forward $240 $-1 #
edge $-1 $252 18.803397001236412 $383 35.235746233105324 $249 $384 forward 7 unknown #
coedge $-1 $151 $243 $377 $385 reversed $93 $-1 #
vertex $-1 $250 $386 #
vertex $-1 $248 $387 #
straight-curve $-1 -45.82296861840728 0 -7.5234598285205561 0 1 0 I I #
face $-1 $388 $389 $35 $-1 $390 reversed single #
loop $-1 $-1 $391 $153 #
plane-surface $-1 0 0 -14.108855375276606 0 0 1 1 0 0 forward_v I I I I #
coedge $-1 $392 $393 $158 $266 forward $154 $-1 #
coedge $-1 $394 $156 $391 $395 reversed $97 $-1 #
coedge $-1 $156 $394 $263 $396 reversed $97 $-1 #
coedge $-1 $264 $397 $156 $262 forward $389 $-1 #
edge $-1 $398 -8.7007765743273158 $399 -2.1153810275712654 $261 $400 forward 7 unknown #
coedge $-1 $158 $157 $260 $396 forward $62 $-1 #
coedge $-1 $401 $261 $157 $265 forward $389 $-1 #
edge $-1 $399 18.803397001236409 $270 35.235746233105317 $264 $402 forward 7 unknown #
edge $-1 $271 -35.235746233105317 $403 -18.803397001236409 $258 $404 forward 7 unknown #
coedge $-1 $405 $159 $393 $406 forward $269 $-1 #
coedge $-1 $159 $405 $401 $407 reversed $269 $-1 #
loop $-1 $-1 $159 $388 #
vertex $-1 $407 $408 #
vertex $-1 $406 $409 #
straight-curve $-1 62.255317850276192 0 -7.5234598285205561 0 -1 0 I I #
face $-1 $-1 $285 $36 $-1 $410 reversed single #
loop $-1 $-1 $411 $161 #
plane-surface $-1 0 0 14.108855375276606 0 0 1 1 0 0 forward_v I I I I #
coedge $-1 $412 $413 $414 $415 reversed $162 $-1 #
coedge $-1 $416 $164 $166 $283 forward $101 $-1 #
coedge $-1 $164 $416 $412 $417 forward $101 $-1 #
coedge $-1 $414 $167 $164 $280 forward $285 $-1 #
edge $-1 $287 -26.205040769717016 $418 -13.030814927663499 $279 $419 forward 7 unknown #
coedge $-1 $420 $421 $165 $282 forward $274 $-1 #
edge $-1 $422 -32.837157887465416 $286 -28.961898932530566 $281 $423 forward 7 unknown #
edge $-1 $287 -1.1369461177519839e-014 $422 6.439285953536487 $166 $424 forward 7 unknown #
coedge $-1 $167 $414 $420 $425 reversed $285 $-1 #
loop $-1 $-1 $414 $273 #
vertex $-1 $425 $426 #
vertex $-1 $168 $427 #
straight-curve $-1 -45.822968618407273 -41.514818207930084 41.949291324215096 0 0 -1 I I #
coedge $-1 $289 $289 $-1 $428 reversed $171 $-1 #
edge $-1 $429 0 $429 6.2831853071796004 $172 $430 forward 7 unknown #
vertex $-1 $175 $431 #
ellipse-curve $-1 -39.235855697380515 -39.577188730462659 11.537534137876964 0 -0.79863551827123203 0.60181501223851219 1.5 0 0 1 I I #
face $-1 $-1 $432 $38 $-1 $433 forward single #
loop $-1 $-1 $182 $176 #
plane-surface $-1 0 41.514818207930084 0 0 -1 0 0 0 -1 forward_v I I I I #
coedge $-1 $434 $435 $436 $437 reversed $177 $-1 #
coedge $-1 $438 $179 $181 $303 forward $110 $-1 #
coedge $-1 $179 $438 $434 $439 forward $110 $-1 #
coedge $-1 $436 $182 $179 $300 forward $294 $-1 #
edge $-1 $306 3.0900446370438424 $440 14.508797823477789 $299 $441 forward 7 unknown #
coedge $-1 $442 $443 $180 $302 forward $432 $-1 #
edge $-1 $444 -19.363189757347072 $305 -13.565536557905553 $301 $445 forward 7 unknown #
edge $-1 $306 -83.029636415860139 $444 -71.071017770880218 $181 $446 forward 7 unknown #
coedge $-1 $182 $436 $442 $447 reversed $294 $-1 #
vertex $-1 $447 $448 #
vertex $-1 $183 $449 #
straight-curve $-1 -11.889465867304658 41.514818207930084 68.316460481958302 0 0 -1 I I #
coedge $-1 $308 $308 $-1 $450 reversed $186 $-1 #
edge $-1 $451 0 $451 6.2831853071796004 $187 $452 forward 7 unknown #
vertex $-1 $190 $453 #
ellipse-curve $-1 -20.045718143328905 38.615991608209328 8.8792335611521036 0 0.87461971476443456 0.48480960649040278 1.5 0 0 1 I I #
coedge $-1 $312 $312 $-1 $454 reversed $193 $-1 #
edge $-1 $455 0 $455 6.2831853071796004 $194 $456 forward 7 unknown #
vertex $-1 $197 $457 #
ellipse-curve $-1 -15.151966777714357 38.615991608209328 8.8792335611521036 0 0.87461971476443456 0.48480960649040278 1.5 0 0 1 I I #
face $-1 $-1 $458 $41 $-1 $459 forward single #
loop $-1 $-1 $204 $198 #
plane-surface $-1 0 41.514818207930084 0 0 -1 0 0 0 -1 forward_v I I I I #
coedge $-1 $460 $461 $462 $463 reversed $199 $-1 #
coedge $-1 $464 $201 $203 $326 forward $124 $-1 #
coedge $-1 $201 $464 $460 $465 forward $124 $-1 #
coedge $-1 $462 $204 $201 $323 forward $317 $-1 #
edge $-1 $329 -14.508797823477789 $466 -3.0900446370438424 $322 $467 forward 7 unknown #
coedge $-1 $468 $469 $202 $325 forward $458 $-1 #
edge $-1 $470 -19.363189757347072 $328 -13.565536557905553 $324 $471 forward 7 unknown #
edge $-1 $329 -83.029636415860139 $470 -71.071017770880218 $203 $472 forward 7 unknown #
coedge $-1 $204 $462 $468 $473 reversed $317 $-1 #
vertex $-1 $473 $474 #
vertex $-1 $205 $475 #
straight-curve $-1 23.308219053738604 41.514818207930084 68.316460481958302 0 0 -1 I I #
coedge $-1 $331 $331 $-1 $476 reversed $208 $-1 #
edge $-1 $477 0 $477 6.2831853071796004 $209 $478 forward 7 unknown #
vertex $-1 $212 $479 #
ellipse-curve $-1 15.151966777714357 38.615991608209328 8.8792335611521036 0 0.87461971476443456 0.48480960649040278 1.5 0 0 1 I I #
coedge $-1 $335 $335 $-1 $480 reversed $215 $-1 #
edge $-1 $481 0 $481 6.2831853071796004 $216 $482 forward 7 unknown #
vertex $-1 $219 $483 #
ellipse-curve $-1 20.045718143328905 38.615991608209328 8.8792335611521036 0 0.87461971476443456 0.48480960649040278 1.5 0 0 1 I I #
face $-1 $-1 $235 $33 $-1 $484 reversed single #
loop $-1 $-1 $355 $220 #
plane-surface $-1 0 41.514818207930084 0 0 -1 0 0 0 -1 forward_v I I I I #
coedge $-1 $485 $353 $356 $486 forward $221 $-1 #
coedge $-1 $359 $223 $224 $347 reversed $138 $-1 #
coedge $-1 $353 $485 $223 $345 reversed $221 $-1 #
edge $-1 $360 -14.108855375276606 $487 14.108855375276606 $344 $488 forward 7 unknown #
coedge $-1 $225 $224 $485 $489 forward $89 $-1 #
edge $-1 $351 -62.255317850276192 $487 62.255317850276192 $343 $490 forward 7 unknown #
coedge $-1 $356 $355 $225 $349 reversed $340 $-1 #
edge $-1 $491 -62.255317850276192 $350 62.255317850276192 $348 $492 forward 7 unknown #
vertex $-1 $227 $493 #
vertex $-1 $362 $494 #
straight-curve $-1 62.255317850276192 0 -14.108855375276606 0 -1 0 I I #
coedge $-1 $342 $344 $228 $354 reversed $221 $-1 #
edge $-1 $357 -41.514818207930084 $360 41.514818207930084 $353 $495 forward 7 unknown #
coedge $-1 $348 $229 $234 $363 forward $340 $-1 #
coedge $-1 $229 $348 $342 $486 reversed $340 $-1 #
vertex $-1 $230 $496 #
straight-curve $-1 0 41.514818207930084 14.108855375276606 -1 0 0 I I #
coedge $-1 $231 $343 $233 $362 reversed $138 $-1 #
vertex $-1 $354 $497 #
straight-curve $-1 0 -41.514818207930084 14.108855375276606 1 0 0 I I #
edge $-1 $236 -14.108855375276606 $351 14.108855375276606 $233 $498 forward 7 unknown #
edge $-1 $237 -14.108855375276606 $350 14.108855375276606 $234 $499 forward 7 unknown #
point $-1 62.255317850276192 -41.514818207930084 14.108855375276606 #
point $-1 62.255317850276192 41.514818207930084 14.108855375276606 #
face $-1 $-1 $379 $34 $-1 $500 reversed single #
loop $-1 $-1 $375 $239 #
plane-surface $-1 -62.255317850276192 0 0 1 0 0 0 0 -1 forward_v I I I I #
coedge $-1 $501 $242 $372 $502 forward $146 $-1 #
coedge $-1 $242 $501 $503 $504 forward $146 $-1 #
edge $-1 $505 -41.514818207930084 $373 41.514818207930084 $242 $506 forward 7 unknown #
coedge $-1 $244 $382 $369 $502 reversed $240 $-1 #
vertex $-1 $502 $507 #
straight-curve $-1 -45.82296861840728 -41.514818207930084 -5.4080788009492906 0 0 1 I I #
coedge $-1 $508 $509 $246 $376 forward $367 $-1 #
edge $-1 $383 -41.514818207930084 $380 41.514818207930084 $375 $510 forward 7 unknown #
coedge $-1 $503 $247 $251 $385 forward $379 $-1 #
coedge $-1 $247 $503 $508 $511 reversed $379 $-1 #
loop $-1 $-1 $377 $366 #
vertex $-1 $511 $512 #
straight-curve $-1 -27.019571617170868 41.514818207930084 -7.5234598285205561 1 0 0 I I #
coedge $-1 $372 $249 $509 $513 forward $240 $-1 #
vertex $-1 $513 $514 #
straight-curve $-1 -27.019571617170868 -41.514818207930084 -7.5234598285205561 -1 0 0 I I #
edge $-1 $253 2.1153810275712654 $505 8.7007765743273158 $377 $515 forward 7 unknown #
point $-1 -45.82296861840728 -41.514818207930084 -7.5234598285205561 #
point $-1 -45.82296861840728 41.514818207930084 -7.5234598285205561 #
face $-1 $-1 $269 $35 $-1 $516 reversed single #
loop $-1 $-1 $264 $255 #
plane-surface $-1 0 41.514818207930084 0 0 -1 0 0 0 -1 forward_v I I I I #
coedge $-1 $517 $518 $259 $395 forward $256 $-1 #
coedge $-1 $519 $258 $394 $520 forward $154 $-1 #
coedge $-1 $258 $519 $267 $406 reversed $154 $-1 #
coedge $-1 $260 $259 $392 $520 reversed $97 $-1 #
edge $-1 $521 -41.514818207930084 $398 41.514818207930084 $391 $522 forward 7 unknown #
edge $-1 $399 -41.514818207930084 $403 41.514818207930084 $260 $523 forward 7 unknown #
coedge $-1 $261 $401 $517 $524 reversed $389 $-1 #
vertex $-1 $524 $525 #
vertex $-1 $265 $526 #
straight-curve $-1 45.822968618407273 41.514818207930084 -5.4080788009492906 0 0 1 I I #
coedge $-1 $397 $264 $268 $407 forward $389 $-1 #
straight-curve $-1 27.019571617170865 41.514818207930084 -7.5234598285205561 1 0 0 I I #
vertex $-1 $266 $527 #
straight-curve $-1 27.019571617170865 -41.514818207930084 -7.5234598285205561 -1 0 0 I I #
coedge $-1 $268 $267 $528 $529 reversed $269 $-1 #
edge $-1 $271 7.5234598285205561 $530 14.108855375276606 $267 $531 forward 7 unknown #
edge $-1 $270 7.5234598285205561 $532 14.108855375276606 $268 $533 forward 7 unknown #
point $-1 62.255317850276185 41.514818207930084 -7.5234598285205561 #
point $-1 62.255317850276185 -41.514818207930084 -7.5234598285205561 #
plane-surface $-1 0 -41.514818207930084 0 0 1 0 0 0 1 forward_v I I I I #
coedge $-1 $421 $420 $413 $534 forward $274 $-1 #
coedge $-1 $413 $276 $278 $417 reversed $162 $-1 #
coedge $-1 $276 $412 $411 $534 reversed $162 $-1 #
coedge $-1 $284 $279 $276 $415 forward $285 $-1 #
edge $-1 $418 -32.983078423737773 $535 -27.840435948938492 $414 $536 forward 7 unknown #
coedge $-1 $278 $277 $421 $537 reversed $101 $-1 #
edge $-1 $538 -6.439285953536487 $418 1.1369461177519839e-014 $412 $539 forward 7 unknown #
vertex $-1 $280 $540 #
straight-curve $-1 -19.617927848690258 -41.514818207930084 8.9662129004773163 1 0 0 I I #
coedge $-1 $411 $281 $284 $425 forward $274 $-1 #
coedge $-1 $281 $411 $416 $537 forward $274 $-1 #
vertex $-1 $282 $541 #
straight-curve $-1 -45.822968618407273 -70.47671714046065 14.108855375276605 0 -1 0 I I #
straight-curve $-1 -45.822968618407273 -41.514818207930077 8.9662129004773305 0 0.60181501223851219 0.79863551827123203 I I #
edge $-1 $286 -45.822968618407273 $535 -32.648742776353757 $284 $542 forward 7 unknown #
point $-1 -45.822968618407273 -41.514818207930084 14.108855375276606 #
point $-1 -45.822968618407273 -41.514818207930084 8.9662129004773217 #
edge $-1 $543 1 $543 0 $289 $-1 forward 7 unknown #
vertex $-1 $290 $544 #
ellipse-curve $-1 -39.235855697380515 -35.031605526634856 8.1121916019421363 0 -0.79863551827123203 0.60181501223851219 1.5 0 0 1 I I #
point $-1 -37.735855697380515 -39.577188730462659 11.537534137876964 #
loop $-1 $-1 $301 $293 #
plane-surface $-1 0 0 14.108855375276606 0 0 1 1 0 0 forward_v I I I I #
coedge $-1 $435 $296 $298 $439 reversed $177 $-1 #
coedge $-1 $296 $434 $545 $546 reversed $177 $-1 #
coedge $-1 $304 $299 $296 $437 forward $294 $-1 #
edge $-1 $440 -64.666848734930696 $547 -54.207605106681697 $436 $548 forward 7 unknown #
coedge $-1 $298 $297 $443 $549 reversed $110 $-1 #
edge $-1 $550 71.071017770880218 $440 83.029636415860139 $434 $551 forward 7 unknown #
vertex $-1 $300 $552 #
straight-curve $-1 -8.7994212302608155 41.514818207930084 3.6496117470275991 -1 0 0 I I #
coedge $-1 $545 $301 $304 $447 forward $432 $-1 #
coedge $-1 $301 $545 $438 $549 forward $432 $-1 #
vertex $-1 $302 $553 #
straight-curve $-1 -11.889465867304658 55.080354765835636 14.108855375276605 0 1 0 I I #
straight-curve $-1 -11.889465867304658 1.2612528501157101 76.268968666061909 0 -0.48480960649040278 0.87461971476443456 I I #
edge $-1 $305 11.889465867304658 $547 23.308219053738604 $304 $554 forward 7 unknown #
point $-1 -11.889465867304658 41.514818207930084 14.108855375276606 #
point $-1 -11.889465867304658 41.514818207930084 3.6496117470276062 #
edge $-1 $555 1 $555 0 $308 $-1 forward 7 unknown #
vertex $-1 $309 $556 #
ellipse-curve $-1 -20.045718143328905 33.951548871459387 6.2936908280914592 0 0.87461971476443456 0.48480960649040278 1.5 0 0 1 I I #
point $-1 -18.545718143328905 38.615991608209313 8.8792335611520965 #
edge $-1 $557 1 $557 0 $312 $-1 forward 7 unknown #
vertex $-1 $313 $558 #
ellipse-curve $-1 -15.151966777714357 33.951548871459387 6.2936908280914592 0 0.87461971476443456 0.48480960649040278 1.5 0 0 1 I I #
point $-1 -13.651966777714357 38.615991608209313 8.8792335611520965 #
loop $-1 $-1 $324 $316 #
plane-surface $-1 0 0 14.108855375276606 0 0 1 1 0 0 forward_v I I I I #
coedge $-1 $461 $319 $321 $465 reversed $199 $-1 #
coedge $-1 $319 $460 $559 $560 reversed $199 $-1 #
coedge $-1 $327 $322 $319 $463 forward $317 $-1 #
edge $-1 $466 -64.666848734930696 $561 -54.207605106681697 $462 $562 forward 7 unknown #
coedge $-1 $321 $320 $469 $563 reversed $124 $-1 #
edge $-1 $564 71.071017770880218 $466 83.029636415860139 $460 $565 forward 7 unknown #
vertex $-1 $323 $566 #
straight-curve $-1 8.7994212302608155 41.514818207930084 3.6496117470275991 -1 0 0 I I #
coedge $-1 $559 $324 $327 $473 forward $458 $-1 #
coedge $-1 $324 $559 $464 $563 forward $458 $-1 #
vertex $-1 $325 $567 #
straight-curve $-1 23.308219053738604 55.080354765835636 14.108855375276605 0 1 0 I I #
straight-curve $-1 23.308219053738604 1.2612528501157101 76.268968666061909 0 -0.48480960649040278 0.87461971476443456 I I #
edge $-1 $328 -23.308219053738604 $561 -11.889465867304658 $327 $568 forward 7 unknown #
point $-1 23.308219053738604 41.514818207930084 14.108855375276606 #
point $-1 23.308219053738604 41.514818207930084 3.6496117470276062 #
edge $-1 $569 1 $569 0 $331 $-1 forward 7 unknown #
vertex $-1 $332 $570 #
ellipse-curve $-1 15.151966777714357 33.951548871459387 6.2936908280914592 0 0.87461971476443456 0.48480960649040278 1.5 0 0 1 I I #
point $-1 16.651966777714357 38.615991608209313 8.8792335611520965 #
edge $-1 $571 1 $571 0 $335 $-1 forward 7 unknown #
vertex $-1 $336 $572 #
ellipse-curve $-1 20.045718143328905 33.951548871459387 6.2936908280914592 0 0.87461971476443456 0.48480960649040278 1.5 0 0 1 I I #
point $-1 21.545718143328905 38.615991608209313 8.8792335611520965 #
plane-surface $-1 62.255317850276192 0 0 -1 0 0 0 0 1 forward_v I I I I #
coedge $-1 $344 $342 $346 $489 reversed $221 $-1 #
edge $-1 $357 -14.108855375276606 $491 14.108855375276606 $356 $573 forward 7 unknown #
vertex $-1 $489 $574 #
straight-curve $-1 -62.255317850276192 -41.514818207930084 0 0 0 -1 I I #
edge $-1 $487 -41.514818207930084 $491 41.514818207930084 $485 $575 forward 7 unknown #
straight-curve $-1 0 -41.514818207930084 -14.108855375276606 -1 0 0 I I #
vertex $-1 $349 $576 #
straight-curve $-1 0 41.514818207930084 -14.108855375276606 1 0 0 I I #
point $-1 62.255317850276192 41.514818207930084 -14.108855375276606 #
point $-1 62.255317850276192 -41.514818207930084 -14.108855375276606 #
straight-curve $-1 -62.255317850276192 0 14.108855375276606 0 -1 0 I I #
point $-1 -62.255317850276192 41.514818207930084 14.108855375276606 #
point $-1 -62.255317850276192 -41.514818207930084 14.108855375276606 #
straight-curve $-1 62.255317850276192 -41.514818207930084 0 0 0 -1 I I #
straight-curve $-1 62.255317850276192 41.514818207930084 0 0 0 -1 I I #
plane-surface $-1 0 41.514818207930084 0 0 -1 0 0 0 -1 forward_v I I I I #
coedge $-1 $370 $369 $577 $578 forward $146 $-1 #
edge $-1 $373 45.82296861840728 $579 62.255317850276192 $372 $580 forward 7 unknown #
coedge $-1 $378 $377 $370 $504 reversed $379 $-1 #
edge $-1 $581 -62.255317850276192 $505 -45.82296861840728 $503 $582 forward 7 unknown #
vertex $-1 $385 $583 #
straight-curve $-1 -45.82296861840728 0 -14.108855375276606 0 -1 0 I I #
point $-1 -45.82296861840728 -41.514818207930084 -14.108855375276606 #
coedge $-1 $577 $375 $378 $511 forward $367 $-1 #
coedge $-1 $375 $577 $382 $513 reversed $367 $-1 #
straight-curve $-1 -62.255317850276192 0 -7.5234598285205561 0 1 0 I I #
edge $-1 $380 7.5234598285205561 $581 14.108855375276606 $378 $584 forward 7 unknown #
point $-1 -62.255317850276192 41.514818207930084 -7.5234598285205561 #
edge $-1 $383 7.5234598285205561 $579 14.108855375276606 $509 $585 forward 7 unknown #
point $-1 -62.255317850276192 -41.514818207930084 -7.5234598285205561 #
straight-curve $-1 -45.82296861840728 41.514818207930084 -5.4080788009492906 0 0 -1 I I #
plane-surface $-1 62.255317850276192 0 0 -1 0 0 0 0 1 forward_v I I I I #
coedge $-1 $528 $391 $397 $524 forward $256 $-1 #
coedge $-1 $391 $528 $519 $586 forward $256 $-1 #
coedge $-1 $393 $392 $518 $586 reversed $154 $-1 #
edge $-1 $403 2.1153810275712654 $521 8.7007765743273158 $392 $587 forward 7 unknown #
vertex $-1 $395 $588 #
straight-curve $-1 45.822968618407273 0 -14.108855375276606 0 1 0 I I #
straight-curve $-1 45.822968618407273 0 -7.5234598285205561 0 -1 0 I I #
edge $-1 $398 45.822968618407273 $532 62.255317850276192 $397 $589 forward 7 unknown #
point $-1 45.822968618407273 41.514818207930084 -14.108855375276606 #
point $-1 45.822968618407273 41.514818207930084 -7.5234598285205561 #
point $-1 45.822968618407273 -41.514818207930084 -7.5234598285205561 #
coedge $-1 $518 $517 $405 $529 forward $256 $-1 #
edge $-1 $532 -41.514818207930084 $530 41.514818207930084 $405 $590 forward 7 unknown #
vertex $-1 $406 $591 #
straight-curve $-1 62.255317850276192 -41.514818207930084 0 0 0 -1 I I #
vertex $-1 $529 $592 #
straight-curve $-1 62.255317850276192 41.514818207930084 0 0 0 -1 I I #
edge $-1 $535 28.961898932530566 $538 32.837157887465416 $411 $593 forward 7 unknown #
vertex $-1 $534 $594 #
straight-curve $-1 -32.648742776353757 -41.514818207930084 41.949291324215096 0 0 1 I I #
edge $-1 $538 13.030814927663499 $422 26.205040769717016 $421 $595 forward 7 unknown #
vertex $-1 $537 $596 #
straight-curve $-1 -32.648742776353757 -41.514818207930077 8.9662129004773305 0 -0.60181501223851219 -0.79863551827123203 I I #
point $-1 -32.648742776353757 -41.514818207930084 8.9662129004773217 #
point $-1 -45.822968618407273 -37.639559252995234 14.108855375276606 #
straight-curve $-1 0 -41.514818207930084 14.108855375276606 1 0 0 I I #
vertex $-1 $428 $597 #
point $-1 -37.735855697380515 -35.031605526634856 8.1121916019421363 #
coedge $-1 $443 $442 $435 $546 forward $432 $-1 #
edge $-1 $547 13.565536557905553 $550 19.363189757347072 $545 $598 forward 7 unknown #
vertex $-1 $546 $599 #
straight-curve $-1 -23.308219053738604 41.514818207930084 68.316460481958302 0 0 1 I I #
edge $-1 $550 -14.508797823477789 $444 -3.0900446370438424 $443 $600 forward 7 unknown #
vertex $-1 $549 $601 #
straight-curve $-1 -23.308219053738604 1.2612528501157101 76.268968666061909 0 0.48480960649040278 -0.87461971476443456 I I #
point $-1 -23.308219053738604 41.514818207930084 3.6496117470276062 #
point $-1 -11.889465867304658 35.717165008488564 14.108855375276605 #
straight-curve $-1 0 41.514818207930084 14.108855375276606 -1 0 0 I I #
vertex $-1 $450 $602 #
point $-1 -18.545718143328905 33.951548871459387 6.2936908280914592 #
vertex $-1 $454 $603 #
point $-1 -13.651966777714357 33.951548871459387 6.2936908280914592 #
coedge $-1 $469 $468 $461 $560 forward $458 $-1 #
edge $-1 $561 13.565536557905553 $564 19.363189757347072 $559 $604 forward 7 unknown #
vertex $-1 $560 $605 #
straight-curve $-1 11.889465867304658 41.514818207930084 68.316460481958302 0 0 1 I I #
edge $-1 $564 3.0900446370438424 $470 14.508797823477789 $469 $606 forward 7 unknown #
vertex $-1 $563 $607 #
straight-curve $-1 11.889465867304658 1.2612528501157101 76.268968666061909 0 0.48480960649040278 -0.87461971476443456 I I #
point $-1 11.889465867304658 41.514818207930084 3.6496117470276062 #
point $-1 23.308219053738604 35.717165008488564 14.108855375276605 #
straight-curve $-1 0 41.514818207930084 14.108855375276606 -1 0 0 I I #
vertex $-1 $476 $608 #
point $-1 16.651966777714357 33.951548871459387 6.2936908280914592 #
vertex $-1 $480 $609 #
point $-1 21.545718143328905 33.951548871459387 6.2936908280914592 #
straight-curve $-1 -62.255317850276192 41.514818207930084 0 0 0 -1 I I #
point $-1 -62.255317850276192 -41.514818207930084 -14.108855375276606 #
straight-curve $-1 -62.255317850276192 0 -14.108855375276606 0 1 0 I I #
point $-1 -62.255317850276192 41.514818207930084 -14.108855375276606 #
coedge $-1 $509 $508 $501 $578 reversed $367 $-1 #
edge $-1 $579 -41.514818207930084 $581 41.514818207930084 $577 $610 forward 7 unknown #
vertex $-1 $578 $611 #
straight-curve $-1 0 -41.514818207930084 -14.108855375276606 -1 0 0 I I #
vertex $-1 $504 $612 #
straight-curve $-1 0 41.514818207930084 -14.108855375276606 1 0 0 I I #
point $-1 -45.82296861840728 41.514818207930084 -14.108855375276606 #
straight-curve $-1 -62.255317850276192 41.514818207930084 0 0 0 -1 I I #
straight-curve $-1 -62.255317850276192 -41.514818207930084 0 0 0 -1 I I #
edge $-1 $530 -62.255317850276192 $521 -45.822968618407273 $519 $613 forward 7 unknown #
straight-curve $-1 45.822968618407273 -41.514818207930084 -5.4080788009492906 0 0 -1 I I #
point $-1 45.822968618407273 -41.514818207930084 -14.108855375276606 #
straight-curve $-1 0 41.514818207930084 -14.108855375276606 1 0 0 I I #
straight-curve $-1 62.255317850276192 0 -14.108855375276606 0 -1 0 I I #
point $-1 62.255317850276192 -41.514818207930084 -14.108855375276606 #
point $-1 62.255317850276192 41.514818207930084 -14.108855375276606 #
straight-curve $-1 -32.648742776353757 -70.47671714046065 14.108855375276605 0 1 0 I I #
point $-1 -32.648742776353757 -41.514818207930084 14.108855375276606 #
straight-curve $-1 -19.617927848690258 -37.639559252995234 14.108855375276608 -1 0 0 I I #
point $-1 -32.648742776353757 -37.639559252995234 14.108855375276606 #
point $-1 -39.235855697380515 -33.833652249228003 7.20946908358437 #
straight-curve $-1 -23.308219053738604 55.080354765835636 14.108855375276605 0 -1 0 I I #
point $-1 -23.308219053738604 41.514818207930084 14.108855375276606 #
straight-curve $-1 -8.7994212302608155 35.717165008488564 14.108855375276605 1 0 0 I I #
point $-1 -23.308219053738604 35.717165008488564 14.108855375276605 #
point $-1 -20.045718143328905 32.639619299312734 5.5664764183558555 #
point $-1 -15.151966777714357 32.639619299312734 5.5664764183558555 #
straight-curve $-1 11.889465867304658 55.080354765835636 14.108855375276605 0 -1 0 I I #
point $-1 11.889465867304658 41.514818207930084 14.108855375276606 #
straight-curve $-1 8.7994212302608155 35.717165008488564 14.108855375276605 1 0 0 I I #
point $-1 11.889465867304658 35.717165008488564 14.108855375276605 #
point $-1 15.151966777714357 32.639619299312734 5.5664764183558555 #
point $-1 20.045718143328905 32.639619299312734 5.5664764183558555 #
straight-curve $-1 -62.255317850276192 0 -14.108855375276606 0 1 0 I I #
point $-1 -62.255317850276192 -41.514818207930084 -14.108855375276606 #
point $-1 -62.255317850276192 41.514818207930084 -14.108855375276606 #
straight-curve $-1 0 -41.514818207930084 -14.108855375276606 -1 0 0 I I #
End-of-ACIS-data 