500 0 11 0           
7 Unknown 11 ACIS 5.0 NT 24 Thu Mar 25 19:36:51 1999 
-1 9.9999999999999995e-007 1e-010 
body $-1 $11 $-1 $12 #
body $-1 $13 $-1 $14 #
body $-1 $15 $-1 $16 #
body $-1 $17 $-1 $18 #
body $-1 $19 $-1 $20 #
body $-1 $21 $-1 $22 #
body $-1 $23 $-1 $24 #
body $-1 $25 $-1 $26 #
body $-1 $27 $-1 $28 #
body $-1 $29 $-1 $30 #
body $-1 $31 $-1 $32 #
lump $-1 $-1 $33 $0 #
transform $-1 1 0 0 0 1 0 0 0 1 55.688955351420638 31.972159973814971 13.105102187942487 1 rotate no_reflect no_shear #
lump $-1 $-1 $34 $1 #
transform $-1 1 0 0 0 1 0 0 0 1 55.688955351420638 31.972159973814971 13.105102187942487 1 rotate no_reflect no_shear #
lump $-1 $-1 $35 $2 #
transform $-1 1 0 0 0 1 0 0 0 1 55.688955351420638 31.972159973814971 13.105102187942487 1 rotate no_reflect no_shear #
lump $-1 $-1 $36 $3 #
transform $-1 1 0 0 0 1 0 0 0 1 55.688955351420638 31.972159973814971 13.105102187942487 1 rotate no_reflect no_shear #
lump $-1 $-1 $37 $4 #
transform $-1 1 0 0 0 1 0 0 0 1 55.688955351420638 31.972159973814971 13.105102187942487 1 rotate no_reflect no_shear #
lump $-1 $-1 $38 $5 #
transform $-1 1 0 0 0 1 0 0 0 1 55.688955351420638 31.972159973814971 13.105102187942487 1 rotate no_reflect no_shear #
lump $-1 $-1 $39 $6 #
transform $-1 1 0 0 0 1 0 0 0 1 55.688955351420638 31.972159973814971 13.105102187942487 1 rotate no_reflect no_shear #
lump $-1 $-1 $40 $7 #
transform $-1 1 0 0 0 1 0 0 0 1 55.688955351420638 31.972159973814971 13.105102187942487 1 rotate no_reflect no_shear #
lump $-1 $-1 $41 $8 #
transform $-1 1 0 0 0 1 0 0 0 1 55.688955351420638 31.972159973814971 13.105102187942487 1 rotate no_reflect no_shear #
lump $-1 $-1 $42 $9 #
transform $-1 1 0 0 0 1 0 0 0 1 55.688955351420638 31.972159973814971 13.105102187942487 1 rotate no_reflect no_shear #
lump $-1 $-1 $43 $10 #
transform $-1 1 0 0 0 1 0 0 0 1 55.688955351420638 31.972159973814971 13.105102187942487 1 rotate no_reflect no_shear #
shell $-1 $-1 $-1 $44 $-1 $11 #
shell $-1 $-1 $-1 $45 $-1 $13 #
shell $-1 $-1 $-1 $46 $-1 $15 #
shell $-1 $-1 $-1 $47 $-1 $17 #
shell $-1 $-1 $-1 $48 $-1 $19 #
shell $-1 $-1 $-1 $49 $-1 $21 #
shell $-1 $-1 $-1 $50 $-1 $23 #
shell $-1 $-1 $-1 $51 $-1 $25 #
shell $-1 $-1 $-1 $52 $-1 $27 #
shell $-1 $-1 $-1 $53 $-1 $29 #
shell $-1 $-1 $-1 $54 $-1 $31 #
face $-1 $55 $56 $33 $-1 $57 forward single #
face $-1 $58 $59 $34 $-1 $60 forward single #
face $-1 $61 $62 $35 $-1 $63 reversed single #
face $-1 $64 $65 $36 $-1 $66 forward single #
face $-1 $67 $68 $37 $-1 $69 forward single #
face $-1 $70 $71 $38 $-1 $72 reversed single #
face $-1 $73 $74 $39 $-1 $75 forward single #
face $-1 $76 $77 $40 $-1 $78 forward single #
face $-1 $79 $80 $41 $-1 $81 reversed single #
face $-1 $82 $83 $42 $-1 $84 forward single #
face $-1 $85 $86 $43 $-1 $87 forward single #
face $-1 $88 $89 $33 $-1 $90 reversed single #
loop $-1 $-1 $91 $44 #
plane-surface $-1 0 0 13.105102187942487 0 0 1 1 0 0 forward_v I I I I #
face $-1 $92 $93 $34 $-1 $94 reversed single #
loop $-1 $-1 $95 $45 #
plane-surface $-1 0 -25.150227779112296 4.9249874274174159 0 0 1 1 0 0 forward_v I I I I #
face $-1 $96 $97 $35 $-1 $98 reversed single #
loop $-1 $-1 $99 $46 #
plane-surface $-1 96.456102442789756 -9.688920378933636 161.7104698482502 0 1 0 0.86602541151947299 0 0.49999998660252726 forward_v I I I I #
face $-1 $100 $101 $36 $-1 $102 forward single #
loop $-1 $103 $104 $47 #
cone-surface $-1 54.224013617542305 -6.319798245531576 11.079421955091538 -0.86602541151947299 0 -0.49999998660252726 0.49999998660252726 0 -0.86602541151947299 1 I I 0 1 1 forward I I I I #
face $-1 $105 $106 $37 $-1 $107 forward single #
loop $-1 $108 $109 $48 #
cone-surface $-1 54.224013617542305 -1.2661150454284851 11.079421955091538 -0.86602541151947299 0 -0.49999998660252726 0.49999998660252726 0 -0.86602541151947299 1 I I 0 1 1 forward I I I I #
face $-1 $110 $111 $38 $-1 $112 reversed single #
loop $-1 $-1 $113 $49 #
plane-surface $-1 96.456102442789756 11.540857301431773 161.7104698482502 0 1 0 0.86602541151947299 0 0.49999998660252726 forward_v I I I I #
face $-1 $114 $115 $39 $-1 $116 forward single #
loop $-1 $117 $118 $50 #
cone-surface $-1 54.224013617542305 14.90997943483384 11.079421955091538 -0.86602541151947299 0 -0.49999998660252726 0.49999998660252726 0 -0.86602541151947299 1 I I 0 1 1 forward I I I I #
face $-1 $119 $120 $40 $-1 $121 forward single #
loop $-1 $122 $123 $51 #
cone-surface $-1 54.224013617542305 19.963662634936927 11.079421955091538 -0.86602541151947299 0 -0.49999998660252726 0.49999998660252726 0 -0.86602541151947299 1 I I 0 1 1 forward I I I I #
face $-1 $124 $125 $41 $-1 $126 reversed single #
loop $-1 $-1 $127 $52 #
plane-surface $-1 -137.14560354304763 8.3677795563655302 82.03056930272848 0 1 0 -0.73135370988377701 0 0.68199835119979291 forward_v I I I I #
face $-1 $128 $129 $42 $-1 $130 forward single #
loop $-1 $131 $132 $53 #
cone-surface $-1 -51.28530111299753 12.07836103953748 8.5399509128301574 0.73135370988377701 0 -0.68199835119979291 0.68199835119979291 0 0.73135370988377701 1 I I 0 1 1 forward I I I I #
face $-1 $133 $134 $43 $-1 $135 forward single #
loop $-1 $136 $137 $54 #
cone-surface $-1 -51.28530111299753 17.644233264295405 8.5399509128301574 0.73135370988377701 0 -0.68199835119979291 0.68199835119979291 0 0.73135370988377701 1 I I 0 1 1 forward I I I I #
face $-1 $138 $139 $33 $-1 $140 reversed single #
loop $-1 $-1 $141 $55 #
plane-surface $-1 0 0 -13.105102187942487 0 0 1 1 0 0 forward_v I I I I #
coedge $-1 $142 $143 $144 $145 forward $56 $-1 #
face $-1 $146 $147 $34 $-1 $148 reversed single #
loop $-1 $-1 $149 $58 #
plane-surface $-1 0 -25.150227779112296 -2.9012786522998644 0 0 1 1 0 0 forward_v I I I I #
coedge $-1 $150 $151 $152 $153 reversed $59 $-1 #
face $-1 $154 $155 $35 $-1 $156 reversed single #
loop $-1 $-1 $157 $61 #
plane-surface $-1 1.4921825197689031e-006 -3.7929566454800288 106.02151598901207 0.86602541151947299 0 0.49999998660252726 0.49999998660252726 0 -0.86602541151947299 forward_v I I I I #
coedge $-1 $158 $159 $160 $161 reversed $62 $-1 #
face $-1 $-1 $162 $36 $-1 $163 forward single #
loop $-1 $164 $165 $64 #
cone-surface $-1 53.347878805714409 -6.319798245531576 10.57358530370812 -0.86602541151947299 0 -0.49999998660252726 0.24999999330126363 0 -0.43301270575973649 1 I I -0.70710678118654746 0.70710678118654746 0.5 forward I I I I #
loop $-1 $-1 $166 $47 #
coedge $-1 $104 $104 $167 $168 reversed $65 $-1 #
face $-1 $-1 $169 $37 $-1 $170 forward single #
loop $-1 $171 $172 $67 #
cone-surface $-1 53.347878805714409 -1.2661150454284851 10.57358530370812 -0.86602541151947299 0 -0.49999998660252726 0.24999999330126363 0 -0.43301270575973649 1 I I -0.70710678118654746 0.70710678118654746 0.5 forward I I I I #
loop $-1 $-1 $173 $48 #
coedge $-1 $109 $109 $174 $175 reversed $68 $-1 #
face $-1 $176 $177 $38 $-1 $178 reversed single #
loop $-1 $-1 $179 $70 #
plane-surface $-1 1.4921825197689031e-006 17.43682103488538 106.02151598901207 0.86602541151947299 0 0.49999998660252726 0.49999998660252726 0 -0.86602541151947299 forward_v I I I I #
coedge $-1 $180 $181 $182 $183 reversed $71 $-1 #
face $-1 $-1 $184 $39 $-1 $185 forward single #
loop $-1 $186 $187 $73 #
cone-surface $-1 53.347878805714409 14.90997943483384 10.57358530370812 -0.86602541151947299 0 -0.49999998660252726 0.24999999330126363 0 -0.43301270575973649 1 I I -0.70710678118654746 0.70710678118654746 0.5 forward I I I I #
loop $-1 $-1 $188 $50 #
coedge $-1 $118 $118 $189 $190 reversed $74 $-1 #
face $-1 $-1 $191 $40 $-1 $192 forward single #
loop $-1 $193 $194 $76 #
cone-surface $-1 53.347878805714409 19.963662634936927 10.57358530370812 -0.86602541151947299 0 -0.49999998660252726 0.24999999330126363 0 -0.43301270575973649 1 I I -0.70710678118654746 0.70710678118654746 0.5 forward I I I I #
loop $-1 $-1 $195 $51 #
coedge $-1 $123 $123 $196 $197 reversed $77 $-1 #
face $-1 $198 $199 $41 $-1 $200 reversed single #
loop $-1 $-1 $201 $79 #
plane-surface $-1 -55.688955351420617 14.861297151916443 6.0710178433129585 -0.73135370988377701 0 0.68199835119979291 0.68199835119979291 0 0.73135370988377701 forward_v I I I I #
coedge $-1 $202 $203 $204 $205 reversed $80 $-1 #
face $-1 $-1 $206 $42 $-1 $207 forward single #
loop $-1 $208 $209 $82 #
cone-surface $-1 -49.795664824216189 12.07836103953748 7.1508426344326903 0.73135370988377701 0 -0.68199835119979291 0.34099917559989645 0 0.36567685494188851 1 I I -0.70710678118654813 0.70710678118654691 0.5 forward I I I I #
loop $-1 $-1 $210 $53 #
coedge $-1 $132 $132 $211 $212 reversed $83 $-1 #
face $-1 $-1 $213 $43 $-1 $214 forward single #
loop $-1 $215 $216 $85 #
cone-surface $-1 -49.795664824216189 17.644233264295405 7.1508426344326903 0.73135370988377701 0 -0.68199835119979291 0.34099917559989645 0 0.36567685494188851 1 I I -0.70710678118654813 0.70710678118654691 0.5 forward I I I I #
loop $-1 $-1 $217 $54 #
coedge $-1 $137 $137 $218 $219 reversed $86 $-1 #
face $-1 $220 $221 $33 $-1 $222 reversed single #
loop $-1 $-1 $223 $88 #
plane-surface $-1 0 -31.972159973814971 0 0 1 0 0 0 1 forward_v I I I I #
coedge $-1 $224 $225 $226 $227 forward $89 $-1 #
coedge $-1 $228 $91 $229 $230 forward $56 $-1 #
coedge $-1 $91 $228 $231 $232 forward $56 $-1 #
coedge $-1 $233 $234 $91 $145 reversed $235 $-1 #
edge $-1 $236 -31.972159973814971 $237 31.972159973814971 $144 $238 forward 7 unknown #
face $-1 $239 $240 $34 $-1 $241 reversed single #
loop $-1 $-1 $242 $92 #
plane-surface $-1 0 -18.32829558440962 1.0118543875587758 0 -1 0 0 0 -1 forward_v I I I I #
coedge $-1 $243 $244 $245 $246 reversed $93 $-1 #
coedge $-1 $247 $95 $248 $249 forward $59 $-1 #
coedge $-1 $95 $247 $250 $251 reversed $59 $-1 #
coedge $-1 $252 $253 $95 $153 forward $254 $-1 #
edge $-1 $255 5.7531816948534722 $256 19.397046084258825 $152 $257 forward 7 unknown #
face $-1 $258 $259 $35 $-1 $260 forward single #
loop $-1 $-1 $261 $96 #
plane-surface $-1 96.456102442789756 2.1030070879735785 161.7104698482502 0 -1 0 -0.86602541151947299 0 -0.49999998660252726 forward_v I I I I #
coedge $-1 $262 $263 $264 $265 reversed $97 $-1 #
coedge $-1 $159 $99 $266 $267 reversed $62 $-1 #
coedge $-1 $99 $158 $262 $268 reversed $62 $-1 #
coedge $-1 $264 $269 $99 $161 forward $270 $-1 #
edge $-1 $271 67.750132736182607 $272 71.289819885720263 $160 $273 forward 7 unknown #
loop $-1 $-1 $167 $100 #
plane-surface $-1 1.4921825197689031e-006 -3.7929566454800288 106.02151598901207 0.86602541151947299 0 0.49999998660252726 0.49999998660252726 0 -0.86602541151947299 forward_v I I I I #
loop $-1 $-1 $274 $64 #
coedge $-1 $165 $165 $166 $275 reversed $101 $-1 #
coedge $-1 $166 $166 $165 $275 forward $103 $-1 #
coedge $-1 $167 $167 $104 $168 forward $162 $-1 #
edge $-1 $276 0 $276 6.2831853071796004 $167 $277 forward 7 unknown #
loop $-1 $-1 $174 $105 #
plane-surface $-1 1.4921825197689031e-006 -3.7929566454800288 106.02151598901207 0.86602541151947299 0 0.49999998660252726 0.49999998660252726 0 -0.86602541151947299 forward_v I I I I #
loop $-1 $-1 $278 $67 #
coedge $-1 $172 $172 $173 $279 reversed $106 $-1 #
coedge $-1 $173 $173 $172 $279 forward $108 $-1 #
coedge $-1 $174 $174 $109 $175 forward $169 $-1 #
edge $-1 $280 0 $280 6.2831853071796004 $174 $281 forward 7 unknown #
face $-1 $282 $283 $38 $-1 $284 reversed single #
loop $-1 $-1 $285 $110 #
plane-surface $-1 96.456102442789756 23.332784768338989 161.7104698482502 0 -1 0 -0.86602541151947299 0 -0.49999998660252726 forward_v I I I I #
coedge $-1 $286 $287 $288 $289 reversed $111 $-1 #
coedge $-1 $181 $113 $290 $291 reversed $71 $-1 #
coedge $-1 $113 $180 $286 $292 reversed $71 $-1 #
coedge $-1 $288 $293 $113 $183 forward $283 $-1 #
edge $-1 $294 67.750132736182607 $295 71.289819885720263 $182 $296 forward 7 unknown #
loop $-1 $-1 $189 $114 #
plane-surface $-1 1.4921825197689031e-006 17.43682103488538 106.02151598901207 0.86602541151947299 0 0.49999998660252726 0.49999998660252726 0 -0.86602541151947299 forward_v I I I I #
loop $-1 $-1 $297 $73 #
coedge $-1 $187 $187 $188 $298 reversed $115 $-1 #
coedge $-1 $188 $188 $187 $298 forward $117 $-1 #
coedge $-1 $189 $189 $118 $190 forward $184 $-1 #
edge $-1 $299 0 $299 6.2831853071796004 $189 $300 forward 7 unknown #
loop $-1 $-1 $196 $119 #
plane-surface $-1 1.4921825197689031e-006 17.43682103488538 106.02151598901207 0.86602541151947299 0 0.49999998660252726 0.49999998660252726 0 -0.86602541151947299 forward_v I I I I #
loop $-1 $-1 $301 $76 #
coedge $-1 $194 $194 $195 $302 reversed $120 $-1 #
coedge $-1 $195 $195 $194 $302 forward $122 $-1 #
coedge $-1 $196 $196 $123 $197 forward $191 $-1 #
edge $-1 $303 0 $303 6.2831853071796004 $196 $304 forward 7 unknown #
face $-1 $305 $306 $41 $-1 $307 reversed single #
loop $-1 $-1 $308 $124 #
plane-surface $-1 -137.14560354304763 21.354814747467355 82.03056930272848 0 -1 0 0.73135370988377701 0 -0.68199835119979291 forward_v I I I I #
coedge $-1 $309 $310 $311 $312 reversed $125 $-1 #
coedge $-1 $203 $127 $313 $314 reversed $80 $-1 #
coedge $-1 $127 $202 $309 $315 reversed $80 $-1 #
coedge $-1 $311 $316 $127 $205 forward $317 $-1 #
edge $-1 $318 12.883846420103175 $319 19.443236029270508 $204 $320 forward 7 unknown #
loop $-1 $-1 $211 $128 #
plane-surface $-1 -55.688955351420617 14.861297151916443 6.0710178433129585 -0.73135370988377701 0 0.68199835119979291 0.68199835119979291 0 0.73135370988377701 forward_v I I I I #
loop $-1 $-1 $321 $82 #
coedge $-1 $209 $209 $210 $322 reversed $129 $-1 #
coedge $-1 $210 $210 $209 $322 forward $131 $-1 #
coedge $-1 $211 $211 $132 $212 forward $206 $-1 #
edge $-1 $323 0 $323 6.2831853071796004 $211 $324 forward 7 unknown #
loop $-1 $-1 $218 $133 #
plane-surface $-1 -55.688955351420617 14.861297151916443 6.0710178433129585 -0.73135370988377701 0 0.68199835119979291 0.68199835119979291 0 0.73135370988377701 forward_v I I I I #
loop $-1 $-1 $325 $85 #
coedge $-1 $216 $216 $217 $326 reversed $134 $-1 #
coedge $-1 $217 $217 $216 $326 forward $136 $-1 #
coedge $-1 $218 $218 $137 $219 forward $213 $-1 #
edge $-1 $327 0 $327 6.2831853071796004 $218 $328 forward 7 unknown #
face $-1 $329 $330 $33 $-1 $331 reversed single #
loop $-1 $-1 $332 $138 #
plane-surface $-1 -55.688955351420638 0 0 1 0 0 0 0 -1 forward_v I I I I #
coedge $-1 $333 $231 $334 $335 forward $139 $-1 #
coedge $-1 $336 $141 $333 $337 forward $89 $-1 #
coedge $-1 $141 $336 $338 $339 forward $89 $-1 #
coedge $-1 $234 $233 $141 $227 reversed $235 $-1 #
edge $-1 $340 -31.972159973814971 $341 31.972159973814971 $226 $342 forward 7 unknown #
coedge $-1 $143 $142 $343 $344 forward $56 $-1 #
coedge $-1 $345 $346 $142 $230 reversed $330 $-1 #
edge $-1 $237 -55.688955351420638 $347 55.688955351420638 $229 $348 forward 7 unknown #
coedge $-1 $223 $349 $143 $232 reversed $139 $-1 #
edge $-1 $350 -55.688955351420638 $236 55.688955351420638 $231 $351 forward 7 unknown #
coedge $-1 $226 $144 $349 $352 forward $235 $-1 #
coedge $-1 $144 $226 $345 $353 reversed $235 $-1 #
loop $-1 $-1 $233 $329 #
vertex $-1 $145 $354 #
vertex $-1 $145 $355 #
straight-curve $-1 55.688955351420638 0 13.105102187942487 0 1 0 I I #
face $-1 $356 $357 $34 $-1 $358 reversed single #
loop $-1 $-1 $359 $146 #
plane-surface $-1 -55.688955351420638 0 0 1 0 0 0 0 -1 forward_v I I I I #
coedge $-1 $360 $248 $253 $361 reversed $147 $-1 #
coedge $-1 $362 $149 $363 $364 reversed $93 $-1 #
coedge $-1 $149 $362 $360 $365 forward $93 $-1 #
coedge $-1 $253 $252 $149 $246 forward $254 $-1 #
edge $-1 $366 -19.397046084258825 $367 -5.7531816948534722 $245 $368 forward 7 unknown #
coedge $-1 $151 $150 $359 $369 reversed $59 $-1 #
coedge $-1 $242 $370 $150 $249 reversed $147 $-1 #
edge $-1 $255 -55.688955351420638 $371 55.688955351420638 $248 $372 forward 7 unknown #
coedge $-1 $373 $374 $151 $251 forward $357 $-1 #
edge $-1 $256 -55.688955351420638 $375 55.688955351420638 $250 $376 forward 7 unknown #
coedge $-1 $245 $152 $374 $377 forward $254 $-1 #
coedge $-1 $152 $245 $242 $361 forward $254 $-1 #
loop $-1 $-1 $152 $356 #
vertex $-1 $153 $378 #
vertex $-1 $377 $379 #
straight-curve $-1 55.688955351420638 -12.575113889556148 4.9249874274174159 0 -1 0 I I #
face $-1 $-1 $270 $35 $-1 $380 reversed single #
loop $-1 $-1 $381 $154 #
plane-surface $-1 0 0 13.105102187942487 0 0 1 1 0 0 forward_v I I I I #
coedge $-1 $382 $383 $384 $385 reversed $155 $-1 #
coedge $-1 $386 $157 $159 $268 forward $97 $-1 #
coedge $-1 $157 $386 $382 $387 forward $97 $-1 #
coedge $-1 $384 $160 $157 $265 forward $270 $-1 #
edge $-1 $272 -7.7924420561936216 $388 3.9994854107135929 $264 $389 forward 7 unknown #
coedge $-1 $390 $391 $158 $267 forward $259 $-1 #
edge $-1 $392 5.4172648744054044 $271 7.4609041300257601 $266 $393 forward 7 unknown #
edge $-1 $272 -111.37791070284128 $392 -107.29063208208217 $159 $394 forward 7 unknown #
coedge $-1 $160 $384 $390 $395 reversed $270 $-1 #
loop $-1 $-1 $384 $258 #
vertex $-1 $395 $396 #
vertex $-1 $161 $397 #
straight-curve $-1 55.688955351420638 -9.688920378933636 80.855234924125099 0 0 -1 I I #
coedge $-1 $274 $274 $-1 $398 reversed $164 $-1 #
edge $-1 $399 0 $399 6.2831853071796004 $165 $400 forward 7 unknown #
vertex $-1 $168 $401 #
ellipse-curve $-1 54.667135723610457 -6.319798245531576 11.335258613173686 0.86602541151947299 0 0.49999998660252726 0.49999998660252726 0 -0.86602541151947299 1 I I #
coedge $-1 $278 $278 $-1 $402 reversed $171 $-1 #
edge $-1 $403 0 $403 6.2831853071796004 $172 $404 forward 7 unknown #
vertex $-1 $175 $405 #
ellipse-curve $-1 54.667135723610457 -1.2661150454284851 11.335258613173686 0.86602541151947299 0 0.49999998660252726 0.49999998660252726 0 -0.86602541151947299 1 I I #
face $-1 $-1 $406 $38 $-1 $407 forward single #
loop $-1 $-1 $182 $176 #
plane-surface $-1 55.688955351420638 0 0 -1 0 0 0 0 1 forward_v I I I I #
coedge $-1 $408 $409 $410 $411 reversed $177 $-1 #
coedge $-1 $412 $179 $181 $292 forward $111 $-1 #
coedge $-1 $179 $412 $408 $413 forward $111 $-1 #
coedge $-1 $410 $182 $179 $289 forward $283 $-1 #
edge $-1 $295 2.8224467839890828 $414 14.614374250896299 $288 $415 forward 7 unknown #
coedge $-1 $416 $417 $180 $291 forward $406 $-1 #
edge $-1 $418 5.4172648744054044 $294 7.4609041300257601 $290 $419 forward 7 unknown #
edge $-1 $295 -111.37791070284128 $418 -107.29063208208217 $181 $420 forward 7 unknown #
coedge $-1 $182 $410 $416 $421 reversed $283 $-1 #
vertex $-1 $421 $422 #
vertex $-1 $183 $423 #
straight-curve $-1 55.688955351420638 11.540857301431773 80.855234924125099 0 0 -1 I I #
coedge $-1 $297 $297 $-1 $424 reversed $186 $-1 #
edge $-1 $425 0 $425 6.2831853071796004 $187 $426 forward 7 unknown #
vertex $-1 $190 $427 #
ellipse-curve $-1 54.667135723610457 14.90997943483384 11.335258613173686 0.86602541151947299 0 0.49999998660252726 0.49999998660252726 0 -0.86602541151947299 1 I I #
coedge $-1 $301 $301 $-1 $428 reversed $193 $-1 #
edge $-1 $429 0 $429 6.2831853071796004 $194 $430 forward 7 unknown #
vertex $-1 $197 $431 #
ellipse-curve $-1 54.667135723610457 19.963662634936927 11.335258613173686 0.86602541151947299 0 0.49999998660252726 0.49999998660252726 0 -0.86602541151947299 1 I I #
face $-1 $-1 $317 $41 $-1 $432 forward single #
loop $-1 $-1 $433 $198 #
plane-surface $-1 -55.688955351420638 0 0 1 0 0 0 0 -1 forward_v I I I I #
coedge $-1 $434 $435 $436 $437 reversed $199 $-1 #
coedge $-1 $438 $201 $203 $315 forward $125 $-1 #
coedge $-1 $201 $438 $434 $439 forward $125 $-1 #
coedge $-1 $436 $204 $201 $312 forward $317 $-1 #
edge $-1 $319 0.93713098040730891 $440 13.924166171509134 $311 $441 forward 7 unknown #
coedge $-1 $442 $443 $202 $314 forward $306 $-1 #
edge $-1 $444 -34.944266808051303 $318 -27.910182463421755 $313 $445 forward 7 unknown #
edge $-1 $319 -9.6178965794093614 $444 3.1426556366807674e-014 $203 $446 forward 7 unknown #
coedge $-1 $204 $436 $442 $447 forward $317 $-1 #
loop $-1 $-1 $436 $305 #
vertex $-1 $314 $448 #
vertex $-1 $205 $449 #
straight-curve $-1 -68.572801771523814 8.3677795563655302 13.105102187942485 1 0 0 I I #
coedge $-1 $321 $321 $-1 $450 reversed $208 $-1 #
edge $-1 $451 0 $451 6.2831853071796004 $209 $452 forward 7 unknown #
vertex $-1 $212 $453 #
ellipse-curve $-1 -52.409260546836968 12.07836103953748 9.5880600156277129 -0.73135370988377701 0 0.68199835119979291 0.68199835119979291 0 0.73135370988377701 1 I I #
coedge $-1 $325 $325 $-1 $454 reversed $215 $-1 #
edge $-1 $455 0 $455 6.2831853071796004 $216 $456 forward 7 unknown #
vertex $-1 $219 $457 #
ellipse-curve $-1 -52.409260546836968 17.644233264295405 9.5880600156277129 -0.73135370988377701 0 0.68199835119979291 0.68199835119979291 0 0.73135370988377701 1 I I #
face $-1 $-1 $235 $33 $-1 $458 reversed single #
loop $-1 $-1 $345 $220 #
plane-surface $-1 0 31.972159973814971 0 0 -1 0 0 0 -1 forward_v I I I I #
coedge $-1 $459 $343 $346 $460 forward $221 $-1 #
coedge $-1 $349 $223 $224 $337 reversed $139 $-1 #
coedge $-1 $343 $459 $223 $335 reversed $221 $-1 #
edge $-1 $350 -13.105102187942487 $461 13.105102187942487 $334 $462 forward 7 unknown #
coedge $-1 $225 $224 $459 $463 forward $89 $-1 #
edge $-1 $341 -55.688955351420638 $461 55.688955351420638 $333 $464 forward 7 unknown #
coedge $-1 $346 $345 $225 $339 reversed $330 $-1 #
edge $-1 $465 -55.688955351420638 $340 55.688955351420638 $338 $466 forward 7 unknown #
vertex $-1 $227 $467 #
vertex $-1 $352 $468 #
straight-curve $-1 55.688955351420638 0 -13.105102187942487 0 -1 0 I I #
coedge $-1 $332 $334 $228 $344 reversed $221 $-1 #
edge $-1 $347 -31.972159973814971 $350 31.972159973814971 $343 $469 forward 7 unknown #
coedge $-1 $338 $229 $234 $353 forward $330 $-1 #
coedge $-1 $229 $338 $332 $460 reversed $330 $-1 #
vertex $-1 $230 $470 #
straight-curve $-1 0 31.972159973814971 13.105102187942487 -1 0 0 I I #
coedge $-1 $231 $333 $233 $352 reversed $139 $-1 #
vertex $-1 $344 $471 #
straight-curve $-1 0 -31.972159973814971 13.105102187942487 1 0 0 I I #
edge $-1 $236 -13.105102187942487 $341 13.105102187942487 $233 $472 forward 7 unknown #
edge $-1 $237 -13.105102187942487 $340 13.105102187942487 $234 $473 forward 7 unknown #
point $-1 55.688955351420638 -31.972159973814971 13.105102187942487 #
point $-1 55.688955351420638 31.972159973814971 13.105102187942487 #
face $-1 $-1 $254 $34 $-1 $474 reversed single #
loop $-1 $-1 $250 $239 #
plane-surface $-1 0 -31.972159973814971 0 0 1 0 0 0 1 forward_v I I I I #
coedge $-1 $475 $476 $247 $369 forward $240 $-1 #
coedge $-1 $370 $242 $244 $365 reversed $147 $-1 #
edge $-1 $367 -3.4072058460792523 $255 4.419060233638028 $253 $477 forward 7 unknown #
coedge $-1 $244 $243 $478 $479 reversed $93 $-1 #
coedge $-1 $374 $373 $243 $364 forward $357 $-1 #
edge $-1 $480 -55.688955351420638 $366 55.688955351420638 $363 $481 forward 7 unknown #
edge $-1 $482 -55.688955351420638 $367 55.688955351420638 $360 $483 forward 7 unknown #
vertex $-1 $364 $484 #
vertex $-1 $246 $485 #
straight-curve $-1 55.688955351420638 -12.575113889556148 -2.9012786522998644 0 1 0 I I #
edge $-1 $375 -19.397046084258825 $371 -5.7531816948534722 $359 $486 forward 7 unknown #
coedge $-1 $248 $360 $475 $487 reversed $147 $-1 #
vertex $-1 $369 $488 #
straight-curve $-1 0 -18.32829558440962 4.9249874274174159 -1 0 0 I I #
coedge $-1 $363 $250 $476 $489 forward $357 $-1 #
coedge $-1 $250 $363 $252 $377 reversed $357 $-1 #
vertex $-1 $489 $490 #
straight-curve $-1 0 -31.972159973814971 4.9249874274174159 -1 0 0 I I #
edge $-1 $256 -4.9249874274174159 $366 2.9012786522998644 $252 $491 forward 7 unknown #
point $-1 55.688955351420638 -18.32829558440962 4.9249874274174159 #
point $-1 55.688955351420638 -31.972159973814971 4.9249874274174159 #
plane-surface $-1 55.688955351420638 0 0 -1 0 0 0 0 1 forward_v I I I I #
coedge $-1 $391 $390 $383 $492 forward $259 $-1 #
coedge $-1 $383 $261 $263 $387 reversed $155 $-1 #
coedge $-1 $261 $382 $381 $492 reversed $155 $-1 #
coedge $-1 $269 $264 $261 $385 forward $270 $-1 #
edge $-1 $388 -71.289819885720263 $493 -67.750132736182607 $384 $494 forward 7 unknown #
coedge $-1 $263 $262 $391 $495 reversed $97 $-1 #
edge $-1 $496 107.29063208208217 $388 111.37791070284128 $382 $497 forward 7 unknown #
vertex $-1 $265 $498 #
straight-curve $-1 55.688955351420638 -1.8964783227400144 9.5654150384048364 0 1 0 I I #
coedge $-1 $381 $266 $269 $395 forward $259 $-1 #
coedge $-1 $266 $381 $386 $495 forward $259 $-1 #
vertex $-1 $267 $499 #
straight-curve $-1 48.228051221394878 -9.688920378933636 13.105102187942492 1 0 0 I I #
straight-curve $-1 1.4921825197689031e-006 -9.688920378933636 106.02151598901207 -0.49999998660252726 0 0.86602541151947299 I I #
edge $-1 $271 -9.688920378933636 $493 2.1030070879735785 $269 $500 forward 7 unknown #
point $-1 55.688955351420638 -9.688920378933636 13.105102187942487 #
point $-1 55.688955351420638 -9.688920378933636 9.5654150384048364 #
edge $-1 $501 1 $501 0 $274 $-1 forward 7 unknown #
vertex $-1 $275 $502 #
ellipse-curve $-1 53.780891511474145 -6.319798245531576 10.823585297009384 0.86602541151947299 0 0.49999998660252726 0.49999998660252726 0 -0.86602541151947299 1 I I #
point $-1 55.167135710212996 -6.319798245531576 10.46923320165422 #
edge $-1 $503 1 $503 0 $278 $-1 forward 7 unknown #
vertex $-1 $279 $504 #
ellipse-curve $-1 53.780891511474145 -1.2661150454284851 10.823585297009384 0.86602541151947299 0 0.49999998660252726 0.49999998660252726 0 -0.86602541151947299 1 I I #
point $-1 55.167135710212996 -1.2661150454284851 10.46923320165422 #
loop $-1 $-1 $290 $282 #
plane-surface $-1 0 0 13.105102187942487 0 0 1 1 0 0 forward_v I I I I #
coedge $-1 $409 $285 $287 $413 reversed $177 $-1 #
coedge $-1 $285 $408 $505 $506 reversed $177 $-1 #
coedge $-1 $293 $288 $285 $411 forward $283 $-1 #
edge $-1 $414 -71.289819885720263 $507 -67.750132736182607 $410 $508 forward 7 unknown #
coedge $-1 $287 $286 $417 $509 reversed $111 $-1 #
edge $-1 $510 107.29063208208217 $414 111.37791070284128 $408 $511 forward 7 unknown #
vertex $-1 $289 $512 #
straight-curve $-1 55.688955351420638 8.71841051744269 9.5654150384048364 0 1 0 I I #
coedge $-1 $505 $290 $293 $421 forward $406 $-1 #
coedge $-1 $290 $505 $412 $509 forward $406 $-1 #
vertex $-1 $291 $513 #
straight-curve $-1 48.228051221394878 11.540857301431773 13.105102187942492 1 0 0 I I #
straight-curve $-1 1.4921825197689031e-006 11.540857301431773 106.02151598901207 -0.49999998660252726 0 0.86602541151947299 I I #
edge $-1 $294 11.540857301431773 $507 23.332784768338989 $293 $514 forward 7 unknown #
point $-1 55.688955351420638 11.540857301431773 13.105102187942487 #
point $-1 55.688955351420638 11.540857301431773 9.5654150384048364 #
edge $-1 $515 1 $515 0 $297 $-1 forward 7 unknown #
vertex $-1 $298 $516 #
ellipse-curve $-1 53.780891511474145 14.90997943483384 10.823585297009384 0.86602541151947299 0 0.49999998660252726 0.49999998660252726 0 -0.86602541151947299 1 I I #
point $-1 55.167135710212996 14.90997943483384 10.46923320165422 #
edge $-1 $517 1 $517 0 $301 $-1 forward 7 unknown #
vertex $-1 $302 $518 #
ellipse-curve $-1 53.780891511474145 19.963662634936927 10.823585297009384 0.86602541151947299 0 0.49999998660252726 0.49999998660252726 0 -0.86602541151947299 1 I I #
point $-1 55.167135710212996 19.963662634936927 10.46923320165422 #
plane-surface $-1 0 0 13.105102187942487 0 0 1 1 0 0 forward_v I I I I #
coedge $-1 $443 $442 $435 $519 forward $306 $-1 #
coedge $-1 $435 $308 $310 $439 reversed $199 $-1 #
coedge $-1 $308 $434 $433 $519 reversed $199 $-1 #
coedge $-1 $316 $311 $308 $437 forward $317 $-1 #
edge $-1 $440 -19.443236029270508 $520 -12.883846420103175 $436 $521 forward 7 unknown #
coedge $-1 $310 $309 $443 $522 reversed $125 $-1 #
edge $-1 $523 -3.1426556366807674e-014 $440 9.6178965794093614 $434 $524 forward 7 unknown #
vertex $-1 $312 $525 #
straight-curve $-1 -49.129565742253298 7.4306485759582213 13.105102187942487 0 1 0 I I #
coedge $-1 $433 $313 $316 $447 reversed $306 $-1 #
coedge $-1 $313 $433 $438 $522 forward $306 $-1 #
vertex $-1 $314 $526 #
straight-curve $-1 -55.688955351420638 8.3677795563655302 41.01528465136424 0 0 1 I I #
straight-curve $-1 -55.688955351420617 8.3677795563655302 6.0710178433129585 -0.68199835119979291 0 -0.73135370988377701 I I #
edge $-1 $520 -21.354814747467355 $318 -8.3677795563655302 $442 $527 forward 7 unknown #
point $-1 -55.688955351420638 8.3677795563655302 13.105102187942487 #
point $-1 -49.129565742253305 8.3677795563655302 13.105102187942485 #
edge $-1 $528 1 $528 0 $321 $-1 forward 7 unknown #
vertex $-1 $322 $529 #
ellipse-curve $-1 -50.161341679158078 12.07836103953748 7.4918418100325859 -0.73135370988377701 0 0.68199835119979291 0.68199835119979291 0 0.73135370988377701 1 I I #
point $-1 -51.727262195637195 12.07836103953748 10.319413725511506 #
edge $-1 $530 1 $530 0 $325 $-1 forward 7 unknown #
vertex $-1 $326 $531 #
ellipse-curve $-1 -50.161341679158078 17.644233264295405 7.4918418100325859 -0.73135370988377701 0 0.68199835119979291 0.68199835119979291 0 0.73135370988377701 1 I I #
point $-1 -51.727262195637195 17.644233264295405 10.319413725511506 #
plane-surface $-1 55.688955351420638 0 0 -1 0 0 0 0 1 forward_v I I I I #
coedge $-1 $334 $332 $336 $463 reversed $221 $-1 #
edge $-1 $347 -13.105102187942487 $465 13.105102187942487 $346 $532 forward 7 unknown #
vertex $-1 $463 $533 #
straight-curve $-1 -55.688955351420638 -31.972159973814971 0 0 0 -1 I I #
edge $-1 $461 -31.972159973814971 $465 31.972159973814971 $459 $534 forward 7 unknown #
straight-curve $-1 0 -31.972159973814971 -13.105102187942487 -1 0 0 I I #
vertex $-1 $339 $535 #
straight-curve $-1 0 31.972159973814971 -13.105102187942487 1 0 0 I I #
point $-1 55.688955351420638 31.972159973814971 -13.105102187942487 #
point $-1 55.688955351420638 -31.972159973814971 -13.105102187942487 #
straight-curve $-1 -55.688955351420638 0 13.105102187942487 0 -1 0 I I #
point $-1 -55.688955351420638 31.972159973814971 13.105102187942487 #
point $-1 -55.688955351420638 -31.972159973814971 13.105102187942487 #
straight-curve $-1 55.688955351420638 -31.972159973814971 0 0 0 -1 I I #
straight-curve $-1 55.688955351420638 31.972159973814971 0 0 0 -1 I I #
plane-surface $-1 55.688955351420638 0 0 -1 0 0 0 0 1 forward_v I I I I #
coedge $-1 $478 $359 $370 $487 forward $240 $-1 #
coedge $-1 $359 $478 $373 $489 reversed $240 $-1 #
straight-curve $-1 55.688955351420638 -18.32829558440962 0.50592719377938788 0 0 1 I I #
coedge $-1 $476 $475 $362 $479 forward $240 $-1 #
edge $-1 $482 5.7531816948534722 $480 19.397046084258825 $478 $536 forward 7 unknown #
vertex $-1 $364 $537 #
straight-curve $-1 0 -31.972159973814971 -2.9012786522998644 1 0 0 I I #
vertex $-1 $479 $538 #
straight-curve $-1 0 -18.32829558440962 -2.9012786522998644 1 0 0 I I #
point $-1 55.688955351420638 -31.972159973814971 -2.9012786522998644 #
point $-1 55.688955351420638 -18.32829558440962 -2.9012786522998644 #
straight-curve $-1 -55.688955351420638 -12.575113889556148 4.9249874274174159 0 1 0 I I #
edge $-1 $371 -4.419060233638028 $482 3.4072058460792523 $475 $539 forward 7 unknown #
point $-1 -55.688955351420638 -18.32829558440962 4.9249874274174159 #
edge $-1 $375 -4.9249874274174159 $480 2.9012786522998644 $476 $540 forward 7 unknown #
point $-1 -55.688955351420638 -31.972159973814971 4.9249874274174159 #
straight-curve $-1 55.688955351420638 -31.972159973814971 0 0 0 -1 I I #
edge $-1 $493 -7.4609041300257601 $496 -5.4172648744054044 $381 $541 forward 7 unknown #
vertex $-1 $492 $542 #
straight-curve $-1 55.688955351420638 2.1030070879735785 80.855234924125099 0 0 1 I I #
edge $-1 $496 -3.9994854107135929 $392 7.7924420561936216 $391 $543 forward 7 unknown #
vertex $-1 $495 $544 #
straight-curve $-1 1.4921825197689031e-006 2.1030070879735785 106.02151598901207 0.49999998660252726 0 -0.86602541151947299 I I #
point $-1 55.688955351420638 2.1030070879735785 9.5654150384048364 #
point $-1 53.645316095800283 -9.688920378933636 13.105102187942492 #
straight-curve $-1 55.688955351420638 0 13.105102187942487 0 1 0 I I #
vertex $-1 $398 $545 #
point $-1 54.28089149807667 -6.319798245531576 9.9575598854899106 #
vertex $-1 $402 $546 #
point $-1 54.28089149807667 -1.2661150454284851 9.9575598854899106 #
coedge $-1 $417 $416 $409 $506 forward $406 $-1 #
edge $-1 $507 -7.4609041300257601 $510 -5.4172648744054044 $505 $547 forward 7 unknown #
vertex $-1 $506 $548 #
straight-curve $-1 55.688955351420638 23.332784768338989 80.855234924125099 0 0 1 I I #
edge $-1 $510 -14.614374250896299 $418 -2.8224467839890828 $417 $549 forward 7 unknown #
vertex $-1 $509 $550 #
straight-curve $-1 1.4921825197689031e-006 23.332784768338989 106.02151598901207 0.49999998660252726 0 -0.86602541151947299 I I #
point $-1 55.688955351420638 23.332784768338989 9.5654150384048364 #
point $-1 53.645316095800283 11.540857301431773 13.105102187942492 #
straight-curve $-1 55.688955351420638 0 13.105102187942487 0 1 0 I I #
vertex $-1 $424 $551 #
point $-1 54.28089149807667 14.90997943483384 9.9575598854899106 #
vertex $-1 $428 $552 #
point $-1 54.28089149807667 19.963662634936927 9.9575598854899106 #
edge $-1 $520 27.910182463421755 $523 34.944266808051303 $433 $553 forward 7 unknown #
vertex $-1 $447 $554 #
straight-curve $-1 -68.572801771523814 21.354814747467355 13.105102187942485 -1 0 0 I I #
edge $-1 $523 -13.924166171509134 $444 -0.93713098040730891 $443 $555 forward 7 unknown #
vertex $-1 $522 $556 #
straight-curve $-1 -55.688955351420617 21.354814747467355 6.0710178433129585 0.68199835119979291 0 0.73135370988377701 I I #
point $-1 -49.129565742253305 21.354814747467355 13.105102187942485 #
point $-1 -55.688955351420638 8.3677795563655302 6.0710178433129354 #
straight-curve $-1 -55.688955351420638 0 13.105102187942487 0 -1 0 I I #
vertex $-1 $450 $557 #
point $-1 -49.479343327958283 12.07836103953748 8.2231955199163629 #
vertex $-1 $454 $558 #
point $-1 -49.479343327958283 17.644233264295405 8.2231955199163629 #
straight-curve $-1 -55.688955351420638 31.972159973814971 0 0 0 -1 I I #
point $-1 -55.688955351420638 -31.972159973814971 -13.105102187942487 #
straight-curve $-1 -55.688955351420638 0 -13.105102187942487 0 1 0 I I #
point $-1 -55.688955351420638 31.972159973814971 -13.105102187942487 #
straight-curve $-1 -55.688955351420638 -12.575113889556148 -2.9012786522998644 0 -1 0 I I #
point $-1 -55.688955351420638 -31.972159973814971 -2.9012786522998644 #
point $-1 -55.688955351420638 -18.32829558440962 -2.9012786522998644 #
straight-curve $-1 -55.688955351420638 -18.32829558440962 0.50592719377938788 0 0 -1 I I #
straight-curve $-1 -55.688955351420638 -31.972159973814971 0 0 0 -1 I I #
straight-curve $-1 48.228051221394878 2.1030070879735785 13.105102187942492 -1 0 0 I I #
point $-1 55.688955351420638 2.1030070879735785 13.105102187942487 #
straight-curve $-1 53.645316095800283 -1.8964783227400144 13.105102187942492 0 -1 0 I I #
point $-1 53.645316095800283 2.1030070879735785 13.105102187942492 #
point $-1 52.914866099954672 -6.319798245531576 10.323585310406855 #
point $-1 52.914866099954672 -1.2661150454284851 10.323585310406855 #
straight-curve $-1 48.228051221394878 23.332784768338989 13.105102187942492 -1 0 0 I I #
point $-1 55.688955351420638 23.332784768338989 13.105102187942487 #
straight-curve $-1 53.645316095800283 8.71841051744269 13.105102187942492 0 -1 0 I I #
point $-1 53.645316095800283 23.332784768338989 13.105102187942492 #
point $-1 52.914866099954672 14.90997943483384 10.323585310406855 #
point $-1 52.914866099954672 19.963662634936927 10.323585310406855 #
straight-curve $-1 -55.688955351420638 21.354814747467355 41.01528465136424 0 0 -1 I I #
point $-1 -55.688955351420638 21.354814747467355 13.105102187942487 #
straight-curve $-1 -55.688955351420638 7.4306485759582213 6.0710178433129407 0 -1 0 I I #
point $-1 -55.688955351420638 21.354814747467355 6.0710178433129354 #
point $-1 -49.4299879692743 12.07836103953748 6.8098434588327947 #
point $-1 -49.4299879692743 17.644233264295405 6.8098434588327947 #
End-of-ACIS-data 