500 0 6 0           
7 Unknown 11 ACIS 5.0 NT 24 Fri Mar 26 01:06:41 1999 
-1 9.9999999999999995e-007 1e-010 
body $-1 $6 $-1 $7 #
body $-1 $8 $-1 $9 #
body $-1 $10 $-1 $11 #
body $-1 $12 $-1 $13 #
body $-1 $14 $-1 $15 #
body $-1 $16 $-1 $17 #
lump $-1 $-1 $18 $0 #
transform $-1 1 0 0 0 1 0 0 0 1 53.785821100497451 21.710811572183282 7.3114555356525797 1 rotate no_reflect no_shear #
lump $-1 $-1 $19 $1 #
transform $-1 1 0 0 0 1 0 0 0 1 53.785821100497451 21.710811572183282 7.3114555356525797 1 rotate no_reflect no_shear #
lump $-1 $-1 $20 $2 #
transform $-1 1 0 0 0 1 0 0 0 1 53.785821100497451 21.710811572183282 7.3114555356525797 1 rotate no_reflect no_shear #
lump $-1 $-1 $21 $3 #
transform $-1 1 0 0 0 1 0 0 0 1 53.785821100497451 21.710811572183282 7.3114555356525797 1 rotate no_reflect no_shear #
lump $-1 $-1 $22 $4 #
transform $-1 1 0 0 0 1 0 0 0 1 53.785821100497451 21.710811572183282 7.3114555356525797 1 rotate no_reflect no_shear #
lump $-1 $-1 $23 $5 #
transform $-1 1 0 0 0 1 0 0 0 1 53.785821100497451 21.710811572183282 7.3114555356525797 1 rotate no_reflect no_shear #
shell $-1 $-1 $-1 $24 $-1 $6 #
shell $-1 $-1 $-1 $25 $-1 $8 #
shell $-1 $-1 $-1 $26 $-1 $10 #
shell $-1 $-1 $-1 $27 $-1 $12 #
shell $-1 $-1 $-1 $28 $-1 $14 #
shell $-1 $-1 $-1 $29 $-1 $16 #
face $-1 $30 $31 $18 $-1 $32 forward single #
face $-1 $33 $34 $19 $-1 $35 reversed single #
face $-1 $36 $37 $20 $-1 $38 reversed single #
face $-1 $39 $40 $21 $-1 $41 forward single #
face $-1 $42 $43 $22 $-1 $44 reversed single #
face $-1 $45 $46 $23 $-1 $47 forward single #
face $-1 $48 $49 $18 $-1 $50 reversed single #
loop $-1 $-1 $51 $24 #
plane-surface $-1 0 0 7.3114555356525797 0 0 1 1 0 0 forward_v I I I I #
face $-1 $52 $53 $19 $-1 $54 reversed single #
loop $-1 $-1 $55 $25 #
plane-surface $-1 -52.285821100497451 -14.656483105592683 0 0 -1 0 0 0 -1 forward_v I I I I #
face $-1 $56 $57 $20 $-1 $58 reversed single #
loop $-1 $-1 $59 $26 #
plane-surface $-1 -133.72713126109448 -6.8820899391794139 74.267113096049798 0 -1 0 0.74314483375859142 0 -0.66913059716165679 forward_v I I I I #
face $-1 $60 $61 $21 $-1 $62 forward single #
loop $-1 $63 $64 $27 #
cone-surface $-1 -50.655093066206327 -10.769286522386048 4.0170997277427256 0.74314483375859142 0 -0.66913059716165679 1.0036958957424851 0 1.1147172506378871 1 I I 0 1 1.5 forward I I I I #
face $-1 $65 $66 $22 $-1 $67 reversed single #
loop $-1 $-1 $68 $28 #
plane-surface $-1 72.325718021801435 -3.6345586117014994 151.82032809242369 0 -1 0 -0.78801076186113728 0 -0.61566146476048833 forward_v I I I I #
face $-1 $69 $70 $23 $-1 $71 forward single #
loop $-1 $72 $73 $29 #
cone-surface $-1 48.960355622310843 -6.6854332405332961 2.2778509263335547 -0.78801076186113728 0 -0.61566146476048833 0.9234921971407325 0 -1.182016142791706 1 I I 0 1 1.5 forward I I I I #
face $-1 $74 $75 $18 $-1 $76 reversed single #
loop $-1 $-1 $77 $30 #
plane-surface $-1 0 0 -7.3114555356525797 0 0 1 1 0 0 forward_v I I I I #
coedge $-1 $78 $79 $80 $81 forward $31 $-1 #
face $-1 $82 $83 $19 $-1 $84 forward single #
loop $-1 $-1 $85 $33 #
plane-surface $-1 -50.785821100497451 -18.183647338887983 0 -1 0 0 0 0 1 forward_v I I I I #
coedge $-1 $86 $87 $88 $89 forward $34 $-1 #
face $-1 $90 $91 $20 $-1 $92 forward single #
loop $-1 $-1 $93 $36 #
plane-surface $-1 -53.785821100497458 -10.769286522386048 2.2876359124379917 -0.74314483375859142 0 0.66913059716165679 0.66913059716165679 0 0.74314483375859142 forward_v I I I I #
coedge $-1 $94 $95 $96 $97 reversed $37 $-1 #
face $-1 $-1 $98 $21 $-1 $99 forward single #
loop $-1 $100 $101 $39 #
cone-surface $-1 -49.228740103587839 -10.769286522386048 2.7328057835689217 0.74314483375859142 0 -0.66913059716165679 0.50184794787124254 0 0.55735862531894353 1 I I -0.70710678118654757 0.70710678118654757 0.75 forward I I I I #
loop $-1 $-1 $102 $27 #
coedge $-1 $64 $64 $103 $104 reversed $40 $-1 #
face $-1 $105 $106 $22 $-1 $107 reversed single #
loop $-1 $-1 $108 $42 #
plane-surface $-1 -12.441893703658224 -6.6854332405332961 85.592613288268012 0.78801076186113728 0 0.61566146476048833 0.61566146476048833 0 -0.78801076186113728 forward_v I I I I #
coedge $-1 $109 $110 $111 $112 reversed $43 $-1 #
face $-1 $-1 $113 $23 $-1 $114 forward single #
loop $-1 $115 $116 $45 #
cone-surface $-1 46.077768630692979 -6.6854332405332961 0.025727204866261566 -0.78801076186113728 0 -0.61566146476048833 0.46174609857036625 0 -0.59100807139585299 1 I I -0.70710678118654757 0.70710678118654757 0.75 forward I I I I #
loop $-1 $-1 $117 $29 #
coedge $-1 $73 $73 $118 $119 reversed $46 $-1 #
face $-1 $120 $121 $18 $-1 $122 reversed single #
loop $-1 $-1 $123 $48 #
plane-surface $-1 0 -21.710811572183282 0 0 1 0 0 0 1 forward_v I I I I #
coedge $-1 $124 $125 $126 $127 forward $49 $-1 #
coedge $-1 $128 $51 $129 $130 forward $31 $-1 #
coedge $-1 $51 $128 $131 $132 forward $31 $-1 #
coedge $-1 $133 $134 $51 $81 reversed $135 $-1 #
edge $-1 $136 -21.710811572183282 $137 21.710811572183282 $80 $138 forward 7 unknown #
face $-1 $139 $140 $19 $-1 $141 reversed single #
loop $-1 $-1 $142 $52 #
plane-surface $-1 0 0 7.3114555356525797 0 0 1 1 0 0 forward_v I I I I #
coedge $-1 $143 $144 $145 $146 reversed $53 $-1 #
coedge $-1 $147 $55 $148 $149 reversed $34 $-1 #
coedge $-1 $55 $147 $150 $151 reversed $34 $-1 #
coedge $-1 $144 $143 $55 $89 reversed $53 $-1 #
edge $-1 $152 -7.3114555356525797 $153 7.3114555356525797 $88 $154 forward 7 unknown #
face $-1 $155 $156 $20 $-1 $157 forward single #
loop $-1 $-1 $158 $56 #
plane-surface $-1 0 0 7.3114555356525797 0 0 1 1 0 0 forward_v I I I I #
coedge $-1 $159 $160 $161 $162 reversed $57 $-1 #
coedge $-1 $95 $59 $163 $164 reversed $37 $-1 #
coedge $-1 $59 $94 $159 $165 reversed $37 $-1 #
coedge $-1 $161 $166 $59 $97 forward $167 $-1 #
edge $-1 $168 29.822101012372318 $169 34.8459206355869 $96 $170 forward 7 unknown #
loop $-1 $-1 $103 $60 #
plane-surface $-1 -53.785821100497458 -10.769286522386048 2.2876359124379917 -0.74314483375859142 0 0.66913059716165679 0.66913059716165679 0 0.74314483375859142 forward_v I I I I #
loop $-1 $-1 $171 $39 #
coedge $-1 $101 $101 $102 $172 reversed $61 $-1 #
coedge $-1 $102 $102 $101 $172 forward $63 $-1 #
coedge $-1 $103 $103 $64 $104 forward $98 $-1 #
edge $-1 $173 0 $173 6.2831853071796004 $103 $174 forward 7 unknown #
face $-1 $175 $176 $22 $-1 $177 reversed single #
loop $-1 $-1 $178 $65 #
plane-surface $-1 72.325718021801435 -9.736307869365092 151.82032809242369 0 1 0 0.78801076186113728 0 0.61566146476048833 forward_v I I I I #
coedge $-1 $179 $180 $181 $182 reversed $66 $-1 #
coedge $-1 $110 $68 $183 $184 reversed $43 $-1 #
coedge $-1 $68 $109 $179 $185 reversed $43 $-1 #
coedge $-1 $181 $186 $68 $112 forward $187 $-1 #
edge $-1 $188 -17.622962089596733 $189 -12.555188973667534 $111 $190 forward 7 unknown #
loop $-1 $-1 $118 $69 #
plane-surface $-1 -12.441893703658224 -6.6854332405332961 85.592613288268012 0.78801076186113728 0 0.61566146476048833 0.61566146476048833 0 -0.78801076186113728 forward_v I I I I #
loop $-1 $-1 $191 $45 #
coedge $-1 $116 $116 $117 $192 reversed $70 $-1 #
coedge $-1 $117 $117 $116 $192 forward $72 $-1 #
coedge $-1 $118 $118 $73 $119 forward $113 $-1 #
edge $-1 $193 0 $193 6.2831853071796004 $118 $194 forward 7 unknown #
face $-1 $195 $196 $18 $-1 $197 reversed single #
loop $-1 $-1 $198 $74 #
plane-surface $-1 -53.785821100497451 0 0 1 0 0 0 0 -1 forward_v I I I I #
coedge $-1 $199 $131 $200 $201 forward $75 $-1 #
coedge $-1 $202 $77 $199 $203 forward $49 $-1 #
coedge $-1 $77 $202 $204 $205 forward $49 $-1 #
coedge $-1 $134 $133 $77 $127 reversed $135 $-1 #
edge $-1 $206 -21.710811572183282 $207 21.710811572183282 $126 $208 forward 7 unknown #
coedge $-1 $79 $78 $209 $210 forward $31 $-1 #
coedge $-1 $211 $212 $78 $130 reversed $196 $-1 #
edge $-1 $137 -53.785821100497451 $213 53.785821100497451 $129 $214 forward 7 unknown #
coedge $-1 $123 $215 $79 $132 reversed $75 $-1 #
edge $-1 $216 -53.785821100497451 $136 53.785821100497451 $131 $217 forward 7 unknown #
coedge $-1 $126 $80 $215 $218 forward $135 $-1 #
coedge $-1 $80 $126 $211 $219 reversed $135 $-1 #
loop $-1 $-1 $133 $195 #
vertex $-1 $81 $220 #
vertex $-1 $81 $221 #
straight-curve $-1 53.785821100497451 0 7.3114555356525797 0 1 0 I I #
face $-1 $222 $223 $19 $-1 $224 reversed single #
loop $-1 $-1 $225 $82 #
plane-surface $-1 -53.785821100497451 0 0 1 0 0 0 0 -1 forward_v I I I I #
coedge $-1 $150 $226 $144 $227 forward $83 $-1 #
coedge $-1 $88 $85 $228 $229 reversed $53 $-1 #
coedge $-1 $85 $88 $142 $227 reversed $53 $-1 #
coedge $-1 $230 $231 $85 $146 forward $232 $-1 #
edge $-1 $233 -7.3114555356525797 $234 7.3114555356525797 $145 $235 forward 7 unknown #
coedge $-1 $87 $86 $225 $236 reversed $34 $-1 #
coedge $-1 $228 $237 $86 $149 forward $223 $-1 #
edge $-1 $238 -27.642910550248725 $153 -24.642910550248725 $148 $239 forward 7 unknown #
coedge $-1 $240 $142 $87 $151 forward $83 $-1 #
edge $-1 $152 24.642910550248725 $241 27.642910550248725 $150 $242 forward 7 unknown #
vertex $-1 $151 $243 #
vertex $-1 $149 $244 #
straight-curve $-1 -50.785821100497451 -14.656483105592683 0 0 0 -1 I I #
face $-1 $-1 $167 $20 $-1 $245 reversed single #
loop $-1 $-1 $246 $90 #
plane-surface $-1 -52.285821100497451 -14.656483105592683 0 0 -1 0 0 0 -1 forward_v I I I I #
coedge $-1 $247 $248 $249 $250 forward $91 $-1 #
coedge $-1 $251 $93 $95 $165 forward $57 $-1 #
coedge $-1 $93 $251 $246 $252 reversed $57 $-1 #
coedge $-1 $253 $96 $93 $162 forward $167 $-1 #
edge $-1 $169 1.4974466779863898 $254 9.2718398443996577 $161 $255 forward 7 unknown #
coedge $-1 $248 $247 $94 $164 forward $91 $-1 #
edge $-1 $256 -17.601211924032945 $168 -13.077744530049792 $163 $257 forward 7 unknown #
edge $-1 $169 1.0694865687384493e-014 $256 6.7602160373041897 $95 $258 forward 7 unknown #
coedge $-1 $96 $253 $248 $259 reversed $167 $-1 #
loop $-1 $-1 $161 $155 #
vertex $-1 $259 $260 #
vertex $-1 $97 $261 #
straight-curve $-1 -53.785821100497451 -6.8820899391794139 37.133556548024899 0 0 -1 I I #
coedge $-1 $171 $171 $-1 $262 reversed $100 $-1 #
edge $-1 $263 0 $263 6.2831853071796004 $101 $264 forward 7 unknown #
vertex $-1 $104 $265 #
ellipse-curve $-1 -51.524087403505874 -10.769286522386048 4.7995457240452888 -0.74314483375859142 0 0.66913059716165679 1.0036958957424851 0 1.1147172506378871 1 I I #
face $-1 $-1 $187 $22 $-1 $266 forward single #
loop $-1 $-1 $267 $105 #
plane-surface $-1 53.785821100497451 0 0 -1 0 0 0 0 1 forward_v I I I I #
coedge $-1 $268 $269 $270 $271 reversed $106 $-1 #
coedge $-1 $272 $108 $110 $185 forward $66 $-1 #
coedge $-1 $108 $272 $268 $273 forward $66 $-1 #
coedge $-1 $270 $111 $108 $182 forward $187 $-1 #
edge $-1 $189 0.29184199143485134 $274 6.3935912490984439 $181 $275 forward 7 unknown #
coedge $-1 $276 $277 $109 $184 forward $176 $-1 #
edge $-1 $278 -75.085162483403494 $188 -68.598708510559263 $183 $279 forward 7 unknown #
edge $-1 $189 99.340214044449922 $278 107.5716422009949 $110 $280 forward 7 unknown #
coedge $-1 $111 $270 $276 $281 forward $187 $-1 #
loop $-1 $-1 $270 $175 #
vertex $-1 $184 $282 #
vertex $-1 $112 $283 #
straight-curve $-1 36.162859010900718 -3.6345586117014994 7.3114555356525841 -1 0 0 I I #
coedge $-1 $191 $191 $-1 $284 reversed $115 $-1 #
edge $-1 $285 0 $285 6.2831853071796004 $116 $286 forward 7 unknown #
vertex $-1 $119 $287 #
ellipse-curve $-1 51.251934542532844 -6.6854332405332961 4.0682285492304739 0.78801076186113728 0 0.61566146476048833 0.9234921971407325 0 -1.182016142791706 1 I I #
face $-1 $-1 $135 $18 $-1 $288 reversed single #
loop $-1 $-1 $211 $120 #
plane-surface $-1 0 21.710811572183282 0 0 -1 0 0 0 -1 forward_v I I I I #
coedge $-1 $289 $209 $212 $290 forward $121 $-1 #
coedge $-1 $215 $123 $124 $203 reversed $75 $-1 #
coedge $-1 $209 $289 $123 $201 reversed $121 $-1 #
edge $-1 $216 -7.3114555356525797 $291 7.3114555356525797 $200 $292 forward 7 unknown #
coedge $-1 $125 $124 $289 $293 forward $49 $-1 #
edge $-1 $207 -53.785821100497451 $291 53.785821100497451 $199 $294 forward 7 unknown #
coedge $-1 $212 $211 $125 $205 reversed $196 $-1 #
edge $-1 $295 -53.785821100497451 $206 53.785821100497451 $204 $296 forward 7 unknown #
vertex $-1 $127 $297 #
vertex $-1 $218 $298 #
straight-curve $-1 53.785821100497451 0 -7.3114555356525797 0 -1 0 I I #
coedge $-1 $198 $200 $128 $210 reversed $121 $-1 #
edge $-1 $213 -21.710811572183282 $216 21.710811572183282 $209 $299 forward 7 unknown #
coedge $-1 $204 $129 $134 $219 forward $196 $-1 #
coedge $-1 $129 $204 $198 $290 reversed $196 $-1 #
vertex $-1 $130 $300 #
straight-curve $-1 0 21.710811572183282 7.3114555356525797 -1 0 0 I I #
coedge $-1 $131 $199 $133 $218 reversed $75 $-1 #
vertex $-1 $210 $301 #
straight-curve $-1 0 -21.710811572183282 7.3114555356525797 1 0 0 I I #
edge $-1 $136 -7.3114555356525797 $207 7.3114555356525797 $133 $302 forward 7 unknown #
edge $-1 $137 -7.3114555356525797 $206 7.3114555356525797 $134 $303 forward 7 unknown #
point $-1 53.785821100497451 -21.710811572183282 7.3114555356525797 #
point $-1 53.785821100497451 21.710811572183282 7.3114555356525797 #
face $-1 $-1 $232 $19 $-1 $304 reversed single #
loop $-1 $-1 $228 $139 #
plane-surface $-1 0 0 -7.3114555356525797 0 0 1 1 0 0 forward_v I I I I #
coedge $-1 $305 $306 $147 $236 forward $140 $-1 #
coedge $-1 $142 $240 $230 $307 forward $83 $-1 #
edge $-1 $234 -12.61898790273929 $152 -5.5646594361486912 $142 $308 forward 7 unknown #
coedge $-1 $309 $148 $143 $229 forward $223 $-1 #
edge $-1 $153 5.5646594361486912 $233 12.61898790273929 $228 $310 forward 7 unknown #
coedge $-1 $311 $145 $226 $307 reversed $232 $-1 #
coedge $-1 $145 $311 $309 $312 reversed $232 $-1 #
loop $-1 $-1 $145 $222 #
vertex $-1 $312 $313 #
vertex $-1 $146 $314 #
straight-curve $-1 -50.785821100497451 -21.710811572183282 0 0 0 1 I I #
edge $-1 $241 -7.3114555356525797 $238 7.3114555356525797 $225 $315 forward 7 unknown #
coedge $-1 $148 $309 $305 $316 forward $223 $-1 #
vertex $-1 $149 $317 #
straight-curve $-1 -26.142910550248725 -14.656483105592683 -7.3114555356525797 1 0 0 I I #
coedge $-1 $226 $150 $306 $318 forward $83 $-1 #
vertex $-1 $318 $319 #
straight-curve $-1 -26.142910550248725 -14.656483105592683 7.3114555356525797 -1 0 0 I I #
point $-1 -50.785821100497451 -14.656483105592683 7.3114555356525797 #
point $-1 -50.785821100497451 -14.656483105592683 -7.3114555356525797 #
plane-surface $-1 -53.785821100497451 0 0 1 0 0 0 0 -1 forward_v I I I I #
coedge $-1 $249 $320 $160 $252 forward $156 $-1 #
coedge $-1 $163 $158 $251 $321 forward $91 $-1 #
coedge $-1 $158 $163 $166 $259 forward $91 $-1 #
coedge $-1 $320 $246 $158 $250 reversed $156 $-1 #
edge $-1 $322 -27.642910550248725 $323 -23.119443156265572 $158 $324 forward 7 unknown #
coedge $-1 $160 $159 $247 $321 reversed $57 $-1 #
edge $-1 $254 0.34817445705322769 $323 7.1083904943574066 $246 $325 forward 7 unknown #
coedge $-1 $166 $161 $320 $326 forward $167 $-1 #
vertex $-1 $326 $327 #
straight-curve $-1 -53.785821100497451 -5.3846432611930242 2.2876359124380019 0 -1 0 I I #
vertex $-1 $164 $328 #
straight-curve $-1 -66.863565630547242 -6.8820899391794139 7.311455535652577 -1 0 0 I I #
straight-curve $-1 -53.785821100497458 -6.8820899391794139 2.2876359124379917 0.66913059716165679 0 0.74314483375859142 I I #
edge $-1 $168 6.8820899391794139 $322 14.656483105592683 $166 $329 forward 7 unknown #
point $-1 -53.785821100497451 -6.8820899391794139 7.3114555356525797 #
point $-1 -53.785821100497451 -6.8820899391794139 2.2876359124379997 #
edge $-1 $330 1 $330 0 $171 $-1 forward 7 unknown #
vertex $-1 $172 $331 #
ellipse-curve $-1 -49.786098728906779 -10.769286522386048 3.2346537314401642 -0.74314483375859142 0 0.66913059716165679 1.0036958957424851 0 1.1147172506378871 1 I I #
point $-1 -50.520391507763385 -10.769286522386048 5.9142629746831741 #
plane-surface $-1 0 0 7.3114555356525797 0 0 1 1 0 0 forward_v I I I I #
coedge $-1 $277 $276 $269 $332 forward $176 $-1 #
coedge $-1 $269 $178 $180 $273 reversed $106 $-1 #
coedge $-1 $178 $268 $267 $332 reversed $106 $-1 #
coedge $-1 $186 $181 $178 $271 forward $187 $-1 #
edge $-1 $274 12.555188973667534 $333 17.622962089596733 $270 $334 forward 7 unknown #
coedge $-1 $180 $179 $277 $335 reversed $66 $-1 #
edge $-1 $336 -107.5716422009949 $274 -99.340214044449922 $268 $337 forward 7 unknown #
vertex $-1 $182 $338 #
straight-curve $-1 48.718047984568258 -3.3427166202666481 7.3114555356525699 0 -1 0 I I #
coedge $-1 $267 $183 $186 $281 reversed $176 $-1 #
coedge $-1 $183 $267 $272 $335 forward $176 $-1 #
vertex $-1 $184 $339 #
straight-curve $-1 53.785821100497451 -3.6345586117014994 75.910164046211847 0 0 1 I I #
straight-curve $-1 -12.441893703658224 -3.6345586117014994 85.592613288268012 0.61566146476048833 0 -0.78801076186113728 I I #
edge $-1 $333 -9.736307869365092 $188 -3.6345586117014994 $276 $340 forward 7 unknown #
point $-1 53.785821100497451 -3.6345586117014994 7.3114555356525797 #
point $-1 48.718047984568251 -3.6345586117014994 7.3114555356525841 #
edge $-1 $341 1 $341 0 $191 $-1 forward 7 unknown #
vertex $-1 $192 $342 #
ellipse-curve $-1 46.668776702088834 -6.6854332405332961 0.48747330343662781 0.78801076186113728 0 0.61566146476048833 0.9234921971407325 0 -1.182016142791706 1 I I #
point $-1 52.175426739673583 -6.6854332405332961 2.8862124064387751 #
plane-surface $-1 53.785821100497451 0 0 -1 0 0 0 0 1 forward_v I I I I #
coedge $-1 $200 $198 $202 $293 reversed $121 $-1 #
edge $-1 $213 -7.3114555356525797 $295 7.3114555356525797 $212 $343 forward 7 unknown #
vertex $-1 $293 $344 #
straight-curve $-1 -53.785821100497451 -21.710811572183282 0 0 0 -1 I I #
edge $-1 $291 -21.710811572183282 $295 21.710811572183282 $289 $345 forward 7 unknown #
straight-curve $-1 0 -21.710811572183282 -7.3114555356525797 -1 0 0 I I #
vertex $-1 $205 $346 #
straight-curve $-1 0 21.710811572183282 -7.3114555356525797 1 0 0 I I #
point $-1 53.785821100497451 21.710811572183282 -7.3114555356525797 #
point $-1 53.785821100497451 -21.710811572183282 -7.3114555356525797 #
straight-curve $-1 -53.785821100497451 0 7.3114555356525797 0 -1 0 I I #
point $-1 -53.785821100497451 21.710811572183282 7.3114555356525797 #
point $-1 -53.785821100497451 -21.710811572183282 7.3114555356525797 #
straight-curve $-1 53.785821100497451 -21.710811572183282 0 0 0 -1 I I #
straight-curve $-1 53.785821100497451 21.710811572183282 0 0 0 -1 I I #
plane-surface $-1 0 -21.710811572183282 0 0 1 0 0 0 1 forward_v I I I I #
coedge $-1 $347 $225 $237 $316 reversed $140 $-1 #
coedge $-1 $225 $347 $240 $318 reversed $140 $-1 #
edge $-1 $348 -53.785821100497451 $234 -50.785821100497451 $230 $349 forward 7 unknown #
straight-curve $-1 -50.785821100497451 -9.0918236694439916 7.3114555356525797 0 1 0 I I #
coedge $-1 $237 $228 $231 $312 forward $223 $-1 #
straight-curve $-1 -50.785821100497451 -9.0918236694439916 -7.3114555356525797 0 -1 0 I I #
coedge $-1 $231 $230 $347 $350 forward $232 $-1 #
edge $-1 $233 50.785821100497451 $351 53.785821100497451 $231 $352 forward 7 unknown #
point $-1 -50.785821100497451 -21.710811572183282 -7.3114555356525797 #
point $-1 -50.785821100497451 -21.710811572183282 7.3114555356525797 #
straight-curve $-1 -53.785821100497451 -14.656483105592683 0 0 0 -1 I I #
edge $-1 $351 -21.710811572183282 $238 -14.656483105592683 $305 $353 forward 7 unknown #
point $-1 -53.785821100497451 -14.656483105592683 -7.3114555356525797 #
edge $-1 $241 14.656483105592683 $348 21.710811572183282 $306 $354 forward 7 unknown #
point $-1 -53.785821100497451 -14.656483105592683 7.3114555356525797 #
coedge $-1 $246 $249 $253 $326 reversed $156 $-1 #
edge $-1 $323 -9.2718398443996577 $256 -1.4974466779863898 $247 $355 forward 7 unknown #
vertex $-1 $326 $356 #
vertex $-1 $250 $357 #
straight-curve $-1 -26.142910550248725 -14.656483105592683 7.3114555356525797 1 0 0 I I #
straight-curve $-1 -54.018795282861916 -14.656483105592683 2.028891863432194 0.66913059716165679 0 0.74314483375859142 I I #
edge $-1 $254 2.2876359124379997 $322 7.3114555356525797 $253 $358 forward 7 unknown #
point $-1 -53.785821100497451 -14.656483105592683 2.2876359124379997 #
point $-1 -49.262353706514297 -6.8820899391794139 7.3114555356525797 #
straight-curve $-1 -53.785821100497451 0 7.3114555356525797 0 -1 0 I I #
vertex $-1 $262 $359 #
point $-1 -48.782402833164298 -10.769286522386048 4.3493709820780513 #
edge $-1 $333 68.598708510559263 $336 75.085162483403494 $267 $360 forward 7 unknown #
vertex $-1 $281 $361 #
straight-curve $-1 36.162859010900718 -9.736307869365092 7.3114555356525841 1 0 0 I I #
edge $-1 $336 -6.3935912490984439 $278 -0.29184199143485134 $277 $362 forward 7 unknown #
vertex $-1 $335 $363 #
straight-curve $-1 -12.441893703658224 -9.736307869365092 85.592613288268012 -0.61566146476048833 0 0.78801076186113728 I I #
point $-1 48.718047984568251 -9.736307869365092 7.3114555356525841 #
point $-1 53.785821100497458 -3.6345586117014994 0.82500156280835313 #
straight-curve $-1 53.785821100497451 0 7.3114555356525797 0 1 0 I I #
vertex $-1 $284 $364 #
point $-1 47.592268899229566 -6.6854332405332961 -0.6945428393550781 #
straight-curve $-1 -53.785821100497451 21.710811572183282 0 0 0 -1 I I #
point $-1 -53.785821100497451 -21.710811572183282 -7.3114555356525797 #
straight-curve $-1 -53.785821100497451 0 -7.3114555356525797 0 1 0 I I #
point $-1 -53.785821100497451 21.710811572183282 -7.3114555356525797 #
coedge $-1 $306 $305 $311 $350 reversed $140 $-1 #
vertex $-1 $318 $365 #
straight-curve $-1 0 -21.710811572183282 7.3114555356525797 1 0 0 I I #
edge $-1 $348 -7.3114555356525797 $351 7.3114555356525797 $347 $366 forward 7 unknown #
vertex $-1 $316 $367 #
straight-curve $-1 0 -21.710811572183282 -7.3114555356525797 -1 0 0 I I #
straight-curve $-1 -53.785821100497451 0 -7.3114555356525797 0 1 0 I I #
straight-curve $-1 -53.785821100497451 0 7.3114555356525797 0 -1 0 I I #
straight-curve $-1 -49.26235370651429 -5.3846432611930242 7.3114555356525806 0 1 0 I I #
point $-1 -53.785821100497451 -14.656483105592683 7.3114555356525797 #
point $-1 -49.262353706514297 -14.656483105592683 7.3114555356525797 #
straight-curve $-1 -53.785821100497451 -14.656483105592683 0 0 0 1 I I #
point $-1 -48.671381478268898 -10.769286522386048 2.2309578356976791 #
straight-curve $-1 53.785821100497451 -9.736307869365092 75.910164046211847 0 0 -1 I I #
point $-1 53.785821100497451 -9.736307869365092 7.3114555356525797 #
straight-curve $-1 53.785821100497451 -3.3427166202666481 0.82500156280836023 0 1 0 I I #
point $-1 53.785821100497458 -9.736307869365092 0.82500156280835313 #
point $-1 45.486760559297124 -6.6854332405332961 -0.43601889370410468 #
point $-1 -53.785821100497451 -21.710811572183282 7.3114555356525797 #
straight-curve $-1 -53.785821100497451 -21.710811572183282 0 0 0 -1 I I #
point $-1 -53.785821100497451 -21.710811572183282 -7.3114555356525797 #
End-of-ACIS-data 