500 0 6 0           
7 Unknown 11 ACIS 5.0 NT 24 Fri Mar 26 01:34:43 1999 
-1 9.9999999999999995e-007 1e-010 
body $-1 $6 $-1 $7 #
body $-1 $8 $-1 $9 #
body $-1 $10 $-1 $11 #
body $-1 $12 $-1 $13 #
body $-1 $14 $-1 $15 #
body $-1 $16 $-1 $17 #
lump $-1 $-1 $18 $0 #
transform $-1 1 0 0 0 1 0 0 0 1 46.037781914731283 22.985030349310431 11.271552481700938 1 rotate no_reflect no_shear #
lump $-1 $-1 $19 $1 #
transform $-1 1 0 0 0 1 0 0 0 1 46.037781914731283 22.985030349310431 11.271552481700938 1 rotate no_reflect no_shear #
lump $-1 $-1 $20 $2 #
transform $-1 1 0 0 0 1 0 0 0 1 46.037781914731283 22.985030349310431 11.271552481700938 1 rotate no_reflect no_shear #
lump $-1 $-1 $21 $3 #
transform $-1 1 0 0 0 1 0 0 0 1 46.037781914731283 22.985030349310431 11.271552481700938 1 rotate no_reflect no_shear #
lump $-1 $-1 $22 $4 #
transform $-1 1 0 0 0 1 0 0 0 1 46.037781914731283 22.985030349310431 11.271552481700938 1 rotate no_reflect no_shear #
lump $-1 $-1 $23 $5 #
transform $-1 1 0 0 0 1 0 0 0 1 46.037781914731283 22.985030349310431 11.271552481700938 1 rotate no_reflect no_shear #
shell $-1 $-1 $-1 $24 $-1 $6 #
shell $-1 $-1 $-1 $25 $-1 $8 #
shell $-1 $-1 $-1 $26 $-1 $10 #
shell $-1 $-1 $-1 $27 $-1 $12 #
shell $-1 $-1 $-1 $28 $-1 $14 #
shell $-1 $-1 $-1 $29 $-1 $16 #
face $-1 $30 $31 $18 $-1 $32 forward single #
face $-1 $33 $34 $19 $-1 $35 reversed single #
face $-1 $36 $37 $20 $-1 $38 reversed single #
face $-1 $39 $40 $21 $-1 $41 forward single #
face $-1 $42 $43 $22 $-1 $44 reversed single #
face $-1 $45 $46 $23 $-1 $47 forward single #
face $-1 $48 $49 $18 $-1 $50 reversed single #
loop $-1 $-1 $51 $24 #
plane-surface $-1 0 0 11.271552481700938 0 0 1 1 0 0 forward_v I I I I #
face $-1 $52 $53 $19 $-1 $54 reversed single #
loop $-1 $-1 $55 $25 #
plane-surface $-1 0 -15.740487407210397 8.2715524817009385 0 0 1 1 0 0 forward_v I I I I #
face $-1 $56 $57 $20 $-1 $58 reversed single #
loop $-1 $-1 $59 $26 #
plane-surface $-1 66.407821094613197 -1.4241952734739538 131.66708529262081 0 -1 0 -0.80901700255871778 0 -0.5877852410284794 forward_v I I I I #
face $-1 $60 $61 $21 $-1 $62 forward single #
loop $-1 $63 $64 $27 #
cone-surface $-1 41.961258226318961 -4.9600698692921554 6.370292291546261 -0.80901700255871778 0 -0.5877852410284794 0.5877852410284794 0 -0.80901700255871778 1 I I 0 1 1 forward I I I I #
face $-1 $65 $66 $22 $-1 $67 reversed single #
loop $-1 $-1 $68 $28 #
plane-surface $-1 -126.56888528803034 -2.6796903398147851 46.6798060679304 0 1 0 -0.87461971476443456 0 0.48480960649040278 forward_v I I I I #
face $-1 $69 $70 $23 $-1 $71 forward single #
loop $-1 $72 $73 $29 #
cone-surface $-1 -42.271762621384454 1.8512522947074324 5.9867126005961504 0.87461971476443456 0 -0.48480960649040278 0.48480960649040278 0 0.87461971476443456 1 I I 0 1 1 forward I I I I #
face $-1 $74 $75 $18 $-1 $76 reversed single #
loop $-1 $-1 $77 $30 #
plane-surface $-1 0 0 -11.271552481700938 0 0 1 1 0 0 forward_v I I I I #
coedge $-1 $78 $79 $80 $81 forward $31 $-1 #
face $-1 $82 $83 $19 $-1 $84 reversed single #
loop $-1 $-1 $85 $33 #
plane-surface $-1 0 -8.4959444651103624 9.7715524817009385 0 -1 0 0 0 -1 forward_v I I I I #
coedge $-1 $86 $87 $88 $89 reversed $34 $-1 #
face $-1 $90 $91 $20 $-1 $92 forward single #
loop $-1 $-1 $93 $36 #
plane-surface $-1 -8.0828755636024994 -4.960069869292159 77.546427814287014 0.80901700255871778 0 0.5877852410284794 0.5877852410284794 0 -0.80901700255871778 forward_v I I I I #
coedge $-1 $94 $95 $96 $97 reversed $37 $-1 #
face $-1 $-1 $98 $21 $-1 $99 forward single #
loop $-1 $100 $101 $39 #
cone-surface $-1 40.464797747023212 -4.9600698692921554 5.2830501436921349 -0.80901700255871778 0 -0.5877852410284794 0.2938926205142397 0 -0.40450850127935889 1 I I -0.70710678118654746 0.70710678118654746 0.5 forward I I I I #
loop $-1 $-1 $102 $27 #
coedge $-1 $64 $64 $103 $104 reversed $40 $-1 #
face $-1 $105 $106 $22 $-1 $107 reversed single #
loop $-1 $-1 $108 $42 #
plane-surface $-1 -46.037781914731312 1.8512522947074324 2.0406882003866897 -0.87461971476443456 0 0.48480960649040278 0.48480960649040278 0 0.87461971476443456 forward_v I I I I #
coedge $-1 $109 $110 $111 $112 reversed $43 $-1 #
face $-1 $-1 $113 $23 $-1 $114 forward single #
loop $-1 $115 $116 $45 #
cone-surface $-1 -40.626809187692395 1.8512522947074324 5.0749000569032869 0.87461971476443456 0 -0.48480960649040278 0.24240480324520139 0 0.43730985738221728 1 I I -0.70710678118654746 0.70710678118654746 0.5 forward I I I I #
loop $-1 $-1 $117 $29 #
coedge $-1 $73 $73 $118 $119 reversed $46 $-1 #
face $-1 $120 $121 $18 $-1 $122 reversed single #
loop $-1 $-1 $123 $48 #
plane-surface $-1 0 -22.985030349310431 0 0 1 0 0 0 1 forward_v I I I I #
coedge $-1 $124 $125 $126 $127 forward $49 $-1 #
coedge $-1 $128 $51 $129 $130 forward $31 $-1 #
coedge $-1 $51 $128 $131 $132 forward $31 $-1 #
coedge $-1 $133 $134 $51 $81 reversed $135 $-1 #
edge $-1 $136 -22.985030349310431 $137 22.985030349310431 $80 $138 forward 7 unknown #
face $-1 $139 $140 $19 $-1 $141 reversed single #
loop $-1 $-1 $142 $52 #
plane-surface $-1 -46.037781914731283 0 0 1 0 0 0 0 -1 forward_v I I I I #
coedge $-1 $143 $144 $145 $146 reversed $53 $-1 #
coedge $-1 $147 $55 $148 $149 reversed $34 $-1 #
coedge $-1 $55 $147 $143 $150 forward $34 $-1 #
coedge $-1 $145 $151 $55 $89 forward $152 $-1 #
edge $-1 $153 -15.114786645705234 $154 -0.62570076150516396 $88 $155 forward 7 unknown #
face $-1 $156 $157 $20 $-1 $158 forward single #
loop $-1 $-1 $159 $56 #
plane-surface $-1 0 -8.4959444651103624 9.7715524817009385 0 -1 0 0 0 -1 forward_v I I I I #
coedge $-1 $160 $161 $162 $163 reversed $57 $-1 #
coedge $-1 $95 $59 $164 $165 reversed $37 $-1 #
coedge $-1 $59 $94 $160 $166 reversed $37 $-1 #
coedge $-1 $162 $167 $59 $97 forward $157 $-1 #
edge $-1 $168 -12.833871367424685 $169 -6.8647279466328328 $96 $170 forward 7 unknown #
loop $-1 $-1 $103 $60 #
plane-surface $-1 -8.0828755636024994 -4.960069869292159 77.546427814287014 0.80901700255871778 0 0.5877852410284794 0.5877852410284794 0 -0.80901700255871778 forward_v I I I I #
loop $-1 $-1 $171 $39 #
coedge $-1 $101 $101 $102 $172 reversed $61 $-1 #
coedge $-1 $102 $102 $101 $172 forward $63 $-1 #
coedge $-1 $103 $103 $64 $104 forward $98 $-1 #
edge $-1 $173 0 $173 6.2831853071796004 $103 $174 forward 7 unknown #
face $-1 $175 $176 $22 $-1 $177 forward single #
loop $-1 $-1 $178 $65 #
plane-surface $-1 -126.56888528803034 6.3821949292296498 46.6798060679304 0 -1 0 0.87461971476443456 0 -0.48480960649040278 forward_v I I I I #
coedge $-1 $179 $180 $181 $182 reversed $66 $-1 #
coedge $-1 $110 $68 $183 $184 reversed $43 $-1 #
coedge $-1 $68 $109 $179 $185 reversed $43 $-1 #
coedge $-1 $181 $186 $68 $112 forward $176 $-1 #
edge $-1 $187 17.246660729283889 $188 22.363412163357815 $111 $189 forward 7 unknown #
loop $-1 $-1 $118 $69 #
plane-surface $-1 -46.037781914731312 1.8512522947074324 2.0406882003866897 -0.87461971476443456 0 0.48480960649040278 0.48480960649040278 0 0.87461971476443456 forward_v I I I I #
loop $-1 $-1 $190 $45 #
coedge $-1 $116 $116 $117 $191 reversed $70 $-1 #
coedge $-1 $117 $117 $116 $191 forward $72 $-1 #
coedge $-1 $118 $118 $73 $119 forward $113 $-1 #
edge $-1 $192 0 $192 6.2831853071796004 $118 $193 forward 7 unknown #
face $-1 $194 $195 $18 $-1 $196 reversed single #
loop $-1 $-1 $197 $74 #
plane-surface $-1 -46.037781914731283 0 0 1 0 0 0 0 -1 forward_v I I I I #
coedge $-1 $198 $131 $199 $200 forward $75 $-1 #
coedge $-1 $201 $77 $198 $202 forward $49 $-1 #
coedge $-1 $77 $201 $203 $204 forward $49 $-1 #
coedge $-1 $134 $133 $77 $127 reversed $135 $-1 #
edge $-1 $205 -22.985030349310431 $206 22.985030349310431 $126 $207 forward 7 unknown #
coedge $-1 $79 $78 $208 $209 forward $31 $-1 #
coedge $-1 $210 $211 $78 $130 reversed $195 $-1 #
edge $-1 $137 -46.037781914731283 $212 46.037781914731283 $129 $213 forward 7 unknown #
coedge $-1 $123 $214 $79 $132 reversed $75 $-1 #
edge $-1 $215 -46.037781914731283 $136 46.037781914731283 $131 $216 forward 7 unknown #
coedge $-1 $126 $80 $214 $217 forward $135 $-1 #
coedge $-1 $80 $126 $210 $218 reversed $135 $-1 #
loop $-1 $-1 $133 $194 #
vertex $-1 $81 $219 #
vertex $-1 $81 $220 #
straight-curve $-1 46.037781914731283 0 11.271552481700938 0 1 0 I I #
face $-1 $221 $222 $19 $-1 $223 forward single #
loop $-1 $-1 $148 $82 #
plane-surface $-1 0 -22.985030349310431 0 0 1 0 0 0 1 forward_v I I I I #
coedge $-1 $224 $225 $226 $227 forward $83 $-1 #
coedge $-1 $226 $85 $87 $150 reversed $53 $-1 #
coedge $-1 $85 $226 $228 $229 reversed $53 $-1 #
coedge $-1 $230 $88 $85 $146 forward $152 $-1 #
edge $-1 $154 3.3857762408504692 $231 6.3857762408504692 $145 $232 forward 7 unknown #
coedge $-1 $87 $86 $224 $233 reversed $34 $-1 #
coedge $-1 $234 $235 $86 $149 forward $140 $-1 #
edge $-1 $236 -46.037781914731283 $153 46.037781914731283 $148 $237 forward 7 unknown #
edge $-1 $238 -46.037781914731283 $154 46.037781914731283 $143 $239 forward 7 unknown #
coedge $-1 $88 $230 $234 $240 forward $152 $-1 #
loop $-1 $-1 $145 $221 #
vertex $-1 $149 $241 #
vertex $-1 $89 $242 #
straight-curve $-1 46.037781914731283 -7.8702437036051984 8.2715524817009385 0 1 0 I I #
face $-1 $-1 $243 $20 $-1 $244 reversed single #
loop $-1 $-1 $162 $90 #
plane-surface $-1 0 0 11.271552481700938 0 0 1 1 0 0 forward_v I I I I #
coedge $-1 $245 $246 $161 $247 reversed $91 $-1 #
coedge $-1 $248 $93 $95 $166 forward $57 $-1 #
coedge $-1 $93 $248 $159 $247 forward $57 $-1 #
coedge $-1 $249 $96 $93 $163 forward $157 $-1 #
edge $-1 $169 -1.0558396611721257 $250 6.0159095304642829 $162 $251 forward 7 unknown #
coedge $-1 $252 $253 $94 $165 forward $243 $-1 #
edge $-1 $254 -62.777811490239074 $168 -54.561990164609469 $164 $255 forward 7 unknown #
edge $-1 $169 81.920250282719991 $254 92.075563829462538 $95 $256 forward 7 unknown #
coedge $-1 $96 $249 $252 $257 forward $157 $-1 #
vertex $-1 $165 $258 #
vertex $-1 $97 $259 #
straight-curve $-1 33.203910547306599 -1.4241952734739538 11.271552481700937 -1 0 0 I I #
coedge $-1 $171 $171 $-1 $260 reversed $100 $-1 #
edge $-1 $261 0 $261 6.2831853071796004 $101 $262 forward 7 unknown #
vertex $-1 $104 $263 #
ellipse-curve $-1 43.053210204335343 -4.9600698692921554 7.1636418188861413 0.80901700255871778 0 0.5877852410284794 0.5877852410284794 0 -0.80901700255871778 1 I I #
face $-1 $-1 $264 $22 $-1 $265 reversed single #
loop $-1 $-1 $111 $105 #
plane-surface $-1 0 0 11.271552481700938 0 0 1 1 0 0 forward_v I I I I #
coedge $-1 $266 $267 $268 $269 reversed $106 $-1 #
coedge $-1 $270 $108 $110 $185 forward $66 $-1 #
coedge $-1 $108 $270 $266 $271 forward $66 $-1 #
coedge $-1 $268 $111 $108 $182 forward $176 $-1 #
edge $-1 $188 -3.6053164871685013 $272 5.4565687818759336 $181 $273 forward 7 unknown #
coedge $-1 $274 $275 $109 $184 forward $264 $-1 #
edge $-1 $276 -21.299214833578461 $187 -12.068350552264262 $183 $277 forward 7 unknown #
edge $-1 $188 -10.554146134014875 $276 -5.8446173240376603e-014 $110 $278 forward 7 unknown #
coedge $-1 $111 $268 $274 $279 forward $176 $-1 #
vertex $-1 $184 $280 #
vertex $-1 $112 $281 #
straight-curve $-1 -63.284442644015172 -2.6796903398147851 11.271552481700937 1 0 0 I I #
coedge $-1 $190 $190 $-1 $282 reversed $115 $-1 #
edge $-1 $283 0 $283 6.2831853071796004 $116 $284 forward 7 unknown #
vertex $-1 $119 $285 #
ellipse-curve $-1 -43.479406197694324 1.8512522947074324 6.6561203410438274 -0.87461971476443456 0 0.48480960649040278 0.48480960649040278 0 0.87461971476443456 1 I I #
face $-1 $-1 $135 $18 $-1 $286 reversed single #
loop $-1 $-1 $210 $120 #
plane-surface $-1 0 22.985030349310431 0 0 -1 0 0 0 -1 forward_v I I I I #
coedge $-1 $287 $208 $211 $288 forward $121 $-1 #
coedge $-1 $214 $123 $124 $202 reversed $75 $-1 #
coedge $-1 $208 $287 $123 $200 reversed $121 $-1 #
edge $-1 $215 -11.271552481700938 $289 11.271552481700938 $199 $290 forward 7 unknown #
coedge $-1 $125 $124 $287 $291 forward $49 $-1 #
edge $-1 $206 -46.037781914731283 $289 46.037781914731283 $198 $292 forward 7 unknown #
coedge $-1 $211 $210 $125 $204 reversed $195 $-1 #
edge $-1 $293 -46.037781914731283 $205 46.037781914731283 $203 $294 forward 7 unknown #
vertex $-1 $127 $295 #
vertex $-1 $217 $296 #
straight-curve $-1 46.037781914731283 0 -11.271552481700938 0 -1 0 I I #
coedge $-1 $197 $199 $128 $209 reversed $121 $-1 #
edge $-1 $212 -22.985030349310431 $215 22.985030349310431 $208 $297 forward 7 unknown #
coedge $-1 $203 $129 $134 $218 forward $195 $-1 #
coedge $-1 $129 $203 $197 $288 reversed $195 $-1 #
vertex $-1 $130 $298 #
straight-curve $-1 0 22.985030349310431 11.271552481700938 -1 0 0 I I #
coedge $-1 $131 $198 $133 $217 reversed $75 $-1 #
vertex $-1 $209 $299 #
straight-curve $-1 0 -22.985030349310431 11.271552481700938 1 0 0 I I #
edge $-1 $136 -11.271552481700938 $206 11.271552481700938 $133 $300 forward 7 unknown #
edge $-1 $137 -11.271552481700938 $205 11.271552481700938 $134 $301 forward 7 unknown #
point $-1 46.037781914731283 -22.985030349310431 11.271552481700938 #
point $-1 46.037781914731283 22.985030349310431 11.271552481700938 #
face $-1 $-1 $152 $19 $-1 $302 reversed single #
loop $-1 $-1 $228 $139 #
plane-surface $-1 0 0 11.271552481700938 0 0 1 1 0 0 forward_v I I I I #
coedge $-1 $303 $142 $147 $233 forward $83 $-1 #
coedge $-1 $142 $303 $304 $305 reversed $83 $-1 #
coedge $-1 $144 $143 $142 $227 reversed $53 $-1 #
edge $-1 $306 -6.3857762408504692 $238 -3.3857762408504692 $142 $307 forward 7 unknown #
coedge $-1 $304 $308 $144 $229 forward $222 $-1 #
edge $-1 $231 -46.037781914731283 $306 46.037781914731283 $228 $309 forward 7 unknown #
coedge $-1 $151 $145 $308 $310 reversed $152 $-1 #
vertex $-1 $146 $311 #
straight-curve $-1 46.037781914731283 -8.4959444651103624 4.8857762408504692 0 0 1 I I #
edge $-1 $238 0.62570076150516396 $236 15.114786645705234 $224 $312 forward 7 unknown #
coedge $-1 $313 $148 $151 $240 reversed $140 $-1 #
coedge $-1 $148 $313 $303 $314 forward $140 $-1 #
vertex $-1 $149 $315 #
straight-curve $-1 0 -22.985030349310431 8.2715524817009385 1 0 0 I I #
vertex $-1 $233 $316 #
straight-curve $-1 0 -8.4959444651103624 8.2715524817009385 1 0 0 I I #
edge $-1 $317 -11.271552481700938 $153 -8.2715524817009385 $151 $318 forward 7 unknown #
point $-1 46.037781914731283 -22.985030349310431 8.2715524817009385 #
point $-1 46.037781914731283 -8.4959444651103624 8.2715524817009385 #
loop $-1 $-1 $164 $156 #
plane-surface $-1 46.037781914731283 0 0 -1 0 0 0 0 1 forward_v I I I I #
coedge $-1 $246 $159 $319 $320 reversed $91 $-1 #
coedge $-1 $159 $245 $249 $321 reversed $91 $-1 #
edge $-1 $322 -92.075563829462538 $250 -81.920250282719991 $159 $323 forward 7 unknown #
coedge $-1 $161 $160 $253 $324 reversed $57 $-1 #
coedge $-1 $167 $162 $246 $321 forward $157 $-1 #
vertex $-1 $321 $325 #
straight-curve $-1 40.068638493939424 -2.4800349346460795 11.271552481700937 0 -1 0 I I #
coedge $-1 $319 $164 $167 $257 reversed $243 $-1 #
coedge $-1 $164 $319 $248 $324 forward $243 $-1 #
vertex $-1 $165 $326 #
straight-curve $-1 46.037781914731283 -1.4241952734739538 65.833542646310406 0 0 1 I I #
straight-curve $-1 -8.0828755636024994 -1.4241952734739538 77.546427814287014 0.5877852410284794 0 -0.80901700255871778 I I #
edge $-1 $327 -8.4959444651103624 $168 -1.4241952734739538 $252 $328 forward 7 unknown #
point $-1 46.037781914731283 -1.4241952734739538 11.271552481700938 #
point $-1 40.068638493939432 -1.4241952734739538 11.271552481700937 #
edge $-1 $329 1 $329 0 $171 $-1 forward 7 unknown #
vertex $-1 $172 $330 #
ellipse-curve $-1 40.869306248302571 -4.9600698692921554 5.5769427642063745 0.80901700255871778 0 0.5877852410284794 0.5877852410284794 0 -0.80901700255871778 1 I I #
point $-1 43.640995445363835 -4.9600698692921554 6.354624816327429 #
loop $-1 $-1 $183 $175 #
plane-surface $-1 -46.037781914731283 0 0 1 0 0 0 0 -1 forward_v I I I I #
coedge $-1 $267 $178 $180 $271 reversed $106 $-1 #
coedge $-1 $178 $266 $331 $332 reversed $106 $-1 #
coedge $-1 $186 $181 $178 $269 forward $176 $-1 #
edge $-1 $272 -22.363412163357815 $333 -17.246660729283889 $268 $334 forward 7 unknown #
coedge $-1 $180 $179 $275 $335 reversed $66 $-1 #
edge $-1 $336 5.8446173240376603e-014 $272 10.554146134014875 $266 $337 forward 7 unknown #
vertex $-1 $182 $338 #
straight-curve $-1 -40.921030480657357 0.92562614735371618 11.271552481700938 0 1 0 I I #
coedge $-1 $331 $183 $186 $279 reversed $264 $-1 #
coedge $-1 $183 $331 $270 $335 forward $264 $-1 #
vertex $-1 $184 $339 #
straight-curve $-1 -46.037781914731283 -2.6796903398147851 23.3399030339652 0 0 1 I I #
straight-curve $-1 -46.037781914731312 -2.6796903398147851 2.0406882003866897 -0.48480960649040278 0 -0.87461971476443456 I I #
edge $-1 $333 -6.3821949292296498 $187 2.6796903398147851 $274 $340 forward 7 unknown #
point $-1 -46.037781914731283 -2.6796903398147851 11.271552481700938 #
point $-1 -40.921030480657357 -2.6796903398147851 11.271552481700938 #
edge $-1 $341 1 $341 0 $190 $-1 forward 7 unknown #
vertex $-1 $191 $342 #
ellipse-curve $-1 -41.064119045074612 1.8512522947074324 5.3173048601484885 -0.87461971476443456 0 0.48480960649040278 0.48480960649040278 0 0.87461971476443456 1 I I #
point $-1 -42.994596591203901 1.8512522947074324 7.5307400558082467 #
plane-surface $-1 46.037781914731283 0 0 -1 0 0 0 0 1 forward_v I I I I #
coedge $-1 $199 $197 $201 $291 reversed $121 $-1 #
edge $-1 $212 -11.271552481700938 $293 11.271552481700938 $211 $343 forward 7 unknown #
vertex $-1 $291 $344 #
straight-curve $-1 -46.037781914731283 -22.985030349310431 0 0 0 -1 I I #
edge $-1 $289 -22.985030349310431 $293 22.985030349310431 $287 $345 forward 7 unknown #
straight-curve $-1 0 -22.985030349310431 -11.271552481700938 -1 0 0 I I #
vertex $-1 $204 $346 #
straight-curve $-1 0 22.985030349310431 -11.271552481700938 1 0 0 I I #
point $-1 46.037781914731283 22.985030349310431 -11.271552481700938 #
point $-1 46.037781914731283 -22.985030349310431 -11.271552481700938 #
straight-curve $-1 -46.037781914731283 0 11.271552481700938 0 -1 0 I I #
point $-1 -46.037781914731283 22.985030349310431 11.271552481700938 #
point $-1 -46.037781914731283 -22.985030349310431 11.271552481700938 #
straight-curve $-1 46.037781914731283 -22.985030349310431 0 0 0 -1 I I #
straight-curve $-1 46.037781914731283 22.985030349310431 0 0 0 -1 I I #
plane-surface $-1 46.037781914731283 0 0 -1 0 0 0 0 1 forward_v I I I I #
coedge $-1 $225 $224 $235 $314 reversed $83 $-1 #
coedge $-1 $347 $228 $225 $305 forward $222 $-1 #
edge $-1 $306 8.4959444651103624 $348 22.985030349310431 $225 $349 forward 7 unknown #
vertex $-1 $305 $350 #
straight-curve $-1 -46.037781914731283 -8.4959444651103624 4.8857762408504692 0 0 -1 I I #
coedge $-1 $228 $347 $230 $310 forward $222 $-1 #
straight-curve $-1 0 -8.4959444651103624 11.271552481700938 -1 0 0 I I #
edge $-1 $317 -22.985030349310431 $231 -8.4959444651103624 $230 $351 forward 7 unknown #
point $-1 46.037781914731283 -8.4959444651103624 11.271552481700938 #
straight-curve $-1 -46.037781914731283 -7.8702437036051984 8.2715524817009385 0 -1 0 I I #
coedge $-1 $235 $234 $347 $352 reversed $140 $-1 #
edge $-1 $348 -11.271552481700938 $236 -8.2715524817009385 $303 $353 forward 7 unknown #
point $-1 -46.037781914731283 -22.985030349310431 8.2715524817009385 #
point $-1 -46.037781914731283 -8.4959444651103624 8.2715524817009385 #
vertex $-1 $310 $354 #
straight-curve $-1 46.037781914731283 -22.985030349310431 0 0 0 -1 I I #
coedge $-1 $253 $252 $245 $320 forward $243 $-1 #
edge $-1 $327 54.561990164609469 $322 62.777811490239074 $319 $355 forward 7 unknown #
edge $-1 $250 40.068638493939424 $327 46.037781914731283 $249 $356 forward 7 unknown #
vertex $-1 $320 $357 #
straight-curve $-1 -8.0828755636024994 -8.4959444651103642 77.546427814287014 -0.5877852410284794 0 0.80901700255871778 I I #
edge $-1 $322 -6.0159095304642847 $254 1.0558396611721257 $253 $358 forward 7 unknown #
point $-1 40.068638493939424 -8.4959444651103624 11.271552481700938 #
point $-1 46.037781914731283 -1.4241952734739538 3.0557311560713316 #
vertex $-1 $257 $359 #
straight-curve $-1 46.037781914731283 0 11.271552481700938 0 1 0 I I #
vertex $-1 $260 $360 #
point $-1 41.457091489331049 -4.9600698692921554 4.7679257616476569 #
coedge $-1 $275 $274 $267 $332 forward $264 $-1 #
edge $-1 $333 12.068350552264262 $336 21.299214833578461 $331 $361 forward 7 unknown #
vertex $-1 $279 $362 #
straight-curve $-1 -63.284442644015172 6.3821949292296498 11.271552481700937 -1 0 0 I I #
edge $-1 $336 -5.4565687818759336 $276 3.6053164871685013 $275 $363 forward 7 unknown #
vertex $-1 $335 $364 #
straight-curve $-1 -46.037781914731312 6.3821949292296498 2.0406882003866897 0.48480960649040278 0 0.87461971476443456 I I #
point $-1 -40.921030480657357 6.3821949292296498 11.271552481700938 #
point $-1 -46.037781914731283 -2.6796903398147851 2.0406882003867408 #
straight-curve $-1 -46.037781914731283 0 11.271552481700938 0 -1 0 I I #
vertex $-1 $282 $365 #
point $-1 -40.579309438584211 1.8512522947074324 6.1919245749129228 #
straight-curve $-1 -46.037781914731283 22.985030349310431 0 0 0 -1 I I #
point $-1 -46.037781914731283 -22.985030349310431 -11.271552481700938 #
straight-curve $-1 -46.037781914731283 0 -11.271552481700938 0 1 0 I I #
point $-1 -46.037781914731283 22.985030349310431 -11.271552481700938 #
coedge $-1 $308 $304 $313 $352 forward $222 $-1 #
vertex $-1 $305 $366 #
straight-curve $-1 -46.037781914731283 0 11.271552481700938 0 -1 0 I I #
point $-1 -46.037781914731283 -8.4959444651103624 11.271552481700938 #
straight-curve $-1 46.037781914731283 0 11.271552481700938 0 1 0 I I #
edge $-1 $348 -46.037781914731283 $317 46.037781914731283 $313 $367 forward 7 unknown #
straight-curve $-1 -46.037781914731283 -22.985030349310431 0 0 0 -1 I I #
point $-1 46.037781914731283 -22.985030349310431 11.271552481700938 #
straight-curve $-1 46.037781914731283 -8.4959444651103642 65.833542646310406 0 0 -1 I I #
straight-curve $-1 0 -8.4959444651103624 11.271552481700938 1 0 0 I I #
point $-1 46.037781914731283 -8.4959444651103642 3.0557311560713316 #
straight-curve $-1 46.037781914731283 -2.4800349346460795 3.0557311560713316 0 1 0 I I #
point $-1 46.037781914731283 -8.4959444651103624 11.271552481700938 #
point $-1 40.060289245743853 -4.9600698692921554 4.9891575231778953 #
straight-curve $-1 -46.037781914731283 6.3821949292296498 23.3399030339652 0 0 -1 I I #
point $-1 -46.037781914731283 6.3821949292296498 11.271552481700938 #
straight-curve $-1 -46.037781914731283 0.92562614735371618 2.0406882003867381 0 -1 0 I I #
point $-1 -46.037781914731283 6.3821949292296498 2.0406882003867408 #
point $-1 -40.189499330310177 1.8512522947074324 4.8324952536580854 #
point $-1 -46.037781914731283 -22.985030349310431 11.271552481700938 #
straight-curve $-1 0 -22.985030349310431 11.271552481700938 1 0 0 I I #
End-of-ACIS-data 