500 0 10 0           
7 Unknown 11 ACIS 5.0 NT 24 Thu Mar 25 17:38:29 1999 
-1 9.9999999999999995e-007 1e-010 
body $-1 $10 $-1 $11 #
body $-1 $12 $-1 $13 #
body $-1 $14 $-1 $15 #
body $-1 $16 $-1 $17 #
body $-1 $18 $-1 $19 #
body $-1 $20 $-1 $21 #
body $-1 $22 $-1 $23 #
body $-1 $24 $-1 $25 #
body $-1 $26 $-1 $27 #
body $-1 $28 $-1 $29 #
lump $-1 $-1 $30 $0 #
transform $-1 1 0 0 0 1 0 0 0 1 44.942777794732507 22.488945205718331 10.295897171210759 1 rotate no_reflect no_shear #
lump $-1 $-1 $31 $1 #
transform $-1 1 0 0 0 1 0 0 0 1 44.942777794732507 22.488945205718331 10.295897171210759 1 rotate no_reflect no_shear #
lump $-1 $-1 $32 $2 #
transform $-1 1 0 0 0 1 0 0 0 1 44.942777794732507 22.488945205718331 10.295897171210759 1 rotate no_reflect no_shear #
lump $-1 $-1 $33 $3 #
transform $-1 1 0 0 0 1 0 0 0 1 44.942777794732507 22.488945205718331 10.295897171210759 1 rotate no_reflect no_shear #
lump $-1 $-1 $34 $4 #
transform $-1 1 0 0 0 1 0 0 0 1 44.942777794732507 22.488945205718331 10.295897171210759 1 rotate no_reflect no_shear #
lump $-1 $-1 $35 $5 #
transform $-1 1 0 0 0 1 0 0 0 1 44.942777794732507 22.488945205718331 10.295897171210759 1 rotate no_reflect no_shear #
lump $-1 $-1 $36 $6 #
transform $-1 1 0 0 0 1 0 0 0 1 44.942777794732507 22.488945205718331 10.295897171210759 1 rotate no_reflect no_shear #
lump $-1 $-1 $37 $7 #
transform $-1 1 0 0 0 1 0 0 0 1 44.942777794732507 22.488945205718331 10.295897171210759 1 rotate no_reflect no_shear #
lump $-1 $-1 $38 $8 #
transform $-1 1 0 0 0 1 0 0 0 1 44.942777794732507 22.488945205718331 10.295897171210759 1 rotate no_reflect no_shear #
lump $-1 $-1 $39 $9 #
transform $-1 1 0 0 0 1 0 0 0 1 44.942777794732507 22.488945205718331 10.295897171210759 1 rotate no_reflect no_shear #
shell $-1 $-1 $-1 $40 $-1 $10 #
shell $-1 $-1 $-1 $41 $-1 $12 #
shell $-1 $-1 $-1 $42 $-1 $14 #
shell $-1 $-1 $-1 $43 $-1 $16 #
shell $-1 $-1 $-1 $44 $-1 $18 #
shell $-1 $-1 $-1 $45 $-1 $20 #
shell $-1 $-1 $-1 $46 $-1 $22 #
shell $-1 $-1 $-1 $47 $-1 $24 #
shell $-1 $-1 $-1 $48 $-1 $26 #
shell $-1 $-1 $-1 $49 $-1 $28 #
face $-1 $50 $51 $30 $-1 $52 forward single #
face $-1 $53 $54 $31 $-1 $55 reversed single #
face $-1 $56 $57 $32 $-1 $58 reversed single #
face $-1 $59 $60 $33 $-1 $61 reversed single #
face $-1 $62 $63 $34 $-1 $64 forward single #
face $-1 $65 $66 $35 $-1 $67 forward single #
face $-1 $68 $69 $36 $-1 $70 reversed single #
face $-1 $71 $72 $37 $-1 $73 forward single #
face $-1 $74 $75 $38 $-1 $76 forward single #
face $-1 $77 $78 $39 $-1 $79 forward single #
face $-1 $80 $81 $30 $-1 $82 reversed single #
loop $-1 $-1 $83 $40 #
plane-surface $-1 0 0 10.295897171210759 0 0 1 1 0 0 forward_v I I I I #
face $-1 $84 $85 $31 $-1 $86 reversed single #
loop $-1 $-1 $87 $41 #
plane-surface $-1 -41.326758284950138 -7.8282185785084586 0 0 1 0 0 0 1 forward_v I I I I #
face $-1 $88 $89 $32 $-1 $90 reversed single #
loop $-1 $-1 $91 $42 #
plane-surface $-1 38.659512282308214 0 6.0383408648515733 0 0 1 1 0 0 forward_v I I I I #
face $-1 $92 $93 $33 $-1 $94 reversed single #
loop $-1 $-1 $95 $43 #
plane-surface $-1 -15.517926048221552 59.190848801473756 95.029798070498543 1 0 0 0 -0.74314483375859142 -0.66913059716165679 forward_v I I I I #
face $-1 $96 $97 $34 $-1 $98 forward single #
loop $-1 $99 $100 $44 #
cone-surface $-1 -12.433131878688982 17.575930050975693 5.0359580218778861 0 -0.74314483375859142 -0.66913059716165679 1 0 0 1 I I 0 1 1 forward I I I I #
face $-1 $101 $102 $35 $-1 $103 forward single #
loop $-1 $104 $105 $45 #
cone-surface $-1 -7.8059406243901321 17.575930050975693 5.0359580218778861 0 -0.74314483375859142 -0.66913059716165679 1 0 0 1 I I 0 1 1 forward I I I I #
face $-1 $106 $107 $36 $-1 $108 reversed single #
loop $-1 $-1 $109 $46 #
plane-surface $-1 -25.895818823533443 -76.583423608654527 72.731877962675995 -1 0 0 0 -0.6018150307709319 0.79863550430605224 forward_v I I I I #
face $-1 $110 $111 $37 $-1 $112 forward single #
loop $-1 $113 $114 $47 #
cone-surface $-1 -35.347754784840902 -15.8344975926824 5.0229756697284298 0 0.6018150307709319 -0.79863550430605224 0.5 0 0 1 I I 0 1 0.5 forward I I I I #
face $-1 $115 $116 $38 $-1 $117 forward single #
loop $-1 $118 $119 $48 #
cone-surface $-1 -31.803278799350608 -15.8344975926824 5.0229756697284298 0 0.6018150307709319 -0.79863550430605224 0.5 0 0 1 I I 0 1 0.5 forward I I I I #
face $-1 $120 $121 $39 $-1 $122 forward single #
loop $-1 $123 $124 $49 #
cone-surface $-1 -28.25880281386031 -15.8344975926824 5.0229756697284298 0 0.6018150307709319 -0.79863550430605224 0.5 0 0 1 I I 0 1 0.5 forward I I I I #
face $-1 $125 $126 $30 $-1 $127 reversed single #
loop $-1 $-1 $128 $50 #
plane-surface $-1 0 0 -10.295897171210759 0 0 1 1 0 0 forward_v I I I I #
coedge $-1 $129 $130 $131 $132 forward $51 $-1 #
face $-1 $133 $134 $31 $-1 $135 reversed single #
loop $-1 $-1 $136 $53 #
plane-surface $-1 -41.326758284950138 -1.8971508632968117 0 0 -1 0 0 0 -1 forward_v I I I I #
coedge $-1 $137 $138 $139 $140 reversed $54 $-1 #
face $-1 $141 $142 $32 $-1 $143 reversed single #
loop $-1 $-1 $144 $56 #
plane-surface $-1 32.37624676988392 0 8.1671190180311672 1 0 0 0 0 -1 forward_v I I I I #
coedge $-1 $145 $146 $147 $148 reversed $57 $-1 #
face $-1 $149 $150 $33 $-1 $151 reversed single #
loop $-1 $-1 $152 $59 #
plane-surface $-1 -10.119536251539564 -7.6071374643578551 34.884622582712524 0 0.74314483375859142 0.66913059716165679 1 0 0 forward_v I I I I #
coedge $-1 $153 $154 $155 $156 reversed $60 $-1 #
face $-1 $-1 $157 $34 $-1 $158 forward single #
loop $-1 $159 $160 $62 #
cone-surface $-1 -12.433131878688982 16.269490187581731 3.859634314522923 0 -0.74314483375859142 -0.66913059716165679 0.5 0 0 1 I I -0.70710678118654746 0.70710678118654746 0.5 forward I I I I #
loop $-1 $-1 $161 $44 #
coedge $-1 $100 $100 $162 $163 reversed $63 $-1 #
face $-1 $-1 $164 $35 $-1 $165 forward single #
loop $-1 $166 $167 $65 #
cone-surface $-1 -7.8059406243901321 16.269490187581731 3.859634314522923 0 -0.74314483375859142 -0.66913059716165679 0.5 0 0 1 I I -0.70710678118654746 0.70710678118654746 0.5 forward I I I I #
loop $-1 $-1 $168 $45 #
coedge $-1 $105 $105 $169 $170 reversed $66 $-1 #
face $-1 $171 $172 $36 $-1 $173 reversed single #
loop $-1 $-1 $174 $68 #
plane-surface $-1 -31.803278799350608 -22.488945205718331 0.94608194465391193 0 -0.6018150307709319 0.79863550430605224 1 0 0 forward_v I I I I #
coedge $-1 $175 $176 $177 $178 reversed $69 $-1 #
face $-1 $-1 $179 $37 $-1 $180 forward single #
loop $-1 $181 $182 $71 #
cone-surface $-1 -35.347754784840902 -15.233408038571383 4.2253029054480162 0 0.6018150307709319 -0.79863550430605224 0.25 0 0 1 I I -0.70710678118654746 0.70710678118654746 0.25 forward I I I I #
loop $-1 $-1 $183 $47 #
coedge $-1 $114 $114 $184 $185 reversed $72 $-1 #
face $-1 $-1 $186 $38 $-1 $187 forward single #
loop $-1 $188 $189 $74 #
cone-surface $-1 -31.803278799350608 -15.233408038571383 4.2253029054480162 0 0.6018150307709319 -0.79863550430605224 0.25 0 0 1 I I -0.70710678118654746 0.70710678118654746 0.25 forward I I I I #
loop $-1 $-1 $190 $48 #
coedge $-1 $119 $119 $191 $192 reversed $75 $-1 #
face $-1 $-1 $193 $39 $-1 $194 forward single #
loop $-1 $195 $196 $77 #
cone-surface $-1 -28.25880281386031 -15.233408038571383 4.2253029054480162 0 0.6018150307709319 -0.79863550430605224 0.25 0 0 1 I I -0.70710678118654746 0.70710678118654746 0.25 forward I I I I #
loop $-1 $-1 $197 $49 #
coedge $-1 $124 $124 $198 $199 reversed $78 $-1 #
face $-1 $200 $201 $30 $-1 $202 reversed single #
loop $-1 $-1 $203 $80 #
plane-surface $-1 0 -22.488945205718331 0 0 1 0 0 0 1 forward_v I I I I #
coedge $-1 $204 $205 $206 $207 forward $81 $-1 #
coedge $-1 $208 $83 $209 $210 forward $51 $-1 #
coedge $-1 $83 $208 $211 $212 forward $51 $-1 #
coedge $-1 $213 $214 $83 $132 reversed $215 $-1 #
edge $-1 $216 -22.488945205718331 $217 22.488945205718331 $131 $218 forward 7 unknown #
face $-1 $219 $220 $31 $-1 $221 reversed single #
loop $-1 $-1 $222 $84 #
plane-surface $-1 -37.710738775167769 -4.8626847209026351 0 -1 0 0 0 0 1 forward_v I I I I #
coedge $-1 $223 $224 $225 $226 forward $85 $-1 #
coedge $-1 $227 $87 $228 $229 reversed $54 $-1 #
coedge $-1 $87 $227 $230 $231 reversed $54 $-1 #
coedge $-1 $232 $233 $87 $140 forward $234 $-1 #
edge $-1 $235 -10.295897171210759 $236 10.295897171210759 $139 $237 forward 7 unknown #
face $-1 $238 $239 $32 $-1 $240 reversed single #
loop $-1 $-1 $241 $88 #
plane-surface $-1 0 -22.488945205718331 0 0 1 0 0 0 1 forward_v I I I I #
coedge $-1 $242 $243 $244 $245 reversed $89 $-1 #
coedge $-1 $246 $91 $247 $248 reversed $57 $-1 #
coedge $-1 $91 $246 $249 $250 reversed $57 $-1 #
coedge $-1 $251 $252 $91 $148 forward $239 $-1 #
edge $-1 $253 -22.488945205718331 $254 22.488945205718331 $147 $255 forward 7 unknown #
face $-1 $256 $257 $33 $-1 $258 reversed single #
loop $-1 $-1 $259 $92 #
plane-surface $-1 -4.7211464548575766 59.190848801473756 95.029798070498543 -1 0 0 0 0.74314483375859142 0.66913059716165679 forward_v I I I I #
coedge $-1 $260 $261 $262 $263 reversed $93 $-1 #
coedge $-1 $154 $95 $264 $265 reversed $60 $-1 #
coedge $-1 $95 $153 $260 $266 reversed $60 $-1 #
coedge $-1 $262 $267 $95 $156 forward $268 $-1 #
edge $-1 $269 7.1064791950185473 $270 15.062774611474513 $155 $271 forward 7 unknown #
loop $-1 $-1 $162 $96 #
plane-surface $-1 -10.119536251539564 -7.6071374643578551 34.884622582712524 0 0.74314483375859142 0.66913059716165679 1 0 0 forward_v I I I I #
loop $-1 $-1 $272 $62 #
coedge $-1 $160 $160 $161 $273 reversed $97 $-1 #
coedge $-1 $161 $161 $160 $273 forward $99 $-1 #
coedge $-1 $162 $162 $100 $163 forward $157 $-1 #
edge $-1 $274 -5.2590278156781236e-016 $274 6.2831853071795996 $162 $275 forward 7 unknown #
loop $-1 $-1 $169 $101 #
plane-surface $-1 -10.119536251539564 -7.6071374643578551 34.884622582712524 0 0.74314483375859142 0.66913059716165679 1 0 0 forward_v I I I I #
loop $-1 $-1 $276 $65 #
coedge $-1 $167 $167 $168 $277 reversed $102 $-1 #
coedge $-1 $168 $168 $167 $277 forward $104 $-1 #
coedge $-1 $169 $169 $105 $170 forward $164 $-1 #
edge $-1 $278 -5.2590278156781236e-016 $278 6.2831853071795996 $169 $279 forward 7 unknown #
face $-1 $280 $281 $36 $-1 $282 forward single #
loop $-1 $-1 $283 $106 #
plane-surface $-1 -37.710738775167769 -76.583423608654527 72.731877962675995 1 0 0 0 0.6018150307709319 -0.79863550430605224 forward_v I I I I #
coedge $-1 $284 $285 $286 $287 reversed $107 $-1 #
coedge $-1 $176 $109 $288 $289 reversed $69 $-1 #
coedge $-1 $109 $175 $284 $290 reversed $69 $-1 #
coedge $-1 $286 $291 $109 $178 forward $281 $-1 #
edge $-1 $292 15.802766598608933 $293 28.210390231844215 $177 $294 forward 7 unknown #
loop $-1 $-1 $184 $110 #
plane-surface $-1 -31.803278799350608 -22.488945205718331 0.94608194465391193 0 -0.6018150307709319 0.79863550430605224 1 0 0 forward_v I I I I #
loop $-1 $-1 $295 $71 #
coedge $-1 $182 $182 $183 $296 reversed $111 $-1 #
coedge $-1 $183 $183 $182 $296 forward $113 $-1 #
coedge $-1 $184 $184 $114 $185 forward $179 $-1 #
edge $-1 $297 4.9350636463124897e-015 $297 6.2831853071796058 $184 $298 forward 7 unknown #
loop $-1 $-1 $191 $115 #
plane-surface $-1 -31.803278799350608 -22.488945205718331 0.94608194465391193 0 -0.6018150307709319 0.79863550430605224 1 0 0 forward_v I I I I #
loop $-1 $-1 $299 $74 #
coedge $-1 $189 $189 $190 $300 reversed $116 $-1 #
coedge $-1 $190 $190 $189 $300 forward $118 $-1 #
coedge $-1 $191 $191 $119 $192 forward $186 $-1 #
edge $-1 $301 4.9350636463124897e-015 $301 6.2831853071796058 $191 $302 forward 7 unknown #
loop $-1 $-1 $198 $120 #
plane-surface $-1 -31.803278799350608 -22.488945205718331 0.94608194465391193 0 -0.6018150307709319 0.79863550430605224 1 0 0 forward_v I I I I #
loop $-1 $-1 $303 $77 #
coedge $-1 $196 $196 $197 $304 reversed $121 $-1 #
coedge $-1 $197 $197 $196 $304 forward $123 $-1 #
coedge $-1 $198 $198 $124 $199 forward $193 $-1 #
edge $-1 $305 4.9350636463124897e-015 $305 6.2831853071796058 $198 $306 forward 7 unknown #
face $-1 $307 $308 $30 $-1 $309 reversed single #
loop $-1 $-1 $310 $125 #
plane-surface $-1 -44.942777794732507 0 0 1 0 0 0 0 -1 forward_v I I I I #
coedge $-1 $311 $211 $312 $313 forward $126 $-1 #
coedge $-1 $314 $128 $311 $315 forward $81 $-1 #
coedge $-1 $128 $314 $316 $317 forward $81 $-1 #
coedge $-1 $214 $213 $128 $207 reversed $215 $-1 #
edge $-1 $318 -22.488945205718331 $319 22.488945205718331 $206 $320 forward 7 unknown #
coedge $-1 $130 $129 $321 $322 forward $51 $-1 #
coedge $-1 $323 $324 $129 $210 reversed $308 $-1 #
edge $-1 $217 -44.942777794732507 $325 44.942777794732507 $209 $326 forward 7 unknown #
coedge $-1 $203 $327 $130 $212 reversed $126 $-1 #
edge $-1 $328 -44.942777794732507 $216 44.942777794732507 $211 $329 forward 7 unknown #
coedge $-1 $206 $131 $327 $330 forward $215 $-1 #
coedge $-1 $131 $206 $323 $331 reversed $215 $-1 #
loop $-1 $-1 $213 $307 #
vertex $-1 $132 $332 #
vertex $-1 $132 $333 #
straight-curve $-1 44.942777794732507 0 10.295897171210759 0 1 0 I I #
face $-1 $334 $335 $31 $-1 $336 forward single #
loop $-1 $-1 $337 $133 #
plane-surface $-1 0 0 -10.295897171210759 0 0 1 1 0 0 forward_v I I I I #
coedge $-1 $338 $339 $227 $340 forward $134 $-1 #
coedge $-1 $341 $136 $337 $342 reversed $85 $-1 #
coedge $-1 $136 $341 $343 $344 reversed $85 $-1 #
coedge $-1 $339 $338 $136 $226 reversed $134 $-1 #
edge $-1 $345 -10.295897171210759 $346 10.295897171210759 $225 $347 forward 7 unknown #
coedge $-1 $138 $137 $222 $340 reversed $54 $-1 #
coedge $-1 $348 $349 $137 $229 forward $220 $-1 #
edge $-1 $350 17.0473596326927 $235 24.279398652257438 $228 $351 forward 7 unknown #
coedge $-1 $352 $353 $138 $231 forward $335 $-1 #
edge $-1 $236 -24.279398652257438 $354 -17.0473596326927 $230 $355 forward 7 unknown #
coedge $-1 $356 $139 $353 $357 reversed $234 $-1 #
coedge $-1 $139 $356 $348 $358 reversed $234 $-1 #
loop $-1 $-1 $356 $334 #
vertex $-1 $358 $359 #
vertex $-1 $140 $360 #
straight-curve $-1 -44.942777794732507 -7.8282185785084586 0 0 0 1 I I #
face $-1 $361 $362 $32 $-1 $363 forward single #
loop $-1 $-1 $147 $141 #
plane-surface $-1 44.942777794732507 0 0 -1 0 0 0 0 1 forward_v I I I I #
coedge $-1 $247 $364 $365 $366 forward $142 $-1 #
coedge $-1 $365 $144 $246 $367 reversed $89 $-1 #
coedge $-1 $144 $365 $368 $369 reversed $89 $-1 #
coedge $-1 $370 $249 $144 $245 forward $371 $-1 #
edge $-1 $372 1.9547813558359897 $373 6.2123376621951776 $244 $374 forward 7 unknown #
coedge $-1 $146 $145 $242 $367 forward $57 $-1 #
coedge $-1 $375 $241 $145 $248 forward $142 $-1 #
edge $-1 $376 13.046490628729813 $253 25.6130216535784 $247 $377 forward 7 unknown #
coedge $-1 $244 $378 $146 $250 forward $371 $-1 #
edge $-1 $254 -25.6130216535784 $372 -13.046490628729813 $249 $379 forward 7 unknown #
coedge $-1 $380 $147 $378 $381 reversed $239 $-1 #
coedge $-1 $147 $380 $375 $382 forward $239 $-1 #
vertex $-1 $148 $383 #
vertex $-1 $148 $384 #
straight-curve $-1 44.942777794732507 0 6.0383408648515733 0 1 0 I I #
face $-1 $-1 $268 $33 $-1 $385 forward single #
loop $-1 $-1 $386 $149 #
plane-surface $-1 0 22.488945205718331 0 0 -1 0 0 0 -1 forward_v I I I I #
coedge $-1 $387 $388 $389 $390 reversed $150 $-1 #
coedge $-1 $391 $152 $154 $266 forward $93 $-1 #
coedge $-1 $152 $391 $387 $392 forward $93 $-1 #
coedge $-1 $389 $155 $152 $263 forward $268 $-1 #
edge $-1 $270 -10.45815792245177 $393 0.33862167091220563 $262 $394 forward 7 unknown #
coedge $-1 $395 $396 $153 $265 forward $257 $-1 #
edge $-1 $397 -46.055363345156003 $269 -37.219001864038511 $264 $398 forward 7 unknown #
edge $-1 $270 33.087393324313069 $397 44.977890411436675 $154 $399 forward 7 unknown #
coedge $-1 $155 $389 $395 $400 forward $268 $-1 #
loop $-1 $-1 $389 $256 #
vertex $-1 $265 $401 #
vertex $-1 $156 $402 #
straight-curve $-1 -15.517926048221552 29.595424400736878 10.295897171210761 0 -1 0 I I #
coedge $-1 $272 $272 $-1 $403 reversed $159 $-1 #
edge $-1 $404 0 $404 6.2831853071796004 $160 $405 forward 7 unknown #
vertex $-1 $163 $406 #
ellipse-curve $-1 -12.433131878688982 18.510797497490348 5.8777164306520131 0 0.74314483375859142 0.66913059716165679 1 0 0 1 I I #
coedge $-1 $276 $276 $-1 $407 reversed $166 $-1 #
edge $-1 $408 0 $408 6.2831853071796004 $167 $409 forward 7 unknown #
vertex $-1 $170 $410 #
ellipse-curve $-1 -7.8059406243901321 18.510797497490348 5.8777164306520131 0 0.74314483375859142 0.66913059716165679 1 0 0 1 I I #
face $-1 $-1 $411 $36 $-1 $412 reversed single #
loop $-1 $-1 $177 $171 #
plane-surface $-1 0 0 10.295897171210759 0 0 1 1 0 0 forward_v I I I I #
coedge $-1 $413 $414 $415 $416 reversed $172 $-1 #
coedge $-1 $417 $174 $176 $290 forward $107 $-1 #
coedge $-1 $174 $417 $413 $418 forward $107 $-1 #
coedge $-1 $415 $177 $174 $287 forward $281 $-1 #
edge $-1 $293 9.9941794238581387 $419 21.809099375492465 $286 $420 forward 7 unknown #
coedge $-1 $421 $422 $175 $289 forward $411 $-1 #
edge $-1 $423 -35.419857036684085 $292 -26.070041810127236 $288 $424 forward 7 unknown #
edge $-1 $293 -15.53602809584139 $423 0 $176 $425 forward 7 unknown #
coedge $-1 $177 $415 $421 $426 forward $281 $-1 #
vertex $-1 $289 $427 #
vertex $-1 $178 $428 #
straight-curve $-1 -25.895818823533443 -38.291711804327264 10.295897171210761 0 1 0 I I #
coedge $-1 $295 $295 $-1 $429 reversed $181 $-1 #
edge $-1 $430 0 $430 6.2831853071796004 $182 $431 forward 7 unknown #
vertex $-1 $185 $432 #
ellipse-curve $-1 -35.347754784840902 -16.28513338910069 5.6209895579323366 0 -0.6018150307709319 0.79863550430605224 0.5 0 0 1 I I #
coedge $-1 $299 $299 $-1 $433 reversed $188 $-1 #
edge $-1 $434 0 $434 6.2831853071796004 $189 $435 forward 7 unknown #
vertex $-1 $192 $436 #
ellipse-curve $-1 -31.803278799350608 -16.28513338910069 5.6209895579323366 0 -0.6018150307709319 0.79863550430605224 0.5 0 0 1 I I #
coedge $-1 $303 $303 $-1 $437 reversed $195 $-1 #
edge $-1 $438 0 $438 6.2831853071796004 $196 $439 forward 7 unknown #
vertex $-1 $199 $440 #
ellipse-curve $-1 -28.25880281386031 -16.28513338910069 5.6209895579323366 0 -0.6018150307709319 0.79863550430605224 0.5 0 0 1 I I #
face $-1 $-1 $215 $30 $-1 $441 reversed single #
loop $-1 $-1 $323 $200 #
plane-surface $-1 0 22.488945205718331 0 0 -1 0 0 0 -1 forward_v I I I I #
coedge $-1 $442 $321 $324 $443 forward $201 $-1 #
coedge $-1 $327 $203 $204 $315 reversed $126 $-1 #
coedge $-1 $321 $442 $203 $313 reversed $201 $-1 #
edge $-1 $328 -10.295897171210759 $444 10.295897171210759 $312 $445 forward 7 unknown #
coedge $-1 $205 $204 $442 $446 forward $81 $-1 #
edge $-1 $319 -44.942777794732507 $444 44.942777794732507 $311 $447 forward 7 unknown #
coedge $-1 $324 $323 $205 $317 reversed $308 $-1 #
edge $-1 $448 -44.942777794732507 $318 44.942777794732507 $316 $449 forward 7 unknown #
vertex $-1 $207 $450 #
vertex $-1 $330 $451 #
straight-curve $-1 44.942777794732507 0 -10.295897171210759 0 -1 0 I I #
coedge $-1 $310 $312 $208 $322 reversed $201 $-1 #
edge $-1 $325 -22.488945205718331 $328 22.488945205718331 $321 $452 forward 7 unknown #
coedge $-1 $316 $209 $214 $331 forward $308 $-1 #
coedge $-1 $209 $316 $310 $443 reversed $308 $-1 #
vertex $-1 $210 $453 #
straight-curve $-1 0 22.488945205718331 10.295897171210759 -1 0 0 I I #
coedge $-1 $211 $311 $213 $330 reversed $126 $-1 #
vertex $-1 $322 $454 #
straight-curve $-1 0 -22.488945205718331 10.295897171210759 1 0 0 I I #
edge $-1 $216 -10.295897171210759 $319 10.295897171210759 $213 $455 forward 7 unknown #
edge $-1 $217 -10.295897171210759 $318 10.295897171210759 $214 $456 forward 7 unknown #
point $-1 44.942777794732507 -22.488945205718331 10.295897171210759 #
point $-1 44.942777794732507 22.488945205718331 10.295897171210759 #
face $-1 $-1 $234 $31 $-1 $457 reversed single #
loop $-1 $-1 $343 $219 #
plane-surface $-1 0 0 10.295897171210759 0 0 1 1 0 0 forward_v I I I I #
coedge $-1 $349 $348 $223 $342 forward $220 $-1 #
coedge $-1 $225 $222 $349 $458 reversed $134 $-1 #
coedge $-1 $222 $225 $352 $459 reversed $134 $-1 #
edge $-1 $354 -10.295897171210759 $350 10.295897171210759 $222 $460 forward 7 unknown #
coedge $-1 $224 $223 $356 $461 reversed $85 $-1 #
edge $-1 $462 -24.279398652257438 $346 -17.0473596326927 $337 $463 forward 7 unknown #
coedge $-1 $353 $352 $224 $344 forward $335 $-1 #
edge $-1 $345 17.0473596326927 $464 24.279398652257438 $343 $465 forward 7 unknown #
vertex $-1 $344 $466 #
vertex $-1 $342 $467 #
straight-curve $-1 -37.710738775167769 -1.8971508632968117 0 0 0 -1 I I #
coedge $-1 $337 $228 $233 $358 forward $220 $-1 #
coedge $-1 $228 $337 $338 $458 forward $220 $-1 #
vertex $-1 $229 $468 #
straight-curve $-1 -20.663379142475069 -7.8282185785084586 -10.295897171210759 -1 0 0 I I #
coedge $-1 $343 $230 $339 $459 forward $335 $-1 #
coedge $-1 $230 $343 $232 $357 forward $335 $-1 #
vertex $-1 $231 $469 #
straight-curve $-1 -20.663379142475069 -7.8282185785084586 10.295897171210759 1 0 0 I I #
coedge $-1 $233 $232 $341 $461 forward $234 $-1 #
edge $-1 $464 1.8971508632968117 $236 7.8282185785084586 $232 $470 forward 7 unknown #
edge $-1 $235 -7.8282185785084586 $462 -1.8971508632968117 $233 $471 forward 7 unknown #
point $-1 -44.942777794732507 -7.8282185785084586 -10.295897171210759 #
point $-1 -44.942777794732507 -7.8282185785084586 10.295897171210759 #
face $-1 $-1 $371 $32 $-1 $472 reversed single #
loop $-1 $-1 $368 $238 #
plane-surface $-1 0 0 10.295897171210759 0 0 1 1 0 0 forward_v I I I I #
coedge $-1 $241 $375 $473 $474 reversed $142 $-1 #
coedge $-1 $243 $242 $241 $366 reversed $89 $-1 #
edge $-1 $475 -6.2123376621951776 $376 -1.9547813558359897 $241 $476 forward 7 unknown #
edge $-1 $376 -22.488945205718331 $372 22.488945205718331 $242 $477 forward 7 unknown #
coedge $-1 $473 $478 $243 $369 forward $362 $-1 #
edge $-1 $373 -22.488945205718331 $475 22.488945205718331 $368 $479 forward 7 unknown #
coedge $-1 $378 $244 $478 $480 reversed $371 $-1 #
loop $-1 $-1 $244 $361 #
vertex $-1 $250 $481 #
vertex $-1 $245 $482 #
straight-curve $-1 32.37624676988392 22.488945205718331 4.0835595090155836 0 0 1 I I #
coedge $-1 $364 $247 $252 $382 reversed $142 $-1 #
vertex $-1 $248 $483 #
straight-curve $-1 19.329756141154107 -22.488945205718331 6.0383408648515733 1 0 0 I I #
coedge $-1 $249 $370 $251 $381 forward $371 $-1 #
straight-curve $-1 19.329756141154107 22.488945205718331 6.0383408648515733 -1 0 0 I I #
coedge $-1 $252 $251 $484 $485 reversed $239 $-1 #
edge $-1 $486 -10.295897171210759 $254 -6.0383408648515733 $251 $487 forward 7 unknown #
edge $-1 $488 -10.295897171210759 $253 -6.0383408648515733 $252 $489 forward 7 unknown #
point $-1 44.942777794732507 -22.488945205718331 6.0383408648515733 #
point $-1 44.942777794732507 22.488945205718331 6.0383408648515733 #
plane-surface $-1 0 0 10.295897171210759 0 0 1 1 0 0 forward_v I I I I #
coedge $-1 $396 $395 $388 $490 forward $257 $-1 #
coedge $-1 $388 $259 $261 $392 reversed $150 $-1 #
coedge $-1 $259 $387 $386 $490 reversed $150 $-1 #
coedge $-1 $267 $262 $259 $390 forward $268 $-1 #
edge $-1 $393 -15.062774611474513 $491 -7.1064791950185473 $389 $492 forward 7 unknown #
coedge $-1 $261 $260 $396 $493 reversed $93 $-1 #
edge $-1 $494 -44.977890411436675 $393 -33.087393324313069 $387 $495 forward 7 unknown #
vertex $-1 $263 $496 #
straight-curve $-1 -5.0597681257697822 14.532649789262369 10.295897171210758 1 0 0 I I #
coedge $-1 $386 $264 $267 $400 reversed $257 $-1 #
coedge $-1 $264 $386 $391 $493 forward $257 $-1 #
vertex $-1 $265 $497 #
straight-curve $-1 -15.517926048221552 22.488945205718331 47.514899035249272 0 0 1 I I #
straight-curve $-1 -15.517926048221552 -7.6071374643578551 34.884622582712524 0 0.66913059716165679 -0.74314483375859142 I I #
edge $-1 $491 4.7211464548575766 $269 15.517926048221552 $395 $498 forward 7 unknown #
point $-1 -15.517926048221552 22.488945205718331 10.295897171210759 #
point $-1 -15.517926048221552 14.532649789262365 10.295897171210761 #
edge $-1 $499 1 $499 0 $272 $-1 forward 7 unknown #
vertex $-1 $273 $500 #
ellipse-curve $-1 -12.433131878688982 16.641062604461027 4.1941996131037511 0 0.74314483375859142 0.66913059716165679 1 0 0 1 I I #
point $-1 -11.433131878688982 18.510797497490355 5.8777164306520202 #
edge $-1 $501 1 $501 0 $276 $-1 forward 7 unknown #
vertex $-1 $277 $502 #
ellipse-curve $-1 -7.8059406243901321 16.641062604461027 4.1941996131037511 0 0.74314483375859142 0.66913059716165679 1 0 0 1 I I #
point $-1 -6.8059406243901321 18.510797497490355 5.8777164306520202 #
loop $-1 $-1 $288 $280 #
plane-surface $-1 0 -22.488945205718331 0 0 1 0 0 0 1 forward_v I I I I #
coedge $-1 $414 $283 $285 $418 reversed $172 $-1 #
coedge $-1 $283 $413 $503 $504 reversed $172 $-1 #
coedge $-1 $291 $286 $283 $416 forward $281 $-1 #
edge $-1 $419 -28.210390231844215 $505 -15.802766598608933 $415 $506 forward 7 unknown #
coedge $-1 $285 $284 $422 $507 reversed $107 $-1 #
edge $-1 $508 0 $419 15.53602809584139 $413 $509 forward 7 unknown #
vertex $-1 $287 $510 #
straight-curve $-1 -15.901639399675304 -10.081321572483048 10.295897171210759 -1 0 0 I I #
coedge $-1 $503 $288 $291 $426 reversed $411 $-1 #
coedge $-1 $288 $503 $417 $507 forward $411 $-1 #
vertex $-1 $289 $511 #
straight-curve $-1 -25.895818823533443 -22.488945205718331 36.365938981337997 0 0 1 I I #
straight-curve $-1 -25.895818823533443 -22.488945205718331 0.94608194465391193 0 -0.79863550430605224 -0.6018150307709319 I I #
edge $-1 $505 -37.710738775167769 $292 -25.895818823533443 $421 $512 forward 7 unknown #
point $-1 -25.895818823533443 -22.488945205718331 10.295897171210759 #
point $-1 -25.895818823533443 -10.081321572483047 10.295897171210759 #
edge $-1 $513 1 $513 0 $295 $-1 forward 7 unknown #
vertex $-1 $296 $514 #
ellipse-curve $-1 -35.347754784840902 -15.383861796264116 4.4249617815245292 0 -0.6018150307709319 0.79863550430605224 0.5 0 0 1 I I #
point $-1 -34.847754784840902 -16.285133389100682 5.6209895579323312 #
edge $-1 $515 1 $515 0 $299 $-1 forward 7 unknown #
vertex $-1 $300 $516 #
ellipse-curve $-1 -31.803278799350608 -15.383861796264116 4.4249617815245292 0 -0.6018150307709319 0.79863550430605224 0.5 0 0 1 I I #
point $-1 -31.303278799350608 -16.285133389100682 5.6209895579323312 #
edge $-1 $517 1 $517 0 $303 $-1 forward 7 unknown #
vertex $-1 $304 $518 #
ellipse-curve $-1 -28.25880281386031 -15.383861796264116 4.4249617815245292 0 -0.6018150307709319 0.79863550430605224 0.5 0 0 1 I I #
point $-1 -27.75880281386031 -16.285133389100682 5.6209895579323312 #
plane-surface $-1 44.942777794732507 0 0 -1 0 0 0 0 1 forward_v I I I I #
coedge $-1 $312 $310 $314 $446 reversed $201 $-1 #
edge $-1 $325 -10.295897171210759 $448 10.295897171210759 $324 $519 forward 7 unknown #
vertex $-1 $446 $520 #
straight-curve $-1 -44.942777794732507 -22.488945205718331 0 0 0 -1 I I #
edge $-1 $444 -22.488945205718331 $448 22.488945205718331 $442 $521 forward 7 unknown #
straight-curve $-1 0 -22.488945205718331 -10.295897171210759 -1 0 0 I I #
vertex $-1 $317 $522 #
straight-curve $-1 0 22.488945205718331 -10.295897171210759 1 0 0 I I #
point $-1 44.942777794732507 22.488945205718331 -10.295897171210759 #
point $-1 44.942777794732507 -22.488945205718331 -10.295897171210759 #
straight-curve $-1 -44.942777794732507 0 10.295897171210759 0 -1 0 I I #
point $-1 -44.942777794732507 22.488945205718331 10.295897171210759 #
point $-1 -44.942777794732507 -22.488945205718331 10.295897171210759 #
straight-curve $-1 44.942777794732507 -22.488945205718331 0 0 0 -1 I I #
straight-curve $-1 44.942777794732507 22.488945205718331 0 0 0 -1 I I #
plane-surface $-1 -44.942777794732507 0 0 1 0 0 0 0 -1 forward_v I I I I #
edge $-1 $346 -0.53419149715450587 $350 5.396876218057141 $349 $523 forward 7 unknown #
edge $-1 $354 -5.396876218057141 $345 0.53419149715450587 $352 $524 forward 7 unknown #
straight-curve $-1 -37.710738775167769 -7.8282185785084586 0 0 0 -1 I I #
edge $-1 $464 -10.295897171210759 $462 10.295897171210759 $356 $525 forward 7 unknown #
vertex $-1 $461 $526 #
straight-curve $-1 -20.663379142475069 -1.8971508632968117 -10.295897171210759 1 0 0 I I #
vertex $-1 $357 $527 #
straight-curve $-1 -20.663379142475069 -1.8971508632968117 10.295897171210759 -1 0 0 I I #
point $-1 -37.710738775167769 -1.8971508632968117 10.295897171210759 #
point $-1 -37.710738775167769 -1.8971508632968117 -10.295897171210759 #
point $-1 -37.710738775167769 -7.8282185785084586 -10.295897171210759 #
point $-1 -37.710738775167769 -7.8282185785084586 10.295897171210759 #
straight-curve $-1 -44.942777794732507 0 10.295897171210759 0 -1 0 I I #
straight-curve $-1 -44.942777794732507 0 -10.295897171210759 0 1 0 I I #
plane-surface $-1 0 22.488945205718331 0 0 -1 0 0 0 -1 forward_v I I I I #
coedge $-1 $484 $368 $364 $474 forward $362 $-1 #
edge $-1 $475 32.37624676988392 $488 44.942777794732507 $364 $528 forward 7 unknown #
vertex $-1 $474 $529 #
straight-curve $-1 32.37624676988392 -22.488945205718331 4.0835595090155836 0 0 -1 I I #
straight-curve $-1 32.37624676988392 0 6.0383408648515733 0 1 0 I I #
coedge $-1 $368 $484 $370 $480 forward $362 $-1 #
straight-curve $-1 32.37624676988392 0 10.295897171210759 0 -1 0 I I #
edge $-1 $486 -44.942777794732507 $373 -32.37624676988392 $370 $530 forward 7 unknown #
point $-1 32.37624676988392 22.488945205718331 6.0383408648515733 #
point $-1 32.37624676988392 22.488945205718331 10.295897171210761 #
point $-1 32.37624676988392 -22.488945205718331 6.0383408648515733 #
coedge $-1 $478 $473 $380 $485 forward $362 $-1 #
edge $-1 $488 -22.488945205718331 $486 22.488945205718331 $380 $531 forward 7 unknown #
vertex $-1 $485 $532 #
straight-curve $-1 44.942777794732507 22.488945205718331 0 0 0 -1 I I #
vertex $-1 $485 $533 #
straight-curve $-1 44.942777794732507 -22.488945205718331 0 0 0 -1 I I #
edge $-1 $491 37.219001864038511 $494 46.055363345156003 $386 $534 forward 7 unknown #
vertex $-1 $400 $535 #
straight-curve $-1 -4.7211464548575766 29.595424400736878 10.295897171210761 0 1 0 I I #
edge $-1 $494 -0.33862167091220563 $397 10.45815792245177 $396 $536 forward 7 unknown #
vertex $-1 $493 $537 #
straight-curve $-1 -4.7211464548575766 -7.6071374643578551 34.884622582712524 0 -0.66913059716165679 0.74314483375859142 I I #
point $-1 -4.7211464548575766 14.532649789262365 10.295897171210761 #
point $-1 -15.517926048221552 22.488945205718331 1.4595356900932686 #
straight-curve $-1 0 22.488945205718331 10.295897171210759 -1 0 0 I I #
vertex $-1 $403 $538 #
point $-1 -11.433131878688982 16.641062604461027 4.1941996131037511 #
vertex $-1 $407 $539 #
point $-1 -6.8059406243901321 16.641062604461027 4.1941996131037511 #
coedge $-1 $422 $421 $414 $504 forward $411 $-1 #
edge $-1 $505 26.070041810127236 $508 35.419857036684085 $503 $540 forward 7 unknown #
vertex $-1 $426 $541 #
straight-curve $-1 -37.710738775167769 -38.291711804327264 10.295897171210761 0 -1 0 I I #
edge $-1 $508 -21.809099375492465 $423 -9.9941794238581387 $422 $542 forward 7 unknown #
vertex $-1 $507 $543 #
straight-curve $-1 -37.710738775167769 -22.488945205718331 0.94608194465391193 0 0.79863550430605224 0.6018150307709319 I I #
point $-1 -37.710738775167769 -10.081321572483047 10.295897171210759 #
point $-1 -25.895818823533443 -22.488945205718331 0.94608194465391193 #
straight-curve $-1 0 -22.488945205718331 10.295897171210759 1 0 0 I I #
vertex $-1 $429 $544 #
point $-1 -34.847754784840902 -15.383861796264116 4.4249617815245292 #
vertex $-1 $433 $545 #
point $-1 -31.303278799350608 -15.383861796264116 4.4249617815245292 #
vertex $-1 $437 $546 #
point $-1 -27.75880281386031 -15.383861796264116 4.4249617815245292 #
straight-curve $-1 -44.942777794732507 22.488945205718331 0 0 0 -1 I I #
point $-1 -44.942777794732507 -22.488945205718331 -10.295897171210759 #
straight-curve $-1 -44.942777794732507 0 -10.295897171210759 0 1 0 I I #
point $-1 -44.942777794732507 22.488945205718331 -10.295897171210759 #
straight-curve $-1 -37.710738775167769 -2.4313423604513176 -10.295897171210759 0 -1 0 I I #
straight-curve $-1 -37.710738775167769 -2.4313423604513176 10.295897171210759 0 1 0 I I #
straight-curve $-1 -44.942777794732507 -1.8971508632968117 0 0 0 -1 I I #
point $-1 -44.942777794732507 -1.8971508632968117 -10.295897171210759 #
point $-1 -44.942777794732507 -1.8971508632968117 10.295897171210759 #
straight-curve $-1 0 -22.488945205718331 10.295897171210759 1 0 0 I I #
point $-1 32.37624676988392 -22.488945205718331 10.295897171210761 #
straight-curve $-1 0 22.488945205718331 10.295897171210759 -1 0 0 I I #
straight-curve $-1 44.942777794732507 0 10.295897171210759 0 1 0 I I #
point $-1 44.942777794732507 22.488945205718331 10.295897171210759 #
point $-1 44.942777794732507 -22.488945205718331 10.295897171210759 #
straight-curve $-1 -4.7211464548575766 22.488945205718331 47.514899035249272 0 0 -1 I I #
point $-1 -4.7211464548575766 22.488945205718331 10.295897171210759 #
straight-curve $-1 -5.0597681257697822 22.488945205718334 1.459535690093265 -1 0 0 I I #
point $-1 -4.7211464548575766 22.488945205718331 1.4595356900932686 #
point $-1 -12.433131878688982 15.897917770702435 3.5250690159420945 #
point $-1 -7.8059406243901321 15.897917770702435 3.5250690159420945 #
straight-curve $-1 -37.710738775167769 -22.488945205718331 36.365938981337997 0 0 -1 I I #
point $-1 -37.710738775167769 -22.488945205718331 10.295897171210759 #
straight-curve $-1 -15.901639399675304 -22.488945205718331 0.94608194465391082 1 0 0 I I #
point $-1 -37.710738775167769 -22.488945205718331 0.94608194465391193 #
point $-1 -35.347754784840902 -15.082954280878651 4.0256440293715032 #
point $-1 -31.803278799350608 -15.082954280878651 4.0256440293715032 #
point $-1 -28.25880281386031 -15.082954280878651 4.0256440293715032 #
End-of-ACIS-data 