500 0 8 0           
7 Unknown 11 ACIS 5.0 NT 24 Thu Mar 25 16:11:25 1999 
-1 9.9999999999999995e-007 1e-010 
body $-1 $8 $-1 $9 #
body $-1 $10 $-1 $11 #
body $-1 $12 $-1 $13 #
body $-1 $14 $-1 $15 #
body $-1 $16 $-1 $17 #
body $-1 $18 $-1 $19 #
body $-1 $20 $-1 $21 #
body $-1 $22 $-1 $23 #
lump $-1 $-1 $24 $0 #
transform $-1 1 0 0 0 1 0 0 0 1 52.914212469862974 30.935282528158726 7.0186186520229992 1 rotate no_reflect no_shear #
lump $-1 $-1 $25 $1 #
transform $-1 1 0 0 0 1 0 0 0 1 52.914212469862974 30.935282528158726 7.0186186520229992 1 rotate no_reflect no_shear #
lump $-1 $-1 $26 $2 #
transform $-1 1 0 0 0 1 0 0 0 1 52.914212469862974 30.935282528158726 7.0186186520229992 1 rotate no_reflect no_shear #
lump $-1 $-1 $27 $3 #
transform $-1 1 0 0 0 1 0 0 0 1 52.914212469862974 30.935282528158726 7.0186186520229992 1 rotate no_reflect no_shear #
lump $-1 $-1 $28 $4 #
transform $-1 1 0 0 0 1 0 0 0 1 52.914212469862974 30.935282528158726 7.0186186520229992 1 rotate no_reflect no_shear #
lump $-1 $-1 $29 $5 #
transform $-1 1 0 0 0 1 0 0 0 1 52.914212469862974 30.935282528158726 7.0186186520229992 1 rotate no_reflect no_shear #
lump $-1 $-1 $30 $6 #
transform $-1 1 0 0 0 1 0 0 0 1 52.914212469862974 30.935282528158726 7.0186186520229992 1 rotate no_reflect no_shear #
lump $-1 $-1 $31 $7 #
transform $-1 1 0 0 0 1 0 0 0 1 52.914212469862974 30.935282528158726 7.0186186520229992 1 rotate no_reflect no_shear #
shell $-1 $-1 $-1 $32 $-1 $8 #
shell $-1 $-1 $-1 $33 $-1 $10 #
shell $-1 $-1 $-1 $34 $-1 $12 #
shell $-1 $-1 $-1 $35 $-1 $14 #
shell $-1 $-1 $-1 $36 $-1 $16 #
shell $-1 $-1 $-1 $37 $-1 $18 #
shell $-1 $-1 $-1 $38 $-1 $20 #
shell $-1 $-1 $-1 $39 $-1 $22 #
face $-1 $40 $41 $24 $-1 $42 forward single #
face $-1 $43 $44 $25 $-1 $45 forward single #
face $-1 $46 $47 $26 $-1 $48 reversed single #
face $-1 $49 $50 $27 $-1 $51 forward single #
face $-1 $52 $53 $28 $-1 $54 forward single #
face $-1 $55 $56 $29 $-1 $57 reversed single #
face $-1 $58 $59 $30 $-1 $60 forward single #
face $-1 $61 $62 $31 $-1 $63 forward single #
face $-1 $64 $65 $24 $-1 $66 reversed single #
loop $-1 $-1 $67 $32 #
plane-surface $-1 0 0 7.0186186520229992 0 0 1 1 0 0 forward_v I I I I #
face $-1 $68 $69 $25 $-1 $70 reversed single #
loop $-1 $-1 $71 $33 #
plane-surface $-1 0 -26.463803201038559 4.0881723609395646 0 0 1 1 0 0 forward_v I I I I #
face $-1 $72 $73 $26 $-1 $74 reversed single #
loop $-1 $-1 $75 $34 #
plane-surface $-1 63.354246812441673 -13.742379911099608 151.95609618564157 0 1 0 0.75470958851134928 0 0.65605901945558964 forward_v I I I I #
face $-1 $76 $77 $27 $-1 $78 forward single #
loop $-1 $79 $80 $35 #
cone-surface $-1 50.498419636364311 -10.524876446562423 4.3857022336136708 -0.75470958851134928 0 -0.65605901945558964 0.65605901945558964 0 -0.75470958851134928 1 I I 0 1 1 forward I I I I #
face $-1 $81 $82 $28 $-1 $83 forward single #
loop $-1 $84 $85 $36 #
cone-surface $-1 50.498419636364311 -5.6986212497566449 4.3857022336136708 -0.75470958851134928 0 -0.65605901945558964 0.65605901945558964 0 -0.75470958851134928 1 I I 0 1 1 forward I I I I #
face $-1 $86 $87 $29 $-1 $88 reversed single #
loop $-1 $-1 $89 $37 #
plane-surface $-1 -123.72725147144436 -8.9891655434006275 80.799688834843096 0 -1 0 0.66913061440640931 0 -0.74314481823134659 forward_v I I I I #
face $-1 $90 $91 $30 $-1 $92 forward single #
loop $-1 $93 $94 $38 #
cone-surface $-1 -49.433348562129652 -18.277135779484745 3.7205932080013042 0.66913061440640931 0 -0.74314481823134659 0.74314481823134659 0 0.66913061440640931 1 I I 0 1 1 forward I I I I #
face $-1 $95 $96 $31 $-1 $97 forward single #
loop $-1 $98 $99 $39 #
cone-surface $-1 -49.433348562129652 -12.704353637834274 3.7205932080013042 0.66913061440640931 0 -0.74314481823134659 0.74314481823134659 0 0.66913061440640931 1 I I 0 1 1 forward I I I I #
face $-1 $100 $101 $24 $-1 $102 reversed single #
loop $-1 $-1 $103 $40 #
plane-surface $-1 0 0 -7.0186186520229992 0 0 1 1 0 0 forward_v I I I I #
coedge $-1 $104 $105 $106 $107 forward $41 $-1 #
face $-1 $108 $109 $25 $-1 $110 reversed single #
loop $-1 $-1 $111 $43 #
plane-surface $-1 0 -26.463803201038559 0.62138129422634014 0 0 1 1 0 0 forward_v I I I I #
coedge $-1 $112 $113 $114 $115 reversed $44 $-1 #
face $-1 $116 $117 $26 $-1 $118 reversed single #
loop $-1 $-1 $119 $46 #
plane-surface $-1 -16.515480226623112 -8.1117488481595323 82.526403489155499 0.75470958851134928 0 0.65605901945558964 0.65605901945558964 0 -0.75470958851134928 forward_v I I I I #
coedge $-1 $120 $121 $122 $123 reversed $47 $-1 #
face $-1 $-1 $124 $27 $-1 $125 forward single #
loop $-1 $126 $127 $49 #
cone-surface $-1 49.6011612138646 -10.524876446562423 3.6057274064426768 -0.75470958851134928 0 -0.65605901945558964 0.32802950972779482 0 -0.37735479425567464 1 I I -0.70710678118654746 0.70710678118654746 0.5 forward I I I I #
loop $-1 $-1 $128 $35 #
coedge $-1 $80 $80 $129 $130 reversed $50 $-1 #
face $-1 $-1 $131 $28 $-1 $132 forward single #
loop $-1 $133 $134 $52 #
cone-surface $-1 49.6011612138646 -5.6986212497566449 3.6057274064426768 -0.75470958851134928 0 -0.65605901945558964 0.32802950972779482 0 -0.37735479425567464 1 I I -0.70710678118654746 0.70710678118654746 0.5 forward I I I I #
loop $-1 $-1 $135 $36 #
coedge $-1 $85 $85 $136 $137 reversed $53 $-1 #
face $-1 $138 $139 $29 $-1 $140 forward single #
loop $-1 $-1 $141 $55 #
plane-surface $-1 -52.914212469862974 -15.490744708659509 2.1538432193007537 -0.66913061440640931 0 0.74314481823134659 0.74314481823134659 0 0.66913061440640931 forward_v I I I I #
coedge $-1 $142 $143 $144 $145 reversed $56 $-1 #
face $-1 $-1 $146 $30 $-1 $147 forward single #
loop $-1 $148 $149 $58 #
cone-surface $-1 -48.319359527070255 -18.277135779484745 2.4833830712250577 0.66913061440640931 0 -0.74314481823134659 0.3715724091156733 0 0.33456530720320465 1 I I -0.70710678118654746 0.70710678118654746 0.5 forward I I I I #
loop $-1 $-1 $150 $38 #
coedge $-1 $94 $94 $151 $152 reversed $59 $-1 #
face $-1 $-1 $153 $31 $-1 $154 forward single #
loop $-1 $155 $156 $61 #
cone-surface $-1 -48.319359527070255 -12.704353637834274 2.4833830712250577 0.66913061440640931 0 -0.74314481823134659 0.3715724091156733 0 0.33456530720320465 1 I I -0.70710678118654746 0.70710678118654746 0.5 forward I I I I #
loop $-1 $-1 $157 $39 #
coedge $-1 $99 $99 $158 $159 reversed $62 $-1 #
face $-1 $160 $161 $24 $-1 $162 reversed single #
loop $-1 $-1 $163 $64 #
plane-surface $-1 0 -30.935282528158726 0 0 1 0 0 0 1 forward_v I I I I #
coedge $-1 $164 $165 $166 $167 forward $65 $-1 #
coedge $-1 $168 $67 $169 $170 forward $41 $-1 #
coedge $-1 $67 $168 $171 $172 forward $41 $-1 #
coedge $-1 $173 $174 $67 $107 reversed $175 $-1 #
edge $-1 $176 -30.935282528158726 $177 30.935282528158726 $106 $178 forward 7 unknown #
face $-1 $179 $180 $25 $-1 $181 reversed single #
loop $-1 $-1 $182 $68 #
plane-surface $-1 0 -21.992323873918391 2.3547768275829526 0 -1 0 0 0 -1 forward_v I I I I #
coedge $-1 $183 $184 $185 $186 reversed $69 $-1 #
coedge $-1 $187 $71 $182 $188 forward $44 $-1 #
coedge $-1 $71 $187 $189 $190 reversed $44 $-1 #
coedge $-1 $191 $192 $71 $115 forward $193 $-1 #
edge $-1 $194 8.7604222733991115 $195 17.703380927639447 $114 $196 forward 7 unknown #
face $-1 $197 $198 $26 $-1 $199 forward single #
loop $-1 $-1 $200 $72 #
plane-surface $-1 63.354246812441673 -2.4811177852194568 151.95609618564157 0 -1 0 -0.75470958851134928 0 -0.65605901945558964 forward_v I I I I #
coedge $-1 $201 $202 $203 $204 reversed $73 $-1 #
coedge $-1 $121 $75 $205 $206 reversed $47 $-1 #
coedge $-1 $75 $120 $201 $207 reversed $47 $-1 #
coedge $-1 $203 $208 $75 $123 forward $209 $-1 #
edge $-1 $210 68.959429440797791 $211 73.321371642730085 $122 $212 forward 7 unknown #
loop $-1 $-1 $129 $76 #
plane-surface $-1 -16.515480226623112 -8.1117488481595323 82.526403489155499 0.75470958851134928 0 0.65605901945558964 0.65605901945558964 0 -0.75470958851134928 forward_v I I I I #
loop $-1 $-1 $213 $49 #
coedge $-1 $127 $127 $128 $214 reversed $77 $-1 #
coedge $-1 $128 $128 $127 $214 forward $79 $-1 #
coedge $-1 $129 $129 $80 $130 forward $124 $-1 #
edge $-1 $215 0 $215 6.2831853071796004 $129 $216 forward 7 unknown #
loop $-1 $-1 $136 $81 #
plane-surface $-1 -16.515480226623112 -8.1117488481595323 82.526403489155499 0.75470958851134928 0 0.65605901945558964 0.65605901945558964 0 -0.75470958851134928 forward_v I I I I #
loop $-1 $-1 $217 $52 #
coedge $-1 $134 $134 $135 $218 reversed $82 $-1 #
coedge $-1 $135 $135 $134 $218 forward $84 $-1 #
coedge $-1 $136 $136 $85 $137 forward $131 $-1 #
edge $-1 $219 0 $219 6.2831853071796004 $136 $220 forward 7 unknown #
face $-1 $221 $222 $29 $-1 $223 forward single #
loop $-1 $-1 $224 $86 #
plane-surface $-1 0 -21.992323873918391 2.3547768275829526 0 -1 0 0 0 -1 forward_v I I I I #
coedge $-1 $225 $226 $227 $228 reversed $87 $-1 #
coedge $-1 $143 $89 $229 $230 reversed $56 $-1 #
coedge $-1 $89 $142 $225 $231 reversed $56 $-1 #
coedge $-1 $227 $232 $89 $145 forward $233 $-1 #
edge $-1 $234 33.381225765398547 $235 38.246001198120794 $144 $236 forward 7 unknown #
loop $-1 $-1 $151 $90 #
plane-surface $-1 -52.914212469862974 -15.490744708659509 2.1538432193007537 -0.66913061440640931 0 0.74314481823134659 0.74314481823134659 0 0.66913061440640931 forward_v I I I I #
loop $-1 $-1 $237 $58 #
coedge $-1 $149 $149 $150 $238 reversed $91 $-1 #
coedge $-1 $150 $150 $149 $238 forward $93 $-1 #
coedge $-1 $151 $151 $94 $152 forward $146 $-1 #
edge $-1 $239 0 $239 6.2831853071796004 $151 $240 forward 7 unknown #
loop $-1 $-1 $158 $95 #
plane-surface $-1 -52.914212469862974 -15.490744708659509 2.1538432193007537 -0.66913061440640931 0 0.74314481823134659 0.74314481823134659 0 0.66913061440640931 forward_v I I I I #
loop $-1 $-1 $241 $61 #
coedge $-1 $156 $156 $157 $242 reversed $96 $-1 #
coedge $-1 $157 $157 $156 $242 forward $98 $-1 #
coedge $-1 $158 $158 $99 $159 forward $153 $-1 #
edge $-1 $243 0 $243 6.2831853071796004 $158 $244 forward 7 unknown #
face $-1 $245 $246 $24 $-1 $247 reversed single #
loop $-1 $-1 $248 $100 #
plane-surface $-1 -52.914212469862974 0 0 1 0 0 0 0 -1 forward_v I I I I #
coedge $-1 $249 $171 $250 $251 forward $101 $-1 #
coedge $-1 $252 $103 $249 $253 forward $65 $-1 #
coedge $-1 $103 $252 $254 $255 forward $65 $-1 #
coedge $-1 $174 $173 $103 $167 reversed $175 $-1 #
edge $-1 $256 -30.935282528158726 $257 30.935282528158726 $166 $258 forward 7 unknown #
coedge $-1 $105 $104 $259 $260 forward $41 $-1 #
coedge $-1 $261 $262 $104 $170 reversed $246 $-1 #
edge $-1 $177 -52.914212469862974 $263 52.914212469862974 $169 $264 forward 7 unknown #
coedge $-1 $163 $265 $105 $172 reversed $101 $-1 #
edge $-1 $266 -52.914212469862974 $176 52.914212469862974 $171 $267 forward 7 unknown #
coedge $-1 $166 $106 $265 $268 forward $175 $-1 #
coedge $-1 $106 $166 $261 $269 reversed $175 $-1 #
loop $-1 $-1 $173 $245 #
vertex $-1 $107 $270 #
vertex $-1 $107 $271 #
straight-curve $-1 52.914212469862974 0 7.0186186520229992 0 1 0 I I #
face $-1 $272 $273 $25 $-1 $274 reversed single #
loop $-1 $-1 $275 $108 #
plane-surface $-1 -52.914212469862974 0 0 1 0 0 0 0 -1 forward_v I I I I #
coedge $-1 $276 $277 $112 $188 reversed $109 $-1 #
coedge $-1 $278 $111 $279 $280 reversed $69 $-1 #
coedge $-1 $111 $278 $281 $282 forward $69 $-1 #
coedge $-1 $192 $191 $111 $186 forward $193 $-1 #
edge $-1 $283 -17.703380927639447 $284 -8.7604222733991115 $185 $285 forward 7 unknown #
coedge $-1 $113 $112 $275 $286 reversed $44 $-1 #
edge $-1 $194 -52.914212469862974 $287 52.914212469862974 $182 $288 forward 7 unknown #
coedge $-1 $289 $290 $113 $190 forward $273 $-1 #
edge $-1 $195 -52.914212469862974 $291 52.914212469862974 $189 $292 forward 7 unknown #
coedge $-1 $185 $114 $290 $293 forward $193 $-1 #
coedge $-1 $114 $185 $276 $294 forward $193 $-1 #
loop $-1 $-1 $114 $272 #
vertex $-1 $115 $295 #
vertex $-1 $293 $296 #
straight-curve $-1 52.914212469862974 -13.231901600519279 4.0881723609395646 0 -1 0 I I #
face $-1 $-1 $209 $26 $-1 $297 reversed single #
loop $-1 $-1 $298 $116 #
plane-surface $-1 0 0 7.0186186520229992 0 0 1 1 0 0 forward_v I I I I #
coedge $-1 $299 $300 $301 $302 reversed $117 $-1 #
coedge $-1 $303 $119 $121 $207 forward $73 $-1 #
coedge $-1 $119 $303 $299 $304 forward $73 $-1 #
coedge $-1 $301 $122 $119 $204 forward $209 $-1 #
edge $-1 $211 -9.6865054870198417 $305 1.5747566388603094 $203 $306 forward 7 unknown #
coedge $-1 $307 $308 $120 $206 forward $198 $-1 #
edge $-1 $309 17.445310653132886 $210 21.237089063642138 $205 $310 forward 7 unknown #
edge $-1 $211 -105.82842493972599 $309 -100.0487949094038 $121 $311 forward 7 unknown #
coedge $-1 $122 $301 $307 $312 reversed $209 $-1 #
loop $-1 $-1 $301 $197 #
vertex $-1 $312 $313 #
vertex $-1 $123 $314 #
straight-curve $-1 52.914212469862974 -13.742379911099608 75.978048092820785 0 0 -1 I I #
coedge $-1 $213 $213 $-1 $315 reversed $126 $-1 #
edge $-1 $316 0 $316 6.2831853071796004 $127 $317 forward 7 unknown #
vertex $-1 $130 $318 #
ellipse-curve $-1 51.018323264608341 -10.524876446562423 4.8376475510568611 0.75470958851134928 0 0.65605901945558964 0.65605901945558964 0 -0.75470958851134928 1 I I #
coedge $-1 $217 $217 $-1 $319 reversed $133 $-1 #
edge $-1 $320 0 $320 6.2831853071796004 $134 $321 forward 7 unknown #
vertex $-1 $137 $322 #
ellipse-curve $-1 51.018323264608341 -5.6986212497566449 4.8376475510568611 0.75470958851134928 0 0.65605901945558964 0.65605901945558964 0 -0.75470958851134928 1 I I #
face $-1 $-1 $233 $29 $-1 $323 reversed single #
loop $-1 $-1 $324 $138 #
plane-surface $-1 0 0 7.0186186520229992 0 0 1 1 0 0 forward_v I I I I #
coedge $-1 $325 $326 $226 $327 reversed $139 $-1 #
coedge $-1 $328 $141 $143 $231 forward $87 $-1 #
coedge $-1 $141 $328 $224 $327 forward $87 $-1 #
coedge $-1 $329 $144 $141 $228 forward $233 $-1 #
edge $-1 $235 1.2437931890708729 $330 14.246951519588636 $227 $331 forward 7 unknown #
coedge $-1 $332 $333 $142 $230 forward $222 $-1 #
edge $-1 $334 -14.35229362561347 $234 -8.9494132658592065 $229 $335 forward 7 unknown #
edge $-1 $235 0 $334 7.2702927171219365 $143 $336 forward 7 unknown #
coedge $-1 $144 $329 $332 $337 reversed $233 $-1 #
loop $-1 $-1 $227 $221 #
vertex $-1 $337 $338 #
vertex $-1 $145 $339 #
straight-curve $-1 -52.914212469862974 -8.9891655434006275 40.399844417421548 0 0 -1 I I #
coedge $-1 $237 $237 $-1 $340 reversed $148 $-1 #
edge $-1 $341 0 $341 6.2831853071796004 $149 $342 forward 7 unknown #
vertex $-1 $152 $343 #
ellipse-curve $-1 -50.212772289985843 -18.277135779484745 4.5862309356618765 -0.66913061440640931 0 0.74314481823134659 0.74314481823134659 0 0.66913061440640931 1 I I #
coedge $-1 $241 $241 $-1 $344 reversed $155 $-1 #
edge $-1 $345 0 $345 6.2831853071796004 $156 $346 forward 7 unknown #
vertex $-1 $159 $347 #
ellipse-curve $-1 -50.212772289985843 -12.704353637834274 4.5862309356618765 -0.66913061440640931 0 0.74314481823134659 0.74314481823134659 0 0.66913061440640931 1 I I #
face $-1 $-1 $175 $24 $-1 $348 reversed single #
loop $-1 $-1 $261 $160 #
plane-surface $-1 0 30.935282528158726 0 0 -1 0 0 0 -1 forward_v I I I I #
coedge $-1 $349 $259 $262 $350 forward $161 $-1 #
coedge $-1 $265 $163 $164 $253 reversed $101 $-1 #
coedge $-1 $259 $349 $163 $251 reversed $161 $-1 #
edge $-1 $266 -7.0186186520229992 $351 7.0186186520229992 $250 $352 forward 7 unknown #
coedge $-1 $165 $164 $349 $353 forward $65 $-1 #
edge $-1 $257 -52.914212469862974 $351 52.914212469862974 $249 $354 forward 7 unknown #
coedge $-1 $262 $261 $165 $255 reversed $246 $-1 #
edge $-1 $355 -52.914212469862974 $256 52.914212469862974 $254 $356 forward 7 unknown #
vertex $-1 $167 $357 #
vertex $-1 $268 $358 #
straight-curve $-1 52.914212469862974 0 -7.0186186520229992 0 -1 0 I I #
coedge $-1 $248 $250 $168 $260 reversed $161 $-1 #
edge $-1 $263 -30.935282528158726 $266 30.935282528158726 $259 $359 forward 7 unknown #
coedge $-1 $254 $169 $174 $269 forward $246 $-1 #
coedge $-1 $169 $254 $248 $350 reversed $246 $-1 #
vertex $-1 $170 $360 #
straight-curve $-1 0 30.935282528158726 7.0186186520229992 -1 0 0 I I #
coedge $-1 $171 $249 $173 $268 reversed $101 $-1 #
vertex $-1 $260 $361 #
straight-curve $-1 0 -30.935282528158726 7.0186186520229992 1 0 0 I I #
edge $-1 $176 -7.0186186520229992 $257 7.0186186520229992 $173 $362 forward 7 unknown #
edge $-1 $177 -7.0186186520229992 $256 7.0186186520229992 $174 $363 forward 7 unknown #
point $-1 52.914212469862974 -30.935282528158726 7.0186186520229992 #
point $-1 52.914212469862974 30.935282528158726 7.0186186520229992 #
face $-1 $-1 $193 $25 $-1 $364 reversed single #
loop $-1 $-1 $189 $179 #
plane-surface $-1 0 -30.935282528158726 0 0 1 0 0 0 1 forward_v I I I I #
coedge $-1 $365 $366 $187 $286 forward $180 $-1 #
coedge $-1 $281 $182 $192 $294 reversed $109 $-1 #
coedge $-1 $182 $281 $365 $367 reversed $109 $-1 #
coedge $-1 $184 $183 $368 $369 reversed $69 $-1 #
coedge $-1 $290 $289 $183 $280 forward $273 $-1 #
edge $-1 $370 -52.914212469862974 $283 52.914212469862974 $279 $371 forward 7 unknown #
coedge $-1 $277 $276 $184 $282 reversed $109 $-1 #
edge $-1 $372 -52.914212469862974 $284 52.914212469862974 $281 $373 forward 7 unknown #
vertex $-1 $280 $374 #
vertex $-1 $186 $375 #
straight-curve $-1 52.914212469862974 -13.231901600519279 0.62138129422634014 0 1 0 I I #
edge $-1 $291 -17.703380927639447 $287 -8.7604222733991115 $275 $376 forward 7 unknown #
vertex $-1 $286 $377 #
straight-curve $-1 0 -21.992323873918391 4.0881723609395646 -1 0 0 I I #
coedge $-1 $279 $189 $366 $378 forward $273 $-1 #
coedge $-1 $189 $279 $191 $293 reversed $273 $-1 #
vertex $-1 $378 $379 #
straight-curve $-1 0 -30.935282528158726 4.0881723609395646 -1 0 0 I I #
edge $-1 $195 -4.0881723609395646 $283 -0.62138129422634014 $191 $380 forward 7 unknown #
edge $-1 $284 -0.55600711956513615 $194 2.9107839471480883 $192 $381 forward 7 unknown #
point $-1 52.914212469862974 -21.992323873918391 4.0881723609395646 #
point $-1 52.914212469862974 -30.935282528158726 4.0881723609395646 #
plane-surface $-1 52.914212469862974 0 0 -1 0 0 0 0 1 forward_v I I I I #
coedge $-1 $308 $307 $300 $382 forward $198 $-1 #
coedge $-1 $300 $200 $202 $304 reversed $117 $-1 #
coedge $-1 $200 $299 $298 $382 reversed $117 $-1 #
coedge $-1 $208 $203 $200 $302 forward $209 $-1 #
edge $-1 $305 -73.321371642730085 $383 -68.959429440797791 $301 $384 forward 7 unknown #
coedge $-1 $202 $201 $308 $385 reversed $73 $-1 #
edge $-1 $386 100.0487949094038 $305 105.82842493972599 $299 $387 forward 7 unknown #
vertex $-1 $204 $388 #
straight-curve $-1 52.914212469862974 -4.0558744240797662 2.6566764500906999 0 1 0 I I #
coedge $-1 $298 $205 $208 $312 forward $198 $-1 #
coedge $-1 $205 $298 $303 $385 forward $198 $-1 #
vertex $-1 $206 $389 #
straight-curve $-1 31.677123406220836 -13.742379911099608 7.0186186520229938 1 0 0 I I #
straight-curve $-1 -16.515480226623112 -13.742379911099608 82.526403489155499 -0.65605901945558964 0 0.75470958851134928 I I #
edge $-1 $210 -13.742379911099608 $383 -2.4811177852194568 $208 $390 forward 7 unknown #
point $-1 52.914212469862974 -13.742379911099608 7.0186186520229992 #
point $-1 52.914212469862974 -13.742379911099608 2.6566764500906999 #
edge $-1 $391 1 $391 0 $213 $-1 forward 7 unknown #
vertex $-1 $214 $392 #
ellipse-curve $-1 49.978516008120273 -10.524876446562423 3.9337569161704717 0.75470958851134928 0 0.65605901945558964 0.65605901945558964 0 -0.75470958851134928 1 I I #
point $-1 51.674382284063945 -10.524876446562423 4.08293796254552 #
edge $-1 $393 1 $393 0 $217 $-1 forward 7 unknown #
vertex $-1 $218 $394 #
ellipse-curve $-1 49.978516008120273 -5.6986212497566449 3.9337569161704717 0.75470958851134928 0 0.65605901945558964 0.65605901945558964 0 -0.75470958851134928 1 I I #
point $-1 51.674382284063945 -5.6986212497566449 4.08293796254552 #
plane-surface $-1 -52.914212469862974 0 0 1 0 0 0 0 -1 forward_v I I I I #
coedge $-1 $333 $332 $325 $395 forward $222 $-1 #
coedge $-1 $326 $224 $324 $395 reversed $139 $-1 #
coedge $-1 $224 $325 $329 $396 reversed $139 $-1 #
edge $-1 $397 -7.2702927171219365 $330 0 $224 $398 forward 7 unknown #
coedge $-1 $226 $225 $333 $399 reversed $87 $-1 #
coedge $-1 $232 $227 $326 $396 forward $233 $-1 #
vertex $-1 $396 $400 #
straight-curve $-1 -52.914212469862974 -7.7453723543297546 2.153843219300752 0 -1 0 I I #
coedge $-1 $324 $229 $232 $337 forward $222 $-1 #
coedge $-1 $229 $324 $328 $399 forward $222 $-1 #
vertex $-1 $230 $401 #
straight-curve $-1 -61.863625735722181 -8.9891655434006275 7.0186186520230009 -1 0 0 I I #
straight-curve $-1 -52.914212469862974 -8.9891655434006275 2.1538432193007537 0.74314481823134659 0 0.66913061440640931 I I #
edge $-1 $234 8.9891655434006275 $402 21.992323873918391 $232 $403 forward 7 unknown #
point $-1 -52.914212469862974 -8.9891655434006275 7.0186186520229992 #
point $-1 -52.914212469862974 -8.9891655434006275 2.1538432193007537 #
edge $-1 $404 1 $404 0 $237 $-1 forward 7 unknown #
vertex $-1 $238 $405 #
ellipse-curve $-1 -48.653924834273461 -18.277135779484745 2.8549554803407311 -0.66913061440640931 0 0.74314481823134659 0.74314481823134659 0 0.66913061440640931 1 I I #
point $-1 -49.469627471754492 -18.277135779484745 5.2553615500682884 #
edge $-1 $406 1 $406 0 $241 $-1 forward 7 unknown #
vertex $-1 $242 $407 #
ellipse-curve $-1 -48.653924834273461 -12.704353637834274 2.8549554803407311 -0.66913061440640931 0 0.74314481823134659 0.74314481823134659 0 0.66913061440640931 1 I I #
point $-1 -49.469627471754492 -12.704353637834274 5.2553615500682884 #
plane-surface $-1 52.914212469862974 0 0 -1 0 0 0 0 1 forward_v I I I I #
coedge $-1 $250 $248 $252 $353 reversed $161 $-1 #
edge $-1 $263 -7.0186186520229992 $355 7.0186186520229992 $262 $408 forward 7 unknown #
vertex $-1 $353 $409 #
straight-curve $-1 -52.914212469862974 -30.935282528158726 0 0 0 -1 I I #
edge $-1 $351 -30.935282528158726 $355 30.935282528158726 $349 $410 forward 7 unknown #
straight-curve $-1 0 -30.935282528158726 -7.0186186520229992 -1 0 0 I I #
vertex $-1 $255 $411 #
straight-curve $-1 0 30.935282528158726 -7.0186186520229992 1 0 0 I I #
point $-1 52.914212469862974 30.935282528158726 -7.0186186520229992 #
point $-1 52.914212469862974 -30.935282528158726 -7.0186186520229992 #
straight-curve $-1 -52.914212469862974 0 7.0186186520229992 0 -1 0 I I #
point $-1 -52.914212469862974 30.935282528158726 7.0186186520229992 #
point $-1 -52.914212469862974 -30.935282528158726 7.0186186520229992 #
straight-curve $-1 52.914212469862974 -30.935282528158726 0 0 0 -1 I I #
straight-curve $-1 52.914212469862974 30.935282528158726 0 0 0 -1 I I #
plane-surface $-1 52.914212469862974 0 0 -1 0 0 0 0 1 forward_v I I I I #
coedge $-1 $368 $275 $277 $367 forward $180 $-1 #
coedge $-1 $275 $368 $289 $378 reversed $180 $-1 #
edge $-1 $287 -2.9107839471480883 $372 0.55600711956513615 $365 $412 forward 7 unknown #
coedge $-1 $366 $365 $278 $369 forward $180 $-1 #
edge $-1 $372 8.7604222733991115 $370 17.703380927639447 $368 $413 forward 7 unknown #
vertex $-1 $280 $414 #
straight-curve $-1 0 -30.935282528158726 0.62138129422634014 1 0 0 I I #
vertex $-1 $369 $415 #
straight-curve $-1 0 -21.992323873918391 0.62138129422634014 1 0 0 I I #
point $-1 52.914212469862974 -30.935282528158726 0.62138129422634014 #
point $-1 52.914212469862974 -21.992323873918391 0.62138129422634014 #
straight-curve $-1 -52.914212469862974 -13.231901600519279 4.0881723609395646 0 1 0 I I #
point $-1 -52.914212469862974 -21.992323873918391 4.0881723609395646 #
edge $-1 $291 -4.0881723609395646 $370 -0.62138129422634014 $366 $416 forward 7 unknown #
point $-1 -52.914212469862974 -30.935282528158726 4.0881723609395646 #
straight-curve $-1 52.914212469862974 -30.935282528158726 0 0 0 -1 I I #
straight-curve $-1 52.914212469862974 -21.992323873918391 1.1773884137914763 0 0 1 I I #
edge $-1 $383 -21.237089063642138 $386 -17.445310653132886 $298 $417 forward 7 unknown #
vertex $-1 $382 $418 #
straight-curve $-1 52.914212469862974 -2.4811177852194568 75.978048092820785 0 0 1 I I #
edge $-1 $386 -1.5747566388603094 $309 9.6865054870198417 $308 $419 forward 7 unknown #
vertex $-1 $385 $420 #
straight-curve $-1 -16.515480226623112 -2.4811177852194568 82.526403489155499 0.65605901945558964 0 -0.75470958851134928 I I #
point $-1 52.914212469862974 -2.4811177852194568 2.6566764500906999 #
point $-1 49.122434059353722 -13.742379911099608 7.0186186520229938 #
straight-curve $-1 52.914212469862974 0 7.0186186520229992 0 1 0 I I #
vertex $-1 $315 $421 #
point $-1 50.634575027575863 -10.524876446562423 3.1790473276591222 #
vertex $-1 $319 $422 #
point $-1 50.634575027575863 -5.6986212497566449 3.1790473276591222 #
edge $-1 $402 8.9494132658592065 $397 14.35229362561347 $324 $423 forward 7 unknown #
edge $-1 $330 -38.246001198120794 $402 -33.381225765398547 $329 $424 forward 7 unknown #
vertex $-1 $399 $425 #
straight-curve $-1 -52.914212469862974 -21.992323873918391 2.1538432193007537 -0.74314481823134659 0 -0.66913061440640931 I I #
edge $-1 $397 -14.246951519588636 $334 -1.2437931890708729 $333 $426 forward 7 unknown #
point $-1 -52.914212469862974 -21.992323873918391 2.1538432193007537 #
point $-1 -47.511332110108711 -8.9891655434006275 7.0186186520229992 #
vertex $-1 $396 $427 #
straight-curve $-1 -52.914212469862974 0 7.0186186520229992 0 -1 0 I I #
vertex $-1 $340 $428 #
point $-1 -47.910780016042111 -18.277135779484745 3.5240860947471404 #
vertex $-1 $344 $429 #
point $-1 -47.910780016042111 -12.704353637834274 3.5240860947471404 #
straight-curve $-1 -52.914212469862974 30.935282528158726 0 0 0 -1 I I #
point $-1 -52.914212469862974 -30.935282528158726 -7.0186186520229992 #
straight-curve $-1 -52.914212469862974 0 -7.0186186520229992 0 1 0 I I #
point $-1 -52.914212469862974 30.935282528158726 -7.0186186520229992 #
straight-curve $-1 -52.914212469862974 -21.992323873918391 1.1773884137914763 0 0 -1 I I #
straight-curve $-1 -52.914212469862974 -13.231901600519279 0.62138129422634014 0 -1 0 I I #
point $-1 -52.914212469862974 -30.935282528158726 0.62138129422634014 #
point $-1 -52.914212469862974 -21.992323873918391 0.62138129422634014 #
straight-curve $-1 -52.914212469862974 -30.935282528158726 0 0 0 -1 I I #
straight-curve $-1 31.677123406220836 -2.4811177852194568 7.0186186520229938 -1 0 0 I I #
point $-1 52.914212469862974 -2.4811177852194568 7.0186186520229992 #
straight-curve $-1 49.122434059353715 -4.0558744240797662 7.0186186520230009 0 -1 0 I I #
point $-1 49.122434059353722 -2.4811177852194568 7.0186186520229938 #
point $-1 49.223806419608927 -10.524876446562423 3.2776978967148818 #
point $-1 49.223806419608927 -5.6986212497566449 3.2776978967148818 #
straight-curve $-1 -61.863625735722181 -21.992323873918391 7.0186186520230009 1 0 0 I I #
straight-curve $-1 -52.914212469862974 -21.992323873918391 40.399844417421548 0 0 1 I I #
point $-1 -47.511332110108711 -21.992323873918391 7.0186186520229992 #
straight-curve $-1 -47.511332110108711 -7.7453723543297546 7.0186186520229974 0 1 0 I I #
point $-1 -52.914212469862974 -21.992323873918391 7.0186186520229992 #
point $-1 -47.984794219867048 -18.277135779484745 2.1118106621093844 #
point $-1 -47.984794219867048 -12.704353637834274 2.1118106621093844 #
End-of-ACIS-data 