500 0 9 0           
7 Unknown 11 ACIS 5.0 NT 24 Fri Mar 26 19:29:42 1999 
-1 9.9999999999999995e-007 1e-010 
body $-1 $9 $-1 $10 #
body $-1 $11 $-1 $12 #
body $-1 $13 $-1 $14 #
body $-1 $15 $-1 $16 #
body $-1 $17 $-1 $18 #
body $-1 $19 $-1 $20 #
body $-1 $21 $-1 $22 #
body $-1 $23 $-1 $24 #
body $-1 $25 $-1 $26 #
lump $-1 $-1 $27 $0 #
transform $-1 1 0 0 0 1 0 0 0 1 78.84640034180731 47.839386267754307 20.951394045740575 1 rotate no_reflect no_shear #
lump $-1 $-1 $28 $1 #
transform $-1 1 0 0 0 1 0 0 0 1 78.84640034180731 47.839386267754307 20.951394045740575 1 rotate no_reflect no_shear #
lump $-1 $-1 $29 $2 #
transform $-1 1 0 0 0 1 0 0 0 1 78.84640034180731 47.839386267754307 20.951394045740575 1 rotate no_reflect no_shear #
lump $-1 $-1 $30 $3 #
transform $-1 1 0 0 0 1 0 0 0 1 78.84640034180731 47.839386267754307 20.951394045740575 1 rotate no_reflect no_shear #
lump $-1 $-1 $31 $4 #
transform $-1 1 0 0 0 1 0 0 0 1 78.84640034180731 47.839386267754307 20.951394045740575 1 rotate no_reflect no_shear #
lump $-1 $-1 $32 $5 #
transform $-1 1 0 0 0 1 0 0 0 1 78.84640034180731 47.839386267754307 20.951394045740575 1 rotate no_reflect no_shear #
lump $-1 $-1 $33 $6 #
transform $-1 1 0 0 0 1 0 0 0 1 78.84640034180731 47.839386267754307 20.951394045740575 1 rotate no_reflect no_shear #
lump $-1 $-1 $34 $7 #
transform $-1 1 0 0 0 1 0 0 0 1 78.84640034180731 47.839386267754307 20.951394045740575 1 rotate no_reflect no_shear #
lump $-1 $-1 $35 $8 #
transform $-1 1 0 0 0 1 0 0 0 1 78.84640034180731 47.839386267754307 20.951394045740575 1 rotate no_reflect no_shear #
shell $-1 $-1 $-1 $36 $-1 $9 #
shell $-1 $-1 $-1 $37 $-1 $11 #
shell $-1 $-1 $-1 $38 $-1 $13 #
shell $-1 $-1 $-1 $39 $-1 $15 #
shell $-1 $-1 $-1 $40 $-1 $17 #
shell $-1 $-1 $-1 $41 $-1 $19 #
shell $-1 $-1 $-1 $42 $-1 $21 #
shell $-1 $-1 $-1 $43 $-1 $23 #
shell $-1 $-1 $-1 $44 $-1 $25 #
face $-1 $45 $46 $27 $-1 $47 forward single #
face $-1 $48 $49 $28 $-1 $50 reversed single #
face $-1 $51 $52 $29 $-1 $53 reversed single #
face $-1 $54 $55 $30 $-1 $56 reversed single #
face $-1 $57 $58 $31 $-1 $59 forward single #
face $-1 $60 $61 $32 $-1 $62 reversed single #
face $-1 $63 $64 $33 $-1 $65 forward single #
face $-1 $66 $67 $34 $-1 $68 forward single #
face $-1 $69 $70 $35 $-1 $71 forward single #
face $-1 $72 $73 $27 $-1 $74 reversed single #
loop $-1 $-1 $75 $36 #
plane-surface $-1 0 0 20.951394045740575 0 0 1 1 0 0 forward_v I I I I #
face $-1 $76 $77 $28 $-1 $78 reversed single #
loop $-1 $-1 $79 $37 #
plane-surface $-1 -67.294577775160604 -42.180009800612069 0 0 -1 0 0 0 -1 forward_v I I I I #
face $-1 $80 $81 $29 $-1 $82 reversed single #
loop $-1 $-1 $83 $38 #
plane-surface $-1 55.742755208513898 -45.009698034183188 0 1 0 0 0 0 -1 forward_v I I I I #
face $-1 $84 $85 $30 $-1 $86 reversed single #
loop $-1 $-1 $87 $39 #
plane-surface $-1 -55.742755208513898 119.17697282580853 174.5826922475421 1 0 0 0 -0.80901700255871778 -0.5877852410284794 forward_v I I I I #
face $-1 $88 $89 $31 $-1 $90 forward single #
loop $-1 $91 $92 $40 #
cone-surface $-1 -43.989092376666513 38.626213741795681 10.371019435208527 0 -0.80901700255871778 -0.5877852410284794 2 0 0 1 I I 0 1 2 forward I I I I #
face $-1 $93 $94 $32 $-1 $95 reversed single #
loop $-1 $-1 $96 $41 #
plane-surface $-1 -47.105664767852687 -47.839386267754307 3.2909336842788122 0 -0.62932039886446345 0.77714595512881146 1 0 0 forward_v I I I I #
face $-1 $97 $98 $33 $-1 $99 forward single #
loop $-1 $100 $101 $42 #
cone-surface $-1 -52.287919032249413 -36.455052410321294 11.528526926816351 0 0.62932039886446345 -0.77714595512881146 1 0 0 1 I I 0 1 1 forward I I I I #
face $-1 $102 $103 $34 $-1 $104 forward single #
loop $-1 $105 $106 $43 #
cone-surface $-1 -47.105664767852687 -36.455052410321294 11.528526926816351 0 0.62932039886446345 -0.77714595512881146 1 0 0 1 I I 0 1 1 forward I I I I #
face $-1 $107 $108 $35 $-1 $109 forward single #
loop $-1 $110 $111 $44 #
cone-surface $-1 -41.923410503455962 -36.455052410321294 11.528526926816351 0 0.62932039886446345 -0.77714595512881146 1 0 0 1 I I 0 1 1 forward I I I I #
face $-1 $112 $113 $27 $-1 $114 reversed single #
loop $-1 $-1 $115 $45 #
plane-surface $-1 0 0 -20.951394045740575 0 0 1 1 0 0 forward_v I I I I #
coedge $-1 $116 $117 $118 $119 forward $46 $-1 #
face $-1 $120 $121 $28 $-1 $122 forward single #
loop $-1 $-1 $123 $48 #
plane-surface $-1 -55.742755208513898 -45.009698034183188 0 -1 0 0 0 0 1 forward_v I I I I #
coedge $-1 $124 $125 $126 $127 forward $49 $-1 #
face $-1 $128 $129 $29 $-1 $130 forward single #
loop $-1 $-1 $131 $51 #
plane-surface $-1 67.294577775160604 -42.180009800612069 0 0 -1 0 0 0 -1 forward_v I I I I #
coedge $-1 $132 $133 $134 $135 forward $52 $-1 #
face $-1 $136 $137 $30 $-1 $138 reversed single #
loop $-1 $-1 $139 $54 #
plane-surface $-1 -43.989092376666513 -8.3991841083386873 81.893191389267713 0 0.80901700255871778 0.5877852410284794 1 0 0 forward_v I I I I #
coedge $-1 $140 $141 $142 $143 reversed $55 $-1 #
face $-1 $-1 $144 $31 $-1 $145 forward single #
loop $-1 $146 $147 $57 #
cone-surface $-1 -43.989092376666513 34.584906297940094 7.4348377944717008 0 -0.80901700255871778 -0.5877852410284794 1 0 0 1 I I -0.70710678118654746 0.70710678118654746 1 forward I I I I #
loop $-1 $-1 $148 $40 #
coedge $-1 $92 $92 $149 $150 reversed $58 $-1 #
face $-1 $151 $152 $32 $-1 $153 forward single #
loop $-1 $-1 $154 $60 #
plane-surface $-1 -38.468574327191476 -147.07868249202099 125.84125588848379 -1 0 0 0 -0.62932039886446345 0.77714595512881146 forward_v I I I I #
coedge $-1 $155 $156 $157 $158 reversed $61 $-1 #
face $-1 $-1 $159 $33 $-1 $160 forward single #
loop $-1 $161 $162 $63 #
cone-surface $-1 -52.287919032249413 -35.660484270991425 10.547317011058606 0 0.62932039886446345 -0.77714595512881146 0.5 0 0 1 I I -0.70710678118654746 0.70710678118654746 0.5 forward I I I I #
loop $-1 $-1 $163 $42 #
coedge $-1 $101 $101 $164 $165 reversed $64 $-1 #
face $-1 $-1 $166 $34 $-1 $167 forward single #
loop $-1 $168 $169 $66 #
cone-surface $-1 -47.105664767852687 -35.660484270991425 10.547317011058606 0 0.62932039886446345 -0.77714595512881146 0.5 0 0 1 I I -0.70710678118654746 0.70710678118654746 0.5 forward I I I I #
loop $-1 $-1 $170 $43 #
coedge $-1 $106 $106 $171 $172 reversed $67 $-1 #
face $-1 $-1 $173 $35 $-1 $174 forward single #
loop $-1 $175 $176 $69 #
cone-surface $-1 -41.923410503455962 -35.660484270991425 10.547317011058606 0 0.62932039886446345 -0.77714595512881146 0.5 0 0 1 I I -0.70710678118654746 0.70710678118654746 0.5 forward I I I I #
loop $-1 $-1 $177 $44 #
coedge $-1 $111 $111 $178 $179 reversed $70 $-1 #
face $-1 $180 $181 $27 $-1 $182 reversed single #
loop $-1 $-1 $183 $72 #
plane-surface $-1 0 -47.839386267754307 0 0 1 0 0 0 1 forward_v I I I I #
coedge $-1 $184 $185 $186 $187 forward $73 $-1 #
coedge $-1 $188 $75 $189 $190 forward $46 $-1 #
coedge $-1 $75 $188 $191 $192 forward $46 $-1 #
coedge $-1 $193 $194 $75 $119 reversed $195 $-1 #
edge $-1 $196 -47.839386267754307 $197 47.839386267754307 $118 $198 forward 7 unknown #
face $-1 $199 $200 $28 $-1 $201 reversed single #
loop $-1 $-1 $202 $76 #
plane-surface $-1 0 0 20.951394045740575 0 0 1 1 0 0 forward_v I I I I #
coedge $-1 $203 $204 $205 $206 reversed $77 $-1 #
coedge $-1 $207 $79 $208 $209 reversed $49 $-1 #
coedge $-1 $79 $207 $210 $211 reversed $49 $-1 #
coedge $-1 $204 $203 $79 $127 reversed $77 $-1 #
edge $-1 $212 -20.951394045740575 $213 20.951394045740575 $126 $214 forward 7 unknown #
face $-1 $215 $216 $29 $-1 $217 reversed single #
loop $-1 $-1 $218 $80 #
plane-surface $-1 0 0 20.951394045740575 0 0 1 1 0 0 forward_v I I I I #
coedge $-1 $219 $220 $221 $222 reversed $81 $-1 #
coedge $-1 $223 $83 $224 $225 reversed $52 $-1 #
coedge $-1 $83 $223 $226 $227 reversed $52 $-1 #
coedge $-1 $220 $219 $83 $135 reversed $81 $-1 #
edge $-1 $228 -20.951394045740575 $229 20.951394045740575 $134 $230 forward 7 unknown #
face $-1 $231 $232 $30 $-1 $233 reversed single #
loop $-1 $-1 $234 $84 #
plane-surface $-1 -32.235429544819127 119.17697282580853 174.5826922475421 -1 0 0 0 0.80901700255871778 0.5877852410284794 forward_v I I I I #
coedge $-1 $235 $236 $237 $238 reversed $85 $-1 #
coedge $-1 $141 $87 $239 $240 reversed $55 $-1 #
coedge $-1 $87 $140 $235 $241 reversed $55 $-1 #
coedge $-1 $237 $242 $87 $143 forward $243 $-1 #
edge $-1 $244 11.74910014514996 $245 23.710864314473511 $142 $246 forward 7 unknown #
loop $-1 $-1 $149 $88 #
plane-surface $-1 -43.989092376666513 -8.3991841083386873 81.893191389267713 0 0.80901700255871778 0.5877852410284794 1 0 0 forward_v I I I I #
loop $-1 $-1 $247 $57 #
coedge $-1 $147 $147 $148 $248 reversed $89 $-1 #
coedge $-1 $148 $148 $147 $248 forward $91 $-1 #
coedge $-1 $149 $149 $92 $150 forward $144 $-1 #
edge $-1 $249 -8.5339476790408293e-016 $249 6.2831853071795996 $149 $250 forward 7 unknown #
face $-1 $251 $252 $32 $-1 $253 forward single #
loop $-1 $-1 $254 $93 #
plane-surface $-1 0 0 20.951394045740575 0 0 1 1 0 0 forward_v I I I I #
coedge $-1 $255 $256 $257 $258 reversed $94 $-1 #
coedge $-1 $259 $96 $260 $261 reversed $61 $-1 #
coedge $-1 $96 $259 $255 $262 forward $61 $-1 #
coedge $-1 $257 $263 $96 $158 forward $264 $-1 #
edge $-1 $265 -32.189922824587555 $266 -14.915741943265132 $157 $267 forward 7 unknown #
loop $-1 $-1 $164 $97 #
plane-surface $-1 -47.105664767852687 -47.839386267754307 3.2909336842788122 0 -0.62932039886446345 0.77714595512881146 1 0 0 forward_v I I I I #
loop $-1 $-1 $268 $63 #
coedge $-1 $162 $162 $163 $269 reversed $98 $-1 #
coedge $-1 $163 $163 $162 $269 forward $100 $-1 #
coedge $-1 $164 $164 $101 $165 forward $159 $-1 #
edge $-1 $270 5.5219541304212176e-015 $270 6.2831853071796058 $164 $271 forward 7 unknown #
loop $-1 $-1 $171 $102 #
plane-surface $-1 -47.105664767852687 -47.839386267754307 3.2909336842788122 0 -0.62932039886446345 0.77714595512881146 1 0 0 forward_v I I I I #
loop $-1 $-1 $272 $66 #
coedge $-1 $169 $169 $170 $273 reversed $103 $-1 #
coedge $-1 $170 $170 $169 $273 forward $105 $-1 #
coedge $-1 $171 $171 $106 $172 forward $166 $-1 #
edge $-1 $274 5.5219541304212176e-015 $274 6.2831853071796058 $171 $275 forward 7 unknown #
loop $-1 $-1 $178 $107 #
plane-surface $-1 -47.105664767852687 -47.839386267754307 3.2909336842788122 0 -0.62932039886446345 0.77714595512881146 1 0 0 forward_v I I I I #
loop $-1 $-1 $276 $69 #
coedge $-1 $176 $176 $177 $277 reversed $108 $-1 #
coedge $-1 $177 $177 $176 $277 forward $110 $-1 #
coedge $-1 $178 $178 $111 $179 forward $173 $-1 #
edge $-1 $278 5.5219541304212176e-015 $278 6.2831853071796058 $178 $279 forward 7 unknown #
face $-1 $280 $281 $27 $-1 $282 reversed single #
loop $-1 $-1 $283 $112 #
plane-surface $-1 -78.84640034180731 0 0 1 0 0 0 0 -1 forward_v I I I I #
coedge $-1 $284 $191 $285 $286 forward $113 $-1 #
coedge $-1 $287 $115 $284 $288 forward $73 $-1 #
coedge $-1 $115 $287 $289 $290 forward $73 $-1 #
coedge $-1 $194 $193 $115 $187 reversed $195 $-1 #
edge $-1 $291 -47.839386267754307 $292 47.839386267754307 $186 $293 forward 7 unknown #
coedge $-1 $117 $116 $294 $295 forward $46 $-1 #
coedge $-1 $296 $297 $116 $190 reversed $281 $-1 #
edge $-1 $197 -78.84640034180731 $298 78.84640034180731 $189 $299 forward 7 unknown #
coedge $-1 $183 $300 $117 $192 reversed $113 $-1 #
edge $-1 $301 -78.84640034180731 $196 78.84640034180731 $191 $302 forward 7 unknown #
coedge $-1 $186 $118 $300 $303 forward $195 $-1 #
coedge $-1 $118 $186 $296 $304 reversed $195 $-1 #
loop $-1 $-1 $193 $280 #
vertex $-1 $119 $305 #
vertex $-1 $119 $306 #
straight-curve $-1 78.84640034180731 0 20.951394045740575 0 1 0 I I #
face $-1 $307 $308 $28 $-1 $309 reversed single #
loop $-1 $-1 $310 $120 #
plane-surface $-1 -78.84640034180731 0 0 1 0 0 0 0 -1 forward_v I I I I #
coedge $-1 $210 $311 $204 $312 forward $121 $-1 #
coedge $-1 $126 $123 $313 $314 reversed $77 $-1 #
coedge $-1 $123 $126 $202 $312 reversed $77 $-1 #
coedge $-1 $315 $316 $123 $206 forward $317 $-1 #
edge $-1 $318 -20.951394045740575 $319 20.951394045740575 $205 $320 forward 7 unknown #
coedge $-1 $125 $124 $310 $321 reversed $49 $-1 #
coedge $-1 $313 $322 $124 $209 forward $308 $-1 #
edge $-1 $323 -45.199111454227008 $213 -22.095466320933596 $208 $324 forward 7 unknown #
coedge $-1 $325 $202 $125 $211 forward $121 $-1 #
edge $-1 $212 22.095466320933596 $326 45.199111454227008 $210 $327 forward 7 unknown #
vertex $-1 $211 $328 #
vertex $-1 $209 $329 #
straight-curve $-1 -55.742755208513898 -42.180009800612069 0 0 0 -1 I I #
face $-1 $330 $331 $29 $-1 $332 reversed single #
loop $-1 $-1 $333 $128 #
plane-surface $-1 0 -47.839386267754307 0 0 1 0 0 0 1 forward_v I I I I #
coedge $-1 $226 $334 $220 $335 forward $129 $-1 #
coedge $-1 $134 $131 $336 $337 reversed $81 $-1 #
coedge $-1 $131 $134 $218 $335 reversed $81 $-1 #
coedge $-1 $338 $339 $131 $222 forward $340 $-1 #
edge $-1 $341 -20.951394045740575 $342 20.951394045740575 $221 $343 forward 7 unknown #
coedge $-1 $133 $132 $333 $344 reversed $52 $-1 #
coedge $-1 $336 $345 $132 $225 forward $331 $-1 #
edge $-1 $346 -25.334537250662713 $229 -19.675160783520475 $224 $347 forward 7 unknown #
coedge $-1 $348 $218 $133 $227 forward $129 $-1 #
edge $-1 $228 19.675160783520475 $349 25.334537250662713 $226 $350 forward 7 unknown #
vertex $-1 $227 $351 #
vertex $-1 $225 $352 #
straight-curve $-1 55.742755208513898 -42.180009800612069 0 0 0 -1 I I #
face $-1 $-1 $243 $30 $-1 $353 forward single #
loop $-1 $-1 $354 $136 #
plane-surface $-1 0 47.839386267754307 0 0 -1 0 0 0 -1 forward_v I I I I #
coedge $-1 $355 $356 $357 $358 reversed $137 $-1 #
coedge $-1 $359 $139 $141 $241 forward $85 $-1 #
coedge $-1 $139 $359 $355 $360 forward $85 $-1 #
coedge $-1 $357 $142 $139 $238 forward $243 $-1 #
edge $-1 $245 -33.748209020180639 $361 -10.24088335648587 $237 $362 forward 7 unknown #
coedge $-1 $363 $364 $140 $240 forward $232 $-1 #
edge $-1 $365 -82.803908499677902 $244 -66.339952078030478 $239 $366 forward 7 unknown #
edge $-1 $245 75.328203425618412 $365 95.678772535508642 $141 $367 forward 7 unknown #
coedge $-1 $142 $357 $363 $368 forward $243 $-1 #
loop $-1 $-1 $357 $231 #
vertex $-1 $240 $369 #
vertex $-1 $143 $370 #
straight-curve $-1 -55.742755208513898 59.588486412904267 20.951394045740571 0 -1 0 I I #
coedge $-1 $247 $247 $-1 $371 reversed $146 $-1 #
edge $-1 $372 0 $372 6.2831853071796004 $147 $373 forward 7 unknown #
vertex $-1 $150 $374 #
ellipse-curve $-1 -43.989092376666513 41.858504183092535 12.719415834916861 0 0.80901700255871778 0.5877852410284794 2 0 0 1 I I #
face $-1 $-1 $264 $32 $-1 $375 reversed single #
loop $-1 $-1 $260 $151 #
plane-surface $-1 -55.742755208513898 -45.009698034183188 0 -1 0 0 0 0 1 forward_v I I I I #
coedge $-1 $376 $377 $256 $378 forward $152 $-1 #
coedge $-1 $256 $154 $156 $262 reversed $94 $-1 #
coedge $-1 $154 $255 $254 $378 reversed $94 $-1 #
coedge $-1 $379 $157 $154 $258 forward $264 $-1 #
edge $-1 $266 -59.629694259963081 $380 -41.969233898501315 $257 $381 forward 7 unknown #
coedge $-1 $156 $155 $376 $382 reversed $61 $-1 #
coedge $-1 $383 $384 $155 $261 forward $252 $-1 #
edge $-1 $385 -27.998734415349681 $265 0.064014533084275779 $260 $386 forward 7 unknown #
edge $-1 $387 -28.062748948433956 $266 0 $255 $388 forward 7 unknown #
coedge $-1 $157 $379 $383 $389 forward $264 $-1 #
loop $-1 $-1 $257 $251 #
vertex $-1 $261 $390 #
vertex $-1 $158 $391 #
straight-curve $-1 -23.552832383926344 -47.839386267754307 3.2909336842788095 1 0 0 I I #
coedge $-1 $268 $268 $-1 $392 reversed $161 $-1 #
edge $-1 $393 0 $393 6.2831853071796004 $162 $394 forward 7 unknown #
vertex $-1 $165 $395 #
ellipse-curve $-1 -52.287919032249413 -36.93496035021893 12.121163865009692 0 -0.62932039886446345 0.77714595512881146 1 0 0 1 I I #
coedge $-1 $272 $272 $-1 $396 reversed $168 $-1 #
edge $-1 $397 0 $397 6.2831853071796004 $169 $398 forward 7 unknown #
vertex $-1 $172 $399 #
ellipse-curve $-1 -47.105664767852687 -36.93496035021893 12.121163865009692 0 -0.62932039886446345 0.77714595512881146 1 0 0 1 I I #
coedge $-1 $276 $276 $-1 $400 reversed $175 $-1 #
edge $-1 $401 0 $401 6.2831853071796004 $176 $402 forward 7 unknown #
vertex $-1 $179 $403 #
ellipse-curve $-1 -41.923410503455962 -36.93496035021893 12.121163865009692 0 -0.62932039886446345 0.77714595512881146 1 0 0 1 I I #
face $-1 $-1 $195 $27 $-1 $404 reversed single #
loop $-1 $-1 $296 $180 #
plane-surface $-1 0 47.839386267754307 0 0 -1 0 0 0 -1 forward_v I I I I #
coedge $-1 $405 $294 $297 $406 forward $181 $-1 #
coedge $-1 $300 $183 $184 $288 reversed $113 $-1 #
coedge $-1 $294 $405 $183 $286 reversed $181 $-1 #
edge $-1 $301 -20.951394045740575 $407 20.951394045740575 $285 $408 forward 7 unknown #
coedge $-1 $185 $184 $405 $409 forward $73 $-1 #
edge $-1 $292 -78.84640034180731 $407 78.84640034180731 $284 $410 forward 7 unknown #
coedge $-1 $297 $296 $185 $290 reversed $281 $-1 #
edge $-1 $411 -78.84640034180731 $291 78.84640034180731 $289 $412 forward 7 unknown #
vertex $-1 $187 $413 #
vertex $-1 $303 $414 #
straight-curve $-1 78.84640034180731 0 -20.951394045740575 0 -1 0 I I #
coedge $-1 $283 $285 $188 $295 reversed $181 $-1 #
edge $-1 $298 -47.839386267754307 $301 47.839386267754307 $294 $415 forward 7 unknown #
coedge $-1 $289 $189 $194 $304 forward $281 $-1 #
coedge $-1 $189 $289 $283 $406 reversed $281 $-1 #
vertex $-1 $190 $416 #
straight-curve $-1 0 47.839386267754307 20.951394045740575 -1 0 0 I I #
coedge $-1 $191 $284 $193 $303 reversed $113 $-1 #
vertex $-1 $295 $417 #
straight-curve $-1 0 -47.839386267754307 20.951394045740575 1 0 0 I I #
edge $-1 $196 -20.951394045740575 $292 20.951394045740575 $193 $418 forward 7 unknown #
edge $-1 $197 -20.951394045740575 $291 20.951394045740575 $194 $419 forward 7 unknown #
point $-1 78.84640034180731 -47.839386267754307 20.951394045740575 #
point $-1 78.84640034180731 47.839386267754307 20.951394045740575 #
face $-1 $-1 $317 $28 $-1 $420 reversed single #
loop $-1 $-1 $313 $199 #
plane-surface $-1 0 0 -20.951394045740575 0 0 1 1 0 0 forward_v I I I I #
coedge $-1 $421 $422 $207 $321 forward $200 $-1 #
coedge $-1 $202 $325 $315 $423 forward $121 $-1 #
edge $-1 $319 -25.334537250662713 $212 -19.675160783520475 $202 $424 forward 7 unknown #
coedge $-1 $425 $208 $203 $314 forward $308 $-1 #
edge $-1 $213 19.675160783520475 $318 25.334537250662713 $313 $426 forward 7 unknown #
coedge $-1 $427 $205 $311 $423 reversed $317 $-1 #
coedge $-1 $205 $427 $425 $428 reversed $317 $-1 #
loop $-1 $-1 $205 $307 #
vertex $-1 $428 $429 #
vertex $-1 $206 $430 #
straight-curve $-1 -55.742755208513898 -47.839386267754307 0 0 0 1 I I #
edge $-1 $326 -20.951394045740575 $323 20.951394045740575 $310 $431 forward 7 unknown #
coedge $-1 $208 $425 $421 $432 forward $308 $-1 #
vertex $-1 $209 $433 #
straight-curve $-1 -33.647288887580302 -42.180009800612069 -20.951394045740575 1 0 0 I I #
coedge $-1 $311 $210 $422 $434 forward $121 $-1 #
vertex $-1 $434 $435 #
straight-curve $-1 -33.647288887580302 -42.180009800612069 20.951394045740575 -1 0 0 I I #
point $-1 -55.742755208513898 -42.180009800612069 20.951394045740575 #
point $-1 -55.742755208513898 -42.180009800612069 -20.951394045740575 #
face $-1 $-1 $340 $29 $-1 $436 reversed single #
loop $-1 $-1 $336 $215 #
plane-surface $-1 0 0 -20.951394045740575 0 0 1 1 0 0 forward_v I I I I #
coedge $-1 $437 $438 $223 $344 forward $216 $-1 #
coedge $-1 $218 $348 $338 $439 forward $129 $-1 #
edge $-1 $342 -45.199111454227008 $228 -22.095466320933596 $218 $440 forward 7 unknown #
coedge $-1 $441 $224 $219 $337 forward $331 $-1 #
edge $-1 $229 22.095466320933596 $341 45.199111454227008 $336 $442 forward 7 unknown #
coedge $-1 $443 $221 $334 $439 reversed $340 $-1 #
coedge $-1 $221 $443 $441 $444 reversed $340 $-1 #
loop $-1 $-1 $221 $330 #
vertex $-1 $444 $445 #
vertex $-1 $222 $446 #
straight-curve $-1 78.84640034180731 -42.180009800612069 0 0 0 1 I I #
edge $-1 $349 -20.951394045740575 $346 20.951394045740575 $333 $447 forward 7 unknown #
coedge $-1 $224 $441 $437 $448 forward $331 $-1 #
vertex $-1 $225 $449 #
straight-curve $-1 55.742755208513898 -22.504849017091594 -20.951394045740575 0 1 0 I I #
coedge $-1 $334 $226 $438 $450 forward $129 $-1 #
vertex $-1 $450 $451 #
straight-curve $-1 55.742755208513898 -22.504849017091594 20.951394045740575 0 -1 0 I I #
point $-1 55.742755208513898 -42.180009800612069 20.951394045740575 #
point $-1 55.742755208513898 -42.180009800612069 -20.951394045740575 #
plane-surface $-1 0 0 20.951394045740575 0 0 1 1 0 0 forward_v I I I I #
coedge $-1 $364 $363 $356 $452 forward $232 $-1 #
coedge $-1 $356 $234 $236 $360 reversed $137 $-1 #
coedge $-1 $234 $355 $354 $452 reversed $137 $-1 #
coedge $-1 $242 $237 $234 $358 forward $243 $-1 #
edge $-1 $361 -23.710864314473511 $453 -11.74910014514996 $357 $454 forward 7 unknown #
coedge $-1 $236 $235 $364 $455 reversed $85 $-1 #
edge $-1 $456 -95.678772535508642 $361 -75.328203425618412 $355 $457 forward 7 unknown #
vertex $-1 $238 $458 #
straight-curve $-1 -21.994546188333256 35.877622098430763 20.951394045740571 1 0 0 I I #
coedge $-1 $354 $239 $242 $368 reversed $232 $-1 #
coedge $-1 $239 $354 $359 $455 forward $232 $-1 #
vertex $-1 $240 $459 #
straight-curve $-1 -55.742755208513898 47.839386267754307 87.291346123771049 0 0 1 I I #
straight-curve $-1 -55.742755208513898 -8.3991841083386873 81.893191389267713 0 0.5877852410284794 -0.80901700255871778 I I #
edge $-1 $453 32.235429544819127 $244 55.742755208513898 $363 $460 forward 7 unknown #
point $-1 -55.742755208513898 47.839386267754307 20.951394045740575 #
point $-1 -55.742755208513898 35.877622098430756 20.951394045740571 #
edge $-1 $461 1 $461 0 $247 $-1 forward 7 unknown #
vertex $-1 $248 $462 #
ellipse-curve $-1 -43.989092376666513 35.393923300498813 8.02262303550018 0 0.80901700255871778 0.5877852410284794 2 0 0 1 I I #
point $-1 -41.989092376666513 41.858504183092549 12.719415834916873 #
plane-surface $-1 0 -47.839386267754307 0 0 1 0 0 0 1 forward_v I I I I #
coedge $-1 $463 $254 $259 $382 forward $152 $-1 #
coedge $-1 $254 $463 $379 $464 forward $152 $-1 #
edge $-1 $380 25.699954978256187 $387 47.508806813326942 $254 $465 forward 7 unknown #
coedge $-1 $263 $257 $377 $464 reversed $264 $-1 #
vertex $-1 $258 $466 #
straight-curve $-1 -38.468574327191476 -47.839386267754307 62.920627944241893 0 0 1 I I #
edge $-1 $387 14.915741943265132 $385 32.189922824587555 $376 $467 forward 7 unknown #
coedge $-1 $384 $260 $263 $389 reversed $252 $-1 #
coedge $-1 $260 $383 $463 $468 reversed $252 $-1 #
vertex $-1 $382 $469 #
straight-curve $-1 -55.742755208513898 -47.789637632298401 3.3312193357725293 0 -0.77714595512881146 -0.62932039886446345 I I #
vertex $-1 $382 $470 #
straight-curve $-1 -38.468574327191476 -47.839386267754307 3.2909336842788122 0 -0.77714595512881146 -0.62932039886446345 I I #
edge $-1 $471 -20.951394045740575 $265 -3.2909336842788122 $263 $472 forward 7 unknown #
point $-1 -55.742755208513898 -47.839386267754307 3.2909336842788122 #
point $-1 -38.468574327191476 -47.839386267754307 3.2909336842788122 #
edge $-1 $473 1 $473 0 $268 $-1 forward 7 unknown #
vertex $-1 $269 $474 #
ellipse-curve $-1 -52.287919032249413 -35.975144470423658 10.935889988623012 0 -0.62932039886446345 0.77714595512881146 1 0 0 1 I I #
point $-1 -51.287919032249413 -36.934960350218923 12.121163865009692 #
edge $-1 $475 1 $475 0 $272 $-1 forward 7 unknown #
vertex $-1 $273 $476 #
ellipse-curve $-1 -47.105664767852687 -35.975144470423658 10.935889988623012 0 -0.62932039886446345 0.77714595512881146 1 0 0 1 I I #
point $-1 -46.105664767852687 -36.934960350218923 12.121163865009692 #
edge $-1 $477 1 $477 0 $276 $-1 forward 7 unknown #
vertex $-1 $277 $478 #
ellipse-curve $-1 -41.923410503455962 -35.975144470423658 10.935889988623012 0 -0.62932039886446345 0.77714595512881146 1 0 0 1 I I #
point $-1 -40.923410503455962 -36.934960350218923 12.121163865009692 #
plane-surface $-1 78.84640034180731 0 0 -1 0 0 0 0 1 forward_v I I I I #
coedge $-1 $285 $283 $287 $409 reversed $181 $-1 #
edge $-1 $298 -20.951394045740575 $411 20.951394045740575 $297 $479 forward 7 unknown #
vertex $-1 $409 $480 #
straight-curve $-1 -78.84640034180731 -47.839386267754307 0 0 0 -1 I I #
edge $-1 $407 -47.839386267754307 $411 47.839386267754307 $405 $481 forward 7 unknown #
straight-curve $-1 0 -47.839386267754307 -20.951394045740575 -1 0 0 I I #
vertex $-1 $290 $482 #
straight-curve $-1 0 47.839386267754307 -20.951394045740575 1 0 0 I I #
point $-1 78.84640034180731 47.839386267754307 -20.951394045740575 #
point $-1 78.84640034180731 -47.839386267754307 -20.951394045740575 #
straight-curve $-1 -78.84640034180731 0 20.951394045740575 0 -1 0 I I #
point $-1 -78.84640034180731 47.839386267754307 20.951394045740575 #
point $-1 -78.84640034180731 -47.839386267754307 20.951394045740575 #
straight-curve $-1 78.84640034180731 -47.839386267754307 0 0 0 -1 I I #
straight-curve $-1 78.84640034180731 47.839386267754307 0 0 0 -1 I I #
plane-surface $-1 0 -47.839386267754307 0 0 1 0 0 0 1 forward_v I I I I #
coedge $-1 $483 $310 $322 $432 reversed $200 $-1 #
coedge $-1 $310 $483 $325 $434 reversed $200 $-1 #
edge $-1 $484 -78.84640034180731 $319 -55.742755208513898 $315 $485 forward 7 unknown #
straight-curve $-1 -55.742755208513898 -22.504849017091594 20.951394045740575 0 1 0 I I #
coedge $-1 $322 $313 $316 $428 forward $308 $-1 #
straight-curve $-1 -55.742755208513898 -22.504849017091594 -20.951394045740575 0 -1 0 I I #
coedge $-1 $316 $315 $483 $486 forward $317 $-1 #
edge $-1 $318 55.742755208513898 $487 78.84640034180731 $316 $488 forward 7 unknown #
point $-1 -55.742755208513898 -47.839386267754307 -20.951394045740575 #
point $-1 -55.742755208513898 -47.839386267754307 20.951394045740575 #
straight-curve $-1 -78.84640034180731 -42.180009800612069 0 0 0 -1 I I #
edge $-1 $487 -47.839386267754307 $323 -42.180009800612069 $421 $489 forward 7 unknown #
point $-1 -78.84640034180731 -42.180009800612069 -20.951394045740575 #
edge $-1 $326 42.180009800612069 $484 47.839386267754307 $422 $490 forward 7 unknown #
point $-1 -78.84640034180731 -42.180009800612069 20.951394045740575 #
plane-surface $-1 78.84640034180731 0 0 -1 0 0 0 0 1 forward_v I I I I #
coedge $-1 $491 $333 $345 $448 reversed $216 $-1 #
coedge $-1 $333 $491 $348 $450 reversed $216 $-1 #
edge $-1 $492 -47.839386267754307 $342 -42.180009800612069 $338 $493 forward 7 unknown #
straight-curve $-1 33.647288887580302 -42.180009800612069 20.951394045740575 -1 0 0 I I #
coedge $-1 $345 $336 $339 $444 forward $331 $-1 #
straight-curve $-1 33.647288887580302 -42.180009800612069 -20.951394045740575 1 0 0 I I #
coedge $-1 $339 $338 $491 $494 forward $340 $-1 #
edge $-1 $341 42.180009800612069 $495 47.839386267754307 $339 $496 forward 7 unknown #
point $-1 78.84640034180731 -42.180009800612069 -20.951394045740575 #
point $-1 78.84640034180731 -42.180009800612069 20.951394045740575 #
straight-curve $-1 55.742755208513898 -47.839386267754307 0 0 0 -1 I I #
edge $-1 $495 -78.84640034180731 $346 -55.742755208513898 $437 $497 forward 7 unknown #
point $-1 55.742755208513898 -47.839386267754307 -20.951394045740575 #
edge $-1 $349 55.742755208513898 $492 78.84640034180731 $438 $498 forward 7 unknown #
point $-1 55.742755208513898 -47.839386267754307 20.951394045740575 #
edge $-1 $453 66.339952078030478 $456 82.803908499677902 $354 $499 forward 7 unknown #
vertex $-1 $368 $500 #
straight-curve $-1 -32.235429544819127 59.588486412904267 20.951394045740571 0 1 0 I I #
edge $-1 $456 10.24088335648587 $365 33.748209020180639 $364 $501 forward 7 unknown #
vertex $-1 $455 $502 #
straight-curve $-1 -32.235429544819127 -8.3991841083386873 81.893191389267713 0 -0.5877852410284794 0.80901700255871778 I I #
point $-1 -32.235429544819127 35.877622098430756 20.951394045740571 #
point $-1 -55.742755208513898 47.839386267754307 4.4874376240931468 #
straight-curve $-1 0 47.839386267754307 20.951394045740575 -1 0 0 I I #
vertex $-1 $371 $503 #
point $-1 -41.989092376666513 35.393923300498813 8.02262303550018 #
coedge $-1 $377 $376 $384 $468 forward $152 $-1 #
edge $-1 $471 -55.742755208513898 $380 -38.468574327191476 $379 $504 forward 7 unknown #
straight-curve $-1 -38.468574327191476 -73.539341246010494 20.951394045740571 0 1 0 I I #
point $-1 -38.468574327191476 -47.839386267754307 20.951394045740575 #
straight-curve $-1 -23.552832383926344 -26.030534432683549 20.951394045740575 -1 0 0 I I #
edge $-1 $385 -47.508806813326942 $471 -25.699954978256187 $463 $505 forward 7 unknown #
point $-1 -55.742755208513898 -26.030534432683549 20.951394045740575 #
point $-1 -38.468574327191476 -26.030534432683549 20.951394045740575 #
vertex $-1 $464 $506 #
straight-curve $-1 -55.742755208513898 -47.839386267754307 0 0 0 -1 I I #
vertex $-1 $392 $507 #
point $-1 -51.287919032249413 -35.975144470423658 10.935889988623012 #
vertex $-1 $396 $508 #
point $-1 -46.105664767852687 -35.975144470423658 10.935889988623012 #
vertex $-1 $400 $509 #
point $-1 -40.923410503455962 -35.975144470423658 10.935889988623012 #
straight-curve $-1 -78.84640034180731 47.839386267754307 0 0 0 -1 I I #
point $-1 -78.84640034180731 -47.839386267754307 -20.951394045740575 #
straight-curve $-1 -78.84640034180731 0 -20.951394045740575 0 1 0 I I #
point $-1 -78.84640034180731 47.839386267754307 -20.951394045740575 #
coedge $-1 $422 $421 $427 $486 reversed $200 $-1 #
vertex $-1 $434 $510 #
straight-curve $-1 0 -47.839386267754307 20.951394045740575 1 0 0 I I #
edge $-1 $484 -20.951394045740575 $487 20.951394045740575 $483 $511 forward 7 unknown #
vertex $-1 $432 $512 #
straight-curve $-1 0 -47.839386267754307 -20.951394045740575 -1 0 0 I I #
straight-curve $-1 -78.84640034180731 0 -20.951394045740575 0 1 0 I I #
straight-curve $-1 -78.84640034180731 0 20.951394045740575 0 -1 0 I I #
coedge $-1 $438 $437 $443 $494 reversed $216 $-1 #
vertex $-1 $439 $513 #
straight-curve $-1 78.84640034180731 0 20.951394045740575 0 1 0 I I #
edge $-1 $492 -20.951394045740575 $495 20.951394045740575 $443 $514 forward 7 unknown #
vertex $-1 $494 $515 #
straight-curve $-1 78.84640034180731 0 -20.951394045740575 0 -1 0 I I #
straight-curve $-1 0 -47.839386267754307 -20.951394045740575 -1 0 0 I I #
straight-curve $-1 0 -47.839386267754307 20.951394045740575 1 0 0 I I #
straight-curve $-1 -32.235429544819127 47.839386267754307 87.291346123771049 0 0 -1 I I #
point $-1 -32.235429544819127 47.839386267754307 20.951394045740575 #
straight-curve $-1 -21.994546188333256 47.839386267754307 4.4874376240931539 -1 0 0 I I #
point $-1 -32.235429544819127 47.839386267754307 4.4874376240931468 #
point $-1 -43.989092376666513 33.775889295381376 6.8470525534432216 #
straight-curve $-1 0 -47.839386267754307 20.951394045740575 1 0 0 I I #
straight-curve $-1 -55.742755208513898 -73.539341246010494 20.951394045740571 0 -1 0 I I #
point $-1 -55.742755208513898 -47.839386267754307 20.951394045740575 #
point $-1 -52.287919032249413 -35.345824071559193 10.1587440334942 #
point $-1 -47.105664767852687 -35.345824071559193 10.1587440334942 #
point $-1 -41.923410503455962 -35.345824071559193 10.1587440334942 #
point $-1 -78.84640034180731 -47.839386267754307 20.951394045740575 #
straight-curve $-1 -78.84640034180731 -47.839386267754307 0 0 0 -1 I I #
point $-1 -78.84640034180731 -47.839386267754307 -20.951394045740575 #
point $-1 78.84640034180731 -47.839386267754307 20.951394045740575 #
straight-curve $-1 78.84640034180731 -47.839386267754307 0 0 0 -1 I I #
point $-1 78.84640034180731 -47.839386267754307 -20.951394045740575 #
End-of-ACIS-data 