500 0 9 0           
7 Unknown 11 ACIS 5.0 NT 24 Thu Mar 25 23:52:53 1999 
-1 9.9999999999999995e-007 1e-010 
body $-1 $9 $-1 $10 #
body $-1 $11 $-1 $12 #
body $-1 $13 $-1 $14 #
body $-1 $15 $-1 $16 #
body $-1 $17 $-1 $18 #
body $-1 $19 $-1 $20 #
body $-1 $21 $-1 $22 #
body $-1 $23 $-1 $24 #
body $-1 $25 $-1 $26 #
lump $-1 $-1 $27 $0 #
transform $-1 1 0 0 0 1 0 0 0 1 72.393566698202449 31.029349249231668 14.949049748778373 1 rotate no_reflect no_shear #
lump $-1 $-1 $28 $1 #
transform $-1 1 0 0 0 1 0 0 0 1 72.393566698202449 31.029349249231668 14.949049748778373 1 rotate no_reflect no_shear #
lump $-1 $-1 $29 $2 #
transform $-1 1 0 0 0 1 0 0 0 1 72.393566698202449 31.029349249231668 14.949049748778373 1 rotate no_reflect no_shear #
lump $-1 $-1 $30 $3 #
transform $-1 1 0 0 0 1 0 0 0 1 72.393566698202449 31.029349249231668 14.949049748778373 1 rotate no_reflect no_shear #
lump $-1 $-1 $31 $4 #
transform $-1 1 0 0 0 1 0 0 0 1 72.393566698202449 31.029349249231668 14.949049748778373 1 rotate no_reflect no_shear #
lump $-1 $-1 $32 $5 #
transform $-1 1 0 0 0 1 0 0 0 1 72.393566698202449 31.029349249231668 14.949049748778373 1 rotate no_reflect no_shear #
lump $-1 $-1 $33 $6 #
transform $-1 1 0 0 0 1 0 0 0 1 72.393566698202449 31.029349249231668 14.949049748778373 1 rotate no_reflect no_shear #
lump $-1 $-1 $34 $7 #
transform $-1 1 0 0 0 1 0 0 0 1 72.393566698202449 31.029349249231668 14.949049748778373 1 rotate no_reflect no_shear #
lump $-1 $-1 $35 $8 #
transform $-1 1 0 0 0 1 0 0 0 1 72.393566698202449 31.029349249231668 14.949049748778373 1 rotate no_reflect no_shear #
shell $-1 $-1 $-1 $36 $-1 $9 #
shell $-1 $-1 $-1 $37 $-1 $11 #
shell $-1 $-1 $-1 $38 $-1 $13 #
shell $-1 $-1 $-1 $39 $-1 $15 #
shell $-1 $-1 $-1 $40 $-1 $17 #
shell $-1 $-1 $-1 $41 $-1 $19 #
shell $-1 $-1 $-1 $42 $-1 $21 #
shell $-1 $-1 $-1 $43 $-1 $23 #
shell $-1 $-1 $-1 $44 $-1 $25 #
face $-1 $45 $46 $27 $-1 $47 forward single #
face $-1 $48 $49 $28 $-1 $50 reversed single #
face $-1 $51 $52 $29 $-1 $53 forward single #
face $-1 $54 $55 $30 $-1 $56 forward single #
face $-1 $57 $58 $31 $-1 $59 forward single #
face $-1 $60 $61 $32 $-1 $62 reversed single #
face $-1 $63 $64 $33 $-1 $65 forward single #
face $-1 $66 $67 $34 $-1 $68 forward single #
face $-1 $69 $70 $35 $-1 $71 forward single #
face $-1 $72 $73 $27 $-1 $74 reversed single #
loop $-1 $-1 $75 $36 #
plane-surface $-1 0 0 14.949049748778373 0 0 1 1 0 0 forward_v I I I I #
face $-1 $76 $77 $28 $-1 $78 reversed single #
loop $-1 $-1 $79 $37 #
plane-surface $-1 58.294639549407037 -31.029349249231657 1.9568041307395845 0 -0.64278761758704617 0.76604443648966558 1 0 0 forward_v I I I I #
face $-1 $80 $81 $29 $-1 $82 forward single #
loop $-1 $83 $84 $38 #
cone-surface $-1 49.835283260129799 -22.272023384404509 7.242643592713689 0 0.64278761758704617 -0.76604443648966558 2 0 0 1 I I 0 1 2 forward I I I I #
face $-1 $85 $86 $30 $-1 $87 forward single #
loop $-1 $88 $89 $39 #
cone-surface $-1 58.294639549407037 -22.272023384404509 7.242643592713689 0 0.64278761758704617 -0.76604443648966558 2 0 0 1 I I 0 1 2 forward I I I I #
face $-1 $90 $91 $31 $-1 $92 forward single #
loop $-1 $93 $94 $40 #
cone-surface $-1 66.75399583868429 -22.272023384404509 7.242643592713689 0 0.64278761758704617 -0.76604443648966558 2 0 0 1 I I 0 1 2 forward I I I I #
face $-1 $95 $96 $32 $-1 $97 reversed single #
loop $-1 $-1 $98 $41 #
plane-surface $-1 58.294639549407037 -16.51037147130576 41.847367089119629 0 0.64278761758704617 0.76604443648966558 1 0 0 forward_v I I I I #
face $-1 $99 $100 $33 $-1 $101 forward single #
loop $-1 $102 $103 $42 #
cone-surface $-1 49.835283260129799 22.272023384404513 7.2426435927136819 0 -0.64278761758704617 -0.76604443648966558 2 0 0 1 I I 0 1 2 forward I I I I #
face $-1 $104 $105 $34 $-1 $106 forward single #
loop $-1 $107 $108 $43 #
cone-surface $-1 58.294639549407037 22.272023384404513 7.2426435927136819 0 -0.64278761758704617 -0.76604443648966558 2 0 0 1 I I 0 1 2 forward I I I I #
face $-1 $109 $110 $35 $-1 $111 forward single #
loop $-1 $112 $113 $44 #
cone-surface $-1 66.75399583868429 22.272023384404513 7.2426435927136819 0 -0.64278761758704617 -0.76604443648966558 2 0 0 1 I I 0 1 2 forward I I I I #
face $-1 $114 $115 $27 $-1 $116 reversed single #
loop $-1 $-1 $117 $45 #
plane-surface $-1 0 0 -14.949049748778373 0 0 1 1 0 0 forward_v I I I I #
coedge $-1 $118 $119 $120 $121 forward $46 $-1 #
face $-1 $122 $123 $28 $-1 $124 reversed single #
loop $-1 $-1 $125 $48 #
plane-surface $-1 44.195712400611633 -124.09672578236462 112.87018214434262 1 0 0 0 0.64278761758704617 -0.76604443648966558 forward_v I I I I #
coedge $-1 $126 $127 $128 $129 reversed $49 $-1 #
face $-1 $-1 $130 $29 $-1 $131 forward single #
loop $-1 $132 $133 $51 #
cone-surface $-1 49.835283260129799 -20.613687435421127 5.2663158091787192 0 0.64278761758704617 -0.76604443648966558 1 0 0 1 I I -0.70710678118654746 0.70710678118654746 1 forward I I I I #
loop $-1 $-1 $134 $38 #
coedge $-1 $84 $84 $135 $136 reversed $52 $-1 #
face $-1 $-1 $137 $30 $-1 $138 forward single #
loop $-1 $139 $140 $54 #
cone-surface $-1 58.294639549407037 -20.613687435421127 5.2663158091787192 0 0.64278761758704617 -0.76604443648966558 1 0 0 1 I I -0.70710678118654746 0.70710678118654746 1 forward I I I I #
loop $-1 $-1 $141 $39 #
coedge $-1 $89 $89 $142 $143 reversed $55 $-1 #
face $-1 $-1 $144 $31 $-1 $145 forward single #
loop $-1 $146 $147 $57 #
cone-surface $-1 66.75399583868429 -20.613687435421127 5.2663158091787192 0 0.64278761758704617 -0.76604443648966558 1 0 0 1 I I -0.70710678118654746 0.70710678118654746 1 forward I I I I #
loop $-1 $-1 $148 $40 #
coedge $-1 $94 $94 $149 $150 reversed $58 $-1 #
face $-1 $151 $152 $32 $-1 $153 forward single #
loop $-1 $-1 $154 $60 #
plane-surface $-1 44.195712400611633 76.557005061827198 152.76074510272267 1 0 0 0 -0.64278761758704617 -0.76604443648966558 forward_v I I I I #
coedge $-1 $155 $156 $157 $158 reversed $61 $-1 #
face $-1 $-1 $159 $33 $-1 $160 forward single #
loop $-1 $161 $162 $63 #
cone-surface $-1 49.835283260129799 20.613687435421131 5.2663158091787121 0 -0.64278761758704617 -0.76604443648966558 1 0 0 1 I I -0.70710678118654746 0.70710678118654746 1 forward I I I I #
loop $-1 $-1 $163 $42 #
coedge $-1 $103 $103 $164 $165 reversed $64 $-1 #
face $-1 $-1 $166 $34 $-1 $167 forward single #
loop $-1 $168 $169 $66 #
cone-surface $-1 58.294639549407037 20.613687435421131 5.2663158091787121 0 -0.64278761758704617 -0.76604443648966558 1 0 0 1 I I -0.70710678118654746 0.70710678118654746 1 forward I I I I #
loop $-1 $-1 $170 $43 #
coedge $-1 $108 $108 $171 $172 reversed $67 $-1 #
face $-1 $-1 $173 $35 $-1 $174 forward single #
loop $-1 $175 $176 $69 #
cone-surface $-1 66.75399583868429 20.613687435421131 5.2663158091787121 0 -0.64278761758704617 -0.76604443648966558 1 0 0 1 I I -0.70710678118654746 0.70710678118654746 1 forward I I I I #
loop $-1 $-1 $177 $44 #
coedge $-1 $113 $113 $178 $179 reversed $70 $-1 #
face $-1 $180 $181 $27 $-1 $182 reversed single #
loop $-1 $-1 $183 $72 #
plane-surface $-1 0 -31.029349249231668 0 0 1 0 0 0 1 forward_v I I I I #
coedge $-1 $184 $185 $186 $187 forward $73 $-1 #
coedge $-1 $188 $75 $189 $190 forward $46 $-1 #
coedge $-1 $75 $188 $191 $192 forward $46 $-1 #
coedge $-1 $193 $194 $75 $121 reversed $195 $-1 #
edge $-1 $196 -31.029349249231668 $197 31.029349249231668 $120 $198 forward 7 unknown #
face $-1 $199 $200 $28 $-1 $201 forward single #
loop $-1 $-1 $202 $76 #
plane-surface $-1 0 -31.029349249231668 0 0 1 0 0 0 1 forward_v I I I I #
coedge $-1 $203 $204 $205 $206 reversed $77 $-1 #
coedge $-1 $207 $79 $208 $209 reversed $49 $-1 #
coedge $-1 $79 $207 $203 $210 forward $49 $-1 #
coedge $-1 $205 $211 $79 $129 forward $200 $-1 #
edge $-1 $212 -43.24624692349893 $213 -15.048392625908114 $128 $214 forward 7 unknown #
loop $-1 $-1 $135 $80 #
plane-surface $-1 58.294639549407037 -31.029349249231657 1.9568041307395845 0 -0.64278761758704617 0.76604443648966558 1 0 0 forward_v I I I I #
loop $-1 $-1 $215 $51 #
coedge $-1 $133 $133 $134 $216 reversed $81 $-1 #
coedge $-1 $134 $134 $133 $216 forward $83 $-1 #
coedge $-1 $135 $135 $84 $136 forward $130 $-1 #
edge $-1 $217 4.7079714480611997e-017 $217 6.2831853071796004 $135 $218 forward 7 unknown #
loop $-1 $-1 $142 $85 #
plane-surface $-1 58.294639549407037 -31.029349249231657 1.9568041307395845 0 -0.64278761758704617 0.76604443648966558 1 0 0 forward_v I I I I #
loop $-1 $-1 $219 $54 #
coedge $-1 $140 $140 $141 $220 reversed $86 $-1 #
coedge $-1 $141 $141 $140 $220 forward $88 $-1 #
coedge $-1 $142 $142 $89 $143 forward $137 $-1 #
edge $-1 $221 4.7079714480611997e-017 $221 6.2831853071796004 $142 $222 forward 7 unknown #
loop $-1 $-1 $149 $90 #
plane-surface $-1 58.294639549407037 -31.029349249231657 1.9568041307395845 0 -0.64278761758704617 0.76604443648966558 1 0 0 forward_v I I I I #
loop $-1 $-1 $223 $57 #
coedge $-1 $147 $147 $148 $224 reversed $91 $-1 #
coedge $-1 $148 $148 $147 $224 forward $93 $-1 #
coedge $-1 $149 $149 $94 $150 forward $144 $-1 #
edge $-1 $225 4.7079714480611997e-017 $225 6.2831853071796004 $149 $226 forward 7 unknown #
face $-1 $227 $228 $32 $-1 $229 reversed single #
loop $-1 $-1 $230 $95 #
plane-surface $-1 0 0 14.949049748778373 0 0 1 1 0 0 forward_v I I I I #
coedge $-1 $231 $232 $233 $234 reversed $96 $-1 #
coedge $-1 $235 $98 $236 $237 reversed $61 $-1 #
coedge $-1 $98 $235 $231 $238 forward $61 $-1 #
coedge $-1 $233 $239 $98 $158 forward $240 $-1 #
edge $-1 $241 -43.24624692349893 $242 -15.048392625908114 $157 $243 forward 7 unknown #
loop $-1 $-1 $164 $99 #
plane-surface $-1 58.294639549407037 -16.51037147130576 41.847367089119629 0 0.64278761758704617 0.76604443648966558 1 0 0 forward_v I I I I #
loop $-1 $-1 $244 $63 #
coedge $-1 $162 $162 $163 $245 reversed $100 $-1 #
coedge $-1 $163 $163 $162 $245 forward $102 $-1 #
coedge $-1 $164 $164 $103 $165 forward $159 $-1 #
edge $-1 $246 -1.8009361835111108e-016 $246 6.2831853071796004 $164 $247 forward 7 unknown #
loop $-1 $-1 $171 $104 #
plane-surface $-1 58.294639549407037 -16.51037147130576 41.847367089119629 0 0.64278761758704617 0.76604443648966558 1 0 0 forward_v I I I I #
loop $-1 $-1 $248 $66 #
coedge $-1 $169 $169 $170 $249 reversed $105 $-1 #
coedge $-1 $170 $170 $169 $249 forward $107 $-1 #
coedge $-1 $171 $171 $108 $172 forward $166 $-1 #
edge $-1 $250 -1.8009361835111108e-016 $250 6.2831853071796004 $171 $251 forward 7 unknown #
loop $-1 $-1 $178 $109 #
plane-surface $-1 58.294639549407037 -16.51037147130576 41.847367089119629 0 0.64278761758704617 0.76604443648966558 1 0 0 forward_v I I I I #
loop $-1 $-1 $252 $69 #
coedge $-1 $176 $176 $177 $253 reversed $110 $-1 #
coedge $-1 $177 $177 $176 $253 forward $112 $-1 #
coedge $-1 $178 $178 $113 $179 forward $173 $-1 #
edge $-1 $254 -1.8009361835111108e-016 $254 6.2831853071796004 $178 $255 forward 7 unknown #
face $-1 $256 $257 $27 $-1 $258 reversed single #
loop $-1 $-1 $259 $114 #
plane-surface $-1 -72.393566698202449 0 0 1 0 0 0 0 -1 forward_v I I I I #
coedge $-1 $260 $191 $261 $262 forward $115 $-1 #
coedge $-1 $263 $117 $260 $264 forward $73 $-1 #
coedge $-1 $117 $263 $265 $266 forward $73 $-1 #
coedge $-1 $194 $193 $117 $187 reversed $195 $-1 #
edge $-1 $267 -31.029349249231668 $268 31.029349249231668 $186 $269 forward 7 unknown #
coedge $-1 $119 $118 $270 $271 forward $46 $-1 #
coedge $-1 $272 $273 $118 $190 reversed $257 $-1 #
edge $-1 $197 -72.393566698202449 $274 72.393566698202449 $189 $275 forward 7 unknown #
coedge $-1 $183 $276 $119 $192 reversed $115 $-1 #
edge $-1 $277 -72.393566698202449 $196 72.393566698202449 $191 $278 forward 7 unknown #
coedge $-1 $186 $120 $276 $279 forward $195 $-1 #
coedge $-1 $120 $186 $272 $280 reversed $195 $-1 #
loop $-1 $-1 $193 $256 #
vertex $-1 $121 $281 #
vertex $-1 $121 $282 #
straight-curve $-1 72.393566698202449 0 14.949049748778373 0 1 0 I I #
face $-1 $-1 $283 $28 $-1 $284 reversed single #
loop $-1 $-1 $205 $122 #
plane-surface $-1 0 0 14.949049748778373 0 0 1 1 0 0 forward_v I I I I #
coedge $-1 $285 $286 $204 $287 forward $123 $-1 #
coedge $-1 $204 $125 $127 $210 reversed $77 $-1 #
coedge $-1 $125 $203 $202 $287 reversed $77 $-1 #
coedge $-1 $288 $128 $125 $206 forward $200 $-1 #
edge $-1 $213 -46.502568708812319 $289 -31.019013641950639 $205 $290 forward 7 unknown #
coedge $-1 $127 $126 $285 $291 reversed $49 $-1 #
coedge $-1 $292 $293 $126 $209 forward $283 $-1 #
edge $-1 $294 -11.256025447493066 $212 8.9563203764825978 $208 $295 forward 7 unknown #
edge $-1 $296 -1.3873710548170279e-014 $213 20.212345823975649 $203 $297 forward 7 unknown #
coedge $-1 $128 $288 $292 $298 forward $200 $-1 #
vertex $-1 $209 $299 #
vertex $-1 $129 $300 #
straight-curve $-1 29.147319774703519 -15.545794182369983 14.949049748778373 -1 0 0 I I #
coedge $-1 $215 $215 $-1 $301 reversed $132 $-1 #
edge $-1 $302 0 $302 6.2831853071796004 $133 $303 forward 7 unknown #
vertex $-1 $136 $304 #
ellipse-curve $-1 49.835283260129799 -23.28757171580083 8.4529269397589726 0 -0.64278761758704617 0.76604443648966558 2 0 0 1 I I #
coedge $-1 $219 $219 $-1 $305 reversed $139 $-1 #
edge $-1 $306 0 $306 6.2831853071796004 $140 $307 forward 7 unknown #
vertex $-1 $143 $308 #
ellipse-curve $-1 58.294639549407037 -23.28757171580083 8.4529269397589726 0 -0.64278761758704617 0.76604443648966558 2 0 0 1 I I #
coedge $-1 $223 $223 $-1 $309 reversed $146 $-1 #
edge $-1 $310 0 $310 6.2831853071796004 $147 $311 forward 7 unknown #
vertex $-1 $150 $312 #
ellipse-curve $-1 66.75399583868429 -23.28757171580083 8.4529269397589726 0 -0.64278761758704617 0.76604443648966558 2 0 0 1 I I #
face $-1 $-1 $240 $32 $-1 $313 reversed single #
loop $-1 $-1 $236 $151 #
plane-surface $-1 72.393566698202449 0 0 -1 0 0 0 0 1 forward_v I I I I #
coedge $-1 $314 $315 $232 $316 forward $152 $-1 #
coedge $-1 $232 $154 $156 $238 reversed $96 $-1 #
coedge $-1 $154 $231 $230 $316 reversed $96 $-1 #
coedge $-1 $317 $157 $154 $234 forward $240 $-1 #
edge $-1 $242 -74.423568420621777 $318 -61.431322802582962 $233 $319 forward 7 unknown #
coedge $-1 $156 $155 $314 $320 reversed $61 $-1 #
coedge $-1 $321 $322 $155 $237 forward $228 $-1 #
edge $-1 $323 22.07302887274907 $241 42.285374696724745 $236 $324 forward 7 unknown #
edge $-1 $325 41.84635267448769 $242 62.058698498463372 $231 $326 forward 7 unknown #
coedge $-1 $157 $317 $321 $327 forward $240 $-1 #
loop $-1 $-1 $233 $227 #
vertex $-1 $237 $328 #
vertex $-1 $158 $329 #
straight-curve $-1 29.147319774703519 31.029349249231664 1.9568041307395667 -1 0 0 I I #
coedge $-1 $244 $244 $-1 $330 reversed $161 $-1 #
edge $-1 $331 0 $331 6.2831853071796004 $162 $332 forward 7 unknown #
vertex $-1 $165 $333 #
ellipse-curve $-1 49.835283260129799 23.287571715800826 8.4529269397589566 0 0.64278761758704617 0.76604443648966558 2 0 0 1 I I #
coedge $-1 $248 $248 $-1 $334 reversed $168 $-1 #
edge $-1 $335 0 $335 6.2831853071796004 $169 $336 forward 7 unknown #
vertex $-1 $172 $337 #
ellipse-curve $-1 58.294639549407037 23.287571715800826 8.4529269397589566 0 0.64278761758704617 0.76604443648966558 2 0 0 1 I I #
coedge $-1 $252 $252 $-1 $338 reversed $175 $-1 #
edge $-1 $339 0 $339 6.2831853071796004 $176 $340 forward 7 unknown #
vertex $-1 $179 $341 #
ellipse-curve $-1 66.75399583868429 23.287571715800826 8.4529269397589566 0 0.64278761758704617 0.76604443648966558 2 0 0 1 I I #
face $-1 $-1 $195 $27 $-1 $342 reversed single #
loop $-1 $-1 $272 $180 #
plane-surface $-1 0 31.029349249231668 0 0 -1 0 0 0 -1 forward_v I I I I #
coedge $-1 $343 $270 $273 $344 forward $181 $-1 #
coedge $-1 $276 $183 $184 $264 reversed $115 $-1 #
coedge $-1 $270 $343 $183 $262 reversed $181 $-1 #
edge $-1 $277 -14.949049748778373 $345 14.949049748778373 $261 $346 forward 7 unknown #
coedge $-1 $185 $184 $343 $347 forward $73 $-1 #
edge $-1 $268 -72.393566698202449 $345 72.393566698202449 $260 $348 forward 7 unknown #
coedge $-1 $273 $272 $185 $266 reversed $257 $-1 #
edge $-1 $349 -72.393566698202449 $267 72.393566698202449 $265 $350 forward 7 unknown #
vertex $-1 $187 $351 #
vertex $-1 $279 $352 #
straight-curve $-1 72.393566698202449 0 -14.949049748778373 0 -1 0 I I #
coedge $-1 $259 $261 $188 $271 reversed $181 $-1 #
edge $-1 $274 -31.029349249231668 $277 31.029349249231668 $270 $353 forward 7 unknown #
coedge $-1 $265 $189 $194 $280 forward $257 $-1 #
coedge $-1 $189 $265 $259 $344 reversed $257 $-1 #
vertex $-1 $190 $354 #
straight-curve $-1 0 31.029349249231668 14.949049748778373 -1 0 0 I I #
coedge $-1 $191 $260 $193 $279 reversed $115 $-1 #
vertex $-1 $271 $355 #
straight-curve $-1 0 -31.029349249231668 14.949049748778373 1 0 0 I I #
edge $-1 $196 -14.949049748778373 $268 14.949049748778373 $193 $356 forward 7 unknown #
edge $-1 $197 -14.949049748778373 $267 14.949049748778373 $194 $357 forward 7 unknown #
point $-1 72.393566698202449 -31.029349249231668 14.949049748778373 #
point $-1 72.393566698202449 31.029349249231668 14.949049748778373 #
loop $-1 $-1 $208 $199 #
plane-surface $-1 72.393566698202449 0 0 -1 0 0 0 0 1 forward_v I I I I #
coedge $-1 $358 $202 $207 $291 forward $123 $-1 #
coedge $-1 $202 $358 $288 $359 reversed $123 $-1 #
edge $-1 $289 41.486041323392939 $296 54.478286941431733 $202 $360 forward 7 unknown #
coedge $-1 $211 $205 $286 $359 forward $200 $-1 #
vertex $-1 $359 $361 #
straight-curve $-1 44.195712400611633 -62.048362891182308 14.949049748778371 0 -1 0 I I #
edge $-1 $296 15.048392625908114 $294 43.24624692349893 $285 $362 forward 7 unknown #
coedge $-1 $293 $208 $211 $298 reversed $283 $-1 #
coedge $-1 $208 $292 $358 $363 forward $283 $-1 #
vertex $-1 $291 $364 #
straight-curve $-1 72.393566698202449 -22.406733578193506 9.1920379116328075 0 0.76604443648966558 0.64278761758704617 I I #
vertex $-1 $291 $365 #
straight-curve $-1 44.195712400611633 -31.029349249231657 1.9568041307395845 0 0.76604443648966558 0.64278761758704617 I I #
edge $-1 $366 -31.029349249231668 $212 -15.545794182369985 $292 $367 forward 7 unknown #
point $-1 72.393566698202449 -15.545794182369985 14.949049748778373 #
point $-1 44.195712400611633 -15.545794182369985 14.949049748778373 #
edge $-1 $368 1 $368 0 $215 $-1 forward 7 unknown #
vertex $-1 $216 $369 #
ellipse-curve $-1 49.835283260129799 -21.256475053008174 6.0323602456683849 0 -0.64278761758704617 0.76604443648966558 2 0 0 1 I I #
point $-1 51.835283260129799 -23.287571715800848 8.4529269397589939 #
edge $-1 $370 1 $370 0 $219 $-1 forward 7 unknown #
vertex $-1 $220 $371 #
ellipse-curve $-1 58.294639549407037 -21.256475053008174 6.0323602456683849 0 -0.64278761758704617 0.76604443648966558 2 0 0 1 I I #
point $-1 60.294639549407037 -23.287571715800848 8.4529269397589939 #
edge $-1 $372 1 $372 0 $223 $-1 forward 7 unknown #
vertex $-1 $224 $373 #
ellipse-curve $-1 66.75399583868429 -21.256475053008174 6.0323602456683849 0 -0.64278761758704617 0.76604443648966558 2 0 0 1 I I #
point $-1 68.75399583868429 -23.287571715800848 8.4529269397589939 #
plane-surface $-1 0 31.029349249231668 0 0 -1 0 0 0 -1 forward_v I I I I #
coedge $-1 $374 $230 $235 $320 forward $152 $-1 #
coedge $-1 $230 $374 $317 $375 forward $152 $-1 #
edge $-1 $318 7.2491532816819308 $325 22.732708348543625 $230 $376 forward 7 unknown #
coedge $-1 $239 $233 $315 $375 reversed $240 $-1 #
vertex $-1 $316 $377 #
straight-curve $-1 44.195712400611633 31.029349249231668 76.380372551361333 0 0 1 I I #
edge $-1 $325 15.048392625908114 $323 43.24624692349893 $314 $378 forward 7 unknown #
coedge $-1 $322 $236 $239 $327 reversed $228 $-1 #
coedge $-1 $236 $321 $374 $379 reversed $228 $-1 #
vertex $-1 $379 $380 #
straight-curve $-1 72.393566698202449 -1.3631267820752058 29.137319390822828 0 0.76604443648966558 -0.64278761758704617 I I #
vertex $-1 $320 $381 #
straight-curve $-1 44.195712400611633 -16.51037147130576 41.847367089119629 0 0.76604443648966558 -0.64278761758704617 I I #
edge $-1 $382 -14.949049748778373 $241 -1.9568041307395605 $321 $383 forward 7 unknown #
point $-1 72.393566698202449 31.029349249231668 1.9568041307395605 #
point $-1 44.195712400611633 31.029349249231672 1.9568041307395561 #
edge $-1 $384 1 $384 0 $244 $-1 forward 7 unknown #
vertex $-1 $245 $385 #
ellipse-curve $-1 49.835283260129799 21.256475053008177 6.0323602456683778 0 0.64278761758704617 0.76604443648966558 2 0 0 1 I I #
point $-1 51.835283260129799 23.287571715800851 8.4529269397589868 #
edge $-1 $386 1 $386 0 $248 $-1 forward 7 unknown #
vertex $-1 $249 $387 #
ellipse-curve $-1 58.294639549407037 21.256475053008177 6.0323602456683778 0 0.64278761758704617 0.76604443648966558 2 0 0 1 I I #
point $-1 60.294639549407037 23.287571715800851 8.4529269397589868 #
edge $-1 $388 1 $388 0 $252 $-1 forward 7 unknown #
vertex $-1 $253 $389 #
ellipse-curve $-1 66.75399583868429 21.256475053008177 6.0323602456683778 0 0.64278761758704617 0.76604443648966558 2 0 0 1 I I #
point $-1 68.75399583868429 23.287571715800851 8.4529269397589868 #
plane-surface $-1 72.393566698202449 0 0 -1 0 0 0 0 1 forward_v I I I I #
coedge $-1 $261 $259 $263 $347 reversed $181 $-1 #
edge $-1 $274 -14.949049748778373 $349 14.949049748778373 $273 $390 forward 7 unknown #
vertex $-1 $347 $391 #
straight-curve $-1 -72.393566698202449 -31.029349249231668 0 0 0 -1 I I #
edge $-1 $345 -31.029349249231668 $349 31.029349249231668 $343 $392 forward 7 unknown #
straight-curve $-1 0 -31.029349249231668 -14.949049748778373 -1 0 0 I I #
vertex $-1 $266 $393 #
straight-curve $-1 0 31.029349249231668 -14.949049748778373 1 0 0 I I #
point $-1 72.393566698202449 31.029349249231668 -14.949049748778373 #
point $-1 72.393566698202449 -31.029349249231668 -14.949049748778373 #
straight-curve $-1 -72.393566698202449 0 14.949049748778373 0 -1 0 I I #
point $-1 -72.393566698202449 31.029349249231668 14.949049748778373 #
point $-1 -72.393566698202449 -31.029349249231668 14.949049748778373 #
straight-curve $-1 72.393566698202449 -31.029349249231668 0 0 0 -1 I I #
straight-curve $-1 72.393566698202449 31.029349249231668 0 0 0 -1 I I #
coedge $-1 $286 $285 $293 $363 reversed $123 $-1 #
edge $-1 $289 44.195712400611633 $366 72.393566698202449 $286 $394 forward 7 unknown #
straight-curve $-1 44.195712400611633 -31.029349249231672 56.435091072171311 0 0 -1 I I #
point $-1 44.195712400611633 -31.029349249231668 14.949049748778373 #
straight-curve $-1 29.147319774703519 -31.029349249231668 1.956804130739576 1 0 0 I I #
edge $-1 $366 -14.949049748778373 $294 -1.9568041307395756 $293 $395 forward 7 unknown #
point $-1 72.393566698202449 -31.029349249231668 1.9568041307395756 #
point $-1 44.195712400611633 -31.029349249231668 1.9568041307395756 #
vertex $-1 $298 $396 #
straight-curve $-1 72.393566698202449 0 14.949049748778373 0 1 0 I I #
vertex $-1 $301 $397 #
point $-1 51.835283260129799 -21.256475053008174 6.0323602456683849 #
vertex $-1 $305 $398 #
point $-1 60.294639549407037 -21.256475053008174 6.0323602456683849 #
vertex $-1 $309 $399 #
point $-1 68.75399583868429 -21.256475053008174 6.0323602456683849 #
coedge $-1 $315 $314 $322 $379 forward $152 $-1 #
edge $-1 $382 -72.393566698202449 $318 -44.195712400611633 $317 $400 forward 7 unknown #
straight-curve $-1 44.195712400611633 38.278502530913599 14.949049748778378 0 -1 0 I I #
point $-1 44.195712400611633 31.029349249231668 14.949049748778373 #
straight-curve $-1 29.147319774703519 15.545794182369972 14.949049748778371 1 0 0 I I #
edge $-1 $323 15.545794182369974 $382 31.029349249231668 $322 $401 forward 7 unknown #
point $-1 72.393566698202449 15.545794182369974 14.949049748778368 #
point $-1 44.195712400611633 15.545794182369974 14.949049748778368 #
vertex $-1 $379 $402 #
straight-curve $-1 72.393566698202449 31.029349249231668 0 0 0 -1 I I #
vertex $-1 $330 $403 #
point $-1 51.835283260129799 21.256475053008177 6.0323602456683778 #
vertex $-1 $334 $404 #
point $-1 60.294639549407037 21.256475053008177 6.0323602456683778 #
vertex $-1 $338 $405 #
point $-1 68.75399583868429 21.256475053008177 6.0323602456683778 #
straight-curve $-1 -72.393566698202449 31.029349249231668 0 0 0 -1 I I #
point $-1 -72.393566698202449 -31.029349249231668 -14.949049748778373 #
straight-curve $-1 -72.393566698202449 0 -14.949049748778373 0 1 0 I I #
point $-1 -72.393566698202449 31.029349249231668 -14.949049748778373 #
straight-curve $-1 0 -31.029349249231668 14.949049748778373 1 0 0 I I #
straight-curve $-1 72.393566698202449 -31.029349249231668 0 0 0 -1 I I #
point $-1 72.393566698202449 -31.029349249231668 14.949049748778373 #
point $-1 49.835283260129799 -19.970899817834081 4.5002713726890535 #
point $-1 58.294639549407037 -19.970899817834081 4.5002713726890535 #
point $-1 66.75399583868429 -19.970899817834081 4.5002713726890535 #
straight-curve $-1 0 31.029349249231668 14.949049748778373 -1 0 0 I I #
straight-curve $-1 72.393566698202449 0 14.949049748778373 0 1 0 I I #
point $-1 72.393566698202449 31.029349249231668 14.949049748778373 #
point $-1 49.835283260129799 19.970899817834084 4.5002713726890464 #
point $-1 58.294639549407037 19.970899817834084 4.5002713726890464 #
point $-1 66.75399583868429 19.970899817834084 4.5002713726890464 #
End-of-ACIS-data 