500 0 14 0           
7 Unknown 11 ACIS 5.0 NT 24 Thu Mar 25 19:35:37 1999 
-1 9.9999999999999995e-007 1e-010 
body $-1 $14 $-1 $15 #
body $-1 $16 $-1 $17 #
body $-1 $18 $-1 $19 #
body $-1 $20 $-1 $21 #
body $-1 $22 $-1 $23 #
body $-1 $24 $-1 $25 #
body $-1 $26 $-1 $27 #
body $-1 $28 $-1 $29 #
body $-1 $30 $-1 $31 #
body $-1 $32 $-1 $33 #
body $-1 $34 $-1 $35 #
body $-1 $36 $-1 $37 #
body $-1 $38 $-1 $39 #
body $-1 $40 $-1 $41 #
lump $-1 $-1 $42 $0 #
transform $-1 1 0 0 0 1 0 0 0 1 44.01989806817835 22.129916589785097 4.9762764798991226 1 rotate no_reflect no_shear #
lump $-1 $-1 $43 $1 #
transform $-1 1 0 0 0 1 0 0 0 1 44.01989806817835 22.129916589785097 4.9762764798991226 1 rotate no_reflect no_shear #
lump $-1 $-1 $44 $2 #
transform $-1 1 0 0 0 1 0 0 0 1 44.01989806817835 22.129916589785097 4.9762764798991226 1 rotate no_reflect no_shear #
lump $-1 $-1 $45 $3 #
transform $-1 1 0 0 0 1 0 0 0 1 44.01989806817835 22.129916589785097 4.9762764798991226 1 rotate no_reflect no_shear #
lump $-1 $-1 $46 $4 #
transform $-1 1 0 0 0 1 0 0 0 1 44.01989806817835 22.129916589785097 4.9762764798991226 1 rotate no_reflect no_shear #
lump $-1 $-1 $47 $5 #
transform $-1 1 0 0 0 1 0 0 0 1 44.01989806817835 22.129916589785097 4.9762764798991226 1 rotate no_reflect no_shear #
lump $-1 $-1 $48 $6 #
transform $-1 1 0 0 0 1 0 0 0 1 44.01989806817835 22.129916589785097 4.9762764798991226 1 rotate no_reflect no_shear #
lump $-1 $-1 $49 $7 #
transform $-1 1 0 0 0 1 0 0 0 1 44.01989806817835 22.129916589785097 4.9762764798991226 1 rotate no_reflect no_shear #
lump $-1 $-1 $50 $8 #
transform $-1 1 0 0 0 1 0 0 0 1 44.01989806817835 22.129916589785097 4.9762764798991226 1 rotate no_reflect no_shear #
lump $-1 $-1 $51 $9 #
transform $-1 1 0 0 0 1 0 0 0 1 44.01989806817835 22.129916589785097 4.9762764798991226 1 rotate no_reflect no_shear #
lump $-1 $-1 $52 $10 #
transform $-1 1 0 0 0 1 0 0 0 1 44.01989806817835 22.129916589785097 4.9762764798991226 1 rotate no_reflect no_shear #
lump $-1 $-1 $53 $11 #
transform $-1 1 0 0 0 1 0 0 0 1 44.01989806817835 22.129916589785097 4.9762764798991226 1 rotate no_reflect no_shear #
lump $-1 $-1 $54 $12 #
transform $-1 1 0 0 0 1 0 0 0 1 44.01989806817835 22.129916589785097 4.9762764798991226 1 rotate no_reflect no_shear #
lump $-1 $-1 $55 $13 #
transform $-1 1 0 0 0 1 0 0 0 1 44.01989806817835 22.129916589785097 4.9762764798991226 1 rotate no_reflect no_shear #
shell $-1 $-1 $-1 $56 $-1 $14 #
shell $-1 $-1 $-1 $57 $-1 $16 #
shell $-1 $-1 $-1 $58 $-1 $18 #
shell $-1 $-1 $-1 $59 $-1 $20 #
shell $-1 $-1 $-1 $60 $-1 $22 #
shell $-1 $-1 $-1 $61 $-1 $24 #
shell $-1 $-1 $-1 $62 $-1 $26 #
shell $-1 $-1 $-1 $63 $-1 $28 #
shell $-1 $-1 $-1 $64 $-1 $30 #
shell $-1 $-1 $-1 $65 $-1 $32 #
shell $-1 $-1 $-1 $66 $-1 $34 #
shell $-1 $-1 $-1 $67 $-1 $36 #
shell $-1 $-1 $-1 $68 $-1 $38 #
shell $-1 $-1 $-1 $69 $-1 $40 #
face $-1 $70 $71 $42 $-1 $72 forward single #
face $-1 $73 $74 $43 $-1 $75 forward single #
face $-1 $76 $77 $44 $-1 $78 reversed single #
face $-1 $79 $80 $45 $-1 $81 forward single #
face $-1 $82 $83 $46 $-1 $84 forward single #
face $-1 $85 $86 $47 $-1 $87 forward single #
face $-1 $88 $89 $48 $-1 $90 reversed single #
face $-1 $91 $92 $49 $-1 $93 forward single #
face $-1 $94 $95 $50 $-1 $96 forward single #
face $-1 $97 $98 $51 $-1 $99 forward single #
face $-1 $100 $101 $52 $-1 $102 reversed single #
face $-1 $103 $104 $53 $-1 $105 forward single #
face $-1 $106 $107 $54 $-1 $108 forward single #
face $-1 $109 $110 $55 $-1 $111 forward single #
face $-1 $112 $113 $42 $-1 $114 reversed single #
loop $-1 $-1 $115 $56 #
plane-surface $-1 0 0 4.9762764798991226 0 0 1 1 0 0 forward_v I I I I #
face $-1 $116 $117 $43 $-1 $118 reversed single #
loop $-1 $-1 $119 $57 #
plane-surface $-1 -40.791435621071656 0 2.2478338849088697 0 0 1 1 0 0 forward_v I I I I #
face $-1 $120 $121 $44 $-1 $122 reversed single #
loop $-1 $-1 $123 $58 #
plane-surface $-1 -32.985125149752584 -22.129916589785097 0.97580422889760854 0 -0.79863551827123203 0.60181501223851219 1 0 0 forward_v I I I I #
face $-1 $124 $125 $45 $-1 $126 forward single #
loop $-1 $127 $128 $59 #
cone-surface $-1 -35.731833964280007 -20.223312839971403 2.6751328482791088 0 0.79863551827123203 -0.60181501223851219 0.25 0 0 1 I I 0 1 0.25 forward I I I I #
face $-1 $129 $130 $46 $-1 $131 forward single #
loop $-1 $132 $133 $60 #
cone-surface $-1 -32.985125149752584 -20.223312839971403 2.6751328482791088 0 0.79863551827123203 -0.60181501223851219 0.25 0 0 1 I I 0 1 0.25 forward I I I I #
face $-1 $134 $135 $47 $-1 $136 forward single #
loop $-1 $137 $138 $61 #
cone-surface $-1 -30.23841633522516 -20.223312839971403 2.6751328482791088 0 0.79863551827123203 -0.60181501223851219 0.25 0 0 1 I I 0 1 0.25 forward I I I I #
face $-1 $139 $140 $48 $-1 $141 reversed single #
loop $-1 $-1 $142 $62 #
plane-surface $-1 -21.357941411319189 73.337761114607801 84.857985241701726 -1 0 0 0 0.84804810408105047 0.52991925155115449 forward_v I I I I #
face $-1 $143 $144 $49 $-1 $145 forward single #
loop $-1 $146 $147 $63 #
cone-surface $-1 -34.321966821435808 20.028973522800431 2.3508995341146726 0 -0.84804810408105047 -0.52991925155115449 1 0 0 1 I I 0 1 1 forward I I I I #
face $-1 $148 $149 $50 $-1 $150 forward single #
loop $-1 $151 $152 $64 #
cone-surface $-1 -29.460457292642076 20.028973522800431 2.3508995341146726 0 -0.84804810408105047 -0.52991925155115449 1 0 0 1 I I 0 1 1 forward I I I I #
face $-1 $153 $154 $51 $-1 $155 forward single #
loop $-1 $156 $157 $65 #
cone-surface $-1 -24.598947763848344 20.028973522800431 2.3508995341146726 0 -0.84804810408105047 -0.52991925155115449 1 0 0 1 I I 0 1 1 forward I I I I #
face $-1 $158 $159 $52 $-1 $160 reversed single #
loop $-1 $-1 $161 $66 #
plane-surface $-1 35.917382186855463 -1.3242210825116842 38.204002366407359 0 0.84804810408105047 0.52991925155115449 1 0 0 forward_v I I I I #
face $-1 $162 $163 $53 $-1 $164 forward single #
loop $-1 $165 $166 $67 #
cone-surface $-1 31.05587265806173 20.028973522800431 2.3508995341146726 0 -0.84804810408105047 -0.52991925155115449 1 0 0 1 I I 0 1 1 forward I I I I #
face $-1 $167 $168 $54 $-1 $169 forward single #
loop $-1 $170 $171 $68 #
cone-surface $-1 35.917382186855463 20.028973522800431 2.3508995341146726 0 -0.84804810408105047 -0.52991925155115449 1 0 0 1 I I 0 1 1 forward I I I I #
face $-1 $172 $173 $55 $-1 $174 forward single #
loop $-1 $175 $176 $69 #
cone-surface $-1 40.778891715649195 20.028973522800431 2.3508995341146726 0 -0.84804810408105047 -0.52991925155115449 1 0 0 1 I I 0 1 1 forward I I I I #
face $-1 $177 $178 $42 $-1 $179 reversed single #
loop $-1 $-1 $180 $70 #
plane-surface $-1 0 0 -4.9762764798991226 0 0 1 1 0 0 forward_v I I I I #
coedge $-1 $181 $182 $183 $184 forward $71 $-1 #
face $-1 $185 $186 $43 $-1 $187 reversed single #
loop $-1 $-1 $188 $73 #
plane-surface $-1 -40.791435621071656 0 -0.75216611509113029 0 0 1 1 0 0 forward_v I I I I #
coedge $-1 $189 $190 $191 $192 forward $74 $-1 #
face $-1 $193 $194 $44 $-1 $195 reversed single #
loop $-1 $-1 $196 $76 #
plane-surface $-1 -28.407277125540212 -92.441624805637943 53.959475218175236 -1 0 0 0 -0.79863551827123203 0.60181501223851219 forward_v I I I I #
coedge $-1 $197 $198 $199 $200 reversed $77 $-1 #
face $-1 $-1 $201 $45 $-1 $202 forward single #
loop $-1 $203 $204 $79 #
cone-surface $-1 -35.731833964280007 -19.724165641051883 2.2989984656300386 0 0.79863551827123203 -0.60181501223851219 0.125 0 0 1 I I -0.70710678118654746 0.70710678118654746 0.125 forward I I I I #
loop $-1 $-1 $205 $59 #
coedge $-1 $128 $128 $206 $207 reversed $80 $-1 #
face $-1 $-1 $208 $46 $-1 $209 forward single #
loop $-1 $210 $211 $82 #
cone-surface $-1 -32.985125149752584 -19.724165641051883 2.2989984656300386 0 0.79863551827123203 -0.60181501223851219 0.125 0 0 1 I I -0.70710678118654746 0.70710678118654746 0.125 forward I I I I #
loop $-1 $-1 $212 $60 #
coedge $-1 $133 $133 $213 $214 reversed $83 $-1 #
face $-1 $-1 $215 $47 $-1 $216 forward single #
loop $-1 $217 $218 $85 #
cone-surface $-1 -30.23841633522516 -19.724165641051883 2.2989984656300386 0 0.79863551827123203 -0.60181501223851219 0.125 0 0 1 I I -0.70710678118654746 0.70710678118654746 0.125 forward I I I I #
loop $-1 $-1 $219 $61 #
coedge $-1 $138 $138 $220 $221 reversed $86 $-1 #
face $-1 $222 $223 $48 $-1 $224 forward single #
loop $-1 $-1 $225 $88 #
plane-surface $-1 -29.460457292642072 -1.3242210825116842 38.204002366407359 0 0.84804810408105047 0.52991925155115449 1 0 0 forward_v I I I I #
coedge $-1 $226 $227 $228 $229 reversed $89 $-1 #
face $-1 $-1 $230 $49 $-1 $231 forward single #
loop $-1 $232 $233 $91 #
cone-surface $-1 -34.321966821435808 18.849581815322743 1.6139338267395589 0 -0.84804810408105047 -0.52991925155115449 0.5 0 0 1 I I -0.70710678118654746 0.70710678118654746 0.5 forward I I I I #
loop $-1 $-1 $234 $63 #
coedge $-1 $147 $147 $235 $236 reversed $92 $-1 #
face $-1 $-1 $237 $50 $-1 $238 forward single #
loop $-1 $239 $240 $94 #
cone-surface $-1 -29.460457292642076 18.849581815322743 1.6139338267395589 0 -0.84804810408105047 -0.52991925155115449 0.5 0 0 1 I I -0.70710678118654746 0.70710678118654746 0.5 forward I I I I #
loop $-1 $-1 $241 $64 #
coedge $-1 $152 $152 $242 $243 reversed $95 $-1 #
face $-1 $-1 $244 $51 $-1 $245 forward single #
loop $-1 $246 $247 $97 #
cone-surface $-1 -24.598947763848344 18.849581815322743 1.6139338267395589 0 -0.84804810408105047 -0.52991925155115449 0.5 0 0 1 I I -0.70710678118654746 0.70710678118654746 0.5 forward I I I I #
loop $-1 $-1 $248 $65 #
coedge $-1 $157 $157 $249 $250 reversed $98 $-1 #
face $-1 $251 $252 $52 $-1 $253 forward single #
loop $-1 $-1 $254 $100 #
plane-surface $-1 27.814866305532579 73.337761114607801 84.857985241701726 1 0 0 0 -0.84804810408105047 -0.52991925155115449 forward_v I I I I #
coedge $-1 $255 $256 $257 $258 reversed $101 $-1 #
face $-1 $-1 $259 $53 $-1 $260 forward single #
loop $-1 $261 $262 $103 #
cone-surface $-1 31.05587265806173 18.849581815322743 1.6139338267395589 0 -0.84804810408105047 -0.52991925155115449 0.5 0 0 1 I I -0.70710678118654746 0.70710678118654746 0.5 forward I I I I #
loop $-1 $-1 $263 $67 #
coedge $-1 $166 $166 $264 $265 reversed $104 $-1 #
face $-1 $-1 $266 $54 $-1 $267 forward single #
loop $-1 $268 $269 $106 #
cone-surface $-1 35.917382186855463 18.849581815322743 1.6139338267395589 0 -0.84804810408105047 -0.52991925155115449 0.5 0 0 1 I I -0.70710678118654746 0.70710678118654746 0.5 forward I I I I #
loop $-1 $-1 $270 $68 #
coedge $-1 $171 $171 $271 $272 reversed $107 $-1 #
face $-1 $-1 $273 $55 $-1 $274 forward single #
loop $-1 $275 $276 $109 #
cone-surface $-1 40.778891715649195 18.849581815322743 1.6139338267395589 0 -0.84804810408105047 -0.52991925155115449 0.5 0 0 1 I I -0.70710678118654746 0.70710678118654746 0.5 forward I I I I #
loop $-1 $-1 $277 $69 #
coedge $-1 $176 $176 $278 $279 reversed $110 $-1 #
face $-1 $280 $281 $42 $-1 $282 reversed single #
loop $-1 $-1 $283 $112 #
plane-surface $-1 0 -22.129916589785097 0 0 1 0 0 0 1 forward_v I I I I #
coedge $-1 $284 $285 $286 $287 forward $113 $-1 #
coedge $-1 $288 $115 $289 $290 forward $71 $-1 #
coedge $-1 $115 $288 $291 $292 forward $71 $-1 #
coedge $-1 $293 $294 $115 $184 reversed $295 $-1 #
edge $-1 $296 -22.129916589785097 $297 22.129916589785097 $183 $298 forward 7 unknown #
face $-1 $299 $300 $43 $-1 $301 reversed single #
loop $-1 $-1 $191 $116 #
plane-surface $-1 -37.562973173964963 0 0.74783388490886971 -1 0 0 0 0 1 forward_v I I I I #
coedge $-1 $302 $303 $304 $305 forward $117 $-1 #
coedge $-1 $306 $119 $307 $308 reversed $74 $-1 #
coedge $-1 $119 $306 $309 $310 reversed $74 $-1 #
coedge $-1 $311 $312 $119 $192 reversed $186 $-1 #
edge $-1 $313 -22.129916589785097 $314 22.129916589785097 $191 $315 forward 7 unknown #
face $-1 $316 $317 $44 $-1 $318 forward single #
loop $-1 $-1 $319 $120 #
plane-surface $-1 0 -22.129916589785097 0 0 1 0 0 0 1 forward_v I I I I #
coedge $-1 $320 $321 $322 $323 reversed $121 $-1 #
coedge $-1 $324 $123 $325 $326 reversed $77 $-1 #
coedge $-1 $123 $324 $320 $327 forward $77 $-1 #
coedge $-1 $322 $319 $123 $200 forward $194 $-1 #
edge $-1 $328 -21.070410599088671 $329 -11.91471455066392 $199 $330 forward 7 unknown #
loop $-1 $-1 $206 $124 #
plane-surface $-1 -32.985125149752584 -22.129916589785097 0.97580422889760854 0 -0.79863551827123203 0.60181501223851219 1 0 0 forward_v I I I I #
loop $-1 $-1 $331 $79 #
coedge $-1 $204 $204 $205 $332 reversed $125 $-1 #
coedge $-1 $205 $205 $204 $332 forward $127 $-1 #
coedge $-1 $206 $206 $128 $207 forward $201 $-1 #
edge $-1 $333 -4.2559849952072007e-015 $333 6.283185307179596 $206 $334 forward 7 unknown #
loop $-1 $-1 $213 $129 #
plane-surface $-1 -32.985125149752584 -22.129916589785097 0.97580422889760854 0 -0.79863551827123203 0.60181501223851219 1 0 0 forward_v I I I I #
loop $-1 $-1 $335 $82 #
coedge $-1 $211 $211 $212 $336 reversed $130 $-1 #
coedge $-1 $212 $212 $211 $336 forward $132 $-1 #
coedge $-1 $213 $213 $133 $214 forward $208 $-1 #
edge $-1 $337 -4.2559849952072007e-015 $337 6.283185307179596 $213 $338 forward 7 unknown #
loop $-1 $-1 $220 $134 #
plane-surface $-1 -32.985125149752584 -22.129916589785097 0.97580422889760854 0 -0.79863551827123203 0.60181501223851219 1 0 0 forward_v I I I I #
loop $-1 $-1 $339 $85 #
coedge $-1 $218 $218 $219 $340 reversed $135 $-1 #
coedge $-1 $219 $219 $218 $340 forward $137 $-1 #
coedge $-1 $220 $220 $138 $221 forward $215 $-1 #
edge $-1 $341 -4.2559849952072007e-015 $341 6.283185307179596 $220 $342 forward 7 unknown #
face $-1 $343 $344 $48 $-1 $345 forward single #
loop $-1 $-1 $346 $139 #
plane-surface $-1 0 0 4.9762764798991226 0 0 1 1 0 0 forward_v I I I I #
coedge $-1 $347 $348 $349 $350 reversed $140 $-1 #
coedge $-1 $227 $142 $351 $352 reversed $89 $-1 #
coedge $-1 $142 $226 $347 $353 reversed $89 $-1 #
coedge $-1 $349 $354 $142 $229 forward $355 $-1 #
edge $-1 $356 37.452716140951743 $357 41.759457869321558 $228 $358 forward 7 unknown #
loop $-1 $-1 $235 $143 #
plane-surface $-1 -29.460457292642072 -1.3242210825116842 38.204002366407359 0 0.84804810408105047 0.52991925155115449 1 0 0 forward_v I I I I #
loop $-1 $-1 $359 $91 #
coedge $-1 $233 $233 $234 $360 reversed $144 $-1 #
coedge $-1 $234 $234 $233 $360 forward $146 $-1 #
coedge $-1 $235 $235 $147 $236 forward $230 $-1 #
edge $-1 $361 1.5068297384602663e-015 $361 6.2831853071796022 $235 $362 forward 7 unknown #
loop $-1 $-1 $242 $148 #
plane-surface $-1 -29.460457292642072 -1.3242210825116842 38.204002366407359 0 0.84804810408105047 0.52991925155115449 1 0 0 forward_v I I I I #
loop $-1 $-1 $363 $94 #
coedge $-1 $240 $240 $241 $364 reversed $149 $-1 #
coedge $-1 $241 $241 $240 $364 forward $151 $-1 #
coedge $-1 $242 $242 $152 $243 forward $237 $-1 #
edge $-1 $365 1.5068297384602663e-015 $365 6.2831853071796022 $242 $366 forward 7 unknown #
loop $-1 $-1 $249 $153 #
plane-surface $-1 -29.460457292642072 -1.3242210825116842 38.204002366407359 0 0.84804810408105047 0.52991925155115449 1 0 0 forward_v I I I I #
loop $-1 $-1 $367 $97 #
coedge $-1 $247 $247 $248 $368 reversed $154 $-1 #
coedge $-1 $248 $248 $247 $368 forward $156 $-1 #
coedge $-1 $249 $249 $157 $250 forward $244 $-1 #
edge $-1 $369 1.5068297384602663e-015 $369 6.2831853071796022 $249 $370 forward 7 unknown #
face $-1 $371 $372 $52 $-1 $373 reversed single #
loop $-1 $-1 $374 $158 #
plane-surface $-1 0 0 4.9762764798991226 0 0 1 1 0 0 forward_v I I I I #
coedge $-1 $375 $376 $377 $378 reversed $159 $-1 #
coedge $-1 $379 $161 $380 $381 reversed $101 $-1 #
coedge $-1 $161 $379 $375 $382 forward $101 $-1 #
coedge $-1 $377 $383 $161 $258 forward $372 $-1 #
edge $-1 $384 -26.061206974750618 $385 -9.8561752121048478 $257 $386 forward 7 unknown #
loop $-1 $-1 $264 $162 #
plane-surface $-1 35.917382186855463 -1.3242210825116842 38.204002366407359 0 0.84804810408105047 0.52991925155115449 1 0 0 forward_v I I I I #
loop $-1 $-1 $387 $103 #
coedge $-1 $262 $262 $263 $388 reversed $163 $-1 #
coedge $-1 $263 $263 $262 $388 forward $165 $-1 #
coedge $-1 $264 $264 $166 $265 forward $259 $-1 #
edge $-1 $389 1.5068297384602663e-015 $389 6.2831853071796022 $264 $390 forward 7 unknown #
loop $-1 $-1 $271 $167 #
plane-surface $-1 35.917382186855463 -1.3242210825116842 38.204002366407359 0 0.84804810408105047 0.52991925155115449 1 0 0 forward_v I I I I #
loop $-1 $-1 $391 $106 #
coedge $-1 $269 $269 $270 $392 reversed $168 $-1 #
coedge $-1 $270 $270 $269 $392 forward $170 $-1 #
coedge $-1 $271 $271 $171 $272 forward $266 $-1 #
edge $-1 $393 1.5068297384602663e-015 $393 6.2831853071796022 $271 $394 forward 7 unknown #
loop $-1 $-1 $278 $172 #
plane-surface $-1 35.917382186855463 -1.3242210825116842 38.204002366407359 0 0.84804810408105047 0.52991925155115449 1 0 0 forward_v I I I I #
loop $-1 $-1 $395 $109 #
coedge $-1 $276 $276 $277 $396 reversed $173 $-1 #
coedge $-1 $277 $277 $276 $396 forward $175 $-1 #
coedge $-1 $278 $278 $176 $279 forward $273 $-1 #
edge $-1 $397 1.5068297384602663e-015 $397 6.2831853071796022 $278 $398 forward 7 unknown #
face $-1 $399 $400 $42 $-1 $401 reversed single #
loop $-1 $-1 $402 $177 #
plane-surface $-1 -44.01989806817835 0 0 1 0 0 0 0 -1 forward_v I I I I #
coedge $-1 $403 $291 $404 $405 forward $178 $-1 #
coedge $-1 $406 $180 $403 $407 forward $113 $-1 #
coedge $-1 $180 $406 $408 $409 forward $113 $-1 #
coedge $-1 $294 $293 $180 $287 reversed $295 $-1 #
edge $-1 $410 -22.129916589785097 $411 22.129916589785097 $286 $412 forward 7 unknown #
coedge $-1 $182 $181 $413 $414 forward $71 $-1 #
coedge $-1 $415 $416 $181 $290 reversed $400 $-1 #
edge $-1 $297 -44.01989806817835 $417 44.01989806817835 $289 $418 forward 7 unknown #
coedge $-1 $283 $419 $182 $292 reversed $178 $-1 #
edge $-1 $420 -44.01989806817835 $296 44.01989806817835 $291 $421 forward 7 unknown #
coedge $-1 $286 $183 $419 $422 forward $295 $-1 #
coedge $-1 $183 $286 $415 $423 reversed $295 $-1 #
loop $-1 $-1 $293 $399 #
vertex $-1 $184 $424 #
vertex $-1 $184 $425 #
straight-curve $-1 44.01989806817835 0 4.9762764798991226 0 1 0 I I #
face $-1 $426 $427 $43 $-1 $428 reversed single #
loop $-1 $-1 $429 $185 #
plane-surface $-1 0 -22.129916589785097 0 0 1 0 0 0 1 forward_v I I I I #
coedge $-1 $430 $188 $429 $431 reversed $117 $-1 #
coedge $-1 $188 $430 $432 $433 reversed $117 $-1 #
coedge $-1 $312 $311 $188 $305 reversed $186 $-1 #
edge $-1 $434 -22.129916589785097 $435 22.129916589785097 $304 $436 forward 7 unknown #
coedge $-1 $190 $189 $437 $438 reversed $74 $-1 #
coedge $-1 $439 $440 $189 $308 forward $441 $-1 #
edge $-1 $442 -23.624180257642521 $314 -17.167255363429135 $307 $443 forward 7 unknown #
coedge $-1 $444 $445 $190 $310 forward $300 $-1 #
edge $-1 $313 17.167255363429135 $446 23.624180257642521 $309 $447 forward 7 unknown #
coedge $-1 $304 $191 $445 $448 reversed $186 $-1 #
coedge $-1 $191 $304 $439 $449 reversed $186 $-1 #
vertex $-1 $310 $450 #
vertex $-1 $308 $451 #
straight-curve $-1 -37.562973173964963 0 2.2478338849088697 0 1 0 I I #
face $-1 $-1 $452 $44 $-1 $453 forward single #
loop $-1 $-1 $325 $193 #
plane-surface $-1 -37.562973173964963 0 0.74783388490886971 -1 0 0 0 0 1 forward_v I I I I #
coedge $-1 $199 $454 $455 $456 forward $194 $-1 #
coedge $-1 $321 $196 $198 $327 reversed $121 $-1 #
coedge $-1 $196 $320 $457 $458 reversed $121 $-1 #
coedge $-1 $454 $199 $196 $323 forward $194 $-1 #
edge $-1 $329 -26.003933380190009 $459 -22.003461129188494 $322 $460 forward 7 unknown #
coedge $-1 $198 $197 $461 $462 reversed $77 $-1 #
coedge $-1 $455 $463 $197 $326 forward $317 $-1 #
edge $-1 $464 1.558891501386424 $328 6.568025404748429 $325 $465 forward 7 unknown #
edge $-1 $466 -5.009133903362005 $329 0 $320 $467 forward 7 unknown #
vertex $-1 $326 $468 #
vertex $-1 $200 $469 #
straight-curve $-1 -16.492562574876292 -22.129916589785097 0.97580422889760754 1 0 0 I I #
coedge $-1 $331 $331 $-1 $470 reversed $203 $-1 #
edge $-1 $471 0 $471 6.2831853071796004 $204 $472 forward 7 unknown #
vertex $-1 $207 $473 #
ellipse-curve $-1 -35.731833964280007 -20.622630599107019 2.9760403543983664 0 -0.79863551827123203 0.60181501223851219 0.25 0 0 1 I I #
coedge $-1 $335 $335 $-1 $474 reversed $210 $-1 #
edge $-1 $475 0 $475 6.2831853071796004 $211 $476 forward 7 unknown #
vertex $-1 $214 $477 #
ellipse-curve $-1 -32.985125149752584 -20.622630599107019 2.9760403543983664 0 -0.79863551827123203 0.60181501223851219 0.25 0 0 1 I I #
coedge $-1 $339 $339 $-1 $478 reversed $217 $-1 #
edge $-1 $479 0 $479 6.2831853071796004 $218 $480 forward 7 unknown #
vertex $-1 $221 $481 #
ellipse-curve $-1 -30.23841633522516 -20.622630599107019 2.9760403543983664 0 -0.79863551827123203 0.60181501223851219 0.25 0 0 1 I I #
face $-1 $-1 $355 $48 $-1 $482 reversed single #
loop $-1 $-1 $483 $222 #
plane-surface $-1 -37.562973173964963 0 0.74783388490886971 -1 0 0 0 0 1 forward_v I I I I #
coedge $-1 $484 $485 $486 $487 forward $223 $-1 #
coedge $-1 $488 $225 $227 $353 forward $140 $-1 #
coedge $-1 $225 $488 $483 $489 forward $140 $-1 #
coedge $-1 $490 $228 $225 $350 forward $355 $-1 #
edge $-1 $357 6.6277127649981527 $491 22.832744527643925 $349 $492 forward 7 unknown #
coedge $-1 $485 $484 $226 $352 forward $223 $-1 #
edge $-1 $493 -17.230114790613786 $356 -14.538963967518804 $351 $494 forward 7 unknown #
edge $-1 $357 -44.259833179570165 $493 -39.181416392073636 $227 $495 forward 7 unknown #
coedge $-1 $228 $490 $485 $496 reversed $355 $-1 #
loop $-1 $-1 $490 $343 #
vertex $-1 $496 $497 #
vertex $-1 $229 $498 #
straight-curve $-1 -21.357941411319189 22.129916589785097 42.428992620850863 0 0 -1 I I #
coedge $-1 $359 $359 $-1 $499 reversed $232 $-1 #
edge $-1 $500 0 $500 6.2831853071796004 $233 $501 forward 7 unknown #
vertex $-1 $236 $502 #
ellipse-curve $-1 -34.321966821435808 20.7843411782376 2.8229056157142121 0 0.84804810408105047 0.52991925155115449 1 0 0 1 I I #
coedge $-1 $363 $363 $-1 $503 reversed $239 $-1 #
edge $-1 $504 0 $504 6.2831853071796004 $240 $505 forward 7 unknown #
vertex $-1 $243 $506 #
ellipse-curve $-1 -29.460457292642076 20.7843411782376 2.8229056157142121 0 0.84804810408105047 0.52991925155115449 1 0 0 1 I I #
coedge $-1 $367 $367 $-1 $507 reversed $246 $-1 #
edge $-1 $508 0 $508 6.2831853071796004 $247 $509 forward 7 unknown #
vertex $-1 $250 $510 #
ellipse-curve $-1 -24.598947763848344 20.7843411782376 2.8229056157142121 0 0.84804810408105047 0.52991925155115449 1 0 0 1 I I #
face $-1 $-1 $511 $52 $-1 $512 reversed single #
loop $-1 $-1 $377 $251 #
plane-surface $-1 0 22.129916589785097 0 0 -1 0 0 0 -1 forward_v I I I I #
coedge $-1 $513 $514 $376 $515 forward $252 $-1 #
coedge $-1 $376 $254 $256 $382 reversed $159 $-1 #
coedge $-1 $254 $375 $374 $515 reversed $159 $-1 #
coedge $-1 $516 $257 $254 $378 forward $372 $-1 #
edge $-1 $385 -41.759457869321558 $517 -37.452716140951743 $377 $518 forward 7 unknown #
coedge $-1 $256 $255 $513 $519 reversed $101 $-1 #
coedge $-1 $520 $521 $255 $381 forward $511 $-1 #
edge $-1 $522 22.631135382037346 $384 27.709552169533882 $380 $523 forward 7 unknown #
edge $-1 $524 39.181416392073636 $385 44.259833179570165 $375 $525 forward 7 unknown #
coedge $-1 $257 $516 $520 $526 forward $372 $-1 #
vertex $-1 $381 $527 #
vertex $-1 $258 $528 #
straight-curve $-1 17.958691093427731 22.129916589785097 0.66953475152930153 -1 0 0 I I #
coedge $-1 $387 $387 $-1 $529 reversed $261 $-1 #
edge $-1 $530 0 $530 6.2831853071796004 $262 $531 forward 7 unknown #
vertex $-1 $265 $532 #
ellipse-curve $-1 31.05587265806173 20.7843411782376 2.8229056157142121 0 0.84804810408105047 0.52991925155115449 1 0 0 1 I I #
coedge $-1 $391 $391 $-1 $533 reversed $268 $-1 #
edge $-1 $534 0 $534 6.2831853071796004 $269 $535 forward 7 unknown #
vertex $-1 $272 $536 #
ellipse-curve $-1 35.917382186855463 20.7843411782376 2.8229056157142121 0 0.84804810408105047 0.52991925155115449 1 0 0 1 I I #
coedge $-1 $395 $395 $-1 $537 reversed $275 $-1 #
edge $-1 $538 0 $538 6.2831853071796004 $276 $539 forward 7 unknown #
vertex $-1 $279 $540 #
ellipse-curve $-1 40.778891715649195 20.7843411782376 2.8229056157142121 0 0.84804810408105047 0.52991925155115449 1 0 0 1 I I #
face $-1 $-1 $295 $42 $-1 $541 reversed single #
loop $-1 $-1 $415 $280 #
plane-surface $-1 0 22.129916589785097 0 0 -1 0 0 0 -1 forward_v I I I I #
coedge $-1 $542 $413 $416 $543 forward $281 $-1 #
coedge $-1 $419 $283 $284 $407 reversed $178 $-1 #
coedge $-1 $413 $542 $283 $405 reversed $281 $-1 #
edge $-1 $420 -4.9762764798991226 $544 4.9762764798991226 $404 $545 forward 7 unknown #
coedge $-1 $285 $284 $542 $546 forward $113 $-1 #
edge $-1 $411 -44.01989806817835 $544 44.01989806817835 $403 $547 forward 7 unknown #
coedge $-1 $416 $415 $285 $409 reversed $400 $-1 #
edge $-1 $548 -44.01989806817835 $410 44.01989806817835 $408 $549 forward 7 unknown #
vertex $-1 $287 $550 #
vertex $-1 $422 $551 #
straight-curve $-1 44.01989806817835 0 -4.9762764798991226 0 -1 0 I I #
coedge $-1 $402 $404 $288 $414 reversed $281 $-1 #
edge $-1 $417 -22.129916589785097 $420 22.129916589785097 $413 $552 forward 7 unknown #
coedge $-1 $408 $289 $294 $423 forward $400 $-1 #
coedge $-1 $289 $408 $402 $543 reversed $400 $-1 #
vertex $-1 $290 $553 #
straight-curve $-1 0 22.129916589785097 4.9762764798991226 -1 0 0 I I #
coedge $-1 $291 $403 $293 $422 reversed $178 $-1 #
vertex $-1 $414 $554 #
straight-curve $-1 0 -22.129916589785097 4.9762764798991226 1 0 0 I I #
edge $-1 $296 -4.9762764798991226 $411 4.9762764798991226 $293 $555 forward 7 unknown #
edge $-1 $297 -4.9762764798991226 $410 4.9762764798991226 $294 $556 forward 7 unknown #
point $-1 44.01989806817835 -22.129916589785097 4.9762764798991226 #
point $-1 44.01989806817835 22.129916589785097 4.9762764798991226 #
face $-1 $-1 $441 $43 $-1 $557 reversed single #
loop $-1 $-1 $558 $299 #
plane-surface $-1 -44.01989806817835 0 0 1 0 0 0 0 -1 forward_v I I I I #
coedge $-1 $445 $444 $302 $431 forward $300 $-1 #
coedge $-1 $303 $302 $558 $559 reversed $117 $-1 #
edge $-1 $560 -23.624180257642521 $435 -17.167255363429135 $429 $561 forward 7 unknown #
coedge $-1 $440 $439 $303 $433 forward $441 $-1 #
edge $-1 $434 17.167255363429135 $562 23.624180257642521 $432 $563 forward 7 unknown #
vertex $-1 $433 $564 #
vertex $-1 $431 $565 #
straight-curve $-1 -37.562973173964963 0 -0.75216611509113029 0 -1 0 I I #
coedge $-1 $566 $567 $306 $438 forward $427 $-1 #
edge $-1 $446 -22.129916589785097 $442 22.129916589785097 $437 $568 forward 7 unknown #
coedge $-1 $432 $307 $312 $449 forward $441 $-1 #
coedge $-1 $307 $432 $566 $569 reversed $441 $-1 #
loop $-1 $-1 $432 $426 #
vertex $-1 $569 $570 #
straight-curve $-1 -20.395717810535828 22.129916589785097 2.2478338849088697 1 0 0 I I #
coedge $-1 $429 $309 $567 $571 forward $300 $-1 #
coedge $-1 $309 $429 $311 $448 forward $300 $-1 #
vertex $-1 $571 $572 #
straight-curve $-1 -20.395717810535828 -22.129916589785097 2.2478338849088697 -1 0 0 I I #
edge $-1 $435 -1.1260830575455651 $313 1.8739169424544349 $445 $573 forward 7 unknown #
edge $-1 $314 -1.8739169424544349 $434 1.1260830575455651 $439 $574 forward 7 unknown #
point $-1 -37.562973173964963 -22.129916589785097 2.2478338849088697 #
point $-1 -37.562973173964963 22.129916589785097 2.2478338849088697 #
loop $-1 $-1 $575 $316 #
plane-surface $-1 0 0 4.9762764798991226 0 0 1 1 0 0 forward_v I I I I #
coedge $-1 $319 $322 $576 $577 reversed $194 $-1 #
coedge $-1 $463 $325 $319 $456 reversed $317 $-1 #
edge $-1 $578 22.003461129188494 $328 26.003933380190009 $319 $579 forward 7 unknown #
coedge $-1 $461 $576 $321 $458 forward $452 $-1 #
edge $-1 $459 24.090895813033875 $466 27.105467794390027 $457 $580 forward 7 unknown #
vertex $-1 $323 $581 #
straight-curve $-1 -28.407277125540212 -22.129916589785097 26.979737609087618 0 0 1 I I #
coedge $-1 $575 $457 $324 $462 forward $452 $-1 #
edge $-1 $466 11.91471455066392 $464 21.070410599088664 $461 $582 forward 7 unknown #
coedge $-1 $325 $455 $575 $583 reversed $317 $-1 #
vertex $-1 $583 $584 #
straight-curve $-1 -37.562973173964963 -18.17718030044356 6.2212626020374868 0 -0.60181501223851219 -0.79863551827123203 I I #
vertex $-1 $462 $585 #
straight-curve $-1 -28.407277125540212 -22.129916589785097 0.97580422889760854 0 -0.60181501223851219 -0.79863551827123203 I I #
point $-1 -37.562973173964963 -22.129916589785097 0.97580422889760854 #
point $-1 -28.407277125540212 -22.129916589785097 0.97580422889760854 #
edge $-1 $586 1 $586 0 $331 $-1 forward 7 unknown #
vertex $-1 $332 $587 #
ellipse-curve $-1 -35.731833964280007 -19.823995080835786 2.3742253421598525 0 -0.79863551827123203 0.60181501223851219 0.25 0 0 1 I I #
point $-1 -35.481833964280007 -20.622630599107019 2.9760403543983651 #
edge $-1 $588 1 $588 0 $335 $-1 forward 7 unknown #
vertex $-1 $336 $589 #
ellipse-curve $-1 -32.985125149752584 -19.823995080835786 2.3742253421598525 0 -0.79863551827123203 0.60181501223851219 0.25 0 0 1 I I #
point $-1 -32.735125149752584 -20.622630599107019 2.9760403543983651 #
edge $-1 $590 1 $590 0 $339 $-1 forward 7 unknown #
vertex $-1 $340 $591 #
ellipse-curve $-1 -30.23841633522516 -19.823995080835786 2.3742253421598525 0 -0.79863551827123203 0.60181501223851219 0.25 0 0 1 I I #
point $-1 -29.98841633522516 -20.622630599107019 2.9760403543983651 #
plane-surface $-1 0 22.129916589785097 0 0 -1 0 0 0 -1 forward_v I I I I #
coedge $-1 $486 $592 $348 $489 reversed $344 $-1 #
coedge $-1 $351 $346 $488 $593 forward $223 $-1 #
coedge $-1 $346 $351 $354 $496 forward $223 $-1 #
coedge $-1 $592 $483 $346 $487 reversed $344 $-1 #
edge $-1 $594 14.538963967518804 $595 17.230114790613786 $346 $596 forward 7 unknown #
coedge $-1 $348 $347 $484 $593 reversed $140 $-1 #
edge $-1 $595 39.181416392073636 $491 44.259833179570165 $483 $597 forward 7 unknown #
coedge $-1 $354 $349 $592 $598 forward $355 $-1 #
vertex $-1 $598 $599 #
straight-curve $-1 -14.730228646321036 22.129916589785097 0.66953475152930153 -1 0 0 I I #
vertex $-1 $352 $600 #
straight-curve $-1 -21.357941411319189 36.668880557303901 4.9762764798991199 0 1 0 I I #
straight-curve $-1 -21.357941411319189 -1.3242210825116842 38.204002366407359 0 -0.52991925155115449 0.84804810408105047 I I #
edge $-1 $356 21.357941411319189 $594 37.562973173964956 $354 $601 forward 7 unknown #
point $-1 -21.357941411319189 22.129916589785097 4.9762764798991226 #
point $-1 -21.357941411319189 22.129916589785097 0.66953475152930508 #
edge $-1 $602 1 $602 0 $359 $-1 forward 7 unknown #
vertex $-1 $360 $603 #
ellipse-curve $-1 -34.321966821435808 19.273605867363269 1.8788934525151362 0 0.84804810408105047 0.52991925155115449 1 0 0 1 I I #
point $-1 -33.321966821435808 20.784341178237597 2.8229056157142081 #
edge $-1 $604 1 $604 0 $363 $-1 forward 7 unknown #
vertex $-1 $364 $605 #
ellipse-curve $-1 -29.460457292642076 19.273605867363269 1.8788934525151362 0 0.84804810408105047 0.52991925155115449 1 0 0 1 I I #
point $-1 -28.460457292642076 20.784341178237597 2.8229056157142081 #
edge $-1 $606 1 $606 0 $367 $-1 forward 7 unknown #
vertex $-1 $368 $607 #
ellipse-curve $-1 -24.598947763848344 19.273605867363269 1.8788934525151362 0 0.84804810408105047 0.52991925155115449 1 0 0 1 I I #
point $-1 -23.598947763848344 20.784341178237597 2.8229056157142081 #
loop $-1 $-1 $380 $371 #
plane-surface $-1 44.01989806817835 0 0 -1 0 0 0 0 1 forward_v I I I I #
coedge $-1 $608 $374 $379 $519 forward $252 $-1 #
coedge $-1 $374 $608 $516 $609 forward $252 $-1 #
edge $-1 $517 14.538963967518804 $524 17.230114790613786 $374 $610 forward 7 unknown #
coedge $-1 $383 $377 $514 $609 reversed $372 $-1 #
vertex $-1 $515 $611 #
straight-curve $-1 27.814866305532579 22.129916589785097 42.428992620850863 0 0 1 I I #
edge $-1 $524 9.8561752121048478 $522 26.061206974750618 $513 $612 forward 7 unknown #
coedge $-1 $521 $380 $383 $526 reversed $511 $-1 #
coedge $-1 $380 $520 $608 $613 reversed $511 $-1 #
vertex $-1 $613 $614 #
straight-curve $-1 44.01989806817835 7.4460914432880312 24.168567933837473 0 0.52991925155115449 -0.84804810408105047 I I #
vertex $-1 $519 $615 #
straight-curve $-1 27.814866305532579 -1.3242210825116842 38.204002366407359 0 0.52991925155115449 -0.84804810408105047 I I #
edge $-1 $616 -4.9762764798991226 $384 -0.66953475152930508 $520 $617 forward 7 unknown #
point $-1 44.01989806817835 22.129916589785097 0.66953475152930508 #
point $-1 27.814866305532579 22.129916589785097 0.66953475152930508 #
edge $-1 $618 1 $618 0 $387 $-1 forward 7 unknown #
vertex $-1 $388 $619 #
ellipse-curve $-1 31.05587265806173 19.273605867363269 1.8788934525151362 0 0.84804810408105047 0.52991925155115449 1 0 0 1 I I #
point $-1 32.05587265806173 20.784341178237597 2.8229056157142081 #
edge $-1 $620 1 $620 0 $391 $-1 forward 7 unknown #
vertex $-1 $392 $621 #
ellipse-curve $-1 35.917382186855463 19.273605867363269 1.8788934525151362 0 0.84804810408105047 0.52991925155115449 1 0 0 1 I I #
point $-1 36.917382186855463 20.784341178237597 2.8229056157142081 #
edge $-1 $622 1 $622 0 $395 $-1 forward 7 unknown #
vertex $-1 $396 $623 #
ellipse-curve $-1 40.778891715649195 19.273605867363269 1.8788934525151362 0 0.84804810408105047 0.52991925155115449 1 0 0 1 I I #
point $-1 41.778891715649195 20.784341178237597 2.8229056157142081 #
plane-surface $-1 44.01989806817835 0 0 -1 0 0 0 0 1 forward_v I I I I #
coedge $-1 $404 $402 $406 $546 reversed $281 $-1 #
edge $-1 $417 -4.9762764798991226 $548 4.9762764798991226 $416 $624 forward 7 unknown #
vertex $-1 $546 $625 #
straight-curve $-1 -44.01989806817835 -22.129916589785097 0 0 0 -1 I I #
edge $-1 $544 -22.129916589785097 $548 22.129916589785097 $542 $626 forward 7 unknown #
straight-curve $-1 0 -22.129916589785097 -4.9762764798991226 -1 0 0 I I #
vertex $-1 $409 $627 #
straight-curve $-1 0 22.129916589785097 -4.9762764798991226 1 0 0 I I #
point $-1 44.01989806817835 22.129916589785097 -4.9762764798991226 #
point $-1 44.01989806817835 -22.129916589785097 -4.9762764798991226 #
straight-curve $-1 -44.01989806817835 0 4.9762764798991226 0 -1 0 I I #
point $-1 -44.01989806817835 22.129916589785097 4.9762764798991226 #
point $-1 -44.01989806817835 -22.129916589785097 4.9762764798991226 #
straight-curve $-1 44.01989806817835 -22.129916589785097 0 0 0 -1 I I #
straight-curve $-1 44.01989806817835 22.129916589785097 0 0 0 -1 I I #
plane-surface $-1 0 22.129916589785097 0 0 -1 0 0 0 -1 forward_v I I I I #
coedge $-1 $567 $566 $430 $559 forward $427 $-1 #
edge $-1 $562 -22.129916589785097 $560 22.129916589785097 $558 $628 forward 7 unknown #
vertex $-1 $431 $629 #
straight-curve $-1 -20.395717810535828 -22.129916589785097 -0.75216611509113029 1 0 0 I I #
vertex $-1 $433 $630 #
straight-curve $-1 -20.395717810535828 22.129916589785097 -0.75216611509113029 -1 0 0 I I #
point $-1 -37.562973173964963 22.129916589785097 -0.75216611509113029 #
point $-1 -37.562973173964963 -22.129916589785097 -0.75216611509113029 #
coedge $-1 $558 $437 $440 $569 forward $427 $-1 #
coedge $-1 $437 $558 $444 $571 reversed $427 $-1 #
straight-curve $-1 -44.01989806817835 0 2.2478338849088697 0 1 0 I I #
edge $-1 $442 -2.2478338849088697 $562 0.75216611509113029 $440 $631 forward 7 unknown #
point $-1 -44.01989806817835 22.129916589785097 2.2478338849088697 #
edge $-1 $446 -2.2478338849088697 $560 0.75216611509113029 $567 $632 forward 7 unknown #
point $-1 -44.01989806817835 -22.129916589785097 2.2478338849088697 #
straight-curve $-1 -37.562973173964963 -22.129916589785097 0.37391694245443485 0 0 1 I I #
straight-curve $-1 -37.562973173964963 22.129916589785097 0.37391694245443485 0 0 -1 I I #
coedge $-1 $576 $461 $463 $583 forward $452 $-1 #
coedge $-1 $457 $575 $454 $577 forward $452 $-1 #
edge $-1 $578 -37.562973173964956 $459 -28.407277125540212 $454 $633 forward 7 unknown #
vertex $-1 $577 $634 #
straight-curve $-1 -37.562973173964956 -22.129916589785097 26.979737609087618 0 0 -1 I I #
straight-curve $-1 -28.407277125540212 -46.220812402818972 4.9762764798991235 0 1 0 I I #
point $-1 -28.407277125540212 -22.129916589785097 4.9762764798991226 #
straight-curve $-1 -16.492562574876292 -19.115344608428941 4.9762764798991226 -1 0 0 I I #
edge $-1 $464 -27.105467794390027 $578 -24.090895813033875 $575 $635 forward 7 unknown #
point $-1 -37.562973173964956 -19.115344608428945 4.9762764798991226 #
point $-1 -28.407277125540212 -19.115344608428945 4.9762764798991226 #
vertex $-1 $470 $636 #
point $-1 -35.481833964280007 -19.823995080835786 2.3742253421598525 #
vertex $-1 $474 $637 #
point $-1 -32.735125149752584 -19.823995080835786 2.3742253421598525 #
vertex $-1 $478 $638 #
point $-1 -29.98841633522516 -19.823995080835786 2.3742253421598525 #
coedge $-1 $483 $486 $490 $598 reversed $344 $-1 #
edge $-1 $595 -22.832744527643918 $493 -6.6277127649981527 $484 $639 forward 7 unknown #
vertex $-1 $598 $640 #
vertex $-1 $593 $641 #
straight-curve $-1 -37.562973173964956 36.668880557303901 4.9762764798991199 0 -1 0 I I #
straight-curve $-1 -37.562973173964956 -1.3242210825116842 38.204002366407359 0 0.52991925155115449 -0.84804810408105047 I I #
edge $-1 $491 -41.759457869321558 $594 -37.452716140951743 $490 $642 forward 7 unknown #
point $-1 -37.562973173964963 22.129916589785097 0.66953475152930253 #
point $-1 -21.357941411319189 19.438765766690114 4.9762764798991199 #
straight-curve $-1 0 22.129916589785097 4.9762764798991226 -1 0 0 I I #
vertex $-1 $499 $643 #
point $-1 -33.321966821435808 19.273605867363269 1.8788934525151362 #
vertex $-1 $503 $644 #
point $-1 -28.460457292642076 19.273605867363269 1.8788934525151362 #
vertex $-1 $507 $645 #
point $-1 -23.598947763848344 19.273605867363269 1.8788934525151362 #
coedge $-1 $514 $513 $521 $613 forward $252 $-1 #
edge $-1 $616 -44.01989806817835 $517 -27.814866305532579 $516 $646 forward 7 unknown #
straight-curve $-1 27.814866305532579 36.668880557303901 4.9762764798991199 0 -1 0 I I #
point $-1 27.814866305532579 22.129916589785097 4.9762764798991226 #
straight-curve $-1 17.958691093427731 19.438765766690111 4.9762764798991235 1 0 0 I I #
edge $-1 $522 19.438765766690114 $616 22.129916589785097 $521 $647 forward 7 unknown #
point $-1 44.01989806817835 19.438765766690114 4.9762764798991199 #
point $-1 27.814866305532579 19.438765766690114 4.9762764798991199 #
vertex $-1 $613 $648 #
straight-curve $-1 44.01989806817835 22.129916589785097 0 0 0 -1 I I #
vertex $-1 $529 $649 #
point $-1 32.05587265806173 19.273605867363269 1.8788934525151362 #
vertex $-1 $533 $650 #
point $-1 36.917382186855463 19.273605867363269 1.8788934525151362 #
vertex $-1 $537 $651 #
point $-1 41.778891715649195 19.273605867363269 1.8788934525151362 #
straight-curve $-1 -44.01989806817835 22.129916589785097 0 0 0 -1 I I #
point $-1 -44.01989806817835 -22.129916589785097 -4.9762764798991226 #
straight-curve $-1 -44.01989806817835 0 -4.9762764798991226 0 1 0 I I #
point $-1 -44.01989806817835 22.129916589785097 -4.9762764798991226 #
straight-curve $-1 -44.01989806817835 0 -0.75216611509113029 0 -1 0 I I #
point $-1 -44.01989806817835 -22.129916589785097 -0.75216611509113029 #
point $-1 -44.01989806817835 22.129916589785097 -0.75216611509113029 #
straight-curve $-1 -44.01989806817835 22.129916589785097 0 0 0 -1 I I #
straight-curve $-1 -44.01989806817835 -22.129916589785097 0 0 0 -1 I I #
straight-curve $-1 0 -22.129916589785097 4.9762764798991226 1 0 0 I I #
point $-1 -37.562973173964956 -22.129916589785097 4.9762764798991226 #
straight-curve $-1 -37.562973173964956 -46.220812402818972 4.9762764798991235 0 -1 0 I I #
point $-1 -35.731833964280007 -19.62433620126798 2.2237715891002248 #
point $-1 -32.985125149752584 -19.62433620126798 2.2237715891002248 #
point $-1 -30.23841633522516 -19.62433620126798 2.2237715891002248 #
straight-curve $-1 -14.730228646321036 19.438765766690111 4.9762764798991235 1 0 0 I I #
point $-1 -37.562973173964956 22.129916589785097 4.9762764798991226 #
point $-1 -37.562973173964956 19.438765766690114 4.9762764798991199 #
straight-curve $-1 -37.562973173964956 22.129916589785097 42.428992620850863 0 0 1 I I #
point $-1 -34.321966821435808 18.425557763282217 1.3489742009639816 #
point $-1 -29.460457292642076 18.425557763282217 1.3489742009639816 #
point $-1 -24.598947763848344 18.425557763282217 1.3489742009639816 #
straight-curve $-1 0 22.129916589785097 4.9762764798991226 -1 0 0 I I #
straight-curve $-1 44.01989806817835 0 4.9762764798991226 0 1 0 I I #
point $-1 44.01989806817835 22.129916589785097 4.9762764798991226 #
point $-1 31.05587265806173 18.425557763282217 1.3489742009639816 #
point $-1 35.917382186855463 18.425557763282217 1.3489742009639816 #
point $-1 40.778891715649195 18.425557763282217 1.3489742009639816 #
End-of-ACIS-data 