500 0 5 0           
7 Unknown 11 ACIS 5.0 NT 24 Thu Mar 25 17:26:29 1999 
-1 9.9999999999999995e-007 1e-010 
body $-1 $5 $-1 $6 #
body $-1 $7 $-1 $8 #
body $-1 $9 $-1 $10 #
body $-1 $11 $-1 $12 #
body $-1 $13 $-1 $14 #
lump $-1 $-1 $15 $0 #
transform $-1 1 0 0 0 1 0 0 0 1 78.321481978820145 48.264504788742698 11.83671256087943 1 rotate no_reflect no_shear #
lump $-1 $-1 $16 $1 #
transform $-1 1 0 0 0 1 0 0 0 1 78.321481978820145 48.264504788742698 11.83671256087943 1 rotate no_reflect no_shear #
lump $-1 $-1 $17 $2 #
transform $-1 1 0 0 0 1 0 0 0 1 78.321481978820145 48.264504788742698 11.83671256087943 1 rotate no_reflect no_shear #
lump $-1 $-1 $18 $3 #
transform $-1 1 0 0 0 1 0 0 0 1 78.321481978820145 48.264504788742698 11.83671256087943 1 rotate no_reflect no_shear #
lump $-1 $-1 $19 $4 #
transform $-1 1 0 0 0 1 0 0 0 1 78.321481978820145 48.264504788742698 11.83671256087943 1 rotate no_reflect no_shear #
shell $-1 $-1 $-1 $20 $-1 $5 #
shell $-1 $-1 $-1 $21 $-1 $7 #
shell $-1 $-1 $-1 $22 $-1 $9 #
shell $-1 $-1 $-1 $23 $-1 $11 #
shell $-1 $-1 $-1 $24 $-1 $13 #
face $-1 $25 $26 $15 $-1 $27 forward single #
face $-1 $28 $29 $16 $-1 $30 forward single #
face $-1 $31 $32 $17 $-1 $33 reversed single #
face $-1 $34 $35 $18 $-1 $36 forward single #
face $-1 $37 $38 $19 $-1 $39 forward single #
face $-1 $40 $41 $15 $-1 $42 reversed single #
loop $-1 $-1 $43 $20 #
plane-surface $-1 0 0 11.83671256087943 0 0 1 1 0 0 forward_v I I I I #
face $-1 $44 $45 $16 $-1 $46 reversed single #
loop $-1 $-1 $47 $21 #
plane-surface $-1 -78.321481978820145 0 0 1 0 0 0 0 -1 forward_v I I I I #
face $-1 $48 $49 $17 $-1 $50 reversed single #
loop $-1 $-1 $51 $22 #
plane-surface $-1 70.077454649945551 -162.8259176063537 110.28542553484262 -1 0 0 0 -0.73135370988377701 0.68199835119979291 forward_v I I I I #
face $-1 $52 $53 $18 $-1 $54 forward single #
loop $-1 $55 $56 $23 #
cone-surface $-1 47.55315581901624 -42.038460820570258 5.4842913952224395 0 0.73135370988377701 -0.68199835119979291 2 0 0 1 I I 0 1 2 forward I I I I #
face $-1 $57 $58 $19 $-1 $59 forward single #
loop $-1 $60 $61 $24 #
cone-surface $-1 61.067735117573818 -42.038460820570258 5.4842913952224395 0 0.73135370988377701 -0.68199835119979291 2 0 0 1 I I 0 1 2 forward I I I I #
face $-1 $62 $63 $15 $-1 $64 reversed single #
loop $-1 $-1 $65 $25 #
plane-surface $-1 0 0 -11.83671256087943 0 0 1 1 0 0 forward_v I I I I #
coedge $-1 $66 $67 $68 $69 forward $26 $-1 #
face $-1 $70 $71 $16 $-1 $72 forward single #
loop $-1 $-1 $73 $28 #
plane-surface $-1 0 48.264504788742698 0 0 -1 0 0 0 -1 forward_v I I I I #
coedge $-1 $74 $75 $76 $77 forward $29 $-1 #
face $-1 $78 $79 $17 $-1 $80 reversed single #
loop $-1 $-1 $81 $31 #
plane-surface $-1 54.310445468295029 -48.264504788742698 3.4551823886833546 0 -0.73135370988377701 0.68199835119979291 1 0 0 forward_v I I I I #
coedge $-1 $82 $83 $84 $85 reversed $32 $-1 #
face $-1 $-1 $86 $18 $-1 $87 forward single #
loop $-1 $88 $89 $34 #
cone-surface $-1 47.55315581901624 -38.989014712813336 2.6406369644636971 0 0.73135370988377701 -0.68199835119979291 1 0 0 1 I I -0.70710678118654746 0.70710678118654746 1 forward I I I I #
loop $-1 $-1 $90 $23 #
coedge $-1 $56 $56 $91 $92 reversed $35 $-1 #
face $-1 $-1 $93 $19 $-1 $94 forward single #
loop $-1 $95 $96 $37 #
cone-surface $-1 61.067735117573818 -38.989014712813336 2.6406369644636971 0 0.73135370988377701 -0.68199835119979291 1 0 0 1 I I -0.70710678118654746 0.70710678118654746 1 forward I I I I #
loop $-1 $-1 $97 $24 #
coedge $-1 $61 $61 $98 $99 reversed $38 $-1 #
face $-1 $100 $101 $15 $-1 $102 reversed single #
loop $-1 $-1 $103 $40 #
plane-surface $-1 0 -48.264504788742698 0 0 1 0 0 0 1 forward_v I I I I #
coedge $-1 $104 $105 $106 $107 forward $41 $-1 #
coedge $-1 $108 $43 $109 $110 forward $26 $-1 #
coedge $-1 $43 $108 $111 $112 forward $26 $-1 #
coedge $-1 $113 $114 $43 $69 reversed $115 $-1 #
edge $-1 $116 -48.264504788742698 $117 48.264504788742698 $68 $118 forward 7 unknown #
face $-1 $119 $120 $16 $-1 $121 reversed single #
loop $-1 $-1 $76 $44 #
plane-surface $-1 -86.09008184378304 0 -4.3221029190855766 0 0 1 1 0 0 forward_v I I I I #
coedge $-1 $122 $123 $75 $124 forward $45 $-1 #
coedge $-1 $125 $47 $126 $127 reversed $29 $-1 #
coedge $-1 $47 $125 $73 $124 reversed $29 $-1 #
coedge $-1 $128 $129 $47 $77 reversed $71 $-1 #
edge $-1 $130 -48.264504788742698 $131 48.264504788742698 $76 $132 forward 7 unknown #
face $-1 $133 $134 $17 $-1 $135 reversed single #
loop $-1 $-1 $136 $48 #
plane-surface $-1 38.543436286644507 -162.8259176063537 110.28542553484262 1 0 0 0 0.73135370988377701 -0.68199835119979291 forward_v I I I I #
coedge $-1 $137 $138 $139 $140 reversed $49 $-1 #
coedge $-1 $83 $51 $141 $142 reversed $32 $-1 #
coedge $-1 $51 $82 $137 $143 reversed $32 $-1 #
coedge $-1 $139 $144 $51 $85 forward $145 $-1 #
edge $-1 $146 33.148454014434151 $147 40.964357155032737 $84 $148 forward 7 unknown #
loop $-1 $-1 $91 $52 #
plane-surface $-1 54.310445468295029 -48.264504788742698 3.4551823886833546 0 -0.73135370988377701 0.68199835119979291 1 0 0 forward_v I I I I #
loop $-1 $-1 $149 $34 #
coedge $-1 $89 $89 $90 $150 reversed $53 $-1 #
coedge $-1 $90 $90 $89 $150 forward $55 $-1 #
coedge $-1 $91 $91 $56 $92 forward $86 $-1 #
edge $-1 $151 -1.2991451645727939e-015 $151 6.2831853071795996 $91 $152 forward 7 unknown #
loop $-1 $-1 $98 $57 #
plane-surface $-1 54.310445468295029 -48.264504788742698 3.4551823886833546 0 -0.73135370988377701 0.68199835119979291 1 0 0 forward_v I I I I #
loop $-1 $-1 $153 $37 #
coedge $-1 $96 $96 $97 $154 reversed $58 $-1 #
coedge $-1 $97 $97 $96 $154 forward $60 $-1 #
coedge $-1 $98 $98 $61 $99 forward $93 $-1 #
edge $-1 $155 -1.2991451645727939e-015 $155 6.2831853071795996 $98 $156 forward 7 unknown #
face $-1 $157 $158 $15 $-1 $159 reversed single #
loop $-1 $-1 $160 $62 #
plane-surface $-1 -78.321481978820145 0 0 1 0 0 0 0 -1 forward_v I I I I #
coedge $-1 $161 $111 $160 $162 forward $63 $-1 #
coedge $-1 $163 $65 $161 $164 forward $41 $-1 #
coedge $-1 $65 $163 $165 $166 forward $41 $-1 #
coedge $-1 $114 $113 $65 $107 reversed $115 $-1 #
edge $-1 $167 -48.264504788742698 $168 48.264504788742698 $106 $169 forward 7 unknown #
coedge $-1 $67 $66 $170 $171 forward $26 $-1 #
coedge $-1 $172 $173 $66 $110 reversed $158 $-1 #
edge $-1 $117 -78.321481978820145 $174 78.321481978820145 $109 $175 forward 7 unknown #
coedge $-1 $103 $176 $67 $112 reversed $63 $-1 #
edge $-1 $177 -78.321481978820145 $116 78.321481978820145 $111 $178 forward 7 unknown #
coedge $-1 $106 $68 $176 $179 forward $115 $-1 #
coedge $-1 $68 $106 $172 $180 reversed $115 $-1 #
loop $-1 $-1 $113 $157 #
vertex $-1 $69 $181 #
vertex $-1 $69 $182 #
straight-curve $-1 78.321481978820145 0 11.83671256087943 0 1 0 I I #
face $-1 $183 $184 $16 $-1 $185 reversed single #
loop $-1 $-1 $186 $70 #
plane-surface $-1 -86.09008184378304 0 -11.164327493066022 0 0 1 1 0 0 forward_v I I I I #
coedge $-1 $187 $73 $188 $189 reversed $45 $-1 #
coedge $-1 $73 $187 $128 $190 reversed $45 $-1 #
edge $-1 $130 4.3221029190855766 $191 11.164327493066022 $73 $192 forward 7 unknown #
coedge $-1 $75 $74 $186 $193 forward $29 $-1 #
coedge $-1 $194 $195 $74 $127 forward $196 $-1 #
edge $-1 $197 -11.164327493066022 $131 -4.3221029190855766 $126 $198 forward 7 unknown #
coedge $-1 $199 $76 $123 $190 forward $71 $-1 #
coedge $-1 $76 $199 $194 $200 forward $71 $-1 #
vertex $-1 $124 $201 #
vertex $-1 $200 $202 #
straight-curve $-1 -78.321481978820145 0 -4.3221029190855766 0 -1 0 I I #
face $-1 $-1 $145 $17 $-1 $203 forward single #
loop $-1 $-1 $204 $78 #
plane-surface $-1 0 -48.264504788742698 0 0 1 0 0 0 1 forward_v I I I I #
coedge $-1 $205 $206 $207 $208 reversed $79 $-1 #
coedge $-1 $209 $81 $83 $143 forward $49 $-1 #
coedge $-1 $81 $209 $205 $210 forward $49 $-1 #
coedge $-1 $207 $84 $81 $140 forward $145 $-1 #
edge $-1 $147 -42.922231915798037 $211 -11.388213552496993 $139 $212 forward 7 unknown #
coedge $-1 $213 $214 $82 $142 forward $134 $-1 #
edge $-1 $215 -51.687530378737954 $146 -43.306000206541881 $141 $216 forward 7 unknown #
edge $-1 $147 -11.460296240963931 $215 0 $83 $217 forward 7 unknown #
coedge $-1 $84 $207 $213 $218 forward $145 $-1 #
loop $-1 $-1 $207 $133 #
vertex $-1 $142 $219 #
vertex $-1 $85 $220 #
straight-curve $-1 70.077454649945551 -81.412958803176849 11.836712560879434 0 1 0 I I #
coedge $-1 $149 $149 $-1 $221 reversed $88 $-1 #
edge $-1 $222 0 $222 6.2831853071796004 $89 $223 forward 7 unknown #
vertex $-1 $92 $224 #
ellipse-curve $-1 47.55315581901624 -44.356553218443402 7.6459474747813925 0 -0.73135370988377701 0.68199835119979291 2 0 0 1 I I #
coedge $-1 $153 $153 $-1 $225 reversed $95 $-1 #
edge $-1 $226 0 $226 6.2831853071796004 $96 $227 forward 7 unknown #
vertex $-1 $99 $228 #
ellipse-curve $-1 61.067735117573818 -44.356553218443402 7.6459474747813925 0 -0.73135370988377701 0.68199835119979291 2 0 0 1 I I #
face $-1 $-1 $115 $15 $-1 $229 reversed single #
loop $-1 $-1 $172 $100 #
plane-surface $-1 0 48.264504788742698 0 0 -1 0 0 0 -1 forward_v I I I I #
coedge $-1 $170 $230 $103 $162 reversed $101 $-1 #
coedge $-1 $176 $103 $104 $164 reversed $63 $-1 #
edge $-1 $177 -11.83671256087943 $231 11.83671256087943 $160 $232 forward 7 unknown #
coedge $-1 $105 $104 $230 $233 forward $41 $-1 #
edge $-1 $168 -78.321481978820145 $231 78.321481978820145 $161 $234 forward 7 unknown #
coedge $-1 $173 $172 $105 $166 reversed $158 $-1 #
edge $-1 $235 -78.321481978820145 $167 78.321481978820145 $165 $236 forward 7 unknown #
vertex $-1 $107 $237 #
vertex $-1 $179 $238 #
straight-curve $-1 78.321481978820145 0 -11.83671256087943 0 -1 0 I I #
coedge $-1 $239 $160 $108 $171 reversed $101 $-1 #
edge $-1 $174 -48.264504788742698 $177 48.264504788742698 $170 $240 forward 7 unknown #
coedge $-1 $165 $109 $114 $180 forward $158 $-1 #
coedge $-1 $109 $165 $239 $241 reversed $158 $-1 #
vertex $-1 $110 $242 #
straight-curve $-1 0 48.264504788742698 11.83671256087943 -1 0 0 I I #
coedge $-1 $111 $161 $113 $179 reversed $63 $-1 #
vertex $-1 $171 $243 #
straight-curve $-1 0 -48.264504788742698 11.83671256087943 1 0 0 I I #
edge $-1 $116 -11.83671256087943 $168 11.83671256087943 $113 $244 forward 7 unknown #
edge $-1 $117 -11.83671256087943 $167 11.83671256087943 $114 $245 forward 7 unknown #
point $-1 78.321481978820145 -48.264504788742698 11.83671256087943 #
point $-1 78.321481978820145 48.264504788742698 11.83671256087943 #
face $-1 $-1 $196 $16 $-1 $246 reversed single #
loop $-1 $-1 $247 $119 #
plane-surface $-1 -93.858681708745934 0 -7.7432152060757993 1 0 0 0 0 -1 forward_v I I I I #
coedge $-1 $248 $188 $125 $193 reversed $120 $-1 #
coedge $-1 $123 $122 $247 $249 reversed $45 $-1 #
coedge $-1 $186 $250 $122 $189 forward $120 $-1 #
edge $-1 $251 -7.7685998649628942 $191 7.7685998649628942 $122 $252 forward 7 unknown #
edge $-1 $130 -7.7685998649628942 $253 7.7685998649628942 $123 $254 forward 7 unknown #
vertex $-1 $124 $255 #
straight-curve $-1 -78.321481978820145 48.264504788742698 0 0 0 -1 I I #
edge $-1 $197 -48.264504788742698 $191 48.264504788742698 $186 $256 forward 7 unknown #
coedge $-1 $257 $126 $129 $200 reversed $196 $-1 #
coedge $-1 $126 $257 $248 $258 reversed $196 $-1 #
loop $-1 $-1 $126 $183 #
vertex $-1 $127 $259 #
straight-curve $-1 -78.321481978820145 -48.264504788742698 0 0 0 1 I I #
coedge $-1 $129 $128 $260 $261 forward $71 $-1 #
edge $-1 $262 -7.7685998649628942 $131 7.7685998649628942 $194 $263 forward 7 unknown #
point $-1 -78.321481978820145 48.264504788742698 -4.3221029190855766 #
point $-1 -78.321481978820145 -48.264504788742698 -4.3221029190855766 #
plane-surface $-1 0 0 11.83671256087943 0 0 1 1 0 0 forward_v I I I I #
coedge $-1 $214 $213 $206 $264 forward $134 $-1 #
coedge $-1 $206 $136 $138 $210 reversed $79 $-1 #
coedge $-1 $136 $205 $204 $264 reversed $79 $-1 #
coedge $-1 $144 $139 $136 $208 forward $145 $-1 #
edge $-1 $211 -40.964357155032737 $265 -33.148454014434151 $207 $266 forward 7 unknown #
coedge $-1 $138 $137 $214 $267 reversed $49 $-1 #
edge $-1 $268 0 $211 11.460296240963931 $205 $269 forward 7 unknown #
vertex $-1 $140 $270 #
straight-curve $-1 27.155222734147515 -40.448601648144106 11.83671256087943 -1 0 0 I I #
coedge $-1 $204 $141 $144 $218 reversed $134 $-1 #
coedge $-1 $141 $204 $209 $267 forward $134 $-1 #
vertex $-1 $142 $271 #
straight-curve $-1 70.077454649945551 -48.264504788742698 55.142712767421308 0 0 1 I I #
straight-curve $-1 70.077454649945551 -48.264504788742698 3.4551823886833546 0 -0.68199835119979291 -0.73135370988377701 I I #
edge $-1 $265 38.543436286644507 $146 70.077454649945551 $213 $272 forward 7 unknown #
point $-1 70.077454649945551 -48.264504788742698 11.83671256087943 #
point $-1 70.077454649945551 -40.448601648144113 11.83671256087943 #
edge $-1 $273 1 $273 0 $149 $-1 forward 7 unknown #
vertex $-1 $150 $274 #
ellipse-curve $-1 47.55315581901624 -39.720368422697113 3.32263531566349 0 -0.73135370988377701 0.68199835119979291 2 0 0 1 I I #
point $-1 49.55315581901624 -44.356553218443402 7.6459474747813889 #
edge $-1 $275 1 $275 0 $153 $-1 forward 7 unknown #
vertex $-1 $154 $276 #
ellipse-curve $-1 61.067735117573818 -39.720368422697113 3.32263531566349 0 -0.73135370988377701 0.68199835119979291 2 0 0 1 I I #
point $-1 63.067735117573818 -44.356553218443402 7.6459474747813889 #
plane-surface $-1 78.321481978820145 0 0 -1 0 0 0 0 1 forward_v I I I I #
coedge $-1 $160 $239 $163 $233 reversed $101 $-1 #
vertex $-1 $233 $277 #
straight-curve $-1 -78.321481978820145 -48.264504788742698 0 0 0 -1 I I #
edge $-1 $231 -48.264504788742698 $235 48.264504788742698 $230 $278 forward 7 unknown #
straight-curve $-1 0 -48.264504788742698 -11.83671256087943 -1 0 0 I I #
vertex $-1 $166 $279 #
straight-curve $-1 0 48.264504788742698 -11.83671256087943 1 0 0 I I #
point $-1 78.321481978820145 48.264504788742698 -11.83671256087943 #
point $-1 78.321481978820145 -48.264504788742698 -11.83671256087943 #
coedge $-1 $230 $170 $173 $241 forward $101 $-1 #
straight-curve $-1 -78.321481978820145 0 11.83671256087943 0 -1 0 I I #
edge $-1 $174 -11.83671256087943 $235 11.83671256087943 $173 $280 forward 7 unknown #
point $-1 -78.321481978820145 48.264504788742698 11.83671256087943 #
point $-1 -78.321481978820145 -48.264504788742698 11.83671256087943 #
straight-curve $-1 78.321481978820145 -48.264504788742698 0 0 0 -1 I I #
straight-curve $-1 78.321481978820145 48.264504788742698 0 0 0 -1 I I #
plane-surface $-1 0 -48.264504788742698 0 0 1 0 0 0 1 forward_v I I I I #
coedge $-1 $281 $260 $187 $249 forward $184 $-1 #
coedge $-1 $250 $186 $195 $258 forward $120 $-1 #
edge $-1 $253 -3.4211122869902226 $251 3.4211122869902226 $187 $282 forward 7 unknown #
coedge $-1 $188 $248 $281 $283 forward $120 $-1 #
vertex $-1 $189 $284 #
straight-curve $-1 -86.09008184378304 48.264504788742698 -11.164327493066022 1 0 0 I I #
vertex $-1 $190 $285 #
straight-curve $-1 -86.09008184378304 48.264504788742698 -4.3221029190855766 -1 0 0 I I #
point $-1 -78.321481978820145 48.264504788742698 -11.164327493066022 #
straight-curve $-1 -78.321481978820145 0 -11.164327493066022 0 1 0 I I #
coedge $-1 $195 $194 $286 $287 forward $196 $-1 #
edge $-1 $197 -7.7685998649628942 $288 7.7685998649628942 $195 $289 forward 7 unknown #
point $-1 -78.321481978820145 -48.264504788742698 -11.164327493066022 #
coedge $-1 $247 $286 $199 $261 reversed $184 $-1 #
edge $-1 $253 -48.264504788742698 $262 48.264504788742698 $260 $290 forward 7 unknown #
vertex $-1 $261 $291 #
straight-curve $-1 -86.09008184378304 -48.264504788742698 -4.3221029190855766 1 0 0 I I #
edge $-1 $265 43.306000206541881 $268 51.687530378737954 $204 $292 forward 7 unknown #
vertex $-1 $218 $293 #
straight-curve $-1 38.543436286644507 -81.412958803176849 11.836712560879434 0 -1 0 I I #
edge $-1 $268 11.388213552496993 $215 42.922231915798037 $214 $294 forward 7 unknown #
vertex $-1 $267 $295 #
straight-curve $-1 38.543436286644507 -48.264504788742698 3.4551823886833546 0 0.68199835119979291 0.73135370988377701 I I #
point $-1 38.543436286644507 -40.448601648144113 11.83671256087943 #
point $-1 70.077454649945551 -48.264504788742698 3.4551823886833546 #
straight-curve $-1 0 -48.264504788742698 11.83671256087943 1 0 0 I I #
vertex $-1 $221 $296 #
point $-1 49.55315581901624 -39.720368422697113 3.32263531566349 #
vertex $-1 $225 $297 #
point $-1 63.067735117573818 -39.720368422697113 3.32263531566349 #
point $-1 -78.321481978820145 -48.264504788742698 -11.83671256087943 #
straight-curve $-1 -78.321481978820145 0 -11.83671256087943 0 1 0 I I #
point $-1 -78.321481978820145 48.264504788742698 -11.83671256087943 #
straight-curve $-1 -78.321481978820145 48.264504788742698 0 0 0 -1 I I #
coedge $-1 $286 $247 $250 $283 reversed $184 $-1 #
straight-curve $-1 -93.858681708745934 48.264504788742698 -7.7432152060757993 0 0 -1 I I #
edge $-1 $288 -48.264504788742698 $251 48.264504788742698 $281 $298 forward 7 unknown #
point $-1 -93.858681708745934 48.264504788742698 -11.164327493066022 #
point $-1 -93.858681708745934 48.264504788742698 -4.3221029190855766 #
coedge $-1 $260 $281 $257 $287 reversed $184 $-1 #
edge $-1 $262 -3.4211122869902226 $288 3.4211122869902226 $286 $299 forward 7 unknown #
vertex $-1 $283 $300 #
straight-curve $-1 -86.09008184378304 -48.264504788742698 -11.164327493066022 -1 0 0 I I #
straight-curve $-1 -93.858681708745934 0 -4.3221029190855766 0 -1 0 I I #
point $-1 -93.858681708745934 -48.264504788742698 -4.3221029190855766 #
straight-curve $-1 38.543436286644507 -48.264504788742698 55.142712767421308 0 0 -1 I I #
point $-1 38.543436286644507 -48.264504788742698 11.83671256087943 #
straight-curve $-1 27.155222734147515 -48.264504788742698 3.4551823886833537 1 0 0 I I #
point $-1 38.543436286644507 -48.264504788742698 3.4551823886833546 #
point $-1 47.55315581901624 -38.257661002929559 1.9586386132639042 #
point $-1 61.067735117573818 -38.257661002929559 1.9586386132639042 #
straight-curve $-1 -93.858681708745934 0 -11.164327493066022 0 1 0 I I #
straight-curve $-1 -93.858681708745934 -48.264504788742698 -7.7432152060757993 0 0 -1 I I #
point $-1 -93.858681708745934 -48.264504788742698 -11.164327493066022 #
End-of-ACIS-data 