500 0 17 0           
7 Unknown 11 ACIS 5.0 NT 24 Thu Mar 25 19:02:35 1999 
-1 9.9999999999999995e-007 1e-010 
body $-1 $17 $-1 $18 #
body $-1 $19 $-1 $20 #
body $-1 $21 $-1 $22 #
body $-1 $23 $-1 $24 #
body $-1 $25 $-1 $26 #
body $-1 $27 $-1 $28 #
body $-1 $29 $-1 $30 #
body $-1 $31 $-1 $32 #
body $-1 $33 $-1 $34 #
body $-1 $35 $-1 $36 #
body $-1 $37 $-1 $38 #
body $-1 $39 $-1 $40 #
body $-1 $41 $-1 $42 #
body $-1 $43 $-1 $44 #
body $-1 $45 $-1 $46 #
body $-1 $47 $-1 $48 #
body $-1 $49 $-1 $50 #
lump $-1 $-1 $51 $0 #
transform $-1 1 0 0 0 1 0 0 0 1 79.230933561204864 45.314716342776563 19.731200503317329 1 rotate no_reflect no_shear #
lump $-1 $-1 $52 $1 #
transform $-1 1 0 0 0 1 0 0 0 1 79.230933561204864 45.314716342776563 19.731200503317329 1 rotate no_reflect no_shear #
lump $-1 $-1 $53 $2 #
transform $-1 1 0 0 0 1 0 0 0 1 79.230933561204864 45.314716342776563 19.731200503317329 1 rotate no_reflect no_shear #
lump $-1 $-1 $54 $3 #
transform $-1 1 0 0 0 1 0 0 0 1 79.230933561204864 45.314716342776563 19.731200503317329 1 rotate no_reflect no_shear #
lump $-1 $-1 $55 $4 #
transform $-1 1 0 0 0 1 0 0 0 1 79.230933561204864 45.314716342776563 19.731200503317329 1 rotate no_reflect no_shear #
lump $-1 $-1 $56 $5 #
transform $-1 1 0 0 0 1 0 0 0 1 79.230933561204864 45.314716342776563 19.731200503317329 1 rotate no_reflect no_shear #
lump $-1 $-1 $57 $6 #
transform $-1 1 0 0 0 1 0 0 0 1 79.230933561204864 45.314716342776563 19.731200503317329 1 rotate no_reflect no_shear #
lump $-1 $-1 $58 $7 #
transform $-1 1 0 0 0 1 0 0 0 1 79.230933561204864 45.314716342776563 19.731200503317329 1 rotate no_reflect no_shear #
lump $-1 $-1 $59 $8 #
transform $-1 1 0 0 0 1 0 0 0 1 79.230933561204864 45.314716342776563 19.731200503317329 1 rotate no_reflect no_shear #
lump $-1 $-1 $60 $9 #
transform $-1 1 0 0 0 1 0 0 0 1 79.230933561204864 45.314716342776563 19.731200503317329 1 rotate no_reflect no_shear #
lump $-1 $-1 $61 $10 #
transform $-1 1 0 0 0 1 0 0 0 1 79.230933561204864 45.314716342776563 19.731200503317329 1 rotate no_reflect no_shear #
lump $-1 $-1 $62 $11 #
transform $-1 1 0 0 0 1 0 0 0 1 79.230933561204864 45.314716342776563 19.731200503317329 1 rotate no_reflect no_shear #
lump $-1 $-1 $63 $12 #
transform $-1 1 0 0 0 1 0 0 0 1 79.230933561204864 45.314716342776563 19.731200503317329 1 rotate no_reflect no_shear #
lump $-1 $-1 $64 $13 #
transform $-1 1 0 0 0 1 0 0 0 1 79.230933561204864 45.314716342776563 19.731200503317329 1 rotate no_reflect no_shear #
lump $-1 $-1 $65 $14 #
transform $-1 1 0 0 0 1 0 0 0 1 79.230933561204864 45.314716342776563 19.731200503317329 1 rotate no_reflect no_shear #
lump $-1 $-1 $66 $15 #
transform $-1 1 0 0 0 1 0 0 0 1 79.230933561204864 45.314716342776563 19.731200503317329 1 rotate no_reflect no_shear #
lump $-1 $-1 $67 $16 #
transform $-1 1 0 0 0 1 0 0 0 1 79.230933561204864 45.314716342776563 19.731200503317329 1 rotate no_reflect no_shear #
shell $-1 $-1 $-1 $68 $-1 $17 #
shell $-1 $-1 $-1 $69 $-1 $19 #
shell $-1 $-1 $-1 $70 $-1 $21 #
shell $-1 $-1 $-1 $71 $-1 $23 #
shell $-1 $-1 $-1 $72 $-1 $25 #
shell $-1 $-1 $-1 $73 $-1 $27 #
shell $-1 $-1 $-1 $74 $-1 $29 #
shell $-1 $-1 $-1 $75 $-1 $31 #
shell $-1 $-1 $-1 $76 $-1 $33 #
shell $-1 $-1 $-1 $77 $-1 $35 #
shell $-1 $-1 $-1 $78 $-1 $37 #
shell $-1 $-1 $-1 $79 $-1 $39 #
shell $-1 $-1 $-1 $80 $-1 $41 #
shell $-1 $-1 $-1 $81 $-1 $43 #
shell $-1 $-1 $-1 $82 $-1 $45 #
shell $-1 $-1 $-1 $83 $-1 $47 #
shell $-1 $-1 $-1 $84 $-1 $49 #
face $-1 $85 $86 $51 $-1 $87 forward single #
face $-1 $88 $89 $52 $-1 $90 forward single #
face $-1 $91 $92 $53 $-1 $93 forward single #
face $-1 $94 $95 $54 $-1 $96 reversed single #
face $-1 $97 $98 $55 $-1 $99 forward single #
face $-1 $100 $101 $56 $-1 $102 forward single #
face $-1 $103 $104 $57 $-1 $105 reversed single #
face $-1 $106 $107 $58 $-1 $108 forward single #
face $-1 $109 $110 $59 $-1 $111 forward single #
face $-1 $112 $113 $60 $-1 $114 reversed single #
face $-1 $115 $116 $61 $-1 $117 forward single #
face $-1 $118 $119 $62 $-1 $120 reversed single #
face $-1 $121 $122 $63 $-1 $123 forward single #
face $-1 $124 $125 $64 $-1 $126 reversed single #
face $-1 $127 $128 $65 $-1 $129 forward single #
face $-1 $130 $131 $66 $-1 $132 reversed single #
face $-1 $133 $134 $67 $-1 $135 forward single #
face $-1 $136 $137 $51 $-1 $138 reversed single #
loop $-1 $-1 $139 $68 #
plane-surface $-1 0 0 19.731200503317329 0 0 1 1 0 0 forward_v I I I I #
face $-1 $140 $141 $52 $-1 $142 reversed single #
loop $-1 $-1 $143 $69 #
plane-surface $-1 0 -45.314716342776563 0 0 1 0 0 0 1 forward_v I I I I #
face $-1 $144 $145 $53 $-1 $146 reversed single #
loop $-1 $-1 $147 $70 #
plane-surface $-1 0 45.314716342776563 0 0 -1 0 0 0 -1 forward_v I I I I #
face $-1 $148 $149 $54 $-1 $150 reversed single #
loop $-1 $-1 $151 $71 #
plane-surface $-1 -172.37248329642915 -30.147988580667942 131.38455711676758 0 1 0 -0.5877852598018023 0 0.80901698891910034 forward_v I I I I #
face $-1 $152 $153 $55 $-1 $154 forward single #
loop $-1 $155 $156 $72 #
cone-surface $-1 -65.507190515051434 -26.142942866365587 8.2412311198906494 0.5877852598018023 0 -0.80901698891910034 1.6180339778382007 0 1.1755705196036046 1 I I 0 1 2 forward I I I I #
face $-1 $157 $158 $56 $-1 $159 forward single #
loop $-1 $160 $161 $73 #
cone-surface $-1 -65.507190515051434 -20.135374294912054 8.2412311198906494 0.5877852598018023 0 -0.80901698891910034 1.6180339778382007 0 1.1755705196036046 1 I I 0 1 2 forward I I I I #
face $-1 $162 $163 $57 $-1 $164 reversed single #
loop $-1 $-1 $165 $74 #
plane-surface $-1 -172.37248329642915 16.130328580609699 131.38455711676758 0 1 0 -0.5877852598018023 0 0.80901698891910034 forward_v I I I I #
face $-1 $166 $167 $58 $-1 $168 forward single #
loop $-1 $169 $170 $75 #
cone-surface $-1 -65.507190515051434 20.135374294912054 8.2412311198906494 0.5877852598018023 0 -0.80901698891910034 1.6180339778382007 0 1.1755705196036046 1 I I 0 1 2 forward I I I I #
face $-1 $171 $172 $59 $-1 $173 forward single #
loop $-1 $174 $175 $76 #
cone-surface $-1 -65.507190515051434 26.142942866365587 8.2412311198906494 0.5877852598018023 0 -0.80901698891910034 1.6180339778382007 0 1.1755705196036046 1 I I 0 1 2 forward I I I I #
face $-1 $176 $177 $60 $-1 $178 reversed single #
loop $-1 $-1 $179 $77 #
plane-surface $-1 67.502504629526726 -18.685643967031638 229.10930803659838 0 -1 0 -0.66913061440640931 0 -0.74314481823134659 forward_v I I I I #
face $-1 $180 $181 $61 $-1 $182 forward single #
loop $-1 $183 $184 $78 #
cone-surface $-1 70.796722798460266 -22.241513975480718 12.04657198259229 -0.66913061440640931 0 -0.74314481823134659 0.74314481823134659 0 -0.66913061440640931 1 I I 0 1 1 forward I I I I #
face $-1 $185 $186 $62 $-1 $187 reversed single #
loop $-1 $-1 $188 $79 #
plane-surface $-1 67.502504629526726 -3.6116496766976649 229.10930803659838 0 -1 0 -0.66913061440640931 0 -0.74314481823134659 forward_v I I I I #
face $-1 $189 $190 $63 $-1 $191 forward single #
loop $-1 $192 $193 $80 #
cone-surface $-1 70.796722798460266 -7.1675196851467433 12.04657198259229 -0.66913061440640931 0 -0.74314481823134659 0.74314481823134659 0 -0.66913061440640931 1 I I 0 1 1 forward I I I I #
face $-1 $194 $195 $64 $-1 $196 reversed single #
loop $-1 $-1 $197 $81 #
plane-surface $-1 67.502504629526726 11.462344613636306 229.10930803659838 0 -1 0 -0.66913061440640931 0 -0.74314481823134659 forward_v I I I I #
face $-1 $198 $199 $65 $-1 $200 forward single #
loop $-1 $201 $202 $82 #
cone-surface $-1 70.796722798460266 7.9064746051872277 12.04657198259229 -0.66913061440640931 0 -0.74314481823134659 0.74314481823134659 0 -0.66913061440640931 1 I I 0 1 1 forward I I I I #
face $-1 $203 $204 $66 $-1 $205 reversed single #
loop $-1 $-1 $206 $83 #
plane-surface $-1 67.502504629526726 26.536338903970275 229.10930803659838 0 -1 0 -0.66913061440640931 0 -0.74314481823134659 forward_v I I I I #
face $-1 $207 $208 $67 $-1 $209 forward single #
loop $-1 $210 $211 $84 #
cone-surface $-1 70.796722798460266 22.980468895521199 12.04657198259229 -0.66913061440640931 0 -0.74314481823134659 0.74314481823134659 0 -0.66913061440640931 1 I I 0 1 1 forward I I I I #
face $-1 $212 $213 $51 $-1 $214 reversed single #
loop $-1 $-1 $215 $85 #
plane-surface $-1 0 0 -19.731200503317329 0 0 1 1 0 0 forward_v I I I I #
coedge $-1 $216 $217 $218 $219 forward $86 $-1 #
face $-1 $220 $221 $52 $-1 $222 reversed single #
loop $-1 $-1 $223 $88 #
plane-surface $-1 0 0 -19.731200503317329 0 0 1 1 0 0 forward_v I I I I #
coedge $-1 $224 $225 $226 $227 forward $89 $-1 #
face $-1 $228 $229 $53 $-1 $230 reversed single #
loop $-1 $-1 $231 $91 #
plane-surface $-1 0 0 -19.731200503317329 0 0 1 1 0 0 forward_v I I I I #
coedge $-1 $232 $233 $234 $235 forward $92 $-1 #
face $-1 $236 $237 $54 $-1 $238 reversed single #
loop $-1 $-1 $239 $94 #
plane-surface $-1 -79.230933561204878 -23.139158580638821 3.1862145188970885 -0.5877852598018023 0 0.80901698891910034 0.80901698891910034 0 0.5877852598018023 forward_v I I I I #
coedge $-1 $240 $241 $242 $243 reversed $95 $-1 #
face $-1 $-1 $244 $55 $-1 $245 forward single #
loop $-1 $246 $247 $97 #
cone-surface $-1 -62.581771778548323 -26.142942866365587 4.2147377397550052 0.5877852598018023 0 -0.80901698891910034 0.80901698891910034 0 0.5877852598018023 1 I I -0.70710678118654746 0.70710678118654746 1 forward I I I I #
loop $-1 $-1 $248 $72 #
coedge $-1 $156 $156 $249 $250 reversed $98 $-1 #
face $-1 $-1 $251 $56 $-1 $252 forward single #
loop $-1 $253 $254 $100 #
cone-surface $-1 -62.581771778548323 -20.135374294912054 4.2147377397550052 0.5877852598018023 0 -0.80901698891910034 0.80901698891910034 0 0.5877852598018023 1 I I -0.70710678118654746 0.70710678118654746 1 forward I I I I #
loop $-1 $-1 $255 $73 #
coedge $-1 $161 $161 $256 $257 reversed $101 $-1 #
face $-1 $258 $259 $57 $-1 $260 reversed single #
loop $-1 $-1 $261 $103 #
plane-surface $-1 -79.230933561204878 23.139158580638821 3.1862145188970885 -0.5877852598018023 0 0.80901698891910034 0.80901698891910034 0 0.5877852598018023 forward_v I I I I #
coedge $-1 $262 $263 $264 $265 reversed $104 $-1 #
face $-1 $-1 $266 $58 $-1 $267 forward single #
loop $-1 $268 $269 $106 #
cone-surface $-1 -62.581771778548323 20.135374294912054 4.2147377397550052 0.5877852598018023 0 -0.80901698891910034 0.80901698891910034 0 0.5877852598018023 1 I I -0.70710678118654746 0.70710678118654746 1 forward I I I I #
loop $-1 $-1 $270 $75 #
coedge $-1 $170 $170 $271 $272 reversed $107 $-1 #
face $-1 $-1 $273 $59 $-1 $274 forward single #
loop $-1 $275 $276 $109 #
cone-surface $-1 -62.581771778548323 26.142942866365587 4.2147377397550052 0.5877852598018023 0 -0.80901698891910034 0.80901698891910034 0 0.5877852598018023 1 I I -0.70710678118654746 0.70710678118654746 1 forward I I I I #
loop $-1 $-1 $277 $76 #
coedge $-1 $175 $175 $278 $279 reversed $110 $-1 #
face $-1 $280 $281 $60 $-1 $282 reversed single #
loop $-1 $-1 $283 $112 #
plane-surface $-1 -38.529181878078091 -22.241513975480714 111.34919259731541 0.66913061440640931 0 0.74314481823134659 0.74314481823134659 0 -0.66913061440640931 forward_v I I I I #
coedge $-1 $284 $285 $286 $287 reversed $113 $-1 #
face $-1 $-1 $288 $61 $-1 $289 forward single #
loop $-1 $290 $291 $115 #
cone-surface $-1 70.031961254543518 -22.241513975480718 11.197218259554969 -0.66913061440640931 0 -0.74314481823134659 0.3715724091156733 0 -0.33456530720320465 1 I I -0.70710678118654746 0.70710678118654746 0.5 forward I I I I #
loop $-1 $-1 $292 $78 #
coedge $-1 $184 $184 $293 $294 reversed $116 $-1 #
face $-1 $295 $296 $62 $-1 $297 reversed single #
loop $-1 $-1 $298 $118 #
plane-surface $-1 -38.529181878078091 -7.1675196851467433 111.34919259731541 0.66913061440640931 0 0.74314481823134659 0.74314481823134659 0 -0.66913061440640931 forward_v I I I I #
coedge $-1 $299 $300 $301 $302 reversed $119 $-1 #
face $-1 $-1 $303 $63 $-1 $304 forward single #
loop $-1 $305 $306 $121 #
cone-surface $-1 70.031961254543518 -7.1675196851467433 11.197218259554969 -0.66913061440640931 0 -0.74314481823134659 0.3715724091156733 0 -0.33456530720320465 1 I I -0.70710678118654746 0.70710678118654746 0.5 forward I I I I #
loop $-1 $-1 $307 $80 #
coedge $-1 $193 $193 $308 $309 reversed $122 $-1 #
face $-1 $310 $311 $64 $-1 $312 reversed single #
loop $-1 $-1 $313 $124 #
plane-surface $-1 -38.529181878078091 7.9064746051872277 111.34919259731541 0.66913061440640931 0 0.74314481823134659 0.74314481823134659 0 -0.66913061440640931 forward_v I I I I #
coedge $-1 $314 $315 $316 $317 reversed $125 $-1 #
face $-1 $-1 $318 $65 $-1 $319 forward single #
loop $-1 $320 $321 $127 #
cone-surface $-1 70.031961254543518 7.9064746051872277 11.197218259554969 -0.66913061440640931 0 -0.74314481823134659 0.3715724091156733 0 -0.33456530720320465 1 I I -0.70710678118654746 0.70710678118654746 0.5 forward I I I I #
loop $-1 $-1 $322 $82 #
coedge $-1 $202 $202 $323 $324 reversed $128 $-1 #
face $-1 $325 $326 $66 $-1 $327 reversed single #
loop $-1 $-1 $328 $130 #
plane-surface $-1 -38.529181878078091 22.980468895521199 111.34919259731541 0.66913061440640931 0 0.74314481823134659 0.74314481823134659 0 -0.66913061440640931 forward_v I I I I #
coedge $-1 $329 $330 $331 $332 reversed $131 $-1 #
face $-1 $-1 $333 $67 $-1 $334 forward single #
loop $-1 $335 $336 $133 #
cone-surface $-1 70.031961254543518 22.980468895521199 11.197218259554969 -0.66913061440640931 0 -0.74314481823134659 0.3715724091156733 0 -0.33456530720320465 1 I I -0.70710678118654746 0.70710678118654746 0.5 forward I I I I #
loop $-1 $-1 $337 $84 #
coedge $-1 $211 $211 $338 $339 reversed $134 $-1 #
face $-1 $340 $341 $51 $-1 $342 reversed single #
loop $-1 $-1 $343 $136 #
plane-surface $-1 0 -45.314716342776563 0 0 1 0 0 0 1 forward_v I I I I #
coedge $-1 $344 $345 $346 $347 forward $137 $-1 #
coedge $-1 $348 $139 $349 $350 forward $86 $-1 #
coedge $-1 $139 $348 $351 $352 forward $86 $-1 #
coedge $-1 $353 $354 $139 $219 reversed $355 $-1 #
edge $-1 $356 -45.314716342776563 $357 45.314716342776563 $218 $358 forward 7 unknown #
face $-1 $359 $360 $52 $-1 $361 reversed single #
loop $-1 $-1 $362 $140 #
plane-surface $-1 -45.305396335445863 -60.481444104885185 0 0 1 0 0 0 1 forward_v I I I I #
coedge $-1 $363 $364 $225 $365 forward $141 $-1 #
coedge $-1 $366 $143 $367 $368 reversed $89 $-1 #
coedge $-1 $143 $366 $223 $365 reversed $89 $-1 #
coedge $-1 $369 $370 $143 $227 reversed $360 $-1 #
edge $-1 $371 -19.731200503317329 $372 19.731200503317329 $226 $373 forward 7 unknown #
face $-1 $374 $375 $53 $-1 $376 reversed single #
loop $-1 $-1 $377 $144 #
plane-surface $-1 -50.842260116321512 52.898080223830874 0 1 0 0 0 0 -1 forward_v I I I I #
coedge $-1 $378 $379 $233 $380 forward $145 $-1 #
coedge $-1 $381 $147 $382 $383 reversed $92 $-1 #
coedge $-1 $147 $381 $231 $380 reversed $92 $-1 #
coedge $-1 $384 $385 $147 $235 reversed $386 $-1 #
edge $-1 $387 -19.731200503317329 $388 19.731200503317329 $234 $389 forward 7 unknown #
face $-1 $390 $391 $54 $-1 $392 reversed single #
loop $-1 $-1 $393 $148 #
plane-surface $-1 -172.37248329642915 -16.130328580609699 131.38455711676758 0 -1 0 0.5877852598018023 0 -0.80901698891910034 forward_v I I I I #
coedge $-1 $394 $395 $396 $397 reversed $149 $-1 #
coedge $-1 $241 $151 $398 $399 reversed $95 $-1 #
coedge $-1 $151 $240 $394 $400 reversed $95 $-1 #
coedge $-1 $396 $401 $151 $243 forward $402 $-1 #
edge $-1 $403 6.9553080870097119 $404 29.727527225913903 $242 $405 forward 7 unknown #
loop $-1 $-1 $249 $152 #
plane-surface $-1 -79.230933561204878 -23.139158580638821 3.1862145188970885 -0.5877852598018023 0 0.80901698891910034 0.80901698891910034 0 0.5877852598018023 forward_v I I I I #
loop $-1 $-1 $406 $97 #
coedge $-1 $247 $247 $248 $407 reversed $153 $-1 #
coedge $-1 $248 $248 $247 $407 forward $155 $-1 #
coedge $-1 $249 $249 $156 $250 forward $244 $-1 #
edge $-1 $408 0 $408 6.2831853071796004 $249 $409 forward 7 unknown #
loop $-1 $-1 $256 $157 #
plane-surface $-1 -79.230933561204878 -23.139158580638821 3.1862145188970885 -0.5877852598018023 0 0.80901698891910034 0.80901698891910034 0 0.5877852598018023 forward_v I I I I #
loop $-1 $-1 $410 $100 #
coedge $-1 $254 $254 $255 $411 reversed $158 $-1 #
coedge $-1 $255 $255 $254 $411 forward $160 $-1 #
coedge $-1 $256 $256 $161 $257 forward $251 $-1 #
edge $-1 $412 0 $412 6.2831853071796004 $256 $413 forward 7 unknown #
face $-1 $414 $415 $57 $-1 $416 forward single #
loop $-1 $-1 $417 $162 #
plane-surface $-1 -172.37248329642915 30.147988580667942 131.38455711676758 0 -1 0 0.5877852598018023 0 -0.80901698891910034 forward_v I I I I #
coedge $-1 $418 $419 $420 $421 reversed $163 $-1 #
coedge $-1 $263 $165 $422 $423 reversed $104 $-1 #
coedge $-1 $165 $262 $418 $424 reversed $104 $-1 #
coedge $-1 $420 $425 $165 $265 forward $415 $-1 #
edge $-1 $426 6.9553080870097119 $427 29.727527225913903 $264 $428 forward 7 unknown #
loop $-1 $-1 $271 $166 #
plane-surface $-1 -79.230933561204878 23.139158580638821 3.1862145188970885 -0.5877852598018023 0 0.80901698891910034 0.80901698891910034 0 0.5877852598018023 forward_v I I I I #
loop $-1 $-1 $429 $106 #
coedge $-1 $269 $269 $270 $430 reversed $167 $-1 #
coedge $-1 $270 $270 $269 $430 forward $169 $-1 #
coedge $-1 $271 $271 $170 $272 forward $266 $-1 #
edge $-1 $431 0 $431 6.2831853071796004 $271 $432 forward 7 unknown #
loop $-1 $-1 $278 $171 #
plane-surface $-1 -79.230933561204878 23.139158580638821 3.1862145188970885 -0.5877852598018023 0 0.80901698891910034 0.80901698891910034 0 0.5877852598018023 forward_v I I I I #
loop $-1 $-1 $433 $109 #
coedge $-1 $276 $276 $277 $434 reversed $172 $-1 #
coedge $-1 $277 $277 $276 $434 forward $174 $-1 #
coedge $-1 $278 $278 $175 $279 forward $273 $-1 #
edge $-1 $435 0 $435 6.2831853071796004 $278 $436 forward 7 unknown #
face $-1 $437 $438 $60 $-1 $439 forward single #
loop $-1 $-1 $440 $176 #
plane-surface $-1 67.502504629526726 -25.797383983929791 229.10930803659838 0 1 0 0.66913061440640931 0 0.74314481823134659 forward_v I I I I #
coedge $-1 $441 $442 $443 $444 reversed $177 $-1 #
coedge $-1 $285 $179 $445 $446 reversed $113 $-1 #
coedge $-1 $179 $284 $441 $447 reversed $113 $-1 #
coedge $-1 $443 $448 $179 $287 forward $438 $-1 #
edge $-1 $449 -45.479681246441501 $450 -29.471652194379431 $286 $451 forward 7 unknown #
loop $-1 $-1 $293 $180 #
plane-surface $-1 -38.529181878078091 -22.241513975480714 111.34919259731541 0.66913061440640931 0 0.74314481823134659 0.74314481823134659 0 -0.66913061440640931 forward_v I I I I #
loop $-1 $-1 $452 $115 #
coedge $-1 $291 $291 $292 $453 reversed $181 $-1 #
coedge $-1 $292 $292 $291 $453 forward $183 $-1 #
coedge $-1 $293 $293 $184 $294 forward $288 $-1 #
edge $-1 $454 0 $454 6.2831853071796004 $293 $455 forward 7 unknown #
face $-1 $456 $457 $62 $-1 $458 reversed single #
loop $-1 $-1 $459 $185 #
plane-surface $-1 67.502504629526726 -10.723389693595822 229.10930803659838 0 1 0 0.66913061440640931 0 0.74314481823134659 forward_v I I I I #
coedge $-1 $460 $461 $462 $463 reversed $186 $-1 #
coedge $-1 $300 $188 $464 $465 reversed $119 $-1 #
coedge $-1 $188 $299 $460 $466 reversed $119 $-1 #
coedge $-1 $462 $467 $188 $302 forward $468 $-1 #
edge $-1 $469 -45.479681246441501 $470 -29.471652194379431 $301 $471 forward 7 unknown #
loop $-1 $-1 $308 $189 #
plane-surface $-1 -38.529181878078091 -7.1675196851467433 111.34919259731541 0.66913061440640931 0 0.74314481823134659 0.74314481823134659 0 -0.66913061440640931 forward_v I I I I #
loop $-1 $-1 $472 $121 #
coedge $-1 $306 $306 $307 $473 reversed $190 $-1 #
coedge $-1 $307 $307 $306 $473 forward $192 $-1 #
coedge $-1 $308 $308 $193 $309 forward $303 $-1 #
edge $-1 $474 0 $474 6.2831853071796004 $308 $475 forward 7 unknown #
face $-1 $476 $477 $64 $-1 $478 reversed single #
loop $-1 $-1 $479 $194 #
plane-surface $-1 67.502504629526726 4.3506045967381493 229.10930803659838 0 1 0 0.66913061440640931 0 0.74314481823134659 forward_v I I I I #
coedge $-1 $480 $481 $482 $483 reversed $195 $-1 #
coedge $-1 $315 $197 $484 $485 reversed $125 $-1 #
coedge $-1 $197 $314 $480 $486 reversed $125 $-1 #
coedge $-1 $482 $487 $197 $317 forward $488 $-1 #
edge $-1 $489 -45.479681246441501 $490 -29.471652194379431 $316 $491 forward 7 unknown #
loop $-1 $-1 $323 $198 #
plane-surface $-1 -38.529181878078091 7.9064746051872277 111.34919259731541 0.66913061440640931 0 0.74314481823134659 0.74314481823134659 0 -0.66913061440640931 forward_v I I I I #
loop $-1 $-1 $492 $127 #
coedge $-1 $321 $321 $322 $493 reversed $199 $-1 #
coedge $-1 $322 $322 $321 $493 forward $201 $-1 #
coedge $-1 $323 $323 $202 $324 forward $318 $-1 #
edge $-1 $494 0 $494 6.2831853071796004 $323 $495 forward 7 unknown #
face $-1 $496 $497 $66 $-1 $498 reversed single #
loop $-1 $-1 $499 $203 #
plane-surface $-1 67.502504629526726 19.424598887072122 229.10930803659838 0 1 0 0.66913061440640931 0 0.74314481823134659 forward_v I I I I #
coedge $-1 $500 $501 $502 $503 reversed $204 $-1 #
coedge $-1 $330 $206 $504 $505 reversed $131 $-1 #
coedge $-1 $206 $329 $500 $506 reversed $131 $-1 #
coedge $-1 $502 $507 $206 $332 forward $508 $-1 #
edge $-1 $509 -45.479681246441501 $510 -29.471652194379431 $331 $511 forward 7 unknown #
loop $-1 $-1 $338 $207 #
plane-surface $-1 -38.529181878078091 22.980468895521199 111.34919259731541 0.66913061440640931 0 0.74314481823134659 0.74314481823134659 0 -0.66913061440640931 forward_v I I I I #
loop $-1 $-1 $512 $133 #
coedge $-1 $336 $336 $337 $513 reversed $208 $-1 #
coedge $-1 $337 $337 $336 $513 forward $210 $-1 #
coedge $-1 $338 $338 $211 $339 forward $333 $-1 #
edge $-1 $514 0 $514 6.2831853071796004 $338 $515 forward 7 unknown #
face $-1 $516 $517 $51 $-1 $518 reversed single #
loop $-1 $-1 $519 $212 #
plane-surface $-1 -79.230933561204864 0 0 1 0 0 0 0 -1 forward_v I I I I #
coedge $-1 $520 $351 $521 $522 forward $213 $-1 #
coedge $-1 $523 $215 $520 $524 forward $137 $-1 #
coedge $-1 $215 $523 $525 $526 forward $137 $-1 #
coedge $-1 $354 $353 $215 $347 reversed $355 $-1 #
edge $-1 $527 -45.314716342776563 $528 45.314716342776563 $346 $529 forward 7 unknown #
coedge $-1 $217 $216 $530 $531 forward $86 $-1 #
coedge $-1 $532 $533 $216 $350 reversed $517 $-1 #
edge $-1 $357 -79.230933561204864 $534 79.230933561204864 $349 $535 forward 7 unknown #
coedge $-1 $343 $536 $217 $352 reversed $213 $-1 #
edge $-1 $537 -79.230933561204864 $356 79.230933561204864 $351 $538 forward 7 unknown #
coedge $-1 $346 $218 $536 $539 forward $355 $-1 #
coedge $-1 $218 $346 $532 $540 reversed $355 $-1 #
loop $-1 $-1 $353 $516 #
vertex $-1 $219 $541 #
vertex $-1 $219 $542 #
straight-curve $-1 79.230933561204864 0 19.731200503317329 0 1 0 I I #
face $-1 $543 $544 $52 $-1 $545 reversed single #
loop $-1 $-1 $226 $220 #
plane-surface $-1 -50.842260116321512 -52.898080223830874 0 1 0 0 0 0 -1 forward_v I I I I #
coedge $-1 $546 $547 $548 $549 forward $221 $-1 #
coedge $-1 $550 $223 $551 $552 forward $141 $-1 #
coedge $-1 $223 $550 $369 $553 forward $141 $-1 #
edge $-1 $371 -50.842260116321512 $554 -39.768532554570214 $223 $555 forward 7 unknown #
coedge $-1 $225 $224 $556 $557 forward $89 $-1 #
coedge $-1 $558 $559 $224 $368 forward $560 $-1 #
edge $-1 $561 39.768532554570214 $372 50.842260116321512 $367 $562 forward 7 unknown #
coedge $-1 $548 $226 $364 $553 reversed $360 $-1 #
coedge $-1 $226 $548 $558 $563 reversed $360 $-1 #
vertex $-1 $365 $564 #
vertex $-1 $563 $565 #
straight-curve $-1 -50.842260116321512 -45.314716342776563 0 0 0 1 I I #
face $-1 $566 $386 $53 $-1 $567 reversed single #
loop $-1 $-1 $568 $228 #
plane-surface $-1 -45.305396335445863 60.481444104885185 0 0 -1 0 0 0 -1 forward_v I I I I #
coedge $-1 $569 $570 $571 $572 forward $229 $-1 #
coedge $-1 $573 $231 $569 $574 forward $145 $-1 #
coedge $-1 $231 $573 $384 $575 forward $145 $-1 #
edge $-1 $387 39.768532554570214 $576 50.842260116321512 $231 $577 forward 7 unknown #
coedge $-1 $233 $232 $578 $579 forward $92 $-1 #
coedge $-1 $580 $581 $232 $383 forward $582 $-1 #
edge $-1 $583 -50.842260116321512 $388 -39.768532554570214 $382 $584 forward 7 unknown #
coedge $-1 $585 $234 $379 $575 reversed $386 $-1 #
coedge $-1 $234 $585 $580 $586 reversed $386 $-1 #
loop $-1 $-1 $234 $374 #
vertex $-1 $380 $587 #
vertex $-1 $586 $588 #
straight-curve $-1 -39.768532554570214 45.314716342776563 0 0 0 1 I I #
face $-1 $-1 $402 $54 $-1 $589 forward single #
loop $-1 $-1 $590 $236 #
plane-surface $-1 -79.230933561204864 0 0 1 0 0 0 0 -1 forward_v I I I I #
coedge $-1 $591 $592 $593 $594 reversed $237 $-1 #
coedge $-1 $595 $239 $241 $400 forward $149 $-1 #
coedge $-1 $239 $595 $591 $596 forward $149 $-1 #
coedge $-1 $593 $242 $239 $397 forward $402 $-1 #
edge $-1 $404 -18.578409290348532 $597 -4.5607492902902891 $396 $598 forward 7 unknown #
coedge $-1 $599 $600 $240 $399 forward $391 $-1 #
edge $-1 $601 -62.506064039486695 $403 -45.961078055066466 $398 $602 forward 7 unknown #
edge $-1 $404 -28.148011044031815 $601 -1.7500491998158137e-014 $241 $603 forward 7 unknown #
coedge $-1 $242 $593 $599 $604 forward $402 $-1 #
loop $-1 $-1 $593 $390 #
vertex $-1 $399 $605 #
vertex $-1 $243 $606 #
straight-curve $-1 -86.186241648214576 -30.147988580667942 19.731200503317325 1 0 0 I I #
coedge $-1 $406 $406 $-1 $607 reversed $246 $-1 #
edge $-1 $608 0 $608 6.2831853071796004 $247 $609 forward 7 unknown #
vertex $-1 $250 $610 #
ellipse-curve $-1 -67.844823991752762 -26.142942866365587 11.458707511107221 -0.5877852598018023 0 0.80901698891910034 1.6180339778382007 0 1.1755705196036046 1 I I #
coedge $-1 $410 $410 $-1 $611 reversed $253 $-1 #
edge $-1 $612 0 $612 6.2831853071796004 $254 $613 forward 7 unknown #
vertex $-1 $257 $614 #
ellipse-curve $-1 -67.844823991752762 -20.135374294912054 11.458707511107221 -0.5877852598018023 0 0.80901698891910034 1.6180339778382007 0 1.1755705196036046 1 I I #
face $-1 $-1 $615 $57 $-1 $616 reversed single #
loop $-1 $-1 $264 $258 #
plane-surface $-1 0 0 19.731200503317329 0 0 1 1 0 0 forward_v I I I I #
coedge $-1 $617 $618 $619 $620 reversed $259 $-1 #
coedge $-1 $621 $261 $263 $424 forward $163 $-1 #
coedge $-1 $261 $621 $617 $622 forward $163 $-1 #
coedge $-1 $619 $264 $261 $421 forward $415 $-1 #
edge $-1 $427 4.5607492902902891 $623 18.578409290348532 $420 $624 forward 7 unknown #
coedge $-1 $625 $626 $262 $423 forward $615 $-1 #
edge $-1 $627 -62.506064039486695 $426 -45.961078055066466 $422 $628 forward 7 unknown #
edge $-1 $427 -28.148011044031815 $627 -1.7500491998158137e-014 $263 $629 forward 7 unknown #
coedge $-1 $264 $619 $625 $630 forward $415 $-1 #
vertex $-1 $423 $631 #
vertex $-1 $265 $632 #
straight-curve $-1 -86.186241648214576 16.130328580609699 19.731200503317325 1 0 0 I I #
coedge $-1 $429 $429 $-1 $633 reversed $268 $-1 #
edge $-1 $634 0 $634 6.2831853071796004 $269 $635 forward 7 unknown #
vertex $-1 $272 $636 #
ellipse-curve $-1 -67.844823991752762 20.135374294912054 11.458707511107221 -0.5877852598018023 0 0.80901698891910034 1.6180339778382007 0 1.1755705196036046 1 I I #
coedge $-1 $433 $433 $-1 $637 reversed $275 $-1 #
edge $-1 $638 0 $638 6.2831853071796004 $276 $639 forward 7 unknown #
vertex $-1 $279 $640 #
ellipse-curve $-1 -67.844823991752762 26.142942866365587 11.458707511107221 -0.5877852598018023 0 0.80901698891910034 1.6180339778382007 0 1.1755705196036046 1 I I #
face $-1 $-1 $641 $60 $-1 $642 reversed single #
loop $-1 $-1 $286 $280 #
plane-surface $-1 0 0 19.731200503317329 0 0 1 1 0 0 forward_v I I I I #
coedge $-1 $643 $644 $645 $646 reversed $281 $-1 #
coedge $-1 $647 $283 $285 $447 forward $177 $-1 #
coedge $-1 $283 $647 $643 $648 forward $177 $-1 #
coedge $-1 $645 $286 $283 $444 forward $438 $-1 #
edge $-1 $450 7.5648869792912805 $649 14.676626996189434 $443 $650 forward 7 unknown #
coedge $-1 $651 $652 $284 $446 forward $641 $-1 #
edge $-1 $653 -109.23714792858857 $449 -94.823453514981864 $445 $654 forward 7 unknown #
edge $-1 $450 136.92093908343003 $653 158.46186712240967 $285 $655 forward 7 unknown #
coedge $-1 $286 $645 $651 $656 forward $438 $-1 #
vertex $-1 $287 $657 #
vertex $-1 $287 $658 #
straight-curve $-1 33.751252314763363 -18.685643967031638 19.731200503317325 -1 0 0 I I #
coedge $-1 $452 $452 $-1 $659 reversed $290 $-1 #
edge $-1 $660 0 $660 6.2831853071796004 $291 $661 forward 7 unknown #
vertex $-1 $294 $662 #
ellipse-curve $-1 71.226919035173836 -22.241513975480718 12.524353296513969 0.66913061440640931 0 0.74314481823134659 0.74314481823134659 0 -0.66913061440640931 1 I I #
face $-1 $-1 $468 $62 $-1 $663 forward single #
loop $-1 $-1 $664 $295 #
plane-surface $-1 79.230933561204864 0 0 -1 0 0 0 0 1 forward_v I I I I #
coedge $-1 $665 $666 $667 $668 reversed $296 $-1 #
coedge $-1 $669 $298 $300 $466 forward $186 $-1 #
coedge $-1 $298 $669 $665 $670 forward $186 $-1 #
coedge $-1 $667 $301 $298 $463 forward $468 $-1 #
edge $-1 $470 0.027889834124293245 $671 7.1396298510224501 $462 $672 forward 7 unknown #
coedge $-1 $673 $674 $299 $465 forward $457 $-1 #
edge $-1 $675 -109.23714792858857 $469 -94.823453514981864 $464 $676 forward 7 unknown #
edge $-1 $470 136.92093908343003 $675 158.46186712240967 $300 $677 forward 7 unknown #
coedge $-1 $301 $667 $673 $678 forward $468 $-1 #
loop $-1 $-1 $667 $456 #
vertex $-1 $465 $679 #
vertex $-1 $302 $680 #
straight-curve $-1 33.751252314763363 -3.6116496766976649 19.731200503317325 -1 0 0 I I #
coedge $-1 $472 $472 $-1 $681 reversed $305 $-1 #
edge $-1 $682 0 $682 6.2831853071796004 $306 $683 forward 7 unknown #
vertex $-1 $309 $684 #
ellipse-curve $-1 71.226919035173836 -7.1675196851467433 12.524353296513969 0.66913061440640931 0 0.74314481823134659 0.74314481823134659 0 -0.66913061440640931 1 I I #
face $-1 $-1 $488 $64 $-1 $685 forward single #
loop $-1 $-1 $686 $310 #
plane-surface $-1 79.230933561204864 0 0 -1 0 0 0 0 1 forward_v I I I I #
coedge $-1 $687 $688 $689 $690 reversed $311 $-1 #
coedge $-1 $691 $313 $315 $486 forward $195 $-1 #
coedge $-1 $313 $691 $687 $692 forward $195 $-1 #
coedge $-1 $689 $316 $313 $483 forward $488 $-1 #
edge $-1 $490 -7.5091073110426922 $693 -0.39736729414453542 $482 $694 forward 7 unknown #
coedge $-1 $695 $696 $314 $485 forward $477 $-1 #
edge $-1 $697 -109.23714792858857 $489 -94.823453514981864 $484 $698 forward 7 unknown #
edge $-1 $490 136.92093908343003 $697 158.46186712240967 $315 $699 forward 7 unknown #
coedge $-1 $316 $689 $695 $700 forward $488 $-1 #
loop $-1 $-1 $689 $476 #
vertex $-1 $485 $701 #
vertex $-1 $317 $702 #
straight-curve $-1 33.751252314763363 11.462344613636306 19.731200503317325 -1 0 0 I I #
coedge $-1 $492 $492 $-1 $703 reversed $320 $-1 #
edge $-1 $704 0 $704 6.2831853071796004 $321 $705 forward 7 unknown #
vertex $-1 $324 $706 #
ellipse-curve $-1 71.226919035173836 7.9064746051872277 12.524353296513969 0.66913061440640931 0 0.74314481823134659 0.74314481823134659 0 -0.66913061440640931 1 I I #
face $-1 $-1 $508 $66 $-1 $707 forward single #
loop $-1 $-1 $708 $325 #
plane-surface $-1 79.230933561204864 0 0 -1 0 0 0 0 1 forward_v I I I I #
coedge $-1 $709 $710 $711 $712 reversed $326 $-1 #
coedge $-1 $713 $328 $330 $506 forward $204 $-1 #
coedge $-1 $328 $713 $709 $714 forward $204 $-1 #
coedge $-1 $711 $331 $328 $503 forward $508 $-1 #
edge $-1 $510 -15.046104456209676 $715 -7.9343644393115227 $502 $716 forward 7 unknown #
coedge $-1 $717 $718 $329 $505 forward $497 $-1 #
edge $-1 $719 -109.23714792858857 $509 -94.823453514981864 $504 $720 forward 7 unknown #
edge $-1 $510 136.92093908343003 $719 158.46186712240967 $330 $721 forward 7 unknown #
coedge $-1 $331 $711 $717 $722 forward $508 $-1 #
loop $-1 $-1 $711 $496 #
vertex $-1 $505 $723 #
vertex $-1 $332 $724 #
straight-curve $-1 33.751252314763363 26.536338903970275 19.731200503317325 -1 0 0 I I #
coedge $-1 $512 $512 $-1 $725 reversed $335 $-1 #
edge $-1 $726 0 $726 6.2831853071796004 $336 $727 forward 7 unknown #
vertex $-1 $339 $728 #
ellipse-curve $-1 71.226919035173836 22.980468895521199 12.524353296513969 0.66913061440640931 0 0.74314481823134659 0.74314481823134659 0 -0.66913061440640931 1 I I #
face $-1 $-1 $355 $51 $-1 $729 reversed single #
loop $-1 $-1 $532 $340 #
plane-surface $-1 0 45.314716342776563 0 0 -1 0 0 0 -1 forward_v I I I I #
coedge $-1 $730 $530 $533 $731 forward $341 $-1 #
coedge $-1 $536 $343 $344 $524 reversed $213 $-1 #
coedge $-1 $530 $730 $343 $522 reversed $341 $-1 #
edge $-1 $537 -19.731200503317329 $732 19.731200503317329 $521 $733 forward 7 unknown #
coedge $-1 $345 $344 $730 $734 forward $137 $-1 #
edge $-1 $528 -79.230933561204864 $732 79.230933561204864 $520 $735 forward 7 unknown #
coedge $-1 $533 $532 $345 $526 reversed $517 $-1 #
edge $-1 $736 -79.230933561204864 $527 79.230933561204864 $525 $737 forward 7 unknown #
vertex $-1 $347 $738 #
vertex $-1 $539 $739 #
straight-curve $-1 79.230933561204864 0 -19.731200503317329 0 -1 0 I I #
coedge $-1 $519 $521 $348 $531 reversed $341 $-1 #
edge $-1 $534 -45.314716342776563 $537 45.314716342776563 $530 $740 forward 7 unknown #
coedge $-1 $525 $349 $354 $540 forward $517 $-1 #
coedge $-1 $349 $525 $519 $731 reversed $517 $-1 #
vertex $-1 $350 $741 #
straight-curve $-1 0 45.314716342776563 19.731200503317329 -1 0 0 I I #
coedge $-1 $351 $520 $353 $539 reversed $213 $-1 #
vertex $-1 $531 $742 #
straight-curve $-1 0 -45.314716342776563 19.731200503317329 1 0 0 I I #
edge $-1 $356 -19.731200503317329 $528 19.731200503317329 $353 $743 forward 7 unknown #
edge $-1 $357 -19.731200503317329 $527 19.731200503317329 $354 $744 forward 7 unknown #
point $-1 79.230933561204864 -45.314716342776563 19.731200503317329 #
point $-1 79.230933561204864 45.314716342776563 19.731200503317329 #
face $-1 $-1 $560 $52 $-1 $745 forward single #
loop $-1 $-1 $746 $359 #
plane-surface $-1 -39.768532554570214 -52.898080223830874 0 -1 0 0 0 0 1 forward_v I I I I #
coedge $-1 $747 $362 $550 $748 reversed $221 $-1 #
coedge $-1 $362 $747 $749 $750 reversed $221 $-1 #
coedge $-1 $370 $369 $362 $549 reversed $360 $-1 #
edge $-1 $751 -19.731200503317329 $752 19.731200503317329 $548 $753 forward 7 unknown #
coedge $-1 $364 $363 $546 $748 forward $141 $-1 #
coedge $-1 $556 $746 $363 $552 reversed $544 $-1 #
edge $-1 $554 -7.5833638810543107 $754 7.5833638810543107 $551 $755 forward 7 unknown #
edge $-1 $752 -7.5833638810543107 $371 7.5833638810543107 $369 $756 forward 7 unknown #
vertex $-1 $552 $757 #
straight-curve $-1 0 -45.314716342776563 -19.731200503317329 1 0 0 I I #
coedge $-1 $758 $551 $366 $557 reversed $544 $-1 #
edge $-1 $561 -19.731200503317329 $554 19.731200503317329 $556 $759 forward 7 unknown #
coedge $-1 $749 $367 $370 $563 forward $560 $-1 #
coedge $-1 $367 $749 $758 $760 forward $560 $-1 #
loop $-1 $-1 $367 $543 #
vertex $-1 $368 $761 #
straight-curve $-1 0 -45.314716342776563 19.731200503317329 -1 0 0 I I #
edge $-1 $372 -7.5833638810543107 $751 7.5833638810543107 $370 $762 forward 7 unknown #
point $-1 -50.842260116321512 -45.314716342776563 -19.731200503317329 #
point $-1 -50.842260116321512 -45.314716342776563 19.731200503317329 #
face $-1 $-1 $582 $53 $-1 $763 forward single #
plane-surface $-1 -39.768532554570214 52.898080223830874 0 -1 0 0 0 0 1 forward_v I I I I #
coedge $-1 $764 $765 $585 $766 forward $375 $-1 #
coedge $-1 $578 $377 $378 $574 reversed $229 $-1 #
coedge $-1 $377 $578 $581 $767 reversed $229 $-1 #
coedge $-1 $765 $764 $377 $572 reversed $375 $-1 #
edge $-1 $768 -19.731200503317329 $769 19.731200503317329 $571 $770 forward 7 unknown #
coedge $-1 $379 $378 $764 $771 forward $145 $-1 #
edge $-1 $576 -7.5833638810543107 $769 7.5833638810543107 $569 $772 forward 7 unknown #
edge $-1 $773 -7.5833638810543107 $387 7.5833638810543107 $384 $774 forward 7 unknown #
vertex $-1 $574 $775 #
straight-curve $-1 0 45.314716342776563 -19.731200503317329 -1 0 0 I I #
coedge $-1 $570 $569 $381 $579 reversed $229 $-1 #
edge $-1 $583 -19.731200503317329 $576 19.731200503317329 $578 $776 forward 7 unknown #
coedge $-1 $777 $382 $385 $586 forward $582 $-1 #
coedge $-1 $382 $777 $570 $767 forward $582 $-1 #
loop $-1 $-1 $382 $566 #
vertex $-1 $383 $778 #
straight-curve $-1 0 45.314716342776563 19.731200503317329 1 0 0 I I #
coedge $-1 $385 $384 $568 $766 reversed $386 $-1 #
edge $-1 $388 -7.5833638810543107 $779 7.5833638810543107 $385 $780 forward 7 unknown #
point $-1 -39.768532554570214 45.314716342776563 -19.731200503317329 #
point $-1 -39.768532554570214 45.314716342776563 19.731200503317329 #
plane-surface $-1 0 0 19.731200503317329 0 0 1 1 0 0 forward_v I I I I #
coedge $-1 $600 $599 $592 $781 forward $391 $-1 #
coedge $-1 $592 $393 $395 $596 reversed $237 $-1 #
coedge $-1 $393 $591 $590 $781 reversed $237 $-1 #
coedge $-1 $401 $396 $393 $594 forward $402 $-1 #
edge $-1 $597 -29.727527225913903 $782 -6.9553080870097119 $593 $783 forward 7 unknown #
coedge $-1 $395 $394 $600 $784 reversed $149 $-1 #
edge $-1 $785 1.7500491998158137e-014 $597 28.148011044031815 $591 $786 forward 7 unknown #
vertex $-1 $397 $787 #
straight-curve $-1 -56.45871442230068 -11.56957929031941 19.731200503317329 0 1 0 I I #
coedge $-1 $590 $398 $401 $604 reversed $391 $-1 #
coedge $-1 $398 $590 $595 $784 forward $391 $-1 #
vertex $-1 $399 $788 #
straight-curve $-1 -79.230933561204864 -30.147988580667942 65.692278558383791 0 0 1 I I #
straight-curve $-1 -79.230933561204878 -30.147988580667942 3.1862145188970885 -0.80901698891910034 0 -0.5877852598018023 I I #
edge $-1 $782 16.130328580609699 $403 30.147988580667942 $599 $789 forward 7 unknown #
point $-1 -79.230933561204864 -30.147988580667942 19.731200503317329 #
point $-1 -56.458714422300673 -30.147988580667942 19.731200503317329 #
edge $-1 $790 1 $790 0 $406 $-1 forward 7 unknown #
vertex $-1 $407 $791 #
ellipse-curve $-1 -63.169557038350128 -26.142942866365587 5.0237547286741053 -0.5877852598018023 0 0.80901698891910034 1.6180339778382007 0 1.1755705196036046 1 I I #
point $-1 -66.226790013914538 -26.142942866365587 12.634278030710799 #
edge $-1 $792 1 $792 0 $410 $-1 forward 7 unknown #
vertex $-1 $411 $793 #
ellipse-curve $-1 -63.169557038350128 -20.135374294912054 5.0237547286741053 -0.5877852598018023 0 0.80901698891910034 1.6180339778382007 0 1.1755705196036046 1 I I #
point $-1 -66.226790013914538 -20.135374294912054 12.634278030710799 #
loop $-1 $-1 $422 $414 #
plane-surface $-1 -79.230933561204864 0 0 1 0 0 0 0 -1 forward_v I I I I #
coedge $-1 $618 $417 $419 $622 reversed $259 $-1 #
coedge $-1 $417 $617 $794 $795 reversed $259 $-1 #
coedge $-1 $425 $420 $417 $620 forward $415 $-1 #
edge $-1 $623 -29.727527225913903 $796 -6.9553080870097119 $619 $797 forward 7 unknown #
coedge $-1 $419 $418 $626 $798 reversed $163 $-1 #
edge $-1 $799 1.7500491998158137e-014 $623 28.148011044031815 $617 $800 forward 7 unknown #
vertex $-1 $421 $801 #
straight-curve $-1 -56.45871442230068 11.56957929031941 19.731200503317329 0 1 0 I I #
coedge $-1 $794 $422 $425 $630 reversed $615 $-1 #
coedge $-1 $422 $794 $621 $798 forward $615 $-1 #
vertex $-1 $423 $802 #
straight-curve $-1 -79.230933561204864 16.130328580609699 65.692278558383791 0 0 1 I I #
straight-curve $-1 -79.230933561204878 16.130328580609699 3.1862145188970885 -0.80901698891910034 0 -0.5877852598018023 I I #
edge $-1 $796 -30.147988580667942 $426 -16.130328580609699 $625 $803 forward 7 unknown #
point $-1 -79.230933561204864 16.130328580609699 19.731200503317329 #
point $-1 -56.458714422300673 16.130328580609699 19.731200503317329 #
edge $-1 $804 1 $804 0 $429 $-1 forward 7 unknown #
vertex $-1 $430 $805 #
ellipse-curve $-1 -63.169557038350128 20.135374294912054 5.0237547286741053 -0.5877852598018023 0 0.80901698891910034 1.6180339778382007 0 1.1755705196036046 1 I I #
point $-1 -66.226790013914538 20.135374294912054 12.634278030710799 #
edge $-1 $806 1 $806 0 $433 $-1 forward 7 unknown #
vertex $-1 $434 $807 #
ellipse-curve $-1 -63.169557038350128 26.142942866365587 5.0237547286741053 -0.5877852598018023 0 0.80901698891910034 1.6180339778382007 0 1.1755705196036046 1 I I #
point $-1 -66.226790013914538 26.142942866365587 12.634278030710799 #
loop $-1 $-1 $445 $437 #
plane-surface $-1 79.230933561204864 0 0 -1 0 0 0 0 1 forward_v I I I I #
coedge $-1 $644 $440 $442 $648 reversed $281 $-1 #
coedge $-1 $440 $643 $808 $809 reversed $281 $-1 #
coedge $-1 $448 $443 $440 $646 forward $438 $-1 #
edge $-1 $649 29.471652194379431 $810 45.479681246441501 $645 $811 forward 7 unknown #
coedge $-1 $442 $441 $652 $812 reversed $177 $-1 #
edge $-1 $813 -158.46186712240967 $649 -136.92093908343003 $643 $814 forward 7 unknown #
vertex $-1 $444 $815 #
straight-curve $-1 63.222904509142815 -11.120756987740357 19.731200503317318 0 -1 0 I I #
coedge $-1 $808 $445 $448 $656 reversed $641 $-1 #
coedge $-1 $445 $808 $647 $812 forward $641 $-1 #
vertex $-1 $446 $816 #
straight-curve $-1 79.230933561204864 -18.685643967031638 114.55465401829919 0 0 1 I I #
straight-curve $-1 -38.529181878078091 -18.685643967031638 111.34919259731541 0.74314481823134659 0 -0.66913061440640931 I I #
edge $-1 $810 -25.797383983929791 $449 -18.685643967031638 $651 $817 forward 7 unknown #
point $-1 79.230933561204864 -18.685643967031638 19.731200503317329 #
point $-1 63.222904509142793 -18.685643967031638 19.731200503317339 #
edge $-1 $818 1 $818 0 $452 $-1 forward 7 unknown #
vertex $-1 $453 $819 #
ellipse-curve $-1 70.366526561746724 -22.241513975480718 11.568790668670642 0.66913061440640931 0 0.74314481823134659 0.74314481823134659 0 -0.66913061440640931 1 I I #
point $-1 71.970063853405151 -22.241513975480718 11.855222682107529 #
plane-surface $-1 0 0 19.731200503317329 0 0 1 1 0 0 forward_v I I I I #
coedge $-1 $674 $673 $666 $820 forward $457 $-1 #
coedge $-1 $666 $459 $461 $670 reversed $296 $-1 #
coedge $-1 $459 $665 $664 $820 reversed $296 $-1 #
coedge $-1 $467 $462 $459 $668 forward $468 $-1 #
edge $-1 $671 29.471652194379431 $821 45.479681246441501 $667 $822 forward 7 unknown #
coedge $-1 $461 $460 $674 $823 reversed $186 $-1 #
edge $-1 $824 -158.46186712240967 $671 -136.92093908343003 $665 $825 forward 7 unknown #
vertex $-1 $463 $826 #
straight-curve $-1 63.222904509142815 -3.5837598425733717 19.731200503317318 0 -1 0 I I #
coedge $-1 $664 $464 $467 $678 reversed $457 $-1 #
coedge $-1 $464 $664 $669 $823 forward $457 $-1 #
vertex $-1 $465 $827 #
straight-curve $-1 79.230933561204864 -3.6116496766976649 114.55465401829919 0 0 1 I I #
straight-curve $-1 -38.529181878078091 -3.6116496766976649 111.34919259731541 0.74314481823134659 0 -0.66913061440640931 I I #
edge $-1 $821 -10.723389693595822 $469 -3.6116496766976649 $673 $828 forward 7 unknown #
point $-1 79.230933561204864 -3.6116496766976649 19.731200503317329 #
point $-1 63.222904509142793 -3.6116496766976649 19.731200503317339 #
edge $-1 $829 1 $829 0 $472 $-1 forward 7 unknown #
vertex $-1 $473 $830 #
ellipse-curve $-1 70.366526561746724 -7.1675196851467433 11.568790668670642 0.66913061440640931 0 0.74314481823134659 0.74314481823134659 0 -0.66913061440640931 1 I I #
point $-1 71.970063853405151 -7.1675196851467433 11.855222682107529 #
plane-surface $-1 0 0 19.731200503317329 0 0 1 1 0 0 forward_v I I I I #
coedge $-1 $696 $695 $688 $831 forward $477 $-1 #
coedge $-1 $688 $479 $481 $692 reversed $311 $-1 #
coedge $-1 $479 $687 $686 $831 reversed $311 $-1 #
coedge $-1 $487 $482 $479 $690 forward $488 $-1 #
edge $-1 $693 29.471652194379431 $832 45.479681246441501 $689 $833 forward 7 unknown #
coedge $-1 $481 $480 $696 $834 reversed $195 $-1 #
edge $-1 $835 -158.46186712240967 $693 -136.92093908343003 $687 $836 forward 7 unknown #
vertex $-1 $483 $837 #
straight-curve $-1 63.222904509142815 3.9532373025936138 19.731200503317318 0 -1 0 I I #
coedge $-1 $686 $484 $487 $700 reversed $477 $-1 #
coedge $-1 $484 $686 $691 $834 forward $477 $-1 #
vertex $-1 $485 $838 #
straight-curve $-1 79.230933561204864 11.462344613636306 114.55465401829919 0 0 1 I I #
straight-curve $-1 -38.529181878078091 11.462344613636306 111.34919259731541 0.74314481823134659 0 -0.66913061440640931 I I #
edge $-1 $832 4.3506045967381493 $489 11.462344613636306 $695 $839 forward 7 unknown #
point $-1 79.230933561204864 11.462344613636306 19.731200503317329 #
point $-1 63.222904509142793 11.462344613636306 19.731200503317339 #
edge $-1 $840 1 $840 0 $492 $-1 forward 7 unknown #
vertex $-1 $493 $841 #
ellipse-curve $-1 70.366526561746724 7.9064746051872277 11.568790668670642 0.66913061440640931 0 0.74314481823134659 0.74314481823134659 0 -0.66913061440640931 1 I I #
point $-1 71.970063853405151 7.9064746051872277 11.855222682107529 #
plane-surface $-1 0 0 19.731200503317329 0 0 1 1 0 0 forward_v I I I I #
coedge $-1 $718 $717 $710 $842 forward $497 $-1 #
coedge $-1 $710 $499 $501 $714 reversed $326 $-1 #
coedge $-1 $499 $709 $708 $842 reversed $326 $-1 #
coedge $-1 $507 $502 $499 $712 forward $508 $-1 #
edge $-1 $715 29.471652194379431 $843 45.479681246441501 $711 $844 forward 7 unknown #
coedge $-1 $501 $500 $718 $845 reversed $204 $-1 #
edge $-1 $846 -158.46186712240967 $715 -136.92093908343003 $709 $847 forward 7 unknown #
vertex $-1 $503 $848 #
straight-curve $-1 63.222904509142815 11.490234447760599 19.731200503317318 0 -1 0 I I #
coedge $-1 $708 $504 $507 $722 reversed $497 $-1 #
coedge $-1 $504 $708 $713 $845 forward $497 $-1 #
vertex $-1 $505 $849 #
straight-curve $-1 79.230933561204864 26.536338903970275 114.55465401829919 0 0 1 I I #
straight-curve $-1 -38.529181878078091 26.536338903970275 111.34919259731541 0.74314481823134659 0 -0.66913061440640931 I I #
edge $-1 $843 19.424598887072122 $509 26.536338903970275 $717 $850 forward 7 unknown #
point $-1 79.230933561204864 26.536338903970275 19.731200503317329 #
point $-1 63.222904509142793 26.536338903970275 19.731200503317339 #
edge $-1 $851 1 $851 0 $512 $-1 forward 7 unknown #
vertex $-1 $513 $852 #
ellipse-curve $-1 70.366526561746724 22.980468895521199 11.568790668670642 0.66913061440640931 0 0.74314481823134659 0.74314481823134659 0 -0.66913061440640931 1 I I #
point $-1 71.970063853405151 22.980468895521199 11.855222682107529 #
plane-surface $-1 79.230933561204864 0 0 -1 0 0 0 0 1 forward_v I I I I #
coedge $-1 $521 $519 $523 $734 reversed $341 $-1 #
edge $-1 $534 -19.731200503317329 $736 19.731200503317329 $533 $853 forward 7 unknown #
vertex $-1 $734 $854 #
straight-curve $-1 -79.230933561204864 -45.314716342776563 0 0 0 -1 I I #
edge $-1 $732 -45.314716342776563 $736 45.314716342776563 $730 $855 forward 7 unknown #
straight-curve $-1 0 -45.314716342776563 -19.731200503317329 -1 0 0 I I #
vertex $-1 $526 $856 #
straight-curve $-1 0 45.314716342776563 -19.731200503317329 1 0 0 I I #
point $-1 79.230933561204864 45.314716342776563 -19.731200503317329 #
point $-1 79.230933561204864 -45.314716342776563 -19.731200503317329 #
straight-curve $-1 -79.230933561204864 0 19.731200503317329 0 -1 0 I I #
point $-1 -79.230933561204864 45.314716342776563 19.731200503317329 #
point $-1 -79.230933561204864 -45.314716342776563 19.731200503317329 #
straight-curve $-1 79.230933561204864 -45.314716342776563 0 0 0 -1 I I #
straight-curve $-1 79.230933561204864 45.314716342776563 0 0 0 -1 I I #
plane-surface $-1 0 0 19.731200503317329 0 0 1 1 0 0 forward_v I I I I #
coedge $-1 $551 $758 $747 $857 forward $544 $-1 #
coedge $-1 $547 $546 $746 $857 reversed $221 $-1 #
edge $-1 $754 -5.5368637808756489 $752 5.5368637808756489 $546 $858 forward 7 unknown #
coedge $-1 $559 $558 $547 $750 forward $560 $-1 #
edge $-1 $751 -5.5368637808756489 $859 5.5368637808756489 $547 $860 forward 7 unknown #
vertex $-1 $563 $861 #
vertex $-1 $553 $862 #
straight-curve $-1 -50.842260116321512 -60.481444104885185 0 0 0 -1 I I #
vertex $-1 $857 $863 #
straight-curve $-1 -39.768532554570214 -52.898080223830874 -19.731200503317329 0 -1 0 I I #
straight-curve $-1 -50.842260116321512 -52.898080223830874 -19.731200503317329 0 1 0 I I #
point $-1 -39.768532554570214 -45.314716342776563 -19.731200503317329 #
coedge $-1 $746 $556 $559 $760 reversed $544 $-1 #
straight-curve $-1 -39.768532554570214 -45.314716342776563 0 0 0 -1 I I #
edge $-1 $859 -7.5833638810543107 $561 7.5833638810543107 $758 $864 forward 7 unknown #
point $-1 -39.768532554570214 -45.314716342776563 19.731200503317329 #
straight-curve $-1 -50.842260116321512 -52.898080223830874 19.731200503317329 0 -1 0 I I #
plane-surface $-1 0 0 19.731200503317329 0 0 1 1 0 0 forward_v I I I I #
coedge $-1 $571 $568 $573 $771 reversed $375 $-1 #
coedge $-1 $568 $571 $777 $865 reversed $375 $-1 #
edge $-1 $779 -19.731200503317329 $773 19.731200503317329 $585 $866 forward 7 unknown #
edge $-1 $768 -7.5833638810543107 $583 7.5833638810543107 $570 $867 forward 7 unknown #
vertex $-1 $865 $868 #
vertex $-1 $771 $869 #
straight-curve $-1 -50.842260116321512 60.481444104885185 0 0 0 -1 I I #
edge $-1 $769 -5.5368637808756489 $773 5.5368637808756489 $764 $870 forward 7 unknown #
straight-curve $-1 -50.842260116321512 52.898080223830874 -19.731200503317329 0 1 0 I I #
vertex $-1 $575 $871 #
straight-curve $-1 -39.768532554570214 52.898080223830874 -19.731200503317329 0 -1 0 I I #
point $-1 -50.842260116321512 45.314716342776563 -19.731200503317329 #
straight-curve $-1 -50.842260116321512 45.314716342776563 0 0 0 -1 I I #
coedge $-1 $581 $580 $765 $865 forward $582 $-1 #
point $-1 -50.842260116321512 45.314716342776563 19.731200503317329 #
vertex $-1 $586 $872 #
straight-curve $-1 -39.768532554570214 52.898080223830874 19.731200503317329 0 1 0 I I #
edge $-1 $782 45.961078055066466 $785 62.506064039486695 $590 $873 forward 7 unknown #
vertex $-1 $604 $874 #
straight-curve $-1 -86.186241648214576 -16.130328580609699 19.731200503317325 -1 0 0 I I #
edge $-1 $785 4.5607492902902891 $601 18.578409290348532 $600 $875 forward 7 unknown #
vertex $-1 $784 $876 #
straight-curve $-1 -79.230933561204878 -16.130328580609699 3.1862145188970885 0.80901698891910034 0 0.5877852598018023 I I #
point $-1 -56.458714422300673 -16.130328580609699 19.731200503317329 #
point $-1 -79.230933561204864 -30.147988580667942 3.1862145188970987 #
straight-curve $-1 -79.230933561204864 0 19.731200503317329 0 -1 0 I I #
vertex $-1 $607 $877 #
point $-1 -61.551523060511926 -26.142942866365587 6.1993252482777104 #
vertex $-1 $611 $878 #
point $-1 -61.551523060511926 -20.135374294912054 6.1993252482777104 #
coedge $-1 $626 $625 $618 $795 forward $615 $-1 #
edge $-1 $796 45.961078055066466 $799 62.506064039486695 $794 $879 forward 7 unknown #
vertex $-1 $630 $880 #
straight-curve $-1 -86.186241648214576 30.147988580667942 19.731200503317325 -1 0 0 I I #
edge $-1 $799 -18.578409290348532 $627 -4.5607492902902891 $626 $881 forward 7 unknown #
vertex $-1 $798 $882 #
straight-curve $-1 -79.230933561204878 30.147988580667942 3.1862145188970885 0.80901698891910034 0 0.5877852598018023 I I #
point $-1 -56.458714422300673 30.147988580667942 19.731200503317329 #
point $-1 -79.230933561204864 16.130328580609699 3.1862145188970987 #
straight-curve $-1 -79.230933561204864 0 19.731200503317329 0 -1 0 I I #
vertex $-1 $633 $883 #
point $-1 -61.551523060511926 20.135374294912054 6.1993252482777104 #
vertex $-1 $637 $884 #
point $-1 -61.551523060511926 26.142942866365587 6.1993252482777104 #
coedge $-1 $652 $651 $644 $809 forward $641 $-1 #
edge $-1 $810 94.823453514981864 $813 109.23714792858857 $808 $885 forward 7 unknown #
vertex $-1 $656 $886 #
straight-curve $-1 33.751252314763363 -25.797383983929791 19.731200503317325 1 0 0 I I #
edge $-1 $813 -14.676626996189434 $653 -7.5648869792912805 $652 $887 forward 7 unknown #
vertex $-1 $812 $888 #
straight-curve $-1 -38.529181878078091 -25.797383983929791 111.34919259731541 -0.74314481823134659 0 0.66913061440640931 I I #
point $-1 63.222904509142793 -25.797383983929791 19.731200503317339 #
point $-1 79.230933561204864 -18.685643967031638 5.3175060897106192 #
straight-curve $-1 79.230933561204864 0 19.731200503317329 0 1 0 I I #
vertex $-1 $659 $889 #
point $-1 71.109671379978067 -22.241513975480718 10.899660054264233 #
edge $-1 $821 94.823453514981864 $824 109.23714792858857 $664 $890 forward 7 unknown #
vertex $-1 $678 $891 #
straight-curve $-1 33.751252314763363 -10.723389693595822 19.731200503317325 1 0 0 I I #
edge $-1 $824 -7.1396298510224501 $675 -0.027889834124293245 $674 $892 forward 7 unknown #
vertex $-1 $823 $893 #
straight-curve $-1 -38.529181878078091 -10.723389693595822 111.34919259731541 -0.74314481823134659 0 0.66913061440640931 I I #
point $-1 63.222904509142793 -10.723389693595822 19.731200503317339 #
point $-1 79.230933561204864 -3.6116496766976649 5.3175060897106192 #
straight-curve $-1 79.230933561204864 0 19.731200503317329 0 1 0 I I #
vertex $-1 $681 $894 #
point $-1 71.109671379978067 -7.1675196851467433 10.899660054264233 #
edge $-1 $832 94.823453514981864 $835 109.23714792858857 $686 $895 forward 7 unknown #
vertex $-1 $700 $896 #
straight-curve $-1 33.751252314763363 4.3506045967381493 19.731200503317325 1 0 0 I I #
edge $-1 $835 0.39736729414453542 $697 7.5091073110426922 $696 $897 forward 7 unknown #
vertex $-1 $834 $898 #
straight-curve $-1 -38.529181878078091 4.3506045967381493 111.34919259731541 -0.74314481823134659 0 0.66913061440640931 I I #
point $-1 63.222904509142793 4.3506045967381493 19.731200503317339 #
point $-1 79.230933561204864 11.462344613636306 5.3175060897106192 #
straight-curve $-1 79.230933561204864 0 19.731200503317329 0 1 0 I I #
vertex $-1 $703 $899 #
point $-1 71.109671379978067 7.9064746051872277 10.899660054264233 #
edge $-1 $843 94.823453514981864 $846 109.23714792858857 $708 $900 forward 7 unknown #
vertex $-1 $722 $901 #
straight-curve $-1 33.751252314763363 19.424598887072122 19.731200503317325 1 0 0 I I #
edge $-1 $846 7.9343644393115227 $719 15.046104456209676 $718 $902 forward 7 unknown #
vertex $-1 $845 $903 #
straight-curve $-1 -38.529181878078091 19.424598887072122 111.34919259731541 -0.74314481823134659 0 0.66913061440640931 I I #
point $-1 63.222904509142793 19.424598887072122 19.731200503317339 #
point $-1 79.230933561204864 26.536338903970275 5.3175060897106192 #
straight-curve $-1 79.230933561204864 0 19.731200503317329 0 1 0 I I #
vertex $-1 $725 $904 #
point $-1 71.109671379978067 22.980468895521199 10.899660054264233 #
straight-curve $-1 -79.230933561204864 45.314716342776563 0 0 0 -1 I I #
point $-1 -79.230933561204864 -45.314716342776563 -19.731200503317329 #
straight-curve $-1 -79.230933561204864 0 -19.731200503317329 0 1 0 I I #
point $-1 -79.230933561204864 45.314716342776563 -19.731200503317329 #
edge $-1 $859 -19.731200503317329 $754 19.731200503317329 $746 $905 forward 7 unknown #
straight-curve $-1 -45.305396335445863 -60.481444104885185 -19.731200503317329 -1 0 0 I I #
vertex $-1 $760 $906 #
straight-curve $-1 -45.305396335445863 -60.481444104885185 19.731200503317329 1 0 0 I I #
point $-1 -50.842260116321512 -60.481444104885185 19.731200503317329 #
point $-1 -50.842260116321512 -60.481444104885185 -19.731200503317329 #
point $-1 -39.768532554570214 -60.481444104885185 -19.731200503317329 #
straight-curve $-1 -39.768532554570214 -52.898080223830874 19.731200503317329 0 1 0 I I #
edge $-1 $779 -5.5368637808756489 $768 5.5368637808756489 $765 $907 forward 7 unknown #
straight-curve $-1 -39.768532554570214 60.481444104885185 0 0 0 -1 I I #
straight-curve $-1 -50.842260116321512 52.898080223830874 19.731200503317329 0 -1 0 I I #
point $-1 -50.842260116321512 60.481444104885185 19.731200503317329 #
point $-1 -50.842260116321512 60.481444104885185 -19.731200503317329 #
straight-curve $-1 -45.305396335445863 60.481444104885185 -19.731200503317329 1 0 0 I I #
point $-1 -39.768532554570214 60.481444104885185 -19.731200503317329 #
point $-1 -39.768532554570214 60.481444104885185 19.731200503317329 #
straight-curve $-1 -79.230933561204864 -16.130328580609699 65.692278558383791 0 0 -1 I I #
point $-1 -79.230933561204864 -16.130328580609699 19.731200503317329 #
straight-curve $-1 -79.230933561204864 -11.56957929031941 3.186214518897093 0 -1 0 I I #
point $-1 -79.230933561204864 -16.130328580609699 3.1862145188970987 #
point $-1 -61.993986518746517 -26.142942866365587 3.4057207508359051 #
point $-1 -61.993986518746517 -20.135374294912054 3.4057207508359051 #
straight-curve $-1 -79.230933561204864 30.147988580667942 65.692278558383791 0 0 -1 I I #
point $-1 -79.230933561204864 30.147988580667942 19.731200503317329 #
straight-curve $-1 -79.230933561204864 11.56957929031941 3.186214518897093 0 -1 0 I I #
point $-1 -79.230933561204864 30.147988580667942 3.1862145188970987 #
point $-1 -61.993986518746517 20.135374294912054 3.4057207508359051 #
point $-1 -61.993986518746517 26.142942866365587 3.4057207508359051 #
straight-curve $-1 79.230933561204864 -25.797383983929791 114.55465401829919 0 0 -1 I I #
point $-1 79.230933561204864 -25.797383983929791 19.731200503317329 #
straight-curve $-1 79.230933561204864 -11.120756987740357 5.3175060897106192 0 1 0 I I #
point $-1 79.230933561204864 -25.797383983929791 5.3175060897106192 #
point $-1 69.697395947340311 -22.241513975480718 10.825645850439296 #
straight-curve $-1 79.230933561204864 -10.723389693595822 114.55465401829919 0 0 -1 I I #
point $-1 79.230933561204864 -10.723389693595822 19.731200503317329 #
straight-curve $-1 79.230933561204864 -3.5837598425733717 5.3175060897106192 0 1 0 I I #
point $-1 79.230933561204864 -10.723389693595822 5.3175060897106192 #
point $-1 69.697395947340311 -7.1675196851467433 10.825645850439296 #
straight-curve $-1 79.230933561204864 4.3506045967381493 114.55465401829919 0 0 -1 I I #
point $-1 79.230933561204864 4.3506045967381493 19.731200503317329 #
straight-curve $-1 79.230933561204864 3.9532373025936138 5.3175060897106192 0 1 0 I I #
point $-1 79.230933561204864 4.3506045967381493 5.3175060897106192 #
point $-1 69.697395947340311 7.9064746051872277 10.825645850439296 #
straight-curve $-1 79.230933561204864 19.424598887072122 114.55465401829919 0 0 -1 I I #
point $-1 79.230933561204864 19.424598887072122 19.731200503317329 #
straight-curve $-1 79.230933561204864 11.490234447760599 5.3175060897106192 0 1 0 I I #
point $-1 79.230933561204864 19.424598887072122 5.3175060897106192 #
point $-1 69.697395947340311 22.980468895521199 10.825645850439296 #
straight-curve $-1 -39.768532554570214 -60.481444104885185 0 0 0 -1 I I #
point $-1 -39.768532554570214 -60.481444104885185 19.731200503317329 #
straight-curve $-1 -45.305396335445863 60.481444104885185 19.731200503317329 -1 0 0 I I #
End-of-ACIS-data 