500 0 15 0           
7 Unknown 11 ACIS 5.0 NT 24 Fri Mar 26 14:54:15 1999 
-1 9.9999999999999995e-007 1e-010 
body $-1 $15 $-1 $16 #
body $-1 $17 $-1 $18 #
body $-1 $19 $-1 $20 #
body $-1 $21 $-1 $22 #
body $-1 $23 $-1 $24 #
body $-1 $25 $-1 $26 #
body $-1 $27 $-1 $28 #
body $-1 $29 $-1 $30 #
body $-1 $31 $-1 $32 #
body $-1 $33 $-1 $34 #
body $-1 $35 $-1 $36 #
body $-1 $37 $-1 $38 #
body $-1 $39 $-1 $40 #
body $-1 $41 $-1 $42 #
body $-1 $43 $-1 $44 #
lump $-1 $-1 $45 $0 #
transform $-1 1 0 0 0 1 0 0 0 1 63.296609393597215 29.069847278708043 10.124809475028398 1 rotate no_reflect no_shear #
lump $-1 $-1 $46 $1 #
transform $-1 1 0 0 0 1 0 0 0 1 63.296609393597215 29.069847278708043 10.124809475028398 1 rotate no_reflect no_shear #
lump $-1 $-1 $47 $2 #
transform $-1 1 0 0 0 1 0 0 0 1 63.296609393597215 29.069847278708043 10.124809475028398 1 rotate no_reflect no_shear #
lump $-1 $-1 $48 $3 #
transform $-1 1 0 0 0 1 0 0 0 1 63.296609393597215 29.069847278708043 10.124809475028398 1 rotate no_reflect no_shear #
lump $-1 $-1 $49 $4 #
transform $-1 1 0 0 0 1 0 0 0 1 63.296609393597215 29.069847278708043 10.124809475028398 1 rotate no_reflect no_shear #
lump $-1 $-1 $50 $5 #
transform $-1 1 0 0 0 1 0 0 0 1 63.296609393597215 29.069847278708043 10.124809475028398 1 rotate no_reflect no_shear #
lump $-1 $-1 $51 $6 #
transform $-1 1 0 0 0 1 0 0 0 1 63.296609393597215 29.069847278708043 10.124809475028398 1 rotate no_reflect no_shear #
lump $-1 $-1 $52 $7 #
transform $-1 1 0 0 0 1 0 0 0 1 63.296609393597215 29.069847278708043 10.124809475028398 1 rotate no_reflect no_shear #
lump $-1 $-1 $53 $8 #
transform $-1 1 0 0 0 1 0 0 0 1 63.296609393597215 29.069847278708043 10.124809475028398 1 rotate no_reflect no_shear #
lump $-1 $-1 $54 $9 #
transform $-1 1 0 0 0 1 0 0 0 1 63.296609393597215 29.069847278708043 10.124809475028398 1 rotate no_reflect no_shear #
lump $-1 $-1 $55 $10 #
transform $-1 1 0 0 0 1 0 0 0 1 63.296609393597215 29.069847278708043 10.124809475028398 1 rotate no_reflect no_shear #
lump $-1 $-1 $56 $11 #
transform $-1 1 0 0 0 1 0 0 0 1 63.296609393597215 29.069847278708043 10.124809475028398 1 rotate no_reflect no_shear #
lump $-1 $-1 $57 $12 #
transform $-1 1 0 0 0 1 0 0 0 1 63.296609393597215 29.069847278708043 10.124809475028398 1 rotate no_reflect no_shear #
lump $-1 $-1 $58 $13 #
transform $-1 1 0 0 0 1 0 0 0 1 63.296609393597215 29.069847278708043 10.124809475028398 1 rotate no_reflect no_shear #
lump $-1 $-1 $59 $14 #
transform $-1 1 0 0 0 1 0 0 0 1 63.296609393597215 29.069847278708043 10.124809475028398 1 rotate no_reflect no_shear #
shell $-1 $-1 $-1 $60 $-1 $15 #
shell $-1 $-1 $-1 $61 $-1 $17 #
shell $-1 $-1 $-1 $62 $-1 $19 #
shell $-1 $-1 $-1 $63 $-1 $21 #
shell $-1 $-1 $-1 $64 $-1 $23 #
shell $-1 $-1 $-1 $65 $-1 $25 #
shell $-1 $-1 $-1 $66 $-1 $27 #
shell $-1 $-1 $-1 $67 $-1 $29 #
shell $-1 $-1 $-1 $68 $-1 $31 #
shell $-1 $-1 $-1 $69 $-1 $33 #
shell $-1 $-1 $-1 $70 $-1 $35 #
shell $-1 $-1 $-1 $71 $-1 $37 #
shell $-1 $-1 $-1 $72 $-1 $39 #
shell $-1 $-1 $-1 $73 $-1 $41 #
shell $-1 $-1 $-1 $74 $-1 $43 #
face $-1 $75 $76 $45 $-1 $77 forward single #
face $-1 $78 $79 $46 $-1 $80 reversed single #
face $-1 $81 $82 $47 $-1 $83 reversed single #
face $-1 $84 $85 $48 $-1 $86 reversed single #
face $-1 $87 $88 $49 $-1 $89 forward single #
face $-1 $90 $91 $50 $-1 $92 forward single #
face $-1 $93 $94 $51 $-1 $95 reversed single #
face $-1 $96 $97 $52 $-1 $98 forward single #
face $-1 $99 $100 $53 $-1 $101 forward single #
face $-1 $102 $103 $54 $-1 $104 reversed single #
face $-1 $105 $106 $55 $-1 $107 forward single #
face $-1 $108 $109 $56 $-1 $110 forward single #
face $-1 $111 $112 $57 $-1 $113 reversed single #
face $-1 $114 $115 $58 $-1 $116 forward single #
face $-1 $117 $118 $59 $-1 $119 forward single #
face $-1 $120 $121 $45 $-1 $122 reversed single #
loop $-1 $-1 $123 $60 #
plane-surface $-1 0 0 10.124809475028398 0 0 1 1 0 0 forward_v I I I I #
face $-1 $124 $125 $46 $-1 $126 reversed single #
loop $-1 $-1 $127 $61 #
plane-surface $-1 -58.930745322448523 -15.745876708004012 0 0 1 0 0 0 1 forward_v I I I I #
face $-1 $128 $129 $47 $-1 $130 reversed single #
loop $-1 $-1 $131 $62 #
plane-surface $-1 57.562028174022025 -14.683391260523676 0 0 1 0 0 0 1 forward_v I I I I #
face $-1 $132 $133 $48 $-1 $134 reversed single #
loop $-1 $-1 $135 $63 #
plane-surface $-1 -46.819976359575996 82.003091657434013 130.84769785897126 1 0 0 0 -0.73135370988377701 -0.68199835119979291 forward_v I I I I #
face $-1 $136 $137 $49 $-1 $138 forward single #
loop $-1 $139 $140 $64 #
cone-surface $-1 -41.582391449810473 23.238050327206793 4.1561601014360461 0 -0.73135370988377701 -0.68199835119979291 1.5 0 0 1 I I 0 1 1.5 forward I I I I #
face $-1 $141 $142 $50 $-1 $143 forward single #
loop $-1 $144 $145 $65 #
cone-surface $-1 -33.726014085162184 23.238050327206793 4.1561601014360461 0 -0.73135370988377701 -0.68199835119979291 1.5 0 0 1 I I 0 1 1.5 forward I I I I #
face $-1 $146 $147 $51 $-1 $148 reversed single #
loop $-1 $-1 $149 $66 #
plane-surface $-1 6.3761877432973346 82.003091657434013 130.84769785897126 1 0 0 0 -0.73135370988377701 -0.68199835119979291 forward_v I I I I #
face $-1 $150 $151 $52 $-1 $152 forward single #
loop $-1 $153 $154 $67 #
cone-surface $-1 11.61377265306286 23.238050327206793 4.1561601014360461 0 -0.73135370988377701 -0.68199835119979291 1.5 0 0 1 I I 0 1 1.5 forward I I I I #
face $-1 $155 $156 $53 $-1 $157 forward single #
loop $-1 $158 $159 $68 #
cone-surface $-1 19.470150017711141 23.238050327206793 4.1561601014360461 0 -0.73135370988377701 -0.68199835119979291 1.5 0 0 1 I I 0 1 1.5 forward I I I I #
face $-1 $160 $161 $54 $-1 $162 reversed single #
loop $-1 $-1 $163 $69 #
plane-surface $-1 -28.488429175396654 -121.65426748485135 88.327016552895358 -1 0 0 0 -0.73135370988377701 0.68199835119979291 forward_v I I I I #
face $-1 $164 $165 $55 $-1 $166 forward single #
loop $-1 $167 $168 $70 #
cone-surface $-1 -41.582391449810473 -23.238050327206782 4.1561601014360408 0 0.73135370988377701 -0.68199835119979291 1.5 0 0 1 I I 0 1 1.5 forward I I I I #
face $-1 $169 $170 $56 $-1 $171 forward single #
loop $-1 $172 $173 $71 #
cone-surface $-1 -33.726014085162184 -23.238050327206782 4.1561601014360408 0 0.73135370988377701 -0.68199835119979291 1.5 0 0 1 I I 0 1 1.5 forward I I I I #
face $-1 $174 $175 $57 $-1 $176 reversed single #
loop $-1 $-1 $177 $72 #
plane-surface $-1 24.707734927476679 -121.65426748485135 88.327016552895358 -1 0 0 0 -0.73135370988377701 0.68199835119979291 forward_v I I I I #
face $-1 $178 $179 $58 $-1 $180 forward single #
loop $-1 $181 $182 $73 #
cone-surface $-1 11.61377265306286 -23.238050327206782 4.1561601014360408 0 0.73135370988377701 -0.68199835119979291 1.5 0 0 1 I I 0 1 1.5 forward I I I I #
face $-1 $183 $184 $59 $-1 $185 forward single #
loop $-1 $186 $187 $74 #
cone-surface $-1 19.470150017711141 -23.238050327206782 4.1561601014360408 0 0.73135370988377701 -0.68199835119979291 1.5 0 0 1 I I 0 1 1.5 forward I I I I #
face $-1 $188 $189 $45 $-1 $190 reversed single #
loop $-1 $-1 $191 $75 #
plane-surface $-1 0 0 -10.124809475028398 0 0 1 1 0 0 forward_v I I I I #
coedge $-1 $192 $193 $194 $195 forward $76 $-1 #
face $-1 $196 $197 $46 $-1 $198 reversed single #
loop $-1 $-1 $199 $78 #
plane-surface $-1 -58.930745322448523 -11.220040214558139 0 0 -1 0 0 0 -1 forward_v I I I I #
coedge $-1 $200 $201 $202 $203 reversed $79 $-1 #
face $-1 $204 $205 $47 $-1 $206 reversed single #
loop $-1 $-1 $207 $81 #
plane-surface $-1 51.827446954446835 -11.751809794587462 0 1 0 0 0 0 -1 forward_v I I I I #
coedge $-1 $208 $209 $210 $211 forward $82 $-1 #
face $-1 $212 $213 $48 $-1 $214 reversed single #
loop $-1 $-1 $215 $84 #
plane-surface $-1 -37.654202767486325 -10.581328548709308 44.511331373030004 0 0.73135370988377701 0.68199835119979291 1 0 0 forward_v I I I I #
coedge $-1 $216 $217 $218 $219 reversed $85 $-1 #
face $-1 $-1 $220 $49 $-1 $221 forward single #
loop $-1 $222 $223 $87 #
cone-surface $-1 -41.582391449810473 20.650351181687736 1.7430916684809947 0 -0.73135370988377701 -0.68199835119979291 0.75 0 0 1 I I -0.70710678118654757 0.70710678118654757 0.75 forward I I I I #
loop $-1 $-1 $224 $64 #
coedge $-1 $140 $140 $225 $226 reversed $88 $-1 #
face $-1 $-1 $227 $50 $-1 $228 forward single #
loop $-1 $229 $230 $90 #
cone-surface $-1 -33.726014085162184 20.650351181687736 1.7430916684809947 0 -0.73135370988377701 -0.68199835119979291 0.75 0 0 1 I I -0.70710678118654757 0.70710678118654757 0.75 forward I I I I #
loop $-1 $-1 $231 $65 #
coedge $-1 $145 $145 $232 $233 reversed $91 $-1 #
face $-1 $234 $235 $51 $-1 $236 reversed single #
loop $-1 $-1 $237 $93 #
plane-surface $-1 15.541961335387008 -10.581328548709308 44.511331373030004 0 0.73135370988377701 0.68199835119979291 1 0 0 forward_v I I I I #
coedge $-1 $238 $239 $240 $241 reversed $94 $-1 #
face $-1 $-1 $242 $52 $-1 $243 forward single #
loop $-1 $244 $245 $96 #
cone-surface $-1 11.61377265306286 20.650351181687736 1.7430916684809947 0 -0.73135370988377701 -0.68199835119979291 0.75 0 0 1 I I -0.70710678118654757 0.70710678118654757 0.75 forward I I I I #
loop $-1 $-1 $246 $67 #
coedge $-1 $154 $154 $247 $248 reversed $97 $-1 #
face $-1 $-1 $249 $53 $-1 $250 forward single #
loop $-1 $251 $252 $99 #
cone-surface $-1 19.470150017711141 20.650351181687736 1.7430916684809947 0 -0.73135370988377701 -0.68199835119979291 0.75 0 0 1 I I -0.70710678118654757 0.70710678118654757 0.75 forward I I I I #
loop $-1 $-1 $253 $68 #
coedge $-1 $159 $159 $254 $255 reversed $100 $-1 #
face $-1 $256 $257 $54 $-1 $258 reversed single #
loop $-1 $-1 $259 $102 #
plane-surface $-1 -37.654202767486325 -29.069847278708025 1.9906500669541032 0 -0.73135370988377701 0.68199835119979291 1 0 0 forward_v I I I I #
coedge $-1 $260 $261 $262 $263 reversed $103 $-1 #
face $-1 $-1 $264 $55 $-1 $265 forward single #
loop $-1 $266 $267 $105 #
cone-surface $-1 -41.582391449810473 -20.650351181687725 1.7430916684809894 0 0.73135370988377701 -0.68199835119979291 0.75 0 0 1 I I -0.70710678118654757 0.70710678118654757 0.75 forward I I I I #
loop $-1 $-1 $268 $70 #
coedge $-1 $168 $168 $269 $270 reversed $106 $-1 #
face $-1 $-1 $271 $56 $-1 $272 forward single #
loop $-1 $273 $274 $108 #
cone-surface $-1 -33.726014085162184 -20.650351181687725 1.7430916684809894 0 0.73135370988377701 -0.68199835119979291 0.75 0 0 1 I I -0.70710678118654757 0.70710678118654757 0.75 forward I I I I #
loop $-1 $-1 $275 $71 #
coedge $-1 $173 $173 $276 $277 reversed $109 $-1 #
face $-1 $278 $279 $57 $-1 $280 reversed single #
loop $-1 $-1 $281 $111 #
plane-surface $-1 15.541961335387008 -29.069847278708025 1.9906500669541032 0 -0.73135370988377701 0.68199835119979291 1 0 0 forward_v I I I I #
coedge $-1 $282 $283 $284 $285 reversed $112 $-1 #
face $-1 $-1 $286 $58 $-1 $287 forward single #
loop $-1 $288 $289 $114 #
cone-surface $-1 11.61377265306286 -20.650351181687725 1.7430916684809894 0 0.73135370988377701 -0.68199835119979291 0.75 0 0 1 I I -0.70710678118654757 0.70710678118654757 0.75 forward I I I I #
loop $-1 $-1 $290 $73 #
coedge $-1 $182 $182 $291 $292 reversed $115 $-1 #
face $-1 $-1 $293 $59 $-1 $294 forward single #
loop $-1 $295 $296 $117 #
cone-surface $-1 19.470150017711141 -20.650351181687725 1.7430916684809894 0 0.73135370988377701 -0.68199835119979291 0.75 0 0 1 I I -0.70710678118654757 0.70710678118654757 0.75 forward I I I I #
loop $-1 $-1 $297 $74 #
coedge $-1 $187 $187 $298 $299 reversed $118 $-1 #
face $-1 $300 $301 $45 $-1 $302 reversed single #
loop $-1 $-1 $303 $120 #
plane-surface $-1 0 -29.069847278708043 0 0 1 0 0 0 1 forward_v I I I I #
coedge $-1 $304 $305 $306 $307 forward $121 $-1 #
coedge $-1 $308 $123 $309 $310 forward $76 $-1 #
coedge $-1 $123 $308 $311 $312 forward $76 $-1 #
coedge $-1 $313 $314 $123 $195 reversed $315 $-1 #
edge $-1 $316 -29.069847278708043 $317 29.069847278708043 $194 $318 forward 7 unknown #
face $-1 $319 $320 $46 $-1 $321 reversed single #
loop $-1 $-1 $322 $124 #
plane-surface $-1 -54.56488125129983 -13.482958461281076 0 -1 0 0 0 0 1 forward_v I I I I #
coedge $-1 $323 $324 $325 $326 forward $125 $-1 #
coedge $-1 $327 $127 $328 $329 reversed $79 $-1 #
coedge $-1 $127 $327 $330 $331 reversed $79 $-1 #
coedge $-1 $332 $333 $127 $203 forward $334 $-1 #
edge $-1 $335 -10.124809475028398 $336 10.124809475028398 $202 $337 forward 7 unknown #
face $-1 $338 $339 $47 $-1 $340 reversed single #
loop $-1 $-1 $341 $128 #
plane-surface $-1 57.562028174022025 -8.8202283286512486 0 0 -1 0 0 0 -1 forward_v I I I I #
coedge $-1 $342 $343 $344 $345 forward $129 $-1 #
coedge $-1 $346 $131 $347 $348 reversed $82 $-1 #
coedge $-1 $131 $346 $349 $350 reversed $82 $-1 #
coedge $-1 $343 $342 $131 $211 reversed $129 $-1 #
edge $-1 $351 -10.124809475028398 $352 10.124809475028398 $210 $353 forward 7 unknown #
face $-1 $354 $355 $48 $-1 $356 reversed single #
loop $-1 $-1 $357 $132 #
plane-surface $-1 -28.488429175396654 82.003091657434013 130.84769785897126 -1 0 0 0 0.73135370988377701 0.68199835119979291 forward_v I I I I #
coedge $-1 $358 $359 $360 $361 reversed $133 $-1 #
coedge $-1 $217 $135 $362 $363 reversed $85 $-1 #
coedge $-1 $135 $216 $358 $364 reversed $85 $-1 #
coedge $-1 $360 $365 $135 $219 forward $366 $-1 #
edge $-1 $367 11.931698550008964 $368 19.516924726799033 $218 $369 forward 7 unknown #
loop $-1 $-1 $225 $136 #
plane-surface $-1 -37.654202767486325 -10.581328548709308 44.511331373030004 0 0.73135370988377701 0.68199835119979291 1 0 0 forward_v I I I I #
loop $-1 $-1 $370 $87 #
coedge $-1 $223 $223 $224 $371 reversed $137 $-1 #
coedge $-1 $224 $224 $223 $371 forward $139 $-1 #
coedge $-1 $225 $225 $140 $226 forward $220 $-1 #
edge $-1 $372 3.1615141624513427e-016 $372 6.2831853071796004 $225 $373 forward 7 unknown #
loop $-1 $-1 $232 $141 #
plane-surface $-1 -37.654202767486325 -10.581328548709308 44.511331373030004 0 0.73135370988377701 0.68199835119979291 1 0 0 forward_v I I I I #
loop $-1 $-1 $374 $90 #
coedge $-1 $230 $230 $231 $375 reversed $142 $-1 #
coedge $-1 $231 $231 $230 $375 forward $144 $-1 #
coedge $-1 $232 $232 $145 $233 forward $227 $-1 #
edge $-1 $376 3.1615141624513427e-016 $376 6.2831853071796004 $232 $377 forward 7 unknown #
face $-1 $378 $379 $51 $-1 $380 forward single #
loop $-1 $-1 $381 $146 #
plane-surface $-1 24.707734927476679 82.003091657434013 130.84769785897126 -1 0 0 0 0.73135370988377701 0.68199835119979291 forward_v I I I I #
coedge $-1 $382 $383 $384 $385 reversed $147 $-1 #
coedge $-1 $239 $149 $386 $387 reversed $94 $-1 #
coedge $-1 $149 $238 $382 $388 reversed $94 $-1 #
coedge $-1 $384 $389 $149 $241 forward $379 $-1 #
edge $-1 $390 11.931698550008964 $391 19.516924726799033 $240 $392 forward 7 unknown #
loop $-1 $-1 $247 $150 #
plane-surface $-1 15.541961335387008 -10.581328548709308 44.511331373030004 0 0.73135370988377701 0.68199835119979291 1 0 0 forward_v I I I I #
loop $-1 $-1 $393 $96 #
coedge $-1 $245 $245 $246 $394 reversed $151 $-1 #
coedge $-1 $246 $246 $245 $394 forward $153 $-1 #
coedge $-1 $247 $247 $154 $248 forward $242 $-1 #
edge $-1 $395 3.1615141624513427e-016 $395 6.2831853071796004 $247 $396 forward 7 unknown #
loop $-1 $-1 $254 $155 #
plane-surface $-1 15.541961335387008 -10.581328548709308 44.511331373030004 0 0.73135370988377701 0.68199835119979291 1 0 0 forward_v I I I I #
loop $-1 $-1 $397 $99 #
coedge $-1 $252 $252 $253 $398 reversed $156 $-1 #
coedge $-1 $253 $253 $252 $398 forward $158 $-1 #
coedge $-1 $254 $254 $159 $255 forward $249 $-1 #
edge $-1 $399 3.1615141624513427e-016 $399 6.2831853071796004 $254 $400 forward 7 unknown #
face $-1 $401 $402 $54 $-1 $403 forward single #
loop $-1 $-1 $404 $160 #
plane-surface $-1 -46.819976359575996 -121.65426748485135 88.327016552895358 1 0 0 0 0.73135370988377701 -0.68199835119979291 forward_v I I I I #
coedge $-1 $405 $406 $407 $408 reversed $161 $-1 #
coedge $-1 $261 $163 $409 $410 reversed $103 $-1 #
coedge $-1 $163 $260 $405 $411 reversed $103 $-1 #
coedge $-1 $407 $412 $163 $263 forward $402 $-1 #
edge $-1 $413 31.75728646371763 $414 39.342512640507714 $262 $415 forward 7 unknown #
loop $-1 $-1 $269 $164 #
plane-surface $-1 -37.654202767486325 -29.069847278708025 1.9906500669541032 0 -0.73135370988377701 0.68199835119979291 1 0 0 forward_v I I I I #
loop $-1 $-1 $416 $105 #
coedge $-1 $267 $267 $268 $417 reversed $165 $-1 #
coedge $-1 $268 $268 $267 $417 forward $167 $-1 #
coedge $-1 $269 $269 $168 $270 forward $264 $-1 #
edge $-1 $418 9.8299374832765939e-016 $418 6.2831853071796013 $269 $419 forward 7 unknown #
loop $-1 $-1 $276 $169 #
plane-surface $-1 -37.654202767486325 -29.069847278708025 1.9906500669541032 0 -0.73135370988377701 0.68199835119979291 1 0 0 forward_v I I I I #
loop $-1 $-1 $420 $108 #
coedge $-1 $274 $274 $275 $421 reversed $170 $-1 #
coedge $-1 $275 $275 $274 $421 forward $172 $-1 #
coedge $-1 $276 $276 $173 $277 forward $271 $-1 #
edge $-1 $422 9.8299374832765939e-016 $422 6.2831853071796013 $276 $423 forward 7 unknown #
face $-1 $424 $425 $57 $-1 $426 reversed single #
loop $-1 $-1 $427 $174 #
plane-surface $-1 6.3761877432973346 -121.65426748485135 88.327016552895358 1 0 0 0 0.73135370988377701 -0.68199835119979291 forward_v I I I I #
coedge $-1 $428 $429 $430 $431 reversed $175 $-1 #
coedge $-1 $283 $177 $432 $433 reversed $112 $-1 #
coedge $-1 $177 $282 $428 $434 reversed $112 $-1 #
coedge $-1 $430 $435 $177 $285 forward $436 $-1 #
edge $-1 $437 31.75728646371763 $438 39.342512640507714 $284 $439 forward 7 unknown #
loop $-1 $-1 $291 $178 #
plane-surface $-1 15.541961335387008 -29.069847278708025 1.9906500669541032 0 -0.73135370988377701 0.68199835119979291 1 0 0 forward_v I I I I #
loop $-1 $-1 $440 $114 #
coedge $-1 $289 $289 $290 $441 reversed $179 $-1 #
coedge $-1 $290 $290 $289 $441 forward $181 $-1 #
coedge $-1 $291 $291 $182 $292 forward $286 $-1 #
edge $-1 $442 9.8299374832765939e-016 $442 6.2831853071796013 $291 $443 forward 7 unknown #
loop $-1 $-1 $298 $183 #
plane-surface $-1 15.541961335387008 -29.069847278708025 1.9906500669541032 0 -0.73135370988377701 0.68199835119979291 1 0 0 forward_v I I I I #
loop $-1 $-1 $444 $117 #
coedge $-1 $296 $296 $297 $445 reversed $184 $-1 #
coedge $-1 $297 $297 $296 $445 forward $186 $-1 #
coedge $-1 $298 $298 $187 $299 forward $293 $-1 #
edge $-1 $446 9.8299374832765939e-016 $446 6.2831853071796013 $298 $447 forward 7 unknown #
face $-1 $448 $449 $45 $-1 $450 reversed single #
loop $-1 $-1 $451 $188 #
plane-surface $-1 -63.296609393597215 0 0 1 0 0 0 0 -1 forward_v I I I I #
coedge $-1 $452 $311 $453 $454 forward $189 $-1 #
coedge $-1 $455 $191 $452 $456 forward $121 $-1 #
coedge $-1 $191 $455 $457 $458 forward $121 $-1 #
coedge $-1 $314 $313 $191 $307 reversed $315 $-1 #
edge $-1 $459 -29.069847278708043 $460 29.069847278708043 $306 $461 forward 7 unknown #
coedge $-1 $193 $192 $462 $463 forward $76 $-1 #
coedge $-1 $464 $465 $192 $310 reversed $449 $-1 #
edge $-1 $317 -63.296609393597215 $466 63.296609393597215 $309 $467 forward 7 unknown #
coedge $-1 $303 $468 $193 $312 reversed $189 $-1 #
edge $-1 $469 -63.296609393597215 $316 63.296609393597215 $311 $470 forward 7 unknown #
coedge $-1 $306 $194 $468 $471 forward $315 $-1 #
coedge $-1 $194 $306 $464 $472 reversed $315 $-1 #
loop $-1 $-1 $313 $448 #
vertex $-1 $195 $473 #
vertex $-1 $195 $474 #
straight-curve $-1 63.296609393597215 0 10.124809475028398 0 1 0 I I #
face $-1 $475 $476 $46 $-1 $477 forward single #
loop $-1 $-1 $478 $196 #
plane-surface $-1 0 0 -10.124809475028398 0 0 1 1 0 0 forward_v I I I I #
coedge $-1 $479 $480 $327 $481 forward $197 $-1 #
coedge $-1 $482 $199 $478 $483 reversed $125 $-1 #
coedge $-1 $199 $482 $484 $485 reversed $125 $-1 #
coedge $-1 $480 $479 $199 $326 reversed $197 $-1 #
edge $-1 $486 -10.124809475028398 $487 10.124809475028398 $325 $488 forward 7 unknown #
coedge $-1 $201 $200 $322 $481 reversed $79 $-1 #
coedge $-1 $489 $490 $200 $329 forward $320 $-1 #
edge $-1 $491 25.099508590075569 $335 33.831236732372957 $328 $492 forward 7 unknown #
coedge $-1 $493 $494 $201 $331 forward $476 $-1 #
edge $-1 $336 -33.831236732372957 $495 -25.099508590075569 $330 $496 forward 7 unknown #
coedge $-1 $497 $202 $494 $498 reversed $334 $-1 #
coedge $-1 $202 $497 $489 $499 reversed $334 $-1 #
loop $-1 $-1 $497 $475 #
vertex $-1 $499 $500 #
vertex $-1 $203 $501 #
straight-curve $-1 -63.296609393597215 -15.745876708004012 0 0 0 1 I I #
face $-1 $502 $503 $47 $-1 $504 forward single #
loop $-1 $-1 $347 $204 #
plane-surface $-1 0 0 -10.124809475028398 0 0 1 1 0 0 forward_v I I I I #
coedge $-1 $505 $506 $507 $508 reversed $205 $-1 #
coedge $-1 $210 $207 $509 $510 reversed $129 $-1 #
coedge $-1 $207 $210 $511 $512 reversed $129 $-1 #
coedge $-1 $506 $505 $207 $345 reversed $205 $-1 #
edge $-1 $513 -10.124809475028398 $514 10.124809475028398 $344 $515 forward 7 unknown #
coedge $-1 $209 $208 $516 $517 reversed $82 $-1 #
coedge $-1 $509 $518 $208 $348 forward $339 $-1 #
edge $-1 $519 -34.515595306586206 $352 -23.046432867435822 $347 $520 forward 7 unknown #
coedge $-1 $521 $511 $209 $350 forward $503 $-1 #
edge $-1 $351 23.046432867435822 $522 34.515595306586206 $349 $523 forward 7 unknown #
vertex $-1 $350 $524 #
vertex $-1 $348 $525 #
straight-curve $-1 51.827446954446835 -14.683391260523676 0 0 0 -1 I I #
face $-1 $-1 $366 $48 $-1 $526 forward single #
loop $-1 $-1 $527 $212 #
plane-surface $-1 0 29.069847278708043 0 0 -1 0 0 0 -1 forward_v I I I I #
coedge $-1 $528 $529 $530 $531 reversed $213 $-1 #
coedge $-1 $532 $215 $217 $364 forward $133 $-1 #
coedge $-1 $215 $532 $528 $533 forward $133 $-1 #
coedge $-1 $530 $218 $215 $361 forward $366 $-1 #
edge $-1 $368 -27.992874975832834 $534 -9.6613277916534912 $360 $535 forward 7 unknown #
coedge $-1 $536 $537 $216 $363 forward $355 $-1 #
edge $-1 $538 -63.433198862531526 $367 -55.29903945445723 $362 $539 forward 7 unknown #
edge $-1 $368 47.017635151486587 $538 58.139694557416092 $217 $540 forward 7 unknown #
coedge $-1 $218 $530 $536 $541 forward $366 $-1 #
loop $-1 $-1 $530 $354 #
vertex $-1 $363 $542 #
vertex $-1 $219 $543 #
straight-curve $-1 -46.819976359575996 41.001545828717006 10.1248094750284 0 -1 0 I I #
coedge $-1 $370 $370 $-1 $544 reversed $222 $-1 #
edge $-1 $545 0 $545 6.2831853071796004 $223 $546 forward 7 unknown #
vertex $-1 $226 $547 #
ellipse-curve $-1 -41.582391449810473 25.277234190313013 6.0577297709912505 0 0.73135370988377701 0.68199835119979291 1.5 0 0 1 I I #
coedge $-1 $374 $374 $-1 $548 reversed $229 $-1 #
edge $-1 $549 0 $549 6.2831853071796004 $230 $550 forward 7 unknown #
vertex $-1 $233 $551 #
ellipse-curve $-1 -33.726014085162184 25.277234190313013 6.0577297709912505 0 0.73135370988377701 0.68199835119979291 1.5 0 0 1 I I #
face $-1 $-1 $552 $51 $-1 $553 reversed single #
loop $-1 $-1 $240 $234 #
plane-surface $-1 0 0 10.124809475028398 0 0 1 1 0 0 forward_v I I I I #
coedge $-1 $554 $555 $556 $557 reversed $235 $-1 #
coedge $-1 $558 $237 $239 $388 forward $147 $-1 #
coedge $-1 $237 $558 $554 $559 forward $147 $-1 #
coedge $-1 $556 $240 $237 $385 forward $379 $-1 #
edge $-1 $391 -1.3947929243961692 $560 16.936754259783175 $384 $561 forward 7 unknown #
coedge $-1 $562 $563 $238 $387 forward $552 $-1 #
edge $-1 $564 -63.433198862531526 $390 -55.29903945445723 $386 $565 forward 7 unknown #
edge $-1 $391 47.017635151486587 $564 58.139694557416092 $239 $566 forward 7 unknown #
coedge $-1 $240 $556 $562 $567 forward $379 $-1 #
vertex $-1 $387 $568 #
vertex $-1 $241 $569 #
straight-curve $-1 6.3761877432973346 41.001545828717006 10.1248094750284 0 -1 0 I I #
coedge $-1 $393 $393 $-1 $570 reversed $244 $-1 #
edge $-1 $571 0 $571 6.2831853071796004 $245 $572 forward 7 unknown #
vertex $-1 $248 $573 #
ellipse-curve $-1 11.61377265306286 25.277234190313013 6.0577297709912505 0 0.73135370988377701 0.68199835119979291 1.5 0 0 1 I I #
coedge $-1 $397 $397 $-1 $574 reversed $251 $-1 #
edge $-1 $575 0 $575 6.2831853071796004 $252 $576 forward 7 unknown #
vertex $-1 $255 $577 #
ellipse-curve $-1 19.470150017711141 25.277234190313013 6.0577297709912505 0 0.73135370988377701 0.68199835119979291 1.5 0 0 1 I I #
face $-1 $-1 $578 $54 $-1 $579 reversed single #
loop $-1 $-1 $262 $256 #
plane-surface $-1 0 0 10.124809475028398 0 0 1 1 0 0 forward_v I I I I #
coedge $-1 $580 $581 $582 $583 reversed $257 $-1 #
coedge $-1 $584 $259 $261 $411 forward $161 $-1 #
coedge $-1 $259 $584 $580 $585 forward $161 $-1 #
coedge $-1 $582 $262 $259 $408 forward $402 $-1 #
edge $-1 $414 9.6613277916534912 $586 27.992874975832834 $407 $587 forward 7 unknown #
coedge $-1 $588 $589 $260 $410 forward $578 $-1 #
edge $-1 $590 -42.172858209493597 $413 -34.03869880141928 $409 $591 forward 7 unknown #
edge $-1 $414 -11.122059405929498 $590 2.6080534875291995e-014 $261 $592 forward 7 unknown #
coedge $-1 $262 $582 $588 $593 forward $402 $-1 #
vertex $-1 $263 $594 #
vertex $-1 $263 $595 #
straight-curve $-1 -28.488429175396654 -60.827133742425673 10.1248094750284 0 1 0 I I #
coedge $-1 $416 $416 $-1 $596 reversed $266 $-1 #
edge $-1 $597 0 $597 6.2831853071796004 $267 $598 forward 7 unknown #
vertex $-1 $270 $599 #
ellipse-curve $-1 -41.582391449810473 -25.277234190312999 6.0577297709912425 0 -0.73135370988377701 0.68199835119979291 1.5 0 0 1 I I #
coedge $-1 $420 $420 $-1 $600 reversed $273 $-1 #
edge $-1 $601 0 $601 6.2831853071796004 $274 $602 forward 7 unknown #
vertex $-1 $277 $603 #
ellipse-curve $-1 -33.726014085162184 -25.277234190312999 6.0577297709912425 0 -0.73135370988377701 0.68199835119979291 1.5 0 0 1 I I #
face $-1 $-1 $436 $57 $-1 $604 forward single #
loop $-1 $-1 $605 $278 #
plane-surface $-1 0 -29.069847278708043 0 0 1 0 0 0 1 forward_v I I I I #
coedge $-1 $606 $607 $608 $609 reversed $279 $-1 #
coedge $-1 $610 $281 $283 $434 forward $175 $-1 #
coedge $-1 $281 $610 $606 $611 forward $175 $-1 #
coedge $-1 $608 $284 $281 $431 forward $436 $-1 #
edge $-1 $438 -16.936754259783175 $612 1.3947929243961692 $430 $613 forward 7 unknown #
coedge $-1 $614 $615 $282 $433 forward $425 $-1 #
edge $-1 $616 -42.172858209493597 $437 -34.03869880141928 $432 $617 forward 7 unknown #
edge $-1 $438 -11.122059405929498 $616 2.6080534875291995e-014 $283 $618 forward 7 unknown #
coedge $-1 $284 $608 $614 $619 forward $436 $-1 #
loop $-1 $-1 $608 $424 #
vertex $-1 $433 $620 #
vertex $-1 $285 $621 #
straight-curve $-1 24.707734927476679 -60.827133742425673 10.1248094750284 0 1 0 I I #
coedge $-1 $440 $440 $-1 $622 reversed $288 $-1 #
edge $-1 $623 0 $623 6.2831853071796004 $289 $624 forward 7 unknown #
vertex $-1 $292 $625 #
ellipse-curve $-1 11.61377265306286 -25.277234190312999 6.0577297709912425 0 -0.73135370988377701 0.68199835119979291 1.5 0 0 1 I I #
coedge $-1 $444 $444 $-1 $626 reversed $295 $-1 #
edge $-1 $627 0 $627 6.2831853071796004 $296 $628 forward 7 unknown #
vertex $-1 $299 $629 #
ellipse-curve $-1 19.470150017711141 -25.277234190312999 6.0577297709912425 0 -0.73135370988377701 0.68199835119979291 1.5 0 0 1 I I #
face $-1 $-1 $315 $45 $-1 $630 reversed single #
loop $-1 $-1 $464 $300 #
plane-surface $-1 0 29.069847278708043 0 0 -1 0 0 0 -1 forward_v I I I I #
coedge $-1 $631 $462 $465 $632 forward $301 $-1 #
coedge $-1 $468 $303 $304 $456 reversed $189 $-1 #
coedge $-1 $462 $631 $303 $454 reversed $301 $-1 #
edge $-1 $469 -10.124809475028398 $633 10.124809475028398 $453 $634 forward 7 unknown #
coedge $-1 $305 $304 $631 $635 forward $121 $-1 #
edge $-1 $460 -63.296609393597215 $633 63.296609393597215 $452 $636 forward 7 unknown #
coedge $-1 $465 $464 $305 $458 reversed $449 $-1 #
edge $-1 $637 -63.296609393597215 $459 63.296609393597215 $457 $638 forward 7 unknown #
vertex $-1 $307 $639 #
vertex $-1 $471 $640 #
straight-curve $-1 63.296609393597215 0 -10.124809475028398 0 -1 0 I I #
coedge $-1 $451 $453 $308 $463 reversed $301 $-1 #
edge $-1 $466 -29.069847278708043 $469 29.069847278708043 $462 $641 forward 7 unknown #
coedge $-1 $457 $309 $314 $472 forward $449 $-1 #
coedge $-1 $309 $457 $451 $632 reversed $449 $-1 #
vertex $-1 $310 $642 #
straight-curve $-1 0 29.069847278708043 10.124809475028398 -1 0 0 I I #
coedge $-1 $311 $452 $313 $471 reversed $189 $-1 #
vertex $-1 $463 $643 #
straight-curve $-1 0 -29.069847278708043 10.124809475028398 1 0 0 I I #
edge $-1 $316 -10.124809475028398 $460 10.124809475028398 $313 $644 forward 7 unknown #
edge $-1 $317 -10.124809475028398 $459 10.124809475028398 $314 $645 forward 7 unknown #
point $-1 63.296609393597215 -29.069847278708043 10.124809475028398 #
point $-1 63.296609393597215 29.069847278708043 10.124809475028398 #
face $-1 $-1 $334 $46 $-1 $646 reversed single #
loop $-1 $-1 $484 $319 #
plane-surface $-1 0 0 10.124809475028398 0 0 1 1 0 0 forward_v I I I I #
coedge $-1 $490 $489 $323 $483 forward $320 $-1 #
coedge $-1 $325 $322 $490 $647 reversed $197 $-1 #
coedge $-1 $322 $325 $493 $648 reversed $197 $-1 #
edge $-1 $495 -10.124809475028398 $491 10.124809475028398 $322 $649 forward 7 unknown #
coedge $-1 $324 $323 $497 $650 reversed $125 $-1 #
edge $-1 $651 -33.831236732372957 $487 -25.099508590075569 $478 $652 forward 7 unknown #
coedge $-1 $494 $493 $324 $485 forward $476 $-1 #
edge $-1 $486 25.099508590075569 $653 33.831236732372957 $484 $654 forward 7 unknown #
vertex $-1 $485 $655 #
vertex $-1 $483 $656 #
straight-curve $-1 -54.56488125129983 -11.220040214558139 0 0 0 -1 I I #
coedge $-1 $478 $328 $333 $499 forward $320 $-1 #
coedge $-1 $328 $478 $479 $647 forward $320 $-1 #
vertex $-1 $329 $657 #
straight-curve $-1 -29.465372661224261 -15.745876708004012 -10.124809475028398 -1 0 0 I I #
coedge $-1 $484 $330 $480 $648 forward $476 $-1 #
coedge $-1 $330 $484 $332 $498 forward $476 $-1 #
vertex $-1 $331 $658 #
straight-curve $-1 -29.465372661224261 -15.745876708004012 10.124809475028398 1 0 0 I I #
coedge $-1 $333 $332 $482 $650 forward $334 $-1 #
edge $-1 $653 11.220040214558139 $336 15.745876708004012 $332 $659 forward 7 unknown #
edge $-1 $335 -15.745876708004012 $651 -11.220040214558139 $333 $660 forward 7 unknown #
point $-1 -63.296609393597215 -15.745876708004012 -10.124809475028398 #
point $-1 -63.296609393597215 -15.745876708004012 10.124809475028398 #
face $-1 $-1 $661 $47 $-1 $662 reversed single #
loop $-1 $-1 $349 $338 #
plane-surface $-1 0 0 10.124809475028398 0 0 1 1 0 0 forward_v I I I I #
coedge $-1 $344 $341 $663 $664 reversed $205 $-1 #
coedge $-1 $341 $344 $665 $666 reversed $205 $-1 #
coedge $-1 $667 $668 $341 $508 forward $661 $-1 #
edge $-1 $669 -10.124809475028398 $670 10.124809475028398 $507 $671 forward 7 unknown #
coedge $-1 $663 $347 $342 $510 forward $339 $-1 #
edge $-1 $352 -8.8074863632299447 $514 -2.9443234313575175 $509 $672 forward 7 unknown #
coedge $-1 $349 $665 $343 $512 forward $503 $-1 #
edge $-1 $513 2.9443234313575175 $351 8.8074863632299447 $511 $673 forward 7 unknown #
vertex $-1 $512 $674 #
vertex $-1 $510 $675 #
straight-curve $-1 51.827446954446835 -8.8202283286512486 0 0 0 -1 I I #
coedge $-1 $668 $667 $346 $517 forward $661 $-1 #
edge $-1 $522 -10.124809475028398 $519 10.124809475028398 $516 $676 forward 7 unknown #
coedge $-1 $347 $663 $668 $677 forward $339 $-1 #
vertex $-1 $517 $678 #
straight-curve $-1 28.781014087011012 -14.683391260523676 -10.124809475028398 -1 0 0 I I #
coedge $-1 $665 $349 $667 $679 forward $503 $-1 #
vertex $-1 $679 $680 #
straight-curve $-1 28.781014087011012 -14.683391260523676 10.124809475028398 1 0 0 I I #
point $-1 51.827446954446835 -14.683391260523676 10.124809475028398 #
point $-1 51.827446954446835 -14.683391260523676 -10.124809475028398 #
plane-surface $-1 0 0 10.124809475028398 0 0 1 1 0 0 forward_v I I I I #
coedge $-1 $537 $536 $529 $681 forward $355 $-1 #
coedge $-1 $529 $357 $359 $533 reversed $213 $-1 #
coedge $-1 $357 $528 $527 $681 reversed $213 $-1 #
coedge $-1 $365 $360 $357 $531 forward $366 $-1 #
edge $-1 $534 -19.516924726799033 $682 -11.931698550008964 $530 $683 forward 7 unknown #
coedge $-1 $359 $358 $537 $684 reversed $133 $-1 #
edge $-1 $685 -58.139694557416092 $534 -47.017635151486587 $528 $686 forward 7 unknown #
vertex $-1 $361 $687 #
straight-curve $-1 -18.827101383743162 21.484621101917973 10.1248094750284 1 0 0 I I #
coedge $-1 $527 $362 $365 $541 reversed $355 $-1 #
coedge $-1 $362 $527 $532 $684 forward $355 $-1 #
vertex $-1 $363 $688 #
straight-curve $-1 -46.819976359575996 29.069847278708043 65.423848929485629 0 0 1 I I #
straight-curve $-1 -46.819976359575996 -10.581328548709308 44.511331373030004 0 0.68199835119979291 -0.73135370988377701 I I #
edge $-1 $682 28.488429175396654 $367 46.819976359575996 $536 $689 forward 7 unknown #
point $-1 -46.819976359575996 29.069847278708043 10.124809475028398 #
point $-1 -46.819976359575996 21.484621101917973 10.1248094750284 #
edge $-1 $690 1 $690 0 $370 $-1 forward 7 unknown #
vertex $-1 $371 $691 #
ellipse-curve $-1 -41.582391449810473 21.198866464100568 2.2545904318808394 0 0.73135370988377701 0.68199835119979291 1.5 0 0 1 I I #
point $-1 -40.082391449810473 25.277234190313017 6.0577297709912532 #
edge $-1 $692 1 $692 0 $374 $-1 forward 7 unknown #
vertex $-1 $375 $693 #
ellipse-curve $-1 -33.726014085162184 21.198866464100568 2.2545904318808394 0 0.73135370988377701 0.68199835119979291 1.5 0 0 1 I I #
point $-1 -32.226014085162184 25.277234190313017 6.0577297709912532 #
loop $-1 $-1 $386 $378 #
plane-surface $-1 0 29.069847278708043 0 0 -1 0 0 0 -1 forward_v I I I I #
coedge $-1 $555 $381 $383 $559 reversed $235 $-1 #
coedge $-1 $381 $554 $694 $695 reversed $235 $-1 #
coedge $-1 $389 $384 $381 $557 forward $379 $-1 #
edge $-1 $560 -19.516924726799033 $696 -11.931698550008964 $556 $697 forward 7 unknown #
coedge $-1 $383 $382 $563 $698 reversed $147 $-1 #
edge $-1 $699 -58.139694557416092 $560 -47.017635151486587 $554 $700 forward 7 unknown #
vertex $-1 $385 $701 #
straight-curve $-1 7.7709806676935038 21.484621101917973 10.1248094750284 1 0 0 I I #
coedge $-1 $694 $386 $389 $567 reversed $552 $-1 #
coedge $-1 $386 $694 $558 $698 forward $552 $-1 #
vertex $-1 $387 $702 #
straight-curve $-1 6.3761877432973346 29.069847278708043 65.423848929485629 0 0 1 I I #
straight-curve $-1 6.3761877432973346 -10.581328548709308 44.511331373030004 0 0.68199835119979291 -0.73135370988377701 I I #
edge $-1 $696 -24.707734927476679 $390 -6.3761877432973346 $562 $703 forward 7 unknown #
point $-1 6.3761877432973346 29.069847278708043 10.124809475028398 #
point $-1 6.3761877432973346 21.484621101917973 10.1248094750284 #
edge $-1 $704 1 $704 0 $393 $-1 forward 7 unknown #
vertex $-1 $394 $705 #
ellipse-curve $-1 11.61377265306286 21.198866464100568 2.2545904318808394 0 0.73135370988377701 0.68199835119979291 1.5 0 0 1 I I #
point $-1 13.11377265306286 25.277234190313017 6.0577297709912532 #
edge $-1 $706 1 $706 0 $397 $-1 forward 7 unknown #
vertex $-1 $398 $707 #
ellipse-curve $-1 19.470150017711141 21.198866464100568 2.2545904318808394 0 0.73135370988377701 0.68199835119979291 1.5 0 0 1 I I #
point $-1 20.970150017711141 25.277234190313017 6.0577297709912532 #
loop $-1 $-1 $409 $401 #
plane-surface $-1 0 -29.069847278708043 0 0 1 0 0 0 1 forward_v I I I I #
coedge $-1 $581 $404 $406 $585 reversed $257 $-1 #
coedge $-1 $404 $580 $708 $709 reversed $257 $-1 #
coedge $-1 $412 $407 $404 $583 forward $402 $-1 #
edge $-1 $586 -39.342512640507714 $710 -31.75728646371763 $582 $711 forward 7 unknown #
coedge $-1 $406 $405 $589 $712 reversed $161 $-1 #
edge $-1 $713 -2.6080534875291995e-014 $586 11.122059405929498 $580 $714 forward 7 unknown #
vertex $-1 $408 $715 #
straight-curve $-1 -18.827101383743162 -21.484621101917959 10.124809475028398 -1 0 0 I I #
coedge $-1 $708 $409 $412 $593 reversed $578 $-1 #
coedge $-1 $409 $708 $584 $712 forward $578 $-1 #
vertex $-1 $410 $716 #
straight-curve $-1 -28.488429175396654 -29.069847278708039 44.163508276447679 0 0 1 I I #
straight-curve $-1 -28.488429175396654 -29.069847278708025 1.9906500669541032 0 -0.68199835119979291 -0.73135370988377701 I I #
edge $-1 $710 -46.819976359575996 $413 -28.488429175396654 $588 $717 forward 7 unknown #
point $-1 -28.488429175396654 -29.069847278708043 10.124809475028398 #
point $-1 -28.488429175396654 -21.484621101917959 10.124809475028398 #
edge $-1 $718 1 $718 0 $416 $-1 forward 7 unknown #
vertex $-1 $417 $719 #
ellipse-curve $-1 -41.582391449810473 -21.198866464100558 2.2545904318808341 0 -0.73135370988377701 0.68199835119979291 1.5 0 0 1 I I #
point $-1 -40.082391449810473 -25.277234190313003 6.0577297709912479 #
edge $-1 $720 1 $720 0 $420 $-1 forward 7 unknown #
vertex $-1 $421 $721 #
ellipse-curve $-1 -33.726014085162184 -21.198866464100558 2.2545904318808341 0 -0.73135370988377701 0.68199835119979291 1.5 0 0 1 I I #
point $-1 -32.226014085162184 -25.277234190313003 6.0577297709912479 #
plane-surface $-1 0 0 10.124809475028398 0 0 1 1 0 0 forward_v I I I I #
coedge $-1 $615 $614 $607 $722 forward $425 $-1 #
coedge $-1 $607 $427 $429 $611 reversed $279 $-1 #
coedge $-1 $427 $606 $605 $722 reversed $279 $-1 #
coedge $-1 $435 $430 $427 $609 forward $436 $-1 #
edge $-1 $612 -39.342512640507714 $723 -31.75728646371763 $608 $724 forward 7 unknown #
coedge $-1 $429 $428 $615 $725 reversed $175 $-1 #
edge $-1 $726 -2.6080534875291995e-014 $612 11.122059405929498 $606 $727 forward 7 unknown #
vertex $-1 $431 $728 #
straight-curve $-1 7.7709806676935038 -21.484621101917959 10.124809475028398 -1 0 0 I I #
coedge $-1 $605 $432 $435 $619 reversed $425 $-1 #
coedge $-1 $432 $605 $610 $725 forward $425 $-1 #
vertex $-1 $433 $729 #
straight-curve $-1 24.707734927476679 -29.069847278708039 44.163508276447679 0 0 1 I I #
straight-curve $-1 24.707734927476679 -29.069847278708025 1.9906500669541032 0 -0.68199835119979291 -0.73135370988377701 I I #
edge $-1 $723 6.3761877432973346 $437 24.707734927476679 $614 $730 forward 7 unknown #
point $-1 24.707734927476679 -29.069847278708043 10.124809475028398 #
point $-1 24.707734927476679 -21.484621101917959 10.124809475028398 #
edge $-1 $731 1 $731 0 $440 $-1 forward 7 unknown #
vertex $-1 $441 $732 #
ellipse-curve $-1 11.61377265306286 -21.198866464100558 2.2545904318808341 0 -0.73135370988377701 0.68199835119979291 1.5 0 0 1 I I #
point $-1 13.11377265306286 -25.277234190313003 6.0577297709912479 #
edge $-1 $733 1 $733 0 $444 $-1 forward 7 unknown #
vertex $-1 $445 $734 #
ellipse-curve $-1 19.470150017711141 -21.198866464100558 2.2545904318808341 0 -0.73135370988377701 0.68199835119979291 1.5 0 0 1 I I #
point $-1 20.970150017711141 -25.277234190313003 6.0577297709912479 #
plane-surface $-1 63.296609393597215 0 0 -1 0 0 0 0 1 forward_v I I I I #
coedge $-1 $453 $451 $455 $635 reversed $301 $-1 #
edge $-1 $466 -10.124809475028398 $637 10.124809475028398 $465 $735 forward 7 unknown #
vertex $-1 $635 $736 #
straight-curve $-1 -63.296609393597215 -29.069847278708043 0 0 0 -1 I I #
edge $-1 $633 -29.069847278708043 $637 29.069847278708043 $631 $737 forward 7 unknown #
straight-curve $-1 0 -29.069847278708043 -10.124809475028398 -1 0 0 I I #
vertex $-1 $458 $738 #
straight-curve $-1 0 29.069847278708043 -10.124809475028398 1 0 0 I I #
point $-1 63.296609393597215 29.069847278708043 -10.124809475028398 #
point $-1 63.296609393597215 -29.069847278708043 -10.124809475028398 #
straight-curve $-1 -63.296609393597215 0 10.124809475028398 0 -1 0 I I #
point $-1 -63.296609393597215 29.069847278708043 10.124809475028398 #
point $-1 -63.296609393597215 -29.069847278708043 10.124809475028398 #
straight-curve $-1 63.296609393597215 -29.069847278708043 0 0 0 -1 I I #
straight-curve $-1 63.296609393597215 29.069847278708043 0 0 0 -1 I I #
plane-surface $-1 -63.296609393597215 0 0 1 0 0 0 0 -1 forward_v I I I I #
edge $-1 $487 4.4785609839176015 $491 9.0043974773634741 $490 $739 forward 7 unknown #
edge $-1 $495 -9.0043974773634741 $486 -4.4785609839176015 $493 $740 forward 7 unknown #
straight-curve $-1 -54.56488125129983 -15.745876708004012 0 0 0 -1 I I #
edge $-1 $653 -10.124809475028398 $651 10.124809475028398 $497 $741 forward 7 unknown #
vertex $-1 $650 $742 #
straight-curve $-1 -29.465372661224261 -11.220040214558139 -10.124809475028398 1 0 0 I I #
vertex $-1 $498 $743 #
straight-curve $-1 -29.465372661224261 -11.220040214558139 10.124809475028398 -1 0 0 I I #
point $-1 -54.56488125129983 -11.220040214558139 10.124809475028398 #
point $-1 -54.56488125129983 -11.220040214558139 -10.124809475028398 #
point $-1 -54.56488125129983 -15.745876708004012 -10.124809475028398 #
point $-1 -54.56488125129983 -15.745876708004012 10.124809475028398 #
straight-curve $-1 -63.296609393597215 0 10.124809475028398 0 -1 0 I I #
straight-curve $-1 -63.296609393597215 0 -10.124809475028398 0 1 0 I I #
loop $-1 $-1 $516 $502 #
plane-surface $-1 63.296609393597215 0 0 -1 0 0 0 0 1 forward_v I I I I #
coedge $-1 $518 $509 $505 $664 forward $339 $-1 #
edge $-1 $514 23.046432867435822 $669 34.515595306586206 $663 $744 forward 7 unknown #
coedge $-1 $511 $521 $506 $666 forward $503 $-1 #
edge $-1 $670 -34.515595306586206 $513 -23.046432867435822 $665 $745 forward 7 unknown #
coedge $-1 $516 $507 $521 $679 reversed $661 $-1 #
coedge $-1 $507 $516 $518 $677 reversed $661 $-1 #
vertex $-1 $677 $746 #
vertex $-1 $508 $747 #
straight-curve $-1 63.296609393597215 -8.8202283286512486 0 0 0 1 I I #
straight-curve $-1 51.827446954446835 -5.8759048972937311 -10.124809475028398 0 1 0 I I #
straight-curve $-1 51.827446954446835 -5.8759048972937311 10.124809475028398 0 -1 0 I I #
point $-1 51.827446954446835 -8.8202283286512486 10.124809475028398 #
point $-1 51.827446954446835 -8.8202283286512486 -10.124809475028398 #
straight-curve $-1 63.296609393597215 -14.683391260523676 0 0 0 -1 I I #
edge $-1 $669 8.8202283286512486 $519 14.683391260523676 $668 $748 forward 7 unknown #
point $-1 63.296609393597215 -14.683391260523676 -10.124809475028398 #
edge $-1 $522 -14.683391260523676 $670 -8.8202283286512486 $667 $749 forward 7 unknown #
point $-1 63.296609393597215 -14.683391260523676 10.124809475028398 #
edge $-1 $682 55.29903945445723 $685 63.433198862531526 $527 $750 forward 7 unknown #
vertex $-1 $541 $751 #
straight-curve $-1 -28.488429175396654 41.001545828717006 10.1248094750284 0 1 0 I I #
edge $-1 $685 9.6613277916534912 $538 27.992874975832834 $537 $752 forward 7 unknown #
vertex $-1 $684 $753 #
straight-curve $-1 -28.488429175396654 -10.581328548709308 44.511331373030004 0 -0.68199835119979291 0.73135370988377701 I I #
point $-1 -28.488429175396654 21.484621101917973 10.1248094750284 #
point $-1 -46.819976359575996 29.069847278708039 1.9906500669541032 #
straight-curve $-1 0 29.069847278708043 10.124809475028398 -1 0 0 I I #
vertex $-1 $544 $754 #
point $-1 -40.082391449810473 21.198866464100568 2.2545904318808394 #
vertex $-1 $548 $755 #
point $-1 -32.226014085162184 21.198866464100568 2.2545904318808394 #
coedge $-1 $563 $562 $555 $695 forward $552 $-1 #
edge $-1 $696 55.29903945445723 $699 63.433198862531526 $694 $756 forward 7 unknown #
vertex $-1 $567 $757 #
straight-curve $-1 24.707734927476679 41.001545828717006 10.1248094750284 0 1 0 I I #
edge $-1 $699 -16.936754259783175 $564 1.3947929243961692 $563 $758 forward 7 unknown #
vertex $-1 $698 $759 #
straight-curve $-1 24.707734927476679 -10.581328548709308 44.511331373030004 0 -0.68199835119979291 0.73135370988377701 I I #
point $-1 24.707734927476679 21.484621101917973 10.1248094750284 #
point $-1 6.3761877432973346 29.069847278708039 1.9906500669541032 #
straight-curve $-1 0 29.069847278708043 10.124809475028398 -1 0 0 I I #
vertex $-1 $570 $760 #
point $-1 13.11377265306286 21.198866464100568 2.2545904318808394 #
vertex $-1 $574 $761 #
point $-1 20.970150017711141 21.198866464100568 2.2545904318808394 #
coedge $-1 $589 $588 $581 $709 forward $578 $-1 #
edge $-1 $710 34.03869880141928 $713 42.172858209493597 $708 $762 forward 7 unknown #
vertex $-1 $593 $763 #
straight-curve $-1 -46.819976359575996 -60.827133742425673 10.1248094750284 0 -1 0 I I #
edge $-1 $713 -27.992874975832834 $590 -9.6613277916534912 $589 $764 forward 7 unknown #
vertex $-1 $712 $765 #
straight-curve $-1 -46.819976359575996 -29.069847278708025 1.9906500669541032 0 0.68199835119979291 0.73135370988377701 I I #
point $-1 -46.819976359575996 -21.484621101917959 10.124809475028398 #
point $-1 -28.488429175396654 -29.069847278708043 1.9906500669540841 #
straight-curve $-1 0 -29.069847278708043 10.124809475028398 1 0 0 I I #
vertex $-1 $596 $766 #
point $-1 -40.082391449810473 -21.198866464100558 2.2545904318808341 #
vertex $-1 $600 $767 #
point $-1 -32.226014085162184 -21.198866464100558 2.2545904318808341 #
edge $-1 $723 34.03869880141928 $726 42.172858209493597 $605 $768 forward 7 unknown #
vertex $-1 $619 $769 #
straight-curve $-1 6.3761877432973346 -60.827133742425673 10.1248094750284 0 -1 0 I I #
edge $-1 $726 -1.3947929243961692 $616 16.936754259783175 $615 $770 forward 7 unknown #
vertex $-1 $725 $771 #
straight-curve $-1 6.3761877432973346 -29.069847278708025 1.9906500669541032 0 0.68199835119979291 0.73135370988377701 I I #
point $-1 6.3761877432973346 -21.484621101917959 10.124809475028398 #
point $-1 24.707734927476679 -29.069847278708043 1.9906500669540841 #
straight-curve $-1 0 -29.069847278708043 10.124809475028398 1 0 0 I I #
vertex $-1 $622 $772 #
point $-1 13.11377265306286 -21.198866464100558 2.2545904318808341 #
vertex $-1 $626 $773 #
point $-1 20.970150017711141 -21.198866464100558 2.2545904318808341 #
straight-curve $-1 -63.296609393597215 29.069847278708043 0 0 0 -1 I I #
point $-1 -63.296609393597215 -29.069847278708043 -10.124809475028398 #
straight-curve $-1 -63.296609393597215 0 -10.124809475028398 0 1 0 I I #
point $-1 -63.296609393597215 29.069847278708043 -10.124809475028398 #
straight-curve $-1 -54.56488125129983 -6.7414792306405378 -10.124809475028398 0 -1 0 I I #
straight-curve $-1 -54.56488125129983 -6.7414792306405378 10.124809475028398 0 1 0 I I #
straight-curve $-1 -63.296609393597215 -11.220040214558139 0 0 0 -1 I I #
point $-1 -63.296609393597215 -11.220040214558139 -10.124809475028398 #
point $-1 -63.296609393597215 -11.220040214558139 10.124809475028398 #
straight-curve $-1 28.781014087011012 -8.8202283286512486 -10.124809475028398 1 0 0 I I #
straight-curve $-1 28.781014087011012 -8.8202283286512486 10.124809475028398 -1 0 0 I I #
point $-1 63.296609393597215 -8.8202283286512486 -10.124809475028398 #
point $-1 63.296609393597215 -8.8202283286512486 10.124809475028398 #
straight-curve $-1 63.296609393597215 0 -10.124809475028398 0 -1 0 I I #
straight-curve $-1 63.296609393597215 0 10.124809475028398 0 1 0 I I #
straight-curve $-1 -28.488429175396654 29.069847278708043 65.423848929485629 0 0 -1 I I #
point $-1 -28.488429175396654 29.069847278708043 10.124809475028398 #
straight-curve $-1 -18.827101383743162 29.069847278708039 1.9906500669541032 -1 0 0 I I #
point $-1 -28.488429175396654 29.069847278708039 1.9906500669541032 #
point $-1 -41.582391449810473 20.101835899274903 1.23159290508115 #
point $-1 -33.726014085162184 20.101835899274903 1.23159290508115 #
straight-curve $-1 24.707734927476679 29.069847278708043 65.423848929485629 0 0 -1 I I #
point $-1 24.707734927476679 29.069847278708043 10.124809475028398 #
straight-curve $-1 7.7709806676935038 29.069847278708039 1.9906500669541032 -1 0 0 I I #
point $-1 24.707734927476679 29.069847278708039 1.9906500669541032 #
point $-1 11.61377265306286 20.101835899274903 1.23159290508115 #
point $-1 19.470150017711141 20.101835899274903 1.23159290508115 #
straight-curve $-1 -46.819976359575996 -29.069847278708039 44.163508276447679 0 0 -1 I I #
point $-1 -46.819976359575996 -29.069847278708043 10.124809475028398 #
straight-curve $-1 -18.827101383743162 -29.069847278708043 1.9906500669540839 1 0 0 I I #
point $-1 -46.819976359575996 -29.069847278708043 1.9906500669540841 #
point $-1 -41.582391449810473 -20.101835899274892 1.2315929050811447 #
point $-1 -33.726014085162184 -20.101835899274892 1.2315929050811447 #
straight-curve $-1 6.3761877432973346 -29.069847278708039 44.163508276447679 0 0 -1 I I #
point $-1 6.3761877432973346 -29.069847278708043 10.124809475028398 #
straight-curve $-1 7.7709806676935038 -29.069847278708043 1.9906500669540839 1 0 0 I I #
point $-1 6.3761877432973346 -29.069847278708043 1.9906500669540841 #
point $-1 11.61377265306286 -20.101835899274892 1.2315929050811447 #
point $-1 19.470150017711141 -20.101835899274892 1.2315929050811447 #
End-of-ACIS-data 