500 0 6 0           
7 Unknown 11 ACIS 5.0 NT 24 Fri Mar 26 02:07:26 1999 
-1 9.9999999999999995e-007 1e-010 
body $-1 $6 $-1 $7 #
body $-1 $8 $-1 $9 #
body $-1 $10 $-1 $11 #
body $-1 $12 $-1 $13 #
body $-1 $14 $-1 $15 #
body $-1 $16 $-1 $17 #
lump $-1 $-1 $18 $0 #
transform $-1 1 0 0 0 1 0 0 0 1 44.104129154332099 19.316200661668891 5.641471868407395 1 rotate no_reflect no_shear #
lump $-1 $-1 $19 $1 #
transform $-1 1 0 0 0 1 0 0 0 1 44.104129154332099 19.316200661668891 5.641471868407395 1 rotate no_reflect no_shear #
lump $-1 $-1 $20 $2 #
transform $-1 1 0 0 0 1 0 0 0 1 44.104129154332099 19.316200661668891 5.641471868407395 1 rotate no_reflect no_shear #
lump $-1 $-1 $21 $3 #
transform $-1 1 0 0 0 1 0 0 0 1 44.104129154332099 19.316200661668891 5.641471868407395 1 rotate no_reflect no_shear #
lump $-1 $-1 $22 $4 #
transform $-1 1 0 0 0 1 0 0 0 1 44.104129154332099 19.316200661668891 5.641471868407395 1 rotate no_reflect no_shear #
lump $-1 $-1 $23 $5 #
transform $-1 1 0 0 0 1 0 0 0 1 44.104129154332099 19.316200661668891 5.641471868407395 1 rotate no_reflect no_shear #
shell $-1 $-1 $-1 $24 $-1 $6 #
shell $-1 $-1 $-1 $25 $-1 $8 #
shell $-1 $-1 $-1 $26 $-1 $10 #
shell $-1 $-1 $-1 $27 $-1 $12 #
shell $-1 $-1 $-1 $28 $-1 $14 #
shell $-1 $-1 $-1 $29 $-1 $16 #
face $-1 $30 $31 $18 $-1 $32 forward single #
face $-1 $33 $34 $19 $-1 $35 forward single #
face $-1 $36 $37 $20 $-1 $38 reversed single #
face $-1 $39 $40 $21 $-1 $41 forward single #
face $-1 $42 $43 $22 $-1 $44 forward single #
face $-1 $45 $46 $23 $-1 $47 forward single #
face $-1 $48 $49 $18 $-1 $50 reversed single #
loop $-1 $-1 $51 $24 #
plane-surface $-1 0 0 5.641471868407395 0 0 1 1 0 0 forward_v I I I I #
face $-1 $52 $53 $19 $-1 $54 reversed single #
loop $-1 $-1 $55 $25 #
plane-surface $-1 -44.104129154332099 0 0 1 0 0 0 0 -1 forward_v I I I I #
face $-1 $56 $57 $20 $-1 $58 reversed single #
loop $-1 $-1 $59 $26 #
plane-surface $-1 59.306760472302869 -5.005283085452553 124.52028866220596 0 -1 0 -0.78801076186113728 0 -0.61566146476048833 forward_v I I I I #
face $-1 $60 $61 $21 $-1 $62 forward single #
loop $-1 $63 $64 $27 #
cone-surface $-1 41.781650907083041 -10.759358473383978 2.8653083596573397 -0.78801076186113728 0 -0.61566146476048833 0.30783073238024417 0 -0.39400538093056864 1 I I 0 1 0.5 forward I I I I #
face $-1 $65 $66 $22 $-1 $67 forward single #
loop $-1 $68 $69 $28 #
cone-surface $-1 41.781650907083041 -8.6015802029096928 2.8653083596573397 -0.78801076186113728 0 -0.61566146476048833 0.30783073238024417 0 -0.39400538093056864 1 I I 0 1 0.5 forward I I I I #
face $-1 $70 $71 $23 $-1 $72 forward single #
loop $-1 $73 $74 $29 #
cone-surface $-1 41.781650907083041 -6.4438019324354077 2.8653083596573397 -0.78801076186113728 0 -0.61566146476048833 0.30783073238024417 0 -0.39400538093056864 1 I I 0 1 0.5 forward I I I I #
face $-1 $75 $76 $18 $-1 $77 reversed single #
loop $-1 $-1 $78 $30 #
plane-surface $-1 0 0 -5.641471868407395 0 0 1 1 0 0 forward_v I I I I #
coedge $-1 $79 $80 $81 $82 forward $31 $-1 #
face $-1 $83 $84 $19 $-1 $85 forward single #
loop $-1 $-1 $86 $33 #
plane-surface $-1 0 19.316200661668891 0 0 -1 0 0 0 -1 forward_v I I I I #
coedge $-1 $87 $88 $89 $90 forward $34 $-1 #
face $-1 $91 $92 $20 $-1 $93 reversed single #
loop $-1 $-1 $94 $36 #
plane-surface $-1 -10.202296359951603 -8.6015802029096946 70.21386314792224 0.78801076186113728 0 0.61566146476048833 0.61566146476048833 0 -0.78801076186113728 forward_v I I I I #
coedge $-1 $95 $96 $97 $98 reversed $37 $-1 #
face $-1 $-1 $99 $21 $-1 $100 forward single #
loop $-1 $101 $102 $39 #
cone-surface $-1 41.190642835687186 -10.759358473383978 2.4035622610869734 -0.78801076186113728 0 -0.61566146476048833 0.15391536619012208 0 -0.19700269046528432 1 I I -0.70710678118654746 0.70710678118654746 0.25 forward I I I I #
loop $-1 $-1 $103 $27 #
coedge $-1 $64 $64 $104 $105 reversed $40 $-1 #
face $-1 $-1 $106 $22 $-1 $107 forward single #
loop $-1 $108 $109 $42 #
cone-surface $-1 41.190642835687186 -8.6015802029096928 2.4035622610869734 -0.78801076186113728 0 -0.61566146476048833 0.15391536619012208 0 -0.19700269046528432 1 I I -0.70710678118654746 0.70710678118654746 0.25 forward I I I I #
loop $-1 $-1 $110 $28 #
coedge $-1 $69 $69 $111 $112 reversed $43 $-1 #
face $-1 $-1 $113 $23 $-1 $114 forward single #
loop $-1 $115 $116 $45 #
cone-surface $-1 41.190642835687186 -6.4438019324354077 2.4035622610869734 -0.78801076186113728 0 -0.61566146476048833 0.15391536619012208 0 -0.19700269046528432 1 I I -0.70710678118654746 0.70710678118654746 0.25 forward I I I I #
loop $-1 $-1 $117 $29 #
coedge $-1 $74 $74 $118 $119 reversed $46 $-1 #
face $-1 $120 $121 $18 $-1 $122 reversed single #
loop $-1 $-1 $123 $48 #
plane-surface $-1 0 -19.316200661668891 0 0 1 0 0 0 1 forward_v I I I I #
coedge $-1 $124 $125 $126 $127 forward $49 $-1 #
coedge $-1 $128 $51 $129 $130 forward $31 $-1 #
coedge $-1 $51 $128 $131 $132 forward $31 $-1 #
coedge $-1 $133 $134 $51 $82 reversed $135 $-1 #
edge $-1 $136 -19.316200661668891 $137 19.316200661668891 $81 $138 forward 7 unknown #
face $-1 $139 $140 $19 $-1 $141 reversed single #
loop $-1 $-1 $89 $52 #
plane-surface $-1 -46.380457113393199 0 4.9212636253100221 0 0 1 1 0 0 forward_v I I I I #
coedge $-1 $142 $143 $88 $144 forward $53 $-1 #
coedge $-1 $145 $55 $146 $147 reversed $34 $-1 #
coedge $-1 $55 $145 $86 $144 reversed $34 $-1 #
coedge $-1 $148 $149 $55 $90 reversed $84 $-1 #
edge $-1 $150 -19.316200661668891 $151 19.316200661668891 $89 $152 forward 7 unknown #
face $-1 $153 $154 $20 $-1 $155 forward single #
loop $-1 $-1 $156 $56 #
plane-surface $-1 59.306760472302869 -12.197877320366835 124.52028866220596 0 1 0 0.78801076186113728 0 0.61566146476048833 forward_v I I I I #
coedge $-1 $157 $158 $159 $160 reversed $57 $-1 #
coedge $-1 $96 $59 $161 $162 reversed $37 $-1 #
coedge $-1 $59 $95 $157 $163 reversed $37 $-1 #
coedge $-1 $159 $164 $59 $98 forward $154 $-1 #
edge $-1 $165 -14.450748918180665 $166 -10.593803185543713 $97 $167 forward 7 unknown #
loop $-1 $-1 $104 $60 #
plane-surface $-1 -10.202296359951603 -8.6015802029096946 70.21386314792224 0.78801076186113728 0 0.61566146476048833 0.61566146476048833 0 -0.78801076186113728 forward_v I I I I #
loop $-1 $-1 $168 $39 #
coedge $-1 $102 $102 $103 $169 reversed $61 $-1 #
coedge $-1 $103 $103 $102 $169 forward $63 $-1 #
coedge $-1 $104 $104 $64 $105 forward $99 $-1 #
edge $-1 $170 0 $170 6.2831853071796004 $104 $171 forward 7 unknown #
loop $-1 $-1 $111 $65 #
plane-surface $-1 -10.202296359951603 -8.6015802029096946 70.21386314792224 0.78801076186113728 0 0.61566146476048833 0.61566146476048833 0 -0.78801076186113728 forward_v I I I I #
loop $-1 $-1 $172 $42 #
coedge $-1 $109 $109 $110 $173 reversed $66 $-1 #
coedge $-1 $110 $110 $109 $173 forward $68 $-1 #
coedge $-1 $111 $111 $69 $112 forward $106 $-1 #
edge $-1 $174 0 $174 6.2831853071796004 $111 $175 forward 7 unknown #
loop $-1 $-1 $118 $70 #
plane-surface $-1 -10.202296359951603 -8.6015802029096946 70.21386314792224 0.78801076186113728 0 0.61566146476048833 0.61566146476048833 0 -0.78801076186113728 forward_v I I I I #
loop $-1 $-1 $176 $45 #
coedge $-1 $116 $116 $117 $177 reversed $71 $-1 #
coedge $-1 $117 $117 $116 $177 forward $73 $-1 #
coedge $-1 $118 $118 $74 $119 forward $113 $-1 #
edge $-1 $178 0 $178 6.2831853071796004 $118 $179 forward 7 unknown #
face $-1 $180 $181 $18 $-1 $182 reversed single #
loop $-1 $-1 $183 $75 #
plane-surface $-1 -44.104129154332099 0 0 1 0 0 0 0 -1 forward_v I I I I #
coedge $-1 $184 $131 $183 $185 forward $76 $-1 #
coedge $-1 $186 $78 $184 $187 forward $49 $-1 #
coedge $-1 $78 $186 $188 $189 forward $49 $-1 #
coedge $-1 $134 $133 $78 $127 reversed $135 $-1 #
edge $-1 $190 -19.316200661668891 $191 19.316200661668891 $126 $192 forward 7 unknown #
coedge $-1 $80 $79 $193 $194 forward $31 $-1 #
coedge $-1 $195 $196 $79 $130 reversed $181 $-1 #
edge $-1 $137 -44.104129154332099 $197 44.104129154332099 $129 $198 forward 7 unknown #
coedge $-1 $123 $199 $80 $132 reversed $76 $-1 #
edge $-1 $200 -44.104129154332099 $136 44.104129154332099 $131 $201 forward 7 unknown #
coedge $-1 $126 $81 $199 $202 forward $135 $-1 #
coedge $-1 $81 $126 $195 $203 reversed $135 $-1 #
loop $-1 $-1 $133 $180 #
vertex $-1 $82 $204 #
vertex $-1 $82 $205 #
straight-curve $-1 44.104129154332099 0 5.641471868407395 0 1 0 I I #
face $-1 $206 $207 $19 $-1 $208 reversed single #
loop $-1 $-1 $209 $83 #
plane-surface $-1 -46.380457113393199 0 1.6407151077463702 0 0 1 1 0 0 forward_v I I I I #
coedge $-1 $210 $86 $211 $212 reversed $53 $-1 #
coedge $-1 $86 $210 $148 $213 reversed $53 $-1 #
edge $-1 $150 -4.9212636253100221 $214 -1.6407151077463702 $86 $215 forward 7 unknown #
coedge $-1 $88 $87 $209 $216 forward $34 $-1 #
coedge $-1 $217 $218 $87 $147 forward $219 $-1 #
edge $-1 $220 1.6407151077463702 $151 4.9212636253100221 $146 $221 forward 7 unknown #
coedge $-1 $222 $89 $143 $213 forward $84 $-1 #
coedge $-1 $89 $222 $217 $223 forward $84 $-1 #
vertex $-1 $144 $224 #
vertex $-1 $223 $225 #
straight-curve $-1 -44.104129154332099 0 4.9212636253100221 0 -1 0 I I #
face $-1 $-1 $226 $20 $-1 $227 reversed single #
loop $-1 $-1 $97 $91 #
plane-surface $-1 0 0 5.641471868407395 0 0 1 1 0 0 forward_v I I I I #
coedge $-1 $228 $229 $230 $231 reversed $92 $-1 #
coedge $-1 $232 $94 $96 $163 forward $57 $-1 #
coedge $-1 $94 $232 $228 $233 forward $57 $-1 #
coedge $-1 $230 $97 $94 $160 forward $154 $-1 #
edge $-1 $166 0.70449298399770566 $234 7.8970872189119881 $159 $235 forward 7 unknown #
coedge $-1 $236 $237 $95 $162 forward $226 $-1 #
edge $-1 $238 -61.555338015435197 $165 -56.618672462695585 $161 $239 forward 7 unknown #
edge $-1 $166 81.943539866139233 $238 88.208258308664199 $96 $240 forward 7 unknown #
coedge $-1 $97 $230 $236 $241 forward $154 $-1 #
vertex $-1 $162 $242 #
vertex $-1 $98 $243 #
straight-curve $-1 29.653380236151435 -5.005283085452553 5.6414718684073932 -1 0 0 I I #
coedge $-1 $168 $168 $-1 $244 reversed $101 $-1 #
edge $-1 $245 0 $245 6.2831853071796004 $102 $246 forward 7 unknown #
vertex $-1 $105 $247 #
ellipse-curve $-1 42.175656288013627 -10.759358473383978 3.173139092037597 0.78801076186113728 0 0.61566146476048833 0.30783073238024417 0 -0.39400538093056864 1 I I #
coedge $-1 $172 $172 $-1 $248 reversed $108 $-1 #
edge $-1 $249 0 $249 6.2831853071796004 $109 $250 forward 7 unknown #
vertex $-1 $112 $251 #
ellipse-curve $-1 42.175656288013627 -8.6015802029096928 3.173139092037597 0.78801076186113728 0 0.61566146476048833 0.30783073238024417 0 -0.39400538093056864 1 I I #
coedge $-1 $176 $176 $-1 $252 reversed $115 $-1 #
edge $-1 $253 0 $253 6.2831853071796004 $116 $254 forward 7 unknown #
vertex $-1 $119 $255 #
ellipse-curve $-1 42.175656288013627 -6.4438019324354077 3.173139092037597 0.78801076186113728 0 0.61566146476048833 0.30783073238024417 0 -0.39400538093056864 1 I I #
face $-1 $-1 $135 $18 $-1 $256 reversed single #
loop $-1 $-1 $195 $120 #
plane-surface $-1 0 19.316200661668891 0 0 -1 0 0 0 -1 forward_v I I I I #
coedge $-1 $193 $257 $123 $185 reversed $121 $-1 #
coedge $-1 $199 $123 $124 $187 reversed $76 $-1 #
edge $-1 $200 -5.641471868407395 $258 5.641471868407395 $183 $259 forward 7 unknown #
coedge $-1 $125 $124 $257 $260 forward $49 $-1 #
edge $-1 $191 -44.104129154332099 $258 44.104129154332099 $184 $261 forward 7 unknown #
coedge $-1 $196 $195 $125 $189 reversed $181 $-1 #
edge $-1 $262 -44.104129154332099 $190 44.104129154332099 $188 $263 forward 7 unknown #
vertex $-1 $127 $264 #
vertex $-1 $202 $265 #
straight-curve $-1 44.104129154332099 0 -5.641471868407395 0 -1 0 I I #
coedge $-1 $266 $183 $128 $194 reversed $121 $-1 #
edge $-1 $197 -19.316200661668891 $200 19.316200661668891 $193 $267 forward 7 unknown #
coedge $-1 $188 $129 $134 $203 forward $181 $-1 #
coedge $-1 $129 $188 $266 $268 reversed $181 $-1 #
vertex $-1 $130 $269 #
straight-curve $-1 0 19.316200661668891 5.641471868407395 -1 0 0 I I #
coedge $-1 $131 $184 $133 $202 reversed $76 $-1 #
vertex $-1 $194 $270 #
straight-curve $-1 0 -19.316200661668891 5.641471868407395 1 0 0 I I #
edge $-1 $136 -5.641471868407395 $191 5.641471868407395 $133 $271 forward 7 unknown #
edge $-1 $137 -5.641471868407395 $190 5.641471868407395 $134 $272 forward 7 unknown #
point $-1 44.104129154332099 -19.316200661668891 5.641471868407395 #
point $-1 44.104129154332099 19.316200661668891 5.641471868407395 #
face $-1 $-1 $219 $19 $-1 $273 reversed single #
loop $-1 $-1 $274 $139 #
plane-surface $-1 -48.656785072454298 0 3.2809893665281962 1 0 0 0 0 -1 forward_v I I I I #
coedge $-1 $275 $211 $145 $216 reversed $140 $-1 #
coedge $-1 $143 $142 $274 $276 reversed $53 $-1 #
coedge $-1 $209 $277 $142 $212 forward $140 $-1 #
edge $-1 $278 -2.2763279590610992 $214 2.2763279590610992 $142 $279 forward 7 unknown #
edge $-1 $150 -2.2763279590610992 $280 2.2763279590610992 $143 $281 forward 7 unknown #
vertex $-1 $144 $282 #
straight-curve $-1 -44.104129154332099 19.316200661668891 0 0 0 -1 I I #
edge $-1 $220 -19.316200661668891 $214 19.316200661668891 $209 $283 forward 7 unknown #
coedge $-1 $284 $146 $149 $223 reversed $219 $-1 #
coedge $-1 $146 $284 $275 $285 reversed $219 $-1 #
loop $-1 $-1 $146 $206 #
vertex $-1 $147 $286 #
straight-curve $-1 -44.104129154332099 -19.316200661668891 0 0 0 1 I I #
coedge $-1 $149 $148 $287 $288 forward $84 $-1 #
edge $-1 $289 -2.2763279590610992 $151 2.2763279590610992 $217 $290 forward 7 unknown #
point $-1 -44.104129154332099 19.316200661668891 4.9212636253100221 #
point $-1 -44.104129154332099 -19.316200661668891 4.9212636253100221 #
loop $-1 $-1 $161 $153 #
plane-surface $-1 44.104129154332099 0 0 -1 0 0 0 0 1 forward_v I I I I #
coedge $-1 $229 $156 $158 $233 reversed $92 $-1 #
coedge $-1 $156 $228 $291 $292 reversed $92 $-1 #
coedge $-1 $164 $159 $156 $231 forward $154 $-1 #
edge $-1 $234 10.593803185543713 $293 14.450748918180665 $230 $294 forward 7 unknown #
coedge $-1 $158 $157 $237 $295 reversed $57 $-1 #
edge $-1 $296 -88.208258308664199 $234 -81.943539866139233 $228 $297 forward 7 unknown #
vertex $-1 $160 $298 #
straight-curve $-1 40.247183421695141 -4.3007901014548473 5.6414718684074003 0 -1 0 I I #
coedge $-1 $291 $161 $164 $241 reversed $226 $-1 #
coedge $-1 $161 $291 $232 $295 forward $226 $-1 #
vertex $-1 $162 $299 #
straight-curve $-1 44.104129154332099 -5.005283085452553 62.260144331102978 0 0 1 I I #
straight-curve $-1 -10.202296359951603 -5.005283085452553 70.21386314792224 0.61566146476048833 0 -0.78801076186113728 I I #
edge $-1 $293 -12.197877320366835 $165 -5.005283085452553 $236 $300 forward 7 unknown #
point $-1 44.104129154332099 -5.005283085452553 5.641471868407395 #
point $-1 40.247183421695148 -5.005283085452553 5.6414718684073932 #
edge $-1 $301 1 $301 0 $168 $-1 forward 7 unknown #
vertex $-1 $169 $302 #
ellipse-curve $-1 41.387645526152468 -10.759358473383978 2.5574776272770956 0.78801076186113728 0 0.61566146476048833 0.30783073238024417 0 -0.39400538093056864 1 I I #
point $-1 42.483487020393852 -10.759358473383978 2.7791337111070149 #
edge $-1 $303 1 $303 0 $172 $-1 forward 7 unknown #
vertex $-1 $173 $304 #
ellipse-curve $-1 41.387645526152468 -8.6015802029096928 2.5574776272770956 0.78801076186113728 0 0.61566146476048833 0.30783073238024417 0 -0.39400538093056864 1 I I #
point $-1 42.483487020393852 -8.6015802029096928 2.7791337111070149 #
edge $-1 $305 1 $305 0 $176 $-1 forward 7 unknown #
vertex $-1 $177 $306 #
ellipse-curve $-1 41.387645526152468 -6.4438019324354077 2.5574776272770956 0.78801076186113728 0 0.61566146476048833 0.30783073238024417 0 -0.39400538093056864 1 I I #
point $-1 42.483487020393852 -6.4438019324354077 2.7791337111070149 #
plane-surface $-1 44.104129154332099 0 0 -1 0 0 0 0 1 forward_v I I I I #
coedge $-1 $183 $266 $186 $260 reversed $121 $-1 #
vertex $-1 $260 $307 #
straight-curve $-1 -44.104129154332099 -19.316200661668891 0 0 0 -1 I I #
edge $-1 $258 -19.316200661668891 $262 19.316200661668891 $257 $308 forward 7 unknown #
straight-curve $-1 0 -19.316200661668891 -5.641471868407395 -1 0 0 I I #
vertex $-1 $189 $309 #
straight-curve $-1 0 19.316200661668891 -5.641471868407395 1 0 0 I I #
point $-1 44.104129154332099 19.316200661668891 -5.641471868407395 #
point $-1 44.104129154332099 -19.316200661668891 -5.641471868407395 #
coedge $-1 $257 $193 $196 $268 forward $121 $-1 #
straight-curve $-1 -44.104129154332099 0 5.641471868407395 0 -1 0 I I #
edge $-1 $197 -5.641471868407395 $262 5.641471868407395 $196 $310 forward 7 unknown #
point $-1 -44.104129154332099 19.316200661668891 5.641471868407395 #
point $-1 -44.104129154332099 -19.316200661668891 5.641471868407395 #
straight-curve $-1 44.104129154332099 -19.316200661668891 0 0 0 -1 I I #
straight-curve $-1 44.104129154332099 19.316200661668891 0 0 0 -1 I I #
plane-surface $-1 0 -19.316200661668891 0 0 1 0 0 0 1 forward_v I I I I #
coedge $-1 $311 $287 $210 $276 forward $207 $-1 #
coedge $-1 $277 $209 $218 $285 forward $140 $-1 #
edge $-1 $280 -1.640274258781826 $278 1.640274258781826 $210 $312 forward 7 unknown #
coedge $-1 $211 $275 $311 $313 forward $140 $-1 #
vertex $-1 $212 $314 #
straight-curve $-1 -46.380457113393199 19.316200661668891 1.6407151077463702 1 0 0 I I #
vertex $-1 $213 $315 #
straight-curve $-1 -46.380457113393199 19.316200661668891 4.9212636253100221 -1 0 0 I I #
point $-1 -44.104129154332099 19.316200661668891 1.6407151077463702 #
straight-curve $-1 -44.104129154332099 0 1.6407151077463702 0 1 0 I I #
coedge $-1 $218 $217 $316 $317 forward $219 $-1 #
edge $-1 $220 -2.2763279590610992 $318 2.2763279590610992 $218 $319 forward 7 unknown #
point $-1 -44.104129154332099 -19.316200661668891 1.6407151077463702 #
coedge $-1 $274 $316 $222 $288 reversed $207 $-1 #
edge $-1 $280 -19.316200661668891 $289 19.316200661668891 $287 $320 forward 7 unknown #
vertex $-1 $288 $321 #
straight-curve $-1 -46.380457113393199 -19.316200661668891 4.9212636253100221 1 0 0 I I #
coedge $-1 $237 $236 $229 $292 forward $226 $-1 #
edge $-1 $293 56.618672462695585 $296 61.555338015435197 $291 $322 forward 7 unknown #
vertex $-1 $241 $323 #
straight-curve $-1 29.653380236151435 -12.197877320366835 5.6414718684073932 1 0 0 I I #
edge $-1 $296 -7.8970872189119881 $238 -0.70449298399770566 $237 $324 forward 7 unknown #
vertex $-1 $295 $325 #
straight-curve $-1 -10.202296359951603 -12.197877320366835 70.21386314792224 -0.61566146476048833 0 0.78801076186113728 I I #
point $-1 40.247183421695148 -12.197877320366835 5.6414718684073932 #
point $-1 44.104129154332107 -5.005283085452553 0.70480631566778129 #
straight-curve $-1 44.104129154332099 0 5.641471868407395 0 1 0 I I #
vertex $-1 $244 $326 #
point $-1 41.695476258532715 -10.759358473383978 2.1634722463465268 #
vertex $-1 $248 $327 #
point $-1 41.695476258532715 -8.6015802029096928 2.1634722463465268 #
vertex $-1 $252 $328 #
point $-1 41.695476258532715 -6.4438019324354077 2.1634722463465268 #
point $-1 -44.104129154332099 -19.316200661668891 -5.641471868407395 #
straight-curve $-1 -44.104129154332099 0 -5.641471868407395 0 1 0 I I #
point $-1 -44.104129154332099 19.316200661668891 -5.641471868407395 #
straight-curve $-1 -44.104129154332099 19.316200661668891 0 0 0 -1 I I #
coedge $-1 $316 $274 $277 $313 reversed $207 $-1 #
straight-curve $-1 -48.656785072454298 19.316200661668891 3.2809893665281962 0 0 -1 I I #
edge $-1 $318 -19.316200661668891 $278 19.316200661668891 $311 $329 forward 7 unknown #
point $-1 -48.656785072454298 19.316200661668891 1.6407151077463702 #
point $-1 -48.656785072454298 19.316200661668891 4.9212636253100221 #
coedge $-1 $287 $311 $284 $317 reversed $207 $-1 #
edge $-1 $289 -1.640274258781826 $318 1.640274258781826 $316 $330 forward 7 unknown #
vertex $-1 $313 $331 #
straight-curve $-1 -46.380457113393199 -19.316200661668891 1.6407151077463702 -1 0 0 I I #
straight-curve $-1 -48.656785072454298 0 4.9212636253100221 0 -1 0 I I #
point $-1 -48.656785072454298 -19.316200661668891 4.9212636253100221 #
straight-curve $-1 44.104129154332099 -12.197877320366835 62.260144331102978 0 0 -1 I I #
point $-1 44.104129154332099 -12.197877320366835 5.641471868407395 #
straight-curve $-1 44.104129154332099 -4.3007901014548473 0.7048063156677884 0 1 0 I I #
point $-1 44.104129154332107 -12.197877320366835 0.70480631566778129 #
point $-1 40.993640145221903 -10.759358473383978 2.2496468948968511 #
point $-1 40.993640145221903 -8.6015802029096928 2.2496468948968511 #
point $-1 40.993640145221903 -6.4438019324354077 2.2496468948968511 #
straight-curve $-1 -48.656785072454298 0 1.6407151077463702 0 1 0 I I #
straight-curve $-1 -48.656785072454298 -19.316200661668891 3.2809893665281962 0 0 -1 I I #
point $-1 -48.656785072454298 -19.316200661668891 1.6407151077463702 #
End-of-ACIS-data 