500 0 5 0           
7 Unknown 11 ACIS 5.0 NT 24 Thu Mar 25 21:08:06 1999 
-1 9.9999999999999995e-007 1e-010 
body $-1 $5 $-1 $6 #
body $-1 $7 $-1 $8 #
body $-1 $9 $-1 $10 #
body $-1 $11 $-1 $12 #
body $-1 $13 $-1 $14 #
lump $-1 $-1 $15 $0 #
transform $-1 1 0 0 0 1 0 0 0 1 69.078035828730123 30.670125084600802 9.5749721233384921 1 rotate no_reflect no_shear #
lump $-1 $-1 $16 $1 #
transform $-1 1 0 0 0 1 0 0 0 1 69.078035828730123 30.670125084600802 9.5749721233384921 1 rotate no_reflect no_shear #
lump $-1 $-1 $17 $2 #
transform $-1 1 0 0 0 1 0 0 0 1 69.078035828730123 30.670125084600802 9.5749721233384921 1 rotate no_reflect no_shear #
lump $-1 $-1 $18 $3 #
transform $-1 1 0 0 0 1 0 0 0 1 69.078035828730123 30.670125084600802 9.5749721233384921 1 rotate no_reflect no_shear #
lump $-1 $-1 $19 $4 #
transform $-1 1 0 0 0 1 0 0 0 1 69.078035828730123 30.670125084600802 9.5749721233384921 1 rotate no_reflect no_shear #
shell $-1 $-1 $-1 $20 $-1 $5 #
shell $-1 $-1 $-1 $21 $-1 $7 #
shell $-1 $-1 $-1 $22 $-1 $9 #
shell $-1 $-1 $-1 $23 $-1 $11 #
shell $-1 $-1 $-1 $24 $-1 $13 #
face $-1 $25 $26 $15 $-1 $27 forward single #
face $-1 $28 $29 $16 $-1 $30 forward single #
face $-1 $31 $32 $17 $-1 $33 forward single #
face $-1 $34 $35 $18 $-1 $36 reversed single #
face $-1 $37 $38 $19 $-1 $39 reversed single #
face $-1 $40 $41 $15 $-1 $42 reversed single #
loop $-1 $-1 $43 $20 #
plane-surface $-1 0 0 9.5749721233384921 0 0 1 1 0 0 forward_v I I I I #
face $-1 $44 $45 $16 $-1 $46 reversed single #
loop $-1 $-1 $47 $21 #
plane-surface $-1 -75.262321757579315 0 6.7274551843008839 0 0 1 1 0 0 forward_v I I I I #
face $-1 $48 $49 $17 $-1 $50 forward single #
loop $-1 $-1 $51 $22 #
plane-surface $-1 113.02946837515603 12.725195609917446 195.9648983309115 0 1 0 0.84804810408105047 0 0.52991925155115449 forward_v I I I I #
face $-1 $52 $53 $18 $-1 $54 reversed single #
loop $-1 $55 $56 $23 #
cone-surface $-1 67.33980413746437 17.852318316969832 7.2744119549014714 -0.84804810408105047 0 -0.52991925155115449 0.26495962577557725 0 -0.42402405204052523 1 I I 0 1 0.5 forward I I I I #
face $-1 $57 $58 $19 $-1 $59 reversed single #
loop $-1 $60 $61 $24 #
cone-surface $-1 67.33980413746437 25.543002377548415 7.2744119549014714 -0.84804810408105047 0 -0.52991925155115449 0.26495962577557725 0 -0.42402405204052523 1 I I 0 1 0.5 forward I I I I #
face $-1 $62 $63 $15 $-1 $64 reversed single #
loop $-1 $-1 $65 $25 #
plane-surface $-1 0 0 -9.5749721233384921 0 0 1 1 0 0 forward_v I I I I #
coedge $-1 $66 $67 $68 $69 forward $26 $-1 #
face $-1 $70 $71 $16 $-1 $72 reversed single #
loop $-1 $-1 $73 $28 #
plane-surface $-1 -75.262321757579315 0 1.568302291866714 0 0 1 1 0 0 forward_v I I I I #
coedge $-1 $74 $75 $76 $77 reversed $29 $-1 #
face $-1 $78 $79 $17 $-1 $80 reversed single #
loop $-1 $-1 $81 $31 #
plane-surface $-1 -4.1335262612388846 21.697660347259127 122.75333624094249 0.84804810408105047 0 0.52991925155115449 0.52991925155115449 0 -0.84804810408105047 forward_v I I I I #
coedge $-1 $82 $83 $84 $85 reversed $32 $-1 #
face $-1 $86 $87 $18 $-1 $88 forward single #
loop $-1 $89 $90 $34 #
cone-surface $-1 66.63449712368859 17.852318316969832 6.8336872329721157 -0.84804810408105047 0 -0.52991925155115449 0.13247981288778862 0 -0.21201202602026262 1 I I -0.70710678118654746 0.70710678118654746 0.25 forward I I I I #
loop $-1 $-1 $91 $23 #
coedge $-1 $56 $56 $92 $93 reversed $35 $-1 #
face $-1 $94 $95 $19 $-1 $96 reversed single #
loop $-1 $97 $98 $37 #
cone-surface $-1 66.63449712368859 25.543002377548415 6.8336872329721157 -0.84804810408105047 0 -0.52991925155115449 0.13247981288778862 0 -0.21201202602026262 1 I I -0.70710678118654746 0.70710678118654746 0.25 forward I I I I #
loop $-1 $-1 $99 $24 #
coedge $-1 $61 $61 $100 $101 reversed $38 $-1 #
face $-1 $102 $103 $15 $-1 $104 reversed single #
loop $-1 $-1 $105 $40 #
plane-surface $-1 0 -30.670125084600802 0 0 1 0 0 0 1 forward_v I I I I #
coedge $-1 $106 $107 $108 $109 forward $41 $-1 #
coedge $-1 $110 $43 $111 $112 forward $26 $-1 #
coedge $-1 $43 $110 $113 $114 forward $26 $-1 #
coedge $-1 $115 $116 $43 $69 reversed $117 $-1 #
edge $-1 $118 -30.670125084600802 $119 30.670125084600802 $68 $120 forward 7 unknown #
face $-1 $121 $122 $16 $-1 $123 reversed single #
loop $-1 $-1 $124 $44 #
plane-surface $-1 -81.446607686428507 0 4.1478787380837989 1 0 0 0 0 -1 forward_v I I I I #
coedge $-1 $125 $126 $127 $128 reversed $45 $-1 #
coedge $-1 $129 $47 $130 $131 forward $29 $-1 #
coedge $-1 $47 $129 $132 $133 forward $29 $-1 #
coedge $-1 $134 $135 $47 $77 forward $136 $-1 #
edge $-1 $137 -30.670125084600802 $138 30.670125084600802 $76 $139 forward 7 unknown #
face $-1 $140 $141 $17 $-1 $142 forward single #
loop $-1 $-1 $143 $48 #
plane-surface $-1 69.078035828730123 0 0 -1 0 0 0 0 1 forward_v I I I I #
coedge $-1 $144 $145 $143 $146 reversed $49 $-1 #
coedge $-1 $83 $51 $145 $147 forward $32 $-1 #
coedge $-1 $51 $82 $148 $149 reversed $32 $-1 #
coedge $-1 $150 $143 $51 $85 forward $79 $-1 #
edge $-1 $151 -92.392107560908173 $152 -88.40747704211725 $84 $153 forward 7 unknown #
face $-1 $154 $155 $18 $-1 $156 forward single #
loop $-1 $-1 $157 $52 #
plane-surface $-1 113.02946837515603 12.725195609917446 195.9648983309115 0 1 0 0.84804810408105047 0 0.52991925155115449 forward_v I I I I #
loop $-1 $-1 $158 $34 #
coedge $-1 $90 $90 $91 $159 forward $53 $-1 #
coedge $-1 $91 $91 $90 $159 reversed $55 $-1 #
coedge $-1 $92 $92 $56 $93 forward $155 $-1 #
edge $-1 $160 0 $160 6.2831853071796004 $92 $161 forward 7 unknown #
face $-1 $162 $163 $19 $-1 $164 reversed single #
loop $-1 $165 $166 $57 #
cone-surface $-1 67.33980413746437 17.852318316969832 7.2744119549014714 -0.84804810408105047 0 -0.52991925155115449 0.26495962577557725 0 -0.42402405204052523 1 I I 0 1 0.5 forward I I I I #
loop $-1 $-1 $167 $37 #
coedge $-1 $98 $98 $99 $168 forward $58 $-1 #
coedge $-1 $99 $99 $98 $168 reversed $60 $-1 #
coedge $-1 $100 $100 $61 $101 forward $169 $-1 #
edge $-1 $170 0 $170 6.2831853071796004 $100 $171 forward 7 unknown #
face $-1 $172 $173 $15 $-1 $174 reversed single #
loop $-1 $-1 $175 $62 #
plane-surface $-1 -69.078035828730123 0 0 1 0 0 0 0 -1 forward_v I I I I #
coedge $-1 $176 $113 $177 $178 forward $63 $-1 #
coedge $-1 $179 $65 $176 $180 forward $41 $-1 #
coedge $-1 $65 $179 $181 $182 forward $41 $-1 #
coedge $-1 $116 $115 $65 $109 reversed $117 $-1 #
edge $-1 $183 -30.670125084600802 $184 30.670125084600802 $108 $185 forward 7 unknown #
coedge $-1 $67 $66 $186 $187 forward $26 $-1 #
coedge $-1 $188 $189 $66 $112 reversed $173 $-1 #
edge $-1 $119 -69.078035828730123 $190 69.078035828730123 $111 $191 forward 7 unknown #
coedge $-1 $105 $192 $67 $114 reversed $63 $-1 #
edge $-1 $193 -69.078035828730123 $118 69.078035828730123 $113 $194 forward 7 unknown #
coedge $-1 $108 $68 $192 $195 forward $117 $-1 #
coedge $-1 $68 $108 $188 $196 reversed $117 $-1 #
loop $-1 $-1 $115 $172 #
vertex $-1 $69 $197 #
vertex $-1 $69 $198 #
straight-curve $-1 69.078035828730123 0 9.5749721233384921 0 1 0 I I #
face $-1 $199 $136 $16 $-1 $123 reversed single #
loop $-1 $-1 $127 $70 #
plane-surface $-1 -69.078035828730123 0 0 1 0 0 0 0 -1 forward_v I I I I #
coedge $-1 $200 $201 $202 $203 forward $71 $-1 #
coedge $-1 $204 $73 $205 $206 forward $45 $-1 #
coedge $-1 $73 $204 $207 $208 forward $45 $-1 #
coedge $-1 $209 $210 $73 $128 forward $122 $-1 #
edge $-1 $211 -30.670125084600802 $212 30.670125084600802 $127 $213 forward 7 unknown #
coedge $-1 $75 $74 $201 $214 forward $29 $-1 #
coedge $-1 $215 $202 $74 $131 reversed $216 $-1 #
edge $-1 $137 -6.1842859288491923 $217 6.1842859288491923 $130 $218 forward 7 unknown #
coedge $-1 $219 $220 $75 $133 reversed $221 $-1 #
edge $-1 $222 -6.1842859288491923 $138 6.1842859288491923 $132 $223 forward 7 unknown #
coedge $-1 $224 $76 $220 $225 reversed $136 $-1 #
coedge $-1 $76 $224 $215 $226 forward $136 $-1 #
loop $-1 $-1 $76 $121 #
vertex $-1 $226 $227 #
vertex $-1 $133 $228 #
straight-curve $-1 -69.078035828730123 0 6.7274551843008839 0 -1 0 I I #
face $-1 $229 $230 $17 $-1 $231 forward single #
loop $-1 $-1 $148 $78 #
plane-surface $-1 0 0 9.5749721233384921 0 0 1 1 0 0 forward_v I I I I #
coedge $-1 $84 $232 $81 $146 forward $79 $-1 #
coedge $-1 $233 $81 $234 $235 reversed $49 $-1 #
coedge $-1 $81 $233 $82 $147 reversed $49 $-1 #
edge $-1 $236 -19.82129491097124 $151 -1.8763654362878821 $143 $237 forward 7 unknown #
edge $-1 $151 -138.15607165746025 $238 -133.45748144823068 $82 $239 forward 7 unknown #
coedge $-1 $240 $241 $83 $149 forward $141 $-1 #
edge $-1 $152 -12.563301641152108 $238 -10.073428234131583 $148 $242 forward 7 unknown #
coedge $-1 $243 $84 $241 $244 reversed $79 $-1 #
vertex $-1 $146 $245 #
vertex $-1 $149 $246 #
straight-curve $-1 69.078035828730123 12.725195609917446 97.982449165455748 0 0 1 I I #
face $-1 $247 $248 $18 $-1 $249 reversed single #
loop $-1 $250 $92 $86 #
plane-surface $-1 -4.1335262612388846 21.697660347259127 122.75333624094249 0.84804810408105047 0 0.52991925155115449 0.52991925155115449 0 -0.84804810408105047 forward_v I I I I #
coedge $-1 $251 $252 $253 $254 reversed $87 $-1 #
coedge $-1 $158 $158 $-1 $255 forward $89 $-1 #
edge $-1 $256 0 $256 6.2831853071796004 $90 $257 forward 7 unknown #
vertex $-1 $93 $258 #
ellipse-curve $-1 67.83309912521986 17.852318316969832 7.5826568639430292 -0.84804810408105047 0 -0.52991925155115449 0.26495962577557725 0 -0.42402405204052523 1 I I #
face $-1 $259 $260 $19 $-1 $261 forward single #
loop $-1 $262 $263 $94 #
cone-surface $-1 66.63449712368859 17.852318316969832 6.8336872329721157 -0.84804810408105047 0 -0.52991925155115449 0.13247981288778862 0 -0.21201202602026262 1 I I -0.70710678118654746 0.70710678118654746 0.25 forward I I I I #
loop $-1 $-1 $264 $57 #
coedge $-1 $166 $166 $265 $266 reversed $95 $-1 #
coedge $-1 $167 $167 $-1 $267 forward $97 $-1 #
edge $-1 $268 0 $268 6.2831853071796004 $98 $269 forward 7 unknown #
loop $-1 $270 $100 $259 #
vertex $-1 $101 $271 #
ellipse-curve $-1 67.83309912521986 25.543002377548415 7.5826568639430292 -0.84804810408105047 0 -0.52991925155115449 0.26495962577557725 0 -0.42402405204052523 1 I I #
face $-1 $-1 $117 $15 $-1 $272 reversed single #
loop $-1 $-1 $188 $102 #
plane-surface $-1 0 30.670125084600802 0 0 -1 0 0 0 -1 forward_v I I I I #
coedge $-1 $273 $186 $189 $274 forward $103 $-1 #
coedge $-1 $192 $105 $106 $180 reversed $63 $-1 #
coedge $-1 $186 $273 $105 $178 reversed $103 $-1 #
edge $-1 $193 -9.5749721233384921 $275 9.5749721233384921 $177 $276 forward 7 unknown #
coedge $-1 $107 $106 $273 $277 forward $41 $-1 #
edge $-1 $184 -69.078035828730123 $275 69.078035828730123 $176 $278 forward 7 unknown #
coedge $-1 $189 $188 $107 $182 reversed $173 $-1 #
edge $-1 $279 -69.078035828730123 $183 69.078035828730123 $181 $280 forward 7 unknown #
vertex $-1 $109 $281 #
vertex $-1 $195 $282 #
straight-curve $-1 69.078035828730123 0 -9.5749721233384921 0 -1 0 I I #
coedge $-1 $175 $177 $110 $187 reversed $103 $-1 #
edge $-1 $190 -30.670125084600802 $193 30.670125084600802 $186 $283 forward 7 unknown #
coedge $-1 $181 $111 $116 $196 forward $173 $-1 #
coedge $-1 $111 $181 $175 $274 reversed $173 $-1 #
vertex $-1 $112 $284 #
straight-curve $-1 0 30.670125084600802 9.5749721233384921 -1 0 0 I I #
coedge $-1 $113 $176 $115 $195 reversed $63 $-1 #
vertex $-1 $187 $285 #
straight-curve $-1 0 -30.670125084600802 9.5749721233384921 1 0 0 I I #
edge $-1 $118 -9.5749721233384921 $184 9.5749721233384921 $115 $286 forward 7 unknown #
edge $-1 $119 -9.5749721233384921 $183 9.5749721233384921 $116 $287 forward 7 unknown #
point $-1 69.078035828730123 -30.670125084600802 9.5749721233384921 #
point $-1 69.078035828730123 30.670125084600802 9.5749721233384921 #
face $-1 $288 $289 $16 $-1 $290 forward single #
coedge $-1 $291 $124 $204 $292 reversed $71 $-1 #
coedge $-1 $124 $291 $129 $214 reversed $71 $-1 #
coedge $-1 $130 $207 $124 $203 reversed $216 $-1 #
edge $-1 $217 -2.5795764462170849 $293 2.5795764462170849 $202 $294 forward 7 unknown #
coedge $-1 $126 $125 $200 $292 forward $45 $-1 #
coedge $-1 $295 $219 $125 $206 reversed $221 $-1 #
edge $-1 $211 -6.1842859288491923 $296 6.1842859288491923 $205 $297 forward 7 unknown #
coedge $-1 $202 $298 $126 $208 reversed $216 $-1 #
edge $-1 $293 -6.1842859288491923 $212 6.1842859288491923 $207 $299 forward 7 unknown #
coedge $-1 $300 $127 $298 $301 forward $122 $-1 #
coedge $-1 $127 $300 $295 $302 reversed $122 $-1 #
vertex $-1 $302 $303 #
vertex $-1 $301 $304 #
straight-curve $-1 -69.078035828730123 0 1.568302291866714 0 1 0 I I #
edge $-1 $217 -30.670125084600802 $222 30.670125084600802 $201 $305 forward 7 unknown #
coedge $-1 $306 $130 $135 $226 reversed $216 $-1 #
loop $-1 $-1 $307 $308 #
vertex $-1 $131 $309 #
straight-curve $-1 -75.262321757579315 30.670125084600802 6.7274551843008839 -1 0 0 I I #
coedge $-1 $205 $132 $291 $310 forward $221 $-1 #
coedge $-1 $132 $311 $134 $225 forward $221 $-1 #
loop $-1 $-1 $220 $312 #
vertex $-1 $214 $313 #
straight-curve $-1 -75.262321757579315 -30.670125084600802 6.7274551843008839 1 0 0 I I #
coedge $-1 $135 $134 $314 $315 reversed $136 $-1 #
edge $-1 $316 -9.5749721233384921 $138 -6.7274551843008839 $134 $317 forward 7 unknown #
edge $-1 $318 -9.5749721233384921 $137 -6.7274551843008839 $215 $319 forward 7 unknown #
point $-1 -69.078035828730123 30.670125084600802 6.7274551843008839 #
point $-1 -69.078035828730123 -30.670125084600802 6.7274551843008839 #
face $-1 $320 $321 $17 $-1 $322 reversed single #
loop $-1 $-1 $323 $140 #
plane-surface $-1 -75.262321757579315 0 6.7274551843008839 0 0 1 1 0 0 forward_v I I I I #
coedge $-1 $143 $324 $325 $326 reversed $79 $-1 #
coedge $-1 $145 $144 $240 $327 reversed $49 $-1 #
coedge $-1 $325 $328 $144 $235 forward $329 $-1 #
edge $-1 $330 80.311896842541799 $236 85.010487051771378 $234 $331 forward 7 unknown #
vertex $-1 $326 $332 #
straight-curve $-1 69.078035828730123 10.848830173629564 5.590341604547568 0 -1 0 I I #
vertex $-1 $327 $333 #
straight-curve $-1 -4.1335262612388846 12.725195609917446 122.75333624094249 -0.52991925155115449 0 0.84804810408105047 I I #
coedge $-1 $334 $148 $233 $327 forward $141 $-1 #
coedge $-1 $148 $335 $150 $244 forward $141 $-1 #
straight-curve $-1 56.514734187578014 12.725195609917446 9.5749721233384975 -1 0 0 I I #
coedge $-1 $324 $150 $336 $337 forward $79 $-1 #
edge $-1 $338 -30.670125084600802 $152 12.725195609917446 $150 $339 forward 7 unknown #
point $-1 69.078035828730123 12.725195609917446 5.5903416045475751 #
point $-1 69.078035828730123 12.725195609917446 9.5749721233384921 #
face $-1 $340 $341 $18 $-1 $342 forward single #
loop $-1 $-1 $343 $154 #
plane-surface $-1 69.078035828730123 0 0 -1 0 0 0 0 1 forward_v I I I I #
loop $-1 $-1 $344 $86 #
coedge $-1 $252 $157 $345 $346 forward $87 $-1 #
coedge $-1 $157 $251 $347 $348 reversed $87 $-1 #
coedge $-1 $349 $343 $157 $254 forward $248 $-1 #
edge $-1 $350 -92.392107560908173 $351 -88.40747704211725 $253 $352 forward 7 unknown #
edge $-1 $353 1 $353 0 $158 $-1 forward 7 unknown #
vertex $-1 $159 $354 #
ellipse-curve $-1 66.846509149708851 17.852318316969832 6.9661670458599039 0.84804810408105047 0 0.52991925155115449 0.26495962577557725 0 -0.42402405204052523 1 I I #
point $-1 68.098058750995449 17.852318316969832 7.1586328119025122 #
face $-1 $355 $169 $19 $-1 $356 forward single #
loop $-1 $-1 $357 $162 #
plane-surface $-1 113.02946837515603 12.725195609917446 195.9648983309115 0 1 0 0.84804810408105047 0 0.52991925155115449 forward_v I I I I #
loop $-1 $-1 $358 $94 #
coedge $-1 $263 $263 $264 $359 forward $163 $-1 #
coedge $-1 $264 $264 $263 $359 reversed $165 $-1 #
coedge $-1 $265 $265 $166 $266 forward $270 $-1 #
edge $-1 $360 0 $360 6.2831853071796004 $265 $361 forward 7 unknown #
edge $-1 $362 1 $362 0 $167 $-1 forward 7 unknown #
vertex $-1 $168 $363 #
ellipse-curve $-1 66.846509149708851 25.543002377548415 6.9661670458599039 0.84804810408105047 0 0.52991925155115449 0.26495962577557725 0 -0.42402405204052523 1 I I #
loop $-1 $364 $265 $259 #
point $-1 68.098058750995449 25.543002377548415 7.1586328119025122 #
plane-surface $-1 69.078035828730123 0 0 -1 0 0 0 0 1 forward_v I I I I #
coedge $-1 $177 $175 $179 $277 reversed $103 $-1 #
edge $-1 $190 -9.5749721233384921 $279 9.5749721233384921 $189 $365 forward 7 unknown #
vertex $-1 $277 $366 #
straight-curve $-1 -69.078035828730123 -30.670125084600802 0 0 0 -1 I I #
edge $-1 $275 -30.670125084600802 $279 30.670125084600802 $273 $367 forward 7 unknown #
straight-curve $-1 0 -30.670125084600802 -9.5749721233384921 -1 0 0 I I #
vertex $-1 $182 $368 #
straight-curve $-1 0 30.670125084600802 -9.5749721233384921 1 0 0 I I #
point $-1 69.078035828730123 30.670125084600802 -9.5749721233384921 #
point $-1 69.078035828730123 -30.670125084600802 -9.5749721233384921 #
straight-curve $-1 -69.078035828730123 0 9.5749721233384921 0 -1 0 I I #
point $-1 -69.078035828730123 30.670125084600802 9.5749721233384921 #
point $-1 -69.078035828730123 -30.670125084600802 9.5749721233384921 #
straight-curve $-1 69.078035828730123 -30.670125084600802 0 0 0 -1 I I #
straight-curve $-1 69.078035828730123 30.670125084600802 0 0 0 -1 I I #
face $-1 $312 $369 $16 $-1 $370 reversed single #
loop $-1 $-1 $371 $199 #
plane-surface $-1 0 0 9.5749721233384921 0 0 1 1 0 0 forward_v I I I I #
coedge $-1 $201 $200 $219 $310 reversed $71 $-1 #
edge $-1 $296 -30.670125084600802 $293 30.670125084600802 $200 $372 forward 7 unknown #
vertex $-1 $208 $373 #
straight-curve $-1 -81.446607686428507 30.670125084600802 4.1478787380837989 0 0 -1 I I #
coedge $-1 $374 $205 $210 $302 forward $221 $-1 #
vertex $-1 $292 $375 #
straight-curve $-1 -75.262321757579315 -30.670125084600802 1.568302291866714 -1 0 0 I I #
coedge $-1 $207 $376 $209 $301 reversed $216 $-1 #
straight-curve $-1 -75.262321757579315 30.670125084600802 1.568302291866714 1 0 0 I I #
coedge $-1 $210 $209 $377 $378 reversed $122 $-1 #
edge $-1 $212 -1.568302291866714 $379 9.5749721233384921 $298 $319 forward 7 unknown #
edge $-1 $211 -1.568302291866714 $380 9.5749721233384921 $210 $317 forward 7 unknown #
point $-1 -69.078035828730123 -30.670125084600802 1.568302291866714 #
point $-1 -69.078035828730123 30.670125084600802 1.568302291866714 #
straight-curve $-1 -81.446607686428507 0 6.7274551843008839 0 -1 0 I I #
coedge $-1 $307 $215 $381 $382 reversed $216 $-1 #
coedge $-1 $376 $306 $383 $384 forward $216 $-1 #
face $-1 $385 $216 $16 $-1 $386 reversed single #
point $-1 -81.446607686428507 30.670125084600802 6.7274551843008839 #
edge $-1 $222 -2.5795764462170849 $296 2.5795764462170849 $291 $387 forward 7 unknown #
coedge $-1 $220 $388 $389 $390 reversed $221 $-1 #
face $-1 $308 $221 $16 $-1 $391 reversed single #
point $-1 -81.446607686428507 -30.670125084600802 6.7274551843008839 #
coedge $-1 $389 $381 $224 $315 forward $289 $-1 #
edge $-1 $318 -30.670125084600802 $316 30.670125084600802 $224 $392 forward 7 unknown #
vertex $-1 $315 $393 #
straight-curve $-1 -69.078035828730123 -30.670125084600802 0 0 0 -1 I I #
vertex $-1 $382 $394 #
straight-curve $-1 -69.078035828730123 30.670125084600802 0 0 0 -1 I I #
face $-1 $395 $396 $17 $-1 $397 reversed single #
loop $-1 $-1 $398 $229 #
plane-surface $-1 -75.262321757579315 0 1.568302291866714 0 0 1 1 0 0 forward_v I I I I #
coedge $-1 $399 $400 $401 $402 reversed $230 $-1 #
coedge $-1 $232 $243 $403 $404 reversed $79 $-1 #
coedge $-1 $405 $234 $232 $326 forward $329 $-1 #
edge $-1 $236 -5.5903416045475716 $406 9.5749721233384921 $232 $407 forward 7 unknown #
edge $-1 $238 1.8763654362878821 $330 19.821294910971247 $240 $408 forward 7 unknown #
coedge $-1 $234 $409 $334 $410 reversed $329 $-1 #
loop $-1 $-1 $234 $411 #
vertex $-1 $410 $412 #
straight-curve $-1 24.02934215625632 30.670125084600802 77.683323975808975 0.52991925155115449 0 -0.84804810408105047 I I #
point $-1 69.078035828730123 30.670125084600802 5.5903416045475716 #
point $-1 66.588162421709598 12.725195609917446 9.5749721233384975 #
coedge $-1 $413 $240 $328 $410 forward $141 $-1 #
coedge $-1 $241 $413 $414 $415 forward $141 $-1 #
coedge $-1 $414 $416 $243 $337 reversed $417 $-1 #
edge $-1 $338 -9.5749721233384921 $418 9.5749721233384921 $243 $419 forward 7 unknown #
vertex $-1 $244 $420 #
straight-curve $-1 69.078035828730123 0 9.5749721233384921 0 1 0 I I #
face $-1 $421 $422 $18 $-1 $423 forward single #
loop $-1 $-1 $347 $247 #
plane-surface $-1 0 0 9.5749721233384921 0 0 1 1 0 0 forward_v I I I I #
coedge $-1 $253 $424 $344 $425 forward $248 $-1 #
coedge $-1 $426 $345 $343 $425 reversed $250 $-1 #
coedge $-1 $344 $427 $251 $346 reversed $250 $-1 #
edge $-1 $350 -138.15607165746025 $428 -133.45748144823068 $251 $429 forward 7 unknown #
coedge $-1 $430 $431 $252 $348 forward $341 $-1 #
edge $-1 $351 -12.563301641152108 $428 -10.073428234131583 $347 $432 forward 7 unknown #
coedge $-1 $433 $253 $431 $434 reversed $248 $-1 #
vertex $-1 $425 $435 #
vertex $-1 $348 $436 #
straight-curve $-1 69.078035828730123 12.725195609917446 97.982449165455748 0 0 1 I I #
vertex $-1 $255 $437 #
point $-1 67.111468775484425 17.852318316969832 6.5421429938193789 #
face $-1 $438 $439 $19 $-1 $440 reversed single #
plane-surface $-1 -4.1335262612388846 21.697660347259127 122.75333624094249 0.84804810408105047 0 0.52991925155115449 0.52991925155115449 0 -0.84804810408105047 forward_v I I I I #
coedge $-1 $441 $442 $443 $444 reversed $260 $-1 #
coedge $-1 $358 $358 $-1 $445 forward $262 $-1 #
edge $-1 $446 0 $446 6.2831853071796004 $263 $447 forward 7 unknown #
vertex $-1 $266 $448 #
ellipse-curve $-1 67.83309912521986 17.852318316969832 7.5826568639430292 -0.84804810408105047 0 -0.52991925155115449 0.26495962577557725 0 -0.42402405204052523 1 I I #
vertex $-1 $267 $449 #
point $-1 67.111468775484425 25.543002377548415 6.5421429938193789 #
loop $-1 $-1 $450 $259 #
straight-curve $-1 -69.078035828730123 30.670125084600802 0 0 0 -1 I I #
point $-1 -69.078035828730123 -30.670125084600802 -9.5749721233384921 #
straight-curve $-1 -69.078035828730123 0 -9.5749721233384921 0 1 0 I I #
point $-1 -69.078035828730123 30.670125084600802 -9.5749721233384921 #
loop $-1 $-1 $451 $288 #
plane-surface $-1 0 0 -9.5749721233384921 0 0 1 1 0 0 forward_v I I I I #
coedge $-1 $381 $389 $452 $453 forward $289 $-1 #
straight-curve $-1 -81.446607686428507 0 1.568302291866714 0 1 0 I I #
point $-1 -81.446607686428507 30.670125084600802 1.568302291866714 #
coedge $-1 $388 $295 $454 $455 reversed $221 $-1 #
point $-1 -81.446607686428507 -30.670125084600802 1.568302291866714 #
coedge $-1 $298 $307 $456 $457 reversed $216 $-1 #
coedge $-1 $456 $454 $300 $378 forward $369 $-1 #
edge $-1 $380 -30.670125084600802 $379 30.670125084600802 $300 $458 forward 7 unknown #
vertex $-1 $457 $459 #
vertex $-1 $378 $460 #
coedge $-1 $314 $371 $306 $382 forward $289 $-1 #
edge $-1 $461 -69.078035828730123 $318 69.078035828730123 $306 $462 forward 7 unknown #
coedge $-1 $452 $463 $307 $384 reversed $464 $-1 #
edge $-1 $461 -9.5749721233384921 $465 9.5749721233384921 $383 $466 forward 7 unknown #
face $-1 $-1 $464 $16 $-1 $467 reversed single #
plane-surface $-1 0 30.670125084600802 0 0 -1 0 0 0 -1 forward_v I I I I #
straight-curve $-1 -81.446607686428507 -30.670125084600802 4.1478787380837989 0 0 -1 I I #
coedge $-1 $311 $374 $468 $469 reversed $221 $-1 #
coedge $-1 $371 $314 $311 $390 forward $289 $-1 #
edge $-1 $316 -69.078035828730123 $470 69.078035828730123 $311 $471 forward 7 unknown #
plane-surface $-1 0 -30.670125084600802 0 0 1 0 0 0 1 forward_v I I I I #
straight-curve $-1 -69.078035828730123 0 9.5749721233384921 0 -1 0 I I #
point $-1 -69.078035828730123 -30.670125084600802 9.5749721233384921 #
point $-1 -69.078035828730123 30.670125084600802 9.5749721233384921 #
face $-1 $472 $473 $17 $-1 $474 reversed single #
loop $-1 $-1 $475 $320 #
plane-surface $-1 -81.446607686428507 0 4.1478787380837989 1 0 0 0 0 -1 forward_v I I I I #
coedge $-1 $476 $477 $478 $479 reversed $321 $-1 #
coedge $-1 $480 $323 $481 $482 forward $230 $-1 #
coedge $-1 $323 $480 $483 $484 forward $230 $-1 #
coedge $-1 $485 $486 $323 $402 forward $487 $-1 #
edge $-1 $488 -30.670125084600802 $489 30.670125084600802 $401 $490 forward 7 unknown #
coedge $-1 $491 $492 $324 $404 forward $493 $-1 #
edge $-1 $406 -30.670125084600802 $418 30.670125084600802 $324 $494 forward 7 unknown #
coedge $-1 $495 $325 $492 $496 reversed $329 $-1 #
vertex $-1 $404 $497 #
straight-curve $-1 69.078035828730123 30.670125084600802 0 0 0 -1 I I #
straight-curve $-1 66.588162421709598 10.848830173629564 9.5749721233384975 0 1 0 I I #
coedge $-1 $328 $481 $486 $498 reversed $329 $-1 #
edge $-1 $330 -66.588162421709598 $499 69.078035828730123 $328 $500 forward 7 unknown #
face $-1 $-1 $329 $17 $-1 $501 reversed single #
point $-1 66.588162421709598 30.670125084600809 9.5749721233384975 #
coedge $-1 $335 $334 $502 $503 forward $141 $-1 #
coedge $-1 $504 $336 $335 $415 reversed $417 $-1 #
edge $-1 $505 -69.078035828730123 $338 69.078035828730123 $414 $506 forward 7 unknown #
coedge $-1 $336 $507 $491 $508 reversed $417 $-1 #
loop $-1 $-1 $504 $509 #
vertex $-1 $337 $510 #
straight-curve $-1 69.078035828730123 -30.670125084600802 0 0 0 -1 I I #
point $-1 69.078035828730123 -30.670125084600802 9.5749721233384921 #
face $-1 $511 $512 $18 $-1 $513 reversed single #
loop $-1 $-1 $514 $340 #
plane-surface $-1 -75.262321757579315 0 6.7274551843008839 0 0 1 1 0 0 forward_v I I I I #
coedge $-1 $343 $515 $516 $517 reversed $248 $-1 #
edge $-1 $518 -19.82129491097124 $350 -1.8763654362878821 $343 $519 forward 7 unknown #
coedge $-1 $427 $344 $520 $521 reversed $250 $-1 #
coedge $-1 $345 $426 $430 $522 reversed $250 $-1 #
vertex $-1 $522 $523 #
straight-curve $-1 -4.1335262612388846 12.725195609917446 122.75333624094249 -0.52991925155115449 0 0.84804810408105047 I I #
coedge $-1 $524 $347 $427 $522 forward $341 $-1 #
coedge $-1 $347 $525 $349 $434 forward $341 $-1 #
straight-curve $-1 56.514734187578014 12.725195609917446 9.5749721233384975 -1 0 0 I I #
coedge $-1 $515 $349 $526 $527 forward $248 $-1 #
edge $-1 $528 -30.670125084600802 $351 12.725195609917446 $349 $529 forward 7 unknown #
point $-1 69.078035828730123 12.725195609917446 5.5903416045475751 #
point $-1 69.078035828730123 12.725195609917446 9.5749721233384921 #
point $-1 66.422485097668329 17.852318316969832 6.7012074200843275 #
face $-1 $530 $531 $19 $-1 $532 forward single #
loop $-1 $-1 $533 $355 #
plane-surface $-1 69.078035828730123 0 0 -1 0 0 0 0 1 forward_v I I I I #
coedge $-1 $442 $357 $534 $535 forward $260 $-1 #
coedge $-1 $357 $441 $536 $537 reversed $260 $-1 #
coedge $-1 $538 $533 $357 $444 forward $439 $-1 #
edge $-1 $539 -92.392107560908173 $540 -88.40747704211725 $443 $541 forward 7 unknown #
edge $-1 $542 1 $542 0 $358 $-1 forward 7 unknown #
vertex $-1 $359 $543 #
ellipse-curve $-1 66.846509149708851 17.852318316969832 6.9661670458599039 0.84804810408105047 0 0.52991925155115449 0.26495962577557725 0 -0.42402405204052523 1 I I #
point $-1 68.098058750995449 17.852318316969832 7.1586328119025122 #
point $-1 66.422485097668329 25.543002377548415 6.7012074200843275 #
coedge $-1 $544 $534 $533 $545 reversed $364 $-1 #
coedge $-1 $454 $456 $463 $546 forward $369 $-1 #
coedge $-1 $468 $383 $371 $453 reversed $464 $-1 #
edge $-1 $470 -30.670125084600802 $461 30.670125084600802 $452 $547 forward 7 unknown #
coedge $-1 $377 $451 $374 $455 forward $369 $-1 #
edge $-1 $548 -69.078035828730123 $380 69.078035828730123 $374 $549 forward 7 unknown #
coedge $-1 $451 $377 $376 $457 forward $369 $-1 #
edge $-1 $379 -69.078035828730123 $465 69.078035828730123 $376 $550 forward 7 unknown #
straight-curve $-1 -69.078035828730123 0 -9.5749721233384921 0 1 0 I I #
point $-1 -69.078035828730123 30.670125084600802 -9.5749721233384921 #
point $-1 -69.078035828730123 -30.670125084600802 -9.5749721233384921 #
vertex $-1 $453 $551 #
straight-curve $-1 0 30.670125084600802 9.5749721233384921 -1 0 0 I I #
coedge $-1 $383 $468 $451 $546 reversed $464 $-1 #
loop $-1 $-1 $468 $385 #
vertex $-1 $546 $552 #
straight-curve $-1 69.078035828730123 30.670125084600802 0 0 0 -1 I I #
plane-surface $-1 69.078035828730123 0 0 -1 0 0 0 0 1 forward_v I I I I #
coedge $-1 $463 $452 $388 $469 forward $464 $-1 #
edge $-1 $470 -9.5749721233384921 $548 9.5749721233384921 $468 $553 forward 7 unknown #
vertex $-1 $453 $554 #
straight-curve $-1 0 -30.670125084600802 9.5749721233384921 1 0 0 I I #
face $-1 $555 $487 $17 $-1 $474 reversed single #
loop $-1 $-1 $478 $395 #
plane-surface $-1 -69.078035828730123 0 0 1 0 0 0 0 -1 forward_v I I I I #
coedge $-1 $556 $557 $558 $559 forward $396 $-1 #
coedge $-1 $560 $398 $561 $562 forward $321 $-1 #
coedge $-1 $398 $560 $563 $564 forward $321 $-1 #
coedge $-1 $565 $566 $398 $479 forward $473 $-1 #
edge $-1 $567 -30.670125084600802 $568 30.670125084600802 $478 $569 forward 7 unknown #
coedge $-1 $400 $399 $557 $570 forward $230 $-1 #
coedge $-1 $409 $558 $399 $482 reversed $329 $-1 #
edge $-1 $488 -6.1842859288491923 $571 6.1842859288491923 $481 $572 forward 7 unknown #
coedge $-1 $573 $504 $400 $484 reversed $417 $-1 #
edge $-1 $574 -6.1842859288491923 $489 6.1842859288491923 $483 $575 forward 7 unknown #
coedge $-1 $502 $401 $504 $576 reversed $487 $-1 #
coedge $-1 $401 $502 $409 $498 forward $487 $-1 #
loop $-1 $-1 $401 $472 #
vertex $-1 $498 $577 #
vertex $-1 $484 $578 #
straight-curve $-1 -69.078035828730123 0 6.7274551843008839 0 -1 0 I I #
coedge $-1 $579 $403 $416 $508 forward $493 $-1 #
coedge $-1 $403 $579 $405 $496 forward $493 $-1 #
loop $-1 $-1 $403 $555 #
straight-curve $-1 69.078035828730123 0 -9.5749721233384921 0 -1 0 I I #
coedge $-1 $563 $405 $565 $580 reversed $329 $-1 #
edge $-1 $581 -69.078035828730123 $406 69.078035828730123 $405 $582 forward 7 unknown #
point $-1 69.078035828730123 30.670125084600802 -9.5749721233384921 #
edge $-1 $499 -9.5749721233384921 $488 -6.7274551843008839 $409 $583 forward 7 unknown #
vertex $-1 $410 $584 #
straight-curve $-1 0 30.670125084600802 9.5749721233384921 -1 0 0 I I #
plane-surface $-1 0 30.670125084600802 0 0 -1 0 0 0 -1 forward_v I I I I #
coedge $-1 $486 $485 $413 $503 reversed $487 $-1 #
edge $-1 $499 -30.670125084600802 $505 30.670125084600802 $502 $585 forward 7 unknown #
coedge $-1 $483 $414 $485 $576 forward $417 $-1 #
vertex $-1 $503 $586 #
straight-curve $-1 0 -30.670125084600802 9.5749721233384921 1 0 0 I I #
coedge $-1 $416 $561 $566 $587 forward $417 $-1 #
edge $-1 $418 -69.078035828730123 $588 69.078035828730123 $416 $589 forward 7 unknown #
face $-1 $411 $417 $17 $-1 $590 reversed single #
point $-1 69.078035828730123 -30.670125084600802 -9.5749721233384921 #
face $-1 $591 $592 $18 $-1 $593 reversed single #
loop $-1 $-1 $594 $421 #
plane-surface $-1 -75.262321757579315 0 1.568302291866714 0 0 1 1 0 0 forward_v I I I I #
coedge $-1 $595 $596 $597 $598 reversed $422 $-1 #
coedge $-1 $424 $433 $599 $600 reversed $248 $-1 #
coedge $-1 $601 $520 $424 $517 forward $602 $-1 #
edge $-1 $518 -5.5903416045475716 $603 9.5749721233384921 $424 $604 forward 7 unknown #
vertex $-1 $517 $605 #
straight-curve $-1 69.078035828730123 10.848830173629564 5.590341604547568 0 -1 0 I I #
coedge $-1 $516 $606 $426 $521 forward $602 $-1 #
edge $-1 $607 80.311896842541799 $518 85.010487051771378 $520 $608 forward 7 unknown #
edge $-1 $428 1.8763654362878821 $607 19.821294910971247 $430 $609 forward 7 unknown #
point $-1 66.588162421709598 12.725195609917446 9.5749721233384975 #
coedge $-1 $610 $430 $606 $611 forward $341 $-1 #
coedge $-1 $431 $610 $612 $613 forward $341 $-1 #
coedge $-1 $612 $614 $433 $527 reversed $615 $-1 #
edge $-1 $528 -9.5749721233384921 $616 9.5749721233384921 $433 $617 forward 7 unknown #
vertex $-1 $434 $618 #
straight-curve $-1 69.078035828730123 0 9.5749721233384921 0 1 0 I I #
face $-1 $619 $620 $19 $-1 $621 forward single #
loop $-1 $-1 $536 $438 #
plane-surface $-1 0 0 9.5749721233384921 0 0 1 1 0 0 forward_v I I I I #
coedge $-1 $443 $622 $450 $545 forward $439 $-1 #
coedge $-1 $450 $623 $441 $535 reversed $364 $-1 #
edge $-1 $539 -138.15607165746025 $624 -133.45748144823068 $441 $625 forward 7 unknown #
coedge $-1 $626 $627 $442 $537 forward $531 $-1 #
edge $-1 $540 -12.563301641152108 $624 -10.073428234131583 $536 $628 forward 7 unknown #
coedge $-1 $629 $443 $627 $630 reversed $439 $-1 #
vertex $-1 $545 $631 #
vertex $-1 $537 $632 #
straight-curve $-1 69.078035828730123 12.725195609917446 97.982449165455748 0 0 1 I I #
vertex $-1 $445 $633 #
point $-1 67.111468775484425 17.852318316969832 6.5421429938193789 #
coedge $-1 $623 $450 $634 $635 reversed $364 $-1 #
edge $-1 $636 -19.82129491097124 $539 -1.8763654362878821 $533 $637 forward 7 unknown #
edge $-1 $465 -30.670125084600802 $548 30.670125084600802 $463 $638 forward 7 unknown #
straight-curve $-1 69.078035828730123 0 9.5749721233384921 0 1 0 I I #
vertex $-1 $469 $639 #
straight-curve $-1 0 -30.670125084600802 -9.5749721233384921 -1 0 0 I I #
straight-curve $-1 0 30.670125084600802 -9.5749721233384921 1 0 0 I I #
point $-1 69.078035828730123 30.670125084600802 9.5749721233384921 #
point $-1 69.078035828730123 30.670125084600802 -9.5749721233384921 #
straight-curve $-1 69.078035828730123 -30.670125084600802 0 0 0 -1 I I #
point $-1 69.078035828730123 -30.670125084600802 9.5749721233384921 #
face $-1 $509 $493 $17 $-1 $640 reversed single #
coedge $-1 $641 $475 $560 $642 reversed $396 $-1 #
coedge $-1 $475 $641 $480 $570 reversed $396 $-1 #
coedge $-1 $481 $563 $475 $559 reversed $329 $-1 #
edge $-1 $571 -2.5795764462170849 $643 2.5795764462170849 $558 $644 forward 7 unknown #
coedge $-1 $477 $476 $556 $642 forward $321 $-1 #
coedge $-1 $507 $573 $476 $562 reversed $417 $-1 #
edge $-1 $567 -6.1842859288491923 $645 6.1842859288491923 $561 $646 forward 7 unknown #
coedge $-1 $558 $495 $477 $564 reversed $329 $-1 #
edge $-1 $643 -6.1842859288491923 $568 6.1842859288491923 $563 $647 forward 7 unknown #
coedge $-1 $648 $478 $495 $580 forward $473 $-1 #
coedge $-1 $478 $648 $507 $587 reversed $473 $-1 #
vertex $-1 $587 $649 #
vertex $-1 $580 $650 #
straight-curve $-1 -69.078035828730123 0 1.568302291866714 0 1 0 I I #
edge $-1 $571 -30.670125084600802 $574 30.670125084600802 $557 $651 forward 7 unknown #
vertex $-1 $482 $652 #
straight-curve $-1 -75.262321757579315 30.670125084600802 6.7274551843008839 -1 0 0 I I #
coedge $-1 $561 $483 $641 $653 forward $417 $-1 #
vertex $-1 $570 $654 #
straight-curve $-1 -75.262321757579315 -30.670125084600802 6.7274551843008839 1 0 0 I I #
edge $-1 $505 -9.5749721233384921 $489 -6.7274551843008839 $485 $655 forward 7 unknown #
point $-1 -69.078035828730123 30.670125084600802 6.7274551843008839 #
point $-1 -69.078035828730123 -30.670125084600802 6.7274551843008839 #
coedge $-1 $492 $491 $648 $656 forward $493 $-1 #
edge $-1 $568 -1.568302291866714 $581 9.5749721233384921 $495 $583 forward 7 unknown #
vertex $-1 $496 $657 #
straight-curve $-1 0 30.670125084600802 -9.5749721233384921 1 0 0 I I #
straight-curve $-1 -69.078035828730123 30.670125084600802 0 0 0 -1 I I #
point $-1 -69.078035828730123 30.670125084600802 9.5749721233384921 #
straight-curve $-1 -69.078035828730123 0 9.5749721233384921 0 -1 0 I I #
point $-1 -69.078035828730123 -30.670125084600802 9.5749721233384921 #
edge $-1 $567 -1.568302291866714 $588 9.5749721233384921 $566 $655 forward 7 unknown #
vertex $-1 $656 $658 #
straight-curve $-1 0 -30.670125084600802 -9.5749721233384921 -1 0 0 I I #
plane-surface $-1 0 -30.670125084600802 0 0 1 0 0 0 1 forward_v I I I I #
face $-1 $659 $660 $18 $-1 $661 reversed single #
loop $-1 $-1 $662 $511 #
plane-surface $-1 -81.446607686428507 0 4.1478787380837989 1 0 0 0 0 -1 forward_v I I I I #
coedge $-1 $663 $664 $665 $666 reversed $512 $-1 #
coedge $-1 $667 $514 $668 $669 forward $422 $-1 #
coedge $-1 $514 $667 $670 $671 forward $422 $-1 #
coedge $-1 $672 $673 $514 $598 forward $674 $-1 #
edge $-1 $675 -30.670125084600802 $676 30.670125084600802 $597 $677 forward 7 unknown #
coedge $-1 $678 $679 $515 $600 forward $680 $-1 #
edge $-1 $603 -30.670125084600802 $616 30.670125084600802 $515 $681 forward 7 unknown #
coedge $-1 $682 $516 $679 $683 reversed $602 $-1 #
loop $-1 $-1 $520 $684 #
vertex $-1 $600 $685 #
straight-curve $-1 69.078035828730123 30.670125084600802 0 0 0 -1 I I #
point $-1 69.078035828730123 30.670125084600802 5.5903416045475716 #
coedge $-1 $520 $686 $524 $611 reversed $602 $-1 #
vertex $-1 $611 $687 #
straight-curve $-1 24.02934215625632 30.670125084600802 77.683323975808975 0.52991925155115449 0 -0.84804810408105047 I I #
straight-curve $-1 66.588162421709598 10.848830173629564 9.5749721233384975 0 1 0 I I #
coedge $-1 $525 $524 $688 $689 forward $341 $-1 #
edge $-1 $607 -66.588162421709598 $690 69.078035828730123 $606 $691 forward 7 unknown #
coedge $-1 $692 $526 $525 $613 reversed $615 $-1 #
edge $-1 $693 -69.078035828730123 $528 69.078035828730123 $612 $694 forward 7 unknown #
coedge $-1 $526 $695 $678 $696 reversed $615 $-1 #
loop $-1 $-1 $692 $697 #
vertex $-1 $527 $698 #
straight-curve $-1 69.078035828730123 -30.670125084600802 0 0 0 -1 I I #
point $-1 69.078035828730123 -30.670125084600802 9.5749721233384921 #
face $-1 $699 $700 $19 $-1 $701 reversed single #
loop $-1 $-1 $702 $530 #
plane-surface $-1 -75.262321757579315 0 6.7274551843008839 0 0 1 1 0 0 forward_v I I I I #
coedge $-1 $533 $703 $704 $705 reversed $439 $-1 #
coedge $-1 $534 $544 $626 $706 reversed $364 $-1 #
vertex $-1 $706 $707 #
straight-curve $-1 -4.1335262612388846 12.725195609917446 122.75333624094249 -0.52991925155115449 0 0.84804810408105047 I I #
coedge $-1 $708 $536 $623 $706 forward $531 $-1 #
coedge $-1 $536 $709 $538 $630 forward $531 $-1 #
straight-curve $-1 56.514734187578014 12.725195609917446 9.5749721233384975 -1 0 0 I I #
coedge $-1 $703 $538 $710 $711 forward $439 $-1 #
edge $-1 $712 -30.670125084600802 $540 12.725195609917446 $538 $713 forward 7 unknown #
point $-1 69.078035828730123 12.725195609917446 5.5903416045475751 #
point $-1 69.078035828730123 12.725195609917446 9.5749721233384921 #
point $-1 66.422485097668329 17.852318316969832 6.7012074200843275 #
coedge $-1 $704 $714 $544 $635 forward $715 $-1 #
edge $-1 $716 80.311896842541799 $636 85.010487051771378 $634 $717 forward 7 unknown #
vertex $-1 $705 $718 #
straight-curve $-1 69.078035828730123 10.848830173629564 5.590341604547568 0 -1 0 I I #
straight-curve $-1 69.078035828730123 0 -9.5749721233384921 0 -1 0 I I #
point $-1 69.078035828730123 -30.670125084600802 -9.5749721233384921 #
plane-surface $-1 0 0 -9.5749721233384921 0 0 1 1 0 0 forward_v I I I I #
coedge $-1 $557 $556 $573 $653 reversed $396 $-1 #
edge $-1 $645 -30.670125084600802 $643 30.670125084600802 $556 $719 forward 7 unknown #
vertex $-1 $564 $720 #
straight-curve $-1 -81.446607686428507 30.670125084600802 4.1478787380837989 0 0 -1 I I #
vertex $-1 $642 $721 #
straight-curve $-1 -75.262321757579315 -30.670125084600802 1.568302291866714 -1 0 0 I I #
straight-curve $-1 -75.262321757579315 30.670125084600802 1.568302291866714 1 0 0 I I #
coedge $-1 $566 $565 $579 $656 reversed $473 $-1 #
point $-1 -69.078035828730123 -30.670125084600802 1.568302291866714 #
point $-1 -69.078035828730123 30.670125084600802 1.568302291866714 #
straight-curve $-1 -81.446607686428507 0 6.7274551843008839 0 -1 0 I I #
point $-1 -81.446607686428507 30.670125084600802 6.7274551843008839 #
edge $-1 $574 -2.5795764462170849 $645 2.5795764462170849 $641 $722 forward 7 unknown #
point $-1 -81.446607686428507 -30.670125084600802 6.7274551843008839 #
straight-curve $-1 -69.078035828730123 -30.670125084600802 0 0 0 -1 I I #
edge $-1 $588 -30.670125084600802 $581 30.670125084600802 $648 $723 forward 7 unknown #
point $-1 -69.078035828730123 30.670125084600802 -9.5749721233384921 #
point $-1 -69.078035828730123 -30.670125084600802 -9.5749721233384921 #
face $-1 $724 $674 $18 $-1 $661 reversed single #
loop $-1 $-1 $665 $591 #
plane-surface $-1 -69.078035828730123 0 0 1 0 0 0 0 -1 forward_v I I I I #
coedge $-1 $725 $726 $727 $728 forward $592 $-1 #
coedge $-1 $729 $594 $730 $731 forward $512 $-1 #
coedge $-1 $594 $729 $732 $733 forward $512 $-1 #
coedge $-1 $734 $735 $594 $666 forward $660 $-1 #
edge $-1 $736 -30.670125084600802 $737 30.670125084600802 $665 $738 forward 7 unknown #
coedge $-1 $596 $595 $726 $739 forward $422 $-1 #
coedge $-1 $686 $727 $595 $669 reversed $602 $-1 #
edge $-1 $675 -6.1842859288491923 $740 6.1842859288491923 $668 $741 forward 7 unknown #
coedge $-1 $742 $692 $596 $671 reversed $615 $-1 #
edge $-1 $743 -6.1842859288491923 $676 6.1842859288491923 $670 $744 forward 7 unknown #
coedge $-1 $688 $597 $692 $745 reversed $674 $-1 #
coedge $-1 $597 $688 $686 $746 forward $674 $-1 #
loop $-1 $-1 $597 $659 #
vertex $-1 $746 $747 #
vertex $-1 $671 $748 #
straight-curve $-1 -69.078035828730123 0 6.7274551843008839 0 -1 0 I I #
coedge $-1 $749 $599 $614 $696 forward $680 $-1 #
coedge $-1 $599 $749 $601 $683 forward $680 $-1 #
loop $-1 $-1 $599 $724 #
straight-curve $-1 69.078035828730123 0 -9.5749721233384921 0 -1 0 I I #
coedge $-1 $732 $601 $734 $750 reversed $602 $-1 #
edge $-1 $751 -69.078035828730123 $603 69.078035828730123 $601 $752 forward 7 unknown #
face $-1 $-1 $602 $18 $-1 $753 reversed single #
point $-1 69.078035828730123 30.670125084600802 -9.5749721233384921 #
coedge $-1 $606 $668 $673 $746 reversed $602 $-1 #
point $-1 66.588162421709598 30.670125084600809 9.5749721233384975 #
coedge $-1 $673 $672 $610 $689 reversed $674 $-1 #
edge $-1 $690 -30.670125084600802 $693 30.670125084600802 $688 $754 forward 7 unknown #
vertex $-1 $611 $755 #
straight-curve $-1 0 30.670125084600802 9.5749721233384921 -1 0 0 I I #
coedge $-1 $670 $612 $672 $745 forward $615 $-1 #
vertex $-1 $689 $756 #
straight-curve $-1 0 -30.670125084600802 9.5749721233384921 1 0 0 I I #
coedge $-1 $614 $730 $735 $757 forward $615 $-1 #
edge $-1 $616 -69.078035828730123 $758 69.078035828730123 $614 $759 forward 7 unknown #
face $-1 $684 $615 $18 $-1 $760 reversed single #
point $-1 69.078035828730123 -30.670125084600802 -9.5749721233384921 #
face $-1 $761 $762 $19 $-1 $763 reversed single #
loop $-1 $-1 $764 $619 #
plane-surface $-1 -75.262321757579315 0 1.568302291866714 0 0 1 1 0 0 forward_v I I I I #
coedge $-1 $765 $766 $767 $768 reversed $620 $-1 #
coedge $-1 $622 $629 $769 $770 reversed $439 $-1 #
coedge $-1 $771 $634 $622 $705 forward $715 $-1 #
edge $-1 $636 -5.5903416045475716 $772 9.5749721233384921 $622 $773 forward 7 unknown #
edge $-1 $624 1.8763654362878821 $716 19.821294910971247 $626 $774 forward 7 unknown #
point $-1 66.588162421709598 12.725195609917446 9.5749721233384975 #
coedge $-1 $775 $626 $714 $776 forward $531 $-1 #
coedge $-1 $627 $775 $777 $778 forward $531 $-1 #
coedge $-1 $777 $779 $629 $711 reversed $780 $-1 #
edge $-1 $712 -9.5749721233384921 $781 9.5749721233384921 $629 $782 forward 7 unknown #
vertex $-1 $630 $783 #
straight-curve $-1 69.078035828730123 0 9.5749721233384921 0 1 0 I I #
coedge $-1 $634 $784 $708 $776 reversed $715 $-1 #
loop $-1 $-1 $634 $785 #
vertex $-1 $776 $786 #
straight-curve $-1 24.02934215625632 30.670125084600802 77.683323975808975 0.52991925155115449 0 -0.84804810408105047 I I #
point $-1 69.078035828730123 30.670125084600802 5.5903416045475716 #
straight-curve $-1 -81.446607686428507 0 1.568302291866714 0 1 0 I I #
point $-1 -81.446607686428507 30.670125084600802 1.568302291866714 #
point $-1 -81.446607686428507 -30.670125084600802 1.568302291866714 #
straight-curve $-1 -81.446607686428507 -30.670125084600802 4.1478787380837989 0 0 -1 I I #
straight-curve $-1 -69.078035828730123 0 -9.5749721233384921 0 1 0 I I #
face $-1 $697 $680 $18 $-1 $787 reversed single #
coedge $-1 $788 $662 $729 $789 reversed $592 $-1 #
coedge $-1 $662 $788 $667 $739 reversed $592 $-1 #
coedge $-1 $668 $732 $662 $728 reversed $602 $-1 #
edge $-1 $740 -2.5795764462170849 $790 2.5795764462170849 $727 $791 forward 7 unknown #
coedge $-1 $664 $663 $725 $789 forward $512 $-1 #
coedge $-1 $695 $742 $663 $731 reversed $615 $-1 #
edge $-1 $736 -6.1842859288491923 $792 6.1842859288491923 $730 $793 forward 7 unknown #
coedge $-1 $727 $682 $664 $733 reversed $602 $-1 #
edge $-1 $790 -6.1842859288491923 $737 6.1842859288491923 $732 $794 forward 7 unknown #
coedge $-1 $795 $665 $682 $750 forward $660 $-1 #
coedge $-1 $665 $795 $695 $757 reversed $660 $-1 #
vertex $-1 $757 $796 #
vertex $-1 $750 $797 #
straight-curve $-1 -69.078035828730123 0 1.568302291866714 0 1 0 I I #
edge $-1 $740 -30.670125084600802 $743 30.670125084600802 $726 $798 forward 7 unknown #
vertex $-1 $669 $799 #
straight-curve $-1 -75.262321757579315 30.670125084600802 6.7274551843008839 -1 0 0 I I #
coedge $-1 $730 $670 $788 $800 forward $615 $-1 #
vertex $-1 $739 $801 #
straight-curve $-1 -75.262321757579315 -30.670125084600802 6.7274551843008839 1 0 0 I I #
edge $-1 $693 -9.5749721233384921 $676 -6.7274551843008839 $672 $802 forward 7 unknown #
edge $-1 $690 -9.5749721233384921 $675 -6.7274551843008839 $686 $803 forward 7 unknown #
point $-1 -69.078035828730123 30.670125084600802 6.7274551843008839 #
point $-1 -69.078035828730123 -30.670125084600802 6.7274551843008839 #
coedge $-1 $679 $678 $795 $804 forward $680 $-1 #
edge $-1 $737 -1.568302291866714 $751 9.5749721233384921 $682 $803 forward 7 unknown #
vertex $-1 $683 $805 #
straight-curve $-1 0 30.670125084600802 -9.5749721233384921 1 0 0 I I #
plane-surface $-1 0 30.670125084600802 0 0 -1 0 0 0 -1 forward_v I I I I #
straight-curve $-1 -69.078035828730123 0 9.5749721233384921 0 -1 0 I I #
point $-1 -69.078035828730123 30.670125084600802 9.5749721233384921 #
point $-1 -69.078035828730123 -30.670125084600802 9.5749721233384921 #
edge $-1 $736 -1.568302291866714 $758 9.5749721233384921 $735 $802 forward 7 unknown #
vertex $-1 $804 $806 #
straight-curve $-1 0 -30.670125084600802 -9.5749721233384921 -1 0 0 I I #
plane-surface $-1 0 -30.670125084600802 0 0 1 0 0 0 1 forward_v I I I I #
face $-1 $807 $808 $19 $-1 $809 reversed single #
loop $-1 $-1 $810 $699 #
plane-surface $-1 -81.446607686428507 0 4.1478787380837989 1 0 0 0 0 -1 forward_v I I I I #
coedge $-1 $811 $812 $813 $814 reversed $700 $-1 #
coedge $-1 $815 $702 $816 $817 forward $620 $-1 #
coedge $-1 $702 $815 $818 $819 forward $620 $-1 #
coedge $-1 $820 $821 $702 $768 forward $822 $-1 #
edge $-1 $823 -30.670125084600802 $824 30.670125084600802 $767 $825 forward 7 unknown #
coedge $-1 $826 $827 $703 $770 forward $828 $-1 #
edge $-1 $772 -30.670125084600802 $781 30.670125084600802 $703 $829 forward 7 unknown #
coedge $-1 $830 $704 $827 $831 reversed $715 $-1 #
vertex $-1 $770 $832 #
straight-curve $-1 69.078035828730123 30.670125084600802 0 0 0 -1 I I #
straight-curve $-1 66.588162421709598 10.848830173629564 9.5749721233384975 0 1 0 I I #
coedge $-1 $709 $708 $833 $834 forward $531 $-1 #
edge $-1 $716 -66.588162421709598 $835 69.078035828730123 $714 $836 forward 7 unknown #
coedge $-1 $837 $710 $709 $778 reversed $780 $-1 #
edge $-1 $838 -69.078035828730123 $712 69.078035828730123 $777 $839 forward 7 unknown #
coedge $-1 $710 $840 $826 $841 reversed $780 $-1 #
loop $-1 $-1 $837 $842 #
vertex $-1 $711 $843 #
straight-curve $-1 69.078035828730123 -30.670125084600802 0 0 0 -1 I I #
point $-1 69.078035828730123 -30.670125084600802 9.5749721233384921 #
coedge $-1 $714 $816 $821 $844 reversed $715 $-1 #
face $-1 $-1 $715 $19 $-1 $845 reversed single #
point $-1 66.588162421709598 30.670125084600809 9.5749721233384975 #
plane-surface $-1 0 0 -9.5749721233384921 0 0 1 1 0 0 forward_v I I I I #
coedge $-1 $726 $725 $742 $800 reversed $592 $-1 #
edge $-1 $792 -30.670125084600802 $790 30.670125084600802 $725 $846 forward 7 unknown #
vertex $-1 $733 $847 #
straight-curve $-1 -81.446607686428507 30.670125084600802 4.1478787380837989 0 0 -1 I I #
vertex $-1 $789 $848 #
straight-curve $-1 -75.262321757579315 -30.670125084600802 1.568302291866714 -1 0 0 I I #
straight-curve $-1 -75.262321757579315 30.670125084600802 1.568302291866714 1 0 0 I I #
coedge $-1 $735 $734 $749 $804 reversed $660 $-1 #
point $-1 -69.078035828730123 -30.670125084600802 1.568302291866714 #
point $-1 -69.078035828730123 30.670125084600802 1.568302291866714 #
straight-curve $-1 -81.446607686428507 0 6.7274551843008839 0 -1 0 I I #
point $-1 -81.446607686428507 30.670125084600802 6.7274551843008839 #
edge $-1 $743 -2.5795764462170849 $792 2.5795764462170849 $788 $849 forward 7 unknown #
point $-1 -81.446607686428507 -30.670125084600802 6.7274551843008839 #
straight-curve $-1 -69.078035828730123 -30.670125084600802 0 0 0 -1 I I #
straight-curve $-1 -69.078035828730123 30.670125084600802 0 0 0 -1 I I #
edge $-1 $758 -30.670125084600802 $751 30.670125084600802 $795 $850 forward 7 unknown #
point $-1 -69.078035828730123 30.670125084600802 -9.5749721233384921 #
point $-1 -69.078035828730123 -30.670125084600802 -9.5749721233384921 #
face $-1 $851 $822 $19 $-1 $809 reversed single #
loop $-1 $-1 $813 $761 #
plane-surface $-1 -69.078035828730123 0 0 1 0 0 0 0 -1 forward_v I I I I #
coedge $-1 $852 $853 $854 $855 forward $762 $-1 #
coedge $-1 $856 $764 $857 $858 forward $700 $-1 #
coedge $-1 $764 $856 $859 $860 forward $700 $-1 #
coedge $-1 $861 $862 $764 $814 forward $808 $-1 #
edge $-1 $863 -30.670125084600802 $864 30.670125084600802 $813 $865 forward 7 unknown #
coedge $-1 $766 $765 $853 $866 forward $620 $-1 #
coedge $-1 $784 $854 $765 $817 reversed $715 $-1 #
edge $-1 $823 -6.1842859288491923 $867 6.1842859288491923 $816 $868 forward 7 unknown #
coedge $-1 $869 $837 $766 $819 reversed $780 $-1 #
edge $-1 $870 -6.1842859288491923 $824 6.1842859288491923 $818 $871 forward 7 unknown #
coedge $-1 $833 $767 $837 $872 reversed $822 $-1 #
coedge $-1 $767 $833 $784 $844 forward $822 $-1 #
loop $-1 $-1 $767 $807 #
vertex $-1 $844 $873 #
vertex $-1 $819 $874 #
straight-curve $-1 -69.078035828730123 0 6.7274551843008839 0 -1 0 I I #
coedge $-1 $875 $769 $779 $841 forward $828 $-1 #
coedge $-1 $769 $875 $771 $831 forward $828 $-1 #
loop $-1 $-1 $769 $851 #
straight-curve $-1 69.078035828730123 0 -9.5749721233384921 0 -1 0 I I #
coedge $-1 $859 $771 $861 $876 reversed $715 $-1 #
edge $-1 $877 -69.078035828730123 $772 69.078035828730123 $771 $878 forward 7 unknown #
point $-1 69.078035828730123 30.670125084600802 -9.5749721233384921 #
coedge $-1 $821 $820 $775 $834 reversed $822 $-1 #
edge $-1 $835 -30.670125084600802 $838 30.670125084600802 $833 $879 forward 7 unknown #
vertex $-1 $776 $880 #
straight-curve $-1 0 30.670125084600802 9.5749721233384921 -1 0 0 I I #
coedge $-1 $818 $777 $820 $872 forward $780 $-1 #
vertex $-1 $834 $881 #
straight-curve $-1 0 -30.670125084600802 9.5749721233384921 1 0 0 I I #
coedge $-1 $779 $857 $862 $882 forward $780 $-1 #
edge $-1 $781 -69.078035828730123 $883 69.078035828730123 $779 $884 forward 7 unknown #
face $-1 $785 $780 $19 $-1 $885 reversed single #
point $-1 69.078035828730123 -30.670125084600802 -9.5749721233384921 #
edge $-1 $835 -9.5749721233384921 $823 -6.7274551843008839 $784 $886 forward 7 unknown #
plane-surface $-1 0 30.670125084600802 0 0 -1 0 0 0 -1 forward_v I I I I #
straight-curve $-1 -81.446607686428507 0 1.568302291866714 0 1 0 I I #
point $-1 -81.446607686428507 30.670125084600802 1.568302291866714 #
point $-1 -81.446607686428507 -30.670125084600802 1.568302291866714 #
straight-curve $-1 -81.446607686428507 -30.670125084600802 4.1478787380837989 0 0 -1 I I #
straight-curve $-1 -69.078035828730123 0 -9.5749721233384921 0 1 0 I I #
face $-1 $842 $828 $19 $-1 $887 reversed single #
coedge $-1 $888 $810 $856 $889 reversed $762 $-1 #
coedge $-1 $810 $888 $815 $866 reversed $762 $-1 #
coedge $-1 $816 $859 $810 $855 reversed $715 $-1 #
edge $-1 $867 -2.5795764462170849 $890 2.5795764462170849 $854 $891 forward 7 unknown #
coedge $-1 $812 $811 $852 $889 forward $700 $-1 #
coedge $-1 $840 $869 $811 $858 reversed $780 $-1 #
edge $-1 $863 -6.1842859288491923 $892 6.1842859288491923 $857 $893 forward 7 unknown #
coedge $-1 $854 $830 $812 $860 reversed $715 $-1 #
edge $-1 $890 -6.1842859288491923 $864 6.1842859288491923 $859 $894 forward 7 unknown #
coedge $-1 $895 $813 $830 $876 forward $808 $-1 #
coedge $-1 $813 $895 $840 $882 reversed $808 $-1 #
vertex $-1 $882 $896 #
vertex $-1 $876 $897 #
straight-curve $-1 -69.078035828730123 0 1.568302291866714 0 1 0 I I #
edge $-1 $867 -30.670125084600802 $870 30.670125084600802 $853 $898 forward 7 unknown #
vertex $-1 $817 $899 #
straight-curve $-1 -75.262321757579315 30.670125084600802 6.7274551843008839 -1 0 0 I I #
coedge $-1 $857 $818 $888 $900 forward $780 $-1 #
vertex $-1 $866 $901 #
straight-curve $-1 -75.262321757579315 -30.670125084600802 6.7274551843008839 1 0 0 I I #
edge $-1 $838 -9.5749721233384921 $824 -6.7274551843008839 $820 $902 forward 7 unknown #
point $-1 -69.078035828730123 30.670125084600802 6.7274551843008839 #
point $-1 -69.078035828730123 -30.670125084600802 6.7274551843008839 #
coedge $-1 $827 $826 $895 $903 forward $828 $-1 #
edge $-1 $864 -1.568302291866714 $877 9.5749721233384921 $830 $886 forward 7 unknown #
vertex $-1 $831 $904 #
straight-curve $-1 0 30.670125084600802 -9.5749721233384921 1 0 0 I I #
straight-curve $-1 -69.078035828730123 0 9.5749721233384921 0 -1 0 I I #
point $-1 -69.078035828730123 30.670125084600802 9.5749721233384921 #
point $-1 -69.078035828730123 -30.670125084600802 9.5749721233384921 #
edge $-1 $863 -1.568302291866714 $883 9.5749721233384921 $862 $902 forward 7 unknown #
vertex $-1 $903 $905 #
straight-curve $-1 0 -30.670125084600802 -9.5749721233384921 -1 0 0 I I #
plane-surface $-1 0 -30.670125084600802 0 0 1 0 0 0 1 forward_v I I I I #
straight-curve $-1 -69.078035828730123 30.670125084600802 0 0 0 -1 I I #
plane-surface $-1 0 0 -9.5749721233384921 0 0 1 1 0 0 forward_v I I I I #
coedge $-1 $853 $852 $869 $900 reversed $762 $-1 #
edge $-1 $892 -30.670125084600802 $890 30.670125084600802 $852 $906 forward 7 unknown #
vertex $-1 $860 $907 #
straight-curve $-1 -81.446607686428507 30.670125084600802 4.1478787380837989 0 0 -1 I I #
vertex $-1 $889 $908 #
straight-curve $-1 -75.262321757579315 -30.670125084600802 1.568302291866714 -1 0 0 I I #
straight-curve $-1 -75.262321757579315 30.670125084600802 1.568302291866714 1 0 0 I I #
coedge $-1 $862 $861 $875 $903 reversed $808 $-1 #
point $-1 -69.078035828730123 -30.670125084600802 1.568302291866714 #
point $-1 -69.078035828730123 30.670125084600802 1.568302291866714 #
straight-curve $-1 -81.446607686428507 0 6.7274551843008839 0 -1 0 I I #
point $-1 -81.446607686428507 30.670125084600802 6.7274551843008839 #
edge $-1 $870 -2.5795764462170849 $892 2.5795764462170849 $888 $909 forward 7 unknown #
point $-1 -81.446607686428507 -30.670125084600802 6.7274551843008839 #
straight-curve $-1 -69.078035828730123 -30.670125084600802 0 0 0 -1 I I #
edge $-1 $883 -30.670125084600802 $877 30.670125084600802 $895 $910 forward 7 unknown #
point $-1 -69.078035828730123 30.670125084600802 -9.5749721233384921 #
point $-1 -69.078035828730123 -30.670125084600802 -9.5749721233384921 #
straight-curve $-1 -81.446607686428507 0 1.568302291866714 0 1 0 I I #
point $-1 -81.446607686428507 30.670125084600802 1.568302291866714 #
point $-1 -81.446607686428507 -30.670125084600802 1.568302291866714 #
straight-curve $-1 -81.446607686428507 -30.670125084600802 4.1478787380837989 0 0 -1 I I #
straight-curve $-1 -69.078035828730123 0 -9.5749721233384921 0 1 0 I I #
End-of-ACIS-data 