500 0 18 0           
7 Unknown 11 ACIS 5.0 NT 24 Thu Mar 25 18:49:13 1999 
-1 9.9999999999999995e-007 1e-010 
body $-1 $18 $-1 $19 #
body $-1 $20 $-1 $21 #
body $-1 $22 $-1 $23 #
body $-1 $24 $-1 $25 #
body $-1 $26 $-1 $27 #
body $-1 $28 $-1 $29 #
body $-1 $30 $-1 $31 #
body $-1 $32 $-1 $33 #
body $-1 $34 $-1 $35 #
body $-1 $36 $-1 $37 #
body $-1 $38 $-1 $39 #
body $-1 $40 $-1 $41 #
body $-1 $42 $-1 $43 #
body $-1 $44 $-1 $45 #
body $-1 $46 $-1 $47 #
body $-1 $48 $-1 $49 #
body $-1 $50 $-1 $51 #
body $-1 $52 $-1 $53 #
lump $-1 $-1 $54 $0 #
transform $-1 1 0 0 0 1 0 0 0 1 61.804864650410479 36.812061569145818 17.709716939528917 1 rotate no_reflect no_shear #
lump $-1 $-1 $55 $1 #
transform $-1 1 0 0 0 1 0 0 0 1 61.804864650410479 36.812061569145818 17.709716939528917 1 rotate no_reflect no_shear #
lump $-1 $-1 $56 $2 #
transform $-1 1 0 0 0 1 0 0 0 1 61.804864650410479 36.812061569145818 17.709716939528917 1 rotate no_reflect no_shear #
lump $-1 $-1 $57 $3 #
transform $-1 1 0 0 0 1 0 0 0 1 61.804864650410479 36.812061569145818 17.709716939528917 1 rotate no_reflect no_shear #
lump $-1 $-1 $58 $4 #
transform $-1 1 0 0 0 1 0 0 0 1 61.804864650410479 36.812061569145818 17.709716939528917 1 rotate no_reflect no_shear #
lump $-1 $-1 $59 $5 #
transform $-1 1 0 0 0 1 0 0 0 1 61.804864650410479 36.812061569145818 17.709716939528917 1 rotate no_reflect no_shear #
lump $-1 $-1 $60 $6 #
transform $-1 1 0 0 0 1 0 0 0 1 61.804864650410479 36.812061569145818 17.709716939528917 1 rotate no_reflect no_shear #
lump $-1 $-1 $61 $7 #
transform $-1 1 0 0 0 1 0 0 0 1 61.804864650410479 36.812061569145818 17.709716939528917 1 rotate no_reflect no_shear #
lump $-1 $-1 $62 $8 #
transform $-1 1 0 0 0 1 0 0 0 1 61.804864650410479 36.812061569145818 17.709716939528917 1 rotate no_reflect no_shear #
lump $-1 $-1 $63 $9 #
transform $-1 1 0 0 0 1 0 0 0 1 61.804864650410479 36.812061569145818 17.709716939528917 1 rotate no_reflect no_shear #
lump $-1 $-1 $64 $10 #
transform $-1 1 0 0 0 1 0 0 0 1 61.804864650410479 36.812061569145818 17.709716939528917 1 rotate no_reflect no_shear #
lump $-1 $-1 $65 $11 #
transform $-1 1 0 0 0 1 0 0 0 1 61.804864650410479 36.812061569145818 17.709716939528917 1 rotate no_reflect no_shear #
lump $-1 $-1 $66 $12 #
transform $-1 1 0 0 0 1 0 0 0 1 61.804864650410479 36.812061569145818 17.709716939528917 1 rotate no_reflect no_shear #
lump $-1 $-1 $67 $13 #
transform $-1 1 0 0 0 1 0 0 0 1 61.804864650410479 36.812061569145818 17.709716939528917 1 rotate no_reflect no_shear #
lump $-1 $-1 $68 $14 #
transform $-1 1 0 0 0 1 0 0 0 1 61.804864650410479 36.812061569145818 17.709716939528917 1 rotate no_reflect no_shear #
lump $-1 $-1 $69 $15 #
transform $-1 1 0 0 0 1 0 0 0 1 61.804864650410479 36.812061569145818 17.709716939528917 1 rotate no_reflect no_shear #
lump $-1 $-1 $70 $16 #
transform $-1 1 0 0 0 1 0 0 0 1 61.804864650410479 36.812061569145818 17.709716939528917 1 rotate no_reflect no_shear #
lump $-1 $-1 $71 $17 #
transform $-1 1 0 0 0 1 0 0 0 1 61.804864650410479 36.812061569145818 17.709716939528917 1 rotate no_reflect no_shear #
shell $-1 $-1 $-1 $72 $-1 $18 #
shell $-1 $-1 $-1 $73 $-1 $20 #
shell $-1 $-1 $-1 $74 $-1 $22 #
shell $-1 $-1 $-1 $75 $-1 $24 #
shell $-1 $-1 $-1 $76 $-1 $26 #
shell $-1 $-1 $-1 $77 $-1 $28 #
shell $-1 $-1 $-1 $78 $-1 $30 #
shell $-1 $-1 $-1 $79 $-1 $32 #
shell $-1 $-1 $-1 $80 $-1 $34 #
shell $-1 $-1 $-1 $81 $-1 $36 #
shell $-1 $-1 $-1 $82 $-1 $38 #
shell $-1 $-1 $-1 $83 $-1 $40 #
shell $-1 $-1 $-1 $84 $-1 $42 #
shell $-1 $-1 $-1 $85 $-1 $44 #
shell $-1 $-1 $-1 $86 $-1 $46 #
shell $-1 $-1 $-1 $87 $-1 $48 #
shell $-1 $-1 $-1 $88 $-1 $50 #
shell $-1 $-1 $-1 $89 $-1 $52 #
face $-1 $90 $91 $54 $-1 $92 forward single #
face $-1 $93 $94 $55 $-1 $95 forward single #
face $-1 $96 $97 $56 $-1 $98 forward single #
face $-1 $99 $100 $57 $-1 $101 reversed single #
face $-1 $102 $103 $58 $-1 $104 forward single #
face $-1 $105 $106 $59 $-1 $107 forward single #
face $-1 $108 $109 $60 $-1 $110 forward single #
face $-1 $111 $112 $61 $-1 $113 reversed single #
face $-1 $114 $115 $62 $-1 $116 forward single #
face $-1 $117 $118 $63 $-1 $119 forward single #
face $-1 $120 $121 $64 $-1 $122 forward single #
face $-1 $123 $124 $65 $-1 $125 reversed single #
face $-1 $126 $127 $66 $-1 $128 forward single #
face $-1 $129 $130 $67 $-1 $131 forward single #
face $-1 $132 $133 $68 $-1 $134 forward single #
face $-1 $135 $136 $69 $-1 $137 reversed single #
face $-1 $138 $139 $70 $-1 $140 forward single #
face $-1 $141 $142 $71 $-1 $143 forward single #
face $-1 $144 $145 $54 $-1 $146 reversed single #
loop $-1 $-1 $147 $72 #
plane-surface $-1 0 0 17.709716939528917 0 0 1 1 0 0 forward_v I I I I #
face $-1 $148 $149 $55 $-1 $150 reversed single #
loop $-1 $-1 $151 $73 #
plane-surface $-1 0 -27.93775683895214 17.209716939528917 0 0 1 1 0 0 forward_v I I I I #
face $-1 $152 $153 $56 $-1 $154 reversed single #
loop $-1 $-1 $155 $74 #
plane-surface $-1 0 27.937756838952133 17.209716939528917 0 0 1 1 0 0 forward_v I I I I #
face $-1 $156 $157 $57 $-1 $158 reversed single #
loop $-1 $-1 $159 $75 #
plane-surface $-1 31.449331783876943 -17.0230197122237 180.31972290347386 0 1 0 0.57357644374324357 0 0.81915203911291934 forward_v I I I I #
face $-1 $160 $161 $58 $-1 $162 forward single #
loop $-1 $163 $164 $76 #
cone-surface $-1 54.5284321820494 -15.681482392965616 12.279305488123329 -0.57357644374324357 0 -0.81915203911291934 0.40957601955645967 0 -0.28678822187162178 1 I I 0 1 0.5 forward I I I I #
face $-1 $165 $166 $59 $-1 $167 forward single #
loop $-1 $168 $169 $77 #
cone-surface $-1 54.5284321820494 -13.669176414078489 12.279305488123329 -0.57357644374324357 0 -0.81915203911291934 0.40957601955645967 0 -0.28678822187162178 1 I I 0 1 0.5 forward I I I I #
face $-1 $170 $171 $60 $-1 $172 forward single #
loop $-1 $173 $174 $78 #
cone-surface $-1 54.5284321820494 -11.656870435191362 12.279305488123329 -0.57357644374324357 0 -0.81915203911291934 0.40957601955645967 0 -0.28678822187162178 1 I I 0 1 0.5 forward I I I I #
face $-1 $175 $176 $61 $-1 $177 reversed single #
loop $-1 $-1 $178 $79 #
plane-surface $-1 31.449331783876943 -4.3140516397180555 180.31972290347386 0 1 0 0.57357644374324357 0 0.81915203911291934 forward_v I I I I #
face $-1 $179 $180 $62 $-1 $181 forward single #
loop $-1 $182 $183 $80 #
cone-surface $-1 54.5284321820494 -2.9725143204599718 12.279305488123329 -0.57357644374324357 0 -0.81915203911291934 0.40957601955645967 0 -0.28678822187162178 1 I I 0 1 0.5 forward I I I I #
face $-1 $184 $185 $63 $-1 $186 forward single #
loop $-1 $187 $188 $81 #
cone-surface $-1 54.5284321820494 -0.9602083415728444 12.279305488123329 -0.57357644374324357 0 -0.81915203911291934 0.40957601955645967 0 -0.28678822187162178 1 I I 0 1 0.5 forward I I I I #
face $-1 $189 $190 $64 $-1 $191 forward single #
loop $-1 $192 $193 $82 #
cone-surface $-1 54.5284321820494 1.052097637314283 12.279305488123329 -0.57357644374324357 0 -0.81915203911291934 0.40957601955645967 0 -0.28678822187162178 1 I I 0 1 0.5 forward I I I I #
face $-1 $194 $195 $65 $-1 $196 reversed single #
loop $-1 $-1 $197 $83 #
plane-surface $-1 31.449331783876943 8.3949164327875856 180.31972290347386 0 1 0 0.57357644374324357 0 0.81915203911291934 forward_v I I I I #
face $-1 $198 $199 $66 $-1 $200 forward single #
loop $-1 $201 $202 $84 #
cone-surface $-1 54.5284321820494 9.7364537520456693 12.279305488123329 -0.57357644374324357 0 -0.81915203911291934 0.40957601955645967 0 -0.28678822187162178 1 I I 0 1 0.5 forward I I I I #
face $-1 $203 $204 $67 $-1 $205 forward single #
loop $-1 $206 $207 $85 #
cone-surface $-1 54.5284321820494 11.748759730932797 12.279305488123329 -0.57357644374324357 0 -0.81915203911291934 0.40957601955645967 0 -0.28678822187162178 1 I I 0 1 0.5 forward I I I I #
face $-1 $208 $209 $68 $-1 $210 forward single #
loop $-1 $211 $212 $86 #
cone-surface $-1 54.5284321820494 13.761065709819924 12.279305488123329 -0.57357644374324357 0 -0.81915203911291934 0.40957601955645967 0 -0.28678822187162178 1 I I 0 1 0.5 forward I I I I #
face $-1 $213 $214 $69 $-1 $215 reversed single #
loop $-1 $-1 $216 $87 #
plane-surface $-1 -156.49541192105488 8.2860622675509674 85.277724835619281 0 -1 0 0.7660444514056185 0 -0.64278759981090561 forward_v I I I I #
face $-1 $217 $218 $70 $-1 $219 forward single #
loop $-1 $220 $221 $88 #
cone-surface $-1 -55.572738964559562 0.52795233329978686 10.721621236675833 0.7660444514056185 0 -0.64278759981090561 0.64278759981090561 0 0.7660444514056185 1 I I 0 1 1 forward I I I I #
face $-1 $222 $223 $71 $-1 $224 forward single #
loop $-1 $225 $226 $89 #
cone-surface $-1 -55.572738964559562 5.1828182938504952 10.721621236675833 0.7660444514056185 0 -0.64278759981090561 0.64278759981090561 0 0.7660444514056185 1 I I 0 1 1 forward I I I I #
face $-1 $227 $228 $54 $-1 $229 reversed single #
loop $-1 $-1 $230 $90 #
plane-surface $-1 0 0 -17.709716939528917 0 0 1 1 0 0 forward_v I I I I #
coedge $-1 $231 $232 $233 $234 forward $91 $-1 #
face $-1 $235 $236 $55 $-1 $237 reversed single #
loop $-1 $-1 $238 $93 #
plane-surface $-1 0 -27.93775683895214 10.503405414852791 0 0 1 1 0 0 forward_v I I I I #
coedge $-1 $239 $240 $241 $242 reversed $94 $-1 #
face $-1 $243 $244 $56 $-1 $245 reversed single #
loop $-1 $-1 $246 $96 #
plane-surface $-1 0 27.937756838952133 10.503405414852791 0 0 1 1 0 0 forward_v I I I I #
coedge $-1 $247 $248 $249 $250 reversed $97 $-1 #
face $-1 $251 $252 $57 $-1 $253 reversed single #
loop $-1 $-1 $254 $99 #
plane-surface $-1 -39.450297160552964 -13.669176414078489 79.064561092510388 0.57357644374324357 0 0.81915203911291934 0.81915203911291934 0 -0.57357644374324357 forward_v I I I I #
coedge $-1 $255 $256 $257 $258 reversed $100 $-1 #
face $-1 $-1 $259 $58 $-1 $260 forward single #
loop $-1 $261 $262 $102 #
cone-surface $-1 53.924288159190382 -15.681482392965616 11.41649842266375 -0.57357644374324357 0 -0.81915203911291934 0.20478800977822983 0 -0.14339411093581089 1 I I -0.70710678118654746 0.70710678118654746 0.25 forward I I I I #
loop $-1 $-1 $263 $76 #
coedge $-1 $164 $164 $264 $265 reversed $103 $-1 #
face $-1 $-1 $266 $59 $-1 $267 forward single #
loop $-1 $268 $269 $105 #
cone-surface $-1 53.924288159190382 -13.669176414078489 11.41649842266375 -0.57357644374324357 0 -0.81915203911291934 0.20478800977822983 0 -0.14339411093581089 1 I I -0.70710678118654746 0.70710678118654746 0.25 forward I I I I #
loop $-1 $-1 $270 $77 #
coedge $-1 $169 $169 $271 $272 reversed $106 $-1 #
face $-1 $-1 $273 $60 $-1 $274 forward single #
loop $-1 $275 $276 $108 #
cone-surface $-1 53.924288159190382 -11.656870435191362 11.41649842266375 -0.57357644374324357 0 -0.81915203911291934 0.20478800977822983 0 -0.14339411093581089 1 I I -0.70710678118654746 0.70710678118654746 0.25 forward I I I I #
loop $-1 $-1 $277 $78 #
coedge $-1 $174 $174 $278 $279 reversed $109 $-1 #
face $-1 $280 $281 $61 $-1 $282 reversed single #
loop $-1 $-1 $283 $111 #
plane-surface $-1 -39.450297160552964 -0.9602083415728444 79.064561092510388 0.57357644374324357 0 0.81915203911291934 0.81915203911291934 0 -0.57357644374324357 forward_v I I I I #
coedge $-1 $284 $285 $286 $287 reversed $112 $-1 #
face $-1 $-1 $288 $62 $-1 $289 forward single #
loop $-1 $290 $291 $114 #
cone-surface $-1 53.924288159190382 -2.9725143204599718 11.41649842266375 -0.57357644374324357 0 -0.81915203911291934 0.20478800977822983 0 -0.14339411093581089 1 I I -0.70710678118654746 0.70710678118654746 0.25 forward I I I I #
loop $-1 $-1 $292 $80 #
coedge $-1 $183 $183 $293 $294 reversed $115 $-1 #
face $-1 $-1 $295 $63 $-1 $296 forward single #
loop $-1 $297 $298 $117 #
cone-surface $-1 53.924288159190382 -0.9602083415728444 11.41649842266375 -0.57357644374324357 0 -0.81915203911291934 0.20478800977822983 0 -0.14339411093581089 1 I I -0.70710678118654746 0.70710678118654746 0.25 forward I I I I #
loop $-1 $-1 $299 $81 #
coedge $-1 $188 $188 $300 $301 reversed $118 $-1 #
face $-1 $-1 $302 $64 $-1 $303 forward single #
loop $-1 $304 $305 $120 #
cone-surface $-1 53.924288159190382 1.052097637314283 11.41649842266375 -0.57357644374324357 0 -0.81915203911291934 0.20478800977822983 0 -0.14339411093581089 1 I I -0.70710678118654746 0.70710678118654746 0.25 forward I I I I #
loop $-1 $-1 $306 $82 #
coedge $-1 $193 $193 $307 $308 reversed $121 $-1 #
face $-1 $309 $310 $65 $-1 $311 reversed single #
loop $-1 $-1 $312 $123 #
plane-surface $-1 -39.450297160552964 11.748759730932797 79.064561092510388 0.57357644374324357 0 0.81915203911291934 0.81915203911291934 0 -0.57357644374324357 forward_v I I I I #
coedge $-1 $313 $314 $315 $316 reversed $124 $-1 #
face $-1 $-1 $317 $66 $-1 $318 forward single #
loop $-1 $319 $320 $126 #
cone-surface $-1 53.924288159190382 9.7364537520456693 11.41649842266375 -0.57357644374324357 0 -0.81915203911291934 0.20478800977822983 0 -0.14339411093581089 1 I I -0.70710678118654746 0.70710678118654746 0.25 forward I I I I #
loop $-1 $-1 $321 $84 #
coedge $-1 $202 $202 $322 $323 reversed $127 $-1 #
face $-1 $-1 $324 $67 $-1 $325 forward single #
loop $-1 $326 $327 $129 #
cone-surface $-1 53.924288159190382 11.748759730932797 11.41649842266375 -0.57357644374324357 0 -0.81915203911291934 0.20478800977822983 0 -0.14339411093581089 1 I I -0.70710678118654746 0.70710678118654746 0.25 forward I I I I #
loop $-1 $-1 $328 $85 #
coedge $-1 $207 $207 $329 $330 reversed $130 $-1 #
face $-1 $-1 $331 $68 $-1 $332 forward single #
loop $-1 $333 $334 $132 #
cone-surface $-1 53.924288159190382 13.761065709819924 11.41649842266375 -0.57357644374324357 0 -0.81915203911291934 0.20478800977822983 0 -0.14339411093581089 1 I I -0.70710678118654746 0.70710678118654746 0.25 forward I I I I #
loop $-1 $-1 $335 $86 #
coedge $-1 $212 $212 $336 $337 reversed $133 $-1 #
face $-1 $338 $339 $69 $-1 $340 reversed single #
loop $-1 $-1 $341 $135 #
plane-surface $-1 -61.804864650410479 2.855385313575141 5.8229236250688103 -0.7660444514056185 0 0.64278759981090561 0.64278759981090561 0 0.7660444514056185 forward_v I I I I #
coedge $-1 $342 $343 $344 $345 reversed $136 $-1 #
face $-1 $-1 $346 $70 $-1 $347 forward single #
loop $-1 $348 $349 $138 #
cone-surface $-1 -53.944692865459551 0.52795233329978686 9.3555283911473524 0.7660444514056185 0 -0.64278759981090561 0.3213937999054528 0 0.38302222570280925 1 I I -0.70710678118654746 0.70710678118654746 0.5 forward I I I I #
loop $-1 $-1 $350 $88 #
coedge $-1 $221 $221 $351 $352 reversed $139 $-1 #
face $-1 $-1 $353 $71 $-1 $354 forward single #
loop $-1 $355 $356 $141 #
cone-surface $-1 -53.944692865459551 5.1828182938504952 9.3555283911473524 0.7660444514056185 0 -0.64278759981090561 0.3213937999054528 0 0.38302222570280925 1 I I -0.70710678118654746 0.70710678118654746 0.5 forward I I I I #
loop $-1 $-1 $357 $89 #
coedge $-1 $226 $226 $358 $359 reversed $142 $-1 #
face $-1 $360 $361 $54 $-1 $362 reversed single #
loop $-1 $-1 $363 $144 #
plane-surface $-1 0 -36.812061569145818 0 0 1 0 0 0 1 forward_v I I I I #
coedge $-1 $364 $365 $366 $367 forward $145 $-1 #
coedge $-1 $368 $147 $369 $370 forward $91 $-1 #
coedge $-1 $147 $368 $371 $372 forward $91 $-1 #
coedge $-1 $373 $374 $147 $234 reversed $375 $-1 #
edge $-1 $376 -36.812061569145818 $377 36.812061569145818 $233 $378 forward 7 unknown #
face $-1 $379 $380 $55 $-1 $381 reversed single #
loop $-1 $-1 $382 $148 #
plane-surface $-1 0 -19.063452108758462 13.856561177190855 0 -1 0 0 0 -1 forward_v I I I I #
coedge $-1 $383 $384 $385 $386 reversed $149 $-1 #
coedge $-1 $387 $151 $388 $389 forward $94 $-1 #
coedge $-1 $151 $387 $390 $391 reversed $94 $-1 #
coedge $-1 $392 $393 $151 $242 forward $394 $-1 #
edge $-1 $395 5.0945736892823916 $396 22.843183149669748 $241 $397 forward 7 unknown #
face $-1 $398 $399 $56 $-1 $400 reversed single #
loop $-1 $-1 $401 $152 #
plane-surface $-1 0 19.063452108758455 13.856561177190855 0 1 0 0 0 1 forward_v I I I I #
coedge $-1 $402 $403 $404 $405 reversed $153 $-1 #
coedge $-1 $406 $155 $407 $408 reversed $97 $-1 #
coedge $-1 $155 $406 $409 $410 forward $97 $-1 #
coedge $-1 $411 $412 $155 $250 forward $399 $-1 #
edge $-1 $413 -22.843183149669745 $414 -5.0945736892823881 $249 $415 forward 7 unknown #
face $-1 $416 $417 $57 $-1 $418 forward single #
loop $-1 $-1 $419 $156 #
plane-surface $-1 31.449331783876943 -10.315333115933278 180.31972290347386 0 -1 0 -0.57357644374324357 0 -0.81915203911291934 forward_v I I I I #
coedge $-1 $420 $421 $422 $423 reversed $157 $-1 #
coedge $-1 $256 $159 $424 $425 reversed $100 $-1 #
coedge $-1 $159 $255 $420 $426 reversed $100 $-1 #
coedge $-1 $422 $427 $159 $258 forward $428 $-1 #
edge $-1 $429 72.450144512208013 $430 81.99492930365642 $257 $431 forward 7 unknown #
loop $-1 $-1 $264 $160 #
plane-surface $-1 -39.450297160552964 -13.669176414078489 79.064561092510388 0.57357644374324357 0 0.81915203911291934 0.81915203911291934 0 -0.57357644374324357 forward_v I I I I #
loop $-1 $-1 $432 $102 #
coedge $-1 $262 $262 $263 $433 reversed $161 $-1 #
coedge $-1 $263 $263 $262 $433 forward $163 $-1 #
coedge $-1 $264 $264 $164 $265 forward $259 $-1 #
edge $-1 $434 0 $434 6.2831853071796004 $264 $435 forward 7 unknown #
loop $-1 $-1 $271 $165 #
plane-surface $-1 -39.450297160552964 -13.669176414078489 79.064561092510388 0.57357644374324357 0 0.81915203911291934 0.81915203911291934 0 -0.57357644374324357 forward_v I I I I #
loop $-1 $-1 $436 $105 #
coedge $-1 $269 $269 $270 $437 reversed $166 $-1 #
coedge $-1 $270 $270 $269 $437 forward $168 $-1 #
coedge $-1 $271 $271 $169 $272 forward $266 $-1 #
edge $-1 $438 0 $438 6.2831853071796004 $271 $439 forward 7 unknown #
loop $-1 $-1 $278 $170 #
plane-surface $-1 -39.450297160552964 -13.669176414078489 79.064561092510388 0.57357644374324357 0 0.81915203911291934 0.81915203911291934 0 -0.57357644374324357 forward_v I I I I #
loop $-1 $-1 $440 $108 #
coedge $-1 $276 $276 $277 $441 reversed $171 $-1 #
coedge $-1 $277 $277 $276 $441 forward $173 $-1 #
coedge $-1 $278 $278 $174 $279 forward $273 $-1 #
edge $-1 $442 0 $442 6.2831853071796004 $278 $443 forward 7 unknown #
face $-1 $444 $445 $61 $-1 $446 reversed single #
loop $-1 $-1 $447 $175 #
plane-surface $-1 31.449331783876943 2.3936349565723667 180.31972290347386 0 -1 0 -0.57357644374324357 0 -0.81915203911291934 forward_v I I I I #
coedge $-1 $448 $449 $450 $451 reversed $176 $-1 #
coedge $-1 $285 $178 $452 $453 reversed $112 $-1 #
coedge $-1 $178 $284 $448 $454 reversed $112 $-1 #
coedge $-1 $450 $455 $178 $287 forward $445 $-1 #
edge $-1 $456 72.450144512208013 $457 81.99492930365642 $286 $458 forward 7 unknown #
loop $-1 $-1 $293 $179 #
plane-surface $-1 -39.450297160552964 -0.9602083415728444 79.064561092510388 0.57357644374324357 0 0.81915203911291934 0.81915203911291934 0 -0.57357644374324357 forward_v I I I I #
loop $-1 $-1 $459 $114 #
coedge $-1 $291 $291 $292 $460 reversed $180 $-1 #
coedge $-1 $292 $292 $291 $460 forward $182 $-1 #
coedge $-1 $293 $293 $183 $294 forward $288 $-1 #
edge $-1 $461 0 $461 6.2831853071796004 $293 $462 forward 7 unknown #
loop $-1 $-1 $300 $184 #
plane-surface $-1 -39.450297160552964 -0.9602083415728444 79.064561092510388 0.57357644374324357 0 0.81915203911291934 0.81915203911291934 0 -0.57357644374324357 forward_v I I I I #
loop $-1 $-1 $463 $117 #
coedge $-1 $298 $298 $299 $464 reversed $185 $-1 #
coedge $-1 $299 $299 $298 $464 forward $187 $-1 #
coedge $-1 $300 $300 $188 $301 forward $295 $-1 #
edge $-1 $465 0 $465 6.2831853071796004 $300 $466 forward 7 unknown #
loop $-1 $-1 $307 $189 #
plane-surface $-1 -39.450297160552964 -0.9602083415728444 79.064561092510388 0.57357644374324357 0 0.81915203911291934 0.81915203911291934 0 -0.57357644374324357 forward_v I I I I #
loop $-1 $-1 $467 $120 #
coedge $-1 $305 $305 $306 $468 reversed $190 $-1 #
coedge $-1 $306 $306 $305 $468 forward $192 $-1 #
coedge $-1 $307 $307 $193 $308 forward $302 $-1 #
edge $-1 $469 0 $469 6.2831853071796004 $307 $470 forward 7 unknown #
face $-1 $471 $472 $65 $-1 $473 reversed single #
loop $-1 $-1 $474 $194 #
plane-surface $-1 31.449331783876943 15.102603029078008 180.31972290347386 0 -1 0 -0.57357644374324357 0 -0.81915203911291934 forward_v I I I I #
coedge $-1 $475 $476 $477 $478 reversed $195 $-1 #
coedge $-1 $314 $197 $479 $480 reversed $124 $-1 #
coedge $-1 $197 $313 $475 $481 reversed $124 $-1 #
coedge $-1 $477 $482 $197 $316 forward $472 $-1 #
edge $-1 $483 72.450144512208013 $484 81.99492930365642 $315 $485 forward 7 unknown #
loop $-1 $-1 $322 $198 #
plane-surface $-1 -39.450297160552964 11.748759730932797 79.064561092510388 0.57357644374324357 0 0.81915203911291934 0.81915203911291934 0 -0.57357644374324357 forward_v I I I I #
loop $-1 $-1 $486 $126 #
coedge $-1 $320 $320 $321 $487 reversed $199 $-1 #
coedge $-1 $321 $321 $320 $487 forward $201 $-1 #
coedge $-1 $322 $322 $202 $323 forward $317 $-1 #
edge $-1 $488 0 $488 6.2831853071796004 $322 $489 forward 7 unknown #
loop $-1 $-1 $329 $203 #
plane-surface $-1 -39.450297160552964 11.748759730932797 79.064561092510388 0.57357644374324357 0 0.81915203911291934 0.81915203911291934 0 -0.57357644374324357 forward_v I I I I #
loop $-1 $-1 $490 $129 #
coedge $-1 $327 $327 $328 $491 reversed $204 $-1 #
coedge $-1 $328 $328 $327 $491 forward $206 $-1 #
coedge $-1 $329 $329 $207 $330 forward $324 $-1 #
edge $-1 $492 0 $492 6.2831853071796004 $329 $493 forward 7 unknown #
loop $-1 $-1 $336 $208 #
plane-surface $-1 -39.450297160552964 11.748759730932797 79.064561092510388 0.57357644374324357 0 0.81915203911291934 0.81915203911291934 0 -0.57357644374324357 forward_v I I I I #
loop $-1 $-1 $494 $132 #
coedge $-1 $334 $334 $335 $495 reversed $209 $-1 #
coedge $-1 $335 $335 $334 $495 forward $211 $-1 #
coedge $-1 $336 $336 $212 $337 forward $331 $-1 #
edge $-1 $496 0 $496 6.2831853071796004 $336 $497 forward 7 unknown #
face $-1 $498 $499 $69 $-1 $500 reversed single #
loop $-1 $-1 $501 $213 #
plane-surface $-1 -156.49541192105488 -2.5752916404006854 85.277724835619281 0 1 0 -0.7660444514056185 0 0.64278759981090561 forward_v I I I I #
coedge $-1 $502 $503 $504 $505 reversed $214 $-1 #
coedge $-1 $343 $216 $506 $507 reversed $136 $-1 #
coedge $-1 $216 $342 $502 $508 reversed $136 $-1 #
coedge $-1 $504 $509 $216 $345 forward $499 $-1 #
edge $-1 $510 24.929145478280724 $511 36.81593879274083 $344 $512 forward 7 unknown #
loop $-1 $-1 $351 $217 #
plane-surface $-1 -61.804864650410479 2.855385313575141 5.8229236250688103 -0.7660444514056185 0 0.64278759981090561 0.64278759981090561 0 0.7660444514056185 forward_v I I I I #
loop $-1 $-1 $513 $138 #
coedge $-1 $349 $349 $350 $514 reversed $218 $-1 #
coedge $-1 $350 $350 $349 $514 forward $220 $-1 #
coedge $-1 $351 $351 $221 $352 forward $346 $-1 #
edge $-1 $515 0 $515 6.2831853071796004 $351 $516 forward 7 unknown #
loop $-1 $-1 $358 $222 #
plane-surface $-1 -61.804864650410479 2.855385313575141 5.8229236250688103 -0.7660444514056185 0 0.64278759981090561 0.64278759981090561 0 0.7660444514056185 forward_v I I I I #
loop $-1 $-1 $517 $141 #
coedge $-1 $356 $356 $357 $518 reversed $223 $-1 #
coedge $-1 $357 $357 $356 $518 forward $225 $-1 #
coedge $-1 $358 $358 $226 $359 forward $353 $-1 #
edge $-1 $519 0 $519 6.2831853071796004 $358 $520 forward 7 unknown #
face $-1 $521 $522 $54 $-1 $523 reversed single #
loop $-1 $-1 $524 $227 #
plane-surface $-1 -61.804864650410479 0 0 1 0 0 0 0 -1 forward_v I I I I #
coedge $-1 $525 $371 $526 $527 forward $228 $-1 #
coedge $-1 $528 $230 $525 $529 forward $145 $-1 #
coedge $-1 $230 $528 $530 $531 forward $145 $-1 #
coedge $-1 $374 $373 $230 $367 reversed $375 $-1 #
edge $-1 $532 -36.812061569145818 $533 36.812061569145818 $366 $534 forward 7 unknown #
coedge $-1 $232 $231 $535 $536 forward $91 $-1 #
coedge $-1 $537 $538 $231 $370 reversed $522 $-1 #
edge $-1 $377 -61.804864650410479 $539 61.804864650410479 $369 $540 forward 7 unknown #
coedge $-1 $363 $541 $232 $372 reversed $228 $-1 #
edge $-1 $542 -61.804864650410479 $376 61.804864650410479 $371 $543 forward 7 unknown #
coedge $-1 $366 $233 $541 $544 forward $375 $-1 #
coedge $-1 $233 $366 $537 $545 reversed $375 $-1 #
loop $-1 $-1 $373 $521 #
vertex $-1 $234 $546 #
vertex $-1 $234 $547 #
straight-curve $-1 61.804864650410479 0 17.709716939528917 0 1 0 I I #
face $-1 $548 $549 $55 $-1 $550 reversed single #
loop $-1 $-1 $551 $235 #
plane-surface $-1 -61.804864650410479 0 0 1 0 0 0 0 -1 forward_v I I I I #
coedge $-1 $552 $388 $393 $553 reversed $236 $-1 #
coedge $-1 $554 $238 $555 $556 reversed $149 $-1 #
coedge $-1 $238 $554 $552 $557 forward $149 $-1 #
coedge $-1 $393 $392 $238 $386 forward $394 $-1 #
edge $-1 $558 -22.843183149669748 $559 -5.0945736892823916 $385 $560 forward 7 unknown #
coedge $-1 $240 $239 $551 $561 reversed $94 $-1 #
coedge $-1 $382 $562 $239 $389 reversed $236 $-1 #
edge $-1 $395 -61.804864650410479 $563 61.804864650410479 $388 $564 forward 7 unknown #
coedge $-1 $565 $566 $240 $391 forward $549 $-1 #
edge $-1 $396 -61.804864650410479 $567 61.804864650410479 $390 $568 forward 7 unknown #
coedge $-1 $385 $241 $566 $569 forward $394 $-1 #
coedge $-1 $241 $385 $382 $553 forward $394 $-1 #
loop $-1 $-1 $241 $548 #
vertex $-1 $242 $570 #
vertex $-1 $569 $571 #
straight-curve $-1 61.804864650410479 -13.96887841947607 17.209716939528917 0 -1 0 I I #
face $-1 $572 $573 $56 $-1 $574 reversed single #
loop $-1 $-1 $249 $243 #
plane-surface $-1 61.804864650410479 0 0 -1 0 0 0 0 1 forward_v I I I I #
coedge $-1 $575 $409 $576 $577 reversed $244 $-1 #
coedge $-1 $578 $246 $575 $579 forward $153 $-1 #
coedge $-1 $246 $578 $580 $581 reversed $153 $-1 #
coedge $-1 $412 $411 $246 $405 forward $399 $-1 #
edge $-1 $582 5.0945736892823881 $583 22.843183149669745 $404 $584 forward 7 unknown #
coedge $-1 $248 $247 $585 $586 reversed $97 $-1 #
coedge $-1 $587 $588 $247 $408 forward $589 $-1 #
edge $-1 $590 -61.804864650410479 $413 61.804864650410479 $407 $591 forward 7 unknown #
coedge $-1 $401 $592 $248 $410 reversed $244 $-1 #
edge $-1 $593 -61.804864650410479 $414 61.804864650410479 $409 $594 forward 7 unknown #
coedge $-1 $404 $249 $592 $595 forward $399 $-1 #
coedge $-1 $249 $404 $587 $596 reversed $399 $-1 #
vertex $-1 $596 $597 #
vertex $-1 $250 $598 #
straight-curve $-1 61.804864650410479 13.968878419476066 17.209716939528917 0 -1 0 I I #
face $-1 $-1 $428 $57 $-1 $599 reversed single #
loop $-1 $-1 $600 $251 #
plane-surface $-1 0 0 17.709716939528917 0 0 1 1 0 0 forward_v I I I I #
coedge $-1 $601 $602 $603 $604 reversed $252 $-1 #
coedge $-1 $605 $254 $256 $426 forward $157 $-1 #
coedge $-1 $254 $605 $601 $606 forward $157 $-1 #
coedge $-1 $603 $257 $254 $423 forward $428 $-1 #
edge $-1 $430 -10.188431505184456 $607 -3.4807449088940334 $422 $608 forward 7 unknown #
coedge $-1 $609 $610 $255 $425 forward $417 $-1 #
edge $-1 $611 32.448833645596338 $429 46.080198758472008 $424 $612 forward 7 unknown #
edge $-1 $430 -123.60972930082093 $611 -106.96890505574254 $256 $613 forward 7 unknown #
coedge $-1 $257 $603 $609 $614 reversed $428 $-1 #
loop $-1 $-1 $603 $416 #
vertex $-1 $614 $615 #
vertex $-1 $258 $616 #
straight-curve $-1 61.804864650410479 -17.0230197122237 90.15986145173693 0 0 -1 I I #
coedge $-1 $432 $432 $-1 $617 reversed $261 $-1 #
edge $-1 $618 0 $618 6.2831853071796004 $262 $619 forward 7 unknown #
vertex $-1 $265 $620 #
ellipse-curve $-1 54.989182093972637 -15.681482392965616 12.937324543804715 0.57357644374324357 0 0.81915203911291934 0.40957601955645967 0 -0.28678822187162178 1 I I #
coedge $-1 $436 $436 $-1 $621 reversed $268 $-1 #
edge $-1 $622 0 $622 6.2831853071796004 $269 $623 forward 7 unknown #
vertex $-1 $272 $624 #
ellipse-curve $-1 54.989182093972637 -13.669176414078489 12.937324543804715 0.57357644374324357 0 0.81915203911291934 0.40957601955645967 0 -0.28678822187162178 1 I I #
coedge $-1 $440 $440 $-1 $625 reversed $275 $-1 #
edge $-1 $626 0 $626 6.2831853071796004 $276 $627 forward 7 unknown #
vertex $-1 $279 $628 #
ellipse-curve $-1 54.989182093972637 -11.656870435191362 12.937324543804715 0.57357644374324357 0 0.81915203911291934 0.40957601955645967 0 -0.28678822187162178 1 I I #
face $-1 $-1 $629 $61 $-1 $630 forward single #
loop $-1 $-1 $286 $280 #
plane-surface $-1 61.804864650410479 0 0 -1 0 0 0 0 1 forward_v I I I I #
coedge $-1 $631 $632 $633 $634 reversed $281 $-1 #
coedge $-1 $635 $283 $285 $454 forward $176 $-1 #
coedge $-1 $283 $635 $631 $636 forward $176 $-1 #
coedge $-1 $633 $286 $283 $451 forward $445 $-1 #
edge $-1 $457 -3.8339474689316333 $637 2.8737391273587889 $450 $638 forward 7 unknown #
coedge $-1 $639 $640 $284 $453 forward $629 $-1 #
edge $-1 $641 32.448833645596338 $456 46.080198758472008 $452 $642 forward 7 unknown #
edge $-1 $457 -123.60972930082093 $641 -106.96890505574254 $285 $643 forward 7 unknown #
coedge $-1 $286 $633 $639 $644 reversed $445 $-1 #
vertex $-1 $644 $645 #
vertex $-1 $287 $646 #
straight-curve $-1 61.804864650410479 -4.3140516397180555 90.15986145173693 0 0 -1 I I #
coedge $-1 $459 $459 $-1 $647 reversed $290 $-1 #
edge $-1 $648 0 $648 6.2831853071796004 $291 $649 forward 7 unknown #
vertex $-1 $294 $650 #
ellipse-curve $-1 54.989182093972637 -2.9725143204599718 12.937324543804715 0.57357644374324357 0 0.81915203911291934 0.40957601955645967 0 -0.28678822187162178 1 I I #
coedge $-1 $463 $463 $-1 $651 reversed $297 $-1 #
edge $-1 $652 0 $652 6.2831853071796004 $298 $653 forward 7 unknown #
vertex $-1 $301 $654 #
ellipse-curve $-1 54.989182093972637 -0.9602083415728444 12.937324543804715 0.57357644374324357 0 0.81915203911291934 0.40957601955645967 0 -0.28678822187162178 1 I I #
coedge $-1 $467 $467 $-1 $655 reversed $304 $-1 #
edge $-1 $656 0 $656 6.2831853071796004 $305 $657 forward 7 unknown #
vertex $-1 $308 $658 #
ellipse-curve $-1 54.989182093972637 1.052097637314283 12.937324543804715 0.57357644374324357 0 0.81915203911291934 0.40957601955645967 0 -0.28678822187162178 1 I I #
face $-1 $-1 $659 $65 $-1 $660 forward single #
loop $-1 $-1 $315 $309 #
plane-surface $-1 61.804864650410479 0 0 -1 0 0 0 0 1 forward_v I I I I #
coedge $-1 $661 $662 $663 $664 reversed $310 $-1 #
coedge $-1 $665 $312 $314 $481 forward $195 $-1 #
coedge $-1 $312 $665 $661 $666 forward $195 $-1 #
coedge $-1 $663 $315 $312 $478 forward $472 $-1 #
edge $-1 $484 2.5205365673211872 $667 9.2282231636116094 $477 $668 forward 7 unknown #
coedge $-1 $669 $670 $313 $480 forward $659 $-1 #
edge $-1 $671 32.448833645596338 $483 46.080198758472008 $479 $672 forward 7 unknown #
edge $-1 $484 -123.60972930082093 $671 -106.96890505574254 $314 $673 forward 7 unknown #
coedge $-1 $315 $663 $669 $674 reversed $472 $-1 #
vertex $-1 $674 $675 #
vertex $-1 $316 $676 #
straight-curve $-1 61.804864650410479 8.3949164327875856 90.15986145173693 0 0 -1 I I #
coedge $-1 $486 $486 $-1 $677 reversed $319 $-1 #
edge $-1 $678 0 $678 6.2831853071796004 $320 $679 forward 7 unknown #
vertex $-1 $323 $680 #
ellipse-curve $-1 54.989182093972637 9.7364537520456693 12.937324543804715 0.57357644374324357 0 0.81915203911291934 0.40957601955645967 0 -0.28678822187162178 1 I I #
coedge $-1 $490 $490 $-1 $681 reversed $326 $-1 #
edge $-1 $682 0 $682 6.2831853071796004 $327 $683 forward 7 unknown #
vertex $-1 $330 $684 #
ellipse-curve $-1 54.989182093972637 11.748759730932797 12.937324543804715 0.57357644374324357 0 0.81915203911291934 0.40957601955645967 0 -0.28678822187162178 1 I I #
coedge $-1 $494 $494 $-1 $685 reversed $333 $-1 #
edge $-1 $686 0 $686 6.2831853071796004 $334 $687 forward 7 unknown #
vertex $-1 $337 $688 #
ellipse-curve $-1 54.989182093972637 13.761065709819924 12.937324543804715 0.57357644374324357 0 0.81915203911291934 0.40957601955645967 0 -0.28678822187162178 1 I I #
face $-1 $-1 $689 $69 $-1 $690 forward single #
loop $-1 $-1 $344 $338 #
plane-surface $-1 -61.804864650410479 0 0 1 0 0 0 0 -1 forward_v I I I I #
coedge $-1 $691 $692 $693 $694 reversed $339 $-1 #
coedge $-1 $695 $341 $343 $508 forward $214 $-1 #
coedge $-1 $341 $695 $691 $696 forward $214 $-1 #
coedge $-1 $693 $344 $341 $505 forward $499 $-1 #
edge $-1 $511 -6.8583696107633969 $697 4.0029842971882559 $504 $698 forward 7 unknown #
coedge $-1 $699 $700 $342 $507 forward $689 $-1 #
edge $-1 $701 -26.417044935024379 $510 -16.442841310116961 $506 $702 forward 7 unknown #
edge $-1 $511 0 $701 15.517106471627043 $343 $703 forward 7 unknown #
coedge $-1 $344 $693 $699 $704 reversed $499 $-1 #
vertex $-1 $704 $705 #
vertex $-1 $345 $706 #
straight-curve $-1 -61.804864650410479 8.2860622675509674 42.638862417809641 0 0 -1 I I #
coedge $-1 $513 $513 $-1 $707 reversed $348 $-1 #
edge $-1 $708 0 $708 6.2831853071796004 $349 $709 forward 7 unknown #
vertex $-1 $352 $710 #
ellipse-curve $-1 -56.817762837956771 0.52795233329978686 11.766320282298866 -0.7660444514056185 0 0.64278759981090561 0.64278759981090561 0 0.7660444514056185 1 I I #
coedge $-1 $517 $517 $-1 $711 reversed $355 $-1 #
edge $-1 $712 0 $712 6.2831853071796004 $356 $713 forward 7 unknown #
vertex $-1 $359 $714 #
ellipse-curve $-1 -56.817762837956771 5.1828182938504952 11.766320282298866 -0.7660444514056185 0 0.64278759981090561 0.64278759981090561 0 0.7660444514056185 1 I I #
face $-1 $-1 $375 $54 $-1 $715 reversed single #
loop $-1 $-1 $537 $360 #
plane-surface $-1 0 36.812061569145818 0 0 -1 0 0 0 -1 forward_v I I I I #
coedge $-1 $716 $535 $538 $717 forward $361 $-1 #
coedge $-1 $541 $363 $364 $529 reversed $228 $-1 #
coedge $-1 $535 $716 $363 $527 reversed $361 $-1 #
edge $-1 $542 -17.709716939528917 $718 17.709716939528917 $526 $719 forward 7 unknown #
coedge $-1 $365 $364 $716 $720 forward $145 $-1 #
edge $-1 $533 -61.804864650410479 $718 61.804864650410479 $525 $721 forward 7 unknown #
coedge $-1 $538 $537 $365 $531 reversed $522 $-1 #
edge $-1 $722 -61.804864650410479 $532 61.804864650410479 $530 $723 forward 7 unknown #
vertex $-1 $367 $724 #
vertex $-1 $544 $725 #
straight-curve $-1 61.804864650410479 0 -17.709716939528917 0 -1 0 I I #
coedge $-1 $524 $526 $368 $536 reversed $361 $-1 #
edge $-1 $539 -36.812061569145818 $542 36.812061569145818 $535 $726 forward 7 unknown #
coedge $-1 $530 $369 $374 $545 forward $522 $-1 #
coedge $-1 $369 $530 $524 $717 reversed $522 $-1 #
vertex $-1 $370 $727 #
straight-curve $-1 0 36.812061569145818 17.709716939528917 -1 0 0 I I #
coedge $-1 $371 $525 $373 $544 reversed $228 $-1 #
vertex $-1 $536 $728 #
straight-curve $-1 0 -36.812061569145818 17.709716939528917 1 0 0 I I #
edge $-1 $376 -17.709716939528917 $533 17.709716939528917 $373 $729 forward 7 unknown #
edge $-1 $377 -17.709716939528917 $532 17.709716939528917 $374 $730 forward 7 unknown #
point $-1 61.804864650410479 -36.812061569145818 17.709716939528917 #
point $-1 61.804864650410479 36.812061569145818 17.709716939528917 #
face $-1 $-1 $394 $55 $-1 $731 reversed single #
loop $-1 $-1 $390 $379 #
plane-surface $-1 0 -36.812061569145818 0 0 1 0 0 0 1 forward_v I I I I #
coedge $-1 $732 $733 $387 $561 forward $380 $-1 #
coedge $-1 $562 $382 $384 $557 reversed $236 $-1 #
edge $-1 $559 3.5751248262573636 $395 10.28143635093349 $393 $734 forward 7 unknown #
coedge $-1 $384 $383 $735 $736 reversed $149 $-1 #
coedge $-1 $566 $565 $383 $556 forward $549 $-1 #
edge $-1 $737 -61.804864650410479 $558 61.804864650410479 $555 $738 forward 7 unknown #
edge $-1 $739 -61.804864650410479 $559 61.804864650410479 $552 $740 forward 7 unknown #
vertex $-1 $556 $741 #
vertex $-1 $386 $742 #
straight-curve $-1 61.804864650410479 -13.96887841947607 10.503405414852791 0 1 0 I I #
edge $-1 $567 -22.843183149669748 $563 -5.0945736892823916 $551 $743 forward 7 unknown #
coedge $-1 $388 $552 $732 $744 reversed $236 $-1 #
vertex $-1 $561 $745 #
straight-curve $-1 0 -19.063452108758462 17.209716939528917 -1 0 0 I I #
coedge $-1 $555 $390 $733 $746 forward $549 $-1 #
coedge $-1 $390 $555 $392 $569 reversed $549 $-1 #
vertex $-1 $746 $747 #
straight-curve $-1 0 -36.812061569145818 17.209716939528917 -1 0 0 I I #
edge $-1 $396 -17.209716939528917 $558 -10.503405414852791 $392 $748 forward 7 unknown #
point $-1 61.804864650410479 -19.063452108758462 17.209716939528917 #
point $-1 61.804864650410479 -36.812061569145818 17.209716939528917 #
face $-1 $-1 $589 $56 $-1 $749 reversed single #
loop $-1 $-1 $585 $398 #
plane-surface $-1 -61.804864650410479 0 0 1 0 0 0 0 -1 forward_v I I I I #
coedge $-1 $592 $401 $402 $579 reversed $244 $-1 #
coedge $-1 $585 $750 $401 $577 forward $573 $-1 #
edge $-1 $751 3.5751248262573636 $593 10.28143635093349 $576 $752 forward 7 unknown #
coedge $-1 $403 $402 $750 $753 reversed $153 $-1 #
edge $-1 $582 -61.804864650410479 $751 61.804864650410479 $575 $754 forward 7 unknown #
coedge $-1 $588 $587 $403 $581 forward $589 $-1 #
edge $-1 $583 -61.804864650410479 $755 61.804864650410479 $580 $756 forward 7 unknown #
vertex $-1 $405 $757 #
vertex $-1 $581 $758 #
straight-curve $-1 61.804864650410479 13.968878419476066 10.503405414852791 0 1 0 I I #
coedge $-1 $759 $576 $406 $586 forward $573 $-1 #
edge $-1 $593 5.0945736892823881 $590 22.843183149669745 $585 $760 forward 7 unknown #
coedge $-1 $580 $407 $412 $596 forward $589 $-1 #
coedge $-1 $407 $580 $759 $761 reversed $589 $-1 #
loop $-1 $-1 $407 $572 #
vertex $-1 $761 $762 #
straight-curve $-1 0 36.812061569145818 17.209716939528917 1 0 0 I I #
coedge $-1 $409 $575 $411 $595 reversed $244 $-1 #
vertex $-1 $586 $763 #
straight-curve $-1 0 19.063452108758455 17.209716939528917 1 0 0 I I #
edge $-1 $414 -10.28143635093349 $582 -3.5751248262573636 $411 $764 forward 7 unknown #
edge $-1 $413 -17.209716939528917 $583 -10.503405414852791 $412 $765 forward 7 unknown #
point $-1 61.804864650410479 36.812061569145811 17.209716939528917 #
point $-1 61.804864650410479 19.063452108758455 17.209716939528917 #
plane-surface $-1 61.804864650410479 0 0 -1 0 0 0 0 1 forward_v I I I I #
coedge $-1 $610 $609 $602 $766 forward $417 $-1 #
coedge $-1 $602 $419 $421 $606 reversed $252 $-1 #
coedge $-1 $419 $601 $600 $766 reversed $252 $-1 #
coedge $-1 $427 $422 $419 $604 forward $428 $-1 #
edge $-1 $607 -81.99492930365642 $767 -72.450144512208013 $603 $768 forward 7 unknown #
coedge $-1 $421 $420 $610 $769 reversed $157 $-1 #
edge $-1 $770 106.96890505574254 $607 123.60972930082093 $601 $771 forward 7 unknown #
vertex $-1 $423 $772 #
straight-curve $-1 61.804864650410494 -6.8345882070392445 8.1649321480804957 0 1 0 I I #
coedge $-1 $600 $424 $427 $614 forward $417 $-1 #
coedge $-1 $424 $600 $605 $769 forward $417 $-1 #
vertex $-1 $425 $773 #
straight-curve $-1 15.724665891938471 -17.0230197122237 17.709716939528917 1 0 0 I I #
straight-curve $-1 -39.450297160552964 -17.0230197122237 79.064561092510388 -0.81915203911291934 0 0.57357644374324357 I I #
edge $-1 $429 -17.0230197122237 $767 -10.315333115933278 $427 $774 forward 7 unknown #
point $-1 61.804864650410479 -17.0230197122237 17.709716939528917 #
point $-1 61.804864650410479 -17.0230197122237 8.1649321480805099 #
edge $-1 $775 1 $775 0 $432 $-1 forward 7 unknown #
vertex $-1 $433 $776 #
ellipse-curve $-1 54.067682270126191 -15.681482392965616 11.62128643244198 0.57357644374324357 0 0.81915203911291934 0.40957601955645967 0 -0.28678822187162178 1 I I #
point $-1 55.39875811352907 -15.681482392965616 12.650536321933055 #
edge $-1 $777 1 $777 0 $436 $-1 forward 7 unknown #
vertex $-1 $437 $778 #
ellipse-curve $-1 54.067682270126191 -13.669176414078489 11.62128643244198 0.57357644374324357 0 0.81915203911291934 0.40957601955645967 0 -0.28678822187162178 1 I I #
point $-1 55.39875811352907 -13.669176414078489 12.650536321933055 #
edge $-1 $779 1 $779 0 $440 $-1 forward 7 unknown #
vertex $-1 $441 $780 #
ellipse-curve $-1 54.067682270126191 -11.656870435191362 11.62128643244198 0.57357644374324357 0 0.81915203911291934 0.40957601955645967 0 -0.28678822187162178 1 I I #
point $-1 55.39875811352907 -11.656870435191362 12.650536321933055 #
loop $-1 $-1 $452 $444 #
plane-surface $-1 0 0 17.709716939528917 0 0 1 1 0 0 forward_v I I I I #
coedge $-1 $632 $447 $449 $636 reversed $281 $-1 #
coedge $-1 $447 $631 $781 $782 reversed $281 $-1 #
coedge $-1 $455 $450 $447 $634 forward $445 $-1 #
edge $-1 $637 -81.99492930365642 $783 -72.450144512208013 $633 $784 forward 7 unknown #
coedge $-1 $449 $448 $640 $785 reversed $176 $-1 #
edge $-1 $786 106.96890505574254 $637 123.60972930082093 $631 $787 forward 7 unknown #
vertex $-1 $451 $788 #
straight-curve $-1 61.804864650410494 -0.4801041707864222 8.1649321480804957 0 1 0 I I #
coedge $-1 $781 $452 $455 $644 forward $629 $-1 #
coedge $-1 $452 $781 $635 $785 forward $629 $-1 #
vertex $-1 $453 $789 #
straight-curve $-1 15.724665891938471 -4.3140516397180555 17.709716939528917 1 0 0 I I #
straight-curve $-1 -39.450297160552964 -4.3140516397180555 79.064561092510388 -0.81915203911291934 0 0.57357644374324357 I I #
edge $-1 $456 -4.3140516397180555 $783 2.3936349565723667 $455 $790 forward 7 unknown #
point $-1 61.804864650410479 -4.3140516397180555 17.709716939528917 #
point $-1 61.804864650410479 -4.3140516397180555 8.1649321480805099 #
edge $-1 $791 1 $791 0 $459 $-1 forward 7 unknown #
vertex $-1 $460 $792 #
ellipse-curve $-1 54.067682270126191 -2.9725143204599718 11.62128643244198 0.57357644374324357 0 0.81915203911291934 0.40957601955645967 0 -0.28678822187162178 1 I I #
point $-1 55.39875811352907 -2.9725143204599718 12.650536321933055 #
edge $-1 $793 1 $793 0 $463 $-1 forward 7 unknown #
vertex $-1 $464 $794 #
ellipse-curve $-1 54.067682270126191 -0.9602083415728444 11.62128643244198 0.57357644374324357 0 0.81915203911291934 0.40957601955645967 0 -0.28678822187162178 1 I I #
point $-1 55.39875811352907 -0.9602083415728444 12.650536321933055 #
edge $-1 $795 1 $795 0 $467 $-1 forward 7 unknown #
vertex $-1 $468 $796 #
ellipse-curve $-1 54.067682270126191 1.052097637314283 11.62128643244198 0.57357644374324357 0 0.81915203911291934 0.40957601955645967 0 -0.28678822187162178 1 I I #
point $-1 55.39875811352907 1.052097637314283 12.650536321933055 #
loop $-1 $-1 $479 $471 #
plane-surface $-1 0 0 17.709716939528917 0 0 1 1 0 0 forward_v I I I I #
coedge $-1 $662 $474 $476 $666 reversed $310 $-1 #
coedge $-1 $474 $661 $797 $798 reversed $310 $-1 #
coedge $-1 $482 $477 $474 $664 forward $472 $-1 #
edge $-1 $667 -81.99492930365642 $799 -72.450144512208013 $663 $800 forward 7 unknown #
coedge $-1 $476 $475 $670 $801 reversed $195 $-1 #
edge $-1 $802 106.96890505574254 $667 123.60972930082093 $661 $803 forward 7 unknown #
vertex $-1 $478 $804 #
straight-curve $-1 61.804864650410494 5.8743798654663983 8.1649321480804957 0 1 0 I I #
coedge $-1 $797 $479 $482 $674 forward $659 $-1 #
coedge $-1 $479 $797 $665 $801 forward $659 $-1 #
vertex $-1 $480 $805 #
straight-curve $-1 15.724665891938471 8.3949164327875856 17.709716939528917 1 0 0 I I #
straight-curve $-1 -39.450297160552964 8.3949164327875856 79.064561092510388 -0.81915203911291934 0 0.57357644374324357 I I #
edge $-1 $483 8.3949164327875856 $799 15.102603029078008 $482 $806 forward 7 unknown #
point $-1 61.804864650410479 8.3949164327875856 17.709716939528917 #
point $-1 61.804864650410479 8.3949164327875856 8.1649321480805099 #
edge $-1 $807 1 $807 0 $486 $-1 forward 7 unknown #
vertex $-1 $487 $808 #
ellipse-curve $-1 54.067682270126191 9.7364537520456693 11.62128643244198 0.57357644374324357 0 0.81915203911291934 0.40957601955645967 0 -0.28678822187162178 1 I I #
point $-1 55.39875811352907 9.7364537520456693 12.650536321933055 #
edge $-1 $809 1 $809 0 $490 $-1 forward 7 unknown #
vertex $-1 $491 $810 #
ellipse-curve $-1 54.067682270126191 11.748759730932797 11.62128643244198 0.57357644374324357 0 0.81915203911291934 0.40957601955645967 0 -0.28678822187162178 1 I I #
point $-1 55.39875811352907 11.748759730932797 12.650536321933055 #
edge $-1 $811 1 $811 0 $494 $-1 forward 7 unknown #
vertex $-1 $495 $812 #
ellipse-curve $-1 54.067682270126191 13.761065709819924 11.62128643244198 0.57357644374324357 0 0.81915203911291934 0.40957601955645967 0 -0.28678822187162178 1 I I #
point $-1 55.39875811352907 13.761065709819924 12.650536321933055 #
loop $-1 $-1 $506 $498 #
plane-surface $-1 0 0 17.709716939528917 0 0 1 1 0 0 forward_v I I I I #
coedge $-1 $692 $501 $503 $696 reversed $339 $-1 #
coedge $-1 $501 $691 $813 $814 reversed $339 $-1 #
coedge $-1 $509 $504 $501 $694 forward $499 $-1 #
edge $-1 $697 -36.81593879274083 $815 -24.929145478280724 $693 $816 forward 7 unknown #
coedge $-1 $503 $502 $700 $817 reversed $214 $-1 #
edge $-1 $818 -15.517106471627043 $697 0 $691 $819 forward 7 unknown #
vertex $-1 $505 $820 #
straight-curve $-1 -61.804864650410479 1.4276926567875705 5.8229236250688112 0 -1 0 I I #
coedge $-1 $813 $506 $509 $704 forward $689 $-1 #
coedge $-1 $506 $813 $695 $817 forward $689 $-1 #
vertex $-1 $507 $821 #
straight-curve $-1 -78.247705960527441 8.2860622675509674 17.709716939528917 -1 0 0 I I #
straight-curve $-1 -61.804864650410479 8.2860622675509674 5.8229236250688103 0.64278759981090561 0 0.7660444514056185 I I #
edge $-1 $510 -8.2860622675509674 $815 2.5752916404006854 $509 $822 forward 7 unknown #
point $-1 -61.804864650410479 8.2860622675509674 17.709716939528917 #
point $-1 -61.804864650410479 8.2860622675509674 5.8229236250688103 #
edge $-1 $823 1 $823 0 $513 $-1 forward 7 unknown #
vertex $-1 $514 $824 #
ellipse-curve $-1 -54.327715091162361 0.52795233329978686 9.6769221910528049 -0.7660444514056185 0 0.64278759981090561 0.64278759981090561 0 0.7660444514056185 1 I I #
point $-1 -56.174975238145862 0.52795233329978686 12.532364733704481 #
edge $-1 $825 1 $825 0 $517 $-1 forward 7 unknown #
vertex $-1 $518 $826 #
ellipse-curve $-1 -54.327715091162361 5.1828182938504952 9.6769221910528049 -0.7660444514056185 0 0.64278759981090561 0.64278759981090561 0 0.7660444514056185 1 I I #
point $-1 -56.174975238145862 5.1828182938504952 12.532364733704481 #
plane-surface $-1 61.804864650410479 0 0 -1 0 0 0 0 1 forward_v I I I I #
coedge $-1 $526 $524 $528 $720 reversed $361 $-1 #
edge $-1 $539 -17.709716939528917 $722 17.709716939528917 $538 $827 forward 7 unknown #
vertex $-1 $720 $828 #
straight-curve $-1 -61.804864650410479 -36.812061569145818 0 0 0 -1 I I #
edge $-1 $718 -36.812061569145818 $722 36.812061569145818 $716 $829 forward 7 unknown #
straight-curve $-1 0 -36.812061569145818 -17.709716939528917 -1 0 0 I I #
vertex $-1 $531 $830 #
straight-curve $-1 0 36.812061569145818 -17.709716939528917 1 0 0 I I #
point $-1 61.804864650410479 36.812061569145818 -17.709716939528917 #
point $-1 61.804864650410479 -36.812061569145818 -17.709716939528917 #
straight-curve $-1 -61.804864650410479 0 17.709716939528917 0 -1 0 I I #
point $-1 -61.804864650410479 36.812061569145818 17.709716939528917 #
point $-1 -61.804864650410479 -36.812061569145818 17.709716939528917 #
straight-curve $-1 61.804864650410479 -36.812061569145818 0 0 0 -1 I I #
straight-curve $-1 61.804864650410479 36.812061569145818 0 0 0 -1 I I #
plane-surface $-1 61.804864650410479 0 0 -1 0 0 0 0 1 forward_v I I I I #
coedge $-1 $735 $551 $562 $744 forward $380 $-1 #
coedge $-1 $551 $735 $565 $746 reversed $380 $-1 #
straight-curve $-1 61.804864650410479 -19.063452108758462 6.9282805885954275 0 0 1 I I #
coedge $-1 $733 $732 $554 $736 forward $380 $-1 #
edge $-1 $739 5.0945736892823916 $737 22.843183149669748 $735 $831 forward 7 unknown #
vertex $-1 $556 $832 #
straight-curve $-1 0 -36.812061569145818 10.503405414852791 1 0 0 I I #
vertex $-1 $736 $833 #
straight-curve $-1 0 -19.063452108758462 10.503405414852791 1 0 0 I I #
point $-1 61.804864650410479 -36.812061569145818 10.503405414852791 #
point $-1 61.804864650410479 -19.063452108758462 10.503405414852791 #
straight-curve $-1 -61.804864650410479 -13.96887841947607 17.209716939528917 0 1 0 I I #
edge $-1 $563 -10.28143635093349 $739 -3.5751248262573636 $732 $834 forward 7 unknown #
point $-1 -61.804864650410479 -19.063452108758462 17.209716939528917 #
edge $-1 $567 -17.209716939528917 $737 -10.503405414852791 $733 $835 forward 7 unknown #
point $-1 -61.804864650410479 -36.812061569145818 17.209716939528917 #
straight-curve $-1 61.804864650410479 -36.812061569145818 0 0 0 -1 I I #
plane-surface $-1 0 36.812061569145818 0 0 -1 0 0 0 -1 forward_v I I I I #
coedge $-1 $576 $759 $578 $753 forward $573 $-1 #
vertex $-1 $753 $836 #
straight-curve $-1 -61.804864650410479 19.063452108758455 6.9282805885954275 0 0 1 I I #
edge $-1 $755 -22.843183149669745 $751 -5.0945736892823881 $750 $837 forward 7 unknown #
straight-curve $-1 0 19.063452108758455 10.503405414852791 -1 0 0 I I #
vertex $-1 $581 $838 #
straight-curve $-1 0 36.812061569145818 10.503405414852791 -1 0 0 I I #
point $-1 61.804864650410479 19.063452108758455 10.503405414852791 #
point $-1 61.804864650410479 36.812061569145811 10.503405414852791 #
coedge $-1 $750 $585 $588 $761 forward $573 $-1 #
straight-curve $-1 -61.804864650410479 13.968878419476066 17.209716939528917 0 1 0 I I #
edge $-1 $590 -17.209716939528917 $755 -10.503405414852791 $588 $839 forward 7 unknown #
point $-1 -61.804864650410479 36.812061569145811 17.209716939528917 #
point $-1 -61.804864650410479 19.063452108758455 17.209716939528917 #
straight-curve $-1 61.804864650410479 19.063452108758455 6.9282805885954275 0 0 -1 I I #
straight-curve $-1 61.804864650410479 36.812061569145818 0 0 0 -1 I I #
edge $-1 $767 -46.080198758472008 $770 -32.448833645596338 $600 $840 forward 7 unknown #
vertex $-1 $766 $841 #
straight-curve $-1 61.804864650410479 -10.315333115933278 90.15986145173693 0 0 1 I I #
edge $-1 $770 3.4807449088940334 $611 10.188431505184456 $610 $842 forward 7 unknown #
vertex $-1 $769 $843 #
straight-curve $-1 -39.450297160552964 -10.315333115933278 79.064561092510388 0.81915203911291934 0 -0.57357644374324357 I I #
point $-1 61.804864650410479 -10.315333115933278 8.1649321480805099 #
point $-1 48.173499537534809 -17.0230197122237 17.709716939528917 #
straight-curve $-1 61.804864650410479 0 17.709716939528917 0 1 0 I I #
vertex $-1 $617 $844 #
point $-1 54.477258289682652 -15.681482392965616 11.334498210570358 #
vertex $-1 $621 $845 #
point $-1 54.477258289682652 -13.669176414078489 11.334498210570358 #
vertex $-1 $625 $846 #
point $-1 54.477258289682652 -11.656870435191362 11.334498210570358 #
coedge $-1 $640 $639 $632 $782 forward $629 $-1 #
edge $-1 $783 -46.080198758472008 $786 -32.448833645596338 $781 $847 forward 7 unknown #
vertex $-1 $782 $848 #
straight-curve $-1 61.804864650410479 2.3936349565723667 90.15986145173693 0 0 1 I I #
edge $-1 $786 -2.8737391273587889 $641 3.8339474689316333 $640 $849 forward 7 unknown #
vertex $-1 $785 $850 #
straight-curve $-1 -39.450297160552964 2.3936349565723667 79.064561092510388 0.81915203911291934 0 -0.57357644374324357 I I #
point $-1 61.804864650410479 2.3936349565723667 8.1649321480805099 #
point $-1 48.173499537534809 -4.3140516397180555 17.709716939528917 #
straight-curve $-1 61.804864650410479 0 17.709716939528917 0 1 0 I I #
vertex $-1 $647 $851 #
point $-1 54.477258289682652 -2.9725143204599718 11.334498210570358 #
vertex $-1 $651 $852 #
point $-1 54.477258289682652 -0.9602083415728444 11.334498210570358 #
vertex $-1 $655 $853 #
point $-1 54.477258289682652 1.052097637314283 11.334498210570358 #
coedge $-1 $670 $669 $662 $798 forward $659 $-1 #
edge $-1 $799 -46.080198758472008 $802 -32.448833645596338 $797 $854 forward 7 unknown #
vertex $-1 $798 $855 #
straight-curve $-1 61.804864650410479 15.102603029078008 90.15986145173693 0 0 1 I I #
edge $-1 $802 -9.2282231636116094 $671 -2.5205365673211872 $670 $856 forward 7 unknown #
vertex $-1 $801 $857 #
straight-curve $-1 -39.450297160552964 15.102603029078008 79.064561092510388 0.81915203911291934 0 -0.57357644374324357 I I #
point $-1 61.804864650410479 15.102603029078008 8.1649321480805099 #
point $-1 48.173499537534809 8.3949164327875856 17.709716939528917 #
straight-curve $-1 61.804864650410479 0 17.709716939528917 0 1 0 I I #
vertex $-1 $677 $858 #
point $-1 54.477258289682652 9.7364537520456693 11.334498210570358 #
vertex $-1 $681 $859 #
point $-1 54.477258289682652 11.748759730932797 11.334498210570358 #
vertex $-1 $685 $860 #
point $-1 54.477258289682652 13.761065709819924 11.334498210570358 #
coedge $-1 $700 $699 $692 $814 forward $689 $-1 #
edge $-1 $815 16.442841310116961 $818 26.417044935024379 $813 $861 forward 7 unknown #
vertex $-1 $814 $862 #
straight-curve $-1 -61.804864650410479 -2.5752916404006854 42.638862417809641 0 0 1 I I #
edge $-1 $818 -4.0029842971882559 $701 6.8583696107633969 $700 $863 forward 7 unknown #
vertex $-1 $817 $864 #
straight-curve $-1 -61.804864650410479 -2.5752916404006854 5.8229236250688103 -0.64278759981090561 0 -0.7660444514056185 I I #
point $-1 -61.804864650410479 -2.5752916404006854 5.8229236250688103 #
point $-1 -51.830661025503062 8.2860622675509674 17.709716939528917 #
straight-curve $-1 -61.804864650410479 0 17.709716939528917 0 -1 0 I I #
vertex $-1 $707 $865 #
point $-1 -53.684927491351452 0.52795233329978686 10.442966642458423 #
vertex $-1 $711 $866 #
point $-1 -53.684927491351452 5.1828182938504952 10.442966642458423 #
straight-curve $-1 -61.804864650410479 36.812061569145818 0 0 0 -1 I I #
point $-1 -61.804864650410479 -36.812061569145818 -17.709716939528917 #
straight-curve $-1 -61.804864650410479 0 -17.709716939528917 0 1 0 I I #
point $-1 -61.804864650410479 36.812061569145818 -17.709716939528917 #
straight-curve $-1 -61.804864650410479 -13.96887841947607 10.503405414852791 0 -1 0 I I #
point $-1 -61.804864650410479 -36.812061569145818 10.503405414852791 #
point $-1 -61.804864650410479 -19.063452108758462 10.503405414852791 #
straight-curve $-1 -61.804864650410479 -19.063452108758462 6.9282805885954275 0 0 -1 I I #
straight-curve $-1 -61.804864650410479 -36.812061569145818 0 0 0 -1 I I #
point $-1 -61.804864650410479 19.063452108758455 10.503405414852791 #
straight-curve $-1 -61.804864650410479 13.968878419476066 10.503405414852791 0 -1 0 I I #
point $-1 -61.804864650410479 36.812061569145811 10.503405414852791 #
straight-curve $-1 -61.804864650410479 36.812061569145818 0 0 0 -1 I I #
straight-curve $-1 15.724665891938471 -10.315333115933278 17.709716939528917 -1 0 0 I I #
point $-1 61.804864650410479 -10.315333115933278 17.709716939528917 #
straight-curve $-1 48.173499537534795 -6.8345882070392445 17.709716939528924 0 -1 0 I I #
point $-1 48.173499537534809 -10.315333115933278 17.709716939528917 #
point $-1 53.780894048254574 -15.681482392965616 11.21171041288552 #
point $-1 53.780894048254574 -13.669176414078489 11.21171041288552 #
point $-1 53.780894048254574 -11.656870435191362 11.21171041288552 #
straight-curve $-1 15.724665891938471 2.3936349565723667 17.709716939528917 -1 0 0 I I #
point $-1 61.804864650410479 2.3936349565723667 17.709716939528917 #
straight-curve $-1 48.173499537534795 -0.4801041707864222 17.709716939528924 0 -1 0 I I #
point $-1 48.173499537534809 2.3936349565723667 17.709716939528917 #
point $-1 53.780894048254574 -2.9725143204599718 11.21171041288552 #
point $-1 53.780894048254574 -0.9602083415728444 11.21171041288552 #
point $-1 53.780894048254574 1.052097637314283 11.21171041288552 #
straight-curve $-1 15.724665891938471 15.102603029078008 17.709716939528917 -1 0 0 I I #
point $-1 61.804864650410479 15.102603029078008 17.709716939528917 #
straight-curve $-1 48.173499537534795 5.8743798654663983 17.709716939528924 0 -1 0 I I #
point $-1 48.173499537534809 15.102603029078008 17.709716939528917 #
point $-1 53.780894048254574 9.7364537520456693 11.21171041288552 #
point $-1 53.780894048254574 11.748759730932797 11.21171041288552 #
point $-1 53.780894048254574 13.761065709819924 11.21171041288552 #
straight-curve $-1 -78.247705960527441 -2.5752916404006854 17.709716939528917 1 0 0 I I #
point $-1 -61.804864650410479 -2.5752916404006854 17.709716939528917 #
straight-curve $-1 -51.830661025503069 1.4276926567875705 17.709716939528917 0 1 0 I I #
point $-1 -51.830661025503062 -2.5752916404006854 17.709716939528917 #
point $-1 -53.561670639756741 0.52795233329978686 9.0341345912418998 #
point $-1 -53.561670639756741 5.1828182938504952 9.0341345912418998 #
End-of-ACIS-data 