500 0 6 0           
7 Unknown 11 ACIS 5.0 NT 24 Fri Mar 26 03:16:42 1999 
-1 9.9999999999999995e-007 1e-010 
body $-1 $6 $-1 $7 #
body $-1 $8 $-1 $9 #
body $-1 $10 $-1 $11 #
body $-1 $12 $-1 $13 #
body $-1 $14 $-1 $15 #
body $-1 $16 $-1 $17 #
lump $-1 $-1 $18 $0 #
transform $-1 1 0 0 0 1 0 0 0 1 53.436689352092046 25.543999755777413 8.7616067279628265 1 rotate no_reflect no_shear #
lump $-1 $-1 $19 $1 #
transform $-1 1 0 0 0 1 0 0 0 1 53.436689352092046 25.543999755777413 8.7616067279628265 1 rotate no_reflect no_shear #
lump $-1 $-1 $20 $2 #
transform $-1 1 0 0 0 1 0 0 0 1 53.436689352092046 25.543999755777413 8.7616067279628265 1 rotate no_reflect no_shear #
lump $-1 $-1 $21 $3 #
transform $-1 1 0 0 0 1 0 0 0 1 53.436689352092046 25.543999755777413 8.7616067279628265 1 rotate no_reflect no_shear #
lump $-1 $-1 $22 $4 #
transform $-1 1 0 0 0 1 0 0 0 1 53.436689352092046 25.543999755777413 8.7616067279628265 1 rotate no_reflect no_shear #
lump $-1 $-1 $23 $5 #
transform $-1 1 0 0 0 1 0 0 0 1 53.436689352092046 25.543999755777413 8.7616067279628265 1 rotate no_reflect no_shear #
shell $-1 $-1 $-1 $24 $-1 $6 #
shell $-1 $-1 $-1 $25 $-1 $8 #
shell $-1 $-1 $-1 $26 $-1 $10 #
shell $-1 $-1 $-1 $27 $-1 $12 #
shell $-1 $-1 $-1 $28 $-1 $14 #
shell $-1 $-1 $-1 $29 $-1 $16 #
face $-1 $30 $31 $18 $-1 $32 forward single #
face $-1 $33 $34 $19 $-1 $35 reversed single #
face $-1 $36 $37 $20 $-1 $38 forward single #
face $-1 $39 $40 $21 $-1 $41 forward single #
face $-1 $42 $43 $22 $-1 $44 reversed single #
face $-1 $45 $46 $23 $-1 $47 forward single #
face $-1 $48 $49 $18 $-1 $50 reversed single #
loop $-1 $-1 $51 $24 #
plane-surface $-1 0 0 8.7616067279628265 0 0 1 1 0 0 forward_v I I I I #
face $-1 $52 $53 $19 $-1 $54 reversed single #
loop $-1 $-1 $55 $25 #
plane-surface $-1 42.893573224729749 21.530685667599204 153.15037842249944 0 -1 0 -0.6560590369687036 0 -0.75470957328743171 forward_v I I I I #
face $-1 $56 $57 $20 $-1 $58 forward single #
loop $-1 $59 $60 $26 #
cone-surface $-1 48.862694394334589 15.276769990646166 4.5320876976017272 -0.6560590369687036 0 -0.75470957328743171 0.75470957328743171 0 -0.6560590369687036 1 I I 0 1 1 forward I I I I #
face $-1 $61 $62 $21 $-1 $63 forward single #
loop $-1 $64 $65 $27 #
cone-surface $-1 48.862694394334589 19.029119396817997 4.5320876976017272 -0.6560590369687036 0 -0.75470957328743171 0.75470957328743171 0 -0.6560590369687036 1 I I 0 1 1 forward I I I I #
face $-1 $66 $67 $22 $-1 $68 reversed single #
loop $-1 $-1 $69 $28 #
plane-surface $-1 -134.09505301674443 17.031020712646971 74.095635636854553 0 1 0 -0.75470958851134928 0 0.65605901945558964 forward_v I I I I #
face $-1 $70 $71 $23 $-1 $72 forward single #
loop $-1 $73 $74 $29 #
cone-surface $-1 -50.519153935535272 21.287510234212192 5.6413094468055336 0.75470958851134928 0 -0.65605901945558964 0.65605901945558964 0 0.75470958851134928 1 I I 0 1 1 forward I I I I #
face $-1 $75 $76 $18 $-1 $77 reversed single #
loop $-1 $-1 $78 $30 #
plane-surface $-1 0 0 -8.7616067279628265 0 0 1 1 0 0 forward_v I I I I #
coedge $-1 $79 $80 $81 $82 forward $31 $-1 #
face $-1 $83 $84 $19 $-1 $85 reversed single #
loop $-1 $-1 $86 $33 #
plane-surface $-1 -27.221672685528816 17.152944693732074 72.492016384878582 0.6560590369687036 0 0.75470957328743171 0.75470957328743171 0 -0.6560590369687036 forward_v I I I I #
coedge $-1 $87 $88 $89 $90 reversed $34 $-1 #
face $-1 $-1 $91 $20 $-1 $92 forward single #
loop $-1 $93 $94 $36 #
cone-surface $-1 47.633126795247549 15.276769990646166 3.1176320072683286 -0.6560590369687036 0 -0.75470957328743171 0.37735478664371586 0 -0.3280295184843518 1 I I -0.70710678118654746 0.70710678118654746 0.5 forward I I I I #
loop $-1 $-1 $95 $26 #
coedge $-1 $60 $60 $96 $97 reversed $37 $-1 #
face $-1 $-1 $98 $21 $-1 $99 forward single #
loop $-1 $100 $101 $39 #
cone-surface $-1 47.633126795247549 19.029119396817997 3.1176320072683286 -0.6560590369687036 0 -0.75470957328743171 0.37735478664371586 0 -0.3280295184843518 1 I I -0.70710678118654746 0.70710678118654746 0.5 forward I I I I #
loop $-1 $-1 $102 $27 #
coedge $-1 $65 $65 $103 $104 reversed $40 $-1 #
face $-1 $105 $106 $22 $-1 $107 forward single #
loop $-1 $-1 $108 $42 #
plane-surface $-1 -53.43668935209206 21.287510234212192 3.980391598281642 -0.75470958851134928 0 0.65605901945558964 0.65605901945558964 0 0.75470958851134928 forward_v I I I I #
coedge $-1 $109 $110 $111 $112 reversed $43 $-1 #
face $-1 $-1 $113 $23 $-1 $114 forward single #
loop $-1 $115 $116 $45 #
cone-surface $-1 -49.302387123136285 21.287510234212192 4.5835902207610406 0.75470958851134928 0 -0.65605901945558964 0.32802950972779482 0 0.37735479425567464 1 I I -0.70710678118654746 0.70710678118654746 0.5 forward I I I I #
loop $-1 $-1 $117 $29 #
coedge $-1 $74 $74 $118 $119 reversed $46 $-1 #
face $-1 $120 $121 $18 $-1 $122 reversed single #
loop $-1 $-1 $123 $48 #
plane-surface $-1 0 -25.543999755777413 0 0 1 0 0 0 1 forward_v I I I I #
coedge $-1 $124 $125 $126 $127 forward $49 $-1 #
coedge $-1 $128 $51 $129 $130 forward $31 $-1 #
coedge $-1 $51 $128 $131 $132 forward $31 $-1 #
coedge $-1 $133 $134 $51 $82 reversed $135 $-1 #
edge $-1 $136 -25.543999755777413 $137 25.543999755777413 $81 $138 forward 7 unknown #
face $-1 $139 $140 $19 $-1 $141 forward single #
loop $-1 $-1 $142 $52 #
plane-surface $-1 42.893573224729749 12.775203719864944 153.15037842249944 0 1 0 0.6560590369687036 0 0.75470957328743171 forward_v I I I I #
coedge $-1 $143 $144 $145 $146 reversed $53 $-1 #
coedge $-1 $88 $55 $147 $148 reversed $34 $-1 #
coedge $-1 $55 $87 $143 $149 reversed $34 $-1 #
coedge $-1 $145 $150 $55 $90 forward $140 $-1 #
edge $-1 $151 -31.989902739727171 $152 -24.644988985417669 $89 $153 forward 7 unknown #
loop $-1 $-1 $96 $56 #
plane-surface $-1 -27.221672685528816 17.152944693732074 72.492016384878582 0.6560590369687036 0 0.75470957328743171 0.75470957328743171 0 -0.6560590369687036 forward_v I I I I #
loop $-1 $-1 $154 $36 #
coedge $-1 $94 $94 $95 $155 reversed $57 $-1 #
coedge $-1 $95 $95 $94 $155 forward $59 $-1 #
coedge $-1 $96 $96 $60 $97 forward $91 $-1 #
edge $-1 $156 0 $156 6.2831853071796004 $96 $157 forward 7 unknown #
loop $-1 $-1 $103 $61 #
plane-surface $-1 -27.221672685528816 17.152944693732074 72.492016384878582 0.6560590369687036 0 0.75470957328743171 0.75470957328743171 0 -0.6560590369687036 forward_v I I I I #
loop $-1 $-1 $158 $39 #
coedge $-1 $101 $101 $102 $159 reversed $62 $-1 #
coedge $-1 $102 $102 $101 $159 forward $64 $-1 #
coedge $-1 $103 $103 $65 $104 forward $98 $-1 #
edge $-1 $160 0 $160 6.2831853071796004 $103 $161 forward 7 unknown #
face $-1 $162 $163 $22 $-1 $164 reversed single #
loop $-1 $-1 $111 $66 #
plane-surface $-1 0 0 8.7616067279628265 0 0 1 1 0 0 forward_v I I I I #
coedge $-1 $165 $166 $167 $168 reversed $67 $-1 #
coedge $-1 $110 $69 $169 $170 reversed $43 $-1 #
coedge $-1 $69 $109 $165 $171 reversed $43 $-1 #
coedge $-1 $167 $172 $69 $112 forward $106 $-1 #
edge $-1 $173 13.610837156280169 $174 17.76708395310709 $111 $175 forward 7 unknown #
loop $-1 $-1 $118 $70 #
plane-surface $-1 -53.43668935209206 21.287510234212192 3.980391598281642 -0.75470958851134928 0 0.65605901945558964 0.65605901945558964 0 0.75470958851134928 forward_v I I I I #
loop $-1 $-1 $176 $45 #
coedge $-1 $116 $116 $117 $177 reversed $71 $-1 #
coedge $-1 $117 $117 $116 $177 forward $73 $-1 #
coedge $-1 $118 $118 $74 $119 forward $113 $-1 #
edge $-1 $178 0 $178 6.2831853071796004 $118 $179 forward 7 unknown #
face $-1 $180 $181 $18 $-1 $182 reversed single #
loop $-1 $-1 $183 $75 #
plane-surface $-1 -53.436689352092046 0 0 1 0 0 0 0 -1 forward_v I I I I #
coedge $-1 $184 $131 $185 $186 forward $76 $-1 #
coedge $-1 $187 $78 $184 $188 forward $49 $-1 #
coedge $-1 $78 $187 $189 $190 forward $49 $-1 #
coedge $-1 $134 $133 $78 $127 reversed $135 $-1 #
edge $-1 $191 -25.543999755777413 $192 25.543999755777413 $126 $193 forward 7 unknown #
coedge $-1 $80 $79 $194 $195 forward $31 $-1 #
coedge $-1 $196 $197 $79 $130 reversed $181 $-1 #
edge $-1 $137 -53.436689352092046 $198 53.436689352092046 $129 $199 forward 7 unknown #
coedge $-1 $123 $200 $80 $132 reversed $76 $-1 #
edge $-1 $201 -53.436689352092046 $136 53.436689352092046 $131 $202 forward 7 unknown #
coedge $-1 $126 $81 $200 $203 forward $135 $-1 #
coedge $-1 $81 $126 $196 $204 reversed $135 $-1 #
loop $-1 $-1 $133 $180 #
vertex $-1 $82 $205 #
vertex $-1 $82 $206 #
straight-curve $-1 53.436689352092046 0 8.7616067279628265 0 1 0 I I #
face $-1 $-1 $207 $19 $-1 $208 reversed single #
loop $-1 $-1 $89 $83 #
plane-surface $-1 0 0 8.7616067279628265 0 0 1 1 0 0 forward_v I I I I #
coedge $-1 $209 $210 $211 $212 reversed $84 $-1 #
coedge $-1 $213 $86 $88 $149 forward $53 $-1 #
coedge $-1 $86 $213 $209 $214 forward $53 $-1 #
coedge $-1 $211 $89 $86 $146 forward $140 $-1 #
edge $-1 $152 -12.954213320733167 $215 -4.1987313729989069 $145 $216 forward 7 unknown #
coedge $-1 $217 $218 $87 $148 forward $207 $-1 #
edge $-1 $219 -74.198418736629705 $151 -67.813582483286893 $147 $220 forward 7 unknown #
edge $-1 $152 97.141272455265224 $219 106.87337870418409 $88 $221 forward 7 unknown #
coedge $-1 $89 $211 $217 $222 forward $140 $-1 #
vertex $-1 $148 $223 #
vertex $-1 $90 $224 #
straight-curve $-1 21.446786612364875 21.530685667599204 8.7616067279628282 -1 0 0 I I #
coedge $-1 $154 $154 $-1 $225 reversed $93 $-1 #
edge $-1 $226 0 $226 6.2831853071796004 $94 $227 forward 7 unknown #
vertex $-1 $97 $228 #
ellipse-curve $-1 49.764232474937295 15.276769990646166 5.5691886012914287 0.6560590369687036 0 0.75470957328743171 0.75470957328743171 0 -0.6560590369687036 1 I I #
coedge $-1 $158 $158 $-1 $229 reversed $100 $-1 #
edge $-1 $230 0 $230 6.2831853071796004 $101 $231 forward 7 unknown #
vertex $-1 $104 $232 #
ellipse-curve $-1 49.764232474937295 19.029119396817997 5.5691886012914287 0.6560590369687036 0 0.75470957328743171 0.75470957328743171 0 -0.6560590369687036 1 I I #
face $-1 $-1 $233 $22 $-1 $234 reversed single #
loop $-1 $-1 $235 $105 #
plane-surface $-1 0 25.543999755777413 0 0 -1 0 0 0 -1 forward_v I I I I #
coedge $-1 $236 $108 $110 $171 forward $67 $-1 #
coedge $-1 $108 $236 $235 $237 reversed $67 $-1 #
coedge $-1 $238 $111 $108 $168 forward $106 $-1 #
edge $-1 $174 6.3872655955408746 $239 14.900244638671317 $167 $240 forward 7 unknown #
coedge $-1 $241 $242 $109 $170 forward $233 $-1 #
edge $-1 $243 -33.06742622014562 $173 -28.286211090464448 $169 $244 forward 7 unknown #
edge $-1 $174 -6.3351721012476405 $243 -2.1724019648727301e-014 $110 $245 forward 7 unknown #
coedge $-1 $111 $238 $241 $246 forward $106 $-1 #
vertex $-1 $170 $247 #
vertex $-1 $112 $248 #
straight-curve $-1 -67.047526508372215 17.031020712646971 8.7616067279628282 1 0 0 I I #
coedge $-1 $176 $176 $-1 $249 reversed $115 $-1 #
edge $-1 $250 0 $250 6.2831853071796004 $116 $251 forward 7 unknown #
vertex $-1 $119 $252 #
ellipse-curve $-1 -51.358565953678593 21.287510234212192 6.3709991631222378 -0.75470958851134928 0 0.65605901945558964 0.65605901945558964 0 0.75470958851134928 1 I I #
face $-1 $-1 $135 $18 $-1 $253 reversed single #
loop $-1 $-1 $196 $120 #
plane-surface $-1 0 25.543999755777413 0 0 -1 0 0 0 -1 forward_v I I I I #
coedge $-1 $254 $194 $197 $255 forward $121 $-1 #
coedge $-1 $200 $123 $124 $188 reversed $76 $-1 #
coedge $-1 $194 $254 $123 $186 reversed $121 $-1 #
edge $-1 $201 -8.7616067279628265 $256 8.7616067279628265 $185 $257 forward 7 unknown #
coedge $-1 $125 $124 $254 $258 forward $49 $-1 #
edge $-1 $192 -53.436689352092046 $256 53.436689352092046 $184 $259 forward 7 unknown #
coedge $-1 $197 $196 $125 $190 reversed $181 $-1 #
edge $-1 $260 -53.436689352092046 $191 53.436689352092046 $189 $261 forward 7 unknown #
vertex $-1 $127 $262 #
vertex $-1 $203 $263 #
straight-curve $-1 53.436689352092046 0 -8.7616067279628265 0 -1 0 I I #
coedge $-1 $183 $185 $128 $195 reversed $121 $-1 #
edge $-1 $198 -25.543999755777413 $201 25.543999755777413 $194 $264 forward 7 unknown #
coedge $-1 $189 $129 $134 $204 forward $181 $-1 #
coedge $-1 $129 $189 $183 $255 reversed $181 $-1 #
vertex $-1 $130 $265 #
straight-curve $-1 0 25.543999755777413 8.7616067279628265 -1 0 0 I I #
coedge $-1 $131 $184 $133 $203 reversed $76 $-1 #
vertex $-1 $195 $266 #
straight-curve $-1 0 -25.543999755777413 8.7616067279628265 1 0 0 I I #
edge $-1 $136 -8.7616067279628265 $192 8.7616067279628265 $133 $267 forward 7 unknown #
edge $-1 $137 -8.7616067279628265 $191 8.7616067279628265 $134 $268 forward 7 unknown #
point $-1 53.436689352092046 -25.543999755777413 8.7616067279628265 #
point $-1 53.436689352092046 25.543999755777413 8.7616067279628265 #
loop $-1 $-1 $147 $139 #
plane-surface $-1 53.436689352092046 0 0 -1 0 0 0 0 1 forward_v I I I I #
coedge $-1 $210 $142 $144 $214 reversed $84 $-1 #
coedge $-1 $142 $209 $269 $270 reversed $84 $-1 #
coedge $-1 $150 $145 $142 $212 forward $140 $-1 #
edge $-1 $215 24.644988985417669 $271 31.989902739727171 $211 $272 forward 7 unknown #
coedge $-1 $144 $143 $218 $273 reversed $53 $-1 #
edge $-1 $274 -106.87337870418409 $215 -97.141272455265224 $209 $275 forward 7 unknown #
vertex $-1 $146 $276 #
straight-curve $-1 46.091775597782544 8.5764723468660371 8.7616067279628282 0 -1 0 I I #
coedge $-1 $269 $147 $150 $222 reversed $207 $-1 #
coedge $-1 $147 $269 $213 $273 forward $207 $-1 #
vertex $-1 $148 $277 #
straight-curve $-1 53.436689352092046 21.530685667599204 76.575189211249722 0 0 1 I I #
straight-curve $-1 -27.221672685528816 21.530685667599204 72.492016384878582 0.75470957328743171 0 -0.6560590369687036 I I #
edge $-1 $271 12.775203719864944 $151 21.530685667599204 $217 $278 forward 7 unknown #
point $-1 53.436689352092046 21.530685667599204 8.7616067279628265 #
point $-1 46.091775597782544 21.530685667599204 8.7616067279628282 #
edge $-1 $279 1 $279 0 $154 $-1 forward 7 unknown #
vertex $-1 $155 $280 #
ellipse-curve $-1 47.961156313731898 15.276769990646166 3.4949867939120445 0.6560590369687036 0 0.75470957328743171 0.75470957328743171 0 -0.6560590369687036 1 I I #
point $-1 50.518942048224709 15.276769990646166 4.9131295643227055 #
edge $-1 $281 1 $281 0 $158 $-1 forward 7 unknown #
vertex $-1 $159 $282 #
ellipse-curve $-1 47.961156313731898 19.029119396817997 3.4949867939120445 0.6560590369687036 0 0.75470957328743171 0.75470957328743171 0 -0.6560590369687036 1 I I #
point $-1 50.518942048224709 19.029119396817997 4.9131295643227055 #
loop $-1 $-1 $169 $162 #
plane-surface $-1 -53.436689352092046 0 0 1 0 0 0 0 -1 forward_v I I I I #
coedge $-1 $283 $284 $166 $237 forward $163 $-1 #
coedge $-1 $166 $165 $242 $285 reversed $67 $-1 #
edge $-1 $239 9.6916190557690101 $286 16.026791157016628 $235 $287 forward 7 unknown #
coedge $-1 $172 $167 $284 $288 forward $106 $-1 #
vertex $-1 $288 $289 #
straight-curve $-1 -49.280442555265125 10.643755117106096 8.7616067279628247 0 1 0 I I #
coedge $-1 $290 $169 $172 $246 reversed $233 $-1 #
coedge $-1 $169 $290 $236 $285 forward $233 $-1 #
vertex $-1 $170 $291 #
straight-curve $-1 -53.436689352092046 17.031020712646971 37.047817818427276 0 0 1 I I #
straight-curve $-1 -53.43668935209206 17.031020712646971 3.980391598281642 -0.65605901945558964 0 -0.75470958851134928 I I #
edge $-1 $292 -25.543999755777413 $173 -17.031020712646971 $241 $293 forward 7 unknown #
point $-1 -53.436689352092046 17.031020712646971 8.7616067279628265 #
point $-1 -49.280442555265125 17.031020712646971 8.7616067279628265 #
edge $-1 $294 1 $294 0 $176 $-1 forward 7 unknown #
vertex $-1 $177 $295 #
ellipse-curve $-1 -49.679741917391958 21.287510234212192 4.9116197304888356 -0.75470958851134928 0 0.65605901945558964 0.65605901945558964 0 0.75470958851134928 1 I I #
point $-1 -50.702506934222995 21.287510234212192 7.1257087516335806 #
plane-surface $-1 53.436689352092046 0 0 -1 0 0 0 0 1 forward_v I I I I #
coedge $-1 $185 $183 $187 $258 reversed $121 $-1 #
edge $-1 $198 -8.7616067279628265 $260 8.7616067279628265 $197 $296 forward 7 unknown #
vertex $-1 $258 $297 #
straight-curve $-1 -53.436689352092046 -25.543999755777413 0 0 0 -1 I I #
edge $-1 $256 -25.543999755777413 $260 25.543999755777413 $254 $298 forward 7 unknown #
straight-curve $-1 0 -25.543999755777413 -8.7616067279628265 -1 0 0 I I #
vertex $-1 $190 $299 #
straight-curve $-1 0 25.543999755777413 -8.7616067279628265 1 0 0 I I #
point $-1 53.436689352092046 25.543999755777413 -8.7616067279628265 #
point $-1 53.436689352092046 -25.543999755777413 -8.7616067279628265 #
straight-curve $-1 -53.436689352092046 0 8.7616067279628265 0 -1 0 I I #
point $-1 -53.436689352092046 25.543999755777413 8.7616067279628265 #
point $-1 -53.436689352092046 -25.543999755777413 8.7616067279628265 #
straight-curve $-1 53.436689352092046 -25.543999755777413 0 0 0 -1 I I #
straight-curve $-1 53.436689352092046 25.543999755777413 0 0 0 -1 I I #
coedge $-1 $218 $217 $210 $270 forward $207 $-1 #
edge $-1 $271 67.813582483286893 $274 74.198418736629705 $269 $300 forward 7 unknown #
vertex $-1 $222 $301 #
straight-curve $-1 21.446786612364875 12.775203719864944 8.7616067279628282 1 0 0 I I #
edge $-1 $274 4.1987313729989069 $219 12.954213320733167 $218 $302 forward 7 unknown #
vertex $-1 $273 $303 #
straight-curve $-1 -27.221672685528816 12.775203719864944 72.492016384878582 -0.75470957328743171 0 0.6560590369687036 I I #
point $-1 46.091775597782544 12.775203719864944 8.7616067279628282 #
point $-1 53.436689352092046 21.530685667599204 2.3767704746200167 #
straight-curve $-1 53.436689352092046 0 8.7616067279628265 0 1 0 I I #
vertex $-1 $225 $304 #
point $-1 48.715865887019334 15.276769990646166 2.8389277569433409 #
vertex $-1 $229 $305 #
point $-1 48.715865887019334 19.029119396817997 2.8389277569433409 #
coedge $-1 $284 $235 $290 $306 reversed $163 $-1 #
coedge $-1 $235 $283 $238 $288 reversed $163 $-1 #
edge $-1 $286 -14.900244638671317 $243 -6.3872655955408746 $242 $307 forward 7 unknown #
vertex $-1 $237 $308 #
straight-curve $-1 -42.922168460600204 25.543999755777413 16.075964557551011 -0.65605901945558975 0 -0.75470958851134939 I I #
edge $-1 $239 49.280442555265125 $292 53.436689352092046 $284 $309 forward 7 unknown #
point $-1 -49.280442555265125 25.543999755777413 8.7616067279628265 #
coedge $-1 $242 $241 $283 $306 forward $233 $-1 #
point $-1 -53.436689352092046 17.031020712646971 3.9803915982816584 #
vertex $-1 $288 $310 #
straight-curve $-1 -53.436689352092046 0 8.7616067279628265 0 -1 0 I I #
vertex $-1 $249 $311 #
point $-1 -49.023682897936368 21.287510234212192 5.6663293190001847 #
straight-curve $-1 -53.436689352092046 25.543999755777413 0 0 0 -1 I I #
point $-1 -53.436689352092046 -25.543999755777413 -8.7616067279628265 #
straight-curve $-1 -53.436689352092046 0 -8.7616067279628265 0 1 0 I I #
point $-1 -53.436689352092046 25.543999755777413 -8.7616067279628265 #
straight-curve $-1 53.436689352092046 12.775203719864944 76.575189211249722 0 0 -1 I I #
point $-1 53.436689352092046 12.775203719864944 8.7616067279628265 #
straight-curve $-1 53.436689352092046 8.5764723468660371 2.3767704746200167 0 1 0 I I #
point $-1 53.436689352092046 12.775203719864944 2.3767704746200167 #
point $-1 47.305097276763199 15.276769990646166 2.7402772206246127 #
point $-1 47.305097276763199 19.029119396817997 2.7402772206246127 #
edge $-1 $292 -8.7616067279628265 $286 -3.9803915982816584 $283 $312 forward 7 unknown #
straight-curve $-1 -53.436689352092046 10.643755117106096 3.9803915982816616 0 -1 0 I I #
point $-1 -53.436689352092046 25.543999755777413 3.9803915982816584 #
straight-curve $-1 0 25.543999755777413 8.7616067279628265 -1 0 0 I I #
point $-1 -53.436689352092046 25.543999755777413 8.7616067279628265 #
point $-1 -48.925032328880611 21.287510234212192 4.2555607110332456 #
straight-curve $-1 -53.436689352092046 25.543999755777413 0 0 0 -1 I I #
End-of-ACIS-data 