500 0 8 0           
7 Unknown 11 ACIS 5.0 NT 24 Fri Mar 26 15:20:51 1999 
-1 9.9999999999999995e-007 1e-010 
body $-1 $8 $-1 $9 #
body $-1 $10 $-1 $11 #
body $-1 $12 $-1 $13 #
body $-1 $14 $-1 $15 #
body $-1 $16 $-1 $17 #
body $-1 $18 $-1 $19 #
body $-1 $20 $-1 $21 #
body $-1 $22 $-1 $23 #
lump $-1 $-1 $24 $0 #
transform $-1 1 0 0 0 1 0 0 0 1 69.169591357158112 29.369475618549306 8.9656358750335698 1 rotate no_reflect no_shear #
lump $-1 $-1 $25 $1 #
transform $-1 1 0 0 0 1 0 0 0 1 69.169591357158112 29.369475618549306 8.9656358750335698 1 rotate no_reflect no_shear #
lump $-1 $-1 $26 $2 #
transform $-1 1 0 0 0 1 0 0 0 1 69.169591357158112 29.369475618549306 8.9656358750335698 1 rotate no_reflect no_shear #
lump $-1 $-1 $27 $3 #
transform $-1 1 0 0 0 1 0 0 0 1 69.169591357158112 29.369475618549306 8.9656358750335698 1 rotate no_reflect no_shear #
lump $-1 $-1 $28 $4 #
transform $-1 1 0 0 0 1 0 0 0 1 69.169591357158112 29.369475618549306 8.9656358750335698 1 rotate no_reflect no_shear #
lump $-1 $-1 $29 $5 #
transform $-1 1 0 0 0 1 0 0 0 1 69.169591357158112 29.369475618549306 8.9656358750335698 1 rotate no_reflect no_shear #
lump $-1 $-1 $30 $6 #
transform $-1 1 0 0 0 1 0 0 0 1 69.169591357158112 29.369475618549306 8.9656358750335698 1 rotate no_reflect no_shear #
lump $-1 $-1 $31 $7 #
transform $-1 1 0 0 0 1 0 0 0 1 69.169591357158112 29.369475618549306 8.9656358750335698 1 rotate no_reflect no_shear #
shell $-1 $-1 $-1 $32 $-1 $8 #
shell $-1 $-1 $-1 $33 $-1 $10 #
shell $-1 $-1 $-1 $34 $-1 $12 #
shell $-1 $-1 $-1 $35 $-1 $14 #
shell $-1 $-1 $-1 $36 $-1 $16 #
shell $-1 $-1 $-1 $37 $-1 $18 #
shell $-1 $-1 $-1 $38 $-1 $20 #
shell $-1 $-1 $-1 $39 $-1 $22 #
face $-1 $40 $41 $24 $-1 $42 forward single #
face $-1 $43 $44 $25 $-1 $45 forward single #
face $-1 $46 $47 $26 $-1 $48 reversed single #
face $-1 $49 $50 $27 $-1 $51 forward single #
face $-1 $52 $53 $28 $-1 $54 forward single #
face $-1 $55 $56 $29 $-1 $57 reversed single #
face $-1 $58 $59 $30 $-1 $60 forward single #
face $-1 $61 $62 $31 $-1 $63 forward single #
face $-1 $64 $65 $24 $-1 $66 reversed single #
loop $-1 $-1 $67 $32 #
plane-surface $-1 0 0 8.9656358750335698 0 0 1 1 0 0 forward_v I I I I #
face $-1 $68 $69 $25 $-1 $70 reversed single #
loop $-1 $-1 $71 $33 #
plane-surface $-1 -64.152501746241015 0 6.6109818447726081 0 0 1 1 0 0 forward_v I I I I #
face $-1 $72 $73 $26 $-1 $74 reversed single #
loop $-1 $-1 $75 $34 #
plane-surface $-1 -31.784796610721795 60.601440388949939 152.17029187751558 -1 0 0 0 0.57357644374324357 0.81915203911291934 forward_v I I I I #
face $-1 $76 $77 $27 $-1 $78 forward single #
loop $-1 $79 $80 $35 #
cone-surface $-1 -51.320950556866165 25.56312781055998 5.5087312273412703 0 -0.57357644374324357 -0.81915203911291934 1 0 0 1 I I 0 1 1 forward I I I I #
face $-1 $81 $82 $28 $-1 $83 forward single #
loop $-1 $84 $85 $36 #
cone-surface $-1 -39.599258189179537 25.56312781055998 5.5087312273412703 0 -0.57357644374324357 -0.81915203911291934 1 0 0 1 I I 0 1 1 forward I I I I #
face $-1 $86 $87 $29 $-1 $88 reversed single #
loop $-1 $-1 $89 $37 #
plane-surface $-1 16.544994550440322 -100.61942291615398 124.42438769464545 1 0 0 0 0.51503808176128008 -0.85716729658548041 forward_v I I I I #
face $-1 $90 $91 $30 $-1 $92 forward single #
loop $-1 $93 $94 $38 #
cone-surface $-1 20.37217770463667 -26.197033952810749 6.4476832364641306 0 0.51503808176128008 -0.85716729658548041 1.5 0 0 1 I I 0 1 1.5 forward I I I I #
face $-1 $95 $96 $31 $-1 $97 forward single #
loop $-1 $98 $99 $39 #
cone-surface $-1 26.112952435931206 -26.197033952810749 6.4476832364641306 0 0.51503808176128008 -0.85716729658548041 1.5 0 0 1 I I 0 1 1.5 forward I I I I #
face $-1 $100 $101 $24 $-1 $102 reversed single #
loop $-1 $-1 $103 $40 #
plane-surface $-1 0 0 -8.9656358750335698 0 0 1 1 0 0 forward_v I I I I #
coedge $-1 $104 $105 $106 $107 forward $41 $-1 #
face $-1 $108 $109 $25 $-1 $110 reversed single #
loop $-1 $-1 $111 $43 #
plane-surface $-1 -64.152501746241015 0 2.9465275151124448 0 0 1 1 0 0 forward_v I I I I #
coedge $-1 $112 $113 $114 $115 forward $44 $-1 #
face $-1 $116 $117 $26 $-1 $118 forward single #
loop $-1 $-1 $119 $46 #
plane-surface $-1 -45.460104373022858 -18.746656062674347 38.84946826786873 0 0.57357644374324357 0.81915203911291934 1 0 0 forward_v I I I I #
coedge $-1 $120 $121 $122 $123 reversed $47 $-1 #
face $-1 $-1 $124 $27 $-1 $125 forward single #
loop $-1 $126 $127 $49 #
cone-surface $-1 -51.320950556866165 24.188790198346734 3.5459737435663428 0 -0.57357644374324357 -0.81915203911291934 0.5 0 0 1 I I -0.70710678118654746 0.70710678118654746 0.5 forward I I I I #
loop $-1 $-1 $128 $35 #
coedge $-1 $80 $80 $129 $130 reversed $50 $-1 #
face $-1 $-1 $131 $28 $-1 $132 forward single #
loop $-1 $133 $134 $52 #
cone-surface $-1 -39.599258189179537 24.188790198346734 3.5459737435663428 0 -0.57357644374324357 -0.81915203911291934 0.5 0 0 1 I I -0.70710678118654746 0.70710678118654746 0.5 forward I I I I #
loop $-1 $-1 $135 $36 #
coedge $-1 $85 $85 $136 $137 reversed $53 $-1 #
face $-1 $138 $139 $29 $-1 $140 reversed single #
loop $-1 $-1 $141 $55 #
plane-surface $-1 23.242565070283945 -29.369475618549316 5.8445644355701916 0 -0.51503808176128008 0.85716729658548041 1 0 0 forward_v I I I I #
coedge $-1 $142 $143 $144 $145 reversed $56 $-1 #
face $-1 $-1 $146 $30 $-1 $147 forward single #
loop $-1 $148 $149 $58 #
cone-surface $-1 20.37217770463667 -25.235481258554167 4.8473908451872827 0 0.51503808176128008 -0.85716729658548041 0.75 0 0 1 I I -0.70710678118654757 0.70710678118654757 0.75 forward I I I I #
loop $-1 $-1 $150 $38 #
coedge $-1 $94 $94 $151 $152 reversed $59 $-1 #
face $-1 $-1 $153 $31 $-1 $154 forward single #
loop $-1 $155 $156 $61 #
cone-surface $-1 26.112952435931206 -25.235481258554167 4.8473908451872827 0 0.51503808176128008 -0.85716729658548041 0.75 0 0 1 I I -0.70710678118654757 0.70710678118654757 0.75 forward I I I I #
loop $-1 $-1 $157 $39 #
coedge $-1 $99 $99 $158 $159 reversed $62 $-1 #
face $-1 $160 $161 $24 $-1 $162 reversed single #
loop $-1 $-1 $163 $64 #
plane-surface $-1 0 -29.369475618549306 0 0 1 0 0 0 1 forward_v I I I I #
coedge $-1 $164 $165 $166 $167 forward $65 $-1 #
coedge $-1 $168 $67 $169 $170 forward $41 $-1 #
coedge $-1 $67 $168 $171 $172 forward $41 $-1 #
coedge $-1 $173 $174 $67 $107 reversed $175 $-1 #
edge $-1 $176 -29.369475618549306 $177 29.369475618549306 $106 $178 forward 7 unknown #
face $-1 $179 $180 $25 $-1 $181 reversed single #
loop $-1 $-1 $114 $68 #
plane-surface $-1 -59.135412135323918 0 4.7787546799425265 -1 0 0 0 0 1 forward_v I I I I #
coedge $-1 $182 $183 $184 $185 forward $69 $-1 #
coedge $-1 $186 $71 $187 $188 reversed $44 $-1 #
coedge $-1 $71 $186 $189 $190 reversed $44 $-1 #
coedge $-1 $191 $192 $71 $115 reversed $109 $-1 #
edge $-1 $193 -29.369475618549306 $194 29.369475618549306 $114 $195 forward 7 unknown #
face $-1 $196 $197 $26 $-1 $198 forward single #
loop $-1 $-1 $199 $72 #
plane-surface $-1 0 0 8.9656358750335698 0 0 1 1 0 0 forward_v I I I I #
coedge $-1 $200 $201 $202 $203 reversed $73 $-1 #
coedge $-1 $121 $75 $204 $205 reversed $47 $-1 #
coedge $-1 $75 $120 $200 $206 reversed $47 $-1 #
coedge $-1 $202 $207 $75 $123 forward $208 $-1 #
edge $-1 $209 67.119510063724221 $210 70.926956430671879 $122 $211 forward 7 unknown #
loop $-1 $-1 $129 $76 #
plane-surface $-1 -45.460104373022858 -18.746656062674347 38.84946826786873 0 0.57357644374324357 0.81915203911291934 1 0 0 forward_v I I I I #
loop $-1 $-1 $212 $49 #
coedge $-1 $127 $127 $128 $213 reversed $77 $-1 #
coedge $-1 $128 $128 $127 $213 forward $79 $-1 #
coedge $-1 $129 $129 $80 $130 forward $124 $-1 #
edge $-1 $214 -3.2732342118421233e-015 $214 6.2831853071795969 $129 $215 forward 7 unknown #
loop $-1 $-1 $136 $81 #
plane-surface $-1 -45.460104373022858 -18.746656062674347 38.84946826786873 0 0.57357644374324357 0.81915203911291934 1 0 0 forward_v I I I I #
loop $-1 $-1 $216 $52 #
coedge $-1 $134 $134 $135 $217 reversed $82 $-1 #
coedge $-1 $135 $135 $134 $217 forward $84 $-1 #
coedge $-1 $136 $136 $85 $137 forward $131 $-1 #
edge $-1 $218 -3.2732342118421233e-015 $218 6.2831853071795969 $136 $219 forward 7 unknown #
face $-1 $220 $221 $29 $-1 $222 forward single #
loop $-1 $-1 $223 $86 #
plane-surface $-1 29.940135590127568 -100.61942291615398 124.42438769464545 -1 0 0 0 -0.51503808176128008 0.85716729658548041 forward_v I I I I #
coedge $-1 $224 $225 $226 $227 reversed $87 $-1 #
coedge $-1 $143 $89 $228 $229 reversed $56 $-1 #
coedge $-1 $89 $142 $224 $230 reversed $56 $-1 #
coedge $-1 $226 $231 $89 $145 forward $232 $-1 #
edge $-1 $233 53.246557972289153 $234 56.367629411752525 $144 $235 forward 7 unknown #
loop $-1 $-1 $151 $90 #
plane-surface $-1 23.242565070283945 -29.369475618549316 5.8445644355701916 0 -0.51503808176128008 0.85716729658548041 1 0 0 forward_v I I I I #
loop $-1 $-1 $236 $58 #
coedge $-1 $149 $149 $150 $237 reversed $91 $-1 #
coedge $-1 $150 $150 $149 $237 forward $93 $-1 #
coedge $-1 $151 $151 $94 $152 forward $146 $-1 #
edge $-1 $238 1.9166098016777973e-016 $238 6.2831853071796004 $151 $239 forward 7 unknown #
loop $-1 $-1 $158 $95 #
plane-surface $-1 23.242565070283945 -29.369475618549316 5.8445644355701916 0 -0.51503808176128008 0.85716729658548041 1 0 0 forward_v I I I I #
loop $-1 $-1 $240 $61 #
coedge $-1 $156 $156 $157 $241 reversed $96 $-1 #
coedge $-1 $157 $157 $156 $241 forward $98 $-1 #
coedge $-1 $158 $158 $99 $159 forward $153 $-1 #
edge $-1 $242 1.9166098016777973e-016 $242 6.2831853071796004 $158 $243 forward 7 unknown #
face $-1 $244 $245 $24 $-1 $246 reversed single #
loop $-1 $-1 $247 $100 #
plane-surface $-1 -69.169591357158112 0 0 1 0 0 0 0 -1 forward_v I I I I #
coedge $-1 $248 $171 $249 $250 forward $101 $-1 #
coedge $-1 $251 $103 $248 $252 forward $65 $-1 #
coedge $-1 $103 $251 $253 $254 forward $65 $-1 #
coedge $-1 $174 $173 $103 $167 reversed $175 $-1 #
edge $-1 $255 -29.369475618549306 $256 29.369475618549306 $166 $257 forward 7 unknown #
coedge $-1 $105 $104 $258 $259 forward $41 $-1 #
coedge $-1 $260 $261 $104 $170 reversed $245 $-1 #
edge $-1 $177 -69.169591357158112 $262 69.169591357158112 $169 $263 forward 7 unknown #
coedge $-1 $163 $264 $105 $172 reversed $101 $-1 #
edge $-1 $265 -69.169591357158112 $176 69.169591357158112 $171 $266 forward 7 unknown #
coedge $-1 $166 $106 $264 $267 forward $175 $-1 #
coedge $-1 $106 $166 $260 $268 reversed $175 $-1 #
loop $-1 $-1 $173 $244 #
vertex $-1 $107 $269 #
vertex $-1 $107 $270 #
straight-curve $-1 69.169591357158112 0 8.9656358750335698 0 1 0 I I #
face $-1 $271 $272 $25 $-1 $273 reversed single #
loop $-1 $-1 $274 $108 #
plane-surface $-1 0 -29.369475618549306 0 0 1 0 0 0 1 forward_v I I I I #
coedge $-1 $275 $111 $274 $276 reversed $69 $-1 #
coedge $-1 $111 $275 $277 $278 reversed $69 $-1 #
coedge $-1 $192 $191 $111 $185 reversed $109 $-1 #
edge $-1 $279 -29.369475618549306 $280 29.369475618549306 $184 $281 forward 7 unknown #
coedge $-1 $113 $112 $282 $283 reversed $44 $-1 #
coedge $-1 $284 $285 $112 $188 forward $286 $-1 #
edge $-1 $287 -37.093340484037604 $194 -27.059161262203411 $187 $288 forward 7 unknown #
coedge $-1 $289 $290 $113 $190 forward $180 $-1 #
edge $-1 $193 27.059161262203411 $291 37.093340484037604 $189 $292 forward 7 unknown #
coedge $-1 $184 $114 $290 $293 reversed $109 $-1 #
coedge $-1 $114 $184 $284 $294 reversed $109 $-1 #
vertex $-1 $190 $295 #
vertex $-1 $188 $296 #
straight-curve $-1 -59.135412135323918 0 6.6109818447726081 0 1 0 I I #
face $-1 $-1 $208 $26 $-1 $297 reversed single #
loop $-1 $-1 $298 $116 #
plane-surface $-1 -59.135412135323918 0 4.7787546799425265 -1 0 0 0 0 1 forward_v I I I I #
coedge $-1 $299 $300 $301 $302 forward $117 $-1 #
coedge $-1 $303 $119 $121 $206 forward $73 $-1 #
coedge $-1 $119 $303 $298 $304 forward $73 $-1 #
coedge $-1 $305 $122 $119 $203 forward $208 $-1 #
edge $-1 $210 9.0547444242103658 $306 36.405359948812489 $202 $307 forward 7 unknown #
coedge $-1 $300 $299 $120 $205 forward $117 $-1 #
edge $-1 $308 -6.3688414112210552 $209 -0.93124457592566401 $204 $309 forward 7 unknown #
edge $-1 $210 -58.738951237098597 $308 -52.100871154695454 $121 $310 forward 7 unknown #
coedge $-1 $122 $305 $300 $311 reversed $208 $-1 #
loop $-1 $-1 $305 $196 #
vertex $-1 $311 $312 #
vertex $-1 $123 $313 #
straight-curve $-1 -31.784796610721795 29.369475618549306 76.08514593875779 0 0 -1 I I #
coedge $-1 $212 $212 $-1 $314 reversed $126 $-1 #
edge $-1 $315 0 $315 6.2831853071796004 $127 $316 forward 7 unknown #
vertex $-1 $130 $317 #
ellipse-curve $-1 -51.320950556866165 26.650677200901608 7.0619126915597441 0 0.57357644374324357 0.81915203911291934 1 0 0 1 I I #
coedge $-1 $216 $216 $-1 $318 reversed $133 $-1 #
edge $-1 $319 0 $319 6.2831853071796004 $134 $320 forward 7 unknown #
vertex $-1 $137 $321 #
ellipse-curve $-1 -39.599258189179537 26.650677200901608 7.0619126915597441 0 0.57357644374324357 0.81915203911291934 1 0 0 1 I I #
face $-1 $-1 $232 $29 $-1 $322 reversed single #
loop $-1 $-1 $323 $138 #
plane-surface $-1 0 0 8.9656358750335698 0 0 1 1 0 0 forward_v I I I I #
coedge $-1 $324 $325 $326 $327 reversed $139 $-1 #
coedge $-1 $328 $141 $143 $230 forward $87 $-1 #
coedge $-1 $141 $328 $324 $329 forward $87 $-1 #
coedge $-1 $326 $144 $141 $227 forward $232 $-1 #
edge $-1 $234 4.9237120152983493 $330 18.318853054985595 $226 $331 forward 7 unknown #
coedge $-1 $332 $333 $142 $229 forward $221 $-1 #
edge $-1 $334 -26.134570905133501 $233 -20.940235839527684 $228 $335 forward 7 unknown #
edge $-1 $234 1.2337929905607871e-014 $334 6.0598847929656463 $143 $336 forward 7 unknown #
coedge $-1 $144 $326 $332 $337 reversed $232 $-1 #
loop $-1 $-1 $326 $220 #
vertex $-1 $337 $338 #
vertex $-1 $145 $339 #
straight-curve $-1 16.544994550440322 -29.369475618549302 62.212193847322723 0 0 -1 I I #
coedge $-1 $236 $236 $-1 $340 reversed $148 $-1 #
edge $-1 $341 0 $341 6.2831853071796004 $149 $342 forward 7 unknown #
vertex $-1 $152 $343 #
ellipse-curve $-1 20.37217770463667 -26.772308085746385 7.4051001553018914 0 -0.51503808176128008 0.85716729658548041 1.5 0 0 1 I I #
coedge $-1 $240 $240 $-1 $344 reversed $155 $-1 #
edge $-1 $345 0 $345 6.2831853071796004 $156 $346 forward 7 unknown #
vertex $-1 $159 $347 #
ellipse-curve $-1 26.112952435931206 -26.772308085746385 7.4051001553018914 0 -0.51503808176128008 0.85716729658548041 1.5 0 0 1 I I #
face $-1 $-1 $175 $24 $-1 $348 reversed single #
loop $-1 $-1 $260 $160 #
plane-surface $-1 0 29.369475618549306 0 0 -1 0 0 0 -1 forward_v I I I I #
coedge $-1 $349 $258 $261 $350 forward $161 $-1 #
coedge $-1 $264 $163 $164 $252 reversed $101 $-1 #
coedge $-1 $258 $349 $163 $250 reversed $161 $-1 #
edge $-1 $265 -8.9656358750335698 $351 8.9656358750335698 $249 $352 forward 7 unknown #
coedge $-1 $165 $164 $349 $353 forward $65 $-1 #
edge $-1 $256 -69.169591357158112 $351 69.169591357158112 $248 $354 forward 7 unknown #
coedge $-1 $261 $260 $165 $254 reversed $245 $-1 #
edge $-1 $355 -69.169591357158112 $255 69.169591357158112 $253 $356 forward 7 unknown #
vertex $-1 $167 $357 #
vertex $-1 $267 $358 #
straight-curve $-1 69.169591357158112 0 -8.9656358750335698 0 -1 0 I I #
coedge $-1 $247 $249 $168 $259 reversed $161 $-1 #
edge $-1 $262 -29.369475618549306 $265 29.369475618549306 $258 $359 forward 7 unknown #
coedge $-1 $253 $169 $174 $268 forward $245 $-1 #
coedge $-1 $169 $253 $247 $350 reversed $245 $-1 #
vertex $-1 $170 $360 #
straight-curve $-1 0 29.369475618549306 8.9656358750335698 -1 0 0 I I #
coedge $-1 $171 $248 $173 $267 reversed $101 $-1 #
vertex $-1 $259 $361 #
straight-curve $-1 0 -29.369475618549306 8.9656358750335698 1 0 0 I I #
edge $-1 $176 -8.9656358750335698 $256 8.9656358750335698 $173 $362 forward 7 unknown #
edge $-1 $177 -8.9656358750335698 $255 8.9656358750335698 $174 $363 forward 7 unknown #
point $-1 69.169591357158112 -29.369475618549306 8.9656358750335698 #
point $-1 69.169591357158112 29.369475618549306 8.9656358750335698 #
face $-1 $-1 $286 $25 $-1 $364 reversed single #
loop $-1 $-1 $365 $179 #
plane-surface $-1 -69.169591357158112 0 0 1 0 0 0 0 -1 forward_v I I I I #
coedge $-1 $290 $289 $182 $276 forward $180 $-1 #
coedge $-1 $183 $182 $365 $366 reversed $69 $-1 #
edge $-1 $367 -37.093340484037604 $280 -27.059161262203411 $274 $368 forward 7 unknown #
coedge $-1 $285 $284 $183 $278 forward $286 $-1 #
edge $-1 $279 27.059161262203411 $369 37.093340484037604 $277 $370 forward 7 unknown #
vertex $-1 $278 $371 #
vertex $-1 $276 $372 #
straight-curve $-1 -59.135412135323918 0 2.9465275151124448 0 -1 0 I I #
coedge $-1 $373 $374 $186 $283 forward $272 $-1 #
edge $-1 $291 -29.369475618549306 $287 29.369475618549306 $282 $375 forward 7 unknown #
coedge $-1 $277 $187 $192 $294 forward $286 $-1 #
coedge $-1 $187 $277 $373 $376 reversed $286 $-1 #
loop $-1 $-1 $277 $271 #
vertex $-1 $376 $377 #
straight-curve $-1 -32.076250873120507 29.369475618549306 6.6109818447726081 1 0 0 I I #
coedge $-1 $274 $189 $374 $378 forward $180 $-1 #
coedge $-1 $189 $274 $191 $293 forward $180 $-1 #
vertex $-1 $378 $379 #
straight-curve $-1 -32.076250873120507 -29.369475618549306 6.6109818447726081 -1 0 0 I I #
edge $-1 $280 0.55715017514118159 $193 4.2216045048013449 $290 $380 forward 7 unknown #
edge $-1 $194 -4.2216045048013449 $279 -0.55715017514118159 $284 $381 forward 7 unknown #
point $-1 -59.135412135323918 -29.369475618549306 6.6109818447726081 #
point $-1 -59.135412135323918 29.369475618549306 6.6109818447726081 #
plane-surface $-1 0 29.369475618549306 0 0 -1 0 0 0 -1 forward_v I I I I #
coedge $-1 $301 $382 $201 $304 reversed $197 $-1 #
coedge $-1 $204 $199 $303 $383 forward $117 $-1 #
coedge $-1 $199 $204 $207 $311 forward $117 $-1 #
coedge $-1 $382 $298 $199 $302 reversed $197 $-1 #
edge $-1 $384 0.93124457592566401 $385 6.3688414112210552 $199 $386 forward 7 unknown #
coedge $-1 $201 $200 $299 $383 reversed $73 $-1 #
edge $-1 $385 52.100871154695454 $306 58.73895123709859 $298 $387 forward 7 unknown #
coedge $-1 $207 $202 $382 $388 forward $208 $-1 #
vertex $-1 $388 $389 #
straight-curve $-1 -22.730052186511429 29.369475618549309 5.1581895080859201 -1 0 0 I I #
vertex $-1 $205 $390 #
straight-curve $-1 -31.784796610721795 30.30072019447497 8.9656358750335698 0 1 0 I I #
straight-curve $-1 -31.784796610721795 -18.746656062674347 38.84946826786873 0 -0.81915203911291934 0.57357644374324357 I I #
edge $-1 $209 31.784796610721795 $384 59.135412135323918 $207 $391 forward 7 unknown #
point $-1 -31.784796610721795 29.369475618549306 8.9656358750335698 #
point $-1 -31.784796610721795 29.369475618549302 5.1581895080859184 #
edge $-1 $392 1 $392 0 $212 $-1 forward 7 unknown #
vertex $-1 $213 $393 #
ellipse-curve $-1 -51.320950556866165 24.475578420218355 3.9555497631228023 0 0.57357644374324357 0.81915203911291934 1 0 0 1 I I #
point $-1 -50.320950556866165 26.650677200901601 7.0619126915597397 #
edge $-1 $394 1 $394 0 $216 $-1 forward 7 unknown #
vertex $-1 $217 $395 #
ellipse-curve $-1 -39.599258189179537 24.475578420218355 3.9555497631228023 0 0.57357644374324357 0.81915203911291934 1 0 0 1 I I #
point $-1 -38.599258189179537 26.650677200901601 7.0619126915597397 #
plane-surface $-1 0 -29.369475618549306 0 0 1 0 0 0 1 forward_v I I I I #
coedge $-1 $333 $332 $325 $396 forward $221 $-1 #
coedge $-1 $325 $223 $225 $329 reversed $139 $-1 #
coedge $-1 $223 $324 $323 $396 reversed $139 $-1 #
coedge $-1 $231 $226 $223 $327 forward $232 $-1 #
edge $-1 $330 -56.367629411752525 $397 -53.246557972289153 $326 $398 forward 7 unknown #
coedge $-1 $225 $224 $333 $399 reversed $87 $-1 #
edge $-1 $400 -6.0598847929656463 $330 -1.2337929905607871e-014 $324 $401 forward 7 unknown #
vertex $-1 $227 $402 #
straight-curve $-1 11.621282535141972 -29.369475618549306 5.8445644355701978 1 0 0 I I #
coedge $-1 $323 $228 $231 $337 forward $221 $-1 #
coedge $-1 $228 $323 $328 $399 forward $221 $-1 #
vertex $-1 $229 $403 #
straight-curve $-1 16.544994550440322 -50.30971145807699 8.9656358750335698 0 -1 0 I I #
straight-curve $-1 16.544994550440322 -29.369475618549316 5.8445644355701916 0 0.85716729658548041 0.51503808176128008 I I #
edge $-1 $233 16.544994550440322 $397 29.940135590127568 $231 $404 forward 7 unknown #
point $-1 16.544994550440322 -29.369475618549306 8.9656358750335698 #
point $-1 16.544994550440322 -29.369475618549306 5.8445644355701978 #
edge $-1 $405 1 $405 0 $236 $-1 forward 7 unknown #
vertex $-1 $237 $406 #
ellipse-curve $-1 20.37217770463667 -25.621759819875127 5.4902663176263928 0 -0.51503808176128008 0.85716729658548041 1.5 0 0 1 I I #
point $-1 21.87217770463667 -26.772308085746371 7.4051001553018683 #
edge $-1 $407 1 $407 0 $240 $-1 forward 7 unknown #
vertex $-1 $241 $408 #
ellipse-curve $-1 26.112952435931206 -25.621759819875127 5.4902663176263928 0 -0.51503808176128008 0.85716729658548041 1.5 0 0 1 I I #
point $-1 27.612952435931206 -26.772308085746371 7.4051001553018683 #
plane-surface $-1 69.169591357158112 0 0 -1 0 0 0 0 1 forward_v I I I I #
coedge $-1 $249 $247 $251 $353 reversed $161 $-1 #
edge $-1 $262 -8.9656358750335698 $355 8.9656358750335698 $261 $409 forward 7 unknown #
vertex $-1 $353 $410 #
straight-curve $-1 -69.169591357158112 -29.369475618549306 0 0 0 -1 I I #
edge $-1 $351 -29.369475618549306 $355 29.369475618549306 $349 $411 forward 7 unknown #
straight-curve $-1 0 -29.369475618549306 -8.9656358750335698 -1 0 0 I I #
vertex $-1 $254 $412 #
straight-curve $-1 0 29.369475618549306 -8.9656358750335698 1 0 0 I I #
point $-1 69.169591357158112 29.369475618549306 -8.9656358750335698 #
point $-1 69.169591357158112 -29.369475618549306 -8.9656358750335698 #
straight-curve $-1 -69.169591357158112 0 8.9656358750335698 0 -1 0 I I #
point $-1 -69.169591357158112 29.369475618549306 8.9656358750335698 #
point $-1 -69.169591357158112 -29.369475618549306 8.9656358750335698 #
straight-curve $-1 69.169591357158112 -29.369475618549306 0 0 0 -1 I I #
straight-curve $-1 69.169591357158112 29.369475618549306 0 0 0 -1 I I #
plane-surface $-1 0 29.369475618549306 0 0 -1 0 0 0 -1 forward_v I I I I #
coedge $-1 $374 $373 $275 $366 forward $272 $-1 #
edge $-1 $369 -29.369475618549306 $367 29.369475618549306 $365 $413 forward 7 unknown #
vertex $-1 $276 $414 #
straight-curve $-1 -32.076250873120507 -29.369475618549306 2.9465275151124448 1 0 0 I I #
vertex $-1 $278 $415 #
straight-curve $-1 -32.076250873120507 29.369475618549306 2.9465275151124448 -1 0 0 I I #
point $-1 -59.135412135323918 29.369475618549306 2.9465275151124448 #
point $-1 -59.135412135323918 -29.369475618549306 2.9465275151124448 #
coedge $-1 $365 $282 $285 $376 forward $272 $-1 #
coedge $-1 $282 $365 $289 $378 reversed $272 $-1 #
straight-curve $-1 -69.169591357158112 0 6.6109818447726081 0 1 0 I I #
edge $-1 $287 -6.6109818447726081 $369 -2.9465275151124448 $285 $416 forward 7 unknown #
point $-1 -69.169591357158112 29.369475618549306 6.6109818447726081 #
edge $-1 $291 -6.6109818447726081 $367 -2.9465275151124448 $374 $417 forward 7 unknown #
point $-1 -69.169591357158112 -29.369475618549306 6.6109818447726081 #
straight-curve $-1 -59.135412135323918 -29.369475618549306 2.3893773399712632 0 0 1 I I #
straight-curve $-1 -59.135412135323918 29.369475618549306 2.3893773399712632 0 0 -1 I I #
coedge $-1 $298 $301 $305 $388 reversed $197 $-1 #
edge $-1 $385 -36.405359948812489 $308 -9.0547444242103658 $299 $418 forward 7 unknown #
vertex $-1 $388 $419 #
vertex $-1 $383 $420 #
straight-curve $-1 -59.135412135323918 30.30072019447497 8.9656358750335698 0 -1 0 I I #
straight-curve $-1 -59.135412135323918 -18.746656062674347 38.84946826786873 0 0.81915203911291934 -0.57357644374324357 I I #
edge $-1 $306 -70.926956430671865 $384 -67.119510063724221 $305 $421 forward 7 unknown #
point $-1 -59.135412135323918 29.369475618549306 5.1581895080859219 #
point $-1 -31.784796610721795 23.931878783253914 8.9656358750335698 #
straight-curve $-1 0 29.369475618549306 8.9656358750335698 -1 0 0 I I #
vertex $-1 $314 $422 #
point $-1 -50.320950556866165 24.475578420218355 3.9555497631228023 #
vertex $-1 $318 $423 #
point $-1 -38.599258189179537 24.475578420218355 3.9555497631228023 #
edge $-1 $397 20.940235839527684 $400 26.134570905133501 $323 $424 forward 7 unknown #
vertex $-1 $327 $425 #
straight-curve $-1 29.940135590127568 -29.369475618549302 62.212193847322723 0 0 1 I I #
edge $-1 $400 -18.318853054985595 $334 -4.9237120152983493 $333 $426 forward 7 unknown #
vertex $-1 $399 $427 #
straight-curve $-1 29.940135590127568 -29.369475618549316 5.8445644355701916 0 -0.85716729658548041 -0.51503808176128008 I I #
point $-1 29.940135590127568 -29.369475618549306 5.8445644355701978 #
point $-1 16.544994550440322 -24.175140552943489 8.9656358750335698 #
straight-curve $-1 0 -29.369475618549306 8.9656358750335698 1 0 0 I I #
vertex $-1 $340 $428 #
point $-1 21.87217770463667 -25.621759819875127 5.4902663176263928 #
vertex $-1 $344 $429 #
point $-1 27.612952435931206 -25.621759819875127 5.4902663176263928 #
straight-curve $-1 -69.169591357158112 29.369475618549306 0 0 0 -1 I I #
point $-1 -69.169591357158112 -29.369475618549306 -8.9656358750335698 #
straight-curve $-1 -69.169591357158112 0 -8.9656358750335698 0 1 0 I I #
point $-1 -69.169591357158112 29.369475618549306 -8.9656358750335698 #
straight-curve $-1 -69.169591357158112 0 2.9465275151124448 0 -1 0 I I #
point $-1 -69.169591357158112 -29.369475618549306 2.9465275151124448 #
point $-1 -69.169591357158112 29.369475618549306 2.9465275151124448 #
straight-curve $-1 -69.169591357158112 29.369475618549306 0 0 0 -1 I I #
straight-curve $-1 -69.169591357158112 -29.369475618549306 0 0 0 -1 I I #
straight-curve $-1 -22.730052186511429 23.931878783253907 8.9656358750335734 1 0 0 I I #
point $-1 -59.135412135323918 29.369475618549306 8.9656358750335698 #
point $-1 -59.135412135323918 23.931878783253914 8.9656358750335698 #
straight-curve $-1 -59.135412135323918 29.369475618549306 76.08514593875779 0 0 1 I I #
point $-1 -51.320950556866165 23.902001976475113 3.1363977240098833 #
point $-1 -39.599258189179537 23.902001976475113 3.1363977240098833 #
straight-curve $-1 29.940135590127568 -50.30971145807699 8.9656358750335698 0 1 0 I I #
point $-1 29.940135590127568 -29.369475618549306 8.9656358750335698 #
straight-curve $-1 11.621282535141972 -24.175140552943489 8.9656358750335698 -1 0 0 I I #
point $-1 29.940135590127568 -24.175140552943489 8.9656358750335698 #
point $-1 20.37217770463667 -24.849202697233206 4.2045153727481726 #
point $-1 26.112952435931206 -24.849202697233206 4.2045153727481726 #
End-of-ACIS-data 