500 0 7 0           
7 Unknown 11 ACIS 5.0 NT 24 Fri Mar 26 02:14:10 1999 
-1 9.9999999999999995e-007 1e-010 
body $-1 $7 $-1 $8 #
body $-1 $9 $-1 $10 #
body $-1 $11 $-1 $12 #
body $-1 $13 $-1 $14 #
body $-1 $15 $-1 $16 #
body $-1 $17 $-1 $18 #
body $-1 $19 $-1 $20 #
lump $-1 $-1 $21 $0 #
transform $-1 1 0 0 0 1 0 0 0 1 67.744987334818575 40.833271991908539 19.403873150780036 1 rotate no_reflect no_shear #
lump $-1 $-1 $22 $1 #
transform $-1 1 0 0 0 1 0 0 0 1 67.744987334818575 40.833271991908539 19.403873150780036 1 rotate no_reflect no_shear #
lump $-1 $-1 $23 $2 #
transform $-1 1 0 0 0 1 0 0 0 1 67.744987334818575 40.833271991908539 19.403873150780036 1 rotate no_reflect no_shear #
lump $-1 $-1 $24 $3 #
transform $-1 1 0 0 0 1 0 0 0 1 67.744987334818575 40.833271991908539 19.403873150780036 1 rotate no_reflect no_shear #
lump $-1 $-1 $25 $4 #
transform $-1 1 0 0 0 1 0 0 0 1 67.744987334818575 40.833271991908539 19.403873150780036 1 rotate no_reflect no_shear #
lump $-1 $-1 $26 $5 #
transform $-1 1 0 0 0 1 0 0 0 1 67.744987334818575 40.833271991908539 19.403873150780036 1 rotate no_reflect no_shear #
lump $-1 $-1 $27 $6 #
transform $-1 1 0 0 0 1 0 0 0 1 67.744987334818575 40.833271991908539 19.403873150780036 1 rotate no_reflect no_shear #
shell $-1 $-1 $-1 $28 $-1 $7 #
shell $-1 $-1 $-1 $29 $-1 $9 #
shell $-1 $-1 $-1 $30 $-1 $11 #
shell $-1 $-1 $-1 $31 $-1 $13 #
shell $-1 $-1 $-1 $32 $-1 $15 #
shell $-1 $-1 $-1 $33 $-1 $17 #
shell $-1 $-1 $-1 $34 $-1 $19 #
face $-1 $35 $36 $21 $-1 $37 forward single #
face $-1 $38 $39 $22 $-1 $40 forward single #
face $-1 $41 $42 $23 $-1 $43 reversed single #
face $-1 $44 $45 $24 $-1 $46 forward single #
face $-1 $47 $48 $25 $-1 $49 reversed single #
face $-1 $50 $51 $26 $-1 $52 forward single #
face $-1 $53 $54 $27 $-1 $55 forward single #
face $-1 $56 $57 $21 $-1 $58 reversed single #
loop $-1 $-1 $59 $28 #
plane-surface $-1 0 0 19.403873150780036 0 0 1 1 0 0 forward_v I I I I #
face $-1 $60 $61 $22 $-1 $62 reversed single #
loop $-1 $-1 $63 $29 #
plane-surface $-1 0 -40.833271991908539 0 0 1 0 0 0 1 forward_v I I I I #
face $-1 $64 $65 $23 $-1 $66 reversed single #
loop $-1 $-1 $67 $30 #
plane-surface $-1 57.716804733384464 28.992599618008725 202.14457018836032 0 1 0 0.66913061440640931 0 0.74314481823134659 forward_v I I I I #
face $-1 $68 $69 $24 $-1 $70 forward single #
loop $-1 $71 $72 $31 #
cone-surface $-1 60.485028209586353 34.912935804958643 12.345738498457465 -0.66913061440640931 0 -0.74314481823134659 1.4862896364626932 0 -1.3382612288128186 1 I I 0 1 2 forward I I I I #
face $-1 $73 $74 $25 $-1 $75 reversed single #
loop $-1 $-1 $76 $32 #
plane-surface $-1 -177.35868051880504 -25.811060707401815 84.558116814160655 0 1 0 -0.80901700255871778 0 0.5877852410284794 forward_v I I I I #
face $-1 $77 $78 $26 $-1 $79 forward single #
loop $-1 $80 $81 $33 #
cone-surface $-1 -60.499846840967145 -22.339682707359348 10.720581506730667 0.80901700255871778 0 -0.5877852410284794 0.8816778615427191 0 1.2135255038380768 1 I I 0 1 1.5 forward I I I I #
face $-1 $82 $83 $27 $-1 $84 forward single #
loop $-1 $85 $86 $34 #
cone-surface $-1 -60.499846840967145 -17.132615707295649 10.720581506730667 0.80901700255871778 0 -0.5877852410284794 0.8816778615427191 0 1.2135255038380768 1 I I 0 1 1.5 forward I I I I #
face $-1 $87 $88 $21 $-1 $89 reversed single #
loop $-1 $-1 $90 $35 #
plane-surface $-1 0 0 -19.403873150780036 0 0 1 1 0 0 forward_v I I I I #
coedge $-1 $91 $92 $93 $94 forward $36 $-1 #
face $-1 $95 $96 $22 $-1 $97 forward single #
loop $-1 $-1 $98 $38 #
plane-surface $-1 -67.744987334818575 0 0 1 0 0 0 0 -1 forward_v I I I I #
coedge $-1 $99 $100 $101 $102 forward $39 $-1 #
face $-1 $103 $104 $23 $-1 $105 forward single #
loop $-1 $-1 $106 $41 #
plane-surface $-1 -32.943685263218683 34.912935804958629 101.45589759032306 0.66913061440640931 0 0.74314481823134659 0.74314481823134659 0 -0.66913061440640931 forward_v I I I I #
coedge $-1 $107 $108 $109 $110 reversed $42 $-1 #
face $-1 $-1 $111 $24 $-1 $112 forward single #
loop $-1 $113 $114 $44 #
cone-surface $-1 57.336273156418002 34.912935804958643 8.8486918064335995 -0.66913061440640931 0 -0.74314481823134659 0.74314481823134659 0 -0.66913061440640931 1 I I -0.70710678118654746 0.70710678118654746 1 forward I I I I #
loop $-1 $-1 $115 $31 #
coedge $-1 $72 $72 $116 $117 reversed $45 $-1 #
face $-1 $118 $119 $25 $-1 $120 reversed single #
loop $-1 $-1 $121 $47 #
plane-surface $-1 -67.744987334818603 -19.7361492073275 4.9191093960254193 -0.80901700255871778 0 0.5877852410284794 0.5877852410284794 0 0.80901700255871778 forward_v I I I I #
coedge $-1 $122 $123 $124 $125 reversed $48 $-1 #
face $-1 $-1 $126 $26 $-1 $127 forward single #
loop $-1 $128 $129 $50 #
cone-surface $-1 -57.909841879102707 -22.339682707359348 8.838832809287247 0.80901700255871778 0 -0.5877852410284794 0.44083893077135955 0 0.60676275191903839 1 I I -0.70710678118654757 0.70710678118654757 0.75 forward I I I I #
loop $-1 $-1 $130 $33 #
coedge $-1 $81 $81 $131 $132 reversed $51 $-1 #
face $-1 $-1 $133 $27 $-1 $134 forward single #
loop $-1 $135 $136 $53 #
cone-surface $-1 -57.909841879102707 -17.132615707295649 8.838832809287247 0.80901700255871778 0 -0.5877852410284794 0.44083893077135955 0 0.60676275191903839 1 I I -0.70710678118654757 0.70710678118654757 0.75 forward I I I I #
loop $-1 $-1 $137 $34 #
coedge $-1 $86 $86 $138 $139 reversed $54 $-1 #
face $-1 $140 $141 $21 $-1 $142 reversed single #
loop $-1 $-1 $143 $56 #
plane-surface $-1 0 -40.833271991908539 0 0 1 0 0 0 1 forward_v I I I I #
coedge $-1 $144 $145 $146 $147 forward $57 $-1 #
coedge $-1 $148 $59 $149 $150 forward $36 $-1 #
coedge $-1 $59 $148 $151 $152 forward $36 $-1 #
coedge $-1 $153 $154 $59 $94 reversed $155 $-1 #
edge $-1 $156 -40.833271991908539 $157 40.833271991908539 $93 $158 forward 7 unknown #
face $-1 $159 $160 $22 $-1 $161 reversed single #
loop $-1 $-1 $162 $60 #
plane-surface $-1 0 -48.344377634161901 -1.2178680052428703 0 0 1 1 0 0 forward_v I I I I #
coedge $-1 $163 $164 $100 $165 forward $61 $-1 #
coedge $-1 $166 $63 $167 $168 reversed $39 $-1 #
coedge $-1 $63 $166 $98 $165 reversed $39 $-1 #
coedge $-1 $169 $162 $63 $102 reversed $96 $-1 #
edge $-1 $170 -67.744987334818575 $171 67.744987334818575 $101 $172 forward 7 unknown #
face $-1 $173 $174 $23 $-1 $175 reversed single #
loop $-1 $-1 $176 $64 #
plane-surface $-1 0 0 19.403873150780036 0 0 1 1 0 0 forward_v I I I I #
coedge $-1 $177 $178 $179 $180 reversed $65 $-1 #
coedge $-1 $108 $67 $181 $182 reversed $42 $-1 #
coedge $-1 $67 $107 $177 $183 reversed $42 $-1 #
coedge $-1 $179 $184 $67 $110 forward $174 $-1 #
edge $-1 $185 81.668411943400116 $186 90.276877500460245 $109 $187 forward 7 unknown #
loop $-1 $-1 $116 $68 #
plane-surface $-1 -32.943685263218683 34.912935804958629 101.45589759032306 0.66913061440640931 0 0.74314481823134659 0.74314481823134659 0 -0.66913061440640931 forward_v I I I I #
loop $-1 $-1 $188 $44 #
coedge $-1 $114 $114 $115 $189 reversed $69 $-1 #
coedge $-1 $115 $115 $114 $189 forward $71 $-1 #
coedge $-1 $116 $116 $72 $117 forward $111 $-1 #
edge $-1 $190 0 $190 6.2831853071796004 $116 $191 forward 7 unknown #
face $-1 $192 $193 $25 $-1 $194 reversed single #
loop $-1 $-1 $195 $73 #
plane-surface $-1 -177.35868051880504 -13.661237707253184 84.558116814160655 0 -1 0 0.80901700255871778 0 -0.5877852410284794 forward_v I I I I #
coedge $-1 $196 $197 $198 $199 reversed $74 $-1 #
coedge $-1 $123 $76 $200 $201 reversed $48 $-1 #
coedge $-1 $76 $122 $196 $202 reversed $48 $-1 #
coedge $-1 $198 $203 $76 $125 forward $204 $-1 #
edge $-1 $205 20.934352924583948 $206 31.458149492395968 $124 $207 forward 7 unknown #
loop $-1 $-1 $131 $77 #
plane-surface $-1 -67.744987334818603 -19.7361492073275 4.9191093960254193 -0.80901700255871778 0 0.5877852410284794 0.5877852410284794 0 0.80901700255871778 forward_v I I I I #
loop $-1 $-1 $208 $50 #
coedge $-1 $129 $129 $130 $209 reversed $78 $-1 #
coedge $-1 $130 $130 $129 $209 forward $80 $-1 #
coedge $-1 $131 $131 $81 $132 forward $126 $-1 #
edge $-1 $210 0 $210 6.2831853071796004 $131 $211 forward 7 unknown #
loop $-1 $-1 $138 $82 #
plane-surface $-1 -67.744987334818603 -19.7361492073275 4.9191093960254193 -0.80901700255871778 0 0.5877852410284794 0.5877852410284794 0 0.80901700255871778 forward_v I I I I #
loop $-1 $-1 $212 $53 #
coedge $-1 $136 $136 $137 $213 reversed $83 $-1 #
coedge $-1 $137 $137 $136 $213 forward $85 $-1 #
coedge $-1 $138 $138 $86 $139 forward $133 $-1 #
edge $-1 $214 0 $214 6.2831853071796004 $138 $215 forward 7 unknown #
face $-1 $216 $217 $21 $-1 $218 reversed single #
loop $-1 $-1 $219 $87 #
plane-surface $-1 -67.744987334818575 0 0 1 0 0 0 0 -1 forward_v I I I I #
coedge $-1 $220 $151 $221 $222 forward $88 $-1 #
coedge $-1 $223 $90 $220 $224 forward $57 $-1 #
coedge $-1 $90 $223 $225 $226 forward $57 $-1 #
coedge $-1 $154 $153 $90 $147 reversed $155 $-1 #
edge $-1 $227 -40.833271991908539 $228 40.833271991908539 $146 $229 forward 7 unknown #
coedge $-1 $92 $91 $230 $231 forward $36 $-1 #
coedge $-1 $232 $233 $91 $150 reversed $217 $-1 #
edge $-1 $157 -67.744987334818575 $234 67.744987334818575 $149 $235 forward 7 unknown #
coedge $-1 $143 $236 $92 $152 reversed $88 $-1 #
edge $-1 $237 -67.744987334818575 $156 67.744987334818575 $151 $238 forward 7 unknown #
coedge $-1 $146 $93 $236 $239 forward $155 $-1 #
coedge $-1 $93 $146 $232 $240 reversed $155 $-1 #
loop $-1 $-1 $153 $216 #
vertex $-1 $94 $241 #
vertex $-1 $94 $242 #
straight-curve $-1 67.744987334818575 0 19.403873150780036 0 1 0 I I #
face $-1 $243 $244 $22 $-1 $245 reversed single #
loop $-1 $-1 $246 $95 #
plane-surface $-1 0 -48.344377634161901 -8.3406948442031776 0 0 1 1 0 0 forward_v I I I I #
coedge $-1 $101 $247 $248 $249 forward $96 $-1 #
coedge $-1 $250 $98 $251 $252 reversed $61 $-1 #
coedge $-1 $98 $250 $169 $253 reversed $61 $-1 #
edge $-1 $170 1.2178680052428703 $254 8.3406948442031776 $98 $255 forward 7 unknown #
coedge $-1 $100 $99 $256 $257 forward $39 $-1 #
coedge $-1 $248 $258 $99 $168 forward $259 $-1 #
edge $-1 $260 -8.3406948442031776 $171 -1.2178680052428703 $167 $261 forward 7 unknown #
coedge $-1 $247 $101 $164 $253 forward $96 $-1 #
vertex $-1 $165 $262 #
vertex $-1 $249 $263 #
straight-curve $-1 0 -40.833271991908539 -1.2178680052428703 1 0 0 I I #
face $-1 $-1 $264 $23 $-1 $265 reversed single #
loop $-1 $-1 $109 $103 #
plane-surface $-1 67.744987334818575 0 0 -1 0 0 0 0 1 forward_v I I I I #
coedge $-1 $181 $266 $267 $268 forward $104 $-1 #
coedge $-1 $267 $106 $108 $183 forward $65 $-1 #
coedge $-1 $106 $267 $269 $270 reversed $65 $-1 #
coedge $-1 $271 $109 $106 $180 forward $174 $-1 #
edge $-1 $186 11.536131715529411 $272 23.376804089429225 $179 $273 forward 7 unknown #
coedge $-1 $274 $176 $107 $182 forward $104 $-1 #
edge $-1 $275 29.325915595185805 $185 38.886584968126343 $181 $276 forward 7 unknown #
edge $-1 $186 -135.48997466963715 $275 -122.62482491902119 $108 $277 forward 7 unknown #
coedge $-1 $109 $271 $274 $278 reversed $174 $-1 #
vertex $-1 $278 $279 #
vertex $-1 $110 $280 #
straight-curve $-1 67.744987334818575 28.992599618008725 101.07228509418016 0 0 -1 I I #
coedge $-1 $188 $188 $-1 $281 reversed $113 $-1 #
edge $-1 $282 0 $282 6.2831853071796004 $114 $283 forward 7 unknown #
vertex $-1 $117 $284 #
ellipse-curve $-1 62.964652648348292 34.912935804958643 15.099640372249979 0.66913061440640931 0 0.74314481823134659 1.4862896364626932 0 -1.3382612288128186 1 I I #
face $-1 $-1 $204 $25 $-1 $285 forward single #
loop $-1 $-1 $286 $118 #
plane-surface $-1 -67.744987334818575 0 0 1 0 0 0 0 -1 forward_v I I I I #
coedge $-1 $287 $288 $289 $290 reversed $119 $-1 #
coedge $-1 $291 $121 $123 $202 forward $74 $-1 #
coedge $-1 $121 $291 $287 $292 forward $74 $-1 #
coedge $-1 $289 $124 $121 $199 forward $204 $-1 #
edge $-1 $206 -15.942986103738065 $293 -3.7931631035894338 $198 $294 forward 7 unknown #
coedge $-1 $295 $296 $122 $201 forward $193 $-1 #
edge $-1 $297 -37.359949011054866 $205 -22.875185256300291 $200 $298 forward 7 unknown #
edge $-1 $206 -17.904152457788825 $297 -4.8322124813089328e-014 $123 $299 forward 7 unknown #
coedge $-1 $124 $289 $295 $300 forward $204 $-1 #
loop $-1 $-1 $289 $192 #
vertex $-1 $201 $301 #
vertex $-1 $125 $302 #
straight-curve $-1 -88.679340259402522 -25.811060707401815 19.403873150780036 1 0 0 I I #
coedge $-1 $208 $208 $-1 $303 reversed $128 $-1 #
edge $-1 $304 0 $304 6.2831853071796004 $129 $305 forward 7 unknown #
vertex $-1 $132 $306 #
ellipse-curve $-1 -62.483089050912568 -22.339682707359348 12.161491273402744 -0.80901700255871778 0 0.5877852410284794 0.8816778615427191 0 1.2135255038380768 1 I I #
coedge $-1 $212 $212 $-1 $307 reversed $135 $-1 #
edge $-1 $308 0 $308 6.2831853071796004 $136 $309 forward 7 unknown #
vertex $-1 $139 $310 #
ellipse-curve $-1 -62.483089050912568 -17.132615707295649 12.161491273402744 -0.80901700255871778 0 0.5877852410284794 0.8816778615427191 0 1.2135255038380768 1 I I #
face $-1 $-1 $155 $21 $-1 $311 reversed single #
loop $-1 $-1 $232 $140 #
plane-surface $-1 0 40.833271991908539 0 0 -1 0 0 0 -1 forward_v I I I I #
coedge $-1 $312 $230 $233 $313 forward $141 $-1 #
coedge $-1 $236 $143 $144 $224 reversed $88 $-1 #
coedge $-1 $230 $312 $143 $222 reversed $141 $-1 #
edge $-1 $237 -19.403873150780036 $314 19.403873150780036 $221 $315 forward 7 unknown #
coedge $-1 $145 $144 $312 $316 forward $57 $-1 #
edge $-1 $228 -67.744987334818575 $314 67.744987334818575 $220 $317 forward 7 unknown #
coedge $-1 $233 $232 $145 $226 reversed $217 $-1 #
edge $-1 $318 -67.744987334818575 $227 67.744987334818575 $225 $319 forward 7 unknown #
vertex $-1 $147 $320 #
vertex $-1 $239 $321 #
straight-curve $-1 67.744987334818575 0 -19.403873150780036 0 -1 0 I I #
coedge $-1 $219 $221 $148 $231 reversed $141 $-1 #
edge $-1 $234 -40.833271991908539 $237 40.833271991908539 $230 $322 forward 7 unknown #
coedge $-1 $225 $149 $154 $240 forward $217 $-1 #
coedge $-1 $149 $225 $219 $313 reversed $217 $-1 #
vertex $-1 $150 $323 #
straight-curve $-1 0 40.833271991908539 19.403873150780036 -1 0 0 I I #
coedge $-1 $151 $220 $153 $239 reversed $88 $-1 #
vertex $-1 $231 $324 #
straight-curve $-1 0 -40.833271991908539 19.403873150780036 1 0 0 I I #
edge $-1 $156 -19.403873150780036 $228 19.403873150780036 $153 $325 forward 7 unknown #
edge $-1 $157 -19.403873150780036 $227 19.403873150780036 $154 $326 forward 7 unknown #
point $-1 67.744987334818575 -40.833271991908539 19.403873150780036 #
point $-1 67.744987334818575 40.833271991908539 19.403873150780036 #
face $-1 $-1 $259 $22 $-1 $327 reversed single #
loop $-1 $-1 $328 $159 #
plane-surface $-1 0 -55.855483276415264 -4.779281424723024 0 1 0 0 0 1 forward_v I I I I #
coedge $-1 $329 $256 $258 $330 forward $160 $-1 #
coedge $-1 $162 $169 $331 $332 forward $96 $-1 #
coedge $-1 $333 $167 $162 $249 reversed $259 $-1 #
edge $-1 $334 -7.5111056422533622 $171 7.5111056422533622 $248 $335 forward 7 unknown #
coedge $-1 $164 $163 $328 $336 reversed $61 $-1 #
coedge $-1 $256 $329 $163 $252 forward $160 $-1 #
edge $-1 $337 -7.5111056422533622 $254 7.5111056422533622 $163 $338 forward 7 unknown #
edge $-1 $170 -7.5111056422533622 $339 7.5111056422533622 $164 $340 forward 7 unknown #
vertex $-1 $165 $341 #
straight-curve $-1 -67.744987334818575 -40.833271991908539 0 0 0 -1 I I #
coedge $-1 $246 $251 $166 $257 reversed $160 $-1 #
edge $-1 $260 -67.744987334818575 $254 67.744987334818575 $256 $342 forward 7 unknown #
coedge $-1 $167 $333 $246 $330 reversed $259 $-1 #
loop $-1 $-1 $167 $243 #
vertex $-1 $168 $343 #
straight-curve $-1 67.744987334818575 -40.833271991908539 0 0 0 1 I I #
point $-1 -67.744987334818575 -40.833271991908539 -1.2178680052428703 #
point $-1 67.744987334818575 -40.833271991908539 -1.2178680052428703 #
loop $-1 $-1 $269 $173 #
plane-surface $-1 0 40.833271991908539 0 0 -1 0 0 0 -1 forward_v I I I I #
coedge $-1 $176 $274 $344 $345 forward $104 $-1 #
coedge $-1 $178 $177 $176 $268 reversed $65 $-1 #
edge $-1 $346 -23.376804089429218 $275 -11.536131715529411 $176 $347 forward 7 unknown #
coedge $-1 $344 $348 $178 $270 forward $264 $-1 #
edge $-1 $272 -89.305386626351179 $346 -76.440236875735224 $269 $349 forward 7 unknown #
coedge $-1 $184 $179 $348 $350 reversed $174 $-1 #
vertex $-1 $180 $351 #
straight-curve $-1 67.744987334818575 17.456467902479314 10.795407593719922 0 1 0 I I #
coedge $-1 $266 $181 $184 $278 forward $104 $-1 #
vertex $-1 $182 $352 #
straight-curve $-1 28.858402366692232 28.992599618008725 19.403873150780043 1 0 0 I I #
straight-curve $-1 -32.943685263218683 28.992599618008725 101.45589759032306 -0.74314481823134659 0 0.66913061440640931 I I #
edge $-1 $185 28.992599618008725 $353 40.833271991908539 $184 $354 forward 7 unknown #
point $-1 67.744987334818575 28.992599618008725 19.403873150780036 #
point $-1 67.744987334818575 28.992599618008725 10.795407593719915 #
edge $-1 $355 1 $355 0 $188 $-1 forward 7 unknown #
vertex $-1 $189 $356 #
ellipse-curve $-1 58.005403770824415 34.912935804958643 9.5918366246649462 0.66913061440640931 0 0.74314481823134659 1.4862896364626932 0 -1.3382612288128186 1 I I #
point $-1 64.450942284810992 34.912935804958643 13.761379143437164 #
plane-surface $-1 0 0 19.403873150780036 0 0 1 1 0 0 forward_v I I I I #
coedge $-1 $296 $295 $288 $357 forward $193 $-1 #
coedge $-1 $288 $195 $197 $292 reversed $119 $-1 #
coedge $-1 $195 $287 $286 $357 reversed $119 $-1 #
coedge $-1 $203 $198 $195 $290 forward $204 $-1 #
edge $-1 $293 -31.458149492395968 $358 -20.934352924583948 $289 $359 forward 7 unknown #
coedge $-1 $197 $196 $296 $360 reversed $74 $-1 #
edge $-1 $361 4.8322124813089328e-014 $293 17.904152457788825 $287 $362 forward 7 unknown #
vertex $-1 $199 $363 #
straight-curve $-1 -57.221190767006554 -9.8680746036637501 19.403873150780036 0 1 0 I I #
coedge $-1 $286 $200 $203 $300 reversed $193 $-1 #
coedge $-1 $200 $286 $291 $360 forward $193 $-1 #
vertex $-1 $201 $364 #
straight-curve $-1 -67.744987334818575 -25.811060707401815 42.279058407080328 0 0 1 I I #
straight-curve $-1 -67.744987334818603 -25.811060707401815 4.9191093960254193 -0.5877852410284794 0 -0.80901700255871778 I I #
edge $-1 $358 13.661237707253184 $205 25.811060707401815 $295 $365 forward 7 unknown #
point $-1 -67.744987334818575 -25.811060707401815 19.403873150780036 #
point $-1 -57.221190767006554 -25.811060707401815 19.403873150780036 #
edge $-1 $366 1 $366 0 $208 $-1 forward 7 unknown #
vertex $-1 $209 $367 #
ellipse-curve $-1 -58.516604631021742 -22.339682707359348 9.2796717400586068 -0.80901700255871778 0 0.5877852410284794 0.8816778615427191 0 1.2135255038380768 1 I I #
point $-1 -61.601411189369827 -22.339682707359348 13.375016777240804 #
edge $-1 $368 1 $368 0 $212 $-1 forward 7 unknown #
vertex $-1 $213 $369 #
ellipse-curve $-1 -58.516604631021742 -17.132615707295649 9.2796717400586068 -0.80901700255871778 0 0.5877852410284794 0.8816778615427191 0 1.2135255038380768 1 I I #
point $-1 -61.601411189369827 -17.132615707295649 13.375016777240804 #
plane-surface $-1 67.744987334818575 0 0 -1 0 0 0 0 1 forward_v I I I I #
coedge $-1 $221 $219 $223 $316 reversed $141 $-1 #
edge $-1 $234 -19.403873150780036 $318 19.403873150780036 $233 $370 forward 7 unknown #
vertex $-1 $316 $371 #
straight-curve $-1 -67.744987334818575 -40.833271991908539 0 0 0 -1 I I #
edge $-1 $314 -40.833271991908539 $318 40.833271991908539 $312 $372 forward 7 unknown #
straight-curve $-1 0 -40.833271991908539 -19.403873150780036 -1 0 0 I I #
vertex $-1 $226 $373 #
straight-curve $-1 0 40.833271991908539 -19.403873150780036 1 0 0 I I #
point $-1 67.744987334818575 40.833271991908539 -19.403873150780036 #
point $-1 67.744987334818575 -40.833271991908539 -19.403873150780036 #
straight-curve $-1 -67.744987334818575 0 19.403873150780036 0 -1 0 I I #
point $-1 -67.744987334818575 40.833271991908539 19.403873150780036 #
point $-1 -67.744987334818575 -40.833271991908539 19.403873150780036 #
straight-curve $-1 67.744987334818575 -40.833271991908539 0 0 0 -1 I I #
straight-curve $-1 67.744987334818575 40.833271991908539 0 0 0 -1 I I #
plane-surface $-1 67.744987334818575 0 0 -1 0 0 0 0 1 forward_v I I I I #
coedge $-1 $374 $331 $250 $336 forward $244 $-1 #
coedge $-1 $251 $246 $374 $375 forward $160 $-1 #
edge $-1 $260 -7.5111056422533622 $376 7.5111056422533622 $258 $377 forward 7 unknown #
coedge $-1 $328 $378 $247 $332 reversed $244 $-1 #
edge $-1 $339 -67.744987334818575 $334 67.744987334818575 $331 $379 forward 7 unknown #
coedge $-1 $258 $248 $378 $380 forward $259 $-1 #
vertex $-1 $249 $381 #
straight-curve $-1 67.744987334818575 -48.344377634161901 -1.2178680052428703 0 1 0 I I #
edge $-1 $339 -3.5614134194801537 $337 3.5614134194801537 $250 $382 forward 7 unknown #
vertex $-1 $252 $383 #
straight-curve $-1 -67.744987334818575 -48.344377634161901 -8.3406948442031776 0 1 0 I I #
vertex $-1 $253 $384 #
straight-curve $-1 -67.744987334818575 -48.344377634161901 -1.2178680052428703 0 -1 0 I I #
point $-1 -67.744987334818575 -40.833271991908539 -8.3406948442031776 #
straight-curve $-1 0 -40.833271991908539 -8.3406948442031776 -1 0 0 I I #
point $-1 67.744987334818575 -40.833271991908539 -8.3406948442031776 #
coedge $-1 $348 $269 $266 $345 reversed $264 $-1 #
edge $-1 $353 -67.744987334818575 $346 -58.184317961878037 $344 $385 forward 7 unknown #
vertex $-1 $270 $386 #
straight-curve $-1 58.184317961878037 17.456467902479314 19.403873150780029 0 -1 0 I I #
coedge $-1 $269 $344 $271 $350 forward $264 $-1 #
straight-curve $-1 1.3781520232986963 40.833271991908539 70.552375816812201 -0.74314481823134659 0 0.66913061440640931 I I #
edge $-1 $353 -19.403873150780036 $272 -10.795407593719915 $271 $387 forward 7 unknown #
point $-1 67.744987334818575 40.833271991908539 10.795407593719915 #
point $-1 58.184317961878037 28.992599618008725 19.403873150780029 #
vertex $-1 $278 $388 #
straight-curve $-1 67.744987334818575 0 19.403873150780036 0 1 0 I I #
vertex $-1 $281 $389 #
point $-1 59.491693407287102 34.912935804958643 8.2535753958521276 #
edge $-1 $358 22.875185256300291 $361 37.359949011054866 $286 $390 forward 7 unknown #
vertex $-1 $300 $391 #
straight-curve $-1 -88.679340259402522 -13.661237707253184 19.403873150780036 -1 0 0 I I #
edge $-1 $361 3.7931631035894338 $297 15.942986103738065 $296 $392 forward 7 unknown #
vertex $-1 $360 $393 #
straight-curve $-1 -67.744987334818603 -13.661237707253184 4.9191093960254193 0.5877852410284794 0 0.80901700255871778 I I #
point $-1 -57.221190767006554 -13.661237707253184 19.403873150780036 #
point $-1 -67.744987334818575 -25.811060707401815 4.9191093960254584 #
straight-curve $-1 -67.744987334818575 0 19.403873150780036 0 -1 0 I I #
vertex $-1 $303 $394 #
point $-1 -57.63492676947903 -22.339682707359348 10.493197243896683 #
vertex $-1 $307 $395 #
point $-1 -57.63492676947903 -17.132615707295649 10.493197243896683 #
straight-curve $-1 -67.744987334818575 40.833271991908539 0 0 0 -1 I I #
point $-1 -67.744987334818575 -40.833271991908539 -19.403873150780036 #
straight-curve $-1 -67.744987334818575 0 -19.403873150780036 0 1 0 I I #
point $-1 -67.744987334818575 40.833271991908539 -19.403873150780036 #
coedge $-1 $378 $328 $329 $375 reversed $244 $-1 #
edge $-1 $376 -67.744987334818575 $337 67.744987334818575 $374 $396 forward 7 unknown #
vertex $-1 $380 $397 #
straight-curve $-1 67.744987334818575 -48.344377634161901 -8.3406948442031776 0 -1 0 I I #
coedge $-1 $331 $374 $333 $380 reversed $244 $-1 #
straight-curve $-1 0 -55.855483276415264 -1.2178680052428703 1 0 0 I I #
edge $-1 $334 -3.5614134194801537 $376 3.5614134194801537 $333 $398 forward 7 unknown #
point $-1 67.744987334818575 -55.855483276415264 -1.2178680052428703 #
straight-curve $-1 -67.744987334818575 -55.855483276415264 -4.779281424723024 0 0 -1 I I #
point $-1 -67.744987334818575 -55.855483276415264 -8.3406948442031776 #
point $-1 -67.744987334818575 -55.855483276415264 -1.2178680052428703 #
straight-curve $-1 0 40.833271991908539 19.403873150780036 -1 0 0 I I #
point $-1 58.184317961878037 40.833271991908532 19.403873150780029 #
straight-curve $-1 67.744987334818575 40.833271991908539 0 0 0 -1 I I #
point $-1 67.744987334818575 40.833271991908539 19.403873150780036 #
point $-1 56.66714254201159 34.912935804958643 8.1055469882022528 #
straight-curve $-1 -67.744987334818575 -13.661237707253184 42.279058407080328 0 0 -1 I I #
point $-1 -67.744987334818575 -13.661237707253184 19.403873150780036 #
straight-curve $-1 -67.744987334818575 -9.8680746036637501 4.9191093960254593 0 -1 0 I I #
point $-1 -67.744987334818575 -13.661237707253184 4.9191093960254584 #
point $-1 -57.303079127183672 -22.339682707359348 8.3979938785158872 #
point $-1 -57.303079127183672 -17.132615707295649 8.3979938785158872 #
straight-curve $-1 0 -55.855483276415264 -8.3406948442031776 -1 0 0 I I #
point $-1 67.744987334818575 -55.855483276415264 -8.3406948442031776 #
straight-curve $-1 67.744987334818575 -55.855483276415264 -4.779281424723024 0 0 -1 I I #
End-of-ACIS-data 