500 0 8 0           
7 Unknown 11 ACIS 5.0 NT 24 Thu Mar 25 20:04:22 1999 
-1 9.9999999999999995e-007 1e-010 
body $-1 $8 $-1 $9 #
body $-1 $10 $-1 $11 #
body $-1 $12 $-1 $13 #
body $-1 $14 $-1 $15 #
body $-1 $16 $-1 $17 #
body $-1 $18 $-1 $19 #
body $-1 $20 $-1 $21 #
body $-1 $22 $-1 $23 #
lump $-1 $-1 $24 $0 #
transform $-1 1 0 0 0 1 0 0 0 1 51.322367015594956 28.089390715789566 12.82440519755278 1 rotate no_reflect no_shear #
lump $-1 $-1 $25 $1 #
transform $-1 1 0 0 0 1 0 0 0 1 51.322367015594956 28.089390715789566 12.82440519755278 1 rotate no_reflect no_shear #
lump $-1 $-1 $26 $2 #
transform $-1 1 0 0 0 1 0 0 0 1 51.322367015594956 28.089390715789566 12.82440519755278 1 rotate no_reflect no_shear #
lump $-1 $-1 $27 $3 #
transform $-1 1 0 0 0 1 0 0 0 1 51.322367015594956 28.089390715789566 12.82440519755278 1 rotate no_reflect no_shear #
lump $-1 $-1 $28 $4 #
transform $-1 1 0 0 0 1 0 0 0 1 51.322367015594956 28.089390715789566 12.82440519755278 1 rotate no_reflect no_shear #
lump $-1 $-1 $29 $5 #
transform $-1 1 0 0 0 1 0 0 0 1 51.322367015594956 28.089390715789566 12.82440519755278 1 rotate no_reflect no_shear #
lump $-1 $-1 $30 $6 #
transform $-1 1 0 0 0 1 0 0 0 1 51.322367015594956 28.089390715789566 12.82440519755278 1 rotate no_reflect no_shear #
lump $-1 $-1 $31 $7 #
transform $-1 1 0 0 0 1 0 0 0 1 51.322367015594956 28.089390715789566 12.82440519755278 1 rotate no_reflect no_shear #
shell $-1 $-1 $-1 $32 $-1 $8 #
shell $-1 $-1 $-1 $33 $-1 $10 #
shell $-1 $-1 $-1 $34 $-1 $12 #
shell $-1 $-1 $-1 $35 $-1 $14 #
shell $-1 $-1 $-1 $36 $-1 $16 #
shell $-1 $-1 $-1 $37 $-1 $18 #
shell $-1 $-1 $-1 $38 $-1 $20 #
shell $-1 $-1 $-1 $39 $-1 $22 #
face $-1 $40 $41 $24 $-1 $42 forward single #
face $-1 $43 $44 $25 $-1 $45 forward single #
face $-1 $46 $47 $26 $-1 $48 reversed single #
face $-1 $49 $50 $27 $-1 $51 forward single #
face $-1 $52 $53 $28 $-1 $54 forward single #
face $-1 $55 $56 $29 $-1 $57 reversed single #
face $-1 $58 $59 $30 $-1 $60 forward single #
face $-1 $61 $62 $31 $-1 $63 forward single #
face $-1 $64 $65 $24 $-1 $66 reversed single #
loop $-1 $-1 $67 $32 #
plane-surface $-1 0 0 12.82440519755278 0 0 1 1 0 0 forward_v I I I I #
face $-1 $68 $69 $25 $-1 $70 reversed single #
loop $-1 $-1 $71 $33 #
plane-surface $-1 0 -28.089390715789566 0 0 1 0 0 0 1 forward_v I I I I #
face $-1 $72 $73 $26 $-1 $74 reversed single #
loop $-1 $-1 $75 $34 #
plane-surface $-1 -11.387027815792628 74.387434916116007 109.74436976083419 1 0 0 0 -0.78801076186113728 -0.61566146476048833 forward_v I I I I #
face $-1 $76 $77 $27 $-1 $78 forward single #
loop $-1 $79 $80 $35 #
cone-surface $-1 -8.1335912969947373 22.603144412519818 6.4841608767737187 0 -0.78801076186113728 -0.61566146476048833 1 0 0 1 I I 0 1 1 forward I I I I #
face $-1 $81 $82 $28 $-1 $83 forward single #
loop $-1 $84 $85 $36 #
cone-surface $-1 -3.2534365187978977 22.603144412519818 6.4841608767737187 0 -0.78801076186113728 -0.61566146476048833 1 0 0 1 I I 0 1 1 forward I I I I #
face $-1 $86 $87 $29 $-1 $88 reversed single #
loop $-1 $-1 $89 $37 #
plane-surface $-1 -5.6935139078963175 -6.4977201488357537 46.549962457241065 0 0.78801076186113728 0.61566146476048833 1 0 0 forward_v I I I I #
face $-1 $90 $91 $30 $-1 $92 forward single #
loop $-1 $93 $94 $38 #
cone-surface $-1 3.2534365187978977 22.603144412519818 6.4841608767737187 0 -0.78801076186113728 -0.61566146476048833 1 0 0 1 I I 0 1 1 forward I I I I #
face $-1 $95 $96 $31 $-1 $97 forward single #
loop $-1 $98 $99 $39 #
cone-surface $-1 8.1335912969947373 22.603144412519818 6.4841608767737187 0 -0.78801076186113728 -0.61566146476048833 1 0 0 1 I I 0 1 1 forward I I I I #
face $-1 $100 $101 $24 $-1 $102 reversed single #
loop $-1 $-1 $103 $40 #
plane-surface $-1 0 0 -12.82440519755278 0 0 1 1 0 0 forward_v I I I I #
coedge $-1 $104 $105 $106 $107 forward $41 $-1 #
face $-1 $108 $109 $25 $-1 $110 reversed single #
loop $-1 $-1 $111 $43 #
plane-surface $-1 0 0 -12.82440519755278 0 0 1 1 0 0 forward_v I I I I #
coedge $-1 $112 $113 $114 $115 forward $44 $-1 #
face $-1 $116 $117 $26 $-1 $118 reversed single #
loop $-1 $-1 $119 $46 #
plane-surface $-1 -5.6935139078963175 -6.4977201488357537 46.549962457241065 0 0.78801076186113728 0.61566146476048833 1 0 0 forward_v I I I I #
coedge $-1 $120 $121 $122 $123 reversed $47 $-1 #
face $-1 $-1 $124 $27 $-1 $125 forward single #
loop $-1 $126 $127 $49 #
cone-surface $-1 -8.1335912969947373 20.841801958260664 5.1080493719347597 0 -0.78801076186113728 -0.61566146476048833 0.5 0 0 1 I I -0.70710678118654746 0.70710678118654746 0.5 forward I I I I #
loop $-1 $-1 $128 $35 #
coedge $-1 $80 $80 $129 $130 reversed $50 $-1 #
face $-1 $-1 $131 $28 $-1 $132 forward single #
loop $-1 $133 $134 $52 #
cone-surface $-1 -3.2534365187978977 20.841801958260664 5.1080493719347597 0 -0.78801076186113728 -0.61566146476048833 0.5 0 0 1 I I -0.70710678118654746 0.70710678118654746 0.5 forward I I I I #
loop $-1 $-1 $135 $36 #
coedge $-1 $85 $85 $136 $137 reversed $53 $-1 #
face $-1 $138 $139 $29 $-1 $140 forward single #
loop $-1 $-1 $141 $55 #
plane-surface $-1 11.387027815792628 74.387434916116007 109.74436976083419 -1 0 0 0 0.78801076186113728 0.61566146476048833 forward_v I I I I #
coedge $-1 $142 $143 $144 $145 reversed $56 $-1 #
face $-1 $-1 $146 $30 $-1 $147 forward single #
loop $-1 $148 $149 $58 #
cone-surface $-1 3.2534365187978977 20.841801958260664 5.1080493719347597 0 -0.78801076186113728 -0.61566146476048833 0.5 0 0 1 I I -0.70710678118654746 0.70710678118654746 0.5 forward I I I I #
loop $-1 $-1 $150 $38 #
coedge $-1 $94 $94 $151 $152 reversed $59 $-1 #
face $-1 $-1 $153 $31 $-1 $154 forward single #
loop $-1 $155 $156 $61 #
cone-surface $-1 8.1335912969947373 20.841801958260664 5.1080493719347597 0 -0.78801076186113728 -0.61566146476048833 0.5 0 0 1 I I -0.70710678118654746 0.70710678118654746 0.5 forward I I I I #
loop $-1 $-1 $157 $39 #
coedge $-1 $99 $99 $158 $159 reversed $62 $-1 #
face $-1 $160 $161 $24 $-1 $162 reversed single #
loop $-1 $-1 $163 $64 #
plane-surface $-1 0 -28.089390715789566 0 0 1 0 0 0 1 forward_v I I I I #
coedge $-1 $164 $165 $166 $167 forward $65 $-1 #
coedge $-1 $168 $67 $169 $170 forward $41 $-1 #
coedge $-1 $67 $168 $171 $172 forward $41 $-1 #
coedge $-1 $173 $174 $67 $107 reversed $175 $-1 #
edge $-1 $176 -28.089390715789566 $177 28.089390715789566 $106 $178 forward 7 unknown #
face $-1 $179 $180 $25 $-1 $181 forward single #
loop $-1 $-1 $182 $68 #
plane-surface $-1 51.322367015594956 0 0 -1 0 0 0 0 1 forward_v I I I I #
coedge $-1 $183 $184 $185 $186 forward $69 $-1 #
coedge $-1 $185 $71 $182 $187 reversed $44 $-1 #
coedge $-1 $71 $185 $188 $189 reversed $44 $-1 #
coedge $-1 $190 $191 $71 $115 reversed $180 $-1 #
edge $-1 $192 -51.322367015594956 $193 51.322367015594956 $114 $194 forward 7 unknown #
face $-1 $195 $196 $26 $-1 $197 forward single #
loop $-1 $-1 $198 $72 #
plane-surface $-1 -7.1054273576010019e-015 74.387434916116007 109.74436976083419 -1 0 0 0 0.78801076186113728 0.61566146476048833 forward_v I I I I #
coedge $-1 $199 $200 $201 $202 reversed $73 $-1 #
coedge $-1 $121 $75 $203 $204 reversed $47 $-1 #
coedge $-1 $75 $120 $199 $205 reversed $47 $-1 #
coedge $-1 $201 $206 $75 $123 forward $196 $-1 #
edge $-1 $207 9.1043267422684373 $208 17.342145202150757 $122 $209 forward 7 unknown #
loop $-1 $-1 $129 $76 #
plane-surface $-1 -5.6935139078963175 -6.4977201488357537 46.549962457241065 0 0.78801076186113728 0.61566146476048833 1 0 0 forward_v I I I I #
loop $-1 $-1 $210 $49 #
coedge $-1 $127 $127 $128 $211 reversed $77 $-1 #
coedge $-1 $128 $128 $127 $211 forward $79 $-1 #
coedge $-1 $129 $129 $80 $130 forward $124 $-1 #
edge $-1 $212 -8.7506704884729591e-016 $212 6.2831853071795996 $129 $213 forward 7 unknown #
loop $-1 $-1 $136 $81 #
plane-surface $-1 -5.6935139078963175 -6.4977201488357537 46.549962457241065 0 0.78801076186113728 0.61566146476048833 1 0 0 forward_v I I I I #
loop $-1 $-1 $214 $52 #
coedge $-1 $134 $134 $135 $215 reversed $82 $-1 #
coedge $-1 $135 $135 $134 $215 forward $84 $-1 #
coedge $-1 $136 $136 $85 $137 forward $131 $-1 #
edge $-1 $216 -8.7506704884729591e-016 $216 6.2831853071795996 $136 $217 forward 7 unknown #
face $-1 $218 $219 $29 $-1 $220 forward single #
loop $-1 $-1 $221 $86 #
plane-surface $-1 0 0 12.82440519755278 0 0 1 1 0 0 forward_v I I I I #
coedge $-1 $222 $223 $224 $225 reversed $87 $-1 #
coedge $-1 $226 $89 $227 $228 reversed $56 $-1 #
coedge $-1 $89 $226 $221 $229 reversed $56 $-1 #
coedge $-1 $230 $231 $89 $145 forward $219 $-1 #
edge $-1 $232 -56.178781431579111 $233 -42.798346027704866 $144 $234 forward 7 unknown #
loop $-1 $-1 $151 $90 #
plane-surface $-1 -5.6935139078963175 -6.4977201488357537 46.549962457241065 0 0.78801076186113728 0.61566146476048833 1 0 0 forward_v I I I I #
loop $-1 $-1 $235 $58 #
coedge $-1 $149 $149 $150 $236 reversed $91 $-1 #
coedge $-1 $150 $150 $149 $236 forward $93 $-1 #
coedge $-1 $151 $151 $94 $152 forward $146 $-1 #
edge $-1 $237 -8.7506704884729591e-016 $237 6.2831853071795996 $151 $238 forward 7 unknown #
loop $-1 $-1 $158 $95 #
plane-surface $-1 -5.6935139078963175 -6.4977201488357537 46.549962457241065 0 0.78801076186113728 0.61566146476048833 1 0 0 forward_v I I I I #
loop $-1 $-1 $239 $61 #
coedge $-1 $156 $156 $157 $240 reversed $96 $-1 #
coedge $-1 $157 $157 $156 $240 forward $98 $-1 #
coedge $-1 $158 $158 $99 $159 forward $153 $-1 #
edge $-1 $241 -8.7506704884729591e-016 $241 6.2831853071795996 $158 $242 forward 7 unknown #
face $-1 $243 $244 $24 $-1 $245 reversed single #
loop $-1 $-1 $246 $100 #
plane-surface $-1 -51.322367015594956 0 0 1 0 0 0 0 -1 forward_v I I I I #
coedge $-1 $171 $247 $173 $248 reversed $101 $-1 #
coedge $-1 $249 $103 $247 $250 forward $65 $-1 #
coedge $-1 $103 $249 $251 $252 forward $65 $-1 #
coedge $-1 $174 $173 $103 $167 reversed $175 $-1 #
edge $-1 $253 -28.089390715789566 $254 28.089390715789566 $166 $255 forward 7 unknown #
coedge $-1 $105 $104 $256 $257 forward $41 $-1 #
coedge $-1 $258 $259 $104 $170 reversed $244 $-1 #
edge $-1 $177 -51.322367015594956 $260 51.322367015594956 $169 $261 forward 7 unknown #
coedge $-1 $262 $163 $105 $172 reversed $101 $-1 #
edge $-1 $263 -51.322367015594956 $176 51.322367015594956 $171 $264 forward 7 unknown #
coedge $-1 $166 $106 $163 $248 forward $175 $-1 #
coedge $-1 $106 $166 $258 $265 reversed $175 $-1 #
loop $-1 $-1 $173 $243 #
vertex $-1 $107 $266 #
vertex $-1 $107 $267 #
straight-curve $-1 51.322367015594956 0 12.82440519755278 0 1 0 I I #
face $-1 $268 $269 $25 $-1 $270 reversed single #
loop $-1 $-1 $191 $108 #
plane-surface $-1 0 -33.621915907109567 -7.9190614033998816 0 0 1 1 0 0 forward_v I I I I #
coedge $-1 $271 $272 $112 $187 forward $109 $-1 #
coedge $-1 $273 $111 $272 $274 forward $69 $-1 #
coedge $-1 $111 $273 $275 $276 forward $69 $-1 #
coedge $-1 $113 $112 $111 $186 reversed $44 $-1 #
edge $-1 $277 -51.322367015594956 $278 51.322367015594956 $111 $279 forward 7 unknown #
edge $-1 $278 -12.82440519755278 $193 -7.9190614033998816 $182 $280 forward 7 unknown #
coedge $-1 $275 $281 $113 $189 forward $282 $-1 #
edge $-1 $192 7.9190614033998816 $277 12.82440519755278 $188 $283 forward 7 unknown #
coedge $-1 $284 $114 $281 $285 forward $180 $-1 #
coedge $-1 $114 $284 $271 $286 forward $180 $-1 #
vertex $-1 $189 $287 #
vertex $-1 $286 $288 #
straight-curve $-1 0 -28.089390715789566 -7.9190614033998816 1 0 0 I I #
face $-1 $-1 $289 $26 $-1 $290 reversed single #
loop $-1 $-1 $122 $116 #
plane-surface $-1 0 0 12.82440519755278 0 0 1 1 0 0 forward_v I I I I #
coedge $-1 $291 $292 $293 $294 reversed $117 $-1 #
coedge $-1 $295 $119 $121 $205 forward $73 $-1 #
coedge $-1 $119 $295 $291 $296 forward $73 $-1 #
coedge $-1 $293 $122 $119 $202 forward $196 $-1 #
edge $-1 $208 -8.5402708618444692 $297 2.8467569539481516 $201 $298 forward 7 unknown #
coedge $-1 $299 $300 $120 $204 forward $289 $-1 #
edge $-1 $301 -52.591706779504989 $207 -42.047779682864316 $203 $302 forward 7 unknown #
edge $-1 $208 42.798346027704866 $301 56.178781431579111 $121 $303 forward 7 unknown #
coedge $-1 $122 $293 $299 $304 forward $196 $-1 #
vertex $-1 $204 $305 #
vertex $-1 $123 $306 #
straight-curve $-1 -11.387027815792628 37.193717458058003 12.824405197552778 0 -1 0 I I #
coedge $-1 $210 $210 $-1 $307 reversed $126 $-1 #
edge $-1 $308 0 $308 6.2831853071796004 $127 $309 forward 7 unknown #
vertex $-1 $130 $310 #
ellipse-curve $-1 -8.1335912969947373 23.97048148584841 7.5524416492324384 0 0.78801076186113728 0.61566146476048833 1 0 0 1 I I #
coedge $-1 $214 $214 $-1 $311 reversed $133 $-1 #
edge $-1 $312 0 $312 6.2831853071796004 $134 $313 forward 7 unknown #
vertex $-1 $137 $314 #
ellipse-curve $-1 -3.2534365187978977 23.97048148584841 7.5524416492324384 0 0.78801076186113728 0.61566146476048833 1 0 0 1 I I #
face $-1 $-1 $315 $29 $-1 $316 reversed single #
loop $-1 $-1 $230 $138 #
plane-surface $-1 -7.1054273576010019e-015 74.387434916116007 109.74436976083419 -1 0 0 0 0.78801076186113728 0.61566146476048833 forward_v I I I I #
coedge $-1 $224 $317 $143 $229 forward $139 $-1 #
coedge $-1 $223 $141 $226 $318 reversed $87 $-1 #
coedge $-1 $141 $222 $319 $320 reversed $87 $-1 #
coedge $-1 $321 $221 $141 $225 forward $139 $-1 #
edge $-1 $322 -17.342145202150757 $323 -9.1043267422684373 $224 $324 forward 7 unknown #
coedge $-1 $143 $142 $222 $318 forward $56 $-1 #
coedge $-1 $325 $319 $142 $228 forward $315 $-1 #
edge $-1 $326 -14.233784769740787 $232 -2.8467569539481516 $227 $327 forward 7 unknown #
edge $-1 $233 2.8467569539481516 $322 14.233784769740787 $221 $328 forward 7 unknown #
coedge $-1 $231 $144 $317 $329 reversed $219 $-1 #
coedge $-1 $144 $230 $325 $330 reversed $219 $-1 #
vertex $-1 $228 $331 #
vertex $-1 $229 $332 #
straight-curve $-1 -7.1054273576010019e-015 -6.4977201488357537 46.549962457241065 0 -0.61566146476048833 0.78801076186113728 I I #
coedge $-1 $235 $235 $-1 $333 reversed $148 $-1 #
edge $-1 $334 0 $334 6.2831853071796004 $149 $335 forward 7 unknown #
vertex $-1 $152 $336 #
ellipse-curve $-1 3.2534365187978977 23.97048148584841 7.5524416492324384 0 0.78801076186113728 0.61566146476048833 1 0 0 1 I I #
coedge $-1 $239 $239 $-1 $337 reversed $155 $-1 #
edge $-1 $338 0 $338 6.2831853071796004 $156 $339 forward 7 unknown #
vertex $-1 $159 $340 #
ellipse-curve $-1 8.1335912969947373 23.97048148584841 7.5524416492324384 0 0.78801076186113728 0.61566146476048833 1 0 0 1 I I #
face $-1 $-1 $175 $24 $-1 $341 reversed single #
loop $-1 $-1 $258 $160 #
plane-surface $-1 0 28.089390715789566 0 0 -1 0 0 0 -1 forward_v I I I I #
coedge $-1 $342 $256 $259 $343 forward $161 $-1 #
coedge $-1 $163 $262 $164 $250 reversed $101 $-1 #
edge $-1 $176 -12.82440519755278 $254 12.82440519755278 $173 $344 forward 7 unknown #
coedge $-1 $165 $164 $342 $345 forward $65 $-1 #
edge $-1 $254 -51.322367015594956 $346 51.322367015594956 $247 $347 forward 7 unknown #
coedge $-1 $259 $258 $165 $252 reversed $244 $-1 #
edge $-1 $348 -51.322367015594956 $253 51.322367015594956 $251 $349 forward 7 unknown #
vertex $-1 $167 $350 #
vertex $-1 $248 $351 #
straight-curve $-1 51.322367015594956 0 -12.82440519755278 0 -1 0 I I #
coedge $-1 $246 $352 $168 $257 reversed $161 $-1 #
edge $-1 $260 -28.089390715789566 $263 28.089390715789566 $256 $353 forward 7 unknown #
coedge $-1 $251 $169 $174 $265 forward $244 $-1 #
coedge $-1 $169 $251 $246 $343 reversed $244 $-1 #
vertex $-1 $170 $354 #
straight-curve $-1 0 28.089390715789566 12.82440519755278 -1 0 0 I I #
coedge $-1 $247 $171 $352 $355 forward $101 $-1 #
vertex $-1 $257 $356 #
straight-curve $-1 0 -28.089390715789566 12.82440519755278 1 0 0 I I #
edge $-1 $177 -12.82440519755278 $253 12.82440519755278 $174 $357 forward 7 unknown #
point $-1 51.322367015594956 -28.089390715789566 12.82440519755278 #
point $-1 51.322367015594956 28.089390715789566 12.82440519755278 #
face $-1 $-1 $282 $25 $-1 $358 reversed single #
loop $-1 $-1 $359 $179 #
plane-surface $-1 0 -39.154441098429565 -10.371733300476331 0 1 0 0 0 1 forward_v I I I I #
coedge $-1 $360 $182 $191 $286 reversed $109 $-1 #
coedge $-1 $182 $360 $183 $274 reversed $109 $-1 #
coedge $-1 $184 $183 $361 $362 forward $69 $-1 #
edge $-1 $278 28.089390715789566 $363 39.154441098429565 $272 $364 forward 7 unknown #
coedge $-1 $365 $188 $184 $276 reversed $282 $-1 #
edge $-1 $366 -39.154441098429565 $277 -28.089390715789566 $275 $367 forward 7 unknown #
vertex $-1 $189 $368 #
vertex $-1 $274 $369 #
straight-curve $-1 0 -28.089390715789566 -12.82440519755278 1 0 0 I I #
straight-curve $-1 51.322367015594956 -28.089390715789566 0 0 0 1 I I #
coedge $-1 $188 $365 $190 $285 reversed $282 $-1 #
loop $-1 $-1 $188 $268 #
straight-curve $-1 -51.322367015594956 -28.089390715789566 0 0 0 -1 I I #
coedge $-1 $191 $190 $370 $371 forward $180 $-1 #
edge $-1 $192 -5.5325251913199978 $372 5.5325251913199978 $281 $373 forward 7 unknown #
edge $-1 $374 -5.5325251913199978 $193 5.5325251913199978 $271 $375 forward 7 unknown #
point $-1 -51.322367015594956 -28.08939071578957 -7.9190614033998816 #
point $-1 51.322367015594956 -28.08939071578957 -7.9190614033998816 #
loop $-1 $-1 $203 $195 #
plane-surface $-1 0 28.089390715789566 0 0 -1 0 0 0 -1 forward_v I I I I #
coedge $-1 $292 $198 $200 $296 reversed $117 $-1 #
coedge $-1 $198 $291 $376 $377 reversed $117 $-1 #
coedge $-1 $206 $201 $198 $294 forward $196 $-1 #
edge $-1 $297 -17.342145202150757 $378 -9.1043267422684373 $293 $379 forward 7 unknown #
coedge $-1 $200 $199 $300 $380 reversed $73 $-1 #
edge $-1 $381 -56.178781431579111 $297 -42.798346027704866 $291 $382 forward 7 unknown #
vertex $-1 $202 $383 #
straight-curve $-1 -2.8467569539481588 19.85157225590725 12.824405197552775 1 0 0 I I #
coedge $-1 $376 $203 $206 $304 reversed $289 $-1 #
coedge $-1 $203 $376 $295 $380 forward $289 $-1 #
vertex $-1 $204 $384 #
straight-curve $-1 -11.387027815792628 28.089390715789566 54.872184880417095 0 0 1 I I #
straight-curve $-1 -11.387027815792628 -6.4977201488357537 46.549962457241065 0 0.61566146476048833 -0.78801076186113728 I I #
edge $-1 $378 7.1054273576010019e-015 $207 11.387027815792628 $299 $385 forward 7 unknown #
point $-1 -11.387027815792628 28.089390715789566 12.82440519755278 #
point $-1 -11.387027815792628 19.851572255907247 12.824405197552778 #
edge $-1 $386 1 $386 0 $210 $-1 forward 7 unknown #
vertex $-1 $211 $387 #
ellipse-curve $-1 -8.1335912969947373 21.235807339191233 5.4158801043150042 0 0.78801076186113728 0.61566146476048833 1 0 0 1 I I #
point $-1 -7.1335912969947373 23.970481485848403 7.552441649232434 #
edge $-1 $388 1 $388 0 $214 $-1 forward 7 unknown #
vertex $-1 $215 $389 #
ellipse-curve $-1 -3.2534365187978977 21.235807339191233 5.4158801043150042 0 0.78801076186113728 0.61566146476048833 1 0 0 1 I I #
point $-1 -2.2534365187978977 23.970481485848403 7.552441649232434 #
loop $-1 $-1 $227 $218 #
plane-surface $-1 0 28.089390715789566 0 0 -1 0 0 0 -1 forward_v I I I I #
coedge $-1 $221 $321 $230 $329 forward $139 $-1 #
edge $-1 $326 -56.178781431579111 $322 -42.798346027704866 $222 $390 forward 7 unknown #
coedge $-1 $227 $391 $223 $320 forward $315 $-1 #
edge $-1 $323 42.047779682864316 $326 52.591706779504989 $319 $392 forward 7 unknown #
coedge $-1 $317 $224 $391 $393 forward $139 $-1 #
vertex $-1 $225 $394 #
vertex $-1 $393 $395 #
straight-curve $-1 11.387027815792628 37.193717458058003 12.824405197552778 0 1 0 I I #
coedge $-1 $391 $227 $231 $330 forward $315 $-1 #
vertex $-1 $320 $396 #
straight-curve $-1 -2.8467569539481588 28.089390715789566 2.2804781009120916 -1 0 0 I I #
straight-curve $-1 -2.8467569539481588 19.85157225590725 12.824405197552775 1 0 0 I I #
edge $-1 $397 9.1043267422684373 $233 17.342145202150757 $317 $398 forward 7 unknown #
edge $-1 $232 -52.591706779504989 $397 -42.047779682864316 $325 $399 forward 7 unknown #
point $-1 -7.1054273576010019e-015 28.089390715789563 2.2804781009121058 #
point $-1 -7.1054273576010019e-015 19.851572255907247 12.824405197552778 #
edge $-1 $400 1 $400 0 $235 $-1 forward 7 unknown #
vertex $-1 $236 $401 #
ellipse-curve $-1 3.2534365187978977 21.235807339191233 5.4158801043150042 0 0.78801076186113728 0.61566146476048833 1 0 0 1 I I #
point $-1 4.2534365187978977 23.970481485848403 7.552441649232434 #
edge $-1 $402 1 $402 0 $239 $-1 forward 7 unknown #
vertex $-1 $240 $403 #
ellipse-curve $-1 8.1335912969947373 21.235807339191233 5.4158801043150042 0 0.78801076186113728 0.61566146476048833 1 0 0 1 I I #
point $-1 9.1335912969947373 23.970481485848403 7.552441649232434 #
plane-surface $-1 51.322367015594956 0 0 -1 0 0 0 0 1 forward_v I I I I #
coedge $-1 $352 $246 $249 $345 reversed $161 $-1 #
edge $-1 $260 -12.82440519755278 $348 12.82440519755278 $259 $404 forward 7 unknown #
straight-curve $-1 51.322367015594956 -28.089390715789566 0 0 0 -1 I I #
edge $-1 $346 -28.089390715789566 $348 28.089390715789566 $342 $405 forward 7 unknown #
vertex $-1 $345 $406 #
straight-curve $-1 0 -28.089390715789566 -12.82440519755278 -1 0 0 I I #
vertex $-1 $252 $407 #
straight-curve $-1 0 28.089390715789566 -12.82440519755278 1 0 0 I I #
point $-1 51.322367015594956 28.089390715789566 -12.82440519755278 #
point $-1 51.322367015594956 -28.089390715789566 -12.82440519755278 #
coedge $-1 $256 $342 $262 $355 reversed $161 $-1 #
straight-curve $-1 -51.322367015594956 0 12.82440519755278 0 -1 0 I I #
point $-1 -51.322367015594956 28.089390715789566 12.82440519755278 #
edge $-1 $263 -12.82440519755278 $346 12.82440519755278 $352 $408 forward 7 unknown #
point $-1 -51.322367015594956 -28.089390715789566 12.82440519755278 #
straight-curve $-1 51.322367015594956 28.089390715789566 0 0 0 -1 I I #
plane-surface $-1 -51.322367015594956 0 0 1 0 0 0 0 -1 forward_v I I I I #
coedge $-1 $361 $370 $365 $409 forward $269 $-1 #
coedge $-1 $272 $271 $410 $411 forward $109 $-1 #
coedge $-1 $410 $359 $273 $362 reversed $269 $-1 #
edge $-1 $363 -51.322367015594956 $366 51.322367015594956 $361 $412 forward 7 unknown #
vertex $-1 $411 $413 #
straight-curve $-1 51.322367015594956 0 -12.82440519755278 0 -1 0 I I #
coedge $-1 $281 $275 $359 $409 reversed $282 $-1 #
vertex $-1 $276 $414 #
straight-curve $-1 -51.322367015594956 0 -12.82440519755278 0 1 0 I I #
point $-1 -51.322367015594956 -28.089390715789566 -12.82440519755278 #
point $-1 51.322367015594956 -28.089390715789566 -12.82440519755278 #
coedge $-1 $359 $410 $284 $371 reversed $269 $-1 #
edge $-1 $372 -51.322367015594956 $374 51.322367015594956 $370 $415 forward 7 unknown #
vertex $-1 $285 $416 #
straight-curve $-1 -51.322367015594956 -33.621915907109567 -7.9190614033998816 0 -1 0 I I #
vertex $-1 $286 $417 #
straight-curve $-1 51.322367015594956 -33.621915907109567 -7.9190614033998816 0 1 0 I I #
coedge $-1 $300 $299 $292 $377 forward $289 $-1 #
edge $-1 $378 42.047779682864316 $381 52.591706779504989 $376 $418 forward 7 unknown #
vertex $-1 $304 $419 #
straight-curve $-1 -7.1054273576010019e-015 37.193717458058003 12.824405197552778 0 1 0 I I #
edge $-1 $381 -2.8467569539481516 $301 8.5402708618444692 $300 $420 forward 7 unknown #
vertex $-1 $380 $421 #
straight-curve $-1 -7.1054273576010019e-015 -6.4977201488357537 46.549962457241065 0 -0.61566146476048833 0.78801076186113728 I I #
point $-1 -7.1054273576010019e-015 19.851572255907247 12.824405197552778 #
point $-1 -11.387027815792628 28.089390715789563 2.2804781009121058 #
straight-curve $-1 0 28.089390715789566 12.82440519755278 -1 0 0 I I #
vertex $-1 $307 $422 #
point $-1 -7.1335912969947373 21.235807339191233 5.4158801043150042 #
vertex $-1 $311 $423 #
point $-1 -2.2534365187978977 21.235807339191233 5.4158801043150042 #
straight-curve $-1 11.387027815792628 -6.4977201488357537 46.549962457241065 0 -0.61566146476048833 0.78801076186113728 I I #
coedge $-1 $319 $325 $321 $393 reversed $315 $-1 #
straight-curve $-1 11.387027815792628 28.089390715789566 54.872184880417095 0 0 -1 I I #
edge $-1 $323 -11.387027815792628 $397 7.1054273576010019e-015 $391 $424 forward 7 unknown #
point $-1 11.387027815792628 19.851572255907247 12.824405197552778 #
point $-1 11.387027815792628 28.089390715789566 12.82440519755278 #
point $-1 11.387027815792628 28.089390715789563 2.2804781009121058 #
vertex $-1 $330 $425 #
straight-curve $-1 -7.1054273576010019e-015 37.193717458058003 12.824405197552778 0 -1 0 I I #
straight-curve $-1 -7.1054273576010019e-015 28.089390715789566 54.872184880417095 0 0 1 I I #
vertex $-1 $333 $426 #
point $-1 4.2534365187978977 21.235807339191233 5.4158801043150042 #
vertex $-1 $337 $427 #
point $-1 9.1335912969947373 21.235807339191233 5.4158801043150042 #
straight-curve $-1 -51.322367015594956 28.089390715789566 0 0 0 -1 I I #
straight-curve $-1 -51.322367015594956 0 -12.82440519755278 0 1 0 I I #
point $-1 -51.322367015594956 -28.089390715789566 -12.82440519755278 #
point $-1 -51.322367015594956 28.089390715789566 -12.82440519755278 #
straight-curve $-1 -51.322367015594956 -28.089390715789566 0 0 0 -1 I I #
edge $-1 $372 -2.4526718970764492 $366 2.4526718970764492 $365 $428 forward 7 unknown #
coedge $-1 $370 $361 $360 $411 reversed $269 $-1 #
edge $-1 $374 -2.4526718970764492 $363 2.4526718970764492 $360 $429 forward 7 unknown #
straight-curve $-1 0 -39.154441098429565 -12.82440519755278 -1 0 0 I I #
point $-1 51.322367015594956 -39.154441098429565 -12.82440519755278 #
point $-1 -51.322367015594956 -39.154441098429565 -12.82440519755278 #
straight-curve $-1 0 -39.154441098429565 -7.9190614033998816 1 0 0 I I #
point $-1 -51.322367015594956 -39.154441098429565 -7.9190614033998816 #
point $-1 51.322367015594956 -39.154441098429565 -7.9190614033998816 #
straight-curve $-1 -7.1054273576010019e-015 28.089390715789566 54.872184880417095 0 0 -1 I I #
point $-1 -7.1054273576010019e-015 28.089390715789566 12.82440519755278 #
straight-curve $-1 -2.8467569539481588 28.089390715789566 2.2804781009120916 -1 0 0 I I #
point $-1 -7.1054273576010019e-015 28.089390715789563 2.2804781009121058 #
point $-1 -8.1335912969947373 20.447796577330095 4.8002186395545152 #
point $-1 -3.2534365187978977 20.447796577330095 4.8002186395545152 #
straight-curve $-1 0 28.089390715789566 12.82440519755278 -1 0 0 I I #
point $-1 -7.1054273576010019e-015 28.089390715789566 12.82440519755278 #
point $-1 3.2534365187978977 20.447796577330095 4.8002186395545152 #
point $-1 8.1335912969947373 20.447796577330095 4.8002186395545152 #
straight-curve $-1 -51.322367015594956 -39.154441098429565 -10.371733300476331 0 0 -1 I I #
straight-curve $-1 51.322367015594956 -39.154441098429565 -10.371733300476331 0 0 -1 I I #
End-of-ACIS-data 