500 0 12 0           
7 Unknown 11 ACIS 5.0 NT 24 Fri Mar 26 03:07:38 1999 
-1 9.9999999999999995e-007 1e-010 
body $-1 $12 $-1 $13 #
body $-1 $14 $-1 $15 #
body $-1 $16 $-1 $17 #
body $-1 $18 $-1 $19 #
body $-1 $20 $-1 $21 #
body $-1 $22 $-1 $23 #
body $-1 $24 $-1 $25 #
body $-1 $26 $-1 $27 #
body $-1 $28 $-1 $29 #
body $-1 $30 $-1 $31 #
body $-1 $32 $-1 $33 #
body $-1 $34 $-1 $35 #
lump $-1 $-1 $36 $0 #
transform $-1 1 0 0 0 1 0 0 0 1 56.609393597216709 24.187225935842566 5.6601223716985753 1 rotate no_reflect no_shear #
lump $-1 $-1 $37 $1 #
transform $-1 1 0 0 0 1 0 0 0 1 56.609393597216709 24.187225935842566 5.6601223716985753 1 rotate no_reflect no_shear #
lump $-1 $-1 $38 $2 #
transform $-1 1 0 0 0 1 0 0 0 1 56.609393597216709 24.187225935842566 5.6601223716985753 1 rotate no_reflect no_shear #
lump $-1 $-1 $39 $3 #
transform $-1 1 0 0 0 1 0 0 0 1 56.609393597216709 24.187225935842566 5.6601223716985753 1 rotate no_reflect no_shear #
lump $-1 $-1 $40 $4 #
transform $-1 1 0 0 0 1 0 0 0 1 56.609393597216709 24.187225935842566 5.6601223716985753 1 rotate no_reflect no_shear #
lump $-1 $-1 $41 $5 #
transform $-1 1 0 0 0 1 0 0 0 1 56.609393597216709 24.187225935842566 5.6601223716985753 1 rotate no_reflect no_shear #
lump $-1 $-1 $42 $6 #
transform $-1 1 0 0 0 1 0 0 0 1 56.609393597216709 24.187225935842566 5.6601223716985753 1 rotate no_reflect no_shear #
lump $-1 $-1 $43 $7 #
transform $-1 1 0 0 0 1 0 0 0 1 56.609393597216709 24.187225935842566 5.6601223716985753 1 rotate no_reflect no_shear #
lump $-1 $-1 $44 $8 #
transform $-1 1 0 0 0 1 0 0 0 1 56.609393597216709 24.187225935842566 5.6601223716985753 1 rotate no_reflect no_shear #
lump $-1 $-1 $45 $9 #
transform $-1 1 0 0 0 1 0 0 0 1 56.609393597216709 24.187225935842566 5.6601223716985753 1 rotate no_reflect no_shear #
lump $-1 $-1 $46 $10 #
transform $-1 1 0 0 0 1 0 0 0 1 56.609393597216709 24.187225935842566 5.6601223716985753 1 rotate no_reflect no_shear #
lump $-1 $-1 $47 $11 #
transform $-1 1 0 0 0 1 0 0 0 1 56.609393597216709 24.187225935842566 5.6601223716985753 1 rotate no_reflect no_shear #
shell $-1 $-1 $-1 $48 $-1 $12 #
shell $-1 $-1 $-1 $49 $-1 $14 #
shell $-1 $-1 $-1 $50 $-1 $16 #
shell $-1 $-1 $-1 $51 $-1 $18 #
shell $-1 $-1 $-1 $52 $-1 $20 #
shell $-1 $-1 $-1 $53 $-1 $22 #
shell $-1 $-1 $-1 $54 $-1 $24 #
shell $-1 $-1 $-1 $55 $-1 $26 #
shell $-1 $-1 $-1 $56 $-1 $28 #
shell $-1 $-1 $-1 $57 $-1 $30 #
shell $-1 $-1 $-1 $58 $-1 $32 #
shell $-1 $-1 $-1 $59 $-1 $34 #
face $-1 $60 $61 $36 $-1 $62 forward single #
face $-1 $63 $64 $37 $-1 $65 reversed single #
face $-1 $66 $67 $38 $-1 $68 forward single #
face $-1 $69 $70 $39 $-1 $71 reversed single #
face $-1 $72 $73 $40 $-1 $74 forward single #
face $-1 $75 $76 $41 $-1 $77 forward single #
face $-1 $78 $79 $42 $-1 $80 reversed single #
face $-1 $81 $82 $43 $-1 $83 forward single #
face $-1 $84 $85 $44 $-1 $86 forward single #
face $-1 $87 $88 $45 $-1 $89 reversed single #
face $-1 $90 $91 $46 $-1 $92 forward single #
face $-1 $93 $94 $47 $-1 $95 forward single #
face $-1 $96 $97 $36 $-1 $98 reversed single #
loop $-1 $-1 $99 $48 #
plane-surface $-1 0 0 5.6601223716985753 0 0 1 1 0 0 forward_v I I I I #
face $-1 $100 $101 $37 $-1 $102 reversed single #
loop $-1 $-1 $103 $49 #
plane-surface $-1 -53.679346186433484 0 2.6601223716985753 0 0 1 1 0 0 forward_v I I I I #
face $-1 $104 $105 $38 $-1 $106 forward single #
loop $-1 $-1 $107 $50 #
plane-surface $-1 56.609393597216709 0 0 -1 0 0 0 0 1 forward_v I I I I #
face $-1 $108 $109 $39 $-1 $110 reversed single #
loop $-1 $-1 $111 $51 #
plane-surface $-1 -43.216661614396713 79.823351850243128 112.29448647973155 1 0 0 0 -0.7660444514056185 -0.64278759981090561 forward_v I I I I #
face $-1 $112 $113 $40 $-1 $114 forward single #
loop $-1 $115 $116 $52 #
cone-surface $-1 -36.76891137960984 22.093699551302613 3.4302453458382871 0 -0.7660444514056185 -0.64278759981090561 0.5 0 0 1 I I 0 1 0.5 forward I I I I #
face $-1 $117 $118 $41 $-1 $119 forward single #
loop $-1 $120 $121 $53 #
cone-surface $-1 -27.097286027429529 22.093699551302613 3.4302453458382871 0 -0.7660444514056185 -0.64278759981090561 0.5 0 0 1 I I 0 1 0.5 forward I I I I #
face $-1 $122 $123 $42 $-1 $124 reversed single #
loop $-1 $-1 $125 $54 #
plane-surface $-1 20.940026670356154 79.823351850243128 112.29448647973155 1 0 0 0 -0.7660444514056185 -0.64278759981090561 forward_v I I I I #
face $-1 $126 $127 $43 $-1 $128 forward single #
loop $-1 $129 $130 $55 #
cone-surface $-1 27.387776905143014 22.093699551302613 3.4302453458382871 0 -0.7660444514056185 -0.64278759981090561 0.5 0 0 1 I I 0 1 0.5 forward I I I I #
face $-1 $131 $132 $44 $-1 $133 forward single #
loop $-1 $134 $135 $56 #
cone-surface $-1 37.059402257323327 22.093699551302613 3.4302453458382871 0 -0.7660444514056185 -0.64278759981090561 0.5 0 0 1 I I 0 1 0.5 forward I I I I #
face $-1 $136 $137 $45 $-1 $138 reversed single #
loop $-1 $-1 $139 $57 #
plane-surface $-1 -12.859734284194101 -95.438118251994212 88.753727381791478 -1 0 0 0 -0.62932039886446345 0.77714595512881146 forward_v I I I I #
face $-1 $140 $141 $46 $-1 $142 forward single #
loop $-1 $143 $144 $58 #
cone-surface $-1 -28.650935484503734 -19.76017198226414 1.4777483429220766 0 0.62932039886446345 -0.77714595512881146 1.5 0 0 1 I I 0 1 1.5 forward I I I I #
face $-1 $145 $146 $47 $-1 $147 forward single #
loop $-1 $148 $149 $59 #
cone-surface $-1 -19.176214764317955 -19.76017198226414 1.4777483429220766 0 0.62932039886446345 -0.77714595512881146 1.5 0 0 1 I I 0 1 1.5 forward I I I I #
face $-1 $150 $151 $36 $-1 $152 reversed single #
loop $-1 $-1 $153 $60 #
plane-surface $-1 0 0 -5.6601223716985753 0 0 1 1 0 0 forward_v I I I I #
coedge $-1 $154 $155 $156 $157 forward $61 $-1 #
face $-1 $158 $159 $37 $-1 $160 reversed single #
loop $-1 $-1 $161 $63 #
plane-surface $-1 -50.74929877565026 0 4.1601223716985753 -1 0 0 0 0 1 forward_v I I I I #
coedge $-1 $162 $163 $164 $165 forward $64 $-1 #
face $-1 $166 $167 $38 $-1 $168 reversed single #
loop $-1 $-1 $169 $66 #
plane-surface $-1 0 0 5.6601223716985753 0 0 1 1 0 0 forward_v I I I I #
coedge $-1 $170 $171 $172 $173 forward $67 $-1 #
face $-1 $174 $175 $39 $-1 $176 reversed single #
loop $-1 $-1 $177 $69 #
plane-surface $-1 -31.933098703519683 -6.9072718749260815 39.518854005519998 0 0.7660444514056185 0.64278759981090561 1 0 0 forward_v I I I I #
coedge $-1 $178 $179 $180 $181 reversed $70 $-1 #
face $-1 $-1 $182 $40 $-1 $183 forward single #
loop $-1 $184 $185 $72 #
cone-surface $-1 -36.76891137960984 21.15048671817561 2.6387958261608393 0 -0.7660444514056185 -0.64278759981090561 0.25 0 0 1 I I -0.70710678118654746 0.70710678118654746 0.25 forward I I I I #
loop $-1 $-1 $186 $52 #
coedge $-1 $116 $116 $187 $188 reversed $73 $-1 #
face $-1 $-1 $189 $41 $-1 $190 forward single #
loop $-1 $191 $192 $75 #
cone-surface $-1 -27.097286027429529 21.15048671817561 2.6387958261608393 0 -0.7660444514056185 -0.64278759981090561 0.25 0 0 1 I I -0.70710678118654746 0.70710678118654746 0.25 forward I I I I #
loop $-1 $-1 $193 $53 #
coedge $-1 $121 $121 $194 $195 reversed $76 $-1 #
face $-1 $196 $197 $42 $-1 $198 reversed single #
loop $-1 $-1 $199 $78 #
plane-surface $-1 32.223589581233185 -6.9072718749260815 39.518854005519998 0 0.7660444514056185 0.64278759981090561 1 0 0 forward_v I I I I #
coedge $-1 $200 $201 $202 $203 reversed $79 $-1 #
face $-1 $-1 $204 $43 $-1 $205 forward single #
loop $-1 $206 $207 $81 #
cone-surface $-1 27.387776905143014 21.15048671817561 2.6387958261608393 0 -0.7660444514056185 -0.64278759981090561 0.25 0 0 1 I I -0.70710678118654746 0.70710678118654746 0.25 forward I I I I #
loop $-1 $-1 $208 $55 #
coedge $-1 $130 $130 $209 $210 reversed $82 $-1 #
face $-1 $-1 $211 $44 $-1 $212 forward single #
loop $-1 $213 $214 $84 #
cone-surface $-1 37.059402257323327 21.15048671817561 2.6387958261608393 0 -0.7660444514056185 -0.64278759981090561 0.25 0 0 1 I I -0.70710678118654746 0.70710678118654746 0.25 forward I I I I #
loop $-1 $-1 $215 $56 #
coedge $-1 $135 $135 $216 $217 reversed $85 $-1 #
face $-1 $218 $219 $45 $-1 $220 reversed single #
loop $-1 $-1 $221 $87 #
plane-surface $-1 -23.913575124410841 -24.187225935842562 0.76620486904786844 0 -0.62932039886446345 0.77714595512881146 1 0 0 forward_v I I I I #
coedge $-1 $222 $223 $224 $225 reversed $88 $-1 #
face $-1 $-1 $226 $46 $-1 $227 forward single #
loop $-1 $228 $229 $90 #
cone-surface $-1 -28.650935484503734 -17.882870071579433 -0.84052640087567099 0 0.62932039886446345 -0.77714595512881146 0.75 0 0 1 I I -0.70710678118654757 0.70710678118654757 0.75 forward I I I I #
loop $-1 $-1 $230 $58 #
coedge $-1 $144 $144 $231 $232 reversed $91 $-1 #
face $-1 $-1 $233 $47 $-1 $234 forward single #
loop $-1 $235 $236 $93 #
cone-surface $-1 -19.176214764317955 -17.882870071579433 -0.84052640087567099 0 0.62932039886446345 -0.77714595512881146 0.75 0 0 1 I I -0.70710678118654757 0.70710678118654757 0.75 forward I I I I #
loop $-1 $-1 $237 $59 #
coedge $-1 $149 $149 $238 $239 reversed $94 $-1 #
face $-1 $240 $241 $36 $-1 $242 reversed single #
loop $-1 $-1 $243 $96 #
plane-surface $-1 0 -24.187225935842566 0 0 1 0 0 0 1 forward_v I I I I #
coedge $-1 $244 $245 $246 $247 forward $97 $-1 #
coedge $-1 $248 $99 $249 $250 forward $61 $-1 #
coedge $-1 $99 $248 $251 $252 forward $61 $-1 #
coedge $-1 $253 $254 $99 $157 reversed $255 $-1 #
edge $-1 $256 -24.187225935842566 $257 24.187225935842566 $156 $258 forward 7 unknown #
face $-1 $259 $260 $37 $-1 $261 reversed single #
loop $-1 $-1 $262 $100 #
plane-surface $-1 0 24.187225935842566 0 0 -1 0 0 0 -1 forward_v I I I I #
coedge $-1 $164 $263 $264 $265 reversed $101 $-1 #
coedge $-1 $266 $103 $267 $268 reversed $64 $-1 #
coedge $-1 $103 $266 $269 $270 reversed $64 $-1 #
coedge $-1 $271 $161 $103 $165 reversed $101 $-1 #
edge $-1 $272 -24.187225935842566 $273 24.187225935842566 $164 $274 forward 7 unknown #
face $-1 $275 $276 $38 $-1 $277 reversed single #
loop $-1 $-1 $278 $104 #
plane-surface $-1 0 -24.187225935842566 0 0 1 0 0 0 1 forward_v I I I I #
coedge $-1 $279 $280 $281 $282 forward $105 $-1 #
coedge $-1 $281 $107 $278 $283 reversed $67 $-1 #
coedge $-1 $107 $281 $284 $285 reversed $67 $-1 #
coedge $-1 $286 $287 $107 $173 reversed $276 $-1 #
edge $-1 $288 -24.187225935842566 $289 24.187225935842566 $172 $290 forward 7 unknown #
face $-1 $291 $292 $39 $-1 $293 reversed single #
loop $-1 $-1 $294 $108 #
plane-surface $-1 -20.649535792642652 79.823351850243128 112.29448647973155 -1 0 0 0 0.7660444514056185 0.64278759981090561 forward_v I I I I #
coedge $-1 $295 $296 $297 $298 reversed $109 $-1 #
coedge $-1 $179 $111 $299 $300 reversed $70 $-1 #
coedge $-1 $111 $178 $295 $301 reversed $70 $-1 #
coedge $-1 $297 $302 $111 $181 forward $303 $-1 #
edge $-1 $304 15.724449989278998 $305 18.408099317807689 $180 $306 forward 7 unknown #
loop $-1 $-1 $187 $112 #
plane-surface $-1 -31.933098703519683 -6.9072718749260815 39.518854005519998 0 0.7660444514056185 0.64278759981090561 1 0 0 forward_v I I I I #
loop $-1 $-1 $307 $72 #
coedge $-1 $185 $185 $186 $308 reversed $113 $-1 #
coedge $-1 $186 $186 $185 $308 forward $115 $-1 #
coedge $-1 $187 $187 $116 $188 forward $182 $-1 #
edge $-1 $309 -5.7913448028559051e-016 $309 6.2831853071795996 $187 $310 forward 7 unknown #
loop $-1 $-1 $194 $117 #
plane-surface $-1 -31.933098703519683 -6.9072718749260815 39.518854005519998 0 0.7660444514056185 0.64278759981090561 1 0 0 forward_v I I I I #
loop $-1 $-1 $311 $75 #
coedge $-1 $192 $192 $193 $312 reversed $118 $-1 #
coedge $-1 $193 $193 $192 $312 forward $120 $-1 #
coedge $-1 $194 $194 $121 $195 forward $189 $-1 #
edge $-1 $313 -5.7913448028559051e-016 $313 6.2831853071795996 $194 $314 forward 7 unknown #
face $-1 $315 $316 $42 $-1 $317 forward single #
loop $-1 $-1 $318 $122 #
plane-surface $-1 43.507152492110215 79.823351850243128 112.29448647973155 -1 0 0 0 0.7660444514056185 0.64278759981090561 forward_v I I I I #
coedge $-1 $319 $320 $321 $322 reversed $123 $-1 #
coedge $-1 $201 $125 $323 $324 reversed $79 $-1 #
coedge $-1 $125 $200 $319 $325 reversed $79 $-1 #
coedge $-1 $321 $326 $125 $203 forward $316 $-1 #
edge $-1 $327 15.724449989278998 $328 18.408099317807689 $202 $329 forward 7 unknown #
loop $-1 $-1 $209 $126 #
plane-surface $-1 32.223589581233185 -6.9072718749260815 39.518854005519998 0 0.7660444514056185 0.64278759981090561 1 0 0 forward_v I I I I #
loop $-1 $-1 $330 $81 #
coedge $-1 $207 $207 $208 $331 reversed $127 $-1 #
coedge $-1 $208 $208 $207 $331 forward $129 $-1 #
coedge $-1 $209 $209 $130 $210 forward $204 $-1 #
edge $-1 $332 -5.7913448028559051e-016 $332 6.2831853071795996 $209 $333 forward 7 unknown #
loop $-1 $-1 $216 $131 #
plane-surface $-1 32.223589581233185 -6.9072718749260815 39.518854005519998 0 0.7660444514056185 0.64278759981090561 1 0 0 forward_v I I I I #
loop $-1 $-1 $334 $84 #
coedge $-1 $214 $214 $215 $335 reversed $132 $-1 #
coedge $-1 $215 $215 $214 $335 forward $134 $-1 #
coedge $-1 $216 $216 $135 $217 forward $211 $-1 #
edge $-1 $336 -5.7913448028559051e-016 $336 6.2831853071795996 $216 $337 forward 7 unknown #
face $-1 $338 $339 $45 $-1 $340 forward single #
loop $-1 $-1 $341 $136 #
plane-surface $-1 -34.967415964627577 -95.438118251994212 88.753727381791478 1 0 0 0 0.62932039886446345 -0.77714595512881146 forward_v I I I I #
coedge $-1 $342 $343 $344 $345 reversed $137 $-1 #
coedge $-1 $223 $139 $346 $347 reversed $88 $-1 #
coedge $-1 $139 $222 $342 $348 reversed $88 $-1 #
coedge $-1 $344 $349 $139 $225 forward $339 $-1 #
edge $-1 $350 23.53183319015454 $351 29.575317874238657 $224 $352 forward 7 unknown #
loop $-1 $-1 $231 $140 #
plane-surface $-1 -23.913575124410841 -24.187225935842562 0.76620486904786844 0 -0.62932039886446345 0.77714595512881146 1 0 0 forward_v I I I I #
loop $-1 $-1 $353 $90 #
coedge $-1 $229 $229 $230 $354 reversed $141 $-1 #
coedge $-1 $230 $230 $229 $354 forward $143 $-1 #
coedge $-1 $231 $231 $144 $232 forward $226 $-1 #
edge $-1 $355 -5.8146007836972474e-016 $355 6.2831853071795996 $231 $356 forward 7 unknown #
loop $-1 $-1 $238 $145 #
plane-surface $-1 -23.913575124410841 -24.187225935842562 0.76620486904786844 0 -0.62932039886446345 0.77714595512881146 1 0 0 forward_v I I I I #
loop $-1 $-1 $357 $93 #
coedge $-1 $236 $236 $237 $358 reversed $146 $-1 #
coedge $-1 $237 $237 $236 $358 forward $148 $-1 #
coedge $-1 $238 $238 $149 $239 forward $233 $-1 #
edge $-1 $359 -5.8146007836972474e-016 $359 6.2831853071795996 $238 $360 forward 7 unknown #
face $-1 $361 $362 $36 $-1 $363 reversed single #
loop $-1 $-1 $364 $150 #
plane-surface $-1 -56.609393597216709 0 0 1 0 0 0 0 -1 forward_v I I I I #
coedge $-1 $365 $251 $366 $367 forward $151 $-1 #
coedge $-1 $368 $153 $365 $369 forward $97 $-1 #
coedge $-1 $153 $368 $370 $371 forward $97 $-1 #
coedge $-1 $254 $253 $153 $247 reversed $255 $-1 #
edge $-1 $372 -24.187225935842566 $373 24.187225935842566 $246 $374 forward 7 unknown #
coedge $-1 $155 $154 $375 $376 forward $61 $-1 #
coedge $-1 $377 $378 $154 $250 reversed $362 $-1 #
edge $-1 $257 -56.609393597216709 $379 56.609393597216709 $249 $380 forward 7 unknown #
coedge $-1 $243 $381 $155 $252 reversed $151 $-1 #
edge $-1 $382 -56.609393597216709 $256 56.609393597216709 $251 $383 forward 7 unknown #
coedge $-1 $246 $156 $381 $384 forward $255 $-1 #
coedge $-1 $156 $246 $377 $385 reversed $255 $-1 #
loop $-1 $-1 $253 $361 #
vertex $-1 $157 $386 #
vertex $-1 $157 $387 #
straight-curve $-1 56.609393597216709 0 5.6601223716985753 0 1 0 I I #
face $-1 $388 $389 $37 $-1 $390 forward single #
loop $-1 $-1 $391 $158 #
plane-surface $-1 -56.609393597216709 0 0 1 0 0 0 0 -1 forward_v I I I I #
coedge $-1 $269 $392 $271 $393 forward $159 $-1 #
coedge $-1 $161 $271 $394 $395 reversed $101 $-1 #
coedge $-1 $396 $267 $161 $265 forward $397 $-1 #
edge $-1 $273 0.58006118584928767 $398 3.5800611858492877 $264 $399 forward 7 unknown #
coedge $-1 $163 $162 $391 $400 reversed $64 $-1 #
coedge $-1 $264 $401 $162 $268 forward $397 $-1 #
edge $-1 $402 -29.769720503999967 $273 -23.909625682433518 $267 $403 forward 7 unknown #
coedge $-1 $404 $262 $163 $270 forward $159 $-1 #
edge $-1 $272 23.909625682433518 $405 29.769720503999967 $269 $406 forward 7 unknown #
coedge $-1 $263 $164 $262 $393 reversed $101 $-1 #
vertex $-1 $270 $407 #
vertex $-1 $268 $408 #
straight-curve $-1 -50.74929877565026 0 2.6601223716985753 0 -1 0 I I #
face $-1 $409 $410 $38 $-1 $411 reversed single #
loop $-1 $-1 $412 $166 #
plane-surface $-1 59.394195569143179 0 2.6601223716985753 0 0 1 1 0 0 forward_v I I I I #
coedge $-1 $413 $414 $170 $283 forward $167 $-1 #
coedge $-1 $415 $169 $414 $416 forward $105 $-1 #
coedge $-1 $169 $415 $417 $418 forward $105 $-1 #
coedge $-1 $171 $170 $169 $282 reversed $67 $-1 #
edge $-1 $419 -24.187225935842566 $420 24.187225935842566 $169 $421 forward 7 unknown #
edge $-1 $420 -5.6601223716985753 $289 -2.6601223716985753 $278 $422 forward 7 unknown #
coedge $-1 $417 $423 $171 $285 forward $424 $-1 #
edge $-1 $288 2.6601223716985753 $419 5.6601223716985753 $284 $425 forward 7 unknown #
coedge $-1 $412 $172 $423 $426 forward $276 $-1 #
coedge $-1 $172 $412 $413 $427 forward $276 $-1 #
vertex $-1 $285 $428 #
vertex $-1 $283 $429 #
straight-curve $-1 56.609393597216709 0 2.6601223716985753 0 -1 0 I I #
face $-1 $-1 $303 $39 $-1 $430 forward single #
loop $-1 $-1 $431 $174 #
plane-surface $-1 0 24.187225935842566 0 0 -1 0 0 0 -1 forward_v I I I I #
coedge $-1 $432 $433 $434 $435 reversed $175 $-1 #
coedge $-1 $436 $177 $179 $301 forward $109 $-1 #
coedge $-1 $177 $436 $432 $437 forward $109 $-1 #
coedge $-1 $434 $180 $177 $298 forward $303 $-1 #
edge $-1 $305 -27.250112262636872 $438 -4.6829864408828108 $297 $439 forward 7 unknown #
coedge $-1 $440 $441 $178 $300 forward $292 $-1 #
edge $-1 $442 -53.685369680438299 $304 -50.487120868167196 $299 $443 forward 7 unknown #
edge $-1 $305 44.199434604211142 $442 48.374451871685132 $179 $444 forward 7 unknown #
coedge $-1 $180 $434 $440 $445 forward $303 $-1 #
loop $-1 $-1 $434 $291 #
vertex $-1 $300 $446 #
vertex $-1 $181 $447 #
straight-curve $-1 -43.216661614396713 39.911675925121564 5.6601223716985771 0 -1 0 I I #
coedge $-1 $307 $307 $-1 $448 reversed $184 $-1 #
edge $-1 $449 0 $449 6.2831853071796004 $185 $450 forward 7 unknown #
vertex $-1 $188 $451 #
ellipse-curve $-1 -36.76891137960984 22.845401271578226 4.0609979655630202 0 0.7660444514056185 0.64278759981090561 0.5 0 0 1 I I #
coedge $-1 $311 $311 $-1 $452 reversed $191 $-1 #
edge $-1 $453 0 $453 6.2831853071796004 $192 $454 forward 7 unknown #
vertex $-1 $195 $455 #
ellipse-curve $-1 -27.097286027429529 22.845401271578226 4.0609979655630202 0 0.7660444514056185 0.64278759981090561 0.5 0 0 1 I I #
face $-1 $-1 $456 $42 $-1 $457 reversed single #
loop $-1 $-1 $202 $196 #
plane-surface $-1 0 0 5.6601223716985753 0 0 1 1 0 0 forward_v I I I I #
coedge $-1 $458 $459 $460 $461 reversed $197 $-1 #
coedge $-1 $462 $199 $201 $325 forward $123 $-1 #
coedge $-1 $199 $462 $458 $463 forward $123 $-1 #
coedge $-1 $460 $202 $199 $322 forward $316 $-1 #
edge $-1 $328 4.8282318797395618 $464 27.395357701493623 $321 $465 forward 7 unknown #
coedge $-1 $466 $467 $200 $324 forward $456 $-1 #
edge $-1 $468 -53.685369680438299 $327 -50.487120868167196 $323 $469 forward 7 unknown #
edge $-1 $328 44.199434604211142 $468 48.374451871685132 $201 $470 forward 7 unknown #
coedge $-1 $202 $460 $466 $471 forward $316 $-1 #
vertex $-1 $203 $472 #
vertex $-1 $203 $473 #
straight-curve $-1 20.940026670356154 39.911675925121564 5.6601223716985771 0 -1 0 I I #
coedge $-1 $330 $330 $-1 $474 reversed $206 $-1 #
edge $-1 $475 0 $475 6.2831853071796004 $207 $476 forward 7 unknown #
vertex $-1 $210 $477 #
ellipse-curve $-1 27.387776905143014 22.845401271578226 4.0609979655630202 0 0.7660444514056185 0.64278759981090561 0.5 0 0 1 I I #
coedge $-1 $334 $334 $-1 $478 reversed $213 $-1 #
edge $-1 $479 0 $479 6.2831853071796004 $214 $480 forward 7 unknown #
vertex $-1 $217 $481 #
ellipse-curve $-1 37.059402257323327 22.845401271578226 4.0609979655630202 0 0.7660444514056185 0.64278759981090561 0.5 0 0 1 I I #
face $-1 $-1 $482 $45 $-1 $483 reversed single #
loop $-1 $-1 $224 $218 #
plane-surface $-1 0 0 5.6601223716985753 0 0 1 1 0 0 forward_v I I I I #
coedge $-1 $484 $485 $486 $487 reversed $219 $-1 #
coedge $-1 $488 $221 $223 $348 forward $137 $-1 #
coedge $-1 $221 $488 $484 $489 forward $137 $-1 #
coedge $-1 $486 $224 $221 $345 forward $339 $-1 #
edge $-1 $351 0.90294672198868042 $490 23.010628402422157 $344 $491 forward 7 unknown #
coedge $-1 $492 $493 $222 $347 forward $482 $-1 #
edge $-1 $494 -43.610658821847871 $350 -38.716741319197162 $346 $495 forward 7 unknown #
edge $-1 $351 -7.7765117918968132 $494 4.5775606565932064e-015 $223 $496 forward 7 unknown #
coedge $-1 $224 $486 $492 $497 forward $339 $-1 #
vertex $-1 $347 $498 #
vertex $-1 $225 $499 #
straight-curve $-1 -12.859734284194101 -47.719059125997106 5.6601223716985771 0 1 0 I I #
coedge $-1 $353 $353 $-1 $500 reversed $228 $-1 #
edge $-1 $501 0 $501 6.2831853071796004 $229 $502 forward 7 unknown #
vertex $-1 $232 $503 #
ellipse-curve $-1 -28.650935484503734 -21.165483593800506 3.2131636203732215 0 -0.62932039886446345 0.77714595512881146 1.5 0 0 1 I I #
coedge $-1 $357 $357 $-1 $504 reversed $235 $-1 #
edge $-1 $505 0 $505 6.2831853071796004 $236 $506 forward 7 unknown #
vertex $-1 $239 $507 #
ellipse-curve $-1 -19.176214764317955 -21.165483593800506 3.2131636203732215 0 -0.62932039886446345 0.77714595512881146 1.5 0 0 1 I I #
face $-1 $-1 $255 $36 $-1 $508 reversed single #
loop $-1 $-1 $377 $240 #
plane-surface $-1 0 24.187225935842566 0 0 -1 0 0 0 -1 forward_v I I I I #
coedge $-1 $509 $375 $378 $510 forward $241 $-1 #
coedge $-1 $381 $243 $244 $369 reversed $151 $-1 #
coedge $-1 $375 $509 $243 $367 reversed $241 $-1 #
edge $-1 $382 -5.6601223716985753 $511 5.6601223716985753 $366 $512 forward 7 unknown #
coedge $-1 $245 $244 $509 $513 forward $97 $-1 #
edge $-1 $373 -56.609393597216709 $511 56.609393597216709 $365 $514 forward 7 unknown #
coedge $-1 $378 $377 $245 $371 reversed $362 $-1 #
edge $-1 $515 -56.609393597216709 $372 56.609393597216709 $370 $516 forward 7 unknown #
vertex $-1 $247 $517 #
vertex $-1 $384 $518 #
straight-curve $-1 56.609393597216709 0 -5.6601223716985753 0 -1 0 I I #
coedge $-1 $364 $366 $248 $376 reversed $241 $-1 #
edge $-1 $379 -24.187225935842566 $382 24.187225935842566 $375 $519 forward 7 unknown #
coedge $-1 $370 $249 $254 $385 forward $362 $-1 #
coedge $-1 $249 $370 $364 $510 reversed $362 $-1 #
vertex $-1 $250 $520 #
straight-curve $-1 0 24.187225935842566 5.6601223716985753 -1 0 0 I I #
coedge $-1 $251 $365 $253 $384 reversed $151 $-1 #
vertex $-1 $376 $521 #
straight-curve $-1 0 -24.187225935842566 5.6601223716985753 1 0 0 I I #
edge $-1 $256 -5.6601223716985753 $373 5.6601223716985753 $253 $522 forward 7 unknown #
edge $-1 $257 -5.6601223716985753 $372 5.6601223716985753 $254 $523 forward 7 unknown #
point $-1 56.609393597216709 -24.187225935842566 5.6601223716985753 #
point $-1 56.609393597216709 24.187225935842566 5.6601223716985753 #
face $-1 $-1 $397 $37 $-1 $524 reversed single #
loop $-1 $-1 $394 $259 #
plane-surface $-1 0 0 5.6601223716985753 0 0 1 1 0 0 forward_v I I I I #
coedge $-1 $525 $526 $266 $400 forward $260 $-1 #
coedge $-1 $262 $404 $527 $528 reversed $159 $-1 #
edge $-1 $529 -3.5800611858492877 $272 -0.58006118584928767 $262 $530 forward 7 unknown #
coedge $-1 $527 $531 $263 $395 forward $389 $-1 #
edge $-1 $398 -24.187225935842566 $529 24.187225935842566 $394 $532 forward 7 unknown #
coedge $-1 $401 $264 $531 $533 reversed $397 $-1 #
loop $-1 $-1 $264 $388 #
vertex $-1 $265 $534 #
straight-curve $-1 -50.74929877565026 -24.187225935842566 2.0800611858492877 0 0 1 I I #
edge $-1 $405 -24.187225935842566 $402 24.187225935842566 $391 $535 forward 7 unknown #
coedge $-1 $267 $396 $525 $536 forward $397 $-1 #
vertex $-1 $400 $537 #
straight-curve $-1 -26.839673093216742 -24.187225935842566 2.6601223716985753 1 0 0 I I #
coedge $-1 $392 $269 $526 $538 reversed $159 $-1 #
vertex $-1 $400 $539 #
straight-curve $-1 -26.839673093216742 24.187225935842566 2.6601223716985753 -1 0 0 I I #
point $-1 -50.74929877565026 24.187225935842566 2.6601223716985753 #
point $-1 -50.74929877565026 -24.187225935842566 2.6601223716985753 #
face $-1 $-1 $424 $38 $-1 $540 reversed single #
loop $-1 $-1 $541 $275 #
plane-surface $-1 62.178997541069656 0 4.1601223716985753 -1 0 0 0 0 1 forward_v I I I I #
coedge $-1 $287 $286 $542 $543 forward $276 $-1 #
coedge $-1 $544 $278 $287 $427 reversed $167 $-1 #
coedge $-1 $278 $544 $279 $416 reversed $167 $-1 #
coedge $-1 $280 $279 $545 $546 forward $105 $-1 #
edge $-1 $420 -2.7848019719264698 $547 2.7848019719264769 $414 $548 forward 7 unknown #
coedge $-1 $549 $284 $280 $418 reversed $424 $-1 #
edge $-1 $550 -62.178997541069656 $419 -56.609393597216709 $417 $551 forward 7 unknown #
vertex $-1 $285 $552 #
vertex $-1 $416 $553 #
straight-curve $-1 56.609393597216709 0 5.6601223716985753 0 -1 0 I I #
straight-curve $-1 56.609393597216709 -24.187225935842566 0 0 0 -1 I I #
coedge $-1 $284 $549 $286 $426 reversed $424 $-1 #
loop $-1 $-1 $284 $409 #
straight-curve $-1 56.609393597216709 24.187225935842566 0 0 0 1 I I #
edge $-1 $288 -2.7848019719264769 $554 2.7848019719264769 $423 $555 forward 7 unknown #
edge $-1 $556 -2.7848019719264769 $289 2.7848019719264769 $413 $557 forward 7 unknown #
point $-1 56.609393597216702 24.187225935842566 2.6601223716985753 #
point $-1 56.609393597216702 -24.187225935842566 2.6601223716985753 #
plane-surface $-1 0 0 5.6601223716985753 0 0 1 1 0 0 forward_v I I I I #
coedge $-1 $441 $440 $433 $558 forward $292 $-1 #
coedge $-1 $433 $294 $296 $437 reversed $175 $-1 #
coedge $-1 $294 $432 $431 $558 reversed $175 $-1 #
coedge $-1 $302 $297 $294 $435 forward $303 $-1 #
edge $-1 $438 -18.408099317807689 $559 -15.724449989278998 $434 $560 forward 7 unknown #
coedge $-1 $296 $295 $441 $561 reversed $109 $-1 #
edge $-1 $562 -48.374451871685132 $438 -44.199434604211142 $432 $563 forward 7 unknown #
vertex $-1 $298 $564 #
straight-curve $-1 -15.966549351759841 21.503576607313878 5.6601223716985736 1 0 0 I I #
coedge $-1 $431 $299 $302 $445 reversed $292 $-1 #
coedge $-1 $299 $431 $436 $561 forward $292 $-1 #
vertex $-1 $300 $565 #
straight-curve $-1 -43.216661614396713 24.187225935842566 56.147243239865773 0 0 1 I I #
straight-curve $-1 -43.216661614396713 -6.9072718749260815 39.518854005519998 0 0.64278759981090561 -0.7660444514056185 I I #
edge $-1 $559 20.649535792642652 $304 43.216661614396713 $440 $566 forward 7 unknown #
point $-1 -43.216661614396713 24.187225935842566 5.6601223716985753 #
point $-1 -43.216661614396713 21.503576607313875 5.6601223716985771 #
edge $-1 $567 1 $567 0 $307 $-1 forward 7 unknown #
vertex $-1 $308 $568 #
ellipse-curve $-1 -36.76891137960984 21.341997831027015 2.7994927261135656 0 0.7660444514056185 0.64278759981090561 0.5 0 0 1 I I #
point $-1 -36.26891137960984 22.845401271578211 4.0609979655630086 #
edge $-1 $569 1 $569 0 $311 $-1 forward 7 unknown #
vertex $-1 $312 $570 #
ellipse-curve $-1 -27.097286027429529 21.341997831027015 2.7994927261135656 0 0.7660444514056185 0.64278759981090561 0.5 0 0 1 I I #
point $-1 -26.597286027429529 22.845401271578211 4.0609979655630086 #
loop $-1 $-1 $323 $315 #
plane-surface $-1 0 24.187225935842566 0 0 -1 0 0 0 -1 forward_v I I I I #
coedge $-1 $459 $318 $320 $463 reversed $197 $-1 #
coedge $-1 $318 $458 $571 $572 reversed $197 $-1 #
coedge $-1 $326 $321 $318 $461 forward $316 $-1 #
edge $-1 $464 -18.408099317807689 $573 -15.724449989278998 $460 $574 forward 7 unknown #
coedge $-1 $320 $319 $467 $575 reversed $123 $-1 #
edge $-1 $576 -48.374451871685132 $464 -44.199434604211142 $458 $577 forward 7 unknown #
vertex $-1 $322 $578 #
straight-curve $-1 16.111794790616592 21.503576607313878 5.6601223716985736 1 0 0 I I #
coedge $-1 $571 $323 $326 $471 reversed $456 $-1 #
coedge $-1 $323 $571 $462 $575 forward $456 $-1 #
vertex $-1 $324 $579 #
straight-curve $-1 20.940026670356154 24.187225935842566 56.147243239865773 0 0 1 I I #
straight-curve $-1 20.940026670356154 -6.9072718749260815 39.518854005519998 0 0.64278759981090561 -0.7660444514056185 I I #
edge $-1 $573 -43.507152492110215 $327 -20.940026670356154 $466 $580 forward 7 unknown #
point $-1 20.940026670356154 24.187225935842566 5.6601223716985753 #
point $-1 20.940026670356154 21.503576607313875 5.6601223716985771 #
edge $-1 $581 1 $581 0 $330 $-1 forward 7 unknown #
vertex $-1 $331 $582 #
ellipse-curve $-1 27.387776905143014 21.341997831027015 2.7994927261135656 0 0.7660444514056185 0.64278759981090561 0.5 0 0 1 I I #
point $-1 27.887776905143014 22.845401271578211 4.0609979655630086 #
edge $-1 $583 1 $583 0 $334 $-1 forward 7 unknown #
vertex $-1 $335 $584 #
ellipse-curve $-1 37.059402257323327 21.341997831027015 2.7994927261135656 0 0.7660444514056185 0.64278759981090561 0.5 0 0 1 I I #
point $-1 37.559402257323327 22.845401271578211 4.0609979655630086 #
loop $-1 $-1 $346 $338 #
plane-surface $-1 0 -24.187225935842566 0 0 1 0 0 0 1 forward_v I I I I #
coedge $-1 $485 $341 $343 $489 reversed $219 $-1 #
coedge $-1 $341 $484 $585 $586 reversed $219 $-1 #
coedge $-1 $349 $344 $341 $487 forward $339 $-1 #
edge $-1 $490 -29.575317874238657 $587 -23.53183319015454 $486 $588 forward 7 unknown #
coedge $-1 $343 $342 $493 $589 reversed $137 $-1 #
edge $-1 $590 -4.5775606565932064e-015 $490 7.7765117918968132 $484 $591 forward 7 unknown #
vertex $-1 $345 $592 #
straight-curve $-1 -11.95678756220542 -18.143741251758449 5.6601223716985753 -1 0 0 I I #
coedge $-1 $585 $346 $349 $497 reversed $482 $-1 #
coedge $-1 $346 $585 $488 $589 forward $482 $-1 #
vertex $-1 $347 $593 #
straight-curve $-1 -12.859734284194101 -24.187225935842569 44.376863690895739 0 0 1 I I #
straight-curve $-1 -12.859734284194101 -24.187225935842562 0.76620486904786844 0 -0.77714595512881146 -0.62932039886446345 I I #
edge $-1 $587 -94.361611533770755 $350 -72.253929853337283 $492 $594 forward 7 unknown #
point $-1 -12.859734284194104 -24.187225935842566 5.6601223716985753 #
point $-1 -12.859734284194101 -18.143741251758449 5.6601223716985753 #
edge $-1 $595 1 $595 0 $353 $-1 forward 7 unknown #
vertex $-1 $354 $596 #
ellipse-curve $-1 -28.650935484503734 -18.354860370727781 -0.25766693452906242 0 -0.62932039886446345 0.77714595512881146 1.5 0 0 1 I I #
point $-1 -27.150935484503734 -21.165483593800502 3.2131636203732157 #
edge $-1 $597 1 $597 0 $357 $-1 forward 7 unknown #
vertex $-1 $358 $598 #
ellipse-curve $-1 -19.176214764317955 -18.354860370727781 -0.25766693452906242 0 -0.62932039886446345 0.77714595512881146 1.5 0 0 1 I I #
point $-1 -17.676214764317955 -21.165483593800502 3.2131636203732157 #
plane-surface $-1 56.609393597216709 0 0 -1 0 0 0 0 1 forward_v I I I I #
coedge $-1 $366 $364 $368 $513 reversed $241 $-1 #
edge $-1 $379 -5.6601223716985753 $515 5.6601223716985753 $378 $599 forward 7 unknown #
vertex $-1 $513 $600 #
straight-curve $-1 -56.609393597216709 -24.187225935842566 0 0 0 -1 I I #
edge $-1 $511 -24.187225935842566 $515 24.187225935842566 $509 $601 forward 7 unknown #
straight-curve $-1 0 -24.187225935842566 -5.6601223716985753 -1 0 0 I I #
vertex $-1 $371 $602 #
straight-curve $-1 0 24.187225935842566 -5.6601223716985753 1 0 0 I I #
point $-1 56.609393597216709 24.187225935842566 -5.6601223716985753 #
point $-1 56.609393597216709 -24.187225935842566 -5.6601223716985753 #
straight-curve $-1 -56.609393597216709 0 5.6601223716985753 0 -1 0 I I #
point $-1 -56.609393597216709 24.187225935842566 5.6601223716985753 #
point $-1 -56.609393597216709 -24.187225935842566 5.6601223716985753 #
straight-curve $-1 56.609393597216709 -24.187225935842566 0 0 0 -1 I I #
straight-curve $-1 56.609393597216709 24.187225935842566 0 0 0 -1 I I #
plane-surface $-1 0 -24.187225935842566 0 0 1 0 0 0 1 forward_v I I I I #
coedge $-1 $603 $391 $401 $536 reversed $260 $-1 #
coedge $-1 $391 $603 $404 $538 forward $260 $-1 #
coedge $-1 $604 $394 $392 $528 forward $389 $-1 #
edge $-1 $529 50.74929877565026 $605 56.609393597216709 $392 $606 forward 7 unknown #
vertex $-1 $528 $607 #
straight-curve $-1 -50.74929877565026 24.187225935842566 2.0800611858492877 0 0 -1 I I #
coedge $-1 $394 $604 $396 $533 forward $389 $-1 #
straight-curve $-1 -50.74929877565026 0 5.6601223716985753 0 1 0 I I #
edge $-1 $608 -56.609393597216709 $398 -50.74929877565026 $396 $609 forward 7 unknown #
point $-1 -50.74929877565026 -24.187225935842566 5.6601223716985753 #
straight-curve $-1 -56.609393597216709 0 2.6601223716985753 0 -1 0 I I #
edge $-1 $608 -5.6601223716985753 $402 -2.6601223716985753 $525 $610 forward 7 unknown #
point $-1 -56.609393597216709 -24.187225935842566 2.6601223716985753 #
edge $-1 $605 -5.6601223716985753 $405 -2.6601223716985753 $404 $611 forward 7 unknown #
point $-1 -56.609393597216709 24.187225935842566 2.6601223716985753 #
plane-surface $-1 0 24.187225935842566 0 0 -1 0 0 0 -1 forward_v I I I I #
coedge $-1 $542 $545 $544 $612 forward $410 $-1 #
coedge $-1 $613 $541 $412 $543 reversed $410 $-1 #
edge $-1 $554 -24.187225935842566 $556 24.187225935842566 $542 $614 forward 7 unknown #
coedge $-1 $414 $413 $541 $612 reversed $167 $-1 #
coedge $-1 $541 $613 $415 $546 reversed $410 $-1 #
edge $-1 $547 -24.187225935842566 $550 24.187225935842566 $545 $615 forward 7 unknown #
vertex $-1 $546 $616 #
straight-curve $-1 59.394195569143179 -24.187225935842566 5.6601223716985753 1 0 0 I I #
coedge $-1 $423 $417 $613 $617 forward $424 $-1 #
vertex $-1 $546 $618 #
straight-curve $-1 0 24.187225935842566 5.6601223716985753 -1 0 0 I I #
point $-1 56.609393597216709 24.187225935842566 5.6601223716985753 #
point $-1 56.609393597216709 -24.187225935842566 5.6601223716985753 #
vertex $-1 $543 $619 #
straight-curve $-1 59.394195569143179 24.187225935842566 2.6601223716985753 1 0 0 I I #
vertex $-1 $612 $620 #
straight-curve $-1 59.394195569143179 -24.187225935842566 2.6601223716985753 -1 0 0 I I #
edge $-1 $559 50.487120868167196 $562 53.685369680438299 $431 $621 forward 7 unknown #
vertex $-1 $445 $622 #
straight-curve $-1 -20.649535792642652 39.911675925121564 5.6601223716985771 0 1 0 I I #
edge $-1 $562 4.6829864408828108 $442 27.250112262636872 $441 $623 forward 7 unknown #
vertex $-1 $561 $624 #
straight-curve $-1 -20.649535792642652 -6.9072718749260815 39.518854005519998 0 -0.64278759981090561 0.7660444514056185 I I #
point $-1 -20.649535792642652 21.503576607313875 5.6601223716985771 #
point $-1 -43.216661614396713 24.187225935842566 2.4618735594274739 #
straight-curve $-1 0 24.187225935842566 5.6601223716985753 -1 0 0 I I #
vertex $-1 $448 $625 #
point $-1 -36.26891137960984 21.341997831027015 2.7994927261135656 #
vertex $-1 $452 $626 #
point $-1 -26.597286027429529 21.341997831027015 2.7994927261135656 #
coedge $-1 $467 $466 $459 $572 forward $456 $-1 #
edge $-1 $573 50.487120868167196 $576 53.685369680438299 $571 $627 forward 7 unknown #
vertex $-1 $471 $628 #
straight-curve $-1 43.507152492110215 39.911675925121564 5.6601223716985771 0 1 0 I I #
edge $-1 $576 -27.395357701493623 $468 -4.8282318797395618 $467 $629 forward 7 unknown #
vertex $-1 $575 $630 #
straight-curve $-1 43.507152492110215 -6.9072718749260815 39.518854005519998 0 -0.64278759981090561 0.7660444514056185 I I #
point $-1 43.507152492110215 21.503576607313875 5.6601223716985771 #
point $-1 20.940026670356154 24.187225935842566 2.4618735594274739 #
straight-curve $-1 0 24.187225935842566 5.6601223716985753 -1 0 0 I I #
vertex $-1 $474 $631 #
point $-1 27.887776905143014 21.341997831027015 2.7994927261135656 #
vertex $-1 $478 $632 #
point $-1 37.559402257323327 21.341997831027015 2.7994927261135656 #
coedge $-1 $493 $492 $485 $586 forward $482 $-1 #
edge $-1 $587 38.716741319197162 $590 43.610658821847871 $585 $633 forward 7 unknown #
vertex $-1 $497 $634 #
straight-curve $-1 -34.967415964627577 -47.719059125997106 5.6601223716985771 0 -1 0 I I #
edge $-1 $590 -23.010628402422157 $494 -0.90294672198868042 $493 $635 forward 7 unknown #
vertex $-1 $589 $636 #
straight-curve $-1 -34.967415964627577 -24.187225935842562 0.76620486904786844 0 0.77714595512881146 0.62932039886446345 I I #
point $-1 -34.967415964627577 -18.143741251758449 5.6601223716985753 #
point $-1 -12.859734284194101 -24.187225935842566 0.76620486904786556 #
straight-curve $-1 59.394195569143179 -24.187225935842566 5.6601223716985753 1 0 0 I I #
vertex $-1 $500 $637 #
point $-1 -27.150935484503734 -18.354860370727781 -0.25766693452906242 #
vertex $-1 $504 $638 #
point $-1 -17.676214764317955 -18.354860370727781 -0.25766693452906242 #
straight-curve $-1 -56.609393597216709 24.187225935842566 0 0 0 -1 I I #
point $-1 -56.609393597216709 -24.187225935842566 -5.6601223716985753 #
straight-curve $-1 -56.609393597216709 0 -5.6601223716985753 0 1 0 I I #
point $-1 -56.609393597216709 24.187225935842566 -5.6601223716985753 #
coedge $-1 $526 $525 $604 $639 reversed $260 $-1 #
coedge $-1 $531 $527 $603 $639 forward $389 $-1 #
vertex $-1 $528 $640 #
straight-curve $-1 0 24.187225935842566 5.6601223716985753 -1 0 0 I I #
point $-1 -50.74929877565026 24.187225935842566 5.6601223716985753 #
vertex $-1 $639 $641 #
straight-curve $-1 0 -24.187225935842566 5.6601223716985753 1 0 0 I I #
straight-curve $-1 -56.609393597216709 -24.187225935842566 0 0 0 -1 I I #
straight-curve $-1 -56.609393597216709 24.187225935842566 0 0 0 -1 I I #
edge $-1 $547 -1.5 $556 1.5 $541 $642 forward 7 unknown #
coedge $-1 $545 $542 $549 $617 reversed $410 $-1 #
straight-curve $-1 62.178997541069656 0 2.6601223716985753 0 -1 0 I I #
straight-curve $-1 62.178997541069656 0 5.6601223716985753 0 1 0 I I #
point $-1 62.178997541069656 -24.187225935842566 5.6601223716985753 #
edge $-1 $550 -1.5 $554 1.5 $613 $643 forward 7 unknown #
point $-1 62.178997541069656 24.187225935842566 5.6601223716985753 #
point $-1 62.178997541069656 24.187225935842566 2.6601223716985753 #
point $-1 62.178997541069656 -24.187225935842566 2.6601223716985753 #
straight-curve $-1 -20.649535792642652 24.187225935842566 56.147243239865773 0 0 -1 I I #
point $-1 -20.649535792642652 24.187225935842566 5.6601223716985753 #
straight-curve $-1 -15.966549351759841 24.187225935842566 2.4618735594274774 -1 0 0 I I #
point $-1 -20.649535792642652 24.187225935842566 2.4618735594274739 #
point $-1 -36.76891137960984 20.958975605324206 2.478098926208113 #
point $-1 -27.097286027429529 20.958975605324206 2.478098926208113 #
straight-curve $-1 43.507152492110215 24.187225935842566 56.147243239865773 0 0 -1 I I #
point $-1 43.507152492110215 24.187225935842566 5.6601223716985753 #
straight-curve $-1 16.111794790616592 24.187225935842566 2.4618735594274774 -1 0 0 I I #
point $-1 43.507152492110215 24.187225935842566 2.4618735594274739 #
point $-1 27.387776905143014 20.958975605324206 2.478098926208113 #
point $-1 37.059402257323327 20.958975605324206 2.478098926208113 #
straight-curve $-1 -34.967415964627577 -24.187225935842569 44.376863690895739 0 0 -1 I I #
point $-1 -34.967415964627577 -24.187225935842566 5.6601223716985753 #
straight-curve $-1 -11.95678756220542 -24.187225935842566 0.76620486904786411 1 0 0 I I #
point $-1 -34.967415964627577 -24.187225935842566 0.76620486904786556 #
point $-1 -28.650935484503734 -17.410879772431084 -1.4233858672222794 #
point $-1 -19.176214764317955 -17.410879772431084 -1.4233858672222794 #
edge $-1 $605 -24.187225935842566 $608 24.187225935842566 $603 $644 forward 7 unknown #
point $-1 -56.609393597216709 24.187225935842566 5.6601223716985753 #
point $-1 -56.609393597216709 -24.187225935842566 5.6601223716985753 #
straight-curve $-1 62.178997541069656 -24.187225935842566 4.1601223716985753 0 0 -1 I I #
straight-curve $-1 62.178997541069656 24.187225935842566 4.1601223716985753 0 0 -1 I I #
straight-curve $-1 -56.609393597216709 0 5.6601223716985753 0 -1 0 I I #
End-of-ACIS-data 