500 0 15 0           
7 Unknown 11 ACIS 5.0 NT 24 Thu Mar 25 18:31:34 1999 
-1 9.9999999999999995e-007 1e-010 
body $-1 $15 $-1 $16 #
body $-1 $17 $-1 $18 #
body $-1 $19 $-1 $20 #
body $-1 $21 $-1 $22 #
body $-1 $23 $-1 $24 #
body $-1 $25 $-1 $26 #
body $-1 $27 $-1 $28 #
body $-1 $29 $-1 $30 #
body $-1 $31 $-1 $32 #
body $-1 $33 $-1 $34 #
body $-1 $35 $-1 $36 #
body $-1 $37 $-1 $38 #
body $-1 $39 $-1 $40 #
body $-1 $41 $-1 $42 #
body $-1 $43 $-1 $44 #
lump $-1 $-1 $45 $0 #
transform $-1 1 0 0 0 1 0 0 0 1 66.933194982757044 30.357606043770982 11.736507869578869 1 rotate no_reflect no_shear #
lump $-1 $-1 $46 $1 #
transform $-1 1 0 0 0 1 0 0 0 1 66.933194982757044 30.357606043770982 11.736507869578869 1 rotate no_reflect no_shear #
lump $-1 $-1 $47 $2 #
transform $-1 1 0 0 0 1 0 0 0 1 66.933194982757044 30.357606043770982 11.736507869578869 1 rotate no_reflect no_shear #
lump $-1 $-1 $48 $3 #
transform $-1 1 0 0 0 1 0 0 0 1 66.933194982757044 30.357606043770982 11.736507869578869 1 rotate no_reflect no_shear #
lump $-1 $-1 $49 $4 #
transform $-1 1 0 0 0 1 0 0 0 1 66.933194982757044 30.357606043770982 11.736507869578869 1 rotate no_reflect no_shear #
lump $-1 $-1 $50 $5 #
transform $-1 1 0 0 0 1 0 0 0 1 66.933194982757044 30.357606043770982 11.736507869578869 1 rotate no_reflect no_shear #
lump $-1 $-1 $51 $6 #
transform $-1 1 0 0 0 1 0 0 0 1 66.933194982757044 30.357606043770982 11.736507869578869 1 rotate no_reflect no_shear #
lump $-1 $-1 $52 $7 #
transform $-1 1 0 0 0 1 0 0 0 1 66.933194982757044 30.357606043770982 11.736507869578869 1 rotate no_reflect no_shear #
lump $-1 $-1 $53 $8 #
transform $-1 1 0 0 0 1 0 0 0 1 66.933194982757044 30.357606043770982 11.736507869578869 1 rotate no_reflect no_shear #
lump $-1 $-1 $54 $9 #
transform $-1 1 0 0 0 1 0 0 0 1 66.933194982757044 30.357606043770982 11.736507869578869 1 rotate no_reflect no_shear #
lump $-1 $-1 $55 $10 #
transform $-1 1 0 0 0 1 0 0 0 1 66.933194982757044 30.357606043770982 11.736507869578869 1 rotate no_reflect no_shear #
lump $-1 $-1 $56 $11 #
transform $-1 1 0 0 0 1 0 0 0 1 66.933194982757044 30.357606043770982 11.736507869578869 1 rotate no_reflect no_shear #
lump $-1 $-1 $57 $12 #
transform $-1 1 0 0 0 1 0 0 0 1 66.933194982757044 30.357606043770982 11.736507869578869 1 rotate no_reflect no_shear #
lump $-1 $-1 $58 $13 #
transform $-1 1 0 0 0 1 0 0 0 1 66.933194982757044 30.357606043770982 11.736507869578869 1 rotate no_reflect no_shear #
lump $-1 $-1 $59 $14 #
transform $-1 1 0 0 0 1 0 0 0 1 66.933194982757044 30.357606043770982 11.736507869578869 1 rotate no_reflect no_shear #
shell $-1 $-1 $-1 $60 $-1 $15 #
shell $-1 $-1 $-1 $61 $-1 $17 #
shell $-1 $-1 $-1 $62 $-1 $19 #
shell $-1 $-1 $-1 $63 $-1 $21 #
shell $-1 $-1 $-1 $64 $-1 $23 #
shell $-1 $-1 $-1 $65 $-1 $25 #
shell $-1 $-1 $-1 $66 $-1 $27 #
shell $-1 $-1 $-1 $67 $-1 $29 #
shell $-1 $-1 $-1 $68 $-1 $31 #
shell $-1 $-1 $-1 $69 $-1 $33 #
shell $-1 $-1 $-1 $70 $-1 $35 #
shell $-1 $-1 $-1 $71 $-1 $37 #
shell $-1 $-1 $-1 $72 $-1 $39 #
shell $-1 $-1 $-1 $73 $-1 $41 #
shell $-1 $-1 $-1 $74 $-1 $43 #
face $-1 $75 $76 $45 $-1 $77 forward single #
face $-1 $78 $79 $46 $-1 $80 forward single #
face $-1 $81 $82 $47 $-1 $83 forward single #
face $-1 $84 $85 $48 $-1 $86 reversed single #
face $-1 $87 $88 $49 $-1 $89 forward single #
face $-1 $90 $91 $50 $-1 $92 forward single #
face $-1 $93 $94 $51 $-1 $95 reversed single #
face $-1 $96 $97 $52 $-1 $98 forward single #
face $-1 $99 $100 $53 $-1 $101 forward single #
face $-1 $102 $103 $54 $-1 $104 reversed single #
face $-1 $105 $106 $55 $-1 $107 forward single #
face $-1 $108 $109 $56 $-1 $110 forward single #
face $-1 $111 $112 $57 $-1 $113 reversed single #
face $-1 $114 $115 $58 $-1 $116 forward single #
face $-1 $117 $118 $59 $-1 $119 forward single #
face $-1 $120 $121 $45 $-1 $122 reversed single #
loop $-1 $-1 $123 $60 #
plane-surface $-1 0 0 11.736507869578869 0 0 1 1 0 0 forward_v I I I I #
face $-1 $124 $125 $46 $-1 $126 reversed single #
loop $-1 $-1 $127 $61 #
plane-surface $-1 -62.833913275240171 0 9.6963915619372276 0 0 1 1 0 0 forward_v I I I I #
face $-1 $128 $129 $47 $-1 $130 reversed single #
loop $-1 $-1 $131 $62 #
plane-surface $-1 62.833913275240178 0 9.6963915619372276 0 0 1 1 0 0 forward_v I I I I #
face $-1 $132 $133 $48 $-1 $134 reversed single #
loop $-1 $-1 $135 $63 #
plane-surface $-1 -41.04693396985823 115.93169627194099 126.08402123185746 -1 0 0 0 0.86602541151947299 0.49999998660252726 forward_v I I I I #
face $-1 $136 $137 $49 $-1 $138 forward single #
loop $-1 $139 $140 $64 #
cone-surface $-1 -53.681003682618993 27.528909012148052 8.3811600868631118 0 -0.86602541151947299 -0.49999998660252726 1 0 0 1 I I 0 1 1 forward I I I I #
face $-1 $141 $142 $50 $-1 $143 forward single #
loop $-1 $144 $145 $65 #
cone-surface $-1 -46.100561854962535 27.528909012148052 8.3811600868631118 0 -0.86602541151947299 -0.49999998660252726 1 0 0 1 I I 0 1 1 forward I I I I #
face $-1 $146 $147 $51 $-1 $148 reversed single #
loop $-1 $-1 $149 $66 #
plane-surface $-1 -25.474109721862789 115.93169627194099 126.08402123185746 1 0 0 0 -0.86602541151947299 -0.49999998660252726 forward_v I I I I #
face $-1 $150 $151 $52 $-1 $152 forward single #
loop $-1 $153 $154 $67 #
cone-surface $-1 -20.420481836758483 27.528909012148052 8.3811600868631118 0 -0.86602541151947299 -0.49999998660252726 1 0 0 1 I I 0 1 1 forward I I I I #
face $-1 $155 $156 $53 $-1 $157 forward single #
loop $-1 $158 $159 $68 #
cone-surface $-1 -12.840040009102026 27.528909012148052 8.3811600868631118 0 -0.86602541151947299 -0.49999998660252726 1 0 0 1 I I 0 1 1 forward I I I I #
face $-1 $160 $161 $54 $-1 $162 reversed single #
loop $-1 $-1 $163 $69 #
plane-surface $-1 7.7864121239977262 115.93169627194099 126.08402123185746 1 0 0 0 -0.86602541151947299 -0.49999998660252726 forward_v I I I I #
face $-1 $164 $165 $55 $-1 $166 forward single #
loop $-1 $167 $168 $70 #
cone-surface $-1 12.840040009102026 27.528909012148052 8.3811600868631118 0 -0.86602541151947299 -0.49999998660252726 1 0 0 1 I I 0 1 1 forward I I I I #
face $-1 $169 $170 $56 $-1 $171 forward single #
loop $-1 $172 $173 $71 #
cone-surface $-1 20.420481836758483 27.528909012148052 8.3811600868631118 0 -0.86602541151947299 -0.49999998660252726 1 0 0 1 I I 0 1 1 forward I I I I #
face $-1 $174 $175 $57 $-1 $176 reversed single #
loop $-1 $-1 $177 $72 #
plane-surface $-1 41.046933969858237 115.93169627194099 126.08402123185746 1 0 0 0 -0.86602541151947299 -0.49999998660252726 forward_v I I I I #
face $-1 $178 $179 $58 $-1 $180 forward single #
loop $-1 $181 $182 $73 #
cone-surface $-1 46.100561854962535 27.528909012148052 8.3811600868631118 0 -0.86602541151947299 -0.49999998660252726 1 0 0 1 I I 0 1 1 forward I I I I #
face $-1 $183 $184 $59 $-1 $185 forward single #
loop $-1 $186 $187 $74 #
cone-surface $-1 53.681003682618993 27.528909012148052 8.3811600868631118 0 -0.86602541151947299 -0.49999998660252726 1 0 0 1 I I 0 1 1 forward I I I I #
face $-1 $188 $189 $45 $-1 $190 reversed single #
loop $-1 $-1 $191 $75 #
plane-surface $-1 0 0 -11.736507869578869 0 0 1 1 0 0 forward_v I I I I #
coedge $-1 $192 $193 $194 $195 forward $76 $-1 #
face $-1 $196 $197 $46 $-1 $198 reversed single #
loop $-1 $-1 $199 $78 #
plane-surface $-1 -62.833913275240171 0 5.1124662586352354 0 0 1 1 0 0 forward_v I I I I #
coedge $-1 $200 $201 $202 $203 forward $79 $-1 #
face $-1 $204 $205 $47 $-1 $206 reversed single #
loop $-1 $-1 $207 $81 #
plane-surface $-1 62.833913275240178 0 5.1124662586352354 0 0 1 1 0 0 forward_v I I I I #
coedge $-1 $208 $209 $210 $211 reversed $82 $-1 #
face $-1 $212 $213 $48 $-1 $214 forward single #
loop $-1 $-1 $215 $84 #
plane-surface $-1 -49.890782768790764 8.1343040392312105e-007 59.150828042571732 0 0.86602541151947299 0.49999998660252726 1 0 0 forward_v I I I I #
coedge $-1 $216 $217 $218 $219 reversed $85 $-1 #
face $-1 $-1 $220 $49 $-1 $221 forward single #
loop $-1 $222 $223 $87 #
cone-surface $-1 -53.681003682618993 25.758667121277274 7.3591104911524674 0 -0.86602541151947299 -0.49999998660252726 0.5 0 0 1 I I -0.70710678118654746 0.70710678118654746 0.5 forward I I I I #
loop $-1 $-1 $224 $64 #
coedge $-1 $140 $140 $225 $226 reversed $88 $-1 #
face $-1 $-1 $227 $50 $-1 $228 forward single #
loop $-1 $229 $230 $90 #
cone-surface $-1 -46.100561854962535 25.758667121277274 7.3591104911524674 0 -0.86602541151947299 -0.49999998660252726 0.5 0 0 1 I I -0.70710678118654746 0.70710678118654746 0.5 forward I I I I #
loop $-1 $-1 $231 $65 #
coedge $-1 $145 $145 $232 $233 reversed $91 $-1 #
face $-1 $234 $235 $51 $-1 $236 reversed single #
loop $-1 $-1 $237 $93 #
plane-surface $-1 -16.630260922930255 8.1343040392312105e-007 59.150828042571732 0 0.86602541151947299 0.49999998660252726 1 0 0 forward_v I I I I #
coedge $-1 $238 $239 $240 $241 reversed $94 $-1 #
face $-1 $-1 $242 $52 $-1 $243 forward single #
loop $-1 $244 $245 $96 #
cone-surface $-1 -20.420481836758483 25.758667121277274 7.3591104911524674 0 -0.86602541151947299 -0.49999998660252726 0.5 0 0 1 I I -0.70710678118654746 0.70710678118654746 0.5 forward I I I I #
loop $-1 $-1 $246 $67 #
coedge $-1 $154 $154 $247 $248 reversed $97 $-1 #
face $-1 $-1 $249 $53 $-1 $250 forward single #
loop $-1 $251 $252 $99 #
cone-surface $-1 -12.840040009102026 25.758667121277274 7.3591104911524674 0 -0.86602541151947299 -0.49999998660252726 0.5 0 0 1 I I -0.70710678118654746 0.70710678118654746 0.5 forward I I I I #
loop $-1 $-1 $253 $68 #
coedge $-1 $159 $159 $254 $255 reversed $100 $-1 #
face $-1 $256 $257 $54 $-1 $258 reversed single #
loop $-1 $-1 $259 $102 #
plane-surface $-1 16.630260922930262 8.1343040392312105e-007 59.150828042571732 0 0.86602541151947299 0.49999998660252726 1 0 0 forward_v I I I I #
coedge $-1 $260 $261 $262 $263 reversed $103 $-1 #
face $-1 $-1 $264 $55 $-1 $265 forward single #
loop $-1 $266 $267 $105 #
cone-surface $-1 12.840040009102026 25.758667121277274 7.3591104911524674 0 -0.86602541151947299 -0.49999998660252726 0.5 0 0 1 I I -0.70710678118654746 0.70710678118654746 0.5 forward I I I I #
loop $-1 $-1 $268 $70 #
coedge $-1 $168 $168 $269 $270 reversed $106 $-1 #
face $-1 $-1 $271 $56 $-1 $272 forward single #
loop $-1 $273 $274 $108 #
cone-surface $-1 20.420481836758483 25.758667121277274 7.3591104911524674 0 -0.86602541151947299 -0.49999998660252726 0.5 0 0 1 I I -0.70710678118654746 0.70710678118654746 0.5 forward I I I I #
loop $-1 $-1 $275 $71 #
coedge $-1 $173 $173 $276 $277 reversed $109 $-1 #
face $-1 $278 $279 $57 $-1 $280 forward single #
loop $-1 $-1 $281 $111 #
plane-surface $-1 49.890782768790771 8.1343040392312105e-007 59.150828042571732 0 0.86602541151947299 0.49999998660252726 1 0 0 forward_v I I I I #
coedge $-1 $282 $283 $284 $285 reversed $112 $-1 #
face $-1 $-1 $286 $58 $-1 $287 forward single #
loop $-1 $288 $289 $114 #
cone-surface $-1 46.100561854962535 25.758667121277274 7.3591104911524674 0 -0.86602541151947299 -0.49999998660252726 0.5 0 0 1 I I -0.70710678118654746 0.70710678118654746 0.5 forward I I I I #
loop $-1 $-1 $290 $73 #
coedge $-1 $182 $182 $291 $292 reversed $115 $-1 #
face $-1 $-1 $293 $59 $-1 $294 forward single #
loop $-1 $295 $296 $117 #
cone-surface $-1 53.681003682618993 25.758667121277274 7.3591104911524674 0 -0.86602541151947299 -0.49999998660252726 0.5 0 0 1 I I -0.70710678118654746 0.70710678118654746 0.5 forward I I I I #
loop $-1 $-1 $297 $74 #
coedge $-1 $187 $187 $298 $299 reversed $118 $-1 #
face $-1 $300 $301 $45 $-1 $302 reversed single #
loop $-1 $-1 $303 $120 #
plane-surface $-1 0 -30.357606043770982 0 0 1 0 0 0 1 forward_v I I I I #
coedge $-1 $304 $305 $306 $307 forward $121 $-1 #
coedge $-1 $308 $123 $309 $310 forward $76 $-1 #
coedge $-1 $123 $308 $311 $312 forward $76 $-1 #
coedge $-1 $313 $314 $123 $195 reversed $315 $-1 #
edge $-1 $316 -30.357606043770982 $317 30.357606043770982 $194 $318 forward 7 unknown #
face $-1 $319 $320 $46 $-1 $321 reversed single #
loop $-1 $-1 $202 $124 #
plane-surface $-1 -58.734631567723298 0 7.4044289102862315 -1 0 0 0 0 1 forward_v I I I I #
coedge $-1 $322 $323 $324 $325 forward $125 $-1 #
coedge $-1 $326 $127 $327 $328 reversed $79 $-1 #
coedge $-1 $127 $326 $329 $330 reversed $79 $-1 #
coedge $-1 $331 $332 $127 $203 reversed $197 $-1 #
edge $-1 $333 -30.357606043770982 $334 30.357606043770982 $202 $335 forward 7 unknown #
face $-1 $336 $337 $47 $-1 $338 reversed single #
loop $-1 $-1 $339 $128 #
plane-surface $-1 58.734631567723305 0 7.4044289102862315 1 0 0 0 0 -1 forward_v I I I I #
coedge $-1 $340 $341 $342 $343 reversed $129 $-1 #
coedge $-1 $344 $131 $345 $346 reversed $82 $-1 #
coedge $-1 $131 $344 $347 $348 reversed $82 $-1 #
coedge $-1 $349 $350 $131 $211 forward $351 $-1 #
edge $-1 $352 -30.357606043770982 $353 30.357606043770982 $210 $354 forward 7 unknown #
face $-1 $355 $356 $48 $-1 $357 reversed single #
loop $-1 $-1 $358 $132 #
plane-surface $-1 0 0 11.736507869578869 0 0 1 1 0 0 forward_v I I I I #
coedge $-1 $359 $360 $361 $362 reversed $133 $-1 #
coedge $-1 $217 $135 $363 $364 reversed $85 $-1 #
coedge $-1 $135 $216 $359 $365 reversed $85 $-1 #
coedge $-1 $361 $366 $135 $219 forward $356 $-1 #
edge $-1 $367 51.305502746349859 $368 56.472099106962602 $218 $369 forward 7 unknown #
loop $-1 $-1 $225 $136 #
plane-surface $-1 -49.890782768790764 8.1343040392312105e-007 59.150828042571732 0 0.86602541151947299 0.49999998660252726 1 0 0 forward_v I I I I #
loop $-1 $-1 $370 $87 #
coedge $-1 $223 $223 $224 $371 reversed $137 $-1 #
coedge $-1 $224 $224 $223 $371 forward $139 $-1 #
coedge $-1 $225 $225 $140 $226 forward $220 $-1 #
edge $-1 $372 1.300383533891199e-015 $372 6.2831853071796013 $225 $373 forward 7 unknown #
loop $-1 $-1 $232 $141 #
plane-surface $-1 -49.890782768790764 8.1343040392312105e-007 59.150828042571732 0 0.86602541151947299 0.49999998660252726 1 0 0 forward_v I I I I #
loop $-1 $-1 $374 $90 #
coedge $-1 $230 $230 $231 $375 reversed $142 $-1 #
coedge $-1 $231 $231 $230 $375 forward $144 $-1 #
coedge $-1 $232 $232 $145 $233 forward $227 $-1 #
edge $-1 $376 1.300383533891199e-015 $376 6.2831853071796013 $232 $377 forward 7 unknown #
face $-1 $378 $379 $51 $-1 $380 reversed single #
loop $-1 $-1 $381 $146 #
plane-surface $-1 -7.7864121239977191 115.93169627194099 126.08402123185746 -1 0 0 0 0.86602541151947299 0.49999998660252726 forward_v I I I I #
coedge $-1 $382 $383 $384 $385 reversed $147 $-1 #
coedge $-1 $239 $149 $386 $387 reversed $94 $-1 #
coedge $-1 $149 $238 $382 $388 reversed $94 $-1 #
coedge $-1 $384 $389 $149 $241 forward $390 $-1 #
edge $-1 $391 27.608242092199514 $392 30.591177785223287 $240 $393 forward 7 unknown #
loop $-1 $-1 $247 $150 #
plane-surface $-1 -16.630260922930255 8.1343040392312105e-007 59.150828042571732 0 0.86602541151947299 0.49999998660252726 1 0 0 forward_v I I I I #
loop $-1 $-1 $394 $96 #
coedge $-1 $245 $245 $246 $395 reversed $151 $-1 #
coedge $-1 $246 $246 $245 $395 forward $153 $-1 #
coedge $-1 $247 $247 $154 $248 forward $242 $-1 #
edge $-1 $396 1.300383533891199e-015 $396 6.2831853071796013 $247 $397 forward 7 unknown #
loop $-1 $-1 $254 $155 #
plane-surface $-1 -16.630260922930255 8.1343040392312105e-007 59.150828042571732 0 0.86602541151947299 0.49999998660252726 1 0 0 forward_v I I I I #
loop $-1 $-1 $398 $99 #
coedge $-1 $252 $252 $253 $399 reversed $156 $-1 #
coedge $-1 $253 $253 $252 $399 forward $158 $-1 #
coedge $-1 $254 $254 $159 $255 forward $249 $-1 #
edge $-1 $400 1.300383533891199e-015 $400 6.2831853071796013 $254 $401 forward 7 unknown #
face $-1 $402 $403 $54 $-1 $404 forward single #
loop $-1 $-1 $405 $160 #
plane-surface $-1 25.474109721862796 115.93169627194099 126.08402123185746 -1 0 0 0 0.86602541151947299 0.49999998660252726 forward_v I I I I #
coedge $-1 $406 $407 $408 $409 reversed $161 $-1 #
coedge $-1 $261 $163 $410 $411 reversed $103 $-1 #
coedge $-1 $163 $260 $406 $412 reversed $103 $-1 #
coedge $-1 $408 $413 $163 $263 forward $403 $-1 #
edge $-1 $414 27.608242092199514 $415 30.591177785223287 $262 $416 forward 7 unknown #
loop $-1 $-1 $269 $164 #
plane-surface $-1 16.630260922930262 8.1343040392312105e-007 59.150828042571732 0 0.86602541151947299 0.49999998660252726 1 0 0 forward_v I I I I #
loop $-1 $-1 $417 $105 #
coedge $-1 $267 $267 $268 $418 reversed $165 $-1 #
coedge $-1 $268 $268 $267 $418 forward $167 $-1 #
coedge $-1 $269 $269 $168 $270 forward $264 $-1 #
edge $-1 $419 1.300383533891199e-015 $419 6.2831853071796013 $269 $420 forward 7 unknown #
loop $-1 $-1 $276 $169 #
plane-surface $-1 16.630260922930262 8.1343040392312105e-007 59.150828042571732 0 0.86602541151947299 0.49999998660252726 1 0 0 forward_v I I I I #
loop $-1 $-1 $421 $108 #
coedge $-1 $274 $274 $275 $422 reversed $170 $-1 #
coedge $-1 $275 $275 $274 $422 forward $172 $-1 #
coedge $-1 $276 $276 $173 $277 forward $271 $-1 #
edge $-1 $423 1.300383533891199e-015 $423 6.2831853071796013 $276 $424 forward 7 unknown #
face $-1 $425 $426 $57 $-1 $427 forward single #
loop $-1 $-1 $284 $174 #
plane-surface $-1 0 0 11.736507869578869 0 0 1 1 0 0 forward_v I I I I #
coedge $-1 $428 $429 $430 $431 reversed $175 $-1 #
coedge $-1 $283 $177 $432 $433 reversed $112 $-1 #
coedge $-1 $177 $282 $428 $434 reversed $112 $-1 #
coedge $-1 $430 $435 $177 $285 forward $279 $-1 #
edge $-1 $436 27.608242092199514 $437 30.591177785223287 $284 $438 forward 7 unknown #
loop $-1 $-1 $291 $178 #
plane-surface $-1 49.890782768790771 8.1343040392312105e-007 59.150828042571732 0 0.86602541151947299 0.49999998660252726 1 0 0 forward_v I I I I #
loop $-1 $-1 $439 $114 #
coedge $-1 $289 $289 $290 $440 reversed $179 $-1 #
coedge $-1 $290 $290 $289 $440 forward $181 $-1 #
coedge $-1 $291 $291 $182 $292 forward $286 $-1 #
edge $-1 $441 1.300383533891199e-015 $441 6.2831853071796013 $291 $442 forward 7 unknown #
loop $-1 $-1 $298 $183 #
plane-surface $-1 49.890782768790771 8.1343040392312105e-007 59.150828042571732 0 0.86602541151947299 0.49999998660252726 1 0 0 forward_v I I I I #
loop $-1 $-1 $443 $117 #
coedge $-1 $296 $296 $297 $444 reversed $184 $-1 #
coedge $-1 $297 $297 $296 $444 forward $186 $-1 #
coedge $-1 $298 $298 $187 $299 forward $293 $-1 #
edge $-1 $445 1.300383533891199e-015 $445 6.2831853071796013 $298 $446 forward 7 unknown #
face $-1 $447 $448 $45 $-1 $449 reversed single #
loop $-1 $-1 $450 $188 #
plane-surface $-1 -66.933194982757044 0 0 1 0 0 0 0 -1 forward_v I I I I #
coedge $-1 $451 $311 $452 $453 forward $189 $-1 #
coedge $-1 $454 $191 $451 $455 forward $121 $-1 #
coedge $-1 $191 $454 $456 $457 forward $121 $-1 #
coedge $-1 $314 $313 $191 $307 reversed $315 $-1 #
edge $-1 $458 -30.357606043770982 $459 30.357606043770982 $306 $460 forward 7 unknown #
coedge $-1 $193 $192 $461 $462 forward $76 $-1 #
coedge $-1 $463 $464 $192 $310 reversed $448 $-1 #
edge $-1 $317 -66.933194982757044 $465 66.933194982757044 $309 $466 forward 7 unknown #
coedge $-1 $303 $467 $193 $312 reversed $189 $-1 #
edge $-1 $468 -66.933194982757044 $316 66.933194982757044 $311 $469 forward 7 unknown #
coedge $-1 $306 $194 $467 $470 forward $315 $-1 #
coedge $-1 $194 $306 $463 $471 reversed $315 $-1 #
loop $-1 $-1 $313 $447 #
vertex $-1 $195 $472 #
vertex $-1 $195 $473 #
straight-curve $-1 66.933194982757044 0 11.736507869578869 0 1 0 I I #
face $-1 $474 $475 $46 $-1 $476 reversed single #
loop $-1 $-1 $477 $196 #
plane-surface $-1 0 -30.357606043770982 0 0 1 0 0 0 1 forward_v I I I I #
coedge $-1 $478 $199 $477 $479 reversed $125 $-1 #
coedge $-1 $199 $478 $480 $481 reversed $125 $-1 #
coedge $-1 $332 $331 $199 $325 reversed $197 $-1 #
edge $-1 $482 -30.357606043770982 $483 30.357606043770982 $324 $484 forward 7 unknown #
coedge $-1 $201 $200 $485 $486 reversed $79 $-1 #
coedge $-1 $487 $488 $200 $328 forward $489 $-1 #
edge $-1 $490 -35.516238345136955 $334 -27.317674930103212 $327 $491 forward 7 unknown #
coedge $-1 $492 $493 $201 $330 forward $320 $-1 #
edge $-1 $333 27.317674930103212 $494 35.516238345136955 $329 $495 forward 7 unknown #
coedge $-1 $324 $202 $493 $496 reversed $197 $-1 #
coedge $-1 $202 $324 $487 $497 reversed $197 $-1 #
vertex $-1 $330 $498 #
vertex $-1 $328 $499 #
straight-curve $-1 -58.734631567723298 0 9.6963915619372276 0 1 0 I I #
face $-1 $500 $501 $47 $-1 $502 reversed single #
loop $-1 $-1 $347 $204 #
plane-surface $-1 0 -30.357606043770982 0 0 1 0 0 0 1 forward_v I I I I #
coedge $-1 $503 $504 $505 $506 reversed $205 $-1 #
coedge $-1 $507 $207 $508 $509 reversed $129 $-1 #
coedge $-1 $207 $507 $510 $511 reversed $129 $-1 #
coedge $-1 $350 $349 $207 $343 forward $351 $-1 #
edge $-1 $512 -30.357606043770982 $513 30.357606043770982 $342 $514 forward 7 unknown #
coedge $-1 $209 $208 $504 $515 forward $82 $-1 #
coedge $-1 $516 $505 $208 $346 forward $501 $-1 #
edge $-1 $517 27.317674930103216 $352 35.516238345136955 $345 $518 forward 7 unknown #
coedge $-1 $519 $520 $209 $348 forward $337 $-1 #
edge $-1 $353 -35.516238345136955 $521 -27.317674930103216 $347 $522 forward 7 unknown #
coedge $-1 $342 $210 $520 $523 forward $351 $-1 #
coedge $-1 $210 $342 $516 $524 reversed $351 $-1 #
loop $-1 $-1 $210 $500 #
vertex $-1 $524 $525 #
vertex $-1 $523 $526 #
straight-curve $-1 66.933194982757044 0 9.6963915619372276 0 -1 0 I I #
face $-1 $-1 $527 $48 $-1 $528 forward single #
loop $-1 $-1 $529 $212 #
plane-surface $-1 0 30.357606043770982 0 0 -1 0 0 0 -1 forward_v I I I I #
coedge $-1 $530 $531 $532 $533 forward $213 $-1 #
coedge $-1 $534 $215 $217 $365 forward $133 $-1 #
coedge $-1 $215 $534 $535 $536 forward $133 $-1 #
coedge $-1 $529 $218 $215 $362 forward $356 $-1 #
edge $-1 $368 16.101542585462848 $537 33.789240183327919 $361 $538 forward 7 unknown #
coedge $-1 $531 $530 $216 $364 forward $213 $-1 #
edge $-1 $539 -30.591177785223287 $367 -27.608242092199514 $363 $540 forward 7 unknown #
edge $-1 $368 -60.715212087541957 $539 -54.749340541639206 $217 $541 forward 7 unknown #
coedge $-1 $218 $529 $531 $542 reversed $356 $-1 #
vertex $-1 $542 $543 #
vertex $-1 $219 $544 #
straight-curve $-1 -41.04693396985823 30.357606043770986 63.042010615928731 0 0 -1 I I #
coedge $-1 $370 $370 $-1 $545 reversed $222 $-1 #
edge $-1 $546 0 $546 6.2831853071796004 $223 $547 forward 7 unknown #
vertex $-1 $226 $548 #
ellipse-curve $-1 -53.681003682618993 28.866138197259097 9.1532096892724955 0 0.86602541151947299 0.49999998660252726 1 0 0 1 I I #
coedge $-1 $374 $374 $-1 $549 reversed $229 $-1 #
edge $-1 $550 0 $550 6.2831853071796004 $230 $551 forward 7 unknown #
vertex $-1 $233 $552 #
ellipse-curve $-1 -46.100561854962535 28.866138197259097 9.1532096892724955 0 0.86602541151947299 0.49999998660252726 1 0 0 1 I I #
face $-1 $-1 $390 $51 $-1 $553 forward single #
loop $-1 $-1 $554 $234 #
plane-surface $-1 0 30.357606043770982 0 0 -1 0 0 0 -1 forward_v I I I I #
coedge $-1 $555 $556 $557 $558 reversed $235 $-1 #
coedge $-1 $559 $237 $239 $388 forward $147 $-1 #
coedge $-1 $237 $559 $555 $560 forward $147 $-1 #
coedge $-1 $557 $240 $237 $385 forward $390 $-1 #
edge $-1 $392 -17.158979260397661 $561 0.52871833746740826 $384 $562 forward 7 unknown #
coedge $-1 $563 $564 $238 $387 forward $379 $-1 #
edge $-1 $565 -56.472099106962602 $391 -51.305502746349859 $386 $566 forward 7 unknown #
edge $-1 $392 54.749340541639206 $565 60.715212087541957 $239 $567 forward 7 unknown #
coedge $-1 $240 $557 $563 $568 forward $390 $-1 #
loop $-1 $-1 $557 $378 #
vertex $-1 $387 $569 #
vertex $-1 $241 $570 #
straight-curve $-1 -25.474109721862789 57.965848135970496 11.736507869578872 0 -1 0 I I #
coedge $-1 $394 $394 $-1 $571 reversed $244 $-1 #
edge $-1 $572 0 $572 6.2831853071796004 $245 $573 forward 7 unknown #
vertex $-1 $248 $574 #
ellipse-curve $-1 -20.420481836758483 28.866138197259097 9.1532096892724955 0 0.86602541151947299 0.49999998660252726 1 0 0 1 I I #
coedge $-1 $398 $398 $-1 $575 reversed $251 $-1 #
edge $-1 $576 0 $576 6.2831853071796004 $252 $577 forward 7 unknown #
vertex $-1 $255 $578 #
ellipse-curve $-1 -12.840040009102026 28.866138197259097 9.1532096892724955 0 0.86602541151947299 0.49999998660252726 1 0 0 1 I I #
face $-1 $-1 $579 $54 $-1 $580 reversed single #
loop $-1 $-1 $262 $256 #
plane-surface $-1 0 0 11.736507869578869 0 0 1 1 0 0 forward_v I I I I #
coedge $-1 $581 $582 $583 $584 reversed $257 $-1 #
coedge $-1 $585 $259 $261 $412 forward $161 $-1 #
coedge $-1 $259 $585 $581 $586 forward $161 $-1 #
coedge $-1 $583 $262 $259 $409 forward $403 $-1 #
edge $-1 $415 -0.52871833746740471 $587 17.158979260397665 $408 $588 forward 7 unknown #
coedge $-1 $589 $590 $260 $411 forward $579 $-1 #
edge $-1 $591 -56.472099106962602 $414 -51.305502746349859 $410 $592 forward 7 unknown #
edge $-1 $415 54.749340541639206 $591 60.715212087541957 $261 $593 forward 7 unknown #
coedge $-1 $262 $583 $589 $594 forward $403 $-1 #
vertex $-1 $411 $595 #
vertex $-1 $263 $596 #
straight-curve $-1 7.7864121239977262 57.965848135970496 11.736507869578872 0 -1 0 I I #
coedge $-1 $417 $417 $-1 $597 reversed $266 $-1 #
edge $-1 $598 0 $598 6.2831853071796004 $267 $599 forward 7 unknown #
vertex $-1 $270 $600 #
ellipse-curve $-1 12.840040009102026 28.866138197259097 9.1532096892724955 0 0.86602541151947299 0.49999998660252726 1 0 0 1 I I #
coedge $-1 $421 $421 $-1 $601 reversed $273 $-1 #
edge $-1 $602 0 $602 6.2831853071796004 $274 $603 forward 7 unknown #
vertex $-1 $277 $604 #
ellipse-curve $-1 20.420481836758483 28.866138197259097 9.1532096892724955 0 0.86602541151947299 0.49999998660252726 1 0 0 1 I I #
face $-1 $-1 $605 $57 $-1 $606 reversed single #
loop $-1 $-1 $607 $278 #
plane-surface $-1 58.734631567723305 0 7.4044289102862315 1 0 0 0 0 -1 forward_v I I I I #
coedge $-1 $608 $281 $283 $434 forward $175 $-1 #
coedge $-1 $281 $608 $607 $609 reversed $175 $-1 #
coedge $-1 $610 $284 $281 $431 forward $279 $-1 #
edge $-1 $437 16.101542585462852 $611 33.789240183327919 $430 $612 forward 7 unknown #
coedge $-1 $613 $614 $282 $433 forward $605 $-1 #
edge $-1 $615 -56.472099106962602 $436 -51.305502746349859 $432 $616 forward 7 unknown #
edge $-1 $437 54.749340541639206 $615 60.715212087541957 $283 $617 forward 7 unknown #
coedge $-1 $284 $610 $613 $618 forward $279 $-1 #
vertex $-1 $433 $619 #
vertex $-1 $285 $620 #
straight-curve $-1 41.046933969858237 57.965848135970496 11.736507869578872 0 -1 0 I I #
coedge $-1 $439 $439 $-1 $621 reversed $288 $-1 #
edge $-1 $622 0 $622 6.2831853071796004 $289 $623 forward 7 unknown #
vertex $-1 $292 $624 #
ellipse-curve $-1 46.100561854962535 28.866138197259097 9.1532096892724955 0 0.86602541151947299 0.49999998660252726 1 0 0 1 I I #
coedge $-1 $443 $443 $-1 $625 reversed $295 $-1 #
edge $-1 $626 0 $626 6.2831853071796004 $296 $627 forward 7 unknown #
vertex $-1 $299 $628 #
ellipse-curve $-1 53.681003682618993 28.866138197259097 9.1532096892724955 0 0.86602541151947299 0.49999998660252726 1 0 0 1 I I #
face $-1 $-1 $315 $45 $-1 $629 reversed single #
loop $-1 $-1 $463 $300 #
plane-surface $-1 0 30.357606043770982 0 0 -1 0 0 0 -1 forward_v I I I I #
coedge $-1 $630 $461 $464 $631 forward $301 $-1 #
coedge $-1 $467 $303 $304 $455 reversed $189 $-1 #
coedge $-1 $461 $630 $303 $453 reversed $301 $-1 #
edge $-1 $468 -11.736507869578869 $632 11.736507869578869 $452 $633 forward 7 unknown #
coedge $-1 $305 $304 $630 $634 forward $121 $-1 #
edge $-1 $459 -66.933194982757044 $632 66.933194982757044 $451 $635 forward 7 unknown #
coedge $-1 $464 $463 $305 $457 reversed $448 $-1 #
edge $-1 $636 -66.933194982757044 $458 66.933194982757044 $456 $637 forward 7 unknown #
vertex $-1 $307 $638 #
vertex $-1 $470 $639 #
straight-curve $-1 66.933194982757044 0 -11.736507869578869 0 -1 0 I I #
coedge $-1 $450 $452 $308 $462 reversed $301 $-1 #
edge $-1 $465 -30.357606043770982 $468 30.357606043770982 $461 $640 forward 7 unknown #
coedge $-1 $456 $309 $314 $471 forward $448 $-1 #
coedge $-1 $309 $456 $450 $631 reversed $448 $-1 #
vertex $-1 $310 $641 #
straight-curve $-1 0 30.357606043770982 11.736507869578869 -1 0 0 I I #
coedge $-1 $311 $451 $313 $470 reversed $189 $-1 #
vertex $-1 $462 $642 #
straight-curve $-1 0 -30.357606043770982 11.736507869578869 1 0 0 I I #
edge $-1 $316 -11.736507869578869 $459 11.736507869578869 $313 $643 forward 7 unknown #
edge $-1 $317 -11.736507869578869 $458 11.736507869578869 $314 $644 forward 7 unknown #
point $-1 66.933194982757044 -30.357606043770982 11.736507869578869 #
point $-1 66.933194982757044 30.357606043770982 11.736507869578869 #
face $-1 $-1 $489 $46 $-1 $645 reversed single #
loop $-1 $-1 $646 $319 #
plane-surface $-1 -66.933194982757044 0 0 1 0 0 0 0 -1 forward_v I I I I #
coedge $-1 $493 $492 $322 $479 forward $320 $-1 #
coedge $-1 $323 $322 $646 $647 reversed $125 $-1 #
edge $-1 $648 -35.516238345136955 $483 -27.317674930103212 $477 $649 forward 7 unknown #
coedge $-1 $488 $487 $323 $481 forward $489 $-1 #
edge $-1 $482 27.317674930103212 $650 35.516238345136955 $480 $651 forward 7 unknown #
vertex $-1 $481 $652 #
vertex $-1 $479 $653 #
straight-curve $-1 -58.734631567723298 0 5.1124662586352354 0 -1 0 I I #
coedge $-1 $654 $655 $326 $486 forward $475 $-1 #
edge $-1 $494 -30.357606043770982 $490 30.357606043770982 $485 $656 forward 7 unknown #
coedge $-1 $480 $327 $332 $497 forward $489 $-1 #
coedge $-1 $327 $480 $654 $657 reversed $489 $-1 #
loop $-1 $-1 $480 $474 #
vertex $-1 $657 $658 #
straight-curve $-1 -31.416956637620086 30.357606043770982 9.6963915619372276 1 0 0 I I #
coedge $-1 $477 $329 $655 $659 forward $320 $-1 #
coedge $-1 $329 $477 $331 $496 forward $320 $-1 #
vertex $-1 $659 $660 #
straight-curve $-1 -31.416956637620086 -30.357606043770982 9.6963915619372276 -1 0 0 I I #
edge $-1 $483 1.4102518034921196 $333 5.9941771067941119 $493 $661 forward 7 unknown #
edge $-1 $334 -5.9941771067941119 $482 -1.4102518034921196 $487 $662 forward 7 unknown #
point $-1 -58.734631567723298 -30.357606043770982 9.6963915619372276 #
point $-1 -58.734631567723298 30.357606043770982 9.6963915619372276 #
face $-1 $-1 $351 $47 $-1 $663 reversed single #
loop $-1 $-1 $345 $336 #
plane-surface $-1 0 30.357606043770982 0 0 -1 0 0 0 -1 forward_v I I I I #
coedge $-1 $664 $339 $507 $665 reversed $205 $-1 #
coedge $-1 $339 $664 $344 $515 reversed $205 $-1 #
coedge $-1 $345 $510 $339 $506 forward $501 $-1 #
edge $-1 $666 1.4102518034921196 $517 5.9941771067941119 $505 $667 forward 7 unknown #
coedge $-1 $341 $340 $503 $665 forward $129 $-1 #
coedge $-1 $520 $519 $340 $509 forward $337 $-1 #
edge $-1 $668 27.317674930103216 $512 35.516238345136955 $508 $669 forward 7 unknown #
coedge $-1 $505 $516 $341 $511 forward $501 $-1 #
edge $-1 $513 -35.516238345136955 $666 -27.317674930103216 $510 $670 forward 7 unknown #
vertex $-1 $343 $671 #
vertex $-1 $343 $672 #
straight-curve $-1 66.933194982757044 0 5.1124662586352354 0 1 0 I I #
edge $-1 $517 -30.357606043770982 $521 30.357606043770982 $504 $673 forward 7 unknown #
coedge $-1 $510 $345 $350 $524 forward $501 $-1 #
vertex $-1 $346 $674 #
straight-curve $-1 31.416956637620089 30.357606043770982 9.6963915619372276 1 0 0 I I #
coedge $-1 $508 $347 $664 $675 forward $337 $-1 #
coedge $-1 $347 $508 $349 $523 reversed $337 $-1 #
vertex $-1 $348 $676 #
straight-curve $-1 31.416956637620089 -30.357606043770982 9.6963915619372276 -1 0 0 I I #
edge $-1 $353 -9.6963915619372276 $512 -5.1124662586352354 $349 $677 forward 7 unknown #
edge $-1 $352 -9.6963915619372276 $513 -5.1124662586352354 $350 $678 forward 7 unknown #
point $-1 66.933194982757044 30.357606043770982 9.6963915619372276 #
point $-1 66.933194982757044 -30.357606043770982 9.6963915619372276 #
loop $-1 $-1 $535 $355 #
plane-surface $-1 -58.734631567723298 0 7.4044289102862315 -1 0 0 0 0 1 forward_v I I I I #
coedge $-1 $366 $361 $679 $680 forward $356 $-1 #
coedge $-1 $363 $358 $534 $681 forward $213 $-1 #
coedge $-1 $358 $363 $366 $542 forward $213 $-1 #
coedge $-1 $679 $535 $358 $533 reversed $527 $-1 #
edge $-1 $682 27.608242092199514 $683 30.591177785223287 $358 $684 forward 7 unknown #
coedge $-1 $360 $359 $530 $681 reversed $133 $-1 #
coedge $-1 $532 $679 $360 $536 reversed $527 $-1 #
edge $-1 $683 54.749340541639206 $537 60.715212087541957 $535 $685 forward 7 unknown #
vertex $-1 $680 $686 #
straight-curve $-1 -24.945391384395382 30.357606043770986 6.569911508966122 -1 0 0 I I #
vertex $-1 $364 $687 #
straight-curve $-1 -41.04693396985823 57.965848135970496 11.736507869578872 0 1 0 I I #
straight-curve $-1 -41.04693396985823 8.1343040392312105e-007 59.150828042571732 0 -0.49999998660252726 0.86602541151947299 I I #
edge $-1 $367 41.04693396985823 $682 58.734631567723298 $366 $688 forward 7 unknown #
point $-1 -41.04693396985823 30.357606043770982 11.736507869578869 #
point $-1 -41.04693396985823 30.357606043770982 6.5699115089661291 #
edge $-1 $689 1 $689 0 $370 $-1 forward 7 unknown #
vertex $-1 $371 $690 #
ellipse-curve $-1 -53.681003682618993 26.19167982703701 7.6091104844537307 0 0.86602541151947299 0.49999998660252726 1 0 0 1 I I #
point $-1 -52.681003682618993 28.866138197259094 9.1532096892724919 #
edge $-1 $691 1 $691 0 $374 $-1 forward 7 unknown #
vertex $-1 $375 $692 #
ellipse-curve $-1 -46.100561854962535 26.19167982703701 7.6091104844537307 0 0.86602541151947299 0.49999998660252726 1 0 0 1 I I #
point $-1 -45.100561854962535 28.866138197259094 9.1532096892724919 #
plane-surface $-1 0 0 11.736507869578869 0 0 1 1 0 0 forward_v I I I I #
coedge $-1 $564 $563 $556 $693 forward $379 $-1 #
coedge $-1 $556 $381 $383 $560 reversed $235 $-1 #
coedge $-1 $381 $555 $554 $693 reversed $235 $-1 #
coedge $-1 $389 $384 $381 $558 forward $390 $-1 #
edge $-1 $561 -30.591177785223287 $694 -27.608242092199514 $557 $695 forward 7 unknown #
coedge $-1 $383 $382 $564 $696 reversed $147 $-1 #
edge $-1 $697 -60.715212087541957 $561 -54.749340541639206 $555 $698 forward 7 unknown #
vertex $-1 $385 $699 #
straight-curve $-1 -8.3151304614651274 27.374670350747213 11.736507869578869 1 0 0 I I #
coedge $-1 $554 $386 $389 $568 reversed $379 $-1 #
coedge $-1 $386 $554 $559 $696 forward $379 $-1 #
vertex $-1 $387 $700 #
straight-curve $-1 -25.474109721862789 30.357606043770986 63.042010615928731 0 0 1 I I #
straight-curve $-1 -25.474109721862789 8.1343040392312105e-007 59.150828042571732 0 0.49999998660252726 -0.86602541151947299 I I #
edge $-1 $694 7.7864121239977191 $391 25.474109721862789 $563 $701 forward 7 unknown #
point $-1 -25.474109721862789 30.357606043770982 11.736507869578869 #
point $-1 -25.474109721862789 27.374670350747209 11.736507869578872 #
edge $-1 $702 1 $702 0 $394 $-1 forward 7 unknown #
vertex $-1 $395 $703 #
ellipse-curve $-1 -20.420481836758483 26.19167982703701 7.6091104844537307 0 0.86602541151947299 0.49999998660252726 1 0 0 1 I I #
point $-1 -19.420481836758483 28.866138197259094 9.1532096892724919 #
edge $-1 $704 1 $704 0 $398 $-1 forward 7 unknown #
vertex $-1 $399 $705 #
ellipse-curve $-1 -12.840040009102026 26.19167982703701 7.6091104844537307 0 0.86602541151947299 0.49999998660252726 1 0 0 1 I I #
point $-1 -11.840040009102026 28.866138197259094 9.1532096892724919 #
loop $-1 $-1 $410 $402 #
plane-surface $-1 0 30.357606043770982 0 0 -1 0 0 0 -1 forward_v I I I I #
coedge $-1 $582 $405 $407 $586 reversed $257 $-1 #
coedge $-1 $405 $581 $706 $707 reversed $257 $-1 #
coedge $-1 $413 $408 $405 $584 forward $403 $-1 #
edge $-1 $587 -30.591177785223287 $708 -27.608242092199514 $583 $709 forward 7 unknown #
coedge $-1 $407 $406 $590 $710 reversed $161 $-1 #
edge $-1 $711 -60.715212087541957 $587 -54.749340541639206 $581 $712 forward 7 unknown #
vertex $-1 $409 $713 #
straight-curve $-1 8.3151304614651309 27.374670350747213 11.736507869578869 1 0 0 I I #
coedge $-1 $706 $410 $413 $594 reversed $579 $-1 #
coedge $-1 $410 $706 $585 $710 forward $579 $-1 #
vertex $-1 $411 $714 #
straight-curve $-1 7.7864121239977262 30.357606043770986 63.042010615928731 0 0 1 I I #
straight-curve $-1 7.7864121239977262 8.1343040392312105e-007 59.150828042571732 0 0.49999998660252726 -0.86602541151947299 I I #
edge $-1 $708 -25.474109721862796 $414 -7.7864121239977262 $589 $715 forward 7 unknown #
point $-1 7.7864121239977262 30.357606043770982 11.736507869578869 #
point $-1 7.7864121239977262 27.374670350747209 11.736507869578872 #
edge $-1 $716 1 $716 0 $417 $-1 forward 7 unknown #
vertex $-1 $418 $717 #
ellipse-curve $-1 12.840040009102026 26.19167982703701 7.6091104844537307 0 0.86602541151947299 0.49999998660252726 1 0 0 1 I I #
point $-1 13.840040009102026 28.866138197259094 9.1532096892724919 #
edge $-1 $718 1 $718 0 $421 $-1 forward 7 unknown #
vertex $-1 $422 $719 #
ellipse-curve $-1 20.420481836758483 26.19167982703701 7.6091104844537307 0 0.86602541151947299 0.49999998660252726 1 0 0 1 I I #
point $-1 21.420481836758483 28.866138197259094 9.1532096892724919 #
loop $-1 $-1 $432 $425 #
plane-surface $-1 0 30.357606043770982 0 0 -1 0 0 0 -1 forward_v I I I I #
coedge $-1 $720 $721 $429 $609 forward $426 $-1 #
coedge $-1 $429 $428 $614 $722 reversed $175 $-1 #
edge $-1 $611 32.342492443402577 $723 38.30836398930532 $607 $724 forward 7 unknown #
coedge $-1 $435 $430 $721 $725 forward $279 $-1 #
vertex $-1 $431 $726 #
straight-curve $-1 24.945391384395386 27.374670350747213 11.736507869578869 1 0 0 I I #
coedge $-1 $727 $432 $435 $618 reversed $605 $-1 #
coedge $-1 $432 $727 $608 $722 forward $605 $-1 #
vertex $-1 $433 $728 #
straight-curve $-1 41.046933969858237 30.357606043770986 63.042010615928731 0 0 1 I I #
straight-curve $-1 41.046933969858237 8.1343040392312105e-007 59.150828042571732 0 0.49999998660252726 -0.86602541151947299 I I #
edge $-1 $729 -58.734631567723305 $436 -41.046933969858237 $613 $730 forward 7 unknown #
point $-1 41.046933969858237 30.357606043770982 11.736507869578869 #
point $-1 41.046933969858237 27.374670350747209 11.736507869578872 #
edge $-1 $731 1 $731 0 $439 $-1 forward 7 unknown #
vertex $-1 $440 $732 #
ellipse-curve $-1 46.100561854962535 26.19167982703701 7.6091104844537307 0 0.86602541151947299 0.49999998660252726 1 0 0 1 I I #
point $-1 47.100561854962535 28.866138197259094 9.1532096892724919 #
edge $-1 $733 1 $733 0 $443 $-1 forward 7 unknown #
vertex $-1 $444 $734 #
ellipse-curve $-1 53.681003682618993 26.19167982703701 7.6091104844537307 0 0.86602541151947299 0.49999998660252726 1 0 0 1 I I #
point $-1 54.681003682618993 28.866138197259094 9.1532096892724919 #
plane-surface $-1 66.933194982757044 0 0 -1 0 0 0 0 1 forward_v I I I I #
coedge $-1 $452 $450 $454 $634 reversed $301 $-1 #
edge $-1 $465 -11.736507869578869 $636 11.736507869578869 $464 $735 forward 7 unknown #
vertex $-1 $634 $736 #
straight-curve $-1 -66.933194982757044 -30.357606043770982 0 0 0 -1 I I #
edge $-1 $632 -30.357606043770982 $636 30.357606043770982 $630 $737 forward 7 unknown #
straight-curve $-1 0 -30.357606043770982 -11.736507869578869 -1 0 0 I I #
vertex $-1 $457 $738 #
straight-curve $-1 0 30.357606043770982 -11.736507869578869 1 0 0 I I #
point $-1 66.933194982757044 30.357606043770982 -11.736507869578869 #
point $-1 66.933194982757044 -30.357606043770982 -11.736507869578869 #
straight-curve $-1 -66.933194982757044 0 11.736507869578869 0 -1 0 I I #
point $-1 -66.933194982757044 30.357606043770982 11.736507869578869 #
point $-1 -66.933194982757044 -30.357606043770982 11.736507869578869 #
straight-curve $-1 66.933194982757044 -30.357606043770982 0 0 0 -1 I I #
straight-curve $-1 66.933194982757044 30.357606043770982 0 0 0 -1 I I #
plane-surface $-1 0 30.357606043770982 0 0 -1 0 0 0 -1 forward_v I I I I #
coedge $-1 $655 $654 $478 $647 forward $475 $-1 #
edge $-1 $650 -30.357606043770982 $648 30.357606043770982 $646 $739 forward 7 unknown #
vertex $-1 $479 $740 #
straight-curve $-1 -31.416956637620086 -30.357606043770982 5.1124662586352354 1 0 0 I I #
vertex $-1 $481 $741 #
straight-curve $-1 -31.416956637620086 30.357606043770982 5.1124662586352354 -1 0 0 I I #
point $-1 -58.734631567723298 30.357606043770982 5.1124662586352354 #
point $-1 -58.734631567723298 -30.357606043770982 5.1124662586352354 #
coedge $-1 $646 $485 $488 $657 forward $475 $-1 #
coedge $-1 $485 $646 $492 $659 reversed $475 $-1 #
straight-curve $-1 -66.933194982757044 0 9.6963915619372276 0 1 0 I I #
edge $-1 $490 -9.6963915619372276 $650 -5.1124662586352354 $488 $742 forward 7 unknown #
point $-1 -66.933194982757044 30.357606043770982 9.6963915619372276 #
edge $-1 $494 -9.6963915619372276 $648 -5.1124662586352354 $655 $743 forward 7 unknown #
point $-1 -66.933194982757044 -30.357606043770982 9.6963915619372276 #
straight-curve $-1 -58.734631567723298 -30.357606043770982 3.7022144551431158 0 0 1 I I #
straight-curve $-1 -58.734631567723298 30.357606043770982 3.7022144551431158 0 0 -1 I I #
plane-surface $-1 66.933194982757044 0 0 -1 0 0 0 0 1 forward_v I I I I #
coedge $-1 $504 $503 $519 $675 reversed $205 $-1 #
edge $-1 $668 -30.357606043770982 $666 30.357606043770982 $503 $744 forward 7 unknown #
vertex $-1 $511 $745 #
straight-curve $-1 58.734631567723305 30.357606043770982 3.7022144551431158 0 0 1 I I #
vertex $-1 $509 $746 #
straight-curve $-1 31.416956637620089 -30.357606043770982 5.1124662586352354 1 0 0 I I #
straight-curve $-1 31.416956637620089 30.357606043770982 5.1124662586352354 -1 0 0 I I #
point $-1 66.933194982757044 -30.357606043770982 5.1124662586352354 #
point $-1 66.933194982757044 30.357606043770982 5.1124662586352354 #
straight-curve $-1 58.734631567723305 0 9.6963915619372276 0 -1 0 I I #
point $-1 58.734631567723305 30.357606043770982 9.6963915619372276 #
edge $-1 $521 -5.9941771067941119 $668 -1.4102518034921196 $519 $747 forward 7 unknown #
point $-1 58.734631567723305 -30.357606043770982 9.6963915619372276 #
straight-curve $-1 66.933194982757044 -30.357606043770982 0 0 0 -1 I I #
straight-curve $-1 66.933194982757044 30.357606043770982 0 0 0 -1 I I #
coedge $-1 $535 $532 $529 $680 reversed $527 $-1 #
edge $-1 $537 -56.472099106962602 $682 -51.305502746349859 $529 $748 forward 7 unknown #
edge $-1 $683 -33.789240183327919 $539 -16.101542585462848 $530 $749 forward 7 unknown #
vertex $-1 $680 $750 #
vertex $-1 $533 $751 #
straight-curve $-1 -58.734631567723298 57.965848135970496 11.736507869578872 0 -1 0 I I #
straight-curve $-1 -58.734631567723298 8.1343040392312105e-007 59.150828042571732 0 0.49999998660252726 -0.86602541151947299 I I #
point $-1 -58.734631567723298 30.357606043770982 6.5699115089661291 #
point $-1 -41.04693396985823 27.374670350747209 11.736507869578872 #
straight-curve $-1 0 30.357606043770982 11.736507869578869 -1 0 0 I I #
vertex $-1 $545 $752 #
point $-1 -52.681003682618993 26.19167982703701 7.6091104844537307 #
vertex $-1 $549 $753 #
point $-1 -45.100561854962535 26.19167982703701 7.6091104844537307 #
edge $-1 $694 51.305502746349859 $697 56.472099106962602 $554 $754 forward 7 unknown #
vertex $-1 $568 $755 #
straight-curve $-1 -7.7864121239977191 57.965848135970496 11.736507869578872 0 1 0 I I #
edge $-1 $697 -0.52871833746740826 $565 17.158979260397661 $564 $756 forward 7 unknown #
vertex $-1 $696 $757 #
straight-curve $-1 -7.7864121239977191 8.1343040392312105e-007 59.150828042571732 0 -0.49999998660252726 0.86602541151947299 I I #
point $-1 -7.7864121239977191 27.374670350747209 11.736507869578872 #
point $-1 -25.474109721862789 30.357606043770982 6.5699115089661291 #
straight-curve $-1 0 30.357606043770982 11.736507869578869 -1 0 0 I I #
vertex $-1 $571 $758 #
point $-1 -19.420481836758483 26.19167982703701 7.6091104844537307 #
vertex $-1 $575 $759 #
point $-1 -11.840040009102026 26.19167982703701 7.6091104844537307 #
coedge $-1 $590 $589 $582 $707 forward $579 $-1 #
edge $-1 $708 51.305502746349859 $711 56.472099106962602 $706 $760 forward 7 unknown #
vertex $-1 $594 $761 #
straight-curve $-1 25.474109721862796 57.965848135970496 11.736507869578872 0 1 0 I I #
edge $-1 $711 -17.158979260397665 $591 0.52871833746740471 $590 $762 forward 7 unknown #
vertex $-1 $710 $763 #
straight-curve $-1 25.474109721862796 8.1343040392312105e-007 59.150828042571732 0 -0.49999998660252726 0.86602541151947299 I I #
point $-1 25.474109721862796 27.374670350747209 11.736507869578872 #
point $-1 7.7864121239977262 30.357606043770982 6.5699115089661291 #
straight-curve $-1 0 30.357606043770982 11.736507869578869 -1 0 0 I I #
vertex $-1 $597 $764 #
point $-1 13.840040009102026 26.19167982703701 7.6091104844537307 #
vertex $-1 $601 $765 #
point $-1 21.420481836758483 26.19167982703701 7.6091104844537307 #
coedge $-1 $721 $607 $727 $766 reversed $426 $-1 #
coedge $-1 $607 $720 $610 $725 reversed $426 $-1 #
edge $-1 $723 -33.789240183327919 $615 -16.101542585462852 $614 $767 forward 7 unknown #
vertex $-1 $609 $768 #
straight-curve $-1 58.734631567723305 11.203424562353582 39.745928197442034 0 0.49999998660252726 -0.86602541151947299 I I #
edge $-1 $611 -30.591177785223287 $729 -27.608242092199514 $610 $769 forward 7 unknown #
point $-1 58.734631567723305 27.374670350747209 11.736507869578872 #
coedge $-1 $614 $613 $720 $766 forward $605 $-1 #
point $-1 41.046933969858237 30.357606043770982 6.5699115089661291 #
vertex $-1 $618 $770 #
straight-curve $-1 0 30.357606043770982 11.736507869578869 -1 0 0 I I #
vertex $-1 $621 $771 #
point $-1 47.100561854962535 26.19167982703701 7.6091104844537307 #
vertex $-1 $625 $772 #
point $-1 54.681003682618993 26.19167982703701 7.6091104844537307 #
straight-curve $-1 -66.933194982757044 30.357606043770982 0 0 0 -1 I I #
point $-1 -66.933194982757044 -30.357606043770982 -11.736507869578869 #
straight-curve $-1 -66.933194982757044 0 -11.736507869578869 0 1 0 I I #
point $-1 -66.933194982757044 30.357606043770982 -11.736507869578869 #
straight-curve $-1 -66.933194982757044 0 5.1124662586352354 0 -1 0 I I #
point $-1 -66.933194982757044 -30.357606043770982 5.1124662586352354 #
point $-1 -66.933194982757044 30.357606043770982 5.1124662586352354 #
straight-curve $-1 -66.933194982757044 30.357606043770982 0 0 0 -1 I I #
straight-curve $-1 -66.933194982757044 -30.357606043770982 0 0 0 -1 I I #
straight-curve $-1 58.734631567723305 0 5.1124662586352354 0 1 0 I I #
point $-1 58.734631567723305 30.357606043770982 5.1124662586352354 #
point $-1 58.734631567723305 -30.357606043770982 5.1124662586352354 #
straight-curve $-1 58.734631567723305 -30.357606043770982 3.7022144551431158 0 0 -1 I I #
straight-curve $-1 -58.734631567723298 30.357606043770986 63.042010615928731 0 0 1 I I #
straight-curve $-1 -24.945391384395382 27.374670350747213 11.736507869578869 1 0 0 I I #
point $-1 -58.734631567723298 30.357606043770982 11.736507869578869 #
point $-1 -58.734631567723298 27.374670350747209 11.736507869578872 #
point $-1 -53.681003682618993 25.325654415517537 7.1091104978512041 #
point $-1 -46.100561854962535 25.325654415517537 7.1091104978512041 #
straight-curve $-1 -7.7864121239977191 30.357606043770986 63.042010615928731 0 0 -1 I I #
point $-1 -7.7864121239977191 30.357606043770982 11.736507869578869 #
straight-curve $-1 -8.3151304614651274 30.357606043770986 6.569911508966122 -1 0 0 I I #
point $-1 -7.7864121239977191 30.357606043770982 6.5699115089661291 #
point $-1 -20.420481836758483 25.325654415517537 7.1091104978512041 #
point $-1 -12.840040009102026 25.325654415517537 7.1091104978512041 #
straight-curve $-1 25.474109721862796 30.357606043770986 63.042010615928731 0 0 -1 I I #
point $-1 25.474109721862796 30.357606043770982 11.736507869578869 #
straight-curve $-1 8.3151304614651309 30.357606043770986 6.569911508966122 -1 0 0 I I #
point $-1 25.474109721862796 30.357606043770982 6.5699115089661291 #
point $-1 12.840040009102026 25.325654415517537 7.1091104978512041 #
point $-1 20.420481836758483 25.325654415517537 7.1091104978512041 #
edge $-1 $729 51.305502746349859 $723 56.472099106962602 $727 $773 forward 7 unknown #
straight-curve $-1 24.945391384395386 30.357606043770986 6.569911508966122 -1 0 0 I I #
point $-1 58.734631567723305 30.357606043770982 6.5699115089661273 #
straight-curve $-1 58.734631567723305 57.965848135970496 11.736507869578872 0 1 0 I I #
point $-1 58.734631567723305 30.357606043770982 11.736507869578869 #
point $-1 46.100561854962535 25.325654415517537 7.1091104978512041 #
point $-1 53.681003682618993 25.325654415517537 7.1091104978512041 #
straight-curve $-1 58.734631567723305 30.357606043770986 63.042010615928731 0 0 -1 I I #
End-of-ACIS-data 