500 0 17 0           
7 Unknown 11 ACIS 5.0 NT 24 Fri Mar 26 00:52:05 1999 
-1 9.9999999999999995e-007 1e-010 
body $-1 $17 $-1 $18 #
body $-1 $19 $-1 $20 #
body $-1 $21 $-1 $22 #
body $-1 $23 $-1 $24 #
body $-1 $25 $-1 $26 #
body $-1 $27 $-1 $28 #
body $-1 $29 $-1 $30 #
body $-1 $31 $-1 $32 #
body $-1 $33 $-1 $34 #
body $-1 $35 $-1 $36 #
body $-1 $37 $-1 $38 #
body $-1 $39 $-1 $40 #
body $-1 $41 $-1 $42 #
body $-1 $43 $-1 $44 #
body $-1 $45 $-1 $46 #
body $-1 $47 $-1 $48 #
body $-1 $49 $-1 $50 #
lump $-1 $-1 $51 $0 #
transform $-1 1 0 0 0 1 0 0 0 1 68.410290841395309 32.292738840579915 10.547791863431948 1 rotate no_reflect no_shear #
lump $-1 $-1 $52 $1 #
transform $-1 1 0 0 0 1 0 0 0 1 68.410290841395309 32.292738840579915 10.547791863431948 1 rotate no_reflect no_shear #
lump $-1 $-1 $53 $2 #
transform $-1 1 0 0 0 1 0 0 0 1 68.410290841395309 32.292738840579915 10.547791863431948 1 rotate no_reflect no_shear #
lump $-1 $-1 $54 $3 #
transform $-1 1 0 0 0 1 0 0 0 1 68.410290841395309 32.292738840579915 10.547791863431948 1 rotate no_reflect no_shear #
lump $-1 $-1 $55 $4 #
transform $-1 1 0 0 0 1 0 0 0 1 68.410290841395309 32.292738840579915 10.547791863431948 1 rotate no_reflect no_shear #
lump $-1 $-1 $56 $5 #
transform $-1 1 0 0 0 1 0 0 0 1 68.410290841395309 32.292738840579915 10.547791863431948 1 rotate no_reflect no_shear #
lump $-1 $-1 $57 $6 #
transform $-1 1 0 0 0 1 0 0 0 1 68.410290841395309 32.292738840579915 10.547791863431948 1 rotate no_reflect no_shear #
lump $-1 $-1 $58 $7 #
transform $-1 1 0 0 0 1 0 0 0 1 68.410290841395309 32.292738840579915 10.547791863431948 1 rotate no_reflect no_shear #
lump $-1 $-1 $59 $8 #
transform $-1 1 0 0 0 1 0 0 0 1 68.410290841395309 32.292738840579915 10.547791863431948 1 rotate no_reflect no_shear #
lump $-1 $-1 $60 $9 #
transform $-1 1 0 0 0 1 0 0 0 1 68.410290841395309 32.292738840579915 10.547791863431948 1 rotate no_reflect no_shear #
lump $-1 $-1 $61 $10 #
transform $-1 1 0 0 0 1 0 0 0 1 68.410290841395309 32.292738840579915 10.547791863431948 1 rotate no_reflect no_shear #
lump $-1 $-1 $62 $11 #
transform $-1 1 0 0 0 1 0 0 0 1 68.410290841395309 32.292738840579915 10.547791863431948 1 rotate no_reflect no_shear #
lump $-1 $-1 $63 $12 #
transform $-1 1 0 0 0 1 0 0 0 1 68.410290841395309 32.292738840579915 10.547791863431948 1 rotate no_reflect no_shear #
lump $-1 $-1 $64 $13 #
transform $-1 1 0 0 0 1 0 0 0 1 68.410290841395309 32.292738840579915 10.547791863431948 1 rotate no_reflect no_shear #
lump $-1 $-1 $65 $14 #
transform $-1 1 0 0 0 1 0 0 0 1 68.410290841395309 32.292738840579915 10.547791863431948 1 rotate no_reflect no_shear #
lump $-1 $-1 $66 $15 #
transform $-1 1 0 0 0 1 0 0 0 1 68.410290841395309 32.292738840579915 10.547791863431948 1 rotate no_reflect no_shear #
lump $-1 $-1 $67 $16 #
transform $-1 1 0 0 0 1 0 0 0 1 68.410290841395309 32.292738840579915 10.547791863431948 1 rotate no_reflect no_shear #
shell $-1 $-1 $-1 $68 $-1 $17 #
shell $-1 $-1 $-1 $69 $-1 $19 #
shell $-1 $-1 $-1 $70 $-1 $21 #
shell $-1 $-1 $-1 $71 $-1 $23 #
shell $-1 $-1 $-1 $72 $-1 $25 #
shell $-1 $-1 $-1 $73 $-1 $27 #
shell $-1 $-1 $-1 $74 $-1 $29 #
shell $-1 $-1 $-1 $75 $-1 $31 #
shell $-1 $-1 $-1 $76 $-1 $33 #
shell $-1 $-1 $-1 $77 $-1 $35 #
shell $-1 $-1 $-1 $78 $-1 $37 #
shell $-1 $-1 $-1 $79 $-1 $39 #
shell $-1 $-1 $-1 $80 $-1 $41 #
shell $-1 $-1 $-1 $81 $-1 $43 #
shell $-1 $-1 $-1 $82 $-1 $45 #
shell $-1 $-1 $-1 $83 $-1 $47 #
shell $-1 $-1 $-1 $84 $-1 $49 #
face $-1 $85 $86 $51 $-1 $87 forward single #
face $-1 $88 $89 $52 $-1 $90 forward single #
face $-1 $91 $92 $53 $-1 $93 reversed single #
face $-1 $94 $95 $54 $-1 $96 forward single #
face $-1 $97 $98 $55 $-1 $99 forward single #
face $-1 $100 $101 $56 $-1 $102 reversed single #
face $-1 $103 $104 $57 $-1 $105 forward single #
face $-1 $106 $107 $58 $-1 $108 forward single #
face $-1 $109 $110 $59 $-1 $111 reversed single #
face $-1 $112 $113 $60 $-1 $114 forward single #
face $-1 $115 $116 $61 $-1 $117 forward single #
face $-1 $118 $119 $62 $-1 $120 reversed single #
face $-1 $121 $122 $63 $-1 $123 forward single #
face $-1 $124 $125 $64 $-1 $126 forward single #
face $-1 $127 $128 $65 $-1 $129 reversed single #
face $-1 $130 $131 $66 $-1 $132 forward single #
face $-1 $133 $134 $67 $-1 $135 forward single #
face $-1 $136 $137 $51 $-1 $138 reversed single #
loop $-1 $-1 $139 $68 #
plane-surface $-1 0 0 10.547791863431948 0 0 1 1 0 0 forward_v I I I I #
face $-1 $140 $141 $52 $-1 $142 reversed single #
loop $-1 $-1 $143 $69 #
plane-surface $-1 0 -25.457819929926217 -7.5477918634319483 0 0 1 1 0 0 forward_v I I I I #
face $-1 $144 $145 $53 $-1 $146 reversed single #
loop $-1 $-1 $147 $70 #
plane-surface $-1 31.489987918353549 -5.8939910543094136 196.9009807912895 0 -1 0 -0.55919291073839883 0 -0.82903756765294845 forward_v I I I I #
face $-1 $148 $149 $54 $-1 $150 forward single #
loop $-1 $151 $152 $71 #
cone-surface $-1 64.664005153995504 -11.465405043836064 7.1412738919489156 -0.55919291073839883 0 -0.82903756765294845 0.82903756765294845 0 -0.55919291073839883 1 I I 0 1 1 forward I I I I #
face $-1 $153 $154 $55 $-1 $155 forward single #
loop $-1 $156 $157 $72 #
cone-surface $-1 64.664005153995504 -8.1225566501200746 7.1412738919489156 -0.55919291073839883 0 -0.82903756765294845 0.82903756765294845 0 -0.55919291073839883 1 I I 0 1 1 forward I I I I #
face $-1 $158 $159 $56 $-1 $160 reversed single #
loop $-1 $-1 $161 $73 #
plane-surface $-1 31.489987918353549 6.8349189106536912 196.9009807912895 0 -1 0 -0.55919291073839883 0 -0.82903756765294845 forward_v I I I I #
face $-1 $162 $163 $57 $-1 $164 forward single #
loop $-1 $165 $166 $74 #
cone-surface $-1 64.664005153995504 1.2635049211270442 7.1412738919489156 -0.55919291073839883 0 -0.82903756765294845 0.82903756765294845 0 -0.55919291073839883 1 I I 0 1 1 forward I I I I #
face $-1 $167 $168 $58 $-1 $169 forward single #
loop $-1 $170 $171 $75 #
cone-surface $-1 64.664005153995504 4.6063533148430338 7.1412738919489156 -0.55919291073839883 0 -0.82903756765294845 0.82903756765294845 0 -0.55919291073839883 1 I I 0 1 1 forward I I I I #
face $-1 $172 $173 $59 $-1 $174 reversed single #
loop $-1 $-1 $175 $76 #
plane-surface $-1 31.489987918353549 19.5638288756168 196.9009807912895 0 -1 0 -0.55919291073839883 0 -0.82903756765294845 forward_v I I I I #
face $-1 $176 $177 $60 $-1 $178 forward single #
loop $-1 $179 $180 $77 #
cone-surface $-1 64.664005153995504 13.992414886090152 7.1412738919489156 -0.55919291073839883 0 -0.82903756765294845 0.82903756765294845 0 -0.55919291073839883 1 I I 0 1 1 forward I I I I #
face $-1 $181 $182 $61 $-1 $183 forward single #
loop $-1 $184 $185 $78 #
cone-surface $-1 64.664005153995504 17.335263279806142 7.1412738919489156 -0.55919291073839883 0 -0.82903756765294845 0.82903756765294845 0 -0.55919291073839883 1 I I 0 1 1 forward I I I I #
face $-1 $186 $187 $62 $-1 $188 reversed single #
loop $-1 $-1 $189 $79 #
plane-surface $-1 31.489987918353549 24.492759255242596 196.9009807912895 0 1 0 0.55919291073839883 0 0.82903756765294845 forward_v I I I I #
face $-1 $190 $191 $63 $-1 $192 forward single #
loop $-1 $193 $194 $80 #
cone-surface $-1 64.664005153995504 26.721324851053261 7.1412738919489156 -0.55919291073839883 0 -0.82903756765294845 0.82903756765294845 0 -0.55919291073839883 1 I I 0 1 1 forward I I I I #
face $-1 $195 $196 $64 $-1 $197 forward single #
loop $-1 $198 $199 $81 #
cone-surface $-1 64.664005153995504 30.06417324476925 7.1412738919489156 -0.55919291073839883 0 -0.82903756765294845 0.82903756765294845 0 -0.55919291073839883 1 I I 0 1 1 forward I I I I #
face $-1 $200 $201 $65 $-1 $202 reversed single #
loop $-1 $-1 $203 $82 #
plane-surface $-1 -158.17266989770479 -18.622901019272518 109.55404436263593 0 1 0 -0.6560590369687036 0 0.75470957328743171 forward_v I I I I #
face $-1 $204 $205 $66 $-1 $206 forward single #
loop $-1 $207 $208 $83 #
cone-surface $-1 -64.685424940904213 -15.518760041290083 6.9505111538110569 0.6560590369687036 0 -0.75470957328743171 1.1320643599311475 0 0.9840885554530554 1 I I 0 1 1.5 forward I I I I #
face $-1 $209 $210 $67 $-1 $211 forward single #
loop $-1 $212 $213 $84 #
cone-surface $-1 -64.685424940904213 -10.862548574316424 6.9505111538110569 0.6560590369687036 0 -0.75470957328743171 1.1320643599311475 0 0.9840885554530554 1 I I 0 1 1.5 forward I I I I #
face $-1 $214 $215 $51 $-1 $216 reversed single #
loop $-1 $-1 $217 $85 #
plane-surface $-1 0 0 -10.547791863431948 0 0 1 1 0 0 forward_v I I I I #
coedge $-1 $218 $219 $220 $221 forward $86 $-1 #
face $-1 $222 $223 $52 $-1 $224 reversed single #
loop $-1 $-1 $225 $88 #
plane-surface $-1 0 -18.622901019272518 -9.0477918634319483 0 -1 0 0 0 -1 forward_v I I I I #
coedge $-1 $226 $227 $228 $229 reversed $89 $-1 #
face $-1 $230 $231 $53 $-1 $232 reversed single #
loop $-1 $-1 $233 $91 #
plane-surface $-1 -45.019111401766992 -9.7939808469780694 83.471578548127212 0.55919291073839883 0 0.82903756765294845 0.82903756765294845 0 -0.55919291073839883 forward_v I I I I #
coedge $-1 $234 $235 $236 $237 reversed $92 $-1 #
face $-1 $-1 $238 $54 $-1 $239 forward single #
loop $-1 $240 $241 $94 #
cone-surface $-1 63.29584524756838 -11.465405043836064 5.1128934543520383 -0.55919291073839883 0 -0.82903756765294845 0.41451878382647422 0 -0.27959645536919941 1 I I -0.70710678118654746 0.70710678118654746 0.5 forward I I I I #
loop $-1 $-1 $242 $71 #
coedge $-1 $152 $152 $243 $244 reversed $95 $-1 #
face $-1 $-1 $245 $55 $-1 $246 forward single #
loop $-1 $247 $248 $97 #
cone-surface $-1 63.29584524756838 -8.1225566501200746 5.1128934543520383 -0.55919291073839883 0 -0.82903756765294845 0.41451878382647422 0 -0.27959645536919941 1 I I -0.70710678118654746 0.70710678118654746 0.5 forward I I I I #
loop $-1 $-1 $249 $72 #
coedge $-1 $157 $157 $250 $251 reversed $98 $-1 #
face $-1 $252 $253 $56 $-1 $254 reversed single #
loop $-1 $-1 $255 $100 #
plane-surface $-1 -45.019111401766992 2.9349291179850354 83.471578548127212 0.55919291073839883 0 0.82903756765294845 0.82903756765294845 0 -0.55919291073839883 forward_v I I I I #
coedge $-1 $256 $257 $258 $259 reversed $101 $-1 #
face $-1 $-1 $260 $57 $-1 $261 forward single #
loop $-1 $262 $263 $103 #
cone-surface $-1 63.29584524756838 1.2635049211270442 5.1128934543520383 -0.55919291073839883 0 -0.82903756765294845 0.41451878382647422 0 -0.27959645536919941 1 I I -0.70710678118654746 0.70710678118654746 0.5 forward I I I I #
loop $-1 $-1 $264 $74 #
coedge $-1 $166 $166 $265 $266 reversed $104 $-1 #
face $-1 $-1 $267 $58 $-1 $268 forward single #
loop $-1 $269 $270 $106 #
cone-surface $-1 63.29584524756838 4.6063533148430338 5.1128934543520383 -0.55919291073839883 0 -0.82903756765294845 0.41451878382647422 0 -0.27959645536919941 1 I I -0.70710678118654746 0.70710678118654746 0.5 forward I I I I #
loop $-1 $-1 $271 $75 #
coedge $-1 $171 $171 $272 $273 reversed $107 $-1 #
face $-1 $274 $275 $59 $-1 $276 reversed single #
loop $-1 $-1 $277 $109 #
plane-surface $-1 -45.019111401766992 15.663839082948144 83.471578548127212 0.55919291073839883 0 0.82903756765294845 0.82903756765294845 0 -0.55919291073839883 forward_v I I I I #
coedge $-1 $278 $279 $280 $281 reversed $110 $-1 #
face $-1 $-1 $282 $60 $-1 $283 forward single #
loop $-1 $284 $285 $112 #
cone-surface $-1 63.29584524756838 13.992414886090152 5.1128934543520383 -0.55919291073839883 0 -0.82903756765294845 0.41451878382647422 0 -0.27959645536919941 1 I I -0.70710678118654746 0.70710678118654746 0.5 forward I I I I #
loop $-1 $-1 $286 $77 #
coedge $-1 $180 $180 $287 $288 reversed $113 $-1 #
face $-1 $-1 $289 $61 $-1 $290 forward single #
loop $-1 $291 $292 $115 #
cone-surface $-1 63.29584524756838 17.335263279806142 5.1128934543520383 -0.55919291073839883 0 -0.82903756765294845 0.41451878382647422 0 -0.27959645536919941 1 I I -0.70710678118654746 0.70710678118654746 0.5 forward I I I I #
loop $-1 $-1 $293 $78 #
coedge $-1 $185 $185 $294 $295 reversed $116 $-1 #
face $-1 $296 $297 $62 $-1 $298 reversed single #
loop $-1 $-1 $299 $118 #
plane-surface $-1 -45.019111401766992 28.392749047911252 83.471578548127212 0.55919291073839883 0 0.82903756765294845 0.82903756765294845 0 -0.55919291073839883 forward_v I I I I #
coedge $-1 $300 $301 $302 $303 reversed $119 $-1 #
face $-1 $-1 $304 $63 $-1 $305 forward single #
loop $-1 $306 $307 $121 #
cone-surface $-1 63.29584524756838 26.721324851053261 5.1128934543520383 -0.55919291073839883 0 -0.82903756765294845 0.41451878382647422 0 -0.27959645536919941 1 I I -0.70710678118654746 0.70710678118654746 0.5 forward I I I I #
loop $-1 $-1 $308 $80 #
coedge $-1 $194 $194 $309 $310 reversed $122 $-1 #
face $-1 $-1 $311 $64 $-1 $312 forward single #
loop $-1 $313 $314 $124 #
cone-surface $-1 63.29584524756838 30.06417324476925 5.1128934543520383 -0.55919291073839883 0 -0.82903756765294845 0.41451878382647422 0 -0.27959645536919941 1 I I -0.70710678118654746 0.70710678118654746 0.5 forward I I I I #
loop $-1 $-1 $315 $81 #
coedge $-1 $199 $199 $316 $317 reversed $125 $-1 #
face $-1 $318 $319 $65 $-1 $320 reversed single #
loop $-1 $-1 $321 $127 #
plane-surface $-1 -68.410290841395337 -13.19065430780325 6.294241543878826 -0.6560590369687036 0 0.75470957328743171 0.75470957328743171 0 0.6560590369687036 forward_v I I I I #
coedge $-1 $322 $323 $324 $325 reversed $128 $-1 #
face $-1 $-1 $326 $66 $-1 $327 forward single #
loop $-1 $328 $329 $130 #
cone-surface $-1 -62.915089663521066 -15.518760041290083 4.9139734240011457 0.6560590369687036 0 -0.75470957328743171 0.56603217996557376 0 0.4920442777265277 1 I I -0.70710678118654757 0.70710678118654757 0.75 forward I I I I #
loop $-1 $-1 $330 $83 #
coedge $-1 $208 $208 $331 $332 reversed $131 $-1 #
face $-1 $-1 $333 $67 $-1 $334 forward single #
loop $-1 $335 $336 $133 #
cone-surface $-1 -62.915089663521066 -10.862548574316424 4.9139734240011457 0.6560590369687036 0 -0.75470957328743171 0.56603217996557376 0 0.4920442777265277 1 I I -0.70710678118654757 0.70710678118654757 0.75 forward I I I I #
loop $-1 $-1 $337 $84 #
coedge $-1 $213 $213 $338 $339 reversed $134 $-1 #
face $-1 $340 $341 $51 $-1 $342 reversed single #
loop $-1 $-1 $343 $136 #
plane-surface $-1 0 -32.292738840579915 0 0 1 0 0 0 1 forward_v I I I I #
coedge $-1 $344 $345 $346 $347 forward $137 $-1 #
coedge $-1 $348 $139 $349 $350 forward $86 $-1 #
coedge $-1 $139 $348 $351 $352 forward $86 $-1 #
coedge $-1 $353 $354 $139 $221 reversed $355 $-1 #
edge $-1 $356 -32.292738840579915 $357 32.292738840579915 $220 $358 forward 7 unknown #
face $-1 $359 $360 $52 $-1 $361 reversed single #
loop $-1 $-1 $362 $140 #
plane-surface $-1 0 0 -10.547791863431948 0 0 1 1 0 0 forward_v I I I I #
coedge $-1 $363 $364 $365 $366 reversed $141 $-1 #
coedge $-1 $367 $143 $364 $368 forward $89 $-1 #
coedge $-1 $143 $367 $369 $370 reversed $89 $-1 #
coedge $-1 $371 $365 $143 $229 forward $360 $-1 #
edge $-1 $372 5.8939910543094101 $373 19.563828875616807 $228 $374 forward 7 unknown #
face $-1 $375 $376 $53 $-1 $377 reversed single #
loop $-1 $-1 $378 $144 #
plane-surface $-1 31.489987918353549 -13.693970639646725 196.9009807912895 0 1 0 0.55919291073839883 0 0.82903756765294845 forward_v I I I I #
coedge $-1 $379 $380 $381 $382 reversed $145 $-1 #
coedge $-1 $235 $147 $383 $384 reversed $92 $-1 #
coedge $-1 $147 $234 $379 $385 reversed $92 $-1 #
coedge $-1 $381 $386 $147 $237 forward $387 $-1 #
edge $-1 $388 -52.665296882218534 $389 -47.349852409534769 $236 $390 forward 7 unknown #
loop $-1 $-1 $243 $148 #
plane-surface $-1 -45.019111401766992 -9.7939808469780694 83.471578548127212 0.55919291073839883 0 0.82903756765294845 0.82903756765294845 0 -0.55919291073839883 forward_v I I I I #
loop $-1 $-1 $391 $94 #
coedge $-1 $241 $241 $242 $392 reversed $149 $-1 #
coedge $-1 $242 $242 $241 $392 forward $151 $-1 #
coedge $-1 $243 $243 $152 $244 forward $238 $-1 #
edge $-1 $393 0 $393 6.2831853071796004 $243 $394 forward 7 unknown #
loop $-1 $-1 $250 $153 #
plane-surface $-1 -45.019111401766992 -9.7939808469780694 83.471578548127212 0.55919291073839883 0 0.82903756765294845 0.82903756765294845 0 -0.55919291073839883 forward_v I I I I #
loop $-1 $-1 $395 $97 #
coedge $-1 $248 $248 $249 $396 reversed $154 $-1 #
coedge $-1 $249 $249 $248 $396 forward $156 $-1 #
coedge $-1 $250 $250 $157 $251 forward $245 $-1 #
edge $-1 $397 0 $397 6.2831853071796004 $250 $398 forward 7 unknown #
face $-1 $399 $400 $56 $-1 $401 reversed single #
loop $-1 $-1 $402 $158 #
plane-surface $-1 31.489987918353549 -0.96506067468362033 196.9009807912895 0 1 0 0.55919291073839883 0 0.82903756765294845 forward_v I I I I #
coedge $-1 $403 $404 $405 $406 reversed $159 $-1 #
coedge $-1 $257 $161 $407 $408 reversed $101 $-1 #
coedge $-1 $161 $256 $403 $409 reversed $101 $-1 #
coedge $-1 $405 $410 $161 $259 forward $411 $-1 #
edge $-1 $412 -52.665296882218534 $413 -47.349852409534769 $258 $414 forward 7 unknown #
loop $-1 $-1 $265 $162 #
plane-surface $-1 -45.019111401766992 2.9349291179850354 83.471578548127212 0.55919291073839883 0 0.82903756765294845 0.82903756765294845 0 -0.55919291073839883 forward_v I I I I #
loop $-1 $-1 $415 $103 #
coedge $-1 $263 $263 $264 $416 reversed $163 $-1 #
coedge $-1 $264 $264 $263 $416 forward $165 $-1 #
coedge $-1 $265 $265 $166 $266 forward $260 $-1 #
edge $-1 $417 0 $417 6.2831853071796004 $265 $418 forward 7 unknown #
loop $-1 $-1 $272 $167 #
plane-surface $-1 -45.019111401766992 2.9349291179850354 83.471578548127212 0.55919291073839883 0 0.82903756765294845 0.82903756765294845 0 -0.55919291073839883 forward_v I I I I #
loop $-1 $-1 $419 $106 #
coedge $-1 $270 $270 $271 $420 reversed $168 $-1 #
coedge $-1 $271 $271 $270 $420 forward $170 $-1 #
coedge $-1 $272 $272 $171 $273 forward $267 $-1 #
edge $-1 $421 0 $421 6.2831853071796004 $272 $422 forward 7 unknown #
face $-1 $423 $424 $59 $-1 $425 reversed single #
loop $-1 $-1 $426 $172 #
plane-surface $-1 31.489987918353549 11.763849290279488 196.9009807912895 0 1 0 0.55919291073839883 0 0.82903756765294845 forward_v I I I I #
coedge $-1 $427 $428 $429 $430 reversed $173 $-1 #
coedge $-1 $279 $175 $431 $432 reversed $110 $-1 #
coedge $-1 $175 $278 $427 $433 reversed $110 $-1 #
coedge $-1 $429 $434 $175 $281 forward $435 $-1 #
edge $-1 $436 -52.665296882218534 $437 -47.349852409534769 $280 $438 forward 7 unknown #
loop $-1 $-1 $287 $176 #
plane-surface $-1 -45.019111401766992 15.663839082948144 83.471578548127212 0.55919291073839883 0 0.82903756765294845 0.82903756765294845 0 -0.55919291073839883 forward_v I I I I #
loop $-1 $-1 $439 $112 #
coedge $-1 $285 $285 $286 $440 reversed $177 $-1 #
coedge $-1 $286 $286 $285 $440 forward $179 $-1 #
coedge $-1 $287 $287 $180 $288 forward $282 $-1 #
edge $-1 $441 0 $441 6.2831853071796004 $287 $442 forward 7 unknown #
loop $-1 $-1 $294 $181 #
plane-surface $-1 -45.019111401766992 15.663839082948144 83.471578548127212 0.55919291073839883 0 0.82903756765294845 0.82903756765294845 0 -0.55919291073839883 forward_v I I I I #
loop $-1 $-1 $443 $115 #
coedge $-1 $292 $292 $293 $444 reversed $182 $-1 #
coedge $-1 $293 $293 $292 $444 forward $184 $-1 #
coedge $-1 $294 $294 $185 $295 forward $289 $-1 #
edge $-1 $445 0 $445 6.2831853071796004 $294 $446 forward 7 unknown #
face $-1 $447 $448 $62 $-1 $449 forward single #
loop $-1 $-1 $302 $186 #
plane-surface $-1 68.410290841395309 0 0 -1 0 0 0 0 1 forward_v I I I I #
coedge $-1 $450 $451 $452 $453 reversed $187 $-1 #
coedge $-1 $301 $189 $454 $455 reversed $119 $-1 #
coedge $-1 $189 $300 $450 $456 reversed $119 $-1 #
coedge $-1 $452 $457 $189 $303 forward $297 $-1 #
edge $-1 $458 87.902698532212796 $459 91.488011167638092 $302 $460 forward 7 unknown #
loop $-1 $-1 $309 $190 #
plane-surface $-1 -45.019111401766992 28.392749047911252 83.471578548127212 0.55919291073839883 0 0.82903756765294845 0.82903756765294845 0 -0.55919291073839883 forward_v I I I I #
loop $-1 $-1 $461 $121 #
coedge $-1 $307 $307 $308 $462 reversed $191 $-1 #
coedge $-1 $308 $308 $307 $462 forward $193 $-1 #
coedge $-1 $309 $309 $194 $310 forward $304 $-1 #
edge $-1 $463 0 $463 6.2831853071796004 $309 $464 forward 7 unknown #
loop $-1 $-1 $316 $195 #
plane-surface $-1 -45.019111401766992 28.392749047911252 83.471578548127212 0.55919291073839883 0 0.82903756765294845 0.82903756765294845 0 -0.55919291073839883 forward_v I I I I #
loop $-1 $-1 $465 $124 #
coedge $-1 $314 $314 $315 $466 reversed $196 $-1 #
coedge $-1 $315 $315 $314 $466 forward $198 $-1 #
coedge $-1 $316 $316 $199 $317 forward $311 $-1 #
edge $-1 $467 0 $467 6.2831853071796004 $316 $468 forward 7 unknown #
face $-1 $469 $470 $65 $-1 $471 reversed single #
loop $-1 $-1 $472 $200 #
plane-surface $-1 -158.17266989770479 -7.7584075963339796 109.55404436263593 0 -1 0 0.6560590369687036 0 -0.75470957328743171 forward_v I I I I #
coedge $-1 $473 $474 $475 $476 reversed $201 $-1 #
coedge $-1 $323 $203 $477 $478 reversed $128 $-1 #
coedge $-1 $203 $322 $473 $479 reversed $128 $-1 #
coedge $-1 $475 $480 $203 $325 forward $481 $-1 #
edge $-1 $482 10.676044107457088 $483 15.569193909126042 $324 $484 forward 7 unknown #
loop $-1 $-1 $331 $204 #
plane-surface $-1 -68.410290841395337 -13.19065430780325 6.294241543878826 -0.6560590369687036 0 0.75470957328743171 0.75470957328743171 0 0.6560590369687036 forward_v I I I I #
loop $-1 $-1 $485 $130 #
coedge $-1 $329 $329 $330 $486 reversed $205 $-1 #
coedge $-1 $330 $330 $329 $486 forward $207 $-1 #
coedge $-1 $331 $331 $208 $332 forward $326 $-1 #
edge $-1 $487 0 $487 6.2831853071796004 $331 $488 forward 7 unknown #
loop $-1 $-1 $338 $209 #
plane-surface $-1 -68.410290841395337 -13.19065430780325 6.294241543878826 -0.6560590369687036 0 0.75470957328743171 0.75470957328743171 0 0.6560590369687036 forward_v I I I I #
loop $-1 $-1 $489 $133 #
coedge $-1 $336 $336 $337 $490 reversed $210 $-1 #
coedge $-1 $337 $337 $336 $490 forward $212 $-1 #
coedge $-1 $338 $338 $213 $339 forward $333 $-1 #
edge $-1 $491 0 $491 6.2831853071796004 $338 $492 forward 7 unknown #
face $-1 $493 $494 $51 $-1 $495 reversed single #
loop $-1 $-1 $496 $214 #
plane-surface $-1 -68.410290841395309 0 0 1 0 0 0 0 -1 forward_v I I I I #
coedge $-1 $497 $351 $498 $499 forward $215 $-1 #
coedge $-1 $500 $217 $497 $501 forward $137 $-1 #
coedge $-1 $217 $500 $502 $503 forward $137 $-1 #
coedge $-1 $354 $353 $217 $347 reversed $355 $-1 #
edge $-1 $504 -32.292738840579915 $505 32.292738840579915 $346 $506 forward 7 unknown #
coedge $-1 $219 $218 $507 $508 forward $86 $-1 #
coedge $-1 $509 $510 $218 $350 reversed $494 $-1 #
edge $-1 $357 -68.410290841395309 $511 68.410290841395309 $349 $512 forward 7 unknown #
coedge $-1 $343 $513 $219 $352 reversed $215 $-1 #
edge $-1 $514 -68.410290841395309 $356 68.410290841395309 $351 $515 forward 7 unknown #
coedge $-1 $346 $220 $513 $516 forward $355 $-1 #
coedge $-1 $220 $346 $509 $517 reversed $355 $-1 #
loop $-1 $-1 $353 $493 #
vertex $-1 $221 $518 #
vertex $-1 $221 $519 #
straight-curve $-1 68.410290841395309 0 10.547791863431948 0 1 0 I I #
face $-1 $520 $521 $52 $-1 $522 reversed single #
loop $-1 $-1 $365 $222 #
plane-surface $-1 68.410290841395309 0 0 -1 0 0 0 0 1 forward_v I I I I #
coedge $-1 $523 $524 $363 $525 forward $223 $-1 #
coedge $-1 $526 $225 $362 $525 reversed $141 $-1 #
coedge $-1 $225 $526 $226 $368 reversed $141 $-1 #
coedge $-1 $228 $527 $225 $366 forward $360 $-1 #
edge $-1 $528 -6.0238959317159742 $372 -3.0238959317159742 $365 $529 forward 7 unknown #
coedge $-1 $227 $226 $530 $531 reversed $89 $-1 #
edge $-1 $372 -68.410290841395309 $532 68.410290841395309 $364 $533 forward 7 unknown #
coedge $-1 $534 $535 $227 $370 forward $521 $-1 #
edge $-1 $373 -68.410290841395309 $536 68.410290841395309 $369 $537 forward 7 unknown #
coedge $-1 $527 $228 $535 $538 forward $360 $-1 #
vertex $-1 $229 $539 #
vertex $-1 $538 $540 #
straight-curve $-1 68.410290841395309 -12.728909964963108 -7.5477918634319483 0 -1 0 I I #
face $-1 $-1 $387 $53 $-1 $541 forward single #
loop $-1 $-1 $542 $230 #
plane-surface $-1 68.410290841395309 0 0 -1 0 0 0 0 1 forward_v I I I I #
coedge $-1 $543 $544 $545 $546 reversed $231 $-1 #
coedge $-1 $547 $233 $235 $385 forward $145 $-1 #
coedge $-1 $233 $547 $543 $548 forward $145 $-1 #
coedge $-1 $545 $236 $233 $382 forward $387 $-1 #
edge $-1 $389 0.99700063082037893 $549 8.7969802161576904 $381 $550 forward 7 unknown #
coedge $-1 $551 $552 $234 $384 forward $376 $-1 #
edge $-1 $553 -91.488011167638092 $388 -87.902698532212796 $383 $554 forward 7 unknown #
edge $-1 $389 130.40899711765195 $553 136.82058168279065 $235 $555 forward 7 unknown #
coedge $-1 $236 $545 $551 $556 forward $387 $-1 #
loop $-1 $-1 $545 $375 #
vertex $-1 $384 $557 #
vertex $-1 $237 $558 #
straight-curve $-1 15.744993959176774 -5.8939910543094136 10.547791863431954 -1 0 0 I I #
coedge $-1 $391 $391 $-1 $559 reversed $240 $-1 #
edge $-1 $560 0 $560 6.2831853071796004 $241 $561 forward 7 unknown #
vertex $-1 $244 $562 #
ellipse-curve $-1 65.752568605053426 -11.465405043836064 8.7551355457193196 0.55919291073839883 0 0.82903756765294845 0.82903756765294845 0 -0.55919291073839883 1 I I #
coedge $-1 $395 $395 $-1 $563 reversed $247 $-1 #
edge $-1 $564 0 $564 6.2831853071796004 $248 $565 forward 7 unknown #
vertex $-1 $251 $566 #
ellipse-curve $-1 65.752568605053426 -8.1225566501200746 8.7551355457193196 0.55919291073839883 0 0.82903756765294845 0.82903756765294845 0 -0.55919291073839883 1 I I #
face $-1 $-1 $411 $56 $-1 $567 forward single #
loop $-1 $-1 $568 $252 #
plane-surface $-1 68.410290841395309 0 0 -1 0 0 0 0 1 forward_v I I I I #
coedge $-1 $569 $570 $571 $572 reversed $253 $-1 #
coedge $-1 $573 $255 $257 $409 forward $159 $-1 #
coedge $-1 $255 $573 $569 $574 forward $159 $-1 #
coedge $-1 $571 $258 $255 $406 forward $411 $-1 #
edge $-1 $413 -5.3674543516611735 $575 2.432525233676138 $405 $576 forward 7 unknown #
coedge $-1 $577 $578 $256 $408 forward $400 $-1 #
edge $-1 $579 -91.488011167638092 $412 -87.902698532212796 $407 $580 forward 7 unknown #
edge $-1 $413 130.40899711765195 $579 136.82058168279065 $257 $581 forward 7 unknown #
coedge $-1 $258 $571 $577 $582 forward $411 $-1 #
loop $-1 $-1 $571 $399 #
vertex $-1 $408 $583 #
vertex $-1 $259 $584 #
straight-curve $-1 15.744993959176774 6.8349189106536912 10.547791863431954 -1 0 0 I I #
coedge $-1 $415 $415 $-1 $585 reversed $262 $-1 #
edge $-1 $586 0 $586 6.2831853071796004 $263 $587 forward 7 unknown #
vertex $-1 $266 $588 #
ellipse-curve $-1 65.752568605053426 1.2635049211270442 8.7551355457193196 0.55919291073839883 0 0.82903756765294845 0.82903756765294845 0 -0.55919291073839883 1 I I #
coedge $-1 $419 $419 $-1 $589 reversed $269 $-1 #
edge $-1 $590 0 $590 6.2831853071796004 $270 $591 forward 7 unknown #
vertex $-1 $273 $592 #
ellipse-curve $-1 65.752568605053426 4.6063533148430338 8.7551355457193196 0.55919291073839883 0 0.82903756765294845 0.82903756765294845 0 -0.55919291073839883 1 I I #
face $-1 $-1 $435 $59 $-1 $593 forward single #
loop $-1 $-1 $594 $274 #
plane-surface $-1 68.410290841395309 0 0 -1 0 0 0 0 1 forward_v I I I I #
coedge $-1 $595 $596 $597 $598 reversed $275 $-1 #
coedge $-1 $599 $277 $279 $433 forward $173 $-1 #
coedge $-1 $277 $599 $595 $600 forward $173 $-1 #
coedge $-1 $597 $280 $277 $430 forward $435 $-1 #
edge $-1 $437 -11.731909334142728 $601 -3.9319297488054161 $429 $602 forward 7 unknown #
coedge $-1 $603 $604 $278 $432 forward $424 $-1 #
edge $-1 $605 -91.488011167638092 $436 -87.902698532212796 $431 $606 forward 7 unknown #
edge $-1 $437 130.40899711765195 $605 136.82058168279065 $279 $607 forward 7 unknown #
coedge $-1 $280 $597 $603 $608 forward $435 $-1 #
loop $-1 $-1 $597 $423 #
vertex $-1 $432 $609 #
vertex $-1 $281 $610 #
straight-curve $-1 15.744993959176774 19.5638288756168 10.547791863431954 -1 0 0 I I #
coedge $-1 $439 $439 $-1 $611 reversed $284 $-1 #
edge $-1 $612 0 $612 6.2831853071796004 $285 $613 forward 7 unknown #
vertex $-1 $288 $614 #
ellipse-curve $-1 65.752568605053426 13.992414886090152 8.7551355457193196 0.55919291073839883 0 0.82903756765294845 0.82903756765294845 0 -0.55919291073839883 1 I I #
coedge $-1 $443 $443 $-1 $615 reversed $291 $-1 #
edge $-1 $616 0 $616 6.2831853071796004 $292 $617 forward 7 unknown #
vertex $-1 $295 $618 #
ellipse-curve $-1 65.752568605053426 17.335263279806142 8.7551355457193196 0.55919291073839883 0 0.82903756765294845 0.82903756765294845 0 -0.55919291073839883 1 I I #
face $-1 $-1 $619 $62 $-1 $620 reversed single #
loop $-1 $-1 $454 $296 #
plane-surface $-1 0 0 10.547791863431948 0 0 1 1 0 0 forward_v I I I I #
coedge $-1 $621 $299 $301 $456 forward $187 $-1 #
coedge $-1 $299 $621 $622 $623 reversed $187 $-1 #
coedge $-1 $624 $302 $299 $453 forward $297 $-1 #
edge $-1 $459 10.29638473128697 $625 18.096364316624289 $452 $626 forward 7 unknown #
coedge $-1 $627 $628 $300 $455 forward $448 $-1 #
edge $-1 $629 47.349852409534769 $458 52.665296882218534 $454 $630 forward 7 unknown #
edge $-1 $459 -136.82058168279065 $629 -130.40899711765195 $301 $631 forward 7 unknown #
coedge $-1 $302 $624 $627 $632 reversed $297 $-1 #
vertex $-1 $632 $633 #
vertex $-1 $303 $634 #
straight-curve $-1 68.410290841395309 24.492759255242596 98.450490395644749 0 0 -1 I I #
coedge $-1 $461 $461 $-1 $635 reversed $306 $-1 #
edge $-1 $636 0 $636 6.2831853071796004 $307 $637 forward 7 unknown #
vertex $-1 $310 $638 #
ellipse-curve $-1 65.752568605053426 26.721324851053261 8.7551355457193196 0.55919291073839883 0 0.82903756765294845 0.82903756765294845 0 -0.55919291073839883 1 I I #
coedge $-1 $465 $465 $-1 $639 reversed $313 $-1 #
edge $-1 $640 0 $640 6.2831853071796004 $314 $641 forward 7 unknown #
vertex $-1 $317 $642 #
ellipse-curve $-1 65.752568605053426 30.06417324476925 8.7551355457193196 0.55919291073839883 0 0.82903756765294845 0.82903756765294845 0 -0.55919291073839883 1 I I #
face $-1 $-1 $481 $65 $-1 $643 forward single #
loop $-1 $-1 $644 $318 #
plane-surface $-1 -68.410290841395309 0 0 1 0 0 0 0 -1 forward_v I I I I #
coedge $-1 $645 $646 $647 $648 reversed $319 $-1 #
coedge $-1 $649 $321 $323 $479 forward $201 $-1 #
coedge $-1 $321 $649 $645 $650 forward $201 $-1 #
coedge $-1 $647 $324 $321 $476 forward $481 $-1 #
edge $-1 $483 -12.027573865370893 $651 -1.1630804424323546 $475 $652 forward 7 unknown #
coedge $-1 $653 $654 $322 $478 forward $470 $-1 #
edge $-1 $655 -48.48278063743912 $482 -44.229230317886021 $477 $656 forward 7 unknown #
edge $-1 $483 -6.4834871251930224 $655 -3.776566559949536e-014 $323 $657 forward 7 unknown #
coedge $-1 $324 $647 $653 $658 forward $481 $-1 #
loop $-1 $-1 $647 $469 #
vertex $-1 $478 $659 #
vertex $-1 $325 $660 #
straight-curve $-1 -79.086334948852397 -18.622901019272518 10.547791863431947 1 0 0 I I #
coedge $-1 $485 $485 $-1 $661 reversed $328 $-1 #
edge $-1 $662 0 $662 6.2831853071796004 $329 $663 forward 7 unknown #
vertex $-1 $332 $664 #
ellipse-curve $-1 -65.963715940560832 -15.518760041290083 8.4210167036553987 -0.6560590369687036 0 0.75470957328743171 1.1320643599311475 0 0.9840885554530554 1 I I #
coedge $-1 $489 $489 $-1 $665 reversed $335 $-1 #
edge $-1 $666 0 $666 6.2831853071796004 $336 $667 forward 7 unknown #
vertex $-1 $339 $668 #
ellipse-curve $-1 -65.963715940560832 -10.862548574316424 8.4210167036553987 -0.6560590369687036 0 0.75470957328743171 1.1320643599311475 0 0.9840885554530554 1 I I #
face $-1 $-1 $355 $51 $-1 $669 reversed single #
loop $-1 $-1 $509 $340 #
plane-surface $-1 0 32.292738840579915 0 0 -1 0 0 0 -1 forward_v I I I I #
coedge $-1 $670 $507 $510 $671 forward $341 $-1 #
coedge $-1 $513 $343 $344 $501 reversed $215 $-1 #
coedge $-1 $507 $670 $343 $499 reversed $341 $-1 #
edge $-1 $514 -10.547791863431948 $672 10.547791863431948 $498 $673 forward 7 unknown #
coedge $-1 $345 $344 $670 $674 forward $137 $-1 #
edge $-1 $505 -68.410290841395309 $672 68.410290841395309 $497 $675 forward 7 unknown #
coedge $-1 $510 $509 $345 $503 reversed $494 $-1 #
edge $-1 $676 -68.410290841395309 $504 68.410290841395309 $502 $677 forward 7 unknown #
vertex $-1 $347 $678 #
vertex $-1 $516 $679 #
straight-curve $-1 68.410290841395309 0 -10.547791863431948 0 -1 0 I I #
coedge $-1 $496 $498 $348 $508 reversed $341 $-1 #
edge $-1 $511 -32.292738840579915 $514 32.292738840579915 $507 $680 forward 7 unknown #
coedge $-1 $502 $349 $354 $517 forward $494 $-1 #
coedge $-1 $349 $502 $496 $671 reversed $494 $-1 #
vertex $-1 $350 $681 #
straight-curve $-1 0 32.292738840579915 10.547791863431948 -1 0 0 I I #
coedge $-1 $351 $497 $353 $516 reversed $215 $-1 #
vertex $-1 $508 $682 #
straight-curve $-1 0 -32.292738840579915 10.547791863431948 1 0 0 I I #
edge $-1 $356 -10.547791863431948 $505 10.547791863431948 $353 $683 forward 7 unknown #
edge $-1 $357 -10.547791863431948 $504 10.547791863431948 $354 $684 forward 7 unknown #
point $-1 68.410290841395309 -32.292738840579915 10.547791863431948 #
point $-1 68.410290841395309 32.292738840579915 10.547791863431948 #
face $-1 $-1 $685 $52 $-1 $686 reversed single #
loop $-1 $-1 $369 $359 #
plane-surface $-1 0 -32.292738840579915 0 0 1 0 0 0 1 forward_v I I I I #
coedge $-1 $687 $362 $527 $688 forward $223 $-1 #
coedge $-1 $362 $687 $689 $690 forward $223 $-1 #
edge $-1 $691 -68.410290841395309 $528 68.410290841395309 $362 $692 forward 7 unknown #
coedge $-1 $364 $363 $693 $694 reversed $141 $-1 #
coedge $-1 $365 $371 $523 $688 reversed $360 $-1 #
vertex $-1 $688 $695 #
straight-curve $-1 68.410290841395309 -18.622901019272518 -4.5238959317159742 0 0 1 I I #
coedge $-1 $693 $696 $367 $531 forward $685 $-1 #
edge $-1 $536 -19.563828875616807 $532 -5.8939910543094101 $530 $697 forward 7 unknown #
vertex $-1 $531 $698 #
straight-curve $-1 0 -18.622901019272518 -7.5477918634319483 -1 0 0 I I #
coedge $-1 $699 $369 $696 $700 forward $521 $-1 #
coedge $-1 $369 $699 $371 $538 reversed $521 $-1 #
vertex $-1 $700 $701 #
straight-curve $-1 0 -32.292738840579915 -7.5477918634319483 -1 0 0 I I #
edge $-1 $373 7.5477918634319483 $702 10.547791863431948 $371 $703 forward 7 unknown #
point $-1 68.410290841395309 -18.622901019272518 -7.5477918634319483 #
point $-1 68.410290841395309 -32.292738840579915 -7.5477918634319483 #
plane-surface $-1 0 0 10.547791863431948 0 0 1 1 0 0 forward_v I I I I #
coedge $-1 $552 $551 $544 $704 forward $376 $-1 #
coedge $-1 $544 $378 $380 $548 reversed $231 $-1 #
coedge $-1 $378 $543 $542 $704 reversed $231 $-1 #
coedge $-1 $386 $381 $378 $546 forward $387 $-1 #
edge $-1 $549 47.349852409534769 $705 52.665296882218534 $545 $706 forward 7 unknown #
coedge $-1 $380 $379 $552 $707 reversed $145 $-1 #
edge $-1 $708 -136.82058168279065 $549 -130.40899711765195 $543 $709 forward 7 unknown #
vertex $-1 $382 $710 #
straight-curve $-1 63.094846368711572 -4.8969904234890347 10.547791863431947 0 -1 0 I I #
coedge $-1 $542 $383 $386 $556 reversed $376 $-1 #
coedge $-1 $383 $542 $547 $707 forward $376 $-1 #
vertex $-1 $384 $711 #
straight-curve $-1 68.410290841395309 -5.8939910543094136 98.450490395644749 0 0 1 I I #
straight-curve $-1 -45.019111401766992 -5.8939910543094136 83.471578548127212 0.82903756765294845 0 -0.55919291073839883 I I #
edge $-1 $705 -13.693970639646725 $388 -5.8939910543094136 $551 $712 forward 7 unknown #
point $-1 68.410290841395309 -5.8939910543094136 10.547791863431948 #
point $-1 63.094846368711544 -5.8939910543094136 10.547791863431954 #
edge $-1 $713 1 $713 0 $391 $-1 forward 7 unknown #
vertex $-1 $392 $714 #
ellipse-curve $-1 63.575441702937582 -11.465405043836064 5.5274122381785125 0.55919291073839883 0 0.82903756765294845 0.82903756765294845 0 -0.55919291073839883 1 I I #
point $-1 66.581606172706373 -11.465405043836064 8.1959426349809199 #
edge $-1 $715 1 $715 0 $395 $-1 forward 7 unknown #
vertex $-1 $396 $716 #
ellipse-curve $-1 63.575441702937582 -8.1225566501200746 5.5274122381785125 0.55919291073839883 0 0.82903756765294845 0.82903756765294845 0 -0.55919291073839883 1 I I #
point $-1 66.581606172706373 -8.1225566501200746 8.1959426349809199 #
plane-surface $-1 0 0 10.547791863431948 0 0 1 1 0 0 forward_v I I I I #
coedge $-1 $578 $577 $570 $717 forward $400 $-1 #
coedge $-1 $570 $402 $404 $574 reversed $253 $-1 #
coedge $-1 $402 $569 $568 $717 reversed $253 $-1 #
coedge $-1 $410 $405 $402 $572 forward $411 $-1 #
edge $-1 $575 47.349852409534769 $718 52.665296882218534 $571 $719 forward 7 unknown #
coedge $-1 $404 $403 $578 $720 reversed $159 $-1 #
edge $-1 $721 -136.82058168279065 $575 -130.40899711765195 $569 $722 forward 7 unknown #
vertex $-1 $406 $723 #
straight-curve $-1 63.094846368711572 1.4674645589925177 10.547791863431947 0 -1 0 I I #
coedge $-1 $568 $407 $410 $582 reversed $400 $-1 #
coedge $-1 $407 $568 $573 $720 forward $400 $-1 #
vertex $-1 $408 $724 #
straight-curve $-1 68.410290841395309 6.8349189106536912 98.450490395644749 0 0 1 I I #
straight-curve $-1 -45.019111401766992 6.8349189106536912 83.471578548127212 0.82903756765294845 0 -0.55919291073839883 I I #
edge $-1 $718 -0.96506067468362033 $412 6.8349189106536912 $577 $725 forward 7 unknown #
point $-1 68.410290841395309 6.8349189106536912 10.547791863431948 #
point $-1 63.094846368711544 6.8349189106536912 10.547791863431954 #
edge $-1 $726 1 $726 0 $415 $-1 forward 7 unknown #
vertex $-1 $416 $727 #
ellipse-curve $-1 63.575441702937582 1.2635049211270442 5.5274122381785125 0.55919291073839883 0 0.82903756765294845 0.82903756765294845 0 -0.55919291073839883 1 I I #
point $-1 66.581606172706373 1.2635049211270442 8.1959426349809199 #
edge $-1 $728 1 $728 0 $419 $-1 forward 7 unknown #
vertex $-1 $420 $729 #
ellipse-curve $-1 63.575441702937582 4.6063533148430338 5.5274122381785125 0.55919291073839883 0 0.82903756765294845 0.82903756765294845 0 -0.55919291073839883 1 I I #
point $-1 66.581606172706373 4.6063533148430338 8.1959426349809199 #
plane-surface $-1 0 0 10.547791863431948 0 0 1 1 0 0 forward_v I I I I #
coedge $-1 $604 $603 $596 $730 forward $424 $-1 #
coedge $-1 $596 $426 $428 $600 reversed $275 $-1 #
coedge $-1 $426 $595 $594 $730 reversed $275 $-1 #
coedge $-1 $434 $429 $426 $598 forward $435 $-1 #
edge $-1 $601 47.349852409534769 $731 52.665296882218534 $597 $732 forward 7 unknown #
coedge $-1 $428 $427 $604 $733 reversed $173 $-1 #
edge $-1 $734 -136.82058168279065 $601 -130.40899711765195 $595 $735 forward 7 unknown #
vertex $-1 $430 $736 #
straight-curve $-1 63.094846368711572 7.8319195414740719 10.547791863431947 0 -1 0 I I #
coedge $-1 $594 $431 $434 $608 reversed $424 $-1 #
coedge $-1 $431 $594 $599 $733 forward $424 $-1 #
vertex $-1 $432 $737 #
straight-curve $-1 68.410290841395309 19.5638288756168 98.450490395644749 0 0 1 I I #
straight-curve $-1 -45.019111401766992 19.5638288756168 83.471578548127212 0.82903756765294845 0 -0.55919291073839883 I I #
edge $-1 $731 11.763849290279488 $436 19.5638288756168 $603 $738 forward 7 unknown #
point $-1 68.410290841395309 19.5638288756168 10.547791863431948 #
point $-1 63.094846368711544 19.5638288756168 10.547791863431954 #
edge $-1 $739 1 $739 0 $439 $-1 forward 7 unknown #
vertex $-1 $440 $740 #
ellipse-curve $-1 63.575441702937582 13.992414886090152 5.5274122381785125 0.55919291073839883 0 0.82903756765294845 0.82903756765294845 0 -0.55919291073839883 1 I I #
point $-1 66.581606172706373 13.992414886090152 8.1959426349809199 #
edge $-1 $741 1 $741 0 $443 $-1 forward 7 unknown #
vertex $-1 $444 $742 #
ellipse-curve $-1 63.575441702937582 17.335263279806142 5.5274122381785125 0.55919291073839883 0 0.82903756765294845 0.82903756765294845 0 -0.55919291073839883 1 I I #
point $-1 66.581606172706373 17.335263279806142 8.1959426349809199 #
loop $-1 $-1 $622 $447 #
plane-surface $-1 0 32.292738840579915 0 0 -1 0 0 0 -1 forward_v I I I I #
coedge $-1 $451 $450 $628 $743 reversed $187 $-1 #
coedge $-1 $744 $745 $451 $623 forward $619 $-1 #
edge $-1 $625 -94.820956889453541 $746 -88.409372324314859 $622 $747 forward 7 unknown #
coedge $-1 $457 $452 $745 $748 reversed $297 $-1 #
vertex $-1 $453 $749 #
straight-curve $-1 68.410290841395309 14.196374523955626 6.9624792280066643 0 1 0 I I #
coedge $-1 $750 $454 $457 $632 forward $448 $-1 #
coedge $-1 $454 $750 $621 $743 forward $448 $-1 #
vertex $-1 $455 $751 #
straight-curve $-1 15.744993959176774 24.492759255242596 10.547791863431954 1 0 0 I I #
straight-curve $-1 -45.019111401766992 24.492759255242596 83.471578548127212 -0.82903756765294845 0 0.55919291073839883 I I #
edge $-1 $458 24.492759255242596 $752 32.292738840579915 $457 $753 forward 7 unknown #
point $-1 68.410290841395309 24.492759255242596 10.547791863431948 #
point $-1 68.410290841395323 24.492759255242596 6.9624792280066572 #
edge $-1 $754 1 $754 0 $461 $-1 forward 7 unknown #
vertex $-1 $462 $755 #
ellipse-curve $-1 63.575441702937582 26.721324851053261 5.5274122381785125 0.55919291073839883 0 0.82903756765294845 0.82903756765294845 0 -0.55919291073839883 1 I I #
point $-1 66.581606172706373 26.721324851053261 8.1959426349809199 #
edge $-1 $756 1 $756 0 $465 $-1 forward 7 unknown #
vertex $-1 $466 $757 #
ellipse-curve $-1 63.575441702937582 30.06417324476925 5.5274122381785125 0.55919291073839883 0 0.82903756765294845 0.82903756765294845 0 -0.55919291073839883 1 I I #
point $-1 66.581606172706373 30.06417324476925 8.1959426349809199 #
plane-surface $-1 0 0 10.547791863431948 0 0 1 1 0 0 forward_v I I I I #
coedge $-1 $654 $653 $646 $758 forward $470 $-1 #
coedge $-1 $646 $472 $474 $650 reversed $319 $-1 #
coedge $-1 $472 $645 $644 $758 reversed $319 $-1 #
coedge $-1 $480 $475 $472 $648 forward $481 $-1 #
edge $-1 $651 -15.569193909126042 $759 -10.676044107457088 $647 $760 forward 7 unknown #
coedge $-1 $474 $473 $654 $761 reversed $201 $-1 #
edge $-1 $762 3.776566559949536e-014 $651 6.4834871251930224 $645 $763 forward 7 unknown #
vertex $-1 $476 $764 #
straight-curve $-1 -63.517141039726354 -6.5953271539016249 10.547791863431948 0 1 0 I I #
coedge $-1 $644 $477 $480 $658 reversed $470 $-1 #
coedge $-1 $477 $644 $649 $761 forward $470 $-1 #
vertex $-1 $478 $765 #
straight-curve $-1 -68.410290841395309 -18.622901019272518 54.777022181317967 0 0 1 I I #
straight-curve $-1 -68.410290841395337 -18.622901019272518 6.294241543878826 -0.75470957328743171 0 -0.6560590369687036 I I #
edge $-1 $759 7.7584075963339796 $482 18.622901019272518 $653 $766 forward 7 unknown #
point $-1 -68.410290841395309 -18.622901019272518 10.547791863431948 #
point $-1 -63.517141039726354 -18.622901019272518 10.547791863431948 #
edge $-1 $767 1 $767 0 $485 $-1 forward 7 unknown #
vertex $-1 $486 $768 #
ellipse-curve $-1 -63.407133941247594 -15.518760041290083 5.4800056039667195 -0.6560590369687036 0 0.75470957328743171 1.1320643599311475 0 0.9840885554530554 1 I I #
point $-1 -64.831651580629682 -15.518760041290083 9.405105259108451 #
edge $-1 $769 1 $769 0 $489 $-1 forward 7 unknown #
vertex $-1 $490 $770 #
ellipse-curve $-1 -63.407133941247594 -10.862548574316424 5.4800056039667195 -0.6560590369687036 0 0.75470957328743171 1.1320643599311475 0 0.9840885554530554 1 I I #
point $-1 -64.831651580629682 -10.862548574316424 9.405105259108451 #
plane-surface $-1 68.410290841395309 0 0 -1 0 0 0 0 1 forward_v I I I I #
coedge $-1 $498 $496 $500 $674 reversed $341 $-1 #
edge $-1 $511 -10.547791863431948 $676 10.547791863431948 $510 $771 forward 7 unknown #
vertex $-1 $674 $772 #
straight-curve $-1 -68.410290841395309 -32.292738840579915 0 0 0 -1 I I #
edge $-1 $672 -32.292738840579915 $676 32.292738840579915 $670 $773 forward 7 unknown #
straight-curve $-1 0 -32.292738840579915 -10.547791863431948 -1 0 0 I I #
vertex $-1 $503 $774 #
straight-curve $-1 0 32.292738840579915 -10.547791863431948 1 0 0 I I #
point $-1 68.410290841395309 32.292738840579915 -10.547791863431948 #
point $-1 68.410290841395309 -32.292738840579915 -10.547791863431948 #
straight-curve $-1 -68.410290841395309 0 10.547791863431948 0 -1 0 I I #
point $-1 -68.410290841395309 32.292738840579915 10.547791863431948 #
point $-1 -68.410290841395309 -32.292738840579915 10.547791863431948 #
straight-curve $-1 68.410290841395309 -32.292738840579915 0 0 0 -1 I I #
straight-curve $-1 68.410290841395309 32.292738840579915 0 0 0 -1 I I #
loop $-1 $-1 $693 $520 #
plane-surface $-1 -68.410290841395309 0 0 1 0 0 0 0 -1 forward_v I I I I #
coedge $-1 $524 $523 $699 $775 forward $223 $-1 #
edge $-1 $528 18.622901019272518 $702 32.292738840579915 $527 $776 forward 7 unknown #
coedge $-1 $696 $693 $524 $690 reversed $685 $-1 #
edge $-1 $777 -32.292738840579915 $691 -18.622901019272518 $689 $778 forward 7 unknown #
vertex $-1 $694 $779 #
straight-curve $-1 0 -18.622901019272518 -10.547791863431948 1 0 0 I I #
coedge $-1 $689 $530 $526 $694 forward $685 $-1 #
edge $-1 $532 3.0238959317159742 $691 6.0238959317159742 $693 $780 forward 7 unknown #
point $-1 68.410290841395309 -18.622901019272518 -10.547791863431948 #
coedge $-1 $530 $689 $534 $700 reversed $685 $-1 #
straight-curve $-1 -68.410290841395309 -12.728909964963108 -7.5477918634319483 0 1 0 I I #
point $-1 -68.410290841395309 -18.622901019272518 -7.5477918634319483 #
coedge $-1 $535 $534 $687 $775 reversed $521 $-1 #
edge $-1 $536 7.5477918634319483 $777 10.547791863431948 $696 $781 forward 7 unknown #
point $-1 -68.410290841395309 -32.292738840579915 -7.5477918634319483 #
vertex $-1 $538 $782 #
straight-curve $-1 68.410290841395309 -32.292738840579915 0 0 0 -1 I I #
edge $-1 $705 87.902698532212796 $708 91.488011167638092 $542 $783 forward 7 unknown #
vertex $-1 $556 $784 #
straight-curve $-1 15.744993959176774 -13.693970639646725 10.547791863431954 1 0 0 I I #
edge $-1 $708 -8.7969802161576904 $553 -0.99700063082037893 $552 $785 forward 7 unknown #
vertex $-1 $707 $786 #
straight-curve $-1 -45.019111401766992 -13.693970639646725 83.471578548127212 -0.82903756765294845 0 0.55919291073839883 I I #
point $-1 63.094846368711544 -13.693970639646725 10.547791863431954 #
point $-1 68.410290841395323 -5.8939910543094136 6.9624792280066572 #
straight-curve $-1 68.410290841395309 0 10.547791863431948 0 1 0 I I #
vertex $-1 $559 $787 #
point $-1 64.404479270590528 -11.465405043836064 4.9682193274401136 #
vertex $-1 $563 $788 #
point $-1 64.404479270590528 -8.1225566501200746 4.9682193274401136 #
edge $-1 $718 87.902698532212796 $721 91.488011167638092 $568 $789 forward 7 unknown #
vertex $-1 $582 $790 #
straight-curve $-1 15.744993959176774 -0.96506067468362033 10.547791863431954 1 0 0 I I #
edge $-1 $721 -2.432525233676138 $579 5.3674543516611735 $578 $791 forward 7 unknown #
vertex $-1 $720 $792 #
straight-curve $-1 -45.019111401766992 -0.96506067468362033 83.471578548127212 -0.82903756765294845 0 0.55919291073839883 I I #
point $-1 63.094846368711544 -0.96506067468362033 10.547791863431954 #
point $-1 68.410290841395323 6.8349189106536912 6.9624792280066572 #
straight-curve $-1 68.410290841395309 0 10.547791863431948 0 1 0 I I #
vertex $-1 $585 $793 #
point $-1 64.404479270590528 1.2635049211270442 4.9682193274401136 #
vertex $-1 $589 $794 #
point $-1 64.404479270590528 4.6063533148430338 4.9682193274401136 #
edge $-1 $731 87.902698532212796 $734 91.488011167638092 $594 $795 forward 7 unknown #
vertex $-1 $608 $796 #
straight-curve $-1 15.744993959176774 11.763849290279488 10.547791863431954 1 0 0 I I #
edge $-1 $734 3.9319297488054161 $605 11.731909334142728 $604 $797 forward 7 unknown #
vertex $-1 $733 $798 #
straight-curve $-1 -45.019111401766992 11.763849290279488 83.471578548127212 -0.82903756765294845 0 0.55919291073839883 I I #
point $-1 63.094846368711544 11.763849290279488 10.547791863431954 #
point $-1 68.410290841395323 19.5638288756168 6.9624792280066572 #
straight-curve $-1 68.410290841395309 0 10.547791863431948 0 1 0 I I #
vertex $-1 $611 $799 #
point $-1 64.404479270590528 13.992414886090152 4.9682193274401136 #
vertex $-1 $615 $800 #
point $-1 64.404479270590528 17.335263279806142 4.9682193274401136 #
edge $-1 $746 -18.096364316624282 $629 -10.29638473128697 $628 $801 forward 7 unknown #
coedge $-1 $745 $622 $750 $802 reversed $619 $-1 #
coedge $-1 $622 $744 $624 $748 forward $619 $-1 #
vertex $-1 $623 $803 #
straight-curve $-1 -10.199844620762345 32.292738840579915 59.985686110020424 -0.82903756765294845 0 0.55919291073839883 I I #
edge $-1 $752 -10.547791863431948 $625 -6.9624792280066607 $624 $804 forward 7 unknown #
point $-1 68.410290841395309 32.292738840579915 6.9624792280066607 #
coedge $-1 $628 $627 $744 $802 forward $448 $-1 #
point $-1 63.094846368711544 24.492759255242596 10.547791863431954 #
vertex $-1 $632 $805 #
straight-curve $-1 68.410290841395309 0 10.547791863431948 0 1 0 I I #
vertex $-1 $635 $806 #
point $-1 64.404479270590528 26.721324851053261 4.9682193274401136 #
vertex $-1 $639 $807 #
point $-1 64.404479270590528 30.06417324476925 4.9682193274401136 #
edge $-1 $759 44.229230317886021 $762 48.48278063743912 $644 $808 forward 7 unknown #
vertex $-1 $658 $809 #
straight-curve $-1 -79.086334948852397 -7.7584075963339796 10.547791863431947 -1 0 0 I I #
edge $-1 $762 1.1630804424323546 $655 12.027573865370893 $654 $810 forward 7 unknown #
vertex $-1 $761 $811 #
straight-curve $-1 -68.410290841395337 -7.7584075963339796 6.294241543878826 0.75470957328743171 0 0.6560590369687036 I I #
point $-1 -63.517141039726354 -7.7584075963339796 10.547791863431948 #
point $-1 -68.410290841395309 -18.622901019272518 6.2942415438788508 #
straight-curve $-1 -68.410290841395309 0 10.547791863431948 0 -1 0 I I #
vertex $-1 $661 $812 #
point $-1 -62.275069581316444 -15.518760041290083 6.4640941594197745 #
vertex $-1 $665 $813 #
point $-1 -62.275069581316444 -10.862548574316424 6.4640941594197745 #
straight-curve $-1 -68.410290841395309 32.292738840579915 0 0 0 -1 I I #
point $-1 -68.410290841395309 -32.292738840579915 -10.547791863431948 #
straight-curve $-1 -68.410290841395309 0 -10.547791863431948 0 1 0 I I #
point $-1 -68.410290841395309 32.292738840579915 -10.547791863431948 #
edge $-1 $702 -68.410290841395309 $777 68.410290841395309 $699 $814 forward 7 unknown #
straight-curve $-1 68.410290841395309 0 -10.547791863431948 0 -1 0 I I #
vertex $-1 $690 $815 #
straight-curve $-1 -68.410290841395309 0 -10.547791863431948 0 1 0 I I #
point $-1 -68.410290841395309 -18.622901019272518 -10.547791863431948 #
straight-curve $-1 -68.410290841395309 -18.622901019272518 -4.5238959317159742 0 0 -1 I I #
straight-curve $-1 -68.410290841395309 -32.292738840579915 0 0 0 -1 I I #
point $-1 68.410290841395309 -32.292738840579915 -10.547791863431948 #
straight-curve $-1 68.410290841395309 -13.693970639646725 98.450490395644749 0 0 -1 I I #
point $-1 68.410290841395309 -13.693970639646725 10.547791863431948 #
straight-curve $-1 68.410290841395309 -4.8969904234890347 6.9624792280066643 0 1 0 I I #
point $-1 68.410290841395323 -13.693970639646725 6.9624792280066572 #
point $-1 63.016248792199178 -11.465405043836064 4.6983746705255642 #
point $-1 63.016248792199178 -8.1225566501200746 4.6983746705255642 #
straight-curve $-1 68.410290841395309 -0.96506067468362033 98.450490395644749 0 0 -1 I I #
point $-1 68.410290841395309 -0.96506067468362033 10.547791863431948 #
straight-curve $-1 68.410290841395309 1.4674645589925177 6.9624792280066643 0 1 0 I I #
point $-1 68.410290841395323 -0.96506067468362033 6.9624792280066572 #
point $-1 63.016248792199178 1.2635049211270442 4.6983746705255642 #
point $-1 63.016248792199178 4.6063533148430338 4.6983746705255642 #
straight-curve $-1 68.410290841395309 11.763849290279488 98.450490395644749 0 0 -1 I I #
point $-1 68.410290841395309 11.763849290279488 10.547791863431948 #
straight-curve $-1 68.410290841395309 7.8319195414740719 6.9624792280066643 0 1 0 I I #
point $-1 68.410290841395323 11.763849290279488 6.9624792280066572 #
point $-1 63.016248792199178 13.992414886090152 4.6983746705255642 #
point $-1 63.016248792199178 17.335263279806142 4.6983746705255642 #
straight-curve $-1 63.094846368711572 14.196374523955626 10.547791863431947 0 -1 0 I I #
edge $-1 $752 -68.410290841395309 $746 -63.094846368711544 $744 $816 forward 7 unknown #
point $-1 63.094846368711544 32.292738840579908 10.547791863431954 #
straight-curve $-1 68.410290841395309 32.292738840579915 0 0 0 -1 I I #
point $-1 68.410290841395309 32.292738840579915 10.547791863431948 #
point $-1 63.016248792199178 26.721324851053261 4.6983746705255642 #
point $-1 63.016248792199178 30.06417324476925 4.6983746705255642 #
straight-curve $-1 -68.410290841395309 -7.7584075963339796 54.777022181317967 0 0 -1 I I #
point $-1 -68.410290841395309 -7.7584075963339796 10.547791863431948 #
straight-curve $-1 -68.410290841395309 -6.5953271539016249 6.2942415438788553 0 -1 0 I I #
point $-1 -68.410290841395309 -7.7584075963339796 6.2942415438788508 #
point $-1 -62.423045385794538 -15.518760041290083 4.3479412440355718 #
point $-1 -62.423045385794538 -10.862548574316424 4.3479412440355718 #
straight-curve $-1 0 -32.292738840579915 -10.547791863431948 -1 0 0 I I #
point $-1 -68.410290841395309 -32.292738840579915 -10.547791863431948 #
straight-curve $-1 0 32.292738840579915 10.547791863431948 -1 0 0 I I #
End-of-ACIS-data 