500 0 7 0           
7 Unknown 11 ACIS 5.0 NT 24 Fri Mar 26 01:17:20 1999 
-1 9.9999999999999995e-007 1e-010 
body $-1 $7 $-1 $8 #
body $-1 $9 $-1 $10 #
body $-1 $11 $-1 $12 #
body $-1 $13 $-1 $14 #
body $-1 $15 $-1 $16 #
body $-1 $17 $-1 $18 #
body $-1 $19 $-1 $20 #
lump $-1 $-1 $21 $0 #
transform $-1 1 0 0 0 1 0 0 0 1 40.886257515182962 18.514797742730075 7.0601686549161666 1 rotate no_reflect no_shear #
lump $-1 $-1 $22 $1 #
transform $-1 1 0 0 0 1 0 0 0 1 40.886257515182962 18.514797742730075 7.0601686549161666 1 rotate no_reflect no_shear #
lump $-1 $-1 $23 $2 #
transform $-1 1 0 0 0 1 0 0 0 1 40.886257515182962 18.514797742730075 7.0601686549161666 1 rotate no_reflect no_shear #
lump $-1 $-1 $24 $3 #
transform $-1 1 0 0 0 1 0 0 0 1 40.886257515182962 18.514797742730075 7.0601686549161666 1 rotate no_reflect no_shear #
lump $-1 $-1 $25 $4 #
transform $-1 1 0 0 0 1 0 0 0 1 40.886257515182962 18.514797742730075 7.0601686549161666 1 rotate no_reflect no_shear #
lump $-1 $-1 $26 $5 #
transform $-1 1 0 0 0 1 0 0 0 1 40.886257515182962 18.514797742730075 7.0601686549161666 1 rotate no_reflect no_shear #
lump $-1 $-1 $27 $6 #
transform $-1 1 0 0 0 1 0 0 0 1 40.886257515182962 18.514797742730075 7.0601686549161666 1 rotate no_reflect no_shear #
shell $-1 $-1 $-1 $28 $-1 $7 #
shell $-1 $-1 $-1 $29 $-1 $9 #
shell $-1 $-1 $-1 $30 $-1 $11 #
shell $-1 $-1 $-1 $31 $-1 $13 #
shell $-1 $-1 $-1 $32 $-1 $15 #
shell $-1 $-1 $-1 $33 $-1 $17 #
shell $-1 $-1 $-1 $34 $-1 $19 #
face $-1 $35 $36 $21 $-1 $37 forward single #
face $-1 $38 $39 $22 $-1 $40 reversed single #
face $-1 $41 $42 $23 $-1 $43 forward single #
face $-1 $44 $45 $24 $-1 $46 reversed single #
face $-1 $47 $48 $25 $-1 $49 forward single #
face $-1 $50 $51 $26 $-1 $52 forward single #
face $-1 $53 $54 $27 $-1 $55 forward single #
face $-1 $56 $57 $21 $-1 $58 reversed single #
loop $-1 $-1 $59 $28 #
plane-surface $-1 0 0 7.0601686549161666 0 0 1 1 0 0 forward_v I I I I #
face $-1 $60 $61 $22 $-1 $62 reversed single #
loop $-1 $-1 $63 $29 #
plane-surface $-1 0 -14.792873418876086 4.0601686549161666 0 0 1 1 0 0 forward_v I I I I #
face $-1 $64 $65 $23 $-1 $66 reversed single #
loop $-1 $-1 $67 $30 #
plane-surface $-1 0 14.949586021985731 -3.7393662823065608 0 0 1 1 0 0 forward_v I I I I #
face $-1 $68 $69 $24 $-1 $70 reversed single #
loop $-1 $-1 $71 $31 #
plane-surface $-1 -86.612868213412753 7.2976384574095121 71.821554132367027 0 -1 0 0.55919291073839883 0 -0.82903756765294845 forward_v I I I I #
face $-1 $72 $73 $25 $-1 $74 forward single #
loop $-1 $75 $76 $32 #
cone-surface $-1 -38.359764726272857 1.9678155313388821 5.1300991289957576 0.55919291073839883 0 -0.82903756765294845 0.41451878382647422 0 0.27959645536919941 1 I I 0 1 0.5 forward I I I I #
face $-1 $77 $78 $26 $-1 $79 forward single #
loop $-1 $80 $81 $33 #
cone-surface $-1 -38.359764726272857 3.9664991286153679 5.1300991289957576 0.55919291073839883 0 -0.82903756765294845 0.41451878382647422 0 0.27959645536919941 1 I I 0 1 0.5 forward I I I I #
face $-1 $82 $83 $27 $-1 $84 forward single #
loop $-1 $85 $86 $34 #
cone-surface $-1 -38.359764726272857 5.9651827258918537 5.1300991289957576 0.55919291073839883 0 -0.82903756765294845 0.41451878382647422 0 0.27959645536919941 1 I I 0 1 0.5 forward I I I I #
face $-1 $87 $88 $21 $-1 $89 reversed single #
loop $-1 $-1 $90 $35 #
plane-surface $-1 0 0 -7.0601686549161666 0 0 1 1 0 0 forward_v I I I I #
coedge $-1 $91 $92 $93 $94 forward $36 $-1 #
face $-1 $95 $96 $22 $-1 $97 reversed single #
loop $-1 $-1 $98 $38 #
plane-surface $-1 0 -11.070949095022097 5.5601686549161666 0 -1 0 0 0 -1 forward_v I I I I #
coedge $-1 $99 $100 $101 $102 reversed $39 $-1 #
face $-1 $103 $104 $23 $-1 $105 reversed single #
loop $-1 $-1 $106 $41 #
plane-surface $-1 0 11.384374301241383 -5.3997674686113637 0 1 0 0 0 1 forward_v I I I I #
coedge $-1 $107 $108 $109 $110 reversed $42 $-1 #
face $-1 $111 $112 $24 $-1 $113 reversed single #
loop $-1 $-1 $114 $44 #
plane-surface $-1 -40.886257515182962 3.9664991286153679 4.0290671707282968 -0.55919291073839883 0 0.82903756765294845 0.82903756765294845 0 0.55919291073839883 forward_v I I I I #
coedge $-1 $115 $116 $117 $118 reversed $45 $-1 #
face $-1 $-1 $119 $25 $-1 $120 forward single #
loop $-1 $121 $122 $47 #
cone-surface $-1 -37.940370043219055 1.9678155313388821 4.508320953256046 0.55919291073839883 0 -0.82903756765294845 0.20725939191323711 0 0.13979822768459971 1 I I -0.70710678118654746 0.70710678118654746 0.25 forward I I I I #
loop $-1 $-1 $123 $32 #
coedge $-1 $76 $76 $124 $125 reversed $48 $-1 #
face $-1 $-1 $126 $26 $-1 $127 forward single #
loop $-1 $128 $129 $50 #
cone-surface $-1 -37.940370043219055 3.9664991286153679 4.508320953256046 0.55919291073839883 0 -0.82903756765294845 0.20725939191323711 0 0.13979822768459971 1 I I -0.70710678118654746 0.70710678118654746 0.25 forward I I I I #
loop $-1 $-1 $130 $33 #
coedge $-1 $81 $81 $131 $132 reversed $51 $-1 #
face $-1 $-1 $133 $27 $-1 $134 forward single #
loop $-1 $135 $136 $53 #
cone-surface $-1 -37.940370043219055 5.9651827258918537 4.508320953256046 0.55919291073839883 0 -0.82903756765294845 0.20725939191323711 0 0.13979822768459971 1 I I -0.70710678118654746 0.70710678118654746 0.25 forward I I I I #
loop $-1 $-1 $137 $34 #
coedge $-1 $86 $86 $138 $139 reversed $54 $-1 #
face $-1 $140 $141 $21 $-1 $142 reversed single #
loop $-1 $-1 $143 $56 #
plane-surface $-1 0 -18.514797742730075 0 0 1 0 0 0 1 forward_v I I I I #
coedge $-1 $144 $145 $146 $147 forward $57 $-1 #
coedge $-1 $148 $59 $149 $150 forward $36 $-1 #
coedge $-1 $59 $148 $151 $152 forward $36 $-1 #
coedge $-1 $153 $154 $59 $94 reversed $155 $-1 #
edge $-1 $156 -18.514797742730075 $157 18.514797742730075 $93 $158 forward 7 unknown #
face $-1 $159 $160 $22 $-1 $161 reversed single #
loop $-1 $-1 $162 $60 #
plane-surface $-1 -40.886257515182962 0 0 1 0 0 0 0 -1 forward_v I I I I #
coedge $-1 $163 $164 $165 $166 reversed $61 $-1 #
coedge $-1 $167 $63 $168 $169 reversed $39 $-1 #
coedge $-1 $63 $167 $163 $170 forward $39 $-1 #
coedge $-1 $165 $171 $63 $102 forward $172 $-1 #
edge $-1 $173 -11.118361033292032 $174 -3.6745123855840545 $101 $175 forward 7 unknown #
face $-1 $176 $177 $23 $-1 $178 reversed single #
loop $-1 $-1 $109 $64 #
plane-surface $-1 40.886257515182962 0 0 -1 0 0 0 0 1 forward_v I I I I #
coedge $-1 $179 $180 $181 $182 reversed $65 $-1 #
coedge $-1 $183 $67 $184 $185 reversed $42 $-1 #
coedge $-1 $67 $183 $180 $186 forward $42 $-1 #
coedge $-1 $187 $188 $67 $110 forward $104 $-1 #
edge $-1 $189 -11.040004731737213 $190 -3.9095812902485179 $109 $191 forward 7 unknown #
face $-1 $192 $193 $24 $-1 $194 reversed single #
loop $-1 $-1 $195 $68 #
plane-surface $-1 -86.612868213412753 0.6353597998212237 71.821554132367027 0 1 0 -0.55919291073839883 0 0.82903756765294845 forward_v I I I I #
coedge $-1 $196 $197 $198 $199 reversed $69 $-1 #
coedge $-1 $116 $71 $200 $201 reversed $45 $-1 #
coedge $-1 $71 $115 $196 $202 reversed $45 $-1 #
coedge $-1 $198 $203 $71 $118 forward $193 $-1 #
edge $-1 $204 28.850608411267345 $205 31.881709895455216 $117 $206 forward 7 unknown #
loop $-1 $-1 $124 $72 #
plane-surface $-1 -40.886257515182962 3.9664991286153679 4.0290671707282968 -0.55919291073839883 0 0.82903756765294845 0.82903756765294845 0 0.55919291073839883 forward_v I I I I #
loop $-1 $-1 $207 $47 #
coedge $-1 $122 $122 $123 $208 reversed $73 $-1 #
coedge $-1 $123 $123 $122 $208 forward $75 $-1 #
coedge $-1 $124 $124 $76 $125 forward $119 $-1 #
edge $-1 $209 0 $209 6.2831853071796004 $124 $210 forward 7 unknown #
loop $-1 $-1 $131 $77 #
plane-surface $-1 -40.886257515182962 3.9664991286153679 4.0290671707282968 -0.55919291073839883 0 0.82903756765294845 0.82903756765294845 0 0.55919291073839883 forward_v I I I I #
loop $-1 $-1 $211 $50 #
coedge $-1 $129 $129 $130 $212 reversed $78 $-1 #
coedge $-1 $130 $130 $129 $212 forward $80 $-1 #
coedge $-1 $131 $131 $81 $132 forward $126 $-1 #
edge $-1 $213 0 $213 6.2831853071796004 $131 $214 forward 7 unknown #
loop $-1 $-1 $138 $82 #
plane-surface $-1 -40.886257515182962 3.9664991286153679 4.0290671707282968 -0.55919291073839883 0 0.82903756765294845 0.82903756765294845 0 0.55919291073839883 forward_v I I I I #
loop $-1 $-1 $215 $53 #
coedge $-1 $136 $136 $137 $216 reversed $83 $-1 #
coedge $-1 $137 $137 $136 $216 forward $85 $-1 #
coedge $-1 $138 $138 $86 $139 forward $133 $-1 #
edge $-1 $217 0 $217 6.2831853071796004 $138 $218 forward 7 unknown #
face $-1 $219 $220 $21 $-1 $221 reversed single #
loop $-1 $-1 $222 $87 #
plane-surface $-1 -40.886257515182962 0 0 1 0 0 0 0 -1 forward_v I I I I #
coedge $-1 $223 $151 $224 $225 forward $88 $-1 #
coedge $-1 $226 $90 $223 $227 forward $57 $-1 #
coedge $-1 $90 $226 $228 $229 forward $57 $-1 #
coedge $-1 $154 $153 $90 $147 reversed $155 $-1 #
edge $-1 $230 -18.514797742730075 $231 18.514797742730075 $146 $232 forward 7 unknown #
coedge $-1 $92 $91 $233 $234 forward $36 $-1 #
coedge $-1 $235 $236 $91 $150 reversed $220 $-1 #
edge $-1 $157 -40.886257515182962 $237 40.886257515182962 $149 $238 forward 7 unknown #
coedge $-1 $143 $239 $92 $152 reversed $88 $-1 #
edge $-1 $240 -40.886257515182962 $156 40.886257515182962 $151 $241 forward 7 unknown #
coedge $-1 $146 $93 $239 $242 forward $155 $-1 #
coedge $-1 $93 $146 $235 $243 reversed $155 $-1 #
loop $-1 $-1 $153 $219 #
vertex $-1 $94 $244 #
vertex $-1 $94 $245 #
straight-curve $-1 40.886257515182962 0 7.0601686549161666 0 1 0 I I #
face $-1 $246 $247 $22 $-1 $248 forward single #
loop $-1 $-1 $168 $95 #
plane-surface $-1 0 -18.514797742730075 0 0 1 0 0 0 1 forward_v I I I I #
coedge $-1 $249 $250 $251 $252 forward $96 $-1 #
coedge $-1 $251 $98 $100 $170 reversed $61 $-1 #
coedge $-1 $98 $251 $253 $254 reversed $61 $-1 #
coedge $-1 $255 $101 $98 $166 forward $172 $-1 #
edge $-1 $174 1.2800843274580833 $256 4.2800843274580833 $165 $257 forward 7 unknown #
coedge $-1 $100 $99 $249 $258 reversed $39 $-1 #
coedge $-1 $259 $260 $99 $169 forward $160 $-1 #
edge $-1 $261 -40.886257515182962 $173 40.886257515182962 $168 $262 forward 7 unknown #
edge $-1 $263 -40.886257515182962 $174 40.886257515182962 $163 $264 forward 7 unknown #
coedge $-1 $101 $255 $259 $265 forward $172 $-1 #
loop $-1 $-1 $165 $246 #
vertex $-1 $169 $266 #
vertex $-1 $102 $267 #
straight-curve $-1 40.886257515182962 -7.396436709438043 4.0601686549161666 0 1 0 I I #
face $-1 $268 $269 $23 $-1 $270 reversed single #
loop $-1 $-1 $271 $103 #
plane-surface $-1 0 0 -7.0601686549161666 0 0 1 1 0 0 forward_v I I I I #
coedge $-1 $272 $106 $271 $273 reversed $65 $-1 #
coedge $-1 $106 $272 $108 $186 reversed $65 $-1 #
coedge $-1 $274 $275 $106 $182 forward $269 $-1 #
edge $-1 $276 -4.3602849206104848 $277 -1.0394825480008789 $181 $278 forward 7 unknown #
coedge $-1 $108 $107 $274 $279 reversed $42 $-1 #
coedge $-1 $280 $281 $107 $185 forward $282 $-1 #
edge $-1 $283 -40.886257515182962 $189 40.886257515182962 $184 $284 forward 7 unknown #
edge $-1 $277 -40.886257515182962 $190 40.886257515182962 $180 $285 forward 7 unknown #
coedge $-1 $286 $109 $272 $287 forward $104 $-1 #
coedge $-1 $109 $286 $280 $288 reversed $104 $-1 #
vertex $-1 $288 $289 #
vertex $-1 $110 $290 #
straight-curve $-1 40.886257515182962 7.4747930109928653 -3.7393662823065608 0 -1 0 I I #
face $-1 $-1 $291 $24 $-1 $292 forward single #
loop $-1 $-1 $117 $111 #
plane-surface $-1 -40.886257515182962 0 0 1 0 0 0 0 -1 forward_v I I I I #
coedge $-1 $293 $294 $295 $296 reversed $112 $-1 #
coedge $-1 $297 $114 $116 $202 forward $69 $-1 #
coedge $-1 $114 $297 $293 $298 forward $69 $-1 #
coedge $-1 $295 $117 $114 $199 forward $193 $-1 #
edge $-1 $205 -5.3143888931018282 $299 1.3478897644864603 $198 $300 forward 7 unknown #
coedge $-1 $301 $302 $115 $201 forward $291 $-1 #
edge $-1 $303 -6.9139692586052348 $204 -2.4201765915234148 $200 $304 forward 7 unknown #
edge $-1 $205 0 $303 5.4204934039406636 $116 $305 forward 7 unknown #
coedge $-1 $117 $295 $301 $306 reversed $193 $-1 #
vertex $-1 $306 $307 #
vertex $-1 $118 $308 #
straight-curve $-1 -40.886257515182962 7.2976384574095121 35.910777066183513 0 0 -1 I I #
coedge $-1 $207 $207 $-1 $309 reversed $121 $-1 #
edge $-1 $310 0 $310 6.2831853071796004 $122 $311 forward 7 unknown #
vertex $-1 $125 $312 #
ellipse-curve $-1 -38.639361181642059 1.9678155313388821 5.5446179128222299 -0.55919291073839883 0 0.82903756765294845 0.41451878382647422 0 0.27959645536919941 1 I I #
coedge $-1 $211 $211 $-1 $313 reversed $128 $-1 #
edge $-1 $314 0 $314 6.2831853071796004 $129 $315 forward 7 unknown #
vertex $-1 $132 $316 #
ellipse-curve $-1 -38.639361181642059 3.9664991286153679 5.5446179128222299 -0.55919291073839883 0 0.82903756765294845 0.41451878382647422 0 0.27959645536919941 1 I I #
coedge $-1 $215 $215 $-1 $317 reversed $135 $-1 #
edge $-1 $318 0 $318 6.2831853071796004 $136 $319 forward 7 unknown #
vertex $-1 $139 $320 #
ellipse-curve $-1 -38.639361181642059 5.9651827258918537 5.5446179128222299 -0.55919291073839883 0 0.82903756765294845 0.41451878382647422 0 0.27959645536919941 1 I I #
face $-1 $-1 $155 $21 $-1 $321 reversed single #
loop $-1 $-1 $235 $140 #
plane-surface $-1 0 18.514797742730075 0 0 -1 0 0 0 -1 forward_v I I I I #
coedge $-1 $322 $233 $236 $323 forward $141 $-1 #
coedge $-1 $239 $143 $144 $227 reversed $88 $-1 #
coedge $-1 $233 $322 $143 $225 reversed $141 $-1 #
edge $-1 $240 -7.0601686549161666 $324 7.0601686549161666 $224 $325 forward 7 unknown #
coedge $-1 $145 $144 $322 $326 forward $57 $-1 #
edge $-1 $231 -40.886257515182962 $324 40.886257515182962 $223 $327 forward 7 unknown #
coedge $-1 $236 $235 $145 $229 reversed $220 $-1 #
edge $-1 $328 -40.886257515182962 $230 40.886257515182962 $228 $329 forward 7 unknown #
vertex $-1 $147 $330 #
vertex $-1 $242 $331 #
straight-curve $-1 40.886257515182962 0 -7.0601686549161666 0 -1 0 I I #
coedge $-1 $222 $224 $148 $234 reversed $141 $-1 #
edge $-1 $237 -18.514797742730075 $240 18.514797742730075 $233 $332 forward 7 unknown #
coedge $-1 $228 $149 $154 $243 forward $220 $-1 #
coedge $-1 $149 $228 $222 $323 reversed $220 $-1 #
vertex $-1 $150 $333 #
straight-curve $-1 0 18.514797742730075 7.0601686549161666 -1 0 0 I I #
coedge $-1 $151 $223 $153 $242 reversed $88 $-1 #
vertex $-1 $234 $334 #
straight-curve $-1 0 -18.514797742730075 7.0601686549161666 1 0 0 I I #
edge $-1 $156 -7.0601686549161666 $231 7.0601686549161666 $153 $335 forward 7 unknown #
edge $-1 $157 -7.0601686549161666 $230 7.0601686549161666 $154 $336 forward 7 unknown #
point $-1 40.886257515182962 -18.514797742730075 7.0601686549161666 #
point $-1 40.886257515182962 18.514797742730075 7.0601686549161666 #
face $-1 $-1 $172 $22 $-1 $337 reversed single #
loop $-1 $-1 $253 $159 #
plane-surface $-1 0 0 7.0601686549161666 0 0 1 1 0 0 forward_v I I I I #
coedge $-1 $338 $162 $167 $258 forward $96 $-1 #
coedge $-1 $162 $338 $339 $340 reversed $96 $-1 #
coedge $-1 $164 $163 $162 $252 reversed $61 $-1 #
edge $-1 $341 -4.2800843274580833 $263 -1.2800843274580833 $162 $342 forward 7 unknown #
coedge $-1 $339 $343 $164 $254 forward $247 $-1 #
edge $-1 $256 -40.886257515182962 $341 40.886257515182962 $253 $344 forward 7 unknown #
coedge $-1 $171 $165 $343 $345 reversed $172 $-1 #
vertex $-1 $166 $346 #
straight-curve $-1 40.886257515182962 -11.070949095022097 2.7800843274580833 0 0 1 I I #
edge $-1 $263 3.6745123855840545 $261 11.118361033292032 $249 $347 forward 7 unknown #
coedge $-1 $348 $168 $171 $265 reversed $160 $-1 #
coedge $-1 $168 $348 $338 $349 forward $160 $-1 #
vertex $-1 $169 $350 #
straight-curve $-1 0 -18.514797742730075 4.0601686549161666 1 0 0 I I #
vertex $-1 $258 $351 #
straight-curve $-1 0 -11.070949095022097 4.0601686549161666 1 0 0 I I #
edge $-1 $352 -7.0601686549161666 $173 -4.0601686549161666 $171 $353 forward 7 unknown #
point $-1 40.886257515182962 -18.514797742730075 4.0601686549161666 #
point $-1 40.886257515182962 -11.070949095022097 4.0601686549161666 #
face $-1 $-1 $282 $23 $-1 $354 reversed single #
loop $-1 $-1 $274 $176 #
plane-surface $-1 -40.886257515182962 0 0 1 0 0 0 0 -1 forward_v I I I I #
coedge $-1 $355 $356 $179 $273 forward $177 $-1 #
coedge $-1 $180 $179 $187 $287 reversed $65 $-1 #
edge $-1 $357 -40.886257515182962 $276 40.886257515182962 $271 $358 forward 7 unknown #
coedge $-1 $359 $181 $183 $279 forward $269 $-1 #
coedge $-1 $181 $359 $355 $360 reversed $269 $-1 #
vertex $-1 $360 $361 #
vertex $-1 $279 $362 #
straight-curve $-1 -40.886257515182962 11.384374301241383 -2.6998837343056818 0 0 1 I I #
edge $-1 $277 3.9095812902485179 $283 11.040004731737213 $274 $363 forward 7 unknown #
coedge $-1 $364 $184 $188 $288 forward $282 $-1 #
coedge $-1 $184 $364 $359 $365 reversed $282 $-1 #
loop $-1 $-1 $184 $268 #
vertex $-1 $365 $366 #
straight-curve $-1 0 18.514797742730075 -3.7393662823065608 1 0 0 I I #
straight-curve $-1 0 11.384374301241383 -3.7393662823065608 1 0 0 I I #
coedge $-1 $188 $187 $356 $367 reversed $104 $-1 #
edge $-1 $190 1.0394825480008789 $357 4.3602849206104848 $187 $368 forward 7 unknown #
edge $-1 $189 3.7393662823065608 $369 7.0601686549161666 $188 $370 forward 7 unknown #
point $-1 40.886257515182962 18.514797742730078 -3.7393662823065608 #
point $-1 40.886257515182962 11.384374301241383 -3.7393662823065608 #
loop $-1 $-1 $200 $192 #
plane-surface $-1 0 0 7.0601686549161666 0 0 1 1 0 0 forward_v I I I I #
coedge $-1 $294 $195 $197 $298 reversed $112 $-1 #
coedge $-1 $195 $293 $371 $372 reversed $112 $-1 #
coedge $-1 $203 $198 $195 $296 forward $193 $-1 #
edge $-1 $299 -31.881709895455216 $373 -28.850608411267345 $295 $374 forward 7 unknown #
coedge $-1 $197 $196 $302 $375 reversed $69 $-1 #
edge $-1 $376 -5.4204934039406636 $299 0 $293 $377 forward 7 unknown #
vertex $-1 $199 $378 #
straight-curve $-1 -40.886257515182962 1.983249564307684 4.0290671707282986 0 -1 0 I I #
coedge $-1 $371 $200 $203 $306 forward $291 $-1 #
coedge $-1 $200 $371 $297 $375 forward $291 $-1 #
vertex $-1 $201 $379 #
straight-curve $-1 -43.306434106706376 7.2976384574095121 7.0601686549161684 -1 0 0 I I #
straight-curve $-1 -40.886257515182962 7.2976384574095121 4.0290671707282968 0.82903756765294845 0 0.55919291073839883 I I #
edge $-1 $204 -7.2976384574095121 $373 -0.6353597998212237 $203 $380 forward 7 unknown #
point $-1 -40.886257515182962 7.2976384574095121 7.0601686549161666 #
point $-1 -40.886257515182962 7.2976384574095121 4.0290671707282968 #
edge $-1 $381 1 $381 0 $207 $-1 forward 7 unknown #
vertex $-1 $208 $382 #
ellipse-curve $-1 -38.080168270903656 1.9678155313388821 4.7155803451692835 -0.55919291073839883 0 0.82903756765294845 0.41451878382647422 0 0.27959645536919941 1 I I #
point $-1 -38.224842397815578 1.9678155313388821 5.8242143681914307 #
edge $-1 $383 1 $383 0 $211 $-1 forward 7 unknown #
vertex $-1 $212 $384 #
ellipse-curve $-1 -38.080168270903656 3.9664991286153679 4.7155803451692835 -0.55919291073839883 0 0.82903756765294845 0.41451878382647422 0 0.27959645536919941 1 I I #
point $-1 -38.224842397815578 3.9664991286153679 5.8242143681914307 #
edge $-1 $385 1 $385 0 $215 $-1 forward 7 unknown #
vertex $-1 $216 $386 #
ellipse-curve $-1 -38.080168270903656 5.9651827258918537 4.7155803451692835 -0.55919291073839883 0 0.82903756765294845 0.41451878382647422 0 0.27959645536919941 1 I I #
point $-1 -38.224842397815578 5.9651827258918537 5.8242143681914307 #
plane-surface $-1 40.886257515182962 0 0 -1 0 0 0 0 1 forward_v I I I I #
coedge $-1 $224 $222 $226 $326 reversed $141 $-1 #
edge $-1 $237 -7.0601686549161666 $328 7.0601686549161666 $236 $387 forward 7 unknown #
vertex $-1 $326 $388 #
straight-curve $-1 -40.886257515182962 -18.514797742730075 0 0 0 -1 I I #
edge $-1 $324 -18.514797742730075 $328 18.514797742730075 $322 $389 forward 7 unknown #
straight-curve $-1 0 -18.514797742730075 -7.0601686549161666 -1 0 0 I I #
vertex $-1 $229 $390 #
straight-curve $-1 0 18.514797742730075 -7.0601686549161666 1 0 0 I I #
point $-1 40.886257515182962 18.514797742730075 -7.0601686549161666 #
point $-1 40.886257515182962 -18.514797742730075 -7.0601686549161666 #
straight-curve $-1 -40.886257515182962 0 7.0601686549161666 0 -1 0 I I #
point $-1 -40.886257515182962 18.514797742730075 7.0601686549161666 #
point $-1 -40.886257515182962 -18.514797742730075 7.0601686549161666 #
straight-curve $-1 40.886257515182962 -18.514797742730075 0 0 0 -1 I I #
straight-curve $-1 40.886257515182962 18.514797742730075 0 0 0 -1 I I #
plane-surface $-1 40.886257515182962 0 0 -1 0 0 0 0 1 forward_v I I I I #
coedge $-1 $250 $249 $260 $349 reversed $96 $-1 #
coedge $-1 $391 $253 $250 $340 forward $247 $-1 #
edge $-1 $341 11.070949095022097 $392 18.514797742730075 $250 $393 forward 7 unknown #
vertex $-1 $340 $394 #
straight-curve $-1 -40.886257515182962 -11.070949095022097 2.7800843274580833 0 0 -1 I I #
coedge $-1 $253 $391 $255 $345 forward $247 $-1 #
straight-curve $-1 0 -11.070949095022097 7.0601686549161666 -1 0 0 I I #
edge $-1 $352 -18.514797742730075 $256 -11.070949095022097 $255 $395 forward 7 unknown #
point $-1 40.886257515182962 -11.070949095022097 7.0601686549161666 #
straight-curve $-1 -40.886257515182962 -7.396436709438043 4.0601686549161666 0 -1 0 I I #
coedge $-1 $260 $259 $391 $396 reversed $160 $-1 #
edge $-1 $392 -7.0601686549161666 $261 -4.0601686549161666 $338 $397 forward 7 unknown #
point $-1 -40.886257515182962 -18.514797742730075 4.0601686549161666 #
point $-1 -40.886257515182962 -11.070949095022097 4.0601686549161666 #
vertex $-1 $345 $398 #
straight-curve $-1 40.886257515182962 -18.514797742730075 0 0 0 -1 I I #
plane-surface $-1 0 18.514797742730075 0 0 -1 0 0 0 -1 forward_v I I I I #
coedge $-1 $399 $271 $275 $360 forward $177 $-1 #
coedge $-1 $271 $399 $286 $367 forward $177 $-1 #
vertex $-1 $273 $400 #
straight-curve $-1 0 11.384374301241383 -7.0601686549161666 -1 0 0 I I #
coedge $-1 $275 $274 $281 $365 forward $269 $-1 #
edge $-1 $276 11.384374301241383 $401 18.514797742730075 $275 $402 forward 7 unknown #
point $-1 -40.886257515182962 11.384374301241383 -7.0601686549161666 #
point $-1 -40.886257515182962 11.384374301241383 -3.7393662823065608 #
straight-curve $-1 -40.886257515182962 7.4747930109928653 -3.7393662823065608 0 1 0 I I #
coedge $-1 $281 $280 $399 $403 reversed $282 $-1 #
edge $-1 $283 3.7393662823065608 $401 7.0601686549161666 $281 $404 forward 7 unknown #
point $-1 -40.886257515182962 18.514797742730078 -3.7393662823065608 #
edge $-1 $369 -18.514797742730075 $357 -11.384374301241383 $286 $405 forward 7 unknown #
straight-curve $-1 40.886257515182962 11.384374301241383 -2.6998837343056818 0 0 -1 I I #
vertex $-1 $367 $406 #
straight-curve $-1 40.886257515182962 18.514797742730075 0 0 0 -1 I I #
coedge $-1 $302 $301 $294 $372 forward $291 $-1 #
edge $-1 $373 2.4201765915234148 $376 6.9139692586052348 $371 $407 forward 7 unknown #
vertex $-1 $372 $408 #
straight-curve $-1 -40.886257515182962 0.6353597998212237 35.910777066183513 0 0 1 I I #
edge $-1 $376 -1.3478897644864603 $303 5.3143888931018282 $302 $409 forward 7 unknown #
vertex $-1 $375 $410 #
straight-curve $-1 -40.886257515182962 0.6353597998212237 4.0290671707282968 -0.82903756765294845 0 -0.55919291073839883 I I #
point $-1 -40.886257515182962 0.6353597998212237 4.0290671707282968 #
point $-1 -36.392464848101142 7.2976384574095121 7.0601686549161666 #
straight-curve $-1 -40.886257515182962 0 7.0601686549161666 0 -1 0 I I #
vertex $-1 $309 $411 #
point $-1 -37.665649487077182 1.9678155313388821 4.9951768005384825 #
vertex $-1 $313 $412 #
point $-1 -37.665649487077182 3.9664991286153679 4.9951768005384825 #
vertex $-1 $317 $413 #
point $-1 -37.665649487077182 5.9651827258918537 4.9951768005384825 #
straight-curve $-1 -40.886257515182962 18.514797742730075 0 0 0 -1 I I #
point $-1 -40.886257515182962 -18.514797742730075 -7.0601686549161666 #
straight-curve $-1 -40.886257515182962 0 -7.0601686549161666 0 1 0 I I #
point $-1 -40.886257515182962 18.514797742730075 -7.0601686549161666 #
coedge $-1 $343 $339 $348 $396 forward $247 $-1 #
vertex $-1 $340 $414 #
straight-curve $-1 -40.886257515182962 0 7.0601686549161666 0 -1 0 I I #
point $-1 -40.886257515182962 -11.070949095022097 7.0601686549161666 #
straight-curve $-1 40.886257515182962 0 7.0601686549161666 0 1 0 I I #
edge $-1 $392 -40.886257515182962 $352 40.886257515182962 $348 $415 forward 7 unknown #
straight-curve $-1 -40.886257515182962 -18.514797742730075 0 0 0 -1 I I #
point $-1 40.886257515182962 -18.514797742730075 7.0601686549161666 #
coedge $-1 $356 $355 $364 $403 forward $177 $-1 #
point $-1 40.886257515182962 11.384374301241383 -7.0601686549161666 #
vertex $-1 $403 $416 #
straight-curve $-1 -40.886257515182962 0 -7.0601686549161666 0 1 0 I I #
edge $-1 $401 -40.886257515182962 $369 40.886257515182962 $364 $417 forward 7 unknown #
straight-curve $-1 -40.886257515182962 18.514797742730075 0 0 0 -1 I I #
straight-curve $-1 40.886257515182962 0 -7.0601686549161666 0 -1 0 I I #
point $-1 40.886257515182962 18.514797742730075 -7.0601686549161666 #
straight-curve $-1 -43.306434106706376 0.6353597998212237 7.0601686549161684 1 0 0 I I #
point $-1 -40.886257515182962 0.6353597998212237 7.0601686549161666 #
straight-curve $-1 -36.392464848101142 1.983249564307684 7.0601686549161666 0 1 0 I I #
point $-1 -36.392464848101142 0.6353597998212237 7.0601686549161666 #
point $-1 -37.800571815534454 1.9678155313388821 4.3010615613428085 #
point $-1 -37.800571815534454 3.9664991286153679 4.3010615613428085 #
point $-1 -37.800571815534454 5.9651827258918537 4.3010615613428085 #
point $-1 -40.886257515182962 -18.514797742730075 7.0601686549161666 #
straight-curve $-1 0 -18.514797742730075 7.0601686549161666 1 0 0 I I #
point $-1 -40.886257515182962 18.514797742730075 -7.0601686549161666 #
straight-curve $-1 0 18.514797742730075 -7.0601686549161666 1 0 0 I I #
End-of-ACIS-data 