500 0 10 0           
7 Unknown 11 ACIS 5.0 NT 24 Fri Mar 26 18:13:38 1999 
-1 9.9999999999999995e-007 1e-010 
body $-1 $10 $-1 $11 #
body $-1 $12 $-1 $13 #
body $-1 $14 $-1 $15 #
body $-1 $16 $-1 $17 #
body $-1 $18 $-1 $19 #
body $-1 $20 $-1 $21 #
body $-1 $22 $-1 $23 #
body $-1 $24 $-1 $25 #
body $-1 $26 $-1 $27 #
body $-1 $28 $-1 $29 #
lump $-1 $-1 $30 $0 #
transform $-1 1 0 0 0 1 0 0 0 1 56.807153538621172 38.784617287939383 15.870835366179584 1 rotate no_reflect no_shear #
lump $-1 $-1 $31 $1 #
transform $-1 1 0 0 0 1 0 0 0 1 56.807153538621172 38.784617287939383 15.870835366179584 1 rotate no_reflect no_shear #
lump $-1 $-1 $32 $2 #
transform $-1 1 0 0 0 1 0 0 0 1 56.807153538621172 38.784617287939383 15.870835366179584 1 rotate no_reflect no_shear #
lump $-1 $-1 $33 $3 #
transform $-1 1 0 0 0 1 0 0 0 1 56.807153538621172 38.784617287939383 15.870835366179584 1 rotate no_reflect no_shear #
lump $-1 $-1 $34 $4 #
transform $-1 1 0 0 0 1 0 0 0 1 56.807153538621172 38.784617287939383 15.870835366179584 1 rotate no_reflect no_shear #
lump $-1 $-1 $35 $5 #
transform $-1 1 0 0 0 1 0 0 0 1 56.807153538621172 38.784617287939383 15.870835366179584 1 rotate no_reflect no_shear #
lump $-1 $-1 $36 $6 #
transform $-1 1 0 0 0 1 0 0 0 1 56.807153538621172 38.784617287939383 15.870835366179584 1 rotate no_reflect no_shear #
lump $-1 $-1 $37 $7 #
transform $-1 1 0 0 0 1 0 0 0 1 56.807153538621172 38.784617287939383 15.870835366179584 1 rotate no_reflect no_shear #
lump $-1 $-1 $38 $8 #
transform $-1 1 0 0 0 1 0 0 0 1 56.807153538621172 38.784617287939383 15.870835366179584 1 rotate no_reflect no_shear #
lump $-1 $-1 $39 $9 #
transform $-1 1 0 0 0 1 0 0 0 1 56.807153538621172 38.784617287939383 15.870835366179584 1 rotate no_reflect no_shear #
shell $-1 $-1 $-1 $40 $-1 $10 #
shell $-1 $-1 $-1 $41 $-1 $12 #
shell $-1 $-1 $-1 $42 $-1 $14 #
shell $-1 $-1 $-1 $43 $-1 $16 #
shell $-1 $-1 $-1 $44 $-1 $18 #
shell $-1 $-1 $-1 $45 $-1 $20 #
shell $-1 $-1 $-1 $46 $-1 $22 #
shell $-1 $-1 $-1 $47 $-1 $24 #
shell $-1 $-1 $-1 $48 $-1 $26 #
shell $-1 $-1 $-1 $49 $-1 $28 #
face $-1 $50 $51 $30 $-1 $52 forward single #
face $-1 $53 $54 $31 $-1 $55 forward single #
face $-1 $56 $57 $32 $-1 $58 forward single #
face $-1 $59 $60 $33 $-1 $61 reversed single #
face $-1 $62 $63 $34 $-1 $64 forward single #
face $-1 $65 $66 $35 $-1 $67 forward single #
face $-1 $68 $69 $36 $-1 $70 reversed single #
face $-1 $71 $72 $37 $-1 $73 forward single #
face $-1 $74 $75 $38 $-1 $76 reversed single #
face $-1 $77 $78 $39 $-1 $79 forward single #
face $-1 $80 $81 $30 $-1 $82 reversed single #
loop $-1 $-1 $83 $40 #
plane-surface $-1 0 0 15.870835366179584 0 0 1 1 0 0 forward_v I I I I #
face $-1 $84 $85 $31 $-1 $86 reversed single #
loop $-1 $-1 $87 $41 #
plane-surface $-1 0 -31.59371503703489 -12.055189538130342 0 0 1 1 0 0 forward_v I I I I #
face $-1 $88 $89 $32 $-1 $90 reversed single #
loop $-1 $-1 $91 $42 #
plane-surface $-1 0 31.593715037034897 -12.055189538130342 0 0 1 1 0 0 forward_v I I I I #
face $-1 $92 $93 $33 $-1 $94 reversed single #
loop $-1 $-1 $95 $43 #
plane-surface $-1 -117.01356434631739 -10.075400284778459 105.92879288609211 0 -1 0 0.52991927123019833 0 -0.84804809178421925 forward_v I I I I #
face $-1 $96 $97 $34 $-1 $98 forward single #
loop $-1 $99 $100 $44 #
cone-surface $-1 -50.836062343671209 -17.680362960095753 11.22656244927194 0.52991927123019833 0 -0.84804809178421925 1.2720721376763289 0 0.79487890684529749 1 I I 0 1 1.5 forward I I I I #
face $-1 $101 $102 $35 $-1 $103 forward single #
loop $-1 $104 $105 $45 #
cone-surface $-1 -50.836062343671209 -13.117385354905373 11.22656244927194 0.52991927123019833 0 -0.84804809178421925 1.2720721376763289 0 0.79487890684529749 1 I I 0 1 1.5 forward I I I I #
face $-1 $106 $107 $36 $-1 $108 reversed single #
loop $-1 $-1 $109 $46 #
plane-surface $-1 54.002991807702351 7.1054273576010019e-015 168.4690807596572 0 -1 0 -0.69465837861970381 0 -0.71933979245794832 forward_v I I I I #
face $-1 $110 $111 $37 $-1 $112 forward single #
loop $-1 $113 $114 $47 #
cone-surface $-1 50.987108838093796 -4.8590781883931768 10.135181515264742 -0.69465837861970381 0 -0.71933979245794832 1.0790096886869225 0 -1.0419875679295556 1 I I 0 1 1.5 forward I I I I #
face $-1 $115 $116 $38 $-1 $117 reversed single #
loop $-1 $-1 $118 $48 #
plane-surface $-1 54.002991807702351 24.402812786130404 168.4690807596572 0 -1 0 -0.69465837861970381 0 -0.71933979245794832 forward_v I I I I #
face $-1 $119 $120 $39 $-1 $121 forward single #
loop $-1 $122 $123 $49 #
cone-surface $-1 50.987108838093796 19.54373459773722 10.135181515264742 -0.69465837861970381 0 -0.71933979245794832 1.0790096886869225 0 -1.0419875679295556 1 I I 0 1 1.5 forward I I I I #
face $-1 $124 $125 $30 $-1 $126 reversed single #
loop $-1 $-1 $127 $50 #
plane-surface $-1 0 0 -15.870835366179584 0 0 1 1 0 0 forward_v I I I I #
coedge $-1 $128 $129 $130 $131 forward $51 $-1 #
face $-1 $132 $133 $31 $-1 $134 reversed single #
loop $-1 $-1 $135 $53 #
plane-surface $-1 0 -24.402812786130397 -13.963012452154963 0 -1 0 0 0 -1 forward_v I I I I #
coedge $-1 $136 $137 $138 $139 reversed $54 $-1 #
face $-1 $140 $141 $32 $-1 $142 reversed single #
loop $-1 $-1 $143 $56 #
plane-surface $-1 0 24.402812786130404 -13.963012452154963 0 1 0 0 0 1 forward_v I I I I #
coedge $-1 $144 $145 $146 $147 reversed $57 $-1 #
face $-1 $148 $149 $33 $-1 $150 reversed single #
loop $-1 $-1 $151 $59 #
plane-surface $-1 -56.807153538621158 -15.398874157500565 9.5783965698504119 -0.52991927123019833 0 0.84804809178421925 0.84804809178421925 0 0.52991927123019833 forward_v I I I I #
coedge $-1 $152 $153 $154 $155 reversed $60 $-1 #
face $-1 $-1 $156 $34 $-1 $157 forward single #
loop $-1 $158 $159 $62 #
cone-surface $-1 -49.502535141679992 -17.680362960095753 9.0924728616907053 0.52991927123019833 0 -0.84804809178421925 0.63603606883816444 0 0.39743945342264875 1 I I -0.70710678118654757 0.70710678118654757 0.75 forward I I I I #
loop $-1 $-1 $160 $44 #
coedge $-1 $100 $100 $161 $162 reversed $63 $-1 #
face $-1 $-1 $163 $35 $-1 $164 forward single #
loop $-1 $165 $166 $65 #
cone-surface $-1 -49.502535141679992 -13.117385354905373 9.0924728616907053 0.52991927123019833 0 -0.84804809178421925 0.63603606883816444 0 0.39743945342264875 1 I I -0.70710678118654757 0.70710678118654757 0.75 forward I I I I #
loop $-1 $-1 $167 $45 #
coedge $-1 $105 $105 $168 $169 reversed $66 $-1 #
face $-1 $170 $171 $36 $-1 $172 reversed single #
loop $-1 $-1 $173 $68 #
plane-surface $-1 -24.920138534575962 -4.8590781883931768 86.741788686460083 0.69465837861970381 0 0.71933979245794832 0.71933979245794832 0 -0.69465837861970381 forward_v I I I I #
coedge $-1 $174 $175 $176 $177 reversed $69 $-1 #
face $-1 $-1 $178 $37 $-1 $179 forward single #
loop $-1 $180 $181 $71 #
cone-surface $-1 48.815206958091942 -4.8590781883931768 7.8861113310053312 -0.69465837861970381 0 -0.71933979245794832 0.53950484434346124 0 -0.5209937839647778 1 I I -0.70710678118654757 0.70710678118654757 0.75 forward I I I I #
loop $-1 $-1 $182 $47 #
coedge $-1 $114 $114 $183 $184 reversed $72 $-1 #
face $-1 $185 $186 $38 $-1 $187 reversed single #
loop $-1 $-1 $188 $74 #
plane-surface $-1 -24.920138534575962 19.54373459773722 86.741788686460083 0.69465837861970381 0 0.71933979245794832 0.71933979245794832 0 -0.69465837861970381 forward_v I I I I #
coedge $-1 $189 $190 $191 $192 reversed $75 $-1 #
face $-1 $-1 $193 $39 $-1 $194 forward single #
loop $-1 $195 $196 $77 #
cone-surface $-1 48.815206958091942 19.54373459773722 7.8861113310053312 -0.69465837861970381 0 -0.71933979245794832 0.53950484434346124 0 -0.5209937839647778 1 I I -0.70710678118654757 0.70710678118654757 0.75 forward I I I I #
loop $-1 $-1 $197 $49 #
coedge $-1 $123 $123 $198 $199 reversed $78 $-1 #
face $-1 $200 $201 $30 $-1 $202 reversed single #
loop $-1 $-1 $203 $80 #
plane-surface $-1 0 -38.784617287939383 0 0 1 0 0 0 1 forward_v I I I I #
coedge $-1 $204 $205 $206 $207 forward $81 $-1 #
coedge $-1 $208 $83 $209 $210 forward $51 $-1 #
coedge $-1 $83 $208 $211 $212 forward $51 $-1 #
coedge $-1 $213 $214 $83 $131 reversed $215 $-1 #
edge $-1 $216 -38.784617287939383 $217 38.784617287939383 $130 $218 forward 7 unknown #
face $-1 $219 $220 $31 $-1 $221 reversed single #
loop $-1 $-1 $222 $84 #
plane-surface $-1 0 0 -15.870835366179584 0 0 1 1 0 0 forward_v I I I I #
coedge $-1 $223 $224 $225 $226 reversed $85 $-1 #
coedge $-1 $227 $87 $224 $228 forward $54 $-1 #
coedge $-1 $87 $227 $229 $230 reversed $54 $-1 #
coedge $-1 $231 $225 $87 $139 forward $220 $-1 #
edge $-1 $232 8.605955267612952 $233 22.987759769421938 $138 $234 forward 7 unknown #
face $-1 $235 $236 $32 $-1 $237 reversed single #
loop $-1 $-1 $146 $88 #
plane-surface $-1 56.807153538621172 0 0 -1 0 0 0 0 1 forward_v I I I I #
coedge $-1 $238 $239 $240 $241 reversed $89 $-1 #
coedge $-1 $242 $91 $243 $244 reversed $57 $-1 #
coedge $-1 $91 $242 $239 $245 forward $57 $-1 #
coedge $-1 $246 $247 $91 $147 forward $141 $-1 #
edge $-1 $248 -22.987759769421942 $249 -8.6059552676129556 $146 $250 forward 7 unknown #
face $-1 $251 $252 $33 $-1 $253 reversed single #
loop $-1 $-1 $254 $92 #
plane-surface $-1 -117.01356434631739 -20.722348030222669 105.92879288609211 0 1 0 -0.52991927123019833 0 0.84804809178421925 forward_v I I I I #
coedge $-1 $255 $256 $257 $258 reversed $93 $-1 #
coedge $-1 $153 $95 $259 $260 reversed $60 $-1 #
coedge $-1 $95 $152 $255 $261 reversed $60 $-1 #
coedge $-1 $257 $262 $95 $155 forward $252 $-1 #
edge $-1 $263 37.093561076866472 $264 43.385999873195651 $154 $265 forward 7 unknown #
loop $-1 $-1 $161 $96 #
plane-surface $-1 -56.807153538621158 -15.398874157500565 9.5783965698504119 -0.52991927123019833 0 0.84804809178421925 0.84804809178421925 0 0.52991927123019833 forward_v I I I I #
loop $-1 $-1 $266 $62 #
coedge $-1 $159 $159 $160 $267 reversed $97 $-1 #
coedge $-1 $160 $160 $159 $267 forward $99 $-1 #
coedge $-1 $161 $161 $100 $162 forward $156 $-1 #
edge $-1 $268 0 $268 6.2831853071796004 $161 $269 forward 7 unknown #
loop $-1 $-1 $168 $101 #
plane-surface $-1 -56.807153538621158 -15.398874157500565 9.5783965698504119 -0.52991927123019833 0 0.84804809178421925 0.84804809178421925 0 0.52991927123019833 forward_v I I I I #
loop $-1 $-1 $270 $65 #
coedge $-1 $166 $166 $167 $271 reversed $102 $-1 #
coedge $-1 $167 $167 $166 $271 forward $104 $-1 #
coedge $-1 $168 $168 $105 $169 forward $163 $-1 #
edge $-1 $272 0 $272 6.2831853071796004 $168 $273 forward 7 unknown #
face $-1 $274 $275 $36 $-1 $276 forward single #
loop $-1 $-1 $277 $106 #
plane-surface $-1 54.002991807702351 -9.7181563767863608 168.4690807596572 0 1 0 0.69465837861970381 0 0.71933979245794832 forward_v I I I I #
coedge $-1 $278 $279 $280 $281 reversed $107 $-1 #
coedge $-1 $175 $109 $282 $283 reversed $69 $-1 #
coedge $-1 $109 $174 $278 $284 reversed $69 $-1 #
coedge $-1 $280 $285 $109 $177 forward $275 $-1 #
edge $-1 $286 -29.805657634769997 $287 -21.467384425789415 $176 $288 forward 7 unknown #
loop $-1 $-1 $183 $110 #
plane-surface $-1 -24.920138534575962 -4.8590781883931768 86.741788686460083 0.69465837861970381 0 0.71933979245794832 0.71933979245794832 0 -0.69465837861970381 forward_v I I I I #
loop $-1 $-1 $289 $71 #
coedge $-1 $181 $181 $182 $290 reversed $111 $-1 #
coedge $-1 $182 $182 $181 $290 forward $113 $-1 #
coedge $-1 $183 $183 $114 $184 forward $178 $-1 #
edge $-1 $291 0 $291 6.2831853071796004 $183 $292 forward 7 unknown #
face $-1 $293 $294 $38 $-1 $295 reversed single #
loop $-1 $-1 $296 $115 #
plane-surface $-1 54.002991807702351 14.684656409344036 168.4690807596572 0 1 0 0.69465837861970381 0 0.71933979245794832 forward_v I I I I #
coedge $-1 $297 $298 $299 $300 reversed $116 $-1 #
coedge $-1 $190 $118 $301 $302 reversed $75 $-1 #
coedge $-1 $118 $189 $297 $303 reversed $75 $-1 #
coedge $-1 $299 $304 $118 $192 forward $305 $-1 #
edge $-1 $306 -29.805657634769997 $307 -21.467384425789415 $191 $308 forward 7 unknown #
loop $-1 $-1 $198 $119 #
plane-surface $-1 -24.920138534575962 19.54373459773722 86.741788686460083 0.69465837861970381 0 0.71933979245794832 0.71933979245794832 0 -0.69465837861970381 forward_v I I I I #
loop $-1 $-1 $309 $77 #
coedge $-1 $196 $196 $197 $310 reversed $120 $-1 #
coedge $-1 $197 $197 $196 $310 forward $122 $-1 #
coedge $-1 $198 $198 $123 $199 forward $193 $-1 #
edge $-1 $311 0 $311 6.2831853071796004 $198 $312 forward 7 unknown #
face $-1 $313 $314 $30 $-1 $315 reversed single #
loop $-1 $-1 $316 $124 #
plane-surface $-1 -56.807153538621172 0 0 1 0 0 0 0 -1 forward_v I I I I #
coedge $-1 $317 $211 $318 $319 forward $125 $-1 #
coedge $-1 $320 $127 $317 $321 forward $81 $-1 #
coedge $-1 $127 $320 $322 $323 forward $81 $-1 #
coedge $-1 $214 $213 $127 $207 reversed $215 $-1 #
edge $-1 $324 -38.784617287939383 $325 38.784617287939383 $206 $326 forward 7 unknown #
coedge $-1 $129 $128 $327 $328 forward $51 $-1 #
coedge $-1 $329 $330 $128 $210 reversed $314 $-1 #
edge $-1 $217 -56.807153538621172 $331 56.807153538621172 $209 $332 forward 7 unknown #
coedge $-1 $203 $333 $129 $212 reversed $125 $-1 #
edge $-1 $334 -56.807153538621172 $216 56.807153538621172 $211 $335 forward 7 unknown #
coedge $-1 $206 $130 $333 $336 forward $215 $-1 #
coedge $-1 $130 $206 $329 $337 reversed $215 $-1 #
loop $-1 $-1 $213 $313 #
vertex $-1 $131 $338 #
vertex $-1 $131 $339 #
straight-curve $-1 56.807153538621172 0 15.870835366179584 0 1 0 I I #
face $-1 $340 $341 $31 $-1 $342 reversed single #
loop $-1 $-1 $225 $132 #
plane-surface $-1 56.807153538621172 0 0 -1 0 0 0 0 1 forward_v I I I I #
coedge $-1 $343 $344 $223 $345 forward $133 $-1 #
coedge $-1 $346 $135 $222 $345 reversed $85 $-1 #
coedge $-1 $135 $346 $136 $228 reversed $85 $-1 #
coedge $-1 $138 $347 $135 $226 forward $220 $-1 #
edge $-1 $348 -8.8893291401021024 $232 -5.0736833120528608 $225 $349 forward 7 unknown #
coedge $-1 $137 $136 $350 $351 reversed $54 $-1 #
edge $-1 $232 -56.807153538621172 $352 56.807153538621172 $224 $353 forward 7 unknown #
coedge $-1 $354 $355 $137 $230 forward $341 $-1 #
edge $-1 $233 -56.807153538621172 $356 56.807153538621172 $229 $357 forward 7 unknown #
coedge $-1 $347 $138 $355 $358 forward $220 $-1 #
vertex $-1 $139 $359 #
vertex $-1 $358 $360 #
straight-curve $-1 56.807153538621172 -15.796857518517445 -12.055189538130342 0 -1 0 I I #
face $-1 $361 $362 $32 $-1 $363 reversed single #
loop $-1 $-1 $364 $140 #
plane-surface $-1 0 0 -15.870835366179584 0 0 1 1 0 0 forward_v I I I I #
coedge $-1 $365 $143 $364 $366 reversed $89 $-1 #
coedge $-1 $143 $365 $145 $245 reversed $89 $-1 #
coedge $-1 $367 $368 $143 $241 forward $362 $-1 #
edge $-1 $369 -8.8893291401021024 $370 -5.0736833120528608 $240 $371 forward 7 unknown #
coedge $-1 $145 $144 $367 $372 reversed $57 $-1 #
coedge $-1 $373 $374 $144 $244 forward $375 $-1 #
edge $-1 $376 -56.807153538621172 $248 56.807153538621172 $243 $377 forward 7 unknown #
edge $-1 $370 -56.807153538621172 $249 56.807153538621172 $239 $378 forward 7 unknown #
coedge $-1 $379 $146 $365 $380 forward $141 $-1 #
coedge $-1 $146 $379 $373 $381 reversed $141 $-1 #
vertex $-1 $381 $382 #
vertex $-1 $147 $383 #
straight-curve $-1 56.807153538621172 15.796857518517449 -12.055189538130342 0 -1 0 I I #
face $-1 $-1 $384 $33 $-1 $385 forward single #
loop $-1 $-1 $154 $148 #
plane-surface $-1 -56.807153538621172 0 0 1 0 0 0 0 -1 forward_v I I I I #
coedge $-1 $386 $387 $388 $389 reversed $149 $-1 #
coedge $-1 $390 $151 $153 $261 forward $93 $-1 #
coedge $-1 $151 $390 $386 $391 forward $93 $-1 #
coedge $-1 $388 $154 $151 $258 forward $252 $-1 #
edge $-1 $264 2.3759632060281763 $392 13.022910951472387 $257 $393 forward 7 unknown #
coedge $-1 $394 $395 $152 $260 forward $384 $-1 #
edge $-1 $396 -11.769635527300352 $263 -1.6996286345375253 $259 $397 forward 7 unknown #
edge $-1 $264 -1.675811683274863e-014 $396 11.874334710872819 $153 $398 forward 7 unknown #
coedge $-1 $154 $388 $394 $399 reversed $252 $-1 #
vertex $-1 $399 $400 #
vertex $-1 $155 $401 #
straight-curve $-1 -56.807153538621172 -10.075400284778459 52.964396443046056 0 0 -1 I I #
coedge $-1 $266 $266 $-1 $402 reversed $158 $-1 #
edge $-1 $403 0 $403 6.2831853071796004 $159 $404 forward 7 unknown #
vertex $-1 $162 $405 #
ellipse-curve $-1 -51.772150092239769 -17.680362960095753 12.724615968014989 -0.52991927123019833 0 0.84804809178421925 1.2720721376763289 0 0.79487890684529749 1 I I #
coedge $-1 $270 $270 $-1 $406 reversed $165 $-1 #
edge $-1 $407 0 $407 6.2831853071796004 $166 $408 forward 7 unknown #
vertex $-1 $169 $409 #
ellipse-curve $-1 -51.772150092239769 -13.117385354905373 12.724615968014989 -0.52991927123019833 0 0.84804809178421925 1.2720721376763289 0 0.79487890684529749 1 I I #
face $-1 $-1 $410 $36 $-1 $411 reversed single #
loop $-1 $-1 $176 $170 #
plane-surface $-1 0 0 15.870835366179584 0 0 1 1 0 0 forward_v I I I I #
coedge $-1 $412 $413 $414 $415 reversed $171 $-1 #
coedge $-1 $416 $173 $175 $284 forward $107 $-1 #
coedge $-1 $173 $416 $412 $417 forward $107 $-1 #
coedge $-1 $414 $176 $173 $281 forward $275 $-1 #
edge $-1 $287 -2.4295390941965955 $418 7.2886172825897724 $280 $419 forward 7 unknown #
coedge $-1 $420 $421 $174 $283 forward $410 $-1 #
edge $-1 $422 -76.415882035646845 $286 -68.363705013649025 $282 $423 forward 7 unknown #
edge $-1 $287 102.02274312317675 $422 113.61430707724236 $175 $424 forward 7 unknown #
coedge $-1 $176 $414 $420 $425 forward $275 $-1 #
vertex $-1 $177 $426 #
vertex $-1 $177 $427 #
straight-curve $-1 27.001495903851175 7.1054273576010019e-015 15.870835366179591 -1 0 0 I I #
coedge $-1 $289 $289 $-1 $428 reversed $180 $-1 #
edge $-1 $429 0 $429 6.2831853071796004 $181 $430 forward 7 unknown #
vertex $-1 $184 $431 #
ellipse-curve $-1 52.638016934130867 -4.8590781883931768 11.844746855180684 0.69465837861970381 0 0.71933979245794832 1.0790096886869225 0 -1.0419875679295556 1 I I #
face $-1 $-1 $305 $38 $-1 $432 forward single #
loop $-1 $-1 $433 $185 #
plane-surface $-1 56.807153538621172 0 0 -1 0 0 0 0 1 forward_v I I I I #
coedge $-1 $434 $435 $436 $437 reversed $186 $-1 #
coedge $-1 $438 $188 $190 $303 forward $116 $-1 #
coedge $-1 $188 $438 $434 $439 forward $116 $-1 #
coedge $-1 $436 $191 $188 $300 forward $305 $-1 #
edge $-1 $307 -14.630945487261794 $440 -4.9127891104754262 $299 $441 forward 7 unknown #
coedge $-1 $442 $443 $189 $302 forward $294 $-1 #
edge $-1 $444 -76.415882035646845 $306 -68.363705013649025 $301 $445 forward 7 unknown #
edge $-1 $307 102.02274312317675 $444 113.61430707724236 $190 $446 forward 7 unknown #
coedge $-1 $191 $436 $442 $447 forward $305 $-1 #
loop $-1 $-1 $436 $293 #
vertex $-1 $302 $448 #
vertex $-1 $192 $449 #
straight-curve $-1 27.001495903851175 24.402812786130404 15.870835366179591 -1 0 0 I I #
coedge $-1 $309 $309 $-1 $450 reversed $195 $-1 #
edge $-1 $451 0 $451 6.2831853071796004 $196 $452 forward 7 unknown #
vertex $-1 $199 $453 #
ellipse-curve $-1 52.638016934130867 19.54373459773722 11.844746855180684 0.69465837861970381 0 0.71933979245794832 1.0790096886869225 0 -1.0419875679295556 1 I I #
face $-1 $-1 $215 $30 $-1 $454 reversed single #
loop $-1 $-1 $329 $200 #
plane-surface $-1 0 38.784617287939383 0 0 -1 0 0 0 -1 forward_v I I I I #
coedge $-1 $455 $327 $330 $456 forward $201 $-1 #
coedge $-1 $333 $203 $204 $321 reversed $125 $-1 #
coedge $-1 $327 $455 $203 $319 reversed $201 $-1 #
edge $-1 $334 -15.870835366179584 $457 15.870835366179584 $318 $458 forward 7 unknown #
coedge $-1 $205 $204 $455 $459 forward $81 $-1 #
edge $-1 $325 -56.807153538621172 $457 56.807153538621172 $317 $460 forward 7 unknown #
coedge $-1 $330 $329 $205 $323 reversed $314 $-1 #
edge $-1 $461 -56.807153538621172 $324 56.807153538621172 $322 $462 forward 7 unknown #
vertex $-1 $207 $463 #
vertex $-1 $336 $464 #
straight-curve $-1 56.807153538621172 0 -15.870835366179584 0 -1 0 I I #
coedge $-1 $316 $318 $208 $328 reversed $201 $-1 #
edge $-1 $331 -38.784617287939383 $334 38.784617287939383 $327 $465 forward 7 unknown #
coedge $-1 $322 $209 $214 $337 forward $314 $-1 #
coedge $-1 $209 $322 $316 $456 reversed $314 $-1 #
vertex $-1 $210 $466 #
straight-curve $-1 0 38.784617287939383 15.870835366179584 -1 0 0 I I #
coedge $-1 $211 $317 $213 $336 reversed $125 $-1 #
vertex $-1 $328 $467 #
straight-curve $-1 0 -38.784617287939383 15.870835366179584 1 0 0 I I #
edge $-1 $216 -15.870835366179584 $325 15.870835366179584 $213 $468 forward 7 unknown #
edge $-1 $217 -15.870835366179584 $324 15.870835366179584 $214 $469 forward 7 unknown #
point $-1 56.807153538621172 -38.784617287939383 15.870835366179584 #
point $-1 56.807153538621172 38.784617287939383 15.870835366179584 #
face $-1 $-1 $470 $31 $-1 $471 reversed single #
loop $-1 $-1 $229 $219 #
plane-surface $-1 0 -38.784617287939383 0 0 1 0 0 0 1 forward_v I I I I #
coedge $-1 $472 $222 $347 $473 forward $133 $-1 #
coedge $-1 $222 $472 $474 $475 forward $133 $-1 #
edge $-1 $476 -56.807153538621172 $348 56.807153538621172 $222 $477 forward 7 unknown #
coedge $-1 $224 $223 $478 $479 reversed $85 $-1 #
coedge $-1 $225 $231 $343 $473 reversed $220 $-1 #
vertex $-1 $473 $480 #
straight-curve $-1 56.807153538621172 -24.402812786130397 -6.9815062260774816 0 0 1 I I #
coedge $-1 $478 $481 $227 $351 forward $470 $-1 #
edge $-1 $356 -22.987759769421938 $352 -8.605955267612952 $350 $482 forward 7 unknown #
vertex $-1 $351 $483 #
straight-curve $-1 0 -24.402812786130397 -12.055189538130342 -1 0 0 I I #
coedge $-1 $484 $229 $481 $485 forward $341 $-1 #
coedge $-1 $229 $484 $231 $358 reversed $341 $-1 #
vertex $-1 $485 $486 #
straight-curve $-1 0 -38.784617287939383 -12.055189538130342 -1 0 0 I I #
edge $-1 $233 12.055189538130342 $487 15.870835366179584 $231 $488 forward 7 unknown #
point $-1 56.807153538621172 -24.402812786130397 -12.055189538130342 #
point $-1 56.807153538621172 -38.784617287939383 -12.055189538130342 #
face $-1 $-1 $375 $32 $-1 $489 reversed single #
loop $-1 $-1 $367 $235 #
plane-surface $-1 -56.807153538621172 0 0 1 0 0 0 0 -1 forward_v I I I I #
coedge $-1 $490 $491 $238 $366 forward $236 $-1 #
coedge $-1 $239 $238 $246 $380 reversed $89 $-1 #
edge $-1 $492 -56.807153538621172 $369 56.807153538621172 $364 $493 forward 7 unknown #
coedge $-1 $494 $240 $242 $372 forward $362 $-1 #
coedge $-1 $240 $494 $490 $495 reversed $362 $-1 #
vertex $-1 $495 $496 #
vertex $-1 $372 $497 #
straight-curve $-1 -56.807153538621172 24.402812786130404 -6.9815062260774816 0 0 1 I I #
edge $-1 $370 8.6059552676129556 $376 22.987759769421942 $367 $498 forward 7 unknown #
coedge $-1 $499 $243 $247 $381 forward $375 $-1 #
coedge $-1 $243 $499 $494 $500 reversed $375 $-1 #
loop $-1 $-1 $243 $361 #
vertex $-1 $500 $501 #
straight-curve $-1 0 38.784617287939383 -12.055189538130342 1 0 0 I I #
straight-curve $-1 0 24.402812786130404 -12.055189538130342 1 0 0 I I #
coedge $-1 $247 $246 $491 $502 reversed $141 $-1 #
edge $-1 $249 5.0736833120528608 $492 8.8893291401021024 $246 $503 forward 7 unknown #
edge $-1 $248 12.055189538130342 $504 15.870835366179584 $247 $505 forward 7 unknown #
point $-1 56.807153538621172 38.78461728793939 -12.055189538130342 #
point $-1 56.807153538621172 24.402812786130404 -12.055189538130342 #
loop $-1 $-1 $259 $251 #
plane-surface $-1 0 0 15.870835366179584 0 0 1 1 0 0 forward_v I I I I #
coedge $-1 $387 $254 $256 $391 reversed $149 $-1 #
coedge $-1 $254 $386 $506 $507 reversed $149 $-1 #
coedge $-1 $262 $257 $254 $389 forward $252 $-1 #
edge $-1 $392 -43.385999873195651 $508 -37.093561076866472 $388 $509 forward 7 unknown #
coedge $-1 $256 $255 $395 $510 reversed $93 $-1 #
edge $-1 $511 -11.874334710872819 $392 1.675811683274863e-014 $386 $512 forward 7 unknown #
vertex $-1 $258 $513 #
straight-curve $-1 -56.807153538621172 -7.6994370787502824 9.5783965698504048 0 -1 0 I I #
coedge $-1 $506 $259 $262 $399 forward $384 $-1 #
coedge $-1 $259 $506 $390 $510 forward $384 $-1 #
vertex $-1 $260 $514 #
straight-curve $-1 -58.506782173158697 -10.075400284778459 15.870835366179584 -1 0 0 I I #
straight-curve $-1 -56.807153538621158 -10.075400284778459 9.5783965698504119 0.84804809178421925 0 0.52991927123019833 I I #
edge $-1 $263 10.075400284778459 $508 20.722348030222669 $262 $515 forward 7 unknown #
point $-1 -56.807153538621172 -10.075400284778459 15.870835366179584 #
point $-1 -56.807153538621172 -10.075400284778459 9.578396569850403 #
edge $-1 $516 1 $516 0 $266 $-1 forward 7 unknown #
vertex $-1 $267 $517 #
ellipse-curve $-1 -49.899974595102641 -17.680362960095753 9.7285089305288697 -0.52991927123019833 0 0.84804809178421925 1.2720721376763289 0 0.79487890684529749 1 I I #
point $-1 -50.500077954563451 -17.680362960095753 13.519494874860307 #
edge $-1 $518 1 $518 0 $270 $-1 forward 7 unknown #
vertex $-1 $271 $519 #
ellipse-curve $-1 -49.899974595102641 -13.117385354905373 9.7285089305288697 -0.52991927123019833 0 0.84804809178421925 1.2720721376763289 0 0.79487890684529749 1 I I #
point $-1 -50.500077954563451 -13.117385354905373 13.519494874860307 #
loop $-1 $-1 $282 $274 #
plane-surface $-1 56.807153538621172 0 0 -1 0 0 0 0 1 forward_v I I I I #
coedge $-1 $413 $277 $279 $417 reversed $171 $-1 #
coedge $-1 $277 $412 $520 $521 reversed $171 $-1 #
coedge $-1 $285 $280 $277 $415 forward $275 $-1 #
edge $-1 $418 21.467384425789415 $522 29.805657634769997 $414 $523 forward 7 unknown #
coedge $-1 $279 $278 $421 $524 reversed $107 $-1 #
edge $-1 $525 -113.61430707724236 $418 -102.02274312317675 $412 $526 forward 7 unknown #
vertex $-1 $281 $527 #
straight-curve $-1 48.468880329640577 -2.4295390941965884 15.870835366179584 0 -1 0 I I #
coedge $-1 $520 $282 $285 $425 reversed $410 $-1 #
coedge $-1 $282 $520 $416 $524 forward $410 $-1 #
vertex $-1 $283 $528 #
straight-curve $-1 56.807153538621172 7.1054273576010019e-015 84.234540379828601 0 0 1 I I #
straight-curve $-1 -24.920138534575962 7.1054273576010019e-015 86.741788686460083 0.71933979245794832 0 -0.69465837861970381 I I #
edge $-1 $522 -9.7181563767863608 $286 7.1054273576010019e-015 $420 $529 forward 7 unknown #
point $-1 56.807153538621172 7.1054273576010019e-015 15.870835366179584 #
point $-1 48.468880329640591 7.1054273576010019e-015 15.870835366179577 #
edge $-1 $530 1 $530 0 $289 $-1 forward 7 unknown #
vertex $-1 $290 $531 #
ellipse-curve $-1 49.336200742056718 -4.8590781883931768 8.425616175348793 0.69465837861970381 0 0.71933979245794832 1.0790096886869225 0 -1.0419875679295556 1 I I #
point $-1 53.717026622817791 -4.8590781883931768 10.802759287251137 #
plane-surface $-1 0 0 15.870835366179584 0 0 1 1 0 0 forward_v I I I I #
coedge $-1 $443 $442 $435 $532 forward $294 $-1 #
coedge $-1 $435 $296 $298 $439 reversed $186 $-1 #
coedge $-1 $296 $434 $433 $532 reversed $186 $-1 #
coedge $-1 $304 $299 $296 $437 forward $305 $-1 #
edge $-1 $440 21.467384425789415 $533 29.805657634769997 $436 $534 forward 7 unknown #
coedge $-1 $298 $297 $443 $535 reversed $116 $-1 #
edge $-1 $536 -113.61430707724236 $440 -102.02274312317675 $434 $537 forward 7 unknown #
vertex $-1 $300 $538 #
straight-curve $-1 48.468880329640577 9.7718672988686102 15.870835366179584 0 -1 0 I I #
coedge $-1 $433 $301 $304 $447 reversed $294 $-1 #
coedge $-1 $301 $433 $438 $535 forward $294 $-1 #
vertex $-1 $302 $539 #
straight-curve $-1 56.807153538621172 24.402812786130404 84.234540379828601 0 0 1 I I #
straight-curve $-1 -24.920138534575962 24.402812786130404 86.741788686460083 0.71933979245794832 0 -0.69465837861970381 I I #
edge $-1 $533 14.684656409344036 $306 24.402812786130404 $442 $540 forward 7 unknown #
point $-1 56.807153538621172 24.402812786130404 15.870835366179584 #
point $-1 48.468880329640591 24.402812786130404 15.870835366179577 #
edge $-1 $541 1 $541 0 $309 $-1 forward 7 unknown #
vertex $-1 $310 $542 #
ellipse-curve $-1 49.336200742056718 19.54373459773722 8.425616175348793 0.69465837861970381 0 0.71933979245794832 1.0790096886869225 0 -1.0419875679295556 1 I I #
point $-1 53.717026622817791 19.54373459773722 10.802759287251137 #
plane-surface $-1 56.807153538621172 0 0 -1 0 0 0 0 1 forward_v I I I I #
coedge $-1 $318 $316 $320 $459 reversed $201 $-1 #
edge $-1 $331 -15.870835366179584 $461 15.870835366179584 $330 $543 forward 7 unknown #
vertex $-1 $459 $544 #
straight-curve $-1 -56.807153538621172 -38.784617287939383 0 0 0 -1 I I #
edge $-1 $457 -38.784617287939383 $461 38.784617287939383 $455 $545 forward 7 unknown #
straight-curve $-1 0 -38.784617287939383 -15.870835366179584 -1 0 0 I I #
vertex $-1 $323 $546 #
straight-curve $-1 0 38.784617287939383 -15.870835366179584 1 0 0 I I #
point $-1 56.807153538621172 38.784617287939383 -15.870835366179584 #
point $-1 56.807153538621172 -38.784617287939383 -15.870835366179584 #
straight-curve $-1 -56.807153538621172 0 15.870835366179584 0 -1 0 I I #
point $-1 -56.807153538621172 38.784617287939383 15.870835366179584 #
point $-1 -56.807153538621172 -38.784617287939383 15.870835366179584 #
straight-curve $-1 56.807153538621172 -38.784617287939383 0 0 0 -1 I I #
straight-curve $-1 56.807153538621172 38.784617287939383 0 0 0 -1 I I #
loop $-1 $-1 $478 $340 #
plane-surface $-1 -56.807153538621172 0 0 1 0 0 0 0 -1 forward_v I I I I #
coedge $-1 $344 $343 $484 $547 forward $133 $-1 #
edge $-1 $348 24.402812786130397 $487 38.784617287939383 $347 $548 forward 7 unknown #
coedge $-1 $481 $478 $344 $475 reversed $470 $-1 #
edge $-1 $549 -38.784617287939383 $476 -24.402812786130397 $474 $550 forward 7 unknown #
vertex $-1 $479 $551 #
straight-curve $-1 0 -24.402812786130397 -15.870835366179584 1 0 0 I I #
coedge $-1 $474 $350 $346 $479 forward $470 $-1 #
edge $-1 $352 5.0736833120528608 $476 8.8893291401021024 $478 $552 forward 7 unknown #
point $-1 56.807153538621172 -24.402812786130397 -15.870835366179584 #
coedge $-1 $350 $474 $354 $485 reversed $470 $-1 #
straight-curve $-1 -56.807153538621172 -15.796857518517445 -12.055189538130342 0 1 0 I I #
point $-1 -56.807153538621172 -24.402812786130397 -12.055189538130342 #
coedge $-1 $355 $354 $472 $547 reversed $341 $-1 #
edge $-1 $356 12.055189538130342 $549 15.870835366179584 $481 $553 forward 7 unknown #
point $-1 -56.807153538621172 -38.784617287939383 -12.055189538130342 #
vertex $-1 $358 $554 #
straight-curve $-1 56.807153538621172 -38.784617287939383 0 0 0 -1 I I #
plane-surface $-1 0 38.784617287939383 0 0 -1 0 0 0 -1 forward_v I I I I #
coedge $-1 $555 $364 $368 $495 forward $236 $-1 #
coedge $-1 $364 $555 $379 $502 forward $236 $-1 #
vertex $-1 $366 $556 #
straight-curve $-1 0 24.402812786130404 -15.870835366179584 -1 0 0 I I #
coedge $-1 $368 $367 $374 $500 forward $362 $-1 #
edge $-1 $369 24.402812786130404 $557 38.784617287939383 $368 $558 forward 7 unknown #
point $-1 -56.807153538621172 24.402812786130404 -15.870835366179584 #
point $-1 -56.807153538621172 24.402812786130404 -12.055189538130342 #
straight-curve $-1 -56.807153538621172 15.796857518517449 -12.055189538130342 0 1 0 I I #
coedge $-1 $374 $373 $555 $559 reversed $375 $-1 #
edge $-1 $376 12.055189538130342 $557 15.870835366179584 $374 $560 forward 7 unknown #
point $-1 -56.807153538621172 38.78461728793939 -12.055189538130342 #
edge $-1 $504 -38.784617287939383 $492 -24.402812786130404 $379 $561 forward 7 unknown #
straight-curve $-1 56.807153538621172 24.402812786130404 -6.9815062260774816 0 0 -1 I I #
vertex $-1 $502 $562 #
straight-curve $-1 56.807153538621172 38.784617287939383 0 0 0 -1 I I #
coedge $-1 $395 $394 $387 $507 forward $384 $-1 #
edge $-1 $508 1.6996286345375253 $511 11.769635527300352 $506 $563 forward 7 unknown #
vertex $-1 $507 $564 #
straight-curve $-1 -56.807153538621172 -20.722348030222669 52.964396443046056 0 0 1 I I #
edge $-1 $511 -13.022910951472387 $396 -2.3759632060281763 $395 $565 forward 7 unknown #
vertex $-1 $510 $566 #
straight-curve $-1 -56.807153538621158 -20.722348030222669 9.5783965698504119 -0.84804809178421925 0 -0.52991927123019833 I I #
point $-1 -56.807153538621172 -20.722348030222669 9.578396569850403 #
point $-1 -46.737146645858346 -10.075400284778459 15.870835366179584 #
straight-curve $-1 -56.807153538621172 0 15.870835366179584 0 -1 0 I I #
vertex $-1 $402 $567 #
point $-1 -48.627902457426309 -17.680362960095753 10.523387837374168 #
vertex $-1 $406 $568 #
point $-1 -48.627902457426309 -13.117385354905373 10.523387837374168 #
coedge $-1 $421 $420 $413 $521 forward $410 $-1 #
edge $-1 $522 68.363705013649025 $525 76.415882035646845 $520 $569 forward 7 unknown #
vertex $-1 $425 $570 #
straight-curve $-1 27.001495903851175 -9.7181563767863608 15.870835366179591 1 0 0 I I #
edge $-1 $525 -7.2886172825897724 $422 2.4295390941965955 $421 $571 forward 7 unknown #
vertex $-1 $524 $572 #
straight-curve $-1 -24.920138534575962 -9.7181563767863608 86.741788686460083 -0.71933979245794832 0 0.69465837861970381 I I #
point $-1 48.468880329640591 -9.7181563767863608 15.870835366179577 #
point $-1 56.807153538621172 7.1054273576010019e-015 7.8186583441817561 #
straight-curve $-1 56.807153538621172 0 15.870835366179584 0 1 0 I I #
vertex $-1 $428 $573 #
point $-1 50.415210430743642 -4.8590781883931768 7.3836286074192365 #
edge $-1 $533 68.363705013649025 $536 76.415882035646845 $433 $574 forward 7 unknown #
vertex $-1 $447 $575 #
straight-curve $-1 27.001495903851175 14.684656409344036 15.870835366179591 1 0 0 I I #
edge $-1 $536 4.9127891104754262 $444 14.630945487261794 $443 $576 forward 7 unknown #
vertex $-1 $535 $577 #
straight-curve $-1 -24.920138534575962 14.684656409344036 86.741788686460083 -0.71933979245794832 0 0.69465837861970381 I I #
point $-1 48.468880329640591 14.684656409344036 15.870835366179577 #
point $-1 56.807153538621172 24.402812786130404 7.8186583441817561 #
straight-curve $-1 56.807153538621172 0 15.870835366179584 0 1 0 I I #
vertex $-1 $450 $578 #
point $-1 50.415210430743642 19.54373459773722 7.3836286074192365 #
straight-curve $-1 -56.807153538621172 38.784617287939383 0 0 0 -1 I I #
point $-1 -56.807153538621172 -38.784617287939383 -15.870835366179584 #
straight-curve $-1 -56.807153538621172 0 -15.870835366179584 0 1 0 I I #
point $-1 -56.807153538621172 38.784617287939383 -15.870835366179584 #
edge $-1 $487 -56.807153538621172 $549 56.807153538621172 $484 $579 forward 7 unknown #
straight-curve $-1 56.807153538621172 0 -15.870835366179584 0 -1 0 I I #
vertex $-1 $475 $580 #
straight-curve $-1 -56.807153538621172 0 -15.870835366179584 0 1 0 I I #
point $-1 -56.807153538621172 -24.402812786130397 -15.870835366179584 #
straight-curve $-1 -56.807153538621172 -24.402812786130397 -6.9815062260774816 0 0 -1 I I #
straight-curve $-1 -56.807153538621172 -38.784617287939383 0 0 0 -1 I I #
point $-1 56.807153538621172 -38.784617287939383 -15.870835366179584 #
coedge $-1 $491 $490 $499 $559 forward $236 $-1 #
point $-1 56.807153538621172 24.402812786130404 -15.870835366179584 #
vertex $-1 $559 $581 #
straight-curve $-1 -56.807153538621172 0 -15.870835366179584 0 1 0 I I #
edge $-1 $557 -56.807153538621172 $504 56.807153538621172 $499 $582 forward 7 unknown #
straight-curve $-1 -56.807153538621172 38.784617287939383 0 0 0 -1 I I #
straight-curve $-1 56.807153538621172 0 -15.870835366179584 0 -1 0 I I #
point $-1 56.807153538621172 38.784617287939383 -15.870835366179584 #
straight-curve $-1 -58.506782173158697 -20.722348030222669 15.870835366179584 1 0 0 I I #
point $-1 -56.807153538621172 -20.722348030222669 15.870835366179584 #
straight-curve $-1 -46.737146645858346 -7.6994370787502824 15.870835366179584 0 1 0 I I #
point $-1 -46.737146645858346 -20.722348030222669 15.870835366179584 #
point $-1 -49.105095688257343 -17.680362960095753 8.456436792852541 #
point $-1 -49.105095688257343 -13.117385354905373 8.456436792852541 #
straight-curve $-1 56.807153538621172 -9.7181563767863608 84.234540379828601 0 0 -1 I I #
point $-1 56.807153538621172 -9.7181563767863608 15.870835366179584 #
straight-curve $-1 56.807153538621172 -2.4295390941965884 7.8186583441817632 0 1 0 I I #
point $-1 56.807153538621172 -9.7181563767863608 7.8186583441817561 #
point $-1 48.294213174127165 -4.8590781883931768 7.3466064866618703 #
straight-curve $-1 56.807153538621172 14.684656409344036 84.234540379828601 0 0 -1 I I #
point $-1 56.807153538621172 14.684656409344036 15.870835366179584 #
straight-curve $-1 56.807153538621172 9.7718672988686102 7.8186583441817632 0 1 0 I I #
point $-1 56.807153538621172 14.684656409344036 7.8186583441817561 #
point $-1 48.294213174127165 19.54373459773722 7.3466064866618703 #
straight-curve $-1 0 -38.784617287939383 -15.870835366179584 -1 0 0 I I #
point $-1 -56.807153538621172 -38.784617287939383 -15.870835366179584 #
point $-1 -56.807153538621172 38.784617287939383 -15.870835366179584 #
straight-curve $-1 0 38.784617287939383 -15.870835366179584 1 0 0 I I #
End-of-ACIS-data 