500 0 8 0           
7 Unknown 11 ACIS 5.0 NT 24 Fri Mar 26 17:46:36 1999 
-1 9.9999999999999995e-007 1e-010 
body $-1 $8 $-1 $9 #
body $-1 $10 $-1 $11 #
body $-1 $12 $-1 $13 #
body $-1 $14 $-1 $15 #
body $-1 $16 $-1 $17 #
body $-1 $18 $-1 $19 #
body $-1 $20 $-1 $21 #
body $-1 $22 $-1 $23 #
lump $-1 $-1 $24 $0 #
transform $-1 1 0 0 0 1 0 0 0 1 54.541459395123141 36.933624685829301 10.453048756719987 1 rotate no_reflect no_shear #
lump $-1 $-1 $25 $1 #
transform $-1 1 0 0 0 1 0 0 0 1 54.541459395123141 36.933624685829301 10.453048756719987 1 rotate no_reflect no_shear #
lump $-1 $-1 $26 $2 #
transform $-1 1 0 0 0 1 0 0 0 1 54.541459395123141 36.933624685829301 10.453048756719987 1 rotate no_reflect no_shear #
lump $-1 $-1 $27 $3 #
transform $-1 1 0 0 0 1 0 0 0 1 54.541459395123141 36.933624685829301 10.453048756719987 1 rotate no_reflect no_shear #
lump $-1 $-1 $28 $4 #
transform $-1 1 0 0 0 1 0 0 0 1 54.541459395123141 36.933624685829301 10.453048756719987 1 rotate no_reflect no_shear #
lump $-1 $-1 $29 $5 #
transform $-1 1 0 0 0 1 0 0 0 1 54.541459395123141 36.933624685829301 10.453048756719987 1 rotate no_reflect no_shear #
lump $-1 $-1 $30 $6 #
transform $-1 1 0 0 0 1 0 0 0 1 54.541459395123141 36.933624685829301 10.453048756719987 1 rotate no_reflect no_shear #
lump $-1 $-1 $31 $7 #
transform $-1 1 0 0 0 1 0 0 0 1 54.541459395123141 36.933624685829301 10.453048756719987 1 rotate no_reflect no_shear #
shell $-1 $-1 $-1 $32 $-1 $8 #
shell $-1 $-1 $-1 $33 $-1 $10 #
shell $-1 $-1 $-1 $34 $-1 $12 #
shell $-1 $-1 $-1 $35 $-1 $14 #
shell $-1 $-1 $-1 $36 $-1 $16 #
shell $-1 $-1 $-1 $37 $-1 $18 #
shell $-1 $-1 $-1 $38 $-1 $20 #
shell $-1 $-1 $-1 $39 $-1 $22 #
face $-1 $40 $41 $24 $-1 $42 forward single #
face $-1 $43 $44 $25 $-1 $45 forward single #
face $-1 $46 $47 $26 $-1 $48 reversed single #
face $-1 $49 $50 $27 $-1 $51 forward single #
face $-1 $52 $53 $28 $-1 $54 forward single #
face $-1 $55 $56 $29 $-1 $57 reversed single #
face $-1 $58 $59 $30 $-1 $60 forward single #
face $-1 $61 $62 $31 $-1 $63 forward single #
face $-1 $64 $65 $24 $-1 $66 reversed single #
loop $-1 $-1 $67 $32 #
plane-surface $-1 0 0 10.453048756719987 0 0 1 1 0 0 forward_v I I I I #
face $-1 $68 $69 $25 $-1 $70 reversed single #
loop $-1 $-1 $71 $33 #
plane-surface $-1 -54.541459395123141 0 0 1 0 0 0 0 -1 forward_v I I I I #
face $-1 $72 $73 $26 $-1 $74 reversed single #
loop $-1 $-1 $75 $34 #
plane-surface $-1 32.694784318228763 70.798274246981137 131.63345222603127 1 0 0 0 -0.75470958851134928 -0.65605901945558964 forward_v I I I I #
face $-1 $76 $77 $27 $-1 $78 forward single #
loop $-1 $79 $80 $35 #
cone-surface $-1 38.936691483055725 32.686876555780607 6.0121670175074176 0 -0.75470958851134928 -0.65605901945558964 2 0 0 1 I I 0 1 2 forward I I I I #
face $-1 $81 $82 $28 $-1 $83 forward single #
loop $-1 $84 $85 $36 #
cone-surface $-1 48.299552230296172 32.686876555780607 6.0121670175074176 0 -0.75470958851134928 -0.65605901945558964 2 0 0 1 I I 0 1 2 forward I I I I #
face $-1 $86 $87 $29 $-1 $88 reversed single #
loop $-1 $-1 $89 $37 #
plane-surface $-1 43.618121856675955 -36.933624685829287 4.3202981073988695 0 -0.75470958851134928 0.65605901945558964 1 0 0 forward_v I I I I #
face $-1 $90 $91 $30 $-1 $92 forward single #
loop $-1 $93 $94 $38 #
cone-surface $-1 38.936691483055725 -32.686876555780593 6.0121670175074122 0 0.75470958851134928 -0.65605901945558964 2 0 0 1 I I 0 1 2 forward I I I I #
face $-1 $95 $96 $31 $-1 $97 forward single #
loop $-1 $98 $99 $39 #
cone-surface $-1 48.299552230296172 -32.686876555780593 6.0121670175074122 0 0.75470958851134928 -0.65605901945558964 2 0 0 1 I I 0 1 2 forward I I I I #
face $-1 $100 $101 $24 $-1 $102 reversed single #
loop $-1 $-1 $103 $40 #
plane-surface $-1 0 0 -10.453048756719987 0 0 1 1 0 0 forward_v I I I I #
coedge $-1 $104 $105 $106 $107 forward $41 $-1 #
face $-1 $108 $109 $25 $-1 $110 forward single #
loop $-1 $-1 $111 $43 #
plane-surface $-1 0 36.933624685829301 0 0 -1 0 0 0 -1 forward_v I I I I #
coedge $-1 $112 $113 $114 $115 forward $44 $-1 #
face $-1 $116 $117 $26 $-1 $118 forward single #
loop $-1 $-1 $119 $46 #
plane-surface $-1 43.618121856675955 -11.527650506822567 60.068619485148574 0 0.75470958851134928 0.65605901945558964 1 0 0 forward_v I I I I #
coedge $-1 $120 $121 $122 $123 reversed $47 $-1 #
face $-1 $-1 $124 $27 $-1 $125 forward single #
loop $-1 $126 $127 $49 #
cone-surface $-1 38.936691483055725 30.350978172100213 3.9816015834998026 0 -0.75470958851134928 -0.65605901945558964 1 0 0 1 I I -0.70710678118654746 0.70710678118654746 1 forward I I I I #
loop $-1 $-1 $128 $35 #
coedge $-1 $80 $80 $129 $130 reversed $50 $-1 #
face $-1 $-1 $131 $28 $-1 $132 forward single #
loop $-1 $133 $134 $52 #
cone-surface $-1 48.299552230296172 30.350978172100213 3.9816015834998026 0 -0.75470958851134928 -0.65605901945558964 1 0 0 1 I I -0.70710678118654746 0.70710678118654746 1 forward I I I I #
loop $-1 $-1 $135 $36 #
coedge $-1 $85 $85 $136 $137 reversed $53 $-1 #
face $-1 $138 $139 $29 $-1 $140 reversed single #
loop $-1 $-1 $141 $55 #
plane-surface $-1 32.694784318228763 -119.25954943963299 75.885130848281563 1 0 0 0 0.75470958851134928 -0.65605901945558964 forward_v I I I I #
coedge $-1 $142 $143 $144 $145 reversed $56 $-1 #
face $-1 $-1 $146 $30 $-1 $147 forward single #
loop $-1 $148 $149 $58 #
cone-surface $-1 38.936691483055725 -30.350978172100199 3.9816015834997973 0 0.75470958851134928 -0.65605901945558964 1 0 0 1 I I -0.70710678118654746 0.70710678118654746 1 forward I I I I #
loop $-1 $-1 $150 $38 #
coedge $-1 $94 $94 $151 $152 reversed $59 $-1 #
face $-1 $-1 $153 $31 $-1 $154 forward single #
loop $-1 $155 $156 $61 #
cone-surface $-1 48.299552230296172 -30.350978172100199 3.9816015834997973 0 0.75470958851134928 -0.65605901945558964 1 0 0 1 I I -0.70710678118654746 0.70710678118654746 1 forward I I I I #
loop $-1 $-1 $157 $39 #
coedge $-1 $99 $99 $158 $159 reversed $62 $-1 #
face $-1 $160 $161 $24 $-1 $162 reversed single #
loop $-1 $-1 $163 $64 #
plane-surface $-1 0 -36.933624685829301 0 0 1 0 0 0 1 forward_v I I I I #
coedge $-1 $164 $165 $166 $167 forward $65 $-1 #
coedge $-1 $168 $67 $169 $170 forward $41 $-1 #
coedge $-1 $67 $168 $171 $172 forward $41 $-1 #
coedge $-1 $173 $174 $67 $107 reversed $175 $-1 #
edge $-1 $176 -36.933624685829301 $177 36.933624685829301 $106 $178 forward 7 unknown #
face $-1 $179 $180 $25 $-1 $181 reversed single #
loop $-1 $-1 $114 $68 #
plane-surface $-1 -59.582178734332039 0 -1.2033800074931875 0 0 1 1 0 0 forward_v I I I I #
coedge $-1 $182 $183 $113 $184 forward $69 $-1 #
coedge $-1 $185 $71 $186 $187 reversed $44 $-1 #
coedge $-1 $71 $185 $111 $184 reversed $44 $-1 #
coedge $-1 $188 $189 $71 $115 reversed $109 $-1 #
edge $-1 $190 -36.933624685829301 $191 36.933624685829301 $114 $192 forward 7 unknown #
face $-1 $193 $194 $26 $-1 $195 reversed single #
loop $-1 $-1 $122 $72 #
plane-surface $-1 0 0 10.453048756719987 0 0 1 1 0 0 forward_v I I I I #
coedge $-1 $196 $197 $198 $199 reversed $73 $-1 #
coedge $-1 $121 $75 $200 $201 reversed $47 $-1 #
coedge $-1 $75 $120 $196 $202 reversed $47 $-1 #
coedge $-1 $198 $203 $75 $123 forward $117 $-1 #
edge $-1 $204 -1.5344875623387324 $205 3.7966311074206018 $122 $206 forward 7 unknown #
loop $-1 $-1 $129 $76 #
plane-surface $-1 43.618121856675955 -11.527650506822567 60.068619485148574 0 0.75470958851134928 0.65605901945558964 1 0 0 forward_v I I I I #
loop $-1 $-1 $207 $49 #
coedge $-1 $127 $127 $128 $208 reversed $77 $-1 #
coedge $-1 $128 $128 $127 $208 forward $79 $-1 #
coedge $-1 $129 $129 $80 $130 forward $124 $-1 #
edge $-1 $209 9.595186306520749e-016 $209 6.2831853071796013 $129 $210 forward 7 unknown #
loop $-1 $-1 $136 $81 #
plane-surface $-1 43.618121856675955 -11.527650506822567 60.068619485148574 0 0.75470958851134928 0.65605901945558964 1 0 0 forward_v I I I I #
loop $-1 $-1 $211 $52 #
coedge $-1 $134 $134 $135 $212 reversed $82 $-1 #
coedge $-1 $135 $135 $134 $212 forward $84 $-1 #
coedge $-1 $136 $136 $85 $137 forward $131 $-1 #
edge $-1 $213 9.595186306520749e-016 $213 6.2831853071796013 $136 $214 forward 7 unknown #
face $-1 $215 $216 $29 $-1 $217 forward single #
loop $-1 $-1 $218 $86 #
plane-surface $-1 0 -36.933624685829301 0 0 1 0 0 0 1 forward_v I I I I #
coedge $-1 $219 $220 $221 $222 reversed $87 $-1 #
coedge $-1 $223 $89 $224 $225 reversed $56 $-1 #
coedge $-1 $89 $223 $219 $226 forward $56 $-1 #
coedge $-1 $221 $227 $89 $145 forward $216 $-1 #
edge $-1 $228 -32.73239846678517 $229 -10.885723389890785 $144 $230 forward 7 unknown #
loop $-1 $-1 $151 $90 #
plane-surface $-1 43.618121856675955 -36.933624685829287 4.3202981073988695 0 -0.75470958851134928 0.65605901945558964 1 0 0 forward_v I I I I #
loop $-1 $-1 $231 $58 #
coedge $-1 $149 $149 $150 $232 reversed $91 $-1 #
coedge $-1 $150 $150 $149 $232 forward $93 $-1 #
coedge $-1 $151 $151 $94 $152 forward $146 $-1 #
edge $-1 $233 -1.2946770154803458e-015 $233 6.2831853071795996 $151 $234 forward 7 unknown #
loop $-1 $-1 $158 $95 #
plane-surface $-1 43.618121856675955 -36.933624685829287 4.3202981073988695 0 -0.75470958851134928 0.65605901945558964 1 0 0 forward_v I I I I #
loop $-1 $-1 $235 $61 #
coedge $-1 $156 $156 $157 $236 reversed $96 $-1 #
coedge $-1 $157 $157 $156 $236 forward $98 $-1 #
coedge $-1 $158 $158 $99 $159 forward $153 $-1 #
edge $-1 $237 -1.2946770154803458e-015 $237 6.2831853071795996 $158 $238 forward 7 unknown #
face $-1 $239 $240 $24 $-1 $241 reversed single #
loop $-1 $-1 $242 $100 #
plane-surface $-1 -54.541459395123141 0 0 1 0 0 0 0 -1 forward_v I I I I #
coedge $-1 $243 $171 $242 $244 forward $101 $-1 #
coedge $-1 $245 $103 $243 $246 forward $65 $-1 #
coedge $-1 $103 $245 $247 $248 forward $65 $-1 #
coedge $-1 $174 $173 $103 $167 reversed $175 $-1 #
edge $-1 $249 -36.933624685829301 $250 36.933624685829301 $166 $251 forward 7 unknown #
coedge $-1 $105 $104 $252 $253 forward $41 $-1 #
coedge $-1 $254 $255 $104 $170 reversed $240 $-1 #
edge $-1 $177 -54.541459395123141 $256 54.541459395123141 $169 $257 forward 7 unknown #
coedge $-1 $163 $258 $105 $172 reversed $101 $-1 #
edge $-1 $259 -54.541459395123141 $176 54.541459395123141 $171 $260 forward 7 unknown #
coedge $-1 $166 $106 $258 $261 forward $175 $-1 #
coedge $-1 $106 $166 $254 $262 reversed $175 $-1 #
loop $-1 $-1 $173 $239 #
vertex $-1 $107 $263 #
vertex $-1 $107 $264 #
straight-curve $-1 54.541459395123141 0 10.453048756719987 0 1 0 I I #
face $-1 $265 $266 $25 $-1 $267 reversed single #
loop $-1 $-1 $268 $108 #
plane-surface $-1 -59.582178734332039 0 -6.9372283226741214 0 0 1 1 0 0 forward_v I I I I #
coedge $-1 $269 $111 $270 $271 reversed $69 $-1 #
coedge $-1 $111 $269 $188 $272 reversed $69 $-1 #
edge $-1 $190 1.2033800074931875 $273 6.9372283226741214 $111 $274 forward 7 unknown #
coedge $-1 $113 $112 $268 $275 forward $44 $-1 #
coedge $-1 $276 $277 $112 $187 forward $278 $-1 #
edge $-1 $279 -6.9372283226741214 $191 -1.2033800074931875 $186 $280 forward 7 unknown #
coedge $-1 $281 $114 $183 $272 forward $109 $-1 #
coedge $-1 $114 $281 $276 $282 forward $109 $-1 #
vertex $-1 $184 $283 #
vertex $-1 $282 $284 #
straight-curve $-1 -54.541459395123141 0 -1.2033800074931875 0 -1 0 I I #
face $-1 $-1 $285 $26 $-1 $286 reversed single #
loop $-1 $-1 $287 $116 #
plane-surface $-1 54.541459395123141 0 0 -1 0 0 0 0 1 forward_v I I I I #
coedge $-1 $288 $119 $121 $202 forward $73 $-1 #
coedge $-1 $119 $288 $287 $289 reversed $73 $-1 #
coedge $-1 $290 $122 $119 $199 forward $117 $-1 #
edge $-1 $205 10.885723389890785 $291 32.73239846678517 $198 $292 forward 7 unknown #
coedge $-1 $293 $294 $120 $201 forward $285 $-1 #
edge $-1 $295 -61.496428005616757 $204 -55.363677356295646 $200 $296 forward 7 unknown #
edge $-1 $205 65.74127516558309 $295 73.86724937165863 $121 $297 forward 7 unknown #
coedge $-1 $122 $290 $293 $298 forward $117 $-1 #
vertex $-1 $201 $299 #
vertex $-1 $123 $300 #
straight-curve $-1 32.694784318228763 35.399137123490569 10.453048756719987 0 -1 0 I I #
coedge $-1 $207 $207 $-1 $301 reversed $126 $-1 #
edge $-1 $302 0 $302 6.2831853071796004 $127 $303 forward 7 unknown #
vertex $-1 $130 $304 #
ellipse-curve $-1 38.936691483055725 34.268065350949634 7.3866734320594274 0 0.75470958851134928 0.65605901945558964 2 0 0 1 I I #
coedge $-1 $211 $211 $-1 $305 reversed $133 $-1 #
edge $-1 $306 0 $306 6.2831853071796004 $134 $307 forward 7 unknown #
vertex $-1 $137 $308 #
ellipse-curve $-1 48.299552230296172 34.268065350949634 7.3866734320594274 0 0.75470958851134928 0.65605901945558964 2 0 0 1 I I #
face $-1 $-1 $309 $29 $-1 $310 reversed single #
loop $-1 $-1 $221 $138 #
plane-surface $-1 0 0 10.453048756719987 0 0 1 1 0 0 forward_v I I I I #
coedge $-1 $311 $312 $220 $313 forward $139 $-1 #
coedge $-1 $220 $141 $143 $226 reversed $87 $-1 #
coedge $-1 $141 $219 $218 $313 reversed $87 $-1 #
coedge $-1 $314 $144 $141 $222 forward $216 $-1 #
edge $-1 $229 -28.02726870374655 $315 -22.696150033987195 $221 $316 forward 7 unknown #
coedge $-1 $143 $142 $311 $317 reversed $56 $-1 #
coedge $-1 $318 $319 $142 $225 forward $309 $-1 #
edge $-1 $320 -10.485033594722303 $228 -2.3590593886467293 $224 $321 forward 7 unknown #
edge $-1 $322 -2.1388861263899031e-014 $229 8.1259742060755542 $219 $323 forward 7 unknown #
coedge $-1 $144 $314 $318 $324 forward $216 $-1 #
vertex $-1 $225 $325 #
vertex $-1 $145 $326 #
straight-curve $-1 21.809060928337978 -31.602506016069945 10.453048756719987 -1 0 0 I I #
coedge $-1 $231 $231 $-1 $327 reversed $148 $-1 #
edge $-1 $328 0 $328 6.2831853071796004 $149 $329 forward 7 unknown #
vertex $-1 $152 $330 #
ellipse-curve $-1 38.936691483055725 -34.26806535094962 7.386673432059423 0 -0.75470958851134928 0.65605901945558964 2 0 0 1 I I #
coedge $-1 $235 $235 $-1 $331 reversed $155 $-1 #
edge $-1 $332 0 $332 6.2831853071796004 $156 $333 forward 7 unknown #
vertex $-1 $159 $334 #
ellipse-curve $-1 48.299552230296172 -34.26806535094962 7.386673432059423 0 -0.75470958851134928 0.65605901945558964 2 0 0 1 I I #
face $-1 $-1 $175 $24 $-1 $335 reversed single #
loop $-1 $-1 $254 $160 #
plane-surface $-1 0 36.933624685829301 0 0 -1 0 0 0 -1 forward_v I I I I #
coedge $-1 $252 $336 $163 $244 reversed $161 $-1 #
coedge $-1 $258 $163 $164 $246 reversed $101 $-1 #
edge $-1 $259 -10.453048756719987 $337 10.453048756719987 $242 $338 forward 7 unknown #
coedge $-1 $165 $164 $336 $339 forward $65 $-1 #
edge $-1 $250 -54.541459395123141 $337 54.541459395123141 $243 $340 forward 7 unknown #
coedge $-1 $255 $254 $165 $248 reversed $240 $-1 #
edge $-1 $341 -54.541459395123141 $249 54.541459395123141 $247 $342 forward 7 unknown #
vertex $-1 $167 $343 #
vertex $-1 $261 $344 #
straight-curve $-1 54.541459395123141 0 -10.453048756719987 0 -1 0 I I #
coedge $-1 $345 $242 $168 $253 reversed $161 $-1 #
edge $-1 $256 -36.933624685829301 $259 36.933624685829301 $252 $346 forward 7 unknown #
coedge $-1 $247 $169 $174 $262 forward $240 $-1 #
coedge $-1 $169 $247 $345 $347 reversed $240 $-1 #
vertex $-1 $170 $348 #
straight-curve $-1 0 36.933624685829301 10.453048756719987 -1 0 0 I I #
coedge $-1 $171 $243 $173 $261 reversed $101 $-1 #
vertex $-1 $253 $349 #
straight-curve $-1 0 -36.933624685829301 10.453048756719987 1 0 0 I I #
edge $-1 $176 -10.453048756719987 $250 10.453048756719987 $173 $350 forward 7 unknown #
edge $-1 $177 -10.453048756719987 $249 10.453048756719987 $174 $351 forward 7 unknown #
point $-1 54.541459395123141 -36.933624685829301 10.453048756719987 #
point $-1 54.541459395123141 36.933624685829301 10.453048756719987 #
face $-1 $-1 $278 $25 $-1 $352 reversed single #
loop $-1 $-1 $353 $179 #
plane-surface $-1 -64.622898073540938 0 -4.0703041650836544 1 0 0 0 0 -1 forward_v I I I I #
coedge $-1 $354 $270 $185 $275 reversed $180 $-1 #
coedge $-1 $183 $182 $353 $355 reversed $69 $-1 #
coedge $-1 $268 $356 $182 $271 forward $180 $-1 #
edge $-1 $357 -5.0407193392088985 $273 5.0407193392088985 $182 $358 forward 7 unknown #
edge $-1 $190 -5.0407193392088985 $359 5.0407193392088985 $183 $360 forward 7 unknown #
vertex $-1 $184 $361 #
straight-curve $-1 -54.541459395123141 36.933624685829301 0 0 0 -1 I I #
edge $-1 $279 -36.933624685829301 $273 36.933624685829301 $268 $362 forward 7 unknown #
coedge $-1 $363 $186 $189 $282 reversed $278 $-1 #
coedge $-1 $186 $363 $354 $364 reversed $278 $-1 #
loop $-1 $-1 $186 $265 #
vertex $-1 $187 $365 #
straight-curve $-1 -54.541459395123141 -36.933624685829301 0 0 0 1 I I #
coedge $-1 $189 $188 $366 $367 forward $109 $-1 #
edge $-1 $368 -5.0407193392088985 $191 5.0407193392088985 $276 $369 forward 7 unknown #
point $-1 -54.541459395123141 36.933624685829301 -1.2033800074931875 #
point $-1 -54.541459395123141 -36.933624685829301 -1.2033800074931875 #
loop $-1 $-1 $200 $193 #
plane-surface $-1 0 36.933624685829301 0 0 -1 0 0 0 -1 forward_v I I I I #
coedge $-1 $370 $371 $197 $289 forward $194 $-1 #
coedge $-1 $197 $196 $294 $372 reversed $73 $-1 #
edge $-1 $291 39.29268407447605 $373 47.41865828055159 $287 $374 forward 7 unknown #
coedge $-1 $203 $198 $371 $375 forward $117 $-1 #
vertex $-1 $375 $376 #
straight-curve $-1 21.809060928337978 31.602506016069967 10.45304875671998 1 0 0 I I #
coedge $-1 $377 $200 $203 $298 reversed $285 $-1 #
coedge $-1 $200 $377 $288 $372 forward $285 $-1 #
vertex $-1 $201 $378 #
straight-curve $-1 32.694784318228763 36.933624685829301 65.816726113015633 0 0 1 I I #
straight-curve $-1 32.694784318228763 -11.527650506822567 60.068619485148574 0 0.65605901945558964 -0.75470958851134928 I I #
edge $-1 $379 -54.541459395123141 $204 -32.694784318228763 $293 $380 forward 7 unknown #
point $-1 32.694784318228763 36.933624685829301 10.453048756719987 #
point $-1 32.694784318228763 31.602506016069967 10.453048756719987 #
edge $-1 $381 1 $381 0 $207 $-1 forward 7 unknown #
vertex $-1 $208 $382 #
ellipse-curve $-1 38.936691483055725 31.105687760611563 4.6376606029553926 0 0.75470958851134928 0.65605901945558964 2 0 0 1 I I #
point $-1 40.936691483055725 34.268065350949655 7.3866734320594434 #
edge $-1 $383 1 $383 0 $211 $-1 forward 7 unknown #
vertex $-1 $212 $384 #
ellipse-curve $-1 48.299552230296172 31.105687760611563 4.6376606029553926 0 0.75470958851134928 0.65605901945558964 2 0 0 1 I I #
point $-1 50.299552230296172 34.268065350949655 7.3866734320594434 #
loop $-1 $-1 $224 $215 #
plane-surface $-1 54.541459395123141 0 0 -1 0 0 0 0 1 forward_v I I I I #
coedge $-1 $385 $218 $223 $317 forward $139 $-1 #
coedge $-1 $218 $385 $314 $386 reversed $139 $-1 #
edge $-1 $315 27.489516667420794 $322 33.622267316741926 $218 $387 forward 7 unknown #
coedge $-1 $227 $221 $312 $386 forward $216 $-1 #
vertex $-1 $386 $388 #
straight-curve $-1 32.694784318228763 -59.629774719816496 10.453048756719987 0 -1 0 I I #
edge $-1 $322 10.885723389890785 $320 32.73239846678517 $311 $389 forward 7 unknown #
coedge $-1 $319 $224 $227 $324 reversed $309 $-1 #
coedge $-1 $224 $318 $385 $390 forward $309 $-1 #
vertex $-1 $317 $391 #
straight-curve $-1 54.541459395123141 -30.05482382671687 12.233453497199395 0 0.65605901945558975 0.75470958851134939 I I #
vertex $-1 $317 $392 #
straight-curve $-1 32.694784318228763 -36.933624685829287 4.3202981073988695 0 0.65605901945558964 0.75470958851134928 I I #
edge $-1 $393 -36.933624685829301 $228 -31.602506016069945 $318 $394 forward 7 unknown #
point $-1 54.541459395123148 -31.602506016069945 10.453048756719987 #
point $-1 32.694784318228763 -31.602506016069945 10.453048756719987 #
edge $-1 $395 1 $395 0 $231 $-1 forward 7 unknown #
vertex $-1 $232 $396 #
ellipse-curve $-1 38.936691483055725 -31.105687760611548 4.6376606029553873 0 -0.75470958851134928 0.65605901945558964 2 0 0 1 I I #
point $-1 40.936691483055725 -34.268065350949641 7.386673432059438 #
edge $-1 $397 1 $397 0 $235 $-1 forward 7 unknown #
vertex $-1 $236 $398 #
ellipse-curve $-1 48.299552230296172 -31.105687760611548 4.6376606029553873 0 -0.75470958851134928 0.65605901945558964 2 0 0 1 I I #
point $-1 50.299552230296172 -34.268065350949641 7.386673432059438 #
plane-surface $-1 54.541459395123141 0 0 -1 0 0 0 0 1 forward_v I I I I #
coedge $-1 $242 $345 $245 $339 reversed $161 $-1 #
vertex $-1 $339 $399 #
straight-curve $-1 -54.541459395123141 -36.933624685829301 0 0 0 -1 I I #
edge $-1 $337 -36.933624685829301 $341 36.933624685829301 $336 $400 forward 7 unknown #
straight-curve $-1 0 -36.933624685829301 -10.453048756719987 -1 0 0 I I #
vertex $-1 $248 $401 #
straight-curve $-1 0 36.933624685829301 -10.453048756719987 1 0 0 I I #
point $-1 54.541459395123141 36.933624685829301 -10.453048756719987 #
point $-1 54.541459395123141 -36.933624685829301 -10.453048756719987 #
coedge $-1 $336 $252 $255 $347 forward $161 $-1 #
straight-curve $-1 -54.541459395123141 0 10.453048756719987 0 -1 0 I I #
edge $-1 $256 -10.453048756719987 $341 10.453048756719987 $255 $402 forward 7 unknown #
point $-1 -54.541459395123141 36.933624685829301 10.453048756719987 #
point $-1 -54.541459395123141 -36.933624685829301 10.453048756719987 #
straight-curve $-1 54.541459395123141 -36.933624685829301 0 0 0 -1 I I #
straight-curve $-1 54.541459395123141 36.933624685829301 0 0 0 -1 I I #
plane-surface $-1 0 -36.933624685829301 0 0 1 0 0 0 1 forward_v I I I I #
coedge $-1 $403 $366 $269 $355 forward $266 $-1 #
coedge $-1 $356 $268 $277 $364 forward $180 $-1 #
edge $-1 $359 -2.8669241575904669 $357 2.8669241575904669 $269 $404 forward 7 unknown #
coedge $-1 $270 $354 $403 $405 forward $180 $-1 #
vertex $-1 $271 $406 #
straight-curve $-1 -59.582178734332039 36.933624685829301 -6.9372283226741214 1 0 0 I I #
vertex $-1 $272 $407 #
straight-curve $-1 -59.582178734332039 36.933624685829301 -1.2033800074931875 -1 0 0 I I #
point $-1 -54.541459395123141 36.933624685829301 -6.9372283226741214 #
straight-curve $-1 -54.541459395123141 0 -6.9372283226741214 0 1 0 I I #
coedge $-1 $277 $276 $408 $409 forward $278 $-1 #
edge $-1 $279 -5.0407193392088985 $410 5.0407193392088985 $277 $411 forward 7 unknown #
point $-1 -54.541459395123141 -36.933624685829301 -6.9372283226741214 #
coedge $-1 $353 $408 $281 $367 reversed $266 $-1 #
edge $-1 $359 -36.933624685829301 $368 36.933624685829301 $366 $412 forward 7 unknown #
vertex $-1 $367 $413 #
straight-curve $-1 -59.582178734332039 -36.933624685829301 -1.2033800074931875 1 0 0 I I #
coedge $-1 $371 $287 $377 $414 reversed $194 $-1 #
coedge $-1 $287 $370 $290 $375 reversed $194 $-1 #
edge $-1 $373 -32.73239846678517 $295 -10.885723389890785 $294 $415 forward 7 unknown #
vertex $-1 $289 $416 #
straight-curve $-1 54.541459395123141 5.8241862303909482 40.107614186074251 0 0.65605901945558975 -0.75470958851134939 I I #
edge $-1 $291 31.602506016069967 $379 36.933624685829301 $371 $417 forward 7 unknown #
point $-1 54.541459395123148 31.602506016069967 10.453048756719987 #
coedge $-1 $294 $293 $370 $414 forward $285 $-1 #
point $-1 32.694784318228763 36.933624685829301 4.3202981073988767 #
vertex $-1 $375 $418 #
straight-curve $-1 0 36.933624685829301 10.453048756719987 -1 0 0 I I #
vertex $-1 $301 $419 #
point $-1 40.936691483055725 31.105687760611563 4.6376606029553926 #
vertex $-1 $305 $420 #
point $-1 50.299552230296172 31.105687760611563 4.6376606029553926 #
coedge $-1 $312 $311 $319 $390 reversed $139 $-1 #
edge $-1 $315 32.694784318228763 $393 54.541459395123141 $312 $421 forward 7 unknown #
straight-curve $-1 32.694784318228763 -36.933624685829301 37.942565424140781 0 0 -1 I I #
point $-1 32.694784318228763 -36.933624685829301 10.453048756719987 #
straight-curve $-1 21.809060928337978 -36.933624685829301 4.3202981073988518 1 0 0 I I #
edge $-1 $393 -10.453048756719987 $320 -4.3202981073988536 $319 $422 forward 7 unknown #
point $-1 54.541459395123148 -36.933624685829301 4.3202981073988536 #
point $-1 32.694784318228763 -36.933624685829301 4.3202981073988536 #
vertex $-1 $324 $423 #
straight-curve $-1 54.541459395123141 0 10.453048756719987 0 1 0 I I #
vertex $-1 $327 $424 #
point $-1 40.936691483055725 -31.105687760611548 4.6376606029553873 #
vertex $-1 $331 $425 #
point $-1 50.299552230296172 -31.105687760611548 4.6376606029553873 #
point $-1 -54.541459395123141 -36.933624685829301 -10.453048756719987 #
straight-curve $-1 -54.541459395123141 0 -10.453048756719987 0 1 0 I I #
point $-1 -54.541459395123141 36.933624685829301 -10.453048756719987 #
straight-curve $-1 -54.541459395123141 36.933624685829301 0 0 0 -1 I I #
coedge $-1 $408 $353 $356 $405 reversed $266 $-1 #
straight-curve $-1 -64.622898073540938 36.933624685829301 -4.0703041650836544 0 0 -1 I I #
edge $-1 $410 -36.933624685829301 $357 36.933624685829301 $403 $426 forward 7 unknown #
point $-1 -64.622898073540938 36.933624685829301 -6.9372283226741214 #
point $-1 -64.622898073540938 36.933624685829301 -1.2033800074931875 #
coedge $-1 $366 $403 $363 $409 reversed $266 $-1 #
edge $-1 $368 -2.8669241575904669 $410 2.8669241575904669 $408 $427 forward 7 unknown #
vertex $-1 $405 $428 #
straight-curve $-1 -59.582178734332039 -36.933624685829301 -6.9372283226741214 -1 0 0 I I #
straight-curve $-1 -64.622898073540938 0 -1.2033800074931875 0 -1 0 I I #
point $-1 -64.622898073540938 -36.933624685829301 -1.2033800074931875 #
edge $-1 $379 -10.453048756719987 $373 -4.3202981073988767 $370 $429 forward 7 unknown #
straight-curve $-1 21.809060928337978 36.933624685829301 4.3202981073988767 -1 0 0 I I #
point $-1 54.541459395123148 36.933624685829301 4.3202981073988767 #
straight-curve $-1 54.541459395123141 0 10.453048756719987 0 1 0 I I #
point $-1 54.541459395123141 36.933624685829301 10.453048756719987 #
point $-1 38.936691483055725 29.596268583588863 3.3255425640442131 #
point $-1 48.299552230296172 29.596268583588863 3.3255425640442131 #
straight-curve $-1 0 -36.933624685829301 10.453048756719987 1 0 0 I I #
straight-curve $-1 54.541459395123141 -36.933624685829301 0 0 0 -1 I I #
point $-1 54.541459395123141 -36.933624685829301 10.453048756719987 #
point $-1 38.936691483055725 -29.596268583588849 3.3255425640442078 #
point $-1 48.299552230296172 -29.596268583588849 3.3255425640442078 #
straight-curve $-1 -64.622898073540938 0 -6.9372283226741214 0 1 0 I I #
straight-curve $-1 -64.622898073540938 -36.933624685829301 -4.0703041650836544 0 0 -1 I I #
point $-1 -64.622898073540938 -36.933624685829301 -6.9372283226741214 #
straight-curve $-1 54.541459395123141 36.933624685829301 0 0 0 -1 I I #
End-of-ACIS-data 