500 0 19 0           
7 Unknown 11 ACIS 5.0 NT 24 Fri Mar 26 19:32:58 1999 
-1 9.9999999999999995e-007 1e-010 
body $-1 $19 $-1 $20 #
body $-1 $21 $-1 $22 #
body $-1 $23 $-1 $24 #
body $-1 $25 $-1 $26 #
body $-1 $27 $-1 $28 #
body $-1 $29 $-1 $30 #
body $-1 $31 $-1 $32 #
body $-1 $33 $-1 $34 #
body $-1 $35 $-1 $36 #
body $-1 $37 $-1 $38 #
body $-1 $39 $-1 $40 #
body $-1 $41 $-1 $42 #
body $-1 $43 $-1 $44 #
body $-1 $45 $-1 $46 #
body $-1 $47 $-1 $48 #
body $-1 $49 $-1 $50 #
body $-1 $51 $-1 $52 #
body $-1 $53 $-1 $54 #
body $-1 $55 $-1 $56 #
lump $-1 $-1 $57 $0 #
transform $-1 1 0 0 0 1 0 0 0 1 50.75472273934141 26.705748168012306 9.7801540403860852 1 rotate no_reflect no_shear #
lump $-1 $-1 $58 $1 #
transform $-1 1 0 0 0 1 0 0 0 1 50.75472273934141 26.705748168012306 9.7801540403860852 1 rotate no_reflect no_shear #
lump $-1 $-1 $59 $2 #
transform $-1 1 0 0 0 1 0 0 0 1 50.75472273934141 26.705748168012306 9.7801540403860852 1 rotate no_reflect no_shear #
lump $-1 $-1 $60 $3 #
transform $-1 1 0 0 0 1 0 0 0 1 50.75472273934141 26.705748168012306 9.7801540403860852 1 rotate no_reflect no_shear #
lump $-1 $-1 $61 $4 #
transform $-1 1 0 0 0 1 0 0 0 1 50.75472273934141 26.705748168012306 9.7801540403860852 1 rotate no_reflect no_shear #
lump $-1 $-1 $62 $5 #
transform $-1 1 0 0 0 1 0 0 0 1 50.75472273934141 26.705748168012306 9.7801540403860852 1 rotate no_reflect no_shear #
lump $-1 $-1 $63 $6 #
transform $-1 1 0 0 0 1 0 0 0 1 50.75472273934141 26.705748168012306 9.7801540403860852 1 rotate no_reflect no_shear #
lump $-1 $-1 $64 $7 #
transform $-1 1 0 0 0 1 0 0 0 1 50.75472273934141 26.705748168012306 9.7801540403860852 1 rotate no_reflect no_shear #
lump $-1 $-1 $65 $8 #
transform $-1 1 0 0 0 1 0 0 0 1 50.75472273934141 26.705748168012306 9.7801540403860852 1 rotate no_reflect no_shear #
lump $-1 $-1 $66 $9 #
transform $-1 1 0 0 0 1 0 0 0 1 50.75472273934141 26.705748168012306 9.7801540403860852 1 rotate no_reflect no_shear #
lump $-1 $-1 $67 $10 #
transform $-1 1 0 0 0 1 0 0 0 1 50.75472273934141 26.705748168012306 9.7801540403860852 1 rotate no_reflect no_shear #
lump $-1 $-1 $68 $11 #
transform $-1 1 0 0 0 1 0 0 0 1 50.75472273934141 26.705748168012306 9.7801540403860852 1 rotate no_reflect no_shear #
lump $-1 $-1 $69 $12 #
transform $-1 1 0 0 0 1 0 0 0 1 50.75472273934141 26.705748168012306 9.7801540403860852 1 rotate no_reflect no_shear #
lump $-1 $-1 $70 $13 #
transform $-1 1 0 0 0 1 0 0 0 1 50.75472273934141 26.705748168012306 9.7801540403860852 1 rotate no_reflect no_shear #
lump $-1 $-1 $71 $14 #
transform $-1 1 0 0 0 1 0 0 0 1 50.75472273934141 26.705748168012306 9.7801540403860852 1 rotate no_reflect no_shear #
lump $-1 $-1 $72 $15 #
transform $-1 1 0 0 0 1 0 0 0 1 50.75472273934141 26.705748168012306 9.7801540403860852 1 rotate no_reflect no_shear #
lump $-1 $-1 $73 $16 #
transform $-1 1 0 0 0 1 0 0 0 1 50.75472273934141 26.705748168012306 9.7801540403860852 1 rotate no_reflect no_shear #
lump $-1 $-1 $74 $17 #
transform $-1 1 0 0 0 1 0 0 0 1 50.75472273934141 26.705748168012306 9.7801540403860852 1 rotate no_reflect no_shear #
lump $-1 $-1 $75 $18 #
transform $-1 1 0 0 0 1 0 0 0 1 50.75472273934141 26.705748168012306 9.7801540403860852 1 rotate no_reflect no_shear #
shell $-1 $-1 $-1 $76 $-1 $19 #
shell $-1 $-1 $-1 $77 $-1 $21 #
shell $-1 $-1 $-1 $78 $-1 $23 #
shell $-1 $-1 $-1 $79 $-1 $25 #
shell $-1 $-1 $-1 $80 $-1 $27 #
shell $-1 $-1 $-1 $81 $-1 $29 #
shell $-1 $-1 $-1 $82 $-1 $31 #
shell $-1 $-1 $-1 $83 $-1 $33 #
shell $-1 $-1 $-1 $84 $-1 $35 #
shell $-1 $-1 $-1 $85 $-1 $37 #
shell $-1 $-1 $-1 $86 $-1 $39 #
shell $-1 $-1 $-1 $87 $-1 $41 #
shell $-1 $-1 $-1 $88 $-1 $43 #
shell $-1 $-1 $-1 $89 $-1 $45 #
shell $-1 $-1 $-1 $90 $-1 $47 #
shell $-1 $-1 $-1 $91 $-1 $49 #
shell $-1 $-1 $-1 $92 $-1 $51 #
shell $-1 $-1 $-1 $93 $-1 $53 #
shell $-1 $-1 $-1 $94 $-1 $55 #
face $-1 $95 $96 $57 $-1 $97 forward single #
face $-1 $98 $99 $58 $-1 $100 forward single #
face $-1 $101 $102 $59 $-1 $103 forward single #
face $-1 $104 $105 $60 $-1 $106 reversed single #
face $-1 $107 $108 $61 $-1 $109 forward single #
face $-1 $110 $111 $62 $-1 $112 forward single #
face $-1 $113 $114 $63 $-1 $115 forward single #
face $-1 $116 $117 $64 $-1 $118 reversed single #
face $-1 $119 $120 $65 $-1 $121 forward single #
face $-1 $122 $123 $66 $-1 $124 forward single #
face $-1 $125 $126 $67 $-1 $127 forward single #
face $-1 $128 $129 $68 $-1 $130 reversed single #
face $-1 $131 $132 $69 $-1 $133 forward single #
face $-1 $134 $135 $70 $-1 $136 forward single #
face $-1 $137 $138 $71 $-1 $139 forward single #
face $-1 $140 $141 $72 $-1 $142 reversed single #
face $-1 $143 $144 $73 $-1 $145 forward single #
face $-1 $146 $147 $74 $-1 $148 forward single #
face $-1 $149 $150 $75 $-1 $151 forward single #
face $-1 $152 $153 $57 $-1 $154 reversed single #
loop $-1 $-1 $155 $76 #
plane-surface $-1 0 0 9.7801540403860852 0 0 1 1 0 0 forward_v I I I I #
face $-1 $156 $157 $58 $-1 $158 reversed single #
loop $-1 $-1 $159 $77 #
plane-surface $-1 0 -23.04402411088838 -5.4255723161876919 0 0 1 1 0 0 forward_v I I I I #
face $-1 $160 $161 $59 $-1 $162 reversed single #
loop $-1 $-1 $163 $78 #
plane-surface $-1 0 23.04402411088838 -5.4255723161876919 0 0 1 1 0 0 forward_v I I I I #
face $-1 $164 $165 $60 $-1 $166 reversed single #
loop $-1 $-1 $167 $79 #
plane-surface $-1 -117.35091178331319 -4.4338832760651421 78.467879795535453 0 -1 0 0.6560590369687036 0 -0.75470957328743171 forward_v I I I I #
face $-1 $168 $169 $61 $-1 $170 forward single #
loop $-1 $171 $172 $80 #
cone-surface $-1 -45.694767998304997 -12.146430112060056 5.2401898374943876 0.6560590369687036 0 -0.75470957328743171 0.37735478664371586 0 0.3280295184843518 1 I I 0 1 0.5 forward I I I I #
face $-1 $173 $174 $62 $-1 $175 forward single #
loop $-1 $176 $177 $81 #
cone-surface $-1 -45.694767998304997 -9.2542250485619633 5.2401898374943876 0.6560590369687036 0 -0.75470957328743171 0.37735478664371586 0 0.3280295184843518 1 I I 0 1 0.5 forward I I I I #
face $-1 $178 $179 $63 $-1 $180 forward single #
loop $-1 $181 $182 $82 #
cone-surface $-1 -45.694767998304997 -6.3620199850638706 5.2401898374943876 0.6560590369687036 0 -0.75470957328743171 0.37735478664371586 0 0.3280295184843518 1 I I 0 1 0.5 forward I I I I #
face $-1 $183 $184 $64 $-1 $185 reversed single #
loop $-1 $-1 $186 $83 #
plane-surface $-1 -117.35091178331319 14.948416777699311 78.467879795535453 0 -1 0 0.6560590369687036 0 -0.75470957328743171 forward_v I I I I #
face $-1 $187 $188 $65 $-1 $189 forward single #
loop $-1 $190 $191 $84 #
cone-surface $-1 -45.694767998304997 7.2358699417043937 5.2401898374943876 0.6560590369687036 0 -0.75470957328743171 0.37735478664371586 0 0.3280295184843518 1 I I 0 1 0.5 forward I I I I #
face $-1 $192 $193 $66 $-1 $194 forward single #
loop $-1 $195 $196 $85 #
cone-surface $-1 -45.694767998304997 10.12807500520249 5.2401898374943876 0.6560590369687036 0 -0.75470957328743171 0.37735478664371586 0 0.3280295184843518 1 I I 0 1 0.5 forward I I I I #
face $-1 $197 $198 $67 $-1 $199 forward single #
loop $-1 $200 $201 $86 #
cone-surface $-1 -45.694767998304997 13.020280068700586 5.2401898374943876 0.6560590369687036 0 -0.75470957328743171 0.37735478664371586 0 0.3280295184843518 1 I I 0 1 0.5 forward I I I I #
face $-1 $202 $203 $68 $-1 $204 reversed single #
loop $-1 $-1 $205 $87 #
plane-surface $-1 40.74076150145266 -4.4338832760651421 145.06406883950723 0 -1 0 -0.6560590369687036 0 -0.75470957328743171 forward_v I I I I #
face $-1 $206 $207 $69 $-1 $208 forward single #
loop $-1 $209 $210 $88 #
cone-surface $-1 45.694767998305004 -12.146430112060056 5.2401898374943876 -0.6560590369687036 0 -0.75470957328743171 0.37735478664371586 0 -0.3280295184843518 1 I I 0 1 0.5 forward I I I I #
face $-1 $211 $212 $70 $-1 $213 forward single #
loop $-1 $214 $215 $89 #
cone-surface $-1 45.694767998305004 -9.2542250485619633 5.2401898374943876 -0.6560590369687036 0 -0.75470957328743171 0.37735478664371586 0 -0.3280295184843518 1 I I 0 1 0.5 forward I I I I #
face $-1 $216 $217 $71 $-1 $218 forward single #
loop $-1 $219 $220 $90 #
cone-surface $-1 45.694767998305004 -6.3620199850638706 5.2401898374943876 -0.6560590369687036 0 -0.75470957328743171 0.37735478664371586 0 -0.3280295184843518 1 I I 0 1 0.5 forward I I I I #
face $-1 $221 $222 $72 $-1 $223 reversed single #
loop $-1 $-1 $224 $91 #
plane-surface $-1 40.74076150145266 14.948416777699311 145.06406883950723 0 -1 0 -0.6560590369687036 0 -0.75470957328743171 forward_v I I I I #
face $-1 $225 $226 $73 $-1 $227 forward single #
loop $-1 $228 $229 $92 #
cone-surface $-1 45.694767998305004 7.2358699417043937 5.2401898374943876 -0.6560590369687036 0 -0.75470957328743171 0.37735478664371586 0 -0.3280295184843518 1 I I 0 1 0.5 forward I I I I #
face $-1 $230 $231 $74 $-1 $232 forward single #
loop $-1 $233 $234 $93 #
cone-surface $-1 45.694767998305004 10.12807500520249 5.2401898374943876 -0.6560590369687036 0 -0.75470957328743171 0.37735478664371586 0 -0.3280295184843518 1 I I 0 1 0.5 forward I I I I #
face $-1 $235 $236 $75 $-1 $237 forward single #
loop $-1 $238 $239 $94 #
cone-surface $-1 45.694767998305004 13.020280068700586 5.2401898374943876 -0.6560590369687036 0 -0.75470957328743171 0.37735478664371586 0 -0.3280295184843518 1 I I 0 1 0.5 forward I I I I #
face $-1 $240 $241 $57 $-1 $242 reversed single #
loop $-1 $-1 $243 $95 #
plane-surface $-1 0 0 -9.7801540403860852 0 0 1 1 0 0 forward_v I I I I #
coedge $-1 $244 $245 $246 $247 forward $96 $-1 #
face $-1 $248 $249 $58 $-1 $250 reversed single #
loop $-1 $-1 $251 $98 #
plane-surface $-1 0 -19.382300053764453 -7.6028631782868885 0 -1 0 0 0 -1 forward_v I I I I #
coedge $-1 $252 $253 $254 $255 reversed $99 $-1 #
face $-1 $256 $257 $59 $-1 $258 reversed single #
loop $-1 $-1 $259 $101 #
plane-surface $-1 0 19.382300053764453 -7.6028631782868885 0 1 0 0 0 1 forward_v I I I I #
coedge $-1 $260 $261 $262 $263 reversed $102 $-1 #
face $-1 $264 $265 $60 $-1 $266 reversed single #
loop $-1 $-1 $267 $104 #
plane-surface $-1 -50.754722739341418 -9.2542250485619633 1.8577295136749257 -0.6560590369687036 0 0.75470957328743171 0.75470957328743171 0 0.6560590369687036 forward_v I I I I #
coedge $-1 $268 $269 $270 $271 reversed $105 $-1 #
face $-1 $-1 $272 $61 $-1 $273 forward single #
loop $-1 $274 $275 $107 #
cone-surface $-1 -45.02765184279734 -12.146430112060056 4.4727605046364136 0.6560590369687036 0 -0.75470957328743171 0.18867739332185793 0 0.1640147592421759 1 I I -0.70710678118654746 0.70710678118654746 0.25 forward I I I I #
loop $-1 $-1 $276 $80 #
coedge $-1 $172 $172 $277 $278 reversed $108 $-1 #
face $-1 $-1 $279 $62 $-1 $280 forward single #
loop $-1 $281 $282 $110 #
cone-surface $-1 -45.02765184279734 -9.2542250485619633 4.4727605046364136 0.6560590369687036 0 -0.75470957328743171 0.18867739332185793 0 0.1640147592421759 1 I I -0.70710678118654746 0.70710678118654746 0.25 forward I I I I #
loop $-1 $-1 $283 $81 #
coedge $-1 $177 $177 $284 $285 reversed $111 $-1 #
face $-1 $-1 $286 $63 $-1 $287 forward single #
loop $-1 $288 $289 $113 #
cone-surface $-1 -45.02765184279734 -6.3620199850638706 4.4727605046364136 0.6560590369687036 0 -0.75470957328743171 0.18867739332185793 0 0.1640147592421759 1 I I -0.70710678118654746 0.70710678118654746 0.25 forward I I I I #
loop $-1 $-1 $290 $82 #
coedge $-1 $182 $182 $291 $292 reversed $114 $-1 #
face $-1 $293 $294 $64 $-1 $295 reversed single #
loop $-1 $-1 $296 $116 #
plane-surface $-1 -50.754722739341418 10.12807500520249 1.8577295136749257 -0.6560590369687036 0 0.75470957328743171 0.75470957328743171 0 0.6560590369687036 forward_v I I I I #
coedge $-1 $297 $298 $299 $300 reversed $117 $-1 #
face $-1 $-1 $301 $65 $-1 $302 forward single #
loop $-1 $303 $304 $119 #
cone-surface $-1 -45.02765184279734 7.2358699417043937 4.4727605046364136 0.6560590369687036 0 -0.75470957328743171 0.18867739332185793 0 0.1640147592421759 1 I I -0.70710678118654746 0.70710678118654746 0.25 forward I I I I #
loop $-1 $-1 $305 $84 #
coedge $-1 $191 $191 $306 $307 reversed $120 $-1 #
face $-1 $-1 $308 $66 $-1 $309 forward single #
loop $-1 $310 $311 $122 #
cone-surface $-1 -45.02765184279734 10.12807500520249 4.4727605046364136 0.6560590369687036 0 -0.75470957328743171 0.18867739332185793 0 0.1640147592421759 1 I I -0.70710678118654746 0.70710678118654746 0.25 forward I I I I #
loop $-1 $-1 $312 $85 #
coedge $-1 $196 $196 $313 $314 reversed $123 $-1 #
face $-1 $-1 $315 $67 $-1 $316 forward single #
loop $-1 $317 $318 $125 #
cone-surface $-1 -45.02765184279734 13.020280068700586 4.4727605046364136 0.6560590369687036 0 -0.75470957328743171 0.18867739332185793 0 0.1640147592421759 1 I I -0.70710678118654746 0.70710678118654746 0.25 forward I I I I #
loop $-1 $-1 $319 $86 #
coedge $-1 $201 $201 $320 $321 reversed $126 $-1 #
face $-1 $322 $323 $68 $-1 $324 reversed single #
loop $-1 $-1 $325 $128 #
plane-surface $-1 -25.855427542519116 -9.2542250485619633 68.453918557646702 0.6560590369687036 0 0.75470957328743171 0.75470957328743171 0 -0.6560590369687036 forward_v I I I I #
coedge $-1 $326 $327 $328 $329 reversed $129 $-1 #
face $-1 $-1 $330 $69 $-1 $331 forward single #
loop $-1 $332 $333 $131 #
cone-surface $-1 45.027651842797347 -12.146430112060056 4.4727605046364136 -0.6560590369687036 0 -0.75470957328743171 0.18867739332185793 0 -0.1640147592421759 1 I I -0.70710678118654746 0.70710678118654746 0.25 forward I I I I #
loop $-1 $-1 $334 $88 #
coedge $-1 $210 $210 $335 $336 reversed $132 $-1 #
face $-1 $-1 $337 $70 $-1 $338 forward single #
loop $-1 $339 $340 $134 #
cone-surface $-1 45.027651842797347 -9.2542250485619633 4.4727605046364136 -0.6560590369687036 0 -0.75470957328743171 0.18867739332185793 0 -0.1640147592421759 1 I I -0.70710678118654746 0.70710678118654746 0.25 forward I I I I #
loop $-1 $-1 $341 $89 #
coedge $-1 $215 $215 $342 $343 reversed $135 $-1 #
face $-1 $-1 $344 $71 $-1 $345 forward single #
loop $-1 $346 $347 $137 #
cone-surface $-1 45.027651842797347 -6.3620199850638706 4.4727605046364136 -0.6560590369687036 0 -0.75470957328743171 0.18867739332185793 0 -0.1640147592421759 1 I I -0.70710678118654746 0.70710678118654746 0.25 forward I I I I #
loop $-1 $-1 $348 $90 #
coedge $-1 $220 $220 $349 $350 reversed $138 $-1 #
face $-1 $351 $352 $72 $-1 $353 reversed single #
loop $-1 $-1 $354 $140 #
plane-surface $-1 -25.855427542519116 10.12807500520249 68.453918557646702 0.6560590369687036 0 0.75470957328743171 0.75470957328743171 0 -0.6560590369687036 forward_v I I I I #
coedge $-1 $355 $356 $357 $358 reversed $141 $-1 #
face $-1 $-1 $359 $73 $-1 $360 forward single #
loop $-1 $361 $362 $143 #
cone-surface $-1 45.027651842797347 7.2358699417043937 4.4727605046364136 -0.6560590369687036 0 -0.75470957328743171 0.18867739332185793 0 -0.1640147592421759 1 I I -0.70710678118654746 0.70710678118654746 0.25 forward I I I I #
loop $-1 $-1 $363 $92 #
coedge $-1 $229 $229 $364 $365 reversed $144 $-1 #
face $-1 $-1 $366 $74 $-1 $367 forward single #
loop $-1 $368 $369 $146 #
cone-surface $-1 45.027651842797347 10.12807500520249 4.4727605046364136 -0.6560590369687036 0 -0.75470957328743171 0.18867739332185793 0 -0.1640147592421759 1 I I -0.70710678118654746 0.70710678118654746 0.25 forward I I I I #
loop $-1 $-1 $370 $93 #
coedge $-1 $234 $234 $371 $372 reversed $147 $-1 #
face $-1 $-1 $373 $75 $-1 $374 forward single #
loop $-1 $375 $376 $149 #
cone-surface $-1 45.027651842797347 13.020280068700586 4.4727605046364136 -0.6560590369687036 0 -0.75470957328743171 0.18867739332185793 0 -0.1640147592421759 1 I I -0.70710678118654746 0.70710678118654746 0.25 forward I I I I #
loop $-1 $-1 $377 $94 #
coedge $-1 $239 $239 $378 $379 reversed $150 $-1 #
face $-1 $380 $381 $57 $-1 $382 reversed single #
loop $-1 $-1 $383 $152 #
plane-surface $-1 0 -26.705748168012306 0 0 1 0 0 0 1 forward_v I I I I #
coedge $-1 $384 $385 $386 $387 forward $153 $-1 #
coedge $-1 $388 $155 $389 $390 forward $96 $-1 #
coedge $-1 $155 $388 $391 $392 forward $96 $-1 #
coedge $-1 $393 $394 $155 $247 reversed $395 $-1 #
edge $-1 $396 -26.705748168012306 $397 26.705748168012306 $246 $398 forward 7 unknown #
face $-1 $399 $400 $58 $-1 $401 reversed single #
loop $-1 $-1 $402 $156 #
plane-surface $-1 0 0 -9.7801540403860852 0 0 1 1 0 0 forward_v I I I I #
coedge $-1 $403 $404 $405 $406 reversed $157 $-1 #
coedge $-1 $407 $159 $404 $408 forward $99 $-1 #
coedge $-1 $159 $407 $409 $410 reversed $99 $-1 #
coedge $-1 $411 $405 $159 $255 forward $400 $-1 #
edge $-1 $412 7.8602879983202634 $413 15.183736112568116 $254 $414 forward 7 unknown #
face $-1 $415 $416 $59 $-1 $417 reversed single #
loop $-1 $-1 $262 $160 #
plane-surface $-1 50.75472273934141 0 0 -1 0 0 0 0 1 forward_v I I I I #
coedge $-1 $418 $419 $420 $421 reversed $161 $-1 #
coedge $-1 $422 $163 $423 $424 reversed $102 $-1 #
coedge $-1 $163 $422 $419 $425 forward $102 $-1 #
coedge $-1 $426 $427 $163 $263 forward $257 $-1 #
edge $-1 $428 -15.183736112568116 $429 -7.8602879983202634 $262 $430 forward 7 unknown #
face $-1 $431 $432 $60 $-1 $433 reversed single #
loop $-1 $-1 $434 $164 #
plane-surface $-1 -117.35091178331319 -14.074566821058784 78.467879795535453 0 1 0 -0.6560590369687036 0 0.75470957328743171 forward_v I I I I #
coedge $-1 $435 $436 $437 $438 reversed $165 $-1 #
coedge $-1 $269 $167 $439 $440 reversed $105 $-1 #
coedge $-1 $167 $268 $435 $441 reversed $105 $-1 #
coedge $-1 $437 $442 $167 $271 forward $432 $-1 #
edge $-1 $443 29.453785857381639 $444 37.376210384092794 $270 $445 forward 7 unknown #
loop $-1 $-1 $277 $168 #
plane-surface $-1 -50.754722739341418 -9.2542250485619633 1.8577295136749257 -0.6560590369687036 0 0.75470957328743171 0.75470957328743171 0 0.6560590369687036 forward_v I I I I #
loop $-1 $-1 $446 $107 #
coedge $-1 $275 $275 $276 $447 reversed $169 $-1 #
coedge $-1 $276 $276 $275 $447 forward $171 $-1 #
coedge $-1 $277 $277 $172 $278 forward $272 $-1 #
edge $-1 $448 0 $448 6.2831853071796004 $277 $449 forward 7 unknown #
loop $-1 $-1 $284 $173 #
plane-surface $-1 -50.754722739341418 -9.2542250485619633 1.8577295136749257 -0.6560590369687036 0 0.75470957328743171 0.75470957328743171 0 0.6560590369687036 forward_v I I I I #
loop $-1 $-1 $450 $110 #
coedge $-1 $282 $282 $283 $451 reversed $174 $-1 #
coedge $-1 $283 $283 $282 $451 forward $176 $-1 #
coedge $-1 $284 $284 $177 $285 forward $279 $-1 #
edge $-1 $452 0 $452 6.2831853071796004 $284 $453 forward 7 unknown #
loop $-1 $-1 $291 $178 #
plane-surface $-1 -50.754722739341418 -9.2542250485619633 1.8577295136749257 -0.6560590369687036 0 0.75470957328743171 0.75470957328743171 0 0.6560590369687036 forward_v I I I I #
loop $-1 $-1 $454 $113 #
coedge $-1 $289 $289 $290 $455 reversed $179 $-1 #
coedge $-1 $290 $290 $289 $455 forward $181 $-1 #
coedge $-1 $291 $291 $182 $292 forward $286 $-1 #
edge $-1 $456 0 $456 6.2831853071796004 $291 $457 forward 7 unknown #
face $-1 $458 $459 $64 $-1 $460 forward single #
loop $-1 $-1 $461 $183 #
plane-surface $-1 -117.35091178331319 5.3077332327056688 78.467879795535453 0 1 0 -0.6560590369687036 0 0.75470957328743171 forward_v I I I I #
coedge $-1 $462 $463 $464 $465 reversed $184 $-1 #
coedge $-1 $298 $186 $466 $467 reversed $117 $-1 #
coedge $-1 $186 $297 $462 $468 reversed $117 $-1 #
coedge $-1 $464 $469 $186 $300 forward $470 $-1 #
edge $-1 $471 29.453785857381639 $472 37.376210384092794 $299 $473 forward 7 unknown #
loop $-1 $-1 $306 $187 #
plane-surface $-1 -50.754722739341418 10.12807500520249 1.8577295136749257 -0.6560590369687036 0 0.75470957328743171 0.75470957328743171 0 0.6560590369687036 forward_v I I I I #
loop $-1 $-1 $474 $119 #
coedge $-1 $304 $304 $305 $475 reversed $188 $-1 #
coedge $-1 $305 $305 $304 $475 forward $190 $-1 #
coedge $-1 $306 $306 $191 $307 forward $301 $-1 #
edge $-1 $476 0 $476 6.2831853071796004 $306 $477 forward 7 unknown #
loop $-1 $-1 $313 $192 #
plane-surface $-1 -50.754722739341418 10.12807500520249 1.8577295136749257 -0.6560590369687036 0 0.75470957328743171 0.75470957328743171 0 0.6560590369687036 forward_v I I I I #
loop $-1 $-1 $478 $122 #
coedge $-1 $311 $311 $312 $479 reversed $193 $-1 #
coedge $-1 $312 $312 $311 $479 forward $195 $-1 #
coedge $-1 $313 $313 $196 $314 forward $308 $-1 #
edge $-1 $480 0 $480 6.2831853071796004 $313 $481 forward 7 unknown #
loop $-1 $-1 $320 $197 #
plane-surface $-1 -50.754722739341418 10.12807500520249 1.8577295136749257 -0.6560590369687036 0 0.75470957328743171 0.75470957328743171 0 0.6560590369687036 forward_v I I I I #
loop $-1 $-1 $482 $125 #
coedge $-1 $318 $318 $319 $483 reversed $198 $-1 #
coedge $-1 $319 $319 $318 $483 forward $200 $-1 #
coedge $-1 $320 $320 $201 $321 forward $315 $-1 #
edge $-1 $484 0 $484 6.2831853071796004 $320 $485 forward 7 unknown #
face $-1 $486 $487 $68 $-1 $488 forward single #
loop $-1 $-1 $489 $202 #
plane-surface $-1 40.74076150145266 -14.074566821058784 145.06406883950723 0 1 0 0.6560590369687036 0 0.75470957328743171 forward_v I I I I #
coedge $-1 $490 $491 $492 $493 reversed $203 $-1 #
coedge $-1 $327 $205 $494 $495 reversed $129 $-1 #
coedge $-1 $205 $326 $490 $496 reversed $129 $-1 #
coedge $-1 $492 $497 $205 $329 forward $487 $-1 #
edge $-1 $498 -30.384341988615081 $499 -21.270635299073223 $328 $500 forward 7 unknown #
loop $-1 $-1 $335 $206 #
plane-surface $-1 -25.855427542519116 -9.2542250485619633 68.453918557646702 0.6560590369687036 0 0.75470957328743171 0.75470957328743171 0 -0.6560590369687036 forward_v I I I I #
loop $-1 $-1 $501 $131 #
coedge $-1 $333 $333 $334 $502 reversed $207 $-1 #
coedge $-1 $334 $334 $333 $502 forward $209 $-1 #
coedge $-1 $335 $335 $210 $336 forward $330 $-1 #
edge $-1 $503 0 $503 6.2831853071796004 $335 $504 forward 7 unknown #
loop $-1 $-1 $342 $211 #
plane-surface $-1 -25.855427542519116 -9.2542250485619633 68.453918557646702 0.6560590369687036 0 0.75470957328743171 0.75470957328743171 0 -0.6560590369687036 forward_v I I I I #
loop $-1 $-1 $505 $134 #
coedge $-1 $340 $340 $341 $506 reversed $212 $-1 #
coedge $-1 $341 $341 $340 $506 forward $214 $-1 #
coedge $-1 $342 $342 $215 $343 forward $337 $-1 #
edge $-1 $507 0 $507 6.2831853071796004 $342 $508 forward 7 unknown #
loop $-1 $-1 $349 $216 #
plane-surface $-1 -25.855427542519116 -9.2542250485619633 68.453918557646702 0.6560590369687036 0 0.75470957328743171 0.75470957328743171 0 -0.6560590369687036 forward_v I I I I #
loop $-1 $-1 $509 $137 #
coedge $-1 $347 $347 $348 $510 reversed $217 $-1 #
coedge $-1 $348 $348 $347 $510 forward $219 $-1 #
coedge $-1 $349 $349 $220 $350 forward $344 $-1 #
edge $-1 $511 0 $511 6.2831853071796004 $349 $512 forward 7 unknown #
face $-1 $513 $514 $72 $-1 $515 reversed single #
loop $-1 $-1 $516 $221 #
plane-surface $-1 40.74076150145266 5.3077332327056688 145.06406883950723 0 1 0 0.6560590369687036 0 0.75470957328743171 forward_v I I I I #
coedge $-1 $517 $518 $519 $520 reversed $222 $-1 #
coedge $-1 $356 $224 $521 $522 reversed $141 $-1 #
coedge $-1 $224 $355 $517 $523 reversed $141 $-1 #
coedge $-1 $519 $524 $224 $358 forward $525 $-1 #
edge $-1 $526 -30.384341988615081 $527 -21.270635299073223 $357 $528 forward 7 unknown #
loop $-1 $-1 $364 $225 #
plane-surface $-1 -25.855427542519116 10.12807500520249 68.453918557646702 0.6560590369687036 0 0.75470957328743171 0.75470957328743171 0 -0.6560590369687036 forward_v I I I I #
loop $-1 $-1 $529 $143 #
coedge $-1 $362 $362 $363 $530 reversed $226 $-1 #
coedge $-1 $363 $363 $362 $530 forward $228 $-1 #
coedge $-1 $364 $364 $229 $365 forward $359 $-1 #
edge $-1 $531 0 $531 6.2831853071796004 $364 $532 forward 7 unknown #
loop $-1 $-1 $371 $230 #
plane-surface $-1 -25.855427542519116 10.12807500520249 68.453918557646702 0.6560590369687036 0 0.75470957328743171 0.75470957328743171 0 -0.6560590369687036 forward_v I I I I #
loop $-1 $-1 $533 $146 #
coedge $-1 $369 $369 $370 $534 reversed $231 $-1 #
coedge $-1 $370 $370 $369 $534 forward $233 $-1 #
coedge $-1 $371 $371 $234 $372 forward $366 $-1 #
edge $-1 $535 0 $535 6.2831853071796004 $371 $536 forward 7 unknown #
loop $-1 $-1 $378 $235 #
plane-surface $-1 -25.855427542519116 10.12807500520249 68.453918557646702 0.6560590369687036 0 0.75470957328743171 0.75470957328743171 0 -0.6560590369687036 forward_v I I I I #
loop $-1 $-1 $537 $149 #
coedge $-1 $376 $376 $377 $538 reversed $236 $-1 #
coedge $-1 $377 $377 $376 $538 forward $238 $-1 #
coedge $-1 $378 $378 $239 $379 forward $373 $-1 #
edge $-1 $539 0 $539 6.2831853071796004 $378 $540 forward 7 unknown #
face $-1 $541 $542 $57 $-1 $543 reversed single #
loop $-1 $-1 $544 $240 #
plane-surface $-1 -50.75472273934141 0 0 1 0 0 0 0 -1 forward_v I I I I #
coedge $-1 $545 $391 $546 $547 forward $241 $-1 #
coedge $-1 $548 $243 $545 $549 forward $153 $-1 #
coedge $-1 $243 $548 $550 $551 forward $153 $-1 #
coedge $-1 $394 $393 $243 $387 reversed $395 $-1 #
edge $-1 $552 -26.705748168012306 $553 26.705748168012306 $386 $554 forward 7 unknown #
coedge $-1 $245 $244 $555 $556 forward $96 $-1 #
coedge $-1 $557 $558 $244 $390 reversed $542 $-1 #
edge $-1 $397 -50.75472273934141 $559 50.75472273934141 $389 $560 forward 7 unknown #
coedge $-1 $383 $561 $245 $392 reversed $241 $-1 #
edge $-1 $562 -50.75472273934141 $396 50.75472273934141 $391 $563 forward 7 unknown #
coedge $-1 $386 $246 $561 $564 forward $395 $-1 #
coedge $-1 $246 $386 $557 $565 reversed $395 $-1 #
loop $-1 $-1 $393 $541 #
vertex $-1 $247 $566 #
vertex $-1 $247 $567 #
straight-curve $-1 50.75472273934141 0 9.7801540403860852 0 1 0 I I #
face $-1 $568 $569 $58 $-1 $570 reversed single #
loop $-1 $-1 $405 $248 #
plane-surface $-1 50.75472273934141 0 0 -1 0 0 0 0 1 forward_v I I I I #
coedge $-1 $571 $572 $403 $573 forward $249 $-1 #
coedge $-1 $574 $251 $402 $573 reversed $157 $-1 #
coedge $-1 $251 $574 $252 $408 reversed $157 $-1 #
coedge $-1 $254 $575 $251 $406 forward $400 $-1 #
edge $-1 $576 -5.9787224512426409 $412 -1.6241407270442476 $405 $577 forward 7 unknown #
coedge $-1 $253 $252 $578 $579 reversed $99 $-1 #
edge $-1 $412 -50.75472273934141 $580 50.75472273934141 $404 $581 forward 7 unknown #
coedge $-1 $582 $583 $253 $410 forward $569 $-1 #
edge $-1 $413 -50.75472273934141 $584 50.75472273934141 $409 $585 forward 7 unknown #
coedge $-1 $575 $254 $583 $586 forward $400 $-1 #
vertex $-1 $255 $587 #
vertex $-1 $586 $588 #
straight-curve $-1 50.75472273934141 -11.52201205544419 -5.4255723161876919 0 -1 0 I I #
face $-1 $589 $590 $59 $-1 $591 reversed single #
loop $-1 $-1 $592 $256 #
plane-surface $-1 0 0 -9.7801540403860852 0 0 1 1 0 0 forward_v I I I I #
coedge $-1 $593 $259 $592 $594 reversed $161 $-1 #
coedge $-1 $259 $593 $261 $425 reversed $161 $-1 #
coedge $-1 $595 $596 $259 $421 forward $590 $-1 #
edge $-1 $597 -5.9787224512426409 $598 -1.6241407270442476 $420 $599 forward 7 unknown #
coedge $-1 $261 $260 $595 $600 reversed $102 $-1 #
coedge $-1 $601 $602 $260 $424 forward $603 $-1 #
edge $-1 $604 -50.75472273934141 $428 50.75472273934141 $423 $605 forward 7 unknown #
edge $-1 $598 -50.75472273934141 $429 50.75472273934141 $419 $606 forward 7 unknown #
coedge $-1 $607 $262 $593 $608 forward $257 $-1 #
coedge $-1 $262 $607 $601 $609 reversed $257 $-1 #
vertex $-1 $609 $610 #
vertex $-1 $263 $611 #
straight-curve $-1 50.75472273934141 11.52201205544419 -5.4255723161876919 0 -1 0 I I #
face $-1 $-1 $612 $60 $-1 $613 forward single #
loop $-1 $-1 $270 $264 #
plane-surface $-1 -50.75472273934141 0 0 1 0 0 0 0 -1 forward_v I I I I #
coedge $-1 $614 $615 $616 $617 reversed $265 $-1 #
coedge $-1 $618 $267 $269 $441 forward $165 $-1 #
coedge $-1 $267 $618 $614 $619 forward $165 $-1 #
coedge $-1 $616 $270 $267 $438 forward $432 $-1 #
edge $-1 $444 -0.19322924821583953 $620 9.4474542967778028 $437 $621 forward 7 unknown #
coedge $-1 $622 $623 $268 $440 forward $612 $-1 #
edge $-1 $624 -17.034439841857036 $443 -7.9207331523151865 $439 $625 forward 7 unknown #
edge $-1 $444 9.44141639987384e-015 $624 12.075779892182307 $269 $626 forward 7 unknown #
coedge $-1 $270 $616 $622 $627 reversed $432 $-1 #
vertex $-1 $627 $628 #
vertex $-1 $271 $629 #
straight-curve $-1 -50.75472273934141 -4.4338832760651421 39.233939897767726 0 0 -1 I I #
coedge $-1 $446 $446 $-1 $630 reversed $274 $-1 #
edge $-1 $631 0 $631 6.2831853071796004 $275 $632 forward 7 unknown #
vertex $-1 $278 $633 #
ellipse-curve $-1 -46.197869394570482 -12.146430112060056 5.8189417770305099 -0.6560590369687036 0 0.75470957328743171 0.37735478664371586 0 0.3280295184843518 1 I I #
coedge $-1 $450 $450 $-1 $634 reversed $281 $-1 #
edge $-1 $635 0 $635 6.2831853071796004 $282 $636 forward 7 unknown #
vertex $-1 $285 $637 #
ellipse-curve $-1 -46.197869394570482 -9.2542250485619633 5.8189417770305099 -0.6560590369687036 0 0.75470957328743171 0.37735478664371586 0 0.3280295184843518 1 I I #
coedge $-1 $454 $454 $-1 $638 reversed $288 $-1 #
edge $-1 $639 0 $639 6.2831853071796004 $289 $640 forward 7 unknown #
vertex $-1 $292 $641 #
ellipse-curve $-1 -46.197869394570482 -6.3620199850638706 5.8189417770305099 -0.6560590369687036 0 0.75470957328743171 0.37735478664371586 0 0.3280295184843518 1 I I #
face $-1 $-1 $470 $64 $-1 $642 reversed single #
loop $-1 $-1 $643 $293 #
plane-surface $-1 0 0 9.7801540403860852 0 0 1 1 0 0 forward_v I I I I #
coedge $-1 $644 $645 $646 $647 reversed $294 $-1 #
coedge $-1 $648 $296 $298 $468 forward $184 $-1 #
coedge $-1 $296 $648 $644 $649 forward $184 $-1 #
coedge $-1 $646 $299 $296 $465 forward $470 $-1 #
edge $-1 $472 -9.8843792750980661 $650 -0.2436957301044238 $464 $651 forward 7 unknown #
coedge $-1 $652 $653 $297 $467 forward $459 $-1 #
edge $-1 $654 -17.034439841857036 $471 -7.9207331523151865 $466 $655 forward 7 unknown #
edge $-1 $472 9.44141639987384e-015 $654 12.075779892182307 $298 $656 forward 7 unknown #
coedge $-1 $299 $646 $652 $657 reversed $470 $-1 #
loop $-1 $-1 $646 $458 #
vertex $-1 $657 $658 #
vertex $-1 $300 $659 #
straight-curve $-1 -50.75472273934141 14.948416777699311 39.233939897767726 0 0 -1 I I #
coedge $-1 $474 $474 $-1 $660 reversed $303 $-1 #
edge $-1 $661 0 $661 6.2831853071796004 $304 $662 forward 7 unknown #
vertex $-1 $307 $663 #
ellipse-curve $-1 -46.197869394570482 7.2358699417043937 5.8189417770305099 -0.6560590369687036 0 0.75470957328743171 0.37735478664371586 0 0.3280295184843518 1 I I #
coedge $-1 $478 $478 $-1 $664 reversed $310 $-1 #
edge $-1 $665 0 $665 6.2831853071796004 $311 $666 forward 7 unknown #
vertex $-1 $314 $667 #
ellipse-curve $-1 -46.197869394570482 10.12807500520249 5.8189417770305099 -0.6560590369687036 0 0.75470957328743171 0.37735478664371586 0 0.3280295184843518 1 I I #
coedge $-1 $482 $482 $-1 $668 reversed $317 $-1 #
edge $-1 $669 0 $669 6.2831853071796004 $318 $670 forward 7 unknown #
vertex $-1 $321 $671 #
ellipse-curve $-1 -46.197869394570482 13.020280068700586 5.8189417770305099 -0.6560590369687036 0 0.75470957328743171 0.37735478664371586 0 0.3280295184843518 1 I I #
face $-1 $-1 $672 $68 $-1 $673 reversed single #
loop $-1 $-1 $328 $322 #
plane-surface $-1 0 0 9.7801540403860852 0 0 1 1 0 0 forward_v I I I I #
coedge $-1 $674 $675 $676 $677 reversed $323 $-1 #
coedge $-1 $678 $325 $327 $496 forward $203 $-1 #
coedge $-1 $325 $678 $674 $679 forward $203 $-1 #
coedge $-1 $676 $328 $325 $493 forward $487 $-1 #
edge $-1 $499 -0.19322924821583953 $680 9.4474542967778028 $492 $681 forward 7 unknown #
coedge $-1 $682 $683 $326 $495 forward $672 $-1 #
edge $-1 $684 -70.674304906078689 $498 -62.751880379367527 $494 $685 forward 7 unknown #
edge $-1 $499 89.433665586500524 $684 101.50944547868284 $327 $686 forward 7 unknown #
coedge $-1 $328 $676 $682 $687 forward $487 $-1 #
vertex $-1 $329 $688 #
vertex $-1 $329 $689 #
straight-curve $-1 20.37038075072633 -4.4338832760651421 9.7801540403860798 -1 0 0 I I #
coedge $-1 $501 $501 $-1 $690 reversed $332 $-1 #
edge $-1 $691 0 $691 6.2831853071796004 $333 $692 forward 7 unknown #
vertex $-1 $336 $693 #
ellipse-curve $-1 46.197869394570489 -12.146430112060056 5.8189417770305045 0.6560590369687036 0 0.75470957328743171 0.37735478664371586 0 -0.3280295184843518 1 I I #
coedge $-1 $505 $505 $-1 $694 reversed $339 $-1 #
edge $-1 $695 0 $695 6.2831853071796004 $340 $696 forward 7 unknown #
vertex $-1 $343 $697 #
ellipse-curve $-1 46.197869394570489 -9.2542250485619633 5.8189417770305045 0.6560590369687036 0 0.75470957328743171 0.37735478664371586 0 -0.3280295184843518 1 I I #
coedge $-1 $509 $509 $-1 $698 reversed $346 $-1 #
edge $-1 $699 0 $699 6.2831853071796004 $347 $700 forward 7 unknown #
vertex $-1 $350 $701 #
ellipse-curve $-1 46.197869394570489 -6.3620199850638706 5.8189417770305045 0.6560590369687036 0 0.75470957328743171 0.37735478664371586 0 -0.3280295184843518 1 I I #
face $-1 $-1 $525 $72 $-1 $702 forward single #
loop $-1 $-1 $703 $351 #
plane-surface $-1 50.75472273934141 0 0 -1 0 0 0 0 1 forward_v I I I I #
coedge $-1 $704 $705 $706 $707 reversed $352 $-1 #
coedge $-1 $708 $354 $356 $523 forward $222 $-1 #
coedge $-1 $354 $708 $704 $709 forward $222 $-1 #
coedge $-1 $706 $357 $354 $520 forward $525 $-1 #
edge $-1 $527 -9.8843792750980661 $710 -0.2436957301044238 $519 $711 forward 7 unknown #
coedge $-1 $712 $713 $355 $522 forward $514 $-1 #
edge $-1 $714 -70.674304906078689 $526 -62.751880379367527 $521 $715 forward 7 unknown #
edge $-1 $527 89.433665586500524 $714 101.50944547868284 $356 $716 forward 7 unknown #
coedge $-1 $357 $706 $712 $717 forward $525 $-1 #
loop $-1 $-1 $706 $513 #
vertex $-1 $522 $718 #
vertex $-1 $358 $719 #
straight-curve $-1 20.37038075072633 14.948416777699311 9.7801540403860798 -1 0 0 I I #
coedge $-1 $529 $529 $-1 $720 reversed $361 $-1 #
edge $-1 $721 0 $721 6.2831853071796004 $362 $722 forward 7 unknown #
vertex $-1 $365 $723 #
ellipse-curve $-1 46.197869394570489 7.2358699417043937 5.8189417770305045 0.6560590369687036 0 0.75470957328743171 0.37735478664371586 0 -0.3280295184843518 1 I I #
coedge $-1 $533 $533 $-1 $724 reversed $368 $-1 #
edge $-1 $725 0 $725 6.2831853071796004 $369 $726 forward 7 unknown #
vertex $-1 $372 $727 #
ellipse-curve $-1 46.197869394570489 10.12807500520249 5.8189417770305045 0.6560590369687036 0 0.75470957328743171 0.37735478664371586 0 -0.3280295184843518 1 I I #
coedge $-1 $537 $537 $-1 $728 reversed $375 $-1 #
edge $-1 $729 0 $729 6.2831853071796004 $376 $730 forward 7 unknown #
vertex $-1 $379 $731 #
ellipse-curve $-1 46.197869394570489 13.020280068700586 5.8189417770305045 0.6560590369687036 0 0.75470957328743171 0.37735478664371586 0 -0.3280295184843518 1 I I #
face $-1 $-1 $395 $57 $-1 $732 reversed single #
loop $-1 $-1 $557 $380 #
plane-surface $-1 0 26.705748168012306 0 0 -1 0 0 0 -1 forward_v I I I I #
coedge $-1 $733 $555 $558 $734 forward $381 $-1 #
coedge $-1 $561 $383 $384 $549 reversed $241 $-1 #
coedge $-1 $555 $733 $383 $547 reversed $381 $-1 #
edge $-1 $562 -9.7801540403860852 $735 9.7801540403860852 $546 $736 forward 7 unknown #
coedge $-1 $385 $384 $733 $737 forward $153 $-1 #
edge $-1 $553 -50.75472273934141 $735 50.75472273934141 $545 $738 forward 7 unknown #
coedge $-1 $558 $557 $385 $551 reversed $542 $-1 #
edge $-1 $739 -50.75472273934141 $552 50.75472273934141 $550 $740 forward 7 unknown #
vertex $-1 $387 $741 #
vertex $-1 $564 $742 #
straight-curve $-1 50.75472273934141 0 -9.7801540403860852 0 -1 0 I I #
coedge $-1 $544 $546 $388 $556 reversed $381 $-1 #
edge $-1 $559 -26.705748168012306 $562 26.705748168012306 $555 $743 forward 7 unknown #
coedge $-1 $550 $389 $394 $565 forward $542 $-1 #
coedge $-1 $389 $550 $544 $734 reversed $542 $-1 #
vertex $-1 $390 $744 #
straight-curve $-1 0 26.705748168012306 9.7801540403860852 -1 0 0 I I #
coedge $-1 $391 $545 $393 $564 reversed $241 $-1 #
vertex $-1 $556 $745 #
straight-curve $-1 0 -26.705748168012306 9.7801540403860852 1 0 0 I I #
edge $-1 $396 -9.7801540403860852 $553 9.7801540403860852 $393 $746 forward 7 unknown #
edge $-1 $397 -9.7801540403860852 $552 9.7801540403860852 $394 $747 forward 7 unknown #
point $-1 50.75472273934141 -26.705748168012306 9.7801540403860852 #
point $-1 50.75472273934141 26.705748168012306 9.7801540403860852 #
face $-1 $-1 $748 $58 $-1 $749 reversed single #
loop $-1 $-1 $409 $399 #
plane-surface $-1 0 -26.705748168012306 0 0 1 0 0 0 1 forward_v I I I I #
coedge $-1 $750 $402 $575 $751 forward $249 $-1 #
coedge $-1 $402 $750 $752 $753 forward $249 $-1 #
edge $-1 $754 -50.75472273934141 $576 50.75472273934141 $402 $755 forward 7 unknown #
coedge $-1 $404 $403 $756 $757 reversed $157 $-1 #
coedge $-1 $405 $411 $571 $751 reversed $400 $-1 #
vertex $-1 $751 $758 #
straight-curve $-1 50.75472273934141 -19.382300053764453 -3.8014315891434443 0 0 1 I I #
coedge $-1 $756 $759 $407 $579 forward $748 $-1 #
edge $-1 $584 -15.183736112568116 $580 -7.8602879983202634 $578 $760 forward 7 unknown #
vertex $-1 $579 $761 #
straight-curve $-1 0 -19.382300053764453 -5.4255723161876919 -1 0 0 I I #
coedge $-1 $762 $409 $759 $763 forward $569 $-1 #
coedge $-1 $409 $762 $411 $586 reversed $569 $-1 #
vertex $-1 $763 $764 #
straight-curve $-1 0 -26.705748168012306 -5.4255723161876919 -1 0 0 I I #
edge $-1 $413 5.4255723161876919 $765 9.7801540403860852 $411 $766 forward 7 unknown #
point $-1 50.75472273934141 -19.382300053764453 -5.4255723161876919 #
point $-1 50.75472273934141 -26.705748168012306 -5.4255723161876919 #
face $-1 $-1 $603 $59 $-1 $767 reversed single #
loop $-1 $-1 $595 $415 #
plane-surface $-1 -50.75472273934141 0 0 1 0 0 0 0 -1 forward_v I I I I #
coedge $-1 $768 $769 $418 $594 forward $416 $-1 #
coedge $-1 $419 $418 $426 $608 reversed $161 $-1 #
edge $-1 $770 -50.75472273934141 $597 50.75472273934141 $592 $771 forward 7 unknown #
coedge $-1 $772 $420 $422 $600 forward $590 $-1 #
coedge $-1 $420 $772 $768 $773 reversed $590 $-1 #
vertex $-1 $773 $774 #
vertex $-1 $600 $775 #
straight-curve $-1 -50.75472273934141 19.382300053764453 -3.8014315891434443 0 0 1 I I #
edge $-1 $598 7.8602879983202634 $604 15.183736112568116 $595 $776 forward 7 unknown #
coedge $-1 $777 $423 $427 $609 forward $603 $-1 #
coedge $-1 $423 $777 $772 $778 reversed $603 $-1 #
loop $-1 $-1 $423 $589 #
vertex $-1 $778 $779 #
straight-curve $-1 0 26.705748168012306 -5.4255723161876919 1 0 0 I I #
straight-curve $-1 0 19.382300053764453 -5.4255723161876919 1 0 0 I I #
coedge $-1 $427 $426 $769 $780 reversed $257 $-1 #
edge $-1 $429 1.6241407270442476 $770 5.9787224512426409 $426 $781 forward 7 unknown #
edge $-1 $428 5.4255723161876919 $782 9.7801540403860852 $427 $783 forward 7 unknown #
point $-1 50.75472273934141 26.705748168012306 -5.4255723161876919 #
point $-1 50.75472273934141 19.382300053764453 -5.4255723161876919 #
loop $-1 $-1 $439 $431 #
plane-surface $-1 0 0 9.7801540403860852 0 0 1 1 0 0 forward_v I I I I #
coedge $-1 $615 $434 $436 $619 reversed $265 $-1 #
coedge $-1 $434 $614 $784 $785 reversed $265 $-1 #
coedge $-1 $442 $437 $434 $617 forward $432 $-1 #
edge $-1 $620 -37.376210384092794 $786 -29.453785857381639 $616 $787 forward 7 unknown #
coedge $-1 $436 $435 $623 $788 reversed $165 $-1 #
edge $-1 $789 -12.075779892182307 $620 -9.44141639987384e-015 $614 $790 forward 7 unknown #
vertex $-1 $438 $791 #
straight-curve $-1 -50.75472273934141 -4.6271125242809816 1.8577295136749341 0 -1 0 I I #
coedge $-1 $784 $439 $442 $627 forward $612 $-1 #
coedge $-1 $439 $784 $618 $788 forward $612 $-1 #
vertex $-1 $440 $792 #
straight-curve $-1 -58.675455891656597 -4.4338832760651421 9.7801540403860869 -1 0 0 I I #
straight-curve $-1 -50.754722739341418 -4.4338832760651421 1.8577295136749257 0.75470957328743171 0 0.6560590369687036 I I #
edge $-1 $443 4.4338832760651421 $786 14.074566821058784 $442 $793 forward 7 unknown #
point $-1 -50.75472273934141 -4.4338832760651421 9.7801540403860852 #
point $-1 -50.75472273934141 -4.4338832760651421 1.8577295136749319 #
edge $-1 $794 1 $794 0 $446 $-1 forward 7 unknown #
vertex $-1 $447 $795 #
ellipse-curve $-1 -45.191666602039518 -12.146430112060056 4.6614378979582716 -0.6560590369687036 0 0.75470957328743171 0.37735478664371586 0 0.3280295184843518 1 I I #
point $-1 -45.820514607926768 -12.146430112060056 6.1469712955148559 #
edge $-1 $796 1 $796 0 $450 $-1 forward 7 unknown #
vertex $-1 $451 $797 #
ellipse-curve $-1 -45.191666602039518 -9.2542250485619633 4.6614378979582716 -0.6560590369687036 0 0.75470957328743171 0.37735478664371586 0 0.3280295184843518 1 I I #
point $-1 -45.820514607926768 -9.2542250485619633 6.1469712955148559 #
edge $-1 $798 1 $798 0 $454 $-1 forward 7 unknown #
vertex $-1 $455 $799 #
ellipse-curve $-1 -45.191666602039518 -6.3620199850638706 4.6614378979582716 -0.6560590369687036 0 0.75470957328743171 0.37735478664371586 0 0.3280295184843518 1 I I #
point $-1 -45.820514607926768 -6.3620199850638706 6.1469712955148559 #
plane-surface $-1 -50.75472273934141 0 0 1 0 0 0 0 -1 forward_v I I I I #
coedge $-1 $653 $652 $645 $800 forward $459 $-1 #
coedge $-1 $645 $461 $463 $649 reversed $294 $-1 #
coedge $-1 $461 $644 $643 $800 reversed $294 $-1 #
coedge $-1 $469 $464 $461 $647 forward $470 $-1 #
edge $-1 $650 -37.376210384092794 $801 -29.453785857381639 $646 $802 forward 7 unknown #
coedge $-1 $463 $462 $653 $803 reversed $184 $-1 #
edge $-1 $804 -12.075779892182307 $650 -9.44141639987384e-015 $644 $805 forward 7 unknown #
vertex $-1 $465 $806 #
straight-curve $-1 -50.75472273934141 5.064037502601245 1.8577295136749341 0 -1 0 I I #
coedge $-1 $643 $466 $469 $657 forward $459 $-1 #
coedge $-1 $466 $643 $648 $803 forward $459 $-1 #
vertex $-1 $467 $807 #
straight-curve $-1 -58.675455891656597 14.948416777699311 9.7801540403860869 -1 0 0 I I #
straight-curve $-1 -50.754722739341418 14.948416777699311 1.8577295136749257 0.75470957328743171 0 0.6560590369687036 I I #
edge $-1 $471 -14.948416777699311 $801 -5.3077332327056688 $469 $808 forward 7 unknown #
point $-1 -50.75472273934141 14.948416777699311 9.7801540403860852 #
point $-1 -50.75472273934141 14.948416777699311 1.8577295136749319 #
edge $-1 $809 1 $809 0 $474 $-1 forward 7 unknown #
vertex $-1 $475 $810 #
ellipse-curve $-1 -45.191666602039518 7.2358699417043937 4.6614378979582716 -0.6560590369687036 0 0.75470957328743171 0.37735478664371586 0 0.3280295184843518 1 I I #
point $-1 -45.820514607926768 7.2358699417043937 6.1469712955148559 #
edge $-1 $811 1 $811 0 $478 $-1 forward 7 unknown #
vertex $-1 $479 $812 #
ellipse-curve $-1 -45.191666602039518 10.12807500520249 4.6614378979582716 -0.6560590369687036 0 0.75470957328743171 0.37735478664371586 0 0.3280295184843518 1 I I #
point $-1 -45.820514607926768 10.12807500520249 6.1469712955148559 #
edge $-1 $813 1 $813 0 $482 $-1 forward 7 unknown #
vertex $-1 $483 $814 #
ellipse-curve $-1 -45.191666602039518 13.020280068700586 4.6614378979582716 -0.6560590369687036 0 0.75470957328743171 0.37735478664371586 0 0.3280295184843518 1 I I #
point $-1 -45.820514607926768 13.020280068700586 6.1469712955148559 #
loop $-1 $-1 $494 $486 #
plane-surface $-1 50.75472273934141 0 0 -1 0 0 0 0 1 forward_v I I I I #
coedge $-1 $675 $489 $491 $679 reversed $323 $-1 #
coedge $-1 $489 $674 $815 $816 reversed $323 $-1 #
coedge $-1 $497 $492 $489 $677 forward $487 $-1 #
edge $-1 $680 21.270635299073223 $817 30.384341988615081 $676 $818 forward 7 unknown #
coedge $-1 $491 $490 $683 $819 reversed $203 $-1 #
edge $-1 $820 -101.50944547868284 $680 -89.433665586500524 $674 $821 forward 7 unknown #
vertex $-1 $493 $822 #
straight-curve $-1 41.641016049799532 -4.6271125242809816 9.780154040386094 0 -1 0 I I #
coedge $-1 $815 $494 $497 $687 reversed $672 $-1 #
coedge $-1 $494 $815 $678 $819 forward $672 $-1 #
vertex $-1 $495 $823 #
straight-curve $-1 50.75472273934141 -4.4338832760651421 72.532034419753614 0 0 1 I I #
straight-curve $-1 -25.855427542519116 -4.4338832760651421 68.453918557646702 0.75470957328743171 0 -0.6560590369687036 I I #
edge $-1 $817 -14.074566821058784 $498 -4.4338832760651421 $682 $824 forward 7 unknown #
point $-1 50.75472273934141 -4.4338832760651421 9.7801540403860852 #
point $-1 41.641016049799553 -4.4338832760651421 9.7801540403860869 #
edge $-1 $825 1 $825 0 $501 $-1 forward 7 unknown #
vertex $-1 $502 $826 #
ellipse-curve $-1 45.191666602039525 -12.146430112060056 4.6614378979582716 0.6560590369687036 0 0.75470957328743171 0.37735478664371586 0 -0.3280295184843518 1 I I #
point $-1 46.575224181214203 -12.146430112060056 5.4909122585461532 #
edge $-1 $827 1 $827 0 $505 $-1 forward 7 unknown #
vertex $-1 $506 $828 #
ellipse-curve $-1 45.191666602039525 -9.2542250485619633 4.6614378979582716 0.6560590369687036 0 0.75470957328743171 0.37735478664371586 0 -0.3280295184843518 1 I I #
point $-1 46.575224181214203 -9.2542250485619633 5.4909122585461532 #
edge $-1 $829 1 $829 0 $509 $-1 forward 7 unknown #
vertex $-1 $510 $830 #
ellipse-curve $-1 45.191666602039525 -6.3620199850638706 4.6614378979582716 0.6560590369687036 0 0.75470957328743171 0.37735478664371586 0 -0.3280295184843518 1 I I #
point $-1 46.575224181214203 -6.3620199850638706 5.4909122585461532 #
plane-surface $-1 0 0 9.7801540403860852 0 0 1 1 0 0 forward_v I I I I #
coedge $-1 $713 $712 $705 $831 forward $514 $-1 #
coedge $-1 $705 $516 $518 $709 reversed $352 $-1 #
coedge $-1 $516 $704 $703 $831 reversed $352 $-1 #
coedge $-1 $524 $519 $516 $707 forward $525 $-1 #
edge $-1 $710 21.270635299073223 $832 30.384341988615081 $706 $833 forward 7 unknown #
coedge $-1 $518 $517 $713 $834 reversed $222 $-1 #
edge $-1 $835 -101.50944547868284 $710 -89.433665586500524 $704 $836 forward 7 unknown #
vertex $-1 $520 $837 #
straight-curve $-1 41.641016049799532 5.064037502601245 9.780154040386094 0 -1 0 I I #
coedge $-1 $703 $521 $524 $717 reversed $514 $-1 #
coedge $-1 $521 $703 $708 $834 forward $514 $-1 #
vertex $-1 $522 $838 #
straight-curve $-1 50.75472273934141 14.948416777699311 72.532034419753614 0 0 1 I I #
straight-curve $-1 -25.855427542519116 14.948416777699311 68.453918557646702 0.75470957328743171 0 -0.6560590369687036 I I #
edge $-1 $832 5.3077332327056688 $526 14.948416777699311 $712 $839 forward 7 unknown #
point $-1 50.75472273934141 14.948416777699311 9.7801540403860852 #
point $-1 41.641016049799553 14.948416777699311 9.7801540403860869 #
edge $-1 $840 1 $840 0 $529 $-1 forward 7 unknown #
vertex $-1 $530 $841 #
ellipse-curve $-1 45.191666602039525 7.2358699417043937 4.6614378979582716 0.6560590369687036 0 0.75470957328743171 0.37735478664371586 0 -0.3280295184843518 1 I I #
point $-1 46.575224181214203 7.2358699417043937 5.4909122585461532 #
edge $-1 $842 1 $842 0 $533 $-1 forward 7 unknown #
vertex $-1 $534 $843 #
ellipse-curve $-1 45.191666602039525 10.12807500520249 4.6614378979582716 0.6560590369687036 0 0.75470957328743171 0.37735478664371586 0 -0.3280295184843518 1 I I #
point $-1 46.575224181214203 10.12807500520249 5.4909122585461532 #
edge $-1 $844 1 $844 0 $537 $-1 forward 7 unknown #
vertex $-1 $538 $845 #
ellipse-curve $-1 45.191666602039525 13.020280068700586 4.6614378979582716 0.6560590369687036 0 0.75470957328743171 0.37735478664371586 0 -0.3280295184843518 1 I I #
point $-1 46.575224181214203 13.020280068700586 5.4909122585461532 #
plane-surface $-1 50.75472273934141 0 0 -1 0 0 0 0 1 forward_v I I I I #
coedge $-1 $546 $544 $548 $737 reversed $381 $-1 #
edge $-1 $559 -9.7801540403860852 $739 9.7801540403860852 $558 $846 forward 7 unknown #
vertex $-1 $737 $847 #
straight-curve $-1 -50.75472273934141 -26.705748168012306 0 0 0 -1 I I #
edge $-1 $735 -26.705748168012306 $739 26.705748168012306 $733 $848 forward 7 unknown #
straight-curve $-1 0 -26.705748168012306 -9.7801540403860852 -1 0 0 I I #
vertex $-1 $551 $849 #
straight-curve $-1 0 26.705748168012306 -9.7801540403860852 1 0 0 I I #
point $-1 50.75472273934141 26.705748168012306 -9.7801540403860852 #
point $-1 50.75472273934141 -26.705748168012306 -9.7801540403860852 #
straight-curve $-1 -50.75472273934141 0 9.7801540403860852 0 -1 0 I I #
point $-1 -50.75472273934141 26.705748168012306 9.7801540403860852 #
point $-1 -50.75472273934141 -26.705748168012306 9.7801540403860852 #
straight-curve $-1 50.75472273934141 -26.705748168012306 0 0 0 -1 I I #
straight-curve $-1 50.75472273934141 26.705748168012306 0 0 0 -1 I I #
loop $-1 $-1 $756 $568 #
plane-surface $-1 -50.75472273934141 0 0 1 0 0 0 0 -1 forward_v I I I I #
coedge $-1 $572 $571 $762 $850 forward $249 $-1 #
edge $-1 $576 19.382300053764453 $765 26.705748168012306 $575 $851 forward 7 unknown #
coedge $-1 $759 $756 $572 $753 reversed $748 $-1 #
edge $-1 $852 -26.705748168012306 $754 -19.382300053764453 $752 $853 forward 7 unknown #
vertex $-1 $757 $854 #
straight-curve $-1 0 -19.382300053764453 -9.7801540403860852 1 0 0 I I #
coedge $-1 $752 $578 $574 $757 forward $748 $-1 #
edge $-1 $580 1.6241407270442476 $754 5.9787224512426409 $756 $855 forward 7 unknown #
point $-1 50.75472273934141 -19.382300053764453 -9.7801540403860852 #
coedge $-1 $578 $752 $582 $763 reversed $748 $-1 #
straight-curve $-1 -50.75472273934141 -11.52201205544419 -5.4255723161876919 0 1 0 I I #
point $-1 -50.75472273934141 -19.382300053764453 -5.4255723161876919 #
coedge $-1 $583 $582 $750 $850 reversed $569 $-1 #
edge $-1 $584 5.4255723161876919 $852 9.7801540403860852 $759 $856 forward 7 unknown #
point $-1 -50.75472273934141 -26.705748168012306 -5.4255723161876919 #
vertex $-1 $586 $857 #
straight-curve $-1 50.75472273934141 -26.705748168012306 0 0 0 -1 I I #
plane-surface $-1 0 26.705748168012306 0 0 -1 0 0 0 -1 forward_v I I I I #
coedge $-1 $858 $592 $596 $773 forward $416 $-1 #
coedge $-1 $592 $858 $607 $780 forward $416 $-1 #
vertex $-1 $594 $859 #
straight-curve $-1 0 19.382300053764453 -9.7801540403860852 -1 0 0 I I #
coedge $-1 $596 $595 $602 $778 forward $590 $-1 #
edge $-1 $597 19.382300053764453 $860 26.705748168012306 $596 $861 forward 7 unknown #
point $-1 -50.75472273934141 19.382300053764453 -9.7801540403860852 #
point $-1 -50.75472273934141 19.382300053764453 -5.4255723161876919 #
straight-curve $-1 -50.75472273934141 11.52201205544419 -5.4255723161876919 0 1 0 I I #
coedge $-1 $602 $601 $858 $862 reversed $603 $-1 #
edge $-1 $604 5.4255723161876919 $860 9.7801540403860852 $602 $863 forward 7 unknown #
point $-1 -50.75472273934141 26.705748168012306 -5.4255723161876919 #
edge $-1 $782 -26.705748168012306 $770 -19.382300053764453 $607 $864 forward 7 unknown #
straight-curve $-1 50.75472273934141 19.382300053764453 -3.8014315891434443 0 0 -1 I I #
vertex $-1 $780 $865 #
straight-curve $-1 50.75472273934141 26.705748168012306 0 0 0 -1 I I #
coedge $-1 $623 $622 $615 $785 forward $612 $-1 #
edge $-1 $786 7.9207331523151865 $789 17.034439841857036 $784 $866 forward 7 unknown #
vertex $-1 $785 $867 #
straight-curve $-1 -50.75472273934141 -14.074566821058784 39.233939897767726 0 0 1 I I #
edge $-1 $789 -9.4474542967778028 $624 0.19322924821583953 $623 $868 forward 7 unknown #
vertex $-1 $788 $869 #
straight-curve $-1 -50.754722739341418 -14.074566821058784 1.8577295136749257 -0.75470957328743171 0 -0.6560590369687036 I I #
point $-1 -50.75472273934141 -14.074566821058784 1.8577295136749319 #
point $-1 -41.641016049799561 -4.4338832760651421 9.7801540403860869 #
straight-curve $-1 -50.75472273934141 0 9.7801540403860852 0 -1 0 I I #
vertex $-1 $630 $870 #
point $-1 -44.814311815395797 -12.146430112060056 4.9894674164426238 #
vertex $-1 $634 $871 #
point $-1 -44.814311815395797 -9.2542250485619633 4.9894674164426238 #
vertex $-1 $638 $872 #
point $-1 -44.814311815395797 -6.3620199850638706 4.9894674164426238 #
edge $-1 $801 7.9207331523151865 $804 17.034439841857036 $643 $873 forward 7 unknown #
vertex $-1 $800 $874 #
straight-curve $-1 -50.75472273934141 5.3077332327056688 39.233939897767726 0 0 1 I I #
edge $-1 $804 0.2436957301044238 $654 9.8843792750980661 $653 $875 forward 7 unknown #
vertex $-1 $803 $876 #
straight-curve $-1 -50.754722739341418 5.3077332327056688 1.8577295136749257 -0.75470957328743171 0 -0.6560590369687036 I I #
point $-1 -50.75472273934141 5.3077332327056688 1.8577295136749319 #
point $-1 -41.641016049799561 14.948416777699311 9.7801540403860869 #
straight-curve $-1 -50.75472273934141 0 9.7801540403860852 0 -1 0 I I #
vertex $-1 $660 $877 #
point $-1 -44.814311815395797 7.2358699417043937 4.9894674164426238 #
vertex $-1 $664 $878 #
point $-1 -44.814311815395797 10.12807500520249 4.9894674164426238 #
vertex $-1 $668 $879 #
point $-1 -44.814311815395797 13.020280068700586 4.9894674164426238 #
coedge $-1 $683 $682 $675 $816 forward $672 $-1 #
edge $-1 $817 62.751880379367527 $820 70.674304906078689 $815 $880 forward 7 unknown #
vertex $-1 $687 $881 #
straight-curve $-1 20.37038075072633 -14.074566821058784 9.7801540403860798 1 0 0 I I #
edge $-1 $820 -9.4474542967778028 $684 0.19322924821583953 $683 $882 forward 7 unknown #
vertex $-1 $819 $883 #
straight-curve $-1 -25.855427542519116 -14.074566821058784 68.453918557646702 -0.75470957328743171 0 0.6560590369687036 I I #
point $-1 41.641016049799553 -14.074566821058784 9.7801540403860869 #
point $-1 50.75472273934141 -4.4338832760651421 1.8577295136749257 #
straight-curve $-1 50.75472273934141 0 9.7801540403860852 0 1 0 I I #
vertex $-1 $690 $884 #
point $-1 45.56902138868324 -12.146430112060056 4.3334083794739193 #
vertex $-1 $694 $885 #
point $-1 45.56902138868324 -9.2542250485619633 4.3334083794739193 #
vertex $-1 $698 $886 #
point $-1 45.56902138868324 -6.3620199850638706 4.3334083794739193 #
edge $-1 $832 62.751880379367527 $835 70.674304906078689 $703 $887 forward 7 unknown #
vertex $-1 $717 $888 #
straight-curve $-1 20.37038075072633 5.3077332327056688 9.7801540403860798 1 0 0 I I #
edge $-1 $835 0.2436957301044238 $714 9.8843792750980661 $713 $889 forward 7 unknown #
vertex $-1 $834 $890 #
straight-curve $-1 -25.855427542519116 5.3077332327056688 68.453918557646702 -0.75470957328743171 0 0.6560590369687036 I I #
point $-1 41.641016049799553 5.3077332327056688 9.7801540403860869 #
point $-1 50.75472273934141 14.948416777699311 1.8577295136749257 #
straight-curve $-1 50.75472273934141 0 9.7801540403860852 0 1 0 I I #
vertex $-1 $720 $891 #
point $-1 45.56902138868324 7.2358699417043937 4.3334083794739193 #
vertex $-1 $724 $892 #
point $-1 45.56902138868324 10.12807500520249 4.3334083794739193 #
vertex $-1 $728 $893 #
point $-1 45.56902138868324 13.020280068700586 4.3334083794739193 #
straight-curve $-1 -50.75472273934141 26.705748168012306 0 0 0 -1 I I #
point $-1 -50.75472273934141 -26.705748168012306 -9.7801540403860852 #
straight-curve $-1 -50.75472273934141 0 -9.7801540403860852 0 1 0 I I #
point $-1 -50.75472273934141 26.705748168012306 -9.7801540403860852 #
edge $-1 $765 -50.75472273934141 $852 50.75472273934141 $762 $894 forward 7 unknown #
straight-curve $-1 50.75472273934141 0 -9.7801540403860852 0 -1 0 I I #
vertex $-1 $753 $895 #
straight-curve $-1 -50.75472273934141 0 -9.7801540403860852 0 1 0 I I #
point $-1 -50.75472273934141 -19.382300053764453 -9.7801540403860852 #
straight-curve $-1 -50.75472273934141 -19.382300053764453 -3.8014315891434443 0 0 -1 I I #
straight-curve $-1 -50.75472273934141 -26.705748168012306 0 0 0 -1 I I #
point $-1 50.75472273934141 -26.705748168012306 -9.7801540403860852 #
coedge $-1 $769 $768 $777 $862 forward $416 $-1 #
point $-1 50.75472273934141 19.382300053764453 -9.7801540403860852 #
vertex $-1 $862 $896 #
straight-curve $-1 -50.75472273934141 0 -9.7801540403860852 0 1 0 I I #
edge $-1 $860 -50.75472273934141 $782 50.75472273934141 $777 $897 forward 7 unknown #
straight-curve $-1 -50.75472273934141 26.705748168012306 0 0 0 -1 I I #
straight-curve $-1 50.75472273934141 0 -9.7801540403860852 0 -1 0 I I #
point $-1 50.75472273934141 26.705748168012306 -9.7801540403860852 #
straight-curve $-1 -58.675455891656597 -14.074566821058784 9.7801540403860869 1 0 0 I I #
point $-1 -50.75472273934141 -14.074566821058784 9.7801540403860852 #
straight-curve $-1 -41.641016049799561 -4.6271125242809816 9.7801540403860869 0 1 0 I I #
point $-1 -41.641016049799561 -14.074566821058784 9.7801540403860869 #
point $-1 -44.863637083555162 -12.146430112060056 4.2840831113145557 #
point $-1 -44.863637083555162 -9.2542250485619633 4.2840831113145557 #
point $-1 -44.863637083555162 -6.3620199850638706 4.2840831113145557 #
straight-curve $-1 -58.675455891656597 5.3077332327056688 9.7801540403860869 1 0 0 I I #
point $-1 -50.75472273934141 5.3077332327056688 9.7801540403860852 #
straight-curve $-1 -41.641016049799561 5.064037502601245 9.7801540403860869 0 1 0 I I #
point $-1 -41.641016049799561 5.3077332327056688 9.7801540403860869 #
point $-1 -44.863637083555162 7.2358699417043937 4.2840831113145557 #
point $-1 -44.863637083555162 10.12807500520249 4.2840831113145557 #
point $-1 -44.863637083555162 13.020280068700586 4.2840831113145557 #
straight-curve $-1 50.75472273934141 -14.074566821058784 72.532034419753614 0 0 -1 I I #
point $-1 50.75472273934141 -14.074566821058784 9.7801540403860852 #
straight-curve $-1 50.75472273934141 -4.6271125242809816 1.8577295136749328 0 1 0 I I #
point $-1 50.75472273934141 -14.074566821058784 1.8577295136749257 #
point $-1 44.863637083555169 -12.146430112060056 4.2840831113145557 #
point $-1 44.863637083555169 -9.2542250485619633 4.2840831113145557 #
point $-1 44.863637083555169 -6.3620199850638706 4.2840831113145557 #
straight-curve $-1 50.75472273934141 5.3077332327056688 72.532034419753614 0 0 -1 I I #
point $-1 50.75472273934141 5.3077332327056688 9.7801540403860852 #
straight-curve $-1 50.75472273934141 5.064037502601245 1.8577295136749328 0 1 0 I I #
point $-1 50.75472273934141 5.3077332327056688 1.8577295136749257 #
point $-1 44.863637083555169 7.2358699417043937 4.2840831113145557 #
point $-1 44.863637083555169 10.12807500520249 4.2840831113145557 #
point $-1 44.863637083555169 13.020280068700586 4.2840831113145557 #
straight-curve $-1 0 -26.705748168012306 -9.7801540403860852 -1 0 0 I I #
point $-1 -50.75472273934141 -26.705748168012306 -9.7801540403860852 #
point $-1 -50.75472273934141 26.705748168012306 -9.7801540403860852 #
straight-curve $-1 0 26.705748168012306 -9.7801540403860852 1 0 0 I I #
End-of-ACIS-data 