500 0 10 0           
7 Unknown 11 ACIS 5.0 NT 24 Fri Mar 26 19:14:14 1999 
-1 9.9999999999999995e-007 1e-010 
body $-1 $10 $-1 $11 #
body $-1 $12 $-1 $13 #
body $-1 $14 $-1 $15 #
body $-1 $16 $-1 $17 #
body $-1 $18 $-1 $19 #
body $-1 $20 $-1 $21 #
body $-1 $22 $-1 $23 #
body $-1 $24 $-1 $25 #
body $-1 $26 $-1 $27 #
body $-1 $28 $-1 $29 #
lump $-1 $-1 $30 $0 #
transform $-1 1 0 0 0 1 0 0 0 1 79.91454817346721 45.26816370441427 17.380863904697893 1 rotate no_reflect no_shear #
lump $-1 $-1 $31 $1 #
transform $-1 1 0 0 0 1 0 0 0 1 79.91454817346721 45.26816370441427 17.380863904697893 1 rotate no_reflect no_shear #
lump $-1 $-1 $32 $2 #
transform $-1 1 0 0 0 1 0 0 0 1 79.91454817346721 45.26816370441427 17.380863904697893 1 rotate no_reflect no_shear #
lump $-1 $-1 $33 $3 #
transform $-1 1 0 0 0 1 0 0 0 1 79.91454817346721 45.26816370441427 17.380863904697893 1 rotate no_reflect no_shear #
lump $-1 $-1 $34 $4 #
transform $-1 1 0 0 0 1 0 0 0 1 79.91454817346721 45.26816370441427 17.380863904697893 1 rotate no_reflect no_shear #
lump $-1 $-1 $35 $5 #
transform $-1 1 0 0 0 1 0 0 0 1 79.91454817346721 45.26816370441427 17.380863904697893 1 rotate no_reflect no_shear #
lump $-1 $-1 $36 $6 #
transform $-1 1 0 0 0 1 0 0 0 1 79.91454817346721 45.26816370441427 17.380863904697893 1 rotate no_reflect no_shear #
lump $-1 $-1 $37 $7 #
transform $-1 1 0 0 0 1 0 0 0 1 79.91454817346721 45.26816370441427 17.380863904697893 1 rotate no_reflect no_shear #
lump $-1 $-1 $38 $8 #
transform $-1 1 0 0 0 1 0 0 0 1 79.91454817346721 45.26816370441427 17.380863904697893 1 rotate no_reflect no_shear #
lump $-1 $-1 $39 $9 #
transform $-1 1 0 0 0 1 0 0 0 1 79.91454817346721 45.26816370441427 17.380863904697893 1 rotate no_reflect no_shear #
shell $-1 $-1 $-1 $40 $-1 $10 #
shell $-1 $-1 $-1 $41 $-1 $12 #
shell $-1 $-1 $-1 $42 $-1 $14 #
shell $-1 $-1 $-1 $43 $-1 $16 #
shell $-1 $-1 $-1 $44 $-1 $18 #
shell $-1 $-1 $-1 $45 $-1 $20 #
shell $-1 $-1 $-1 $46 $-1 $22 #
shell $-1 $-1 $-1 $47 $-1 $24 #
shell $-1 $-1 $-1 $48 $-1 $26 #
shell $-1 $-1 $-1 $49 $-1 $28 #
face $-1 $50 $51 $30 $-1 $52 forward single #
face $-1 $53 $54 $31 $-1 $55 reversed single #
face $-1 $56 $57 $32 $-1 $58 reversed single #
face $-1 $59 $60 $33 $-1 $61 forward single #
face $-1 $62 $63 $34 $-1 $64 reversed single #
face $-1 $65 $66 $35 $-1 $67 forward single #
face $-1 $68 $69 $36 $-1 $70 reversed single #
face $-1 $71 $72 $37 $-1 $73 forward single #
face $-1 $74 $75 $38 $-1 $76 reversed single #
face $-1 $77 $78 $39 $-1 $79 forward single #
face $-1 $80 $81 $30 $-1 $82 reversed single #
loop $-1 $-1 $83 $40 #
plane-surface $-1 0 0 17.380863904697893 0 0 1 1 0 0 forward_v I I I I #
face $-1 $84 $85 $31 $-1 $86 reversed single #
loop $-1 $-1 $87 $41 #
plane-surface $-1 0 -34.51622666778858 8.0153434336713438 0 0 1 1 0 0 forward_v I I I I #
face $-1 $88 $89 $32 $-1 $90 reversed single #
loop $-1 $-1 $91 $42 #
plane-surface $-1 -212.41887552306144 -3.0919487550573415 100.60893180455113 0 1 0 -0.82903758062907751 0 0.55919289150049634 forward_v I I I I #
face $-1 $92 $93 $33 $-1 $94 forward single #
loop $-1 $95 $96 $43 #
cone-surface $-1 -76.322007402140358 3.82999414078418 13.282427689779336 0.82903758062907751 0 -0.55919289150049634 0.55919289150049634 0 0.82903758062907751 1 I I 0 1 1 forward I I I I #
face $-1 $97 $98 $34 $-1 $99 reversed single #
loop $-1 $-1 $100 $44 #
plane-surface $-1 -212.41887552306144 31.424277912731231 100.60893180455113 0 1 0 -0.82903758062907751 0 0.55919289150049634 forward_v I I I I #
face $-1 $101 $102 $35 $-1 $103 forward single #
loop $-1 $104 $105 $45 #
cone-surface $-1 -76.322007402140358 38.34622080857276 13.282427689779336 0.82903758062907751 0 -0.55919289150049634 0.55919289150049634 0 0.82903758062907751 1 I I 0 1 1 forward I I I I #
face $-1 $106 $107 $36 $-1 $108 reversed single #
loop $-1 $-1 $109 $46 #
plane-surface $-1 123.04358099090777 10.751937036625687 233.11325915414537 0 -1 0 -0.82903758062907751 0 -0.55919289150049634 forward_v I I I I #
face $-1 $110 $111 $37 $-1 $112 forward single #
loop $-1 $113 $114 $47 #
cone-surface $-1 76.322007402140358 3.82999414078418 13.282427689779343 -0.82903758062907751 0 -0.55919289150049634 0.55919289150049634 0 -0.82903758062907751 1 I I 0 1 1 forward I I I I #
face $-1 $115 $116 $38 $-1 $117 reversed single #
loop $-1 $-1 $118 $48 #
plane-surface $-1 -9.460746358686464 38.346220808572745 143.73796462199169 0.82903758062907751 0 0.55919289150049634 0.55919289150049634 0 -0.82903758062907751 forward_v I I I I #
face $-1 $119 $120 $39 $-1 $121 forward single #
loop $-1 $122 $123 $49 #
cone-surface $-1 76.322007402140358 38.34622080857276 13.282427689779343 -0.82903758062907751 0 -0.55919289150049634 0.55919289150049634 0 -0.82903758062907751 1 I I 0 1 1 forward I I I I #
face $-1 $124 $125 $30 $-1 $126 reversed single #
loop $-1 $-1 $127 $50 #
plane-surface $-1 0 0 -17.380863904697893 0 0 1 1 0 0 forward_v I I I I #
coedge $-1 $128 $129 $130 $131 forward $51 $-1 #
face $-1 $132 $133 $31 $-1 $134 reversed single #
loop $-1 $-1 $135 $53 #
plane-surface $-1 0 -23.764289631162889 12.698103669184619 0 -1 0 0 0 -1 forward_v I I I I #
coedge $-1 $136 $137 $138 $139 reversed $54 $-1 #
face $-1 $140 $141 $32 $-1 $142 reversed single #
loop $-1 $-1 $143 $56 #
plane-surface $-1 -79.91454817346721 3.8299941407841729 11.233637272397459 -0.82903758062907751 0 0.55919289150049634 0.55919289150049634 0 0.82903758062907751 forward_v I I I I #
coedge $-1 $144 $145 $146 $147 reversed $57 $-1 #
face $-1 $-1 $148 $33 $-1 $149 forward single #
loop $-1 $150 $151 $59 #
cone-surface $-1 -74.388126135152731 3.82999414078418 11.978008345260751 0.82903758062907751 0 -0.55919289150049634 0.27959644575024817 0 0.41451879031453875 1 I I -0.70710678118654746 0.70710678118654746 0.5 forward I I I I #
loop $-1 $-1 $152 $43 #
coedge $-1 $96 $96 $153 $154 reversed $60 $-1 #
face $-1 $155 $156 $34 $-1 $157 forward single #
loop $-1 $-1 $158 $62 #
plane-surface $-1 -79.91454817346721 38.346220808572745 11.233637272397459 -0.82903758062907751 0 0.55919289150049634 0.55919289150049634 0 0.82903758062907751 forward_v I I I I #
coedge $-1 $159 $160 $161 $162 reversed $63 $-1 #
face $-1 $-1 $163 $35 $-1 $164 forward single #
loop $-1 $165 $166 $65 #
cone-surface $-1 -74.388126135152731 38.34622080857276 11.978008345260751 0.82903758062907751 0 -0.55919289150049634 0.27959644575024817 0 0.41451879031453875 1 I I -0.70710678118654746 0.70710678118654746 0.5 forward I I I I #
loop $-1 $-1 $167 $45 #
coedge $-1 $105 $105 $168 $169 reversed $66 $-1 #
face $-1 $170 $171 $36 $-1 $172 reversed single #
loop $-1 $-1 $173 $68 #
plane-surface $-1 -9.460746358686464 3.8299941407841729 143.73796462199169 0.82903758062907751 0 0.55919289150049634 0.55919289150049634 0 -0.82903758062907751 forward_v I I I I #
coedge $-1 $174 $175 $176 $177 reversed $69 $-1 #
face $-1 $-1 $178 $37 $-1 $179 forward single #
loop $-1 $180 $181 $71 #
cone-surface $-1 74.388126135152731 3.82999414078418 11.978008345260758 -0.82903758062907751 0 -0.55919289150049634 0.27959644575024817 0 -0.41451879031453875 1 I I -0.70710678118654746 0.70710678118654746 0.5 forward I I I I #
loop $-1 $-1 $182 $47 #
coedge $-1 $114 $114 $183 $184 reversed $72 $-1 #
face $-1 $185 $186 $38 $-1 $187 reversed single #
loop $-1 $-1 $188 $74 #
plane-surface $-1 123.04358099090777 31.424277912731231 233.11325915414537 0 1 0 0.82903758062907751 0 0.55919289150049634 forward_v I I I I #
coedge $-1 $189 $190 $191 $192 reversed $75 $-1 #
face $-1 $-1 $193 $39 $-1 $194 forward single #
loop $-1 $195 $196 $77 #
cone-surface $-1 74.388126135152731 38.34622080857276 11.978008345260758 -0.82903758062907751 0 -0.55919289150049634 0.27959644575024817 0 -0.41451879031453875 1 I I -0.70710678118654746 0.70710678118654746 0.5 forward I I I I #
loop $-1 $-1 $197 $49 #
coedge $-1 $123 $123 $198 $199 reversed $78 $-1 #
face $-1 $200 $201 $30 $-1 $202 reversed single #
loop $-1 $-1 $203 $80 #
plane-surface $-1 0 -45.26816370441427 0 0 1 0 0 0 1 forward_v I I I I #
coedge $-1 $204 $205 $206 $207 forward $81 $-1 #
coedge $-1 $208 $83 $209 $210 forward $51 $-1 #
coedge $-1 $83 $208 $211 $212 forward $51 $-1 #
coedge $-1 $213 $214 $83 $131 reversed $215 $-1 #
edge $-1 $216 -45.26816370441427 $217 45.26816370441427 $130 $218 forward 7 unknown #
face $-1 $219 $220 $31 $-1 $221 reversed single #
loop $-1 $-1 $222 $84 #
plane-surface $-1 -79.91454817346721 0 0 1 0 0 0 0 -1 forward_v I I I I #
coedge $-1 $223 $224 $225 $226 reversed $85 $-1 #
coedge $-1 $227 $87 $228 $229 reversed $54 $-1 #
coedge $-1 $87 $227 $223 $230 forward $54 $-1 #
coedge $-1 $225 $231 $87 $139 forward $232 $-1 #
edge $-1 $233 -28.010050370519981 $234 -6.506176297268599 $138 $235 forward 7 unknown #
face $-1 $236 $237 $32 $-1 $238 forward single #
loop $-1 $-1 $239 $88 #
plane-surface $-1 -212.41887552306144 10.751937036625687 100.60893180455113 0 -1 0 0.82903758062907751 0 -0.55919289150049634 forward_v I I I I #
coedge $-1 $240 $241 $242 $243 reversed $89 $-1 #
coedge $-1 $145 $91 $244 $245 reversed $57 $-1 #
coedge $-1 $91 $144 $240 $246 reversed $57 $-1 #
coedge $-1 $242 $247 $91 $147 forward $237 $-1 #
edge $-1 $248 26.294889588063512 $249 30.441246177371028 $146 $250 forward 7 unknown #
loop $-1 $-1 $153 $92 #
plane-surface $-1 -79.91454817346721 3.8299941407841729 11.233637272397459 -0.82903758062907751 0 0.55919289150049634 0.55919289150049634 0 0.82903758062907751 forward_v I I I I #
loop $-1 $-1 $251 $59 #
coedge $-1 $151 $151 $152 $252 reversed $93 $-1 #
coedge $-1 $152 $152 $151 $252 forward $95 $-1 #
coedge $-1 $153 $153 $96 $154 forward $148 $-1 #
edge $-1 $253 0 $253 6.2831853071796004 $153 $254 forward 7 unknown #
face $-1 $255 $256 $34 $-1 $257 reversed single #
loop $-1 $-1 $161 $97 #
plane-surface $-1 0 0 17.380863904697893 0 0 1 1 0 0 forward_v I I I I #
coedge $-1 $258 $259 $260 $261 reversed $98 $-1 #
coedge $-1 $160 $100 $262 $263 reversed $63 $-1 #
coedge $-1 $100 $159 $258 $264 reversed $63 $-1 #
coedge $-1 $260 $265 $100 $162 forward $156 $-1 #
edge $-1 $266 26.294889588063512 $267 30.441246177371028 $161 $268 forward 7 unknown #
loop $-1 $-1 $168 $101 #
plane-surface $-1 -79.91454817346721 38.346220808572745 11.233637272397459 -0.82903758062907751 0 0.55919289150049634 0.55919289150049634 0 0.82903758062907751 forward_v I I I I #
loop $-1 $-1 $269 $65 #
coedge $-1 $166 $166 $167 $270 reversed $102 $-1 #
coedge $-1 $167 $167 $166 $270 forward $104 $-1 #
coedge $-1 $168 $168 $105 $169 forward $163 $-1 #
edge $-1 $271 0 $271 6.2831853071796004 $168 $272 forward 7 unknown #
face $-1 $273 $274 $36 $-1 $275 reversed single #
loop $-1 $-1 $276 $106 #
plane-surface $-1 123.04358099090777 -3.0919487550573415 233.11325915414537 0 1 0 0.82903758062907751 0 0.55919289150049634 forward_v I I I I #
coedge $-1 $277 $278 $279 $280 reversed $107 $-1 #
coedge $-1 $175 $109 $281 $282 reversed $69 $-1 #
coedge $-1 $109 $174 $277 $283 reversed $69 $-1 #
coedge $-1 $279 $284 $109 $177 forward $285 $-1 #
edge $-1 $286 -18.392757678013325 $287 -14.246401088705795 $176 $288 forward 7 unknown #
loop $-1 $-1 $183 $110 #
plane-surface $-1 -9.460746358686464 3.8299941407841729 143.73796462199169 0.82903758062907751 0 0.55919289150049634 0.55919289150049634 0 -0.82903758062907751 forward_v I I I I #
loop $-1 $-1 $289 $71 #
coedge $-1 $181 $181 $182 $290 reversed $111 $-1 #
coedge $-1 $182 $182 $181 $290 forward $113 $-1 #
coedge $-1 $183 $183 $114 $184 forward $178 $-1 #
edge $-1 $291 0 $291 6.2831853071796004 $183 $292 forward 7 unknown #
face $-1 $293 $294 $38 $-1 $295 forward single #
loop $-1 $-1 $296 $115 #
plane-surface $-1 79.91454817346721 0 0 -1 0 0 0 0 1 forward_v I I I I #
coedge $-1 $297 $298 $299 $300 reversed $116 $-1 #
coedge $-1 $301 $118 $302 $303 reversed $75 $-1 #
coedge $-1 $118 $301 $297 $304 forward $75 $-1 #
coedge $-1 $299 $305 $118 $192 forward $294 $-1 #
edge $-1 $306 -26.095053300127891 $307 -12.251167508444858 $191 $308 forward 7 unknown #
loop $-1 $-1 $198 $119 #
plane-surface $-1 -9.460746358686464 38.346220808572745 143.73796462199169 0.82903758062907751 0 0.55919289150049634 0.55919289150049634 0 -0.82903758062907751 forward_v I I I I #
loop $-1 $-1 $309 $77 #
coedge $-1 $196 $196 $197 $310 reversed $120 $-1 #
coedge $-1 $197 $197 $196 $310 forward $122 $-1 #
coedge $-1 $198 $198 $123 $199 forward $193 $-1 #
edge $-1 $311 0 $311 6.2831853071796004 $198 $312 forward 7 unknown #
face $-1 $313 $314 $30 $-1 $315 reversed single #
loop $-1 $-1 $316 $124 #
plane-surface $-1 -79.91454817346721 0 0 1 0 0 0 0 -1 forward_v I I I I #
coedge $-1 $317 $211 $318 $319 forward $125 $-1 #
coedge $-1 $320 $127 $317 $321 forward $81 $-1 #
coedge $-1 $127 $320 $322 $323 forward $81 $-1 #
coedge $-1 $214 $213 $127 $207 reversed $215 $-1 #
edge $-1 $324 -45.26816370441427 $325 45.26816370441427 $206 $326 forward 7 unknown #
coedge $-1 $129 $128 $327 $328 forward $51 $-1 #
coedge $-1 $329 $330 $128 $210 reversed $314 $-1 #
edge $-1 $217 -79.91454817346721 $331 79.91454817346721 $209 $332 forward 7 unknown #
coedge $-1 $203 $333 $129 $212 reversed $125 $-1 #
edge $-1 $334 -79.91454817346721 $216 79.91454817346721 $211 $335 forward 7 unknown #
coedge $-1 $206 $130 $333 $336 forward $215 $-1 #
coedge $-1 $130 $206 $329 $337 reversed $215 $-1 #
loop $-1 $-1 $213 $313 #
vertex $-1 $131 $338 #
vertex $-1 $131 $339 #
straight-curve $-1 79.91454817346721 0 17.380863904697893 0 1 0 I I #
face $-1 $340 $341 $31 $-1 $342 forward single #
loop $-1 $-1 $228 $132 #
plane-surface $-1 0 -45.26816370441427 0 0 1 0 0 0 1 forward_v I I I I #
coedge $-1 $343 $344 $345 $346 forward $133 $-1 #
coedge $-1 $345 $135 $137 $230 reversed $85 $-1 #
coedge $-1 $135 $345 $347 $348 reversed $85 $-1 #
coedge $-1 $349 $138 $135 $226 forward $232 $-1 #
edge $-1 $234 1.6662915990790346 $350 11.031812070105584 $225 $351 forward 7 unknown #
coedge $-1 $137 $136 $343 $352 reversed $54 $-1 #
coedge $-1 $353 $354 $136 $229 forward $220 $-1 #
edge $-1 $355 -79.91454817346721 $233 79.91454817346721 $228 $356 forward 7 unknown #
edge $-1 $357 -79.91454817346721 $234 79.91454817346721 $223 $358 forward 7 unknown #
coedge $-1 $138 $349 $353 $359 forward $232 $-1 #
loop $-1 $-1 $225 $340 #
vertex $-1 $229 $360 #
vertex $-1 $139 $361 #
straight-curve $-1 79.91454817346721 -17.25811333389429 8.0153434336713438 0 1 0 I I #
face $-1 $-1 $362 $32 $-1 $363 reversed single #
loop $-1 $-1 $146 $140 #
plane-surface $-1 0 0 17.380863904697893 0 0 1 1 0 0 forward_v I I I I #
coedge $-1 $364 $365 $366 $367 reversed $141 $-1 #
coedge $-1 $368 $143 $145 $246 forward $89 $-1 #
coedge $-1 $143 $368 $364 $369 forward $89 $-1 #
coedge $-1 $366 $146 $143 $243 forward $237 $-1 #
edge $-1 $249 -5.0069458254494279 $370 8.8369399662336008 $242 $371 forward 7 unknown #
coedge $-1 $372 $373 $144 $245 forward $362 $-1 #
edge $-1 $374 -39.070828629878108 $248 -32.923601997577677 $244 $375 forward 7 unknown #
edge $-1 $249 -7.4148950251879899 $374 0 $145 $376 forward 7 unknown #
coedge $-1 $146 $366 $372 $377 forward $237 $-1 #
vertex $-1 $245 $378 #
vertex $-1 $147 $379 #
straight-curve $-1 -106.20943776153072 -3.0919487550573415 17.38086390469789 1 0 0 I I #
coedge $-1 $251 $251 $-1 $380 reversed $150 $-1 #
edge $-1 $381 0 $381 6.2831853071796004 $151 $382 forward 7 unknown #
vertex $-1 $154 $383 #
ellipse-curve $-1 -77.841369878813452 3.82999414078418 14.307250588547676 -0.82903758062907751 0 0.55919289150049634 0.55919289150049634 0 0.82903758062907751 1 I I #
face $-1 $-1 $384 $34 $-1 $385 reversed single #
loop $-1 $-1 $386 $155 #
plane-surface $-1 0 45.26816370441427 0 0 -1 0 0 0 -1 forward_v I I I I #
coedge $-1 $387 $158 $160 $264 forward $98 $-1 #
coedge $-1 $158 $387 $386 $388 reversed $98 $-1 #
coedge $-1 $389 $161 $158 $261 forward $156 $-1 #
edge $-1 $267 12.251167508444858 $390 26.095053300127891 $260 $391 forward 7 unknown #
coedge $-1 $392 $393 $159 $263 forward $384 $-1 #
edge $-1 $394 -39.070828629878108 $266 -32.923601997577677 $262 $395 forward 7 unknown #
edge $-1 $267 -7.4148950251879899 $394 0 $160 $396 forward 7 unknown #
coedge $-1 $161 $389 $392 $397 forward $156 $-1 #
vertex $-1 $263 $398 #
vertex $-1 $162 $399 #
straight-curve $-1 -106.20943776153072 31.424277912731231 17.38086390469789 1 0 0 I I #
coedge $-1 $269 $269 $-1 $400 reversed $165 $-1 #
edge $-1 $401 0 $401 6.2831853071796004 $166 $402 forward 7 unknown #
vertex $-1 $169 $403 #
ellipse-curve $-1 -77.841369878813452 38.34622080857276 14.307250588547676 -0.82903758062907751 0 0.55919289150049634 0.55919289150049634 0 0.82903758062907751 1 I I #
face $-1 $-1 $285 $36 $-1 $404 forward single #
loop $-1 $-1 $405 $170 #
plane-surface $-1 79.91454817346721 0 0 -1 0 0 0 0 1 forward_v I I I I #
coedge $-1 $406 $407 $408 $409 reversed $171 $-1 #
coedge $-1 $410 $173 $175 $283 forward $107 $-1 #
coedge $-1 $173 $410 $406 $411 forward $107 $-1 #
coedge $-1 $408 $176 $173 $280 forward $285 $-1 #
edge $-1 $287 -8.8369399662336008 $412 5.0069458254494279 $279 $413 forward 7 unknown #
coedge $-1 $414 $415 $174 $282 forward $274 $-1 #
edge $-1 $416 -105.32299230467522 $286 -99.175765672374794 $281 $417 forward 7 unknown #
edge $-1 $287 152.41420132174642 $416 159.82909634693442 $175 $418 forward 7 unknown #
coedge $-1 $176 $408 $414 $419 forward $285 $-1 #
loop $-1 $-1 $408 $273 #
vertex $-1 $282 $420 #
vertex $-1 $177 $421 #
straight-curve $-1 61.521790495453885 10.751937036625687 17.38086390469789 -1 0 0 I I #
coedge $-1 $289 $289 $-1 $422 reversed $180 $-1 #
edge $-1 $423 0 $423 6.2831853071796004 $181 $424 forward 7 unknown #
vertex $-1 $184 $425 #
ellipse-curve $-1 77.841369878813438 3.82999414078418 14.307250588547674 0.82903758062907751 0 0.55919289150049634 0.55919289150049634 0 -0.82903758062907751 1 I I #
face $-1 $-1 $426 $38 $-1 $427 reversed single #
loop $-1 $-1 $299 $185 #
plane-surface $-1 0 0 17.380863904697893 0 0 1 1 0 0 forward_v I I I I #
coedge $-1 $428 $429 $298 $430 forward $186 $-1 #
coedge $-1 $298 $188 $190 $304 reversed $116 $-1 #
coedge $-1 $188 $297 $296 $430 reversed $116 $-1 #
coedge $-1 $431 $191 $188 $300 forward $294 $-1 #
edge $-1 $307 14.246401088705795 $432 18.392757678013325 $299 $433 forward 7 unknown #
coedge $-1 $190 $189 $428 $434 reversed $75 $-1 #
coedge $-1 $435 $436 $189 $303 forward $426 $-1 #
edge $-1 $437 -97.601818073519127 $306 -90.186923048331124 $302 $438 forward 7 unknown #
edge $-1 $439 -159.82909634693442 $307 -152.41420132174642 $297 $440 forward 7 unknown #
coedge $-1 $191 $431 $435 $441 forward $294 $-1 #
vertex $-1 $303 $442 #
vertex $-1 $192 $443 #
straight-curve $-1 75.768191584159709 19.173110404286373 17.38086390469789 0 -1 0 I I #
coedge $-1 $309 $309 $-1 $444 reversed $195 $-1 #
edge $-1 $445 0 $445 6.2831853071796004 $196 $446 forward 7 unknown #
vertex $-1 $199 $447 #
ellipse-curve $-1 77.841369878813438 38.34622080857276 14.307250588547674 0.82903758062907751 0 0.55919289150049634 0.55919289150049634 0 -0.82903758062907751 1 I I #
face $-1 $-1 $215 $30 $-1 $448 reversed single #
loop $-1 $-1 $329 $200 #
plane-surface $-1 0 45.26816370441427 0 0 -1 0 0 0 -1 forward_v I I I I #
coedge $-1 $449 $327 $330 $450 forward $201 $-1 #
coedge $-1 $333 $203 $204 $321 reversed $125 $-1 #
coedge $-1 $327 $449 $203 $319 reversed $201 $-1 #
edge $-1 $334 -17.380863904697893 $451 17.380863904697893 $318 $452 forward 7 unknown #
coedge $-1 $205 $204 $449 $453 forward $81 $-1 #
edge $-1 $325 -79.91454817346721 $451 79.91454817346721 $317 $454 forward 7 unknown #
coedge $-1 $330 $329 $205 $323 reversed $314 $-1 #
edge $-1 $455 -79.91454817346721 $324 79.91454817346721 $322 $456 forward 7 unknown #
vertex $-1 $207 $457 #
vertex $-1 $336 $458 #
straight-curve $-1 79.91454817346721 0 -17.380863904697893 0 -1 0 I I #
coedge $-1 $316 $318 $208 $328 reversed $201 $-1 #
edge $-1 $331 -45.26816370441427 $334 45.26816370441427 $327 $459 forward 7 unknown #
coedge $-1 $322 $209 $214 $337 forward $314 $-1 #
coedge $-1 $209 $322 $316 $450 reversed $314 $-1 #
vertex $-1 $210 $460 #
straight-curve $-1 0 45.26816370441427 17.380863904697893 -1 0 0 I I #
coedge $-1 $211 $317 $213 $336 reversed $125 $-1 #
vertex $-1 $328 $461 #
straight-curve $-1 0 -45.26816370441427 17.380863904697893 1 0 0 I I #
edge $-1 $216 -17.380863904697893 $325 17.380863904697893 $213 $462 forward 7 unknown #
edge $-1 $217 -17.380863904697893 $324 17.380863904697893 $214 $463 forward 7 unknown #
point $-1 79.91454817346721 -45.26816370441427 17.380863904697893 #
point $-1 79.91454817346721 45.26816370441427 17.380863904697893 #
face $-1 $-1 $232 $31 $-1 $464 reversed single #
loop $-1 $-1 $347 $219 #
plane-surface $-1 0 0 17.380863904697893 0 0 1 1 0 0 forward_v I I I I #
coedge $-1 $465 $222 $227 $352 forward $133 $-1 #
coedge $-1 $222 $465 $466 $467 reversed $133 $-1 #
coedge $-1 $224 $223 $222 $346 reversed $85 $-1 #
edge $-1 $468 -11.031812070105584 $357 -1.6662915990790346 $222 $469 forward 7 unknown #
coedge $-1 $466 $470 $224 $348 forward $341 $-1 #
edge $-1 $350 -79.91454817346721 $468 79.91454817346721 $347 $471 forward 7 unknown #
coedge $-1 $231 $225 $470 $472 reversed $232 $-1 #
vertex $-1 $226 $473 #
straight-curve $-1 79.91454817346721 -23.764289631162889 6.3490518345923093 0 0 1 I I #
edge $-1 $357 6.506176297268599 $355 28.010050370519981 $343 $474 forward 7 unknown #
coedge $-1 $475 $228 $231 $359 reversed $220 $-1 #
coedge $-1 $228 $475 $465 $476 forward $220 $-1 #
vertex $-1 $229 $477 #
straight-curve $-1 0 -45.26816370441427 8.0153434336713438 1 0 0 I I #
vertex $-1 $352 $478 #
straight-curve $-1 0 -23.764289631162889 8.0153434336713438 1 0 0 I I #
edge $-1 $479 -17.380863904697893 $233 -8.0153434336713438 $231 $480 forward 7 unknown #
point $-1 79.91454817346721 -45.26816370441427 8.0153434336713438 #
point $-1 79.91454817346721 -23.764289631162889 8.0153434336713438 #
loop $-1 $-1 $244 $236 #
plane-surface $-1 -79.91454817346721 0 0 1 0 0 0 0 -1 forward_v I I I I #
coedge $-1 $365 $239 $241 $369 reversed $141 $-1 #
coedge $-1 $239 $364 $481 $482 reversed $141 $-1 #
coedge $-1 $247 $242 $239 $367 forward $237 $-1 #
edge $-1 $370 -30.441246177371028 $483 -26.294889588063512 $366 $484 forward 7 unknown #
coedge $-1 $241 $240 $373 $485 reversed $89 $-1 #
edge $-1 $486 0 $370 7.4148950251879899 $364 $487 forward 7 unknown #
vertex $-1 $243 $488 #
straight-curve $-1 -75.768191584159695 1.9149970703920864 17.380863904697897 0 1 0 I I #
coedge $-1 $481 $244 $247 $377 reversed $362 $-1 #
coedge $-1 $244 $481 $368 $485 forward $362 $-1 #
vertex $-1 $245 $489 #
straight-curve $-1 -79.91454817346721 -3.0919487550573415 50.304465902275567 0 0 1 I I #
straight-curve $-1 -79.91454817346721 -3.0919487550573415 11.233637272397459 -0.55919289150049634 0 -0.82903758062907751 I I #
edge $-1 $483 -10.751937036625687 $248 3.0919487550573415 $372 $490 forward 7 unknown #
point $-1 -79.91454817346721 -3.0919487550573415 17.380863904697893 #
point $-1 -75.768191584159695 -3.0919487550573415 17.380863904697893 #
edge $-1 $491 1 $491 0 $251 $-1 forward 7 unknown #
vertex $-1 $252 $492 #
ellipse-curve $-1 -74.802644925467277 3.82999414078418 12.257604791011 -0.82903758062907751 0 0.55919289150049634 0.55919289150049634 0 0.82903758062907751 1 I I #
point $-1 -77.282176987312951 3.82999414078418 15.136288169176748 #
loop $-1 $-1 $262 $255 #
plane-surface $-1 -79.91454817346721 0 0 1 0 0 0 0 -1 forward_v I I I I #
coedge $-1 $493 $494 $259 $388 forward $256 $-1 #
coedge $-1 $259 $258 $393 $495 reversed $98 $-1 #
edge $-1 $390 10.272374874863917 $496 17.687269900051909 $386 $497 forward 7 unknown #
coedge $-1 $265 $260 $494 $498 forward $156 $-1 #
vertex $-1 $498 $499 #
straight-curve $-1 -75.768191584159695 19.173110404286373 17.380863904697897 0 1 0 I I #
coedge $-1 $500 $262 $265 $397 reversed $384 $-1 #
coedge $-1 $262 $500 $387 $495 forward $384 $-1 #
vertex $-1 $263 $501 #
straight-curve $-1 -79.91454817346721 31.424277912731231 50.304465902275567 0 0 1 I I #
straight-curve $-1 -79.91454817346721 31.424277912731231 11.233637272397459 -0.55919289150049634 0 -0.82903758062907751 I I #
edge $-1 $502 -45.26816370441427 $266 -31.424277912731231 $392 $503 forward 7 unknown #
point $-1 -79.91454817346721 31.424277912731231 17.380863904697893 #
point $-1 -75.768191584159695 31.424277912731231 17.380863904697893 #
edge $-1 $504 1 $504 0 $269 $-1 forward 7 unknown #
vertex $-1 $270 $505 #
ellipse-curve $-1 -74.802644925467277 38.34622080857276 12.257604791011 -0.82903758062907751 0 0.55919289150049634 0.55919289150049634 0 0.82903758062907751 1 I I #
point $-1 -77.282176987312951 38.34622080857276 15.136288169176748 #
plane-surface $-1 0 0 17.380863904697893 0 0 1 1 0 0 forward_v I I I I #
coedge $-1 $415 $414 $407 $506 forward $274 $-1 #
coedge $-1 $407 $276 $278 $411 reversed $171 $-1 #
coedge $-1 $276 $406 $405 $506 reversed $171 $-1 #
coedge $-1 $284 $279 $276 $409 forward $285 $-1 #
edge $-1 $412 14.246401088705795 $507 18.392757678013325 $408 $508 forward 7 unknown #
coedge $-1 $278 $277 $415 $509 reversed $107 $-1 #
edge $-1 $510 -159.82909634693442 $412 -152.41420132174642 $406 $511 forward 7 unknown #
vertex $-1 $280 $512 #
straight-curve $-1 75.768191584159709 1.9149970703920864 17.38086390469789 0 -1 0 I I #
coedge $-1 $405 $281 $284 $419 reversed $274 $-1 #
coedge $-1 $281 $405 $410 $509 forward $274 $-1 #
vertex $-1 $282 $513 #
straight-curve $-1 79.91454817346721 10.751937036625687 116.55662957707268 0 0 1 I I #
straight-curve $-1 -9.460746358686464 10.751937036625687 143.73796462199169 0.55919289150049634 0 -0.82903758062907751 I I #
edge $-1 $507 -3.0919487550573415 $286 10.751937036625687 $414 $514 forward 7 unknown #
point $-1 79.91454817346721 10.751937036625687 17.380863904697893 #
point $-1 75.76819158415968 10.751937036625687 17.38086390469789 #
edge $-1 $515 1 $515 0 $289 $-1 forward 7 unknown #
vertex $-1 $290 $516 #
ellipse-curve $-1 74.802644925467277 3.82999414078418 12.257604791011007 0.82903758062907751 0 0.55919289150049634 0.55919289150049634 0 -0.82903758062907751 1 I I #
point $-1 78.40056277031394 3.82999414078418 13.478213007918599 #
loop $-1 $-1 $302 $293 #
plane-surface $-1 0 45.26816370441427 0 0 -1 0 0 0 -1 forward_v I I I I #
coedge $-1 $517 $296 $301 $434 forward $186 $-1 #
coedge $-1 $296 $517 $431 $518 reversed $186 $-1 #
edge $-1 $432 99.175765672374794 $439 105.32299230467522 $296 $519 forward 7 unknown #
coedge $-1 $305 $299 $429 $518 forward $294 $-1 #
vertex $-1 $518 $520 #
straight-curve $-1 61.521790495453885 31.424277912731231 17.38086390469789 1 0 0 I I #
edge $-1 $439 12.251167508444858 $437 26.095053300127891 $428 $521 forward 7 unknown #
coedge $-1 $436 $302 $305 $441 reversed $426 $-1 #
coedge $-1 $302 $435 $517 $522 forward $426 $-1 #
vertex $-1 $303 $523 #
straight-curve $-1 25.336305309230656 45.26816370441427 92.149212393067117 -0.55919289150049634 0 0.82903758062907751 I I #
vertex $-1 $434 $524 #
straight-curve $-1 -9.460746358686464 31.424277912731231 143.73796462199169 -0.55919289150049634 0 0.82903758062907751 I I #
edge $-1 $525 -79.91454817346721 $306 -75.76819158415968 $435 $526 forward 7 unknown #
point $-1 75.76819158415968 45.268163704414263 17.38086390469789 #
point $-1 75.76819158415968 31.424277912731231 17.38086390469789 #
edge $-1 $527 1 $527 0 $309 $-1 forward 7 unknown #
vertex $-1 $310 $528 #
ellipse-curve $-1 74.802644925467277 38.34622080857276 12.257604791011007 0.82903758062907751 0 0.55919289150049634 0.55919289150049634 0 -0.82903758062907751 1 I I #
point $-1 78.40056277031394 38.34622080857276 13.478213007918599 #
plane-surface $-1 79.91454817346721 0 0 -1 0 0 0 0 1 forward_v I I I I #
coedge $-1 $318 $316 $320 $453 reversed $201 $-1 #
edge $-1 $331 -17.380863904697893 $455 17.380863904697893 $330 $529 forward 7 unknown #
vertex $-1 $453 $530 #
straight-curve $-1 -79.91454817346721 -45.26816370441427 0 0 0 -1 I I #
edge $-1 $451 -45.26816370441427 $455 45.26816370441427 $449 $531 forward 7 unknown #
straight-curve $-1 0 -45.26816370441427 -17.380863904697893 -1 0 0 I I #
vertex $-1 $323 $532 #
straight-curve $-1 0 45.26816370441427 -17.380863904697893 1 0 0 I I #
point $-1 79.91454817346721 45.26816370441427 -17.380863904697893 #
point $-1 79.91454817346721 -45.26816370441427 -17.380863904697893 #
straight-curve $-1 -79.91454817346721 0 17.380863904697893 0 -1 0 I I #
point $-1 -79.91454817346721 45.26816370441427 17.380863904697893 #
point $-1 -79.91454817346721 -45.26816370441427 17.380863904697893 #
straight-curve $-1 79.91454817346721 -45.26816370441427 0 0 0 -1 I I #
straight-curve $-1 79.91454817346721 45.26816370441427 0 0 0 -1 I I #
plane-surface $-1 79.91454817346721 0 0 -1 0 0 0 0 1 forward_v I I I I #
coedge $-1 $344 $343 $354 $476 reversed $133 $-1 #
coedge $-1 $533 $347 $344 $467 forward $341 $-1 #
edge $-1 $468 23.764289631162889 $534 45.26816370441427 $344 $535 forward 7 unknown #
vertex $-1 $467 $536 #
straight-curve $-1 -79.91454817346721 -23.764289631162889 6.3490518345923093 0 0 -1 I I #
coedge $-1 $347 $533 $349 $472 forward $341 $-1 #
straight-curve $-1 0 -23.764289631162889 17.380863904697893 -1 0 0 I I #
edge $-1 $479 -45.26816370441427 $350 -23.764289631162889 $349 $537 forward 7 unknown #
point $-1 79.91454817346721 -23.764289631162889 17.380863904697893 #
straight-curve $-1 -79.91454817346721 -17.25811333389429 8.0153434336713438 0 -1 0 I I #
coedge $-1 $354 $353 $533 $538 reversed $220 $-1 #
edge $-1 $534 -17.380863904697893 $355 -8.0153434336713438 $465 $539 forward 7 unknown #
point $-1 -79.91454817346721 -45.26816370441427 8.0153434336713438 #
point $-1 -79.91454817346721 -23.764289631162889 8.0153434336713438 #
vertex $-1 $472 $540 #
straight-curve $-1 79.91454817346721 -45.26816370441427 0 0 0 -1 I I #
coedge $-1 $373 $372 $365 $482 forward $362 $-1 #
edge $-1 $483 32.923601997577677 $486 39.070828629878108 $481 $541 forward 7 unknown #
vertex $-1 $377 $542 #
straight-curve $-1 -106.20943776153072 10.751937036625687 17.38086390469789 -1 0 0 I I #
edge $-1 $486 -8.8369399662336008 $374 5.0069458254494279 $373 $543 forward 7 unknown #
vertex $-1 $485 $544 #
straight-curve $-1 -79.91454817346721 10.751937036625687 11.233637272397459 0.55919289150049634 0 0.82903758062907751 I I #
point $-1 -75.768191584159695 10.751937036625687 17.380863904697893 #
point $-1 -79.91454817346721 -3.0919487550573415 11.233637272397459 #
straight-curve $-1 -79.91454817346721 0 17.380863904697893 0 -1 0 I I #
vertex $-1 $380 $545 #
point $-1 -74.243452033966776 3.82999414078418 13.086642371640076 #
coedge $-1 $494 $386 $500 $546 reversed $256 $-1 #
coedge $-1 $386 $493 $389 $498 reversed $256 $-1 #
edge $-1 $496 -26.095053300127891 $394 -12.251167508444858 $393 $547 forward 7 unknown #
vertex $-1 $388 $548 #
straight-curve $-1 -70.02395257530749 45.26816370441427 25.897048718269996 -0.55919289150049634 0 -0.82903758062907751 I I #
edge $-1 $390 75.768191584159695 $502 79.91454817346721 $494 $549 forward 7 unknown #
point $-1 -75.768191584159695 45.268163704414263 17.380863904697893 #
coedge $-1 $393 $392 $493 $546 forward $384 $-1 #
point $-1 -79.91454817346721 31.424277912731231 11.233637272397459 #
vertex $-1 $498 $550 #
straight-curve $-1 -79.91454817346721 0 17.380863904697893 0 -1 0 I I #
vertex $-1 $400 $551 #
point $-1 -74.243452033966776 38.34622080857276 13.086642371640076 #
edge $-1 $507 99.175765672374794 $510 105.32299230467522 $405 $552 forward 7 unknown #
vertex $-1 $419 $553 #
straight-curve $-1 61.521790495453885 -3.0919487550573415 17.38086390469789 1 0 0 I I #
edge $-1 $510 -5.0069458254494279 $416 8.8369399662336008 $415 $554 forward 7 unknown #
vertex $-1 $509 $555 #
straight-curve $-1 -9.460746358686464 -3.0919487550573415 143.73796462199169 -0.55919289150049634 0 0.82903758062907751 I I #
point $-1 75.76819158415968 -3.0919487550573415 17.38086390469789 #
point $-1 79.91454817346721 10.751937036625687 11.233637272397459 #
straight-curve $-1 79.91454817346721 0 17.380863904697893 0 1 0 I I #
vertex $-1 $422 $556 #
point $-1 75.361837816967764 3.82999414078418 11.428567210381928 #
coedge $-1 $429 $428 $436 $522 reversed $186 $-1 #
edge $-1 $432 31.424277912731231 $525 45.26816370441427 $429 $557 forward 7 unknown #
straight-curve $-1 79.91454817346721 31.424277912731231 116.55662957707268 0 0 -1 I I #
point $-1 79.91454817346721 31.424277912731231 17.380863904697893 #
straight-curve $-1 79.91454817346721 19.173110404286373 11.233637272397466 0 1 0 I I #
edge $-1 $525 -17.380863904697893 $437 -11.233637272397459 $517 $558 forward 7 unknown #
point $-1 79.91454817346721 45.268163704414263 11.233637272397459 #
point $-1 79.91454817346721 31.424277912731231 11.233637272397459 #
vertex $-1 $518 $559 #
straight-curve $-1 0 45.26816370441427 17.380863904697893 -1 0 0 I I #
vertex $-1 $444 $560 #
point $-1 75.361837816967764 38.34622080857276 11.428567210381928 #
straight-curve $-1 -79.91454817346721 45.26816370441427 0 0 0 -1 I I #
point $-1 -79.91454817346721 -45.26816370441427 -17.380863904697893 #
straight-curve $-1 -79.91454817346721 0 -17.380863904697893 0 1 0 I I #
point $-1 -79.91454817346721 45.26816370441427 -17.380863904697893 #
coedge $-1 $470 $466 $475 $538 forward $341 $-1 #
vertex $-1 $467 $561 #
straight-curve $-1 -79.91454817346721 0 17.380863904697893 0 -1 0 I I #
point $-1 -79.91454817346721 -23.764289631162889 17.380863904697893 #
straight-curve $-1 79.91454817346721 0 17.380863904697893 0 1 0 I I #
edge $-1 $534 -79.91454817346721 $479 79.91454817346721 $475 $562 forward 7 unknown #
straight-curve $-1 -79.91454817346721 -45.26816370441427 0 0 0 -1 I I #
point $-1 79.91454817346721 -45.26816370441427 17.380863904697893 #
straight-curve $-1 -79.91454817346721 10.751937036625687 50.304465902275567 0 0 -1 I I #
point $-1 -79.91454817346721 10.751937036625687 17.380863904697893 #
straight-curve $-1 -79.91454817346721 1.9149970703920864 11.233637272397459 0 -1 0 I I #
point $-1 -79.91454817346721 10.751937036625687 11.233637272397459 #
point $-1 -73.973607344838186 3.82999414078418 11.698411899510502 #
edge $-1 $502 -17.380863904697893 $496 -11.233637272397459 $493 $563 forward 7 unknown #
straight-curve $-1 -79.91454817346721 19.173110404286373 11.233637272397459 0 -1 0 I I #
point $-1 -79.91454817346721 45.268163704414263 11.233637272397459 #
straight-curve $-1 0 45.26816370441427 17.380863904697893 -1 0 0 I I #
point $-1 -79.91454817346721 45.26816370441427 17.380863904697893 #
point $-1 -73.973607344838186 38.34622080857276 11.698411899510502 #
straight-curve $-1 79.91454817346721 -3.0919487550573415 116.55662957707268 0 0 -1 I I #
point $-1 79.91454817346721 -3.0919487550573415 17.380863904697893 #
straight-curve $-1 79.91454817346721 1.9149970703920864 11.233637272397466 0 1 0 I I #
point $-1 79.91454817346721 -3.0919487550573415 11.233637272397459 #
point $-1 73.973607344838186 3.82999414078418 11.698411899510509 #
straight-curve $-1 79.91454817346721 0 17.380863904697893 0 1 0 I I #
straight-curve $-1 79.91454817346721 45.26816370441427 0 0 0 -1 I I #
point $-1 79.91454817346721 45.26816370441427 17.380863904697893 #
point $-1 73.973607344838186 38.34622080857276 11.698411899510509 #
point $-1 -79.91454817346721 -45.26816370441427 17.380863904697893 #
straight-curve $-1 0 -45.26816370441427 17.380863904697893 1 0 0 I I #
straight-curve $-1 -79.91454817346721 45.26816370441427 0 0 0 -1 I I #
End-of-ACIS-data 