500 0 17 0           
7 Unknown 11 ACIS 5.0 NT 24 Fri Mar 26 17:20:19 1999 
-1 9.9999999999999995e-007 1e-010 
body $-1 $17 $-1 $18 #
body $-1 $19 $-1 $20 #
body $-1 $21 $-1 $22 #
body $-1 $23 $-1 $24 #
body $-1 $25 $-1 $26 #
body $-1 $27 $-1 $28 #
body $-1 $29 $-1 $30 #
body $-1 $31 $-1 $32 #
body $-1 $33 $-1 $34 #
body $-1 $35 $-1 $36 #
body $-1 $37 $-1 $38 #
body $-1 $39 $-1 $40 #
body $-1 $41 $-1 $42 #
body $-1 $43 $-1 $44 #
body $-1 $45 $-1 $46 #
body $-1 $47 $-1 $48 #
body $-1 $49 $-1 $50 #
lump $-1 $-1 $51 $0 #
transform $-1 1 0 0 0 1 0 0 0 1 65.067903683584092 43.809184762577907 9.9583102165931905 1 rotate no_reflect no_shear #
lump $-1 $-1 $52 $1 #
transform $-1 1 0 0 0 1 0 0 0 1 65.067903683584092 43.809184762577907 9.9583102165931905 1 rotate no_reflect no_shear #
lump $-1 $-1 $53 $2 #
transform $-1 1 0 0 0 1 0 0 0 1 65.067903683584092 43.809184762577907 9.9583102165931905 1 rotate no_reflect no_shear #
lump $-1 $-1 $54 $3 #
transform $-1 1 0 0 0 1 0 0 0 1 65.067903683584092 43.809184762577907 9.9583102165931905 1 rotate no_reflect no_shear #
lump $-1 $-1 $55 $4 #
transform $-1 1 0 0 0 1 0 0 0 1 65.067903683584092 43.809184762577907 9.9583102165931905 1 rotate no_reflect no_shear #
lump $-1 $-1 $56 $5 #
transform $-1 1 0 0 0 1 0 0 0 1 65.067903683584092 43.809184762577907 9.9583102165931905 1 rotate no_reflect no_shear #
lump $-1 $-1 $57 $6 #
transform $-1 1 0 0 0 1 0 0 0 1 65.067903683584092 43.809184762577907 9.9583102165931905 1 rotate no_reflect no_shear #
lump $-1 $-1 $58 $7 #
transform $-1 1 0 0 0 1 0 0 0 1 65.067903683584092 43.809184762577907 9.9583102165931905 1 rotate no_reflect no_shear #
lump $-1 $-1 $59 $8 #
transform $-1 1 0 0 0 1 0 0 0 1 65.067903683584092 43.809184762577907 9.9583102165931905 1 rotate no_reflect no_shear #
lump $-1 $-1 $60 $9 #
transform $-1 1 0 0 0 1 0 0 0 1 65.067903683584092 43.809184762577907 9.9583102165931905 1 rotate no_reflect no_shear #
lump $-1 $-1 $61 $10 #
transform $-1 1 0 0 0 1 0 0 0 1 65.067903683584092 43.809184762577907 9.9583102165931905 1 rotate no_reflect no_shear #
lump $-1 $-1 $62 $11 #
transform $-1 1 0 0 0 1 0 0 0 1 65.067903683584092 43.809184762577907 9.9583102165931905 1 rotate no_reflect no_shear #
lump $-1 $-1 $63 $12 #
transform $-1 1 0 0 0 1 0 0 0 1 65.067903683584092 43.809184762577907 9.9583102165931905 1 rotate no_reflect no_shear #
lump $-1 $-1 $64 $13 #
transform $-1 1 0 0 0 1 0 0 0 1 65.067903683584092 43.809184762577907 9.9583102165931905 1 rotate no_reflect no_shear #
lump $-1 $-1 $65 $14 #
transform $-1 1 0 0 0 1 0 0 0 1 65.067903683584092 43.809184762577907 9.9583102165931905 1 rotate no_reflect no_shear #
lump $-1 $-1 $66 $15 #
transform $-1 1 0 0 0 1 0 0 0 1 65.067903683584092 43.809184762577907 9.9583102165931905 1 rotate no_reflect no_shear #
lump $-1 $-1 $67 $16 #
transform $-1 1 0 0 0 1 0 0 0 1 65.067903683584092 43.809184762577907 9.9583102165931905 1 rotate no_reflect no_shear #
shell $-1 $-1 $-1 $68 $-1 $17 #
shell $-1 $-1 $-1 $69 $-1 $19 #
shell $-1 $-1 $-1 $70 $-1 $21 #
shell $-1 $-1 $-1 $71 $-1 $23 #
shell $-1 $-1 $-1 $72 $-1 $25 #
shell $-1 $-1 $-1 $73 $-1 $27 #
shell $-1 $-1 $-1 $74 $-1 $29 #
shell $-1 $-1 $-1 $75 $-1 $31 #
shell $-1 $-1 $-1 $76 $-1 $33 #
shell $-1 $-1 $-1 $77 $-1 $35 #
shell $-1 $-1 $-1 $78 $-1 $37 #
shell $-1 $-1 $-1 $79 $-1 $39 #
shell $-1 $-1 $-1 $80 $-1 $41 #
shell $-1 $-1 $-1 $81 $-1 $43 #
shell $-1 $-1 $-1 $82 $-1 $45 #
shell $-1 $-1 $-1 $83 $-1 $47 #
shell $-1 $-1 $-1 $84 $-1 $49 #
face $-1 $85 $86 $51 $-1 $87 forward single #
face $-1 $88 $89 $52 $-1 $90 forward single #
face $-1 $91 $92 $53 $-1 $93 reversed single #
face $-1 $94 $95 $54 $-1 $96 forward single #
face $-1 $97 $98 $55 $-1 $99 forward single #
face $-1 $100 $101 $56 $-1 $102 reversed single #
face $-1 $103 $104 $57 $-1 $105 forward single #
face $-1 $106 $107 $58 $-1 $108 forward single #
face $-1 $109 $110 $59 $-1 $111 reversed single #
face $-1 $112 $113 $60 $-1 $114 forward single #
face $-1 $115 $116 $61 $-1 $117 forward single #
face $-1 $118 $119 $62 $-1 $120 reversed single #
face $-1 $121 $122 $63 $-1 $123 forward single #
face $-1 $124 $125 $64 $-1 $126 forward single #
face $-1 $127 $128 $65 $-1 $129 reversed single #
face $-1 $130 $131 $66 $-1 $132 forward single #
face $-1 $133 $134 $67 $-1 $135 forward single #
face $-1 $136 $137 $51 $-1 $138 reversed single #
loop $-1 $-1 $139 $68 #
plane-surface $-1 0 0 9.9583102165931905 0 0 1 1 0 0 forward_v I I I I #
face $-1 $140 $141 $52 $-1 $142 reversed single #
loop $-1 $-1 $143 $69 #
plane-surface $-1 0 -43.809184762577907 0 0 1 0 0 0 1 forward_v I I I I #
face $-1 $144 $145 $53 $-1 $146 reversed single #
loop $-1 $-1 $147 $70 #
plane-surface $-1 -145.18750784469017 -29.520539538494688 102.96187442761382 0 1 0 -0.61566148304635926 0 0.78801074757464917 forward_v I I I I #
face $-1 $148 $149 $54 $-1 $150 forward single #
loop $-1 $151 $152 $71 #
cone-surface $-1 -57.866113740521747 -25.581649916974108 3.7864425492696281 0.61566148304635926 0 -0.78801074757464917 0.78801074757464917 0 0.61566148304635926 1 I I 0 1 1 forward I I I I #
face $-1 $153 $154 $55 $-1 $155 forward single #
loop $-1 $156 $157 $72 #
cone-surface $-1 -57.866113740521747 -19.673315484693234 3.7864425492696281 0.61566148304635926 0 -0.78801074757464917 0.78801074757464917 0 0.61566148304635926 1 I I 0 1 1 forward I I I I #
face $-1 $158 $159 $56 $-1 $160 reversed single #
loop $-1 $-1 $161 $73 #
plane-surface $-1 -145.18750784469017 -11.693254840998328 102.96187442761382 0 1 0 -0.61566148304635926 0 0.78801074757464917 forward_v I I I I #
face $-1 $162 $163 $57 $-1 $164 forward single #
loop $-1 $165 $166 $74 #
cone-surface $-1 -57.866113740521747 -7.7543652194777408 3.7864425492696281 0.61566148304635926 0 -0.78801074757464917 0.78801074757464917 0 0.61566148304635926 1 I I 0 1 1 forward I I I I #
face $-1 $167 $168 $58 $-1 $169 forward single #
loop $-1 $170 $171 $75 #
cone-surface $-1 -57.866113740521747 -1.8460307871968737 3.7864425492696281 0.61566148304635926 0 -0.78801074757464917 0.78801074757464917 0 0.61566148304635926 1 I I 0 1 1 forward I I I I #
face $-1 $172 $173 $59 $-1 $174 reversed single #
loop $-1 $-1 $175 $76 #
plane-surface $-1 -145.18750784469017 6.1340298564980378 102.96187442761382 0 1 0 -0.61566148304635926 0 0.78801074757464917 forward_v I I I I #
face $-1 $176 $177 $60 $-1 $178 forward single #
loop $-1 $179 $180 $77 #
cone-surface $-1 -57.866113740521747 10.072919478018626 3.7864425492696281 0.61566148304635926 0 -0.78801074757464917 0.78801074757464917 0 0.61566148304635926 1 I I 0 1 1 forward I I I I #
face $-1 $181 $182 $61 $-1 $183 forward single #
loop $-1 $184 $185 $78 #
cone-surface $-1 -57.866113740521747 15.981253910299493 3.7864425492696281 0.61566148304635926 0 -0.78801074757464917 0.78801074757464917 0 0.61566148304635926 1 I I 0 1 1 forward I I I I #
face $-1 $186 $187 $62 $-1 $188 reversed single #
loop $-1 $-1 $189 $79 #
plane-surface $-1 -145.18750784469017 23.961314553994406 102.96187442761382 0 1 0 -0.61566148304635926 0 0.78801074757464917 forward_v I I I I #
face $-1 $190 $191 $63 $-1 $192 forward single #
loop $-1 $193 $194 $80 #
cone-surface $-1 -57.866113740521747 27.900204175514993 3.7864425492696281 0.61566148304635926 0 -0.78801074757464917 0.78801074757464917 0 0.61566148304635926 1 I I 0 1 1 forward I I I I #
face $-1 $195 $196 $64 $-1 $197 forward single #
loop $-1 $198 $199 $81 #
cone-surface $-1 -57.866113740521747 33.80853860779586 3.7864425492696281 0.61566148304635926 0 -0.78801074757464917 0.78801074757464917 0 0.61566148304635926 1 I I 0 1 1 forward I I I I #
face $-1 $200 $201 $65 $-1 $202 reversed single #
loop $-1 $-1 $203 $82 #
plane-surface $-1 58.645008501409194 34.214063635451723 190.86245027335144 0 -1 0 -0.68199836817093118 0 -0.7313536940579346 forward_v I I I I #
face $-1 $204 $205 $66 $-1 $206 forward single #
loop $-1 $207 $208 $83 #
cone-surface $-1 62.099355617510803 23.499091793362943 7.0016617005552773 -0.68199836817093118 0 -0.7313536940579346 0.7313536940579346 0 -0.68199836817093118 1 I I 0 1 1 forward I I I I #
face $-1 $209 $210 $67 $-1 $211 forward single #
loop $-1 $212 $213 $84 #
cone-surface $-1 62.099355617510803 29.92807489861621 7.0016617005552773 -0.68199836817093118 0 -0.7313536940579346 0.7313536940579346 0 -0.68199836817093118 1 I I 0 1 1 forward I I I I #
face $-1 $214 $215 $51 $-1 $216 reversed single #
loop $-1 $-1 $217 $85 #
plane-surface $-1 0 0 -9.9583102165931905 0 0 1 1 0 0 forward_v I I I I #
coedge $-1 $218 $219 $220 $221 forward $86 $-1 #
face $-1 $222 $223 $52 $-1 $224 reversed single #
loop $-1 $-1 $225 $88 #
plane-surface $-1 0 0 -9.9583102165931905 0 0 1 1 0 0 forward_v I I I I #
coedge $-1 $226 $227 $228 $229 forward $89 $-1 #
face $-1 $230 $231 $53 $-1 $232 reversed single #
loop $-1 $-1 $233 $91 #
plane-surface $-1 -65.067903683584092 -22.627482700833667 0.41345957798108657 -0.61566148304635926 0 0.78801074757464917 0.78801074757464917 0 0.61566148304635926 forward_v I I I I #
coedge $-1 $234 $235 $236 $237 reversed $92 $-1 #
face $-1 $-1 $238 $54 $-1 $239 forward single #
loop $-1 $240 $241 $94 #
cone-surface $-1 -56.464918785286841 -25.581649916974108 1.9929948274647789 0.61566148304635926 0 -0.78801074757464917 0.39400537378732459 0 0.30783074152317963 1 I I -0.70710678118654746 0.70710678118654746 0.5 forward I I I I #
loop $-1 $-1 $242 $71 #
coedge $-1 $152 $152 $243 $244 reversed $95 $-1 #
face $-1 $-1 $245 $55 $-1 $246 forward single #
loop $-1 $247 $248 $97 #
cone-surface $-1 -56.464918785286841 -19.673315484693234 1.9929948274647789 0.61566148304635926 0 -0.78801074757464917 0.39400537378732459 0 0.30783074152317963 1 I I -0.70710678118654746 0.70710678118654746 0.5 forward I I I I #
loop $-1 $-1 $249 $72 #
coedge $-1 $157 $157 $250 $251 reversed $98 $-1 #
face $-1 $252 $253 $56 $-1 $254 reversed single #
loop $-1 $-1 $255 $100 #
plane-surface $-1 -65.067903683584092 -4.8001980033373073 0.41345957798108657 -0.61566148304635926 0 0.78801074757464917 0.78801074757464917 0 0.61566148304635926 forward_v I I I I #
coedge $-1 $256 $257 $258 $259 reversed $101 $-1 #
face $-1 $-1 $260 $57 $-1 $261 forward single #
loop $-1 $262 $263 $103 #
cone-surface $-1 -56.464918785286841 -7.7543652194777408 1.9929948274647789 0.61566148304635926 0 -0.78801074757464917 0.39400537378732459 0 0.30783074152317963 1 I I -0.70710678118654746 0.70710678118654746 0.5 forward I I I I #
loop $-1 $-1 $264 $74 #
coedge $-1 $166 $166 $265 $266 reversed $104 $-1 #
face $-1 $-1 $267 $58 $-1 $268 forward single #
loop $-1 $269 $270 $106 #
cone-surface $-1 -56.464918785286841 -1.8460307871968737 1.9929948274647789 0.61566148304635926 0 -0.78801074757464917 0.39400537378732459 0 0.30783074152317963 1 I I -0.70710678118654746 0.70710678118654746 0.5 forward I I I I #
loop $-1 $-1 $271 $75 #
coedge $-1 $171 $171 $272 $273 reversed $107 $-1 #
face $-1 $274 $275 $59 $-1 $276 reversed single #
loop $-1 $-1 $277 $109 #
plane-surface $-1 -65.067903683584092 13.02708669415906 0.41345957798108657 -0.61566148304635926 0 0.78801074757464917 0.78801074757464917 0 0.61566148304635926 forward_v I I I I #
coedge $-1 $278 $279 $280 $281 reversed $110 $-1 #
face $-1 $-1 $282 $60 $-1 $283 forward single #
loop $-1 $284 $285 $112 #
cone-surface $-1 -56.464918785286841 10.072919478018626 1.9929948274647789 0.61566148304635926 0 -0.78801074757464917 0.39400537378732459 0 0.30783074152317963 1 I I -0.70710678118654746 0.70710678118654746 0.5 forward I I I I #
loop $-1 $-1 $286 $77 #
coedge $-1 $180 $180 $287 $288 reversed $113 $-1 #
face $-1 $-1 $289 $61 $-1 $290 forward single #
loop $-1 $291 $292 $115 #
cone-surface $-1 -56.464918785286841 15.981253910299493 1.9929948274647789 0.61566148304635926 0 -0.78801074757464917 0.39400537378732459 0 0.30783074152317963 1 I I -0.70710678118654746 0.70710678118654746 0.5 forward I I I I #
loop $-1 $-1 $293 $78 #
coedge $-1 $185 $185 $294 $295 reversed $116 $-1 #
face $-1 $296 $297 $62 $-1 $298 reversed single #
loop $-1 $-1 $299 $118 #
plane-surface $-1 -65.067903683584092 30.854371391655427 0.41345957798108657 -0.61566148304635926 0 0.78801074757464917 0.78801074757464917 0 0.61566148304635926 forward_v I I I I #
coedge $-1 $300 $301 $302 $303 reversed $119 $-1 #
face $-1 $-1 $304 $63 $-1 $305 forward single #
loop $-1 $306 $307 $121 #
cone-surface $-1 -56.464918785286841 27.900204175514993 1.9929948274647789 0.61566148304635926 0 -0.78801074757464917 0.39400537378732459 0 0.30783074152317963 1 I I -0.70710678118654746 0.70710678118654746 0.5 forward I I I I #
loop $-1 $-1 $308 $80 #
coedge $-1 $194 $194 $309 $310 reversed $122 $-1 #
face $-1 $-1 $311 $64 $-1 $312 forward single #
loop $-1 $313 $314 $124 #
cone-surface $-1 -56.464918785286841 33.80853860779586 1.9929948274647789 0.61566148304635926 0 -0.78801074757464917 0.39400537378732459 0 0.30783074152317963 1 I I -0.70710678118654746 0.70710678118654746 0.5 forward I I I I #
loop $-1 $-1 $315 $81 #
coedge $-1 $199 $199 $316 $317 reversed $125 $-1 #
face $-1 $318 $319 $65 $-1 $320 reversed single #
loop $-1 $-1 $321 $127 #
plane-surface $-1 -30.107399763606153 26.713583345989569 95.687146826161211 0.68199836817093118 0 0.7313536940579346 0.7313536940579346 0 -0.68199836817093118 forward_v I I I I #
coedge $-1 $322 $323 $324 $325 reversed $128 $-1 #
face $-1 $-1 $326 $66 $-1 $327 forward single #
loop $-1 $328 $329 $130 #
cone-surface $-1 60.411000149225956 23.499091793362943 5.1911221652120503 -0.68199836817093118 0 -0.7313536940579346 0.3656768470289673 0 -0.34099918408546559 1 I I -0.70710678118654746 0.70710678118654746 0.5 forward I I I I #
loop $-1 $-1 $330 $83 #
coedge $-1 $208 $208 $331 $332 reversed $131 $-1 #
face $-1 $-1 $333 $67 $-1 $334 forward single #
loop $-1 $335 $336 $133 #
cone-surface $-1 60.411000149225956 29.92807489861621 5.1911221652120503 -0.68199836817093118 0 -0.7313536940579346 0.3656768470289673 0 -0.34099918408546559 1 I I -0.70710678118654746 0.70710678118654746 0.5 forward I I I I #
loop $-1 $-1 $337 $84 #
coedge $-1 $213 $213 $338 $339 reversed $134 $-1 #
face $-1 $340 $341 $51 $-1 $342 reversed single #
loop $-1 $-1 $343 $136 #
plane-surface $-1 0 -43.809184762577907 0 0 1 0 0 0 1 forward_v I I I I #
coedge $-1 $344 $345 $346 $347 forward $137 $-1 #
coedge $-1 $348 $139 $349 $350 forward $86 $-1 #
coedge $-1 $139 $348 $351 $352 forward $86 $-1 #
coedge $-1 $353 $354 $139 $221 reversed $355 $-1 #
edge $-1 $356 -43.809184762577907 $357 43.809184762577907 $220 $358 forward 7 unknown #
face $-1 $359 $360 $52 $-1 $361 reversed single #
loop $-1 $-1 $362 $140 #
plane-surface $-1 -62.590859845210005 -52.036073453399645 0 0 1 0 0 0 1 forward_v I I I I #
coedge $-1 $363 $364 $227 $365 forward $141 $-1 #
coedge $-1 $366 $143 $367 $368 reversed $89 $-1 #
coedge $-1 $143 $366 $225 $365 reversed $89 $-1 #
coedge $-1 $369 $370 $143 $229 reversed $360 $-1 #
edge $-1 $371 -9.9583102165931905 $372 9.9583102165931905 $228 $373 forward 7 unknown #
face $-1 $374 $375 $53 $-1 $376 reversed single #
loop $-1 $-1 $377 $144 #
plane-surface $-1 -145.18750784469017 -15.734425863172646 102.96187442761382 0 -1 0 0.61566148304635926 0 -0.78801074757464917 forward_v I I I I #
coedge $-1 $378 $379 $380 $381 reversed $145 $-1 #
coedge $-1 $235 $147 $382 $383 reversed $92 $-1 #
coedge $-1 $147 $234 $378 $384 reversed $92 $-1 #
coedge $-1 $380 $385 $147 $237 forward $386 $-1 #
edge $-1 $387 7.5258502387609951 $388 19.742701697462252 $236 $389 forward 7 unknown #
loop $-1 $-1 $243 $148 #
plane-surface $-1 -65.067903683584092 -22.627482700833667 0.41345957798108657 -0.61566148304635926 0 0.78801074757464917 0.78801074757464917 0 0.61566148304635926 forward_v I I I I #
loop $-1 $-1 $390 $94 #
coedge $-1 $241 $241 $242 $391 reversed $149 $-1 #
coedge $-1 $242 $242 $241 $391 forward $151 $-1 #
coedge $-1 $243 $243 $152 $244 forward $238 $-1 #
edge $-1 $392 0 $392 6.2831853071796004 $243 $393 forward 7 unknown #
loop $-1 $-1 $250 $153 #
plane-surface $-1 -65.067903683584092 -22.627482700833667 0.41345957798108657 -0.61566148304635926 0 0.78801074757464917 0.78801074757464917 0 0.61566148304635926 forward_v I I I I #
loop $-1 $-1 $394 $97 #
coedge $-1 $248 $248 $249 $395 reversed $154 $-1 #
coedge $-1 $249 $249 $248 $395 forward $156 $-1 #
coedge $-1 $250 $250 $157 $251 forward $245 $-1 #
edge $-1 $396 0 $396 6.2831853071796004 $250 $397 forward 7 unknown #
face $-1 $398 $399 $56 $-1 $400 forward single #
loop $-1 $-1 $401 $158 #
plane-surface $-1 -145.18750784469017 2.0928588343237147 102.96187442761382 0 -1 0 0.61566148304635926 0 -0.78801074757464917 forward_v I I I I #
coedge $-1 $402 $403 $404 $405 reversed $159 $-1 #
coedge $-1 $257 $161 $406 $407 reversed $101 $-1 #
coedge $-1 $161 $256 $402 $408 reversed $101 $-1 #
coedge $-1 $404 $409 $161 $259 forward $399 $-1 #
edge $-1 $410 7.5258502387609951 $411 19.742701697462252 $258 $412 forward 7 unknown #
loop $-1 $-1 $265 $162 #
plane-surface $-1 -65.067903683584092 -4.8001980033373073 0.41345957798108657 -0.61566148304635926 0 0.78801074757464917 0.78801074757464917 0 0.61566148304635926 forward_v I I I I #
loop $-1 $-1 $413 $103 #
coedge $-1 $263 $263 $264 $414 reversed $163 $-1 #
coedge $-1 $264 $264 $263 $414 forward $165 $-1 #
coedge $-1 $265 $265 $166 $266 forward $260 $-1 #
edge $-1 $415 0 $415 6.2831853071796004 $265 $416 forward 7 unknown #
loop $-1 $-1 $272 $167 #
plane-surface $-1 -65.067903683584092 -4.8001980033373073 0.41345957798108657 -0.61566148304635926 0 0.78801074757464917 0.78801074757464917 0 0.61566148304635926 forward_v I I I I #
loop $-1 $-1 $417 $106 #
coedge $-1 $270 $270 $271 $418 reversed $168 $-1 #
coedge $-1 $271 $271 $270 $418 forward $170 $-1 #
coedge $-1 $272 $272 $171 $273 forward $267 $-1 #
edge $-1 $419 0 $419 6.2831853071796004 $272 $420 forward 7 unknown #
face $-1 $421 $422 $59 $-1 $423 forward single #
loop $-1 $-1 $424 $172 #
plane-surface $-1 -145.18750784469017 19.920143531820081 102.96187442761382 0 -1 0 0.61566148304635926 0 -0.78801074757464917 forward_v I I I I #
coedge $-1 $425 $426 $427 $428 reversed $173 $-1 #
coedge $-1 $279 $175 $429 $430 reversed $110 $-1 #
coedge $-1 $175 $278 $425 $431 reversed $110 $-1 #
coedge $-1 $427 $432 $175 $281 forward $422 $-1 #
edge $-1 $433 7.5258502387609951 $434 19.742701697462252 $280 $435 forward 7 unknown #
loop $-1 $-1 $287 $176 #
plane-surface $-1 -65.067903683584092 13.02708669415906 0.41345957798108657 -0.61566148304635926 0 0.78801074757464917 0.78801074757464917 0 0.61566148304635926 forward_v I I I I #
loop $-1 $-1 $436 $112 #
coedge $-1 $285 $285 $286 $437 reversed $177 $-1 #
coedge $-1 $286 $286 $285 $437 forward $179 $-1 #
coedge $-1 $287 $287 $180 $288 forward $282 $-1 #
edge $-1 $438 0 $438 6.2831853071796004 $287 $439 forward 7 unknown #
loop $-1 $-1 $294 $181 #
plane-surface $-1 -65.067903683584092 13.02708669415906 0.41345957798108657 -0.61566148304635926 0 0.78801074757464917 0.78801074757464917 0 0.61566148304635926 forward_v I I I I #
loop $-1 $-1 $440 $115 #
coedge $-1 $292 $292 $293 $441 reversed $182 $-1 #
coedge $-1 $293 $293 $292 $441 forward $184 $-1 #
coedge $-1 $294 $294 $185 $295 forward $289 $-1 #
edge $-1 $442 0 $442 6.2831853071796004 $294 $443 forward 7 unknown #
face $-1 $444 $445 $62 $-1 $446 forward single #
loop $-1 $-1 $447 $186 #
plane-surface $-1 -145.18750784469017 37.747428229316448 102.96187442761382 0 -1 0 0.61566148304635926 0 -0.78801074757464917 forward_v I I I I #
coedge $-1 $448 $449 $450 $451 reversed $187 $-1 #
coedge $-1 $301 $189 $452 $453 reversed $119 $-1 #
coedge $-1 $189 $300 $448 $454 reversed $119 $-1 #
coedge $-1 $450 $455 $189 $303 forward $445 $-1 #
edge $-1 $456 7.5258502387609951 $457 19.742701697462252 $302 $458 forward 7 unknown #
loop $-1 $-1 $309 $190 #
plane-surface $-1 -65.067903683584092 30.854371391655427 0.41345957798108657 -0.61566148304635926 0 0.78801074757464917 0.78801074757464917 0 0.61566148304635926 forward_v I I I I #
loop $-1 $-1 $459 $121 #
coedge $-1 $307 $307 $308 $460 reversed $191 $-1 #
coedge $-1 $308 $308 $307 $460 forward $193 $-1 #
coedge $-1 $309 $309 $194 $310 forward $304 $-1 #
edge $-1 $461 0 $461 6.2831853071796004 $309 $462 forward 7 unknown #
loop $-1 $-1 $316 $195 #
plane-surface $-1 -65.067903683584092 30.854371391655427 0.41345957798108657 -0.61566148304635926 0 0.78801074757464917 0.78801074757464917 0 0.61566148304635926 forward_v I I I I #
loop $-1 $-1 $463 $124 #
coedge $-1 $314 $314 $315 $464 reversed $196 $-1 #
coedge $-1 $315 $315 $314 $464 forward $198 $-1 #
coedge $-1 $316 $316 $199 $317 forward $311 $-1 #
edge $-1 $465 0 $465 6.2831853071796004 $316 $466 forward 7 unknown #
face $-1 $467 $468 $65 $-1 $469 forward single #
loop $-1 $-1 $470 $200 #
plane-surface $-1 58.645008501409194 19.213103056527416 190.86245027335144 0 1 0 0.68199836817093118 0 0.7313536940579346 forward_v I I I I #
coedge $-1 $471 $472 $473 $474 reversed $201 $-1 #
coedge $-1 $323 $203 $475 $476 reversed $128 $-1 #
coedge $-1 $203 $322 $471 $477 reversed $128 $-1 #
coedge $-1 $473 $478 $203 $325 forward $468 $-1 #
edge $-1 $479 -35.745399432879495 $480 -32.503015869131659 $324 $481 forward 7 unknown #
loop $-1 $-1 $331 $204 #
plane-surface $-1 -30.107399763606153 26.713583345989569 95.687146826161211 0.68199836817093118 0 0.7313536940579346 0.7313536940579346 0 -0.68199836817093118 forward_v I I I I #
loop $-1 $-1 $482 $130 #
coedge $-1 $329 $329 $330 $483 reversed $205 $-1 #
coedge $-1 $330 $330 $329 $483 forward $207 $-1 #
coedge $-1 $331 $331 $208 $332 forward $326 $-1 #
edge $-1 $484 0 $484 6.2831853071796004 $331 $485 forward 7 unknown #
loop $-1 $-1 $338 $209 #
plane-surface $-1 -30.107399763606153 26.713583345989569 95.687146826161211 0.68199836817093118 0 0.7313536940579346 0.7313536940579346 0 -0.68199836817093118 forward_v I I I I #
loop $-1 $-1 $486 $133 #
coedge $-1 $336 $336 $337 $487 reversed $210 $-1 #
coedge $-1 $337 $337 $336 $487 forward $212 $-1 #
coedge $-1 $338 $338 $213 $339 forward $333 $-1 #
edge $-1 $488 0 $488 6.2831853071796004 $338 $489 forward 7 unknown #
face $-1 $490 $491 $51 $-1 $492 reversed single #
loop $-1 $-1 $493 $214 #
plane-surface $-1 -65.067903683584092 0 0 1 0 0 0 0 -1 forward_v I I I I #
coedge $-1 $494 $351 $495 $496 forward $215 $-1 #
coedge $-1 $497 $217 $494 $498 forward $137 $-1 #
coedge $-1 $217 $497 $499 $500 forward $137 $-1 #
coedge $-1 $354 $353 $217 $347 reversed $355 $-1 #
edge $-1 $501 -43.809184762577907 $502 43.809184762577907 $346 $503 forward 7 unknown #
coedge $-1 $219 $218 $504 $505 forward $86 $-1 #
coedge $-1 $506 $507 $218 $350 reversed $491 $-1 #
edge $-1 $357 -65.067903683584092 $508 65.067903683584092 $349 $509 forward 7 unknown #
coedge $-1 $343 $510 $219 $352 reversed $215 $-1 #
edge $-1 $511 -65.067903683584092 $356 65.067903683584092 $351 $512 forward 7 unknown #
coedge $-1 $346 $220 $510 $513 forward $355 $-1 #
coedge $-1 $220 $346 $506 $514 reversed $355 $-1 #
loop $-1 $-1 $353 $490 #
vertex $-1 $221 $515 #
vertex $-1 $221 $516 #
straight-curve $-1 65.067903683584092 0 9.9583102165931905 0 1 0 I I #
face $-1 $517 $518 $52 $-1 $519 reversed single #
loop $-1 $-1 $228 $222 #
plane-surface $-1 -64.567903683584092 -47.922629107988776 0 1 0 0 0 0 -1 forward_v I I I I #
coedge $-1 $520 $521 $522 $523 forward $223 $-1 #
coedge $-1 $524 $225 $525 $526 forward $141 $-1 #
coedge $-1 $225 $524 $369 $527 forward $141 $-1 #
edge $-1 $371 -64.567903683584092 $528 -60.613816006835918 $225 $529 forward 7 unknown #
coedge $-1 $227 $226 $530 $531 forward $89 $-1 #
coedge $-1 $532 $533 $226 $368 forward $534 $-1 #
edge $-1 $535 60.613816006835918 $372 64.567903683584092 $367 $536 forward 7 unknown #
coedge $-1 $522 $228 $364 $527 reversed $360 $-1 #
coedge $-1 $228 $522 $532 $537 reversed $360 $-1 #
vertex $-1 $365 $538 #
vertex $-1 $537 $539 #
straight-curve $-1 -64.567903683584092 -43.809184762577907 0 0 0 1 I I #
face $-1 $-1 $386 $53 $-1 $540 forward single #
loop $-1 $-1 $541 $230 #
plane-surface $-1 -65.067903683584092 0 0 1 0 0 0 0 -1 forward_v I I I I #
coedge $-1 $542 $543 $544 $545 reversed $231 $-1 #
coedge $-1 $546 $233 $235 $384 forward $145 $-1 #
coedge $-1 $233 $546 $542 $547 forward $145 $-1 #
coedge $-1 $544 $236 $233 $381 forward $386 $-1 #
edge $-1 $388 -18.206798188077855 $548 -4.4206845127558125 $380 $549 forward 7 unknown #
coedge $-1 $550 $551 $234 $383 forward $375 $-1 #
edge $-1 $552 -51.067477635825824 $387 -41.52262699721372 $382 $553 forward 7 unknown #
edge $-1 $388 -15.50340715060354 $552 0 $235 $554 forward 7 unknown #
coedge $-1 $236 $544 $550 $555 forward $386 $-1 #
loop $-1 $-1 $544 $374 #
vertex $-1 $383 $556 #
vertex $-1 $237 $557 #
straight-curve $-1 -72.593753922345087 -29.520539538494688 9.9583102165931905 1 0 0 I I #
coedge $-1 $390 $390 $-1 $558 reversed $240 $-1 #
edge $-1 $559 0 $559 6.2831853071796004 $241 $560 forward 7 unknown #
vertex $-1 $244 $561 #
ellipse-curve $-1 -58.959477954233463 -25.581649916974108 5.1858848972871385 -0.61566148304635926 0 0.78801074757464917 0.78801074757464917 0 0.61566148304635926 1 I I #
coedge $-1 $394 $394 $-1 $562 reversed $247 $-1 #
edge $-1 $563 0 $563 6.2831853071796004 $248 $564 forward 7 unknown #
vertex $-1 $251 $565 #
ellipse-curve $-1 -58.959477954233463 -19.673315484693234 5.1858848972871385 -0.61566148304635926 0 0.78801074757464917 0.78801074757464917 0 0.61566148304635926 1 I I #
face $-1 $-1 $566 $56 $-1 $567 reversed single #
loop $-1 $-1 $258 $252 #
plane-surface $-1 0 0 9.9583102165931905 0 0 1 1 0 0 forward_v I I I I #
coedge $-1 $568 $569 $570 $571 reversed $253 $-1 #
coedge $-1 $572 $255 $257 $408 forward $159 $-1 #
coedge $-1 $255 $572 $568 $573 forward $159 $-1 #
coedge $-1 $570 $258 $255 $405 forward $399 $-1 #
edge $-1 $411 -9.2931558393296747 $574 4.4929578359923683 $404 $575 forward 7 unknown #
coedge $-1 $576 $577 $256 $407 forward $566 $-1 #
edge $-1 $578 -51.067477635825824 $410 -41.52262699721372 $406 $579 forward 7 unknown #
edge $-1 $411 -15.50340715060354 $578 0 $257 $580 forward 7 unknown #
coedge $-1 $258 $570 $576 $581 forward $399 $-1 #
vertex $-1 $259 $582 #
vertex $-1 $259 $583 #
straight-curve $-1 -72.593753922345087 -11.693254840998328 9.9583102165931905 1 0 0 I I #
coedge $-1 $413 $413 $-1 $584 reversed $262 $-1 #
edge $-1 $585 0 $585 6.2831853071796004 $263 $586 forward 7 unknown #
vertex $-1 $266 $587 #
ellipse-curve $-1 -58.959477954233463 -7.7543652194777408 5.1858848972871385 -0.61566148304635926 0 0.78801074757464917 0.78801074757464917 0 0.61566148304635926 1 I I #
coedge $-1 $417 $417 $-1 $588 reversed $269 $-1 #
edge $-1 $589 0 $589 6.2831853071796004 $270 $590 forward 7 unknown #
vertex $-1 $273 $591 #
ellipse-curve $-1 -58.959477954233463 -1.8460307871968737 5.1858848972871385 -0.61566148304635926 0 0.78801074757464917 0.78801074757464917 0 0.61566148304635926 1 I I #
face $-1 $-1 $592 $59 $-1 $593 reversed single #
loop $-1 $-1 $280 $274 #
plane-surface $-1 0 0 9.9583102165931905 0 0 1 1 0 0 forward_v I I I I #
coedge $-1 $594 $595 $596 $597 reversed $275 $-1 #
coedge $-1 $598 $277 $279 $431 forward $173 $-1 #
coedge $-1 $277 $598 $594 $599 forward $173 $-1 #
coedge $-1 $596 $280 $277 $428 forward $422 $-1 #
edge $-1 $434 -0.37951349058149209 $600 13.406600184740551 $427 $601 forward 7 unknown #
coedge $-1 $602 $603 $278 $430 forward $592 $-1 #
edge $-1 $604 -51.067477635825824 $433 -41.52262699721372 $429 $605 forward 7 unknown #
edge $-1 $434 -15.50340715060354 $604 0 $279 $606 forward 7 unknown #
coedge $-1 $280 $596 $602 $607 forward $422 $-1 #
vertex $-1 $281 $608 #
vertex $-1 $281 $609 #
straight-curve $-1 -72.593753922345087 6.1340298564980378 9.9583102165931905 1 0 0 I I #
coedge $-1 $436 $436 $-1 $610 reversed $284 $-1 #
edge $-1 $611 0 $611 6.2831853071796004 $285 $612 forward 7 unknown #
vertex $-1 $288 $613 #
ellipse-curve $-1 -58.959477954233463 10.072919478018626 5.1858848972871385 -0.61566148304635926 0 0.78801074757464917 0.78801074757464917 0 0.61566148304635926 1 I I #
coedge $-1 $440 $440 $-1 $614 reversed $291 $-1 #
edge $-1 $615 0 $615 6.2831853071796004 $292 $616 forward 7 unknown #
vertex $-1 $295 $617 #
ellipse-curve $-1 -58.959477954233463 15.981253910299493 5.1858848972871385 -0.61566148304635926 0 0.78801074757464917 0.78801074757464917 0 0.61566148304635926 1 I I #
face $-1 $-1 $618 $62 $-1 $619 reversed single #
loop $-1 $-1 $302 $296 #
plane-surface $-1 0 0 9.9583102165931905 0 0 1 1 0 0 forward_v I I I I #
coedge $-1 $620 $621 $622 $623 reversed $297 $-1 #
coedge $-1 $624 $299 $301 $454 forward $187 $-1 #
coedge $-1 $299 $624 $620 $625 forward $187 $-1 #
coedge $-1 $622 $302 $299 $451 forward $445 $-1 #
edge $-1 $457 8.5341288581666923 $626 22.320242533488734 $450 $627 forward 7 unknown #
coedge $-1 $628 $629 $300 $453 forward $618 $-1 #
edge $-1 $630 -51.067477635825824 $456 -41.52262699721372 $452 $631 forward 7 unknown #
edge $-1 $457 -15.50340715060354 $630 0 $301 $632 forward 7 unknown #
coedge $-1 $302 $622 $628 $633 forward $445 $-1 #
vertex $-1 $303 $634 #
vertex $-1 $303 $635 #
straight-curve $-1 -72.593753922345087 23.961314553994406 9.9583102165931905 1 0 0 I I #
coedge $-1 $459 $459 $-1 $636 reversed $306 $-1 #
edge $-1 $637 0 $637 6.2831853071796004 $307 $638 forward 7 unknown #
vertex $-1 $310 $639 #
ellipse-curve $-1 -58.959477954233463 27.900204175514993 5.1858848972871385 -0.61566148304635926 0 0.78801074757464917 0.78801074757464917 0 0.61566148304635926 1 I I #
coedge $-1 $463 $463 $-1 $640 reversed $313 $-1 #
edge $-1 $641 0 $641 6.2831853071796004 $314 $642 forward 7 unknown #
vertex $-1 $317 $643 #
ellipse-curve $-1 -58.959477954233463 33.80853860779586 5.1858848972871385 -0.61566148304635926 0 0.78801074757464917 0.78801074757464917 0 0.61566148304635926 1 I I #
face $-1 $-1 $644 $65 $-1 $645 reversed single #
loop $-1 $-1 $324 $318 #
plane-surface $-1 0 0 9.9583102165931905 0 0 1 1 0 0 forward_v I I I I #
coedge $-1 $646 $647 $648 $649 reversed $319 $-1 #
coedge $-1 $650 $321 $323 $477 forward $201 $-1 #
coedge $-1 $321 $650 $646 $651 forward $201 $-1 #
coedge $-1 $648 $324 $321 $474 forward $468 $-1 #
edge $-1 $480 -20.857271962456938 $652 -5.8563113835326313 $473 $653 forward 7 unknown #
coedge $-1 $654 $655 $322 $476 forward $644 $-1 #
edge $-1 $656 -88.496486575529872 $479 -85.47291492008253 $475 $657 forward 7 unknown #
edge $-1 $480 125.70240723520553 $656 130.13580736716818 $323 $658 forward 7 unknown #
coedge $-1 $324 $648 $654 $659 forward $468 $-1 #
vertex $-1 $325 $660 #
vertex $-1 $325 $661 #
straight-curve $-1 29.322504250704597 34.214063635451723 9.9583102165931905 -1 0 0 I I #
coedge $-1 $482 $482 $-1 $662 reversed $328 $-1 #
edge $-1 $663 0 $663 6.2831853071796004 $329 $664 forward 7 unknown #
vertex $-1 $332 $665 #
ellipse-curve $-1 63.446711901710174 23.499091793362943 8.4465243888695269 0.68199836817093118 0 0.7313536940579346 0.7313536940579346 0 -0.68199836817093118 1 I I #
coedge $-1 $486 $486 $-1 $666 reversed $335 $-1 #
edge $-1 $667 0 $667 6.2831853071796004 $336 $668 forward 7 unknown #
vertex $-1 $339 $669 #
ellipse-curve $-1 63.446711901710174 29.92807489861621 8.4465243888695269 0.68199836817093118 0 0.7313536940579346 0.7313536940579346 0 -0.68199836817093118 1 I I #
face $-1 $-1 $355 $51 $-1 $670 reversed single #
loop $-1 $-1 $506 $340 #
plane-surface $-1 0 43.809184762577907 0 0 -1 0 0 0 -1 forward_v I I I I #
coedge $-1 $671 $504 $507 $672 forward $341 $-1 #
coedge $-1 $510 $343 $344 $498 reversed $215 $-1 #
coedge $-1 $504 $671 $343 $496 reversed $341 $-1 #
edge $-1 $511 -9.9583102165931905 $673 9.9583102165931905 $495 $674 forward 7 unknown #
coedge $-1 $345 $344 $671 $675 forward $137 $-1 #
edge $-1 $502 -65.067903683584092 $673 65.067903683584092 $494 $676 forward 7 unknown #
coedge $-1 $507 $506 $345 $500 reversed $491 $-1 #
edge $-1 $677 -65.067903683584092 $501 65.067903683584092 $499 $678 forward 7 unknown #
vertex $-1 $347 $679 #
vertex $-1 $513 $680 #
straight-curve $-1 65.067903683584092 0 -9.9583102165931905 0 -1 0 I I #
coedge $-1 $493 $495 $348 $505 reversed $341 $-1 #
edge $-1 $508 -43.809184762577907 $511 43.809184762577907 $504 $681 forward 7 unknown #
coedge $-1 $499 $349 $354 $514 forward $491 $-1 #
coedge $-1 $349 $499 $493 $672 reversed $491 $-1 #
vertex $-1 $350 $682 #
straight-curve $-1 0 43.809184762577907 9.9583102165931905 -1 0 0 I I #
coedge $-1 $351 $494 $353 $513 reversed $215 $-1 #
vertex $-1 $505 $683 #
straight-curve $-1 0 -43.809184762577907 9.9583102165931905 1 0 0 I I #
edge $-1 $356 -9.9583102165931905 $502 9.9583102165931905 $353 $684 forward 7 unknown #
edge $-1 $357 -9.9583102165931905 $501 9.9583102165931905 $354 $685 forward 7 unknown #
point $-1 65.067903683584092 -43.809184762577907 9.9583102165931905 #
point $-1 65.067903683584092 43.809184762577907 9.9583102165931905 #
face $-1 $-1 $534 $52 $-1 $686 forward single #
loop $-1 $-1 $687 $359 #
plane-surface $-1 -60.613816006835918 -47.922629107988776 0 -1 0 0 0 0 1 forward_v I I I I #
coedge $-1 $688 $362 $524 $689 reversed $223 $-1 #
coedge $-1 $362 $688 $690 $691 reversed $223 $-1 #
coedge $-1 $370 $369 $362 $523 reversed $360 $-1 #
edge $-1 $692 -9.9583102165931905 $693 9.9583102165931905 $522 $694 forward 7 unknown #
coedge $-1 $364 $363 $520 $689 forward $141 $-1 #
coedge $-1 $530 $687 $363 $526 reversed $518 $-1 #
edge $-1 $528 -4.1134443454108691 $695 4.1134443454108691 $525 $696 forward 7 unknown #
edge $-1 $693 -4.1134443454108691 $371 4.1134443454108691 $369 $697 forward 7 unknown #
vertex $-1 $526 $698 #
straight-curve $-1 0 -43.809184762577907 -9.9583102165931905 1 0 0 I I #
coedge $-1 $699 $525 $366 $531 reversed $518 $-1 #
edge $-1 $535 -9.9583102165931905 $528 9.9583102165931905 $530 $700 forward 7 unknown #
coedge $-1 $690 $367 $370 $537 forward $534 $-1 #
coedge $-1 $367 $690 $699 $701 forward $534 $-1 #
loop $-1 $-1 $367 $517 #
vertex $-1 $368 $702 #
straight-curve $-1 0 -43.809184762577907 9.9583102165931905 -1 0 0 I I #
edge $-1 $372 -4.1134443454108691 $692 4.1134443454108691 $370 $703 forward 7 unknown #
point $-1 -64.567903683584092 -43.809184762577907 -9.9583102165931905 #
point $-1 -64.567903683584092 -43.809184762577907 9.9583102165931905 #
plane-surface $-1 0 0 9.9583102165931905 0 0 1 1 0 0 forward_v I I I I #
coedge $-1 $551 $550 $543 $704 forward $375 $-1 #
coedge $-1 $543 $377 $379 $547 reversed $231 $-1 #
coedge $-1 $377 $542 $541 $704 reversed $231 $-1 #
coedge $-1 $385 $380 $377 $545 forward $386 $-1 #
edge $-1 $548 -19.742701697462252 $705 -7.5258502387609951 $544 $706 forward 7 unknown #
coedge $-1 $379 $378 $551 $707 reversed $145 $-1 #
edge $-1 $708 0 $548 15.50340715060354 $542 $709 forward 7 unknown #
vertex $-1 $381 $710 #
straight-curve $-1 -52.851052224882835 -11.313741350416834 9.9583102165931887 0 1 0 I I #
coedge $-1 $541 $382 $385 $555 reversed $375 $-1 #
coedge $-1 $382 $541 $546 $707 forward $375 $-1 #
vertex $-1 $383 $711 #
straight-curve $-1 -65.067903683584092 -29.520539538494688 51.480937213806911 0 0 1 I I #
straight-curve $-1 -65.067903683584092 -29.520539538494688 0.41345957798108657 -0.78801074757464917 0 -0.61566148304635926 I I #
edge $-1 $705 15.734425863172646 $387 29.520539538494688 $550 $712 forward 7 unknown #
point $-1 -65.067903683584092 -29.520539538494688 9.9583102165931905 #
point $-1 -52.851052224882835 -29.520539538494688 9.9583102165931905 #
edge $-1 $713 1 $713 0 $390 $-1 forward 7 unknown #
vertex $-1 $391 $714 #
ellipse-curve $-1 -56.772749526810017 -25.581649916974108 2.3870002012521034 -0.61566148304635926 0 0.78801074757464917 0.78801074757464917 0 0.61566148304635926 1 I I #
point $-1 -58.171467206658832 -25.581649916974108 5.8015463803335106 #
edge $-1 $715 1 $715 0 $394 $-1 forward 7 unknown #
vertex $-1 $395 $716 #
ellipse-curve $-1 -56.772749526810017 -19.673315484693234 2.3870002012521034 -0.61566148304635926 0 0.78801074757464917 0.78801074757464917 0 0.61566148304635926 1 I I #
point $-1 -58.171467206658832 -19.673315484693234 5.8015463803335106 #
loop $-1 $-1 $406 $398 #
plane-surface $-1 -65.067903683584092 0 0 1 0 0 0 0 -1 forward_v I I I I #
coedge $-1 $569 $401 $403 $573 reversed $253 $-1 #
coedge $-1 $401 $568 $717 $718 reversed $253 $-1 #
coedge $-1 $409 $404 $401 $571 forward $399 $-1 #
edge $-1 $574 -19.742701697462252 $719 -7.5258502387609951 $570 $720 forward 7 unknown #
coedge $-1 $403 $402 $577 $721 reversed $159 $-1 #
edge $-1 $722 0 $574 15.50340715060354 $568 $723 forward 7 unknown #
vertex $-1 $405 $724 #
straight-curve $-1 -52.851052224882835 -2.4000990016686536 9.9583102165931887 0 1 0 I I #
coedge $-1 $717 $406 $409 $581 reversed $566 $-1 #
coedge $-1 $406 $717 $572 $721 forward $566 $-1 #
vertex $-1 $407 $725 #
straight-curve $-1 -65.067903683584092 -11.693254840998328 51.480937213806911 0 0 1 I I #
straight-curve $-1 -65.067903683584092 -11.693254840998328 0.41345957798108657 -0.78801074757464917 0 -0.61566148304635926 I I #
edge $-1 $719 -2.0928588343237147 $410 11.693254840998328 $576 $726 forward 7 unknown #
point $-1 -65.067903683584092 -11.693254840998328 9.9583102165931905 #
point $-1 -52.851052224882835 -11.693254840998328 9.9583102165931905 #
edge $-1 $727 1 $727 0 $413 $-1 forward 7 unknown #
vertex $-1 $414 $728 #
ellipse-curve $-1 -56.772749526810017 -7.7543652194777408 2.3870002012521034 -0.61566148304635926 0 0.78801074757464917 0.78801074757464917 0 0.61566148304635926 1 I I #
point $-1 -58.171467206658832 -7.7543652194777408 5.8015463803335106 #
edge $-1 $729 1 $729 0 $417 $-1 forward 7 unknown #
vertex $-1 $418 $730 #
ellipse-curve $-1 -56.772749526810017 -1.8460307871968737 2.3870002012521034 -0.61566148304635926 0 0.78801074757464917 0.78801074757464917 0 0.61566148304635926 1 I I #
point $-1 -58.171467206658832 -1.8460307871968737 5.8015463803335106 #
loop $-1 $-1 $429 $421 #
plane-surface $-1 -65.067903683584092 0 0 1 0 0 0 0 -1 forward_v I I I I #
coedge $-1 $595 $424 $426 $599 reversed $275 $-1 #
coedge $-1 $424 $594 $731 $732 reversed $275 $-1 #
coedge $-1 $432 $427 $424 $597 forward $422 $-1 #
edge $-1 $600 -19.742701697462252 $733 -7.5258502387609951 $596 $734 forward 7 unknown #
coedge $-1 $426 $425 $603 $735 reversed $173 $-1 #
edge $-1 $736 0 $600 15.50340715060354 $594 $737 forward 7 unknown #
vertex $-1 $428 $738 #
straight-curve $-1 -52.851052224882835 6.5135433470795299 9.9583102165931887 0 1 0 I I #
coedge $-1 $731 $429 $432 $607 reversed $592 $-1 #
coedge $-1 $429 $731 $598 $735 forward $592 $-1 #
vertex $-1 $430 $739 #
straight-curve $-1 -65.067903683584092 6.1340298564980378 51.480937213806911 0 0 1 I I #
straight-curve $-1 -65.067903683584092 6.1340298564980378 0.41345957798108657 -0.78801074757464917 0 -0.61566148304635926 I I #
edge $-1 $733 -19.920143531820081 $433 -6.1340298564980378 $602 $740 forward 7 unknown #
point $-1 -65.067903683584092 6.1340298564980378 9.9583102165931905 #
point $-1 -52.851052224882835 6.1340298564980378 9.9583102165931905 #
edge $-1 $741 1 $741 0 $436 $-1 forward 7 unknown #
vertex $-1 $437 $742 #
ellipse-curve $-1 -56.772749526810017 10.072919478018626 2.3870002012521034 -0.61566148304635926 0 0.78801074757464917 0.78801074757464917 0 0.61566148304635926 1 I I #
point $-1 -58.171467206658832 10.072919478018626 5.8015463803335106 #
edge $-1 $743 1 $743 0 $440 $-1 forward 7 unknown #
vertex $-1 $441 $744 #
ellipse-curve $-1 -56.772749526810017 15.981253910299493 2.3870002012521034 -0.61566148304635926 0 0.78801074757464917 0.78801074757464917 0 0.61566148304635926 1 I I #
point $-1 -58.171467206658832 15.981253910299493 5.8015463803335106 #
loop $-1 $-1 $452 $444 #
plane-surface $-1 -65.067903683584092 0 0 1 0 0 0 0 -1 forward_v I I I I #
coedge $-1 $621 $447 $449 $625 reversed $297 $-1 #
coedge $-1 $447 $620 $745 $746 reversed $297 $-1 #
coedge $-1 $455 $450 $447 $623 forward $445 $-1 #
edge $-1 $626 -19.742701697462252 $747 -7.5258502387609951 $622 $748 forward 7 unknown #
coedge $-1 $449 $448 $629 $749 reversed $187 $-1 #
edge $-1 $750 0 $626 15.50340715060354 $620 $751 forward 7 unknown #
vertex $-1 $451 $752 #
straight-curve $-1 -52.851052224882835 15.427185695827713 9.9583102165931887 0 1 0 I I #
coedge $-1 $745 $452 $455 $633 reversed $618 $-1 #
coedge $-1 $452 $745 $624 $749 forward $618 $-1 #
vertex $-1 $453 $753 #
straight-curve $-1 -65.067903683584092 23.961314553994406 51.480937213806911 0 0 1 I I #
straight-curve $-1 -65.067903683584092 23.961314553994406 0.41345957798108657 -0.78801074757464917 0 -0.61566148304635926 I I #
edge $-1 $747 -37.747428229316448 $456 -23.961314553994406 $628 $754 forward 7 unknown #
point $-1 -65.067903683584092 23.961314553994406 9.9583102165931905 #
point $-1 -52.851052224882835 23.961314553994406 9.9583102165931905 #
edge $-1 $755 1 $755 0 $459 $-1 forward 7 unknown #
vertex $-1 $460 $756 #
ellipse-curve $-1 -56.772749526810017 27.900204175514993 2.3870002012521034 -0.61566148304635926 0 0.78801074757464917 0.78801074757464917 0 0.61566148304635926 1 I I #
point $-1 -58.171467206658832 27.900204175514993 5.8015463803335106 #
edge $-1 $757 1 $757 0 $463 $-1 forward 7 unknown #
vertex $-1 $464 $758 #
ellipse-curve $-1 -56.772749526810017 33.80853860779586 2.3870002012521034 -0.61566148304635926 0 0.78801074757464917 0.78801074757464917 0 0.61566148304635926 1 I I #
point $-1 -58.171467206658832 33.80853860779586 5.8015463803335106 #
loop $-1 $-1 $475 $467 #
plane-surface $-1 65.067903683584092 0 0 -1 0 0 0 0 1 forward_v I I I I #
coedge $-1 $647 $470 $472 $651 reversed $319 $-1 #
coedge $-1 $470 $646 $759 $760 reversed $319 $-1 #
coedge $-1 $478 $473 $470 $649 forward $468 $-1 #
edge $-1 $652 32.503015869131659 $761 35.745399432879495 $648 $762 forward 7 unknown #
coedge $-1 $472 $471 $655 $763 reversed $201 $-1 #
edge $-1 $764 -130.13580736716818 $652 -125.70240723520553 $646 $765 forward 7 unknown #
vertex $-1 $474 $766 #
straight-curve $-1 61.825520119836241 13.356791672994785 9.9583102165931834 0 -1 0 I I #
coedge $-1 $759 $475 $478 $659 reversed $644 $-1 #
coedge $-1 $475 $759 $650 $763 forward $644 $-1 #
vertex $-1 $476 $767 #
straight-curve $-1 65.067903683584092 34.214063635451723 95.431225136675721 0 0 1 I I #
straight-curve $-1 -30.107399763606153 34.214063635451723 95.687146826161211 0.7313536940579346 0 -0.68199836817093118 I I #
edge $-1 $761 19.213103056527416 $479 34.214063635451723 $654 $768 forward 7 unknown #
point $-1 65.067903683584092 34.214063635451723 9.9583102165931905 #
point $-1 61.825520119836256 34.214063635451723 9.9583102165931905 #
edge $-1 $769 1 $769 0 $482 $-1 forward 7 unknown #
vertex $-1 $483 $770 #
ellipse-curve $-1 60.751999333311424 23.499091793362943 5.5567990122410178 0.68199836817093118 0 0.7313536940579346 0.7313536940579346 0 -0.68199836817093118 1 I I #
point $-1 64.178065595768118 23.499091793362943 7.7645260206986055 #
edge $-1 $771 1 $771 0 $486 $-1 forward 7 unknown #
vertex $-1 $487 $772 #
ellipse-curve $-1 60.751999333311424 29.92807489861621 5.5567990122410178 0.68199836817093118 0 0.7313536940579346 0.7313536940579346 0 -0.68199836817093118 1 I I #
point $-1 64.178065595768118 29.92807489861621 7.7645260206986055 #
plane-surface $-1 65.067903683584092 0 0 -1 0 0 0 0 1 forward_v I I I I #
coedge $-1 $495 $493 $497 $675 reversed $341 $-1 #
edge $-1 $508 -9.9583102165931905 $677 9.9583102165931905 $507 $773 forward 7 unknown #
vertex $-1 $675 $774 #
straight-curve $-1 -65.067903683584092 -43.809184762577907 0 0 0 -1 I I #
edge $-1 $673 -43.809184762577907 $677 43.809184762577907 $671 $775 forward 7 unknown #
straight-curve $-1 0 -43.809184762577907 -9.9583102165931905 -1 0 0 I I #
vertex $-1 $500 $776 #
straight-curve $-1 0 43.809184762577907 -9.9583102165931905 1 0 0 I I #
point $-1 65.067903683584092 43.809184762577907 -9.9583102165931905 #
point $-1 65.067903683584092 -43.809184762577907 -9.9583102165931905 #
straight-curve $-1 -65.067903683584092 0 9.9583102165931905 0 -1 0 I I #
point $-1 -65.067903683584092 43.809184762577907 9.9583102165931905 #
point $-1 -65.067903683584092 -43.809184762577907 9.9583102165931905 #
straight-curve $-1 65.067903683584092 -43.809184762577907 0 0 0 -1 I I #
straight-curve $-1 65.067903683584092 43.809184762577907 0 0 0 -1 I I #
plane-surface $-1 0 0 9.9583102165931905 0 0 1 1 0 0 forward_v I I I I #
coedge $-1 $525 $699 $688 $777 forward $518 $-1 #
coedge $-1 $521 $520 $687 $777 reversed $223 $-1 #
edge $-1 $695 -1.9770438383740867 $693 1.9770438383740867 $520 $778 forward 7 unknown #
coedge $-1 $533 $532 $521 $691 forward $534 $-1 #
edge $-1 $692 -1.9770438383740867 $779 1.9770438383740867 $521 $780 forward 7 unknown #
vertex $-1 $537 $781 #
vertex $-1 $527 $782 #
straight-curve $-1 -64.567903683584092 -52.036073453399645 0 0 0 -1 I I #
vertex $-1 $777 $783 #
straight-curve $-1 -60.613816006835918 -47.922629107988776 -9.9583102165931905 0 -1 0 I I #
straight-curve $-1 -64.567903683584092 -47.922629107988776 -9.9583102165931905 0 1 0 I I #
point $-1 -60.613816006835918 -43.809184762577907 -9.9583102165931905 #
coedge $-1 $687 $530 $533 $701 reversed $518 $-1 #
straight-curve $-1 -60.613816006835918 -43.809184762577907 0 0 0 -1 I I #
edge $-1 $779 -4.1134443454108691 $535 4.1134443454108691 $699 $784 forward 7 unknown #
point $-1 -60.613816006835918 -43.809184762577907 9.9583102165931905 #
straight-curve $-1 -64.567903683584092 -47.922629107988776 9.9583102165931905 0 -1 0 I I #
edge $-1 $705 41.52262699721372 $708 51.067477635825824 $541 $785 forward 7 unknown #
vertex $-1 $555 $786 #
straight-curve $-1 -72.593753922345087 -15.734425863172646 9.9583102165931905 -1 0 0 I I #
edge $-1 $708 4.4206845127558125 $552 18.206798188077855 $551 $787 forward 7 unknown #
vertex $-1 $707 $788 #
straight-curve $-1 -65.067903683584092 -15.734425863172646 0.41345957798108657 0.78801074757464917 0 0.61566148304635926 I I #
point $-1 -52.851052224882835 -15.734425863172646 9.9583102165931905 #
point $-1 -65.067903683584092 -29.520539538494688 0.41345957798108657 #
straight-curve $-1 -65.067903683584092 0 9.9583102165931905 0 -1 0 I I #
vertex $-1 $558 $789 #
point $-1 -55.984738779235371 -25.581649916974108 3.0026616842984626 #
vertex $-1 $562 $790 #
point $-1 -55.984738779235371 -19.673315484693234 3.0026616842984626 #
coedge $-1 $577 $576 $569 $718 forward $566 $-1 #
edge $-1 $719 41.52262699721372 $722 51.067477635825824 $717 $791 forward 7 unknown #
vertex $-1 $581 $792 #
straight-curve $-1 -72.593753922345087 2.0928588343237147 9.9583102165931905 -1 0 0 I I #
edge $-1 $722 -4.4929578359923683 $578 9.2931558393296747 $577 $793 forward 7 unknown #
vertex $-1 $721 $794 #
straight-curve $-1 -65.067903683584092 2.0928588343237147 0.41345957798108657 0.78801074757464917 0 0.61566148304635926 I I #
point $-1 -52.851052224882835 2.0928588343237147 9.9583102165931905 #
point $-1 -65.067903683584092 -11.693254840998328 0.41345957798108657 #
straight-curve $-1 -65.067903683584092 0 9.9583102165931905 0 -1 0 I I #
vertex $-1 $584 $795 #
point $-1 -55.984738779235371 -7.7543652194777408 3.0026616842984626 #
vertex $-1 $588 $796 #
point $-1 -55.984738779235371 -1.8460307871968737 3.0026616842984626 #
coedge $-1 $603 $602 $595 $732 forward $592 $-1 #
edge $-1 $733 41.52262699721372 $736 51.067477635825824 $731 $797 forward 7 unknown #
vertex $-1 $607 $798 #
straight-curve $-1 -72.593753922345087 19.920143531820081 9.9583102165931905 -1 0 0 I I #
edge $-1 $736 -13.406600184740551 $604 0.37951349058149209 $603 $799 forward 7 unknown #
vertex $-1 $735 $800 #
straight-curve $-1 -65.067903683584092 19.920143531820081 0.41345957798108657 0.78801074757464917 0 0.61566148304635926 I I #
point $-1 -52.851052224882835 19.920143531820081 9.9583102165931905 #
point $-1 -65.067903683584092 6.1340298564980378 0.41345957798108657 #
straight-curve $-1 -65.067903683584092 0 9.9583102165931905 0 -1 0 I I #
vertex $-1 $610 $801 #
point $-1 -55.984738779235371 10.072919478018626 3.0026616842984626 #
vertex $-1 $614 $802 #
point $-1 -55.984738779235371 15.981253910299493 3.0026616842984626 #
coedge $-1 $629 $628 $621 $746 forward $618 $-1 #
edge $-1 $747 41.52262699721372 $750 51.067477635825824 $745 $803 forward 7 unknown #
vertex $-1 $633 $804 #
straight-curve $-1 -72.593753922345087 37.747428229316448 9.9583102165931905 -1 0 0 I I #
edge $-1 $750 -22.320242533488734 $630 -8.5341288581666923 $629 $805 forward 7 unknown #
vertex $-1 $749 $806 #
straight-curve $-1 -65.067903683584092 37.747428229316448 0.41345957798108657 0.78801074757464917 0 0.61566148304635926 I I #
point $-1 -52.851052224882835 37.747428229316448 9.9583102165931905 #
point $-1 -65.067903683584092 23.961314553994406 0.41345957798108657 #
straight-curve $-1 -65.067903683584092 0 9.9583102165931905 0 -1 0 I I #
vertex $-1 $636 $807 #
point $-1 -55.984738779235371 27.900204175514993 3.0026616842984626 #
vertex $-1 $640 $808 #
point $-1 -55.984738779235371 33.80853860779586 3.0026616842984626 #
coedge $-1 $655 $654 $647 $760 forward $644 $-1 #
edge $-1 $761 85.47291492008253 $764 88.496486575529872 $759 $809 forward 7 unknown #
vertex $-1 $659 $810 #
straight-curve $-1 29.322504250704597 19.213103056527416 9.9583102165931905 1 0 0 I I #
edge $-1 $764 5.8563113835326313 $656 20.857271962456938 $655 $811 forward 7 unknown #
vertex $-1 $763 $812 #
straight-curve $-1 -30.107399763606153 19.213103056527416 95.687146826161211 -0.7313536940579346 0 0.68199836817093118 I I #
point $-1 61.825520119836256 19.213103056527416 9.9583102165931905 #
point $-1 65.067903683584092 34.214063635451723 6.9347385611458492 #
straight-curve $-1 65.067903683584092 0 9.9583102165931905 0 1 0 I I #
vertex $-1 $662 $813 #
point $-1 61.483353027369354 23.499091793362943 4.8748006440700866 #
vertex $-1 $666 $814 #
point $-1 61.483353027369354 29.92807489861621 4.8748006440700866 #
straight-curve $-1 -65.067903683584092 43.809184762577907 0 0 0 -1 I I #
point $-1 -65.067903683584092 -43.809184762577907 -9.9583102165931905 #
straight-curve $-1 -65.067903683584092 0 -9.9583102165931905 0 1 0 I I #
point $-1 -65.067903683584092 43.809184762577907 -9.9583102165931905 #
edge $-1 $779 -9.9583102165931905 $695 9.9583102165931905 $687 $815 forward 7 unknown #
straight-curve $-1 -62.590859845210005 -52.036073453399645 -9.9583102165931905 -1 0 0 I I #
vertex $-1 $701 $816 #
straight-curve $-1 -62.590859845210005 -52.036073453399645 9.9583102165931905 1 0 0 I I #
point $-1 -64.567903683584092 -52.036073453399645 9.9583102165931905 #
point $-1 -64.567903683584092 -52.036073453399645 -9.9583102165931905 #
point $-1 -60.613816006835918 -52.036073453399645 -9.9583102165931905 #
straight-curve $-1 -60.613816006835918 -47.922629107988776 9.9583102165931905 0 1 0 I I #
straight-curve $-1 -65.067903683584092 -15.734425863172646 51.480937213806911 0 0 -1 I I #
point $-1 -65.067903683584092 -15.734425863172646 9.9583102165931905 #
straight-curve $-1 -65.067903683584092 -11.313741350416834 0.41345957798108823 0 -1 0 I I #
point $-1 -65.067903683584092 -15.734425863172646 0.41345957798108657 #
point $-1 -56.157088043763665 -25.581649916974108 1.5989894536774543 #
point $-1 -56.157088043763665 -19.673315484693234 1.5989894536774543 #
straight-curve $-1 -65.067903683584092 2.0928588343237147 51.480937213806911 0 0 -1 I I #
point $-1 -65.067903683584092 2.0928588343237147 9.9583102165931905 #
straight-curve $-1 -65.067903683584092 -2.4000990016686536 0.41345957798108823 0 -1 0 I I #
point $-1 -65.067903683584092 2.0928588343237147 0.41345957798108657 #
point $-1 -56.157088043763665 -7.7543652194777408 1.5989894536774543 #
point $-1 -56.157088043763665 -1.8460307871968737 1.5989894536774543 #
straight-curve $-1 -65.067903683584092 19.920143531820081 51.480937213806911 0 0 -1 I I #
point $-1 -65.067903683584092 19.920143531820081 9.9583102165931905 #
straight-curve $-1 -65.067903683584092 6.5135433470795299 0.41345957798108823 0 -1 0 I I #
point $-1 -65.067903683584092 19.920143531820081 0.41345957798108657 #
point $-1 -56.157088043763665 10.072919478018626 1.5989894536774543 #
point $-1 -56.157088043763665 15.981253910299493 1.5989894536774543 #
straight-curve $-1 -65.067903683584092 37.747428229316448 51.480937213806911 0 0 -1 I I #
point $-1 -65.067903683584092 37.747428229316448 9.9583102165931905 #
straight-curve $-1 -65.067903683584092 15.427185695827713 0.41345957798108823 0 -1 0 I I #
point $-1 -65.067903683584092 37.747428229316448 0.41345957798108657 #
point $-1 -56.157088043763665 27.900204175514993 1.5989894536774543 #
point $-1 -56.157088043763665 33.80853860779586 1.5989894536774543 #
straight-curve $-1 65.067903683584092 19.213103056527416 95.431225136675721 0 0 -1 I I #
point $-1 65.067903683584092 19.213103056527416 9.9583102165931905 #
straight-curve $-1 65.067903683584092 13.356791672994785 6.9347385611458563 0 1 0 I I #
point $-1 65.067903683584092 19.213103056527416 6.9347385611458492 #
point $-1 60.070000965140487 23.499091793362943 4.8254453181830828 #
point $-1 60.070000965140487 29.92807489861621 4.8254453181830828 #
straight-curve $-1 -60.613816006835918 -52.036073453399645 0 0 0 -1 I I #
point $-1 -60.613816006835918 -52.036073453399645 9.9583102165931905 #
End-of-ACIS-data 