500 0 4 0           
7 Unknown 11 ACIS 5.0 NT 24 Thu Mar 25 21:07:57 1999 
-1 9.9999999999999995e-007 1e-010 
body $-1 $4 $-1 $5 #
body $-1 $6 $-1 $7 #
body $-1 $8 $-1 $9 #
body $-1 $10 $-1 $11 #
lump $-1 $-1 $12 $0 #
transform $-1 1 0 0 0 1 0 0 0 1 53.899349955748164 37.603707990612058 15.393110630197384 1 rotate no_reflect no_shear #
lump $-1 $-1 $13 $1 #
transform $-1 1 0 0 0 1 0 0 0 1 53.899349955748164 37.603707990612058 15.393110630197384 1 rotate no_reflect no_shear #
lump $-1 $-1 $14 $2 #
transform $-1 1 0 0 0 1 0 0 0 1 53.899349955748164 37.603707990612058 15.393110630197384 1 rotate no_reflect no_shear #
lump $-1 $-1 $15 $3 #
transform $-1 1 0 0 0 1 0 0 0 1 53.899349955748164 37.603707990612058 15.393110630197384 1 rotate no_reflect no_shear #
shell $-1 $-1 $-1 $16 $-1 $4 #
shell $-1 $-1 $-1 $17 $-1 $6 #
shell $-1 $-1 $-1 $18 $-1 $8 #
shell $-1 $-1 $-1 $19 $-1 $10 #
face $-1 $20 $21 $12 $-1 $22 forward single #
face $-1 $23 $24 $13 $-1 $25 reversed single #
face $-1 $26 $27 $14 $-1 $28 reversed single #
face $-1 $29 $30 $15 $-1 $31 forward single #
face $-1 $32 $33 $12 $-1 $34 reversed single #
loop $-1 $-1 $35 $16 #
plane-surface $-1 0 0 15.393110630197384 0 0 1 1 0 0 forward_v I I I I #
face $-1 $36 $37 $13 $-1 $38 reversed single #
loop $-1 $-1 $39 $17 #
plane-surface $-1 -27.451310995399808 -32.018132683687902 0 1 0 0 0 0 -1 forward_v I I I I #
face $-1 $40 $41 $14 $-1 $42 reversed single #
loop $-1 $-1 $43 $18 #
plane-surface $-1 43.116190108953788 71.839909520001754 127.59830186489773 1 0 0 0 -0.7660444514056185 -0.64278759981090561 forward_v I I I I #
face $-1 $44 $45 $15 $-1 $46 forward single #
loop $-1 $47 $48 $19 #
cone-surface $-1 48.507770032350976 30.111448597288899 6.9315989680068579 0 -0.7660444514056185 -0.64278759981090561 1.5 0 0 1 I I 0 1 1.5 forward I I I I #
face $-1 $49 $50 $12 $-1 $51 reversed single #
loop $-1 $-1 $52 $20 #
plane-surface $-1 0 0 -15.393110630197384 0 0 1 1 0 0 forward_v I I I I #
coedge $-1 $53 $54 $55 $56 forward $21 $-1 #
face $-1 $57 $58 $13 $-1 $59 reversed single #
loop $-1 $-1 $60 $23 #
plane-surface $-1 -25.282219845376602 -26.432557376763747 0 0 -1 0 0 0 -1 forward_v I I I I #
coedge $-1 $61 $62 $63 $64 forward $24 $-1 #
face $-1 $65 $66 $14 $-1 $67 forward single #
loop $-1 $-1 $68 $26 #
plane-surface $-1 48.507770032350976 -10.738686415939341 58.306634286050922 0 0.7660444514056185 0.64278759981090561 1 0 0 forward_v I I I I #
coedge $-1 $69 $70 $71 $72 reversed $27 $-1 #
face $-1 $-1 $73 $15 $-1 $74 forward single #
loop $-1 $75 $76 $29 #
cone-surface $-1 48.507770032350976 28.211492603990884 5.3373466365168696 0 -0.7660444514056185 -0.64278759981090561 0.75 0 0 1 I I -0.70710678118654757 0.70710678118654757 0.75 forward I I I I #
loop $-1 $-1 $77 $19 #
coedge $-1 $48 $48 $78 $79 reversed $30 $-1 #
face $-1 $80 $81 $12 $-1 $82 reversed single #
loop $-1 $-1 $83 $32 #
plane-surface $-1 0 -37.603707990612058 0 0 1 0 0 0 1 forward_v I I I I #
coedge $-1 $84 $85 $86 $87 forward $33 $-1 #
coedge $-1 $88 $35 $89 $90 forward $21 $-1 #
coedge $-1 $35 $88 $91 $92 forward $21 $-1 #
coedge $-1 $93 $94 $35 $56 reversed $95 $-1 #
edge $-1 $96 -37.603707990612058 $97 37.603707990612058 $55 $98 forward 7 unknown #
face $-1 $99 $100 $13 $-1 $101 forward single #
loop $-1 $-1 $102 $36 #
plane-surface $-1 -23.113128695353396 -32.018132683687902 0 -1 0 0 0 0 1 forward_v I I I I #
coedge $-1 $103 $104 $105 $106 forward $37 $-1 #
coedge $-1 $107 $39 $108 $109 reversed $24 $-1 #
coedge $-1 $39 $107 $110 $111 reversed $24 $-1 #
coedge $-1 $104 $103 $39 $64 reversed $37 $-1 #
edge $-1 $112 -15.393110630197384 $113 15.393110630197384 $63 $114 forward 7 unknown #
face $-1 $115 $116 $14 $-1 $117 reversed single #
loop $-1 $-1 $71 $40 #
plane-surface $-1 0 0 15.393110630197384 0 0 1 1 0 0 forward_v I I I I #
coedge $-1 $118 $119 $120 $121 reversed $41 $-1 #
coedge $-1 $70 $43 $122 $123 reversed $27 $-1 #
coedge $-1 $43 $69 $118 $124 reversed $27 $-1 #
coedge $-1 $120 $125 $43 $72 forward $66 $-1 #
edge $-1 $126 -1.6837532306111811 $127 10.649920246547552 $71 $128 forward 7 unknown #
loop $-1 $-1 $78 $44 #
plane-surface $-1 48.507770032350976 -10.738686415939341 58.306634286050922 0 0.7660444514056185 0.64278759981090561 1 0 0 forward_v I I I I #
loop $-1 $-1 $129 $29 #
coedge $-1 $76 $76 $77 $130 reversed $45 $-1 #
coedge $-1 $77 $77 $76 $130 forward $47 $-1 #
coedge $-1 $78 $78 $48 $79 forward $73 $-1 #
edge $-1 $131 1.5538131273008471e-015 $131 6.2831853071796022 $78 $132 forward 7 unknown #
face $-1 $133 $134 $12 $-1 $135 reversed single #
loop $-1 $-1 $136 $49 #
plane-surface $-1 -53.899349955748164 0 0 1 0 0 0 0 -1 forward_v I I I I #
coedge $-1 $137 $91 $138 $139 forward $50 $-1 #
coedge $-1 $140 $52 $137 $141 forward $33 $-1 #
coedge $-1 $52 $140 $142 $143 forward $33 $-1 #
coedge $-1 $94 $93 $52 $87 reversed $95 $-1 #
edge $-1 $144 -37.603707990612058 $145 37.603707990612058 $86 $146 forward 7 unknown #
coedge $-1 $54 $53 $147 $148 forward $21 $-1 #
coedge $-1 $149 $150 $53 $90 reversed $134 $-1 #
edge $-1 $97 -53.899349955748164 $151 53.899349955748164 $89 $152 forward 7 unknown #
coedge $-1 $83 $153 $54 $92 reversed $50 $-1 #
edge $-1 $154 -53.899349955748164 $96 53.899349955748164 $91 $155 forward 7 unknown #
coedge $-1 $86 $55 $153 $156 forward $95 $-1 #
coedge $-1 $55 $86 $149 $157 reversed $95 $-1 #
loop $-1 $-1 $93 $133 #
vertex $-1 $56 $158 #
vertex $-1 $56 $159 #
straight-curve $-1 53.899349955748164 0 15.393110630197384 0 1 0 I I #
face $-1 $160 $161 $13 $-1 $162 reversed single #
loop $-1 $-1 $163 $57 #
plane-surface $-1 0 0 15.393110630197384 0 0 1 1 0 0 forward_v I I I I #
coedge $-1 $164 $165 $166 $167 reversed $58 $-1 #
coedge $-1 $63 $60 $168 $169 reversed $37 $-1 #
coedge $-1 $60 $63 $170 $171 reversed $37 $-1 #
coedge $-1 $165 $164 $60 $106 reversed $58 $-1 #
edge $-1 $172 -15.393110630197384 $173 15.393110630197384 $105 $174 forward 7 unknown #
coedge $-1 $62 $61 $175 $176 reversed $24 $-1 #
coedge $-1 $168 $177 $61 $109 forward $161 $-1 #
edge $-1 $178 -21.594641648768107 $113 -10.423491034919795 $108 $179 forward 7 unknown #
coedge $-1 $180 $170 $62 $111 forward $100 $-1 #
edge $-1 $112 10.423491034919795 $181 21.594641648768107 $110 $182 forward 7 unknown #
vertex $-1 $111 $183 #
vertex $-1 $109 $184 #
straight-curve $-1 -27.451310995399808 -26.432557376763747 0 0 0 -1 I I #
face $-1 $-1 $185 $14 $-1 $186 reversed single #
loop $-1 $-1 $187 $65 #
plane-surface $-1 53.899349955748164 0 0 -1 0 0 0 0 1 forward_v I I I I #
coedge $-1 $188 $68 $70 $124 forward $41 $-1 #
coedge $-1 $68 $188 $187 $189 reversed $41 $-1 #
coedge $-1 $190 $71 $68 $121 forward $66 $-1 #
edge $-1 $127 18.8623050927783 $191 29.645464939572676 $120 $192 forward 7 unknown #
coedge $-1 $193 $194 $69 $123 forward $185 $-1 #
edge $-1 $195 -63.104740363368926 $126 -48.406040302251483 $122 $196 forward 7 unknown #
edge $-1 $127 56.019625985295406 $195 75.207415981224145 $70 $197 forward 7 unknown #
coedge $-1 $71 $190 $193 $198 forward $66 $-1 #
vertex $-1 $123 $199 #
vertex $-1 $72 $200 #
straight-curve $-1 43.116190108953788 35.919954760000877 15.393110630197384 0 -1 0 I I #
coedge $-1 $129 $129 $-1 $201 reversed $75 $-1 #
edge $-1 $202 0 $202 6.2831853071796004 $76 $203 forward 7 unknown #
vertex $-1 $79 $204 #
ellipse-curve $-1 48.507770032350976 31.436871252032688 8.0437605996386576 0 0.7660444514056185 0.64278759981090561 1.5 0 0 1 I I #
face $-1 $-1 $95 $12 $-1 $205 reversed single #
loop $-1 $-1 $149 $80 #
plane-surface $-1 0 37.603707990612058 0 0 -1 0 0 0 -1 forward_v I I I I #
coedge $-1 $206 $147 $150 $207 forward $81 $-1 #
coedge $-1 $153 $83 $84 $141 reversed $50 $-1 #
coedge $-1 $147 $206 $83 $139 reversed $81 $-1 #
edge $-1 $154 -15.393110630197384 $208 15.393110630197384 $138 $209 forward 7 unknown #
coedge $-1 $85 $84 $206 $210 forward $33 $-1 #
edge $-1 $145 -53.899349955748164 $208 53.899349955748164 $137 $211 forward 7 unknown #
coedge $-1 $150 $149 $85 $143 reversed $134 $-1 #
edge $-1 $212 -53.899349955748164 $144 53.899349955748164 $142 $213 forward 7 unknown #
vertex $-1 $87 $214 #
vertex $-1 $156 $215 #
straight-curve $-1 53.899349955748164 0 -15.393110630197384 0 -1 0 I I #
coedge $-1 $136 $138 $88 $148 reversed $81 $-1 #
edge $-1 $151 -37.603707990612058 $154 37.603707990612058 $147 $216 forward 7 unknown #
coedge $-1 $142 $89 $94 $157 forward $134 $-1 #
coedge $-1 $89 $142 $136 $207 reversed $134 $-1 #
vertex $-1 $90 $217 #
straight-curve $-1 0 37.603707990612058 15.393110630197384 -1 0 0 I I #
coedge $-1 $91 $137 $93 $156 reversed $50 $-1 #
vertex $-1 $148 $218 #
straight-curve $-1 0 -37.603707990612058 15.393110630197384 1 0 0 I I #
edge $-1 $96 -15.393110630197384 $145 15.393110630197384 $93 $219 forward 7 unknown #
edge $-1 $97 -15.393110630197384 $144 15.393110630197384 $94 $220 forward 7 unknown #
point $-1 53.899349955748164 -37.603707990612058 15.393110630197384 #
point $-1 53.899349955748164 37.603707990612058 15.393110630197384 #
face $-1 $-1 $221 $13 $-1 $222 reversed single #
loop $-1 $-1 $223 $99 #
plane-surface $-1 0 0 -15.393110630197384 0 0 1 1 0 0 forward_v I I I I #
coedge $-1 $170 $180 $165 $224 forward $100 $-1 #
coedge $-1 $105 $102 $223 $225 reversed $58 $-1 #
coedge $-1 $102 $105 $163 $224 reversed $58 $-1 #
coedge $-1 $226 $227 $102 $167 forward $221 $-1 #
edge $-1 $228 -15.393110630197384 $229 15.393110630197384 $166 $230 forward 7 unknown #
coedge $-1 $223 $108 $103 $169 forward $161 $-1 #
edge $-1 $113 -14.810201072711507 $173 -10.472018772665095 $168 $231 forward 7 unknown #
coedge $-1 $110 $163 $104 $171 forward $100 $-1 #
edge $-1 $172 10.472018772665095 $112 14.810201072711507 $170 $232 forward 7 unknown #
vertex $-1 $171 $233 #
vertex $-1 $169 $234 #
straight-curve $-1 -23.113128695353396 -26.432557376763747 0 0 0 -1 I I #
coedge $-1 $227 $226 $107 $176 forward $221 $-1 #
edge $-1 $181 -15.393110630197384 $178 15.393110630197384 $175 $235 forward 7 unknown #
coedge $-1 $108 $223 $227 $236 forward $161 $-1 #
vertex $-1 $109 $237 #
straight-curve $-1 -27.451310995399808 -16.009066341843951 -15.393110630197384 0 1 0 I I #
coedge $-1 $163 $110 $226 $238 forward $100 $-1 #
vertex $-1 $238 $239 #
straight-curve $-1 -27.451310995399808 -16.009066341843951 15.393110630197384 0 -1 0 I I #
point $-1 -27.451310995399808 -26.432557376763747 15.393110630197384 #
point $-1 -27.451310995399808 -26.432557376763747 -15.393110630197384 #
loop $-1 $-1 $122 $115 #
plane-surface $-1 0 37.603707990612058 0 0 -1 0 0 0 -1 forward_v I I I I #
coedge $-1 $240 $241 $119 $189 forward $116 $-1 #
coedge $-1 $119 $118 $194 $242 reversed $41 $-1 #
edge $-1 $191 30.235541914600631 $243 49.423331910529363 $187 $244 forward 7 unknown #
coedge $-1 $125 $120 $241 $245 forward $66 $-1 #
vertex $-1 $245 $246 #
straight-curve $-1 24.253885016175488 25.270034513453325 15.393110630197384 1 0 0 I I #
coedge $-1 $247 $122 $125 $198 reversed $185 $-1 #
coedge $-1 $122 $247 $188 $242 forward $185 $-1 #
vertex $-1 $123 $248 #
straight-curve $-1 43.116190108953788 37.603707990612058 63.799150932448867 0 0 1 I I #
straight-curve $-1 43.116190108953788 -10.738686415939341 58.306634286050922 0 0.64278759981090561 -0.7660444514056185 I I #
edge $-1 $249 -53.899349955748164 $126 -43.116190108953788 $193 $250 forward 7 unknown #
point $-1 43.116190108953788 37.603707990612058 15.393110630197384 #
point $-1 43.116190108953788 25.270034513453325 15.393110630197384 #
edge $-1 $251 1 $251 0 $129 $-1 forward 7 unknown #
vertex $-1 $130 $252 #
ellipse-curve $-1 48.507770032350976 28.786025942545098 5.8194373363750485 0 0.7660444514056185 0.64278759981090561 1.5 0 0 1 I I #
point $-1 50.007770032350976 31.436871252032702 8.0437605996386665 #
plane-surface $-1 53.899349955748164 0 0 -1 0 0 0 0 1 forward_v I I I I #
coedge $-1 $138 $136 $140 $210 reversed $81 $-1 #
edge $-1 $151 -15.393110630197384 $212 15.393110630197384 $150 $253 forward 7 unknown #
vertex $-1 $210 $254 #
straight-curve $-1 -53.899349955748164 -37.603707990612058 0 0 0 -1 I I #
edge $-1 $208 -37.603707990612058 $212 37.603707990612058 $206 $255 forward 7 unknown #
straight-curve $-1 0 -37.603707990612058 -15.393110630197384 -1 0 0 I I #
vertex $-1 $143 $256 #
straight-curve $-1 0 37.603707990612058 -15.393110630197384 1 0 0 I I #
point $-1 53.899349955748164 37.603707990612058 -15.393110630197384 #
point $-1 53.899349955748164 -37.603707990612058 -15.393110630197384 #
straight-curve $-1 -53.899349955748164 0 15.393110630197384 0 -1 0 I I #
point $-1 -53.899349955748164 37.603707990612058 15.393110630197384 #
point $-1 -53.899349955748164 -37.603707990612058 15.393110630197384 #
straight-curve $-1 53.899349955748164 -37.603707990612058 0 0 0 -1 I I #
straight-curve $-1 53.899349955748164 37.603707990612058 0 0 0 -1 I I #
loop $-1 $-1 $166 $160 #
plane-surface $-1 0 -37.603707990612058 0 0 1 0 0 0 1 forward_v I I I I #
coedge $-1 $177 $168 $164 $225 forward $161 $-1 #
edge $-1 $229 -21.594641648768107 $172 -10.423491034919795 $163 $257 forward 7 unknown #
edge $-1 $173 10.423491034919795 $228 21.594641648768107 $223 $258 forward 7 unknown #
coedge $-1 $175 $166 $180 $238 reversed $221 $-1 #
coedge $-1 $166 $175 $177 $236 reversed $221 $-1 #
vertex $-1 $236 $259 #
vertex $-1 $167 $260 #
straight-curve $-1 -23.113128695353396 -37.603707990612058 0 0 0 1 I I #
straight-curve $-1 -12.641109922688301 -26.432557376763747 -15.393110630197384 1 0 0 I I #
straight-curve $-1 -12.641109922688301 -26.432557376763747 15.393110630197384 -1 0 0 I I #
point $-1 -23.113128695353396 -26.432557376763747 15.393110630197384 #
point $-1 -23.113128695353396 -26.432557376763747 -15.393110630197384 #
straight-curve $-1 -27.451310995399808 -37.603707990612058 0 0 0 -1 I I #
edge $-1 $228 23.113128695353396 $178 27.451310995399808 $227 $261 forward 7 unknown #
point $-1 -27.451310995399808 -37.603707990612058 -15.393110630197384 #
edge $-1 $181 -27.451310995399808 $229 -23.113128695353396 $226 $262 forward 7 unknown #
point $-1 -27.451310995399808 -37.603707990612058 15.393110630197384 #
coedge $-1 $241 $187 $247 $263 reversed $116 $-1 #
coedge $-1 $187 $240 $190 $245 reversed $116 $-1 #
edge $-1 $243 -29.645464939572676 $195 -18.8623050927783 $194 $264 forward 7 unknown #
vertex $-1 $189 $265 #
straight-curve $-1 53.899349955748164 5.8350030971851528 38.554879749119202 0 0.64278759981090572 -0.76604445140561861 I I #
edge $-1 $191 25.270034513453325 $249 37.603707990612058 $241 $266 forward 7 unknown #
point $-1 53.899349955748164 25.270034513453325 15.393110630197384 #
coedge $-1 $194 $193 $240 $263 forward $185 $-1 #
point $-1 43.116190108953788 37.603707990612058 0.69441056907994181 #
vertex $-1 $245 $267 #
straight-curve $-1 0 37.603707990612058 15.393110630197384 -1 0 0 I I #
vertex $-1 $201 $268 #
point $-1 50.007770032350976 28.786025942545098 5.8194373363750485 #
straight-curve $-1 -53.899349955748164 37.603707990612058 0 0 0 -1 I I #
point $-1 -53.899349955748164 -37.603707990612058 -15.393110630197384 #
straight-curve $-1 -53.899349955748164 0 -15.393110630197384 0 1 0 I I #
point $-1 -53.899349955748164 37.603707990612058 -15.393110630197384 #
straight-curve $-1 -23.113128695353396 -16.009066341843951 15.393110630197384 0 1 0 I I #
straight-curve $-1 -23.113128695353396 -16.009066341843951 -15.393110630197384 0 -1 0 I I #
point $-1 -23.113128695353396 -37.603707990612058 -15.393110630197384 #
point $-1 -23.113128695353396 -37.603707990612058 15.393110630197384 #
straight-curve $-1 0 -37.603707990612058 -15.393110630197384 -1 0 0 I I #
straight-curve $-1 0 -37.603707990612058 15.393110630197384 1 0 0 I I #
edge $-1 $249 -15.393110630197384 $243 -0.69441056907994181 $240 $269 forward 7 unknown #
straight-curve $-1 24.253885016175488 37.603707990612058 0.69441056907994181 -1 0 0 I I #
point $-1 53.899349955748164 37.603707990612058 0.69441056907994181 #
straight-curve $-1 53.899349955748164 0 15.393110630197384 0 1 0 I I #
point $-1 53.899349955748164 37.603707990612058 15.393110630197384 #
point $-1 48.507770032350976 27.636959265436669 4.8552559366586907 #
straight-curve $-1 53.899349955748164 37.603707990612058 0 0 0 -1 I I #
End-of-ACIS-data 