500 0 7 0           
7 Unknown 11 ACIS 5.0 NT 24 Fri Mar 26 15:22:31 1999 
-1 9.9999999999999995e-007 1e-010 
body $-1 $7 $-1 $8 #
body $-1 $9 $-1 $10 #
body $-1 $11 $-1 $12 #
body $-1 $13 $-1 $14 #
body $-1 $15 $-1 $16 #
body $-1 $17 $-1 $18 #
body $-1 $19 $-1 $20 #
lump $-1 $-1 $21 $0 #
transform $-1 1 0 0 0 1 0 0 0 1 51.720328379161963 31.380871625078793 9.0984128757510927 1 rotate no_reflect no_shear #
lump $-1 $-1 $22 $1 #
transform $-1 1 0 0 0 1 0 0 0 1 51.720328379161963 31.380871625078793 9.0984128757510927 1 rotate no_reflect no_shear #
lump $-1 $-1 $23 $2 #
transform $-1 1 0 0 0 1 0 0 0 1 51.720328379161963 31.380871625078793 9.0984128757510927 1 rotate no_reflect no_shear #
lump $-1 $-1 $24 $3 #
transform $-1 1 0 0 0 1 0 0 0 1 51.720328379161963 31.380871625078793 9.0984128757510927 1 rotate no_reflect no_shear #
lump $-1 $-1 $25 $4 #
transform $-1 1 0 0 0 1 0 0 0 1 51.720328379161963 31.380871625078793 9.0984128757510927 1 rotate no_reflect no_shear #
lump $-1 $-1 $26 $5 #
transform $-1 1 0 0 0 1 0 0 0 1 51.720328379161963 31.380871625078793 9.0984128757510927 1 rotate no_reflect no_shear #
lump $-1 $-1 $27 $6 #
transform $-1 1 0 0 0 1 0 0 0 1 51.720328379161963 31.380871625078793 9.0984128757510927 1 rotate no_reflect no_shear #
shell $-1 $-1 $-1 $28 $-1 $7 #
shell $-1 $-1 $-1 $29 $-1 $9 #
shell $-1 $-1 $-1 $30 $-1 $11 #
shell $-1 $-1 $-1 $31 $-1 $13 #
shell $-1 $-1 $-1 $32 $-1 $15 #
shell $-1 $-1 $-1 $33 $-1 $17 #
shell $-1 $-1 $-1 $34 $-1 $19 #
face $-1 $35 $36 $21 $-1 $37 forward single #
face $-1 $38 $39 $22 $-1 $40 forward single #
face $-1 $41 $42 $23 $-1 $43 reversed single #
face $-1 $44 $45 $24 $-1 $46 forward single #
face $-1 $47 $48 $25 $-1 $49 forward single #
face $-1 $50 $51 $26 $-1 $52 reversed single #
face $-1 $53 $54 $27 $-1 $55 forward single #
face $-1 $56 $57 $21 $-1 $58 reversed single #
loop $-1 $-1 $59 $28 #
plane-surface $-1 0 0 9.0984128757510927 0 0 1 1 0 0 forward_v I I I I #
face $-1 $60 $61 $22 $-1 $62 reversed single #
loop $-1 $-1 $63 $29 #
plane-surface $-1 0 -25.376652175881922 4.2998541234569183 0 0 1 1 0 0 forward_v I I I I #
face $-1 $64 $65 $23 $-1 $66 reversed single #
loop $-1 $-1 $67 $30 #
plane-surface $-1 46.614981054889221 -7.2531614872555217 151.6893730185871 0 1 0 0.68199836817093118 0 0.7313536940579346 forward_v I I I I #
face $-1 $68 $69 $24 $-1 $70 forward single #
loop $-1 $71 $72 $31 #
cone-surface $-1 48.907859687949518 -3.1584574711887683 6.3528966139426553 -0.68199836817093118 0 -0.7313536940579346 0.7313536940579346 0 -0.68199836817093118 1 I I 0 1 1 forward I I I I #
face $-1 $73 $74 $25 $-1 $75 forward single #
loop $-1 $76 $77 $32 #
cone-surface $-1 48.907859687949518 2.9835985529113636 6.3528966139426553 -0.68199836817093118 0 -0.7313536940579346 0.7313536940579346 0 -0.68199836817093118 1 I I 0 1 1 forward I I I I #
face $-1 $78 $79 $26 $-1 $80 reversed single #
loop $-1 $-1 $81 $33 #
plane-surface $-1 -108.05814859547421 17.669973529640657 92.19797106932954 0 1 0 -0.54463904215088732 0 0.83867056331134215 forward_v I I I I #
face $-1 $82 $83 $27 $-1 $84 forward single #
loop $-1 $85 $86 $34 #
cone-surface $-1 -48.151533331989334 24.525422577359723 6.1074700167005309 0.54463904215088732 0 -0.83867056331134215 1.2580058449670133 0 0.81695856322633098 1 I I 0 1 1.5 forward I I I I #
face $-1 $87 $88 $21 $-1 $89 reversed single #
loop $-1 $-1 $90 $35 #
plane-surface $-1 0 0 -9.0984128757510927 0 0 1 1 0 0 forward_v I I I I #
coedge $-1 $91 $92 $93 $94 forward $36 $-1 #
face $-1 $95 $96 $22 $-1 $97 reversed single #
loop $-1 $-1 $98 $38 #
plane-surface $-1 0 -25.376652175881922 0.33367138366830584 0 0 1 1 0 0 forward_v I I I I #
coedge $-1 $99 $100 $101 $102 reversed $39 $-1 #
face $-1 $103 $104 $23 $-1 $105 reversed single #
loop $-1 $-1 $106 $41 #
plane-surface $-1 -23.931378056817103 -0.087429459138700594 76.03766658260804 0.68199836817093118 0 0.7313536940579346 0.7313536940579346 0 -0.68199836817093118 forward_v I I I I #
coedge $-1 $107 $108 $109 $110 reversed $42 $-1 #
face $-1 $-1 $111 $24 $-1 $112 forward single #
loop $-1 $113 $114 $44 #
cone-surface $-1 47.688465254621896 -3.1584574711887683 5.0452562075299472 -0.68199836817093118 0 -0.7313536940579346 0.3656768470289673 0 -0.34099918408546559 1 I I -0.70710678118654746 0.70710678118654746 0.5 forward I I I I #
loop $-1 $-1 $115 $31 #
coedge $-1 $72 $72 $116 $117 reversed $45 $-1 #
face $-1 $-1 $118 $25 $-1 $119 forward single #
loop $-1 $120 $121 $47 #
cone-surface $-1 47.688465254621896 2.9835985529113636 5.0452562075299472 -0.68199836817093118 0 -0.7313536940579346 0.3656768470289673 0 -0.34099918408546559 1 I I -0.70710678118654746 0.70710678118654746 0.5 forward I I I I #
loop $-1 $-1 $122 $32 #
coedge $-1 $77 $77 $123 $124 reversed $48 $-1 #
face $-1 $125 $126 $26 $-1 $127 forward single #
loop $-1 $-1 $128 $50 #
plane-surface $-1 -51.720328379161955 24.525422577359723 5.445337196530815 -0.54463904215088732 0 0.83867056331134215 0.83867056331134215 0 0.54463904215088732 forward_v I I I I #
coedge $-1 $129 $130 $131 $132 reversed $51 $-1 #
face $-1 $-1 $133 $27 $-1 $134 forward single #
loop $-1 $135 $136 $53 #
cone-surface $-1 -46.986880575108628 24.525422577359723 4.3140620747765954 0.54463904215088732 0 -0.83867056331134215 0.62900292248350664 0 0.40847928161316549 1 I I -0.70710678118654757 0.70710678118654757 0.75 forward I I I I #
loop $-1 $-1 $137 $34 #
coedge $-1 $86 $86 $138 $139 reversed $54 $-1 #
face $-1 $140 $141 $21 $-1 $142 reversed single #
loop $-1 $-1 $143 $56 #
plane-surface $-1 0 -31.380871625078793 0 0 1 0 0 0 1 forward_v I I I I #
coedge $-1 $144 $145 $146 $147 forward $57 $-1 #
coedge $-1 $148 $59 $149 $150 forward $36 $-1 #
coedge $-1 $59 $148 $151 $152 forward $36 $-1 #
coedge $-1 $153 $154 $59 $94 reversed $155 $-1 #
edge $-1 $156 -31.380871625078793 $157 31.380871625078793 $93 $158 forward 7 unknown #
face $-1 $159 $160 $22 $-1 $161 reversed single #
loop $-1 $-1 $162 $60 #
plane-surface $-1 0 -19.372432726685052 2.3167627535626121 0 -1 0 0 0 -1 forward_v I I I I #
coedge $-1 $163 $164 $165 $166 reversed $61 $-1 #
coedge $-1 $167 $63 $168 $169 forward $39 $-1 #
coedge $-1 $63 $167 $170 $171 reversed $39 $-1 #
coedge $-1 $172 $173 $63 $102 forward $174 $-1 #
edge $-1 $175 6.6841066387440904 $176 18.692545537137832 $101 $177 forward 7 unknown #
face $-1 $178 $179 $23 $-1 $180 forward single #
loop $-1 $-1 $181 $64 #
plane-surface $-1 46.614981054889221 7.0783025689781205 151.6893730185871 0 -1 0 -0.68199836817093118 0 -0.7313536940579346 forward_v I I I I #
coedge $-1 $182 $183 $184 $185 reversed $65 $-1 #
coedge $-1 $108 $67 $186 $187 reversed $42 $-1 #
coedge $-1 $67 $107 $182 $188 reversed $42 $-1 #
coedge $-1 $184 $189 $67 $110 forward $190 $-1 #
edge $-1 $191 66.746273633542458 $192 70.353379038391836 $109 $193 forward 7 unknown #
loop $-1 $-1 $116 $68 #
plane-surface $-1 -23.931378056817103 -0.087429459138700594 76.03766658260804 0.68199836817093118 0 0.7313536940579346 0.7313536940579346 0 -0.68199836817093118 forward_v I I I I #
loop $-1 $-1 $194 $44 #
coedge $-1 $114 $114 $115 $195 reversed $69 $-1 #
coedge $-1 $115 $115 $114 $195 forward $71 $-1 #
coedge $-1 $116 $116 $72 $117 forward $111 $-1 #
edge $-1 $196 0 $196 6.2831853071796004 $116 $197 forward 7 unknown #
loop $-1 $-1 $123 $73 #
plane-surface $-1 -23.931378056817103 -0.087429459138700594 76.03766658260804 0.68199836817093118 0 0.7313536940579346 0.7313536940579346 0 -0.68199836817093118 forward_v I I I I #
loop $-1 $-1 $198 $47 #
coedge $-1 $121 $121 $122 $199 reversed $74 $-1 #
coedge $-1 $122 $122 $121 $199 forward $76 $-1 #
coedge $-1 $123 $123 $77 $124 forward $118 $-1 #
edge $-1 $200 0 $200 6.2831853071796004 $123 $201 forward 7 unknown #
face $-1 $202 $203 $26 $-1 $204 reversed single #
loop $-1 $-1 $131 $78 #
plane-surface $-1 0 0 9.0984128757510927 0 0 1 1 0 0 forward_v I I I I #
coedge $-1 $205 $206 $207 $208 reversed $79 $-1 #
coedge $-1 $130 $81 $209 $210 reversed $51 $-1 #
coedge $-1 $81 $129 $205 $211 reversed $51 $-1 #
coedge $-1 $207 $212 $81 $132 forward $126 $-1 #
edge $-1 $213 2.3087459185751413 $214 7.9339890623853506 $131 $215 forward 7 unknown #
loop $-1 $-1 $138 $82 #
plane-surface $-1 -51.720328379161955 24.525422577359723 5.445337196530815 -0.54463904215088732 0 0.83867056331134215 0.83867056331134215 0 0.54463904215088732 forward_v I I I I #
loop $-1 $-1 $216 $53 #
coedge $-1 $136 $136 $137 $217 reversed $83 $-1 #
coedge $-1 $137 $137 $136 $217 forward $85 $-1 #
coedge $-1 $138 $138 $86 $139 forward $133 $-1 #
edge $-1 $218 0 $218 6.2831853071796004 $138 $219 forward 7 unknown #
face $-1 $220 $221 $21 $-1 $222 reversed single #
loop $-1 $-1 $223 $87 #
plane-surface $-1 -51.720328379161963 0 0 1 0 0 0 0 -1 forward_v I I I I #
coedge $-1 $224 $151 $225 $226 forward $88 $-1 #
coedge $-1 $227 $90 $224 $228 forward $57 $-1 #
coedge $-1 $90 $227 $229 $230 forward $57 $-1 #
coedge $-1 $154 $153 $90 $147 reversed $155 $-1 #
edge $-1 $231 -31.380871625078793 $232 31.380871625078793 $146 $233 forward 7 unknown #
coedge $-1 $92 $91 $234 $235 forward $36 $-1 #
coedge $-1 $236 $237 $91 $150 reversed $221 $-1 #
edge $-1 $157 -51.720328379161963 $238 51.720328379161963 $149 $239 forward 7 unknown #
coedge $-1 $143 $240 $92 $152 reversed $88 $-1 #
edge $-1 $241 -51.720328379161963 $156 51.720328379161963 $151 $242 forward 7 unknown #
coedge $-1 $146 $93 $240 $243 forward $155 $-1 #
coedge $-1 $93 $146 $236 $244 reversed $155 $-1 #
loop $-1 $-1 $153 $220 #
vertex $-1 $94 $245 #
vertex $-1 $94 $246 #
straight-curve $-1 51.720328379161963 0 9.0984128757510927 0 1 0 I I #
face $-1 $247 $248 $22 $-1 $249 reversed single #
loop $-1 $-1 $250 $95 #
plane-surface $-1 -51.720328379161963 0 0 1 0 0 0 0 -1 forward_v I I I I #
coedge $-1 $251 $168 $173 $252 reversed $96 $-1 #
coedge $-1 $253 $98 $254 $255 reversed $61 $-1 #
coedge $-1 $98 $253 $251 $256 forward $61 $-1 #
coedge $-1 $173 $172 $98 $166 forward $174 $-1 #
edge $-1 $257 -18.692545537137832 $258 -6.6841066387440904 $165 $259 forward 7 unknown #
coedge $-1 $100 $99 $250 $260 reversed $39 $-1 #
coedge $-1 $162 $261 $99 $169 reversed $96 $-1 #
edge $-1 $175 -51.720328379161963 $262 51.720328379161963 $168 $263 forward 7 unknown #
coedge $-1 $264 $265 $100 $171 forward $248 $-1 #
edge $-1 $176 -51.720328379161963 $266 51.720328379161963 $170 $267 forward 7 unknown #
coedge $-1 $165 $101 $265 $268 forward $174 $-1 #
coedge $-1 $101 $165 $162 $252 forward $174 $-1 #
loop $-1 $-1 $101 $247 #
vertex $-1 $102 $269 #
vertex $-1 $268 $270 #
straight-curve $-1 51.720328379161963 -12.688326087940961 4.2998541234569183 0 -1 0 I I #
face $-1 $-1 $190 $23 $-1 $271 reversed single #
loop $-1 $-1 $272 $103 #
plane-surface $-1 0 0 9.0984128757510927 0 0 1 1 0 0 forward_v I I I I #
coedge $-1 $273 $274 $275 $276 reversed $104 $-1 #
coedge $-1 $277 $106 $108 $188 forward $65 $-1 #
coedge $-1 $106 $277 $273 $278 forward $65 $-1 #
coedge $-1 $275 $109 $106 $185 forward $190 $-1 #
edge $-1 $192 -7.2094467576861714 $279 7.1220172985474708 $184 $280 forward 7 unknown #
coedge $-1 $281 $282 $107 $187 forward $179 $-1 #
edge $-1 $283 24.544690967776784 $191 28.412837851717352 $186 $284 forward 7 unknown #
edge $-1 $192 -103.44065675832393 $283 -98.151633245667483 $108 $285 forward 7 unknown #
coedge $-1 $109 $275 $281 $286 reversed $190 $-1 #
loop $-1 $-1 $275 $178 #
vertex $-1 $286 $287 #
vertex $-1 $110 $288 #
straight-curve $-1 51.720328379161963 -7.2531614872555217 75.844686509293552 0 0 -1 I I #
coedge $-1 $194 $194 $-1 $289 reversed $113 $-1 #
edge $-1 $290 0 $290 6.2831853071796004 $114 $291 forward 7 unknown #
vertex $-1 $117 $292 #
ellipse-curve $-1 49.786254937191678 -3.1584574711887683 7.2948601733264002 0.68199836817093118 0 0.7313536940579346 0.7313536940579346 0 -0.68199836817093118 1 I I #
coedge $-1 $198 $198 $-1 $293 reversed $120 $-1 #
edge $-1 $294 0 $294 6.2831853071796004 $121 $295 forward 7 unknown #
vertex $-1 $124 $296 #
ellipse-curve $-1 49.786254937191678 2.9835985529113636 7.2948601733264002 0.68199836817093118 0 0.7313536940579346 0.7313536940579346 0 -0.68199836817093118 1 I I #
face $-1 $-1 $297 $26 $-1 $298 reversed single #
loop $-1 $-1 $299 $125 #
plane-surface $-1 0 31.380871625078793 0 0 -1 0 0 0 -1 forward_v I I I I #
coedge $-1 $300 $128 $130 $211 forward $79 $-1 #
coedge $-1 $128 $300 $299 $301 reversed $79 $-1 #
coedge $-1 $302 $131 $128 $208 forward $126 $-1 #
edge $-1 $214 5.4072622409607956 $303 19.11816033639893 $207 $304 forward 7 unknown #
coedge $-1 $305 $306 $129 $210 forward $297 $-1 #
edge $-1 $307 -40.653648338133962 $213 -37.000572658913676 $209 $308 forward 7 unknown #
edge $-1 $214 -6.7073334750178013 $307 8.3777959833898778e-015 $130 $309 forward 7 unknown #
coedge $-1 $131 $302 $305 $310 forward $126 $-1 #
vertex $-1 $210 $311 #
vertex $-1 $132 $312 #
straight-curve $-1 -54.029074297737104 17.669973529640657 9.0984128757510945 1 0 0 I I #
coedge $-1 $216 $216 $-1 $313 reversed $135 $-1 #
edge $-1 $314 0 $314 6.2831853071796004 $136 $315 forward 7 unknown #
vertex $-1 $139 $316 #
ellipse-curve $-1 -48.907706807256865 24.525422577359723 7.2718750361409477 -0.54463904215088732 0 0.83867056331134215 1.2580058449670133 0 0.81695856322633098 1 I I #
face $-1 $-1 $155 $21 $-1 $317 reversed single #
loop $-1 $-1 $236 $140 #
plane-surface $-1 0 31.380871625078793 0 0 -1 0 0 0 -1 forward_v I I I I #
coedge $-1 $318 $234 $237 $319 forward $141 $-1 #
coedge $-1 $240 $143 $144 $228 reversed $88 $-1 #
coedge $-1 $234 $318 $143 $226 reversed $141 $-1 #
edge $-1 $241 -9.0984128757510927 $320 9.0984128757510927 $225 $321 forward 7 unknown #
coedge $-1 $145 $144 $318 $322 forward $57 $-1 #
edge $-1 $232 -51.720328379161963 $320 51.720328379161963 $224 $323 forward 7 unknown #
coedge $-1 $237 $236 $145 $230 reversed $221 $-1 #
edge $-1 $324 -51.720328379161963 $231 51.720328379161963 $229 $325 forward 7 unknown #
vertex $-1 $147 $326 #
vertex $-1 $243 $327 #
straight-curve $-1 51.720328379161963 0 -9.0984128757510927 0 -1 0 I I #
coedge $-1 $223 $225 $148 $235 reversed $141 $-1 #
edge $-1 $238 -31.380871625078793 $241 31.380871625078793 $234 $328 forward 7 unknown #
coedge $-1 $229 $149 $154 $244 forward $221 $-1 #
coedge $-1 $149 $229 $223 $319 reversed $221 $-1 #
vertex $-1 $150 $329 #
straight-curve $-1 0 31.380871625078793 9.0984128757510927 -1 0 0 I I #
coedge $-1 $151 $224 $153 $243 reversed $88 $-1 #
vertex $-1 $235 $330 #
straight-curve $-1 0 -31.380871625078793 9.0984128757510927 1 0 0 I I #
edge $-1 $156 -9.0984128757510927 $232 9.0984128757510927 $153 $331 forward 7 unknown #
edge $-1 $157 -9.0984128757510927 $231 9.0984128757510927 $154 $332 forward 7 unknown #
point $-1 51.720328379161963 -31.380871625078793 9.0984128757510927 #
point $-1 51.720328379161963 31.380871625078793 9.0984128757510927 #
face $-1 $-1 $174 $22 $-1 $333 reversed single #
loop $-1 $-1 $170 $159 #
plane-surface $-1 0 -31.380871625078793 0 0 1 0 0 0 1 forward_v I I I I #
coedge $-1 $334 $335 $167 $260 forward $160 $-1 #
coedge $-1 $261 $162 $164 $256 reversed $96 $-1 #
edge $-1 $258 -0.82470999311300019 $175 3.1414727466756123 $173 $336 forward 7 unknown #
coedge $-1 $164 $163 $337 $338 reversed $61 $-1 #
coedge $-1 $265 $264 $163 $255 forward $248 $-1 #
edge $-1 $339 -51.720328379161963 $257 51.720328379161963 $254 $340 forward 7 unknown #
edge $-1 $341 -51.720328379161963 $258 51.720328379161963 $251 $342 forward 7 unknown #
vertex $-1 $255 $343 #
vertex $-1 $166 $344 #
straight-curve $-1 51.720328379161963 -12.688326087940961 0.33367138366830584 0 1 0 I I #
edge $-1 $266 -18.692545537137832 $262 -6.6841066387440904 $250 $345 forward 7 unknown #
coedge $-1 $168 $251 $334 $346 reversed $96 $-1 #
vertex $-1 $260 $347 #
straight-curve $-1 0 -19.372432726685052 4.2998541234569183 -1 0 0 I I #
coedge $-1 $254 $170 $335 $348 forward $248 $-1 #
coedge $-1 $170 $254 $172 $268 reversed $248 $-1 #
vertex $-1 $348 $349 #
straight-curve $-1 0 -31.380871625078793 4.2998541234569183 -1 0 0 I I #
edge $-1 $176 -4.2998541234569183 $257 -0.33367138366830584 $172 $350 forward 7 unknown #
point $-1 51.720328379161963 -19.372432726685052 4.2998541234569183 #
point $-1 51.720328379161963 -31.380871625078793 4.2998541234569183 #
plane-surface $-1 51.720328379161963 0 0 -1 0 0 0 0 1 forward_v I I I I #
coedge $-1 $282 $281 $274 $351 forward $179 $-1 #
coedge $-1 $274 $181 $183 $278 reversed $104 $-1 #
coedge $-1 $181 $273 $272 $351 reversed $104 $-1 #
coedge $-1 $189 $184 $181 $276 forward $190 $-1 #
edge $-1 $279 -70.353379038391836 $352 -66.746273633542458 $275 $353 forward 7 unknown #
coedge $-1 $183 $182 $282 $354 reversed $65 $-1 #
edge $-1 $355 98.151633245667483 $279 103.44065675832393 $273 $356 forward 7 unknown #
vertex $-1 $185 $357 #
straight-curve $-1 51.720328379161955 -0.043714729569350297 5.4913074709017167 0 1 0 I I #
coedge $-1 $272 $186 $189 $286 forward $179 $-1 #
coedge $-1 $186 $272 $277 $354 forward $179 $-1 #
vertex $-1 $187 $358 #
straight-curve $-1 23.30749052744461 -7.2531614872555217 9.0984128757510945 1 0 0 I I #
straight-curve $-1 -23.931378056817103 -7.2531614872555217 76.03766658260804 -0.7313536940579346 0 0.68199836817093118 I I #
edge $-1 $191 -7.2531614872555217 $352 7.0783025689781205 $189 $359 forward 7 unknown #
point $-1 51.720328379161963 -7.2531614872555217 9.0984128757510927 #
point $-1 51.720328379161963 -7.2531614872555217 5.4913074709017167 #
edge $-1 $360 1 $360 0 $194 $-1 forward 7 unknown #
vertex $-1 $195 $361 #
ellipse-curve $-1 48.029464438707365 -3.1584574711887683 5.4109330545589147 0.68199836817093118 0 0.7313536940579346 0.7313536940579346 0 -0.68199836817093118 1 I I #
point $-1 50.517608631249615 -3.1584574711887683 6.6128618051554646 #
edge $-1 $362 1 $362 0 $198 $-1 forward 7 unknown #
vertex $-1 $199 $363 #
ellipse-curve $-1 48.029464438707365 2.9835985529113636 5.4109330545589147 0.68199836817093118 0 0.7313536940579346 0.7313536940579346 0 -0.68199836817093118 1 I I #
point $-1 50.517608631249615 2.9835985529113636 6.6128618051554646 #
loop $-1 $-1 $209 $202 #
plane-surface $-1 -51.720328379161963 0 0 1 0 0 0 0 -1 forward_v I I I I #
coedge $-1 $364 $365 $206 $301 forward $203 $-1 #
coedge $-1 $206 $205 $306 $366 reversed $79 $-1 #
edge $-1 $303 13.497953375728301 $367 20.205286850746109 $299 $368 forward 7 unknown #
coedge $-1 $212 $207 $365 $369 forward $126 $-1 #
vertex $-1 $369 $370 #
straight-curve $-1 -46.09508523535176 12.262711288679862 9.0984128757510927 0 1 0 I I #
coedge $-1 $371 $209 $212 $310 reversed $297 $-1 #
coedge $-1 $209 $371 $300 $366 forward $297 $-1 #
vertex $-1 $210 $372 #
straight-curve $-1 -51.720328379161963 17.669973529640657 46.09898553466477 0 0 1 I I #
straight-curve $-1 -51.720328379161955 17.669973529640657 5.445337196530815 -0.83867056331134215 0 -0.54463904215088732 I I #
edge $-1 $373 -31.380871625078793 $213 -17.669973529640657 $305 $374 forward 7 unknown #
point $-1 -51.720328379161963 17.669973529640657 9.0984128757510927 #
point $-1 -46.095085235351753 17.669973529640657 9.0984128757510927 #
edge $-1 $375 1 $375 0 $216 $-1 forward 7 unknown #
vertex $-1 $217 $376 #
ellipse-curve $-1 -47.395359856721797 24.525422577359723 4.9430649972601017 -0.54463904215088732 0 0.83867056331134215 1.2580058449670133 0 0.81695856322633098 1 I I #
point $-1 -47.649700962289856 24.525422577359723 8.0888335993672911 #
plane-surface $-1 51.720328379161963 0 0 -1 0 0 0 0 1 forward_v I I I I #
coedge $-1 $225 $223 $227 $322 reversed $141 $-1 #
edge $-1 $238 -9.0984128757510927 $324 9.0984128757510927 $237 $377 forward 7 unknown #
vertex $-1 $322 $378 #
straight-curve $-1 -51.720328379161963 -31.380871625078793 0 0 0 -1 I I #
edge $-1 $320 -31.380871625078793 $324 31.380871625078793 $318 $379 forward 7 unknown #
straight-curve $-1 0 -31.380871625078793 -9.0984128757510927 -1 0 0 I I #
vertex $-1 $230 $380 #
straight-curve $-1 0 31.380871625078793 -9.0984128757510927 1 0 0 I I #
point $-1 51.720328379161963 31.380871625078793 -9.0984128757510927 #
point $-1 51.720328379161963 -31.380871625078793 -9.0984128757510927 #
straight-curve $-1 -51.720328379161963 0 9.0984128757510927 0 -1 0 I I #
point $-1 -51.720328379161963 31.380871625078793 9.0984128757510927 #
point $-1 -51.720328379161963 -31.380871625078793 9.0984128757510927 #
straight-curve $-1 51.720328379161963 -31.380871625078793 0 0 0 -1 I I #
straight-curve $-1 51.720328379161963 31.380871625078793 0 0 0 -1 I I #
plane-surface $-1 51.720328379161963 0 0 -1 0 0 0 0 1 forward_v I I I I #
coedge $-1 $337 $250 $261 $346 forward $160 $-1 #
coedge $-1 $250 $337 $264 $348 reversed $160 $-1 #
straight-curve $-1 51.720328379161963 -19.372432726685052 1.158381376781306 0 0 1 I I #
coedge $-1 $335 $334 $253 $338 forward $160 $-1 #
edge $-1 $341 6.6841066387440904 $339 18.692545537137832 $337 $381 forward 7 unknown #
vertex $-1 $255 $382 #
straight-curve $-1 0 -31.380871625078793 0.33367138366830584 1 0 0 I I #
vertex $-1 $338 $383 #
straight-curve $-1 0 -19.372432726685052 0.33367138366830584 1 0 0 I I #
point $-1 51.720328379161963 -31.380871625078793 0.33367138366830584 #
point $-1 51.720328379161963 -19.372432726685052 0.33367138366830584 #
straight-curve $-1 -51.720328379161963 -12.688326087940961 4.2998541234569183 0 1 0 I I #
edge $-1 $262 -3.1414727466756123 $341 0.82470999311300019 $334 $384 forward 7 unknown #
point $-1 -51.720328379161963 -19.372432726685052 4.2998541234569183 #
edge $-1 $266 -4.2998541234569183 $339 -0.33367138366830584 $335 $385 forward 7 unknown #
point $-1 -51.720328379161963 -31.380871625078793 4.2998541234569183 #
straight-curve $-1 51.720328379161963 -31.380871625078793 0 0 0 -1 I I #
edge $-1 $352 -28.412837851717352 $355 -24.544690967776784 $272 $386 forward 7 unknown #
vertex $-1 $351 $387 #
straight-curve $-1 51.720328379161963 7.0783025689781205 75.844686509293552 0 0 1 I I #
edge $-1 $355 -7.1220172985474708 $283 7.2094467576861714 $282 $388 forward 7 unknown #
vertex $-1 $354 $389 #
straight-curve $-1 -23.931378056817103 7.0783025689781205 76.03766658260804 0.7313536940579346 0 -0.68199836817093118 I I #
point $-1 51.720328379161963 7.0783025689781205 5.4913074709017167 #
point $-1 47.852181495221394 -7.2531614872555217 9.0984128757510945 #
straight-curve $-1 51.720328379161963 0 9.0984128757510927 0 1 0 I I #
vertex $-1 $289 $390 #
point $-1 48.760818132765294 -3.1584574711887683 4.7289346863879835 #
vertex $-1 $293 $391 #
point $-1 48.760818132765294 2.9835985529113636 4.7289346863879835 #
coedge $-1 $365 $299 $371 $392 reversed $203 $-1 #
coedge $-1 $299 $364 $302 $369 reversed $203 $-1 #
edge $-1 $367 -19.11816033639893 $307 -5.4072622409607956 $306 $393 forward 7 unknown #
vertex $-1 $301 $394 #
straight-curve $-1 -34.774749074179468 31.380871625078793 16.449925273305091 -0.83867056331134215 0 -0.54463904215088732 I I #
edge $-1 $303 46.095085235351753 $373 51.720328379161963 $365 $395 forward 7 unknown #
point $-1 -46.095085235351753 31.38087162507879 9.0984128757510927 #
coedge $-1 $306 $305 $364 $392 forward $297 $-1 #
point $-1 -51.720328379161963 17.669973529640657 5.4453371965308106 #
vertex $-1 $369 $396 #
straight-curve $-1 -51.720328379161963 0 9.0984128757510927 0 -1 0 I I #
vertex $-1 $313 $397 #
point $-1 -46.13735401175478 24.525422577359723 5.7600235604864327 #
straight-curve $-1 -51.720328379161963 31.380871625078793 0 0 0 -1 I I #
point $-1 -51.720328379161963 -31.380871625078793 -9.0984128757510927 #
straight-curve $-1 -51.720328379161963 0 -9.0984128757510927 0 1 0 I I #
point $-1 -51.720328379161963 31.380871625078793 -9.0984128757510927 #
straight-curve $-1 -51.720328379161963 -12.688326087940961 0.33367138366830584 0 -1 0 I I #
point $-1 -51.720328379161963 -31.380871625078793 0.33367138366830584 #
point $-1 -51.720328379161963 -19.372432726685052 0.33367138366830584 #
straight-curve $-1 -51.720328379161963 -19.372432726685052 1.158381376781306 0 0 -1 I I #
straight-curve $-1 -51.720328379161963 -31.380871625078793 0 0 0 -1 I I #
straight-curve $-1 23.30749052744461 7.0783025689781205 9.0984128757510945 -1 0 0 I I #
point $-1 51.720328379161963 7.0783025689781205 9.0984128757510927 #
straight-curve $-1 47.852181495221402 -0.043714729569350297 9.0984128757510945 0 -1 0 I I #
point $-1 47.852181495221394 7.0783025689781205 9.0984128757510945 #
point $-1 47.347466070536427 -3.1584574711887683 4.6795793605009797 #
point $-1 47.347466070536427 2.9835985529113636 4.6795793605009797 #
edge $-1 $373 -9.0984128757510927 $367 -5.4453371965308106 $364 $398 forward 7 unknown #
straight-curve $-1 -51.720328379161963 12.262711288679862 5.4453371965308079 0 -1 0 I I #
point $-1 -51.720328379161963 31.38087162507879 5.4453371965308106 #
straight-curve $-1 0 31.380871625078793 9.0984128757510927 -1 0 0 I I #
point $-1 -51.720328379161963 31.380871625078793 9.0984128757510927 #
point $-1 -46.57840129349546 24.525422577359723 3.6850591522930887 #
straight-curve $-1 -51.720328379161963 31.380871625078793 0 0 0 -1 I I #
End-of-ACIS-data 