500 0 5 0           
7 Unknown 11 ACIS 5.0 NT 24 Fri Mar 26 17:49:09 1999 
-1 9.9999999999999995e-007 1e-010 
body $-1 $5 $-1 $6 #
body $-1 $7 $-1 $8 #
body $-1 $9 $-1 $10 #
body $-1 $11 $-1 $12 #
body $-1 $13 $-1 $14 #
lump $-1 $-1 $15 $0 #
transform $-1 1 0 0 0 1 0 0 0 1 64.580828272347176 33.883698281056112 10.482054994224475 1 rotate no_reflect no_shear #
lump $-1 $-1 $16 $1 #
transform $-1 1 0 0 0 1 0 0 0 1 64.580828272347176 33.883698281056112 10.482054994224475 1 rotate no_reflect no_shear #
lump $-1 $-1 $17 $2 #
transform $-1 1 0 0 0 1 0 0 0 1 64.580828272347176 33.883698281056112 10.482054994224475 1 rotate no_reflect no_shear #
lump $-1 $-1 $18 $3 #
transform $-1 1 0 0 0 1 0 0 0 1 64.580828272347176 33.883698281056112 10.482054994224475 1 rotate no_reflect no_shear #
lump $-1 $-1 $19 $4 #
transform $-1 1 0 0 0 1 0 0 0 1 64.580828272347176 33.883698281056112 10.482054994224475 1 rotate no_reflect no_shear #
shell $-1 $-1 $-1 $20 $-1 $5 #
shell $-1 $-1 $-1 $21 $-1 $7 #
shell $-1 $-1 $-1 $22 $-1 $9 #
shell $-1 $-1 $-1 $23 $-1 $11 #
shell $-1 $-1 $-1 $24 $-1 $13 #
face $-1 $25 $26 $15 $-1 $27 forward single #
face $-1 $28 $29 $16 $-1 $30 forward single #
face $-1 $31 $32 $17 $-1 $33 forward single #
face $-1 $34 $35 $18 $-1 $36 reversed single #
face $-1 $37 $38 $19 $-1 $39 reversed single #
face $-1 $40 $41 $15 $-1 $42 reversed single #
loop $-1 $-1 $43 $20 #
plane-surface $-1 0 0 10.482054994224475 0 0 1 1 0 0 forward_v I I I I #
face $-1 $44 $45 $16 $-1 $46 forward single #
loop $-1 $-1 $47 $21 #
plane-surface $-1 -60.589275678042384 0 5.6899385287414752 0 0 1 1 0 0 forward_v I I I I #
face $-1 $48 $49 $17 $-1 $50 forward single #
loop $-1 $-1 $51 $22 #
plane-surface $-1 -13.150595641844561 -26.659098591105902 106.57546391496552 0.79863551827123203 0 0.60181501223851219 0.60181501223851219 0 -0.79863551827123203 forward_v I I I I #
face $-1 $52 $53 $18 $-1 $54 reversed single #
loop $-1 $55 $56 $23 #
cone-surface $-1 58.766577676265953 -29.755355601084563 4.5752608682733058 -0.79863551827123203 0 -0.60181501223851219 1.2036300244770244 0 -1.5972710365424641 1 I I 0 1 2 forward I I I I #
face $-1 $57 $58 $19 $-1 $59 reversed single #
loop $-1 $60 $61 $24 #
cone-surface $-1 58.766577676265953 -23.562841581127241 4.5752608682733058 -0.79863551827123203 0 -0.60181501223851219 1.2036300244770244 0 -1.5972710365424641 1 I I 0 1 2 forward I I I I #
face $-1 $62 $63 $15 $-1 $64 reversed single #
loop $-1 $-1 $65 $25 #
plane-surface $-1 0 0 -10.482054994224475 0 0 1 1 0 0 forward_v I I I I #
coedge $-1 $66 $67 $68 $69 forward $26 $-1 #
face $-1 $70 $71 $16 $-1 $72 forward single #
loop $-1 $-1 $73 $28 #
plane-surface $-1 -56.597723083737591 0 8.085996761482976 -1 0 0 0 0 1 forward_v I I I I #
coedge $-1 $74 $75 $76 $77 reversed $29 $-1 #
face $-1 $78 $79 $17 $-1 $80 reversed single #
loop $-1 $-1 $81 $31 #
plane-surface $-1 90.002490873498274 -19.434498901155692 184.30688782915726 0 -1 0 -0.79863551827123203 0 -0.60181501223851219 forward_v I I I I #
coedge $-1 $82 $83 $84 $85 reversed $32 $-1 #
face $-1 $86 $87 $18 $-1 $88 forward single #
loop $-1 $89 $90 $34 #
cone-surface $-1 54.813615808202968 -29.755355601084563 1.5964905273845122 -0.79863551827123203 0 -0.60181501223851219 0.60181501223851219 0 -0.79863551827123203 1 I I -0.70710678118654768 0.70710678118654735 1 forward I I I I #
loop $-1 $-1 $91 $23 #
coedge $-1 $56 $56 $92 $93 reversed $35 $-1 #
face $-1 $94 $95 $19 $-1 $96 reversed single #
loop $-1 $97 $98 $37 #
cone-surface $-1 54.813615808202968 -23.562841581127241 1.5964905273845122 -0.79863551827123203 0 -0.60181501223851219 0.60181501223851219 0 -0.79863551827123203 1 I I -0.70710678118654768 0.70710678118654735 1 forward I I I I #
loop $-1 $-1 $99 $24 #
coedge $-1 $61 $61 $100 $101 reversed $38 $-1 #
face $-1 $102 $103 $15 $-1 $104 reversed single #
loop $-1 $-1 $105 $40 #
plane-surface $-1 0 -33.883698281056112 0 0 1 0 0 0 1 forward_v I I I I #
coedge $-1 $106 $107 $108 $109 forward $41 $-1 #
coedge $-1 $110 $43 $111 $112 forward $26 $-1 #
coedge $-1 $43 $110 $113 $114 forward $26 $-1 #
coedge $-1 $115 $116 $43 $69 reversed $117 $-1 #
edge $-1 $118 -33.883698281056112 $119 33.883698281056112 $68 $120 forward 7 unknown #
face $-1 $121 $122 $16 $-1 $123 reversed single #
loop $-1 $-1 $124 $44 #
plane-surface $-1 0 0 10.482054994224475 0 0 1 1 0 0 forward_v I I I I #
coedge $-1 $125 $76 $126 $127 reversed $45 $-1 #
coedge $-1 $128 $47 $129 $130 reversed $29 $-1 #
coedge $-1 $47 $128 $131 $132 reversed $29 $-1 #
coedge $-1 $73 $133 $47 $77 forward $45 $-1 #
edge $-1 $134 -33.883698281056112 $135 33.883698281056112 $76 $136 forward 7 unknown #
face $-1 $137 $138 $17 $-1 $139 reversed single #
loop $-1 $-1 $140 $48 #
plane-surface $-1 64.580828272347176 0 0 -1 0 0 0 0 1 forward_v I I I I #
coedge $-1 $141 $142 $140 $143 reversed $49 $-1 #
coedge $-1 $144 $51 $142 $145 reversed $32 $-1 #
coedge $-1 $51 $144 $146 $147 reversed $32 $-1 #
coedge $-1 $148 $140 $51 $85 forward $79 $-1 #
edge $-1 $149 6.1049496056027408 $150 20.554148985503161 $84 $151 forward 7 unknown #
face $-1 $152 $153 $18 $-1 $154 forward single #
loop $-1 $155 $92 $52 #
plane-surface $-1 -13.150595641844561 -26.659098591105902 106.57546391496552 0.79863551827123203 0 0.60181501223851219 0.60181501223851219 0 -0.79863551827123203 forward_v I I I I #
loop $-1 $-1 $156 $34 #
coedge $-1 $90 $90 $91 $157 forward $53 $-1 #
coedge $-1 $91 $91 $90 $157 reversed $55 $-1 #
coedge $-1 $92 $92 $56 $93 forward $87 $-1 #
edge $-1 $158 0 $158 6.2831853071796004 $92 $159 forward 7 unknown #
face $-1 $160 $161 $19 $-1 $162 reversed single #
loop $-1 $163 $164 $57 #
cone-surface $-1 58.766577676265953 -29.755355601084563 4.5752608682733058 -0.79863551827123203 0 -0.60181501223851219 1.2036300244770244 0 -1.5972710365424641 1 I I 0 1 2 forward I I I I #
loop $-1 $-1 $165 $37 #
coedge $-1 $98 $98 $99 $166 forward $58 $-1 #
coedge $-1 $99 $99 $98 $166 reversed $60 $-1 #
coedge $-1 $100 $100 $61 $101 forward $167 $-1 #
edge $-1 $168 0 $168 6.2831853071796004 $100 $169 forward 7 unknown #
face $-1 $170 $171 $15 $-1 $172 reversed single #
loop $-1 $-1 $173 $62 #
plane-surface $-1 -64.580828272347176 0 0 1 0 0 0 0 -1 forward_v I I I I #
coedge $-1 $174 $113 $175 $176 forward $63 $-1 #
coedge $-1 $177 $65 $174 $178 forward $41 $-1 #
coedge $-1 $65 $177 $179 $180 forward $41 $-1 #
coedge $-1 $116 $115 $65 $109 reversed $117 $-1 #
edge $-1 $181 -33.883698281056112 $182 33.883698281056112 $108 $183 forward 7 unknown #
coedge $-1 $67 $66 $184 $185 forward $26 $-1 #
coedge $-1 $186 $187 $66 $112 reversed $171 $-1 #
edge $-1 $119 -64.580828272347176 $188 64.580828272347176 $111 $189 forward 7 unknown #
coedge $-1 $105 $190 $67 $114 reversed $63 $-1 #
edge $-1 $191 -64.580828272347176 $118 64.580828272347176 $113 $192 forward 7 unknown #
coedge $-1 $108 $68 $190 $193 forward $117 $-1 #
coedge $-1 $68 $108 $186 $194 reversed $117 $-1 #
loop $-1 $-1 $115 $170 #
vertex $-1 $69 $195 #
vertex $-1 $69 $196 #
straight-curve $-1 64.580828272347176 0 10.482054994224475 0 1 0 I I #
face $-1 $197 $198 $16 $-1 $199 reversed single #
loop $-1 $-1 $126 $70 #
plane-surface $-1 0 -33.883698281056112 0 0 1 0 0 0 1 forward_v I I I I #
coedge $-1 $200 $201 $125 $202 forward $71 $-1 #
coedge $-1 $133 $73 $124 $202 reversed $45 $-1 #
coedge $-1 $131 $203 $73 $127 forward $122 $-1 #
edge $-1 $204 -6.4390566134829887 $135 -1.6469401479999872 $126 $205 forward 7 unknown #
coedge $-1 $75 $74 $206 $207 reversed $29 $-1 #
coedge $-1 $208 $209 $74 $130 forward $210 $-1 #
edge $-1 $211 -34.286190433325984 $134 -26.303085244716399 $129 $212 forward 7 unknown #
coedge $-1 $213 $126 $75 $132 forward $122 $-1 #
edge $-1 $135 26.303085244716399 $214 34.286190433325984 $131 $215 forward 7 unknown #
coedge $-1 $76 $125 $208 $216 reversed $45 $-1 #
vertex $-1 $130 $217 #
vertex $-1 $132 $218 #
straight-curve $-1 -56.597723083737591 0 5.6899385287414752 0 -1 0 I I #
face $-1 $219 $220 $17 $-1 $221 forward single #
loop $-1 $-1 $146 $78 #
plane-surface $-1 0 -33.883698281056112 0 0 1 0 0 0 1 forward_v I I I I #
coedge $-1 $84 $222 $81 $143 forward $79 $-1 #
coedge $-1 $142 $81 $223 $224 reversed $49 $-1 #
coedge $-1 $81 $141 $82 $145 forward $49 $-1 #
edge $-1 $225 81.671388920354161 $149 88.731066514955941 $140 $226 forward 7 unknown #
coedge $-1 $83 $82 $227 $228 reversed $32 $-1 #
edge $-1 $229 120.3219825844333 $149 129.16165654469432 $142 $230 forward 7 unknown #
coedge $-1 $231 $232 $83 $147 forward $138 $-1 #
edge $-1 $150 -82.64706817676138 $233 -73.807394216500356 $146 $234 forward 7 unknown #
coedge $-1 $235 $84 $232 $236 forward $79 $-1 #
vertex $-1 $85 $237 #
vertex $-1 $236 $238 #
straight-curve $-1 64.580828272347176 -13.329549295552951 3.4223773996226896 0 -1 0 I I #
face $-1 $239 $240 $18 $-1 $241 reversed single #
loop $-1 $-1 $242 $86 #
plane-surface $-1 90.002490873498274 -19.434498901155692 184.30688782915726 0 -1 0 -0.79863551827123203 0 -0.60181501223851219 forward_v I I I I #
loop $-1 $-1 $243 $52 #
coedge $-1 $156 $156 $-1 $244 forward $89 $-1 #
edge $-1 $245 0 $245 6.2831853071796004 $90 $246 forward 7 unknown #
vertex $-1 $93 $247 #
ellipse-curve $-1 61.920904026057698 -29.755355601084563 6.9522161969235832 -0.79863551827123203 0 -0.60181501223851219 1.2036300244770244 0 -1.5972710365424641 1 I I #
face $-1 $248 $167 $19 $-1 $249 forward single #
loop $-1 $250 $251 $94 #
cone-surface $-1 54.813615808202968 -29.755355601084563 1.5964905273845122 -0.79863551827123203 0 -0.60181501223851219 0.60181501223851219 0 -0.79863551827123203 1 I I -0.70710678118654768 0.70710678118654735 1 forward I I I I #
loop $-1 $-1 $252 $57 #
coedge $-1 $164 $164 $253 $254 reversed $95 $-1 #
coedge $-1 $165 $165 $-1 $255 forward $97 $-1 #
edge $-1 $256 0 $256 6.2831853071796004 $98 $257 forward 7 unknown #
loop $-1 $258 $100 $160 #
vertex $-1 $101 $259 #
ellipse-curve $-1 61.920904026057698 -23.562841581127241 6.9522161969235832 -0.79863551827123203 0 -0.60181501223851219 1.2036300244770244 0 -1.5972710365424641 1 I I #
face $-1 $-1 $117 $15 $-1 $260 reversed single #
loop $-1 $-1 $186 $102 #
plane-surface $-1 0 33.883698281056112 0 0 -1 0 0 0 -1 forward_v I I I I #
coedge $-1 $261 $184 $187 $262 forward $103 $-1 #
coedge $-1 $190 $105 $106 $178 reversed $63 $-1 #
coedge $-1 $184 $261 $105 $176 reversed $103 $-1 #
edge $-1 $191 -10.482054994224475 $263 10.482054994224475 $175 $264 forward 7 unknown #
coedge $-1 $107 $106 $261 $265 forward $41 $-1 #
edge $-1 $182 -64.580828272347176 $263 64.580828272347176 $174 $266 forward 7 unknown #
coedge $-1 $187 $186 $107 $180 reversed $171 $-1 #
edge $-1 $267 -64.580828272347176 $181 64.580828272347176 $179 $268 forward 7 unknown #
vertex $-1 $109 $269 #
vertex $-1 $193 $270 #
straight-curve $-1 64.580828272347176 0 -10.482054994224475 0 -1 0 I I #
coedge $-1 $173 $175 $110 $185 reversed $103 $-1 #
edge $-1 $188 -33.883698281056112 $191 33.883698281056112 $184 $271 forward 7 unknown #
coedge $-1 $179 $111 $116 $194 forward $171 $-1 #
coedge $-1 $111 $179 $173 $262 reversed $171 $-1 #
vertex $-1 $112 $272 #
straight-curve $-1 0 33.883698281056112 10.482054994224475 -1 0 0 I I #
coedge $-1 $113 $174 $115 $193 reversed $63 $-1 #
vertex $-1 $185 $273 #
straight-curve $-1 0 -33.883698281056112 10.482054994224475 1 0 0 I I #
edge $-1 $118 -10.482054994224475 $182 10.482054994224475 $115 $274 forward 7 unknown #
edge $-1 $119 -10.482054994224475 $181 10.482054994224475 $116 $275 forward 7 unknown #
point $-1 64.580828272347176 -33.883698281056112 10.482054994224475 #
point $-1 64.580828272347176 33.883698281056112 10.482054994224475 #
face $-1 $276 $277 $16 $-1 $278 reversed single #
loop $-1 $-1 $279 $121 #
plane-surface $-1 0 0 -10.482054994224475 0 0 1 1 0 0 forward_v I I I I #
coedge $-1 $280 $124 $203 $281 forward $71 $-1 #
coedge $-1 $124 $280 $282 $283 forward $71 $-1 #
edge $-1 $284 -33.883698281056112 $204 33.883698281056112 $124 $285 forward 7 unknown #
coedge $-1 $126 $286 $200 $281 reversed $122 $-1 #
vertex $-1 $281 $287 #
straight-curve $-1 -56.597723083737591 -33.883698281056112 4.042998380741488 0 0 -1 I I #
coedge $-1 $288 $289 $128 $207 forward $277 $-1 #
edge $-1 $214 -33.883698281056112 $211 33.883698281056112 $206 $290 forward 7 unknown #
coedge $-1 $282 $129 $133 $216 forward $210 $-1 #
coedge $-1 $129 $291 $288 $292 reversed $210 $-1 #
loop $-1 $-1 $208 $276 #
vertex $-1 $292 $293 #
straight-curve $-1 -30.294637839021192 33.883698281056112 5.6899385287414752 1 0 0 I I #
coedge $-1 $294 $131 $289 $295 forward $122 $-1 #
vertex $-1 $295 $296 #
straight-curve $-1 -30.294637839021192 -33.883698281056112 5.6899385287414752 -1 0 0 I I #
edge $-1 $134 1.6469401479999872 $284 6.4390566134829887 $208 $297 forward 7 unknown #
point $-1 -56.597723083737591 33.883698281056112 5.6899385287414752 #
point $-1 -56.597723083737591 -33.883698281056112 5.6899385287414752 #
face $-1 $298 $299 $17 $-1 $300 forward single #
loop $-1 $-1 $301 $137 #
plane-surface $-1 -60.589275678042384 0 5.6899385287414752 0 0 1 1 0 0 forward_v I I I I #
coedge $-1 $140 $302 $303 $304 reversed $79 $-1 #
coedge $-1 $303 $227 $141 $224 forward $305 $-1 #
edge $-1 $229 14.259734343019083 $225 19.579582835598039 $223 $306 forward 7 unknown #
vertex $-1 $304 $307 #
straight-curve $-1 64.580828272347176 -19.434498901155692 92.153443914578631 0 0 -1 I I #
coedge $-1 $223 $308 $144 $228 forward $305 $-1 #
edge $-1 $233 -20.554148985503161 $229 -6.1049496056027408 $227 $309 forward 7 unknown #
vertex $-1 $228 $310 #
straight-curve $-1 -13.150595641844561 -19.434498901155692 106.57546391496552 0.60181501223851219 0 -0.79863551827123203 I I #
coedge $-1 $311 $146 $308 $312 reversed $138 $-1 #
coedge $-1 $146 $313 $148 $236 reversed $138 $-1 #
vertex $-1 $228 $314 #
straight-curve $-1 14.842581926072363 -33.883698281056112 69.427261526568373 -0.60181501223851219 0 0.79863551827123203 I I #
coedge $-1 $302 $148 $315 $316 reversed $79 $-1 #
edge $-1 $150 -3.4223773996227003 $317 10.482054994224475 $148 $318 forward 7 unknown #
point $-1 64.580828272347176 -19.434498901155692 3.4223773996226896 #
point $-1 64.580828272347176 -33.883698281056112 3.4223773996227003 #
face $-1 $319 $320 $18 $-1 $321 reversed single #
loop $-1 $-1 $322 $152 #
plane-surface $-1 64.580828272347176 0 0 -1 0 0 0 0 1 forward_v I I I I #
coedge $-1 $323 $324 $322 $325 reversed $153 $-1 #
coedge $-1 $326 $327 $328 $329 reversed $155 $-1 #
edge $-1 $330 1 $330 0 $156 $-1 forward 7 unknown #
vertex $-1 $157 $331 #
ellipse-curve $-1 55.612251326474201 -29.755355601084563 2.198305539623024 0.79863551827123203 0 0.60181501223851219 1.2036300244770244 0 -1.5972710365424641 1 I I #
point $-1 63.124534050534727 -29.755355601084563 5.3549451603811224 #
face $-1 $332 $333 $19 $-1 $334 forward single #
plane-surface $-1 -13.150595641844561 -26.659098591105902 106.57546391496552 0.79863551827123203 0 0.60181501223851219 0.60181501223851219 0 -0.79863551827123203 forward_v I I I I #
loop $-1 $-1 $335 $94 #
coedge $-1 $251 $251 $252 $336 forward $161 $-1 #
coedge $-1 $252 $252 $251 $336 reversed $163 $-1 #
coedge $-1 $253 $253 $164 $254 forward $258 $-1 #
edge $-1 $337 0 $337 6.2831853071796004 $253 $338 forward 7 unknown #
edge $-1 $339 1 $339 0 $165 $-1 forward 7 unknown #
vertex $-1 $166 $340 #
ellipse-curve $-1 55.612251326474201 -23.562841581127241 2.198305539623024 0.79863551827123203 0 0.60181501223851219 1.2036300244770244 0 -1.5972710365424641 1 I I #
loop $-1 $341 $253 $160 #
point $-1 63.124534050534727 -23.562841581127241 5.3549451603811224 #
plane-surface $-1 64.580828272347176 0 0 -1 0 0 0 0 1 forward_v I I I I #
coedge $-1 $175 $173 $177 $265 reversed $103 $-1 #
edge $-1 $188 -10.482054994224475 $267 10.482054994224475 $187 $342 forward 7 unknown #
vertex $-1 $265 $343 #
straight-curve $-1 -64.580828272347176 -33.883698281056112 0 0 0 -1 I I #
edge $-1 $263 -33.883698281056112 $267 33.883698281056112 $261 $344 forward 7 unknown #
straight-curve $-1 0 -33.883698281056112 -10.482054994224475 -1 0 0 I I #
vertex $-1 $180 $345 #
straight-curve $-1 0 33.883698281056112 -10.482054994224475 1 0 0 I I #
point $-1 64.580828272347176 33.883698281056112 -10.482054994224475 #
point $-1 64.580828272347176 -33.883698281056112 -10.482054994224475 #
straight-curve $-1 -64.580828272347176 0 10.482054994224475 0 -1 0 I I #
point $-1 -64.580828272347176 33.883698281056112 10.482054994224475 #
point $-1 -64.580828272347176 -33.883698281056112 10.482054994224475 #
straight-curve $-1 64.580828272347176 -33.883698281056112 0 0 0 -1 I I #
straight-curve $-1 64.580828272347176 33.883698281056112 0 0 0 -1 I I #
face $-1 $346 $210 $16 $-1 $347 reversed single #
loop $-1 $-1 $206 $197 #
plane-surface $-1 -64.580828272347176 0 0 1 0 0 0 0 -1 forward_v I I I I #
coedge $-1 $348 $349 $350 $351 forward $198 $-1 #
coedge $-1 $201 $200 $352 $353 forward $71 $-1 #
edge $-1 $204 -56.597723083737591 $354 64.580828272347176 $203 $355 forward 7 unknown #
coedge $-1 $356 $208 $201 $283 reversed $210 $-1 #
edge $-1 $357 -64.580828272347176 $284 56.597723083737591 $282 $358 forward 7 unknown #
vertex $-1 $202 $359 #
straight-curve $-1 -56.597723083737591 0 10.482054994224475 0 -1 0 I I #
coedge $-1 $203 $294 $360 $361 reversed $122 $-1 #
point $-1 -56.597723083737591 -33.883698281056112 10.482054994224477 #
coedge $-1 $362 $206 $209 $292 forward $277 $-1 #
coedge $-1 $206 $362 $213 $295 reversed $277 $-1 #
straight-curve $-1 -64.580828272347176 0 5.6899385287414752 0 1 0 I I #
coedge $-1 $209 $356 $349 $363 reversed $210 $-1 #
edge $-1 $211 -5.6899385287414752 $364 10.482054994224475 $209 $365 forward 7 unknown #
point $-1 -64.580828272347176 33.883698281056112 5.6899385287414752 #
coedge $-1 $286 $213 $348 $366 reversed $122 $-1 #
edge $-1 $214 -5.6899385287414752 $367 10.482054994224475 $289 $368 forward 7 unknown #
point $-1 -64.580828272347176 -33.883698281056112 5.6899385287414752 #
straight-curve $-1 -56.597723083737591 33.883698281056112 4.042998380741488 0 0 1 I I #
face $-1 $369 $305 $17 $-1 $370 forward single #
loop $-1 $-1 $371 $219 #
plane-surface $-1 -56.597723083737591 0 8.085996761482976 -1 0 0 0 0 1 forward_v I I I I #
coedge $-1 $372 $373 $374 $375 reversed $220 $-1 #
coedge $-1 $222 $235 $376 $377 reversed $79 $-1 #
coedge $-1 $378 $223 $222 $304 forward $305 $-1 #
edge $-1 $225 -19.434498901155692 $379 33.883698281056112 $222 $380 forward 7 unknown #
loop $-1 $-1 $223 $298 #
straight-curve $-1 45.001245436749137 -19.434498901155692 10.48205499422447 1 0 0 I I #
point $-1 64.580828272347176 -19.434498901155692 10.482054994224475 #
coedge $-1 $227 $381 $231 $312 forward $305 $-1 #
straight-curve $-1 59.260979779768206 -13.329549295552951 10.482054994224484 0 1 0 I I #
point $-1 59.260979779768221 -19.434498901155692 10.48205499422447 #
coedge $-1 $382 $231 $371 $383 forward $138 $-1 #
edge $-1 $384 -56.597723083737591 $233 59.260979779768221 $231 $385 forward 7 unknown #
coedge $-1 $232 $386 $387 $388 reversed $138 $-1 #
point $-1 59.260979779768221 -33.883698281056112 10.48205499422447 #
coedge $-1 $387 $389 $235 $316 forward $390 $-1 #
edge $-1 $391 -33.883698281056112 $317 33.883698281056112 $235 $392 forward 7 unknown #
vertex $-1 $236 $393 #
straight-curve $-1 64.580828272347176 -33.883698281056112 0 0 0 -1 I I #
face $-1 $394 $395 $18 $-1 $396 forward single #
loop $-1 $-1 $397 $239 #
plane-surface $-1 0 -33.883698281056112 0 0 1 0 0 0 1 forward_v I I I I #
coedge $-1 $328 $398 $242 $325 forward $240 $-1 #
coedge $-1 $324 $242 $399 $400 reversed $153 $-1 #
coedge $-1 $242 $323 $326 $401 forward $153 $-1 #
edge $-1 $402 81.671388920354161 $403 88.731066514955941 $322 $404 forward 7 unknown #
coedge $-1 $405 $243 $324 $401 reversed $155 $-1 #
coedge $-1 $243 $405 $397 $406 reversed $155 $-1 #
coedge $-1 $407 $322 $243 $329 forward $240 $-1 #
edge $-1 $403 6.1049496056027408 $408 20.554148985503161 $328 $409 forward 7 unknown #
vertex $-1 $244 $410 #
point $-1 56.815881350951223 -29.755355601084563 0.60103450308056017 #
face $-1 $411 $412 $19 $-1 $413 reversed single #
loop $-1 $-1 $414 $248 #
plane-surface $-1 90.002490873498274 -19.434498901155692 184.30688782915726 0 -1 0 -0.79863551827123203 0 -0.60181501223851219 forward_v I I I I #
coedge $-1 $335 $335 $-1 $415 forward $250 $-1 #
edge $-1 $416 0 $416 6.2831853071796004 $251 $417 forward 7 unknown #
vertex $-1 $254 $418 #
ellipse-curve $-1 61.920904026057698 -29.755355601084563 6.9522161969235832 -0.79863551827123203 0 -0.60181501223851219 1.2036300244770244 0 -1.5972710365424641 1 I I #
vertex $-1 $255 $419 #
point $-1 56.815881350951223 -23.562841581127241 0.60103450308056017 #
loop $-1 $-1 $420 $160 #
straight-curve $-1 -64.580828272347176 33.883698281056112 0 0 0 -1 I I #
point $-1 -64.580828272347176 -33.883698281056112 -10.482054994224475 #
straight-curve $-1 -64.580828272347176 0 -10.482054994224475 0 1 0 I I #
point $-1 -64.580828272347176 33.883698281056112 -10.482054994224475 #
face $-1 $-1 $421 $16 $-1 $422 reversed single #
plane-surface $-1 0 33.883698281056112 0 0 -1 0 0 0 -1 forward_v I I I I #
coedge $-1 $423 $279 $294 $366 forward $198 $-1 #
coedge $-1 $279 $423 $291 $363 forward $198 $-1 #
coedge $-1 $424 $360 $279 $351 reversed $421 $-1 #
edge $-1 $425 -33.883698281056112 $426 33.883698281056112 $350 $427 forward 7 unknown #
coedge $-1 $360 $424 $280 $353 reversed $421 $-1 #
edge $-1 $354 -33.883698281056112 $357 33.883698281056112 $352 $428 forward 7 unknown #
vertex $-1 $353 $429 #
straight-curve $-1 0 -33.883698281056112 10.482054994224475 1 0 0 I I #
coedge $-1 $291 $282 $424 $430 forward $210 $-1 #
vertex $-1 $353 $431 #
straight-curve $-1 0 33.883698281056112 10.482054994224475 -1 0 0 I I #
point $-1 -56.597723083737591 33.883698281056112 10.482054994224477 #
coedge $-1 $350 $352 $286 $361 forward $421 $-1 #
edge $-1 $354 -10.482054994224475 $426 10.482054994224475 $360 $432 forward 7 unknown #
coedge $-1 $289 $288 $423 $433 reversed $277 $-1 #
edge $-1 $364 -64.580828272347176 $425 64.580828272347176 $291 $434 forward 7 unknown #
vertex $-1 $363 $435 #
straight-curve $-1 -64.580828272347176 33.883698281056112 0 0 0 -1 I I #
edge $-1 $426 -64.580828272347176 $367 64.580828272347176 $294 $436 forward 7 unknown #
vertex $-1 $433 $437 #
straight-curve $-1 -64.580828272347176 -33.883698281056112 0 0 0 -1 I I #
face $-1 $438 $390 $17 $-1 $439 reversed single #
plane-surface $-1 0 0 10.482054994224475 0 0 1 1 0 0 forward_v I I I I #
coedge $-1 $440 $374 $311 $383 reversed $299 $-1 #
coedge $-1 $441 $301 $442 $443 reversed $220 $-1 #
coedge $-1 $301 $441 $382 $444 reversed $220 $-1 #
coedge $-1 $371 $445 $301 $375 forward $299 $-1 #
edge $-1 $446 -33.883698281056112 $447 33.883698281056112 $374 $448 forward 7 unknown #
coedge $-1 $449 $450 $302 $377 forward $451 $-1 #
edge $-1 $379 -10.482054994224475 $391 10.482054994224475 $302 $452 forward 7 unknown #
coedge $-1 $381 $303 $450 $453 forward $305 $-1 #
vertex $-1 $304 $454 #
straight-curve $-1 64.580828272347176 0 10.482054994224475 0 1 0 I I #
coedge $-1 $308 $378 $440 $455 forward $305 $-1 #
coedge $-1 $386 $311 $373 $444 forward $138 $-1 #
edge $-1 $384 -6.4390566134829887 $447 -1.6469401479999872 $311 $456 forward 7 unknown #
vertex $-1 $312 $457 #
straight-curve $-1 0 -33.883698281056112 10.482054994224475 1 0 0 I I #
coedge $-1 $313 $382 $458 $459 forward $138 $-1 #
coedge $-1 $460 $315 $313 $388 forward $390 $-1 #
edge $-1 $317 -64.580828272347176 $461 64.580828272347176 $313 $462 forward 7 unknown #
coedge $-1 $315 $460 $449 $463 forward $390 $-1 #
loop $-1 $-1 $315 $369 #
vertex $-1 $316 $464 #
straight-curve $-1 64.580828272347176 0 -10.482054994224475 0 -1 0 I I #
point $-1 64.580828272347176 -33.883698281056112 -10.482054994224475 #
face $-1 $465 $466 $18 $-1 $467 forward single #
loop $-1 $-1 $468 $319 #
plane-surface $-1 -60.589275678042384 0 5.6899385287414752 0 0 1 1 0 0 forward_v I I I I #
coedge $-1 $469 $470 $327 $406 forward $320 $-1 #
coedge $-1 $322 $471 $472 $473 reversed $240 $-1 #
coedge $-1 $472 $474 $323 $400 forward $475 $-1 #
edge $-1 $476 14.259734343019083 $402 19.579582835598039 $399 $477 forward 7 unknown #
edge $-1 $476 120.3219825844333 $403 129.16165654469432 $324 $478 forward 7 unknown #
vertex $-1 $473 $479 #
vertex $-1 $329 $480 #
straight-curve $-1 64.580828272347176 -19.434498901155692 92.153443914578631 0 0 -1 I I #
coedge $-1 $327 $326 $474 $481 reversed $155 $-1 #
edge $-1 $408 -82.64706817676138 $482 -73.807394216500356 $397 $483 forward 7 unknown #
coedge $-1 $484 $328 $470 $485 forward $240 $-1 #
vertex $-1 $485 $486 #
straight-curve $-1 64.580828272347176 -13.329549295552951 3.4223773996226896 0 -1 0 I I #
point $-1 54.014980289931735 -29.755355601084563 0.99467551514600028 #
face $-1 $487 $488 $19 $-1 $489 reversed single #
loop $-1 $-1 $490 $332 #
plane-surface $-1 64.580828272347176 0 0 -1 0 0 0 0 1 forward_v I I I I #
coedge $-1 $491 $492 $490 $493 reversed $333 $-1 #
edge $-1 $494 1 $494 0 $335 $-1 forward 7 unknown #
vertex $-1 $336 $495 #
ellipse-curve $-1 55.612251326474201 -29.755355601084563 2.198305539623024 0.79863551827123203 0 0.60181501223851219 1.2036300244770244 0 -1.5972710365424641 1 I I #
point $-1 63.124534050534727 -29.755355601084563 5.3549451603811224 #
point $-1 54.014980289931735 -23.562841581127241 0.99467551514600028 #
coedge $-1 $496 $497 $498 $499 reversed $341 $-1 #
loop $-1 $-1 $360 $346 #
plane-surface $-1 64.580828272347176 0 0 -1 0 0 0 0 1 forward_v I I I I #
coedge $-1 $349 $348 $362 $433 forward $198 $-1 #
coedge $-1 $352 $350 $356 $430 reversed $421 $-1 #
vertex $-1 $351 $500 #
vertex $-1 $361 $501 #
straight-curve $-1 64.580828272347176 0 -10.482054994224475 0 -1 0 I I #
straight-curve $-1 64.580828272347176 0 10.482054994224475 0 1 0 I I #
point $-1 64.580828272347176 -33.883698281056112 10.482054994224475 #
edge $-1 $357 -10.482054994224475 $425 10.482054994224475 $424 $502 forward 7 unknown #
point $-1 64.580828272347176 33.883698281056112 10.482054994224475 #
straight-curve $-1 64.580828272347176 -33.883698281056112 0 0 0 -1 I I #
edge $-1 $367 -33.883698281056112 $364 33.883698281056112 $362 $503 forward 7 unknown #
straight-curve $-1 0 33.883698281056112 -10.482054994224475 1 0 0 I I #
point $-1 -64.580828272347176 33.883698281056112 -10.482054994224475 #
straight-curve $-1 0 -33.883698281056112 -10.482054994224475 -1 0 0 I I #
point $-1 -64.580828272347176 -33.883698281056112 -10.482054994224475 #
face $-1 $504 $505 $17 $-1 $506 reversed single #
plane-surface $-1 0 0 -10.482054994224475 0 0 1 1 0 0 forward_v I I I I #
coedge $-1 $445 $371 $381 $455 reversed $299 $-1 #
coedge $-1 $373 $372 $507 $508 reversed $220 $-1 #
coedge $-1 $509 $510 $372 $443 forward $451 $-1 #
edge $-1 $511 -34.286190433325984 $446 -26.303085244716399 $442 $512 forward 7 unknown #
edge $-1 $447 26.303085244716399 $513 34.286190433325984 $382 $514 forward 7 unknown #
coedge $-1 $374 $440 $509 $515 reversed $299 $-1 #
vertex $-1 $443 $516 #
vertex $-1 $444 $517 #
straight-curve $-1 -56.597723083737591 0 5.6899385287414752 0 -1 0 I I #
coedge $-1 $510 $376 $389 $463 reversed $451 $-1 #
coedge $-1 $376 $509 $378 $453 reversed $451 $-1 #
loop $-1 $-1 $509 $504 #
straight-curve $-1 64.580828272347176 33.883698281056112 0 0 0 -1 I I #
edge $-1 $379 -64.580828272347176 $518 56.597723083737591 $450 $519 forward 7 unknown #
point $-1 64.580828272347176 33.883698281056112 10.482054994224475 #
edge $-1 $518 -33.883698281056112 $384 33.883698281056112 $381 $520 forward 7 unknown #
straight-curve $-1 -56.597723083737591 -33.883698281056112 4.042998380741488 0 0 -1 I I #
point $-1 -56.597723083737591 -33.883698281056112 10.482054994224477 #
coedge $-1 $507 $521 $386 $459 reversed $505 $-1 #
edge $-1 $513 -5.6899385287414752 $461 10.482054994224475 $458 $522 forward 7 unknown #
coedge $-1 $389 $387 $521 $523 forward $390 $-1 #
vertex $-1 $523 $524 #
straight-curve $-1 0 -33.883698281056112 -10.482054994224475 -1 0 0 I I #
edge $-1 $525 -64.580828272347176 $391 64.580828272347176 $449 $526 forward 7 unknown #
point $-1 64.580828272347176 33.883698281056112 -10.482054994224475 #
face $-1 $527 $475 $18 $-1 $528 forward single #
loop $-1 $-1 $529 $394 #
plane-surface $-1 -56.597723083737591 0 8.085996761482976 -1 0 0 0 0 1 forward_v I I I I #
coedge $-1 $530 $531 $532 $533 reversed $395 $-1 #
coedge $-1 $534 $397 $535 $536 reversed $320 $-1 #
coedge $-1 $397 $537 $407 $485 reversed $320 $-1 #
coedge $-1 $398 $484 $538 $539 reversed $240 $-1 #
coedge $-1 $540 $399 $398 $473 forward $475 $-1 #
edge $-1 $402 -19.434498901155692 $541 33.883698281056112 $398 $542 forward 7 unknown #
coedge $-1 $399 $535 $405 $481 forward $475 $-1 #
loop $-1 $-1 $399 $465 #
vertex $-1 $481 $543 #
straight-curve $-1 45.001245436749137 -19.434498901155692 10.48205499422447 1 0 0 I I #
straight-curve $-1 -13.150595641844561 -19.434498901155692 106.57546391496552 0.60181501223851219 0 -0.79863551827123203 I I #
point $-1 64.580828272347176 -19.434498901155692 10.482054994224475 #
point $-1 64.580828272347176 -19.434498901155692 3.4223773996226896 #
edge $-1 $482 -20.554148985503161 $476 -6.1049496056027408 $474 $544 forward 7 unknown #
vertex $-1 $481 $545 #
straight-curve $-1 14.842581926072363 -33.883698281056112 69.427261526568373 -0.60181501223851219 0 0.79863551827123203 I I #
coedge $-1 $471 $407 $546 $547 reversed $240 $-1 #
edge $-1 $408 -3.4223773996227003 $548 10.482054994224475 $407 $549 forward 7 unknown #
point $-1 64.580828272347176 -33.883698281056112 3.4223773996227003 #
face $-1 $550 $551 $19 $-1 $552 forward single #
loop $-1 $-1 $553 $411 #
plane-surface $-1 0 -33.883698281056112 0 0 1 0 0 0 1 forward_v I I I I #
coedge $-1 $498 $554 $414 $493 forward $412 $-1 #
coedge $-1 $492 $414 $555 $556 reversed $333 $-1 #
coedge $-1 $414 $491 $496 $557 forward $333 $-1 #
edge $-1 $558 81.671388920354161 $559 88.731066514955941 $490 $560 forward 7 unknown #
vertex $-1 $415 $561 #
point $-1 56.815881350951223 -29.755355601084563 0.60103450308056017 #
coedge $-1 $562 $420 $492 $557 reversed $341 $-1 #
coedge $-1 $420 $562 $553 $563 reversed $341 $-1 #
coedge $-1 $564 $490 $420 $499 forward $412 $-1 #
edge $-1 $559 6.1049496056027408 $565 20.554148985503161 $498 $566 forward 7 unknown #
point $-1 64.580828272347176 33.883698281056112 -10.482054994224475 #
point $-1 64.580828272347176 -33.883698281056112 -10.482054994224475 #
straight-curve $-1 64.580828272347176 33.883698281056112 0 0 0 -1 I I #
straight-curve $-1 -64.580828272347176 0 -10.482054994224475 0 1 0 I I #
face $-1 $-1 $451 $17 $-1 $567 reversed single #
loop $-1 $-1 $507 $438 #
plane-surface $-1 -64.580828272347176 0 0 1 0 0 0 0 -1 forward_v I I I I #
coedge $-1 $568 $458 $441 $508 forward $505 $-1 #
edge $-1 $513 -33.883698281056112 $511 33.883698281056112 $507 $569 forward 7 unknown #
coedge $-1 $450 $442 $445 $515 forward $451 $-1 #
coedge $-1 $442 $449 $568 $570 reversed $451 $-1 #
vertex $-1 $570 $571 #
straight-curve $-1 -30.294637839021192 33.883698281056112 5.6899385287414752 1 0 0 I I #
vertex $-1 $459 $572 #
straight-curve $-1 -30.294637839021192 -33.883698281056112 5.6899385287414752 -1 0 0 I I #
edge $-1 $446 1.6469401479999872 $518 6.4390566134829887 $509 $573 forward 7 unknown #
point $-1 -56.597723083737591 33.883698281056112 5.6899385287414752 #
point $-1 -56.597723083737591 -33.883698281056112 5.6899385287414752 #
vertex $-1 $455 $574 #
straight-curve $-1 0 33.883698281056112 10.482054994224475 -1 0 0 I I #
straight-curve $-1 -56.597723083737591 0 10.482054994224475 0 -1 0 I I #
coedge $-1 $458 $568 $460 $523 reversed $505 $-1 #
straight-curve $-1 -64.580828272347176 -33.883698281056112 0 0 0 -1 I I #
edge $-1 $461 -33.883698281056112 $525 33.883698281056112 $521 $575 forward 7 unknown #
point $-1 -64.580828272347176 -33.883698281056112 -10.482054994224475 #
vertex $-1 $463 $576 #
straight-curve $-1 0 33.883698281056112 -10.482054994224475 1 0 0 I I #
face $-1 $577 $578 $18 $-1 $579 reversed single #
plane-surface $-1 0 0 10.482054994224475 0 0 1 1 0 0 forward_v I I I I #
coedge $-1 $580 $532 $534 $581 reversed $466 $-1 #
coedge $-1 $582 $468 $583 $584 reversed $395 $-1 #
coedge $-1 $468 $582 $585 $586 reversed $395 $-1 #
coedge $-1 $529 $587 $468 $533 forward $466 $-1 #
edge $-1 $588 -33.883698281056112 $589 33.883698281056112 $532 $590 forward 7 unknown #
coedge $-1 $585 $469 $529 $581 forward $320 $-1 #
coedge $-1 $474 $591 $469 $536 forward $475 $-1 #
edge $-1 $592 -56.597723083737591 $482 59.260979779768221 $469 $593 forward 7 unknown #
coedge $-1 $470 $594 $595 $596 reversed $320 $-1 #
coedge $-1 $597 $598 $471 $539 forward $599 $-1 #
edge $-1 $541 -10.482054994224475 $600 10.482054994224475 $471 $601 forward 7 unknown #
coedge $-1 $591 $472 $598 $602 forward $475 $-1 #
vertex $-1 $473 $603 #
straight-curve $-1 64.580828272347176 0 10.482054994224475 0 1 0 I I #
point $-1 59.260979779768221 -19.434498901155692 10.48205499422447 #
straight-curve $-1 59.260979779768206 -13.329549295552951 10.482054994224484 0 1 0 I I #
point $-1 59.260979779768221 -33.883698281056112 10.48205499422447 #
coedge $-1 $595 $604 $484 $547 forward $578 $-1 #
edge $-1 $600 -33.883698281056112 $548 33.883698281056112 $484 $605 forward 7 unknown #
vertex $-1 $485 $606 #
straight-curve $-1 64.580828272347176 -33.883698281056112 0 0 0 -1 I I #
face $-1 $607 $608 $19 $-1 $609 forward single #
loop $-1 $-1 $610 $487 #
plane-surface $-1 -60.589275678042384 0 5.6899385287414752 0 0 1 1 0 0 forward_v I I I I #
coedge $-1 $611 $612 $497 $563 forward $488 $-1 #
coedge $-1 $490 $613 $614 $615 reversed $412 $-1 #
coedge $-1 $614 $616 $491 $556 forward $617 $-1 #
edge $-1 $618 14.259734343019083 $558 19.579582835598039 $555 $619 forward 7 unknown #
edge $-1 $618 120.3219825844333 $559 129.16165654469432 $492 $620 forward 7 unknown #
vertex $-1 $615 $621 #
vertex $-1 $499 $622 #
straight-curve $-1 64.580828272347176 -19.434498901155692 92.153443914578631 0 0 -1 I I #
point $-1 54.014980289931735 -29.755355601084563 0.99467551514600028 #
coedge $-1 $497 $496 $616 $623 reversed $341 $-1 #
edge $-1 $565 -82.64706817676138 $624 -73.807394216500356 $553 $625 forward 7 unknown #
coedge $-1 $626 $498 $612 $627 forward $412 $-1 #
vertex $-1 $627 $628 #
straight-curve $-1 64.580828272347176 -13.329549295552951 3.4223773996226896 0 -1 0 I I #
plane-surface $-1 0 33.883698281056112 0 0 -1 0 0 0 -1 forward_v I I I I #
coedge $-1 $521 $507 $510 $570 forward $505 $-1 #
straight-curve $-1 -64.580828272347176 0 5.6899385287414752 0 1 0 I I #
edge $-1 $511 -5.6899385287414752 $525 10.482054994224475 $510 $629 forward 7 unknown #
point $-1 -64.580828272347176 33.883698281056112 5.6899385287414752 #
point $-1 -64.580828272347176 -33.883698281056112 5.6899385287414752 #
straight-curve $-1 -56.597723083737591 33.883698281056112 4.042998380741488 0 0 1 I I #
point $-1 -56.597723083737591 33.883698281056112 10.482054994224477 #
straight-curve $-1 -64.580828272347176 0 -10.482054994224475 0 1 0 I I #
point $-1 -64.580828272347176 33.883698281056112 -10.482054994224475 #
face $-1 $630 $631 $18 $-1 $632 reversed single #
loop $-1 $-1 $546 $527 #
plane-surface $-1 0 0 -10.482054994224475 0 0 1 1 0 0 forward_v I I I I #
coedge $-1 $587 $529 $591 $633 reversed $466 $-1 #
edge $-1 $592 -6.4390566134829887 $589 -1.6469401479999872 $534 $634 forward 7 unknown #
coedge $-1 $531 $530 $635 $636 reversed $395 $-1 #
coedge $-1 $637 $638 $530 $584 forward $599 $-1 #
edge $-1 $639 -34.286190433325984 $588 -26.303085244716399 $583 $640 forward 7 unknown #
coedge $-1 $594 $534 $531 $586 forward $320 $-1 #
edge $-1 $589 26.303085244716399 $641 34.286190433325984 $585 $642 forward 7 unknown #
coedge $-1 $532 $580 $637 $643 reversed $466 $-1 #
vertex $-1 $584 $644 #
vertex $-1 $586 $645 #
straight-curve $-1 -56.597723083737591 0 5.6899385287414752 0 -1 0 I I #
coedge $-1 $535 $540 $580 $633 forward $475 $-1 #
vertex $-1 $536 $646 #
straight-curve $-1 0 -33.883698281056112 10.482054994224475 1 0 0 I I #
coedge $-1 $537 $585 $647 $648 forward $320 $-1 #
coedge $-1 $649 $546 $537 $596 forward $578 $-1 #
edge $-1 $548 -64.580828272347176 $650 64.580828272347176 $537 $651 forward 7 unknown #
coedge $-1 $638 $538 $604 $652 reversed $599 $-1 #
coedge $-1 $538 $637 $540 $602 reversed $599 $-1 #
loop $-1 $-1 $637 $630 #
vertex $-1 $547 $653 #
straight-curve $-1 64.580828272347176 33.883698281056112 0 0 0 -1 I I #
edge $-1 $541 -64.580828272347176 $654 56.597723083737591 $598 $655 forward 7 unknown #
point $-1 64.580828272347176 33.883698281056112 10.482054994224475 #
coedge $-1 $546 $649 $597 $652 forward $578 $-1 #
straight-curve $-1 64.580828272347176 0 -10.482054994224475 0 -1 0 I I #
point $-1 64.580828272347176 -33.883698281056112 -10.482054994224475 #
face $-1 $656 $617 $19 $-1 $657 forward single #
loop $-1 $-1 $658 $550 #
plane-surface $-1 -56.597723083737591 0 8.085996761482976 -1 0 0 0 0 1 forward_v I I I I #
coedge $-1 $659 $660 $661 $662 reversed $551 $-1 #
coedge $-1 $663 $553 $664 $665 reversed $488 $-1 #
coedge $-1 $553 $666 $564 $627 reversed $488 $-1 #
coedge $-1 $554 $626 $667 $668 reversed $412 $-1 #
coedge $-1 $669 $555 $554 $615 forward $617 $-1 #
edge $-1 $558 -19.434498901155692 $670 33.883698281056112 $554 $671 forward 7 unknown #
coedge $-1 $555 $664 $562 $623 forward $617 $-1 #
loop $-1 $-1 $555 $607 #
vertex $-1 $623 $672 #
straight-curve $-1 45.001245436749137 -19.434498901155692 10.48205499422447 1 0 0 I I #
straight-curve $-1 -13.150595641844561 -19.434498901155692 106.57546391496552 0.60181501223851219 0 -0.79863551827123203 I I #
point $-1 64.580828272347176 -19.434498901155692 10.482054994224475 #
point $-1 64.580828272347176 -19.434498901155692 3.4223773996226896 #
edge $-1 $624 -20.554148985503161 $618 -6.1049496056027408 $616 $673 forward 7 unknown #
vertex $-1 $623 $674 #
straight-curve $-1 14.842581926072363 -33.883698281056112 69.427261526568373 -0.60181501223851219 0 0.79863551827123203 I I #
coedge $-1 $613 $564 $675 $676 reversed $412 $-1 #
edge $-1 $565 -3.4223773996227003 $677 10.482054994224475 $564 $678 forward 7 unknown #
point $-1 64.580828272347176 -33.883698281056112 3.4223773996227003 #
straight-curve $-1 -64.580828272347176 33.883698281056112 0 0 0 -1 I I #
face $-1 $-1 $599 $18 $-1 $679 reversed single #
loop $-1 $-1 $635 $577 #
plane-surface $-1 -64.580828272347176 0 0 1 0 0 0 0 -1 forward_v I I I I #
edge $-1 $654 -33.883698281056112 $592 33.883698281056112 $591 $680 forward 7 unknown #
straight-curve $-1 -56.597723083737591 -33.883698281056112 4.042998380741488 0 0 -1 I I #
coedge $-1 $681 $647 $582 $636 forward $631 $-1 #
edge $-1 $641 -33.883698281056112 $639 33.883698281056112 $635 $682 forward 7 unknown #
coedge $-1 $598 $583 $587 $643 forward $599 $-1 #
coedge $-1 $583 $597 $681 $683 reversed $599 $-1 #
vertex $-1 $683 $684 #
straight-curve $-1 -30.294637839021192 33.883698281056112 5.6899385287414752 1 0 0 I I #
vertex $-1 $648 $685 #
straight-curve $-1 -30.294637839021192 -33.883698281056112 5.6899385287414752 -1 0 0 I I #
edge $-1 $588 1.6469401479999872 $654 6.4390566134829887 $637 $686 forward 7 unknown #
point $-1 -56.597723083737591 33.883698281056112 5.6899385287414752 #
point $-1 -56.597723083737591 -33.883698281056112 5.6899385287414752 #
point $-1 -56.597723083737591 -33.883698281056112 10.482054994224477 #
coedge $-1 $635 $687 $594 $648 reversed $631 $-1 #
edge $-1 $641 -5.6899385287414752 $650 10.482054994224475 $647 $688 forward 7 unknown #
coedge $-1 $604 $595 $687 $689 forward $578 $-1 #
vertex $-1 $689 $690 #
straight-curve $-1 0 -33.883698281056112 -10.482054994224475 -1 0 0 I I #
edge $-1 $691 -64.580828272347176 $600 64.580828272347176 $597 $692 forward 7 unknown #
point $-1 64.580828272347176 33.883698281056112 -10.482054994224475 #
vertex $-1 $633 $693 #
straight-curve $-1 0 33.883698281056112 10.482054994224475 -1 0 0 I I #
face $-1 $694 $695 $19 $-1 $696 reversed single #
plane-surface $-1 0 0 10.482054994224475 0 0 1 1 0 0 forward_v I I I I #
coedge $-1 $697 $661 $663 $698 reversed $608 $-1 #
coedge $-1 $699 $610 $700 $701 reversed $551 $-1 #
coedge $-1 $610 $699 $702 $703 reversed $551 $-1 #
coedge $-1 $658 $704 $610 $662 forward $608 $-1 #
edge $-1 $705 -33.883698281056112 $706 33.883698281056112 $661 $707 forward 7 unknown #
coedge $-1 $702 $611 $658 $698 forward $488 $-1 #
coedge $-1 $616 $708 $611 $665 forward $617 $-1 #
edge $-1 $709 -56.597723083737591 $624 59.260979779768221 $611 $710 forward 7 unknown #
coedge $-1 $612 $711 $712 $713 reversed $488 $-1 #
coedge $-1 $714 $715 $613 $668 forward $716 $-1 #
edge $-1 $670 -10.482054994224475 $717 10.482054994224475 $613 $718 forward 7 unknown #
coedge $-1 $708 $614 $715 $719 forward $617 $-1 #
vertex $-1 $615 $720 #
straight-curve $-1 64.580828272347176 0 10.482054994224475 0 1 0 I I #
point $-1 59.260979779768221 -19.434498901155692 10.48205499422447 #
straight-curve $-1 59.260979779768206 -13.329549295552951 10.482054994224484 0 1 0 I I #
point $-1 59.260979779768221 -33.883698281056112 10.48205499422447 #
coedge $-1 $712 $721 $626 $676 forward $695 $-1 #
edge $-1 $717 -33.883698281056112 $677 33.883698281056112 $626 $722 forward 7 unknown #
vertex $-1 $627 $723 #
straight-curve $-1 64.580828272347176 -33.883698281056112 0 0 0 -1 I I #
plane-surface $-1 0 33.883698281056112 0 0 -1 0 0 0 -1 forward_v I I I I #
straight-curve $-1 -56.597723083737591 0 10.482054994224475 0 -1 0 I I #
coedge $-1 $687 $635 $638 $683 forward $631 $-1 #
straight-curve $-1 -64.580828272347176 0 5.6899385287414752 0 1 0 I I #
edge $-1 $639 -5.6899385287414752 $691 10.482054994224475 $638 $724 forward 7 unknown #
point $-1 -64.580828272347176 33.883698281056112 5.6899385287414752 #
point $-1 -64.580828272347176 -33.883698281056112 5.6899385287414752 #
straight-curve $-1 -56.597723083737591 33.883698281056112 4.042998380741488 0 0 1 I I #
coedge $-1 $647 $681 $649 $689 reversed $631 $-1 #
straight-curve $-1 -64.580828272347176 -33.883698281056112 0 0 0 -1 I I #
edge $-1 $650 -33.883698281056112 $691 33.883698281056112 $687 $725 forward 7 unknown #
point $-1 -64.580828272347176 -33.883698281056112 -10.482054994224475 #
vertex $-1 $652 $726 #
straight-curve $-1 0 33.883698281056112 -10.482054994224475 1 0 0 I I #
point $-1 -56.597723083737591 33.883698281056112 10.482054994224477 #
face $-1 $727 $728 $19 $-1 $729 reversed single #
loop $-1 $-1 $675 $656 #
plane-surface $-1 0 0 -10.482054994224475 0 0 1 1 0 0 forward_v I I I I #
coedge $-1 $704 $658 $708 $730 reversed $608 $-1 #
edge $-1 $709 -6.4390566134829887 $706 -1.6469401479999872 $663 $731 forward 7 unknown #
coedge $-1 $660 $659 $732 $733 reversed $551 $-1 #
coedge $-1 $734 $735 $659 $701 forward $716 $-1 #
edge $-1 $736 -34.286190433325984 $705 -26.303085244716399 $700 $737 forward 7 unknown #
coedge $-1 $711 $663 $660 $703 forward $488 $-1 #
edge $-1 $706 26.303085244716399 $738 34.286190433325984 $702 $739 forward 7 unknown #
coedge $-1 $661 $697 $734 $740 reversed $608 $-1 #
vertex $-1 $701 $741 #
vertex $-1 $703 $742 #
straight-curve $-1 -56.597723083737591 0 5.6899385287414752 0 -1 0 I I #
coedge $-1 $664 $669 $697 $730 forward $617 $-1 #
vertex $-1 $665 $743 #
straight-curve $-1 0 -33.883698281056112 10.482054994224475 1 0 0 I I #
coedge $-1 $666 $702 $744 $745 forward $488 $-1 #
coedge $-1 $746 $675 $666 $713 forward $695 $-1 #
edge $-1 $677 -64.580828272347176 $747 64.580828272347176 $666 $748 forward 7 unknown #
coedge $-1 $735 $667 $721 $749 reversed $716 $-1 #
coedge $-1 $667 $734 $669 $719 reversed $716 $-1 #
loop $-1 $-1 $734 $727 #
vertex $-1 $676 $750 #
straight-curve $-1 64.580828272347176 33.883698281056112 0 0 0 -1 I I #
edge $-1 $670 -64.580828272347176 $751 56.597723083737591 $715 $752 forward 7 unknown #
point $-1 64.580828272347176 33.883698281056112 10.482054994224475 #
coedge $-1 $675 $746 $714 $749 forward $695 $-1 #
straight-curve $-1 64.580828272347176 0 -10.482054994224475 0 -1 0 I I #
point $-1 64.580828272347176 -33.883698281056112 -10.482054994224475 #
straight-curve $-1 -64.580828272347176 33.883698281056112 0 0 0 -1 I I #
straight-curve $-1 -64.580828272347176 0 -10.482054994224475 0 1 0 I I #
point $-1 -64.580828272347176 33.883698281056112 -10.482054994224475 #
face $-1 $-1 $716 $19 $-1 $753 reversed single #
loop $-1 $-1 $732 $694 #
plane-surface $-1 -64.580828272347176 0 0 1 0 0 0 0 -1 forward_v I I I I #
edge $-1 $751 -33.883698281056112 $709 33.883698281056112 $708 $754 forward 7 unknown #
straight-curve $-1 -56.597723083737591 -33.883698281056112 4.042998380741488 0 0 -1 I I #
coedge $-1 $755 $744 $699 $733 forward $728 $-1 #
edge $-1 $738 -33.883698281056112 $736 33.883698281056112 $732 $756 forward 7 unknown #
coedge $-1 $715 $700 $704 $740 forward $716 $-1 #
coedge $-1 $700 $714 $755 $757 reversed $716 $-1 #
vertex $-1 $757 $758 #
straight-curve $-1 -30.294637839021192 33.883698281056112 5.6899385287414752 1 0 0 I I #
vertex $-1 $745 $759 #
straight-curve $-1 -30.294637839021192 -33.883698281056112 5.6899385287414752 -1 0 0 I I #
edge $-1 $705 1.6469401479999872 $751 6.4390566134829887 $734 $760 forward 7 unknown #
point $-1 -56.597723083737591 33.883698281056112 5.6899385287414752 #
point $-1 -56.597723083737591 -33.883698281056112 5.6899385287414752 #
point $-1 -56.597723083737591 -33.883698281056112 10.482054994224477 #
coedge $-1 $732 $761 $711 $745 reversed $728 $-1 #
edge $-1 $738 -5.6899385287414752 $747 10.482054994224475 $744 $762 forward 7 unknown #
coedge $-1 $721 $712 $761 $763 forward $695 $-1 #
vertex $-1 $763 $764 #
straight-curve $-1 0 -33.883698281056112 -10.482054994224475 -1 0 0 I I #
edge $-1 $765 -64.580828272347176 $717 64.580828272347176 $714 $766 forward 7 unknown #
point $-1 64.580828272347176 33.883698281056112 -10.482054994224475 #
vertex $-1 $730 $767 #
straight-curve $-1 0 33.883698281056112 10.482054994224475 -1 0 0 I I #
plane-surface $-1 0 33.883698281056112 0 0 -1 0 0 0 -1 forward_v I I I I #
straight-curve $-1 -56.597723083737591 0 10.482054994224475 0 -1 0 I I #
coedge $-1 $761 $732 $735 $757 forward $728 $-1 #
straight-curve $-1 -64.580828272347176 0 5.6899385287414752 0 1 0 I I #
edge $-1 $736 -5.6899385287414752 $765 10.482054994224475 $735 $768 forward 7 unknown #
point $-1 -64.580828272347176 33.883698281056112 5.6899385287414752 #
point $-1 -64.580828272347176 -33.883698281056112 5.6899385287414752 #
straight-curve $-1 -56.597723083737591 33.883698281056112 4.042998380741488 0 0 1 I I #
coedge $-1 $744 $755 $746 $763 reversed $728 $-1 #
straight-curve $-1 -64.580828272347176 -33.883698281056112 0 0 0 -1 I I #
edge $-1 $747 -33.883698281056112 $765 33.883698281056112 $761 $769 forward 7 unknown #
point $-1 -64.580828272347176 -33.883698281056112 -10.482054994224475 #
vertex $-1 $749 $770 #
straight-curve $-1 0 33.883698281056112 -10.482054994224475 1 0 0 I I #
point $-1 -56.597723083737591 33.883698281056112 10.482054994224477 #
straight-curve $-1 -64.580828272347176 33.883698281056112 0 0 0 -1 I I #
straight-curve $-1 -64.580828272347176 0 -10.482054994224475 0 1 0 I I #
point $-1 -64.580828272347176 33.883698281056112 -10.482054994224475 #
End-of-ACIS-data 