500 0 5 0           
7 Unknown 11 ACIS 5.0 NT 24 Thu Mar 25 15:37:42 1999 
-1 9.9999999999999995e-007 1e-010 
body $-1 $5 $-1 $6 #
body $-1 $7 $-1 $8 #
body $-1 $9 $-1 $10 #
body $-1 $11 $-1 $12 #
body $-1 $13 $-1 $14 #
lump $-1 $-1 $15 $0 #
transform $-1 1 0 0 0 1 0 0 0 1 45.842463454084907 18.796151509312136 7.0297847569649123 1 rotate no_reflect no_shear #
lump $-1 $-1 $16 $1 #
transform $-1 1 0 0 0 1 0 0 0 1 45.842463454084907 18.796151509312136 7.0297847569649123 1 rotate no_reflect no_shear #
lump $-1 $-1 $17 $2 #
transform $-1 1 0 0 0 1 0 0 0 1 45.842463454084907 18.796151509312136 7.0297847569649123 1 rotate no_reflect no_shear #
lump $-1 $-1 $18 $3 #
transform $-1 1 0 0 0 1 0 0 0 1 45.842463454084907 18.796151509312136 7.0297847569649123 1 rotate no_reflect no_shear #
lump $-1 $-1 $19 $4 #
transform $-1 1 0 0 0 1 0 0 0 1 45.842463454084907 18.796151509312136 7.0297847569649123 1 rotate no_reflect no_shear #
shell $-1 $-1 $-1 $20 $-1 $5 #
shell $-1 $-1 $-1 $21 $-1 $7 #
shell $-1 $-1 $-1 $22 $-1 $9 #
shell $-1 $-1 $-1 $23 $-1 $11 #
shell $-1 $-1 $-1 $24 $-1 $13 #
face $-1 $25 $26 $15 $-1 $27 reversed single #
face $-1 $28 $29 $16 $-1 $30 forward single #
face $-1 $31 $32 $17 $-1 $33 reversed single #
face $-1 $34 $35 $18 $-1 $36 forward single #
face $-1 $37 $38 $19 $-1 $39 forward single #
face $-1 $40 $41 $15 $-1 $42 forward single #
loop $-1 $-1 $43 $20 #
plane-surface $-1 0 -18.796151509312136 0 0 1 0 0 0 1 forward_v I I I I #
face $-1 $44 $45 $16 $-1 $46 reversed single #
loop $-1 $-1 $47 $21 #
plane-surface $-1 0 -18.796151509312136 0 0 1 0 0 0 1 forward_v I I I I #
face $-1 $48 $49 $17 $-1 $50 reversed single #
loop $-1 $-1 $51 $22 #
plane-surface $-1 18.565309306183252 70.874615365757094 87.520972101249157 1 0 0 0 -0.80901700255871778 -0.5877852410284794 forward_v I I I I #
face $-1 $52 $53 $18 $-1 $54 forward single #
loop $-1 $55 $56 $23 #
cone-surface $-1 26.358781919869443 16.652393950246339 4.5722039807627199 0 -0.80901700255871778 -0.5877852410284794 0.5 0 0 1 I I 0 1 0.5 forward I I I I #
face $-1 $57 $58 $19 $-1 $59 forward single #
loop $-1 $60 $61 $24 #
cone-surface $-1 38.048990840398716 16.652393950246339 4.5722039807627199 0 -0.80901700255871778 -0.5877852410284794 0.5 0 0 1 I I 0 1 0.5 forward I I I I #
face $-1 $62 $63 $15 $-1 $64 reversed single #
loop $-1 $-1 $65 $25 #
plane-surface $-1 0 0 7.0297847569649123 0 0 1 1 0 0 forward_v I I I I #
coedge $-1 $66 $67 $68 $69 reversed $26 $-1 #
face $-1 $70 $71 $16 $-1 $72 reversed single #
loop $-1 $-1 $73 $28 #
plane-surface $-1 0 0 -7.0297847569649123 0 0 1 1 0 0 forward_v I I I I #
coedge $-1 $74 $75 $76 $77 forward $29 $-1 #
face $-1 $78 $79 $17 $-1 $80 forward single #
loop $-1 $-1 $81 $31 #
plane-surface $-1 32.20388638013408 -3.3000493813055698 33.629925239852049 0 0.80901700255871778 0.5877852410284794 1 0 0 forward_v I I I I #
coedge $-1 $82 $83 $84 $85 reversed $32 $-1 #
face $-1 $-1 $86 $18 $-1 $87 forward single #
loop $-1 $88 $89 $34 #
cone-surface $-1 26.358781919869443 15.691416212908781 3.8740128065630612 0 -0.80901700255871778 -0.5877852410284794 0.25 0 0 1 I I -0.70710678118654746 0.70710678118654746 0.25 forward I I I I #
loop $-1 $-1 $90 $23 #
coedge $-1 $56 $56 $91 $92 reversed $35 $-1 #
face $-1 $-1 $93 $19 $-1 $94 forward single #
loop $-1 $95 $96 $37 #
cone-surface $-1 38.048990840398716 15.691416212908781 3.8740128065630612 0 -0.80901700255871778 -0.5877852410284794 0.25 0 0 1 I I -0.70710678118654746 0.70710678118654746 0.25 forward I I I I #
loop $-1 $-1 $97 $24 #
coedge $-1 $61 $61 $98 $99 reversed $38 $-1 #
face $-1 $100 $101 $15 $-1 $102 reversed single #
loop $-1 $-1 $103 $40 #
plane-surface $-1 0 0 -7.0297847569649123 0 0 1 1 0 0 forward_v I I I I #
coedge $-1 $104 $105 $106 $107 forward $41 $-1 #
coedge $-1 $108 $43 $109 $110 reversed $26 $-1 #
coedge $-1 $43 $108 $111 $112 forward $26 $-1 #
coedge $-1 $113 $103 $43 $69 forward $63 $-1 #
edge $-1 $114 -45.842463454084907 $115 45.842463454084907 $43 $116 forward 7 unknown #
face $-1 $117 $118 $16 $-1 $119 reversed single #
loop $-1 $-1 $120 $44 #
plane-surface $-1 -33.761132480927742 -24.062227696681934 0 0 1 0 0 0 1 forward_v I I I I #
coedge $-1 $121 $122 $75 $123 forward $45 $-1 #
coedge $-1 $124 $47 $125 $126 reversed $29 $-1 #
coedge $-1 $47 $124 $73 $123 reversed $29 $-1 #
coedge $-1 $127 $128 $47 $77 reversed $118 $-1 #
edge $-1 $129 -7.0297847569649123 $130 7.0297847569649123 $76 $131 forward 7 unknown #
face $-1 $132 $133 $17 $-1 $134 reversed single #
loop $-1 $-1 $84 $48 #
plane-surface $-1 0 0 7.0297847569649123 0 0 1 1 0 0 forward_v I I I I #
coedge $-1 $135 $136 $137 $138 reversed $49 $-1 #
coedge $-1 $83 $51 $139 $140 reversed $32 $-1 #
coedge $-1 $51 $82 $135 $141 reversed $32 $-1 #
coedge $-1 $137 $142 $51 $85 forward $79 $-1 #
edge $-1 $143 16.641156173566412 $144 19.411224318302249 $84 $145 forward 7 unknown #
loop $-1 $-1 $91 $52 #
plane-surface $-1 32.20388638013408 -3.3000493813055698 33.629925239852049 0 0.80901700255871778 0.5877852410284794 1 0 0 forward_v I I I I #
loop $-1 $-1 $146 $34 #
coedge $-1 $89 $89 $90 $147 reversed $53 $-1 #
coedge $-1 $90 $90 $89 $147 forward $55 $-1 #
coedge $-1 $91 $91 $56 $92 forward $86 $-1 #
edge $-1 $148 -1.3484332506094829e-016 $148 6.2831853071796004 $91 $149 forward 7 unknown #
loop $-1 $-1 $98 $57 #
plane-surface $-1 32.20388638013408 -3.3000493813055698 33.629925239852049 0 0.80901700255871778 0.5877852410284794 1 0 0 forward_v I I I I #
loop $-1 $-1 $150 $37 #
coedge $-1 $96 $96 $97 $151 reversed $58 $-1 #
coedge $-1 $97 $97 $96 $151 forward $60 $-1 #
coedge $-1 $98 $98 $61 $99 forward $93 $-1 #
edge $-1 $152 -1.3484332506094829e-016 $152 6.2831853071796004 $98 $153 forward 7 unknown #
face $-1 $154 $155 $15 $-1 $156 reversed single #
loop $-1 $-1 $157 $62 #
plane-surface $-1 -45.842463454084907 0 0 1 0 0 0 0 -1 forward_v I I I I #
coedge $-1 $68 $158 $159 $160 forward $63 $-1 #
coedge $-1 $161 $65 $162 $163 forward $41 $-1 #
coedge $-1 $65 $161 $108 $164 forward $41 $-1 #
coedge $-1 $109 $165 $65 $107 reversed $166 $-1 #
edge $-1 $167 -18.796151509312136 $168 18.796151509312136 $106 $169 forward 7 unknown #
coedge $-1 $67 $66 $105 $164 reversed $26 $-1 #
coedge $-1 $159 $106 $66 $110 forward $166 $-1 #
edge $-1 $167 -7.0297847569649123 $114 7.0297847569649123 $109 $170 forward 7 unknown #
coedge $-1 $171 $172 $67 $112 reversed $101 $-1 #
edge $-1 $173 -7.0297847569649123 $115 7.0297847569649123 $111 $174 forward 7 unknown #
coedge $-1 $158 $68 $172 $175 forward $63 $-1 #
vertex $-1 $110 $176 #
vertex $-1 $175 $177 #
straight-curve $-1 0 -18.796151509312136 -7.0297847569649123 -1 0 0 I I #
face $-1 $178 $179 $16 $-1 $180 reversed single #
loop $-1 $-1 $76 $70 #
plane-surface $-1 -35.7393710217004 -21.429189602997035 0 1 0 0 0 0 -1 forward_v I I I I #
coedge $-1 $181 $182 $183 $184 forward $71 $-1 #
coedge $-1 $185 $73 $186 $187 forward $45 $-1 #
coedge $-1 $73 $185 $127 $188 forward $45 $-1 #
edge $-1 $129 -35.7393710217004 $189 -31.782893940155084 $73 $190 forward 7 unknown #
coedge $-1 $75 $74 $191 $192 forward $29 $-1 #
coedge $-1 $193 $194 $74 $126 forward $195 $-1 #
edge $-1 $196 31.782893940155084 $130 35.7393710217004 $125 $197 forward 7 unknown #
coedge $-1 $183 $76 $122 $188 reversed $118 $-1 #
coedge $-1 $76 $183 $193 $198 reversed $118 $-1 #
vertex $-1 $123 $199 #
vertex $-1 $198 $200 #
straight-curve $-1 -35.7393710217004 -18.796151509312136 0 0 0 1 I I #
face $-1 $-1 $201 $17 $-1 $202 reversed single #
loop $-1 $-1 $203 $78 #
plane-surface $-1 45.842463454084907 0 0 -1 0 0 0 0 1 forward_v I I I I #
coedge $-1 $204 $81 $83 $141 forward $49 $-1 #
coedge $-1 $81 $204 $203 $205 reversed $49 $-1 #
coedge $-1 $206 $84 $81 $138 forward $79 $-1 #
edge $-1 $144 2.4633661161162124 $207 29.740520264017867 $137 $208 forward 7 unknown #
coedge $-1 $209 $210 $82 $140 forward $201 $-1 #
edge $-1 $211 -40.543373118178977 $143 -36.730701293659664 $139 $212 forward 7 unknown #
edge $-1 $144 32.87958151529272 $211 37.592303018624278 $83 $213 forward 7 unknown #
coedge $-1 $84 $206 $209 $214 forward $79 $-1 #
vertex $-1 $140 $215 #
vertex $-1 $85 $216 #
straight-curve $-1 18.565309306183252 35.437307682878547 7.029784756964915 0 -1 0 I I #
coedge $-1 $146 $146 $-1 $217 reversed $88 $-1 #
edge $-1 $218 0 $218 6.2831853071796004 $89 $219 forward 7 unknown #
vertex $-1 $92 $220 #
ellipse-curve $-1 26.358781919869443 17.411117436944213 5.1234488447052557 0 0.80901700255871778 0.5877852410284794 0.5 0 0 1 I I #
coedge $-1 $150 $150 $-1 $221 reversed $95 $-1 #
edge $-1 $222 0 $222 6.2831853071796004 $96 $223 forward 7 unknown #
vertex $-1 $99 $224 #
ellipse-curve $-1 38.048990840398716 17.411117436944213 5.1234488447052557 0 0.80901700255871778 0.5877852410284794 0.5 0 0 1 I I #
face $-1 $-1 $166 $15 $-1 $225 reversed single #
loop $-1 $-1 $226 $100 #
plane-surface $-1 0 18.796151509312136 0 0 -1 0 0 0 -1 forward_v I I I I #
coedge $-1 $172 $171 $227 $228 forward $101 $-1 #
coedge $-1 $103 $113 $229 $230 forward $63 $-1 #
coedge $-1 $165 $109 $103 $160 reversed $166 $-1 #
edge $-1 $231 -18.796151509312136 $114 18.796151509312136 $159 $232 forward 7 unknown #
coedge $-1 $105 $104 $171 $233 forward $41 $-1 #
coedge $-1 $226 $227 $104 $163 reversed $155 $-1 #
edge $-1 $168 -45.842463454084907 $234 45.842463454084907 $162 $235 forward 7 unknown #
edge $-1 $173 -45.842463454084907 $167 45.842463454084907 $108 $236 forward 7 unknown #
coedge $-1 $106 $159 $226 $237 reversed $166 $-1 #
loop $-1 $-1 $109 $154 #
vertex $-1 $107 $238 #
vertex $-1 $107 $239 #
straight-curve $-1 45.842463454084907 0 7.0297847569649123 0 1 0 I I #
straight-curve $-1 45.842463454084907 -18.796151509312136 0 0 0 -1 I I #
coedge $-1 $157 $111 $161 $233 reversed $101 $-1 #
coedge $-1 $111 $157 $113 $175 reversed $101 $-1 #
vertex $-1 $233 $240 #
straight-curve $-1 -45.842463454084907 -18.796151509312136 0 0 0 -1 I I #
edge $-1 $115 -18.796151509312136 $241 18.796151509312136 $172 $242 forward 7 unknown #
point $-1 45.842463454084907 -18.796151509312136 -7.0297847569649123 #
point $-1 -45.842463454084907 -18.796151509312136 -7.0297847569649123 #
face $-1 $-1 $195 $16 $-1 $243 forward single #
loop $-1 $-1 $244 $117 #
plane-surface $-1 -31.782893940155084 -21.429189602997035 0 -1 0 0 0 0 1 forward_v I I I I #
coedge $-1 $245 $120 $185 $246 reversed $71 $-1 #
coedge $-1 $120 $245 $247 $248 reversed $71 $-1 #
coedge $-1 $128 $127 $120 $184 reversed $118 $-1 #
edge $-1 $249 -7.0297847569649123 $250 7.0297847569649123 $183 $251 forward 7 unknown #
coedge $-1 $122 $121 $181 $246 forward $45 $-1 #
coedge $-1 $191 $244 $121 $187 reversed $179 $-1 #
edge $-1 $189 -2.6330380936848989 $252 2.6330380936848989 $186 $253 forward 7 unknown #
edge $-1 $250 -2.6330380936848989 $129 2.6330380936848989 $127 $254 forward 7 unknown #
vertex $-1 $187 $255 #
straight-curve $-1 0 -18.796151509312136 -7.0297847569649123 1 0 0 I I #
coedge $-1 $256 $186 $124 $192 reversed $179 $-1 #
edge $-1 $196 -7.0297847569649123 $189 7.0297847569649123 $191 $257 forward 7 unknown #
coedge $-1 $247 $125 $128 $198 forward $195 $-1 #
coedge $-1 $125 $247 $256 $258 forward $195 $-1 #
loop $-1 $-1 $125 $178 #
vertex $-1 $126 $259 #
straight-curve $-1 0 -18.796151509312136 7.0297847569649123 -1 0 0 I I #
edge $-1 $130 -2.6330380936848989 $249 2.6330380936848989 $128 $260 forward 7 unknown #
point $-1 -35.7393710217004 -18.796151509312136 -7.0297847569649123 #
point $-1 -35.7393710217004 -18.796151509312136 7.0297847569649123 #
loop $-1 $-1 $139 $132 #
plane-surface $-1 0 18.796151509312136 0 0 -1 0 0 0 -1 forward_v I I I I #
coedge $-1 $261 $262 $136 $205 forward $133 $-1 #
coedge $-1 $136 $135 $210 $263 reversed $49 $-1 #
edge $-1 $207 18.306130697884996 $264 23.018852201216554 $203 $265 forward 7 unknown #
coedge $-1 $142 $137 $262 $266 forward $79 $-1 #
vertex $-1 $266 $267 #
straight-curve $-1 16.10194319006704 16.026083364576294 7.0297847569649115 1 0 0 I I #
coedge $-1 $268 $139 $142 $214 reversed $201 $-1 #
coedge $-1 $139 $268 $204 $263 forward $201 $-1 #
vertex $-1 $140 $269 #
straight-curve $-1 18.565309306183252 18.796151509312136 43.760486050624579 0 0 1 I I #
straight-curve $-1 18.565309306183252 -3.3000493813055698 33.629925239852049 0 0.5877852410284794 -0.80901700255871778 I I #
edge $-1 $270 -45.842463454084907 $143 -18.565309306183252 $209 $271 forward 7 unknown #
point $-1 18.565309306183252 18.796151509312136 7.0297847569649123 #
point $-1 18.565309306183252 16.026083364576298 7.0297847569649079 #
edge $-1 $272 1 $272 0 $146 $-1 forward 7 unknown #
vertex $-1 $147 $273 #
ellipse-curve $-1 26.358781919869443 15.89367046354846 4.0209591168201815 0 0.80901700255871778 0.5877852410284794 0.5 0 0 1 I I #
point $-1 26.858781919869443 17.411117436944217 5.1234488447052584 #
edge $-1 $274 1 $274 0 $150 $-1 forward 7 unknown #
vertex $-1 $151 $275 #
ellipse-curve $-1 38.048990840398716 15.89367046354846 4.0209591168201815 0 0.80901700255871778 0.5877852410284794 0.5 0 0 1 I I #
point $-1 38.548990840398716 17.411117436944217 5.1234488447052584 #
plane-surface $-1 45.842463454084907 0 0 -1 0 0 0 0 1 forward_v I I I I #
coedge $-1 $229 $162 $165 $237 forward $155 $-1 #
coedge $-1 $162 $229 $157 $228 reversed $155 $-1 #
edge $-1 $234 -7.0297847569649123 $241 7.0297847569649123 $227 $276 forward 7 unknown #
coedge $-1 $227 $226 $158 $230 reversed $155 $-1 #
edge $-1 $241 -45.842463454084907 $231 45.842463454084907 $229 $277 forward 7 unknown #
vertex $-1 $160 $278 #
straight-curve $-1 45.842463454084907 0 -7.0297847569649123 0 -1 0 I I #
edge $-1 $234 -18.796151509312136 $173 18.796151509312136 $171 $279 forward 7 unknown #
vertex $-1 $163 $280 #
straight-curve $-1 0 18.796151509312136 7.0297847569649123 -1 0 0 I I #
straight-curve $-1 0 -18.796151509312136 7.0297847569649123 1 0 0 I I #
edge $-1 $168 -7.0297847569649123 $231 7.0297847569649123 $165 $281 forward 7 unknown #
point $-1 45.842463454084907 -18.796151509312136 7.0297847569649123 #
point $-1 45.842463454084907 18.796151509312136 7.0297847569649123 #
point $-1 -45.842463454084907 -18.796151509312136 7.0297847569649123 #
vertex $-1 $230 $282 #
straight-curve $-1 -45.842463454084907 0 -7.0297847569649123 0 1 0 I I #
plane-surface $-1 0 0 7.0297847569649123 0 0 1 1 0 0 forward_v I I I I #
coedge $-1 $186 $256 $245 $283 forward $179 $-1 #
coedge $-1 $182 $181 $244 $283 reversed $71 $-1 #
edge $-1 $252 -1.9782385407726579 $250 1.9782385407726579 $181 $284 forward 7 unknown #
coedge $-1 $194 $193 $182 $248 forward $195 $-1 #
edge $-1 $249 -1.9782385407726579 $285 1.9782385407726579 $182 $286 forward 7 unknown #
vertex $-1 $198 $287 #
vertex $-1 $188 $288 #
straight-curve $-1 -35.7393710217004 -24.062227696681934 0 0 0 -1 I I #
vertex $-1 $283 $289 #
straight-curve $-1 -31.782893940155084 -21.429189602997035 -7.0297847569649123 0 -1 0 I I #
straight-curve $-1 -35.7393710217004 -21.429189602997035 -7.0297847569649123 0 1 0 I I #
point $-1 -31.782893940155084 -18.796151509312136 -7.0297847569649123 #
coedge $-1 $244 $191 $194 $258 reversed $179 $-1 #
straight-curve $-1 -31.782893940155084 -18.796151509312136 0 0 0 -1 I I #
edge $-1 $285 -2.6330380936848989 $196 2.6330380936848989 $256 $290 forward 7 unknown #
point $-1 -31.782893940155084 -18.796151509312136 7.0297847569649123 #
straight-curve $-1 -35.7393710217004 -21.429189602997035 7.0297847569649123 0 -1 0 I I #
coedge $-1 $262 $203 $268 $291 reversed $133 $-1 #
coedge $-1 $203 $261 $206 $266 reversed $133 $-1 #
edge $-1 $264 -29.740520264017867 $211 -2.4633661161162124 $210 $292 forward 7 unknown #
vertex $-1 $205 $293 #
straight-curve $-1 45.842463454084907 5.2660099200211201 21.839755742615957 0 0.5877852410284794 -0.80901700255871778 I I #
edge $-1 $207 16.026083364576298 $270 18.796151509312136 $262 $294 forward 7 unknown #
point $-1 45.842463454084907 16.026083364576298 7.0297847569649079 #
coedge $-1 $210 $209 $261 $291 forward $201 $-1 #
point $-1 18.565309306183252 18.796151509312136 3.2171129324455983 #
vertex $-1 $266 $295 #
straight-curve $-1 0 18.796151509312136 7.0297847569649123 -1 0 0 I I #
vertex $-1 $217 $296 #
point $-1 26.858781919869443 15.89367046354846 4.0209591168201815 #
vertex $-1 $221 $297 #
point $-1 38.548990840398716 15.89367046354846 4.0209591168201815 #
straight-curve $-1 -45.842463454084907 18.796151509312136 0 0 0 -1 I I #
straight-curve $-1 0 18.796151509312136 -7.0297847569649123 1 0 0 I I #
point $-1 45.842463454084907 18.796151509312136 -7.0297847569649123 #
straight-curve $-1 -45.842463454084907 0 7.0297847569649123 0 -1 0 I I #
point $-1 -45.842463454084907 18.796151509312136 7.0297847569649123 #
straight-curve $-1 45.842463454084907 18.796151509312136 0 0 0 -1 I I #
point $-1 -45.842463454084907 18.796151509312136 -7.0297847569649123 #
edge $-1 $285 -7.0297847569649123 $252 7.0297847569649123 $244 $298 forward 7 unknown #
straight-curve $-1 -33.761132480927742 -24.062227696681934 -7.0297847569649123 -1 0 0 I I #
vertex $-1 $258 $299 #
straight-curve $-1 -33.761132480927742 -24.062227696681934 7.0297847569649123 1 0 0 I I #
point $-1 -35.7393710217004 -24.062227696681934 7.0297847569649123 #
point $-1 -35.7393710217004 -24.062227696681934 -7.0297847569649123 #
point $-1 -31.782893940155084 -24.062227696681934 -7.0297847569649123 #
straight-curve $-1 -31.782893940155084 -21.429189602997035 7.0297847569649123 0 1 0 I I #
edge $-1 $270 -7.0297847569649123 $264 -3.2171129324455983 $261 $300 forward 7 unknown #
straight-curve $-1 16.10194319006704 18.796151509312136 3.2171129324455965 -1 0 0 I I #
point $-1 45.842463454084907 18.796151509312136 3.2171129324455983 #
straight-curve $-1 45.842463454084907 0 7.0297847569649123 0 1 0 I I #
point $-1 45.842463454084907 18.796151509312136 7.0297847569649123 #
point $-1 26.358781919869443 15.489161962269101 3.7270664963059414 #
point $-1 38.048990840398716 15.489161962269101 3.7270664963059414 #
straight-curve $-1 -31.782893940155084 -24.062227696681934 0 0 0 -1 I I #
point $-1 -31.782893940155084 -24.062227696681934 7.0297847569649123 #
straight-curve $-1 45.842463454084907 18.796151509312136 0 0 0 -1 I I #
End-of-ACIS-data 