500 0 14 0           
7 Unknown 11 ACIS 5.0 NT 24 Thu Mar 25 16:59:43 1999 
-1 9.9999999999999995e-007 1e-010 
body $-1 $14 $-1 $15 #
body $-1 $16 $-1 $17 #
body $-1 $18 $-1 $19 #
body $-1 $20 $-1 $21 #
body $-1 $22 $-1 $23 #
body $-1 $24 $-1 $25 #
body $-1 $26 $-1 $27 #
body $-1 $28 $-1 $29 #
body $-1 $30 $-1 $31 #
body $-1 $32 $-1 $33 #
body $-1 $34 $-1 $35 #
body $-1 $36 $-1 $37 #
body $-1 $38 $-1 $39 #
body $-1 $40 $-1 $41 #
lump $-1 $-1 $42 $0 #
transform $-1 1 0 0 0 1 0 0 0 1 41.473433637501145 21.078710952142487 6.6734348443992717 1 rotate no_reflect no_shear #
lump $-1 $-1 $43 $1 #
transform $-1 1 0 0 0 1 0 0 0 1 41.473433637501145 21.078710952142487 6.6734348443992717 1 rotate no_reflect no_shear #
lump $-1 $-1 $44 $2 #
transform $-1 1 0 0 0 1 0 0 0 1 41.473433637501145 21.078710952142487 6.6734348443992717 1 rotate no_reflect no_shear #
lump $-1 $-1 $45 $3 #
transform $-1 1 0 0 0 1 0 0 0 1 41.473433637501145 21.078710952142487 6.6734348443992717 1 rotate no_reflect no_shear #
lump $-1 $-1 $46 $4 #
transform $-1 1 0 0 0 1 0 0 0 1 41.473433637501145 21.078710952142487 6.6734348443992717 1 rotate no_reflect no_shear #
lump $-1 $-1 $47 $5 #
transform $-1 1 0 0 0 1 0 0 0 1 41.473433637501145 21.078710952142487 6.6734348443992717 1 rotate no_reflect no_shear #
lump $-1 $-1 $48 $6 #
transform $-1 1 0 0 0 1 0 0 0 1 41.473433637501145 21.078710952142487 6.6734348443992717 1 rotate no_reflect no_shear #
lump $-1 $-1 $49 $7 #
transform $-1 1 0 0 0 1 0 0 0 1 41.473433637501145 21.078710952142487 6.6734348443992717 1 rotate no_reflect no_shear #
lump $-1 $-1 $50 $8 #
transform $-1 1 0 0 0 1 0 0 0 1 41.473433637501145 21.078710952142487 6.6734348443992717 1 rotate no_reflect no_shear #
lump $-1 $-1 $51 $9 #
transform $-1 1 0 0 0 1 0 0 0 1 41.473433637501145 21.078710952142487 6.6734348443992717 1 rotate no_reflect no_shear #
lump $-1 $-1 $52 $10 #
transform $-1 1 0 0 0 1 0 0 0 1 41.473433637501145 21.078710952142487 6.6734348443992717 1 rotate no_reflect no_shear #
lump $-1 $-1 $53 $11 #
transform $-1 1 0 0 0 1 0 0 0 1 41.473433637501145 21.078710952142487 6.6734348443992717 1 rotate no_reflect no_shear #
lump $-1 $-1 $54 $12 #
transform $-1 1 0 0 0 1 0 0 0 1 41.473433637501145 21.078710952142487 6.6734348443992717 1 rotate no_reflect no_shear #
lump $-1 $-1 $55 $13 #
transform $-1 1 0 0 0 1 0 0 0 1 41.473433637501145 21.078710952142487 6.6734348443992717 1 rotate no_reflect no_shear #
shell $-1 $-1 $-1 $56 $-1 $14 #
shell $-1 $-1 $-1 $57 $-1 $16 #
shell $-1 $-1 $-1 $58 $-1 $18 #
shell $-1 $-1 $-1 $59 $-1 $20 #
shell $-1 $-1 $-1 $60 $-1 $22 #
shell $-1 $-1 $-1 $61 $-1 $24 #
shell $-1 $-1 $-1 $62 $-1 $26 #
shell $-1 $-1 $-1 $63 $-1 $28 #
shell $-1 $-1 $-1 $64 $-1 $30 #
shell $-1 $-1 $-1 $65 $-1 $32 #
shell $-1 $-1 $-1 $66 $-1 $34 #
shell $-1 $-1 $-1 $67 $-1 $36 #
shell $-1 $-1 $-1 $68 $-1 $38 #
shell $-1 $-1 $-1 $69 $-1 $40 #
face $-1 $70 $71 $42 $-1 $72 forward single #
face $-1 $73 $74 $43 $-1 $75 forward single #
face $-1 $76 $77 $44 $-1 $78 reversed single #
face $-1 $79 $80 $45 $-1 $81 forward single #
face $-1 $82 $83 $46 $-1 $84 forward single #
face $-1 $85 $86 $47 $-1 $87 reversed single #
face $-1 $88 $89 $48 $-1 $90 forward single #
face $-1 $91 $92 $49 $-1 $93 forward single #
face $-1 $94 $95 $50 $-1 $96 reversed single #
face $-1 $97 $98 $51 $-1 $99 forward single #
face $-1 $100 $101 $52 $-1 $102 forward single #
face $-1 $103 $104 $53 $-1 $105 reversed single #
face $-1 $106 $107 $54 $-1 $108 forward single #
face $-1 $109 $110 $55 $-1 $111 forward single #
face $-1 $112 $113 $42 $-1 $114 reversed single #
loop $-1 $-1 $115 $56 #
plane-surface $-1 0 0 6.6734348443992717 0 0 1 1 0 0 forward_v I I I I #
face $-1 $116 $117 $43 $-1 $118 reversed single #
loop $-1 $-1 $119 $57 #
plane-surface $-1 -41.473433637501145 0 0 1 0 0 0 0 -1 forward_v I I I I #
face $-1 $120 $121 $44 $-1 $122 reversed single #
loop $-1 $-1 $123 $58 #
plane-surface $-1 -12.650964971566843 -78.698447284979352 62.377523617822582 -1 0 0 0 -0.69465837861970381 0.71933979245794832 forward_v I I I I #
face $-1 $124 $125 $45 $-1 $126 forward single #
loop $-1 $127 $128 $59 #
cone-surface $-1 -22.176103722856499 -18.324519458769359 3.9646902662105981 0 0.69465837861970381 -0.71933979245794832 1 0 0 1 I I 0 1 1 forward I I I I #
face $-1 $129 $130 $46 $-1 $131 forward single #
loop $-1 $132 $133 $60 #
cone-surface $-1 -16.461020472082708 -18.324519458769359 3.9646902662105981 0 0.69465837861970381 -0.71933979245794832 1 0 0 1 I I 0 1 1 forward I I I I #
face $-1 $134 $135 $47 $-1 $136 reversed single #
loop $-1 $-1 $137 $61 #
plane-surface $-1 26.584211205513768 -78.698447284979352 62.377523617822582 -1 0 0 0 -0.69465837861970381 0.71933979245794832 forward_v I I I I #
face $-1 $138 $139 $48 $-1 $140 forward single #
loop $-1 $141 $142 $62 #
cone-surface $-1 17.059072454224108 -18.324519458769359 3.9646902662105981 0 0.69465837861970381 -0.71933979245794832 1 0 0 1 I I 0 1 1 forward I I I I #
face $-1 $143 $144 $49 $-1 $145 forward single #
loop $-1 $146 $147 $63 #
cone-surface $-1 22.774155704997909 -18.324519458769359 3.9646902662105981 0 0.69465837861970381 -0.71933979245794832 1 0 0 1 I I 0 1 1 forward I I I I #
face $-1 $148 $149 $50 $-1 $150 reversed single #
loop $-1 $-1 $151 $64 #
plane-surface $-1 -25.986159223372361 48.372936161788829 91.662529964639972 1 0 0 0 -0.69465837861970381 -0.71933979245794832 forward_v I I I I #
face $-1 $152 $153 $51 $-1 $154 forward single #
loop $-1 $155 $156 $65 #
cone-surface $-1 -22.176103722856499 18.324519458769359 3.9646902662106016 0 -0.69465837861970381 -0.71933979245794832 1 0 0 1 I I 0 1 1 forward I I I I #
face $-1 $157 $158 $52 $-1 $159 forward single #
loop $-1 $160 $161 $66 #
cone-surface $-1 -16.461020472082708 18.324519458769359 3.9646902662106016 0 -0.69465837861970381 -0.71933979245794832 1 0 0 1 I I 0 1 1 forward I I I I #
face $-1 $162 $163 $53 $-1 $164 reversed single #
loop $-1 $-1 $165 $67 #
plane-surface $-1 13.249016953708249 48.372936161788829 91.662529964639972 1 0 0 0 -0.69465837861970381 -0.71933979245794832 forward_v I I I I #
face $-1 $166 $167 $54 $-1 $168 forward single #
loop $-1 $169 $170 $68 #
cone-surface $-1 17.059072454224108 18.324519458769359 3.9646902662106016 0 -0.69465837861970381 -0.71933979245794832 1 0 0 1 I I 0 1 1 forward I I I I #
face $-1 $171 $172 $55 $-1 $173 forward single #
loop $-1 $174 $175 $69 #
cone-surface $-1 22.774155704997909 18.324519458769359 3.9646902662106016 0 -0.69465837861970381 -0.71933979245794832 1 0 0 1 I I 0 1 1 forward I I I I #
face $-1 $176 $177 $42 $-1 $178 reversed single #
loop $-1 $-1 $179 $70 #
plane-surface $-1 0 0 -6.6734348443992717 0 0 1 1 0 0 forward_v I I I I #
coedge $-1 $180 $181 $182 $183 forward $71 $-1 #
face $-1 $184 $185 $43 $-1 $186 reversed single #
loop $-1 $-1 $187 $73 #
plane-surface $-1 0 21.078710952142487 0 0 -1 0 0 0 -1 forward_v I I I I #
coedge $-1 $188 $189 $190 $191 forward $74 $-1 #
face $-1 $192 $193 $44 $-1 $194 reversed single #
loop $-1 $-1 $195 $76 #
plane-surface $-1 -19.318562097469602 -21.078710952142494 2.7105413271854459 0 -0.69465837861970381 0.71933979245794832 1 0 0 forward_v I I I I #
coedge $-1 $196 $197 $198 $199 reversed $77 $-1 #
face $-1 $-1 $200 $45 $-1 $201 forward single #
loop $-1 $202 $203 $79 #
cone-surface $-1 -22.176103722856499 -17.274846913202254 2.877722550399862 0 0.69465837861970381 -0.71933979245794832 0.5 0 0 1 I I -0.70710678118654746 0.70710678118654746 0.5 forward I I I I #
loop $-1 $-1 $204 $59 #
coedge $-1 $128 $128 $205 $206 reversed $80 $-1 #
face $-1 $-1 $207 $46 $-1 $208 forward single #
loop $-1 $209 $210 $82 #
cone-surface $-1 -16.461020472082708 -17.274846913202254 2.877722550399862 0 0.69465837861970381 -0.71933979245794832 0.5 0 0 1 I I -0.70710678118654746 0.70710678118654746 0.5 forward I I I I #
loop $-1 $-1 $211 $60 #
coedge $-1 $133 $133 $212 $213 reversed $83 $-1 #
face $-1 $214 $215 $47 $-1 $216 reversed single #
loop $-1 $-1 $217 $85 #
plane-surface $-1 19.916614079611008 -21.078710952142494 2.7105413271854459 0 -0.69465837861970381 0.71933979245794832 1 0 0 forward_v I I I I #
coedge $-1 $218 $219 $220 $221 reversed $86 $-1 #
face $-1 $-1 $222 $48 $-1 $223 forward single #
loop $-1 $224 $225 $88 #
cone-surface $-1 17.059072454224108 -17.274846913202254 2.877722550399862 0 0.69465837861970381 -0.71933979245794832 0.5 0 0 1 I I -0.70710678118654746 0.70710678118654746 0.5 forward I I I I #
loop $-1 $-1 $226 $62 #
coedge $-1 $142 $142 $227 $228 reversed $89 $-1 #
face $-1 $-1 $229 $49 $-1 $230 forward single #
loop $-1 $231 $232 $91 #
cone-surface $-1 22.774155704997909 -17.274846913202254 2.877722550399862 0 0.69465837861970381 -0.71933979245794832 0.5 0 0 1 I I -0.70710678118654746 0.70710678118654746 0.5 forward I I I I #
loop $-1 $-1 $233 $63 #
coedge $-1 $147 $147 $234 $235 reversed $92 $-1 #
face $-1 $236 $237 $50 $-1 $238 reversed single #
loop $-1 $-1 $239 $94 #
plane-surface $-1 -19.318562097469602 -9.2468001710480294 31.995547674002836 0 0.69465837861970381 0.71933979245794832 1 0 0 forward_v I I I I #
coedge $-1 $240 $241 $242 $243 reversed $95 $-1 #
face $-1 $-1 $244 $51 $-1 $245 forward single #
loop $-1 $246 $247 $97 #
cone-surface $-1 -22.176103722856499 17.274846913202254 2.8777225503998656 0 -0.69465837861970381 -0.71933979245794832 0.5 0 0 1 I I -0.70710678118654746 0.70710678118654746 0.5 forward I I I I #
loop $-1 $-1 $248 $65 #
coedge $-1 $156 $156 $249 $250 reversed $98 $-1 #
face $-1 $-1 $251 $52 $-1 $252 forward single #
loop $-1 $253 $254 $100 #
cone-surface $-1 -16.461020472082708 17.274846913202254 2.8777225503998656 0 -0.69465837861970381 -0.71933979245794832 0.5 0 0 1 I I -0.70710678118654746 0.70710678118654746 0.5 forward I I I I #
loop $-1 $-1 $255 $66 #
coedge $-1 $161 $161 $256 $257 reversed $101 $-1 #
face $-1 $258 $259 $53 $-1 $260 reversed single #
loop $-1 $-1 $261 $103 #
plane-surface $-1 19.916614079611008 -9.2468001710480294 31.995547674002836 0 0.69465837861970381 0.71933979245794832 1 0 0 forward_v I I I I #
coedge $-1 $262 $263 $264 $265 reversed $104 $-1 #
face $-1 $-1 $266 $54 $-1 $267 forward single #
loop $-1 $268 $269 $106 #
cone-surface $-1 17.059072454224108 17.274846913202254 2.8777225503998656 0 -0.69465837861970381 -0.71933979245794832 0.5 0 0 1 I I -0.70710678118654746 0.70710678118654746 0.5 forward I I I I #
loop $-1 $-1 $270 $68 #
coedge $-1 $170 $170 $271 $272 reversed $107 $-1 #
face $-1 $-1 $273 $55 $-1 $274 forward single #
loop $-1 $275 $276 $109 #
cone-surface $-1 22.774155704997909 17.274846913202254 2.8777225503998656 0 -0.69465837861970381 -0.71933979245794832 0.5 0 0 1 I I -0.70710678118654746 0.70710678118654746 0.5 forward I I I I #
loop $-1 $-1 $277 $69 #
coedge $-1 $175 $175 $278 $279 reversed $110 $-1 #
face $-1 $280 $281 $42 $-1 $282 reversed single #
loop $-1 $-1 $283 $112 #
plane-surface $-1 0 -21.078710952142487 0 0 1 0 0 0 1 forward_v I I I I #
coedge $-1 $284 $285 $286 $287 forward $113 $-1 #
coedge $-1 $288 $115 $289 $290 forward $71 $-1 #
coedge $-1 $115 $288 $291 $292 forward $71 $-1 #
coedge $-1 $293 $294 $115 $183 reversed $295 $-1 #
edge $-1 $296 -21.078710952142487 $297 21.078710952142487 $182 $298 forward 7 unknown #
face $-1 $299 $300 $43 $-1 $301 reversed single #
loop $-1 $-1 $190 $116 #
plane-surface $-1 -43.71169109792168 0 3.6734348443992717 0 0 1 1 0 0 forward_v I I I I #
coedge $-1 $302 $303 $188 $304 forward $117 $-1 #
coedge $-1 $305 $119 $187 $304 reversed $74 $-1 #
coedge $-1 $119 $305 $306 $307 reversed $74 $-1 #
coedge $-1 $308 $309 $119 $191 reversed $185 $-1 #
edge $-1 $310 -21.078710952142487 $311 21.078710952142487 $190 $312 forward 7 unknown #
face $-1 $313 $314 $44 $-1 $315 reversed single #
loop $-1 $-1 $316 $120 #
plane-surface $-1 -25.986159223372361 -78.698447284979352 62.377523617822582 1 0 0 0 0.69465837861970381 -0.71933979245794832 forward_v I I I I #
coedge $-1 $317 $318 $319 $320 reversed $121 $-1 #
coedge $-1 $197 $123 $321 $322 reversed $77 $-1 #
coedge $-1 $123 $196 $317 $323 reversed $77 $-1 #
coedge $-1 $319 $324 $123 $199 forward $325 $-1 #
edge $-1 $326 18.270512690347189 $327 22.374208964578926 $198 $328 forward 7 unknown #
loop $-1 $-1 $205 $124 #
plane-surface $-1 -19.318562097469602 -21.078710952142494 2.7105413271854459 0 -0.69465837861970381 0.71933979245794832 1 0 0 forward_v I I I I #
loop $-1 $-1 $329 $79 #
coedge $-1 $203 $203 $204 $330 reversed $125 $-1 #
coedge $-1 $204 $204 $203 $330 forward $127 $-1 #
coedge $-1 $205 $205 $128 $206 forward $200 $-1 #
edge $-1 $331 8.7685996555267595e-017 $331 6.2831853071796004 $205 $332 forward 7 unknown #
loop $-1 $-1 $212 $129 #
plane-surface $-1 -19.318562097469602 -21.078710952142494 2.7105413271854459 0 -0.69465837861970381 0.71933979245794832 1 0 0 forward_v I I I I #
loop $-1 $-1 $333 $82 #
coedge $-1 $210 $210 $211 $334 reversed $130 $-1 #
coedge $-1 $211 $211 $210 $334 forward $132 $-1 #
coedge $-1 $212 $212 $133 $213 forward $207 $-1 #
edge $-1 $335 8.7685996555267595e-017 $335 6.2831853071796004 $212 $336 forward 7 unknown #
face $-1 $337 $338 $47 $-1 $339 reversed single #
loop $-1 $-1 $340 $134 #
plane-surface $-1 13.249016953708249 -78.698447284979352 62.377523617822582 1 0 0 0 0.69465837861970381 -0.71933979245794832 forward_v I I I I #
coedge $-1 $341 $342 $343 $344 reversed $135 $-1 #
coedge $-1 $219 $137 $345 $346 reversed $86 $-1 #
coedge $-1 $137 $218 $341 $347 reversed $86 $-1 #
coedge $-1 $343 $348 $137 $221 forward $349 $-1 #
edge $-1 $350 18.270512690347189 $351 22.374208964578926 $220 $352 forward 7 unknown #
loop $-1 $-1 $227 $138 #
plane-surface $-1 19.916614079611008 -21.078710952142494 2.7105413271854459 0 -0.69465837861970381 0.71933979245794832 1 0 0 forward_v I I I I #
loop $-1 $-1 $353 $88 #
coedge $-1 $225 $225 $226 $354 reversed $139 $-1 #
coedge $-1 $226 $226 $225 $354 forward $141 $-1 #
coedge $-1 $227 $227 $142 $228 forward $222 $-1 #
edge $-1 $355 8.7685996555267595e-017 $355 6.2831853071796004 $227 $356 forward 7 unknown #
loop $-1 $-1 $234 $143 #
plane-surface $-1 19.916614079611008 -21.078710952142494 2.7105413271854459 0 -0.69465837861970381 0.71933979245794832 1 0 0 forward_v I I I I #
loop $-1 $-1 $357 $91 #
coedge $-1 $232 $232 $233 $358 reversed $144 $-1 #
coedge $-1 $233 $233 $232 $358 forward $146 $-1 #
coedge $-1 $234 $234 $147 $235 forward $229 $-1 #
edge $-1 $359 8.7685996555267595e-017 $359 6.2831853071796004 $234 $360 forward 7 unknown #
face $-1 $361 $362 $50 $-1 $363 forward single #
loop $-1 $-1 $364 $148 #
plane-surface $-1 -12.650964971566843 48.372936161788829 91.662529964639972 -1 0 0 0 0.69465837861970381 0.71933979245794832 forward_v I I I I #
coedge $-1 $365 $366 $367 $368 reversed $149 $-1 #
coedge $-1 $241 $151 $369 $370 reversed $95 $-1 #
coedge $-1 $151 $240 $365 $371 reversed $95 $-1 #
coedge $-1 $367 $372 $151 $243 forward $362 $-1 #
edge $-1 $373 3.1077571287519277 $374 7.2114534029836648 $242 $375 forward 7 unknown #
loop $-1 $-1 $249 $152 #
plane-surface $-1 -19.318562097469602 -9.2468001710480294 31.995547674002836 0 0.69465837861970381 0.71933979245794832 1 0 0 forward_v I I I I #
loop $-1 $-1 $376 $97 #
coedge $-1 $247 $247 $248 $377 reversed $153 $-1 #
coedge $-1 $248 $248 $247 $377 forward $155 $-1 #
coedge $-1 $249 $249 $156 $250 forward $244 $-1 #
edge $-1 $378 0 $378 6.2831853071796004 $249 $379 forward 7 unknown #
loop $-1 $-1 $256 $157 #
plane-surface $-1 -19.318562097469602 -9.2468001710480294 31.995547674002836 0 0.69465837861970381 0.71933979245794832 1 0 0 forward_v I I I I #
loop $-1 $-1 $380 $100 #
coedge $-1 $254 $254 $255 $381 reversed $158 $-1 #
coedge $-1 $255 $255 $254 $381 forward $160 $-1 #
coedge $-1 $256 $256 $161 $257 forward $251 $-1 #
edge $-1 $382 0 $382 6.2831853071796004 $256 $383 forward 7 unknown #
face $-1 $384 $385 $53 $-1 $386 forward single #
loop $-1 $-1 $387 $162 #
plane-surface $-1 26.584211205513768 48.372936161788829 91.662529964639972 -1 0 0 0 0.69465837861970381 0.71933979245794832 forward_v I I I I #
coedge $-1 $388 $389 $390 $391 reversed $163 $-1 #
coedge $-1 $263 $165 $392 $393 reversed $104 $-1 #
coedge $-1 $165 $262 $388 $394 reversed $104 $-1 #
coedge $-1 $390 $395 $165 $265 forward $385 $-1 #
edge $-1 $396 3.1077571287519277 $397 7.2114534029836648 $264 $398 forward 7 unknown #
loop $-1 $-1 $271 $166 #
plane-surface $-1 19.916614079611008 -9.2468001710480294 31.995547674002836 0 0.69465837861970381 0.71933979245794832 1 0 0 forward_v I I I I #
loop $-1 $-1 $399 $106 #
coedge $-1 $269 $269 $270 $400 reversed $167 $-1 #
coedge $-1 $270 $270 $269 $400 forward $169 $-1 #
coedge $-1 $271 $271 $170 $272 forward $266 $-1 #
edge $-1 $401 0 $401 6.2831853071796004 $271 $402 forward 7 unknown #
loop $-1 $-1 $278 $171 #
plane-surface $-1 19.916614079611008 -9.2468001710480294 31.995547674002836 0 0.69465837861970381 0.71933979245794832 1 0 0 forward_v I I I I #
loop $-1 $-1 $403 $109 #
coedge $-1 $276 $276 $277 $404 reversed $172 $-1 #
coedge $-1 $277 $277 $276 $404 forward $174 $-1 #
coedge $-1 $278 $278 $175 $279 forward $273 $-1 #
edge $-1 $405 0 $405 6.2831853071796004 $278 $406 forward 7 unknown #
face $-1 $407 $408 $42 $-1 $409 reversed single #
loop $-1 $-1 $410 $176 #
plane-surface $-1 -41.473433637501145 0 0 1 0 0 0 0 -1 forward_v I I I I #
coedge $-1 $411 $291 $412 $413 forward $177 $-1 #
coedge $-1 $414 $179 $411 $415 forward $113 $-1 #
coedge $-1 $179 $414 $416 $417 forward $113 $-1 #
coedge $-1 $294 $293 $179 $287 reversed $295 $-1 #
edge $-1 $418 -21.078710952142487 $419 21.078710952142487 $286 $420 forward 7 unknown #
coedge $-1 $181 $180 $421 $422 forward $71 $-1 #
coedge $-1 $423 $424 $180 $290 reversed $408 $-1 #
edge $-1 $297 -41.473433637501145 $425 41.473433637501145 $289 $426 forward 7 unknown #
coedge $-1 $283 $427 $181 $292 reversed $177 $-1 #
edge $-1 $428 -41.473433637501145 $296 41.473433637501145 $291 $429 forward 7 unknown #
coedge $-1 $286 $182 $427 $430 forward $295 $-1 #
coedge $-1 $182 $286 $423 $431 reversed $295 $-1 #
loop $-1 $-1 $293 $407 #
vertex $-1 $183 $432 #
vertex $-1 $183 $433 #
straight-curve $-1 41.473433637501145 0 6.6734348443992717 0 1 0 I I #
face $-1 $434 $435 $43 $-1 $436 forward single #
loop $-1 $-1 $437 $184 #
plane-surface $-1 -45.949948558342214 0 5.1734348443992717 1 0 0 0 0 -1 forward_v I I I I #
coedge $-1 $438 $187 $309 $439 reversed $117 $-1 #
coedge $-1 $187 $438 $440 $441 reversed $117 $-1 #
edge $-1 $442 -6.6734348443992717 $311 -3.6734348443992717 $187 $443 forward 7 unknown #
coedge $-1 $189 $188 $444 $445 reversed $74 $-1 #
coedge $-1 $446 $447 $189 $307 forward $448 $-1 #
edge $-1 $310 3.6734348443992717 $449 6.6734348443992717 $306 $450 forward 7 unknown #
coedge $-1 $451 $190 $447 $452 forward $185 $-1 #
coedge $-1 $190 $451 $302 $439 forward $185 $-1 #
vertex $-1 $307 $453 #
vertex $-1 $304 $454 #
straight-curve $-1 -41.473433637501145 0 3.6734348443992717 0 1 0 I I #
face $-1 $-1 $325 $44 $-1 $455 forward single #
loop $-1 $-1 $456 $192 #
plane-surface $-1 0 -21.078710952142487 0 0 1 0 0 0 1 forward_v I I I I #
coedge $-1 $457 $458 $459 $460 reversed $193 $-1 #
coedge $-1 $461 $195 $197 $323 forward $121 $-1 #
coedge $-1 $195 $461 $457 $462 forward $121 $-1 #
coedge $-1 $459 $198 $195 $320 forward $325 $-1 #
edge $-1 $327 2.991683922832042 $463 16.32687817463756 $319 $464 forward 7 unknown #
coedge $-1 $465 $466 $196 $322 forward $314 $-1 #
edge $-1 $467 -28.478220481725838 $326 -24.51532696451202 $321 $468 forward 7 unknown #
edge $-1 $327 -5.7048092115266096 $467 -9.7385709978959816e-015 $197 $469 forward 7 unknown #
coedge $-1 $198 $459 $465 $470 forward $325 $-1 #
loop $-1 $-1 $459 $313 #
vertex $-1 $322 $471 #
vertex $-1 $199 $472 #
straight-curve $-1 -12.650964971566843 -39.349223642489676 6.6734348443992708 0 1 0 I I #
coedge $-1 $329 $329 $-1 $473 reversed $202 $-1 #
edge $-1 $474 0 $474 6.2831853071796004 $203 $475 forward 7 unknown #
vertex $-1 $206 $476 #
ellipse-curve $-1 -22.176103722856499 -19.026862815026618 4.6919880857923637 0 -0.69465837861970381 0.71933979245794832 1 0 0 1 I I #
coedge $-1 $333 $333 $-1 $477 reversed $209 $-1 #
edge $-1 $478 0 $478 6.2831853071796004 $210 $479 forward 7 unknown #
vertex $-1 $213 $480 #
ellipse-curve $-1 -16.461020472082708 -19.026862815026618 4.6919880857923637 0 -0.69465837861970381 0.71933979245794832 1 0 0 1 I I #
face $-1 $-1 $349 $47 $-1 $481 forward single #
loop $-1 $-1 $482 $214 #
plane-surface $-1 0 -21.078710952142487 0 0 1 0 0 0 1 forward_v I I I I #
coedge $-1 $483 $484 $485 $486 reversed $215 $-1 #
coedge $-1 $487 $217 $219 $347 forward $135 $-1 #
coedge $-1 $217 $487 $483 $488 forward $135 $-1 #
coedge $-1 $485 $220 $217 $344 forward $349 $-1 #
edge $-1 $351 -16.625904165708263 $489 -3.2907099139027451 $343 $490 forward 7 unknown #
coedge $-1 $491 $492 $218 $346 forward $338 $-1 #
edge $-1 $493 -28.478220481725838 $350 -24.51532696451202 $345 $494 forward 7 unknown #
edge $-1 $351 -5.7048092115266096 $493 -9.7385709978959816e-015 $219 $495 forward 7 unknown #
coedge $-1 $220 $485 $491 $496 forward $349 $-1 #
loop $-1 $-1 $485 $337 #
vertex $-1 $346 $497 #
vertex $-1 $221 $498 #
straight-curve $-1 26.584211205513768 -39.349223642489676 6.6734348443992708 0 1 0 I I #
coedge $-1 $353 $353 $-1 $499 reversed $224 $-1 #
edge $-1 $500 0 $500 6.2831853071796004 $225 $501 forward 7 unknown #
vertex $-1 $228 $502 #
ellipse-curve $-1 17.059072454224108 -19.026862815026618 4.6919880857923637 0 -0.69465837861970381 0.71933979245794832 1 0 0 1 I I #
coedge $-1 $357 $357 $-1 $503 reversed $231 $-1 #
edge $-1 $504 0 $504 6.2831853071796004 $232 $505 forward 7 unknown #
vertex $-1 $235 $506 #
ellipse-curve $-1 22.774155704997909 -19.026862815026618 4.6919880857923637 0 -0.69465837861970381 0.71933979245794832 1 0 0 1 I I #
face $-1 $-1 $507 $50 $-1 $508 reversed single #
loop $-1 $-1 $242 $236 #
plane-surface $-1 0 0 6.6734348443992717 0 0 1 1 0 0 forward_v I I I I #
coedge $-1 $509 $510 $511 $512 reversed $237 $-1 #
coedge $-1 $513 $239 $241 $371 forward $149 $-1 #
coedge $-1 $239 $513 $509 $514 forward $149 $-1 #
coedge $-1 $511 $242 $239 $368 forward $362 $-1 #
edge $-1 $374 -16.32687817463756 $515 -2.991683922832042 $367 $516 forward 7 unknown #
coedge $-1 $517 $518 $240 $370 forward $507 $-1 #
edge $-1 $519 -43.12072365513454 $373 -39.157830137920712 $369 $520 forward 7 unknown #
edge $-1 $374 36.452612692758365 $519 42.157421904284973 $241 $521 forward 7 unknown #
coedge $-1 $242 $511 $517 $522 forward $362 $-1 #
vertex $-1 $370 $523 #
vertex $-1 $243 $524 #
straight-curve $-1 -25.986159223372361 24.186468080894414 6.6734348443992744 0 -1 0 I I #
coedge $-1 $376 $376 $-1 $525 reversed $246 $-1 #
edge $-1 $526 0 $526 6.2831853071796004 $247 $527 forward 7 unknown #
vertex $-1 $250 $528 #
ellipse-curve $-1 -22.176103722856499 19.026862815026615 4.6919880857923637 0 0.69465837861970381 0.71933979245794832 1 0 0 1 I I #
coedge $-1 $380 $380 $-1 $529 reversed $253 $-1 #
edge $-1 $530 0 $530 6.2831853071796004 $254 $531 forward 7 unknown #
vertex $-1 $257 $532 #
ellipse-curve $-1 -16.461020472082708 19.026862815026615 4.6919880857923637 0 0.69465837861970381 0.71933979245794832 1 0 0 1 I I #
face $-1 $-1 $533 $53 $-1 $534 reversed single #
loop $-1 $-1 $264 $258 #
plane-surface $-1 0 0 6.6734348443992717 0 0 1 1 0 0 forward_v I I I I #
coedge $-1 $535 $536 $537 $538 reversed $259 $-1 #
coedge $-1 $539 $261 $263 $394 forward $163 $-1 #
coedge $-1 $261 $539 $535 $540 forward $163 $-1 #
coedge $-1 $537 $264 $261 $391 forward $385 $-1 #
edge $-1 $397 3.2907099139027451 $541 16.625904165708263 $390 $542 forward 7 unknown #
coedge $-1 $543 $544 $262 $393 forward $533 $-1 #
edge $-1 $545 -43.12072365513454 $396 -39.157830137920712 $392 $546 forward 7 unknown #
edge $-1 $397 36.452612692758365 $545 42.157421904284973 $263 $547 forward 7 unknown #
coedge $-1 $264 $537 $543 $548 forward $385 $-1 #
vertex $-1 $265 $549 #
vertex $-1 $265 $550 #
straight-curve $-1 13.249016953708249 24.186468080894414 6.6734348443992744 0 -1 0 I I #
coedge $-1 $399 $399 $-1 $551 reversed $268 $-1 #
edge $-1 $552 0 $552 6.2831853071796004 $269 $553 forward 7 unknown #
vertex $-1 $272 $554 #
ellipse-curve $-1 17.059072454224108 19.026862815026615 4.6919880857923637 0 0.69465837861970381 0.71933979245794832 1 0 0 1 I I #
coedge $-1 $403 $403 $-1 $555 reversed $275 $-1 #
edge $-1 $556 0 $556 6.2831853071796004 $276 $557 forward 7 unknown #
vertex $-1 $279 $558 #
ellipse-curve $-1 22.774155704997909 19.026862815026615 4.6919880857923637 0 0.69465837861970381 0.71933979245794832 1 0 0 1 I I #
face $-1 $-1 $295 $42 $-1 $559 reversed single #
loop $-1 $-1 $423 $280 #
plane-surface $-1 0 21.078710952142487 0 0 -1 0 0 0 -1 forward_v I I I I #
coedge $-1 $560 $421 $424 $561 forward $281 $-1 #
coedge $-1 $427 $283 $284 $415 reversed $177 $-1 #
coedge $-1 $421 $560 $283 $413 reversed $281 $-1 #
edge $-1 $428 -6.6734348443992717 $562 6.6734348443992717 $412 $563 forward 7 unknown #
coedge $-1 $285 $284 $560 $564 forward $113 $-1 #
edge $-1 $419 -41.473433637501145 $562 41.473433637501145 $411 $565 forward 7 unknown #
coedge $-1 $424 $423 $285 $417 reversed $408 $-1 #
edge $-1 $566 -41.473433637501145 $418 41.473433637501145 $416 $567 forward 7 unknown #
vertex $-1 $287 $568 #
vertex $-1 $430 $569 #
straight-curve $-1 41.473433637501145 0 -6.6734348443992717 0 -1 0 I I #
coedge $-1 $410 $412 $288 $422 reversed $281 $-1 #
edge $-1 $425 -21.078710952142487 $428 21.078710952142487 $421 $570 forward 7 unknown #
coedge $-1 $416 $289 $294 $431 forward $408 $-1 #
coedge $-1 $289 $416 $410 $561 reversed $408 $-1 #
vertex $-1 $290 $571 #
straight-curve $-1 0 21.078710952142487 6.6734348443992717 -1 0 0 I I #
coedge $-1 $291 $411 $293 $430 reversed $177 $-1 #
vertex $-1 $422 $572 #
straight-curve $-1 0 -21.078710952142487 6.6734348443992717 1 0 0 I I #
edge $-1 $296 -6.6734348443992717 $419 6.6734348443992717 $293 $573 forward 7 unknown #
edge $-1 $297 -6.6734348443992717 $418 6.6734348443992717 $294 $574 forward 7 unknown #
point $-1 41.473433637501145 -21.078710952142487 6.6734348443992717 #
point $-1 41.473433637501145 21.078710952142487 6.6734348443992717 #
face $-1 $-1 $448 $43 $-1 $575 reversed single #
loop $-1 $-1 $444 $299 #
plane-surface $-1 0 0 6.6734348443992717 0 0 1 1 0 0 forward_v I I I I #
coedge $-1 $576 $577 $438 $578 forward $300 $-1 #
coedge $-1 $303 $302 $437 $578 reversed $117 $-1 #
edge $-1 $579 -2.2382574604205345 $311 2.2382574604205345 $302 $580 forward 7 unknown #
coedge $-1 $581 $444 $303 $441 forward $435 $-1 #
edge $-1 $442 41.473433637501145 $582 45.949948558342214 $303 $583 forward 7 unknown #
vertex $-1 $441 $584 #
straight-curve $-1 -41.473433637501145 21.078710952142487 0 0 0 -1 I I #
coedge $-1 $440 $585 $305 $445 forward $435 $-1 #
edge $-1 $449 -21.078710952142487 $442 21.078710952142487 $444 $586 forward 7 unknown #
coedge $-1 $587 $306 $585 $588 reversed $448 $-1 #
coedge $-1 $306 $587 $308 $452 reversed $448 $-1 #
loop $-1 $-1 $306 $434 #
vertex $-1 $307 $589 #
straight-curve $-1 -41.473433637501145 -21.078710952142487 0 0 0 1 I I #
coedge $-1 $309 $308 $576 $590 forward $185 $-1 #
edge $-1 $310 -2.2382574604205345 $591 2.2382574604205345 $447 $592 forward 7 unknown #
point $-1 -41.473433637501145 -21.078710952142487 3.6734348443992717 #
point $-1 -41.473433637501145 21.078710952142487 3.6734348443992717 #
plane-surface $-1 0 0 6.6734348443992717 0 0 1 1 0 0 forward_v I I I I #
coedge $-1 $466 $465 $458 $593 forward $314 $-1 #
coedge $-1 $458 $316 $318 $462 reversed $193 $-1 #
coedge $-1 $316 $457 $456 $593 reversed $193 $-1 #
coedge $-1 $324 $319 $316 $460 forward $325 $-1 #
edge $-1 $463 -22.374208964578926 $594 -18.270512690347189 $459 $595 forward 7 unknown #
coedge $-1 $318 $317 $466 $596 reversed $121 $-1 #
edge $-1 $597 9.7385709978959816e-015 $463 5.7048092115266096 $457 $598 forward 7 unknown #
vertex $-1 $320 $599 #
straight-curve $-1 -9.6592810487348011 -16.97501467791075 6.6734348443992726 -1 0 0 I I #
coedge $-1 $456 $321 $324 $470 reversed $314 $-1 #
coedge $-1 $321 $456 $461 $596 forward $314 $-1 #
vertex $-1 $322 $600 #
straight-curve $-1 -12.650964971566843 -21.078710952142487 31.188761808911291 0 0 1 I I #
straight-curve $-1 -12.650964971566843 -21.078710952142494 2.7105413271854459 0 -0.71933979245794832 -0.69465837861970381 I I #
edge $-1 $594 -25.986159223372361 $326 -12.650964971566843 $465 $601 forward 7 unknown #
point $-1 -12.650964971566843 -21.078710952142487 6.6734348443992717 #
point $-1 -12.650964971566843 -16.97501467791075 6.6734348443992708 #
edge $-1 $602 1 $602 0 $329 $-1 forward 7 unknown #
vertex $-1 $330 $603 #
ellipse-curve $-1 -22.176103722856499 -17.622176102512107 3.237392446628836 0 -0.69465837861970381 0.71933979245794832 1 0 0 1 I I #
point $-1 -21.176103722856499 -19.026862815026615 4.6919880857923602 #
edge $-1 $604 1 $604 0 $333 $-1 forward 7 unknown #
vertex $-1 $334 $605 #
ellipse-curve $-1 -16.461020472082708 -17.622176102512107 3.237392446628836 0 -0.69465837861970381 0.71933979245794832 1 0 0 1 I I #
point $-1 -15.461020472082708 -19.026862815026615 4.6919880857923602 #
plane-surface $-1 0 0 6.6734348443992717 0 0 1 1 0 0 forward_v I I I I #
coedge $-1 $492 $491 $484 $606 forward $338 $-1 #
coedge $-1 $484 $340 $342 $488 reversed $215 $-1 #
coedge $-1 $340 $483 $482 $606 reversed $215 $-1 #
coedge $-1 $348 $343 $340 $486 forward $349 $-1 #
edge $-1 $489 -22.374208964578926 $607 -18.270512690347189 $485 $608 forward 7 unknown #
coedge $-1 $342 $341 $492 $609 reversed $135 $-1 #
edge $-1 $610 9.7385709978959816e-015 $489 5.7048092115266096 $483 $611 forward 7 unknown #
vertex $-1 $344 $612 #
straight-curve $-1 9.9583070398055042 -16.97501467791075 6.6734348443992726 -1 0 0 I I #
coedge $-1 $482 $345 $348 $496 reversed $338 $-1 #
coedge $-1 $345 $482 $487 $609 forward $338 $-1 #
vertex $-1 $346 $613 #
straight-curve $-1 26.584211205513768 -21.078710952142487 31.188761808911291 0 0 1 I I #
straight-curve $-1 26.584211205513768 -21.078710952142494 2.7105413271854459 0 -0.71933979245794832 -0.69465837861970381 I I #
edge $-1 $607 13.249016953708249 $350 26.584211205513768 $491 $614 forward 7 unknown #
point $-1 26.584211205513768 -21.078710952142487 6.6734348443992717 #
point $-1 26.584211205513768 -16.97501467791075 6.6734348443992708 #
edge $-1 $615 1 $615 0 $353 $-1 forward 7 unknown #
vertex $-1 $354 $616 #
ellipse-curve $-1 17.059072454224108 -17.622176102512107 3.237392446628836 0 -0.69465837861970381 0.71933979245794832 1 0 0 1 I I #
point $-1 18.059072454224108 -19.026862815026615 4.6919880857923602 #
edge $-1 $617 1 $617 0 $357 $-1 forward 7 unknown #
vertex $-1 $358 $618 #
ellipse-curve $-1 22.774155704997909 -17.622176102512107 3.237392446628836 0 -0.69465837861970381 0.71933979245794832 1 0 0 1 I I #
point $-1 23.774155704997909 -19.026862815026615 4.6919880857923602 #
loop $-1 $-1 $369 $361 #
plane-surface $-1 0 21.078710952142487 0 0 -1 0 0 0 -1 forward_v I I I I #
coedge $-1 $510 $364 $366 $514 reversed $237 $-1 #
coedge $-1 $364 $509 $619 $620 reversed $237 $-1 #
coedge $-1 $372 $367 $364 $512 forward $362 $-1 #
edge $-1 $515 -7.2114534029836648 $621 -3.1077571287519277 $511 $622 forward 7 unknown #
coedge $-1 $366 $365 $518 $623 reversed $149 $-1 #
edge $-1 $624 -42.157421904284973 $515 -36.452612692758365 $509 $625 forward 7 unknown #
vertex $-1 $368 $626 #
straight-curve $-1 -9.6592810487348011 16.975014677910753 6.6734348443992673 1 0 0 I I #
coedge $-1 $619 $369 $372 $522 reversed $507 $-1 #
coedge $-1 $369 $619 $513 $623 forward $507 $-1 #
vertex $-1 $370 $627 #
straight-curve $-1 -25.986159223372361 21.078710952142487 45.831264982319986 0 0 1 I I #
straight-curve $-1 -25.986159223372361 -9.2468001710480294 31.995547674002836 0 0.71933979245794832 -0.69465837861970381 I I #
edge $-1 $621 12.650964971566843 $373 25.986159223372361 $517 $628 forward 7 unknown #
point $-1 -25.986159223372361 21.078710952142487 6.6734348443992717 #
point $-1 -25.986159223372361 16.97501467791075 6.6734348443992708 #
edge $-1 $629 1 $629 0 $376 $-1 forward 7 unknown #
vertex $-1 $377 $630 #
ellipse-curve $-1 -22.176103722856499 17.622176102512107 3.2373924466288395 0 0.69465837861970381 0.71933979245794832 1 0 0 1 I I #
point $-1 -21.176103722856499 19.026862815026615 4.6919880857923637 #
edge $-1 $631 1 $631 0 $380 $-1 forward 7 unknown #
vertex $-1 $381 $632 #
ellipse-curve $-1 -16.461020472082708 17.622176102512107 3.2373924466288395 0 0.69465837861970381 0.71933979245794832 1 0 0 1 I I #
point $-1 -15.461020472082708 19.026862815026615 4.6919880857923637 #
loop $-1 $-1 $392 $384 #
plane-surface $-1 0 21.078710952142487 0 0 -1 0 0 0 -1 forward_v I I I I #
coedge $-1 $536 $387 $389 $540 reversed $259 $-1 #
coedge $-1 $387 $535 $633 $634 reversed $259 $-1 #
coedge $-1 $395 $390 $387 $538 forward $385 $-1 #
edge $-1 $541 -7.2114534029836648 $635 -3.1077571287519277 $537 $636 forward 7 unknown #
coedge $-1 $389 $388 $544 $637 reversed $163 $-1 #
edge $-1 $638 -42.157421904284973 $541 -36.452612692758365 $535 $639 forward 7 unknown #
vertex $-1 $391 $640 #
straight-curve $-1 9.9583070398055042 16.975014677910753 6.6734348443992673 1 0 0 I I #
coedge $-1 $633 $392 $395 $548 reversed $533 $-1 #
coedge $-1 $392 $633 $539 $637 forward $533 $-1 #
vertex $-1 $393 $641 #
straight-curve $-1 13.249016953708249 21.078710952142487 45.831264982319986 0 0 1 I I #
straight-curve $-1 13.249016953708249 -9.2468001710480294 31.995547674002836 0 0.71933979245794832 -0.69465837861970381 I I #
edge $-1 $635 -26.584211205513768 $396 -13.249016953708249 $543 $642 forward 7 unknown #
point $-1 13.249016953708249 21.078710952142487 6.6734348443992717 #
point $-1 13.249016953708249 16.97501467791075 6.6734348443992708 #
edge $-1 $643 1 $643 0 $399 $-1 forward 7 unknown #
vertex $-1 $400 $644 #
ellipse-curve $-1 17.059072454224108 17.622176102512107 3.2373924466288395 0 0.69465837861970381 0.71933979245794832 1 0 0 1 I I #
point $-1 18.059072454224108 19.026862815026615 4.6919880857923637 #
edge $-1 $645 1 $645 0 $403 $-1 forward 7 unknown #
vertex $-1 $404 $646 #
ellipse-curve $-1 22.774155704997909 17.622176102512107 3.2373924466288395 0 0.69465837861970381 0.71933979245794832 1 0 0 1 I I #
point $-1 23.774155704997909 19.026862815026615 4.6919880857923637 #
plane-surface $-1 41.473433637501145 0 0 -1 0 0 0 0 1 forward_v I I I I #
coedge $-1 $412 $410 $414 $564 reversed $281 $-1 #
edge $-1 $425 -6.6734348443992717 $566 6.6734348443992717 $424 $647 forward 7 unknown #
vertex $-1 $564 $648 #
straight-curve $-1 -41.473433637501145 -21.078710952142487 0 0 0 -1 I I #
edge $-1 $562 -21.078710952142487 $566 21.078710952142487 $560 $649 forward 7 unknown #
straight-curve $-1 0 -21.078710952142487 -6.6734348443992717 -1 0 0 I I #
vertex $-1 $417 $650 #
straight-curve $-1 0 21.078710952142487 -6.6734348443992717 1 0 0 I I #
point $-1 41.473433637501145 21.078710952142487 -6.6734348443992717 #
point $-1 41.473433637501145 -21.078710952142487 -6.6734348443992717 #
straight-curve $-1 -41.473433637501145 0 6.6734348443992717 0 -1 0 I I #
point $-1 -41.473433637501145 21.078710952142487 6.6734348443992717 #
point $-1 -41.473433637501145 -21.078710952142487 6.6734348443992717 #
straight-curve $-1 41.473433637501145 -21.078710952142487 0 0 0 -1 I I #
straight-curve $-1 41.473433637501145 21.078710952142487 0 0 0 -1 I I #
plane-surface $-1 0 -21.078710952142487 0 0 1 0 0 0 1 forward_v I I I I #
coedge $-1 $651 $437 $451 $590 reversed $300 $-1 #
coedge $-1 $437 $651 $581 $652 reversed $300 $-1 #
edge $-1 $582 -1.5 $579 1.5 $438 $653 forward 7 unknown #
vertex $-1 $439 $654 #
straight-curve $-1 -43.71169109792168 21.078710952142487 3.6734348443992717 1 0 0 I I #
coedge $-1 $585 $440 $577 $652 forward $435 $-1 #
vertex $-1 $441 $655 #
straight-curve $-1 0 21.078710952142487 6.6734348443992717 -1 0 0 I I #
point $-1 -41.473433637501145 21.078710952142487 6.6734348443992717 #
coedge $-1 $444 $581 $446 $588 forward $435 $-1 #
straight-curve $-1 -41.473433637501145 0 6.6734348443992717 0 1 0 I I #
coedge $-1 $447 $446 $651 $656 forward $448 $-1 #
edge $-1 $657 -45.949948558342214 $449 -41.473433637501145 $446 $658 forward 7 unknown #
point $-1 -41.473433637501145 -21.078710952142487 6.6734348443992717 #
edge $-1 $591 -21.078710952142487 $579 21.078710952142487 $576 $659 forward 7 unknown #
vertex $-1 $590 $660 #
straight-curve $-1 -43.71169109792168 -21.078710952142487 3.6734348443992717 -1 0 0 I I #
edge $-1 $594 24.51532696451202 $597 28.478220481725838 $456 $661 forward 7 unknown #
vertex $-1 $470 $662 #
straight-curve $-1 -25.986159223372361 -39.349223642489676 6.6734348443992708 0 -1 0 I I #
edge $-1 $597 -16.32687817463756 $467 -2.991683922832042 $466 $663 forward 7 unknown #
vertex $-1 $596 $664 #
straight-curve $-1 -25.986159223372361 -21.078710952142494 2.7105413271854459 0 0.71933979245794832 0.69465837861970381 I I #
point $-1 -25.986159223372361 -16.97501467791075 6.6734348443992708 #
point $-1 -12.650964971566843 -21.078710952142487 2.7105413271854526 #
straight-curve $-1 0 -21.078710952142487 6.6734348443992717 1 0 0 I I #
vertex $-1 $473 $665 #
point $-1 -21.176103722856499 -17.622176102512107 3.237392446628836 #
vertex $-1 $477 $666 #
point $-1 -15.461020472082708 -17.622176102512107 3.237392446628836 #
edge $-1 $607 24.51532696451202 $610 28.478220481725838 $482 $667 forward 7 unknown #
vertex $-1 $496 $668 #
straight-curve $-1 13.249016953708249 -39.349223642489676 6.6734348443992708 0 -1 0 I I #
edge $-1 $610 3.2907099139027451 $493 16.625904165708263 $492 $669 forward 7 unknown #
vertex $-1 $609 $670 #
straight-curve $-1 13.249016953708249 -21.078710952142494 2.7105413271854459 0 0.71933979245794832 0.69465837861970381 I I #
point $-1 13.249016953708249 -16.97501467791075 6.6734348443992708 #
point $-1 26.584211205513768 -21.078710952142487 2.7105413271854526 #
straight-curve $-1 0 -21.078710952142487 6.6734348443992717 1 0 0 I I #
vertex $-1 $499 $671 #
point $-1 18.059072454224108 -17.622176102512107 3.237392446628836 #
vertex $-1 $503 $672 #
point $-1 23.774155704997909 -17.622176102512107 3.237392446628836 #
coedge $-1 $518 $517 $510 $620 forward $507 $-1 #
edge $-1 $621 39.157830137920712 $624 43.12072365513454 $619 $673 forward 7 unknown #
vertex $-1 $522 $674 #
straight-curve $-1 -12.650964971566843 24.186468080894414 6.6734348443992744 0 1 0 I I #
edge $-1 $624 2.991683922832042 $519 16.32687817463756 $518 $675 forward 7 unknown #
vertex $-1 $623 $676 #
straight-curve $-1 -12.650964971566843 -9.2468001710480294 31.995547674002836 0 -0.71933979245794832 0.69465837861970381 I I #
point $-1 -12.650964971566843 16.97501467791075 6.6734348443992708 #
point $-1 -25.986159223372361 21.078710952142487 2.7105413271854495 #
straight-curve $-1 0 21.078710952142487 6.6734348443992717 -1 0 0 I I #
vertex $-1 $525 $677 #
point $-1 -21.176103722856499 17.622176102512107 3.2373924466288395 #
vertex $-1 $529 $678 #
point $-1 -15.461020472082708 17.622176102512107 3.2373924466288395 #
coedge $-1 $544 $543 $536 $634 forward $533 $-1 #
edge $-1 $635 39.157830137920712 $638 43.12072365513454 $633 $679 forward 7 unknown #
vertex $-1 $548 $680 #
straight-curve $-1 26.584211205513768 24.186468080894414 6.6734348443992744 0 1 0 I I #
edge $-1 $638 -16.625904165708263 $545 -3.2907099139027451 $544 $681 forward 7 unknown #
vertex $-1 $637 $682 #
straight-curve $-1 26.584211205513768 -9.2468001710480294 31.995547674002836 0 -0.71933979245794832 0.69465837861970381 I I #
point $-1 26.584211205513768 16.97501467791075 6.6734348443992708 #
point $-1 13.249016953708249 21.078710952142487 2.7105413271854495 #
straight-curve $-1 0 21.078710952142487 6.6734348443992717 -1 0 0 I I #
vertex $-1 $551 $683 #
point $-1 18.059072454224108 17.622176102512107 3.2373924466288395 #
vertex $-1 $555 $684 #
point $-1 23.774155704997909 17.622176102512107 3.2373924466288395 #
straight-curve $-1 -41.473433637501145 21.078710952142487 0 0 0 -1 I I #
point $-1 -41.473433637501145 -21.078710952142487 -6.6734348443992717 #
straight-curve $-1 -41.473433637501145 0 -6.6734348443992717 0 1 0 I I #
point $-1 -41.473433637501145 21.078710952142487 -6.6734348443992717 #
coedge $-1 $577 $576 $587 $656 reversed $300 $-1 #
edge $-1 $582 -21.078710952142487 $657 21.078710952142487 $577 $685 forward 7 unknown #
straight-curve $-1 -45.949948558342214 21.078710952142487 5.1734348443992717 0 0 -1 I I #
point $-1 -45.949948558342214 21.078710952142487 3.6734348443992717 #
point $-1 -45.949948558342214 21.078710952142487 6.6734348443992717 #
edge $-1 $657 -1.5 $591 1.5 $651 $686 forward 7 unknown #
vertex $-1 $652 $687 #
straight-curve $-1 0 -21.078710952142487 6.6734348443992717 1 0 0 I I #
straight-curve $-1 -45.949948558342214 0 3.6734348443992717 0 1 0 I I #
point $-1 -45.949948558342214 -21.078710952142487 3.6734348443992717 #
straight-curve $-1 -25.986159223372361 -21.078710952142487 31.188761808911291 0 0 -1 I I #
point $-1 -25.986159223372361 -21.078710952142487 6.6734348443992717 #
straight-curve $-1 -9.6592810487348011 -21.078710952142487 2.7105413271854539 1 0 0 I I #
point $-1 -25.986159223372361 -21.078710952142487 2.7105413271854526 #
point $-1 -22.176103722856499 -16.9275177238924 2.5180526541708881 #
point $-1 -16.461020472082708 -16.9275177238924 2.5180526541708881 #
straight-curve $-1 13.249016953708249 -21.078710952142487 31.188761808911291 0 0 -1 I I #
point $-1 13.249016953708249 -21.078710952142487 6.6734348443992717 #
straight-curve $-1 9.9583070398055042 -21.078710952142487 2.7105413271854539 1 0 0 I I #
point $-1 13.249016953708249 -21.078710952142487 2.7105413271854526 #
point $-1 17.059072454224108 -16.9275177238924 2.5180526541708881 #
point $-1 22.774155704997909 -16.9275177238924 2.5180526541708881 #
straight-curve $-1 -12.650964971566843 21.078710952142487 45.831264982319986 0 0 -1 I I #
point $-1 -12.650964971566843 21.078710952142487 6.6734348443992717 #
straight-curve $-1 -9.6592810487348011 21.078710952142487 2.7105413271854548 -1 0 0 I I #
point $-1 -12.650964971566843 21.078710952142487 2.7105413271854495 #
point $-1 -22.176103722856499 16.9275177238924 2.5180526541708916 #
point $-1 -16.461020472082708 16.9275177238924 2.5180526541708916 #
straight-curve $-1 26.584211205513768 21.078710952142487 45.831264982319986 0 0 -1 I I #
point $-1 26.584211205513768 21.078710952142487 6.6734348443992717 #
straight-curve $-1 9.9583070398055042 21.078710952142487 2.7105413271854548 -1 0 0 I I #
point $-1 26.584211205513768 21.078710952142487 2.7105413271854495 #
point $-1 17.059072454224108 16.9275177238924 2.5180526541708916 #
point $-1 22.774155704997909 16.9275177238924 2.5180526541708916 #
straight-curve $-1 -45.949948558342214 0 6.6734348443992717 0 -1 0 I I #
straight-curve $-1 -45.949948558342214 -21.078710952142487 5.1734348443992717 0 0 -1 I I #
point $-1 -45.949948558342214 -21.078710952142487 6.6734348443992717 #
End-of-ACIS-data 