500 0 12 0           
7 Unknown 11 ACIS 5.0 NT 24 Fri Mar 26 03:33:47 1999 
-1 9.9999999999999995e-007 1e-010 
body $-1 $12 $-1 $13 #
body $-1 $14 $-1 $15 #
body $-1 $16 $-1 $17 #
body $-1 $18 $-1 $19 #
body $-1 $20 $-1 $21 #
body $-1 $22 $-1 $23 #
body $-1 $24 $-1 $25 #
body $-1 $26 $-1 $27 #
body $-1 $28 $-1 $29 #
body $-1 $30 $-1 $31 #
body $-1 $32 $-1 $33 #
body $-1 $34 $-1 $35 #
lump $-1 $-1 $36 $0 #
transform $-1 1 0 0 0 1 0 0 0 1 73.593554490798667 42.060871395475132 8.5912413758591111 1 rotate no_reflect no_shear #
lump $-1 $-1 $37 $1 #
transform $-1 1 0 0 0 1 0 0 0 1 73.593554490798667 42.060871395475132 8.5912413758591111 1 rotate no_reflect no_shear #
lump $-1 $-1 $38 $2 #
transform $-1 1 0 0 0 1 0 0 0 1 73.593554490798667 42.060871395475132 8.5912413758591111 1 rotate no_reflect no_shear #
lump $-1 $-1 $39 $3 #
transform $-1 1 0 0 0 1 0 0 0 1 73.593554490798667 42.060871395475132 8.5912413758591111 1 rotate no_reflect no_shear #
lump $-1 $-1 $40 $4 #
transform $-1 1 0 0 0 1 0 0 0 1 73.593554490798667 42.060871395475132 8.5912413758591111 1 rotate no_reflect no_shear #
lump $-1 $-1 $41 $5 #
transform $-1 1 0 0 0 1 0 0 0 1 73.593554490798667 42.060871395475132 8.5912413758591111 1 rotate no_reflect no_shear #
lump $-1 $-1 $42 $6 #
transform $-1 1 0 0 0 1 0 0 0 1 73.593554490798667 42.060871395475132 8.5912413758591111 1 rotate no_reflect no_shear #
lump $-1 $-1 $43 $7 #
transform $-1 1 0 0 0 1 0 0 0 1 73.593554490798667 42.060871395475132 8.5912413758591111 1 rotate no_reflect no_shear #
lump $-1 $-1 $44 $8 #
transform $-1 1 0 0 0 1 0 0 0 1 73.593554490798667 42.060871395475132 8.5912413758591111 1 rotate no_reflect no_shear #
lump $-1 $-1 $45 $9 #
transform $-1 1 0 0 0 1 0 0 0 1 73.593554490798667 42.060871395475132 8.5912413758591111 1 rotate no_reflect no_shear #
lump $-1 $-1 $46 $10 #
transform $-1 1 0 0 0 1 0 0 0 1 73.593554490798667 42.060871395475132 8.5912413758591111 1 rotate no_reflect no_shear #
lump $-1 $-1 $47 $11 #
transform $-1 1 0 0 0 1 0 0 0 1 73.593554490798667 42.060871395475132 8.5912413758591111 1 rotate no_reflect no_shear #
shell $-1 $-1 $-1 $48 $-1 $12 #
shell $-1 $-1 $-1 $49 $-1 $14 #
shell $-1 $-1 $-1 $50 $-1 $16 #
shell $-1 $-1 $-1 $51 $-1 $18 #
shell $-1 $-1 $-1 $52 $-1 $20 #
shell $-1 $-1 $-1 $53 $-1 $22 #
shell $-1 $-1 $-1 $54 $-1 $24 #
shell $-1 $-1 $-1 $55 $-1 $26 #
shell $-1 $-1 $-1 $56 $-1 $28 #
shell $-1 $-1 $-1 $57 $-1 $30 #
shell $-1 $-1 $-1 $58 $-1 $32 #
shell $-1 $-1 $-1 $59 $-1 $34 #
face $-1 $60 $61 $36 $-1 $62 forward single #
face $-1 $63 $64 $37 $-1 $65 forward single #
face $-1 $66 $67 $38 $-1 $68 reversed single #
face $-1 $69 $70 $39 $-1 $71 forward single #
face $-1 $72 $73 $40 $-1 $74 reversed single #
face $-1 $75 $76 $41 $-1 $77 forward single #
face $-1 $78 $79 $42 $-1 $80 reversed single #
face $-1 $81 $82 $43 $-1 $83 forward single #
face $-1 $84 $85 $44 $-1 $86 forward single #
face $-1 $87 $88 $45 $-1 $89 reversed single #
face $-1 $90 $91 $46 $-1 $92 forward single #
face $-1 $93 $94 $47 $-1 $95 forward single #
face $-1 $96 $97 $36 $-1 $98 reversed single #
loop $-1 $-1 $99 $48 #
plane-surface $-1 0 0 8.5912413758591111 0 0 1 1 0 0 forward_v I I I I #
face $-1 $100 $101 $37 $-1 $102 reversed single #
loop $-1 $-1 $103 $49 #
plane-surface $-1 0 -42.060871395475132 0 0 1 0 0 0 1 forward_v I I I I #
face $-1 $104 $105 $38 $-1 $106 reversed single #
loop $-1 $-1 $107 $50 #
plane-surface $-1 62.699617806231473 -23.207321820685859 210.88029900822528 0 -1 0 -0.66913061440640931 0 -0.74314481823134659 forward_v I I I I #
face $-1 $108 $109 $39 $-1 $110 forward single #
loop $-1 $111 $112 $51 #
cone-surface $-1 69.003485856415637 -28.923457470445651 4.1447701999314113 -0.66913061440640931 0 -0.74314481823134659 1.1147172273470198 0 -1.003695921609614 1 I I 0 1 1.5 forward I I I I #
face $-1 $113 $114 $40 $-1 $115 reversed single #
loop $-1 $-1 $116 $52 #
plane-surface $-1 62.699617806231473 30.628600095955548 210.88029900822528 0 1 0 0.66913061440640931 0 0.74314481823134659 forward_v I I I I #
face $-1 $117 $118 $41 $-1 $119 forward single #
loop $-1 $120 $121 $53 #
cone-surface $-1 69.003485856415637 36.34473574571534 4.1447701999314113 -0.66913061440640931 0 -0.74314481823134659 1.1147172273470198 0 -1.003695921609614 1 I I 0 1 1.5 forward I I I I #
face $-1 $122 $123 $42 $-1 $124 reversed single #
loop $-1 $-1 $125 $54 #
plane-surface $-1 -191.14240755516096 -15.985671348213607 90.395835769856745 0 1 0 -0.79863551827123203 0 0.60181501223851219 forward_v I I I I #
face $-1 $126 $127 $43 $-1 $128 forward single #
loop $-1 $129 $130 $55 #
cone-surface $-1 -69.924351181359938 -11.961997663751546 4.3624083421953479 0.79863551827123203 0 -0.60181501223851219 0.90272251835776829 0 1.197953277406848 1 I I 0 1 1.5 forward I I I I #
face $-1 $131 $132 $44 $-1 $133 forward single #
loop $-1 $134 $135 $56 #
cone-surface $-1 -69.924351181359938 -5.9264871370584586 4.3624083421953479 0.79863551827123203 0 -0.60181501223851219 0.90272251835776829 0 1.197953277406848 1 I I 0 1 1.5 forward I I I I #
face $-1 $136 $137 $45 $-1 $138 reversed single #
loop $-1 $-1 $139 $57 #
plane-surface $-1 -191.14240755516096 9.3240917278660973 90.395835769856745 0 1 0 -0.79863551827123203 0 0.60181501223851219 forward_v I I I I #
face $-1 $140 $141 $46 $-1 $142 forward single #
loop $-1 $143 $144 $58 #
cone-surface $-1 -69.924351181359938 13.347765412328158 4.3624083421953479 0.79863551827123203 0 -0.60181501223851219 0.90272251835776829 0 1.197953277406848 1 I I 0 1 1.5 forward I I I I #
face $-1 $145 $146 $47 $-1 $147 forward single #
loop $-1 $148 $149 $59 #
cone-surface $-1 -69.924351181359938 19.383275939021246 4.3624083421953479 0.79863551827123203 0 -0.60181501223851219 0.90272251835776829 0 1.197953277406848 1 I I 0 1 1.5 forward I I I I #
face $-1 $150 $151 $36 $-1 $152 reversed single #
loop $-1 $-1 $153 $60 #
plane-surface $-1 0 0 -8.5912413758591111 0 0 1 1 0 0 forward_v I I I I #
coedge $-1 $154 $155 $156 $157 forward $61 $-1 #
face $-1 $158 $159 $37 $-1 $160 reversed single #
loop $-1 $-1 $161 $63 #
plane-surface $-1 0 0 -8.5912413758591111 0 0 1 1 0 0 forward_v I I I I #
coedge $-1 $162 $163 $164 $165 forward $64 $-1 #
face $-1 $166 $167 $38 $-1 $168 reversed single #
loop $-1 $-1 $169 $66 #
plane-surface $-1 -35.787782859327876 -28.923457470445651 101.49896165809872 0.66913061440640931 0 0.74314481823134659 0.74314481823134659 0 -0.66913061440640931 forward_v I I I I #
coedge $-1 $170 $171 $172 $173 reversed $67 $-1 #
face $-1 $-1 $174 $39 $-1 $175 forward single #
loop $-1 $176 $177 $69 #
cone-surface $-1 67.010000624982993 -28.923457470445651 1.9307806019900671 -0.66913061440640931 0 -0.74314481823134659 0.55735861367350992 0 -0.50184796080480698 1 I I -0.70710678118654757 0.70710678118654757 0.75 forward I I I I #
loop $-1 $-1 $178 $51 #
coedge $-1 $112 $112 $179 $180 reversed $70 $-1 #
face $-1 $181 $182 $40 $-1 $183 reversed single #
loop $-1 $-1 $184 $72 #
plane-surface $-1 -35.787782859327876 36.34473574571534 101.49896165809872 0.66913061440640931 0 0.74314481823134659 0.74314481823134659 0 -0.66913061440640931 forward_v I I I I #
coedge $-1 $185 $186 $187 $188 reversed $73 $-1 #
face $-1 $-1 $189 $41 $-1 $190 forward single #
loop $-1 $191 $192 $75 #
cone-surface $-1 67.010000624982993 36.34473574571534 1.9307806019900671 -0.66913061440640931 0 -0.74314481823134659 0.55735861367350992 0 -0.50184796080480698 1 I I -0.70710678118654757 0.70710678118654757 0.75 forward I I I I #
loop $-1 $-1 $193 $53 #
coedge $-1 $121 $121 $194 $195 reversed $76 $-1 #
face $-1 $196 $197 $42 $-1 $198 reversed single #
loop $-1 $-1 $199 $78 #
plane-surface $-1 -73.593554490798667 -8.9442424004050025 1.8164239767455115 -0.79863551827123203 0 0.60181501223851219 0.60181501223851219 0 0.79863551827123203 forward_v I I I I #
coedge $-1 $200 $201 $202 $203 reversed $79 $-1 #
face $-1 $-1 $204 $43 $-1 $205 forward single #
loop $-1 $206 $207 $81 #
cone-surface $-1 -68.208766705547234 -11.961997663751546 3.0696227489094969 0.79863551827123203 0 -0.60181501223851219 0.45136125917888414 0 0.59897663870342399 1 I I -0.70710678118654757 0.70710678118654757 0.75 forward I I I I #
loop $-1 $-1 $208 $55 #
coedge $-1 $130 $130 $209 $210 reversed $82 $-1 #
face $-1 $-1 $211 $44 $-1 $212 forward single #
loop $-1 $213 $214 $84 #
cone-surface $-1 -68.208766705547234 -5.9264871370584586 3.0696227489094969 0.79863551827123203 0 -0.60181501223851219 0.45136125917888414 0 0.59897663870342399 1 I I -0.70710678118654757 0.70710678118654757 0.75 forward I I I I #
loop $-1 $-1 $215 $56 #
coedge $-1 $135 $135 $216 $217 reversed $85 $-1 #
face $-1 $218 $219 $45 $-1 $220 reversed single #
loop $-1 $-1 $221 $87 #
plane-surface $-1 -73.593554490798667 16.365520675674702 1.8164239767455115 -0.79863551827123203 0 0.60181501223851219 0.60181501223851219 0 0.79863551827123203 forward_v I I I I #
coedge $-1 $222 $223 $224 $225 reversed $88 $-1 #
face $-1 $-1 $226 $46 $-1 $227 forward single #
loop $-1 $228 $229 $90 #
cone-surface $-1 -68.208766705547234 13.347765412328158 3.0696227489094969 0.79863551827123203 0 -0.60181501223851219 0.45136125917888414 0 0.59897663870342399 1 I I -0.70710678118654757 0.70710678118654757 0.75 forward I I I I #
loop $-1 $-1 $230 $58 #
coedge $-1 $144 $144 $231 $232 reversed $91 $-1 #
face $-1 $-1 $233 $47 $-1 $234 forward single #
loop $-1 $235 $236 $93 #
cone-surface $-1 -68.208766705547234 19.383275939021246 3.0696227489094969 0.79863551827123203 0 -0.60181501223851219 0.45136125917888414 0 0.59897663870342399 1 I I -0.70710678118654757 0.70710678118654757 0.75 forward I I I I #
loop $-1 $-1 $237 $59 #
coedge $-1 $149 $149 $238 $239 reversed $94 $-1 #
face $-1 $240 $241 $36 $-1 $242 reversed single #
loop $-1 $-1 $243 $96 #
plane-surface $-1 0 -42.060871395475132 0 0 1 0 0 0 1 forward_v I I I I #
coedge $-1 $244 $245 $246 $247 forward $97 $-1 #
coedge $-1 $248 $99 $249 $250 forward $61 $-1 #
coedge $-1 $99 $248 $251 $252 forward $61 $-1 #
coedge $-1 $253 $254 $99 $157 reversed $255 $-1 #
edge $-1 $256 -42.060871395475132 $257 42.060871395475132 $156 $258 forward 7 unknown #
face $-1 $259 $260 $37 $-1 $261 forward single #
loop $-1 $-1 $262 $100 #
plane-surface $-1 73.593554490798667 0 0 -1 0 0 0 0 1 forward_v I I I I #
coedge $-1 $263 $264 $265 $266 forward $101 $-1 #
coedge $-1 $265 $103 $262 $267 reversed $64 $-1 #
coedge $-1 $103 $265 $268 $269 reversed $64 $-1 #
coedge $-1 $270 $271 $103 $165 reversed $260 $-1 #
edge $-1 $272 -73.593554490798667 $273 73.593554490798667 $164 $274 forward 7 unknown #
face $-1 $275 $276 $38 $-1 $277 reversed single #
loop $-1 $-1 $278 $104 #
plane-surface $-1 62.699617806231473 -34.63959312020544 210.88029900822528 0 1 0 0.66913061440640931 0 0.74314481823134659 forward_v I I I I #
coedge $-1 $279 $280 $281 $282 reversed $105 $-1 #
coedge $-1 $171 $107 $283 $284 reversed $67 $-1 #
coedge $-1 $107 $170 $279 $285 reversed $67 $-1 #
coedge $-1 $281 $286 $107 $173 forward $287 $-1 #
edge $-1 $288 -42.24374558768293 $289 -36.046882860172623 $172 $290 forward 7 unknown #
loop $-1 $-1 $179 $108 #
plane-surface $-1 -35.787782859327876 -28.923457470445651 101.49896165809872 0.66913061440640931 0 0.74314481823134659 0.74314481823134659 0 -0.66913061440640931 forward_v I I I I #
loop $-1 $-1 $291 $69 #
coedge $-1 $177 $177 $178 $292 reversed $109 $-1 #
coedge $-1 $178 $178 $177 $292 forward $111 $-1 #
coedge $-1 $179 $179 $112 $180 forward $174 $-1 #
edge $-1 $293 0 $293 6.2831853071796004 $179 $294 forward 7 unknown #
face $-1 $295 $296 $40 $-1 $297 forward single #
loop $-1 $-1 $187 $113 #
plane-surface $-1 73.593554490798667 0 0 -1 0 0 0 0 1 forward_v I I I I #
coedge $-1 $298 $299 $300 $301 reversed $114 $-1 #
coedge $-1 $186 $116 $302 $303 reversed $73 $-1 #
coedge $-1 $116 $185 $298 $304 reversed $73 $-1 #
coedge $-1 $300 $305 $116 $188 forward $182 $-1 #
edge $-1 $306 96.848908128253527 $307 102.42858851157327 $187 $308 forward 7 unknown #
loop $-1 $-1 $194 $117 #
plane-surface $-1 -35.787782859327876 36.34473574571534 101.49896165809872 0.66913061440640931 0 0.74314481823134659 0.74314481823134659 0 -0.66913061440640931 forward_v I I I I #
loop $-1 $-1 $309 $75 #
coedge $-1 $192 $192 $193 $310 reversed $118 $-1 #
coedge $-1 $193 $193 $192 $310 forward $120 $-1 #
coedge $-1 $194 $194 $121 $195 forward $189 $-1 #
edge $-1 $311 0 $311 6.2831853071796004 $194 $312 forward 7 unknown #
face $-1 $313 $314 $42 $-1 $315 reversed single #
loop $-1 $-1 $316 $122 #
plane-surface $-1 -191.14240755516096 -1.9028134525963978 90.395835769856745 0 -1 0 0.79863551827123203 0 -0.60181501223851219 forward_v I I I I #
coedge $-1 $317 $318 $319 $320 reversed $123 $-1 #
coedge $-1 $201 $125 $321 $322 reversed $79 $-1 #
coedge $-1 $125 $200 $317 $323 reversed $79 $-1 #
coedge $-1 $319 $324 $125 $203 forward $325 $-1 #
edge $-1 $326 21.977649286781812 $327 27.082840231440684 $202 $328 forward 7 unknown #
loop $-1 $-1 $209 $126 #
plane-surface $-1 -73.593554490798667 -8.9442424004050025 1.8164239767455115 -0.79863551827123203 0 0.60181501223851219 0.60181501223851219 0 0.79863551827123203 forward_v I I I I #
loop $-1 $-1 $329 $81 #
coedge $-1 $207 $207 $208 $330 reversed $127 $-1 #
coedge $-1 $208 $208 $207 $330 forward $129 $-1 #
coedge $-1 $209 $209 $130 $210 forward $204 $-1 #
edge $-1 $331 0 $331 6.2831853071796004 $209 $332 forward 7 unknown #
loop $-1 $-1 $216 $131 #
plane-surface $-1 -73.593554490798667 -8.9442424004050025 1.8164239767455115 -0.79863551827123203 0 0.60181501223851219 0.60181501223851219 0 0.79863551827123203 forward_v I I I I #
loop $-1 $-1 $333 $84 #
coedge $-1 $214 $214 $215 $334 reversed $132 $-1 #
coedge $-1 $215 $215 $214 $334 forward $134 $-1 #
coedge $-1 $216 $216 $135 $217 forward $211 $-1 #
edge $-1 $335 0 $335 6.2831853071796004 $216 $336 forward 7 unknown #
face $-1 $337 $338 $45 $-1 $339 forward single #
loop $-1 $-1 $340 $136 #
plane-surface $-1 -191.14240755516096 23.406949623483307 90.395835769856745 0 -1 0 0.79863551827123203 0 -0.60181501223851219 forward_v I I I I #
coedge $-1 $341 $342 $343 $344 reversed $137 $-1 #
coedge $-1 $223 $139 $345 $346 reversed $88 $-1 #
coedge $-1 $139 $222 $341 $347 reversed $88 $-1 #
coedge $-1 $343 $348 $139 $225 forward $338 $-1 #
edge $-1 $349 21.977649286781812 $350 27.082840231440684 $224 $351 forward 7 unknown #
loop $-1 $-1 $231 $140 #
plane-surface $-1 -73.593554490798667 16.365520675674702 1.8164239767455115 -0.79863551827123203 0 0.60181501223851219 0.60181501223851219 0 0.79863551827123203 forward_v I I I I #
loop $-1 $-1 $352 $90 #
coedge $-1 $229 $229 $230 $353 reversed $141 $-1 #
coedge $-1 $230 $230 $229 $353 forward $143 $-1 #
coedge $-1 $231 $231 $144 $232 forward $226 $-1 #
edge $-1 $354 0 $354 6.2831853071796004 $231 $355 forward 7 unknown #
loop $-1 $-1 $238 $145 #
plane-surface $-1 -73.593554490798667 16.365520675674702 1.8164239767455115 -0.79863551827123203 0 0.60181501223851219 0.60181501223851219 0 0.79863551827123203 forward_v I I I I #
loop $-1 $-1 $356 $93 #
coedge $-1 $236 $236 $237 $357 reversed $146 $-1 #
coedge $-1 $237 $237 $236 $357 forward $148 $-1 #
coedge $-1 $238 $238 $149 $239 forward $233 $-1 #
edge $-1 $358 0 $358 6.2831853071796004 $238 $359 forward 7 unknown #
face $-1 $360 $361 $36 $-1 $362 reversed single #
loop $-1 $-1 $363 $150 #
plane-surface $-1 -73.593554490798667 0 0 1 0 0 0 0 -1 forward_v I I I I #
coedge $-1 $364 $251 $365 $366 forward $151 $-1 #
coedge $-1 $367 $153 $364 $368 forward $97 $-1 #
coedge $-1 $153 $367 $369 $370 forward $97 $-1 #
coedge $-1 $254 $253 $153 $247 reversed $255 $-1 #
edge $-1 $371 -42.060871395475132 $372 42.060871395475132 $246 $373 forward 7 unknown #
coedge $-1 $155 $154 $374 $375 forward $61 $-1 #
coedge $-1 $376 $377 $154 $250 reversed $361 $-1 #
edge $-1 $257 -73.593554490798667 $378 73.593554490798667 $249 $379 forward 7 unknown #
coedge $-1 $243 $380 $155 $252 reversed $151 $-1 #
edge $-1 $381 -73.593554490798667 $256 73.593554490798667 $251 $382 forward 7 unknown #
coedge $-1 $246 $156 $380 $383 forward $255 $-1 #
coedge $-1 $156 $246 $376 $384 reversed $255 $-1 #
loop $-1 $-1 $253 $360 #
vertex $-1 $157 $385 #
vertex $-1 $157 $386 #
straight-curve $-1 73.593554490798667 0 8.5912413758591111 0 1 0 I I #
face $-1 $387 $388 $37 $-1 $389 reversed single #
loop $-1 $-1 $271 $158 #
plane-surface $-1 0 -45.771510533109975 -4.0772935083379576 0 0 1 1 0 0 forward_v I I I I #
coedge $-1 $390 $391 $162 $267 forward $159 $-1 #
coedge $-1 $392 $161 $391 $393 forward $101 $-1 #
coedge $-1 $161 $392 $394 $395 forward $101 $-1 #
coedge $-1 $163 $162 $161 $266 reversed $64 $-1 #
edge $-1 $396 -73.593554490798667 $397 73.593554490798667 $161 $398 forward 7 unknown #
edge $-1 $397 -8.5912413758591111 $273 -4.0772935083379576 $262 $399 forward 7 unknown #
coedge $-1 $394 $400 $163 $269 forward $401 $-1 #
edge $-1 $272 4.0772935083379576 $396 8.5912413758591111 $268 $402 forward 7 unknown #
coedge $-1 $403 $164 $400 $404 forward $260 $-1 #
coedge $-1 $164 $403 $390 $405 forward $260 $-1 #
vertex $-1 $269 $406 #
vertex $-1 $405 $407 #
straight-curve $-1 0 -42.060871395475132 -4.0772935083379576 1 0 0 I I #
face $-1 $-1 $287 $38 $-1 $408 forward single #
loop $-1 $-1 $409 $166 #
plane-surface $-1 73.593554490798667 0 0 -1 0 0 0 0 1 forward_v I I I I #
coedge $-1 $410 $411 $412 $413 reversed $167 $-1 #
coedge $-1 $414 $169 $171 $285 forward $105 $-1 #
coedge $-1 $169 $414 $410 $415 forward $105 $-1 #
coedge $-1 $412 $172 $169 $282 forward $287 $-1 #
edge $-1 $289 8.7455930854630335 $416 20.177864384982612 $281 $417 forward 7 unknown #
coedge $-1 $418 $419 $170 $284 forward $276 $-1 #
edge $-1 $420 -102.42858851157327 $288 -96.848908128253527 $283 $421 forward 7 unknown #
edge $-1 $289 138.84840759327494 $420 147.18710898159733 $171 $422 forward 7 unknown #
coedge $-1 $172 $412 $418 $423 forward $287 $-1 #
loop $-1 $-1 $412 $275 #
vertex $-1 $284 $424 #
vertex $-1 $173 $425 #
straight-curve $-1 31.349808903115736 -23.207321820685859 8.5912413758591128 -1 0 0 I I #
coedge $-1 $291 $291 $-1 $426 reversed $176 $-1 #
edge $-1 $427 0 $427 6.2831853071796004 $177 $428 forward 7 unknown #
vertex $-1 $180 $429 #
ellipse-curve $-1 70.495123127043485 -28.923457470445651 5.801401184199257 0.66913061440640931 0 0.74314481823134659 1.1147172273470198 0 -1.003695921609614 1 I I #
face $-1 $-1 $430 $40 $-1 $431 reversed single #
loop $-1 $-1 $302 $181 #
plane-surface $-1 0 0 8.5912413758591111 0 0 1 1 0 0 forward_v I I I I #
coedge $-1 $432 $184 $186 $304 forward $114 $-1 #
coedge $-1 $184 $432 $433 $434 reversed $114 $-1 #
coedge $-1 $435 $187 $184 $301 forward $182 $-1 #
edge $-1 $307 12.456232223097878 $436 23.888503522617462 $300 $437 forward 7 unknown #
coedge $-1 $438 $439 $185 $303 forward $296 $-1 #
edge $-1 $440 36.046882860172623 $306 42.24374558768293 $302 $441 forward 7 unknown #
edge $-1 $307 -147.18710898159733 $440 -138.84840759327494 $186 $442 forward 7 unknown #
coedge $-1 $187 $435 $438 $443 reversed $182 $-1 #
vertex $-1 $443 $444 #
vertex $-1 $188 $445 #
straight-curve $-1 73.593554490798667 30.628600095955548 105.44014950411264 0 0 -1 I I #
coedge $-1 $309 $309 $-1 $446 reversed $191 $-1 #
edge $-1 $447 0 $447 6.2831853071796004 $192 $448 forward 7 unknown #
vertex $-1 $195 $449 #
ellipse-curve $-1 70.495123127043485 36.34473574571534 5.801401184199257 0.66913061440640931 0 0.74314481823134659 1.1147172273470198 0 -1.003695921609614 1 I I #
face $-1 $-1 $325 $42 $-1 $450 forward single #
loop $-1 $-1 $451 $196 #
plane-surface $-1 -73.593554490798667 0 0 1 0 0 0 0 -1 forward_v I I I I #
coedge $-1 $452 $453 $454 $455 reversed $197 $-1 #
coedge $-1 $456 $199 $201 $323 forward $123 $-1 #
coedge $-1 $199 $456 $452 $457 forward $123 $-1 #
coedge $-1 $454 $202 $199 $320 forward $325 $-1 #
edge $-1 $327 -11.513550148011106 $458 2.5693077476061035 $319 $459 forward 7 unknown #
coedge $-1 $460 $461 $200 $322 forward $314 $-1 #
edge $-1 $462 -43.381493908182861 $326 -36.60667650906926 $321 $463 forward 7 unknown #
edge $-1 $327 -8.4829903555738682 $462 0 $201 $464 forward 7 unknown #
coedge $-1 $202 $454 $460 $465 forward $325 $-1 #
loop $-1 $-1 $454 $313 #
vertex $-1 $322 $466 #
vertex $-1 $203 $467 #
straight-curve $-1 -95.571203777580479 -15.985671348213607 8.5912413758591128 1 0 0 I I #
coedge $-1 $329 $329 $-1 $468 reversed $206 $-1 #
edge $-1 $469 0 $469 6.2831853071796004 $207 $470 forward 7 unknown #
vertex $-1 $210 $471 #
ellipse-curve $-1 -71.040959018469223 -11.961997663751546 5.2038326763023175 -0.79863551827123203 0 0.60181501223851219 0.90272251835776829 0 1.197953277406848 1 I I #
coedge $-1 $333 $333 $-1 $472 reversed $213 $-1 #
edge $-1 $473 0 $473 6.2831853071796004 $214 $474 forward 7 unknown #
vertex $-1 $217 $475 #
ellipse-curve $-1 -71.040959018469223 -5.9264871370584586 5.2038326763023175 -0.79863551827123203 0 0.60181501223851219 0.90272251835776829 0 1.197953277406848 1 I I #
face $-1 $-1 $476 $45 $-1 $477 reversed single #
loop $-1 $-1 $224 $218 #
plane-surface $-1 0 0 8.5912413758591111 0 0 1 1 0 0 forward_v I I I I #
coedge $-1 $478 $479 $480 $481 reversed $219 $-1 #
coedge $-1 $482 $221 $223 $347 forward $137 $-1 #
coedge $-1 $221 $482 $478 $483 forward $137 $-1 #
coedge $-1 $480 $224 $221 $344 forward $338 $-1 #
edge $-1 $350 1.1413313900287463 $484 15.224189285645956 $343 $485 forward 7 unknown #
coedge $-1 $486 $487 $222 $346 forward $476 $-1 #
edge $-1 $488 -43.381493908182861 $349 -36.60667650906926 $345 $489 forward 7 unknown #
edge $-1 $350 -8.4829903555738682 $488 0 $223 $490 forward 7 unknown #
coedge $-1 $224 $480 $486 $491 forward $338 $-1 #
vertex $-1 $346 $492 #
vertex $-1 $225 $493 #
straight-curve $-1 -95.571203777580479 9.3240917278660973 8.5912413758591128 1 0 0 I I #
coedge $-1 $352 $352 $-1 $494 reversed $228 $-1 #
edge $-1 $495 0 $495 6.2831853071796004 $229 $496 forward 7 unknown #
vertex $-1 $232 $497 #
ellipse-curve $-1 -71.040959018469223 13.347765412328158 5.2038326763023175 -0.79863551827123203 0 0.60181501223851219 0.90272251835776829 0 1.197953277406848 1 I I #
coedge $-1 $356 $356 $-1 $498 reversed $235 $-1 #
edge $-1 $499 0 $499 6.2831853071796004 $236 $500 forward 7 unknown #
vertex $-1 $239 $501 #
ellipse-curve $-1 -71.040959018469223 19.383275939021246 5.2038326763023175 -0.79863551827123203 0 0.60181501223851219 0.90272251835776829 0 1.197953277406848 1 I I #
face $-1 $-1 $255 $36 $-1 $502 reversed single #
loop $-1 $-1 $376 $240 #
plane-surface $-1 0 42.060871395475132 0 0 -1 0 0 0 -1 forward_v I I I I #
coedge $-1 $503 $374 $377 $504 forward $241 $-1 #
coedge $-1 $380 $243 $244 $368 reversed $151 $-1 #
coedge $-1 $374 $503 $243 $366 reversed $241 $-1 #
edge $-1 $381 -8.5912413758591111 $505 8.5912413758591111 $365 $506 forward 7 unknown #
coedge $-1 $245 $244 $503 $507 forward $97 $-1 #
edge $-1 $372 -73.593554490798667 $505 73.593554490798667 $364 $508 forward 7 unknown #
coedge $-1 $377 $376 $245 $370 reversed $361 $-1 #
edge $-1 $509 -73.593554490798667 $371 73.593554490798667 $369 $510 forward 7 unknown #
vertex $-1 $247 $511 #
vertex $-1 $383 $512 #
straight-curve $-1 73.593554490798667 0 -8.5912413758591111 0 -1 0 I I #
coedge $-1 $363 $365 $248 $375 reversed $241 $-1 #
edge $-1 $378 -42.060871395475132 $381 42.060871395475132 $374 $513 forward 7 unknown #
coedge $-1 $369 $249 $254 $384 forward $361 $-1 #
coedge $-1 $249 $369 $363 $504 reversed $361 $-1 #
vertex $-1 $250 $514 #
straight-curve $-1 0 42.060871395475132 8.5912413758591111 -1 0 0 I I #
coedge $-1 $251 $364 $253 $383 reversed $151 $-1 #
vertex $-1 $375 $515 #
straight-curve $-1 0 -42.060871395475132 8.5912413758591111 1 0 0 I I #
edge $-1 $256 -8.5912413758591111 $372 8.5912413758591111 $253 $516 forward 7 unknown #
edge $-1 $257 -8.5912413758591111 $371 8.5912413758591111 $254 $517 forward 7 unknown #
point $-1 73.593554490798667 -42.060871395475132 8.5912413758591111 #
point $-1 73.593554490798667 42.060871395475132 8.5912413758591111 #
face $-1 $-1 $401 $37 $-1 $518 reversed single #
loop $-1 $-1 $519 $259 #
plane-surface $-1 0 -49.482149670744818 -6.3342674420985343 0 1 0 0 0 1 forward_v I I I I #
coedge $-1 $520 $262 $271 $405 reversed $159 $-1 #
coedge $-1 $262 $520 $263 $393 reversed $159 $-1 #
coedge $-1 $264 $263 $521 $522 forward $101 $-1 #
edge $-1 $397 42.060871395475132 $523 49.482149670744818 $391 $524 forward 7 unknown #
coedge $-1 $525 $268 $264 $395 reversed $401 $-1 #
edge $-1 $526 -49.482149670744818 $396 -42.060871395475132 $394 $527 forward 7 unknown #
vertex $-1 $269 $528 #
vertex $-1 $393 $529 #
straight-curve $-1 0 -42.060871395475132 -8.5912413758591111 1 0 0 I I #
straight-curve $-1 73.593554490798667 -42.060871395475132 0 0 0 1 I I #
coedge $-1 $268 $525 $270 $404 reversed $401 $-1 #
loop $-1 $-1 $268 $387 #
straight-curve $-1 -73.593554490798667 -42.060871395475132 0 0 0 -1 I I #
coedge $-1 $271 $270 $530 $531 forward $260 $-1 #
edge $-1 $272 -3.7106391376348427 $532 3.7106391376348427 $400 $533 forward 7 unknown #
edge $-1 $534 -3.7106391376348427 $273 3.7106391376348427 $390 $535 forward 7 unknown #
point $-1 -73.593554490798667 -42.060871395475132 -4.0772935083379576 #
point $-1 73.593554490798667 -42.060871395475132 -4.0772935083379576 #
plane-surface $-1 0 0 8.5912413758591111 0 0 1 1 0 0 forward_v I I I I #
coedge $-1 $419 $418 $411 $536 forward $276 $-1 #
coedge $-1 $411 $278 $280 $415 reversed $167 $-1 #
coedge $-1 $278 $410 $409 $536 reversed $167 $-1 #
coedge $-1 $286 $281 $278 $413 forward $287 $-1 #
edge $-1 $416 36.046882860172623 $537 42.24374558768293 $412 $538 forward 7 unknown #
coedge $-1 $280 $279 $419 $539 reversed $105 $-1 #
edge $-1 $540 -147.18710898159733 $416 -138.84840759327494 $410 $541 forward 7 unknown #
vertex $-1 $282 $542 #
straight-curve $-1 67.396691763288359 -14.461728735222826 8.5912413758590986 0 -1 0 I I #
coedge $-1 $409 $283 $286 $423 reversed $276 $-1 #
coedge $-1 $283 $409 $414 $539 forward $276 $-1 #
vertex $-1 $284 $543 #
straight-curve $-1 73.593554490798667 -23.207321820685859 105.44014950411264 0 0 1 I I #
straight-curve $-1 -35.787782859327876 -23.207321820685859 101.49896165809872 0.74314481823134659 0 -0.66913061440640931 I I #
edge $-1 $537 -34.63959312020544 $288 -23.207321820685859 $418 $544 forward 7 unknown #
point $-1 73.593554490798667 -23.207321820685859 8.5912413758591111 #
point $-1 67.396691763288359 -23.207321820685859 8.5912413758591128 #
edge $-1 $545 1 $545 0 $291 $-1 forward 7 unknown #
vertex $-1 $292 $546 #
ellipse-curve $-1 67.511848585787803 -28.923457470445651 2.4881392156635771 0.66913061440640931 0 0.74314481823134659 1.1147172273470198 0 -1.003695921609614 1 I I #
point $-1 71.609840354390514 -28.923457470445651 4.7977052625896324 #
loop $-1 $-1 $433 $295 #
plane-surface $-1 0 42.060871395475132 0 0 -1 0 0 0 -1 forward_v I I I I #
coedge $-1 $299 $298 $439 $547 reversed $114 $-1 #
coedge $-1 $548 $549 $299 $434 forward $430 $-1 #
edge $-1 $436 -99.931324999700166 $550 -91.592623611377803 $433 $551 forward 7 unknown #
coedge $-1 $305 $300 $549 $552 reversed $182 $-1 #
vertex $-1 $301 $553 #
straight-curve $-1 73.593554490798653 18.17236787285767 3.011560992539394 0 1 0 I I #
coedge $-1 $554 $302 $305 $443 forward $296 $-1 #
coedge $-1 $302 $554 $432 $547 forward $296 $-1 #
vertex $-1 $303 $555 #
straight-curve $-1 31.349808903115736 30.628600095955548 8.5912413758591128 1 0 0 I I #
straight-curve $-1 -35.787782859327876 30.628600095955548 101.49896165809872 -0.74314481823134659 0 0.66913061440640931 I I #
edge $-1 $306 30.628600095955548 $556 42.060871395475132 $305 $557 forward 7 unknown #
point $-1 73.593554490798667 30.628600095955548 8.5912413758591111 #
point $-1 73.593554490798681 30.628600095955548 3.0115609925393727 #
edge $-1 $558 1 $558 0 $309 $-1 forward 7 unknown #
vertex $-1 $310 $559 #
ellipse-curve $-1 67.511848585787803 36.34473574571534 2.4881392156635771 0.66913061440640931 0 0.74314481823134659 1.1147172273470198 0 -1.003695921609614 1 I I #
point $-1 71.609840354390514 36.34473574571534 4.7977052625896324 #
plane-surface $-1 0 0 8.5912413758591111 0 0 1 1 0 0 forward_v I I I I #
coedge $-1 $461 $460 $453 $560 forward $314 $-1 #
coedge $-1 $453 $316 $318 $457 reversed $197 $-1 #
coedge $-1 $316 $452 $451 $560 reversed $197 $-1 #
coedge $-1 $324 $319 $316 $455 forward $325 $-1 #
edge $-1 $458 -27.082840231440684 $561 -21.977649286781812 $454 $562 forward 7 unknown #
coedge $-1 $318 $317 $461 $563 reversed $123 $-1 #
edge $-1 $564 0 $458 8.4829903555738682 $452 $565 forward 7 unknown #
vertex $-1 $320 $566 #
straight-curve $-1 -68.488363546139794 -4.4721212002025013 8.5912413758591146 0 1 0 I I #
coedge $-1 $451 $321 $324 $465 reversed $314 $-1 #
coedge $-1 $321 $451 $456 $563 forward $314 $-1 #
vertex $-1 $322 $567 #
straight-curve $-1 -73.593554490798667 -15.985671348213607 45.197917884928373 0 0 1 I I #
straight-curve $-1 -73.593554490798667 -15.985671348213607 1.8164239767455115 -0.60181501223851219 0 -0.79863551827123203 I I #
edge $-1 $561 1.9028134525963978 $326 15.985671348213607 $460 $568 forward 7 unknown #
point $-1 -73.593554490798667 -15.985671348213607 8.5912413758591111 #
point $-1 -68.488363546139794 -15.985671348213607 8.5912413758591093 #
edge $-1 $569 1 $569 0 $329 $-1 forward 7 unknown #
vertex $-1 $330 $570 #
ellipse-curve $-1 -68.807743344250653 -11.961997663751546 3.520984008088381 -0.79863551827123203 0 0.60181501223851219 0.90272251835776829 0 1.197953277406848 1 I I #
point $-1 -70.138236500111461 -11.961997663751546 6.4017859537091617 #
edge $-1 $571 1 $571 0 $333 $-1 forward 7 unknown #
vertex $-1 $334 $572 #
ellipse-curve $-1 -68.807743344250653 -5.9264871370584586 3.520984008088381 -0.79863551827123203 0 0.60181501223851219 0.90272251835776829 0 1.197953277406848 1 I I #
point $-1 -70.138236500111461 -5.9264871370584586 6.4017859537091617 #
loop $-1 $-1 $345 $337 #
plane-surface $-1 -73.593554490798667 0 0 1 0 0 0 0 -1 forward_v I I I I #
coedge $-1 $479 $340 $342 $483 reversed $219 $-1 #
coedge $-1 $340 $478 $573 $574 reversed $219 $-1 #
coedge $-1 $348 $343 $340 $481 forward $338 $-1 #
edge $-1 $484 -27.082840231440684 $575 -21.977649286781812 $480 $576 forward 7 unknown #
coedge $-1 $342 $341 $487 $577 reversed $137 $-1 #
edge $-1 $578 0 $484 8.4829903555738682 $478 $579 forward 7 unknown #
vertex $-1 $344 $580 #
straight-curve $-1 -68.488363546139794 8.182760337837351 8.5912413758591146 0 1 0 I I #
coedge $-1 $573 $345 $348 $491 reversed $476 $-1 #
coedge $-1 $345 $573 $482 $577 forward $476 $-1 #
vertex $-1 $346 $581 #
straight-curve $-1 -73.593554490798667 9.3240917278660973 45.197917884928373 0 0 1 I I #
straight-curve $-1 -73.593554490798667 9.3240917278660973 1.8164239767455115 -0.60181501223851219 0 -0.79863551827123203 I I #
edge $-1 $575 -23.406949623483307 $349 -9.3240917278660973 $486 $582 forward 7 unknown #
point $-1 -73.593554490798667 9.3240917278660973 8.5912413758591111 #
point $-1 -68.488363546139794 9.3240917278660973 8.5912413758591093 #
edge $-1 $583 1 $583 0 $352 $-1 forward 7 unknown #
vertex $-1 $353 $584 #
ellipse-curve $-1 -68.807743344250653 13.347765412328158 3.520984008088381 -0.79863551827123203 0 0.60181501223851219 0.90272251835776829 0 1.197953277406848 1 I I #
point $-1 -70.138236500111461 13.347765412328158 6.4017859537091617 #
edge $-1 $585 1 $585 0 $356 $-1 forward 7 unknown #
vertex $-1 $357 $586 #
ellipse-curve $-1 -68.807743344250653 19.383275939021246 3.520984008088381 -0.79863551827123203 0 0.60181501223851219 0.90272251835776829 0 1.197953277406848 1 I I #
point $-1 -70.138236500111461 19.383275939021246 6.4017859537091617 #
plane-surface $-1 73.593554490798667 0 0 -1 0 0 0 0 1 forward_v I I I I #
coedge $-1 $365 $363 $367 $507 reversed $241 $-1 #
edge $-1 $378 -8.5912413758591111 $509 8.5912413758591111 $377 $587 forward 7 unknown #
vertex $-1 $507 $588 #
straight-curve $-1 -73.593554490798667 -42.060871395475132 0 0 0 -1 I I #
edge $-1 $505 -42.060871395475132 $509 42.060871395475132 $503 $589 forward 7 unknown #
straight-curve $-1 0 -42.060871395475132 -8.5912413758591111 -1 0 0 I I #
vertex $-1 $370 $590 #
straight-curve $-1 0 42.060871395475132 -8.5912413758591111 1 0 0 I I #
point $-1 73.593554490798667 42.060871395475132 -8.5912413758591111 #
point $-1 73.593554490798667 -42.060871395475132 -8.5912413758591111 #
straight-curve $-1 -73.593554490798667 0 8.5912413758591111 0 -1 0 I I #
point $-1 -73.593554490798667 42.060871395475132 8.5912413758591111 #
point $-1 -73.593554490798667 -42.060871395475132 8.5912413758591111 #
straight-curve $-1 73.593554490798667 -42.060871395475132 0 0 0 -1 I I #
straight-curve $-1 73.593554490798667 42.060871395475132 0 0 0 -1 I I #
plane-surface $-1 -73.593554490798667 0 0 1 0 0 0 0 -1 forward_v I I I I #
coedge $-1 $521 $530 $525 $591 forward $388 $-1 #
coedge $-1 $391 $390 $592 $593 forward $159 $-1 #
coedge $-1 $592 $519 $392 $522 reversed $388 $-1 #
edge $-1 $523 -73.593554490798667 $526 73.593554490798667 $521 $594 forward 7 unknown #
vertex $-1 $593 $595 #
straight-curve $-1 73.593554490798667 0 -8.5912413758591111 0 -1 0 I I #
coedge $-1 $400 $394 $519 $591 reversed $401 $-1 #
vertex $-1 $395 $596 #
straight-curve $-1 -73.593554490798667 0 -8.5912413758591111 0 1 0 I I #
point $-1 -73.593554490798667 -42.060871395475132 -8.5912413758591111 #
point $-1 73.593554490798667 -42.060871395475132 -8.5912413758591111 #
coedge $-1 $519 $592 $403 $531 reversed $388 $-1 #
edge $-1 $532 -73.593554490798667 $534 73.593554490798667 $530 $597 forward 7 unknown #
vertex $-1 $404 $598 #
straight-curve $-1 -73.593554490798667 -45.771510533109975 -4.0772935083379576 0 -1 0 I I #
vertex $-1 $405 $599 #
straight-curve $-1 73.593554490798667 -45.771510533109975 -4.0772935083379576 0 1 0 I I #
edge $-1 $537 96.848908128253527 $540 102.42858851157327 $409 $600 forward 7 unknown #
vertex $-1 $423 $601 #
straight-curve $-1 31.349808903115736 -34.63959312020544 8.5912413758591128 1 0 0 I I #
edge $-1 $540 -20.177864384982612 $420 -8.7455930854630335 $419 $602 forward 7 unknown #
vertex $-1 $539 $603 #
straight-curve $-1 -35.787782859327876 -34.63959312020544 101.49896165809872 -0.74314481823134659 0 0.66913061440640931 I I #
point $-1 67.396691763288359 -34.63959312020544 8.5912413758591128 #
point $-1 73.593554490798681 -23.207321820685859 3.0115609925393727 #
straight-curve $-1 73.593554490798667 0 8.5912413758591111 0 1 0 I I #
vertex $-1 $426 $604 #
point $-1 68.626565813134818 -28.923457470445651 1.4844432940539631 #
edge $-1 $550 -23.888503522617462 $440 -12.456232223097878 $439 $605 forward 7 unknown #
coedge $-1 $549 $433 $554 $606 reversed $430 $-1 #
coedge $-1 $433 $548 $435 $552 forward $430 $-1 #
vertex $-1 $434 $607 #
straight-curve $-1 -0.66989186172114046 42.060871395475132 69.878669888035333 -0.74314481823134659 0 0.66913061440640931 I I #
edge $-1 $556 -8.5912413758591111 $436 -3.0115609925393825 $435 $608 forward 7 unknown #
point $-1 73.593554490798667 42.060871395475132 3.0115609925393825 #
coedge $-1 $439 $438 $548 $606 forward $296 $-1 #
point $-1 67.396691763288359 30.628600095955548 8.5912413758591128 #
vertex $-1 $443 $609 #
straight-curve $-1 73.593554490798667 0 8.5912413758591111 0 1 0 I I #
vertex $-1 $446 $610 #
point $-1 68.626565813134818 36.34473574571534 1.4844432940539631 #
edge $-1 $561 36.60667650906926 $564 43.381493908182861 $451 $611 forward 7 unknown #
vertex $-1 $465 $612 #
straight-curve $-1 -95.571203777580479 -1.9028134525963978 8.5912413758591128 -1 0 0 I I #
edge $-1 $564 -2.5693077476061035 $462 11.513550148011106 $461 $613 forward 7 unknown #
vertex $-1 $563 $614 #
straight-curve $-1 -73.593554490798667 -1.9028134525963978 1.8164239767455115 0.60181501223851219 0 0.79863551827123203 I I #
point $-1 -68.488363546139794 -1.9028134525963978 8.5912413758591093 #
point $-1 -73.593554490798667 -15.985671348213607 1.8164239767455115 #
straight-curve $-1 -73.593554490798667 0 8.5912413758591111 0 -1 0 I I #
vertex $-1 $468 $615 #
point $-1 -67.90502082589289 -11.961997663751546 4.7189372854952296 #
vertex $-1 $472 $616 #
point $-1 -67.90502082589289 -5.9264871370584586 4.7189372854952296 #
coedge $-1 $487 $486 $479 $574 forward $476 $-1 #
edge $-1 $575 36.60667650906926 $578 43.381493908182861 $573 $617 forward 7 unknown #
vertex $-1 $491 $618 #
straight-curve $-1 -95.571203777580479 23.406949623483307 8.5912413758591128 -1 0 0 I I #
edge $-1 $578 -15.224189285645956 $488 -1.1413313900287463 $487 $619 forward 7 unknown #
vertex $-1 $577 $620 #
straight-curve $-1 -73.593554490798667 23.406949623483307 1.8164239767455115 0.60181501223851219 0 0.79863551827123203 I I #
point $-1 -68.488363546139794 23.406949623483307 8.5912413758591093 #
point $-1 -73.593554490798667 9.3240917278660973 1.8164239767455115 #
straight-curve $-1 -73.593554490798667 0 8.5912413758591111 0 -1 0 I I #
vertex $-1 $494 $621 #
point $-1 -67.90502082589289 13.347765412328158 4.7189372854952296 #
vertex $-1 $498 $622 #
point $-1 -67.90502082589289 19.383275939021246 4.7189372854952296 #
straight-curve $-1 -73.593554490798667 42.060871395475132 0 0 0 -1 I I #
point $-1 -73.593554490798667 -42.060871395475132 -8.5912413758591111 #
straight-curve $-1 -73.593554490798667 0 -8.5912413758591111 0 1 0 I I #
point $-1 -73.593554490798667 42.060871395475132 -8.5912413758591111 #
edge $-1 $532 -2.2569739337605768 $526 2.2569739337605768 $525 $623 forward 7 unknown #
coedge $-1 $530 $521 $520 $593 reversed $388 $-1 #
edge $-1 $534 -2.2569739337605768 $523 2.2569739337605768 $520 $624 forward 7 unknown #
straight-curve $-1 0 -49.482149670744818 -8.5912413758591111 -1 0 0 I I #
point $-1 73.593554490798667 -49.482149670744818 -8.5912413758591111 #
point $-1 -73.593554490798667 -49.482149670744818 -8.5912413758591111 #
straight-curve $-1 0 -49.482149670744818 -4.0772935083379576 1 0 0 I I #
point $-1 -73.593554490798667 -49.482149670744818 -4.0772935083379576 #
point $-1 73.593554490798667 -49.482149670744818 -4.0772935083379576 #
straight-curve $-1 73.593554490798667 -34.63959312020544 105.44014950411264 0 0 -1 I I #
point $-1 73.593554490798667 -34.63959312020544 8.5912413758591111 #
straight-curve $-1 73.593554490798653 -14.461728735222826 3.011560992539394 0 1 0 I I #
point $-1 73.593554490798681 -34.63959312020544 3.0115609925393727 #
point $-1 66.508152664178183 -28.923457470445651 1.373421988316557 #
straight-curve $-1 67.396691763288359 18.17236787285767 8.5912413758590986 0 -1 0 I I #
edge $-1 $556 -73.593554490798667 $550 -67.396691763288359 $548 $625 forward 7 unknown #
point $-1 67.396691763288359 42.060871395475132 8.5912413758591128 #
straight-curve $-1 73.593554490798667 42.060871395475132 0 0 0 -1 I I #
point $-1 73.593554490798667 42.060871395475132 8.5912413758591111 #
point $-1 66.508152664178183 36.34473574571534 1.373421988316557 #
straight-curve $-1 -73.593554490798667 -1.9028134525963978 45.197917884928373 0 0 -1 I I #
point $-1 -73.593554490798667 -1.9028134525963978 8.5912413758591111 #
straight-curve $-1 -73.593554490798667 -4.4721212002025013 1.8164239767455079 0 -1 0 I I #
point $-1 -73.593554490798667 -1.9028134525963978 1.8164239767455115 #
point $-1 -67.609790066843814 -11.961997663751546 2.6182614897306129 #
point $-1 -67.609790066843814 -5.9264871370584586 2.6182614897306129 #
straight-curve $-1 -73.593554490798667 23.406949623483307 45.197917884928373 0 0 -1 I I #
point $-1 -73.593554490798667 23.406949623483307 8.5912413758591111 #
straight-curve $-1 -73.593554490798667 8.182760337837351 1.8164239767455079 0 -1 0 I I #
point $-1 -73.593554490798667 23.406949623483307 1.8164239767455115 #
point $-1 -67.609790066843814 13.347765412328158 2.6182614897306129 #
point $-1 -67.609790066843814 19.383275939021246 2.6182614897306129 #
straight-curve $-1 -73.593554490798667 -49.482149670744818 -6.3342674420985343 0 0 -1 I I #
straight-curve $-1 73.593554490798667 -49.482149670744818 -6.3342674420985343 0 0 -1 I I #
straight-curve $-1 0 42.060871395475132 8.5912413758591111 -1 0 0 I I #
End-of-ACIS-data 