500 0 9 0           
7 Unknown 11 ACIS 5.0 NT 24 Fri Mar 26 14:34:40 1999 
-1 9.9999999999999995e-007 1e-010 
body $-1 $9 $-1 $10 #
body $-1 $11 $-1 $12 #
body $-1 $13 $-1 $14 #
body $-1 $15 $-1 $16 #
body $-1 $17 $-1 $18 #
body $-1 $19 $-1 $20 #
body $-1 $21 $-1 $22 #
body $-1 $23 $-1 $24 #
body $-1 $25 $-1 $26 #
lump $-1 $-1 $27 $0 #
transform $-1 1 0 0 0 1 0 0 0 1 56.161381878109069 23.536121584221739 10.350592536417546 1 rotate no_reflect no_shear #
lump $-1 $-1 $28 $1 #
transform $-1 1 0 0 0 1 0 0 0 1 56.161381878109069 23.536121584221739 10.350592536417546 1 rotate no_reflect no_shear #
lump $-1 $-1 $29 $2 #
transform $-1 1 0 0 0 1 0 0 0 1 56.161381878109069 23.536121584221739 10.350592536417546 1 rotate no_reflect no_shear #
lump $-1 $-1 $30 $3 #
transform $-1 1 0 0 0 1 0 0 0 1 56.161381878109069 23.536121584221739 10.350592536417546 1 rotate no_reflect no_shear #
lump $-1 $-1 $31 $4 #
transform $-1 1 0 0 0 1 0 0 0 1 56.161381878109069 23.536121584221739 10.350592536417546 1 rotate no_reflect no_shear #
lump $-1 $-1 $32 $5 #
transform $-1 1 0 0 0 1 0 0 0 1 56.161381878109069 23.536121584221739 10.350592536417546 1 rotate no_reflect no_shear #
lump $-1 $-1 $33 $6 #
transform $-1 1 0 0 0 1 0 0 0 1 56.161381878109069 23.536121584221739 10.350592536417546 1 rotate no_reflect no_shear #
lump $-1 $-1 $34 $7 #
transform $-1 1 0 0 0 1 0 0 0 1 56.161381878109069 23.536121584221739 10.350592536417546 1 rotate no_reflect no_shear #
lump $-1 $-1 $35 $8 #
transform $-1 1 0 0 0 1 0 0 0 1 56.161381878109069 23.536121584221739 10.350592536417546 1 rotate no_reflect no_shear #
shell $-1 $-1 $-1 $36 $-1 $9 #
shell $-1 $-1 $-1 $37 $-1 $11 #
shell $-1 $-1 $-1 $38 $-1 $13 #
shell $-1 $-1 $-1 $39 $-1 $15 #
shell $-1 $-1 $-1 $40 $-1 $17 #
shell $-1 $-1 $-1 $41 $-1 $19 #
shell $-1 $-1 $-1 $42 $-1 $21 #
shell $-1 $-1 $-1 $43 $-1 $23 #
shell $-1 $-1 $-1 $44 $-1 $25 #
face $-1 $45 $46 $27 $-1 $47 reversed single #
face $-1 $48 $49 $28 $-1 $50 forward single #
face $-1 $51 $52 $29 $-1 $53 reversed single #
face $-1 $54 $55 $30 $-1 $56 forward single #
face $-1 $57 $58 $31 $-1 $59 forward single #
face $-1 $60 $61 $32 $-1 $62 reversed single #
face $-1 $63 $64 $33 $-1 $65 forward single #
face $-1 $66 $67 $34 $-1 $68 reversed single #
face $-1 $69 $70 $35 $-1 $71 forward single #
face $-1 $72 $73 $27 $-1 $74 forward single #
loop $-1 $-1 $75 $36 #
plane-surface $-1 0 -23.536121584221739 0 0 1 0 0 0 1 forward_v I I I I #
face $-1 $76 $77 $28 $-1 $78 reversed single #
loop $-1 $-1 $79 $37 #
plane-surface $-1 0 -23.536121584221739 0 0 1 0 0 0 1 forward_v I I I I #
face $-1 $80 $81 $29 $-1 $82 reversed single #
loop $-1 $-1 $83 $38 #
plane-surface $-1 72.765560577421127 16.006596084037149 161.43824009526941 0 1 0 0.77714596973225614 0 0.62932038083071107 forward_v I I I I #
face $-1 $84 $85 $30 $-1 $86 forward single #
loop $-1 $87 $88 $39 #
cone-surface $-1 52.360837858517449 18.157889084089888 6.0869390457982595 -0.77714596973225614 0 -0.62932038083071107 0.62932038083071107 0 -0.77714596973225614 1 I I 0 1 1 forward I I I I #
face $-1 $89 $90 $31 $-1 $91 forward single #
loop $-1 $92 $93 $40 #
cone-surface $-1 52.360837858517449 21.384828584169 6.0869390457982595 -0.77714596973225614 0 -0.62932038083071107 0.62932038083071107 0 -0.77714596973225614 1 I I 0 1 1 forward I I I I #
face $-1 $94 $95 $32 $-1 $96 reversed single #
loop $-1 $-1 $97 $41 #
plane-surface $-1 -131.31998180213327 -8.4807251788501219 86.59563863280691 0 1 0 -0.66913061440640931 0 0.74314481823134659 forward_v I I I I #
face $-1 $98 $99 $33 $-1 $100 forward single #
loop $-1 $101 $102 $42 #
cone-surface $-1 -50.825750262411184 -5.4223895704689049 5.2683854463304645 0.66913061440640931 0 -0.74314481823134659 1.1147172273470198 0 1.003695921609614 1 I I 0 1 1.5 forward I I I I #
face $-1 $103 $104 $34 $-1 $105 reversed single #
loop $-1 $-1 $106 $43 #
plane-surface $-1 -131.31998180213327 9.8539322522262616 86.59563863280691 0 1 0 -0.66913061440640931 0 0.74314481823134659 forward_v I I I I #
face $-1 $107 $108 $35 $-1 $109 forward single #
loop $-1 $110 $111 $44 #
cone-surface $-1 -50.825750262411184 12.912267860607479 5.2683854463304645 0.66913061440640931 0 -0.74314481823134659 1.1147172273470198 0 1.003695921609614 1 I I 0 1 1.5 forward I I I I #
face $-1 $112 $113 $27 $-1 $114 reversed single #
loop $-1 $-1 $115 $45 #
plane-surface $-1 0 0 10.350592536417546 0 0 1 1 0 0 forward_v I I I I #
coedge $-1 $116 $117 $118 $119 reversed $46 $-1 #
face $-1 $120 $121 $28 $-1 $122 reversed single #
loop $-1 $-1 $123 $48 #
plane-surface $-1 0 0 -10.350592536417546 0 0 1 1 0 0 forward_v I I I I #
coedge $-1 $124 $125 $126 $127 forward $49 $-1 #
face $-1 $128 $129 $29 $-1 $130 reversed single #
loop $-1 $-1 $131 $51 #
plane-surface $-1 -14.525622584912128 19.771358834129444 90.751235632248225 0.77714596973225614 0 0.62932038083071107 0.62932038083071107 0 -0.77714596973225614 forward_v I I I I #
coedge $-1 $132 $133 $134 $135 reversed $52 $-1 #
face $-1 $-1 $136 $30 $-1 $137 forward single #
loop $-1 $138 $139 $54 #
cone-surface $-1 50.961645442020071 18.157889084089888 4.9538953980148985 -0.77714596973225614 0 -0.62932038083071107 0.31466019041535553 0 -0.38857298486612807 1 I I -0.70710678118654746 0.70710678118654746 0.5 forward I I I I #
loop $-1 $-1 $140 $39 #
coedge $-1 $88 $88 $141 $142 reversed $55 $-1 #
face $-1 $-1 $143 $31 $-1 $144 forward single #
loop $-1 $145 $146 $57 #
cone-surface $-1 50.961645442020071 21.384828584169 4.9538953980148985 -0.77714596973225614 0 -0.62932038083071107 0.31466019041535553 0 -0.38857298486612807 1 I I -0.70710678118654746 0.70710678118654746 0.5 forward I I I I #
loop $-1 $-1 $147 $40 #
coedge $-1 $93 $93 $148 $149 reversed $58 $-1 #
face $-1 $150 $151 $32 $-1 $152 reversed single #
loop $-1 $-1 $153 $60 #
plane-surface $-1 -56.161381878109069 -5.4223895704689049 3.1235587779496967 -0.66913061440640931 0 0.74314481823134659 0.74314481823134659 0 0.66913061440640931 forward_v I I I I #
coedge $-1 $154 $155 $156 $157 reversed $61 $-1 #
face $-1 $-1 $158 $33 $-1 $159 forward single #
loop $-1 $160 $161 $63 #
cone-surface $-1 -49.001487667134796 -5.4223895704689049 3.2423366218037923 0.66913061440640931 0 -0.74314481823134659 0.55735861367350992 0 0.50184796080480698 1 I I -0.70710678118654757 0.70710678118654757 0.75 forward I I I I #
loop $-1 $-1 $162 $42 #
coedge $-1 $102 $102 $163 $164 reversed $64 $-1 #
face $-1 $165 $166 $34 $-1 $167 reversed single #
loop $-1 $-1 $168 $66 #
plane-surface $-1 -56.161381878109069 12.912267860607479 3.1235587779496967 -0.66913061440640931 0 0.74314481823134659 0.74314481823134659 0 0.66913061440640931 forward_v I I I I #
coedge $-1 $169 $170 $171 $172 reversed $67 $-1 #
face $-1 $-1 $173 $35 $-1 $174 forward single #
loop $-1 $175 $176 $69 #
cone-surface $-1 -49.001487667134796 12.912267860607479 3.2423366218037923 0.66913061440640931 0 -0.74314481823134659 0.55735861367350992 0 0.50184796080480698 1 I I -0.70710678118654757 0.70710678118654757 0.75 forward I I I I #
loop $-1 $-1 $177 $44 #
coedge $-1 $111 $111 $178 $179 reversed $70 $-1 #
face $-1 $180 $181 $27 $-1 $182 reversed single #
loop $-1 $-1 $183 $72 #
plane-surface $-1 0 0 -10.350592536417546 0 0 1 1 0 0 forward_v I I I I #
coedge $-1 $184 $185 $186 $187 forward $73 $-1 #
coedge $-1 $188 $75 $189 $190 reversed $46 $-1 #
coedge $-1 $75 $188 $191 $192 forward $46 $-1 #
coedge $-1 $193 $183 $75 $119 forward $113 $-1 #
edge $-1 $194 -56.161381878109069 $195 56.161381878109069 $75 $196 forward 7 unknown #
face $-1 $197 $198 $28 $-1 $199 reversed single #
loop $-1 $-1 $200 $76 #
plane-surface $-1 -42.258480791555684 -33.939049890512443 0 0 1 0 0 0 1 forward_v I I I I #
coedge $-1 $201 $202 $125 $203 forward $77 $-1 #
coedge $-1 $204 $79 $205 $206 reversed $49 $-1 #
coedge $-1 $79 $204 $123 $203 reversed $49 $-1 #
coedge $-1 $207 $208 $79 $127 reversed $198 $-1 #
edge $-1 $209 -10.350592536417546 $210 10.350592536417546 $126 $211 forward 7 unknown #
face $-1 $212 $213 $29 $-1 $214 forward single #
loop $-1 $-1 $215 $80 #
plane-surface $-1 0 23.536121584221739 0 0 -1 0 0 0 -1 forward_v I I I I #
coedge $-1 $216 $217 $218 $219 reversed $81 $-1 #
coedge $-1 $133 $83 $220 $221 reversed $52 $-1 #
coedge $-1 $83 $132 $216 $222 reversed $52 $-1 #
coedge $-1 $218 $223 $83 $135 forward $224 $-1 #
edge $-1 $225 70.368527511217152 $226 77.259067577719748 $134 $227 forward 7 unknown #
loop $-1 $-1 $141 $84 #
plane-surface $-1 -14.525622584912128 19.771358834129444 90.751235632248225 0.77714596973225614 0 0.62932038083071107 0.62932038083071107 0 -0.77714596973225614 forward_v I I I I #
loop $-1 $-1 $228 $54 #
coedge $-1 $139 $139 $140 $229 reversed $85 $-1 #
coedge $-1 $140 $140 $139 $229 forward $87 $-1 #
coedge $-1 $141 $141 $88 $142 forward $136 $-1 #
edge $-1 $230 0 $230 6.2831853071796004 $141 $231 forward 7 unknown #
loop $-1 $-1 $148 $89 #
plane-surface $-1 -14.525622584912128 19.771358834129444 90.751235632248225 0.77714596973225614 0 0.62932038083071107 0.62932038083071107 0 -0.77714596973225614 forward_v I I I I #
loop $-1 $-1 $232 $57 #
coedge $-1 $146 $146 $147 $233 reversed $90 $-1 #
coedge $-1 $147 $147 $146 $233 forward $92 $-1 #
coedge $-1 $148 $148 $93 $149 forward $143 $-1 #
edge $-1 $234 0 $234 6.2831853071796004 $148 $235 forward 7 unknown #
face $-1 $236 $237 $32 $-1 $238 reversed single #
loop $-1 $-1 $239 $94 #
plane-surface $-1 -131.31998180213327 -2.3640539620876888 86.59563863280691 0 -1 0 0.66913061440640931 0 -0.74314481823134659 forward_v I I I I #
coedge $-1 $240 $241 $242 $243 reversed $95 $-1 #
coedge $-1 $155 $97 $244 $245 reversed $61 $-1 #
coedge $-1 $97 $154 $240 $246 reversed $61 $-1 #
coedge $-1 $242 $247 $97 $157 forward $248 $-1 #
edge $-1 $249 9.4986090229575666 $250 17.525042985410195 $156 $251 forward 7 unknown #
loop $-1 $-1 $163 $98 #
plane-surface $-1 -56.161381878109069 -5.4223895704689049 3.1235587779496967 -0.66913061440640931 0 0.74314481823134659 0.74314481823134659 0 0.66913061440640931 forward_v I I I I #
loop $-1 $-1 $252 $63 #
coedge $-1 $161 $161 $162 $253 reversed $99 $-1 #
coedge $-1 $162 $162 $161 $253 forward $101 $-1 #
coedge $-1 $163 $163 $102 $164 forward $158 $-1 #
edge $-1 $254 0 $254 6.2831853071796004 $163 $255 forward 7 unknown #
face $-1 $256 $257 $34 $-1 $258 forward single #
loop $-1 $-1 $259 $103 #
plane-surface $-1 -131.31998180213327 15.970603468988696 86.59563863280691 0 -1 0 0.66913061440640931 0 -0.74314481823134659 forward_v I I I I #
coedge $-1 $260 $261 $262 $263 reversed $104 $-1 #
coedge $-1 $170 $106 $264 $265 reversed $67 $-1 #
coedge $-1 $106 $169 $260 $266 reversed $67 $-1 #
coedge $-1 $262 $267 $106 $172 forward $257 $-1 #
edge $-1 $268 9.4986090229575666 $269 17.525042985410195 $171 $270 forward 7 unknown #
loop $-1 $-1 $178 $107 #
plane-surface $-1 -56.161381878109069 12.912267860607479 3.1235587779496967 -0.66913061440640931 0 0.74314481823134659 0.74314481823134659 0 0.66913061440640931 forward_v I I I I #
loop $-1 $-1 $271 $69 #
coedge $-1 $176 $176 $177 $272 reversed $108 $-1 #
coedge $-1 $177 $177 $176 $272 forward $110 $-1 #
coedge $-1 $178 $178 $111 $179 forward $173 $-1 #
edge $-1 $273 0 $273 6.2831853071796004 $178 $274 forward 7 unknown #
face $-1 $275 $276 $27 $-1 $277 reversed single #
loop $-1 $-1 $278 $112 #
plane-surface $-1 -56.161381878109069 0 0 1 0 0 0 0 -1 forward_v I I I I #
coedge $-1 $118 $279 $280 $281 forward $113 $-1 #
coedge $-1 $282 $115 $283 $284 forward $73 $-1 #
coedge $-1 $115 $282 $188 $285 forward $73 $-1 #
coedge $-1 $189 $286 $115 $187 reversed $287 $-1 #
edge $-1 $288 -23.536121584221739 $289 23.536121584221739 $186 $290 forward 7 unknown #
coedge $-1 $117 $116 $185 $285 reversed $46 $-1 #
coedge $-1 $280 $186 $116 $190 forward $287 $-1 #
edge $-1 $288 -10.350592536417546 $194 10.350592536417546 $189 $291 forward 7 unknown #
coedge $-1 $292 $293 $117 $192 reversed $181 $-1 #
edge $-1 $294 -10.350592536417546 $195 10.350592536417546 $191 $295 forward 7 unknown #
coedge $-1 $279 $118 $293 $296 forward $113 $-1 #
vertex $-1 $190 $297 #
vertex $-1 $296 $298 #
straight-curve $-1 0 -23.536121584221739 -10.350592536417546 -1 0 0 I I #
face $-1 $299 $300 $28 $-1 $301 reversed single #
loop $-1 $-1 $126 $120 #
plane-surface $-1 -45.210707201849722 -28.737585737367091 0 1 0 0 0 0 -1 forward_v I I I I #
coedge $-1 $302 $303 $304 $305 forward $121 $-1 #
coedge $-1 $306 $123 $307 $308 forward $77 $-1 #
coedge $-1 $123 $306 $207 $309 forward $77 $-1 #
edge $-1 $209 -45.210707201849722 $310 -39.306254381261645 $123 $311 forward 7 unknown #
coedge $-1 $125 $124 $312 $313 forward $49 $-1 #
coedge $-1 $314 $315 $124 $206 forward $316 $-1 #
edge $-1 $317 39.306254381261645 $210 45.210707201849722 $205 $318 forward 7 unknown #
coedge $-1 $304 $126 $202 $309 reversed $198 $-1 #
coedge $-1 $126 $304 $314 $319 reversed $198 $-1 #
vertex $-1 $203 $320 #
vertex $-1 $319 $321 #
straight-curve $-1 -45.210707201849722 -23.536121584221739 0 0 0 1 I I #
face $-1 $-1 $224 $29 $-1 $322 reversed single #
loop $-1 $-1 $323 $128 #
plane-surface $-1 0 0 10.350592536417546 0 0 1 1 0 0 forward_v I I I I #
coedge $-1 $324 $325 $217 $326 forward $129 $-1 #
coedge $-1 $327 $131 $133 $222 forward $81 $-1 #
coedge $-1 $131 $327 $215 $326 reversed $81 $-1 #
coedge $-1 $328 $134 $131 $219 forward $224 $-1 #
edge $-1 $226 6.1209166669724269 $329 13.650442167157017 $218 $330 forward 7 unknown #
coedge $-1 $331 $323 $132 $221 forward $213 $-1 #
edge $-1 $332 14.19875241347772 $225 19.778601589398505 $220 $333 forward 7 unknown #
edge $-1 $226 -112.32276375621814 $332 -103.45629550588862 $133 $334 forward 7 unknown #
coedge $-1 $134 $328 $331 $335 reversed $224 $-1 #
loop $-1 $-1 $218 $212 #
vertex $-1 $335 $336 #
vertex $-1 $135 $337 #
straight-curve $-1 56.161381878109069 16.006596084037149 80.719120047634703 0 0 -1 I I #
coedge $-1 $228 $228 $-1 $338 reversed $138 $-1 #
edge $-1 $339 0 $339 6.2831853071796004 $139 $340 forward 7 unknown #
vertex $-1 $142 $341 #
ellipse-curve $-1 53.37145729014869 18.157889084089888 6.9053225031662553 0.77714596973225614 0 0.62932038083071107 0.62932038083071107 0 -0.77714596973225614 1 I I #
coedge $-1 $232 $232 $-1 $342 reversed $145 $-1 #
edge $-1 $343 0 $343 6.2831853071796004 $146 $344 forward 7 unknown #
vertex $-1 $149 $345 #
ellipse-curve $-1 53.37145729014869 21.384828584169 6.9053225031662553 0.77714596973225614 0 0.62932038083071107 0.62932038083071107 0 -0.77714596973225614 1 I I #
face $-1 $-1 $248 $32 $-1 $346 forward single #
loop $-1 $-1 $347 $150 #
plane-surface $-1 -56.161381878109069 0 0 1 0 0 0 0 -1 forward_v I I I I #
coedge $-1 $348 $349 $350 $351 reversed $151 $-1 #
coedge $-1 $352 $153 $155 $246 forward $95 $-1 #
coedge $-1 $153 $352 $348 $353 forward $95 $-1 #
coedge $-1 $350 $156 $153 $243 forward $248 $-1 #
edge $-1 $250 -5.7695303936156694 $354 0.34714082314676364 $242 $355 forward 7 unknown #
coedge $-1 $356 $357 $154 $245 forward $237 $-1 #
edge $-1 $358 -40.174260538453758 $249 -32.947226779985911 $244 $359 forward 7 unknown #
edge $-1 $250 -10.800632347212218 $358 0 $155 $360 forward 7 unknown #
coedge $-1 $156 $350 $356 $361 forward $248 $-1 #
loop $-1 $-1 $350 $236 #
vertex $-1 $245 $362 #
vertex $-1 $157 $363 #
straight-curve $-1 -65.659990901066635 -8.4807251788501219 10.350592536417544 1 0 0 I I #
coedge $-1 $252 $252 $-1 $364 reversed $160 $-1 #
edge $-1 $365 0 $365 6.2831853071796004 $161 $366 forward 7 unknown #
vertex $-1 $164 $367 #
ellipse-curve $-1 -52.148164896882761 -5.4223895704689049 6.7370756571836203 -0.66913061440640931 0 0.74314481823134659 1.1147172273470198 0 1.003695921609614 1 I I #
face $-1 $-1 $368 $34 $-1 $369 reversed single #
loop $-1 $-1 $171 $165 #
plane-surface $-1 0 0 10.350592536417546 0 0 1 1 0 0 forward_v I I I I #
coedge $-1 $370 $371 $372 $373 reversed $166 $-1 #
coedge $-1 $374 $168 $170 $266 forward $104 $-1 #
coedge $-1 $168 $374 $370 $375 forward $104 $-1 #
coedge $-1 $372 $171 $168 $263 forward $257 $-1 #
edge $-1 $269 3.3977983219225223 $376 9.5144695386849563 $262 $377 forward 7 unknown #
coedge $-1 $378 $379 $169 $265 forward $368 $-1 #
edge $-1 $380 -40.174260538453758 $268 -32.947226779985911 $264 $381 forward 7 unknown #
edge $-1 $269 -10.800632347212218 $380 0 $170 $382 forward 7 unknown #
coedge $-1 $171 $372 $378 $383 forward $257 $-1 #
vertex $-1 $265 $384 #
vertex $-1 $172 $385 #
straight-curve $-1 -65.659990901066635 9.8539322522262616 10.350592536417544 1 0 0 I I #
coedge $-1 $271 $271 $-1 $386 reversed $175 $-1 #
edge $-1 $387 0 $387 6.2831853071796004 $176 $388 forward 7 unknown #
vertex $-1 $179 $389 #
ellipse-curve $-1 -52.148164896882761 12.912267860607479 6.7370756571836203 -0.66913061440640931 0 0.74314481823134659 1.1147172273470198 0 1.003695921609614 1 I I #
face $-1 $-1 $287 $27 $-1 $390 reversed single #
loop $-1 $-1 $391 $180 #
plane-surface $-1 0 23.536121584221739 0 0 -1 0 0 0 -1 forward_v I I I I #
coedge $-1 $293 $292 $392 $393 forward $181 $-1 #
coedge $-1 $183 $193 $394 $395 forward $113 $-1 #
coedge $-1 $286 $189 $183 $281 reversed $287 $-1 #
edge $-1 $396 -23.536121584221739 $194 23.536121584221739 $280 $397 forward 7 unknown #
coedge $-1 $185 $184 $292 $398 forward $73 $-1 #
coedge $-1 $391 $392 $184 $284 reversed $276 $-1 #
edge $-1 $289 -56.161381878109069 $399 56.161381878109069 $283 $400 forward 7 unknown #
edge $-1 $294 -56.161381878109069 $288 56.161381878109069 $188 $401 forward 7 unknown #
coedge $-1 $186 $280 $391 $402 reversed $287 $-1 #
loop $-1 $-1 $189 $275 #
vertex $-1 $187 $403 #
vertex $-1 $187 $404 #
straight-curve $-1 56.161381878109069 0 10.350592536417546 0 1 0 I I #
straight-curve $-1 56.161381878109069 -23.536121584221739 0 0 0 -1 I I #
coedge $-1 $278 $191 $282 $398 reversed $181 $-1 #
coedge $-1 $191 $278 $193 $296 reversed $181 $-1 #
vertex $-1 $398 $405 #
straight-curve $-1 -56.161381878109069 -23.536121584221739 0 0 0 -1 I I #
edge $-1 $195 -23.536121584221739 $406 23.536121584221739 $293 $407 forward 7 unknown #
point $-1 56.161381878109069 -23.536121584221739 -10.350592536417546 #
point $-1 -56.161381878109069 -23.536121584221739 -10.350592536417546 #
face $-1 $-1 $316 $28 $-1 $408 forward single #
loop $-1 $-1 $409 $197 #
plane-surface $-1 -39.306254381261645 -28.737585737367091 0 -1 0 0 0 0 1 forward_v I I I I #
coedge $-1 $410 $200 $306 $411 reversed $121 $-1 #
coedge $-1 $200 $410 $412 $413 reversed $121 $-1 #
coedge $-1 $208 $207 $200 $305 reversed $198 $-1 #
edge $-1 $414 -10.350592536417546 $415 10.350592536417546 $304 $416 forward 7 unknown #
coedge $-1 $202 $201 $302 $411 forward $77 $-1 #
coedge $-1 $312 $409 $201 $308 reversed $300 $-1 #
edge $-1 $310 -5.201464153145352 $417 5.201464153145352 $307 $418 forward 7 unknown #
edge $-1 $415 -5.201464153145352 $209 5.201464153145352 $207 $419 forward 7 unknown #
vertex $-1 $308 $420 #
straight-curve $-1 0 -23.536121584221739 -10.350592536417546 1 0 0 I I #
coedge $-1 $421 $307 $204 $313 reversed $300 $-1 #
edge $-1 $317 -10.350592536417546 $310 10.350592536417546 $312 $422 forward 7 unknown #
coedge $-1 $412 $205 $208 $319 forward $316 $-1 #
coedge $-1 $205 $412 $421 $423 forward $316 $-1 #
loop $-1 $-1 $205 $299 #
vertex $-1 $206 $424 #
straight-curve $-1 0 -23.536121584221739 10.350592536417546 -1 0 0 I I #
edge $-1 $210 -5.201464153145352 $414 5.201464153145352 $208 $425 forward 7 unknown #
point $-1 -45.210707201849722 -23.536121584221739 -10.350592536417546 #
point $-1 -45.210707201849722 -23.536121584221739 10.350592536417546 #
plane-surface $-1 56.161381878109069 0 0 -1 0 0 0 0 1 forward_v I I I I #
coedge $-1 $220 $426 $327 $427 forward $213 $-1 #
coedge $-1 $325 $215 $426 $428 reversed $129 $-1 #
coedge $-1 $215 $324 $328 $429 forward $129 $-1 #
edge $-1 $329 -72.488650077836098 $430 -63.622181827506573 $215 $431 forward 7 unknown #
coedge $-1 $217 $216 $323 $427 reversed $81 $-1 #
coedge $-1 $223 $218 $325 $429 reversed $224 $-1 #
vertex $-1 $219 $432 #
straight-curve $-1 56.161381878109069 9.885679417064722 3.460052469914956 0 1 0 I I #
coedge $-1 $426 $220 $223 $335 forward $213 $-1 #
vertex $-1 $221 $433 #
straight-curve $-1 36.382780288710563 16.006596084037149 10.350592536417551 1 0 0 I I #
straight-curve $-1 -14.525622584912128 16.006596084037149 90.751235632248225 -0.62932038083071107 0 0.77714596973225614 I I #
edge $-1 $225 16.006596084037149 $434 23.536121584221739 $223 $435 forward 7 unknown #
point $-1 56.161381878109069 16.006596084037149 10.350592536417546 #
point $-1 56.161381878109069 16.006596084037149 3.460052469914956 #
edge $-1 $436 1 $436 0 $228 $-1 forward 7 unknown #
vertex $-1 $229 $437 #
ellipse-curve $-1 51.350218426886201 18.157889084089888 5.268555588430254 0.77714596973225614 0 0.62932038083071107 0.62932038083071107 0 -0.77714596973225614 1 I I #
point $-1 54.00077767097941 18.157889084089888 6.1281765334340088 #
edge $-1 $438 1 $438 0 $232 $-1 forward 7 unknown #
vertex $-1 $233 $439 #
ellipse-curve $-1 51.350218426886201 21.384828584169 5.268555588430254 0.77714596973225614 0 0.62932038083071107 0.62932038083071107 0 -0.77714596973225614 1 I I #
point $-1 54.00077767097941 21.384828584169 6.1281765334340088 #
plane-surface $-1 0 0 10.350592536417546 0 0 1 1 0 0 forward_v I I I I #
coedge $-1 $357 $356 $349 $440 forward $237 $-1 #
coedge $-1 $349 $239 $241 $353 reversed $151 $-1 #
coedge $-1 $239 $348 $347 $440 reversed $151 $-1 #
coedge $-1 $247 $242 $239 $351 forward $248 $-1 #
edge $-1 $354 -17.525042985410195 $441 -9.4986090229575666 $350 $442 forward 7 unknown #
coedge $-1 $241 $240 $357 $443 reversed $95 $-1 #
edge $-1 $444 0 $354 10.800632347212218 $348 $445 forward 7 unknown #
vertex $-1 $243 $446 #
straight-curve $-1 -48.134947915656454 -2.7111947852344525 10.350592536417544 0 1 0 I I #
coedge $-1 $347 $244 $247 $361 reversed $237 $-1 #
coedge $-1 $244 $347 $352 $443 forward $237 $-1 #
vertex $-1 $245 $447 #
straight-curve $-1 -56.161381878109069 -8.4807251788501219 43.297819316403455 0 0 1 I I #
straight-curve $-1 -56.161381878109069 -8.4807251788501219 3.1235587779496967 -0.74314481823134659 0 -0.66913061440640931 I I #
edge $-1 $441 2.3640539620876888 $249 8.4807251788501219 $356 $448 forward 7 unknown #
point $-1 -56.161381878109069 -8.4807251788501219 10.350592536417546 #
point $-1 -48.13494791565644 -8.4807251788501219 10.350592536417546 #
edge $-1 $449 1 $449 0 $252 $-1 forward 7 unknown #
vertex $-1 $253 $450 #
ellipse-curve $-1 -49.503335627939606 -5.4223895704689049 3.7996952354773024 -0.66913061440640931 0 0.74314481823134659 1.1147172273470198 0 1.003695921609614 1 I I #
point $-1 -51.033447669535747 -5.4223895704689049 7.7407715787932396 #
loop $-1 $-1 $264 $256 #
plane-surface $-1 -56.161381878109069 0 0 1 0 0 0 0 -1 forward_v I I I I #
coedge $-1 $371 $259 $261 $375 reversed $166 $-1 #
coedge $-1 $259 $370 $451 $452 reversed $166 $-1 #
coedge $-1 $267 $262 $259 $373 forward $257 $-1 #
edge $-1 $376 -17.525042985410195 $453 -9.4986090229575666 $372 $454 forward 7 unknown #
coedge $-1 $261 $260 $379 $455 reversed $104 $-1 #
edge $-1 $456 0 $376 10.800632347212218 $370 $457 forward 7 unknown #
vertex $-1 $263 $458 #
straight-curve $-1 -48.134947915656454 6.4561339303037393 10.350592536417544 0 1 0 I I #
coedge $-1 $451 $264 $267 $383 reversed $368 $-1 #
coedge $-1 $264 $451 $374 $455 forward $368 $-1 #
vertex $-1 $265 $459 #
straight-curve $-1 -56.161381878109069 9.8539322522262616 43.297819316403455 0 0 1 I I #
straight-curve $-1 -56.161381878109069 9.8539322522262616 3.1235587779496967 -0.74314481823134659 0 -0.66913061440640931 I I #
edge $-1 $453 -15.970603468988696 $268 -9.8539322522262616 $378 $460 forward 7 unknown #
point $-1 -56.161381878109069 9.8539322522262616 10.350592536417546 #
point $-1 -48.13494791565644 9.8539322522262616 10.350592536417546 #
edge $-1 $461 1 $461 0 $271 $-1 forward 7 unknown #
vertex $-1 $272 $462 #
ellipse-curve $-1 -49.503335627939606 12.912267860607479 3.7996952354773024 -0.66913061440640931 0 0.74314481823134659 1.1147172273470198 0 1.003695921609614 1 I I #
point $-1 -51.033447669535747 12.912267860607479 7.7407715787932396 #
plane-surface $-1 56.161381878109069 0 0 -1 0 0 0 0 1 forward_v I I I I #
coedge $-1 $394 $283 $286 $402 forward $276 $-1 #
coedge $-1 $283 $394 $278 $393 reversed $276 $-1 #
edge $-1 $399 -10.350592536417546 $406 10.350592536417546 $392 $463 forward 7 unknown #
coedge $-1 $392 $391 $279 $395 reversed $276 $-1 #
edge $-1 $406 -56.161381878109069 $396 56.161381878109069 $394 $464 forward 7 unknown #
vertex $-1 $281 $465 #
straight-curve $-1 56.161381878109069 0 -10.350592536417546 0 -1 0 I I #
edge $-1 $399 -23.536121584221739 $294 23.536121584221739 $292 $466 forward 7 unknown #
vertex $-1 $284 $467 #
straight-curve $-1 0 23.536121584221739 10.350592536417546 -1 0 0 I I #
straight-curve $-1 0 -23.536121584221739 10.350592536417546 1 0 0 I I #
edge $-1 $289 -10.350592536417546 $396 10.350592536417546 $286 $468 forward 7 unknown #
point $-1 56.161381878109069 -23.536121584221739 10.350592536417546 #
point $-1 56.161381878109069 23.536121584221739 10.350592536417546 #
point $-1 -56.161381878109069 -23.536121584221739 10.350592536417546 #
vertex $-1 $395 $469 #
straight-curve $-1 -56.161381878109069 0 -10.350592536417546 0 1 0 I I #
plane-surface $-1 0 0 10.350592536417546 0 0 1 1 0 0 forward_v I I I I #
coedge $-1 $307 $421 $410 $470 forward $300 $-1 #
coedge $-1 $303 $302 $409 $470 reversed $121 $-1 #
edge $-1 $417 -2.9522264102940383 $415 2.9522264102940383 $302 $471 forward 7 unknown #
coedge $-1 $315 $314 $303 $413 forward $316 $-1 #
edge $-1 $414 -2.9522264102940383 $472 2.9522264102940383 $303 $473 forward 7 unknown #
vertex $-1 $319 $474 #
vertex $-1 $309 $475 #
straight-curve $-1 -45.210707201849722 -33.939049890512443 0 0 0 -1 I I #
vertex $-1 $470 $476 #
straight-curve $-1 -39.306254381261645 -28.737585737367091 -10.350592536417546 0 -1 0 I I #
straight-curve $-1 -45.210707201849722 -28.737585737367091 -10.350592536417546 0 1 0 I I #
point $-1 -39.306254381261645 -23.536121584221739 -10.350592536417546 #
coedge $-1 $409 $312 $315 $423 reversed $300 $-1 #
straight-curve $-1 -39.306254381261645 -23.536121584221739 0 0 0 -1 I I #
edge $-1 $472 -5.201464153145352 $317 5.201464153145352 $421 $477 forward 7 unknown #
point $-1 -39.306254381261645 -23.536121584221739 10.350592536417546 #
straight-curve $-1 -45.210707201849722 -28.737585737367091 10.350592536417546 0 -1 0 I I #
coedge $-1 $323 $331 $324 $428 forward $213 $-1 #
edge $-1 $430 -13.650442167157017 $332 -6.1209166669724269 $323 $478 forward 7 unknown #
edge $-1 $434 -56.161381878109069 $430 -50.581532702188284 $324 $479 forward 7 unknown #
edge $-1 $434 -10.350592536417546 $329 -3.4600524699149569 $328 $480 forward 7 unknown #
vertex $-1 $427 $481 #
straight-curve $-1 10.5427970052211 23.536121584221739 59.794314729237072 -0.62932038083071107 0 0.77714596973225614 I I #
point $-1 56.161381878109069 23.536121584221739 3.4600524699149569 #
point $-1 50.581532702188284 16.006596084037149 10.350592536417551 #
vertex $-1 $335 $482 #
straight-curve $-1 56.161381878109069 0 10.350592536417546 0 1 0 I I #
vertex $-1 $338 $483 #
point $-1 51.979538807716914 18.157889084089888 4.4914096186979977 #
vertex $-1 $342 $484 #
point $-1 51.979538807716914 21.384828584169 4.4914096186979977 #
edge $-1 $441 32.947226779985911 $444 40.174260538453758 $347 $485 forward 7 unknown #
vertex $-1 $361 $486 #
straight-curve $-1 -65.659990901066635 -2.3640539620876888 10.350592536417544 -1 0 0 I I #
edge $-1 $444 -0.34714082314676364 $358 5.7695303936156694 $357 $487 forward 7 unknown #
vertex $-1 $443 $488 #
straight-curve $-1 -56.161381878109069 -2.3640539620876888 3.1235587779496967 0.74314481823134659 0 0.66913061440640931 I I #
point $-1 -48.13494791565644 -2.3640539620876888 10.350592536417546 #
point $-1 -56.161381878109069 -8.4807251788501219 3.1235587779496967 #
straight-curve $-1 -56.161381878109069 0 10.350592536417546 0 -1 0 I I #
vertex $-1 $364 $489 #
point $-1 -48.388618400592584 -5.4223895704689049 4.8033911570869163 #
coedge $-1 $379 $378 $371 $452 forward $368 $-1 #
edge $-1 $453 32.947226779985911 $456 40.174260538453758 $451 $490 forward 7 unknown #
vertex $-1 $383 $491 #
straight-curve $-1 -65.659990901066635 15.970603468988696 10.350592536417544 -1 0 0 I I #
edge $-1 $456 -9.5144695386849563 $380 -3.3977983219225223 $379 $492 forward 7 unknown #
vertex $-1 $455 $493 #
straight-curve $-1 -56.161381878109069 15.970603468988696 3.1235587779496967 0.74314481823134659 0 0.66913061440640931 I I #
point $-1 -48.13494791565644 15.970603468988696 10.350592536417546 #
point $-1 -56.161381878109069 9.8539322522262616 3.1235587779496967 #
straight-curve $-1 -56.161381878109069 0 10.350592536417546 0 -1 0 I I #
vertex $-1 $386 $494 #
point $-1 -48.388618400592584 12.912267860607479 4.8033911570869163 #
straight-curve $-1 -56.161381878109069 23.536121584221739 0 0 0 -1 I I #
straight-curve $-1 0 23.536121584221739 -10.350592536417546 1 0 0 I I #
point $-1 56.161381878109069 23.536121584221739 -10.350592536417546 #
straight-curve $-1 -56.161381878109069 0 10.350592536417546 0 -1 0 I I #
point $-1 -56.161381878109069 23.536121584221739 10.350592536417546 #
straight-curve $-1 56.161381878109069 23.536121584221739 0 0 0 -1 I I #
point $-1 -56.161381878109069 23.536121584221739 -10.350592536417546 #
edge $-1 $472 -10.350592536417546 $417 10.350592536417546 $409 $495 forward 7 unknown #
straight-curve $-1 -42.258480791555684 -33.939049890512443 -10.350592536417546 -1 0 0 I I #
vertex $-1 $423 $496 #
straight-curve $-1 -42.258480791555684 -33.939049890512443 10.350592536417546 1 0 0 I I #
point $-1 -45.210707201849722 -33.939049890512443 10.350592536417546 #
point $-1 -45.210707201849722 -33.939049890512443 -10.350592536417546 #
point $-1 -39.306254381261645 -33.939049890512443 -10.350592536417546 #
straight-curve $-1 -39.306254381261645 -28.737585737367091 10.350592536417546 0 1 0 I I #
straight-curve $-1 50.581532702188284 9.885679417064722 10.350592536417544 0 -1 0 I I #
straight-curve $-1 0 23.536121584221739 10.350592536417546 -1 0 0 I I #
straight-curve $-1 56.161381878109069 23.536121584221739 0 0 0 -1 I I #
point $-1 50.581532702188284 23.536121584221739 10.350592536417551 #
point $-1 56.161381878109069 23.536121584221739 10.350592536417546 #
point $-1 50.573072457153941 18.157889084089888 4.6392352075995431 #
point $-1 50.573072457153941 21.384828584169 4.6392352075995431 #
straight-curve $-1 -56.161381878109069 -2.3640539620876888 43.297819316403455 0 0 -1 I I #
point $-1 -56.161381878109069 -2.3640539620876888 10.350592536417546 #
straight-curve $-1 -56.161381878109069 -2.7111947852344525 3.1235587779496981 0 -1 0 I I #
point $-1 -56.161381878109069 -2.3640539620876888 3.1235587779496967 #
point $-1 -48.499639706329987 -5.4223895704689049 2.6849780081302823 #
straight-curve $-1 -56.161381878109069 15.970603468988696 43.297819316403455 0 0 -1 I I #
point $-1 -56.161381878109069 15.970603468988696 10.350592536417546 #
straight-curve $-1 -56.161381878109069 6.4561339303037393 3.1235587779496981 0 -1 0 I I #
point $-1 -56.161381878109069 15.970603468988696 3.1235587779496967 #
point $-1 -48.499639706329987 12.912267860607479 2.6849780081302823 #
straight-curve $-1 -39.306254381261645 -33.939049890512443 0 0 0 -1 I I #
point $-1 -39.306254381261645 -33.939049890512443 10.350592536417546 #
End-of-ACIS-data 