500 0 21 0           
7 Unknown 11 ACIS 5.0 NT 24 Fri Mar 26 19:24:42 1999 
-1 9.9999999999999995e-007 1e-010 
body $-1 $21 $-1 $22 #
body $-1 $23 $-1 $24 #
body $-1 $25 $-1 $26 #
body $-1 $27 $-1 $28 #
body $-1 $29 $-1 $30 #
body $-1 $31 $-1 $32 #
body $-1 $33 $-1 $34 #
body $-1 $35 $-1 $36 #
body $-1 $37 $-1 $38 #
body $-1 $39 $-1 $40 #
body $-1 $41 $-1 $42 #
body $-1 $43 $-1 $44 #
body $-1 $45 $-1 $46 #
body $-1 $47 $-1 $48 #
body $-1 $49 $-1 $50 #
body $-1 $51 $-1 $52 #
body $-1 $53 $-1 $54 #
body $-1 $55 $-1 $56 #
body $-1 $57 $-1 $58 #
body $-1 $59 $-1 $60 #
body $-1 $61 $-1 $62 #
lump $-1 $-1 $63 $0 #
transform $-1 1 0 0 0 1 0 0 0 1 41.74077578051088 20.780835092093572 7.5058851735571102 1 rotate no_reflect no_shear #
lump $-1 $-1 $64 $1 #
transform $-1 1 0 0 0 1 0 0 0 1 41.74077578051088 20.780835092093572 7.5058851735571102 1 rotate no_reflect no_shear #
lump $-1 $-1 $65 $2 #
transform $-1 1 0 0 0 1 0 0 0 1 41.74077578051088 20.780835092093572 7.5058851735571102 1 rotate no_reflect no_shear #
lump $-1 $-1 $66 $3 #
transform $-1 1 0 0 0 1 0 0 0 1 41.74077578051088 20.780835092093572 7.5058851735571102 1 rotate no_reflect no_shear #
lump $-1 $-1 $67 $4 #
transform $-1 1 0 0 0 1 0 0 0 1 41.74077578051088 20.780835092093572 7.5058851735571102 1 rotate no_reflect no_shear #
lump $-1 $-1 $68 $5 #
transform $-1 1 0 0 0 1 0 0 0 1 41.74077578051088 20.780835092093572 7.5058851735571102 1 rotate no_reflect no_shear #
lump $-1 $-1 $69 $6 #
transform $-1 1 0 0 0 1 0 0 0 1 41.74077578051088 20.780835092093572 7.5058851735571102 1 rotate no_reflect no_shear #
lump $-1 $-1 $70 $7 #
transform $-1 1 0 0 0 1 0 0 0 1 41.74077578051088 20.780835092093572 7.5058851735571102 1 rotate no_reflect no_shear #
lump $-1 $-1 $71 $8 #
transform $-1 1 0 0 0 1 0 0 0 1 41.74077578051088 20.780835092093572 7.5058851735571102 1 rotate no_reflect no_shear #
lump $-1 $-1 $72 $9 #
transform $-1 1 0 0 0 1 0 0 0 1 41.74077578051088 20.780835092093572 7.5058851735571102 1 rotate no_reflect no_shear #
lump $-1 $-1 $73 $10 #
transform $-1 1 0 0 0 1 0 0 0 1 41.74077578051088 20.780835092093572 7.5058851735571102 1 rotate no_reflect no_shear #
lump $-1 $-1 $74 $11 #
transform $-1 1 0 0 0 1 0 0 0 1 41.74077578051088 20.780835092093572 7.5058851735571102 1 rotate no_reflect no_shear #
lump $-1 $-1 $75 $12 #
transform $-1 1 0 0 0 1 0 0 0 1 41.74077578051088 20.780835092093572 7.5058851735571102 1 rotate no_reflect no_shear #
lump $-1 $-1 $76 $13 #
transform $-1 1 0 0 0 1 0 0 0 1 41.74077578051088 20.780835092093572 7.5058851735571102 1 rotate no_reflect no_shear #
lump $-1 $-1 $77 $14 #
transform $-1 1 0 0 0 1 0 0 0 1 41.74077578051088 20.780835092093572 7.5058851735571102 1 rotate no_reflect no_shear #
lump $-1 $-1 $78 $15 #
transform $-1 1 0 0 0 1 0 0 0 1 41.74077578051088 20.780835092093572 7.5058851735571102 1 rotate no_reflect no_shear #
lump $-1 $-1 $79 $16 #
transform $-1 1 0 0 0 1 0 0 0 1 41.74077578051088 20.780835092093572 7.5058851735571102 1 rotate no_reflect no_shear #
lump $-1 $-1 $80 $17 #
transform $-1 1 0 0 0 1 0 0 0 1 41.74077578051088 20.780835092093572 7.5058851735571102 1 rotate no_reflect no_shear #
lump $-1 $-1 $81 $18 #
transform $-1 1 0 0 0 1 0 0 0 1 41.74077578051088 20.780835092093572 7.5058851735571102 1 rotate no_reflect no_shear #
lump $-1 $-1 $82 $19 #
transform $-1 1 0 0 0 1 0 0 0 1 41.74077578051088 20.780835092093572 7.5058851735571102 1 rotate no_reflect no_shear #
lump $-1 $-1 $83 $20 #
transform $-1 1 0 0 0 1 0 0 0 1 41.74077578051088 20.780835092093572 7.5058851735571102 1 rotate no_reflect no_shear #
shell $-1 $-1 $-1 $84 $-1 $21 #
shell $-1 $-1 $-1 $85 $-1 $23 #
shell $-1 $-1 $-1 $86 $-1 $25 #
shell $-1 $-1 $-1 $87 $-1 $27 #
shell $-1 $-1 $-1 $88 $-1 $29 #
shell $-1 $-1 $-1 $89 $-1 $31 #
shell $-1 $-1 $-1 $90 $-1 $33 #
shell $-1 $-1 $-1 $91 $-1 $35 #
shell $-1 $-1 $-1 $92 $-1 $37 #
shell $-1 $-1 $-1 $93 $-1 $39 #
shell $-1 $-1 $-1 $94 $-1 $41 #
shell $-1 $-1 $-1 $95 $-1 $43 #
shell $-1 $-1 $-1 $96 $-1 $45 #
shell $-1 $-1 $-1 $97 $-1 $47 #
shell $-1 $-1 $-1 $98 $-1 $49 #
shell $-1 $-1 $-1 $99 $-1 $51 #
shell $-1 $-1 $-1 $100 $-1 $53 #
shell $-1 $-1 $-1 $101 $-1 $55 #
shell $-1 $-1 $-1 $102 $-1 $57 #
shell $-1 $-1 $-1 $103 $-1 $59 #
shell $-1 $-1 $-1 $104 $-1 $61 #
face $-1 $105 $106 $63 $-1 $107 forward single #
face $-1 $108 $109 $64 $-1 $110 reversed single #
face $-1 $111 $112 $65 $-1 $113 forward single #
face $-1 $114 $115 $66 $-1 $116 forward single #
face $-1 $117 $118 $67 $-1 $119 forward single #
face $-1 $120 $121 $68 $-1 $122 reversed single #
face $-1 $123 $124 $69 $-1 $125 forward single #
face $-1 $126 $127 $70 $-1 $128 forward single #
face $-1 $129 $130 $71 $-1 $131 forward single #
face $-1 $132 $133 $72 $-1 $134 reversed single #
face $-1 $135 $136 $73 $-1 $137 forward single #
face $-1 $138 $139 $74 $-1 $140 forward single #
face $-1 $141 $142 $75 $-1 $143 forward single #
face $-1 $144 $145 $76 $-1 $146 reversed single #
face $-1 $147 $148 $77 $-1 $149 forward single #
face $-1 $150 $151 $78 $-1 $152 forward single #
face $-1 $153 $154 $79 $-1 $155 forward single #
face $-1 $156 $157 $80 $-1 $158 reversed single #
face $-1 $159 $160 $81 $-1 $161 forward single #
face $-1 $162 $163 $82 $-1 $164 forward single #
face $-1 $165 $166 $83 $-1 $167 forward single #
face $-1 $168 $169 $63 $-1 $170 reversed single #
loop $-1 $-1 $171 $84 #
plane-surface $-1 0 0 7.5058851735571102 0 0 1 1 0 0 forward_v I I I I #
face $-1 $172 $173 $64 $-1 $174 reversed single #
loop $-1 $-1 $175 $85 #
plane-surface $-1 -33.835607616738571 58.016088238320222 86.1712935571515 1 0 0 0 -0.7660444514056185 -0.64278759981090561 forward_v I I I I #
face $-1 $176 $177 $65 $-1 $178 forward single #
loop $-1 $179 $180 $86 #
cone-surface $-1 -31.242563671441943 16.985479453766715 3.3101344230671659 0 -0.7660444514056185 -0.64278759981090561 1 0 0 1 I I 0 1 1 forward I I I I #
face $-1 $181 $182 $66 $-1 $183 forward single #
loop $-1 $184 $185 $87 #
cone-surface $-1 -27.352997753497004 16.985479453766715 3.3101344230671659 0 -0.7660444514056185 -0.64278759981090561 1 0 0 1 I I 0 1 1 forward I I I I #
face $-1 $186 $187 $67 $-1 $188 forward single #
loop $-1 $189 $190 $88 #
cone-surface $-1 -23.463431835552065 16.985479453766715 3.3101344230671659 0 -0.7660444514056185 -0.64278759981090561 1 0 0 1 I I 0 1 1 forward I I I I #
face $-1 $191 $192 $68 $-1 $193 reversed single #
loop $-1 $-1 $194 $89 #
plane-surface $-1 -12.965219726483127 58.016088238320222 86.1712935571515 1 0 0 0 -0.7660444514056185 -0.64278759981090561 forward_v I I I I #
face $-1 $195 $196 $69 $-1 $197 forward single #
loop $-1 $198 $199 $90 #
cone-surface $-1 -10.372175781186503 16.985479453766715 3.3101344230671659 0 -0.7660444514056185 -0.64278759981090561 1 0 0 1 I I 0 1 1 forward I I I I #
face $-1 $200 $201 $70 $-1 $202 forward single #
loop $-1 $203 $204 $91 #
cone-surface $-1 -6.4826098632415636 16.985479453766715 3.3101344230671659 0 -0.7660444514056185 -0.64278759981090561 1 0 0 1 I I 0 1 1 forward I I I I #
face $-1 $205 $206 $71 $-1 $207 forward single #
loop $-1 $208 $209 $92 #
cone-surface $-1 -2.5930439452966212 16.985479453766715 3.3101344230671659 0 -0.7660444514056185 -0.64278759981090561 1 0 0 1 I I 0 1 1 forward I I I I #
face $-1 $210 $211 $72 $-1 $212 reversed single #
loop $-1 $-1 $213 $93 #
plane-surface $-1 7.9051681637723092 58.016088238320222 86.1712935571515 1 0 0 0 -0.7660444514056185 -0.64278759981090561 forward_v I I I I #
face $-1 $214 $215 $73 $-1 $216 forward single #
loop $-1 $217 $218 $94 #
cone-surface $-1 10.498212109068938 16.985479453766715 3.3101344230671659 0 -0.7660444514056185 -0.64278759981090561 1 0 0 1 I I 0 1 1 forward I I I I #
face $-1 $219 $220 $74 $-1 $221 forward single #
loop $-1 $222 $223 $95 #
cone-surface $-1 14.387778027013873 16.985479453766715 3.3101344230671659 0 -0.7660444514056185 -0.64278759981090561 1 0 0 1 I I 0 1 1 forward I I I I #
face $-1 $224 $225 $75 $-1 $226 forward single #
loop $-1 $227 $228 $96 #
cone-surface $-1 18.277343944958822 16.985479453766715 3.3101344230671659 0 -0.7660444514056185 -0.64278759981090561 1 0 0 1 I I 0 1 1 forward I I I I #
face $-1 $229 $230 $76 $-1 $231 reversed single #
loop $-1 $-1 $232 $97 #
plane-surface $-1 28.775556054027753 58.016088238320222 86.1712935571515 1 0 0 0 -0.7660444514056185 -0.64278759981090561 forward_v I I I I #
face $-1 $233 $234 $77 $-1 $235 forward single #
loop $-1 $236 $237 $98 #
cone-surface $-1 31.368599999324381 16.985479453766715 3.3101344230671659 0 -0.7660444514056185 -0.64278759981090561 1 0 0 1 I I 0 1 1 forward I I I I #
face $-1 $238 $239 $78 $-1 $240 forward single #
loop $-1 $241 $242 $99 #
cone-surface $-1 35.258165917269316 16.985479453766715 3.3101344230671659 0 -0.7660444514056185 -0.64278759981090561 1 0 0 1 I I 0 1 1 forward I I I I #
face $-1 $243 $244 $79 $-1 $245 forward single #
loop $-1 $246 $247 $100 #
cone-surface $-1 39.147731835214266 16.985479453766715 3.3101344230671659 0 -0.7660444514056185 -0.64278759981090561 1 0 0 1 I I 0 1 1 forward I I I I #
face $-1 $248 $249 $80 $-1 $250 reversed single #
loop $-1 $-1 $251 $101 #
plane-surface $-1 -2.9664562983367695 -91.577206619162524 46.868415521938829 -1 0 0 0 -0.84804810408105047 0.52991925155115449 forward_v I I I I #
face $-1 $252 $253 $81 $-1 $254 forward single #
loop $-1 $255 $256 $102 #
cone-surface $-1 -12.64355969276593 -18.820764920394758 4.7950579564979243 0 0.84804810408105047 -0.52991925155115449 0.5 0 0 1 I I 0 1 0.5 forward I I I I #
face $-1 $257 $258 $82 $-1 $259 forward single #
loop $-1 $260 $261 $103 #
cone-surface $-1 -9.0146459198549991 -18.820764920394758 4.7950579564979243 0 0.84804810408105047 -0.52991925155115449 0.5 0 0 1 I I 0 1 0.5 forward I I I I #
face $-1 $262 $263 $83 $-1 $264 forward single #
loop $-1 $265 $266 $104 #
cone-surface $-1 -5.3857321469440649 -18.820764920394758 4.7950579564979243 0 0.84804810408105047 -0.52991925155115449 0.5 0 0 1 I I 0 1 0.5 forward I I I I #
face $-1 $267 $268 $63 $-1 $269 reversed single #
loop $-1 $-1 $270 $105 #
plane-surface $-1 0 0 -7.5058851735571102 0 0 1 1 0 0 forward_v I I I I #
coedge $-1 $271 $272 $273 $274 forward $106 $-1 #
face $-1 $275 $276 $64 $-1 $277 reversed single #
loop $-1 $-1 $278 $108 #
plane-surface $-1 -27.352997753497004 -5.9344911297325496 32.510387400751959 0 0.7660444514056185 0.64278759981090561 1 0 0 forward_v I I I I #
coedge $-1 $279 $280 $281 $282 reversed $109 $-1 #
face $-1 $-1 $283 $65 $-1 $284 forward single #
loop $-1 $285 $286 $111 #
cone-surface $-1 -31.242563671441943 15.674130677002164 2.2097821769477983 0 -0.7660444514056185 -0.64278759981090561 0.5 0 0 1 I I -0.70710678118654746 0.70710678118654746 0.5 forward I I I I #
loop $-1 $-1 $287 $86 #
coedge $-1 $180 $180 $288 $289 reversed $112 $-1 #
face $-1 $-1 $290 $66 $-1 $291 forward single #
loop $-1 $292 $293 $114 #
cone-surface $-1 -27.352997753497004 15.674130677002164 2.2097821769477983 0 -0.7660444514056185 -0.64278759981090561 0.5 0 0 1 I I -0.70710678118654746 0.70710678118654746 0.5 forward I I I I #
loop $-1 $-1 $294 $87 #
coedge $-1 $185 $185 $295 $296 reversed $115 $-1 #
face $-1 $-1 $297 $67 $-1 $298 forward single #
loop $-1 $299 $300 $117 #
cone-surface $-1 -23.463431835552065 15.674130677002164 2.2097821769477983 0 -0.7660444514056185 -0.64278759981090561 0.5 0 0 1 I I -0.70710678118654746 0.70710678118654746 0.5 forward I I I I #
loop $-1 $-1 $301 $88 #
coedge $-1 $190 $190 $302 $303 reversed $118 $-1 #
face $-1 $304 $305 $68 $-1 $306 reversed single #
loop $-1 $-1 $307 $120 #
plane-surface $-1 -6.4826098632415636 -5.9344911297325496 32.510387400751959 0 0.7660444514056185 0.64278759981090561 1 0 0 forward_v I I I I #
coedge $-1 $308 $309 $310 $311 reversed $121 $-1 #
face $-1 $-1 $312 $69 $-1 $313 forward single #
loop $-1 $314 $315 $123 #
cone-surface $-1 -10.372175781186503 15.674130677002164 2.2097821769477983 0 -0.7660444514056185 -0.64278759981090561 0.5 0 0 1 I I -0.70710678118654746 0.70710678118654746 0.5 forward I I I I #
loop $-1 $-1 $316 $90 #
coedge $-1 $199 $199 $317 $318 reversed $124 $-1 #
face $-1 $-1 $319 $70 $-1 $320 forward single #
loop $-1 $321 $322 $126 #
cone-surface $-1 -6.4826098632415636 15.674130677002164 2.2097821769477983 0 -0.7660444514056185 -0.64278759981090561 0.5 0 0 1 I I -0.70710678118654746 0.70710678118654746 0.5 forward I I I I #
loop $-1 $-1 $323 $91 #
coedge $-1 $204 $204 $324 $325 reversed $127 $-1 #
face $-1 $-1 $326 $71 $-1 $327 forward single #
loop $-1 $328 $329 $129 #
cone-surface $-1 -2.5930439452966212 15.674130677002164 2.2097821769477983 0 -0.7660444514056185 -0.64278759981090561 0.5 0 0 1 I I -0.70710678118654746 0.70710678118654746 0.5 forward I I I I #
loop $-1 $-1 $330 $92 #
coedge $-1 $209 $209 $331 $332 reversed $130 $-1 #
face $-1 $333 $334 $72 $-1 $335 reversed single #
loop $-1 $-1 $336 $132 #
plane-surface $-1 14.387778027013873 -5.9344911297325496 32.510387400751959 0 0.7660444514056185 0.64278759981090561 1 0 0 forward_v I I I I #
coedge $-1 $337 $338 $339 $340 reversed $133 $-1 #
face $-1 $-1 $341 $73 $-1 $342 forward single #
loop $-1 $343 $344 $135 #
cone-surface $-1 10.498212109068938 15.674130677002164 2.2097821769477983 0 -0.7660444514056185 -0.64278759981090561 0.5 0 0 1 I I -0.70710678118654746 0.70710678118654746 0.5 forward I I I I #
loop $-1 $-1 $345 $94 #
coedge $-1 $218 $218 $346 $347 reversed $136 $-1 #
face $-1 $-1 $348 $74 $-1 $349 forward single #
loop $-1 $350 $351 $138 #
cone-surface $-1 14.387778027013873 15.674130677002164 2.2097821769477983 0 -0.7660444514056185 -0.64278759981090561 0.5 0 0 1 I I -0.70710678118654746 0.70710678118654746 0.5 forward I I I I #
loop $-1 $-1 $352 $95 #
coedge $-1 $223 $223 $353 $354 reversed $139 $-1 #
face $-1 $-1 $355 $75 $-1 $356 forward single #
loop $-1 $357 $358 $141 #
cone-surface $-1 18.277343944958822 15.674130677002164 2.2097821769477983 0 -0.7660444514056185 -0.64278759981090561 0.5 0 0 1 I I -0.70710678118654746 0.70710678118654746 0.5 forward I I I I #
loop $-1 $-1 $359 $96 #
coedge $-1 $228 $228 $360 $361 reversed $142 $-1 #
face $-1 $362 $363 $76 $-1 $364 forward single #
loop $-1 $-1 $365 $144 #
plane-surface $-1 35.258165917269316 -5.9344911297325496 32.510387400751959 0 0.7660444514056185 0.64278759981090561 1 0 0 forward_v I I I I #
coedge $-1 $366 $367 $368 $369 reversed $145 $-1 #
face $-1 $-1 $370 $77 $-1 $371 forward single #
loop $-1 $372 $373 $147 #
cone-surface $-1 31.368599999324381 15.674130677002164 2.2097821769477983 0 -0.7660444514056185 -0.64278759981090561 0.5 0 0 1 I I -0.70710678118654746 0.70710678118654746 0.5 forward I I I I #
loop $-1 $-1 $374 $98 #
coedge $-1 $237 $237 $375 $376 reversed $148 $-1 #
face $-1 $-1 $377 $78 $-1 $378 forward single #
loop $-1 $379 $380 $150 #
cone-surface $-1 35.258165917269316 15.674130677002164 2.2097821769477983 0 -0.7660444514056185 -0.64278759981090561 0.5 0 0 1 I I -0.70710678118654746 0.70710678118654746 0.5 forward I I I I #
loop $-1 $-1 $381 $99 #
coedge $-1 $242 $242 $382 $383 reversed $151 $-1 #
face $-1 $-1 $384 $79 $-1 $385 forward single #
loop $-1 $386 $387 $153 #
cone-surface $-1 39.147731835214266 15.674130677002164 2.2097821769477983 0 -0.7660444514056185 -0.64278759981090561 0.5 0 0 1 I I -0.70710678118654746 0.70710678118654746 0.5 forward I I I I #
loop $-1 $-1 $388 $100 #
coedge $-1 $247 $247 $389 $390 reversed $154 $-1 #
face $-1 $391 $392 $80 $-1 $393 reversed single #
loop $-1 $-1 $394 $156 #
plane-surface $-1 -9.014645919854992 -20.780835092093568 2.6299342003930661 0 -0.84804810408105047 0.52991925155115449 1 0 0 forward_v I I I I #
coedge $-1 $395 $396 $397 $398 reversed $157 $-1 #
face $-1 $-1 $399 $81 $-1 $400 forward single #
loop $-1 $401 $402 $159 #
cone-surface $-1 -12.64355969276593 -18.172098834252928 4.3897264131329701 0 0.84804810408105047 -0.52991925155115449 0.25 0 0 1 I I -0.70710678118654746 0.70710678118654746 0.25 forward I I I I #
loop $-1 $-1 $403 $102 #
coedge $-1 $256 $256 $404 $405 reversed $160 $-1 #
face $-1 $-1 $406 $82 $-1 $407 forward single #
loop $-1 $408 $409 $162 #
cone-surface $-1 -9.0146459198549991 -18.172098834252928 4.3897264131329701 0 0.84804810408105047 -0.52991925155115449 0.25 0 0 1 I I -0.70710678118654746 0.70710678118654746 0.25 forward I I I I #
loop $-1 $-1 $410 $103 #
coedge $-1 $261 $261 $411 $412 reversed $163 $-1 #
face $-1 $-1 $413 $83 $-1 $414 forward single #
loop $-1 $415 $416 $165 #
cone-surface $-1 -5.3857321469440649 -18.172098834252928 4.3897264131329701 0 0.84804810408105047 -0.52991925155115449 0.25 0 0 1 I I -0.70710678118654746 0.70710678118654746 0.25 forward I I I I #
loop $-1 $-1 $417 $104 #
coedge $-1 $266 $266 $418 $419 reversed $166 $-1 #
face $-1 $420 $421 $63 $-1 $422 reversed single #
loop $-1 $-1 $423 $168 #
plane-surface $-1 0 -20.780835092093572 0 0 1 0 0 0 1 forward_v I I I I #
coedge $-1 $424 $425 $426 $427 forward $169 $-1 #
coedge $-1 $428 $171 $429 $430 forward $106 $-1 #
coedge $-1 $171 $428 $431 $432 forward $106 $-1 #
coedge $-1 $433 $434 $171 $274 reversed $435 $-1 #
edge $-1 $436 -20.780835092093572 $437 20.780835092093572 $273 $438 forward 7 unknown #
face $-1 $439 $440 $64 $-1 $441 reversed single #
loop $-1 $-1 $442 $172 #
plane-surface $-1 -20.87038789025544 58.016088238320222 86.1712935571515 -1 0 0 0 0.7660444514056185 0.64278759981090561 forward_v I I I I #
coedge $-1 $443 $444 $445 $446 reversed $173 $-1 #
coedge $-1 $280 $175 $447 $448 reversed $109 $-1 #
coedge $-1 $175 $279 $443 $449 reversed $109 $-1 #
coedge $-1 $445 $450 $175 $282 forward $451 $-1 #
edge $-1 $452 8.2272090270665394 $453 13.961267201596758 $281 $454 forward 7 unknown #
loop $-1 $-1 $288 $176 #
plane-surface $-1 -27.352997753497004 -5.9344911297325496 32.510387400751959 0 0.7660444514056185 0.64278759981090561 1 0 0 forward_v I I I I #
loop $-1 $-1 $455 $111 #
coedge $-1 $286 $286 $287 $456 reversed $177 $-1 #
coedge $-1 $287 $287 $286 $456 forward $179 $-1 #
coedge $-1 $288 $288 $180 $289 forward $283 $-1 #
edge $-1 $457 -2.5732075385543433e-015 $457 6.2831853071795978 $288 $458 forward 7 unknown #
loop $-1 $-1 $295 $181 #
plane-surface $-1 -27.352997753497004 -5.9344911297325496 32.510387400751959 0 0.7660444514056185 0.64278759981090561 1 0 0 forward_v I I I I #
loop $-1 $-1 $459 $114 #
coedge $-1 $293 $293 $294 $460 reversed $182 $-1 #
coedge $-1 $294 $294 $293 $460 forward $184 $-1 #
coedge $-1 $295 $295 $185 $296 forward $290 $-1 #
edge $-1 $461 -2.5732075385543433e-015 $461 6.2831853071795978 $295 $462 forward 7 unknown #
loop $-1 $-1 $302 $186 #
plane-surface $-1 -27.352997753497004 -5.9344911297325496 32.510387400751959 0 0.7660444514056185 0.64278759981090561 1 0 0 forward_v I I I I #
loop $-1 $-1 $463 $117 #
coedge $-1 $300 $300 $301 $464 reversed $187 $-1 #
coedge $-1 $301 $301 $300 $464 forward $189 $-1 #
coedge $-1 $302 $302 $190 $303 forward $297 $-1 #
edge $-1 $465 -2.5732075385543433e-015 $465 6.2831853071795978 $302 $466 forward 7 unknown #
face $-1 $467 $468 $68 $-1 $469 forward single #
loop $-1 $-1 $470 $191 #
plane-surface $-1 0 58.016088238320222 86.1712935571515 -1 0 0 0 0.7660444514056185 0.64278759981090561 forward_v I I I I #
coedge $-1 $471 $472 $473 $474 reversed $192 $-1 #
coedge $-1 $309 $194 $475 $476 reversed $121 $-1 #
coedge $-1 $194 $308 $471 $477 reversed $121 $-1 #
coedge $-1 $473 $478 $194 $311 forward $468 $-1 #
edge $-1 $479 8.2272090270665394 $480 13.961267201596758 $310 $481 forward 7 unknown #
loop $-1 $-1 $317 $195 #
plane-surface $-1 -6.4826098632415636 -5.9344911297325496 32.510387400751959 0 0.7660444514056185 0.64278759981090561 1 0 0 forward_v I I I I #
loop $-1 $-1 $482 $123 #
coedge $-1 $315 $315 $316 $483 reversed $196 $-1 #
coedge $-1 $316 $316 $315 $483 forward $198 $-1 #
coedge $-1 $317 $317 $199 $318 forward $312 $-1 #
edge $-1 $484 -2.5732075385543433e-015 $484 6.2831853071795978 $317 $485 forward 7 unknown #
loop $-1 $-1 $324 $200 #
plane-surface $-1 -6.4826098632415636 -5.9344911297325496 32.510387400751959 0 0.7660444514056185 0.64278759981090561 1 0 0 forward_v I I I I #
loop $-1 $-1 $486 $126 #
coedge $-1 $322 $322 $323 $487 reversed $201 $-1 #
coedge $-1 $323 $323 $322 $487 forward $203 $-1 #
coedge $-1 $324 $324 $204 $325 forward $319 $-1 #
edge $-1 $488 -2.5732075385543433e-015 $488 6.2831853071795978 $324 $489 forward 7 unknown #
loop $-1 $-1 $331 $205 #
plane-surface $-1 -6.4826098632415636 -5.9344911297325496 32.510387400751959 0 0.7660444514056185 0.64278759981090561 1 0 0 forward_v I I I I #
loop $-1 $-1 $490 $129 #
coedge $-1 $329 $329 $330 $491 reversed $206 $-1 #
coedge $-1 $330 $330 $329 $491 forward $208 $-1 #
coedge $-1 $331 $331 $209 $332 forward $326 $-1 #
edge $-1 $492 -2.5732075385543433e-015 $492 6.2831853071795978 $331 $493 forward 7 unknown #
face $-1 $494 $495 $72 $-1 $496 forward single #
loop $-1 $-1 $497 $210 #
plane-surface $-1 20.870387890255437 58.016088238320222 86.1712935571515 -1 0 0 0 0.7660444514056185 0.64278759981090561 forward_v I I I I #
coedge $-1 $498 $499 $500 $501 reversed $211 $-1 #
coedge $-1 $338 $213 $502 $503 reversed $133 $-1 #
coedge $-1 $213 $337 $498 $504 reversed $133 $-1 #
coedge $-1 $500 $505 $213 $340 forward $495 $-1 #
edge $-1 $506 8.2272090270665394 $507 13.961267201596758 $339 $508 forward 7 unknown #
loop $-1 $-1 $346 $214 #
plane-surface $-1 14.387778027013873 -5.9344911297325496 32.510387400751959 0 0.7660444514056185 0.64278759981090561 1 0 0 forward_v I I I I #
loop $-1 $-1 $509 $135 #
coedge $-1 $344 $344 $345 $510 reversed $215 $-1 #
coedge $-1 $345 $345 $344 $510 forward $217 $-1 #
coedge $-1 $346 $346 $218 $347 forward $341 $-1 #
edge $-1 $511 -2.5732075385543433e-015 $511 6.2831853071795978 $346 $512 forward 7 unknown #
loop $-1 $-1 $353 $219 #
plane-surface $-1 14.387778027013873 -5.9344911297325496 32.510387400751959 0 0.7660444514056185 0.64278759981090561 1 0 0 forward_v I I I I #
loop $-1 $-1 $513 $138 #
coedge $-1 $351 $351 $352 $514 reversed $220 $-1 #
coedge $-1 $352 $352 $351 $514 forward $222 $-1 #
coedge $-1 $353 $353 $223 $354 forward $348 $-1 #
edge $-1 $515 -2.5732075385543433e-015 $515 6.2831853071795978 $353 $516 forward 7 unknown #
loop $-1 $-1 $360 $224 #
plane-surface $-1 14.387778027013873 -5.9344911297325496 32.510387400751959 0 0.7660444514056185 0.64278759981090561 1 0 0 forward_v I I I I #
loop $-1 $-1 $517 $141 #
coedge $-1 $358 $358 $359 $518 reversed $225 $-1 #
coedge $-1 $359 $359 $358 $518 forward $227 $-1 #
coedge $-1 $360 $360 $228 $361 forward $355 $-1 #
edge $-1 $519 -2.5732075385543433e-015 $519 6.2831853071795978 $360 $520 forward 7 unknown #
face $-1 $521 $522 $76 $-1 $523 reversed single #
loop $-1 $-1 $368 $229 #
plane-surface $-1 0 0 7.5058851735571102 0 0 1 1 0 0 forward_v I I I I #
coedge $-1 $524 $525 $526 $527 reversed $230 $-1 #
coedge $-1 $367 $232 $528 $529 reversed $145 $-1 #
coedge $-1 $232 $366 $524 $530 reversed $145 $-1 #
coedge $-1 $526 $531 $232 $369 forward $363 $-1 #
edge $-1 $532 8.2272090270665394 $533 13.961267201596758 $368 $534 forward 7 unknown #
loop $-1 $-1 $375 $233 #
plane-surface $-1 35.258165917269316 -5.9344911297325496 32.510387400751959 0 0.7660444514056185 0.64278759981090561 1 0 0 forward_v I I I I #
loop $-1 $-1 $535 $147 #
coedge $-1 $373 $373 $374 $536 reversed $234 $-1 #
coedge $-1 $374 $374 $373 $536 forward $236 $-1 #
coedge $-1 $375 $375 $237 $376 forward $370 $-1 #
edge $-1 $537 -2.5732075385543433e-015 $537 6.2831853071795978 $375 $538 forward 7 unknown #
loop $-1 $-1 $382 $238 #
plane-surface $-1 35.258165917269316 -5.9344911297325496 32.510387400751959 0 0.7660444514056185 0.64278759981090561 1 0 0 forward_v I I I I #
loop $-1 $-1 $539 $150 #
coedge $-1 $380 $380 $381 $540 reversed $239 $-1 #
coedge $-1 $381 $381 $380 $540 forward $241 $-1 #
coedge $-1 $382 $382 $242 $383 forward $377 $-1 #
edge $-1 $541 -2.5732075385543433e-015 $541 6.2831853071795978 $382 $542 forward 7 unknown #
loop $-1 $-1 $389 $243 #
plane-surface $-1 35.258165917269316 -5.9344911297325496 32.510387400751959 0 0.7660444514056185 0.64278759981090561 1 0 0 forward_v I I I I #
loop $-1 $-1 $543 $153 #
coedge $-1 $387 $387 $388 $544 reversed $244 $-1 #
coedge $-1 $388 $388 $387 $544 forward $246 $-1 #
coedge $-1 $389 $389 $247 $390 forward $384 $-1 #
edge $-1 $545 -2.5732075385543433e-015 $545 6.2831853071795978 $389 $546 forward 7 unknown #
face $-1 $547 $548 $80 $-1 $549 reversed single #
loop $-1 $-1 $550 $248 #
plane-surface $-1 -15.062835541373214 -91.577206619162524 46.868415521938829 1 0 0 0 0.84804810408105047 -0.52991925155115449 forward_v I I I I #
coedge $-1 $551 $552 $553 $554 reversed $249 $-1 #
coedge $-1 $396 $251 $555 $556 reversed $157 $-1 #
coedge $-1 $251 $395 $551 $557 reversed $157 $-1 #
coedge $-1 $553 $558 $251 $398 forward $559 $-1 #
edge $-1 $560 25.007768217487691 $561 28.054600440642179 $397 $562 forward 7 unknown #
loop $-1 $-1 $404 $252 #
plane-surface $-1 -9.014645919854992 -20.780835092093568 2.6299342003930661 0 -0.84804810408105047 0.52991925155115449 1 0 0 forward_v I I I I #
loop $-1 $-1 $563 $159 #
coedge $-1 $402 $402 $403 $564 reversed $253 $-1 #
coedge $-1 $403 $403 $402 $564 forward $255 $-1 #
coedge $-1 $404 $404 $256 $405 forward $399 $-1 #
edge $-1 $565 -7.5243064764144144e-016 $565 6.2831853071795996 $404 $566 forward 7 unknown #
loop $-1 $-1 $411 $257 #
plane-surface $-1 -9.014645919854992 -20.780835092093568 2.6299342003930661 0 -0.84804810408105047 0.52991925155115449 1 0 0 forward_v I I I I #
loop $-1 $-1 $567 $162 #
coedge $-1 $409 $409 $410 $568 reversed $258 $-1 #
coedge $-1 $410 $410 $409 $568 forward $260 $-1 #
coedge $-1 $411 $411 $261 $412 forward $406 $-1 #
edge $-1 $569 -7.5243064764144144e-016 $569 6.2831853071795996 $411 $570 forward 7 unknown #
loop $-1 $-1 $418 $262 #
plane-surface $-1 -9.014645919854992 -20.780835092093568 2.6299342003930661 0 -0.84804810408105047 0.52991925155115449 1 0 0 forward_v I I I I #
loop $-1 $-1 $571 $165 #
coedge $-1 $416 $416 $417 $572 reversed $263 $-1 #
coedge $-1 $417 $417 $416 $572 forward $265 $-1 #
coedge $-1 $418 $418 $266 $419 forward $413 $-1 #
edge $-1 $573 -7.5243064764144144e-016 $573 6.2831853071795996 $418 $574 forward 7 unknown #
face $-1 $575 $576 $63 $-1 $577 reversed single #
loop $-1 $-1 $578 $267 #
plane-surface $-1 -41.74077578051088 0 0 1 0 0 0 0 -1 forward_v I I I I #
coedge $-1 $579 $431 $580 $581 forward $268 $-1 #
coedge $-1 $582 $270 $579 $583 forward $169 $-1 #
coedge $-1 $270 $582 $584 $585 forward $169 $-1 #
coedge $-1 $434 $433 $270 $427 reversed $435 $-1 #
edge $-1 $586 -20.780835092093572 $587 20.780835092093572 $426 $588 forward 7 unknown #
coedge $-1 $272 $271 $589 $590 forward $106 $-1 #
coedge $-1 $591 $592 $271 $430 reversed $576 $-1 #
edge $-1 $437 -41.74077578051088 $593 41.74077578051088 $429 $594 forward 7 unknown #
coedge $-1 $423 $595 $272 $432 reversed $268 $-1 #
edge $-1 $596 -41.74077578051088 $436 41.74077578051088 $431 $597 forward 7 unknown #
coedge $-1 $426 $273 $595 $598 forward $435 $-1 #
coedge $-1 $273 $426 $591 $599 reversed $435 $-1 #
loop $-1 $-1 $433 $575 #
vertex $-1 $274 $600 #
vertex $-1 $274 $601 #
straight-curve $-1 41.74077578051088 0 7.5058851735571102 0 1 0 I I #
face $-1 $-1 $451 $64 $-1 $602 forward single #
loop $-1 $-1 $603 $275 #
plane-surface $-1 0 20.780835092093572 0 0 -1 0 0 0 -1 forward_v I I I I #
coedge $-1 $604 $605 $606 $607 reversed $276 $-1 #
coedge $-1 $608 $278 $280 $449 forward $173 $-1 #
coedge $-1 $278 $608 $604 $609 forward $173 $-1 #
coedge $-1 $606 $281 $278 $446 forward $451 $-1 #
edge $-1 $453 -20.159108739990067 $610 -7.1938890135069382 $445 $611 forward 7 unknown #
coedge $-1 $612 $613 $279 $448 forward $440 $-1 #
edge $-1 $614 -42.413346213570662 $452 -35.579761605018639 $447 $615 forward 7 unknown #
edge $-1 $453 32.641059120412635 $614 41.561670184187129 $280 $616 forward 7 unknown #
coedge $-1 $281 $606 $612 $617 forward $451 $-1 #
loop $-1 $-1 $606 $439 #
vertex $-1 $448 $618 #
vertex $-1 $282 $619 #
straight-curve $-1 -33.835607616738571 29.008044119160111 7.505885173557111 0 -1 0 I I #
coedge $-1 $455 $455 $-1 $620 reversed $285 $-1 #
edge $-1 $621 0 $621 6.2831853071796004 $286 $622 forward 7 unknown #
vertex $-1 $289 $623 #
ellipse-curve $-1 -31.242563671441943 17.913806004828469 4.0890928692810924 0 0.7660444514056185 0.64278759981090561 1 0 0 1 I I #
coedge $-1 $459 $459 $-1 $624 reversed $292 $-1 #
edge $-1 $625 0 $625 6.2831853071796004 $293 $626 forward 7 unknown #
vertex $-1 $296 $627 #
ellipse-curve $-1 -27.352997753497004 17.913806004828469 4.0890928692810924 0 0.7660444514056185 0.64278759981090561 1 0 0 1 I I #
coedge $-1 $463 $463 $-1 $628 reversed $299 $-1 #
edge $-1 $629 0 $629 6.2831853071796004 $300 $630 forward 7 unknown #
vertex $-1 $303 $631 #
ellipse-curve $-1 -23.463431835552065 17.913806004828469 4.0890928692810924 0 0.7660444514056185 0.64278759981090561 1 0 0 1 I I #
face $-1 $-1 $632 $68 $-1 $633 reversed single #
loop $-1 $-1 $310 $304 #
plane-surface $-1 0 0 7.5058851735571102 0 0 1 1 0 0 forward_v I I I I #
coedge $-1 $634 $635 $636 $637 reversed $305 $-1 #
coedge $-1 $638 $307 $309 $477 forward $192 $-1 #
coedge $-1 $307 $638 $634 $639 forward $192 $-1 #
coedge $-1 $636 $310 $307 $474 forward $468 $-1 #
edge $-1 $480 -9.7239147948623454 $640 3.2413049316207818 $473 $641 forward 7 unknown #
coedge $-1 $642 $643 $308 $476 forward $632 $-1 #
edge $-1 $644 -42.413346213570662 $479 -35.579761605018639 $475 $645 forward 7 unknown #
edge $-1 $480 32.641059120412635 $644 41.561670184187129 $309 $646 forward 7 unknown #
coedge $-1 $310 $636 $642 $647 forward $468 $-1 #
vertex $-1 $311 $648 #
vertex $-1 $311 $649 #
straight-curve $-1 -12.965219726483127 29.008044119160111 7.505885173557111 0 -1 0 I I #
coedge $-1 $482 $482 $-1 $650 reversed $314 $-1 #
edge $-1 $651 0 $651 6.2831853071796004 $315 $652 forward 7 unknown #
vertex $-1 $318 $653 #
ellipse-curve $-1 -10.372175781186503 17.913806004828469 4.0890928692810924 0 0.7660444514056185 0.64278759981090561 1 0 0 1 I I #
coedge $-1 $486 $486 $-1 $654 reversed $321 $-1 #
edge $-1 $655 0 $655 6.2831853071796004 $322 $656 forward 7 unknown #
vertex $-1 $325 $657 #
ellipse-curve $-1 -6.4826098632415636 17.913806004828469 4.0890928692810924 0 0.7660444514056185 0.64278759981090561 1 0 0 1 I I #
coedge $-1 $490 $490 $-1 $658 reversed $328 $-1 #
edge $-1 $659 0 $659 6.2831853071796004 $329 $660 forward 7 unknown #
vertex $-1 $332 $661 #
ellipse-curve $-1 -2.5930439452966212 17.913806004828469 4.0890928692810924 0 0.7660444514056185 0.64278759981090561 1 0 0 1 I I #
face $-1 $-1 $662 $72 $-1 $663 reversed single #
loop $-1 $-1 $339 $333 #
plane-surface $-1 0 0 7.5058851735571102 0 0 1 1 0 0 forward_v I I I I #
coedge $-1 $664 $665 $666 $667 reversed $334 $-1 #
coedge $-1 $668 $336 $338 $504 forward $211 $-1 #
coedge $-1 $336 $668 $664 $669 forward $211 $-1 #
coedge $-1 $666 $339 $336 $501 forward $495 $-1 #
edge $-1 $507 0.71127915026537281 $670 13.6764988767485 $500 $671 forward 7 unknown #
coedge $-1 $672 $673 $337 $503 forward $662 $-1 #
edge $-1 $674 -42.413346213570662 $506 -35.579761605018639 $502 $675 forward 7 unknown #
edge $-1 $507 32.641059120412635 $674 41.561670184187129 $338 $676 forward 7 unknown #
coedge $-1 $339 $666 $672 $677 forward $495 $-1 #
vertex $-1 $340 $678 #
vertex $-1 $340 $679 #
straight-curve $-1 7.9051681637723092 29.008044119160111 7.505885173557111 0 -1 0 I I #
coedge $-1 $509 $509 $-1 $680 reversed $343 $-1 #
edge $-1 $681 0 $681 6.2831853071796004 $344 $682 forward 7 unknown #
vertex $-1 $347 $683 #
ellipse-curve $-1 10.498212109068938 17.913806004828469 4.0890928692810924 0 0.7660444514056185 0.64278759981090561 1 0 0 1 I I #
coedge $-1 $513 $513 $-1 $684 reversed $350 $-1 #
edge $-1 $685 0 $685 6.2831853071796004 $351 $686 forward 7 unknown #
vertex $-1 $354 $687 #
ellipse-curve $-1 14.387778027013873 17.913806004828469 4.0890928692810924 0 0.7660444514056185 0.64278759981090561 1 0 0 1 I I #
coedge $-1 $517 $517 $-1 $688 reversed $357 $-1 #
edge $-1 $689 0 $689 6.2831853071796004 $358 $690 forward 7 unknown #
vertex $-1 $361 $691 #
ellipse-curve $-1 18.277343944958822 17.913806004828469 4.0890928692810924 0 0.7660444514056185 0.64278759981090561 1 0 0 1 I I #
face $-1 $-1 $692 $76 $-1 $693 reversed single #
loop $-1 $-1 $528 $362 #
plane-surface $-1 0 20.780835092093572 0 0 -1 0 0 0 -1 forward_v I I I I #
coedge $-1 $694 $365 $367 $530 forward $230 $-1 #
coedge $-1 $365 $694 $695 $696 reversed $230 $-1 #
coedge $-1 $697 $368 $365 $527 forward $363 $-1 #
edge $-1 $533 11.146473095393095 $698 24.111692821876222 $526 $699 forward 7 unknown #
coedge $-1 $700 $701 $366 $529 forward $522 $-1 #
edge $-1 $702 -42.413346213570662 $532 -35.579761605018639 $528 $703 forward 7 unknown #
edge $-1 $533 32.641059120412635 $702 41.561670184187129 $367 $704 forward 7 unknown #
coedge $-1 $368 $697 $700 $705 forward $363 $-1 #
vertex $-1 $369 $706 #
vertex $-1 $369 $707 #
straight-curve $-1 28.775556054027753 29.008044119160111 7.505885173557111 0 -1 0 I I #
coedge $-1 $535 $535 $-1 $708 reversed $372 $-1 #
edge $-1 $709 0 $709 6.2831853071796004 $373 $710 forward 7 unknown #
vertex $-1 $376 $711 #
ellipse-curve $-1 31.368599999324381 17.913806004828469 4.0890928692810924 0 0.7660444514056185 0.64278759981090561 1 0 0 1 I I #
coedge $-1 $539 $539 $-1 $712 reversed $379 $-1 #
edge $-1 $713 0 $713 6.2831853071796004 $380 $714 forward 7 unknown #
vertex $-1 $383 $715 #
ellipse-curve $-1 35.258165917269316 17.913806004828469 4.0890928692810924 0 0.7660444514056185 0.64278759981090561 1 0 0 1 I I #
coedge $-1 $543 $543 $-1 $716 reversed $386 $-1 #
edge $-1 $717 0 $717 6.2831853071796004 $387 $718 forward 7 unknown #
vertex $-1 $390 $719 #
ellipse-curve $-1 39.147731835214266 17.913806004828469 4.0890928692810924 0 0.7660444514056185 0.64278759981090561 1 0 0 1 I I #
face $-1 $-1 $559 $80 $-1 $720 forward single #
loop $-1 $-1 $721 $391 #
plane-surface $-1 0 -20.780835092093572 0 0 1 0 0 0 1 forward_v I I I I #
coedge $-1 $722 $723 $724 $725 reversed $392 $-1 #
coedge $-1 $726 $394 $396 $557 forward $249 $-1 #
coedge $-1 $394 $726 $722 $727 forward $249 $-1 #
coedge $-1 $724 $397 $394 $554 forward $559 $-1 #
edge $-1 $561 -1.5408666615907265 $728 10.555512581445718 $553 $729 forward 7 unknown #
coedge $-1 $730 $731 $395 $556 forward $548 $-1 #
edge $-1 $732 -20.804273560576355 $560 -15.928322587412303 $555 $733 forward 7 unknown #
edge $-1 $561 -5.7496160296798857 $732 6.7785685355760754e-015 $396 $734 forward 7 unknown #
coedge $-1 $397 $724 $730 $735 forward $559 $-1 #
loop $-1 $-1 $724 $547 #
vertex $-1 $556 $736 #
vertex $-1 $398 $737 #
straight-curve $-1 -2.9664562983367695 -45.788603309581262 7.505885173557111 0 1 0 I I #
coedge $-1 $563 $563 $-1 $738 reversed $401 $-1 #
edge $-1 $739 0 $739 6.2831853071796004 $402 $740 forward 7 unknown #
vertex $-1 $405 $741 #
ellipse-curve $-1 -12.64355969276593 -19.257418980516324 5.0679096869750886 0 -0.84804810408105047 0.52991925155115449 0.5 0 0 1 I I #
coedge $-1 $567 $567 $-1 $742 reversed $408 $-1 #
edge $-1 $743 0 $743 6.2831853071796004 $409 $744 forward 7 unknown #
vertex $-1 $412 $745 #
ellipse-curve $-1 -9.0146459198549991 -19.257418980516324 5.0679096869750886 0 -0.84804810408105047 0.52991925155115449 0.5 0 0 1 I I #
coedge $-1 $571 $571 $-1 $746 reversed $415 $-1 #
edge $-1 $747 0 $747 6.2831853071796004 $416 $748 forward 7 unknown #
vertex $-1 $419 $749 #
ellipse-curve $-1 -5.3857321469440649 -19.257418980516324 5.0679096869750886 0 -0.84804810408105047 0.52991925155115449 0.5 0 0 1 I I #
face $-1 $-1 $435 $63 $-1 $750 reversed single #
loop $-1 $-1 $591 $420 #
plane-surface $-1 0 20.780835092093572 0 0 -1 0 0 0 -1 forward_v I I I I #
coedge $-1 $751 $589 $592 $752 forward $421 $-1 #
coedge $-1 $595 $423 $424 $583 reversed $268 $-1 #
coedge $-1 $589 $751 $423 $581 reversed $421 $-1 #
edge $-1 $596 -7.5058851735571102 $753 7.5058851735571102 $580 $754 forward 7 unknown #
coedge $-1 $425 $424 $751 $755 forward $169 $-1 #
edge $-1 $587 -41.74077578051088 $753 41.74077578051088 $579 $756 forward 7 unknown #
coedge $-1 $592 $591 $425 $585 reversed $576 $-1 #
edge $-1 $757 -41.74077578051088 $586 41.74077578051088 $584 $758 forward 7 unknown #
vertex $-1 $427 $759 #
vertex $-1 $598 $760 #
straight-curve $-1 41.74077578051088 0 -7.5058851735571102 0 -1 0 I I #
coedge $-1 $578 $580 $428 $590 reversed $421 $-1 #
edge $-1 $593 -20.780835092093572 $596 20.780835092093572 $589 $761 forward 7 unknown #
coedge $-1 $584 $429 $434 $599 forward $576 $-1 #
coedge $-1 $429 $584 $578 $752 reversed $576 $-1 #
vertex $-1 $430 $762 #
straight-curve $-1 0 20.780835092093572 7.5058851735571102 -1 0 0 I I #
coedge $-1 $431 $579 $433 $598 reversed $268 $-1 #
vertex $-1 $590 $763 #
straight-curve $-1 0 -20.780835092093572 7.5058851735571102 1 0 0 I I #
edge $-1 $436 -7.5058851735571102 $587 7.5058851735571102 $433 $764 forward 7 unknown #
edge $-1 $437 -7.5058851735571102 $586 7.5058851735571102 $434 $765 forward 7 unknown #
point $-1 41.74077578051088 -20.780835092093572 7.5058851735571102 #
point $-1 41.74077578051088 20.780835092093572 7.5058851735571102 #
plane-surface $-1 0 0 7.5058851735571102 0 0 1 1 0 0 forward_v I I I I #
coedge $-1 $613 $612 $605 $766 forward $440 $-1 #
coedge $-1 $605 $442 $444 $609 reversed $276 $-1 #
coedge $-1 $442 $604 $603 $766 reversed $276 $-1 #
coedge $-1 $450 $445 $442 $607 forward $451 $-1 #
edge $-1 $610 -13.961267201596758 $767 -8.2272090270665394 $606 $768 forward 7 unknown #
coedge $-1 $444 $443 $613 $769 reversed $173 $-1 #
edge $-1 $770 -41.561670184187129 $610 -32.641059120412635 $604 $771 forward 7 unknown #
vertex $-1 $446 $772 #
straight-curve $-1 -13.676498876748502 15.046776917563349 7.505885173557111 1 0 0 I I #
coedge $-1 $603 $447 $450 $617 reversed $440 $-1 #
coedge $-1 $447 $603 $608 $769 forward $440 $-1 #
vertex $-1 $448 $773 #
straight-curve $-1 -33.835607616738571 20.780835092093572 43.08564677857575 0 0 1 I I #
straight-curve $-1 -33.835607616738571 -5.9344911297325496 32.510387400751959 0 0.64278759981090561 -0.7660444514056185 I I #
edge $-1 $767 20.87038789025544 $452 33.835607616738571 $612 $774 forward 7 unknown #
point $-1 -33.835607616738571 20.780835092093572 7.5058851735571102 #
point $-1 -33.835607616738571 15.046776917563353 7.505885173557111 #
edge $-1 $775 1 $775 0 $455 $-1 forward 7 unknown #
vertex $-1 $456 $776 #
ellipse-curve $-1 -31.242563671441943 16.057152902704974 2.5311759768532509 0 0.7660444514056185 0.64278759981090561 1 0 0 1 I I #
point $-1 -30.242563671441943 17.913806004828452 4.0890928692810808 #
edge $-1 $777 1 $777 0 $459 $-1 forward 7 unknown #
vertex $-1 $460 $778 #
ellipse-curve $-1 -27.352997753497004 16.057152902704974 2.5311759768532509 0 0.7660444514056185 0.64278759981090561 1 0 0 1 I I #
point $-1 -26.352997753497004 17.913806004828452 4.0890928692810808 #
edge $-1 $779 1 $779 0 $463 $-1 forward 7 unknown #
vertex $-1 $464 $780 #
ellipse-curve $-1 -23.463431835552065 16.057152902704974 2.5311759768532509 0 0.7660444514056185 0.64278759981090561 1 0 0 1 I I #
point $-1 -22.463431835552065 17.913806004828452 4.0890928692810808 #
loop $-1 $-1 $475 $467 #
plane-surface $-1 0 20.780835092093572 0 0 -1 0 0 0 -1 forward_v I I I I #
coedge $-1 $635 $470 $472 $639 reversed $305 $-1 #
coedge $-1 $470 $634 $781 $782 reversed $305 $-1 #
coedge $-1 $478 $473 $470 $637 forward $468 $-1 #
edge $-1 $640 -13.961267201596758 $783 -8.2272090270665394 $636 $784 forward 7 unknown #
coedge $-1 $472 $471 $643 $785 reversed $192 $-1 #
edge $-1 $786 -41.561670184187129 $640 -32.641059120412635 $634 $787 forward 7 unknown #
vertex $-1 $474 $788 #
straight-curve $-1 -3.2413049316207818 15.046776917563349 7.505885173557111 1 0 0 I I #
coedge $-1 $781 $475 $478 $647 reversed $632 $-1 #
coedge $-1 $475 $781 $638 $785 forward $632 $-1 #
vertex $-1 $476 $789 #
straight-curve $-1 -12.965219726483127 20.780835092093572 43.08564677857575 0 0 1 I I #
straight-curve $-1 -12.965219726483127 -5.9344911297325496 32.510387400751959 0 0.64278759981090561 -0.7660444514056185 I I #
edge $-1 $783 0 $479 12.965219726483127 $642 $790 forward 7 unknown #
point $-1 -12.965219726483127 20.780835092093572 7.5058851735571102 #
point $-1 -12.965219726483127 15.046776917563353 7.505885173557111 #
edge $-1 $791 1 $791 0 $482 $-1 forward 7 unknown #
vertex $-1 $483 $792 #
ellipse-curve $-1 -10.372175781186503 16.057152902704974 2.5311759768532509 0 0.7660444514056185 0.64278759981090561 1 0 0 1 I I #
point $-1 -9.3721757811865025 17.913806004828452 4.0890928692810808 #
edge $-1 $793 1 $793 0 $486 $-1 forward 7 unknown #
vertex $-1 $487 $794 #
ellipse-curve $-1 -6.4826098632415636 16.057152902704974 2.5311759768532509 0 0.7660444514056185 0.64278759981090561 1 0 0 1 I I #
point $-1 -5.4826098632415636 17.913806004828452 4.0890928692810808 #
edge $-1 $795 1 $795 0 $490 $-1 forward 7 unknown #
vertex $-1 $491 $796 #
ellipse-curve $-1 -2.5930439452966212 16.057152902704974 2.5311759768532509 0 0.7660444514056185 0.64278759981090561 1 0 0 1 I I #
point $-1 -1.5930439452966212 17.913806004828452 4.0890928692810808 #
loop $-1 $-1 $502 $494 #
plane-surface $-1 0 20.780835092093572 0 0 -1 0 0 0 -1 forward_v I I I I #
coedge $-1 $665 $497 $499 $669 reversed $334 $-1 #
coedge $-1 $497 $664 $797 $798 reversed $334 $-1 #
coedge $-1 $505 $500 $497 $667 forward $495 $-1 #
edge $-1 $670 -13.961267201596758 $799 -8.2272090270665394 $666 $800 forward 7 unknown #
coedge $-1 $499 $498 $673 $801 reversed $211 $-1 #
edge $-1 $802 -41.561670184187129 $670 -32.641059120412635 $664 $803 forward 7 unknown #
vertex $-1 $501 $804 #
straight-curve $-1 7.1938890135069364 15.046776917563349 7.505885173557111 1 0 0 I I #
coedge $-1 $797 $502 $505 $677 reversed $662 $-1 #
coedge $-1 $502 $797 $668 $801 forward $662 $-1 #
vertex $-1 $503 $805 #
straight-curve $-1 7.9051681637723092 20.780835092093572 43.08564677857575 0 0 1 I I #
straight-curve $-1 7.9051681637723092 -5.9344911297325496 32.510387400751959 0 0.64278759981090561 -0.7660444514056185 I I #
edge $-1 $799 -20.870387890255437 $506 -7.9051681637723092 $672 $806 forward 7 unknown #
point $-1 7.9051681637723092 20.780835092093572 7.5058851735571102 #
point $-1 7.9051681637723092 15.046776917563353 7.505885173557111 #
edge $-1 $807 1 $807 0 $509 $-1 forward 7 unknown #
vertex $-1 $510 $808 #
ellipse-curve $-1 10.498212109068938 16.057152902704974 2.5311759768532509 0 0.7660444514056185 0.64278759981090561 1 0 0 1 I I #
point $-1 11.498212109068938 17.913806004828452 4.0890928692810808 #
edge $-1 $809 1 $809 0 $513 $-1 forward 7 unknown #
vertex $-1 $514 $810 #
ellipse-curve $-1 14.387778027013873 16.057152902704974 2.5311759768532509 0 0.7660444514056185 0.64278759981090561 1 0 0 1 I I #
point $-1 15.387778027013873 17.913806004828452 4.0890928692810808 #
edge $-1 $811 1 $811 0 $517 $-1 forward 7 unknown #
vertex $-1 $518 $812 #
ellipse-curve $-1 18.277343944958822 16.057152902704974 2.5311759768532509 0 0.7660444514056185 0.64278759981090561 1 0 0 1 I I #
point $-1 19.277343944958822 17.913806004828452 4.0890928692810808 #
loop $-1 $-1 $695 $521 #
plane-surface $-1 41.74077578051088 0 0 -1 0 0 0 0 1 forward_v I I I I #
coedge $-1 $525 $524 $701 $813 reversed $230 $-1 #
coedge $-1 $814 $815 $525 $696 forward $692 $-1 #
edge $-1 $698 18.281549525026094 $816 27.202160588800592 $695 $817 forward 7 unknown #
coedge $-1 $531 $526 $815 $818 forward $363 $-1 #
vertex $-1 $818 $819 #
straight-curve $-1 17.629082958634658 15.046776917563349 7.505885173557111 1 0 0 I I #
coedge $-1 $820 $528 $531 $705 reversed $522 $-1 #
coedge $-1 $528 $820 $694 $813 forward $522 $-1 #
vertex $-1 $529 $821 #
straight-curve $-1 28.775556054027753 20.780835092093572 43.08564677857575 0 0 1 I I #
straight-curve $-1 28.775556054027753 -5.9344911297325496 32.510387400751959 0 0.64278759981090561 -0.7660444514056185 I I #
edge $-1 $822 -41.74077578051088 $532 -28.775556054027753 $700 $823 forward 7 unknown #
point $-1 28.775556054027753 20.780835092093572 7.5058851735571102 #
point $-1 28.775556054027753 15.046776917563353 7.505885173557111 #
edge $-1 $824 1 $824 0 $535 $-1 forward 7 unknown #
vertex $-1 $536 $825 #
ellipse-curve $-1 31.368599999324381 16.057152902704974 2.5311759768532509 0 0.7660444514056185 0.64278759981090561 1 0 0 1 I I #
point $-1 32.368599999324381 17.913806004828452 4.0890928692810808 #
edge $-1 $826 1 $826 0 $539 $-1 forward 7 unknown #
vertex $-1 $540 $827 #
ellipse-curve $-1 35.258165917269316 16.057152902704974 2.5311759768532509 0 0.7660444514056185 0.64278759981090561 1 0 0 1 I I #
point $-1 36.258165917269316 17.913806004828452 4.0890928692810808 #
edge $-1 $828 1 $828 0 $543 $-1 forward 7 unknown #
vertex $-1 $544 $829 #
ellipse-curve $-1 39.147731835214266 16.057152902704974 2.5311759768532509 0 0.7660444514056185 0.64278759981090561 1 0 0 1 I I #
point $-1 40.147731835214266 17.913806004828452 4.0890928692810808 #
plane-surface $-1 0 0 7.5058851735571102 0 0 1 1 0 0 forward_v I I I I #
coedge $-1 $731 $730 $723 $830 forward $548 $-1 #
coedge $-1 $723 $550 $552 $727 reversed $392 $-1 #
coedge $-1 $550 $722 $721 $830 reversed $392 $-1 #
coedge $-1 $558 $553 $550 $725 forward $559 $-1 #
edge $-1 $728 -28.054600440642179 $831 -25.007768217487691 $724 $832 forward 7 unknown #
coedge $-1 $552 $551 $731 $833 reversed $249 $-1 #
edge $-1 $834 -6.7785685355760754e-015 $728 5.7496160296798857 $722 $835 forward 7 unknown #
vertex $-1 $554 $836 #
straight-curve $-1 -4.507322959927496 -17.734002868939086 7.5058851735571102 -1 0 0 I I #
coedge $-1 $721 $555 $558 $735 reversed $548 $-1 #
coedge $-1 $555 $721 $726 $833 forward $548 $-1 #
vertex $-1 $556 $837 #
straight-curve $-1 -2.9664562983367695 -20.780835092093575 23.434207760969414 0 0 1 I I #
straight-curve $-1 -2.9664562983367695 -20.780835092093568 2.6299342003930661 0 -0.52991925155115449 -0.84804810408105047 I I #
edge $-1 $831 -15.062835541373214 $560 -2.9664562983367695 $730 $838 forward 7 unknown #
point $-1 -2.9664562983367695 -20.780835092093572 7.5058851735571102 #
point $-1 -2.9664562983367695 -17.734002868939083 7.5058851735571102 #
edge $-1 $839 1 $839 0 $563 $-1 forward 7 unknown #
vertex $-1 $564 $840 #
ellipse-curve $-1 -12.64355969276593 -18.384110860273189 4.5222062260207583 0 -0.84804810408105047 0.52991925155115449 0.5 0 0 1 I I #
point $-1 -12.14355969276593 -19.257418980516327 5.0679096869750904 #
edge $-1 $841 1 $841 0 $567 $-1 forward 7 unknown #
vertex $-1 $568 $842 #
ellipse-curve $-1 -9.0146459198549991 -18.384110860273189 4.5222062260207583 0 -0.84804810408105047 0.52991925155115449 0.5 0 0 1 I I #
point $-1 -8.5146459198549991 -19.257418980516327 5.0679096869750904 #
edge $-1 $843 1 $843 0 $571 $-1 forward 7 unknown #
vertex $-1 $572 $844 #
ellipse-curve $-1 -5.3857321469440649 -18.384110860273189 4.5222062260207583 0 -0.84804810408105047 0.52991925155115449 0.5 0 0 1 I I #
point $-1 -4.8857321469440649 -19.257418980516327 5.0679096869750904 #
plane-surface $-1 41.74077578051088 0 0 -1 0 0 0 0 1 forward_v I I I I #
coedge $-1 $580 $578 $582 $755 reversed $421 $-1 #
edge $-1 $593 -7.5058851735571102 $757 7.5058851735571102 $592 $845 forward 7 unknown #
vertex $-1 $755 $846 #
straight-curve $-1 -41.74077578051088 -20.780835092093572 0 0 0 -1 I I #
edge $-1 $753 -20.780835092093572 $757 20.780835092093572 $751 $847 forward 7 unknown #
straight-curve $-1 0 -20.780835092093572 -7.5058851735571102 -1 0 0 I I #
vertex $-1 $585 $848 #
straight-curve $-1 0 20.780835092093572 -7.5058851735571102 1 0 0 I I #
point $-1 41.74077578051088 20.780835092093572 -7.5058851735571102 #
point $-1 41.74077578051088 -20.780835092093572 -7.5058851735571102 #
straight-curve $-1 -41.74077578051088 0 7.5058851735571102 0 -1 0 I I #
point $-1 -41.74077578051088 20.780835092093572 7.5058851735571102 #
point $-1 -41.74077578051088 -20.780835092093572 7.5058851735571102 #
straight-curve $-1 41.74077578051088 -20.780835092093572 0 0 0 -1 I I #
straight-curve $-1 41.74077578051088 20.780835092093572 0 0 0 -1 I I #
edge $-1 $767 35.579761605018639 $770 42.413346213570662 $603 $849 forward 7 unknown #
vertex $-1 $617 $850 #
straight-curve $-1 -20.87038789025544 29.008044119160111 7.505885173557111 0 1 0 I I #
edge $-1 $770 7.1938890135069382 $614 20.159108739990067 $613 $851 forward 7 unknown #
vertex $-1 $769 $852 #
straight-curve $-1 -20.87038789025544 -5.9344911297325496 32.510387400751959 0 -0.64278759981090561 0.7660444514056185 I I #
point $-1 -20.87038789025544 15.046776917563353 7.505885173557111 #
point $-1 -33.835607616738571 20.780835092093568 0.67230056500508439 #
straight-curve $-1 0 20.780835092093572 7.5058851735571102 -1 0 0 I I #
vertex $-1 $620 $853 #
point $-1 -30.242563671441943 16.057152902704974 2.5311759768532509 #
vertex $-1 $624 $854 #
point $-1 -26.352997753497004 16.057152902704974 2.5311759768532509 #
vertex $-1 $628 $855 #
point $-1 -22.463431835552065 16.057152902704974 2.5311759768532509 #
coedge $-1 $643 $642 $635 $782 forward $632 $-1 #
edge $-1 $783 35.579761605018639 $786 42.413346213570662 $781 $856 forward 7 unknown #
vertex $-1 $647 $857 #
straight-curve $-1 0 29.008044119160111 7.505885173557111 0 1 0 I I #
edge $-1 $786 -3.2413049316207818 $644 9.7239147948623454 $643 $858 forward 7 unknown #
vertex $-1 $785 $859 #
straight-curve $-1 0 -5.9344911297325496 32.510387400751959 0 -0.64278759981090561 0.7660444514056185 I I #
point $-1 0 15.046776917563353 7.505885173557111 #
point $-1 -12.965219726483127 20.780835092093568 0.67230056500508439 #
straight-curve $-1 0 20.780835092093572 7.5058851735571102 -1 0 0 I I #
vertex $-1 $650 $860 #
point $-1 -9.3721757811865025 16.057152902704974 2.5311759768532509 #
vertex $-1 $654 $861 #
point $-1 -5.4826098632415636 16.057152902704974 2.5311759768532509 #
vertex $-1 $658 $862 #
point $-1 -1.5930439452966212 16.057152902704974 2.5311759768532509 #
coedge $-1 $673 $672 $665 $798 forward $662 $-1 #
edge $-1 $799 35.579761605018639 $802 42.413346213570662 $797 $863 forward 7 unknown #
vertex $-1 $677 $864 #
straight-curve $-1 20.870387890255437 29.008044119160111 7.505885173557111 0 1 0 I I #
edge $-1 $802 -13.6764988767485 $674 -0.71127915026537281 $673 $865 forward 7 unknown #
vertex $-1 $801 $866 #
straight-curve $-1 20.870387890255437 -5.9344911297325496 32.510387400751959 0 -0.64278759981090561 0.7660444514056185 I I #
point $-1 20.870387890255437 15.046776917563353 7.505885173557111 #
point $-1 7.9051681637723092 20.780835092093568 0.67230056500508439 #
straight-curve $-1 0 20.780835092093572 7.5058851735571102 -1 0 0 I I #
vertex $-1 $680 $867 #
point $-1 11.498212109068938 16.057152902704974 2.5311759768532509 #
vertex $-1 $684 $868 #
point $-1 15.387778027013873 16.057152902704974 2.5311759768532509 #
vertex $-1 $688 $869 #
point $-1 19.277343944958822 16.057152902704974 2.5311759768532509 #
edge $-1 $816 -24.111692821876222 $702 -11.146473095393095 $701 $870 forward 7 unknown #
coedge $-1 $815 $695 $820 $871 reversed $692 $-1 #
coedge $-1 $695 $814 $697 $818 reversed $692 $-1 #
vertex $-1 $696 $872 #
straight-curve $-1 41.74077578051088 3.2956235775476275 21.510364750300369 0 0.64278759981090572 -0.76604445140561861 I I #
edge $-1 $698 15.046776917563353 $822 20.780835092093572 $815 $873 forward 7 unknown #
point $-1 41.74077578051088 15.046776917563353 7.505885173557111 #
coedge $-1 $701 $700 $814 $871 forward $522 $-1 #
point $-1 28.775556054027753 20.780835092093568 0.67230056500508439 #
vertex $-1 $818 $874 #
straight-curve $-1 0 20.780835092093572 7.5058851735571102 -1 0 0 I I #
vertex $-1 $708 $875 #
point $-1 32.368599999324381 16.057152902704974 2.5311759768532509 #
vertex $-1 $712 $876 #
point $-1 36.258165917269316 16.057152902704974 2.5311759768532509 #
vertex $-1 $716 $877 #
point $-1 40.147731835214266 16.057152902704974 2.5311759768532509 #
edge $-1 $831 15.928322587412303 $834 20.804273560576355 $721 $878 forward 7 unknown #
vertex $-1 $735 $879 #
straight-curve $-1 -15.062835541373214 -45.788603309581262 7.505885173557111 0 -1 0 I I #
edge $-1 $834 -10.555512581445718 $732 1.5408666615907265 $731 $880 forward 7 unknown #
vertex $-1 $833 $881 #
straight-curve $-1 -15.062835541373214 -20.780835092093568 2.6299342003930661 0 0.52991925155115449 0.84804810408105047 I I #
point $-1 -15.062835541373214 -17.734002868939083 7.5058851735571102 #
point $-1 -2.9664562983367695 -20.780835092093572 2.6299342003930604 #
straight-curve $-1 0 -20.780835092093572 7.5058851735571102 1 0 0 I I #
vertex $-1 $738 $882 #
point $-1 -12.14355969276593 -18.384110860273189 4.5222062260207583 #
vertex $-1 $742 $883 #
point $-1 -8.5146459198549991 -18.384110860273189 4.5222062260207583 #
vertex $-1 $746 $884 #
point $-1 -4.8857321469440649 -18.384110860273189 4.5222062260207583 #
straight-curve $-1 -41.74077578051088 20.780835092093572 0 0 0 -1 I I #
point $-1 -41.74077578051088 -20.780835092093572 -7.5058851735571102 #
straight-curve $-1 -41.74077578051088 0 -7.5058851735571102 0 1 0 I I #
point $-1 -41.74077578051088 20.780835092093572 -7.5058851735571102 #
straight-curve $-1 -20.87038789025544 20.780835092093572 43.08564677857575 0 0 -1 I I #
point $-1 -20.87038789025544 20.780835092093572 7.5058851735571102 #
straight-curve $-1 -13.676498876748502 20.780835092093568 0.67230056500508795 -1 0 0 I I #
point $-1 -20.87038789025544 20.780835092093568 0.67230056500508439 #
point $-1 -31.242563671441943 15.291108451299355 1.8883883770423455 #
point $-1 -27.352997753497004 15.291108451299355 1.8883883770423455 #
point $-1 -23.463431835552065 15.291108451299355 1.8883883770423455 #
straight-curve $-1 0 20.780835092093572 43.08564677857575 0 0 -1 I I #
point $-1 0 20.780835092093572 7.5058851735571102 #
straight-curve $-1 -3.2413049316207818 20.780835092093568 0.67230056500508795 -1 0 0 I I #
point $-1 0 20.780835092093568 0.67230056500508439 #
point $-1 -10.372175781186503 15.291108451299355 1.8883883770423455 #
point $-1 -6.4826098632415636 15.291108451299355 1.8883883770423455 #
point $-1 -2.5930439452966212 15.291108451299355 1.8883883770423455 #
straight-curve $-1 20.870387890255437 20.780835092093572 43.08564677857575 0 0 -1 I I #
point $-1 20.870387890255437 20.780835092093572 7.5058851735571102 #
straight-curve $-1 7.1938890135069364 20.780835092093568 0.67230056500508795 -1 0 0 I I #
point $-1 20.870387890255437 20.780835092093568 0.67230056500508439 #
point $-1 10.498212109068938 15.291108451299355 1.8883883770423455 #
point $-1 14.387778027013873 15.291108451299355 1.8883883770423455 #
point $-1 18.277343944958822 15.291108451299355 1.8883883770423455 #
straight-curve $-1 17.629082958634658 20.780835092093568 0.67230056500508795 -1 0 0 I I #
edge $-1 $822 -7.5058851735571102 $816 -0.67230056500508439 $814 $885 forward 7 unknown #
point $-1 41.74077578051088 20.780835092093568 0.67230056500508439 #
straight-curve $-1 41.74077578051088 0 7.5058851735571102 0 1 0 I I #
point $-1 41.74077578051088 20.780835092093572 7.5058851735571102 #
point $-1 31.368599999324381 15.291108451299355 1.8883883770423455 #
point $-1 35.258165917269316 15.291108451299355 1.8883883770423455 #
point $-1 39.147731835214266 15.291108451299355 1.8883883770423455 #
straight-curve $-1 -15.062835541373214 -20.780835092093575 23.434207760969414 0 0 -1 I I #
point $-1 -15.062835541373214 -20.780835092093572 7.5058851735571102 #
straight-curve $-1 -4.507322959927496 -20.780835092093572 2.6299342003930568 1 0 0 I I #
point $-1 -15.062835541373214 -20.780835092093572 2.6299342003930604 #
point $-1 -12.64355969276593 -17.960086808232667 4.2572466002451819 #
point $-1 -9.0146459198549991 -17.960086808232667 4.2572466002451819 #
point $-1 -5.3857321469440649 -17.960086808232667 4.2572466002451819 #
straight-curve $-1 41.74077578051088 20.780835092093572 0 0 0 -1 I I #
End-of-ACIS-data 