500 0 8 0           
7 Unknown 11 ACIS 5.0 NT 24 Fri Mar 26 19:07:34 1999 
-1 9.9999999999999995e-007 1e-010 
body $-1 $8 $-1 $9 #
body $-1 $10 $-1 $11 #
body $-1 $12 $-1 $13 #
body $-1 $14 $-1 $15 #
body $-1 $16 $-1 $17 #
body $-1 $18 $-1 $19 #
body $-1 $20 $-1 $21 #
body $-1 $22 $-1 $23 #
lump $-1 $-1 $24 $0 #
transform $-1 1 0 0 0 1 0 0 0 1 41.606494338816489 26.017296295159216 7.2243712293202202 1 rotate no_reflect no_shear #
lump $-1 $-1 $25 $1 #
transform $-1 1 0 0 0 1 0 0 0 1 41.606494338816489 26.017296295159216 7.2243712293202202 1 rotate no_reflect no_shear #
lump $-1 $-1 $26 $2 #
transform $-1 1 0 0 0 1 0 0 0 1 41.606494338816489 26.017296295159216 7.2243712293202202 1 rotate no_reflect no_shear #
lump $-1 $-1 $27 $3 #
transform $-1 1 0 0 0 1 0 0 0 1 41.606494338816489 26.017296295159216 7.2243712293202202 1 rotate no_reflect no_shear #
lump $-1 $-1 $28 $4 #
transform $-1 1 0 0 0 1 0 0 0 1 41.606494338816489 26.017296295159216 7.2243712293202202 1 rotate no_reflect no_shear #
lump $-1 $-1 $29 $5 #
transform $-1 1 0 0 0 1 0 0 0 1 41.606494338816489 26.017296295159216 7.2243712293202202 1 rotate no_reflect no_shear #
lump $-1 $-1 $30 $6 #
transform $-1 1 0 0 0 1 0 0 0 1 41.606494338816489 26.017296295159216 7.2243712293202202 1 rotate no_reflect no_shear #
lump $-1 $-1 $31 $7 #
transform $-1 1 0 0 0 1 0 0 0 1 41.606494338816489 26.017296295159216 7.2243712293202202 1 rotate no_reflect no_shear #
shell $-1 $-1 $-1 $32 $-1 $8 #
shell $-1 $-1 $-1 $33 $-1 $10 #
shell $-1 $-1 $-1 $34 $-1 $12 #
shell $-1 $-1 $-1 $35 $-1 $14 #
shell $-1 $-1 $-1 $36 $-1 $16 #
shell $-1 $-1 $-1 $37 $-1 $18 #
shell $-1 $-1 $-1 $38 $-1 $20 #
shell $-1 $-1 $-1 $39 $-1 $22 #
face $-1 $40 $41 $24 $-1 $42 reversed single #
face $-1 $43 $44 $25 $-1 $45 forward single #
face $-1 $46 $47 $26 $-1 $48 reversed single #
face $-1 $49 $50 $27 $-1 $51 forward single #
face $-1 $52 $53 $28 $-1 $54 reversed single #
face $-1 $55 $56 $29 $-1 $57 forward single #
face $-1 $58 $59 $30 $-1 $60 forward single #
face $-1 $61 $62 $31 $-1 $63 forward single #
face $-1 $64 $65 $24 $-1 $66 forward single #
loop $-1 $-1 $67 $32 #
plane-surface $-1 0 -26.017296295159216 0 0 1 0 0 0 1 forward_v I I I I #
face $-1 $68 $69 $25 $-1 $70 reversed single #
loop $-1 $-1 $71 $33 #
plane-surface $-1 0 -26.017296295159216 0 0 1 0 0 0 1 forward_v I I I I #
face $-1 $72 $73 $26 $-1 $74 reversed single #
loop $-1 $-1 $75 $34 #
plane-surface $-1 -93.974125564128542 -2.6676813261040007 67.446896178602643 0 1 0 -0.62932039886446345 0 0.77714595512881146 forward_v I I I I #
face $-1 $76 $77 $27 $-1 $78 forward single #
loop $-1 $79 $80 $35 #
cone-surface $-1 -38.249981648324756 3.8669204093821214 4.2464632623556788 0.62932039886446345 0 -0.77714595512881146 1.1657189326932171 0 0.94398059829669512 1 I I 0 1 1.5 forward I I I I #
face $-1 $81 $82 $28 $-1 $83 reversed single #
loop $-1 $-1 $84 $36 #
plane-surface $-1 64.061077399992499 18.691253397975686 117.10737744728124 0 1 0 0.82903758062907751 0 0.55919289150049634 forward_v I I I I #
face $-1 $85 $86 $29 $-1 $87 forward single #
loop $-1 $88 $89 $37 #
cone-surface $-1 38.89755656748541 20.156461977412395 3.8613062001533791 -0.82903758062907751 0 -0.55919289150049634 0.27959644575024817 0 -0.41451879031453875 1 I I 0 1 0.5 forward I I I I #
face $-1 $90 $91 $30 $-1 $92 forward single #
loop $-1 $93 $94 $38 #
cone-surface $-1 38.89755656748541 22.354274846567453 3.8613062001533791 -0.82903758062907751 0 -0.55919289150049634 0.27959644575024817 0 -0.41451879031453875 1 I I 0 1 0.5 forward I I I I #
face $-1 $95 $96 $31 $-1 $97 forward single #
loop $-1 $98 $99 $39 #
cone-surface $-1 38.89755656748541 24.552087715722511 3.8613062001533791 -0.82903758062907751 0 -0.55919289150049634 0.27959644575024817 0 -0.41451879031453875 1 I I 0 1 0.5 forward I I I I #
face $-1 $100 $101 $24 $-1 $102 reversed single #
loop $-1 $-1 $103 $40 #
plane-surface $-1 0 0 7.2243712293202202 0 0 1 1 0 0 forward_v I I I I #
coedge $-1 $104 $105 $106 $107 reversed $41 $-1 #
face $-1 $108 $109 $25 $-1 $110 reversed single #
loop $-1 $-1 $111 $43 #
plane-surface $-1 0 0 -7.2243712293202202 0 0 1 1 0 0 forward_v I I I I #
coedge $-1 $112 $113 $114 $115 forward $44 $-1 #
face $-1 $116 $117 $26 $-1 $118 reversed single #
loop $-1 $-1 $119 $46 #
plane-surface $-1 -41.606494338816475 3.8669204093821214 2.7782586136005847 -0.62932039886446345 0 0.77714595512881146 0.77714595512881146 0 0.62932039886446345 forward_v I I I I #
coedge $-1 $120 $121 $122 $123 reversed $47 $-1 #
face $-1 $-1 $124 $27 $-1 $125 forward single #
loop $-1 $126 $127 $49 #
cone-surface $-1 -37.166724515634755 3.8669204093821214 2.908752136904341 0.62932039886446345 0 -0.77714595512881146 0.58285946634660857 0 0.47199029914834756 1 I I -0.70710678118654757 0.70710678118654757 0.75 forward I I I I #
loop $-1 $-1 $128 $35 #
coedge $-1 $80 $80 $129 $130 reversed $50 $-1 #
face $-1 $131 $132 $28 $-1 $133 reversed single #
loop $-1 $-1 $134 $52 #
plane-surface $-1 -4.9256174102271615 22.354274846567446 70.575265698237587 0.82903758062907751 0 0.55919289150049634 0.55919289150049634 0 -0.82903758062907751 forward_v I I I I #
coedge $-1 $135 $136 $137 $138 reversed $53 $-1 #
face $-1 $-1 $139 $29 $-1 $140 forward single #
loop $-1 $141 $142 $55 #
cone-surface $-1 37.882057006515097 20.156461977412395 3.1763431187625732 -0.82903758062907751 0 -0.55919289150049634 0.13979822287512408 0 -0.20725939515726938 1 I I -0.70710678118654746 0.70710678118654746 0.25 forward I I I I #
loop $-1 $-1 $143 $37 #
coedge $-1 $89 $89 $144 $145 reversed $56 $-1 #
face $-1 $-1 $146 $30 $-1 $147 forward single #
loop $-1 $148 $149 $58 #
cone-surface $-1 37.882057006515097 22.354274846567453 3.1763431187625732 -0.82903758062907751 0 -0.55919289150049634 0.13979822287512408 0 -0.20725939515726938 1 I I -0.70710678118654746 0.70710678118654746 0.25 forward I I I I #
loop $-1 $-1 $150 $38 #
coedge $-1 $94 $94 $151 $152 reversed $59 $-1 #
face $-1 $-1 $153 $31 $-1 $154 forward single #
loop $-1 $155 $156 $61 #
cone-surface $-1 37.882057006515097 24.552087715722511 3.1763431187625732 -0.82903758062907751 0 -0.55919289150049634 0.13979822287512408 0 -0.20725939515726938 1 I I -0.70710678118654746 0.70710678118654746 0.25 forward I I I I #
loop $-1 $-1 $157 $39 #
coedge $-1 $99 $99 $158 $159 reversed $62 $-1 #
face $-1 $160 $161 $24 $-1 $162 reversed single #
loop $-1 $-1 $163 $64 #
plane-surface $-1 0 0 -7.2243712293202202 0 0 1 1 0 0 forward_v I I I I #
coedge $-1 $164 $165 $166 $167 forward $65 $-1 #
coedge $-1 $168 $67 $169 $170 reversed $41 $-1 #
coedge $-1 $67 $168 $171 $172 forward $41 $-1 #
coedge $-1 $173 $163 $67 $107 forward $101 $-1 #
edge $-1 $174 -41.606494338816489 $175 41.606494338816489 $67 $176 forward 7 unknown #
face $-1 $177 $178 $25 $-1 $179 reversed single #
loop $-1 $-1 $180 $68 #
plane-surface $-1 -29.346765831054643 -31.964924661166588 0 0 1 0 0 0 1 forward_v I I I I #
coedge $-1 $181 $182 $113 $183 forward $69 $-1 #
coedge $-1 $184 $71 $185 $186 reversed $44 $-1 #
coedge $-1 $71 $184 $111 $183 reversed $44 $-1 #
coedge $-1 $187 $188 $71 $115 reversed $178 $-1 #
edge $-1 $189 -7.2243712293202202 $190 7.2243712293202202 $114 $191 forward 7 unknown #
face $-1 $192 $193 $26 $-1 $194 reversed single #
loop $-1 $-1 $195 $72 #
plane-surface $-1 -93.974125564128542 10.401522144868244 67.446896178602643 0 -1 0 0.62932039886446345 0 -0.77714595512881146 forward_v I I I I #
coedge $-1 $196 $197 $198 $199 reversed $73 $-1 #
coedge $-1 $121 $75 $200 $201 reversed $47 $-1 #
coedge $-1 $75 $120 $196 $202 reversed $47 $-1 #
coedge $-1 $198 $203 $75 $123 forward $204 $-1 #
edge $-1 $205 5.3805684432477818 $206 10.87106015714798 $122 $207 forward 7 unknown #
loop $-1 $-1 $129 $76 #
plane-surface $-1 -41.606494338816475 3.8669204093821214 2.7782586136005847 -0.62932039886446345 0 0.77714595512881146 0.77714595512881146 0 0.62932039886446345 forward_v I I I I #
loop $-1 $-1 $208 $49 #
coedge $-1 $127 $127 $128 $209 reversed $77 $-1 #
coedge $-1 $128 $128 $127 $209 forward $79 $-1 #
coedge $-1 $129 $129 $80 $130 forward $124 $-1 #
edge $-1 $210 0 $210 6.2831853071796004 $129 $211 forward 7 unknown #
face $-1 $212 $213 $28 $-1 $214 forward single #
loop $-1 $-1 $215 $81 #
plane-surface $-1 0 26.017296295159216 0 0 -1 0 0 0 -1 forward_v I I I I #
coedge $-1 $216 $217 $218 $219 reversed $82 $-1 #
coedge $-1 $136 $84 $220 $221 reversed $53 $-1 #
coedge $-1 $84 $135 $216 $222 reversed $53 $-1 #
coedge $-1 $218 $223 $84 $138 forward $224 $-1 #
edge $-1 $225 51.329317494320399 $226 56.965117835622692 $137 $227 forward 7 unknown #
loop $-1 $-1 $144 $85 #
plane-surface $-1 -4.9256174102271615 22.354274846567446 70.575265698237587 0.82903758062907751 0 0.55919289150049634 0.55919289150049634 0 -0.82903758062907751 forward_v I I I I #
loop $-1 $-1 $228 $55 #
coedge $-1 $142 $142 $143 $229 reversed $86 $-1 #
coedge $-1 $143 $143 $142 $229 forward $88 $-1 #
coedge $-1 $144 $144 $89 $145 forward $139 $-1 #
edge $-1 $230 0 $230 6.2831853071796004 $144 $231 forward 7 unknown #
loop $-1 $-1 $151 $90 #
plane-surface $-1 -4.9256174102271615 22.354274846567446 70.575265698237587 0.82903758062907751 0 0.55919289150049634 0.55919289150049634 0 -0.82903758062907751 forward_v I I I I #
loop $-1 $-1 $232 $58 #
coedge $-1 $149 $149 $150 $233 reversed $91 $-1 #
coedge $-1 $150 $150 $149 $233 forward $93 $-1 #
coedge $-1 $151 $151 $94 $152 forward $146 $-1 #
edge $-1 $234 0 $234 6.2831853071796004 $151 $235 forward 7 unknown #
loop $-1 $-1 $158 $95 #
plane-surface $-1 -4.9256174102271615 22.354274846567446 70.575265698237587 0.82903758062907751 0 0.55919289150049634 0.55919289150049634 0 -0.82903758062907751 forward_v I I I I #
loop $-1 $-1 $236 $61 #
coedge $-1 $156 $156 $157 $237 reversed $96 $-1 #
coedge $-1 $157 $157 $156 $237 forward $98 $-1 #
coedge $-1 $158 $158 $99 $159 forward $153 $-1 #
edge $-1 $238 0 $238 6.2831853071796004 $158 $239 forward 7 unknown #
face $-1 $240 $241 $24 $-1 $242 reversed single #
loop $-1 $-1 $243 $100 #
plane-surface $-1 -41.606494338816489 0 0 1 0 0 0 0 -1 forward_v I I I I #
coedge $-1 $106 $244 $245 $246 forward $101 $-1 #
coedge $-1 $247 $103 $248 $249 forward $65 $-1 #
coedge $-1 $103 $247 $168 $250 forward $65 $-1 #
coedge $-1 $169 $251 $103 $167 reversed $252 $-1 #
edge $-1 $253 -26.017296295159216 $254 26.017296295159216 $166 $255 forward 7 unknown #
coedge $-1 $105 $104 $165 $250 reversed $41 $-1 #
coedge $-1 $245 $166 $104 $170 forward $252 $-1 #
edge $-1 $253 -7.2243712293202202 $174 7.2243712293202202 $169 $256 forward 7 unknown #
coedge $-1 $257 $258 $105 $172 reversed $161 $-1 #
edge $-1 $259 -7.2243712293202202 $175 7.2243712293202202 $171 $260 forward 7 unknown #
coedge $-1 $244 $106 $258 $261 forward $101 $-1 #
vertex $-1 $170 $262 #
vertex $-1 $261 $263 #
straight-curve $-1 0 -26.017296295159216 -7.2243712293202202 -1 0 0 I I #
face $-1 $264 $265 $25 $-1 $266 reversed single #
loop $-1 $-1 $114 $108 #
plane-surface $-1 -30.846765831054643 -28.991110478162902 0 1 0 0 0 0 -1 forward_v I I I I #
coedge $-1 $267 $268 $269 $270 forward $109 $-1 #
coedge $-1 $271 $111 $272 $273 forward $69 $-1 #
coedge $-1 $111 $271 $187 $274 forward $69 $-1 #
edge $-1 $189 -30.846765831054643 $275 -27.846765831054643 $111 $276 forward 7 unknown #
coedge $-1 $113 $112 $277 $278 forward $44 $-1 #
coedge $-1 $279 $280 $112 $186 forward $281 $-1 #
edge $-1 $282 27.846765831054643 $190 30.846765831054643 $185 $283 forward 7 unknown #
coedge $-1 $269 $114 $182 $274 reversed $178 $-1 #
coedge $-1 $114 $269 $279 $284 reversed $178 $-1 #
vertex $-1 $183 $285 #
vertex $-1 $284 $286 #
straight-curve $-1 -30.846765831054643 -26.017296295159216 0 0 0 1 I I #
face $-1 $-1 $204 $26 $-1 $287 forward single #
loop $-1 $-1 $288 $116 #
plane-surface $-1 -41.606494338816489 0 0 1 0 0 0 0 -1 forward_v I I I I #
coedge $-1 $289 $290 $291 $292 reversed $117 $-1 #
coedge $-1 $293 $119 $121 $202 forward $73 $-1 #
coedge $-1 $119 $293 $289 $294 forward $73 $-1 #
coedge $-1 $291 $122 $119 $199 forward $204 $-1 #
edge $-1 $206 -4.6011415307950614 $295 8.4680619401771828 $198 $296 forward 7 unknown #
coedge $-1 $297 $298 $120 $201 forward $193 $-1 #
edge $-1 $299 -30.945189475700747 $205 -26.499076859981102 $200 $300 forward 7 unknown #
edge $-1 $206 -7.0649427918467875 $299 1.8310242626372826e-014 $121 $301 forward 7 unknown #
coedge $-1 $122 $291 $297 $302 forward $204 $-1 #
loop $-1 $-1 $291 $192 #
vertex $-1 $201 $303 #
vertex $-1 $123 $304 #
straight-curve $-1 -46.987062782064271 -2.6676813261040007 7.2243712293202194 1 0 0 I I #
coedge $-1 $208 $208 $-1 $305 reversed $126 $-1 #
edge $-1 $306 0 $306 6.2831853071796004 $127 $307 forward 7 unknown #
vertex $-1 $130 $308 #
ellipse-curve $-1 -38.861248481866397 3.8669204093821214 5.001314921460394 -0.62932039886446345 0 0.77714595512881146 1.1657189326932171 0 0.94398059829669512 1 I I #
face $-1 $-1 $224 $28 $-1 $309 reversed single #
loop $-1 $-1 $310 $131 #
plane-surface $-1 0 0 7.2243712293202202 0 0 1 1 0 0 forward_v I I I I #
coedge $-1 $311 $312 $217 $313 forward $132 $-1 #
coedge $-1 $314 $134 $136 $222 forward $82 $-1 #
coedge $-1 $134 $314 $215 $313 reversed $82 $-1 #
coedge $-1 $315 $137 $134 $219 forward $224 $-1 #
edge $-1 $226 7.514115974691963 $316 14.840158871875493 $218 $317 forward 7 unknown #
coedge $-1 $318 $310 $135 $221 forward $213 $-1 #
edge $-1 $319 5.7745604277841522 $225 9.5759556388202398 $220 $320 forward 7 unknown #
edge $-1 $226 -83.212988677632978 $319 -76.414985217975783 $136 $321 forward 7 unknown #
coedge $-1 $137 $315 $318 $322 reversed $224 $-1 #
loop $-1 $-1 $218 $212 #
vertex $-1 $322 $323 #
vertex $-1 $138 $324 #
straight-curve $-1 41.606494338816489 18.691253397975686 58.553688723640619 0 0 -1 I I #
coedge $-1 $228 $228 $-1 $325 reversed $141 $-1 #
edge $-1 $326 0 $326 6.2831853071796004 $142 $327 forward 7 unknown #
vertex $-1 $145 $328 #
ellipse-curve $-1 39.705796733298449 20.156461977412395 4.4064710586690614 0.82903758062907751 0 0.55919289150049634 0.27959644575024817 0 -0.41451879031453875 1 I I #
coedge $-1 $232 $232 $-1 $329 reversed $148 $-1 #
edge $-1 $330 0 $330 6.2831853071796004 $149 $331 forward 7 unknown #
vertex $-1 $152 $332 #
ellipse-curve $-1 39.705796733298449 22.354274846567453 4.4064710586690614 0.82903758062907751 0 0.55919289150049634 0.27959644575024817 0 -0.41451879031453875 1 I I #
coedge $-1 $236 $236 $-1 $333 reversed $155 $-1 #
edge $-1 $334 0 $334 6.2831853071796004 $156 $335 forward 7 unknown #
vertex $-1 $159 $336 #
ellipse-curve $-1 39.705796733298449 24.552087715722511 4.4064710586690614 0.82903758062907751 0 0.55919289150049634 0.27959644575024817 0 -0.41451879031453875 1 I I #
face $-1 $-1 $252 $24 $-1 $337 reversed single #
loop $-1 $-1 $338 $160 #
plane-surface $-1 0 26.017296295159216 0 0 -1 0 0 0 -1 forward_v I I I I #
coedge $-1 $258 $257 $339 $340 forward $161 $-1 #
coedge $-1 $163 $173 $341 $342 forward $101 $-1 #
coedge $-1 $251 $169 $163 $246 reversed $252 $-1 #
edge $-1 $343 -26.017296295159216 $174 26.017296295159216 $245 $344 forward 7 unknown #
coedge $-1 $165 $164 $257 $345 forward $65 $-1 #
coedge $-1 $338 $339 $164 $249 reversed $241 $-1 #
edge $-1 $254 -41.606494338816489 $346 41.606494338816489 $248 $347 forward 7 unknown #
edge $-1 $259 -41.606494338816489 $253 41.606494338816489 $168 $348 forward 7 unknown #
coedge $-1 $166 $245 $338 $349 reversed $252 $-1 #
loop $-1 $-1 $169 $240 #
vertex $-1 $167 $350 #
vertex $-1 $167 $351 #
straight-curve $-1 41.606494338816489 0 7.2243712293202202 0 1 0 I I #
straight-curve $-1 41.606494338816489 -26.017296295159216 0 0 0 -1 I I #
coedge $-1 $243 $171 $247 $345 reversed $161 $-1 #
coedge $-1 $171 $243 $173 $261 reversed $161 $-1 #
vertex $-1 $345 $352 #
straight-curve $-1 -41.606494338816489 -26.017296295159216 0 0 0 -1 I I #
edge $-1 $175 -26.017296295159216 $353 26.017296295159216 $258 $354 forward 7 unknown #
point $-1 41.606494338816489 -26.017296295159216 -7.2243712293202202 #
point $-1 -41.606494338816489 -26.017296295159216 -7.2243712293202202 #
face $-1 $-1 $281 $25 $-1 $355 forward single #
loop $-1 $-1 $356 $177 #
plane-surface $-1 -27.846765831054643 -28.991110478162902 0 -1 0 0 0 0 1 forward_v I I I I #
coedge $-1 $357 $180 $271 $358 reversed $109 $-1 #
coedge $-1 $180 $357 $359 $360 reversed $109 $-1 #
coedge $-1 $188 $187 $180 $270 reversed $178 $-1 #
edge $-1 $361 -7.2243712293202202 $362 7.2243712293202202 $269 $363 forward 7 unknown #
coedge $-1 $182 $181 $267 $358 forward $69 $-1 #
coedge $-1 $277 $356 $181 $273 reversed $265 $-1 #
edge $-1 $275 -2.9738141830036859 $364 2.9738141830036859 $272 $365 forward 7 unknown #
edge $-1 $362 -2.9738141830036859 $189 2.9738141830036859 $187 $366 forward 7 unknown #
vertex $-1 $273 $367 #
straight-curve $-1 0 -26.017296295159216 -7.2243712293202202 1 0 0 I I #
coedge $-1 $368 $272 $184 $278 reversed $265 $-1 #
edge $-1 $282 -7.2243712293202202 $275 7.2243712293202202 $277 $369 forward 7 unknown #
coedge $-1 $359 $185 $188 $284 forward $281 $-1 #
coedge $-1 $185 $359 $368 $370 forward $281 $-1 #
loop $-1 $-1 $185 $264 #
vertex $-1 $186 $371 #
straight-curve $-1 0 -26.017296295159216 7.2243712293202202 -1 0 0 I I #
edge $-1 $190 -2.9738141830036859 $361 2.9738141830036859 $188 $372 forward 7 unknown #
point $-1 -30.846765831054643 -26.017296295159216 -7.2243712293202202 #
point $-1 -30.846765831054643 -26.017296295159216 7.2243712293202202 #
plane-surface $-1 0 0 7.2243712293202202 0 0 1 1 0 0 forward_v I I I I #
coedge $-1 $298 $297 $290 $373 forward $193 $-1 #
coedge $-1 $290 $195 $197 $294 reversed $117 $-1 #
coedge $-1 $195 $289 $288 $373 reversed $117 $-1 #
coedge $-1 $203 $198 $195 $292 forward $204 $-1 #
edge $-1 $295 -10.87106015714798 $374 -5.3805684432477818 $291 $375 forward 7 unknown #
coedge $-1 $197 $196 $298 $376 reversed $73 $-1 #
edge $-1 $377 -1.8310242626372826e-014 $295 7.0649427918467875 $289 $378 forward 7 unknown #
vertex $-1 $199 $379 #
straight-curve $-1 -36.116002624916291 1.9334602046910607 7.2243712293202194 0 1 0 I I #
coedge $-1 $288 $200 $203 $302 reversed $193 $-1 #
coedge $-1 $200 $288 $293 $376 forward $193 $-1 #
vertex $-1 $201 $380 #
straight-curve $-1 -41.606494338816489 -2.6676813261040007 33.723448089301321 0 0 1 I I #
straight-curve $-1 -41.606494338816475 -2.6676813261040007 2.7782586136005847 -0.77714595512881146 0 -0.62932039886446345 I I #
edge $-1 $374 -10.401522144868244 $205 2.6676813261040007 $297 $381 forward 7 unknown #
point $-1 -41.606494338816489 -2.6676813261040007 7.2243712293202202 #
point $-1 -36.116002624916291 -2.6676813261040007 7.2243712293202202 #
edge $-1 $382 1 $382 0 $208 $-1 forward 7 unknown #
vertex $-1 $209 $383 #
ellipse-curve $-1 -37.6387148147831 3.8669204093821214 3.4916116032509494 -0.62932039886446345 0 0.77714595512881146 1.1657189326932171 0 0.94398059829669512 1 I I #
point $-1 -37.695529549173187 3.8669204093821214 5.9452955197571029 #
plane-surface $-1 41.606494338816489 0 0 -1 0 0 0 0 1 forward_v I I I I #
coedge $-1 $220 $384 $314 $385 forward $213 $-1 #
coedge $-1 $312 $215 $384 $386 reversed $132 $-1 #
coedge $-1 $215 $311 $315 $387 forward $132 $-1 #
edge $-1 $316 -52.581029793247311 $388 -45.783026333590129 $215 $389 forward 7 unknown #
coedge $-1 $217 $216 $310 $385 reversed $82 $-1 #
coedge $-1 $223 $218 $312 $387 reversed $224 $-1 #
vertex $-1 $219 $390 #
straight-curve $-1 41.606494338816489 11.177137423283723 1.5885708880179266 0 1 0 I I #
coedge $-1 $384 $220 $223 $322 forward $213 $-1 #
vertex $-1 $221 $391 #
straight-curve $-1 32.030538699996249 18.691253397975686 7.2243712293202194 1 0 0 I I #
straight-curve $-1 -4.9256174102271615 18.691253397975686 70.575265698237587 -0.55919289150049634 0 0.82903758062907751 I I #
edge $-1 $225 18.691253397975686 $392 26.017296295159216 $223 $393 forward 7 unknown #
point $-1 41.606494338816489 18.691253397975686 7.2243712293202202 #
point $-1 41.606494338816489 18.691253397975686 1.5885708880179266 #
edge $-1 $394 1 $394 0 $228 $-1 forward 7 unknown #
vertex $-1 $229 $395 #
ellipse-curve $-1 38.08931640167237 20.156461977412395 3.3161413416376972 0.82903758062907751 0 0.55919289150049634 0.27959644575024817 0 -0.41451879031453875 1 I I #
point $-1 39.985393179048693 20.156461977412395 3.9919522683545225 #
edge $-1 $396 1 $396 0 $232 $-1 forward 7 unknown #
vertex $-1 $233 $397 #
ellipse-curve $-1 38.08931640167237 22.354274846567453 3.3161413416376972 0.82903758062907751 0 0.55919289150049634 0.27959644575024817 0 -0.41451879031453875 1 I I #
point $-1 39.985393179048693 22.354274846567453 3.9919522683545225 #
edge $-1 $398 1 $398 0 $236 $-1 forward 7 unknown #
vertex $-1 $237 $399 #
ellipse-curve $-1 38.08931640167237 24.552087715722511 3.3161413416376972 0.82903758062907751 0 0.55919289150049634 0.27959644575024817 0 -0.41451879031453875 1 I I #
point $-1 39.985393179048693 24.552087715722511 3.9919522683545225 #
plane-surface $-1 41.606494338816489 0 0 -1 0 0 0 0 1 forward_v I I I I #
coedge $-1 $341 $248 $251 $349 forward $241 $-1 #
coedge $-1 $248 $341 $243 $340 reversed $241 $-1 #
edge $-1 $346 -7.2243712293202202 $353 7.2243712293202202 $339 $400 forward 7 unknown #
coedge $-1 $339 $338 $244 $342 reversed $241 $-1 #
edge $-1 $353 -41.606494338816489 $343 41.606494338816489 $341 $401 forward 7 unknown #
vertex $-1 $246 $402 #
straight-curve $-1 41.606494338816489 0 -7.2243712293202202 0 -1 0 I I #
edge $-1 $346 -26.017296295159216 $259 26.017296295159216 $257 $403 forward 7 unknown #
vertex $-1 $249 $404 #
straight-curve $-1 0 26.017296295159216 7.2243712293202202 -1 0 0 I I #
straight-curve $-1 0 -26.017296295159216 7.2243712293202202 1 0 0 I I #
edge $-1 $254 -7.2243712293202202 $343 7.2243712293202202 $251 $405 forward 7 unknown #
point $-1 41.606494338816489 -26.017296295159216 7.2243712293202202 #
point $-1 41.606494338816489 26.017296295159216 7.2243712293202202 #
point $-1 -41.606494338816489 -26.017296295159216 7.2243712293202202 #
vertex $-1 $342 $406 #
straight-curve $-1 -41.606494338816489 0 -7.2243712293202202 0 1 0 I I #
plane-surface $-1 0 0 7.2243712293202202 0 0 1 1 0 0 forward_v I I I I #
coedge $-1 $272 $368 $357 $407 forward $265 $-1 #
coedge $-1 $268 $267 $356 $407 reversed $109 $-1 #
edge $-1 $364 -1.5 $362 1.5 $267 $408 forward 7 unknown #
coedge $-1 $280 $279 $268 $360 forward $281 $-1 #
edge $-1 $361 -1.5 $409 1.5 $268 $410 forward 7 unknown #
vertex $-1 $284 $411 #
vertex $-1 $274 $412 #
straight-curve $-1 -30.846765831054643 -31.964924661166588 0 0 0 -1 I I #
vertex $-1 $407 $413 #
straight-curve $-1 -27.846765831054643 -28.991110478162902 -7.2243712293202202 0 -1 0 I I #
straight-curve $-1 -30.846765831054643 -28.991110478162902 -7.2243712293202202 0 1 0 I I #
point $-1 -27.846765831054643 -26.017296295159216 -7.2243712293202202 #
coedge $-1 $356 $277 $280 $370 reversed $265 $-1 #
straight-curve $-1 -27.846765831054643 -26.017296295159216 0 0 0 -1 I I #
edge $-1 $409 -2.9738141830036859 $282 2.9738141830036859 $368 $414 forward 7 unknown #
point $-1 -27.846765831054643 -26.017296295159216 7.2243712293202202 #
straight-curve $-1 -30.846765831054643 -28.991110478162902 7.2243712293202202 0 -1 0 I I #
edge $-1 $374 26.499076859981102 $377 30.945189475700747 $288 $415 forward 7 unknown #
vertex $-1 $302 $416 #
straight-curve $-1 -46.987062782064271 10.401522144868244 7.2243712293202194 -1 0 0 I I #
edge $-1 $377 -8.4680619401771828 $299 4.6011415307950614 $298 $417 forward 7 unknown #
vertex $-1 $376 $418 #
straight-curve $-1 -41.606494338816475 10.401522144868244 2.7782586136005847 0.77714595512881146 0 0.62932039886446345 I I #
point $-1 -36.116002624916291 10.401522144868244 7.2243712293202202 #
point $-1 -41.606494338816489 -2.6676813261040007 2.7782586136005731 #
straight-curve $-1 -41.606494338816489 0 7.2243712293202202 0 -1 0 I I #
vertex $-1 $305 $419 #
point $-1 -36.472995882089883 3.8669204093821214 4.4355922015476441 #
coedge $-1 $310 $318 $311 $386 forward $213 $-1 #
edge $-1 $388 -14.840158871875483 $319 -7.514115974691963 $310 $420 forward 7 unknown #
edge $-1 $392 -41.606494338816489 $388 -37.805099127780402 $311 $421 forward 7 unknown #
edge $-1 $392 -7.2243712293202202 $316 -1.5885708880179306 $315 $422 forward 7 unknown #
vertex $-1 $385 $423 #
straight-curve $-1 12.203556250656776 26.017296295159216 45.180220614797122 -0.55919289150049634 0 0.82903758062907751 I I #
point $-1 41.606494338816489 26.017296295159216 1.5885708880179306 #
point $-1 37.805099127780402 18.691253397975686 7.2243712293202194 #
vertex $-1 $322 $424 #
straight-curve $-1 41.606494338816489 0 7.2243712293202202 0 1 0 I I #
vertex $-1 $325 $425 #
point $-1 38.368912847422614 20.156461977412395 2.9016225513231584 #
vertex $-1 $329 $426 #
point $-1 38.368912847422614 22.354274846567453 2.9016225513231584 #
vertex $-1 $333 $427 #
point $-1 38.368912847422614 24.552087715722511 2.9016225513231584 #
straight-curve $-1 -41.606494338816489 26.017296295159216 0 0 0 -1 I I #
straight-curve $-1 0 26.017296295159216 -7.2243712293202202 1 0 0 I I #
point $-1 41.606494338816489 26.017296295159216 -7.2243712293202202 #
straight-curve $-1 -41.606494338816489 0 7.2243712293202202 0 -1 0 I I #
point $-1 -41.606494338816489 26.017296295159216 7.2243712293202202 #
straight-curve $-1 41.606494338816489 26.017296295159216 0 0 0 -1 I I #
point $-1 -41.606494338816489 26.017296295159216 -7.2243712293202202 #
edge $-1 $409 -7.2243712293202202 $364 7.2243712293202202 $356 $428 forward 7 unknown #
straight-curve $-1 -29.346765831054643 -31.964924661166588 -7.2243712293202202 -1 0 0 I I #
vertex $-1 $370 $429 #
straight-curve $-1 -29.346765831054643 -31.964924661166588 7.2243712293202202 1 0 0 I I #
point $-1 -30.846765831054643 -31.964924661166588 7.2243712293202202 #
point $-1 -30.846765831054643 -31.964924661166588 -7.2243712293202202 #
point $-1 -27.846765831054643 -31.964924661166588 -7.2243712293202202 #
straight-curve $-1 -27.846765831054643 -28.991110478162902 7.2243712293202202 0 1 0 I I #
straight-curve $-1 -41.606494338816489 10.401522144868244 33.723448089301321 0 0 -1 I I #
point $-1 -41.606494338816489 10.401522144868244 7.2243712293202202 #
straight-curve $-1 -41.606494338816489 1.9334602046910607 2.7782586136005727 0 -1 0 I I #
point $-1 -41.606494338816489 10.401522144868244 2.7782586136005731 #
point $-1 -36.69473421648641 3.8669204093821214 2.3258926705577325 #
straight-curve $-1 37.805099127780409 11.177137423283723 7.2243712293202265 0 -1 0 I I #
straight-curve $-1 0 26.017296295159216 7.2243712293202202 -1 0 0 I I #
straight-curve $-1 41.606494338816489 26.017296295159216 0 0 0 -1 I I #
point $-1 37.805099127780402 26.017296295159205 7.2243712293202194 #
point $-1 41.606494338816489 26.017296295159216 7.2243712293202202 #
point $-1 37.674797611357825 20.156461977412395 3.0365448958874492 #
point $-1 37.674797611357825 22.354274846567453 3.0365448958874492 #
point $-1 37.674797611357825 24.552087715722511 3.0365448958874492 #
straight-curve $-1 -27.846765831054643 -31.964924661166588 0 0 0 -1 I I #
point $-1 -27.846765831054643 -31.964924661166588 7.2243712293202202 #
End-of-ACIS-data 