500 0 7 0           
7 Unknown 11 ACIS 5.0 NT 24 Thu Mar 25 18:26:12 1999 
-1 9.9999999999999995e-007 1e-010 
body $-1 $7 $-1 $8 #
body $-1 $9 $-1 $10 #
body $-1 $11 $-1 $12 #
body $-1 $13 $-1 $14 #
body $-1 $15 $-1 $16 #
body $-1 $17 $-1 $18 #
body $-1 $19 $-1 $20 #
lump $-1 $-1 $21 $0 #
transform $-1 1 0 0 0 1 0 0 0 1 40.332041383098847 18.732052729535503 5.0496565131156368 1 rotate no_reflect no_shear #
lump $-1 $-1 $22 $1 #
transform $-1 1 0 0 0 1 0 0 0 1 40.332041383098847 18.732052729535503 5.0496565131156368 1 rotate no_reflect no_shear #
lump $-1 $-1 $23 $2 #
transform $-1 1 0 0 0 1 0 0 0 1 40.332041383098847 18.732052729535503 5.0496565131156368 1 rotate no_reflect no_shear #
lump $-1 $-1 $24 $3 #
transform $-1 1 0 0 0 1 0 0 0 1 40.332041383098847 18.732052729535503 5.0496565131156368 1 rotate no_reflect no_shear #
lump $-1 $-1 $25 $4 #
transform $-1 1 0 0 0 1 0 0 0 1 40.332041383098847 18.732052729535503 5.0496565131156368 1 rotate no_reflect no_shear #
lump $-1 $-1 $26 $5 #
transform $-1 1 0 0 0 1 0 0 0 1 40.332041383098847 18.732052729535503 5.0496565131156368 1 rotate no_reflect no_shear #
lump $-1 $-1 $27 $6 #
transform $-1 1 0 0 0 1 0 0 0 1 40.332041383098847 18.732052729535503 5.0496565131156368 1 rotate no_reflect no_shear #
shell $-1 $-1 $-1 $28 $-1 $7 #
shell $-1 $-1 $-1 $29 $-1 $9 #
shell $-1 $-1 $-1 $30 $-1 $11 #
shell $-1 $-1 $-1 $31 $-1 $13 #
shell $-1 $-1 $-1 $32 $-1 $15 #
shell $-1 $-1 $-1 $33 $-1 $17 #
shell $-1 $-1 $-1 $34 $-1 $19 #
face $-1 $35 $36 $21 $-1 $37 forward single #
face $-1 $38 $39 $22 $-1 $40 forward single #
face $-1 $41 $42 $23 $-1 $43 reversed single #
face $-1 $44 $45 $24 $-1 $46 forward single #
face $-1 $47 $48 $25 $-1 $49 forward single #
face $-1 $50 $51 $26 $-1 $52 reversed single #
face $-1 $53 $54 $27 $-1 $55 forward single #
face $-1 $56 $57 $21 $-1 $58 reversed single #
loop $-1 $-1 $59 $28 #
plane-surface $-1 0 0 5.0496565131156368 0 0 1 1 0 0 forward_v I I I I #
face $-1 $60 $61 $22 $-1 $62 reversed single #
loop $-1 $-1 $63 $29 #
plane-surface $-1 0 -16.180218588784491 2.242387038312371 0 0 1 1 0 0 forward_v I I I I #
face $-1 $64 $65 $23 $-1 $66 reversed single #
loop $-1 $-1 $67 $30 #
plane-surface $-1 48.289599050345139 9.6118222489306326 115.65103456816412 0 1 0 0.75470958851134928 0 0.65605901945558964 forward_v I I I I #
face $-1 $68 $69 $24 $-1 $70 forward single #
loop $-1 $71 $72 $31 #
cone-surface $-1 38.469792211195696 12.217602386246313 3.0402523122140384 -0.75470958851134928 0 -0.65605901945558964 0.32802950972779482 0 -0.37735479425567464 1 I I 0 1 0.5 forward I I I I #
face $-1 $73 $74 $25 $-1 $75 forward single #
loop $-1 $76 $77 $32 #
cone-surface $-1 38.469792211195696 16.126272592219827 3.0402523122140384 -0.75470958851134928 0 -0.65605901945558964 0.32802950972779482 0 -0.37735479425567464 1 I I 0 1 0.5 forward I I I I #
face $-1 $78 $79 $26 $-1 $80 reversed single #
loop $-1 $-1 $81 $33 #
plane-surface $-1 -40.33204138309884 -9.5419281616180207 0.067243896346909082 -0.57357644374324357 0 0.81915203911291934 0.81915203911291934 0 0.57357644374324357 forward_v I I I I #
face $-1 $82 $83 $27 $-1 $84 forward single #
loop $-1 $85 $86 $34 #
cone-surface $-1 -35.032792738608464 -9.5419281616180207 0.071419916358532731 0.57357644374324357 0 -0.81915203911291934 1.6383040782258387 0 1.1471528874864871 1 I I 0 1 2 forward I I I I #
face $-1 $87 $88 $21 $-1 $89 reversed single #
loop $-1 $-1 $90 $35 #
plane-surface $-1 0 0 -5.0496565131156368 0 0 1 1 0 0 forward_v I I I I #
coedge $-1 $91 $92 $93 $94 forward $36 $-1 #
face $-1 $95 $96 $22 $-1 $97 reversed single #
loop $-1 $-1 $98 $38 #
plane-surface $-1 0 -16.180218588784491 -0.75761296168762904 0 0 1 1 0 0 forward_v I I I I #
coedge $-1 $99 $100 $101 $102 reversed $39 $-1 #
face $-1 $103 $104 $23 $-1 $105 forward single #
loop $-1 $-1 $106 $41 #
plane-surface $-1 -12.588357661777344 14.171937489233066 62.730635523287937 0.75470958851134928 0 0.65605901945558964 0.65605901945558964 0 -0.75470958851134928 forward_v I I I I #
coedge $-1 $107 $108 $109 $110 reversed $42 $-1 #
face $-1 $-1 $111 $24 $-1 $112 forward single #
loop $-1 $113 $114 $44 #
cone-surface $-1 37.808410765408674 12.217602386246313 2.4653222074236316 -0.75470958851134928 0 -0.65605901945558964 0.16401475486389741 0 -0.18867739712783732 1 I I -0.70710678118654746 0.70710678118654746 0.25 forward I I I I #
loop $-1 $-1 $115 $31 #
coedge $-1 $72 $72 $116 $117 reversed $45 $-1 #
face $-1 $-1 $118 $25 $-1 $119 forward single #
loop $-1 $120 $121 $47 #
cone-surface $-1 37.808410765408674 16.126272592219827 2.4653222074236316 -0.75470958851134928 0 -0.65605901945558964 0.16401475486389741 0 -0.18867739712783732 1 I I -0.70710678118654746 0.70710678118654746 0.25 forward I I I I #
loop $-1 $-1 $122 $32 #
coedge $-1 $77 $77 $123 $124 reversed $48 $-1 #
face $-1 $125 $126 $26 $-1 $127 reversed single #
loop $-1 $-1 $128 $50 #
plane-surface $-1 -86.599059113945174 -5.4554718752025622 66.143391777451043 0 -1 0 0.57357644374324357 0 -0.81915203911291934 forward_v I I I I #
coedge $-1 $129 $130 $131 $132 reversed $51 $-1 #
face $-1 $-1 $133 $27 $-1 $134 forward single #
loop $-1 $135 $136 $53 #
cone-surface $-1 -32.717778905743458 -9.5419281616180207 -3.2347624111271296 0.57357644374324357 0 -0.81915203911291934 0.81915203911291934 0 0.57357644374324357 1 I I -0.70710678118654746 0.70710678118654746 1 forward I I I I #
loop $-1 $-1 $137 $34 #
coedge $-1 $86 $86 $138 $139 reversed $54 $-1 #
face $-1 $140 $141 $21 $-1 $142 reversed single #
loop $-1 $-1 $143 $56 #
plane-surface $-1 0 -18.732052729535503 0 0 1 0 0 0 1 forward_v I I I I #
coedge $-1 $144 $145 $146 $147 forward $57 $-1 #
coedge $-1 $148 $59 $149 $150 forward $36 $-1 #
coedge $-1 $59 $148 $151 $152 forward $36 $-1 #
coedge $-1 $153 $154 $59 $94 reversed $155 $-1 #
edge $-1 $156 -18.732052729535503 $157 18.732052729535503 $93 $158 forward 7 unknown #
face $-1 $159 $160 $22 $-1 $161 reversed single #
loop $-1 $-1 $162 $60 #
plane-surface $-1 0 -13.628384448033479 0.74238703831237096 0 -1 0 0 0 -1 forward_v I I I I #
coedge $-1 $163 $164 $165 $166 reversed $61 $-1 #
coedge $-1 $167 $63 $162 $168 forward $39 $-1 #
coedge $-1 $63 $167 $169 $170 reversed $39 $-1 #
coedge $-1 $171 $172 $63 $102 forward $173 $-1 #
edge $-1 $174 5.5382751536412336 $175 10.641943435143258 $101 $176 forward 7 unknown #
face $-1 $177 $178 $23 $-1 $179 reversed single #
loop $-1 $-1 $180 $64 #
plane-surface $-1 0 0 5.0496565131156368 0 0 1 1 0 0 forward_v I I I I #
coedge $-1 $181 $182 $183 $184 reversed $65 $-1 #
coedge $-1 $108 $67 $185 $186 reversed $42 $-1 #
coedge $-1 $67 $107 $181 $187 reversed $42 $-1 #
coedge $-1 $183 $188 $67 $110 forward $178 $-1 #
edge $-1 $189 52.775860770966425 $190 55.972838472916614 $109 $191 forward 7 unknown #
loop $-1 $-1 $116 $68 #
plane-surface $-1 -12.588357661777344 14.171937489233066 62.730635523287937 0.75470958851134928 0 0.65605901945558964 0.65605901945558964 0 -0.75470958851134928 forward_v I I I I #
loop $-1 $-1 $192 $44 #
coedge $-1 $114 $114 $115 $193 reversed $69 $-1 #
coedge $-1 $115 $115 $114 $193 forward $71 $-1 #
coedge $-1 $116 $116 $72 $117 forward $111 $-1 #
edge $-1 $194 0 $194 6.2831853071796004 $116 $195 forward 7 unknown #
loop $-1 $-1 $123 $73 #
plane-surface $-1 -12.588357661777344 14.171937489233066 62.730635523287937 0.75470958851134928 0 0.65605901945558964 0.65605901945558964 0 -0.75470958851134928 forward_v I I I I #
loop $-1 $-1 $196 $47 #
coedge $-1 $121 $121 $122 $197 reversed $74 $-1 #
coedge $-1 $122 $122 $121 $197 forward $76 $-1 #
coedge $-1 $123 $123 $77 $124 forward $118 $-1 #
edge $-1 $198 0 $198 6.2831853071796004 $123 $199 forward 7 unknown #
face $-1 $200 $201 $26 $-1 $202 forward single #
loop $-1 $-1 $203 $78 #
plane-surface $-1 -40.332041383098847 0 0 1 0 0 0 0 -1 forward_v I I I I #
coedge $-1 $204 $205 $206 $207 reversed $79 $-1 #
coedge $-1 $208 $81 $209 $210 forward $51 $-1 #
coedge $-1 $81 $208 $204 $211 forward $51 $-1 #
coedge $-1 $206 $212 $81 $132 forward $213 $-1 #
edge $-1 $214 -8.8574203672244689 $215 -0.68450779439355181 $131 $216 forward 7 unknown #
loop $-1 $-1 $138 $82 #
plane-surface $-1 -40.33204138309884 -9.5419281616180207 0.067243896346909082 -0.57357644374324357 0 0.81915203911291934 0.81915203911291934 0 0.57357644374324357 forward_v I I I I #
loop $-1 $-1 $217 $53 #
coedge $-1 $136 $136 $137 $218 reversed $83 $-1 #
coedge $-1 $137 $137 $136 $218 forward $85 $-1 #
coedge $-1 $138 $138 $86 $139 forward $133 $-1 #
edge $-1 $219 0 $219 6.2831853071796004 $138 $220 forward 7 unknown #
face $-1 $221 $222 $21 $-1 $223 reversed single #
loop $-1 $-1 $224 $87 #
plane-surface $-1 -40.332041383098847 0 0 1 0 0 0 0 -1 forward_v I I I I #
coedge $-1 $225 $151 $226 $227 forward $88 $-1 #
coedge $-1 $228 $90 $225 $229 forward $57 $-1 #
coedge $-1 $90 $228 $230 $231 forward $57 $-1 #
coedge $-1 $154 $153 $90 $147 reversed $155 $-1 #
edge $-1 $232 -18.732052729535503 $233 18.732052729535503 $146 $234 forward 7 unknown #
coedge $-1 $92 $91 $235 $236 forward $36 $-1 #
coedge $-1 $237 $238 $91 $150 reversed $222 $-1 #
edge $-1 $157 -40.332041383098847 $239 40.332041383098847 $149 $240 forward 7 unknown #
coedge $-1 $143 $241 $92 $152 reversed $88 $-1 #
edge $-1 $242 -40.332041383098847 $156 40.332041383098847 $151 $243 forward 7 unknown #
coedge $-1 $146 $93 $241 $244 forward $155 $-1 #
coedge $-1 $93 $146 $237 $245 reversed $155 $-1 #
loop $-1 $-1 $153 $221 #
vertex $-1 $94 $246 #
vertex $-1 $94 $247 #
straight-curve $-1 40.332041383098847 0 5.0496565131156368 0 1 0 I I #
face $-1 $248 $249 $22 $-1 $250 reversed single #
loop $-1 $-1 $251 $95 #
plane-surface $-1 -40.332041383098847 0 0 1 0 0 0 0 -1 forward_v I I I I #
coedge $-1 $252 $253 $99 $168 reversed $96 $-1 #
coedge $-1 $254 $98 $255 $256 reversed $61 $-1 #
coedge $-1 $98 $254 $257 $258 forward $61 $-1 #
coedge $-1 $172 $171 $98 $166 forward $173 $-1 #
edge $-1 $259 -10.641943435143258 $260 -5.5382751536412336 $165 $261 forward 7 unknown #
coedge $-1 $100 $99 $251 $262 reversed $39 $-1 #
edge $-1 $174 -40.332041383098847 $263 40.332041383098847 $162 $264 forward 7 unknown #
coedge $-1 $265 $266 $100 $170 forward $249 $-1 #
edge $-1 $175 -40.332041383098847 $267 40.332041383098847 $169 $268 forward 7 unknown #
coedge $-1 $165 $101 $266 $269 forward $173 $-1 #
coedge $-1 $101 $165 $252 $270 forward $173 $-1 #
loop $-1 $-1 $101 $248 #
vertex $-1 $102 $271 #
vertex $-1 $269 $272 #
straight-curve $-1 40.332041383098847 -8.0901092943922457 2.242387038312371 0 -1 0 I I #
face $-1 $-1 $273 $23 $-1 $274 reversed single #
loop $-1 $-1 $109 $103 #
plane-surface $-1 40.332041383098847 0 0 -1 0 0 0 0 1 forward_v I I I I #
coedge $-1 $185 $275 $276 $277 forward $104 $-1 #
coedge $-1 $276 $106 $108 $187 forward $65 $-1 #
coedge $-1 $106 $276 $278 $279 reversed $65 $-1 #
coedge $-1 $280 $109 $106 $184 forward $178 $-1 #
edge $-1 $190 2.5258535043140995 $281 11.646083984918967 $183 $282 forward 7 unknown #
coedge $-1 $283 $180 $107 $186 forward $104 $-1 #
edge $-1 $284 13.408151611438331 $189 16.187241857926278 $185 $285 forward 7 unknown #
edge $-1 $190 -80.664082766197723 $284 -76.42804581818946 $108 $286 forward 7 unknown #
coedge $-1 $109 $280 $283 $287 reversed $178 $-1 #
vertex $-1 $287 $288 #
vertex $-1 $110 $289 #
straight-curve $-1 40.332041383098847 9.6118222489306326 57.825517284082061 0 0 -1 I I #
coedge $-1 $192 $192 $-1 $290 reversed $113 $-1 #
edge $-1 $291 0 $291 6.2831853071796004 $114 $292 forward 7 unknown #
vertex $-1 $117 $293 #
ellipse-curve $-1 38.94249625985487 12.217602386246313 3.4511676621405405 0.75470958851134928 0 0.65605901945558964 0.32802950972779482 0 -0.37735479425567464 1 I I #
coedge $-1 $196 $196 $-1 $294 reversed $120 $-1 #
edge $-1 $295 0 $295 6.2831853071796004 $121 $296 forward 7 unknown #
vertex $-1 $124 $297 #
ellipse-curve $-1 38.94249625985487 16.126272592219827 3.4511676621405405 0.75470958851134928 0 0.65605901945558964 0.32802950972779482 0 -0.37735479425567464 1 I I #
face $-1 $-1 $213 $26 $-1 $298 forward single #
loop $-1 $-1 $209 $125 #
plane-surface $-1 0 -13.628384448033479 0.74238703831237096 0 -1 0 0 0 -1 forward_v I I I I #
coedge $-1 $299 $300 $205 $301 forward $126 $-1 #
coedge $-1 $205 $128 $130 $211 reversed $79 $-1 #
coedge $-1 $128 $204 $203 $301 reversed $79 $-1 #
coedge $-1 $302 $131 $128 $207 forward $213 $-1 #
edge $-1 $215 -10.083110684610993 $303 -2.9674881738737398 $206 $304 forward 7 unknown #
coedge $-1 $130 $129 $299 $305 reversed $51 $-1 #
coedge $-1 $306 $307 $129 $210 reversed $201 $-1 #
edge $-1 $214 -8.6865711992158818 $308 8.6860152927662243e-015 $209 $309 forward 7 unknown #
edge $-1 $310 -8.6780553205883961e-015 $215 8.6865711992158818 $204 $311 forward 7 unknown #
coedge $-1 $131 $302 $306 $312 forward $213 $-1 #
loop $-1 $-1 $206 $200 #
vertex $-1 $132 $313 #
vertex $-1 $132 $314 #
straight-curve $-1 -33.216418872361594 -4.7709640808090104 5.0496565131156377 0 1 0 I I #
coedge $-1 $217 $217 $-1 $315 reversed $135 $-1 #
edge $-1 $316 0 $316 6.2831853071796004 $136 $317 forward 7 unknown #
vertex $-1 $139 $318 #
ellipse-curve $-1 -36.77423012773022 -9.5419281616180207 2.5584502047312685 -0.57357644374324357 0 0.81915203911291934 1.6383040782258387 0 1.1471528874864871 1 I I #
face $-1 $-1 $155 $21 $-1 $319 reversed single #
loop $-1 $-1 $237 $140 #
plane-surface $-1 0 18.732052729535503 0 0 -1 0 0 0 -1 forward_v I I I I #
coedge $-1 $320 $235 $238 $321 forward $141 $-1 #
coedge $-1 $241 $143 $144 $229 reversed $88 $-1 #
coedge $-1 $235 $320 $143 $227 reversed $141 $-1 #
edge $-1 $242 -5.0496565131156368 $322 5.0496565131156368 $226 $323 forward 7 unknown #
coedge $-1 $145 $144 $320 $324 forward $57 $-1 #
edge $-1 $233 -40.332041383098847 $322 40.332041383098847 $225 $325 forward 7 unknown #
coedge $-1 $238 $237 $145 $231 reversed $222 $-1 #
edge $-1 $326 -40.332041383098847 $232 40.332041383098847 $230 $327 forward 7 unknown #
vertex $-1 $147 $328 #
vertex $-1 $244 $329 #
straight-curve $-1 40.332041383098847 0 -5.0496565131156368 0 -1 0 I I #
coedge $-1 $224 $226 $148 $236 reversed $141 $-1 #
edge $-1 $239 -18.732052729535503 $242 18.732052729535503 $235 $330 forward 7 unknown #
coedge $-1 $230 $149 $154 $245 forward $222 $-1 #
coedge $-1 $149 $230 $224 $321 reversed $222 $-1 #
vertex $-1 $150 $331 #
straight-curve $-1 0 18.732052729535503 5.0496565131156368 -1 0 0 I I #
coedge $-1 $151 $225 $153 $244 reversed $88 $-1 #
vertex $-1 $236 $332 #
straight-curve $-1 0 -18.732052729535503 5.0496565131156368 1 0 0 I I #
edge $-1 $156 -5.0496565131156368 $233 5.0496565131156368 $153 $333 forward 7 unknown #
edge $-1 $157 -5.0496565131156368 $232 5.0496565131156368 $154 $334 forward 7 unknown #
point $-1 40.332041383098847 -18.732052729535503 5.0496565131156368 #
point $-1 40.332041383098847 18.732052729535503 5.0496565131156368 #
face $-1 $-1 $173 $22 $-1 $335 reversed single #
loop $-1 $-1 $169 $159 #
plane-surface $-1 0 -18.732052729535503 0 0 1 0 0 0 1 forward_v I I I I #
coedge $-1 $336 $337 $167 $262 forward $160 $-1 #
coedge $-1 $257 $162 $172 $270 reversed $96 $-1 #
coedge $-1 $162 $257 $336 $338 reversed $96 $-1 #
coedge $-1 $164 $163 $339 $340 reversed $61 $-1 #
coedge $-1 $266 $265 $163 $256 forward $249 $-1 #
edge $-1 $341 -40.332041383098847 $259 40.332041383098847 $255 $342 forward 7 unknown #
coedge $-1 $253 $252 $164 $258 reversed $96 $-1 #
edge $-1 $343 -40.332041383098847 $260 40.332041383098847 $257 $344 forward 7 unknown #
vertex $-1 $256 $345 #
vertex $-1 $166 $346 #
straight-curve $-1 40.332041383098847 -8.0901092943922457 -0.75761296168762904 0 1 0 I I #
edge $-1 $267 -10.641943435143258 $263 -5.5382751536412336 $251 $347 forward 7 unknown #
vertex $-1 $262 $348 #
straight-curve $-1 0 -13.628384448033479 2.242387038312371 -1 0 0 I I #
coedge $-1 $255 $169 $337 $349 forward $249 $-1 #
coedge $-1 $169 $255 $171 $269 reversed $249 $-1 #
vertex $-1 $349 $350 #
straight-curve $-1 0 -18.732052729535503 2.242387038312371 -1 0 0 I I #
edge $-1 $175 -2.242387038312371 $259 0.75761296168762904 $171 $351 forward 7 unknown #
edge $-1 $260 -1.1288064808438145 $174 1.8711935191561855 $172 $352 forward 7 unknown #
point $-1 40.332041383098847 -13.628384448033479 2.242387038312371 #
point $-1 40.332041383098847 -18.732052729535503 2.242387038312371 #
loop $-1 $-1 $278 $177 #
plane-surface $-1 0 18.732052729535503 0 0 -1 0 0 0 -1 forward_v I I I I #
coedge $-1 $180 $283 $353 $354 forward $104 $-1 #
coedge $-1 $182 $181 $180 $277 reversed $65 $-1 #
edge $-1 $355 -11.646083984918967 $284 -2.5258535043140995 $180 $356 forward 7 unknown #
coedge $-1 $353 $357 $182 $279 forward $273 $-1 #
edge $-1 $281 -52.863023912708719 $355 -48.626986964700457 $278 $358 forward 7 unknown #
coedge $-1 $188 $183 $357 $359 reversed $178 $-1 #
vertex $-1 $279 $360 #
straight-curve $-1 40.332041383098847 7.0859687446165331 1.8526788111654504 0 1 0 I I #
coedge $-1 $275 $185 $188 $287 forward $104 $-1 #
vertex $-1 $186 $361 #
straight-curve $-1 24.144799525172569 9.6118222489306326 5.0496565131156359 1 0 0 I I #
straight-curve $-1 -12.588357661777344 9.6118222489306326 62.730635523287937 -0.65605901945558964 0 0.75470958851134928 I I #
edge $-1 $189 9.6118222489306326 $362 18.732052729535503 $188 $363 forward 7 unknown #
point $-1 40.332041383098847 9.6118222489306326 5.0496565131156368 #
point $-1 40.332041383098854 9.6118222489306326 1.8526788111654469 #
edge $-1 $364 1 $364 0 $192 $-1 forward 7 unknown #
vertex $-1 $193 $365 #
ellipse-curve $-1 37.997088162536514 12.217602386246313 2.6293369622875291 0.75470958851134928 0 0.65605901945558964 0.32802950972779482 0 -0.37735479425567464 1 I I #
point $-1 39.270525769582676 12.217602386246313 3.0738128678848731 #
edge $-1 $366 1 $366 0 $196 $-1 forward 7 unknown #
vertex $-1 $197 $367 #
ellipse-curve $-1 37.997088162536514 16.126272592219827 2.6293369622875291 0.75470958851134928 0 0.65605901945558964 0.32802950972779482 0 -0.37735479425567464 1 I I #
point $-1 39.270525769582676 16.126272592219827 3.0738128678848731 #
plane-surface $-1 0 0 5.0496565131156368 0 0 1 1 0 0 forward_v I I I I #
coedge $-1 $368 $203 $208 $305 forward $126 $-1 #
coedge $-1 $203 $368 $302 $369 reversed $126 $-1 #
edge $-1 $303 28.022039375609886 $310 33.00445199237862 $203 $370 forward 7 unknown #
coedge $-1 $212 $206 $300 $369 forward $213 $-1 #
vertex $-1 $369 $371 #
straight-curve $-1 -43.299529556972587 -5.4554718752025622 5.0496565131156359 -1 0 0 I I #
edge $-1 $310 0.68450779439355181 $308 8.8574203672244689 $299 $372 forward 7 unknown #
coedge $-1 $307 $209 $212 $312 reversed $201 $-1 #
coedge $-1 $209 $306 $368 $373 reversed $201 $-1 #
vertex $-1 $373 $374 #
straight-curve $-1 -40.33204138309884 -13.628384448033479 0.067243896346909082 -0.81915203911291934 0 -0.57357644374324357 I I #
vertex $-1 $305 $375 #
straight-curve $-1 -40.33204138309884 -5.4554718752025622 0.067243896346909082 0.81915203911291934 0 0.57357644374324357 I I #
edge $-1 $376 2.9674881738737398 $214 10.083110684610993 $212 $377 forward 7 unknown #
point $-1 -33.216418872361594 -13.628384448033479 5.0496565131156368 #
point $-1 -33.216418872361594 -5.4554718752025622 5.0496565131156368 #
edge $-1 $378 1 $378 0 $217 $-1 forward 7 unknown #
vertex $-1 $218 $379 #
ellipse-curve $-1 -33.2913553494867 -9.5419281616180207 -2.4156103720142101 -0.57357644374324357 0 0.81915203911291934 1.6383040782258387 0 1.1471528874864871 1 I I #
point $-1 -35.135926049504391 -9.5419281616180207 3.7056030922177623 #
plane-surface $-1 40.332041383098847 0 0 -1 0 0 0 0 1 forward_v I I I I #
coedge $-1 $226 $224 $228 $324 reversed $141 $-1 #
edge $-1 $239 -5.0496565131156368 $326 5.0496565131156368 $238 $380 forward 7 unknown #
vertex $-1 $324 $381 #
straight-curve $-1 -40.332041383098847 -18.732052729535503 0 0 0 -1 I I #
edge $-1 $322 -18.732052729535503 $326 18.732052729535503 $320 $382 forward 7 unknown #
straight-curve $-1 0 -18.732052729535503 -5.0496565131156368 -1 0 0 I I #
vertex $-1 $231 $383 #
straight-curve $-1 0 18.732052729535503 -5.0496565131156368 1 0 0 I I #
point $-1 40.332041383098847 18.732052729535503 -5.0496565131156368 #
point $-1 40.332041383098847 -18.732052729535503 -5.0496565131156368 #
straight-curve $-1 -40.332041383098847 0 5.0496565131156368 0 -1 0 I I #
point $-1 -40.332041383098847 18.732052729535503 5.0496565131156368 #
point $-1 -40.332041383098847 -18.732052729535503 5.0496565131156368 #
straight-curve $-1 40.332041383098847 -18.732052729535503 0 0 0 -1 I I #
straight-curve $-1 40.332041383098847 18.732052729535503 0 0 0 -1 I I #
plane-surface $-1 40.332041383098847 0 0 -1 0 0 0 0 1 forward_v I I I I #
coedge $-1 $339 $251 $253 $338 forward $160 $-1 #
coedge $-1 $251 $339 $265 $349 reversed $160 $-1 #
edge $-1 $263 -1.8711935191561855 $343 1.1288064808438145 $336 $384 forward 7 unknown #
coedge $-1 $337 $336 $254 $340 forward $160 $-1 #
edge $-1 $343 5.5382751536412336 $341 10.641943435143258 $339 $385 forward 7 unknown #
vertex $-1 $256 $386 #
straight-curve $-1 0 -18.732052729535503 -0.75761296168762904 1 0 0 I I #
vertex $-1 $340 $387 #
straight-curve $-1 0 -13.628384448033479 -0.75761296168762904 1 0 0 I I #
point $-1 40.332041383098847 -18.732052729535503 -0.75761296168762904 #
point $-1 40.332041383098847 -13.628384448033479 -0.75761296168762904 #
straight-curve $-1 -40.332041383098847 -8.0901092943922457 2.242387038312371 0 1 0 I I #
point $-1 -40.332041383098847 -13.628384448033479 2.242387038312371 #
edge $-1 $267 -2.242387038312371 $341 0.75761296168762904 $337 $388 forward 7 unknown #
point $-1 -40.332041383098847 -18.732052729535503 2.242387038312371 #
straight-curve $-1 40.332041383098847 -18.732052729535503 0 0 0 -1 I I #
straight-curve $-1 40.332041383098847 -13.628384448033479 0.37119351915618548 0 0 1 I I #
coedge $-1 $357 $278 $275 $354 reversed $273 $-1 #
edge $-1 $362 -40.332041383098847 $355 -37.552951136610901 $353 $389 forward 7 unknown #
vertex $-1 $279 $390 #
straight-curve $-1 37.552951136610901 7.0859687446165331 5.0496565131156288 0 -1 0 I I #
coedge $-1 $278 $353 $280 $359 forward $273 $-1 #
straight-curve $-1 5.6507777494697802 18.732052729535503 41.748909835791459 -0.65605901945558975 0 0.75470958851134939 I I #
edge $-1 $362 -5.0496565131156368 $281 -1.8526788111654469 $280 $391 forward 7 unknown #
point $-1 40.332041383098854 18.7320527295355 1.8526788111654469 #
point $-1 37.552951136610901 9.6118222489306326 5.0496565131156359 #
vertex $-1 $287 $392 #
straight-curve $-1 40.332041383098847 0 5.0496565131156368 0 1 0 I I #
vertex $-1 $290 $393 #
point $-1 38.325117672264305 12.217602386246313 2.2519821680318546 #
vertex $-1 $294 $394 #
point $-1 38.325117672264305 16.126272592219827 2.2519821680318546 #
coedge $-1 $300 $299 $307 $373 forward $126 $-1 #
edge $-1 $303 5.4554718752025622 $376 13.628384448033479 $300 $395 forward 7 unknown #
straight-curve $-1 -40.332041383098847 -5.4554718752025622 33.071695888725522 0 0 -1 I I #
point $-1 -40.332041383098847 -5.4554718752025622 5.0496565131156368 #
straight-curve $-1 -40.332041383098847 -4.7709640808090104 0.067243896346900256 0 -1 0 I I #
edge $-1 $308 -33.00445199237862 $376 -28.022039375609886 $368 $396 forward 7 unknown #
point $-1 -40.332041383098847 -13.628384448033479 0.067243896346904086 #
point $-1 -40.332041383098847 -5.4554718752025622 0.0672438963469041 #
vertex $-1 $373 $397 #
straight-curve $-1 -43.299529556972587 -13.628384448033479 5.0496565131156359 1 0 0 I I #
vertex $-1 $315 $398 #
point $-1 -31.653051271260864 -9.5419281616180207 -1.268457484527723 #
straight-curve $-1 -40.332041383098847 18.732052729535503 0 0 0 -1 I I #
point $-1 -40.332041383098847 -18.732052729535503 -5.0496565131156368 #
straight-curve $-1 -40.332041383098847 0 -5.0496565131156368 0 1 0 I I #
point $-1 -40.332041383098847 18.732052729535503 -5.0496565131156368 #
straight-curve $-1 -40.332041383098847 -13.628384448033479 0.37119351915618548 0 0 -1 I I #
straight-curve $-1 -40.332041383098847 -8.0901092943922457 -0.75761296168762904 0 -1 0 I I #
point $-1 -40.332041383098847 -18.732052729535503 -0.75761296168762904 #
point $-1 -40.332041383098847 -13.628384448033479 -0.75761296168762904 #
straight-curve $-1 -40.332041383098847 -18.732052729535503 0 0 0 -1 I I #
straight-curve $-1 0 18.732052729535503 5.0496565131156368 -1 0 0 I I #
point $-1 37.552951136610901 18.7320527295355 5.0496565131156359 #
straight-curve $-1 40.332041383098847 18.732052729535503 0 0 0 -1 I I #
point $-1 40.332041383098847 18.732052729535503 5.0496565131156368 #
point $-1 37.619733368280833 12.217602386246313 2.3013074525597341 #
point $-1 37.619733368280833 16.126272592219827 2.3013074525597341 #
straight-curve $-1 -40.332041383098847 0 5.0496565131156368 0 -1 0 I I #
straight-curve $-1 -40.332041383098847 -13.628384448033479 33.071695888725522 0 0 1 I I #
point $-1 -40.332041383098847 -13.628384448033479 5.0496565131156368 #
point $-1 -32.144202462000216 -9.5419281616180207 -4.0539144502400486 #
End-of-ACIS-data 