500 0 6 0           
7 Unknown 11 ACIS 5.0 NT 24 Fri Mar 26 00:50:55 1999 
-1 9.9999999999999995e-007 1e-010 
body $-1 $6 $-1 $7 #
body $-1 $8 $-1 $9 #
body $-1 $10 $-1 $11 #
body $-1 $12 $-1 $13 #
body $-1 $14 $-1 $15 #
body $-1 $16 $-1 $17 #
lump $-1 $-1 $18 $0 #
transform $-1 1 0 0 0 1 0 0 0 1 42.711264381847592 18.462158126321444 4.5445182286895625 1 rotate no_reflect no_shear #
lump $-1 $-1 $19 $1 #
transform $-1 1 0 0 0 1 0 0 0 1 42.711264381847592 18.462158126321444 4.5445182286895625 1 rotate no_reflect no_shear #
lump $-1 $-1 $20 $2 #
transform $-1 1 0 0 0 1 0 0 0 1 42.711264381847592 18.462158126321444 4.5445182286895625 1 rotate no_reflect no_shear #
lump $-1 $-1 $21 $3 #
transform $-1 1 0 0 0 1 0 0 0 1 42.711264381847592 18.462158126321444 4.5445182286895625 1 rotate no_reflect no_shear #
lump $-1 $-1 $22 $4 #
transform $-1 1 0 0 0 1 0 0 0 1 42.711264381847592 18.462158126321444 4.5445182286895625 1 rotate no_reflect no_shear #
lump $-1 $-1 $23 $5 #
transform $-1 1 0 0 0 1 0 0 0 1 42.711264381847592 18.462158126321444 4.5445182286895625 1 rotate no_reflect no_shear #
shell $-1 $-1 $-1 $24 $-1 $6 #
shell $-1 $-1 $-1 $25 $-1 $8 #
shell $-1 $-1 $-1 $26 $-1 $10 #
shell $-1 $-1 $-1 $27 $-1 $12 #
shell $-1 $-1 $-1 $28 $-1 $14 #
shell $-1 $-1 $-1 $29 $-1 $16 #
face $-1 $30 $31 $18 $-1 $32 forward single #
face $-1 $33 $34 $19 $-1 $35 forward single #
face $-1 $36 $37 $20 $-1 $38 forward single #
face $-1 $39 $40 $21 $-1 $41 reversed single #
face $-1 $42 $43 $22 $-1 $44 forward single #
face $-1 $45 $46 $23 $-1 $47 forward single #
face $-1 $48 $49 $18 $-1 $50 reversed single #
loop $-1 $-1 $51 $24 #
plane-surface $-1 0 0 4.5445182286895625 0 0 1 1 0 0 forward_v I I I I #
face $-1 $52 $53 $19 $-1 $54 reversed single #
loop $-1 $-1 $55 $25 #
plane-surface $-1 0 -18.462158126321444 0 0 1 0 0 0 1 forward_v I I I I #
face $-1 $56 $57 $20 $-1 $58 reversed single #
loop $-1 $-1 $59 $26 #
plane-surface $-1 0 18.462158126321444 0 0 -1 0 0 0 -1 forward_v I I I I #
face $-1 $60 $61 $21 $-1 $62 reversed single #
loop $-1 $-1 $63 $27 #
plane-surface $-1 38.495207636623498 6.9418503892794643 121.22463537194928 0 -1 0 -0.68199836817093118 0 -0.7313536940579346 forward_v I I I I #
face $-1 $64 $65 $22 $-1 $66 forward single #
loop $-1 $67 $68 $28 #
cone-surface $-1 39.281177894621351 1.4985347286822943 1.170048680236824 -0.68199836817093118 0 -0.7313536940579346 0.7313536940579346 0 -0.68199836817093118 1 I I 0 1 1 forward I I I I #
face $-1 $69 $70 $23 $-1 $71 forward single #
loop $-1 $72 $73 $29 #
cone-surface $-1 39.281177894621351 4.7645241250405981 1.170048680236824 -0.68199836817093118 0 -0.7313536940579346 0.7313536940579346 0 -0.68199836817093118 1 I I 0 1 1 forward I I I I #
face $-1 $74 $75 $18 $-1 $76 reversed single #
loop $-1 $-1 $77 $30 #
plane-surface $-1 0 0 -4.5445182286895625 0 0 1 1 0 0 forward_v I I I I #
coedge $-1 $78 $79 $80 $81 forward $31 $-1 #
face $-1 $82 $83 $19 $-1 $84 forward single #
loop $-1 $-1 $85 $33 #
plane-surface $-1 -42.711264381847592 0 0 1 0 0 0 0 -1 forward_v I I I I #
coedge $-1 $86 $87 $88 $89 forward $34 $-1 #
face $-1 $90 $91 $20 $-1 $92 forward single #
loop $-1 $-1 $93 $36 #
plane-surface $-1 42.711264381847592 0 0 -1 0 0 0 0 1 forward_v I I I I #
coedge $-1 $94 $95 $96 $97 forward $37 $-1 #
face $-1 $98 $99 $21 $-1 $100 reversed single #
loop $-1 $-1 $101 $39 #
plane-surface $-1 -19.762817585251049 3.1315294268614444 58.750553404850628 0.68199836817093118 0 0.7313536940579346 0.7313536940579346 0 -0.68199836817093118 forward_v I I I I #
coedge $-1 $102 $103 $104 $105 reversed $40 $-1 #
face $-1 $-1 $106 $22 $-1 $107 forward single #
loop $-1 $108 $109 $42 #
cone-surface $-1 37.682705844194295 1.4985347286822943 -0.54410269238814468 -0.68199836817093118 0 -0.7313536940579346 0.3656768470289673 0 -0.34099918408546559 1 I I -0.70710678118654746 0.70710678118654746 0.5 forward I I I I #
loop $-1 $-1 $110 $28 #
coedge $-1 $68 $68 $111 $112 reversed $43 $-1 #
face $-1 $-1 $113 $23 $-1 $114 forward single #
loop $-1 $115 $116 $45 #
cone-surface $-1 37.682705844194295 4.7645241250405981 -0.54410269238814468 -0.68199836817093118 0 -0.7313536940579346 0.3656768470289673 0 -0.34099918408546559 1 I I -0.70710678118654746 0.70710678118654746 0.5 forward I I I I #
loop $-1 $-1 $117 $29 #
coedge $-1 $73 $73 $118 $119 reversed $46 $-1 #
face $-1 $120 $121 $18 $-1 $122 reversed single #
loop $-1 $-1 $123 $48 #
plane-surface $-1 0 -18.462158126321444 0 0 1 0 0 0 1 forward_v I I I I #
coedge $-1 $124 $125 $126 $127 forward $49 $-1 #
coedge $-1 $128 $51 $129 $130 forward $31 $-1 #
coedge $-1 $51 $128 $131 $132 forward $31 $-1 #
coedge $-1 $133 $134 $51 $81 reversed $135 $-1 #
edge $-1 $136 -18.462158126321444 $137 18.462158126321444 $80 $138 forward 7 unknown #
face $-1 $139 $140 $19 $-1 $141 reversed single #
loop $-1 $-1 $142 $52 #
plane-surface $-1 0 -20.495096006659526 -0.75604868040440909 0 0 1 1 0 0 forward_v I I I I #
coedge $-1 $143 $144 $87 $145 forward $53 $-1 #
coedge $-1 $146 $55 $147 $148 reversed $34 $-1 #
coedge $-1 $55 $146 $85 $145 reversed $34 $-1 #
coedge $-1 $149 $142 $55 $89 reversed $83 $-1 #
edge $-1 $150 -42.711264381847592 $151 42.711264381847592 $88 $152 forward 7 unknown #
face $-1 $153 $154 $20 $-1 $155 reversed single #
loop $-1 $-1 $156 $56 #
plane-surface $-1 0 20.495096006659526 -0.75604868040440909 0 0 1 1 0 0 forward_v I I I I #
coedge $-1 $157 $158 $95 $159 forward $57 $-1 #
coedge $-1 $160 $59 $161 $162 reversed $37 $-1 #
coedge $-1 $59 $160 $93 $159 reversed $37 $-1 #
coedge $-1 $156 $163 $59 $97 reversed $91 $-1 #
edge $-1 $164 -42.711264381847592 $165 42.711264381847592 $96 $166 forward 7 unknown #
face $-1 $167 $168 $21 $-1 $169 forward single #
loop $-1 $-1 $170 $60 #
plane-surface $-1 38.495207636623498 -0.67879153555657545 121.22463537194928 0 1 0 0.68199836817093118 0 0.7313536940579346 forward_v I I I I #
coedge $-1 $171 $172 $173 $174 reversed $61 $-1 #
coedge $-1 $103 $63 $175 $176 reversed $40 $-1 #
coedge $-1 $63 $102 $171 $177 reversed $40 $-1 #
coedge $-1 $173 $178 $63 $105 forward $168 $-1 #
edge $-1 $179 -23.463660563535843 $180 -19.118433321766556 $104 $181 forward 7 unknown #
loop $-1 $-1 $111 $64 #
plane-surface $-1 -19.762817585251049 3.1315294268614444 58.750553404850628 0.68199836817093118 0 0.7313536940579346 0.7313536940579346 0 -0.68199836817093118 forward_v I I I I #
loop $-1 $-1 $182 $42 #
coedge $-1 $109 $109 $110 $183 reversed $65 $-1 #
coedge $-1 $110 $110 $109 $183 forward $67 $-1 #
coedge $-1 $111 $111 $68 $112 forward $106 $-1 #
edge $-1 $184 0 $184 6.2831853071796004 $111 $185 forward 7 unknown #
loop $-1 $-1 $118 $69 #
plane-surface $-1 -19.762817585251049 3.1315294268614444 58.750553404850628 0.68199836817093118 0 0.7313536940579346 0.7313536940579346 0 -0.68199836817093118 forward_v I I I I #
loop $-1 $-1 $186 $45 #
coedge $-1 $116 $116 $117 $187 reversed $70 $-1 #
coedge $-1 $117 $117 $116 $187 forward $72 $-1 #
coedge $-1 $118 $118 $73 $119 forward $113 $-1 #
edge $-1 $188 0 $188 6.2831853071796004 $118 $189 forward 7 unknown #
face $-1 $190 $191 $18 $-1 $192 reversed single #
loop $-1 $-1 $193 $74 #
plane-surface $-1 -42.711264381847592 0 0 1 0 0 0 0 -1 forward_v I I I I #
coedge $-1 $194 $131 $195 $196 forward $75 $-1 #
coedge $-1 $197 $77 $194 $198 forward $49 $-1 #
coedge $-1 $77 $197 $199 $200 forward $49 $-1 #
coedge $-1 $134 $133 $77 $127 reversed $135 $-1 #
edge $-1 $201 -18.462158126321444 $202 18.462158126321444 $126 $203 forward 7 unknown #
coedge $-1 $79 $78 $204 $205 forward $31 $-1 #
coedge $-1 $206 $207 $78 $130 reversed $191 $-1 #
edge $-1 $137 -42.711264381847592 $208 42.711264381847592 $129 $209 forward 7 unknown #
coedge $-1 $123 $210 $79 $132 reversed $75 $-1 #
edge $-1 $211 -42.711264381847592 $136 42.711264381847592 $131 $212 forward 7 unknown #
coedge $-1 $126 $80 $210 $213 forward $135 $-1 #
coedge $-1 $80 $126 $206 $214 reversed $135 $-1 #
loop $-1 $-1 $133 $190 #
vertex $-1 $81 $215 #
vertex $-1 $81 $216 #
straight-curve $-1 42.711264381847592 0 4.5445182286895625 0 1 0 I I #
face $-1 $217 $218 $19 $-1 $219 reversed single #
loop $-1 $-1 $220 $82 #
plane-surface $-1 0 -20.495096006659526 -3.7560486804044091 0 0 1 1 0 0 forward_v I I I I #
coedge $-1 $88 $221 $222 $223 forward $83 $-1 #
coedge $-1 $224 $85 $225 $226 reversed $53 $-1 #
coedge $-1 $85 $224 $149 $227 reversed $53 $-1 #
edge $-1 $150 0.75604868040440909 $228 3.7560486804044091 $85 $229 forward 7 unknown #
coedge $-1 $87 $86 $230 $231 forward $34 $-1 #
coedge $-1 $222 $232 $86 $148 forward $233 $-1 #
edge $-1 $234 -3.7560486804044091 $151 -0.75604868040440909 $147 $235 forward 7 unknown #
coedge $-1 $221 $88 $144 $227 forward $83 $-1 #
vertex $-1 $145 $236 #
vertex $-1 $223 $237 #
straight-curve $-1 0 -18.462158126321444 -0.75604868040440909 1 0 0 I I #
face $-1 $238 $239 $20 $-1 $240 reversed single #
loop $-1 $-1 $241 $90 #
plane-surface $-1 0 20.495096006659526 -3.7560486804044091 0 0 1 1 0 0 forward_v I I I I #
coedge $-1 $242 $96 $158 $243 forward $91 $-1 #
coedge $-1 $244 $93 $241 $245 reversed $57 $-1 #
coedge $-1 $93 $244 $156 $243 reversed $57 $-1 #
edge $-1 $164 0.75604868040440909 $246 3.7560486804044091 $93 $247 forward 7 unknown #
coedge $-1 $95 $94 $248 $249 forward $37 $-1 #
coedge $-1 $250 $251 $94 $162 forward $252 $-1 #
edge $-1 $253 -3.7560486804044091 $165 -0.75604868040440909 $161 $254 forward 7 unknown #
coedge $-1 $96 $242 $250 $255 forward $91 $-1 #
vertex $-1 $159 $256 #
vertex $-1 $255 $257 #
straight-curve $-1 0 18.462158126321444 -0.75604868040440909 -1 0 0 I I #
face $-1 $-1 $258 $21 $-1 $259 reversed single #
loop $-1 $-1 $104 $98 #
plane-surface $-1 0 0 4.5445182286895625 0 0 1 1 0 0 forward_v I I I I #
coedge $-1 $260 $261 $262 $263 reversed $99 $-1 #
coedge $-1 $264 $101 $103 $177 forward $61 $-1 #
coedge $-1 $101 $264 $260 $265 forward $61 $-1 #
coedge $-1 $262 $104 $101 $174 forward $168 $-1 #
edge $-1 $180 -5.3760856758487421 $266 2.2445562489872977 $173 $267 forward 7 unknown #
coedge $-1 $268 $269 $102 $176 forward $258 $-1 #
edge $-1 $270 -60.119789502998557 $179 -56.067799457285076 $175 $271 forward 7 unknown #
edge $-1 $180 79.481180169884595 $270 85.422528763695183 $103 $272 forward 7 unknown #
coedge $-1 $104 $262 $268 $273 forward $168 $-1 #
vertex $-1 $176 $274 #
vertex $-1 $105 $275 #
straight-curve $-1 19.247603818311749 6.9418503892794643 4.5445182286895616 -1 0 0 I I #
coedge $-1 $182 $182 $-1 $276 reversed $108 $-1 #
edge $-1 $277 0 $277 6.2831853071796004 $109 $278 forward 7 unknown #
vertex $-1 $112 $279 #
ellipse-curve $-1 40.538650760962945 1.4985347286822943 2.5185232058328233 0.68199836817093118 0 0.7313536940579346 0.7313536940579346 0 -0.68199836817093118 1 I I #
coedge $-1 $186 $186 $-1 $280 reversed $115 $-1 #
edge $-1 $281 0 $281 6.2831853071796004 $116 $282 forward 7 unknown #
vertex $-1 $119 $283 #
ellipse-curve $-1 40.538650760962945 4.7645241250405981 2.5185232058328233 0.68199836817093118 0 0.7313536940579346 0.7313536940579346 0 -0.68199836817093118 1 I I #
face $-1 $-1 $135 $18 $-1 $284 reversed single #
loop $-1 $-1 $207 $120 #
plane-surface $-1 0 18.462158126321444 0 0 -1 0 0 0 -1 forward_v I I I I #
coedge $-1 $285 $204 $207 $286 forward $121 $-1 #
coedge $-1 $210 $123 $124 $198 reversed $75 $-1 #
coedge $-1 $204 $285 $123 $196 reversed $121 $-1 #
edge $-1 $211 -4.5445182286895625 $287 4.5445182286895625 $195 $288 forward 7 unknown #
coedge $-1 $125 $124 $285 $289 forward $49 $-1 #
edge $-1 $202 -42.711264381847592 $287 42.711264381847592 $194 $290 forward 7 unknown #
coedge $-1 $207 $206 $125 $200 reversed $191 $-1 #
edge $-1 $291 -42.711264381847592 $201 42.711264381847592 $199 $292 forward 7 unknown #
vertex $-1 $127 $293 #
vertex $-1 $213 $294 #
straight-curve $-1 42.711264381847592 0 -4.5445182286895625 0 -1 0 I I #
coedge $-1 $193 $195 $128 $205 reversed $121 $-1 #
edge $-1 $208 -18.462158126321444 $211 18.462158126321444 $204 $295 forward 7 unknown #
coedge $-1 $199 $129 $134 $214 forward $191 $-1 #
coedge $-1 $129 $199 $193 $286 reversed $191 $-1 #
vertex $-1 $130 $296 #
straight-curve $-1 0 18.462158126321444 4.5445182286895625 -1 0 0 I I #
coedge $-1 $131 $194 $133 $213 reversed $75 $-1 #
vertex $-1 $205 $297 #
straight-curve $-1 0 -18.462158126321444 4.5445182286895625 1 0 0 I I #
edge $-1 $136 -4.5445182286895625 $202 4.5445182286895625 $133 $298 forward 7 unknown #
edge $-1 $137 -4.5445182286895625 $201 4.5445182286895625 $134 $299 forward 7 unknown #
point $-1 42.711264381847592 -18.462158126321444 4.5445182286895625 #
point $-1 42.711264381847592 18.462158126321444 4.5445182286895625 #
face $-1 $-1 $233 $19 $-1 $300 reversed single #
loop $-1 $-1 $301 $139 #
plane-surface $-1 0 -22.528033886997608 -2.2560486804044091 0 1 0 0 0 1 forward_v I I I I #
coedge $-1 $302 $230 $232 $303 forward $140 $-1 #
coedge $-1 $142 $149 $304 $305 forward $83 $-1 #
coedge $-1 $306 $147 $142 $223 reversed $233 $-1 #
edge $-1 $307 -2.032937880338082 $151 2.032937880338082 $222 $308 forward 7 unknown #
coedge $-1 $144 $143 $301 $309 reversed $53 $-1 #
coedge $-1 $230 $302 $143 $226 forward $140 $-1 #
edge $-1 $310 -2.032937880338082 $228 2.032937880338082 $143 $311 forward 7 unknown #
edge $-1 $150 -2.032937880338082 $312 2.032937880338082 $144 $313 forward 7 unknown #
vertex $-1 $145 $314 #
straight-curve $-1 -42.711264381847592 -18.462158126321444 0 0 0 -1 I I #
coedge $-1 $220 $225 $146 $231 reversed $140 $-1 #
edge $-1 $234 -42.711264381847592 $228 42.711264381847592 $230 $315 forward 7 unknown #
coedge $-1 $147 $306 $220 $303 reversed $233 $-1 #
loop $-1 $-1 $147 $217 #
vertex $-1 $148 $316 #
straight-curve $-1 42.711264381847592 -18.462158126321444 0 0 0 1 I I #
point $-1 -42.711264381847592 -18.462158126321444 -0.75604868040440909 #
point $-1 42.711264381847592 -18.462158126321444 -0.75604868040440909 #
face $-1 $-1 $252 $20 $-1 $317 reversed single #
loop $-1 $-1 $318 $153 #
plane-surface $-1 0 22.528033886997608 -2.2560486804044091 0 -1 0 0 0 -1 forward_v I I I I #
coedge $-1 $248 $319 $157 $245 forward $154 $-1 #
coedge $-1 $163 $156 $320 $321 forward $91 $-1 #
edge $-1 $164 -2.032937880338082 $322 2.032937880338082 $158 $323 forward 7 unknown #
coedge $-1 $158 $157 $318 $324 reversed $57 $-1 #
edge $-1 $325 -2.032937880338082 $246 2.032937880338082 $157 $326 forward 7 unknown #
vertex $-1 $159 $327 #
straight-curve $-1 42.711264381847592 18.462158126321444 0 0 0 -1 I I #
coedge $-1 $328 $241 $160 $249 reversed $154 $-1 #
edge $-1 $253 -42.711264381847592 $246 42.711264381847592 $248 $329 forward 7 unknown #
coedge $-1 $330 $161 $163 $255 reversed $252 $-1 #
coedge $-1 $161 $330 $328 $331 reversed $252 $-1 #
loop $-1 $-1 $161 $238 #
vertex $-1 $162 $332 #
straight-curve $-1 -42.711264381847592 18.462158126321444 0 0 0 1 I I #
edge $-1 $333 -2.032937880338082 $165 2.032937880338082 $250 $334 forward 7 unknown #
point $-1 42.711264381847592 18.462158126321444 -0.75604868040440909 #
point $-1 -42.711264381847592 18.462158126321444 -0.75604868040440909 #
loop $-1 $-1 $175 $167 #
plane-surface $-1 42.711264381847592 0 0 -1 0 0 0 0 1 forward_v I I I I #
coedge $-1 $261 $170 $172 $265 reversed $99 $-1 #
coedge $-1 $170 $260 $335 $336 reversed $99 $-1 #
coedge $-1 $178 $173 $170 $263 forward $168 $-1 #
edge $-1 $266 19.118433321766556 $337 23.463660563535843 $262 $338 forward 7 unknown #
coedge $-1 $172 $171 $269 $339 reversed $61 $-1 #
edge $-1 $340 -85.422528763695183 $266 -79.481180169884595 $260 $341 forward 7 unknown #
vertex $-1 $174 $342 #
straight-curve $-1 38.366037140078312 1.5657647134307222 4.5445182286895616 0 -1 0 I I #
coedge $-1 $335 $175 $178 $273 reversed $258 $-1 #
coedge $-1 $175 $335 $264 $339 forward $258 $-1 #
vertex $-1 $176 $343 #
straight-curve $-1 42.711264381847592 6.9418503892794643 60.612317685974638 0 0 1 I I #
straight-curve $-1 -19.762817585251049 6.9418503892794643 58.750553404850628 0.7313536940579346 0 -0.68199836817093118 I I #
edge $-1 $337 -0.67879153555657545 $179 6.9418503892794643 $268 $344 forward 7 unknown #
point $-1 42.711264381847592 6.9418503892794643 4.5445182286895625 #
point $-1 38.366037140078305 6.9418503892794643 4.5445182286895616 #
edge $-1 $345 1 $345 0 $182 $-1 forward 7 unknown #
vertex $-1 $183 $346 #
ellipse-curve $-1 38.023705028279764 1.4985347286822943 -0.17842584535917738 0.68199836817093118 0 0.7313536940579346 0.7313536940579346 0 -0.68199836817093118 1 I I #
point $-1 41.270004455020882 1.4985347286822943 1.8365248376618943 #
edge $-1 $347 1 $347 0 $186 $-1 forward 7 unknown #
vertex $-1 $187 $348 #
ellipse-curve $-1 38.023705028279764 4.7645241250405981 -0.17842584535917738 0.68199836817093118 0 0.7313536940579346 0.7313536940579346 0 -0.68199836817093118 1 I I #
point $-1 41.270004455020882 4.7645241250405981 1.8365248376618943 #
plane-surface $-1 42.711264381847592 0 0 -1 0 0 0 0 1 forward_v I I I I #
coedge $-1 $195 $193 $197 $289 reversed $121 $-1 #
edge $-1 $208 -4.5445182286895625 $291 4.5445182286895625 $207 $349 forward 7 unknown #
vertex $-1 $289 $350 #
straight-curve $-1 -42.711264381847592 -18.462158126321444 0 0 0 -1 I I #
edge $-1 $287 -18.462158126321444 $291 18.462158126321444 $285 $351 forward 7 unknown #
straight-curve $-1 0 -18.462158126321444 -4.5445182286895625 -1 0 0 I I #
vertex $-1 $200 $352 #
straight-curve $-1 0 18.462158126321444 -4.5445182286895625 1 0 0 I I #
point $-1 42.711264381847592 18.462158126321444 -4.5445182286895625 #
point $-1 42.711264381847592 -18.462158126321444 -4.5445182286895625 #
straight-curve $-1 -42.711264381847592 0 4.5445182286895625 0 -1 0 I I #
point $-1 -42.711264381847592 18.462158126321444 4.5445182286895625 #
point $-1 -42.711264381847592 -18.462158126321444 4.5445182286895625 #
straight-curve $-1 42.711264381847592 -18.462158126321444 0 0 0 -1 I I #
straight-curve $-1 42.711264381847592 18.462158126321444 0 0 0 -1 I I #
plane-surface $-1 42.711264381847592 0 0 -1 0 0 0 0 1 forward_v I I I I #
coedge $-1 $353 $304 $224 $309 forward $218 $-1 #
coedge $-1 $225 $220 $353 $354 forward $140 $-1 #
edge $-1 $234 -2.032937880338082 $355 2.032937880338082 $232 $356 forward 7 unknown #
coedge $-1 $301 $357 $221 $305 reversed $218 $-1 #
edge $-1 $312 -42.711264381847592 $307 42.711264381847592 $304 $358 forward 7 unknown #
coedge $-1 $232 $222 $357 $359 forward $233 $-1 #
vertex $-1 $223 $360 #
straight-curve $-1 42.711264381847592 -20.495096006659526 -0.75604868040440909 0 1 0 I I #
edge $-1 $312 -1.5 $310 1.5 $224 $361 forward 7 unknown #
vertex $-1 $226 $362 #
straight-curve $-1 -42.711264381847592 -20.495096006659526 -3.7560486804044091 0 1 0 I I #
vertex $-1 $227 $363 #
straight-curve $-1 -42.711264381847592 -20.495096006659526 -0.75604868040440909 0 -1 0 I I #
point $-1 -42.711264381847592 -18.462158126321444 -3.7560486804044091 #
straight-curve $-1 0 -18.462158126321444 -3.7560486804044091 -1 0 0 I I #
point $-1 42.711264381847592 -18.462158126321444 -3.7560486804044091 #
plane-surface $-1 -42.711264381847592 0 0 1 0 0 0 0 -1 forward_v I I I I #
coedge $-1 $364 $320 $244 $324 forward $239 $-1 #
coedge $-1 $241 $328 $364 $365 forward $154 $-1 #
coedge $-1 $318 $366 $242 $321 reversed $239 $-1 #
edge $-1 $322 -42.711264381847592 $333 42.711264381847592 $320 $367 forward 7 unknown #
vertex $-1 $243 $368 #
straight-curve $-1 42.711264381847592 20.495096006659526 -0.75604868040440909 0 1 0 I I #
edge $-1 $322 -1.5 $325 1.5 $244 $369 forward 7 unknown #
vertex $-1 $245 $370 #
straight-curve $-1 42.711264381847592 20.495096006659526 -3.7560486804044091 0 -1 0 I I #
point $-1 42.711264381847592 18.462158126321444 -3.7560486804044091 #
coedge $-1 $319 $248 $251 $331 forward $154 $-1 #
straight-curve $-1 0 18.462158126321444 -3.7560486804044091 1 0 0 I I #
coedge $-1 $251 $250 $366 $371 forward $252 $-1 #
edge $-1 $253 -2.032937880338082 $372 2.032937880338082 $251 $373 forward 7 unknown #
point $-1 -42.711264381847592 18.462158126321444 -3.7560486804044091 #
vertex $-1 $321 $374 #
straight-curve $-1 -42.711264381847592 20.495096006659526 -0.75604868040440909 0 -1 0 I I #
coedge $-1 $269 $268 $261 $336 forward $258 $-1 #
edge $-1 $337 56.067799457285076 $340 60.119789502998557 $335 $375 forward 7 unknown #
vertex $-1 $273 $376 #
straight-curve $-1 19.247603818311749 -0.67879153555657545 4.5445182286895616 1 0 0 I I #
edge $-1 $340 -2.2445562489872977 $270 5.3760856758487421 $269 $377 forward 7 unknown #
vertex $-1 $339 $378 #
straight-curve $-1 -19.762817585251049 -0.67879153555657545 58.750553404850628 -0.7313536940579346 0 0.68199836817093118 I I #
point $-1 38.366037140078305 -0.67879153555657545 4.5445182286895616 #
point $-1 42.711264381847599 6.9418503892794643 0.49252818297608059 #
straight-curve $-1 42.711264381847592 0 4.5445182286895625 0 1 0 I I #
vertex $-1 $276 $379 #
point $-1 38.755058722337694 1.4985347286822943 -0.86042421353010856 #
vertex $-1 $280 $380 #
point $-1 38.755058722337694 4.7645241250405981 -0.86042421353010856 #
straight-curve $-1 -42.711264381847592 18.462158126321444 0 0 0 -1 I I #
point $-1 -42.711264381847592 -18.462158126321444 -4.5445182286895625 #
straight-curve $-1 -42.711264381847592 0 -4.5445182286895625 0 1 0 I I #
point $-1 -42.711264381847592 18.462158126321444 -4.5445182286895625 #
coedge $-1 $357 $301 $302 $354 reversed $218 $-1 #
edge $-1 $355 -42.711264381847592 $310 42.711264381847592 $353 $381 forward 7 unknown #
vertex $-1 $359 $382 #
straight-curve $-1 42.711264381847592 -20.495096006659526 -3.7560486804044091 0 -1 0 I I #
coedge $-1 $304 $353 $306 $359 reversed $218 $-1 #
straight-curve $-1 0 -22.528033886997608 -0.75604868040440909 1 0 0 I I #
edge $-1 $307 -1.5 $355 1.5 $306 $383 forward 7 unknown #
point $-1 42.711264381847592 -22.528033886997608 -0.75604868040440909 #
straight-curve $-1 -42.711264381847592 -22.528033886997608 -2.2560486804044091 0 0 -1 I I #
point $-1 -42.711264381847592 -22.528033886997608 -3.7560486804044091 #
point $-1 -42.711264381847592 -22.528033886997608 -0.75604868040440909 #
coedge $-1 $366 $318 $319 $365 reversed $239 $-1 #
edge $-1 $372 -42.711264381847592 $325 42.711264381847592 $364 $384 forward 7 unknown #
coedge $-1 $320 $364 $330 $371 reversed $239 $-1 #
straight-curve $-1 0 22.528033886997608 -0.75604868040440909 -1 0 0 I I #
point $-1 42.711264381847592 22.528033886997608 -0.75604868040440909 #
straight-curve $-1 42.711264381847592 22.528033886997608 -2.2560486804044091 0 0 -1 I I #
point $-1 42.711264381847592 22.528033886997608 -3.7560486804044091 #
edge $-1 $333 -1.5 $372 1.5 $366 $385 forward 7 unknown #
vertex $-1 $365 $386 #
straight-curve $-1 -42.711264381847592 20.495096006659526 -3.7560486804044091 0 1 0 I I #
point $-1 -42.711264381847592 22.528033886997608 -0.75604868040440909 #
straight-curve $-1 42.711264381847592 -0.67879153555657545 60.612317685974638 0 0 -1 I I #
point $-1 42.711264381847592 -0.67879153555657545 4.5445182286895625 #
straight-curve $-1 42.711264381847592 1.5657647134307222 0.49252818297608414 0 1 0 I I #
point $-1 42.711264381847599 -0.67879153555657545 0.49252818297608059 #
point $-1 37.341706660108827 1.4985347286822943 -0.90977953941711198 #
point $-1 37.341706660108827 4.7645241250405981 -0.90977953941711198 #
straight-curve $-1 0 -22.528033886997608 -3.7560486804044091 -1 0 0 I I #
point $-1 42.711264381847592 -22.528033886997608 -3.7560486804044091 #
straight-curve $-1 42.711264381847592 -22.528033886997608 -2.2560486804044091 0 0 -1 I I #
straight-curve $-1 0 22.528033886997608 -3.7560486804044091 1 0 0 I I #
straight-curve $-1 -42.711264381847592 22.528033886997608 -2.2560486804044091 0 0 -1 I I #
point $-1 -42.711264381847592 22.528033886997608 -3.7560486804044091 #
End-of-ACIS-data 