500 0 9 0           
7 Unknown 11 ACIS 5.0 NT 24 Fri Mar 26 02:17:23 1999 
-1 9.9999999999999995e-007 1e-010 
body $-1 $9 $-1 $10 #
body $-1 $11 $-1 $12 #
body $-1 $13 $-1 $14 #
body $-1 $15 $-1 $16 #
body $-1 $17 $-1 $18 #
body $-1 $19 $-1 $20 #
body $-1 $21 $-1 $22 #
body $-1 $23 $-1 $24 #
body $-1 $25 $-1 $26 #
lump $-1 $-1 $27 $0 #
transform $-1 1 0 0 0 1 0 0 0 1 55.455793939024019 24.865662443626899 11.684516461973962 1 rotate no_reflect no_shear #
lump $-1 $-1 $28 $1 #
transform $-1 1 0 0 0 1 0 0 0 1 55.455793939024019 24.865662443626899 11.684516461973962 1 rotate no_reflect no_shear #
lump $-1 $-1 $29 $2 #
transform $-1 1 0 0 0 1 0 0 0 1 55.455793939024019 24.865662443626899 11.684516461973962 1 rotate no_reflect no_shear #
lump $-1 $-1 $30 $3 #
transform $-1 1 0 0 0 1 0 0 0 1 55.455793939024019 24.865662443626899 11.684516461973962 1 rotate no_reflect no_shear #
lump $-1 $-1 $31 $4 #
transform $-1 1 0 0 0 1 0 0 0 1 55.455793939024019 24.865662443626899 11.684516461973962 1 rotate no_reflect no_shear #
lump $-1 $-1 $32 $5 #
transform $-1 1 0 0 0 1 0 0 0 1 55.455793939024019 24.865662443626899 11.684516461973962 1 rotate no_reflect no_shear #
lump $-1 $-1 $33 $6 #
transform $-1 1 0 0 0 1 0 0 0 1 55.455793939024019 24.865662443626899 11.684516461973962 1 rotate no_reflect no_shear #
lump $-1 $-1 $34 $7 #
transform $-1 1 0 0 0 1 0 0 0 1 55.455793939024019 24.865662443626899 11.684516461973962 1 rotate no_reflect no_shear #
lump $-1 $-1 $35 $8 #
transform $-1 1 0 0 0 1 0 0 0 1 55.455793939024019 24.865662443626899 11.684516461973962 1 rotate no_reflect no_shear #
shell $-1 $-1 $-1 $36 $-1 $9 #
shell $-1 $-1 $-1 $37 $-1 $11 #
shell $-1 $-1 $-1 $38 $-1 $13 #
shell $-1 $-1 $-1 $39 $-1 $15 #
shell $-1 $-1 $-1 $40 $-1 $17 #
shell $-1 $-1 $-1 $41 $-1 $19 #
shell $-1 $-1 $-1 $42 $-1 $21 #
shell $-1 $-1 $-1 $43 $-1 $23 #
shell $-1 $-1 $-1 $44 $-1 $25 #
face $-1 $45 $46 $27 $-1 $47 forward single #
face $-1 $48 $49 $28 $-1 $50 reversed single #
face $-1 $51 $52 $29 $-1 $53 forward single #
face $-1 $54 $55 $30 $-1 $56 forward single #
face $-1 $57 $58 $31 $-1 $59 forward single #
face $-1 $60 $61 $32 $-1 $62 reversed single #
face $-1 $63 $64 $33 $-1 $65 forward single #
face $-1 $66 $67 $34 $-1 $68 forward single #
face $-1 $69 $70 $35 $-1 $71 forward single #
face $-1 $72 $73 $27 $-1 $74 reversed single #
loop $-1 $-1 $75 $36 #
plane-surface $-1 0 0 11.684516461973962 0 0 1 1 0 0 forward_v I I I I #
face $-1 $76 $77 $28 $-1 $78 reversed single #
loop $-1 $-1 $79 $37 #
plane-surface $-1 -28.217516439910881 75.945017050449792 112.53683063890449 -1 0 0 0 0.75470958851134928 0.65605901945558964 forward_v I I I I #
face $-1 $80 $81 $29 $-1 $82 forward single #
loop $-1 $83 $84 $38 #
cone-surface $-1 -50.008138439201389 19.913877554737596 6.2261043166361434 0 -0.75470958851134928 -0.65605901945558964 1.5 0 0 1 I I 0 1 1.5 forward I I I I #
face $-1 $85 $86 $30 $-1 $87 forward single #
loop $-1 $88 $89 $39 #
cone-surface $-1 -41.83665518946745 19.913877554737596 6.2261043166361434 0 -0.75470958851134928 -0.65605901945558964 1.5 0 0 1 I I 0 1 1.5 forward I I I I #
face $-1 $90 $91 $31 $-1 $92 forward single #
loop $-1 $93 $94 $40 #
cone-surface $-1 -33.665171939733504 19.913877554737596 6.2261043166361434 0 -0.75470958851134928 -0.65605901945558964 1.5 0 0 1 I I 0 1 1.5 forward I I I I #
face $-1 $95 $96 $32 $-1 $97 reversed single #
loop $-1 $-1 $98 $41 #
plane-surface $-1 -28.217516439910881 -108.57170129220889 75.004122897120951 -1 0 0 0 -0.75470958851134928 0.65605901945558964 forward_v I I I I #
face $-1 $99 $100 $33 $-1 $101 forward single #
loop $-1 $102 $103 $42 #
cone-surface $-1 -50.008138439201389 -19.913877554737599 6.2261043166361327 0 0.75470958851134928 -0.65605901945558964 1.5 0 0 1 I I 0 1 1.5 forward I I I I #
face $-1 $104 $105 $34 $-1 $106 forward single #
loop $-1 $107 $108 $43 #
cone-surface $-1 -41.83665518946745 -19.913877554737599 6.2261043166361327 0 0.75470958851134928 -0.65605901945558964 1.5 0 0 1 I I 0 1 1.5 forward I I I I #
face $-1 $109 $110 $35 $-1 $111 forward single #
loop $-1 $112 $113 $44 #
cone-surface $-1 -33.665171939733504 -19.913877554737599 6.2261043166361327 0 0.75470958851134928 -0.65605901945558964 1.5 0 0 1 I I 0 1 1.5 forward I I I I #
face $-1 $114 $115 $27 $-1 $116 reversed single #
loop $-1 $-1 $117 $45 #
plane-surface $-1 0 0 -11.684516461973962 0 0 1 1 0 0 forward_v I I I I #
coedge $-1 $118 $119 $120 $121 forward $46 $-1 #
face $-1 $122 $123 $28 $-1 $124 reversed single #
loop $-1 $-1 $125 $48 #
plane-surface $-1 -41.83665518946745 -7.7610217981322052 39.772283049369832 0 0.75470958851134928 0.65605901945558964 1 0 0 forward_v I I I I #
coedge $-1 $126 $127 $128 $129 reversed $49 $-1 #
face $-1 $-1 $130 $29 $-1 $131 forward single #
loop $-1 $132 $133 $51 #
cone-surface $-1 -50.008138439201389 18.501241412198514 4.9981184839004573 0 -0.75470958851134928 -0.65605901945558964 0.75 0 0 1 I I -0.70710678118654757 0.70710678118654757 0.75 forward I I I I #
loop $-1 $-1 $134 $38 #
coedge $-1 $84 $84 $135 $136 reversed $52 $-1 #
face $-1 $-1 $137 $30 $-1 $138 forward single #
loop $-1 $139 $140 $54 #
cone-surface $-1 -41.83665518946745 18.501241412198514 4.9981184839004573 0 -0.75470958851134928 -0.65605901945558964 0.75 0 0 1 I I -0.70710678118654757 0.70710678118654757 0.75 forward I I I I #
loop $-1 $-1 $141 $39 #
coedge $-1 $89 $89 $142 $143 reversed $55 $-1 #
face $-1 $-1 $144 $31 $-1 $145 forward single #
loop $-1 $146 $147 $57 #
cone-surface $-1 -33.665171939733504 18.501241412198514 4.9981184839004573 0 -0.75470958851134928 -0.65605901945558964 0.75 0 0 1 I I -0.70710678118654757 0.70710678118654757 0.75 forward I I I I #
loop $-1 $-1 $148 $40 #
coedge $-1 $94 $94 $149 $150 reversed $58 $-1 #
face $-1 $151 $152 $32 $-1 $153 reversed single #
loop $-1 $-1 $154 $60 #
plane-surface $-1 -41.83665518946745 -24.865662443626888 2.2395753075862928 0 -0.75470958851134928 0.65605901945558964 1 0 0 forward_v I I I I #
coedge $-1 $155 $156 $157 $158 reversed $61 $-1 #
face $-1 $-1 $159 $33 $-1 $160 forward single #
loop $-1 $161 $162 $63 #
cone-surface $-1 -50.008138439201389 -18.501241412198517 4.9981184839004467 0 0.75470958851134928 -0.65605901945558964 0.75 0 0 1 I I -0.70710678118654757 0.70710678118654757 0.75 forward I I I I #
loop $-1 $-1 $163 $42 #
coedge $-1 $103 $103 $164 $165 reversed $64 $-1 #
face $-1 $-1 $166 $34 $-1 $167 forward single #
loop $-1 $168 $169 $66 #
cone-surface $-1 -41.83665518946745 -18.501241412198517 4.9981184839004467 0 0.75470958851134928 -0.65605901945558964 0.75 0 0 1 I I -0.70710678118654757 0.70710678118654757 0.75 forward I I I I #
loop $-1 $-1 $170 $43 #
coedge $-1 $108 $108 $171 $172 reversed $67 $-1 #
face $-1 $-1 $173 $35 $-1 $174 forward single #
loop $-1 $175 $176 $69 #
cone-surface $-1 -33.665171939733504 -18.501241412198517 4.9981184839004467 0 0.75470958851134928 -0.65605901945558964 0.75 0 0 1 I I -0.70710678118654757 0.70710678118654757 0.75 forward I I I I #
loop $-1 $-1 $177 $44 #
coedge $-1 $113 $113 $178 $179 reversed $70 $-1 #
face $-1 $180 $181 $27 $-1 $182 reversed single #
loop $-1 $-1 $183 $72 #
plane-surface $-1 0 -24.865662443626899 0 0 1 0 0 0 1 forward_v I I I I #
coedge $-1 $184 $185 $186 $187 forward $73 $-1 #
coedge $-1 $188 $75 $189 $190 forward $46 $-1 #
coedge $-1 $75 $188 $191 $192 forward $46 $-1 #
coedge $-1 $193 $194 $75 $121 reversed $195 $-1 #
edge $-1 $196 -24.865662443626899 $197 24.865662443626899 $120 $198 forward 7 unknown #
face $-1 $199 $200 $28 $-1 $201 forward single #
loop $-1 $-1 $128 $76 #
plane-surface $-1 0 24.865662443626899 0 0 -1 0 0 0 -1 forward_v I I I I #
coedge $-1 $202 $203 $204 $205 reversed $77 $-1 #
coedge $-1 $127 $79 $206 $207 reversed $49 $-1 #
coedge $-1 $79 $126 $202 $208 reversed $49 $-1 #
coedge $-1 $204 $209 $79 $129 forward $123 $-1 #
edge $-1 $210 44.583898857478282 $211 54.028840011865974 $128 $212 forward 7 unknown #
loop $-1 $-1 $135 $80 #
plane-surface $-1 -41.83665518946745 -7.7610217981322052 39.772283049369832 0 0.75470958851134928 0.65605901945558964 1 0 0 forward_v I I I I #
loop $-1 $-1 $213 $51 #
coedge $-1 $133 $133 $134 $214 reversed $81 $-1 #
coedge $-1 $134 $134 $133 $214 forward $83 $-1 #
coedge $-1 $135 $135 $84 $136 forward $130 $-1 #
edge $-1 $215 4.0602760303081543e-016 $215 6.2831853071796004 $135 $216 forward 7 unknown #
loop $-1 $-1 $142 $85 #
plane-surface $-1 -41.83665518946745 -7.7610217981322052 39.772283049369832 0 0.75470958851134928 0.65605901945558964 1 0 0 forward_v I I I I #
loop $-1 $-1 $217 $54 #
coedge $-1 $140 $140 $141 $218 reversed $86 $-1 #
coedge $-1 $141 $141 $140 $218 forward $88 $-1 #
coedge $-1 $142 $142 $89 $143 forward $137 $-1 #
edge $-1 $219 4.0602760303081543e-016 $219 6.2831853071796004 $142 $220 forward 7 unknown #
loop $-1 $-1 $149 $90 #
plane-surface $-1 -41.83665518946745 -7.7610217981322052 39.772283049369832 0 0.75470958851134928 0.65605901945558964 1 0 0 forward_v I I I I #
loop $-1 $-1 $221 $57 #
coedge $-1 $147 $147 $148 $222 reversed $91 $-1 #
coedge $-1 $148 $148 $147 $222 forward $93 $-1 #
coedge $-1 $149 $149 $94 $150 forward $144 $-1 #
edge $-1 $223 4.0602760303081543e-016 $223 6.2831853071796004 $149 $224 forward 7 unknown #
face $-1 $225 $226 $32 $-1 $227 forward single #
loop $-1 $-1 $228 $95 #
plane-surface $-1 -55.455793939024019 0 0 1 0 0 0 0 -1 forward_v I I I I #
coedge $-1 $229 $230 $231 $232 reversed $96 $-1 #
coedge $-1 $156 $98 $233 $234 reversed $61 $-1 #
coedge $-1 $98 $155 $229 $235 reversed $61 $-1 #
coedge $-1 $231 $236 $98 $158 forward $226 $-1 #
edge $-1 $237 29.420188202477544 $238 37.630550077945017 $157 $239 forward 7 unknown #
loop $-1 $-1 $164 $99 #
plane-surface $-1 -41.83665518946745 -24.865662443626888 2.2395753075862928 0 -0.75470958851134928 0.65605901945558964 1 0 0 forward_v I I I I #
loop $-1 $-1 $240 $63 #
coedge $-1 $162 $162 $163 $241 reversed $100 $-1 #
coedge $-1 $163 $163 $162 $241 forward $102 $-1 #
coedge $-1 $164 $164 $103 $165 forward $159 $-1 #
edge $-1 $242 -4.264527247342554e-016 $242 6.2831853071796004 $164 $243 forward 7 unknown #
loop $-1 $-1 $171 $104 #
plane-surface $-1 -41.83665518946745 -24.865662443626888 2.2395753075862928 0 -0.75470958851134928 0.65605901945558964 1 0 0 forward_v I I I I #
loop $-1 $-1 $244 $66 #
coedge $-1 $169 $169 $170 $245 reversed $105 $-1 #
coedge $-1 $170 $170 $169 $245 forward $107 $-1 #
coedge $-1 $171 $171 $108 $172 forward $166 $-1 #
edge $-1 $246 -4.264527247342554e-016 $246 6.2831853071796004 $171 $247 forward 7 unknown #
loop $-1 $-1 $178 $109 #
plane-surface $-1 -41.83665518946745 -24.865662443626888 2.2395753075862928 0 -0.75470958851134928 0.65605901945558964 1 0 0 forward_v I I I I #
loop $-1 $-1 $248 $69 #
coedge $-1 $176 $176 $177 $249 reversed $110 $-1 #
coedge $-1 $177 $177 $176 $249 forward $112 $-1 #
coedge $-1 $178 $178 $113 $179 forward $173 $-1 #
edge $-1 $250 -4.264527247342554e-016 $250 6.2831853071796004 $178 $251 forward 7 unknown #
face $-1 $252 $253 $27 $-1 $254 reversed single #
loop $-1 $-1 $255 $114 #
plane-surface $-1 -55.455793939024019 0 0 1 0 0 0 0 -1 forward_v I I I I #
coedge $-1 $256 $191 $257 $258 forward $115 $-1 #
coedge $-1 $259 $117 $256 $260 forward $73 $-1 #
coedge $-1 $117 $259 $261 $262 forward $73 $-1 #
coedge $-1 $194 $193 $117 $187 reversed $195 $-1 #
edge $-1 $263 -24.865662443626899 $264 24.865662443626899 $186 $265 forward 7 unknown #
coedge $-1 $119 $118 $266 $267 forward $46 $-1 #
coedge $-1 $268 $269 $118 $190 reversed $253 $-1 #
edge $-1 $197 -55.455793939024019 $270 55.455793939024019 $189 $271 forward 7 unknown #
coedge $-1 $183 $272 $119 $192 reversed $115 $-1 #
edge $-1 $273 -55.455793939024019 $196 55.455793939024019 $191 $274 forward 7 unknown #
coedge $-1 $186 $120 $272 $275 forward $195 $-1 #
coedge $-1 $120 $186 $268 $276 reversed $195 $-1 #
loop $-1 $-1 $193 $252 #
vertex $-1 $121 $277 #
vertex $-1 $121 $278 #
straight-curve $-1 55.455793939024019 0 11.684516461973962 0 1 0 I I #
face $-1 $-1 $279 $28 $-1 $280 reversed single #
loop $-1 $-1 $206 $122 #
plane-surface $-1 0 0 11.684516461973962 0 0 1 1 0 0 forward_v I I I I #
coedge $-1 $281 $125 $127 $208 forward $77 $-1 #
coedge $-1 $125 $281 $282 $283 reversed $77 $-1 #
coedge $-1 $284 $128 $125 $205 forward $123 $-1 #
edge $-1 $211 7.2991888451771558 $285 34.537466344290294 $204 $286 forward 7 unknown #
coedge $-1 $287 $288 $126 $207 forward $200 $-1 #
edge $-1 $289 -21.317207957065474 $210 -13.106846081597997 $206 $290 forward 7 unknown #
edge $-1 $211 -49.731324887253841 $289 -37.216655273717244 $127 $291 forward 7 unknown #
coedge $-1 $128 $284 $287 $292 reversed $123 $-1 #
vertex $-1 $292 $293 #
vertex $-1 $129 $294 #
straight-curve $-1 -28.217516439910881 24.865662443626899 56.268415319452245 0 0 -1 I I #
coedge $-1 $213 $213 $-1 $295 reversed $132 $-1 #
edge $-1 $296 0 $296 6.2831853071796004 $133 $297 forward 7 unknown #
vertex $-1 $136 $298 #
ellipse-curve $-1 -50.008138439201389 20.76048150589315 6.9620458847801254 0 0.75470958851134928 0.65605901945558964 1.5 0 0 1 I I #
coedge $-1 $217 $217 $-1 $299 reversed $139 $-1 #
edge $-1 $300 0 $300 6.2831853071796004 $140 $301 forward 7 unknown #
vertex $-1 $143 $302 #
ellipse-curve $-1 -41.83665518946745 20.76048150589315 6.9620458847801254 0 0.75470958851134928 0.65605901945558964 1.5 0 0 1 I I #
coedge $-1 $221 $221 $-1 $303 reversed $146 $-1 #
edge $-1 $304 0 $304 6.2831853071796004 $147 $305 forward 7 unknown #
vertex $-1 $150 $306 #
ellipse-curve $-1 -33.665171939733504 20.76048150589315 6.9620458847801254 0 0.75470958851134928 0.65605901945558964 1.5 0 0 1 I I #
face $-1 $-1 $307 $32 $-1 $308 reversed single #
loop $-1 $-1 $231 $151 #
plane-surface $-1 0 0 11.684516461973962 0 0 1 1 0 0 forward_v I I I I #
coedge $-1 $309 $310 $230 $311 forward $152 $-1 #
coedge $-1 $312 $154 $156 $235 forward $96 $-1 #
coedge $-1 $154 $312 $228 $311 reversed $96 $-1 #
coedge $-1 $313 $157 $154 $232 forward $226 $-1 #
edge $-1 $238 7.2991888451771558 $314 34.537466344290294 $231 $315 forward 7 unknown #
coedge $-1 $316 $317 $155 $234 forward $307 $-1 #
edge $-1 $318 -35.262486140974197 $237 -25.817544986586512 $233 $319 forward 7 unknown #
edge $-1 $238 -12.51466961353657 $318 1.6376804332752545e-014 $156 $320 forward 7 unknown #
coedge $-1 $157 $313 $316 $321 forward $226 $-1 #
vertex $-1 $234 $322 #
vertex $-1 $158 $323 #
straight-curve $-1 -28.217516439910881 -54.285850646104443 11.684516461973963 0 1 0 I I #
coedge $-1 $240 $240 $-1 $324 reversed $161 $-1 #
edge $-1 $325 0 $325 6.2831853071796004 $162 $326 forward 7 unknown #
vertex $-1 $165 $327 #
ellipse-curve $-1 -50.008138439201389 -20.760481505893161 6.962045884780121 0 -0.75470958851134928 0.65605901945558964 1.5 0 0 1 I I #
coedge $-1 $244 $244 $-1 $328 reversed $168 $-1 #
edge $-1 $329 0 $329 6.2831853071796004 $169 $330 forward 7 unknown #
vertex $-1 $172 $331 #
ellipse-curve $-1 -41.83665518946745 -20.760481505893161 6.962045884780121 0 -0.75470958851134928 0.65605901945558964 1.5 0 0 1 I I #
coedge $-1 $248 $248 $-1 $332 reversed $175 $-1 #
edge $-1 $333 0 $333 6.2831853071796004 $176 $334 forward 7 unknown #
vertex $-1 $179 $335 #
ellipse-curve $-1 -33.665171939733504 -20.760481505893161 6.962045884780121 0 -0.75470958851134928 0.65605901945558964 1.5 0 0 1 I I #
face $-1 $-1 $195 $27 $-1 $336 reversed single #
loop $-1 $-1 $268 $180 #
plane-surface $-1 0 24.865662443626899 0 0 -1 0 0 0 -1 forward_v I I I I #
coedge $-1 $337 $266 $269 $338 forward $181 $-1 #
coedge $-1 $272 $183 $184 $260 reversed $115 $-1 #
coedge $-1 $266 $337 $183 $258 reversed $181 $-1 #
edge $-1 $273 -11.684516461973962 $339 11.684516461973962 $257 $340 forward 7 unknown #
coedge $-1 $185 $184 $337 $341 forward $73 $-1 #
edge $-1 $264 -55.455793939024019 $339 55.455793939024019 $256 $342 forward 7 unknown #
coedge $-1 $269 $268 $185 $262 reversed $253 $-1 #
edge $-1 $343 -55.455793939024019 $263 55.455793939024019 $261 $344 forward 7 unknown #
vertex $-1 $187 $345 #
vertex $-1 $275 $346 #
straight-curve $-1 55.455793939024019 0 -11.684516461973962 0 -1 0 I I #
coedge $-1 $255 $257 $188 $267 reversed $181 $-1 #
edge $-1 $270 -24.865662443626899 $273 24.865662443626899 $266 $347 forward 7 unknown #
coedge $-1 $261 $189 $194 $276 forward $253 $-1 #
coedge $-1 $189 $261 $255 $338 reversed $253 $-1 #
vertex $-1 $190 $348 #
straight-curve $-1 0 24.865662443626899 11.684516461973962 -1 0 0 I I #
coedge $-1 $191 $256 $193 $275 reversed $115 $-1 #
vertex $-1 $267 $349 #
straight-curve $-1 0 -24.865662443626899 11.684516461973962 1 0 0 I I #
edge $-1 $196 -11.684516461973962 $264 11.684516461973962 $193 $350 forward 7 unknown #
edge $-1 $197 -11.684516461973962 $263 11.684516461973962 $194 $351 forward 7 unknown #
point $-1 55.455793939024019 -24.865662443626899 11.684516461973962 #
point $-1 55.455793939024019 24.865662443626899 11.684516461973962 #
loop $-1 $-1 $282 $199 #
plane-surface $-1 -55.455793939024019 0 0 1 0 0 0 0 -1 forward_v I I I I #
coedge $-1 $203 $202 $288 $352 reversed $77 $-1 #
coedge $-1 $353 $354 $203 $283 forward $279 $-1 #
edge $-1 $285 -32.177219024652381 $355 -19.662549411115791 $282 $356 forward 7 unknown #
coedge $-1 $209 $204 $354 $357 reversed $123 $-1 #
vertex $-1 $205 $358 #
straight-curve $-1 -20.918327594733725 24.865662443626903 2.2395753075862714 -1 0 0 I I #
coedge $-1 $359 $206 $209 $292 forward $200 $-1 #
coedge $-1 $206 $359 $281 $352 forward $200 $-1 #
vertex $-1 $207 $360 #
straight-curve $-1 -28.217516439910881 37.972508525224896 11.684516461973963 0 1 0 I I #
straight-curve $-1 -28.217516439910881 -7.7610217981322052 39.772283049369832 0 -0.65605901945558964 0.75470958851134928 I I #
edge $-1 $210 28.217516439910881 $361 55.455793939024019 $209 $362 forward 7 unknown #
point $-1 -28.217516439910881 24.865662443626899 11.684516461973962 #
point $-1 -28.217516439910881 24.865662443626903 2.2395753075862714 #
edge $-1 $363 1 $363 0 $213 $-1 forward 7 unknown #
vertex $-1 $214 $364 #
ellipse-curve $-1 -50.008138439201389 19.067273603582027 5.4901627484921498 0 0.75470958851134928 0.65605901945558964 1.5 0 0 1 I I #
point $-1 -48.508138439201389 20.760481505893164 6.962045884780137 #
edge $-1 $365 1 $365 0 $217 $-1 forward 7 unknown #
vertex $-1 $218 $366 #
ellipse-curve $-1 -41.83665518946745 19.067273603582027 5.4901627484921498 0 0.75470958851134928 0.65605901945558964 1.5 0 0 1 I I #
point $-1 -40.33665518946745 20.760481505893164 6.962045884780137 #
edge $-1 $367 1 $367 0 $221 $-1 forward 7 unknown #
vertex $-1 $222 $368 #
ellipse-curve $-1 -33.665171939733504 19.067273603582027 5.4901627484921498 0 0.75470958851134928 0.65605901945558964 1.5 0 0 1 I I #
point $-1 -32.165171939733504 20.760481505893164 6.962045884780137 #
loop $-1 $-1 $233 $225 #
plane-surface $-1 0 -24.865662443626899 0 0 1 0 0 0 1 forward_v I I I I #
coedge $-1 $310 $228 $369 $370 reversed $152 $-1 #
coedge $-1 $228 $309 $313 $371 reversed $152 $-1 #
edge $-1 $314 -5.2031130325111139 $372 7.3115565810254699 $228 $373 forward 7 unknown #
coedge $-1 $230 $229 $317 $374 reversed $96 $-1 #
coedge $-1 $236 $231 $310 $371 forward $226 $-1 #
vertex $-1 $371 $375 #
straight-curve $-1 -20.918327594733725 -16.655300568159422 11.684516461973962 -1 0 0 I I #
coedge $-1 $369 $233 $236 $321 reversed $307 $-1 #
coedge $-1 $233 $369 $312 $374 forward $307 $-1 #
vertex $-1 $234 $376 #
straight-curve $-1 -28.217516439910881 -24.865662443626903 37.502061448560475 0 0 1 I I #
straight-curve $-1 -28.217516439910881 -24.865662443626888 2.2395753075862928 0 -0.65605901945558964 -0.75470958851134928 I I #
edge $-1 $377 -55.455793939024019 $237 -28.217516439910881 $316 $378 forward 7 unknown #
point $-1 -28.217516439910881 -24.865662443626899 11.684516461973962 #
point $-1 -28.217516439910881 -16.655300568159426 11.684516461973962 #
edge $-1 $379 1 $379 0 $240 $-1 forward 7 unknown #
vertex $-1 $241 $380 #
ellipse-curve $-1 -50.008138439201389 -19.067273603582031 5.4901627484921391 0 -0.75470958851134928 0.65605901945558964 1.5 0 0 1 I I #
point $-1 -48.508138439201389 -20.760481505893168 6.9620458847801263 #
edge $-1 $381 1 $381 0 $244 $-1 forward 7 unknown #
vertex $-1 $245 $382 #
ellipse-curve $-1 -41.83665518946745 -19.067273603582031 5.4901627484921391 0 -0.75470958851134928 0.65605901945558964 1.5 0 0 1 I I #
point $-1 -40.33665518946745 -20.760481505893168 6.9620458847801263 #
edge $-1 $383 1 $383 0 $248 $-1 forward 7 unknown #
vertex $-1 $249 $384 #
ellipse-curve $-1 -33.665171939733504 -19.067273603582031 5.4901627484921391 0 -0.75470958851134928 0.65605901945558964 1.5 0 0 1 I I #
point $-1 -32.165171939733504 -20.760481505893168 6.9620458847801263 #
plane-surface $-1 55.455793939024019 0 0 -1 0 0 0 0 1 forward_v I I I I #
coedge $-1 $257 $255 $259 $341 reversed $181 $-1 #
edge $-1 $270 -11.684516461973962 $343 11.684516461973962 $269 $385 forward 7 unknown #
vertex $-1 $341 $386 #
straight-curve $-1 -55.455793939024019 -24.865662443626899 0 0 0 -1 I I #
edge $-1 $339 -24.865662443626899 $343 24.865662443626899 $337 $387 forward 7 unknown #
straight-curve $-1 0 -24.865662443626899 -11.684516461973962 -1 0 0 I I #
vertex $-1 $262 $388 #
straight-curve $-1 0 24.865662443626899 -11.684516461973962 1 0 0 I I #
point $-1 55.455793939024019 24.865662443626899 -11.684516461973962 #
point $-1 55.455793939024019 -24.865662443626899 -11.684516461973962 #
straight-curve $-1 -55.455793939024019 0 11.684516461973962 0 -1 0 I I #
point $-1 -55.455793939024019 24.865662443626899 11.684516461973962 #
point $-1 -55.455793939024019 -24.865662443626899 11.684516461973962 #
straight-curve $-1 55.455793939024019 -24.865662443626899 0 0 0 -1 I I #
straight-curve $-1 55.455793939024019 24.865662443626899 0 0 0 -1 I I #
edge $-1 $355 -34.537466344290294 $289 -7.2991888451771558 $288 $389 forward 7 unknown #
coedge $-1 $354 $282 $359 $390 reversed $279 $-1 #
coedge $-1 $282 $353 $284 $357 forward $279 $-1 #
vertex $-1 $283 $391 #
straight-curve $-1 -55.455793939024019 3.7555076815057173 26.52403103712123 0 -0.65605901945558975 0.75470958851134939 I I #
edge $-1 $361 -11.684516461973962 $285 -2.2395753075862714 $284 $392 forward 7 unknown #
point $-1 -55.455793939024019 24.865662443626899 2.2395753075862714 #
coedge $-1 $288 $287 $353 $390 forward $200 $-1 #
point $-1 -28.217516439910881 16.655300568159422 11.68451646197396 #
vertex $-1 $292 $393 #
straight-curve $-1 0 24.865662443626899 11.684516461973962 -1 0 0 I I #
vertex $-1 $295 $394 #
point $-1 -48.508138439201389 19.067273603582027 5.4901627484921498 #
vertex $-1 $299 $395 #
point $-1 -40.33665518946745 19.067273603582027 5.4901627484921498 #
vertex $-1 $303 $396 #
point $-1 -32.165171939733504 19.067273603582027 5.4901627484921498 #
coedge $-1 $317 $316 $309 $370 forward $307 $-1 #
edge $-1 $377 -11.684516461973962 $372 -2.2395753075862803 $309 $397 forward 7 unknown #
edge $-1 $314 16.655300568159426 $377 24.865662443626899 $310 $398 forward 7 unknown #
vertex $-1 $311 $399 #
straight-curve $-1 -55.455793939024019 -20.068849802385266 7.7576771662294606 0 -0.65605901945558975 -0.75470958851134939 I I #
edge $-1 $372 -34.537466344290294 $318 -7.2991888451771558 $317 $400 forward 7 unknown #
point $-1 -55.455793939024019 -16.655300568159426 11.684516461973962 #
point $-1 -28.217516439910881 -24.865662443626899 2.2395753075862803 #
vertex $-1 $371 $401 #
straight-curve $-1 0 -24.865662443626899 11.684516461973962 1 0 0 I I #
vertex $-1 $324 $402 #
point $-1 -48.508138439201389 -19.067273603582031 5.4901627484921391 #
vertex $-1 $328 $403 #
point $-1 -40.33665518946745 -19.067273603582031 5.4901627484921391 #
vertex $-1 $332 $404 #
point $-1 -32.165171939733504 -19.067273603582031 5.4901627484921391 #
straight-curve $-1 -55.455793939024019 24.865662443626899 0 0 0 -1 I I #
point $-1 -55.455793939024019 -24.865662443626899 -11.684516461973962 #
straight-curve $-1 -55.455793939024019 0 -11.684516461973962 0 1 0 I I #
point $-1 -55.455793939024019 24.865662443626899 -11.684516461973962 #
straight-curve $-1 -20.918327594733725 16.655300568159422 11.684516461973963 1 0 0 I I #
edge $-1 $361 -24.865662443626899 $355 -16.655300568159422 $353 $405 forward 7 unknown #
point $-1 -55.455793939024019 16.655300568159422 11.68451646197396 #
straight-curve $-1 -55.455793939024019 24.865662443626899 0 0 0 -1 I I #
point $-1 -55.455793939024019 24.865662443626899 11.684516461973962 #
point $-1 -50.008138439201389 17.935209220815 4.5060742193087648 #
point $-1 -41.83665518946745 17.935209220815 4.5060742193087648 #
point $-1 -33.665171939733504 17.935209220815 4.5060742193087648 #
straight-curve $-1 -55.455793939024019 -24.865662443626899 0 0 0 -1 I I #
straight-curve $-1 -55.455793939024019 0 11.684516461973962 0 -1 0 I I #
point $-1 -55.455793939024019 -24.865662443626899 2.2395753075862803 #
straight-curve $-1 -20.918327594733725 -24.865662443626899 2.239575307586283 1 0 0 I I #
point $-1 -55.455793939024019 -24.865662443626899 11.684516461973962 #
point $-1 -50.008138439201389 -17.935209220815004 4.5060742193087542 #
point $-1 -41.83665518946745 -17.935209220815004 4.5060742193087542 #
point $-1 -33.665171939733504 -17.935209220815004 4.5060742193087542 #
straight-curve $-1 -55.455793939024019 0 11.684516461973962 0 -1 0 I I #
End-of-ACIS-data 