500 0 12 0           
7 Unknown 11 ACIS 5.0 NT 24 Fri Mar 26 18:31:00 1999 
-1 9.9999999999999995e-007 1e-010 
body $-1 $12 $-1 $13 #
body $-1 $14 $-1 $15 #
body $-1 $16 $-1 $17 #
body $-1 $18 $-1 $19 #
body $-1 $20 $-1 $21 #
body $-1 $22 $-1 $23 #
body $-1 $24 $-1 $25 #
body $-1 $26 $-1 $27 #
body $-1 $28 $-1 $29 #
body $-1 $30 $-1 $31 #
body $-1 $32 $-1 $33 #
body $-1 $34 $-1 $35 #
lump $-1 $-1 $36 $0 #
transform $-1 1 0 0 0 1 0 0 0 1 48.219244972075565 26.127893749174522 9.7809559341868173 1 rotate no_reflect no_shear #
lump $-1 $-1 $37 $1 #
transform $-1 1 0 0 0 1 0 0 0 1 48.219244972075565 26.127893749174522 9.7809559341868173 1 rotate no_reflect no_shear #
lump $-1 $-1 $38 $2 #
transform $-1 1 0 0 0 1 0 0 0 1 48.219244972075565 26.127893749174522 9.7809559341868173 1 rotate no_reflect no_shear #
lump $-1 $-1 $39 $3 #
transform $-1 1 0 0 0 1 0 0 0 1 48.219244972075565 26.127893749174522 9.7809559341868173 1 rotate no_reflect no_shear #
lump $-1 $-1 $40 $4 #
transform $-1 1 0 0 0 1 0 0 0 1 48.219244972075565 26.127893749174522 9.7809559341868173 1 rotate no_reflect no_shear #
lump $-1 $-1 $41 $5 #
transform $-1 1 0 0 0 1 0 0 0 1 48.219244972075565 26.127893749174522 9.7809559341868173 1 rotate no_reflect no_shear #
lump $-1 $-1 $42 $6 #
transform $-1 1 0 0 0 1 0 0 0 1 48.219244972075565 26.127893749174522 9.7809559341868173 1 rotate no_reflect no_shear #
lump $-1 $-1 $43 $7 #
transform $-1 1 0 0 0 1 0 0 0 1 48.219244972075565 26.127893749174522 9.7809559341868173 1 rotate no_reflect no_shear #
lump $-1 $-1 $44 $8 #
transform $-1 1 0 0 0 1 0 0 0 1 48.219244972075565 26.127893749174522 9.7809559341868173 1 rotate no_reflect no_shear #
lump $-1 $-1 $45 $9 #
transform $-1 1 0 0 0 1 0 0 0 1 48.219244972075565 26.127893749174522 9.7809559341868173 1 rotate no_reflect no_shear #
lump $-1 $-1 $46 $10 #
transform $-1 1 0 0 0 1 0 0 0 1 48.219244972075565 26.127893749174522 9.7809559341868173 1 rotate no_reflect no_shear #
lump $-1 $-1 $47 $11 #
transform $-1 1 0 0 0 1 0 0 0 1 48.219244972075565 26.127893749174522 9.7809559341868173 1 rotate no_reflect no_shear #
shell $-1 $-1 $-1 $48 $-1 $12 #
shell $-1 $-1 $-1 $49 $-1 $14 #
shell $-1 $-1 $-1 $50 $-1 $16 #
shell $-1 $-1 $-1 $51 $-1 $18 #
shell $-1 $-1 $-1 $52 $-1 $20 #
shell $-1 $-1 $-1 $53 $-1 $22 #
shell $-1 $-1 $-1 $54 $-1 $24 #
shell $-1 $-1 $-1 $55 $-1 $26 #
shell $-1 $-1 $-1 $56 $-1 $28 #
shell $-1 $-1 $-1 $57 $-1 $30 #
shell $-1 $-1 $-1 $58 $-1 $32 #
shell $-1 $-1 $-1 $59 $-1 $34 #
face $-1 $60 $61 $36 $-1 $62 reversed single #
face $-1 $63 $64 $37 $-1 $65 forward single #
face $-1 $66 $67 $38 $-1 $68 forward single #
face $-1 $69 $70 $39 $-1 $71 reversed single #
face $-1 $72 $73 $40 $-1 $74 forward single #
face $-1 $75 $76 $41 $-1 $77 reversed single #
face $-1 $78 $79 $42 $-1 $80 forward single #
face $-1 $81 $82 $43 $-1 $83 reversed single #
face $-1 $84 $85 $44 $-1 $86 forward single #
face $-1 $87 $88 $45 $-1 $89 reversed single #
face $-1 $90 $91 $46 $-1 $92 forward single #
face $-1 $93 $94 $47 $-1 $95 forward single #
face $-1 $96 $97 $36 $-1 $98 forward single #
loop $-1 $-1 $99 $48 #
plane-surface $-1 0 -26.127893749174522 0 0 1 0 0 0 1 forward_v I I I I #
face $-1 $100 $101 $37 $-1 $102 reversed single #
loop $-1 $-1 $103 $49 #
plane-surface $-1 0 -26.127893749174522 0 0 1 0 0 0 1 forward_v I I I I #
face $-1 $104 $105 $38 $-1 $106 reversed single #
loop $-1 $-1 $107 $50 #
plane-surface $-1 0 26.127893749174522 0 0 -1 0 0 0 -1 forward_v I I I I #
face $-1 $108 $109 $39 $-1 $110 reversed single #
loop $-1 $-1 $111 $51 #
plane-surface $-1 -113.99013774285538 -11.790925180275389 76.228453412245202 0 1 0 -0.68199836817093118 0 0.7313536940579346 forward_v I I I I #
face $-1 $112 $113 $40 $-1 $114 forward single #
loop $-1 $115 $116 $52 #
cone-surface $-1 -45.688925549688413 -8.7777357891242325 7.3737048911750946 0.68199836817093118 0 -0.7313536940579346 0.3656768470289673 0 0.34099918408546559 1 I I 0 1 0.5 forward I I I I #
face $-1 $117 $118 $41 $-1 $119 reversed single #
loop $-1 $-1 $120 $53 #
plane-surface $-1 -113.99013774285538 -1.523074681452977 76.228453412245202 0 1 0 -0.68199836817093118 0 0.7313536940579346 forward_v I I I I #
face $-1 $121 $122 $42 $-1 $123 forward single #
loop $-1 $124 $125 $54 #
cone-surface $-1 -45.688925549688413 1.4901147096981795 7.3737048911750946 0.68199836817093118 0 -0.7313536940579346 0.3656768470289673 0 0.34099918408546559 1 I I 0 1 0.5 forward I I I I #
face $-1 $126 $127 $43 $-1 $128 reversed single #
loop $-1 $-1 $129 $55 #
plane-surface $-1 -113.99013774285538 8.744775817369435 76.228453412245202 0 1 0 -0.68199836817093118 0 0.7313536940579346 forward_v I I I I #
face $-1 $130 $131 $44 $-1 $132 forward single #
loop $-1 $133 $134 $56 #
cone-surface $-1 -45.688925549688413 11.757965208520591 7.3737048911750946 0.68199836817093118 0 -0.7313536940579346 0.3656768470289673 0 0.34099918408546559 1 I I 0 1 0.5 forward I I I I #
face $-1 $135 $136 $45 $-1 $137 reversed single #
loop $-1 $-1 $138 $57 #
plane-surface $-1 33.963171550787685 12.900512366940545 135.92824859481436 0 -1 0 -0.62932039886446345 0 -0.77714595512881146 forward_v I I I I #
face $-1 $139 $140 $46 $-1 $141 forward single #
loop $-1 $142 $143 $58 #
cone-surface $-1 41.207516282980251 7.2659850226674045 3.6132314779504471 -0.62932039886446345 0 -0.77714595512881146 0.77714595512881146 0 -0.62932039886446345 1 I I 0 1 1 forward I I I I #
face $-1 $144 $145 $47 $-1 $146 forward single #
loop $-1 $147 $148 $59 #
cone-surface $-1 41.207516282980251 10.646701429231282 3.6132314779504471 -0.62932039886446345 0 -0.77714595512881146 0.77714595512881146 0 -0.62932039886446345 1 I I 0 1 1 forward I I I I #
face $-1 $149 $150 $36 $-1 $151 reversed single #
loop $-1 $-1 $152 $60 #
plane-surface $-1 0 0 9.7809559341868173 0 0 1 1 0 0 forward_v I I I I #
coedge $-1 $153 $154 $155 $156 reversed $61 $-1 #
face $-1 $157 $158 $37 $-1 $159 reversed single #
loop $-1 $-1 $160 $63 #
plane-surface $-1 0 0 -9.7809559341868173 0 0 1 1 0 0 forward_v I I I I #
coedge $-1 $161 $162 $163 $164 forward $64 $-1 #
face $-1 $165 $166 $38 $-1 $167 forward single #
loop $-1 $-1 $168 $66 #
plane-surface $-1 48.219244972075565 0 0 -1 0 0 0 0 1 forward_v I I I I #
coedge $-1 $169 $170 $171 $172 forward $67 $-1 #
face $-1 $173 $174 $39 $-1 $175 reversed single #
loop $-1 $-1 $176 $69 #
plane-surface $-1 -48.219244972075558 -8.7777357891242325 5.6978075422212981 -0.68199836817093118 0 0.7313536940579346 0.7313536940579346 0 0.68199836817093118 forward_v I I I I #
coedge $-1 $177 $178 $179 $180 reversed $70 $-1 #
face $-1 $-1 $181 $40 $-1 $182 forward single #
loop $-1 $183 $184 $72 #
cone-surface $-1 -45.177426773560214 -8.7777357891242325 6.8251896206316438 0.68199836817093118 0 -0.7313536940579346 0.18283842351448365 0 0.17049959204273279 1 I I -0.70710678118654746 0.70710678118654746 0.25 forward I I I I #
loop $-1 $-1 $185 $52 #
coedge $-1 $116 $116 $186 $187 reversed $73 $-1 #
face $-1 $188 $189 $41 $-1 $190 reversed single #
loop $-1 $-1 $191 $75 #
plane-surface $-1 -48.219244972075558 1.4901147096981795 5.6978075422212981 -0.68199836817093118 0 0.7313536940579346 0.7313536940579346 0 0.68199836817093118 forward_v I I I I #
coedge $-1 $192 $193 $194 $195 reversed $76 $-1 #
face $-1 $-1 $196 $42 $-1 $197 forward single #
loop $-1 $198 $199 $78 #
cone-surface $-1 -45.177426773560214 1.4901147096981795 6.8251896206316438 0.68199836817093118 0 -0.7313536940579346 0.18283842351448365 0 0.17049959204273279 1 I I -0.70710678118654746 0.70710678118654746 0.25 forward I I I I #
loop $-1 $-1 $200 $54 #
coedge $-1 $125 $125 $201 $202 reversed $79 $-1 #
face $-1 $203 $204 $43 $-1 $205 reversed single #
loop $-1 $-1 $206 $81 #
plane-surface $-1 -48.219244972075558 11.757965208520591 5.6978075422212981 -0.68199836817093118 0 0.7313536940579346 0.7313536940579346 0 0.68199836817093118 forward_v I I I I #
coedge $-1 $207 $208 $209 $210 reversed $82 $-1 #
face $-1 $-1 $211 $44 $-1 $212 forward single #
loop $-1 $213 $214 $84 #
cone-surface $-1 -45.177426773560214 11.757965208520591 6.8251896206316438 0.68199836817093118 0 -0.7313536940579346 0.18283842351448365 0 0.17049959204273279 1 I I -0.70710678118654746 0.70710678118654746 0.25 forward I I I I #
loop $-1 $-1 $215 $56 #
coedge $-1 $134 $134 $216 $217 reversed $85 $-1 #
face $-1 $218 $219 $45 $-1 $220 reversed single #
loop $-1 $-1 $221 $87 #
plane-surface $-1 -26.727537406752049 8.9563432259493503 60.981466215986757 0.62932039886446345 0 0.77714595512881146 0.77714595512881146 0 -0.62932039886446345 forward_v I I I I #
coedge $-1 $222 $223 $224 $225 reversed $88 $-1 #
face $-1 $-1 $226 $46 $-1 $227 forward single #
loop $-1 $228 $229 $90 #
cone-surface $-1 39.740836953786747 7.2659850226674045 1.8020333820195766 -0.62932039886446345 0 -0.77714595512881146 0.38857297756440573 0 -0.31466019943223172 1 I I -0.70710678118654746 0.70710678118654746 0.5 forward I I I I #
loop $-1 $-1 $230 $58 #
coedge $-1 $143 $143 $231 $232 reversed $91 $-1 #
face $-1 $-1 $233 $47 $-1 $234 forward single #
loop $-1 $235 $236 $93 #
cone-surface $-1 39.740836953786747 10.646701429231282 1.8020333820195766 -0.62932039886446345 0 -0.77714595512881146 0.38857297756440573 0 -0.31466019943223172 1 I I -0.70710678118654746 0.70710678118654746 0.5 forward I I I I #
loop $-1 $-1 $237 $59 #
coedge $-1 $148 $148 $238 $239 reversed $94 $-1 #
face $-1 $240 $241 $36 $-1 $242 reversed single #
loop $-1 $-1 $243 $96 #
plane-surface $-1 0 0 -9.7809559341868173 0 0 1 1 0 0 forward_v I I I I #
coedge $-1 $244 $245 $246 $247 forward $97 $-1 #
coedge $-1 $248 $99 $249 $250 reversed $61 $-1 #
coedge $-1 $99 $248 $251 $252 forward $61 $-1 #
coedge $-1 $253 $243 $99 $156 forward $150 $-1 #
edge $-1 $254 -48.219244972075565 $255 48.219244972075565 $99 $256 forward 7 unknown #
face $-1 $257 $258 $37 $-1 $259 reversed single #
loop $-1 $-1 $260 $100 #
plane-surface $-1 -34.319206616266996 -38.369709182183655 0 0 1 0 0 0 1 forward_v I I I I #
coedge $-1 $261 $262 $162 $263 forward $101 $-1 #
coedge $-1 $264 $103 $265 $266 reversed $64 $-1 #
coedge $-1 $103 $264 $160 $263 reversed $64 $-1 #
coedge $-1 $267 $268 $103 $164 reversed $258 $-1 #
edge $-1 $269 -9.7809559341868173 $270 9.7809559341868173 $163 $271 forward 7 unknown #
face $-1 $272 $273 $38 $-1 $274 reversed single #
loop $-1 $-1 $275 $104 #
plane-surface $-1 0 30.733104033610854 -5.9830185357972017 0 0 1 1 0 0 forward_v I I I I #
coedge $-1 $276 $277 $170 $278 forward $105 $-1 #
coedge $-1 $279 $107 $280 $281 reversed $67 $-1 #
coedge $-1 $107 $279 $168 $278 reversed $67 $-1 #
coedge $-1 $275 $282 $107 $172 reversed $166 $-1 #
edge $-1 $283 -48.219244972075565 $284 48.219244972075565 $171 $285 forward 7 unknown #
face $-1 $286 $287 $39 $-1 $288 reversed single #
loop $-1 $-1 $289 $108 #
plane-surface $-1 -113.99013774285538 -5.764546397973076 76.228453412245202 0 -1 0 0.68199836817093118 0 -0.7313536940579346 forward_v I I I I #
coedge $-1 $290 $291 $292 $293 reversed $109 $-1 #
coedge $-1 $178 $111 $294 $295 reversed $70 $-1 #
coedge $-1 $111 $177 $290 $296 reversed $70 $-1 #
coedge $-1 $292 $297 $111 $180 forward $298 $-1 #
edge $-1 $299 8.775823899352126 $300 13.15446437595552 $179 $301 forward 7 unknown #
loop $-1 $-1 $186 $112 #
plane-surface $-1 -48.219244972075558 -8.7777357891242325 5.6978075422212981 -0.68199836817093118 0 0.7313536940579346 0.7313536940579346 0 0.68199836817093118 forward_v I I I I #
loop $-1 $-1 $302 $72 #
coedge $-1 $184 $184 $185 $303 reversed $113 $-1 #
coedge $-1 $185 $185 $184 $303 forward $115 $-1 #
coedge $-1 $186 $186 $116 $187 forward $181 $-1 #
edge $-1 $304 0 $304 6.2831853071796004 $186 $305 forward 7 unknown #
face $-1 $306 $307 $41 $-1 $308 forward single #
loop $-1 $-1 $309 $117 #
plane-surface $-1 -113.99013774285538 4.503304100849336 76.228453412245202 0 -1 0 0.68199836817093118 0 -0.7313536940579346 forward_v I I I I #
coedge $-1 $310 $311 $312 $313 reversed $118 $-1 #
coedge $-1 $193 $120 $314 $315 reversed $76 $-1 #
coedge $-1 $120 $192 $310 $316 reversed $76 $-1 #
coedge $-1 $312 $317 $120 $195 forward $307 $-1 #
edge $-1 $318 8.775823899352126 $319 13.15446437595552 $194 $320 forward 7 unknown #
loop $-1 $-1 $201 $121 #
plane-surface $-1 -48.219244972075558 1.4901147096981795 5.6978075422212981 -0.68199836817093118 0 0.7313536940579346 0.7313536940579346 0 0.68199836817093118 forward_v I I I I #
loop $-1 $-1 $321 $78 #
coedge $-1 $199 $199 $200 $322 reversed $122 $-1 #
coedge $-1 $200 $200 $199 $322 forward $124 $-1 #
coedge $-1 $201 $201 $125 $202 forward $196 $-1 #
edge $-1 $323 0 $323 6.2831853071796004 $201 $324 forward 7 unknown #
face $-1 $325 $326 $43 $-1 $327 forward single #
loop $-1 $-1 $328 $126 #
plane-surface $-1 -113.99013774285538 14.771154599671748 76.228453412245202 0 -1 0 0.68199836817093118 0 -0.7313536940579346 forward_v I I I I #
coedge $-1 $329 $330 $331 $332 reversed $127 $-1 #
coedge $-1 $208 $129 $333 $334 reversed $82 $-1 #
coedge $-1 $129 $207 $329 $335 reversed $82 $-1 #
coedge $-1 $331 $336 $129 $210 forward $326 $-1 #
edge $-1 $337 8.775823899352126 $338 13.15446437595552 $209 $339 forward 7 unknown #
loop $-1 $-1 $216 $130 #
plane-surface $-1 -48.219244972075558 11.757965208520591 5.6978075422212981 -0.68199836817093118 0 0.7313536940579346 0.7313536940579346 0 0.68199836817093118 forward_v I I I I #
loop $-1 $-1 $340 $84 #
coedge $-1 $214 $214 $215 $341 reversed $131 $-1 #
coedge $-1 $215 $215 $214 $341 forward $133 $-1 #
coedge $-1 $216 $216 $134 $217 forward $211 $-1 #
edge $-1 $342 0 $342 6.2831853071796004 $216 $343 forward 7 unknown #
face $-1 $344 $345 $45 $-1 $346 forward single #
loop $-1 $-1 $347 $135 #
plane-surface $-1 33.963171550787685 5.012174084958156 135.92824859481436 0 1 0 0.62932039886446345 0 0.77714595512881146 forward_v I I I I #
coedge $-1 $348 $349 $350 $351 reversed $136 $-1 #
coedge $-1 $223 $138 $352 $353 reversed $88 $-1 #
coedge $-1 $138 $222 $348 $354 reversed $88 $-1 #
coedge $-1 $350 $355 $138 $225 forward $345 $-1 #
edge $-1 $356 -31.237659196681722 $357 -19.51824007801368 $224 $358 forward 7 unknown #
loop $-1 $-1 $231 $139 #
plane-surface $-1 -26.727537406752049 8.9563432259493503 60.981466215986757 0.62932039886446345 0 0.77714595512881146 0.77714595512881146 0 -0.62932039886446345 forward_v I I I I #
loop $-1 $-1 $359 $90 #
coedge $-1 $229 $229 $230 $360 reversed $140 $-1 #
coedge $-1 $230 $230 $229 $360 forward $142 $-1 #
coedge $-1 $231 $231 $143 $232 forward $226 $-1 #
edge $-1 $361 0 $361 6.2831853071796004 $231 $362 forward 7 unknown #
loop $-1 $-1 $238 $144 #
plane-surface $-1 -26.727537406752049 8.9563432259493503 60.981466215986757 0.62932039886446345 0 0.77714595512881146 0.77714595512881146 0 -0.62932039886446345 forward_v I I I I #
loop $-1 $-1 $363 $93 #
coedge $-1 $236 $236 $237 $364 reversed $145 $-1 #
coedge $-1 $237 $237 $236 $364 forward $147 $-1 #
coedge $-1 $238 $238 $148 $239 forward $233 $-1 #
edge $-1 $365 0 $365 6.2831853071796004 $238 $366 forward 7 unknown #
face $-1 $367 $368 $36 $-1 $369 reversed single #
loop $-1 $-1 $370 $149 #
plane-surface $-1 -48.219244972075565 0 0 1 0 0 0 0 -1 forward_v I I I I #
coedge $-1 $155 $371 $372 $373 forward $150 $-1 #
coedge $-1 $374 $152 $375 $376 forward $97 $-1 #
coedge $-1 $152 $374 $248 $377 forward $97 $-1 #
coedge $-1 $249 $378 $152 $247 reversed $379 $-1 #
edge $-1 $380 -26.127893749174522 $381 26.127893749174522 $246 $382 forward 7 unknown #
coedge $-1 $154 $153 $245 $377 reversed $61 $-1 #
coedge $-1 $372 $246 $153 $250 forward $379 $-1 #
edge $-1 $380 -9.7809559341868173 $254 9.7809559341868173 $249 $383 forward 7 unknown #
coedge $-1 $384 $385 $154 $252 reversed $241 $-1 #
edge $-1 $386 -9.7809559341868173 $255 9.7809559341868173 $251 $387 forward 7 unknown #
coedge $-1 $371 $155 $385 $388 forward $150 $-1 #
vertex $-1 $250 $389 #
vertex $-1 $388 $390 #
straight-curve $-1 0 -26.127893749174522 -9.7809559341868173 -1 0 0 I I #
face $-1 $391 $392 $37 $-1 $393 reversed single #
loop $-1 $-1 $163 $157 #
plane-surface $-1 -37.159047934394174 -32.248801465679087 0 1 0 0 0 0 -1 forward_v I I I I #
coedge $-1 $394 $395 $396 $397 forward $158 $-1 #
coedge $-1 $398 $160 $399 $400 forward $101 $-1 #
coedge $-1 $160 $398 $267 $401 forward $101 $-1 #
edge $-1 $269 -37.159047934394174 $402 -31.479365298139822 $160 $403 forward 7 unknown #
coedge $-1 $162 $161 $404 $405 forward $64 $-1 #
coedge $-1 $406 $407 $161 $266 forward $408 $-1 #
edge $-1 $409 31.479365298139822 $270 37.159047934394174 $265 $410 forward 7 unknown #
coedge $-1 $396 $163 $262 $401 reversed $258 $-1 #
coedge $-1 $163 $396 $406 $411 reversed $258 $-1 #
vertex $-1 $263 $412 #
vertex $-1 $411 $413 #
straight-curve $-1 -37.159047934394174 -26.127893749174522 0 0 0 1 I I #
face $-1 $414 $415 $38 $-1 $416 reversed single #
loop $-1 $-1 $417 $165 #
plane-surface $-1 0 35.338314318047189 -7.8819872349920095 0 -1 0 0 0 -1 forward_v I I I I #
coedge $-1 $418 $171 $277 $419 forward $166 $-1 #
coedge $-1 $420 $168 $421 $422 reversed $105 $-1 #
coedge $-1 $168 $420 $275 $419 reversed $105 $-1 #
edge $-1 $283 5.9830185357972017 $423 9.7809559341868173 $168 $424 forward 7 unknown #
coedge $-1 $170 $169 $425 $426 reversed $67 $-1 #
coedge $-1 $427 $428 $169 $281 forward $429 $-1 #
edge $-1 $430 -9.7809559341868173 $284 -5.9830185357972017 $280 $431 forward 7 unknown #
coedge $-1 $171 $418 $427 $432 forward $166 $-1 #
vertex $-1 $278 $433 #
vertex $-1 $432 $434 #
straight-curve $-1 0 26.127893749174522 -5.9830185357972017 -1 0 0 I I #
face $-1 $-1 $298 $39 $-1 $435 forward single #
loop $-1 $-1 $436 $173 #
plane-surface $-1 -48.219244972075565 0 0 1 0 0 0 0 -1 forward_v I I I I #
coedge $-1 $437 $438 $439 $440 reversed $174 $-1 #
coedge $-1 $441 $176 $178 $296 forward $109 $-1 #
coedge $-1 $176 $441 $437 $442 forward $109 $-1 #
coedge $-1 $439 $179 $176 $293 forward $298 $-1 #
edge $-1 $300 -7.4020572857132727 $443 -1.3756785034109598 $292 $444 forward 7 unknown #
coedge $-1 $445 $446 $177 $295 forward $287 $-1 #
edge $-1 $447 -32.41641916390131 $299 -28.333270771935783 $294 $448 forward 7 unknown #
edge $-1 $300 -5.9870354278357283 $447 9.4367341760026555e-015 $178 $449 forward 7 unknown #
coedge $-1 $179 $439 $445 $450 forward $298 $-1 #
loop $-1 $-1 $439 $286 #
vertex $-1 $295 $451 #
vertex $-1 $180 $452 #
straight-curve $-1 -56.995068871427691 -11.790925180275389 9.7809559341868209 1 0 0 I I #
coedge $-1 $302 $302 $-1 $453 reversed $183 $-1 #
edge $-1 $454 0 $454 6.2831853071796004 $184 $455 forward 7 unknown #
vertex $-1 $187 $456 #
ellipse-curve $-1 -46.029924733773868 -8.7777357891242325 7.7393817382040524 -0.68199836817093118 0 0.7313536940579346 0.3656768470289673 0 0.34099918408546559 1 I I #
face $-1 $-1 $457 $41 $-1 $458 reversed single #
loop $-1 $-1 $194 $188 #
plane-surface $-1 0 0 9.7809559341868173 0 0 1 1 0 0 forward_v I I I I #
coedge $-1 $459 $460 $461 $462 reversed $189 $-1 #
coedge $-1 $463 $191 $193 $316 forward $118 $-1 #
coedge $-1 $191 $463 $459 $464 forward $118 $-1 #
coedge $-1 $461 $194 $191 $313 forward $307 $-1 #
edge $-1 $319 -2.2681320363020667 $465 3.7582467460002462 $312 $466 forward 7 unknown #
coedge $-1 $467 $468 $192 $315 forward $457 $-1 #
edge $-1 $469 -32.41641916390131 $318 -28.333270771935783 $314 $470 forward 7 unknown #
edge $-1 $319 -5.9870354278357283 $469 9.4367341760026555e-015 $193 $471 forward 7 unknown #
coedge $-1 $194 $461 $467 $472 forward $307 $-1 #
vertex $-1 $195 $473 #
vertex $-1 $195 $474 #
straight-curve $-1 -56.995068871427691 -1.523074681452977 9.7809559341868209 1 0 0 I I #
coedge $-1 $321 $321 $-1 $475 reversed $198 $-1 #
edge $-1 $476 0 $476 6.2831853071796004 $199 $477 forward 7 unknown #
vertex $-1 $202 $478 #
ellipse-curve $-1 -46.029924733773868 1.4901147096981795 7.7393817382040524 -0.68199836817093118 0 0.7313536940579346 0.3656768470289673 0 0.34099918408546559 1 I I #
face $-1 $-1 $479 $43 $-1 $480 reversed single #
loop $-1 $-1 $209 $203 #
plane-surface $-1 0 0 9.7809559341868173 0 0 1 1 0 0 forward_v I I I I #
coedge $-1 $481 $482 $483 $484 reversed $204 $-1 #
coedge $-1 $485 $206 $208 $335 forward $127 $-1 #
coedge $-1 $206 $485 $481 $486 forward $127 $-1 #
coedge $-1 $483 $209 $206 $332 forward $326 $-1 #
edge $-1 $338 2.8657932131091393 $487 8.8921719954114522 $331 $488 forward 7 unknown #
coedge $-1 $489 $490 $207 $334 forward $479 $-1 #
edge $-1 $491 -32.41641916390131 $337 -28.333270771935783 $333 $492 forward 7 unknown #
edge $-1 $338 -5.9870354278357283 $491 9.4367341760026555e-015 $208 $493 forward 7 unknown #
coedge $-1 $209 $483 $489 $494 forward $326 $-1 #
vertex $-1 $210 $495 #
vertex $-1 $210 $496 #
straight-curve $-1 -56.995068871427691 8.744775817369435 9.7809559341868209 1 0 0 I I #
coedge $-1 $340 $340 $-1 $497 reversed $213 $-1 #
edge $-1 $498 0 $498 6.2831853071796004 $214 $499 forward 7 unknown #
vertex $-1 $217 $500 #
ellipse-curve $-1 -46.029924733773868 11.757965208520591 7.7393817382040524 -0.68199836817093118 0 0.7313536940579346 0.3656768470289673 0 0.34099918408546559 1 I I #
face $-1 $-1 $501 $45 $-1 $502 reversed single #
loop $-1 $-1 $224 $218 #
plane-surface $-1 0 0 9.7809559341868173 0 0 1 1 0 0 forward_v I I I I #
coedge $-1 $503 $504 $505 $506 reversed $219 $-1 #
coedge $-1 $507 $221 $223 $354 forward $136 $-1 #
coedge $-1 $221 $507 $503 $508 forward $136 $-1 #
coedge $-1 $505 $224 $221 $351 forward $345 $-1 #
edge $-1 $357 -8.4223407539658695 $509 -0.53400247198348083 $350 $510 forward 7 unknown #
coedge $-1 $511 $512 $222 $353 forward $501 $-1 #
edge $-1 $513 -67.673367038960151 $356 -58.183168363220361 $352 $514 forward 7 unknown #
edge $-1 $357 81.358415163699419 $513 96.438489944151115 $223 $515 forward 7 unknown #
coedge $-1 $224 $505 $511 $516 forward $345 $-1 #
vertex $-1 $353 $517 #
vertex $-1 $225 $518 #
straight-curve $-1 16.981585775393842 12.900512366940545 9.7809559341868209 -1 0 0 I I #
coedge $-1 $359 $359 $-1 $519 reversed $228 $-1 #
edge $-1 $520 0 $520 6.2831853071796004 $229 $521 forward 7 unknown #
vertex $-1 $232 $522 #
ellipse-curve $-1 42.359535412741536 7.2659850226674045 5.0358565963169264 0.62932039886446345 0 0.77714595512881146 0.77714595512881146 0 -0.62932039886446345 1 I I #
coedge $-1 $363 $363 $-1 $523 reversed $235 $-1 #
edge $-1 $524 0 $524 6.2831853071796004 $236 $525 forward 7 unknown #
vertex $-1 $239 $526 #
ellipse-curve $-1 42.359535412741536 10.646701429231282 5.0358565963169264 0.62932039886446345 0 0.77714595512881146 0.77714595512881146 0 -0.62932039886446345 1 I I #
face $-1 $-1 $379 $36 $-1 $527 reversed single #
loop $-1 $-1 $528 $240 #
plane-surface $-1 0 26.127893749174522 0 0 -1 0 0 0 -1 forward_v I I I I #
coedge $-1 $385 $384 $528 $529 forward $241 $-1 #
coedge $-1 $243 $253 $530 $531 forward $150 $-1 #
coedge $-1 $378 $249 $243 $373 reversed $379 $-1 #
edge $-1 $532 -26.127893749174522 $254 26.127893749174522 $372 $533 forward 7 unknown #
coedge $-1 $245 $244 $384 $534 forward $97 $-1 #
coedge $-1 $535 $528 $244 $376 reversed $368 $-1 #
edge $-1 $381 -48.219244972075565 $536 48.219244972075565 $375 $537 forward 7 unknown #
edge $-1 $386 -48.219244972075565 $380 48.219244972075565 $248 $538 forward 7 unknown #
coedge $-1 $246 $372 $535 $539 reversed $379 $-1 #
loop $-1 $-1 $249 $367 #
vertex $-1 $247 $540 #
vertex $-1 $247 $541 #
straight-curve $-1 48.219244972075565 0 9.7809559341868173 0 1 0 I I #
straight-curve $-1 48.219244972075565 -26.127893749174522 0 0 0 -1 I I #
coedge $-1 $370 $251 $374 $534 reversed $241 $-1 #
coedge $-1 $251 $370 $253 $388 reversed $241 $-1 #
vertex $-1 $534 $542 #
straight-curve $-1 -48.219244972075565 -26.127893749174522 0 0 0 -1 I I #
edge $-1 $255 -26.127893749174522 $543 26.127893749174522 $385 $544 forward 7 unknown #
point $-1 48.219244972075565 -26.127893749174522 -9.7809559341868173 #
point $-1 -48.219244972075565 -26.127893749174522 -9.7809559341868173 #
face $-1 $-1 $408 $37 $-1 $545 forward single #
loop $-1 $-1 $546 $257 #
plane-surface $-1 -31.479365298139822 -32.248801465679087 0 -1 0 0 0 0 1 forward_v I I I I #
coedge $-1 $547 $260 $398 $548 reversed $158 $-1 #
coedge $-1 $260 $547 $549 $550 reversed $158 $-1 #
coedge $-1 $268 $267 $260 $397 reversed $258 $-1 #
edge $-1 $551 -9.7809559341868173 $552 9.7809559341868173 $396 $553 forward 7 unknown #
coedge $-1 $262 $261 $394 $548 forward $101 $-1 #
coedge $-1 $404 $546 $261 $400 reversed $392 $-1 #
edge $-1 $402 -6.1209077165045684 $554 6.1209077165045684 $399 $555 forward 7 unknown #
edge $-1 $552 -6.1209077165045684 $269 6.1209077165045684 $267 $556 forward 7 unknown #
vertex $-1 $400 $557 #
straight-curve $-1 0 -26.127893749174522 -9.7809559341868173 1 0 0 I I #
coedge $-1 $558 $399 $264 $405 reversed $392 $-1 #
edge $-1 $409 -9.7809559341868173 $402 9.7809559341868173 $404 $559 forward 7 unknown #
coedge $-1 $549 $265 $268 $411 forward $408 $-1 #
coedge $-1 $265 $549 $558 $560 forward $408 $-1 #
loop $-1 $-1 $265 $391 #
vertex $-1 $266 $561 #
straight-curve $-1 0 -26.127893749174522 9.7809559341868173 -1 0 0 I I #
edge $-1 $270 -6.1209077165045684 $551 6.1209077165045684 $268 $562 forward 7 unknown #
point $-1 -37.159047934394174 -26.127893749174518 -9.7809559341868173 #
point $-1 -37.159047934394174 -26.127893749174518 9.7809559341868173 #
face $-1 $-1 $429 $38 $-1 $563 reversed single #
loop $-1 $-1 $425 $272 #
plane-surface $-1 0 0 -9.7809559341868173 0 0 1 1 0 0 forward_v I I I I #
coedge $-1 $564 $565 $420 $566 forward $273 $-1 #
coedge $-1 $282 $275 $565 $567 forward $166 $-1 #
edge $-1 $283 -4.6052102844363354 $568 4.6052102844363354 $277 $569 forward 7 unknown #
coedge $-1 $277 $276 $417 $566 reversed $105 $-1 #
coedge $-1 $425 $570 $276 $422 forward $415 $-1 #
edge $-1 $571 -35.338314318047189 $423 -26.127893749174522 $276 $572 forward 7 unknown #
vertex $-1 $278 $573 #
straight-curve $-1 48.219244972075565 26.127893749174522 0 0 0 -1 I I #
coedge $-1 $574 $421 $279 $426 forward $415 $-1 #
edge $-1 $423 -48.219244972075565 $430 48.219244972075565 $425 $575 forward 7 unknown #
coedge $-1 $576 $280 $282 $432 reversed $429 $-1 #
coedge $-1 $280 $576 $574 $577 reversed $429 $-1 #
loop $-1 $-1 $280 $414 #
vertex $-1 $577 $578 #
straight-curve $-1 -48.219244972075565 26.127893749174522 0 0 0 1 I I #
edge $-1 $579 -4.6052102844363354 $284 4.6052102844363354 $427 $580 forward 7 unknown #
point $-1 48.219244972075565 26.127893749174518 -5.9830185357972017 #
point $-1 -48.219244972075565 26.127893749174518 -5.9830185357972017 #
plane-surface $-1 0 0 9.7809559341868173 0 0 1 1 0 0 forward_v I I I I #
coedge $-1 $446 $445 $438 $581 forward $287 $-1 #
coedge $-1 $438 $289 $291 $442 reversed $174 $-1 #
coedge $-1 $289 $437 $436 $581 reversed $174 $-1 #
coedge $-1 $297 $292 $289 $440 forward $298 $-1 #
edge $-1 $443 -13.15446437595552 $582 -8.775823899352126 $439 $583 forward 7 unknown #
coedge $-1 $291 $290 $446 $584 reversed $109 $-1 #
edge $-1 $585 -9.4367341760026555e-015 $443 5.9870354278357283 $437 $586 forward 7 unknown #
vertex $-1 $293 $587 #
straight-curve $-1 -43.840604495472164 -4.3888678945621162 9.7809559341868173 0 1 0 I I #
coedge $-1 $436 $294 $297 $450 reversed $287 $-1 #
coedge $-1 $294 $436 $441 $584 forward $287 $-1 #
vertex $-1 $295 $588 #
straight-curve $-1 -48.219244972075565 -11.790925180275389 38.114226706122601 0 0 1 I I #
straight-curve $-1 -48.219244972075558 -11.790925180275389 5.6978075422212981 -0.7313536940579346 0 -0.68199836817093118 I I #
edge $-1 $582 5.764546397973076 $299 11.790925180275389 $445 $589 forward 7 unknown #
point $-1 -48.219244972075565 -11.790925180275389 9.7809559341868173 #
point $-1 -43.840604495472171 -11.790925180275389 9.7809559341868173 #
edge $-1 $590 1 $590 0 $302 $-1 forward 7 unknown #
vertex $-1 $303 $591 #
ellipse-curve $-1 -45.347926365602945 -8.7777357891242325 7.0080280441461271 -0.68199836817093118 0 0.7313536940579346 0.3656768470289673 0 0.34099918408546559 1 I I #
point $-1 -45.66424788674491 -8.7777357891242325 8.0803809222895282 #
loop $-1 $-1 $314 $306 #
plane-surface $-1 -48.219244972075565 0 0 1 0 0 0 0 -1 forward_v I I I I #
coedge $-1 $460 $309 $311 $464 reversed $189 $-1 #
coedge $-1 $309 $459 $592 $593 reversed $189 $-1 #
coedge $-1 $317 $312 $309 $462 forward $307 $-1 #
edge $-1 $465 -13.15446437595552 $594 -8.775823899352126 $461 $595 forward 7 unknown #
coedge $-1 $311 $310 $468 $596 reversed $118 $-1 #
edge $-1 $597 -9.4367341760026555e-015 $465 5.9870354278357283 $459 $598 forward 7 unknown #
vertex $-1 $313 $599 #
straight-curve $-1 -43.840604495472164 0.74505735484908975 9.7809559341868173 0 1 0 I I #
coedge $-1 $592 $314 $317 $472 reversed $457 $-1 #
coedge $-1 $314 $592 $463 $596 forward $457 $-1 #
vertex $-1 $315 $600 #
straight-curve $-1 -48.219244972075565 -1.523074681452977 38.114226706122601 0 0 1 I I #
straight-curve $-1 -48.219244972075558 -1.523074681452977 5.6978075422212981 -0.7313536940579346 0 -0.68199836817093118 I I #
edge $-1 $594 -4.503304100849336 $318 1.523074681452977 $467 $601 forward 7 unknown #
point $-1 -48.219244972075565 -1.523074681452977 9.7809559341868173 #
point $-1 -43.840604495472171 -1.523074681452977 9.7809559341868173 #
edge $-1 $602 1 $602 0 $321 $-1 forward 7 unknown #
vertex $-1 $322 $603 #
ellipse-curve $-1 -45.347926365602945 1.4901147096981795 7.0080280441461271 -0.68199836817093118 0 0.7313536940579346 0.3656768470289673 0 0.34099918408546559 1 I I #
point $-1 -45.66424788674491 1.4901147096981795 8.0803809222895282 #
loop $-1 $-1 $333 $325 #
plane-surface $-1 -48.219244972075565 0 0 1 0 0 0 0 -1 forward_v I I I I #
coedge $-1 $482 $328 $330 $486 reversed $204 $-1 #
coedge $-1 $328 $481 $604 $605 reversed $204 $-1 #
coedge $-1 $336 $331 $328 $484 forward $326 $-1 #
edge $-1 $487 -13.15446437595552 $606 -8.775823899352126 $483 $607 forward 7 unknown #
coedge $-1 $330 $329 $490 $608 reversed $127 $-1 #
edge $-1 $609 -9.4367341760026555e-015 $487 5.9870354278357283 $481 $610 forward 7 unknown #
vertex $-1 $332 $611 #
straight-curve $-1 -43.840604495472164 5.8789826042602957 9.7809559341868173 0 1 0 I I #
coedge $-1 $604 $333 $336 $494 reversed $479 $-1 #
coedge $-1 $333 $604 $485 $608 forward $479 $-1 #
vertex $-1 $334 $612 #
straight-curve $-1 -48.219244972075565 8.744775817369435 38.114226706122601 0 0 1 I I #
straight-curve $-1 -48.219244972075558 8.744775817369435 5.6978075422212981 -0.7313536940579346 0 -0.68199836817093118 I I #
edge $-1 $606 -14.771154599671748 $337 -8.744775817369435 $489 $613 forward 7 unknown #
point $-1 -48.219244972075565 8.744775817369435 9.7809559341868173 #
point $-1 -43.840604495472171 8.744775817369435 9.7809559341868173 #
edge $-1 $614 1 $614 0 $340 $-1 forward 7 unknown #
vertex $-1 $341 $615 #
ellipse-curve $-1 -45.347926365602945 11.757965208520591 7.0080280441461271 -0.68199836817093118 0 0.7313536940579346 0.3656768470289673 0 0.34099918408546559 1 I I #
point $-1 -45.66424788674491 11.757965208520591 8.0803809222895282 #
loop $-1 $-1 $352 $344 #
plane-surface $-1 48.219244972075565 0 0 -1 0 0 0 0 1 forward_v I I I I #
coedge $-1 $504 $347 $349 $508 reversed $219 $-1 #
coedge $-1 $347 $503 $616 $617 reversed $219 $-1 #
coedge $-1 $355 $350 $347 $506 forward $345 $-1 #
edge $-1 $509 19.51824007801368 $618 31.237659196681722 $505 $619 forward 7 unknown #
coedge $-1 $349 $348 $512 $620 reversed $136 $-1 #
edge $-1 $621 -96.438489944151115 $509 -81.358415163699419 $503 $622 forward 7 unknown #
vertex $-1 $351 $623 #
straight-curve $-1 36.499825853407522 4.4781716129746751 9.7809559341868209 0 -1 0 I I #
coedge $-1 $616 $352 $355 $516 reversed $501 $-1 #
coedge $-1 $352 $616 $507 $620 forward $501 $-1 #
vertex $-1 $353 $624 #
straight-curve $-1 48.219244972075565 12.900512366940545 67.964124297407182 0 0 1 I I #
straight-curve $-1 -26.727537406752049 12.900512366940545 60.981466215986757 0.77714595512881146 0 -0.62932039886446345 I I #
edge $-1 $618 5.012174084958156 $356 12.900512366940545 $511 $625 forward 7 unknown #
point $-1 48.219244972075565 12.900512366940545 9.7809559341868173 #
point $-1 36.499825853407522 12.900512366940545 9.7809559341868209 #
edge $-1 $626 1 $626 0 $359 $-1 forward 7 unknown #
vertex $-1 $360 $627 #
ellipse-curve $-1 40.05549715321898 7.2659850226674045 2.1906063595839824 0.62932039886446345 0 0.77714595512881146 0.77714595512881146 0 -0.62932039886446345 1 I I #
point $-1 43.136681367870338 7.2659850226674045 4.4065361974524482 #
edge $-1 $628 1 $628 0 $363 $-1 forward 7 unknown #
vertex $-1 $364 $629 #
ellipse-curve $-1 40.05549715321898 10.646701429231282 2.1906063595839824 0.62932039886446345 0 0.77714595512881146 0.77714595512881146 0 -0.62932039886446345 1 I I #
point $-1 43.136681367870338 10.646701429231282 4.4065361974524482 #
plane-surface $-1 48.219244972075565 0 0 -1 0 0 0 0 1 forward_v I I I I #
coedge $-1 $375 $530 $370 $529 reversed $368 $-1 #
edge $-1 $536 -9.7809559341868173 $543 9.7809559341868173 $528 $630 forward 7 unknown #
coedge $-1 $528 $535 $371 $531 reversed $368 $-1 #
edge $-1 $543 -48.219244972075565 $532 48.219244972075565 $530 $631 forward 7 unknown #
vertex $-1 $373 $632 #
straight-curve $-1 48.219244972075565 0 -9.7809559341868173 0 -1 0 I I #
edge $-1 $536 -26.127893749174522 $386 26.127893749174522 $384 $633 forward 7 unknown #
coedge $-1 $530 $375 $378 $539 forward $368 $-1 #
vertex $-1 $376 $634 #
straight-curve $-1 0 26.127893749174522 9.7809559341868173 -1 0 0 I I #
straight-curve $-1 0 -26.127893749174522 9.7809559341868173 1 0 0 I I #
edge $-1 $381 -9.7809559341868173 $532 9.7809559341868173 $378 $635 forward 7 unknown #
point $-1 48.219244972075565 -26.127893749174522 9.7809559341868173 #
point $-1 48.219244972075565 26.127893749174522 9.7809559341868173 #
point $-1 -48.219244972075565 -26.127893749174522 9.7809559341868173 #
vertex $-1 $531 $636 #
straight-curve $-1 -48.219244972075565 0 -9.7809559341868173 0 1 0 I I #
plane-surface $-1 0 0 9.7809559341868173 0 0 1 1 0 0 forward_v I I I I #
coedge $-1 $399 $558 $547 $637 forward $392 $-1 #
coedge $-1 $395 $394 $546 $637 reversed $158 $-1 #
edge $-1 $554 -2.8398413181271742 $552 2.8398413181271778 $394 $638 forward 7 unknown #
coedge $-1 $407 $406 $395 $550 forward $408 $-1 #
edge $-1 $551 -2.8398413181271778 $639 2.8398413181271742 $395 $640 forward 7 unknown #
vertex $-1 $411 $641 #
vertex $-1 $401 $642 #
straight-curve $-1 -37.159047934394174 -38.369709182183655 0 0 0 -1 I I #
vertex $-1 $637 $643 #
straight-curve $-1 -31.479365298139822 -32.248801465679087 -9.7809559341868173 0 -1 0 I I #
straight-curve $-1 -37.159047934394174 -32.248801465679087 -9.7809559341868173 0 1 0 I I #
point $-1 -31.479365298139822 -26.127893749174518 -9.7809559341868173 #
coedge $-1 $546 $404 $407 $560 reversed $392 $-1 #
straight-curve $-1 -31.479365298139822 -26.127893749174522 0 0 0 -1 I I #
edge $-1 $639 -6.1209077165045684 $409 6.1209077165045684 $558 $644 forward 7 unknown #
point $-1 -31.479365298139822 -26.127893749174518 9.7809559341868173 #
straight-curve $-1 -37.159047934394174 -32.248801465679087 9.7809559341868173 0 -1 0 I I #
plane-surface $-1 -48.219244972075565 0 0 1 0 0 0 0 -1 forward_v I I I I #
coedge $-1 $645 $417 $570 $646 reversed $273 $-1 #
coedge $-1 $417 $645 $418 $567 reversed $273 $-1 #
edge $-1 $568 -1.8989686991948078 $571 1.8989686991948078 $420 $647 forward 7 unknown #
edge $-1 $568 -48.219244972075565 $579 48.219244972075565 $565 $648 forward 7 unknown #
vertex $-1 $419 $649 #
straight-curve $-1 48.219244972075565 30.733104033610854 -5.9830185357972017 0 1 0 I I #
coedge $-1 $421 $574 $564 $646 forward $415 $-1 #
vertex $-1 $422 $650 #
straight-curve $-1 48.219244972075565 0 -9.7809559341868173 0 -1 0 I I #
point $-1 48.219244972075565 26.127893749174522 -9.7809559341868173 #
coedge $-1 $570 $425 $428 $577 forward $415 $-1 #
straight-curve $-1 0 26.127893749174522 -9.7809559341868173 -1 0 0 I I #
coedge $-1 $428 $427 $645 $651 forward $429 $-1 #
edge $-1 $430 -4.6052102844363318 $652 4.6052102844363354 $428 $653 forward 7 unknown #
point $-1 -48.219244972075565 26.127893749174522 -9.7809559341868173 #
vertex $-1 $567 $654 #
straight-curve $-1 -48.219244972075565 30.733104033610854 -5.9830185357972017 0 -1 0 I I #
edge $-1 $582 28.333270771935783 $585 32.41641916390131 $436 $655 forward 7 unknown #
vertex $-1 $450 $656 #
straight-curve $-1 -56.995068871427691 -5.764546397973076 9.7809559341868209 -1 0 0 I I #
edge $-1 $585 1.3756785034109598 $447 7.4020572857132727 $446 $657 forward 7 unknown #
vertex $-1 $584 $658 #
straight-curve $-1 -48.219244972075558 -5.764546397973076 5.6978075422212981 0.7313536940579346 0 0.68199836817093118 I I #
point $-1 -43.840604495472171 -5.764546397973076 9.7809559341868173 #
point $-1 -48.219244972075565 -11.790925180275389 5.6978075422212919 #
straight-curve $-1 -48.219244972075565 0 9.7809559341868173 0 -1 0 I I #
vertex $-1 $453 $659 #
point $-1 -44.98224951857398 -8.7777357891242325 7.3490272282315932 #
coedge $-1 $468 $467 $460 $593 forward $457 $-1 #
edge $-1 $594 28.333270771935783 $597 32.41641916390131 $592 $660 forward 7 unknown #
vertex $-1 $472 $661 #
straight-curve $-1 -56.995068871427691 4.503304100849336 9.7809559341868209 -1 0 0 I I #
edge $-1 $597 -3.7582467460002462 $469 2.2681320363020667 $468 $662 forward 7 unknown #
vertex $-1 $596 $663 #
straight-curve $-1 -48.219244972075558 4.503304100849336 5.6978075422212981 0.7313536940579346 0 0.68199836817093118 I I #
point $-1 -43.840604495472171 4.503304100849336 9.7809559341868173 #
point $-1 -48.219244972075565 -1.523074681452977 5.6978075422212919 #
straight-curve $-1 -48.219244972075565 0 9.7809559341868173 0 -1 0 I I #
vertex $-1 $475 $664 #
point $-1 -44.98224951857398 1.4901147096981795 7.3490272282315932 #
coedge $-1 $490 $489 $482 $605 forward $479 $-1 #
edge $-1 $606 28.333270771935783 $609 32.41641916390131 $604 $665 forward 7 unknown #
vertex $-1 $494 $666 #
straight-curve $-1 -56.995068871427691 14.771154599671748 9.7809559341868209 -1 0 0 I I #
edge $-1 $609 -8.8921719954114522 $491 -2.8657932131091393 $490 $667 forward 7 unknown #
vertex $-1 $608 $668 #
straight-curve $-1 -48.219244972075558 14.771154599671748 5.6978075422212981 0.7313536940579346 0 0.68199836817093118 I I #
point $-1 -43.840604495472171 14.771154599671748 9.7809559341868173 #
point $-1 -48.219244972075565 8.744775817369435 5.6978075422212919 #
straight-curve $-1 -48.219244972075565 0 9.7809559341868173 0 -1 0 I I #
vertex $-1 $497 $669 #
point $-1 -44.98224951857398 11.757965208520591 7.3490272282315932 #
coedge $-1 $512 $511 $504 $617 forward $501 $-1 #
edge $-1 $618 58.183168363220361 $621 67.673367038960151 $616 $670 forward 7 unknown #
vertex $-1 $516 $671 #
straight-curve $-1 16.981585775393842 5.012174084958156 9.7809559341868209 1 0 0 I I #
edge $-1 $621 0.53400247198348083 $513 8.4223407539658695 $512 $672 forward 7 unknown #
vertex $-1 $620 $673 #
straight-curve $-1 -26.727537406752049 5.012174084958156 60.981466215986757 -0.77714595512881146 0 0.62932039886446345 I I #
point $-1 36.499825853407522 5.012174084958156 9.7809559341868209 #
point $-1 48.219244972075558 12.900512366940545 0.29075725844702305 #
straight-curve $-1 48.219244972075565 0 9.7809559341868173 0 1 0 I I #
vertex $-1 $519 $674 #
point $-1 40.832643108347789 7.2659850226674045 1.5612859607195189 #
vertex $-1 $523 $675 #
point $-1 40.832643108347789 10.646701429231282 1.5612859607195189 #
straight-curve $-1 -48.219244972075565 26.127893749174522 0 0 0 -1 I I #
straight-curve $-1 0 26.127893749174522 -9.7809559341868173 1 0 0 I I #
point $-1 48.219244972075565 26.127893749174522 -9.7809559341868173 #
straight-curve $-1 -48.219244972075565 0 9.7809559341868173 0 -1 0 I I #
point $-1 -48.219244972075565 26.127893749174522 9.7809559341868173 #
straight-curve $-1 48.219244972075565 26.127893749174522 0 0 0 -1 I I #
point $-1 -48.219244972075565 26.127893749174522 -9.7809559341868173 #
edge $-1 $639 -9.7809559341868173 $554 9.7809559341868173 $546 $676 forward 7 unknown #
straight-curve $-1 -34.319206616266996 -38.369709182183655 -9.7809559341868173 -1 0 0 I I #
vertex $-1 $560 $677 #
straight-curve $-1 -34.319206616266996 -38.369709182183655 9.7809559341868173 1 0 0 I I #
point $-1 -37.159047934394174 -38.369709182183655 9.7809559341868173 #
point $-1 -37.159047934394174 -38.369709182183655 -9.7809559341868173 #
point $-1 -31.479365298139822 -38.369709182183655 -9.7809559341868173 #
straight-curve $-1 -31.479365298139822 -32.248801465679087 9.7809559341868173 0 1 0 I I #
coedge $-1 $565 $564 $576 $651 reversed $273 $-1 #
edge $-1 $652 -48.219244972075565 $571 48.219244972075565 $564 $678 forward 7 unknown #
straight-curve $-1 48.219244972075565 35.338314318047189 -7.8819872349920095 0 0 -1 I I #
straight-curve $-1 0 35.338314318047189 -5.9830185357972017 -1 0 0 I I #
point $-1 48.219244972075565 35.338314318047189 -5.9830185357972017 #
point $-1 48.219244972075565 35.338314318047189 -9.7809559341868173 #
edge $-1 $579 -1.8989686991948078 $652 1.8989686991948078 $645 $679 forward 7 unknown #
vertex $-1 $646 $680 #
straight-curve $-1 -48.219244972075565 30.733104033610854 -9.7809559341868173 0 1 0 I I #
point $-1 -48.219244972075565 35.338314318047189 -5.9830185357972017 #
straight-curve $-1 -48.219244972075565 -5.764546397973076 38.114226706122601 0 0 -1 I I #
point $-1 -48.219244972075565 -5.764546397973076 9.7809559341868173 #
straight-curve $-1 -48.219244972075565 -4.3888678945621162 5.697807542221291 0 -1 0 I I #
point $-1 -48.219244972075565 -5.764546397973076 5.6978075422212919 #
point $-1 -45.006927181517483 -8.7777357891242325 6.6423511971171605 #
straight-curve $-1 -48.219244972075565 4.503304100849336 38.114226706122601 0 0 -1 I I #
point $-1 -48.219244972075565 4.503304100849336 9.7809559341868173 #
straight-curve $-1 -48.219244972075565 0.74505735484908975 5.697807542221291 0 -1 0 I I #
point $-1 -48.219244972075565 4.503304100849336 5.6978075422212919 #
point $-1 -45.006927181517483 1.4901147096981795 6.6423511971171605 #
straight-curve $-1 -48.219244972075565 14.771154599671748 38.114226706122601 0 0 -1 I I #
point $-1 -48.219244972075565 14.771154599671748 9.7809559341868173 #
straight-curve $-1 -48.219244972075565 5.8789826042602957 5.697807542221291 0 -1 0 I I #
point $-1 -48.219244972075565 14.771154599671748 5.6978075422212919 #
point $-1 -45.006927181517483 11.757965208520591 6.6423511971171605 #
straight-curve $-1 48.219244972075565 5.012174084958156 67.964124297407182 0 0 -1 I I #
point $-1 48.219244972075565 5.012174084958156 9.7809559341868173 #
straight-curve $-1 48.219244972075565 4.4781716129746751 0.29075725844701594 0 1 0 I I #
point $-1 48.219244972075558 5.012174084958156 0.29075725844702305 #
point $-1 39.426176754354515 7.2659850226674045 1.4134604044551708 #
point $-1 39.426176754354515 10.646701429231282 1.4134604044551708 #
straight-curve $-1 -31.479365298139822 -38.369709182183655 0 0 0 -1 I I #
point $-1 -31.479365298139822 -38.369709182183655 9.7809559341868173 #
straight-curve $-1 0 35.338314318047189 -9.7809559341868173 1 0 0 I I #
straight-curve $-1 -48.219244972075565 35.338314318047189 -7.8819872349920095 0 0 -1 I I #
point $-1 -48.219244972075565 35.338314318047189 -9.7809559341868173 #
End-of-ACIS-data 