500 0 17 0           
7 Unknown 11 ACIS 5.0 NT 24 Fri Mar 26 03:03:06 1999 
-1 9.9999999999999995e-007 1e-010 
body $-1 $17 $-1 $18 #
body $-1 $19 $-1 $20 #
body $-1 $21 $-1 $22 #
body $-1 $23 $-1 $24 #
body $-1 $25 $-1 $26 #
body $-1 $27 $-1 $28 #
body $-1 $29 $-1 $30 #
body $-1 $31 $-1 $32 #
body $-1 $33 $-1 $34 #
body $-1 $35 $-1 $36 #
body $-1 $37 $-1 $38 #
body $-1 $39 $-1 $40 #
body $-1 $41 $-1 $42 #
body $-1 $43 $-1 $44 #
body $-1 $45 $-1 $46 #
body $-1 $47 $-1 $48 #
body $-1 $49 $-1 $50 #
lump $-1 $-1 $51 $0 #
transform $-1 1 0 0 0 1 0 0 0 1 44.24085207678457 20.38343894171626 4.257897412773989 1 rotate no_reflect no_shear #
lump $-1 $-1 $52 $1 #
transform $-1 1 0 0 0 1 0 0 0 1 44.24085207678457 20.38343894171626 4.257897412773989 1 rotate no_reflect no_shear #
lump $-1 $-1 $53 $2 #
transform $-1 1 0 0 0 1 0 0 0 1 44.24085207678457 20.38343894171626 4.257897412773989 1 rotate no_reflect no_shear #
lump $-1 $-1 $54 $3 #
transform $-1 1 0 0 0 1 0 0 0 1 44.24085207678457 20.38343894171626 4.257897412773989 1 rotate no_reflect no_shear #
lump $-1 $-1 $55 $4 #
transform $-1 1 0 0 0 1 0 0 0 1 44.24085207678457 20.38343894171626 4.257897412773989 1 rotate no_reflect no_shear #
lump $-1 $-1 $56 $5 #
transform $-1 1 0 0 0 1 0 0 0 1 44.24085207678457 20.38343894171626 4.257897412773989 1 rotate no_reflect no_shear #
lump $-1 $-1 $57 $6 #
transform $-1 1 0 0 0 1 0 0 0 1 44.24085207678457 20.38343894171626 4.257897412773989 1 rotate no_reflect no_shear #
lump $-1 $-1 $58 $7 #
transform $-1 1 0 0 0 1 0 0 0 1 44.24085207678457 20.38343894171626 4.257897412773989 1 rotate no_reflect no_shear #
lump $-1 $-1 $59 $8 #
transform $-1 1 0 0 0 1 0 0 0 1 44.24085207678457 20.38343894171626 4.257897412773989 1 rotate no_reflect no_shear #
lump $-1 $-1 $60 $9 #
transform $-1 1 0 0 0 1 0 0 0 1 44.24085207678457 20.38343894171626 4.257897412773989 1 rotate no_reflect no_shear #
lump $-1 $-1 $61 $10 #
transform $-1 1 0 0 0 1 0 0 0 1 44.24085207678457 20.38343894171626 4.257897412773989 1 rotate no_reflect no_shear #
lump $-1 $-1 $62 $11 #
transform $-1 1 0 0 0 1 0 0 0 1 44.24085207678457 20.38343894171626 4.257897412773989 1 rotate no_reflect no_shear #
lump $-1 $-1 $63 $12 #
transform $-1 1 0 0 0 1 0 0 0 1 44.24085207678457 20.38343894171626 4.257897412773989 1 rotate no_reflect no_shear #
lump $-1 $-1 $64 $13 #
transform $-1 1 0 0 0 1 0 0 0 1 44.24085207678457 20.38343894171626 4.257897412773989 1 rotate no_reflect no_shear #
lump $-1 $-1 $65 $14 #
transform $-1 1 0 0 0 1 0 0 0 1 44.24085207678457 20.38343894171626 4.257897412773989 1 rotate no_reflect no_shear #
lump $-1 $-1 $66 $15 #
transform $-1 1 0 0 0 1 0 0 0 1 44.24085207678457 20.38343894171626 4.257897412773989 1 rotate no_reflect no_shear #
lump $-1 $-1 $67 $16 #
transform $-1 1 0 0 0 1 0 0 0 1 44.24085207678457 20.38343894171626 4.257897412773989 1 rotate no_reflect no_shear #
shell $-1 $-1 $-1 $68 $-1 $17 #
shell $-1 $-1 $-1 $69 $-1 $19 #
shell $-1 $-1 $-1 $70 $-1 $21 #
shell $-1 $-1 $-1 $71 $-1 $23 #
shell $-1 $-1 $-1 $72 $-1 $25 #
shell $-1 $-1 $-1 $73 $-1 $27 #
shell $-1 $-1 $-1 $74 $-1 $29 #
shell $-1 $-1 $-1 $75 $-1 $31 #
shell $-1 $-1 $-1 $76 $-1 $33 #
shell $-1 $-1 $-1 $77 $-1 $35 #
shell $-1 $-1 $-1 $78 $-1 $37 #
shell $-1 $-1 $-1 $79 $-1 $39 #
shell $-1 $-1 $-1 $80 $-1 $41 #
shell $-1 $-1 $-1 $81 $-1 $43 #
shell $-1 $-1 $-1 $82 $-1 $45 #
shell $-1 $-1 $-1 $83 $-1 $47 #
shell $-1 $-1 $-1 $84 $-1 $49 #
face $-1 $85 $86 $51 $-1 $87 forward single #
face $-1 $88 $89 $52 $-1 $90 forward single #
face $-1 $91 $92 $53 $-1 $93 reversed single #
face $-1 $94 $95 $54 $-1 $96 forward single #
face $-1 $97 $98 $55 $-1 $99 forward single #
face $-1 $100 $101 $56 $-1 $102 reversed single #
face $-1 $103 $104 $57 $-1 $105 forward single #
face $-1 $106 $107 $58 $-1 $108 forward single #
face $-1 $109 $110 $59 $-1 $111 reversed single #
face $-1 $112 $113 $60 $-1 $114 forward single #
face $-1 $115 $116 $61 $-1 $117 forward single #
face $-1 $118 $119 $62 $-1 $120 reversed single #
face $-1 $121 $122 $63 $-1 $123 forward single #
face $-1 $124 $125 $64 $-1 $126 forward single #
face $-1 $127 $128 $65 $-1 $129 reversed single #
face $-1 $130 $131 $66 $-1 $132 forward single #
face $-1 $133 $134 $67 $-1 $135 forward single #
face $-1 $136 $137 $51 $-1 $138 reversed single #
loop $-1 $-1 $139 $68 #
plane-surface $-1 0 0 4.257897412773989 0 0 1 1 0 0 forward_v I I I I #
face $-1 $140 $141 $52 $-1 $142 reversed single #
loop $-1 $-1 $143 $69 #
plane-surface $-1 0 -18.88343894171626 -1.257897412773989 0 0 1 1 0 0 forward_v I I I I #
face $-1 $144 $145 $53 $-1 $146 reversed single #
loop $-1 $-1 $147 $70 #
plane-surface $-1 44.240853528635363 -1.6168910410013284 126.1034635806547 0 -1 0 -0.70710678939079041 0 -0.70710677298230451 forward_v I I I I #
face $-1 $148 $149 $54 $-1 $150 forward single #
loop $-1 $151 $152 $71 #
cone-surface $-1 42.054808148403907 -8.3269896807763129 2.0718534588580479 -0.70710678939079041 0 -0.70710677298230451 0.35355338649115226 0 -0.35355339469539521 1 I I 0 1 0.5 forward I I I I #
face $-1 $153 $154 $55 $-1 $155 forward single #
loop $-1 $156 $157 $72 #
cone-surface $-1 42.054808148403907 -4.3009304969113238 2.0718534588580479 -0.70710678939079041 0 -0.70710677298230451 0.35355338649115226 0 -0.35355339469539521 1 I I 0 1 0.5 forward I I I I #
face $-1 $158 $159 $56 $-1 $160 reversed single #
loop $-1 $-1 $161 $73 #
plane-surface $-1 44.240853528635363 17.266547900714929 126.1034635806547 0 -1 0 -0.70710678939079041 0 -0.70710677298230451 forward_v I I I I #
face $-1 $162 $163 $57 $-1 $164 forward single #
loop $-1 $165 $166 $74 #
cone-surface $-1 42.054808148403907 10.556449260939946 2.0718534588580479 -0.70710678939079041 0 -0.70710677298230451 0.35355338649115226 0 -0.35355339469539521 1 I I 0 1 0.5 forward I I I I #
face $-1 $167 $168 $58 $-1 $169 forward single #
loop $-1 $170 $171 $75 #
cone-surface $-1 42.054808148403907 14.582508444804933 2.0718534588580479 -0.70710678939079041 0 -0.70710677298230451 0.35355338649115226 0 -0.35355339469539521 1 I I 0 1 0.5 forward I I I I #
face $-1 $172 $173 $59 $-1 $174 reversed single #
loop $-1 $-1 $175 $76 #
plane-surface $-1 -119.27759353007929 -14.901781768418656 47.341150459546625 0 1 0 -0.84804810408105047 0 0.52991925155115449 forward_v I I I I #
face $-1 $176 $177 $60 $-1 $178 forward single #
loop $-1 $179 $180 $77 #
cone-surface $-1 -41.733590649096527 -12.616358104799938 1.5315688224784985 0.84804810408105047 0 -0.52991925155115449 0.52991925155115449 0 0.84804810408105047 1 I I 0 1 1 forward I I I I #
face $-1 $181 $182 $61 $-1 $183 forward single #
loop $-1 $184 $185 $78 #
cone-surface $-1 -41.733590649096527 -9.1882226093718593 1.5315688224784985 0.84804810408105047 0 -0.52991925155115449 0.52991925155115449 0 0.84804810408105047 1 I I 0 1 1 forward I I I I #
face $-1 $186 $187 $62 $-1 $188 reversed single #
loop $-1 $-1 $189 $79 #
plane-surface $-1 -119.27759353007929 -2.4994914113327571 47.341150459546625 0 1 0 -0.84804810408105047 0 0.52991925155115449 forward_v I I I I #
face $-1 $190 $191 $63 $-1 $192 forward single #
loop $-1 $193 $194 $80 #
cone-surface $-1 -41.733590649096527 -0.21406774771403647 1.5315688224784985 0.84804810408105047 0 -0.52991925155115449 0.52991925155115449 0 0.84804810408105047 1 I I 0 1 1 forward I I I I #
face $-1 $195 $196 $64 $-1 $197 forward single #
loop $-1 $198 $199 $81 #
cone-surface $-1 -41.733590649096527 3.21406774771404 1.5315688224784985 0.84804810408105047 0 -0.52991925155115449 0.52991925155115449 0 0.84804810408105047 1 I I 0 1 1 forward I I I I #
face $-1 $200 $201 $65 $-1 $202 reversed single #
loop $-1 $-1 $203 $82 #
plane-surface $-1 -119.27759353007929 9.9027989457531422 47.341150459546625 0 1 0 -0.84804810408105047 0 0.52991925155115449 forward_v I I I I #
face $-1 $204 $205 $66 $-1 $206 forward single #
loop $-1 $207 $208 $83 #
cone-surface $-1 -41.733590649096527 12.188222609371866 1.5315688224784985 0.84804810408105047 0 -0.52991925155115449 0.52991925155115449 0 0.84804810408105047 1 I I 0 1 1 forward I I I I #
face $-1 $209 $210 $67 $-1 $211 forward single #
loop $-1 $212 $213 $84 #
cone-surface $-1 -41.733590649096527 15.616358104799939 1.5315688224784985 0.84804810408105047 0 -0.52991925155115449 0.52991925155115449 0 0.84804810408105047 1 I I 0 1 1 forward I I I I #
face $-1 $214 $215 $51 $-1 $216 reversed single #
loop $-1 $-1 $217 $85 #
plane-surface $-1 0 0 -4.257897412773989 0 0 1 1 0 0 forward_v I I I I #
coedge $-1 $218 $219 $220 $221 forward $86 $-1 #
face $-1 $222 $223 $52 $-1 $224 reversed single #
loop $-1 $-1 $225 $88 #
plane-surface $-1 0 -17.38343894171626 -2.757897412773989 0 -1 0 0 0 -1 forward_v I I I I #
coedge $-1 $226 $227 $228 $229 reversed $89 $-1 #
face $-1 $230 $231 $53 $-1 $232 reversed single #
loop $-1 $-1 $233 $91 #
plane-surface $-1 -18.325160215220677 -6.3139600888438174 63.537451288649457 0.70710678939079041 0 0.70710677298230451 0.70710677298230451 0 -0.70710678939079041 forward_v I I I I #
coedge $-1 $234 $235 $236 $237 reversed $92 $-1 #
face $-1 $-1 $238 $54 $-1 $239 forward single #
loop $-1 $240 $241 $94 #
cone-surface $-1 41.335217418534505 -8.3269896807763129 1.3522627456868257 -0.70710678939079041 0 -0.70710677298230451 0.17677669324557613 0 -0.1767766973476976 1 I I -0.70710678118654746 0.70710678118654746 0.25 forward I I I I #
loop $-1 $-1 $242 $71 #
coedge $-1 $152 $152 $243 $244 reversed $95 $-1 #
face $-1 $-1 $245 $55 $-1 $246 forward single #
loop $-1 $247 $248 $97 #
cone-surface $-1 41.335217418534505 -4.3009304969113238 1.3522627456868257 -0.70710678939079041 0 -0.70710677298230451 0.17677669324557613 0 -0.1767766973476976 1 I I -0.70710678118654746 0.70710678118654746 0.25 forward I I I I #
loop $-1 $-1 $249 $72 #
coedge $-1 $157 $157 $250 $251 reversed $98 $-1 #
face $-1 $252 $253 $56 $-1 $254 reversed single #
loop $-1 $-1 $255 $100 #
plane-surface $-1 -18.325160215220677 12.569478852872439 63.537451288649457 0.70710678939079041 0 0.70710677298230451 0.70710677298230451 0 -0.70710678939079041 forward_v I I I I #
coedge $-1 $256 $257 $258 $259 reversed $101 $-1 #
face $-1 $-1 $260 $57 $-1 $261 forward single #
loop $-1 $262 $263 $103 #
cone-surface $-1 41.335217418534505 10.556449260939946 1.3522627456868257 -0.70710678939079041 0 -0.70710677298230451 0.17677669324557613 0 -0.1767766973476976 1 I I -0.70710678118654746 0.70710678118654746 0.25 forward I I I I #
loop $-1 $-1 $264 $74 #
coedge $-1 $166 $166 $265 $266 reversed $104 $-1 #
face $-1 $-1 $267 $58 $-1 $268 forward single #
loop $-1 $269 $270 $106 #
cone-surface $-1 41.335217418534505 14.582508444804933 1.3522627456868257 -0.70710678939079041 0 -0.70710677298230451 0.17677669324557613 0 -0.1767766973476976 1 I I -0.70710678118654746 0.70710678118654746 0.25 forward I I I I #
loop $-1 $-1 $271 $75 #
coedge $-1 $171 $171 $272 $273 reversed $107 $-1 #
face $-1 $274 $275 $59 $-1 $276 reversed single #
loop $-1 $-1 $277 $109 #
plane-surface $-1 -44.240852076784563 -10.902290357085899 0.45299201851658921 -0.84804810408105047 0 0.52991925155115449 0.52991925155115449 0 0.84804810408105047 forward_v I I I I #
coedge $-1 $278 $279 $280 $281 reversed $110 $-1 #
face $-1 $-1 $282 $60 $-1 $283 forward single #
loop $-1 $284 $285 $112 #
cone-surface $-1 -39.991089513702228 -12.616358104799938 0.44273330353613005 0.84804810408105047 0 -0.52991925155115449 0.26495962577557725 0 0.42402405204052523 1 I I -0.70710678118654735 0.70710678118654768 0.5 forward I I I I #
loop $-1 $-1 $286 $77 #
coedge $-1 $180 $180 $287 $288 reversed $113 $-1 #
face $-1 $-1 $289 $61 $-1 $290 forward single #
loop $-1 $291 $292 $115 #
cone-surface $-1 -39.991089513702228 -9.1882226093718593 0.44273330353613005 0.84804810408105047 0 -0.52991925155115449 0.26495962577557725 0 0.42402405204052523 1 I I -0.70710678118654735 0.70710678118654768 0.5 forward I I I I #
loop $-1 $-1 $293 $78 #
coedge $-1 $185 $185 $294 $295 reversed $116 $-1 #
face $-1 $296 $297 $62 $-1 $298 reversed single #
loop $-1 $-1 $299 $118 #
plane-surface $-1 -44.240852076784563 1.5 0.45299201851658921 -0.84804810408105047 0 0.52991925155115449 0.52991925155115449 0 0.84804810408105047 forward_v I I I I #
coedge $-1 $300 $301 $302 $303 reversed $119 $-1 #
face $-1 $-1 $304 $63 $-1 $305 forward single #
loop $-1 $306 $307 $121 #
cone-surface $-1 -39.991089513702228 -0.21406774771403647 0.44273330353613005 0.84804810408105047 0 -0.52991925155115449 0.26495962577557725 0 0.42402405204052523 1 I I -0.70710678118654735 0.70710678118654768 0.5 forward I I I I #
loop $-1 $-1 $308 $80 #
coedge $-1 $194 $194 $309 $310 reversed $122 $-1 #
face $-1 $-1 $311 $64 $-1 $312 forward single #
loop $-1 $313 $314 $124 #
cone-surface $-1 -39.991089513702228 3.21406774771404 0.44273330353613005 0.84804810408105047 0 -0.52991925155115449 0.26495962577557725 0 0.42402405204052523 1 I I -0.70710678118654735 0.70710678118654768 0.5 forward I I I I #
loop $-1 $-1 $315 $81 #
coedge $-1 $199 $199 $316 $317 reversed $125 $-1 #
face $-1 $318 $319 $65 $-1 $320 reversed single #
loop $-1 $-1 $321 $127 #
plane-surface $-1 -44.240852076784563 13.902290357085899 0.45299201851658921 -0.84804810408105047 0 0.52991925155115449 0.52991925155115449 0 0.84804810408105047 forward_v I I I I #
coedge $-1 $322 $323 $324 $325 reversed $128 $-1 #
face $-1 $-1 $326 $66 $-1 $327 forward single #
loop $-1 $328 $329 $130 #
cone-surface $-1 -39.991089513702228 12.188222609371866 0.44273330353613005 0.84804810408105047 0 -0.52991925155115449 0.26495962577557725 0 0.42402405204052523 1 I I -0.70710678118654735 0.70710678118654768 0.5 forward I I I I #
loop $-1 $-1 $330 $83 #
coedge $-1 $208 $208 $331 $332 reversed $131 $-1 #
face $-1 $-1 $333 $67 $-1 $334 forward single #
loop $-1 $335 $336 $133 #
cone-surface $-1 -39.991089513702228 15.616358104799939 0.44273330353613005 0.84804810408105047 0 -0.52991925155115449 0.26495962577557725 0 0.42402405204052523 1 I I -0.70710678118654735 0.70710678118654768 0.5 forward I I I I #
loop $-1 $-1 $337 $84 #
coedge $-1 $213 $213 $338 $339 reversed $134 $-1 #
face $-1 $340 $341 $51 $-1 $342 reversed single #
loop $-1 $-1 $343 $136 #
plane-surface $-1 0 -20.38343894171626 0 0 1 0 0 0 1 forward_v I I I I #
coedge $-1 $344 $345 $346 $347 forward $137 $-1 #
coedge $-1 $348 $139 $349 $350 forward $86 $-1 #
coedge $-1 $139 $348 $351 $352 forward $86 $-1 #
coedge $-1 $353 $354 $139 $221 reversed $355 $-1 #
edge $-1 $356 -20.38343894171626 $357 20.38343894171626 $220 $358 forward 7 unknown #
face $-1 $359 $360 $52 $-1 $361 reversed single #
loop $-1 $-1 $362 $140 #
plane-surface $-1 0 0 -4.257897412773989 0 0 1 1 0 0 forward_v I I I I #
coedge $-1 $363 $364 $365 $366 reversed $141 $-1 #
coedge $-1 $367 $143 $364 $368 forward $89 $-1 #
coedge $-1 $143 $367 $369 $370 reversed $89 $-1 #
coedge $-1 $371 $365 $143 $229 forward $360 $-1 #
edge $-1 $372 7.9417194708581302 $373 10.94171947085813 $228 $374 forward 7 unknown #
face $-1 $375 $376 $53 $-1 $377 reversed single #
loop $-1 $-1 $378 $144 #
plane-surface $-1 44.240853528635363 -11.011029136686307 126.1034635806547 0 1 0 0.70710678939079041 0 0.70710677298230451 forward_v I I I I #
coedge $-1 $379 $380 $381 $382 reversed $145 $-1 #
coedge $-1 $235 $147 $383 $384 reversed $92 $-1 #
coedge $-1 $147 $234 $379 $385 reversed $92 $-1 #
coedge $-1 $381 $386 $147 $237 forward $387 $-1 #
edge $-1 $388 -22.120425312466889 $389 -18.833965520748951 $236 $390 forward 7 unknown #
loop $-1 $-1 $243 $148 #
plane-surface $-1 -18.325160215220677 -6.3139600888438174 63.537451288649457 0.70710678939079041 0 0.70710677298230451 0.70710677298230451 0 -0.70710678939079041 forward_v I I I I #
loop $-1 $-1 $391 $94 #
coedge $-1 $241 $241 $242 $392 reversed $149 $-1 #
coedge $-1 $242 $242 $241 $392 forward $151 $-1 #
coedge $-1 $243 $243 $152 $244 forward $238 $-1 #
edge $-1 $393 0 $393 6.2831853071796004 $243 $394 forward 7 unknown #
loop $-1 $-1 $250 $153 #
plane-surface $-1 -18.325160215220677 -6.3139600888438174 63.537451288649457 0.70710678939079041 0 0.70710677298230451 0.70710677298230451 0 -0.70710678939079041 forward_v I I I I #
loop $-1 $-1 $395 $97 #
coedge $-1 $248 $248 $249 $396 reversed $154 $-1 #
coedge $-1 $249 $249 $248 $396 forward $156 $-1 #
coedge $-1 $250 $250 $157 $251 forward $245 $-1 #
edge $-1 $397 0 $397 6.2831853071796004 $250 $398 forward 7 unknown #
face $-1 $399 $400 $56 $-1 $401 reversed single #
loop $-1 $-1 $402 $158 #
plane-surface $-1 44.240853528635363 7.8724098050299505 126.1034635806547 0 1 0 0.70710678939079041 0 0.70710677298230451 forward_v I I I I #
coedge $-1 $403 $404 $405 $406 reversed $159 $-1 #
coedge $-1 $257 $161 $407 $408 reversed $101 $-1 #
coedge $-1 $161 $256 $403 $409 reversed $101 $-1 #
coedge $-1 $405 $410 $161 $259 forward $411 $-1 #
edge $-1 $412 -22.120425312466889 $413 -18.833965520748951 $258 $414 forward 7 unknown #
loop $-1 $-1 $265 $162 #
plane-surface $-1 -18.325160215220677 12.569478852872439 63.537451288649457 0.70710678939079041 0 0.70710677298230451 0.70710677298230451 0 -0.70710678939079041 forward_v I I I I #
loop $-1 $-1 $415 $103 #
coedge $-1 $263 $263 $264 $416 reversed $163 $-1 #
coedge $-1 $264 $264 $263 $416 forward $165 $-1 #
coedge $-1 $265 $265 $166 $266 forward $260 $-1 #
edge $-1 $417 0 $417 6.2831853071796004 $265 $418 forward 7 unknown #
loop $-1 $-1 $272 $167 #
plane-surface $-1 -18.325160215220677 12.569478852872439 63.537451288649457 0.70710678939079041 0 0.70710677298230451 0.70710677298230451 0 -0.70710678939079041 forward_v I I I I #
loop $-1 $-1 $419 $106 #
coedge $-1 $270 $270 $271 $420 reversed $168 $-1 #
coedge $-1 $271 $271 $270 $420 forward $170 $-1 #
coedge $-1 $272 $272 $171 $273 forward $267 $-1 #
edge $-1 $421 0 $421 6.2831853071796004 $272 $422 forward 7 unknown #
face $-1 $423 $424 $59 $-1 $425 forward single #
loop $-1 $-1 $426 $172 #
plane-surface $-1 -119.27759353007929 -6.9027989457531422 47.341150459546625 0 -1 0 0.84804810408105047 0 -0.52991925155115449 forward_v I I I I #
coedge $-1 $427 $428 $429 $430 reversed $173 $-1 #
coedge $-1 $279 $175 $431 $432 reversed $110 $-1 #
coedge $-1 $175 $278 $427 $433 reversed $110 $-1 #
coedge $-1 $429 $434 $175 $281 forward $424 $-1 #
edge $-1 $435 15.397944688255073 $436 17.775513376923627 $280 $437 forward 7 unknown #
loop $-1 $-1 $287 $176 #
plane-surface $-1 -44.240852076784563 -10.902290357085899 0.45299201851658921 -0.84804810408105047 0 0.52991925155115449 0.52991925155115449 0 0.84804810408105047 forward_v I I I I #
loop $-1 $-1 $438 $112 #
coedge $-1 $285 $285 $286 $439 reversed $177 $-1 #
coedge $-1 $286 $286 $285 $439 forward $179 $-1 #
coedge $-1 $287 $287 $180 $288 forward $282 $-1 #
edge $-1 $440 0 $440 6.2831853071796004 $287 $441 forward 7 unknown #
loop $-1 $-1 $294 $181 #
plane-surface $-1 -44.240852076784563 -10.902290357085899 0.45299201851658921 -0.84804810408105047 0 0.52991925155115449 0.52991925155115449 0 0.84804810408105047 forward_v I I I I #
loop $-1 $-1 $442 $115 #
coedge $-1 $292 $292 $293 $443 reversed $182 $-1 #
coedge $-1 $293 $293 $292 $443 forward $184 $-1 #
coedge $-1 $294 $294 $185 $295 forward $289 $-1 #
edge $-1 $444 0 $444 6.2831853071796004 $294 $445 forward 7 unknown #
face $-1 $446 $447 $62 $-1 $448 forward single #
loop $-1 $-1 $449 $186 #
plane-surface $-1 -119.27759353007929 5.4994914113327571 47.341150459546625 0 -1 0 0.84804810408105047 0 -0.52991925155115449 forward_v I I I I #
coedge $-1 $450 $451 $452 $453 reversed $187 $-1 #
coedge $-1 $301 $189 $454 $455 reversed $119 $-1 #
coedge $-1 $189 $300 $450 $456 reversed $119 $-1 #
coedge $-1 $452 $457 $189 $303 forward $447 $-1 #
edge $-1 $458 15.397944688255073 $459 17.775513376923627 $302 $460 forward 7 unknown #
loop $-1 $-1 $309 $190 #
plane-surface $-1 -44.240852076784563 1.5 0.45299201851658921 -0.84804810408105047 0 0.52991925155115449 0.52991925155115449 0 0.84804810408105047 forward_v I I I I #
loop $-1 $-1 $461 $121 #
coedge $-1 $307 $307 $308 $462 reversed $191 $-1 #
coedge $-1 $308 $308 $307 $462 forward $193 $-1 #
coedge $-1 $309 $309 $194 $310 forward $304 $-1 #
edge $-1 $463 0 $463 6.2831853071796004 $309 $464 forward 7 unknown #
loop $-1 $-1 $316 $195 #
plane-surface $-1 -44.240852076784563 1.5 0.45299201851658921 -0.84804810408105047 0 0.52991925155115449 0.52991925155115449 0 0.84804810408105047 forward_v I I I I #
loop $-1 $-1 $465 $124 #
coedge $-1 $314 $314 $315 $466 reversed $196 $-1 #
coedge $-1 $315 $315 $314 $466 forward $198 $-1 #
coedge $-1 $316 $316 $199 $317 forward $311 $-1 #
edge $-1 $467 0 $467 6.2831853071796004 $316 $468 forward 7 unknown #
face $-1 $469 $470 $65 $-1 $471 forward single #
loop $-1 $-1 $472 $200 #
plane-surface $-1 -119.27759353007929 17.901781768418658 47.341150459546625 0 -1 0 0.84804810408105047 0 -0.52991925155115449 forward_v I I I I #
coedge $-1 $473 $474 $475 $476 reversed $201 $-1 #
coedge $-1 $323 $203 $477 $478 reversed $128 $-1 #
coedge $-1 $203 $322 $473 $479 reversed $128 $-1 #
coedge $-1 $475 $480 $203 $325 forward $470 $-1 #
edge $-1 $481 15.397944688255073 $482 17.775513376923627 $324 $483 forward 7 unknown #
loop $-1 $-1 $331 $204 #
plane-surface $-1 -44.240852076784563 13.902290357085899 0.45299201851658921 -0.84804810408105047 0 0.52991925155115449 0.52991925155115449 0 0.84804810408105047 forward_v I I I I #
loop $-1 $-1 $484 $130 #
coedge $-1 $329 $329 $330 $485 reversed $205 $-1 #
coedge $-1 $330 $330 $329 $485 forward $207 $-1 #
coedge $-1 $331 $331 $208 $332 forward $326 $-1 #
edge $-1 $486 0 $486 6.2831853071796004 $331 $487 forward 7 unknown #
loop $-1 $-1 $338 $209 #
plane-surface $-1 -44.240852076784563 13.902290357085899 0.45299201851658921 -0.84804810408105047 0 0.52991925155115449 0.52991925155115449 0 0.84804810408105047 forward_v I I I I #
loop $-1 $-1 $488 $133 #
coedge $-1 $336 $336 $337 $489 reversed $210 $-1 #
coedge $-1 $337 $337 $336 $489 forward $212 $-1 #
coedge $-1 $338 $338 $213 $339 forward $333 $-1 #
edge $-1 $490 0 $490 6.2831853071796004 $338 $491 forward 7 unknown #
face $-1 $492 $493 $51 $-1 $494 reversed single #
loop $-1 $-1 $495 $214 #
plane-surface $-1 -44.24085207678457 0 0 1 0 0 0 0 -1 forward_v I I I I #
coedge $-1 $496 $351 $497 $498 forward $215 $-1 #
coedge $-1 $499 $217 $496 $500 forward $137 $-1 #
coedge $-1 $217 $499 $501 $502 forward $137 $-1 #
coedge $-1 $354 $353 $217 $347 reversed $355 $-1 #
edge $-1 $503 -20.38343894171626 $504 20.38343894171626 $346 $505 forward 7 unknown #
coedge $-1 $219 $218 $506 $507 forward $86 $-1 #
coedge $-1 $508 $509 $218 $350 reversed $493 $-1 #
edge $-1 $357 -44.24085207678457 $510 44.24085207678457 $349 $511 forward 7 unknown #
coedge $-1 $343 $512 $219 $352 reversed $215 $-1 #
edge $-1 $513 -44.24085207678457 $356 44.24085207678457 $351 $514 forward 7 unknown #
coedge $-1 $346 $220 $512 $515 forward $355 $-1 #
coedge $-1 $220 $346 $508 $516 reversed $355 $-1 #
loop $-1 $-1 $353 $492 #
vertex $-1 $221 $517 #
vertex $-1 $221 $518 #
straight-curve $-1 44.24085207678457 0 4.257897412773989 0 1 0 I I #
face $-1 $519 $520 $52 $-1 $521 reversed single #
loop $-1 $-1 $365 $222 #
plane-surface $-1 44.24085207678457 0 0 -1 0 0 0 0 1 forward_v I I I I #
coedge $-1 $522 $523 $363 $524 forward $223 $-1 #
coedge $-1 $525 $225 $362 $524 reversed $141 $-1 #
coedge $-1 $225 $525 $226 $368 reversed $141 $-1 #
coedge $-1 $228 $526 $225 $366 forward $360 $-1 #
edge $-1 $527 -2.8789487063869945 $372 0.12105129361300548 $365 $528 forward 7 unknown #
coedge $-1 $227 $226 $529 $530 reversed $89 $-1 #
edge $-1 $372 -44.24085207678457 $531 44.24085207678457 $364 $532 forward 7 unknown #
coedge $-1 $533 $534 $227 $370 forward $520 $-1 #
edge $-1 $373 -44.24085207678457 $535 44.24085207678457 $369 $536 forward 7 unknown #
coedge $-1 $526 $228 $534 $537 forward $360 $-1 #
vertex $-1 $229 $538 #
vertex $-1 $537 $539 #
straight-curve $-1 44.24085207678457 -9.4417194708581302 -1.257897412773989 0 -1 0 I I #
face $-1 $-1 $387 $53 $-1 $540 forward single #
loop $-1 $-1 $541 $230 #
plane-surface $-1 44.24085207678457 0 0 -1 0 0 0 0 1 forward_v I I I I #
coedge $-1 $542 $543 $544 $545 reversed $231 $-1 #
coedge $-1 $546 $233 $235 $385 forward $145 $-1 #
coedge $-1 $233 $546 $542 $547 forward $145 $-1 #
coedge $-1 $544 $236 $233 $382 forward $387 $-1 #
edge $-1 $389 -1.5400890034205803 $548 7.8540490922643986 $381 $549 forward 7 unknown #
coedge $-1 $550 $551 $234 $384 forward $376 $-1 #
edge $-1 $552 -62.080294245533935 $388 -58.793834377553367 $383 $553 forward 7 unknown #
edge $-1 $389 83.833948090001982 $552 88.481704153569169 $235 $554 forward 7 unknown #
coedge $-1 $236 $544 $550 $555 forward $387 $-1 #
loop $-1 $-1 $544 $375 #
vertex $-1 $384 $556 #
vertex $-1 $237 $557 #
straight-curve $-1 22.120426764317681 -1.6168910410013284 4.2578974127739855 -1 0 0 I I #
coedge $-1 $391 $391 $-1 $558 reversed $240 $-1 #
edge $-1 $559 0 $559 6.2831853071796004 $241 $560 forward 7 unknown #
vertex $-1 $244 $561 #
ellipse-curve $-1 42.597622180925612 -8.3269896807763129 2.6146674787836934 0.70710678939079041 0 0.70710677298230451 0.35355338649115226 0 -0.35355339469539521 1 I I #
coedge $-1 $395 $395 $-1 $562 reversed $247 $-1 #
edge $-1 $563 0 $563 6.2831853071796004 $248 $564 forward 7 unknown #
vertex $-1 $251 $565 #
ellipse-curve $-1 42.597622180925612 -4.3009304969113238 2.6146674787836934 0.70710678939079041 0 0.70710677298230451 0.35355338649115226 0 -0.35355339469539521 1 I I #
face $-1 $-1 $411 $56 $-1 $566 forward single #
loop $-1 $-1 $567 $252 #
plane-surface $-1 44.24085207678457 0 0 -1 0 0 0 0 1 forward_v I I I I #
coedge $-1 $568 $569 $570 $571 reversed $253 $-1 #
coedge $-1 $572 $255 $257 $409 forward $159 $-1 #
coedge $-1 $255 $572 $568 $573 forward $159 $-1 #
coedge $-1 $570 $258 $255 $406 forward $411 $-1 #
edge $-1 $413 -10.98180847427871 $574 -1.5876703785937307 $405 $575 forward 7 unknown #
coedge $-1 $576 $577 $256 $408 forward $400 $-1 #
edge $-1 $578 -62.080294245533935 $412 -58.793834377553367 $407 $579 forward 7 unknown #
edge $-1 $413 83.833948090001982 $578 88.481704153569169 $257 $580 forward 7 unknown #
coedge $-1 $258 $570 $576 $581 forward $411 $-1 #
loop $-1 $-1 $570 $399 #
vertex $-1 $408 $582 #
vertex $-1 $259 $583 #
straight-curve $-1 22.120426764317681 17.266547900714929 4.2578974127739855 -1 0 0 I I #
coedge $-1 $415 $415 $-1 $584 reversed $262 $-1 #
edge $-1 $585 0 $585 6.2831853071796004 $263 $586 forward 7 unknown #
vertex $-1 $266 $587 #
ellipse-curve $-1 42.597622180925612 10.556449260939946 2.6146674787836934 0.70710678939079041 0 0.70710677298230451 0.35355338649115226 0 -0.35355339469539521 1 I I #
coedge $-1 $419 $419 $-1 $588 reversed $269 $-1 #
edge $-1 $589 0 $589 6.2831853071796004 $270 $590 forward 7 unknown #
vertex $-1 $273 $591 #
ellipse-curve $-1 42.597622180925612 14.582508444804933 2.6146674787836934 0.70710678939079041 0 0.70710677298230451 0.35355338649115226 0 -0.35355339469539521 1 I I #
face $-1 $-1 $592 $59 $-1 $593 reversed single #
loop $-1 $-1 $280 $274 #
plane-surface $-1 0 0 4.257897412773989 0 0 1 1 0 0 forward_v I I I I #
coedge $-1 $594 $595 $596 $597 reversed $275 $-1 #
coedge $-1 $598 $277 $279 $433 forward $173 $-1 #
coedge $-1 $277 $598 $594 $599 forward $173 $-1 #
coedge $-1 $596 $280 $277 $430 forward $424 $-1 #
edge $-1 $436 -9.4506365898757068 $600 -1.4516537672101926 $429 $601 forward 7 unknown #
coedge $-1 $602 $603 $278 $432 forward $592 $-1 #
edge $-1 $604 -23.217583211256734 $435 -19.412677816999324 $431 $605 forward 7 unknown #
edge $-1 $436 -4.4866622258184456 $604 1.3415908691481078e-014 $279 $606 forward 7 unknown #
coedge $-1 $280 $596 $602 $607 forward $424 $-1 #
vertex $-1 $432 $608 #
vertex $-1 $281 $609 #
straight-curve $-1 -59.638796765039643 -14.901781768418656 4.257897412773989 1 0 0 I I #
coedge $-1 $438 $438 $-1 $610 reversed $284 $-1 #
edge $-1 $611 0 $611 6.2831853071796004 $285 $612 forward 7 unknown #
vertex $-1 $288 $613 #
ellipse-curve $-1 -43.05206773245029 -12.616358104799938 2.3554447156452851 -0.84804810408105047 0 0.52991925155115449 0.52991925155115449 0 0.84804810408105047 1 I I #
coedge $-1 $442 $442 $-1 $614 reversed $291 $-1 #
edge $-1 $615 0 $615 6.2831853071796004 $292 $616 forward 7 unknown #
vertex $-1 $295 $617 #
ellipse-curve $-1 -43.05206773245029 -9.1882226093718593 2.3554447156452851 -0.84804810408105047 0 0.52991925155115449 0.52991925155115449 0 0.84804810408105047 1 I I #
face $-1 $-1 $618 $62 $-1 $619 reversed single #
loop $-1 $-1 $302 $296 #
plane-surface $-1 0 0 4.257897412773989 0 0 1 1 0 0 forward_v I I I I #
coedge $-1 $620 $621 $622 $623 reversed $297 $-1 #
coedge $-1 $624 $299 $301 $456 forward $187 $-1 #
coedge $-1 $299 $624 $620 $625 forward $187 $-1 #
coedge $-1 $622 $302 $299 $453 forward $447 $-1 #
edge $-1 $459 -3.2494914113327571 $626 4.7494914113327571 $452 $627 forward 7 unknown #
coedge $-1 $628 $629 $300 $455 forward $618 $-1 #
edge $-1 $630 -23.217583211256734 $458 -19.412677816999324 $454 $631 forward 7 unknown #
edge $-1 $459 -4.4866622258184456 $630 1.3415908691481078e-014 $301 $632 forward 7 unknown #
coedge $-1 $302 $622 $628 $633 forward $447 $-1 #
vertex $-1 $303 $634 #
vertex $-1 $303 $635 #
straight-curve $-1 -59.638796765039643 -2.4994914113327571 4.257897412773989 1 0 0 I I #
coedge $-1 $461 $461 $-1 $636 reversed $306 $-1 #
edge $-1 $637 0 $637 6.2831853071796004 $307 $638 forward 7 unknown #
vertex $-1 $310 $639 #
ellipse-curve $-1 -43.05206773245029 -0.21406774771403647 2.3554447156452851 -0.84804810408105047 0 0.52991925155115449 0.52991925155115449 0 0.84804810408105047 1 I I #
coedge $-1 $465 $465 $-1 $640 reversed $313 $-1 #
edge $-1 $641 0 $641 6.2831853071796004 $314 $642 forward 7 unknown #
vertex $-1 $317 $643 #
ellipse-curve $-1 -43.05206773245029 3.21406774771404 2.3554447156452851 -0.84804810408105047 0 0.52991925155115449 0.52991925155115449 0 0.84804810408105047 1 I I #
face $-1 $-1 $644 $65 $-1 $645 reversed single #
loop $-1 $-1 $324 $318 #
plane-surface $-1 0 0 4.257897412773989 0 0 1 1 0 0 forward_v I I I I #
coedge $-1 $646 $647 $648 $649 reversed $319 $-1 #
coedge $-1 $650 $321 $323 $479 forward $201 $-1 #
coedge $-1 $321 $650 $646 $651 forward $201 $-1 #
coedge $-1 $648 $324 $321 $476 forward $470 $-1 #
edge $-1 $482 2.9516537672101926 $652 10.950636589875709 $475 $653 forward 7 unknown #
coedge $-1 $654 $655 $322 $478 forward $644 $-1 #
edge $-1 $656 -23.217583211256734 $481 -19.412677816999324 $477 $657 forward 7 unknown #
edge $-1 $482 -4.4866622258184456 $656 1.3415908691481078e-014 $323 $658 forward 7 unknown #
coedge $-1 $324 $648 $654 $659 forward $470 $-1 #
vertex $-1 $325 $660 #
vertex $-1 $325 $661 #
straight-curve $-1 -59.638796765039643 9.9027989457531422 4.257897412773989 1 0 0 I I #
coedge $-1 $484 $484 $-1 $662 reversed $328 $-1 #
edge $-1 $663 0 $663 6.2831853071796004 $329 $664 forward 7 unknown #
vertex $-1 $332 $665 #
ellipse-curve $-1 -43.05206773245029 12.188222609371866 2.3554447156452851 -0.84804810408105047 0 0.52991925155115449 0.52991925155115449 0 0.84804810408105047 1 I I #
coedge $-1 $488 $488 $-1 $666 reversed $335 $-1 #
edge $-1 $667 0 $667 6.2831853071796004 $336 $668 forward 7 unknown #
vertex $-1 $339 $669 #
ellipse-curve $-1 -43.05206773245029 15.616358104799939 2.3554447156452851 -0.84804810408105047 0 0.52991925155115449 0.52991925155115449 0 0.84804810408105047 1 I I #
face $-1 $-1 $355 $51 $-1 $670 reversed single #
loop $-1 $-1 $508 $340 #
plane-surface $-1 0 20.38343894171626 0 0 -1 0 0 0 -1 forward_v I I I I #
coedge $-1 $671 $506 $509 $672 forward $341 $-1 #
coedge $-1 $512 $343 $344 $500 reversed $215 $-1 #
coedge $-1 $506 $671 $343 $498 reversed $341 $-1 #
edge $-1 $513 -4.257897412773989 $673 4.257897412773989 $497 $674 forward 7 unknown #
coedge $-1 $345 $344 $671 $675 forward $137 $-1 #
edge $-1 $504 -44.24085207678457 $673 44.24085207678457 $496 $676 forward 7 unknown #
coedge $-1 $509 $508 $345 $502 reversed $493 $-1 #
edge $-1 $677 -44.24085207678457 $503 44.24085207678457 $501 $678 forward 7 unknown #
vertex $-1 $347 $679 #
vertex $-1 $515 $680 #
straight-curve $-1 44.24085207678457 0 -4.257897412773989 0 -1 0 I I #
coedge $-1 $495 $497 $348 $507 reversed $341 $-1 #
edge $-1 $510 -20.38343894171626 $513 20.38343894171626 $506 $681 forward 7 unknown #
coedge $-1 $501 $349 $354 $516 forward $493 $-1 #
coedge $-1 $349 $501 $495 $672 reversed $493 $-1 #
vertex $-1 $350 $682 #
straight-curve $-1 0 20.38343894171626 4.257897412773989 -1 0 0 I I #
coedge $-1 $351 $496 $353 $515 reversed $215 $-1 #
vertex $-1 $507 $683 #
straight-curve $-1 0 -20.38343894171626 4.257897412773989 1 0 0 I I #
edge $-1 $356 -4.257897412773989 $504 4.257897412773989 $353 $684 forward 7 unknown #
edge $-1 $357 -4.257897412773989 $503 4.257897412773989 $354 $685 forward 7 unknown #
point $-1 44.24085207678457 -20.38343894171626 4.257897412773989 #
point $-1 44.24085207678457 20.38343894171626 4.257897412773989 #
face $-1 $-1 $686 $52 $-1 $687 reversed single #
loop $-1 $-1 $369 $359 #
plane-surface $-1 0 -20.38343894171626 0 0 1 0 0 0 1 forward_v I I I I #
coedge $-1 $688 $362 $526 $689 forward $223 $-1 #
coedge $-1 $362 $688 $690 $691 forward $223 $-1 #
edge $-1 $692 -44.24085207678457 $527 44.24085207678457 $362 $693 forward 7 unknown #
coedge $-1 $364 $363 $694 $695 reversed $141 $-1 #
coedge $-1 $365 $371 $522 $689 reversed $360 $-1 #
vertex $-1 $689 $696 #
straight-curve $-1 44.24085207678457 -17.38343894171626 -1.3789487063869945 0 0 1 I I #
coedge $-1 $694 $697 $367 $530 forward $686 $-1 #
edge $-1 $535 -10.94171947085813 $531 -7.9417194708581302 $529 $698 forward 7 unknown #
vertex $-1 $530 $699 #
straight-curve $-1 0 -17.38343894171626 -1.257897412773989 -1 0 0 I I #
coedge $-1 $700 $369 $697 $701 forward $520 $-1 #
coedge $-1 $369 $700 $371 $537 reversed $520 $-1 #
vertex $-1 $701 $702 #
straight-curve $-1 0 -20.38343894171626 -1.257897412773989 -1 0 0 I I #
edge $-1 $373 1.257897412773989 $703 4.257897412773989 $371 $704 forward 7 unknown #
point $-1 44.24085207678457 -17.38343894171626 -1.257897412773989 #
point $-1 44.24085207678457 -20.38343894171626 -1.257897412773989 #
plane-surface $-1 0 0 4.257897412773989 0 0 1 1 0 0 forward_v I I I I #
coedge $-1 $551 $550 $543 $705 forward $376 $-1 #
coedge $-1 $543 $378 $380 $547 reversed $231 $-1 #
coedge $-1 $378 $542 $541 $705 reversed $231 $-1 #
coedge $-1 $386 $381 $378 $545 forward $387 $-1 #
edge $-1 $548 18.833965520748951 $706 22.120425312466889 $544 $707 forward 7 unknown #
coedge $-1 $380 $379 $551 $708 reversed $145 $-1 #
edge $-1 $709 -88.481704153569169 $548 -83.833948090001982 $542 $710 forward 7 unknown #
vertex $-1 $382 $711 #
straight-curve $-1 40.954392285066646 -3.1569800444219087 4.2578974127739784 0 -1 0 I I #
coedge $-1 $541 $383 $386 $555 reversed $376 $-1 #
coedge $-1 $383 $541 $546 $708 forward $376 $-1 #
vertex $-1 $384 $712 #
straight-curve $-1 44.24085207678457 -1.6168910410013284 63.051731790327352 0 0 1 I I #
straight-curve $-1 -18.325160215220677 -1.6168910410013284 63.537451288649457 0.70710677298230451 0 -0.70710678939079041 I I #
edge $-1 $706 -11.011029136686307 $388 -1.6168910410013284 $550 $713 forward 7 unknown #
point $-1 44.24085207678457 -1.6168910410013284 4.257897412773989 #
point $-1 40.954392285066632 -1.6168910410013284 4.2578974127739926 #
edge $-1 $714 1 $714 0 $391 $-1 forward 7 unknown #
vertex $-1 $392 $715 #
ellipse-curve $-1 41.511994115882203 -8.3269896807763129 1.5290394389324018 0.70710678939079041 0 0.70710677298230451 0.35355338649115226 0 -0.35355339469539521 1 I I #
point $-1 42.951175567416755 -8.3269896807763129 2.2611140840882991 #
edge $-1 $716 1 $716 0 $395 $-1 forward 7 unknown #
vertex $-1 $396 $717 #
ellipse-curve $-1 41.511994115882203 -4.3009304969113238 1.5290394389324018 0.70710678939079041 0 0.70710677298230451 0.35355338649115226 0 -0.35355339469539521 1 I I #
point $-1 42.951175567416755 -4.3009304969113238 2.2611140840882991 #
plane-surface $-1 0 0 4.257897412773989 0 0 1 1 0 0 forward_v I I I I #
coedge $-1 $577 $576 $569 $718 forward $400 $-1 #
coedge $-1 $569 $402 $404 $573 reversed $253 $-1 #
coedge $-1 $402 $568 $567 $718 reversed $253 $-1 #
coedge $-1 $410 $405 $402 $571 forward $411 $-1 #
edge $-1 $574 18.833965520748951 $719 22.120425312466889 $570 $720 forward 7 unknown #
coedge $-1 $404 $403 $577 $721 reversed $159 $-1 #
edge $-1 $722 -88.481704153569169 $574 -83.833948090001982 $568 $723 forward 7 unknown #
vertex $-1 $406 $724 #
straight-curve $-1 40.954392285066646 6.2847394264362197 4.2578974127739784 0 -1 0 I I #
coedge $-1 $567 $407 $410 $581 reversed $400 $-1 #
coedge $-1 $407 $567 $572 $721 forward $400 $-1 #
vertex $-1 $408 $725 #
straight-curve $-1 44.24085207678457 17.266547900714929 63.051731790327352 0 0 1 I I #
straight-curve $-1 -18.325160215220677 17.266547900714929 63.537451288649457 0.70710677298230451 0 -0.70710678939079041 I I #
edge $-1 $719 7.8724098050299505 $412 17.266547900714929 $576 $726 forward 7 unknown #
point $-1 44.24085207678457 17.266547900714929 4.257897412773989 #
point $-1 40.954392285066632 17.266547900714929 4.2578974127739926 #
edge $-1 $727 1 $727 0 $415 $-1 forward 7 unknown #
vertex $-1 $416 $728 #
ellipse-curve $-1 41.511994115882203 10.556449260939946 1.5290394389324018 0.70710678939079041 0 0.70710677298230451 0.35355338649115226 0 -0.35355339469539521 1 I I #
point $-1 42.951175567416755 10.556449260939946 2.2611140840882991 #
edge $-1 $729 1 $729 0 $419 $-1 forward 7 unknown #
vertex $-1 $420 $730 #
ellipse-curve $-1 41.511994115882203 14.582508444804933 1.5290394389324018 0.70710678939079041 0 0.70710677298230451 0.35355338649115226 0 -0.35355339469539521 1 I I #
point $-1 42.951175567416755 14.582508444804933 2.2611140840882991 #
loop $-1 $-1 $431 $423 #
plane-surface $-1 -44.24085207678457 0 0 1 0 0 0 0 -1 forward_v I I I I #
coedge $-1 $595 $426 $428 $599 reversed $275 $-1 #
coedge $-1 $426 $594 $731 $732 reversed $275 $-1 #
coedge $-1 $434 $429 $426 $597 forward $424 $-1 #
edge $-1 $600 -17.775513376923627 $733 -15.397944688255073 $596 $734 forward 7 unknown #
coedge $-1 $428 $427 $603 $735 reversed $173 $-1 #
edge $-1 $736 -1.3415908691481078e-014 $600 4.4866622258184456 $594 $737 forward 7 unknown #
vertex $-1 $430 $738 #
straight-curve $-1 -41.863283388116017 -5.4511451785429497 4.2578974127739899 0 1 0 I I #
coedge $-1 $731 $431 $434 $607 reversed $592 $-1 #
coedge $-1 $431 $731 $598 $735 forward $592 $-1 #
vertex $-1 $432 $739 #
straight-curve $-1 -44.24085207678457 -14.901781768418656 23.670575229773313 0 0 1 I I #
straight-curve $-1 -44.240852076784563 -14.901781768418656 0.45299201851658921 -0.52991925155115449 0 -0.84804810408105047 I I #
edge $-1 $733 6.9027989457531422 $435 14.901781768418656 $602 $740 forward 7 unknown #
point $-1 -44.24085207678457 -14.901781768418656 4.257897412773989 #
point $-1 -41.863283388116017 -14.901781768418656 4.257897412773989 #
edge $-1 $741 1 $741 0 $438 $-1 forward 7 unknown #
vertex $-1 $439 $742 #
ellipse-curve $-1 -40.41511356574275 -12.616358104799938 0.70769292931170735 -0.84804810408105047 0 0.52991925155115449 0.52991925155115449 0 0.84804810408105047 1 I I #
point $-1 -42.522148480899141 -12.616358104799938 3.2034928197263399 #
edge $-1 $743 1 $743 0 $442 $-1 forward 7 unknown #
vertex $-1 $443 $744 #
ellipse-curve $-1 -40.41511356574275 -9.1882226093718593 0.70769292931170735 -0.84804810408105047 0 0.52991925155115449 0.52991925155115449 0 0.84804810408105047 1 I I #
point $-1 -42.522148480899141 -9.1882226093718593 3.2034928197263399 #
loop $-1 $-1 $454 $446 #
plane-surface $-1 -44.24085207678457 0 0 1 0 0 0 0 -1 forward_v I I I I #
coedge $-1 $621 $449 $451 $625 reversed $297 $-1 #
coedge $-1 $449 $620 $745 $746 reversed $297 $-1 #
coedge $-1 $457 $452 $449 $623 forward $447 $-1 #
edge $-1 $626 -17.775513376923627 $747 -15.397944688255073 $622 $748 forward 7 unknown #
coedge $-1 $451 $450 $629 $749 reversed $187 $-1 #
edge $-1 $750 -1.3415908691481078e-014 $626 4.4866622258184456 $620 $751 forward 7 unknown #
vertex $-1 $453 $752 #
straight-curve $-1 -41.863283388116017 0.75 4.2578974127739899 0 1 0 I I #
coedge $-1 $745 $454 $457 $633 reversed $618 $-1 #
coedge $-1 $454 $745 $624 $749 forward $618 $-1 #
vertex $-1 $455 $753 #
straight-curve $-1 -44.24085207678457 -2.4994914113327571 23.670575229773313 0 0 1 I I #
straight-curve $-1 -44.240852076784563 -2.4994914113327571 0.45299201851658921 -0.52991925155115449 0 -0.84804810408105047 I I #
edge $-1 $747 -5.4994914113327571 $458 2.4994914113327571 $628 $754 forward 7 unknown #
point $-1 -44.24085207678457 -2.4994914113327571 4.257897412773989 #
point $-1 -41.863283388116017 -2.4994914113327571 4.257897412773989 #
edge $-1 $755 1 $755 0 $461 $-1 forward 7 unknown #
vertex $-1 $462 $756 #
ellipse-curve $-1 -40.41511356574275 -0.21406774771403647 0.70769292931170735 -0.84804810408105047 0 0.52991925155115449 0.52991925155115449 0 0.84804810408105047 1 I I #
point $-1 -42.522148480899141 -0.21406774771403647 3.2034928197263399 #
edge $-1 $757 1 $757 0 $465 $-1 forward 7 unknown #
vertex $-1 $466 $758 #
ellipse-curve $-1 -40.41511356574275 3.21406774771404 0.70769292931170735 -0.84804810408105047 0 0.52991925155115449 0.52991925155115449 0 0.84804810408105047 1 I I #
point $-1 -42.522148480899141 3.21406774771404 3.2034928197263399 #
loop $-1 $-1 $477 $469 #
plane-surface $-1 -44.24085207678457 0 0 1 0 0 0 0 -1 forward_v I I I I #
coedge $-1 $647 $472 $474 $651 reversed $319 $-1 #
coedge $-1 $472 $646 $759 $760 reversed $319 $-1 #
coedge $-1 $480 $475 $472 $649 forward $470 $-1 #
edge $-1 $652 -17.775513376923627 $761 -15.397944688255073 $648 $762 forward 7 unknown #
coedge $-1 $474 $473 $655 $763 reversed $201 $-1 #
edge $-1 $764 -1.3415908691481078e-014 $652 4.4866622258184456 $646 $765 forward 7 unknown #
vertex $-1 $476 $766 #
straight-curve $-1 -41.863283388116017 6.9511451785429497 4.2578974127739899 0 1 0 I I #
coedge $-1 $759 $477 $480 $659 reversed $644 $-1 #
coedge $-1 $477 $759 $650 $763 forward $644 $-1 #
vertex $-1 $478 $767 #
straight-curve $-1 -44.24085207678457 9.9027989457531422 23.670575229773313 0 0 1 I I #
straight-curve $-1 -44.240852076784563 9.9027989457531422 0.45299201851658921 -0.52991925155115449 0 -0.84804810408105047 I I #
edge $-1 $761 -17.901781768418658 $481 -9.9027989457531422 $654 $768 forward 7 unknown #
point $-1 -44.24085207678457 9.9027989457531422 4.257897412773989 #
point $-1 -41.863283388116017 9.9027989457531422 4.257897412773989 #
edge $-1 $769 1 $769 0 $484 $-1 forward 7 unknown #
vertex $-1 $485 $770 #
ellipse-curve $-1 -40.41511356574275 12.188222609371866 0.70769292931170735 -0.84804810408105047 0 0.52991925155115449 0.52991925155115449 0 0.84804810408105047 1 I I #
point $-1 -42.522148480899141 12.188222609371866 3.2034928197263399 #
edge $-1 $771 1 $771 0 $488 $-1 forward 7 unknown #
vertex $-1 $489 $772 #
ellipse-curve $-1 -40.41511356574275 15.616358104799939 0.70769292931170735 -0.84804810408105047 0 0.52991925155115449 0.52991925155115449 0 0.84804810408105047 1 I I #
point $-1 -42.522148480899141 15.616358104799939 3.2034928197263399 #
plane-surface $-1 44.24085207678457 0 0 -1 0 0 0 0 1 forward_v I I I I #
coedge $-1 $497 $495 $499 $675 reversed $341 $-1 #
edge $-1 $510 -4.257897412773989 $677 4.257897412773989 $509 $773 forward 7 unknown #
vertex $-1 $675 $774 #
straight-curve $-1 -44.24085207678457 -20.38343894171626 0 0 0 -1 I I #
edge $-1 $673 -20.38343894171626 $677 20.38343894171626 $671 $775 forward 7 unknown #
straight-curve $-1 0 -20.38343894171626 -4.257897412773989 -1 0 0 I I #
vertex $-1 $502 $776 #
straight-curve $-1 0 20.38343894171626 -4.257897412773989 1 0 0 I I #
point $-1 44.24085207678457 20.38343894171626 -4.257897412773989 #
point $-1 44.24085207678457 -20.38343894171626 -4.257897412773989 #
straight-curve $-1 -44.24085207678457 0 4.257897412773989 0 -1 0 I I #
point $-1 -44.24085207678457 20.38343894171626 4.257897412773989 #
point $-1 -44.24085207678457 -20.38343894171626 4.257897412773989 #
straight-curve $-1 44.24085207678457 -20.38343894171626 0 0 0 -1 I I #
straight-curve $-1 44.24085207678457 20.38343894171626 0 0 0 -1 I I #
loop $-1 $-1 $694 $519 #
plane-surface $-1 -44.24085207678457 0 0 1 0 0 0 0 -1 forward_v I I I I #
coedge $-1 $523 $522 $700 $777 forward $223 $-1 #
edge $-1 $527 17.38343894171626 $703 20.38343894171626 $526 $778 forward 7 unknown #
coedge $-1 $697 $694 $523 $691 reversed $686 $-1 #
edge $-1 $779 -20.38343894171626 $692 -17.38343894171626 $690 $780 forward 7 unknown #
vertex $-1 $695 $781 #
straight-curve $-1 0 -17.38343894171626 -4.257897412773989 1 0 0 I I #
coedge $-1 $690 $529 $525 $695 forward $686 $-1 #
edge $-1 $531 -0.12105129361300548 $692 2.8789487063869945 $694 $782 forward 7 unknown #
point $-1 44.24085207678457 -17.38343894171626 -4.257897412773989 #
coedge $-1 $529 $690 $533 $701 reversed $686 $-1 #
straight-curve $-1 -44.24085207678457 -9.4417194708581302 -1.257897412773989 0 1 0 I I #
point $-1 -44.24085207678457 -17.38343894171626 -1.257897412773989 #
coedge $-1 $534 $533 $688 $777 reversed $520 $-1 #
edge $-1 $535 1.257897412773989 $779 4.257897412773989 $697 $783 forward 7 unknown #
point $-1 -44.24085207678457 -20.38343894171626 -1.257897412773989 #
vertex $-1 $537 $784 #
straight-curve $-1 44.24085207678457 -20.38343894171626 0 0 0 -1 I I #
edge $-1 $706 58.793834377553367 $709 62.080294245533935 $541 $785 forward 7 unknown #
vertex $-1 $555 $786 #
straight-curve $-1 22.120426764317681 -11.011029136686307 4.2578974127739855 1 0 0 I I #
edge $-1 $709 -7.8540490922643986 $552 1.5400890034205803 $551 $787 forward 7 unknown #
vertex $-1 $708 $788 #
straight-curve $-1 -18.325160215220677 -11.011029136686307 63.537451288649457 -0.70710677298230451 0 0.70710678939079041 I I #
point $-1 40.954392285066632 -11.011029136686307 4.2578974127739926 #
point $-1 44.24085207678457 -1.6168910410013284 0.97143754479341737 #
straight-curve $-1 44.24085207678457 0 4.257897412773989 0 1 0 I I #
vertex $-1 $558 $789 #
point $-1 41.865547502373353 -8.3269896807763129 1.1754860442370065 #
vertex $-1 $562 $790 #
point $-1 41.865547502373353 -4.3009304969113238 1.1754860442370065 #
edge $-1 $719 58.793834377553367 $722 62.080294245533935 $567 $791 forward 7 unknown #
vertex $-1 $581 $792 #
straight-curve $-1 22.120426764317681 7.8724098050299505 4.2578974127739855 1 0 0 I I #
edge $-1 $722 1.5876703785937307 $578 10.98180847427871 $577 $793 forward 7 unknown #
vertex $-1 $721 $794 #
straight-curve $-1 -18.325160215220677 7.8724098050299505 63.537451288649457 -0.70710677298230451 0 0.70710678939079041 I I #
point $-1 40.954392285066632 7.8724098050299505 4.2578974127739926 #
point $-1 44.24085207678457 17.266547900714929 0.97143754479341737 #
straight-curve $-1 44.24085207678457 0 4.257897412773989 0 1 0 I I #
vertex $-1 $584 $795 #
point $-1 41.865547502373353 10.556449260939946 1.1754860442370065 #
vertex $-1 $588 $796 #
point $-1 41.865547502373353 14.582508444804933 1.1754860442370065 #
coedge $-1 $603 $602 $595 $732 forward $592 $-1 #
edge $-1 $733 19.412677816999324 $736 23.217583211256734 $731 $797 forward 7 unknown #
vertex $-1 $607 $798 #
straight-curve $-1 -59.638796765039643 -6.9027989457531422 4.257897412773989 -1 0 0 I I #
edge $-1 $736 1.4516537672101926 $604 9.4506365898757068 $603 $799 forward 7 unknown #
vertex $-1 $735 $800 #
straight-curve $-1 -44.240852076784563 -6.9027989457531422 0.45299201851658921 0.52991925155115449 0 0.84804810408105047 I I #
point $-1 -41.863283388116017 -6.9027989457531422 4.257897412773989 #
point $-1 -44.24085207678457 -14.901781768418656 0.45299201851657783 #
straight-curve $-1 -44.24085207678457 0 4.257897412773989 0 -1 0 I I #
vertex $-1 $610 $801 #
point $-1 -39.885194314191601 -12.616358104799938 1.5557410333927579 #
vertex $-1 $614 $802 #
point $-1 -39.885194314191601 -9.1882226093718593 1.5557410333927579 #
coedge $-1 $629 $628 $621 $746 forward $618 $-1 #
edge $-1 $747 19.412677816999324 $750 23.217583211256734 $745 $803 forward 7 unknown #
vertex $-1 $633 $804 #
straight-curve $-1 -59.638796765039643 5.4994914113327571 4.257897412773989 -1 0 0 I I #
edge $-1 $750 -4.7494914113327571 $630 3.2494914113327571 $629 $805 forward 7 unknown #
vertex $-1 $749 $806 #
straight-curve $-1 -44.240852076784563 5.4994914113327571 0.45299201851658921 0.52991925155115449 0 0.84804810408105047 I I #
point $-1 -41.863283388116017 5.4994914113327571 4.257897412773989 #
point $-1 -44.24085207678457 -2.4994914113327571 0.45299201851657783 #
straight-curve $-1 -44.24085207678457 0 4.257897412773989 0 -1 0 I I #
vertex $-1 $636 $807 #
point $-1 -39.885194314191601 -0.21406774771403647 1.5557410333927579 #
vertex $-1 $640 $808 #
point $-1 -39.885194314191601 3.21406774771404 1.5557410333927579 #
coedge $-1 $655 $654 $647 $760 forward $644 $-1 #
edge $-1 $761 19.412677816999324 $764 23.217583211256734 $759 $809 forward 7 unknown #
vertex $-1 $659 $810 #
straight-curve $-1 -59.638796765039643 17.901781768418658 4.257897412773989 -1 0 0 I I #
edge $-1 $764 -10.950636589875709 $656 -2.9516537672101926 $655 $811 forward 7 unknown #
vertex $-1 $763 $812 #
straight-curve $-1 -44.240852076784563 17.901781768418658 0.45299201851658921 0.52991925155115449 0 0.84804810408105047 I I #
point $-1 -41.863283388116017 17.901781768418658 4.257897412773989 #
point $-1 -44.24085207678457 9.9027989457531422 0.45299201851657783 #
straight-curve $-1 -44.24085207678457 0 4.257897412773989 0 -1 0 I I #
vertex $-1 $662 $813 #
point $-1 -39.885194314191601 12.188222609371866 1.5557410333927579 #
vertex $-1 $666 $814 #
point $-1 -39.885194314191601 15.616358104799939 1.5557410333927579 #
straight-curve $-1 -44.24085207678457 20.38343894171626 0 0 0 -1 I I #
point $-1 -44.24085207678457 -20.38343894171626 -4.257897412773989 #
straight-curve $-1 -44.24085207678457 0 -4.257897412773989 0 1 0 I I #
point $-1 -44.24085207678457 20.38343894171626 -4.257897412773989 #
edge $-1 $703 -44.24085207678457 $779 44.24085207678457 $700 $815 forward 7 unknown #
straight-curve $-1 44.24085207678457 0 -4.257897412773989 0 -1 0 I I #
vertex $-1 $691 $816 #
straight-curve $-1 -44.24085207678457 0 -4.257897412773989 0 1 0 I I #
point $-1 -44.24085207678457 -17.38343894171626 -4.257897412773989 #
straight-curve $-1 -44.24085207678457 -17.38343894171626 -1.3789487063869945 0 0 -1 I I #
straight-curve $-1 -44.24085207678457 -20.38343894171626 0 0 0 -1 I I #
point $-1 44.24085207678457 -20.38343894171626 -4.257897412773989 #
straight-curve $-1 44.24085207678457 -11.011029136686307 63.051731790327352 0 0 -1 I I #
point $-1 44.24085207678457 -11.011029136686307 4.257897412773989 #
straight-curve $-1 44.24085207678457 -3.1569800444219087 0.97143754479341737 0 1 0 I I #
point $-1 44.24085207678457 -11.011029136686307 0.97143754479341737 #
point $-1 41.158440721186807 -8.3269896807763129 1.1754860524412496 #
point $-1 41.158440721186807 -4.3009304969113238 1.1754860524412496 #
straight-curve $-1 44.24085207678457 7.8724098050299505 63.051731790327352 0 0 -1 I I #
point $-1 44.24085207678457 7.8724098050299505 4.257897412773989 #
straight-curve $-1 44.24085207678457 6.2847394264362197 0.97143754479341737 0 1 0 I I #
point $-1 44.24085207678457 7.8724098050299505 0.97143754479341737 #
point $-1 41.158440721186807 10.556449260939946 1.1754860524412496 #
point $-1 41.158440721186807 14.582508444804933 1.1754860524412496 #
straight-curve $-1 -44.24085207678457 -6.9027989457531422 23.670575229773313 0 0 -1 I I #
point $-1 -44.24085207678457 -6.9027989457531422 4.257897412773989 #
straight-curve $-1 -44.24085207678457 -5.4511451785429497 0.45299201851656878 0 -1 0 I I #
point $-1 -44.24085207678457 -6.9027989457531422 0.45299201851657783 #
point $-1 -39.567065461661706 -12.616358104799938 0.1777736777605527 #
point $-1 -39.567065461661706 -9.1882226093718593 0.1777736777605527 #
straight-curve $-1 -44.24085207678457 5.4994914113327571 23.670575229773313 0 0 -1 I I #
point $-1 -44.24085207678457 5.4994914113327571 4.257897412773989 #
straight-curve $-1 -44.24085207678457 0.75 0.45299201851656878 0 -1 0 I I #
point $-1 -44.24085207678457 5.4994914113327571 0.45299201851657783 #
point $-1 -39.567065461661706 -0.21406774771403647 0.1777736777605527 #
point $-1 -39.567065461661706 3.21406774771404 0.1777736777605527 #
straight-curve $-1 -44.24085207678457 17.901781768418658 23.670575229773313 0 0 -1 I I #
point $-1 -44.24085207678457 17.901781768418658 4.257897412773989 #
straight-curve $-1 -44.24085207678457 6.9511451785429497 0.45299201851656878 0 -1 0 I I #
point $-1 -44.24085207678457 17.901781768418658 0.45299201851657783 #
point $-1 -39.567065461661706 12.188222609371866 0.1777736777605527 #
point $-1 -39.567065461661706 15.616358104799939 0.1777736777605527 #
straight-curve $-1 0 -20.38343894171626 -4.257897412773989 -1 0 0 I I #
point $-1 -44.24085207678457 -20.38343894171626 -4.257897412773989 #
End-of-ACIS-data 