500 0 9 0           
7 Unknown 11 ACIS 5.0 NT 24 Thu Mar 25 18:00:31 1999 
-1 9.9999999999999995e-007 1e-010 
body $-1 $9 $-1 $10 #
body $-1 $11 $-1 $12 #
body $-1 $13 $-1 $14 #
body $-1 $15 $-1 $16 #
body $-1 $17 $-1 $18 #
body $-1 $19 $-1 $20 #
body $-1 $21 $-1 $22 #
body $-1 $23 $-1 $24 #
body $-1 $25 $-1 $26 #
lump $-1 $-1 $27 $0 #
transform $-1 1 0 0 0 1 0 0 0 1 69.395428327280499 44.227805045623022 18.225764603123359 1 rotate no_reflect no_shear #
lump $-1 $-1 $28 $1 #
transform $-1 1 0 0 0 1 0 0 0 1 69.395428327280499 44.227805045623022 18.225764603123359 1 rotate no_reflect no_shear #
lump $-1 $-1 $29 $2 #
transform $-1 1 0 0 0 1 0 0 0 1 69.395428327280499 44.227805045623022 18.225764603123359 1 rotate no_reflect no_shear #
lump $-1 $-1 $30 $3 #
transform $-1 1 0 0 0 1 0 0 0 1 69.395428327280499 44.227805045623022 18.225764603123359 1 rotate no_reflect no_shear #
lump $-1 $-1 $31 $4 #
transform $-1 1 0 0 0 1 0 0 0 1 69.395428327280499 44.227805045623022 18.225764603123359 1 rotate no_reflect no_shear #
lump $-1 $-1 $32 $5 #
transform $-1 1 0 0 0 1 0 0 0 1 69.395428327280499 44.227805045623022 18.225764603123359 1 rotate no_reflect no_shear #
lump $-1 $-1 $33 $6 #
transform $-1 1 0 0 0 1 0 0 0 1 69.395428327280499 44.227805045623022 18.225764603123359 1 rotate no_reflect no_shear #
lump $-1 $-1 $34 $7 #
transform $-1 1 0 0 0 1 0 0 0 1 69.395428327280499 44.227805045623022 18.225764603123359 1 rotate no_reflect no_shear #
lump $-1 $-1 $35 $8 #
transform $-1 1 0 0 0 1 0 0 0 1 69.395428327280499 44.227805045623022 18.225764603123359 1 rotate no_reflect no_shear #
shell $-1 $-1 $-1 $36 $-1 $9 #
shell $-1 $-1 $-1 $37 $-1 $11 #
shell $-1 $-1 $-1 $38 $-1 $13 #
shell $-1 $-1 $-1 $39 $-1 $15 #
shell $-1 $-1 $-1 $40 $-1 $17 #
shell $-1 $-1 $-1 $41 $-1 $19 #
shell $-1 $-1 $-1 $42 $-1 $21 #
shell $-1 $-1 $-1 $43 $-1 $23 #
shell $-1 $-1 $-1 $44 $-1 $25 #
face $-1 $45 $46 $27 $-1 $47 forward single #
face $-1 $48 $49 $28 $-1 $50 reversed single #
face $-1 $51 $52 $29 $-1 $53 reversed single #
face $-1 $54 $55 $30 $-1 $56 forward single #
face $-1 $57 $58 $31 $-1 $59 forward single #
face $-1 $60 $61 $32 $-1 $62 forward single #
face $-1 $63 $64 $33 $-1 $65 reversed single #
face $-1 $66 $67 $34 $-1 $68 forward single #
face $-1 $69 $70 $35 $-1 $71 forward single #
face $-1 $72 $73 $27 $-1 $74 reversed single #
loop $-1 $-1 $75 $36 #
plane-surface $-1 0 0 18.225764603123359 0 0 1 1 0 0 forward_v I I I I #
face $-1 $76 $77 $28 $-1 $78 reversed single #
loop $-1 $-1 $79 $37 #
plane-surface $-1 -61.939662779726305 0 7.6569681547470392 0 0 1 1 0 0 forward_v I I I I #
face $-1 $80 $81 $29 $-1 $82 reversed single #
loop $-1 $-1 $83 $38 #
plane-surface $-1 42.178421807457042 115.05479720025446 156.06926505926248 1 0 0 0 -0.84804810408105047 -0.52991925155115449 forward_v I I I I #
face $-1 $84 $85 $30 $-1 $86 forward single #
loop $-1 $87 $88 $39 #
cone-surface $-1 47.621823111421733 39.18591253253863 11.808402042086231 0 -0.84804810408105047 -0.52991925155115449 2 0 0 1 I I 0 1 2 forward I I I I #
face $-1 $89 $90 $31 $-1 $91 forward single #
loop $-1 $92 $93 $40 #
cone-surface $-1 55.78692506736877 39.18591253253863 11.808402042086231 0 -0.84804810408105047 -0.52991925155115449 2 0 0 1 I I 0 1 2 forward I I I I #
face $-1 $94 $95 $32 $-1 $96 forward single #
loop $-1 $97 $98 $41 #
cone-surface $-1 63.952027023315807 39.18591253253863 11.808402042086231 0 -0.84804810408105047 -0.52991925155115449 2 0 0 1 I I 0 1 2 forward I I I I #
face $-1 $99 $100 $33 $-1 $101 reversed single #
loop $-1 $-1 $102 $42 #
plane-surface $-1 58.987591500628824 -44.227805045623015 5.2265816295642367 0 -0.69465837861970381 0.71933979245794832 1 0 0 forward_v I I I I #
face $-1 $103 $104 $34 $-1 $105 forward single #
loop $-1 $106 $107 $43 #
cone-surface $-1 54.527090003492418 -34.780530292062032 8.9128952738897027 0 0.69465837861970381 -0.71933979245794832 2 0 0 1 I I 0 1 2 forward I I I I #
face $-1 $108 $109 $35 $-1 $110 forward single #
loop $-1 $111 $112 $44 #
cone-surface $-1 63.448092997765272 -34.780530292062032 8.9128952738897027 0 0.69465837861970381 -0.71933979245794832 2 0 0 1 I I 0 1 2 forward I I I I #
face $-1 $113 $114 $27 $-1 $115 reversed single #
loop $-1 $-1 $116 $45 #
plane-surface $-1 0 0 -18.225764603123359 0 0 1 1 0 0 forward_v I I I I #
coedge $-1 $117 $118 $119 $120 forward $46 $-1 #
face $-1 $121 $122 $28 $-1 $123 reversed single #
loop $-1 $-1 $124 $48 #
plane-surface $-1 -54.483897232172112 0 12.9413663789352 -1 0 0 0 0 1 forward_v I I I I #
coedge $-1 $125 $126 $127 $128 forward $49 $-1 #
face $-1 $129 $130 $29 $-1 $131 forward single #
loop $-1 $-1 $132 $51 #
plane-surface $-1 55.78692506736877 -2.646525649430842 82.521318178733949 0 0.84804810408105047 0.52991925155115449 1 0 0 forward_v I I I I #
coedge $-1 $133 $134 $135 $136 reversed $52 $-1 #
face $-1 $-1 $137 $30 $-1 $138 forward single #
loop $-1 $139 $140 $54 #
cone-surface $-1 47.621823111421733 36.644977484643938 10.220649658299564 0 -0.84804810408105047 -0.52991925155115449 1 0 0 1 I I -0.70710678118654746 0.70710678118654746 1 forward I I I I #
loop $-1 $-1 $141 $39 #
coedge $-1 $88 $88 $142 $143 reversed $55 $-1 #
face $-1 $-1 $144 $31 $-1 $145 forward single #
loop $-1 $146 $147 $57 #
cone-surface $-1 55.78692506736877 36.644977484643938 10.220649658299564 0 -0.84804810408105047 -0.52991925155115449 1 0 0 1 I I -0.70710678118654746 0.70710678118654746 1 forward I I I I #
loop $-1 $-1 $148 $40 #
coedge $-1 $93 $93 $149 $150 reversed $58 $-1 #
face $-1 $-1 $151 $32 $-1 $152 forward single #
loop $-1 $153 $154 $60 #
cone-surface $-1 63.952027023315807 36.644977484643938 10.220649658299564 0 -0.84804810408105047 -0.52991925155115449 1 0 0 1 I I -0.70710678118654746 0.70710678118654746 1 forward I I I I #
loop $-1 $-1 $155 $41 #
coedge $-1 $98 $98 $156 $157 reversed $61 $-1 #
face $-1 $158 $159 $33 $-1 $160 forward single #
loop $-1 $-1 $161 $63 #
plane-surface $-1 48.579754673977163 -140.64003649652008 105.064367650517 1 0 0 0 0.69465837861970381 -0.71933979245794832 forward_v I I I I #
coedge $-1 $162 $163 $164 $165 reversed $64 $-1 #
face $-1 $-1 $166 $34 $-1 $167 forward single #
loop $-1 $168 $169 $66 #
cone-surface $-1 54.527090003492418 -31.369121018891825 5.380277638977649 0 0.69465837861970381 -0.71933979245794832 1 0 0 1 I I -0.70710678118654746 0.70710678118654746 1 forward I I I I #
loop $-1 $-1 $170 $43 #
coedge $-1 $107 $107 $171 $172 reversed $67 $-1 #
face $-1 $-1 $173 $35 $-1 $174 forward single #
loop $-1 $175 $176 $69 #
cone-surface $-1 63.448092997765272 -31.369121018891825 5.380277638977649 0 0.69465837861970381 -0.71933979245794832 1 0 0 1 I I -0.70710678118654746 0.70710678118654746 1 forward I I I I #
loop $-1 $-1 $177 $44 #
coedge $-1 $112 $112 $178 $179 reversed $70 $-1 #
face $-1 $180 $181 $27 $-1 $182 reversed single #
loop $-1 $-1 $183 $72 #
plane-surface $-1 0 -44.227805045623022 0 0 1 0 0 0 1 forward_v I I I I #
coedge $-1 $184 $185 $186 $187 forward $73 $-1 #
coedge $-1 $188 $75 $189 $190 forward $46 $-1 #
coedge $-1 $75 $188 $191 $192 forward $46 $-1 #
coedge $-1 $193 $194 $75 $120 reversed $195 $-1 #
edge $-1 $196 -44.227805045623022 $197 44.227805045623022 $119 $198 forward 7 unknown #
face $-1 $199 $200 $28 $-1 $201 reversed single #
loop $-1 $-1 $202 $76 #
plane-surface $-1 0 44.227805045623022 0 0 -1 0 0 0 -1 forward_v I I I I #
coedge $-1 $127 $203 $204 $205 reversed $77 $-1 #
coedge $-1 $206 $79 $207 $208 reversed $49 $-1 #
coedge $-1 $79 $206 $209 $210 reversed $49 $-1 #
coedge $-1 $211 $124 $79 $128 reversed $77 $-1 #
edge $-1 $212 -44.227805045623022 $213 44.227805045623022 $127 $214 forward 7 unknown #
face $-1 $215 $216 $29 $-1 $217 reversed single #
loop $-1 $-1 $135 $80 #
plane-surface $-1 0 0 18.225764603123359 0 0 1 1 0 0 forward_v I I I I #
coedge $-1 $218 $219 $220 $221 reversed $81 $-1 #
coedge $-1 $134 $83 $222 $223 reversed $52 $-1 #
coedge $-1 $83 $133 $218 $224 reversed $52 $-1 #
coedge $-1 $220 $225 $83 $136 forward $130 $-1 #
edge $-1 $226 13.299593554504206 $227 19.99760469304573 $135 $228 forward 7 unknown #
loop $-1 $-1 $142 $84 #
plane-surface $-1 55.78692506736877 -2.646525649430842 82.521318178733949 0 0.84804810408105047 0.52991925155115449 1 0 0 forward_v I I I I #
loop $-1 $-1 $229 $54 #
coedge $-1 $140 $140 $141 $230 reversed $85 $-1 #
coedge $-1 $141 $141 $140 $230 forward $87 $-1 #
coedge $-1 $142 $142 $88 $143 forward $137 $-1 #
edge $-1 $231 1.1286459714621616e-015 $231 6.2831853071796013 $142 $232 forward 7 unknown #
loop $-1 $-1 $149 $89 #
plane-surface $-1 55.78692506736877 -2.646525649430842 82.521318178733949 0 0.84804810408105047 0.52991925155115449 1 0 0 forward_v I I I I #
loop $-1 $-1 $233 $57 #
coedge $-1 $147 $147 $148 $234 reversed $90 $-1 #
coedge $-1 $148 $148 $147 $234 forward $92 $-1 #
coedge $-1 $149 $149 $93 $150 forward $144 $-1 #
edge $-1 $235 1.1286459714621616e-015 $235 6.2831853071796013 $149 $236 forward 7 unknown #
loop $-1 $-1 $156 $94 #
plane-surface $-1 55.78692506736877 -2.646525649430842 82.521318178733949 0 0.84804810408105047 0.52991925155115449 1 0 0 forward_v I I I I #
loop $-1 $-1 $237 $60 #
coedge $-1 $154 $154 $155 $238 reversed $95 $-1 #
coedge $-1 $155 $155 $154 $238 forward $97 $-1 #
coedge $-1 $156 $156 $98 $157 forward $151 $-1 #
edge $-1 $239 1.1286459714621616e-015 $239 6.2831853071796013 $156 $240 forward 7 unknown #
face $-1 $241 $242 $33 $-1 $243 reversed single #
loop $-1 $-1 $164 $99 #
plane-surface $-1 0 0 18.225764603123359 0 0 1 1 0 0 forward_v I I I I #
coedge $-1 $244 $245 $246 $247 reversed $100 $-1 #
coedge $-1 $248 $102 $249 $250 reversed $64 $-1 #
coedge $-1 $102 $248 $244 $251 forward $64 $-1 #
coedge $-1 $246 $252 $102 $165 forward $159 $-1 #
edge $-1 $253 -39.901632576966072 $254 -19.085958923662751 $164 $255 forward 7 unknown #
loop $-1 $-1 $171 $103 #
plane-surface $-1 58.987591500628824 -44.227805045623015 5.2265816295642367 0 -0.69465837861970381 0.71933979245794832 1 0 0 forward_v I I I I #
loop $-1 $-1 $256 $66 #
coedge $-1 $169 $169 $170 $257 reversed $104 $-1 #
coedge $-1 $170 $170 $169 $257 forward $106 $-1 #
coedge $-1 $171 $171 $107 $172 forward $166 $-1 #
edge $-1 $258 -2.0263137359722337e-015 $258 6.2831853071795987 $171 $259 forward 7 unknown #
loop $-1 $-1 $178 $108 #
plane-surface $-1 58.987591500628824 -44.227805045623015 5.2265816295642367 0 -0.69465837861970381 0.71933979245794832 1 0 0 forward_v I I I I #
loop $-1 $-1 $260 $69 #
coedge $-1 $176 $176 $177 $261 reversed $109 $-1 #
coedge $-1 $177 $177 $176 $261 forward $111 $-1 #
coedge $-1 $178 $178 $112 $179 forward $173 $-1 #
edge $-1 $262 -2.0263137359722337e-015 $262 6.2831853071795987 $178 $263 forward 7 unknown #
face $-1 $264 $265 $27 $-1 $266 reversed single #
loop $-1 $-1 $267 $113 #
plane-surface $-1 -69.395428327280499 0 0 1 0 0 0 0 -1 forward_v I I I I #
coedge $-1 $268 $191 $269 $270 forward $114 $-1 #
coedge $-1 $271 $116 $268 $272 forward $73 $-1 #
coedge $-1 $116 $271 $273 $274 forward $73 $-1 #
coedge $-1 $194 $193 $116 $187 reversed $195 $-1 #
edge $-1 $275 -44.227805045623022 $276 44.227805045623022 $186 $277 forward 7 unknown #
coedge $-1 $118 $117 $278 $279 forward $46 $-1 #
coedge $-1 $280 $281 $117 $190 reversed $265 $-1 #
edge $-1 $197 -69.395428327280499 $282 69.395428327280499 $189 $283 forward 7 unknown #
coedge $-1 $183 $284 $118 $192 reversed $114 $-1 #
edge $-1 $285 -69.395428327280499 $196 69.395428327280499 $191 $286 forward 7 unknown #
coedge $-1 $186 $119 $284 $287 forward $195 $-1 #
coedge $-1 $119 $186 $280 $288 reversed $195 $-1 #
loop $-1 $-1 $193 $264 #
vertex $-1 $120 $289 #
vertex $-1 $120 $290 #
straight-curve $-1 69.395428327280499 0 18.225764603123359 0 1 0 I I #
face $-1 $291 $292 $28 $-1 $293 forward single #
loop $-1 $-1 $294 $121 #
plane-surface $-1 -69.395428327280499 0 0 1 0 0 0 0 -1 forward_v I I I I #
coedge $-1 $209 $295 $211 $296 forward $122 $-1 #
coedge $-1 $124 $211 $297 $298 reversed $77 $-1 #
coedge $-1 $299 $207 $124 $205 forward $300 $-1 #
edge $-1 $213 1.1862849652794392 $301 11.755081413655759 $204 $302 forward 7 unknown #
coedge $-1 $126 $125 $294 $303 reversed $49 $-1 #
coedge $-1 $204 $304 $125 $208 forward $300 $-1 #
edge $-1 $305 -38.425596937417346 $213 -23.514065842308959 $207 $306 forward 7 unknown #
coedge $-1 $307 $202 $126 $210 forward $122 $-1 #
edge $-1 $212 23.514065842308959 $308 38.425596937417346 $209 $309 forward 7 unknown #
coedge $-1 $203 $127 $202 $296 reversed $77 $-1 #
vertex $-1 $210 $310 #
vertex $-1 $208 $311 #
straight-curve $-1 -54.483897232172112 0 7.6569681547470392 0 -1 0 I I #
face $-1 $-1 $312 $29 $-1 $313 reversed single #
loop $-1 $-1 $314 $129 #
plane-surface $-1 69.395428327280499 0 0 -1 0 0 0 0 1 forward_v I I I I #
coedge $-1 $315 $132 $134 $224 forward $81 $-1 #
coedge $-1 $132 $315 $314 $316 reversed $81 $-1 #
coedge $-1 $317 $135 $132 $221 forward $130 $-1 #
edge $-1 $227 14.284959273772657 $318 41.501965793596113 $220 $319 forward 7 unknown #
coedge $-1 $320 $321 $133 $223 forward $312 $-1 #
edge $-1 $322 -70.527926784111159 $226 -59.80886792650788 $222 $323 forward 7 unknown #
edge $-1 $227 75.815927500105204 $322 88.455610091246072 $134 $324 forward 7 unknown #
coedge $-1 $135 $317 $320 $325 forward $130 $-1 #
vertex $-1 $223 $326 #
vertex $-1 $136 $327 #
straight-curve $-1 42.178421807457042 57.527398600127228 18.225764603123366 0 -1 0 I I #
coedge $-1 $229 $229 $-1 $328 reversed $139 $-1 #
edge $-1 $329 0 $329 6.2831853071796004 $140 $330 forward 7 unknown #
vertex $-1 $143 $331 #
ellipse-curve $-1 47.621823111421733 40.878799476352249 12.866235174321732 0 0.84804810408105047 0.52991925155115449 2 0 0 1 I I #
coedge $-1 $233 $233 $-1 $332 reversed $146 $-1 #
edge $-1 $333 0 $333 6.2831853071796004 $147 $334 forward 7 unknown #
vertex $-1 $150 $335 #
ellipse-curve $-1 55.78692506736877 40.878799476352249 12.866235174321732 0 0.84804810408105047 0.52991925155115449 2 0 0 1 I I #
coedge $-1 $237 $237 $-1 $336 reversed $153 $-1 #
edge $-1 $337 0 $337 6.2831853071796004 $154 $338 forward 7 unknown #
vertex $-1 $157 $339 #
ellipse-curve $-1 63.952027023315807 40.878799476352249 12.866235174321732 0 0.84804810408105047 0.52991925155115449 2 0 0 1 I I #
face $-1 $-1 $340 $33 $-1 $341 reversed single #
loop $-1 $-1 $342 $158 #
plane-surface $-1 0 -44.227805045623022 0 0 1 0 0 0 1 forward_v I I I I #
coedge $-1 $245 $161 $163 $251 reversed $100 $-1 #
coedge $-1 $161 $244 $343 $344 reversed $100 $-1 #
coedge $-1 $345 $164 $161 $247 forward $159 $-1 #
edge $-1 $254 -39.553260920658005 $346 -26.092213202637019 $246 $347 forward 7 unknown #
coedge $-1 $163 $162 $342 $348 reversed $64 $-1 #
coedge $-1 $349 $350 $162 $250 forward $340 $-1 #
edge $-1 $351 -14.092065690936227 $253 4.6209929486049699 $249 $352 forward 7 unknown #
edge $-1 $353 -1.0047061288372931e-014 $254 18.713058639541188 $244 $354 forward 7 unknown #
coedge $-1 $164 $345 $349 $355 forward $159 $-1 #
vertex $-1 $250 $356 #
vertex $-1 $165 $357 #
straight-curve $-1 29.493795750314412 -30.76675732760204 18.225764603123359 -1 0 0 I I #
coedge $-1 $256 $256 $-1 $358 reversed $168 $-1 #
edge $-1 $359 0 $359 6.2831853071796004 $169 $360 forward 7 unknown #
vertex $-1 $172 $361 #
ellipse-curve $-1 54.527090003492418 -37.497281186612526 11.726173116343796 0 -0.69465837861970381 0.71933979245794832 2 0 0 1 I I #
coedge $-1 $260 $260 $-1 $362 reversed $175 $-1 #
edge $-1 $363 0 $363 6.2831853071796004 $176 $364 forward 7 unknown #
vertex $-1 $179 $365 #
ellipse-curve $-1 63.448092997765272 -37.497281186612526 11.726173116343796 0 -0.69465837861970381 0.71933979245794832 2 0 0 1 I I #
face $-1 $-1 $195 $27 $-1 $366 reversed single #
loop $-1 $-1 $280 $180 #
plane-surface $-1 0 44.227805045623022 0 0 -1 0 0 0 -1 forward_v I I I I #
coedge $-1 $367 $278 $281 $368 forward $181 $-1 #
coedge $-1 $284 $183 $184 $272 reversed $114 $-1 #
coedge $-1 $278 $367 $183 $270 reversed $181 $-1 #
edge $-1 $285 -18.225764603123359 $369 18.225764603123359 $269 $370 forward 7 unknown #
coedge $-1 $185 $184 $367 $371 forward $73 $-1 #
edge $-1 $276 -69.395428327280499 $369 69.395428327280499 $268 $372 forward 7 unknown #
coedge $-1 $281 $280 $185 $274 reversed $265 $-1 #
edge $-1 $373 -69.395428327280499 $275 69.395428327280499 $273 $374 forward 7 unknown #
vertex $-1 $187 $375 #
vertex $-1 $287 $376 #
straight-curve $-1 69.395428327280499 0 -18.225764603123359 0 -1 0 I I #
coedge $-1 $267 $269 $188 $279 reversed $181 $-1 #
edge $-1 $282 -44.227805045623022 $285 44.227805045623022 $278 $377 forward 7 unknown #
coedge $-1 $273 $189 $194 $288 forward $265 $-1 #
coedge $-1 $189 $273 $267 $368 reversed $265 $-1 #
vertex $-1 $190 $378 #
straight-curve $-1 0 44.227805045623022 18.225764603123359 -1 0 0 I I #
coedge $-1 $191 $268 $193 $287 reversed $114 $-1 #
vertex $-1 $279 $379 #
straight-curve $-1 0 -44.227805045623022 18.225764603123359 1 0 0 I I #
edge $-1 $196 -18.225764603123359 $276 18.225764603123359 $193 $380 forward 7 unknown #
edge $-1 $197 -18.225764603123359 $275 18.225764603123359 $194 $381 forward 7 unknown #
point $-1 69.395428327280499 -44.227805045623022 18.225764603123359 #
point $-1 69.395428327280499 44.227805045623022 18.225764603123359 #
face $-1 $-1 $300 $28 $-1 $382 reversed single #
loop $-1 $-1 $297 $199 #
plane-surface $-1 0 0 18.225764603123359 0 0 1 1 0 0 forward_v I I I I #
coedge $-1 $383 $384 $206 $303 forward $200 $-1 #
coedge $-1 $202 $307 $385 $386 reversed $122 $-1 #
edge $-1 $387 -11.755081413655759 $212 -1.1862849652794392 $202 $388 forward 7 unknown #
coedge $-1 $385 $389 $203 $298 forward $292 $-1 #
edge $-1 $301 -44.227805045623022 $387 44.227805045623022 $297 $390 forward 7 unknown #
coedge $-1 $304 $204 $389 $391 reversed $300 $-1 #
loop $-1 $-1 $204 $291 #
vertex $-1 $205 $392 #
straight-curve $-1 -54.483897232172112 -44.227805045623022 6.4706831894676 0 0 1 I I #
edge $-1 $308 -44.227805045623022 $305 44.227805045623022 $294 $393 forward 7 unknown #
coedge $-1 $207 $299 $383 $394 forward $300 $-1 #
vertex $-1 $303 $395 #
straight-curve $-1 -30.969831389863153 -44.227805045623022 7.6569681547470392 1 0 0 I I #
coedge $-1 $295 $209 $384 $396 reversed $122 $-1 #
vertex $-1 $303 $397 #
straight-curve $-1 -30.969831389863153 44.227805045623022 7.6569681547470392 -1 0 0 I I #
point $-1 -54.483897232172112 44.227805045623022 7.6569681547470392 #
point $-1 -54.483897232172112 -44.227805045623022 7.6569681547470392 #
loop $-1 $-1 $222 $215 #
plane-surface $-1 0 44.227805045623022 0 0 -1 0 0 0 -1 forward_v I I I I #
coedge $-1 $398 $399 $219 $316 forward $216 $-1 #
coedge $-1 $219 $218 $321 $400 reversed $81 $-1 #
edge $-1 $318 40.123681340554313 $401 52.763363931695181 $314 $402 forward 7 unknown #
coedge $-1 $225 $220 $399 $403 forward $130 $-1 #
vertex $-1 $403 $404 #
straight-curve $-1 27.893462533684385 37.529793907081498 18.225764603123359 1 0 0 I I #
coedge $-1 $405 $222 $225 $325 reversed $312 $-1 #
coedge $-1 $222 $405 $315 $400 forward $312 $-1 #
vertex $-1 $223 $406 #
straight-curve $-1 42.178421807457042 44.227805045623022 78.034632529631239 0 0 1 I I #
straight-curve $-1 42.178421807457042 -2.646525649430842 82.521318178733949 0 0.52991925155115449 -0.84804810408105047 I I #
edge $-1 $407 -69.395428327280499 $226 -42.178421807457042 $320 $408 forward 7 unknown #
point $-1 42.178421807457042 44.227805045623022 18.225764603123359 #
point $-1 42.178421807457042 37.529793907081498 18.225764603123352 #
edge $-1 $409 1 $409 0 $229 $-1 forward 7 unknown #
vertex $-1 $230 $410 #
ellipse-curve $-1 47.621823111421733 37.49302558872499 10.750568909850719 0 0.84804810408105047 0.52991925155115449 2 0 0 1 I I #
point $-1 49.621823111421733 40.87879947635227 12.866235174321742 #
edge $-1 $411 1 $411 0 $233 $-1 forward 7 unknown #
vertex $-1 $234 $412 #
ellipse-curve $-1 55.78692506736877 37.49302558872499 10.750568909850719 0 0.84804810408105047 0.52991925155115449 2 0 0 1 I I #
point $-1 57.78692506736877 40.87879947635227 12.866235174321742 #
edge $-1 $413 1 $413 0 $237 $-1 forward 7 unknown #
vertex $-1 $238 $414 #
ellipse-curve $-1 63.952027023315807 37.49302558872499 10.750568909850719 0 0.84804810408105047 0.52991925155115449 2 0 0 1 I I #
point $-1 65.952027023315807 40.87879947635227 12.866235174321742 #
loop $-1 $-1 $249 $241 #
plane-surface $-1 69.395428327280499 0 0 -1 0 0 0 0 1 forward_v I I I I #
coedge $-1 $415 $343 $248 $348 forward $242 $-1 #
coedge $-1 $342 $416 $245 $344 forward $242 $-1 #
edge $-1 $346 34.306419222135141 $353 47.30560219569427 $343 $417 forward 7 unknown #
coedge $-1 $252 $246 $416 $418 forward $159 $-1 #
vertex $-1 $418 $419 #
straight-curve $-1 48.579754673977163 -70.320018248260041 18.225764603123359 0 -1 0 I I #
edge $-1 $353 19.085958923662751 $351 39.901632576966072 $342 $420 forward 7 unknown #
coedge $-1 $350 $249 $252 $355 reversed $340 $-1 #
coedge $-1 $249 $349 $415 $421 forward $340 $-1 #
vertex $-1 $348 $422 #
straight-curve $-1 69.395428327280499 -34.090821436201182 15.015753133832346 0 0.71933979245794832 0.69465837861970381 I I #
vertex $-1 $348 $423 #
straight-curve $-1 48.579754673977163 -44.227805045623015 5.2265816295642367 0 0.71933979245794832 0.69465837861970381 I I #
edge $-1 $424 -44.227805045623022 $253 -30.76675732760204 $349 $425 forward 7 unknown #
point $-1 69.395428327280484 -30.76675732760204 18.225764603123359 #
point $-1 48.579754673977163 -30.76675732760204 18.225764603123359 #
edge $-1 $426 1 $426 0 $256 $-1 forward 7 unknown #
vertex $-1 $257 $427 #
ellipse-curve $-1 54.527090003492418 -32.063779397511531 6.0996174314355969 0 -0.69465837861970381 0.71933979245794832 2 0 0 1 I I #
point $-1 56.527090003492418 -37.49728118661254 11.726173116343805 #
edge $-1 $428 1 $428 0 $260 $-1 forward 7 unknown #
vertex $-1 $261 $429 #
ellipse-curve $-1 63.448092997765272 -32.063779397511531 6.0996174314355969 0 -0.69465837861970381 0.71933979245794832 2 0 0 1 I I #
point $-1 65.448092997765272 -37.49728118661254 11.726173116343805 #
plane-surface $-1 69.395428327280499 0 0 -1 0 0 0 0 1 forward_v I I I I #
coedge $-1 $269 $267 $271 $371 reversed $181 $-1 #
edge $-1 $282 -18.225764603123359 $373 18.225764603123359 $281 $430 forward 7 unknown #
vertex $-1 $371 $431 #
straight-curve $-1 -69.395428327280499 -44.227805045623022 0 0 0 -1 I I #
edge $-1 $369 -44.227805045623022 $373 44.227805045623022 $367 $432 forward 7 unknown #
straight-curve $-1 0 -44.227805045623022 -18.225764603123359 -1 0 0 I I #
vertex $-1 $274 $433 #
straight-curve $-1 0 44.227805045623022 -18.225764603123359 1 0 0 I I #
point $-1 69.395428327280499 44.227805045623022 -18.225764603123359 #
point $-1 69.395428327280499 -44.227805045623022 -18.225764603123359 #
straight-curve $-1 -69.395428327280499 0 18.225764603123359 0 -1 0 I I #
point $-1 -69.395428327280499 44.227805045623022 18.225764603123359 #
point $-1 -69.395428327280499 -44.227805045623022 18.225764603123359 #
straight-curve $-1 69.395428327280499 -44.227805045623022 0 0 0 -1 I I #
straight-curve $-1 69.395428327280499 44.227805045623022 0 0 0 -1 I I #
plane-surface $-1 0 -44.227805045623022 0 0 1 0 0 0 1 forward_v I I I I #
coedge $-1 $434 $294 $304 $394 reversed $200 $-1 #
coedge $-1 $294 $434 $307 $396 forward $200 $-1 #
coedge $-1 $435 $297 $295 $386 forward $292 $-1 #
edge $-1 $387 54.483897232172112 $436 69.395428327280499 $295 $437 forward 7 unknown #
vertex $-1 $386 $438 #
straight-curve $-1 -54.483897232172112 44.227805045623022 6.4706831894676 0 0 -1 I I #
coedge $-1 $297 $435 $299 $391 forward $292 $-1 #
straight-curve $-1 -54.483897232172112 0 18.225764603123359 0 1 0 I I #
edge $-1 $439 -69.395428327280499 $301 -54.483897232172112 $299 $440 forward 7 unknown #
point $-1 -54.483897232172112 -44.227805045623022 18.225764603123359 #
straight-curve $-1 -69.395428327280499 0 7.6569681547470392 0 -1 0 I I #
edge $-1 $439 -18.225764603123359 $305 -7.6569681547470392 $383 $441 forward 7 unknown #
point $-1 -69.395428327280499 -44.227805045623022 7.6569681547470392 #
edge $-1 $436 -18.225764603123359 $308 -7.6569681547470392 $307 $442 forward 7 unknown #
point $-1 -69.395428327280499 44.227805045623022 7.6569681547470392 #
coedge $-1 $399 $314 $405 $443 reversed $216 $-1 #
coedge $-1 $314 $398 $317 $403 reversed $216 $-1 #
edge $-1 $401 -41.501965793596113 $322 -14.284959273772657 $321 $444 forward 7 unknown #
vertex $-1 $316 $445 #
straight-curve $-1 69.395428327280499 16.267482721617935 52.252576492732665 0 0.52991925155115449 -0.84804810408105047 I I #
edge $-1 $318 37.529793907081498 $407 44.227805045623022 $399 $446 forward 7 unknown #
point $-1 69.395428327280499 37.529793907081498 18.225764603123352 #
coedge $-1 $321 $320 $398 $443 forward $312 $-1 #
point $-1 42.178421807457042 44.227805045623022 7.5067057455200796 #
vertex $-1 $403 $447 #
straight-curve $-1 0 44.227805045623022 18.225764603123359 -1 0 0 I I #
vertex $-1 $328 $448 #
point $-1 49.621823111421733 37.49302558872499 10.750568909850719 #
vertex $-1 $332 $449 #
point $-1 57.78692506736877 37.49302558872499 10.750568909850719 #
vertex $-1 $336 $450 #
point $-1 65.952027023315807 37.49302558872499 10.750568909850719 #
coedge $-1 $416 $342 $350 $421 reversed $242 $-1 #
coedge $-1 $343 $415 $345 $418 reversed $242 $-1 #
straight-curve $-1 48.579754673977163 -44.227805045623022 52.5321838252585 0 0 -1 I I #
edge $-1 $346 48.579754673977163 $424 69.395428327280499 $416 $451 forward 7 unknown #
point $-1 48.579754673977163 -44.227805045623022 18.225764603123359 #
straight-curve $-1 29.493795750314412 -44.227805045623022 5.2265816295642242 1 0 0 I I #
edge $-1 $424 -18.225764603123359 $351 -5.2265816295642296 $350 $452 forward 7 unknown #
point $-1 69.395428327280484 -44.227805045623022 5.2265816295642296 #
point $-1 48.579754673977163 -44.227805045623022 5.2265816295642296 #
vertex $-1 $355 $453 #
straight-curve $-1 69.395428327280499 0 18.225764603123359 0 1 0 I I #
vertex $-1 $358 $454 #
point $-1 56.527090003492418 -32.063779397511531 6.0996174314355969 #
vertex $-1 $362 $455 #
point $-1 65.448092997765272 -32.063779397511531 6.0996174314355969 #
straight-curve $-1 -69.395428327280499 44.227805045623022 0 0 0 -1 I I #
point $-1 -69.395428327280499 -44.227805045623022 -18.225764603123359 #
straight-curve $-1 -69.395428327280499 0 -18.225764603123359 0 1 0 I I #
point $-1 -69.395428327280499 44.227805045623022 -18.225764603123359 #
coedge $-1 $384 $383 $435 $456 reversed $200 $-1 #
coedge $-1 $389 $385 $434 $456 forward $292 $-1 #
vertex $-1 $386 $457 #
straight-curve $-1 0 44.227805045623022 18.225764603123359 -1 0 0 I I #
point $-1 -54.483897232172112 44.227805045623022 18.225764603123359 #
vertex $-1 $456 $458 #
straight-curve $-1 0 -44.227805045623022 18.225764603123359 1 0 0 I I #
straight-curve $-1 -69.395428327280499 -44.227805045623022 0 0 0 -1 I I #
straight-curve $-1 -69.395428327280499 44.227805045623022 0 0 0 -1 I I #
edge $-1 $407 -18.225764603123359 $401 -7.5067057455200796 $398 $459 forward 7 unknown #
straight-curve $-1 27.893462533684385 44.227805045623022 7.5067057455200938 -1 0 0 I I #
point $-1 69.395428327280499 44.227805045623022 7.5067057455200796 #
straight-curve $-1 69.395428327280499 0 18.225764603123359 0 1 0 I I #
point $-1 69.395428327280499 44.227805045623022 18.225764603123359 #
point $-1 47.621823111421733 35.796929380562887 9.6907304067484095 #
point $-1 55.78692506736877 35.796929380562887 9.6907304067484095 #
point $-1 63.952027023315807 35.796929380562887 9.6907304067484095 #
straight-curve $-1 0 -44.227805045623022 18.225764603123359 1 0 0 I I #
straight-curve $-1 69.395428327280499 -44.227805045623022 0 0 0 -1 I I #
point $-1 69.395428327280499 -44.227805045623022 18.225764603123359 #
point $-1 54.527090003492418 -30.674462640272122 4.6609378465197011 #
point $-1 63.448092997765272 -30.674462640272122 4.6609378465197011 #
edge $-1 $436 -44.227805045623022 $439 44.227805045623022 $434 $460 forward 7 unknown #
point $-1 -69.395428327280499 44.227805045623022 18.225764603123359 #
point $-1 -69.395428327280499 -44.227805045623022 18.225764603123359 #
straight-curve $-1 69.395428327280499 44.227805045623022 0 0 0 -1 I I #
straight-curve $-1 -69.395428327280499 0 18.225764603123359 0 -1 0 I I #
End-of-ACIS-data 