500 0 6 0           
7 Unknown 11 ACIS 5.0 NT 24 Thu Mar 25 22:31:01 1999 
-1 9.9999999999999995e-007 1e-010 
body $-1 $6 $-1 $7 #
body $-1 $8 $-1 $9 #
body $-1 $10 $-1 $11 #
body $-1 $12 $-1 $13 #
body $-1 $14 $-1 $15 #
body $-1 $16 $-1 $17 #
lump $-1 $-1 $18 $0 #
transform $-1 1 0 0 0 1 0 0 0 1 46.145207068086791 24.506798879303552 6.230322785249256 1 rotate no_reflect no_shear #
lump $-1 $-1 $19 $1 #
transform $-1 1 0 0 0 1 0 0 0 1 46.145207068086791 24.506798879303552 6.230322785249256 1 rotate no_reflect no_shear #
lump $-1 $-1 $20 $2 #
transform $-1 1 0 0 0 1 0 0 0 1 46.145207068086791 24.506798879303552 6.230322785249256 1 rotate no_reflect no_shear #
lump $-1 $-1 $21 $3 #
transform $-1 1 0 0 0 1 0 0 0 1 46.145207068086791 24.506798879303552 6.230322785249256 1 rotate no_reflect no_shear #
lump $-1 $-1 $22 $4 #
transform $-1 1 0 0 0 1 0 0 0 1 46.145207068086791 24.506798879303552 6.230322785249256 1 rotate no_reflect no_shear #
lump $-1 $-1 $23 $5 #
transform $-1 1 0 0 0 1 0 0 0 1 46.145207068086791 24.506798879303552 6.230322785249256 1 rotate no_reflect no_shear #
shell $-1 $-1 $-1 $24 $-1 $6 #
shell $-1 $-1 $-1 $25 $-1 $8 #
shell $-1 $-1 $-1 $26 $-1 $10 #
shell $-1 $-1 $-1 $27 $-1 $12 #
shell $-1 $-1 $-1 $28 $-1 $14 #
shell $-1 $-1 $-1 $29 $-1 $16 #
face $-1 $30 $31 $18 $-1 $32 forward single #
face $-1 $33 $34 $19 $-1 $35 forward single #
face $-1 $36 $37 $20 $-1 $38 reversed single #
face $-1 $39 $40 $21 $-1 $41 forward single #
face $-1 $42 $43 $22 $-1 $44 forward single #
face $-1 $45 $46 $23 $-1 $47 forward single #
face $-1 $48 $49 $18 $-1 $50 reversed single #
loop $-1 $-1 $51 $24 #
plane-surface $-1 0 0 6.230322785249256 0 0 1 1 0 0 forward_v I I I I #
face $-1 $52 $53 $19 $-1 $54 reversed single #
loop $-1 $-1 $55 $25 #
plane-surface $-1 0 -20.577565680213588 -3.230322785249256 0 0 1 1 0 0 forward_v I I I I #
face $-1 $56 $57 $20 $-1 $58 reversed single #
loop $-1 $-1 $59 $26 #
plane-surface $-1 25.40429759644249 44.496319870434739 105.50856713425429 1 0 0 0 -0.62932039886446345 -0.77714595512881146 forward_v I I I I #
face $-1 $60 $61 $21 $-1 $62 forward single #
loop $-1 $63 $64 $27 #
cone-surface $-1 29.552479490771347 21.788813574700484 3.7375030276083843 0 -0.62932039886446345 -0.77714595512881146 1 0 0 1 I I 0 1 1 forward I I I I #
face $-1 $65 $66 $22 $-1 $67 forward single #
loop $-1 $68 $69 $28 #
cone-surface $-1 35.77475233226464 21.788813574700484 3.7375030276083843 0 -0.62932039886446345 -0.77714595512881146 1 0 0 1 I I 0 1 1 forward I I I I #
face $-1 $70 $71 $23 $-1 $72 forward single #
loop $-1 $73 $74 $29 #
cone-surface $-1 41.997025173757933 21.788813574700484 3.7375030276083843 0 -0.62932039886446345 -0.77714595512881146 1 0 0 1 I I 0 1 1 forward I I I I #
face $-1 $75 $76 $18 $-1 $77 reversed single #
loop $-1 $-1 $78 $30 #
plane-surface $-1 0 0 -6.230322785249256 0 0 1 1 0 0 forward_v I I I I #
coedge $-1 $79 $80 $81 $82 forward $31 $-1 #
face $-1 $83 $84 $19 $-1 $85 reversed single #
loop $-1 $-1 $86 $33 #
plane-surface $-1 0 -16.648332481123624 -4.730322785249256 0 -1 0 0 0 -1 forward_v I I I I #
coedge $-1 $87 $88 $89 $90 reversed $34 $-1 #
face $-1 $91 $92 $20 $-1 $93 reversed single #
loop $-1 $-1 $94 $36 #
plane-surface $-1 35.77475233226464 -13.583920365108533 33.785445091164107 0 0.62932039886446345 0.77714595512881146 1 0 0 forward_v I I I I #
coedge $-1 $95 $96 $97 $98 reversed $37 $-1 #
face $-1 $-1 $99 $21 $-1 $100 forward single #
loop $-1 $101 $102 $39 #
cone-surface $-1 29.552479490771347 20.78765695090803 2.5011775850601774 0 -0.62932039886446345 -0.77714595512881146 0.5 0 0 1 I I -0.70710678118654746 0.70710678118654746 0.5 forward I I I I #
loop $-1 $-1 $103 $27 #
coedge $-1 $64 $64 $104 $105 reversed $40 $-1 #
face $-1 $-1 $106 $22 $-1 $107 forward single #
loop $-1 $108 $109 $42 #
cone-surface $-1 35.77475233226464 20.78765695090803 2.5011775850601774 0 -0.62932039886446345 -0.77714595512881146 0.5 0 0 1 I I -0.70710678118654746 0.70710678118654746 0.5 forward I I I I #
loop $-1 $-1 $110 $28 #
coedge $-1 $69 $69 $111 $112 reversed $43 $-1 #
face $-1 $-1 $113 $23 $-1 $114 forward single #
loop $-1 $115 $116 $45 #
cone-surface $-1 41.997025173757933 20.78765695090803 2.5011775850601774 0 -0.62932039886446345 -0.77714595512881146 0.5 0 0 1 I I -0.70710678118654746 0.70710678118654746 0.5 forward I I I I #
loop $-1 $-1 $117 $29 #
coedge $-1 $74 $74 $118 $119 reversed $46 $-1 #
face $-1 $120 $121 $18 $-1 $122 reversed single #
loop $-1 $-1 $123 $48 #
plane-surface $-1 0 -24.506798879303552 0 0 1 0 0 0 1 forward_v I I I I #
coedge $-1 $124 $125 $126 $127 forward $49 $-1 #
coedge $-1 $128 $51 $129 $130 forward $31 $-1 #
coedge $-1 $51 $128 $131 $132 forward $31 $-1 #
coedge $-1 $133 $134 $51 $82 reversed $135 $-1 #
edge $-1 $136 -24.506798879303552 $137 24.506798879303552 $81 $138 forward 7 unknown #
face $-1 $139 $140 $19 $-1 $141 reversed single #
loop $-1 $-1 $142 $52 #
plane-surface $-1 0 0 -6.230322785249256 0 0 1 1 0 0 forward_v I I I I #
coedge $-1 $143 $144 $145 $146 reversed $53 $-1 #
coedge $-1 $147 $55 $144 $148 forward $34 $-1 #
coedge $-1 $55 $147 $149 $150 reversed $34 $-1 #
coedge $-1 $151 $145 $55 $90 forward $140 $-1 #
edge $-1 $152 6.3595496410168302 $153 14.218016039196758 $89 $154 forward 7 unknown #
face $-1 $155 $156 $20 $-1 $157 forward single #
loop $-1 $-1 $158 $56 #
plane-surface $-1 46.145207068086791 0 0 -1 0 0 0 0 1 forward_v I I I I #
coedge $-1 $159 $160 $161 $162 reversed $57 $-1 #
coedge $-1 $96 $59 $163 $164 reversed $37 $-1 #
coedge $-1 $59 $95 $159 $165 reversed $37 $-1 #
coedge $-1 $161 $166 $59 $98 forward $156 $-1 #
edge $-1 $167 -2.2586389440861829 $168 1.8043388163994969 $97 $169 forward 7 unknown #
loop $-1 $-1 $104 $60 #
plane-surface $-1 35.77475233226464 -13.583920365108533 33.785445091164107 0 0.62932039886446345 0.77714595512881146 1 0 0 forward_v I I I I #
loop $-1 $-1 $170 $39 #
coedge $-1 $102 $102 $103 $171 reversed $61 $-1 #
coedge $-1 $103 $103 $102 $171 forward $63 $-1 #
coedge $-1 $104 $104 $64 $105 forward $99 $-1 #
edge $-1 $172 -5.2518187581664207e-016 $172 6.2831853071795996 $104 $173 forward 7 unknown #
loop $-1 $-1 $111 $65 #
plane-surface $-1 35.77475233226464 -13.583920365108533 33.785445091164107 0 0.62932039886446345 0.77714595512881146 1 0 0 forward_v I I I I #
loop $-1 $-1 $174 $42 #
coedge $-1 $109 $109 $110 $175 reversed $66 $-1 #
coedge $-1 $110 $110 $109 $175 forward $68 $-1 #
coedge $-1 $111 $111 $69 $112 forward $106 $-1 #
edge $-1 $176 -5.2518187581664207e-016 $176 6.2831853071795996 $111 $177 forward 7 unknown #
loop $-1 $-1 $118 $70 #
plane-surface $-1 35.77475233226464 -13.583920365108533 33.785445091164107 0 0.62932039886446345 0.77714595512881146 1 0 0 forward_v I I I I #
loop $-1 $-1 $178 $45 #
coedge $-1 $116 $116 $117 $179 reversed $71 $-1 #
coedge $-1 $117 $117 $116 $179 forward $73 $-1 #
coedge $-1 $118 $118 $74 $119 forward $113 $-1 #
edge $-1 $180 -5.2518187581664207e-016 $180 6.2831853071795996 $118 $181 forward 7 unknown #
face $-1 $182 $183 $18 $-1 $184 reversed single #
loop $-1 $-1 $185 $75 #
plane-surface $-1 -46.145207068086791 0 0 1 0 0 0 0 -1 forward_v I I I I #
coedge $-1 $186 $131 $187 $188 forward $76 $-1 #
coedge $-1 $189 $78 $186 $190 forward $49 $-1 #
coedge $-1 $78 $189 $191 $192 forward $49 $-1 #
coedge $-1 $134 $133 $78 $127 reversed $135 $-1 #
edge $-1 $193 -24.506798879303552 $194 24.506798879303552 $126 $195 forward 7 unknown #
coedge $-1 $80 $79 $196 $197 forward $31 $-1 #
coedge $-1 $198 $199 $79 $130 reversed $183 $-1 #
edge $-1 $137 -46.145207068086791 $200 46.145207068086791 $129 $201 forward 7 unknown #
coedge $-1 $123 $202 $80 $132 reversed $76 $-1 #
edge $-1 $203 -46.145207068086791 $136 46.145207068086791 $131 $204 forward 7 unknown #
coedge $-1 $126 $81 $202 $205 forward $135 $-1 #
coedge $-1 $81 $126 $198 $206 reversed $135 $-1 #
loop $-1 $-1 $133 $182 #
vertex $-1 $82 $207 #
vertex $-1 $82 $208 #
straight-curve $-1 46.145207068086791 0 6.230322785249256 0 1 0 I I #
face $-1 $209 $210 $19 $-1 $211 reversed single #
loop $-1 $-1 $145 $83 #
plane-surface $-1 46.145207068086791 0 0 -1 0 0 0 0 1 forward_v I I I I #
coedge $-1 $212 $213 $143 $214 forward $84 $-1 #
coedge $-1 $215 $86 $142 $214 reversed $53 $-1 #
coedge $-1 $86 $215 $87 $148 reversed $53 $-1 #
coedge $-1 $89 $216 $86 $146 forward $140 $-1 #
edge $-1 $217 -3.865161392624628 $152 -0.86516139262462799 $145 $218 forward 7 unknown #
coedge $-1 $88 $87 $219 $220 reversed $34 $-1 #
edge $-1 $152 -46.145207068086791 $221 46.145207068086791 $144 $222 forward 7 unknown #
coedge $-1 $223 $224 $88 $150 forward $210 $-1 #
edge $-1 $153 -46.145207068086791 $225 46.145207068086791 $149 $226 forward 7 unknown #
coedge $-1 $216 $89 $224 $227 forward $140 $-1 #
vertex $-1 $90 $228 #
vertex $-1 $227 $229 #
straight-curve $-1 46.145207068086791 -10.288782840106794 -3.230322785249256 0 -1 0 I I #
face $-1 $-1 $230 $20 $-1 $231 reversed single #
loop $-1 $-1 $161 $91 #
plane-surface $-1 0 0 6.230322785249256 0 0 1 1 0 0 forward_v I I I I #
coedge $-1 $232 $233 $160 $234 forward $92 $-1 #
coedge $-1 $235 $94 $96 $165 forward $57 $-1 #
coedge $-1 $94 $235 $158 $234 reversed $57 $-1 #
coedge $-1 $236 $97 $94 $162 forward $156 $-1 #
edge $-1 $168 7.5169214303101697 $237 28.25783090195447 $161 $238 forward 7 unknown #
coedge $-1 $239 $240 $95 $164 forward $230 $-1 #
edge $-1 $241 -49.814095367192031 $167 -46.523960781877889 $163 $242 forward 7 unknown #
edge $-1 $168 43.78552221671967 $241 49.013597758607098 $96 $243 forward 7 unknown #
coedge $-1 $97 $236 $239 $244 forward $156 $-1 #
vertex $-1 $164 $245 #
vertex $-1 $98 $246 #
straight-curve $-1 25.40429759644249 22.24815993521737 6.2303227852492569 0 -1 0 I I #
coedge $-1 $170 $170 $-1 $247 reversed $101 $-1 #
edge $-1 $248 0 $248 6.2831853071796004 $102 $249 forward 7 unknown #
vertex $-1 $105 $250 #
ellipse-curve $-1 29.552479490771347 22.475309999060709 4.5852554925921893 0 0.62932039886446345 0.77714595512881146 1 0 0 1 I I #
coedge $-1 $174 $174 $-1 $251 reversed $108 $-1 #
edge $-1 $252 0 $252 6.2831853071796004 $109 $253 forward 7 unknown #
vertex $-1 $112 $254 #
ellipse-curve $-1 35.77475233226464 22.475309999060709 4.5852554925921893 0 0.62932039886446345 0.77714595512881146 1 0 0 1 I I #
coedge $-1 $178 $178 $-1 $255 reversed $115 $-1 #
edge $-1 $256 0 $256 6.2831853071796004 $116 $257 forward 7 unknown #
vertex $-1 $119 $258 #
ellipse-curve $-1 41.997025173757933 22.475309999060709 4.5852554925921893 0 0.62932039886446345 0.77714595512881146 1 0 0 1 I I #
face $-1 $-1 $135 $18 $-1 $259 reversed single #
loop $-1 $-1 $198 $120 #
plane-surface $-1 0 24.506798879303552 0 0 -1 0 0 0 -1 forward_v I I I I #
coedge $-1 $260 $196 $199 $261 forward $121 $-1 #
coedge $-1 $202 $123 $124 $190 reversed $76 $-1 #
coedge $-1 $196 $260 $123 $188 reversed $121 $-1 #
edge $-1 $203 -6.230322785249256 $262 6.230322785249256 $187 $263 forward 7 unknown #
coedge $-1 $125 $124 $260 $264 forward $49 $-1 #
edge $-1 $194 -46.145207068086791 $262 46.145207068086791 $186 $265 forward 7 unknown #
coedge $-1 $199 $198 $125 $192 reversed $183 $-1 #
edge $-1 $266 -46.145207068086791 $193 46.145207068086791 $191 $267 forward 7 unknown #
vertex $-1 $127 $268 #
vertex $-1 $205 $269 #
straight-curve $-1 46.145207068086791 0 -6.230322785249256 0 -1 0 I I #
coedge $-1 $185 $187 $128 $197 reversed $121 $-1 #
edge $-1 $200 -24.506798879303552 $203 24.506798879303552 $196 $270 forward 7 unknown #
coedge $-1 $191 $129 $134 $206 forward $183 $-1 #
coedge $-1 $129 $191 $185 $261 reversed $183 $-1 #
vertex $-1 $130 $271 #
straight-curve $-1 0 24.506798879303552 6.230322785249256 -1 0 0 I I #
coedge $-1 $131 $186 $133 $205 reversed $76 $-1 #
vertex $-1 $197 $272 #
straight-curve $-1 0 -24.506798879303552 6.230322785249256 1 0 0 I I #
edge $-1 $136 -6.230322785249256 $194 6.230322785249256 $133 $273 forward 7 unknown #
edge $-1 $137 -6.230322785249256 $193 6.230322785249256 $134 $274 forward 7 unknown #
point $-1 46.145207068086791 -24.506798879303552 6.230322785249256 #
point $-1 46.145207068086791 24.506798879303552 6.230322785249256 #
face $-1 $-1 $275 $19 $-1 $276 reversed single #
loop $-1 $-1 $149 $139 #
plane-surface $-1 0 -24.506798879303552 0 0 1 0 0 0 1 forward_v I I I I #
coedge $-1 $277 $142 $216 $278 forward $84 $-1 #
coedge $-1 $142 $277 $279 $280 forward $84 $-1 #
edge $-1 $281 -46.145207068086791 $217 46.145207068086791 $142 $282 forward 7 unknown #
coedge $-1 $144 $143 $283 $284 reversed $53 $-1 #
coedge $-1 $145 $151 $212 $278 reversed $140 $-1 #
vertex $-1 $278 $285 #
straight-curve $-1 46.145207068086791 -16.648332481123624 -2.365161392624628 0 0 1 I I #
coedge $-1 $283 $286 $147 $220 forward $275 $-1 #
edge $-1 $225 -14.218016039196758 $221 -6.3595496410168302 $219 $287 forward 7 unknown #
vertex $-1 $220 $288 #
straight-curve $-1 0 -16.648332481123624 -3.230322785249256 -1 0 0 I I #
coedge $-1 $289 $149 $286 $290 forward $210 $-1 #
coedge $-1 $149 $289 $151 $227 reversed $210 $-1 #
vertex $-1 $290 $291 #
straight-curve $-1 0 -24.506798879303552 -3.230322785249256 -1 0 0 I I #
edge $-1 $153 3.230322785249256 $292 6.230322785249256 $151 $293 forward 7 unknown #
point $-1 46.145207068086791 -16.648332481123624 -3.230322785249256 #
point $-1 46.145207068086791 -24.506798879303552 -3.230322785249256 #
loop $-1 $-1 $163 $155 #
plane-surface $-1 0 24.506798879303552 0 0 -1 0 0 0 -1 forward_v I I I I #
coedge $-1 $233 $158 $294 $295 reversed $92 $-1 #
coedge $-1 $158 $232 $236 $296 reversed $92 $-1 #
edge $-1 $237 27.876242943159269 $297 33.10431848504669 $158 $298 forward 7 unknown #
coedge $-1 $160 $159 $240 $299 reversed $57 $-1 #
coedge $-1 $166 $161 $233 $296 forward $156 $-1 #
vertex $-1 $296 $300 #
straight-curve $-1 17.88737616613232 20.443821118817873 6.2303227852492533 1 0 0 I I #
coedge $-1 $294 $163 $166 $244 reversed $230 $-1 #
coedge $-1 $163 $294 $235 $299 forward $230 $-1 #
vertex $-1 $164 $301 #
straight-curve $-1 25.40429759644249 24.506798879303552 52.754283567127146 0 0 1 I I #
straight-curve $-1 25.40429759644249 -13.583920365108533 33.785445091164107 0 0.77714595512881146 -0.62932039886446345 I I #
edge $-1 $302 -46.145207068086791 $167 -25.40429759644249 $239 $303 forward 7 unknown #
point $-1 25.40429759644249 24.506798879303552 6.230322785249256 #
point $-1 25.40429759644249 20.443821118817873 6.2303227852492569 #
edge $-1 $304 1 $304 0 $170 $-1 forward 7 unknown #
vertex $-1 $171 $305 #
ellipse-curve $-1 29.552479490771347 21.102317150340262 2.8897505626245832 0 0.62932039886446345 0.77714595512881146 1 0 0 1 I I #
point $-1 30.552479490771347 22.475309999060705 4.5852554925921858 #
edge $-1 $306 1 $306 0 $174 $-1 forward 7 unknown #
vertex $-1 $175 $307 #
ellipse-curve $-1 35.77475233226464 21.102317150340262 2.8897505626245832 0 0.62932039886446345 0.77714595512881146 1 0 0 1 I I #
point $-1 36.77475233226464 22.475309999060705 4.5852554925921858 #
edge $-1 $308 1 $308 0 $178 $-1 forward 7 unknown #
vertex $-1 $179 $309 #
ellipse-curve $-1 41.997025173757933 21.102317150340262 2.8897505626245832 0 0.62932039886446345 0.77714595512881146 1 0 0 1 I I #
point $-1 42.997025173757933 22.475309999060705 4.5852554925921858 #
plane-surface $-1 46.145207068086791 0 0 -1 0 0 0 0 1 forward_v I I I I #
coedge $-1 $187 $185 $189 $264 reversed $121 $-1 #
edge $-1 $200 -6.230322785249256 $266 6.230322785249256 $199 $310 forward 7 unknown #
vertex $-1 $264 $311 #
straight-curve $-1 -46.145207068086791 -24.506798879303552 0 0 0 -1 I I #
edge $-1 $262 -24.506798879303552 $266 24.506798879303552 $260 $312 forward 7 unknown #
straight-curve $-1 0 -24.506798879303552 -6.230322785249256 -1 0 0 I I #
vertex $-1 $192 $313 #
straight-curve $-1 0 24.506798879303552 -6.230322785249256 1 0 0 I I #
point $-1 46.145207068086791 24.506798879303552 -6.230322785249256 #
point $-1 46.145207068086791 -24.506798879303552 -6.230322785249256 #
straight-curve $-1 -46.145207068086791 0 6.230322785249256 0 -1 0 I I #
point $-1 -46.145207068086791 24.506798879303552 6.230322785249256 #
point $-1 -46.145207068086791 -24.506798879303552 6.230322785249256 #
straight-curve $-1 46.145207068086791 -24.506798879303552 0 0 0 -1 I I #
straight-curve $-1 46.145207068086791 24.506798879303552 0 0 0 -1 I I #
loop $-1 $-1 $283 $209 #
plane-surface $-1 -46.145207068086791 0 0 1 0 0 0 0 -1 forward_v I I I I #
coedge $-1 $213 $212 $289 $314 forward $84 $-1 #
edge $-1 $217 16.648332481123624 $292 24.506798879303552 $216 $315 forward 7 unknown #
coedge $-1 $286 $283 $213 $280 reversed $275 $-1 #
edge $-1 $316 -24.506798879303552 $281 -16.648332481123624 $279 $317 forward 7 unknown #
vertex $-1 $284 $318 #
straight-curve $-1 0 -16.648332481123624 -6.230322785249256 1 0 0 I I #
coedge $-1 $279 $219 $215 $284 forward $275 $-1 #
edge $-1 $221 0.86516139262462799 $281 3.865161392624628 $283 $319 forward 7 unknown #
point $-1 46.145207068086791 -16.648332481123624 -6.230322785249256 #
coedge $-1 $219 $279 $223 $290 reversed $275 $-1 #
straight-curve $-1 -46.145207068086791 -10.288782840106794 -3.230322785249256 0 1 0 I I #
point $-1 -46.145207068086791 -16.648332481123624 -3.230322785249256 #
coedge $-1 $224 $223 $277 $314 reversed $210 $-1 #
edge $-1 $225 3.230322785249256 $316 6.230322785249256 $286 $320 forward 7 unknown #
point $-1 -46.145207068086791 -24.506798879303552 -3.230322785249256 #
vertex $-1 $227 $321 #
straight-curve $-1 46.145207068086791 -24.506798879303552 0 0 0 -1 I I #
coedge $-1 $240 $239 $232 $295 forward $230 $-1 #
edge $-1 $302 -6.230322785249256 $297 -2.9401881999351147 $232 $322 forward 7 unknown #
edge $-1 $237 20.443821118817873 $302 24.506798879303552 $233 $323 forward 7 unknown #
vertex $-1 $234 $324 #
straight-curve $-1 46.145207068086791 -1.2200883286464279 23.773411113080932 0 0.77714595512881146 -0.62932039886446345 I I #
edge $-1 $297 -28.25783090195447 $241 -7.5169214303101697 $240 $325 forward 7 unknown #
point $-1 46.145207068086791 20.443821118817873 6.2303227852492569 #
point $-1 25.40429759644249 24.506798879303552 2.9401881999351147 #
vertex $-1 $296 $326 #
straight-curve $-1 0 24.506798879303552 6.230322785249256 -1 0 0 I I #
vertex $-1 $247 $327 #
point $-1 30.552479490771347 21.102317150340262 2.8897505626245832 #
vertex $-1 $251 $328 #
point $-1 36.77475233226464 21.102317150340262 2.8897505626245832 #
vertex $-1 $255 $329 #
point $-1 42.997025173757933 21.102317150340262 2.8897505626245832 #
straight-curve $-1 -46.145207068086791 24.506798879303552 0 0 0 -1 I I #
point $-1 -46.145207068086791 -24.506798879303552 -6.230322785249256 #
straight-curve $-1 -46.145207068086791 0 -6.230322785249256 0 1 0 I I #
point $-1 -46.145207068086791 24.506798879303552 -6.230322785249256 #
edge $-1 $292 -46.145207068086791 $316 46.145207068086791 $289 $330 forward 7 unknown #
straight-curve $-1 46.145207068086791 0 -6.230322785249256 0 -1 0 I I #
vertex $-1 $280 $331 #
straight-curve $-1 -46.145207068086791 0 -6.230322785249256 0 1 0 I I #
point $-1 -46.145207068086791 -16.648332481123624 -6.230322785249256 #
straight-curve $-1 -46.145207068086791 -16.648332481123624 -2.365161392624628 0 0 -1 I I #
straight-curve $-1 -46.145207068086791 -24.506798879303552 0 0 0 -1 I I #
point $-1 46.145207068086791 -24.506798879303552 -6.230322785249256 #
straight-curve $-1 46.145207068086791 24.506798879303552 0 0 0 -1 I I #
straight-curve $-1 46.145207068086791 0 6.230322785249256 0 1 0 I I #
point $-1 46.145207068086791 24.506798879303552 2.9401881999351147 #
straight-curve $-1 17.88737616613232 24.506798879303552 2.9401881999351147 -1 0 0 I I #
point $-1 46.145207068086791 24.506798879303552 6.230322785249256 #
point $-1 29.552479490771347 20.472996751475797 2.1126046074957716 #
point $-1 35.77475233226464 20.472996751475797 2.1126046074957716 #
point $-1 41.997025173757933 20.472996751475797 2.1126046074957716 #
straight-curve $-1 0 -24.506798879303552 -6.230322785249256 -1 0 0 I I #
point $-1 -46.145207068086791 -24.506798879303552 -6.230322785249256 #
End-of-ACIS-data 