500 0 7 0           
7 Unknown 11 ACIS 5.0 NT 24 Thu Mar 25 20:47:26 1999 
-1 9.9999999999999995e-007 1e-010 
body $-1 $7 $-1 $8 #
body $-1 $9 $-1 $10 #
body $-1 $11 $-1 $12 #
body $-1 $13 $-1 $14 #
body $-1 $15 $-1 $16 #
body $-1 $17 $-1 $18 #
body $-1 $19 $-1 $20 #
lump $-1 $-1 $21 $0 #
transform $-1 1 0 0 0 1 0 0 0 1 52.301400799584947 34.116660083940808 15.959146166406079 1 rotate no_reflect no_shear #
lump $-1 $-1 $22 $1 #
transform $-1 1 0 0 0 1 0 0 0 1 52.301400799584947 34.116660083940808 15.959146166406079 1 rotate no_reflect no_shear #
lump $-1 $-1 $23 $2 #
transform $-1 1 0 0 0 1 0 0 0 1 52.301400799584947 34.116660083940808 15.959146166406079 1 rotate no_reflect no_shear #
lump $-1 $-1 $24 $3 #
transform $-1 1 0 0 0 1 0 0 0 1 52.301400799584947 34.116660083940808 15.959146166406079 1 rotate no_reflect no_shear #
lump $-1 $-1 $25 $4 #
transform $-1 1 0 0 0 1 0 0 0 1 52.301400799584947 34.116660083940808 15.959146166406079 1 rotate no_reflect no_shear #
lump $-1 $-1 $26 $5 #
transform $-1 1 0 0 0 1 0 0 0 1 52.301400799584947 34.116660083940808 15.959146166406079 1 rotate no_reflect no_shear #
lump $-1 $-1 $27 $6 #
transform $-1 1 0 0 0 1 0 0 0 1 52.301400799584947 34.116660083940808 15.959146166406079 1 rotate no_reflect no_shear #
shell $-1 $-1 $-1 $28 $-1 $7 #
shell $-1 $-1 $-1 $29 $-1 $9 #
shell $-1 $-1 $-1 $30 $-1 $11 #
shell $-1 $-1 $-1 $31 $-1 $13 #
shell $-1 $-1 $-1 $32 $-1 $15 #
shell $-1 $-1 $-1 $33 $-1 $17 #
shell $-1 $-1 $-1 $34 $-1 $19 #
face $-1 $35 $36 $21 $-1 $37 reversed single #
face $-1 $38 $39 $22 $-1 $40 forward single #
face $-1 $41 $42 $23 $-1 $43 forward single #
face $-1 $44 $45 $24 $-1 $46 reversed single #
face $-1 $47 $48 $25 $-1 $49 forward single #
face $-1 $50 $51 $26 $-1 $52 reversed single #
face $-1 $53 $54 $27 $-1 $55 forward single #
face $-1 $56 $57 $21 $-1 $58 forward single #
loop $-1 $-1 $59 $28 #
plane-surface $-1 52.301400799584947 0 0 -1 0 0 0 0 1 forward_v I I I I #
face $-1 $60 $61 $22 $-1 $62 reversed single #
loop $-1 $-1 $63 $29 #
plane-surface $-1 -52.301400799584947 0 0 1 0 0 0 0 -1 forward_v I I I I #
face $-1 $64 $65 $23 $-1 $66 reversed single #
loop $-1 $-1 $67 $30 #
plane-surface $-1 52.301400799584947 0 0 -1 0 0 0 0 1 forward_v I I I I #
face $-1 $68 $69 $24 $-1 $70 reversed single #
loop $-1 $-1 $71 $31 #
plane-surface $-1 26.753502093853676 -117.65617275171672 72.690571767189397 -1 0 0 0 -0.79863551827123203 0.60181501223851219 forward_v I I I I #
face $-1 $72 $73 $25 $-1 $74 forward single #
loop $-1 $75 $76 $32 #
cone-surface $-1 20.505228434423266 -30.727371224866165 12.061103793866204 0 0.79863551827123203 -0.60181501223851219 1 0 0 1 I I 0 1 1 forward I I I I #
face $-1 $77 $78 $26 $-1 $79 reversed single #
loop $-1 $-1 $80 $33 #
plane-surface $-1 14.75150839499797 88.636005021866708 121.62030604784957 1 0 0 0 -0.85716730853699208 -0.51503806187062418 forward_v I I I I #
face $-1 $81 $82 $27 $-1 $83 forward single #
loop $-1 $84 $85 $34 #
cone-surface $-1 25.648011374890295 29.981471135708869 11.333733044847335 0 -0.85716730853699208 -0.51503806187062418 1.5 0 0 1 I I 0 1 1.5 forward I I I I #
face $-1 $86 $87 $21 $-1 $88 reversed single #
loop $-1 $-1 $89 $35 #
plane-surface $-1 0 0 15.959146166406079 0 0 1 1 0 0 forward_v I I I I #
coedge $-1 $90 $91 $92 $93 reversed $36 $-1 #
face $-1 $94 $95 $22 $-1 $96 forward single #
loop $-1 $-1 $97 $38 #
plane-surface $-1 0 34.116660083940808 0 0 -1 0 0 0 -1 forward_v I I I I #
coedge $-1 $98 $99 $100 $101 forward $39 $-1 #
face $-1 $102 $103 $23 $-1 $104 forward single #
loop $-1 $-1 $105 $41 #
plane-surface $-1 0 -34.116660083940808 0 0 1 0 0 0 1 forward_v I I I I #
coedge $-1 $106 $107 $108 $109 forward $42 $-1 #
face $-1 $110 $111 $24 $-1 $112 reversed single #
loop $-1 $-1 $113 $44 #
plane-surface $-1 20.505228434423266 -34.116660083940815 9.7390354426023009 0 -0.79863551827123203 0.60181501223851219 1 0 0 forward_v I I I I #
coedge $-1 $114 $115 $116 $117 reversed $45 $-1 #
face $-1 $-1 $118 $25 $-1 $119 forward single #
loop $-1 $120 $121 $47 #
cone-surface $-1 20.505228434423266 -29.282359354028234 10.972209277108959 0 0.79863551827123203 -0.60181501223851219 0.5 0 0 1 I I -0.70710678118654746 0.70710678118654746 0.5 forward I I I I #
loop $-1 $-1 $122 $32 #
coedge $-1 $76 $76 $123 $124 reversed $48 $-1 #
face $-1 $125 $126 $26 $-1 $127 reversed single #
loop $-1 $-1 $128 $50 #
plane-surface $-1 25.648011374890295 -1.0260968903227194 67.745881845975674 0 0.85716730853699208 0.51503806187062418 1 0 0 forward_v I I I I #
coedge $-1 $129 $130 $131 $132 reversed $51 $-1 #
face $-1 $-1 $133 $27 $-1 $134 forward single #
loop $-1 $135 $136 $53 #
cone-surface $-1 25.648011374890295 27.216480700390143 9.6723592375237999 0 -0.85716730853699208 -0.51503806187062418 0.75 0 0 1 I I -0.70710678118654757 0.70710678118654757 0.75 forward I I I I #
loop $-1 $-1 $137 $34 #
coedge $-1 $85 $85 $138 $139 reversed $54 $-1 #
face $-1 $140 $141 $21 $-1 $142 reversed single #
loop $-1 $-1 $143 $56 #
plane-surface $-1 0 0 -15.959146166406079 0 0 1 1 0 0 forward_v I I I I #
coedge $-1 $144 $145 $90 $146 forward $57 $-1 #
coedge $-1 $147 $59 $89 $146 reversed $36 $-1 #
coedge $-1 $59 $147 $143 $148 reversed $36 $-1 #
coedge $-1 $149 $150 $59 $93 forward $151 $-1 #
edge $-1 $152 -15.959146166406079 $153 15.959146166406079 $59 $154 forward 7 unknown #
face $-1 $155 $156 $22 $-1 $157 reversed single #
loop $-1 $-1 $100 $60 #
plane-surface $-1 -58.963344655261409 0 -2.3236436689564397 0 0 1 1 0 0 forward_v I I I I #
coedge $-1 $158 $159 $99 $160 forward $61 $-1 #
coedge $-1 $161 $63 $162 $163 reversed $39 $-1 #
coedge $-1 $63 $161 $97 $160 reversed $39 $-1 #
coedge $-1 $164 $165 $63 $101 reversed $95 $-1 #
edge $-1 $166 -34.116660083940808 $167 34.116660083940808 $100 $168 forward 7 unknown #
face $-1 $169 $170 $23 $-1 $171 reversed single #
loop $-1 $-1 $172 $64 #
plane-surface $-1 58.963344655261402 0 -2.3236436689564397 0 0 1 1 0 0 forward_v I I I I #
coedge $-1 $173 $174 $107 $175 forward $65 $-1 #
coedge $-1 $176 $67 $177 $178 reversed $42 $-1 #
coedge $-1 $67 $176 $105 $175 reversed $42 $-1 #
coedge $-1 $179 $180 $67 $109 reversed $103 $-1 #
edge $-1 $181 -34.116660083940808 $182 34.116660083940808 $108 $183 forward 7 unknown #
face $-1 $184 $185 $24 $-1 $186 forward single #
loop $-1 $-1 $187 $68 #
plane-surface $-1 14.256954774992856 -117.65617275171672 72.690571767189397 1 0 0 0 0.79863551827123203 -0.60181501223851219 forward_v I I I I #
coedge $-1 $188 $189 $190 $191 reversed $69 $-1 #
coedge $-1 $115 $71 $192 $193 reversed $45 $-1 #
coedge $-1 $71 $114 $188 $194 reversed $45 $-1 #
coedge $-1 $190 $195 $71 $117 forward $185 $-1 #
edge $-1 $196 24.711426291917554 $197 29.398615786662202 $116 $198 forward 7 unknown #
loop $-1 $-1 $123 $72 #
plane-surface $-1 20.505228434423266 -34.116660083940815 9.7390354426023009 0 -0.79863551827123203 0.60181501223851219 1 0 0 forward_v I I I I #
loop $-1 $-1 $199 $47 #
coedge $-1 $121 $121 $122 $200 reversed $73 $-1 #
coedge $-1 $122 $122 $121 $200 forward $75 $-1 #
coedge $-1 $123 $123 $76 $124 forward $118 $-1 #
edge $-1 $201 -1.4186616650690665e-015 $201 6.2831853071795987 $123 $202 forward 7 unknown #
face $-1 $203 $204 $26 $-1 $205 reversed single #
loop $-1 $-1 $206 $77 #
plane-surface $-1 36.544514354782621 88.636005021866708 121.62030604784957 -1 0 0 0 0.85716730853699208 0.51503806187062418 forward_v I I I I #
coedge $-1 $207 $208 $209 $210 reversed $78 $-1 #
coedge $-1 $130 $80 $211 $212 reversed $51 $-1 #
coedge $-1 $80 $129 $207 $213 reversed $51 $-1 #
coedge $-1 $209 $214 $80 $132 forward $215 $-1 #
edge $-1 $216 10.201342426992547 $217 14.227490415624466 $131 $218 forward 7 unknown #
loop $-1 $-1 $138 $81 #
plane-surface $-1 25.648011374890295 -1.0260968903227194 67.745881845975674 0 0.85716730853699208 0.51503806187062418 1 0 0 forward_v I I I I #
loop $-1 $-1 $219 $53 #
coedge $-1 $136 $136 $137 $220 reversed $82 $-1 #
coedge $-1 $137 $137 $136 $220 forward $84 $-1 #
coedge $-1 $138 $138 $85 $139 forward $133 $-1 #
edge $-1 $221 8.1906068394846559e-016 $221 6.2831853071796013 $138 $222 forward 7 unknown #
face $-1 $223 $224 $21 $-1 $225 reversed single #
loop $-1 $-1 $226 $86 #
plane-surface $-1 0 -34.116660083940808 0 0 1 0 0 0 1 forward_v I I I I #
coedge $-1 $227 $228 $91 $148 forward $87 $-1 #
coedge $-1 $229 $89 $150 $230 forward $57 $-1 #
coedge $-1 $89 $229 $231 $232 forward $57 $-1 #
edge $-1 $233 -34.116660083940808 $152 34.116660083940808 $90 $234 forward 7 unknown #
coedge $-1 $91 $90 $235 $236 forward $36 $-1 #
edge $-1 $153 -34.116660083940808 $237 34.116660083940808 $91 $238 forward 7 unknown #
coedge $-1 $239 $92 $228 $240 reversed $151 $-1 #
coedge $-1 $92 $239 $144 $230 reversed $151 $-1 #
loop $-1 $-1 $92 $223 #
vertex $-1 $146 $241 #
vertex $-1 $148 $242 #
straight-curve $-1 52.301400799584947 34.116660083940808 0 0 0 -1 I I #
face $-1 $243 $244 $22 $-1 $245 reversed single #
loop $-1 $-1 $246 $94 #
plane-surface $-1 -58.963344655261409 0 -9.5603203732532869 0 0 1 1 0 0 forward_v I I I I #
coedge $-1 $247 $97 $248 $249 reversed $61 $-1 #
coedge $-1 $97 $247 $164 $250 reversed $61 $-1 #
edge $-1 $166 2.3236436689564397 $251 9.5603203732532869 $97 $252 forward 7 unknown #
coedge $-1 $99 $98 $246 $253 forward $39 $-1 #
coedge $-1 $254 $255 $98 $163 forward $256 $-1 #
edge $-1 $257 -9.5603203732532869 $167 -2.3236436689564397 $162 $258 forward 7 unknown #
coedge $-1 $259 $100 $159 $250 forward $95 $-1 #
coedge $-1 $100 $259 $254 $260 forward $95 $-1 #
vertex $-1 $160 $261 #
vertex $-1 $260 $262 #
straight-curve $-1 -52.301400799584947 0 -2.3236436689564397 0 -1 0 I I #
face $-1 $263 $264 $23 $-1 $265 reversed single #
loop $-1 $-1 $266 $102 #
plane-surface $-1 58.963344655261402 0 -9.5603203732532869 0 0 1 1 0 0 forward_v I I I I #
coedge $-1 $180 $179 $267 $268 forward $103 $-1 #
coedge $-1 $269 $105 $270 $271 reversed $65 $-1 #
coedge $-1 $105 $269 $179 $272 reversed $65 $-1 #
edge $-1 $181 2.3236436689564397 $273 9.5603203732532869 $105 $274 forward 7 unknown #
coedge $-1 $107 $106 $275 $276 forward $42 $-1 #
coedge $-1 $277 $278 $106 $178 forward $279 $-1 #
edge $-1 $280 -9.5603203732532869 $182 -2.3236436689564397 $177 $281 forward 7 unknown #
coedge $-1 $172 $108 $174 $272 forward $103 $-1 #
coedge $-1 $108 $172 $277 $282 forward $103 $-1 #
vertex $-1 $175 $283 #
vertex $-1 $282 $284 #
straight-curve $-1 52.301400799584947 0 -2.3236436689564397 0 1 0 I I #
face $-1 $-1 $285 $24 $-1 $286 reversed single #
loop $-1 $-1 $116 $110 #
plane-surface $-1 0 0 15.959146166406079 0 0 1 1 0 0 forward_v I I I I #
coedge $-1 $287 $288 $289 $290 reversed $111 $-1 #
coedge $-1 $291 $113 $115 $194 forward $69 $-1 #
coedge $-1 $113 $291 $287 $292 forward $69 $-1 #
coedge $-1 $289 $116 $113 $191 forward $185 $-1 #
edge $-1 $197 -16.500887876642043 $293 -4.004340557781223 $190 $294 forward 7 unknown #
coedge $-1 $295 $296 $114 $193 forward $285 $-1 #
edge $-1 $297 -26.60625044099239 $196 -20.38613971718862 $192 $298 forward 7 unknown #
edge $-1 $197 -7.7884223547534583 $297 -1.1369461177519839e-014 $115 $299 forward 7 unknown #
coedge $-1 $116 $289 $295 $300 forward $185 $-1 #
vertex $-1 $193 $301 #
vertex $-1 $117 $302 #
straight-curve $-1 26.753502093853676 -58.828086375858362 15.959146166406079 0 1 0 I I #
coedge $-1 $199 $199 $-1 $303 reversed $120 $-1 #
edge $-1 $304 0 $304 6.2831853071796004 $121 $305 forward 7 unknown #
vertex $-1 $124 $306 #
ellipse-curve $-1 20.505228434423266 -31.773065336568482 12.849090804504195 0 -0.79863551827123203 0.60181501223851219 1 0 0 1 I I #
face $-1 $-1 $215 $26 $-1 $307 forward single #
loop $-1 $-1 $308 $125 #
plane-surface $-1 0 34.116660083940808 0 0 -1 0 0 0 -1 forward_v I I I I #
coedge $-1 $309 $310 $311 $312 reversed $126 $-1 #
coedge $-1 $313 $128 $130 $213 forward $78 $-1 #
coedge $-1 $128 $313 $309 $314 forward $78 $-1 #
coedge $-1 $311 $131 $128 $210 forward $215 $-1 #
edge $-1 $217 1.9275027075528222 $315 23.720508667337473 $209 $316 forward 7 unknown #
coedge $-1 $317 $318 $129 $212 forward $204 $-1 #
edge $-1 $319 -51.551642578795061 $216 -44.851006857518705 $211 $320 forward 7 unknown #
edge $-1 $217 60.416134824319059 $319 68.233320167881644 $130 $321 forward 7 unknown #
coedge $-1 $131 $311 $317 $322 forward $215 $-1 #
loop $-1 $-1 $311 $203 #
vertex $-1 $212 $323 #
vertex $-1 $132 $324 #
straight-curve $-1 14.75150839499797 44.318002510933354 15.959146166406079 0 -1 0 I I #
coedge $-1 $219 $219 $-1 $325 reversed $135 $-1 #
edge $-1 $326 0 $326 6.2831853071796004 $136 $327 forward 7 unknown #
vertex $-1 $139 $328 #
ellipse-curve $-1 25.648011374890295 32.103586089624841 12.608828305767897 0 0.85716730853699208 0.51503806187062418 1.5 0 0 1 I I #
face $-1 $-1 $151 $21 $-1 $329 reversed single #
loop $-1 $-1 $330 $140 #
plane-surface $-1 -52.301400799584947 0 0 1 0 0 0 0 -1 forward_v I I I I #
coedge $-1 $331 $231 $330 $332 forward $141 $-1 #
coedge $-1 $333 $143 $331 $334 forward $87 $-1 #
coedge $-1 $143 $333 $149 $240 forward $87 $-1 #
coedge $-1 $145 $144 $335 $336 forward $57 $-1 #
edge $-1 $152 -52.301400799584947 $337 52.301400799584947 $150 $338 forward 7 unknown #
coedge $-1 $226 $235 $145 $232 reversed $141 $-1 #
edge $-1 $339 -52.301400799584947 $233 52.301400799584947 $231 $340 forward 7 unknown #
vertex $-1 $146 $341 #
straight-curve $-1 52.301400799584947 0 15.959146166406079 0 1 0 I I #
coedge $-1 $231 $331 $147 $236 reversed $141 $-1 #
edge $-1 $233 -15.959146166406079 $237 15.959146166406079 $147 $342 forward 7 unknown #
vertex $-1 $236 $343 #
straight-curve $-1 52.301400799584947 0 -15.959146166406079 0 -1 0 I I #
coedge $-1 $150 $149 $344 $345 reversed $151 $-1 #
edge $-1 $346 -52.301400799584947 $153 52.301400799584947 $149 $347 forward 7 unknown #
point $-1 52.301400799584947 34.116660083940808 15.959146166406079 #
point $-1 52.301400799584947 34.116660083940808 -15.959146166406079 #
face $-1 $-1 $256 $22 $-1 $348 reversed single #
loop $-1 $-1 $349 $155 #
plane-surface $-1 -65.625288510937878 0 -5.9419820211048631 1 0 0 0 0 -1 forward_v I I I I #
coedge $-1 $350 $248 $161 $253 reversed $156 $-1 #
coedge $-1 $159 $158 $349 $351 reversed $61 $-1 #
coedge $-1 $246 $352 $158 $249 forward $156 $-1 #
edge $-1 $353 -6.6619438556764692 $251 6.6619438556764621 $158 $354 forward 7 unknown #
edge $-1 $166 -6.6619438556764621 $355 6.6619438556764692 $159 $356 forward 7 unknown #
vertex $-1 $160 $357 #
straight-curve $-1 -52.301400799584947 34.116660083940808 0 0 0 -1 I I #
edge $-1 $257 -34.116660083940808 $251 34.116660083940808 $246 $358 forward 7 unknown #
coedge $-1 $359 $162 $165 $260 reversed $256 $-1 #
coedge $-1 $162 $359 $350 $360 reversed $256 $-1 #
loop $-1 $-1 $162 $243 #
vertex $-1 $163 $361 #
straight-curve $-1 -52.301400799584947 -34.116660083940808 0 0 0 1 I I #
coedge $-1 $165 $164 $362 $363 forward $95 $-1 #
edge $-1 $364 -6.6619438556764692 $167 6.6619438556764621 $254 $365 forward 7 unknown #
point $-1 -52.301400799584947 34.116660083940808 -2.3236436689564397 #
point $-1 -52.301400799584947 -34.116660083940808 -2.3236436689564397 #
face $-1 $-1 $279 $23 $-1 $366 reversed single #
loop $-1 $-1 $367 $169 #
plane-surface $-1 65.625288510937864 0 -5.9419820211048631 -1 0 0 0 0 1 forward_v I I I I #
coedge $-1 $270 $368 $369 $370 forward $170 $-1 #
coedge $-1 $367 $371 $172 $268 reversed $264 $-1 #
edge $-1 $372 -34.116660083940808 $373 34.116660083940808 $267 $374 forward 7 unknown #
coedge $-1 $174 $173 $367 $375 reversed $65 $-1 #
coedge $-1 $275 $266 $173 $271 forward $170 $-1 #
edge $-1 $376 -6.6619438556764621 $273 6.6619438556764621 $173 $377 forward 7 unknown #
edge $-1 $181 -6.6619438556764621 $372 6.6619438556764621 $174 $378 forward 7 unknown #
vertex $-1 $175 $379 #
straight-curve $-1 52.301400799584947 -34.116660083940808 0 0 0 -1 I I #
coedge $-1 $368 $270 $176 $276 reversed $170 $-1 #
edge $-1 $280 -34.116660083940808 $273 34.116660083940808 $275 $380 forward 7 unknown #
coedge $-1 $381 $177 $180 $282 reversed $279 $-1 #
coedge $-1 $177 $381 $368 $382 reversed $279 $-1 #
loop $-1 $-1 $177 $263 #
vertex $-1 $178 $383 #
straight-curve $-1 52.301400799584947 34.116660083940808 0 0 0 1 I I #
edge $-1 $373 -6.6619438556764621 $182 6.6619438556764621 $277 $384 forward 7 unknown #
point $-1 52.30140079958494 -34.116660083940808 -2.3236436689564397 #
point $-1 52.30140079958494 34.116660083940808 -2.3236436689564397 #
loop $-1 $-1 $192 $184 #
plane-surface $-1 0 -34.116660083940808 0 0 1 0 0 0 1 forward_v I I I I #
coedge $-1 $288 $187 $189 $292 reversed $111 $-1 #
coedge $-1 $187 $287 $385 $386 reversed $111 $-1 #
coedge $-1 $195 $190 $187 $290 forward $185 $-1 #
edge $-1 $293 -29.398615786662202 $387 -24.711426291917554 $289 $388 forward 7 unknown #
coedge $-1 $189 $188 $296 $389 reversed $69 $-1 #
edge $-1 $390 1.1369461177519839e-014 $293 7.7884223547534583 $287 $391 forward 7 unknown #
vertex $-1 $191 $392 #
straight-curve $-1 10.252614217211633 -29.429470589196161 15.959146166406079 -1 0 0 I I #
coedge $-1 $385 $192 $195 $300 reversed $285 $-1 #
coedge $-1 $192 $385 $291 $389 forward $285 $-1 #
vertex $-1 $193 $393 #
straight-curve $-1 26.753502093853676 -34.116660083940808 36.345285883594698 0 0 1 I I #
straight-curve $-1 26.753502093853676 -34.116660083940815 9.7390354426023009 0 -0.60181501223851219 -0.79863551827123203 I I #
edge $-1 $387 14.256954774992856 $196 26.753502093853676 $295 $394 forward 7 unknown #
point $-1 26.753502093853676 -34.116660083940808 15.959146166406079 #
point $-1 26.753502093853676 -29.429470589196161 15.959146166406079 #
edge $-1 $395 1 $395 0 $199 $-1 forward 7 unknown #
vertex $-1 $200 $396 #
ellipse-curve $-1 20.505228434423266 -29.68167711316385 11.273116783228215 0 -0.79863551827123203 0.60181501223851219 1 0 0 1 I I #
point $-1 21.505228434423266 -31.773065336568482 12.849090804504193 #
plane-surface $-1 0 0 15.959146166406079 0 0 1 1 0 0 forward_v I I I I #
coedge $-1 $318 $317 $310 $397 forward $204 $-1 #
coedge $-1 $310 $206 $208 $314 reversed $126 $-1 #
coedge $-1 $206 $309 $308 $397 reversed $126 $-1 #
coedge $-1 $214 $209 $206 $312 forward $215 $-1 #
edge $-1 $315 -14.227490415624466 $398 -10.201342426992547 $311 $399 forward 7 unknown #
coedge $-1 $208 $207 $318 $400 reversed $78 $-1 #
edge $-1 $401 -68.233320167881644 $315 -60.416134824319059 $309 $402 forward 7 unknown #
vertex $-1 $210 $403 #
straight-curve $-1 12.824005687445148 30.090512095308881 15.959146166406079 1 0 0 I I #
coedge $-1 $308 $211 $214 $322 reversed $204 $-1 #
coedge $-1 $211 $308 $313 $400 forward $204 $-1 #
vertex $-1 $212 $404 #
straight-curve $-1 14.75150839499797 34.116660083940808 60.810153023924784 0 0 1 I I #
straight-curve $-1 14.75150839499797 -1.0260968903227194 67.745881845975674 0 0.51503806187062418 -0.85716730853699208 I I #
edge $-1 $398 -36.544514354782621 $216 -14.75150839499797 $317 $405 forward 7 unknown #
point $-1 14.75150839499797 34.116660083940808 15.959146166406079 #
point $-1 14.75150839499797 30.090512095308888 15.959146166406079 #
edge $-1 $406 1 $406 0 $219 $-1 forward 7 unknown #
vertex $-1 $220 $407 #
ellipse-curve $-1 25.648011374890295 27.859356181792887 10.058637783926768 0 0.85716730853699208 0.51503806187062418 1.5 0 0 1 I I #
point $-1 27.148011374890295 32.103586089624855 12.608828305767904 #
plane-surface $-1 0 34.116660083940808 0 0 -1 0 0 0 -1 forward_v I I I I #
coedge $-1 $335 $408 $226 $332 reversed $224 $-1 #
coedge $-1 $235 $226 $227 $334 reversed $141 $-1 #
edge $-1 $339 -15.959146166406079 $409 15.959146166406079 $330 $410 forward 7 unknown #
coedge $-1 $228 $227 $408 $411 forward $87 $-1 #
edge $-1 $237 -52.301400799584947 $409 52.301400799584947 $331 $412 forward 7 unknown #
coedge $-1 $344 $330 $229 $336 reversed $224 $-1 #
edge $-1 $337 -34.116660083940808 $339 34.116660083940808 $335 $413 forward 7 unknown #
vertex $-1 $230 $414 #
straight-curve $-1 0 34.116660083940808 15.959146166406079 -1 0 0 I I #
vertex $-1 $336 $415 #
straight-curve $-1 0 -34.116660083940808 15.959146166406079 1 0 0 I I #
point $-1 52.301400799584947 -34.116660083940808 15.959146166406079 #
straight-curve $-1 52.301400799584947 -34.116660083940808 0 0 0 -1 I I #
point $-1 52.301400799584947 -34.116660083940808 -15.959146166406079 #
coedge $-1 $408 $335 $239 $345 forward $224 $-1 #
edge $-1 $337 -15.959146166406079 $346 15.959146166406079 $239 $416 forward 7 unknown #
vertex $-1 $240 $417 #
straight-curve $-1 0 34.116660083940808 -15.959146166406079 1 0 0 I I #
plane-surface $-1 0 -34.116660083940808 0 0 1 0 0 0 1 forward_v I I I I #
coedge $-1 $418 $362 $247 $351 forward $244 $-1 #
coedge $-1 $352 $246 $255 $360 forward $156 $-1 #
edge $-1 $355 -3.6183383521484234 $353 3.6183383521484238 $247 $419 forward 7 unknown #
coedge $-1 $248 $350 $418 $420 forward $156 $-1 #
vertex $-1 $249 $421 #
straight-curve $-1 -58.963344655261409 34.116660083940808 -9.5603203732532869 1 0 0 I I #
vertex $-1 $250 $422 #
straight-curve $-1 -58.963344655261409 34.116660083940808 -2.3236436689564397 -1 0 0 I I #
point $-1 -52.301400799584947 34.116660083940808 -9.5603203732532869 #
straight-curve $-1 -52.301400799584947 0 -9.5603203732532869 0 1 0 I I #
coedge $-1 $255 $254 $423 $424 forward $256 $-1 #
edge $-1 $257 -6.6619438556764621 $425 6.6619438556764692 $255 $426 forward 7 unknown #
point $-1 -52.301400799584947 -34.116660083940808 -9.5603203732532869 #
coedge $-1 $349 $423 $259 $363 reversed $244 $-1 #
edge $-1 $355 -34.116660083940808 $364 34.116660083940808 $362 $427 forward 7 unknown #
vertex $-1 $363 $428 #
straight-curve $-1 -58.963344655261409 -34.116660083940808 -2.3236436689564397 1 0 0 I I #
plane-surface $-1 0 34.116660083940808 0 0 -1 0 0 0 -1 forward_v I I I I #
coedge $-1 $369 $267 $269 $375 forward $264 $-1 #
coedge $-1 $266 $275 $278 $382 forward $170 $-1 #
coedge $-1 $371 $367 $266 $370 reversed $264 $-1 #
edge $-1 $429 -34.116660083940808 $376 34.116660083940808 $369 $430 forward 7 unknown #
coedge $-1 $267 $369 $381 $431 reversed $264 $-1 #
vertex $-1 $268 $432 #
vertex $-1 $268 $433 #
straight-curve $-1 65.625288510937864 0 -2.3236436689564397 0 1 0 I I #
edge $-1 $372 -3.6183383521484234 $376 3.6183383521484238 $367 $434 forward 7 unknown #
vertex $-1 $375 $435 #
straight-curve $-1 58.963344655261402 -34.116660083940808 -9.5603203732532869 -1 0 0 I I #
straight-curve $-1 58.963344655261402 -34.116660083940808 -2.3236436689564397 1 0 0 I I #
point $-1 52.30140079958494 -34.116660083940808 -9.5603203732532869 #
straight-curve $-1 52.301400799584947 0 -9.5603203732532869 0 -1 0 I I #
coedge $-1 $278 $277 $371 $431 forward $279 $-1 #
edge $-1 $280 -6.6619438556764621 $429 6.6619438556764621 $278 $436 forward 7 unknown #
point $-1 52.30140079958494 34.116660083940808 -9.5603203732532869 #
straight-curve $-1 58.963344655261402 34.116660083940808 -2.3236436689564397 -1 0 0 I I #
coedge $-1 $296 $295 $288 $386 forward $285 $-1 #
edge $-1 $387 20.38613971718862 $390 26.60625044099239 $385 $437 forward 7 unknown #
vertex $-1 $300 $438 #
straight-curve $-1 14.256954774992856 -58.828086375858362 15.959146166406079 0 -1 0 I I #
edge $-1 $390 4.004340557781223 $297 16.500887876642043 $296 $439 forward 7 unknown #
vertex $-1 $389 $440 #
straight-curve $-1 14.256954774992856 -34.116660083940815 9.7390354426023009 0 0.60181501223851219 0.79863551827123203 I I #
point $-1 14.256954774992856 -29.429470589196161 15.959146166406079 #
point $-1 26.753502093853676 -34.116660083940808 9.7390354426023098 #
straight-curve $-1 0 -34.116660083940808 15.959146166406079 1 0 0 I I #
vertex $-1 $303 $441 #
point $-1 21.505228434423266 -29.68167711316385 11.273116783228215 #
edge $-1 $398 44.851006857518705 $401 51.551642578795061 $308 $442 forward 7 unknown #
vertex $-1 $322 $443 #
straight-curve $-1 36.544514354782621 44.318002510933354 15.959146166406079 0 1 0 I I #
edge $-1 $401 -23.720508667337473 $319 -1.9275027075528222 $318 $444 forward 7 unknown #
vertex $-1 $400 $445 #
straight-curve $-1 36.544514354782621 -1.0260968903227194 67.745881845975674 0 -0.51503806187062418 0.85716730853699208 I I #
point $-1 36.544514354782621 30.090512095308888 15.959146166406079 #
point $-1 14.75150839499797 34.116660083940808 9.2585104451297227 #
straight-curve $-1 0 34.116660083940808 15.959146166406079 -1 0 0 I I #
vertex $-1 $325 $446 #
point $-1 27.148011374890295 27.859356181792887 10.058637783926768 #
coedge $-1 $330 $344 $333 $411 reversed $224 $-1 #
vertex $-1 $411 $447 #
straight-curve $-1 -52.301400799584947 -34.116660083940808 0 0 0 -1 I I #
edge $-1 $409 -34.116660083940808 $346 34.116660083940808 $408 $448 forward 7 unknown #
straight-curve $-1 0 -34.116660083940808 -15.959146166406079 -1 0 0 I I #
straight-curve $-1 -52.301400799584947 0 15.959146166406079 0 -1 0 I I #
point $-1 -52.301400799584947 34.116660083940808 15.959146166406079 #
point $-1 -52.301400799584947 -34.116660083940808 15.959146166406079 #
straight-curve $-1 -52.301400799584947 34.116660083940808 0 0 0 -1 I I #
point $-1 -52.301400799584947 34.116660083940808 -15.959146166406079 #
coedge $-1 $423 $349 $352 $420 reversed $244 $-1 #
straight-curve $-1 -65.625288510937878 34.116660083940808 -5.9419820211048631 0 0 -1 I I #
edge $-1 $425 -34.116660083940808 $353 34.116660083940808 $418 $449 forward 7 unknown #
point $-1 -65.625288510937878 34.116660083940808 -9.5603203732532869 #
point $-1 -65.625288510937878 34.116660083940808 -2.3236436689564397 #
coedge $-1 $362 $418 $359 $424 reversed $244 $-1 #
edge $-1 $364 -3.6183383521484234 $425 3.6183383521484238 $423 $450 forward 7 unknown #
vertex $-1 $420 $451 #
straight-curve $-1 -58.963344655261409 -34.116660083940808 -9.5603203732532869 -1 0 0 I I #
straight-curve $-1 -65.625288510937878 0 -2.3236436689564397 0 -1 0 I I #
point $-1 -65.625288510937878 -34.116660083940808 -2.3236436689564397 #
vertex $-1 $370 $452 #
straight-curve $-1 65.625288510937864 0 -9.5603203732532869 0 -1 0 I I #
edge $-1 $373 -3.6183383521484234 $429 3.6183383521484238 $371 $453 forward 7 unknown #
point $-1 65.625288510937864 -34.116660083940808 -2.3236436689564397 #
point $-1 65.625288510937864 34.116660083940808 -2.3236436689564397 #
straight-curve $-1 65.625288510937864 -34.116660083940808 -5.9419820211048631 0 0 -1 I I #
point $-1 65.625288510937864 -34.116660083940808 -9.5603203732532869 #
straight-curve $-1 58.963344655261402 34.116660083940808 -9.5603203732532869 1 0 0 I I #
straight-curve $-1 14.256954774992856 -34.116660083940808 36.345285883594698 0 0 -1 I I #
point $-1 14.256954774992856 -34.116660083940808 15.959146166406079 #
straight-curve $-1 10.252614217211633 -34.116660083940808 9.7390354426023151 1 0 0 I I #
point $-1 14.256954774992856 -34.116660083940808 9.7390354426023098 #
point $-1 20.505228434423266 -28.883041594892617 10.671301770989704 #
straight-curve $-1 36.544514354782621 34.116660083940808 60.810153023924784 0 0 -1 I I #
point $-1 36.544514354782621 34.116660083940808 15.959146166406079 #
straight-curve $-1 12.824005687445148 34.116660083940808 9.258510445129712 -1 0 0 I I #
point $-1 36.544514354782621 34.116660083940808 9.2585104451297227 #
point $-1 25.648011374890295 26.573605218987399 9.2860806911208318 #
point $-1 -52.301400799584947 -34.116660083940808 -15.959146166406079 #
straight-curve $-1 -52.301400799584947 0 -15.959146166406079 0 1 0 I I #
straight-curve $-1 -65.625288510937878 0 -9.5603203732532869 0 1 0 I I #
straight-curve $-1 -65.625288510937878 -34.116660083940808 -5.9419820211048631 0 0 -1 I I #
point $-1 -65.625288510937878 -34.116660083940808 -9.5603203732532869 #
point $-1 65.625288510937864 34.116660083940808 -9.5603203732532869 #
straight-curve $-1 65.625288510937864 34.116660083940808 -5.9419820211048631 0 0 -1 I I #
End-of-ACIS-data 