500 0 8 0           
7 Unknown 11 ACIS 5.0 NT 24 Thu Mar 25 16:35:46 1999 
-1 9.9999999999999995e-007 1e-010 
body $-1 $8 $-1 $9 #
body $-1 $10 $-1 $11 #
body $-1 $12 $-1 $13 #
body $-1 $14 $-1 $15 #
body $-1 $16 $-1 $17 #
body $-1 $18 $-1 $19 #
body $-1 $20 $-1 $21 #
body $-1 $22 $-1 $23 #
lump $-1 $-1 $24 $0 #
transform $-1 1 0 0 0 1 0 0 0 1 56.344492934965061 38.115372049535871 14.966742332607751 1 rotate no_reflect no_shear #
lump $-1 $-1 $25 $1 #
transform $-1 1 0 0 0 1 0 0 0 1 56.344492934965061 38.115372049535871 14.966742332607751 1 rotate no_reflect no_shear #
lump $-1 $-1 $26 $2 #
transform $-1 1 0 0 0 1 0 0 0 1 56.344492934965061 38.115372049535871 14.966742332607751 1 rotate no_reflect no_shear #
lump $-1 $-1 $27 $3 #
transform $-1 1 0 0 0 1 0 0 0 1 56.344492934965061 38.115372049535871 14.966742332607751 1 rotate no_reflect no_shear #
lump $-1 $-1 $28 $4 #
transform $-1 1 0 0 0 1 0 0 0 1 56.344492934965061 38.115372049535871 14.966742332607751 1 rotate no_reflect no_shear #
lump $-1 $-1 $29 $5 #
transform $-1 1 0 0 0 1 0 0 0 1 56.344492934965061 38.115372049535871 14.966742332607751 1 rotate no_reflect no_shear #
lump $-1 $-1 $30 $6 #
transform $-1 1 0 0 0 1 0 0 0 1 56.344492934965061 38.115372049535871 14.966742332607751 1 rotate no_reflect no_shear #
lump $-1 $-1 $31 $7 #
transform $-1 1 0 0 0 1 0 0 0 1 56.344492934965061 38.115372049535871 14.966742332607751 1 rotate no_reflect no_shear #
shell $-1 $-1 $-1 $32 $-1 $8 #
shell $-1 $-1 $-1 $33 $-1 $10 #
shell $-1 $-1 $-1 $34 $-1 $12 #
shell $-1 $-1 $-1 $35 $-1 $14 #
shell $-1 $-1 $-1 $36 $-1 $16 #
shell $-1 $-1 $-1 $37 $-1 $18 #
shell $-1 $-1 $-1 $38 $-1 $20 #
shell $-1 $-1 $-1 $39 $-1 $22 #
face $-1 $40 $41 $24 $-1 $42 forward single #
face $-1 $43 $44 $25 $-1 $45 reversed single #
face $-1 $46 $47 $26 $-1 $48 reversed single #
face $-1 $49 $50 $27 $-1 $51 forward single #
face $-1 $52 $53 $28 $-1 $54 forward single #
face $-1 $55 $56 $29 $-1 $57 forward single #
face $-1 $58 $59 $30 $-1 $60 reversed single #
face $-1 $61 $62 $31 $-1 $63 forward single #
face $-1 $64 $65 $24 $-1 $66 reversed single #
loop $-1 $-1 $67 $32 #
plane-surface $-1 0 0 14.966742332607751 0 0 1 1 0 0 forward_v I I I I #
face $-1 $68 $69 $25 $-1 $70 reversed single #
loop $-1 $-1 $71 $33 #
plane-surface $-1 -32.837750356857242 -32.989289064471109 0 1 0 0 0 0 -1 forward_v I I I I #
face $-1 $72 $73 $26 $-1 $74 reversed single #
loop $-1 $-1 $75 $34 #
plane-surface $-1 -127.26197047026137 15.726709780005692 99.374901812064749 0 1 0 -0.62932039886446345 0 0.77714595512881146 forward_v I I I I #
face $-1 $76 $77 $27 $-1 $78 forward single #
loop $-1 $79 $80 $35 #
cone-surface $-1 -54.073984088269803 17.439007618357991 12.994354316579848 0.62932039886446345 0 -0.77714595512881146 0.19428648878220287 0 0.15733009971611586 1 I I 0 1 0.25 forward I I I I #
face $-1 $81 $82 $28 $-1 $83 forward single #
loop $-1 $84 $85 $36 #
cone-surface $-1 -54.073984088269803 20.007454375886446 12.994354316579848 0.62932039886446345 0 -0.77714595512881146 0.19428648878220287 0 0.15733009971611586 1 I I 0 1 0.25 forward I I I I #
face $-1 $86 $87 $29 $-1 $88 forward single #
loop $-1 $89 $90 $37 #
cone-surface $-1 -54.073984088269803 22.575901133414902 12.994354316579848 0.62932039886446345 0 -0.77714595512881146 0.19428648878220287 0 0.15733009971611586 1 I I 0 1 0.25 forward I I I I #
face $-1 $91 $92 $30 $-1 $93 reversed single #
loop $-1 $-1 $94 $38 #
plane-surface $-1 23.210379001600515 29.198689486945625 156.23106857312183 0 1 0 0.54463904215088732 0 0.83867056331134215 forward_v I I I I #
face $-1 $95 $96 $31 $-1 $97 forward single #
loop $-1 $98 $99 $39 #
cone-surface $-1 44.017337508419239 33.657030768240752 6.0075525640184839 -0.54463904215088732 0 -0.83867056331134215 1.2580058449670133 0 -0.81695856322633098 1 I I 0 1 1.5 forward I I I I #
face $-1 $100 $101 $24 $-1 $102 reversed single #
loop $-1 $-1 $103 $40 #
plane-surface $-1 0 0 -14.966742332607751 0 0 1 1 0 0 forward_v I I I I #
coedge $-1 $104 $105 $106 $107 forward $41 $-1 #
face $-1 $108 $109 $25 $-1 $110 reversed single #
loop $-1 $-1 $111 $43 #
plane-surface $-1 -29.6243793133034 -27.863206079406346 0 0 -1 0 0 0 -1 forward_v I I I I #
coedge $-1 $112 $113 $114 $115 forward $44 $-1 #
face $-1 $116 $117 $26 $-1 $118 reversed single #
loop $-1 $-1 $119 $46 #
plane-surface $-1 -56.344492934965061 20.007454375886446 11.799112255680768 -0.62932039886446345 0 0.77714595512881146 0.77714595512881146 0 0.62932039886446345 forward_v I I I I #
coedge $-1 $120 $121 $122 $123 reversed $47 $-1 #
face $-1 $-1 $124 $27 $-1 $125 forward single #
loop $-1 $126 $127 $49 #
cone-surface $-1 -53.680658838979511 17.439007618357991 12.508638094624342 0.62932039886446345 0 -0.77714595512881146 0.097143244391101433 0 0.078665049858057931 1 I I -0.70710678118654746 0.70710678118654746 0.125 forward I I I I #
loop $-1 $-1 $128 $35 #
coedge $-1 $80 $80 $129 $130 reversed $50 $-1 #
face $-1 $-1 $131 $28 $-1 $132 forward single #
loop $-1 $133 $134 $52 #
cone-surface $-1 -53.680658838979511 20.007454375886446 12.508638094624342 0.62932039886446345 0 -0.77714595512881146 0.097143244391101433 0 0.078665049858057931 1 I I -0.70710678118654746 0.70710678118654746 0.125 forward I I I I #
loop $-1 $-1 $135 $36 #
coedge $-1 $85 $85 $136 $137 reversed $53 $-1 #
face $-1 $-1 $138 $29 $-1 $139 forward single #
loop $-1 $140 $141 $55 #
cone-surface $-1 -53.680658838979511 22.575901133414902 12.508638094624342 0.62932039886446345 0 -0.77714595512881146 0.097143244391101433 0 0.078665049858057931 1 I I -0.70710678118654746 0.70710678118654746 0.125 forward I I I I #
loop $-1 $-1 $142 $37 #
coedge $-1 $90 $90 $143 $144 reversed $56 $-1 #
face $-1 $145 $146 $30 $-1 $147 forward single #
loop $-1 $-1 $148 $58 #
plane-surface $-1 -38.164442323553104 33.657030768240752 61.722133314603667 0.54463904215088732 0 0.83867056331134215 0.83867056331134215 0 -0.54463904215088732 forward_v I I I I #
coedge $-1 $149 $150 $151 $152 reversed $59 $-1 #
face $-1 $-1 $153 $31 $-1 $154 forward single #
loop $-1 $155 $156 $61 #
cone-surface $-1 42.53767687876767 33.657030768240752 3.7290750445245635 -0.54463904215088732 0 -0.83867056331134215 0.62900292248350664 0 -0.40847928161316549 1 I I -0.70710678118654757 0.70710678118654757 0.75 forward I I I I #
loop $-1 $-1 $157 $39 #
coedge $-1 $99 $99 $158 $159 reversed $62 $-1 #
face $-1 $160 $161 $24 $-1 $162 reversed single #
loop $-1 $-1 $163 $64 #
plane-surface $-1 0 -38.115372049535871 0 0 1 0 0 0 1 forward_v I I I I #
coedge $-1 $164 $165 $166 $167 forward $65 $-1 #
coedge $-1 $168 $67 $169 $170 forward $41 $-1 #
coedge $-1 $67 $168 $171 $172 forward $41 $-1 #
coedge $-1 $173 $174 $67 $107 reversed $175 $-1 #
edge $-1 $176 -38.115372049535871 $177 38.115372049535871 $106 $178 forward 7 unknown #
face $-1 $179 $180 $25 $-1 $181 forward single #
loop $-1 $-1 $182 $68 #
plane-surface $-1 -26.411008269749559 -32.989289064471109 0 -1 0 0 0 0 1 forward_v I I I I #
coedge $-1 $183 $184 $185 $186 forward $69 $-1 #
coedge $-1 $187 $71 $188 $189 reversed $44 $-1 #
coedge $-1 $71 $187 $190 $191 reversed $44 $-1 #
coedge $-1 $184 $183 $71 $115 reversed $69 $-1 #
edge $-1 $192 -14.966742332607751 $193 14.966742332607751 $114 $194 forward 7 unknown #
face $-1 $195 $196 $26 $-1 $197 reversed single #
loop $-1 $-1 $198 $72 #
plane-surface $-1 -127.26197047026137 24.288198971767201 99.374901812064749 0 -1 0 0.62932039886446345 0 -0.77714595512881146 forward_v I I I I #
coedge $-1 $199 $200 $201 $202 reversed $73 $-1 #
coedge $-1 $121 $75 $203 $204 reversed $47 $-1 #
coedge $-1 $75 $120 $199 $205 reversed $47 $-1 #
coedge $-1 $201 $206 $75 $123 forward $207 $-1 #
edge $-1 $208 7.2864923001656265 $209 11.198189594691669 $122 $210 forward 7 unknown #
loop $-1 $-1 $129 $76 #
plane-surface $-1 -56.344492934965061 20.007454375886446 11.799112255680768 -0.62932039886446345 0 0.77714595512881146 0.77714595512881146 0 0.62932039886446345 forward_v I I I I #
loop $-1 $-1 $211 $49 #
coedge $-1 $127 $127 $128 $212 reversed $77 $-1 #
coedge $-1 $128 $128 $127 $212 forward $79 $-1 #
coedge $-1 $129 $129 $80 $130 forward $124 $-1 #
edge $-1 $213 0 $213 6.2831853071796004 $129 $214 forward 7 unknown #
loop $-1 $-1 $136 $81 #
plane-surface $-1 -56.344492934965061 20.007454375886446 11.799112255680768 -0.62932039886446345 0 0.77714595512881146 0.77714595512881146 0 0.62932039886446345 forward_v I I I I #
loop $-1 $-1 $215 $52 #
coedge $-1 $134 $134 $135 $216 reversed $82 $-1 #
coedge $-1 $135 $135 $134 $216 forward $84 $-1 #
coedge $-1 $136 $136 $85 $137 forward $131 $-1 #
edge $-1 $217 0 $217 6.2831853071796004 $136 $218 forward 7 unknown #
loop $-1 $-1 $143 $86 #
plane-surface $-1 -56.344492934965061 20.007454375886446 11.799112255680768 -0.62932039886446345 0 0.77714595512881146 0.77714595512881146 0 0.62932039886446345 forward_v I I I I #
loop $-1 $-1 $219 $55 #
coedge $-1 $141 $141 $142 $220 reversed $87 $-1 #
coedge $-1 $142 $142 $141 $220 forward $89 $-1 #
coedge $-1 $143 $143 $90 $144 forward $138 $-1 #
edge $-1 $221 0 $221 6.2831853071796004 $143 $222 forward 7 unknown #
face $-1 $223 $224 $30 $-1 $225 reversed single #
loop $-1 $-1 $226 $91 #
plane-surface $-1 0 0 14.966742332607751 0 0 1 1 0 0 forward_v I I I I #
coedge $-1 $227 $228 $229 $230 reversed $92 $-1 #
coedge $-1 $150 $94 $231 $232 reversed $59 $-1 #
coedge $-1 $94 $149 $227 $233 reversed $59 $-1 #
coedge $-1 $229 $234 $94 $152 forward $235 $-1 #
edge $-1 $236 63.148791953953165 $237 77.768222297110867 $151 $238 forward 7 unknown #
loop $-1 $-1 $158 $95 #
plane-surface $-1 -38.164442323553104 33.657030768240752 61.722133314603667 0.54463904215088732 0 0.83867056331134215 0.83867056331134215 0 -0.54463904215088732 forward_v I I I I #
loop $-1 $-1 $239 $61 #
coedge $-1 $156 $156 $157 $240 reversed $96 $-1 #
coedge $-1 $157 $157 $156 $240 forward $98 $-1 #
coedge $-1 $158 $158 $99 $159 forward $153 $-1 #
edge $-1 $241 0 $241 6.2831853071796004 $158 $242 forward 7 unknown #
face $-1 $243 $244 $24 $-1 $245 reversed single #
loop $-1 $-1 $246 $100 #
plane-surface $-1 -56.344492934965061 0 0 1 0 0 0 0 -1 forward_v I I I I #
coedge $-1 $247 $171 $248 $249 forward $101 $-1 #
coedge $-1 $250 $103 $247 $251 forward $65 $-1 #
coedge $-1 $103 $250 $252 $253 forward $65 $-1 #
coedge $-1 $174 $173 $103 $167 reversed $175 $-1 #
edge $-1 $254 -38.115372049535871 $255 38.115372049535871 $166 $256 forward 7 unknown #
coedge $-1 $105 $104 $257 $258 forward $41 $-1 #
coedge $-1 $259 $260 $104 $170 reversed $244 $-1 #
edge $-1 $177 -56.344492934965061 $261 56.344492934965061 $169 $262 forward 7 unknown #
coedge $-1 $163 $263 $105 $172 reversed $101 $-1 #
edge $-1 $264 -56.344492934965061 $176 56.344492934965061 $171 $265 forward 7 unknown #
coedge $-1 $166 $106 $263 $266 forward $175 $-1 #
coedge $-1 $106 $166 $259 $267 reversed $175 $-1 #
loop $-1 $-1 $173 $243 #
vertex $-1 $107 $268 #
vertex $-1 $107 $269 #
straight-curve $-1 56.344492934965061 0 14.966742332607751 0 1 0 I I #
face $-1 $270 $271 $25 $-1 $272 reversed single #
loop $-1 $-1 $273 $108 #
plane-surface $-1 0 0 14.966742332607751 0 0 1 1 0 0 forward_v I I I I #
coedge $-1 $274 $275 $276 $277 reversed $109 $-1 #
coedge $-1 $114 $111 $278 $279 reversed $69 $-1 #
coedge $-1 $111 $114 $280 $281 reversed $69 $-1 #
coedge $-1 $275 $274 $111 $186 reversed $109 $-1 #
edge $-1 $282 -14.966742332607751 $283 14.966742332607751 $185 $284 forward 7 unknown #
coedge $-1 $113 $112 $285 $286 reversed $44 $-1 #
coedge $-1 $278 $287 $112 $189 forward $271 $-1 #
edge $-1 $288 -21.620727517300317 $193 -11.368561547170792 $188 $289 forward 7 unknown #
coedge $-1 $290 $280 $113 $191 forward $180 $-1 #
edge $-1 $192 11.368561547170792 $291 21.620727517300317 $190 $292 forward 7 unknown #
vertex $-1 $191 $293 #
vertex $-1 $189 $294 #
straight-curve $-1 -32.837750356857242 -27.863206079406346 0 0 0 -1 I I #
face $-1 $-1 $207 $26 $-1 $295 forward single #
loop $-1 $-1 $296 $116 #
plane-surface $-1 -56.344492934965061 0 0 1 0 0 0 0 -1 forward_v I I I I #
coedge $-1 $297 $298 $299 $300 reversed $117 $-1 #
coedge $-1 $301 $119 $121 $205 forward $73 $-1 #
coedge $-1 $119 $301 $297 $302 forward $73 $-1 #
coedge $-1 $299 $122 $119 $202 forward $207 $-1 #
edge $-1 $209 5.7229825920624684 $303 14.284471783823978 $201 $304 forward 7 unknown #
coedge $-1 $305 $306 $120 $204 forward $196 $-1 #
edge $-1 $307 -37.888338650351606 $208 -34.720708573424623 $203 $308 forward 7 unknown #
edge $-1 $209 -5.0334139535959892 $307 0 $121 $309 forward 7 unknown #
coedge $-1 $122 $299 $305 $310 forward $207 $-1 #
loop $-1 $-1 $299 $195 #
vertex $-1 $204 $311 #
vertex $-1 $123 $312 #
straight-curve $-1 -63.630985235130687 15.726709780005692 14.966742332607751 1 0 0 I I #
coedge $-1 $211 $211 $-1 $313 reversed $126 $-1 #
edge $-1 $314 0 $314 6.2831853071796004 $127 $315 forward 7 unknown #
vertex $-1 $130 $316 #
ellipse-curve $-1 -54.388644287702043 17.439007618357991 13.38292729414426 -0.62932039886446345 0 0.77714595512881146 0.19428648878220287 0 0.15733009971611586 1 I I #
coedge $-1 $215 $215 $-1 $317 reversed $133 $-1 #
edge $-1 $318 0 $318 6.2831853071796004 $134 $319 forward 7 unknown #
vertex $-1 $137 $320 #
ellipse-curve $-1 -54.388644287702043 20.007454375886446 13.38292729414426 -0.62932039886446345 0 0.77714595512881146 0.19428648878220287 0 0.15733009971611586 1 I I #
coedge $-1 $219 $219 $-1 $321 reversed $140 $-1 #
edge $-1 $322 0 $322 6.2831853071796004 $141 $323 forward 7 unknown #
vertex $-1 $144 $324 #
ellipse-curve $-1 -54.388644287702043 22.575901133414902 13.38292729414426 -0.62932039886446345 0 0.77714595512881146 0.19428648878220287 0 0.15733009971611586 1 I I #
face $-1 $-1 $235 $30 $-1 $325 reversed single #
loop $-1 $-1 $326 $145 #
plane-surface $-1 0 38.115372049535871 0 0 -1 0 0 0 -1 forward_v I I I I #
coedge $-1 $231 $327 $328 $329 forward $146 $-1 #
coedge $-1 $328 $148 $150 $233 forward $92 $-1 #
coedge $-1 $148 $328 $326 $330 reversed $92 $-1 #
coedge $-1 $331 $151 $148 $230 forward $235 $-1 #
edge $-1 $237 12.370174102825249 $332 21.286856665415495 $229 $333 forward 7 unknown #
coedge $-1 $334 $226 $149 $232 forward $146 $-1 #
edge $-1 $335 22.227355277149975 $236 44.739303434164803 $231 $336 forward 7 unknown #
edge $-1 $237 -112.68898586993011 $335 -85.846565088961725 $150 $337 forward 7 unknown #
coedge $-1 $151 $331 $334 $338 reversed $235 $-1 #
loop $-1 $-1 $229 $223 #
vertex $-1 $338 $339 #
vertex $-1 $152 $340 #
straight-curve $-1 56.344492934965061 29.198689486945625 78.115534286560916 0 0 -1 I I #
coedge $-1 $239 $239 $-1 $341 reversed $155 $-1 #
edge $-1 $342 0 $342 6.2831853071796004 $156 $343 forward 7 unknown #
vertex $-1 $159 $344 #
ellipse-curve $-1 45.088518856457647 33.657030768240752 7.657027161028906 0.54463904215088732 0 0.83867056331134215 1.2580058449670133 0 -0.81695856322633098 1 I I #
face $-1 $-1 $175 $24 $-1 $345 reversed single #
loop $-1 $-1 $259 $160 #
plane-surface $-1 0 38.115372049535871 0 0 -1 0 0 0 -1 forward_v I I I I #
coedge $-1 $346 $257 $260 $347 forward $161 $-1 #
coedge $-1 $263 $163 $164 $251 reversed $101 $-1 #
coedge $-1 $257 $346 $163 $249 reversed $161 $-1 #
edge $-1 $264 -14.966742332607751 $348 14.966742332607751 $248 $349 forward 7 unknown #
coedge $-1 $165 $164 $346 $350 forward $65 $-1 #
edge $-1 $255 -56.344492934965061 $348 56.344492934965061 $247 $351 forward 7 unknown #
coedge $-1 $260 $259 $165 $253 reversed $244 $-1 #
edge $-1 $352 -56.344492934965061 $254 56.344492934965061 $252 $353 forward 7 unknown #
vertex $-1 $167 $354 #
vertex $-1 $266 $355 #
straight-curve $-1 56.344492934965061 0 -14.966742332607751 0 -1 0 I I #
coedge $-1 $246 $248 $168 $258 reversed $161 $-1 #
edge $-1 $261 -38.115372049535871 $264 38.115372049535871 $257 $356 forward 7 unknown #
coedge $-1 $252 $169 $174 $267 forward $244 $-1 #
coedge $-1 $169 $252 $246 $347 reversed $244 $-1 #
vertex $-1 $170 $357 #
straight-curve $-1 0 38.115372049535871 14.966742332607751 -1 0 0 I I #
coedge $-1 $171 $247 $173 $266 reversed $101 $-1 #
vertex $-1 $258 $358 #
straight-curve $-1 0 -38.115372049535871 14.966742332607751 1 0 0 I I #
edge $-1 $176 -14.966742332607751 $255 14.966742332607751 $173 $359 forward 7 unknown #
edge $-1 $177 -14.966742332607751 $254 14.966742332607751 $174 $360 forward 7 unknown #
point $-1 56.344492934965061 -38.115372049535871 14.966742332607751 #
point $-1 56.344492934965061 38.115372049535871 14.966742332607751 #
face $-1 $-1 $361 $25 $-1 $362 reversed single #
loop $-1 $-1 $363 $179 #
plane-surface $-1 0 0 -14.966742332607751 0 0 1 1 0 0 forward_v I I I I #
coedge $-1 $280 $290 $275 $364 forward $180 $-1 #
coedge $-1 $185 $182 $363 $365 reversed $109 $-1 #
coedge $-1 $182 $185 $273 $364 reversed $109 $-1 #
coedge $-1 $366 $367 $182 $277 forward $361 $-1 #
edge $-1 $368 -14.966742332607751 $369 14.966742332607751 $276 $370 forward 7 unknown #
coedge $-1 $363 $188 $183 $279 forward $271 $-1 #
edge $-1 $193 -18.025560700205542 $283 -11.598818613097858 $278 $371 forward 7 unknown #
coedge $-1 $190 $273 $184 $281 forward $180 $-1 #
edge $-1 $282 11.598818613097858 $192 18.025560700205542 $280 $372 forward 7 unknown #
vertex $-1 $281 $373 #
vertex $-1 $279 $374 #
straight-curve $-1 -26.411008269749559 -27.863206079406346 0 0 0 -1 I I #
coedge $-1 $367 $366 $187 $286 forward $361 $-1 #
edge $-1 $291 -14.966742332607751 $288 14.966742332607751 $285 $375 forward 7 unknown #
coedge $-1 $188 $363 $367 $376 forward $271 $-1 #
vertex $-1 $189 $377 #
straight-curve $-1 -32.837750356857242 -16.494644532235554 -14.966742332607751 0 1 0 I I #
coedge $-1 $273 $190 $366 $378 forward $180 $-1 #
vertex $-1 $378 $379 #
straight-curve $-1 -32.837750356857242 -16.494644532235554 14.966742332607751 0 -1 0 I I #
point $-1 -32.837750356857242 -27.863206079406346 14.966742332607751 #
point $-1 -32.837750356857242 -27.863206079406346 -14.966742332607751 #
plane-surface $-1 0 0 14.966742332607751 0 0 1 1 0 0 forward_v I I I I #
coedge $-1 $306 $305 $298 $380 forward $196 $-1 #
coedge $-1 $298 $198 $200 $302 reversed $117 $-1 #
coedge $-1 $198 $297 $296 $380 reversed $117 $-1 #
coedge $-1 $206 $201 $198 $300 forward $207 $-1 #
edge $-1 $303 -11.198189594691669 $381 -7.2864923001656265 $299 $382 forward 7 unknown #
coedge $-1 $200 $199 $306 $383 reversed $73 $-1 #
edge $-1 $384 0 $303 5.0334139535959892 $297 $385 forward 7 unknown #
vertex $-1 $202 $386 #
straight-curve $-1 -52.432795640439018 10.003727187943223 14.966742332607751 0 1 0 I I #
coedge $-1 $296 $203 $206 $310 reversed $196 $-1 #
coedge $-1 $203 $296 $301 $383 forward $196 $-1 #
vertex $-1 $204 $387 #
straight-curve $-1 -56.344492934965061 15.726709780005692 49.687450906032375 0 0 1 I I #
straight-curve $-1 -56.344492934965061 15.726709780005692 11.799112255680768 -0.77714595512881146 0 -0.62932039886446345 I I #
edge $-1 $381 -24.288198971767201 $208 -15.726709780005692 $305 $388 forward 7 unknown #
point $-1 -56.344492934965061 15.726709780005692 14.966742332607751 #
point $-1 -52.432795640439018 15.726709780005692 14.966742332607751 #
edge $-1 $389 1 $389 0 $211 $-1 forward 7 unknown #
vertex $-1 $212 $390 #
ellipse-curve $-1 -53.759323888837571 17.439007618357991 12.605781339015444 -0.62932039886446345 0 0.77714595512881146 0.19428648878220287 0 0.15733009971611586 1 I I #
point $-1 -54.194357798919832 17.439007618357991 13.540257393860371 #
edge $-1 $391 1 $391 0 $215 $-1 forward 7 unknown #
vertex $-1 $216 $392 #
ellipse-curve $-1 -53.759323888837571 20.007454375886446 12.605781339015444 -0.62932039886446345 0 0.77714595512881146 0.19428648878220287 0 0.15733009971611586 1 I I #
point $-1 -54.194357798919832 20.007454375886446 13.540257393860371 #
edge $-1 $393 1 $393 0 $219 $-1 forward 7 unknown #
vertex $-1 $220 $394 #
ellipse-curve $-1 -53.759323888837571 22.575901133414902 12.605781339015444 -0.62932039886446345 0 0.77714595512881146 0.19428648878220287 0 0.15733009971611586 1 I I #
point $-1 -54.194357798919832 22.575901133414902 13.540257393860371 #
plane-surface $-1 56.344492934965061 0 0 -1 0 0 0 0 1 forward_v I I I I #
coedge $-1 $395 $396 $228 $330 forward $224 $-1 #
coedge $-1 $226 $334 $395 $397 forward $146 $-1 #
coedge $-1 $228 $227 $226 $329 reversed $92 $-1 #
edge $-1 $398 -21.286856665415502 $335 -12.370174102825249 $226 $399 forward 7 unknown #
edge $-1 $332 -79.877146914963816 $398 -53.03472613399542 $326 $400 forward 7 unknown #
coedge $-1 $234 $229 $396 $401 reversed $235 $-1 #
vertex $-1 $230 $402 #
straight-curve $-1 56.344492934965061 16.828515384120376 0.34731198945005204 0 1 0 I I #
coedge $-1 $327 $231 $234 $338 forward $146 $-1 #
vertex $-1 $232 $403 #
straight-curve $-1 11.605189500800257 29.198689486945625 14.966742332607751 1 0 0 I I #
straight-curve $-1 -38.164442323553104 29.198689486945625 61.722133314603667 -0.83867056331134215 0 0.54463904215088732 I I #
edge $-1 $236 29.198689486945625 $404 38.115372049535871 $234 $405 forward 7 unknown #
point $-1 56.344492934965061 29.198689486945625 14.966742332607751 #
point $-1 56.344492934965061 29.198689486945625 0.34731198945005559 #
edge $-1 $406 1 $406 0 $239 $-1 forward 7 unknown #
vertex $-1 $240 $407 #
ellipse-curve $-1 42.946156160380838 33.657030768240752 4.3580779670080698 0.54463904215088732 0 0.83867056331134215 1.2580058449670133 0 -0.81695856322633098 1 I I #
point $-1 46.346524701424663 33.657030768240752 6.8400685978025688 #
plane-surface $-1 56.344492934965061 0 0 -1 0 0 0 0 1 forward_v I I I I #
coedge $-1 $248 $246 $250 $350 reversed $161 $-1 #
edge $-1 $261 -14.966742332607751 $352 14.966742332607751 $260 $408 forward 7 unknown #
vertex $-1 $350 $409 #
straight-curve $-1 -56.344492934965061 -38.115372049535871 0 0 0 -1 I I #
edge $-1 $348 -38.115372049535871 $352 38.115372049535871 $346 $410 forward 7 unknown #
straight-curve $-1 0 -38.115372049535871 -14.966742332607751 -1 0 0 I I #
vertex $-1 $253 $411 #
straight-curve $-1 0 38.115372049535871 -14.966742332607751 1 0 0 I I #
point $-1 56.344492934965061 38.115372049535871 -14.966742332607751 #
point $-1 56.344492934965061 -38.115372049535871 -14.966742332607751 #
straight-curve $-1 -56.344492934965061 0 14.966742332607751 0 -1 0 I I #
point $-1 -56.344492934965061 38.115372049535871 14.966742332607751 #
point $-1 -56.344492934965061 -38.115372049535871 14.966742332607751 #
straight-curve $-1 56.344492934965061 -38.115372049535871 0 0 0 -1 I I #
straight-curve $-1 56.344492934965061 38.115372049535871 0 0 0 -1 I I #
loop $-1 $-1 $276 $270 #
plane-surface $-1 0 -38.115372049535871 0 0 1 0 0 0 1 forward_v I I I I #
coedge $-1 $287 $278 $274 $365 forward $271 $-1 #
edge $-1 $369 -21.620727517300317 $282 -11.368561547170792 $273 $412 forward 7 unknown #
edge $-1 $283 11.368561547170792 $368 21.620727517300317 $363 $413 forward 7 unknown #
coedge $-1 $285 $276 $290 $378 reversed $361 $-1 #
coedge $-1 $276 $285 $287 $376 reversed $361 $-1 #
vertex $-1 $376 $414 #
vertex $-1 $277 $415 #
straight-curve $-1 -26.411008269749559 -38.115372049535871 0 0 0 1 I I #
straight-curve $-1 -14.8121896566517 -27.863206079406346 -14.966742332607751 1 0 0 I I #
straight-curve $-1 -14.8121896566517 -27.863206079406346 14.966742332607751 -1 0 0 I I #
point $-1 -26.411008269749559 -27.863206079406346 14.966742332607751 #
point $-1 -26.411008269749559 -27.863206079406346 -14.966742332607751 #
straight-curve $-1 -32.837750356857242 -38.115372049535871 0 0 0 -1 I I #
edge $-1 $368 26.411008269749559 $288 32.837750356857242 $367 $416 forward 7 unknown #
point $-1 -32.837750356857242 -38.115372049535871 -14.966742332607751 #
edge $-1 $291 -32.837750356857242 $369 -26.411008269749559 $366 $417 forward 7 unknown #
point $-1 -32.837750356857242 -38.115372049535871 14.966742332607751 #
edge $-1 $381 34.720708573424623 $384 37.888338650351606 $296 $418 forward 7 unknown #
vertex $-1 $310 $419 #
straight-curve $-1 -63.630985235130687 24.288198971767201 14.966742332607751 -1 0 0 I I #
edge $-1 $384 -14.284471783823978 $307 -5.7229825920624684 $306 $420 forward 7 unknown #
vertex $-1 $383 $421 #
straight-curve $-1 -56.344492934965061 24.288198971767201 11.799112255680768 0.77714595512881146 0 0.62932039886446345 I I #
point $-1 -52.432795640439018 24.288198971767201 14.966742332607751 #
point $-1 -56.344492934965061 15.726709780005692 11.799112255680768 #
straight-curve $-1 -56.344492934965061 0 14.966742332607751 0 -1 0 I I #
vertex $-1 $313 $422 #
point $-1 -53.565037400055367 17.439007618357991 12.763111438731558 #
vertex $-1 $317 $423 #
point $-1 -53.565037400055367 20.007454375886446 12.763111438731558 #
vertex $-1 $321 $424 #
point $-1 -53.565037400055367 22.575901133414902 12.763111438731558 #
coedge $-1 $396 $326 $327 $397 reversed $224 $-1 #
coedge $-1 $326 $395 $331 $401 forward $224 $-1 #
edge $-1 $404 -56.344492934965061 $398 -33.832544777950233 $395 $425 forward 7 unknown #
vertex $-1 $330 $426 #
straight-curve $-1 33.832544777950226 16.828515384120376 14.966742332607748 0 -1 0 I I #
straight-curve $-1 -10.646118863910466 38.115372049535871 43.851524774961646 -0.83867056331134215 0 0.54463904215088732 I I #
edge $-1 $404 -14.966742332607751 $332 -0.34731198945005398 $331 $427 forward 7 unknown #
point $-1 56.344492934965061 38.115372049535871 0.34731198945005398 #
point $-1 33.832544777950233 29.198689486945625 14.966742332607751 #
vertex $-1 $338 $428 #
straight-curve $-1 56.344492934965061 0 14.966742332607751 0 1 0 I I #
vertex $-1 $341 $429 #
point $-1 44.204162005347847 33.657030768240752 3.5411194037817393 #
straight-curve $-1 -56.344492934965061 38.115372049535871 0 0 0 -1 I I #
point $-1 -56.344492934965061 -38.115372049535871 -14.966742332607751 #
straight-curve $-1 -56.344492934965061 0 -14.966742332607751 0 1 0 I I #
point $-1 -56.344492934965061 38.115372049535871 -14.966742332607751 #
straight-curve $-1 -26.411008269749559 -16.494644532235554 14.966742332607751 0 1 0 I I #
straight-curve $-1 -26.411008269749559 -16.494644532235554 -14.966742332607751 0 -1 0 I I #
point $-1 -26.411008269749559 -38.115372049535871 -14.966742332607751 #
point $-1 -26.411008269749559 -38.115372049535871 14.966742332607751 #
straight-curve $-1 0 -38.115372049535871 -14.966742332607751 -1 0 0 I I #
straight-curve $-1 0 -38.115372049535871 14.966742332607751 1 0 0 I I #
straight-curve $-1 -56.344492934965061 24.288198971767201 49.687450906032375 0 0 -1 I I #
point $-1 -56.344492934965061 24.288198971767201 14.966742332607751 #
straight-curve $-1 -56.344492934965061 10.003727187943223 11.799112255680766 0 -1 0 I I #
point $-1 -56.344492934965061 24.288198971767201 11.799112255680768 #
point $-1 -53.601993789121451 17.439007618357991 12.41149485023324 #
point $-1 -53.601993789121451 20.007454375886446 12.41149485023324 #
point $-1 -53.601993789121451 22.575901133414902 12.41149485023324 #
straight-curve $-1 0 38.115372049535871 14.966742332607751 -1 0 0 I I #
point $-1 33.832544777950233 38.115372049535878 14.966742332607751 #
straight-curve $-1 56.344492934965061 38.115372049535871 0 0 0 -1 I I #
point $-1 56.344492934965061 38.115372049535871 14.966742332607751 #
point $-1 42.129197597154501 33.657030768240752 3.1000721220410568 #
End-of-ACIS-data 