500 0 4 0           
7 Unknown 11 ACIS 5.0 NT 24 Thu Mar 25 18:01:03 1999 
-1 9.9999999999999995e-007 1e-010 
body $-1 $4 $-1 $5 #
body $-1 $6 $-1 $7 #
body $-1 $8 $-1 $9 #
body $-1 $10 $-1 $11 #
lump $-1 $-1 $12 $0 #
transform $-1 1 0 0 0 1 0 0 0 1 49.134800256355476 27.478270035634548 10.719686820231113 1 rotate no_reflect no_shear #
lump $-1 $-1 $13 $1 #
transform $-1 1 0 0 0 1 0 0 0 1 49.134800256355476 27.478270035634548 10.719686820231113 1 rotate no_reflect no_shear #
lump $-1 $-1 $14 $2 #
transform $-1 1 0 0 0 1 0 0 0 1 49.134800256355476 27.478270035634548 10.719686820231113 1 rotate no_reflect no_shear #
lump $-1 $-1 $15 $3 #
transform $-1 1 0 0 0 1 0 0 0 1 49.134800256355476 27.478270035634548 10.719686820231113 1 rotate no_reflect no_shear #
shell $-1 $-1 $-1 $16 $-1 $4 #
shell $-1 $-1 $-1 $17 $-1 $6 #
shell $-1 $-1 $-1 $18 $-1 $8 #
shell $-1 $-1 $-1 $19 $-1 $10 #
face $-1 $20 $21 $12 $-1 $22 forward single #
face $-1 $23 $24 $13 $-1 $25 reversed single #
face $-1 $26 $27 $14 $-1 $28 forward single #
face $-1 $29 $30 $15 $-1 $31 reversed single #
face $-1 $32 $33 $12 $-1 $34 reversed single #
loop $-1 $-1 $35 $16 #
plane-surface $-1 0 0 10.719686820231113 0 0 1 1 0 0 forward_v I I I I #
face $-1 $36 $37 $13 $-1 $38 reversed single #
loop $-1 $-1 $39 $17 #
plane-surface $-1 -30.224254618203638 -38.355151884922975 0 0 1 0 0 0 1 forward_v I I I I #
face $-1 $40 $41 $14 $-1 $42 forward single #
loop $-1 $-1 $43 $18 #
plane-surface $-1 51.560236158748211 23.885617032187252 142.42002686460017 0 -1 0 -0.71933980857756763 0 -0.69465836192734942 forward_v I I I I #
face $-1 $44 $45 $15 $-1 $46 reversed single #
loop $-1 $47 $48 $19 #
cone-surface $-1 44.866897784977972 20.143870670715156 6.3536415420187637 -0.71933980857756763 0 -0.69465836192734942 1.0419875428910241 0 -1.0790097128663514 1 I I 0 1 1.5 forward I I I I #
face $-1 $49 $50 $12 $-1 $51 reversed single #
loop $-1 $-1 $52 $20 #
plane-surface $-1 0 0 -10.719686820231113 0 0 1 1 0 0 forward_v I I I I #
coedge $-1 $53 $54 $55 $56 forward $21 $-1 #
face $-1 $57 $58 $13 $-1 $59 reversed single #
loop $-1 $-1 $60 $23 #
plane-surface $-1 -32.753082620514022 -32.916710960278763 0 1 0 0 0 0 -1 forward_v I I I I #
coedge $-1 $61 $62 $63 $64 forward $24 $-1 #
face $-1 $65 $66 $14 $-1 $67 forward single #
loop $-1 $-1 $68 $26 #
plane-surface $-1 -19.12899946305933 20.143870670715156 74.156227145185369 0.71933980857756763 0 0.69465836192734942 0.69465836192734942 0 -0.71933980857756763 forward_v I I I I #
coedge $-1 $69 $70 $71 $72 reversed $27 $-1 #
face $-1 $73 $74 $15 $-1 $75 forward single #
loop $-1 $76 $77 $29 #
cone-surface $-1 43.561413591681969 20.143870670715156 5.0929501407875488 -0.71933980857756763 0 -0.69465836192734942 0.52099377144551207 0 -0.53950485643317569 1 I I -0.70710678118654757 0.70710678118654757 0.75 forward I I I I #
loop $-1 $-1 $78 $19 #
coedge $-1 $48 $48 $79 $80 reversed $30 $-1 #
face $-1 $81 $82 $12 $-1 $83 reversed single #
loop $-1 $-1 $84 $32 #
plane-surface $-1 0 -27.478270035634548 0 0 1 0 0 0 1 forward_v I I I I #
coedge $-1 $85 $86 $87 $88 forward $33 $-1 #
coedge $-1 $89 $35 $90 $91 forward $21 $-1 #
coedge $-1 $35 $89 $92 $93 forward $21 $-1 #
coedge $-1 $94 $95 $35 $56 reversed $96 $-1 #
edge $-1 $97 -27.478270035634548 $98 27.478270035634548 $55 $99 forward 7 unknown #
face $-1 $100 $101 $13 $-1 $102 reversed single #
loop $-1 $-1 $103 $36 #
plane-surface $-1 -27.69542661589325 -32.916710960278763 0 -1 0 0 0 0 1 forward_v I I I I #
coedge $-1 $104 $105 $106 $107 reversed $37 $-1 #
coedge $-1 $108 $39 $109 $110 reversed $24 $-1 #
coedge $-1 $39 $108 $111 $112 reversed $24 $-1 #
coedge $-1 $105 $104 $39 $64 reversed $37 $-1 #
edge $-1 $113 -10.719686820231113 $114 10.719686820231113 $63 $115 forward 7 unknown #
face $-1 $116 $117 $14 $-1 $118 forward single #
loop $-1 $-1 $119 $40 #
plane-surface $-1 51.560236158748211 16.40212430924306 142.42002686460017 0 1 0 0.71933980857756763 0 0.69465836192734942 forward_v I I I I #
coedge $-1 $120 $121 $122 $123 reversed $41 $-1 #
coedge $-1 $70 $43 $121 $124 forward $27 $-1 #
coedge $-1 $43 $69 $125 $126 reversed $27 $-1 #
coedge $-1 $127 $122 $43 $72 forward $117 $-1 #
edge $-1 $128 16.35083590795201 $129 23.35468217698137 $71 $130 forward 7 unknown #
face $-1 $131 $132 $15 $-1 $133 forward single #
loop $-1 $-1 $134 $44 #
plane-surface $-1 51.560236158748211 23.885617032187252 142.42002686460017 0 -1 0 -0.71933980857756763 0 -0.69465836192734942 forward_v I I I I #
loop $-1 $-1 $135 $29 #
coedge $-1 $77 $77 $78 $136 forward $45 $-1 #
coedge $-1 $78 $78 $77 $136 reversed $47 $-1 #
coedge $-1 $79 $79 $48 $80 forward $132 $-1 #
edge $-1 $137 0 $137 6.2831853071796004 $79 $138 forward 7 unknown #
face $-1 $139 $140 $12 $-1 $141 reversed single #
loop $-1 $-1 $142 $49 #
plane-surface $-1 -49.134800256355476 0 0 1 0 0 0 0 -1 forward_v I I I I #
coedge $-1 $143 $92 $144 $145 forward $50 $-1 #
coedge $-1 $146 $52 $143 $147 forward $33 $-1 #
coedge $-1 $52 $146 $148 $149 forward $33 $-1 #
coedge $-1 $95 $94 $52 $88 reversed $96 $-1 #
edge $-1 $150 -27.478270035634548 $151 27.478270035634548 $87 $152 forward 7 unknown #
coedge $-1 $54 $53 $153 $154 forward $21 $-1 #
coedge $-1 $155 $156 $53 $91 reversed $140 $-1 #
edge $-1 $98 -49.134800256355476 $157 49.134800256355476 $90 $158 forward 7 unknown #
coedge $-1 $84 $159 $54 $93 reversed $50 $-1 #
edge $-1 $160 -49.134800256355476 $97 49.134800256355476 $92 $161 forward 7 unknown #
coedge $-1 $87 $55 $159 $162 forward $96 $-1 #
coedge $-1 $55 $87 $155 $163 reversed $96 $-1 #
loop $-1 $-1 $94 $139 #
vertex $-1 $56 $164 #
vertex $-1 $56 $165 #
straight-curve $-1 49.134800256355476 0 10.719686820231113 0 1 0 I I #
face $-1 $166 $167 $13 $-1 $102 reversed single #
loop $-1 $-1 $106 $57 #
plane-surface $-1 0 -27.478270035634548 0 0 1 0 0 0 1 forward_v I I I I #
coedge $-1 $168 $169 $108 $170 forward $58 $-1 #
coedge $-1 $63 $60 $171 $172 reversed $37 $-1 #
coedge $-1 $60 $63 $173 $174 reversed $37 $-1 #
coedge $-1 $175 $176 $60 $107 forward $101 $-1 #
edge $-1 $177 -10.719686820231113 $178 10.719686820231113 $106 $179 forward 7 unknown #
coedge $-1 $62 $61 $103 $170 reversed $24 $-1 #
coedge $-1 $171 $180 $61 $110 forward $181 $-1 #
edge $-1 $182 -2.5288280023103873 $114 2.5288280023103837 $61 $183 forward 7 unknown #
coedge $-1 $184 $173 $62 $112 forward $185 $-1 #
edge $-1 $113 -2.5288280023103837 $186 2.5288280023103873 $62 $187 forward 7 unknown #
vertex $-1 $174 $188 #
vertex $-1 $172 $189 #
straight-curve $-1 -32.753082620514022 -38.355151884922975 0 0 0 -1 I I #
face $-1 $190 $191 $14 $-1 $192 reversed single #
loop $-1 $-1 $193 $65 #
plane-surface $-1 0 0 10.719686820231113 0 0 1 1 0 0 forward_v I I I I #
coedge $-1 $194 $195 $193 $196 reversed $66 $-1 #
coedge $-1 $197 $68 $195 $198 reversed $41 $-1 #
coedge $-1 $68 $197 $69 $124 reversed $41 $-1 #
coedge $-1 $71 $193 $68 $123 forward $117 $-1 #
edge $-1 $199 6.3301889738854822 $128 13.813681696829674 $122 $200 forward 7 unknown #
edge $-1 $128 88.18716768976617 $201 98.269600512710952 $69 $202 forward 7 unknown #
coedge $-1 $203 $204 $70 $126 forward $205 $-1 #
edge $-1 $129 60.490326612068976 $201 67.743021908922259 $125 $206 forward 7 unknown #
coedge $-1 $207 $71 $204 $208 forward $117 $-1 #
vertex $-1 $123 $209 #
vertex $-1 $208 $210 #
straight-curve $-1 25.780118079374105 23.885617032187252 10.719686820231118 1 0 0 I I #
face $-1 $211 $212 $15 $-1 $213 forward single #
loop $-1 $214 $79 $73 #
plane-surface $-1 -19.12899946305933 20.143870670715156 74.156227145185369 0.71933980857756763 0 0.69465836192734942 0.69465836192734942 0 -0.71933980857756763 forward_v I I I I #
coedge $-1 $215 $216 $217 $218 reversed $74 $-1 #
coedge $-1 $135 $135 $-1 $219 forward $76 $-1 #
edge $-1 $220 0 $220 6.2831853071796004 $77 $221 forward 7 unknown #
vertex $-1 $80 $222 #
ellipse-curve $-1 45.632877121840799 20.143870670715156 7.0933391718044652 -0.71933980857756763 0 -0.69465836192734942 1.0419875428910241 0 -1.0790097128663514 1 I I #
face $-1 $-1 $96 $12 $-1 $223 reversed single #
loop $-1 $-1 $155 $81 #
plane-surface $-1 0 27.478270035634548 0 0 -1 0 0 0 -1 forward_v I I I I #
coedge $-1 $224 $153 $156 $225 forward $82 $-1 #
coedge $-1 $159 $84 $85 $147 reversed $50 $-1 #
coedge $-1 $153 $224 $84 $145 reversed $82 $-1 #
edge $-1 $160 -10.719686820231113 $226 10.719686820231113 $144 $227 forward 7 unknown #
coedge $-1 $86 $85 $224 $228 forward $33 $-1 #
edge $-1 $151 -49.134800256355476 $226 49.134800256355476 $143 $229 forward 7 unknown #
coedge $-1 $156 $155 $86 $149 reversed $140 $-1 #
edge $-1 $230 -49.134800256355476 $150 49.134800256355476 $148 $231 forward 7 unknown #
vertex $-1 $88 $232 #
vertex $-1 $162 $233 #
straight-curve $-1 49.134800256355476 0 -10.719686820231113 0 -1 0 I I #
coedge $-1 $142 $144 $89 $154 reversed $82 $-1 #
edge $-1 $157 -27.478270035634548 $160 27.478270035634548 $153 $234 forward 7 unknown #
coedge $-1 $148 $90 $95 $163 forward $140 $-1 #
coedge $-1 $90 $148 $142 $225 reversed $140 $-1 #
vertex $-1 $91 $235 #
straight-curve $-1 0 27.478270035634548 10.719686820231113 -1 0 0 I I #
coedge $-1 $92 $143 $94 $162 reversed $50 $-1 #
vertex $-1 $154 $236 #
straight-curve $-1 0 -27.478270035634548 10.719686820231113 1 0 0 I I #
edge $-1 $97 -10.719686820231113 $151 10.719686820231113 $94 $237 forward 7 unknown #
edge $-1 $98 -10.719686820231113 $150 10.719686820231113 $95 $238 forward 7 unknown #
point $-1 49.134800256355476 -27.478270035634548 10.719686820231113 #
point $-1 49.134800256355476 27.478270035634548 10.719686820231113 #
face $-1 $239 $185 $13 $-1 $240 forward single #
loop $-1 $-1 $241 $100 #
coedge $-1 $242 $103 $180 $243 reversed $58 $-1 #
coedge $-1 $103 $242 $184 $244 reversed $58 $-1 #
edge $-1 $186 -10.719686820231113 $182 10.719686820231113 $103 $245 forward 7 unknown #
coedge $-1 $246 $109 $104 $172 forward $181 $-1 #
edge $-1 $114 -5.4384409246442118 $177 5.4384409246442154 $104 $247 forward 7 unknown #
coedge $-1 $111 $248 $105 $174 forward $185 $-1 #
edge $-1 $178 -5.4384409246442154 $113 5.4384409246442118 $105 $249 forward 7 unknown #
coedge $-1 $250 $106 $248 $251 reversed $101 $-1 #
coedge $-1 $106 $250 $246 $252 reversed $101 $-1 #
vertex $-1 $252 $253 #
vertex $-1 $174 $254 #
straight-curve $-1 -32.753082620514022 -27.478270035634548 0 0 0 1 I I #
coedge $-1 $109 $255 $168 $243 forward $181 $-1 #
loop $-1 $-1 $256 $239 #
vertex $-1 $170 $257 #
straight-curve $-1 -30.224254618203638 -38.355151884922975 -10.719686820231113 -1 0 0 I I #
coedge $-1 $258 $111 $169 $244 forward $185 $-1 #
loop $-1 $-1 $259 $166 #
vertex $-1 $244 $260 #
straight-curve $-1 -30.224254618203638 -38.355151884922975 10.719686820231113 1 0 0 I I #
point $-1 -32.753082620514022 -38.355151884922975 10.719686820231113 #
point $-1 -32.753082620514022 -38.355151884922975 -10.719686820231113 #
face $-1 $261 $262 $14 $-1 $263 reversed single #
loop $-1 $-1 $264 $116 #
plane-surface $-1 -30.224254618203638 -38.355151884922975 0 0 1 0 0 0 1 forward_v I I I I #
coedge $-1 $122 $265 $119 $196 forward $117 $-1 #
coedge $-1 $195 $119 $266 $267 reversed $66 $-1 #
coedge $-1 $119 $194 $120 $198 forward $66 $-1 #
edge $-1 $268 -23.35468217698137 $199 -16.35083590795201 $193 $269 forward 7 unknown #
coedge $-1 $121 $120 $203 $270 reversed $41 $-1 #
edge $-1 $271 -98.269600512710952 $199 -88.18716768976617 $195 $272 forward 7 unknown #
vertex $-1 $123 $273 #
straight-curve $-1 42.130953987326116 10.071935335357578 10.719686820231111 0 1 0 I I #
vertex $-1 $270 $274 #
straight-curve $-1 -19.12899946305933 23.885617032187252 74.156227145185369 0.69465836192734942 0 -0.71933980857756763 I I #
coedge $-1 $266 $125 $197 $270 forward $205 $-1 #
coedge $-1 $125 $275 $127 $208 reversed $205 $-1 #
loop $-1 $-1 $266 $276 #
straight-curve $-1 49.134800256355476 23.885617032187252 71.210013432300087 0 0 -1 I I #
coedge $-1 $277 $127 $278 $279 forward $117 $-1 #
edge $-1 $129 23.885617032187252 $280 27.478270035634548 $204 $281 forward 7 unknown #
point $-1 42.130953987326116 23.885617032187252 10.719686820231118 #
point $-1 49.134800256355476 23.885617032187252 10.719686820231113 #
face $-1 $282 $283 $15 $-1 $284 forward single #
loop $-1 $-1 $285 $131 #
plane-surface $-1 51.560236158748211 16.40212430924306 142.42002686460017 0 1 0 0.71933980857756763 0 0.69465836192734942 forward_v I I I I #
loop $-1 $-1 $286 $73 #
coedge $-1 $216 $134 $287 $288 forward $74 $-1 #
coedge $-1 $134 $215 $289 $290 reversed $74 $-1 #
coedge $-1 $291 $292 $134 $218 forward $283 $-1 #
edge $-1 $293 16.35083590795201 $294 23.35468217698137 $217 $295 forward 7 unknown #
edge $-1 $296 1 $296 0 $135 $-1 forward 7 unknown #
vertex $-1 $136 $297 #
ellipse-curve $-1 44.100918448115145 20.143870670715156 5.6139439122330606 0.71933980857756763 0 0.69465836192734942 1.0419875428910241 0 -1.0790097128663514 1 I I #
point $-1 46.674864664731821 20.143870670715156 6.0143294589381142 #
plane-surface $-1 49.134800256355476 0 0 -1 0 0 0 0 1 forward_v I I I I #
coedge $-1 $144 $142 $146 $228 reversed $82 $-1 #
edge $-1 $157 -10.719686820231113 $230 10.719686820231113 $156 $298 forward 7 unknown #
vertex $-1 $228 $299 #
straight-curve $-1 -49.134800256355476 -27.478270035634548 0 0 0 -1 I I #
edge $-1 $226 -27.478270035634548 $230 27.478270035634548 $224 $300 forward 7 unknown #
straight-curve $-1 0 -27.478270035634548 -10.719686820231113 -1 0 0 I I #
vertex $-1 $149 $301 #
straight-curve $-1 0 27.478270035634548 -10.719686820231113 1 0 0 I I #
point $-1 49.134800256355476 27.478270035634548 -10.719686820231113 #
point $-1 49.134800256355476 -27.478270035634548 -10.719686820231113 #
straight-curve $-1 -49.134800256355476 0 10.719686820231113 0 -1 0 I I #
point $-1 -49.134800256355476 27.478270035634548 10.719686820231113 #
point $-1 -49.134800256355476 -27.478270035634548 10.719686820231113 #
straight-curve $-1 49.134800256355476 -27.478270035634548 0 0 0 -1 I I #
straight-curve $-1 49.134800256355476 27.478270035634548 0 0 0 -1 I I #
face $-1 $302 $181 $13 $-1 $303 reversed single #
plane-surface $-1 0 0 10.719686820231113 0 0 1 1 0 0 forward_v I I I I #
coedge $-1 $304 $305 $242 $306 forward $167 $-1 #
coedge $-1 $169 $168 $241 $306 reversed $58 $-1 #
edge $-1 $307 -5.4384409246442154 $182 5.4384409246442118 $168 $308 forward 7 unknown #
edge $-1 $186 -5.4384409246442118 $309 5.4384409246442154 $169 $310 forward 7 unknown #
straight-curve $-1 -27.69542661589325 -38.355151884922975 0 0 0 -1 I I #
coedge $-1 $311 $171 $176 $252 forward $181 $-1 #
straight-curve $-1 -32.753082620514022 -32.916710960278763 -10.719686820231113 0 1 0 I I #
coedge $-1 $173 $312 $175 $251 forward $185 $-1 #
straight-curve $-1 -32.753082620514022 -32.916710960278763 10.719686820231113 0 -1 0 I I #
coedge $-1 $176 $175 $313 $314 forward $101 $-1 #
edge $-1 $315 -49.134800256355476 $178 -32.753082620514022 $175 $316 forward 7 unknown #
edge $-1 $177 32.753082620514022 $317 49.134800256355476 $176 $318 forward 7 unknown #
point $-1 -32.753082620514022 -27.478270035634548 -10.719686820231113 #
point $-1 -32.753082620514022 -27.478270035634548 10.719686820231113 #
coedge $-1 $180 $256 $304 $319 forward $181 $-1 #
coedge $-1 $255 $320 $321 $322 forward $181 $-1 #
point $-1 -27.69542661589325 -38.355151884922975 -10.719686820231113 #
coedge $-1 $259 $184 $305 $323 forward $185 $-1 #
coedge $-1 $324 $258 $325 $326 forward $185 $-1 #
point $-1 -27.69542661589325 -38.355151884922975 10.719686820231113 #
face $-1 $327 $328 $14 $-1 $329 reversed single #
loop $-1 $-1 $330 $190 #
plane-surface $-1 -32.753082620514022 -32.916710960278763 0 1 0 0 0 0 -1 forward_v I I I I #
coedge $-1 $331 $332 $333 $334 forward $191 $-1 #
coedge $-1 $193 $335 $336 $337 forward $117 $-1 #
coedge $-1 $336 $203 $194 $267 forward $205 $-1 #
edge $-1 $271 -67.743021908922259 $268 -60.490326612068976 $266 $338 forward 7 unknown #
vertex $-1 $267 $339 #
straight-curve $-1 25.780118079374105 16.40212430924306 10.719686820231118 -1 0 0 I I #
edge $-1 $201 -13.813681696829674 $271 -6.3301889738854822 $203 $340 forward 7 unknown #
vertex $-1 $270 $341 #
straight-curve $-1 -19.12899946305933 16.40212430924306 74.156227145185369 -0.69465836192734942 0 0.71933980857756763 I I #
point $-1 42.130953987326116 16.40212430924306 10.719686820231118 #
point $-1 49.134800256355476 23.885617032187252 3.4669915233778283 #
coedge $-1 $204 $342 $343 $344 reversed $205 $-1 #
face $-1 $-1 $205 $14 $-1 $345 reversed single #
coedge $-1 $346 $207 $347 $348 forward $117 $-1 #
coedge $-1 $343 $349 $207 $279 reversed $350 $-1 #
edge $-1 $280 -49.134800256355476 $351 49.134800256355476 $278 $352 forward 7 unknown #
vertex $-1 $208 $353 #
straight-curve $-1 49.134800256355476 0 10.719686820231113 0 1 0 I I #
face $-1 $354 $355 $15 $-1 $356 reversed single #
loop $-1 $-1 $357 $211 #
plane-surface $-1 0 0 10.719686820231113 0 0 1 1 0 0 forward_v I I I I #
coedge $-1 $358 $359 $357 $360 reversed $212 $-1 #
coedge $-1 $361 $287 $292 $362 reversed $214 $-1 #
coedge $-1 $286 $363 $215 $288 reversed $214 $-1 #
edge $-1 $293 88.18716768976617 $364 98.269600512710952 $215 $365 forward 7 unknown #
coedge $-1 $366 $367 $216 $290 forward $368 $-1 #
edge $-1 $294 60.490326612068976 $364 67.743021908922259 $289 $369 forward 7 unknown #
coedge $-1 $370 $217 $367 $371 forward $283 $-1 #
coedge $-1 $217 $357 $286 $362 forward $283 $-1 #
vertex $-1 $362 $372 #
vertex $-1 $371 $373 #
straight-curve $-1 25.780118079374105 23.885617032187252 10.719686820231118 1 0 0 I I #
vertex $-1 $219 $374 #
point $-1 45.142905991006167 20.143870670715156 4.5349341993667096 #
straight-curve $-1 -49.134800256355476 27.478270035634548 0 0 0 -1 I I #
point $-1 -49.134800256355476 -27.478270035634548 -10.719686820231113 #
straight-curve $-1 -49.134800256355476 0 -10.719686820231113 0 1 0 I I #
point $-1 -49.134800256355476 27.478270035634548 -10.719686820231113 #
face $-1 $375 $376 $13 $-1 $377 reversed single #
plane-surface $-1 0 0 -10.719686820231113 0 0 1 1 0 0 forward_v I I I I #
coedge $-1 $378 $241 $255 $319 reversed $167 $-1 #
coedge $-1 $241 $378 $258 $323 reversed $167 $-1 #
edge $-1 $309 -10.719686820231113 $307 10.719686820231113 $241 $379 forward 7 unknown #
vertex $-1 $243 $380 #
straight-curve $-1 -27.69542661589325 -32.916710960278763 -10.719686820231113 0 -1 0 I I #
vertex $-1 $323 $381 #
straight-curve $-1 -27.69542661589325 -32.916710960278763 10.719686820231113 0 1 0 I I #
coedge $-1 $320 $246 $382 $383 forward $181 $-1 #
coedge $-1 $248 $324 $384 $385 forward $185 $-1 #
coedge $-1 $384 $382 $250 $314 reversed $376 $-1 #
edge $-1 $315 -10.719686820231113 $317 10.719686820231113 $313 $386 forward 7 unknown #
vertex $-1 $385 $387 #
straight-curve $-1 0 -27.478270035634548 10.719686820231113 1 0 0 I I #
vertex $-1 $383 $388 #
straight-curve $-1 0 -27.478270035634548 -10.719686820231113 -1 0 0 I I #
edge $-1 $389 -49.134800256355476 $307 27.69542661589325 $304 $318 forward 7 unknown #
coedge $-1 $256 $311 $390 $391 forward $181 $-1 #
coedge $-1 $392 $393 $256 $322 reversed $394 $-1 #
edge $-1 $395 -27.478270035634548 $389 27.478270035634548 $321 $396 forward 7 unknown #
edge $-1 $309 -27.69542661589325 $397 49.134800256355476 $305 $316 forward 7 unknown #
coedge $-1 $312 $259 $398 $399 forward $185 $-1 #
coedge $-1 $393 $392 $259 $326 reversed $394 $-1 #
edge $-1 $397 -27.478270035634548 $400 27.478270035634548 $325 $401 forward 7 unknown #
face $-1 $402 $403 $14 $-1 $404 reversed single #
loop $-1 $-1 $405 $261 #
plane-surface $-1 -27.69542661589325 -32.916710960278763 0 -1 0 0 0 0 1 forward_v I I I I #
coedge $-1 $406 $407 $408 $409 reversed $262 $-1 #
coedge $-1 $410 $264 $411 $412 reversed $191 $-1 #
coedge $-1 $264 $410 $413 $414 reversed $191 $-1 #
coedge $-1 $407 $406 $264 $334 reversed $262 $-1 #
edge $-1 $415 -10.719686820231113 $416 10.719686820231113 $333 $417 forward 7 unknown #
coedge $-1 $265 $418 $419 $420 forward $117 $-1 #
coedge $-1 $421 $266 $265 $337 reversed $205 $-1 #
edge $-1 $422 -27.478270035634548 $268 16.40212430924306 $336 $281 forward 7 unknown #
straight-curve $-1 49.134800256355476 16.40212430924306 71.210013432300087 0 0 1 I I #
point $-1 49.134800256355476 16.40212430924306 10.719686820231113 #
straight-curve $-1 49.134800256355476 10.071935335357578 3.4669915233778283 0 -1 0 I I #
point $-1 49.134800256355476 16.40212430924306 3.4669915233778283 #
coedge $-1 $275 $421 $423 $424 reversed $205 $-1 #
coedge $-1 $425 $278 $275 $344 forward $350 $-1 #
edge $-1 $280 -10.719686820231113 $426 10.719686820231113 $275 $427 forward 7 unknown #
plane-surface $-1 49.134800256355476 0 0 -1 0 0 0 0 1 forward_v I I I I #
coedge $-1 $428 $277 $429 $430 forward $117 $-1 #
coedge $-1 $431 $432 $277 $348 reversed $433 $-1 #
edge $-1 $351 -27.478270035634548 $434 27.478270035634548 $347 $435 forward 7 unknown #
coedge $-1 $278 $425 $431 $436 reversed $350 $-1 #
loop $-1 $-1 $343 $437 #
vertex $-1 $279 $438 #
straight-curve $-1 0 27.478270035634548 10.719686820231113 -1 0 0 I I #
point $-1 49.134800256355476 27.478270035634548 10.719686820231113 #
face $-1 $439 $440 $15 $-1 $441 reversed single #
loop $-1 $-1 $442 $282 #
plane-surface $-1 -30.224254618203638 -38.355151884922975 0 0 1 0 0 0 1 forward_v I I I I #
coedge $-1 $292 $443 $285 $360 forward $283 $-1 #
coedge $-1 $359 $285 $444 $445 reversed $212 $-1 #
coedge $-1 $285 $358 $361 $446 forward $212 $-1 #
edge $-1 $447 -23.35468217698137 $448 -16.35083590795201 $357 $449 forward 7 unknown #
coedge $-1 $363 $286 $359 $446 reversed $214 $-1 #
edge $-1 $448 6.3301889738854822 $293 13.813681696829674 $292 $450 forward 7 unknown #
coedge $-1 $287 $361 $366 $451 reversed $214 $-1 #
vertex $-1 $451 $452 #
straight-curve $-1 -19.12899946305933 23.885617032187252 74.156227145185369 0.69465836192734942 0 -0.71933980857756763 I I #
coedge $-1 $444 $289 $363 $451 forward $368 $-1 #
coedge $-1 $289 $453 $291 $371 reversed $368 $-1 #
loop $-1 $-1 $444 $454 #
straight-curve $-1 49.134800256355476 23.885617032187252 71.210013432300087 0 0 -1 I I #
coedge $-1 $455 $291 $456 $457 forward $283 $-1 #
edge $-1 $294 23.885617032187252 $458 27.478270035634548 $367 $459 forward 7 unknown #
point $-1 42.130953987326116 23.885617032187252 10.719686820231118 #
point $-1 49.134800256355476 23.885617032187252 10.719686820231113 #
point $-1 43.021908735248793 20.143870670715156 4.5719563693420371 #
face $-1 $460 $461 $13 $-1 $462 reversed single #
loop $-1 $-1 $463 $302 #
plane-surface $-1 -49.134800256355476 0 0 1 0 0 0 0 -1 forward_v I I I I #
coedge $-1 $305 $304 $393 $464 reversed $167 $-1 #
straight-curve $-1 -27.69542661589325 -27.478270035634548 0 0 0 -1 I I #
point $-1 -27.69542661589325 -27.478270035634548 -10.719686820231113 #
point $-1 -27.69542661589325 -27.478270035634548 10.719686820231113 #
coedge $-1 $313 $463 $311 $383 reversed $376 $-1 #
edge $-1 $317 -27.478270035634548 $465 27.478270035634548 $382 $466 forward 7 unknown #
coedge $-1 $463 $313 $312 $385 reversed $376 $-1 #
edge $-1 $467 -27.478270035634548 $315 27.478270035634548 $384 $468 forward 7 unknown #
straight-curve $-1 -49.134800256355476 -27.478270035634548 0 0 0 -1 I I #
point $-1 -49.134800256355476 -27.478270035634548 10.719686820231113 #
point $-1 -49.134800256355476 -27.478270035634548 -10.719686820231113 #
vertex $-1 $464 $469 #
coedge $-1 $470 $471 $320 $391 reversed $461 $-1 #
edge $-1 $465 -49.134800256355476 $395 49.134800256355476 $390 $472 forward 7 unknown #
coedge $-1 $325 $321 $471 $473 reversed $394 $-1 #
coedge $-1 $321 $325 $378 $464 forward $394 $-1 #
loop $-1 $-1 $393 $460 #
vertex $-1 $322 $474 #
straight-curve $-1 49.134800256355476 0 -10.719686820231113 0 -1 0 I I #
vertex $-1 $326 $475 #
coedge $-1 $471 $470 $324 $399 reversed $461 $-1 #
edge $-1 $400 -49.134800256355476 $467 49.134800256355476 $398 $476 forward 7 unknown #
vertex $-1 $326 $477 #
straight-curve $-1 49.134800256355476 0 10.719686820231113 0 1 0 I I #
face $-1 $478 $479 $14 $-1 $404 reversed single #
loop $-1 $-1 $408 $327 #
plane-surface $-1 0 -27.478270035634548 0 0 1 0 0 0 1 forward_v I I I I #
coedge $-1 $480 $481 $410 $482 forward $328 $-1 #
coedge $-1 $333 $330 $483 $484 reversed $262 $-1 #
coedge $-1 $330 $333 $428 $485 reversed $262 $-1 #
coedge $-1 $429 $486 $330 $409 forward $403 $-1 #
edge $-1 $487 -10.719686820231113 $488 10.719686820231113 $408 $489 forward 7 unknown #
coedge $-1 $332 $331 $405 $482 reversed $191 $-1 #
coedge $-1 $483 $490 $331 $412 forward $491 $-1 #
edge $-1 $492 -2.5288280023103873 $416 2.5288280023103837 $331 $493 forward 7 unknown #
coedge $-1 $418 $428 $332 $414 forward $117 $-1 #
edge $-1 $415 -2.5288280023103837 $494 2.5288280023103873 $332 $495 forward 7 unknown #
vertex $-1 $485 $496 #
vertex $-1 $484 $497 #
straight-curve $-1 -32.753082620514022 -38.355151884922975 0 0 0 -1 I I #
coedge $-1 $335 $413 $481 $498 forward $117 $-1 #
coedge $-1 $499 $500 $335 $420 reversed $479 $-1 #
edge $-1 $501 -27.69542661589325 $422 49.134800256355476 $419 $502 forward 7 unknown #
coedge $-1 $342 $336 $500 $503 forward $205 $-1 #
vertex $-1 $337 $504 #
coedge $-1 $505 $506 $342 $424 forward $491 $-1 #
edge $-1 $426 -27.478270035634548 $507 27.478270035634548 $342 $508 forward 7 unknown #
coedge $-1 $349 $343 $506 $509 reversed $350 $-1 #
vertex $-1 $424 $510 #
straight-curve $-1 49.134800256355476 27.478270035634548 0 0 0 -1 I I #
coedge $-1 $413 $346 $407 $485 forward $117 $-1 #
coedge $-1 $511 $408 $346 $430 reversed $403 $-1 #
edge $-1 $434 -49.134800256355476 $488 -32.753082620514022 $429 $502 forward 7 unknown #
coedge $-1 $512 $347 $349 $436 forward $433 $-1 #
coedge $-1 $347 $512 $511 $513 reversed $433 $-1 #
loop $-1 $-1 $431 $514 #
vertex $-1 $348 $515 #
straight-curve $-1 -49.134800256355476 0 10.719686820231113 0 -1 0 I I #
edge $-1 $351 -10.719686820231113 $516 10.719686820231113 $349 $517 forward 7 unknown #
face $-1 $276 $350 $14 $-1 $518 reversed single #
point $-1 -49.134800256355476 27.478270035634548 10.719686820231113 #
face $-1 $519 $520 $15 $-1 $521 reversed single #
loop $-1 $-1 $522 $354 #
plane-surface $-1 -32.753082620514022 -32.916710960278763 0 1 0 0 0 0 -1 forward_v I I I I #
coedge $-1 $523 $524 $525 $526 forward $355 $-1 #
coedge $-1 $357 $527 $528 $529 forward $283 $-1 #
coedge $-1 $528 $366 $358 $445 forward $368 $-1 #
edge $-1 $530 -67.743021908922259 $447 -60.490326612068976 $444 $531 forward 7 unknown #
edge $-1 $530 -98.269600512710952 $448 -88.18716768976617 $359 $532 forward 7 unknown #
vertex $-1 $445 $533 #
vertex $-1 $362 $534 #
straight-curve $-1 25.780118079374105 16.40212430924306 10.719686820231118 -1 0 0 I I #
straight-curve $-1 42.130953987326116 10.071935335357578 10.719686820231111 0 1 0 I I #
edge $-1 $364 -13.813681696829674 $530 -6.3301889738854822 $366 $535 forward 7 unknown #
point $-1 49.134800256355476 23.885617032187252 3.4669915233778283 #
coedge $-1 $367 $536 $537 $538 reversed $368 $-1 #
face $-1 $-1 $368 $15 $-1 $539 reversed single #
coedge $-1 $540 $370 $541 $542 forward $283 $-1 #
coedge $-1 $537 $543 $370 $457 reversed $544 $-1 #
edge $-1 $458 -49.134800256355476 $545 49.134800256355476 $456 $546 forward 7 unknown #
vertex $-1 $371 $547 #
straight-curve $-1 49.134800256355476 0 10.719686820231113 0 1 0 I I #
face $-1 $-1 $394 $13 $-1 $548 reversed single #
loop $-1 $-1 $471 $375 #
plane-surface $-1 0 27.478270035634548 0 0 -1 0 0 0 -1 forward_v I I I I #
coedge $-1 $382 $384 $470 $549 forward $376 $-1 #
edge $-1 $397 -10.719686820231113 $389 10.719686820231113 $393 $550 forward 7 unknown #
vertex $-1 $391 $551 #
straight-curve $-1 -49.134800256355476 0 -10.719686820231113 0 1 0 I I #
vertex $-1 $399 $552 #
straight-curve $-1 -49.134800256355476 0 10.719686820231113 0 -1 0 I I #
point $-1 49.134800256355476 -27.478270035634548 -10.719686820231113 #
coedge $-1 $398 $390 $463 $549 reversed $461 $-1 #
coedge $-1 $390 $398 $392 $473 forward $461 $-1 #
straight-curve $-1 0 27.478270035634548 -10.719686820231113 1 0 0 I I #
edge $-1 $400 -10.719686820231113 $395 10.719686820231113 $392 $553 forward 7 unknown #
point $-1 49.134800256355476 27.478270035634548 -10.719686820231113 #
point $-1 49.134800256355476 -27.478270035634548 10.719686820231113 #
straight-curve $-1 0 27.478270035634548 10.719686820231113 -1 0 0 I I #
point $-1 49.134800256355476 27.478270035634548 10.719686820231113 #
face $-1 $514 $491 $14 $-1 $554 reversed single #
loop $-1 $-1 $499 $402 #
coedge $-1 $555 $405 $490 $556 reversed $328 $-1 #
coedge $-1 $405 $555 $418 $498 reversed $328 $-1 #
edge $-1 $494 -10.719686820231113 $492 10.719686820231113 $405 $557 forward 7 unknown #
coedge $-1 $558 $411 $406 $484 forward $491 $-1 #
edge $-1 $416 -5.4384409246442118 $487 5.4384409246442154 $406 $559 forward 7 unknown #
edge $-1 $488 -5.4384409246442154 $415 5.4384409246442118 $407 $560 forward 7 unknown #
coedge $-1 $408 $511 $558 $561 reversed $403 $-1 #
vertex $-1 $561 $562 #
vertex $-1 $485 $563 #
straight-curve $-1 -32.753082620514022 -27.478270035634548 0 0 0 1 I I #
coedge $-1 $411 $505 $480 $556 forward $491 $-1 #
loop $-1 $-1 $423 $478 #
vertex $-1 $482 $564 #
straight-curve $-1 -30.224254618203638 -38.355151884922975 -10.719686820231113 -1 0 0 I I #
vertex $-1 $498 $565 #
straight-curve $-1 -30.224254618203638 -38.355151884922975 10.719686820231113 1 0 0 I I #
point $-1 -32.753082620514022 -38.355151884922975 10.719686820231113 #
point $-1 -32.753082620514022 -38.355151884922975 -10.719686820231113 #
edge $-1 $494 -5.4384409246442118 $501 5.4384409246442154 $481 $566 forward 7 unknown #
coedge $-1 $567 $419 $555 $568 forward $479 $-1 #
coedge $-1 $419 $567 $421 $503 reversed $479 $-1 #
vertex $-1 $420 $569 #
straight-curve $-1 0 -27.478270035634548 10.719686820231113 1 0 0 I I #
edge $-1 $422 -10.719686820231113 $507 10.719686820231113 $421 $570 forward 7 unknown #
point $-1 49.134800256355476 -27.478270035634548 10.719686820231113 #
coedge $-1 $490 $423 $567 $571 forward $491 $-1 #
coedge $-1 $423 $572 $425 $509 forward $491 $-1 #
vertex $-1 $503 $573 #
straight-curve $-1 49.134800256355476 0 -10.719686820231113 0 -1 0 I I #
edge $-1 $516 -49.134800256355476 $426 49.134800256355476 $425 $574 forward 7 unknown #
point $-1 49.134800256355476 27.478270035634548 -10.719686820231113 #
coedge $-1 $486 $429 $432 $513 forward $403 $-1 #
coedge $-1 $432 $431 $572 $575 reversed $433 $-1 #
edge $-1 $434 -10.719686820231113 $576 10.719686820231113 $432 $577 forward 7 unknown #
face $-1 $437 $433 $14 $-1 $578 reversed single #
point $-1 -49.134800256355476 -27.478270035634548 10.719686820231113 #
vertex $-1 $509 $579 #
straight-curve $-1 -49.134800256355476 27.478270035634548 0 0 0 -1 I I #
plane-surface $-1 0 27.478270035634548 0 0 -1 0 0 0 -1 forward_v I I I I #
face $-1 $580 $581 $15 $-1 $582 reversed single #
loop $-1 $-1 $583 $439 #
plane-surface $-1 -27.69542661589325 -32.916710960278763 0 -1 0 0 0 0 1 forward_v I I I I #
coedge $-1 $584 $585 $586 $587 reversed $440 $-1 #
coedge $-1 $588 $442 $589 $590 reversed $355 $-1 #
coedge $-1 $442 $588 $591 $592 reversed $355 $-1 #
coedge $-1 $585 $584 $442 $526 reversed $440 $-1 #
edge $-1 $593 -10.719686820231113 $594 10.719686820231113 $525 $595 forward 7 unknown #
coedge $-1 $443 $596 $597 $598 forward $283 $-1 #
coedge $-1 $599 $444 $443 $529 reversed $368 $-1 #
edge $-1 $600 -27.478270035634548 $447 16.40212430924306 $528 $459 forward 7 unknown #
vertex $-1 $451 $601 #
straight-curve $-1 49.134800256355476 16.40212430924306 71.210013432300087 0 0 1 I I #
straight-curve $-1 -19.12899946305933 16.40212430924306 74.156227145185369 -0.69465836192734942 0 0.71933980857756763 I I #
point $-1 49.134800256355476 16.40212430924306 10.719686820231113 #
point $-1 42.130953987326116 16.40212430924306 10.719686820231118 #
straight-curve $-1 49.134800256355476 10.071935335357578 3.4669915233778283 0 -1 0 I I #
coedge $-1 $453 $599 $602 $603 reversed $368 $-1 #
coedge $-1 $604 $456 $453 $538 forward $544 $-1 #
edge $-1 $458 -10.719686820231113 $605 10.719686820231113 $453 $606 forward 7 unknown #
plane-surface $-1 49.134800256355476 0 0 -1 0 0 0 0 1 forward_v I I I I #
coedge $-1 $607 $455 $608 $609 forward $283 $-1 #
coedge $-1 $610 $611 $455 $542 reversed $612 $-1 #
edge $-1 $545 -27.478270035634548 $613 27.478270035634548 $541 $614 forward 7 unknown #
coedge $-1 $456 $604 $610 $615 reversed $544 $-1 #
loop $-1 $-1 $537 $616 #
vertex $-1 $457 $617 #
straight-curve $-1 0 27.478270035634548 10.719686820231113 -1 0 0 I I #
point $-1 49.134800256355476 27.478270035634548 10.719686820231113 #
plane-surface $-1 49.134800256355476 0 0 -1 0 0 0 0 1 forward_v I I I I #
edge $-1 $467 -10.719686820231113 $465 10.719686820231113 $470 $618 forward 7 unknown #
straight-curve $-1 49.134800256355476 -27.478270035634548 0 0 0 -1 I I #
point $-1 -49.134800256355476 27.478270035634548 -10.719686820231113 #
point $-1 -49.134800256355476 27.478270035634548 10.719686820231113 #
straight-curve $-1 49.134800256355476 27.478270035634548 0 0 0 -1 I I #
plane-surface $-1 0 0 -10.719686820231113 0 0 1 1 0 0 forward_v I I I I #
coedge $-1 $481 $480 $499 $568 reversed $328 $-1 #
edge $-1 $619 -5.4384409246442154 $492 5.4384409246442118 $480 $620 forward 7 unknown #
straight-curve $-1 -27.69542661589325 -38.355151884922975 0 0 0 -1 I I #
coedge $-1 $572 $483 $486 $561 forward $491 $-1 #
straight-curve $-1 -32.753082620514022 -32.916710960278763 -10.719686820231113 0 1 0 I I #
straight-curve $-1 -32.753082620514022 -32.916710960278763 10.719686820231113 0 -1 0 I I #
edge $-1 $487 32.753082620514022 $576 49.134800256355476 $486 $621 forward 7 unknown #
point $-1 -32.753082620514022 -27.478270035634548 -10.719686820231113 #
point $-1 -32.753082620514022 -27.478270035634548 10.719686820231113 #
point $-1 -27.69542661589325 -38.355151884922975 -10.719686820231113 #
point $-1 -27.69542661589325 -38.355151884922975 10.719686820231113 #
straight-curve $-1 -27.69542661589325 -32.916710960278763 10.719686820231113 0 1 0 I I #
coedge $-1 $500 $499 $505 $571 reversed $479 $-1 #
edge $-1 $501 -10.719686820231113 $619 10.719686820231113 $499 $622 forward 7 unknown #
point $-1 -27.69542661589325 -27.478270035634548 10.719686820231113 #
straight-curve $-1 49.134800256355476 -27.478270035634548 0 0 0 -1 I I #
edge $-1 $507 -49.134800256355476 $619 27.69542661589325 $567 $621 forward 7 unknown #
coedge $-1 $506 $558 $512 $575 forward $491 $-1 #
point $-1 49.134800256355476 -27.478270035634548 -10.719686820231113 #
straight-curve $-1 0 27.478270035634548 -10.719686820231113 1 0 0 I I #
edge $-1 $576 -27.478270035634548 $516 27.478270035634548 $512 $623 forward 7 unknown #
vertex $-1 $575 $624 #
straight-curve $-1 -49.134800256355476 -27.478270035634548 0 0 0 -1 I I #
plane-surface $-1 -49.134800256355476 0 0 1 0 0 0 0 -1 forward_v I I I I #
point $-1 -49.134800256355476 27.478270035634548 -10.719686820231113 #
face $-1 $625 $626 $15 $-1 $582 reversed single #
loop $-1 $-1 $586 $519 #
plane-surface $-1 0 -27.478270035634548 0 0 1 0 0 0 1 forward_v I I I I #
coedge $-1 $627 $628 $588 $629 forward $520 $-1 #
coedge $-1 $525 $522 $630 $631 reversed $440 $-1 #
coedge $-1 $522 $525 $607 $632 reversed $440 $-1 #
coedge $-1 $608 $633 $522 $587 forward $581 $-1 #
edge $-1 $634 -10.719686820231113 $635 10.719686820231113 $586 $636 forward 7 unknown #
coedge $-1 $524 $523 $583 $629 reversed $355 $-1 #
coedge $-1 $630 $637 $523 $590 forward $638 $-1 #
edge $-1 $639 -2.5288280023103873 $594 2.5288280023103837 $523 $640 forward 7 unknown #
coedge $-1 $596 $607 $524 $592 forward $283 $-1 #
edge $-1 $593 -2.5288280023103837 $641 2.5288280023103873 $524 $642 forward 7 unknown #
vertex $-1 $632 $643 #
vertex $-1 $631 $644 #
straight-curve $-1 -32.753082620514022 -38.355151884922975 0 0 0 -1 I I #
coedge $-1 $527 $591 $628 $645 forward $283 $-1 #
coedge $-1 $646 $647 $527 $598 reversed $626 $-1 #
edge $-1 $648 -27.69542661589325 $600 49.134800256355476 $597 $649 forward 7 unknown #
coedge $-1 $536 $528 $647 $650 forward $368 $-1 #
vertex $-1 $529 $651 #
point $-1 49.134800256355476 16.40212430924306 3.4669915233778283 #
coedge $-1 $652 $653 $536 $603 forward $638 $-1 #
edge $-1 $605 -27.478270035634548 $654 27.478270035634548 $536 $655 forward 7 unknown #
coedge $-1 $543 $537 $653 $656 reversed $544 $-1 #
vertex $-1 $603 $657 #
straight-curve $-1 49.134800256355476 27.478270035634548 0 0 0 -1 I I #
coedge $-1 $591 $540 $585 $632 forward $283 $-1 #
coedge $-1 $658 $586 $540 $609 reversed $581 $-1 #
edge $-1 $613 -49.134800256355476 $635 -32.753082620514022 $608 $649 forward 7 unknown #
coedge $-1 $659 $541 $543 $615 forward $612 $-1 #
coedge $-1 $541 $659 $658 $660 reversed $612 $-1 #
loop $-1 $-1 $610 $661 #
vertex $-1 $542 $662 #
straight-curve $-1 -49.134800256355476 0 10.719686820231113 0 -1 0 I I #
edge $-1 $545 -10.719686820231113 $663 10.719686820231113 $543 $664 forward 7 unknown #
face $-1 $454 $544 $15 $-1 $665 reversed single #
point $-1 -49.134800256355476 27.478270035634548 10.719686820231113 #
straight-curve $-1 -49.134800256355476 27.478270035634548 0 0 0 -1 I I #
vertex $-1 $556 $666 #
straight-curve $-1 -27.69542661589325 -32.916710960278763 -10.719686820231113 0 -1 0 I I #
straight-curve $-1 0 -27.478270035634548 -10.719686820231113 -1 0 0 I I #
straight-curve $-1 -27.69542661589325 -27.478270035634548 0 0 0 -1 I I #
straight-curve $-1 -49.134800256355476 0 -10.719686820231113 0 1 0 I I #
point $-1 -49.134800256355476 -27.478270035634548 -10.719686820231113 #
face $-1 $661 $638 $15 $-1 $667 reversed single #
loop $-1 $-1 $646 $580 #
coedge $-1 $668 $583 $637 $669 reversed $520 $-1 #
coedge $-1 $583 $668 $596 $645 reversed $520 $-1 #
edge $-1 $641 -10.719686820231113 $639 10.719686820231113 $583 $670 forward 7 unknown #
coedge $-1 $671 $589 $584 $631 forward $638 $-1 #
edge $-1 $594 -5.4384409246442118 $634 5.4384409246442154 $584 $672 forward 7 unknown #
edge $-1 $635 -5.4384409246442154 $593 5.4384409246442118 $585 $673 forward 7 unknown #
coedge $-1 $586 $658 $671 $674 reversed $581 $-1 #
vertex $-1 $674 $675 #
vertex $-1 $632 $676 #
straight-curve $-1 -32.753082620514022 -27.478270035634548 0 0 0 1 I I #
coedge $-1 $589 $652 $627 $669 forward $638 $-1 #
loop $-1 $-1 $602 $625 #
vertex $-1 $629 $677 #
straight-curve $-1 -30.224254618203638 -38.355151884922975 -10.719686820231113 -1 0 0 I I #
vertex $-1 $645 $678 #
straight-curve $-1 -30.224254618203638 -38.355151884922975 10.719686820231113 1 0 0 I I #
point $-1 -32.753082620514022 -38.355151884922975 10.719686820231113 #
point $-1 -32.753082620514022 -38.355151884922975 -10.719686820231113 #
edge $-1 $641 -5.4384409246442118 $648 5.4384409246442154 $628 $679 forward 7 unknown #
coedge $-1 $680 $597 $668 $681 forward $626 $-1 #
coedge $-1 $597 $680 $599 $650 reversed $626 $-1 #
vertex $-1 $598 $682 #
straight-curve $-1 0 -27.478270035634548 10.719686820231113 1 0 0 I I #
edge $-1 $600 -10.719686820231113 $654 10.719686820231113 $599 $683 forward 7 unknown #
point $-1 49.134800256355476 -27.478270035634548 10.719686820231113 #
coedge $-1 $637 $602 $680 $684 forward $638 $-1 #
coedge $-1 $602 $685 $604 $656 forward $638 $-1 #
vertex $-1 $650 $686 #
straight-curve $-1 49.134800256355476 0 -10.719686820231113 0 -1 0 I I #
edge $-1 $663 -49.134800256355476 $605 49.134800256355476 $604 $687 forward 7 unknown #
point $-1 49.134800256355476 27.478270035634548 -10.719686820231113 #
coedge $-1 $633 $608 $611 $660 forward $581 $-1 #
coedge $-1 $611 $610 $685 $688 reversed $612 $-1 #
edge $-1 $613 -10.719686820231113 $689 10.719686820231113 $611 $690 forward 7 unknown #
face $-1 $616 $612 $15 $-1 $691 reversed single #
point $-1 -49.134800256355476 -27.478270035634548 10.719686820231113 #
vertex $-1 $656 $692 #
straight-curve $-1 -49.134800256355476 27.478270035634548 0 0 0 -1 I I #
plane-surface $-1 0 27.478270035634548 0 0 -1 0 0 0 -1 forward_v I I I I #
point $-1 -27.69542661589325 -27.478270035634548 -10.719686820231113 #
plane-surface $-1 0 0 -10.719686820231113 0 0 1 1 0 0 forward_v I I I I #
coedge $-1 $628 $627 $646 $681 reversed $520 $-1 #
edge $-1 $693 -5.4384409246442154 $639 5.4384409246442118 $627 $694 forward 7 unknown #
straight-curve $-1 -27.69542661589325 -38.355151884922975 0 0 0 -1 I I #
coedge $-1 $685 $630 $633 $674 forward $638 $-1 #
straight-curve $-1 -32.753082620514022 -32.916710960278763 -10.719686820231113 0 1 0 I I #
straight-curve $-1 -32.753082620514022 -32.916710960278763 10.719686820231113 0 -1 0 I I #
edge $-1 $634 32.753082620514022 $689 49.134800256355476 $633 $695 forward 7 unknown #
point $-1 -32.753082620514022 -27.478270035634548 -10.719686820231113 #
point $-1 -32.753082620514022 -27.478270035634548 10.719686820231113 #
point $-1 -27.69542661589325 -38.355151884922975 -10.719686820231113 #
point $-1 -27.69542661589325 -38.355151884922975 10.719686820231113 #
straight-curve $-1 -27.69542661589325 -32.916710960278763 10.719686820231113 0 1 0 I I #
coedge $-1 $647 $646 $652 $684 reversed $626 $-1 #
edge $-1 $648 -10.719686820231113 $693 10.719686820231113 $646 $696 forward 7 unknown #
point $-1 -27.69542661589325 -27.478270035634548 10.719686820231113 #
straight-curve $-1 49.134800256355476 -27.478270035634548 0 0 0 -1 I I #
edge $-1 $654 -49.134800256355476 $693 27.69542661589325 $680 $695 forward 7 unknown #
coedge $-1 $653 $671 $659 $688 forward $638 $-1 #
point $-1 49.134800256355476 -27.478270035634548 -10.719686820231113 #
straight-curve $-1 0 27.478270035634548 -10.719686820231113 1 0 0 I I #
edge $-1 $689 -27.478270035634548 $663 27.478270035634548 $659 $697 forward 7 unknown #
vertex $-1 $688 $698 #
straight-curve $-1 -49.134800256355476 -27.478270035634548 0 0 0 -1 I I #
plane-surface $-1 -49.134800256355476 0 0 1 0 0 0 0 -1 forward_v I I I I #
point $-1 -49.134800256355476 27.478270035634548 -10.719686820231113 #
vertex $-1 $669 $699 #
straight-curve $-1 -27.69542661589325 -32.916710960278763 -10.719686820231113 0 -1 0 I I #
straight-curve $-1 0 -27.478270035634548 -10.719686820231113 -1 0 0 I I #
straight-curve $-1 -27.69542661589325 -27.478270035634548 0 0 0 -1 I I #
straight-curve $-1 -49.134800256355476 0 -10.719686820231113 0 1 0 I I #
point $-1 -49.134800256355476 -27.478270035634548 -10.719686820231113 #
point $-1 -27.69542661589325 -27.478270035634548 -10.719686820231113 #
End-of-ACIS-data 