500 0 11 0           
7 Unknown 11 ACIS 5.0 NT 24 Thu Mar 25 21:25:23 1999 
-1 9.9999999999999995e-007 1e-010 
body $-1 $11 $-1 $12 #
body $-1 $13 $-1 $14 #
body $-1 $15 $-1 $16 #
body $-1 $17 $-1 $18 #
body $-1 $19 $-1 $20 #
body $-1 $21 $-1 $22 #
body $-1 $23 $-1 $24 #
body $-1 $25 $-1 $26 #
body $-1 $27 $-1 $28 #
body $-1 $29 $-1 $30 #
body $-1 $31 $-1 $32 #
lump $-1 $-1 $33 $0 #
transform $-1 1 0 0 0 1 0 0 0 1 55.970946378978851 30.480909316234325 7.9595294218072761 1 rotate no_reflect no_shear #
lump $-1 $-1 $34 $1 #
transform $-1 1 0 0 0 1 0 0 0 1 55.970946378978851 30.480909316234325 7.9595294218072761 1 rotate no_reflect no_shear #
lump $-1 $-1 $35 $2 #
transform $-1 1 0 0 0 1 0 0 0 1 55.970946378978851 30.480909316234325 7.9595294218072761 1 rotate no_reflect no_shear #
lump $-1 $-1 $36 $3 #
transform $-1 1 0 0 0 1 0 0 0 1 55.970946378978851 30.480909316234325 7.9595294218072761 1 rotate no_reflect no_shear #
lump $-1 $-1 $37 $4 #
transform $-1 1 0 0 0 1 0 0 0 1 55.970946378978851 30.480909316234325 7.9595294218072761 1 rotate no_reflect no_shear #
lump $-1 $-1 $38 $5 #
transform $-1 1 0 0 0 1 0 0 0 1 55.970946378978851 30.480909316234325 7.9595294218072761 1 rotate no_reflect no_shear #
lump $-1 $-1 $39 $6 #
transform $-1 1 0 0 0 1 0 0 0 1 55.970946378978851 30.480909316234325 7.9595294218072761 1 rotate no_reflect no_shear #
lump $-1 $-1 $40 $7 #
transform $-1 1 0 0 0 1 0 0 0 1 55.970946378978851 30.480909316234325 7.9595294218072761 1 rotate no_reflect no_shear #
lump $-1 $-1 $41 $8 #
transform $-1 1 0 0 0 1 0 0 0 1 55.970946378978851 30.480909316234325 7.9595294218072761 1 rotate no_reflect no_shear #
lump $-1 $-1 $42 $9 #
transform $-1 1 0 0 0 1 0 0 0 1 55.970946378978851 30.480909316234325 7.9595294218072761 1 rotate no_reflect no_shear #
lump $-1 $-1 $43 $10 #
transform $-1 1 0 0 0 1 0 0 0 1 55.970946378978851 30.480909316234325 7.9595294218072761 1 rotate no_reflect no_shear #
shell $-1 $-1 $-1 $44 $-1 $11 #
shell $-1 $-1 $-1 $45 $-1 $13 #
shell $-1 $-1 $-1 $46 $-1 $15 #
shell $-1 $-1 $-1 $47 $-1 $17 #
shell $-1 $-1 $-1 $48 $-1 $19 #
shell $-1 $-1 $-1 $49 $-1 $21 #
shell $-1 $-1 $-1 $50 $-1 $23 #
shell $-1 $-1 $-1 $51 $-1 $25 #
shell $-1 $-1 $-1 $52 $-1 $27 #
shell $-1 $-1 $-1 $53 $-1 $29 #
shell $-1 $-1 $-1 $54 $-1 $31 #
face $-1 $55 $56 $33 $-1 $57 forward single #
face $-1 $58 $59 $34 $-1 $60 forward single #
face $-1 $61 $62 $35 $-1 $63 reversed single #
face $-1 $64 $65 $36 $-1 $66 forward single #
face $-1 $67 $68 $37 $-1 $69 forward single #
face $-1 $70 $71 $38 $-1 $72 reversed single #
face $-1 $73 $74 $39 $-1 $75 forward single #
face $-1 $76 $77 $40 $-1 $78 forward single #
face $-1 $79 $80 $41 $-1 $81 reversed single #
face $-1 $82 $83 $42 $-1 $84 forward single #
face $-1 $85 $86 $43 $-1 $87 forward single #
face $-1 $88 $89 $33 $-1 $90 reversed single #
loop $-1 $-1 $91 $44 #
plane-surface $-1 0 0 7.9595294218072761 0 0 1 1 0 0 forward_v I I I I #
face $-1 $92 $93 $34 $-1 $94 reversed single #
loop $-1 $-1 $95 $45 #
plane-surface $-1 0 -26.675813608475458 2.8957572329405883 0 0 1 1 0 0 forward_v I I I I #
face $-1 $96 $97 $35 $-1 $98 reversed single #
loop $-1 $-1 $99 $46 #
plane-surface $-1 -34.591946633968931 -19.239401430447302 66.46361592088202 0.5877852598018023 0 0.80901698891910034 0.80901698891910034 0 -0.5877852598018023 forward_v I I I I #
face $-1 $100 $101 $36 $-1 $102 forward single #
loop $-1 $103 $104 $47 #
cone-surface $-1 50.501015208627834 -20.79567991770557 3.6926603173835906 -0.5877852598018023 0 -0.80901698891910034 0.80901698891910034 0 -0.5877852598018023 1 I I 0 1 1 forward I I I I #
face $-1 $105 $106 $37 $-1 $107 forward single #
loop $-1 $108 $109 $48 #
cone-surface $-1 50.501015208627834 -17.683122943189037 3.6926603173835906 -0.5877852598018023 0 -0.80901698891910034 0.80901698891910034 0 -0.5877852598018023 1 I I 0 1 1 forward I I I I #
face $-1 $110 $111 $38 $-1 $112 reversed single #
loop $-1 $-1 $113 $49 #
plane-surface $-1 -129.41143673821847 -4.7982297904333251 85.065436137447037 0 1 0 -0.6560590369687036 0 0.75470957328743171 forward_v I I I I #
face $-1 $114 $115 $39 $-1 $116 forward single #
loop $-1 $117 $118 $50 #
cone-surface $-1 -51.088733434436357 -2.3401367909498418 3.535967971049653 0.6560590369687036 0 -0.75470957328743171 0.37735478664371586 0 0.3280295184843518 1 I I 0 1 0.5 forward I I I I #
face $-1 $119 $120 $40 $-1 $121 forward single #
loop $-1 $122 $123 $51 #
cone-surface $-1 -51.088733434436357 1.347002708275383 3.535967971049653 0.6560590369687036 0 -0.75470957328743171 0.37735478664371586 0 0.3280295184843518 1 I I 0 1 0.5 forward I I I I #
face $-1 $124 $125 $41 $-1 $126 reversed single #
loop $-1 $-1 $127 $52 #
plane-surface $-1 -129.41143673821847 21.877583818042133 85.065436137447037 0 1 0 -0.6560590369687036 0 0.75470957328743171 forward_v I I I I #
face $-1 $128 $129 $42 $-1 $130 forward single #
loop $-1 $131 $132 $53 #
cone-surface $-1 -51.088733434436357 24.335676817525616 3.535967971049653 0.6560590369687036 0 -0.75470957328743171 0.37735478664371586 0 0.3280295184843518 1 I I 0 1 0.5 forward I I I I #
face $-1 $133 $134 $43 $-1 $135 forward single #
loop $-1 $136 $137 $54 #
cone-surface $-1 -51.088733434436357 28.022816316750841 3.535967971049653 0.6560590369687036 0 -0.75470957328743171 0.37735478664371586 0 0.3280295184843518 1 I I 0 1 0.5 forward I I I I #
face $-1 $138 $139 $33 $-1 $140 reversed single #
loop $-1 $-1 $141 $55 #
plane-surface $-1 0 0 -7.9595294218072761 0 0 1 1 0 0 forward_v I I I I #
coedge $-1 $142 $143 $144 $145 forward $56 $-1 #
face $-1 $146 $147 $34 $-1 $148 reversed single #
loop $-1 $-1 $149 $58 #
plane-surface $-1 0 -26.675813608475458 -1.1128412479868084 0 0 1 1 0 0 forward_v I I I I #
coedge $-1 $150 $151 $152 $153 reversed $59 $-1 #
face $-1 $154 $155 $35 $-1 $156 reversed single #
loop $-1 $-1 $157 $61 #
plane-surface $-1 31.205847883472728 -15.608084960178012 157.0265089338298 0 -1 0 -0.5877852598018023 0 -0.80901698891910034 forward_v I I I I #
coedge $-1 $158 $159 $160 $161 reversed $62 $-1 #
face $-1 $-1 $162 $36 $-1 $163 forward single #
loop $-1 $164 $165 $64 #
cone-surface $-1 49.756655235236749 -20.79567991770557 2.668136727683815 -0.5877852598018023 0 -0.80901698891910034 0.40450849445955017 0 -0.29389262990090115 1 I I -0.70710678118654746 0.70710678118654746 0.5 forward I I I I #
loop $-1 $-1 $166 $47 #
coedge $-1 $104 $104 $167 $168 reversed $65 $-1 #
face $-1 $-1 $169 $37 $-1 $170 forward single #
loop $-1 $171 $172 $67 #
cone-surface $-1 49.756655235236749 -17.683122943189037 2.668136727683815 -0.5877852598018023 0 -0.80901698891910034 0.40450849445955017 0 -0.29389262990090115 1 I I -0.70710678118654746 0.70710678118654746 0.5 forward I I I I #
loop $-1 $-1 $173 $48 #
coedge $-1 $109 $109 $174 $175 reversed $68 $-1 #
face $-1 $176 $177 $38 $-1 $178 reversed single #
loop $-1 $-1 $179 $70 #
plane-surface $-1 -55.970946378978837 -0.4965670413372294 0.58181802110134129 -0.6560590369687036 0 0.75470957328743171 0.75470957328743171 0 0.6560590369687036 forward_v I I I I #
coedge $-1 $180 $181 $182 $183 reversed $71 $-1 #
face $-1 $-1 $184 $39 $-1 $185 forward single #
loop $-1 $186 $187 $73 #
cone-surface $-1 -50.286048696534365 -2.3401367909498418 2.612584827323146 0.6560590369687036 0 -0.75470957328743171 0.18867739332185793 0 0.1640147592421759 1 I I -0.70710678118654746 0.70710678118654746 0.25 forward I I I I #
loop $-1 $-1 $188 $50 #
coedge $-1 $118 $118 $189 $190 reversed $74 $-1 #
face $-1 $-1 $191 $40 $-1 $192 forward single #
loop $-1 $193 $194 $76 #
cone-surface $-1 -50.286048696534365 1.347002708275383 2.612584827323146 0.6560590369687036 0 -0.75470957328743171 0.18867739332185793 0 0.1640147592421759 1 I I -0.70710678118654746 0.70710678118654746 0.25 forward I I I I #
loop $-1 $-1 $195 $51 #
coedge $-1 $123 $123 $196 $197 reversed $77 $-1 #
face $-1 $198 $199 $41 $-1 $200 forward single #
loop $-1 $-1 $201 $79 #
plane-surface $-1 -55.970946378978837 26.179246567138229 0.58181802110134129 -0.6560590369687036 0 0.75470957328743171 0.75470957328743171 0 0.6560590369687036 forward_v I I I I #
coedge $-1 $202 $203 $204 $205 reversed $80 $-1 #
face $-1 $-1 $206 $42 $-1 $207 forward single #
loop $-1 $208 $209 $82 #
cone-surface $-1 -50.286048696534365 24.335676817525616 2.612584827323146 0.6560590369687036 0 -0.75470957328743171 0.18867739332185793 0 0.1640147592421759 1 I I -0.70710678118654746 0.70710678118654746 0.25 forward I I I I #
loop $-1 $-1 $210 $53 #
coedge $-1 $132 $132 $211 $212 reversed $83 $-1 #
face $-1 $-1 $213 $43 $-1 $214 forward single #
loop $-1 $215 $216 $85 #
cone-surface $-1 -50.286048696534365 28.022816316750841 2.612584827323146 0.6560590369687036 0 -0.75470957328743171 0.18867739332185793 0 0.1640147592421759 1 I I -0.70710678118654746 0.70710678118654746 0.25 forward I I I I #
loop $-1 $-1 $217 $54 #
coedge $-1 $137 $137 $218 $219 reversed $86 $-1 #
face $-1 $220 $221 $33 $-1 $222 reversed single #
loop $-1 $-1 $223 $88 #
plane-surface $-1 0 -30.480909316234325 0 0 1 0 0 0 1 forward_v I I I I #
coedge $-1 $224 $225 $226 $227 forward $89 $-1 #
coedge $-1 $228 $91 $229 $230 forward $56 $-1 #
coedge $-1 $91 $228 $231 $232 forward $56 $-1 #
coedge $-1 $233 $234 $91 $145 reversed $235 $-1 #
edge $-1 $236 -30.480909316234325 $237 30.480909316234325 $144 $238 forward 7 unknown #
face $-1 $239 $240 $34 $-1 $241 reversed single #
loop $-1 $-1 $242 $92 #
plane-surface $-1 0 -22.870717900716592 0.89145799247688995 0 -1 0 0 0 -1 forward_v I I I I #
coedge $-1 $243 $244 $245 $246 reversed $93 $-1 #
coedge $-1 $247 $95 $248 $249 forward $59 $-1 #
coedge $-1 $95 $247 $250 $251 reversed $59 $-1 #
coedge $-1 $252 $253 $95 $153 forward $254 $-1 #
edge $-1 $255 9.5328110964788628 $256 17.143002511996595 $152 $257 forward 7 unknown #
face $-1 $258 $259 $35 $-1 $260 forward single #
loop $-1 $-1 $261 $96 #
plane-surface $-1 55.970946378978851 0 0 -1 0 0 0 0 1 forward_v I I I I #
coedge $-1 $262 $263 $264 $265 reversed $97 $-1 #
coedge $-1 $266 $99 $267 $268 reversed $62 $-1 #
coedge $-1 $99 $266 $262 $269 forward $62 $-1 #
coedge $-1 $264 $261 $99 $161 forward $155 $-1 #
edge $-1 $270 -13.251017185492941 $271 -5.9883842449543607 $160 $272 forward 7 unknown #
loop $-1 $-1 $167 $100 #
plane-surface $-1 -34.591946633968931 -19.239401430447302 66.46361592088202 0.5877852598018023 0 0.80901698891910034 0.80901698891910034 0 -0.5877852598018023 forward_v I I I I #
loop $-1 $-1 $273 $64 #
coedge $-1 $165 $165 $166 $274 reversed $101 $-1 #
coedge $-1 $166 $166 $165 $274 forward $103 $-1 #
coedge $-1 $167 $167 $104 $168 forward $162 $-1 #
edge $-1 $275 0 $275 6.2831853071796004 $167 $276 forward 7 unknown #
loop $-1 $-1 $174 $105 #
plane-surface $-1 -34.591946633968931 -19.239401430447302 66.46361592088202 0.5877852598018023 0 0.80901698891910034 0.80901698891910034 0 -0.5877852598018023 forward_v I I I I #
loop $-1 $-1 $277 $67 #
coedge $-1 $172 $172 $173 $278 reversed $106 $-1 #
coedge $-1 $173 $173 $172 $278 forward $108 $-1 #
coedge $-1 $174 $174 $109 $175 forward $169 $-1 #
edge $-1 $279 0 $279 6.2831853071796004 $174 $280 forward 7 unknown #
face $-1 $281 $282 $38 $-1 $283 reversed single #
loop $-1 $-1 $284 $110 #
plane-surface $-1 -129.41143673821847 3.8050957077588663 85.065436137447037 0 -1 0 0.6560590369687036 0 -0.75470957328743171 forward_v I I I I #
coedge $-1 $285 $286 $287 $288 reversed $111 $-1 #
coedge $-1 $181 $113 $289 $290 reversed $71 $-1 #
coedge $-1 $113 $180 $285 $291 reversed $71 $-1 #
coedge $-1 $287 $292 $113 $183 forward $293 $-1 #
edge $-1 $294 8.7347719901303833 $295 17.221857921895733 $182 $296 forward 7 unknown #
loop $-1 $-1 $189 $114 #
plane-surface $-1 -55.970946378978837 -0.4965670413372294 0.58181802110134129 -0.6560590369687036 0 0.75470957328743171 0.75470957328743171 0 0.6560590369687036 forward_v I I I I #
loop $-1 $-1 $297 $73 #
coedge $-1 $187 $187 $188 $298 reversed $115 $-1 #
coedge $-1 $188 $188 $187 $298 forward $117 $-1 #
coedge $-1 $189 $189 $118 $190 forward $184 $-1 #
edge $-1 $299 0 $299 6.2831853071796004 $189 $300 forward 7 unknown #
loop $-1 $-1 $196 $119 #
plane-surface $-1 -55.970946378978837 -0.4965670413372294 0.58181802110134129 -0.6560590369687036 0 0.75470957328743171 0.75470957328743171 0 0.6560590369687036 forward_v I I I I #
loop $-1 $-1 $301 $76 #
coedge $-1 $194 $194 $195 $302 reversed $120 $-1 #
coedge $-1 $195 $195 $194 $302 forward $122 $-1 #
coedge $-1 $196 $196 $123 $197 forward $191 $-1 #
edge $-1 $303 0 $303 6.2831853071796004 $196 $304 forward 7 unknown #
face $-1 $305 $306 $41 $-1 $307 reversed single #
loop $-1 $-1 $204 $124 #
plane-surface $-1 0 0 7.9595294218072761 0 0 1 1 0 0 forward_v I I I I #
coedge $-1 $308 $309 $310 $311 reversed $125 $-1 #
coedge $-1 $203 $127 $312 $313 reversed $80 $-1 #
coedge $-1 $127 $202 $308 $314 reversed $80 $-1 #
coedge $-1 $310 $315 $127 $205 forward $199 $-1 #
edge $-1 $316 8.7347719901303833 $317 17.221857921895733 $204 $318 forward 7 unknown #
loop $-1 $-1 $211 $128 #
plane-surface $-1 -55.970946378978837 26.179246567138229 0.58181802110134129 -0.6560590369687036 0 0.75470957328743171 0.75470957328743171 0 0.6560590369687036 forward_v I I I I #
loop $-1 $-1 $319 $82 #
coedge $-1 $209 $209 $210 $320 reversed $129 $-1 #
coedge $-1 $210 $210 $209 $320 forward $131 $-1 #
coedge $-1 $211 $211 $132 $212 forward $206 $-1 #
edge $-1 $321 0 $321 6.2831853071796004 $211 $322 forward 7 unknown #
loop $-1 $-1 $218 $133 #
plane-surface $-1 -55.970946378978837 26.179246567138229 0.58181802110134129 -0.6560590369687036 0 0.75470957328743171 0.75470957328743171 0 0.6560590369687036 forward_v I I I I #
loop $-1 $-1 $323 $85 #
coedge $-1 $216 $216 $217 $324 reversed $134 $-1 #
coedge $-1 $217 $217 $216 $324 forward $136 $-1 #
coedge $-1 $218 $218 $137 $219 forward $213 $-1 #
edge $-1 $325 0 $325 6.2831853071796004 $218 $326 forward 7 unknown #
face $-1 $327 $328 $33 $-1 $329 reversed single #
loop $-1 $-1 $330 $138 #
plane-surface $-1 -55.970946378978851 0 0 1 0 0 0 0 -1 forward_v I I I I #
coedge $-1 $331 $231 $332 $333 forward $139 $-1 #
coedge $-1 $334 $141 $331 $335 forward $89 $-1 #
coedge $-1 $141 $334 $336 $337 forward $89 $-1 #
coedge $-1 $234 $233 $141 $227 reversed $235 $-1 #
edge $-1 $338 -30.480909316234325 $339 30.480909316234325 $226 $340 forward 7 unknown #
coedge $-1 $143 $142 $341 $342 forward $56 $-1 #
coedge $-1 $343 $344 $142 $230 reversed $328 $-1 #
edge $-1 $237 -55.970946378978851 $345 55.970946378978851 $229 $346 forward 7 unknown #
coedge $-1 $223 $347 $143 $232 reversed $139 $-1 #
edge $-1 $348 -55.970946378978851 $236 55.970946378978851 $231 $349 forward 7 unknown #
coedge $-1 $226 $144 $347 $350 forward $235 $-1 #
coedge $-1 $144 $226 $343 $351 reversed $235 $-1 #
loop $-1 $-1 $233 $327 #
vertex $-1 $145 $352 #
vertex $-1 $145 $353 #
straight-curve $-1 55.970946378978851 0 7.9595294218072761 0 1 0 I I #
face $-1 $354 $355 $34 $-1 $356 reversed single #
loop $-1 $-1 $357 $146 #
plane-surface $-1 -55.970946378978851 0 0 1 0 0 0 0 -1 forward_v I I I I #
coedge $-1 $358 $248 $253 $359 reversed $147 $-1 #
coedge $-1 $360 $149 $361 $362 reversed $93 $-1 #
coedge $-1 $149 $360 $358 $363 forward $93 $-1 #
coedge $-1 $253 $252 $149 $246 forward $254 $-1 #
edge $-1 $364 -17.143002511996595 $365 -9.5328110964788628 $245 $366 forward 7 unknown #
coedge $-1 $151 $150 $357 $367 reversed $59 $-1 #
coedge $-1 $242 $368 $150 $249 reversed $147 $-1 #
edge $-1 $255 -55.970946378978851 $369 55.970946378978851 $248 $370 forward 7 unknown #
coedge $-1 $371 $372 $151 $251 forward $355 $-1 #
edge $-1 $256 -55.970946378978851 $373 55.970946378978851 $250 $374 forward 7 unknown #
coedge $-1 $245 $152 $372 $375 forward $254 $-1 #
coedge $-1 $152 $245 $242 $359 forward $254 $-1 #
loop $-1 $-1 $152 $354 #
vertex $-1 $153 $376 #
vertex $-1 $375 $377 #
straight-curve $-1 55.970946378978851 -13.337906804237729 2.8957572329405883 0 -1 0 I I #
face $-1 $-1 $378 $35 $-1 $379 forward single #
loop $-1 $-1 $267 $154 #
plane-surface $-1 0 -22.870717900716592 0.89145799247688995 0 -1 0 0 0 -1 forward_v I I I I #
coedge $-1 $160 $380 $381 $382 forward $155 $-1 #
coedge $-1 $263 $157 $159 $269 reversed $97 $-1 #
coedge $-1 $157 $262 $383 $384 reversed $97 $-1 #
coedge $-1 $380 $160 $157 $265 forward $155 $-1 #
edge $-1 $271 -77.84743306347454 $385 -70.553725045107626 $264 $386 forward 7 unknown #
coedge $-1 $159 $158 $387 $388 reversed $62 $-1 #
coedge $-1 $381 $389 $158 $268 forward $259 $-1 #
edge $-1 $390 66.269185477884719 $270 78.6779825627696 $267 $391 forward 7 unknown #
edge $-1 $392 99.533095673072808 $271 111.9418927579577 $262 $393 forward 7 unknown #
vertex $-1 $268 $394 #
vertex $-1 $161 $395 #
straight-curve $-1 55.970946378978851 -9.6197007152236509 0.66582140344036134 0 1 0 I I #
coedge $-1 $273 $273 $-1 $396 reversed $164 $-1 #
edge $-1 $397 0 $397 6.2831853071796004 $165 $398 forward 7 unknown #
vertex $-1 $168 $399 #
ellipse-curve $-1 50.951482552118016 -20.79567991770557 4.3126754126238147 0.5877852598018023 0 0.80901698891910034 0.80901698891910034 0 -0.5877852598018023 1 I I #
coedge $-1 $277 $277 $-1 $400 reversed $171 $-1 #
edge $-1 $401 0 $401 6.2831853071796004 $172 $402 forward 7 unknown #
vertex $-1 $175 $403 #
ellipse-curve $-1 50.951482552118016 -17.683122943189037 4.3126754126238147 0.5877852598018023 0 0.80901698891910034 0.80901698891910034 0 -0.5877852598018023 1 I I #
face $-1 $-1 $293 $38 $-1 $404 forward single #
loop $-1 $-1 $405 $176 #
plane-surface $-1 -55.970946378978851 0 0 1 0 0 0 0 -1 forward_v I I I I #
coedge $-1 $406 $407 $408 $409 reversed $177 $-1 #
coedge $-1 $410 $179 $181 $291 forward $111 $-1 #
coedge $-1 $179 $410 $406 $411 forward $111 $-1 #
coedge $-1 $408 $182 $179 $288 forward $293 $-1 #
edge $-1 $295 -4.5499462697647104 $412 4.053379228427481 $287 $413 forward 7 unknown #
coedge $-1 $414 $415 $180 $290 forward $282 $-1 #
edge $-1 $416 -41.950900047622191 $294 -34.573188646916243 $289 $417 forward 7 unknown #
edge $-1 $295 -11.245499238596542 $416 1.8809995614912076e-014 $181 $418 forward 7 unknown #
coedge $-1 $182 $408 $414 $419 forward $293 $-1 #
loop $-1 $-1 $408 $281 #
vertex $-1 $290 $420 #
vertex $-1 $183 $421 #
straight-curve $-1 -64.705718369109235 -4.7982297904333251 7.9595294218072752 1 0 0 I I #
coedge $-1 $297 $297 $-1 $422 reversed $186 $-1 #
edge $-1 $423 0 $423 6.2831853071796004 $187 $424 forward 7 unknown #
vertex $-1 $190 $425 #
ellipse-curve $-1 -51.727403413096177 -2.3401367909498418 4.2706737214543047 -0.6560590369687036 0 0.75470957328743171 0.37735478664371586 0 0.3280295184843518 1 I I #
coedge $-1 $301 $301 $-1 $426 reversed $193 $-1 #
edge $-1 $427 0 $427 6.2831853071796004 $194 $428 forward 7 unknown #
vertex $-1 $197 $429 #
ellipse-curve $-1 -51.727403413096177 1.347002708275383 4.2706737214543047 -0.6560590369687036 0 0.75470957328743171 0.37735478664371586 0 0.3280295184843518 1 I I #
face $-1 $-1 $430 $41 $-1 $431 reversed single #
loop $-1 $-1 $432 $198 #
plane-surface $-1 0 30.480909316234325 0 0 -1 0 0 0 -1 forward_v I I I I #
coedge $-1 $433 $201 $203 $314 forward $125 $-1 #
coedge $-1 $201 $433 $432 $434 reversed $125 $-1 #
coedge $-1 $435 $204 $201 $311 forward $199 $-1 #
edge $-1 $317 8.7879605344730187 $436 17.39128603266521 $310 $437 forward 7 unknown #
coedge $-1 $438 $439 $202 $313 forward $430 $-1 #
edge $-1 $440 -41.950900047622191 $316 -34.573188646916243 $312 $441 forward 7 unknown #
edge $-1 $317 -11.245499238596542 $440 1.8809995614912076e-014 $203 $442 forward 7 unknown #
coedge $-1 $204 $435 $438 $443 forward $199 $-1 #
vertex $-1 $313 $444 #
vertex $-1 $205 $445 #
straight-curve $-1 -64.705718369109235 21.877583818042133 7.9595294218072752 1 0 0 I I #
coedge $-1 $319 $319 $-1 $446 reversed $208 $-1 #
edge $-1 $447 0 $447 6.2831853071796004 $209 $448 forward 7 unknown #
vertex $-1 $212 $449 #
ellipse-curve $-1 -51.727403413096177 24.335676817525616 4.2706737214543047 -0.6560590369687036 0 0.75470957328743171 0.37735478664371586 0 0.3280295184843518 1 I I #
coedge $-1 $323 $323 $-1 $450 reversed $215 $-1 #
edge $-1 $451 0 $451 6.2831853071796004 $216 $452 forward 7 unknown #
vertex $-1 $219 $453 #
ellipse-curve $-1 -51.727403413096177 28.022816316750841 4.2706737214543047 -0.6560590369687036 0 0.75470957328743171 0.37735478664371586 0 0.3280295184843518 1 I I #
face $-1 $-1 $235 $33 $-1 $454 reversed single #
loop $-1 $-1 $343 $220 #
plane-surface $-1 0 30.480909316234325 0 0 -1 0 0 0 -1 forward_v I I I I #
coedge $-1 $455 $341 $344 $456 forward $221 $-1 #
coedge $-1 $347 $223 $224 $335 reversed $139 $-1 #
coedge $-1 $341 $455 $223 $333 reversed $221 $-1 #
edge $-1 $348 -7.9595294218072761 $457 7.9595294218072761 $332 $458 forward 7 unknown #
coedge $-1 $225 $224 $455 $459 forward $89 $-1 #
edge $-1 $339 -55.970946378978851 $457 55.970946378978851 $331 $460 forward 7 unknown #
coedge $-1 $344 $343 $225 $337 reversed $328 $-1 #
edge $-1 $461 -55.970946378978851 $338 55.970946378978851 $336 $462 forward 7 unknown #
vertex $-1 $227 $463 #
vertex $-1 $350 $464 #
straight-curve $-1 55.970946378978851 0 -7.9595294218072761 0 -1 0 I I #
coedge $-1 $330 $332 $228 $342 reversed $221 $-1 #
edge $-1 $345 -30.480909316234325 $348 30.480909316234325 $341 $465 forward 7 unknown #
coedge $-1 $336 $229 $234 $351 forward $328 $-1 #
coedge $-1 $229 $336 $330 $456 reversed $328 $-1 #
vertex $-1 $230 $466 #
straight-curve $-1 0 30.480909316234325 7.9595294218072761 -1 0 0 I I #
coedge $-1 $231 $331 $233 $350 reversed $139 $-1 #
vertex $-1 $342 $467 #
straight-curve $-1 0 -30.480909316234325 7.9595294218072761 1 0 0 I I #
edge $-1 $236 -7.9595294218072761 $339 7.9595294218072761 $233 $468 forward 7 unknown #
edge $-1 $237 -7.9595294218072761 $338 7.9595294218072761 $234 $469 forward 7 unknown #
point $-1 55.970946378978851 -30.480909316234325 7.9595294218072761 #
point $-1 55.970946378978851 30.480909316234325 7.9595294218072761 #
face $-1 $-1 $254 $34 $-1 $470 reversed single #
loop $-1 $-1 $250 $239 #
plane-surface $-1 0 -30.480909316234325 0 0 1 0 0 0 1 forward_v I I I I #
coedge $-1 $471 $472 $247 $367 forward $240 $-1 #
coedge $-1 $368 $242 $244 $363 reversed $147 $-1 #
edge $-1 $365 -1.5585702442252534 $255 2.4500282367021433 $253 $473 forward 7 unknown #
coedge $-1 $244 $243 $474 $475 reversed $93 $-1 #
coedge $-1 $372 $371 $243 $362 forward $355 $-1 #
edge $-1 $476 -55.970946378978851 $364 55.970946378978851 $361 $477 forward 7 unknown #
edge $-1 $478 -55.970946378978851 $365 55.970946378978851 $358 $479 forward 7 unknown #
vertex $-1 $362 $480 #
vertex $-1 $246 $481 #
straight-curve $-1 55.970946378978851 -13.337906804237729 -1.1128412479868084 0 1 0 I I #
edge $-1 $373 -17.143002511996595 $369 -9.5328110964788628 $357 $482 forward 7 unknown #
coedge $-1 $248 $358 $471 $483 reversed $147 $-1 #
vertex $-1 $367 $484 #
straight-curve $-1 0 -22.870717900716592 2.8957572329405883 -1 0 0 I I #
coedge $-1 $361 $250 $472 $485 forward $355 $-1 #
coedge $-1 $250 $361 $252 $375 reversed $355 $-1 #
vertex $-1 $485 $486 #
straight-curve $-1 0 -30.480909316234325 2.8957572329405883 -1 0 0 I I #
edge $-1 $256 -2.8957572329405883 $364 1.1128412479868084 $252 $487 forward 7 unknown #
point $-1 55.970946378978851 -22.870717900716592 2.8957572329405883 #
point $-1 55.970946378978851 -30.480909316234325 2.8957572329405883 #
loop $-1 $-1 $488 $258 #
plane-surface $-1 0 0 7.9595294218072761 0 0 1 1 0 0 forward_v I I I I #
coedge $-1 $261 $264 $489 $490 reversed $155 $-1 #
coedge $-1 $389 $267 $261 $382 reversed $259 $-1 #
edge $-1 $491 70.553725045107626 $270 77.84743306347454 $261 $492 forward 7 unknown #
coedge $-1 $387 $489 $263 $384 forward $378 $-1 #
edge $-1 $385 -40.368022437242487 $392 -30.329094783520802 $383 $493 forward 7 unknown #
vertex $-1 $265 $494 #
straight-curve $-1 55.970946378978851 -15.608084960178012 78.513254466914901 0 0 1 I I #
coedge $-1 $488 $383 $266 $388 forward $378 $-1 #
edge $-1 $392 5.9883842449543607 $390 13.251017185492941 $387 $495 forward 7 unknown #
coedge $-1 $267 $381 $488 $496 reversed $259 $-1 #
vertex $-1 $496 $497 #
straight-curve $-1 -7.6808781681825007 -22.870717900716592 46.911579824779565 0.80901698891910034 0 -0.5877852598018023 I I #
vertex $-1 $388 $498 #
straight-curve $-1 -34.591946633968931 -15.608084960178012 66.46361592088202 0.80901698891910034 0 -0.5877852598018023 I I #
point $-1 55.970946378978851 -22.870717900716592 0.66582140344036844 #
point $-1 55.970946378978851 -15.608084960178012 0.66582140344036134 #
edge $-1 $499 1 $499 0 $273 $-1 forward 7 unknown #
vertex $-1 $274 $500 #
ellipse-curve $-1 50.050547865137652 -20.79567991770557 3.0726452221433651 0.5877852598018023 0 0.80901698891910034 0.80901698891910034 0 -0.5877852598018023 1 I I #
point $-1 51.76049954103712 -20.79567991770557 3.7248901528220131 #
edge $-1 $501 1 $501 0 $277 $-1 forward 7 unknown #
vertex $-1 $278 $502 #
ellipse-curve $-1 50.050547865137652 -17.683122943189037 3.0726452221433651 0.5877852598018023 0 0.80901698891910034 0.80901698891910034 0 -0.5877852598018023 1 I I #
point $-1 51.76049954103712 -17.683122943189037 3.7248901528220131 #
plane-surface $-1 0 0 7.9595294218072761 0 0 1 1 0 0 forward_v I I I I #
coedge $-1 $415 $414 $407 $503 forward $282 $-1 #
coedge $-1 $407 $284 $286 $411 reversed $177 $-1 #
coedge $-1 $284 $406 $405 $503 reversed $177 $-1 #
coedge $-1 $292 $287 $284 $409 forward $293 $-1 #
edge $-1 $412 -17.221857921895733 $504 -8.7347719901303833 $408 $505 forward 7 unknown #
coedge $-1 $286 $285 $415 $506 reversed $111 $-1 #
edge $-1 $507 -1.8809995614912076e-014 $412 11.245499238596542 $406 $508 forward 7 unknown #
vertex $-1 $288 $509 #
straight-curve $-1 -47.483860447213509 -0.2482835206686147 7.959529421807277 0 1 0 I I #
coedge $-1 $405 $289 $292 $419 reversed $282 $-1 #
coedge $-1 $289 $405 $410 $506 forward $282 $-1 #
vertex $-1 $290 $510 #
straight-curve $-1 -55.970946378978851 -4.7982297904333251 42.532718068723518 0 0 1 I I #
straight-curve $-1 -55.970946378978837 -4.7982297904333251 0.58181802110134129 -0.75470957328743171 0 -0.6560590369687036 I I #
edge $-1 $504 -3.8050957077588663 $294 4.7982297904333251 $414 $511 forward 7 unknown #
point $-1 -55.970946378978851 -4.7982297904333251 7.9595294218072761 #
point $-1 -47.483860447213502 -4.7982297904333251 7.9595294218072761 #
edge $-1 $512 1 $512 0 $297 $-1 forward 7 unknown #
vertex $-1 $298 $513 #
ellipse-curve $-1 -50.450063455776544 -2.3401367909498418 2.801262220645004 -0.6560590369687036 0 0.75470957328743171 0.37735478664371586 0 0.3280295184843518 1 I I #
point $-1 -51.350048626452455 -2.3401367909498418 4.5987032399386543 #
edge $-1 $514 1 $514 0 $301 $-1 forward 7 unknown #
vertex $-1 $302 $515 #
ellipse-curve $-1 -50.450063455776544 1.347002708275383 2.801262220645004 -0.6560590369687036 0 0.75470957328743171 0.37735478664371586 0 0.3280295184843518 1 I I #
point $-1 -51.350048626452455 1.347002708275383 4.5987032399386543 #
loop $-1 $-1 $312 $305 #
plane-surface $-1 -55.970946378978851 0 0 1 0 0 0 0 -1 forward_v I I I I #
coedge $-1 $516 $517 $309 $434 forward $306 $-1 #
coedge $-1 $309 $308 $439 $518 reversed $125 $-1 #
edge $-1 $436 9.6845518051824886 $519 20.930051043779052 $432 $520 forward 7 unknown #
coedge $-1 $315 $310 $517 $521 forward $199 $-1 #
vertex $-1 $521 $522 #
straight-curve $-1 -47.483860447213509 13.089623283569114 7.959529421807277 0 1 0 I I #
coedge $-1 $523 $312 $315 $443 reversed $430 $-1 #
coedge $-1 $312 $523 $433 $518 forward $430 $-1 #
vertex $-1 $313 $524 #
straight-curve $-1 -55.970946378978851 21.877583818042133 42.532718068723518 0 0 1 I I #
straight-curve $-1 -55.970946378978837 21.877583818042133 0.58181802110134129 -0.75470957328743171 0 -0.6560590369687036 I I #
edge $-1 $525 -30.480909316234325 $316 -21.877583818042133 $438 $526 forward 7 unknown #
point $-1 -55.970946378978851 21.877583818042133 7.9595294218072761 #
point $-1 -47.483860447213502 21.877583818042133 7.9595294218072761 #
edge $-1 $527 1 $527 0 $319 $-1 forward 7 unknown #
vertex $-1 $320 $528 #
ellipse-curve $-1 -50.450063455776544 24.335676817525616 2.801262220645004 -0.6560590369687036 0 0.75470957328743171 0.37735478664371586 0 0.3280295184843518 1 I I #
point $-1 -51.350048626452455 24.335676817525616 4.5987032399386543 #
edge $-1 $529 1 $529 0 $323 $-1 forward 7 unknown #
vertex $-1 $324 $530 #
ellipse-curve $-1 -50.450063455776544 28.022816316750841 2.801262220645004 -0.6560590369687036 0 0.75470957328743171 0.37735478664371586 0 0.3280295184843518 1 I I #
point $-1 -51.350048626452455 28.022816316750841 4.5987032399386543 #
plane-surface $-1 55.970946378978851 0 0 -1 0 0 0 0 1 forward_v I I I I #
coedge $-1 $332 $330 $334 $459 reversed $221 $-1 #
edge $-1 $345 -7.9595294218072761 $461 7.9595294218072761 $344 $531 forward 7 unknown #
vertex $-1 $459 $532 #
straight-curve $-1 -55.970946378978851 -30.480909316234325 0 0 0 -1 I I #
edge $-1 $457 -30.480909316234325 $461 30.480909316234325 $455 $533 forward 7 unknown #
straight-curve $-1 0 -30.480909316234325 -7.9595294218072761 -1 0 0 I I #
vertex $-1 $337 $534 #
straight-curve $-1 0 30.480909316234325 -7.9595294218072761 1 0 0 I I #
point $-1 55.970946378978851 30.480909316234325 -7.9595294218072761 #
point $-1 55.970946378978851 -30.480909316234325 -7.9595294218072761 #
straight-curve $-1 -55.970946378978851 0 7.9595294218072761 0 -1 0 I I #
point $-1 -55.970946378978851 30.480909316234325 7.9595294218072761 #
point $-1 -55.970946378978851 -30.480909316234325 7.9595294218072761 #
straight-curve $-1 55.970946378978851 -30.480909316234325 0 0 0 -1 I I #
straight-curve $-1 55.970946378978851 30.480909316234325 0 0 0 -1 I I #
plane-surface $-1 55.970946378978851 0 0 -1 0 0 0 0 1 forward_v I I I I #
coedge $-1 $474 $357 $368 $483 forward $240 $-1 #
coedge $-1 $357 $474 $371 $485 reversed $240 $-1 #
straight-curve $-1 55.970946378978851 -22.870717900716592 0.44572899623844497 0 0 1 I I #
coedge $-1 $472 $471 $360 $475 forward $240 $-1 #
edge $-1 $478 9.5328110964788628 $476 17.143002511996595 $474 $535 forward 7 unknown #
vertex $-1 $362 $536 #
straight-curve $-1 0 -30.480909316234325 -1.1128412479868084 1 0 0 I I #
vertex $-1 $475 $537 #
straight-curve $-1 0 -22.870717900716592 -1.1128412479868084 1 0 0 I I #
point $-1 55.970946378978851 -30.480909316234325 -1.1128412479868084 #
point $-1 55.970946378978851 -22.870717900716592 -1.1128412479868084 #
straight-curve $-1 -55.970946378978851 -13.337906804237729 2.8957572329405883 0 1 0 I I #
edge $-1 $369 -2.4500282367021433 $478 1.5585702442252534 $471 $538 forward 7 unknown #
point $-1 -55.970946378978851 -22.870717900716592 2.8957572329405883 #
edge $-1 $373 -2.8957572329405883 $476 1.1128412479868084 $472 $539 forward 7 unknown #
point $-1 -55.970946378978851 -30.480909316234325 2.8957572329405883 #
straight-curve $-1 55.970946378978851 -30.480909316234325 0 0 0 -1 I I #
coedge $-1 $489 $387 $389 $496 forward $378 $-1 #
coedge $-1 $383 $488 $380 $490 forward $378 $-1 #
edge $-1 $491 -22.870717900716592 $385 -15.608084960178012 $380 $540 forward 7 unknown #
vertex $-1 $490 $541 #
straight-curve $-1 55.970946378978851 -22.870717900716592 78.513254466914901 0 0 -1 I I #
straight-curve $-1 15.602923941736364 -15.608084960178012 7.9595294218072752 -1 0 0 I I #
point $-1 55.970946378978851 -15.608084960178012 7.9595294218072761 #
straight-curve $-1 45.932018725257166 -9.6197007152236509 7.9595294218072752 0 -1 0 I I #
edge $-1 $390 30.329094783520802 $491 40.368022437242487 $488 $542 forward 7 unknown #
point $-1 45.932018725257166 -22.870717900716592 7.9595294218072752 #
point $-1 45.932018725257166 -15.608084960178012 7.9595294218072752 #
vertex $-1 $396 $543 #
point $-1 50.85956485405675 -20.79567991770557 2.484859962341563 #
vertex $-1 $400 $544 #
point $-1 50.85956485405675 -17.683122943189037 2.484859962341563 #
edge $-1 $504 34.573188646916243 $507 41.950900047622191 $405 $545 forward 7 unknown #
vertex $-1 $419 $546 #
straight-curve $-1 -64.705718369109235 3.8050957077588663 7.9595294218072752 -1 0 0 I I #
edge $-1 $507 -4.053379228427481 $416 4.5499462697647104 $415 $547 forward 7 unknown #
vertex $-1 $506 $548 #
straight-curve $-1 -55.970946378978837 3.8050957077588663 0.58181802110134129 0.75470957328743171 0 0.6560590369687036 I I #
point $-1 -47.483860447213502 3.8050957077588663 7.9595294218072761 #
point $-1 -55.970946378978851 -4.7982297904333251 0.58181802110132896 #
straight-curve $-1 -55.970946378978851 0 7.9595294218072761 0 -1 0 I I #
vertex $-1 $422 $549 #
point $-1 -50.072708669132822 -2.3401367909498418 3.1292917391293558 #
vertex $-1 $426 $550 #
point $-1 -50.072708669132822 1.347002708275383 3.1292917391293558 #
coedge $-1 $517 $432 $523 $551 reversed $306 $-1 #
coedge $-1 $432 $516 $435 $521 reversed $306 $-1 #
edge $-1 $519 -17.39128603266521 $440 -8.7879605344730187 $439 $552 forward 7 unknown #
vertex $-1 $434 $553 #
straight-curve $-1 -40.1748364868442 30.480909316234325 14.313167152588818 -0.75470957328743171 0 -0.6560590369687036 I I #
edge $-1 $436 47.483860447213502 $525 55.970946378978851 $517 $554 forward 7 unknown #
point $-1 -47.483860447213502 30.480909316234325 7.9595294218072761 #
coedge $-1 $439 $438 $516 $551 forward $430 $-1 #
point $-1 -55.970946378978851 21.877583818042133 0.58181802110132896 #
vertex $-1 $521 $555 #
straight-curve $-1 -55.970946378978851 0 7.9595294218072761 0 -1 0 I I #
vertex $-1 $446 $556 #
point $-1 -50.072708669132822 24.335676817525616 3.1292917391293558 #
vertex $-1 $450 $557 #
point $-1 -50.072708669132822 28.022816316750841 3.1292917391293558 #
straight-curve $-1 -55.970946378978851 30.480909316234325 0 0 0 -1 I I #
point $-1 -55.970946378978851 -30.480909316234325 -7.9595294218072761 #
straight-curve $-1 -55.970946378978851 0 -7.9595294218072761 0 1 0 I I #
point $-1 -55.970946378978851 30.480909316234325 -7.9595294218072761 #
straight-curve $-1 -55.970946378978851 -13.337906804237729 -1.1128412479868084 0 -1 0 I I #
point $-1 -55.970946378978851 -30.480909316234325 -1.1128412479868084 #
point $-1 -55.970946378978851 -22.870717900716592 -1.1128412479868084 #
straight-curve $-1 -55.970946378978851 -22.870717900716592 0.44572899623844497 0 0 -1 I I #
straight-curve $-1 -55.970946378978851 -30.480909316234325 0 0 0 -1 I I #
straight-curve $-1 55.970946378978851 0 7.9595294218072761 0 1 0 I I #
point $-1 55.970946378978851 -22.870717900716592 7.9595294218072761 #
straight-curve $-1 15.602923941736364 -22.870717900716592 7.9595294218072752 1 0 0 I I #
point $-1 49.462762605335847 -20.79567991770557 2.263628233224265 #
point $-1 49.462762605335847 -17.683122943189037 2.263628233224265 #
straight-curve $-1 -55.970946378978851 3.8050957077588663 42.532718068723518 0 0 -1 I I #
point $-1 -55.970946378978851 3.8050957077588663 7.9595294218072761 #
straight-curve $-1 -55.970946378978851 -0.2482835206686147 0.58181802110133174 0 -1 0 I I #
point $-1 -55.970946378978851 3.8050957077588663 0.58181802110132896 #
point $-1 -50.122033937292187 -2.3401367909498418 2.4239074340012881 #
point $-1 -50.122033937292187 1.347002708275383 2.4239074340012881 #
edge $-1 $525 -7.9595294218072761 $519 -0.58181802110132896 $516 $558 forward 7 unknown #
straight-curve $-1 -55.970946378978851 13.089623283569114 0.58181802110133174 0 -1 0 I I #
point $-1 -55.970946378978851 30.480909316234325 0.58181802110132896 #
straight-curve $-1 0 30.480909316234325 7.9595294218072761 -1 0 0 I I #
point $-1 -55.970946378978851 30.480909316234325 7.9595294218072761 #
point $-1 -50.122033937292187 24.335676817525616 2.4239074340012881 #
point $-1 -50.122033937292187 28.022816316750841 2.4239074340012881 #
straight-curve $-1 -55.970946378978851 30.480909316234325 0 0 0 -1 I I #
End-of-ACIS-data 