500 0 9 0           
7 Unknown 11 ACIS 5.0 NT 24 Fri Mar 26 18:33:29 1999 
-1 9.9999999999999995e-007 1e-010 
body $-1 $9 $-1 $10 #
body $-1 $11 $-1 $12 #
body $-1 $13 $-1 $14 #
body $-1 $15 $-1 $16 #
body $-1 $17 $-1 $18 #
body $-1 $19 $-1 $20 #
body $-1 $21 $-1 $22 #
body $-1 $23 $-1 $24 #
body $-1 $25 $-1 $26 #
lump $-1 $-1 $27 $0 #
transform $-1 1 0 0 0 1 0 0 0 1 49.490035706656087 27.593560818590451 5.9080216264835057 1 rotate no_reflect no_shear #
lump $-1 $-1 $28 $1 #
transform $-1 1 0 0 0 1 0 0 0 1 49.490035706656087 27.593560818590451 5.9080216264835057 1 rotate no_reflect no_shear #
lump $-1 $-1 $29 $2 #
transform $-1 1 0 0 0 1 0 0 0 1 49.490035706656087 27.593560818590451 5.9080216264835057 1 rotate no_reflect no_shear #
lump $-1 $-1 $30 $3 #
transform $-1 1 0 0 0 1 0 0 0 1 49.490035706656087 27.593560818590451 5.9080216264835057 1 rotate no_reflect no_shear #
lump $-1 $-1 $31 $4 #
transform $-1 1 0 0 0 1 0 0 0 1 49.490035706656087 27.593560818590451 5.9080216264835057 1 rotate no_reflect no_shear #
lump $-1 $-1 $32 $5 #
transform $-1 1 0 0 0 1 0 0 0 1 49.490035706656087 27.593560818590451 5.9080216264835057 1 rotate no_reflect no_shear #
lump $-1 $-1 $33 $6 #
transform $-1 1 0 0 0 1 0 0 0 1 49.490035706656087 27.593560818590451 5.9080216264835057 1 rotate no_reflect no_shear #
lump $-1 $-1 $34 $7 #
transform $-1 1 0 0 0 1 0 0 0 1 49.490035706656087 27.593560818590451 5.9080216264835057 1 rotate no_reflect no_shear #
lump $-1 $-1 $35 $8 #
transform $-1 1 0 0 0 1 0 0 0 1 49.490035706656087 27.593560818590451 5.9080216264835057 1 rotate no_reflect no_shear #
shell $-1 $-1 $-1 $36 $-1 $9 #
shell $-1 $-1 $-1 $37 $-1 $11 #
shell $-1 $-1 $-1 $38 $-1 $13 #
shell $-1 $-1 $-1 $39 $-1 $15 #
shell $-1 $-1 $-1 $40 $-1 $17 #
shell $-1 $-1 $-1 $41 $-1 $19 #
shell $-1 $-1 $-1 $42 $-1 $21 #
shell $-1 $-1 $-1 $43 $-1 $23 #
shell $-1 $-1 $-1 $44 $-1 $25 #
face $-1 $45 $46 $27 $-1 $47 forward single #
face $-1 $48 $49 $28 $-1 $50 reversed single #
face $-1 $51 $52 $29 $-1 $53 reversed single #
face $-1 $54 $55 $30 $-1 $56 forward single #
face $-1 $57 $58 $31 $-1 $59 forward single #
face $-1 $60 $61 $32 $-1 $62 reversed single #
face $-1 $63 $64 $33 $-1 $65 forward single #
face $-1 $66 $67 $34 $-1 $68 forward single #
face $-1 $69 $70 $35 $-1 $71 forward single #
face $-1 $72 $73 $27 $-1 $74 reversed single #
loop $-1 $-1 $75 $36 #
plane-surface $-1 0 0 5.9080216264835057 0 0 1 1 0 0 forward_v I I I I #
face $-1 $76 $77 $28 $-1 $78 reversed single #
loop $-1 $-1 $79 $37 #
plane-surface $-1 -47.25579851727133 -24.593560818590451 0 0 -1 0 0 0 -1 forward_v I I I I #
face $-1 $80 $81 $29 $-1 $82 reversed single #
loop $-1 $-1 $83 $38 #
plane-surface $-1 29.286462806697312 -111.53342272245681 54.412875641277516 -1 0 0 0 -0.84804810408105047 0.52991925155115449 forward_v I I I I #
face $-1 $84 $85 $30 $-1 $86 forward single #
loop $-1 $87 $88 $39 #
cone-surface $-1 14.518781115102158 -25.756080164584922 3.5570369914921365 0 0.84804810408105047 -0.52991925155115449 1 0 0 1 I I 0 1 1 forward I I I I #
face $-1 $89 $90 $31 $-1 $91 forward single #
loop $-1 $92 $93 $40 #
cone-surface $-1 23.379390130059264 -25.756080164584922 3.5570369914921365 0 0.84804810408105047 -0.52991925155115449 1 0 0 1 I I 0 1 1 forward I I I I #
face $-1 $94 $95 $32 $-1 $96 reversed single #
loop $-1 $-1 $97 $41 #
plane-surface $-1 7.2242921064011654 45.043733399136784 114.06148709904501 1 0 0 0 -0.61566148304635926 -0.78801074757464917 forward_v I I I I #
face $-1 $98 $99 $33 $-1 $100 forward single #
loop $-1 $101 $102 $42 #
cone-surface $-1 12.464065579861995 24.078339852077395 2.6279556408799416 0 -0.61566148304635926 -0.78801074757464917 1 0 0 1 I I 0 1 1 forward I I I I #
face $-1 $103 $104 $34 $-1 $105 forward single #
loop $-1 $106 $107 $43 #
cone-surface $-1 20.323725790053231 24.078339852077395 2.6279556408799416 0 -0.61566148304635926 -0.78801074757464917 1 0 0 1 I I 0 1 1 forward I I I I #
face $-1 $108 $109 $35 $-1 $110 forward single #
loop $-1 $111 $112 $44 #
cone-surface $-1 28.183386000244468 24.078339852077395 2.6279556408799416 0 -0.61566148304635926 -0.78801074757464917 1 0 0 1 I I 0 1 1 forward I I I I #
face $-1 $113 $114 $27 $-1 $115 reversed single #
loop $-1 $-1 $116 $45 #
plane-surface $-1 0 0 -5.9080216264835057 0 0 1 1 0 0 forward_v I I I I #
coedge $-1 $117 $118 $119 $120 forward $46 $-1 #
face $-1 $121 $122 $28 $-1 $123 forward single #
loop $-1 $-1 $124 $48 #
plane-surface $-1 -45.021561327886573 -26.093560818590451 0 -1 0 0 0 0 1 forward_v I I I I #
coedge $-1 $125 $126 $127 $128 forward $49 $-1 #
face $-1 $129 $130 $29 $-1 $131 reversed single #
loop $-1 $-1 $132 $51 #
plane-surface $-1 18.949085622580697 -27.593560818590433 1.9614302794553069 0 -0.84804810408105047 0.52991925155115449 1 0 0 forward_v I I I I #
coedge $-1 $133 $134 $135 $136 reversed $52 $-1 #
face $-1 $-1 $137 $30 $-1 $138 forward single #
loop $-1 $139 $140 $54 #
cone-surface $-1 14.518781115102158 -24.727627406141345 2.9143884042392907 0 0.84804810408105047 -0.52991925155115449 0.5 0 0 1 I I -0.70710678118654746 0.70710678118654746 0.5 forward I I I I #
loop $-1 $-1 $141 $39 #
coedge $-1 $88 $88 $142 $143 reversed $55 $-1 #
face $-1 $-1 $144 $31 $-1 $145 forward single #
loop $-1 $146 $147 $57 #
cone-surface $-1 23.379390130059264 -24.727627406141345 2.9143884042392907 0 0.84804810408105047 -0.52991925155115449 0.5 0 0 1 I I -0.70710678118654746 0.70710678118654746 0.5 forward I I I I #
loop $-1 $-1 $148 $40 #
coedge $-1 $93 $93 $149 $150 reversed $58 $-1 #
face $-1 $151 $152 $32 $-1 $153 reversed single #
loop $-1 $-1 $154 $60 #
plane-surface $-1 20.323725790053231 -15.894484159217541 36.064127029648716 0 0.61566148304635926 0.78801074757464917 1 0 0 forward_v I I I I #
coedge $-1 $155 $156 $157 $158 reversed $61 $-1 #
face $-1 $-1 $159 $33 $-1 $160 forward single #
loop $-1 $161 $162 $63 #
cone-surface $-1 12.464065579861995 22.700283637538053 0.86412415600975923 0 -0.61566148304635926 -0.78801074757464917 0.5 0 0 1 I I -0.70710678118654746 0.70710678118654746 0.5 forward I I I I #
loop $-1 $-1 $163 $42 #
coedge $-1 $102 $102 $164 $165 reversed $64 $-1 #
face $-1 $-1 $166 $34 $-1 $167 forward single #
loop $-1 $168 $169 $66 #
cone-surface $-1 20.323725790053231 22.700283637538053 0.86412415600975923 0 -0.61566148304635926 -0.78801074757464917 0.5 0 0 1 I I -0.70710678118654746 0.70710678118654746 0.5 forward I I I I #
loop $-1 $-1 $170 $43 #
coedge $-1 $107 $107 $171 $172 reversed $67 $-1 #
face $-1 $-1 $173 $35 $-1 $174 forward single #
loop $-1 $175 $176 $69 #
cone-surface $-1 28.183386000244468 22.700283637538053 0.86412415600975923 0 -0.61566148304635926 -0.78801074757464917 0.5 0 0 1 I I -0.70710678118654746 0.70710678118654746 0.5 forward I I I I #
loop $-1 $-1 $177 $44 #
coedge $-1 $112 $112 $178 $179 reversed $70 $-1 #
face $-1 $180 $181 $27 $-1 $182 reversed single #
loop $-1 $-1 $183 $72 #
plane-surface $-1 0 -27.593560818590451 0 0 1 0 0 0 1 forward_v I I I I #
coedge $-1 $184 $185 $186 $187 forward $73 $-1 #
coedge $-1 $188 $75 $189 $190 forward $46 $-1 #
coedge $-1 $75 $188 $191 $192 forward $46 $-1 #
coedge $-1 $193 $194 $75 $120 reversed $195 $-1 #
edge $-1 $196 -27.593560818590451 $197 27.593560818590451 $119 $198 forward 7 unknown #
face $-1 $199 $200 $28 $-1 $201 reversed single #
loop $-1 $-1 $202 $76 #
plane-surface $-1 0 0 5.9080216264835057 0 0 1 1 0 0 forward_v I I I I #
coedge $-1 $203 $204 $205 $206 reversed $77 $-1 #
coedge $-1 $207 $79 $208 $209 reversed $49 $-1 #
coedge $-1 $79 $207 $210 $211 reversed $49 $-1 #
coedge $-1 $204 $203 $79 $128 reversed $77 $-1 #
edge $-1 $212 -5.9080216264835057 $213 5.9080216264835057 $127 $214 forward 7 unknown #
face $-1 $215 $216 $29 $-1 $217 forward single #
loop $-1 $-1 $218 $80 #
plane-surface $-1 8.6117084384640812 -111.53342272245681 54.412875641277516 1 0 0 0 0.84804810408105047 -0.52991925155115449 forward_v I I I I #
coedge $-1 $219 $220 $221 $222 reversed $81 $-1 #
coedge $-1 $134 $83 $223 $224 reversed $52 $-1 #
coedge $-1 $83 $133 $219 $225 reversed $52 $-1 #
coedge $-1 $221 $226 $83 $136 forward $216 $-1 #
edge $-1 $227 28.173150542637952 $228 30.639254437842915 $135 $229 forward 7 unknown #
loop $-1 $-1 $142 $84 #
plane-surface $-1 18.949085622580697 -27.593560818590433 1.9614302794553069 0 -0.84804810408105047 0.52991925155115449 1 0 0 forward_v I I I I #
loop $-1 $-1 $230 $54 #
coedge $-1 $140 $140 $141 $231 reversed $85 $-1 #
coedge $-1 $141 $141 $140 $231 forward $87 $-1 #
coedge $-1 $142 $142 $88 $143 forward $137 $-1 #
edge $-1 $232 1.1810659064304615e-018 $232 6.2831853071796004 $142 $233 forward 7 unknown #
loop $-1 $-1 $149 $89 #
plane-surface $-1 18.949085622580697 -27.593560818590433 1.9614302794553069 0 -0.84804810408105047 0.52991925155115449 1 0 0 forward_v I I I I #
loop $-1 $-1 $234 $57 #
coedge $-1 $147 $147 $148 $235 reversed $90 $-1 #
coedge $-1 $148 $148 $147 $235 forward $92 $-1 #
coedge $-1 $149 $149 $93 $150 forward $144 $-1 #
edge $-1 $236 1.1810659064304615e-018 $236 6.2831853071796004 $149 $237 forward 7 unknown #
face $-1 $238 $239 $32 $-1 $240 reversed single #
loop $-1 $-1 $241 $94 #
plane-surface $-1 33.423159473705297 45.043733399136784 114.06148709904501 -1 0 0 0 0.61566148304635926 0.78801074757464917 forward_v I I I I #
coedge $-1 $242 $243 $244 $245 reversed $95 $-1 #
coedge $-1 $156 $97 $246 $247 reversed $61 $-1 #
coedge $-1 $97 $155 $242 $248 reversed $61 $-1 #
coedge $-1 $244 $249 $97 $158 forward $250 $-1 #
edge $-1 $251 -5.0716941190220588 $252 -0.18170313202829647 $157 $253 forward 7 unknown #
loop $-1 $-1 $164 $98 #
plane-surface $-1 20.323725790053231 -15.894484159217541 36.064127029648716 0 0.61566148304635926 0.78801074757464917 1 0 0 forward_v I I I I #
loop $-1 $-1 $254 $63 #
coedge $-1 $162 $162 $163 $255 reversed $99 $-1 #
coedge $-1 $163 $163 $162 $255 forward $101 $-1 #
coedge $-1 $164 $164 $102 $165 forward $159 $-1 #
edge $-1 $256 2.2642065542550451e-015 $256 6.2831853071796031 $164 $257 forward 7 unknown #
loop $-1 $-1 $171 $103 #
plane-surface $-1 20.323725790053231 -15.894484159217541 36.064127029648716 0 0.61566148304635926 0.78801074757464917 1 0 0 forward_v I I I I #
loop $-1 $-1 $258 $66 #
coedge $-1 $169 $169 $170 $259 reversed $104 $-1 #
coedge $-1 $170 $170 $169 $259 forward $106 $-1 #
coedge $-1 $171 $171 $107 $172 forward $166 $-1 #
edge $-1 $260 2.2642065542550451e-015 $260 6.2831853071796031 $171 $261 forward 7 unknown #
loop $-1 $-1 $178 $108 #
plane-surface $-1 20.323725790053231 -15.894484159217541 36.064127029648716 0 0.61566148304635926 0.78801074757464917 1 0 0 forward_v I I I I #
loop $-1 $-1 $262 $69 #
coedge $-1 $176 $176 $177 $263 reversed $109 $-1 #
coedge $-1 $177 $177 $176 $263 forward $111 $-1 #
coedge $-1 $178 $178 $112 $179 forward $173 $-1 #
edge $-1 $264 2.2642065542550451e-015 $264 6.2831853071796031 $178 $265 forward 7 unknown #
face $-1 $266 $267 $27 $-1 $268 reversed single #
loop $-1 $-1 $269 $113 #
plane-surface $-1 -49.490035706656087 0 0 1 0 0 0 0 -1 forward_v I I I I #
coedge $-1 $270 $191 $271 $272 forward $114 $-1 #
coedge $-1 $273 $116 $270 $274 forward $73 $-1 #
coedge $-1 $116 $273 $275 $276 forward $73 $-1 #
coedge $-1 $194 $193 $116 $187 reversed $195 $-1 #
edge $-1 $277 -27.593560818590451 $278 27.593560818590451 $186 $279 forward 7 unknown #
coedge $-1 $118 $117 $280 $281 forward $46 $-1 #
coedge $-1 $282 $283 $117 $190 reversed $267 $-1 #
edge $-1 $197 -49.490035706656087 $284 49.490035706656087 $189 $285 forward 7 unknown #
coedge $-1 $183 $286 $118 $192 reversed $114 $-1 #
edge $-1 $287 -49.490035706656087 $196 49.490035706656087 $191 $288 forward 7 unknown #
coedge $-1 $186 $119 $286 $289 forward $195 $-1 #
coedge $-1 $119 $186 $282 $290 reversed $195 $-1 #
loop $-1 $-1 $193 $266 #
vertex $-1 $120 $291 #
vertex $-1 $120 $292 #
straight-curve $-1 49.490035706656087 0 5.9080216264835057 0 1 0 I I #
face $-1 $293 $294 $28 $-1 $295 reversed single #
loop $-1 $-1 $296 $121 #
plane-surface $-1 -49.490035706656087 0 0 1 0 0 0 0 -1 forward_v I I I I #
coedge $-1 $210 $297 $204 $298 forward $122 $-1 #
coedge $-1 $127 $124 $299 $300 reversed $77 $-1 #
coedge $-1 $124 $127 $202 $298 reversed $77 $-1 #
coedge $-1 $301 $302 $124 $206 forward $303 $-1 #
edge $-1 $304 -5.9080216264835057 $305 5.9080216264835057 $205 $306 forward 7 unknown #
coedge $-1 $126 $125 $296 $307 reversed $49 $-1 #
coedge $-1 $299 $308 $125 $209 forward $294 $-1 #
edge $-1 $309 -25.862136448020422 $213 -21.393662069250908 $208 $310 forward 7 unknown #
coedge $-1 $311 $202 $126 $211 forward $122 $-1 #
edge $-1 $212 21.393662069250908 $312 25.862136448020422 $210 $313 forward 7 unknown #
vertex $-1 $211 $314 #
vertex $-1 $209 $315 #
straight-curve $-1 -45.021561327886573 -24.593560818590451 0 0 0 -1 I I #
face $-1 $-1 $316 $29 $-1 $317 reversed single #
loop $-1 $-1 $135 $129 #
plane-surface $-1 0 0 5.9080216264835057 0 0 1 1 0 0 forward_v I I I I #
coedge $-1 $318 $319 $320 $321 reversed $130 $-1 #
coedge $-1 $322 $132 $134 $225 forward $81 $-1 #
coedge $-1 $132 $322 $318 $323 forward $81 $-1 #
coedge $-1 $320 $135 $132 $222 forward $216 $-1 #
edge $-1 $228 -19.811919995406964 $324 0.86283437282626707 $221 $325 forward 7 unknown #
coedge $-1 $326 $327 $133 $224 forward $316 $-1 #
edge $-1 $328 -25.24500754118348 $227 -21.298416194155251 $223 $329 forward 7 unknown #
edge $-1 $228 -4.6537352398243357 $328 3.3516233665424181e-014 $134 $330 forward 7 unknown #
coedge $-1 $135 $320 $326 $331 forward $216 $-1 #
vertex $-1 $224 $332 #
vertex $-1 $136 $333 #
straight-curve $-1 29.286462806697312 -55.766711361228403 5.9080216264835066 0 1 0 I I #
coedge $-1 $230 $230 $-1 $334 reversed $139 $-1 #
edge $-1 $335 0 $335 6.2831853071796004 $140 $336 forward 7 unknown #
vertex $-1 $143 $337 #
ellipse-curve $-1 14.518781115102158 -26.360508870987967 3.9347259529693988 0 -0.84804810408105047 0.52991925155115449 1 0 0 1 I I #
coedge $-1 $234 $234 $-1 $338 reversed $146 $-1 #
edge $-1 $339 0 $339 6.2831853071796004 $147 $340 forward 7 unknown #
vertex $-1 $150 $341 #
ellipse-curve $-1 23.379390130059264 -26.360508870987967 3.9347259529693988 0 -0.84804810408105047 0.52991925155115449 1 0 0 1 I I #
face $-1 $-1 $250 $32 $-1 $342 forward single #
loop $-1 $-1 $343 $151 #
plane-surface $-1 0 27.593560818590451 0 0 -1 0 0 0 -1 forward_v I I I I #
coedge $-1 $344 $345 $346 $347 reversed $152 $-1 #
coedge $-1 $348 $154 $156 $248 forward $95 $-1 #
coedge $-1 $154 $348 $344 $349 forward $95 $-1 #
coedge $-1 $346 $157 $154 $245 forward $250 $-1 #
edge $-1 $252 -2.9375707886254503 $350 23.261296578678682 $244 $351 forward 7 unknown #
coedge $-1 $352 $353 $155 $247 forward $239 $-1 #
edge $-1 $354 -54.943201672080377 $251 -51.122721923039002 $246 $355 forward 7 unknown #
edge $-1 $252 48.981633955643211 $354 55.187121637180852 $156 $356 forward 7 unknown #
coedge $-1 $157 $346 $352 $357 forward $250 $-1 #
loop $-1 $-1 $346 $238 #
vertex $-1 $247 $358 #
vertex $-1 $158 $359 #
straight-curve $-1 7.2242921064011654 22.521866699568392 5.908021626483503 0 -1 0 I I #
coedge $-1 $254 $254 $-1 $360 reversed $161 $-1 #
edge $-1 $361 0 $361 6.2831853071796004 $162 $362 forward 7 unknown #
vertex $-1 $165 $363 #
ellipse-curve $-1 12.464065579861995 25.148565325093571 3.9977817519628172 0 0.61566148304635926 0.78801074757464917 1 0 0 1 I I #
coedge $-1 $258 $258 $-1 $364 reversed $168 $-1 #
edge $-1 $365 0 $365 6.2831853071796004 $169 $366 forward 7 unknown #
vertex $-1 $172 $367 #
ellipse-curve $-1 20.323725790053231 25.148565325093571 3.9977817519628172 0 0.61566148304635926 0.78801074757464917 1 0 0 1 I I #
coedge $-1 $262 $262 $-1 $368 reversed $175 $-1 #
edge $-1 $369 0 $369 6.2831853071796004 $176 $370 forward 7 unknown #
vertex $-1 $179 $371 #
ellipse-curve $-1 28.183386000244468 25.148565325093571 3.9977817519628172 0 0.61566148304635926 0.78801074757464917 1 0 0 1 I I #
face $-1 $-1 $195 $27 $-1 $372 reversed single #
loop $-1 $-1 $282 $180 #
plane-surface $-1 0 27.593560818590451 0 0 -1 0 0 0 -1 forward_v I I I I #
coedge $-1 $373 $280 $283 $374 forward $181 $-1 #
coedge $-1 $286 $183 $184 $274 reversed $114 $-1 #
coedge $-1 $280 $373 $183 $272 reversed $181 $-1 #
edge $-1 $287 -5.9080216264835057 $375 5.9080216264835057 $271 $376 forward 7 unknown #
coedge $-1 $185 $184 $373 $377 forward $73 $-1 #
edge $-1 $278 -49.490035706656087 $375 49.490035706656087 $270 $378 forward 7 unknown #
coedge $-1 $283 $282 $185 $276 reversed $267 $-1 #
edge $-1 $379 -49.490035706656087 $277 49.490035706656087 $275 $380 forward 7 unknown #
vertex $-1 $187 $381 #
vertex $-1 $289 $382 #
straight-curve $-1 49.490035706656087 0 -5.9080216264835057 0 -1 0 I I #
coedge $-1 $269 $271 $188 $281 reversed $181 $-1 #
edge $-1 $284 -27.593560818590451 $287 27.593560818590451 $280 $383 forward 7 unknown #
coedge $-1 $275 $189 $194 $290 forward $267 $-1 #
coedge $-1 $189 $275 $269 $374 reversed $267 $-1 #
vertex $-1 $190 $384 #
straight-curve $-1 0 27.593560818590451 5.9080216264835057 -1 0 0 I I #
coedge $-1 $191 $270 $193 $289 reversed $114 $-1 #
vertex $-1 $281 $385 #
straight-curve $-1 0 -27.593560818590451 5.9080216264835057 1 0 0 I I #
edge $-1 $196 -5.9080216264835057 $278 5.9080216264835057 $193 $386 forward 7 unknown #
edge $-1 $197 -5.9080216264835057 $277 5.9080216264835057 $194 $387 forward 7 unknown #
point $-1 49.490035706656087 -27.593560818590451 5.9080216264835057 #
point $-1 49.490035706656087 27.593560818590451 5.9080216264835057 #
face $-1 $-1 $303 $28 $-1 $388 reversed single #
loop $-1 $-1 $299 $199 #
plane-surface $-1 0 0 -5.9080216264835057 0 0 1 1 0 0 forward_v I I I I #
coedge $-1 $389 $390 $207 $307 forward $200 $-1 #
coedge $-1 $202 $311 $301 $391 forward $122 $-1 #
edge $-1 $305 -14.546780409295225 $212 -11.546780409295225 $202 $392 forward 7 unknown #
coedge $-1 $393 $208 $203 $300 forward $294 $-1 #
edge $-1 $213 11.546780409295225 $304 14.546780409295225 $299 $394 forward 7 unknown #
coedge $-1 $395 $205 $297 $391 reversed $303 $-1 #
coedge $-1 $205 $395 $393 $396 reversed $303 $-1 #
loop $-1 $-1 $205 $293 #
vertex $-1 $396 $397 #
vertex $-1 $206 $398 #
straight-curve $-1 -45.021561327886573 -27.593560818590451 0 0 0 1 I I #
edge $-1 $312 -5.9080216264835057 $309 5.9080216264835057 $296 $399 forward 7 unknown #
coedge $-1 $208 $393 $389 $400 forward $294 $-1 #
vertex $-1 $209 $401 #
straight-curve $-1 -23.627899258635665 -24.593560818590451 -5.9080216264835057 1 0 0 I I #
coedge $-1 $297 $210 $390 $402 forward $122 $-1 #
vertex $-1 $402 $403 #
straight-curve $-1 -23.627899258635665 -24.593560818590451 5.9080216264835057 -1 0 0 I I #
point $-1 -45.021561327886573 -24.593560818590451 5.9080216264835057 #
point $-1 -45.021561327886573 -24.593560818590451 -5.9080216264835057 #
loop $-1 $-1 $223 $215 #
plane-surface $-1 0 -27.593560818590451 0 0 1 0 0 0 1 forward_v I I I I #
coedge $-1 $319 $218 $220 $323 reversed $130 $-1 #
coedge $-1 $218 $318 $404 $405 reversed $130 $-1 #
coedge $-1 $226 $221 $218 $321 forward $216 $-1 #
edge $-1 $324 -30.639254437842915 $406 -28.173150542637952 $320 $407 forward 7 unknown #
coedge $-1 $220 $219 $327 $408 reversed $81 $-1 #
edge $-1 $409 -3.3516233665424181e-014 $324 4.6537352398243357 $318 $410 forward 7 unknown #
vertex $-1 $222 $411 #
straight-curve $-1 9.4745428112903483 -25.127456923385488 5.9080216264835057 -1 0 0 I I #
coedge $-1 $404 $223 $226 $331 reversed $316 $-1 #
coedge $-1 $223 $404 $322 $408 forward $316 $-1 #
vertex $-1 $224 $412 #
straight-curve $-1 29.286462806697312 -27.593560818590447 27.206437820638758 0 0 1 I I #
straight-curve $-1 29.286462806697312 -27.593560818590433 1.9614302794553069 0 -0.52991925155115449 -0.84804810408105047 I I #
edge $-1 $406 8.6117084384640812 $227 29.286462806697312 $326 $413 forward 7 unknown #
point $-1 29.286462806697312 -27.593560818590451 5.9080216264835057 #
point $-1 29.286462806697312 -25.127456923385488 5.9080216264835066 #
edge $-1 $414 1 $414 0 $230 $-1 forward 7 unknown #
vertex $-1 $231 $415 #
ellipse-curve $-1 14.518781115102158 -25.15165145818187 3.179348030014868 0 -0.84804810408105047 0.52991925155115449 1 0 0 1 I I #
point $-1 15.518781115102158 -26.360508870987978 3.9347259529694054 #
edge $-1 $416 1 $416 0 $234 $-1 forward 7 unknown #
vertex $-1 $235 $417 #
ellipse-curve $-1 23.379390130059264 -25.15165145818187 3.179348030014868 0 -0.84804810408105047 0.52991925155115449 1 0 0 1 I I #
point $-1 24.379390130059264 -26.360508870987978 3.9347259529694054 #
plane-surface $-1 0 0 5.9080216264835057 0 0 1 1 0 0 forward_v I I I I #
coedge $-1 $353 $352 $345 $418 forward $239 $-1 #
coedge $-1 $345 $241 $243 $349 reversed $152 $-1 #
coedge $-1 $241 $344 $343 $418 reversed $152 $-1 #
coedge $-1 $249 $244 $241 $347 forward $250 $-1 #
edge $-1 $350 0.18170313202829647 $419 5.0716941190220588 $346 $420 forward 7 unknown #
coedge $-1 $243 $242 $353 $421 reversed $95 $-1 #
edge $-1 $422 -55.187121637180852 $350 -48.981633955643211 $344 $423 forward 7 unknown #
vertex $-1 $245 $424 #
straight-curve $-1 10.161862895026616 22.703569831596688 5.9080216264835066 1 0 0 I I #
coedge $-1 $343 $246 $249 $357 reversed $239 $-1 #
coedge $-1 $246 $343 $348 $421 forward $239 $-1 #
vertex $-1 $247 $425 #
straight-curve $-1 7.2242921064011654 27.593560818590451 57.030743549522505 0 0 1 I I #
straight-curve $-1 7.2242921064011654 -15.894484159217541 36.064127029648716 0 0.78801074757464917 -0.61566148304635926 I I #
edge $-1 $419 -33.423159473705297 $251 -7.2242921064011654 $352 $426 forward 7 unknown #
point $-1 7.2242921064011654 27.593560818590451 5.9080216264835057 #
point $-1 7.2242921064011654 22.703569831596688 5.9080216264835101 #
edge $-1 $427 1 $427 0 $254 $-1 forward 7 unknown #
vertex $-1 $255 $428 #
ellipse-curve $-1 12.464065579861995 23.008114379061233 1.2581295297970838 0 0.61566148304635926 0.78801074757464917 1 0 0 1 I I #
point $-1 13.464065579861995 25.148565325093561 3.9977817519627998 #
edge $-1 $429 1 $429 0 $258 $-1 forward 7 unknown #
vertex $-1 $259 $430 #
ellipse-curve $-1 20.323725790053231 23.008114379061233 1.2581295297970838 0 0.61566148304635926 0.78801074757464917 1 0 0 1 I I #
point $-1 21.323725790053231 25.148565325093561 3.9977817519627998 #
edge $-1 $431 1 $431 0 $262 $-1 forward 7 unknown #
vertex $-1 $263 $432 #
ellipse-curve $-1 28.183386000244468 23.008114379061233 1.2581295297970838 0 0.61566148304635926 0.78801074757464917 1 0 0 1 I I #
point $-1 29.183386000244468 25.148565325093561 3.9977817519627998 #
plane-surface $-1 49.490035706656087 0 0 -1 0 0 0 0 1 forward_v I I I I #
coedge $-1 $271 $269 $273 $377 reversed $181 $-1 #
edge $-1 $284 -5.9080216264835057 $379 5.9080216264835057 $283 $433 forward 7 unknown #
vertex $-1 $377 $434 #
straight-curve $-1 -49.490035706656087 -27.593560818590451 0 0 0 -1 I I #
edge $-1 $375 -27.593560818590451 $379 27.593560818590451 $373 $435 forward 7 unknown #
straight-curve $-1 0 -27.593560818590451 -5.9080216264835057 -1 0 0 I I #
vertex $-1 $276 $436 #
straight-curve $-1 0 27.593560818590451 -5.9080216264835057 1 0 0 I I #
point $-1 49.490035706656087 27.593560818590451 -5.9080216264835057 #
point $-1 49.490035706656087 -27.593560818590451 -5.9080216264835057 #
straight-curve $-1 -49.490035706656087 0 5.9080216264835057 0 -1 0 I I #
point $-1 -49.490035706656087 27.593560818590451 5.9080216264835057 #
point $-1 -49.490035706656087 -27.593560818590451 5.9080216264835057 #
straight-curve $-1 49.490035706656087 -27.593560818590451 0 0 0 -1 I I #
straight-curve $-1 49.490035706656087 27.593560818590451 0 0 0 -1 I I #
plane-surface $-1 0 -27.593560818590451 0 0 1 0 0 0 1 forward_v I I I I #
coedge $-1 $437 $296 $308 $400 reversed $200 $-1 #
coedge $-1 $296 $437 $311 $402 reversed $200 $-1 #
edge $-1 $438 -49.490035706656087 $305 -45.021561327886573 $301 $439 forward 7 unknown #
straight-curve $-1 -45.021561327886573 -13.046780409295225 5.9080216264835057 0 1 0 I I #
coedge $-1 $308 $299 $302 $396 forward $294 $-1 #
straight-curve $-1 -45.021561327886573 -13.046780409295225 -5.9080216264835057 0 -1 0 I I #
coedge $-1 $302 $301 $437 $440 forward $303 $-1 #
edge $-1 $304 45.021561327886573 $441 49.490035706656087 $302 $442 forward 7 unknown #
point $-1 -45.021561327886573 -27.593560818590451 -5.9080216264835057 #
point $-1 -45.021561327886573 -27.593560818590451 5.9080216264835057 #
straight-curve $-1 -49.490035706656087 -24.593560818590451 0 0 0 -1 I I #
edge $-1 $441 -27.593560818590451 $309 -24.593560818590451 $389 $443 forward 7 unknown #
point $-1 -49.490035706656087 -24.593560818590451 -5.9080216264835057 #
edge $-1 $312 24.593560818590451 $438 27.593560818590451 $390 $444 forward 7 unknown #
point $-1 -49.490035706656087 -24.593560818590451 5.9080216264835057 #
coedge $-1 $327 $326 $319 $405 forward $316 $-1 #
edge $-1 $406 21.298416194155251 $409 25.24500754118348 $404 $445 forward 7 unknown #
vertex $-1 $331 $446 #
straight-curve $-1 8.6117084384640812 -55.766711361228403 5.9080216264835066 0 -1 0 I I #
edge $-1 $409 -0.86283437282626707 $328 19.811919995406964 $327 $447 forward 7 unknown #
vertex $-1 $408 $448 #
straight-curve $-1 8.6117084384640812 -27.593560818590433 1.9614302794553069 0 0.52991925155115449 0.84804810408105047 I I #
point $-1 8.6117084384640812 -25.127456923385488 5.9080216264835066 #
point $-1 29.286462806697312 -27.593560818590451 1.9614302794552785 #
straight-curve $-1 0 -27.593560818590451 5.9080216264835057 1 0 0 I I #
vertex $-1 $334 $449 #
point $-1 15.518781115102158 -25.15165145818187 3.179348030014868 #
vertex $-1 $338 $450 #
point $-1 24.379390130059264 -25.15165145818187 3.179348030014868 #
edge $-1 $419 51.122721923039002 $422 54.943201672080377 $343 $451 forward 7 unknown #
vertex $-1 $357 $452 #
straight-curve $-1 33.423159473705297 22.521866699568392 5.908021626483503 0 1 0 I I #
edge $-1 $422 -23.261296578678682 $354 2.9375707886254503 $353 $453 forward 7 unknown #
vertex $-1 $421 $454 #
straight-curve $-1 33.423159473705297 -15.894484159217541 36.064127029648716 0 -0.78801074757464917 0.61566148304635926 I I #
point $-1 33.423159473705297 22.703569831596688 5.9080216264835101 #
point $-1 7.2242921064011654 27.593560818590447 2.0875418774421277 #
straight-curve $-1 0 27.593560818590451 5.9080216264835057 -1 0 0 I I #
vertex $-1 $360 $455 #
point $-1 13.464065579861995 23.008114379061233 1.2581295297970838 #
vertex $-1 $364 $456 #
point $-1 21.323725790053231 23.008114379061233 1.2581295297970838 #
vertex $-1 $368 $457 #
point $-1 29.183386000244468 23.008114379061233 1.2581295297970838 #
straight-curve $-1 -49.490035706656087 27.593560818590451 0 0 0 -1 I I #
point $-1 -49.490035706656087 -27.593560818590451 -5.9080216264835057 #
straight-curve $-1 -49.490035706656087 0 -5.9080216264835057 0 1 0 I I #
point $-1 -49.490035706656087 27.593560818590451 -5.9080216264835057 #
coedge $-1 $390 $389 $395 $440 reversed $200 $-1 #
vertex $-1 $402 $458 #
straight-curve $-1 0 -27.593560818590451 5.9080216264835057 1 0 0 I I #
edge $-1 $438 -5.9080216264835057 $441 5.9080216264835057 $437 $459 forward 7 unknown #
vertex $-1 $400 $460 #
straight-curve $-1 0 -27.593560818590451 -5.9080216264835057 -1 0 0 I I #
straight-curve $-1 -49.490035706656087 0 -5.9080216264835057 0 1 0 I I #
straight-curve $-1 -49.490035706656087 0 5.9080216264835057 0 -1 0 I I #
straight-curve $-1 8.6117084384640812 -27.593560818590447 27.206437820638758 0 0 -1 I I #
point $-1 8.6117084384640812 -27.593560818590451 5.9080216264835057 #
straight-curve $-1 9.4745428112903483 -27.593560818590451 1.9614302794552763 1 0 0 I I #
point $-1 8.6117084384640812 -27.593560818590451 1.9614302794552785 #
point $-1 14.518781115102158 -24.303603354100819 2.6494287784637134 #
point $-1 23.379390130059264 -24.303603354100819 2.6494287784637134 #
straight-curve $-1 33.423159473705297 27.593560818590451 57.030743549522505 0 0 -1 I I #
point $-1 33.423159473705297 27.593560818590451 5.9080216264835057 #
straight-curve $-1 10.161862895026616 27.593560818590451 2.0875418774421206 -1 0 0 I I #
point $-1 33.423159473705297 27.593560818590447 2.0875418774421277 #
point $-1 12.464065579861995 22.392452896014873 0.47011878222243464 #
point $-1 20.323725790053231 22.392452896014873 0.47011878222243464 #
point $-1 28.183386000244468 22.392452896014873 0.47011878222243464 #
point $-1 -49.490035706656087 -27.593560818590451 5.9080216264835057 #
straight-curve $-1 -49.490035706656087 -27.593560818590451 0 0 0 -1 I I #
point $-1 -49.490035706656087 -27.593560818590451 -5.9080216264835057 #
End-of-ACIS-data 