500 0 17 0           
7 Unknown 11 ACIS 5.0 NT 24 Thu Mar 25 22:08:29 1999 
-1 9.9999999999999995e-007 1e-010 
body $-1 $17 $-1 $18 #
body $-1 $19 $-1 $20 #
body $-1 $21 $-1 $22 #
body $-1 $23 $-1 $24 #
body $-1 $25 $-1 $26 #
body $-1 $27 $-1 $28 #
body $-1 $29 $-1 $30 #
body $-1 $31 $-1 $32 #
body $-1 $33 $-1 $34 #
body $-1 $35 $-1 $36 #
body $-1 $37 $-1 $38 #
body $-1 $39 $-1 $40 #
body $-1 $41 $-1 $42 #
body $-1 $43 $-1 $44 #
body $-1 $45 $-1 $46 #
body $-1 $47 $-1 $48 #
body $-1 $49 $-1 $50 #
lump $-1 $-1 $51 $0 #
transform $-1 1 0 0 0 1 0 0 0 1 56.284676656392101 33.342749063912692 9.5188679500220115 1 rotate no_reflect no_shear #
lump $-1 $-1 $52 $1 #
transform $-1 1 0 0 0 1 0 0 0 1 56.284676656392101 33.342749063912692 9.5188679500220115 1 rotate no_reflect no_shear #
lump $-1 $-1 $53 $2 #
transform $-1 1 0 0 0 1 0 0 0 1 56.284676656392101 33.342749063912692 9.5188679500220115 1 rotate no_reflect no_shear #
lump $-1 $-1 $54 $3 #
transform $-1 1 0 0 0 1 0 0 0 1 56.284676656392101 33.342749063912692 9.5188679500220115 1 rotate no_reflect no_shear #
lump $-1 $-1 $55 $4 #
transform $-1 1 0 0 0 1 0 0 0 1 56.284676656392101 33.342749063912692 9.5188679500220115 1 rotate no_reflect no_shear #
lump $-1 $-1 $56 $5 #
transform $-1 1 0 0 0 1 0 0 0 1 56.284676656392101 33.342749063912692 9.5188679500220115 1 rotate no_reflect no_shear #
lump $-1 $-1 $57 $6 #
transform $-1 1 0 0 0 1 0 0 0 1 56.284676656392101 33.342749063912692 9.5188679500220115 1 rotate no_reflect no_shear #
lump $-1 $-1 $58 $7 #
transform $-1 1 0 0 0 1 0 0 0 1 56.284676656392101 33.342749063912692 9.5188679500220115 1 rotate no_reflect no_shear #
lump $-1 $-1 $59 $8 #
transform $-1 1 0 0 0 1 0 0 0 1 56.284676656392101 33.342749063912692 9.5188679500220115 1 rotate no_reflect no_shear #
lump $-1 $-1 $60 $9 #
transform $-1 1 0 0 0 1 0 0 0 1 56.284676656392101 33.342749063912692 9.5188679500220115 1 rotate no_reflect no_shear #
lump $-1 $-1 $61 $10 #
transform $-1 1 0 0 0 1 0 0 0 1 56.284676656392101 33.342749063912692 9.5188679500220115 1 rotate no_reflect no_shear #
lump $-1 $-1 $62 $11 #
transform $-1 1 0 0 0 1 0 0 0 1 56.284676656392101 33.342749063912692 9.5188679500220115 1 rotate no_reflect no_shear #
lump $-1 $-1 $63 $12 #
transform $-1 1 0 0 0 1 0 0 0 1 56.284676656392101 33.342749063912692 9.5188679500220115 1 rotate no_reflect no_shear #
lump $-1 $-1 $64 $13 #
transform $-1 1 0 0 0 1 0 0 0 1 56.284676656392101 33.342749063912692 9.5188679500220115 1 rotate no_reflect no_shear #
lump $-1 $-1 $65 $14 #
transform $-1 1 0 0 0 1 0 0 0 1 56.284676656392101 33.342749063912692 9.5188679500220115 1 rotate no_reflect no_shear #
lump $-1 $-1 $66 $15 #
transform $-1 1 0 0 0 1 0 0 0 1 56.284676656392101 33.342749063912692 9.5188679500220115 1 rotate no_reflect no_shear #
lump $-1 $-1 $67 $16 #
transform $-1 1 0 0 0 1 0 0 0 1 56.284676656392101 33.342749063912692 9.5188679500220115 1 rotate no_reflect no_shear #
shell $-1 $-1 $-1 $68 $-1 $17 #
shell $-1 $-1 $-1 $69 $-1 $19 #
shell $-1 $-1 $-1 $70 $-1 $21 #
shell $-1 $-1 $-1 $71 $-1 $23 #
shell $-1 $-1 $-1 $72 $-1 $25 #
shell $-1 $-1 $-1 $73 $-1 $27 #
shell $-1 $-1 $-1 $74 $-1 $29 #
shell $-1 $-1 $-1 $75 $-1 $31 #
shell $-1 $-1 $-1 $76 $-1 $33 #
shell $-1 $-1 $-1 $77 $-1 $35 #
shell $-1 $-1 $-1 $78 $-1 $37 #
shell $-1 $-1 $-1 $79 $-1 $39 #
shell $-1 $-1 $-1 $80 $-1 $41 #
shell $-1 $-1 $-1 $81 $-1 $43 #
shell $-1 $-1 $-1 $82 $-1 $45 #
shell $-1 $-1 $-1 $83 $-1 $47 #
shell $-1 $-1 $-1 $84 $-1 $49 #
face $-1 $85 $86 $51 $-1 $87 forward single #
face $-1 $88 $89 $52 $-1 $90 reversed single #
face $-1 $91 $92 $53 $-1 $93 reversed single #
face $-1 $94 $95 $54 $-1 $96 reversed single #
face $-1 $97 $98 $55 $-1 $99 forward single #
face $-1 $100 $101 $56 $-1 $102 forward single #
face $-1 $103 $104 $57 $-1 $105 reversed single #
face $-1 $106 $107 $58 $-1 $108 forward single #
face $-1 $109 $110 $59 $-1 $111 forward single #
face $-1 $112 $113 $60 $-1 $114 reversed single #
face $-1 $115 $116 $61 $-1 $117 forward single #
face $-1 $118 $119 $62 $-1 $120 forward single #
face $-1 $121 $122 $63 $-1 $123 forward single #
face $-1 $124 $125 $64 $-1 $126 reversed single #
face $-1 $127 $128 $65 $-1 $129 forward single #
face $-1 $130 $131 $66 $-1 $132 forward single #
face $-1 $133 $134 $67 $-1 $135 forward single #
face $-1 $136 $137 $51 $-1 $138 reversed single #
loop $-1 $-1 $139 $68 #
plane-surface $-1 0 0 9.5188679500220115 0 0 1 1 0 0 forward_v I I I I #
face $-1 $140 $141 $52 $-1 $142 reversed single #
loop $-1 $-1 $143 $69 #
plane-surface $-1 -51.754166705876955 0 4.0143843631630656 0 0 1 1 0 0 forward_v I I I I #
face $-1 $144 $145 $53 $-1 $146 reversed single #
loop $-1 $-1 $147 $70 #
plane-surface $-1 51.754166705876962 0 4.0143843631630656 0 0 1 1 0 0 forward_v I I I I #
face $-1 $148 $149 $54 $-1 $150 reversed single #
loop $-1 $-1 $151 $71 #
plane-surface $-1 -40.871731196611186 -33.342749063912706 6.4255622135017347 0 -0.69465837861970381 0.71933979245794832 1 0 0 forward_v I I I I #
face $-1 $152 $153 $55 $-1 $154 forward single #
loop $-1 $155 $156 $72 #
cone-surface $-1 -43.593985007504308 -31.099728436726945 7.3080106965355274 0 0.69465837861970381 -0.71933979245794832 1 0 0 1 I I 0 1 1 forward I I I I #
face $-1 $157 $158 $56 $-1 $159 forward single #
loop $-1 $160 $161 $73 #
cone-surface $-1 -38.149477385718058 -31.099728436726945 7.3080106965355274 0 0.69465837861970381 -0.71933979245794832 1 0 0 1 I I 0 1 1 forward I I I I #
face $-1 $162 $163 $57 $-1 $164 reversed single #
loop $-1 $-1 $165 $74 #
plane-surface $-1 0 -111.53999351843996 87.401177462645364 1 0 0 0 0.69465837861970381 -0.71933979245794832 forward_v I I I I #
face $-1 $166 $167 $58 $-1 $168 forward single #
loop $-1 $169 $170 $75 #
cone-surface $-1 3.6296717478575005 -31.099728436726945 7.3080106965355274 0 0.69465837861970381 -0.71933979245794832 1 0 0 1 I I 0 1 1 forward I I I I #
face $-1 $171 $172 $59 $-1 $173 forward single #
loop $-1 $174 $175 $76 #
cone-surface $-1 9.0741793696437512 -31.099728436726945 7.3080106965355274 0 0.69465837861970381 -0.71933979245794832 1 0 0 1 I I 0 1 1 forward I I I I #
face $-1 $176 $177 $60 $-1 $178 reversed single #
loop $-1 $-1 $179 $77 #
plane-surface $-1 -24.584203059917378 76.711266283710188 128.32835729221438 -1 0 0 0 0.7660444514056185 0.64278759981090561 forward_v I I I I #
face $-1 $180 $181 $61 $-1 $182 forward single #
loop $-1 $183 $184 $78 #
cone-surface $-1 -42.695766016272927 29.918534244205937 5.9601676955513589 0 -0.7660444514056185 -0.64278759981090561 1.5 0 0 1 I I 0 1 1.5 forward I I I I #
face $-1 $185 $186 $62 $-1 $187 forward single #
loop $-1 $188 $189 $79 #
cone-surface $-1 -35.903929907639593 29.918534244205937 5.9601676955513589 0 -0.7660444514056185 -0.64278759981090561 1.5 0 0 1 I I 0 1 1.5 forward I I I I #
face $-1 $190 $191 $63 $-1 $192 forward single #
loop $-1 $193 $194 $80 #
cone-surface $-1 -29.112093799006267 29.918534244205937 5.9601676955513589 0 -0.7660444514056185 -0.64278759981090561 1.5 0 0 1 I I 0 1 1.5 forward I I I I #
face $-1 $195 $196 $64 $-1 $197 reversed single #
loop $-1 $-1 $198 $81 #
plane-surface $-1 35.903929907639586 -9.5218622198668328 55.970172864024008 0 0.7660444514056185 0.64278759981090561 1 0 0 forward_v I I I I #
face $-1 $199 $200 $65 $-1 $201 forward single #
loop $-1 $202 $203 $82 #
cone-surface $-1 29.112093799006267 29.918534244205937 5.9601676955513589 0 -0.7660444514056185 -0.64278759981090561 1.5 0 0 1 I I 0 1 1.5 forward I I I I #
face $-1 $204 $205 $66 $-1 $206 forward single #
loop $-1 $207 $208 $83 #
cone-surface $-1 35.903929907639586 29.918534244205937 5.9601676955513589 0 -0.7660444514056185 -0.64278759981090561 1.5 0 0 1 I I 0 1 1.5 forward I I I I #
face $-1 $209 $210 $67 $-1 $211 forward single #
loop $-1 $212 $213 $84 #
cone-surface $-1 42.69576601627292 29.918534244205937 5.9601676955513589 0 -0.7660444514056185 -0.64278759981090561 1.5 0 0 1 I I 0 1 1.5 forward I I I I #
face $-1 $214 $215 $51 $-1 $216 reversed single #
loop $-1 $-1 $217 $85 #
plane-surface $-1 0 0 -9.5188679500220115 0 0 1 1 0 0 forward_v I I I I #
coedge $-1 $218 $219 $220 $221 forward $86 $-1 #
face $-1 $222 $223 $52 $-1 $224 reversed single #
loop $-1 $-1 $225 $88 #
plane-surface $-1 -47.223656755361809 0 6.7666261565925385 -1 0 0 0 0 1 forward_v I I I I #
coedge $-1 $226 $227 $228 $229 forward $89 $-1 #
face $-1 $230 $231 $53 $-1 $232 forward single #
loop $-1 $-1 $233 $91 #
plane-surface $-1 47.223656755361816 0 6.7666261565925385 1 0 0 0 0 -1 forward_v I I I I #
coedge $-1 $234 $235 $236 $237 reversed $92 $-1 #
face $-1 $238 $239 $54 $-1 $240 forward single #
loop $-1 $-1 $241 $94 #
plane-surface $-1 -34.519805637860564 -111.53999351843996 87.401177462645364 -1 0 0 0 -0.69465837861970381 0.71933979245794832 forward_v I I I I #
coedge $-1 $242 $243 $244 $245 reversed $95 $-1 #
face $-1 $-1 $246 $55 $-1 $247 forward single #
loop $-1 $248 $249 $97 #
cone-surface $-1 -43.593985007504308 -30.110984513864175 6.2841364150802139 0 0.69465837861970381 -0.71933979245794832 0.5 0 0 1 I I -0.70710678118654746 0.70710678118654746 0.5 forward I I I I #
loop $-1 $-1 $250 $72 #
coedge $-1 $156 $156 $251 $252 reversed $98 $-1 #
face $-1 $-1 $253 $56 $-1 $254 forward single #
loop $-1 $255 $256 $100 #
cone-surface $-1 -38.149477385718058 -30.110984513864175 6.2841364150802139 0 0.69465837861970381 -0.71933979245794832 0.5 0 0 1 I I -0.70710678118654746 0.70710678118654746 0.5 forward I I I I #
loop $-1 $-1 $257 $73 #
coedge $-1 $161 $161 $258 $259 reversed $101 $-1 #
face $-1 $260 $261 $57 $-1 $262 reversed single #
loop $-1 $-1 $263 $103 #
plane-surface $-1 6.3519255587506223 -33.342749063912706 6.4255622135017347 0 -0.69465837861970381 0.71933979245794832 1 0 0 forward_v I I I I #
coedge $-1 $264 $265 $266 $267 reversed $104 $-1 #
face $-1 $-1 $268 $58 $-1 $269 forward single #
loop $-1 $270 $271 $106 #
cone-surface $-1 3.6296717478575005 -30.110984513864175 6.2841364150802139 0 0.69465837861970381 -0.71933979245794832 0.5 0 0 1 I I -0.70710678118654746 0.70710678118654746 0.5 forward I I I I #
loop $-1 $-1 $272 $75 #
coedge $-1 $170 $170 $273 $274 reversed $107 $-1 #
face $-1 $-1 $275 $59 $-1 $276 forward single #
loop $-1 $277 $278 $109 #
cone-surface $-1 9.0741793696437512 -30.110984513864175 6.2841364150802139 0 0.69465837861970381 -0.71933979245794832 0.5 0 0 1 I I -0.70710678118654746 0.70710678118654746 0.5 forward I I I I #
loop $-1 $-1 $279 $76 #
coedge $-1 $175 $175 $280 $281 reversed $110 $-1 #
face $-1 $282 $283 $60 $-1 $284 forward single #
loop $-1 $-1 $285 $112 #
plane-surface $-1 -35.903929907639593 -9.5218622198668328 55.970172864024008 0 0.7660444514056185 0.64278759981090561 1 0 0 forward_v I I I I #
coedge $-1 $286 $287 $288 $289 reversed $113 $-1 #
face $-1 $-1 $290 $61 $-1 $291 forward single #
loop $-1 $292 $293 $115 #
cone-surface $-1 -42.695766016272927 27.863455827549387 4.2357521992417251 0 -0.7660444514056185 -0.64278759981090561 0.75 0 0 1 I I -0.70710678118654757 0.70710678118654757 0.75 forward I I I I #
loop $-1 $-1 $294 $78 #
coedge $-1 $184 $184 $295 $296 reversed $116 $-1 #
face $-1 $-1 $297 $62 $-1 $298 forward single #
loop $-1 $299 $300 $118 #
cone-surface $-1 -35.903929907639593 27.863455827549387 4.2357521992417251 0 -0.7660444514056185 -0.64278759981090561 0.75 0 0 1 I I -0.70710678118654757 0.70710678118654757 0.75 forward I I I I #
loop $-1 $-1 $301 $79 #
coedge $-1 $189 $189 $302 $303 reversed $119 $-1 #
face $-1 $-1 $304 $63 $-1 $305 forward single #
loop $-1 $306 $307 $121 #
cone-surface $-1 -29.112093799006267 27.863455827549387 4.2357521992417251 0 -0.7660444514056185 -0.64278759981090561 0.75 0 0 1 I I -0.70710678118654757 0.70710678118654757 0.75 forward I I I I #
loop $-1 $-1 $308 $80 #
coedge $-1 $194 $194 $309 $310 reversed $122 $-1 #
face $-1 $311 $312 $64 $-1 $313 forward single #
loop $-1 $-1 $314 $124 #
plane-surface $-1 24.584203059917371 76.711266283710188 128.32835729221438 1 0 0 0 -0.7660444514056185 -0.64278759981090561 forward_v I I I I #
coedge $-1 $315 $316 $317 $318 reversed $125 $-1 #
face $-1 $-1 $319 $65 $-1 $320 forward single #
loop $-1 $321 $322 $127 #
cone-surface $-1 29.112093799006267 27.863455827549387 4.2357521992417251 0 -0.7660444514056185 -0.64278759981090561 0.75 0 0 1 I I -0.70710678118654757 0.70710678118654757 0.75 forward I I I I #
loop $-1 $-1 $323 $82 #
coedge $-1 $203 $203 $324 $325 reversed $128 $-1 #
face $-1 $-1 $326 $66 $-1 $327 forward single #
loop $-1 $328 $329 $130 #
cone-surface $-1 35.903929907639586 27.863455827549387 4.2357521992417251 0 -0.7660444514056185 -0.64278759981090561 0.75 0 0 1 I I -0.70710678118654757 0.70710678118654757 0.75 forward I I I I #
loop $-1 $-1 $330 $83 #
coedge $-1 $208 $208 $331 $332 reversed $131 $-1 #
face $-1 $-1 $333 $67 $-1 $334 forward single #
loop $-1 $335 $336 $133 #
cone-surface $-1 42.69576601627292 27.863455827549387 4.2357521992417251 0 -0.7660444514056185 -0.64278759981090561 0.75 0 0 1 I I -0.70710678118654757 0.70710678118654757 0.75 forward I I I I #
loop $-1 $-1 $337 $84 #
coedge $-1 $213 $213 $338 $339 reversed $134 $-1 #
face $-1 $340 $341 $51 $-1 $342 reversed single #
loop $-1 $-1 $343 $136 #
plane-surface $-1 0 -33.342749063912692 0 0 1 0 0 0 1 forward_v I I I I #
coedge $-1 $344 $345 $346 $347 forward $137 $-1 #
coedge $-1 $348 $139 $349 $350 forward $86 $-1 #
coedge $-1 $139 $348 $351 $352 forward $86 $-1 #
coedge $-1 $353 $354 $139 $221 reversed $355 $-1 #
edge $-1 $356 -33.342749063912692 $357 33.342749063912692 $220 $358 forward 7 unknown #
face $-1 $359 $360 $52 $-1 $361 reversed single #
loop $-1 $-1 $362 $140 #
plane-surface $-1 0 33.342749063912692 0 0 -1 0 0 0 -1 forward_v I I I I #
coedge $-1 $228 $363 $364 $365 reversed $141 $-1 #
coedge $-1 $366 $143 $367 $368 reversed $89 $-1 #
coedge $-1 $143 $366 $369 $370 reversed $89 $-1 #
coedge $-1 $371 $225 $143 $229 reversed $141 $-1 #
edge $-1 $372 -33.342749063912692 $373 33.342749063912692 $228 $374 forward 7 unknown #
face $-1 $375 $376 $53 $-1 $377 reversed single #
loop $-1 $-1 $378 $144 #
plane-surface $-1 0 0 9.5188679500220115 0 0 1 1 0 0 forward_v I I I I #
coedge $-1 $379 $380 $381 $382 reversed $145 $-1 #
coedge $-1 $383 $147 $384 $385 reversed $92 $-1 #
coedge $-1 $147 $383 $386 $387 reversed $92 $-1 #
coedge $-1 $388 $389 $147 $237 forward $390 $-1 #
edge $-1 $391 -33.342749063912692 $392 33.342749063912692 $236 $393 forward 7 unknown #
face $-1 $394 $395 $54 $-1 $396 forward single #
loop $-1 $-1 $397 $148 #
plane-surface $-1 0 0 9.5188679500220115 0 0 1 1 0 0 forward_v I I I I #
coedge $-1 $398 $399 $400 $401 reversed $149 $-1 #
coedge $-1 $402 $151 $403 $404 reversed $95 $-1 #
coedge $-1 $151 $402 $398 $405 forward $95 $-1 #
coedge $-1 $400 $406 $151 $245 forward $407 $-1 #
edge $-1 $408 -26.787791157056215 $409 -14.083940039554971 $244 $410 forward 7 unknown #
loop $-1 $-1 $251 $152 #
plane-surface $-1 -40.871731196611186 -33.342749063912706 6.4255622135017347 0 -0.69465837861970381 0.71933979245794832 1 0 0 forward_v I I I I #
loop $-1 $-1 $411 $97 #
coedge $-1 $249 $249 $250 $412 reversed $153 $-1 #
coedge $-1 $250 $250 $249 $412 forward $155 $-1 #
coedge $-1 $251 $251 $156 $252 forward $246 $-1 #
edge $-1 $413 9.6772456717496864e-016 $413 6.2831853071796013 $251 $414 forward 7 unknown #
loop $-1 $-1 $258 $157 #
plane-surface $-1 -40.871731196611186 -33.342749063912706 6.4255622135017347 0 -0.69465837861970381 0.71933979245794832 1 0 0 forward_v I I I I #
loop $-1 $-1 $415 $100 #
coedge $-1 $256 $256 $257 $416 reversed $158 $-1 #
coedge $-1 $257 $257 $256 $416 forward $160 $-1 #
coedge $-1 $258 $258 $161 $259 forward $253 $-1 #
edge $-1 $417 9.6772456717496864e-016 $417 6.2831853071796013 $258 $418 forward 7 unknown #
face $-1 $419 $420 $57 $-1 $421 reversed single #
loop $-1 $-1 $422 $162 #
plane-surface $-1 12.703851117501245 -111.53999351843996 87.401177462645364 -1 0 0 0 -0.69465837861970381 0.71933979245794832 forward_v I I I I #
coedge $-1 $423 $424 $425 $426 reversed $163 $-1 #
coedge $-1 $265 $165 $427 $428 reversed $104 $-1 #
coedge $-1 $165 $264 $423 $429 reversed $104 $-1 #
coedge $-1 $425 $430 $165 $267 forward $420 $-1 #
edge $-1 $431 34.181720781300669 $432 37.275026517820933 $266 $433 forward 7 unknown #
loop $-1 $-1 $273 $166 #
plane-surface $-1 6.3519255587506223 -33.342749063912706 6.4255622135017347 0 -0.69465837861970381 0.71933979245794832 1 0 0 forward_v I I I I #
loop $-1 $-1 $434 $106 #
coedge $-1 $271 $271 $272 $435 reversed $167 $-1 #
coedge $-1 $272 $272 $271 $435 forward $169 $-1 #
coedge $-1 $273 $273 $170 $274 forward $268 $-1 #
edge $-1 $436 9.6772456717496864e-016 $436 6.2831853071796013 $273 $437 forward 7 unknown #
loop $-1 $-1 $280 $171 #
plane-surface $-1 6.3519255587506223 -33.342749063912706 6.4255622135017347 0 -0.69465837861970381 0.71933979245794832 1 0 0 forward_v I I I I #
loop $-1 $-1 $438 $109 #
coedge $-1 $278 $278 $279 $439 reversed $172 $-1 #
coedge $-1 $279 $279 $278 $439 forward $174 $-1 #
coedge $-1 $280 $280 $175 $281 forward $275 $-1 #
edge $-1 $440 9.6772456717496864e-016 $440 6.2831853071796013 $280 $441 forward 7 unknown #
face $-1 $442 $443 $60 $-1 $444 reversed single #
loop $-1 $-1 $445 $176 #
plane-surface $-1 0 0 9.5188679500220115 0 0 1 1 0 0 forward_v I I I I #
coedge $-1 $446 $447 $448 $449 reversed $177 $-1 #
coedge $-1 $287 $179 $450 $451 reversed $113 $-1 #
coedge $-1 $179 $286 $446 $452 reversed $113 $-1 #
coedge $-1 $448 $453 $179 $289 forward $443 $-1 #
edge $-1 $454 54.645310696085176 $455 59.278061612123587 $288 $456 forward 7 unknown #
loop $-1 $-1 $295 $180 #
plane-surface $-1 -35.903929907639593 -9.5218622198668328 55.970172864024008 0 0.7660444514056185 0.64278759981090561 1 0 0 forward_v I I I I #
loop $-1 $-1 $457 $115 #
coedge $-1 $293 $293 $294 $458 reversed $181 $-1 #
coedge $-1 $294 $294 $293 $458 forward $183 $-1 #
coedge $-1 $295 $295 $184 $296 forward $290 $-1 #
edge $-1 $459 1.0688374320947033e-015 $459 6.2831853071796013 $295 $460 forward 7 unknown #
loop $-1 $-1 $302 $185 #
plane-surface $-1 -35.903929907639593 -9.5218622198668328 55.970172864024008 0 0.7660444514056185 0.64278759981090561 1 0 0 forward_v I I I I #
loop $-1 $-1 $461 $118 #
coedge $-1 $300 $300 $301 $462 reversed $186 $-1 #
coedge $-1 $301 $301 $300 $462 forward $188 $-1 #
coedge $-1 $302 $302 $189 $303 forward $297 $-1 #
edge $-1 $463 1.0688374320947033e-015 $463 6.2831853071796013 $302 $464 forward 7 unknown #
loop $-1 $-1 $309 $190 #
plane-surface $-1 -35.903929907639593 -9.5218622198668328 55.970172864024008 0 0.7660444514056185 0.64278759981090561 1 0 0 forward_v I I I I #
loop $-1 $-1 $465 $121 #
coedge $-1 $307 $307 $308 $466 reversed $191 $-1 #
coedge $-1 $308 $308 $307 $466 forward $193 $-1 #
coedge $-1 $309 $309 $194 $310 forward $304 $-1 #
edge $-1 $467 1.0688374320947033e-015 $467 6.2831853071796013 $309 $468 forward 7 unknown #
face $-1 $469 $470 $64 $-1 $471 forward single #
loop $-1 $-1 $472 $195 #
plane-surface $-1 0 0 9.5188679500220115 0 0 1 1 0 0 forward_v I I I I #
coedge $-1 $473 $474 $475 $476 reversed $196 $-1 #
coedge $-1 $477 $198 $478 $479 reversed $125 $-1 #
coedge $-1 $198 $477 $473 $480 forward $125 $-1 #
coedge $-1 $475 $481 $198 $318 forward $482 $-1 #
edge $-1 $483 -29.271691801542023 $484 -6.6322381060975779 $317 $485 forward 7 unknown #
loop $-1 $-1 $324 $199 #
plane-surface $-1 35.903929907639586 -9.5218622198668328 55.970172864024008 0 0.7660444514056185 0.64278759981090561 1 0 0 forward_v I I I I #
loop $-1 $-1 $486 $127 #
coedge $-1 $322 $322 $323 $487 reversed $200 $-1 #
coedge $-1 $323 $323 $322 $487 forward $202 $-1 #
coedge $-1 $324 $324 $203 $325 forward $319 $-1 #
edge $-1 $488 1.0688374320947033e-015 $488 6.2831853071796013 $324 $489 forward 7 unknown #
loop $-1 $-1 $331 $204 #
plane-surface $-1 35.903929907639586 -9.5218622198668328 55.970172864024008 0 0.7660444514056185 0.64278759981090561 1 0 0 forward_v I I I I #
loop $-1 $-1 $490 $130 #
coedge $-1 $329 $329 $330 $491 reversed $205 $-1 #
coedge $-1 $330 $330 $329 $491 forward $207 $-1 #
coedge $-1 $331 $331 $208 $332 forward $326 $-1 #
edge $-1 $492 1.0688374320947033e-015 $492 6.2831853071796013 $331 $493 forward 7 unknown #
loop $-1 $-1 $338 $209 #
plane-surface $-1 35.903929907639586 -9.5218622198668328 55.970172864024008 0 0.7660444514056185 0.64278759981090561 1 0 0 forward_v I I I I #
loop $-1 $-1 $494 $133 #
coedge $-1 $336 $336 $337 $495 reversed $210 $-1 #
coedge $-1 $337 $337 $336 $495 forward $212 $-1 #
coedge $-1 $338 $338 $213 $339 forward $333 $-1 #
edge $-1 $496 1.0688374320947033e-015 $496 6.2831853071796013 $338 $497 forward 7 unknown #
face $-1 $498 $499 $51 $-1 $500 reversed single #
loop $-1 $-1 $501 $214 #
plane-surface $-1 -56.284676656392101 0 0 1 0 0 0 0 -1 forward_v I I I I #
coedge $-1 $502 $351 $503 $504 forward $215 $-1 #
coedge $-1 $505 $217 $502 $506 forward $137 $-1 #
coedge $-1 $217 $505 $507 $508 forward $137 $-1 #
coedge $-1 $354 $353 $217 $347 reversed $355 $-1 #
edge $-1 $509 -33.342749063912692 $510 33.342749063912692 $346 $511 forward 7 unknown #
coedge $-1 $219 $218 $512 $513 forward $86 $-1 #
coedge $-1 $514 $515 $218 $350 reversed $499 $-1 #
edge $-1 $357 -56.284676656392101 $516 56.284676656392101 $349 $517 forward 7 unknown #
coedge $-1 $343 $518 $219 $352 reversed $215 $-1 #
edge $-1 $519 -56.284676656392101 $356 56.284676656392101 $351 $520 forward 7 unknown #
coedge $-1 $346 $220 $518 $521 forward $355 $-1 #
coedge $-1 $220 $346 $514 $522 reversed $355 $-1 #
loop $-1 $-1 $353 $498 #
vertex $-1 $221 $523 #
vertex $-1 $221 $524 #
straight-curve $-1 56.284676656392101 0 9.5188679500220115 0 1 0 I I #
face $-1 $525 $526 $52 $-1 $527 forward single #
loop $-1 $-1 $528 $222 #
plane-surface $-1 -56.284676656392101 0 0 1 0 0 0 0 -1 forward_v I I I I #
coedge $-1 $369 $529 $371 $530 forward $223 $-1 #
coedge $-1 $225 $371 $531 $532 reversed $141 $-1 #
coedge $-1 $533 $367 $225 $365 forward $534 $-1 #
edge $-1 $373 0.63107128486679631 $535 6.1355548717257422 $364 $536 forward 7 unknown #
coedge $-1 $227 $226 $528 $537 reversed $89 $-1 #
coedge $-1 $364 $538 $226 $368 forward $534 $-1 #
edge $-1 $539 -30.407593303453623 $373 -21.346573402423331 $367 $540 forward 7 unknown #
coedge $-1 $541 $362 $227 $370 forward $223 $-1 #
edge $-1 $372 21.346573402423331 $542 30.407593303453623 $369 $543 forward 7 unknown #
coedge $-1 $363 $228 $362 $530 reversed $141 $-1 #
vertex $-1 $370 $544 #
vertex $-1 $368 $545 #
straight-curve $-1 -47.223656755361809 0 4.0143843631630656 0 -1 0 I I #
face $-1 $546 $547 $53 $-1 $548 reversed single #
loop $-1 $-1 $549 $230 #
plane-surface $-1 0 -33.342749063912692 0 0 1 0 0 0 1 forward_v I I I I #
coedge $-1 $550 $551 $380 $552 forward $231 $-1 #
coedge $-1 $553 $233 $383 $554 reversed $145 $-1 #
coedge $-1 $233 $553 $378 $552 reversed $145 $-1 #
coedge $-1 $555 $386 $233 $382 forward $547 $-1 #
edge $-1 $556 0.63107128486679631 $557 6.1355548717257422 $381 $558 forward 7 unknown #
coedge $-1 $235 $234 $379 $554 forward $92 $-1 #
coedge $-1 $559 $549 $234 $385 forward $376 $-1 #
edge $-1 $560 21.346573402423335 $391 30.407593303453627 $384 $561 forward 7 unknown #
coedge $-1 $381 $562 $235 $387 forward $547 $-1 #
edge $-1 $392 -30.407593303453627 $556 -21.346573402423335 $386 $563 forward 7 unknown #
coedge $-1 $564 $236 $562 $565 reversed $390 $-1 #
coedge $-1 $236 $564 $559 $566 forward $390 $-1 #
loop $-1 $-1 $236 $546 #
vertex $-1 $385 $567 #
vertex $-1 $237 $568 #
straight-curve $-1 56.284676656392101 0 4.0143843631630656 0 1 0 I I #
face $-1 $-1 $407 $54 $-1 $569 reversed single #
loop $-1 $-1 $403 $238 #
plane-surface $-1 -47.223656755361809 0 6.7666261565925385 -1 0 0 0 0 1 forward_v I I I I #
coedge $-1 $570 $571 $399 $572 forward $239 $-1 #
coedge $-1 $399 $241 $243 $405 reversed $149 $-1 #
coedge $-1 $241 $398 $397 $572 reversed $149 $-1 #
coedge $-1 $573 $244 $241 $401 forward $407 $-1 #
edge $-1 $409 -37.275026517820933 $574 -34.181720781300669 $400 $575 forward 7 unknown #
coedge $-1 $243 $242 $570 $576 reversed $95 $-1 #
coedge $-1 $577 $578 $242 $404 forward $395 $-1 #
edge $-1 $579 7.6578561089060324 $408 12.110844558662738 $403 $580 forward 7 unknown #
edge $-1 $581 -4.4529884497567265 $409 -1.9477141995791963e-014 $398 $582 forward 7 unknown #
coedge $-1 $244 $573 $577 $583 forward $407 $-1 #
loop $-1 $-1 $400 $394 #
vertex $-1 $404 $584 #
vertex $-1 $245 $585 #
straight-curve $-1 -20.435865598305593 -33.342749063912692 6.4255622135017472 1 0 0 I I #
coedge $-1 $411 $411 $-1 $586 reversed $248 $-1 #
edge $-1 $587 0 $587 6.2831853071796004 $249 $588 forward 7 unknown #
vertex $-1 $252 $589 #
ellipse-curve $-1 -43.593985007504308 -31.741143170279877 7.9722150817618802 0 -0.69465837861970381 0.71933979245794832 1 0 0 1 I I #
coedge $-1 $415 $415 $-1 $590 reversed $255 $-1 #
edge $-1 $591 0 $591 6.2831853071796004 $256 $592 forward 7 unknown #
vertex $-1 $259 $593 #
ellipse-curve $-1 -38.149477385718058 -31.741143170279877 7.9722150817618802 0 -0.69465837861970381 0.71933979245794832 1 0 0 1 I I #
face $-1 $-1 $594 $57 $-1 $595 forward single #
loop $-1 $-1 $266 $260 #
plane-surface $-1 0 -33.342749063912692 0 0 1 0 0 0 1 forward_v I I I I #
coedge $-1 $596 $597 $598 $599 reversed $261 $-1 #
coedge $-1 $600 $263 $265 $429 forward $163 $-1 #
coedge $-1 $263 $600 $596 $601 forward $163 $-1 #
coedge $-1 $598 $266 $263 $426 forward $420 $-1 #
edge $-1 $432 -3.1759627793753111 $602 9.5278883381259334 $425 $603 forward 7 unknown #
coedge $-1 $604 $605 $264 $428 forward $594 $-1 #
edge $-1 $606 -25.630459482572917 $431 -22.427247695307287 $427 $607 forward 7 unknown #
edge $-1 $432 1.9477141995791963e-014 $606 4.4529884497567265 $265 $608 forward 7 unknown #
coedge $-1 $266 $598 $604 $609 reversed $420 $-1 #
vertex $-1 $609 $610 #
vertex $-1 $267 $611 #
straight-curve $-1 0 -33.342749063912692 43.700588731322682 0 0 -1 I I #
coedge $-1 $434 $434 $-1 $612 reversed $270 $-1 #
edge $-1 $613 0 $613 6.2831853071796004 $271 $614 forward 7 unknown #
vertex $-1 $274 $615 #
ellipse-curve $-1 3.6296717478575005 -31.741143170279877 7.9722150817618802 0 -0.69465837861970381 0.71933979245794832 1 0 0 1 I I #
coedge $-1 $438 $438 $-1 $616 reversed $277 $-1 #
edge $-1 $617 0 $617 6.2831853071796004 $278 $618 forward 7 unknown #
vertex $-1 $281 $619 #
ellipse-curve $-1 9.0741793696437512 -31.741143170279877 7.9722150817618802 0 -0.69465837861970381 0.71933979245794832 1 0 0 1 I I #
face $-1 $-1 $620 $60 $-1 $621 forward single #
loop $-1 $-1 $288 $282 #
plane-surface $-1 0 33.342749063912692 0 0 -1 0 0 0 -1 forward_v I I I I #
coedge $-1 $450 $622 $623 $624 forward $283 $-1 #
coedge $-1 $623 $285 $287 $452 forward $177 $-1 #
coedge $-1 $285 $623 $625 $626 reversed $177 $-1 #
coedge $-1 $627 $288 $285 $449 forward $443 $-1 #
edge $-1 $455 6.6322381060975815 $628 29.271691801542012 $448 $629 forward 7 unknown #
coedge $-1 $630 $445 $286 $451 forward $283 $-1 #
edge $-1 $631 -8.9002235611512219 $454 -5.0128840779424024 $450 $632 forward 7 unknown #
edge $-1 $455 -66.685498127825412 $631 -60.637871377787924 $287 $633 forward 7 unknown #
coedge $-1 $288 $627 $630 $634 reversed $443 $-1 #
vertex $-1 $634 $635 #
vertex $-1 $289 $636 #
straight-curve $-1 -24.584203059917378 33.342749063912692 64.164178646107189 0 0 -1 I I #
coedge $-1 $457 $457 $-1 $637 reversed $292 $-1 #
edge $-1 $638 0 $638 6.2831853071796004 $293 $639 forward 7 unknown #
vertex $-1 $296 $640 #
ellipse-curve $-1 -42.695766016272927 31.399079322308271 7.2024924920028122 0 0.7660444514056185 0.64278759981090561 1.5 0 0 1 I I #
coedge $-1 $461 $461 $-1 $641 reversed $299 $-1 #
edge $-1 $642 0 $642 6.2831853071796004 $300 $643 forward 7 unknown #
vertex $-1 $303 $644 #
ellipse-curve $-1 -35.903929907639593 31.399079322308271 7.2024924920028122 0 0.7660444514056185 0.64278759981090561 1.5 0 0 1 I I #
coedge $-1 $465 $465 $-1 $645 reversed $306 $-1 #
edge $-1 $646 0 $646 6.2831853071796004 $307 $647 forward 7 unknown #
vertex $-1 $310 $648 #
ellipse-curve $-1 -29.112093799006267 31.399079322308271 7.2024924920028122 0 0.7660444514056185 0.64278759981090561 1.5 0 0 1 I I #
face $-1 $-1 $482 $64 $-1 $649 reversed single #
loop $-1 $-1 $478 $311 #
plane-surface $-1 47.223656755361816 0 6.7666261565925385 1 0 0 0 0 -1 forward_v I I I I #
coedge $-1 $650 $651 $474 $652 forward $312 $-1 #
coedge $-1 $474 $314 $316 $480 reversed $196 $-1 #
coedge $-1 $314 $473 $472 $652 reversed $196 $-1 #
coedge $-1 $653 $317 $314 $476 forward $482 $-1 #
edge $-1 $484 -59.278061612123587 $654 -54.645310696085176 $475 $655 forward 7 unknown #
coedge $-1 $316 $315 $650 $656 reversed $125 $-1 #
coedge $-1 $657 $658 $315 $479 forward $470 $-1 #
edge $-1 $659 38.731551924416209 $483 44.779178674453689 $478 $660 forward 7 unknown #
edge $-1 $661 60.637871377787924 $484 66.685498127825412 $473 $662 forward 7 unknown #
coedge $-1 $317 $653 $657 $663 forward $482 $-1 #
loop $-1 $-1 $475 $469 #
vertex $-1 $479 $664 #
vertex $-1 $318 $665 #
straight-curve $-1 17.951964953819793 33.342749063912692 4.8861170339836093 -1 0 0 I I #
coedge $-1 $486 $486 $-1 $666 reversed $321 $-1 #
edge $-1 $667 0 $667 6.2831853071796004 $322 $668 forward 7 unknown #
vertex $-1 $325 $669 #
ellipse-curve $-1 29.112093799006267 31.399079322308271 7.2024924920028122 0 0.7660444514056185 0.64278759981090561 1.5 0 0 1 I I #
coedge $-1 $490 $490 $-1 $670 reversed $328 $-1 #
edge $-1 $671 0 $671 6.2831853071796004 $329 $672 forward 7 unknown #
vertex $-1 $332 $673 #
ellipse-curve $-1 35.903929907639586 31.399079322308271 7.2024924920028122 0 0.7660444514056185 0.64278759981090561 1.5 0 0 1 I I #
coedge $-1 $494 $494 $-1 $674 reversed $335 $-1 #
edge $-1 $675 0 $675 6.2831853071796004 $336 $676 forward 7 unknown #
vertex $-1 $339 $677 #
ellipse-curve $-1 42.69576601627292 31.399079322308271 7.2024924920028122 0 0.7660444514056185 0.64278759981090561 1.5 0 0 1 I I #
face $-1 $-1 $355 $51 $-1 $678 reversed single #
loop $-1 $-1 $514 $340 #
plane-surface $-1 0 33.342749063912692 0 0 -1 0 0 0 -1 forward_v I I I I #
coedge $-1 $679 $512 $515 $680 forward $341 $-1 #
coedge $-1 $518 $343 $344 $506 reversed $215 $-1 #
coedge $-1 $512 $679 $343 $504 reversed $341 $-1 #
edge $-1 $519 -9.5188679500220115 $681 9.5188679500220115 $503 $682 forward 7 unknown #
coedge $-1 $345 $344 $679 $683 forward $137 $-1 #
edge $-1 $510 -56.284676656392101 $681 56.284676656392101 $502 $684 forward 7 unknown #
coedge $-1 $515 $514 $345 $508 reversed $499 $-1 #
edge $-1 $685 -56.284676656392101 $509 56.284676656392101 $507 $686 forward 7 unknown #
vertex $-1 $347 $687 #
vertex $-1 $521 $688 #
straight-curve $-1 56.284676656392101 0 -9.5188679500220115 0 -1 0 I I #
coedge $-1 $501 $503 $348 $513 reversed $341 $-1 #
edge $-1 $516 -33.342749063912692 $519 33.342749063912692 $512 $689 forward 7 unknown #
coedge $-1 $507 $349 $354 $522 forward $499 $-1 #
coedge $-1 $349 $507 $501 $680 reversed $499 $-1 #
vertex $-1 $350 $690 #
straight-curve $-1 0 33.342749063912692 9.5188679500220115 -1 0 0 I I #
coedge $-1 $351 $502 $353 $521 reversed $215 $-1 #
vertex $-1 $513 $691 #
straight-curve $-1 0 -33.342749063912692 9.5188679500220115 1 0 0 I I #
edge $-1 $356 -9.5188679500220115 $510 9.5188679500220115 $353 $692 forward 7 unknown #
edge $-1 $357 -9.5188679500220115 $509 9.5188679500220115 $354 $693 forward 7 unknown #
point $-1 56.284676656392101 -33.342749063912692 9.5188679500220115 #
point $-1 56.284676656392101 33.342749063912692 9.5188679500220115 #
face $-1 $-1 $534 $52 $-1 $694 reversed single #
loop $-1 $-1 $531 $359 #
plane-surface $-1 0 0 9.5188679500220115 0 0 1 1 0 0 forward_v I I I I #
coedge $-1 $695 $696 $366 $537 forward $360 $-1 #
coedge $-1 $362 $541 $697 $698 reversed $223 $-1 #
edge $-1 $699 -6.1355548717257422 $372 -0.63107128486679631 $362 $700 forward 7 unknown #
coedge $-1 $697 $701 $363 $532 forward $526 $-1 #
edge $-1 $535 -33.342749063912692 $699 33.342749063912692 $531 $702 forward 7 unknown #
coedge $-1 $538 $364 $701 $703 reversed $534 $-1 #
loop $-1 $-1 $364 $525 #
vertex $-1 $365 $704 #
straight-curve $-1 -47.223656755361809 -33.342749063912692 3.3833130782962693 0 0 1 I I #
edge $-1 $542 -33.342749063912692 $539 33.342749063912692 $528 $705 forward 7 unknown #
coedge $-1 $367 $533 $695 $706 forward $534 $-1 #
vertex $-1 $537 $707 #
straight-curve $-1 -25.877083352938477 -33.342749063912692 4.0143843631630656 1 0 0 I I #
coedge $-1 $529 $369 $696 $708 reversed $223 $-1 #
vertex $-1 $537 $709 #
straight-curve $-1 -25.877083352938477 33.342749063912692 4.0143843631630656 -1 0 0 I I #
point $-1 -47.223656755361809 33.342749063912692 4.0143843631630656 #
point $-1 -47.223656755361809 -33.342749063912692 4.0143843631630656 #
face $-1 $-1 $390 $53 $-1 $710 reversed single #
loop $-1 $-1 $381 $375 #
plane-surface $-1 0 33.342749063912692 0 0 -1 0 0 0 -1 forward_v I I I I #
coedge $-1 $384 $711 $553 $712 forward $376 $-1 #
coedge $-1 $713 $378 $711 $714 forward $231 $-1 #
coedge $-1 $378 $713 $555 $715 forward $231 $-1 #
edge $-1 $557 -33.342749063912692 $716 33.342749063912692 $378 $717 forward 7 unknown #
coedge $-1 $380 $379 $549 $712 reversed $145 $-1 #
edge $-1 $560 -33.342749063912692 $556 33.342749063912692 $379 $718 forward 7 unknown #
coedge $-1 $562 $381 $551 $715 reversed $547 $-1 #
vertex $-1 $387 $719 #
vertex $-1 $382 $720 #
straight-curve $-1 47.223656755361816 33.342749063912692 3.3833130782962693 0 0 1 I I #
coedge $-1 $711 $384 $389 $566 reversed $376 $-1 #
vertex $-1 $385 $721 #
straight-curve $-1 25.877083352938481 -33.342749063912692 4.0143843631630656 1 0 0 I I #
coedge $-1 $386 $555 $388 $565 forward $547 $-1 #
straight-curve $-1 25.877083352938481 33.342749063912692 4.0143843631630656 -1 0 0 I I #
coedge $-1 $389 $388 $713 $722 reversed $390 $-1 #
edge $-1 $723 -9.5188679500220115 $392 -4.0143843631630656 $388 $724 forward 7 unknown #
edge $-1 $725 -9.5188679500220115 $391 -4.0143843631630656 $389 $726 forward 7 unknown #
point $-1 56.284676656392108 -33.342749063912692 4.0143843631630656 #
point $-1 56.284676656392108 33.342749063912692 4.0143843631630656 #
plane-surface $-1 0 -33.342749063912692 0 0 1 0 0 0 1 forward_v I I I I #
coedge $-1 $727 $397 $402 $576 forward $239 $-1 #
coedge $-1 $397 $727 $573 $728 forward $239 $-1 #
edge $-1 $574 22.427247695307287 $581 25.630459482572917 $397 $729 forward 7 unknown #
coedge $-1 $406 $400 $571 $728 reversed $407 $-1 #
vertex $-1 $401 $730 #
straight-curve $-1 -34.519805637860564 -33.342749063912692 43.700588731322682 0 0 1 I I #
edge $-1 $581 14.083940039554971 $579 26.787791157056215 $570 $731 forward 7 unknown #
coedge $-1 $578 $403 $406 $583 reversed $395 $-1 #
coedge $-1 $403 $577 $727 $732 reversed $395 $-1 #
vertex $-1 $732 $733 #
straight-curve $-1 -47.223656755361809 -24.630936652593764 14.83846185833767 0 -0.71933979245794832 -0.69465837861970381 I I #
vertex $-1 $576 $734 #
straight-curve $-1 -34.519805637860564 -33.342749063912706 6.4255622135017347 0 -0.71933979245794832 -0.69465837861970381 I I #
edge $-1 $735 -6.1355548717257422 $408 -3.0422491352054788 $406 $736 forward 7 unknown #
point $-1 -47.223656755361809 -33.342749063912692 6.4255622135017481 #
point $-1 -34.519805637860564 -33.342749063912692 6.4255622135017481 #
edge $-1 $737 1 $737 0 $411 $-1 forward 7 unknown #
vertex $-1 $412 $738 #
ellipse-curve $-1 -43.593985007504308 -30.458313703174028 6.6438063113091879 0 -0.69465837861970381 0.71933979245794832 1 0 0 1 I I #
point $-1 -42.593985007504308 -31.741143170279862 7.9722150817618669 #
edge $-1 $739 1 $739 0 $415 $-1 forward 7 unknown #
vertex $-1 $416 $740 #
ellipse-curve $-1 -38.149477385718058 -30.458313703174028 6.6438063113091879 0 -0.69465837861970381 0.71933979245794832 1 0 0 1 I I #
point $-1 -37.149477385718058 -31.741143170279862 7.9722150817618669 #
loop $-1 $-1 $427 $419 #
plane-surface $-1 0 0 9.5188679500220115 0 0 1 1 0 0 forward_v I I I I #
coedge $-1 $597 $422 $424 $601 reversed $261 $-1 #
coedge $-1 $422 $596 $741 $742 reversed $261 $-1 #
coedge $-1 $430 $425 $422 $599 forward $420 $-1 #
edge $-1 $602 -37.275026517820933 $743 -34.181720781300669 $598 $744 forward 7 unknown #
coedge $-1 $424 $423 $605 $745 reversed $163 $-1 #
edge $-1 $746 -4.4529884497567265 $602 -1.9477141995791963e-014 $596 $747 forward 7 unknown #
vertex $-1 $426 $748 #
straight-curve $-1 3.1759627793753111 -33.342749063912692 6.4255622135017472 1 0 0 I I #
coedge $-1 $741 $427 $430 $609 forward $594 $-1 #
coedge $-1 $427 $741 $600 $745 forward $594 $-1 #
vertex $-1 $428 $749 #
straight-curve $-1 0 -55.769996759219978 9.5188679500220132 0 -1 0 I I #
straight-curve $-1 0 -33.342749063912706 6.4255622135017347 0 0.71933979245794832 0.69465837861970381 I I #
edge $-1 $431 0 $743 12.703851117501245 $430 $750 forward 7 unknown #
point $-1 0 -33.342749063912692 9.5188679500220115 #
point $-1 0 -33.342749063912692 6.4255622135017481 #
edge $-1 $751 1 $751 0 $434 $-1 forward 7 unknown #
vertex $-1 $435 $752 #
ellipse-curve $-1 3.6296717478575005 -30.458313703174028 6.6438063113091879 0 -0.69465837861970381 0.71933979245794832 1 0 0 1 I I #
point $-1 4.6296717478575005 -31.741143170279862 7.9722150817618669 #
edge $-1 $753 1 $753 0 $438 $-1 forward 7 unknown #
vertex $-1 $439 $754 #
ellipse-curve $-1 9.0741793696437512 -30.458313703174028 6.6438063113091879 0 -0.69465837861970381 0.71933979245794832 1 0 0 1 I I #
point $-1 10.074179369643751 -31.741143170279862 7.9722150817618669 #
loop $-1 $-1 $625 $442 #
plane-surface $-1 -47.223656755361809 0 6.7666261565925385 -1 0 0 0 0 1 forward_v I I I I #
coedge $-1 $445 $630 $755 $756 forward $283 $-1 #
coedge $-1 $447 $446 $445 $624 reversed $177 $-1 #
edge $-1 $757 -29.271691801542012 $631 -6.6322381060975815 $445 $758 forward 7 unknown #
coedge $-1 $755 $759 $447 $626 forward $620 $-1 #
edge $-1 $628 -44.779178674453689 $757 -38.731551924416209 $625 $760 forward 7 unknown #
coedge $-1 $453 $448 $759 $761 forward $443 $-1 #
vertex $-1 $761 $762 #
straight-curve $-1 -17.951964953819797 33.342749063912692 4.8861170339836093 -1 0 0 I I #
coedge $-1 $622 $450 $453 $634 forward $283 $-1 #
vertex $-1 $451 $763 #
straight-curve $-1 -24.584203059917378 38.355633141855094 9.5188679500220132 0 1 0 I I #
straight-curve $-1 -24.584203059917378 -9.5218622198668328 55.970172864024008 0 -0.64278759981090561 0.7660444514056185 I I #
edge $-1 $454 24.584203059917378 $764 47.223656755361809 $453 $765 forward 7 unknown #
point $-1 -24.584203059917378 33.342749063912692 9.5188679500220115 #
point $-1 -24.584203059917378 33.342749063912692 4.8861170339836022 #
edge $-1 $766 1 $766 0 $457 $-1 forward 7 unknown #
vertex $-1 $458 $767 #
ellipse-curve $-1 -42.695766016272927 28.437989166103602 4.717842899099904 0 0.7660444514056185 0.64278759981090561 1.5 0 0 1 I I #
point $-1 -41.195766016272927 31.399079322308275 7.2024924920028131 #
edge $-1 $768 1 $768 0 $461 $-1 forward 7 unknown #
vertex $-1 $462 $769 #
ellipse-curve $-1 -35.903929907639593 28.437989166103602 4.717842899099904 0 0.7660444514056185 0.64278759981090561 1.5 0 0 1 I I #
point $-1 -34.403929907639593 31.399079322308275 7.2024924920028131 #
edge $-1 $770 1 $770 0 $465 $-1 forward 7 unknown #
vertex $-1 $466 $771 #
ellipse-curve $-1 -29.112093799006267 28.437989166103602 4.717842899099904 0 0.7660444514056185 0.64278759981090561 1.5 0 0 1 I I #
point $-1 -27.612093799006267 31.399079322308275 7.2024924920028131 #
plane-surface $-1 0 33.342749063912692 0 0 -1 0 0 0 -1 forward_v I I I I #
coedge $-1 $772 $472 $477 $656 forward $312 $-1 #
coedge $-1 $472 $772 $653 $773 forward $312 $-1 #
edge $-1 $654 5.0128840779424024 $661 8.9002235611512219 $472 $774 forward 7 unknown #
coedge $-1 $481 $475 $651 $773 reversed $482 $-1 #
vertex $-1 $476 $775 #
straight-curve $-1 24.584203059917371 33.342749063912692 64.164178646107189 0 0 1 I I #
edge $-1 $661 6.6322381060975779 $659 29.271691801542008 $650 $776 forward 7 unknown #
coedge $-1 $658 $478 $481 $663 reversed $470 $-1 #
coedge $-1 $478 $657 $772 $777 reversed $470 $-1 #
vertex $-1 $777 $778 #
straight-curve $-1 47.223656755361816 4.5592482822569149 39.188958396049649 0 0.64278759981090572 -0.76604445140561861 I I #
vertex $-1 $656 $779 #
straight-curve $-1 24.584203059917371 -9.5218622198668328 55.970172864024008 0 0.64278759981090561 -0.7660444514056185 I I #
edge $-1 $780 -6.1355548717257422 $483 -1.5028039556873374 $481 $781 forward 7 unknown #
point $-1 47.223656755361816 33.342749063912692 4.8861170339836066 #
point $-1 24.584203059917371 33.342749063912692 4.8861170339836022 #
edge $-1 $782 1 $782 0 $486 $-1 forward 7 unknown #
vertex $-1 $487 $783 #
ellipse-curve $-1 29.112093799006267 28.437989166103602 4.717842899099904 0 0.7660444514056185 0.64278759981090561 1.5 0 0 1 I I #
point $-1 30.612093799006267 31.399079322308275 7.2024924920028131 #
edge $-1 $784 1 $784 0 $490 $-1 forward 7 unknown #
vertex $-1 $491 $785 #
ellipse-curve $-1 35.903929907639586 28.437989166103602 4.717842899099904 0 0.7660444514056185 0.64278759981090561 1.5 0 0 1 I I #
point $-1 37.403929907639586 31.399079322308275 7.2024924920028131 #
edge $-1 $786 1 $786 0 $494 $-1 forward 7 unknown #
vertex $-1 $495 $787 #
ellipse-curve $-1 42.69576601627292 28.437989166103602 4.717842899099904 0 0.7660444514056185 0.64278759981090561 1.5 0 0 1 I I #
point $-1 44.19576601627292 31.399079322308275 7.2024924920028131 #
plane-surface $-1 56.284676656392101 0 0 -1 0 0 0 0 1 forward_v I I I I #
coedge $-1 $503 $501 $505 $683 reversed $341 $-1 #
edge $-1 $516 -9.5188679500220115 $685 9.5188679500220115 $515 $788 forward 7 unknown #
vertex $-1 $683 $789 #
straight-curve $-1 -56.284676656392101 -33.342749063912692 0 0 0 -1 I I #
edge $-1 $681 -33.342749063912692 $685 33.342749063912692 $679 $790 forward 7 unknown #
straight-curve $-1 0 -33.342749063912692 -9.5188679500220115 -1 0 0 I I #
vertex $-1 $508 $791 #
straight-curve $-1 0 33.342749063912692 -9.5188679500220115 1 0 0 I I #
point $-1 56.284676656392101 33.342749063912692 -9.5188679500220115 #
point $-1 56.284676656392101 -33.342749063912692 -9.5188679500220115 #
straight-curve $-1 -56.284676656392101 0 9.5188679500220115 0 -1 0 I I #
point $-1 -56.284676656392101 33.342749063912692 9.5188679500220115 #
point $-1 -56.284676656392101 -33.342749063912692 9.5188679500220115 #
straight-curve $-1 56.284676656392101 -33.342749063912692 0 0 0 -1 I I #
straight-curve $-1 56.284676656392101 33.342749063912692 0 0 0 -1 I I #
plane-surface $-1 0 -33.342749063912692 0 0 1 0 0 0 1 forward_v I I I I #
coedge $-1 $792 $528 $538 $706 reversed $360 $-1 #
coedge $-1 $528 $792 $541 $708 forward $360 $-1 #
coedge $-1 $793 $531 $529 $698 forward $526 $-1 #
edge $-1 $699 47.223656755361809 $794 56.284676656392101 $529 $795 forward 7 unknown #
vertex $-1 $698 $796 #
straight-curve $-1 -47.223656755361809 33.342749063912692 3.3833130782962693 0 0 -1 I I #
coedge $-1 $531 $793 $533 $703 forward $526 $-1 #
straight-curve $-1 -47.223656755361809 0 9.5188679500220115 0 1 0 I I #
edge $-1 $797 -56.284676656392101 $535 -47.223656755361809 $533 $798 forward 7 unknown #
point $-1 -47.223656755361809 -33.342749063912692 9.5188679500220115 #
straight-curve $-1 -56.284676656392101 0 4.0143843631630656 0 -1 0 I I #
edge $-1 $797 -9.5188679500220115 $539 -4.0143843631630656 $695 $799 forward 7 unknown #
point $-1 -56.284676656392101 -33.342749063912692 4.0143843631630656 #
edge $-1 $794 -9.5188679500220115 $542 -4.0143843631630656 $541 $800 forward 7 unknown #
point $-1 -56.284676656392101 33.342749063912692 4.0143843631630656 #
plane-surface $-1 56.284676656392101 0 0 -1 0 0 0 0 1 forward_v I I I I #
coedge $-1 $549 $559 $550 $714 reversed $376 $-1 #
edge $-1 $716 -6.1355548717257422 $560 -0.63107128486679631 $549 $801 forward 7 unknown #
coedge $-1 $551 $550 $564 $722 forward $231 $-1 #
edge $-1 $716 47.223656755361816 $725 56.284676656392101 $711 $802 forward 7 unknown #
edge $-1 $723 -56.284676656392101 $557 -47.223656755361816 $555 $803 forward 7 unknown #
vertex $-1 $714 $804 #
straight-curve $-1 47.223656755361816 0 9.5188679500220115 0 -1 0 I I #
straight-curve $-1 47.223656755361816 0 4.0143843631630656 0 1 0 I I #
point $-1 47.223656755361816 33.342749063912692 4.0143843631630656 #
point $-1 47.223656755361816 33.342749063912692 9.5188679500220115 #
point $-1 47.223656755361816 -33.342749063912692 4.0143843631630656 #
edge $-1 $725 -33.342749063912692 $723 33.342749063912692 $564 $805 forward 7 unknown #
vertex $-1 $722 $806 #
straight-curve $-1 56.284676656392101 33.342749063912692 0 0 0 -1 I I #
vertex $-1 $722 $807 #
straight-curve $-1 56.284676656392101 -33.342749063912692 0 0 0 -1 I I #
coedge $-1 $571 $570 $578 $732 forward $239 $-1 #
edge $-1 $735 -47.223656755361809 $574 -34.519805637860564 $573 $808 forward 7 unknown #
straight-curve $-1 -34.519805637860564 -55.769996759219978 9.5188679500220132 0 1 0 I I #
point $-1 -34.519805637860564 -33.342749063912692 9.5188679500220115 #
straight-curve $-1 -20.435865598305593 -30.139537276647062 9.5188679500220115 -1 0 0 I I #
edge $-1 $579 30.139537276647062 $735 33.342749063912692 $727 $809 forward 7 unknown #
point $-1 -47.223656755361809 -30.139537276647062 9.5188679500220115 #
point $-1 -34.519805637860564 -30.139537276647062 9.5188679500220115 #
vertex $-1 $728 $810 #
straight-curve $-1 -47.223656755361809 -33.342749063912692 3.3833130782962693 0 0 -1 I I #
vertex $-1 $586 $811 #
point $-1 -42.593985007504308 -30.458313703174028 6.6438063113091879 #
vertex $-1 $590 $812 #
point $-1 -37.149477385718058 -30.458313703174028 6.6438063113091879 #
coedge $-1 $605 $604 $597 $742 forward $594 $-1 #
edge $-1 $743 22.427247695307287 $746 25.630459482572917 $741 $813 forward 7 unknown #
vertex $-1 $742 $814 #
straight-curve $-1 12.703851117501245 -33.342749063912692 43.700588731322682 0 0 1 I I #
edge $-1 $746 -9.5278883381259334 $606 3.1759627793753111 $605 $815 forward 7 unknown #
vertex $-1 $745 $816 #
straight-curve $-1 12.703851117501245 -33.342749063912706 6.4255622135017347 0 -0.71933979245794832 -0.69465837861970381 I I #
point $-1 12.703851117501245 -33.342749063912692 6.4255622135017481 #
point $-1 0 -30.139537276647062 9.5188679500220115 #
straight-curve $-1 0 -33.342749063912692 9.5188679500220115 1 0 0 I I #
vertex $-1 $612 $817 #
point $-1 4.6296717478575005 -30.458313703174028 6.6438063113091879 #
vertex $-1 $616 $818 #
point $-1 10.074179369643751 -30.458313703174028 6.6438063113091879 #
coedge $-1 $759 $625 $622 $756 reversed $620 $-1 #
edge $-1 $764 -33.342749063912692 $757 -29.455409580703868 $622 $819 forward 7 unknown #
vertex $-1 $626 $820 #
straight-curve $-1 -17.951964953819797 29.455409580703868 9.5188679500220097 1 0 0 I I #
coedge $-1 $625 $755 $627 $761 reversed $620 $-1 #
straight-curve $-1 -47.223656755361809 4.5592482822569149 39.188958396049649 0 -0.64278759981090572 0.76604445140561861 I I #
edge $-1 $628 1.5028039556873374 $764 6.1355548717257422 $627 $821 forward 7 unknown #
point $-1 -47.223656755361809 33.342749063912692 4.8861170339836066 #
point $-1 -24.584203059917378 29.455409580703872 9.5188679500220132 #
vertex $-1 $756 $822 #
straight-curve $-1 0 33.342749063912692 9.5188679500220115 -1 0 0 I I #
vertex $-1 $637 $823 #
point $-1 -41.195766016272927 28.437989166103602 4.717842899099904 #
vertex $-1 $641 $824 #
point $-1 -34.403929907639593 28.437989166103602 4.717842899099904 #
vertex $-1 $645 $825 #
point $-1 -27.612093799006267 28.437989166103602 4.717842899099904 #
coedge $-1 $651 $650 $658 $777 forward $312 $-1 #
edge $-1 $780 -47.223656755361816 $654 -24.584203059917371 $653 $826 forward 7 unknown #
straight-curve $-1 24.584203059917371 38.355633141855094 9.5188679500220132 0 -1 0 I I #
point $-1 24.584203059917371 33.342749063912692 9.5188679500220115 #
straight-curve $-1 17.951964953819793 29.455409580703868 9.5188679500220097 1 0 0 I I #
edge $-1 $659 29.455409580703872 $780 33.342749063912692 $772 $827 forward 7 unknown #
point $-1 47.223656755361802 29.455409580703872 9.5188679500220132 #
point $-1 24.584203059917371 29.455409580703872 9.5188679500220132 #
vertex $-1 $773 $828 #
straight-curve $-1 47.223656755361816 33.342749063912692 3.3833130782962693 0 0 -1 I I #
vertex $-1 $666 $829 #
point $-1 30.612093799006267 28.437989166103602 4.717842899099904 #
vertex $-1 $670 $830 #
point $-1 37.403929907639586 28.437989166103602 4.717842899099904 #
vertex $-1 $674 $831 #
point $-1 44.19576601627292 28.437989166103602 4.717842899099904 #
straight-curve $-1 -56.284676656392101 33.342749063912692 0 0 0 -1 I I #
point $-1 -56.284676656392101 -33.342749063912692 -9.5188679500220115 #
straight-curve $-1 -56.284676656392101 0 -9.5188679500220115 0 1 0 I I #
point $-1 -56.284676656392101 33.342749063912692 -9.5188679500220115 #
coedge $-1 $696 $695 $793 $832 reversed $360 $-1 #
coedge $-1 $701 $697 $792 $832 forward $526 $-1 #
vertex $-1 $698 $833 #
straight-curve $-1 0 33.342749063912692 9.5188679500220115 -1 0 0 I I #
point $-1 -47.223656755361809 33.342749063912692 9.5188679500220115 #
vertex $-1 $832 $834 #
straight-curve $-1 0 -33.342749063912692 9.5188679500220115 1 0 0 I I #
straight-curve $-1 -56.284676656392101 -33.342749063912692 0 0 0 -1 I I #
straight-curve $-1 -56.284676656392101 33.342749063912692 0 0 0 -1 I I #
straight-curve $-1 47.223656755361816 -33.342749063912692 3.3833130782962693 0 0 -1 I I #
straight-curve $-1 0 -33.342749063912692 9.5188679500220115 1 0 0 I I #
straight-curve $-1 0 33.342749063912692 9.5188679500220115 -1 0 0 I I #
point $-1 47.223656755361816 -33.342749063912692 9.5188679500220115 #
straight-curve $-1 56.284676656392101 0 9.5188679500220115 0 1 0 I I #
point $-1 56.284676656392101 33.342749063912692 9.5188679500220115 #
point $-1 56.284676656392101 -33.342749063912692 9.5188679500220115 #
straight-curve $-1 0 -33.342749063912692 9.5188679500220115 1 0 0 I I #
straight-curve $-1 -47.223656755361809 0 9.5188679500220115 0 -1 0 I I #
point $-1 -47.223656755361809 -33.342749063912692 9.5188679500220115 #
point $-1 -43.593985007504308 -29.763655324554321 5.92446651885124 #
point $-1 -38.149477385718058 -29.763655324554321 5.92446651885124 #
straight-curve $-1 12.703851117501245 -55.769996759219978 9.5188679500220132 0 1 0 I I #
point $-1 12.703851117501245 -33.342749063912692 9.5188679500220115 #
straight-curve $-1 3.1759627793753111 -30.139537276647062 9.5188679500220115 -1 0 0 I I #
point $-1 12.703851117501245 -30.139537276647062 9.5188679500220115 #
point $-1 3.6296717478575005 -29.763655324554321 5.92446651885124 #
point $-1 9.0741793696437512 -29.763655324554321 5.92446651885124 #
straight-curve $-1 -47.223656755361809 0 9.5188679500220115 0 -1 0 I I #
point $-1 -47.223656755361809 29.455409580703868 9.5188679500220115 #
straight-curve $-1 -47.223656755361809 33.342749063912692 3.3833130782962693 0 0 1 I I #
point $-1 -47.223656755361809 33.342749063912692 9.5188679500220115 #
point $-1 -42.695766016272927 27.288922488995173 3.7536614993835458 #
point $-1 -35.903929907639593 27.288922488995173 3.7536614993835458 #
point $-1 -29.112093799006267 27.288922488995173 3.7536614993835458 #
straight-curve $-1 0 33.342749063912692 9.5188679500220115 -1 0 0 I I #
straight-curve $-1 47.223656755361816 0 9.5188679500220115 0 1 0 I I #
point $-1 47.223656755361816 33.342749063912692 9.5188679500220115 #
point $-1 29.112093799006267 27.288922488995173 3.7536614993835458 #
point $-1 35.903929907639586 27.288922488995173 3.7536614993835458 #
point $-1 42.69576601627292 27.288922488995173 3.7536614993835458 #
edge $-1 $794 -33.342749063912692 $797 33.342749063912692 $792 $835 forward 7 unknown #
point $-1 -56.284676656392101 33.342749063912692 9.5188679500220115 #
point $-1 -56.284676656392101 -33.342749063912692 9.5188679500220115 #
straight-curve $-1 -56.284676656392101 0 9.5188679500220115 0 -1 0 I I #
End-of-ACIS-data 