500 0 5 0           
7 Unknown 11 ACIS 5.0 NT 24 Thu Mar 25 16:24:22 1999 
-1 9.9999999999999995e-007 1e-010 
body $-1 $5 $-1 $6 #
body $-1 $7 $-1 $8 #
body $-1 $9 $-1 $10 #
body $-1 $11 $-1 $12 #
body $-1 $13 $-1 $14 #
lump $-1 $-1 $15 $0 #
transform $-1 1 0 0 0 1 0 0 0 1 41.899472029786068 28.892311794360584 10.066414025365098 1 rotate no_reflect no_shear #
lump $-1 $-1 $16 $1 #
transform $-1 1 0 0 0 1 0 0 0 1 41.899472029786068 28.892311794360584 10.066414025365098 1 rotate no_reflect no_shear #
lump $-1 $-1 $17 $2 #
transform $-1 1 0 0 0 1 0 0 0 1 41.899472029786068 28.892311794360584 10.066414025365098 1 rotate no_reflect no_shear #
lump $-1 $-1 $18 $3 #
transform $-1 1 0 0 0 1 0 0 0 1 41.899472029786068 28.892311794360584 10.066414025365098 1 rotate no_reflect no_shear #
lump $-1 $-1 $19 $4 #
transform $-1 1 0 0 0 1 0 0 0 1 41.899472029786068 28.892311794360584 10.066414025365098 1 rotate no_reflect no_shear #
shell $-1 $-1 $-1 $20 $-1 $5 #
shell $-1 $-1 $-1 $21 $-1 $7 #
shell $-1 $-1 $-1 $22 $-1 $9 #
shell $-1 $-1 $-1 $23 $-1 $11 #
shell $-1 $-1 $-1 $24 $-1 $13 #
face $-1 $25 $26 $15 $-1 $27 forward single #
face $-1 $28 $29 $16 $-1 $30 forward single #
face $-1 $31 $32 $17 $-1 $33 reversed single #
face $-1 $34 $35 $18 $-1 $36 forward single #
face $-1 $37 $38 $19 $-1 $39 forward single #
face $-1 $40 $41 $15 $-1 $42 reversed single #
loop $-1 $-1 $43 $20 #
plane-surface $-1 0 0 10.066414025365098 0 0 1 1 0 0 forward_v I I I I #
face $-1 $44 $45 $16 $-1 $46 reversed single #
loop $-1 $-1 $47 $21 #
plane-surface $-1 -35.610874097176399 0 -7.0664140253650984 0 0 1 1 0 0 forward_v I I I I #
face $-1 $48 $49 $17 $-1 $50 reversed single #
loop $-1 $-1 $51 $22 #
plane-surface $-1 27.369296410888126 24.294847391384838 104.09279893951074 1 0 0 0 -0.52991927123019833 -0.84804809178421925 forward_v I I I I #
face $-1 $52 $53 $18 $-1 $54 forward single #
loop $-1 $55 $56 $23 #
cone-surface $-1 31.520775159144677 21.979244523371449 4.982355750428983 0 -0.52991927123019833 -0.84804809178421925 2 0 0 1 I I 0 1 2 forward I I I I #
face $-1 $57 $58 $19 $-1 $59 forward single #
loop $-1 $60 $61 $24 #
cone-surface $-1 37.747993281529517 21.979244523371449 4.982355750428983 0 -0.52991927123019833 -0.84804809178421925 2 0 0 1 I I 0 1 2 forward I I I I #
face $-1 $62 $63 $15 $-1 $64 reversed single #
loop $-1 $-1 $65 $25 #
plane-surface $-1 0 0 -10.066414025365098 0 0 1 1 0 0 forward_v I I I I #
coedge $-1 $66 $67 $68 $69 forward $26 $-1 #
face $-1 $70 $71 $16 $-1 $72 reversed single #
loop $-1 $-1 $73 $28 #
plane-surface $-1 -29.32227616456673 0 -8.5664140253650984 -1 0 0 0 0 1 forward_v I I I I #
coedge $-1 $74 $75 $76 $77 forward $29 $-1 #
face $-1 $78 $79 $17 $-1 $80 reversed single #
loop $-1 $-1 $81 $31 #
plane-surface $-1 34.634384220337097 -20.111827974523788 33.027264336258057 0 0.52991927123019833 0.84804809178421925 1 0 0 forward_v I I I I #
coedge $-1 $82 $83 $84 $85 reversed $32 $-1 #
face $-1 $-1 $86 $18 $-1 $87 forward single #
loop $-1 $88 $89 $34 #
cone-surface $-1 31.520775159144677 20.66580741857209 2.8804170384854011 0 -0.52991927123019833 -0.84804809178421925 1 0 0 1 I I -0.70710678118654746 0.70710678118654746 1 forward I I I I #
loop $-1 $-1 $90 $23 #
coedge $-1 $56 $56 $91 $92 reversed $35 $-1 #
face $-1 $-1 $93 $19 $-1 $94 forward single #
loop $-1 $95 $96 $37 #
cone-surface $-1 37.747993281529517 20.66580741857209 2.8804170384854011 0 -0.52991927123019833 -0.84804809178421925 1 0 0 1 I I -0.70710678118654746 0.70710678118654746 1 forward I I I I #
loop $-1 $-1 $97 $24 #
coedge $-1 $61 $61 $98 $99 reversed $38 $-1 #
face $-1 $100 $101 $15 $-1 $102 reversed single #
loop $-1 $-1 $103 $40 #
plane-surface $-1 0 -28.892311794360584 0 0 1 0 0 0 1 forward_v I I I I #
coedge $-1 $104 $105 $106 $107 forward $41 $-1 #
coedge $-1 $108 $43 $109 $110 forward $26 $-1 #
coedge $-1 $43 $108 $111 $112 forward $26 $-1 #
coedge $-1 $113 $114 $43 $69 reversed $115 $-1 #
edge $-1 $116 -28.892311794360584 $117 28.892311794360584 $68 $118 forward 7 unknown #
face $-1 $119 $120 $16 $-1 $121 reversed single #
loop $-1 $-1 $122 $44 #
plane-surface $-1 0 0 -10.066414025365098 0 0 1 1 0 0 forward_v I I I I #
coedge $-1 $123 $76 $124 $125 reversed $45 $-1 #
coedge $-1 $126 $47 $127 $128 reversed $29 $-1 #
coedge $-1 $47 $126 $129 $130 reversed $29 $-1 #
coedge $-1 $73 $131 $47 $77 reversed $45 $-1 #
edge $-1 $132 -28.892311794360584 $133 28.892311794360584 $76 $134 forward 7 unknown #
face $-1 $135 $136 $17 $-1 $137 reversed single #
loop $-1 $-1 $138 $48 #
plane-surface $-1 41.899472029786068 0 0 -1 0 0 0 0 1 forward_v I I I I #
coedge $-1 $139 $140 $141 $142 reversed $49 $-1 #
coedge $-1 $83 $51 $143 $144 reversed $32 $-1 #
coedge $-1 $51 $82 $139 $145 reversed $32 $-1 #
coedge $-1 $141 $146 $51 $85 forward $147 $-1 #
edge $-1 $148 -16.744888098668163 $149 -4.4857892238282435 $84 $150 forward 7 unknown #
loop $-1 $-1 $91 $52 #
plane-surface $-1 34.634384220337097 -20.111827974523788 33.027264336258057 0 0.52991927123019833 0.84804809178421925 1 0 0 forward_v I I I I #
loop $-1 $-1 $151 $34 #
coedge $-1 $89 $89 $90 $152 reversed $53 $-1 #
coedge $-1 $90 $90 $89 $152 forward $55 $-1 #
coedge $-1 $91 $91 $56 $92 forward $86 $-1 #
edge $-1 $153 -9.8933662726959013e-016 $153 6.2831853071795996 $91 $154 forward 7 unknown #
loop $-1 $-1 $98 $57 #
plane-surface $-1 34.634384220337097 -20.111827974523788 33.027264336258057 0 0.52991927123019833 0.84804809178421925 1 0 0 forward_v I I I I #
loop $-1 $-1 $155 $37 #
coedge $-1 $96 $96 $97 $156 reversed $58 $-1 #
coedge $-1 $97 $97 $96 $156 forward $60 $-1 #
coedge $-1 $98 $98 $61 $99 forward $93 $-1 #
edge $-1 $157 -9.8933662726959013e-016 $157 6.2831853071795996 $98 $158 forward 7 unknown #
face $-1 $159 $160 $15 $-1 $161 reversed single #
loop $-1 $-1 $162 $62 #
plane-surface $-1 -41.899472029786068 0 0 1 0 0 0 0 -1 forward_v I I I I #
coedge $-1 $163 $111 $164 $165 forward $63 $-1 #
coedge $-1 $166 $65 $163 $167 forward $41 $-1 #
coedge $-1 $65 $166 $168 $169 forward $41 $-1 #
coedge $-1 $114 $113 $65 $107 reversed $115 $-1 #
edge $-1 $170 -28.892311794360584 $171 28.892311794360584 $106 $172 forward 7 unknown #
coedge $-1 $67 $66 $173 $174 forward $26 $-1 #
coedge $-1 $175 $176 $66 $110 reversed $160 $-1 #
edge $-1 $117 -41.899472029786068 $177 41.899472029786068 $109 $178 forward 7 unknown #
coedge $-1 $103 $179 $67 $112 reversed $63 $-1 #
edge $-1 $180 -41.899472029786068 $116 41.899472029786068 $111 $181 forward 7 unknown #
coedge $-1 $106 $68 $179 $182 forward $115 $-1 #
coedge $-1 $68 $106 $175 $183 reversed $115 $-1 #
loop $-1 $-1 $113 $159 #
vertex $-1 $69 $184 #
vertex $-1 $69 $185 #
straight-curve $-1 41.899472029786068 0 10.066414025365098 0 1 0 I I #
face $-1 $186 $187 $16 $-1 $188 reversed single #
loop $-1 $-1 $124 $70 #
plane-surface $-1 0 -28.892311794360584 0 0 1 0 0 0 1 forward_v I I I I #
coedge $-1 $189 $190 $123 $191 forward $71 $-1 #
coedge $-1 $131 $73 $122 $191 reversed $45 $-1 #
coedge $-1 $129 $192 $73 $125 forward $120 $-1 #
edge $-1 $193 -5.7832070126825492 $132 -2.7832070126825492 $124 $194 forward 7 unknown #
coedge $-1 $75 $74 $195 $196 reversed $29 $-1 #
coedge $-1 $197 $198 $74 $128 forward $199 $-1 #
edge $-1 $200 -24.094034981197868 $133 -11.516839115978531 $127 $201 forward 7 unknown #
coedge $-1 $202 $124 $75 $130 forward $120 $-1 #
edge $-1 $132 11.516839115978531 $203 24.094034981197868 $129 $204 forward 7 unknown #
coedge $-1 $76 $123 $197 $205 reversed $45 $-1 #
vertex $-1 $130 $206 #
vertex $-1 $128 $207 #
straight-curve $-1 -29.32227616456673 0 -7.0664140253650984 0 1 0 I I #
face $-1 $-1 $147 $17 $-1 $208 forward single #
loop $-1 $-1 $209 $78 #
plane-surface $-1 0 28.892311794360584 0 0 -1 0 0 0 -1 forward_v I I I I #
coedge $-1 $210 $211 $140 $212 forward $79 $-1 #
coedge $-1 $213 $81 $83 $145 forward $49 $-1 #
coedge $-1 $81 $213 $138 $212 reversed $49 $-1 #
coedge $-1 $214 $84 $81 $142 forward $147 $-1 #
edge $-1 $149 10.052104300719577 $215 24.58227991961752 $141 $216 forward 7 unknown #
coedge $-1 $217 $209 $82 $144 forward $136 $-1 #
edge $-1 $218 -49.640320753943769 $148 -41.979985444390273 $143 $219 forward 7 unknown #
edge $-1 $149 43.32895887630157 $218 57.784623588721175 $83 $220 forward 7 unknown #
coedge $-1 $84 $214 $217 $221 forward $147 $-1 #
loop $-1 $-1 $141 $135 #
vertex $-1 $144 $222 #
vertex $-1 $85 $223 #
straight-curve $-1 27.369296410888126 12.147423695692419 10.066414025365098 0 -1 0 I I #
coedge $-1 $151 $151 $-1 $224 reversed $88 $-1 #
edge $-1 $225 0 $225 6.2831853071796004 $89 $226 forward 7 unknown #
vertex $-1 $92 $227 #
ellipse-curve $-1 31.520775159144677 22.762762356940616 6.2362463705883586 0 0.52991927123019833 0.84804809178421925 2 0 0 1 I I #
coedge $-1 $155 $155 $-1 $228 reversed $95 $-1 #
edge $-1 $229 0 $229 6.2831853071796004 $96 $230 forward 7 unknown #
vertex $-1 $99 $231 #
ellipse-curve $-1 37.747993281529517 22.762762356940616 6.2362463705883586 0 0.52991927123019833 0.84804809178421925 2 0 0 1 I I #
face $-1 $-1 $115 $15 $-1 $232 reversed single #
loop $-1 $-1 $175 $100 #
plane-surface $-1 0 28.892311794360584 0 0 -1 0 0 0 -1 forward_v I I I I #
coedge $-1 $233 $173 $176 $234 forward $101 $-1 #
coedge $-1 $179 $103 $104 $167 reversed $63 $-1 #
coedge $-1 $173 $233 $103 $165 reversed $101 $-1 #
edge $-1 $180 -10.066414025365098 $235 10.066414025365098 $164 $236 forward 7 unknown #
coedge $-1 $105 $104 $233 $237 forward $41 $-1 #
edge $-1 $171 -41.899472029786068 $235 41.899472029786068 $163 $238 forward 7 unknown #
coedge $-1 $176 $175 $105 $169 reversed $160 $-1 #
edge $-1 $239 -41.899472029786068 $170 41.899472029786068 $168 $240 forward 7 unknown #
vertex $-1 $107 $241 #
vertex $-1 $182 $242 #
straight-curve $-1 41.899472029786068 0 -10.066414025365098 0 -1 0 I I #
coedge $-1 $162 $164 $108 $174 reversed $101 $-1 #
edge $-1 $177 -28.892311794360584 $180 28.892311794360584 $173 $243 forward 7 unknown #
coedge $-1 $168 $109 $114 $183 forward $160 $-1 #
coedge $-1 $109 $168 $162 $234 reversed $160 $-1 #
vertex $-1 $110 $244 #
straight-curve $-1 0 28.892311794360584 10.066414025365098 -1 0 0 I I #
coedge $-1 $111 $163 $113 $182 reversed $63 $-1 #
vertex $-1 $174 $245 #
straight-curve $-1 0 -28.892311794360584 10.066414025365098 1 0 0 I I #
edge $-1 $116 -10.066414025365098 $171 10.066414025365098 $113 $246 forward 7 unknown #
edge $-1 $117 -10.066414025365098 $170 10.066414025365098 $114 $247 forward 7 unknown #
point $-1 41.899472029786068 -28.892311794360584 10.066414025365098 #
point $-1 41.899472029786068 28.892311794360584 10.066414025365098 #
face $-1 $-1 $199 $16 $-1 $248 reversed single #
loop $-1 $-1 $195 $119 #
plane-surface $-1 -41.899472029786068 0 0 1 0 0 0 0 -1 forward_v I I I I #
coedge $-1 $249 $122 $192 $250 forward $71 $-1 #
coedge $-1 $122 $249 $251 $252 forward $71 $-1 #
edge $-1 $253 -28.892311794360584 $193 28.892311794360584 $122 $254 forward 7 unknown #
coedge $-1 $124 $202 $189 $250 reversed $120 $-1 #
vertex $-1 $250 $255 #
straight-curve $-1 -29.32227616456673 -28.892311794360584 -4.2832070126825492 0 0 1 I I #
coedge $-1 $256 $257 $126 $196 forward $187 $-1 #
edge $-1 $203 -28.892311794360584 $200 28.892311794360584 $195 $258 forward 7 unknown #
coedge $-1 $251 $127 $131 $205 forward $199 $-1 #
coedge $-1 $127 $251 $256 $259 reversed $199 $-1 #
loop $-1 $-1 $197 $186 #
vertex $-1 $259 $260 #
straight-curve $-1 -17.8054370485882 28.892311794360584 -7.0664140253650984 1 0 0 I I #
coedge $-1 $192 $129 $257 $261 forward $120 $-1 #
vertex $-1 $261 $262 #
straight-curve $-1 -17.8054370485882 -28.892311794360584 -7.0664140253650984 -1 0 0 I I #
edge $-1 $133 2.7832070126825492 $253 5.7832070126825492 $197 $263 forward 7 unknown #
point $-1 -29.32227616456673 -28.892311794360584 -7.0664140253650984 #
point $-1 -29.32227616456673 28.892311794360584 -7.0664140253650984 #
plane-surface $-1 0 0 10.066414025365098 0 0 1 1 0 0 forward_v I I I I #
coedge $-1 $143 $264 $213 $265 forward $136 $-1 #
coedge $-1 $211 $138 $264 $266 reversed $79 $-1 #
coedge $-1 $138 $210 $214 $267 reversed $79 $-1 #
edge $-1 $215 26.050168284359383 $268 40.505832996778992 $138 $269 forward 7 unknown #
coedge $-1 $140 $139 $209 $265 reversed $49 $-1 #
coedge $-1 $146 $141 $211 $267 forward $147 $-1 #
vertex $-1 $267 $270 #
straight-curve $-1 17.317192110168548 16.633212919520663 10.066414025365097 1 0 0 I I #
coedge $-1 $264 $143 $146 $221 reversed $136 $-1 #
vertex $-1 $144 $271 #
straight-curve $-1 27.369296410888126 28.892311794360584 52.046399469755372 0 0 1 I I #
straight-curve $-1 27.369296410888126 -20.111827974523788 33.027264336258057 0 0.84804809178421925 -0.52991927123019833 I I #
edge $-1 $272 -41.899472029786068 $148 -27.369296410888126 $217 $273 forward 7 unknown #
point $-1 27.369296410888126 28.892311794360584 10.066414025365098 #
point $-1 27.369296410888126 16.633212919520663 10.066414025365098 #
edge $-1 $274 1 $274 0 $151 $-1 forward 7 unknown #
vertex $-1 $152 $275 #
ellipse-curve $-1 31.520775159144677 21.195726689802289 3.7284651302696203 0 0.52991927123019833 0.84804809178421925 2 0 0 1 I I #
point $-1 33.520775159144677 22.762762356940605 6.2362463705883453 #
edge $-1 $276 1 $276 0 $155 $-1 forward 7 unknown #
vertex $-1 $156 $277 #
ellipse-curve $-1 37.747993281529517 21.195726689802289 3.7284651302696203 0 0.52991927123019833 0.84804809178421925 2 0 0 1 I I #
point $-1 39.747993281529517 22.762762356940605 6.2362463705883453 #
plane-surface $-1 41.899472029786068 0 0 -1 0 0 0 0 1 forward_v I I I I #
coedge $-1 $164 $162 $166 $237 reversed $101 $-1 #
edge $-1 $177 -10.066414025365098 $239 10.066414025365098 $176 $278 forward 7 unknown #
vertex $-1 $237 $279 #
straight-curve $-1 -41.899472029786068 -28.892311794360584 0 0 0 -1 I I #
edge $-1 $235 -28.892311794360584 $239 28.892311794360584 $233 $280 forward 7 unknown #
straight-curve $-1 0 -28.892311794360584 -10.066414025365098 -1 0 0 I I #
vertex $-1 $169 $281 #
straight-curve $-1 0 28.892311794360584 -10.066414025365098 1 0 0 I I #
point $-1 41.899472029786068 28.892311794360584 -10.066414025365098 #
point $-1 41.899472029786068 -28.892311794360584 -10.066414025365098 #
straight-curve $-1 -41.899472029786068 0 10.066414025365098 0 -1 0 I I #
point $-1 -41.899472029786068 28.892311794360584 10.066414025365098 #
point $-1 -41.899472029786068 -28.892311794360584 10.066414025365098 #
straight-curve $-1 41.899472029786068 -28.892311794360584 0 0 0 -1 I I #
straight-curve $-1 41.899472029786068 28.892311794360584 0 0 0 -1 I I #
plane-surface $-1 0 28.892311794360584 0 0 -1 0 0 0 -1 forward_v I I I I #
coedge $-1 $190 $189 $282 $283 forward $71 $-1 #
edge $-1 $193 29.32227616456673 $284 41.899472029786068 $192 $285 forward 7 unknown #
coedge $-1 $198 $197 $190 $252 reversed $199 $-1 #
edge $-1 $286 -41.899472029786068 $253 -29.32227616456673 $251 $287 forward 7 unknown #
vertex $-1 $205 $288 #
straight-curve $-1 -29.32227616456673 0 -10.066414025365098 0 -1 0 I I #
point $-1 -29.32227616456673 -28.892311794360584 -10.066414025365098 #
coedge $-1 $282 $195 $198 $259 forward $187 $-1 #
coedge $-1 $195 $282 $202 $261 reversed $187 $-1 #
straight-curve $-1 -41.899472029786068 0 -7.0664140253650984 0 1 0 I I #
edge $-1 $200 7.0664140253650984 $286 10.066414025365098 $198 $289 forward 7 unknown #
point $-1 -41.899472029786068 28.892311794360584 -7.0664140253650984 #
edge $-1 $203 7.0664140253650984 $284 10.066414025365098 $257 $290 forward 7 unknown #
point $-1 -41.899472029786068 -28.892311794360584 -7.0664140253650984 #
straight-curve $-1 -29.32227616456673 28.892311794360584 -4.2832070126825492 0 0 -1 I I #
coedge $-1 $209 $217 $210 $266 forward $136 $-1 #
edge $-1 $268 -24.58227991961752 $218 -10.052104300719577 $209 $291 forward 7 unknown #
edge $-1 $272 -10.066414025365098 $268 -2.4060787158116064 $210 $292 forward 7 unknown #
edge $-1 $215 16.633212919520663 $272 28.892311794360584 $211 $293 forward 7 unknown #
vertex $-1 $212 $294 #
straight-curve $-1 41.899472029786068 -5.4585825846880995 23.870900218036848 0 0.84804809178421925 -0.52991927123019833 I I #
point $-1 41.899472029786068 16.633212919520663 10.066414025365098 #
point $-1 27.369296410888126 28.892311794360584 2.4060787158116064 #
vertex $-1 $267 $295 #
straight-curve $-1 0 28.892311794360584 10.066414025365098 -1 0 0 I I #
vertex $-1 $224 $296 #
point $-1 33.520775159144677 21.195726689802289 3.7284651302696203 #
vertex $-1 $228 $297 #
point $-1 39.747993281529517 21.195726689802289 3.7284651302696203 #
straight-curve $-1 -41.899472029786068 28.892311794360584 0 0 0 -1 I I #
point $-1 -41.899472029786068 -28.892311794360584 -10.066414025365098 #
straight-curve $-1 -41.899472029786068 0 -10.066414025365098 0 1 0 I I #
point $-1 -41.899472029786068 28.892311794360584 -10.066414025365098 #
coedge $-1 $257 $256 $249 $283 reversed $187 $-1 #
edge $-1 $284 -28.892311794360584 $286 28.892311794360584 $282 $298 forward 7 unknown #
vertex $-1 $283 $299 #
straight-curve $-1 0 -28.892311794360584 -10.066414025365098 -1 0 0 I I #
vertex $-1 $252 $300 #
straight-curve $-1 0 28.892311794360584 -10.066414025365098 1 0 0 I I #
point $-1 -29.32227616456673 28.892311794360584 -10.066414025365098 #
straight-curve $-1 -41.899472029786068 28.892311794360584 0 0 0 -1 I I #
straight-curve $-1 -41.899472029786068 -28.892311794360584 0 0 0 -1 I I #
straight-curve $-1 17.317192110168548 28.892311794360587 2.4060787158116046 -1 0 0 I I #
straight-curve $-1 41.899472029786068 28.892311794360584 0 0 0 -1 I I #
straight-curve $-1 41.899472029786068 0 10.066414025365098 0 1 0 I I #
point $-1 41.899472029786068 28.892311794360584 2.4060787158116064 #
point $-1 41.899472029786068 28.892311794360584 10.066414025365098 #
point $-1 31.520775159144677 20.135888147341891 2.0323689467011818 #
point $-1 37.747993281529517 20.135888147341891 2.0323689467011818 #
straight-curve $-1 -41.899472029786068 0 -10.066414025365098 0 1 0 I I #
point $-1 -41.899472029786068 -28.892311794360584 -10.066414025365098 #
point $-1 -41.899472029786068 28.892311794360584 -10.066414025365098 #
End-of-ACIS-data 