500 0 5 0           
7 Unknown 11 ACIS 5.0 NT 24 Thu Mar 25 16:59:20 1999 
-1 9.9999999999999995e-007 1e-010 
body $-1 $5 $-1 $6 #
body $-1 $7 $-1 $8 #
body $-1 $9 $-1 $10 #
body $-1 $11 $-1 $12 #
body $-1 $13 $-1 $14 #
lump $-1 $-1 $15 $0 #
transform $-1 1 0 0 0 1 0 0 0 1 75.566270943327126 42.200373405098077 11.442538456138031 1 rotate no_reflect no_shear #
lump $-1 $-1 $16 $1 #
transform $-1 1 0 0 0 1 0 0 0 1 75.566270943327126 42.200373405098077 11.442538456138031 1 rotate no_reflect no_shear #
lump $-1 $-1 $17 $2 #
transform $-1 1 0 0 0 1 0 0 0 1 75.566270943327126 42.200373405098077 11.442538456138031 1 rotate no_reflect no_shear #
lump $-1 $-1 $18 $3 #
transform $-1 1 0 0 0 1 0 0 0 1 75.566270943327126 42.200373405098077 11.442538456138031 1 rotate no_reflect no_shear #
lump $-1 $-1 $19 $4 #
transform $-1 1 0 0 0 1 0 0 0 1 75.566270943327126 42.200373405098077 11.442538456138031 1 rotate no_reflect no_shear #
shell $-1 $-1 $-1 $20 $-1 $5 #
shell $-1 $-1 $-1 $21 $-1 $7 #
shell $-1 $-1 $-1 $22 $-1 $9 #
shell $-1 $-1 $-1 $23 $-1 $11 #
shell $-1 $-1 $-1 $24 $-1 $13 #
face $-1 $25 $26 $15 $-1 $27 forward single #
face $-1 $28 $29 $16 $-1 $30 reversed single #
face $-1 $31 $32 $17 $-1 $33 forward single #
face $-1 $34 $35 $18 $-1 $36 reversed single #
face $-1 $37 $38 $19 $-1 $39 reversed single #
face $-1 $40 $41 $15 $-1 $42 reversed single #
loop $-1 $-1 $43 $20 #
plane-surface $-1 0 0 11.442538456138031 0 0 1 1 0 0 forward_v I I I I #
face $-1 $44 $45 $16 $-1 $46 reversed single #
loop $-1 $-1 $47 $21 #
plane-surface $-1 -54.181194031051064 -56.289037728743565 0 0 1 0 0 0 1 forward_v I I I I #
face $-1 $48 $49 $17 $-1 $50 forward single #
loop $-1 $-1 $51 $22 #
plane-surface $-1 -31.521653424536041 98.038619006972766 165.97812174628848 -1 0 0 0 0.74314483375859142 0.66913059716165679 forward_v I I I I #
face $-1 $52 $53 $18 $-1 $54 reversed single #
loop $-1 $55 $56 $23 #
cone-surface $-1 -62.982094509386812 36.526700203222894 5.4525163802571832 0 -0.74314483375859142 -0.66913059716165679 1.5 0 0 1 I I 0 1 1.5 forward I I I I #
face $-1 $57 $58 $19 $-1 $59 reversed single #
loop $-1 $60 $61 $24 #
cone-surface $-1 -44.105829858476355 36.526700203222894 5.4525163802571832 0 -0.74314483375859142 -0.66913059716165679 1.5 0 0 1 I I 0 1 1.5 forward I I I I #
face $-1 $62 $63 $15 $-1 $64 reversed single #
loop $-1 $-1 $65 $25 #
plane-surface $-1 0 0 -11.442538456138031 0 0 1 1 0 0 forward_v I I I I #
coedge $-1 $66 $67 $68 $69 forward $26 $-1 #
face $-1 $70 $71 $16 $-1 $72 reversed single #
loop $-1 $-1 $73 $28 #
plane-surface $-1 -55.681194031051064 -49.244705566920821 0 1 0 0 0 0 -1 forward_v I I I I #
coedge $-1 $74 $75 $76 $77 forward $29 $-1 #
face $-1 $78 $79 $17 $-1 $80 reversed single #
loop $-1 $-1 $81 $31 #
plane-surface $-1 -53.543962183931583 -14.274748708898258 64.850713743112408 0 0.74314483375859142 0.66913059716165679 1 0 0 forward_v I I I I #
coedge $-1 $82 $83 $84 $85 reversed $32 $-1 #
face $-1 $86 $87 $18 $-1 $88 forward single #
loop $-1 $89 $90 $34 #
cone-surface $-1 -62.982094509386812 34.488761517976684 3.6175481916999885 0 -0.74314483375859142 -0.66913059716165679 0.75 0 0 1 I I -0.70710678118654757 0.70710678118654757 0.75 forward I I I I #
loop $-1 $-1 $91 $23 #
coedge $-1 $56 $56 $92 $93 reversed $35 $-1 #
face $-1 $94 $95 $19 $-1 $96 reversed single #
loop $-1 $97 $98 $37 #
cone-surface $-1 -44.105829858476355 34.488761517976684 3.6175481916999885 0 -0.74314483375859142 -0.66913059716165679 0.75 0 0 1 I I -0.70710678118654757 0.70710678118654757 0.75 forward I I I I #
loop $-1 $-1 $99 $24 #
coedge $-1 $61 $61 $100 $101 reversed $38 $-1 #
face $-1 $102 $103 $15 $-1 $104 reversed single #
loop $-1 $-1 $105 $40 #
plane-surface $-1 0 -42.200373405098077 0 0 1 0 0 0 1 forward_v I I I I #
coedge $-1 $106 $107 $108 $109 forward $41 $-1 #
coedge $-1 $110 $43 $111 $112 forward $26 $-1 #
coedge $-1 $43 $110 $113 $114 forward $26 $-1 #
coedge $-1 $115 $116 $43 $69 reversed $117 $-1 #
edge $-1 $118 -42.200373405098077 $119 42.200373405098077 $68 $120 forward 7 unknown #
face $-1 $121 $122 $16 $-1 $123 reversed single #
loop $-1 $-1 $124 $44 #
plane-surface $-1 -52.681194031051064 -49.244705566920821 0 -1 0 0 0 0 1 forward_v I I I I #
coedge $-1 $125 $126 $127 $128 reversed $45 $-1 #
coedge $-1 $129 $47 $130 $131 reversed $29 $-1 #
coedge $-1 $47 $129 $132 $133 reversed $29 $-1 #
coedge $-1 $126 $125 $47 $77 reversed $45 $-1 #
edge $-1 $134 -11.442538456138031 $135 11.442538456138031 $76 $136 forward 7 unknown #
face $-1 $137 $138 $17 $-1 $139 forward single #
loop $-1 $-1 $140 $48 #
plane-surface $-1 0 42.200373405098077 0 0 -1 0 0 0 -1 forward_v I I I I #
coedge $-1 $141 $142 $140 $143 reversed $49 $-1 #
coedge $-1 $83 $51 $142 $144 forward $32 $-1 #
coedge $-1 $51 $82 $145 $146 reversed $32 $-1 #
coedge $-1 $147 $140 $51 $85 forward $79 $-1 #
edge $-1 $148 -80.860326087396004 $149 -71.546522417006202 $84 $150 forward 7 unknown #
face $-1 $151 $152 $18 $-1 $153 forward single #
loop $-1 $-1 $154 $52 #
plane-surface $-1 -31.521653424536041 98.038619006972766 165.97812174628848 -1 0 0 0 0.74314483375859142 0.66913059716165679 forward_v I I I I #
loop $-1 $-1 $155 $34 #
coedge $-1 $90 $90 $91 $156 forward $53 $-1 #
coedge $-1 $91 $91 $90 $156 reversed $55 $-1 #
coedge $-1 $92 $92 $56 $93 forward $152 $-1 #
edge $-1 $157 -4.4003013603734533e-016 $157 6.2831853071796004 $92 $158 forward 7 unknown #
face $-1 $159 $160 $19 $-1 $161 reversed single #
loop $-1 $162 $163 $57 #
cone-surface $-1 -62.982094509386812 36.526700203222894 5.4525163802571832 0 -0.74314483375859142 -0.66913059716165679 1.5 0 0 1 I I 0 1 1.5 forward I I I I #
loop $-1 $-1 $164 $37 #
coedge $-1 $98 $98 $99 $165 forward $58 $-1 #
coedge $-1 $99 $99 $98 $165 reversed $60 $-1 #
coedge $-1 $100 $100 $61 $101 forward $166 $-1 #
edge $-1 $167 -4.4003013603734533e-016 $167 6.2831853071796004 $100 $168 forward 7 unknown #
face $-1 $169 $170 $15 $-1 $171 reversed single #
loop $-1 $-1 $172 $62 #
plane-surface $-1 -75.566270943327126 0 0 1 0 0 0 0 -1 forward_v I I I I #
coedge $-1 $173 $113 $174 $175 forward $63 $-1 #
coedge $-1 $176 $65 $173 $177 forward $41 $-1 #
coedge $-1 $65 $176 $178 $179 forward $41 $-1 #
coedge $-1 $116 $115 $65 $109 reversed $117 $-1 #
edge $-1 $180 -42.200373405098077 $181 42.200373405098077 $108 $182 forward 7 unknown #
coedge $-1 $67 $66 $183 $184 forward $26 $-1 #
coedge $-1 $185 $186 $66 $112 reversed $170 $-1 #
edge $-1 $119 -75.566270943327126 $187 75.566270943327126 $111 $188 forward 7 unknown #
coedge $-1 $105 $189 $67 $114 reversed $63 $-1 #
edge $-1 $190 -75.566270943327126 $118 75.566270943327126 $113 $191 forward 7 unknown #
coedge $-1 $108 $68 $189 $192 forward $117 $-1 #
coedge $-1 $68 $108 $185 $193 reversed $117 $-1 #
loop $-1 $-1 $115 $169 #
vertex $-1 $69 $194 #
vertex $-1 $69 $195 #
straight-curve $-1 75.566270943327126 0 11.442538456138031 0 1 0 I I #
face $-1 $196 $197 $16 $-1 $123 reversed single #
loop $-1 $-1 $127 $70 #
plane-surface $-1 0 -42.200373405098077 0 0 1 0 0 0 1 forward_v I I I I #
coedge $-1 $198 $199 $129 $200 forward $71 $-1 #
coedge $-1 $76 $73 $201 $202 reversed $45 $-1 #
coedge $-1 $73 $76 $203 $204 reversed $45 $-1 #
coedge $-1 $205 $206 $73 $128 forward $122 $-1 #
edge $-1 $207 -11.442538456138031 $208 11.442538456138031 $127 $209 forward 7 unknown #
coedge $-1 $75 $74 $124 $200 reversed $29 $-1 #
coedge $-1 $201 $210 $74 $131 forward $211 $-1 #
edge $-1 $212 -1.5 $135 1.5 $74 $213 forward 7 unknown #
coedge $-1 $214 $203 $75 $133 forward $215 $-1 #
edge $-1 $134 -1.5 $216 1.5 $75 $217 forward 7 unknown #
vertex $-1 $204 $218 #
vertex $-1 $202 $219 #
straight-curve $-1 -55.681194031051064 -56.289037728743565 0 0 0 -1 I I #
face $-1 $220 $221 $17 $-1 $222 reversed single #
loop $-1 $-1 $145 $78 #
plane-surface $-1 0 0 11.442538456138031 0 0 1 1 0 0 forward_v I I I I #
coedge $-1 $84 $223 $81 $143 forward $79 $-1 #
coedge $-1 $224 $81 $225 $226 reversed $49 $-1 #
coedge $-1 $81 $224 $82 $144 reversed $49 $-1 #
edge $-1 $227 -48.794289851361334 $148 -4.749672332570249 $140 $228 forward 7 unknown #
edge $-1 $148 -84.400746810196125 $229 -71.867787893852011 $82 $230 forward 7 unknown #
coedge $-1 $231 $232 $83 $146 forward $138 $-1 #
edge $-1 $149 6.8189360983883063 $229 15.205122382284145 $145 $233 forward 7 unknown #
coedge $-1 $234 $84 $232 $235 reversed $79 $-1 #
vertex $-1 $143 $236 #
vertex $-1 $146 $237 #
straight-curve $-1 -31.521653424536041 42.200373405098077 82.98906087314424 0 0 1 I I #
face $-1 $238 $239 $18 $-1 $240 reversed single #
loop $-1 $241 $92 $86 #
plane-surface $-1 -53.543962183931583 -14.274748708898258 64.850713743112408 0 0.74314483375859142 0.66913059716165679 1 0 0 forward_v I I I I #
coedge $-1 $242 $243 $244 $245 reversed $87 $-1 #
coedge $-1 $155 $155 $-1 $246 forward $89 $-1 #
edge $-1 $247 0 $247 6.2831853071796004 $90 $248 forward 7 unknown #
vertex $-1 $93 $249 #
ellipse-curve $-1 -62.982094509386812 38.007280263150165 6.7856366209431345 0 -0.74314483375859142 -0.66913059716165679 1.5 0 0 1 I I #
face $-1 $250 $251 $19 $-1 $252 forward single #
loop $-1 $253 $254 $94 #
cone-surface $-1 -62.982094509386812 34.488761517976684 3.6175481916999885 0 -0.74314483375859142 -0.66913059716165679 0.75 0 0 1 I I -0.70710678118654757 0.70710678118654757 0.75 forward I I I I #
loop $-1 $-1 $255 $57 #
coedge $-1 $163 $163 $256 $257 reversed $95 $-1 #
coedge $-1 $164 $164 $-1 $258 forward $97 $-1 #
edge $-1 $259 0 $259 6.2831853071796004 $98 $260 forward 7 unknown #
loop $-1 $261 $100 $250 #
vertex $-1 $101 $262 #
ellipse-curve $-1 -44.105829858476355 38.007280263150165 6.7856366209431345 0 -0.74314483375859142 -0.66913059716165679 1.5 0 0 1 I I #
face $-1 $-1 $117 $15 $-1 $263 reversed single #
loop $-1 $-1 $185 $102 #
plane-surface $-1 0 42.200373405098077 0 0 -1 0 0 0 -1 forward_v I I I I #
coedge $-1 $264 $183 $186 $265 forward $103 $-1 #
coedge $-1 $189 $105 $106 $177 reversed $63 $-1 #
coedge $-1 $183 $264 $105 $175 reversed $103 $-1 #
edge $-1 $190 -11.442538456138031 $266 11.442538456138031 $174 $267 forward 7 unknown #
coedge $-1 $107 $106 $264 $268 forward $41 $-1 #
edge $-1 $181 -75.566270943327126 $266 75.566270943327126 $173 $269 forward 7 unknown #
coedge $-1 $186 $185 $107 $179 reversed $170 $-1 #
edge $-1 $270 -75.566270943327126 $180 75.566270943327126 $178 $271 forward 7 unknown #
vertex $-1 $109 $272 #
vertex $-1 $192 $273 #
straight-curve $-1 75.566270943327126 0 -11.442538456138031 0 -1 0 I I #
coedge $-1 $172 $174 $110 $184 reversed $103 $-1 #
edge $-1 $187 -42.200373405098077 $190 42.200373405098077 $183 $274 forward 7 unknown #
coedge $-1 $178 $111 $116 $193 forward $170 $-1 #
coedge $-1 $111 $178 $172 $265 reversed $170 $-1 #
vertex $-1 $112 $275 #
straight-curve $-1 0 42.200373405098077 11.442538456138031 -1 0 0 I I #
coedge $-1 $113 $173 $115 $192 reversed $63 $-1 #
vertex $-1 $184 $276 #
straight-curve $-1 0 -42.200373405098077 11.442538456138031 1 0 0 I I #
edge $-1 $118 -11.442538456138031 $181 11.442538456138031 $115 $277 forward 7 unknown #
edge $-1 $119 -11.442538456138031 $180 11.442538456138031 $116 $278 forward 7 unknown #
point $-1 75.566270943327126 -42.200373405098077 11.442538456138031 #
point $-1 75.566270943327126 42.200373405098077 11.442538456138031 #
face $-1 $279 $215 $16 $-1 $280 forward single #
loop $-1 $-1 $281 $121 #
coedge $-1 $282 $124 $210 $283 reversed $71 $-1 #
coedge $-1 $124 $282 $214 $284 reversed $71 $-1 #
edge $-1 $216 -11.442538456138031 $212 11.442538456138031 $124 $285 forward 7 unknown #
coedge $-1 $286 $130 $125 $202 forward $211 $-1 #
edge $-1 $135 -7.0443321618227444 $207 7.0443321618227444 $125 $287 forward 7 unknown #
coedge $-1 $132 $288 $126 $204 forward $215 $-1 #
edge $-1 $208 -7.0443321618227444 $134 7.0443321618227444 $126 $289 forward 7 unknown #
coedge $-1 $290 $127 $288 $291 reversed $122 $-1 #
coedge $-1 $127 $290 $286 $292 reversed $122 $-1 #
vertex $-1 $292 $293 #
vertex $-1 $204 $294 #
straight-curve $-1 -55.681194031051064 -42.200373405098077 0 0 0 1 I I #
coedge $-1 $130 $295 $198 $283 forward $211 $-1 #
loop $-1 $-1 $296 $279 #
vertex $-1 $200 $297 #
straight-curve $-1 -54.181194031051064 -56.289037728743565 -11.442538456138031 -1 0 0 I I #
coedge $-1 $298 $132 $199 $284 forward $215 $-1 #
loop $-1 $-1 $299 $196 #
vertex $-1 $284 $300 #
straight-curve $-1 -54.181194031051064 -56.289037728743565 11.442538456138031 1 0 0 I I #
point $-1 -55.681194031051064 -56.289037728743565 11.442538456138031 #
point $-1 -55.681194031051064 -56.289037728743565 -11.442538456138031 #
face $-1 $301 $302 $17 $-1 $303 reversed single #
loop $-1 $-1 $304 $137 #
plane-surface $-1 -54.181194031051064 -56.289037728743565 0 0 1 0 0 0 1 forward_v I I I I #
coedge $-1 $140 $305 $306 $307 reversed $79 $-1 #
coedge $-1 $142 $141 $231 $308 reversed $49 $-1 #
coedge $-1 $306 $309 $141 $226 forward $310 $-1 #
edge $-1 $311 42.99521588801754 $227 55.52817480436164 $225 $312 forward 7 unknown #
vertex $-1 $307 $313 #
straight-curve $-1 -26.771981091965792 42.200373405098077 2.1287347857482359 1 0 0 I I #
vertex $-1 $308 $314 #
straight-curve $-1 -31.521653424536041 -14.274748708898258 64.850713743112408 0 -0.66913059716165679 0.74314483375859142 I I #
coedge $-1 $315 $145 $224 $308 forward $138 $-1 #
coedge $-1 $145 $316 $147 $235 forward $138 $-1 #
straight-curve $-1 -31.521653424536041 49.019309503486383 11.442538456138038 0 -1 0 I I #
coedge $-1 $305 $147 $317 $318 forward $79 $-1 #
edge $-1 $319 -75.566270943327126 $149 31.521653424536041 $147 $320 forward 7 unknown #
point $-1 -31.521653424536041 42.200373405098077 2.128734785748243 #
point $-1 -31.521653424536041 42.200373405098077 11.442538456138031 #
face $-1 $321 $322 $18 $-1 $323 forward single #
loop $-1 $-1 $324 $151 #
plane-surface $-1 0 42.200373405098077 0 0 -1 0 0 0 -1 forward_v I I I I #
loop $-1 $-1 $325 $86 #
coedge $-1 $243 $154 $326 $327 forward $87 $-1 #
coedge $-1 $154 $242 $328 $329 reversed $87 $-1 #
coedge $-1 $330 $324 $154 $245 forward $239 $-1 #
edge $-1 $331 -80.860326087396004 $332 -71.546522417006202 $244 $333 forward 7 unknown #
edge $-1 $334 1 $334 0 $155 $-1 forward 7 unknown #
vertex $-1 $156 $335 #
ellipse-curve $-1 -62.982094509386812 35.046120143295624 4.1193961395712311 0 0.74314483375859142 0.66913059716165679 1.5 0 0 1 I I #
point $-1 -61.482094509386812 38.007280263150165 6.7856366209431336 #
face $-1 $336 $166 $19 $-1 $337 forward single #
loop $-1 $-1 $338 $159 #
plane-surface $-1 -31.521653424536041 98.038619006972766 165.97812174628848 -1 0 0 0 0.74314483375859142 0.66913059716165679 forward_v I I I I #
loop $-1 $-1 $339 $94 #
coedge $-1 $254 $254 $255 $340 forward $160 $-1 #
coedge $-1 $255 $255 $254 $340 reversed $162 $-1 #
coedge $-1 $256 $256 $163 $257 forward $261 $-1 #
edge $-1 $341 -4.4003013603734533e-016 $341 6.2831853071796004 $256 $342 forward 7 unknown #
edge $-1 $343 1 $343 0 $164 $-1 forward 7 unknown #
vertex $-1 $165 $344 #
ellipse-curve $-1 -44.105829858476355 35.046120143295624 4.1193961395712311 0 0.74314483375859142 0.66913059716165679 1.5 0 0 1 I I #
loop $-1 $345 $256 $250 #
point $-1 -42.605829858476355 38.007280263150165 6.7856366209431336 #
plane-surface $-1 75.566270943327126 0 0 -1 0 0 0 0 1 forward_v I I I I #
coedge $-1 $174 $172 $176 $268 reversed $103 $-1 #
edge $-1 $187 -11.442538456138031 $270 11.442538456138031 $186 $346 forward 7 unknown #
vertex $-1 $268 $347 #
straight-curve $-1 -75.566270943327126 -42.200373405098077 0 0 0 -1 I I #
edge $-1 $266 -42.200373405098077 $270 42.200373405098077 $264 $348 forward 7 unknown #
straight-curve $-1 0 -42.200373405098077 -11.442538456138031 -1 0 0 I I #
vertex $-1 $179 $349 #
straight-curve $-1 0 42.200373405098077 -11.442538456138031 1 0 0 I I #
point $-1 75.566270943327126 42.200373405098077 -11.442538456138031 #
point $-1 75.566270943327126 -42.200373405098077 -11.442538456138031 #
straight-curve $-1 -75.566270943327126 0 11.442538456138031 0 -1 0 I I #
point $-1 -75.566270943327126 42.200373405098077 11.442538456138031 #
point $-1 -75.566270943327126 -42.200373405098077 11.442538456138031 #
straight-curve $-1 75.566270943327126 -42.200373405098077 0 0 0 -1 I I #
straight-curve $-1 75.566270943327126 42.200373405098077 0 0 0 -1 I I #
face $-1 $350 $211 $16 $-1 $351 reversed single #
plane-surface $-1 0 0 11.442538456138031 0 0 1 1 0 0 forward_v I I I I #
coedge $-1 $352 $353 $282 $354 forward $197 $-1 #
coedge $-1 $199 $198 $281 $354 reversed $71 $-1 #
edge $-1 $355 -7.0443321618227444 $212 7.0443321618227444 $198 $356 forward 7 unknown #
edge $-1 $216 -7.0443321618227444 $357 7.0443321618227444 $199 $358 forward 7 unknown #
straight-curve $-1 -52.681194031051064 -56.289037728743565 0 0 0 -1 I I #
coedge $-1 $359 $201 $206 $292 forward $211 $-1 #
straight-curve $-1 -55.681194031051064 -49.244705566920821 -11.442538456138031 0 1 0 I I #
coedge $-1 $203 $360 $205 $291 forward $215 $-1 #
straight-curve $-1 -55.681194031051064 -49.244705566920821 11.442538456138031 0 -1 0 I I #
coedge $-1 $206 $205 $361 $362 forward $122 $-1 #
edge $-1 $363 -75.566270943327126 $208 -55.681194031051064 $205 $364 forward 7 unknown #
edge $-1 $207 55.681194031051064 $365 75.566270943327126 $206 $366 forward 7 unknown #
point $-1 -55.681194031051064 -42.200373405098077 -11.442538456138031 #
point $-1 -55.681194031051064 -42.200373405098077 11.442538456138031 #
coedge $-1 $210 $296 $352 $367 forward $211 $-1 #
coedge $-1 $295 $368 $369 $370 forward $211 $-1 #
point $-1 -52.681194031051064 -56.289037728743565 -11.442538456138031 #
coedge $-1 $299 $214 $353 $371 forward $215 $-1 #
coedge $-1 $372 $298 $373 $374 forward $215 $-1 #
point $-1 -52.681194031051064 -56.289037728743565 11.442538456138031 #
face $-1 $375 $376 $17 $-1 $377 reversed single #
loop $-1 $-1 $378 $220 #
plane-surface $-1 -55.681194031051064 -49.244705566920821 0 1 0 0 0 0 -1 forward_v I I I I #
coedge $-1 $379 $380 $381 $382 forward $221 $-1 #
coedge $-1 $223 $234 $383 $384 reversed $79 $-1 #
coedge $-1 $385 $225 $223 $307 forward $310 $-1 #
edge $-1 $227 -2.1287347857482457 $386 11.442538456138031 $223 $387 forward 7 unknown #
edge $-1 $229 4.749672332570249 $311 48.794289851361334 $231 $388 forward 7 unknown #
coedge $-1 $225 $389 $315 $390 reversed $310 $-1 #
loop $-1 $-1 $225 $391 #
vertex $-1 $390 $392 #
straight-curve $-1 -75.566270943327126 5.0447726389587011 43.394211019653582 0 0.66913059716165679 -0.74314483375859142 I I #
point $-1 -75.566270943327126 42.200373405098077 2.1287347857482457 #
point $-1 -31.521653424536041 33.814187121202238 11.442538456138038 #
coedge $-1 $393 $231 $309 $390 forward $138 $-1 #
coedge $-1 $232 $394 $395 $396 forward $138 $-1 #
coedge $-1 $395 $397 $234 $318 reversed $398 $-1 #
edge $-1 $319 -11.442538456138031 $399 11.442538456138031 $317 $400 forward 7 unknown #
vertex $-1 $396 $401 #
straight-curve $-1 0 42.200373405098077 11.442538456138031 -1 0 0 I I #
face $-1 $402 $403 $18 $-1 $404 reversed single #
loop $-1 $-1 $328 $238 #
plane-surface $-1 0 0 11.442538456138031 0 0 1 1 0 0 forward_v I I I I #
coedge $-1 $244 $405 $325 $406 forward $239 $-1 #
coedge $-1 $407 $326 $324 $406 reversed $241 $-1 #
coedge $-1 $325 $408 $242 $327 reversed $241 $-1 #
edge $-1 $331 -84.400746810196125 $409 -71.867787893852011 $242 $410 forward 7 unknown #
coedge $-1 $411 $412 $243 $329 forward $322 $-1 #
edge $-1 $332 6.8189360983883063 $409 15.205122382284145 $328 $413 forward 7 unknown #
coedge $-1 $414 $244 $412 $415 reversed $239 $-1 #
vertex $-1 $406 $416 #
vertex $-1 $329 $417 #
straight-curve $-1 -31.521653424536041 42.200373405098077 82.98906087314424 0 0 1 I I #
vertex $-1 $246 $418 #
point $-1 -61.482094509386812 35.046120143295624 4.1193961395712311 #
face $-1 $419 $420 $19 $-1 $421 reversed single #
plane-surface $-1 -53.543962183931583 -14.274748708898258 64.850713743112408 0 0.74314483375859142 0.66913059716165679 1 0 0 forward_v I I I I #
coedge $-1 $422 $423 $424 $425 reversed $251 $-1 #
coedge $-1 $339 $339 $-1 $426 forward $253 $-1 #
edge $-1 $427 0 $427 6.2831853071796004 $254 $428 forward 7 unknown #
vertex $-1 $257 $429 #
ellipse-curve $-1 -62.982094509386812 38.007280263150165 6.7856366209431345 0 -0.74314483375859142 -0.66913059716165679 1.5 0 0 1 I I #
vertex $-1 $258 $430 #
point $-1 -42.605829858476355 35.046120143295624 4.1193961395712311 #
loop $-1 $-1 $431 $250 #
straight-curve $-1 -75.566270943327126 42.200373405098077 0 0 0 -1 I I #
point $-1 -75.566270943327126 -42.200373405098077 -11.442538456138031 #
straight-curve $-1 -75.566270943327126 0 -11.442538456138031 0 1 0 I I #
point $-1 -75.566270943327126 42.200373405098077 -11.442538456138031 #
face $-1 $432 $433 $16 $-1 $434 reversed single #
plane-surface $-1 0 0 -11.442538456138031 0 0 1 1 0 0 forward_v I I I I #
coedge $-1 $435 $281 $295 $367 reversed $197 $-1 #
coedge $-1 $281 $435 $298 $371 reversed $197 $-1 #
edge $-1 $357 -11.442538456138031 $355 11.442538456138031 $281 $436 forward 7 unknown #
vertex $-1 $283 $437 #
straight-curve $-1 -52.681194031051064 -49.244705566920821 -11.442538456138031 0 -1 0 I I #
vertex $-1 $371 $438 #
straight-curve $-1 -52.681194031051064 -49.244705566920821 11.442538456138031 0 1 0 I I #
coedge $-1 $368 $286 $439 $440 forward $211 $-1 #
coedge $-1 $288 $372 $441 $442 forward $215 $-1 #
coedge $-1 $441 $439 $290 $362 reversed $433 $-1 #
edge $-1 $363 -11.442538456138031 $365 11.442538456138031 $361 $443 forward 7 unknown #
vertex $-1 $442 $444 #
straight-curve $-1 0 -42.200373405098077 11.442538456138031 1 0 0 I I #
vertex $-1 $440 $445 #
straight-curve $-1 0 -42.200373405098077 -11.442538456138031 -1 0 0 I I #
edge $-1 $446 -75.566270943327126 $355 52.681194031051064 $352 $366 forward 7 unknown #
coedge $-1 $296 $359 $447 $448 forward $211 $-1 #
coedge $-1 $449 $450 $296 $370 reversed $451 $-1 #
edge $-1 $452 -42.200373405098077 $446 42.200373405098077 $369 $453 forward 7 unknown #
edge $-1 $357 -52.681194031051064 $454 75.566270943327126 $353 $364 forward 7 unknown #
coedge $-1 $360 $299 $455 $456 forward $215 $-1 #
coedge $-1 $450 $449 $299 $374 reversed $451 $-1 #
edge $-1 $454 -42.200373405098077 $457 42.200373405098077 $373 $458 forward 7 unknown #
face $-1 $459 $460 $17 $-1 $461 reversed single #
loop $-1 $-1 $462 $301 #
plane-surface $-1 -52.681194031051064 -49.244705566920821 0 -1 0 0 0 0 1 forward_v I I I I #
coedge $-1 $463 $464 $465 $466 reversed $302 $-1 #
coedge $-1 $467 $304 $468 $469 reversed $221 $-1 #
coedge $-1 $304 $467 $470 $471 reversed $221 $-1 #
coedge $-1 $464 $463 $304 $382 reversed $302 $-1 #
edge $-1 $472 -11.442538456138031 $473 11.442538456138031 $381 $474 forward 7 unknown #
coedge $-1 $475 $476 $305 $384 forward $477 $-1 #
edge $-1 $386 -75.566270943327126 $399 75.566270943327126 $305 $478 forward 7 unknown #
coedge $-1 $389 $306 $476 $479 reversed $310 $-1 #
vertex $-1 $384 $480 #
straight-curve $-1 -75.566270943327126 42.200373405098077 0 0 0 -1 I I #
straight-curve $-1 -26.771981091965792 33.814187121202238 11.442538456138031 -1 0 0 I I #
coedge $-1 $309 $385 $481 $482 reversed $310 $-1 #
edge $-1 $311 -33.814187121202238 $483 42.200373405098077 $309 $484 forward 7 unknown #
face $-1 $485 $310 $17 $-1 $486 reversed single #
point $-1 -75.566270943327126 33.814187121202238 11.442538456138038 #
coedge $-1 $487 $315 $488 $489 forward $138 $-1 #
coedge $-1 $316 $490 $491 $492 forward $138 $-1 #
coedge $-1 $493 $317 $316 $396 reversed $398 $-1 #
edge $-1 $494 -42.200373405098077 $319 42.200373405098077 $395 $495 forward 7 unknown #
coedge $-1 $317 $493 $475 $496 reversed $398 $-1 #
loop $-1 $-1 $493 $485 #
vertex $-1 $496 $497 #
straight-curve $-1 75.566270943327126 42.200373405098077 0 0 0 -1 I I #
point $-1 75.566270943327126 42.200373405098077 11.442538456138031 #
face $-1 $498 $499 $18 $-1 $500 reversed single #
loop $-1 $-1 $501 $321 #
plane-surface $-1 -54.181194031051064 -56.289037728743565 0 0 1 0 0 0 1 forward_v I I I I #
coedge $-1 $324 $502 $503 $504 reversed $239 $-1 #
edge $-1 $505 -48.794289851361334 $331 -4.749672332570249 $324 $506 forward 7 unknown #
coedge $-1 $408 $325 $507 $508 reversed $241 $-1 #
coedge $-1 $326 $407 $411 $509 reversed $241 $-1 #
vertex $-1 $509 $510 #
straight-curve $-1 -31.521653424536041 -14.274748708898258 64.850713743112408 0 -0.66913059716165679 0.74314483375859142 I I #
coedge $-1 $511 $328 $408 $509 forward $322 $-1 #
coedge $-1 $328 $512 $330 $415 forward $322 $-1 #
straight-curve $-1 -31.521653424536041 49.019309503486383 11.442538456138038 0 -1 0 I I #
coedge $-1 $502 $330 $513 $514 forward $239 $-1 #
edge $-1 $515 -75.566270943327126 $332 31.521653424536041 $330 $516 forward 7 unknown #
point $-1 -31.521653424536041 42.200373405098077 2.128734785748243 #
point $-1 -31.521653424536041 42.200373405098077 11.442538456138031 #
point $-1 -62.982094509386812 33.931402892657744 3.115700243828746 #
face $-1 $517 $518 $19 $-1 $519 forward single #
loop $-1 $-1 $520 $336 #
plane-surface $-1 0 42.200373405098077 0 0 -1 0 0 0 -1 forward_v I I I I #
coedge $-1 $423 $338 $521 $522 forward $251 $-1 #
coedge $-1 $338 $422 $523 $524 reversed $251 $-1 #
coedge $-1 $525 $520 $338 $425 forward $420 $-1 #
edge $-1 $526 -80.860326087396004 $527 -71.546522417006202 $424 $528 forward 7 unknown #
edge $-1 $529 1 $529 0 $339 $-1 forward 7 unknown #
vertex $-1 $340 $530 #
ellipse-curve $-1 -62.982094509386812 35.046120143295624 4.1193961395712311 0 0.74314483375859142 0.66913059716165679 1.5 0 0 1 I I #
point $-1 -61.482094509386812 38.007280263150165 6.7856366209431336 #
point $-1 -44.105829858476355 33.931402892657744 3.115700243828746 #
coedge $-1 $531 $521 $520 $532 reversed $345 $-1 #
face $-1 $533 $534 $16 $-1 $535 reversed single #
loop $-1 $-1 $536 $350 #
plane-surface $-1 -75.566270943327126 0 0 1 0 0 0 0 -1 forward_v I I I I #
coedge $-1 $353 $352 $450 $537 reversed $197 $-1 #
straight-curve $-1 -52.681194031051064 -42.200373405098077 0 0 0 -1 I I #
point $-1 -52.681194031051064 -42.200373405098077 -11.442538456138031 #
point $-1 -52.681194031051064 -42.200373405098077 11.442538456138031 #
coedge $-1 $361 $536 $359 $440 reversed $433 $-1 #
edge $-1 $365 -42.200373405098077 $538 42.200373405098077 $439 $539 forward 7 unknown #
coedge $-1 $536 $361 $360 $442 reversed $433 $-1 #
edge $-1 $540 -42.200373405098077 $363 42.200373405098077 $441 $541 forward 7 unknown #
straight-curve $-1 -75.566270943327126 -42.200373405098077 0 0 0 -1 I I #
point $-1 -75.566270943327126 -42.200373405098077 11.442538456138031 #
point $-1 -75.566270943327126 -42.200373405098077 -11.442538456138031 #
vertex $-1 $537 $542 #
coedge $-1 $543 $544 $368 $448 reversed $534 $-1 #
edge $-1 $538 -75.566270943327126 $452 75.566270943327126 $447 $545 forward 7 unknown #
coedge $-1 $373 $369 $544 $546 reversed $451 $-1 #
coedge $-1 $369 $373 $435 $537 forward $451 $-1 #
loop $-1 $-1 $450 $533 #
vertex $-1 $370 $547 #
straight-curve $-1 75.566270943327126 0 -11.442538456138031 0 -1 0 I I #
vertex $-1 $374 $548 #
coedge $-1 $544 $543 $372 $456 reversed $534 $-1 #
edge $-1 $457 -75.566270943327126 $540 75.566270943327126 $455 $549 forward 7 unknown #
vertex $-1 $374 $550 #
straight-curve $-1 75.566270943327126 0 11.442538456138031 0 1 0 I I #
face $-1 $551 $552 $17 $-1 $461 reversed single #
loop $-1 $-1 $465 $375 #
plane-surface $-1 0 -42.200373405098077 0 0 1 0 0 0 1 forward_v I I I I #
coedge $-1 $553 $554 $467 $555 forward $376 $-1 #
coedge $-1 $381 $378 $556 $557 reversed $302 $-1 #
coedge $-1 $378 $381 $487 $558 reversed $302 $-1 #
coedge $-1 $488 $559 $378 $466 forward $460 $-1 #
edge $-1 $560 -11.442538456138031 $561 11.442538456138031 $465 $562 forward 7 unknown #
coedge $-1 $380 $379 $462 $555 reversed $221 $-1 #
coedge $-1 $556 $563 $379 $469 forward $477 $-1 #
edge $-1 $564 -1.5 $473 1.5 $379 $565 forward 7 unknown #
coedge $-1 $490 $487 $380 $471 forward $138 $-1 #
edge $-1 $472 -1.5 $566 1.5 $380 $567 forward 7 unknown #
vertex $-1 $558 $568 #
vertex $-1 $557 $569 #
straight-curve $-1 -55.681194031051064 -56.289037728743565 0 0 0 -1 I I #
coedge $-1 $570 $383 $397 $496 forward $477 $-1 #
coedge $-1 $383 $571 $385 $479 forward $477 $-1 #
loop $-1 $-1 $475 $551 #
straight-curve $-1 0 42.200373405098077 -11.442538456138031 1 0 0 I I #
edge $-1 $572 -42.200373405098077 $386 42.200373405098077 $385 $573 forward 7 unknown #
point $-1 -75.566270943327126 42.200373405098077 -11.442538456138031 #
coedge $-1 $559 $488 $389 $482 forward $460 $-1 #
edge $-1 $483 -11.442538456138031 $572 11.442538456138031 $389 $574 forward 7 unknown #
vertex $-1 $390 $575 #
straight-curve $-1 -75.566270943327126 0 11.442538456138031 0 -1 0 I I #
face $-1 $-1 $398 $17 $-1 $576 reversed single #
plane-surface $-1 -75.566270943327126 0 0 1 0 0 0 0 -1 forward_v I I I I #
coedge $-1 $470 $393 $464 $558 forward $138 $-1 #
coedge $-1 $481 $465 $393 $489 reversed $460 $-1 #
edge $-1 $483 -75.566270943327126 $561 -55.681194031051064 $488 $577 forward 7 unknown #
coedge $-1 $394 $470 $554 $578 forward $138 $-1 #
coedge $-1 $579 $580 $394 $492 reversed $552 $-1 #
edge $-1 $581 -52.681194031051064 $494 75.566270943327126 $491 $577 forward 7 unknown #
coedge $-1 $397 $395 $580 $582 forward $398 $-1 #
vertex $-1 $396 $583 #
straight-curve $-1 75.566270943327126 0 11.442538456138031 0 1 0 I I #
edge $-1 $399 -42.200373405098077 $584 42.200373405098077 $397 $585 forward 7 unknown #
point $-1 75.566270943327126 42.200373405098077 -11.442538456138031 #
face $-1 $586 $587 $18 $-1 $588 reversed single #
loop $-1 $-1 $589 $402 #
plane-surface $-1 -55.681194031051064 -49.244705566920821 0 1 0 0 0 0 -1 forward_v I I I I #
coedge $-1 $590 $591 $592 $593 forward $403 $-1 #
coedge $-1 $405 $414 $594 $595 reversed $239 $-1 #
coedge $-1 $596 $507 $405 $504 forward $597 $-1 #
edge $-1 $505 -2.1287347857482457 $598 11.442538456138031 $405 $599 forward 7 unknown #
vertex $-1 $504 $600 #
straight-curve $-1 -26.771981091965792 42.200373405098077 2.1287347857482359 1 0 0 I I #
coedge $-1 $503 $601 $407 $508 forward $597 $-1 #
edge $-1 $602 42.99521588801754 $505 55.52817480436164 $507 $603 forward 7 unknown #
edge $-1 $409 4.749672332570249 $602 48.794289851361334 $411 $604 forward 7 unknown #
point $-1 -31.521653424536041 33.814187121202238 11.442538456138038 #
coedge $-1 $605 $411 $601 $606 forward $322 $-1 #
coedge $-1 $412 $607 $608 $609 forward $322 $-1 #
coedge $-1 $608 $610 $414 $514 reversed $611 $-1 #
edge $-1 $515 -11.442538456138031 $612 11.442538456138031 $513 $613 forward 7 unknown #
vertex $-1 $609 $614 #
straight-curve $-1 0 42.200373405098077 11.442538456138031 -1 0 0 I I #
face $-1 $615 $616 $19 $-1 $617 reversed single #
loop $-1 $-1 $523 $419 #
plane-surface $-1 0 0 11.442538456138031 0 0 1 1 0 0 forward_v I I I I #
coedge $-1 $424 $618 $431 $532 forward $420 $-1 #
coedge $-1 $431 $619 $422 $522 reversed $345 $-1 #
edge $-1 $526 -84.400746810196125 $620 -71.867787893852011 $422 $621 forward 7 unknown #
coedge $-1 $622 $623 $423 $524 forward $518 $-1 #
edge $-1 $527 6.8189360983883063 $620 15.205122382284145 $523 $624 forward 7 unknown #
coedge $-1 $625 $424 $623 $626 reversed $420 $-1 #
vertex $-1 $532 $627 #
vertex $-1 $524 $628 #
straight-curve $-1 -31.521653424536041 42.200373405098077 82.98906087314424 0 0 1 I I #
vertex $-1 $426 $629 #
point $-1 -61.482094509386812 35.046120143295624 4.1193961395712311 #
coedge $-1 $619 $431 $630 $631 reversed $345 $-1 #
edge $-1 $632 -48.794289851361334 $526 -4.749672332570249 $520 $633 forward 7 unknown #
face $-1 $-1 $451 $16 $-1 $634 reversed single #
loop $-1 $-1 $544 $432 #
plane-surface $-1 0 42.200373405098077 0 0 -1 0 0 0 -1 forward_v I I I I #
coedge $-1 $439 $441 $543 $635 forward $433 $-1 #
edge $-1 $454 -11.442538456138031 $446 11.442538456138031 $450 $636 forward 7 unknown #
vertex $-1 $448 $637 #
straight-curve $-1 -75.566270943327126 0 -11.442538456138031 0 1 0 I I #
vertex $-1 $456 $638 #
straight-curve $-1 -75.566270943327126 0 11.442538456138031 0 -1 0 I I #
point $-1 75.566270943327126 -42.200373405098077 -11.442538456138031 #
coedge $-1 $455 $447 $536 $635 reversed $534 $-1 #
coedge $-1 $447 $455 $449 $546 forward $534 $-1 #
straight-curve $-1 0 42.200373405098077 -11.442538456138031 1 0 0 I I #
edge $-1 $457 -11.442538456138031 $452 11.442538456138031 $449 $639 forward 7 unknown #
point $-1 75.566270943327126 42.200373405098077 -11.442538456138031 #
point $-1 75.566270943327126 -42.200373405098077 11.442538456138031 #
straight-curve $-1 0 42.200373405098077 11.442538456138031 -1 0 0 I I #
point $-1 75.566270943327126 42.200373405098077 11.442538456138031 #
face $-1 $391 $477 $17 $-1 $640 reversed single #
loop $-1 $-1 $579 $459 #
coedge $-1 $641 $462 $563 $642 reversed $376 $-1 #
coedge $-1 $462 $641 $490 $578 reversed $376 $-1 #
edge $-1 $566 -11.442538456138031 $564 11.442538456138031 $462 $643 forward 7 unknown #
coedge $-1 $571 $468 $463 $557 forward $477 $-1 #
edge $-1 $473 -7.0443321618227444 $560 7.0443321618227444 $463 $644 forward 7 unknown #
edge $-1 $561 -7.0443321618227444 $472 7.0443321618227444 $464 $645 forward 7 unknown #
coedge $-1 $465 $481 $571 $646 reversed $460 $-1 #
vertex $-1 $646 $647 #
vertex $-1 $558 $648 #
straight-curve $-1 -55.681194031051064 -42.200373405098077 0 0 0 1 I I #
coedge $-1 $468 $570 $553 $642 forward $477 $-1 #
vertex $-1 $555 $649 #
straight-curve $-1 -54.181194031051064 -56.289037728743565 -11.442538456138031 -1 0 0 I I #
vertex $-1 $578 $650 #
straight-curve $-1 -54.181194031051064 -56.289037728743565 11.442538456138031 1 0 0 I I #
point $-1 -55.681194031051064 -56.289037728743565 11.442538456138031 #
point $-1 -55.681194031051064 -56.289037728743565 -11.442538456138031 #
coedge $-1 $563 $475 $651 $652 forward $477 $-1 #
coedge $-1 $476 $556 $559 $646 forward $477 $-1 #
vertex $-1 $479 $653 #
straight-curve $-1 -75.566270943327126 0 -11.442538456138031 0 1 0 I I #
straight-curve $-1 -75.566270943327126 -42.200373405098077 0 0 0 -1 I I #
point $-1 -75.566270943327126 -42.200373405098077 11.442538456138031 #
plane-surface $-1 75.566270943327126 0 0 -1 0 0 0 0 1 forward_v I I I I #
straight-curve $-1 0 -42.200373405098077 11.442538456138031 1 0 0 I I #
edge $-1 $566 -7.0443321618227444 $581 7.0443321618227444 $554 $654 forward 7 unknown #
coedge $-1 $651 $491 $641 $655 forward $552 $-1 #
coedge $-1 $491 $651 $493 $582 reversed $552 $-1 #
vertex $-1 $492 $656 #
edge $-1 $494 -11.442538456138031 $584 11.442538456138031 $493 $657 forward 7 unknown #
point $-1 75.566270943327126 -42.200373405098077 11.442538456138031 #
vertex $-1 $582 $658 #
straight-curve $-1 75.566270943327126 0 -11.442538456138031 0 -1 0 I I #
face $-1 $659 $660 $18 $-1 $661 reversed single #
loop $-1 $-1 $662 $498 #
plane-surface $-1 -52.681194031051064 -49.244705566920821 0 -1 0 0 0 0 1 forward_v I I I I #
coedge $-1 $663 $664 $665 $666 reversed $499 $-1 #
coedge $-1 $667 $501 $668 $669 reversed $403 $-1 #
coedge $-1 $501 $667 $670 $671 reversed $403 $-1 #
coedge $-1 $664 $663 $501 $593 reversed $499 $-1 #
edge $-1 $672 -11.442538456138031 $673 11.442538456138031 $592 $674 forward 7 unknown #
coedge $-1 $675 $676 $502 $595 forward $677 $-1 #
edge $-1 $598 -75.566270943327126 $612 75.566270943327126 $502 $678 forward 7 unknown #
coedge $-1 $679 $503 $676 $680 reversed $597 $-1 #
loop $-1 $-1 $507 $681 #
vertex $-1 $595 $682 #
straight-curve $-1 -75.566270943327126 42.200373405098077 0 0 0 -1 I I #
point $-1 -75.566270943327126 42.200373405098077 2.1287347857482457 #
coedge $-1 $507 $679 $511 $606 reversed $597 $-1 #
vertex $-1 $606 $683 #
straight-curve $-1 -75.566270943327126 5.0447726389587011 43.394211019653582 0 0.66913059716165679 -0.74314483375859142 I I #
straight-curve $-1 -26.771981091965792 33.814187121202238 11.442538456138031 -1 0 0 I I #
coedge $-1 $684 $511 $685 $686 forward $322 $-1 #
edge $-1 $602 -33.814187121202238 $687 42.200373405098077 $601 $688 forward 7 unknown #
coedge $-1 $512 $689 $690 $691 forward $322 $-1 #
coedge $-1 $692 $513 $512 $609 reversed $611 $-1 #
edge $-1 $693 -42.200373405098077 $515 42.200373405098077 $608 $694 forward 7 unknown #
coedge $-1 $513 $692 $675 $695 reversed $611 $-1 #
loop $-1 $-1 $692 $696 #
vertex $-1 $695 $697 #
straight-curve $-1 75.566270943327126 42.200373405098077 0 0 0 -1 I I #
point $-1 75.566270943327126 42.200373405098077 11.442538456138031 #
face $-1 $698 $699 $19 $-1 $700 reversed single #
loop $-1 $-1 $701 $517 #
plane-surface $-1 -54.181194031051064 -56.289037728743565 0 0 1 0 0 0 1 forward_v I I I I #
coedge $-1 $520 $702 $703 $704 reversed $420 $-1 #
coedge $-1 $521 $531 $622 $705 reversed $345 $-1 #
vertex $-1 $705 $706 #
straight-curve $-1 -31.521653424536041 -14.274748708898258 64.850713743112408 0 -0.66913059716165679 0.74314483375859142 I I #
coedge $-1 $707 $523 $619 $705 forward $518 $-1 #
coedge $-1 $523 $708 $525 $626 forward $518 $-1 #
straight-curve $-1 -31.521653424536041 49.019309503486383 11.442538456138038 0 -1 0 I I #
coedge $-1 $702 $525 $709 $710 forward $420 $-1 #
edge $-1 $711 -75.566270943327126 $527 31.521653424536041 $525 $712 forward 7 unknown #
point $-1 -31.521653424536041 42.200373405098077 2.128734785748243 #
point $-1 -31.521653424536041 42.200373405098077 11.442538456138031 #
point $-1 -62.982094509386812 33.931402892657744 3.115700243828746 #
coedge $-1 $703 $713 $531 $631 forward $714 $-1 #
edge $-1 $715 42.99521588801754 $632 55.52817480436164 $630 $716 forward 7 unknown #
vertex $-1 $704 $717 #
straight-curve $-1 -26.771981091965792 42.200373405098077 2.1287347857482359 1 0 0 I I #
plane-surface $-1 75.566270943327126 0 0 -1 0 0 0 0 1 forward_v I I I I #
edge $-1 $540 -11.442538456138031 $538 11.442538456138031 $543 $718 forward 7 unknown #
straight-curve $-1 75.566270943327126 -42.200373405098077 0 0 0 -1 I I #
point $-1 -75.566270943327126 42.200373405098077 -11.442538456138031 #
point $-1 -75.566270943327126 42.200373405098077 11.442538456138031 #
straight-curve $-1 75.566270943327126 42.200373405098077 0 0 0 -1 I I #
plane-surface $-1 0 0 -11.442538456138031 0 0 1 1 0 0 forward_v I I I I #
coedge $-1 $554 $553 $579 $655 reversed $376 $-1 #
edge $-1 $719 -7.0443321618227444 $564 7.0443321618227444 $553 $720 forward 7 unknown #
straight-curve $-1 -52.681194031051064 -56.289037728743565 0 0 0 -1 I I #
straight-curve $-1 -55.681194031051064 -49.244705566920821 -11.442538456138031 0 1 0 I I #
straight-curve $-1 -55.681194031051064 -49.244705566920821 11.442538456138031 0 -1 0 I I #
edge $-1 $560 55.681194031051064 $572 75.566270943327126 $559 $721 forward 7 unknown #
point $-1 -55.681194031051064 -42.200373405098077 -11.442538456138031 #
point $-1 -55.681194031051064 -42.200373405098077 11.442538456138031 #
point $-1 -52.681194031051064 -56.289037728743565 -11.442538456138031 #
point $-1 -52.681194031051064 -56.289037728743565 11.442538456138031 #
coedge $-1 $580 $579 $570 $652 reversed $552 $-1 #
edge $-1 $584 -75.566270943327126 $719 52.681194031051064 $651 $721 forward 7 unknown #
point $-1 -75.566270943327126 -42.200373405098077 -11.442538456138031 #
straight-curve $-1 -52.681194031051064 -49.244705566920821 11.442538456138031 0 1 0 I I #
edge $-1 $581 -11.442538456138031 $719 11.442538456138031 $579 $722 forward 7 unknown #
point $-1 -52.681194031051064 -42.200373405098077 11.442538456138031 #
straight-curve $-1 75.566270943327126 -42.200373405098077 0 0 0 -1 I I #
point $-1 75.566270943327126 -42.200373405098077 -11.442538456138031 #
face $-1 $723 $724 $18 $-1 $661 reversed single #
loop $-1 $-1 $665 $586 #
plane-surface $-1 0 -42.200373405098077 0 0 1 0 0 0 1 forward_v I I I I #
coedge $-1 $725 $726 $667 $727 forward $587 $-1 #
coedge $-1 $592 $589 $728 $729 reversed $499 $-1 #
coedge $-1 $589 $592 $684 $730 reversed $499 $-1 #
coedge $-1 $685 $731 $589 $666 forward $660 $-1 #
edge $-1 $732 -11.442538456138031 $733 11.442538456138031 $665 $734 forward 7 unknown #
coedge $-1 $591 $590 $662 $727 reversed $403 $-1 #
coedge $-1 $728 $735 $590 $669 forward $677 $-1 #
edge $-1 $736 -1.5 $673 1.5 $590 $737 forward 7 unknown #
coedge $-1 $689 $684 $591 $671 forward $322 $-1 #
edge $-1 $672 -1.5 $738 1.5 $591 $739 forward 7 unknown #
vertex $-1 $730 $740 #
vertex $-1 $729 $741 #
straight-curve $-1 -55.681194031051064 -56.289037728743565 0 0 0 -1 I I #
coedge $-1 $742 $594 $610 $695 forward $677 $-1 #
coedge $-1 $594 $743 $596 $680 forward $677 $-1 #
loop $-1 $-1 $675 $723 #
straight-curve $-1 0 42.200373405098077 -11.442538456138031 1 0 0 I I #
coedge $-1 $601 $596 $744 $745 reversed $597 $-1 #
edge $-1 $746 -42.200373405098077 $598 42.200373405098077 $596 $747 forward 7 unknown #
face $-1 $696 $597 $18 $-1 $748 reversed single #
point $-1 -75.566270943327126 42.200373405098077 -11.442538456138031 #
point $-1 -75.566270943327126 33.814187121202238 11.442538456138038 #
coedge $-1 $670 $605 $664 $730 forward $322 $-1 #
coedge $-1 $744 $665 $605 $686 reversed $660 $-1 #
edge $-1 $687 -75.566270943327126 $733 -55.681194031051064 $685 $749 forward 7 unknown #
vertex $-1 $606 $750 #
straight-curve $-1 -75.566270943327126 0 11.442538456138031 0 -1 0 I I #
coedge $-1 $607 $670 $726 $751 forward $322 $-1 #
coedge $-1 $752 $753 $607 $691 reversed $724 $-1 #
edge $-1 $754 -52.681194031051064 $693 75.566270943327126 $690 $749 forward 7 unknown #
coedge $-1 $610 $608 $753 $755 forward $611 $-1 #
vertex $-1 $609 $756 #
straight-curve $-1 75.566270943327126 0 11.442538456138031 0 1 0 I I #
edge $-1 $612 -42.200373405098077 $757 42.200373405098077 $610 $758 forward 7 unknown #
face $-1 $-1 $611 $18 $-1 $759 reversed single #
point $-1 75.566270943327126 42.200373405098077 -11.442538456138031 #
face $-1 $760 $761 $19 $-1 $762 reversed single #
loop $-1 $-1 $763 $615 #
plane-surface $-1 -55.681194031051064 -49.244705566920821 0 1 0 0 0 0 -1 forward_v I I I I #
coedge $-1 $764 $765 $766 $767 forward $616 $-1 #
coedge $-1 $618 $625 $768 $769 reversed $420 $-1 #
coedge $-1 $770 $630 $618 $704 forward $714 $-1 #
edge $-1 $632 -2.1287347857482457 $771 11.442538456138031 $618 $772 forward 7 unknown #
edge $-1 $620 4.749672332570249 $715 48.794289851361334 $622 $773 forward 7 unknown #
point $-1 -31.521653424536041 33.814187121202238 11.442538456138038 #
coedge $-1 $774 $622 $713 $775 forward $518 $-1 #
coedge $-1 $623 $776 $777 $778 forward $518 $-1 #
coedge $-1 $777 $779 $625 $710 reversed $780 $-1 #
edge $-1 $711 -11.442538456138031 $781 11.442538456138031 $709 $782 forward 7 unknown #
vertex $-1 $778 $783 #
straight-curve $-1 0 42.200373405098077 11.442538456138031 -1 0 0 I I #
coedge $-1 $630 $784 $707 $775 reversed $714 $-1 #
loop $-1 $-1 $630 $785 #
vertex $-1 $775 $786 #
straight-curve $-1 -75.566270943327126 5.0447726389587011 43.394211019653582 0 0.66913059716165679 -0.74314483375859142 I I #
point $-1 -75.566270943327126 42.200373405098077 2.1287347857482457 #
straight-curve $-1 -75.566270943327126 42.200373405098077 0 0 0 -1 I I #
vertex $-1 $642 $787 #
straight-curve $-1 -52.681194031051064 -49.244705566920821 -11.442538456138031 0 -1 0 I I #
straight-curve $-1 0 -42.200373405098077 -11.442538456138031 -1 0 0 I I #
straight-curve $-1 -52.681194031051064 -42.200373405098077 0 0 0 -1 I I #
face $-1 $681 $677 $18 $-1 $788 reversed single #
loop $-1 $-1 $752 $659 #
coedge $-1 $789 $662 $735 $790 reversed $587 $-1 #
coedge $-1 $662 $789 $689 $751 reversed $587 $-1 #
edge $-1 $738 -11.442538456138031 $736 11.442538456138031 $662 $791 forward 7 unknown #
coedge $-1 $743 $668 $663 $729 forward $677 $-1 #
edge $-1 $673 -7.0443321618227444 $732 7.0443321618227444 $663 $792 forward 7 unknown #
edge $-1 $733 -7.0443321618227444 $672 7.0443321618227444 $664 $793 forward 7 unknown #
coedge $-1 $665 $744 $743 $794 reversed $660 $-1 #
vertex $-1 $794 $795 #
vertex $-1 $730 $796 #
straight-curve $-1 -55.681194031051064 -42.200373405098077 0 0 0 1 I I #
coedge $-1 $668 $742 $725 $790 forward $677 $-1 #
vertex $-1 $727 $797 #
straight-curve $-1 -54.181194031051064 -56.289037728743565 -11.442538456138031 -1 0 0 I I #
vertex $-1 $751 $798 #
straight-curve $-1 -54.181194031051064 -56.289037728743565 11.442538456138031 1 0 0 I I #
point $-1 -55.681194031051064 -56.289037728743565 11.442538456138031 #
point $-1 -55.681194031051064 -56.289037728743565 -11.442538456138031 #
coedge $-1 $735 $675 $799 $800 forward $677 $-1 #
coedge $-1 $676 $728 $731 $794 forward $677 $-1 #
coedge $-1 $731 $685 $679 $745 forward $660 $-1 #
edge $-1 $687 -11.442538456138031 $746 11.442538456138031 $679 $801 forward 7 unknown #
vertex $-1 $680 $802 #
straight-curve $-1 -75.566270943327126 0 -11.442538456138031 0 1 0 I I #
plane-surface $-1 -75.566270943327126 0 0 1 0 0 0 0 -1 forward_v I I I I #
straight-curve $-1 0 -42.200373405098077 11.442538456138031 1 0 0 I I #
point $-1 -75.566270943327126 -42.200373405098077 11.442538456138031 #
edge $-1 $738 -7.0443321618227444 $754 7.0443321618227444 $726 $803 forward 7 unknown #
coedge $-1 $799 $690 $789 $804 forward $724 $-1 #
coedge $-1 $690 $799 $692 $755 reversed $724 $-1 #
vertex $-1 $691 $805 #
edge $-1 $693 -11.442538456138031 $757 11.442538456138031 $692 $806 forward 7 unknown #
point $-1 75.566270943327126 -42.200373405098077 11.442538456138031 #
vertex $-1 $755 $807 #
straight-curve $-1 75.566270943327126 0 -11.442538456138031 0 -1 0 I I #
plane-surface $-1 75.566270943327126 0 0 -1 0 0 0 0 1 forward_v I I I I #
face $-1 $808 $809 $19 $-1 $810 reversed single #
loop $-1 $-1 $811 $698 #
plane-surface $-1 -52.681194031051064 -49.244705566920821 0 -1 0 0 0 0 1 forward_v I I I I #
coedge $-1 $812 $813 $814 $815 reversed $699 $-1 #
coedge $-1 $816 $701 $817 $818 reversed $616 $-1 #
coedge $-1 $701 $816 $819 $820 reversed $616 $-1 #
coedge $-1 $813 $812 $701 $767 reversed $699 $-1 #
edge $-1 $821 -11.442538456138031 $822 11.442538456138031 $766 $823 forward 7 unknown #
coedge $-1 $824 $825 $702 $769 forward $826 $-1 #
edge $-1 $771 -75.566270943327126 $781 75.566270943327126 $702 $827 forward 7 unknown #
coedge $-1 $784 $703 $825 $828 reversed $714 $-1 #
vertex $-1 $769 $829 #
straight-curve $-1 -75.566270943327126 42.200373405098077 0 0 0 -1 I I #
straight-curve $-1 -26.771981091965792 33.814187121202238 11.442538456138031 -1 0 0 I I #
coedge $-1 $830 $707 $831 $832 forward $518 $-1 #
edge $-1 $715 -33.814187121202238 $833 42.200373405098077 $713 $834 forward 7 unknown #
coedge $-1 $708 $835 $836 $837 forward $518 $-1 #
coedge $-1 $838 $709 $708 $778 reversed $780 $-1 #
edge $-1 $839 -42.200373405098077 $711 42.200373405098077 $777 $840 forward 7 unknown #
coedge $-1 $709 $838 $824 $841 reversed $780 $-1 #
loop $-1 $-1 $838 $842 #
vertex $-1 $841 $843 #
straight-curve $-1 75.566270943327126 42.200373405098077 0 0 0 -1 I I #
point $-1 75.566270943327126 42.200373405098077 11.442538456138031 #
coedge $-1 $713 $770 $844 $845 reversed $714 $-1 #
face $-1 $842 $714 $19 $-1 $846 reversed single #
point $-1 -75.566270943327126 33.814187121202238 11.442538456138038 #
point $-1 -52.681194031051064 -42.200373405098077 -11.442538456138031 #
plane-surface $-1 0 0 -11.442538456138031 0 0 1 1 0 0 forward_v I I I I #
coedge $-1 $726 $725 $752 $804 reversed $587 $-1 #
edge $-1 $847 -7.0443321618227444 $736 7.0443321618227444 $725 $848 forward 7 unknown #
straight-curve $-1 -52.681194031051064 -56.289037728743565 0 0 0 -1 I I #
straight-curve $-1 -55.681194031051064 -49.244705566920821 -11.442538456138031 0 1 0 I I #
straight-curve $-1 -55.681194031051064 -49.244705566920821 11.442538456138031 0 -1 0 I I #
edge $-1 $732 55.681194031051064 $746 75.566270943327126 $731 $849 forward 7 unknown #
point $-1 -55.681194031051064 -42.200373405098077 -11.442538456138031 #
point $-1 -55.681194031051064 -42.200373405098077 11.442538456138031 #
point $-1 -52.681194031051064 -56.289037728743565 -11.442538456138031 #
point $-1 -52.681194031051064 -56.289037728743565 11.442538456138031 #
coedge $-1 $753 $752 $742 $800 reversed $724 $-1 #
edge $-1 $757 -75.566270943327126 $847 52.681194031051064 $799 $849 forward 7 unknown #
straight-curve $-1 -75.566270943327126 -42.200373405098077 0 0 0 -1 I I #
point $-1 -75.566270943327126 -42.200373405098077 -11.442538456138031 #
straight-curve $-1 -52.681194031051064 -49.244705566920821 11.442538456138031 0 1 0 I I #
edge $-1 $754 -11.442538456138031 $847 11.442538456138031 $752 $850 forward 7 unknown #
point $-1 -52.681194031051064 -42.200373405098077 11.442538456138031 #
straight-curve $-1 75.566270943327126 -42.200373405098077 0 0 0 -1 I I #
point $-1 75.566270943327126 -42.200373405098077 -11.442538456138031 #
face $-1 $851 $852 $19 $-1 $810 reversed single #
loop $-1 $-1 $814 $760 #
plane-surface $-1 0 -42.200373405098077 0 0 1 0 0 0 1 forward_v I I I I #
coedge $-1 $853 $854 $816 $855 forward $761 $-1 #
coedge $-1 $766 $763 $856 $857 reversed $699 $-1 #
coedge $-1 $763 $766 $830 $858 reversed $699 $-1 #
coedge $-1 $831 $859 $763 $815 forward $809 $-1 #
edge $-1 $860 -11.442538456138031 $861 11.442538456138031 $814 $862 forward 7 unknown #
coedge $-1 $765 $764 $811 $855 reversed $616 $-1 #
coedge $-1 $856 $863 $764 $818 forward $826 $-1 #
edge $-1 $864 -1.5 $822 1.5 $764 $865 forward 7 unknown #
coedge $-1 $835 $830 $765 $820 forward $518 $-1 #
edge $-1 $821 -1.5 $866 1.5 $765 $867 forward 7 unknown #
vertex $-1 $858 $868 #
vertex $-1 $857 $869 #
straight-curve $-1 -55.681194031051064 -56.289037728743565 0 0 0 -1 I I #
coedge $-1 $870 $768 $779 $841 forward $826 $-1 #
coedge $-1 $768 $871 $770 $828 forward $826 $-1 #
loop $-1 $-1 $824 $851 #
straight-curve $-1 0 42.200373405098077 -11.442538456138031 1 0 0 I I #
edge $-1 $872 -42.200373405098077 $771 42.200373405098077 $770 $873 forward 7 unknown #
point $-1 -75.566270943327126 42.200373405098077 -11.442538456138031 #
coedge $-1 $819 $774 $813 $858 forward $518 $-1 #
coedge $-1 $844 $814 $774 $832 reversed $809 $-1 #
edge $-1 $833 -75.566270943327126 $861 -55.681194031051064 $831 $874 forward 7 unknown #
vertex $-1 $775 $875 #
straight-curve $-1 -75.566270943327126 0 11.442538456138031 0 -1 0 I I #
coedge $-1 $776 $819 $854 $876 forward $518 $-1 #
coedge $-1 $877 $878 $776 $837 reversed $852 $-1 #
edge $-1 $879 -52.681194031051064 $839 75.566270943327126 $836 $874 forward 7 unknown #
coedge $-1 $779 $777 $878 $880 forward $780 $-1 #
vertex $-1 $778 $881 #
straight-curve $-1 75.566270943327126 0 11.442538456138031 0 1 0 I I #
edge $-1 $781 -42.200373405098077 $882 42.200373405098077 $779 $883 forward 7 unknown #
face $-1 $-1 $780 $19 $-1 $884 reversed single #
point $-1 75.566270943327126 42.200373405098077 -11.442538456138031 #
coedge $-1 $859 $831 $784 $845 forward $809 $-1 #
edge $-1 $833 -11.442538456138031 $872 11.442538456138031 $784 $885 forward 7 unknown #
plane-surface $-1 -75.566270943327126 0 0 1 0 0 0 0 -1 forward_v I I I I #
vertex $-1 $790 $886 #
straight-curve $-1 -52.681194031051064 -49.244705566920821 -11.442538456138031 0 -1 0 I I #
straight-curve $-1 0 -42.200373405098077 -11.442538456138031 -1 0 0 I I #
straight-curve $-1 -52.681194031051064 -42.200373405098077 0 0 0 -1 I I #
face $-1 $785 $826 $19 $-1 $887 reversed single #
loop $-1 $-1 $877 $808 #
coedge $-1 $888 $811 $863 $889 reversed $761 $-1 #
coedge $-1 $811 $888 $835 $876 reversed $761 $-1 #
edge $-1 $866 -11.442538456138031 $864 11.442538456138031 $811 $890 forward 7 unknown #
coedge $-1 $871 $817 $812 $857 forward $826 $-1 #
edge $-1 $822 -7.0443321618227444 $860 7.0443321618227444 $812 $891 forward 7 unknown #
edge $-1 $861 -7.0443321618227444 $821 7.0443321618227444 $813 $892 forward 7 unknown #
coedge $-1 $814 $844 $871 $893 reversed $809 $-1 #
vertex $-1 $893 $894 #
vertex $-1 $858 $895 #
straight-curve $-1 -55.681194031051064 -42.200373405098077 0 0 0 1 I I #
coedge $-1 $817 $870 $853 $889 forward $826 $-1 #
vertex $-1 $855 $896 #
straight-curve $-1 -54.181194031051064 -56.289037728743565 -11.442538456138031 -1 0 0 I I #
vertex $-1 $876 $897 #
straight-curve $-1 -54.181194031051064 -56.289037728743565 11.442538456138031 1 0 0 I I #
point $-1 -55.681194031051064 -56.289037728743565 11.442538456138031 #
point $-1 -55.681194031051064 -56.289037728743565 -11.442538456138031 #
coedge $-1 $863 $824 $898 $899 forward $826 $-1 #
coedge $-1 $825 $856 $859 $893 forward $826 $-1 #
vertex $-1 $828 $900 #
straight-curve $-1 -75.566270943327126 0 -11.442538456138031 0 1 0 I I #
straight-curve $-1 0 -42.200373405098077 11.442538456138031 1 0 0 I I #
point $-1 -75.566270943327126 -42.200373405098077 11.442538456138031 #
edge $-1 $866 -7.0443321618227444 $879 7.0443321618227444 $854 $901 forward 7 unknown #
coedge $-1 $898 $836 $888 $902 forward $852 $-1 #
coedge $-1 $836 $898 $838 $880 reversed $852 $-1 #
vertex $-1 $837 $903 #
edge $-1 $839 -11.442538456138031 $882 11.442538456138031 $838 $904 forward 7 unknown #
point $-1 75.566270943327126 -42.200373405098077 11.442538456138031 #
vertex $-1 $880 $905 #
straight-curve $-1 75.566270943327126 0 -11.442538456138031 0 -1 0 I I #
plane-surface $-1 75.566270943327126 0 0 -1 0 0 0 0 1 forward_v I I I I #
straight-curve $-1 -75.566270943327126 -42.200373405098077 0 0 0 -1 I I #
point $-1 -52.681194031051064 -42.200373405098077 -11.442538456138031 #
plane-surface $-1 0 0 -11.442538456138031 0 0 1 1 0 0 forward_v I I I I #
coedge $-1 $854 $853 $877 $902 reversed $761 $-1 #
edge $-1 $906 -7.0443321618227444 $864 7.0443321618227444 $853 $907 forward 7 unknown #
straight-curve $-1 -52.681194031051064 -56.289037728743565 0 0 0 -1 I I #
straight-curve $-1 -55.681194031051064 -49.244705566920821 -11.442538456138031 0 1 0 I I #
straight-curve $-1 -55.681194031051064 -49.244705566920821 11.442538456138031 0 -1 0 I I #
edge $-1 $860 55.681194031051064 $872 75.566270943327126 $859 $908 forward 7 unknown #
point $-1 -55.681194031051064 -42.200373405098077 -11.442538456138031 #
point $-1 -55.681194031051064 -42.200373405098077 11.442538456138031 #
point $-1 -52.681194031051064 -56.289037728743565 -11.442538456138031 #
point $-1 -52.681194031051064 -56.289037728743565 11.442538456138031 #
coedge $-1 $878 $877 $870 $899 reversed $852 $-1 #
edge $-1 $882 -75.566270943327126 $906 52.681194031051064 $898 $908 forward 7 unknown #
point $-1 -75.566270943327126 -42.200373405098077 -11.442538456138031 #
straight-curve $-1 -52.681194031051064 -49.244705566920821 11.442538456138031 0 1 0 I I #
edge $-1 $879 -11.442538456138031 $906 11.442538456138031 $877 $909 forward 7 unknown #
point $-1 -52.681194031051064 -42.200373405098077 11.442538456138031 #
straight-curve $-1 75.566270943327126 -42.200373405098077 0 0 0 -1 I I #
point $-1 75.566270943327126 -42.200373405098077 -11.442538456138031 #
vertex $-1 $889 $910 #
straight-curve $-1 -52.681194031051064 -49.244705566920821 -11.442538456138031 0 -1 0 I I #
straight-curve $-1 0 -42.200373405098077 -11.442538456138031 -1 0 0 I I #
straight-curve $-1 -52.681194031051064 -42.200373405098077 0 0 0 -1 I I #
point $-1 -52.681194031051064 -42.200373405098077 -11.442538456138031 #
End-of-ACIS-data 