500 0 10 0           
7 Unknown 11 ACIS 5.0 NT 24 Thu Mar 25 18:10:56 1999 
-1 9.9999999999999995e-007 1e-010 
body $-1 $10 $-1 $11 #
body $-1 $12 $-1 $13 #
body $-1 $14 $-1 $15 #
body $-1 $16 $-1 $17 #
body $-1 $18 $-1 $19 #
body $-1 $20 $-1 $21 #
body $-1 $22 $-1 $23 #
body $-1 $24 $-1 $25 #
body $-1 $26 $-1 $27 #
body $-1 $28 $-1 $29 #
lump $-1 $-1 $30 $0 #
transform $-1 1 0 0 0 1 0 0 0 1 73.677785576952431 34.04733509952738 13.879637686054778 1 rotate no_reflect no_shear #
lump $-1 $-1 $31 $1 #
transform $-1 1 0 0 0 1 0 0 0 1 73.677785576952431 34.04733509952738 13.879637686054778 1 rotate no_reflect no_shear #
lump $-1 $-1 $32 $2 #
transform $-1 1 0 0 0 1 0 0 0 1 73.677785576952431 34.04733509952738 13.879637686054778 1 rotate no_reflect no_shear #
lump $-1 $-1 $33 $3 #
transform $-1 1 0 0 0 1 0 0 0 1 73.677785576952431 34.04733509952738 13.879637686054778 1 rotate no_reflect no_shear #
lump $-1 $-1 $34 $4 #
transform $-1 1 0 0 0 1 0 0 0 1 73.677785576952431 34.04733509952738 13.879637686054778 1 rotate no_reflect no_shear #
lump $-1 $-1 $35 $5 #
transform $-1 1 0 0 0 1 0 0 0 1 73.677785576952431 34.04733509952738 13.879637686054778 1 rotate no_reflect no_shear #
lump $-1 $-1 $36 $6 #
transform $-1 1 0 0 0 1 0 0 0 1 73.677785576952431 34.04733509952738 13.879637686054778 1 rotate no_reflect no_shear #
lump $-1 $-1 $37 $7 #
transform $-1 1 0 0 0 1 0 0 0 1 73.677785576952431 34.04733509952738 13.879637686054778 1 rotate no_reflect no_shear #
lump $-1 $-1 $38 $8 #
transform $-1 1 0 0 0 1 0 0 0 1 73.677785576952431 34.04733509952738 13.879637686054778 1 rotate no_reflect no_shear #
lump $-1 $-1 $39 $9 #
transform $-1 1 0 0 0 1 0 0 0 1 73.677785576952431 34.04733509952738 13.879637686054778 1 rotate no_reflect no_shear #
shell $-1 $-1 $-1 $40 $-1 $10 #
shell $-1 $-1 $-1 $41 $-1 $12 #
shell $-1 $-1 $-1 $42 $-1 $14 #
shell $-1 $-1 $-1 $43 $-1 $16 #
shell $-1 $-1 $-1 $44 $-1 $18 #
shell $-1 $-1 $-1 $45 $-1 $20 #
shell $-1 $-1 $-1 $46 $-1 $22 #
shell $-1 $-1 $-1 $47 $-1 $24 #
shell $-1 $-1 $-1 $48 $-1 $26 #
shell $-1 $-1 $-1 $49 $-1 $28 #
face $-1 $50 $51 $30 $-1 $52 forward single #
face $-1 $53 $54 $31 $-1 $55 forward single #
face $-1 $56 $57 $32 $-1 $58 reversed single #
face $-1 $59 $60 $33 $-1 $61 forward single #
face $-1 $62 $63 $34 $-1 $64 reversed single #
face $-1 $65 $66 $35 $-1 $67 forward single #
face $-1 $68 $69 $36 $-1 $70 reversed single #
face $-1 $71 $72 $37 $-1 $73 forward single #
face $-1 $74 $75 $38 $-1 $76 reversed single #
face $-1 $77 $78 $39 $-1 $79 forward single #
face $-1 $80 $81 $30 $-1 $82 reversed single #
loop $-1 $-1 $83 $40 #
plane-surface $-1 0 0 13.879637686054778 0 0 1 1 0 0 forward_v I I I I #
face $-1 $84 $85 $31 $-1 $86 reversed single #
loop $-1 $-1 $87 $41 #
plane-surface $-1 -68.987635441680212 0 -10.862605080607416 0 0 1 1 0 0 forward_v I I I I #
face $-1 $88 $89 $32 $-1 $90 reversed single #
loop $-1 $-1 $91 $42 #
plane-surface $-1 -15.136189297411835 100.58387500900216 155.88729043357148 1 0 0 0 -0.75470958851134928 -0.65605901945558964 forward_v I I I I #
face $-1 $92 $93 $33 $-1 $94 forward single #
loop $-1 $95 $96 $43 #
cone-surface $-1 -5.2230195810698063 30.415341571110467 9.9822863503184855 0 -0.75470958851134928 -0.65605901945558964 1 0 0 1 I I 0 1 1 forward I I I I #
face $-1 $97 $98 $34 $-1 $99 reversed single #
loop $-1 $-1 $100 $44 #
plane-surface $-1 -5.2230195810698063 -10.626787461416228 59.213338911022291 0 0.75470958851134928 0.65605901945558964 1 0 0 forward_v I I I I #
face $-1 $101 $102 $35 $-1 $103 forward single #
loop $-1 $104 $105 $45 #
cone-surface $-1 14.603319851614245 30.415341571110467 9.9822863503184855 0 -0.75470958851134928 -0.65605901945558964 1 0 0 1 I I 0 1 1 forward I I I I #
face $-1 $106 $107 $36 $-1 $108 reversed single #
loop $-1 $-1 $109 $46 #
plane-surface $-1 4.6901501352722228 -145.25799756994576 104.49558990782684 -1 0 0 0 -0.75470958851134928 0.65605901945558964 forward_v I I I I #
face $-1 $110 $111 $37 $-1 $112 forward single #
loop $-1 $113 $114 $47 #
cone-surface $-1 -5.2230195810698063 -30.415341571110467 9.9822863503184855 0 0.75470958851134928 -0.65605901945558964 1 0 0 1 I I 0 1 1 forward I I I I #
face $-1 $115 $116 $38 $-1 $117 reversed single #
loop $-1 $-1 $118 $48 #
plane-surface $-1 24.516489567956274 -145.25799756994576 104.49558990782684 -1 0 0 0 -0.75470958851134928 0.65605901945558964 forward_v I I I I #
face $-1 $119 $120 $39 $-1 $121 forward single #
loop $-1 $122 $123 $49 #
cone-surface $-1 14.603319851614245 -30.415341571110467 9.9822863503184855 0 0.75470958851134928 -0.65605901945558964 1 0 0 1 I I 0 1 1 forward I I I I #
face $-1 $124 $125 $30 $-1 $126 reversed single #
loop $-1 $-1 $127 $50 #
plane-surface $-1 0 0 -13.879637686054778 0 0 1 1 0 0 forward_v I I I I #
coedge $-1 $128 $129 $130 $131 forward $51 $-1 #
face $-1 $132 $133 $31 $-1 $134 reversed single #
loop $-1 $-1 $135 $53 #
plane-surface $-1 -64.297485306407992 0 -12.371121383331097 -1 0 0 0 0 1 forward_v I I I I #
coedge $-1 $136 $137 $138 $139 forward $54 $-1 #
face $-1 $140 $141 $32 $-1 $142 reversed single #
loop $-1 $-1 $143 $56 #
plane-surface $-1 -5.2230195810698063 -10.626787461416228 59.213338911022291 0 0.75470958851134928 0.65605901945558964 1 0 0 forward_v I I I I #
coedge $-1 $144 $145 $146 $147 reversed $57 $-1 #
face $-1 $-1 $148 $33 $-1 $149 forward single #
loop $-1 $150 $151 $59 #
cone-surface $-1 -5.2230195810698063 29.039062406184996 8.7859051552429648 0 -0.75470958851134928 -0.65605901945558964 0.5 0 0 1 I I -0.70710678118654746 0.70710678118654746 0.5 forward I I I I #
loop $-1 $-1 $152 $43 #
coedge $-1 $96 $96 $153 $154 reversed $60 $-1 #
face $-1 $155 $156 $34 $-1 $157 forward single #
loop $-1 $-1 $158 $62 #
plane-surface $-1 24.516489567956274 100.58387500900216 155.88729043357148 -1 0 0 0 0.75470958851134928 0.65605901945558964 forward_v I I I I #
coedge $-1 $159 $160 $161 $162 reversed $63 $-1 #
face $-1 $-1 $163 $35 $-1 $164 forward single #
loop $-1 $165 $166 $65 #
cone-surface $-1 14.603319851614245 29.039062406184996 8.7859051552429648 0 -0.75470958851134928 -0.65605901945558964 0.5 0 0 1 I I -0.70710678118654746 0.70710678118654746 0.5 forward I I I I #
loop $-1 $-1 $167 $45 #
coedge $-1 $105 $105 $168 $169 reversed $66 $-1 #
face $-1 $170 $171 $36 $-1 $172 reversed single #
loop $-1 $-1 $173 $68 #
plane-surface $-1 -5.2230195810698063 -34.047335099527373 7.8216383852776517 0 -0.75470958851134928 0.65605901945558964 1 0 0 forward_v I I I I #
coedge $-1 $174 $175 $176 $177 reversed $69 $-1 #
face $-1 $-1 $178 $37 $-1 $179 forward single #
loop $-1 $180 $181 $71 #
cone-surface $-1 -5.2230195810698063 -29.039062406184996 8.7859051552429648 0 0.75470958851134928 -0.65605901945558964 0.5 0 0 1 I I -0.70710678118654746 0.70710678118654746 0.5 forward I I I I #
loop $-1 $-1 $182 $47 #
coedge $-1 $114 $114 $183 $184 reversed $72 $-1 #
face $-1 $185 $186 $38 $-1 $187 reversed single #
loop $-1 $-1 $188 $74 #
plane-surface $-1 -5.2230195810698063 -34.047335099527373 7.8216383852776517 0 -0.75470958851134928 0.65605901945558964 1 0 0 forward_v I I I I #
coedge $-1 $189 $190 $191 $192 reversed $75 $-1 #
face $-1 $-1 $193 $39 $-1 $194 forward single #
loop $-1 $195 $196 $77 #
cone-surface $-1 14.603319851614245 -29.039062406184996 8.7859051552429648 0 0.75470958851134928 -0.65605901945558964 0.5 0 0 1 I I -0.70710678118654746 0.70710678118654746 0.5 forward I I I I #
loop $-1 $-1 $197 $49 #
coedge $-1 $123 $123 $198 $199 reversed $78 $-1 #
face $-1 $200 $201 $30 $-1 $202 reversed single #
loop $-1 $-1 $203 $80 #
plane-surface $-1 0 -34.04733509952738 0 0 1 0 0 0 1 forward_v I I I I #
coedge $-1 $204 $205 $206 $207 forward $81 $-1 #
coedge $-1 $208 $83 $209 $210 forward $51 $-1 #
coedge $-1 $83 $208 $211 $212 forward $51 $-1 #
coedge $-1 $213 $214 $83 $131 reversed $215 $-1 #
edge $-1 $216 -34.04733509952738 $217 34.04733509952738 $130 $218 forward 7 unknown #
face $-1 $219 $220 $31 $-1 $221 reversed single #
loop $-1 $-1 $222 $84 #
plane-surface $-1 0 0 -13.879637686054778 0 0 1 1 0 0 forward_v I I I I #
coedge $-1 $223 $138 $224 $225 reversed $85 $-1 #
coedge $-1 $226 $87 $227 $228 reversed $54 $-1 #
coedge $-1 $87 $226 $229 $230 reversed $54 $-1 #
coedge $-1 $135 $231 $87 $139 reversed $85 $-1 #
edge $-1 $232 -34.04733509952738 $233 34.04733509952738 $138 $234 forward 7 unknown #
face $-1 $235 $236 $32 $-1 $237 reversed single #
loop $-1 $-1 $238 $88 #
plane-surface $-1 4.6901501352722228 100.58387500900216 155.88729043357148 -1 0 0 0 0.75470958851134928 0.65605901945558964 forward_v I I I I #
coedge $-1 $239 $240 $241 $242 reversed $89 $-1 #
coedge $-1 $145 $91 $243 $244 reversed $57 $-1 #
coedge $-1 $91 $144 $239 $245 reversed $57 $-1 #
coedge $-1 $241 $246 $91 $147 forward $247 $-1 #
edge $-1 $248 16.244602404973698 $249 21.510740720467908 $146 $250 forward 7 unknown #
loop $-1 $-1 $153 $92 #
plane-surface $-1 -5.2230195810698063 -10.626787461416228 59.213338911022291 0 0.75470958851134928 0.65605901945558964 1 0 0 forward_v I I I I #
loop $-1 $-1 $251 $59 #
coedge $-1 $151 $151 $152 $252 reversed $93 $-1 #
coedge $-1 $152 $152 $151 $252 forward $95 $-1 #
coedge $-1 $153 $153 $96 $154 forward $148 $-1 #
edge $-1 $253 1.6911107654189353e-015 $253 6.2831853071796022 $153 $254 forward 7 unknown #
face $-1 $255 $256 $34 $-1 $257 forward single #
loop $-1 $-1 $258 $97 #
plane-surface $-1 0 0 13.879637686054778 0 0 1 1 0 0 forward_v I I I I #
coedge $-1 $259 $260 $261 $262 reversed $98 $-1 #
coedge $-1 $263 $100 $264 $265 reversed $63 $-1 #
coedge $-1 $100 $263 $258 $266 reversed $63 $-1 #
coedge $-1 $267 $268 $100 $162 forward $256 $-1 #
edge $-1 $269 -68.094670199054747 $270 -60.067742499982558 $161 $271 forward 7 unknown #
loop $-1 $-1 $168 $101 #
plane-surface $-1 -5.2230195810698063 -10.626787461416228 59.213338911022291 0 0.75470958851134928 0.65605901945558964 1 0 0 forward_v I I I I #
loop $-1 $-1 $272 $65 #
coedge $-1 $166 $166 $167 $273 reversed $102 $-1 #
coedge $-1 $167 $167 $166 $273 forward $104 $-1 #
coedge $-1 $168 $168 $105 $169 forward $163 $-1 #
edge $-1 $274 1.6911107654189353e-015 $274 6.2831853071796022 $168 $275 forward 7 unknown #
face $-1 $276 $277 $36 $-1 $278 forward single #
loop $-1 $-1 $279 $106 #
plane-surface $-1 -15.136189297411835 -145.25799756994576 104.49558990782684 1 0 0 0 0.75470958851134928 -0.65605901945558964 forward_v I I I I #
coedge $-1 $280 $281 $282 $283 reversed $107 $-1 #
coedge $-1 $175 $109 $284 $285 reversed $69 $-1 #
coedge $-1 $109 $174 $280 $286 reversed $69 $-1 #
coedge $-1 $282 $287 $109 $177 forward $277 $-1 #
edge $-1 $288 38.581663685445498 $289 43.847802000939723 $176 $290 forward 7 unknown #
loop $-1 $-1 $183 $110 #
plane-surface $-1 -5.2230195810698063 -34.047335099527373 7.8216383852776517 0 -0.75470958851134928 0.65605901945558964 1 0 0 forward_v I I I I #
loop $-1 $-1 $291 $71 #
coedge $-1 $181 $181 $182 $292 reversed $111 $-1 #
coedge $-1 $182 $182 $181 $292 forward $113 $-1 #
coedge $-1 $183 $183 $114 $184 forward $178 $-1 #
edge $-1 $293 -3.5047722610585074e-016 $293 6.2831853071796004 $183 $294 forward 7 unknown #
face $-1 $295 $296 $38 $-1 $297 forward single #
loop $-1 $-1 $298 $115 #
plane-surface $-1 0 -34.04733509952738 0 0 1 0 0 0 1 forward_v I I I I #
coedge $-1 $299 $300 $301 $302 reversed $116 $-1 #
coedge $-1 $190 $118 $303 $304 reversed $75 $-1 #
coedge $-1 $118 $189 $305 $306 reversed $75 $-1 #
coedge $-1 $307 $298 $118 $192 forward $186 $-1 #
edge $-1 $308 -44.426156568635776 $309 -38.368157267858642 $191 $310 forward 7 unknown #
loop $-1 $-1 $198 $119 #
plane-surface $-1 -5.2230195810698063 -34.047335099527373 7.8216383852776517 0 -0.75470958851134928 0.65605901945558964 1 0 0 forward_v I I I I #
loop $-1 $-1 $311 $77 #
coedge $-1 $196 $196 $197 $312 reversed $120 $-1 #
coedge $-1 $197 $197 $196 $312 forward $122 $-1 #
coedge $-1 $198 $198 $123 $199 forward $193 $-1 #
edge $-1 $313 -3.5047722610585074e-016 $313 6.2831853071796004 $198 $314 forward 7 unknown #
face $-1 $315 $316 $30 $-1 $317 reversed single #
loop $-1 $-1 $318 $124 #
plane-surface $-1 -73.677785576952431 0 0 1 0 0 0 0 -1 forward_v I I I I #
coedge $-1 $319 $211 $320 $321 forward $125 $-1 #
coedge $-1 $322 $127 $319 $323 forward $81 $-1 #
coedge $-1 $127 $322 $324 $325 forward $81 $-1 #
coedge $-1 $214 $213 $127 $207 reversed $215 $-1 #
edge $-1 $326 -34.04733509952738 $327 34.04733509952738 $206 $328 forward 7 unknown #
coedge $-1 $129 $128 $329 $330 forward $51 $-1 #
coedge $-1 $331 $332 $128 $210 reversed $316 $-1 #
edge $-1 $217 -73.677785576952431 $333 73.677785576952431 $209 $334 forward 7 unknown #
coedge $-1 $203 $335 $129 $212 reversed $125 $-1 #
edge $-1 $336 -73.677785576952431 $216 73.677785576952431 $211 $337 forward 7 unknown #
coedge $-1 $206 $130 $335 $338 forward $215 $-1 #
coedge $-1 $130 $206 $331 $339 reversed $215 $-1 #
loop $-1 $-1 $213 $315 #
vertex $-1 $131 $340 #
vertex $-1 $131 $341 #
straight-curve $-1 73.677785576952431 0 13.879637686054778 0 1 0 I I #
face $-1 $342 $343 $31 $-1 $344 reversed single #
loop $-1 $-1 $224 $132 #
plane-surface $-1 0 -34.04733509952738 0 0 1 0 0 0 1 forward_v I I I I #
coedge $-1 $345 $346 $223 $347 forward $133 $-1 #
coedge $-1 $231 $135 $222 $347 reversed $85 $-1 #
coedge $-1 $229 $348 $135 $225 forward $220 $-1 #
edge $-1 $349 -7.6940769943892295 $232 -4.6770443889418676 $224 $350 forward 7 unknown #
coedge $-1 $137 $136 $351 $352 reversed $54 $-1 #
coedge $-1 $353 $354 $136 $228 forward $355 $-1 #
edge $-1 $356 -39.183967856112325 $233 -29.803667585567887 $227 $357 forward 7 unknown #
coedge $-1 $358 $224 $137 $230 forward $220 $-1 #
edge $-1 $232 29.803667585567887 $359 39.183967856112325 $229 $360 forward 7 unknown #
coedge $-1 $138 $223 $353 $361 reversed $85 $-1 #
vertex $-1 $230 $362 #
vertex $-1 $228 $363 #
straight-curve $-1 -64.297485306407992 0 -10.862605080607416 0 1 0 I I #
face $-1 $-1 $247 $32 $-1 $364 forward single #
loop $-1 $-1 $365 $140 #
plane-surface $-1 0 34.04733509952738 0 0 -1 0 0 0 -1 forward_v I I I I #
coedge $-1 $366 $367 $368 $369 reversed $141 $-1 #
coedge $-1 $370 $143 $145 $245 forward $89 $-1 #
coedge $-1 $143 $370 $366 $371 forward $89 $-1 #
coedge $-1 $368 $146 $143 $242 forward $247 $-1 #
edge $-1 $249 -12.524679506876932 $372 7.301659925807126 $241 $373 forward 7 unknown #
coedge $-1 $374 $375 $144 $244 forward $236 $-1 #
edge $-1 $376 -70.122006831508088 $248 -64.064007530730962 $243 $377 forward 7 unknown #
edge $-1 $249 60.067742499982558 $376 68.094670199054747 $145 $378 forward 7 unknown #
coedge $-1 $146 $368 $374 $379 forward $247 $-1 #
loop $-1 $-1 $368 $235 #
vertex $-1 $244 $380 #
vertex $-1 $147 $381 #
straight-curve $-1 -15.136189297411835 50.291937504501078 13.879637686054778 0 -1 0 I I #
coedge $-1 $251 $251 $-1 $382 reversed $150 $-1 #
edge $-1 $383 0 $383 6.2831853071796004 $151 $384 forward 7 unknown #
vertex $-1 $154 $385 #
ellipse-curve $-1 -5.2230195810698063 31.414265941780268 10.850638035666217 0 0.75470958851134928 0.65605901945558964 1 0 0 1 I I #
face $-1 $-1 $386 $34 $-1 $387 reversed single #
loop $-1 $-1 $267 $155 #
plane-surface $-1 4.6901501352722228 100.58387500900216 155.88729043357148 -1 0 0 0 0.75470958851134928 0.65605901945558964 forward_v I I I I #
coedge $-1 $261 $388 $160 $266 forward $156 $-1 #
coedge $-1 $260 $158 $263 $389 reversed $98 $-1 #
coedge $-1 $158 $259 $390 $391 reversed $98 $-1 #
coedge $-1 $392 $258 $158 $262 forward $156 $-1 #
edge $-1 $393 -21.510740720467908 $394 -16.244602404973698 $261 $395 forward 7 unknown #
coedge $-1 $160 $159 $259 $389 forward $63 $-1 #
coedge $-1 $396 $390 $159 $265 forward $386 $-1 #
edge $-1 $397 -27.127999358491177 $269 -7.301659925807126 $264 $398 forward 7 unknown #
edge $-1 $270 7.301659925807126 $393 27.127999358491177 $258 $399 forward 7 unknown #
coedge $-1 $268 $161 $388 $400 reversed $256 $-1 #
coedge $-1 $161 $267 $396 $401 reversed $256 $-1 #
vertex $-1 $265 $402 #
vertex $-1 $266 $403 #
straight-curve $-1 4.6901501352722228 -10.626787461416228 59.213338911022291 0 -0.65605901945558964 0.75470958851134928 I I #
coedge $-1 $272 $272 $-1 $404 reversed $165 $-1 #
edge $-1 $405 0 $405 6.2831853071796004 $166 $406 forward 7 unknown #
vertex $-1 $169 $407 #
ellipse-curve $-1 14.603319851614245 31.414265941780268 10.850638035666217 0 0.75470958851134928 0.65605901945558964 1 0 0 1 I I #
face $-1 $-1 $408 $36 $-1 $409 reversed single #
loop $-1 $-1 $176 $170 #
plane-surface $-1 0 0 13.879637686054778 0 0 1 1 0 0 forward_v I I I I #
coedge $-1 $410 $411 $412 $413 reversed $171 $-1 #
coedge $-1 $414 $173 $175 $286 forward $107 $-1 #
coedge $-1 $173 $414 $410 $415 forward $107 $-1 #
coedge $-1 $412 $176 $173 $283 forward $277 $-1 #
edge $-1 $289 -7.301659925807126 $416 12.524679506876932 $282 $417 forward 7 unknown #
coedge $-1 $418 $419 $174 $285 forward $408 $-1 #
edge $-1 $420 -44.426156568635776 $288 -38.368157267858642 $284 $421 forward 7 unknown #
edge $-1 $289 -8.0269276990721945 $420 1.0694430631949516e-014 $175 $422 forward 7 unknown #
coedge $-1 $176 $412 $418 $423 forward $277 $-1 #
vertex $-1 $177 $424 #
vertex $-1 $177 $425 #
straight-curve $-1 4.6901501352722228 -72.628998784972879 13.879637686054778 0 1 0 I I #
coedge $-1 $291 $291 $-1 $426 reversed $180 $-1 #
edge $-1 $427 0 $427 6.2831853071796004 $181 $428 forward 7 unknown #
vertex $-1 $184 $429 #
ellipse-curve $-1 -5.2230195810698063 -31.414265941780268 10.850638035666215 0 -0.75470958851134928 0.65605901945558964 1 0 0 1 I I #
face $-1 $-1 $430 $38 $-1 $431 forward single #
loop $-1 $-1 $432 $185 #
plane-surface $-1 4.6901501352722228 -145.25799756994576 104.49558990782684 -1 0 0 0 -0.75470958851134928 0.65605901945558964 forward_v I I I I #
coedge $-1 $191 $433 $300 $434 forward $186 $-1 #
coedge $-1 $303 $188 $435 $436 reversed $116 $-1 #
coedge $-1 $188 $303 $298 $434 reversed $116 $-1 #
coedge $-1 $437 $432 $188 $302 forward $296 $-1 #
edge $-1 $438 -8.0269276990721945 $439 1.0694430631949516e-014 $301 $440 forward 7 unknown #
coedge $-1 $300 $299 $189 $304 forward $116 $-1 #
edge $-1 $441 -8.0269276990721945 $308 1.0694430631949516e-014 $189 $442 forward 7 unknown #
coedge $-1 $435 $443 $190 $306 forward $430 $-1 #
edge $-1 $309 38.581663685445498 $441 43.847802000939723 $305 $444 forward 7 unknown #
coedge $-1 $433 $191 $443 $445 reversed $186 $-1 #
vertex $-1 $192 $446 #
vertex $-1 $192 $447 #
straight-curve $-1 24.516489567956274 -34.04733509952738 52.24779495391342 0 0 1 I I #
coedge $-1 $311 $311 $-1 $448 reversed $195 $-1 #
edge $-1 $449 0 $449 6.2831853071796004 $196 $450 forward 7 unknown #
vertex $-1 $199 $451 #
ellipse-curve $-1 14.603319851614245 -31.414265941780268 10.850638035666215 0 -0.75470958851134928 0.65605901945558964 1 0 0 1 I I #
face $-1 $-1 $215 $30 $-1 $452 reversed single #
loop $-1 $-1 $331 $200 #
plane-surface $-1 0 34.04733509952738 0 0 -1 0 0 0 -1 forward_v I I I I #
coedge $-1 $453 $329 $332 $454 forward $201 $-1 #
coedge $-1 $335 $203 $204 $323 reversed $125 $-1 #
coedge $-1 $329 $453 $203 $321 reversed $201 $-1 #
edge $-1 $336 -13.879637686054778 $455 13.879637686054778 $320 $456 forward 7 unknown #
coedge $-1 $205 $204 $453 $457 forward $81 $-1 #
edge $-1 $327 -73.677785576952431 $455 73.677785576952431 $319 $458 forward 7 unknown #
coedge $-1 $332 $331 $205 $325 reversed $316 $-1 #
edge $-1 $459 -73.677785576952431 $326 73.677785576952431 $324 $460 forward 7 unknown #
vertex $-1 $207 $461 #
vertex $-1 $338 $462 #
straight-curve $-1 73.677785576952431 0 -13.879637686054778 0 -1 0 I I #
coedge $-1 $318 $320 $208 $330 reversed $201 $-1 #
edge $-1 $333 -34.04733509952738 $336 34.04733509952738 $329 $463 forward 7 unknown #
coedge $-1 $324 $209 $214 $339 forward $316 $-1 #
coedge $-1 $209 $324 $318 $454 reversed $316 $-1 #
vertex $-1 $210 $464 #
straight-curve $-1 0 34.04733509952738 13.879637686054778 -1 0 0 I I #
coedge $-1 $211 $319 $213 $338 reversed $125 $-1 #
vertex $-1 $330 $465 #
straight-curve $-1 0 -34.04733509952738 13.879637686054778 1 0 0 I I #
edge $-1 $216 -13.879637686054778 $327 13.879637686054778 $213 $466 forward 7 unknown #
edge $-1 $217 -13.879637686054778 $326 13.879637686054778 $214 $467 forward 7 unknown #
point $-1 73.677785576952431 -34.04733509952738 13.879637686054778 #
point $-1 73.677785576952431 34.04733509952738 13.879637686054778 #
face $-1 $-1 $355 $31 $-1 $468 reversed single #
loop $-1 $-1 $351 $219 #
plane-surface $-1 -73.677785576952431 0 0 1 0 0 0 0 -1 forward_v I I I I #
coedge $-1 $469 $222 $348 $470 forward $133 $-1 #
coedge $-1 $222 $469 $471 $472 forward $133 $-1 #
edge $-1 $473 -34.04733509952738 $349 34.04733509952738 $222 $474 forward 7 unknown #
coedge $-1 $224 $358 $345 $470 reversed $220 $-1 #
vertex $-1 $470 $475 #
straight-curve $-1 -64.297485306407992 -34.04733509952738 -6.1855606916655486 0 0 1 I I #
coedge $-1 $476 $477 $226 $352 forward $343 $-1 #
edge $-1 $359 -34.04733509952738 $356 34.04733509952738 $351 $478 forward 7 unknown #
coedge $-1 $471 $227 $231 $361 forward $355 $-1 #
coedge $-1 $227 $471 $476 $479 reversed $355 $-1 #
loop $-1 $-1 $353 $342 #
vertex $-1 $479 $480 #
straight-curve $-1 -34.493817720840106 34.04733509952738 -10.862605080607416 1 0 0 I I #
coedge $-1 $348 $229 $477 $481 forward $220 $-1 #
vertex $-1 $481 $482 #
straight-curve $-1 -34.493817720840106 -34.04733509952738 -10.862605080607416 -1 0 0 I I #
edge $-1 $233 4.6770443889418676 $473 7.6940769943892295 $353 $483 forward 7 unknown #
point $-1 -64.297485306407992 -34.04733509952738 -10.862605080607416 #
point $-1 -64.297485306407992 34.04733509952738 -10.862605080607416 #
plane-surface $-1 0 0 13.879637686054778 0 0 1 1 0 0 forward_v I I I I #
coedge $-1 $375 $374 $367 $484 forward $236 $-1 #
coedge $-1 $367 $238 $240 $371 reversed $141 $-1 #
coedge $-1 $238 $366 $365 $484 reversed $141 $-1 #
coedge $-1 $246 $241 $238 $369 forward $247 $-1 #
edge $-1 $372 -21.510740720467908 $485 -16.244602404973698 $368 $486 forward 7 unknown #
coedge $-1 $240 $239 $375 $487 reversed $89 $-1 #
edge $-1 $488 -68.094670199054747 $372 -60.067742499982558 $366 $489 forward 7 unknown #
vertex $-1 $242 $490 #
straight-curve $-1 -2.6115097905349032 28.781196784033163 13.879637686054775 1 0 0 I I #
coedge $-1 $365 $243 $246 $379 reversed $236 $-1 #
coedge $-1 $243 $365 $370 $487 forward $236 $-1 #
vertex $-1 $244 $491 #
straight-curve $-1 -15.136189297411835 34.04733509952738 77.94364521678574 0 0 1 I I #
straight-curve $-1 -15.136189297411835 -10.626787461416228 59.213338911022291 0 0.65605901945558964 -0.75470958851134928 I I #
edge $-1 $485 -4.6901501352722228 $248 15.136189297411835 $374 $492 forward 7 unknown #
point $-1 -15.136189297411835 34.04733509952738 13.879637686054778 #
point $-1 -15.136189297411835 28.78119678403317 13.879637686054778 #
edge $-1 $493 1 $493 0 $251 $-1 forward 7 unknown #
vertex $-1 $252 $494 #
ellipse-curve $-1 -5.2230195810698063 29.416417200440669 9.1139346649707598 0 0.75470958851134928 0.65605901945558964 1 0 0 1 I I #
point $-1 -4.2230195810698063 31.414265941780265 10.850638035666211 #
loop $-1 $-1 $264 $255 #
plane-surface $-1 0 34.04733509952738 0 0 -1 0 0 0 -1 forward_v I I I I #
coedge $-1 $258 $392 $267 $400 forward $156 $-1 #
edge $-1 $397 -68.094670199054747 $393 -60.067742499982558 $259 $495 forward 7 unknown #
coedge $-1 $264 $496 $260 $391 forward $386 $-1 #
edge $-1 $394 64.064007530730962 $397 70.122006831508088 $390 $497 forward 7 unknown #
coedge $-1 $388 $261 $496 $498 forward $156 $-1 #
vertex $-1 $262 $499 #
vertex $-1 $498 $500 #
straight-curve $-1 24.516489567956274 50.291937504501078 13.879637686054778 0 1 0 I I #
coedge $-1 $496 $264 $268 $401 forward $386 $-1 #
vertex $-1 $391 $501 #
straight-curve $-1 -2.6115097905349032 34.04733509952738 7.8216383852776552 -1 0 0 I I #
straight-curve $-1 -2.6115097905349032 28.781196784033163 13.879637686054775 1 0 0 I I #
edge $-1 $502 16.244602404973698 $270 21.510740720467908 $388 $503 forward 7 unknown #
edge $-1 $269 -70.122006831508088 $502 -64.064007530730962 $396 $504 forward 7 unknown #
point $-1 4.6901501352722228 34.04733509952738 7.8216383852776588 #
point $-1 4.6901501352722228 28.78119678403317 13.879637686054778 #
edge $-1 $505 1 $505 0 $272 $-1 forward 7 unknown #
vertex $-1 $273 $506 #
ellipse-curve $-1 14.603319851614245 29.416417200440669 9.1139346649707598 0 0.75470958851134928 0.65605901945558964 1 0 0 1 I I #
point $-1 15.603319851614245 31.414265941780265 10.850638035666211 #
loop $-1 $-1 $284 $276 #
plane-surface $-1 0 -34.04733509952738 0 0 1 0 0 0 1 forward_v I I I I #
coedge $-1 $411 $279 $281 $415 reversed $171 $-1 #
coedge $-1 $279 $410 $507 $508 reversed $171 $-1 #
coedge $-1 $287 $282 $279 $413 forward $277 $-1 #
edge $-1 $416 -43.847802000939723 $509 -38.581663685445498 $412 $510 forward 7 unknown #
coedge $-1 $281 $280 $419 $511 reversed $107 $-1 #
edge $-1 $512 -1.0694430631949516e-014 $416 8.0269276990721945 $410 $513 forward 7 unknown #
vertex $-1 $283 $514 #
straight-curve $-1 -2.6115097905349032 -28.781196784033156 13.879637686054778 -1 0 0 I I #
coedge $-1 $507 $284 $287 $423 reversed $408 $-1 #
coedge $-1 $284 $507 $414 $511 forward $408 $-1 #
vertex $-1 $285 $515 #
straight-curve $-1 4.6901501352722228 -34.04733509952738 52.24779495391342 0 0 1 I I #
straight-curve $-1 4.6901501352722228 -34.047335099527373 7.8216383852776517 0 -0.65605901945558964 -0.75470958851134928 I I #
edge $-1 $509 -15.136189297411835 $288 4.6901501352722228 $418 $516 forward 7 unknown #
point $-1 4.6901501352722228 -34.04733509952738 13.879637686054778 #
point $-1 4.6901501352722228 -28.78119678403316 13.879637686054778 #
edge $-1 $517 1 $517 0 $291 $-1 forward 7 unknown #
vertex $-1 $292 $518 #
ellipse-curve $-1 -5.2230195810698063 -29.416417200440669 9.1139346649707598 0 -0.75470958851134928 0.65605901945558964 1 0 0 1 I I #
point $-1 -4.2230195810698063 -31.414265941780265 10.850638035666211 #
loop $-1 $-1 $435 $295 #
plane-surface $-1 0 0 13.879637686054778 0 0 1 1 0 0 forward_v I I I I #
coedge $-1 $301 $437 $519 $520 reversed $296 $-1 #
coedge $-1 $298 $307 $437 $521 forward $186 $-1 #
edge $-1 $439 7.301659925807126 $308 27.127999358491177 $298 $522 forward 7 unknown #
coedge $-1 $519 $305 $299 $436 forward $430 $-1 #
edge $-1 $441 -27.127999358491177 $438 -7.301659925807126 $435 $523 forward 7 unknown #
coedge $-1 $432 $301 $433 $521 reversed $296 $-1 #
vertex $-1 $436 $524 #
vertex $-1 $434 $525 #
straight-curve $-1 4.6901501352722228 -34.047335099527373 7.8216383852776517 0 -0.65605901945558964 -0.75470958851134928 I I #
vertex $-1 $306 $526 #
straight-curve $-1 24.516489567956274 -34.047335099527373 7.8216383852776517 0 -0.65605901945558964 -0.75470958851134928 I I #
coedge $-1 $305 $519 $307 $445 forward $430 $-1 #
straight-curve $-1 24.516489567956274 -72.628998784972879 13.879637686054778 0 1 0 I I #
edge $-1 $527 4.6901501352722228 $309 24.516489567956274 $307 $528 forward 7 unknown #
point $-1 24.516489567956274 -34.04733509952738 7.8216383852776437 #
point $-1 24.516489567956274 -34.04733509952738 13.879637686054778 #
edge $-1 $529 1 $529 0 $311 $-1 forward 7 unknown #
vertex $-1 $312 $530 #
ellipse-curve $-1 14.603319851614245 -29.416417200440669 9.1139346649707598 0 -0.75470958851134928 0.65605901945558964 1 0 0 1 I I #
point $-1 15.603319851614245 -31.414265941780265 10.850638035666211 #
plane-surface $-1 73.677785576952431 0 0 -1 0 0 0 0 1 forward_v I I I I #
coedge $-1 $320 $318 $322 $457 reversed $201 $-1 #
edge $-1 $333 -13.879637686054778 $459 13.879637686054778 $332 $531 forward 7 unknown #
vertex $-1 $457 $532 #
straight-curve $-1 -73.677785576952431 -34.04733509952738 0 0 0 -1 I I #
edge $-1 $455 -34.04733509952738 $459 34.04733509952738 $453 $533 forward 7 unknown #
straight-curve $-1 0 -34.04733509952738 -13.879637686054778 -1 0 0 I I #
vertex $-1 $325 $534 #
straight-curve $-1 0 34.04733509952738 -13.879637686054778 1 0 0 I I #
point $-1 73.677785576952431 34.04733509952738 -13.879637686054778 #
point $-1 73.677785576952431 -34.04733509952738 -13.879637686054778 #
straight-curve $-1 -73.677785576952431 0 13.879637686054778 0 -1 0 I I #
point $-1 -73.677785576952431 34.04733509952738 13.879637686054778 #
point $-1 -73.677785576952431 -34.04733509952738 13.879637686054778 #
straight-curve $-1 73.677785576952431 -34.04733509952738 0 0 0 -1 I I #
straight-curve $-1 73.677785576952431 34.04733509952738 0 0 0 -1 I I #
plane-surface $-1 0 34.04733509952738 0 0 -1 0 0 0 -1 forward_v I I I I #
coedge $-1 $346 $345 $535 $536 forward $133 $-1 #
edge $-1 $349 64.297485306407992 $537 73.677785576952431 $348 $538 forward 7 unknown #
coedge $-1 $354 $353 $346 $472 reversed $355 $-1 #
edge $-1 $539 -73.677785576952431 $473 -64.297485306407992 $471 $540 forward 7 unknown #
vertex $-1 $361 $541 #
straight-curve $-1 -64.297485306407992 0 -13.879637686054778 0 -1 0 I I #
point $-1 -64.297485306407992 -34.04733509952738 -13.879637686054778 #
coedge $-1 $535 $351 $354 $479 forward $343 $-1 #
coedge $-1 $351 $535 $358 $481 reversed $343 $-1 #
straight-curve $-1 -73.677785576952431 0 -10.862605080607416 0 1 0 I I #
edge $-1 $356 10.862605080607416 $539 13.879637686054778 $354 $542 forward 7 unknown #
point $-1 -73.677785576952431 34.04733509952738 -10.862605080607416 #
edge $-1 $359 10.862605080607416 $537 13.879637686054778 $477 $543 forward 7 unknown #
point $-1 -73.677785576952431 -34.04733509952738 -10.862605080607416 #
straight-curve $-1 -64.297485306407992 34.04733509952738 -6.1855606916655486 0 0 -1 I I #
edge $-1 $485 64.064007530730962 $488 70.122006831508088 $365 $544 forward 7 unknown #
vertex $-1 $379 $545 #
straight-curve $-1 4.6901501352722228 50.291937504501078 13.879637686054778 0 1 0 I I #
edge $-1 $488 -7.301659925807126 $376 12.524679506876932 $375 $546 forward 7 unknown #
vertex $-1 $487 $547 #
straight-curve $-1 4.6901501352722228 -10.626787461416228 59.213338911022291 0 -0.65605901945558964 0.75470958851134928 I I #
point $-1 4.6901501352722228 28.78119678403317 13.879637686054778 #
point $-1 -15.136189297411835 34.04733509952738 7.8216383852776588 #
straight-curve $-1 0 34.04733509952738 13.879637686054778 -1 0 0 I I #
vertex $-1 $382 $548 #
point $-1 -4.2230195810698063 29.416417200440669 9.1139346649707598 #
straight-curve $-1 24.516489567956274 -10.626787461416228 59.213338911022291 0 -0.65605901945558964 0.75470958851134928 I I #
coedge $-1 $390 $396 $392 $498 reversed $386 $-1 #
straight-curve $-1 24.516489567956274 34.04733509952738 77.94364521678574 0 0 -1 I I #
edge $-1 $394 -24.516489567956274 $502 -4.6901501352722228 $496 $549 forward 7 unknown #
point $-1 24.516489567956274 28.78119678403317 13.879637686054778 #
point $-1 24.516489567956274 34.04733509952738 13.879637686054778 #
point $-1 24.516489567956274 34.04733509952738 7.8216383852776588 #
vertex $-1 $401 $550 #
straight-curve $-1 4.6901501352722228 50.291937504501078 13.879637686054778 0 -1 0 I I #
straight-curve $-1 4.6901501352722228 34.04733509952738 77.94364521678574 0 0 1 I I #
vertex $-1 $404 $551 #
point $-1 15.603319851614245 29.416417200440669 9.1139346649707598 #
coedge $-1 $419 $418 $411 $508 forward $408 $-1 #
edge $-1 $509 38.368157267858642 $512 44.426156568635776 $507 $552 forward 7 unknown #
vertex $-1 $423 $553 #
straight-curve $-1 -15.136189297411835 -72.628998784972879 13.879637686054778 0 -1 0 I I #
edge $-1 $512 -12.524679506876932 $420 7.301659925807126 $419 $554 forward 7 unknown #
vertex $-1 $511 $555 #
straight-curve $-1 -15.136189297411835 -34.047335099527373 7.8216383852776517 0 0.65605901945558964 0.75470958851134928 I I #
point $-1 -15.136189297411835 -28.78119678403316 13.879637686054778 #
point $-1 4.6901501352722228 -34.04733509952738 7.8216383852776437 #
straight-curve $-1 0 -34.04733509952738 13.879637686054778 1 0 0 I I #
vertex $-1 $426 $556 #
point $-1 -4.2230195810698063 -29.416417200440669 9.1139346649707598 #
coedge $-1 $443 $435 $432 $520 forward $430 $-1 #
edge $-1 $438 -43.847802000939723 $527 -38.581663685445498 $519 $557 forward 7 unknown #
edge $-1 $527 38.368157267858642 $439 44.426156568635776 $433 $558 forward 7 unknown #
straight-curve $-1 -2.6115097905349032 -34.04733509952738 7.8216383852776374 1 0 0 I I #
straight-curve $-1 -2.6115097905349032 -28.781196784033156 13.879637686054778 -1 0 0 I I #
point $-1 4.6901501352722228 -28.78119678403316 13.879637686054778 #
point $-1 4.6901501352722228 -34.04733509952738 7.8216383852776437 #
point $-1 24.516489567956274 -28.78119678403316 13.879637686054778 #
vertex $-1 $445 $559 #
straight-curve $-1 0 -34.04733509952738 13.879637686054778 1 0 0 I I #
vertex $-1 $448 $560 #
point $-1 15.603319851614245 -29.416417200440669 9.1139346649707598 #
straight-curve $-1 -73.677785576952431 34.04733509952738 0 0 0 -1 I I #
point $-1 -73.677785576952431 -34.04733509952738 -13.879637686054778 #
straight-curve $-1 -73.677785576952431 0 -13.879637686054778 0 1 0 I I #
point $-1 -73.677785576952431 34.04733509952738 -13.879637686054778 #
coedge $-1 $477 $476 $469 $536 reversed $343 $-1 #
edge $-1 $537 -34.04733509952738 $539 34.04733509952738 $535 $561 forward 7 unknown #
vertex $-1 $536 $562 #
straight-curve $-1 0 -34.04733509952738 -13.879637686054778 -1 0 0 I I #
vertex $-1 $472 $563 #
straight-curve $-1 0 34.04733509952738 -13.879637686054778 1 0 0 I I #
point $-1 -64.297485306407992 34.04733509952738 -13.879637686054778 #
straight-curve $-1 -73.677785576952431 34.04733509952738 0 0 0 -1 I I #
straight-curve $-1 -73.677785576952431 -34.04733509952738 0 0 0 -1 I I #
straight-curve $-1 4.6901501352722228 34.04733509952738 77.94364521678574 0 0 -1 I I #
point $-1 4.6901501352722228 34.04733509952738 13.879637686054778 #
straight-curve $-1 -2.6115097905349032 34.04733509952738 7.8216383852776552 -1 0 0 I I #
point $-1 4.6901501352722228 34.04733509952738 7.8216383852776588 #
point $-1 -5.2230195810698063 28.661707611929323 8.4578756455151698 #
straight-curve $-1 0 34.04733509952738 13.879637686054778 -1 0 0 I I #
point $-1 4.6901501352722228 34.04733509952738 13.879637686054778 #
point $-1 14.603319851614245 28.661707611929323 8.4578756455151698 #
straight-curve $-1 -15.136189297411835 -34.04733509952738 52.24779495391342 0 0 -1 I I #
point $-1 -15.136189297411835 -34.04733509952738 13.879637686054778 #
straight-curve $-1 -2.6115097905349032 -34.04733509952738 7.8216383852776374 1 0 0 I I #
point $-1 -15.136189297411835 -34.04733509952738 7.8216383852776437 #
point $-1 -5.2230195810698063 -28.661707611929323 8.4578756455151698 #
straight-curve $-1 4.6901501352722228 -72.628998784972879 13.879637686054778 0 -1 0 I I #
straight-curve $-1 4.6901501352722228 -34.04733509952738 52.24779495391342 0 0 -1 I I #
point $-1 4.6901501352722228 -34.04733509952738 13.879637686054778 #
point $-1 14.603319851614245 -28.661707611929323 8.4578756455151698 #
straight-curve $-1 -73.677785576952431 0 -13.879637686054778 0 1 0 I I #
point $-1 -73.677785576952431 -34.04733509952738 -13.879637686054778 #
point $-1 -73.677785576952431 34.04733509952738 -13.879637686054778 #
End-of-ACIS-data 