500 0 10 0           
7 Unknown 11 ACIS 5.0 NT 24 Thu Mar 25 23:30:25 1999 
-1 9.9999999999999995e-007 1e-010 
body $-1 $10 $-1 $11 #
body $-1 $12 $-1 $13 #
body $-1 $14 $-1 $15 #
body $-1 $16 $-1 $17 #
body $-1 $18 $-1 $19 #
body $-1 $20 $-1 $21 #
body $-1 $22 $-1 $23 #
body $-1 $24 $-1 $25 #
body $-1 $26 $-1 $27 #
body $-1 $28 $-1 $29 #
lump $-1 $-1 $30 $0 #
transform $-1 1 0 0 0 1 0 0 0 1 47.622302926725055 27.314334512606525 11.553762602973388 1 rotate no_reflect no_shear #
lump $-1 $-1 $31 $1 #
transform $-1 1 0 0 0 1 0 0 0 1 47.622302926725055 27.314334512606525 11.553762602973388 1 rotate no_reflect no_shear #
lump $-1 $-1 $32 $2 #
transform $-1 1 0 0 0 1 0 0 0 1 47.622302926725055 27.314334512606525 11.553762602973388 1 rotate no_reflect no_shear #
lump $-1 $-1 $33 $3 #
transform $-1 1 0 0 0 1 0 0 0 1 47.622302926725055 27.314334512606525 11.553762602973388 1 rotate no_reflect no_shear #
lump $-1 $-1 $34 $4 #
transform $-1 1 0 0 0 1 0 0 0 1 47.622302926725055 27.314334512606525 11.553762602973388 1 rotate no_reflect no_shear #
lump $-1 $-1 $35 $5 #
transform $-1 1 0 0 0 1 0 0 0 1 47.622302926725055 27.314334512606525 11.553762602973388 1 rotate no_reflect no_shear #
lump $-1 $-1 $36 $6 #
transform $-1 1 0 0 0 1 0 0 0 1 47.622302926725055 27.314334512606525 11.553762602973388 1 rotate no_reflect no_shear #
lump $-1 $-1 $37 $7 #
transform $-1 1 0 0 0 1 0 0 0 1 47.622302926725055 27.314334512606525 11.553762602973388 1 rotate no_reflect no_shear #
lump $-1 $-1 $38 $8 #
transform $-1 1 0 0 0 1 0 0 0 1 47.622302926725055 27.314334512606525 11.553762602973388 1 rotate no_reflect no_shear #
lump $-1 $-1 $39 $9 #
transform $-1 1 0 0 0 1 0 0 0 1 47.622302926725055 27.314334512606525 11.553762602973388 1 rotate no_reflect no_shear #
shell $-1 $-1 $-1 $40 $-1 $10 #
shell $-1 $-1 $-1 $41 $-1 $12 #
shell $-1 $-1 $-1 $42 $-1 $14 #
shell $-1 $-1 $-1 $43 $-1 $16 #
shell $-1 $-1 $-1 $44 $-1 $18 #
shell $-1 $-1 $-1 $45 $-1 $20 #
shell $-1 $-1 $-1 $46 $-1 $22 #
shell $-1 $-1 $-1 $47 $-1 $24 #
shell $-1 $-1 $-1 $48 $-1 $26 #
shell $-1 $-1 $-1 $49 $-1 $28 #
face $-1 $50 $51 $30 $-1 $52 forward single #
face $-1 $53 $54 $31 $-1 $55 forward single #
face $-1 $56 $57 $32 $-1 $58 forward single #
face $-1 $59 $60 $33 $-1 $61 reversed single #
face $-1 $62 $63 $34 $-1 $64 forward single #
face $-1 $65 $66 $35 $-1 $67 reversed single #
face $-1 $68 $69 $36 $-1 $70 forward single #
face $-1 $71 $72 $37 $-1 $73 reversed single #
face $-1 $74 $75 $38 $-1 $76 forward single #
face $-1 $77 $78 $39 $-1 $79 forward single #
face $-1 $80 $81 $30 $-1 $82 reversed single #
loop $-1 $-1 $83 $40 #
plane-surface $-1 0 0 11.553762602973388 0 0 1 1 0 0 forward_v I I I I #
face $-1 $84 $85 $31 $-1 $86 reversed single #
loop $-1 $-1 $87 $41 #
plane-surface $-1 0 -19.995108589170243 6.8297345084408043 0 0 1 1 0 0 forward_v I I I I #
face $-1 $88 $89 $32 $-1 $90 reversed single #
loop $-1 $-1 $91 $42 #
plane-surface $-1 0 19.99510858917024 6.8297345084408043 0 0 1 1 0 0 forward_v I I I I #
face $-1 $92 $93 $33 $-1 $94 reversed single #
loop $-1 $-1 $95 $43 #
plane-surface $-1 -110.10838731940328 -3.5527136788005009e-015 77.18546873754957 0 -1 0 0.6560590369687036 0 -0.75470957328743171 forward_v I I I I #
face $-1 $96 $97 $34 $-1 $98 forward single #
loop $-1 $99 $100 $44 #
cone-surface $-1 -42.374256950307625 -3.0021194172156207 6.5270871868876528 0.6560590369687036 0 -0.75470957328743171 1.1320643599311475 0 0.9840885554530554 1 I I 0 1 1.5 forward I I I I #
face $-1 $101 $102 $35 $-1 $103 reversed single #
loop $-1 $-1 $104 $45 #
plane-surface $-1 -47.622302926725048 9.6737632485183447 5.3034528959626215 -0.6560590369687036 0 0.75470957328743171 0.75470957328743171 0 0.6560590369687036 forward_v I I I I #
face $-1 $105 $106 $36 $-1 $107 forward single #
loop $-1 $108 $109 $46 #
cone-surface $-1 -42.374256950307625 9.6737632485183447 6.5270871868876528 0.6560590369687036 0 -0.75470957328743171 1.1320643599311475 0 0.9840885554530554 1 I I 0 1 1.5 forward I I I I #
face $-1 $110 $111 $37 $-1 $112 reversed single #
loop $-1 $-1 $113 $47 #
plane-surface $-1 66.368394447688061 2.093361443500946 139.94601926923968 0 1 0 0.79863551827123203 0 0.60181501223851219 forward_v I I I I #
face $-1 $114 $115 $38 $-1 $116 forward single #
loop $-1 $117 $118 $48 #
cone-surface $-1 44.150289972554177 4.162787345681302 7.8585129182874578 -0.79863551827123203 0 -0.60181501223851219 0.60181501223851219 0 -0.79863551827123203 1 I I 0 1 1 forward I I I I #
face $-1 $119 $120 $39 $-1 $121 forward single #
loop $-1 $122 $123 $49 #
cone-surface $-1 44.150289972554177 7.2669261989518397 7.8585129182874578 -0.79863551827123203 0 -0.60181501223851219 0.60181501223851219 0 -0.79863551827123203 1 I I 0 1 1 forward I I I I #
face $-1 $124 $125 $30 $-1 $126 reversed single #
loop $-1 $-1 $127 $50 #
plane-surface $-1 0 0 -11.553762602973388 0 0 1 1 0 0 forward_v I I I I #
coedge $-1 $128 $129 $130 $131 forward $51 $-1 #
face $-1 $132 $133 $31 $-1 $134 reversed single #
loop $-1 $-1 $135 $53 #
plane-surface $-1 0 -19.995108589170243 3.3037688943408483 0 0 1 1 0 0 forward_v I I I I #
coedge $-1 $136 $137 $138 $139 reversed $54 $-1 #
face $-1 $140 $141 $32 $-1 $142 reversed single #
loop $-1 $-1 $143 $56 #
plane-surface $-1 0 19.99510858917024 3.3037688943408483 0 0 1 1 0 0 forward_v I I I I #
coedge $-1 $144 $145 $146 $147 reversed $57 $-1 #
face $-1 $148 $149 $33 $-1 $150 reversed single #
loop $-1 $-1 $151 $59 #
plane-surface $-1 -47.622302926725048 -3.0021194172156207 5.3034528959626215 -0.6560590369687036 0 0.75470957328743171 0.75470957328743171 0 0.6560590369687036 forward_v I I I I #
coedge $-1 $152 $153 $154 $155 reversed $60 $-1 #
face $-1 $-1 $156 $34 $-1 $157 forward single #
loop $-1 $158 $159 $62 #
cone-surface $-1 -40.229246030553966 -3.0021194172156207 4.0595344443417254 0.6560590369687036 0 -0.75470957328743171 0.56603217996557376 0 0.4920442777265277 1 I I -0.70710678118654757 0.70710678118654757 0.75 forward I I I I #
loop $-1 $-1 $160 $44 #
coedge $-1 $100 $100 $161 $162 reversed $63 $-1 #
face $-1 $163 $164 $35 $-1 $165 reversed single #
loop $-1 $-1 $166 $65 #
plane-surface $-1 -110.10838731940328 6.6716438313027275 77.18546873754957 0 1 0 -0.6560590369687036 0 0.75470957328743171 forward_v I I I I #
coedge $-1 $167 $168 $169 $170 reversed $66 $-1 #
face $-1 $-1 $171 $36 $-1 $172 forward single #
loop $-1 $173 $174 $68 #
cone-surface $-1 -40.229246030553966 9.6737632485183447 4.0595344443417254 0.6560590369687036 0 -0.75470957328743171 0.56603217996557376 0 0.4920442777265277 1 I I -0.70710678118654757 0.70710678118654757 0.75 forward I I I I #
loop $-1 $-1 $175 $46 #
coedge $-1 $109 $109 $176 $177 reversed $69 $-1 #
face $-1 $178 $179 $37 $-1 $180 reversed single #
loop $-1 $-1 $181 $71 #
plane-surface $-1 -9.6973307106212872 5.7148567723165762 82.626385631893328 0.79863551827123203 0 0.60181501223851219 0.60181501223851219 0 -0.79863551827123203 forward_v I I I I #
coedge $-1 $182 $183 $184 $185 reversed $72 $-1 #
face $-1 $-1 $186 $38 $-1 $187 forward single #
loop $-1 $188 $189 $74 #
cone-surface $-1 42.160245371848347 4.162787345681302 6.3589067921769722 -0.79863551827123203 0 -0.60181501223851219 0.3009075061192561 0 -0.39931775913561601 1 I I -0.70710678118654746 0.70710678118654746 0.5 forward I I I I #
loop $-1 $-1 $190 $48 #
coedge $-1 $118 $118 $191 $192 reversed $75 $-1 #
face $-1 $-1 $193 $39 $-1 $194 forward single #
loop $-1 $195 $196 $77 #
cone-surface $-1 42.160245371848347 7.2669261989518397 6.3589067921769722 -0.79863551827123203 0 -0.60181501223851219 0.3009075061192561 0 -0.39931775913561601 1 I I -0.70710678118654746 0.70710678118654746 0.5 forward I I I I #
loop $-1 $-1 $197 $49 #
coedge $-1 $123 $123 $198 $199 reversed $78 $-1 #
face $-1 $200 $201 $30 $-1 $202 reversed single #
loop $-1 $-1 $203 $80 #
plane-surface $-1 0 -27.314334512606525 0 0 1 0 0 0 1 forward_v I I I I #
coedge $-1 $204 $205 $206 $207 forward $81 $-1 #
coedge $-1 $208 $83 $209 $210 forward $51 $-1 #
coedge $-1 $83 $208 $211 $212 forward $51 $-1 #
coedge $-1 $213 $214 $83 $131 reversed $215 $-1 #
edge $-1 $216 -27.314334512606525 $217 27.314334512606525 $130 $218 forward 7 unknown #
face $-1 $219 $220 $31 $-1 $221 reversed single #
loop $-1 $-1 $222 $84 #
plane-surface $-1 0 -12.675882665733964 5.0667517013908263 0 -1 0 0 0 -1 forward_v I I I I #
coedge $-1 $223 $224 $225 $226 reversed $85 $-1 #
coedge $-1 $227 $87 $228 $229 forward $54 $-1 #
coedge $-1 $87 $227 $230 $231 reversed $54 $-1 #
coedge $-1 $232 $233 $87 $139 forward $234 $-1 #
edge $-1 $235 2.6783283711488419 $236 17.3167802180214 $138 $237 forward 7 unknown #
face $-1 $238 $239 $32 $-1 $240 reversed single #
loop $-1 $-1 $241 $88 #
plane-surface $-1 0 12.675882665733958 5.0667517013908263 0 1 0 0 0 1 forward_v I I I I #
coedge $-1 $242 $243 $244 $245 reversed $89 $-1 #
coedge $-1 $246 $91 $247 $248 reversed $57 $-1 #
coedge $-1 $91 $246 $249 $250 forward $57 $-1 #
coedge $-1 $251 $252 $91 $147 forward $239 $-1 #
edge $-1 $253 -17.3167802180214 $254 -2.6783283711488384 $146 $255 forward 7 unknown #
face $-1 $256 $257 $33 $-1 $258 reversed single #
loop $-1 $-1 $259 $92 #
plane-surface $-1 -110.10838731940328 -6.0042388344312378 77.18546873754957 0 1 0 -0.6560590369687036 0 0.75470957328743171 forward_v I I I I #
coedge $-1 $260 $261 $262 $263 reversed $93 $-1 #
coedge $-1 $153 $95 $264 $265 reversed $60 $-1 #
coedge $-1 $95 $152 $260 $266 reversed $60 $-1 #
coedge $-1 $262 $267 $95 $155 forward $257 $-1 #
edge $-1 $268 27.038971765801399 $269 33.289281472812171 $154 $270 forward 7 unknown #
loop $-1 $-1 $161 $96 #
plane-surface $-1 -47.622302926725048 -3.0021194172156207 5.3034528959626215 -0.6560590369687036 0 0.75470957328743171 0.75470957328743171 0 0.6560590369687036 forward_v I I I I #
loop $-1 $-1 $271 $62 #
coedge $-1 $159 $159 $160 $272 reversed $97 $-1 #
coedge $-1 $160 $160 $159 $272 forward $99 $-1 #
coedge $-1 $161 $161 $100 $162 forward $156 $-1 #
edge $-1 $273 0 $273 6.2831853071796004 $161 $274 forward 7 unknown #
face $-1 $275 $276 $35 $-1 $277 forward single #
loop $-1 $-1 $278 $101 #
plane-surface $-1 -47.622302926725055 0 0 1 0 0 0 0 -1 forward_v I I I I #
coedge $-1 $279 $280 $281 $282 reversed $102 $-1 #
coedge $-1 $283 $104 $284 $285 reversed $66 $-1 #
coedge $-1 $104 $283 $279 $286 forward $66 $-1 #
coedge $-1 $281 $278 $104 $170 forward $164 $-1 #
edge $-1 $287 -7.8390010414747895 $288 -1.8347622070435552 $169 $289 forward 7 unknown #
loop $-1 $-1 $176 $105 #
plane-surface $-1 -47.622302926725048 9.6737632485183447 5.3034528959626215 -0.6560590369687036 0 0.75470957328743171 0.75470957328743171 0 0.6560590369687036 forward_v I I I I #
loop $-1 $-1 $290 $68 #
coedge $-1 $174 $174 $175 $291 reversed $106 $-1 #
coedge $-1 $175 $175 $174 $291 forward $108 $-1 #
coedge $-1 $176 $176 $109 $177 forward $171 $-1 #
edge $-1 $292 0 $292 6.2831853071796004 $176 $293 forward 7 unknown #
face $-1 $294 $295 $37 $-1 $296 forward single #
loop $-1 $-1 $297 $110 #
plane-surface $-1 66.368394447688061 9.3363521011322064 139.94601926923968 0 -1 0 -0.79863551827123203 0 -0.60181501223851219 forward_v I I I I #
coedge $-1 $298 $299 $300 $301 reversed $111 $-1 #
coedge $-1 $183 $113 $302 $303 reversed $72 $-1 #
coedge $-1 $113 $182 $298 $304 reversed $72 $-1 #
coedge $-1 $300 $305 $113 $185 forward $306 $-1 #
edge $-1 $307 58.419247031646456 $308 63.412349161035849 $184 $309 forward 7 unknown #
loop $-1 $-1 $191 $114 #
plane-surface $-1 -9.6973307106212872 5.7148567723165762 82.626385631893328 0.79863551827123203 0 0.60181501223851219 0.60181501223851219 0 -0.79863551827123203 forward_v I I I I #
loop $-1 $-1 $310 $74 #
coedge $-1 $189 $189 $190 $311 reversed $115 $-1 #
coedge $-1 $190 $190 $189 $311 forward $117 $-1 #
coedge $-1 $191 $191 $118 $192 forward $186 $-1 #
edge $-1 $312 0 $312 6.2831853071796004 $191 $313 forward 7 unknown #
loop $-1 $-1 $198 $119 #
plane-surface $-1 -9.6973307106212872 5.7148567723165762 82.626385631893328 0.79863551827123203 0 0.60181501223851219 0.60181501223851219 0 -0.79863551827123203 forward_v I I I I #
loop $-1 $-1 $314 $77 #
coedge $-1 $196 $196 $197 $315 reversed $120 $-1 #
coedge $-1 $197 $197 $196 $315 forward $122 $-1 #
coedge $-1 $198 $198 $123 $199 forward $193 $-1 #
edge $-1 $316 0 $316 6.2831853071796004 $198 $317 forward 7 unknown #
face $-1 $318 $319 $30 $-1 $320 reversed single #
loop $-1 $-1 $321 $124 #
plane-surface $-1 -47.622302926725055 0 0 1 0 0 0 0 -1 forward_v I I I I #
coedge $-1 $322 $211 $323 $324 forward $125 $-1 #
coedge $-1 $325 $127 $322 $326 forward $81 $-1 #
coedge $-1 $127 $325 $327 $328 forward $81 $-1 #
coedge $-1 $214 $213 $127 $207 reversed $215 $-1 #
edge $-1 $329 -27.314334512606525 $330 27.314334512606525 $206 $331 forward 7 unknown #
coedge $-1 $129 $128 $332 $333 forward $51 $-1 #
coedge $-1 $334 $335 $128 $210 reversed $319 $-1 #
edge $-1 $217 -47.622302926725055 $336 47.622302926725055 $209 $337 forward 7 unknown #
coedge $-1 $203 $338 $129 $212 reversed $125 $-1 #
edge $-1 $339 -47.622302926725055 $216 47.622302926725055 $211 $340 forward 7 unknown #
coedge $-1 $206 $130 $338 $341 forward $215 $-1 #
coedge $-1 $130 $206 $334 $342 reversed $215 $-1 #
loop $-1 $-1 $213 $318 #
vertex $-1 $131 $343 #
vertex $-1 $131 $344 #
straight-curve $-1 47.622302926725055 0 11.553762602973388 0 1 0 I I #
face $-1 $345 $346 $31 $-1 $347 reversed single #
loop $-1 $-1 $348 $132 #
plane-surface $-1 -47.622302926725055 0 0 1 0 0 0 0 -1 forward_v I I I I #
coedge $-1 $349 $228 $233 $350 reversed $133 $-1 #
coedge $-1 $351 $135 $352 $353 reversed $85 $-1 #
coedge $-1 $135 $351 $349 $354 forward $85 $-1 #
coedge $-1 $233 $232 $135 $226 forward $234 $-1 #
edge $-1 $355 -17.3167802180214 $356 -2.6783283711488419 $225 $357 forward 7 unknown #
coedge $-1 $137 $136 $348 $358 reversed $54 $-1 #
coedge $-1 $222 $359 $136 $229 reversed $133 $-1 #
edge $-1 $235 -47.622302926725055 $360 47.622302926725055 $228 $361 forward 7 unknown #
coedge $-1 $362 $363 $137 $231 forward $346 $-1 #
edge $-1 $236 -47.622302926725055 $364 47.622302926725055 $230 $365 forward 7 unknown #
coedge $-1 $225 $138 $363 $366 forward $234 $-1 #
coedge $-1 $138 $225 $222 $350 forward $234 $-1 #
loop $-1 $-1 $138 $345 #
vertex $-1 $139 $367 #
vertex $-1 $366 $368 #
straight-curve $-1 47.622302926725055 -9.9975542945851217 6.8297345084408043 0 -1 0 I I #
face $-1 $369 $370 $32 $-1 $371 reversed single #
loop $-1 $-1 $146 $140 #
plane-surface $-1 47.622302926725055 0 0 -1 0 0 0 0 1 forward_v I I I I #
coedge $-1 $372 $249 $373 $374 reversed $141 $-1 #
coedge $-1 $375 $143 $372 $376 forward $89 $-1 #
coedge $-1 $143 $375 $377 $378 reversed $89 $-1 #
coedge $-1 $252 $251 $143 $245 forward $239 $-1 #
edge $-1 $379 2.6783283711488384 $380 17.3167802180214 $244 $381 forward 7 unknown #
coedge $-1 $145 $144 $382 $383 reversed $57 $-1 #
coedge $-1 $384 $385 $144 $248 forward $386 $-1 #
edge $-1 $387 -47.622302926725055 $253 47.622302926725055 $247 $388 forward 7 unknown #
coedge $-1 $241 $389 $145 $250 reversed $141 $-1 #
edge $-1 $390 -47.622302926725055 $254 47.622302926725055 $249 $391 forward 7 unknown #
coedge $-1 $244 $146 $389 $392 forward $239 $-1 #
coedge $-1 $146 $244 $384 $393 reversed $239 $-1 #
vertex $-1 $393 $394 #
vertex $-1 $147 $395 #
straight-curve $-1 47.622302926725055 9.9975542945851199 6.8297345084408043 0 -1 0 I I #
face $-1 $-1 $396 $33 $-1 $397 forward single #
loop $-1 $-1 $154 $148 #
plane-surface $-1 -47.622302926725055 0 0 1 0 0 0 0 -1 forward_v I I I I #
coedge $-1 $398 $399 $400 $401 reversed $149 $-1 #
coedge $-1 $402 $151 $153 $266 forward $93 $-1 #
coedge $-1 $151 $402 $398 $403 forward $93 $-1 #
coedge $-1 $400 $154 $151 $263 forward $257 $-1 #
edge $-1 $269 -1.5010597086078068 $404 4.5031791258234275 $262 $405 forward 7 unknown #
coedge $-1 $406 $407 $152 $265 forward $396 $-1 #
edge $-1 $408 -14.622049401757209 $268 -7.4318907329765835 $264 $409 forward 7 unknown #
edge $-1 $269 -9.44141639987384e-015 $408 9.5270537479219719 $153 $410 forward 7 unknown #
coedge $-1 $154 $400 $406 $411 reversed $257 $-1 #
vertex $-1 $411 $412 #
vertex $-1 $155 $413 #
straight-curve $-1 -47.622302926725055 -3.5527136788005009e-015 38.592734368774785 0 0 -1 I I #
coedge $-1 $271 $271 $-1 $414 reversed $158 $-1 #
edge $-1 $415 0 $415 6.2831853071796004 $159 $416 forward 7 unknown #
vertex $-1 $162 $417 #
ellipse-curve $-1 -44.027223592334749 -3.0021194172156207 8.4286077494679983 -0.6560590369687036 0 0.75470957328743171 1.1320643599311475 0 0.9840885554530554 1 I I #
face $-1 $-1 $418 $35 $-1 $419 forward single #
loop $-1 $-1 $284 $163 #
plane-surface $-1 0 12.675882665733958 5.0667517013908263 0 1 0 0 0 1 forward_v I I I I #
coedge $-1 $169 $420 $421 $422 forward $164 $-1 #
coedge $-1 $280 $166 $168 $286 reversed $102 $-1 #
coedge $-1 $166 $279 $423 $424 reversed $102 $-1 #
coedge $-1 $420 $169 $166 $282 forward $164 $-1 #
edge $-1 $288 -33.289281472812171 $425 -27.038971765801399 $281 $426 forward 7 unknown #
coedge $-1 $168 $167 $427 $428 reversed $66 $-1 #
coedge $-1 $421 $429 $167 $285 forward $276 $-1 #
edge $-1 $430 8.3658052335947044 $287 17.892858981516689 $284 $431 forward 7 unknown #
edge $-1 $432 -9.5270537479219719 $288 9.44141639987384e-015 $279 $433 forward 7 unknown #
vertex $-1 $170 $434 #
vertex $-1 $170 $435 #
straight-curve $-1 -47.622302926725055 4.8368816242591723 5.3034528959626188 0 -1 0 I I #
coedge $-1 $290 $290 $-1 $436 reversed $173 $-1 #
edge $-1 $437 0 $437 6.2831853071796004 $174 $438 forward 7 unknown #
vertex $-1 $177 $439 #
ellipse-curve $-1 -44.027223592334749 9.6737632485183447 8.4286077494679983 -0.6560590369687036 0 0.75470957328743171 1.1320643599311475 0 0.9840885554530554 1 I I #
face $-1 $-1 $306 $37 $-1 $440 reversed single #
loop $-1 $-1 $441 $178 #
plane-surface $-1 0 0 11.553762602973388 0 0 1 1 0 0 forward_v I I I I #
coedge $-1 $442 $443 $444 $445 reversed $179 $-1 #
coedge $-1 $446 $181 $183 $304 forward $111 $-1 #
coedge $-1 $181 $446 $442 $447 forward $111 $-1 #
coedge $-1 $444 $184 $181 $301 forward $306 $-1 #
edge $-1 $308 -0.7640669426573421 $448 6.4789237149739183 $300 $449 forward 7 unknown #
coedge $-1 $450 $451 $182 $303 forward $295 $-1 #
edge $-1 $452 10.675533477679664 $307 14.438105702881025 $302 $453 forward 7 unknown #
edge $-1 $308 -95.244605853450082 $452 -88.992564696806141 $183 $454 forward 7 unknown #
coedge $-1 $184 $444 $450 $455 reversed $306 $-1 #
loop $-1 $-1 $444 $294 #
vertex $-1 $455 $456 #
vertex $-1 $185 $457 #
straight-curve $-1 47.622302926725055 2.093361443500946 69.973009634619842 0 0 -1 I I #
coedge $-1 $310 $310 $-1 $458 reversed $188 $-1 #
edge $-1 $459 0 $459 6.2831853071796004 $189 $460 forward 7 unknown #
vertex $-1 $192 $461 #
ellipse-curve $-1 45.741016814124379 4.162787345681302 9.0572115382786826 0.79863551827123203 0 0.60181501223851219 0.60181501223851219 0 -0.79863551827123203 1 I I #
coedge $-1 $314 $314 $-1 $462 reversed $195 $-1 #
edge $-1 $463 0 $463 6.2831853071796004 $196 $464 forward 7 unknown #
vertex $-1 $199 $465 #
ellipse-curve $-1 45.741016814124379 7.2669261989518397 9.0572115382786826 0.79863551827123203 0 0.60181501223851219 0.60181501223851219 0 -0.79863551827123203 1 I I #
face $-1 $-1 $215 $30 $-1 $466 reversed single #
loop $-1 $-1 $334 $200 #
plane-surface $-1 0 27.314334512606525 0 0 -1 0 0 0 -1 forward_v I I I I #
coedge $-1 $467 $332 $335 $468 forward $201 $-1 #
coedge $-1 $338 $203 $204 $326 reversed $125 $-1 #
coedge $-1 $332 $467 $203 $324 reversed $201 $-1 #
edge $-1 $339 -11.553762602973388 $469 11.553762602973388 $323 $470 forward 7 unknown #
coedge $-1 $205 $204 $467 $471 forward $81 $-1 #
edge $-1 $330 -47.622302926725055 $469 47.622302926725055 $322 $472 forward 7 unknown #
coedge $-1 $335 $334 $205 $328 reversed $319 $-1 #
edge $-1 $473 -47.622302926725055 $329 47.622302926725055 $327 $474 forward 7 unknown #
vertex $-1 $207 $475 #
vertex $-1 $341 $476 #
straight-curve $-1 47.622302926725055 0 -11.553762602973388 0 -1 0 I I #
coedge $-1 $321 $323 $208 $333 reversed $201 $-1 #
edge $-1 $336 -27.314334512606525 $339 27.314334512606525 $332 $477 forward 7 unknown #
coedge $-1 $327 $209 $214 $342 forward $319 $-1 #
coedge $-1 $209 $327 $321 $468 reversed $319 $-1 #
vertex $-1 $210 $478 #
straight-curve $-1 0 27.314334512606525 11.553762602973388 -1 0 0 I I #
coedge $-1 $211 $322 $213 $341 reversed $125 $-1 #
vertex $-1 $333 $479 #
straight-curve $-1 0 -27.314334512606525 11.553762602973388 1 0 0 I I #
edge $-1 $216 -11.553762602973388 $330 11.553762602973388 $213 $480 forward 7 unknown #
edge $-1 $217 -11.553762602973388 $329 11.553762602973388 $214 $481 forward 7 unknown #
point $-1 47.622302926725055 -27.314334512606525 11.553762602973388 #
point $-1 47.622302926725055 27.314334512606525 11.553762602973388 #
face $-1 $-1 $234 $31 $-1 $482 reversed single #
loop $-1 $-1 $230 $219 #
plane-surface $-1 0 -27.314334512606525 0 0 1 0 0 0 1 forward_v I I I I #
coedge $-1 $483 $484 $227 $358 forward $220 $-1 #
coedge $-1 $359 $222 $224 $354 reversed $133 $-1 #
edge $-1 $356 0.77039304364543515 $235 4.2963586577453912 $233 $485 forward 7 unknown #
coedge $-1 $224 $223 $486 $487 reversed $85 $-1 #
coedge $-1 $363 $362 $223 $353 forward $346 $-1 #
edge $-1 $488 -47.622302926725055 $355 47.622302926725055 $352 $489 forward 7 unknown #
edge $-1 $490 -47.622302926725055 $356 47.622302926725055 $349 $491 forward 7 unknown #
vertex $-1 $353 $492 #
vertex $-1 $226 $493 #
straight-curve $-1 47.622302926725055 -9.9975542945851217 3.3037688943408483 0 1 0 I I #
edge $-1 $364 -17.3167802180214 $360 -2.6783283711488419 $348 $494 forward 7 unknown #
coedge $-1 $228 $349 $483 $495 reversed $133 $-1 #
vertex $-1 $358 $496 #
straight-curve $-1 0 -12.675882665733964 6.8297345084408043 -1 0 0 I I #
coedge $-1 $352 $230 $484 $497 forward $346 $-1 #
coedge $-1 $230 $352 $232 $366 reversed $346 $-1 #
vertex $-1 $497 $498 #
straight-curve $-1 0 -27.314334512606525 6.8297345084408043 -1 0 0 I I #
edge $-1 $236 -6.8297345084408043 $355 -3.3037688943408483 $232 $499 forward 7 unknown #
point $-1 47.622302926725055 -12.675882665733964 6.8297345084408043 #
point $-1 47.622302926725055 -27.314334512606521 6.8297345084408043 #
face $-1 $-1 $386 $32 $-1 $500 reversed single #
loop $-1 $-1 $382 $238 #
plane-surface $-1 -47.622302926725055 0 0 1 0 0 0 0 -1 forward_v I I I I #
coedge $-1 $389 $241 $242 $376 reversed $141 $-1 #
coedge $-1 $382 $501 $241 $374 forward $370 $-1 #
edge $-1 $502 0.77039304364543515 $390 4.2963586577453912 $373 $503 forward 7 unknown #
coedge $-1 $243 $242 $501 $504 reversed $89 $-1 #
edge $-1 $379 -47.622302926725055 $502 47.622302926725055 $372 $505 forward 7 unknown #
coedge $-1 $385 $384 $243 $378 forward $386 $-1 #
edge $-1 $380 -47.622302926725055 $506 47.622302926725055 $377 $507 forward 7 unknown #
vertex $-1 $245 $508 #
vertex $-1 $378 $509 #
straight-curve $-1 47.622302926725055 9.9975542945851199 3.3037688943408483 0 1 0 I I #
coedge $-1 $510 $373 $246 $383 forward $370 $-1 #
edge $-1 $390 2.6783283711488384 $387 17.3167802180214 $382 $511 forward 7 unknown #
coedge $-1 $377 $247 $252 $393 forward $386 $-1 #
coedge $-1 $247 $377 $510 $512 reversed $386 $-1 #
loop $-1 $-1 $247 $369 #
vertex $-1 $512 $513 #
straight-curve $-1 0 27.314334512606525 6.8297345084408043 1 0 0 I I #
coedge $-1 $249 $372 $251 $392 reversed $141 $-1 #
vertex $-1 $383 $514 #
straight-curve $-1 0 12.675882665733958 6.8297345084408043 1 0 0 I I #
edge $-1 $254 -4.2963586577453912 $379 -0.77039304364543515 $251 $515 forward 7 unknown #
edge $-1 $253 -6.8297345084408043 $380 -3.3037688943408483 $252 $516 forward 7 unknown #
point $-1 47.622302926725055 27.314334512606521 6.8297345084408043 #
point $-1 47.622302926725055 12.675882665733958 6.8297345084408043 #
loop $-1 $-1 $264 $256 #
plane-surface $-1 0 0 11.553762602973388 0 0 1 1 0 0 forward_v I I I I #
coedge $-1 $399 $259 $261 $403 reversed $149 $-1 #
coedge $-1 $259 $398 $517 $518 reversed $149 $-1 #
coedge $-1 $267 $262 $259 $401 forward $257 $-1 #
edge $-1 $404 -33.289281472812171 $519 -27.038971765801399 $400 $520 forward 7 unknown #
coedge $-1 $261 $260 $407 $521 reversed $93 $-1 #
edge $-1 $522 -9.5270537479219719 $404 9.44141639987384e-015 $398 $523 forward 7 unknown #
vertex $-1 $263 $524 #
straight-curve $-1 -47.622302926725055 -1.5010597086078104 5.3034528959626188 0 -1 0 I I #
coedge $-1 $517 $264 $267 $411 forward $396 $-1 #
coedge $-1 $264 $517 $402 $521 forward $396 $-1 #
vertex $-1 $265 $525 #
straight-curve $-1 -55.054193659701639 -3.5527136788005009e-015 11.553762602973386 -1 0 0 I I #
straight-curve $-1 -47.622302926725048 -3.5527136788005009e-015 5.3034528959626215 0.75470957328743171 0 0.6560590369687036 I I #
edge $-1 $268 3.5527136788005009e-015 $519 6.0042388344312378 $267 $526 forward 7 unknown #
point $-1 -47.622302926725055 -3.5527136788005009e-015 11.553762602973388 #
point $-1 -47.622302926725055 -3.5527136788005009e-015 5.3034528959626153 #
edge $-1 $527 1 $527 0 $271 $-1 forward 7 unknown #
vertex $-1 $272 $528 #
ellipse-curve $-1 -40.721290308280494 -3.0021194172156207 4.6255666243072993 -0.6560590369687036 0 0.75470957328743171 1.1320643599311475 0 0.9840885554530554 1 I I #
point $-1 -42.895159232403607 -3.0021194172156207 9.4126963049210612 #
loop $-1 $-1 $529 $275 #
plane-surface $-1 0 0 11.553762602973388 0 0 1 1 0 0 forward_v I I I I #
coedge $-1 $278 $281 $530 $531 reversed $164 $-1 #
coedge $-1 $429 $284 $278 $422 reversed $276 $-1 #
edge $-1 $532 27.038971765801399 $287 33.289281472812171 $278 $533 forward 7 unknown #
coedge $-1 $427 $530 $280 $424 forward $418 $-1 #
edge $-1 $425 7.4318907329765835 $432 14.622049401757209 $423 $534 forward 7 unknown #
vertex $-1 $282 $535 #
straight-curve $-1 -47.622302926725055 6.6716438313027275 38.592734368774785 0 0 1 I I #
coedge $-1 $529 $423 $283 $428 forward $418 $-1 #
edge $-1 $432 1.8347622070435552 $430 7.8390010414747895 $427 $536 forward 7 unknown #
coedge $-1 $284 $421 $529 $537 reversed $276 $-1 #
vertex $-1 $537 $538 #
straight-curve $-1 -34.118390959892409 12.675882665733958 17.042224727993272 -0.75470957328743171 0 -0.6560590369687036 I I #
vertex $-1 $428 $539 #
straight-curve $-1 -47.622302926725048 6.6716438313027275 5.3034528959626215 -0.75470957328743171 0 -0.6560590369687036 I I #
point $-1 -47.622302926725055 12.675882665733962 5.3034528959626153 #
point $-1 -47.622302926725055 6.6716438313027275 5.3034528959626153 #
edge $-1 $540 1 $540 0 $290 $-1 forward 7 unknown #
vertex $-1 $291 $541 #
ellipse-curve $-1 -40.721290308280494 9.6737632485183447 4.6255666243072993 -0.6560590369687036 0 0.75470957328743171 1.1320643599311475 0 0.9840885554530554 1 I I #
point $-1 -42.895159232403607 9.6737632485183447 9.4126963049210612 #
plane-surface $-1 47.622302926725055 0 0 -1 0 0 0 0 1 forward_v I I I I #
coedge $-1 $451 $450 $443 $542 forward $295 $-1 #
coedge $-1 $443 $297 $299 $447 reversed $179 $-1 #
coedge $-1 $297 $442 $441 $542 reversed $179 $-1 #
coedge $-1 $305 $300 $297 $445 forward $306 $-1 #
edge $-1 $448 -63.412349161035849 $543 -58.419247031646456 $444 $544 forward 7 unknown #
coedge $-1 $299 $298 $451 $545 reversed $111 $-1 #
edge $-1 $546 88.992564696806141 $448 95.244605853450082 $442 $547 forward 7 unknown #
vertex $-1 $301 $548 #
straight-curve $-1 47.622302926725055 2.8574283861582881 6.5606604735839866 0 1 0 I I #
coedge $-1 $441 $302 $305 $455 forward $295 $-1 #
coedge $-1 $302 $441 $446 $545 forward $295 $-1 #
vertex $-1 $303 $549 #
straight-curve $-1 33.184197223844031 2.093361443500946 11.553762602973393 1 0 0 I I #
straight-curve $-1 -9.6973307106212872 2.093361443500946 82.626385631893328 -0.60181501223851219 0 0.79863551827123203 I I #
edge $-1 $307 2.093361443500946 $543 9.3363521011322064 $305 $550 forward 7 unknown #
point $-1 47.622302926725055 2.093361443500946 11.553762602973388 #
point $-1 47.622302926725055 2.093361443500946 6.5606604735839937 #
edge $-1 $551 1 $551 0 $310 $-1 forward 7 unknown #
vertex $-1 $311 $552 #
ellipse-curve $-1 42.55956313098396 4.162787345681302 6.6598142982962285 0.79863551827123203 0 0.60181501223851219 0.60181501223851219 0 -0.79863551827123203 1 I I #
point $-1 46.342831826362897 4.162787345681302 8.2585760200074549 #
edge $-1 $553 1 $553 0 $314 $-1 forward 7 unknown #
vertex $-1 $315 $554 #
ellipse-curve $-1 42.55956313098396 7.2669261989518397 6.6598142982962285 0.79863551827123203 0 0.60181501223851219 0.60181501223851219 0 -0.79863551827123203 1 I I #
point $-1 46.342831826362897 7.2669261989518397 8.2585760200074549 #
plane-surface $-1 47.622302926725055 0 0 -1 0 0 0 0 1 forward_v I I I I #
coedge $-1 $323 $321 $325 $471 reversed $201 $-1 #
edge $-1 $336 -11.553762602973388 $473 11.553762602973388 $335 $555 forward 7 unknown #
vertex $-1 $471 $556 #
straight-curve $-1 -47.622302926725055 -27.314334512606525 0 0 0 -1 I I #
edge $-1 $469 -27.314334512606525 $473 27.314334512606525 $467 $557 forward 7 unknown #
straight-curve $-1 0 -27.314334512606525 -11.553762602973388 -1 0 0 I I #
vertex $-1 $328 $558 #
straight-curve $-1 0 27.314334512606525 -11.553762602973388 1 0 0 I I #
point $-1 47.622302926725055 27.314334512606525 -11.553762602973388 #
point $-1 47.622302926725055 -27.314334512606525 -11.553762602973388 #
straight-curve $-1 -47.622302926725055 0 11.553762602973388 0 -1 0 I I #
point $-1 -47.622302926725055 27.314334512606525 11.553762602973388 #
point $-1 -47.622302926725055 -27.314334512606525 11.553762602973388 #
straight-curve $-1 47.622302926725055 -27.314334512606525 0 0 0 -1 I I #
straight-curve $-1 47.622302926725055 27.314334512606525 0 0 0 -1 I I #
plane-surface $-1 47.622302926725055 0 0 -1 0 0 0 0 1 forward_v I I I I #
coedge $-1 $486 $348 $359 $495 forward $220 $-1 #
coedge $-1 $348 $486 $362 $497 reversed $220 $-1 #
straight-curve $-1 47.622302926725055 -12.675882665733964 2.5333758506954132 0 0 1 I I #
coedge $-1 $484 $483 $351 $487 forward $220 $-1 #
edge $-1 $490 2.6783283711488419 $488 17.3167802180214 $486 $559 forward 7 unknown #
vertex $-1 $353 $560 #
straight-curve $-1 0 -27.314334512606525 3.3037688943408483 1 0 0 I I #
vertex $-1 $487 $561 #
straight-curve $-1 0 -12.675882665733964 3.3037688943408483 1 0 0 I I #
point $-1 47.622302926725055 -27.314334512606521 3.3037688943408483 #
point $-1 47.622302926725055 -12.675882665733964 3.3037688943408483 #
straight-curve $-1 -47.622302926725055 -9.9975542945851217 6.8297345084408043 0 1 0 I I #
edge $-1 $360 -4.2963586577453912 $490 -0.77039304364543515 $483 $562 forward 7 unknown #
point $-1 -47.622302926725055 -12.675882665733964 6.8297345084408043 #
edge $-1 $364 -6.8297345084408043 $488 -3.3037688943408483 $484 $563 forward 7 unknown #
point $-1 -47.622302926725055 -27.314334512606521 6.8297345084408043 #
straight-curve $-1 47.622302926725055 -27.314334512606525 0 0 0 -1 I I #
plane-surface $-1 0 27.314334512606525 0 0 -1 0 0 0 -1 forward_v I I I I #
coedge $-1 $373 $510 $375 $504 forward $370 $-1 #
vertex $-1 $504 $564 #
straight-curve $-1 -47.622302926725055 12.675882665733958 2.5333758506954132 0 0 1 I I #
edge $-1 $506 -17.3167802180214 $502 -2.6783283711488384 $501 $565 forward 7 unknown #
straight-curve $-1 0 12.675882665733958 3.3037688943408483 -1 0 0 I I #
vertex $-1 $378 $566 #
straight-curve $-1 0 27.314334512606525 3.3037688943408483 -1 0 0 I I #
point $-1 47.622302926725055 12.675882665733958 3.3037688943408483 #
point $-1 47.622302926725055 27.314334512606521 3.3037688943408483 #
coedge $-1 $501 $382 $385 $512 forward $370 $-1 #
straight-curve $-1 -47.622302926725055 9.9975542945851199 6.8297345084408043 0 1 0 I I #
edge $-1 $387 -6.8297345084408043 $506 -3.3037688943408483 $385 $567 forward 7 unknown #
point $-1 -47.622302926725055 27.314334512606521 6.8297345084408043 #
point $-1 -47.622302926725055 12.675882665733958 6.8297345084408043 #
straight-curve $-1 47.622302926725055 12.675882665733958 2.5333758506954132 0 0 -1 I I #
straight-curve $-1 47.622302926725055 27.314334512606525 0 0 0 -1 I I #
coedge $-1 $407 $406 $399 $518 forward $396 $-1 #
edge $-1 $519 7.4318907329765835 $522 14.622049401757209 $517 $568 forward 7 unknown #
vertex $-1 $518 $569 #
straight-curve $-1 -47.622302926725055 -6.0042388344312378 38.592734368774785 0 0 1 I I #
edge $-1 $522 -4.5031791258234275 $408 1.5010597086078068 $407 $570 forward 7 unknown #
vertex $-1 $521 $571 #
straight-curve $-1 -47.622302926725048 -6.0042388344312378 5.3034528959626215 -0.75470957328743171 0 -0.6560590369687036 I I #
point $-1 -47.622302926725055 -6.0042388344312378 5.3034528959626153 #
point $-1 -40.432144257944429 -3.5527136788005009e-015 11.553762602973388 #
straight-curve $-1 -47.622302926725055 0 11.553762602973388 0 -1 0 I I #
vertex $-1 $414 $572 #
point $-1 -39.589225948349345 -3.0021194172156207 5.6096551797603542 #
coedge $-1 $530 $427 $429 $537 forward $418 $-1 #
coedge $-1 $423 $529 $420 $531 forward $418 $-1 #
edge $-1 $532 -12.675882665733962 $425 -6.6716438313027275 $420 $573 forward 7 unknown #
vertex $-1 $531 $574 #
straight-curve $-1 -47.622302926725055 12.675882665733962 38.592734368774785 0 0 -1 I I #
straight-curve $-1 -55.054193659701639 6.6716438313027275 11.553762602973386 1 0 0 I I #
point $-1 -47.622302926725055 6.6716438313027275 11.553762602973388 #
straight-curve $-1 -40.432144257944429 4.8368816242591723 11.553762602973389 0 1 0 I I #
edge $-1 $430 -14.622049401757209 $532 -7.4318907329765835 $529 $575 forward 7 unknown #
point $-1 -40.432144257944429 12.675882665733962 11.553762602973388 #
point $-1 -40.432144257944429 6.6716438313027275 11.553762602973388 #
vertex $-1 $436 $576 #
point $-1 -39.589225948349345 9.6737632485183447 5.6096551797603542 #
edge $-1 $543 -14.438105702881025 $546 -10.675533477679664 $441 $577 forward 7 unknown #
vertex $-1 $445 $578 #
straight-curve $-1 47.622302926725055 9.3363521011322064 69.973009634619842 0 0 1 I I #
edge $-1 $546 -6.4789237149739183 $452 0.7640669426573421 $451 $579 forward 7 unknown #
vertex $-1 $545 $580 #
straight-curve $-1 -9.6973307106212872 9.3363521011322064 82.626385631893328 0.60181501223851219 0 -0.79863551827123203 I I #
point $-1 47.622302926725055 9.3363521011322064 6.5606604735839937 #
point $-1 43.859730701523695 2.093361443500946 11.553762602973393 #
straight-curve $-1 47.622302926725055 0 11.553762602973388 0 1 0 I I #
vertex $-1 $458 $581 #
point $-1 43.161378143222478 4.162787345681302 5.8611787800249964 #
vertex $-1 $462 $582 #
point $-1 43.161378143222478 7.2669261989518397 5.8611787800249964 #
straight-curve $-1 -47.622302926725055 27.314334512606525 0 0 0 -1 I I #
point $-1 -47.622302926725055 -27.314334512606525 -11.553762602973388 #
straight-curve $-1 -47.622302926725055 0 -11.553762602973388 0 1 0 I I #
point $-1 -47.622302926725055 27.314334512606525 -11.553762602973388 #
straight-curve $-1 -47.622302926725055 -9.9975542945851217 3.3037688943408483 0 -1 0 I I #
point $-1 -47.622302926725055 -27.314334512606521 3.3037688943408483 #
point $-1 -47.622302926725055 -12.675882665733964 3.3037688943408483 #
straight-curve $-1 -47.622302926725055 -12.675882665733964 2.5333758506954132 0 0 -1 I I #
straight-curve $-1 -47.622302926725055 -27.314334512606525 0 0 0 -1 I I #
point $-1 -47.622302926725055 12.675882665733958 3.3037688943408483 #
straight-curve $-1 -47.622302926725055 9.9975542945851199 3.3037688943408483 0 -1 0 I I #
point $-1 -47.622302926725055 27.314334512606521 3.3037688943408483 #
straight-curve $-1 -47.622302926725055 27.314334512606525 0 0 0 -1 I I #
straight-curve $-1 -55.054193659701639 -6.0042388344312378 11.553762602973386 1 0 0 I I #
point $-1 -47.622302926725055 -6.0042388344312378 11.553762602973388 #
straight-curve $-1 -40.432144257944429 -1.5010597086078104 11.553762602973389 0 1 0 I I #
point $-1 -40.432144257944429 -6.0042388344312378 11.553762602973388 #
point $-1 -39.737201752827438 -3.0021194172156207 3.4935022643761515 #
straight-curve $-1 -47.622302926725055 0 11.553762602973388 0 -1 0 I I #
point $-1 -47.622302926725055 12.675882665733962 11.553762602973388 #
straight-curve $-1 -55.054193659701639 12.675882665733962 11.553762602973386 -1 0 0 I I #
point $-1 -39.737201752827438 9.6737632485183447 3.4935022643761515 #
straight-curve $-1 33.184197223844031 9.3363521011322064 11.553762602973393 -1 0 0 I I #
point $-1 47.622302926725055 9.3363521011322064 11.553762602973388 #
straight-curve $-1 43.859730701523702 2.8574283861582881 11.553762602973393 0 -1 0 I I #
point $-1 43.859730701523695 9.3363521011322064 11.553762602973393 #
point $-1 41.760927612712734 4.162787345681302 6.0579992860577159 #
point $-1 41.760927612712734 7.2669261989518397 6.0579992860577159 #
End-of-ACIS-data 