500 0 9 0           
7 Unknown 11 ACIS 5.0 NT 24 Fri Mar 26 14:47:29 1999 
-1 9.9999999999999995e-007 1e-010 
body $-1 $9 $-1 $10 #
body $-1 $11 $-1 $12 #
body $-1 $13 $-1 $14 #
body $-1 $15 $-1 $16 #
body $-1 $17 $-1 $18 #
body $-1 $19 $-1 $20 #
body $-1 $21 $-1 $22 #
body $-1 $23 $-1 $24 #
body $-1 $25 $-1 $26 #
lump $-1 $-1 $27 $0 #
transform $-1 1 0 0 0 1 0 0 0 1 58.019348735007782 40.10571766664021 8.1742617705818859 1 rotate no_reflect no_shear #
lump $-1 $-1 $28 $1 #
transform $-1 1 0 0 0 1 0 0 0 1 58.019348735007782 40.10571766664021 8.1742617705818859 1 rotate no_reflect no_shear #
lump $-1 $-1 $29 $2 #
transform $-1 1 0 0 0 1 0 0 0 1 58.019348735007782 40.10571766664021 8.1742617705818859 1 rotate no_reflect no_shear #
lump $-1 $-1 $30 $3 #
transform $-1 1 0 0 0 1 0 0 0 1 58.019348735007782 40.10571766664021 8.1742617705818859 1 rotate no_reflect no_shear #
lump $-1 $-1 $31 $4 #
transform $-1 1 0 0 0 1 0 0 0 1 58.019348735007782 40.10571766664021 8.1742617705818859 1 rotate no_reflect no_shear #
lump $-1 $-1 $32 $5 #
transform $-1 1 0 0 0 1 0 0 0 1 58.019348735007782 40.10571766664021 8.1742617705818859 1 rotate no_reflect no_shear #
lump $-1 $-1 $33 $6 #
transform $-1 1 0 0 0 1 0 0 0 1 58.019348735007782 40.10571766664021 8.1742617705818859 1 rotate no_reflect no_shear #
lump $-1 $-1 $34 $7 #
transform $-1 1 0 0 0 1 0 0 0 1 58.019348735007782 40.10571766664021 8.1742617705818859 1 rotate no_reflect no_shear #
lump $-1 $-1 $35 $8 #
transform $-1 1 0 0 0 1 0 0 0 1 58.019348735007782 40.10571766664021 8.1742617705818859 1 rotate no_reflect no_shear #
shell $-1 $-1 $-1 $36 $-1 $9 #
shell $-1 $-1 $-1 $37 $-1 $11 #
shell $-1 $-1 $-1 $38 $-1 $13 #
shell $-1 $-1 $-1 $39 $-1 $15 #
shell $-1 $-1 $-1 $40 $-1 $17 #
shell $-1 $-1 $-1 $41 $-1 $19 #
shell $-1 $-1 $-1 $42 $-1 $21 #
shell $-1 $-1 $-1 $43 $-1 $23 #
shell $-1 $-1 $-1 $44 $-1 $25 #
face $-1 $45 $46 $27 $-1 $47 forward single #
face $-1 $48 $49 $28 $-1 $50 forward single #
face $-1 $51 $52 $29 $-1 $53 forward single #
face $-1 $54 $55 $30 $-1 $56 reversed single #
face $-1 $57 $58 $31 $-1 $59 forward single #
face $-1 $60 $61 $32 $-1 $62 forward single #
face $-1 $63 $64 $33 $-1 $65 forward single #
face $-1 $66 $67 $34 $-1 $68 reversed single #
face $-1 $69 $70 $35 $-1 $71 forward single #
face $-1 $72 $73 $27 $-1 $74 reversed single #
loop $-1 $-1 $75 $36 #
plane-surface $-1 0 0 8.1742617705818859 0 0 1 1 0 0 forward_v I I I I #
face $-1 $76 $77 $28 $-1 $78 reversed single #
loop $-1 $-1 $79 $37 #
plane-surface $-1 -53.383362086092077 0 -5.1742617705818859 0 0 1 1 0 0 forward_v I I I I #
face $-1 $80 $81 $29 $-1 $82 reversed single #
loop $-1 $-1 $83 $38 #
plane-surface $-1 53.383362086092077 0 -5.1742617705818859 0 0 1 1 0 0 forward_v I I I I #
face $-1 $84 $85 $30 $-1 $86 reversed single #
loop $-1 $-1 $87 $39 #
plane-surface $-1 20.260791260838907 86.835899024037531 136.33763001187737 -1 0 0 0 0.80901700255871778 0.5877852410284794 forward_v I I I I #
face $-1 $88 $89 $31 $-1 $90 forward single #
loop $-1 $91 $92 $40 #
cone-surface $-1 5.8344126085560788 37.354946950079686 5.010742582669069 0 -0.80901700255871778 -0.5877852410284794 1 0 0 1 I I 0 1 1 forward I I I I #
face $-1 $93 $94 $32 $-1 $95 forward single #
loop $-1 $96 $97 $41 #
cone-surface $-1 11.244304603162149 37.354946950079686 5.010742582669069 0 -0.80901700255871778 -0.5877852410284794 1 0 0 1 I I 0 1 1 forward I I I I #
face $-1 $98 $99 $33 $-1 $100 forward single #
loop $-1 $101 $102 $42 #
cone-surface $-1 16.65419659776822 37.354946950079686 5.010742582669069 0 -0.80901700255871778 -0.5877852410284794 1 0 0 1 I I 0 1 1 forward I I I I #
face $-1 $103 $104 $34 $-1 $105 reversed single #
loop $-1 $-1 $106 $43 #
plane-surface $-1 8.0146457241418148 -128.99651801188082 75.089918306532695 1 0 0 0 0.7660444514056185 -0.64278759981090561 forward_v I I I I #
face $-1 $107 $108 $35 $-1 $109 forward single #
loop $-1 $110 $111 $44 #
cone-surface $-1 16.682416148947894 -34.954084404983817 2.7163247630796015 0 0.7660444514056185 -0.64278759981090561 1.5 0 0 1 I I 0 1 1.5 forward I I I I #
face $-1 $112 $113 $27 $-1 $114 reversed single #
loop $-1 $-1 $115 $45 #
plane-surface $-1 0 0 -8.1742617705818859 0 0 1 1 0 0 forward_v I I I I #
coedge $-1 $116 $117 $118 $119 forward $46 $-1 #
face $-1 $120 $121 $28 $-1 $122 reversed single #
loop $-1 $-1 $123 $48 #
plane-surface $-1 -48.747375437176373 0 -6.6742617705818859 -1 0 0 0 0 1 forward_v I I I I #
coedge $-1 $124 $125 $126 $127 forward $49 $-1 #
face $-1 $128 $129 $29 $-1 $130 reversed single #
loop $-1 $-1 $131 $51 #
plane-surface $-1 48.747375437176373 0 -6.6742617705818859 1 0 0 0 0 -1 forward_v I I I I #
coedge $-1 $132 $133 $134 $135 reversed $52 $-1 #
face $-1 $136 $137 $30 $-1 $138 reversed single #
loop $-1 $-1 $139 $54 #
plane-surface $-1 11.244304603162135 -7.041380183972322 68.13179625083346 0 0.80901700255871778 0.5877852410284794 1 0 0 forward_v I I I I #
coedge $-1 $140 $141 $142 $143 reversed $55 $-1 #
face $-1 $-1 $144 $31 $-1 $145 forward single #
loop $-1 $146 $147 $57 #
cone-surface $-1 5.8344126085560788 35.992367958145444 4.0207710262476937 0 -0.80901700255871778 -0.5877852410284794 0.5 0 0 1 I I -0.70710678118654746 0.70710678118654746 0.5 forward I I I I #
loop $-1 $-1 $148 $40 #
coedge $-1 $92 $92 $149 $150 reversed $58 $-1 #
face $-1 $-1 $151 $32 $-1 $152 forward single #
loop $-1 $153 $154 $60 #
cone-surface $-1 11.244304603162149 35.992367958145444 4.0207710262476937 0 -0.80901700255871778 -0.5877852410284794 0.5 0 0 1 I I -0.70710678118654746 0.70710678118654746 0.5 forward I I I I #
loop $-1 $-1 $155 $41 #
coedge $-1 $97 $97 $156 $157 reversed $61 $-1 #
face $-1 $-1 $158 $33 $-1 $159 forward single #
loop $-1 $160 $161 $63 #
cone-surface $-1 16.65419659776822 35.992367958145444 4.0207710262476937 0 -0.80901700255871778 -0.5877852410284794 0.5 0 0 1 I I -0.70710678118654746 0.70710678118654746 0.5 forward I I I I #
loop $-1 $-1 $162 $42 #
coedge $-1 $102 $102 $163 $164 reversed $64 $-1 #
face $-1 $165 $166 $34 $-1 $167 reversed single #
loop $-1 $-1 $168 $66 #
plane-surface $-1 16.682416148947894 -40.105717666640217 0.50168247459758675 0 -0.7660444514056185 0.64278759981090561 1 0 0 forward_v I I I I #
coedge $-1 $169 $170 $171 $172 reversed $67 $-1 #
face $-1 $-1 $173 $35 $-1 $174 forward single #
loop $-1 $175 $176 $69 #
cone-surface $-1 16.682416148947894 -32.446946949214599 0.61258670371129398 0 0.7660444514056185 -0.64278759981090561 0.75 0 0 1 I I -0.70710678118654757 0.70710678118654757 0.75 forward I I I I #
loop $-1 $-1 $177 $44 #
coedge $-1 $111 $111 $178 $179 reversed $70 $-1 #
face $-1 $180 $181 $27 $-1 $182 reversed single #
loop $-1 $-1 $183 $72 #
plane-surface $-1 0 -40.10571766664021 0 0 1 0 0 0 1 forward_v I I I I #
coedge $-1 $184 $185 $186 $187 forward $73 $-1 #
coedge $-1 $188 $75 $189 $190 forward $46 $-1 #
coedge $-1 $75 $188 $191 $192 forward $46 $-1 #
coedge $-1 $193 $194 $75 $119 reversed $195 $-1 #
edge $-1 $196 -40.10571766664021 $197 40.10571766664021 $118 $198 forward 7 unknown #
face $-1 $199 $200 $28 $-1 $201 reversed single #
loop $-1 $-1 $202 $76 #
plane-surface $-1 0 0 -8.1742617705818859 0 0 1 1 0 0 forward_v I I I I #
coedge $-1 $203 $126 $204 $205 reversed $77 $-1 #
coedge $-1 $206 $79 $207 $208 reversed $49 $-1 #
coedge $-1 $79 $206 $209 $210 reversed $49 $-1 #
coedge $-1 $123 $211 $79 $127 reversed $77 $-1 #
edge $-1 $212 -40.10571766664021 $213 40.10571766664021 $126 $214 forward 7 unknown #
face $-1 $215 $216 $29 $-1 $217 reversed single #
loop $-1 $-1 $218 $80 #
plane-surface $-1 0 -40.10571766664021 0 0 1 0 0 0 1 forward_v I I I I #
coedge $-1 $219 $220 $221 $222 reversed $81 $-1 #
coedge $-1 $223 $83 $224 $225 reversed $52 $-1 #
coedge $-1 $83 $223 $218 $226 reversed $52 $-1 #
coedge $-1 $227 $228 $83 $135 forward $229 $-1 #
edge $-1 $230 -40.10571766664021 $231 40.10571766664021 $134 $232 forward 7 unknown #
face $-1 $233 $234 $30 $-1 $235 reversed single #
loop $-1 $-1 $236 $84 #
plane-surface $-1 2.2278179454853628 86.835899024037531 136.33763001187737 1 0 0 0 -0.80901700255871778 -0.5877852410284794 forward_v I I I I #
coedge $-1 $237 $238 $239 $240 reversed $85 $-1 #
coedge $-1 $141 $87 $241 $242 reversed $55 $-1 #
coedge $-1 $87 $140 $237 $243 reversed $55 $-1 #
coedge $-1 $239 $244 $87 $143 forward $234 $-1 #
edge $-1 $245 59.994553235356797 $246 64.929433739368179 $142 $247 forward 7 unknown #
loop $-1 $-1 $149 $88 #
plane-surface $-1 11.244304603162135 -7.041380183972322 68.13179625083346 0 0.80901700255871778 0.5877852410284794 1 0 0 forward_v I I I I #
loop $-1 $-1 $248 $57 #
coedge $-1 $147 $147 $148 $249 reversed $89 $-1 #
coedge $-1 $148 $148 $147 $249 forward $91 $-1 #
coedge $-1 $149 $149 $92 $150 forward $144 $-1 #
edge $-1 $250 -4.5809953071807028e-015 $250 6.283185307179596 $149 $251 forward 7 unknown #
loop $-1 $-1 $156 $93 #
plane-surface $-1 11.244304603162135 -7.041380183972322 68.13179625083346 0 0.80901700255871778 0.5877852410284794 1 0 0 forward_v I I I I #
loop $-1 $-1 $252 $60 #
coedge $-1 $154 $154 $155 $253 reversed $94 $-1 #
coedge $-1 $155 $155 $154 $253 forward $96 $-1 #
coedge $-1 $156 $156 $97 $157 forward $151 $-1 #
edge $-1 $254 -4.5809953071807028e-015 $254 6.283185307179596 $156 $255 forward 7 unknown #
loop $-1 $-1 $163 $98 #
plane-surface $-1 11.244304603162135 -7.041380183972322 68.13179625083346 0 0.80901700255871778 0.5877852410284794 1 0 0 forward_v I I I I #
loop $-1 $-1 $256 $63 #
coedge $-1 $161 $161 $162 $257 reversed $99 $-1 #
coedge $-1 $162 $162 $161 $257 forward $101 $-1 #
coedge $-1 $163 $163 $102 $164 forward $158 $-1 #
edge $-1 $258 -4.5809953071807028e-015 $258 6.283185307179596 $163 $259 forward 7 unknown #
face $-1 $260 $261 $34 $-1 $262 forward single #
loop $-1 $-1 $263 $103 #
plane-surface $-1 25.350186573753973 -128.99651801188082 75.089918306532695 -1 0 0 0 -0.7660444514056185 0.64278759981090561 forward_v I I I I #
coedge $-1 $264 $265 $266 $267 reversed $104 $-1 #
coedge $-1 $170 $106 $268 $269 reversed $67 $-1 #
coedge $-1 $106 $169 $264 $270 reversed $67 $-1 #
coedge $-1 $266 $271 $106 $172 forward $272 $-1 #
edge $-1 $273 29.370697382684462 $274 37.043276678668754 $171 $275 forward 7 unknown #
loop $-1 $-1 $178 $107 #
plane-surface $-1 16.682416148947894 -40.105717666640217 0.50168247459758675 0 -0.7660444514056185 0.64278759981090561 1 0 0 forward_v I I I I #
loop $-1 $-1 $276 $69 #
coedge $-1 $176 $176 $177 $277 reversed $108 $-1 #
coedge $-1 $177 $177 $176 $277 forward $110 $-1 #
coedge $-1 $178 $178 $111 $179 forward $173 $-1 #
edge $-1 $278 1.5538131273008471e-015 $278 6.2831853071796022 $178 $279 forward 7 unknown #
face $-1 $280 $281 $27 $-1 $282 reversed single #
loop $-1 $-1 $283 $112 #
plane-surface $-1 -58.019348735007782 0 0 1 0 0 0 0 -1 forward_v I I I I #
coedge $-1 $284 $191 $285 $286 forward $113 $-1 #
coedge $-1 $287 $115 $284 $288 forward $73 $-1 #
coedge $-1 $115 $287 $289 $290 forward $73 $-1 #
coedge $-1 $194 $193 $115 $187 reversed $195 $-1 #
edge $-1 $291 -40.10571766664021 $292 40.10571766664021 $186 $293 forward 7 unknown #
coedge $-1 $117 $116 $294 $295 forward $46 $-1 #
coedge $-1 $296 $297 $116 $190 reversed $281 $-1 #
edge $-1 $197 -58.019348735007782 $298 58.019348735007782 $189 $299 forward 7 unknown #
coedge $-1 $183 $300 $117 $192 reversed $113 $-1 #
edge $-1 $301 -58.019348735007782 $196 58.019348735007782 $191 $302 forward 7 unknown #
coedge $-1 $186 $118 $300 $303 forward $195 $-1 #
coedge $-1 $118 $186 $296 $304 reversed $195 $-1 #
loop $-1 $-1 $193 $280 #
vertex $-1 $119 $305 #
vertex $-1 $119 $306 #
straight-curve $-1 58.019348735007782 0 8.1742617705818859 0 1 0 I I #
face $-1 $307 $308 $28 $-1 $309 reversed single #
loop $-1 $-1 $204 $120 #
plane-surface $-1 0 -40.10571766664021 0 0 1 0 0 0 1 forward_v I I I I #
coedge $-1 $310 $311 $203 $312 forward $121 $-1 #
coedge $-1 $211 $123 $202 $312 reversed $77 $-1 #
coedge $-1 $209 $313 $123 $205 forward $200 $-1 #
edge $-1 $314 -4.8371308852909429 $212 -1.8371308852909429 $204 $315 forward 7 unknown #
coedge $-1 $125 $124 $316 $317 reversed $49 $-1 #
coedge $-1 $318 $319 $124 $208 forward $320 $-1 #
edge $-1 $321 -31.327667691961743 $213 -22.055694394130335 $207 $322 forward 7 unknown #
coedge $-1 $323 $204 $125 $210 forward $200 $-1 #
edge $-1 $212 22.055694394130335 $324 31.327667691961743 $209 $325 forward 7 unknown #
coedge $-1 $126 $203 $318 $326 reversed $77 $-1 #
vertex $-1 $210 $327 #
vertex $-1 $208 $328 #
straight-curve $-1 -48.747375437176373 0 -5.1742617705818859 0 1 0 I I #
face $-1 $329 $330 $29 $-1 $331 reversed single #
loop $-1 $-1 $332 $128 #
plane-surface $-1 0 0 -8.1742617705818859 0 0 1 1 0 0 forward_v I I I I #
coedge $-1 $333 $334 $133 $226 forward $129 $-1 #
coedge $-1 $335 $131 $332 $336 reversed $81 $-1 #
coedge $-1 $131 $335 $223 $337 reversed $81 $-1 #
coedge $-1 $224 $338 $131 $222 forward $330 $-1 #
edge $-1 $339 -4.8371308852909429 $340 -1.8371308852909429 $221 $341 forward 7 unknown #
coedge $-1 $133 $132 $220 $337 forward $52 $-1 #
coedge $-1 $342 $221 $132 $225 forward $330 $-1 #
edge $-1 $340 22.055694394130335 $230 31.327667691961743 $224 $343 forward 7 unknown #
edge $-1 $231 -31.327667691961743 $344 -22.055694394130335 $218 $345 forward 7 unknown #
coedge $-1 $346 $134 $334 $347 forward $229 $-1 #
coedge $-1 $134 $346 $342 $348 reversed $229 $-1 #
loop $-1 $-1 $134 $329 #
vertex $-1 $348 $349 #
vertex $-1 $347 $350 #
straight-curve $-1 58.019348735007782 0 -5.1742617705818859 0 -1 0 I I #
face $-1 $-1 $351 $30 $-1 $352 forward single #
loop $-1 $-1 $142 $136 #
plane-surface $-1 0 40.10571766664021 0 0 -1 0 0 0 -1 forward_v I I I I #
coedge $-1 $353 $354 $355 $356 reversed $137 $-1 #
coedge $-1 $357 $139 $141 $243 forward $85 $-1 #
coedge $-1 $139 $357 $353 $358 forward $85 $-1 #
coedge $-1 $355 $142 $139 $240 forward $234 $-1 #
edge $-1 $246 -14.63863895925784 $359 3.3943343560957047 $239 $360 forward 7 unknown #
coedge $-1 $361 $362 $140 $242 forward $351 $-1 #
edge $-1 $363 -6.8976322971898938 $245 -3.3122318453785553 $241 $364 forward 7 unknown #
edge $-1 $246 -80.211435333280434 $363 -74.111587631188144 $141 $365 forward 7 unknown #
coedge $-1 $142 $355 $361 $366 reversed $234 $-1 #
vertex $-1 $366 $367 #
vertex $-1 $143 $368 #
straight-curve $-1 20.260791260838907 40.10571766664021 68.168815005938683 0 0 -1 I I #
coedge $-1 $248 $248 $-1 $369 reversed $146 $-1 #
edge $-1 $370 0 $370 6.2831853071796004 $147 $371 forward 7 unknown #
vertex $-1 $150 $372 #
ellipse-curve $-1 5.8344126085560788 38.313017440734548 5.7068215185761888 0 0.80901700255871778 0.5877852410284794 1 0 0 1 I I #
coedge $-1 $252 $252 $-1 $373 reversed $153 $-1 #
edge $-1 $374 0 $374 6.2831853071796004 $154 $375 forward 7 unknown #
vertex $-1 $157 $376 #
ellipse-curve $-1 11.244304603162149 38.313017440734548 5.7068215185761888 0 0.80901700255871778 0.5877852410284794 1 0 0 1 I I #
coedge $-1 $256 $256 $-1 $377 reversed $160 $-1 #
edge $-1 $378 0 $378 6.2831853071796004 $161 $379 forward 7 unknown #
vertex $-1 $164 $380 #
ellipse-curve $-1 16.65419659776822 38.313017440734548 5.7068215185761888 0 0.80901700255871778 0.5877852410284794 1 0 0 1 I I #
face $-1 $-1 $272 $34 $-1 $381 reversed single #
loop $-1 $-1 $382 $165 #
plane-surface $-1 0 0 8.1742617705818859 0 0 1 1 0 0 forward_v I I I I #
coedge $-1 $383 $384 $385 $386 reversed $166 $-1 #
coedge $-1 $387 $168 $170 $270 forward $104 $-1 #
coedge $-1 $168 $387 $383 $388 forward $104 $-1 #
coedge $-1 $385 $171 $168 $267 forward $272 $-1 #
edge $-1 $274 -0.32656235033213221 $389 17.008978499280026 $266 $390 forward 7 unknown #
coedge $-1 $391 $392 $169 $269 forward $261 $-1 #
edge $-1 $393 -30.830599628182966 $273 -24.392541339300202 $268 $394 forward 7 unknown #
edge $-1 $274 1.1030930024383267e-014 $393 10.015840832612065 $170 $395 forward 7 unknown #
coedge $-1 $171 $385 $391 $396 reversed $272 $-1 #
loop $-1 $-1 $385 $260 #
vertex $-1 $396 $397 #
vertex $-1 $172 $398 #
straight-curve $-1 8.0146457241418148 -40.10571766664021 37.544959153266348 0 0 -1 I I #
coedge $-1 $276 $276 $-1 $399 reversed $175 $-1 #
edge $-1 $400 0 $400 6.2831853071796004 $176 $401 forward 7 unknown #
vertex $-1 $179 $402 #
ellipse-curve $-1 16.682416148947894 -36.886688522198831 4.3379721225897381 0 -0.7660444514056185 0.64278759981090561 1.5 0 0 1 I I #
face $-1 $-1 $195 $27 $-1 $403 reversed single #
loop $-1 $-1 $296 $180 #
plane-surface $-1 0 40.10571766664021 0 0 -1 0 0 0 -1 forward_v I I I I #
coedge $-1 $404 $294 $297 $405 forward $181 $-1 #
coedge $-1 $300 $183 $184 $288 reversed $113 $-1 #
coedge $-1 $294 $404 $183 $286 reversed $181 $-1 #
edge $-1 $301 -8.1742617705818859 $406 8.1742617705818859 $285 $407 forward 7 unknown #
coedge $-1 $185 $184 $404 $408 forward $73 $-1 #
edge $-1 $292 -58.019348735007782 $406 58.019348735007782 $284 $409 forward 7 unknown #
coedge $-1 $297 $296 $185 $290 reversed $281 $-1 #
edge $-1 $410 -58.019348735007782 $291 58.019348735007782 $289 $411 forward 7 unknown #
vertex $-1 $187 $412 #
vertex $-1 $303 $413 #
straight-curve $-1 58.019348735007782 0 -8.1742617705818859 0 -1 0 I I #
coedge $-1 $283 $285 $188 $295 reversed $181 $-1 #
edge $-1 $298 -40.10571766664021 $301 40.10571766664021 $294 $414 forward 7 unknown #
coedge $-1 $289 $189 $194 $304 forward $281 $-1 #
coedge $-1 $189 $289 $283 $405 reversed $281 $-1 #
vertex $-1 $190 $415 #
straight-curve $-1 0 40.10571766664021 8.1742617705818859 -1 0 0 I I #
coedge $-1 $191 $284 $193 $303 reversed $113 $-1 #
vertex $-1 $295 $416 #
straight-curve $-1 0 -40.10571766664021 8.1742617705818859 1 0 0 I I #
edge $-1 $196 -8.1742617705818859 $292 8.1742617705818859 $193 $417 forward 7 unknown #
edge $-1 $197 -8.1742617705818859 $291 8.1742617705818859 $194 $418 forward 7 unknown #
point $-1 58.019348735007782 -40.10571766664021 8.1742617705818859 #
point $-1 58.019348735007782 40.10571766664021 8.1742617705818859 #
face $-1 $-1 $320 $28 $-1 $419 reversed single #
loop $-1 $-1 $316 $199 #
plane-surface $-1 -58.019348735007782 0 0 1 0 0 0 0 -1 forward_v I I I I #
coedge $-1 $420 $202 $313 $421 forward $121 $-1 #
coedge $-1 $202 $420 $422 $423 forward $121 $-1 #
edge $-1 $424 -40.10571766664021 $314 40.10571766664021 $202 $425 forward 7 unknown #
coedge $-1 $204 $323 $310 $421 reversed $200 $-1 #
vertex $-1 $421 $426 #
straight-curve $-1 -48.747375437176373 -40.10571766664021 -3.3371308852909429 0 0 1 I I #
coedge $-1 $427 $428 $206 $317 forward $308 $-1 #
edge $-1 $324 -40.10571766664021 $321 40.10571766664021 $316 $429 forward 7 unknown #
coedge $-1 $422 $207 $211 $326 forward $320 $-1 #
coedge $-1 $207 $422 $427 $430 reversed $320 $-1 #
loop $-1 $-1 $318 $307 #
vertex $-1 $430 $431 #
straight-curve $-1 -26.691681043046039 40.10571766664021 -5.1742617705818859 1 0 0 I I #
coedge $-1 $313 $209 $428 $432 forward $200 $-1 #
vertex $-1 $432 $433 #
straight-curve $-1 -26.691681043046039 -40.10571766664021 -5.1742617705818859 -1 0 0 I I #
edge $-1 $213 1.8371308852909429 $424 4.8371308852909429 $318 $434 forward 7 unknown #
point $-1 -48.747375437176373 -40.10571766664021 -5.1742617705818859 #
point $-1 -48.747375437176373 40.10571766664021 -5.1742617705818859 #
face $-1 $-1 $229 $29 $-1 $435 reversed single #
loop $-1 $-1 $224 $215 #
plane-surface $-1 0 40.10571766664021 0 0 -1 0 0 0 -1 forward_v I I I I #
coedge $-1 $436 $437 $219 $336 forward $216 $-1 #
coedge $-1 $438 $218 $335 $439 forward $129 $-1 #
coedge $-1 $218 $438 $227 $347 reversed $129 $-1 #
coedge $-1 $220 $219 $333 $439 reversed $81 $-1 #
edge $-1 $440 -40.10571766664021 $339 40.10571766664021 $332 $441 forward 7 unknown #
edge $-1 $340 -40.10571766664021 $344 40.10571766664021 $220 $442 forward 7 unknown #
coedge $-1 $221 $342 $436 $443 reversed $330 $-1 #
vertex $-1 $443 $444 #
vertex $-1 $225 $445 #
straight-curve $-1 48.747375437176373 40.10571766664021 -3.3371308852909429 0 0 1 I I #
coedge $-1 $338 $224 $228 $348 forward $330 $-1 #
straight-curve $-1 26.691681043046039 40.10571766664021 -5.1742617705818859 1 0 0 I I #
vertex $-1 $226 $446 #
straight-curve $-1 26.691681043046039 -40.10571766664021 -5.1742617705818859 -1 0 0 I I #
coedge $-1 $228 $227 $447 $448 reversed $229 $-1 #
edge $-1 $231 5.1742617705818859 $449 8.1742617705818859 $227 $450 forward 7 unknown #
edge $-1 $230 5.1742617705818859 $451 8.1742617705818859 $228 $452 forward 7 unknown #
point $-1 58.019348735007782 40.10571766664021 -5.1742617705818859 #
point $-1 58.019348735007782 -40.10571766664021 -5.1742617705818859 #
loop $-1 $-1 $241 $233 #
plane-surface $-1 0 0 8.1742617705818859 0 0 1 1 0 0 forward_v I I I I #
coedge $-1 $354 $236 $238 $358 reversed $137 $-1 #
coedge $-1 $236 $353 $453 $454 reversed $137 $-1 #
coedge $-1 $244 $239 $236 $356 forward $234 $-1 #
edge $-1 $359 -64.929433739368179 $455 -59.994553235356797 $355 $456 forward 7 unknown #
coedge $-1 $238 $237 $362 $457 reversed $85 $-1 #
edge $-1 $458 74.111587631188144 $359 80.211435333280434 $353 $459 forward 7 unknown #
vertex $-1 $240 $460 #
straight-curve $-1 5.6221523015810675 40.10571766664021 3.2393812665704935 -1 0 0 I I #
coedge $-1 $453 $241 $244 $366 forward $351 $-1 #
coedge $-1 $241 $453 $357 $457 forward $351 $-1 #
vertex $-1 $242 $461 #
straight-curve $-1 20.260791260838907 43.417949512018765 8.174261770581893 0 1 0 I I #
straight-curve $-1 20.260791260838907 -7.041380183972322 68.13179625083346 0 -0.5877852410284794 0.80901700255871778 I I #
edge $-1 $245 -20.260791260838907 $455 -2.2278179454853628 $244 $462 forward 7 unknown #
point $-1 20.260791260838907 40.10571766664021 8.1742617705818859 #
point $-1 20.260791260838907 40.10571766664021 3.2393812665705042 #
edge $-1 $463 1 $463 0 $248 $-1 forward 7 unknown #
vertex $-1 $249 $464 #
ellipse-curve $-1 5.8344126085560788 36.396876459424803 4.3146636467619333 0 0.80901700255871778 0.5877852410284794 1 0 0 1 I I #
point $-1 6.8344126085560788 38.313017440734562 5.7068215185762048 #
edge $-1 $465 1 $465 0 $252 $-1 forward 7 unknown #
vertex $-1 $253 $466 #
ellipse-curve $-1 11.244304603162149 36.396876459424803 4.3146636467619333 0 0.80901700255871778 0.5877852410284794 1 0 0 1 I I #
point $-1 12.244304603162149 38.313017440734562 5.7068215185762048 #
edge $-1 $467 1 $467 0 $256 $-1 forward 7 unknown #
vertex $-1 $257 $468 #
ellipse-curve $-1 16.65419659776822 36.396876459424803 4.3146636467619333 0 0.80901700255871778 0.5877852410284794 1 0 0 1 I I #
point $-1 17.65419659776822 38.313017440734562 5.7068215185762048 #
plane-surface $-1 0 -40.10571766664021 0 0 1 0 0 0 1 forward_v I I I I #
coedge $-1 $392 $391 $384 $469 forward $261 $-1 #
coedge $-1 $384 $263 $265 $388 reversed $166 $-1 #
coedge $-1 $263 $383 $382 $469 reversed $166 $-1 #
coedge $-1 $271 $266 $263 $386 forward $272 $-1 #
edge $-1 $389 -37.043276678668754 $470 -29.370697382684462 $385 $471 forward 7 unknown #
coedge $-1 $265 $264 $392 $472 reversed $104 $-1 #
edge $-1 $473 -10.015840832612065 $389 -1.1030930024383267e-014 $383 $474 forward 7 unknown #
vertex $-1 $267 $475 #
straight-curve $-1 8.341208074473947 -40.10571766664021 0.50168247459759696 1 0 0 I I #
coedge $-1 $382 $268 $271 $396 forward $261 $-1 #
coedge $-1 $268 $382 $387 $472 forward $261 $-1 #
vertex $-1 $269 $476 #
straight-curve $-1 8.0146457241418148 -64.498259005940412 8.1742617705818859 0 -1 0 I I #
straight-curve $-1 8.0146457241418148 -40.105717666640217 0.50168247459758675 0 0.64278759981090561 0.7660444514056185 I I #
edge $-1 $273 8.0146457241418148 $470 25.350186573753973 $271 $477 forward 7 unknown #
point $-1 8.0146457241418148 -40.10571766664021 8.1742617705818859 #
point $-1 8.0146457241418148 -40.10571766664021 0.50168247459759518 #
edge $-1 $478 1 $478 0 $276 $-1 forward 7 unknown #
vertex $-1 $277 $479 #
ellipse-curve $-1 16.682416148947894 -33.02148028776881 1.0946774035694733 0 -0.7660444514056185 0.64278759981090561 1.5 0 0 1 I I #
point $-1 18.182416148947894 -36.886688522198817 4.3379721225897292 #
plane-surface $-1 58.019348735007782 0 0 -1 0 0 0 0 1 forward_v I I I I #
coedge $-1 $285 $283 $287 $408 reversed $181 $-1 #
edge $-1 $298 -8.1742617705818859 $410 8.1742617705818859 $297 $480 forward 7 unknown #
vertex $-1 $408 $481 #
straight-curve $-1 -58.019348735007782 -40.10571766664021 0 0 0 -1 I I #
edge $-1 $406 -40.10571766664021 $410 40.10571766664021 $404 $482 forward 7 unknown #
straight-curve $-1 0 -40.10571766664021 -8.1742617705818859 -1 0 0 I I #
vertex $-1 $290 $483 #
straight-curve $-1 0 40.10571766664021 -8.1742617705818859 1 0 0 I I #
point $-1 58.019348735007782 40.10571766664021 -8.1742617705818859 #
point $-1 58.019348735007782 -40.10571766664021 -8.1742617705818859 #
straight-curve $-1 -58.019348735007782 0 8.1742617705818859 0 -1 0 I I #
point $-1 -58.019348735007782 40.10571766664021 8.1742617705818859 #
point $-1 -58.019348735007782 -40.10571766664021 8.1742617705818859 #
straight-curve $-1 58.019348735007782 -40.10571766664021 0 0 0 -1 I I #
straight-curve $-1 58.019348735007782 40.10571766664021 0 0 0 -1 I I #
plane-surface $-1 0 40.10571766664021 0 0 -1 0 0 0 -1 forward_v I I I I #
coedge $-1 $311 $310 $484 $485 forward $121 $-1 #
edge $-1 $314 48.747375437176373 $486 58.019348735007782 $313 $487 forward 7 unknown #
coedge $-1 $319 $318 $311 $423 reversed $320 $-1 #
edge $-1 $488 -58.019348735007782 $424 -48.747375437176373 $422 $489 forward 7 unknown #
vertex $-1 $326 $490 #
straight-curve $-1 -48.747375437176373 0 -8.1742617705818859 0 -1 0 I I #
point $-1 -48.747375437176373 -40.10571766664021 -8.1742617705818859 #
coedge $-1 $484 $316 $319 $430 forward $308 $-1 #
coedge $-1 $316 $484 $323 $432 reversed $308 $-1 #
straight-curve $-1 -58.019348735007782 0 -5.1742617705818859 0 1 0 I I #
edge $-1 $321 5.1742617705818859 $488 8.1742617705818859 $319 $491 forward 7 unknown #
point $-1 -58.019348735007782 40.10571766664021 -5.1742617705818859 #
edge $-1 $324 5.1742617705818859 $486 8.1742617705818859 $428 $492 forward 7 unknown #
point $-1 -58.019348735007782 -40.10571766664021 -5.1742617705818859 #
straight-curve $-1 -48.747375437176373 40.10571766664021 -3.3371308852909429 0 0 -1 I I #
plane-surface $-1 58.019348735007782 0 0 -1 0 0 0 0 1 forward_v I I I I #
coedge $-1 $447 $332 $338 $443 forward $216 $-1 #
coedge $-1 $332 $447 $438 $493 forward $216 $-1 #
coedge $-1 $334 $333 $437 $493 reversed $129 $-1 #
edge $-1 $344 1.8371308852909429 $440 4.8371308852909429 $333 $494 forward 7 unknown #
vertex $-1 $336 $495 #
straight-curve $-1 48.747375437176373 0 -8.1742617705818859 0 1 0 I I #
straight-curve $-1 48.747375437176373 0 -5.1742617705818859 0 -1 0 I I #
edge $-1 $339 48.747375437176373 $451 58.019348735007782 $338 $496 forward 7 unknown #
point $-1 48.747375437176373 40.10571766664021 -8.1742617705818859 #
point $-1 48.747375437176373 40.10571766664021 -5.1742617705818859 #
point $-1 48.747375437176373 -40.10571766664021 -5.1742617705818859 #
coedge $-1 $437 $436 $346 $448 forward $216 $-1 #
edge $-1 $451 -40.10571766664021 $449 40.10571766664021 $346 $497 forward 7 unknown #
vertex $-1 $347 $498 #
straight-curve $-1 58.019348735007782 -40.10571766664021 0 0 0 -1 I I #
vertex $-1 $448 $499 #
straight-curve $-1 58.019348735007782 40.10571766664021 0 0 0 -1 I I #
coedge $-1 $362 $361 $354 $454 forward $351 $-1 #
edge $-1 $455 3.3122318453785553 $458 6.8976322971898938 $453 $500 forward 7 unknown #
vertex $-1 $454 $501 #
straight-curve $-1 2.2278179454853628 40.10571766664021 68.168815005938683 0 0 1 I I #
edge $-1 $458 -3.3943343560957047 $363 14.63863895925784 $362 $502 forward 7 unknown #
vertex $-1 $457 $503 #
straight-curve $-1 2.2278179454853628 -7.041380183972322 68.13179625083346 0 0.5877852410284794 -0.80901700255871778 I I #
point $-1 2.2278179454853628 40.10571766664021 3.2393812665705042 #
point $-1 20.260791260838907 36.520317214828871 8.1742617705818859 #
straight-curve $-1 0 40.10571766664021 8.1742617705818859 -1 0 0 I I #
vertex $-1 $369 $504 #
point $-1 6.8344126085560788 36.396876459424803 4.3146636467619333 #
vertex $-1 $373 $505 #
point $-1 12.244304603162149 36.396876459424803 4.3146636467619333 #
vertex $-1 $377 $506 #
point $-1 17.65419659776822 36.396876459424803 4.3146636467619333 #
edge $-1 $470 24.392541339300202 $473 30.830599628182966 $382 $507 forward 7 unknown #
vertex $-1 $386 $508 #
straight-curve $-1 25.350186573753973 -40.10571766664021 37.544959153266348 0 0 1 I I #
edge $-1 $473 -17.008978499280026 $393 0.32656235033213221 $392 $509 forward 7 unknown #
vertex $-1 $472 $510 #
straight-curve $-1 25.350186573753973 -40.105717666640217 0.50168247459758675 0 -0.64278759981090561 -0.7660444514056185 I I #
point $-1 25.350186573753973 -40.10571766664021 0.50168247459759518 #
point $-1 8.0146457241418148 -33.667659377757445 8.1742617705818859 #
straight-curve $-1 0 -40.10571766664021 8.1742617705818859 1 0 0 I I #
vertex $-1 $399 $511 #
point $-1 18.182416148947894 -33.02148028776881 1.0946774035694733 #
straight-curve $-1 -58.019348735007782 40.10571766664021 0 0 0 -1 I I #
point $-1 -58.019348735007782 -40.10571766664021 -8.1742617705818859 #
straight-curve $-1 -58.019348735007782 0 -8.1742617705818859 0 1 0 I I #
point $-1 -58.019348735007782 40.10571766664021 -8.1742617705818859 #
coedge $-1 $428 $427 $420 $485 reversed $308 $-1 #
edge $-1 $486 -40.10571766664021 $488 40.10571766664021 $484 $512 forward 7 unknown #
vertex $-1 $485 $513 #
straight-curve $-1 0 -40.10571766664021 -8.1742617705818859 -1 0 0 I I #
vertex $-1 $423 $514 #
straight-curve $-1 0 40.10571766664021 -8.1742617705818859 1 0 0 I I #
point $-1 -48.747375437176373 40.10571766664021 -8.1742617705818859 #
straight-curve $-1 -58.019348735007782 40.10571766664021 0 0 0 -1 I I #
straight-curve $-1 -58.019348735007782 -40.10571766664021 0 0 0 -1 I I #
edge $-1 $449 -58.019348735007782 $440 -48.747375437176373 $438 $515 forward 7 unknown #
straight-curve $-1 48.747375437176373 -40.10571766664021 -3.3371308852909429 0 0 -1 I I #
point $-1 48.747375437176373 -40.10571766664021 -8.1742617705818859 #
straight-curve $-1 0 40.10571766664021 -8.1742617705818859 1 0 0 I I #
straight-curve $-1 58.019348735007782 0 -8.1742617705818859 0 -1 0 I I #
point $-1 58.019348735007782 -40.10571766664021 -8.1742617705818859 #
point $-1 58.019348735007782 40.10571766664021 -8.1742617705818859 #
straight-curve $-1 2.2278179454853628 43.417949512018765 8.174261770581893 0 -1 0 I I #
point $-1 2.2278179454853628 40.10571766664021 8.1742617705818859 #
straight-curve $-1 5.6221523015810675 36.520317214828864 8.174261770581893 1 0 0 I I #
point $-1 2.2278179454853628 36.520317214828871 8.1742617705818859 #
point $-1 5.8344126085560788 35.587859456866084 3.7268784057334541 #
point $-1 11.244304603162149 35.587859456866084 3.7268784057334541 #
point $-1 16.65419659776822 35.587859456866084 3.7268784057334541 #
straight-curve $-1 25.350186573753973 -64.498259005940412 8.1742617705818859 0 1 0 I I #
point $-1 25.350186573753973 -40.10571766664021 8.1742617705818859 #
straight-curve $-1 8.341208074473947 -33.667659377757445 8.1742617705818859 -1 0 0 I I #
point $-1 25.350186573753973 -33.667659377757445 8.1742617705818859 #
point $-1 16.682416148947894 -31.872413610660384 0.13049600385311477 #
straight-curve $-1 -58.019348735007782 0 -8.1742617705818859 0 1 0 I I #
point $-1 -58.019348735007782 -40.10571766664021 -8.1742617705818859 #
point $-1 -58.019348735007782 40.10571766664021 -8.1742617705818859 #
straight-curve $-1 0 -40.10571766664021 -8.1742617705818859 -1 0 0 I I #
End-of-ACIS-data 