500 0 7 0           
7 Unknown 11 ACIS 5.0 NT 24 Thu Mar 25 19:23:51 1999 
-1 9.9999999999999995e-007 1e-010 
body $-1 $7 $-1 $8 #
body $-1 $9 $-1 $10 #
body $-1 $11 $-1 $12 #
body $-1 $13 $-1 $14 #
body $-1 $15 $-1 $16 #
body $-1 $17 $-1 $18 #
body $-1 $19 $-1 $20 #
lump $-1 $-1 $21 $0 #
transform $-1 1 0 0 0 1 0 0 0 1 72.205572679830311 31.433344263784889 7.4274670032893129 1 rotate no_reflect no_shear #
lump $-1 $-1 $22 $1 #
transform $-1 1 0 0 0 1 0 0 0 1 72.205572679830311 31.433344263784889 7.4274670032893129 1 rotate no_reflect no_shear #
lump $-1 $-1 $23 $2 #
transform $-1 1 0 0 0 1 0 0 0 1 72.205572679830311 31.433344263784889 7.4274670032893129 1 rotate no_reflect no_shear #
lump $-1 $-1 $24 $3 #
transform $-1 1 0 0 0 1 0 0 0 1 72.205572679830311 31.433344263784889 7.4274670032893129 1 rotate no_reflect no_shear #
lump $-1 $-1 $25 $4 #
transform $-1 1 0 0 0 1 0 0 0 1 72.205572679830311 31.433344263784889 7.4274670032893129 1 rotate no_reflect no_shear #
lump $-1 $-1 $26 $5 #
transform $-1 1 0 0 0 1 0 0 0 1 72.205572679830311 31.433344263784889 7.4274670032893129 1 rotate no_reflect no_shear #
lump $-1 $-1 $27 $6 #
transform $-1 1 0 0 0 1 0 0 0 1 72.205572679830311 31.433344263784889 7.4274670032893129 1 rotate no_reflect no_shear #
shell $-1 $-1 $-1 $28 $-1 $7 #
shell $-1 $-1 $-1 $29 $-1 $9 #
shell $-1 $-1 $-1 $30 $-1 $11 #
shell $-1 $-1 $-1 $31 $-1 $13 #
shell $-1 $-1 $-1 $32 $-1 $15 #
shell $-1 $-1 $-1 $33 $-1 $17 #
shell $-1 $-1 $-1 $34 $-1 $19 #
face $-1 $35 $36 $21 $-1 $37 forward single #
face $-1 $38 $39 $22 $-1 $40 forward single #
face $-1 $41 $42 $23 $-1 $43 reversed single #
face $-1 $44 $45 $24 $-1 $46 reversed single #
face $-1 $47 $48 $25 $-1 $49 forward single #
face $-1 $50 $51 $26 $-1 $52 forward single #
face $-1 $53 $54 $27 $-1 $55 forward single #
face $-1 $56 $57 $21 $-1 $58 reversed single #
loop $-1 $-1 $59 $28 #
plane-surface $-1 0 0 7.4274670032893129 0 0 1 1 0 0 forward_v I I I I #
face $-1 $60 $61 $22 $-1 $62 reversed single #
loop $-1 $-1 $63 $29 #
plane-surface $-1 -69.38378577646786 0 2.366967429557238 0 0 1 1 0 0 forward_v I I I I #
face $-1 $64 $65 $23 $-1 $66 reversed single #
loop $-1 $-1 $67 $30 #
plane-surface $-1 64.145119652268249 -29.933344263784889 0 1 0 0 0 0 -1 forward_v I I I I #
face $-1 $68 $69 $24 $-1 $70 reversed single #
loop $-1 $-1 $71 $31 #
plane-surface $-1 -18.765144637736451 51.923314104315452 158.01438953429187 1 0 0 0 -0.51503808176128008 -0.85716729658548041 forward_v I I I I #
face $-1 $72 $73 $25 $-1 $74 forward single #
loop $-1 $75 $76 $32 #
cone-surface $-1 -13.042305358473392 26.000376604351814 3.3200552594628685 0 -0.51503808176128008 -0.85716729658548041 2 0 0 1 I I 0 1 2 forward I I I I #
face $-1 $77 $78 $26 $-1 $79 forward single #
loop $-1 $80 $81 $33 #
cone-surface $-1 -4.4580464395788084 26.000376604351814 3.3200552594628685 0 -0.51503808176128008 -0.85716729658548041 2 0 0 1 I I 0 1 2 forward I I I I #
face $-1 $82 $83 $27 $-1 $84 forward single #
loop $-1 $85 $86 $34 #
cone-surface $-1 4.1262124793157824 26.000376604351814 3.3200552594628685 0 -0.51503808176128008 -0.85716729658548041 2 0 0 1 I I 0 1 2 forward I I I I #
face $-1 $87 $88 $21 $-1 $89 reversed single #
loop $-1 $-1 $90 $35 #
plane-surface $-1 0 0 -7.4274670032893129 0 0 1 1 0 0 forward_v I I I I #
coedge $-1 $91 $92 $93 $94 forward $36 $-1 #
face $-1 $95 $96 $22 $-1 $97 reversed single #
loop $-1 $-1 $98 $38 #
plane-surface $-1 -69.38378577646786 0 -1.4489285946980472 0 0 1 1 0 0 forward_v I I I I #
coedge $-1 $99 $100 $101 $102 forward $39 $-1 #
face $-1 $103 $104 $23 $-1 $105 forward single #
loop $-1 $-1 $106 $41 #
plane-surface $-1 68.17534616604928 -28.433344263784889 0 0 -1 0 0 0 -1 forward_v I I I I #
coedge $-1 $107 $108 $109 $110 forward $42 $-1 #
face $-1 $111 $112 $24 $-1 $113 reversed single #
loop $-1 $-1 $114 $44 #
plane-surface $-1 -4.4580464395788084 -22.453925186673544 34.229878469538733 0 0.51503808176128008 0.85716729658548041 1 0 0 forward_v I I I I #
coedge $-1 $115 $116 $117 $118 reversed $45 $-1 #
face $-1 $-1 $119 $25 $-1 $120 forward single #
loop $-1 $121 $122 $47 #
cone-surface $-1 -13.042305358473392 24.69265425179055 1.1436398188879364 0 -0.51503808176128008 -0.85716729658548041 1 0 0 1 I I -0.70710678118654746 0.70710678118654746 1 forward I I I I #
loop $-1 $-1 $123 $32 #
coedge $-1 $76 $76 $124 $125 reversed $48 $-1 #
face $-1 $-1 $126 $26 $-1 $127 forward single #
loop $-1 $128 $129 $50 #
cone-surface $-1 -4.4580464395788084 24.69265425179055 1.1436398188879364 0 -0.51503808176128008 -0.85716729658548041 1 0 0 1 I I -0.70710678118654746 0.70710678118654746 1 forward I I I I #
loop $-1 $-1 $130 $33 #
coedge $-1 $81 $81 $131 $132 reversed $51 $-1 #
face $-1 $-1 $133 $27 $-1 $134 forward single #
loop $-1 $135 $136 $53 #
cone-surface $-1 4.1262124793157824 24.69265425179055 1.1436398188879364 0 -0.51503808176128008 -0.85716729658548041 1 0 0 1 I I -0.70710678118654746 0.70710678118654746 1 forward I I I I #
loop $-1 $-1 $137 $34 #
coedge $-1 $86 $86 $138 $139 reversed $54 $-1 #
face $-1 $140 $141 $21 $-1 $142 reversed single #
loop $-1 $-1 $143 $56 #
plane-surface $-1 0 -31.433344263784889 0 0 1 0 0 0 1 forward_v I I I I #
coedge $-1 $144 $145 $146 $147 forward $57 $-1 #
coedge $-1 $148 $59 $149 $150 forward $36 $-1 #
coedge $-1 $59 $148 $151 $152 forward $36 $-1 #
coedge $-1 $153 $154 $59 $94 reversed $155 $-1 #
edge $-1 $156 -31.433344263784889 $157 31.433344263784889 $93 $158 forward 7 unknown #
face $-1 $159 $160 $22 $-1 $161 reversed single #
loop $-1 $-1 $162 $60 #
plane-surface $-1 -66.561998873105409 0 0.4590194174295954 -1 0 0 0 0 1 forward_v I I I I #
coedge $-1 $163 $164 $165 $166 forward $61 $-1 #
coedge $-1 $167 $63 $168 $169 reversed $39 $-1 #
coedge $-1 $63 $167 $170 $171 reversed $39 $-1 #
coedge $-1 $162 $172 $63 $102 reversed $96 $-1 #
edge $-1 $173 -31.433344263784889 $174 31.433344263784889 $101 $175 forward 7 unknown #
face $-1 $176 $177 $23 $-1 $178 reversed single #
loop $-1 $-1 $179 $64 #
plane-surface $-1 0 0 7.4274670032893129 0 0 1 1 0 0 forward_v I I I I #
coedge $-1 $180 $181 $182 $183 reversed $65 $-1 #
coedge $-1 $184 $67 $185 $186 reversed $42 $-1 #
coedge $-1 $67 $184 $187 $188 reversed $42 $-1 #
coedge $-1 $181 $180 $67 $110 reversed $65 $-1 #
edge $-1 $189 -7.4274670032893129 $190 7.4274670032893129 $109 $191 forward 7 unknown #
face $-1 $192 $193 $24 $-1 $194 forward single #
loop $-1 $-1 $195 $68 #
plane-surface $-1 9.8490517585788346 51.923314104315452 158.01438953429187 -1 0 0 0 0.51503808176128008 0.85716729658548041 forward_v I I I I #
coedge $-1 $196 $197 $198 $199 reversed $69 $-1 #
coedge $-1 $116 $71 $200 $201 reversed $45 $-1 #
coedge $-1 $71 $115 $196 $202 reversed $45 $-1 #
coedge $-1 $198 $203 $71 $118 forward $193 $-1 #
edge $-1 $204 -5.4716872116271631 $205 3.8088795656390246 $117 $206 forward 7 unknown #
loop $-1 $-1 $124 $72 #
plane-surface $-1 -4.4580464395788084 -22.453925186673544 34.229878469538733 0 0.51503808176128008 0.85716729658548041 1 0 0 forward_v I I I I #
loop $-1 $-1 $207 $47 #
coedge $-1 $122 $122 $123 $208 reversed $73 $-1 #
coedge $-1 $123 $123 $122 $208 forward $75 $-1 #
coedge $-1 $124 $124 $76 $125 forward $119 $-1 #
edge $-1 $209 1.2154871414232113e-015 $209 6.2831853071796013 $124 $210 forward 7 unknown #
loop $-1 $-1 $131 $77 #
plane-surface $-1 -4.4580464395788084 -22.453925186673544 34.229878469538733 0 0.51503808176128008 0.85716729658548041 1 0 0 forward_v I I I I #
loop $-1 $-1 $211 $50 #
coedge $-1 $129 $129 $130 $212 reversed $78 $-1 #
coedge $-1 $130 $130 $129 $212 forward $80 $-1 #
coedge $-1 $131 $131 $81 $132 forward $126 $-1 #
edge $-1 $213 1.2154871414232113e-015 $213 6.2831853071796013 $131 $214 forward 7 unknown #
loop $-1 $-1 $138 $82 #
plane-surface $-1 -4.4580464395788084 -22.453925186673544 34.229878469538733 0 0.51503808176128008 0.85716729658548041 1 0 0 forward_v I I I I #
loop $-1 $-1 $215 $53 #
coedge $-1 $136 $136 $137 $216 reversed $83 $-1 #
coedge $-1 $137 $137 $136 $216 forward $85 $-1 #
coedge $-1 $138 $138 $86 $139 forward $133 $-1 #
edge $-1 $217 1.2154871414232113e-015 $217 6.2831853071796013 $138 $218 forward 7 unknown #
face $-1 $219 $220 $21 $-1 $221 reversed single #
loop $-1 $-1 $222 $87 #
plane-surface $-1 -72.205572679830311 0 0 1 0 0 0 0 -1 forward_v I I I I #
coedge $-1 $223 $151 $224 $225 forward $88 $-1 #
coedge $-1 $226 $90 $223 $227 forward $57 $-1 #
coedge $-1 $90 $226 $228 $229 forward $57 $-1 #
coedge $-1 $154 $153 $90 $147 reversed $155 $-1 #
edge $-1 $230 -31.433344263784889 $231 31.433344263784889 $146 $232 forward 7 unknown #
coedge $-1 $92 $91 $233 $234 forward $36 $-1 #
coedge $-1 $235 $236 $91 $150 reversed $220 $-1 #
edge $-1 $157 -72.205572679830311 $237 72.205572679830311 $149 $238 forward 7 unknown #
coedge $-1 $143 $239 $92 $152 reversed $88 $-1 #
edge $-1 $240 -72.205572679830311 $156 72.205572679830311 $151 $241 forward 7 unknown #
coedge $-1 $146 $93 $239 $242 forward $155 $-1 #
coedge $-1 $93 $146 $235 $243 reversed $155 $-1 #
loop $-1 $-1 $153 $219 #
vertex $-1 $94 $244 #
vertex $-1 $94 $245 #
straight-curve $-1 72.205572679830311 0 7.4274670032893129 0 1 0 I I #
face $-1 $246 $247 $22 $-1 $248 reversed single #
loop $-1 $-1 $249 $95 #
plane-surface $-1 0 -31.433344263784889 0 0 1 0 0 0 1 forward_v I I I I #
coedge $-1 $165 $101 $250 $251 reversed $96 $-1 #
coedge $-1 $252 $98 $249 $253 reversed $61 $-1 #
coedge $-1 $98 $252 $254 $255 reversed $61 $-1 #
coedge $-1 $172 $162 $98 $166 reversed $96 $-1 #
edge $-1 $256 -31.433344263784889 $257 31.433344263784889 $165 $258 forward 7 unknown #
coedge $-1 $100 $99 $259 $260 reversed $39 $-1 #
coedge $-1 $261 $262 $99 $169 forward $263 $-1 #
edge $-1 $264 -37.513679791596381 $174 -31.870105984871479 $168 $265 forward 7 unknown #
coedge $-1 $266 $250 $100 $171 forward $160 $-1 #
edge $-1 $173 31.870105984871479 $267 37.513679791596381 $170 $268 forward 7 unknown #
coedge $-1 $101 $165 $261 $269 reversed $96 $-1 #
vertex $-1 $171 $270 #
vertex $-1 $169 $271 #
straight-curve $-1 -66.561998873105409 0 2.366967429557238 0 1 0 I I #
face $-1 $272 $273 $23 $-1 $274 reversed single #
loop $-1 $-1 $275 $103 #
plane-surface $-1 0 -31.433344263784889 0 0 1 0 0 0 1 forward_v I I I I #
coedge $-1 $187 $276 $181 $277 forward $104 $-1 #
coedge $-1 $109 $106 $278 $279 reversed $65 $-1 #
coedge $-1 $106 $109 $179 $277 reversed $65 $-1 #
coedge $-1 $280 $281 $106 $183 forward $282 $-1 #
edge $-1 $283 -7.4274670032893129 $284 7.4274670032893129 $182 $285 forward 7 unknown #
coedge $-1 $108 $107 $275 $286 reversed $42 $-1 #
coedge $-1 $278 $287 $107 $186 forward $273 $-1 #
edge $-1 $288 -16.466672131892444 $190 -13.466672131892444 $185 $289 forward 7 unknown #
coedge $-1 $290 $179 $108 $188 forward $104 $-1 #
edge $-1 $189 13.466672131892444 $291 16.466672131892444 $187 $292 forward 7 unknown #
vertex $-1 $188 $293 #
vertex $-1 $186 $294 #
straight-curve $-1 64.145119652268249 -28.433344263784889 0 0 0 -1 I I #
face $-1 $-1 $295 $24 $-1 $296 reversed single #
loop $-1 $-1 $117 $111 #
plane-surface $-1 0 0 7.4274670032893129 0 0 1 1 0 0 forward_v I I I I #
coedge $-1 $297 $298 $299 $300 reversed $112 $-1 #
coedge $-1 $301 $114 $116 $202 forward $69 $-1 #
coedge $-1 $114 $301 $297 $302 forward $69 $-1 #
coedge $-1 $299 $117 $114 $199 forward $193 $-1 #
edge $-1 $205 -16.536121417947047 $303 12.078074978368239 $198 $304 forward 7 unknown #
coedge $-1 $305 $306 $115 $201 forward $295 $-1 #
edge $-1 $307 -77.156054963530622 $204 -71.579727763856624 $200 $308 forward 7 unknown #
edge $-1 $205 52.039669328126159 $307 62.866688527569785 $116 $309 forward 7 unknown #
coedge $-1 $117 $299 $305 $310 forward $193 $-1 #
vertex $-1 $201 $311 #
vertex $-1 $118 $312 #
straight-curve $-1 -18.765144637736451 25.961657052157726 7.4274670032893084 0 -1 0 I I #
coedge $-1 $207 $207 $-1 $313 reversed $121 $-1 #
edge $-1 $314 0 $314 6.2831853071796004 $122 $315 forward 7 unknown #
vertex $-1 $125 $316 #
ellipse-curve $-1 -13.042305358473392 26.793060875151795 4.6393034034523133 0 0.51503808176128008 0.85716729658548041 2 0 0 1 I I #
coedge $-1 $211 $211 $-1 $317 reversed $128 $-1 #
edge $-1 $318 0 $318 6.2831853071796004 $129 $319 forward 7 unknown #
vertex $-1 $132 $320 #
ellipse-curve $-1 -4.4580464395788084 26.793060875151795 4.6393034034523133 0 0.51503808176128008 0.85716729658548041 2 0 0 1 I I #
coedge $-1 $215 $215 $-1 $321 reversed $135 $-1 #
edge $-1 $322 0 $322 6.2831853071796004 $136 $323 forward 7 unknown #
vertex $-1 $139 $324 #
ellipse-curve $-1 4.1262124793157824 26.793060875151795 4.6393034034523133 0 0.51503808176128008 0.85716729658548041 2 0 0 1 I I #
face $-1 $-1 $155 $21 $-1 $325 reversed single #
loop $-1 $-1 $235 $140 #
plane-surface $-1 0 31.433344263784889 0 0 -1 0 0 0 -1 forward_v I I I I #
coedge $-1 $326 $233 $236 $327 forward $141 $-1 #
coedge $-1 $239 $143 $144 $227 reversed $88 $-1 #
coedge $-1 $233 $326 $143 $225 reversed $141 $-1 #
edge $-1 $240 -7.4274670032893129 $328 7.4274670032893129 $224 $329 forward 7 unknown #
coedge $-1 $145 $144 $326 $330 forward $57 $-1 #
edge $-1 $231 -72.205572679830311 $328 72.205572679830311 $223 $331 forward 7 unknown #
coedge $-1 $236 $235 $145 $229 reversed $220 $-1 #
edge $-1 $332 -72.205572679830311 $230 72.205572679830311 $228 $333 forward 7 unknown #
vertex $-1 $147 $334 #
vertex $-1 $242 $335 #
straight-curve $-1 72.205572679830311 0 -7.4274670032893129 0 -1 0 I I #
coedge $-1 $222 $224 $148 $234 reversed $141 $-1 #
edge $-1 $237 -31.433344263784889 $240 31.433344263784889 $233 $336 forward 7 unknown #
coedge $-1 $228 $149 $154 $243 forward $220 $-1 #
coedge $-1 $149 $228 $222 $327 reversed $220 $-1 #
vertex $-1 $150 $337 #
straight-curve $-1 0 31.433344263784889 7.4274670032893129 -1 0 0 I I #
coedge $-1 $151 $223 $153 $242 reversed $88 $-1 #
vertex $-1 $234 $338 #
straight-curve $-1 0 -31.433344263784889 7.4274670032893129 1 0 0 I I #
edge $-1 $156 -7.4274670032893129 $231 7.4274670032893129 $153 $339 forward 7 unknown #
edge $-1 $157 -7.4274670032893129 $230 7.4274670032893129 $154 $340 forward 7 unknown #
point $-1 72.205572679830311 -31.433344263784889 7.4274670032893129 #
point $-1 72.205572679830311 31.433344263784889 7.4274670032893129 #
face $-1 $-1 $263 $22 $-1 $341 reversed single #
loop $-1 $-1 $342 $159 #
plane-surface $-1 -72.205572679830311 0 0 1 0 0 0 0 -1 forward_v I I I I #
coedge $-1 $250 $266 $163 $253 forward $160 $-1 #
coedge $-1 $170 $249 $162 $251 forward $160 $-1 #
edge $-1 $257 -1.6784383034128449 $173 2.1374577208424403 $250 $343 forward 7 unknown #
coedge $-1 $164 $163 $342 $344 reversed $61 $-1 #
edge $-1 $345 -37.513679791596381 $257 -31.870105984871479 $249 $346 forward 7 unknown #
coedge $-1 $262 $261 $164 $255 forward $263 $-1 #
edge $-1 $256 31.870105984871479 $347 37.513679791596381 $254 $348 forward 7 unknown #
vertex $-1 $255 $349 #
vertex $-1 $253 $350 #
straight-curve $-1 -66.561998873105409 0 -1.4489285946980472 0 -1 0 I I #
coedge $-1 $351 $352 $167 $260 forward $247 $-1 #
edge $-1 $267 -31.433344263784889 $264 31.433344263784889 $259 $353 forward 7 unknown #
coedge $-1 $254 $168 $172 $269 forward $263 $-1 #
coedge $-1 $168 $254 $351 $354 reversed $263 $-1 #
loop $-1 $-1 $254 $246 #
vertex $-1 $354 $355 #
straight-curve $-1 -34.69189288823393 31.433344263784889 2.366967429557238 1 0 0 I I #
coedge $-1 $249 $170 $352 $356 forward $160 $-1 #
vertex $-1 $356 $357 #
straight-curve $-1 -34.69189288823393 -31.433344263784889 2.366967429557238 -1 0 0 I I #
edge $-1 $174 -2.1374577208424403 $256 1.6784383034128449 $261 $358 forward 7 unknown #
point $-1 -66.561998873105409 -31.433344263784889 2.366967429557238 #
point $-1 -66.561998873105409 31.433344263784889 2.366967429557238 #
face $-1 $-1 $282 $23 $-1 $359 reversed single #
loop $-1 $-1 $278 $176 #
plane-surface $-1 0 0 -7.4274670032893129 0 0 1 1 0 0 forward_v I I I I #
coedge $-1 $360 $361 $184 $286 forward $177 $-1 #
coedge $-1 $179 $290 $280 $362 forward $104 $-1 #
edge $-1 $284 -38.117899596805671 $189 -30.057446569243609 $179 $363 forward 7 unknown #
coedge $-1 $364 $185 $180 $279 forward $273 $-1 #
edge $-1 $190 30.057446569243609 $283 38.117899596805671 $278 $365 forward 7 unknown #
coedge $-1 $366 $182 $276 $362 reversed $282 $-1 #
coedge $-1 $182 $366 $364 $367 reversed $282 $-1 #
loop $-1 $-1 $182 $272 #
vertex $-1 $367 $368 #
vertex $-1 $183 $369 #
straight-curve $-1 72.205572679830311 -28.433344263784889 0 0 0 1 I I #
edge $-1 $291 -7.4274670032893129 $288 7.4274670032893129 $275 $370 forward 7 unknown #
coedge $-1 $185 $364 $360 $371 forward $273 $-1 #
vertex $-1 $186 $372 #
straight-curve $-1 64.145119652268249 -14.966672131892444 -7.4274670032893129 0 1 0 I I #
coedge $-1 $276 $187 $361 $373 forward $104 $-1 #
vertex $-1 $373 $374 #
straight-curve $-1 64.145119652268249 -14.966672131892444 7.4274670032893129 0 -1 0 I I #
point $-1 64.145119652268249 -28.433344263784889 7.4274670032893129 #
point $-1 64.145119652268249 -28.433344263784889 -7.4274670032893129 #
loop $-1 $-1 $200 $192 #
plane-surface $-1 0 31.433344263784889 0 0 -1 0 0 0 -1 forward_v I I I I #
coedge $-1 $298 $195 $197 $302 reversed $112 $-1 #
coedge $-1 $195 $297 $375 $376 reversed $112 $-1 #
coedge $-1 $203 $198 $195 $300 forward $193 $-1 #
edge $-1 $303 -3.8088795656390246 $377 5.4716872116271631 $299 $378 forward 7 unknown #
coedge $-1 $197 $196 $306 $379 reversed $69 $-1 #
edge $-1 $380 -62.866688527569785 $303 -52.039669328126159 $297 $381 forward 7 unknown #
vertex $-1 $199 $382 #
straight-curve $-1 -2.2290232197894042 22.152777486518705 7.427467003289312 1 0 0 I I #
coedge $-1 $375 $200 $203 $310 reversed $295 $-1 #
coedge $-1 $200 $375 $301 $379 forward $295 $-1 #
vertex $-1 $201 $383 #
straight-curve $-1 -18.765144637736451 31.433344263784889 79.007194767145933 0 0 1 I I #
straight-curve $-1 -18.765144637736451 -22.453925186673544 34.229878469538733 0 0.85716729658548041 -0.51503808176128008 I I #
edge $-1 $377 -9.8490517585788346 $204 18.765144637736451 $305 $384 forward 7 unknown #
point $-1 -18.765144637736451 31.433344263784889 7.4274670032893129 #
point $-1 -18.765144637736451 22.152777486518701 7.427467003289312 #
edge $-1 $385 1 $385 0 $207 $-1 forward 7 unknown #
vertex $-1 $208 $386 #
ellipse-curve $-1 -13.042305358473392 25.207692333551829 2.0008071154734166 0 0.51503808176128008 0.85716729658548041 2 0 0 1 I I #
point $-1 -11.042305358473392 26.793060875151802 4.6393034034523204 #
edge $-1 $387 1 $387 0 $211 $-1 forward 7 unknown #
vertex $-1 $212 $388 #
ellipse-curve $-1 -4.4580464395788084 25.207692333551829 2.0008071154734166 0 0.51503808176128008 0.85716729658548041 2 0 0 1 I I #
point $-1 -2.4580464395788084 26.793060875151802 4.6393034034523204 #
edge $-1 $389 1 $389 0 $215 $-1 forward 7 unknown #
vertex $-1 $216 $390 #
ellipse-curve $-1 4.1262124793157824 25.207692333551829 2.0008071154734166 0 0.51503808176128008 0.85716729658548041 2 0 0 1 I I #
point $-1 6.1262124793157824 26.793060875151802 4.6393034034523204 #
plane-surface $-1 72.205572679830311 0 0 -1 0 0 0 0 1 forward_v I I I I #
coedge $-1 $224 $222 $226 $330 reversed $141 $-1 #
edge $-1 $237 -7.4274670032893129 $332 7.4274670032893129 $236 $391 forward 7 unknown #
vertex $-1 $330 $392 #
straight-curve $-1 -72.205572679830311 -31.433344263784889 0 0 0 -1 I I #
edge $-1 $328 -31.433344263784889 $332 31.433344263784889 $326 $393 forward 7 unknown #
straight-curve $-1 0 -31.433344263784889 -7.4274670032893129 -1 0 0 I I #
vertex $-1 $229 $394 #
straight-curve $-1 0 31.433344263784889 -7.4274670032893129 1 0 0 I I #
point $-1 72.205572679830311 31.433344263784889 -7.4274670032893129 #
point $-1 72.205572679830311 -31.433344263784889 -7.4274670032893129 #
straight-curve $-1 -72.205572679830311 0 7.4274670032893129 0 -1 0 I I #
point $-1 -72.205572679830311 31.433344263784889 7.4274670032893129 #
point $-1 -72.205572679830311 -31.433344263784889 7.4274670032893129 #
straight-curve $-1 72.205572679830311 -31.433344263784889 0 0 0 -1 I I #
straight-curve $-1 72.205572679830311 31.433344263784889 0 0 0 -1 I I #
plane-surface $-1 0 31.433344263784889 0 0 -1 0 0 0 -1 forward_v I I I I #
coedge $-1 $352 $351 $252 $344 forward $247 $-1 #
straight-curve $-1 -66.561998873105409 -31.433344263784889 0.2295097087147977 0 0 1 I I #
edge $-1 $347 -31.433344263784889 $345 31.433344263784889 $342 $395 forward 7 unknown #
vertex $-1 $253 $396 #
straight-curve $-1 -34.69189288823393 -31.433344263784889 -1.4489285946980472 1 0 0 I I #
vertex $-1 $255 $397 #
straight-curve $-1 -34.69189288823393 31.433344263784889 -1.4489285946980472 -1 0 0 I I #
point $-1 -66.561998873105409 31.433344263784889 -1.4489285946980472 #
point $-1 -66.561998873105409 -31.433344263784889 -1.4489285946980472 #
coedge $-1 $342 $259 $262 $354 forward $247 $-1 #
coedge $-1 $259 $342 $266 $356 reversed $247 $-1 #
straight-curve $-1 -72.205572679830311 0 2.366967429557238 0 1 0 I I #
edge $-1 $264 -2.366967429557238 $347 1.4489285946980472 $262 $398 forward 7 unknown #
point $-1 -72.205572679830311 31.433344263784889 2.366967429557238 #
edge $-1 $267 -2.366967429557238 $345 1.4489285946980472 $352 $399 forward 7 unknown #
point $-1 -72.205572679830311 -31.433344263784889 2.366967429557238 #
straight-curve $-1 -66.561998873105409 31.433344263784889 0.2295097087147977 0 0 -1 I I #
plane-surface $-1 72.205572679830311 0 0 -1 0 0 0 0 1 forward_v I I I I #
coedge $-1 $400 $275 $287 $371 reversed $177 $-1 #
coedge $-1 $275 $400 $290 $373 reversed $177 $-1 #
edge $-1 $401 -31.433344263784889 $284 -28.433344263784889 $280 $402 forward 7 unknown #
straight-curve $-1 34.08767308302464 -28.433344263784889 7.4274670032893129 -1 0 0 I I #
coedge $-1 $287 $278 $281 $367 forward $273 $-1 #
straight-curve $-1 34.08767308302464 -28.433344263784889 -7.4274670032893129 1 0 0 I I #
coedge $-1 $281 $280 $400 $403 forward $282 $-1 #
edge $-1 $283 28.433344263784889 $404 31.433344263784889 $281 $405 forward 7 unknown #
point $-1 72.205572679830311 -28.433344263784889 -7.4274670032893129 #
point $-1 72.205572679830311 -28.433344263784889 7.4274670032893129 #
straight-curve $-1 64.145119652268249 -31.433344263784889 0 0 0 -1 I I #
edge $-1 $404 -72.205572679830311 $288 -64.145119652268249 $360 $406 forward 7 unknown #
point $-1 64.145119652268249 -31.433344263784889 -7.4274670032893129 #
edge $-1 $291 64.145119652268249 $401 72.205572679830311 $361 $407 forward 7 unknown #
point $-1 64.145119652268249 -31.433344263784889 7.4274670032893129 #
coedge $-1 $306 $305 $298 $376 forward $295 $-1 #
edge $-1 $377 71.579727763856624 $380 77.156054963530622 $375 $408 forward 7 unknown #
vertex $-1 $310 $409 #
straight-curve $-1 9.8490517585788346 25.961657052157726 7.4274670032893084 0 1 0 I I #
edge $-1 $380 -12.078074978368239 $307 16.536121417947047 $306 $410 forward 7 unknown #
vertex $-1 $379 $411 #
straight-curve $-1 9.8490517585788346 -22.453925186673544 34.229878469538733 0 -0.85716729658548041 0.51503808176128008 I I #
point $-1 9.8490517585788346 22.152777486518701 7.427467003289312 #
point $-1 -18.765144637736451 31.433344263784889 1.8511398036153111 #
straight-curve $-1 0 31.433344263784889 7.4274670032893129 -1 0 0 I I #
vertex $-1 $313 $412 #
point $-1 -11.042305358473392 25.207692333551829 2.0008071154734166 #
vertex $-1 $317 $413 #
point $-1 -2.4580464395788084 25.207692333551829 2.0008071154734166 #
vertex $-1 $321 $414 #
point $-1 6.1262124793157824 25.207692333551829 2.0008071154734166 #
straight-curve $-1 -72.205572679830311 31.433344263784889 0 0 0 -1 I I #
point $-1 -72.205572679830311 -31.433344263784889 -7.4274670032893129 #
straight-curve $-1 -72.205572679830311 0 -7.4274670032893129 0 1 0 I I #
point $-1 -72.205572679830311 31.433344263784889 -7.4274670032893129 #
straight-curve $-1 -72.205572679830311 0 -1.4489285946980472 0 -1 0 I I #
point $-1 -72.205572679830311 -31.433344263784889 -1.4489285946980472 #
point $-1 -72.205572679830311 31.433344263784889 -1.4489285946980472 #
straight-curve $-1 -72.205572679830311 31.433344263784889 0 0 0 -1 I I #
straight-curve $-1 -72.205572679830311 -31.433344263784889 0 0 0 -1 I I #
coedge $-1 $361 $360 $366 $403 reversed $177 $-1 #
vertex $-1 $362 $415 #
straight-curve $-1 72.205572679830311 0 7.4274670032893129 0 1 0 I I #
edge $-1 $401 -7.4274670032893129 $404 7.4274670032893129 $366 $416 forward 7 unknown #
vertex $-1 $403 $417 #
straight-curve $-1 72.205572679830311 0 -7.4274670032893129 0 -1 0 I I #
straight-curve $-1 0 -31.433344263784889 -7.4274670032893129 -1 0 0 I I #
straight-curve $-1 0 -31.433344263784889 7.4274670032893129 1 0 0 I I #
straight-curve $-1 9.8490517585788346 31.433344263784889 79.007194767145933 0 0 -1 I I #
point $-1 9.8490517585788346 31.433344263784889 7.4274670032893129 #
straight-curve $-1 -2.2290232197894042 31.433344263784885 1.8511398036153164 -1 0 0 I I #
point $-1 9.8490517585788346 31.433344263784889 1.8511398036153111 #
point $-1 -13.042305358473392 24.177616170029271 0.28647252230245601 #
point $-1 -4.4580464395788084 24.177616170029271 0.28647252230245601 #
point $-1 4.1262124793157824 24.177616170029271 0.28647252230245601 #
point $-1 72.205572679830311 -31.433344263784889 7.4274670032893129 #
straight-curve $-1 72.205572679830311 -31.433344263784889 0 0 0 -1 I I #
point $-1 72.205572679830311 -31.433344263784889 -7.4274670032893129 #
End-of-ACIS-data 