500 0 9 0           
7 Unknown 11 ACIS 5.0 NT 24 Thu Mar 25 21:12:49 1999 
-1 9.9999999999999995e-007 1e-010 
body $-1 $9 $-1 $10 #
body $-1 $11 $-1 $12 #
body $-1 $13 $-1 $14 #
body $-1 $15 $-1 $16 #
body $-1 $17 $-1 $18 #
body $-1 $19 $-1 $20 #
body $-1 $21 $-1 $22 #
body $-1 $23 $-1 $24 #
body $-1 $25 $-1 $26 #
lump $-1 $-1 $27 $0 #
transform $-1 1 0 0 0 1 0 0 0 1 61.749931333353679 27.866524540526573 10.026403934537555 1 rotate no_reflect no_shear #
lump $-1 $-1 $28 $1 #
transform $-1 1 0 0 0 1 0 0 0 1 61.749931333353679 27.866524540526573 10.026403934537555 1 rotate no_reflect no_shear #
lump $-1 $-1 $29 $2 #
transform $-1 1 0 0 0 1 0 0 0 1 61.749931333353679 27.866524540526573 10.026403934537555 1 rotate no_reflect no_shear #
lump $-1 $-1 $30 $3 #
transform $-1 1 0 0 0 1 0 0 0 1 61.749931333353679 27.866524540526573 10.026403934537555 1 rotate no_reflect no_shear #
lump $-1 $-1 $31 $4 #
transform $-1 1 0 0 0 1 0 0 0 1 61.749931333353679 27.866524540526573 10.026403934537555 1 rotate no_reflect no_shear #
lump $-1 $-1 $32 $5 #
transform $-1 1 0 0 0 1 0 0 0 1 61.749931333353679 27.866524540526573 10.026403934537555 1 rotate no_reflect no_shear #
lump $-1 $-1 $33 $6 #
transform $-1 1 0 0 0 1 0 0 0 1 61.749931333353679 27.866524540526573 10.026403934537555 1 rotate no_reflect no_shear #
lump $-1 $-1 $34 $7 #
transform $-1 1 0 0 0 1 0 0 0 1 61.749931333353679 27.866524540526573 10.026403934537555 1 rotate no_reflect no_shear #
lump $-1 $-1 $35 $8 #
transform $-1 1 0 0 0 1 0 0 0 1 61.749931333353679 27.866524540526573 10.026403934537555 1 rotate no_reflect no_shear #
shell $-1 $-1 $-1 $36 $-1 $9 #
shell $-1 $-1 $-1 $37 $-1 $11 #
shell $-1 $-1 $-1 $38 $-1 $13 #
shell $-1 $-1 $-1 $39 $-1 $15 #
shell $-1 $-1 $-1 $40 $-1 $17 #
shell $-1 $-1 $-1 $41 $-1 $19 #
shell $-1 $-1 $-1 $42 $-1 $21 #
shell $-1 $-1 $-1 $43 $-1 $23 #
shell $-1 $-1 $-1 $44 $-1 $25 #
face $-1 $45 $46 $27 $-1 $47 forward single #
face $-1 $48 $49 $28 $-1 $50 reversed single #
face $-1 $51 $52 $29 $-1 $53 forward single #
face $-1 $54 $55 $30 $-1 $56 reversed single #
face $-1 $57 $58 $31 $-1 $59 forward single #
face $-1 $60 $61 $32 $-1 $62 forward single #
face $-1 $63 $64 $33 $-1 $65 reversed single #
face $-1 $66 $67 $34 $-1 $68 forward single #
face $-1 $69 $70 $35 $-1 $71 forward single #
face $-1 $72 $73 $27 $-1 $74 reversed single #
loop $-1 $-1 $75 $36 #
plane-surface $-1 0 0 10.026403934537555 0 0 1 1 0 0 forward_v I I I I #
face $-1 $76 $77 $28 $-1 $78 forward single #
loop $-1 $-1 $79 $37 #
plane-surface $-1 -53.070352480329412 0 4.137863448358285 -1 0 0 0 0 1 forward_v I I I I #
face $-1 $80 $81 $29 $-1 $82 reversed single #
loop $-1 $-1 $83 $38 #
plane-surface $-1 58.1382870405048 0 0.94422571956481205 0 0 1 1 0 0 forward_v I I I I #
face $-1 $84 $85 $30 $-1 $86 reversed single #
loop $-1 $-1 $87 $39 #
plane-surface $-1 -33.827542588196565 86.648396236760078 122.17209600324263 -1 0 0 0 0.7660444514056185 0.64278759981090561 forward_v I I I I #
face $-1 $88 $89 $31 $-1 $90 forward single #
loop $-1 $91 $92 $40 #
cone-surface $-1 -47.572406796862879 23.028875131362987 4.4975647771014415 0 -0.7660444514056185 -0.64278759981090561 1.5 0 0 1 I I 0 1 1.5 forward I I I I #
face $-1 $93 $94 $32 $-1 $95 forward single #
loop $-1 $96 $97 $41 #
cone-surface $-1 -39.32548827166309 23.028875131362987 4.4975647771014415 0 -0.7660444514056185 -0.64278759981090561 1.5 0 0 1 I I 0 1 1.5 forward I I I I #
face $-1 $98 $99 $33 $-1 $100 reversed single #
loop $-1 $-1 $101 $42 #
plane-surface $-1 -33.827542588196565 -122.47290908571364 79.478102994784848 -1 0 0 0 -0.7660444514056185 0.64278759981090561 forward_v I I I I #
face $-1 $102 $103 $34 $-1 $104 forward single #
loop $-1 $105 $106 $43 #
cone-surface $-1 -47.572406796862879 -23.028875131362987 4.497564777101438 0 0.7660444514056185 -0.64278759981090561 1.5 0 0 1 I I 0 1 1.5 forward I I I I #
face $-1 $107 $108 $35 $-1 $109 forward single #
loop $-1 $110 $111 $44 #
cone-surface $-1 -39.32548827166309 -23.028875131362987 4.497564777101438 0 0.7660444514056185 -0.64278759981090561 1.5 0 0 1 I I 0 1 1.5 forward I I I I #
face $-1 $112 $113 $27 $-1 $114 reversed single #
loop $-1 $-1 $115 $45 #
plane-surface $-1 0 0 -10.026403934537555 0 0 1 1 0 0 forward_v I I I I #
coedge $-1 $116 $117 $118 $119 forward $46 $-1 #
face $-1 $120 $121 $28 $-1 $122 reversed single #
loop $-1 $-1 $123 $48 #
plane-surface $-1 -57.410141906841545 0 5.9074394423102525 0 0 1 1 0 0 forward_v I I I I #
coedge $-1 $124 $125 $126 $127 reversed $49 $-1 #
face $-1 $128 $129 $29 $-1 $130 reversed single #
loop $-1 $-1 $131 $51 #
plane-surface $-1 58.1382870405048 0 -3.6835195065821966 0 0 1 1 0 0 forward_v I I I I #
coedge $-1 $132 $133 $134 $135 reversed $52 $-1 #
face $-1 $136 $137 $30 $-1 $138 forward single #
loop $-1 $-1 $139 $54 #
plane-surface $-1 -43.448947534262985 -7.9579883084269767 42.787915702733343 0 0.7660444514056185 0.64278759981090561 1 0 0 forward_v I I I I #
coedge $-1 $140 $141 $142 $143 reversed $55 $-1 #
face $-1 $-1 $144 $31 $-1 $145 forward single #
loop $-1 $146 $147 $57 #
cone-surface $-1 -47.572406796862879 21.783862947233207 3.452875539938141 0 -0.7660444514056185 -0.64278759981090561 0.75 0 0 1 I I -0.70710678118654757 0.70710678118654757 0.75 forward I I I I #
loop $-1 $-1 $148 $40 #
coedge $-1 $92 $92 $149 $150 reversed $58 $-1 #
face $-1 $-1 $151 $32 $-1 $152 forward single #
loop $-1 $153 $154 $60 #
cone-surface $-1 -39.32548827166309 21.783862947233207 3.452875539938141 0 -0.7660444514056185 -0.64278759981090561 0.75 0 0 1 I I -0.70710678118654757 0.70710678118654757 0.75 forward I I I I #
loop $-1 $-1 $155 $41 #
coedge $-1 $97 $97 $156 $157 reversed $61 $-1 #
face $-1 $158 $159 $33 $-1 $160 forward single #
loop $-1 $-1 $161 $63 #
plane-surface $-1 -43.448947534262985 -27.866524540526584 0.093922694275562435 0 -0.7660444514056185 0.64278759981090561 1 0 0 forward_v I I I I #
coedge $-1 $162 $163 $164 $165 reversed $64 $-1 #
face $-1 $-1 $166 $34 $-1 $167 forward single #
loop $-1 $168 $169 $66 #
cone-surface $-1 -47.572406796862879 -21.783862947233207 3.4528755399381375 0 0.7660444514056185 -0.64278759981090561 0.75 0 0 1 I I -0.70710678118654757 0.70710678118654757 0.75 forward I I I I #
loop $-1 $-1 $170 $43 #
coedge $-1 $106 $106 $171 $172 reversed $67 $-1 #
face $-1 $-1 $173 $35 $-1 $174 forward single #
loop $-1 $175 $176 $69 #
cone-surface $-1 -39.32548827166309 -21.783862947233207 3.4528755399381375 0 0.7660444514056185 -0.64278759981090561 0.75 0 0 1 I I -0.70710678118654757 0.70710678118654757 0.75 forward I I I I #
loop $-1 $-1 $177 $44 #
coedge $-1 $111 $111 $178 $179 reversed $70 $-1 #
face $-1 $180 $181 $27 $-1 $182 reversed single #
loop $-1 $-1 $183 $72 #
plane-surface $-1 0 -27.866524540526573 0 0 1 0 0 0 1 forward_v I I I I #
coedge $-1 $184 $185 $186 $187 forward $73 $-1 #
coedge $-1 $188 $75 $189 $190 forward $46 $-1 #
coedge $-1 $75 $188 $191 $192 forward $46 $-1 #
coedge $-1 $193 $194 $75 $119 reversed $195 $-1 #
edge $-1 $196 -27.866524540526573 $197 27.866524540526573 $118 $198 forward 7 unknown #
face $-1 $199 $200 $28 $-1 $201 reversed single #
loop $-1 $-1 $126 $76 #
plane-surface $-1 -57.410141906841545 0 2.3682874544063175 0 0 1 1 0 0 forward_v I I I I #
coedge $-1 $202 $203 $204 $205 forward $77 $-1 #
coedge $-1 $204 $79 $206 $207 reversed $49 $-1 #
coedge $-1 $79 $204 $208 $209 reversed $49 $-1 #
coedge $-1 $210 $211 $79 $127 forward $121 $-1 #
edge $-1 $212 -27.866524540526573 $213 27.866524540526573 $79 $214 forward 7 unknown #
face $-1 $215 $216 $29 $-1 $217 reversed single #
loop $-1 $-1 $218 $80 #
plane-surface $-1 54.526642747655913 0 -1.3696468935086923 1 0 0 0 0 -1 forward_v I I I I #
coedge $-1 $219 $220 $221 $222 reversed $81 $-1 #
coedge $-1 $223 $83 $224 $225 reversed $52 $-1 #
coedge $-1 $83 $223 $226 $227 reversed $52 $-1 #
coedge $-1 $228 $229 $83 $135 forward $230 $-1 #
edge $-1 $231 -27.866524540526573 $232 27.866524540526573 $134 $233 forward 7 unknown #
face $-1 $234 $235 $30 $-1 $236 reversed single #
loop $-1 $-1 $237 $84 #
plane-surface $-1 0 0 10.026403934537555 0 0 1 1 0 0 forward_v I I I I #
coedge $-1 $238 $239 $240 $241 reversed $85 $-1 #
coedge $-1 $141 $87 $242 $243 reversed $55 $-1 #
coedge $-1 $87 $140 $238 $244 reversed $55 $-1 #
coedge $-1 $240 $245 $87 $143 forward $235 $-1 #
edge $-1 $246 51.059644067083759 $247 60.992125307345731 $142 $248 forward 7 unknown #
loop $-1 $-1 $149 $88 #
plane-surface $-1 -43.448947534262985 -7.9579883084269767 42.787915702733343 0 0.7660444514056185 0.64278759981090561 1 0 0 forward_v I I I I #
loop $-1 $-1 $249 $57 #
coedge $-1 $147 $147 $148 $250 reversed $89 $-1 #
coedge $-1 $148 $148 $147 $250 forward $91 $-1 #
coedge $-1 $149 $149 $92 $150 forward $144 $-1 #
edge $-1 $251 -6.1524799858170891e-016 $251 6.2831853071795996 $149 $252 forward 7 unknown #
loop $-1 $-1 $156 $93 #
plane-surface $-1 -43.448947534262985 -7.9579883084269767 42.787915702733343 0 0.7660444514056185 0.64278759981090561 1 0 0 forward_v I I I I #
loop $-1 $-1 $253 $60 #
coedge $-1 $154 $154 $155 $254 reversed $94 $-1 #
coedge $-1 $155 $155 $154 $254 forward $96 $-1 #
coedge $-1 $156 $156 $97 $157 forward $151 $-1 #
edge $-1 $255 -6.1524799858170891e-016 $255 6.2831853071795996 $156 $256 forward 7 unknown #
face $-1 $257 $258 $33 $-1 $259 forward single #
loop $-1 $-1 $164 $98 #
plane-surface $-1 0 0 10.026403934537555 0 0 1 1 0 0 forward_v I I I I #
coedge $-1 $260 $261 $262 $263 reversed $99 $-1 #
coedge $-1 $163 $101 $264 $265 reversed $64 $-1 #
coedge $-1 $101 $162 $260 $266 reversed $64 $-1 #
coedge $-1 $262 $267 $101 $165 forward $159 $-1 #
edge $-1 $268 33.36993000233025 $269 41.704271129506274 $164 $270 forward 7 unknown #
loop $-1 $-1 $171 $102 #
plane-surface $-1 -43.448947534262985 -27.866524540526584 0.093922694275562435 0 -0.7660444514056185 0.64278759981090561 1 0 0 forward_v I I I I #
loop $-1 $-1 $271 $66 #
coedge $-1 $169 $169 $170 $272 reversed $103 $-1 #
coedge $-1 $170 $170 $169 $272 forward $105 $-1 #
coedge $-1 $171 $171 $106 $172 forward $166 $-1 #
edge $-1 $273 7.7690656365042353e-016 $273 6.2831853071796013 $171 $274 forward 7 unknown #
loop $-1 $-1 $178 $107 #
plane-surface $-1 -43.448947534262985 -27.866524540526584 0.093922694275562435 0 -0.7660444514056185 0.64278759981090561 1 0 0 forward_v I I I I #
loop $-1 $-1 $275 $69 #
coedge $-1 $176 $176 $177 $276 reversed $108 $-1 #
coedge $-1 $177 $177 $176 $276 forward $110 $-1 #
coedge $-1 $178 $178 $111 $179 forward $173 $-1 #
edge $-1 $277 7.7690656365042353e-016 $277 6.2831853071796013 $178 $278 forward 7 unknown #
face $-1 $279 $280 $27 $-1 $281 reversed single #
loop $-1 $-1 $282 $112 #
plane-surface $-1 -61.749931333353679 0 0 1 0 0 0 0 -1 forward_v I I I I #
coedge $-1 $283 $191 $284 $285 forward $113 $-1 #
coedge $-1 $286 $115 $283 $287 forward $73 $-1 #
coedge $-1 $115 $286 $288 $289 forward $73 $-1 #
coedge $-1 $194 $193 $115 $187 reversed $195 $-1 #
edge $-1 $290 -27.866524540526573 $291 27.866524540526573 $186 $292 forward 7 unknown #
coedge $-1 $117 $116 $293 $294 forward $46 $-1 #
coedge $-1 $295 $296 $116 $190 reversed $280 $-1 #
edge $-1 $197 -61.749931333353679 $297 61.749931333353679 $189 $298 forward 7 unknown #
coedge $-1 $183 $299 $117 $192 reversed $113 $-1 #
edge $-1 $300 -61.749931333353679 $196 61.749931333353679 $191 $301 forward 7 unknown #
coedge $-1 $186 $118 $299 $302 forward $195 $-1 #
coedge $-1 $118 $186 $295 $303 reversed $195 $-1 #
loop $-1 $-1 $193 $279 #
vertex $-1 $119 $304 #
vertex $-1 $119 $305 #
straight-curve $-1 61.749931333353679 0 10.026403934537555 0 1 0 I I #
face $-1 $306 $307 $28 $-1 $308 reversed single #
loop $-1 $-1 $309 $120 #
plane-surface $-1 0 -27.866524540526573 0 0 1 0 0 0 1 forward_v I I I I #
coedge $-1 $310 $123 $311 $312 reversed $77 $-1 #
coedge $-1 $123 $310 $313 $314 reversed $77 $-1 #
coedge $-1 $125 $124 $123 $205 reversed $49 $-1 #
edge $-1 $315 -27.866524540526573 $316 27.866524540526573 $204 $317 forward 7 unknown #
coedge $-1 $318 $311 $124 $207 forward $319 $-1 #
edge $-1 $316 -3.83850771813111 $212 -0.29935573022717499 $206 $320 forward 7 unknown #
coedge $-1 $313 $309 $125 $209 forward $200 $-1 #
edge $-1 $213 0.29935573022717499 $315 3.83850771813111 $208 $321 forward 7 unknown #
coedge $-1 $322 $126 $309 $323 reversed $121 $-1 #
coedge $-1 $126 $322 $318 $324 reversed $121 $-1 #
vertex $-1 $324 $325 #
vertex $-1 $323 $326 #
straight-curve $-1 -53.070352480329412 0 2.3682874544063175 0 -1 0 I I #
face $-1 $327 $328 $29 $-1 $329 reversed single #
loop $-1 $-1 $226 $128 #
plane-surface $-1 0 -27.866524540526573 0 0 1 0 0 0 1 forward_v I I I I #
coedge $-1 $330 $331 $332 $333 reversed $129 $-1 #
coedge $-1 $334 $131 $335 $336 reversed $81 $-1 #
coedge $-1 $131 $334 $337 $338 reversed $81 $-1 #
coedge $-1 $229 $228 $131 $222 forward $230 $-1 #
edge $-1 $339 -27.866524540526573 $340 27.866524540526573 $221 $341 forward 7 unknown #
coedge $-1 $133 $132 $331 $342 forward $52 $-1 #
coedge $-1 $343 $332 $132 $225 forward $328 $-1 #
edge $-1 $344 25.457499227403513 $231 32.68078781310129 $224 $345 forward 7 unknown #
coedge $-1 $346 $347 $133 $227 forward $216 $-1 #
edge $-1 $232 -32.68078781310129 $348 -25.457499227403513 $226 $349 forward 7 unknown #
coedge $-1 $221 $134 $347 $350 forward $230 $-1 #
coedge $-1 $134 $221 $343 $351 reversed $230 $-1 #
loop $-1 $-1 $134 $327 #
vertex $-1 $351 $352 #
vertex $-1 $350 $353 #
straight-curve $-1 61.749931333353679 0 0.94422571956481205 0 -1 0 I I #
face $-1 $-1 $354 $30 $-1 $355 forward single #
loop $-1 $-1 $356 $136 #
plane-surface $-1 0 27.866524540526573 0 0 -1 0 0 0 -1 forward_v I I I I #
coedge $-1 $357 $358 $359 $360 forward $137 $-1 #
coedge $-1 $361 $139 $141 $244 forward $85 $-1 #
coedge $-1 $139 $361 $362 $363 forward $85 $-1 #
coedge $-1 $356 $142 $139 $241 forward $235 $-1 #
edge $-1 $247 12.103068821065072 $364 31.345878713197912 $240 $365 forward 7 unknown #
coedge $-1 $358 $357 $140 $243 forward $137 $-1 #
edge $-1 $366 -23.792014705029494 $246 -15.457673577853466 $242 $367 forward 7 unknown #
edge $-1 $247 -55.733049081053146 $366 -42.767115809117279 $141 $368 forward 7 unknown #
coedge $-1 $142 $356 $358 $369 reversed $235 $-1 #
vertex $-1 $369 $370 #
vertex $-1 $143 $371 #
straight-curve $-1 -33.827542588196565 27.866524540526573 61.086048001621315 0 0 -1 I I #
coedge $-1 $249 $249 $-1 $372 reversed $146 $-1 #
edge $-1 $373 0 $373 6.2831853071796004 $147 $374 forward 7 unknown #
vertex $-1 $150 $375 #
ellipse-curve $-1 -47.572406796862879 23.699353976938557 5.060163314406565 0 0.7660444514056185 0.64278759981090561 1.5 0 0 1 I I #
coedge $-1 $253 $253 $-1 $376 reversed $153 $-1 #
edge $-1 $377 0 $377 6.2831853071796004 $154 $378 forward 7 unknown #
vertex $-1 $157 $379 #
ellipse-curve $-1 -39.32548827166309 23.699353976938557 5.060163314406565 0 0.7660444514056185 0.64278759981090561 1.5 0 0 1 I I #
face $-1 $-1 $380 $33 $-1 $381 reversed single #
loop $-1 $-1 $382 $158 #
plane-surface $-1 -53.070352480329412 0 4.137863448358285 -1 0 0 0 0 1 forward_v I I I I #
coedge $-1 $383 $161 $163 $266 forward $99 $-1 #
coedge $-1 $161 $383 $382 $384 forward $99 $-1 #
coedge $-1 $385 $164 $161 $263 forward $159 $-1 #
edge $-1 $269 12.103068821065072 $386 31.345878713197912 $262 $387 forward 7 unknown #
coedge $-1 $388 $389 $162 $265 forward $380 $-1 #
edge $-1 $390 -39.645128803116847 $268 -29.712647562854869 $264 $391 forward 7 unknown #
edge $-1 $269 -12.965933271935903 $390 -1.6578288043618782e-014 $163 $392 forward 7 unknown #
coedge $-1 $164 $385 $388 $393 forward $159 $-1 #
vertex $-1 $265 $394 #
vertex $-1 $165 $395 #
straight-curve $-1 -33.827542588196565 -61.236454542856819 10.026403934537555 0 1 0 I I #
coedge $-1 $271 $271 $-1 $396 reversed $168 $-1 #
edge $-1 $397 0 $397 6.2831853071796004 $169 $398 forward 7 unknown #
vertex $-1 $172 $399 #
ellipse-curve $-1 -47.572406796862879 -23.699353976938561 5.0601633144065641 0 -0.7660444514056185 0.64278759981090561 1.5 0 0 1 I I #
coedge $-1 $275 $275 $-1 $400 reversed $175 $-1 #
edge $-1 $401 0 $401 6.2831853071796004 $176 $402 forward 7 unknown #
vertex $-1 $179 $403 #
ellipse-curve $-1 -39.32548827166309 -23.699353976938561 5.0601633144065641 0 -0.7660444514056185 0.64278759981090561 1.5 0 0 1 I I #
face $-1 $-1 $195 $27 $-1 $404 reversed single #
loop $-1 $-1 $295 $180 #
plane-surface $-1 0 27.866524540526573 0 0 -1 0 0 0 -1 forward_v I I I I #
coedge $-1 $405 $293 $296 $406 forward $181 $-1 #
coedge $-1 $299 $183 $184 $287 reversed $113 $-1 #
coedge $-1 $293 $405 $183 $285 reversed $181 $-1 #
edge $-1 $300 -10.026403934537555 $407 10.026403934537555 $284 $408 forward 7 unknown #
coedge $-1 $185 $184 $405 $409 forward $73 $-1 #
edge $-1 $291 -61.749931333353679 $407 61.749931333353679 $283 $410 forward 7 unknown #
coedge $-1 $296 $295 $185 $289 reversed $280 $-1 #
edge $-1 $411 -61.749931333353679 $290 61.749931333353679 $288 $412 forward 7 unknown #
vertex $-1 $187 $413 #
vertex $-1 $302 $414 #
straight-curve $-1 61.749931333353679 0 -10.026403934537555 0 -1 0 I I #
coedge $-1 $282 $284 $188 $294 reversed $181 $-1 #
edge $-1 $297 -27.866524540526573 $300 27.866524540526573 $293 $415 forward 7 unknown #
coedge $-1 $288 $189 $194 $303 forward $280 $-1 #
coedge $-1 $189 $288 $282 $406 reversed $280 $-1 #
vertex $-1 $190 $416 #
straight-curve $-1 0 27.866524540526573 10.026403934537555 -1 0 0 I I #
coedge $-1 $191 $283 $193 $302 reversed $113 $-1 #
vertex $-1 $294 $417 #
straight-curve $-1 0 -27.866524540526573 10.026403934537555 1 0 0 I I #
edge $-1 $196 -10.026403934537555 $291 10.026403934537555 $193 $418 forward 7 unknown #
edge $-1 $197 -10.026403934537555 $290 10.026403934537555 $194 $419 forward 7 unknown #
point $-1 61.749931333353679 -27.866524540526573 10.026403934537555 #
point $-1 61.749931333353679 27.866524540526573 10.026403934537555 #
face $-1 $-1 $319 $28 $-1 $420 reversed single #
loop $-1 $-1 $421 $199 #
plane-surface $-1 -61.749931333353679 0 0 1 0 0 0 0 -1 forward_v I I I I #
coedge $-1 $208 $422 $210 $323 forward $200 $-1 #
coedge $-1 $203 $202 $423 $424 reversed $77 $-1 #
coedge $-1 $206 $425 $202 $312 forward $319 $-1 #
edge $-1 $426 -33.044860379932906 $316 -24.365281526908639 $311 $427 forward 7 unknown #
coedge $-1 $422 $208 $203 $314 forward $200 $-1 #
edge $-1 $315 24.365281526908639 $428 33.044860379932906 $313 $429 forward 7 unknown #
vertex $-1 $314 $430 #
vertex $-1 $312 $431 #
straight-curve $-1 -53.070352480329412 0 5.9074394423102525 0 1 0 I I #
coedge $-1 $425 $206 $211 $324 forward $319 $-1 #
loop $-1 $-1 $318 $306 #
straight-curve $-1 -53.070352480329412 27.866524540526573 2.0689317241791425 0 0 -1 I I #
straight-curve $-1 -53.070352480329412 -27.866524540526573 2.0689317241791425 0 0 1 I I #
coedge $-1 $211 $210 $421 $432 reversed $121 $-1 #
edge $-1 $433 -33.044860379932906 $213 -24.365281526908639 $309 $434 forward 7 unknown #
edge $-1 $212 24.365281526908639 $435 33.044860379932906 $318 $436 forward 7 unknown #
point $-1 -53.070352480329412 27.866524540526573 2.3682874544063175 #
point $-1 -53.070352480329412 -27.866524540526573 2.3682874544063175 #
face $-1 $-1 $230 $29 $-1 $437 reversed single #
loop $-1 $-1 $224 $215 #
plane-surface $-1 0 27.866524540526573 0 0 -1 0 0 0 -1 forward_v I I I I #
coedge $-1 $438 $218 $334 $439 reversed $129 $-1 #
coedge $-1 $218 $438 $223 $342 reversed $129 $-1 #
coedge $-1 $224 $337 $218 $333 forward $328 $-1 #
edge $-1 $440 -2.9986960598278505 $344 1.6290491663191582 $332 $441 forward 7 unknown #
coedge $-1 $220 $219 $330 $439 forward $81 $-1 #
coedge $-1 $347 $346 $219 $336 forward $216 $-1 #
edge $-1 $442 25.457499227403513 $339 32.68078781310129 $335 $443 forward 7 unknown #
coedge $-1 $332 $343 $220 $338 forward $328 $-1 #
edge $-1 $340 -32.68078781310129 $440 -25.457499227403513 $337 $444 forward 7 unknown #
vertex $-1 $222 $445 #
vertex $-1 $222 $446 #
straight-curve $-1 61.749931333353679 0 -3.6835195065821966 0 1 0 I I #
edge $-1 $344 -27.866524540526573 $348 27.866524540526573 $331 $447 forward 7 unknown #
coedge $-1 $337 $224 $229 $351 forward $328 $-1 #
vertex $-1 $225 $448 #
straight-curve $-1 29.0691435202524 27.866524540526573 0.94422571956481205 1 0 0 I I #
coedge $-1 $335 $226 $438 $449 forward $216 $-1 #
coedge $-1 $226 $335 $228 $350 reversed $216 $-1 #
vertex $-1 $227 $450 #
straight-curve $-1 29.0691435202524 -27.866524540526573 0.94422571956481205 -1 0 0 I I #
edge $-1 $232 -0.94422571956481205 $339 3.6835195065821966 $228 $451 forward 7 unknown #
edge $-1 $231 -0.94422571956481205 $340 3.6835195065821966 $229 $452 forward 7 unknown #
point $-1 61.749931333353686 27.866524540526573 0.94422571956481205 #
point $-1 61.749931333353686 -27.866524540526573 0.94422571956481205 #
loop $-1 $-1 $362 $234 #
plane-surface $-1 -53.070352480329412 0 4.137863448358285 -1 0 0 0 0 1 forward_v I I I I #
coedge $-1 $245 $240 $453 $454 forward $235 $-1 #
coedge $-1 $242 $237 $361 $455 forward $137 $-1 #
coedge $-1 $237 $242 $245 $369 forward $137 $-1 #
coedge $-1 $453 $362 $237 $360 reversed $354 $-1 #
edge $-1 $456 15.457673577853466 $457 23.792014705029494 $237 $458 forward 7 unknown #
coedge $-1 $239 $238 $357 $455 reversed $85 $-1 #
coedge $-1 $359 $453 $239 $363 reversed $354 $-1 #
edge $-1 $457 42.767115809117279 $364 55.733049081053146 $362 $459 forward 7 unknown #
vertex $-1 $241 $460 #
straight-curve $-1 -21.724473767131492 27.866524540526576 0.093922694275580199 -1 0 0 I I #
vertex $-1 $243 $461 #
straight-curve $-1 -33.827542588196565 43.324198118380039 10.026403934537555 0 1 0 I I #
straight-curve $-1 -33.827542588196565 -7.9579883084269767 42.787915702733343 0 -0.64278759981090561 0.7660444514056185 I I #
edge $-1 $246 33.827542588196565 $456 53.070352480329404 $245 $462 forward 7 unknown #
point $-1 -33.827542588196565 27.866524540526573 10.026403934537555 #
point $-1 -33.827542588196565 27.866524540526569 0.093922694275583751 #
edge $-1 $463 1 $463 0 $249 $-1 forward 7 unknown #
vertex $-1 $250 $464 #
ellipse-curve $-1 -47.572406796862879 22.358396285787421 3.9349662397963203 0 0.7660444514056185 0.64278759981090561 1.5 0 0 1 I I #
point $-1 -46.072406796862879 23.699353976938554 5.0601633144065632 #
edge $-1 $465 1 $465 0 $253 $-1 forward 7 unknown #
vertex $-1 $254 $466 #
ellipse-curve $-1 -39.32548827166309 22.358396285787421 3.9349662397963203 0 0.7660444514056185 0.64278759981090561 1.5 0 0 1 I I #
point $-1 -37.82548827166309 23.699353976938554 5.0601633144065632 #
loop $-1 $-1 $264 $257 #
plane-surface $-1 0 -27.866524540526573 0 0 1 0 0 0 1 forward_v I I I I #
coedge $-1 $467 $468 $261 $384 reversed $258 $-1 #
coedge $-1 $261 $260 $389 $469 reversed $99 $-1 #
edge $-1 $470 1.6578288043618782e-014 $386 12.965933271935903 $382 $471 forward 7 unknown #
coedge $-1 $267 $262 $468 $472 forward $159 $-1 #
vertex $-1 $472 $473 #
straight-curve $-1 -21.724473767131492 -19.532183413350541 10.026403934537555 -1 0 0 I I #
coedge $-1 $474 $264 $267 $393 reversed $380 $-1 #
coedge $-1 $264 $474 $383 $469 forward $380 $-1 #
vertex $-1 $265 $475 #
straight-curve $-1 -33.827542588196565 -27.866524540526569 39.739051497392424 0 0 1 I I #
straight-curve $-1 -33.827542588196565 -27.866524540526584 0.093922694275562435 0 -0.64278759981090561 -0.7660444514056185 I I #
edge $-1 $476 -53.070352480329404 $268 -33.827542588196565 $388 $477 forward 7 unknown #
point $-1 -33.827542588196565 -27.866524540526573 10.026403934537555 #
point $-1 -33.827542588196565 -19.532183413350545 10.026403934537555 #
edge $-1 $478 1 $478 0 $271 $-1 forward 7 unknown #
vertex $-1 $272 $479 #
ellipse-curve $-1 -47.572406796862879 -22.358396285787421 3.9349662397963168 0 -0.7660444514056185 0.64278759981090561 1.5 0 0 1 I I #
point $-1 -46.072406796862879 -23.699353976938554 5.0601633144065596 #
edge $-1 $480 1 $480 0 $275 $-1 forward 7 unknown #
vertex $-1 $276 $481 #
ellipse-curve $-1 -39.32548827166309 -22.358396285787421 3.9349662397963168 0 -0.7660444514056185 0.64278759981090561 1.5 0 0 1 I I #
point $-1 -37.82548827166309 -23.699353976938554 5.0601633144065596 #
plane-surface $-1 61.749931333353679 0 0 -1 0 0 0 0 1 forward_v I I I I #
coedge $-1 $284 $282 $286 $409 reversed $181 $-1 #
edge $-1 $297 -10.026403934537555 $411 10.026403934537555 $296 $482 forward 7 unknown #
vertex $-1 $409 $483 #
straight-curve $-1 -61.749931333353679 -27.866524540526573 0 0 0 -1 I I #
edge $-1 $407 -27.866524540526573 $411 27.866524540526573 $405 $484 forward 7 unknown #
straight-curve $-1 0 -27.866524540526573 -10.026403934537555 -1 0 0 I I #
vertex $-1 $289 $485 #
straight-curve $-1 0 27.866524540526573 -10.026403934537555 1 0 0 I I #
point $-1 61.749931333353679 27.866524540526573 -10.026403934537555 #
point $-1 61.749931333353679 -27.866524540526573 -10.026403934537555 #
straight-curve $-1 -61.749931333353679 0 10.026403934537555 0 -1 0 I I #
point $-1 -61.749931333353679 27.866524540526573 10.026403934537555 #
point $-1 -61.749931333353679 -27.866524540526573 10.026403934537555 #
straight-curve $-1 61.749931333353679 -27.866524540526573 0 0 0 -1 I I #
straight-curve $-1 61.749931333353679 27.866524540526573 0 0 0 -1 I I #
plane-surface $-1 0 27.866524540526573 0 0 -1 0 0 0 -1 forward_v I I I I #
coedge $-1 $486 $487 $322 $432 forward $307 $-1 #
coedge $-1 $309 $313 $486 $488 forward $200 $-1 #
coedge $-1 $487 $486 $310 $424 forward $307 $-1 #
edge $-1 $428 -27.866524540526573 $426 27.866524540526573 $423 $489 forward 7 unknown #
coedge $-1 $311 $318 $487 $490 reversed $319 $-1 #
vertex $-1 $490 $491 #
straight-curve $-1 -28.705070953420773 27.866524540526573 5.9074394423102525 1 0 0 I I #
vertex $-1 $488 $492 #
straight-curve $-1 -28.705070953420773 -27.866524540526573 5.9074394423102525 -1 0 0 I I #
point $-1 -53.070352480329412 -27.866524540526573 5.9074394423102525 #
point $-1 -53.070352480329412 27.866524540526573 5.9074394423102525 #
edge $-1 $435 -27.866524540526573 $433 27.866524540526573 $421 $493 forward 7 unknown #
vertex $-1 $323 $494 #
straight-curve $-1 -28.705070953420773 -27.866524540526573 2.3682874544063175 1 0 0 I I #
vertex $-1 $324 $495 #
straight-curve $-1 -28.705070953420773 27.866524540526573 2.3682874544063175 -1 0 0 I I #
plane-surface $-1 61.749931333353679 0 0 -1 0 0 0 0 1 forward_v I I I I #
coedge $-1 $331 $330 $346 $449 reversed $129 $-1 #
edge $-1 $442 -27.866524540526573 $440 27.866524540526573 $330 $496 forward 7 unknown #
vertex $-1 $338 $497 #
straight-curve $-1 54.526642747655913 27.866524540526573 -0.68482344675434614 0 0 1 I I #
vertex $-1 $336 $498 #
straight-curve $-1 29.0691435202524 -27.866524540526573 -3.6835195065821966 1 0 0 I I #
straight-curve $-1 29.0691435202524 27.866524540526573 -3.6835195065821966 -1 0 0 I I #
point $-1 61.749931333353686 -27.866524540526573 -3.6835195065821966 #
point $-1 61.749931333353686 27.866524540526573 -3.6835195065821966 #
straight-curve $-1 54.526642747655913 0 0.94422571956481205 0 -1 0 I I #
point $-1 54.526642747655913 27.866524540526573 0.94422571956481205 #
edge $-1 $348 -1.6290491663191582 $442 2.9986960598278505 $346 $499 forward 7 unknown #
point $-1 54.526642747655913 -27.866524540526573 0.94422571956481205 #
straight-curve $-1 61.749931333353679 -27.866524540526573 0 0 0 -1 I I #
straight-curve $-1 61.749931333353679 27.866524540526573 0 0 0 -1 I I #
coedge $-1 $362 $359 $356 $454 reversed $354 $-1 #
edge $-1 $364 -60.992125307345731 $456 -51.059644067083759 $356 $500 forward 7 unknown #
edge $-1 $457 -31.345878713197912 $366 -12.103068821065072 $357 $501 forward 7 unknown #
vertex $-1 $360 $502 #
vertex $-1 $360 $503 #
straight-curve $-1 -53.070352480329404 43.324198118380039 10.026403934537555 0 -1 0 I I #
straight-curve $-1 -53.070352480329404 -7.9579883084269767 42.787915702733343 0 0.64278759981090561 -0.7660444514056185 I I #
point $-1 -53.070352480329404 27.866524540526569 0.093922694275583751 #
point $-1 -33.827542588196565 19.532183413350545 10.026403934537555 #
straight-curve $-1 0 27.866524540526573 10.026403934537555 -1 0 0 I I #
vertex $-1 $372 $504 #
point $-1 -46.072406796862879 22.358396285787421 3.9349662397963203 #
vertex $-1 $376 $505 #
point $-1 -37.82548827166309 22.358396285787421 3.9349662397963203 #
coedge $-1 $468 $382 $474 $506 reversed $258 $-1 #
coedge $-1 $382 $467 $385 $472 reversed $258 $-1 #
edge $-1 $470 -31.345878713197912 $390 -12.103068821065072 $389 $507 forward 7 unknown #
vertex $-1 $506 $508 #
straight-curve $-1 -53.070352480329404 -27.866524540526584 0.093922694275562435 0 0.64278759981090561 0.7660444514056185 I I #
edge $-1 $386 -41.704271129506274 $476 -33.36993000233025 $385 $509 forward 7 unknown #
point $-1 -53.070352480329404 -19.532183413350545 10.026403934537555 #
coedge $-1 $389 $388 $467 $506 forward $380 $-1 #
point $-1 -33.827542588196565 -27.866524540526573 0.093922694275575133 #
vertex $-1 $393 $510 #
straight-curve $-1 0 -27.866524540526573 10.026403934537555 1 0 0 I I #
vertex $-1 $396 $511 #
point $-1 -46.072406796862879 -22.358396285787421 3.9349662397963168 #
vertex $-1 $400 $512 #
point $-1 -37.82548827166309 -22.358396285787421 3.9349662397963168 #
straight-curve $-1 -61.749931333353679 27.866524540526573 0 0 0 -1 I I #
point $-1 -61.749931333353679 -27.866524540526573 -10.026403934537555 #
straight-curve $-1 -61.749931333353679 0 -10.026403934537555 0 1 0 I I #
point $-1 -61.749931333353679 27.866524540526573 -10.026403934537555 #
coedge $-1 $423 $421 $422 $488 reversed $307 $-1 #
coedge $-1 $421 $423 $425 $490 forward $307 $-1 #
edge $-1 $428 -5.9074394423102525 $433 -2.3682874544063175 $486 $513 forward 7 unknown #
straight-curve $-1 -61.749931333353679 0 5.9074394423102525 0 1 0 I I #
edge $-1 $426 -5.9074394423102525 $435 -2.3682874544063175 $425 $514 forward 7 unknown #
point $-1 -61.749931333353679 27.866524540526573 5.9074394423102525 #
point $-1 -61.749931333353679 -27.866524540526573 5.9074394423102525 #
straight-curve $-1 -61.749931333353679 0 2.3682874544063175 0 -1 0 I I #
point $-1 -61.749931333353679 -27.866524540526573 2.3682874544063175 #
point $-1 -61.749931333353679 27.866524540526573 2.3682874544063175 #
straight-curve $-1 54.526642747655913 0 -3.6835195065821966 0 1 0 I I #
point $-1 54.526642747655913 27.866524540526573 -3.6835195065821966 #
point $-1 54.526642747655913 -27.866524540526573 -3.6835195065821966 #
straight-curve $-1 54.526642747655913 -27.866524540526573 -0.68482344675434614 0 0 -1 I I #
straight-curve $-1 -53.070352480329404 27.866524540526573 61.086048001621315 0 0 1 I I #
straight-curve $-1 -21.724473767131492 19.532183413350545 10.026403934537555 1 0 0 I I #
point $-1 -53.070352480329404 27.866524540526573 10.026403934537555 #
point $-1 -53.070352480329404 19.532183413350545 10.026403934537555 #
point $-1 -47.572406796862879 21.209329608678992 2.9707848400799617 #
point $-1 -39.32548827166309 21.209329608678992 2.9707848400799617 #
edge $-1 $476 29.712647562854869 $470 39.645128803116847 $474 $515 forward 7 unknown #
straight-curve $-1 -21.724473767131492 -27.866524540526573 0.093922694275571095 1 0 0 I I #
point $-1 -53.070352480329404 -27.866524540526573 0.093922694275575133 #
straight-curve $-1 -53.070352480329404 -61.236454542856819 10.026403934537555 0 -1 0 I I #
point $-1 -53.070352480329404 -27.866524540526573 10.026403934537555 #
point $-1 -47.572406796862879 -21.209329608678992 2.9707848400799581 #
point $-1 -39.32548827166309 -21.209329608678992 2.9707848400799581 #
straight-curve $-1 -61.749931333353679 -27.866524540526573 0 0 0 -1 I I #
straight-curve $-1 -61.749931333353679 27.866524540526573 0 0 0 -1 I I #
straight-curve $-1 -53.070352480329404 -27.866524540526569 39.739051497392424 0 0 -1 I I #
End-of-ACIS-data 