500 0 12 0           
7 Unknown 11 ACIS 5.0 NT 24 Thu Mar 25 19:01:11 1999 
-1 9.9999999999999995e-007 1e-010 
body $-1 $12 $-1 $13 #
body $-1 $14 $-1 $15 #
body $-1 $16 $-1 $17 #
body $-1 $18 $-1 $19 #
body $-1 $20 $-1 $21 #
body $-1 $22 $-1 $23 #
body $-1 $24 $-1 $25 #
body $-1 $26 $-1 $27 #
body $-1 $28 $-1 $29 #
body $-1 $30 $-1 $31 #
body $-1 $32 $-1 $33 #
body $-1 $34 $-1 $35 #
lump $-1 $-1 $36 $0 #
transform $-1 1 0 0 0 1 0 0 0 1 56.755882442701498 39.651172987764468 14.355111390095288 1 rotate no_reflect no_shear #
lump $-1 $-1 $37 $1 #
transform $-1 1 0 0 0 1 0 0 0 1 56.755882442701498 39.651172987764468 14.355111390095288 1 rotate no_reflect no_shear #
lump $-1 $-1 $38 $2 #
transform $-1 1 0 0 0 1 0 0 0 1 56.755882442701498 39.651172987764468 14.355111390095288 1 rotate no_reflect no_shear #
lump $-1 $-1 $39 $3 #
transform $-1 1 0 0 0 1 0 0 0 1 56.755882442701498 39.651172987764468 14.355111390095288 1 rotate no_reflect no_shear #
lump $-1 $-1 $40 $4 #
transform $-1 1 0 0 0 1 0 0 0 1 56.755882442701498 39.651172987764468 14.355111390095288 1 rotate no_reflect no_shear #
lump $-1 $-1 $41 $5 #
transform $-1 1 0 0 0 1 0 0 0 1 56.755882442701498 39.651172987764468 14.355111390095288 1 rotate no_reflect no_shear #
lump $-1 $-1 $42 $6 #
transform $-1 1 0 0 0 1 0 0 0 1 56.755882442701498 39.651172987764468 14.355111390095288 1 rotate no_reflect no_shear #
lump $-1 $-1 $43 $7 #
transform $-1 1 0 0 0 1 0 0 0 1 56.755882442701498 39.651172987764468 14.355111390095288 1 rotate no_reflect no_shear #
lump $-1 $-1 $44 $8 #
transform $-1 1 0 0 0 1 0 0 0 1 56.755882442701498 39.651172987764468 14.355111390095288 1 rotate no_reflect no_shear #
lump $-1 $-1 $45 $9 #
transform $-1 1 0 0 0 1 0 0 0 1 56.755882442701498 39.651172987764468 14.355111390095288 1 rotate no_reflect no_shear #
lump $-1 $-1 $46 $10 #
transform $-1 1 0 0 0 1 0 0 0 1 56.755882442701498 39.651172987764468 14.355111390095288 1 rotate no_reflect no_shear #
lump $-1 $-1 $47 $11 #
transform $-1 1 0 0 0 1 0 0 0 1 56.755882442701498 39.651172987764468 14.355111390095288 1 rotate no_reflect no_shear #
shell $-1 $-1 $-1 $48 $-1 $12 #
shell $-1 $-1 $-1 $49 $-1 $14 #
shell $-1 $-1 $-1 $50 $-1 $16 #
shell $-1 $-1 $-1 $51 $-1 $18 #
shell $-1 $-1 $-1 $52 $-1 $20 #
shell $-1 $-1 $-1 $53 $-1 $22 #
shell $-1 $-1 $-1 $54 $-1 $24 #
shell $-1 $-1 $-1 $55 $-1 $26 #
shell $-1 $-1 $-1 $56 $-1 $28 #
shell $-1 $-1 $-1 $57 $-1 $30 #
shell $-1 $-1 $-1 $58 $-1 $32 #
shell $-1 $-1 $-1 $59 $-1 $34 #
face $-1 $60 $61 $36 $-1 $62 forward single #
face $-1 $63 $64 $37 $-1 $65 forward single #
face $-1 $66 $67 $38 $-1 $68 reversed single #
face $-1 $69 $70 $39 $-1 $71 forward single #
face $-1 $72 $73 $40 $-1 $74 forward single #
face $-1 $75 $76 $41 $-1 $77 forward single #
face $-1 $78 $79 $42 $-1 $80 reversed single #
face $-1 $81 $82 $43 $-1 $83 forward single #
face $-1 $84 $85 $44 $-1 $86 forward single #
face $-1 $87 $88 $45 $-1 $89 reversed single #
face $-1 $90 $91 $46 $-1 $92 forward single #
face $-1 $93 $94 $47 $-1 $95 forward single #
face $-1 $96 $97 $36 $-1 $98 reversed single #
loop $-1 $-1 $99 $48 #
plane-surface $-1 0 0 14.355111390095288 0 0 1 1 0 0 forward_v I I I I #
face $-1 $100 $101 $37 $-1 $102 forward single #
loop $-1 $-1 $103 $49 #
plane-surface $-1 0 -39.651172987764468 0 0 1 0 0 0 1 forward_v I I I I #
face $-1 $104 $105 $38 $-1 $106 reversed single #
loop $-1 $-1 $107 $50 #
plane-surface $-1 -148.58883022544015 -13.674970677981904 71.75058377996767 0 1 0 -0.80901700255871778 0 0.5877852410284794 forward_v I I I I #
face $-1 $108 $109 $39 $-1 $110 forward single #
loop $-1 $111 $112 $51 #
cone-surface $-1 -52.838962928017885 -11.47257108226939 9.3079528528010069 0.80901700255871778 0 -0.5877852410284794 0.5877852410284794 0 0.80901700255871778 1 I I 0 1 1 forward I I I I #
face $-1 $113 $114 $40 $-1 $115 forward single #
loop $-1 $116 $117 $52 #
cone-surface $-1 -52.838962928017885 -8.1689716887006192 9.3079528528010069 0.80901700255871778 0 -0.5877852410284794 0.5877852410284794 0 0.80901700255871778 1 I I 0 1 1 forward I I I I #
face $-1 $118 $119 $41 $-1 $120 forward single #
loop $-1 $121 $122 $53 #
cone-surface $-1 -52.838962928017885 -4.8653722951318485 9.3079528528010069 0.80901700255871778 0 -0.5877852410284794 0.5877852410284794 0 0.80901700255871778 1 I I 0 1 1 forward I I I I #
face $-1 $123 $124 $42 $-1 $125 reversed single #
loop $-1 $-1 $126 $54 #
plane-surface $-1 48.354399539944914 -7.8874321649222452 168.89196657447692 0 -1 0 -0.66913061440640931 0 -0.74314481823134659 forward_v I I I I #
face $-1 $127 $128 $43 $-1 $129 forward single #
loop $-1 $130 $131 $55 #
cone-surface $-1 52.783835182830671 -19.318932891217521 10.617591211675977 -0.66913061440640931 0 -0.74314481823134659 0.74314481823134659 0 -0.66913061440640931 1 I I 0 1 1 forward I I I I #
face $-1 $132 $133 $44 $-1 $134 forward single #
loop $-1 $135 $136 $56 #
cone-surface $-1 52.783835182830671 -12.460032455440356 10.617591211675977 -0.66913061440640931 0 -0.74314481823134659 0.74314481823134659 0 -0.66913061440640931 1 I I 0 1 1 forward I I I I #
face $-1 $137 $138 $45 $-1 $139 reversed single #
loop $-1 $-1 $140 $57 #
plane-surface $-1 48.354399539944914 25.436986254660649 168.89196657447692 0 -1 0 -0.66913061440640931 0 -0.74314481823134659 forward_v I I I I #
face $-1 $141 $142 $46 $-1 $143 forward single #
loop $-1 $144 $145 $58 #
cone-surface $-1 52.783835182830671 14.005485528365377 10.617591211675977 -0.66913061440640931 0 -0.74314481823134659 0.74314481823134659 0 -0.66913061440640931 1 I I 0 1 1 forward I I I I #
face $-1 $146 $147 $47 $-1 $148 forward single #
loop $-1 $149 $150 $59 #
cone-surface $-1 52.783835182830671 20.864385964142542 10.617591211675977 -0.66913061440640931 0 -0.74314481823134659 0.74314481823134659 0 -0.66913061440640931 1 I I 0 1 1 forward I I I I #
face $-1 $151 $152 $36 $-1 $153 reversed single #
loop $-1 $-1 $154 $60 #
plane-surface $-1 0 0 -14.355111390095288 0 0 1 1 0 0 forward_v I I I I #
coedge $-1 $155 $156 $157 $158 forward $61 $-1 #
face $-1 $159 $160 $37 $-1 $161 reversed single #
loop $-1 $-1 $162 $63 #
plane-surface $-1 0 0 14.355111390095288 0 0 1 1 0 0 forward_v I I I I #
coedge $-1 $163 $164 $165 $166 forward $64 $-1 #
face $-1 $167 $168 $38 $-1 $169 reversed single #
loop $-1 $-1 $170 $66 #
plane-surface $-1 -56.755882442701491 -8.1689716887006192 5.0300436972329834 -0.80901700255871778 0 0.5877852410284794 0.5877852410284794 0 0.80901700255871778 forward_v I I I I #
coedge $-1 $171 $172 $173 $174 reversed $67 $-1 #
face $-1 $-1 $175 $39 $-1 $176 forward single #
loop $-1 $177 $178 $69 #
cone-surface $-1 -51.905063940567601 -11.47257108226939 8.6294355414236392 0.80901700255871778 0 -0.5877852410284794 0.2938926205142397 0 0.40450850127935889 1 I I -0.70710678118654746 0.70710678118654746 0.5 forward I I I I #
loop $-1 $-1 $179 $51 #
coedge $-1 $112 $112 $180 $181 reversed $70 $-1 #
face $-1 $-1 $182 $40 $-1 $183 forward single #
loop $-1 $184 $185 $72 #
cone-surface $-1 -51.905063940567601 -8.1689716887006192 8.6294355414236392 0.80901700255871778 0 -0.5877852410284794 0.2938926205142397 0 0.40450850127935889 1 I I -0.70710678118654746 0.70710678118654746 0.5 forward I I I I #
loop $-1 $-1 $186 $52 #
coedge $-1 $117 $117 $187 $188 reversed $73 $-1 #
face $-1 $-1 $189 $41 $-1 $190 forward single #
loop $-1 $191 $192 $75 #
cone-surface $-1 -51.905063940567601 -4.8653722951318485 8.6294355414236392 0.80901700255871778 0 -0.5877852410284794 0.2938926205142397 0 0.40450850127935889 1 I I -0.70710678118654746 0.70710678118654746 0.5 forward I I I I #
loop $-1 $-1 $193 $53 #
coedge $-1 $122 $122 $194 $195 reversed $76 $-1 #
face $-1 $196 $197 $42 $-1 $198 reversed single #
loop $-1 $-1 $199 $78 #
plane-surface $-1 -27.599797440180673 -15.889482673328938 84.536286691594768 0.66913061440640931 0 0.74314481823134659 0.74314481823134659 0 -0.66913061440640931 forward_v I I I I #
coedge $-1 $200 $201 $202 $203 reversed $79 $-1 #
face $-1 $-1 $204 $43 $-1 $205 forward single #
loop $-1 $206 $207 $81 #
cone-surface $-1 51.683017608273978 -19.318932891217521 9.3950094634540449 -0.66913061440640931 0 -0.74314481823134659 0.3715724091156733 0 -0.33456530720320465 1 I I -0.70710678118654746 0.70710678118654746 0.5 forward I I I I #
loop $-1 $-1 $208 $55 #
coedge $-1 $131 $131 $209 $210 reversed $82 $-1 #
face $-1 $-1 $211 $44 $-1 $212 forward single #
loop $-1 $213 $214 $84 #
cone-surface $-1 51.683017608273978 -12.460032455440356 9.3950094634540449 -0.66913061440640931 0 -0.74314481823134659 0.3715724091156733 0 -0.33456530720320465 1 I I -0.70710678118654746 0.70710678118654746 0.5 forward I I I I #
loop $-1 $-1 $215 $56 #
coedge $-1 $136 $136 $216 $217 reversed $85 $-1 #
face $-1 $218 $219 $45 $-1 $220 reversed single #
loop $-1 $-1 $221 $87 #
plane-surface $-1 -27.599797440180673 17.434935746253956 84.536286691594768 0.66913061440640931 0 0.74314481823134659 0.74314481823134659 0 -0.66913061440640931 forward_v I I I I #
coedge $-1 $222 $223 $224 $225 reversed $88 $-1 #
face $-1 $-1 $226 $46 $-1 $227 forward single #
loop $-1 $228 $229 $90 #
cone-surface $-1 51.683017608273978 14.005485528365377 9.3950094634540449 -0.66913061440640931 0 -0.74314481823134659 0.3715724091156733 0 -0.33456530720320465 1 I I -0.70710678118654746 0.70710678118654746 0.5 forward I I I I #
loop $-1 $-1 $230 $58 #
coedge $-1 $145 $145 $231 $232 reversed $91 $-1 #
face $-1 $-1 $233 $47 $-1 $234 forward single #
loop $-1 $235 $236 $93 #
cone-surface $-1 51.683017608273978 20.864385964142542 9.3950094634540449 -0.66913061440640931 0 -0.74314481823134659 0.3715724091156733 0 -0.33456530720320465 1 I I -0.70710678118654746 0.70710678118654746 0.5 forward I I I I #
loop $-1 $-1 $237 $59 #
coedge $-1 $150 $150 $238 $239 reversed $94 $-1 #
face $-1 $240 $241 $36 $-1 $242 reversed single #
loop $-1 $-1 $243 $96 #
plane-surface $-1 0 -39.651172987764468 0 0 1 0 0 0 1 forward_v I I I I #
coedge $-1 $244 $245 $246 $247 forward $97 $-1 #
coedge $-1 $248 $99 $249 $250 forward $61 $-1 #
coedge $-1 $99 $248 $251 $252 forward $61 $-1 #
coedge $-1 $253 $254 $99 $158 reversed $255 $-1 #
edge $-1 $256 -39.651172987764468 $257 39.651172987764468 $157 $258 forward 7 unknown #
face $-1 $259 $260 $37 $-1 $261 reversed single #
loop $-1 $-1 $262 $100 #
plane-surface $-1 -56.755882442701498 0 0 1 0 0 0 0 -1 forward_v I I I I #
coedge $-1 $263 $264 $265 $266 forward $101 $-1 #
coedge $-1 $265 $103 $262 $267 reversed $64 $-1 #
coedge $-1 $103 $265 $268 $269 reversed $64 $-1 #
coedge $-1 $270 $271 $103 $166 reversed $260 $-1 #
edge $-1 $272 -56.755882442701498 $273 56.755882442701498 $165 $274 forward 7 unknown #
face $-1 $275 $276 $38 $-1 $277 forward single #
loop $-1 $-1 $278 $104 #
plane-surface $-1 -148.58883022544015 -2.6629726994193348 71.75058377996767 0 -1 0 0.80901700255871778 0 -0.5877852410284794 forward_v I I I I #
coedge $-1 $279 $280 $281 $282 reversed $105 $-1 #
coedge $-1 $172 $107 $283 $284 reversed $67 $-1 #
coedge $-1 $107 $171 $279 $285 reversed $67 $-1 #
coedge $-1 $281 $286 $107 $174 forward $276 $-1 #
edge $-1 $287 17.538532670018576 $288 24.313590727043952 $173 $289 forward 7 unknown #
loop $-1 $-1 $180 $108 #
plane-surface $-1 -56.755882442701491 -8.1689716887006192 5.0300436972329834 -0.80901700255871778 0 0.5877852410284794 0.5877852410284794 0 0.80901700255871778 forward_v I I I I #
loop $-1 $-1 $290 $69 #
coedge $-1 $178 $178 $179 $291 reversed $109 $-1 #
coedge $-1 $179 $179 $178 $291 forward $111 $-1 #
coedge $-1 $180 $180 $112 $181 forward $175 $-1 #
edge $-1 $292 0 $292 6.2831853071796004 $180 $293 forward 7 unknown #
loop $-1 $-1 $187 $113 #
plane-surface $-1 -56.755882442701491 -8.1689716887006192 5.0300436972329834 -0.80901700255871778 0 0.5877852410284794 0.5877852410284794 0 0.80901700255871778 forward_v I I I I #
loop $-1 $-1 $294 $72 #
coedge $-1 $185 $185 $186 $295 reversed $114 $-1 #
coedge $-1 $186 $186 $185 $295 forward $116 $-1 #
coedge $-1 $187 $187 $117 $188 forward $182 $-1 #
edge $-1 $296 0 $296 6.2831853071796004 $187 $297 forward 7 unknown #
loop $-1 $-1 $194 $118 #
plane-surface $-1 -56.755882442701491 -8.1689716887006192 5.0300436972329834 -0.80901700255871778 0 0.5877852410284794 0.5877852410284794 0 0.80901700255871778 forward_v I I I I #
loop $-1 $-1 $298 $75 #
coedge $-1 $192 $192 $193 $299 reversed $119 $-1 #
coedge $-1 $193 $193 $192 $299 forward $121 $-1 #
coedge $-1 $194 $194 $122 $195 forward $189 $-1 #
edge $-1 $300 0 $300 6.2831853071796004 $194 $301 forward 7 unknown #
face $-1 $302 $303 $42 $-1 $304 reversed single #
loop $-1 $-1 $305 $123 #
plane-surface $-1 48.354399539944914 -23.891533181735632 168.89196657447692 0 1 0 0.66913061440640931 0 0.74314481823134659 forward_v I I I I #
coedge $-1 $306 $307 $308 $309 reversed $124 $-1 #
coedge $-1 $201 $126 $310 $311 reversed $79 $-1 #
coedge $-1 $126 $200 $306 $312 reversed $79 $-1 #
coedge $-1 $308 $313 $126 $203 forward $314 $-1 #
edge $-1 $315 -32.578682672729045 $316 -26.167092687694375 $202 $317 forward 7 unknown #
loop $-1 $-1 $209 $127 #
plane-surface $-1 -27.599797440180673 -15.889482673328938 84.536286691594768 0.66913061440640931 0 0.74314481823134659 0.74314481823134659 0 -0.66913061440640931 forward_v I I I I #
loop $-1 $-1 $318 $81 #
coedge $-1 $207 $207 $208 $319 reversed $128 $-1 #
coedge $-1 $208 $208 $207 $319 forward $130 $-1 #
coedge $-1 $209 $209 $131 $210 forward $204 $-1 #
edge $-1 $320 0 $320 6.2831853071796004 $209 $321 forward 7 unknown #
loop $-1 $-1 $216 $132 #
plane-surface $-1 -27.599797440180673 -15.889482673328938 84.536286691594768 0.66913061440640931 0 0.74314481823134659 0.74314481823134659 0 -0.66913061440640931 forward_v I I I I #
loop $-1 $-1 $322 $84 #
coedge $-1 $214 $214 $215 $323 reversed $133 $-1 #
coedge $-1 $215 $215 $214 $323 forward $135 $-1 #
coedge $-1 $216 $216 $136 $217 forward $211 $-1 #
edge $-1 $324 0 $324 6.2831853071796004 $216 $325 forward 7 unknown #
face $-1 $326 $327 $45 $-1 $328 reversed single #
loop $-1 $-1 $329 $137 #
plane-surface $-1 48.354399539944914 9.4328852378472625 168.89196657447692 0 1 0 0.66913061440640931 0 0.74314481823134659 forward_v I I I I #
coedge $-1 $330 $331 $332 $333 reversed $138 $-1 #
coedge $-1 $223 $140 $334 $335 reversed $88 $-1 #
coedge $-1 $140 $222 $330 $336 reversed $88 $-1 #
coedge $-1 $332 $337 $140 $225 forward $338 $-1 #
edge $-1 $339 -32.578682672729045 $340 -26.167092687694375 $224 $341 forward 7 unknown #
loop $-1 $-1 $231 $141 #
plane-surface $-1 -27.599797440180673 17.434935746253956 84.536286691594768 0.66913061440640931 0 0.74314481823134659 0.74314481823134659 0 -0.66913061440640931 forward_v I I I I #
loop $-1 $-1 $342 $90 #
coedge $-1 $229 $229 $230 $343 reversed $142 $-1 #
coedge $-1 $230 $230 $229 $343 forward $144 $-1 #
coedge $-1 $231 $231 $145 $232 forward $226 $-1 #
edge $-1 $344 0 $344 6.2831853071796004 $231 $345 forward 7 unknown #
loop $-1 $-1 $238 $146 #
plane-surface $-1 -27.599797440180673 17.434935746253956 84.536286691594768 0.66913061440640931 0 0.74314481823134659 0.74314481823134659 0 -0.66913061440640931 forward_v I I I I #
loop $-1 $-1 $346 $93 #
coedge $-1 $236 $236 $237 $347 reversed $147 $-1 #
coedge $-1 $237 $237 $236 $347 forward $149 $-1 #
coedge $-1 $238 $238 $150 $239 forward $233 $-1 #
edge $-1 $348 0 $348 6.2831853071796004 $238 $349 forward 7 unknown #
face $-1 $350 $351 $36 $-1 $352 reversed single #
loop $-1 $-1 $353 $151 #
plane-surface $-1 -56.755882442701498 0 0 1 0 0 0 0 -1 forward_v I I I I #
coedge $-1 $354 $251 $355 $356 forward $152 $-1 #
coedge $-1 $357 $154 $354 $358 forward $97 $-1 #
coedge $-1 $154 $357 $359 $360 forward $97 $-1 #
coedge $-1 $254 $253 $154 $247 reversed $255 $-1 #
edge $-1 $361 -39.651172987764468 $362 39.651172987764468 $246 $363 forward 7 unknown #
coedge $-1 $156 $155 $364 $365 forward $61 $-1 #
coedge $-1 $366 $367 $155 $250 reversed $351 $-1 #
edge $-1 $257 -56.755882442701498 $368 56.755882442701498 $249 $369 forward 7 unknown #
coedge $-1 $243 $370 $156 $252 reversed $152 $-1 #
edge $-1 $371 -56.755882442701498 $256 56.755882442701498 $251 $372 forward 7 unknown #
coedge $-1 $246 $157 $370 $373 forward $255 $-1 #
coedge $-1 $157 $246 $366 $374 reversed $255 $-1 #
loop $-1 $-1 $253 $350 #
vertex $-1 $158 $375 #
vertex $-1 $158 $376 #
straight-curve $-1 56.755882442701498 0 14.355111390095288 0 1 0 I I #
face $-1 $377 $378 $37 $-1 $379 reversed single #
loop $-1 $-1 $270 $159 #
plane-surface $-1 0 -45.977927555946039 9.994560661918328 0 0 1 1 0 0 forward_v I I I I #
coedge $-1 $380 $381 $163 $267 forward $160 $-1 #
coedge $-1 $382 $162 $381 $383 forward $101 $-1 #
coedge $-1 $162 $382 $384 $385 forward $101 $-1 #
coedge $-1 $164 $163 $162 $266 reversed $64 $-1 #
edge $-1 $386 -56.755882442701498 $387 56.755882442701498 $162 $388 forward 7 unknown #
edge $-1 $387 -14.355111390095288 $273 -9.994560661918328 $262 $389 forward 7 unknown #
coedge $-1 $384 $390 $164 $269 forward $391 $-1 #
edge $-1 $272 9.994560661918328 $386 14.355111390095288 $268 $392 forward 7 unknown #
coedge $-1 $393 $165 $390 $394 forward $260 $-1 #
coedge $-1 $165 $393 $380 $395 forward $260 $-1 #
vertex $-1 $269 $396 #
vertex $-1 $267 $397 #
straight-curve $-1 0 -39.651172987764468 9.994560661918328 -1 0 0 I I #
face $-1 $-1 $398 $38 $-1 $399 reversed single #
loop $-1 $-1 $173 $167 #
plane-surface $-1 0 0 14.355111390095288 0 0 1 1 0 0 forward_v I I I I #
coedge $-1 $400 $401 $402 $403 reversed $168 $-1 #
coedge $-1 $404 $170 $172 $285 forward $105 $-1 #
coedge $-1 $170 $404 $400 $405 forward $105 $-1 #
coedge $-1 $402 $173 $170 $282 forward $276 $-1 #
edge $-1 $288 -9.590484833631594 $406 1.4215131449309748 $281 $407 forward 7 unknown #
coedge $-1 $408 $409 $171 $284 forward $398 $-1 #
edge $-1 $410 -30.845248192750862 $287 -21.520180499888546 $283 $411 forward 7 unknown #
edge $-1 $288 -11.526417446567198 $410 1.2080531203272332e-014 $172 $412 forward 7 unknown #
coedge $-1 $173 $402 $408 $413 forward $276 $-1 #
vertex $-1 $284 $414 #
vertex $-1 $174 $415 #
straight-curve $-1 -74.294415112720074 -13.674970677981904 14.355111390095288 1 0 0 I I #
coedge $-1 $290 $290 $-1 $416 reversed $177 $-1 #
edge $-1 $417 0 $417 6.2831853071796004 $178 $418 forward 7 unknown #
vertex $-1 $181 $419 #
ellipse-curve $-1 -53.36835341418881 -11.47257108226939 9.6925775436641324 -0.80901700255871778 0 0.5877852410284794 0.5877852410284794 0 0.80901700255871778 1 I I #
coedge $-1 $294 $294 $-1 $420 reversed $184 $-1 #
edge $-1 $421 0 $421 6.2831853071796004 $185 $422 forward 7 unknown #
vertex $-1 $188 $423 #
ellipse-curve $-1 -53.36835341418881 -8.1689716887006192 9.6925775436641324 -0.80901700255871778 0 0.5877852410284794 0.5877852410284794 0 0.80901700255871778 1 I I #
coedge $-1 $298 $298 $-1 $424 reversed $191 $-1 #
edge $-1 $425 0 $425 6.2831853071796004 $192 $426 forward 7 unknown #
vertex $-1 $195 $427 #
ellipse-curve $-1 -53.36835341418881 -4.8653722951318485 9.6925775436641324 -0.80901700255871778 0 0.5877852410284794 0.5877852410284794 0 0.80901700255871778 1 I I #
face $-1 $-1 $314 $42 $-1 $428 forward single #
loop $-1 $-1 $429 $196 #
plane-surface $-1 56.755882442701498 0 0 -1 0 0 0 0 1 forward_v I I I I #
coedge $-1 $430 $431 $432 $433 reversed $197 $-1 #
coedge $-1 $434 $199 $201 $312 forward $124 $-1 #
coedge $-1 $199 $434 $430 $435 forward $124 $-1 #
coedge $-1 $432 $202 $199 $309 forward $314 $-1 #
edge $-1 $316 -0.057309171742224052 $436 15.946791845071163 $308 $437 forward 7 unknown #
coedge $-1 $438 $439 $200 $311 forward $303 $-1 #
edge $-1 $440 -75.863893575769282 $315 -70.090871897143174 $310 $441 forward 7 unknown #
edge $-1 $316 104.88411946859989 $440 113.51176488540301 $201 $442 forward 7 unknown #
coedge $-1 $202 $432 $438 $443 forward $314 $-1 #
loop $-1 $-1 $432 $302 #
vertex $-1 $311 $444 #
vertex $-1 $203 $445 #
straight-curve $-1 24.177199769972457 -7.8874321649222452 14.355111390095288 -1 0 0 I I #
coedge $-1 $318 $318 $-1 $446 reversed $206 $-1 #
edge $-1 $447 0 $447 6.2831853071796004 $207 $448 forward 7 unknown #
vertex $-1 $210 $449 #
ellipse-curve $-1 53.550087450184158 -19.318932891217521 11.468600550782234 0.66913061440640931 0 0.74314481823134659 0.74314481823134659 0 -0.66913061440640931 1 I I #
coedge $-1 $322 $322 $-1 $450 reversed $213 $-1 #
edge $-1 $451 0 $451 6.2831853071796004 $214 $452 forward 7 unknown #
vertex $-1 $217 $453 #
ellipse-curve $-1 53.550087450184158 -12.460032455440356 11.468600550782234 0.66913061440640931 0 0.74314481823134659 0.74314481823134659 0 -0.66913061440640931 1 I I #
face $-1 $-1 $338 $45 $-1 $454 forward single #
loop $-1 $-1 $455 $218 #
plane-surface $-1 56.755882442701498 0 0 -1 0 0 0 0 1 forward_v I I I I #
coedge $-1 $456 $457 $458 $459 reversed $219 $-1 #
coedge $-1 $460 $221 $223 $336 forward $138 $-1 #
coedge $-1 $221 $460 $456 $461 forward $138 $-1 #
coedge $-1 $458 $224 $221 $333 forward $338 $-1 #
edge $-1 $340 -16.719518381533671 $462 -0.71541736472028461 $332 $463 forward 7 unknown #
coedge $-1 $464 $465 $222 $335 forward $327 $-1 #
edge $-1 $466 -75.863893575769282 $339 -70.090871897143174 $334 $467 forward 7 unknown #
edge $-1 $340 104.88411946859989 $466 113.51176488540301 $223 $468 forward 7 unknown #
coedge $-1 $224 $458 $464 $469 forward $338 $-1 #
loop $-1 $-1 $458 $326 #
vertex $-1 $335 $470 #
vertex $-1 $225 $471 #
straight-curve $-1 24.177199769972457 25.436986254660649 14.355111390095288 -1 0 0 I I #
coedge $-1 $342 $342 $-1 $472 reversed $228 $-1 #
edge $-1 $473 0 $473 6.2831853071796004 $229 $474 forward 7 unknown #
vertex $-1 $232 $475 #
ellipse-curve $-1 53.550087450184158 14.005485528365377 11.468600550782234 0.66913061440640931 0 0.74314481823134659 0.74314481823134659 0 -0.66913061440640931 1 I I #
coedge $-1 $346 $346 $-1 $476 reversed $235 $-1 #
edge $-1 $477 0 $477 6.2831853071796004 $236 $478 forward 7 unknown #
vertex $-1 $239 $479 #
ellipse-curve $-1 53.550087450184158 20.864385964142542 11.468600550782234 0.66913061440640931 0 0.74314481823134659 0.74314481823134659 0 -0.66913061440640931 1 I I #
face $-1 $-1 $255 $36 $-1 $480 reversed single #
loop $-1 $-1 $366 $240 #
plane-surface $-1 0 39.651172987764468 0 0 -1 0 0 0 -1 forward_v I I I I #
coedge $-1 $481 $364 $367 $482 forward $241 $-1 #
coedge $-1 $370 $243 $244 $358 reversed $152 $-1 #
coedge $-1 $364 $481 $243 $356 reversed $241 $-1 #
edge $-1 $371 -14.355111390095288 $483 14.355111390095288 $355 $484 forward 7 unknown #
coedge $-1 $245 $244 $481 $485 forward $97 $-1 #
edge $-1 $362 -56.755882442701498 $483 56.755882442701498 $354 $486 forward 7 unknown #
coedge $-1 $367 $366 $245 $360 reversed $351 $-1 #
edge $-1 $487 -56.755882442701498 $361 56.755882442701498 $359 $488 forward 7 unknown #
vertex $-1 $247 $489 #
vertex $-1 $373 $490 #
straight-curve $-1 56.755882442701498 0 -14.355111390095288 0 -1 0 I I #
coedge $-1 $353 $355 $248 $365 reversed $241 $-1 #
edge $-1 $368 -39.651172987764468 $371 39.651172987764468 $364 $491 forward 7 unknown #
coedge $-1 $359 $249 $254 $374 forward $351 $-1 #
coedge $-1 $249 $359 $353 $482 reversed $351 $-1 #
vertex $-1 $250 $492 #
straight-curve $-1 0 39.651172987764468 14.355111390095288 -1 0 0 I I #
coedge $-1 $251 $354 $253 $373 reversed $152 $-1 #
vertex $-1 $365 $493 #
straight-curve $-1 0 -39.651172987764468 14.355111390095288 1 0 0 I I #
edge $-1 $256 -14.355111390095288 $362 14.355111390095288 $253 $494 forward 7 unknown #
edge $-1 $257 -14.355111390095288 $361 14.355111390095288 $254 $495 forward 7 unknown #
point $-1 56.755882442701498 -39.651172987764468 14.355111390095288 #
point $-1 56.755882442701498 39.651172987764468 14.355111390095288 #
face $-1 $-1 $391 $37 $-1 $496 reversed single #
loop $-1 $-1 $497 $259 #
plane-surface $-1 0 -52.304682124127609 12.174836026006808 0 1 0 0 0 1 forward_v I I I I #
coedge $-1 $498 $262 $271 $395 reversed $160 $-1 #
coedge $-1 $262 $498 $263 $383 reversed $160 $-1 #
coedge $-1 $264 $263 $499 $500 forward $101 $-1 #
edge $-1 $387 39.651172987764468 $501 52.304682124127609 $381 $502 forward 7 unknown #
coedge $-1 $503 $268 $264 $385 reversed $391 $-1 #
edge $-1 $504 -52.304682124127609 $386 -39.651172987764468 $384 $505 forward 7 unknown #
vertex $-1 $269 $506 #
vertex $-1 $383 $507 #
straight-curve $-1 0 -39.651172987764468 14.355111390095288 -1 0 0 I I #
straight-curve $-1 -56.755882442701498 -39.651172987764468 0 0 0 -1 I I #
coedge $-1 $268 $503 $270 $394 reversed $391 $-1 #
loop $-1 $-1 $268 $377 #
straight-curve $-1 56.755882442701498 -39.651172987764468 0 0 0 1 I I #
coedge $-1 $271 $270 $508 $509 forward $260 $-1 #
edge $-1 $272 -6.3267545681815704 $510 6.3267545681815704 $390 $511 forward 7 unknown #
edge $-1 $512 -6.3267545681815704 $273 6.3267545681815704 $380 $513 forward 7 unknown #
point $-1 56.755882442701498 -39.651172987764468 9.994560661918328 #
point $-1 -56.755882442701498 -39.651172987764468 9.994560661918328 #
loop $-1 $-1 $283 $275 #
plane-surface $-1 -56.755882442701498 0 0 1 0 0 0 0 -1 forward_v I I I I #
coedge $-1 $401 $278 $280 $405 reversed $168 $-1 #
coedge $-1 $278 $400 $514 $515 reversed $168 $-1 #
coedge $-1 $286 $281 $278 $403 forward $276 $-1 #
edge $-1 $406 -24.313590727043952 $516 -17.538532670018576 $402 $517 forward 7 unknown #
coedge $-1 $280 $279 $409 $518 reversed $105 $-1 #
edge $-1 $519 -1.2080531203272332e-014 $406 11.526417446567198 $400 $520 forward 7 unknown #
vertex $-1 $282 $521 #
straight-curve $-1 -49.980824385676115 -4.0844858443503096 14.355111390095288 0 1 0 I I #
coedge $-1 $514 $283 $286 $413 reversed $398 $-1 #
coedge $-1 $283 $514 $404 $518 forward $398 $-1 #
vertex $-1 $284 $522 #
straight-curve $-1 -56.755882442701498 -13.674970677981904 35.875291889983835 0 0 1 I I #
straight-curve $-1 -56.755882442701491 -13.674970677981904 5.0300436972329834 -0.5877852410284794 0 -0.80901700255871778 I I #
edge $-1 $516 2.6629726994193348 $287 13.674970677981904 $408 $523 forward 7 unknown #
point $-1 -56.755882442701498 -13.674970677981904 14.355111390095288 #
point $-1 -49.980824385676122 -13.674970677981904 14.355111390095288 #
edge $-1 $524 1 $524 0 $290 $-1 forward 7 unknown #
vertex $-1 $291 $525 #
ellipse-curve $-1 -52.30957244184696 -11.47257108226939 8.9233281619378797 -0.80901700255871778 0 0.5877852410284794 0.5877852410284794 0 0.80901700255871778 1 I I #
point $-1 -52.780568173160333 -11.47257108226939 10.501594546222853 #
edge $-1 $526 1 $526 0 $294 $-1 forward 7 unknown #
vertex $-1 $295 $527 #
ellipse-curve $-1 -52.30957244184696 -8.1689716887006192 8.9233281619378797 -0.80901700255871778 0 0.5877852410284794 0.5877852410284794 0 0.80901700255871778 1 I I #
point $-1 -52.780568173160333 -8.1689716887006192 10.501594546222853 #
edge $-1 $528 1 $528 0 $298 $-1 forward 7 unknown #
vertex $-1 $299 $529 #
ellipse-curve $-1 -52.30957244184696 -4.8653722951318485 8.9233281619378797 -0.80901700255871778 0 0.5877852410284794 0.5877852410284794 0 0.80901700255871778 1 I I #
point $-1 -52.780568173160333 -4.8653722951318485 10.501594546222853 #
plane-surface $-1 0 0 14.355111390095288 0 0 1 1 0 0 forward_v I I I I #
coedge $-1 $439 $438 $431 $530 forward $303 $-1 #
coedge $-1 $431 $305 $307 $435 reversed $197 $-1 #
coedge $-1 $305 $430 $429 $530 reversed $197 $-1 #
coedge $-1 $313 $308 $305 $433 forward $314 $-1 #
edge $-1 $436 26.167092687694375 $531 32.578682672729045 $432 $532 forward 7 unknown #
coedge $-1 $307 $306 $439 $533 reversed $124 $-1 #
edge $-1 $534 -113.51176488540301 $436 -104.88411946859989 $430 $535 forward 7 unknown #
vertex $-1 $309 $536 #
straight-curve $-1 50.344292457666839 -7.9447413366644692 14.355111390095281 0 -1 0 I I #
coedge $-1 $429 $310 $313 $443 reversed $303 $-1 #
coedge $-1 $310 $429 $434 $533 forward $303 $-1 #
vertex $-1 $311 $537 #
straight-curve $-1 56.755882442701498 -7.8874321649222452 84.445983287238462 0 0 1 I I #
straight-curve $-1 -27.599797440180673 -7.8874321649222452 84.536286691594768 0.74314481823134659 0 -0.66913061440640931 I I #
edge $-1 $531 -23.891533181735632 $315 -7.8874321649222452 $438 $538 forward 7 unknown #
point $-1 56.755882442701498 -7.8874321649222452 14.355111390095288 #
point $-1 50.344292457666832 -7.8874321649222452 14.355111390095288 #
edge $-1 $539 1 $539 0 $318 $-1 forward 7 unknown #
vertex $-1 $319 $540 #
ellipse-curve $-1 52.017582915477185 -19.318932891217521 9.7665818725697182 0.66913061440640931 0 0.74314481823134659 0.74314481823134659 0 -0.66913061440640931 1 I I #
point $-1 54.293232268415501 -19.318932891217521 10.799469936375829 #
edge $-1 $541 1 $541 0 $322 $-1 forward 7 unknown #
vertex $-1 $323 $542 #
ellipse-curve $-1 52.017582915477185 -12.460032455440356 9.7665818725697182 0.66913061440640931 0 0.74314481823134659 0.74314481823134659 0 -0.66913061440640931 1 I I #
point $-1 54.293232268415501 -12.460032455440356 10.799469936375829 #
plane-surface $-1 0 0 14.355111390095288 0 0 1 1 0 0 forward_v I I I I #
coedge $-1 $465 $464 $457 $543 forward $327 $-1 #
coedge $-1 $457 $329 $331 $461 reversed $219 $-1 #
coedge $-1 $329 $456 $455 $543 reversed $219 $-1 #
coedge $-1 $337 $332 $329 $459 forward $338 $-1 #
edge $-1 $462 26.167092687694375 $544 32.578682672729045 $458 $545 forward 7 unknown #
coedge $-1 $331 $330 $465 $546 reversed $138 $-1 #
edge $-1 $547 -113.51176488540301 $462 -104.88411946859989 $456 $548 forward 7 unknown #
vertex $-1 $333 $549 #
straight-curve $-1 50.344292457666839 8.7174678731269779 14.355111390095281 0 -1 0 I I #
coedge $-1 $455 $334 $337 $469 reversed $327 $-1 #
coedge $-1 $334 $455 $460 $546 forward $327 $-1 #
vertex $-1 $335 $550 #
straight-curve $-1 56.755882442701498 25.436986254660649 84.445983287238462 0 0 1 I I #
straight-curve $-1 -27.599797440180673 25.436986254660649 84.536286691594768 0.74314481823134659 0 -0.66913061440640931 I I #
edge $-1 $544 9.4328852378472625 $339 25.436986254660649 $464 $551 forward 7 unknown #
point $-1 56.755882442701498 25.436986254660649 14.355111390095288 #
point $-1 50.344292457666832 25.436986254660649 14.355111390095288 #
edge $-1 $552 1 $552 0 $342 $-1 forward 7 unknown #
vertex $-1 $343 $553 #
ellipse-curve $-1 52.017582915477185 14.005485528365377 9.7665818725697182 0.66913061440640931 0 0.74314481823134659 0.74314481823134659 0 -0.66913061440640931 1 I I #
point $-1 54.293232268415501 14.005485528365377 10.799469936375829 #
edge $-1 $554 1 $554 0 $346 $-1 forward 7 unknown #
vertex $-1 $347 $555 #
ellipse-curve $-1 52.017582915477185 20.864385964142542 9.7665818725697182 0.66913061440640931 0 0.74314481823134659 0.74314481823134659 0 -0.66913061440640931 1 I I #
point $-1 54.293232268415501 20.864385964142542 10.799469936375829 #
plane-surface $-1 56.755882442701498 0 0 -1 0 0 0 0 1 forward_v I I I I #
coedge $-1 $355 $353 $357 $485 reversed $241 $-1 #
edge $-1 $368 -14.355111390095288 $487 14.355111390095288 $367 $556 forward 7 unknown #
vertex $-1 $485 $557 #
straight-curve $-1 -56.755882442701498 -39.651172987764468 0 0 0 -1 I I #
edge $-1 $483 -39.651172987764468 $487 39.651172987764468 $481 $558 forward 7 unknown #
straight-curve $-1 0 -39.651172987764468 -14.355111390095288 -1 0 0 I I #
vertex $-1 $360 $559 #
straight-curve $-1 0 39.651172987764468 -14.355111390095288 1 0 0 I I #
point $-1 56.755882442701498 39.651172987764468 -14.355111390095288 #
point $-1 56.755882442701498 -39.651172987764468 -14.355111390095288 #
straight-curve $-1 -56.755882442701498 0 14.355111390095288 0 -1 0 I I #
point $-1 -56.755882442701498 39.651172987764468 14.355111390095288 #
point $-1 -56.755882442701498 -39.651172987764468 14.355111390095288 #
straight-curve $-1 56.755882442701498 -39.651172987764468 0 0 0 -1 I I #
straight-curve $-1 56.755882442701498 39.651172987764468 0 0 0 -1 I I #
plane-surface $-1 56.755882442701498 0 0 -1 0 0 0 0 1 forward_v I I I I #
coedge $-1 $508 $499 $498 $560 forward $378 $-1 #
coedge $-1 $381 $380 $497 $560 reversed $160 $-1 #
coedge $-1 $497 $561 $382 $500 reversed $378 $-1 #
edge $-1 $501 -56.755882442701498 $504 56.755882442701498 $499 $562 forward 7 unknown #
vertex $-1 $383 $563 #
straight-curve $-1 -56.755882442701498 0 14.355111390095288 0 -1 0 I I #
coedge $-1 $390 $384 $561 $564 forward $391 $-1 #
vertex $-1 $385 $565 #
straight-curve $-1 56.755882442701498 0 14.355111390095288 0 1 0 I I #
point $-1 56.755882442701498 -39.651172987764468 14.355111390095288 #
point $-1 -56.755882442701498 -39.651172987764468 14.355111390095288 #
coedge $-1 $561 $497 $393 $509 reversed $378 $-1 #
edge $-1 $510 -56.755882442701498 $512 56.755882442701498 $508 $566 forward 7 unknown #
vertex $-1 $564 $567 #
straight-curve $-1 56.755882442701498 -45.977927555946039 9.994560661918328 0 -1 0 I I #
vertex $-1 $395 $568 #
straight-curve $-1 -56.755882442701498 -45.977927555946039 9.994560661918328 0 1 0 I I #
coedge $-1 $409 $408 $401 $515 forward $398 $-1 #
edge $-1 $516 21.520180499888546 $519 30.845248192750862 $514 $569 forward 7 unknown #
vertex $-1 $413 $570 #
straight-curve $-1 -74.294415112720074 -2.6629726994193348 14.355111390095288 -1 0 0 I I #
edge $-1 $519 -1.4215131449309748 $410 9.590484833631594 $409 $571 forward 7 unknown #
vertex $-1 $518 $572 #
straight-curve $-1 -56.755882442701491 -2.6629726994193348 5.0300436972329834 0.5877852410284794 0 0.80901700255871778 I I #
point $-1 -49.980824385676122 -2.6629726994193348 14.355111390095288 #
point $-1 -56.755882442701498 -13.674970677981904 5.0300436972329736 #
straight-curve $-1 -56.755882442701498 0 14.355111390095288 0 -1 0 I I #
vertex $-1 $416 $573 #
point $-1 -51.721787200818483 -11.47257108226939 9.7323451644965964 #
vertex $-1 $420 $574 #
point $-1 -51.721787200818483 -8.1689716887006192 9.7323451644965964 #
vertex $-1 $424 $575 #
point $-1 -51.721787200818483 -4.8653722951318485 9.7323451644965964 #
edge $-1 $531 70.090871897143174 $534 75.863893575769282 $429 $576 forward 7 unknown #
vertex $-1 $443 $577 #
straight-curve $-1 24.177199769972457 -23.891533181735632 14.355111390095288 1 0 0 I I #
edge $-1 $534 -15.946791845071163 $440 0.057309171742224052 $439 $578 forward 7 unknown #
vertex $-1 $533 $579 #
straight-curve $-1 -27.599797440180673 -23.891533181735632 84.536286691594768 -0.74314481823134659 0 0.66913061440640931 I I #
point $-1 50.344292457666832 -23.891533181735632 14.355111390095288 #
point $-1 56.755882442701498 -7.8874321649222452 8.5820897114691803 #
straight-curve $-1 56.755882442701498 0 14.355111390095288 0 1 0 I I #
vertex $-1 $446 $580 #
point $-1 52.760727733708528 -19.318932891217521 9.0974512581633089 #
vertex $-1 $450 $581 #
point $-1 52.760727733708528 -12.460032455440356 9.0974512581633089 #
edge $-1 $544 70.090871897143174 $547 75.863893575769282 $455 $582 forward 7 unknown #
vertex $-1 $469 $583 #
straight-curve $-1 24.177199769972457 9.4328852378472625 14.355111390095288 1 0 0 I I #
edge $-1 $547 0.71541736472028461 $466 16.719518381533671 $465 $584 forward 7 unknown #
vertex $-1 $546 $585 #
straight-curve $-1 -27.599797440180673 9.4328852378472625 84.536286691594768 -0.74314481823134659 0 0.66913061440640931 I I #
point $-1 50.344292457666832 9.4328852378472625 14.355111390095288 #
point $-1 56.755882442701498 25.436986254660649 8.5820897114691803 #
straight-curve $-1 56.755882442701498 0 14.355111390095288 0 1 0 I I #
vertex $-1 $472 $586 #
point $-1 52.760727733708528 14.005485528365377 9.0974512581633089 #
vertex $-1 $476 $587 #
point $-1 52.760727733708528 20.864385964142542 9.0974512581633089 #
straight-curve $-1 -56.755882442701498 39.651172987764468 0 0 0 -1 I I #
point $-1 -56.755882442701498 -39.651172987764468 -14.355111390095288 #
straight-curve $-1 -56.755882442701498 0 -14.355111390095288 0 1 0 I I #
point $-1 -56.755882442701498 39.651172987764468 -14.355111390095288 #
edge $-1 $501 -2.1802753640884802 $512 2.1802753640884802 $498 $588 forward 7 unknown #
coedge $-1 $499 $508 $503 $564 reversed $378 $-1 #
straight-curve $-1 0 -52.304682124127609 14.355111390095288 1 0 0 I I #
point $-1 -56.755882442701498 -52.304682124127609 14.355111390095288 #
edge $-1 $504 -2.1802753640884802 $510 2.1802753640884802 $503 $589 forward 7 unknown #
point $-1 56.755882442701498 -52.304682124127609 14.355111390095288 #
straight-curve $-1 0 -52.304682124127609 9.994560661918328 -1 0 0 I I #
point $-1 56.755882442701498 -52.304682124127609 9.994560661918328 #
point $-1 -56.755882442701498 -52.304682124127609 9.994560661918328 #
straight-curve $-1 -56.755882442701498 -2.6629726994193348 35.875291889983835 0 0 -1 I I #
point $-1 -56.755882442701498 -2.6629726994193348 14.355111390095288 #
straight-curve $-1 -56.755882442701498 -4.0844858443503096 5.030043697232971 0 -1 0 I I #
point $-1 -56.755882442701498 -2.6629726994193348 5.0300436972329736 #
point $-1 -51.500555439288242 -11.47257108226939 8.3355429209093987 #
point $-1 -51.500555439288242 -8.1689716887006192 8.3355429209093987 #
point $-1 -51.500555439288242 -4.8653722951318485 8.3355429209093987 #
straight-curve $-1 56.755882442701498 -23.891533181735632 84.445983287238462 0 0 -1 I I #
point $-1 56.755882442701498 -23.891533181735632 14.355111390095288 #
straight-curve $-1 56.755882442701498 -7.9447413366644692 8.5820897114691803 0 1 0 I I #
point $-1 56.755882442701498 -23.891533181735632 8.5820897114691803 #
point $-1 51.348452301070772 -19.318932891217521 9.0234370543383715 #
point $-1 51.348452301070772 -12.460032455440356 9.0234370543383715 #
straight-curve $-1 56.755882442701498 9.4328852378472625 84.445983287238462 0 0 -1 I I #
point $-1 56.755882442701498 9.4328852378472625 14.355111390095288 #
straight-curve $-1 56.755882442701498 8.7174678731269779 8.5820897114691803 0 1 0 I I #
point $-1 56.755882442701498 9.4328852378472625 8.5820897114691803 #
point $-1 51.348452301070772 14.005485528365377 9.0234370543383715 #
point $-1 51.348452301070772 20.864385964142542 9.0234370543383715 #
straight-curve $-1 -56.755882442701498 -52.304682124127609 12.174836026006808 0 0 -1 I I #
straight-curve $-1 56.755882442701498 -52.304682124127609 12.174836026006808 0 0 -1 I I #
End-of-ACIS-data 