500 0 11 0           
7 Unknown 11 ACIS 5.0 NT 24 Thu Mar 25 19:12:14 1999 
-1 9.9999999999999995e-007 1e-010 
body $-1 $11 $-1 $12 #
body $-1 $13 $-1 $14 #
body $-1 $15 $-1 $16 #
body $-1 $17 $-1 $18 #
body $-1 $19 $-1 $20 #
body $-1 $21 $-1 $22 #
body $-1 $23 $-1 $24 #
body $-1 $25 $-1 $26 #
body $-1 $27 $-1 $28 #
body $-1 $29 $-1 $30 #
body $-1 $31 $-1 $32 #
lump $-1 $-1 $33 $0 #
transform $-1 1 0 0 0 1 0 0 0 1 66.673177282021555 45.110965534230964 15.411547977428363 1 rotate no_reflect no_shear #
lump $-1 $-1 $34 $1 #
transform $-1 1 0 0 0 1 0 0 0 1 66.673177282021555 45.110965534230964 15.411547977428363 1 rotate no_reflect no_shear #
lump $-1 $-1 $35 $2 #
transform $-1 1 0 0 0 1 0 0 0 1 66.673177282021555 45.110965534230964 15.411547977428363 1 rotate no_reflect no_shear #
lump $-1 $-1 $36 $3 #
transform $-1 1 0 0 0 1 0 0 0 1 66.673177282021555 45.110965534230964 15.411547977428363 1 rotate no_reflect no_shear #
lump $-1 $-1 $37 $4 #
transform $-1 1 0 0 0 1 0 0 0 1 66.673177282021555 45.110965534230964 15.411547977428363 1 rotate no_reflect no_shear #
lump $-1 $-1 $38 $5 #
transform $-1 1 0 0 0 1 0 0 0 1 66.673177282021555 45.110965534230964 15.411547977428363 1 rotate no_reflect no_shear #
lump $-1 $-1 $39 $6 #
transform $-1 1 0 0 0 1 0 0 0 1 66.673177282021555 45.110965534230964 15.411547977428363 1 rotate no_reflect no_shear #
lump $-1 $-1 $40 $7 #
transform $-1 1 0 0 0 1 0 0 0 1 66.673177282021555 45.110965534230964 15.411547977428363 1 rotate no_reflect no_shear #
lump $-1 $-1 $41 $8 #
transform $-1 1 0 0 0 1 0 0 0 1 66.673177282021555 45.110965534230964 15.411547977428363 1 rotate no_reflect no_shear #
lump $-1 $-1 $42 $9 #
transform $-1 1 0 0 0 1 0 0 0 1 66.673177282021555 45.110965534230964 15.411547977428363 1 rotate no_reflect no_shear #
lump $-1 $-1 $43 $10 #
transform $-1 1 0 0 0 1 0 0 0 1 66.673177282021555 45.110965534230964 15.411547977428363 1 rotate no_reflect no_shear #
shell $-1 $-1 $-1 $44 $-1 $11 #
shell $-1 $-1 $-1 $45 $-1 $13 #
shell $-1 $-1 $-1 $46 $-1 $15 #
shell $-1 $-1 $-1 $47 $-1 $17 #
shell $-1 $-1 $-1 $48 $-1 $19 #
shell $-1 $-1 $-1 $49 $-1 $21 #
shell $-1 $-1 $-1 $50 $-1 $23 #
shell $-1 $-1 $-1 $51 $-1 $25 #
shell $-1 $-1 $-1 $52 $-1 $27 #
shell $-1 $-1 $-1 $53 $-1 $29 #
shell $-1 $-1 $-1 $54 $-1 $31 #
face $-1 $55 $56 $33 $-1 $57 forward single #
face $-1 $58 $59 $34 $-1 $60 reversed single #
face $-1 $61 $62 $35 $-1 $63 reversed single #
face $-1 $64 $65 $36 $-1 $66 reversed single #
face $-1 $67 $68 $37 $-1 $69 forward single #
face $-1 $70 $71 $38 $-1 $72 reversed single #
face $-1 $73 $74 $39 $-1 $75 forward single #
face $-1 $76 $77 $40 $-1 $78 reversed single #
face $-1 $79 $80 $41 $-1 $81 forward single #
face $-1 $82 $83 $42 $-1 $84 reversed single #
face $-1 $85 $86 $43 $-1 $87 forward single #
face $-1 $88 $89 $33 $-1 $90 reversed single #
loop $-1 $-1 $91 $44 #
plane-surface $-1 0 0 15.411547977428363 0 0 1 1 0 0 forward_v I I I I #
face $-1 $92 $93 $34 $-1 $94 reversed single #
loop $-1 $-1 $95 $45 #
plane-surface $-1 -61.196854652396944 -37.371562416198074 0 0 -1 0 0 0 -1 forward_v I I I I #
face $-1 $96 $97 $35 $-1 $98 reversed single #
loop $-1 $-1 $99 $46 #
plane-surface $-1 55.720532022772339 -41.241263975214522 0 1 0 0 0 0 -1 forward_v I I I I #
face $-1 $100 $101 $36 $-1 $102 reversed single #
loop $-1 $-1 $103 $47 #
plane-surface $-1 -55.720532022772332 115.48133279469283 153.97077449803737 1 0 0 0 -0.86602541151947299 -0.49999998660252726 forward_v I I I I #
face $-1 $104 $105 $37 $-1 $106 forward single #
loop $-1 $107 $108 $48 #
cone-surface $-1 -44.033538571852006 41.274891465607851 11.11397826713994 0 -0.86602541151947299 -0.49999998660252726 1.5 0 0 1 I I 0 1 1.5 forward I I I I #
face $-1 $109 $110 $38 $-1 $111 reversed single #
loop $-1 $-1 $112 $49 #
plane-surface $-1 3.5527136788005009e-015 115.48133279469283 153.97077449803737 1 0 0 0 -0.86602541151947299 -0.49999998660252726 forward_v I I I I #
face $-1 $113 $114 $39 $-1 $115 forward single #
loop $-1 $116 $117 $50 #
cone-surface $-1 11.686993450920326 41.274891465607851 11.11397826713994 0 -0.86602541151947299 -0.49999998660252726 1.5 0 0 1 I I 0 1 1.5 forward I I I I #
face $-1 $118 $119 $40 $-1 $120 reversed single #
loop $-1 $-1 $121 $51 #
plane-surface $-1 -44.033538571852006 -45.110965534230942 9.1631140208737349 0 -0.86602541151947299 0.49999998660252726 1 0 0 forward_v I I I I #
face $-1 $122 $123 $41 $-1 $124 forward single #
loop $-1 $125 $126 $52 #
cone-surface $-1 -44.033538571852006 -41.274891465607837 11.11397826713994 0 0.86602541151947299 -0.49999998660252726 1.5 0 0 1 I I 0 1 1.5 forward I I I I #
face $-1 $127 $128 $42 $-1 $129 reversed single #
loop $-1 $-1 $130 $53 #
plane-surface $-1 3.5527136788005009e-015 -160.59229712017793 75.836289516391133 1 0 0 0 0.86602541151947299 -0.49999998660252726 forward_v I I I I #
face $-1 $131 $132 $43 $-1 $133 forward single #
loop $-1 $134 $135 $54 #
cone-surface $-1 11.686993450920326 -41.274891465607837 11.11397826713994 0 0.86602541151947299 -0.49999998660252726 1.5 0 0 1 I I 0 1 1.5 forward I I I I #
face $-1 $136 $137 $33 $-1 $138 reversed single #
loop $-1 $-1 $139 $55 #
plane-surface $-1 0 0 -15.411547977428363 0 0 1 1 0 0 forward_v I I I I #
coedge $-1 $140 $141 $142 $143 forward $56 $-1 #
face $-1 $144 $145 $34 $-1 $146 forward single #
loop $-1 $-1 $147 $58 #
plane-surface $-1 -55.720532022772332 -41.241263975214522 0 -1 0 0 0 0 1 forward_v I I I I #
coedge $-1 $148 $149 $150 $151 forward $59 $-1 #
face $-1 $152 $153 $35 $-1 $154 forward single #
loop $-1 $-1 $155 $61 #
plane-surface $-1 61.196854652396951 -37.371562416198074 0 0 -1 0 0 0 -1 forward_v I I I I #
coedge $-1 $156 $157 $158 $159 forward $62 $-1 #
face $-1 $160 $161 $36 $-1 $162 reversed single #
loop $-1 $-1 $163 $64 #
plane-surface $-1 -44.033538571852006 1.2087458429732578e-006 87.297599002519974 0 0.86602541151947299 0.49999998660252726 1 0 0 forward_v I I I I #
coedge $-1 $164 $165 $166 $167 reversed $65 $-1 #
face $-1 $-1 $168 $37 $-1 $169 forward single #
loop $-1 $170 $171 $67 #
cone-surface $-1 -44.033538571852006 38.593065787317862 9.5656255451769354 0 -0.86602541151947299 -0.49999998660252726 0.75 0 0 1 I I -0.70710678118654757 0.70710678118654757 0.75 forward I I I I #
loop $-1 $-1 $172 $48 #
coedge $-1 $108 $108 $173 $174 reversed $68 $-1 #
face $-1 $175 $176 $38 $-1 $177 reversed single #
loop $-1 $-1 $178 $70 #
plane-surface $-1 11.686993450920326 1.2087458429732578e-006 87.297599002519974 0 0.86602541151947299 0.49999998660252726 1 0 0 forward_v I I I I #
coedge $-1 $179 $180 $181 $182 reversed $71 $-1 #
face $-1 $-1 $183 $39 $-1 $184 forward single #
loop $-1 $185 $186 $73 #
cone-surface $-1 11.686993450920326 38.593065787317862 9.5656255451769354 0 -0.86602541151947299 -0.49999998660252726 0.75 0 0 1 I I -0.70710678118654757 0.70710678118654757 0.75 forward I I I I #
loop $-1 $-1 $187 $50 #
coedge $-1 $117 $117 $188 $189 reversed $74 $-1 #
face $-1 $190 $191 $40 $-1 $192 forward single #
loop $-1 $-1 $193 $76 #
plane-surface $-1 -32.34654512093168 -160.59229712017793 75.836289516391133 -1 0 0 0 -0.86602541151947299 0.49999998660252726 forward_v I I I I #
coedge $-1 $194 $195 $196 $197 reversed $77 $-1 #
face $-1 $-1 $198 $41 $-1 $199 forward single #
loop $-1 $200 $201 $79 #
cone-surface $-1 -44.033538571852006 -38.593065787317855 9.5656255451769354 0 0.86602541151947299 -0.49999998660252726 0.75 0 0 1 I I -0.70710678118654757 0.70710678118654757 0.75 forward I I I I #
loop $-1 $-1 $202 $52 #
coedge $-1 $126 $126 $203 $204 reversed $80 $-1 #
face $-1 $205 $206 $42 $-1 $207 reversed single #
loop $-1 $-1 $208 $82 #
plane-surface $-1 11.686993450920326 -45.110965534230942 9.1631140208737349 0 -0.86602541151947299 0.49999998660252726 1 0 0 forward_v I I I I #
coedge $-1 $209 $210 $211 $212 reversed $83 $-1 #
face $-1 $-1 $213 $43 $-1 $214 forward single #
loop $-1 $215 $216 $85 #
cone-surface $-1 11.686993450920326 -38.593065787317855 9.5656255451769354 0 0.86602541151947299 -0.49999998660252726 0.75 0 0 1 I I -0.70710678118654757 0.70710678118654757 0.75 forward I I I I #
loop $-1 $-1 $217 $54 #
coedge $-1 $135 $135 $218 $219 reversed $86 $-1 #
face $-1 $220 $221 $33 $-1 $222 reversed single #
loop $-1 $-1 $223 $88 #
plane-surface $-1 0 -45.110965534230964 0 0 1 0 0 0 1 forward_v I I I I #
coedge $-1 $224 $225 $226 $227 forward $89 $-1 #
coedge $-1 $228 $91 $229 $230 forward $56 $-1 #
coedge $-1 $91 $228 $231 $232 forward $56 $-1 #
coedge $-1 $233 $234 $91 $143 reversed $235 $-1 #
edge $-1 $236 -45.110965534230964 $237 45.110965534230964 $142 $238 forward 7 unknown #
face $-1 $239 $240 $34 $-1 $241 reversed single #
loop $-1 $-1 $242 $92 #
plane-surface $-1 0 0 15.411547977428363 0 0 1 1 0 0 forward_v I I I I #
coedge $-1 $243 $244 $245 $246 reversed $93 $-1 #
coedge $-1 $247 $95 $248 $249 reversed $59 $-1 #
coedge $-1 $95 $247 $250 $251 reversed $59 $-1 #
coedge $-1 $244 $243 $95 $151 reversed $93 $-1 #
edge $-1 $252 -15.411547977428363 $253 15.411547977428363 $150 $254 forward 7 unknown #
face $-1 $255 $256 $35 $-1 $257 reversed single #
loop $-1 $-1 $258 $96 #
plane-surface $-1 0 0 15.411547977428363 0 0 1 1 0 0 forward_v I I I I #
coedge $-1 $259 $260 $261 $262 reversed $97 $-1 #
coedge $-1 $263 $99 $264 $265 reversed $62 $-1 #
coedge $-1 $99 $263 $266 $267 reversed $62 $-1 #
coedge $-1 $260 $259 $99 $159 reversed $97 $-1 #
edge $-1 $268 -15.411547977428363 $269 15.411547977428363 $158 $270 forward 7 unknown #
face $-1 $271 $272 $36 $-1 $273 reversed single #
loop $-1 $-1 $274 $100 #
plane-surface $-1 -32.34654512093168 115.48133279469283 153.97077449803737 -1 0 0 0 0.86602541151947299 0.49999998660252726 forward_v I I I I #
coedge $-1 $275 $276 $277 $278 reversed $101 $-1 #
coedge $-1 $165 $103 $279 $280 reversed $65 $-1 #
coedge $-1 $103 $164 $275 $281 reversed $65 $-1 #
coedge $-1 $277 $282 $103 $167 forward $283 $-1 #
edge $-1 $284 12.629700863115453 $285 16.237235761060965 $166 $286 forward 7 unknown #
loop $-1 $-1 $173 $104 #
plane-surface $-1 -44.033538571852006 1.2087458429732578e-006 87.297599002519974 0 0.86602541151947299 0.49999998660252726 1 0 0 forward_v I I I I #
loop $-1 $-1 $287 $67 #
coedge $-1 $171 $171 $172 $288 reversed $105 $-1 #
coedge $-1 $172 $172 $171 $288 forward $107 $-1 #
coedge $-1 $173 $173 $108 $174 forward $168 $-1 #
edge $-1 $289 -7.8189819603159811e-016 $289 6.2831853071795996 $173 $290 forward 7 unknown #
face $-1 $291 $292 $38 $-1 $293 forward single #
loop $-1 $-1 $294 $109 #
plane-surface $-1 23.373986901840649 115.48133279469283 153.97077449803737 -1 0 0 0 0.86602541151947299 0.49999998660252726 forward_v I I I I #
coedge $-1 $295 $296 $297 $298 reversed $110 $-1 #
coedge $-1 $180 $112 $299 $300 reversed $71 $-1 #
coedge $-1 $112 $179 $295 $301 reversed $71 $-1 #
coedge $-1 $297 $302 $112 $182 forward $292 $-1 #
edge $-1 $303 12.629700863115453 $304 16.237235761060965 $181 $305 forward 7 unknown #
loop $-1 $-1 $188 $113 #
plane-surface $-1 11.686993450920326 1.2087458429732578e-006 87.297599002519974 0 0.86602541151947299 0.49999998660252726 1 0 0 forward_v I I I I #
loop $-1 $-1 $306 $73 #
coedge $-1 $186 $186 $187 $307 reversed $114 $-1 #
coedge $-1 $187 $187 $186 $307 forward $116 $-1 #
coedge $-1 $188 $188 $117 $189 forward $183 $-1 #
edge $-1 $308 -7.8189819603159811e-016 $308 6.2831853071795996 $188 $309 forward 7 unknown #
face $-1 $310 $311 $40 $-1 $312 forward single #
loop $-1 $-1 $313 $118 #
plane-surface $-1 0 0 15.411547977428363 0 0 1 1 0 0 forward_v I I I I #
coedge $-1 $314 $315 $316 $317 reversed $119 $-1 #
coedge $-1 $318 $121 $319 $320 reversed $77 $-1 #
coedge $-1 $121 $318 $314 $321 forward $77 $-1 #
coedge $-1 $316 $322 $121 $197 forward $323 $-1 #
edge $-1 $324 -33.703762736846329 $325 -10.329775835005677 $196 $326 forward 7 unknown #
loop $-1 $-1 $203 $122 #
plane-surface $-1 -44.033538571852006 -45.110965534230942 9.1631140208737349 0 -0.86602541151947299 0.49999998660252726 1 0 0 forward_v I I I I #
loop $-1 $-1 $327 $79 #
coedge $-1 $201 $201 $202 $328 reversed $123 $-1 #
coedge $-1 $202 $202 $201 $328 forward $125 $-1 #
coedge $-1 $203 $203 $126 $204 forward $198 $-1 #
edge $-1 $329 -6.3463101054888965e-016 $329 6.2831853071795996 $203 $330 forward 7 unknown #
face $-1 $331 $332 $42 $-1 $333 forward single #
loop $-1 $-1 $334 $127 #
plane-surface $-1 23.373986901840649 -160.59229712017793 75.836289516391133 -1 0 0 0 -0.86602541151947299 0.49999998660252726 forward_v I I I I #
coedge $-1 $335 $336 $337 $338 reversed $128 $-1 #
coedge $-1 $210 $130 $339 $340 reversed $83 $-1 #
coedge $-1 $130 $209 $335 $341 reversed $83 $-1 #
coedge $-1 $337 $342 $130 $212 forward $343 $-1 #
edge $-1 $344 22.506596780767204 $345 28.755030737321867 $211 $346 forward 7 unknown #
loop $-1 $-1 $218 $131 #
plane-surface $-1 11.686993450920326 -45.110965534230942 9.1631140208737349 0 -0.86602541151947299 0.49999998660252726 1 0 0 forward_v I I I I #
loop $-1 $-1 $347 $85 #
coedge $-1 $216 $216 $217 $348 reversed $132 $-1 #
coedge $-1 $217 $217 $216 $348 forward $134 $-1 #
coedge $-1 $218 $218 $135 $219 forward $213 $-1 #
edge $-1 $349 -6.3463101054888965e-016 $349 6.2831853071795996 $218 $350 forward 7 unknown #
face $-1 $351 $352 $33 $-1 $353 reversed single #
loop $-1 $-1 $354 $136 #
plane-surface $-1 -66.673177282021555 0 0 1 0 0 0 0 -1 forward_v I I I I #
coedge $-1 $355 $231 $356 $357 forward $137 $-1 #
coedge $-1 $358 $139 $355 $359 forward $89 $-1 #
coedge $-1 $139 $358 $360 $361 forward $89 $-1 #
coedge $-1 $234 $233 $139 $227 reversed $235 $-1 #
edge $-1 $362 -45.110965534230964 $363 45.110965534230964 $226 $364 forward 7 unknown #
coedge $-1 $141 $140 $365 $366 forward $56 $-1 #
coedge $-1 $367 $368 $140 $230 reversed $352 $-1 #
edge $-1 $237 -66.673177282021555 $369 66.673177282021555 $229 $370 forward 7 unknown #
coedge $-1 $223 $371 $141 $232 reversed $137 $-1 #
edge $-1 $372 -66.673177282021555 $236 66.673177282021555 $231 $373 forward 7 unknown #
coedge $-1 $226 $142 $371 $374 forward $235 $-1 #
coedge $-1 $142 $226 $367 $375 reversed $235 $-1 #
loop $-1 $-1 $233 $351 #
vertex $-1 $143 $376 #
vertex $-1 $143 $377 #
straight-curve $-1 66.673177282021555 0 15.411547977428363 0 1 0 I I #
face $-1 $378 $379 $34 $-1 $380 reversed single #
loop $-1 $-1 $381 $144 #
plane-surface $-1 -66.673177282021555 0 0 1 0 0 0 0 -1 forward_v I I I I #
coedge $-1 $250 $382 $244 $383 forward $145 $-1 #
coedge $-1 $150 $147 $384 $385 reversed $93 $-1 #
coedge $-1 $147 $150 $242 $383 reversed $93 $-1 #
coedge $-1 $386 $387 $147 $246 forward $388 $-1 #
edge $-1 $389 -15.411547977428363 $390 15.411547977428363 $245 $391 forward 7 unknown #
coedge $-1 $149 $148 $381 $392 reversed $59 $-1 #
coedge $-1 $384 $393 $148 $249 forward $379 $-1 #
edge $-1 $394 -36.07474995582308 $253 -25.12210469657386 $248 $395 forward 7 unknown #
coedge $-1 $396 $242 $149 $251 forward $145 $-1 #
edge $-1 $252 25.12210469657386 $397 36.07474995582308 $250 $398 forward 7 unknown #
vertex $-1 $251 $399 #
vertex $-1 $249 $400 #
straight-curve $-1 -55.720532022772332 -37.371562416198074 0 0 0 -1 I I #
face $-1 $401 $402 $35 $-1 $403 reversed single #
loop $-1 $-1 $404 $152 #
plane-surface $-1 0 -45.110965534230964 0 0 1 0 0 0 1 forward_v I I I I #
coedge $-1 $266 $405 $260 $406 forward $153 $-1 #
coedge $-1 $158 $155 $407 $408 reversed $97 $-1 #
coedge $-1 $155 $158 $258 $406 reversed $97 $-1 #
coedge $-1 $409 $410 $155 $262 forward $411 $-1 #
edge $-1 $412 -15.411547977428363 $413 15.411547977428363 $261 $414 forward 7 unknown #
coedge $-1 $157 $156 $404 $415 reversed $62 $-1 #
coedge $-1 $407 $416 $156 $265 forward $402 $-1 #
edge $-1 $417 -24.49033354662371 $269 -16.750930428590813 $264 $418 forward 7 unknown #
coedge $-1 $419 $258 $157 $267 forward $153 $-1 #
edge $-1 $268 16.750930428590813 $420 24.49033354662371 $266 $421 forward 7 unknown #
vertex $-1 $267 $422 #
vertex $-1 $265 $423 #
straight-curve $-1 55.720532022772339 -37.371562416198074 0 0 0 -1 I I #
face $-1 $-1 $283 $36 $-1 $424 forward single #
loop $-1 $-1 $425 $160 #
plane-surface $-1 0 45.110965534230964 0 0 -1 0 0 0 -1 forward_v I I I I #
coedge $-1 $426 $427 $428 $429 reversed $161 $-1 #
coedge $-1 $430 $163 $165 $281 forward $101 $-1 #
coedge $-1 $163 $430 $426 $431 forward $101 $-1 #
coedge $-1 $428 $166 $163 $278 forward $283 $-1 #
edge $-1 $285 -33.703762736846329 $432 -10.329775835005677 $277 $433 forward 7 unknown #
coedge $-1 $434 $435 $164 $280 forward $272 $-1 #
edge $-1 $436 -67.822273228145022 $284 -61.573839271590323 $279 $437 forward 7 unknown #
edge $-1 $285 83.006861079243521 $436 90.22193106846197 $165 $438 forward 7 unknown #
coedge $-1 $166 $428 $434 $439 forward $283 $-1 #
loop $-1 $-1 $428 $271 #
vertex $-1 $280 $440 #
vertex $-1 $167 $441 #
straight-curve $-1 -55.720532022772332 57.740666397346416 15.41154797742837 0 -1 0 I I #
coedge $-1 $287 $287 $-1 $442 reversed $170 $-1 #
edge $-1 $443 0 $443 6.2831853071796004 $171 $444 forward 7 unknown #
vertex $-1 $174 $445 #
ellipse-curve $-1 -44.033538571852006 43.3071980852582 12.287330999151031 0 0.86602541151947299 0.49999998660252726 1.5 0 0 1 I I #
face $-1 $-1 $446 $38 $-1 $447 reversed single #
loop $-1 $-1 $181 $175 #
plane-surface $-1 0 0 15.411547977428363 0 0 1 1 0 0 forward_v I I I I #
coedge $-1 $448 $449 $450 $451 reversed $176 $-1 #
coedge $-1 $452 $178 $180 $301 forward $110 $-1 #
coedge $-1 $178 $452 $448 $453 forward $110 $-1 #
coedge $-1 $450 $181 $178 $298 forward $292 $-1 #
edge $-1 $304 -5.8434967254601595 $454 17.530490176380486 $297 $455 forward 7 unknown #
coedge $-1 $456 $457 $179 $300 forward $446 $-1 #
edge $-1 $458 -67.822273228145022 $303 -61.573839271590323 $299 $459 forward 7 unknown #
edge $-1 $304 83.006861079243521 $458 90.22193106846197 $180 $460 forward 7 unknown #
coedge $-1 $181 $450 $456 $461 forward $292 $-1 #
vertex $-1 $182 $462 #
vertex $-1 $182 $463 #
straight-curve $-1 3.5527136788005009e-015 57.740666397346416 15.41154797742837 0 -1 0 I I #
coedge $-1 $306 $306 $-1 $464 reversed $185 $-1 #
edge $-1 $465 0 $465 6.2831853071796004 $186 $466 forward 7 unknown #
vertex $-1 $189 $467 #
ellipse-curve $-1 11.686993450920326 43.3071980852582 12.287330999151031 0 0.86602541151947299 0.49999998660252726 1.5 0 0 1 I I #
face $-1 $-1 $323 $40 $-1 $468 reversed single #
loop $-1 $-1 $319 $190 #
plane-surface $-1 -55.720532022772332 -41.241263975214522 0 -1 0 0 0 0 1 forward_v I I I I #
coedge $-1 $469 $470 $315 $471 forward $191 $-1 #
coedge $-1 $315 $193 $195 $321 reversed $119 $-1 #
coedge $-1 $193 $314 $313 $471 reversed $119 $-1 #
coedge $-1 $472 $196 $193 $317 forward $323 $-1 #
edge $-1 $325 -28.755030737321867 $473 -22.506596780767204 $316 $474 forward 7 unknown #
coedge $-1 $195 $194 $469 $475 reversed $77 $-1 #
coedge $-1 $476 $477 $194 $320 forward $311 $-1 #
edge $-1 $478 -10.215389420749879 $324 -3.0003194315314787 $319 $479 forward 7 unknown #
edge $-1 $480 -7.2150699892183585 $325 4.2963914170604875e-014 $314 $481 forward 7 unknown #
coedge $-1 $196 $472 $476 $482 forward $323 $-1 #
loop $-1 $-1 $316 $310 #
vertex $-1 $320 $483 #
vertex $-1 $197 $484 #
straight-curve $-1 -22.016769285926003 -45.110965534230964 9.1631140208737012 1 0 0 I I #
coedge $-1 $327 $327 $-1 $485 reversed $200 $-1 #
edge $-1 $486 0 $486 6.2831853071796004 $201 $487 forward 7 unknown #
vertex $-1 $204 $488 #
ellipse-curve $-1 -44.033538571852006 -43.307198085258207 12.287330999151042 0 -0.86602541151947299 0.49999998660252726 1.5 0 0 1 I I #
face $-1 $-1 $343 $42 $-1 $489 reversed single #
loop $-1 $-1 $490 $205 #
plane-surface $-1 0 0 15.411547977428363 0 0 1 1 0 0 forward_v I I I I #
coedge $-1 $491 $492 $493 $494 reversed $206 $-1 #
coedge $-1 $495 $208 $210 $341 forward $128 $-1 #
coedge $-1 $208 $495 $491 $496 forward $128 $-1 #
coedge $-1 $493 $211 $208 $338 forward $343 $-1 #
edge $-1 $345 -5.8434967254601595 $497 17.530490176380486 $337 $498 forward 7 unknown #
coedge $-1 $499 $500 $209 $340 forward $332 $-1 #
edge $-1 $501 -38.792717923803501 $344 -35.185183025858002 $339 $502 forward 7 unknown #
edge $-1 $345 -4.2963914170604875e-014 $501 7.2150699892183585 $210 $503 forward 7 unknown #
coedge $-1 $211 $493 $499 $504 reversed $343 $-1 #
loop $-1 $-1 $493 $331 #
vertex $-1 $504 $505 #
vertex $-1 $212 $506 #
straight-curve $-1 3.5527136788005009e-015 -45.110965534230964 37.918144758195567 0 0 -1 I I #
coedge $-1 $347 $347 $-1 $507 reversed $215 $-1 #
edge $-1 $508 0 $508 6.2831853071796004 $216 $509 forward 7 unknown #
vertex $-1 $219 $510 #
ellipse-curve $-1 11.686993450920326 -43.307198085258207 12.287330999151042 0 -0.86602541151947299 0.49999998660252726 1.5 0 0 1 I I #
face $-1 $-1 $235 $33 $-1 $511 reversed single #
loop $-1 $-1 $367 $220 #
plane-surface $-1 0 45.110965534230964 0 0 -1 0 0 0 -1 forward_v I I I I #
coedge $-1 $512 $365 $368 $513 forward $221 $-1 #
coedge $-1 $371 $223 $224 $359 reversed $137 $-1 #
coedge $-1 $365 $512 $223 $357 reversed $221 $-1 #
edge $-1 $372 -15.411547977428363 $514 15.411547977428363 $356 $515 forward 7 unknown #
coedge $-1 $225 $224 $512 $516 forward $89 $-1 #
edge $-1 $363 -66.673177282021555 $514 66.673177282021555 $355 $517 forward 7 unknown #
coedge $-1 $368 $367 $225 $361 reversed $352 $-1 #
edge $-1 $518 -66.673177282021555 $362 66.673177282021555 $360 $519 forward 7 unknown #
vertex $-1 $227 $520 #
vertex $-1 $374 $521 #
straight-curve $-1 66.673177282021555 0 -15.411547977428363 0 -1 0 I I #
coedge $-1 $354 $356 $228 $366 reversed $221 $-1 #
edge $-1 $369 -45.110965534230964 $372 45.110965534230964 $365 $522 forward 7 unknown #
coedge $-1 $360 $229 $234 $375 forward $352 $-1 #
coedge $-1 $229 $360 $354 $513 reversed $352 $-1 #
vertex $-1 $230 $523 #
straight-curve $-1 0 45.110965534230964 15.411547977428363 -1 0 0 I I #
coedge $-1 $231 $355 $233 $374 reversed $137 $-1 #
vertex $-1 $366 $524 #
straight-curve $-1 0 -45.110965534230964 15.411547977428363 1 0 0 I I #
edge $-1 $236 -15.411547977428363 $363 15.411547977428363 $233 $525 forward 7 unknown #
edge $-1 $237 -15.411547977428363 $362 15.411547977428363 $234 $526 forward 7 unknown #
point $-1 66.673177282021555 -45.110965534230964 15.411547977428363 #
point $-1 66.673177282021555 45.110965534230964 15.411547977428363 #
face $-1 $-1 $388 $34 $-1 $527 reversed single #
loop $-1 $-1 $384 $239 #
plane-surface $-1 0 0 -15.411547977428363 0 0 1 1 0 0 forward_v I I I I #
coedge $-1 $528 $529 $247 $392 forward $240 $-1 #
coedge $-1 $242 $396 $386 $530 forward $145 $-1 #
edge $-1 $390 -24.49033354662371 $252 -16.750930428590813 $242 $531 forward 7 unknown #
coedge $-1 $532 $248 $243 $385 forward $379 $-1 #
edge $-1 $253 16.750930428590813 $389 24.49033354662371 $384 $533 forward 7 unknown #
coedge $-1 $534 $245 $382 $530 reversed $388 $-1 #
coedge $-1 $245 $534 $532 $535 reversed $388 $-1 #
loop $-1 $-1 $245 $378 #
vertex $-1 $535 $536 #
vertex $-1 $246 $537 #
straight-curve $-1 -55.720532022772332 -45.110965534230964 0 0 0 1 I I #
edge $-1 $397 -15.411547977428363 $394 15.411547977428363 $381 $538 forward 7 unknown #
coedge $-1 $248 $532 $528 $539 forward $379 $-1 #
vertex $-1 $249 $540 #
straight-curve $-1 -30.598427326198472 -37.371562416198074 -15.411547977428363 1 0 0 I I #
coedge $-1 $382 $250 $529 $541 forward $145 $-1 #
vertex $-1 $541 $542 #
straight-curve $-1 -30.598427326198472 -37.371562416198074 15.411547977428363 -1 0 0 I I #
point $-1 -55.720532022772332 -37.371562416198074 15.411547977428363 #
point $-1 -55.720532022772332 -37.371562416198074 -15.411547977428363 #
face $-1 $-1 $411 $35 $-1 $543 reversed single #
loop $-1 $-1 $407 $255 #
plane-surface $-1 0 0 -15.411547977428363 0 0 1 1 0 0 forward_v I I I I #
coedge $-1 $544 $545 $263 $415 forward $256 $-1 #
coedge $-1 $258 $419 $409 $546 forward $153 $-1 #
edge $-1 $413 -36.07474995582308 $268 -25.122104696573864 $258 $547 forward 7 unknown #
coedge $-1 $548 $264 $259 $408 forward $402 $-1 #
edge $-1 $269 25.122104696573864 $412 36.07474995582308 $407 $549 forward 7 unknown #
coedge $-1 $550 $261 $405 $546 reversed $411 $-1 #
coedge $-1 $261 $550 $548 $551 reversed $411 $-1 #
loop $-1 $-1 $261 $401 #
vertex $-1 $551 $552 #
vertex $-1 $262 $553 #
straight-curve $-1 66.673177282021555 -37.371562416198074 0 0 0 1 I I #
edge $-1 $420 -15.411547977428363 $417 15.411547977428363 $404 $554 forward 7 unknown #
coedge $-1 $264 $548 $544 $555 forward $402 $-1 #
vertex $-1 $265 $556 #
straight-curve $-1 55.720532022772339 -20.620631987607261 -15.411547977428363 0 1 0 I I #
coedge $-1 $405 $266 $545 $557 forward $153 $-1 #
vertex $-1 $557 $558 #
straight-curve $-1 55.720532022772339 -20.620631987607261 15.411547977428363 0 -1 0 I I #
point $-1 55.720532022772339 -37.371562416198074 15.411547977428363 #
point $-1 55.720532022772339 -37.371562416198074 -15.411547977428363 #
plane-surface $-1 0 0 15.411547977428363 0 0 1 1 0 0 forward_v I I I I #
coedge $-1 $435 $434 $427 $559 forward $272 $-1 #
coedge $-1 $427 $274 $276 $431 reversed $161 $-1 #
coedge $-1 $274 $426 $425 $559 reversed $161 $-1 #
coedge $-1 $282 $277 $274 $429 forward $283 $-1 #
edge $-1 $432 -16.237235761060965 $560 -12.629700863115453 $428 $561 forward 7 unknown #
coedge $-1 $276 $275 $435 $562 reversed $101 $-1 #
edge $-1 $563 -90.22193106846197 $432 -83.006861079243521 $426 $564 forward 7 unknown #
vertex $-1 $278 $565 #
straight-curve $-1 -22.016769285926003 41.503430636285451 15.41154797742837 1 0 0 I I #
coedge $-1 $425 $279 $282 $439 reversed $272 $-1 #
coedge $-1 $279 $425 $430 $562 forward $272 $-1 #
vertex $-1 $280 $566 #
straight-curve $-1 -55.720532022772332 45.110965534230964 76.985387249018686 0 0 1 I I #
straight-curve $-1 -55.720532022772332 1.2087458429732578e-006 87.297599002519974 0 0.49999998660252726 -0.86602541151947299 I I #
edge $-1 $560 32.34654512093168 $284 55.720532022772332 $434 $567 forward 7 unknown #
point $-1 -55.720532022772332 45.110965534230964 15.411547977428363 #
point $-1 -55.720532022772332 41.503430636285451 15.41154797742837 #
edge $-1 $568 1 $568 0 $287 $-1 forward 7 unknown #
vertex $-1 $288 $569 #
ellipse-curve $-1 -44.033538571852006 39.242584845957467 9.9406255351288308 0 0.86602541151947299 0.49999998660252726 1.5 0 0 1 I I #
point $-1 -42.533538571852006 43.307198085258229 12.287330999151049 #
loop $-1 $-1 $299 $291 #
plane-surface $-1 0 45.110965534230964 0 0 -1 0 0 0 -1 forward_v I I I I #
coedge $-1 $449 $294 $296 $453 reversed $176 $-1 #
coedge $-1 $294 $448 $570 $571 reversed $176 $-1 #
coedge $-1 $302 $297 $294 $451 forward $292 $-1 #
edge $-1 $454 -16.237235761060965 $572 -12.629700863115453 $450 $573 forward 7 unknown #
coedge $-1 $296 $295 $457 $574 reversed $110 $-1 #
edge $-1 $575 -90.22193106846197 $454 -83.006861079243521 $448 $576 forward 7 unknown #
vertex $-1 $298 $577 #
straight-curve $-1 5.8434967254601631 41.503430636285451 15.41154797742837 1 0 0 I I #
coedge $-1 $570 $299 $302 $461 reversed $446 $-1 #
coedge $-1 $299 $570 $452 $574 forward $446 $-1 #
vertex $-1 $300 $578 #
straight-curve $-1 3.5527136788005009e-015 45.110965534230964 76.985387249018686 0 0 1 I I #
straight-curve $-1 3.5527136788005009e-015 1.2087458429732578e-006 87.297599002519974 0 0.49999998660252726 -0.86602541151947299 I I #
edge $-1 $572 -23.373986901840649 $303 -3.5527136788005009e-015 $456 $579 forward 7 unknown #
point $-1 3.5527136788005009e-015 45.110965534230964 15.411547977428363 #
point $-1 3.5527136788005009e-015 41.503430636285451 15.41154797742837 #
edge $-1 $580 1 $580 0 $306 $-1 forward 7 unknown #
vertex $-1 $307 $581 #
ellipse-curve $-1 11.686993450920326 39.242584845957467 9.9406255351288308 0 0.86602541151947299 0.49999998660252726 1.5 0 0 1 I I #
point $-1 13.186993450920326 43.307198085258229 12.287330999151049 #
plane-surface $-1 0 -45.110965534230964 0 0 1 0 0 0 1 forward_v I I I I #
coedge $-1 $582 $313 $318 $475 forward $191 $-1 #
coedge $-1 $313 $582 $472 $583 forward $191 $-1 #
edge $-1 $473 35.185183025858002 $480 38.792717923803501 $313 $584 forward 7 unknown #
coedge $-1 $322 $316 $470 $583 reversed $323 $-1 #
vertex $-1 $471 $585 #
straight-curve $-1 -32.34654512093168 -45.110965534230964 37.918144758195567 0 0 1 I I #
edge $-1 $480 10.329775835005677 $478 33.703762736846329 $469 $586 forward 7 unknown #
coedge $-1 $477 $319 $322 $482 reversed $311 $-1 #
coedge $-1 $319 $476 $582 $587 reversed $311 $-1 #
vertex $-1 $587 $588 #
straight-curve $-1 -55.720532022772332 -46.611125209800008 6.5647611504917789 0 -0.49999998660252726 -0.86602541151947299 I I #
vertex $-1 $475 $589 #
straight-curve $-1 -32.34654512093168 -45.110965534230942 9.1631140208737349 0 -0.49999998660252726 -0.86602541151947299 I I #
edge $-1 $590 -15.411547977428363 $324 -9.1631140208736976 $322 $591 forward 7 unknown #
point $-1 -55.720532022772332 -45.110965534230964 9.1631140208736976 #
point $-1 -32.34654512093168 -45.110965534230964 9.1631140208736976 #
edge $-1 $592 1 $592 0 $327 $-1 forward 7 unknown #
vertex $-1 $328 $593 #
ellipse-curve $-1 -44.033538571852006 -39.24258484595746 9.9406255351288308 0 -0.86602541151947299 0.49999998660252726 1.5 0 0 1 I I #
point $-1 -42.533538571852006 -43.307198085258221 12.287330999151049 #
plane-surface $-1 0 -45.110965534230964 0 0 1 0 0 0 1 forward_v I I I I #
coedge $-1 $500 $499 $492 $594 forward $332 $-1 #
coedge $-1 $492 $334 $336 $496 reversed $206 $-1 #
coedge $-1 $334 $491 $490 $594 reversed $206 $-1 #
coedge $-1 $342 $337 $334 $494 forward $343 $-1 #
edge $-1 $497 -28.755030737321867 $595 -22.506596780767204 $493 $596 forward 7 unknown #
coedge $-1 $336 $335 $500 $597 reversed $128 $-1 #
edge $-1 $598 -7.2150699892183585 $497 4.2963914170604875e-014 $491 $599 forward 7 unknown #
vertex $-1 $338 $600 #
straight-curve $-1 5.8434967254601631 -45.110965534230964 9.1631140208737012 1 0 0 I I #
coedge $-1 $490 $339 $342 $504 forward $332 $-1 #
coedge $-1 $339 $490 $495 $597 forward $332 $-1 #
vertex $-1 $340 $601 #
straight-curve $-1 3.5527136788005009e-015 -80.296148560088966 15.411547977428363 0 -1 0 I I #
straight-curve $-1 3.5527136788005009e-015 -45.110965534230942 9.1631140208737349 0 0.49999998660252726 0.86602541151947299 I I #
edge $-1 $344 3.5527136788005009e-015 $595 23.373986901840649 $342 $602 forward 7 unknown #
point $-1 3.5527136788005009e-015 -45.110965534230964 15.411547977428363 #
point $-1 3.5527136788005009e-015 -45.110965534230964 9.1631140208736976 #
edge $-1 $603 1 $603 0 $347 $-1 forward 7 unknown #
vertex $-1 $348 $604 #
ellipse-curve $-1 11.686993450920326 -39.24258484595746 9.9406255351288308 0 -0.86602541151947299 0.49999998660252726 1.5 0 0 1 I I #
point $-1 13.186993450920326 -43.307198085258221 12.287330999151049 #
plane-surface $-1 66.673177282021555 0 0 -1 0 0 0 0 1 forward_v I I I I #
coedge $-1 $356 $354 $358 $516 reversed $221 $-1 #
edge $-1 $369 -15.411547977428363 $518 15.411547977428363 $368 $605 forward 7 unknown #
vertex $-1 $516 $606 #
straight-curve $-1 -66.673177282021555 -45.110965534230964 0 0 0 -1 I I #
edge $-1 $514 -45.110965534230964 $518 45.110965534230964 $512 $607 forward 7 unknown #
straight-curve $-1 0 -45.110965534230964 -15.411547977428363 -1 0 0 I I #
vertex $-1 $361 $608 #
straight-curve $-1 0 45.110965534230964 -15.411547977428363 1 0 0 I I #
point $-1 66.673177282021555 45.110965534230964 -15.411547977428363 #
point $-1 66.673177282021555 -45.110965534230964 -15.411547977428363 #
straight-curve $-1 -66.673177282021555 0 15.411547977428363 0 -1 0 I I #
point $-1 -66.673177282021555 45.110965534230964 15.411547977428363 #
point $-1 -66.673177282021555 -45.110965534230964 15.411547977428363 #
straight-curve $-1 66.673177282021555 -45.110965534230964 0 0 0 -1 I I #
straight-curve $-1 66.673177282021555 45.110965534230964 0 0 0 -1 I I #
plane-surface $-1 0 -45.110965534230964 0 0 1 0 0 0 1 forward_v I I I I #
coedge $-1 $609 $381 $393 $539 reversed $240 $-1 #
coedge $-1 $381 $609 $396 $541 reversed $240 $-1 #
edge $-1 $610 -66.673177282021555 $390 -55.720532022772332 $386 $611 forward 7 unknown #
straight-curve $-1 -55.720532022772332 -20.620631987607261 15.411547977428363 0 1 0 I I #
coedge $-1 $393 $384 $387 $535 forward $379 $-1 #
straight-curve $-1 -55.720532022772332 -20.620631987607261 -15.411547977428363 0 -1 0 I I #
coedge $-1 $387 $386 $609 $612 forward $388 $-1 #
edge $-1 $389 55.720532022772332 $613 66.673177282021555 $387 $614 forward 7 unknown #
point $-1 -55.720532022772332 -45.110965534230971 -15.411547977428363 #
point $-1 -55.720532022772332 -45.110965534230971 15.411547977428363 #
straight-curve $-1 -66.673177282021555 -37.371562416198074 0 0 0 -1 I I #
edge $-1 $613 -45.110965534230964 $394 -37.371562416198074 $528 $615 forward 7 unknown #
point $-1 -66.673177282021555 -37.371562416198074 -15.411547977428363 #
edge $-1 $397 37.371562416198074 $610 45.110965534230964 $529 $616 forward 7 unknown #
point $-1 -66.673177282021555 -37.371562416198074 15.411547977428363 #
plane-surface $-1 66.673177282021555 0 0 -1 0 0 0 0 1 forward_v I I I I #
coedge $-1 $617 $404 $416 $555 reversed $256 $-1 #
coedge $-1 $404 $617 $419 $557 reversed $256 $-1 #
edge $-1 $618 -45.110965534230964 $413 -37.371562416198074 $409 $619 forward 7 unknown #
straight-curve $-1 30.598427326198475 -37.371562416198074 15.411547977428363 -1 0 0 I I #
coedge $-1 $416 $407 $410 $551 forward $402 $-1 #
straight-curve $-1 30.598427326198475 -37.371562416198074 -15.411547977428363 1 0 0 I I #
coedge $-1 $410 $409 $617 $620 forward $411 $-1 #
edge $-1 $412 37.371562416198074 $621 45.110965534230964 $410 $622 forward 7 unknown #
point $-1 66.673177282021555 -37.371562416198074 -15.411547977428363 #
point $-1 66.673177282021555 -37.371562416198074 15.411547977428363 #
straight-curve $-1 55.720532022772339 -45.110965534230964 0 0 0 -1 I I #
edge $-1 $621 -66.673177282021555 $417 -55.720532022772339 $544 $623 forward 7 unknown #
point $-1 55.720532022772339 -45.110965534230971 -15.411547977428363 #
edge $-1 $420 55.720532022772339 $618 66.673177282021555 $545 $624 forward 7 unknown #
point $-1 55.720532022772339 -45.110965534230971 15.411547977428363 #
edge $-1 $560 61.573839271590323 $563 67.822273228145022 $425 $625 forward 7 unknown #
vertex $-1 $439 $626 #
straight-curve $-1 -32.34654512093168 57.740666397346416 15.41154797742837 0 1 0 I I #
edge $-1 $563 10.329775835005677 $436 33.703762736846329 $435 $627 forward 7 unknown #
vertex $-1 $562 $628 #
straight-curve $-1 -32.34654512093168 1.2087458429732578e-006 87.297599002519974 0 -0.49999998660252726 0.86602541151947299 I I #
point $-1 -32.34654512093168 41.503430636285451 15.41154797742837 #
point $-1 -55.720532022772332 45.110965534230964 9.1631140208736639 #
straight-curve $-1 0 45.110965534230964 15.411547977428363 -1 0 0 I I #
vertex $-1 $442 $629 #
point $-1 -42.533538571852006 39.242584845957467 9.9406255351288308 #
coedge $-1 $457 $456 $449 $571 forward $446 $-1 #
edge $-1 $572 61.573839271590323 $575 67.822273228145022 $570 $630 forward 7 unknown #
vertex $-1 $461 $631 #
straight-curve $-1 23.373986901840649 57.740666397346416 15.41154797742837 0 1 0 I I #
edge $-1 $575 -17.530490176380486 $458 5.8434967254601595 $457 $632 forward 7 unknown #
vertex $-1 $574 $633 #
straight-curve $-1 23.373986901840649 1.2087458429732578e-006 87.297599002519974 0 -0.49999998660252726 0.86602541151947299 I I #
point $-1 23.373986901840649 41.503430636285451 15.41154797742837 #
point $-1 3.5527136788005009e-015 45.110965534230964 9.1631140208736639 #
straight-curve $-1 0 45.110965534230964 15.411547977428363 -1 0 0 I I #
vertex $-1 $464 $634 #
point $-1 13.186993450920326 39.242584845957467 9.9406255351288308 #
coedge $-1 $470 $469 $477 $587 forward $191 $-1 #
edge $-1 $590 -55.720532022772332 $473 -32.34654512093168 $472 $635 forward 7 unknown #
straight-curve $-1 -32.34654512093168 -80.296148560088966 15.411547977428363 0 1 0 I I #
point $-1 -32.34654512093168 -45.110965534230964 15.411547977428363 #
straight-curve $-1 -22.016769285926003 -41.503430636285465 15.411547977428363 -1 0 0 I I #
edge $-1 $478 20.882798648678204 $590 24.49033354662371 $582 $636 forward 7 unknown #
point $-1 -55.720532022772332 -41.503430636285465 15.411547977428363 #
point $-1 -32.34654512093168 -41.503430636285465 15.411547977428363 #
vertex $-1 $583 $637 #
straight-curve $-1 -55.720532022772332 -45.110965534230964 0 0 0 -1 I I #
vertex $-1 $485 $638 #
point $-1 -42.533538571852006 -39.24258484595746 9.9406255351288308 #
edge $-1 $595 35.185183025858002 $598 38.792717923803501 $490 $639 forward 7 unknown #
vertex $-1 $594 $640 #
straight-curve $-1 23.373986901840649 -45.110965534230964 37.918144758195567 0 0 1 I I #
edge $-1 $598 -17.530490176380486 $501 5.8434967254601595 $500 $641 forward 7 unknown #
vertex $-1 $597 $642 #
straight-curve $-1 23.373986901840649 -45.110965534230942 9.1631140208737349 0 -0.49999998660252726 -0.86602541151947299 I I #
point $-1 23.373986901840649 -45.110965534230964 9.1631140208736976 #
point $-1 3.5527136788005009e-015 -41.503430636285465 15.411547977428363 #
straight-curve $-1 0 -45.110965534230964 15.411547977428363 1 0 0 I I #
vertex $-1 $507 $643 #
point $-1 13.186993450920326 -39.24258484595746 9.9406255351288308 #
straight-curve $-1 -66.673177282021555 45.110965534230964 0 0 0 -1 I I #
point $-1 -66.673177282021555 -45.110965534230964 -15.411547977428363 #
straight-curve $-1 -66.673177282021555 0 -15.411547977428363 0 1 0 I I #
point $-1 -66.673177282021555 45.110965534230964 -15.411547977428363 #
coedge $-1 $529 $528 $534 $612 reversed $240 $-1 #
vertex $-1 $541 $644 #
straight-curve $-1 0 -45.110965534230964 15.411547977428363 1 0 0 I I #
edge $-1 $610 -15.411547977428363 $613 15.411547977428363 $609 $645 forward 7 unknown #
vertex $-1 $539 $646 #
straight-curve $-1 0 -45.110965534230964 -15.411547977428363 -1 0 0 I I #
straight-curve $-1 -66.673177282021555 0 -15.411547977428363 0 1 0 I I #
straight-curve $-1 -66.673177282021555 0 15.411547977428363 0 -1 0 I I #
coedge $-1 $545 $544 $550 $620 reversed $256 $-1 #
vertex $-1 $546 $647 #
straight-curve $-1 66.673177282021555 0 15.411547977428363 0 1 0 I I #
edge $-1 $618 -15.411547977428363 $621 15.411547977428363 $550 $648 forward 7 unknown #
vertex $-1 $620 $649 #
straight-curve $-1 66.673177282021555 0 -15.411547977428363 0 -1 0 I I #
straight-curve $-1 0 -45.110965534230964 -15.411547977428363 -1 0 0 I I #
straight-curve $-1 0 -45.110965534230964 15.411547977428363 1 0 0 I I #
straight-curve $-1 -32.34654512093168 45.110965534230964 76.985387249018686 0 0 -1 I I #
point $-1 -32.34654512093168 45.110965534230964 15.411547977428363 #
straight-curve $-1 -22.016769285926003 45.110965534230971 9.163114020873671 -1 0 0 I I #
point $-1 -32.34654512093168 45.110965534230964 9.1631140208736639 #
point $-1 -44.033538571852006 37.943546728678257 9.19062555522504 #
straight-curve $-1 23.373986901840649 45.110965534230964 76.985387249018686 0 0 -1 I I #
point $-1 23.373986901840649 45.110965534230964 15.411547977428363 #
straight-curve $-1 5.8434967254601631 45.110965534230971 9.163114020873671 -1 0 0 I I #
point $-1 23.373986901840649 45.110965534230964 9.1631140208736639 #
point $-1 11.686993450920326 37.943546728678257 9.19062555522504 #
straight-curve $-1 0 -45.110965534230964 15.411547977428363 1 0 0 I I #
straight-curve $-1 -55.720532022772332 -20.620631987607261 15.411547977428363 0 -1 0 I I #
point $-1 -55.720532022772332 -45.110965534230971 15.411547977428363 #
point $-1 -44.033538571852006 -37.94354672867825 9.19062555522504 #
straight-curve $-1 23.373986901840649 -80.296148560088966 15.411547977428363 0 1 0 I I #
point $-1 23.373986901840649 -45.110965534230964 15.411547977428363 #
straight-curve $-1 5.8434967254601631 -41.503430636285465 15.411547977428363 -1 0 0 I I #
point $-1 23.373986901840649 -41.503430636285465 15.411547977428363 #
point $-1 11.686993450920326 -37.94354672867825 9.19062555522504 #
point $-1 -66.673177282021555 -45.110965534230964 15.411547977428363 #
straight-curve $-1 -66.673177282021555 -45.110965534230964 0 0 0 -1 I I #
point $-1 -66.673177282021555 -45.110965534230964 -15.411547977428363 #
point $-1 66.673177282021555 -45.110965534230964 15.411547977428363 #
straight-curve $-1 66.673177282021555 -45.110965534230964 0 0 0 -1 I I #
point $-1 66.673177282021555 -45.110965534230964 -15.411547977428363 #
End-of-ACIS-data 