500 0 7 0           
7 Unknown 11 ACIS 5.0 NT 24 Fri Mar 26 15:35:57 1999 
-1 9.9999999999999995e-007 1e-010 
body $-1 $7 $-1 $8 #
body $-1 $9 $-1 $10 #
body $-1 $11 $-1 $12 #
body $-1 $13 $-1 $14 #
body $-1 $15 $-1 $16 #
body $-1 $17 $-1 $18 #
body $-1 $19 $-1 $20 #
lump $-1 $-1 $21 $0 #
transform $-1 1 0 0 0 1 0 0 0 1 68.876613666188547 45.095925980721738 13.393216140445928 1 rotate no_reflect no_shear #
lump $-1 $-1 $22 $1 #
transform $-1 1 0 0 0 1 0 0 0 1 68.876613666188547 45.095925980721738 13.393216140445928 1 rotate no_reflect no_shear #
lump $-1 $-1 $23 $2 #
transform $-1 1 0 0 0 1 0 0 0 1 68.876613666188547 45.095925980721738 13.393216140445928 1 rotate no_reflect no_shear #
lump $-1 $-1 $24 $3 #
transform $-1 1 0 0 0 1 0 0 0 1 68.876613666188547 45.095925980721738 13.393216140445928 1 rotate no_reflect no_shear #
lump $-1 $-1 $25 $4 #
transform $-1 1 0 0 0 1 0 0 0 1 68.876613666188547 45.095925980721738 13.393216140445928 1 rotate no_reflect no_shear #
lump $-1 $-1 $26 $5 #
transform $-1 1 0 0 0 1 0 0 0 1 68.876613666188547 45.095925980721738 13.393216140445928 1 rotate no_reflect no_shear #
lump $-1 $-1 $27 $6 #
transform $-1 1 0 0 0 1 0 0 0 1 68.876613666188547 45.095925980721738 13.393216140445928 1 rotate no_reflect no_shear #
shell $-1 $-1 $-1 $28 $-1 $7 #
shell $-1 $-1 $-1 $29 $-1 $9 #
shell $-1 $-1 $-1 $30 $-1 $11 #
shell $-1 $-1 $-1 $31 $-1 $13 #
shell $-1 $-1 $-1 $32 $-1 $15 #
shell $-1 $-1 $-1 $33 $-1 $17 #
shell $-1 $-1 $-1 $34 $-1 $19 #
face $-1 $35 $36 $21 $-1 $37 forward single #
face $-1 $38 $39 $22 $-1 $40 reversed single #
face $-1 $41 $42 $23 $-1 $43 forward single #
face $-1 $44 $45 $24 $-1 $46 reversed single #
face $-1 $47 $48 $25 $-1 $49 forward single #
face $-1 $50 $51 $26 $-1 $52 forward single #
face $-1 $53 $54 $27 $-1 $55 forward single #
face $-1 $56 $57 $21 $-1 $58 reversed single #
loop $-1 $-1 $59 $28 #
plane-surface $-1 0 0 13.393216140445928 0 0 1 1 0 0 forward_v I I I I #
face $-1 $60 $61 $22 $-1 $62 reversed single #
loop $-1 $-1 $63 $29 #
plane-surface $-1 -161.05151530756783 -13.404177801196006 108.92650346833096 0 1 0 -0.66913061440640931 0 0.74314481823134659 forward_v I I I I #
face $-1 $64 $65 $23 $-1 $66 forward single #
loop $-1 $67 $68 $30 #
cone-surface $-1 -64.56078073385541 -3.0374960039674974 9.3981177032274115 0.66913061440640931 0 -0.74314481823134659 1.1147172273470198 0 1.003695921609614 1 I I 0 1 1.5 forward I I I I #
face $-1 $69 $70 $24 $-1 $71 reversed single #
loop $-1 $-1 $72 $31 #
plane-surface $-1 99.352002805405704 24.031206622635914 196.50729542852878 0 -1 0 -0.80901700255871778 0 -0.5877852410284794 forward_v I I I I #
face $-1 $73 $74 $25 $-1 $75 forward single #
loop $-1 $76 $77 $32 #
cone-surface $-1 64.674246844270542 8.6190714607147427 8.1446003853572257 -0.80901700255871778 0 -0.5877852410284794 0.5877852410284794 0 -0.80901700255871778 1 I I 0 1 1 forward I I I I #
face $-1 $78 $79 $26 $-1 $80 forward single #
loop $-1 $81 $82 $33 #
cone-surface $-1 64.674246844270542 14.39862214643518 8.1446003853572257 -0.80901700255871778 0 -0.5877852410284794 0.5877852410284794 0 -0.80901700255871778 1 I I 0 1 1 forward I I I I #
face $-1 $83 $84 $27 $-1 $85 forward single #
loop $-1 $86 $87 $34 #
cone-surface $-1 64.674246844270542 20.178172832155617 8.1446003853572257 -0.80901700255871778 0 -0.5877852410284794 0.5877852410284794 0 -0.80901700255871778 1 I I 0 1 1 forward I I I I #
face $-1 $88 $89 $21 $-1 $90 reversed single #
loop $-1 $-1 $91 $35 #
plane-surface $-1 0 0 -13.393216140445928 0 0 1 1 0 0 forward_v I I I I #
coedge $-1 $92 $93 $94 $95 forward $36 $-1 #
face $-1 $96 $97 $22 $-1 $98 reversed single #
loop $-1 $-1 $99 $38 #
plane-surface $-1 -68.876613666188561 -3.0374960039674974 6.5559063816302228 -0.66913061440640931 0 0.74314481823134659 0.74314481823134659 0 0.66913061440640931 forward_v I I I I #
coedge $-1 $100 $101 $102 $103 reversed $39 $-1 #
face $-1 $-1 $104 $23 $-1 $105 forward single #
loop $-1 $106 $107 $41 #
cone-surface $-1 -63.539900650985288 -3.0374960039674974 8.264315531743252 0.66913061440640931 0 -0.74314481823134659 0.55735861367350992 0 0.50184796080480698 1 I I -0.70710678118654757 0.70710678118654757 0.75 forward I I I I #
loop $-1 $-1 $108 $30 #
coedge $-1 $68 $68 $109 $110 reversed $42 $-1 #
face $-1 $111 $112 $24 $-1 $113 reversed single #
loop $-1 $-1 $114 $44 #
plane-surface $-1 -12.092700263823644 14.39862214643518 115.53798149851659 0.80901700255871778 0 0.5877852410284794 0.5877852410284794 0 -0.80901700255871778 forward_v I I I I #
coedge $-1 $115 $116 $117 $118 reversed $45 $-1 #
face $-1 $-1 $119 $25 $-1 $120 forward single #
loop $-1 $121 $122 $47 #
cone-surface $-1 63.445771549635339 8.6190714607147427 7.2520608653336343 -0.80901700255871778 0 -0.5877852410284794 0.2938926205142397 0 -0.40450850127935889 1 I I -0.70710678118654746 0.70710678118654746 0.5 forward I I I I #
loop $-1 $-1 $123 $32 #
coedge $-1 $77 $77 $124 $125 reversed $48 $-1 #
face $-1 $-1 $126 $26 $-1 $127 forward single #
loop $-1 $128 $129 $50 #
cone-surface $-1 63.445771549635339 14.39862214643518 7.2520608653336343 -0.80901700255871778 0 -0.5877852410284794 0.2938926205142397 0 -0.40450850127935889 1 I I -0.70710678118654746 0.70710678118654746 0.5 forward I I I I #
loop $-1 $-1 $130 $33 #
coedge $-1 $82 $82 $131 $132 reversed $51 $-1 #
face $-1 $-1 $133 $27 $-1 $134 forward single #
loop $-1 $135 $136 $53 #
cone-surface $-1 63.445771549635339 20.178172832155617 7.2520608653336343 -0.80901700255871778 0 -0.5877852410284794 0.2938926205142397 0 -0.40450850127935889 1 I I -0.70710678118654746 0.70710678118654746 0.5 forward I I I I #
loop $-1 $-1 $137 $34 #
coedge $-1 $87 $87 $138 $139 reversed $54 $-1 #
face $-1 $140 $141 $21 $-1 $142 reversed single #
loop $-1 $-1 $143 $56 #
plane-surface $-1 0 -45.095925980721738 0 0 1 0 0 0 1 forward_v I I I I #
coedge $-1 $144 $145 $146 $147 forward $57 $-1 #
coedge $-1 $148 $59 $149 $150 forward $36 $-1 #
coedge $-1 $59 $148 $151 $152 forward $36 $-1 #
coedge $-1 $153 $154 $59 $95 reversed $155 $-1 #
edge $-1 $156 -45.095925980721738 $157 45.095925980721738 $94 $158 forward 7 unknown #
face $-1 $159 $160 $22 $-1 $161 reversed single #
loop $-1 $-1 $162 $60 #
plane-surface $-1 -161.05151530756783 7.3291857932610114 108.92650346833096 0 -1 0 0.66913061440640931 0 -0.74314481823134659 forward_v I I I I #
coedge $-1 $163 $164 $165 $166 reversed $61 $-1 #
coedge $-1 $101 $63 $167 $168 reversed $39 $-1 #
coedge $-1 $63 $100 $163 $169 reversed $39 $-1 #
coedge $-1 $165 $170 $63 $103 forward $171 $-1 #
edge $-1 $172 11.649143987595366 $173 19.242745608130981 $102 $174 forward 7 unknown #
loop $-1 $-1 $109 $64 #
plane-surface $-1 -68.876613666188561 -3.0374960039674974 6.5559063816302228 -0.66913061440640931 0 0.74314481823134659 0.74314481823134659 0 0.66913061440640931 forward_v I I I I #
loop $-1 $-1 $175 $41 #
coedge $-1 $107 $107 $108 $176 reversed $65 $-1 #
coedge $-1 $108 $108 $107 $176 forward $67 $-1 #
coedge $-1 $109 $109 $68 $110 forward $104 $-1 #
edge $-1 $177 0 $177 6.2831853071796004 $109 $178 forward 7 unknown #
face $-1 $179 $180 $24 $-1 $181 forward single #
loop $-1 $-1 $182 $69 #
plane-surface $-1 99.352002805405704 4.7660376702344465 196.50729542852878 0 1 0 0.80901700255871778 0 0.5877852410284794 forward_v I I I I #
coedge $-1 $183 $184 $185 $186 reversed $70 $-1 #
coedge $-1 $116 $72 $187 $188 reversed $45 $-1 #
coedge $-1 $72 $115 $183 $189 reversed $45 $-1 #
coedge $-1 $185 $190 $72 $118 forward $180 $-1 #
edge $-1 $191 -19.200612263485695 $192 -12.443812206361414 $117 $193 forward 7 unknown #
loop $-1 $-1 $124 $73 #
plane-surface $-1 -12.092700263823644 14.39862214643518 115.53798149851659 0.80901700255871778 0 0.5877852410284794 0.5877852410284794 0 -0.80901700255871778 forward_v I I I I #
loop $-1 $-1 $194 $47 #
coedge $-1 $122 $122 $123 $195 reversed $74 $-1 #
coedge $-1 $123 $123 $122 $195 forward $76 $-1 #
coedge $-1 $124 $124 $77 $125 forward $119 $-1 #
edge $-1 $196 0 $196 6.2831853071796004 $124 $197 forward 7 unknown #
loop $-1 $-1 $131 $78 #
plane-surface $-1 -12.092700263823644 14.39862214643518 115.53798149851659 0.80901700255871778 0 0.5877852410284794 0.5877852410284794 0 -0.80901700255871778 forward_v I I I I #
loop $-1 $-1 $198 $50 #
coedge $-1 $129 $129 $130 $199 reversed $79 $-1 #
coedge $-1 $130 $130 $129 $199 forward $81 $-1 #
coedge $-1 $131 $131 $82 $132 forward $126 $-1 #
edge $-1 $200 0 $200 6.2831853071796004 $131 $201 forward 7 unknown #
loop $-1 $-1 $138 $83 #
plane-surface $-1 -12.092700263823644 14.39862214643518 115.53798149851659 0.80901700255871778 0 0.5877852410284794 0.5877852410284794 0 -0.80901700255871778 forward_v I I I I #
loop $-1 $-1 $202 $53 #
coedge $-1 $136 $136 $137 $203 reversed $84 $-1 #
coedge $-1 $137 $137 $136 $203 forward $86 $-1 #
coedge $-1 $138 $138 $87 $139 forward $133 $-1 #
edge $-1 $204 0 $204 6.2831853071796004 $138 $205 forward 7 unknown #
face $-1 $206 $207 $21 $-1 $208 reversed single #
loop $-1 $-1 $209 $88 #
plane-surface $-1 -68.876613666188547 0 0 1 0 0 0 0 -1 forward_v I I I I #
coedge $-1 $210 $151 $211 $212 forward $89 $-1 #
coedge $-1 $213 $91 $210 $214 forward $57 $-1 #
coedge $-1 $91 $213 $215 $216 forward $57 $-1 #
coedge $-1 $154 $153 $91 $147 reversed $155 $-1 #
edge $-1 $217 -45.095925980721738 $218 45.095925980721738 $146 $219 forward 7 unknown #
coedge $-1 $93 $92 $220 $221 forward $36 $-1 #
coedge $-1 $222 $223 $92 $150 reversed $207 $-1 #
edge $-1 $157 -68.876613666188547 $224 68.876613666188547 $149 $225 forward 7 unknown #
coedge $-1 $143 $226 $93 $152 reversed $89 $-1 #
edge $-1 $227 -68.876613666188547 $156 68.876613666188547 $151 $228 forward 7 unknown #
coedge $-1 $146 $94 $226 $229 forward $155 $-1 #
coedge $-1 $94 $146 $222 $230 reversed $155 $-1 #
loop $-1 $-1 $153 $206 #
vertex $-1 $95 $231 #
vertex $-1 $95 $232 #
straight-curve $-1 68.876613666188547 0 13.393216140445928 0 1 0 I I #
face $-1 $-1 $171 $22 $-1 $233 forward single #
loop $-1 $-1 $234 $96 #
plane-surface $-1 -68.876613666188547 0 0 1 0 0 0 0 -1 forward_v I I I I #
coedge $-1 $235 $236 $237 $238 reversed $97 $-1 #
coedge $-1 $239 $99 $101 $169 forward $61 $-1 #
coedge $-1 $99 $239 $235 $240 forward $61 $-1 #
coedge $-1 $237 $102 $99 $166 forward $171 $-1 #
edge $-1 $173 -11.885429799212258 $241 8.8479337952447601 $165 $242 forward 7 unknown #
coedge $-1 $243 $244 $100 $168 forward $160 $-1 #
edge $-1 $245 -47.907345352535245 $172 -41.070035593719552 $167 $246 forward 7 unknown #
edge $-1 $173 -10.218198975817501 $245 -1.8881026247711288e-014 $101 $247 forward 7 unknown #
coedge $-1 $102 $237 $243 $248 forward $171 $-1 #
loop $-1 $-1 $237 $159 #
vertex $-1 $168 $249 #
vertex $-1 $103 $250 #
straight-curve $-1 -80.525757653783913 -13.404177801196006 13.393216140445929 1 0 0 I I #
coedge $-1 $175 $175 $-1 $251 reversed $106 $-1 #
edge $-1 $252 0 $252 6.2831853071796004 $107 $253 forward 7 unknown #
vertex $-1 $110 $254 #
ellipse-curve $-1 -65.079812855920736 -3.0374960039674974 9.9745612610380814 -0.66913061440640931 0 0.74314481823134659 1.1147172273470198 0 1.003695921609614 1 I I #
face $-1 $-1 $255 $24 $-1 $256 reversed single #
loop $-1 $-1 $117 $111 #
plane-surface $-1 0 0 13.393216140445928 0 0 1 1 0 0 forward_v I I I I #
coedge $-1 $257 $258 $259 $260 reversed $112 $-1 #
coedge $-1 $261 $114 $116 $189 forward $70 $-1 #
coedge $-1 $114 $261 $257 $262 forward $70 $-1 #
coedge $-1 $259 $117 $114 $186 forward $180 $-1 #
edge $-1 $192 -16.831895549418324 $263 2.4332734029831435 $185 $264 forward 7 unknown #
coedge $-1 $265 $266 $115 $188 forward $255 $-1 #
edge $-1 $267 -94.160369284977151 $191 -84.86043157381846 $187 $268 forward 7 unknown #
edge $-1 $192 126.25787225115468 $267 137.75322733237709 $116 $269 forward 7 unknown #
coedge $-1 $117 $259 $265 $270 forward $180 $-1 #
vertex $-1 $188 $271 #
vertex $-1 $118 $272 #
straight-curve $-1 49.676001402702852 24.031206622635914 13.393216140445929 -1 0 0 I I #
coedge $-1 $194 $194 $-1 $273 reversed $121 $-1 #
edge $-1 $274 0 $274 6.2831853071796004 $122 $275 forward 7 unknown #
vertex $-1 $125 $276 #
ellipse-curve $-1 65.498213637626392 8.6190714607147427 8.7432472848665892 0.80901700255871778 0 0.5877852410284794 0.5877852410284794 0 -0.80901700255871778 1 I I #
coedge $-1 $198 $198 $-1 $277 reversed $128 $-1 #
edge $-1 $278 0 $278 6.2831853071796004 $129 $279 forward 7 unknown #
vertex $-1 $132 $280 #
ellipse-curve $-1 65.498213637626392 14.39862214643518 8.7432472848665892 0.80901700255871778 0 0.5877852410284794 0.5877852410284794 0 -0.80901700255871778 1 I I #
coedge $-1 $202 $202 $-1 $281 reversed $135 $-1 #
edge $-1 $282 0 $282 6.2831853071796004 $136 $283 forward 7 unknown #
vertex $-1 $139 $284 #
ellipse-curve $-1 65.498213637626392 20.178172832155617 8.7432472848665892 0.80901700255871778 0 0.5877852410284794 0.5877852410284794 0 -0.80901700255871778 1 I I #
face $-1 $-1 $155 $21 $-1 $285 reversed single #
loop $-1 $-1 $222 $140 #
plane-surface $-1 0 45.095925980721738 0 0 -1 0 0 0 -1 forward_v I I I I #
coedge $-1 $286 $220 $223 $287 forward $141 $-1 #
coedge $-1 $226 $143 $144 $214 reversed $89 $-1 #
coedge $-1 $220 $286 $143 $212 reversed $141 $-1 #
edge $-1 $227 -13.393216140445928 $288 13.393216140445928 $211 $289 forward 7 unknown #
coedge $-1 $145 $144 $286 $290 forward $57 $-1 #
edge $-1 $218 -68.876613666188547 $288 68.876613666188547 $210 $291 forward 7 unknown #
coedge $-1 $223 $222 $145 $216 reversed $207 $-1 #
edge $-1 $292 -68.876613666188547 $217 68.876613666188547 $215 $293 forward 7 unknown #
vertex $-1 $147 $294 #
vertex $-1 $229 $295 #
straight-curve $-1 68.876613666188547 0 -13.393216140445928 0 -1 0 I I #
coedge $-1 $209 $211 $148 $221 reversed $141 $-1 #
edge $-1 $224 -45.095925980721738 $227 45.095925980721738 $220 $296 forward 7 unknown #
coedge $-1 $215 $149 $154 $230 forward $207 $-1 #
coedge $-1 $149 $215 $209 $287 reversed $207 $-1 #
vertex $-1 $150 $297 #
straight-curve $-1 0 45.095925980721738 13.393216140445928 -1 0 0 I I #
coedge $-1 $151 $210 $153 $229 reversed $89 $-1 #
vertex $-1 $221 $298 #
straight-curve $-1 0 -45.095925980721738 13.393216140445928 1 0 0 I I #
edge $-1 $156 -13.393216140445928 $218 13.393216140445928 $153 $299 forward 7 unknown #
edge $-1 $157 -13.393216140445928 $217 13.393216140445928 $154 $300 forward 7 unknown #
point $-1 68.876613666188547 -45.095925980721738 13.393216140445928 #
point $-1 68.876613666188547 45.095925980721738 13.393216140445928 #
plane-surface $-1 0 0 13.393216140445928 0 0 1 1 0 0 forward_v I I I I #
coedge $-1 $244 $243 $236 $301 forward $160 $-1 #
coedge $-1 $236 $162 $164 $240 reversed $97 $-1 #
coedge $-1 $162 $235 $234 $301 reversed $97 $-1 #
coedge $-1 $170 $165 $162 $238 forward $171 $-1 #
edge $-1 $241 -19.242745608130981 $302 -11.649143987595366 $237 $303 forward 7 unknown #
coedge $-1 $164 $163 $244 $304 reversed $61 $-1 #
edge $-1 $305 1.8881026247711288e-014 $241 10.218198975817501 $235 $306 forward 7 unknown #
vertex $-1 $166 $307 #
straight-curve $-1 -61.283012045652931 -1.5187480019837487 13.393216140445926 0 1 0 I I #
coedge $-1 $234 $167 $170 $248 reversed $160 $-1 #
coedge $-1 $167 $234 $239 $304 forward $160 $-1 #
vertex $-1 $168 $308 #
straight-curve $-1 -68.876613666188547 -13.404177801196006 54.463251734165482 0 0 1 I I #
straight-curve $-1 -68.876613666188561 -13.404177801196006 6.5559063816302228 -0.74314481823134659 0 -0.66913061440640931 I I #
edge $-1 $302 -7.3291857932610114 $172 13.404177801196006 $243 $309 forward 7 unknown #
point $-1 -68.876613666188547 -13.404177801196006 13.393216140445928 #
point $-1 -61.283012045652931 -13.404177801196006 13.393216140445929 #
edge $-1 $310 1 $310 0 $175 $-1 forward 7 unknown #
vertex $-1 $176 $311 #
ellipse-curve $-1 -64.041748611790098 -3.0374960039674974 8.8216741454167611 -0.66913061440640931 0 0.74314481823134659 1.1147172273470198 0 1.003695921609614 1 I I #
point $-1 -63.9650956285737 -3.0374960039674974 10.978257182647676 #
loop $-1 $-1 $187 $179 #
plane-surface $-1 68.876613666188547 0 0 -1 0 0 0 0 1 forward_v I I I I #
coedge $-1 $258 $182 $184 $262 reversed $112 $-1 #
coedge $-1 $182 $257 $312 $313 reversed $112 $-1 #
coedge $-1 $190 $185 $182 $260 forward $180 $-1 #
edge $-1 $263 12.443812206361414 $314 19.200612263485695 $259 $315 forward 7 unknown #
coedge $-1 $184 $183 $266 $316 reversed $70 $-1 #
edge $-1 $317 -137.75322733237709 $263 -126.25787225115468 $257 $318 forward 7 unknown #
vertex $-1 $186 $319 #
straight-curve $-1 62.119813609064259 7.19931107321759 13.393216140445929 0 -1 0 I I #
coedge $-1 $312 $187 $190 $270 reversed $255 $-1 #
coedge $-1 $187 $312 $261 $316 forward $255 $-1 #
vertex $-1 $188 $320 #
straight-curve $-1 68.876613666188547 24.031206622635914 98.253647714264389 0 0 1 I I #
straight-curve $-1 -12.092700263823644 24.031206622635914 115.53798149851659 0.5877852410284794 0 -0.80901700255871778 I I #
edge $-1 $314 4.7660376702344465 $191 24.031206622635914 $265 $321 forward 7 unknown #
point $-1 68.876613666188547 24.031206622635914 13.393216140445928 #
point $-1 62.119813609064266 24.031206622635914 13.393216140445929 #
edge $-1 $322 1 $322 0 $194 $-1 forward 7 unknown #
vertex $-1 $195 $323 #
ellipse-curve $-1 63.850280050914698 8.6190714607147427 7.5459534858478738 0.80901700255871778 0 0.5877852410284794 0.5877852410284794 0 -0.80901700255871778 1 I I #
point $-1 66.085998878654863 8.6190714607147427 7.9342302823078592 #
edge $-1 $324 1 $324 0 $198 $-1 forward 7 unknown #
vertex $-1 $199 $325 #
ellipse-curve $-1 63.850280050914698 14.39862214643518 7.5459534858478738 0.80901700255871778 0 0.5877852410284794 0.5877852410284794 0 -0.80901700255871778 1 I I #
point $-1 66.085998878654863 14.39862214643518 7.9342302823078592 #
edge $-1 $326 1 $326 0 $202 $-1 forward 7 unknown #
vertex $-1 $203 $327 #
ellipse-curve $-1 63.850280050914698 20.178172832155617 7.5459534858478738 0.80901700255871778 0 0.5877852410284794 0.5877852410284794 0 -0.80901700255871778 1 I I #
point $-1 66.085998878654863 20.178172832155617 7.9342302823078592 #
plane-surface $-1 68.876613666188547 0 0 -1 0 0 0 0 1 forward_v I I I I #
coedge $-1 $211 $209 $213 $290 reversed $141 $-1 #
edge $-1 $224 -13.393216140445928 $292 13.393216140445928 $223 $328 forward 7 unknown #
vertex $-1 $290 $329 #
straight-curve $-1 -68.876613666188547 -45.095925980721738 0 0 0 -1 I I #
edge $-1 $288 -45.095925980721738 $292 45.095925980721738 $286 $330 forward 7 unknown #
straight-curve $-1 0 -45.095925980721738 -13.393216140445928 -1 0 0 I I #
vertex $-1 $216 $331 #
straight-curve $-1 0 45.095925980721738 -13.393216140445928 1 0 0 I I #
point $-1 68.876613666188547 45.095925980721738 -13.393216140445928 #
point $-1 68.876613666188547 -45.095925980721738 -13.393216140445928 #
straight-curve $-1 -68.876613666188547 0 13.393216140445928 0 -1 0 I I #
point $-1 -68.876613666188547 45.095925980721738 13.393216140445928 #
point $-1 -68.876613666188547 -45.095925980721738 13.393216140445928 #
straight-curve $-1 68.876613666188547 -45.095925980721738 0 0 0 -1 I I #
straight-curve $-1 68.876613666188547 45.095925980721738 0 0 0 -1 I I #
edge $-1 $302 41.070035593719552 $305 47.907345352535245 $234 $332 forward 7 unknown #
vertex $-1 $248 $333 #
straight-curve $-1 -80.525757653783913 7.3291857932610114 13.393216140445929 -1 0 0 I I #
edge $-1 $305 -8.8479337952447601 $245 11.885429799212258 $244 $334 forward 7 unknown #
vertex $-1 $304 $335 #
straight-curve $-1 -68.876613666188561 7.3291857932610114 6.5559063816302228 0.74314481823134659 0 0.66913061440640931 I I #
point $-1 -61.283012045652931 7.3291857932610114 13.393216140445929 #
point $-1 -68.876613666188547 -13.404177801196006 6.5559063816302352 #
straight-curve $-1 -68.876613666188547 0 13.393216140445928 0 -1 0 I I #
vertex $-1 $251 $336 #
point $-1 -62.927031384443076 -3.0374960039674974 9.8253700670263768 #
coedge $-1 $266 $265 $258 $313 forward $255 $-1 #
edge $-1 $314 84.86043157381846 $317 94.160369284977151 $312 $337 forward 7 unknown #
vertex $-1 $270 $338 #
straight-curve $-1 49.676001402702852 4.7660376702344465 13.393216140445929 1 0 0 I I #
edge $-1 $317 -2.4332734029831435 $267 16.831895549418324 $266 $339 forward 7 unknown #
vertex $-1 $316 $340 #
straight-curve $-1 -12.092700263823644 4.7660376702344465 115.53798149851659 -0.5877852410284794 0 0.80901700255871778 I I #
point $-1 62.119813609064266 4.7660376702344465 13.393216140445929 #
point $-1 68.876613666188547 24.031206622635914 4.0932784292872384 #
straight-curve $-1 68.876613666188547 0 13.393216140445928 0 1 0 I I #
vertex $-1 $273 $341 #
point $-1 64.438065291943175 8.6190714607147427 6.7369364832891563 #
vertex $-1 $277 $342 #
point $-1 64.438065291943175 14.39862214643518 6.7369364832891563 #
vertex $-1 $281 $343 #
point $-1 64.438065291943175 20.178172832155617 6.7369364832891563 #
straight-curve $-1 -68.876613666188547 45.095925980721738 0 0 0 -1 I I #
point $-1 -68.876613666188547 -45.095925980721738 -13.393216140445928 #
straight-curve $-1 -68.876613666188547 0 -13.393216140445928 0 1 0 I I #
point $-1 -68.876613666188547 45.095925980721738 -13.393216140445928 #
straight-curve $-1 -68.876613666188547 7.3291857932610114 54.463251734165482 0 0 -1 I I #
point $-1 -68.876613666188547 7.3291857932610114 13.393216140445928 #
straight-curve $-1 -68.876613666188547 -1.5187480019837487 6.5559063816302263 0 -1 0 I I #
point $-1 -68.876613666188547 7.3291857932610114 6.5559063816302352 #
point $-1 -63.038052690180479 -3.0374960039674974 7.7069569180697419 #
straight-curve $-1 68.876613666188547 4.7660376702344465 98.253647714264389 0 0 -1 I I #
point $-1 68.876613666188547 4.7660376702344465 13.393216140445928 #
straight-curve $-1 68.876613666188547 7.19931107321759 4.0932784292872384 0 1 0 I I #
point $-1 68.876613666188547 4.7660376702344465 4.0932784292872384 #
point $-1 63.041263048355979 8.6190714607147427 6.9581682448193947 #
point $-1 63.041263048355979 14.39862214643518 6.9581682448193947 #
point $-1 63.041263048355979 20.178172832155617 6.9581682448193947 #
End-of-ACIS-data 