500 0 8 0           
7 Unknown 11 ACIS 5.0 NT 24 Fri Mar 26 17:02:55 1999 
-1 9.9999999999999995e-007 1e-010 
body $-1 $8 $-1 $9 #
body $-1 $10 $-1 $11 #
body $-1 $12 $-1 $13 #
body $-1 $14 $-1 $15 #
body $-1 $16 $-1 $17 #
body $-1 $18 $-1 $19 #
body $-1 $20 $-1 $21 #
body $-1 $22 $-1 $23 #
lump $-1 $-1 $24 $0 #
transform $-1 1 0 0 0 1 0 0 0 1 68.250373851741074 28.349930979988326 11.4467377804328 1 rotate no_reflect no_shear #
lump $-1 $-1 $25 $1 #
transform $-1 1 0 0 0 1 0 0 0 1 68.250373851741074 28.349930979988326 11.4467377804328 1 rotate no_reflect no_shear #
lump $-1 $-1 $26 $2 #
transform $-1 1 0 0 0 1 0 0 0 1 68.250373851741074 28.349930979988326 11.4467377804328 1 rotate no_reflect no_shear #
lump $-1 $-1 $27 $3 #
transform $-1 1 0 0 0 1 0 0 0 1 68.250373851741074 28.349930979988326 11.4467377804328 1 rotate no_reflect no_shear #
lump $-1 $-1 $28 $4 #
transform $-1 1 0 0 0 1 0 0 0 1 68.250373851741074 28.349930979988326 11.4467377804328 1 rotate no_reflect no_shear #
lump $-1 $-1 $29 $5 #
transform $-1 1 0 0 0 1 0 0 0 1 68.250373851741074 28.349930979988326 11.4467377804328 1 rotate no_reflect no_shear #
lump $-1 $-1 $30 $6 #
transform $-1 1 0 0 0 1 0 0 0 1 68.250373851741074 28.349930979988326 11.4467377804328 1 rotate no_reflect no_shear #
lump $-1 $-1 $31 $7 #
transform $-1 1 0 0 0 1 0 0 0 1 68.250373851741074 28.349930979988326 11.4467377804328 1 rotate no_reflect no_shear #
shell $-1 $-1 $-1 $32 $-1 $8 #
shell $-1 $-1 $-1 $33 $-1 $10 #
shell $-1 $-1 $-1 $34 $-1 $12 #
shell $-1 $-1 $-1 $35 $-1 $14 #
shell $-1 $-1 $-1 $36 $-1 $16 #
shell $-1 $-1 $-1 $37 $-1 $18 #
shell $-1 $-1 $-1 $38 $-1 $20 #
shell $-1 $-1 $-1 $39 $-1 $22 #
face $-1 $40 $41 $24 $-1 $42 forward single #
face $-1 $43 $44 $25 $-1 $45 forward single #
face $-1 $46 $47 $26 $-1 $48 reversed single #
face $-1 $49 $50 $27 $-1 $51 forward single #
face $-1 $52 $53 $28 $-1 $54 forward single #
face $-1 $55 $56 $29 $-1 $57 forward single #
face $-1 $58 $59 $30 $-1 $60 reversed single #
face $-1 $61 $62 $31 $-1 $63 forward single #
face $-1 $64 $65 $24 $-1 $66 reversed single #
loop $-1 $-1 $67 $32 #
plane-surface $-1 0 0 11.4467377804328 0 0 1 1 0 0 forward_v I I I I #
face $-1 $68 $69 $25 $-1 $70 reversed single #
loop $-1 $-1 $71 $33 #
plane-surface $-1 0 -23.986301929619632 -1.0163237091651056 0 0 1 1 0 0 forward_v I I I I #
face $-1 $72 $73 $26 $-1 $74 reversed single #
loop $-1 $-1 $75 $34 #
plane-surface $-1 71.619409773899463 -4.8328239776829811 195.48213096501476 0 1 0 0.71933980857756763 0 0.69465836192734942 forward_v I I I I #
face $-1 $76 $77 $27 $-1 $78 forward single #
loop $-1 $79 $80 $35 #
cone-surface $-1 63.188140380422404 -2.5473500173234775 6.2554876727576163 -0.71933980857756763 0 -0.69465836192734942 0.69465836192734942 0 -0.71933980857756763 1 I I 0 1 1 forward I I I I #
face $-1 $81 $82 $28 $-1 $83 forward single #
loop $-1 $84 $85 $36 #
cone-surface $-1 63.188140380422404 0.88086092321578136 6.2554876727576163 -0.71933980857756763 0 -0.69465836192734942 0.69465836192734942 0 -0.71933980857756763 1 I I 0 1 1 forward I I I I #
face $-1 $86 $87 $29 $-1 $88 forward single #
loop $-1 $89 $90 $37 #
cone-surface $-1 63.188140380422404 4.3090718637550403 6.2554876727576163 -0.71933980857756763 0 -0.69465836192734942 0.69465836192734942 0 -0.71933980857756763 1 I I 0 1 1 forward I I I I #
face $-1 $91 $92 $30 $-1 $93 reversed single #
loop $-1 $-1 $94 $38 #
plane-surface $-1 -178.68179960583598 -4.2199372918590008 88.079488748244088 0 1 0 -0.80901700255871778 0 0.5877852410284794 forward_v I I I I #
face $-1 $95 $96 $31 $-1 $97 forward single #
loop $-1 $98 $99 $39 #
cone-surface $-1 -66.442069415313085 0.8805050179485896 9.2829946966827404 0.80901700255871778 0 -0.5877852410284794 0.5877852410284794 0 0.80901700255871778 1 I I 0 1 1 forward I I I I #
face $-1 $100 $101 $24 $-1 $102 reversed single #
loop $-1 $-1 $103 $40 #
plane-surface $-1 0 0 -11.4467377804328 0 0 1 1 0 0 forward_v I I I I #
coedge $-1 $104 $105 $106 $107 forward $41 $-1 #
face $-1 $108 $109 $25 $-1 $110 reversed single #
loop $-1 $-1 $111 $43 #
plane-surface $-1 0 -23.986301929619632 -4.4252276860021471 0 0 1 1 0 0 forward_v I I I I #
coedge $-1 $112 $113 $114 $115 reversed $44 $-1 #
face $-1 $116 $117 $26 $-1 $118 reversed single #
loop $-1 $-1 $119 $46 #
plane-surface $-1 -26.571011949818242 0.88086092321578136 100.66074516345545 0.71933980857756763 0 0.69465836192734942 0.69465836192734942 0 -0.71933980857756763 forward_v I I I I #
coedge $-1 $120 $121 $122 $123 reversed $47 $-1 #
face $-1 $-1 $124 $27 $-1 $125 forward single #
loop $-1 $126 $127 $49 #
cone-surface $-1 62.100448185354679 -2.5473500173234775 5.2051155544662731 -0.71933980857756763 0 -0.69465836192734942 0.34732918096367471 0 -0.35966990428878381 1 I I -0.70710678118654746 0.70710678118654746 0.5 forward I I I I #
loop $-1 $-1 $128 $35 #
coedge $-1 $80 $80 $129 $130 reversed $50 $-1 #
face $-1 $-1 $131 $28 $-1 $132 forward single #
loop $-1 $133 $134 $52 #
cone-surface $-1 62.100448185354679 0.88086092321578136 5.2051155544662731 -0.71933980857756763 0 -0.69465836192734942 0.34732918096367471 0 -0.35966990428878381 1 I I -0.70710678118654746 0.70710678118654746 0.5 forward I I I I #
loop $-1 $-1 $135 $36 #
coedge $-1 $85 $85 $136 $137 reversed $53 $-1 #
face $-1 $-1 $138 $29 $-1 $139 forward single #
loop $-1 $140 $141 $55 #
cone-surface $-1 62.100448185354679 4.3090718637550403 5.2051155544662731 -0.71933980857756763 0 -0.69465836192734942 0.34732918096367471 0 -0.35966990428878381 1 I I -0.70710678118654746 0.70710678118654746 0.5 forward I I I I #
loop $-1 $-1 $142 $37 #
coedge $-1 $90 $90 $143 $144 reversed $56 $-1 #
face $-1 $145 $146 $30 $-1 $147 reversed single #
loop $-1 $-1 $148 $58 #
plane-surface $-1 -68.250373851741074 0.88050501794858604 7.8463638587851818 -0.80901700255871778 0 0.5877852410284794 0.5877852410284794 0 0.80901700255871778 forward_v I I I I #
coedge $-1 $149 $150 $151 $152 reversed $59 $-1 #
face $-1 $-1 $153 $31 $-1 $154 forward single #
loop $-1 $155 $156 $61 #
cone-surface $-1 -65.537168824710392 0.8805050179485896 8.6255459532422574 0.80901700255871778 0 -0.5877852410284794 0.2938926205142397 0 0.40450850127935889 1 I I -0.70710678118654746 0.70710678118654746 0.5 forward I I I I #
loop $-1 $-1 $157 $39 #
coedge $-1 $99 $99 $158 $159 reversed $62 $-1 #
face $-1 $160 $161 $24 $-1 $162 reversed single #
loop $-1 $-1 $163 $64 #
plane-surface $-1 0 -28.349930979988326 0 0 1 0 0 0 1 forward_v I I I I #
coedge $-1 $164 $165 $166 $167 forward $65 $-1 #
coedge $-1 $168 $67 $169 $170 forward $41 $-1 #
coedge $-1 $67 $168 $171 $172 forward $41 $-1 #
coedge $-1 $173 $174 $67 $107 reversed $175 $-1 #
edge $-1 $176 -28.349930979988326 $177 28.349930979988326 $106 $178 forward 7 unknown #
face $-1 $179 $180 $25 $-1 $181 reversed single #
loop $-1 $-1 $182 $68 #
plane-surface $-1 0 -19.622672879250938 -2.7207756975836261 0 -1 0 0 0 -1 forward_v I I I I #
coedge $-1 $183 $184 $185 $186 reversed $69 $-1 #
coedge $-1 $187 $71 $188 $189 forward $44 $-1 #
coedge $-1 $71 $187 $190 $191 reversed $44 $-1 #
coedge $-1 $192 $193 $71 $115 forward $194 $-1 #
edge $-1 $195 7.6295219144411224 $196 16.356780015178508 $114 $197 forward 7 unknown #
face $-1 $198 $199 $26 $-1 $200 forward single #
loop $-1 $-1 $201 $72 #
plane-surface $-1 71.619409773899463 6.5945458241145438 195.48213096501476 0 -1 0 -0.71933980857756763 0 -0.69465836192734942 forward_v I I I I #
coedge $-1 $202 $203 $204 $205 reversed $73 $-1 #
coedge $-1 $121 $75 $206 $207 reversed $47 $-1 #
coedge $-1 $75 $120 $202 $208 reversed $47 $-1 #
coedge $-1 $204 $209 $75 $123 forward $210 $-1 #
edge $-1 $211 86.294327702074582 $212 95.270742042769641 $122 $213 forward 7 unknown #
loop $-1 $-1 $129 $76 #
plane-surface $-1 -26.571011949818242 0.88086092321578136 100.66074516345545 0.71933980857756763 0 0.69465836192734942 0.69465836192734942 0 -0.71933980857756763 forward_v I I I I #
loop $-1 $-1 $214 $49 #
coedge $-1 $127 $127 $128 $215 reversed $77 $-1 #
coedge $-1 $128 $128 $127 $215 forward $79 $-1 #
coedge $-1 $129 $129 $80 $130 forward $124 $-1 #
edge $-1 $216 0 $216 6.2831853071796004 $129 $217 forward 7 unknown #
loop $-1 $-1 $136 $81 #
plane-surface $-1 -26.571011949818242 0.88086092321578136 100.66074516345545 0.71933980857756763 0 0.69465836192734942 0.69465836192734942 0 -0.71933980857756763 forward_v I I I I #
loop $-1 $-1 $218 $52 #
coedge $-1 $134 $134 $135 $219 reversed $82 $-1 #
coedge $-1 $135 $135 $134 $219 forward $84 $-1 #
coedge $-1 $136 $136 $85 $137 forward $131 $-1 #
edge $-1 $220 0 $220 6.2831853071796004 $136 $221 forward 7 unknown #
loop $-1 $-1 $143 $86 #
plane-surface $-1 -26.571011949818242 0.88086092321578136 100.66074516345545 0.71933980857756763 0 0.69465836192734942 0.69465836192734942 0 -0.71933980857756763 forward_v I I I I #
loop $-1 $-1 $222 $55 #
coedge $-1 $141 $141 $142 $223 reversed $87 $-1 #
coedge $-1 $142 $142 $141 $223 forward $89 $-1 #
coedge $-1 $143 $143 $90 $144 forward $138 $-1 #
edge $-1 $224 0 $224 6.2831853071796004 $143 $225 forward 7 unknown #
face $-1 $226 $227 $30 $-1 $228 reversed single #
loop $-1 $-1 $229 $91 #
plane-surface $-1 -178.68179960583598 5.9809473277561729 88.079488748244088 0 -1 0 0.80901700255871778 0 -0.5877852410284794 forward_v I I I I #
coedge $-1 $230 $231 $232 $233 reversed $92 $-1 #
coedge $-1 $150 $94 $234 $235 reversed $59 $-1 #
coedge $-1 $94 $149 $230 $236 reversed $59 $-1 #
coedge $-1 $232 $237 $94 $152 forward $238 $-1 #
edge $-1 $239 21.090525951176915 $240 23.706350645386237 $151 $241 forward 7 unknown #
loop $-1 $-1 $158 $95 #
plane-surface $-1 -68.250373851741074 0.88050501794858604 7.8463638587851818 -0.80901700255871778 0 0.5877852410284794 0.5877852410284794 0 0.80901700255871778 forward_v I I I I #
loop $-1 $-1 $242 $61 #
coedge $-1 $156 $156 $157 $243 reversed $96 $-1 #
coedge $-1 $157 $157 $156 $243 forward $98 $-1 #
coedge $-1 $158 $158 $99 $159 forward $153 $-1 #
edge $-1 $244 0 $244 6.2831853071796004 $158 $245 forward 7 unknown #
face $-1 $246 $247 $24 $-1 $248 reversed single #
loop $-1 $-1 $249 $100 #
plane-surface $-1 -68.250373851741074 0 0 1 0 0 0 0 -1 forward_v I I I I #
coedge $-1 $250 $171 $251 $252 forward $101 $-1 #
coedge $-1 $253 $103 $250 $254 forward $65 $-1 #
coedge $-1 $103 $253 $255 $256 forward $65 $-1 #
coedge $-1 $174 $173 $103 $167 reversed $175 $-1 #
edge $-1 $257 -28.349930979988326 $258 28.349930979988326 $166 $259 forward 7 unknown #
coedge $-1 $105 $104 $260 $261 forward $41 $-1 #
coedge $-1 $262 $263 $104 $170 reversed $247 $-1 #
edge $-1 $177 -68.250373851741074 $264 68.250373851741074 $169 $265 forward 7 unknown #
coedge $-1 $163 $266 $105 $172 reversed $101 $-1 #
edge $-1 $267 -68.250373851741074 $176 68.250373851741074 $171 $268 forward 7 unknown #
coedge $-1 $166 $106 $266 $269 forward $175 $-1 #
coedge $-1 $106 $166 $262 $270 reversed $175 $-1 #
loop $-1 $-1 $173 $246 #
vertex $-1 $107 $271 #
vertex $-1 $107 $272 #
straight-curve $-1 68.250373851741074 0 11.4467377804328 0 1 0 I I #
face $-1 $273 $274 $25 $-1 $275 reversed single #
loop $-1 $-1 $276 $108 #
plane-surface $-1 -68.250373851741074 0 0 1 0 0 0 0 -1 forward_v I I I I #
coedge $-1 $277 $188 $193 $278 reversed $109 $-1 #
coedge $-1 $279 $111 $280 $281 reversed $69 $-1 #
coedge $-1 $111 $279 $277 $282 forward $69 $-1 #
coedge $-1 $193 $192 $111 $186 forward $194 $-1 #
edge $-1 $283 -16.356780015178508 $284 -7.6295219144411224 $185 $285 forward 7 unknown #
coedge $-1 $113 $112 $276 $286 reversed $44 $-1 #
coedge $-1 $182 $287 $112 $189 reversed $109 $-1 #
edge $-1 $195 -68.250373851741074 $288 68.250373851741074 $188 $289 forward 7 unknown #
coedge $-1 $290 $291 $113 $191 forward $274 $-1 #
edge $-1 $196 -68.250373851741074 $292 68.250373851741074 $190 $293 forward 7 unknown #
coedge $-1 $185 $114 $291 $294 forward $194 $-1 #
coedge $-1 $114 $185 $182 $278 forward $194 $-1 #
loop $-1 $-1 $114 $273 #
vertex $-1 $115 $295 #
vertex $-1 $294 $296 #
straight-curve $-1 68.250373851741074 -11.993150964809816 -1.0163237091651056 0 -1 0 I I #
face $-1 $-1 $210 $26 $-1 $297 reversed single #
loop $-1 $-1 $298 $116 #
plane-surface $-1 0 0 11.4467377804328 0 0 1 1 0 0 forward_v I I I I #
coedge $-1 $299 $300 $301 $302 reversed $117 $-1 #
coedge $-1 $303 $119 $121 $208 forward $73 $-1 #
coedge $-1 $119 $303 $299 $304 forward $73 $-1 #
coedge $-1 $301 $122 $119 $205 forward $210 $-1 #
edge $-1 $212 -5.2732544392908718 $305 6.1541153625066531 $204 $306 forward 7 unknown #
coedge $-1 $307 $308 $120 $207 forward $199 $-1 #
edge $-1 $309 23.772246603711892 $211 32.440668964791342 $206 $310 forward 7 unknown #
edge $-1 $212 -136.50074770348215 $309 -124.02206345209177 $121 $311 forward 7 unknown #
coedge $-1 $122 $301 $307 $312 reversed $210 $-1 #
loop $-1 $-1 $301 $198 #
vertex $-1 $312 $313 #
vertex $-1 $123 $314 #
straight-curve $-1 68.250373851741074 -4.8328239776829811 97.741065482507381 0 0 -1 I I #
coedge $-1 $214 $214 $-1 $315 reversed $126 $-1 #
edge $-1 $316 0 $316 6.2831853071796004 $127 $317 forward 7 unknown #
vertex $-1 $130 $318 #
ellipse-curve $-1 63.916162671201334 -2.5473500173234775 6.9585306100852753 0.71933980857756763 0 0.69465836192734942 0.69465836192734942 0 -0.71933980857756763 1 I I #
coedge $-1 $218 $218 $-1 $319 reversed $133 $-1 #
edge $-1 $320 0 $320 6.2831853071796004 $134 $321 forward 7 unknown #
vertex $-1 $137 $322 #
ellipse-curve $-1 63.916162671201334 0.88086092321578136 6.9585306100852753 0.71933980857756763 0 0.69465836192734942 0.69465836192734942 0 -0.71933980857756763 1 I I #
coedge $-1 $222 $222 $-1 $323 reversed $140 $-1 #
edge $-1 $324 0 $324 6.2831853071796004 $141 $325 forward 7 unknown #
vertex $-1 $144 $326 #
ellipse-curve $-1 63.916162671201334 4.3090718637550403 6.9585306100852753 0.71933980857756763 0 0.69465836192734942 0.69465836192734942 0 -0.71933980857756763 1 I I #
face $-1 $-1 $238 $30 $-1 $327 forward single #
loop $-1 $-1 $328 $145 #
plane-surface $-1 -68.250373851741074 0 0 1 0 0 0 0 -1 forward_v I I I I #
coedge $-1 $329 $330 $331 $332 reversed $146 $-1 #
coedge $-1 $333 $148 $150 $236 forward $92 $-1 #
coedge $-1 $148 $333 $329 $334 forward $92 $-1 #
coedge $-1 $331 $151 $148 $233 forward $238 $-1 #
edge $-1 $240 -4.6601898008332938 $335 5.5406948187818799 $232 $336 forward 7 unknown #
coedge $-1 $337 $338 $149 $235 forward $227 $-1 #
edge $-1 $339 -36.193380515336862 $239 -32.593006593689246 $234 $340 forward 7 unknown #
edge $-1 $240 -4.4503068665560068 $339 0 $150 $341 forward 7 unknown #
coedge $-1 $151 $331 $337 $342 forward $238 $-1 #
loop $-1 $-1 $331 $226 #
vertex $-1 $235 $343 #
vertex $-1 $152 $344 #
straight-curve $-1 -89.340899802917988 -4.2199372918590008 11.446737780432798 1 0 0 I I #
coedge $-1 $242 $242 $-1 $345 reversed $155 $-1 #
edge $-1 $346 0 $346 6.2831853071796004 $156 $347 forward 7 unknown #
vertex $-1 $159 $348 #
ellipse-curve $-1 -66.942461504636412 0.8805050179485896 9.6465508196089864 -0.80901700255871778 0 0.5877852410284794 0.5877852410284794 0 0.80901700255871778 1 I I #
face $-1 $-1 $175 $24 $-1 $349 reversed single #
loop $-1 $-1 $262 $160 #
plane-surface $-1 0 28.349930979988326 0 0 -1 0 0 0 -1 forward_v I I I I #
coedge $-1 $350 $260 $263 $351 forward $161 $-1 #
coedge $-1 $266 $163 $164 $254 reversed $101 $-1 #
coedge $-1 $260 $350 $163 $252 reversed $161 $-1 #
edge $-1 $267 -11.4467377804328 $352 11.4467377804328 $251 $353 forward 7 unknown #
coedge $-1 $165 $164 $350 $354 forward $65 $-1 #
edge $-1 $258 -68.250373851741074 $352 68.250373851741074 $250 $355 forward 7 unknown #
coedge $-1 $263 $262 $165 $256 reversed $247 $-1 #
edge $-1 $356 -68.250373851741074 $257 68.250373851741074 $255 $357 forward 7 unknown #
vertex $-1 $167 $358 #
vertex $-1 $269 $359 #
straight-curve $-1 68.250373851741074 0 -11.4467377804328 0 -1 0 I I #
coedge $-1 $249 $251 $168 $261 reversed $161 $-1 #
edge $-1 $264 -28.349930979988326 $267 28.349930979988326 $260 $360 forward 7 unknown #
coedge $-1 $255 $169 $174 $270 forward $247 $-1 #
coedge $-1 $169 $255 $249 $351 reversed $247 $-1 #
vertex $-1 $170 $361 #
straight-curve $-1 0 28.349930979988326 11.4467377804328 -1 0 0 I I #
coedge $-1 $171 $250 $173 $269 reversed $101 $-1 #
vertex $-1 $261 $362 #
straight-curve $-1 0 -28.349930979988326 11.4467377804328 1 0 0 I I #
edge $-1 $176 -11.4467377804328 $258 11.4467377804328 $173 $363 forward 7 unknown #
edge $-1 $177 -11.4467377804328 $257 11.4467377804328 $174 $364 forward 7 unknown #
point $-1 68.250373851741074 -28.349930979988326 11.4467377804328 #
point $-1 68.250373851741074 28.349930979988326 11.4467377804328 #
face $-1 $-1 $194 $25 $-1 $365 reversed single #
loop $-1 $-1 $190 $179 #
plane-surface $-1 0 -28.349930979988326 0 0 1 0 0 0 1 forward_v I I I I #
coedge $-1 $366 $367 $187 $286 forward $180 $-1 #
coedge $-1 $287 $182 $184 $282 reversed $109 $-1 #
edge $-1 $284 -3.064839837210334 $195 0.34406413962670745 $193 $368 forward 7 unknown #
coedge $-1 $184 $183 $369 $370 reversed $69 $-1 #
coedge $-1 $291 $290 $183 $281 forward $274 $-1 #
edge $-1 $371 -68.250373851741074 $283 68.250373851741074 $280 $372 forward 7 unknown #
edge $-1 $373 -68.250373851741074 $284 68.250373851741074 $277 $374 forward 7 unknown #
vertex $-1 $281 $375 #
vertex $-1 $186 $376 #
straight-curve $-1 68.250373851741074 -11.993150964809816 -4.4252276860021471 0 1 0 I I #
edge $-1 $292 -16.356780015178508 $288 -7.6295219144411224 $276 $377 forward 7 unknown #
coedge $-1 $188 $277 $366 $378 reversed $109 $-1 #
vertex $-1 $286 $379 #
straight-curve $-1 0 -19.622672879250938 -1.0163237091651056 -1 0 0 I I #
coedge $-1 $280 $190 $367 $380 forward $274 $-1 #
coedge $-1 $190 $280 $192 $294 reversed $274 $-1 #
vertex $-1 $380 $381 #
straight-curve $-1 0 -28.349930979988326 -1.0163237091651056 -1 0 0 I I #
edge $-1 $196 1.0163237091651056 $283 4.4252276860021471 $192 $382 forward 7 unknown #
point $-1 68.250373851741074 -19.622672879250938 -1.0163237091651056 #
point $-1 68.250373851741074 -28.349930979988326 -1.0163237091651056 #
plane-surface $-1 68.250373851741074 0 0 -1 0 0 0 0 1 forward_v I I I I #
coedge $-1 $308 $307 $300 $383 forward $199 $-1 #
coedge $-1 $300 $201 $203 $304 reversed $117 $-1 #
coedge $-1 $201 $299 $298 $383 reversed $117 $-1 #
coedge $-1 $209 $204 $201 $302 forward $210 $-1 #
edge $-1 $305 -95.270742042769641 $384 -86.294327702074582 $301 $385 forward 7 unknown #
coedge $-1 $203 $202 $308 $386 reversed $73 $-1 #
edge $-1 $387 124.02206345209177 $305 136.50074770348215 $299 $388 forward 7 unknown #
vertex $-1 $205 $389 #
straight-curve $-1 68.250373851741074 0.44043046160789068 2.4703234397377329 0 1 0 I I #
coedge $-1 $298 $206 $209 $312 forward $199 $-1 #
coedge $-1 $206 $298 $303 $386 forward $199 $-1 #
vertex $-1 $207 $390 #
straight-curve $-1 35.809704886949731 -4.8328239776829811 11.446737780432798 1 0 0 I I #
straight-curve $-1 -26.571011949818242 -4.8328239776829811 100.66074516345545 -0.69465836192734942 0 0.71933980857756763 I I #
edge $-1 $211 -4.8328239776829811 $384 6.5945458241145438 $209 $391 forward 7 unknown #
point $-1 68.250373851741074 -4.8328239776829811 11.4467377804328 #
point $-1 68.250373851741074 -4.8328239776829811 2.47032343973774 #
edge $-1 $392 1 $392 0 $214 $-1 forward 7 unknown #
vertex $-1 $215 $393 #
ellipse-curve $-1 62.460118089643466 -2.5473500173234775 5.5524447354299475 0.71933980857756763 0 0.69465836192734942 0.69465836192734942 0 -0.71933980857756763 1 I I #
point $-1 64.610821033128701 -2.5473500173234775 6.2391908015077178 #
edge $-1 $394 1 $394 0 $218 $-1 forward 7 unknown #
vertex $-1 $219 $395 #
ellipse-curve $-1 62.460118089643466 0.88086092321578136 5.5524447354299475 0.71933980857756763 0 0.69465836192734942 0.69465836192734942 0 -0.71933980857756763 1 I I #
point $-1 64.610821033128701 0.88086092321578136 6.2391908015077178 #
edge $-1 $396 1 $396 0 $222 $-1 forward 7 unknown #
vertex $-1 $223 $397 #
ellipse-curve $-1 62.460118089643466 4.3090718637550403 5.5524447354299475 0.71933980857756763 0 0.69465836192734942 0.69465836192734942 0 -0.71933980857756763 1 I I #
point $-1 64.610821033128701 4.3090718637550403 6.2391908015077178 #
plane-surface $-1 0 0 11.4467377804328 0 0 1 1 0 0 forward_v I I I I #
coedge $-1 $338 $337 $330 $398 forward $227 $-1 #
coedge $-1 $330 $229 $231 $334 reversed $146 $-1 #
coedge $-1 $229 $329 $328 $398 reversed $146 $-1 #
coedge $-1 $237 $232 $229 $332 forward $238 $-1 #
edge $-1 $335 -23.706350645386237 $399 -21.090525951176915 $331 $400 forward 7 unknown #
coedge $-1 $231 $230 $338 $401 reversed $92 $-1 #
edge $-1 $402 0 $335 4.4503068665560068 $329 $403 forward 7 unknown #
vertex $-1 $233 $404 #
straight-curve $-1 -65.634549157531751 0.44025250897429302 11.446737780432802 0 1 0 I I #
coedge $-1 $328 $234 $237 $342 reversed $227 $-1 #
coedge $-1 $234 $328 $333 $401 forward $227 $-1 #
vertex $-1 $235 $405 #
straight-curve $-1 -68.250373851741074 -4.2199372918590008 44.039744374122044 0 0 1 I I #
straight-curve $-1 -68.250373851741074 -4.2199372918590008 7.8463638587851818 -0.5877852410284794 0 -0.80901700255871778 I I #
edge $-1 $399 -5.9809473277561729 $239 4.2199372918590008 $337 $406 forward 7 unknown #
point $-1 -68.250373851741074 -4.2199372918590008 11.4467377804328 #
point $-1 -65.634549157531751 -4.2199372918590008 11.4467377804328 #
edge $-1 $407 1 $407 0 $242 $-1 forward 7 unknown #
vertex $-1 $243 $408 #
ellipse-curve $-1 -65.941677325989744 0.8805050179485896 8.9194385737564978 -0.80901700255871778 0 0.5877852410284794 0.5877852410284794 0 0.80901700255871778 1 I I #
point $-1 -66.354676263607928 0.8805050179485896 10.4555678221677 #
plane-surface $-1 68.250373851741074 0 0 -1 0 0 0 0 1 forward_v I I I I #
coedge $-1 $251 $249 $253 $354 reversed $161 $-1 #
edge $-1 $264 -11.4467377804328 $356 11.4467377804328 $263 $409 forward 7 unknown #
vertex $-1 $354 $410 #
straight-curve $-1 -68.250373851741074 -28.349930979988326 0 0 0 -1 I I #
edge $-1 $352 -28.349930979988326 $356 28.349930979988326 $350 $411 forward 7 unknown #
straight-curve $-1 0 -28.349930979988326 -11.4467377804328 -1 0 0 I I #
vertex $-1 $256 $412 #
straight-curve $-1 0 28.349930979988326 -11.4467377804328 1 0 0 I I #
point $-1 68.250373851741074 28.349930979988326 -11.4467377804328 #
point $-1 68.250373851741074 -28.349930979988326 -11.4467377804328 #
straight-curve $-1 -68.250373851741074 0 11.4467377804328 0 -1 0 I I #
point $-1 -68.250373851741074 28.349930979988326 11.4467377804328 #
point $-1 -68.250373851741074 -28.349930979988326 11.4467377804328 #
straight-curve $-1 68.250373851741074 -28.349930979988326 0 0 0 -1 I I #
straight-curve $-1 68.250373851741074 28.349930979988326 0 0 0 -1 I I #
plane-surface $-1 68.250373851741074 0 0 -1 0 0 0 0 1 forward_v I I I I #
coedge $-1 $369 $276 $287 $378 forward $180 $-1 #
coedge $-1 $276 $369 $290 $380 reversed $180 $-1 #
straight-curve $-1 68.250373851741074 -19.622672879250938 -1.3603878487918131 0 0 1 I I #
coedge $-1 $367 $366 $279 $370 forward $180 $-1 #
edge $-1 $373 7.6295219144411224 $371 16.356780015178508 $369 $413 forward 7 unknown #
vertex $-1 $281 $414 #
straight-curve $-1 0 -28.349930979988326 -4.4252276860021471 1 0 0 I I #
vertex $-1 $370 $415 #
straight-curve $-1 0 -19.622672879250938 -4.4252276860021471 1 0 0 I I #
point $-1 68.250373851741074 -28.349930979988326 -4.4252276860021471 #
point $-1 68.250373851741074 -19.622672879250938 -4.4252276860021471 #
straight-curve $-1 -68.250373851741074 -11.993150964809816 -1.0163237091651056 0 1 0 I I #
edge $-1 $288 -0.34406413962670745 $373 3.064839837210334 $366 $416 forward 7 unknown #
point $-1 -68.250373851741074 -19.622672879250938 -1.0163237091651056 #
edge $-1 $292 1.0163237091651056 $371 4.4252276860021471 $367 $417 forward 7 unknown #
point $-1 -68.250373851741074 -28.349930979988326 -1.0163237091651056 #
straight-curve $-1 68.250373851741074 -28.349930979988326 0 0 0 -1 I I #
edge $-1 $384 -32.440668964791342 $387 -23.772246603711892 $298 $418 forward 7 unknown #
vertex $-1 $383 $419 #
straight-curve $-1 68.250373851741074 6.5945458241145438 97.741065482507381 0 0 1 I I #
edge $-1 $387 -6.1541153625066531 $309 5.2732544392908718 $308 $420 forward 7 unknown #
vertex $-1 $386 $421 #
straight-curve $-1 -26.571011949818242 6.5945458241145438 100.66074516345545 0.69465836192734942 0 -0.71933980857756763 I I #
point $-1 68.250373851741074 6.5945458241145438 2.47032343973774 #
point $-1 59.581951490661623 -4.8328239776829811 11.446737780432798 #
straight-curve $-1 68.250373851741074 0 11.4467377804328 0 1 0 I I #
vertex $-1 $315 $422 #
point $-1 63.154776451570811 -2.5473500173234775 4.8331049268523802 #
vertex $-1 $319 $423 #
point $-1 63.154776451570811 0.88086092321578136 4.8331049268523802 #
vertex $-1 $323 $424 #
point $-1 63.154776451570811 4.3090718637550403 4.8331049268523802 #
edge $-1 $399 32.593006593689246 $402 36.193380515336862 $328 $425 forward 7 unknown #
vertex $-1 $342 $426 #
straight-curve $-1 -89.340899802917988 5.9809473277561729 11.446737780432798 -1 0 0 I I #
edge $-1 $402 -5.5406948187818799 $339 4.6601898008332938 $338 $427 forward 7 unknown #
vertex $-1 $401 $428 #
straight-curve $-1 -68.250373851741074 5.9809473277561729 7.8463638587851818 0.5877852410284794 0 0.80901700255871778 I I #
point $-1 -65.634549157531751 5.9809473277561729 11.4467377804328 #
point $-1 -68.250373851741074 -4.2199372918590008 7.8463638587851818 #
straight-curve $-1 -68.250373851741074 0 11.4467377804328 0 -1 0 I I #
vertex $-1 $345 $429 #
point $-1 -65.353892084961274 0.8805050179485896 9.7284555763152145 #
straight-curve $-1 -68.250373851741074 28.349930979988326 0 0 0 -1 I I #
point $-1 -68.250373851741074 -28.349930979988326 -11.4467377804328 #
straight-curve $-1 -68.250373851741074 0 -11.4467377804328 0 1 0 I I #
point $-1 -68.250373851741074 28.349930979988326 -11.4467377804328 #
straight-curve $-1 -68.250373851741074 -11.993150964809816 -4.4252276860021471 0 -1 0 I I #
point $-1 -68.250373851741074 -28.349930979988326 -4.4252276860021471 #
point $-1 -68.250373851741074 -19.622672879250938 -4.4252276860021471 #
straight-curve $-1 -68.250373851741074 -19.622672879250938 -1.3603878487918131 0 0 -1 I I #
straight-curve $-1 -68.250373851741074 -28.349930979988326 0 0 0 -1 I I #
straight-curve $-1 35.809704886949731 6.5945458241145438 11.446737780432798 -1 0 0 I I #
point $-1 68.250373851741074 6.5945458241145438 11.4467377804328 #
straight-curve $-1 59.581951490661638 0.44043046160789068 11.446737780432805 0 -1 0 I I #
point $-1 59.581951490661623 6.5945458241145438 11.446737780432798 #
point $-1 61.740778281065893 -2.5473500173234775 4.8577863735025986 #
point $-1 61.740778281065893 0.88086092321578136 4.8577863735025986 #
point $-1 61.740778281065893 4.3090718637550403 4.8577863735025986 #
straight-curve $-1 -68.250373851741074 5.9809473277561729 44.039744374122044 0 0 -1 I I #
point $-1 -68.250373851741074 5.9809473277561729 11.4467377804328 #
straight-curve $-1 -68.250373851741074 0.44025250897429302 7.8463638587851783 0 -1 0 I I #
point $-1 -68.250373851741074 5.9809473277561729 7.8463638587851818 #
point $-1 -65.13266032343104 0.8805050179485896 8.3316533327280169 #
End-of-ACIS-data 