500 0 11 0           
7 Unknown 11 ACIS 5.0 NT 24 Fri Mar 26 02:06:27 1999 
-1 9.9999999999999995e-007 1e-010 
body $-1 $11 $-1 $12 #
body $-1 $13 $-1 $14 #
body $-1 $15 $-1 $16 #
body $-1 $17 $-1 $18 #
body $-1 $19 $-1 $20 #
body $-1 $21 $-1 $22 #
body $-1 $23 $-1 $24 #
body $-1 $25 $-1 $26 #
body $-1 $27 $-1 $28 #
body $-1 $29 $-1 $30 #
body $-1 $31 $-1 $32 #
lump $-1 $-1 $33 $0 #
transform $-1 1 0 0 0 1 0 0 0 1 57.041535691396831 32.065082756055908 15.658528663120745 1 rotate no_reflect no_shear #
lump $-1 $-1 $34 $1 #
transform $-1 1 0 0 0 1 0 0 0 1 57.041535691396831 32.065082756055908 15.658528663120745 1 rotate no_reflect no_shear #
lump $-1 $-1 $35 $2 #
transform $-1 1 0 0 0 1 0 0 0 1 57.041535691396831 32.065082756055908 15.658528663120745 1 rotate no_reflect no_shear #
lump $-1 $-1 $36 $3 #
transform $-1 1 0 0 0 1 0 0 0 1 57.041535691396831 32.065082756055908 15.658528663120745 1 rotate no_reflect no_shear #
lump $-1 $-1 $37 $4 #
transform $-1 1 0 0 0 1 0 0 0 1 57.041535691396831 32.065082756055908 15.658528663120745 1 rotate no_reflect no_shear #
lump $-1 $-1 $38 $5 #
transform $-1 1 0 0 0 1 0 0 0 1 57.041535691396831 32.065082756055908 15.658528663120745 1 rotate no_reflect no_shear #
lump $-1 $-1 $39 $6 #
transform $-1 1 0 0 0 1 0 0 0 1 57.041535691396831 32.065082756055908 15.658528663120745 1 rotate no_reflect no_shear #
lump $-1 $-1 $40 $7 #
transform $-1 1 0 0 0 1 0 0 0 1 57.041535691396831 32.065082756055908 15.658528663120745 1 rotate no_reflect no_shear #
lump $-1 $-1 $41 $8 #
transform $-1 1 0 0 0 1 0 0 0 1 57.041535691396831 32.065082756055908 15.658528663120745 1 rotate no_reflect no_shear #
lump $-1 $-1 $42 $9 #
transform $-1 1 0 0 0 1 0 0 0 1 57.041535691396831 32.065082756055908 15.658528663120745 1 rotate no_reflect no_shear #
lump $-1 $-1 $43 $10 #
transform $-1 1 0 0 0 1 0 0 0 1 57.041535691396831 32.065082756055908 15.658528663120745 1 rotate no_reflect no_shear #
shell $-1 $-1 $-1 $44 $-1 $11 #
shell $-1 $-1 $-1 $45 $-1 $13 #
shell $-1 $-1 $-1 $46 $-1 $15 #
shell $-1 $-1 $-1 $47 $-1 $17 #
shell $-1 $-1 $-1 $48 $-1 $19 #
shell $-1 $-1 $-1 $49 $-1 $21 #
shell $-1 $-1 $-1 $50 $-1 $23 #
shell $-1 $-1 $-1 $51 $-1 $25 #
shell $-1 $-1 $-1 $52 $-1 $27 #
shell $-1 $-1 $-1 $53 $-1 $29 #
shell $-1 $-1 $-1 $54 $-1 $31 #
face $-1 $55 $56 $33 $-1 $57 forward single #
face $-1 $58 $59 $34 $-1 $60 forward single #
face $-1 $61 $62 $35 $-1 $63 reversed single #
face $-1 $64 $65 $36 $-1 $66 reversed single #
face $-1 $67 $68 $37 $-1 $69 forward single #
face $-1 $70 $71 $38 $-1 $72 forward single #
face $-1 $73 $74 $39 $-1 $75 forward single #
face $-1 $76 $77 $40 $-1 $78 reversed single #
face $-1 $79 $80 $41 $-1 $81 forward single #
face $-1 $82 $83 $42 $-1 $84 forward single #
face $-1 $85 $86 $43 $-1 $87 forward single #
face $-1 $88 $89 $33 $-1 $90 reversed single #
loop $-1 $-1 $91 $44 #
plane-surface $-1 0 0 15.658528663120745 0 0 1 1 0 0 forward_v I I I I #
face $-1 $92 $93 $34 $-1 $94 reversed single #
loop $-1 $-1 $95 $45 #
plane-surface $-1 0 -32.065082756055908 0 0 1 0 0 0 1 forward_v I I I I #
face $-1 $96 $97 $35 $-1 $98 reversed single #
loop $-1 $-1 $99 $46 #
plane-surface $-1 0 25.568367958838799 7.0431122424554822 0 0 1 1 0 0 forward_v I I I I #
face $-1 $100 $101 $36 $-1 $102 reversed single #
loop $-1 $-1 $103 $47 #
plane-surface $-1 15.284234628971504 -11.796061993172813 158.40592128806946 0 -1 0 -0.50000000669873634 0 -0.8660253999169214 forward_v I I I I #
face $-1 $104 $105 $37 $-1 $106 forward single #
loop $-1 $107 $108 $48 #
cone-surface $-1 45.452681431350968 -19.459717745852473 8.679025288814735 -0.50000000669873634 0 -0.8660253999169214 0.4330126999584607 0 -0.25000000334936817 1 I I 0 1 0.5 forward I I I I #
face $-1 $109 $110 $38 $-1 $111 forward single #
loop $-1 $112 $113 $49 #
cone-surface $-1 45.452681431350968 -16.5858468385976 8.679025288814735 -0.50000000669873634 0 -0.8660253999169214 0.4330126999584607 0 -0.25000000334936817 1 I I 0 1 0.5 forward I I I I #
face $-1 $114 $115 $39 $-1 $116 forward single #
loop $-1 $117 $118 $50 #
cone-surface $-1 45.452681431350968 -13.711975931342728 8.679025288814735 -0.50000000669873634 0 -0.8660253999169214 0.4330126999584607 0 -0.25000000334936817 1 I I 0 1 0.5 forward I I I I #
face $-1 $119 $120 $40 $-1 $121 reversed single #
loop $-1 $-1 $122 $51 #
plane-surface $-1 -114.08307214700608 -21.375631684022387 101.3643848324602 0 1 0 -0.50000000669873634 0 0.8660253999169214 forward_v I I I I #
face $-1 $123 $124 $41 $-1 $125 forward single #
loop $-1 $126 $127 $52 #
cone-surface $-1 -45.452681431350982 -19.459717745852473 8.6790252888147315 0.50000000669873634 0 -0.8660253999169214 0.4330126999584607 0 0.25000000334936817 1 I I 0 1 0.5 forward I I I I #
face $-1 $128 $129 $42 $-1 $130 forward single #
loop $-1 $131 $132 $53 #
cone-surface $-1 -45.452681431350982 -16.5858468385976 8.6790252888147315 0.50000000669873634 0 -0.8660253999169214 0.4330126999584607 0 0.25000000334936817 1 I I 0 1 0.5 forward I I I I #
face $-1 $133 $134 $43 $-1 $135 forward single #
loop $-1 $136 $137 $54 #
cone-surface $-1 -45.452681431350982 -13.711975931342728 8.6790252888147315 0.50000000669873634 0 -0.8660253999169214 0.4330126999584607 0 0.25000000334936817 1 I I 0 1 0.5 forward I I I I #
face $-1 $138 $139 $33 $-1 $140 reversed single #
loop $-1 $-1 $141 $55 #
plane-surface $-1 0 0 -15.658528663120745 0 0 1 1 0 0 forward_v I I I I #
coedge $-1 $142 $143 $144 $145 forward $56 $-1 #
face $-1 $146 $147 $34 $-1 $148 forward single #
loop $-1 $-1 $149 $58 #
plane-surface $-1 -57.041535691396831 0 0 1 0 0 0 0 -1 forward_v I I I I #
coedge $-1 $150 $151 $152 $153 forward $59 $-1 #
face $-1 $154 $155 $35 $-1 $156 reversed single #
loop $-1 $-1 $157 $61 #
plane-surface $-1 0 19.071653161621686 11.350820452788113 0 1 0 0 0 1 forward_v I I I I #
coedge $-1 $158 $159 $160 $161 reversed $62 $-1 #
face $-1 $162 $163 $36 $-1 $164 reversed single #
loop $-1 $-1 $165 $64 #
plane-surface $-1 -41.757301826637743 -16.5858468385976 59.60708377003489 0.50000000669873634 0 0.8660253999169214 0.8660253999169214 0 -0.50000000669873634 forward_v I I I I #
coedge $-1 $166 $167 $168 $169 reversed $65 $-1 #
face $-1 $-1 $170 $37 $-1 $171 forward single #
loop $-1 $172 $173 $67 #
cone-surface $-1 45.077681426326919 -19.459717745852473 8.029506238877044 -0.50000000669873634 0 -0.8660253999169214 0.21650634997923035 0 -0.12500000167468409 1 I I -0.70710678118654746 0.70710678118654746 0.25 forward I I I I #
loop $-1 $-1 $174 $48 #
coedge $-1 $108 $108 $175 $176 reversed $68 $-1 #
face $-1 $-1 $177 $38 $-1 $178 forward single #
loop $-1 $179 $180 $70 #
cone-surface $-1 45.077681426326919 -16.5858468385976 8.029506238877044 -0.50000000669873634 0 -0.8660253999169214 0.21650634997923035 0 -0.12500000167468409 1 I I -0.70710678118654746 0.70710678118654746 0.25 forward I I I I #
loop $-1 $-1 $181 $49 #
coedge $-1 $113 $113 $182 $183 reversed $71 $-1 #
face $-1 $-1 $184 $39 $-1 $185 forward single #
loop $-1 $186 $187 $73 #
cone-surface $-1 45.077681426326919 -13.711975931342728 8.029506238877044 -0.50000000669873634 0 -0.8660253999169214 0.21650634997923035 0 -0.12500000167468409 1 I I -0.70710678118654746 0.70710678118654746 0.25 forward I I I I #
loop $-1 $-1 $188 $50 #
coedge $-1 $118 $118 $189 $190 reversed $74 $-1 #
face $-1 $191 $192 $40 $-1 $193 reversed single #
loop $-1 $-1 $194 $76 #
plane-surface $-1 -57.041535691396831 -16.5858468385976 2.5655473144256291 -0.50000000669873634 0 0.8660253999169214 0.8660253999169214 0 0.50000000669873634 forward_v I I I I #
coedge $-1 $195 $196 $197 $198 reversed $77 $-1 #
face $-1 $-1 $199 $41 $-1 $200 forward single #
loop $-1 $201 $202 $79 #
cone-surface $-1 -45.077681426326933 -19.459717745852473 8.0295062388770404 0.50000000669873634 0 -0.8660253999169214 0.21650634997923035 0 0.12500000167468409 1 I I -0.70710678118654746 0.70710678118654746 0.25 forward I I I I #
loop $-1 $-1 $203 $52 #
coedge $-1 $127 $127 $204 $205 reversed $80 $-1 #
face $-1 $-1 $206 $42 $-1 $207 forward single #
loop $-1 $208 $209 $82 #
cone-surface $-1 -45.077681426326933 -16.5858468385976 8.0295062388770404 0.50000000669873634 0 -0.8660253999169214 0.21650634997923035 0 0.12500000167468409 1 I I -0.70710678118654746 0.70710678118654746 0.25 forward I I I I #
loop $-1 $-1 $210 $53 #
coedge $-1 $132 $132 $211 $212 reversed $83 $-1 #
face $-1 $-1 $213 $43 $-1 $214 forward single #
loop $-1 $215 $216 $85 #
cone-surface $-1 -45.077681426326933 -13.711975931342728 8.0295062388770404 0.50000000669873634 0 -0.8660253999169214 0.21650634997923035 0 0.12500000167468409 1 I I -0.70710678118654746 0.70710678118654746 0.25 forward I I I I #
loop $-1 $-1 $217 $54 #
coedge $-1 $137 $137 $218 $219 reversed $86 $-1 #
face $-1 $220 $221 $33 $-1 $222 reversed single #
loop $-1 $-1 $223 $88 #
plane-surface $-1 0 -32.065082756055908 0 0 1 0 0 0 1 forward_v I I I I #
coedge $-1 $224 $225 $226 $227 forward $89 $-1 #
coedge $-1 $228 $91 $229 $230 forward $56 $-1 #
coedge $-1 $91 $228 $231 $232 forward $56 $-1 #
coedge $-1 $233 $234 $91 $145 reversed $235 $-1 #
edge $-1 $236 -32.065082756055908 $237 32.065082756055908 $144 $238 forward 7 unknown #
face $-1 $239 $240 $34 $-1 $241 reversed single #
loop $-1 $-1 $242 $92 #
plane-surface $-1 0 -37.409808292072668 7.3558953212132998 0 0 1 1 0 0 forward_v I I I I #
coedge $-1 $243 $244 $151 $245 forward $93 $-1 #
coedge $-1 $246 $95 $247 $248 reversed $59 $-1 #
coedge $-1 $95 $246 $149 $245 reversed $59 $-1 #
coedge $-1 $249 $242 $95 $153 reversed $147 $-1 #
edge $-1 $250 -57.041535691396831 $251 57.041535691396831 $152 $252 forward 7 unknown #
face $-1 $253 $254 $35 $-1 $255 reversed single #
loop $-1 $-1 $256 $96 #
plane-surface $-1 57.041535691396831 0 0 -1 0 0 0 0 1 forward_v I I I I #
coedge $-1 $257 $258 $259 $260 reversed $97 $-1 #
coedge $-1 $261 $99 $257 $262 forward $62 $-1 #
coedge $-1 $99 $261 $263 $264 reversed $62 $-1 #
coedge $-1 $265 $256 $99 $161 forward $155 $-1 #
edge $-1 $266 6.2874691822022868 $267 19.280898776636516 $160 $268 forward 7 unknown #
face $-1 $269 $270 $36 $-1 $271 forward single #
loop $-1 $-1 $272 $100 #
plane-surface $-1 15.284234628971504 -21.375631684022387 158.40592128806946 0 1 0 0.50000000669873634 0 0.8660253999169214 forward_v I I I I #
coedge $-1 $273 $274 $275 $276 reversed $101 $-1 #
coedge $-1 $167 $103 $277 $278 reversed $65 $-1 #
coedge $-1 $103 $166 $273 $279 reversed $65 $-1 #
coedge $-1 $275 $280 $103 $169 forward $270 $-1 #
edge $-1 $281 -49.399418376911079 $282 -26.721709863518122 $168 $283 forward 7 unknown #
loop $-1 $-1 $175 $104 #
plane-surface $-1 -41.757301826637743 -16.5858468385976 59.60708377003489 0.50000000669873634 0 0.8660253999169214 0.8660253999169214 0 -0.50000000669873634 forward_v I I I I #
loop $-1 $-1 $284 $67 #
coedge $-1 $173 $173 $174 $285 reversed $105 $-1 #
coedge $-1 $174 $174 $173 $285 forward $107 $-1 #
coedge $-1 $175 $175 $108 $176 forward $170 $-1 #
edge $-1 $286 0 $286 6.2831853071796004 $175 $287 forward 7 unknown #
loop $-1 $-1 $182 $109 #
plane-surface $-1 -41.757301826637743 -16.5858468385976 59.60708377003489 0.50000000669873634 0 0.8660253999169214 0.8660253999169214 0 -0.50000000669873634 forward_v I I I I #
loop $-1 $-1 $288 $70 #
coedge $-1 $180 $180 $181 $289 reversed $110 $-1 #
coedge $-1 $181 $181 $180 $289 forward $112 $-1 #
coedge $-1 $182 $182 $113 $183 forward $177 $-1 #
edge $-1 $290 0 $290 6.2831853071796004 $182 $291 forward 7 unknown #
loop $-1 $-1 $189 $114 #
plane-surface $-1 -41.757301826637743 -16.5858468385976 59.60708377003489 0.50000000669873634 0 0.8660253999169214 0.8660253999169214 0 -0.50000000669873634 forward_v I I I I #
loop $-1 $-1 $292 $73 #
coedge $-1 $187 $187 $188 $293 reversed $115 $-1 #
coedge $-1 $188 $188 $187 $293 forward $117 $-1 #
coedge $-1 $189 $189 $118 $190 forward $184 $-1 #
edge $-1 $294 0 $294 6.2831853071796004 $189 $295 forward 7 unknown #
face $-1 $296 $297 $40 $-1 $298 reversed single #
loop $-1 $-1 $299 $119 #
plane-surface $-1 -114.08307214700608 -11.796061993172813 101.3643848324602 0 -1 0 0.50000000669873634 0 -0.8660253999169214 forward_v I I I I #
coedge $-1 $300 $301 $302 $303 reversed $120 $-1 #
coedge $-1 $196 $122 $304 $305 reversed $77 $-1 #
coedge $-1 $122 $195 $300 $306 reversed $77 $-1 #
coedge $-1 $302 $307 $122 $198 forward $308 $-1 #
edge $-1 $309 3.8210620800782635e-007 $310 22.677708895499187 $197 $311 forward 7 unknown #
loop $-1 $-1 $204 $123 #
plane-surface $-1 -57.041535691396831 -16.5858468385976 2.5655473144256291 -0.50000000669873634 0 0.8660253999169214 0.8660253999169214 0 0.50000000669873634 forward_v I I I I #
loop $-1 $-1 $312 $79 #
coedge $-1 $202 $202 $203 $313 reversed $124 $-1 #
coedge $-1 $203 $203 $202 $313 forward $126 $-1 #
coedge $-1 $204 $204 $127 $205 forward $199 $-1 #
edge $-1 $314 0 $314 6.2831853071796004 $204 $315 forward 7 unknown #
loop $-1 $-1 $211 $128 #
plane-surface $-1 -57.041535691396831 -16.5858468385976 2.5655473144256291 -0.50000000669873634 0 0.8660253999169214 0.8660253999169214 0 0.50000000669873634 forward_v I I I I #
loop $-1 $-1 $316 $82 #
coedge $-1 $209 $209 $210 $317 reversed $129 $-1 #
coedge $-1 $210 $210 $209 $317 forward $131 $-1 #
coedge $-1 $211 $211 $132 $212 forward $206 $-1 #
edge $-1 $318 0 $318 6.2831853071796004 $211 $319 forward 7 unknown #
loop $-1 $-1 $218 $133 #
plane-surface $-1 -57.041535691396831 -16.5858468385976 2.5655473144256291 -0.50000000669873634 0 0.8660253999169214 0.8660253999169214 0 0.50000000669873634 forward_v I I I I #
loop $-1 $-1 $320 $85 #
coedge $-1 $216 $216 $217 $321 reversed $134 $-1 #
coedge $-1 $217 $217 $216 $321 forward $136 $-1 #
coedge $-1 $218 $218 $137 $219 forward $213 $-1 #
edge $-1 $322 0 $322 6.2831853071796004 $218 $323 forward 7 unknown #
face $-1 $324 $325 $33 $-1 $326 reversed single #
loop $-1 $-1 $327 $138 #
plane-surface $-1 -57.041535691396831 0 0 1 0 0 0 0 -1 forward_v I I I I #
coedge $-1 $328 $231 $329 $330 forward $139 $-1 #
coedge $-1 $331 $141 $328 $332 forward $89 $-1 #
coedge $-1 $141 $331 $333 $334 forward $89 $-1 #
coedge $-1 $234 $233 $141 $227 reversed $235 $-1 #
edge $-1 $335 -32.065082756055908 $336 32.065082756055908 $226 $337 forward 7 unknown #
coedge $-1 $143 $142 $338 $339 forward $56 $-1 #
coedge $-1 $340 $341 $142 $230 reversed $325 $-1 #
edge $-1 $237 -57.041535691396831 $342 57.041535691396831 $229 $343 forward 7 unknown #
coedge $-1 $223 $344 $143 $232 reversed $139 $-1 #
edge $-1 $345 -57.041535691396831 $236 57.041535691396831 $231 $346 forward 7 unknown #
coedge $-1 $226 $144 $344 $347 forward $235 $-1 #
coedge $-1 $144 $226 $340 $348 reversed $235 $-1 #
loop $-1 $-1 $233 $324 #
vertex $-1 $145 $349 #
vertex $-1 $145 $350 #
straight-curve $-1 57.041535691396831 0 15.658528663120745 0 1 0 I I #
face $-1 $351 $352 $34 $-1 $353 reversed single #
loop $-1 $-1 $354 $146 #
plane-surface $-1 0 -37.409808292072668 0.6968989678967823 0 0 1 1 0 0 forward_v I I I I #
coedge $-1 $152 $355 $356 $357 forward $147 $-1 #
coedge $-1 $358 $149 $359 $360 reversed $93 $-1 #
coedge $-1 $149 $358 $249 $361 reversed $93 $-1 #
edge $-1 $250 -7.3558953212132998 $362 -0.6968989678967823 $149 $363 forward 7 unknown #
coedge $-1 $151 $150 $364 $365 forward $59 $-1 #
coedge $-1 $356 $366 $150 $248 forward $367 $-1 #
edge $-1 $368 0.6968989678967823 $251 7.3558953212132998 $247 $369 forward 7 unknown #
coedge $-1 $355 $152 $244 $361 forward $147 $-1 #
vertex $-1 $245 $370 #
vertex $-1 $357 $371 #
straight-curve $-1 0 -32.065082756055908 7.3558953212132998 1 0 0 I I #
face $-1 $372 $373 $35 $-1 $374 forward single #
loop $-1 $-1 $263 $154 #
plane-surface $-1 0 32.065082756055908 0 0 -1 0 0 0 -1 forward_v I I I I #
coedge $-1 $160 $375 $376 $377 forward $155 $-1 #
coedge $-1 $376 $157 $158 $262 reversed $97 $-1 #
coedge $-1 $157 $376 $378 $379 reversed $97 $-1 #
coedge $-1 $380 $381 $157 $260 forward $382 $-1 #
edge $-1 $383 1.3677020160614255 $384 9.9831184367266879 $259 $385 forward 7 unknown #
coedge $-1 $159 $158 $381 $386 reversed $62 $-1 #
edge $-1 $266 -57.041535691396831 $383 57.041535691396831 $257 $387 forward 7 unknown #
coedge $-1 $388 $389 $159 $264 forward $254 $-1 #
edge $-1 $267 -57.041535691396831 $390 57.041535691396831 $263 $391 forward 7 unknown #
coedge $-1 $375 $160 $389 $392 reversed $155 $-1 #
vertex $-1 $161 $393 #
vertex $-1 $264 $394 #
straight-curve $-1 57.041535691396831 12.784183979419399 7.0431122424554822 0 1 0 I I #
face $-1 $-1 $395 $36 $-1 $396 reversed single #
loop $-1 $-1 $168 $162 #
plane-surface $-1 0 0 15.658528663120745 0 0 1 1 0 0 forward_v I I I I #
coedge $-1 $397 $398 $399 $400 reversed $163 $-1 #
coedge $-1 $401 $165 $167 $279 forward $101 $-1 #
coedge $-1 $165 $401 $397 $402 forward $101 $-1 #
coedge $-1 $399 $168 $165 $276 forward $270 $-1 #
edge $-1 $282 3.5031385738740131 $403 13.082708264723587 $275 $404 forward 7 unknown #
coedge $-1 $405 $406 $166 $278 forward $395 $-1 #
edge $-1 $407 -76.637413329609089 $281 -63.544431980913984 $277 $408 forward 7 unknown #
edge $-1 $282 87.897109036229182 $407 114.08307138279366 $167 $409 forward 7 unknown #
coedge $-1 $168 $399 $405 $410 forward $270 $-1 #
vertex $-1 $278 $411 #
vertex $-1 $169 $412 #
straight-curve $-1 7.6421173144857519 -11.796061993172813 15.658528663120748 -1 0 0 I I #
coedge $-1 $284 $284 $-1 $413 reversed $172 $-1 #
edge $-1 $414 0 $414 6.2831853071796004 $173 $415 forward 7 unknown #
vertex $-1 $176 $416 #
ellipse-curve $-1 45.702681434700338 -19.459717745852473 9.112037988773201 0.50000000669873634 0 0.8660253999169214 0.4330126999584607 0 -0.25000000334936817 1 I I #
coedge $-1 $288 $288 $-1 $417 reversed $179 $-1 #
edge $-1 $418 0 $418 6.2831853071796004 $180 $419 forward 7 unknown #
vertex $-1 $183 $420 #
ellipse-curve $-1 45.702681434700338 -16.5858468385976 9.112037988773201 0.50000000669873634 0 0.8660253999169214 0.4330126999584607 0 -0.25000000334936817 1 I I #
coedge $-1 $292 $292 $-1 $421 reversed $186 $-1 #
edge $-1 $422 0 $422 6.2831853071796004 $187 $423 forward 7 unknown #
vertex $-1 $190 $424 #
ellipse-curve $-1 45.702681434700338 -13.711975931342728 9.112037988773201 0.50000000669873634 0 0.8660253999169214 0.4330126999584607 0 -0.25000000334936817 1 I I #
face $-1 $-1 $308 $40 $-1 $425 forward single #
loop $-1 $-1 $426 $191 #
plane-surface $-1 -57.041535691396831 0 0 1 0 0 0 0 -1 forward_v I I I I #
coedge $-1 $427 $428 $429 $430 reversed $192 $-1 #
coedge $-1 $431 $194 $196 $306 forward $120 $-1 #
coedge $-1 $194 $431 $427 $432 forward $120 $-1 #
coedge $-1 $429 $197 $194 $303 forward $308 $-1 #
edge $-1 $310 -13.082708264723587 $433 -3.5031385738740131 $302 $434 forward 7 unknown #
coedge $-1 $435 $436 $195 $305 forward $297 $-1 #
edge $-1 $437 -48.116645101804473 $309 -35.023663753109361 $304 $438 forward 7 unknown #
edge $-1 $310 -26.185962346564516 $437 0 $196 $439 forward 7 unknown #
coedge $-1 $197 $429 $435 $440 forward $308 $-1 #
loop $-1 $-1 $429 $296 #
vertex $-1 $305 $441 #
vertex $-1 $198 $442 #
straight-curve $-1 -57.041536073503039 -21.375631684022387 15.658528663120748 1 0 0 I I #
coedge $-1 $312 $312 $-1 $443 reversed $201 $-1 #
edge $-1 $444 0 $444 6.2831853071796004 $202 $445 forward 7 unknown #
vertex $-1 $205 $446 #
ellipse-curve $-1 -45.702681434700345 -19.459717745852473 9.1120379887731833 -0.50000000669873634 0 0.8660253999169214 0.4330126999584607 0 0.25000000334936817 1 I I #
coedge $-1 $316 $316 $-1 $447 reversed $208 $-1 #
edge $-1 $448 0 $448 6.2831853071796004 $209 $449 forward 7 unknown #
vertex $-1 $212 $450 #
ellipse-curve $-1 -45.702681434700345 -16.5858468385976 9.1120379887731833 -0.50000000669873634 0 0.8660253999169214 0.4330126999584607 0 0.25000000334936817 1 I I #
coedge $-1 $320 $320 $-1 $451 reversed $215 $-1 #
edge $-1 $452 0 $452 6.2831853071796004 $216 $453 forward 7 unknown #
vertex $-1 $219 $454 #
ellipse-curve $-1 -45.702681434700345 -13.711975931342728 9.1120379887731833 -0.50000000669873634 0 0.8660253999169214 0.4330126999584607 0 0.25000000334936817 1 I I #
face $-1 $-1 $235 $33 $-1 $455 reversed single #
loop $-1 $-1 $340 $220 #
plane-surface $-1 0 32.065082756055908 0 0 -1 0 0 0 -1 forward_v I I I I #
coedge $-1 $456 $338 $341 $457 forward $221 $-1 #
coedge $-1 $344 $223 $224 $332 reversed $139 $-1 #
coedge $-1 $338 $456 $223 $330 reversed $221 $-1 #
edge $-1 $345 -15.658528663120745 $458 15.658528663120745 $329 $459 forward 7 unknown #
coedge $-1 $225 $224 $456 $460 forward $89 $-1 #
edge $-1 $336 -57.041535691396831 $458 57.041535691396831 $328 $461 forward 7 unknown #
coedge $-1 $341 $340 $225 $334 reversed $325 $-1 #
edge $-1 $462 -57.041535691396831 $335 57.041535691396831 $333 $463 forward 7 unknown #
vertex $-1 $227 $464 #
vertex $-1 $347 $465 #
straight-curve $-1 57.041535691396831 0 -15.658528663120745 0 -1 0 I I #
coedge $-1 $327 $329 $228 $339 reversed $221 $-1 #
edge $-1 $342 -32.065082756055908 $345 32.065082756055908 $338 $466 forward 7 unknown #
coedge $-1 $333 $229 $234 $348 forward $325 $-1 #
coedge $-1 $229 $333 $327 $457 reversed $325 $-1 #
vertex $-1 $230 $467 #
straight-curve $-1 0 32.065082756055908 15.658528663120745 -1 0 0 I I #
coedge $-1 $231 $328 $233 $347 reversed $139 $-1 #
vertex $-1 $339 $468 #
straight-curve $-1 0 -32.065082756055908 15.658528663120745 1 0 0 I I #
edge $-1 $236 -15.658528663120745 $336 15.658528663120745 $233 $469 forward 7 unknown #
edge $-1 $237 -15.658528663120745 $335 15.658528663120745 $234 $470 forward 7 unknown #
point $-1 57.041535691396831 -32.065082756055908 15.658528663120745 #
point $-1 57.041535691396831 32.065082756055908 15.658528663120745 #
face $-1 $-1 $367 $34 $-1 $471 reversed single #
loop $-1 $-1 $472 $239 #
plane-surface $-1 0 -42.754533828089428 4.0263971445550411 0 1 0 0 0 1 forward_v I I I I #
coedge $-1 $473 $364 $366 $474 forward $240 $-1 #
coedge $-1 $242 $249 $475 $476 forward $147 $-1 #
coedge $-1 $477 $247 $242 $357 reversed $367 $-1 #
edge $-1 $478 -5.3447255360167603 $251 5.3447255360167603 $356 $479 forward 7 unknown #
coedge $-1 $244 $243 $472 $480 reversed $93 $-1 #
coedge $-1 $364 $473 $243 $360 forward $240 $-1 #
edge $-1 $481 -5.3447255360167603 $362 5.3447255360167603 $243 $482 forward 7 unknown #
edge $-1 $250 -5.3447255360167603 $483 5.3447255360167603 $244 $484 forward 7 unknown #
vertex $-1 $245 $485 #
straight-curve $-1 -57.041535691396831 -32.065082756055908 0 0 0 -1 I I #
coedge $-1 $354 $359 $246 $365 reversed $240 $-1 #
edge $-1 $368 -57.041535691396831 $362 57.041535691396831 $364 $486 forward 7 unknown #
coedge $-1 $247 $477 $354 $474 reversed $367 $-1 #
loop $-1 $-1 $247 $351 #
vertex $-1 $248 $487 #
straight-curve $-1 57.041535691396831 -32.065082756055908 0 0 0 1 I I #
point $-1 -57.041535691396831 -32.065082756055908 7.3558953212132998 #
point $-1 57.041535691396831 -32.065082756055908 7.3558953212132998 #
face $-1 $-1 $382 $35 $-1 $488 reversed single #
loop $-1 $-1 $378 $253 #
plane-surface $-1 0 0 15.658528663120745 0 0 1 1 0 0 forward_v I I I I #
coedge $-1 $256 $265 $489 $490 reversed $155 $-1 #
coedge $-1 $258 $257 $256 $377 reversed $97 $-1 #
edge $-1 $491 -9.9831184367266879 $266 -1.3677020160614255 $256 $492 forward 7 unknown #
coedge $-1 $489 $493 $258 $379 forward $373 $-1 #
edge $-1 $384 -57.041535691396831 $491 57.041535691396831 $378 $494 forward 7 unknown #
coedge $-1 $495 $259 $493 $496 reversed $382 $-1 #
coedge $-1 $259 $495 $261 $386 forward $382 $-1 #
loop $-1 $-1 $259 $372 #
vertex $-1 $386 $497 #
vertex $-1 $260 $498 #
straight-curve $-1 -57.041535691396831 19.071653161621686 5.6754102263940567 0 0 1 I I #
edge $-1 $390 -19.280898776636516 $383 -6.2874691822022868 $381 $499 forward 7 unknown #
straight-curve $-1 0 19.071653161621686 7.0431122424554822 -1 0 0 I I #
coedge $-1 $500 $263 $495 $501 reversed $254 $-1 #
coedge $-1 $263 $500 $265 $392 forward $254 $-1 #
vertex $-1 $264 $502 #
straight-curve $-1 0 32.065082756055908 7.0431122424554822 -1 0 0 I I #
edge $-1 $503 -15.658528663120745 $267 -7.0431122424554822 $265 $504 forward 7 unknown #
point $-1 57.041535691396831 19.071653161621686 7.0431122424554822 #
point $-1 57.041535691396831 32.065082756055915 7.0431122424554822 #
loop $-1 $-1 $277 $269 #
plane-surface $-1 57.041535691396831 0 0 -1 0 0 0 0 1 forward_v I I I I #
coedge $-1 $398 $272 $274 $402 reversed $163 $-1 #
coedge $-1 $272 $397 $505 $506 reversed $163 $-1 #
coedge $-1 $280 $275 $272 $400 forward $270 $-1 #
edge $-1 $403 26.721709863518122 $507 49.399418376911079 $399 $508 forward 7 unknown #
coedge $-1 $274 $273 $406 $509 reversed $101 $-1 #
edge $-1 $510 -114.08307138279366 $403 -87.897109036229182 $397 $511 forward 7 unknown #
vertex $-1 $276 $512 #
straight-curve $-1 34.363827178003866 -8.2929234192988002 15.658528663120748 0 -1 0 I I #
coedge $-1 $505 $277 $280 $410 reversed $395 $-1 #
coedge $-1 $277 $505 $401 $509 forward $395 $-1 #
vertex $-1 $278 $513 #
straight-curve $-1 57.041535691396831 -11.796061993172813 79.202960644034732 0 0 1 I I #
straight-curve $-1 -41.757301826637743 -11.796061993172813 59.60708377003489 0.8660253999169214 0 -0.50000000669873634 I I #
edge $-1 $507 -21.375631684022387 $281 -11.796061993172813 $405 $514 forward 7 unknown #
point $-1 57.041535691396831 -11.796061993172813 15.658528663120745 #
point $-1 34.363827178003874 -11.796061993172813 15.658528663120748 #
edge $-1 $515 1 $515 0 $284 $-1 forward 7 unknown #
vertex $-1 $285 $516 #
ellipse-curve $-1 45.202681428001604 -19.459717745852473 8.2460125888562743 0.50000000669873634 0 0.8660253999169214 0.4330126999584607 0 -0.25000000334936817 1 I I #
point $-1 46.135694134658799 -19.459717745852473 8.8620379854238269 #
edge $-1 $517 1 $517 0 $288 $-1 forward 7 unknown #
vertex $-1 $289 $518 #
ellipse-curve $-1 45.202681428001604 -16.5858468385976 8.2460125888562743 0.50000000669873634 0 0.8660253999169214 0.4330126999584607 0 -0.25000000334936817 1 I I #
point $-1 46.135694134658799 -16.5858468385976 8.8620379854238269 #
edge $-1 $519 1 $519 0 $292 $-1 forward 7 unknown #
vertex $-1 $293 $520 #
ellipse-curve $-1 45.202681428001604 -13.711975931342728 8.2460125888562743 0.50000000669873634 0 0.8660253999169214 0.4330126999584607 0 -0.25000000334936817 1 I I #
point $-1 46.135694134658799 -13.711975931342728 8.8620379854238269 #
plane-surface $-1 0 0 15.658528663120745 0 0 1 1 0 0 forward_v I I I I #
coedge $-1 $436 $435 $428 $521 forward $297 $-1 #
coedge $-1 $428 $299 $301 $432 reversed $192 $-1 #
coedge $-1 $299 $427 $426 $521 reversed $192 $-1 #
coedge $-1 $307 $302 $299 $430 forward $308 $-1 #
edge $-1 $433 -22.677708895499187 $522 -3.8210620800782635e-007 $429 $523 forward 7 unknown #
coedge $-1 $301 $300 $436 $524 reversed $120 $-1 #
edge $-1 $525 0 $433 26.185962346564516 $427 $526 forward 7 unknown #
vertex $-1 $303 $527 #
straight-curve $-1 -34.363827178003852 -8.2929234192988002 15.658528663120745 0 1 0 I I #
coedge $-1 $426 $304 $307 $440 reversed $297 $-1 #
coedge $-1 $304 $426 $431 $524 forward $297 $-1 #
vertex $-1 $305 $528 #
straight-curve $-1 -57.041535691396831 -21.375631684022387 50.682192416230102 0 0 1 I I #
straight-curve $-1 -57.041535691396831 -21.375631684022387 2.5655473144256291 -0.8660253999169214 0 -0.50000000669873634 I I #
edge $-1 $522 11.796061993172813 $309 21.375631684022387 $435 $529 forward 7 unknown #
point $-1 -57.041535691396831 -21.375631684022387 15.658528663120745 #
point $-1 -34.363827178003852 -21.375631684022387 15.658528663120745 #
edge $-1 $530 1 $530 0 $312 $-1 forward 7 unknown #
vertex $-1 $313 $531 #
ellipse-curve $-1 -45.202681428001618 -19.459717745852473 8.2460125888562708 -0.50000000669873634 0 0.8660253999169214 0.4330126999584607 0 0.25000000334936817 1 I I #
point $-1 -45.269668734741892 -19.459717745852473 9.3620379921225609 #
edge $-1 $532 1 $532 0 $316 $-1 forward 7 unknown #
vertex $-1 $317 $533 #
ellipse-curve $-1 -45.202681428001618 -16.5858468385976 8.2460125888562708 -0.50000000669873634 0 0.8660253999169214 0.4330126999584607 0 0.25000000334936817 1 I I #
point $-1 -45.269668734741892 -16.5858468385976 9.3620379921225609 #
edge $-1 $534 1 $534 0 $320 $-1 forward 7 unknown #
vertex $-1 $321 $535 #
ellipse-curve $-1 -45.202681428001618 -13.711975931342728 8.2460125888562708 -0.50000000669873634 0 0.8660253999169214 0.4330126999584607 0 0.25000000334936817 1 I I #
point $-1 -45.269668734741892 -13.711975931342728 9.3620379921225609 #
plane-surface $-1 57.041535691396831 0 0 -1 0 0 0 0 1 forward_v I I I I #
coedge $-1 $329 $327 $331 $460 reversed $221 $-1 #
edge $-1 $342 -15.658528663120745 $462 15.658528663120745 $341 $536 forward 7 unknown #
vertex $-1 $460 $537 #
straight-curve $-1 -57.041535691396831 -32.065082756055908 0 0 0 -1 I I #
edge $-1 $458 -32.065082756055908 $462 32.065082756055908 $456 $538 forward 7 unknown #
straight-curve $-1 0 -32.065082756055908 -15.658528663120745 -1 0 0 I I #
vertex $-1 $334 $539 #
straight-curve $-1 0 32.065082756055908 -15.658528663120745 1 0 0 I I #
point $-1 57.041535691396831 32.065082756055908 -15.658528663120745 #
point $-1 57.041535691396831 -32.065082756055908 -15.658528663120745 #
straight-curve $-1 -57.041535691396831 0 15.658528663120745 0 -1 0 I I #
point $-1 -57.041535691396831 32.065082756055908 15.658528663120745 #
point $-1 -57.041535691396831 -32.065082756055908 15.658528663120745 #
straight-curve $-1 57.041535691396831 -32.065082756055908 0 0 0 -1 I I #
straight-curve $-1 57.041535691396831 32.065082756055908 0 0 0 -1 I I #
plane-surface $-1 57.041535691396831 0 0 -1 0 0 0 0 1 forward_v I I I I #
coedge $-1 $540 $475 $358 $480 forward $352 $-1 #
coedge $-1 $359 $354 $540 $541 forward $240 $-1 #
edge $-1 $368 -5.3447255360167603 $542 5.3447255360167603 $366 $543 forward 7 unknown #
coedge $-1 $472 $544 $355 $476 reversed $352 $-1 #
edge $-1 $483 -57.041535691396831 $478 57.041535691396831 $475 $545 forward 7 unknown #
coedge $-1 $366 $356 $544 $546 forward $367 $-1 #
vertex $-1 $357 $547 #
straight-curve $-1 57.041535691396831 -37.409808292072668 7.3558953212132998 0 1 0 I I #
edge $-1 $483 -3.3294981766582588 $481 3.3294981766582588 $358 $548 forward 7 unknown #
vertex $-1 $360 $549 #
straight-curve $-1 -57.041535691396831 -37.409808292072668 0.6968989678967823 0 1 0 I I #
vertex $-1 $361 $550 #
straight-curve $-1 -57.041535691396831 -37.409808292072668 7.3558953212132998 0 -1 0 I I #
point $-1 -57.041535691396831 -32.065082756055908 0.6968989678967823 #
straight-curve $-1 0 -32.065082756055908 0.6968989678967823 -1 0 0 I I #
point $-1 57.041535691396831 -32.065082756055908 0.6968989678967823 #
plane-surface $-1 -57.041535691396831 0 0 1 0 0 0 0 -1 forward_v I I I I #
coedge $-1 $551 $378 $375 $490 forward $373 $-1 #
edge $-1 $491 19.071653161621686 $503 32.065082756055908 $375 $552 forward 7 unknown #
vertex $-1 $490 $553 #
straight-curve $-1 57.041535691396831 19.071653161621686 5.6754102263940567 0 0 -1 I I #
coedge $-1 $378 $551 $380 $496 forward $373 $-1 #
straight-curve $-1 0 19.071653161621686 15.658528663120745 1 0 0 I I #
coedge $-1 $381 $380 $388 $501 forward $382 $-1 #
edge $-1 $554 -32.065082756055908 $384 -19.071653161621686 $380 $555 forward 7 unknown #
point $-1 -57.041535691396831 19.071653161621686 7.0431122424554822 #
point $-1 -57.041535691396831 19.071653161621686 15.658528663120745 #
straight-curve $-1 -57.041535691396831 12.784183979419399 7.0431122424554822 0 -1 0 I I #
coedge $-1 $389 $388 $551 $556 reversed $254 $-1 #
edge $-1 $554 -15.658528663120745 $390 -7.0431122424554822 $388 $557 forward 7 unknown #
point $-1 -57.041535691396831 32.065082756055915 7.0431122424554822 #
vertex $-1 $490 $558 #
straight-curve $-1 57.041535691396831 32.065082756055908 0 0 0 -1 I I #
coedge $-1 $406 $405 $398 $506 forward $395 $-1 #
edge $-1 $507 63.544431980913984 $510 76.637413329609089 $505 $559 forward 7 unknown #
vertex $-1 $410 $560 #
straight-curve $-1 7.6421173144857519 -21.375631684022387 15.658528663120748 1 0 0 I I #
edge $-1 $510 -13.082708264723587 $407 -3.5031385738740131 $406 $561 forward 7 unknown #
vertex $-1 $509 $562 #
straight-curve $-1 -41.757301826637743 -21.375631684022387 59.60708377003489 -0.8660253999169214 0 0.50000000669873634 I I #
point $-1 34.363827178003874 -21.375631684022387 15.658528663120748 #
point $-1 57.041535691396831 -11.796061993172813 2.5655473144256433 #
straight-curve $-1 57.041535691396831 0 15.658528663120745 0 1 0 I I #
vertex $-1 $413 $563 #
point $-1 45.635694127960065 -19.459717745852473 7.9960125855069064 #
vertex $-1 $417 $564 #
point $-1 45.635694127960065 -16.5858468385976 7.9960125855069064 #
vertex $-1 $421 $565 #
point $-1 45.635694127960065 -13.711975931342728 7.9960125855069064 #
edge $-1 $522 35.023663753109361 $525 48.116645101804473 $426 $566 forward 7 unknown #
vertex $-1 $440 $567 #
straight-curve $-1 -57.041536073503039 -11.796061993172813 15.658528663120748 -1 0 0 I I #
edge $-1 $525 3.5031385738740131 $437 13.082708264723587 $436 $568 forward 7 unknown #
vertex $-1 $524 $569 #
straight-curve $-1 -57.041535691396831 -11.796061993172813 2.5655473144256291 0.8660253999169214 0 0.50000000669873634 I I #
point $-1 -34.363827178003852 -11.796061993172813 15.658528663120745 #
point $-1 -57.041535691396831 -21.375631684022387 2.5655473144256291 #
straight-curve $-1 -57.041535691396831 0 15.658528663120745 0 -1 0 I I #
vertex $-1 $443 $570 #
point $-1 -44.769668728043158 -19.459717745852473 8.4960125922056395 #
vertex $-1 $447 $571 #
point $-1 -44.769668728043158 -16.5858468385976 8.4960125922056395 #
vertex $-1 $451 $572 #
point $-1 -44.769668728043158 -13.711975931342728 8.4960125922056395 #
straight-curve $-1 -57.041535691396831 32.065082756055908 0 0 0 -1 I I #
point $-1 -57.041535691396831 -32.065082756055908 -15.658528663120745 #
straight-curve $-1 -57.041535691396831 0 -15.658528663120745 0 1 0 I I #
point $-1 -57.041535691396831 32.065082756055908 -15.658528663120745 #
coedge $-1 $544 $472 $473 $541 reversed $352 $-1 #
edge $-1 $542 -57.041535691396831 $481 57.041535691396831 $540 $573 forward 7 unknown #
vertex $-1 $546 $574 #
straight-curve $-1 57.041535691396831 -37.409808292072668 0.6968989678967823 0 -1 0 I I #
coedge $-1 $475 $540 $477 $546 reversed $352 $-1 #
straight-curve $-1 0 -42.754533828089428 7.3558953212132998 1 0 0 I I #
edge $-1 $478 -3.3294981766582588 $542 3.3294981766582588 $477 $575 forward 7 unknown #
point $-1 57.041535691396831 -42.754533828089428 7.3558953212132998 #
straight-curve $-1 -57.041535691396831 -42.754533828089428 4.0263971445550411 0 0 -1 I I #
point $-1 -57.041535691396831 -42.754533828089428 0.6968989678967823 #
point $-1 -57.041535691396831 -42.754533828089428 7.3558953212132998 #
coedge $-1 $493 $489 $500 $556 forward $373 $-1 #
straight-curve $-1 57.041535691396831 0 15.658528663120745 0 1 0 I I #
point $-1 57.041535691396831 19.071653161621686 15.658528663120745 #
vertex $-1 $556 $576 #
straight-curve $-1 -57.041535691396831 0 15.658528663120745 0 -1 0 I I #
edge $-1 $503 -57.041535691396831 $554 57.041535691396831 $500 $577 forward 7 unknown #
straight-curve $-1 -57.041535691396831 32.065082756055908 0 0 0 -1 I I #
point $-1 57.041535691396831 32.065082756055908 15.658528663120745 #
straight-curve $-1 57.041535691396831 -21.375631684022387 79.202960644034732 0 0 -1 I I #
point $-1 57.041535691396831 -21.375631684022387 15.658528663120745 #
straight-curve $-1 57.041535691396831 -8.2929234192988002 2.5655473144256433 0 1 0 I I #
point $-1 57.041535691396831 -21.375631684022387 2.5655473144256433 #
point $-1 44.952681424652233 -19.459717745852473 7.8129998888978136 #
point $-1 44.952681424652233 -16.5858468385976 7.8129998888978136 #
point $-1 44.952681424652233 -13.711975931342728 7.8129998888978136 #
straight-curve $-1 -57.041535691396831 -11.796061993172813 50.682192416230102 0 0 -1 I I #
point $-1 -57.041535691396831 -11.796061993172813 15.658528663120745 #
straight-curve $-1 -57.041535691396831 -8.2929234192988002 2.5655473144256304 0 -1 0 I I #
point $-1 -57.041535691396831 -11.796061993172813 2.5655473144256291 #
point $-1 -44.952681424652248 -19.459717745852473 7.8129998888978101 #
point $-1 -44.952681424652248 -16.5858468385976 7.8129998888978101 #
point $-1 -44.952681424652248 -13.711975931342728 7.8129998888978101 #
straight-curve $-1 0 -42.754533828089428 0.6968989678967823 -1 0 0 I I #
point $-1 57.041535691396831 -42.754533828089428 0.6968989678967823 #
straight-curve $-1 57.041535691396831 -42.754533828089428 4.0263971445550411 0 0 -1 I I #
point $-1 -57.041535691396831 32.065082756055908 15.658528663120745 #
straight-curve $-1 0 32.065082756055908 15.658528663120745 -1 0 0 I I #
End-of-ACIS-data 