500 0 13 0           
7 Unknown 11 ACIS 5.0 NT 24 Thu Mar 25 22:53:38 1999 
-1 9.9999999999999995e-007 1e-010 
body $-1 $13 $-1 $14 #
body $-1 $15 $-1 $16 #
body $-1 $17 $-1 $18 #
body $-1 $19 $-1 $20 #
body $-1 $21 $-1 $22 #
body $-1 $23 $-1 $24 #
body $-1 $25 $-1 $26 #
body $-1 $27 $-1 $28 #
body $-1 $29 $-1 $30 #
body $-1 $31 $-1 $32 #
body $-1 $33 $-1 $34 #
body $-1 $35 $-1 $36 #
body $-1 $37 $-1 $38 #
lump $-1 $-1 $39 $0 #
transform $-1 1 0 0 0 1 0 0 0 1 79.334696493423266 34.016079742262058 10.937217619329695 1 rotate no_reflect no_shear #
lump $-1 $-1 $40 $1 #
transform $-1 1 0 0 0 1 0 0 0 1 79.334696493423266 34.016079742262058 10.937217619329695 1 rotate no_reflect no_shear #
lump $-1 $-1 $41 $2 #
transform $-1 1 0 0 0 1 0 0 0 1 79.334696493423266 34.016079742262058 10.937217619329695 1 rotate no_reflect no_shear #
lump $-1 $-1 $42 $3 #
transform $-1 1 0 0 0 1 0 0 0 1 79.334696493423266 34.016079742262058 10.937217619329695 1 rotate no_reflect no_shear #
lump $-1 $-1 $43 $4 #
transform $-1 1 0 0 0 1 0 0 0 1 79.334696493423266 34.016079742262058 10.937217619329695 1 rotate no_reflect no_shear #
lump $-1 $-1 $44 $5 #
transform $-1 1 0 0 0 1 0 0 0 1 79.334696493423266 34.016079742262058 10.937217619329695 1 rotate no_reflect no_shear #
lump $-1 $-1 $45 $6 #
transform $-1 1 0 0 0 1 0 0 0 1 79.334696493423266 34.016079742262058 10.937217619329695 1 rotate no_reflect no_shear #
lump $-1 $-1 $46 $7 #
transform $-1 1 0 0 0 1 0 0 0 1 79.334696493423266 34.016079742262058 10.937217619329695 1 rotate no_reflect no_shear #
lump $-1 $-1 $47 $8 #
transform $-1 1 0 0 0 1 0 0 0 1 79.334696493423266 34.016079742262058 10.937217619329695 1 rotate no_reflect no_shear #
lump $-1 $-1 $48 $9 #
transform $-1 1 0 0 0 1 0 0 0 1 79.334696493423266 34.016079742262058 10.937217619329695 1 rotate no_reflect no_shear #
lump $-1 $-1 $49 $10 #
transform $-1 1 0 0 0 1 0 0 0 1 79.334696493423266 34.016079742262058 10.937217619329695 1 rotate no_reflect no_shear #
lump $-1 $-1 $50 $11 #
transform $-1 1 0 0 0 1 0 0 0 1 79.334696493423266 34.016079742262058 10.937217619329695 1 rotate no_reflect no_shear #
lump $-1 $-1 $51 $12 #
transform $-1 1 0 0 0 1 0 0 0 1 79.334696493423266 34.016079742262058 10.937217619329695 1 rotate no_reflect no_shear #
shell $-1 $-1 $-1 $52 $-1 $13 #
shell $-1 $-1 $-1 $53 $-1 $15 #
shell $-1 $-1 $-1 $54 $-1 $17 #
shell $-1 $-1 $-1 $55 $-1 $19 #
shell $-1 $-1 $-1 $56 $-1 $21 #
shell $-1 $-1 $-1 $57 $-1 $23 #
shell $-1 $-1 $-1 $58 $-1 $25 #
shell $-1 $-1 $-1 $59 $-1 $27 #
shell $-1 $-1 $-1 $60 $-1 $29 #
shell $-1 $-1 $-1 $61 $-1 $31 #
shell $-1 $-1 $-1 $62 $-1 $33 #
shell $-1 $-1 $-1 $63 $-1 $35 #
shell $-1 $-1 $-1 $64 $-1 $37 #
face $-1 $65 $66 $39 $-1 $67 forward single #
face $-1 $68 $69 $40 $-1 $70 forward single #
face $-1 $71 $72 $41 $-1 $73 reversed single #
face $-1 $74 $75 $42 $-1 $76 forward single #
face $-1 $77 $78 $43 $-1 $79 forward single #
face $-1 $80 $81 $44 $-1 $82 forward single #
face $-1 $83 $84 $45 $-1 $85 reversed single #
face $-1 $86 $87 $46 $-1 $88 forward single #
face $-1 $89 $90 $47 $-1 $91 forward single #
face $-1 $92 $93 $48 $-1 $94 forward single #
face $-1 $95 $96 $49 $-1 $97 reversed single #
face $-1 $98 $99 $50 $-1 $100 forward single #
face $-1 $101 $102 $51 $-1 $103 forward single #
face $-1 $104 $105 $39 $-1 $106 reversed single #
loop $-1 $-1 $107 $52 #
plane-surface $-1 0 0 10.937217619329695 0 0 1 1 0 0 forward_v I I I I #
face $-1 $108 $109 $40 $-1 $110 reversed single #
loop $-1 $-1 $111 $53 #
plane-surface $-1 -72.25260859231895 0 -7.4372176193296955 0 0 1 1 0 0 forward_v I I I I #
face $-1 $112 $113 $41 $-1 $114 reversed single #
loop $-1 $-1 $115 $54 #
plane-surface $-1 -32.021457871651933 137.41172726843774 141.24601920169576 1 0 0 0 -0.86602541151947299 -0.49999998660252726 forward_v I I I I #
face $-1 $116 $117 $42 $-1 $118 forward single #
loop $-1 $119 $120 $55 #
cone-surface $-1 -27.082252172550682 30.460339571131307 6.2364861532940656 0 -0.86602541151947299 -0.49999998660252726 1 0 0 1 I I 0 1 1 forward I I I I #
face $-1 $121 $122 $43 $-1 $123 forward single #
loop $-1 $124 $125 $56 #
cone-surface $-1 -19.673443623898805 30.460339571131307 6.2364861532940656 0 -0.86602541151947299 -0.49999998660252726 1 0 0 1 I I 0 1 1 forward I I I I #
face $-1 $126 $127 $44 $-1 $128 forward single #
loop $-1 $129 $130 $57 #
cone-surface $-1 -12.264635075246929 30.460339571131307 6.2364861532940656 0 -0.86602541151947299 -0.49999998660252726 1 0 0 1 I I 0 1 1 forward I I I I #
face $-1 $131 $132 $45 $-1 $133 reversed single #
loop $-1 $-1 $134 $58 #
plane-surface $-1 21.48960517835426 137.41172726843774 141.24601920169576 1 0 0 0 -0.86602541151947299 -0.49999998660252726 forward_v I I I I #
face $-1 $135 $136 $46 $-1 $137 forward single #
loop $-1 $138 $139 $59 #
cone-surface $-1 26.428810877455518 30.460339571131307 6.2364861532940656 0 -0.86602541151947299 -0.49999998660252726 1 0 0 1 I I 0 1 1 forward I I I I #
face $-1 $140 $141 $47 $-1 $142 forward single #
loop $-1 $143 $144 $60 #
cone-surface $-1 33.837619426107395 30.460339571131307 6.2364861532940656 0 -0.86602541151947299 -0.49999998660252726 1 0 0 1 I I 0 1 1 forward I I I I #
face $-1 $145 $146 $48 $-1 $147 forward single #
loop $-1 $148 $149 $61 #
cone-surface $-1 41.246427974759271 30.460339571131307 6.2364861532940656 0 -0.86602541151947299 -0.49999998660252726 1 0 0 1 I I 0 1 1 forward I I I I #
face $-1 $150 $151 $49 $-1 $152 reversed single #
loop $-1 $-1 $153 $62 #
plane-surface $-1 71.363249448466675 -34.016079742262065 5.7554335348146992 0 -0.80901700255871778 0.5877852410284794 1 0 0 forward_v I I I I #
face $-1 $154 $155 $50 $-1 $156 forward single #
loop $-1 $157 $158 $63 #
cone-surface $-1 67.946915000628152 -30.619757893821319 7.2463920611334904 0 0.80901700255871778 -0.5877852410284794 1 0 0 1 I I 0 1 1 forward I I I I #
face $-1 $159 $160 $51 $-1 $161 forward single #
loop $-1 $162 $163 $64 #
cone-surface $-1 74.779583896305226 -30.619757893821319 7.2463920611334904 0 0.80901700255871778 -0.5877852410284794 1 0 0 1 I I 0 1 1 forward I I I I #
face $-1 $164 $165 $39 $-1 $166 reversed single #
loop $-1 $-1 $167 $65 #
plane-surface $-1 0 0 -10.937217619329695 0 0 1 1 0 0 forward_v I I I I #
coedge $-1 $168 $169 $170 $171 forward $66 $-1 #
face $-1 $172 $173 $40 $-1 $174 reversed single #
loop $-1 $-1 $175 $68 #
plane-surface $-1 -72.25260859231895 0 -10.437217619329695 0 0 1 1 0 0 forward_v I I I I #
coedge $-1 $176 $177 $178 $179 forward $69 $-1 #
face $-1 $180 $181 $41 $-1 $182 reversed single #
loop $-1 $-1 $183 $71 #
plane-surface $-1 -19.673443623898798 9.1145898295508232e-007 61.911324834041352 0 0.86602541151947299 0.49999998660252726 1 0 0 forward_v I I I I #
coedge $-1 $184 $185 $186 $187 reversed $72 $-1 #
face $-1 $-1 $188 $42 $-1 $189 forward single #
loop $-1 $190 $191 $74 #
cone-surface $-1 -27.082252172550682 28.764669374300333 5.2574905436730557 0 -0.86602541151947299 -0.49999998660252726 0.5 0 0 1 I I -0.70710678118654746 0.70710678118654746 0.5 forward I I I I #
loop $-1 $-1 $192 $55 #
coedge $-1 $120 $120 $193 $194 reversed $75 $-1 #
face $-1 $-1 $195 $43 $-1 $196 forward single #
loop $-1 $197 $198 $77 #
cone-surface $-1 -19.673443623898805 28.764669374300333 5.2574905436730557 0 -0.86602541151947299 -0.49999998660252726 0.5 0 0 1 I I -0.70710678118654746 0.70710678118654746 0.5 forward I I I I #
loop $-1 $-1 $199 $56 #
coedge $-1 $125 $125 $200 $201 reversed $78 $-1 #
face $-1 $-1 $202 $44 $-1 $203 forward single #
loop $-1 $204 $205 $80 #
cone-surface $-1 -12.264635075246929 28.764669374300333 5.2574905436730557 0 -0.86602541151947299 -0.49999998660252726 0.5 0 0 1 I I -0.70710678118654746 0.70710678118654746 0.5 forward I I I I #
loop $-1 $-1 $206 $57 #
coedge $-1 $130 $130 $207 $208 reversed $81 $-1 #
face $-1 $209 $210 $45 $-1 $211 reversed single #
loop $-1 $-1 $212 $83 #
plane-surface $-1 33.837619426107395 9.1145898295508232e-007 61.911324834041352 0 0.86602541151947299 0.49999998660252726 1 0 0 forward_v I I I I #
coedge $-1 $213 $214 $215 $216 reversed $84 $-1 #
face $-1 $-1 $217 $46 $-1 $218 forward single #
loop $-1 $219 $220 $86 #
cone-surface $-1 26.428810877455518 28.764669374300333 5.2574905436730557 0 -0.86602541151947299 -0.49999998660252726 0.5 0 0 1 I I -0.70710678118654746 0.70710678118654746 0.5 forward I I I I #
loop $-1 $-1 $221 $59 #
coedge $-1 $139 $139 $222 $223 reversed $87 $-1 #
face $-1 $-1 $224 $47 $-1 $225 forward single #
loop $-1 $226 $227 $89 #
cone-surface $-1 33.837619426107395 28.764669374300333 5.2574905436730557 0 -0.86602541151947299 -0.49999998660252726 0.5 0 0 1 I I -0.70710678118654746 0.70710678118654746 0.5 forward I I I I #
loop $-1 $-1 $228 $60 #
coedge $-1 $144 $144 $229 $230 reversed $90 $-1 #
face $-1 $-1 $231 $48 $-1 $232 forward single #
loop $-1 $233 $234 $92 #
cone-surface $-1 41.246427974759271 28.764669374300333 5.2574905436730557 0 -0.86602541151947299 -0.49999998660252726 0.5 0 0 1 I I -0.70710678118654746 0.70710678118654746 0.5 forward I I I I #
loop $-1 $-1 $235 $61 #
coedge $-1 $149 $149 $236 $237 reversed $93 $-1 #
face $-1 $238 $239 $49 $-1 $240 reversed single #
loop $-1 $-1 $241 $95 #
plane-surface $-1 63.391802403510098 -162.3823164542919 99.018960935430812 1 0 0 0 0.80901700255871778 -0.5877852410284794 forward_v I I I I #
coedge $-1 $242 $243 $244 $245 reversed $96 $-1 #
face $-1 $-1 $246 $50 $-1 $247 forward single #
loop $-1 $248 $249 $98 #
cone-surface $-1 67.946915000628152 -28.701320743157087 5.8525659246805386 0 0.80901700255871778 -0.5877852410284794 0.5 0 0 1 I I -0.70710678118654746 0.70710678118654746 0.5 forward I I I I #
loop $-1 $-1 $250 $63 #
coedge $-1 $158 $158 $251 $252 reversed $99 $-1 #
face $-1 $-1 $253 $51 $-1 $254 forward single #
loop $-1 $255 $256 $101 #
cone-surface $-1 74.779583896305226 -28.701320743157087 5.8525659246805386 0 0.80901700255871778 -0.5877852410284794 0.5 0 0 1 I I -0.70710678118654746 0.70710678118654746 0.5 forward I I I I #
loop $-1 $-1 $257 $64 #
coedge $-1 $163 $163 $258 $259 reversed $102 $-1 #
face $-1 $260 $261 $39 $-1 $262 reversed single #
loop $-1 $-1 $263 $104 #
plane-surface $-1 0 -34.016079742262058 0 0 1 0 0 0 1 forward_v I I I I #
coedge $-1 $264 $265 $266 $267 forward $105 $-1 #
coedge $-1 $268 $107 $269 $270 forward $66 $-1 #
coedge $-1 $107 $268 $271 $272 forward $66 $-1 #
coedge $-1 $273 $274 $107 $171 reversed $275 $-1 #
edge $-1 $276 -34.016079742262058 $277 34.016079742262058 $170 $278 forward 7 unknown #
face $-1 $279 $280 $40 $-1 $281 reversed single #
loop $-1 $-1 $282 $108 #
plane-surface $-1 -65.170520691214648 0 -8.9372176193296955 -1 0 0 0 0 1 forward_v I I I I #
coedge $-1 $283 $284 $285 $286 forward $109 $-1 #
coedge $-1 $287 $111 $288 $289 reversed $69 $-1 #
coedge $-1 $111 $287 $290 $291 reversed $69 $-1 #
coedge $-1 $282 $292 $111 $179 reversed $173 $-1 #
edge $-1 $293 -34.016079742262058 $294 34.016079742262058 $178 $295 forward 7 unknown #
face $-1 $296 $297 $41 $-1 $298 forward single #
loop $-1 $-1 $299 $112 #
plane-surface $-1 -7.3254293761456637 137.41172726843774 141.24601920169576 -1 0 0 0 0.86602541151947299 0.49999998660252726 forward_v I I I I #
coedge $-1 $300 $301 $302 $303 reversed $113 $-1 #
coedge $-1 $185 $115 $304 $305 reversed $72 $-1 #
coedge $-1 $115 $184 $300 $306 reversed $72 $-1 #
coedge $-1 $302 $307 $115 $187 forward $297 $-1 #
edge $-1 $308 34.689783891956814 $309 39.275949252075861 $186 $310 forward 7 unknown #
loop $-1 $-1 $193 $116 #
plane-surface $-1 -19.673443623898798 9.1145898295508232e-007 61.911324834041352 0 0.86602541151947299 0.49999998660252726 1 0 0 forward_v I I I I #
loop $-1 $-1 $311 $74 #
coedge $-1 $191 $191 $192 $312 reversed $117 $-1 #
coedge $-1 $192 $192 $191 $312 forward $119 $-1 #
coedge $-1 $193 $193 $120 $194 forward $188 $-1 #
edge $-1 $313 4.2074806335565094e-016 $313 6.2831853071796004 $193 $314 forward 7 unknown #
loop $-1 $-1 $200 $121 #
plane-surface $-1 -19.673443623898798 9.1145898295508232e-007 61.911324834041352 0 0.86602541151947299 0.49999998660252726 1 0 0 forward_v I I I I #
loop $-1 $-1 $315 $77 #
coedge $-1 $198 $198 $199 $316 reversed $122 $-1 #
coedge $-1 $199 $199 $198 $316 forward $124 $-1 #
coedge $-1 $200 $200 $125 $201 forward $195 $-1 #
edge $-1 $317 4.2074806335565094e-016 $317 6.2831853071796004 $200 $318 forward 7 unknown #
loop $-1 $-1 $207 $126 #
plane-surface $-1 -19.673443623898798 9.1145898295508232e-007 61.911324834041352 0 0.86602541151947299 0.49999998660252726 1 0 0 forward_v I I I I #
loop $-1 $-1 $319 $80 #
coedge $-1 $205 $205 $206 $320 reversed $127 $-1 #
coedge $-1 $206 $206 $205 $320 forward $129 $-1 #
coedge $-1 $207 $207 $130 $208 forward $202 $-1 #
edge $-1 $321 4.2074806335565094e-016 $321 6.2831853071796004 $207 $322 forward 7 unknown #
face $-1 $323 $324 $45 $-1 $325 forward single #
loop $-1 $-1 $326 $131 #
plane-surface $-1 46.185633673860529 137.41172726843774 141.24601920169576 -1 0 0 0 0.86602541151947299 0.49999998660252726 forward_v I I I I #
coedge $-1 $327 $328 $329 $330 reversed $132 $-1 #
coedge $-1 $214 $134 $331 $332 reversed $84 $-1 #
coedge $-1 $134 $213 $327 $333 reversed $84 $-1 #
coedge $-1 $329 $334 $134 $216 forward $324 $-1 #
edge $-1 $335 34.689783891956814 $336 39.275949252075861 $215 $337 forward 7 unknown #
loop $-1 $-1 $222 $135 #
plane-surface $-1 33.837619426107395 9.1145898295508232e-007 61.911324834041352 0 0.86602541151947299 0.49999998660252726 1 0 0 forward_v I I I I #
loop $-1 $-1 $338 $86 #
coedge $-1 $220 $220 $221 $339 reversed $136 $-1 #
coedge $-1 $221 $221 $220 $339 forward $138 $-1 #
coedge $-1 $222 $222 $139 $223 forward $217 $-1 #
edge $-1 $340 4.2074806335565094e-016 $340 6.2831853071796004 $222 $341 forward 7 unknown #
loop $-1 $-1 $229 $140 #
plane-surface $-1 33.837619426107395 9.1145898295508232e-007 61.911324834041352 0 0.86602541151947299 0.49999998660252726 1 0 0 forward_v I I I I #
loop $-1 $-1 $342 $89 #
coedge $-1 $227 $227 $228 $343 reversed $141 $-1 #
coedge $-1 $228 $228 $227 $343 forward $143 $-1 #
coedge $-1 $229 $229 $144 $230 forward $224 $-1 #
edge $-1 $344 4.2074806335565094e-016 $344 6.2831853071796004 $229 $345 forward 7 unknown #
loop $-1 $-1 $236 $145 #
plane-surface $-1 33.837619426107395 9.1145898295508232e-007 61.911324834041352 0 0.86602541151947299 0.49999998660252726 1 0 0 forward_v I I I I #
loop $-1 $-1 $346 $92 #
coedge $-1 $234 $234 $235 $347 reversed $146 $-1 #
coedge $-1 $235 $235 $234 $347 forward $148 $-1 #
coedge $-1 $236 $236 $149 $237 forward $231 $-1 #
edge $-1 $348 4.2074806335565094e-016 $348 6.2831853071796004 $236 $349 forward 7 unknown #
face $-1 $350 $351 $49 $-1 $352 forward single #
loop $-1 $-1 $353 $150 #
plane-surface $-1 0 -34.016079742262058 0 0 1 0 0 0 1 forward_v I I I I #
coedge $-1 $354 $355 $356 $357 reversed $151 $-1 #
coedge $-1 $358 $153 $359 $360 reversed $96 $-1 #
coedge $-1 $153 $358 $354 $361 forward $96 $-1 #
coedge $-1 $356 $362 $153 $245 forward $351 $-1 #
edge $-1 $363 -43.653071769189914 $364 -27.710177679276761 $244 $365 forward 7 unknown #
loop $-1 $-1 $251 $154 #
plane-surface $-1 71.363249448466675 -34.016079742262065 5.7554335348146992 0 -0.80901700255871778 0.5877852410284794 1 0 0 forward_v I I I I #
loop $-1 $-1 $366 $98 #
coedge $-1 $249 $249 $250 $367 reversed $155 $-1 #
coedge $-1 $250 $250 $249 $367 forward $157 $-1 #
coedge $-1 $251 $251 $158 $252 forward $246 $-1 #
edge $-1 $368 0 $368 6.2831853071796004 $251 $369 forward 7 unknown #
loop $-1 $-1 $258 $159 #
plane-surface $-1 71.363249448466675 -34.016079742262065 5.7554335348146992 0 -0.80901700255871778 0.5877852410284794 1 0 0 forward_v I I I I #
loop $-1 $-1 $370 $101 #
coedge $-1 $256 $256 $257 $371 reversed $160 $-1 #
coedge $-1 $257 $257 $256 $371 forward $162 $-1 #
coedge $-1 $258 $258 $163 $259 forward $253 $-1 #
edge $-1 $372 0 $372 6.2831853071796004 $258 $373 forward 7 unknown #
face $-1 $374 $375 $39 $-1 $376 reversed single #
loop $-1 $-1 $377 $164 #
plane-surface $-1 -79.334696493423266 0 0 1 0 0 0 0 -1 forward_v I I I I #
coedge $-1 $378 $271 $379 $380 forward $165 $-1 #
coedge $-1 $381 $167 $378 $382 forward $105 $-1 #
coedge $-1 $167 $381 $383 $384 forward $105 $-1 #
coedge $-1 $274 $273 $167 $267 reversed $275 $-1 #
edge $-1 $385 -34.016079742262058 $386 34.016079742262058 $266 $387 forward 7 unknown #
coedge $-1 $169 $168 $388 $389 forward $66 $-1 #
coedge $-1 $390 $391 $168 $270 reversed $375 $-1 #
edge $-1 $277 -79.334696493423266 $392 79.334696493423266 $269 $393 forward 7 unknown #
coedge $-1 $263 $394 $169 $272 reversed $165 $-1 #
edge $-1 $395 -79.334696493423266 $276 79.334696493423266 $271 $396 forward 7 unknown #
coedge $-1 $266 $170 $394 $397 forward $275 $-1 #
coedge $-1 $170 $266 $390 $398 reversed $275 $-1 #
loop $-1 $-1 $273 $374 #
vertex $-1 $171 $399 #
vertex $-1 $171 $400 #
straight-curve $-1 79.334696493423266 0 10.937217619329695 0 1 0 I I #
face $-1 $401 $402 $40 $-1 $403 reversed single #
loop $-1 $-1 $404 $172 #
plane-surface $-1 0 -34.016079742262058 0 0 1 0 0 0 1 forward_v I I I I #
coedge $-1 $285 $178 $405 $406 reversed $173 $-1 #
coedge $-1 $407 $175 $404 $408 reversed $109 $-1 #
coedge $-1 $175 $407 $409 $410 reversed $109 $-1 #
coedge $-1 $292 $282 $175 $286 reversed $173 $-1 #
edge $-1 $411 -34.016079742262058 $412 34.016079742262058 $285 $413 forward 7 unknown #
coedge $-1 $177 $176 $414 $415 reversed $69 $-1 #
coedge $-1 $416 $417 $176 $289 forward $418 $-1 #
edge $-1 $419 -43.208392197263777 $294 -29.044216395055173 $288 $420 forward 7 unknown #
coedge $-1 $421 $405 $177 $291 forward $280 $-1 #
edge $-1 $293 29.044216395055173 $422 43.208392197263777 $290 $423 forward 7 unknown #
coedge $-1 $178 $285 $416 $424 reversed $173 $-1 #
vertex $-1 $291 $425 #
vertex $-1 $289 $426 #
straight-curve $-1 -65.170520691214648 0 -7.4372176193296955 0 1 0 I I #
face $-1 $-1 $427 $41 $-1 $428 reversed single #
loop $-1 $-1 $186 $180 #
plane-surface $-1 0 0 10.937217619329695 0 0 1 1 0 0 forward_v I I I I #
coedge $-1 $429 $430 $431 $432 reversed $181 $-1 #
coedge $-1 $433 $183 $185 $306 forward $113 $-1 #
coedge $-1 $183 $433 $429 $434 forward $113 $-1 #
coedge $-1 $431 $186 $183 $303 forward $297 $-1 #
edge $-1 $309 -22.184736059702534 $435 2.5112924358037354 $302 $436 forward 7 unknown #
coedge $-1 $437 $438 $184 $305 forward $427 $-1 #
edge $-1 $439 -67.629263680949975 $308 -59.685791981518186 $304 $440 forward 7 unknown #
edge $-1 $309 58.85982851851395 $439 68.032159484524158 $185 $441 forward 7 unknown #
coedge $-1 $186 $431 $437 $442 forward $297 $-1 #
vertex $-1 $305 $443 #
vertex $-1 $187 $444 #
straight-curve $-1 -32.021457871651933 68.705863634218872 10.937217619329701 0 -1 0 I I #
coedge $-1 $311 $311 $-1 $445 reversed $190 $-1 #
edge $-1 $446 0 $446 6.2831853071796004 $191 $447 forward 7 unknown #
vertex $-1 $194 $448 #
ellipse-curve $-1 -27.082252172550682 31.722997062202531 6.9654817696138025 0 0.86602541151947299 0.49999998660252726 1 0 0 1 I I #
coedge $-1 $315 $315 $-1 $449 reversed $197 $-1 #
edge $-1 $450 0 $450 6.2831853071796004 $198 $451 forward 7 unknown #
vertex $-1 $201 $452 #
ellipse-curve $-1 -19.673443623898805 31.722997062202531 6.9654817696138025 0 0.86602541151947299 0.49999998660252726 1 0 0 1 I I #
coedge $-1 $319 $319 $-1 $453 reversed $204 $-1 #
edge $-1 $454 0 $454 6.2831853071796004 $205 $455 forward 7 unknown #
vertex $-1 $208 $456 #
ellipse-curve $-1 -12.264635075246929 31.722997062202531 6.9654817696138025 0 0.86602541151947299 0.49999998660252726 1 0 0 1 I I #
face $-1 $-1 $457 $45 $-1 $458 reversed single #
loop $-1 $-1 $215 $209 #
plane-surface $-1 0 0 10.937217619329695 0 0 1 1 0 0 forward_v I I I I #
coedge $-1 $459 $460 $461 $462 reversed $210 $-1 #
coedge $-1 $463 $212 $214 $333 forward $132 $-1 #
coedge $-1 $212 $463 $459 $464 forward $132 $-1 #
coedge $-1 $461 $215 $212 $330 forward $324 $-1 #
edge $-1 $336 4.5707954653005629 $465 29.266823960806832 $329 $466 forward 7 unknown #
coedge $-1 $467 $468 $213 $332 forward $457 $-1 #
edge $-1 $469 -67.629263680949975 $335 -59.685791981518186 $331 $470 forward 7 unknown #
edge $-1 $336 58.85982851851395 $469 68.032159484524158 $214 $471 forward 7 unknown #
coedge $-1 $215 $461 $467 $472 forward $324 $-1 #
vertex $-1 $216 $473 #
vertex $-1 $216 $474 #
straight-curve $-1 21.48960517835426 68.705863634218872 10.937217619329701 0 -1 0 I I #
coedge $-1 $338 $338 $-1 $475 reversed $219 $-1 #
edge $-1 $476 0 $476 6.2831853071796004 $220 $477 forward 7 unknown #
vertex $-1 $223 $478 #
ellipse-curve $-1 26.428810877455518 31.722997062202531 6.9654817696138025 0 0.86602541151947299 0.49999998660252726 1 0 0 1 I I #
coedge $-1 $342 $342 $-1 $479 reversed $226 $-1 #
edge $-1 $480 0 $480 6.2831853071796004 $227 $481 forward 7 unknown #
vertex $-1 $230 $482 #
ellipse-curve $-1 33.837619426107395 31.722997062202531 6.9654817696138025 0 0.86602541151947299 0.49999998660252726 1 0 0 1 I I #
coedge $-1 $346 $346 $-1 $483 reversed $233 $-1 #
edge $-1 $484 0 $484 6.2831853071796004 $234 $485 forward 7 unknown #
vertex $-1 $237 $486 #
ellipse-curve $-1 41.246427974759271 31.722997062202531 6.9654817696138025 0 0.86602541151947299 0.49999998660252726 1 0 0 1 I I #
face $-1 $-1 $487 $49 $-1 $488 reversed single #
loop $-1 $-1 $356 $238 #
plane-surface $-1 0 0 10.937217619329695 0 0 1 1 0 0 forward_v I I I I #
coedge $-1 $489 $490 $355 $491 forward $239 $-1 #
coedge $-1 $355 $241 $243 $361 reversed $151 $-1 #
coedge $-1 $241 $354 $353 $491 reversed $151 $-1 #
coedge $-1 $492 $244 $241 $357 forward $351 $-1 #
edge $-1 $364 -50.939864882995614 $493 -47.17507848488389 $356 $494 forward 7 unknown #
coedge $-1 $243 $242 $489 $495 reversed $96 $-1 #
coedge $-1 $496 $497 $242 $360 forward $487 $-1 #
edge $-1 $498 -7.6689530216938735 $363 -1.2639157132982488 $359 $499 forward 7 unknown #
edge $-1 $500 1.2080531203272332e-014 $364 6.4050373083956362 $354 $501 forward 7 unknown #
coedge $-1 $244 $492 $496 $502 forward $351 $-1 #
vertex $-1 $360 $503 #
vertex $-1 $245 $504 #
straight-curve $-1 35.681624724233338 -30.251293344150334 10.937217619329695 -1 0 0 I I #
coedge $-1 $366 $366 $-1 $505 reversed $248 $-1 #
edge $-1 $506 0 $506 6.2831853071796004 $249 $507 forward 7 unknown #
vertex $-1 $252 $508 #
ellipse-curve $-1 67.946915000628152 -32.133686543206196 8.3463255770722036 0 -0.80901700255871778 0.5877852410284794 1 0 0 1 I I #
coedge $-1 $370 $370 $-1 $509 reversed $255 $-1 #
edge $-1 $510 0 $510 6.2831853071796004 $256 $511 forward 7 unknown #
vertex $-1 $259 $512 #
ellipse-curve $-1 74.779583896305226 -32.133686543206196 8.3463255770722036 0 -0.80901700255871778 0.5877852410284794 1 0 0 1 I I #
face $-1 $-1 $275 $39 $-1 $513 reversed single #
loop $-1 $-1 $390 $260 #
plane-surface $-1 0 34.016079742262058 0 0 -1 0 0 0 -1 forward_v I I I I #
coedge $-1 $514 $388 $391 $515 forward $261 $-1 #
coedge $-1 $394 $263 $264 $382 reversed $165 $-1 #
coedge $-1 $388 $514 $263 $380 reversed $261 $-1 #
edge $-1 $395 -10.937217619329695 $516 10.937217619329695 $379 $517 forward 7 unknown #
coedge $-1 $265 $264 $514 $518 forward $105 $-1 #
edge $-1 $386 -79.334696493423266 $516 79.334696493423266 $378 $519 forward 7 unknown #
coedge $-1 $391 $390 $265 $384 reversed $375 $-1 #
edge $-1 $520 -79.334696493423266 $385 79.334696493423266 $383 $521 forward 7 unknown #
vertex $-1 $267 $522 #
vertex $-1 $397 $523 #
straight-curve $-1 79.334696493423266 0 -10.937217619329695 0 -1 0 I I #
coedge $-1 $377 $379 $268 $389 reversed $261 $-1 #
edge $-1 $392 -34.016079742262058 $395 34.016079742262058 $388 $524 forward 7 unknown #
coedge $-1 $383 $269 $274 $398 forward $375 $-1 #
coedge $-1 $269 $383 $377 $515 reversed $375 $-1 #
vertex $-1 $270 $525 #
straight-curve $-1 0 34.016079742262058 10.937217619329695 -1 0 0 I I #
coedge $-1 $271 $378 $273 $397 reversed $165 $-1 #
vertex $-1 $389 $526 #
straight-curve $-1 0 -34.016079742262058 10.937217619329695 1 0 0 I I #
edge $-1 $276 -10.937217619329695 $386 10.937217619329695 $273 $527 forward 7 unknown #
edge $-1 $277 -10.937217619329695 $385 10.937217619329695 $274 $528 forward 7 unknown #
point $-1 79.334696493423266 -34.016079742262058 10.937217619329695 #
point $-1 79.334696493423266 34.016079742262058 10.937217619329695 #
face $-1 $-1 $418 $40 $-1 $529 reversed single #
loop $-1 $-1 $530 $279 #
plane-surface $-1 -79.334696493423266 0 0 1 0 0 0 0 -1 forward_v I I I I #
coedge $-1 $405 $421 $283 $408 forward $280 $-1 #
coedge $-1 $290 $404 $282 $406 forward $280 $-1 #
edge $-1 $412 -5.9686088096648477 $293 -2.9686088096648477 $405 $531 forward 7 unknown #
coedge $-1 $284 $283 $530 $532 reversed $109 $-1 #
edge $-1 $533 -43.208392197263777 $412 -29.044216395055173 $404 $534 forward 7 unknown #
coedge $-1 $417 $416 $284 $410 forward $418 $-1 #
edge $-1 $411 29.044216395055173 $535 43.208392197263777 $409 $536 forward 7 unknown #
vertex $-1 $410 $537 #
vertex $-1 $408 $538 #
straight-curve $-1 -65.170520691214648 0 -10.437217619329695 0 -1 0 I I #
coedge $-1 $539 $540 $287 $415 forward $402 $-1 #
edge $-1 $422 -34.016079742262058 $419 34.016079742262058 $414 $541 forward 7 unknown #
coedge $-1 $409 $288 $292 $424 forward $418 $-1 #
coedge $-1 $288 $409 $539 $542 reversed $418 $-1 #
loop $-1 $-1 $409 $401 #
vertex $-1 $542 $543 #
straight-curve $-1 -36.126304296159475 34.016079742262058 -7.4372176193296955 1 0 0 I I #
coedge $-1 $404 $290 $540 $544 forward $280 $-1 #
vertex $-1 $544 $545 #
straight-curve $-1 -36.126304296159475 -34.016079742262058 -7.4372176193296955 -1 0 0 I I #
edge $-1 $294 2.9686088096648477 $411 5.9686088096648477 $416 $546 forward 7 unknown #
point $-1 -65.170520691214648 -34.016079742262058 -7.4372176193296955 #
point $-1 -65.170520691214648 34.016079742262058 -7.4372176193296955 #
loop $-1 $-1 $304 $296 #
plane-surface $-1 0 34.016079742262058 0 0 -1 0 0 0 -1 forward_v I I I I #
coedge $-1 $430 $299 $301 $434 reversed $181 $-1 #
coedge $-1 $299 $429 $547 $548 reversed $181 $-1 #
coedge $-1 $307 $302 $299 $432 forward $297 $-1 #
edge $-1 $435 -39.275949252075861 $549 -34.689783891956814 $431 $550 forward 7 unknown #
coedge $-1 $301 $300 $438 $551 reversed $113 $-1 #
edge $-1 $552 -68.032159484524158 $435 -58.85982851851395 $429 $553 forward 7 unknown #
vertex $-1 $303 $554 #
straight-curve $-1 -9.8367218119493991 29.429914382143011 10.937217619329697 1 0 0 I I #
coedge $-1 $547 $304 $307 $442 reversed $427 $-1 #
coedge $-1 $304 $547 $433 $551 forward $427 $-1 #
vertex $-1 $305 $555 #
straight-curve $-1 -32.021457871651933 34.016079742262058 70.62300960084788 0 0 1 I I #
straight-curve $-1 -32.021457871651933 9.1145898295508232e-007 61.911324834041352 0 0.49999998660252726 -0.86602541151947299 I I #
edge $-1 $549 7.3254293761456637 $308 32.021457871651933 $437 $556 forward 7 unknown #
point $-1 -32.021457871651933 34.016079742262058 10.937217619329695 #
point $-1 -32.021457871651933 29.429914382143011 10.937217619329694 #
edge $-1 $557 1 $557 0 $311 $-1 forward 7 unknown #
vertex $-1 $312 $558 #
ellipse-curve $-1 -27.082252172550682 29.197682080060069 5.507490536974319 0 0.86602541151947299 0.49999998660252726 1 0 0 1 I I #
point $-1 -26.082252172550682 31.722997062202548 6.9654817696138123 #
edge $-1 $559 1 $559 0 $315 $-1 forward 7 unknown #
vertex $-1 $316 $560 #
ellipse-curve $-1 -19.673443623898805 29.197682080060069 5.507490536974319 0 0.86602541151947299 0.49999998660252726 1 0 0 1 I I #
point $-1 -18.673443623898805 31.722997062202548 6.9654817696138123 #
edge $-1 $561 1 $561 0 $319 $-1 forward 7 unknown #
vertex $-1 $320 $562 #
ellipse-curve $-1 -12.264635075246929 29.197682080060069 5.507490536974319 0 0.86602541151947299 0.49999998660252726 1 0 0 1 I I #
point $-1 -11.264635075246929 31.722997062202548 6.9654817696138123 #
loop $-1 $-1 $331 $323 #
plane-surface $-1 0 34.016079742262058 0 0 -1 0 0 0 -1 forward_v I I I I #
coedge $-1 $460 $326 $328 $464 reversed $210 $-1 #
coedge $-1 $326 $459 $563 $564 reversed $210 $-1 #
coedge $-1 $334 $329 $326 $462 forward $324 $-1 #
edge $-1 $465 -39.275949252075861 $565 -34.689783891956814 $461 $566 forward 7 unknown #
coedge $-1 $328 $327 $468 $567 reversed $132 $-1 #
edge $-1 $568 -68.032159484524158 $465 -58.85982851851395 $459 $569 forward 7 unknown #
vertex $-1 $330 $570 #
straight-curve $-1 16.918809713053697 29.429914382143011 10.937217619329697 1 0 0 I I #
coedge $-1 $563 $331 $334 $472 reversed $457 $-1 #
coedge $-1 $331 $563 $463 $567 forward $457 $-1 #
vertex $-1 $332 $571 #
straight-curve $-1 21.48960517835426 34.016079742262058 70.62300960084788 0 0 1 I I #
straight-curve $-1 21.48960517835426 9.1145898295508232e-007 61.911324834041352 0 0.49999998660252726 -0.86602541151947299 I I #
edge $-1 $565 -46.185633673860529 $335 -21.48960517835426 $467 $572 forward 7 unknown #
point $-1 21.48960517835426 34.016079742262058 10.937217619329695 #
point $-1 21.48960517835426 29.429914382143011 10.937217619329694 #
edge $-1 $573 1 $573 0 $338 $-1 forward 7 unknown #
vertex $-1 $339 $574 #
ellipse-curve $-1 26.428810877455518 29.197682080060069 5.507490536974319 0 0.86602541151947299 0.49999998660252726 1 0 0 1 I I #
point $-1 27.428810877455518 31.722997062202548 6.9654817696138123 #
edge $-1 $575 1 $575 0 $342 $-1 forward 7 unknown #
vertex $-1 $343 $576 #
ellipse-curve $-1 33.837619426107395 29.197682080060069 5.507490536974319 0 0.86602541151947299 0.49999998660252726 1 0 0 1 I I #
point $-1 34.837619426107395 31.722997062202548 6.9654817696138123 #
edge $-1 $577 1 $577 0 $346 $-1 forward 7 unknown #
vertex $-1 $347 $578 #
ellipse-curve $-1 41.246427974759271 29.197682080060069 5.507490536974319 0 0.86602541151947299 0.49999998660252726 1 0 0 1 I I #
point $-1 42.246427974759271 31.722997062202548 6.9654817696138123 #
loop $-1 $-1 $359 $350 #
plane-surface $-1 79.334696493423266 0 0 -1 0 0 0 0 1 forward_v I I I I #
coedge $-1 $579 $353 $358 $495 forward $239 $-1 #
coedge $-1 $353 $579 $492 $580 reversed $239 $-1 #
edge $-1 $493 38.572262848385712 $500 43.7540469329007 $353 $581 forward 7 unknown #
coedge $-1 $362 $356 $490 $580 forward $351 $-1 #
vertex $-1 $580 $582 #
straight-curve $-1 63.391802403510098 -81.191158227145948 10.937217619329694 0 -1 0 I I #
edge $-1 $500 27.710177679276761 $498 43.653071769189914 $489 $583 forward 7 unknown #
coedge $-1 $497 $359 $362 $502 reversed $487 $-1 #
coedge $-1 $359 $496 $579 $584 forward $487 $-1 #
vertex $-1 $495 $585 #
straight-curve $-1 79.334696493423266 -29.508382341969639 11.959746921189108 0 0.5877852410284794 0.80901700255871778 I I #
vertex $-1 $495 $586 #
straight-curve $-1 63.391802403510098 -34.016079742262065 5.7554335348146992 0 0.5877852410284794 0.80901700255871778 I I #
edge $-1 $587 -34.016079742262058 $363 -30.251293344150334 $496 $588 forward 7 unknown #
point $-1 79.334696493423252 -30.251293344150334 10.937217619329695 #
point $-1 63.391802403510098 -30.251293344150334 10.937217619329695 #
edge $-1 $589 1 $589 0 $366 $-1 forward 7 unknown #
vertex $-1 $367 $590 #
ellipse-curve $-1 67.946915000628152 -29.105829244436446 6.1464585451947782 0 -0.80901700255871778 0.5877852410284794 1 0 0 1 I I #
point $-1 68.946915000628152 -32.133686543206196 8.3463255770722036 #
edge $-1 $591 1 $591 0 $370 $-1 forward 7 unknown #
vertex $-1 $371 $592 #
ellipse-curve $-1 74.779583896305226 -29.105829244436446 6.1464585451947782 0 -0.80901700255871778 0.5877852410284794 1 0 0 1 I I #
point $-1 75.779583896305226 -32.133686543206196 8.3463255770722036 #
plane-surface $-1 79.334696493423266 0 0 -1 0 0 0 0 1 forward_v I I I I #
coedge $-1 $379 $377 $381 $518 reversed $261 $-1 #
edge $-1 $392 -10.937217619329695 $520 10.937217619329695 $391 $593 forward 7 unknown #
vertex $-1 $518 $594 #
straight-curve $-1 -79.334696493423266 -34.016079742262058 0 0 0 -1 I I #
edge $-1 $516 -34.016079742262058 $520 34.016079742262058 $514 $595 forward 7 unknown #
straight-curve $-1 0 -34.016079742262058 -10.937217619329695 -1 0 0 I I #
vertex $-1 $384 $596 #
straight-curve $-1 0 34.016079742262058 -10.937217619329695 1 0 0 I I #
point $-1 79.334696493423266 34.016079742262058 -10.937217619329695 #
point $-1 79.334696493423266 -34.016079742262058 -10.937217619329695 #
straight-curve $-1 -79.334696493423266 0 10.937217619329695 0 -1 0 I I #
point $-1 -79.334696493423266 34.016079742262058 10.937217619329695 #
point $-1 -79.334696493423266 -34.016079742262058 10.937217619329695 #
straight-curve $-1 79.334696493423266 -34.016079742262058 0 0 0 -1 I I #
straight-curve $-1 79.334696493423266 34.016079742262058 0 0 0 -1 I I #
plane-surface $-1 0 34.016079742262058 0 0 -1 0 0 0 -1 forward_v I I I I #
coedge $-1 $540 $539 $407 $532 forward $402 $-1 #
straight-curve $-1 -65.170520691214648 -34.016079742262058 -4.4686088096648477 0 0 1 I I #
edge $-1 $535 -34.016079742262058 $533 34.016079742262058 $530 $597 forward 7 unknown #
vertex $-1 $408 $598 #
straight-curve $-1 -36.126304296159475 -34.016079742262058 -10.437217619329695 1 0 0 I I #
vertex $-1 $410 $599 #
straight-curve $-1 -36.126304296159475 34.016079742262058 -10.437217619329695 -1 0 0 I I #
point $-1 -65.170520691214648 34.016079742262058 -10.437217619329695 #
point $-1 -65.170520691214648 -34.016079742262058 -10.437217619329695 #
coedge $-1 $530 $414 $417 $542 forward $402 $-1 #
coedge $-1 $414 $530 $421 $544 reversed $402 $-1 #
straight-curve $-1 -79.334696493423266 0 -7.4372176193296955 0 1 0 I I #
edge $-1 $419 7.4372176193296955 $535 10.437217619329695 $417 $600 forward 7 unknown #
point $-1 -79.334696493423252 34.016079742262058 -7.4372176193296955 #
edge $-1 $422 7.4372176193296955 $533 10.437217619329695 $540 $601 forward 7 unknown #
point $-1 -79.334696493423252 -34.016079742262058 -7.4372176193296955 #
straight-curve $-1 -65.170520691214648 34.016079742262058 -4.4686088096648477 0 0 -1 I I #
coedge $-1 $438 $437 $430 $548 forward $427 $-1 #
edge $-1 $549 59.685791981518186 $552 67.629263680949975 $547 $602 forward 7 unknown #
vertex $-1 $442 $603 #
straight-curve $-1 -7.3254293761456637 68.705863634218872 10.937217619329701 0 1 0 I I #
edge $-1 $552 -2.5112924358037354 $439 22.184736059702534 $438 $604 forward 7 unknown #
vertex $-1 $551 $605 #
straight-curve $-1 -7.3254293761456637 9.1145898295508232e-007 61.911324834041352 0 -0.49999998660252726 0.86602541151947299 I I #
point $-1 -7.3254293761456637 29.429914382143011 10.937217619329694 #
point $-1 -32.021457871651933 34.016079742262058 2.9937459198979042 #
straight-curve $-1 0 34.016079742262058 10.937217619329695 -1 0 0 I I #
vertex $-1 $445 $606 #
point $-1 -26.082252172550682 29.197682080060069 5.507490536974319 #
vertex $-1 $449 $607 #
point $-1 -18.673443623898805 29.197682080060069 5.507490536974319 #
vertex $-1 $453 $608 #
point $-1 -11.264635075246929 29.197682080060069 5.507490536974319 #
coedge $-1 $468 $467 $460 $564 forward $457 $-1 #
edge $-1 $565 59.685791981518186 $568 67.629263680949975 $563 $609 forward 7 unknown #
vertex $-1 $472 $610 #
straight-curve $-1 46.185633673860529 68.705863634218872 10.937217619329701 0 1 0 I I #
edge $-1 $568 -29.266823960806832 $469 -4.5707954653005629 $468 $611 forward 7 unknown #
vertex $-1 $567 $612 #
straight-curve $-1 46.185633673860529 9.1145898295508232e-007 61.911324834041352 0 -0.49999998660252726 0.86602541151947299 I I #
point $-1 46.185633673860529 29.429914382143011 10.937217619329694 #
point $-1 21.48960517835426 34.016079742262058 2.9937459198979042 #
straight-curve $-1 0 34.016079742262058 10.937217619329695 -1 0 0 I I #
vertex $-1 $475 $613 #
point $-1 27.428810877455518 29.197682080060069 5.507490536974319 #
vertex $-1 $479 $614 #
point $-1 34.837619426107395 29.197682080060069 5.507490536974319 #
vertex $-1 $483 $615 #
point $-1 42.246427974759271 29.197682080060069 5.507490536974319 #
coedge $-1 $490 $489 $497 $584 reversed $239 $-1 #
edge $-1 $493 63.391802403510098 $587 79.334696493423266 $490 $616 forward 7 unknown #
straight-curve $-1 63.391802403510098 -34.016079742262065 49.509480467715406 0 0 -1 I I #
point $-1 63.391802403510098 -34.016079742262058 10.937217619329695 #
straight-curve $-1 35.681624724233338 -34.016079742262058 5.755433534814717 1 0 0 I I #
edge $-1 $587 -10.937217619329695 $498 -5.755433534814709 $497 $617 forward 7 unknown #
point $-1 79.334696493423252 -34.016079742262058 5.755433534814709 #
point $-1 63.391802403510098 -34.016079742262058 5.755433534814709 #
vertex $-1 $502 $618 #
straight-curve $-1 79.334696493423266 0 10.937217619329695 0 1 0 I I #
vertex $-1 $505 $619 #
point $-1 68.946915000628152 -29.105829244436446 6.1464585451947782 #
vertex $-1 $509 $620 #
point $-1 75.779583896305226 -29.105829244436446 6.1464585451947782 #
straight-curve $-1 -79.334696493423266 34.016079742262058 0 0 0 -1 I I #
point $-1 -79.334696493423266 -34.016079742262058 -10.937217619329695 #
straight-curve $-1 -79.334696493423266 0 -10.937217619329695 0 1 0 I I #
point $-1 -79.334696493423266 34.016079742262058 -10.937217619329695 #
straight-curve $-1 -79.334696493423266 0 -10.437217619329695 0 -1 0 I I #
point $-1 -79.334696493423252 -34.016079742262058 -10.437217619329695 #
point $-1 -79.334696493423252 34.016079742262058 -10.437217619329695 #
straight-curve $-1 -79.334696493423266 34.016079742262058 0 0 0 -1 I I #
straight-curve $-1 -79.334696493423266 -34.016079742262058 0 0 0 -1 I I #
straight-curve $-1 -7.3254293761456637 34.016079742262058 70.62300960084788 0 0 -1 I I #
point $-1 -7.3254293761456637 34.016079742262058 10.937217619329695 #
straight-curve $-1 -9.8367218119493991 34.016079742262065 2.9937459198979042 -1 0 0 I I #
point $-1 -7.3254293761456637 34.016079742262058 2.9937459198979042 #
point $-1 -27.082252172550682 28.331656668540596 5.0074905503717924 #
point $-1 -19.673443623898805 28.331656668540596 5.0074905503717924 #
point $-1 -12.264635075246929 28.331656668540596 5.0074905503717924 #
straight-curve $-1 46.185633673860529 34.016079742262058 70.62300960084788 0 0 -1 I I #
point $-1 46.185633673860529 34.016079742262058 10.937217619329695 #
straight-curve $-1 16.918809713053697 34.016079742262065 2.9937459198979042 -1 0 0 I I #
point $-1 46.185633673860529 34.016079742262058 2.9937459198979042 #
point $-1 26.428810877455518 28.331656668540596 5.0074905503717924 #
point $-1 33.837619426107395 28.331656668540596 5.0074905503717924 #
point $-1 41.246427974759271 28.331656668540596 5.0074905503717924 #
straight-curve $-1 0 -34.016079742262058 10.937217619329695 1 0 0 I I #
straight-curve $-1 79.334696493423266 -34.016079742262058 0 0 0 -1 I I #
point $-1 79.334696493423266 -34.016079742262058 10.937217619329695 #
point $-1 67.946915000628152 -28.296812241877728 5.558673304166299 #
point $-1 74.779583896305226 -28.296812241877728 5.558673304166299 #
End-of-ACIS-data 