500 0 9 0           
7 Unknown 11 ACIS 5.0 NT 24 Fri Mar 26 14:44:11 1999 
-1 9.9999999999999995e-007 1e-010 
body $-1 $9 $-1 $10 #
body $-1 $11 $-1 $12 #
body $-1 $13 $-1 $14 #
body $-1 $15 $-1 $16 #
body $-1 $17 $-1 $18 #
body $-1 $19 $-1 $20 #
body $-1 $21 $-1 $22 #
body $-1 $23 $-1 $24 #
body $-1 $25 $-1 $26 #
lump $-1 $-1 $27 $0 #
transform $-1 1 0 0 0 1 0 0 0 1 60.303353984191411 40.837592534373265 16.84028802889976 1 rotate no_reflect no_shear #
lump $-1 $-1 $28 $1 #
transform $-1 1 0 0 0 1 0 0 0 1 60.303353984191411 40.837592534373265 16.84028802889976 1 rotate no_reflect no_shear #
lump $-1 $-1 $29 $2 #
transform $-1 1 0 0 0 1 0 0 0 1 60.303353984191411 40.837592534373265 16.84028802889976 1 rotate no_reflect no_shear #
lump $-1 $-1 $30 $3 #
transform $-1 1 0 0 0 1 0 0 0 1 60.303353984191411 40.837592534373265 16.84028802889976 1 rotate no_reflect no_shear #
lump $-1 $-1 $31 $4 #
transform $-1 1 0 0 0 1 0 0 0 1 60.303353984191411 40.837592534373265 16.84028802889976 1 rotate no_reflect no_shear #
lump $-1 $-1 $32 $5 #
transform $-1 1 0 0 0 1 0 0 0 1 60.303353984191411 40.837592534373265 16.84028802889976 1 rotate no_reflect no_shear #
lump $-1 $-1 $33 $6 #
transform $-1 1 0 0 0 1 0 0 0 1 60.303353984191411 40.837592534373265 16.84028802889976 1 rotate no_reflect no_shear #
lump $-1 $-1 $34 $7 #
transform $-1 1 0 0 0 1 0 0 0 1 60.303353984191411 40.837592534373265 16.84028802889976 1 rotate no_reflect no_shear #
lump $-1 $-1 $35 $8 #
transform $-1 1 0 0 0 1 0 0 0 1 60.303353984191411 40.837592534373265 16.84028802889976 1 rotate no_reflect no_shear #
shell $-1 $-1 $-1 $36 $-1 $9 #
shell $-1 $-1 $-1 $37 $-1 $11 #
shell $-1 $-1 $-1 $38 $-1 $13 #
shell $-1 $-1 $-1 $39 $-1 $15 #
shell $-1 $-1 $-1 $40 $-1 $17 #
shell $-1 $-1 $-1 $41 $-1 $19 #
shell $-1 $-1 $-1 $42 $-1 $21 #
shell $-1 $-1 $-1 $43 $-1 $23 #
shell $-1 $-1 $-1 $44 $-1 $25 #
face $-1 $45 $46 $27 $-1 $47 forward single #
face $-1 $48 $49 $28 $-1 $50 forward single #
face $-1 $51 $52 $29 $-1 $53 forward single #
face $-1 $54 $55 $30 $-1 $56 reversed single #
face $-1 $57 $58 $31 $-1 $59 forward single #
face $-1 $60 $61 $32 $-1 $62 reversed single #
face $-1 $63 $64 $33 $-1 $65 forward single #
face $-1 $66 $67 $34 $-1 $68 reversed single #
face $-1 $69 $70 $35 $-1 $71 forward single #
face $-1 $72 $73 $27 $-1 $74 reversed single #
loop $-1 $-1 $75 $36 #
plane-surface $-1 0 0 16.84028802889976 0 0 1 1 0 0 forward_v I I I I #
face $-1 $76 $77 $28 $-1 $78 reversed single #
loop $-1 $-1 $79 $37 #
plane-surface $-1 0 -30.220101095237553 15.057045929457177 0 0 1 1 0 0 forward_v I I I I #
face $-1 $80 $81 $29 $-1 $82 reversed single #
loop $-1 $-1 $83 $38 #
plane-surface $-1 0 30.220101095237546 15.057045929457177 0 0 1 1 0 0 forward_v I I I I #
face $-1 $84 $85 $30 $-1 $86 reversed single #
loop $-1 $-1 $87 $39 #
plane-surface $-1 -149.93160592752625 -2.2239264070966165 82.189278358497248 0 -1 0 0.74314483375859142 0 -0.66913059716165679 forward_v I I I I #
face $-1 $88 $89 $31 $-1 $90 forward single #
loop $-1 $91 $92 $40 #
cone-surface $-1 -51.624706665524883 -5.8844882434234762 7.5730812784552164 0.74314483375859142 0 -0.66913059716165679 1.0036958957424851 0 1.1147172506378871 1 I I 0 1 1.5 forward I I I I #
face $-1 $93 $94 $32 $-1 $95 reversed single #
loop $-1 $-1 $96 $41 #
plane-surface $-1 -149.93160592752625 17.378683249005224 82.189278358497248 0 -1 0 0.74314483375859142 0 -0.66913059716165679 forward_v I I I I #
face $-1 $97 $98 $33 $-1 $99 forward single #
loop $-1 $100 $101 $42 #
cone-surface $-1 -51.624706665524883 13.718121412678364 7.5730812784552164 0.74314483375859142 0 -0.66913059716165679 1.0036958957424851 0 1.1147172506378871 1 I I 0 1 1.5 forward I I I I #
face $-1 $102 $103 $34 $-1 $104 reversed single #
loop $-1 $-1 $105 $43 #
plane-surface $-1 21.934884227306547 11.134070510705307 170.57012746554409 0 1 0 0.52991927123019833 0 0.84804809178421925 forward_v I I I I #
face $-1 $106 $107 $35 $-1 $108 forward single #
loop $-1 $109 $110 $44 #
cone-surface $-1 49.049865636639296 15.368340083403574 8.5581818464230004 -0.52991927123019833 0 -0.84804809178421925 1.2720721376763289 0 -0.79487890684529749 1 I I 0 1 1.5 forward I I I I #
face $-1 $111 $112 $27 $-1 $113 reversed single #
loop $-1 $-1 $114 $45 #
plane-surface $-1 0 0 -16.84028802889976 0 0 1 1 0 0 forward_v I I I I #
coedge $-1 $115 $116 $117 $118 forward $46 $-1 #
face $-1 $119 $120 $28 $-1 $121 reversed single #
loop $-1 $-1 $122 $48 #
plane-surface $-1 0 -30.220101095237553 7.2999365408834418 0 0 1 1 0 0 forward_v I I I I #
coedge $-1 $123 $124 $125 $126 reversed $49 $-1 #
face $-1 $127 $128 $29 $-1 $129 reversed single #
loop $-1 $-1 $130 $51 #
plane-surface $-1 0 30.220101095237546 7.2999365408834418 0 0 1 1 0 0 forward_v I I I I #
coedge $-1 $131 $132 $133 $134 reversed $52 $-1 #
face $-1 $135 $136 $30 $-1 $137 reversed single #
loop $-1 $-1 $138 $54 #
plane-surface $-1 -60.303353984191403 -5.8844882434234691 1.4876398339116861 -0.74314483375859142 0 0.66913059716165679 0.66913059716165679 0 0.74314483375859142 forward_v I I I I #
coedge $-1 $139 $140 $141 $142 reversed $55 $-1 #
face $-1 $-1 $143 $31 $-1 $144 forward single #
loop $-1 $145 $146 $57 #
cone-surface $-1 -49.300493812240163 -5.8844882434234762 5.4803506776334565 0.74314483375859142 0 -0.66913059716165679 0.50184794787124254 0 0.55735862531894353 1 I I -0.70710678118654757 0.70710678118654757 0.75 forward I I I I #
loop $-1 $-1 $147 $40 #
coedge $-1 $92 $92 $148 $149 reversed $58 $-1 #
face $-1 $150 $151 $32 $-1 $152 reversed single #
loop $-1 $-1 $153 $60 #
plane-surface $-1 -60.303353984191403 13.718121412678371 1.4876398339116861 -0.74314483375859142 0 0.66913059716165679 0.66913059716165679 0 0.74314483375859142 forward_v I I I I #
coedge $-1 $154 $155 $156 $157 reversed $61 $-1 #
face $-1 $-1 $158 $33 $-1 $159 forward single #
loop $-1 $160 $161 $63 #
cone-surface $-1 -49.300493812240163 13.718121412678364 5.4803506776334565 0.74314483375859142 0 -0.66913059716165679 0.50184794787124254 0 0.55735862531894353 1 I I -0.70710678118654757 0.70710678118654757 0.75 forward I I I I #
loop $-1 $-1 $162 $42 #
coedge $-1 $101 $101 $163 $164 reversed $64 $-1 #
face $-1 $165 $166 $34 $-1 $167 forward single #
loop $-1 $-1 $168 $66 #
plane-surface $-1 -41.976934564772222 15.368340083403574 68.289838916580464 0.52991927123019833 0 0.84804809178421925 0.84804809178421925 0 -0.52991927123019833 forward_v I I I I #
coedge $-1 $169 $170 $171 $172 reversed $67 $-1 #
face $-1 $-1 $173 $35 $-1 $174 forward single #
loop $-1 $175 $176 $69 #
cone-surface $-1 47.37083647136965 15.368340083403574 5.8711735473071407 -0.52991927123019833 0 -0.84804809178421925 0.63603606883816444 0 -0.39743945342264875 1 I I -0.70710678118654713 0.70710678118654802 0.75 forward I I I I #
loop $-1 $-1 $177 $44 #
coedge $-1 $110 $110 $178 $179 reversed $70 $-1 #
face $-1 $180 $181 $27 $-1 $182 reversed single #
loop $-1 $-1 $183 $72 #
plane-surface $-1 0 -40.837592534373265 0 0 1 0 0 0 1 forward_v I I I I #
coedge $-1 $184 $185 $186 $187 forward $73 $-1 #
coedge $-1 $188 $75 $189 $190 forward $46 $-1 #
coedge $-1 $75 $188 $191 $192 forward $46 $-1 #
coedge $-1 $193 $194 $75 $118 reversed $195 $-1 #
edge $-1 $196 -40.837592534373265 $197 40.837592534373265 $117 $198 forward 7 unknown #
face $-1 $199 $200 $28 $-1 $201 reversed single #
loop $-1 $-1 $202 $76 #
plane-surface $-1 0 -19.602609656101841 11.178491235170309 0 -1 0 0 0 -1 forward_v I I I I #
coedge $-1 $203 $204 $205 $206 reversed $77 $-1 #
coedge $-1 $207 $79 $208 $209 forward $49 $-1 #
coedge $-1 $79 $207 $210 $211 reversed $49 $-1 #
coedge $-1 $212 $213 $79 $126 forward $214 $-1 #
edge $-1 $215 4.4925591084830643 $216 25.727541986754488 $125 $217 forward 7 unknown #
face $-1 $218 $219 $29 $-1 $220 reversed single #
loop $-1 $-1 $221 $80 #
plane-surface $-1 0 19.602609656101833 11.178491235170309 0 1 0 0 0 1 forward_v I I I I #
coedge $-1 $222 $223 $224 $225 reversed $81 $-1 #
coedge $-1 $226 $83 $227 $228 reversed $52 $-1 #
coedge $-1 $83 $226 $229 $230 forward $52 $-1 #
coedge $-1 $231 $232 $83 $134 forward $219 $-1 #
edge $-1 $233 -25.727541986754485 $234 -4.4925591084830607 $133 $235 forward 7 unknown #
face $-1 $236 $237 $30 $-1 $238 reversed single #
loop $-1 $-1 $239 $84 #
plane-surface $-1 -149.93160592752625 -9.5450500797503217 82.189278358497248 0 1 0 -0.74314483375859142 0 0.66913059716165679 forward_v I I I I #
coedge $-1 $240 $241 $242 $243 reversed $85 $-1 #
coedge $-1 $140 $87 $244 $245 reversed $55 $-1 #
coedge $-1 $87 $139 $240 $246 reversed $55 $-1 #
coedge $-1 $242 $247 $87 $142 forward $237 $-1 #
edge $-1 $248 24.254351150348864 $249 39.606999345336945 $141 $250 forward 7 unknown #
loop $-1 $-1 $148 $88 #
plane-surface $-1 -60.303353984191403 -5.8844882434234691 1.4876398339116861 -0.74314483375859142 0 0.66913059716165679 0.66913059716165679 0 0.74314483375859142 forward_v I I I I #
loop $-1 $-1 $251 $57 #
coedge $-1 $146 $146 $147 $252 reversed $89 $-1 #
coedge $-1 $147 $147 $146 $252 forward $91 $-1 #
coedge $-1 $148 $148 $92 $149 forward $143 $-1 #
edge $-1 $253 0 $253 6.2831853071796004 $148 $254 forward 7 unknown #
face $-1 $255 $256 $32 $-1 $257 forward single #
loop $-1 $-1 $258 $93 #
plane-surface $-1 -149.93160592752625 10.057559576351519 82.189278358497248 0 1 0 -0.74314483375859142 0 0.66913059716165679 forward_v I I I I #
coedge $-1 $259 $260 $261 $262 reversed $94 $-1 #
coedge $-1 $155 $96 $263 $264 reversed $61 $-1 #
coedge $-1 $96 $154 $259 $265 reversed $61 $-1 #
coedge $-1 $261 $266 $96 $157 forward $267 $-1 #
edge $-1 $268 24.254351150348864 $269 39.606999345336945 $156 $270 forward 7 unknown #
loop $-1 $-1 $163 $97 #
plane-surface $-1 -60.303353984191403 13.718121412678371 1.4876398339116861 -0.74314483375859142 0 0.66913059716165679 0.66913059716165679 0 0.74314483375859142 forward_v I I I I #
loop $-1 $-1 $271 $63 #
coedge $-1 $161 $161 $162 $272 reversed $98 $-1 #
coedge $-1 $162 $162 $161 $272 forward $100 $-1 #
coedge $-1 $163 $163 $101 $164 forward $158 $-1 #
edge $-1 $273 0 $273 6.2831853071796004 $163 $274 forward 7 unknown #
face $-1 $275 $276 $34 $-1 $277 forward single #
loop $-1 $-1 $278 $102 #
plane-surface $-1 0 0 16.84028802889976 0 0 1 1 0 0 forward_v I I I I #
coedge $-1 $279 $280 $281 $282 reversed $103 $-1 #
coedge $-1 $170 $105 $283 $284 reversed $67 $-1 #
coedge $-1 $105 $169 $279 $285 reversed $67 $-1 #
coedge $-1 $281 $286 $105 $172 forward $287 $-1 #
edge $-1 $288 68.444775703872281 $289 80.907043608270357 $171 $290 forward 7 unknown #
loop $-1 $-1 $178 $106 #
plane-surface $-1 -41.976934564772222 15.368340083403574 68.289838916580464 0.52991927123019833 0 0.84804809178421925 0.84804809178421925 0 -0.52991927123019833 forward_v I I I I #
loop $-1 $-1 $291 $69 #
coedge $-1 $176 $176 $177 $292 reversed $107 $-1 #
coedge $-1 $177 $177 $176 $292 forward $109 $-1 #
coedge $-1 $178 $178 $110 $179 forward $173 $-1 #
edge $-1 $293 0 $293 6.2831853071796004 $178 $294 forward 7 unknown #
face $-1 $295 $296 $27 $-1 $297 reversed single #
loop $-1 $-1 $298 $111 #
plane-surface $-1 -60.303353984191411 0 0 1 0 0 0 0 -1 forward_v I I I I #
coedge $-1 $299 $191 $300 $301 forward $112 $-1 #
coedge $-1 $302 $114 $299 $303 forward $73 $-1 #
coedge $-1 $114 $302 $304 $305 forward $73 $-1 #
coedge $-1 $194 $193 $114 $187 reversed $195 $-1 #
edge $-1 $306 -40.837592534373265 $307 40.837592534373265 $186 $308 forward 7 unknown #
coedge $-1 $116 $115 $309 $310 forward $46 $-1 #
coedge $-1 $311 $312 $115 $190 reversed $296 $-1 #
edge $-1 $197 -60.303353984191411 $313 60.303353984191411 $189 $314 forward 7 unknown #
coedge $-1 $183 $315 $116 $192 reversed $112 $-1 #
edge $-1 $316 -60.303353984191411 $196 60.303353984191411 $191 $317 forward 7 unknown #
coedge $-1 $186 $117 $315 $318 forward $195 $-1 #
coedge $-1 $117 $186 $311 $319 reversed $195 $-1 #
loop $-1 $-1 $193 $295 #
vertex $-1 $118 $320 #
vertex $-1 $118 $321 #
straight-curve $-1 60.303353984191411 0 16.84028802889976 0 1 0 I I #
face $-1 $322 $323 $28 $-1 $324 reversed single #
loop $-1 $-1 $325 $119 #
plane-surface $-1 -60.303353984191411 0 0 1 0 0 0 0 -1 forward_v I I I I #
coedge $-1 $326 $208 $213 $327 reversed $120 $-1 #
coedge $-1 $328 $122 $329 $330 reversed $77 $-1 #
coedge $-1 $122 $328 $326 $331 forward $77 $-1 #
coedge $-1 $213 $212 $122 $206 forward $214 $-1 #
edge $-1 $332 -25.727541986754488 $333 -4.4925591084830643 $205 $334 forward 7 unknown #
coedge $-1 $124 $123 $325 $335 reversed $49 $-1 #
coedge $-1 $202 $336 $123 $209 reversed $120 $-1 #
edge $-1 $215 -60.303353984191411 $337 60.303353984191411 $208 $338 forward 7 unknown #
coedge $-1 $339 $340 $124 $211 forward $323 $-1 #
edge $-1 $216 -60.303353984191411 $341 60.303353984191411 $210 $342 forward 7 unknown #
coedge $-1 $205 $125 $340 $343 forward $214 $-1 #
coedge $-1 $125 $205 $202 $327 forward $214 $-1 #
loop $-1 $-1 $125 $322 #
vertex $-1 $126 $344 #
vertex $-1 $343 $345 #
straight-curve $-1 60.303353984191411 -15.110050547618776 15.057045929457177 0 -1 0 I I #
face $-1 $346 $347 $29 $-1 $348 reversed single #
loop $-1 $-1 $133 $127 #
plane-surface $-1 60.303353984191411 0 0 -1 0 0 0 0 1 forward_v I I I I #
coedge $-1 $349 $229 $350 $351 reversed $128 $-1 #
coedge $-1 $352 $130 $349 $353 forward $81 $-1 #
coedge $-1 $130 $352 $354 $355 reversed $81 $-1 #
coedge $-1 $232 $231 $130 $225 forward $219 $-1 #
edge $-1 $356 4.4925591084830607 $357 25.727541986754485 $224 $358 forward 7 unknown #
coedge $-1 $132 $131 $359 $360 reversed $52 $-1 #
coedge $-1 $361 $362 $131 $228 forward $363 $-1 #
edge $-1 $364 -60.303353984191411 $233 60.303353984191411 $227 $365 forward 7 unknown #
coedge $-1 $221 $366 $132 $230 reversed $128 $-1 #
edge $-1 $367 -60.303353984191411 $234 60.303353984191411 $229 $368 forward 7 unknown #
coedge $-1 $224 $133 $366 $369 forward $219 $-1 #
coedge $-1 $133 $224 $361 $370 reversed $219 $-1 #
vertex $-1 $370 $371 #
vertex $-1 $134 $372 #
straight-curve $-1 60.303353984191411 15.110050547618773 15.057045929457177 0 -1 0 I I #
face $-1 $-1 $373 $30 $-1 $374 forward single #
loop $-1 $-1 $141 $135 #
plane-surface $-1 -60.303353984191411 0 0 1 0 0 0 0 -1 forward_v I I I I #
coedge $-1 $375 $376 $377 $378 reversed $136 $-1 #
coedge $-1 $379 $138 $140 $246 forward $85 $-1 #
coedge $-1 $138 $379 $375 $380 forward $85 $-1 #
coedge $-1 $377 $141 $138 $243 forward $237 $-1 #
edge $-1 $249 -0.71831771461511806 $381 6.6028059580385872 $242 $382 forward 7 unknown #
coedge $-1 $383 $384 $139 $245 forward $373 $-1 #
edge $-1 $385 -28.486035160973252 $248 -14.662448979571714 $244 $386 forward 7 unknown #
edge $-1 $249 -1.0694865687384493e-014 $385 20.659025667095381 $140 $387 forward 7 unknown #
coedge $-1 $141 $377 $383 $388 reversed $237 $-1 #
vertex $-1 $388 $389 #
vertex $-1 $142 $390 #
straight-curve $-1 -60.303353984191411 -2.2239264070966165 41.094639179248624 0 0 -1 I I #
coedge $-1 $251 $251 $-1 $391 reversed $145 $-1 #
edge $-1 $392 0 $392 6.2831853071796004 $146 $393 forward 7 unknown #
vertex $-1 $149 $394 #
ellipse-curve $-1 -53.391560893490642 -5.8844882434234762 9.1639639314057177 -0.74314483375859142 0 0.66913059716165679 1.0036958957424851 0 1.1147172506378871 1 I I #
face $-1 $-1 $267 $32 $-1 $395 reversed single #
loop $-1 $-1 $396 $150 #
plane-surface $-1 0 0 16.84028802889976 0 0 1 1 0 0 forward_v I I I I #
coedge $-1 $397 $398 $399 $400 reversed $151 $-1 #
coedge $-1 $401 $153 $155 $265 forward $94 $-1 #
coedge $-1 $153 $401 $397 $402 forward $94 $-1 #
coedge $-1 $399 $156 $153 $262 forward $267 $-1 #
edge $-1 $269 -10.519622542666038 $403 -3.1984988700123331 $261 $404 forward 7 unknown #
coedge $-1 $405 $406 $154 $264 forward $256 $-1 #
edge $-1 $407 -28.486035160973252 $268 -14.662448979571714 $263 $408 forward 7 unknown #
edge $-1 $269 -1.0694865687384493e-014 $407 20.659025667095381 $155 $409 forward 7 unknown #
coedge $-1 $156 $399 $405 $410 reversed $267 $-1 #
loop $-1 $-1 $399 $255 #
vertex $-1 $410 $411 #
vertex $-1 $157 $412 #
straight-curve $-1 -60.303353984191411 17.378683249005224 41.094639179248624 0 0 -1 I I #
coedge $-1 $271 $271 $-1 $413 reversed $160 $-1 #
edge $-1 $414 0 $414 6.2831853071796004 $161 $415 forward 7 unknown #
vertex $-1 $164 $416 #
ellipse-curve $-1 -53.391560893490642 13.718121412678364 9.1639639314057177 -0.74314483375859142 0 0.66913059716165679 1.0036958957424851 0 1.1147172506378871 1 I I #
face $-1 $-1 $287 $34 $-1 $417 reversed single #
loop $-1 $-1 $418 $165 #
plane-surface $-1 0 19.602609656101833 11.178491235170309 0 1 0 0 0 1 forward_v I I I I #
coedge $-1 $419 $420 $421 $422 forward $166 $-1 #
coedge $-1 $423 $168 $170 $285 forward $103 $-1 #
coedge $-1 $168 $423 $418 $424 forward $103 $-1 #
coedge $-1 $425 $171 $168 $282 forward $287 $-1 #
edge $-1 $289 3.44990046900352 $426 11.918439614400054 $281 $427 forward 7 unknown #
coedge $-1 $420 $419 $169 $284 forward $166 $-1 #
edge $-1 $428 29.392114599127954 $288 49.335911870538141 $283 $429 forward 7 unknown #
edge $-1 $289 -120.60670796838281 $428 -97.08941282365798 $170 $430 forward 7 unknown #
coedge $-1 $171 $425 $420 $431 reversed $287 $-1 #
loop $-1 $-1 $425 $275 #
vertex $-1 $431 $432 #
vertex $-1 $172 $433 #
straight-curve $-1 60.303353984191411 11.134070510705307 85.285063732772045 0 0 -1 I I #
coedge $-1 $291 $291 $-1 $434 reversed $175 $-1 #
edge $-1 $435 0 $435 6.2831853071796004 $176 $436 forward 7 unknown #
vertex $-1 $179 $437 #
ellipse-curve $-1 50.331455348486315 15.368340083403574 10.609154076700735 0.52991927123019833 0 0.84804809178421925 1.2720721376763289 0 -0.79487890684529749 1 I I #
face $-1 $-1 $195 $27 $-1 $438 reversed single #
loop $-1 $-1 $311 $180 #
plane-surface $-1 0 40.837592534373265 0 0 -1 0 0 0 -1 forward_v I I I I #
coedge $-1 $439 $309 $312 $440 forward $181 $-1 #
coedge $-1 $315 $183 $184 $303 reversed $112 $-1 #
coedge $-1 $309 $439 $183 $301 reversed $181 $-1 #
edge $-1 $316 -16.84028802889976 $441 16.84028802889976 $300 $442 forward 7 unknown #
coedge $-1 $185 $184 $439 $443 forward $73 $-1 #
edge $-1 $307 -60.303353984191411 $441 60.303353984191411 $299 $444 forward 7 unknown #
coedge $-1 $312 $311 $185 $305 reversed $296 $-1 #
edge $-1 $445 -60.303353984191411 $306 60.303353984191411 $304 $446 forward 7 unknown #
vertex $-1 $187 $447 #
vertex $-1 $318 $448 #
straight-curve $-1 60.303353984191411 0 -16.84028802889976 0 -1 0 I I #
coedge $-1 $298 $300 $188 $310 reversed $181 $-1 #
edge $-1 $313 -40.837592534373265 $316 40.837592534373265 $309 $449 forward 7 unknown #
coedge $-1 $304 $189 $194 $319 forward $296 $-1 #
coedge $-1 $189 $304 $298 $440 reversed $296 $-1 #
vertex $-1 $190 $450 #
straight-curve $-1 0 40.837592534373265 16.84028802889976 -1 0 0 I I #
coedge $-1 $191 $299 $193 $318 reversed $112 $-1 #
vertex $-1 $310 $451 #
straight-curve $-1 0 -40.837592534373265 16.84028802889976 1 0 0 I I #
edge $-1 $196 -16.84028802889976 $307 16.84028802889976 $193 $452 forward 7 unknown #
edge $-1 $197 -16.84028802889976 $306 16.84028802889976 $194 $453 forward 7 unknown #
point $-1 60.303353984191411 -40.837592534373265 16.84028802889976 #
point $-1 60.303353984191411 40.837592534373265 16.84028802889976 #
face $-1 $-1 $214 $28 $-1 $454 reversed single #
loop $-1 $-1 $210 $199 #
plane-surface $-1 0 -40.837592534373265 0 0 1 0 0 0 1 forward_v I I I I #
coedge $-1 $455 $456 $207 $335 forward $200 $-1 #
coedge $-1 $336 $202 $204 $331 reversed $120 $-1 #
edge $-1 $333 1.7106909232982872 $215 9.467800311872022 $213 $457 forward 7 unknown #
coedge $-1 $204 $203 $458 $459 reversed $77 $-1 #
coedge $-1 $340 $339 $203 $330 forward $323 $-1 #
edge $-1 $460 -60.303353984191411 $332 60.303353984191411 $329 $461 forward 7 unknown #
edge $-1 $462 -60.303353984191411 $333 60.303353984191411 $326 $463 forward 7 unknown #
vertex $-1 $330 $464 #
vertex $-1 $206 $465 #
straight-curve $-1 60.303353984191411 -15.110050547618776 7.2999365408834418 0 1 0 I I #
edge $-1 $341 -25.727541986754488 $337 -4.4925591084830643 $325 $466 forward 7 unknown #
coedge $-1 $208 $326 $455 $467 reversed $120 $-1 #
vertex $-1 $335 $468 #
straight-curve $-1 0 -19.602609656101841 15.057045929457177 -1 0 0 I I #
coedge $-1 $329 $210 $456 $469 forward $323 $-1 #
coedge $-1 $210 $329 $212 $343 reversed $323 $-1 #
vertex $-1 $469 $470 #
straight-curve $-1 0 -40.837592534373265 15.057045929457177 -1 0 0 I I #
edge $-1 $216 -15.057045929457177 $332 -7.2999365408834418 $212 $471 forward 7 unknown #
point $-1 60.303353984191411 -19.602609656101841 15.057045929457177 #
point $-1 60.303353984191411 -40.837592534373265 15.057045929457177 #
face $-1 $-1 $363 $29 $-1 $472 reversed single #
loop $-1 $-1 $359 $218 #
plane-surface $-1 -60.303353984191411 0 0 1 0 0 0 0 -1 forward_v I I I I #
coedge $-1 $366 $221 $222 $353 reversed $128 $-1 #
coedge $-1 $359 $473 $221 $351 forward $347 $-1 #
edge $-1 $474 1.7106909232982872 $367 9.467800311872022 $350 $475 forward 7 unknown #
coedge $-1 $223 $222 $473 $476 reversed $81 $-1 #
edge $-1 $356 -60.303353984191411 $474 60.303353984191411 $349 $477 forward 7 unknown #
coedge $-1 $362 $361 $223 $355 forward $363 $-1 #
edge $-1 $357 -60.303353984191411 $478 60.303353984191411 $354 $479 forward 7 unknown #
vertex $-1 $225 $480 #
vertex $-1 $355 $481 #
straight-curve $-1 60.303353984191411 15.110050547618773 7.2999365408834418 0 1 0 I I #
coedge $-1 $482 $350 $226 $360 forward $347 $-1 #
edge $-1 $367 4.4925591084830607 $364 25.727541986754485 $359 $483 forward 7 unknown #
coedge $-1 $354 $227 $232 $370 forward $363 $-1 #
coedge $-1 $227 $354 $482 $484 reversed $363 $-1 #
loop $-1 $-1 $227 $346 #
vertex $-1 $484 $485 #
straight-curve $-1 0 40.837592534373265 15.057045929457177 1 0 0 I I #
coedge $-1 $229 $349 $231 $369 reversed $128 $-1 #
vertex $-1 $360 $486 #
straight-curve $-1 0 19.602609656101833 15.057045929457177 1 0 0 I I #
edge $-1 $234 -9.467800311872022 $356 -1.7106909232982872 $231 $487 forward 7 unknown #
edge $-1 $233 -15.057045929457177 $357 -7.2999365408834418 $232 $488 forward 7 unknown #
point $-1 60.303353984191411 40.837592534373258 15.057045929457177 #
point $-1 60.303353984191411 19.602609656101833 15.057045929457177 #
loop $-1 $-1 $244 $236 #
plane-surface $-1 0 0 16.84028802889976 0 0 1 1 0 0 forward_v I I I I #
coedge $-1 $376 $239 $241 $380 reversed $136 $-1 #
coedge $-1 $239 $375 $489 $490 reversed $136 $-1 #
coedge $-1 $247 $242 $239 $378 forward $237 $-1 #
edge $-1 $381 -39.606999345336945 $491 -24.254351150348864 $377 $492 forward 7 unknown #
coedge $-1 $241 $240 $384 $493 reversed $85 $-1 #
edge $-1 $494 -20.659025667095381 $381 1.0694865687384493e-014 $375 $495 forward 7 unknown #
vertex $-1 $243 $496 #
straight-curve $-1 -60.303353984191411 -2.9422441217117346 1.4876398339116703 0 -1 0 I I #
coedge $-1 $489 $244 $247 $388 forward $373 $-1 #
coedge $-1 $244 $489 $379 $493 forward $373 $-1 #
vertex $-1 $245 $497 #
straight-curve $-1 -74.965802963763124 -2.2239264070966165 16.840288028899764 -1 0 0 I I #
straight-curve $-1 -60.303353984191403 -2.2239264070966165 1.4876398339116861 0.66913059716165679 0 0.74314483375859142 I I #
edge $-1 $248 2.2239264070966165 $491 9.5450500797503217 $247 $498 forward 7 unknown #
point $-1 -60.303353984191411 -2.2239264070966165 16.84028802889976 #
point $-1 -60.303353984191411 -2.2239264070966165 1.4876398339116781 #
edge $-1 $499 1 $499 0 $251 $-1 forward 7 unknown #
vertex $-1 $252 $500 #
ellipse-curve $-1 -49.857852437559103 -5.8844882434234762 5.9821986255046991 -0.74314483375859142 0 0.66913059716165679 1.0036958957424851 0 1.1147172506378871 1 I I #
point $-1 -52.387864997748174 -5.8844882434234762 10.27868118204362 #
plane-surface $-1 -60.303353984191411 0 0 1 0 0 0 0 -1 forward_v I I I I #
coedge $-1 $406 $405 $398 $501 forward $256 $-1 #
coedge $-1 $398 $258 $260 $402 reversed $151 $-1 #
coedge $-1 $258 $397 $396 $501 reversed $151 $-1 #
coedge $-1 $266 $261 $258 $400 forward $267 $-1 #
edge $-1 $403 -39.606999345336945 $502 -24.254351150348864 $399 $503 forward 7 unknown #
coedge $-1 $260 $259 $406 $504 reversed $94 $-1 #
edge $-1 $505 -20.659025667095381 $403 1.0694865687384493e-014 $397 $506 forward 7 unknown #
vertex $-1 $262 $507 #
straight-curve $-1 -60.303353984191411 6.8590607063391857 1.4876398339116703 0 -1 0 I I #
coedge $-1 $396 $263 $266 $410 forward $256 $-1 #
coedge $-1 $263 $396 $401 $504 forward $256 $-1 #
vertex $-1 $264 $508 #
straight-curve $-1 -74.965802963763124 17.378683249005224 16.840288028899764 -1 0 0 I I #
straight-curve $-1 -60.303353984191403 17.378683249005224 1.4876398339116861 0.66913059716165679 0 0.74314483375859142 I I #
edge $-1 $268 -17.378683249005224 $502 -10.057559576351519 $266 $509 forward 7 unknown #
point $-1 -60.303353984191411 17.378683249005224 16.84028802889976 #
point $-1 -60.303353984191411 17.378683249005224 1.4876398339116781 #
edge $-1 $510 1 $510 0 $271 $-1 forward 7 unknown #
vertex $-1 $272 $511 #
ellipse-curve $-1 -49.857852437559103 13.718121412678364 5.9821986255046991 -0.74314483375859142 0 0.66913059716165679 1.0036958957424851 0 1.1147172506378871 1 I I #
point $-1 -52.387864997748174 13.718121412678364 10.27868118204362 #
plane-surface $-1 60.303353984191411 0 0 -1 0 0 0 0 1 forward_v I I I I #
coedge $-1 $421 $512 $280 $424 reversed $276 $-1 #
coedge $-1 $283 $278 $423 $513 forward $166 $-1 #
coedge $-1 $278 $283 $286 $431 forward $166 $-1 #
coedge $-1 $512 $418 $278 $422 reversed $276 $-1 #
edge $-1 $514 -49.335911870538141 $515 -29.392114599127954 $278 $516 forward 7 unknown #
coedge $-1 $280 $279 $419 $513 reversed $103 $-1 #
edge $-1 $515 97.08941282365798 $426 120.60670796838281 $418 $517 forward 7 unknown #
coedge $-1 $286 $281 $512 $518 forward $287 $-1 #
vertex $-1 $518 $519 #
straight-curve $-1 60.303353984191411 7.6841700417017869 4.3780201245016883 0 1 0 I I #
vertex $-1 $284 $520 #
straight-curve $-1 10.967442113653274 11.134070510705307 16.840288028899764 1 0 0 I I #
straight-curve $-1 -41.976934564772222 11.134070510705307 68.289838916580464 -0.84804809178421925 0 0.52991927123019833 I I #
edge $-1 $288 11.134070510705307 $514 19.602609656101841 $286 $521 forward 7 unknown #
point $-1 60.303353984191411 11.134070510705307 16.84028802889976 #
point $-1 60.303353984191403 11.134070510705307 4.3780201245016954 #
edge $-1 $522 1 $522 0 $291 $-1 forward 7 unknown #
vertex $-1 $292 $523 #
ellipse-curve $-1 47.768275924792299 15.368340083403574 6.5072096161453059 0.52991927123019833 0 0.84804809178421925 1.2720721376763289 0 -0.79487890684529749 1 I I #
point $-1 51.603527486162619 15.368340083403574 9.8142751698553994 #
plane-surface $-1 60.303353984191411 0 0 -1 0 0 0 0 1 forward_v I I I I #
coedge $-1 $300 $298 $302 $443 reversed $181 $-1 #
edge $-1 $313 -16.84028802889976 $445 16.84028802889976 $312 $524 forward 7 unknown #
vertex $-1 $443 $525 #
straight-curve $-1 -60.303353984191411 -40.837592534373265 0 0 0 -1 I I #
edge $-1 $441 -40.837592534373265 $445 40.837592534373265 $439 $526 forward 7 unknown #
straight-curve $-1 0 -40.837592534373265 -16.84028802889976 -1 0 0 I I #
vertex $-1 $305 $527 #
straight-curve $-1 0 40.837592534373265 -16.84028802889976 1 0 0 I I #
point $-1 60.303353984191411 40.837592534373265 -16.84028802889976 #
point $-1 60.303353984191411 -40.837592534373265 -16.84028802889976 #
straight-curve $-1 -60.303353984191411 0 16.84028802889976 0 -1 0 I I #
point $-1 -60.303353984191411 40.837592534373265 16.84028802889976 #
point $-1 -60.303353984191411 -40.837592534373265 16.84028802889976 #
straight-curve $-1 60.303353984191411 -40.837592534373265 0 0 0 -1 I I #
straight-curve $-1 60.303353984191411 40.837592534373265 0 0 0 -1 I I #
plane-surface $-1 60.303353984191411 0 0 -1 0 0 0 0 1 forward_v I I I I #
coedge $-1 $458 $325 $336 $467 forward $200 $-1 #
coedge $-1 $325 $458 $339 $469 reversed $200 $-1 #
straight-curve $-1 60.303353984191411 -19.602609656101841 5.5892456175851546 0 0 1 I I #
coedge $-1 $456 $455 $328 $459 forward $200 $-1 #
edge $-1 $462 4.4925591084830643 $460 25.727541986754488 $458 $528 forward 7 unknown #
vertex $-1 $330 $529 #
straight-curve $-1 0 -40.837592534373265 7.2999365408834418 1 0 0 I I #
vertex $-1 $459 $530 #
straight-curve $-1 0 -19.602609656101841 7.2999365408834418 1 0 0 I I #
point $-1 60.303353984191411 -40.837592534373265 7.2999365408834418 #
point $-1 60.303353984191411 -19.602609656101841 7.2999365408834418 #
straight-curve $-1 -60.303353984191411 -15.110050547618776 15.057045929457177 0 1 0 I I #
edge $-1 $337 -9.467800311872022 $462 -1.7106909232982872 $455 $531 forward 7 unknown #
point $-1 -60.303353984191411 -19.602609656101841 15.057045929457177 #
edge $-1 $341 -15.057045929457177 $460 -7.2999365408834418 $456 $532 forward 7 unknown #
point $-1 -60.303353984191411 -40.837592534373265 15.057045929457177 #
straight-curve $-1 60.303353984191411 -40.837592534373265 0 0 0 -1 I I #
plane-surface $-1 0 40.837592534373265 0 0 -1 0 0 0 -1 forward_v I I I I #
coedge $-1 $350 $482 $352 $476 forward $347 $-1 #
vertex $-1 $476 $533 #
straight-curve $-1 -60.303353984191411 19.602609656101833 5.5892456175851546 0 0 1 I I #
edge $-1 $478 -25.727541986754485 $474 -4.4925591084830607 $473 $534 forward 7 unknown #
straight-curve $-1 0 19.602609656101833 7.2999365408834418 -1 0 0 I I #
vertex $-1 $355 $535 #
straight-curve $-1 0 40.837592534373265 7.2999365408834418 -1 0 0 I I #
point $-1 60.303353984191411 19.602609656101833 7.2999365408834418 #
point $-1 60.303353984191411 40.837592534373258 7.2999365408834418 #
coedge $-1 $473 $359 $362 $484 forward $347 $-1 #
straight-curve $-1 -60.303353984191411 15.110050547618773 15.057045929457177 0 1 0 I I #
edge $-1 $364 -15.057045929457177 $478 -7.2999365408834418 $362 $536 forward 7 unknown #
point $-1 -60.303353984191411 40.837592534373258 15.057045929457177 #
point $-1 -60.303353984191411 19.602609656101833 15.057045929457177 #
straight-curve $-1 60.303353984191411 19.602609656101833 5.5892456175851546 0 0 -1 I I #
straight-curve $-1 60.303353984191411 40.837592534373265 0 0 0 -1 I I #
coedge $-1 $384 $383 $376 $490 forward $373 $-1 #
edge $-1 $491 14.662448979571714 $494 28.486035160973252 $489 $537 forward 7 unknown #
vertex $-1 $490 $538 #
straight-curve $-1 -60.303353984191411 -9.5450500797503217 41.094639179248624 0 0 1 I I #
edge $-1 $494 -6.6028059580385872 $385 0.71831771461511806 $384 $539 forward 7 unknown #
vertex $-1 $493 $540 #
straight-curve $-1 -60.303353984191403 -9.5450500797503217 1.4876398339116861 -0.66913059716165679 0 -0.74314483375859142 I I #
point $-1 -60.303353984191411 -9.5450500797503217 1.4876398339116781 #
point $-1 -46.479767802789873 -2.2239264070966165 16.840288028899757 #
straight-curve $-1 -60.303353984191411 0 16.84028802889976 0 -1 0 I I #
vertex $-1 $391 $541 #
point $-1 -48.854156541816621 -5.8844882434234762 7.0969158761425861 #
edge $-1 $502 14.662448979571714 $505 28.486035160973252 $396 $542 forward 7 unknown #
vertex $-1 $501 $543 #
straight-curve $-1 -60.303353984191411 10.057559576351519 41.094639179248624 0 0 1 I I #
edge $-1 $505 3.1984988700123331 $407 10.519622542666038 $406 $544 forward 7 unknown #
vertex $-1 $504 $545 #
straight-curve $-1 -60.303353984191403 10.057559576351519 1.4876398339116861 -0.66913059716165679 0 -0.74314483375859142 I I #
point $-1 -60.303353984191411 10.057559576351519 1.4876398339116781 #
point $-1 -46.479767802789873 17.378683249005224 16.840288028899757 #
straight-curve $-1 -60.303353984191411 0 16.84028802889976 0 -1 0 I I #
vertex $-1 $413 $546 #
point $-1 -48.854156541816621 13.718121412678364 7.0969158761425861 #
coedge $-1 $418 $421 $425 $518 reversed $276 $-1 #
edge $-1 $515 -11.918439614400054 $428 -3.44990046900352 $419 $547 forward 7 unknown #
vertex $-1 $518 $548 #
vertex $-1 $422 $549 #
straight-curve $-1 10.967442113653274 19.602609656101841 16.840288028899764 -1 0 0 I I #
straight-curve $-1 -41.976934564772222 19.602609656101841 68.289838916580464 0.84804809178421925 0 -0.52991927123019833 I I #
edge $-1 $426 -80.907043608270357 $514 -68.444775703872281 $425 $550 forward 7 unknown #
point $-1 60.303353984191403 19.602609656101841 4.3780201245016954 #
point $-1 40.359556712781227 11.134070510705307 16.840288028899764 #
straight-curve $-1 60.303353984191411 0 16.84028802889976 0 1 0 I I #
vertex $-1 $434 $551 #
point $-1 49.040348062468631 15.368340083403574 5.7123307093000086 #
straight-curve $-1 -60.303353984191411 40.837592534373265 0 0 0 -1 I I #
point $-1 -60.303353984191411 -40.837592534373265 -16.84028802889976 #
straight-curve $-1 -60.303353984191411 0 -16.84028802889976 0 1 0 I I #
point $-1 -60.303353984191411 40.837592534373265 -16.84028802889976 #
straight-curve $-1 -60.303353984191411 -15.110050547618776 7.2999365408834418 0 -1 0 I I #
point $-1 -60.303353984191411 -40.837592534373265 7.2999365408834418 #
point $-1 -60.303353984191411 -19.602609656101841 7.2999365408834418 #
straight-curve $-1 -60.303353984191411 -19.602609656101841 5.5892456175851546 0 0 -1 I I #
straight-curve $-1 -60.303353984191411 -40.837592534373265 0 0 0 -1 I I #
point $-1 -60.303353984191411 19.602609656101833 7.2999365408834418 #
straight-curve $-1 -60.303353984191411 15.110050547618773 7.2999365408834418 0 -1 0 I I #
point $-1 -60.303353984191411 40.837592534373258 7.2999365408834418 #
straight-curve $-1 -60.303353984191411 40.837592534373265 0 0 0 -1 I I #
straight-curve $-1 -74.965802963763124 -9.5450500797503217 16.840288028899764 1 0 0 I I #
point $-1 -60.303353984191411 -9.5450500797503217 16.84028802889976 #
straight-curve $-1 -46.479767802789873 -2.9422441217117346 16.84028802889976 0 1 0 I I #
point $-1 -46.479767802789873 -9.5450500797503217 16.840288028899757 #
point $-1 -48.743135186921222 -5.8844882434234762 4.978502729762214 #
straight-curve $-1 -74.965802963763124 10.057559576351519 16.840288028899764 1 0 0 I I #
point $-1 -60.303353984191411 10.057559576351519 16.84028802889976 #
straight-curve $-1 -46.479767802789873 6.8590607063391857 16.84028802889976 0 1 0 I I #
point $-1 -46.479767802789873 10.057559576351519 16.840288028899757 #
point $-1 -48.743135186921222 13.718121412678364 4.978502729762214 #
straight-curve $-1 40.359556712781227 7.6841700417017869 16.840288028899757 0 -1 0 I I #
point $-1 60.303353984191411 19.602609656101841 16.84028802889976 #
point $-1 40.359556712781227 19.602609656101841 16.840288028899764 #
straight-curve $-1 60.303353984191411 19.602609656101841 85.285063732772045 0 0 1 I I #
point $-1 46.973397017947001 15.368340083403574 5.2351374784689755 #
End-of-ACIS-data 