500 0 9 0           
7 Unknown 11 ACIS 5.0 NT 24 Fri Mar 26 02:58:46 1999 
-1 9.9999999999999995e-007 1e-010 
body $-1 $9 $-1 $10 #
body $-1 $11 $-1 $12 #
body $-1 $13 $-1 $14 #
body $-1 $15 $-1 $16 #
body $-1 $17 $-1 $18 #
body $-1 $19 $-1 $20 #
body $-1 $21 $-1 $22 #
body $-1 $23 $-1 $24 #
body $-1 $25 $-1 $26 #
lump $-1 $-1 $27 $0 #
transform $-1 1 0 0 0 1 0 0 0 1 61.784112063966795 38.031159553715355 15.762381830353306 1 rotate no_reflect no_shear #
lump $-1 $-1 $28 $1 #
transform $-1 1 0 0 0 1 0 0 0 1 61.784112063966795 38.031159553715355 15.762381830353306 1 rotate no_reflect no_shear #
lump $-1 $-1 $29 $2 #
transform $-1 1 0 0 0 1 0 0 0 1 61.784112063966795 38.031159553715355 15.762381830353306 1 rotate no_reflect no_shear #
lump $-1 $-1 $30 $3 #
transform $-1 1 0 0 0 1 0 0 0 1 61.784112063966795 38.031159553715355 15.762381830353306 1 rotate no_reflect no_shear #
lump $-1 $-1 $31 $4 #
transform $-1 1 0 0 0 1 0 0 0 1 61.784112063966795 38.031159553715355 15.762381830353306 1 rotate no_reflect no_shear #
lump $-1 $-1 $32 $5 #
transform $-1 1 0 0 0 1 0 0 0 1 61.784112063966795 38.031159553715355 15.762381830353306 1 rotate no_reflect no_shear #
lump $-1 $-1 $33 $6 #
transform $-1 1 0 0 0 1 0 0 0 1 61.784112063966795 38.031159553715355 15.762381830353306 1 rotate no_reflect no_shear #
lump $-1 $-1 $34 $7 #
transform $-1 1 0 0 0 1 0 0 0 1 61.784112063966795 38.031159553715355 15.762381830353306 1 rotate no_reflect no_shear #
lump $-1 $-1 $35 $8 #
transform $-1 1 0 0 0 1 0 0 0 1 61.784112063966795 38.031159553715355 15.762381830353306 1 rotate no_reflect no_shear #
shell $-1 $-1 $-1 $36 $-1 $9 #
shell $-1 $-1 $-1 $37 $-1 $11 #
shell $-1 $-1 $-1 $38 $-1 $13 #
shell $-1 $-1 $-1 $39 $-1 $15 #
shell $-1 $-1 $-1 $40 $-1 $17 #
shell $-1 $-1 $-1 $41 $-1 $19 #
shell $-1 $-1 $-1 $42 $-1 $21 #
shell $-1 $-1 $-1 $43 $-1 $23 #
shell $-1 $-1 $-1 $44 $-1 $25 #
face $-1 $45 $46 $27 $-1 $47 forward single #
face $-1 $48 $49 $28 $-1 $50 reversed single #
face $-1 $51 $52 $29 $-1 $53 reversed single #
face $-1 $54 $55 $30 $-1 $56 forward single #
face $-1 $57 $58 $31 $-1 $59 reversed single #
face $-1 $60 $61 $32 $-1 $62 forward single #
face $-1 $63 $64 $33 $-1 $65 reversed single #
face $-1 $66 $67 $34 $-1 $68 forward single #
face $-1 $69 $70 $35 $-1 $71 forward single #
face $-1 $72 $73 $27 $-1 $74 reversed single #
loop $-1 $-1 $75 $36 #
plane-surface $-1 0 0 15.762381830353306 0 0 1 1 0 0 forward_v I I I I #
face $-1 $76 $77 $28 $-1 $78 reversed single #
loop $-1 $-1 $79 $37 #
plane-surface $-1 0 -29.702938888756023 9.9807091957204008 0 0 1 1 0 0 forward_v I I I I #
face $-1 $80 $81 $29 $-1 $82 reversed single #
loop $-1 $-1 $83 $38 #
plane-surface $-1 -127.26529534105117 -17.12852602126955 116.77792718765603 0 1 0 -0.52991927123019833 0 0.84804809178421925 forward_v I I I I #
face $-1 $84 $85 $30 $-1 $86 forward single #
loop $-1 $87 $88 $39 #
cone-surface $-1 -58.12563669213494 -11.564282309585288 12.855094764821766 0.52991927123019833 0 -0.84804809178421925 0.84804809178421925 0 0.52991927123019833 1 I I 0 1 1 forward I I I I #
face $-1 $89 $90 $31 $-1 $91 reversed single #
loop $-1 $-1 $92 $40 #
plane-surface $-1 -127.26529534105117 22.656479927819682 116.77792718765603 0 1 0 -0.52991927123019833 0 0.84804809178421925 forward_v I I I I #
face $-1 $93 $94 $32 $-1 $95 forward single #
loop $-1 $96 $97 $41 #
cone-surface $-1 -58.12563669213494 28.220723639503944 12.855094764821766 0.52991927123019833 0 -0.84804809178421925 0.84804809178421925 0 0.52991927123019833 1 I I 0 1 1 forward I I I I #
face $-1 $98 $99 $33 $-1 $100 reversed single #
loop $-1 $-1 $101 $42 #
plane-surface $-1 40.487219516450544 27.158065915527871 174.57451814334934 0 -1 0 -0.61566148304635926 0 -0.78801074757464917 forward_v I I I I #
face $-1 $102 $103 $34 $-1 $104 forward single #
loop $-1 $105 $106 $43 #
cone-surface $-1 50.879151389637762 16.701165319949908 6.4757527310523848 -0.61566148304635926 0 -0.78801074757464917 1.1820161213619738 0 -0.92349222456953894 1 I I 0 1 1.5 forward I I I I #
face $-1 $107 $108 $35 $-1 $109 forward single #
loop $-1 $110 $111 $44 #
cone-surface $-1 50.879151389637762 22.975305677296681 6.4757527310523848 -0.61566148304635926 0 -0.78801074757464917 1.1820161213619738 0 -0.92349222456953894 1 I I 0 1 1.5 forward I I I I #
face $-1 $112 $113 $27 $-1 $114 reversed single #
loop $-1 $-1 $115 $45 #
plane-surface $-1 0 0 -15.762381830353306 0 0 1 1 0 0 forward_v I I I I #
coedge $-1 $116 $117 $118 $119 forward $46 $-1 #
face $-1 $120 $121 $28 $-1 $122 reversed single #
loop $-1 $-1 $123 $48 #
plane-surface $-1 0 -21.374718223796691 12.871545513036853 0 -1 0 0 0 -1 forward_v I I I I #
coedge $-1 $124 $125 $126 $127 reversed $49 $-1 #
face $-1 $128 $129 $29 $-1 $130 reversed single #
loop $-1 $-1 $131 $51 #
plane-surface $-1 -61.784112063966788 -11.564282309585288 11.986130510797238 -0.52991927123019833 0 0.84804809178421925 0.84804809178421925 0 0.52991927123019833 forward_v I I I I #
coedge $-1 $132 $133 $134 $135 reversed $52 $-1 #
face $-1 $-1 $136 $30 $-1 $137 forward single #
loop $-1 $138 $139 $54 #
cone-surface $-1 -57.223834317723544 -11.564282309585288 11.41190931317616 0.52991927123019833 0 -0.84804809178421925 0.42402404589210962 0 0.26495963561509916 1 I I -0.70710678118654746 0.70710678118654746 0.5 forward I I I I #
loop $-1 $-1 $140 $39 #
coedge $-1 $88 $88 $141 $142 reversed $55 $-1 #
face $-1 $143 $144 $31 $-1 $145 reversed single #
loop $-1 $-1 $146 $57 #
plane-surface $-1 -61.784112063966788 28.220723639503944 11.986130510797238 -0.52991927123019833 0 0.84804809178421925 0.84804809178421925 0 0.52991927123019833 forward_v I I I I #
coedge $-1 $147 $148 $149 $150 reversed $58 $-1 #
face $-1 $-1 $151 $32 $-1 $152 forward single #
loop $-1 $153 $154 $60 #
cone-surface $-1 -57.223834317723544 28.220723639503944 11.41190931317616 0.52991927123019833 0 -0.84804809178421925 0.42402404589210962 0 0.26495963561509916 1 I I -0.70710678118654746 0.70710678118654746 0.5 forward I I I I #
loop $-1 $-1 $155 $41 #
coedge $-1 $97 $97 $156 $157 reversed $61 $-1 #
face $-1 $158 $159 $33 $-1 $160 reversed single #
loop $-1 $-1 $161 $63 #
plane-surface $-1 -35.58897660755796 19.838235498623298 77.201429471824596 0.61566148304635926 0 0.78801074757464917 0.78801074757464917 0 -0.61566148304635926 forward_v I I I I #
coedge $-1 $162 $163 $164 $165 reversed $64 $-1 #
face $-1 $-1 $166 $34 $-1 $167 forward single #
loop $-1 $168 $169 $66 #
cone-surface $-1 48.879792273543053 16.701165319949908 3.9166898123390723 -0.61566148304635926 0 -0.78801074757464917 0.59100806068098688 0 -0.46174611228476947 1 I I -0.70710678118654757 0.70710678118654757 0.75 forward I I I I #
loop $-1 $-1 $170 $43 #
coedge $-1 $106 $106 $171 $172 reversed $67 $-1 #
face $-1 $-1 $173 $35 $-1 $174 forward single #
loop $-1 $175 $176 $69 #
cone-surface $-1 48.879792273543053 22.975305677296681 3.9166898123390723 -0.61566148304635926 0 -0.78801074757464917 0.59100806068098688 0 -0.46174611228476947 1 I I -0.70710678118654757 0.70710678118654757 0.75 forward I I I I #
loop $-1 $-1 $177 $44 #
coedge $-1 $111 $111 $178 $179 reversed $70 $-1 #
face $-1 $180 $181 $27 $-1 $182 reversed single #
loop $-1 $-1 $183 $72 #
plane-surface $-1 0 -38.031159553715355 0 0 1 0 0 0 1 forward_v I I I I #
coedge $-1 $184 $185 $186 $187 forward $73 $-1 #
coedge $-1 $188 $75 $189 $190 forward $46 $-1 #
coedge $-1 $75 $188 $191 $192 forward $46 $-1 #
coedge $-1 $193 $194 $75 $119 reversed $195 $-1 #
edge $-1 $196 -38.031159553715355 $197 38.031159553715355 $118 $198 forward 7 unknown #
face $-1 $199 $200 $28 $-1 $201 reversed single #
loop $-1 $-1 $202 $76 #
plane-surface $-1 -61.784112063966795 0 0 1 0 0 0 0 -1 forward_v I I I I #
coedge $-1 $203 $204 $205 $206 reversed $77 $-1 #
coedge $-1 $207 $79 $208 $209 reversed $49 $-1 #
coedge $-1 $79 $207 $203 $210 forward $49 $-1 #
coedge $-1 $205 $211 $79 $127 forward $212 $-1 #
edge $-1 $213 -23.179690109337344 $214 -6.5232487794186795 $126 $215 forward 7 unknown #
face $-1 $216 $217 $29 $-1 $218 forward single #
loop $-1 $-1 $219 $80 #
plane-surface $-1 -127.26529534105117 -6.0000385979010247 116.77792718765603 0 -1 0 0.52991927123019833 0 -0.84804809178421925 forward_v I I I I #
coedge $-1 $220 $221 $222 $223 reversed $81 $-1 #
coedge $-1 $133 $83 $224 $225 reversed $52 $-1 #
coedge $-1 $83 $132 $220 $226 reversed $52 $-1 #
coedge $-1 $222 $227 $83 $135 forward $217 $-1 #
edge $-1 $228 1.8485356065587908 $229 7.8918008726298865 $134 $230 forward 7 unknown #
loop $-1 $-1 $141 $84 #
plane-surface $-1 -61.784112063966788 -11.564282309585288 11.986130510797238 -0.52991927123019833 0 0.84804809178421925 0.84804809178421925 0 0.52991927123019833 forward_v I I I I #
loop $-1 $-1 $231 $54 #
coedge $-1 $139 $139 $140 $232 reversed $85 $-1 #
coedge $-1 $140 $140 $139 $232 forward $87 $-1 #
coedge $-1 $141 $141 $88 $142 forward $136 $-1 #
edge $-1 $233 0 $233 6.2831853071796004 $141 $234 forward 7 unknown #
face $-1 $235 $236 $31 $-1 $237 forward single #
loop $-1 $-1 $238 $89 #
plane-surface $-1 -127.26529534105117 33.784967351188207 116.77792718765603 0 -1 0 0.52991927123019833 0 -0.84804809178421925 forward_v I I I I #
coedge $-1 $239 $240 $241 $242 reversed $90 $-1 #
coedge $-1 $148 $92 $243 $244 reversed $58 $-1 #
coedge $-1 $92 $147 $239 $245 reversed $58 $-1 #
coedge $-1 $241 $246 $92 $150 forward $236 $-1 #
edge $-1 $247 1.8485356065587908 $248 7.8918008726298865 $149 $249 forward 7 unknown #
loop $-1 $-1 $156 $93 #
plane-surface $-1 -61.784112063966788 28.220723639503944 11.986130510797238 -0.52991927123019833 0 0.84804809178421925 0.84804809178421925 0 0.52991927123019833 forward_v I I I I #
loop $-1 $-1 $250 $60 #
coedge $-1 $154 $154 $155 $251 reversed $94 $-1 #
coedge $-1 $155 $155 $154 $251 forward $96 $-1 #
coedge $-1 $156 $156 $97 $157 forward $151 $-1 #
edge $-1 $252 0 $252 6.2831853071796004 $156 $253 forward 7 unknown #
face $-1 $254 $255 $33 $-1 $256 reversed single #
loop $-1 $-1 $257 $98 #
plane-surface $-1 40.487219516450544 12.518405081718726 174.57451814334934 0 1 0 0.61566148304635926 0 0.78801074757464917 forward_v I I I I #
coedge $-1 $258 $259 $260 $261 reversed $99 $-1 #
coedge $-1 $163 $101 $262 $263 reversed $64 $-1 #
coedge $-1 $101 $162 $258 $264 reversed $64 $-1 #
coedge $-1 $260 $265 $101 $165 forward $266 $-1 #
edge $-1 $267 -41.540502305741526 $268 -22.805806964703319 $164 $269 forward 7 unknown #
loop $-1 $-1 $171 $102 #
plane-surface $-1 -35.58897660755796 19.838235498623298 77.201429471824596 0.61566148304635926 0 0.78801074757464917 0.78801074757464917 0 -0.61566148304635926 forward_v I I I I #
loop $-1 $-1 $270 $66 #
coedge $-1 $169 $169 $170 $271 reversed $103 $-1 #
coedge $-1 $170 $170 $169 $271 forward $105 $-1 #
coedge $-1 $171 $171 $106 $172 forward $166 $-1 #
edge $-1 $272 0 $272 6.2831853071796004 $171 $273 forward 7 unknown #
loop $-1 $-1 $178 $107 #
plane-surface $-1 -35.58897660755796 19.838235498623298 77.201429471824596 0.61566148304635926 0 0.78801074757464917 0.78801074757464917 0 -0.61566148304635926 forward_v I I I I #
loop $-1 $-1 $274 $69 #
coedge $-1 $176 $176 $177 $275 reversed $108 $-1 #
coedge $-1 $177 $177 $176 $275 forward $110 $-1 #
coedge $-1 $178 $178 $111 $179 forward $173 $-1 #
edge $-1 $276 0 $276 6.2831853071796004 $178 $277 forward 7 unknown #
face $-1 $278 $279 $27 $-1 $280 reversed single #
loop $-1 $-1 $281 $112 #
plane-surface $-1 -61.784112063966795 0 0 1 0 0 0 0 -1 forward_v I I I I #
coedge $-1 $282 $191 $283 $284 forward $113 $-1 #
coedge $-1 $285 $115 $282 $286 forward $73 $-1 #
coedge $-1 $115 $285 $287 $288 forward $73 $-1 #
coedge $-1 $194 $193 $115 $187 reversed $195 $-1 #
edge $-1 $289 -38.031159553715355 $290 38.031159553715355 $186 $291 forward 7 unknown #
coedge $-1 $117 $116 $292 $293 forward $46 $-1 #
coedge $-1 $294 $295 $116 $190 reversed $279 $-1 #
edge $-1 $197 -61.784112063966795 $296 61.784112063966795 $189 $297 forward 7 unknown #
coedge $-1 $183 $298 $117 $192 reversed $113 $-1 #
edge $-1 $299 -61.784112063966795 $196 61.784112063966795 $191 $300 forward 7 unknown #
coedge $-1 $186 $118 $298 $301 forward $195 $-1 #
coedge $-1 $118 $186 $294 $302 reversed $195 $-1 #
loop $-1 $-1 $193 $278 #
vertex $-1 $119 $303 #
vertex $-1 $119 $304 #
straight-curve $-1 61.784112063966795 0 15.762381830353306 0 1 0 I I #
face $-1 $305 $306 $28 $-1 $307 forward single #
loop $-1 $-1 $208 $120 #
plane-surface $-1 0 -38.031159553715355 0 0 1 0 0 0 1 forward_v I I I I #
coedge $-1 $308 $309 $310 $311 forward $121 $-1 #
coedge $-1 $310 $123 $125 $210 reversed $77 $-1 #
coedge $-1 $123 $310 $312 $313 reversed $77 $-1 #
coedge $-1 $314 $126 $123 $206 forward $212 $-1 #
edge $-1 $214 3.5449364392019742 $315 9.326609073834879 $205 $316 forward 7 unknown #
coedge $-1 $125 $124 $308 $317 reversed $49 $-1 #
coedge $-1 $318 $319 $124 $209 forward $200 $-1 #
edge $-1 $320 -61.784112063966795 $213 61.784112063966795 $208 $321 forward 7 unknown #
edge $-1 $322 -61.784112063966795 $214 61.784112063966795 $203 $323 forward 7 unknown #
coedge $-1 $126 $314 $318 $324 forward $212 $-1 #
loop $-1 $-1 $205 $305 #
vertex $-1 $209 $325 #
vertex $-1 $127 $326 #
straight-curve $-1 61.784112063966795 -14.851469444378012 9.9807091957204008 0 1 0 I I #
face $-1 $-1 $327 $29 $-1 $328 reversed single #
loop $-1 $-1 $134 $128 #
plane-surface $-1 0 0 15.762381830353306 0 0 1 1 0 0 forward_v I I I I #
coedge $-1 $329 $330 $331 $332 reversed $129 $-1 #
coedge $-1 $333 $131 $133 $226 forward $81 $-1 #
coedge $-1 $131 $333 $329 $334 forward $81 $-1 #
coedge $-1 $331 $134 $131 $223 forward $217 $-1 #
edge $-1 $229 -11.346384866476907 $335 -0.21789744310838088 $222 $336 forward 7 unknown #
coedge $-1 $337 $338 $132 $225 forward $327 $-1 #
edge $-1 $339 -46.402833083030785 $228 -42.626581763474711 $224 $340 forward 7 unknown #
edge $-1 $229 -7.1260879242786643 $339 7.9083955554844352e-015 $133 $341 forward 7 unknown #
coedge $-1 $134 $331 $337 $342 forward $217 $-1 #
vertex $-1 $225 $343 #
vertex $-1 $135 $344 #
straight-curve $-1 -63.632647670525586 -17.12852602126955 15.762381830353306 1 0 0 I I #
coedge $-1 $231 $231 $-1 $345 reversed $138 $-1 #
edge $-1 $346 0 $346 6.2831853071796004 $139 $347 forward 7 unknown #
vertex $-1 $142 $348 #
ellipse-curve $-1 -58.762479430931243 -11.564282309585288 13.874256170575272 -0.52991927123019833 0 0.84804809178421925 0.84804809178421925 0 0.52991927123019833 1 I I #
face $-1 $-1 $349 $31 $-1 $350 reversed single #
loop $-1 $-1 $149 $143 #
plane-surface $-1 0 0 15.762381830353306 0 0 1 1 0 0 forward_v I I I I #
coedge $-1 $351 $352 $353 $354 reversed $144 $-1 #
coedge $-1 $355 $146 $148 $245 forward $90 $-1 #
coedge $-1 $146 $355 $351 $356 forward $90 $-1 #
coedge $-1 $353 $149 $146 $242 forward $236 $-1 #
edge $-1 $248 8.5461181080677093 $357 19.674605531436235 $241 $358 forward 7 unknown #
coedge $-1 $359 $360 $147 $244 forward $349 $-1 #
edge $-1 $361 -46.402833083030785 $247 -42.626581763474711 $243 $362 forward 7 unknown #
edge $-1 $248 -7.1260879242786643 $361 7.9083955554844352e-015 $148 $363 forward 7 unknown #
coedge $-1 $149 $353 $359 $364 forward $236 $-1 #
vertex $-1 $150 $365 #
vertex $-1 $150 $366 #
straight-curve $-1 -63.632647670525586 22.656479927819682 15.762381830353306 1 0 0 I I #
coedge $-1 $250 $250 $-1 $367 reversed $153 $-1 #
edge $-1 $368 0 $368 6.2831853071796004 $154 $369 forward 7 unknown #
vertex $-1 $157 $370 #
ellipse-curve $-1 -58.762479430931243 28.220723639503944 13.874256170575272 -0.52991927123019833 0 0.84804809178421925 0.84804809178421925 0 0.52991927123019833 1 I I #
face $-1 $-1 $266 $33 $-1 $371 forward single #
loop $-1 $-1 $372 $158 #
plane-surface $-1 61.784112063966795 0 0 -1 0 0 0 0 1 forward_v I I I I #
coedge $-1 $373 $374 $375 $376 reversed $159 $-1 #
coedge $-1 $377 $161 $163 $264 forward $99 $-1 #
coedge $-1 $161 $377 $373 $378 forward $99 $-1 #
coedge $-1 $375 $164 $161 $261 forward $266 $-1 #
edge $-1 $268 -17.238948166216222 $379 -2.5992873324070764 $260 $380 forward 7 unknown #
coedge $-1 $381 $382 $162 $263 forward $255 $-1 #
edge $-1 $383 -86.162025723858576 $267 -71.524877241321363 $262 $384 forward 7 unknown #
edge $-1 $268 99.793554304330144 $383 123.56822412793359 $163 $385 forward 7 unknown #
coedge $-1 $164 $375 $381 $386 forward $266 $-1 #
loop $-1 $-1 $375 $254 #
vertex $-1 $263 $387 #
vertex $-1 $165 $388 #
straight-curve $-1 20.243609758225272 27.158065915527871 15.762381830353306 -1 0 0 I I #
coedge $-1 $270 $270 $-1 $389 reversed $168 $-1 #
edge $-1 $390 0 $390 6.2831853071796004 $169 $391 forward 7 unknown #
vertex $-1 $172 $392 #
ellipse-curve $-1 52.416764393447693 16.701165319949908 8.4438075890846989 0.61566148304635926 0 0.78801074757464917 1.1820161213619738 0 -0.92349222456953894 1 I I #
coedge $-1 $274 $274 $-1 $393 reversed $175 $-1 #
edge $-1 $394 0 $394 6.2831853071796004 $176 $395 forward 7 unknown #
vertex $-1 $179 $396 #
ellipse-curve $-1 52.416764393447693 22.975305677296681 8.4438075890846989 0.61566148304635926 0 0.78801074757464917 1.1820161213619738 0 -0.92349222456953894 1 I I #
face $-1 $-1 $195 $27 $-1 $397 reversed single #
loop $-1 $-1 $294 $180 #
plane-surface $-1 0 38.031159553715355 0 0 -1 0 0 0 -1 forward_v I I I I #
coedge $-1 $398 $292 $295 $399 forward $181 $-1 #
coedge $-1 $298 $183 $184 $286 reversed $113 $-1 #
coedge $-1 $292 $398 $183 $284 reversed $181 $-1 #
edge $-1 $299 -15.762381830353306 $400 15.762381830353306 $283 $401 forward 7 unknown #
coedge $-1 $185 $184 $398 $402 forward $73 $-1 #
edge $-1 $290 -61.784112063966795 $400 61.784112063966795 $282 $403 forward 7 unknown #
coedge $-1 $295 $294 $185 $288 reversed $279 $-1 #
edge $-1 $404 -61.784112063966795 $289 61.784112063966795 $287 $405 forward 7 unknown #
vertex $-1 $187 $406 #
vertex $-1 $301 $407 #
straight-curve $-1 61.784112063966795 0 -15.762381830353306 0 -1 0 I I #
coedge $-1 $281 $283 $188 $293 reversed $181 $-1 #
edge $-1 $296 -38.031159553715355 $299 38.031159553715355 $292 $408 forward 7 unknown #
coedge $-1 $287 $189 $194 $302 forward $279 $-1 #
coedge $-1 $189 $287 $281 $399 reversed $279 $-1 #
vertex $-1 $190 $409 #
straight-curve $-1 0 38.031159553715355 15.762381830353306 -1 0 0 I I #
coedge $-1 $191 $282 $193 $301 reversed $113 $-1 #
vertex $-1 $293 $410 #
straight-curve $-1 0 -38.031159553715355 15.762381830353306 1 0 0 I I #
edge $-1 $196 -15.762381830353306 $290 15.762381830353306 $193 $411 forward 7 unknown #
edge $-1 $197 -15.762381830353306 $289 15.762381830353306 $194 $412 forward 7 unknown #
point $-1 61.784112063966795 -38.031159553715355 15.762381830353306 #
point $-1 61.784112063966795 38.031159553715355 15.762381830353306 #
face $-1 $-1 $212 $28 $-1 $413 reversed single #
loop $-1 $-1 $312 $199 #
plane-surface $-1 0 0 15.762381830353306 0 0 1 1 0 0 forward_v I I I I #
coedge $-1 $414 $202 $207 $317 forward $121 $-1 #
coedge $-1 $202 $414 $415 $416 reversed $121 $-1 #
coedge $-1 $204 $203 $202 $311 reversed $77 $-1 #
edge $-1 $417 -9.326609073834879 $322 -3.5449364392019742 $202 $418 forward 7 unknown #
coedge $-1 $415 $419 $204 $313 forward $306 $-1 #
edge $-1 $315 -61.784112063966795 $417 61.784112063966795 $312 $420 forward 7 unknown #
coedge $-1 $211 $205 $419 $421 reversed $212 $-1 #
vertex $-1 $206 $422 #
straight-curve $-1 61.784112063966795 -21.374718223796691 6.4357727565184266 0 0 1 I I #
edge $-1 $322 6.5232487794186795 $320 23.179690109337344 $308 $423 forward 7 unknown #
coedge $-1 $424 $208 $211 $324 reversed $200 $-1 #
coedge $-1 $208 $424 $414 $425 forward $200 $-1 #
vertex $-1 $209 $426 #
straight-curve $-1 0 -38.031159553715355 9.9807091957204008 1 0 0 I I #
vertex $-1 $317 $427 #
straight-curve $-1 0 -21.374718223796691 9.9807091957204008 1 0 0 I I #
edge $-1 $428 -15.762381830353306 $213 -9.9807091957204008 $211 $429 forward 7 unknown #
point $-1 61.784112063966795 -38.031159553715355 9.9807091957204008 #
point $-1 61.784112063966795 -21.374718223796691 9.9807091957204008 #
loop $-1 $-1 $224 $216 #
plane-surface $-1 -61.784112063966795 0 0 1 0 0 0 0 -1 forward_v I I I I #
coedge $-1 $330 $219 $221 $334 reversed $129 $-1 #
coedge $-1 $219 $329 $430 $431 reversed $129 $-1 #
coedge $-1 $227 $222 $219 $332 forward $217 $-1 #
edge $-1 $335 -7.8918008726298865 $432 -1.8485356065587908 $331 $433 forward 7 unknown #
coedge $-1 $221 $220 $338 $434 reversed $81 $-1 #
edge $-1 $435 -7.9083955554844352e-015 $335 7.1260879242786643 $329 $436 forward 7 unknown #
vertex $-1 $223 $437 #
straight-curve $-1 -55.740846797895692 -5.7821411547926438 15.762381830353306 0 1 0 I I #
coedge $-1 $430 $224 $227 $342 reversed $327 $-1 #
coedge $-1 $224 $430 $333 $434 forward $327 $-1 #
vertex $-1 $225 $438 #
straight-curve $-1 -61.784112063966795 -17.12852602126955 58.388963593828016 0 0 1 I I #
straight-curve $-1 -61.784112063966788 -17.12852602126955 11.986130510797238 -0.84804809178421925 0 -0.52991927123019833 I I #
edge $-1 $432 6.0000385979010247 $228 17.12852602126955 $337 $439 forward 7 unknown #
point $-1 -61.784112063966795 -17.12852602126955 15.762381830353306 #
point $-1 -55.740846797895699 -17.12852602126955 15.762381830353306 #
edge $-1 $440 1 $440 0 $231 $-1 forward 7 unknown #
vertex $-1 $232 $441 #
ellipse-curve $-1 -57.488793953338643 -11.564282309585288 11.835933359068269 -0.52991927123019833 0 0.84804809178421925 0.84804809178421925 0 0.52991927123019833 1 I I #
point $-1 -57.914431339147022 -11.564282309585288 14.404175441805462 #
loop $-1 $-1 $243 $235 #
plane-surface $-1 -61.784112063966795 0 0 1 0 0 0 0 -1 forward_v I I I I #
coedge $-1 $352 $238 $240 $356 reversed $144 $-1 #
coedge $-1 $238 $351 $442 $443 reversed $144 $-1 #
coedge $-1 $246 $241 $238 $354 forward $236 $-1 #
edge $-1 $357 -7.8918008726298865 $444 -1.8485356065587908 $353 $445 forward 7 unknown #
coedge $-1 $240 $239 $360 $446 reversed $90 $-1 #
edge $-1 $447 -7.9083955554844352e-015 $357 7.1260879242786643 $351 $448 forward 7 unknown #
vertex $-1 $242 $449 #
straight-curve $-1 -55.740846797895692 14.110361819751972 15.762381830353306 0 1 0 I I #
coedge $-1 $442 $243 $246 $364 reversed $349 $-1 #
coedge $-1 $243 $442 $355 $446 forward $349 $-1 #
vertex $-1 $244 $450 #
straight-curve $-1 -61.784112063966795 22.656479927819682 58.388963593828016 0 0 1 I I #
straight-curve $-1 -61.784112063966788 22.656479927819682 11.986130510797238 -0.84804809178421925 0 -0.52991927123019833 I I #
edge $-1 $444 -33.784967351188207 $247 -22.656479927819682 $359 $451 forward 7 unknown #
point $-1 -61.784112063966795 22.656479927819682 15.762381830353306 #
point $-1 -55.740846797895699 22.656479927819682 15.762381830353306 #
edge $-1 $452 1 $452 0 $250 $-1 forward 7 unknown #
vertex $-1 $251 $453 #
ellipse-curve $-1 -57.488793953338643 28.220723639503944 11.835933359068269 -0.52991927123019833 0 0.84804809178421925 0.84804809178421925 0 0.52991927123019833 1 I I #
point $-1 -57.914431339147022 28.220723639503944 14.404175441805462 #
plane-surface $-1 0 0 15.762381830353306 0 0 1 1 0 0 forward_v I I I I #
coedge $-1 $382 $381 $374 $454 forward $255 $-1 #
coedge $-1 $374 $257 $259 $378 reversed $159 $-1 #
coedge $-1 $257 $373 $372 $454 reversed $159 $-1 #
coedge $-1 $265 $260 $257 $376 forward $266 $-1 #
edge $-1 $379 22.805806964703319 $455 41.540502305741526 $375 $456 forward 7 unknown #
coedge $-1 $259 $258 $382 $457 reversed $99 $-1 #
edge $-1 $458 -123.56822412793359 $379 -99.793554304330144 $373 $459 forward 7 unknown #
vertex $-1 $261 $460 #
straight-curve $-1 43.049416722928591 9.9191177493116491 15.762381830353306 0 -1 0 I I #
coedge $-1 $372 $262 $265 $386 reversed $255 $-1 #
coedge $-1 $262 $372 $377 $457 forward $255 $-1 #
vertex $-1 $263 $461 #
straight-curve $-1 61.784112063966795 27.158065915527871 87.287259071674669 0 0 1 I I #
straight-curve $-1 -35.58897660755796 27.158065915527871 77.201429471824596 0.78801074757464917 0 -0.61566148304635926 I I #
edge $-1 $455 12.518405081718726 $267 27.158065915527871 $381 $462 forward 7 unknown #
point $-1 61.784112063966795 27.158065915527871 15.762381830353306 #
point $-1 43.049416722928591 27.158065915527871 15.762381830353306 #
edge $-1 $463 1 $463 0 $270 $-1 forward 7 unknown #
vertex $-1 $271 $464 #
ellipse-curve $-1 49.341538385827825 16.701165319949908 4.5076978730200592 0.61566148304635926 0 0.78801074757464917 1.1820161213619738 0 -0.92349222456953894 1 I I #
point $-1 53.598780514809675 16.701165319949908 7.5203153645151701 #
edge $-1 $465 1 $465 0 $274 $-1 forward 7 unknown #
vertex $-1 $275 $466 #
ellipse-curve $-1 49.341538385827825 22.975305677296681 4.5076978730200592 0.61566148304635926 0 0.78801074757464917 1.1820161213619738 0 -0.92349222456953894 1 I I #
point $-1 53.598780514809675 22.975305677296681 7.5203153645151701 #
plane-surface $-1 61.784112063966795 0 0 -1 0 0 0 0 1 forward_v I I I I #
coedge $-1 $283 $281 $285 $402 reversed $181 $-1 #
edge $-1 $296 -15.762381830353306 $404 15.762381830353306 $295 $467 forward 7 unknown #
vertex $-1 $402 $468 #
straight-curve $-1 -61.784112063966795 -38.031159553715355 0 0 0 -1 I I #
edge $-1 $400 -38.031159553715355 $404 38.031159553715355 $398 $469 forward 7 unknown #
straight-curve $-1 0 -38.031159553715355 -15.762381830353306 -1 0 0 I I #
vertex $-1 $288 $470 #
straight-curve $-1 0 38.031159553715355 -15.762381830353306 1 0 0 I I #
point $-1 61.784112063966795 38.031159553715355 -15.762381830353306 #
point $-1 61.784112063966795 -38.031159553715355 -15.762381830353306 #
straight-curve $-1 -61.784112063966795 0 15.762381830353306 0 -1 0 I I #
point $-1 -61.784112063966795 38.031159553715355 15.762381830353306 #
point $-1 -61.784112063966795 -38.031159553715355 15.762381830353306 #
straight-curve $-1 61.784112063966795 -38.031159553715355 0 0 0 -1 I I #
straight-curve $-1 61.784112063966795 38.031159553715355 0 0 0 -1 I I #
plane-surface $-1 61.784112063966795 0 0 -1 0 0 0 0 1 forward_v I I I I #
coedge $-1 $309 $308 $319 $425 reversed $121 $-1 #
coedge $-1 $471 $312 $309 $416 forward $306 $-1 #
edge $-1 $417 21.374718223796691 $472 38.031159553715355 $309 $473 forward 7 unknown #
vertex $-1 $416 $474 #
straight-curve $-1 -61.784112063966795 -21.374718223796691 6.4357727565184266 0 0 -1 I I #
coedge $-1 $312 $471 $314 $421 forward $306 $-1 #
straight-curve $-1 0 -21.374718223796691 15.762381830353306 -1 0 0 I I #
edge $-1 $428 -38.031159553715355 $315 -21.374718223796691 $314 $475 forward 7 unknown #
point $-1 61.784112063966795 -21.374718223796691 15.762381830353306 #
straight-curve $-1 -61.784112063966795 -14.851469444378012 9.9807091957204008 0 -1 0 I I #
coedge $-1 $319 $318 $471 $476 reversed $200 $-1 #
edge $-1 $472 -15.762381830353306 $320 -9.9807091957204008 $414 $477 forward 7 unknown #
point $-1 -61.784112063966795 -38.031159553715355 9.9807091957204008 #
point $-1 -61.784112063966795 -21.374718223796691 9.9807091957204008 #
vertex $-1 $421 $478 #
straight-curve $-1 61.784112063966795 -38.031159553715355 0 0 0 -1 I I #
coedge $-1 $338 $337 $330 $431 forward $327 $-1 #
edge $-1 $432 42.626581763474711 $435 46.402833083030785 $430 $479 forward 7 unknown #
vertex $-1 $342 $480 #
straight-curve $-1 -63.632647670525586 -6.0000385979010247 15.762381830353306 -1 0 0 I I #
edge $-1 $435 0.21789744310838088 $339 11.346384866476907 $338 $481 forward 7 unknown #
vertex $-1 $434 $482 #
straight-curve $-1 -61.784112063966788 -6.0000385979010247 11.986130510797238 0.84804809178421925 0 0.52991927123019833 I I #
point $-1 -55.740846797895699 -6.0000385979010247 15.762381830353306 #
point $-1 -61.784112063966795 -17.12852602126955 11.986130510797235 #
straight-curve $-1 -61.784112063966795 0 15.762381830353306 0 -1 0 I I #
vertex $-1 $345 $483 #
point $-1 -56.640745861554421 -11.564282309585288 12.365852630298468 #
coedge $-1 $360 $359 $352 $443 forward $349 $-1 #
edge $-1 $444 42.626581763474711 $447 46.402833083030785 $442 $484 forward 7 unknown #
vertex $-1 $364 $485 #
straight-curve $-1 -63.632647670525586 33.784967351188207 15.762381830353306 -1 0 0 I I #
edge $-1 $447 -19.674605531436235 $361 -8.5461181080677093 $360 $486 forward 7 unknown #
vertex $-1 $446 $487 #
straight-curve $-1 -61.784112063966788 33.784967351188207 11.986130510797238 0.84804809178421925 0 0.52991927123019833 I I #
point $-1 -55.740846797895699 33.784967351188207 15.762381830353306 #
point $-1 -61.784112063966795 22.656479927819682 11.986130510797235 #
straight-curve $-1 -61.784112063966795 0 15.762381830353306 0 -1 0 I I #
vertex $-1 $367 $488 #
point $-1 -56.640745861554421 28.220723639503944 12.365852630298468 #
edge $-1 $455 71.524877241321363 $458 86.162025723858576 $372 $489 forward 7 unknown #
vertex $-1 $386 $490 #
straight-curve $-1 20.243609758225272 12.518405081718726 15.762381830353306 1 0 0 I I #
edge $-1 $458 2.5992873324070764 $383 17.238948166216222 $382 $491 forward 7 unknown #
vertex $-1 $457 $492 #
straight-curve $-1 -35.58897660755796 12.518405081718726 77.201429471824596 -0.78801074757464917 0 0.61566148304635926 I I #
point $-1 43.049416722928591 12.518405081718726 15.762381830353306 #
point $-1 61.784112063966795 27.158065915527871 1.1252333478160921 #
straight-curve $-1 61.784112063966795 0 15.762381830353306 0 1 0 I I #
vertex $-1 $389 $493 #
point $-1 50.523554507189793 16.701165319949908 3.5842056484505203 #
vertex $-1 $393 $494 #
point $-1 50.523554507189793 22.975305677296681 3.5842056484505203 #
straight-curve $-1 -61.784112063966795 38.031159553715355 0 0 0 -1 I I #
point $-1 -61.784112063966795 -38.031159553715355 -15.762381830353306 #
straight-curve $-1 -61.784112063966795 0 -15.762381830353306 0 1 0 I I #
point $-1 -61.784112063966795 38.031159553715355 -15.762381830353306 #
coedge $-1 $419 $415 $424 $476 forward $306 $-1 #
vertex $-1 $416 $495 #
straight-curve $-1 -61.784112063966795 0 15.762381830353306 0 -1 0 I I #
point $-1 -61.784112063966795 -21.374718223796691 15.762381830353306 #
straight-curve $-1 61.784112063966795 0 15.762381830353306 0 1 0 I I #
edge $-1 $472 -61.784112063966795 $428 61.784112063966795 $424 $496 forward 7 unknown #
straight-curve $-1 -61.784112063966795 -38.031159553715355 0 0 0 -1 I I #
point $-1 61.784112063966795 -38.031159553715355 15.762381830353306 #
straight-curve $-1 -61.784112063966795 -6.0000385979010247 58.388963593828016 0 0 -1 I I #
point $-1 -61.784112063966795 -6.0000385979010247 15.762381830353306 #
straight-curve $-1 -61.784112063966795 -5.7821411547926438 11.986130510797228 0 -1 0 I I #
point $-1 -61.784112063966795 -6.0000385979010247 11.986130510797235 #
point $-1 -56.958874682108444 -11.564282309585288 10.987885267284051 #
straight-curve $-1 -61.784112063966795 33.784967351188207 58.388963593828016 0 0 -1 I I #
point $-1 -61.784112063966795 33.784967351188207 15.762381830353306 #
straight-curve $-1 -61.784112063966795 14.110361819751972 11.986130510797228 0 -1 0 I I #
point $-1 -61.784112063966795 33.784967351188207 11.986130510797235 #
point $-1 -56.958874682108444 28.220723639503944 10.987885267284051 #
straight-curve $-1 61.784112063966795 12.518405081718726 87.287259071674669 0 0 -1 I I #
point $-1 61.784112063966795 12.518405081718726 15.762381830353306 #
straight-curve $-1 61.784112063966788 9.9191177493116491 1.125233347816085 0 1 0 I I #
point $-1 61.784112063966795 12.518405081718726 1.1252333478160921 #
point $-1 48.418046161258282 16.701165319949908 3.3256817516580854 #
point $-1 48.418046161258282 22.975305677296681 3.3256817516580854 #
point $-1 -61.784112063966795 -38.031159553715355 15.762381830353306 #
straight-curve $-1 0 -38.031159553715355 15.762381830353306 1 0 0 I I #
End-of-ACIS-data 