500 0 8 0           
7 Unknown 11 ACIS 5.0 NT 24 Fri Mar 26 00:41:56 1999 
-1 9.9999999999999995e-007 1e-010 
body $-1 $8 $-1 $9 #
body $-1 $10 $-1 $11 #
body $-1 $12 $-1 $13 #
body $-1 $14 $-1 $15 #
body $-1 $16 $-1 $17 #
body $-1 $18 $-1 $19 #
body $-1 $20 $-1 $21 #
body $-1 $22 $-1 $23 #
lump $-1 $-1 $24 $0 #
transform $-1 1 0 0 0 1 0 0 0 1 68.903469954527424 33.676210830432147 11.431638327185791 1 rotate no_reflect no_shear #
lump $-1 $-1 $25 $1 #
transform $-1 1 0 0 0 1 0 0 0 1 68.903469954527424 33.676210830432147 11.431638327185791 1 rotate no_reflect no_shear #
lump $-1 $-1 $26 $2 #
transform $-1 1 0 0 0 1 0 0 0 1 68.903469954527424 33.676210830432147 11.431638327185791 1 rotate no_reflect no_shear #
lump $-1 $-1 $27 $3 #
transform $-1 1 0 0 0 1 0 0 0 1 68.903469954527424 33.676210830432147 11.431638327185791 1 rotate no_reflect no_shear #
lump $-1 $-1 $28 $4 #
transform $-1 1 0 0 0 1 0 0 0 1 68.903469954527424 33.676210830432147 11.431638327185791 1 rotate no_reflect no_shear #
lump $-1 $-1 $29 $5 #
transform $-1 1 0 0 0 1 0 0 0 1 68.903469954527424 33.676210830432147 11.431638327185791 1 rotate no_reflect no_shear #
lump $-1 $-1 $30 $6 #
transform $-1 1 0 0 0 1 0 0 0 1 68.903469954527424 33.676210830432147 11.431638327185791 1 rotate no_reflect no_shear #
lump $-1 $-1 $31 $7 #
transform $-1 1 0 0 0 1 0 0 0 1 68.903469954527424 33.676210830432147 11.431638327185791 1 rotate no_reflect no_shear #
shell $-1 $-1 $-1 $32 $-1 $8 #
shell $-1 $-1 $-1 $33 $-1 $10 #
shell $-1 $-1 $-1 $34 $-1 $12 #
shell $-1 $-1 $-1 $35 $-1 $14 #
shell $-1 $-1 $-1 $36 $-1 $16 #
shell $-1 $-1 $-1 $37 $-1 $18 #
shell $-1 $-1 $-1 $38 $-1 $20 #
shell $-1 $-1 $-1 $39 $-1 $22 #
face $-1 $40 $41 $24 $-1 $42 forward single #
face $-1 $43 $44 $25 $-1 $45 forward single #
face $-1 $46 $47 $26 $-1 $48 reversed single #
face $-1 $49 $50 $27 $-1 $51 forward single #
face $-1 $52 $53 $28 $-1 $54 forward single #
face $-1 $55 $56 $29 $-1 $57 reversed single #
face $-1 $58 $59 $30 $-1 $60 forward single #
face $-1 $61 $62 $31 $-1 $63 forward single #
face $-1 $64 $65 $24 $-1 $66 reversed single #
loop $-1 $-1 $67 $32 #
plane-surface $-1 0 0 11.431638327185791 0 0 1 1 0 0 forward_v I I I I #
face $-1 $68 $69 $25 $-1 $70 reversed single #
loop $-1 $-1 $71 $33 #
plane-surface $-1 -64.334680175966881 0 6.3877916119314229 0 0 1 1 0 0 forward_v I I I I #
face $-1 $72 $73 $26 $-1 $74 reversed single #
loop $-1 $-1 $75 $34 #
plane-surface $-1 -39.611735453485394 -104.65203281458375 124.8937185420065 1 0 0 0 0.51503808176128008 -0.85716729658548041 forward_v I I I I #
face $-1 $76 $77 $27 $-1 $78 forward single #
loop $-1 $79 $80 $35 #
cone-surface $-1 -28.778151050237298 -29.101187320798086 7.9425622730817302 0 0.51503808176128008 -0.85716729658548041 1 0 0 1 I I 0 1 1 forward I I I I #
face $-1 $81 $82 $28 $-1 $83 forward single #
loop $-1 $84 $85 $36 #
cone-surface $-1 -12.527774445365139 -29.101187320798086 7.9425622730817302 0 0.51503808176128008 -0.85716729658548041 1 0 0 1 I I 0 1 1 forward I I I I #
face $-1 $86 $87 $29 $-1 $88 reversed single #
loop $-1 $-1 $89 $37 #
plane-surface $-1 27.160274849586152 83.49508013213628 148.07920202781074 1 0 0 0 -0.70710678939079041 -0.70710677298230451 forward_v I I I I #
face $-1 $90 $91 $30 $-1 $92 forward single #
loop $-1 $93 $94 $38 #
cone-surface $-1 34.268338559238941 28.018406027365184 5.7738334599751377 0 -0.70710678939079041 -0.70710677298230451 1.5 0 0 1 I I 0 1 1.5 forward I I I I #
face $-1 $95 $96 $31 $-1 $97 forward single #
loop $-1 $98 $99 $39 #
cone-surface $-1 44.930434123718143 28.018406027365184 5.7738334599751377 0 -0.70710678939079041 -0.70710677298230451 1.5 0 0 1 I I 0 1 1.5 forward I I I I #
face $-1 $100 $101 $24 $-1 $102 reversed single #
loop $-1 $-1 $103 $40 #
plane-surface $-1 0 0 -11.431638327185791 0 0 1 1 0 0 forward_v I I I I #
coedge $-1 $104 $105 $106 $107 forward $41 $-1 #
face $-1 $108 $109 $25 $-1 $110 reversed single #
loop $-1 $-1 $111 $43 #
plane-surface $-1 -64.334680175966881 0 2.8004334691926722 0 0 1 1 0 0 forward_v I I I I #
coedge $-1 $112 $113 $114 $115 forward $44 $-1 #
face $-1 $116 $117 $26 $-1 $118 reversed single #
loop $-1 $-1 $119 $46 #
plane-surface $-1 -20.652962747801212 -33.676210830432154 6.7701164094441992 0 -0.51503808176128008 0.85716729658548041 1 0 0 forward_v I I I I #
coedge $-1 $120 $121 $122 $123 reversed $47 $-1 #
face $-1 $-1 $124 $27 $-1 $125 forward single #
loop $-1 $126 $127 $49 #
cone-surface $-1 -28.778151050237298 -28.147682342165815 6.3556635295557236 0 0.51503808176128008 -0.85716729658548041 0.5 0 0 1 I I -0.70710678118654746 0.70710678118654746 0.5 forward I I I I #
loop $-1 $-1 $128 $35 #
coedge $-1 $80 $80 $129 $130 reversed $50 $-1 #
face $-1 $-1 $131 $28 $-1 $132 forward single #
loop $-1 $133 $134 $52 #
cone-surface $-1 -12.527774445365139 -28.147682342165815 6.3556635295557236 0 0.51503808176128008 -0.85716729658548041 0.5 0 0 1 I I -0.70710678118654746 0.70710678118654746 0.5 forward I I I I #
loop $-1 $-1 $135 $36 #
coedge $-1 $85 $85 $136 $137 reversed $53 $-1 #
face $-1 $138 $139 $29 $-1 $140 reversed single #
loop $-1 $-1 $141 $55 #
plane-surface $-1 39.599386341478549 -13.949142702725069 50.634981454152609 0 0.70710678939079041 0.70710677298230451 1 0 0 forward_v I I I I #
coedge $-1 $142 $143 $144 $145 reversed $56 $-1 #
face $-1 $-1 $146 $30 $-1 $147 forward single #
loop $-1 $148 $149 $58 #
cone-surface $-1 34.268338559238941 26.041276790209139 3.7967042686985799 0 -0.70710678939079041 -0.70710677298230451 0.75 0 0 1 I I -0.70710678118654757 0.70710678118654757 0.75 forward I I I I #
loop $-1 $-1 $150 $38 #
coedge $-1 $94 $94 $151 $152 reversed $59 $-1 #
face $-1 $-1 $153 $31 $-1 $154 forward single #
loop $-1 $155 $156 $61 #
cone-surface $-1 44.930434123718143 26.041276790209139 3.7967042686985799 0 -0.70710678939079041 -0.70710677298230451 0.75 0 0 1 I I -0.70710678118654757 0.70710678118654757 0.75 forward I I I I #
loop $-1 $-1 $157 $39 #
coedge $-1 $99 $99 $158 $159 reversed $62 $-1 #
face $-1 $160 $161 $24 $-1 $162 reversed single #
loop $-1 $-1 $163 $64 #
plane-surface $-1 0 -33.676210830432147 0 0 1 0 0 0 1 forward_v I I I I #
coedge $-1 $164 $165 $166 $167 forward $65 $-1 #
coedge $-1 $168 $67 $169 $170 forward $41 $-1 #
coedge $-1 $67 $168 $171 $172 forward $41 $-1 #
coedge $-1 $173 $174 $67 $107 reversed $175 $-1 #
edge $-1 $176 -33.676210830432147 $177 33.676210830432147 $106 $178 forward 7 unknown #
face $-1 $179 $180 $25 $-1 $181 reversed single #
loop $-1 $-1 $182 $68 #
plane-surface $-1 -59.765890397406331 0 4.5941125405620475 -1 0 0 0 0 1 forward_v I I I I #
coedge $-1 $183 $184 $185 $186 forward $69 $-1 #
coedge $-1 $187 $71 $188 $189 reversed $44 $-1 #
coedge $-1 $71 $187 $190 $191 reversed $44 $-1 #
coedge $-1 $182 $192 $71 $115 reversed $109 $-1 #
edge $-1 $193 -33.676210830432147 $194 33.676210830432147 $114 $195 forward 7 unknown #
face $-1 $196 $197 $26 $-1 $198 forward single #
loop $-1 $-1 $199 $72 #
plane-surface $-1 -1.6941900421170253 -104.65203281458375 124.8937185420065 -1 0 0 0 -0.51503808176128008 0.85716729658548041 forward_v I I I I #
coedge $-1 $200 $201 $202 $203 reversed $73 $-1 #
coedge $-1 $121 $75 $204 $205 reversed $47 $-1 #
coedge $-1 $75 $120 $200 $206 reversed $47 $-1 #
coedge $-1 $202 $207 $75 $123 forward $208 $-1 #
edge $-1 $209 51.015220943817454 $210 55.676742861559042 $122 $211 forward 7 unknown #
loop $-1 $-1 $129 $76 #
plane-surface $-1 -20.652962747801212 -33.676210830432154 6.7701164094441992 0 -0.51503808176128008 0.85716729658548041 1 0 0 forward_v I I I I #
loop $-1 $-1 $212 $49 #
coedge $-1 $127 $127 $128 $213 reversed $77 $-1 #
coedge $-1 $128 $128 $127 $213 forward $79 $-1 #
coedge $-1 $129 $129 $80 $130 forward $124 $-1 #
edge $-1 $214 9.1489141908823526e-016 $214 6.2831853071796013 $129 $215 forward 7 unknown #
loop $-1 $-1 $136 $81 #
plane-surface $-1 -20.652962747801212 -33.676210830432154 6.7701164094441992 0 -0.51503808176128008 0.85716729658548041 1 0 0 forward_v I I I I #
loop $-1 $-1 $216 $52 #
coedge $-1 $134 $134 $135 $217 reversed $82 $-1 #
coedge $-1 $135 $135 $134 $217 forward $84 $-1 #
coedge $-1 $136 $136 $85 $137 forward $131 $-1 #
edge $-1 $218 9.1489141908823526e-016 $218 6.2831853071796013 $136 $219 forward 7 unknown #
face $-1 $220 $221 $29 $-1 $222 reversed single #
loop $-1 $-1 $223 $86 #
plane-surface $-1 52.038497833370947 83.49508013213628 148.07920202781074 -1 0 0 0 0.70710678939079041 0.70710677298230451 forward_v I I I I #
coedge $-1 $224 $225 $226 $227 reversed $87 $-1 #
coedge $-1 $143 $89 $228 $229 reversed $56 $-1 #
coedge $-1 $89 $142 $224 $230 reversed $56 $-1 #
coedge $-1 $226 $231 $89 $145 forward $232 $-1 #
edge $-1 $233 8.0713292356359929 $234 16.493340551544016 $144 $235 forward 7 unknown #
loop $-1 $-1 $151 $90 #
plane-surface $-1 39.599386341478549 -13.949142702725069 50.634981454152609 0 0.70710678939079041 0.70710677298230451 1 0 0 forward_v I I I I #
loop $-1 $-1 $236 $58 #
coedge $-1 $149 $149 $150 $237 reversed $91 $-1 #
coedge $-1 $150 $150 $149 $237 forward $93 $-1 #
coedge $-1 $151 $151 $94 $152 forward $146 $-1 #
edge $-1 $238 -1.2560740203837842e-015 $238 6.2831853071795996 $151 $239 forward 7 unknown #
loop $-1 $-1 $158 $95 #
plane-surface $-1 39.599386341478549 -13.949142702725069 50.634981454152609 0 0.70710678939079041 0.70710677298230451 1 0 0 forward_v I I I I #
loop $-1 $-1 $240 $61 #
coedge $-1 $156 $156 $157 $241 reversed $96 $-1 #
coedge $-1 $157 $157 $156 $241 forward $98 $-1 #
coedge $-1 $158 $158 $99 $159 forward $153 $-1 #
edge $-1 $242 -1.2560740203837842e-015 $242 6.2831853071795996 $158 $243 forward 7 unknown #
face $-1 $244 $245 $24 $-1 $246 reversed single #
loop $-1 $-1 $247 $100 #
plane-surface $-1 -68.903469954527424 0 0 1 0 0 0 0 -1 forward_v I I I I #
coedge $-1 $248 $171 $249 $250 forward $101 $-1 #
coedge $-1 $251 $103 $248 $252 forward $65 $-1 #
coedge $-1 $103 $251 $253 $254 forward $65 $-1 #
coedge $-1 $174 $173 $103 $167 reversed $175 $-1 #
edge $-1 $255 -33.676210830432147 $256 33.676210830432147 $166 $257 forward 7 unknown #
coedge $-1 $105 $104 $258 $259 forward $41 $-1 #
coedge $-1 $260 $261 $104 $170 reversed $245 $-1 #
edge $-1 $177 -68.903469954527424 $262 68.903469954527424 $169 $263 forward 7 unknown #
coedge $-1 $163 $264 $105 $172 reversed $101 $-1 #
edge $-1 $265 -68.903469954527424 $176 68.903469954527424 $171 $266 forward 7 unknown #
coedge $-1 $166 $106 $264 $267 forward $175 $-1 #
coedge $-1 $106 $166 $260 $268 reversed $175 $-1 #
loop $-1 $-1 $173 $244 #
vertex $-1 $107 $269 #
vertex $-1 $107 $270 #
straight-curve $-1 68.903469954527424 0 11.431638327185791 0 1 0 I I #
face $-1 $271 $272 $25 $-1 $273 reversed single #
loop $-1 $-1 $274 $108 #
plane-surface $-1 0 -33.676210830432147 0 0 1 0 0 0 1 forward_v I I I I #
coedge $-1 $185 $114 $275 $276 reversed $109 $-1 #
coedge $-1 $277 $111 $274 $278 reversed $69 $-1 #
coedge $-1 $111 $277 $279 $280 reversed $69 $-1 #
coedge $-1 $192 $182 $111 $186 reversed $109 $-1 #
edge $-1 $281 -33.676210830432147 $282 33.676210830432147 $185 $283 forward 7 unknown #
coedge $-1 $113 $112 $284 $285 reversed $44 $-1 #
coedge $-1 $286 $287 $112 $189 forward $288 $-1 #
edge $-1 $289 -36.736129866543983 $194 -27.59855030942289 $188 $290 forward 7 unknown #
coedge $-1 $291 $275 $113 $191 forward $180 $-1 #
edge $-1 $193 27.59855030942289 $292 36.736129866543983 $190 $293 forward 7 unknown #
coedge $-1 $114 $185 $286 $294 reversed $109 $-1 #
vertex $-1 $191 $295 #
vertex $-1 $189 $296 #
straight-curve $-1 -59.765890397406331 0 6.3877916119314229 0 1 0 I I #
face $-1 $-1 $208 $26 $-1 $297 reversed single #
loop $-1 $-1 $298 $116 #
plane-surface $-1 0 0 11.431638327185791 0 0 1 1 0 0 forward_v I I I I #
coedge $-1 $299 $300 $301 $302 reversed $117 $-1 #
coedge $-1 $303 $119 $121 $206 forward $73 $-1 #
coedge $-1 $119 $303 $299 $304 forward $73 $-1 #
coedge $-1 $301 $122 $119 $203 forward $208 $-1 #
edge $-1 $210 -29.285254079584789 $305 8.6322913317835805 $202 $306 forward 7 unknown #
coedge $-1 $307 $308 $120 $205 forward $197 $-1 #
edge $-1 $309 -26.407880720624586 $209 -18.649805576859727 $204 $310 forward 7 unknown #
edge $-1 $210 8.3777685069199533e-015 $309 9.0508296042897349 $121 $311 forward 7 unknown #
coedge $-1 $122 $301 $307 $312 reversed $208 $-1 #
loop $-1 $-1 $301 $196 #
vertex $-1 $312 $313 #
vertex $-1 $123 $314 #
straight-curve $-1 -39.611735453485394 -33.676210830432147 62.446859271003248 0 0 -1 I I #
coedge $-1 $212 $212 $-1 $315 reversed $126 $-1 #
edge $-1 $316 0 $316 6.2831853071796004 $127 $317 forward 7 unknown #
vertex $-1 $130 $318 #
ellipse-curve $-1 -28.778151050237298 -29.797173258549719 9.1008773683149968 0 -0.51503808176128008 0.85716729658548041 1 0 0 1 I I #
coedge $-1 $216 $216 $-1 $319 reversed $133 $-1 #
edge $-1 $320 0 $320 6.2831853071796004 $134 $321 forward 7 unknown #
vertex $-1 $137 $322 #
ellipse-curve $-1 -12.527774445365139 -29.797173258549719 9.1008773683149968 0 -0.51503808176128008 0.85716729658548041 1 0 0 1 I I #
face $-1 $-1 $232 $29 $-1 $323 forward single #
loop $-1 $-1 $324 $138 #
plane-surface $-1 0 33.676210830432147 0 0 -1 0 0 0 -1 forward_v I I I I #
coedge $-1 $325 $326 $327 $328 reversed $139 $-1 #
coedge $-1 $329 $141 $143 $230 forward $87 $-1 #
coedge $-1 $141 $329 $325 $330 forward $87 $-1 #
coedge $-1 $327 $144 $141 $227 forward $232 $-1 #
edge $-1 $234 7.3605816788468772 $331 32.238804662631672 $226 $332 forward 7 unknown #
coedge $-1 $333 $334 $142 $229 forward $221 $-1 #
edge $-1 $335 -71.02997419806124 $233 -62.607962686719574 $228 $336 forward 7 unknown #
edge $-1 $234 55.441898897255051 $335 67.352421660864323 $143 $337 forward 7 unknown #
coedge $-1 $144 $327 $333 $338 forward $232 $-1 #
loop $-1 $-1 $327 $220 #
vertex $-1 $229 $339 #
vertex $-1 $145 $340 #
straight-curve $-1 27.160274849586152 41.74754006606814 11.431638327185794 0 -1 0 I I #
coedge $-1 $236 $236 $-1 $341 reversed $148 $-1 #
edge $-1 $342 0 $342 6.2831853071796004 $149 $343 forward 7 unknown #
vertex $-1 $152 $344 #
ellipse-curve $-1 34.268338559238941 29.465205172478132 7.2206325715149617 0 0.70710678939079041 0.70710677298230451 1.5 0 0 1 I I #
coedge $-1 $240 $240 $-1 $345 reversed $155 $-1 #
edge $-1 $346 0 $346 6.2831853071796004 $156 $347 forward 7 unknown #
vertex $-1 $159 $348 #
ellipse-curve $-1 44.930434123718143 29.465205172478132 7.2206325715149617 0 0.70710678939079041 0.70710677298230451 1.5 0 0 1 I I #
face $-1 $-1 $175 $24 $-1 $349 reversed single #
loop $-1 $-1 $260 $160 #
plane-surface $-1 0 33.676210830432147 0 0 -1 0 0 0 -1 forward_v I I I I #
coedge $-1 $350 $258 $261 $351 forward $161 $-1 #
coedge $-1 $264 $163 $164 $252 reversed $101 $-1 #
coedge $-1 $258 $350 $163 $250 reversed $161 $-1 #
edge $-1 $265 -11.431638327185791 $352 11.431638327185791 $249 $353 forward 7 unknown #
coedge $-1 $165 $164 $350 $354 forward $65 $-1 #
edge $-1 $256 -68.903469954527424 $352 68.903469954527424 $248 $355 forward 7 unknown #
coedge $-1 $261 $260 $165 $254 reversed $245 $-1 #
edge $-1 $356 -68.903469954527424 $255 68.903469954527424 $253 $357 forward 7 unknown #
vertex $-1 $167 $358 #
vertex $-1 $267 $359 #
straight-curve $-1 68.903469954527424 0 -11.431638327185791 0 -1 0 I I #
coedge $-1 $247 $249 $168 $259 reversed $161 $-1 #
edge $-1 $262 -33.676210830432147 $265 33.676210830432147 $258 $360 forward 7 unknown #
coedge $-1 $253 $169 $174 $268 forward $245 $-1 #
coedge $-1 $169 $253 $247 $351 reversed $245 $-1 #
vertex $-1 $170 $361 #
straight-curve $-1 0 33.676210830432147 11.431638327185791 -1 0 0 I I #
coedge $-1 $171 $248 $173 $267 reversed $101 $-1 #
vertex $-1 $259 $362 #
straight-curve $-1 0 -33.676210830432147 11.431638327185791 1 0 0 I I #
edge $-1 $176 -11.431638327185791 $256 11.431638327185791 $173 $363 forward 7 unknown #
edge $-1 $177 -11.431638327185791 $255 11.431638327185791 $174 $364 forward 7 unknown #
point $-1 68.903469954527424 -33.676210830432147 11.431638327185791 #
point $-1 68.903469954527424 33.676210830432147 11.431638327185791 #
face $-1 $-1 $288 $25 $-1 $365 reversed single #
loop $-1 $-1 $366 $179 #
plane-surface $-1 -68.903469954527424 0 0 1 0 0 0 0 -1 forward_v I I I I #
coedge $-1 $275 $291 $183 $278 forward $180 $-1 #
coedge $-1 $190 $274 $182 $276 forward $180 $-1 #
edge $-1 $282 0.50337719891164845 $193 4.0907353416503991 $275 $367 forward 7 unknown #
coedge $-1 $184 $183 $366 $368 reversed $69 $-1 #
edge $-1 $369 -36.736129866543983 $282 -27.59855030942289 $274 $370 forward 7 unknown #
coedge $-1 $287 $286 $184 $280 forward $288 $-1 #
edge $-1 $281 27.59855030942289 $371 36.736129866543983 $279 $372 forward 7 unknown #
vertex $-1 $280 $373 #
vertex $-1 $278 $374 #
straight-curve $-1 -59.765890397406331 0 2.8004334691926722 0 -1 0 I I #
coedge $-1 $375 $376 $187 $285 forward $272 $-1 #
edge $-1 $292 -33.676210830432147 $289 33.676210830432147 $284 $377 forward 7 unknown #
coedge $-1 $279 $188 $192 $294 forward $288 $-1 #
coedge $-1 $188 $279 $375 $378 reversed $288 $-1 #
loop $-1 $-1 $279 $271 #
vertex $-1 $378 $379 #
straight-curve $-1 -32.16734008798344 33.676210830432147 6.3877916119314229 1 0 0 I I #
coedge $-1 $274 $190 $376 $380 forward $180 $-1 #
vertex $-1 $380 $381 #
straight-curve $-1 -32.16734008798344 -33.676210830432147 6.3877916119314229 -1 0 0 I I #
edge $-1 $194 -4.0907353416503991 $281 -0.50337719891164845 $286 $382 forward 7 unknown #
point $-1 -59.765890397406331 -33.676210830432147 6.3877916119314229 #
point $-1 -59.765890397406331 33.676210830432147 6.3877916119314229 #
plane-surface $-1 0 -33.676210830432147 0 0 1 0 0 0 1 forward_v I I I I #
coedge $-1 $308 $307 $300 $383 forward $197 $-1 #
coedge $-1 $300 $199 $201 $304 reversed $117 $-1 #
coedge $-1 $199 $299 $298 $383 reversed $117 $-1 #
coedge $-1 $207 $202 $199 $302 forward $208 $-1 #
edge $-1 $305 -55.676742861559042 $384 -51.015220943817454 $301 $385 forward 7 unknown #
coedge $-1 $201 $200 $308 $386 reversed $73 $-1 #
edge $-1 $387 -9.0508296042897349 $305 -8.3777685069199533e-015 $299 $388 forward 7 unknown #
vertex $-1 $203 $389 #
straight-curve $-1 -10.326481373900606 -33.676210830432147 6.7701164094442063 1 0 0 I I #
coedge $-1 $298 $204 $207 $312 forward $197 $-1 #
coedge $-1 $204 $298 $303 $386 forward $197 $-1 #
vertex $-1 $205 $390 #
straight-curve $-1 -39.611735453485394 -52.326016407291874 11.431638327185794 0 -1 0 I I #
straight-curve $-1 -39.611735453485394 -33.676210830432154 6.7701164094441992 0 0.85716729658548041 0.51503808176128008 I I #
edge $-1 $209 -39.611735453485394 $384 -1.6941900421170253 $207 $391 forward 7 unknown #
point $-1 -39.611735453485394 -33.676210830432147 11.431638327185791 #
point $-1 -39.611735453485394 -33.676210830432147 6.7701164094442037 #
edge $-1 $392 1 $392 0 $212 $-1 forward 7 unknown #
vertex $-1 $213 $393 #
ellipse-curve $-1 -28.778151050237298 -28.405201383046457 6.7842471778484637 0 -0.51503808176128008 0.85716729658548041 1 0 0 1 I I #
point $-1 -27.778151050237298 -29.797173258549719 9.1008773683149986 #
edge $-1 $394 1 $394 0 $216 $-1 forward 7 unknown #
vertex $-1 $217 $395 #
ellipse-curve $-1 -12.527774445365139 -28.405201383046457 6.7842471778484637 0 -0.51503808176128008 0.85716729658548041 1 0 0 1 I I #
point $-1 -11.527774445365139 -29.797173258549719 9.1008773683149986 #
plane-surface $-1 0 0 11.431638327185791 0 0 1 1 0 0 forward_v I I I I #
coedge $-1 $334 $333 $326 $396 forward $221 $-1 #
coedge $-1 $326 $223 $225 $330 reversed $139 $-1 #
coedge $-1 $223 $325 $324 $396 reversed $139 $-1 #
coedge $-1 $231 $226 $223 $328 forward $232 $-1 #
edge $-1 $331 -16.493340551544016 $397 -8.0713292356359929 $327 $398 forward 7 unknown #
coedge $-1 $225 $224 $334 $399 reversed $87 $-1 #
edge $-1 $400 -67.352421660864323 $331 -55.441898897255051 $325 $401 forward 7 unknown #
vertex $-1 $227 $402 #
straight-curve $-1 19.799693170739275 25.254199514524132 11.431638327185787 1 0 0 I I #
coedge $-1 $324 $228 $231 $338 reversed $221 $-1 #
coedge $-1 $228 $324 $329 $399 forward $221 $-1 #
vertex $-1 $229 $403 #
straight-curve $-1 27.160274849586152 33.676210830432147 74.039601013905369 0 0 1 I I #
straight-curve $-1 27.160274849586152 -13.949142702725069 50.634981454152609 0 0.70710677298230451 -0.70710678939079041 I I #
edge $-1 $397 -52.038497833370947 $233 -27.160274849586152 $333 $404 forward 7 unknown #
point $-1 27.160274849586152 33.676210830432147 11.431638327185791 #
point $-1 27.160274849586152 25.254199514524124 11.431638327185794 #
edge $-1 $405 1 $405 0 $236 $-1 forward 7 unknown #
vertex $-1 $237 $406 #
ellipse-curve $-1 34.268338559238941 26.571606882252233 4.3270343484353084 0 0.70710678939079041 0.70710677298230451 1.5 0 0 1 I I #
point $-1 35.768338559238941 29.465205172478136 7.220632571514968 #
edge $-1 $407 1 $407 0 $240 $-1 forward 7 unknown #
vertex $-1 $241 $408 #
ellipse-curve $-1 44.930434123718143 26.571606882252233 4.3270343484353084 0 0.70710678939079041 0.70710677298230451 1.5 0 0 1 I I #
point $-1 46.430434123718143 29.465205172478136 7.220632571514968 #
plane-surface $-1 68.903469954527424 0 0 -1 0 0 0 0 1 forward_v I I I I #
coedge $-1 $249 $247 $251 $354 reversed $161 $-1 #
edge $-1 $262 -11.431638327185791 $356 11.431638327185791 $261 $409 forward 7 unknown #
vertex $-1 $354 $410 #
straight-curve $-1 -68.903469954527424 -33.676210830432147 0 0 0 -1 I I #
edge $-1 $352 -33.676210830432147 $356 33.676210830432147 $350 $411 forward 7 unknown #
straight-curve $-1 0 -33.676210830432147 -11.431638327185791 -1 0 0 I I #
vertex $-1 $254 $412 #
straight-curve $-1 0 33.676210830432147 -11.431638327185791 1 0 0 I I #
point $-1 68.903469954527424 33.676210830432147 -11.431638327185791 #
point $-1 68.903469954527424 -33.676210830432147 -11.431638327185791 #
straight-curve $-1 -68.903469954527424 0 11.431638327185791 0 -1 0 I I #
point $-1 -68.903469954527424 33.676210830432147 11.431638327185791 #
point $-1 -68.903469954527424 -33.676210830432147 11.431638327185791 #
straight-curve $-1 68.903469954527424 -33.676210830432147 0 0 0 -1 I I #
straight-curve $-1 68.903469954527424 33.676210830432147 0 0 0 -1 I I #
plane-surface $-1 0 33.676210830432147 0 0 -1 0 0 0 -1 forward_v I I I I #
coedge $-1 $376 $375 $277 $368 forward $272 $-1 #
straight-curve $-1 -59.765890397406331 -33.676210830432147 2.2970562702810238 0 0 1 I I #
edge $-1 $371 -33.676210830432147 $369 33.676210830432147 $366 $413 forward 7 unknown #
vertex $-1 $278 $414 #
straight-curve $-1 -32.16734008798344 -33.676210830432147 2.8004334691926722 1 0 0 I I #
vertex $-1 $280 $415 #
straight-curve $-1 -32.16734008798344 33.676210830432147 2.8004334691926722 -1 0 0 I I #
point $-1 -59.765890397406331 33.676210830432147 2.8004334691926722 #
point $-1 -59.765890397406331 -33.676210830432147 2.8004334691926722 #
coedge $-1 $366 $284 $287 $378 forward $272 $-1 #
coedge $-1 $284 $366 $291 $380 reversed $272 $-1 #
straight-curve $-1 -68.903469954527424 0 6.3877916119314229 0 1 0 I I #
edge $-1 $289 -6.3877916119314229 $371 -2.8004334691926722 $287 $416 forward 7 unknown #
point $-1 -68.903469954527424 33.676210830432147 6.3877916119314229 #
edge $-1 $292 -6.3877916119314229 $369 -2.8004334691926722 $376 $417 forward 7 unknown #
point $-1 -68.903469954527424 -33.676210830432147 6.3877916119314229 #
straight-curve $-1 -59.765890397406331 33.676210830432147 2.2970562702810238 0 0 -1 I I #
edge $-1 $384 18.649805576859727 $387 26.407880720624586 $298 $418 forward 7 unknown #
vertex $-1 $383 $419 #
straight-curve $-1 -1.6941900421170253 -33.676210830432147 62.446859271003248 0 0 1 I I #
edge $-1 $387 -8.6322913317835805 $309 29.285254079584789 $308 $420 forward 7 unknown #
vertex $-1 $386 $421 #
straight-curve $-1 -1.6941900421170253 -33.676210830432154 6.7701164094441992 0 -0.85716729658548041 -0.51503808176128008 I I #
point $-1 -1.6941900421170253 -33.676210830432147 6.7701164094442037 #
point $-1 -39.611735453485394 -25.918135686667288 11.431638327185791 #
straight-curve $-1 0 -33.676210830432147 11.431638327185791 1 0 0 I I #
vertex $-1 $315 $422 #
point $-1 -27.778151050237298 -28.405201383046457 6.7842471778484637 #
vertex $-1 $319 $423 #
point $-1 -11.527774445365139 -28.405201383046457 6.7842471778484637 #
edge $-1 $397 62.607962686719574 $400 71.02997419806124 $324 $424 forward 7 unknown #
vertex $-1 $338 $425 #
straight-curve $-1 52.038497833370947 41.74754006606814 11.431638327185794 0 1 0 I I #
edge $-1 $400 -32.238804662631672 $335 -7.3605816788468772 $334 $426 forward 7 unknown #
vertex $-1 $399 $427 #
straight-curve $-1 52.038497833370947 -13.949142702725069 50.634981454152609 0 -0.70710677298230451 0.70710678939079041 I I #
point $-1 52.038497833370947 25.254199514524124 11.431638327185794 #
point $-1 27.160274849586152 33.676210830432147 3.0096268158441291 #
straight-curve $-1 0 33.676210830432147 11.431638327185791 -1 0 0 I I #
vertex $-1 $341 $428 #
point $-1 35.768338559238941 26.571606882252233 4.3270343484353084 #
vertex $-1 $345 $429 #
point $-1 46.430434123718143 26.571606882252233 4.3270343484353084 #
straight-curve $-1 -68.903469954527424 33.676210830432147 0 0 0 -1 I I #
point $-1 -68.903469954527424 -33.676210830432147 -11.431638327185791 #
straight-curve $-1 -68.903469954527424 0 -11.431638327185791 0 1 0 I I #
point $-1 -68.903469954527424 33.676210830432147 -11.431638327185791 #
straight-curve $-1 -68.903469954527424 0 2.8004334691926722 0 -1 0 I I #
point $-1 -68.903469954527424 -33.676210830432147 2.8004334691926722 #
point $-1 -68.903469954527424 33.676210830432147 2.8004334691926722 #
straight-curve $-1 -68.903469954527424 33.676210830432147 0 0 0 -1 I I #
straight-curve $-1 -68.903469954527424 -33.676210830432147 0 0 0 -1 I I #
straight-curve $-1 -1.6941900421170253 -52.326016407291874 11.431638327185794 0 1 0 I I #
point $-1 -1.6941900421170253 -33.676210830432147 11.431638327185791 #
straight-curve $-1 -10.326481373900606 -25.918135686667288 11.431638327185791 -1 0 0 I I #
point $-1 -1.6941900421170253 -25.918135686667288 11.431638327185791 #
point $-1 -28.778151050237298 -27.890163301285174 5.9270798812629835 #
point $-1 -12.527774445365139 -27.890163301285174 5.9270798812629835 #
straight-curve $-1 52.038497833370947 33.676210830432147 74.039601013905369 0 0 -1 I I #
point $-1 52.038497833370947 33.676210830432147 11.431638327185791 #
straight-curve $-1 19.799693170739275 33.676210830432147 3.0096268158441326 -1 0 0 I I #
point $-1 52.038497833370947 33.676210830432147 3.0096268158441291 #
point $-1 34.268338559238941 25.510946698166045 3.2663741889618514 #
point $-1 44.930434123718143 25.510946698166045 3.2663741889618514 #
End-of-ACIS-data 