500 0 12 0           
7 Unknown 11 ACIS 5.0 NT 24 Fri Mar 26 00:08:40 1999 
-1 9.9999999999999995e-007 1e-010 
body $-1 $12 $-1 $13 #
body $-1 $14 $-1 $15 #
body $-1 $16 $-1 $17 #
body $-1 $18 $-1 $19 #
body $-1 $20 $-1 $21 #
body $-1 $22 $-1 $23 #
body $-1 $24 $-1 $25 #
body $-1 $26 $-1 $27 #
body $-1 $28 $-1 $29 #
body $-1 $30 $-1 $31 #
body $-1 $32 $-1 $33 #
body $-1 $34 $-1 $35 #
lump $-1 $-1 $36 $0 #
transform $-1 1 0 0 0 1 0 0 0 1 75.145115512558363 30.472219240747336 13.135593808762108 1 rotate no_reflect no_shear #
lump $-1 $-1 $37 $1 #
transform $-1 1 0 0 0 1 0 0 0 1 75.145115512558363 30.472219240747336 13.135593808762108 1 rotate no_reflect no_shear #
lump $-1 $-1 $38 $2 #
transform $-1 1 0 0 0 1 0 0 0 1 75.145115512558363 30.472219240747336 13.135593808762108 1 rotate no_reflect no_shear #
lump $-1 $-1 $39 $3 #
transform $-1 1 0 0 0 1 0 0 0 1 75.145115512558363 30.472219240747336 13.135593808762108 1 rotate no_reflect no_shear #
lump $-1 $-1 $40 $4 #
transform $-1 1 0 0 0 1 0 0 0 1 75.145115512558363 30.472219240747336 13.135593808762108 1 rotate no_reflect no_shear #
lump $-1 $-1 $41 $5 #
transform $-1 1 0 0 0 1 0 0 0 1 75.145115512558363 30.472219240747336 13.135593808762108 1 rotate no_reflect no_shear #
lump $-1 $-1 $42 $6 #
transform $-1 1 0 0 0 1 0 0 0 1 75.145115512558363 30.472219240747336 13.135593808762108 1 rotate no_reflect no_shear #
lump $-1 $-1 $43 $7 #
transform $-1 1 0 0 0 1 0 0 0 1 75.145115512558363 30.472219240747336 13.135593808762108 1 rotate no_reflect no_shear #
lump $-1 $-1 $44 $8 #
transform $-1 1 0 0 0 1 0 0 0 1 75.145115512558363 30.472219240747336 13.135593808762108 1 rotate no_reflect no_shear #
lump $-1 $-1 $45 $9 #
transform $-1 1 0 0 0 1 0 0 0 1 75.145115512558363 30.472219240747336 13.135593808762108 1 rotate no_reflect no_shear #
lump $-1 $-1 $46 $10 #
transform $-1 1 0 0 0 1 0 0 0 1 75.145115512558363 30.472219240747336 13.135593808762108 1 rotate no_reflect no_shear #
lump $-1 $-1 $47 $11 #
transform $-1 1 0 0 0 1 0 0 0 1 75.145115512558363 30.472219240747336 13.135593808762108 1 rotate no_reflect no_shear #
shell $-1 $-1 $-1 $48 $-1 $12 #
shell $-1 $-1 $-1 $49 $-1 $14 #
shell $-1 $-1 $-1 $50 $-1 $16 #
shell $-1 $-1 $-1 $51 $-1 $18 #
shell $-1 $-1 $-1 $52 $-1 $20 #
shell $-1 $-1 $-1 $53 $-1 $22 #
shell $-1 $-1 $-1 $54 $-1 $24 #
shell $-1 $-1 $-1 $55 $-1 $26 #
shell $-1 $-1 $-1 $56 $-1 $28 #
shell $-1 $-1 $-1 $57 $-1 $30 #
shell $-1 $-1 $-1 $58 $-1 $32 #
shell $-1 $-1 $-1 $59 $-1 $34 #
face $-1 $60 $61 $36 $-1 $62 forward single #
face $-1 $63 $64 $37 $-1 $65 reversed single #
face $-1 $66 $67 $38 $-1 $68 reversed single #
face $-1 $69 $70 $39 $-1 $71 forward single #
face $-1 $72 $73 $40 $-1 $74 forward single #
face $-1 $75 $76 $41 $-1 $77 reversed single #
face $-1 $78 $79 $42 $-1 $80 forward single #
face $-1 $81 $82 $43 $-1 $83 forward single #
face $-1 $84 $85 $44 $-1 $86 reversed single #
face $-1 $87 $88 $45 $-1 $89 forward single #
face $-1 $90 $91 $46 $-1 $92 reversed single #
face $-1 $93 $94 $47 $-1 $95 forward single #
face $-1 $96 $97 $36 $-1 $98 reversed single #
loop $-1 $-1 $99 $48 #
plane-surface $-1 0 0 13.135593808762108 0 0 1 1 0 0 forward_v I I I I #
face $-1 $100 $101 $37 $-1 $102 reversed single #
loop $-1 $-1 $103 $49 #
plane-surface $-1 0 -23.88325192988901 6.8582335545000213 0 0 1 1 0 0 forward_v I I I I #
face $-1 $104 $105 $38 $-1 $106 reversed single #
loop $-1 $-1 $107 $50 #
plane-surface $-1 -195.17223205840565 -9.2203211029081942 97.595376738480155 0 1 0 -0.79863551827123203 0 0.60181501223851219 forward_v I I I I #
face $-1 $108 $109 $39 $-1 $110 forward single #
loop $-1 $111 $112 $51 #
cone-surface $-1 -71.762700093803602 -6.2263667208066096 9.2930720638263935 0.79863551827123203 0 -0.60181501223851219 0.60181501223851219 0 0.79863551827123203 1 I I 0 1 1 forward I I I I #
face $-1 $113 $114 $40 $-1 $115 forward single #
loop $-1 $116 $117 $52 #
cone-surface $-1 -71.762700093803602 -1.7354351476542291 9.2930720638263935 0.79863551827123203 0 -0.60181501223851219 0.60181501223851219 0 0.79863551827123203 1 I I 0 1 1 forward I I I I #
face $-1 $118 $119 $41 $-1 $120 reversed single #
loop $-1 $-1 $121 $53 #
plane-surface $-1 -195.17223205840565 14.662930826980819 97.595376738480155 0 1 0 -0.79863551827123203 0 0.60181501223851219 forward_v I I I I #
face $-1 $122 $123 $42 $-1 $124 forward single #
loop $-1 $125 $126 $54 #
cone-surface $-1 -71.762700093803602 17.656885209082404 9.2930720638263935 0.79863551827123203 0 -0.60181501223851219 0.60181501223851219 0 0.79863551827123203 1 I I 0 1 1 forward I I I I #
face $-1 $127 $128 $43 $-1 $129 forward single #
loop $-1 $130 $131 $55 #
cone-surface $-1 -71.762700093803602 22.147816782234784 9.2930720638263935 0.79863551827123203 0 -0.60181501223851219 0.60181501223851219 0 0.79863551827123203 1 I I 0 1 1 forward I I I I #
face $-1 $132 $133 $44 $-1 $134 reversed single #
loop $-1 $-1 $135 $56 #
plane-surface $-1 41.896147833433602 6.5889673108583224 214.27852894796314 0 -1 0 -0.5877852598018023 0 -0.80901698891910034 forward_v I I I I #
face $-1 $136 $137 $45 $-1 $138 forward single #
loop $-1 $139 $140 $57 #
cone-surface $-1 67.485598908357773 1.8625284909408251 6.5209599725362182 -0.5877852598018023 0 -0.80901698891910034 1.6180339778382007 0 -1.1755705196036046 1 I I 0 1 2 forward I I I I #
face $-1 $141 $142 $46 $-1 $143 reversed single #
loop $-1 $-1 $144 $58 #
plane-surface $-1 41.896147833433602 16.041844950693317 214.27852894796314 0 -1 0 -0.5877852598018023 0 -0.80901698891910034 forward_v I I I I #
face $-1 $145 $146 $47 $-1 $147 forward single #
loop $-1 $148 $149 $59 #
cone-surface $-1 67.485598908357773 11.31540613077582 6.5209599725362182 -0.5877852598018023 0 -0.80901698891910034 1.6180339778382007 0 -1.1755705196036046 1 I I 0 1 2 forward I I I I #
face $-1 $150 $151 $36 $-1 $152 reversed single #
loop $-1 $-1 $153 $60 #
plane-surface $-1 0 0 -13.135593808762108 0 0 1 1 0 0 forward_v I I I I #
coedge $-1 $154 $155 $156 $157 forward $61 $-1 #
face $-1 $158 $159 $37 $-1 $160 reversed single #
loop $-1 $-1 $161 $63 #
plane-surface $-1 0 -17.294284619030684 9.9969136816310655 0 -1 0 0 0 -1 forward_v I I I I #
coedge $-1 $162 $163 $164 $165 reversed $64 $-1 #
face $-1 $166 $167 $38 $-1 $168 reversed single #
loop $-1 $-1 $169 $66 #
plane-surface $-1 -75.145115512558363 -3.9809009342304194 7.1484595147707068 -0.79863551827123203 0 0.60181501223851219 0.60181501223851219 0 0.79863551827123203 forward_v I I I I #
coedge $-1 $170 $171 $172 $173 reversed $67 $-1 #
face $-1 $-1 $174 $39 $-1 $175 forward single #
loop $-1 $176 $177 $69 #
cone-surface $-1 -70.236781499649481 -6.2263667208066096 8.1432099597671144 0.79863551827123203 0 -0.60181501223851219 0.3009075061192561 0 0.39931775913561601 1 I I -0.70710678118654746 0.70710678118654746 0.5 forward I I I I #
loop $-1 $-1 $178 $51 #
coedge $-1 $112 $112 $179 $180 reversed $70 $-1 #
face $-1 $-1 $181 $40 $-1 $182 forward single #
loop $-1 $183 $184 $72 #
cone-surface $-1 -70.236781499649481 -1.7354351476542291 8.1432099597671144 0.79863551827123203 0 -0.60181501223851219 0.3009075061192561 0 0.39931775913561601 1 I I -0.70710678118654746 0.70710678118654746 0.5 forward I I I I #
loop $-1 $-1 $185 $52 #
coedge $-1 $117 $117 $186 $187 reversed $73 $-1 #
face $-1 $188 $189 $41 $-1 $190 reversed single #
loop $-1 $-1 $191 $75 #
plane-surface $-1 -75.145115512558363 19.902350995658594 7.1484595147707068 -0.79863551827123203 0 0.60181501223851219 0.60181501223851219 0 0.79863551827123203 forward_v I I I I #
coedge $-1 $192 $193 $194 $195 reversed $76 $-1 #
face $-1 $-1 $196 $42 $-1 $197 forward single #
loop $-1 $198 $199 $78 #
cone-surface $-1 -70.236781499649481 17.656885209082404 8.1432099597671144 0.79863551827123203 0 -0.60181501223851219 0.3009075061192561 0 0.39931775913561601 1 I I -0.70710678118654746 0.70710678118654746 0.5 forward I I I I #
loop $-1 $-1 $200 $54 #
coedge $-1 $126 $126 $201 $202 reversed $79 $-1 #
face $-1 $-1 $203 $43 $-1 $204 forward single #
loop $-1 $205 $206 $81 #
cone-surface $-1 -70.236781499649481 22.147816782234784 8.1432099597671144 0.79863551827123203 0 -0.60181501223851219 0.3009075061192561 0 0.39931775913561601 1 I I -0.70710678118654746 0.70710678118654746 0.5 forward I I I I #
loop $-1 $-1 $207 $55 #
coedge $-1 $131 $131 $208 $209 reversed $82 $-1 #
face $-1 $210 $211 $44 $-1 $212 reversed single #
loop $-1 $-1 $213 $84 #
plane-surface $-1 -46.442234655337515 1.8625284909408251 92.691178780067247 0.5877852598018023 0 0.80901698891910034 0.80901698891910034 0 -0.5877852598018023 forward_v I I I I #
coedge $-1 $214 $215 $216 $217 reversed $85 $-1 #
face $-1 $-1 $218 $45 $-1 $219 forward single #
loop $-1 $220 $221 $87 #
cone-surface $-1 65.282538783474848 1.8625284909408251 3.488707906124235 -0.5877852598018023 0 -0.80901698891910034 0.80901698891910034 0 -0.5877852598018023 1 I I -0.70710678118654746 0.70710678118654746 1 forward I I I I #
loop $-1 $-1 $222 $57 #
coedge $-1 $140 $140 $223 $224 reversed $88 $-1 #
face $-1 $225 $226 $46 $-1 $227 forward single #
loop $-1 $-1 $228 $90 #
plane-surface $-1 -46.442234655337515 1.8625284909408251 92.691178780067247 0.5877852598018023 0 0.80901698891910034 0.80901698891910034 0 -0.5877852598018023 forward_v I I I I #
coedge $-1 $229 $230 $231 $232 reversed $91 $-1 #
face $-1 $-1 $233 $47 $-1 $234 forward single #
loop $-1 $235 $236 $93 #
cone-surface $-1 65.282538783474848 11.31540613077582 3.488707906124235 -0.5877852598018023 0 -0.80901698891910034 0.80901698891910034 0 -0.5877852598018023 1 I I -0.70710678118654746 0.70710678118654746 1 forward I I I I #
loop $-1 $-1 $237 $59 #
coedge $-1 $149 $149 $238 $239 reversed $94 $-1 #
face $-1 $240 $241 $36 $-1 $242 reversed single #
loop $-1 $-1 $243 $96 #
plane-surface $-1 0 -30.472219240747336 0 0 1 0 0 0 1 forward_v I I I I #
coedge $-1 $244 $245 $246 $247 forward $97 $-1 #
coedge $-1 $248 $99 $249 $250 forward $61 $-1 #
coedge $-1 $99 $248 $251 $252 forward $61 $-1 #
coedge $-1 $253 $254 $99 $157 reversed $255 $-1 #
edge $-1 $256 -30.472219240747336 $257 30.472219240747336 $156 $258 forward 7 unknown #
face $-1 $259 $260 $37 $-1 $261 reversed single #
loop $-1 $-1 $262 $100 #
plane-surface $-1 -75.145115512558363 0 0 1 0 0 0 0 -1 forward_v I I I I #
coedge $-1 $263 $264 $265 $266 reversed $101 $-1 #
coedge $-1 $267 $103 $268 $269 reversed $64 $-1 #
coedge $-1 $103 $267 $263 $270 forward $64 $-1 #
coedge $-1 $265 $271 $103 $165 forward $272 $-1 #
edge $-1 $273 -18.530593275802829 $274 -5.3526586540861789 $164 $275 forward 7 unknown #
face $-1 $276 $277 $38 $-1 $278 forward single #
loop $-1 $-1 $279 $104 #
plane-surface $-1 -195.17223205840565 1.2585192344473555 97.595376738480155 0 -1 0 0.79863551827123203 0 -0.60181501223851219 forward_v I I I I #
coedge $-1 $280 $281 $282 $283 reversed $105 $-1 #
coedge $-1 $171 $107 $284 $285 reversed $67 $-1 #
coedge $-1 $107 $170 $280 $286 reversed $67 $-1 #
coedge $-1 $282 $287 $107 $173 forward $277 $-1 #
edge $-1 $288 22.441000516644465 $289 26.952629684117014 $172 $290 forward 7 unknown #
loop $-1 $-1 $179 $108 #
plane-surface $-1 -75.145115512558363 -3.9809009342304194 7.1484595147707068 -0.79863551827123203 0 0.60181501223851219 0.60181501223851219 0 0.79863551827123203 forward_v I I I I #
loop $-1 $-1 $291 $69 #
coedge $-1 $177 $177 $178 $292 reversed $109 $-1 #
coedge $-1 $178 $178 $177 $292 forward $111 $-1 #
coedge $-1 $179 $179 $112 $180 forward $174 $-1 #
edge $-1 $293 0 $293 6.2831853071796004 $179 $294 forward 7 unknown #
loop $-1 $-1 $186 $113 #
plane-surface $-1 -75.145115512558363 -3.9809009342304194 7.1484595147707068 -0.79863551827123203 0 0.60181501223851219 0.60181501223851219 0 0.79863551827123203 forward_v I I I I #
loop $-1 $-1 $295 $72 #
coedge $-1 $184 $184 $185 $296 reversed $114 $-1 #
coedge $-1 $185 $185 $184 $296 forward $116 $-1 #
coedge $-1 $186 $186 $117 $187 forward $181 $-1 #
edge $-1 $297 0 $297 6.2831853071796004 $186 $298 forward 7 unknown #
face $-1 $299 $300 $41 $-1 $301 forward single #
loop $-1 $-1 $302 $118 #
plane-surface $-1 -195.17223205840565 25.141771164336369 97.595376738480155 0 -1 0 0.79863551827123203 0 -0.60181501223851219 forward_v I I I I #
coedge $-1 $303 $304 $305 $306 reversed $119 $-1 #
coedge $-1 $193 $121 $307 $308 reversed $76 $-1 #
coedge $-1 $121 $192 $303 $309 reversed $76 $-1 #
coedge $-1 $305 $310 $121 $195 forward $300 $-1 #
edge $-1 $311 22.441000516644465 $312 26.952629684117014 $194 $313 forward 7 unknown #
loop $-1 $-1 $201 $122 #
plane-surface $-1 -75.145115512558363 19.902350995658594 7.1484595147707068 -0.79863551827123203 0 0.60181501223851219 0.60181501223851219 0 0.79863551827123203 forward_v I I I I #
loop $-1 $-1 $314 $78 #
coedge $-1 $199 $199 $200 $315 reversed $123 $-1 #
coedge $-1 $200 $200 $199 $315 forward $125 $-1 #
coedge $-1 $201 $201 $126 $202 forward $196 $-1 #
edge $-1 $316 0 $316 6.2831853071796004 $201 $317 forward 7 unknown #
loop $-1 $-1 $208 $127 #
plane-surface $-1 -75.145115512558363 19.902350995658594 7.1484595147707068 -0.79863551827123203 0 0.60181501223851219 0.60181501223851219 0 0.79863551827123203 forward_v I I I I #
loop $-1 $-1 $318 $81 #
coedge $-1 $206 $206 $207 $319 reversed $128 $-1 #
coedge $-1 $207 $207 $206 $319 forward $130 $-1 #
coedge $-1 $208 $208 $131 $209 forward $203 $-1 #
edge $-1 $320 0 $320 6.2831853071796004 $208 $321 forward 7 unknown #
face $-1 $322 $323 $44 $-1 $324 reversed single #
loop $-1 $-1 $325 $132 #
plane-surface $-1 41.896147833433602 -2.8639103289766723 214.27852894796314 0 1 0 0.5877852598018023 0 0.80901698891910034 forward_v I I I I #
coedge $-1 $326 $327 $328 $329 reversed $133 $-1 #
coedge $-1 $215 $135 $330 $331 reversed $85 $-1 #
coedge $-1 $135 $214 $326 $332 reversed $85 $-1 #
coedge $-1 $328 $333 $135 $217 forward $334 $-1 #
edge $-1 $335 -54.197041595841561 $336 -42.10855811760262 $216 $337 forward 7 unknown #
loop $-1 $-1 $223 $136 #
plane-surface $-1 -46.442234655337515 1.8625284909408251 92.691178780067247 0.5877852598018023 0 0.80901698891910034 0.80901698891910034 0 -0.5877852598018023 forward_v I I I I #
loop $-1 $-1 $338 $87 #
coedge $-1 $221 $221 $222 $339 reversed $137 $-1 #
coedge $-1 $222 $222 $221 $339 forward $139 $-1 #
coedge $-1 $223 $223 $140 $224 forward $218 $-1 #
edge $-1 $340 0 $340 6.2831853071796004 $223 $341 forward 7 unknown #
face $-1 $342 $343 $46 $-1 $344 forward single #
loop $-1 $-1 $345 $141 #
plane-surface $-1 0 0 13.135593808762108 0 0 1 1 0 0 forward_v I I I I #
coedge $-1 $346 $347 $348 $349 reversed $142 $-1 #
coedge $-1 $230 $144 $350 $351 reversed $91 $-1 #
coedge $-1 $144 $229 $345 $352 reversed $91 $-1 #
coedge $-1 $353 $354 $144 $232 forward $355 $-1 #
edge $-1 $356 -102.78646818268544 $357 -94.00367066521946 $231 $358 forward 7 unknown #
loop $-1 $-1 $238 $145 #
plane-surface $-1 -46.442234655337515 1.8625284909408251 92.691178780067247 0.5877852598018023 0 0.80901698891910034 0.80901698891910034 0 -0.5877852598018023 forward_v I I I I #
loop $-1 $-1 $359 $93 #
coedge $-1 $236 $236 $237 $360 reversed $146 $-1 #
coedge $-1 $237 $237 $236 $360 forward $148 $-1 #
coedge $-1 $238 $238 $149 $239 forward $233 $-1 #
edge $-1 $361 0 $361 6.2831853071796004 $238 $362 forward 7 unknown #
face $-1 $363 $364 $36 $-1 $365 reversed single #
loop $-1 $-1 $366 $150 #
plane-surface $-1 -75.145115512558363 0 0 1 0 0 0 0 -1 forward_v I I I I #
coedge $-1 $367 $251 $368 $369 forward $151 $-1 #
coedge $-1 $370 $153 $367 $371 forward $97 $-1 #
coedge $-1 $153 $370 $372 $373 forward $97 $-1 #
coedge $-1 $254 $253 $153 $247 reversed $255 $-1 #
edge $-1 $374 -30.472219240747336 $375 30.472219240747336 $246 $376 forward 7 unknown #
coedge $-1 $155 $154 $377 $378 forward $61 $-1 #
coedge $-1 $379 $380 $154 $250 reversed $364 $-1 #
edge $-1 $257 -75.145115512558363 $381 75.145115512558363 $249 $382 forward 7 unknown #
coedge $-1 $243 $383 $155 $252 reversed $151 $-1 #
edge $-1 $384 -75.145115512558363 $256 75.145115512558363 $251 $385 forward 7 unknown #
coedge $-1 $246 $156 $383 $386 forward $255 $-1 #
coedge $-1 $156 $246 $379 $387 reversed $255 $-1 #
loop $-1 $-1 $253 $363 #
vertex $-1 $157 $388 #
vertex $-1 $157 $389 #
straight-curve $-1 75.145115512558363 0 13.135593808762108 0 1 0 I I #
face $-1 $390 $391 $37 $-1 $392 forward single #
loop $-1 $-1 $268 $158 #
plane-surface $-1 0 -30.472219240747336 0 0 1 0 0 0 1 forward_v I I I I #
coedge $-1 $393 $394 $395 $396 forward $159 $-1 #
coedge $-1 $395 $161 $163 $270 reversed $101 $-1 #
coedge $-1 $161 $395 $397 $398 reversed $101 $-1 #
coedge $-1 $399 $164 $161 $266 forward $272 $-1 #
edge $-1 $274 1.8597767136844885 $400 8.1371369679465779 $265 $401 forward 7 unknown #
coedge $-1 $163 $162 $393 $402 reversed $64 $-1 #
coedge $-1 $403 $404 $162 $269 forward $260 $-1 #
edge $-1 $405 -75.145115512558363 $273 75.145115512558363 $268 $406 forward 7 unknown #
edge $-1 $407 -75.145115512558363 $274 75.145115512558363 $263 $408 forward 7 unknown #
coedge $-1 $164 $399 $403 $409 forward $272 $-1 #
loop $-1 $-1 $265 $390 #
vertex $-1 $269 $410 #
vertex $-1 $165 $411 #
straight-curve $-1 75.145115512558363 -11.941625964944505 6.8582335545000213 0 1 0 I I #
face $-1 $-1 $412 $38 $-1 $413 reversed single #
loop $-1 $-1 $172 $166 #
plane-surface $-1 0 0 13.135593808762108 0 0 1 1 0 0 forward_v I I I I #
coedge $-1 $414 $415 $416 $417 reversed $167 $-1 #
coedge $-1 $418 $169 $171 $286 forward $105 $-1 #
coedge $-1 $169 $418 $414 $419 forward $105 $-1 #
coedge $-1 $416 $172 $169 $283 forward $277 $-1 #
edge $-1 $289 -7.2298706357929845 $420 3.2489697015625651 $282 $421 forward 7 unknown #
coedge $-1 $422 $423 $170 $285 forward $412 $-1 #
edge $-1 $424 -41.649228854469371 $288 -35.662094560477968 $284 $425 forward 7 unknown #
edge $-1 $289 -7.49670426247941 $424 0 $171 $426 forward 7 unknown #
coedge $-1 $172 $416 $422 $427 forward $277 $-1 #
vertex $-1 $285 $428 #
vertex $-1 $173 $429 #
straight-curve $-1 -97.586116029202827 -9.2203211029081942 13.13559380876211 1 0 0 I I #
coedge $-1 $291 $291 $-1 $430 reversed $176 $-1 #
edge $-1 $431 0 $431 6.2831853071796004 $177 $432 forward 7 unknown #
vertex $-1 $180 $433 #
ellipse-curve $-1 -72.889300928822081 -6.2263667208066096 10.142026661766405 -0.79863551827123203 0 0.60181501223851219 0.60181501223851219 0 0.79863551827123203 1 I I #
coedge $-1 $295 $295 $-1 $434 reversed $183 $-1 #
edge $-1 $435 0 $435 6.2831853071796004 $184 $436 forward 7 unknown #
vertex $-1 $187 $437 #
ellipse-curve $-1 -72.889300928822081 -1.7354351476542291 10.142026661766405 -0.79863551827123203 0 0.60181501223851219 0.60181501223851219 0 0.79863551827123203 1 I I #
face $-1 $-1 $438 $41 $-1 $439 reversed single #
loop $-1 $-1 $194 $188 #
plane-surface $-1 0 0 13.135593808762108 0 0 1 1 0 0 forward_v I I I I #
coedge $-1 $440 $441 $442 $443 reversed $189 $-1 #
coedge $-1 $444 $191 $193 $309 forward $119 $-1 #
coedge $-1 $191 $444 $440 $445 forward $119 $-1 #
coedge $-1 $442 $194 $191 $306 forward $300 $-1 #
edge $-1 $312 4.7117553291515222 $446 15.190595666507072 $305 $447 forward 7 unknown #
coedge $-1 $448 $449 $192 $308 forward $438 $-1 #
edge $-1 $450 -41.649228854469371 $311 -35.662094560477968 $307 $451 forward 7 unknown #
edge $-1 $312 -7.49670426247941 $450 0 $193 $452 forward 7 unknown #
coedge $-1 $194 $442 $448 $453 forward $300 $-1 #
vertex $-1 $195 $454 #
vertex $-1 $195 $455 #
straight-curve $-1 -97.586116029202827 14.662930826980819 13.13559380876211 1 0 0 I I #
coedge $-1 $314 $314 $-1 $456 reversed $198 $-1 #
edge $-1 $457 0 $457 6.2831853071796004 $199 $458 forward 7 unknown #
vertex $-1 $202 $459 #
ellipse-curve $-1 -72.889300928822081 17.656885209082404 10.142026661766405 -0.79863551827123203 0 0.60181501223851219 0.60181501223851219 0 0.79863551827123203 1 I I #
coedge $-1 $318 $318 $-1 $460 reversed $205 $-1 #
edge $-1 $461 0 $461 6.2831853071796004 $206 $462 forward 7 unknown #
vertex $-1 $209 $463 #
ellipse-curve $-1 -72.889300928822081 22.147816782234784 10.142026661766405 -0.79863551827123203 0 0.60181501223851219 0.60181501223851219 0 0.79863551827123203 1 I I #
face $-1 $-1 $334 $44 $-1 $464 forward single #
loop $-1 $-1 $465 $210 #
plane-surface $-1 75.145115512558363 0 0 -1 0 0 0 0 1 forward_v I I I I #
coedge $-1 $466 $467 $468 $469 reversed $211 $-1 #
coedge $-1 $470 $213 $215 $332 forward $133 $-1 #
coedge $-1 $213 $470 $466 $471 forward $133 $-1 #
coedge $-1 $468 $216 $213 $329 forward $334 $-1 #
edge $-1 $336 -5.6577030653879099 $472 3.7951745744470848 $328 $473 forward 7 unknown #
coedge $-1 $474 $475 $214 $331 forward $323 $-1 #
edge $-1 $476 -102.78646818268544 $335 -94.00367066521946 $330 $477 forward 7 unknown #
edge $-1 $336 135.34804360036318 $476 150.29023102511673 $215 $478 forward 7 unknown #
coedge $-1 $216 $468 $474 $479 forward $334 $-1 #
loop $-1 $-1 $468 $322 #
vertex $-1 $331 $480 #
vertex $-1 $217 $481 #
straight-curve $-1 20.948073916716801 6.5889673108583224 13.13559380876211 -1 0 0 I I #
coedge $-1 $338 $338 $-1 $482 reversed $220 $-1 #
edge $-1 $483 0 $483 6.2831853071796004 $221 $484 forward 7 unknown #
vertex $-1 $224 $485 #
ellipse-curve $-1 69.100873773438906 1.8625284909408251 8.7441950500291199 0.5877852598018023 0 0.80901698891910034 1.6180339778382007 0 -1.1755705196036046 1 I I #
face $-1 $-1 $355 $46 $-1 $486 reversed single #
loop $-1 $-1 $487 $225 #
plane-surface $-1 41.896147833433602 6.5889673108583224 214.27852894796314 0 -1 0 -0.5877852598018023 0 -0.80901698891910034 forward_v I I I I #
coedge $-1 $488 $489 $230 $352 forward $226 $-1 #
coedge $-1 $350 $228 $488 $490 reversed $142 $-1 #
coedge $-1 $228 $350 $354 $491 reversed $142 $-1 #
coedge $-1 $492 $487 $228 $349 forward $343 $-1 #
edge $-1 $493 135.34804360036318 $494 150.29023102511673 $348 $495 forward 7 unknown #
coedge $-1 $347 $346 $229 $351 forward $142 $-1 #
edge $-1 $496 135.34804360036318 $356 150.29023102511673 $229 $497 forward 7 unknown #
edge $-1 $357 -54.197041595841561 $496 -42.10855811760262 $345 $498 forward 7 unknown #
coedge $-1 $499 $231 $489 $500 reversed $355 $-1 #
coedge $-1 $231 $499 $347 $491 forward $355 $-1 #
loop $-1 $-1 $231 $342 #
vertex $-1 $232 $501 #
vertex $-1 $352 $502 #
straight-curve $-1 75.145115512558363 16.041844950693317 107.13926447398157 0 0 1 I I #
coedge $-1 $359 $359 $-1 $503 reversed $235 $-1 #
edge $-1 $504 0 $504 6.2831853071796004 $236 $505 forward 7 unknown #
vertex $-1 $239 $506 #
ellipse-curve $-1 69.100873773438906 11.31540613077582 8.7441950500291199 0.5877852598018023 0 0.80901698891910034 1.6180339778382007 0 -1.1755705196036046 1 I I #
face $-1 $-1 $255 $36 $-1 $507 reversed single #
loop $-1 $-1 $379 $240 #
plane-surface $-1 0 30.472219240747336 0 0 -1 0 0 0 -1 forward_v I I I I #
coedge $-1 $508 $377 $380 $509 forward $241 $-1 #
coedge $-1 $383 $243 $244 $371 reversed $151 $-1 #
coedge $-1 $377 $508 $243 $369 reversed $241 $-1 #
edge $-1 $384 -13.135593808762108 $510 13.135593808762108 $368 $511 forward 7 unknown #
coedge $-1 $245 $244 $508 $512 forward $97 $-1 #
edge $-1 $375 -75.145115512558363 $510 75.145115512558363 $367 $513 forward 7 unknown #
coedge $-1 $380 $379 $245 $373 reversed $364 $-1 #
edge $-1 $514 -75.145115512558363 $374 75.145115512558363 $372 $515 forward 7 unknown #
vertex $-1 $247 $516 #
vertex $-1 $386 $517 #
straight-curve $-1 75.145115512558363 0 -13.135593808762108 0 -1 0 I I #
coedge $-1 $366 $368 $248 $378 reversed $241 $-1 #
edge $-1 $381 -30.472219240747336 $384 30.472219240747336 $377 $518 forward 7 unknown #
coedge $-1 $372 $249 $254 $387 forward $364 $-1 #
coedge $-1 $249 $372 $366 $509 reversed $364 $-1 #
vertex $-1 $250 $519 #
straight-curve $-1 0 30.472219240747336 13.135593808762108 -1 0 0 I I #
coedge $-1 $251 $367 $253 $386 reversed $151 $-1 #
vertex $-1 $378 $520 #
straight-curve $-1 0 -30.472219240747336 13.135593808762108 1 0 0 I I #
edge $-1 $256 -13.135593808762108 $375 13.135593808762108 $253 $521 forward 7 unknown #
edge $-1 $257 -13.135593808762108 $374 13.135593808762108 $254 $522 forward 7 unknown #
point $-1 75.145115512558363 -30.472219240747336 13.135593808762108 #
point $-1 75.145115512558363 30.472219240747336 13.135593808762108 #
face $-1 $-1 $272 $37 $-1 $523 reversed single #
loop $-1 $-1 $397 $259 #
plane-surface $-1 0 0 13.135593808762108 0 0 1 1 0 0 forward_v I I I I #
coedge $-1 $524 $262 $267 $402 forward $159 $-1 #
coedge $-1 $262 $524 $525 $526 reversed $159 $-1 #
coedge $-1 $264 $263 $262 $396 reversed $101 $-1 #
edge $-1 $527 -8.1371369679465779 $407 -1.8597767136844885 $262 $528 forward 7 unknown #
coedge $-1 $525 $529 $264 $398 forward $391 $-1 #
edge $-1 $400 -75.145115512558363 $527 75.145115512558363 $397 $530 forward 7 unknown #
coedge $-1 $271 $265 $529 $531 reversed $272 $-1 #
vertex $-1 $266 $532 #
straight-curve $-1 75.145115512558363 -17.294284619030684 4.9984568408155328 0 0 1 I I #
edge $-1 $407 5.3526586540861789 $405 18.530593275802829 $393 $533 forward 7 unknown #
coedge $-1 $534 $268 $271 $409 reversed $260 $-1 #
coedge $-1 $268 $534 $524 $535 forward $260 $-1 #
vertex $-1 $269 $536 #
straight-curve $-1 0 -30.472219240747336 6.8582335545000213 1 0 0 I I #
vertex $-1 $402 $537 #
straight-curve $-1 0 -17.294284619030684 6.8582335545000213 1 0 0 I I #
edge $-1 $538 -13.135593808762108 $273 -6.8582335545000213 $271 $539 forward 7 unknown #
point $-1 75.145115512558363 -30.472219240747336 6.8582335545000213 #
point $-1 75.145115512558363 -17.294284619030684 6.8582335545000213 #
loop $-1 $-1 $284 $276 #
plane-surface $-1 -75.145115512558363 0 0 1 0 0 0 0 -1 forward_v I I I I #
coedge $-1 $415 $279 $281 $419 reversed $167 $-1 #
coedge $-1 $279 $414 $540 $541 reversed $167 $-1 #
coedge $-1 $287 $282 $279 $417 forward $277 $-1 #
edge $-1 $420 -26.952629684117014 $542 -22.441000516644465 $416 $543 forward 7 unknown #
coedge $-1 $281 $280 $423 $544 reversed $105 $-1 #
edge $-1 $545 0 $420 7.49670426247941 $414 $546 forward 7 unknown #
vertex $-1 $283 $547 #
straight-curve $-1 -70.633486345085814 -1.9904504671152097 13.13559380876211 0 1 0 I I #
coedge $-1 $540 $284 $287 $427 reversed $412 $-1 #
coedge $-1 $284 $540 $418 $544 forward $412 $-1 #
vertex $-1 $285 $548 #
straight-curve $-1 -75.145115512558363 -9.2203211029081942 48.797688369240078 0 0 1 I I #
straight-curve $-1 -75.145115512558363 -9.2203211029081942 7.1484595147707068 -0.60181501223851219 0 -0.79863551827123203 I I #
edge $-1 $542 -1.2585192344473555 $288 9.2203211029081942 $422 $549 forward 7 unknown #
point $-1 -75.145115512558363 -9.2203211029081942 13.135593808762108 #
point $-1 -70.633486345085814 -9.2203211029081942 13.135593808762108 #
edge $-1 $550 1 $550 0 $291 $-1 forward 7 unknown #
vertex $-1 $292 $551 #
ellipse-curve $-1 -70.636099258785094 -6.2263667208066096 8.4441174658863698 -0.79863551827123203 0 0.60181501223851219 0.60181501223851219 0 0.79863551827123203 1 I I #
point $-1 -72.287485916583577 -6.2263667208066096 10.940662180037648 #
edge $-1 $552 1 $552 0 $295 $-1 forward 7 unknown #
vertex $-1 $296 $553 #
ellipse-curve $-1 -70.636099258785094 -1.7354351476542291 8.4441174658863698 -0.79863551827123203 0 0.60181501223851219 0.60181501223851219 0 0.79863551827123203 1 I I #
point $-1 -72.287485916583577 -1.7354351476542291 10.940662180037648 #
loop $-1 $-1 $307 $299 #
plane-surface $-1 -75.145115512558363 0 0 1 0 0 0 0 -1 forward_v I I I I #
coedge $-1 $441 $302 $304 $445 reversed $189 $-1 #
coedge $-1 $302 $440 $554 $555 reversed $189 $-1 #
coedge $-1 $310 $305 $302 $443 forward $300 $-1 #
edge $-1 $446 -26.952629684117014 $556 -22.441000516644465 $442 $557 forward 7 unknown #
coedge $-1 $304 $303 $449 $558 reversed $119 $-1 #
edge $-1 $559 0 $446 7.49670426247941 $440 $560 forward 7 unknown #
vertex $-1 $306 $561 #
straight-curve $-1 -70.633486345085814 9.951175497829297 13.13559380876211 0 1 0 I I #
coedge $-1 $554 $307 $310 $453 reversed $438 $-1 #
coedge $-1 $307 $554 $444 $558 forward $438 $-1 #
vertex $-1 $308 $562 #
straight-curve $-1 -75.145115512558363 14.662930826980819 48.797688369240078 0 0 1 I I #
straight-curve $-1 -75.145115512558363 14.662930826980819 7.1484595147707068 -0.60181501223851219 0 -0.79863551827123203 I I #
edge $-1 $556 -25.141771164336369 $311 -14.662930826980819 $448 $563 forward 7 unknown #
point $-1 -75.145115512558363 14.662930826980819 13.135593808762108 #
point $-1 -70.633486345085814 14.662930826980819 13.135593808762108 #
edge $-1 $564 1 $564 0 $314 $-1 forward 7 unknown #
vertex $-1 $315 $565 #
ellipse-curve $-1 -70.636099258785094 17.656885209082404 8.4441174658863698 -0.79863551827123203 0 0.60181501223851219 0.60181501223851219 0 0.79863551827123203 1 I I #
point $-1 -72.287485916583577 17.656885209082404 10.940662180037648 #
edge $-1 $566 1 $566 0 $318 $-1 forward 7 unknown #
vertex $-1 $319 $567 #
ellipse-curve $-1 -70.636099258785094 22.147816782234784 8.4441174658863698 -0.79863551827123203 0 0.60181501223851219 0.60181501223851219 0 0.79863551827123203 1 I I #
point $-1 -72.287485916583577 22.147816782234784 10.940662180037648 #
plane-surface $-1 0 0 13.135593808762108 0 0 1 1 0 0 forward_v I I I I #
coedge $-1 $475 $474 $467 $568 forward $323 $-1 #
coedge $-1 $467 $325 $327 $471 reversed $211 $-1 #
coedge $-1 $325 $466 $465 $568 reversed $211 $-1 #
coedge $-1 $333 $328 $325 $469 forward $334 $-1 #
edge $-1 $472 42.10855811760262 $569 54.197041595841561 $468 $570 forward 7 unknown #
coedge $-1 $327 $326 $475 $571 reversed $133 $-1 #
edge $-1 $572 -150.29023102511673 $472 -135.34804360036318 $466 $573 forward 7 unknown #
vertex $-1 $329 $574 #
straight-curve $-1 63.056632034319414 0.93126424547041253 13.13559380876211 0 -1 0 I I #
coedge $-1 $465 $330 $333 $479 reversed $323 $-1 #
coedge $-1 $330 $465 $470 $571 forward $323 $-1 #
vertex $-1 $331 $575 #
straight-curve $-1 75.145115512558363 6.5889673108583224 107.13926447398157 0 0 1 I I #
straight-curve $-1 -46.442234655337515 6.5889673108583224 92.691178780067247 0.80901698891910034 0 -0.5877852598018023 I I #
edge $-1 $569 -2.8639103289766723 $335 6.5889673108583224 $474 $576 forward 7 unknown #
point $-1 75.145115512558363 6.5889673108583224 13.135593808762108 #
point $-1 63.056632034319421 6.5889673108583224 13.13559380876211 #
edge $-1 $577 1 $577 0 $338 $-1 forward 7 unknown #
vertex $-1 $339 $578 #
ellipse-curve $-1 65.870324043276653 1.8625284909408251 4.2977248950433351 0.5877852598018023 0 0.80901698891910034 1.6180339778382007 0 -1.1755705196036046 1 I I #
point $-1 70.718907751277101 1.8625284909408251 7.5686245304254971 #
plane-surface $-1 75.145115512558363 0 0 -1 0 0 0 0 1 forward_v I I I I #
coedge $-1 $348 $492 $579 $580 reversed $343 $-1 #
coedge $-1 $579 $345 $346 $490 forward $226 $-1 #
coedge $-1 $345 $579 $353 $500 forward $226 $-1 #
edge $-1 $496 -15.110580705222905 $493 -5.6577030653879099 $488 $581 forward 7 unknown #
edge $-1 $494 5.6577030653879099 $356 15.110580705222905 $354 $582 forward 7 unknown #
coedge $-1 $487 $348 $499 $583 reversed $343 $-1 #
vertex $-1 $490 $584 #
vertex $-1 $491 $585 #
straight-curve $-1 -46.442234655337515 6.5889673108583224 92.691178780067247 0.80901698891910034 0 -0.5877852598018023 I I #
vertex $-1 $352 $586 #
straight-curve $-1 -46.442234655337515 16.041844950693317 92.691178780067247 0.80901698891910034 0 -0.5877852598018023 I I #
straight-curve $-1 20.948073916716801 16.041844950693317 13.13559380876211 -1 0 0 I I #
coedge $-1 $354 $353 $492 $583 forward $355 $-1 #
edge $-1 $587 6.5889673108583224 $357 16.041844950693317 $353 $588 forward 7 unknown #
point $-1 75.145115512558377 16.041844950693317 4.35279629129613 #
point $-1 75.145115512558363 16.041844950693317 13.135593808762108 #
edge $-1 $589 1 $589 0 $359 $-1 forward 7 unknown #
vertex $-1 $360 $590 #
ellipse-curve $-1 65.870324043276653 11.31540613077582 4.2977248950433351 0.5877852598018023 0 0.80901698891910034 1.6180339778382007 0 -1.1755705196036046 1 I I #
point $-1 70.718907751277101 11.31540613077582 7.5686245304254971 #
plane-surface $-1 75.145115512558363 0 0 -1 0 0 0 0 1 forward_v I I I I #
coedge $-1 $368 $366 $370 $512 reversed $241 $-1 #
edge $-1 $381 -13.135593808762108 $514 13.135593808762108 $380 $591 forward 7 unknown #
vertex $-1 $512 $592 #
straight-curve $-1 -75.145115512558363 -30.472219240747336 0 0 0 -1 I I #
edge $-1 $510 -30.472219240747336 $514 30.472219240747336 $508 $593 forward 7 unknown #
straight-curve $-1 0 -30.472219240747336 -13.135593808762108 -1 0 0 I I #
vertex $-1 $373 $594 #
straight-curve $-1 0 30.472219240747336 -13.135593808762108 1 0 0 I I #
point $-1 75.145115512558363 30.472219240747336 -13.135593808762108 #
point $-1 75.145115512558363 -30.472219240747336 -13.135593808762108 #
straight-curve $-1 -75.145115512558363 0 13.135593808762108 0 -1 0 I I #
point $-1 -75.145115512558363 30.472219240747336 13.135593808762108 #
point $-1 -75.145115512558363 -30.472219240747336 13.135593808762108 #
straight-curve $-1 75.145115512558363 -30.472219240747336 0 0 0 -1 I I #
straight-curve $-1 75.145115512558363 30.472219240747336 0 0 0 -1 I I #
plane-surface $-1 75.145115512558363 0 0 -1 0 0 0 0 1 forward_v I I I I #
coedge $-1 $394 $393 $404 $535 reversed $159 $-1 #
coedge $-1 $595 $397 $394 $526 forward $391 $-1 #
edge $-1 $527 17.294284619030684 $596 30.472219240747336 $394 $597 forward 7 unknown #
vertex $-1 $526 $598 #
straight-curve $-1 -75.145115512558363 -17.294284619030684 4.9984568408155328 0 0 -1 I I #
coedge $-1 $397 $595 $399 $531 forward $391 $-1 #
straight-curve $-1 0 -17.294284619030684 13.135593808762108 -1 0 0 I I #
edge $-1 $538 -30.472219240747336 $400 -17.294284619030684 $399 $599 forward 7 unknown #
point $-1 75.145115512558363 -17.294284619030684 13.13559380876211 #
straight-curve $-1 -75.145115512558363 -11.941625964944505 6.8582335545000213 0 -1 0 I I #
coedge $-1 $404 $403 $595 $600 reversed $260 $-1 #
edge $-1 $596 -13.135593808762108 $405 -6.8582335545000213 $524 $601 forward 7 unknown #
point $-1 -75.145115512558363 -30.472219240747336 6.8582335545000213 #
point $-1 -75.145115512558363 -17.294284619030684 6.8582335545000213 #
vertex $-1 $531 $602 #
straight-curve $-1 75.145115512558363 -30.472219240747336 0 0 0 -1 I I #
coedge $-1 $423 $422 $415 $541 forward $412 $-1 #
edge $-1 $542 35.662094560477968 $545 41.649228854469371 $540 $603 forward 7 unknown #
vertex $-1 $427 $604 #
straight-curve $-1 -97.586116029202827 1.2585192344473555 13.13559380876211 -1 0 0 I I #
edge $-1 $545 -3.2489697015625651 $424 7.2298706357929845 $423 $605 forward 7 unknown #
vertex $-1 $544 $606 #
straight-curve $-1 -75.145115512558363 1.2585192344473555 7.1484595147707068 0.60181501223851219 0 0.79863551827123203 I I #
point $-1 -70.633486345085814 1.2585192344473555 13.135593808762108 #
point $-1 -75.145115512558363 -9.2203211029081942 7.1484595147707068 #
straight-curve $-1 -75.145115512558363 0 13.135593808762108 0 -1 0 I I #
vertex $-1 $430 $607 #
point $-1 -70.034284246546591 -6.2263667208066096 9.2427529841576028 #
vertex $-1 $434 $608 #
point $-1 -70.034284246546591 -1.7354351476542291 9.2427529841576028 #
coedge $-1 $449 $448 $441 $555 forward $438 $-1 #
edge $-1 $556 35.662094560477968 $559 41.649228854469371 $554 $609 forward 7 unknown #
vertex $-1 $453 $610 #
straight-curve $-1 -97.586116029202827 25.141771164336369 13.13559380876211 -1 0 0 I I #
edge $-1 $559 -15.190595666507072 $450 -4.7117553291515222 $449 $611 forward 7 unknown #
vertex $-1 $558 $612 #
straight-curve $-1 -75.145115512558363 25.141771164336369 7.1484595147707068 0.60181501223851219 0 0.79863551827123203 I I #
point $-1 -70.633486345085814 25.141771164336369 13.135593808762108 #
point $-1 -75.145115512558363 14.662930826980819 7.1484595147707068 #
straight-curve $-1 -75.145115512558363 0 13.135593808762108 0 -1 0 I I #
vertex $-1 $456 $613 #
point $-1 -70.034284246546591 17.656885209082404 9.2427529841576028 #
vertex $-1 $460 $614 #
point $-1 -70.034284246546591 22.147816782234784 9.2427529841576028 #
edge $-1 $569 94.00367066521946 $572 102.78646818268544 $465 $615 forward 7 unknown #
vertex $-1 $479 $616 #
straight-curve $-1 20.948073916716801 -2.8639103289766723 13.13559380876211 1 0 0 I I #
edge $-1 $572 -3.7951745744470848 $476 5.6577030653879099 $475 $617 forward 7 unknown #
vertex $-1 $571 $618 #
straight-curve $-1 -46.442234655337515 -2.8639103289766723 92.691178780067247 -0.80901698891910034 0 0.5877852598018023 I I #
point $-1 63.056632034319421 -2.8639103289766723 13.13559380876211 #
point $-1 75.145115512558377 6.5889673108583224 4.35279629129613 #
straight-curve $-1 75.145115512558363 0 13.135593808762108 0 1 0 I I #
vertex $-1 $482 $619 #
point $-1 67.488358021114848 1.8625284909408251 3.122154375439731 #
coedge $-1 $489 $488 $487 $580 forward $226 $-1 #
edge $-1 $493 42.10855811760262 $587 54.197041595841561 $579 $620 forward 7 unknown #
straight-curve $-1 63.056632034319414 0.93126424547041253 13.13559380876211 0 -1 0 I I #
straight-curve $-1 75.145115512558363 0.93126424547041253 4.35279629129613 0 1 0 I I #
edge $-1 $587 94.00367066521946 $494 102.78646818268544 $499 $621 forward 7 unknown #
point $-1 63.056632034319421 6.5889673108583224 13.13559380876211 #
point $-1 75.145115512558377 6.5889673108583224 4.35279629129613 #
point $-1 63.056632034319421 16.041844950693317 13.13559380876211 #
vertex $-1 $500 $622 #
straight-curve $-1 75.145115512558363 0 13.135593808762108 0 1 0 I I #
vertex $-1 $503 $623 #
point $-1 67.488358021114848 11.31540613077582 3.122154375439731 #
straight-curve $-1 -75.145115512558363 30.472219240747336 0 0 0 -1 I I #
point $-1 -75.145115512558363 -30.472219240747336 -13.135593808762108 #
straight-curve $-1 -75.145115512558363 0 -13.135593808762108 0 1 0 I I #
point $-1 -75.145115512558363 30.472219240747336 -13.135593808762108 #
coedge $-1 $529 $525 $534 $600 forward $391 $-1 #
vertex $-1 $526 $624 #
straight-curve $-1 -75.145115512558363 0 13.135593808762108 0 -1 0 I I #
point $-1 -75.145115512558363 -17.294284619030684 13.13559380876211 #
straight-curve $-1 75.145115512558363 0 13.135593808762108 0 1 0 I I #
edge $-1 $596 -75.145115512558363 $538 75.145115512558363 $534 $625 forward 7 unknown #
straight-curve $-1 -75.145115512558363 -30.472219240747336 0 0 0 -1 I I #
point $-1 75.145115512558363 -30.472219240747336 13.135593808762108 #
straight-curve $-1 -75.145115512558363 1.2585192344473555 48.797688369240078 0 0 -1 I I #
point $-1 -75.145115512558363 1.2585192344473555 13.135593808762108 #
straight-curve $-1 -75.145115512558363 -1.9904504671152097 7.1484595147707148 0 -1 0 I I #
point $-1 -75.145115512558363 1.2585192344473555 7.1484595147707068 #
point $-1 -69.837463740513869 -6.2263667208066096 7.8423024536478581 #
point $-1 -69.837463740513869 -1.7354351476542291 7.8423024536478581 #
straight-curve $-1 -75.145115512558363 25.141771164336369 48.797688369240078 0 0 -1 I I #
point $-1 -75.145115512558363 25.141771164336369 13.135593808762108 #
straight-curve $-1 -75.145115512558363 9.951175497829297 7.1484595147707148 0 -1 0 I I #
point $-1 -75.145115512558363 25.141771164336369 7.1484595147707068 #
point $-1 -69.837463740513869 17.656885209082404 7.8423024536478581 #
point $-1 -69.837463740513869 22.147816782234784 7.8423024536478581 #
straight-curve $-1 75.145115512558363 -2.8639103289766723 107.13926447398157 0 0 -1 I I #
point $-1 75.145115512558363 -2.8639103289766723 13.135593808762108 #
straight-curve $-1 75.145115512558363 0.93126424547041253 4.35279629129613 0 1 0 I I #
point $-1 75.145115512558377 -2.8639103289766723 4.35279629129613 #
point $-1 64.694753523673043 1.8625284909408251 2.6796909172051349 #
straight-curve $-1 20.948073916716801 6.5889673108583224 13.13559380876211 1 0 0 I I #
straight-curve $-1 75.145115512558363 6.5889673108583224 107.13926447398157 0 0 -1 I I #
point $-1 75.145115512558363 6.5889673108583224 13.135593808762108 #
point $-1 64.694753523673043 11.31540613077582 2.6796909172051349 #
point $-1 -75.145115512558363 -30.472219240747336 13.135593808762108 #
straight-curve $-1 0 -30.472219240747336 13.135593808762108 1 0 0 I I #
End-of-ACIS-data 