500 0 5 0           
7 Unknown 11 ACIS 5.0 NT 24 Thu Mar 25 23:23:02 1999 
-1 9.9999999999999995e-007 1e-010 
body $-1 $5 $-1 $6 #
body $-1 $7 $-1 $8 #
body $-1 $9 $-1 $10 #
body $-1 $11 $-1 $12 #
body $-1 $13 $-1 $14 #
lump $-1 $-1 $15 $0 #
transform $-1 1 0 0 0 1 0 0 0 1 40.683614612262339 17.128289701850726 8.2283954544136666 1 rotate no_reflect no_shear #
lump $-1 $-1 $16 $1 #
transform $-1 1 0 0 0 1 0 0 0 1 40.683614612262339 17.128289701850726 8.2283954544136666 1 rotate no_reflect no_shear #
lump $-1 $-1 $17 $2 #
transform $-1 1 0 0 0 1 0 0 0 1 40.683614612262339 17.128289701850726 8.2283954544136666 1 rotate no_reflect no_shear #
lump $-1 $-1 $18 $3 #
transform $-1 1 0 0 0 1 0 0 0 1 40.683614612262339 17.128289701850726 8.2283954544136666 1 rotate no_reflect no_shear #
lump $-1 $-1 $19 $4 #
transform $-1 1 0 0 0 1 0 0 0 1 40.683614612262339 17.128289701850726 8.2283954544136666 1 rotate no_reflect no_shear #
shell $-1 $-1 $-1 $20 $-1 $5 #
shell $-1 $-1 $-1 $21 $-1 $7 #
shell $-1 $-1 $-1 $22 $-1 $9 #
shell $-1 $-1 $-1 $23 $-1 $11 #
shell $-1 $-1 $-1 $24 $-1 $13 #
face $-1 $25 $26 $15 $-1 $27 forward single #
face $-1 $28 $29 $16 $-1 $30 reversed single #
face $-1 $31 $32 $17 $-1 $33 reversed single #
face $-1 $34 $35 $18 $-1 $36 forward single #
face $-1 $37 $38 $19 $-1 $39 forward single #
face $-1 $40 $41 $15 $-1 $42 reversed single #
loop $-1 $-1 $43 $20 #
plane-surface $-1 0 0 8.2283954544136666 0 0 1 1 0 0 forward_v I I I I #
face $-1 $44 $45 $16 $-1 $46 reversed single #
loop $-1 $-1 $47 $21 #
plane-surface $-1 -36.495743779235141 -12.784896243229866 0 0 -1 0 0 0 -1 forward_v I I I I #
face $-1 $48 $49 $17 $-1 $50 reversed single #
loop $-1 $-1 $51 $22 #
plane-surface $-1 24.668878026050713 8.4651500530541881 115.94547472080073 0 1 0 0.6018150307709319 0 0.79863550430605224 forward_v I I I I #
face $-1 $52 $53 $18 $-1 $54 forward single #
loop $-1 $55 $56 $23 #
cone-surface $-1 36.056221135912025 10.940332809853199 4.4597093047284746 -0.6018150307709319 0 -0.79863550430605224 0.79863550430605224 0 -0.6018150307709319 1 I I 0 1 1 forward I I I I #
face $-1 $57 $58 $19 $-1 $59 forward single #
loop $-1 $60 $61 $24 #
cone-surface $-1 36.056221135912025 14.653106945051718 4.4597093047284746 -0.6018150307709319 0 -0.79863550430605224 0.79863550430605224 0 -0.6018150307709319 1 I I 0 1 1 forward I I I I #
face $-1 $62 $63 $15 $-1 $64 reversed single #
loop $-1 $-1 $65 $25 #
plane-surface $-1 0 0 -8.2283954544136666 0 0 1 1 0 0 forward_v I I I I #
coedge $-1 $66 $67 $68 $69 forward $26 $-1 #
face $-1 $70 $71 $16 $-1 $72 forward single #
loop $-1 $-1 $73 $28 #
plane-surface $-1 -32.307872946207944 -14.956592972540296 0 -1 0 0 0 0 1 forward_v I I I I #
coedge $-1 $74 $75 $76 $77 forward $29 $-1 #
face $-1 $78 $79 $17 $-1 $80 reversed single #
loop $-1 $-1 $81 $31 #
plane-surface $-1 -24.299143533452067 12.796719877452457 50.962716575086318 0.6018150307709319 0 0.79863550430605224 0.79863550430605224 0 -0.6018150307709319 forward_v I I I I #
coedge $-1 $82 $83 $84 $85 reversed $32 $-1 #
face $-1 $-1 $86 $18 $-1 $87 forward single #
loop $-1 $88 $89 $34 #
cone-surface $-1 35.264120005519452 10.940332809853199 3.408555622305327 -0.6018150307709319 0 -0.79863550430605224 0.39931775215302612 0 -0.30090751538546595 1 I I -0.70710678118654746 0.70710678118654746 0.5 forward I I I I #
loop $-1 $-1 $90 $23 #
coedge $-1 $56 $56 $91 $92 reversed $35 $-1 #
face $-1 $-1 $93 $19 $-1 $94 forward single #
loop $-1 $95 $96 $37 #
cone-surface $-1 35.264120005519452 14.653106945051718 3.408555622305327 -0.6018150307709319 0 -0.79863550430605224 0.39931775215302612 0 -0.30090751538546595 1 I I -0.70710678118654746 0.70710678118654746 0.5 forward I I I I #
loop $-1 $-1 $97 $24 #
coedge $-1 $61 $61 $98 $99 reversed $38 $-1 #
face $-1 $100 $101 $15 $-1 $102 reversed single #
loop $-1 $-1 $103 $40 #
plane-surface $-1 0 -17.128289701850726 0 0 1 0 0 0 1 forward_v I I I I #
coedge $-1 $104 $105 $106 $107 forward $41 $-1 #
coedge $-1 $108 $43 $109 $110 forward $26 $-1 #
coedge $-1 $43 $108 $111 $112 forward $26 $-1 #
coedge $-1 $113 $114 $43 $69 reversed $115 $-1 #
edge $-1 $116 -17.128289701850726 $117 17.128289701850726 $68 $118 forward 7 unknown #
face $-1 $119 $120 $16 $-1 $121 reversed single #
loop $-1 $-1 $122 $44 #
plane-surface $-1 0 0 8.2283954544136666 0 0 1 1 0 0 forward_v I I I I #
coedge $-1 $123 $124 $125 $126 reversed $45 $-1 #
coedge $-1 $127 $47 $128 $129 reversed $29 $-1 #
coedge $-1 $47 $127 $130 $131 reversed $29 $-1 #
coedge $-1 $124 $123 $47 $77 reversed $45 $-1 #
edge $-1 $132 -8.2283954544136666 $133 8.2283954544136666 $76 $134 forward 7 unknown #
face $-1 $135 $136 $17 $-1 $137 reversed single #
loop $-1 $-1 $84 $48 #
plane-surface $-1 40.683614612262339 0 0 -1 0 0 0 0 1 forward_v I I I I #
coedge $-1 $138 $139 $140 $141 reversed $49 $-1 #
coedge $-1 $83 $51 $142 $143 reversed $32 $-1 #
coedge $-1 $51 $82 $138 $144 reversed $32 $-1 #
coedge $-1 $140 $145 $51 $85 forward $79 $-1 #
edge $-1 $146 49.744341905986701 $147 55.978042344816821 $84 $148 forward 7 unknown #
loop $-1 $-1 $91 $52 #
plane-surface $-1 -24.299143533452067 12.796719877452457 50.962716575086318 0.6018150307709319 0 0.79863550430605224 0.79863550430605224 0 -0.6018150307709319 forward_v I I I I #
loop $-1 $-1 $149 $34 #
coedge $-1 $89 $89 $90 $150 reversed $53 $-1 #
coedge $-1 $90 $90 $89 $150 forward $55 $-1 #
coedge $-1 $91 $91 $56 $92 forward $86 $-1 #
edge $-1 $151 0 $151 6.2831853071796004 $91 $152 forward 7 unknown #
loop $-1 $-1 $98 $57 #
plane-surface $-1 -24.299143533452067 12.796719877452457 50.962716575086318 0.6018150307709319 0 0.79863550430605224 0.79863550430605224 0 -0.6018150307709319 forward_v I I I I #
loop $-1 $-1 $153 $37 #
coedge $-1 $96 $96 $97 $154 reversed $58 $-1 #
coedge $-1 $97 $97 $96 $154 forward $60 $-1 #
coedge $-1 $98 $98 $61 $99 forward $93 $-1 #
edge $-1 $155 0 $155 6.2831853071796004 $98 $156 forward 7 unknown #
face $-1 $157 $158 $15 $-1 $159 reversed single #
loop $-1 $-1 $160 $62 #
plane-surface $-1 -40.683614612262339 0 0 1 0 0 0 0 -1 forward_v I I I I #
coedge $-1 $161 $111 $162 $163 forward $63 $-1 #
coedge $-1 $164 $65 $161 $165 forward $41 $-1 #
coedge $-1 $65 $164 $166 $167 forward $41 $-1 #
coedge $-1 $114 $113 $65 $107 reversed $115 $-1 #
edge $-1 $168 -17.128289701850726 $169 17.128289701850726 $106 $170 forward 7 unknown #
coedge $-1 $67 $66 $171 $172 forward $26 $-1 #
coedge $-1 $173 $174 $66 $110 reversed $158 $-1 #
edge $-1 $117 -40.683614612262339 $175 40.683614612262339 $109 $176 forward 7 unknown #
coedge $-1 $103 $177 $67 $112 reversed $63 $-1 #
edge $-1 $178 -40.683614612262339 $116 40.683614612262339 $111 $179 forward 7 unknown #
coedge $-1 $106 $68 $177 $180 forward $115 $-1 #
coedge $-1 $68 $106 $173 $181 reversed $115 $-1 #
loop $-1 $-1 $113 $157 #
vertex $-1 $69 $182 #
vertex $-1 $69 $183 #
straight-curve $-1 40.683614612262339 0 8.2283954544136666 0 1 0 I I #
face $-1 $184 $185 $16 $-1 $186 reversed single #
loop $-1 $-1 $187 $70 #
plane-surface $-1 -40.683614612262339 0 0 1 0 0 0 0 -1 forward_v I I I I #
coedge $-1 $130 $188 $124 $189 forward $71 $-1 #
coedge $-1 $76 $73 $190 $191 reversed $45 $-1 #
coedge $-1 $73 $76 $122 $189 reversed $45 $-1 #
coedge $-1 $192 $193 $73 $126 forward $194 $-1 #
edge $-1 $195 -8.2283954544136666 $196 8.2283954544136666 $125 $197 forward 7 unknown #
coedge $-1 $75 $74 $187 $198 reversed $29 $-1 #
coedge $-1 $190 $199 $74 $129 forward $185 $-1 #
edge $-1 $200 -22.435742722644768 $133 -14.060001056590373 $128 $201 forward 7 unknown #
coedge $-1 $202 $122 $75 $131 forward $71 $-1 #
edge $-1 $132 14.060001056590373 $203 22.435742722644768 $130 $204 forward 7 unknown #
vertex $-1 $131 $205 #
vertex $-1 $129 $206 #
straight-curve $-1 -32.307872946207944 -12.784896243229866 0 0 0 -1 I I #
face $-1 $-1 $207 $17 $-1 $208 forward single #
loop $-1 $-1 $209 $78 #
plane-surface $-1 0 17.128289701850726 0 0 -1 0 0 0 -1 forward_v I I I I #
coedge $-1 $210 $81 $83 $144 forward $49 $-1 #
coedge $-1 $81 $210 $209 $211 reversed $49 $-1 #
coedge $-1 $212 $84 $81 $141 forward $79 $-1 #
edge $-1 $147 2.0667901143279597 $213 10.729929763124497 $140 $214 forward 7 unknown #
coedge $-1 $215 $216 $82 $143 forward $207 $-1 #
edge $-1 $217 20.076775876550595 $146 28.349175599236982 $142 $218 forward 7 unknown #
edge $-1 $147 -81.367229224524664 $217 -71.009062478764463 $83 $219 forward 7 unknown #
coedge $-1 $84 $212 $215 $220 reversed $79 $-1 #
vertex $-1 $220 $221 #
vertex $-1 $85 $222 #
straight-curve $-1 40.683614612262339 8.4651500530541881 57.972737360400366 0 0 -1 I I #
coedge $-1 $149 $149 $-1 $223 reversed $88 $-1 #
edge $-1 $224 0 $224 6.2831853071796004 $89 $225 forward 7 unknown #
vertex $-1 $92 $226 #
ellipse-curve $-1 36.547414750919138 10.940332809853199 5.1115452349986059 0.6018150307709319 0 0.79863550430605224 0.79863550430605224 0 -0.6018150307709319 1 I I #
coedge $-1 $153 $153 $-1 $227 reversed $95 $-1 #
edge $-1 $228 0 $228 6.2831853071796004 $96 $229 forward 7 unknown #
vertex $-1 $99 $230 #
ellipse-curve $-1 36.547414750919138 14.653106945051718 5.1115452349986059 0.6018150307709319 0 0.79863550430605224 0.79863550430605224 0 -0.6018150307709319 1 I I #
face $-1 $-1 $115 $15 $-1 $231 reversed single #
loop $-1 $-1 $173 $100 #
plane-surface $-1 0 17.128289701850726 0 0 -1 0 0 0 -1 forward_v I I I I #
coedge $-1 $232 $171 $174 $233 forward $101 $-1 #
coedge $-1 $177 $103 $104 $165 reversed $63 $-1 #
coedge $-1 $171 $232 $103 $163 reversed $101 $-1 #
edge $-1 $178 -8.2283954544136666 $234 8.2283954544136666 $162 $235 forward 7 unknown #
coedge $-1 $105 $104 $232 $236 forward $41 $-1 #
edge $-1 $169 -40.683614612262339 $234 40.683614612262339 $161 $237 forward 7 unknown #
coedge $-1 $174 $173 $105 $167 reversed $158 $-1 #
edge $-1 $238 -40.683614612262339 $168 40.683614612262339 $166 $239 forward 7 unknown #
vertex $-1 $107 $240 #
vertex $-1 $180 $241 #
straight-curve $-1 40.683614612262339 0 -8.2283954544136666 0 -1 0 I I #
coedge $-1 $160 $162 $108 $172 reversed $101 $-1 #
edge $-1 $175 -17.128289701850726 $178 17.128289701850726 $171 $242 forward 7 unknown #
coedge $-1 $166 $109 $114 $181 forward $158 $-1 #
coedge $-1 $109 $166 $160 $233 reversed $158 $-1 #
vertex $-1 $110 $243 #
straight-curve $-1 0 17.128289701850726 8.2283954544136666 -1 0 0 I I #
coedge $-1 $111 $161 $113 $180 reversed $63 $-1 #
vertex $-1 $172 $244 #
straight-curve $-1 0 -17.128289701850726 8.2283954544136666 1 0 0 I I #
edge $-1 $116 -8.2283954544136666 $169 8.2283954544136666 $113 $245 forward 7 unknown #
edge $-1 $117 -8.2283954544136666 $168 8.2283954544136666 $114 $246 forward 7 unknown #
point $-1 40.683614612262339 -17.128289701850726 8.2283954544136666 #
point $-1 40.683614612262339 17.128289701850726 8.2283954544136666 #
face $-1 $-1 $194 $16 $-1 $247 reversed single #
loop $-1 $-1 $190 $119 #
plane-surface $-1 0 0 -8.2283954544136666 0 0 1 1 0 0 forward_v I I I I #
coedge $-1 $248 $249 $127 $198 forward $120 $-1 #
coedge $-1 $122 $202 $192 $250 forward $71 $-1 #
edge $-1 $196 -9.6499932155805777 $132 -5.3065997569597183 $122 $251 forward 7 unknown #
coedge $-1 $252 $128 $123 $191 forward $185 $-1 #
edge $-1 $133 5.3065997569597183 $195 9.6499932155805777 $190 $253 forward 7 unknown #
coedge $-1 $254 $125 $188 $250 reversed $194 $-1 #
coedge $-1 $125 $254 $252 $255 reversed $194 $-1 #
loop $-1 $-1 $125 $184 #
vertex $-1 $255 $256 #
vertex $-1 $126 $257 #
straight-curve $-1 -32.307872946207944 -17.128289701850726 0 0 0 1 I I #
edge $-1 $203 -8.2283954544136666 $200 8.2283954544136666 $187 $258 forward 7 unknown #
coedge $-1 $128 $252 $248 $259 forward $185 $-1 #
vertex $-1 $129 $260 #
straight-curve $-1 -18.247871889617571 -12.784896243229866 -8.2283954544136666 1 0 0 I I #
coedge $-1 $188 $130 $249 $261 forward $71 $-1 #
vertex $-1 $261 $262 #
straight-curve $-1 -18.247871889617571 -12.784896243229866 8.2283954544136666 -1 0 0 I I #
point $-1 -32.307872946207944 -12.784896243229866 8.2283954544136666 #
point $-1 -32.307872946207944 -12.784896243229866 -8.2283954544136666 #
loop $-1 $-1 $142 $135 #
plane-surface $-1 0 0 8.2283954544136666 0 0 1 1 0 0 forward_v I I I I #
coedge $-1 $263 $264 $139 $211 forward $136 $-1 #
coedge $-1 $139 $138 $216 $265 reversed $49 $-1 #
edge $-1 $213 -56.329085427599921 $266 -45.970918681839713 $209 $267 forward 7 unknown #
coedge $-1 $145 $140 $264 $268 reversed $79 $-1 #
vertex $-1 $211 $269 #
straight-curve $-1 40.683614612262339 6.3983599387262284 1.9946950155835417 0 1 0 I I #
coedge $-1 $270 $142 $145 $220 forward $207 $-1 #
coedge $-1 $142 $270 $210 $265 forward $207 $-1 #
vertex $-1 $143 $271 #
straight-curve $-1 12.334439013025357 8.4651500530541881 8.2283954544136648 1 0 0 I I #
straight-curve $-1 -24.299143533452067 8.4651500530541881 50.962716575086318 -0.79863550430605224 0 0.6018150307709319 I I #
edge $-1 $146 8.4651500530541881 $272 17.128289701850726 $145 $273 forward 7 unknown #
point $-1 40.683614612262339 8.4651500530541881 8.2283954544136666 #
point $-1 40.683614612262332 8.4651500530541881 1.9946950155835452 #
edge $-1 $274 1 $274 0 $149 $-1 forward 7 unknown #
vertex $-1 $150 $275 #
ellipse-curve $-1 35.56502752090492 10.940332809853199 3.8078733744583531 0.6018150307709319 0 0.79863550430605224 0.79863550430605224 0 -0.6018150307709319 1 I I #
point $-1 37.34605025522518 10.940332809853199 4.5097302042276635 #
edge $-1 $276 1 $276 0 $153 $-1 forward 7 unknown #
vertex $-1 $154 $277 #
ellipse-curve $-1 35.56502752090492 14.653106945051718 3.8078733744583531 0.6018150307709319 0 0.79863550430605224 0.79863550430605224 0 -0.6018150307709319 1 I I #
point $-1 37.34605025522518 14.653106945051718 4.5097302042276635 #
plane-surface $-1 40.683614612262339 0 0 -1 0 0 0 0 1 forward_v I I I I #
coedge $-1 $162 $160 $164 $236 reversed $101 $-1 #
edge $-1 $175 -8.2283954544136666 $238 8.2283954544136666 $174 $278 forward 7 unknown #
vertex $-1 $236 $279 #
straight-curve $-1 -40.683614612262339 -17.128289701850726 0 0 0 -1 I I #
edge $-1 $234 -17.128289701850726 $238 17.128289701850726 $232 $280 forward 7 unknown #
straight-curve $-1 0 -17.128289701850726 -8.2283954544136666 -1 0 0 I I #
vertex $-1 $167 $281 #
straight-curve $-1 0 17.128289701850726 -8.2283954544136666 1 0 0 I I #
point $-1 40.683614612262339 17.128289701850726 -8.2283954544136666 #
point $-1 40.683614612262339 -17.128289701850726 -8.2283954544136666 #
straight-curve $-1 -40.683614612262339 0 8.2283954544136666 0 -1 0 I I #
point $-1 -40.683614612262339 17.128289701850726 8.2283954544136666 #
point $-1 -40.683614612262339 -17.128289701850726 8.2283954544136666 #
straight-curve $-1 40.683614612262339 -17.128289701850726 0 0 0 -1 I I #
straight-curve $-1 40.683614612262339 17.128289701850726 0 0 0 -1 I I #
plane-surface $-1 0 -17.128289701850726 0 0 1 0 0 0 1 forward_v I I I I #
coedge $-1 $282 $187 $199 $259 reversed $120 $-1 #
coedge $-1 $187 $282 $202 $261 reversed $120 $-1 #
edge $-1 $283 -40.683614612262339 $196 -32.307872946207944 $192 $284 forward 7 unknown #
straight-curve $-1 -32.307872946207944 -7.478296486270148 8.2283954544136666 0 1 0 I I #
coedge $-1 $199 $190 $193 $255 forward $185 $-1 #
straight-curve $-1 -32.307872946207944 -7.478296486270148 -8.2283954544136666 0 -1 0 I I #
coedge $-1 $193 $192 $282 $285 forward $194 $-1 #
edge $-1 $195 32.307872946207944 $286 40.683614612262339 $193 $287 forward 7 unknown #
point $-1 -32.307872946207944 -17.128289701850726 -8.2283954544136666 #
point $-1 -32.307872946207944 -17.128289701850726 8.2283954544136666 #
straight-curve $-1 -40.683614612262339 -12.784896243229866 0 0 0 -1 I I #
edge $-1 $286 -17.128289701850726 $200 -12.784896243229866 $248 $288 forward 7 unknown #
point $-1 -40.683614612262339 -12.784896243229866 -8.2283954544136666 #
edge $-1 $203 12.784896243229866 $283 17.128289701850726 $249 $289 forward 7 unknown #
point $-1 -40.683614612262339 -12.784896243229866 8.2283954544136666 #
coedge $-1 $264 $209 $270 $290 reversed $136 $-1 #
coedge $-1 $209 $263 $212 $268 forward $136 $-1 #
edge $-1 $266 -10.729929763124497 $217 -2.0667901143279597 $216 $291 forward 7 unknown #
vertex $-1 $211 $292 #
straight-curve $-1 -4.30279293530762 17.128289701850726 35.894385295493038 -0.79863550430605224 0 0.6018150307709319 I I #
edge $-1 $272 -8.2283954544136666 $213 -1.9946950155835417 $212 $293 forward 7 unknown #
point $-1 40.683614612262339 17.128289701850726 1.9946950155835417 #
coedge $-1 $216 $215 $263 $290 forward $207 $-1 #
point $-1 32.411214889575952 8.4651500530541881 8.2283954544136648 #
vertex $-1 $220 $294 #
straight-curve $-1 40.683614612262339 0 8.2283954544136666 0 1 0 I I #
vertex $-1 $223 $295 #
point $-1 36.363663025210968 10.940332809853199 3.2060583436874213 #
vertex $-1 $227 $296 #
point $-1 36.363663025210968 14.653106945051718 3.2060583436874213 #
straight-curve $-1 -40.683614612262339 17.128289701850726 0 0 0 -1 I I #
point $-1 -40.683614612262339 -17.128289701850726 -8.2283954544136666 #
straight-curve $-1 -40.683614612262339 0 -8.2283954544136666 0 1 0 I I #
point $-1 -40.683614612262339 17.128289701850726 -8.2283954544136666 #
coedge $-1 $249 $248 $254 $285 reversed $120 $-1 #
vertex $-1 $261 $297 #
straight-curve $-1 0 -17.128289701850726 8.2283954544136666 1 0 0 I I #
edge $-1 $283 -8.2283954544136666 $286 8.2283954544136666 $282 $298 forward 7 unknown #
vertex $-1 $259 $299 #
straight-curve $-1 0 -17.128289701850726 -8.2283954544136666 -1 0 0 I I #
straight-curve $-1 -40.683614612262339 0 -8.2283954544136666 0 1 0 I I #
straight-curve $-1 -40.683614612262339 0 8.2283954544136666 0 -1 0 I I #
edge $-1 $272 -40.683614612262339 $266 -32.411214889575952 $263 $300 forward 7 unknown #
straight-curve $-1 32.411214889575945 6.3983599387262284 8.2283954544136648 0 -1 0 I I #
point $-1 32.411214889575952 17.128289701850726 8.2283954544136648 #
straight-curve $-1 40.683614612262339 17.128289701850726 0 0 0 -1 I I #
point $-1 40.683614612262339 17.128289701850726 8.2283954544136666 #
point $-1 34.963212490133984 10.940332809853199 3.009237870152301 #
point $-1 34.963212490133984 14.653106945051718 3.009237870152301 #
point $-1 -40.683614612262339 -17.128289701850726 8.2283954544136666 #
straight-curve $-1 -40.683614612262339 -17.128289701850726 0 0 0 -1 I I #
point $-1 -40.683614612262339 -17.128289701850726 -8.2283954544136666 #
straight-curve $-1 0 17.128289701850726 8.2283954544136666 -1 0 0 I I #
End-of-ACIS-data 