500 0 8 0           
7 Unknown 11 ACIS 5.0 NT 24 Thu Mar 25 17:42:53 1999 
-1 9.9999999999999995e-007 1e-010 
body $-1 $8 $-1 $9 #
body $-1 $10 $-1 $11 #
body $-1 $12 $-1 $13 #
body $-1 $14 $-1 $15 #
body $-1 $16 $-1 $17 #
body $-1 $18 $-1 $19 #
body $-1 $20 $-1 $21 #
body $-1 $22 $-1 $23 #
lump $-1 $-1 $24 $0 #
transform $-1 1 0 0 0 1 0 0 0 1 77.95403912472915 36.751426630415232 17.471256073630212 1 rotate no_reflect no_shear #
lump $-1 $-1 $25 $1 #
transform $-1 1 0 0 0 1 0 0 0 1 77.95403912472915 36.751426630415232 17.471256073630212 1 rotate no_reflect no_shear #
lump $-1 $-1 $26 $2 #
transform $-1 1 0 0 0 1 0 0 0 1 77.95403912472915 36.751426630415232 17.471256073630212 1 rotate no_reflect no_shear #
lump $-1 $-1 $27 $3 #
transform $-1 1 0 0 0 1 0 0 0 1 77.95403912472915 36.751426630415232 17.471256073630212 1 rotate no_reflect no_shear #
lump $-1 $-1 $28 $4 #
transform $-1 1 0 0 0 1 0 0 0 1 77.95403912472915 36.751426630415232 17.471256073630212 1 rotate no_reflect no_shear #
lump $-1 $-1 $29 $5 #
transform $-1 1 0 0 0 1 0 0 0 1 77.95403912472915 36.751426630415232 17.471256073630212 1 rotate no_reflect no_shear #
lump $-1 $-1 $30 $6 #
transform $-1 1 0 0 0 1 0 0 0 1 77.95403912472915 36.751426630415232 17.471256073630212 1 rotate no_reflect no_shear #
lump $-1 $-1 $31 $7 #
transform $-1 1 0 0 0 1 0 0 0 1 77.95403912472915 36.751426630415232 17.471256073630212 1 rotate no_reflect no_shear #
shell $-1 $-1 $-1 $32 $-1 $8 #
shell $-1 $-1 $-1 $33 $-1 $10 #
shell $-1 $-1 $-1 $34 $-1 $12 #
shell $-1 $-1 $-1 $35 $-1 $14 #
shell $-1 $-1 $-1 $36 $-1 $16 #
shell $-1 $-1 $-1 $37 $-1 $18 #
shell $-1 $-1 $-1 $38 $-1 $20 #
shell $-1 $-1 $-1 $39 $-1 $22 #
face $-1 $40 $41 $24 $-1 $42 forward single #
face $-1 $43 $44 $25 $-1 $45 reversed single #
face $-1 $46 $47 $26 $-1 $48 forward single #
face $-1 $49 $50 $27 $-1 $51 reversed single #
face $-1 $52 $53 $28 $-1 $54 forward single #
face $-1 $55 $56 $29 $-1 $57 reversed single #
face $-1 $58 $59 $30 $-1 $60 forward single #
face $-1 $61 $62 $31 $-1 $63 forward single #
face $-1 $64 $65 $24 $-1 $66 reversed single #
loop $-1 $-1 $67 $32 #
plane-surface $-1 0 0 17.471256073630212 0 0 1 1 0 0 forward_v I I I I #
face $-1 $68 $69 $25 $-1 $70 reversed single #
loop $-1 $-1 $71 $33 #
plane-surface $-1 -202.46776800015706 -27.239932650071886 107.94223203159582 0 -1 0 0.79863551827123203 0 -0.60181501223851219 forward_v I I I I #
face $-1 $72 $73 $26 $-1 $74 forward single #
loop $-1 $75 $76 $34 #
cone-surface $-1 -75.502770984986199 -31.995679640243559 14.89875196127579 0.79863551827123203 0 -0.60181501223851219 0.60181501223851219 0 0.79863551827123203 1 I I 0 1 1 forward I I I I #
face $-1 $77 $78 $27 $-1 $79 reversed single #
loop $-1 $-1 $80 $35 #
plane-surface $-1 -77.954039124729135 31.995679640243559 14.114410011815153 -0.79863551827123203 0 0.60181501223851219 0.60181501223851219 0 0.79863551827123203 forward_v I I I I #
face $-1 $81 $82 $28 $-1 $83 forward single #
loop $-1 $84 $85 $36 #
cone-surface $-1 -75.502770984986199 31.995679640243559 14.89875196127579 0.79863551827123203 0 -0.60181501223851219 0.60181501223851219 0 0.79863551827123203 1 I I 0 1 1 forward I I I I #
face $-1 $86 $87 $29 $-1 $88 reversed single #
loop $-1 $-1 $89 $37 #
plane-surface $-1 85.648938248461803 34.643050216149199 221.88019888413899 0 -1 0 -0.73135370988377701 0 -0.68199835119979291 forward_v I I I I #
face $-1 $90 $91 $30 $-1 $92 forward single #
loop $-1 $93 $94 $38 #
cone-surface $-1 69.904966691630491 27.990527502669117 8.9256971973980193 -0.73135370988377701 0 -0.68199835119979291 0.68199835119979291 0 -0.73135370988377701 1 I I 0 1 1 forward I I I I #
face $-1 $95 $96 $31 $-1 $97 forward single #
loop $-1 $98 $99 $39 #
cone-surface $-1 69.904966691630491 31.98204113075716 8.9256971973980193 -0.73135370988377701 0 -0.68199835119979291 0.68199835119979291 0 -0.73135370988377701 1 I I 0 1 1 forward I I I I #
face $-1 $100 $101 $24 $-1 $102 reversed single #
loop $-1 $-1 $103 $40 #
plane-surface $-1 0 0 -17.471256073630212 0 0 1 1 0 0 forward_v I I I I #
coedge $-1 $104 $105 $106 $107 forward $41 $-1 #
face $-1 $108 $109 $25 $-1 $110 forward single #
loop $-1 $-1 $111 $43 #
plane-surface $-1 -77.954039124729135 -31.995679640243559 14.114410011815153 -0.79863551827123203 0 0.60181501223851219 0.60181501223851219 0 0.79863551827123203 forward_v I I I I #
coedge $-1 $112 $113 $114 $115 reversed $44 $-1 #
face $-1 $-1 $116 $26 $-1 $117 forward single #
loop $-1 $118 $119 $46 #
cone-surface $-1 -73.916967522873705 -31.995679640243559 13.703763373709627 0.79863551827123203 0 -0.60181501223851219 0.3009075061192561 0 0.39931775913561601 1 I I -0.70710678118654746 0.70710678118654746 0.5 forward I I I I #
loop $-1 $-1 $120 $34 #
coedge $-1 $76 $76 $121 $122 reversed $47 $-1 #
face $-1 $123 $124 $27 $-1 $125 forward single #
loop $-1 $-1 $126 $49 #
plane-surface $-1 -202.46776800015706 27.239932650071886 107.94223203159582 0 1 0 -0.79863551827123203 0 0.60181501223851219 forward_v I I I I #
coedge $-1 $127 $128 $129 $130 reversed $50 $-1 #
face $-1 $-1 $131 $28 $-1 $132 forward single #
loop $-1 $133 $134 $52 #
cone-surface $-1 -73.916967522873705 31.995679640243559 13.703763373709627 0.79863551827123203 0 -0.60181501223851219 0.3009075061192561 0 0.39931775913561601 1 I I -0.70710678118654746 0.70710678118654746 0.5 forward I I I I #
loop $-1 $-1 $135 $36 #
coedge $-1 $85 $85 $136 $137 reversed $53 $-1 #
face $-1 $138 $139 $29 $-1 $140 reversed single #
loop $-1 $-1 $141 $55 #
plane-surface $-1 -28.375013180129727 29.986284316713146 115.55114657928014 0.73135370988377701 0 0.68199835119979291 0.68199835119979291 0 -0.73135370988377701 forward_v I I I I #
coedge $-1 $142 $143 $144 $145 reversed $56 $-1 #
face $-1 $-1 $146 $30 $-1 $147 forward single #
loop $-1 $148 $149 $58 #
cone-surface $-1 68.92425589544581 27.990527502669117 8.0111696070367522 -0.73135370988377701 0 -0.68199835119979291 0.34099917559989645 0 -0.36567685494188851 1 I I -0.70710678118654746 0.70710678118654746 0.5 forward I I I I #
loop $-1 $-1 $150 $38 #
coedge $-1 $94 $94 $151 $152 reversed $59 $-1 #
face $-1 $-1 $153 $31 $-1 $154 forward single #
loop $-1 $155 $156 $61 #
cone-surface $-1 68.92425589544581 31.98204113075716 8.0111696070367522 -0.73135370988377701 0 -0.68199835119979291 0.34099917559989645 0 -0.36567685494188851 1 I I -0.70710678118654746 0.70710678118654746 0.5 forward I I I I #
loop $-1 $-1 $157 $39 #
coedge $-1 $99 $99 $158 $159 reversed $62 $-1 #
face $-1 $160 $161 $24 $-1 $162 reversed single #
loop $-1 $-1 $163 $64 #
plane-surface $-1 0 -36.751426630415232 0 0 1 0 0 0 1 forward_v I I I I #
coedge $-1 $164 $165 $166 $167 forward $65 $-1 #
coedge $-1 $168 $67 $169 $170 forward $41 $-1 #
coedge $-1 $67 $168 $171 $172 forward $41 $-1 #
coedge $-1 $173 $174 $67 $107 reversed $175 $-1 #
edge $-1 $176 -36.751426630415232 $177 36.751426630415232 $106 $178 forward 7 unknown #
face $-1 $179 $180 $25 $-1 $181 reversed single #
loop $-1 $-1 $182 $68 #
plane-surface $-1 0 0 17.471256073630212 0 0 1 1 0 0 forward_v I I I I #
coedge $-1 $183 $184 $185 $186 reversed $69 $-1 #
coedge $-1 $113 $71 $187 $188 reversed $44 $-1 #
coedge $-1 $71 $112 $183 $189 reversed $44 $-1 #
coedge $-1 $185 $190 $71 $115 forward $180 $-1 #
edge $-1 $191 36.499859942167703 $192 39.856706003982779 $114 $193 forward 7 unknown #
loop $-1 $-1 $121 $72 #
plane-surface $-1 -77.954039124729135 -31.995679640243559 14.114410011815153 -0.79863551827123203 0 0.60181501223851219 0.60181501223851219 0 0.79863551827123203 forward_v I I I I #
loop $-1 $-1 $194 $46 #
coedge $-1 $119 $119 $120 $195 reversed $73 $-1 #
coedge $-1 $120 $120 $119 $195 forward $75 $-1 #
coedge $-1 $121 $121 $76 $122 forward $116 $-1 #
edge $-1 $196 0 $196 6.2831853071796004 $121 $197 forward 7 unknown #
face $-1 $198 $199 $27 $-1 $200 reversed single #
loop $-1 $-1 $201 $77 #
plane-surface $-1 0 0 17.471256073630212 0 0 1 1 0 0 forward_v I I I I #
coedge $-1 $202 $203 $204 $205 reversed $78 $-1 #
coedge $-1 $206 $80 $207 $208 reversed $50 $-1 #
coedge $-1 $80 $206 $202 $209 forward $50 $-1 #
coedge $-1 $204 $210 $80 $130 forward $211 $-1 #
edge $-1 $212 -20.753586810293452 $213 -11.242092829950106 $129 $214 forward 7 unknown #
loop $-1 $-1 $136 $81 #
plane-surface $-1 -77.954039124729135 31.995679640243559 14.114410011815153 -0.79863551827123203 0 0.60181501223851219 0.60181501223851219 0 0.79863551827123203 forward_v I I I I #
loop $-1 $-1 $215 $52 #
coedge $-1 $134 $134 $135 $216 reversed $82 $-1 #
coedge $-1 $135 $135 $134 $216 forward $84 $-1 #
coedge $-1 $136 $136 $85 $137 forward $131 $-1 #
edge $-1 $217 0 $217 6.2831853071796004 $136 $218 forward 7 unknown #
face $-1 $219 $220 $29 $-1 $221 reversed single #
loop $-1 $-1 $222 $86 #
plane-surface $-1 85.648938248461803 25.329518417277093 221.88019888413899 0 1 0 0.73135370988377701 0 0.68199835119979291 forward_v I I I I #
coedge $-1 $223 $224 $225 $226 reversed $87 $-1 #
coedge $-1 $143 $89 $227 $228 reversed $56 $-1 #
coedge $-1 $89 $142 $223 $229 reversed $56 $-1 #
coedge $-1 $225 $230 $89 $145 forward $231 $-1 #
edge $-1 $232 -35.129570000498248 $233 -20.261493016786432 $144 $234 forward 7 unknown #
loop $-1 $-1 $151 $90 #
plane-surface $-1 -28.375013180129727 29.986284316713146 115.55114657928014 0.73135370988377701 0 0.68199835119979291 0.68199835119979291 0 -0.73135370988377701 forward_v I I I I #
loop $-1 $-1 $235 $58 #
coedge $-1 $149 $149 $150 $236 reversed $91 $-1 #
coedge $-1 $150 $150 $149 $236 forward $93 $-1 #
coedge $-1 $151 $151 $94 $152 forward $146 $-1 #
edge $-1 $237 0 $237 6.2831853071796004 $151 $238 forward 7 unknown #
loop $-1 $-1 $158 $95 #
plane-surface $-1 -28.375013180129727 29.986284316713146 115.55114657928014 0.73135370988377701 0 0.68199835119979291 0.68199835119979291 0 -0.73135370988377701 forward_v I I I I #
loop $-1 $-1 $239 $61 #
coedge $-1 $156 $156 $157 $240 reversed $96 $-1 #
coedge $-1 $157 $157 $156 $240 forward $98 $-1 #
coedge $-1 $158 $158 $99 $159 forward $153 $-1 #
edge $-1 $241 0 $241 6.2831853071796004 $158 $242 forward 7 unknown #
face $-1 $243 $244 $24 $-1 $245 reversed single #
loop $-1 $-1 $246 $100 #
plane-surface $-1 -77.95403912472915 0 0 1 0 0 0 0 -1 forward_v I I I I #
coedge $-1 $247 $171 $248 $249 forward $101 $-1 #
coedge $-1 $250 $103 $247 $251 forward $65 $-1 #
coedge $-1 $103 $250 $252 $253 forward $65 $-1 #
coedge $-1 $174 $173 $103 $167 reversed $175 $-1 #
edge $-1 $254 -36.751426630415232 $255 36.751426630415232 $166 $256 forward 7 unknown #
coedge $-1 $105 $104 $257 $258 forward $41 $-1 #
coedge $-1 $259 $260 $104 $170 reversed $244 $-1 #
edge $-1 $177 -77.95403912472915 $261 77.95403912472915 $169 $262 forward 7 unknown #
coedge $-1 $163 $263 $105 $172 reversed $101 $-1 #
edge $-1 $264 -77.95403912472915 $176 77.95403912472915 $171 $265 forward 7 unknown #
coedge $-1 $166 $106 $263 $266 forward $175 $-1 #
coedge $-1 $106 $166 $259 $267 reversed $175 $-1 #
loop $-1 $-1 $173 $243 #
vertex $-1 $107 $268 #
vertex $-1 $107 $269 #
straight-curve $-1 77.95403912472915 0 17.471256073630212 0 1 0 I I #
face $-1 $-1 $270 $25 $-1 $271 reversed single #
loop $-1 $-1 $114 $108 #
plane-surface $-1 -77.95403912472915 0 0 1 0 0 0 0 -1 forward_v I I I I #
coedge $-1 $187 $272 $273 $274 forward $109 $-1 #
coedge $-1 $273 $111 $113 $189 forward $69 $-1 #
coedge $-1 $111 $273 $275 $276 reversed $69 $-1 #
coedge $-1 $277 $114 $111 $186 forward $180 $-1 #
edge $-1 $192 11.242092829950106 $278 20.753586810293452 $185 $279 forward 7 unknown #
coedge $-1 $280 $182 $112 $188 forward $109 $-1 #
edge $-1 $281 -25.809409748881521 $191 -23.279844875349383 $187 $282 forward 7 unknown #
edge $-1 $192 -2.4157584020108747e-014 $281 4.2032266096572588 $113 $283 forward 7 unknown #
coedge $-1 $114 $277 $280 $284 reversed $180 $-1 #
vertex $-1 $284 $285 #
vertex $-1 $115 $286 #
straight-curve $-1 -77.95403912472915 -27.239932650071886 53.971116015797911 0 0 -1 I I #
coedge $-1 $194 $194 $-1 $287 reversed $118 $-1 #
edge $-1 $288 0 $288 6.2831853071796004 $119 $289 forward 7 unknown #
vertex $-1 $122 $290 #
ellipse-curve $-1 -76.689256687963066 -31.995679640243559 15.792833042722686 -0.79863551827123203 0 0.60181501223851219 0.60181501223851219 0 0.79863551827123203 1 I I #
face $-1 $-1 $211 $27 $-1 $291 reversed single #
loop $-1 $-1 $207 $123 #
plane-surface $-1 0 36.751426630415232 0 0 -1 0 0 0 -1 forward_v I I I I #
coedge $-1 $292 $293 $203 $294 forward $124 $-1 #
coedge $-1 $203 $126 $128 $209 reversed $78 $-1 #
coedge $-1 $126 $202 $201 $294 reversed $78 $-1 #
coedge $-1 $295 $129 $126 $205 forward $211 $-1 #
edge $-1 $213 -39.856706003982779 $296 -36.499859942167703 $204 $297 forward 7 unknown #
coedge $-1 $128 $127 $292 $298 reversed $50 $-1 #
coedge $-1 $299 $300 $127 $208 forward $199 $-1 #
edge $-1 $301 13.617594317848575 $212 17.820820927505856 $207 $302 forward 7 unknown #
edge $-1 $303 -4.2032266096572588 $213 2.4157584020108747e-014 $202 $304 forward 7 unknown #
coedge $-1 $129 $295 $299 $305 forward $211 $-1 #
loop $-1 $-1 $204 $198 #
vertex $-1 $208 $306 #
vertex $-1 $130 $307 #
straight-curve $-1 -77.95403912472915 15.997839820121779 14.114410011815151 0 -1 0 I I #
coedge $-1 $215 $215 $-1 $308 reversed $133 $-1 #
edge $-1 $309 0 $309 6.2831853071796004 $134 $310 forward 7 unknown #
vertex $-1 $137 $311 #
ellipse-curve $-1 -76.689256687963066 31.995679640243559 15.792833042722686 -0.79863551827123203 0 0.60181501223851219 0.60181501223851219 0 0.79863551827123203 1 I I #
face $-1 $-1 $231 $29 $-1 $312 forward single #
loop $-1 $-1 $313 $138 #
plane-surface $-1 77.95403912472915 0 0 -1 0 0 0 0 1 forward_v I I I I #
coedge $-1 $314 $315 $316 $317 reversed $139 $-1 #
coedge $-1 $318 $141 $143 $229 forward $87 $-1 #
coedge $-1 $141 $318 $314 $319 forward $87 $-1 #
coedge $-1 $316 $144 $141 $226 forward $231 $-1 #
edge $-1 $233 -19.649908057792626 $320 -10.33637625892052 $225 $321 forward 7 unknown #
coedge $-1 $322 $323 $142 $228 forward $220 $-1 #
edge $-1 $324 -109.4129042913809 $232 -93.468843368439281 $227 $325 forward 7 unknown #
edge $-1 $233 134.10732615444897 $324 155.9080782494583 $143 $326 forward 7 unknown #
coedge $-1 $144 $316 $322 $327 forward $231 $-1 #
loop $-1 $-1 $316 $219 #
vertex $-1 $228 $328 #
vertex $-1 $145 $329 #
straight-curve $-1 42.824469124230902 34.643050216149199 17.471256073630215 -1 0 0 I I #
coedge $-1 $235 $235 $-1 $330 reversed $148 $-1 #
edge $-1 $331 0 $331 6.2831853071796004 $149 $332 forward 7 unknown #
vertex $-1 $152 $333 #
ellipse-curve $-1 70.520000632873263 27.990527502669117 9.4992256121593748 0.73135370988377701 0 0.68199835119979291 0.68199835119979291 0 -0.73135370988377701 1 I I #
coedge $-1 $239 $239 $-1 $334 reversed $155 $-1 #
edge $-1 $335 0 $335 6.2831853071796004 $156 $336 forward 7 unknown #
vertex $-1 $159 $337 #
ellipse-curve $-1 70.520000632873263 31.98204113075716 9.4992256121593748 0.73135370988377701 0 0.68199835119979291 0.68199835119979291 0 -0.73135370988377701 1 I I #
face $-1 $-1 $175 $24 $-1 $338 reversed single #
loop $-1 $-1 $259 $160 #
plane-surface $-1 0 36.751426630415232 0 0 -1 0 0 0 -1 forward_v I I I I #
coedge $-1 $339 $257 $260 $340 forward $161 $-1 #
coedge $-1 $263 $163 $164 $251 reversed $101 $-1 #
coedge $-1 $257 $339 $163 $249 reversed $161 $-1 #
edge $-1 $264 -17.471256073630212 $341 17.471256073630212 $248 $342 forward 7 unknown #
coedge $-1 $165 $164 $339 $343 forward $65 $-1 #
edge $-1 $255 -77.95403912472915 $341 77.95403912472915 $247 $344 forward 7 unknown #
coedge $-1 $260 $259 $165 $253 reversed $244 $-1 #
edge $-1 $345 -77.95403912472915 $254 77.95403912472915 $252 $346 forward 7 unknown #
vertex $-1 $167 $347 #
vertex $-1 $266 $348 #
straight-curve $-1 77.95403912472915 0 -17.471256073630212 0 -1 0 I I #
coedge $-1 $246 $248 $168 $258 reversed $161 $-1 #
edge $-1 $261 -36.751426630415232 $264 36.751426630415232 $257 $349 forward 7 unknown #
coedge $-1 $252 $169 $174 $267 forward $244 $-1 #
coedge $-1 $169 $252 $246 $340 reversed $244 $-1 #
vertex $-1 $170 $350 #
straight-curve $-1 0 36.751426630415232 17.471256073630212 -1 0 0 I I #
coedge $-1 $171 $247 $173 $266 reversed $101 $-1 #
vertex $-1 $258 $351 #
straight-curve $-1 0 -36.751426630415232 17.471256073630212 1 0 0 I I #
edge $-1 $176 -17.471256073630212 $255 17.471256073630212 $173 $352 forward 7 unknown #
edge $-1 $177 -17.471256073630212 $254 17.471256073630212 $174 $353 forward 7 unknown #
point $-1 77.95403912472915 -36.751426630415232 17.471256073630212 #
point $-1 77.95403912472915 36.751426630415232 17.471256073630212 #
loop $-1 $-1 $275 $179 #
plane-surface $-1 0 -36.751426630415232 0 0 1 0 0 0 1 forward_v I I I I #
coedge $-1 $182 $280 $354 $355 forward $109 $-1 #
coedge $-1 $184 $183 $182 $274 reversed $69 $-1 #
edge $-1 $356 -20.753586810293452 $281 -11.242092829950106 $182 $357 forward 7 unknown #
coedge $-1 $354 $358 $184 $276 forward $270 $-1 #
edge $-1 $278 -17.820820927505856 $356 -13.617594317848575 $275 $359 forward 7 unknown #
coedge $-1 $190 $185 $358 $360 reversed $180 $-1 #
vertex $-1 $186 $361 #
straight-curve $-1 -77.95403912472915 -15.997839820121779 14.114410011815151 0 -1 0 I I #
coedge $-1 $272 $187 $190 $284 forward $109 $-1 #
vertex $-1 $188 $362 #
straight-curve $-1 -101.23388400007853 -27.239932650071886 17.471256073630215 -1 0 0 I I #
straight-curve $-1 -77.954039124729135 -27.239932650071886 14.114410011815153 0.60181501223851219 0 0.79863551827123203 I I #
edge $-1 $191 27.239932650071886 $363 36.751426630415232 $190 $364 forward 7 unknown #
point $-1 -77.95403912472915 -27.239932650071886 17.471256073630212 #
point $-1 -77.95403912472915 -27.239932650071886 14.114410011815133 #
edge $-1 $365 1 $365 0 $194 $-1 forward 7 unknown #
vertex $-1 $195 $366 #
ellipse-curve $-1 -74.316285282009318 -31.995679640243559 14.004670879828883 -0.79863551827123203 0 0.60181501223851219 0.60181501223851219 0 0.79863551827123203 1 I I #
point $-1 -76.087441675724577 -31.995679640243559 16.591468560993928 #
plane-surface $-1 -77.95403912472915 0 0 1 0 0 0 0 -1 forward_v I I I I #
coedge $-1 $367 $201 $206 $298 forward $124 $-1 #
coedge $-1 $201 $367 $295 $368 forward $124 $-1 #
edge $-1 $296 23.279844875349383 $303 25.809409748881521 $201 $369 forward 7 unknown #
coedge $-1 $210 $204 $293 $368 reversed $211 $-1 #
vertex $-1 $205 $370 #
straight-curve $-1 -77.95403912472915 27.239932650071886 53.971116015797911 0 0 1 I I #
edge $-1 $303 11.242092829950106 $301 20.753586810293452 $292 $371 forward 7 unknown #
coedge $-1 $300 $207 $210 $305 reversed $199 $-1 #
coedge $-1 $207 $299 $367 $372 reversed $199 $-1 #
vertex $-1 $372 $373 #
straight-curve $-1 -67.229201560141874 36.751426630415232 28.34675056927259 -0.60181501223851219 0 -0.79863551827123203 I I #
vertex $-1 $298 $374 #
straight-curve $-1 -77.954039124729135 27.239932650071886 14.114410011815153 -0.60181501223851219 0 -0.79863551827123203 I I #
edge $-1 $375 -17.471256073630212 $212 -14.114410011815133 $299 $376 forward 7 unknown #
point $-1 -77.95403912472915 36.751426630415232 14.114410011815133 #
point $-1 -77.95403912472915 27.239932650071886 14.114410011815133 #
edge $-1 $377 1 $377 0 $215 $-1 forward 7 unknown #
vertex $-1 $216 $378 #
ellipse-curve $-1 -74.316285282009318 31.995679640243559 14.004670879828883 -0.79863551827123203 0 0.60181501223851219 0.60181501223851219 0 0.79863551827123203 1 I I #
point $-1 -76.087441675724577 31.995679640243559 16.591468560993928 #
plane-surface $-1 0 0 17.471256073630212 0 0 1 1 0 0 forward_v I I I I #
coedge $-1 $323 $322 $315 $379 forward $220 $-1 #
coedge $-1 $315 $222 $224 $319 reversed $139 $-1 #
coedge $-1 $222 $314 $313 $379 reversed $139 $-1 #
coedge $-1 $230 $225 $222 $317 forward $231 $-1 #
edge $-1 $320 20.261493016786432 $380 35.129570000498248 $316 $381 forward 7 unknown #
coedge $-1 $224 $223 $323 $382 reversed $87 $-1 #
edge $-1 $383 -155.9080782494583 $320 -134.10732615444897 $314 $384 forward 7 unknown #
vertex $-1 $226 $385 #
straight-curve $-1 63.08596214101734 14.993142158356573 17.471256073630215 0 -1 0 I I #
coedge $-1 $313 $227 $230 $327 reversed $220 $-1 #
coedge $-1 $227 $313 $318 $382 forward $220 $-1 #
vertex $-1 $228 $386 #
straight-curve $-1 77.95403912472915 34.643050216149199 110.9400994420695 0 0 1 I I #
straight-curve $-1 -28.375013180129727 34.643050216149199 115.55114657928014 0.68199835119979291 0 -0.73135370988377701 I I #
edge $-1 $380 25.329518417277093 $232 34.643050216149199 $322 $387 forward 7 unknown #
point $-1 77.95403912472915 34.643050216149199 17.471256073630212 #
point $-1 63.085962141017333 34.643050216149199 17.471256073630215 #
edge $-1 $388 1 $388 0 $235 $-1 forward 7 unknown #
vertex $-1 $236 $389 #
ellipse-curve $-1 69.289932750387692 27.990527502669117 8.3521687826366495 0.73135370988377701 0 0.68199835119979291 0.68199835119979291 0 -0.73135370988377701 1 I I #
point $-1 71.201998984073072 27.990527502669117 8.7678719022756137 #
edge $-1 $390 1 $390 0 $239 $-1 forward 7 unknown #
vertex $-1 $240 $391 #
ellipse-curve $-1 69.289932750387692 31.98204113075716 8.3521687826366495 0.73135370988377701 0 0.68199835119979291 0.68199835119979291 0 -0.73135370988377701 1 I I #
point $-1 71.201998984073072 31.98204113075716 8.7678719022756137 #
plane-surface $-1 77.95403912472915 0 0 -1 0 0 0 0 1 forward_v I I I I #
coedge $-1 $248 $246 $250 $343 reversed $161 $-1 #
edge $-1 $261 -17.471256073630212 $345 17.471256073630212 $260 $392 forward 7 unknown #
vertex $-1 $343 $393 #
straight-curve $-1 -77.95403912472915 -36.751426630415232 0 0 0 -1 I I #
edge $-1 $341 -36.751426630415232 $345 36.751426630415232 $339 $394 forward 7 unknown #
straight-curve $-1 0 -36.751426630415232 -17.471256073630212 -1 0 0 I I #
vertex $-1 $253 $395 #
straight-curve $-1 0 36.751426630415232 -17.471256073630212 1 0 0 I I #
point $-1 77.95403912472915 36.751426630415232 -17.471256073630212 #
point $-1 77.95403912472915 -36.751426630415232 -17.471256073630212 #
straight-curve $-1 -77.95403912472915 0 17.471256073630212 0 -1 0 I I #
point $-1 -77.95403912472915 36.751426630415232 17.471256073630212 #
point $-1 -77.95403912472915 -36.751426630415232 17.471256073630212 #
straight-curve $-1 77.95403912472915 -36.751426630415232 0 0 0 -1 I I #
straight-curve $-1 77.95403912472915 36.751426630415232 0 0 0 -1 I I #
coedge $-1 $358 $275 $272 $355 reversed $270 $-1 #
edge $-1 $363 -77.95403912472915 $356 -75.424474251197012 $354 $396 forward 7 unknown #
vertex $-1 $276 $397 #
straight-curve $-1 -75.424474251197012 -15.997839820121779 17.471256073630212 0 1 0 I I #
coedge $-1 $275 $354 $277 $360 forward $270 $-1 #
straight-curve $-1 -67.229201560141874 -36.751426630415232 28.34675056927259 0.60181501223851219 0 0.79863551827123203 I I #
edge $-1 $363 -17.471256073630212 $278 -14.114410011815133 $277 $398 forward 7 unknown #
point $-1 -77.95403912472915 -36.751426630415232 14.114410011815133 #
point $-1 -75.424474251197012 -27.239932650071886 17.471256073630212 #
vertex $-1 $284 $399 #
straight-curve $-1 -77.95403912472915 0 17.471256073630212 0 -1 0 I I #
vertex $-1 $287 $400 #
point $-1 -73.714470269770814 -31.995679640243559 14.803306398100116 #
coedge $-1 $293 $292 $300 $372 forward $124 $-1 #
edge $-1 $375 -36.751426630415232 $296 -27.239932650071886 $295 $401 forward 7 unknown #
straight-curve $-1 -101.23388400007853 27.239932650071886 17.471256073630215 1 0 0 I I #
point $-1 -77.95403912472915 27.239932650071886 17.471256073630212 #
straight-curve $-1 -75.424474251197012 15.997839820121779 17.471256073630212 0 1 0 I I #
edge $-1 $301 75.424474251197012 $375 77.95403912472915 $300 $402 forward 7 unknown #
point $-1 -75.424474251197012 36.751426630415232 17.471256073630212 #
point $-1 -75.424474251197012 27.239932650071886 17.471256073630212 #
vertex $-1 $372 $403 #
straight-curve $-1 -77.95403912472915 36.751426630415232 0 0 0 -1 I I #
vertex $-1 $308 $404 #
point $-1 -73.714470269770814 31.995679640243559 14.803306398100116 #
edge $-1 $380 93.468843368439281 $383 109.4129042913809 $313 $405 forward 7 unknown #
vertex $-1 $327 $406 #
straight-curve $-1 42.824469124230902 25.329518417277093 17.471256073630215 1 0 0 I I #
edge $-1 $383 10.33637625892052 $324 19.649908057792626 $323 $407 forward 7 unknown #
vertex $-1 $382 $408 #
straight-curve $-1 -28.375013180129727 25.329518417277093 115.55114657928014 -0.68199835119979291 0 0.73135370988377701 I I #
point $-1 63.085962141017333 25.329518417277093 17.471256073630215 #
point $-1 77.95403912472915 34.643050216149199 1.5271951506885983 #
straight-curve $-1 77.95403912472915 0 17.471256073630212 0 1 0 I I #
vertex $-1 $330 $409 #
point $-1 69.971931101587487 27.990527502669117 7.6208150727528716 #
vertex $-1 $334 $410 #
point $-1 69.971931101587487 31.98204113075716 7.6208150727528716 #
straight-curve $-1 -77.95403912472915 36.751426630415232 0 0 0 -1 I I #
point $-1 -77.95403912472915 -36.751426630415232 -17.471256073630212 #
straight-curve $-1 -77.95403912472915 0 -17.471256073630212 0 1 0 I I #
point $-1 -77.95403912472915 36.751426630415232 -17.471256073630212 #
straight-curve $-1 0 -36.751426630415232 17.471256073630212 1 0 0 I I #
point $-1 -75.424474251197012 -36.751426630415232 17.471256073630212 #
straight-curve $-1 -77.95403912472915 -36.751426630415232 0 0 0 -1 I I #
point $-1 -77.95403912472915 -36.751426630415232 17.471256073630212 #
point $-1 -73.517649763738092 -31.995679640243559 13.402855867590372 #
straight-curve $-1 -77.95403912472915 0 17.471256073630212 0 -1 0 I I #
straight-curve $-1 0 36.751426630415232 17.471256073630212 -1 0 0 I I #
point $-1 -77.95403912472915 36.751426630415232 17.471256073630212 #
point $-1 -73.517649763738092 31.995679640243559 13.402855867590372 #
straight-curve $-1 77.95403912472915 25.329518417277093 110.9400994420695 0 0 -1 I I #
point $-1 77.95403912472915 25.329518417277093 17.471256073630212 #
straight-curve $-1 77.95403912472915 14.993142158356573 1.5271951506885983 0 1 0 I I #
point $-1 77.95403912472915 25.329518417277093 1.5271951506885983 #
point $-1 68.558579040503929 27.990527502669117 7.6701704314368557 #
point $-1 68.558579040503929 31.98204113075716 7.6701704314368557 #
End-of-ACIS-data 