500 0 4 0           
7 Unknown 11 ACIS 5.0 NT 24 Fri Mar 26 20:10:17 1999 
-1 9.9999999999999995e-007 1e-010 
body $-1 $4 $-1 $5 #
body $-1 $6 $-1 $7 #
body $-1 $8 $-1 $9 #
body $-1 $10 $-1 $11 #
lump $-1 $-1 $12 $0 #
transform $-1 1 0 0 0 1 0 0 0 1 64.563737907040618 30.435023299653029 14.118518163448467 1 rotate no_reflect no_shear #
lump $-1 $-1 $13 $1 #
transform $-1 1 0 0 0 1 0 0 0 1 64.563737907040618 30.435023299653029 14.118518163448467 1 rotate no_reflect no_shear #
lump $-1 $-1 $14 $2 #
transform $-1 1 0 0 0 1 0 0 0 1 64.563737907040618 30.435023299653029 14.118518163448467 1 rotate no_reflect no_shear #
lump $-1 $-1 $15 $3 #
transform $-1 1 0 0 0 1 0 0 0 1 64.563737907040618 30.435023299653029 14.118518163448467 1 rotate no_reflect no_shear #
shell $-1 $-1 $-1 $16 $-1 $4 #
shell $-1 $-1 $-1 $17 $-1 $6 #
shell $-1 $-1 $-1 $18 $-1 $8 #
shell $-1 $-1 $-1 $19 $-1 $10 #
face $-1 $20 $21 $12 $-1 $22 reversed single #
face $-1 $23 $24 $13 $-1 $25 forward single #
face $-1 $26 $27 $14 $-1 $28 reversed single #
face $-1 $29 $30 $15 $-1 $31 forward single #
face $-1 $32 $33 $12 $-1 $34 forward single #
loop $-1 $-1 $35 $16 #
plane-surface $-1 0 -30.435023299653029 0 0 1 0 0 0 1 forward_v I I I I #
face $-1 $36 $37 $13 $-1 $38 reversed single #
loop $-1 $-1 $39 $17 #
plane-surface $-1 0 -30.435023299653029 0 0 1 0 0 0 1 forward_v I I I I #
face $-1 $40 $41 $14 $-1 $42 reversed single #
loop $-1 $-1 $43 $18 #
plane-surface $-1 -144.06255116877077 -7.3418201518014818 102.59874704748792 0 1 0 -0.61566148304635926 0 0.78801074757464917 forward_v I I I I #
face $-1 $44 $45 $15 $-1 $46 forward single #
loop $-1 $47 $48 $19 #
cone-surface $-1 -54.642840116102754 -2.5240520122002224 5.6562924788681102 0.61566148304635926 0 -0.78801074757464917 1.1820161213619738 0 0.92349222456953894 1 I I 0 1 1.5 forward I I I I #
face $-1 $49 $50 $12 $-1 $51 reversed single #
loop $-1 $-1 $52 $20 #
plane-surface $-1 0 0 14.118518163448467 0 0 1 1 0 0 forward_v I I I I #
coedge $-1 $53 $54 $55 $56 reversed $21 $-1 #
face $-1 $57 $58 $13 $-1 $59 reversed single #
loop $-1 $-1 $60 $23 #
plane-surface $-1 0 0 -14.118518163448467 0 0 1 1 0 0 forward_v I I I I #
coedge $-1 $61 $62 $63 $64 forward $24 $-1 #
face $-1 $65 $66 $14 $-1 $67 reversed single #
loop $-1 $-1 $68 $26 #
plane-surface $-1 -64.563737907040633 -2.5240520122002224 0.844908298806331 -0.61566148304635926 0 0.78801074757464917 0.78801074757464917 0 0.61566148304635926 forward_v I I I I #
coedge $-1 $69 $70 $71 $72 reversed $27 $-1 #
face $-1 $-1 $73 $15 $-1 $74 forward single #
loop $-1 $75 $76 $29 #
cone-surface $-1 -52.75491897894868 -2.5240520122002224 3.2398636659278388 0.61566148304635926 0 -0.78801074757464917 0.59100806068098688 0 0.46174611228476947 1 I I -0.70710678118654757 0.70710678118654757 0.75 forward I I I I #
loop $-1 $-1 $77 $19 #
coedge $-1 $48 $48 $78 $79 reversed $30 $-1 #
face $-1 $80 $81 $12 $-1 $82 reversed single #
loop $-1 $-1 $83 $32 #
plane-surface $-1 0 0 -14.118518163448467 0 0 1 1 0 0 forward_v I I I I #
coedge $-1 $84 $85 $86 $87 forward $33 $-1 #
coedge $-1 $88 $35 $89 $90 reversed $21 $-1 #
coedge $-1 $35 $88 $91 $92 forward $21 $-1 #
coedge $-1 $93 $83 $35 $56 forward $50 $-1 #
edge $-1 $94 -64.563737907040618 $95 64.563737907040618 $35 $96 forward 7 unknown #
face $-1 $97 $98 $13 $-1 $99 reversed single #
loop $-1 $-1 $100 $36 #
plane-surface $-1 -40.25306031803315 -48.478823010665067 0 0 1 0 0 0 1 forward_v I I I I #
coedge $-1 $101 $102 $62 $103 forward $37 $-1 #
coedge $-1 $104 $39 $105 $106 reversed $24 $-1 #
coedge $-1 $39 $104 $60 $103 reversed $24 $-1 #
coedge $-1 $107 $108 $39 $64 reversed $98 $-1 #
edge $-1 $109 -14.118518163448467 $110 14.118518163448467 $63 $111 forward 7 unknown #
face $-1 $112 $113 $14 $-1 $114 reversed single #
loop $-1 $-1 $115 $40 #
plane-surface $-1 -144.06255116877077 2.2937161274010371 102.59874704748792 0 -1 0 0.61566148304635926 0 -0.78801074757464917 forward_v I I I I #
coedge $-1 $116 $117 $118 $119 reversed $41 $-1 #
coedge $-1 $70 $43 $120 $121 reversed $27 $-1 #
coedge $-1 $43 $69 $116 $122 reversed $27 $-1 #
coedge $-1 $118 $123 $43 $72 forward $124 $-1 #
edge $-1 $125 7.4675376773447653 $126 24.456983209481876 $71 $127 forward 7 unknown #
loop $-1 $-1 $78 $44 #
plane-surface $-1 -64.563737907040633 -2.5240520122002224 0.844908298806331 -0.61566148304635926 0 0.78801074757464917 0.78801074757464917 0 0.61566148304635926 forward_v I I I I #
loop $-1 $-1 $128 $29 #
coedge $-1 $76 $76 $77 $129 reversed $45 $-1 #
coedge $-1 $77 $77 $76 $129 forward $47 $-1 #
coedge $-1 $78 $78 $48 $79 forward $73 $-1 #
edge $-1 $130 0 $130 6.2831853071796004 $78 $131 forward 7 unknown #
face $-1 $132 $133 $12 $-1 $134 reversed single #
loop $-1 $-1 $135 $49 #
plane-surface $-1 -64.563737907040618 0 0 1 0 0 0 0 -1 forward_v I I I I #
coedge $-1 $55 $136 $137 $138 forward $50 $-1 #
coedge $-1 $139 $52 $140 $141 forward $33 $-1 #
coedge $-1 $52 $139 $88 $142 forward $33 $-1 #
coedge $-1 $89 $143 $52 $87 reversed $144 $-1 #
edge $-1 $145 -30.435023299653029 $146 30.435023299653029 $86 $147 forward 7 unknown #
coedge $-1 $54 $53 $85 $142 reversed $21 $-1 #
coedge $-1 $137 $86 $53 $90 forward $144 $-1 #
edge $-1 $145 -14.118518163448467 $94 14.118518163448467 $89 $148 forward 7 unknown #
coedge $-1 $149 $150 $54 $92 reversed $81 $-1 #
edge $-1 $151 -14.118518163448467 $95 14.118518163448467 $91 $152 forward 7 unknown #
coedge $-1 $136 $55 $150 $153 forward $50 $-1 #
vertex $-1 $90 $154 #
vertex $-1 $153 $155 #
straight-curve $-1 0 -30.435023299653029 -14.118518163448467 -1 0 0 I I #
face $-1 $156 $157 $13 $-1 $158 reversed single #
loop $-1 $-1 $63 $57 #
plane-surface $-1 -44.179419055922615 -39.456923155159046 0 1 0 0 0 0 -1 forward_v I I I I #
coedge $-1 $159 $160 $161 $162 forward $58 $-1 #
coedge $-1 $163 $60 $164 $165 forward $37 $-1 #
coedge $-1 $60 $163 $107 $166 forward $37 $-1 #
edge $-1 $109 -44.179419055922615 $167 -36.326701580143684 $60 $168 forward 7 unknown #
coedge $-1 $62 $61 $169 $170 forward $24 $-1 #
coedge $-1 $171 $172 $61 $106 forward $173 $-1 #
edge $-1 $174 36.326701580143684 $110 44.179419055922615 $105 $175 forward 7 unknown #
coedge $-1 $161 $63 $102 $166 reversed $98 $-1 #
coedge $-1 $63 $161 $171 $176 reversed $98 $-1 #
vertex $-1 $103 $177 #
vertex $-1 $176 $178 #
straight-curve $-1 -44.179419055922615 -30.435023299653029 0 0 0 1 I I #
face $-1 $-1 $124 $14 $-1 $179 forward single #
loop $-1 $-1 $180 $65 #
plane-surface $-1 -64.563737907040618 0 0 1 0 0 0 0 -1 forward_v I I I I #
coedge $-1 $181 $182 $183 $184 reversed $66 $-1 #
coedge $-1 $185 $68 $70 $122 forward $41 $-1 #
coedge $-1 $68 $185 $181 $186 forward $41 $-1 #
coedge $-1 $183 $71 $68 $119 forward $124 $-1 #
edge $-1 $126 -6.0797941457013707 $187 3.5557421335011483 $118 $188 forward 7 unknown #
coedge $-1 $189 $190 $69 $121 forward $113 $-1 #
edge $-1 $191 -50.454465224937614 $125 -37.180855360295496 $120 $192 forward 7 unknown #
edge $-1 $126 -21.559916009302519 $191 -1.8033521786330445e-014 $70 $193 forward 7 unknown #
coedge $-1 $71 $183 $189 $194 forward $124 $-1 #
loop $-1 $-1 $183 $112 #
vertex $-1 $121 $195 #
vertex $-1 $72 $196 #
straight-curve $-1 -72.031275584385384 -7.3418201518014818 14.118518163448464 1 0 0 I I #
coedge $-1 $128 $128 $-1 $197 reversed $75 $-1 #
edge $-1 $198 0 $198 6.2831853071796004 $76 $199 forward 7 unknown #
vertex $-1 $79 $200 #
ellipse-curve $-1 -56.069015140972063 -2.5240520122002224 7.4817132311274035 -0.61566148304635926 0 0.78801074757464917 1.1820161213619738 0 0.92349222456953894 1 I I #
face $-1 $-1 $144 $12 $-1 $201 reversed single #
loop $-1 $-1 $202 $80 #
plane-surface $-1 0 30.435023299653029 0 0 -1 0 0 0 -1 forward_v I I I I #
coedge $-1 $150 $149 $203 $204 forward $81 $-1 #
coedge $-1 $83 $93 $205 $206 forward $50 $-1 #
coedge $-1 $143 $89 $83 $138 reversed $144 $-1 #
edge $-1 $207 -30.435023299653029 $94 30.435023299653029 $137 $208 forward 7 unknown #
coedge $-1 $85 $84 $149 $209 forward $33 $-1 #
coedge $-1 $202 $203 $84 $141 reversed $133 $-1 #
edge $-1 $146 -64.563737907040618 $210 64.563737907040618 $140 $211 forward 7 unknown #
edge $-1 $151 -64.563737907040618 $145 64.563737907040618 $88 $212 forward 7 unknown #
coedge $-1 $86 $137 $202 $213 reversed $144 $-1 #
loop $-1 $-1 $89 $132 #
vertex $-1 $87 $214 #
vertex $-1 $87 $215 #
straight-curve $-1 64.563737907040618 0 14.118518163448467 0 1 0 I I #
straight-curve $-1 64.563737907040618 -30.435023299653029 0 0 0 -1 I I #
coedge $-1 $135 $91 $139 $209 reversed $81 $-1 #
coedge $-1 $91 $135 $93 $153 reversed $81 $-1 #
vertex $-1 $209 $216 #
straight-curve $-1 -64.563737907040618 -30.435023299653029 0 0 0 -1 I I #
edge $-1 $95 -30.435023299653029 $217 30.435023299653029 $150 $218 forward 7 unknown #
point $-1 64.563737907040618 -30.435023299653029 -14.118518163448467 #
point $-1 -64.563737907040618 -30.435023299653029 -14.118518163448467 #
face $-1 $-1 $173 $13 $-1 $219 forward single #
loop $-1 $-1 $220 $97 #
plane-surface $-1 -36.326701580143684 -39.456923155159046 0 -1 0 0 0 0 1 forward_v I I I I #
coedge $-1 $221 $100 $163 $222 reversed $58 $-1 #
coedge $-1 $100 $221 $223 $224 reversed $58 $-1 #
coedge $-1 $108 $107 $100 $162 reversed $98 $-1 #
edge $-1 $225 -14.118518163448467 $226 14.118518163448467 $161 $227 forward 7 unknown #
coedge $-1 $102 $101 $159 $222 forward $37 $-1 #
coedge $-1 $169 $220 $101 $165 reversed $157 $-1 #
edge $-1 $167 -9.021899855506021 $228 9.021899855506021 $164 $229 forward 7 unknown #
edge $-1 $226 -9.021899855506021 $109 9.021899855506021 $107 $230 forward 7 unknown #
vertex $-1 $165 $231 #
straight-curve $-1 0 -30.435023299653029 -14.118518163448467 1 0 0 I I #
coedge $-1 $232 $164 $104 $170 reversed $157 $-1 #
edge $-1 $174 -14.118518163448467 $167 14.118518163448467 $169 $233 forward 7 unknown #
coedge $-1 $223 $105 $108 $176 forward $173 $-1 #
coedge $-1 $105 $223 $232 $234 forward $173 $-1 #
loop $-1 $-1 $105 $156 #
vertex $-1 $106 $235 #
straight-curve $-1 0 -30.435023299653029 14.118518163448467 -1 0 0 I I #
edge $-1 $110 -9.021899855506021 $225 9.021899855506021 $108 $236 forward 7 unknown #
point $-1 -44.179419055922615 -30.435023299653025 -14.118518163448467 #
point $-1 -44.179419055922615 -30.435023299653025 14.118518163448467 #
plane-surface $-1 0 0 14.118518163448467 0 0 1 1 0 0 forward_v I I I I #
coedge $-1 $190 $189 $182 $237 forward $113 $-1 #
coedge $-1 $182 $115 $117 $186 reversed $66 $-1 #
coedge $-1 $115 $181 $180 $237 reversed $66 $-1 #
coedge $-1 $123 $118 $115 $184 forward $124 $-1 #
edge $-1 $187 -24.456983209481876 $238 -7.4675376773447653 $183 $239 forward 7 unknown #
coedge $-1 $117 $116 $190 $240 reversed $41 $-1 #
edge $-1 $241 1.8033521786330445e-014 $187 21.559916009302519 $181 $242 forward 7 unknown #
vertex $-1 $119 $243 #
straight-curve $-1 -47.574292374903507 -1.2620260061001112 14.118518163448467 0 1 0 I I #
coedge $-1 $180 $120 $123 $194 reversed $113 $-1 #
coedge $-1 $120 $180 $185 $240 forward $113 $-1 #
vertex $-1 $121 $244 #
straight-curve $-1 -64.563737907040618 -7.3418201518014818 51.299373523743959 0 0 1 I I #
straight-curve $-1 -64.563737907040633 -7.3418201518014818 0.844908298806331 -0.78801074757464917 0 -0.61566148304635926 I I #
edge $-1 $238 -2.2937161274010371 $125 7.3418201518014818 $189 $245 forward 7 unknown #
point $-1 -64.563737907040618 -7.3418201518014818 14.118518163448467 #
point $-1 -47.574292374903507 -7.3418201518014818 14.118518163448467 #
edge $-1 $246 1 $246 0 $128 $-1 forward 7 unknown #
vertex $-1 $129 $247 #
ellipse-curve $-1 -53.216665091233452 -2.5240520122002224 3.8308717266088257 -0.61566148304635926 0 0.78801074757464917 1.1820161213619738 0 0.92349222456953894 1 I I #
point $-1 -54.88699901961008 -2.5240520122002224 8.4052054556969331 #
plane-surface $-1 64.563737907040618 0 0 -1 0 0 0 0 1 forward_v I I I I #
coedge $-1 $205 $140 $143 $213 forward $133 $-1 #
coedge $-1 $140 $205 $135 $204 reversed $133 $-1 #
edge $-1 $210 -14.118518163448467 $217 14.118518163448467 $203 $248 forward 7 unknown #
coedge $-1 $203 $202 $136 $206 reversed $133 $-1 #
edge $-1 $217 -64.563737907040618 $207 64.563737907040618 $205 $249 forward 7 unknown #
vertex $-1 $138 $250 #
straight-curve $-1 64.563737907040618 0 -14.118518163448467 0 -1 0 I I #
edge $-1 $210 -30.435023299653029 $151 30.435023299653029 $149 $251 forward 7 unknown #
vertex $-1 $141 $252 #
straight-curve $-1 0 30.435023299653029 14.118518163448467 -1 0 0 I I #
straight-curve $-1 0 -30.435023299653029 14.118518163448467 1 0 0 I I #
edge $-1 $146 -14.118518163448467 $207 14.118518163448467 $143 $253 forward 7 unknown #
point $-1 64.563737907040618 -30.435023299653029 14.118518163448467 #
point $-1 64.563737907040618 30.435023299653029 14.118518163448467 #
point $-1 -64.563737907040618 -30.435023299653029 14.118518163448467 #
vertex $-1 $206 $254 #
straight-curve $-1 -64.563737907040618 0 -14.118518163448467 0 1 0 I I #
plane-surface $-1 0 0 14.118518163448467 0 0 1 1 0 0 forward_v I I I I #
coedge $-1 $164 $232 $221 $255 forward $157 $-1 #
coedge $-1 $160 $159 $220 $255 reversed $58 $-1 #
edge $-1 $228 -3.9263587378894655 $226 3.9263587378894655 $159 $256 forward 7 unknown #
coedge $-1 $172 $171 $160 $224 forward $173 $-1 #
edge $-1 $225 -3.9263587378894655 $257 3.9263587378894655 $160 $258 forward 7 unknown #
vertex $-1 $176 $259 #
vertex $-1 $166 $260 #
straight-curve $-1 -44.179419055922615 -48.478823010665067 0 0 0 -1 I I #
vertex $-1 $255 $261 #
straight-curve $-1 -36.326701580143684 -39.456923155159046 -14.118518163448467 0 -1 0 I I #
straight-curve $-1 -44.179419055922615 -39.456923155159046 -14.118518163448467 0 1 0 I I #
point $-1 -36.326701580143684 -30.435023299653025 -14.118518163448467 #
coedge $-1 $220 $169 $172 $234 reversed $157 $-1 #
straight-curve $-1 -36.326701580143684 -30.435023299653029 0 0 0 -1 I I #
edge $-1 $257 -9.021899855506021 $174 9.021899855506021 $232 $262 forward 7 unknown #
point $-1 -36.326701580143684 -30.435023299653025 14.118518163448467 #
straight-curve $-1 -44.179419055922615 -39.456923155159046 14.118518163448467 0 -1 0 I I #
edge $-1 $238 37.180855360295496 $241 50.454465224937614 $180 $263 forward 7 unknown #
vertex $-1 $194 $264 #
straight-curve $-1 -72.031275584385384 2.2937161274010371 14.118518163448464 -1 0 0 I I #
edge $-1 $241 -3.5557421335011483 $191 6.0797941457013707 $190 $265 forward 7 unknown #
vertex $-1 $240 $266 #
straight-curve $-1 -64.563737907040633 2.2937161274010371 0.844908298806331 0.78801074757464917 0 0.61566148304635926 I I #
point $-1 -47.574292374903507 2.2937161274010371 14.118518163448467 #
point $-1 -64.563737907040618 -7.3418201518014818 0.84490829880634211 #
straight-curve $-1 -64.563737907040618 0 14.118518163448467 0 -1 0 I I #
vertex $-1 $197 $267 #
point $-1 -52.034648969871476 -2.5240520122002224 4.7543639511783642 #
straight-curve $-1 -64.563737907040618 30.435023299653029 0 0 0 -1 I I #
straight-curve $-1 0 30.435023299653029 -14.118518163448467 1 0 0 I I #
point $-1 64.563737907040618 30.435023299653029 -14.118518163448467 #
straight-curve $-1 -64.563737907040618 0 14.118518163448467 0 -1 0 I I #
point $-1 -64.563737907040618 30.435023299653029 14.118518163448467 #
straight-curve $-1 64.563737907040618 30.435023299653029 0 0 0 -1 I I #
point $-1 -64.563737907040618 30.435023299653029 -14.118518163448467 #
edge $-1 $257 -14.118518163448467 $228 14.118518163448467 $220 $268 forward 7 unknown #
straight-curve $-1 -40.25306031803315 -48.478823010665067 -14.118518163448467 -1 0 0 I I #
vertex $-1 $234 $269 #
straight-curve $-1 -40.25306031803315 -48.478823010665067 14.118518163448467 1 0 0 I I #
point $-1 -44.179419055922615 -48.478823010665067 14.118518163448467 #
point $-1 -44.179419055922615 -48.478823010665067 -14.118518163448467 #
point $-1 -36.326701580143684 -48.478823010665067 -14.118518163448467 #
straight-curve $-1 -36.326701580143684 -39.456923155159046 14.118518163448467 0 1 0 I I #
straight-curve $-1 -64.563737907040618 2.2937161274010371 51.299373523743959 0 0 -1 I I #
point $-1 -64.563737907040618 2.2937161274010371 14.118518163448467 #
straight-curve $-1 -64.563737907040618 -1.2620260061001112 0.8449082988063451 0 -1 0 I I #
point $-1 -64.563737907040618 2.2937161274010371 0.84490829880634211 #
point $-1 -52.293172866663909 -2.5240520122002224 2.6488556052468519 #
straight-curve $-1 -36.326701580143684 -48.478823010665067 0 0 0 -1 I I #
point $-1 -36.326701580143684 -48.478823010665067 14.118518163448467 #
End-of-ACIS-data 