500 0 6 0           
7 Unknown 11 ACIS 5.0 NT 24 Thu Mar 25 20:31:30 1999 
-1 9.9999999999999995e-007 1e-010 
body $-1 $6 $-1 $7 #
body $-1 $8 $-1 $9 #
body $-1 $10 $-1 $11 #
body $-1 $12 $-1 $13 #
body $-1 $14 $-1 $15 #
body $-1 $16 $-1 $17 #
lump $-1 $-1 $18 $0 #
transform $-1 1 0 0 0 1 0 0 0 1 44.38001647999512 23.967944811343415 5.4694635008496126 1 rotate no_reflect no_shear #
lump $-1 $-1 $19 $1 #
transform $-1 1 0 0 0 1 0 0 0 1 44.38001647999512 23.967944811343415 5.4694635008496126 1 rotate no_reflect no_shear #
lump $-1 $-1 $20 $2 #
transform $-1 1 0 0 0 1 0 0 0 1 44.38001647999512 23.967944811343415 5.4694635008496126 1 rotate no_reflect no_shear #
lump $-1 $-1 $21 $3 #
transform $-1 1 0 0 0 1 0 0 0 1 44.38001647999512 23.967944811343415 5.4694635008496126 1 rotate no_reflect no_shear #
lump $-1 $-1 $22 $4 #
transform $-1 1 0 0 0 1 0 0 0 1 44.38001647999512 23.967944811343415 5.4694635008496126 1 rotate no_reflect no_shear #
lump $-1 $-1 $23 $5 #
transform $-1 1 0 0 0 1 0 0 0 1 44.38001647999512 23.967944811343415 5.4694635008496126 1 rotate no_reflect no_shear #
shell $-1 $-1 $-1 $24 $-1 $6 #
shell $-1 $-1 $-1 $25 $-1 $8 #
shell $-1 $-1 $-1 $26 $-1 $10 #
shell $-1 $-1 $-1 $27 $-1 $12 #
shell $-1 $-1 $-1 $28 $-1 $14 #
shell $-1 $-1 $-1 $29 $-1 $16 #
face $-1 $30 $31 $18 $-1 $32 forward single #
face $-1 $33 $34 $19 $-1 $35 forward single #
face $-1 $36 $37 $20 $-1 $38 forward single #
face $-1 $39 $40 $21 $-1 $41 reversed single #
face $-1 $42 $43 $22 $-1 $44 forward single #
face $-1 $45 $46 $23 $-1 $47 forward single #
face $-1 $48 $49 $18 $-1 $50 reversed single #
loop $-1 $-1 $51 $24 #
plane-surface $-1 0 0 5.4694635008496126 0 0 1 1 0 0 forward_v I I I I #
face $-1 $52 $53 $19 $-1 $54 reversed single #
loop $-1 $-1 $55 $25 #
plane-surface $-1 -44.38001647999512 0 0 1 0 0 0 0 -1 forward_v I I I I #
face $-1 $56 $57 $20 $-1 $58 reversed single #
loop $-1 $-1 $59 $26 #
plane-surface $-1 44.38001647999512 0 0 -1 0 0 0 0 1 forward_v I I I I #
face $-1 $60 $61 $21 $-1 $62 reversed single #
loop $-1 $-1 $63 $27 #
plane-surface $-1 -20.102295459055245 -100.83638888200093 46.011050450763804 -1 0 0 0 -0.86602541151947299 0.49999998660252726 forward_v I I I I #
face $-1 $64 $65 $22 $-1 $66 forward single #
loop $-1 $67 $68 $28 #
cone-surface $-1 -29.86742924423093 -22.221064437806742 3.1814255236270319 0 0.86602541151947299 -0.49999998660252726 0.5 0 0 1 I I 0 1 0.5 forward I I I I #
face $-1 $69 $70 $23 $-1 $71 forward single #
loop $-1 $72 $73 $29 #
cone-surface $-1 -24.008348973125521 -22.221064437806742 3.1814255236270319 0 0.86602541151947299 -0.49999998660252726 0.5 0 0 1 I I 0 1 0.5 forward I I I I #
face $-1 $74 $75 $18 $-1 $76 reversed single #
loop $-1 $-1 $77 $30 #
plane-surface $-1 0 0 -5.4694635008496126 0 0 1 1 0 0 forward_v I I I I #
coedge $-1 $78 $79 $80 $81 forward $31 $-1 #
face $-1 $82 $83 $19 $-1 $84 forward single #
loop $-1 $-1 $85 $33 #
plane-surface $-1 0 23.967944811343415 0 0 -1 0 0 0 -1 forward_v I I I I #
coedge $-1 $86 $87 $88 $89 forward $34 $-1 #
face $-1 $90 $91 $20 $-1 $92 forward single #
loop $-1 $-1 $93 $36 #
plane-surface $-1 0 -23.967944811343415 0 0 1 0 0 0 1 forward_v I I I I #
coedge $-1 $94 $95 $96 $97 forward $37 $-1 #
face $-1 $98 $99 $21 $-1 $100 reversed single #
loop $-1 $-1 $101 $39 #
plane-surface $-1 -26.937889108678224 -23.967944811343401 1.6310351599288069 0 -0.86602541151947299 0.49999998660252726 1 0 0 forward_v I I I I #
coedge $-1 $102 $103 $104 $105 reversed $40 $-1 #
face $-1 $-1 $106 $22 $-1 $107 forward single #
loop $-1 $108 $109 $42 #
cone-surface $-1 -29.86742924423093 -21.365736489750891 2.6876017202142188 0 0.86602541151947299 -0.49999998660252726 0.25 0 0 1 I I -0.70710678118654746 0.70710678118654746 0.25 forward I I I I #
loop $-1 $-1 $110 $28 #
coedge $-1 $68 $68 $111 $112 reversed $43 $-1 #
face $-1 $-1 $113 $23 $-1 $114 forward single #
loop $-1 $115 $116 $45 #
cone-surface $-1 -24.008348973125521 -21.365736489750891 2.6876017202142188 0 0.86602541151947299 -0.49999998660252726 0.25 0 0 1 I I -0.70710678118654746 0.70710678118654746 0.25 forward I I I I #
loop $-1 $-1 $117 $29 #
coedge $-1 $73 $73 $118 $119 reversed $46 $-1 #
face $-1 $120 $121 $18 $-1 $122 reversed single #
loop $-1 $-1 $123 $48 #
plane-surface $-1 0 -23.967944811343415 0 0 1 0 0 0 1 forward_v I I I I #
coedge $-1 $124 $125 $126 $127 forward $49 $-1 #
coedge $-1 $128 $51 $129 $130 forward $31 $-1 #
coedge $-1 $51 $128 $131 $132 forward $31 $-1 #
coedge $-1 $133 $134 $51 $81 reversed $135 $-1 #
edge $-1 $136 -23.967944811343415 $137 23.967944811343415 $80 $138 forward 7 unknown #
face $-1 $139 $140 $19 $-1 $141 reversed single #
loop $-1 $-1 $88 $52 #
plane-surface $-1 -47.05294614719017 0 4.9694635008496126 0 0 1 1 0 0 forward_v I I I I #
coedge $-1 $142 $143 $87 $144 forward $53 $-1 #
coedge $-1 $145 $55 $146 $147 reversed $34 $-1 #
coedge $-1 $55 $145 $85 $144 reversed $34 $-1 #
coedge $-1 $148 $149 $55 $89 reversed $83 $-1 #
edge $-1 $150 -23.967944811343415 $151 23.967944811343415 $88 $152 forward 7 unknown #
face $-1 $153 $154 $20 $-1 $155 reversed single #
loop $-1 $-1 $156 $56 #
plane-surface $-1 47.05294614719017 0 4.9694635008496126 0 0 1 1 0 0 forward_v I I I I #
coedge $-1 $157 $158 $95 $159 forward $57 $-1 #
coedge $-1 $160 $59 $161 $162 reversed $37 $-1 #
coedge $-1 $59 $160 $93 $159 reversed $37 $-1 #
coedge $-1 $163 $164 $59 $97 reversed $91 $-1 #
edge $-1 $165 -23.967944811343415 $166 23.967944811343415 $96 $167 forward 7 unknown #
face $-1 $168 $169 $21 $-1 $170 forward single #
loop $-1 $-1 $171 $60 #
plane-surface $-1 -33.773482758301199 -100.83638888200093 46.011050450763804 1 0 0 0 0.86602541151947299 -0.49999998660252726 forward_v I I I I #
coedge $-1 $172 $173 $174 $175 reversed $61 $-1 #
coedge $-1 $103 $63 $176 $177 reversed $40 $-1 #
coedge $-1 $63 $102 $172 $178 reversed $40 $-1 #
coedge $-1 $174 $179 $63 $105 forward $169 $-1 #
edge $-1 $180 26.450249629657051 $181 28.666367186378448 $104 $182 forward 7 unknown #
loop $-1 $-1 $111 $64 #
plane-surface $-1 -26.937889108678224 -23.967944811343401 1.6310351599288069 0 -0.86602541151947299 0.49999998660252726 1 0 0 forward_v I I I I #
loop $-1 $-1 $183 $42 #
coedge $-1 $109 $109 $110 $184 reversed $65 $-1 #
coedge $-1 $110 $110 $109 $184 forward $67 $-1 #
coedge $-1 $111 $111 $68 $112 forward $106 $-1 #
edge $-1 $185 -1.9038930316466688e-015 $185 6.2831853071795987 $111 $186 forward 7 unknown #
loop $-1 $-1 $118 $69 #
plane-surface $-1 -26.937889108678224 -23.967944811343401 1.6310351599288069 0 -0.86602541151947299 0.49999998660252726 1 0 0 forward_v I I I I #
loop $-1 $-1 $187 $45 #
coedge $-1 $116 $116 $117 $188 reversed $70 $-1 #
coedge $-1 $117 $117 $116 $188 forward $72 $-1 #
coedge $-1 $118 $118 $73 $119 forward $113 $-1 #
edge $-1 $189 -1.9038930316466688e-015 $189 6.2831853071795987 $118 $190 forward 7 unknown #
face $-1 $191 $192 $18 $-1 $193 reversed single #
loop $-1 $-1 $194 $74 #
plane-surface $-1 -44.38001647999512 0 0 1 0 0 0 0 -1 forward_v I I I I #
coedge $-1 $195 $131 $196 $197 forward $75 $-1 #
coedge $-1 $198 $77 $195 $199 forward $49 $-1 #
coedge $-1 $77 $198 $200 $201 forward $49 $-1 #
coedge $-1 $134 $133 $77 $127 reversed $135 $-1 #
edge $-1 $202 -23.967944811343415 $203 23.967944811343415 $126 $204 forward 7 unknown #
coedge $-1 $79 $78 $205 $206 forward $31 $-1 #
coedge $-1 $207 $208 $78 $130 reversed $192 $-1 #
edge $-1 $137 -44.38001647999512 $209 44.38001647999512 $129 $210 forward 7 unknown #
coedge $-1 $123 $211 $79 $132 reversed $75 $-1 #
edge $-1 $212 -44.38001647999512 $136 44.38001647999512 $131 $213 forward 7 unknown #
coedge $-1 $126 $80 $211 $214 forward $135 $-1 #
coedge $-1 $80 $126 $207 $215 reversed $135 $-1 #
loop $-1 $-1 $133 $191 #
vertex $-1 $81 $216 #
vertex $-1 $81 $217 #
straight-curve $-1 44.38001647999512 0 5.4694635008496126 0 1 0 I I #
face $-1 $218 $219 $19 $-1 $220 reversed single #
loop $-1 $-1 $221 $82 #
plane-surface $-1 -47.05294614719017 0 1.9694635008496126 0 0 1 1 0 0 forward_v I I I I #
coedge $-1 $222 $85 $223 $224 reversed $53 $-1 #
coedge $-1 $85 $222 $148 $225 reversed $53 $-1 #
edge $-1 $150 -4.9694635008496126 $226 -1.9694635008496126 $85 $227 forward 7 unknown #
coedge $-1 $87 $86 $221 $228 forward $34 $-1 #
coedge $-1 $229 $230 $86 $147 forward $231 $-1 #
edge $-1 $232 1.9694635008496126 $151 4.9694635008496126 $146 $233 forward 7 unknown #
coedge $-1 $234 $88 $143 $225 forward $83 $-1 #
coedge $-1 $88 $234 $229 $235 forward $83 $-1 #
vertex $-1 $144 $236 #
vertex $-1 $235 $237 #
straight-curve $-1 -44.38001647999512 0 4.9694635008496126 0 -1 0 I I #
face $-1 $238 $239 $20 $-1 $240 reversed single #
loop $-1 $-1 $241 $90 #
plane-surface $-1 47.05294614719017 0 1.9694635008496126 0 0 1 1 0 0 forward_v I I I I #
coedge $-1 $164 $163 $242 $243 forward $91 $-1 #
coedge $-1 $244 $93 $245 $246 reversed $57 $-1 #
coedge $-1 $93 $244 $163 $247 reversed $57 $-1 #
edge $-1 $165 -4.9694635008496126 $248 -1.9694635008496126 $93 $249 forward 7 unknown #
coedge $-1 $95 $94 $250 $251 forward $37 $-1 #
coedge $-1 $252 $253 $94 $162 forward $254 $-1 #
edge $-1 $255 1.9694635008496126 $166 4.9694635008496126 $161 $256 forward 7 unknown #
coedge $-1 $156 $96 $158 $247 forward $91 $-1 #
coedge $-1 $96 $156 $252 $257 forward $91 $-1 #
vertex $-1 $159 $258 #
vertex $-1 $257 $259 #
straight-curve $-1 44.38001647999512 0 4.9694635008496126 0 1 0 I I #
face $-1 $-1 $260 $21 $-1 $261 reversed single #
loop $-1 $-1 $104 $98 #
plane-surface $-1 0 0 5.4694635008496126 0 0 1 1 0 0 forward_v I I I I #
coedge $-1 $262 $263 $264 $265 reversed $99 $-1 #
coedge $-1 $266 $101 $103 $178 forward $61 $-1 #
coedge $-1 $101 $266 $262 $267 forward $61 $-1 #
coedge $-1 $264 $104 $101 $175 forward $169 $-1 #
edge $-1 $181 6.6333509047161332 $268 20.304538203962089 $174 $269 forward 7 unknown #
coedge $-1 $270 $271 $102 $177 forward $260 $-1 #
edge $-1 $272 -21.37449006545312 $180 -17.536061724532289 $176 $273 forward 7 unknown #
edge $-1 $181 -4.4322352322042651 $272 2.8450313176714033e-014 $103 $274 forward 7 unknown #
coedge $-1 $104 $264 $270 $275 forward $169 $-1 #
vertex $-1 $177 $276 #
vertex $-1 $105 $277 #
straight-curve $-1 -20.102295459055245 -50.418194441000466 5.4694635008496135 0 1 0 I I #
coedge $-1 $183 $183 $-1 $278 reversed $108 $-1 #
edge $-1 $279 0 $279 6.2831853071796004 $109 $280 forward 7 unknown #
vertex $-1 $112 $281 #
ellipse-curve $-1 -29.86742924423093 -22.859886032982711 3.5502493303892058 0 -0.86602541151947299 0.49999998660252726 0.5 0 0 1 I I #
coedge $-1 $187 $187 $-1 $282 reversed $115 $-1 #
edge $-1 $283 0 $283 6.2831853071796004 $116 $284 forward 7 unknown #
vertex $-1 $119 $285 #
ellipse-curve $-1 -24.008348973125521 -22.859886032982711 3.5502493303892058 0 -0.86602541151947299 0.49999998660252726 0.5 0 0 1 I I #
face $-1 $-1 $135 $18 $-1 $286 reversed single #
loop $-1 $-1 $207 $120 #
plane-surface $-1 0 23.967944811343415 0 0 -1 0 0 0 -1 forward_v I I I I #
coedge $-1 $287 $205 $208 $288 forward $121 $-1 #
coedge $-1 $211 $123 $124 $199 reversed $75 $-1 #
coedge $-1 $205 $287 $123 $197 reversed $121 $-1 #
edge $-1 $212 -5.4694635008496126 $289 5.4694635008496126 $196 $290 forward 7 unknown #
coedge $-1 $125 $124 $287 $291 forward $49 $-1 #
edge $-1 $203 -44.38001647999512 $289 44.38001647999512 $195 $292 forward 7 unknown #
coedge $-1 $208 $207 $125 $201 reversed $192 $-1 #
edge $-1 $293 -44.38001647999512 $202 44.38001647999512 $200 $294 forward 7 unknown #
vertex $-1 $127 $295 #
vertex $-1 $214 $296 #
straight-curve $-1 44.38001647999512 0 -5.4694635008496126 0 -1 0 I I #
coedge $-1 $194 $196 $128 $206 reversed $121 $-1 #
edge $-1 $209 -23.967944811343415 $212 23.967944811343415 $205 $297 forward 7 unknown #
coedge $-1 $200 $129 $134 $215 forward $192 $-1 #
coedge $-1 $129 $200 $194 $288 reversed $192 $-1 #
vertex $-1 $130 $298 #
straight-curve $-1 0 23.967944811343415 5.4694635008496126 -1 0 0 I I #
coedge $-1 $131 $195 $133 $214 reversed $75 $-1 #
vertex $-1 $206 $299 #
straight-curve $-1 0 -23.967944811343415 5.4694635008496126 1 0 0 I I #
edge $-1 $136 -5.4694635008496126 $203 5.4694635008496126 $133 $300 forward 7 unknown #
edge $-1 $137 -5.4694635008496126 $202 5.4694635008496126 $134 $301 forward 7 unknown #
point $-1 44.38001647999512 -23.967944811343415 5.4694635008496126 #
point $-1 44.38001647999512 23.967944811343415 5.4694635008496126 #
face $-1 $-1 $231 $19 $-1 $302 reversed single #
loop $-1 $-1 $303 $139 #
plane-surface $-1 -49.725875814385219 0 3.4694635008496126 1 0 0 0 0 -1 forward_v I I I I #
coedge $-1 $304 $223 $145 $228 reversed $140 $-1 #
coedge $-1 $143 $142 $303 $305 reversed $53 $-1 #
coedge $-1 $221 $306 $142 $224 forward $140 $-1 #
edge $-1 $307 -2.6729296671950493 $226 2.6729296671950493 $142 $308 forward 7 unknown #
edge $-1 $150 -2.6729296671950493 $309 2.6729296671950493 $143 $310 forward 7 unknown #
vertex $-1 $144 $311 #
straight-curve $-1 -44.38001647999512 23.967944811343415 0 0 0 -1 I I #
edge $-1 $232 -23.967944811343415 $226 23.967944811343415 $221 $312 forward 7 unknown #
coedge $-1 $313 $146 $149 $235 reversed $231 $-1 #
coedge $-1 $146 $313 $304 $314 reversed $231 $-1 #
loop $-1 $-1 $146 $218 #
vertex $-1 $147 $315 #
straight-curve $-1 -44.38001647999512 -23.967944811343415 0 0 0 1 I I #
coedge $-1 $149 $148 $316 $317 forward $83 $-1 #
edge $-1 $318 -2.6729296671950493 $151 2.6729296671950493 $229 $319 forward 7 unknown #
point $-1 -44.38001647999512 23.967944811343415 4.9694635008496126 #
point $-1 -44.38001647999512 -23.967944811343415 4.9694635008496126 #
face $-1 $-1 $254 $20 $-1 $320 reversed single #
loop $-1 $-1 $321 $153 #
plane-surface $-1 49.725875814385219 0 3.4694635008496126 -1 0 0 0 0 1 forward_v I I I I #
coedge $-1 $245 $322 $323 $324 forward $154 $-1 #
coedge $-1 $321 $325 $156 $243 reversed $239 $-1 #
edge $-1 $326 -23.967944811343415 $327 23.967944811343415 $242 $328 forward 7 unknown #
coedge $-1 $158 $157 $321 $329 reversed $57 $-1 #
coedge $-1 $250 $241 $157 $246 forward $154 $-1 #
edge $-1 $330 -2.6729296671950493 $248 2.6729296671950493 $157 $331 forward 7 unknown #
edge $-1 $165 -2.6729296671950493 $326 2.6729296671950493 $158 $332 forward 7 unknown #
vertex $-1 $159 $333 #
straight-curve $-1 44.38001647999512 -23.967944811343415 0 0 0 -1 I I #
coedge $-1 $322 $245 $160 $251 reversed $154 $-1 #
edge $-1 $255 -23.967944811343415 $248 23.967944811343415 $250 $334 forward 7 unknown #
coedge $-1 $335 $161 $164 $257 reversed $254 $-1 #
coedge $-1 $161 $335 $322 $336 reversed $254 $-1 #
loop $-1 $-1 $161 $238 #
vertex $-1 $162 $337 #
straight-curve $-1 44.38001647999512 23.967944811343415 0 0 0 1 I I #
edge $-1 $327 -2.6729296671950493 $166 2.6729296671950493 $252 $338 forward 7 unknown #
point $-1 44.38001647999512 -23.967944811343415 4.9694635008496126 #
point $-1 44.38001647999512 23.967944811343415 4.9694635008496126 #
loop $-1 $-1 $176 $168 #
plane-surface $-1 0 -23.967944811343415 0 0 1 0 0 0 1 forward_v I I I I #
coedge $-1 $263 $171 $173 $267 reversed $99 $-1 #
coedge $-1 $171 $262 $339 $340 reversed $99 $-1 #
coedge $-1 $179 $174 $171 $265 forward $169 $-1 #
edge $-1 $268 -28.666367186378448 $341 -26.450249629657051 $264 $342 forward 7 unknown #
coedge $-1 $173 $172 $271 $343 reversed $61 $-1 #
edge $-1 $344 -2.8450313176714033e-014 $268 4.4322352322042651 $262 $345 forward 7 unknown #
vertex $-1 $175 $346 #
straight-curve $-1 -13.468944554339112 -21.751827254622018 5.4694635008496126 -1 0 0 I I #
coedge $-1 $339 $176 $179 $275 reversed $260 $-1 #
coedge $-1 $176 $339 $266 $343 forward $260 $-1 #
vertex $-1 $177 $347 #
straight-curve $-1 -20.102295459055245 -23.967944811343415 23.005525225381902 0 0 1 I I #
straight-curve $-1 -20.102295459055245 -23.967944811343401 1.6310351599288069 0 -0.49999998660252726 -0.86602541151947299 I I #
edge $-1 $341 -33.773482758301199 $180 -20.102295459055245 $270 $348 forward 7 unknown #
point $-1 -20.102295459055245 -23.967944811343415 5.4694635008496126 #
point $-1 -20.102295459055245 -21.751827254622018 5.4694635008496126 #
edge $-1 $349 1 $349 0 $183 $-1 forward 7 unknown #
vertex $-1 $184 $350 #
ellipse-curve $-1 -29.86742924423093 -21.582242842630759 2.8126017168648505 0 -0.86602541151947299 0.49999998660252726 0.5 0 0 1 I I #
point $-1 -29.36742924423093 -22.859886032982725 3.5502493303892129 #
edge $-1 $351 1 $351 0 $187 $-1 forward 7 unknown #
vertex $-1 $188 $352 #
ellipse-curve $-1 -24.008348973125521 -21.582242842630759 2.8126017168648505 0 -0.86602541151947299 0.49999998660252726 0.5 0 0 1 I I #
point $-1 -23.508348973125521 -22.859886032982725 3.5502493303892129 #
plane-surface $-1 44.38001647999512 0 0 -1 0 0 0 0 1 forward_v I I I I #
coedge $-1 $196 $194 $198 $291 reversed $121 $-1 #
edge $-1 $209 -5.4694635008496126 $293 5.4694635008496126 $208 $353 forward 7 unknown #
vertex $-1 $291 $354 #
straight-curve $-1 -44.38001647999512 -23.967944811343415 0 0 0 -1 I I #
edge $-1 $289 -23.967944811343415 $293 23.967944811343415 $287 $355 forward 7 unknown #
straight-curve $-1 0 -23.967944811343415 -5.4694635008496126 -1 0 0 I I #
vertex $-1 $201 $356 #
straight-curve $-1 0 23.967944811343415 -5.4694635008496126 1 0 0 I I #
point $-1 44.38001647999512 23.967944811343415 -5.4694635008496126 #
point $-1 44.38001647999512 -23.967944811343415 -5.4694635008496126 #
straight-curve $-1 -44.38001647999512 0 5.4694635008496126 0 -1 0 I I #
point $-1 -44.38001647999512 23.967944811343415 5.4694635008496126 #
point $-1 -44.38001647999512 -23.967944811343415 5.4694635008496126 #
straight-curve $-1 44.38001647999512 -23.967944811343415 0 0 0 -1 I I #
straight-curve $-1 44.38001647999512 23.967944811343415 0 0 0 -1 I I #
plane-surface $-1 0 -23.967944811343415 0 0 1 0 0 0 1 forward_v I I I I #
coedge $-1 $357 $316 $222 $305 forward $219 $-1 #
coedge $-1 $306 $221 $230 $314 forward $140 $-1 #
edge $-1 $309 -1.5 $307 1.5 $222 $358 forward 7 unknown #
coedge $-1 $223 $304 $357 $359 forward $140 $-1 #
vertex $-1 $224 $360 #
straight-curve $-1 -47.05294614719017 23.967944811343415 1.9694635008496126 1 0 0 I I #
vertex $-1 $225 $361 #
straight-curve $-1 -47.05294614719017 23.967944811343415 4.9694635008496126 -1 0 0 I I #
point $-1 -44.38001647999512 23.967944811343415 1.9694635008496126 #
straight-curve $-1 -44.38001647999512 0 1.9694635008496126 0 1 0 I I #
coedge $-1 $230 $229 $362 $363 forward $231 $-1 #
edge $-1 $232 -2.6729296671950493 $364 2.6729296671950493 $230 $365 forward 7 unknown #
point $-1 -44.38001647999512 -23.967944811343415 1.9694635008496126 #
coedge $-1 $303 $362 $234 $317 reversed $219 $-1 #
edge $-1 $309 -23.967944811343415 $318 23.967944811343415 $316 $366 forward 7 unknown #
vertex $-1 $317 $367 #
straight-curve $-1 -47.05294614719017 -23.967944811343415 4.9694635008496126 1 0 0 I I #
plane-surface $-1 0 23.967944811343415 0 0 -1 0 0 0 -1 forward_v I I I I #
coedge $-1 $323 $242 $244 $329 forward $239 $-1 #
coedge $-1 $241 $250 $253 $336 forward $154 $-1 #
coedge $-1 $325 $321 $241 $324 reversed $239 $-1 #
edge $-1 $368 -23.967944811343415 $330 23.967944811343415 $323 $369 forward 7 unknown #
coedge $-1 $242 $323 $335 $370 reversed $239 $-1 #
vertex $-1 $243 $371 #
vertex $-1 $243 $372 #
straight-curve $-1 49.725875814385219 0 4.9694635008496126 0 1 0 I I #
edge $-1 $326 -1.5 $330 1.5 $321 $373 forward 7 unknown #
vertex $-1 $329 $374 #
straight-curve $-1 47.05294614719017 -23.967944811343415 1.9694635008496126 -1 0 0 I I #
straight-curve $-1 47.05294614719017 -23.967944811343415 4.9694635008496126 1 0 0 I I #
point $-1 44.38001647999512 -23.967944811343415 1.9694635008496126 #
straight-curve $-1 44.38001647999512 0 1.9694635008496126 0 -1 0 I I #
coedge $-1 $253 $252 $325 $370 forward $254 $-1 #
edge $-1 $255 -2.6729296671950493 $368 2.6729296671950493 $253 $375 forward 7 unknown #
point $-1 44.38001647999512 23.967944811343415 1.9694635008496126 #
straight-curve $-1 47.05294614719017 23.967944811343415 4.9694635008496126 -1 0 0 I I #
coedge $-1 $271 $270 $263 $340 forward $260 $-1 #
edge $-1 $341 17.536061724532289 $344 21.37449006545312 $339 $376 forward 7 unknown #
vertex $-1 $275 $377 #
straight-curve $-1 -33.773482758301199 -50.418194441000466 5.4694635008496135 0 -1 0 I I #
edge $-1 $344 -20.304538203962089 $272 -6.6333509047161332 $271 $378 forward 7 unknown #
vertex $-1 $343 $379 #
straight-curve $-1 -33.773482758301199 -23.967944811343401 1.6310351599288069 0 0.49999998660252726 0.86602541151947299 I I #
point $-1 -33.773482758301199 -21.751827254622018 5.4694635008496126 #
point $-1 -20.102295459055245 -23.967944811343415 1.6310351599287822 #
straight-curve $-1 0 -23.967944811343415 5.4694635008496126 1 0 0 I I #
vertex $-1 $278 $380 #
point $-1 -29.36742924423093 -21.582242842630759 2.8126017168648505 #
vertex $-1 $282 $381 #
point $-1 -23.508348973125521 -21.582242842630759 2.8126017168648505 #
straight-curve $-1 -44.38001647999512 23.967944811343415 0 0 0 -1 I I #
point $-1 -44.38001647999512 -23.967944811343415 -5.4694635008496126 #
straight-curve $-1 -44.38001647999512 0 -5.4694635008496126 0 1 0 I I #
point $-1 -44.38001647999512 23.967944811343415 -5.4694635008496126 #
coedge $-1 $362 $303 $306 $359 reversed $219 $-1 #
straight-curve $-1 -49.725875814385219 23.967944811343415 3.4694635008496126 0 0 -1 I I #
edge $-1 $364 -23.967944811343415 $307 23.967944811343415 $357 $382 forward 7 unknown #
point $-1 -49.725875814385219 23.967944811343415 1.9694635008496126 #
point $-1 -49.725875814385219 23.967944811343415 4.9694635008496126 #
coedge $-1 $316 $357 $313 $363 reversed $219 $-1 #
edge $-1 $318 -1.5 $364 1.5 $362 $383 forward 7 unknown #
vertex $-1 $359 $384 #
straight-curve $-1 -47.05294614719017 -23.967944811343415 1.9694635008496126 -1 0 0 I I #
straight-curve $-1 -49.725875814385219 0 4.9694635008496126 0 -1 0 I I #
point $-1 -49.725875814385219 -23.967944811343415 4.9694635008496126 #
vertex $-1 $324 $385 #
straight-curve $-1 49.725875814385219 0 1.9694635008496126 0 -1 0 I I #
edge $-1 $327 -1.5 $368 1.5 $325 $386 forward 7 unknown #
point $-1 49.725875814385219 -23.967944811343415 4.9694635008496126 #
point $-1 49.725875814385219 23.967944811343415 4.9694635008496126 #
straight-curve $-1 49.725875814385219 -23.967944811343415 3.4694635008496126 0 0 -1 I I #
point $-1 49.725875814385219 -23.967944811343415 1.9694635008496126 #
straight-curve $-1 47.05294614719017 23.967944811343415 1.9694635008496126 1 0 0 I I #
straight-curve $-1 -33.773482758301199 -23.967944811343415 23.005525225381902 0 0 -1 I I #
point $-1 -33.773482758301199 -23.967944811343415 5.4694635008496126 #
straight-curve $-1 -13.468944554339112 -23.967944811343415 1.6310351599287829 1 0 0 I I #
point $-1 -33.773482758301199 -23.967944811343415 1.6310351599287822 #
point $-1 -29.86742924423093 -21.149230136871022 2.5626017235635872 #
point $-1 -24.008348973125521 -21.149230136871022 2.5626017235635872 #
straight-curve $-1 -49.725875814385219 0 1.9694635008496126 0 1 0 I I #
straight-curve $-1 -49.725875814385219 -23.967944811343415 3.4694635008496126 0 0 -1 I I #
point $-1 -49.725875814385219 -23.967944811343415 1.9694635008496126 #
point $-1 49.725875814385219 23.967944811343415 1.9694635008496126 #
straight-curve $-1 49.725875814385219 23.967944811343415 3.4694635008496126 0 0 -1 I I #
End-of-ACIS-data 