500 0 14 0           
7 Unknown 11 ACIS 5.0 NT 24 Thu Mar 25 17:33:28 1999 
-1 9.9999999999999995e-007 1e-010 
body $-1 $14 $-1 $15 #
body $-1 $16 $-1 $17 #
body $-1 $18 $-1 $19 #
body $-1 $20 $-1 $21 #
body $-1 $22 $-1 $23 #
body $-1 $24 $-1 $25 #
body $-1 $26 $-1 $27 #
body $-1 $28 $-1 $29 #
body $-1 $30 $-1 $31 #
body $-1 $32 $-1 $33 #
body $-1 $34 $-1 $35 #
body $-1 $36 $-1 $37 #
body $-1 $38 $-1 $39 #
body $-1 $40 $-1 $41 #
lump $-1 $-1 $42 $0 #
transform $-1 1 0 0 0 1 0 0 0 1 60.586565752128664 26.422376921839614 8.6226117332353649 1 rotate no_reflect no_shear #
lump $-1 $-1 $43 $1 #
transform $-1 1 0 0 0 1 0 0 0 1 60.586565752128664 26.422376921839614 8.6226117332353649 1 rotate no_reflect no_shear #
lump $-1 $-1 $44 $2 #
transform $-1 1 0 0 0 1 0 0 0 1 60.586565752128664 26.422376921839614 8.6226117332353649 1 rotate no_reflect no_shear #
lump $-1 $-1 $45 $3 #
transform $-1 1 0 0 0 1 0 0 0 1 60.586565752128664 26.422376921839614 8.6226117332353649 1 rotate no_reflect no_shear #
lump $-1 $-1 $46 $4 #
transform $-1 1 0 0 0 1 0 0 0 1 60.586565752128664 26.422376921839614 8.6226117332353649 1 rotate no_reflect no_shear #
lump $-1 $-1 $47 $5 #
transform $-1 1 0 0 0 1 0 0 0 1 60.586565752128664 26.422376921839614 8.6226117332353649 1 rotate no_reflect no_shear #
lump $-1 $-1 $48 $6 #
transform $-1 1 0 0 0 1 0 0 0 1 60.586565752128664 26.422376921839614 8.6226117332353649 1 rotate no_reflect no_shear #
lump $-1 $-1 $49 $7 #
transform $-1 1 0 0 0 1 0 0 0 1 60.586565752128664 26.422376921839614 8.6226117332353649 1 rotate no_reflect no_shear #
lump $-1 $-1 $50 $8 #
transform $-1 1 0 0 0 1 0 0 0 1 60.586565752128664 26.422376921839614 8.6226117332353649 1 rotate no_reflect no_shear #
lump $-1 $-1 $51 $9 #
transform $-1 1 0 0 0 1 0 0 0 1 60.586565752128664 26.422376921839614 8.6226117332353649 1 rotate no_reflect no_shear #
lump $-1 $-1 $52 $10 #
transform $-1 1 0 0 0 1 0 0 0 1 60.586565752128664 26.422376921839614 8.6226117332353649 1 rotate no_reflect no_shear #
lump $-1 $-1 $53 $11 #
transform $-1 1 0 0 0 1 0 0 0 1 60.586565752128664 26.422376921839614 8.6226117332353649 1 rotate no_reflect no_shear #
lump $-1 $-1 $54 $12 #
transform $-1 1 0 0 0 1 0 0 0 1 60.586565752128664 26.422376921839614 8.6226117332353649 1 rotate no_reflect no_shear #
lump $-1 $-1 $55 $13 #
transform $-1 1 0 0 0 1 0 0 0 1 60.586565752128664 26.422376921839614 8.6226117332353649 1 rotate no_reflect no_shear #
shell $-1 $-1 $-1 $56 $-1 $14 #
shell $-1 $-1 $-1 $57 $-1 $16 #
shell $-1 $-1 $-1 $58 $-1 $18 #
shell $-1 $-1 $-1 $59 $-1 $20 #
shell $-1 $-1 $-1 $60 $-1 $22 #
shell $-1 $-1 $-1 $61 $-1 $24 #
shell $-1 $-1 $-1 $62 $-1 $26 #
shell $-1 $-1 $-1 $63 $-1 $28 #
shell $-1 $-1 $-1 $64 $-1 $30 #
shell $-1 $-1 $-1 $65 $-1 $32 #
shell $-1 $-1 $-1 $66 $-1 $34 #
shell $-1 $-1 $-1 $67 $-1 $36 #
shell $-1 $-1 $-1 $68 $-1 $38 #
shell $-1 $-1 $-1 $69 $-1 $40 #
face $-1 $70 $71 $42 $-1 $72 forward single #
face $-1 $73 $74 $43 $-1 $75 reversed single #
face $-1 $76 $77 $44 $-1 $78 reversed single #
face $-1 $79 $80 $45 $-1 $81 forward single #
face $-1 $82 $83 $46 $-1 $84 forward single #
face $-1 $85 $86 $47 $-1 $87 forward single #
face $-1 $88 $89 $48 $-1 $90 reversed single #
face $-1 $91 $92 $49 $-1 $93 forward single #
face $-1 $94 $95 $50 $-1 $96 forward single #
face $-1 $97 $98 $51 $-1 $99 forward single #
face $-1 $100 $101 $52 $-1 $102 reversed single #
face $-1 $103 $104 $53 $-1 $105 forward single #
face $-1 $106 $107 $54 $-1 $108 forward single #
face $-1 $109 $110 $55 $-1 $111 forward single #
face $-1 $112 $113 $42 $-1 $114 reversed single #
loop $-1 $-1 $115 $56 #
plane-surface $-1 0 0 8.6226117332353649 0 0 1 1 0 0 forward_v I I I I #
face $-1 $116 $117 $43 $-1 $118 reversed single #
loop $-1 $-1 $119 $57 #
plane-surface $-1 -49.266895170911894 -24.922376921839614 0 -1 0 0 0 0 1 forward_v I I I I #
face $-1 $120 $121 $44 $-1 $122 reversed single #
loop $-1 $-1 $123 $58 #
plane-surface $-1 -35.322408562731447 -26.422376921839614 3.3095282601065179 0 -0.84804810408105047 0.52991925155115449 1 0 0 forward_v I I I I #
face $-1 $124 $125 $45 $-1 $126 forward single #
loop $-1 $127 $128 $59 #
cone-surface $-1 -43.689100527639717 -24.180706300672664 5.6025965270639544 0 0.84804810408105047 -0.52991925155115449 1 0 0 1 I I 0 1 1 forward I I I I #
face $-1 $129 $130 $46 $-1 $131 forward single #
loop $-1 $132 $133 $60 #
cone-surface $-1 -35.322408562731447 -24.180706300672664 5.6025965270639544 0 0.84804810408105047 -0.52991925155115449 1 0 0 1 I I 0 1 1 forward I I I I #
face $-1 $134 $135 $47 $-1 $136 forward single #
loop $-1 $137 $138 $61 #
cone-surface $-1 -26.955716597823177 -24.180706300672664 5.6025965270639544 0 0.84804810408105047 -0.52991925155115449 1 0 0 1 I I 0 1 1 forward I I I I #
face $-1 $139 $140 $48 $-1 $141 reversed single #
loop $-1 $-1 $142 $62 #
plane-surface $-1 -37.493749598055587 57.142492150808465 129.28324150059885 1 0 0 0 -0.6018150307709319 -0.79863550430605224 forward_v I I I I #
face $-1 $143 $144 $49 $-1 $145 forward single #
loop $-1 $146 $147 $63 #
cone-surface $-1 -32.638130741929984 20.163673668858017 3.3289942385977387 0 -0.6018150307709319 -0.79863550430605224 1.5 0 0 1 I I 0 1 1.5 forward I I I I #
face $-1 $148 $149 $50 $-1 $150 forward single #
loop $-1 $151 $152 $64 #
cone-surface $-1 -25.354702457741595 20.163673668858017 3.3289942385977387 0 -0.6018150307709319 -0.79863550430605224 1.5 0 0 1 I I 0 1 1.5 forward I I I I #
face $-1 $153 $154 $51 $-1 $155 forward single #
loop $-1 $156 $157 $65 #
cone-surface $-1 -18.071274173553206 20.163673668858017 3.3289942385977387 0 -0.6018150307709319 -0.79863550430605224 1.5 0 0 1 I I 0 1 1.5 forward I I I I #
face $-1 $158 $159 $52 $-1 $160 reversed single #
loop $-1 $-1 $161 $66 #
plane-surface $-1 17.432980863464696 57.142492150808465 129.28324150059885 1 0 0 0 -0.6018150307709319 -0.79863550430605224 forward_v I I I I #
face $-1 $162 $163 $53 $-1 $164 forward single #
loop $-1 $165 $166 $67 #
cone-surface $-1 22.288599719590295 20.163673668858017 3.3289942385977387 0 -0.6018150307709319 -0.79863550430605224 1.5 0 0 1 I I 0 1 1.5 forward I I I I #
face $-1 $167 $168 $54 $-1 $169 forward single #
loop $-1 $170 $171 $68 #
cone-surface $-1 29.572028003778684 20.163673668858017 3.3289942385977387 0 -0.6018150307709319 -0.79863550430605224 1.5 0 0 1 I I 0 1 1.5 forward I I I I #
face $-1 $172 $173 $55 $-1 $174 forward single #
loop $-1 $175 $176 $69 #
cone-surface $-1 36.855456287967073 20.163673668858017 3.3289942385977387 0 -0.6018150307709319 -0.79863550430605224 1.5 0 0 1 I I 0 1 1.5 forward I I I I #
face $-1 $177 $178 $42 $-1 $179 reversed single #
loop $-1 $-1 $180 $70 #
plane-surface $-1 0 0 -8.6226117332353649 0 0 1 1 0 0 forward_v I I I I #
coedge $-1 $181 $182 $183 $184 forward $71 $-1 #
face $-1 $185 $186 $43 $-1 $187 forward single #
loop $-1 $-1 $188 $73 #
plane-surface $-1 -54.926730461520279 -23.422376921839614 0 0 -1 0 0 0 -1 forward_v I I I I #
coedge $-1 $189 $190 $191 $192 reversed $74 $-1 #
face $-1 $193 $194 $44 $-1 $195 forward single #
loop $-1 $-1 $196 $76 #
plane-surface $-1 -21.377921954550999 -129.18302135958885 67.521503414952178 -1 0 0 0 -0.84804810408105047 0.52991925155115449 forward_v I I I I #
coedge $-1 $197 $198 $199 $200 reversed $77 $-1 #
face $-1 $-1 $201 $45 $-1 $202 forward single #
loop $-1 $203 $204 $79 #
cone-surface $-1 -43.689100527639717 -23.175003085473424 4.9741634316813883 0 0.84804810408105047 -0.52991925155115449 0.5 0 0 1 I I -0.70710678118654746 0.70710678118654746 0.5 forward I I I I #
loop $-1 $-1 $205 $59 #
coedge $-1 $128 $128 $206 $207 reversed $80 $-1 #
face $-1 $-1 $208 $46 $-1 $209 forward single #
loop $-1 $210 $211 $82 #
cone-surface $-1 -35.322408562731447 -23.175003085473424 4.9741634316813883 0 0.84804810408105047 -0.52991925155115449 0.5 0 0 1 I I -0.70710678118654746 0.70710678118654746 0.5 forward I I I I #
loop $-1 $-1 $212 $60 #
coedge $-1 $133 $133 $213 $214 reversed $83 $-1 #
face $-1 $-1 $215 $47 $-1 $216 forward single #
loop $-1 $217 $218 $85 #
cone-surface $-1 -26.955716597823177 -23.175003085473424 4.9741634316813883 0 0.84804810408105047 -0.52991925155115449 0.5 0 0 1 I I -0.70710678118654746 0.70710678118654746 0.5 forward I I I I #
loop $-1 $-1 $219 $61 #
coedge $-1 $138 $138 $220 $221 reversed $86 $-1 #
face $-1 $222 $223 $48 $-1 $224 reversed single #
loop $-1 $-1 $225 $88 #
plane-surface $-1 -25.354702457741595 -15.781319714036343 32.510076513352715 0 0.6018150307709319 0.79863550430605224 1 0 0 forward_v I I I I #
coedge $-1 $226 $227 $228 $229 reversed $89 $-1 #
face $-1 $-1 $230 $49 $-1 $231 forward single #
loop $-1 $232 $233 $91 #
cone-surface $-1 -32.638130741929984 18.705589556287428 1.3940513059299651 0 -0.6018150307709319 -0.79863550430605224 0.75 0 0 1 I I -0.70710678118654757 0.70710678118654757 0.75 forward I I I I #
loop $-1 $-1 $234 $63 #
coedge $-1 $147 $147 $235 $236 reversed $92 $-1 #
face $-1 $-1 $237 $50 $-1 $238 forward single #
loop $-1 $239 $240 $94 #
cone-surface $-1 -25.354702457741595 18.705589556287428 1.3940513059299651 0 -0.6018150307709319 -0.79863550430605224 0.75 0 0 1 I I -0.70710678118654757 0.70710678118654757 0.75 forward I I I I #
loop $-1 $-1 $241 $64 #
coedge $-1 $152 $152 $242 $243 reversed $95 $-1 #
face $-1 $-1 $244 $51 $-1 $245 forward single #
loop $-1 $246 $247 $97 #
cone-surface $-1 -18.071274173553206 18.705589556287428 1.3940513059299651 0 -0.6018150307709319 -0.79863550430605224 0.75 0 0 1 I I -0.70710678118654757 0.70710678118654757 0.75 forward I I I I #
loop $-1 $-1 $248 $65 #
coedge $-1 $157 $157 $249 $250 reversed $98 $-1 #
face $-1 $251 $252 $52 $-1 $253 reversed single #
loop $-1 $-1 $254 $100 #
plane-surface $-1 29.572028003778684 -15.781319714036343 32.510076513352715 0 0.6018150307709319 0.79863550430605224 1 0 0 forward_v I I I I #
coedge $-1 $255 $256 $257 $258 reversed $101 $-1 #
face $-1 $-1 $259 $53 $-1 $260 forward single #
loop $-1 $261 $262 $103 #
cone-surface $-1 22.288599719590295 18.705589556287428 1.3940513059299651 0 -0.6018150307709319 -0.79863550430605224 0.75 0 0 1 I I -0.70710678118654757 0.70710678118654757 0.75 forward I I I I #
loop $-1 $-1 $263 $67 #
coedge $-1 $166 $166 $264 $265 reversed $104 $-1 #
face $-1 $-1 $266 $54 $-1 $267 forward single #
loop $-1 $268 $269 $106 #
cone-surface $-1 29.572028003778684 18.705589556287428 1.3940513059299651 0 -0.6018150307709319 -0.79863550430605224 0.75 0 0 1 I I -0.70710678118654757 0.70710678118654757 0.75 forward I I I I #
loop $-1 $-1 $270 $68 #
coedge $-1 $171 $171 $271 $272 reversed $107 $-1 #
face $-1 $-1 $273 $55 $-1 $274 forward single #
loop $-1 $275 $276 $109 #
cone-surface $-1 36.855456287967073 18.705589556287428 1.3940513059299651 0 -0.6018150307709319 -0.79863550430605224 0.75 0 0 1 I I -0.70710678118654757 0.70710678118654757 0.75 forward I I I I #
loop $-1 $-1 $277 $69 #
coedge $-1 $176 $176 $278 $279 reversed $110 $-1 #
face $-1 $280 $281 $42 $-1 $282 reversed single #
loop $-1 $-1 $283 $112 #
plane-surface $-1 0 -26.422376921839614 0 0 1 0 0 0 1 forward_v I I I I #
coedge $-1 $284 $285 $286 $287 forward $113 $-1 #
coedge $-1 $288 $115 $289 $290 forward $71 $-1 #
coedge $-1 $115 $288 $291 $292 forward $71 $-1 #
coedge $-1 $293 $294 $115 $184 reversed $295 $-1 #
edge $-1 $296 -26.422376921839614 $297 26.422376921839614 $183 $298 forward 7 unknown #
face $-1 $299 $300 $43 $-1 $301 reversed single #
loop $-1 $-1 $302 $116 #
plane-surface $-1 0 0 8.6226117332353649 0 0 1 1 0 0 forward_v I I I I #
coedge $-1 $303 $304 $305 $306 forward $117 $-1 #
coedge $-1 $305 $119 $307 $308 reversed $74 $-1 #
coedge $-1 $119 $305 $302 $309 reversed $74 $-1 #
coedge $-1 $310 $311 $119 $192 forward $312 $-1 #
edge $-1 $313 -8.6226117332353649 $314 8.6226117332353649 $191 $315 forward 7 unknown #
face $-1 $316 $317 $44 $-1 $318 forward single #
loop $-1 $-1 $319 $120 #
plane-surface $-1 0 0 8.6226117332353649 0 0 1 1 0 0 forward_v I I I I #
coedge $-1 $320 $321 $322 $323 reversed $121 $-1 #
coedge $-1 $324 $123 $325 $326 reversed $77 $-1 #
coedge $-1 $123 $324 $320 $327 forward $77 $-1 #
coedge $-1 $322 $328 $123 $200 forward $329 $-1 #
edge $-1 $330 -31.605690889546171 $331 -3.7167176731852756 $199 $332 forward 7 unknown #
loop $-1 $-1 $206 $124 #
plane-surface $-1 -35.322408562731447 -26.422376921839614 3.3095282601065179 0 -0.84804810408105047 0.52991925155115449 1 0 0 forward_v I I I I #
loop $-1 $-1 $333 $79 #
coedge $-1 $204 $204 $205 $334 reversed $125 $-1 #
coedge $-1 $205 $205 $204 $334 forward $127 $-1 #
coedge $-1 $206 $206 $128 $207 forward $201 $-1 #
edge $-1 $335 7.5321802491239463e-016 $335 6.2831853071796013 $206 $336 forward 7 unknown #
loop $-1 $-1 $213 $129 #
plane-surface $-1 -35.322408562731447 -26.422376921839614 3.3095282601065179 0 -0.84804810408105047 0.52991925155115449 1 0 0 forward_v I I I I #
loop $-1 $-1 $337 $82 #
coedge $-1 $211 $211 $212 $338 reversed $130 $-1 #
coedge $-1 $212 $212 $211 $338 forward $132 $-1 #
coedge $-1 $213 $213 $133 $214 forward $208 $-1 #
edge $-1 $339 7.5321802491239463e-016 $339 6.2831853071796013 $213 $340 forward 7 unknown #
loop $-1 $-1 $220 $134 #
plane-surface $-1 -35.322408562731447 -26.422376921839614 3.3095282601065179 0 -0.84804810408105047 0.52991925155115449 1 0 0 forward_v I I I I #
loop $-1 $-1 $341 $85 #
coedge $-1 $218 $218 $219 $342 reversed $135 $-1 #
coedge $-1 $219 $219 $218 $342 forward $137 $-1 #
coedge $-1 $220 $220 $138 $221 forward $215 $-1 #
edge $-1 $343 7.5321802491239463e-016 $343 6.2831853071796013 $220 $344 forward 7 unknown #
face $-1 $345 $346 $48 $-1 $347 reversed single #
loop $-1 $-1 $348 $139 #
plane-surface $-1 -13.215655317427608 57.142492150808465 129.28324150059885 -1 0 0 0 0.6018150307709319 0.79863550430605224 forward_v I I I I #
coedge $-1 $349 $350 $351 $352 reversed $140 $-1 #
coedge $-1 $227 $142 $353 $354 reversed $89 $-1 #
coedge $-1 $142 $226 $349 $355 reversed $89 $-1 #
coedge $-1 $351 $356 $142 $229 forward $357 $-1 #
edge $-1 $358 2.1488691535646183 $359 12.652829980543043 $228 $360 forward 7 unknown #
loop $-1 $-1 $235 $143 #
plane-surface $-1 -25.354702457741595 -15.781319714036343 32.510076513352715 0 0.6018150307709319 0.79863550430605224 1 0 0 forward_v I I I I #
loop $-1 $-1 $361 $91 #
coedge $-1 $233 $233 $234 $362 reversed $144 $-1 #
coedge $-1 $234 $234 $233 $362 forward $146 $-1 #
coedge $-1 $235 $235 $147 $236 forward $230 $-1 #
edge $-1 $363 -3.5634608198793902e-016 $363 6.2831853071796004 $235 $364 forward 7 unknown #
loop $-1 $-1 $242 $148 #
plane-surface $-1 -25.354702457741595 -15.781319714036343 32.510076513352715 0 0.6018150307709319 0.79863550430605224 1 0 0 forward_v I I I I #
loop $-1 $-1 $365 $94 #
coedge $-1 $240 $240 $241 $366 reversed $149 $-1 #
coedge $-1 $241 $241 $240 $366 forward $151 $-1 #
coedge $-1 $242 $242 $152 $243 forward $237 $-1 #
edge $-1 $367 -3.5634608198793902e-016 $367 6.2831853071796004 $242 $368 forward 7 unknown #
loop $-1 $-1 $249 $153 #
plane-surface $-1 -25.354702457741595 -15.781319714036343 32.510076513352715 0 0.6018150307709319 0.79863550430605224 1 0 0 forward_v I I I I #
loop $-1 $-1 $369 $97 #
coedge $-1 $247 $247 $248 $370 reversed $154 $-1 #
coedge $-1 $248 $248 $247 $370 forward $156 $-1 #
coedge $-1 $249 $249 $157 $250 forward $244 $-1 #
edge $-1 $371 -3.5634608198793902e-016 $371 6.2831853071796004 $249 $372 forward 7 unknown #
face $-1 $373 $374 $52 $-1 $375 forward single #
loop $-1 $-1 $376 $158 #
plane-surface $-1 41.711075144092675 57.142492150808465 129.28324150059885 -1 0 0 0 0.6018150307709319 0.79863550430605224 forward_v I I I I #
coedge $-1 $377 $378 $379 $380 reversed $159 $-1 #
coedge $-1 $256 $161 $381 $382 reversed $101 $-1 #
coedge $-1 $161 $255 $377 $383 reversed $101 $-1 #
coedge $-1 $379 $384 $161 $258 forward $374 $-1 #
edge $-1 $385 2.1488691535646183 $386 12.652829980543043 $257 $387 forward 7 unknown #
loop $-1 $-1 $264 $162 #
plane-surface $-1 29.572028003778684 -15.781319714036343 32.510076513352715 0 0.6018150307709319 0.79863550430605224 1 0 0 forward_v I I I I #
loop $-1 $-1 $388 $103 #
coedge $-1 $262 $262 $263 $389 reversed $163 $-1 #
coedge $-1 $263 $263 $262 $389 forward $165 $-1 #
coedge $-1 $264 $264 $166 $265 forward $259 $-1 #
edge $-1 $390 -3.5634608198793902e-016 $390 6.2831853071796004 $264 $391 forward 7 unknown #
loop $-1 $-1 $271 $167 #
plane-surface $-1 29.572028003778684 -15.781319714036343 32.510076513352715 0 0.6018150307709319 0.79863550430605224 1 0 0 forward_v I I I I #
loop $-1 $-1 $392 $106 #
coedge $-1 $269 $269 $270 $393 reversed $168 $-1 #
coedge $-1 $270 $270 $269 $393 forward $170 $-1 #
coedge $-1 $271 $271 $171 $272 forward $266 $-1 #
edge $-1 $394 -3.5634608198793902e-016 $394 6.2831853071796004 $271 $395 forward 7 unknown #
loop $-1 $-1 $278 $172 #
plane-surface $-1 29.572028003778684 -15.781319714036343 32.510076513352715 0 0.6018150307709319 0.79863550430605224 1 0 0 forward_v I I I I #
loop $-1 $-1 $396 $109 #
coedge $-1 $276 $276 $277 $397 reversed $173 $-1 #
coedge $-1 $277 $277 $276 $397 forward $175 $-1 #
coedge $-1 $278 $278 $176 $279 forward $273 $-1 #
edge $-1 $398 -3.5634608198793902e-016 $398 6.2831853071796004 $278 $399 forward 7 unknown #
face $-1 $400 $401 $42 $-1 $402 reversed single #
loop $-1 $-1 $403 $177 #
plane-surface $-1 -60.586565752128664 0 0 1 0 0 0 0 -1 forward_v I I I I #
coedge $-1 $404 $291 $405 $406 forward $178 $-1 #
coedge $-1 $407 $180 $404 $408 forward $113 $-1 #
coedge $-1 $180 $407 $409 $410 forward $113 $-1 #
coedge $-1 $294 $293 $180 $287 reversed $295 $-1 #
edge $-1 $411 -26.422376921839614 $412 26.422376921839614 $286 $413 forward 7 unknown #
coedge $-1 $182 $181 $414 $415 forward $71 $-1 #
coedge $-1 $416 $417 $181 $290 reversed $401 $-1 #
edge $-1 $297 -60.586565752128664 $418 60.586565752128664 $289 $419 forward 7 unknown #
coedge $-1 $283 $420 $182 $292 reversed $178 $-1 #
edge $-1 $421 -60.586565752128664 $296 60.586565752128664 $291 $422 forward 7 unknown #
coedge $-1 $286 $183 $420 $423 forward $295 $-1 #
coedge $-1 $183 $286 $416 $424 reversed $295 $-1 #
loop $-1 $-1 $293 $400 #
vertex $-1 $184 $425 #
vertex $-1 $184 $426 #
straight-curve $-1 60.586565752128664 0 8.6226117332353649 0 1 0 I I #
face $-1 $427 $428 $43 $-1 $429 reversed single #
loop $-1 $-1 $430 $185 #
plane-surface $-1 -60.586565752128664 0 0 1 0 0 0 0 -1 forward_v I I I I #
coedge $-1 $431 $432 $190 $309 forward $186 $-1 #
coedge $-1 $433 $188 $434 $435 reversed $117 $-1 #
coedge $-1 $188 $433 $431 $436 reversed $117 $-1 #
coedge $-1 $190 $189 $188 $306 reversed $74 $-1 #
edge $-1 $437 -8.6226117332353649 $438 8.6226117332353649 $305 $439 forward 7 unknown #
coedge $-1 $440 $434 $189 $308 forward $428 $-1 #
edge $-1 $438 10.961188460919807 $313 13.961188460919807 $307 $441 forward 7 unknown #
edge $-1 $314 -13.961188460919807 $437 -10.961188460919807 $302 $442 forward 7 unknown #
coedge $-1 $443 $191 $432 $444 reversed $312 $-1 #
coedge $-1 $191 $443 $440 $445 reversed $312 $-1 #
loop $-1 $-1 $191 $427 #
vertex $-1 $445 $446 #
vertex $-1 $192 $447 #
straight-curve $-1 -49.266895170911894 -26.422376921839614 0 0 0 1 I I #
face $-1 $-1 $329 $44 $-1 $448 reversed single #
loop $-1 $-1 $325 $193 #
plane-surface $-1 -49.266895170911894 -24.922376921839614 0 -1 0 0 0 0 1 forward_v I I I I #
coedge $-1 $449 $450 $321 $451 forward $194 $-1 #
coedge $-1 $321 $196 $198 $327 reversed $121 $-1 #
coedge $-1 $196 $320 $319 $451 reversed $121 $-1 #
coedge $-1 $452 $199 $196 $323 forward $329 $-1 #
edge $-1 $331 -30.451223447369571 $453 -25.138139974240723 $322 $454 forward 7 unknown #
coedge $-1 $198 $197 $449 $455 reversed $77 $-1 #
coedge $-1 $456 $457 $197 $326 forward $317 $-1 #
edge $-1 $458 -7.2709533727589779 $330 -1.0058801445296286 $325 $459 forward 7 unknown #
edge $-1 $460 -6.2650732282293493 $331 0 $320 $461 forward 7 unknown #
coedge $-1 $199 $452 $456 $462 forward $329 $-1 #
loop $-1 $-1 $322 $316 #
vertex $-1 $326 $463 #
vertex $-1 $200 $464 #
straight-curve $-1 -17.661204281365723 -26.422376921839614 3.3095282601065206 1 0 0 I I #
coedge $-1 $333 $333 $-1 $465 reversed $203 $-1 #
edge $-1 $466 0 $466 6.2831853071796004 $204 $467 forward 7 unknown #
vertex $-1 $207 $468 #
ellipse-curve $-1 -43.689100527639717 -24.762385463831379 5.9660699966709423 0 -0.84804810408105047 0.52991925155115449 1 0 0 1 I I #
coedge $-1 $337 $337 $-1 $469 reversed $210 $-1 #
edge $-1 $470 0 $470 6.2831853071796004 $211 $471 forward 7 unknown #
vertex $-1 $214 $472 #
ellipse-curve $-1 -35.322408562731447 -24.762385463831379 5.9660699966709423 0 -0.84804810408105047 0.52991925155115449 1 0 0 1 I I #
coedge $-1 $341 $341 $-1 $473 reversed $217 $-1 #
edge $-1 $474 0 $474 6.2831853071796004 $218 $475 forward 7 unknown #
vertex $-1 $221 $476 #
ellipse-curve $-1 -26.955716597823177 -24.762385463831379 5.9660699966709423 0 -0.84804810408105047 0.52991925155115449 1 0 0 1 I I #
face $-1 $-1 $357 $48 $-1 $477 forward single #
loop $-1 $-1 $478 $222 #
plane-surface $-1 0 26.422376921839614 0 0 -1 0 0 0 -1 forward_v I I I I #
coedge $-1 $479 $480 $481 $482 reversed $223 $-1 #
coedge $-1 $483 $225 $227 $355 forward $140 $-1 #
coedge $-1 $225 $483 $479 $484 forward $140 $-1 #
coedge $-1 $481 $228 $225 $352 forward $357 $-1 #
edge $-1 $359 -24.816398369184789 $485 -0.53830408855681 $351 $486 forward 7 unknown #
coedge $-1 $487 $488 $226 $354 forward $346 $-1 #
edge $-1 $489 -63.934311397462849 $358 -56.019009017064057 $353 $490 forward 7 unknown #
edge $-1 $359 39.69236984579338 $489 52.844753843679243 $227 $491 forward 7 unknown #
coedge $-1 $228 $481 $487 $492 forward $357 $-1 #
loop $-1 $-1 $481 $345 #
vertex $-1 $354 $493 #
vertex $-1 $229 $494 #
straight-curve $-1 -37.493749598055587 28.571246075404233 8.6226117332353667 0 -1 0 I I #
coedge $-1 $361 $361 $-1 $495 reversed $232 $-1 #
edge $-1 $496 0 $496 6.2831853071796004 $233 $497 forward 7 unknown #
vertex $-1 $236 $498 #
ellipse-curve $-1 -32.638130741929984 21.170396508350404 4.6649605430359724 0 0.6018150307709319 0.79863550430605224 1.5 0 0 1 I I #
coedge $-1 $365 $365 $-1 $499 reversed $239 $-1 #
edge $-1 $500 0 $500 6.2831853071796004 $240 $501 forward 7 unknown #
vertex $-1 $243 $502 #
ellipse-curve $-1 -25.354702457741595 21.170396508350404 4.6649605430359724 0 0.6018150307709319 0.79863550430605224 1.5 0 0 1 I I #
coedge $-1 $369 $369 $-1 $503 reversed $246 $-1 #
edge $-1 $504 0 $504 6.2831853071796004 $247 $505 forward 7 unknown #
vertex $-1 $250 $506 #
ellipse-curve $-1 -18.071274173553206 21.170396508350404 4.6649605430359724 0 0.6018150307709319 0.79863550430605224 1.5 0 0 1 I I #
face $-1 $-1 $507 $52 $-1 $508 reversed single #
loop $-1 $-1 $257 $251 #
plane-surface $-1 0 0 8.6226117332353649 0 0 1 1 0 0 forward_v I I I I #
coedge $-1 $509 $510 $511 $512 reversed $252 $-1 #
coedge $-1 $513 $254 $256 $383 forward $159 $-1 #
coedge $-1 $254 $513 $509 $514 forward $159 $-1 #
coedge $-1 $511 $257 $254 $380 forward $374 $-1 #
edge $-1 $386 2.6469668615753541 $515 26.925061142203333 $379 $516 forward 7 unknown #
coedge $-1 $517 $518 $255 $382 forward $507 $-1 #
edge $-1 $519 -63.934311397462849 $385 -56.019009017064057 $381 $520 forward 7 unknown #
edge $-1 $386 39.69236984579338 $519 52.844753843679243 $256 $521 forward 7 unknown #
coedge $-1 $257 $511 $517 $522 forward $374 $-1 #
vertex $-1 $382 $523 #
vertex $-1 $258 $524 #
straight-curve $-1 17.432980863464696 28.571246075404233 8.6226117332353667 0 -1 0 I I #
coedge $-1 $388 $388 $-1 $525 reversed $261 $-1 #
edge $-1 $526 0 $526 6.2831853071796004 $262 $527 forward 7 unknown #
vertex $-1 $265 $528 #
ellipse-curve $-1 22.288599719590295 21.170396508350404 4.6649605430359724 0 0.6018150307709319 0.79863550430605224 1.5 0 0 1 I I #
coedge $-1 $392 $392 $-1 $529 reversed $268 $-1 #
edge $-1 $530 0 $530 6.2831853071796004 $269 $531 forward 7 unknown #
vertex $-1 $272 $532 #
ellipse-curve $-1 29.572028003778684 21.170396508350404 4.6649605430359724 0 0.6018150307709319 0.79863550430605224 1.5 0 0 1 I I #
coedge $-1 $396 $396 $-1 $533 reversed $275 $-1 #
edge $-1 $534 0 $534 6.2831853071796004 $276 $535 forward 7 unknown #
vertex $-1 $279 $536 #
ellipse-curve $-1 36.855456287967073 21.170396508350404 4.6649605430359724 0 0.6018150307709319 0.79863550430605224 1.5 0 0 1 I I #
face $-1 $-1 $295 $42 $-1 $537 reversed single #
loop $-1 $-1 $416 $280 #
plane-surface $-1 0 26.422376921839614 0 0 -1 0 0 0 -1 forward_v I I I I #
coedge $-1 $538 $414 $417 $539 forward $281 $-1 #
coedge $-1 $420 $283 $284 $408 reversed $178 $-1 #
coedge $-1 $414 $538 $283 $406 reversed $281 $-1 #
edge $-1 $421 -8.6226117332353649 $540 8.6226117332353649 $405 $541 forward 7 unknown #
coedge $-1 $285 $284 $538 $542 forward $113 $-1 #
edge $-1 $412 -60.586565752128664 $540 60.586565752128664 $404 $543 forward 7 unknown #
coedge $-1 $417 $416 $285 $410 reversed $401 $-1 #
edge $-1 $544 -60.586565752128664 $411 60.586565752128664 $409 $545 forward 7 unknown #
vertex $-1 $287 $546 #
vertex $-1 $423 $547 #
straight-curve $-1 60.586565752128664 0 -8.6226117332353649 0 -1 0 I I #
coedge $-1 $403 $405 $288 $415 reversed $281 $-1 #
edge $-1 $418 -26.422376921839614 $421 26.422376921839614 $414 $548 forward 7 unknown #
coedge $-1 $409 $289 $294 $424 forward $401 $-1 #
coedge $-1 $289 $409 $403 $539 reversed $401 $-1 #
vertex $-1 $290 $549 #
straight-curve $-1 0 26.422376921839614 8.6226117332353649 -1 0 0 I I #
coedge $-1 $291 $404 $293 $423 reversed $178 $-1 #
vertex $-1 $415 $550 #
straight-curve $-1 0 -26.422376921839614 8.6226117332353649 1 0 0 I I #
edge $-1 $296 -8.6226117332353649 $412 8.6226117332353649 $293 $551 forward 7 unknown #
edge $-1 $297 -8.6226117332353649 $411 8.6226117332353649 $294 $552 forward 7 unknown #
point $-1 60.586565752128664 -26.422376921839614 8.6226117332353649 #
point $-1 60.586565752128664 26.422376921839614 8.6226117332353649 #
face $-1 $-1 $312 $43 $-1 $553 reversed single #
loop $-1 $-1 $307 $299 #
plane-surface $-1 0 0 -8.6226117332353649 0 0 1 1 0 0 forward_v I I I I #
coedge $-1 $554 $555 $433 $556 forward $300 $-1 #
coedge $-1 $557 $302 $304 $436 forward $186 $-1 #
coedge $-1 $302 $557 $310 $444 forward $186 $-1 #
coedge $-1 $304 $303 $430 $556 reversed $117 $-1 #
coedge $-1 $307 $558 $303 $435 forward $428 $-1 #
edge $-1 $559 -33.123200521368524 $438 -21.803529940151755 $434 $560 forward 7 unknown #
edge $-1 $437 21.803529940151755 $561 33.123200521368524 $431 $562 forward 7 unknown #
vertex $-1 $436 $563 #
vertex $-1 $435 $564 #
straight-curve $-1 -49.266895170911894 -23.422376921839614 0 0 0 -1 I I #
coedge $-1 $558 $307 $311 $445 forward $428 $-1 #
straight-curve $-1 -49.266895170911894 -12.461188460919807 -8.6226117332353649 0 -1 0 I I #
straight-curve $-1 -49.266895170911894 -12.461188460919807 8.6226117332353649 0 1 0 I I #
coedge $-1 $311 $310 $565 $566 forward $312 $-1 #
edge $-1 $567 -60.586565752128664 $314 -49.266895170911894 $310 $568 forward 7 unknown #
edge $-1 $313 49.266895170911894 $569 60.586565752128664 $311 $570 forward 7 unknown #
point $-1 -49.266895170911894 -26.422376921839614 -8.6226117332353649 #
point $-1 -49.266895170911894 -26.422376921839614 8.6226117332353649 #
plane-surface $-1 0 -26.422376921839614 0 0 1 0 0 0 1 forward_v I I I I #
coedge $-1 $571 $319 $324 $455 forward $194 $-1 #
coedge $-1 $319 $571 $452 $572 forward $194 $-1 #
edge $-1 $453 38.16913375795481 $460 41.489116673971282 $319 $573 forward 7 unknown #
coedge $-1 $328 $322 $450 $572 reversed $329 $-1 #
vertex $-1 $451 $574 #
straight-curve $-1 -21.377921954550999 -26.422376921839614 33.760751707476089 0 0 1 I I #
edge $-1 $460 3.7167176731852756 $458 31.605690889546171 $449 $575 forward 7 unknown #
coedge $-1 $457 $325 $328 $462 reversed $317 $-1 #
coedge $-1 $325 $456 $571 $576 reversed $317 $-1 #
vertex $-1 $576 $577 #
straight-curve $-1 -49.266895170911894 -26.955412175178921 2.4564935106053927 0 -0.52991925155115449 -0.84804810408105047 I I #
vertex $-1 $455 $578 #
straight-curve $-1 -21.377921954550999 -26.422376921839614 3.3095282601065179 0 -0.52991925155115449 -0.84804810408105047 I I #
edge $-1 $579 -8.6226117332353649 $330 -3.3095282601065179 $328 $580 forward 7 unknown #
point $-1 -49.266895170911894 -26.422376921839614 3.3095282601065179 #
point $-1 -21.377921954550999 -26.422376921839614 3.3095282601065179 #
edge $-1 $581 1 $581 0 $333 $-1 forward 7 unknown #
vertex $-1 $334 $582 #
ellipse-curve $-1 -43.689100527639717 -23.59902713751395 5.2391230574569656 0 -0.84804810408105047 0.52991925155115449 1 0 0 1 I I #
point $-1 -42.689100527639717 -24.762385463831379 5.9660699966709432 #
edge $-1 $583 1 $583 0 $337 $-1 forward 7 unknown #
vertex $-1 $338 $584 #
ellipse-curve $-1 -35.322408562731447 -23.59902713751395 5.2391230574569656 0 -0.84804810408105047 0.52991925155115449 1 0 0 1 I I #
point $-1 -34.322408562731447 -24.762385463831379 5.9660699966709432 #
edge $-1 $585 1 $585 0 $341 $-1 forward 7 unknown #
vertex $-1 $342 $586 #
ellipse-curve $-1 -26.955716597823177 -23.59902713751395 5.2391230574569656 0 -0.84804810408105047 0.52991925155115449 1 0 0 1 I I #
point $-1 -25.955716597823177 -24.762385463831379 5.9660699966709432 #
plane-surface $-1 0 0 8.6226117332353649 0 0 1 1 0 0 forward_v I I I I #
coedge $-1 $488 $487 $480 $587 forward $346 $-1 #
coedge $-1 $480 $348 $350 $484 reversed $223 $-1 #
coedge $-1 $348 $479 $478 $587 reversed $223 $-1 #
coedge $-1 $356 $351 $348 $482 forward $357 $-1 #
edge $-1 $485 -12.652829980543043 $588 -2.1488691535646183 $481 $589 forward 7 unknown #
coedge $-1 $350 $349 $488 $590 reversed $140 $-1 #
edge $-1 $591 -52.844753843679243 $485 -39.69236984579338 $479 $592 forward 7 unknown #
vertex $-1 $352 $593 #
straight-curve $-1 -12.677351228870798 15.91841609486119 8.6226117332353667 1 0 0 I I #
coedge $-1 $478 $353 $356 $492 reversed $346 $-1 #
coedge $-1 $353 $478 $483 $590 forward $346 $-1 #
vertex $-1 $354 $594 #
straight-curve $-1 -37.493749598055587 26.422376921839614 64.641620750299424 0 0 1 I I #
straight-curve $-1 -37.493749598055587 -15.781319714036343 32.510076513352715 0 0.79863550430605224 -0.6018150307709319 I I #
edge $-1 $588 13.215655317427608 $358 37.493749598055587 $487 $595 forward 7 unknown #
point $-1 -37.493749598055587 26.422376921839614 8.6226117332353649 #
point $-1 -37.493749598055587 15.91841609486119 8.6226117332353667 #
edge $-1 $596 1 $596 0 $361 $-1 forward 7 unknown #
vertex $-1 $362 $597 #
ellipse-curve $-1 -32.638130741929984 19.156950829365627 1.9930279341595043 0 0.6018150307709319 0.79863550430605224 1.5 0 0 1 I I #
point $-1 -31.138130741929984 21.170396508350404 4.6649605430359733 #
edge $-1 $598 1 $598 0 $365 $-1 forward 7 unknown #
vertex $-1 $366 $599 #
ellipse-curve $-1 -25.354702457741595 19.156950829365627 1.9930279341595043 0 0.6018150307709319 0.79863550430605224 1.5 0 0 1 I I #
point $-1 -23.854702457741595 21.170396508350404 4.6649605430359733 #
edge $-1 $600 1 $600 0 $369 $-1 forward 7 unknown #
vertex $-1 $370 $601 #
ellipse-curve $-1 -18.071274173553206 19.156950829365627 1.9930279341595043 0 0.6018150307709319 0.79863550430605224 1.5 0 0 1 I I #
point $-1 -16.571274173553206 21.170396508350404 4.6649605430359733 #
loop $-1 $-1 $381 $373 #
plane-surface $-1 0 26.422376921839614 0 0 -1 0 0 0 -1 forward_v I I I I #
coedge $-1 $510 $376 $378 $514 reversed $252 $-1 #
coedge $-1 $376 $509 $602 $603 reversed $252 $-1 #
coedge $-1 $384 $379 $376 $512 forward $374 $-1 #
edge $-1 $515 -12.652829980543043 $604 -2.1488691535646183 $511 $605 forward 7 unknown #
coedge $-1 $378 $377 $518 $606 reversed $159 $-1 #
edge $-1 $607 -52.844753843679243 $515 -39.69236984579338 $509 $608 forward 7 unknown #
vertex $-1 $380 $609 #
straight-curve $-1 14.786014001889342 15.91841609486119 8.6226117332353667 1 0 0 I I #
coedge $-1 $602 $381 $384 $522 reversed $507 $-1 #
coedge $-1 $381 $602 $513 $606 forward $507 $-1 #
vertex $-1 $382 $610 #
straight-curve $-1 17.432980863464696 26.422376921839614 64.641620750299424 0 0 1 I I #
straight-curve $-1 17.432980863464696 -15.781319714036343 32.510076513352715 0 0.79863550430605224 -0.6018150307709319 I I #
edge $-1 $604 -41.711075144092675 $385 -17.432980863464696 $517 $611 forward 7 unknown #
point $-1 17.432980863464696 26.422376921839614 8.6226117332353649 #
point $-1 17.432980863464696 15.91841609486119 8.6226117332353667 #
edge $-1 $612 1 $612 0 $388 $-1 forward 7 unknown #
vertex $-1 $389 $613 #
ellipse-curve $-1 22.288599719590295 19.156950829365627 1.9930279341595043 0 0.6018150307709319 0.79863550430605224 1.5 0 0 1 I I #
point $-1 23.788599719590295 21.170396508350404 4.6649605430359733 #
edge $-1 $614 1 $614 0 $392 $-1 forward 7 unknown #
vertex $-1 $393 $615 #
ellipse-curve $-1 29.572028003778684 19.156950829365627 1.9930279341595043 0 0.6018150307709319 0.79863550430605224 1.5 0 0 1 I I #
point $-1 31.072028003778684 21.170396508350404 4.6649605430359733 #
edge $-1 $616 1 $616 0 $396 $-1 forward 7 unknown #
vertex $-1 $397 $617 #
ellipse-curve $-1 36.855456287967073 19.156950829365627 1.9930279341595043 0 0.6018150307709319 0.79863550430605224 1.5 0 0 1 I I #
point $-1 38.355456287967073 21.170396508350404 4.6649605430359733 #
plane-surface $-1 60.586565752128664 0 0 -1 0 0 0 0 1 forward_v I I I I #
coedge $-1 $405 $403 $407 $542 reversed $281 $-1 #
edge $-1 $418 -8.6226117332353649 $544 8.6226117332353649 $417 $618 forward 7 unknown #
vertex $-1 $542 $619 #
straight-curve $-1 -60.586565752128664 -26.422376921839614 0 0 0 -1 I I #
edge $-1 $540 -26.422376921839614 $544 26.422376921839614 $538 $620 forward 7 unknown #
straight-curve $-1 0 -26.422376921839614 -8.6226117332353649 -1 0 0 I I #
vertex $-1 $410 $621 #
straight-curve $-1 0 26.422376921839614 -8.6226117332353649 1 0 0 I I #
point $-1 60.586565752128664 26.422376921839614 -8.6226117332353649 #
point $-1 60.586565752128664 -26.422376921839614 -8.6226117332353649 #
straight-curve $-1 -60.586565752128664 0 8.6226117332353649 0 -1 0 I I #
point $-1 -60.586565752128664 26.422376921839614 8.6226117332353649 #
point $-1 -60.586565752128664 -26.422376921839614 8.6226117332353649 #
straight-curve $-1 60.586565752128664 -26.422376921839614 0 0 0 -1 I I #
straight-curve $-1 60.586565752128664 26.422376921839614 0 0 0 -1 I I #
plane-surface $-1 0 -26.422376921839614 0 0 1 0 0 0 1 forward_v I I I I #
coedge $-1 $565 $430 $558 $622 reversed $300 $-1 #
coedge $-1 $430 $565 $557 $623 reversed $300 $-1 #
edge $-1 $561 -8.6226117332353649 $559 8.6226117332353649 $430 $624 forward 7 unknown #
coedge $-1 $432 $431 $555 $623 forward $186 $-1 #
coedge $-1 $434 $440 $554 $622 forward $428 $-1 #
vertex $-1 $435 $625 #
straight-curve $-1 -27.463365230760139 -23.422376921839614 -8.6226117332353649 1 0 0 I I #
vertex $-1 $623 $626 #
straight-curve $-1 -27.463365230760139 -23.422376921839614 8.6226117332353649 -1 0 0 I I #
point $-1 -49.266895170911894 -23.422376921839614 8.6226117332353649 #
point $-1 -49.266895170911894 -23.422376921839614 -8.6226117332353649 #
coedge $-1 $555 $554 $443 $566 reversed $300 $-1 #
edge $-1 $567 -8.6226117332353649 $569 8.6226117332353649 $565 $627 forward 7 unknown #
vertex $-1 $623 $628 #
straight-curve $-1 0 -26.422376921839614 8.6226117332353649 1 0 0 I I #
vertex $-1 $622 $629 #
straight-curve $-1 0 -26.422376921839614 -8.6226117332353649 -1 0 0 I I #
coedge $-1 $450 $449 $457 $576 forward $194 $-1 #
edge $-1 $579 -49.266895170911894 $453 -21.377921954550999 $452 $630 forward 7 unknown #
straight-curve $-1 -21.377921954550999 -64.591510679794425 8.6226117332353667 0 1 0 I I #
point $-1 -21.377921954550999 -26.422376921839614 8.6226117332353649 #
straight-curve $-1 -17.661204281365723 -23.102394005823143 8.6226117332353649 -1 0 0 I I #
edge $-1 $458 -41.489116673971282 $579 -38.16913375795481 $571 $631 forward 7 unknown #
point $-1 -49.266895170911894 -23.102394005823143 8.6226117332353649 #
point $-1 -21.377921954550999 -23.102394005823143 8.6226117332353649 #
vertex $-1 $572 $632 #
straight-curve $-1 -49.266895170911894 -26.422376921839614 0 0 0 -1 I I #
vertex $-1 $465 $633 #
point $-1 -42.689100527639717 -23.59902713751395 5.2391230574569656 #
vertex $-1 $469 $634 #
point $-1 -34.322408562731447 -23.59902713751395 5.2391230574569656 #
vertex $-1 $473 $635 #
point $-1 -25.955716597823177 -23.59902713751395 5.2391230574569656 #
edge $-1 $588 56.019009017064057 $591 63.934311397462849 $478 $636 forward 7 unknown #
vertex $-1 $492 $637 #
straight-curve $-1 -13.215655317427608 28.571246075404233 8.6226117332353667 0 1 0 I I #
edge $-1 $591 0.53830408855681 $489 24.816398369184789 $488 $638 forward 7 unknown #
vertex $-1 $590 $639 #
straight-curve $-1 -13.215655317427608 -15.781319714036343 32.510076513352715 0 -0.79863550430605224 0.6018150307709319 I I #
point $-1 -13.215655317427608 15.91841609486119 8.6226117332353667 #
point $-1 -37.493749598055587 26.422376921839614 0.70730935283657459 #
straight-curve $-1 0 26.422376921839614 8.6226117332353649 -1 0 0 I I #
vertex $-1 $495 $640 #
point $-1 -31.138130741929984 19.156950829365627 1.9930279341595043 #
vertex $-1 $499 $641 #
point $-1 -23.854702457741595 19.156950829365627 1.9930279341595043 #
vertex $-1 $503 $642 #
point $-1 -16.571274173553206 19.156950829365627 1.9930279341595043 #
coedge $-1 $518 $517 $510 $603 forward $507 $-1 #
edge $-1 $604 56.019009017064057 $607 63.934311397462849 $602 $643 forward 7 unknown #
vertex $-1 $522 $644 #
straight-curve $-1 41.711075144092675 28.571246075404233 8.6226117332353667 0 1 0 I I #
edge $-1 $607 -26.925061142203333 $519 -2.6469668615753541 $518 $645 forward 7 unknown #
vertex $-1 $606 $646 #
straight-curve $-1 41.711075144092675 -15.781319714036343 32.510076513352715 0 -0.79863550430605224 0.6018150307709319 I I #
point $-1 41.711075144092675 15.91841609486119 8.6226117332353667 #
point $-1 17.432980863464696 26.422376921839614 0.70730935283657459 #
straight-curve $-1 0 26.422376921839614 8.6226117332353649 -1 0 0 I I #
vertex $-1 $525 $647 #
point $-1 23.788599719590295 19.156950829365627 1.9930279341595043 #
vertex $-1 $529 $648 #
point $-1 31.072028003778684 19.156950829365627 1.9930279341595043 #
vertex $-1 $533 $649 #
point $-1 38.355456287967073 19.156950829365627 1.9930279341595043 #
straight-curve $-1 -60.586565752128664 26.422376921839614 0 0 0 -1 I I #
point $-1 -60.586565752128664 -26.422376921839614 -8.6226117332353649 #
straight-curve $-1 -60.586565752128664 0 -8.6226117332353649 0 1 0 I I #
point $-1 -60.586565752128664 26.422376921839614 -8.6226117332353649 #
edge $-1 $569 -26.422376921839614 $559 -23.422376921839614 $554 $650 forward 7 unknown #
edge $-1 $561 23.422376921839614 $567 26.422376921839614 $555 $651 forward 7 unknown #
straight-curve $-1 -60.586565752128664 -23.422376921839614 0 0 0 -1 I I #
point $-1 -60.586565752128664 -23.422376921839614 -8.6226117332353649 #
point $-1 -60.586565752128664 -23.422376921839614 8.6226117332353649 #
straight-curve $-1 -60.586565752128664 -26.422376921839614 0 0 0 -1 I I #
point $-1 -60.586565752128664 -26.422376921839614 8.6226117332353649 #
point $-1 -60.586565752128664 -26.422376921839614 -8.6226117332353649 #
straight-curve $-1 0 -26.422376921839614 8.6226117332353649 1 0 0 I I #
straight-curve $-1 -49.266895170911894 -64.591510679794425 8.6226117332353667 0 -1 0 I I #
point $-1 -49.266895170911894 -26.422376921839614 8.6226117332353649 #
point $-1 -43.689100527639717 -22.750979033432898 4.709203805905811 #
point $-1 -35.322408562731447 -22.750979033432898 4.709203805905811 #
point $-1 -26.955716597823177 -22.750979033432898 4.709203805905811 #
straight-curve $-1 -13.215655317427608 26.422376921839614 64.641620750299424 0 0 -1 I I #
point $-1 -13.215655317427608 26.422376921839614 8.6226117332353649 #
straight-curve $-1 -12.677351228870798 26.422376921839614 0.70730935283657459 -1 0 0 I I #
point $-1 -13.215655317427608 26.422376921839614 0.70730935283657459 #
point $-1 -32.638130741929984 18.25422828320923 0.79507467770042584 #
point $-1 -25.354702457741595 18.25422828320923 0.79507467770042584 #
point $-1 -18.071274173553206 18.25422828320923 0.79507467770042584 #
straight-curve $-1 41.711075144092675 26.422376921839614 64.641620750299424 0 0 -1 I I #
point $-1 41.711075144092675 26.422376921839614 8.6226117332353649 #
straight-curve $-1 14.786014001889342 26.422376921839614 0.70730935283657459 -1 0 0 I I #
point $-1 41.711075144092675 26.422376921839614 0.70730935283657459 #
point $-1 22.288599719590295 18.25422828320923 0.79507467770042584 #
point $-1 29.572028003778684 18.25422828320923 0.79507467770042584 #
point $-1 36.855456287967073 18.25422828320923 0.79507467770042584 #
straight-curve $-1 -60.586565752128664 0 -8.6226117332353649 0 1 0 I I #
straight-curve $-1 -60.586565752128664 0 8.6226117332353649 0 -1 0 I I #
End-of-ACIS-data 