500 0 9 0           
7 Unknown 11 ACIS 5.0 NT 24 Thu Mar 25 15:14:42 1999 
-1 9.9999999999999995e-007 1e-010 
body $-1 $9 $-1 $10 #
body $-1 $11 $-1 $12 #
body $-1 $13 $-1 $14 #
body $-1 $15 $-1 $16 #
body $-1 $17 $-1 $18 #
body $-1 $19 $-1 $20 #
body $-1 $21 $-1 $22 #
body $-1 $23 $-1 $24 #
body $-1 $25 $-1 $26 #
lump $-1 $-1 $27 $0 #
transform $-1 1 0 0 0 1 0 0 0 1 79.725333414716033 52.339838321604212 20.954304667937272 1 rotate no_reflect no_shear #
lump $-1 $-1 $28 $1 #
transform $-1 1 0 0 0 1 0 0 0 1 79.725333414716033 52.339838321604212 20.954304667937272 1 rotate no_reflect no_shear #
lump $-1 $-1 $29 $2 #
transform $-1 1 0 0 0 1 0 0 0 1 79.725333414716033 52.339838321604212 20.954304667937272 1 rotate no_reflect no_shear #
lump $-1 $-1 $30 $3 #
transform $-1 1 0 0 0 1 0 0 0 1 79.725333414716033 52.339838321604212 20.954304667937272 1 rotate no_reflect no_shear #
lump $-1 $-1 $31 $4 #
transform $-1 1 0 0 0 1 0 0 0 1 79.725333414716033 52.339838321604212 20.954304667937272 1 rotate no_reflect no_shear #
lump $-1 $-1 $32 $5 #
transform $-1 1 0 0 0 1 0 0 0 1 79.725333414716033 52.339838321604212 20.954304667937272 1 rotate no_reflect no_shear #
lump $-1 $-1 $33 $6 #
transform $-1 1 0 0 0 1 0 0 0 1 79.725333414716033 52.339838321604212 20.954304667937272 1 rotate no_reflect no_shear #
lump $-1 $-1 $34 $7 #
transform $-1 1 0 0 0 1 0 0 0 1 79.725333414716033 52.339838321604212 20.954304667937272 1 rotate no_reflect no_shear #
lump $-1 $-1 $35 $8 #
transform $-1 1 0 0 0 1 0 0 0 1 79.725333414716033 52.339838321604212 20.954304667937272 1 rotate no_reflect no_shear #
shell $-1 $-1 $-1 $36 $-1 $9 #
shell $-1 $-1 $-1 $37 $-1 $11 #
shell $-1 $-1 $-1 $38 $-1 $13 #
shell $-1 $-1 $-1 $39 $-1 $15 #
shell $-1 $-1 $-1 $40 $-1 $17 #
shell $-1 $-1 $-1 $41 $-1 $19 #
shell $-1 $-1 $-1 $42 $-1 $21 #
shell $-1 $-1 $-1 $43 $-1 $23 #
shell $-1 $-1 $-1 $44 $-1 $25 #
face $-1 $45 $46 $27 $-1 $47 forward single #
face $-1 $48 $49 $28 $-1 $50 forward single #
face $-1 $51 $52 $29 $-1 $53 reversed single #
face $-1 $54 $55 $30 $-1 $56 forward single #
face $-1 $57 $58 $31 $-1 $59 forward single #
face $-1 $60 $61 $32 $-1 $62 forward single #
face $-1 $63 $64 $33 $-1 $65 reversed single #
face $-1 $66 $67 $34 $-1 $68 forward single #
face $-1 $69 $70 $35 $-1 $71 forward single #
face $-1 $72 $73 $27 $-1 $74 reversed single #
loop $-1 $-1 $75 $36 #
plane-surface $-1 0 0 20.954304667937272 0 0 1 1 0 0 forward_v I I I I #
face $-1 $76 $77 $28 $-1 $78 reversed single #
loop $-1 $-1 $79 $37 #
plane-surface $-1 0 -52.339838321604212 0 0 1 0 0 0 1 forward_v I I I I #
face $-1 $80 $81 $29 $-1 $82 reversed single #
loop $-1 $-1 $83 $38 #
plane-surface $-1 -177.89296742765509 14.480704401912369 126.5091027984522 0 1 0 -0.61566148304635926 0 0.78801074757464917 forward_v I I I I #
face $-1 $84 $85 $30 $-1 $86 forward single #
loop $-1 $87 $88 $39 #
cone-surface $-1 -66.035219324305046 17.680274279559306 9.8442740753558926 0.61566148304635926 0 -0.78801074757464917 1.1820161213619738 0 0.92349222456953894 1 I I 0 1 1.5 forward I I I I #
face $-1 $89 $90 $31 $-1 $91 forward single #
loop $-1 $92 $93 $40 #
cone-surface $-1 -66.035219324305046 22.479629096029718 9.8442740753558926 0.61566148304635926 0 -0.78801074757464917 1.1820161213619738 0 0.92349222456953894 1 I I 0 1 1.5 forward I I I I #
face $-1 $94 $95 $32 $-1 $96 forward single #
loop $-1 $97 $98 $41 #
cone-surface $-1 -66.035219324305046 27.278983912500131 9.8442740753558926 0.61566148304635926 0 -0.78801074757464917 1.1820161213619738 0 0.92349222456953894 1 I I 0 1 1.5 forward I I I I #
face $-1 $99 $100 $33 $-1 $101 reversed single #
loop $-1 $-1 $102 $42 #
plane-surface $-1 75.78986551991477 41.537197975805221 227.8070326780684 0 1 0 0.69465837861970381 0 0.71933979245794832 forward_v I I I I #
face $-1 $103 $104 $34 $-1 $105 forward single #
loop $-1 $106 $107 $43 #
cone-surface $-1 69.727990517710751 44.623666646033506 11.27472669765363 -0.69465837861970381 0 -0.71933979245794832 0.35966989622897416 0 -0.3473291893098519 1 I I 0 1 0.5 forward I I I I #
face $-1 $108 $109 $35 $-1 $110 forward single #
loop $-1 $111 $112 $44 #
cone-surface $-1 69.727990517710751 49.253369651375927 11.27472669765363 -0.69465837861970381 0 -0.71933979245794832 0.35966989622897416 0 -0.3473291893098519 1 I I 0 1 0.5 forward I I I I #
face $-1 $113 $114 $27 $-1 $115 reversed single #
loop $-1 $-1 $116 $45 #
plane-surface $-1 0 0 -20.954304667937272 0 0 1 1 0 0 forward_v I I I I #
coedge $-1 $117 $118 $119 $120 forward $46 $-1 #
face $-1 $121 $122 $28 $-1 $123 reversed single #
loop $-1 $-1 $124 $48 #
plane-surface $-1 0 0 -20.954304667937272 0 0 1 1 0 0 forward_v I I I I #
coedge $-1 $125 $126 $127 $128 forward $49 $-1 #
face $-1 $129 $130 $29 $-1 $131 reversed single #
loop $-1 $-1 $132 $51 #
plane-surface $-1 -79.725333414716019 22.479629096029718 0.86026362891512065 -0.61566148304635926 0 0.78801074757464917 0.78801074757464917 0 0.61566148304635926 forward_v I I I I #
coedge $-1 $133 $134 $135 $136 reversed $52 $-1 #
face $-1 $-1 $137 $30 $-1 $138 forward single #
loop $-1 $139 $140 $54 #
cone-surface $-1 -64.742958704326099 17.680274279559306 8.190255941604601 0.61566148304635926 0 -0.78801074757464917 0.59100806068098688 0 0.46174611228476947 1 I I -0.70710678118654757 0.70710678118654757 0.75 forward I I I I #
loop $-1 $-1 $141 $39 #
coedge $-1 $88 $88 $142 $143 reversed $55 $-1 #
face $-1 $-1 $144 $31 $-1 $145 forward single #
loop $-1 $146 $147 $57 #
cone-surface $-1 -64.742958704326099 22.479629096029718 8.190255941604601 0.61566148304635926 0 -0.78801074757464917 0.59100806068098688 0 0.46174611228476947 1 I I -0.70710678118654757 0.70710678118654757 0.75 forward I I I I #
loop $-1 $-1 $148 $40 #
coedge $-1 $93 $93 $149 $150 reversed $58 $-1 #
face $-1 $-1 $151 $32 $-1 $152 forward single #
loop $-1 $153 $154 $60 #
cone-surface $-1 -64.742958704326099 27.278983912500131 8.190255941604601 0.61566148304635926 0 -0.78801074757464917 0.59100806068098688 0 0.46174611228476947 1 I I -0.70710678118654757 0.70710678118654757 0.75 forward I I I I #
loop $-1 $-1 $155 $41 #
coedge $-1 $98 $98 $156 $157 reversed $61 $-1 #
face $-1 $158 $159 $33 $-1 $160 reversed single #
loop $-1 $-1 $161 $63 #
plane-surface $-1 -34.973876169649103 46.938518148704709 113.10782309370327 0.69465837861970381 0 0.71933979245794832 0.71933979245794832 0 -0.69465837861970381 forward_v I I I I #
coedge $-1 $162 $163 $164 $165 reversed $64 $-1 #
face $-1 $-1 $166 $34 $-1 $167 forward single #
loop $-1 $168 $169 $66 #
cone-surface $-1 69.192707975324709 44.623666646033506 10.720425411154444 -0.69465837861970381 0 -0.71933979245794832 0.17983494811448708 0 -0.17366459465492595 1 I I -0.70710678118654746 0.70710678118654746 0.25 forward I I I I #
loop $-1 $-1 $170 $43 #
coedge $-1 $107 $107 $171 $172 reversed $67 $-1 #
face $-1 $-1 $173 $35 $-1 $174 forward single #
loop $-1 $175 $176 $69 #
cone-surface $-1 69.192707975324709 49.253369651375927 10.720425411154444 -0.69465837861970381 0 -0.71933979245794832 0.17983494811448708 0 -0.17366459465492595 1 I I -0.70710678118654746 0.70710678118654746 0.25 forward I I I I #
loop $-1 $-1 $177 $44 #
coedge $-1 $112 $112 $178 $179 reversed $70 $-1 #
face $-1 $180 $181 $27 $-1 $182 reversed single #
loop $-1 $-1 $183 $72 #
plane-surface $-1 0 -52.339838321604212 0 0 1 0 0 0 1 forward_v I I I I #
coedge $-1 $184 $185 $186 $187 forward $73 $-1 #
coedge $-1 $188 $75 $189 $190 forward $46 $-1 #
coedge $-1 $75 $188 $191 $192 forward $46 $-1 #
coedge $-1 $193 $194 $75 $120 reversed $195 $-1 #
edge $-1 $196 -52.339838321604212 $197 52.339838321604212 $119 $198 forward 7 unknown #
face $-1 $199 $200 $28 $-1 $201 reversed single #
loop $-1 $-1 $202 $76 #
plane-surface $-1 -65.183241858740885 -70.931007483528674 0 0 1 0 0 0 1 forward_v I I I I #
coedge $-1 $203 $204 $126 $205 forward $77 $-1 #
coedge $-1 $206 $79 $207 $208 reversed $49 $-1 #
coedge $-1 $79 $206 $124 $205 reversed $49 $-1 #
coedge $-1 $209 $210 $79 $128 reversed $200 $-1 #
edge $-1 $211 -20.954304667937272 $212 20.954304667937272 $127 $213 forward 7 unknown #
face $-1 $214 $215 $29 $-1 $216 reversed single #
loop $-1 $-1 $217 $80 #
plane-surface $-1 -177.89296742765509 30.478553790147068 126.5091027984522 0 -1 0 0.61566148304635926 0 -0.78801074757464917 forward_v I I I I #
coedge $-1 $218 $219 $220 $221 reversed $81 $-1 #
coedge $-1 $134 $83 $222 $223 reversed $52 $-1 #
coedge $-1 $83 $133 $218 $224 reversed $52 $-1 #
coedge $-1 $220 $225 $83 $136 forward $226 $-1 #
edge $-1 $227 9.221150299111514 $228 34.940349464545108 $135 $229 forward 7 unknown #
loop $-1 $-1 $142 $84 #
plane-surface $-1 -79.725333414716019 22.479629096029718 0.86026362891512065 -0.61566148304635926 0 0.78801074757464917 0.78801074757464917 0 0.61566148304635926 forward_v I I I I #
loop $-1 $-1 $230 $54 #
coedge $-1 $140 $140 $141 $231 reversed $85 $-1 #
coedge $-1 $141 $141 $140 $231 forward $87 $-1 #
coedge $-1 $142 $142 $88 $143 forward $137 $-1 #
edge $-1 $232 0 $232 6.2831853071796004 $142 $233 forward 7 unknown #
loop $-1 $-1 $149 $89 #
plane-surface $-1 -79.725333414716019 22.479629096029718 0.86026362891512065 -0.61566148304635926 0 0.78801074757464917 0.78801074757464917 0 0.61566148304635926 forward_v I I I I #
loop $-1 $-1 $234 $57 #
coedge $-1 $147 $147 $148 $235 reversed $90 $-1 #
coedge $-1 $148 $148 $147 $235 forward $92 $-1 #
coedge $-1 $149 $149 $93 $150 forward $144 $-1 #
edge $-1 $236 0 $236 6.2831853071796004 $149 $237 forward 7 unknown #
loop $-1 $-1 $156 $94 #
plane-surface $-1 -79.725333414716019 22.479629096029718 0.86026362891512065 -0.61566148304635926 0 0.78801074757464917 0.78801074757464917 0 0.61566148304635926 forward_v I I I I #
loop $-1 $-1 $238 $60 #
coedge $-1 $154 $154 $155 $239 reversed $95 $-1 #
coedge $-1 $155 $155 $154 $239 forward $97 $-1 #
coedge $-1 $156 $156 $98 $157 forward $151 $-1 #
edge $-1 $240 0 $240 6.2831853071796004 $156 $241 forward 7 unknown #
face $-1 $242 $243 $33 $-1 $244 forward single #
loop $-1 $-1 $245 $99 #
plane-surface $-1 0 52.339838321604212 0 0 -1 0 0 0 -1 forward_v I I I I #
coedge $-1 $246 $247 $248 $249 reversed $100 $-1 #
coedge $-1 $163 $102 $250 $251 reversed $64 $-1 #
coedge $-1 $102 $162 $246 $252 reversed $64 $-1 #
coedge $-1 $248 $253 $102 $165 forward $254 $-1 #
edge $-1 $255 92.949211671096919 $256 111.5594349348948 $164 $257 forward 7 unknown #
loop $-1 $-1 $171 $103 #
plane-surface $-1 -34.973876169649103 46.938518148704709 113.10782309370327 0.69465837861970381 0 0.71933979245794832 0.71933979245794832 0 -0.69465837861970381 forward_v I I I I #
loop $-1 $-1 $258 $66 #
coedge $-1 $169 $169 $170 $259 reversed $104 $-1 #
coedge $-1 $170 $170 $169 $259 forward $106 $-1 #
coedge $-1 $171 $171 $107 $172 forward $166 $-1 #
edge $-1 $260 0 $260 6.2831853071796004 $171 $261 forward 7 unknown #
loop $-1 $-1 $178 $108 #
plane-surface $-1 -34.973876169649103 46.938518148704709 113.10782309370327 0.69465837861970381 0 0.71933979245794832 0.71933979245794832 0 -0.69465837861970381 forward_v I I I I #
loop $-1 $-1 $262 $69 #
coedge $-1 $176 $176 $177 $263 reversed $109 $-1 #
coedge $-1 $177 $177 $176 $263 forward $111 $-1 #
coedge $-1 $178 $178 $112 $179 forward $173 $-1 #
edge $-1 $264 0 $264 6.2831853071796004 $178 $265 forward 7 unknown #
face $-1 $266 $267 $27 $-1 $268 reversed single #
loop $-1 $-1 $269 $113 #
plane-surface $-1 -79.725333414716033 0 0 1 0 0 0 0 -1 forward_v I I I I #
coedge $-1 $270 $191 $271 $272 forward $114 $-1 #
coedge $-1 $273 $116 $270 $274 forward $73 $-1 #
coedge $-1 $116 $273 $275 $276 forward $73 $-1 #
coedge $-1 $194 $193 $116 $187 reversed $195 $-1 #
edge $-1 $277 -52.339838321604212 $278 52.339838321604212 $186 $279 forward 7 unknown #
coedge $-1 $118 $117 $280 $281 forward $46 $-1 #
coedge $-1 $282 $283 $117 $190 reversed $267 $-1 #
edge $-1 $197 -79.725333414716033 $284 79.725333414716033 $189 $285 forward 7 unknown #
coedge $-1 $183 $286 $118 $192 reversed $114 $-1 #
edge $-1 $287 -79.725333414716033 $196 79.725333414716033 $191 $288 forward 7 unknown #
coedge $-1 $186 $119 $286 $289 forward $195 $-1 #
coedge $-1 $119 $186 $282 $290 reversed $195 $-1 #
loop $-1 $-1 $193 $266 #
vertex $-1 $120 $291 #
vertex $-1 $120 $292 #
straight-curve $-1 79.725333414716033 0 20.954304667937272 0 1 0 I I #
face $-1 $293 $294 $28 $-1 $295 reversed single #
loop $-1 $-1 $127 $121 #
plane-surface $-1 -68.091597283384942 -61.63542290256644 0 1 0 0 0 0 -1 forward_v I I I I #
coedge $-1 $296 $297 $298 $299 forward $122 $-1 #
coedge $-1 $300 $124 $301 $302 forward $77 $-1 #
coedge $-1 $124 $300 $209 $303 forward $77 $-1 #
edge $-1 $211 -68.091597283384942 $304 -62.274886434096828 $124 $305 forward 7 unknown #
coedge $-1 $126 $125 $306 $307 forward $49 $-1 #
coedge $-1 $308 $309 $125 $208 forward $310 $-1 #
edge $-1 $311 62.274886434096828 $212 68.091597283384942 $207 $312 forward 7 unknown #
coedge $-1 $298 $127 $204 $303 reversed $200 $-1 #
coedge $-1 $127 $298 $308 $313 reversed $200 $-1 #
vertex $-1 $205 $314 #
vertex $-1 $313 $315 #
straight-curve $-1 -68.091597283384942 -52.339838321604212 0 0 0 1 I I #
face $-1 $-1 $226 $29 $-1 $316 forward single #
loop $-1 $-1 $317 $129 #
plane-surface $-1 -79.725333414716033 0 0 1 0 0 0 0 -1 forward_v I I I I #
coedge $-1 $318 $319 $320 $321 reversed $130 $-1 #
coedge $-1 $322 $132 $134 $224 forward $81 $-1 #
coedge $-1 $132 $322 $318 $323 forward $81 $-1 #
coedge $-1 $320 $135 $132 $221 forward $226 $-1 #
edge $-1 $228 3.2408898538975102 $324 19.238739242132208 $220 $325 forward 7 unknown #
coedge $-1 $326 $327 $133 $223 forward $215 $-1 #
edge $-1 $328 -62.394287770310996 $227 -42.30024673128883 $222 $329 forward 7 unknown #
edge $-1 $228 -32.638132467853389 $328 1.8033521786330445e-014 $134 $330 forward 7 unknown #
coedge $-1 $135 $320 $326 $331 forward $226 $-1 #
loop $-1 $-1 $320 $214 #
vertex $-1 $223 $332 #
vertex $-1 $136 $333 #
straight-curve $-1 -88.946483713827547 14.480704401912369 20.954304667937272 1 0 0 I I #
coedge $-1 $230 $230 $-1 $334 reversed $139 $-1 #
edge $-1 $335 0 $335 6.2831853071796004 $140 $336 forward 7 unknown #
vertex $-1 $143 $337 #
ellipse-curve $-1 -66.865733831999222 17.680274279559306 10.907284148426196 -0.61566148304635926 0 0.78801074757464917 1.1820161213619738 0 0.92349222456953894 1 I I #
coedge $-1 $234 $234 $-1 $338 reversed $146 $-1 #
edge $-1 $339 0 $339 6.2831853071796004 $147 $340 forward 7 unknown #
vertex $-1 $150 $341 #
ellipse-curve $-1 -66.865733831999222 22.479629096029718 10.907284148426196 -0.61566148304635926 0 0.78801074757464917 1.1820161213619738 0 0.92349222456953894 1 I I #
coedge $-1 $238 $238 $-1 $342 reversed $153 $-1 #
edge $-1 $343 0 $343 6.2831853071796004 $154 $344 forward 7 unknown #
vertex $-1 $157 $345 #
ellipse-curve $-1 -66.865733831999222 27.278983912500131 10.907284148426196 -0.61566148304635926 0 0.78801074757464917 1.1820161213619738 0 0.92349222456953894 1 I I #
face $-1 $-1 $254 $33 $-1 $346 reversed single #
loop $-1 $-1 $347 $158 #
plane-surface $-1 0 0 20.954304667937272 0 0 1 1 0 0 forward_v I I I I #
coedge $-1 $348 $349 $247 $350 forward $159 $-1 #
coedge $-1 $351 $161 $163 $252 forward $100 $-1 #
coedge $-1 $161 $351 $245 $350 reversed $100 $-1 #
coedge $-1 $352 $164 $161 $249 forward $254 $-1 #
edge $-1 $256 18.067938901452866 $353 28.870579247251857 $248 $354 forward 7 unknown #
coedge $-1 $355 $347 $162 $251 forward $243 $-1 #
edge $-1 $356 22.558950756210308 $255 41.830400654758648 $250 $357 forward 7 unknown #
edge $-1 $256 -159.45066682943207 $356 -132.66019854086602 $163 $358 forward 7 unknown #
coedge $-1 $164 $352 $355 $359 reversed $254 $-1 #
loop $-1 $-1 $248 $242 #
vertex $-1 $359 $360 #
vertex $-1 $165 $361 #
straight-curve $-1 79.725333414716033 41.537197975805221 113.9035163390342 0 0 -1 I I #
coedge $-1 $258 $258 $-1 $362 reversed $168 $-1 #
edge $-1 $363 0 $363 6.2831853071796004 $169 $364 forward 7 unknown #
vertex $-1 $172 $365 #
ellipse-curve $-1 70.08960846544187 44.623666646033506 11.64919303603833 0.69465837861970381 0 0.71933979245794832 0.35966989622897416 0 -0.3473291893098519 1 I I #
coedge $-1 $262 $262 $-1 $366 reversed $175 $-1 #
edge $-1 $367 0 $367 6.2831853071796004 $176 $368 forward 7 unknown #
vertex $-1 $179 $369 #
ellipse-curve $-1 70.08960846544187 49.253369651375927 11.64919303603833 0.69465837861970381 0 0.71933979245794832 0.35966989622897416 0 -0.3473291893098519 1 I I #
face $-1 $-1 $195 $27 $-1 $370 reversed single #
loop $-1 $-1 $282 $180 #
plane-surface $-1 0 52.339838321604212 0 0 -1 0 0 0 -1 forward_v I I I I #
coedge $-1 $371 $280 $283 $372 forward $181 $-1 #
coedge $-1 $286 $183 $184 $274 reversed $114 $-1 #
coedge $-1 $280 $371 $183 $272 reversed $181 $-1 #
edge $-1 $287 -20.954304667937272 $373 20.954304667937272 $271 $374 forward 7 unknown #
coedge $-1 $185 $184 $371 $375 forward $73 $-1 #
edge $-1 $278 -79.725333414716033 $373 79.725333414716033 $270 $376 forward 7 unknown #
coedge $-1 $283 $282 $185 $276 reversed $267 $-1 #
edge $-1 $377 -79.725333414716033 $277 79.725333414716033 $275 $378 forward 7 unknown #
vertex $-1 $187 $379 #
vertex $-1 $289 $380 #
straight-curve $-1 79.725333414716033 0 -20.954304667937272 0 -1 0 I I #
coedge $-1 $269 $271 $188 $281 reversed $181 $-1 #
edge $-1 $284 -52.339838321604212 $287 52.339838321604212 $280 $381 forward 7 unknown #
coedge $-1 $275 $189 $194 $290 forward $267 $-1 #
coedge $-1 $189 $275 $269 $372 reversed $267 $-1 #
vertex $-1 $190 $382 #
straight-curve $-1 0 52.339838321604212 20.954304667937272 -1 0 0 I I #
coedge $-1 $191 $270 $193 $289 reversed $114 $-1 #
vertex $-1 $281 $383 #
straight-curve $-1 0 -52.339838321604212 20.954304667937272 1 0 0 I I #
edge $-1 $196 -20.954304667937272 $278 20.954304667937272 $193 $384 forward 7 unknown #
edge $-1 $197 -20.954304667937272 $277 20.954304667937272 $194 $385 forward 7 unknown #
point $-1 79.725333414716033 -52.339838321604212 20.954304667937272 #
point $-1 79.725333414716033 52.339838321604212 20.954304667937272 #
face $-1 $-1 $310 $28 $-1 $386 forward single #
loop $-1 $-1 $387 $199 #
plane-surface $-1 -62.274886434096828 -61.63542290256644 0 -1 0 0 0 0 1 forward_v I I I I #
coedge $-1 $388 $202 $300 $389 reversed $122 $-1 #
coedge $-1 $202 $388 $390 $391 reversed $122 $-1 #
coedge $-1 $210 $209 $202 $299 reversed $200 $-1 #
edge $-1 $392 -20.954304667937272 $393 20.954304667937272 $298 $394 forward 7 unknown #
coedge $-1 $204 $203 $296 $389 forward $77 $-1 #
coedge $-1 $306 $387 $203 $302 reversed $294 $-1 #
edge $-1 $304 -9.2955845809622275 $395 9.2955845809622346 $301 $396 forward 7 unknown #
edge $-1 $393 -9.2955845809622346 $211 9.2955845809622275 $209 $397 forward 7 unknown #
vertex $-1 $302 $398 #
straight-curve $-1 0 -52.339838321604212 -20.954304667937272 1 0 0 I I #
coedge $-1 $399 $301 $206 $307 reversed $294 $-1 #
edge $-1 $311 -20.954304667937272 $304 20.954304667937272 $306 $400 forward 7 unknown #
coedge $-1 $390 $207 $210 $313 forward $310 $-1 #
coedge $-1 $207 $390 $399 $401 forward $310 $-1 #
loop $-1 $-1 $207 $293 #
vertex $-1 $208 $402 #
straight-curve $-1 0 -52.339838321604212 20.954304667937272 -1 0 0 I I #
edge $-1 $212 -9.2955845809622275 $392 9.2955845809622346 $210 $403 forward 7 unknown #
point $-1 -68.091597283384942 -52.339838321604212 -20.954304667937272 #
point $-1 -68.091597283384942 -52.339838321604212 20.954304667937272 #
plane-surface $-1 0 0 20.954304667937272 0 0 1 1 0 0 forward_v I I I I #
coedge $-1 $327 $326 $319 $404 forward $215 $-1 #
coedge $-1 $319 $217 $219 $323 reversed $130 $-1 #
coedge $-1 $217 $318 $317 $404 reversed $130 $-1 #
coedge $-1 $225 $220 $217 $321 forward $226 $-1 #
edge $-1 $324 -34.940349464545108 $405 -9.221150299111514 $320 $406 forward 7 unknown #
coedge $-1 $219 $218 $327 $407 reversed $81 $-1 #
edge $-1 $408 -1.8033521786330445e-014 $324 32.638132467853389 $318 $409 forward 7 unknown #
vertex $-1 $221 $410 #
straight-curve $-1 -54.006134249282432 11.239814548014859 20.954304667937272 0 1 0 I I #
coedge $-1 $317 $222 $225 $331 reversed $215 $-1 #
coedge $-1 $222 $317 $322 $407 forward $215 $-1 #
vertex $-1 $223 $411 #
straight-curve $-1 -79.725333414716033 14.480704401912369 63.254551399226102 0 0 1 I I #
straight-curve $-1 -79.725333414716019 14.480704401912369 0.86026362891512065 -0.78801074757464917 0 -0.61566148304635926 I I #
edge $-1 $405 -30.478553790147068 $227 -14.480704401912369 $326 $412 forward 7 unknown #
point $-1 -79.725333414716033 14.480704401912369 20.954304667937272 #
point $-1 -54.006134249282439 14.480704401912369 20.954304667937272 #
edge $-1 $413 1 $413 0 $230 $-1 forward 7 unknown #
vertex $-1 $231 $414 #
ellipse-curve $-1 -65.204704816610871 17.680274279559306 8.7812640022855888 -0.61566148304635926 0 0.78801074757464917 1.1820161213619738 0 0.92349222456953894 1 I I #
point $-1 -65.683717710637254 17.680274279559306 11.830776372995736 #
edge $-1 $415 1 $415 0 $234 $-1 forward 7 unknown #
vertex $-1 $235 $416 #
ellipse-curve $-1 -65.204704816610871 22.479629096029718 8.7812640022855888 -0.61566148304635926 0 0.78801074757464917 1.1820161213619738 0 0.92349222456953894 1 I I #
point $-1 -65.683717710637254 22.479629096029718 11.830776372995736 #
edge $-1 $417 1 $417 0 $238 $-1 forward 7 unknown #
vertex $-1 $239 $418 #
ellipse-curve $-1 -65.204704816610871 27.278983912500131 8.7812640022855888 -0.61566148304635926 0 0.78801074757464917 1.1820161213619738 0 0.92349222456953894 1 I I #
point $-1 -65.683717710637254 27.278983912500131 11.830776372995736 #
plane-surface $-1 79.725333414716033 0 0 -1 0 0 0 0 1 forward_v I I I I #
coedge $-1 $250 $419 $351 $420 forward $243 $-1 #
coedge $-1 $349 $245 $419 $421 reversed $159 $-1 #
coedge $-1 $245 $348 $352 $422 forward $159 $-1 #
edge $-1 $353 -107.58596791703128 $423 -80.795499628465251 $245 $424 forward 7 unknown #
coedge $-1 $247 $246 $347 $420 reversed $100 $-1 #
coedge $-1 $253 $248 $349 $422 reversed $254 $-1 #
vertex $-1 $249 $425 #
straight-curve $-1 79.725333414716033 23.469259074352355 2.344081404139402 0 1 0 I I #
coedge $-1 $419 $250 $253 $359 forward $243 $-1 #
vertex $-1 $251 $426 #
straight-curve $-1 37.894932759957385 41.537197975805221 20.954304667937279 1 0 0 I I #
straight-curve $-1 -34.973876169649103 41.537197975805221 113.10782309370327 -0.71933979245794832 0 0.69465837861970381 I I #
edge $-1 $255 41.537197975805221 $427 52.339838321604212 $253 $428 forward 7 unknown #
point $-1 79.725333414716033 41.537197975805221 20.954304667937272 #
point $-1 79.725333414716019 41.537197975805221 2.344081404139402 #
edge $-1 $429 1 $429 0 $258 $-1 forward 7 unknown #
vertex $-1 $259 $430 #
ellipse-curve $-1 69.366372569979632 44.623666646033506 10.900260359268932 0.69465837861970381 0 0.71933979245794832 0.35966989622897416 0 -0.3473291893098519 1 I I #
point $-1 70.449278361670849 44.623666646033506 11.301863846728478 #
edge $-1 $431 1 $431 0 $262 $-1 forward 7 unknown #
vertex $-1 $263 $432 #
ellipse-curve $-1 69.366372569979632 49.253369651375927 10.900260359268932 0.69465837861970381 0 0.71933979245794832 0.35966989622897416 0 -0.3473291893098519 1 I I #
point $-1 70.449278361670849 49.253369651375927 11.301863846728478 #
plane-surface $-1 79.725333414716033 0 0 -1 0 0 0 0 1 forward_v I I I I #
coedge $-1 $271 $269 $273 $375 reversed $181 $-1 #
edge $-1 $284 -20.954304667937272 $377 20.954304667937272 $283 $433 forward 7 unknown #
vertex $-1 $375 $434 #
straight-curve $-1 -79.725333414716033 -52.339838321604212 0 0 0 -1 I I #
edge $-1 $373 -52.339838321604212 $377 52.339838321604212 $371 $435 forward 7 unknown #
straight-curve $-1 0 -52.339838321604212 -20.954304667937272 -1 0 0 I I #
vertex $-1 $276 $436 #
straight-curve $-1 0 52.339838321604212 -20.954304667937272 1 0 0 I I #
point $-1 79.725333414716033 52.339838321604212 -20.954304667937272 #
point $-1 79.725333414716033 -52.339838321604212 -20.954304667937272 #
straight-curve $-1 -79.725333414716033 0 20.954304667937272 0 -1 0 I I #
point $-1 -79.725333414716033 52.339838321604212 20.954304667937272 #
point $-1 -79.725333414716033 -52.339838321604212 20.954304667937272 #
straight-curve $-1 79.725333414716033 -52.339838321604212 0 0 0 -1 I I #
straight-curve $-1 79.725333414716033 52.339838321604212 0 0 0 -1 I I #
plane-surface $-1 0 0 20.954304667937272 0 0 1 1 0 0 forward_v I I I I #
coedge $-1 $301 $399 $388 $437 forward $294 $-1 #
coedge $-1 $297 $296 $387 $437 reversed $122 $-1 #
edge $-1 $395 -2.9083554246440571 $393 2.9083554246440571 $296 $438 forward 7 unknown #
coedge $-1 $309 $308 $297 $391 forward $310 $-1 #
edge $-1 $392 -2.9083554246440571 $439 2.9083554246440571 $297 $440 forward 7 unknown #
vertex $-1 $313 $441 #
vertex $-1 $303 $442 #
straight-curve $-1 -68.091597283384942 -70.931007483528674 0 0 0 -1 I I #
vertex $-1 $437 $443 #
straight-curve $-1 -62.274886434096828 -61.63542290256644 -20.954304667937272 0 -1 0 I I #
straight-curve $-1 -68.091597283384942 -61.63542290256644 -20.954304667937272 0 1 0 I I #
point $-1 -62.274886434096828 -52.339838321604212 -20.954304667937272 #
coedge $-1 $387 $306 $309 $401 reversed $294 $-1 #
straight-curve $-1 -62.274886434096828 -52.339838321604212 0 0 0 -1 I I #
edge $-1 $439 -9.2955845809622346 $311 9.2955845809622275 $399 $444 forward 7 unknown #
point $-1 -62.274886434096828 -52.339838321604212 20.954304667937272 #
straight-curve $-1 -68.091597283384942 -61.63542290256644 20.954304667937272 0 -1 0 I I #
edge $-1 $405 42.30024673128883 $408 62.394287770310996 $317 $445 forward 7 unknown #
vertex $-1 $331 $446 #
straight-curve $-1 -88.946483713827547 30.478553790147068 20.954304667937272 -1 0 0 I I #
edge $-1 $408 -19.238739242132208 $328 -3.2408898538975102 $327 $447 forward 7 unknown #
vertex $-1 $407 $448 #
straight-curve $-1 -79.725333414716019 30.478553790147068 0.86026362891512065 0.78801074757464917 0 0.61566148304635926 I I #
point $-1 -54.006134249282439 30.478553790147068 20.954304667937272 #
point $-1 -79.725333414716033 14.480704401912369 0.86026362891510955 #
straight-curve $-1 -79.725333414716033 0 20.954304667937272 0 -1 0 I I #
vertex $-1 $334 $449 #
point $-1 -64.022688695248888 17.680274279559306 9.7047562268551264 #
vertex $-1 $338 $450 #
point $-1 -64.022688695248888 22.479629096029718 9.7047562268551264 #
vertex $-1 $342 $451 #
point $-1 -64.022688695248888 27.278983912500131 9.7047562268551264 #
coedge $-1 $347 $355 $348 $421 forward $243 $-1 #
edge $-1 $423 -28.870579247251843 $356 -18.067938901452866 $347 $452 forward 7 unknown #
edge $-1 $427 -79.725333414716033 $423 -60.453883516167693 $348 $453 forward 7 unknown #
edge $-1 $427 -20.954304667937272 $353 -2.3440814041393927 $352 $454 forward 7 unknown #
vertex $-1 $420 $455 #
straight-curve $-1 2.3344655818912585 52.339838321604212 77.079575439615823 -0.71933979245794832 0 0.69465837861970381 I I #
point $-1 79.725333414716033 52.339838321604212 2.3440814041393927 #
point $-1 60.453883516167693 41.537197975805221 20.954304667937265 #
vertex $-1 $359 $456 #
straight-curve $-1 79.725333414716033 0 20.954304667937272 0 1 0 I I #
vertex $-1 $362 $457 #
point $-1 69.726042466208611 44.623666646033506 10.552931169959079 #
vertex $-1 $366 $458 #
point $-1 69.726042466208611 49.253369651375927 10.552931169959079 #
straight-curve $-1 -79.725333414716033 52.339838321604212 0 0 0 -1 I I #
point $-1 -79.725333414716033 -52.339838321604212 -20.954304667937272 #
straight-curve $-1 -79.725333414716033 0 -20.954304667937272 0 1 0 I I #
point $-1 -79.725333414716033 52.339838321604212 -20.954304667937272 #
edge $-1 $439 -20.954304667937272 $395 20.954304667937272 $387 $459 forward 7 unknown #
straight-curve $-1 -65.183241858740885 -70.931007483528674 -20.954304667937272 -1 0 0 I I #
vertex $-1 $401 $460 #
straight-curve $-1 -65.183241858740885 -70.931007483528674 20.954304667937272 1 0 0 I I #
point $-1 -68.091597283384942 -70.931007483528674 20.954304667937272 #
point $-1 -68.091597283384942 -70.931007483528674 -20.954304667937272 #
point $-1 -62.274886434096828 -70.931007483528674 -20.954304667937272 #
straight-curve $-1 -62.274886434096828 -61.63542290256644 20.954304667937272 0 1 0 I I #
straight-curve $-1 -79.725333414716033 30.478553790147068 63.254551399226102 0 0 -1 I I #
point $-1 -79.725333414716033 30.478553790147068 20.954304667937272 #
straight-curve $-1 -79.725333414716033 11.239814548014859 0.86026362891511421 0 -1 0 I I #
point $-1 -79.725333414716033 30.478553790147068 0.86026362891510955 #
point $-1 -64.281212592041328 17.680274279559306 7.5992478809236141 #
point $-1 -64.281212592041328 22.479629096029718 7.5992478809236141 #
point $-1 -64.281212592041328 27.278983912500131 7.5992478809236141 #
straight-curve $-1 60.453883516167686 23.469259074352355 20.954304667937272 0 -1 0 I I #
straight-curve $-1 0 52.339838321604212 20.954304667937272 -1 0 0 I I #
straight-curve $-1 79.725333414716033 52.339838321604212 0 0 0 -1 I I #
point $-1 60.453883516167693 52.339838321604198 20.954304667937265 #
point $-1 79.725333414716033 52.339838321604212 20.954304667937272 #
point $-1 69.019043380669785 44.623666646033506 10.540590463039957 #
point $-1 69.019043380669785 49.253369651375927 10.540590463039957 #
straight-curve $-1 -62.274886434096828 -70.931007483528674 0 0 0 -1 I I #
point $-1 -62.274886434096828 -70.931007483528674 20.954304667937272 #
End-of-ACIS-data 