500 0 7 0           
7 Unknown 11 ACIS 5.0 NT 24 Thu Mar 25 21:31:35 1999 
-1 9.9999999999999995e-007 1e-010 
body $-1 $7 $-1 $8 #
body $-1 $9 $-1 $10 #
body $-1 $11 $-1 $12 #
body $-1 $13 $-1 $14 #
body $-1 $15 $-1 $16 #
body $-1 $17 $-1 $18 #
body $-1 $19 $-1 $20 #
lump $-1 $-1 $21 $0 #
transform $-1 1 0 0 0 1 0 0 0 1 62.49824518570513 43.698989709178534 19.319335753168524 1 rotate no_reflect no_shear #
lump $-1 $-1 $22 $1 #
transform $-1 1 0 0 0 1 0 0 0 1 62.49824518570513 43.698989709178534 19.319335753168524 1 rotate no_reflect no_shear #
lump $-1 $-1 $23 $2 #
transform $-1 1 0 0 0 1 0 0 0 1 62.49824518570513 43.698989709178534 19.319335753168524 1 rotate no_reflect no_shear #
lump $-1 $-1 $24 $3 #
transform $-1 1 0 0 0 1 0 0 0 1 62.49824518570513 43.698989709178534 19.319335753168524 1 rotate no_reflect no_shear #
lump $-1 $-1 $25 $4 #
transform $-1 1 0 0 0 1 0 0 0 1 62.49824518570513 43.698989709178534 19.319335753168524 1 rotate no_reflect no_shear #
lump $-1 $-1 $26 $5 #
transform $-1 1 0 0 0 1 0 0 0 1 62.49824518570513 43.698989709178534 19.319335753168524 1 rotate no_reflect no_shear #
lump $-1 $-1 $27 $6 #
transform $-1 1 0 0 0 1 0 0 0 1 62.49824518570513 43.698989709178534 19.319335753168524 1 rotate no_reflect no_shear #
shell $-1 $-1 $-1 $28 $-1 $7 #
shell $-1 $-1 $-1 $29 $-1 $9 #
shell $-1 $-1 $-1 $30 $-1 $11 #
shell $-1 $-1 $-1 $31 $-1 $13 #
shell $-1 $-1 $-1 $32 $-1 $15 #
shell $-1 $-1 $-1 $33 $-1 $17 #
shell $-1 $-1 $-1 $34 $-1 $19 #
face $-1 $35 $36 $21 $-1 $37 forward single #
face $-1 $38 $39 $22 $-1 $40 reversed single #
face $-1 $41 $42 $23 $-1 $43 reversed single #
face $-1 $44 $45 $24 $-1 $46 forward single #
face $-1 $47 $48 $25 $-1 $49 forward single #
face $-1 $50 $51 $26 $-1 $52 reversed single #
face $-1 $53 $54 $27 $-1 $55 forward single #
face $-1 $56 $57 $21 $-1 $58 reversed single #
loop $-1 $-1 $59 $28 #
plane-surface $-1 0 0 19.319335753168524 0 0 1 1 0 0 forward_v I I I I #
face $-1 $60 $61 $22 $-1 $62 reversed single #
loop $-1 $-1 $63 $29 #
plane-surface $-1 -53.153381012196803 0 14.246322395601076 0 0 1 1 0 0 forward_v I I I I #
face $-1 $64 $65 $23 $-1 $66 reversed single #
loop $-1 $-1 $67 $30 #
plane-surface $-1 15.147073779488437 -106.19723573220219 120.26489601346375 -1 0 0 0 -0.50000000669873634 0.8660253999169214 forward_v I I I I #
face $-1 $68 $69 $24 $-1 $70 forward single #
loop $-1 $71 $72 $31 #
cone-surface $-1 -7.0596282694187025 -35.693806818300928 12.758527420334417 0 0.50000000669873634 -0.8660253999169214 2 0 0 1 I I 0 1 2 forward I I I I #
face $-1 $73 $74 $25 $-1 $75 forward single #
loop $-1 $76 $77 $32 #
cone-surface $-1 6.264392959925587 -35.693806818300928 12.758527420334417 0 0.50000000669873634 -0.8660253999169214 2 0 0 1 I I 0 1 2 forward I I I I #
face $-1 $78 $79 $26 $-1 $80 reversed single #
loop $-1 $-1 $81 $33 #
plane-surface $-1 4.4476640422208575 59.743975053701774 166.33115433619 1 0 0 0 -0.6560590369687036 -0.75470957328743171 forward_v I I I I #
face $-1 $82 $83 $27 $-1 $84 forward single #
loop $-1 $85 $86 $34 #
cone-surface $-1 20.278829278963087 40.592959408521814 16.50005446787501 0 -0.6560590369687036 -0.75470957328743171 1 0 0 1 I I 0 1 1 forward I I I I #
face $-1 $87 $88 $21 $-1 $89 reversed single #
loop $-1 $-1 $90 $35 #
plane-surface $-1 0 0 -19.319335753168524 0 0 1 1 0 0 forward_v I I I I #
coedge $-1 $91 $92 $93 $94 forward $36 $-1 #
face $-1 $95 $96 $22 $-1 $97 reversed single #
loop $-1 $-1 $98 $38 #
plane-surface $-1 -43.808516838688476 0 16.7828290743848 -1 0 0 0 0 1 forward_v I I I I #
coedge $-1 $99 $100 $101 $102 forward $39 $-1 #
face $-1 $103 $104 $23 $-1 $105 reversed single #
loop $-1 $-1 $106 $41 #
plane-surface $-1 -0.3976176547465613 -43.698989709178527 12.014760451351563 0 -0.50000000669873634 0.8660253999169214 1 0 0 forward_v I I I I #
coedge $-1 $107 $108 $109 $110 reversed $42 $-1 #
face $-1 $-1 $111 $24 $-1 $112 forward single #
loop $-1 $113 $114 $44 #
cone-surface $-1 -7.0596282694187025 -33.514571582952151 8.983981338491855 0 0.50000000669873634 -0.8660253999169214 1 0 0 1 I I -0.70710678118654746 0.70710678118654746 1 forward I I I I #
loop $-1 $-1 $115 $31 #
coedge $-1 $72 $72 $116 $117 reversed $45 $-1 #
face $-1 $-1 $118 $25 $-1 $119 forward single #
loop $-1 $120 $121 $47 #
cone-surface $-1 6.264392959925587 -33.514571582952151 8.983981338491855 0 0.50000000669873634 -0.8660253999169214 1 0 0 1 I I -0.70710678118654746 0.70710678118654746 1 forward I I I I #
loop $-1 $-1 $122 $32 #
coedge $-1 $77 $77 $123 $124 reversed $48 $-1 #
face $-1 $125 $126 $26 $-1 $127 reversed single #
loop $-1 $-1 $128 $50 #
plane-surface $-1 20.278829278963073 -22.261102043833475 71.995106425556386 0 0.6560590369687036 0.75470957328743171 1 0 0 forward_v I I I I #
coedge $-1 $129 $130 $131 $132 reversed $51 $-1 #
face $-1 $-1 $133 $27 $-1 $134 forward single #
loop $-1 $135 $136 $53 #
cone-surface $-1 20.278829278963087 39.840674908994089 15.634650164852808 0 -0.6560590369687036 -0.75470957328743171 0.5 0 0 1 I I -0.70710678118654746 0.70710678118654746 0.5 forward I I I I #
loop $-1 $-1 $137 $34 #
coedge $-1 $86 $86 $138 $139 reversed $54 $-1 #
face $-1 $140 $141 $21 $-1 $142 reversed single #
loop $-1 $-1 $143 $56 #
plane-surface $-1 0 -43.698989709178534 0 0 1 0 0 0 1 forward_v I I I I #
coedge $-1 $144 $145 $146 $147 forward $57 $-1 #
coedge $-1 $148 $59 $149 $150 forward $36 $-1 #
coedge $-1 $59 $148 $151 $152 forward $36 $-1 #
coedge $-1 $153 $154 $59 $94 reversed $155 $-1 #
edge $-1 $156 -43.698989709178534 $157 43.698989709178534 $93 $158 forward 7 unknown #
face $-1 $159 $160 $22 $-1 $161 reversed single #
loop $-1 $-1 $162 $60 #
plane-surface $-1 0 43.698989709178534 0 0 -1 0 0 0 -1 forward_v I I I I #
coedge $-1 $101 $163 $164 $165 reversed $61 $-1 #
coedge $-1 $166 $63 $167 $168 reversed $39 $-1 #
coedge $-1 $63 $166 $169 $170 reversed $39 $-1 #
coedge $-1 $171 $98 $63 $102 reversed $61 $-1 #
edge $-1 $172 -43.698989709178534 $173 43.698989709178534 $101 $174 forward 7 unknown #
face $-1 $175 $176 $23 $-1 $177 reversed single #
loop $-1 $-1 $178 $64 #
plane-surface $-1 -15.94230908898156 -106.19723573220219 120.26489601346375 1 0 0 0 0.50000000669873634 -0.8660253999169214 forward_v I I I I #
coedge $-1 $179 $180 $181 $182 reversed $65 $-1 #
coedge $-1 $108 $67 $183 $184 reversed $42 $-1 #
coedge $-1 $67 $107 $179 $185 reversed $42 $-1 #
coedge $-1 $181 $186 $67 $110 forward $187 $-1 #
edge $-1 $188 9.3996281569225602 $189 22.051523481377746 $109 $190 forward 7 unknown #
loop $-1 $-1 $116 $68 #
plane-surface $-1 -0.3976176547465613 -43.698989709178527 12.014760451351563 0 -0.50000000669873634 0.8660253999169214 1 0 0 forward_v I I I I #
loop $-1 $-1 $191 $44 #
coedge $-1 $114 $114 $115 $192 reversed $69 $-1 #
coedge $-1 $115 $115 $114 $192 forward $71 $-1 #
coedge $-1 $116 $116 $72 $117 forward $111 $-1 #
edge $-1 $193 2.6964195209230428e-015 $193 6.2831853071796031 $116 $194 forward 7 unknown #
loop $-1 $-1 $123 $73 #
plane-surface $-1 -0.3976176547465613 -43.698989709178527 12.014760451351563 0 -0.50000000669873634 0.8660253999169214 1 0 0 forward_v I I I I #
loop $-1 $-1 $195 $47 #
coedge $-1 $121 $121 $122 $196 reversed $74 $-1 #
coedge $-1 $122 $122 $121 $196 forward $76 $-1 #
coedge $-1 $123 $123 $77 $124 forward $118 $-1 #
edge $-1 $197 2.6964195209230428e-015 $197 6.2831853071796031 $123 $198 forward 7 unknown #
face $-1 $199 $200 $26 $-1 $201 forward single #
loop $-1 $-1 $202 $78 #
plane-surface $-1 36.109994515705289 59.743975053701774 166.33115433619 -1 0 0 0 0.6560590369687036 0.75470957328743171 forward_v I I I I #
coedge $-1 $203 $204 $205 $206 reversed $79 $-1 #
coedge $-1 $130 $81 $207 $208 reversed $51 $-1 #
coedge $-1 $81 $129 $203 $209 reversed $51 $-1 #
coedge $-1 $205 $210 $81 $132 forward $200 $-1 #
edge $-1 $211 -13.827002182327647 $212 -8.4634515431009589 $131 $213 forward 7 unknown #
loop $-1 $-1 $138 $82 #
plane-surface $-1 20.278829278963073 -22.261102043833475 71.995106425556386 0 0.6560590369687036 0.75470957328743171 1 0 0 forward_v I I I I #
loop $-1 $-1 $214 $53 #
coedge $-1 $136 $136 $137 $215 reversed $83 $-1 #
coedge $-1 $137 $137 $136 $215 forward $85 $-1 #
coedge $-1 $138 $138 $86 $139 forward $133 $-1 #
edge $-1 $216 -2.3307899147393968e-015 $216 6.2831853071795978 $138 $217 forward 7 unknown #
face $-1 $218 $219 $21 $-1 $220 reversed single #
loop $-1 $-1 $221 $87 #
plane-surface $-1 -62.49824518570513 0 0 1 0 0 0 0 -1 forward_v I I I I #
coedge $-1 $222 $151 $223 $224 forward $88 $-1 #
coedge $-1 $225 $90 $222 $226 forward $57 $-1 #
coedge $-1 $90 $225 $227 $228 forward $57 $-1 #
coedge $-1 $154 $153 $90 $147 reversed $155 $-1 #
edge $-1 $229 -43.698989709178534 $230 43.698989709178534 $146 $231 forward 7 unknown #
coedge $-1 $92 $91 $232 $233 forward $36 $-1 #
coedge $-1 $234 $235 $91 $150 reversed $219 $-1 #
edge $-1 $157 -62.49824518570513 $236 62.49824518570513 $149 $237 forward 7 unknown #
coedge $-1 $143 $238 $92 $152 reversed $88 $-1 #
edge $-1 $239 -62.49824518570513 $156 62.49824518570513 $151 $240 forward 7 unknown #
coedge $-1 $146 $93 $238 $241 forward $155 $-1 #
coedge $-1 $93 $146 $234 $242 reversed $155 $-1 #
loop $-1 $-1 $153 $218 #
vertex $-1 $94 $243 #
vertex $-1 $94 $244 #
straight-curve $-1 62.49824518570513 0 19.319335753168524 0 1 0 I I #
face $-1 $245 $246 $22 $-1 $247 forward single #
loop $-1 $-1 $248 $95 #
plane-surface $-1 -62.49824518570513 0 0 1 0 0 0 0 -1 forward_v I I I I #
coedge $-1 $169 $249 $171 $250 forward $96 $-1 #
coedge $-1 $98 $171 $251 $252 reversed $61 $-1 #
coedge $-1 $253 $167 $98 $165 forward $254 $-1 #
edge $-1 $173 5.8549078584086764 $255 10.927921215976124 $164 $256 forward 7 unknown #
coedge $-1 $100 $99 $248 $257 reversed $39 $-1 #
coedge $-1 $164 $258 $99 $168 forward $254 $-1 #
edge $-1 $259 -35.921554679606729 $173 -17.231826332590074 $167 $260 forward 7 unknown #
coedge $-1 $261 $162 $100 $170 forward $96 $-1 #
edge $-1 $172 17.231826332590074 $262 35.921554679606729 $169 $263 forward 7 unknown #
coedge $-1 $163 $101 $162 $250 reversed $61 $-1 #
vertex $-1 $170 $264 #
vertex $-1 $168 $265 #
straight-curve $-1 -43.808516838688476 0 14.246322395601076 0 -1 0 I I #
face $-1 $-1 $187 $23 $-1 $266 forward single #
loop $-1 $-1 $267 $103 #
plane-surface $-1 0 -43.698989709178534 0 0 1 0 0 0 1 forward_v I I I I #
coedge $-1 $268 $269 $270 $271 reversed $104 $-1 #
coedge $-1 $272 $106 $108 $185 forward $65 $-1 #
coedge $-1 $106 $272 $268 $273 forward $65 $-1 #
coedge $-1 $270 $109 $106 $182 forward $187 $-1 #
edge $-1 $189 -15.345882606861718 $274 15.743500261608279 $181 $275 forward 7 unknown #
coedge $-1 $276 $277 $107 $184 forward $176 $-1 #
edge $-1 $278 -48.117687555380314 $188 -40.813112253563354 $183 $279 forward 7 unknown #
edge $-1 $189 -14.609150407908229 $278 7.929837432145984e-015 $108 $280 forward 7 unknown #
coedge $-1 $109 $270 $276 $281 forward $187 $-1 #
loop $-1 $-1 $270 $175 #
vertex $-1 $184 $282 #
vertex $-1 $110 $283 #
straight-curve $-1 15.147073779488437 -53.098617866101094 19.319335753168524 0 1 0 I I #
coedge $-1 $191 $191 $-1 $284 reversed $113 $-1 #
edge $-1 $285 0 $285 6.2831853071796004 $114 $286 forward 7 unknown #
vertex $-1 $117 $287 #
ellipse-curve $-1 -7.0596282694187025 -37.373042046950957 15.667048102260035 0 -0.50000000669873634 0.8660253999169214 2 0 0 1 I I #
coedge $-1 $195 $195 $-1 $288 reversed $120 $-1 #
edge $-1 $289 0 $289 6.2831853071796004 $121 $290 forward 7 unknown #
vertex $-1 $124 $291 #
ellipse-curve $-1 6.264392959925587 -37.373042046950957 15.667048102260035 0 -0.50000000669873634 0.8660253999169214 2 0 0 1 I I #
face $-1 $-1 $292 $26 $-1 $293 reversed single #
loop $-1 $-1 $131 $125 #
plane-surface $-1 0 0 19.319335753168524 0 0 1 1 0 0 forward_v I I I I #
coedge $-1 $294 $295 $296 $297 reversed $126 $-1 #
coedge $-1 $298 $128 $130 $209 forward $79 $-1 #
coedge $-1 $128 $298 $294 $299 forward $79 $-1 #
coedge $-1 $296 $131 $128 $206 forward $200 $-1 #
edge $-1 $212 -5.691750597260679 $300 25.970579876223752 $205 $301 forward 7 unknown #
coedge $-1 $302 $303 $129 $208 forward $292 $-1 #
edge $-1 $304 -68.508704952756545 $211 -63.846241414926475 $207 $305 forward 7 unknown #
edge $-1 $212 80.291205065590304 $304 87.397979418357082 $130 $306 forward 7 unknown #
coedge $-1 $131 $296 $302 $307 forward $200 $-1 #
vertex $-1 $208 $308 #
vertex $-1 $132 $309 #
straight-curve $-1 4.4476640422208575 29.871987526850887 19.319335753168531 0 -1 0 I I #
coedge $-1 $214 $214 $-1 $310 reversed $135 $-1 #
edge $-1 $311 0 $311 6.2831853071796004 $136 $312 forward 7 unknown #
vertex $-1 $139 $313 #
ellipse-curve $-1 20.278829278963087 41.01721438956519 16.988103984253499 0 0.6560590369687036 0.75470957328743171 1 0 0 1 I I #
face $-1 $-1 $155 $21 $-1 $314 reversed single #
loop $-1 $-1 $234 $140 #
plane-surface $-1 0 43.698989709178534 0 0 -1 0 0 0 -1 forward_v I I I I #
coedge $-1 $315 $232 $235 $316 forward $141 $-1 #
coedge $-1 $238 $143 $144 $226 reversed $88 $-1 #
coedge $-1 $232 $315 $143 $224 reversed $141 $-1 #
edge $-1 $239 -19.319335753168524 $317 19.319335753168524 $223 $318 forward 7 unknown #
coedge $-1 $145 $144 $315 $319 forward $57 $-1 #
edge $-1 $230 -62.49824518570513 $317 62.49824518570513 $222 $320 forward 7 unknown #
coedge $-1 $235 $234 $145 $228 reversed $219 $-1 #
edge $-1 $321 -62.49824518570513 $229 62.49824518570513 $227 $322 forward 7 unknown #
vertex $-1 $147 $323 #
vertex $-1 $241 $324 #
straight-curve $-1 62.49824518570513 0 -19.319335753168524 0 -1 0 I I #
coedge $-1 $221 $223 $148 $233 reversed $141 $-1 #
edge $-1 $236 -43.698989709178534 $239 43.698989709178534 $232 $325 forward 7 unknown #
coedge $-1 $227 $149 $154 $242 forward $219 $-1 #
coedge $-1 $149 $227 $221 $316 reversed $219 $-1 #
vertex $-1 $150 $326 #
straight-curve $-1 0 43.698989709178534 19.319335753168524 -1 0 0 I I #
coedge $-1 $151 $222 $153 $241 reversed $88 $-1 #
vertex $-1 $233 $327 #
straight-curve $-1 0 -43.698989709178534 19.319335753168524 1 0 0 I I #
edge $-1 $156 -19.319335753168524 $230 19.319335753168524 $153 $328 forward 7 unknown #
edge $-1 $157 -19.319335753168524 $229 19.319335753168524 $154 $329 forward 7 unknown #
point $-1 62.49824518570513 -43.698989709178534 19.319335753168524 #
point $-1 62.49824518570513 43.698989709178534 19.319335753168524 #
face $-1 $-1 $254 $22 $-1 $330 reversed single #
loop $-1 $-1 $251 $159 #
plane-surface $-1 0 0 19.319335753168524 0 0 1 1 0 0 forward_v I I I I #
coedge $-1 $331 $332 $166 $257 forward $160 $-1 #
coedge $-1 $162 $261 $333 $334 reversed $96 $-1 #
edge $-1 $335 -10.927921215976124 $172 -5.8549078584086764 $162 $336 forward 7 unknown #
coedge $-1 $333 $337 $163 $252 forward $246 $-1 #
edge $-1 $255 -43.698989709178534 $335 43.698989709178534 $251 $338 forward 7 unknown #
coedge $-1 $258 $164 $337 $339 reversed $254 $-1 #
loop $-1 $-1 $164 $245 #
vertex $-1 $165 $340 #
straight-curve $-1 -43.808516838688476 -43.698989709178534 8.3914145371924 0 0 1 I I #
edge $-1 $262 -43.698989709178534 $259 43.698989709178534 $248 $341 forward 7 unknown #
coedge $-1 $167 $253 $331 $342 forward $254 $-1 #
vertex $-1 $257 $343 #
straight-curve $-1 -26.576690506098402 -43.698989709178534 14.246322395601076 1 0 0 I I #
coedge $-1 $249 $169 $332 $344 reversed $96 $-1 #
vertex $-1 $257 $345 #
straight-curve $-1 -26.576690506098402 43.698989709178534 14.246322395601076 -1 0 0 I I #
point $-1 -43.808516838688476 43.698989709178534 14.246322395601076 #
point $-1 -43.808516838688476 -43.698989709178534 14.246322395601076 #
plane-surface $-1 0 0 19.319335753168524 0 0 1 1 0 0 forward_v I I I I #
coedge $-1 $277 $276 $269 $346 forward $176 $-1 #
coedge $-1 $269 $178 $180 $273 reversed $104 $-1 #
coedge $-1 $178 $268 $267 $346 reversed $104 $-1 #
coedge $-1 $186 $181 $178 $271 forward $187 $-1 #
edge $-1 $274 -22.051523481377746 $347 -9.3996281569225602 $270 $348 forward 7 unknown #
coedge $-1 $180 $179 $277 $349 reversed $65 $-1 #
edge $-1 $350 -7.929837432145984e-015 $274 14.609150407908229 $268 $351 forward 7 unknown #
vertex $-1 $182 $352 #
straight-curve $-1 -0.19880882737328065 -31.047094384723348 19.319335753168524 -1 0 0 I I #
coedge $-1 $267 $183 $186 $281 reversed $176 $-1 #
coedge $-1 $183 $267 $272 $349 forward $176 $-1 #
vertex $-1 $184 $353 #
straight-curve $-1 15.147073779488437 -43.698989709178534 60.132448006731877 0 0 1 I I #
straight-curve $-1 15.147073779488437 -43.698989709178527 12.014760451351563 0 -0.8660253999169214 -0.50000000669873634 I I #
edge $-1 $347 -15.94230908898156 $188 15.147073779488437 $276 $354 forward 7 unknown #
point $-1 15.147073779488437 -43.698989709178534 19.319335753168524 #
point $-1 15.147073779488437 -31.047094384723348 19.319335753168524 #
edge $-1 $355 1 $355 0 $191 $-1 forward 7 unknown #
vertex $-1 $192 $356 #
ellipse-curve $-1 -7.0596282694187025 -34.014571589650885 9.8500067384087764 0 -0.50000000669873634 0.8660253999169214 2 0 0 1 I I #
point $-1 -5.0596282694187025 -37.373042046950964 15.667048102260058 #
edge $-1 $357 1 $357 0 $195 $-1 forward 7 unknown #
vertex $-1 $196 $358 #
ellipse-curve $-1 6.264392959925587 -34.014571589650885 9.8500067384087764 0 -0.50000000669873634 0.8660253999169214 2 0 0 1 I I #
point $-1 8.264392959925587 -37.373042046950964 15.667048102260058 #
loop $-1 $-1 $207 $199 #
plane-surface $-1 0 43.698989709178534 0 0 -1 0 0 0 -1 forward_v I I I I #
coedge $-1 $295 $202 $204 $299 reversed $126 $-1 #
coedge $-1 $202 $294 $359 $360 reversed $126 $-1 #
coedge $-1 $210 $205 $202 $297 forward $200 $-1 #
edge $-1 $300 8.4634515431009589 $361 13.827002182327647 $296 $362 forward 7 unknown #
coedge $-1 $204 $203 $303 $363 reversed $79 $-1 #
edge $-1 $364 -87.397979418357082 $300 -80.291205065590304 $294 $365 forward 7 unknown #
vertex $-1 $206 $366 #
straight-curve $-1 10.139414639481537 38.335439069951839 19.319335753168531 1 0 0 I I #
coedge $-1 $359 $207 $210 $307 reversed $292 $-1 #
coedge $-1 $207 $359 $298 $363 forward $292 $-1 #
vertex $-1 $208 $367 #
straight-curve $-1 4.4476640422208575 43.698989709178534 83.165577168094998 0 0 1 I I #
straight-curve $-1 4.4476640422208575 -22.261102043833475 71.995106425556386 0 0.75470957328743171 -0.6560590369687036 I I #
edge $-1 $361 -36.109994515705289 $211 -4.4476640422208575 $302 $368 forward 7 unknown #
point $-1 4.4476640422208575 43.698989709178534 19.319335753168524 #
point $-1 4.4476640422208575 38.335439069951846 19.319335753168524 #
edge $-1 $369 1 $369 0 $214 $-1 forward 7 unknown #
vertex $-1 $215 $370 #
ellipse-curve $-1 20.278829278963087 40.168704427478438 16.012004951496522 0 0.6560590369687036 0.75470957328743171 1 0 0 1 I I #
point $-1 21.278829278963087 41.01721438956519 16.988103984253502 #
plane-surface $-1 62.49824518570513 0 0 -1 0 0 0 0 1 forward_v I I I I #
coedge $-1 $223 $221 $225 $319 reversed $141 $-1 #
edge $-1 $236 -19.319335753168524 $321 19.319335753168524 $235 $371 forward 7 unknown #
vertex $-1 $319 $372 #
straight-curve $-1 -62.49824518570513 -43.698989709178534 0 0 0 -1 I I #
edge $-1 $317 -43.698989709178534 $321 43.698989709178534 $315 $373 forward 7 unknown #
straight-curve $-1 0 -43.698989709178534 -19.319335753168524 -1 0 0 I I #
vertex $-1 $228 $374 #
straight-curve $-1 0 43.698989709178534 -19.319335753168524 1 0 0 I I #
point $-1 62.49824518570513 43.698989709178534 -19.319335753168524 #
point $-1 62.49824518570513 -43.698989709178534 -19.319335753168524 #
straight-curve $-1 -62.49824518570513 0 19.319335753168524 0 -1 0 I I #
point $-1 -62.49824518570513 43.698989709178534 19.319335753168524 #
point $-1 -62.49824518570513 -43.698989709178534 19.319335753168524 #
straight-curve $-1 62.49824518570513 -43.698989709178534 0 0 0 -1 I I #
straight-curve $-1 62.49824518570513 43.698989709178534 0 0 0 -1 I I #
plane-surface $-1 0 -43.698989709178534 0 0 1 0 0 0 1 forward_v I I I I #
coedge $-1 $375 $248 $258 $342 reversed $160 $-1 #
coedge $-1 $248 $375 $261 $344 forward $160 $-1 #
coedge $-1 $376 $251 $249 $334 forward $246 $-1 #
edge $-1 $335 43.808516838688476 $377 62.49824518570513 $249 $378 forward 7 unknown #
vertex $-1 $334 $379 #
straight-curve $-1 -43.808516838688476 43.698989709178534 8.3914145371924 0 0 -1 I I #
coedge $-1 $251 $376 $253 $339 forward $246 $-1 #
straight-curve $-1 -43.808516838688476 0 19.319335753168524 0 1 0 I I #
edge $-1 $380 -62.49824518570513 $255 -43.808516838688476 $253 $381 forward 7 unknown #
point $-1 -43.808516838688476 -43.698989709178534 19.319335753168524 #
straight-curve $-1 -62.49824518570513 0 14.246322395601076 0 -1 0 I I #
edge $-1 $380 -19.319335753168524 $259 -14.246322395601076 $331 $382 forward 7 unknown #
point $-1 -62.49824518570513 -43.698989709178534 14.246322395601076 #
edge $-1 $377 -19.319335753168524 $262 -14.246322395601076 $261 $383 forward 7 unknown #
point $-1 -62.49824518570513 43.698989709178534 14.246322395601076 #
edge $-1 $347 40.813112253563354 $350 48.117687555380314 $267 $384 forward 7 unknown #
vertex $-1 $281 $385 #
straight-curve $-1 -15.94230908898156 -53.098617866101094 19.319335753168524 0 -1 0 I I #
edge $-1 $350 -15.743500261608279 $278 15.345882606861718 $277 $386 forward 7 unknown #
vertex $-1 $349 $387 #
straight-curve $-1 -15.94230908898156 -43.698989709178527 12.014760451351563 0 0.8660253999169214 0.50000000669873634 I I #
point $-1 -15.94230908898156 -31.047094384723348 19.319335753168524 #
point $-1 15.147073779488437 -43.698989709178534 12.01476045135156 #
straight-curve $-1 0 -43.698989709178534 19.319335753168524 1 0 0 I I #
vertex $-1 $284 $388 #
point $-1 -5.0596282694187025 -34.014571589650885 9.8500067384087764 #
vertex $-1 $288 $389 #
point $-1 8.264392959925587 -34.014571589650885 9.8500067384087764 #
coedge $-1 $303 $302 $295 $360 forward $292 $-1 #
edge $-1 $361 63.846241414926475 $364 68.508704952756545 $359 $390 forward 7 unknown #
vertex $-1 $307 $391 #
straight-curve $-1 36.109994515705289 29.871987526850887 19.319335753168531 0 1 0 I I #
edge $-1 $364 -25.970579876223752 $304 5.691750597260679 $303 $392 forward 7 unknown #
vertex $-1 $363 $393 #
straight-curve $-1 36.109994515705289 -22.261102043833475 71.995106425556386 0 -0.75470957328743171 0.6560590369687036 I I #
point $-1 36.109994515705289 38.335439069951846 19.319335753168524 #
point $-1 4.4476640422208575 43.698989709178534 14.65687221533846 #
straight-curve $-1 0 43.698989709178534 19.319335753168524 -1 0 0 I I #
vertex $-1 $310 $394 #
point $-1 21.278829278963087 40.168704427478438 16.012004951496522 #
straight-curve $-1 -62.49824518570513 43.698989709178534 0 0 0 -1 I I #
point $-1 -62.49824518570513 -43.698989709178534 -19.319335753168524 #
straight-curve $-1 -62.49824518570513 0 -19.319335753168524 0 1 0 I I #
point $-1 -62.49824518570513 43.698989709178534 -19.319335753168524 #
coedge $-1 $332 $331 $376 $395 reversed $160 $-1 #
coedge $-1 $337 $333 $375 $395 forward $246 $-1 #
vertex $-1 $334 $396 #
straight-curve $-1 0 43.698989709178534 19.319335753168524 -1 0 0 I I #
point $-1 -43.808516838688476 43.698989709178534 19.319335753168524 #
vertex $-1 $395 $397 #
straight-curve $-1 0 -43.698989709178534 19.319335753168524 1 0 0 I I #
straight-curve $-1 -62.49824518570513 -43.698989709178534 0 0 0 -1 I I #
straight-curve $-1 -62.49824518570513 43.698989709178534 0 0 0 -1 I I #
straight-curve $-1 -15.94230908898156 -43.698989709178534 60.132448006731877 0 0 -1 I I #
point $-1 -15.94230908898156 -43.698989709178534 19.319335753168524 #
straight-curve $-1 -0.19880882737328065 -43.698989709178534 12.014760451351561 1 0 0 I I #
point $-1 -15.94230908898156 -43.698989709178534 12.01476045135156 #
point $-1 -7.0596282694187025 -33.014571576253417 8.1179559385749336 #
point $-1 6.264392959925587 -33.014571576253417 8.1179559385749336 #
straight-curve $-1 36.109994515705289 43.698989709178534 83.165577168094998 0 0 -1 I I #
point $-1 36.109994515705289 43.698989709178534 19.319335753168524 #
straight-curve $-1 10.139414639481537 43.698989709178534 14.656872215338467 -1 0 0 I I #
point $-1 36.109994515705289 43.698989709178534 14.65687221533846 #
point $-1 20.278829278963087 39.512645390509739 15.257295378209092 #
edge $-1 $377 -43.698989709178534 $380 43.698989709178534 $375 $398 forward 7 unknown #
point $-1 -62.49824518570513 43.698989709178534 19.319335753168524 #
point $-1 -62.49824518570513 -43.698989709178534 19.319335753168524 #
straight-curve $-1 -62.49824518570513 0 19.319335753168524 0 -1 0 I I #
End-of-ACIS-data 