500 0 16 0           
7 Unknown 11 ACIS 5.0 NT 24 Fri Mar 26 01:03:27 1999 
-1 9.9999999999999995e-007 1e-010 
body $-1 $16 $-1 $17 #
body $-1 $18 $-1 $19 #
body $-1 $20 $-1 $21 #
body $-1 $22 $-1 $23 #
body $-1 $24 $-1 $25 #
body $-1 $26 $-1 $27 #
body $-1 $28 $-1 $29 #
body $-1 $30 $-1 $31 #
body $-1 $32 $-1 $33 #
body $-1 $34 $-1 $35 #
body $-1 $36 $-1 $37 #
body $-1 $38 $-1 $39 #
body $-1 $40 $-1 $41 #
body $-1 $42 $-1 $43 #
body $-1 $44 $-1 $45 #
body $-1 $46 $-1 $47 #
lump $-1 $-1 $48 $0 #
transform $-1 1 0 0 0 1 0 0 0 1 41.805475020599992 25.747487725325001 8.4240574864007005 1 rotate no_reflect no_shear #
lump $-1 $-1 $49 $1 #
transform $-1 1 0 0 0 1 0 0 0 1 41.805475020599992 25.747487725325001 8.4240574864007005 1 rotate no_reflect no_shear #
lump $-1 $-1 $50 $2 #
transform $-1 1 0 0 0 1 0 0 0 1 41.805475020599992 25.747487725325001 8.4240574864007005 1 rotate no_reflect no_shear #
lump $-1 $-1 $51 $3 #
transform $-1 1 0 0 0 1 0 0 0 1 41.805475020599992 25.747487725325001 8.4240574864007005 1 rotate no_reflect no_shear #
lump $-1 $-1 $52 $4 #
transform $-1 1 0 0 0 1 0 0 0 1 41.805475020599992 25.747487725325001 8.4240574864007005 1 rotate no_reflect no_shear #
lump $-1 $-1 $53 $5 #
transform $-1 1 0 0 0 1 0 0 0 1 41.805475020599992 25.747487725325001 8.4240574864007005 1 rotate no_reflect no_shear #
lump $-1 $-1 $54 $6 #
transform $-1 1 0 0 0 1 0 0 0 1 41.805475020599992 25.747487725325001 8.4240574864007005 1 rotate no_reflect no_shear #
lump $-1 $-1 $55 $7 #
transform $-1 1 0 0 0 1 0 0 0 1 41.805475020599992 25.747487725325001 8.4240574864007005 1 rotate no_reflect no_shear #
lump $-1 $-1 $56 $8 #
transform $-1 1 0 0 0 1 0 0 0 1 41.805475020599992 25.747487725325001 8.4240574864007005 1 rotate no_reflect no_shear #
lump $-1 $-1 $57 $9 #
transform $-1 1 0 0 0 1 0 0 0 1 41.805475020599992 25.747487725325001 8.4240574864007005 1 rotate no_reflect no_shear #
lump $-1 $-1 $58 $10 #
transform $-1 1 0 0 0 1 0 0 0 1 41.805475020599992 25.747487725325001 8.4240574864007005 1 rotate no_reflect no_shear #
lump $-1 $-1 $59 $11 #
transform $-1 1 0 0 0 1 0 0 0 1 41.805475020599992 25.747487725325001 8.4240574864007005 1 rotate no_reflect no_shear #
lump $-1 $-1 $60 $12 #
transform $-1 1 0 0 0 1 0 0 0 1 41.805475020599992 25.747487725325001 8.4240574864007005 1 rotate no_reflect no_shear #
lump $-1 $-1 $61 $13 #
transform $-1 1 0 0 0 1 0 0 0 1 41.805475020599992 25.747487725325001 8.4240574864007005 1 rotate no_reflect no_shear #
lump $-1 $-1 $62 $14 #
transform $-1 1 0 0 0 1 0 0 0 1 41.805475020599992 25.747487725325001 8.4240574864007005 1 rotate no_reflect no_shear #
lump $-1 $-1 $63 $15 #
transform $-1 1 0 0 0 1 0 0 0 1 41.805475020599992 25.747487725325001 8.4240574864007005 1 rotate no_reflect no_shear #
shell $-1 $-1 $-1 $64 $-1 $16 #
shell $-1 $-1 $-1 $65 $-1 $18 #
shell $-1 $-1 $-1 $66 $-1 $20 #
shell $-1 $-1 $-1 $67 $-1 $22 #
shell $-1 $-1 $-1 $68 $-1 $24 #
shell $-1 $-1 $-1 $69 $-1 $26 #
shell $-1 $-1 $-1 $70 $-1 $28 #
shell $-1 $-1 $-1 $71 $-1 $30 #
shell $-1 $-1 $-1 $72 $-1 $32 #
shell $-1 $-1 $-1 $73 $-1 $34 #
shell $-1 $-1 $-1 $74 $-1 $36 #
shell $-1 $-1 $-1 $75 $-1 $38 #
shell $-1 $-1 $-1 $76 $-1 $40 #
shell $-1 $-1 $-1 $77 $-1 $42 #
shell $-1 $-1 $-1 $78 $-1 $44 #
shell $-1 $-1 $-1 $79 $-1 $46 #
face $-1 $80 $81 $48 $-1 $82 forward single #
face $-1 $83 $84 $49 $-1 $85 forward single #
face $-1 $86 $87 $50 $-1 $88 reversed single #
face $-1 $89 $90 $51 $-1 $91 forward single #
face $-1 $92 $93 $52 $-1 $94 reversed single #
face $-1 $95 $96 $53 $-1 $97 forward single #
face $-1 $98 $99 $54 $-1 $100 forward single #
face $-1 $101 $102 $55 $-1 $103 reversed single #
face $-1 $104 $105 $56 $-1 $106 forward single #
face $-1 $107 $108 $57 $-1 $109 forward single #
face $-1 $110 $111 $58 $-1 $112 reversed single #
face $-1 $113 $114 $59 $-1 $115 forward single #
face $-1 $116 $117 $60 $-1 $118 forward single #
face $-1 $119 $120 $61 $-1 $121 reversed single #
face $-1 $122 $123 $62 $-1 $124 forward single #
face $-1 $125 $126 $63 $-1 $127 forward single #
face $-1 $128 $129 $48 $-1 $130 reversed single #
loop $-1 $-1 $131 $64 #
plane-surface $-1 0 0 8.4240574864007005 0 0 1 1 0 0 forward_v I I I I #
face $-1 $132 $133 $49 $-1 $134 reversed single #
loop $-1 $-1 $135 $65 #
plane-surface $-1 0 -22.41634591380145 2.0377888211581721 0 0 1 1 0 0 forward_v I I I I #
face $-1 $136 $137 $50 $-1 $138 reversed single #
loop $-1 $-1 $139 $66 #
plane-surface $-1 -113.4740480316363 -10.19866983116323 43.151713498822261 0 1 0 -0.85716730853699208 0 0.51503806187062418 forward_v I I I I #
face $-1 $140 $141 $51 $-1 $142 forward single #
loop $-1 $143 $144 $67 #
cone-surface $-1 -36.784980945679038 -4.5057395810453436 2.744494429701331 0.85716730853699208 0 -0.51503806187062418 1.0300761237412484 0 1.7143346170739842 1 I I 0 1 2 forward I I I I #
face $-1 $145 $146 $52 $-1 $147 reversed single #
loop $-1 $-1 $148 $68 #
plane-surface $-1 35.617077122253953 -7.8770311453771704 122.31588866034883 0 -1 0 -0.66913061440640931 0 -0.74314481823134659 forward_v I I I I #
face $-1 $149 $150 $53 $-1 $151 forward single #
loop $-1 $152 $153 $69 #
cone-surface $-1 39.144254583385397 -12.992330945468202 5.9575553429143477 -0.66913061440640931 0 -0.74314481823134659 0.3715724091156733 0 -0.33456530720320465 1 I I 0 1 0.5 forward I I I I #
face $-1 $154 $155 $54 $-1 $156 forward single #
loop $-1 $157 $158 $70 #
cone-surface $-1 39.144254583385397 -9.9231510654135846 5.9575553429143477 -0.66913061440640931 0 -0.74314481823134659 0.3715724091156733 0 -0.33456530720320465 1 I I 0 1 0.5 forward I I I I #
face $-1 $159 $160 $55 $-1 $161 reversed single #
loop $-1 $-1 $162 $71 #
plane-surface $-1 35.617077122253953 1.9822240659324617 122.31588866034883 0 -1 0 -0.66913061440640931 0 -0.74314481823134659 forward_v I I I I #
face $-1 $163 $164 $56 $-1 $165 forward single #
loop $-1 $166 $167 $72 #
cone-surface $-1 39.144254583385397 -3.1330757341585702 5.9575553429143477 -0.66913061440640931 0 -0.74314481823134659 0.3715724091156733 0 -0.33456530720320465 1 I I 0 1 0.5 forward I I I I #
face $-1 $168 $169 $57 $-1 $170 forward single #
loop $-1 $171 $172 $73 #
cone-surface $-1 39.144254583385397 -0.063895854103954264 5.9575553429143477 -0.66913061440640931 0 -0.74314481823134659 0.3715724091156733 0 -0.33456530720320465 1 I I 0 1 0.5 forward I I I I #
face $-1 $173 $174 $58 $-1 $175 reversed single #
loop $-1 $-1 $176 $74 #
plane-surface $-1 35.617077122253953 11.841479277242096 122.31588866034883 0 -1 0 -0.66913061440640931 0 -0.74314481823134659 forward_v I I I I #
face $-1 $177 $178 $59 $-1 $179 forward single #
loop $-1 $180 $181 $75 #
cone-surface $-1 39.144254583385397 6.7261794771510637 5.9575553429143477 -0.66913061440640931 0 -0.74314481823134659 0.3715724091156733 0 -0.33456530720320465 1 I I 0 1 0.5 forward I I I I #
face $-1 $182 $183 $60 $-1 $184 forward single #
loop $-1 $185 $186 $76 #
cone-surface $-1 39.144254583385397 9.7953593572056761 5.9575553429143477 -0.66913061440640931 0 -0.74314481823134659 0.3715724091156733 0 -0.33456530720320465 1 I I 0 1 0.5 forward I I I I #
face $-1 $187 $188 $61 $-1 $189 reversed single #
loop $-1 $-1 $190 $77 #
plane-surface $-1 35.617077122253953 21.700734488551724 122.31588866034883 0 -1 0 -0.66913061440640931 0 -0.74314481823134659 forward_v I I I I #
face $-1 $191 $192 $62 $-1 $193 forward single #
loop $-1 $194 $195 $78 #
cone-surface $-1 39.144254583385397 16.585434688460694 5.9575553429143477 -0.66913061440640931 0 -0.74314481823134659 0.3715724091156733 0 -0.33456530720320465 1 I I 0 1 0.5 forward I I I I #
face $-1 $196 $197 $63 $-1 $198 forward single #
loop $-1 $199 $200 $79 #
cone-surface $-1 39.144254583385397 19.654614568515306 5.9575553429143477 -0.66913061440640931 0 -0.74314481823134659 0.3715724091156733 0 -0.33456530720320465 1 I I 0 1 0.5 forward I I I I #
face $-1 $201 $202 $48 $-1 $203 reversed single #
loop $-1 $-1 $204 $80 #
plane-surface $-1 0 0 -8.4240574864007005 0 0 1 1 0 0 forward_v I I I I #
coedge $-1 $205 $206 $207 $208 forward $81 $-1 #
face $-1 $209 $210 $49 $-1 $211 reversed single #
loop $-1 $-1 $212 $83 #
plane-surface $-1 0 -22.41634591380145 -0.96221117884182883 0 0 1 1 0 0 forward_v I I I I #
coedge $-1 $213 $214 $215 $216 reversed $84 $-1 #
face $-1 $217 $218 $50 $-1 $219 reversed single #
loop $-1 $-1 $220 $86 #
plane-surface $-1 -41.805475020599999 -4.5057395810453436 0.088891838441035986 -0.85716730853699208 0 0.51503806187062418 0.51503806187062418 0 0.85716730853699208 forward_v I I I I #
coedge $-1 $221 $222 $223 $224 reversed $87 $-1 #
face $-1 $-1 $225 $51 $-1 $226 forward single #
loop $-1 $227 $228 $89 #
cone-surface $-1 -33.411455871399106 -4.5057395810453436 0.71747613511117336 0.85716730853699208 0 -0.51503806187062418 0.51503806187062418 0 0.85716730853699208 1 I I -0.70710678118654746 0.70710678118654746 1 forward I I I I #
loop $-1 $-1 $229 $67 #
coedge $-1 $144 $144 $230 $231 reversed $90 $-1 #
face $-1 $232 $233 $52 $-1 $234 reversed single #
loop $-1 $-1 $235 $92 #
plane-surface $-1 -20.329569249917789 -11.457741005440893 60.180844389831066 0.66913061440640931 0 0.74314481823134659 0.74314481823134659 0 -0.66913061440640931 forward_v I I I I #
coedge $-1 $236 $237 $238 $239 reversed $93 $-1 #
face $-1 $-1 $240 $53 $-1 $241 forward single #
loop $-1 $242 $243 $95 #
cone-surface $-1 38.642406622580587 -12.992330945468202 5.4001967292408377 -0.66913061440640931 0 -0.74314481823134659 0.18578620455783665 0 -0.16728265360160233 1 I I -0.70710678118654746 0.70710678118654746 0.25 forward I I I I #
loop $-1 $-1 $244 $69 #
coedge $-1 $153 $153 $245 $246 reversed $96 $-1 #
face $-1 $-1 $247 $54 $-1 $248 forward single #
loop $-1 $249 $250 $98 #
cone-surface $-1 38.642406622580587 -9.9231510654135846 5.4001967292408377 -0.66913061440640931 0 -0.74314481823134659 0.18578620455783665 0 -0.16728265360160233 1 I I -0.70710678118654746 0.70710678118654746 0.25 forward I I I I #
loop $-1 $-1 $251 $70 #
coedge $-1 $158 $158 $252 $253 reversed $99 $-1 #
face $-1 $254 $255 $55 $-1 $256 reversed single #
loop $-1 $-1 $257 $101 #
plane-surface $-1 -20.329569249917789 -1.5984857941312605 60.180844389831066 0.66913061440640931 0 0.74314481823134659 0.74314481823134659 0 -0.66913061440640931 forward_v I I I I #
coedge $-1 $258 $259 $260 $261 reversed $102 $-1 #
face $-1 $-1 $262 $56 $-1 $263 forward single #
loop $-1 $264 $265 $104 #
cone-surface $-1 38.642406622580587 -3.1330757341585702 5.4001967292408377 -0.66913061440640931 0 -0.74314481823134659 0.18578620455783665 0 -0.16728265360160233 1 I I -0.70710678118654746 0.70710678118654746 0.25 forward I I I I #
loop $-1 $-1 $266 $72 #
coedge $-1 $167 $167 $267 $268 reversed $105 $-1 #
face $-1 $-1 $269 $57 $-1 $270 forward single #
loop $-1 $271 $272 $107 #
cone-surface $-1 38.642406622580587 -0.063895854103954264 5.4001967292408377 -0.66913061440640931 0 -0.74314481823134659 0.18578620455783665 0 -0.16728265360160233 1 I I -0.70710678118654746 0.70710678118654746 0.25 forward I I I I #
loop $-1 $-1 $273 $73 #
coedge $-1 $172 $172 $274 $275 reversed $108 $-1 #
face $-1 $276 $277 $58 $-1 $278 reversed single #
loop $-1 $-1 $279 $110 #
plane-surface $-1 -20.329569249917789 8.2607694171783734 60.180844389831066 0.66913061440640931 0 0.74314481823134659 0.74314481823134659 0 -0.66913061440640931 forward_v I I I I #
coedge $-1 $280 $281 $282 $283 reversed $111 $-1 #
face $-1 $-1 $284 $59 $-1 $285 forward single #
loop $-1 $286 $287 $113 #
cone-surface $-1 38.642406622580587 6.7261794771510637 5.4001967292408377 -0.66913061440640931 0 -0.74314481823134659 0.18578620455783665 0 -0.16728265360160233 1 I I -0.70710678118654746 0.70710678118654746 0.25 forward I I I I #
loop $-1 $-1 $288 $75 #
coedge $-1 $181 $181 $289 $290 reversed $114 $-1 #
face $-1 $-1 $291 $60 $-1 $292 forward single #
loop $-1 $293 $294 $116 #
cone-surface $-1 38.642406622580587 9.7953593572056761 5.4001967292408377 -0.66913061440640931 0 -0.74314481823134659 0.18578620455783665 0 -0.16728265360160233 1 I I -0.70710678118654746 0.70710678118654746 0.25 forward I I I I #
loop $-1 $-1 $295 $76 #
coedge $-1 $186 $186 $296 $297 reversed $117 $-1 #
face $-1 $298 $299 $61 $-1 $300 reversed single #
loop $-1 $-1 $301 $119 #
plane-surface $-1 -20.329569249917789 18.120024628488004 60.180844389831066 0.66913061440640931 0 0.74314481823134659 0.74314481823134659 0 -0.66913061440640931 forward_v I I I I #
coedge $-1 $302 $303 $304 $305 reversed $120 $-1 #
face $-1 $-1 $306 $62 $-1 $307 forward single #
loop $-1 $308 $309 $122 #
cone-surface $-1 38.642406622580587 16.585434688460694 5.4001967292408377 -0.66913061440640931 0 -0.74314481823134659 0.18578620455783665 0 -0.16728265360160233 1 I I -0.70710678118654746 0.70710678118654746 0.25 forward I I I I #
loop $-1 $-1 $310 $78 #
coedge $-1 $195 $195 $311 $312 reversed $123 $-1 #
face $-1 $-1 $313 $63 $-1 $314 forward single #
loop $-1 $315 $316 $125 #
cone-surface $-1 38.642406622580587 19.654614568515306 5.4001967292408377 -0.66913061440640931 0 -0.74314481823134659 0.18578620455783665 0 -0.16728265360160233 1 I I -0.70710678118654746 0.70710678118654746 0.25 forward I I I I #
loop $-1 $-1 $317 $79 #
coedge $-1 $200 $200 $318 $319 reversed $126 $-1 #
face $-1 $320 $321 $48 $-1 $322 reversed single #
loop $-1 $-1 $323 $128 #
plane-surface $-1 0 -25.747487725325001 0 0 1 0 0 0 1 forward_v I I I I #
coedge $-1 $324 $325 $326 $327 forward $129 $-1 #
coedge $-1 $328 $131 $329 $330 forward $81 $-1 #
coedge $-1 $131 $328 $331 $332 forward $81 $-1 #
coedge $-1 $333 $334 $131 $208 reversed $335 $-1 #
edge $-1 $336 -25.747487725325001 $337 25.747487725325001 $207 $338 forward 7 unknown #
face $-1 $339 $340 $49 $-1 $341 reversed single #
loop $-1 $-1 $342 $132 #
plane-surface $-1 0 -19.085204102277899 0.53778882115817161 0 -1 0 0 0 -1 forward_v I I I I #
coedge $-1 $343 $344 $345 $346 reversed $133 $-1 #
coedge $-1 $347 $135 $348 $349 forward $84 $-1 #
coedge $-1 $135 $347 $350 $351 reversed $84 $-1 #
coedge $-1 $352 $353 $135 $216 forward $354 $-1 #
edge $-1 $355 7.877031145377174 $356 14.539314768424276 $215 $357 forward 7 unknown #
face $-1 $358 $359 $50 $-1 $360 reversed single #
loop $-1 $-1 $361 $136 #
plane-surface $-1 -113.4740480316363 1.1871906690725424 43.151713498822261 0 -1 0 0.85716730853699208 0 -0.51503806187062418 forward_v I I I I #
coedge $-1 $362 $363 $364 $365 reversed $137 $-1 #
coedge $-1 $222 $139 $366 $367 reversed $87 $-1 #
coedge $-1 $139 $221 $362 $368 reversed $87 $-1 #
coedge $-1 $364 $369 $139 $224 forward $370 $-1 #
edge $-1 $371 14.931548995218158 $372 19.939821613574182 $223 $373 forward 7 unknown #
loop $-1 $-1 $230 $140 #
plane-surface $-1 -41.805475020599999 -4.5057395810453436 0.088891838441035986 -0.85716730853699208 0 0.51503806187062418 0.51503806187062418 0 0.85716730853699208 forward_v I I I I #
loop $-1 $-1 $374 $89 #
coedge $-1 $228 $228 $229 $375 reversed $141 $-1 #
coedge $-1 $229 $229 $228 $375 forward $143 $-1 #
coedge $-1 $230 $230 $144 $231 forward $225 $-1 #
edge $-1 $376 0 $376 6.2831853071796004 $230 $377 forward 7 unknown #
face $-1 $378 $379 $52 $-1 $380 forward single #
loop $-1 $-1 $381 $145 #
plane-surface $-1 35.617077122253953 -15.038450865504615 122.31588866034883 0 1 0 0.66913061440640931 0 0.74314481823134659 forward_v I I I I #
coedge $-1 $382 $383 $384 $385 reversed $146 $-1 #
coedge $-1 $237 $148 $386 $387 reversed $93 $-1 #
coedge $-1 $148 $236 $382 $388 reversed $93 $-1 #
coedge $-1 $384 $389 $148 $239 forward $379 $-1 #
edge $-1 $390 -23.996936459473016 $391 -19.34362619945021 $238 $392 forward 7 unknown #
loop $-1 $-1 $245 $149 #
plane-surface $-1 -20.329569249917789 -11.457741005440893 60.180844389831066 0.66913061440640931 0 0.74314481823134659 0.74314481823134659 0 -0.66913061440640931 forward_v I I I I #
loop $-1 $-1 $393 $95 #
coedge $-1 $243 $243 $244 $394 reversed $150 $-1 #
coedge $-1 $244 $244 $243 $394 forward $152 $-1 #
coedge $-1 $245 $245 $153 $246 forward $240 $-1 #
edge $-1 $395 0 $395 6.2831853071796004 $245 $396 forward 7 unknown #
loop $-1 $-1 $252 $154 #
plane-surface $-1 -20.329569249917789 -11.457741005440893 60.180844389831066 0.66913061440640931 0 0.74314481823134659 0.74314481823134659 0 -0.66913061440640931 forward_v I I I I #
loop $-1 $-1 $397 $98 #
coedge $-1 $250 $250 $251 $398 reversed $155 $-1 #
coedge $-1 $251 $251 $250 $398 forward $157 $-1 #
coedge $-1 $252 $252 $158 $253 forward $247 $-1 #
edge $-1 $399 0 $399 6.2831853071796004 $252 $400 forward 7 unknown #
face $-1 $401 $402 $55 $-1 $403 reversed single #
loop $-1 $-1 $404 $159 #
plane-surface $-1 35.617077122253953 -5.1791956541949826 122.31588866034883 0 1 0 0.66913061440640931 0 0.74314481823134659 forward_v I I I I #
coedge $-1 $405 $406 $407 $408 reversed $160 $-1 #
coedge $-1 $259 $162 $409 $410 reversed $102 $-1 #
coedge $-1 $162 $258 $405 $411 reversed $102 $-1 #
coedge $-1 $407 $412 $162 $261 forward $413 $-1 #
edge $-1 $414 -23.996936459473016 $415 -19.34362619945021 $260 $416 forward 7 unknown #
loop $-1 $-1 $267 $163 #
plane-surface $-1 -20.329569249917789 -1.5984857941312605 60.180844389831066 0.66913061440640931 0 0.74314481823134659 0.74314481823134659 0 -0.66913061440640931 forward_v I I I I #
loop $-1 $-1 $417 $104 #
coedge $-1 $265 $265 $266 $418 reversed $164 $-1 #
coedge $-1 $266 $266 $265 $418 forward $166 $-1 #
coedge $-1 $267 $267 $167 $268 forward $262 $-1 #
edge $-1 $419 0 $419 6.2831853071796004 $267 $420 forward 7 unknown #
loop $-1 $-1 $274 $168 #
plane-surface $-1 -20.329569249917789 -1.5984857941312605 60.180844389831066 0.66913061440640931 0 0.74314481823134659 0.74314481823134659 0 -0.66913061440640931 forward_v I I I I #
loop $-1 $-1 $421 $107 #
coedge $-1 $272 $272 $273 $422 reversed $169 $-1 #
coedge $-1 $273 $273 $272 $422 forward $171 $-1 #
coedge $-1 $274 $274 $172 $275 forward $269 $-1 #
edge $-1 $423 0 $423 6.2831853071796004 $274 $424 forward 7 unknown #
face $-1 $425 $426 $58 $-1 $427 reversed single #
loop $-1 $-1 $428 $173 #
plane-surface $-1 35.617077122253953 4.6800595571146513 122.31588866034883 0 1 0 0.66913061440640931 0 0.74314481823134659 forward_v I I I I #
coedge $-1 $429 $430 $431 $432 reversed $174 $-1 #
coedge $-1 $281 $176 $433 $434 reversed $111 $-1 #
coedge $-1 $176 $280 $429 $435 reversed $111 $-1 #
coedge $-1 $431 $436 $176 $283 forward $437 $-1 #
edge $-1 $438 -23.996936459473016 $439 -19.34362619945021 $282 $440 forward 7 unknown #
loop $-1 $-1 $289 $177 #
plane-surface $-1 -20.329569249917789 8.2607694171783734 60.180844389831066 0.66913061440640931 0 0.74314481823134659 0.74314481823134659 0 -0.66913061440640931 forward_v I I I I #
loop $-1 $-1 $441 $113 #
coedge $-1 $287 $287 $288 $442 reversed $178 $-1 #
coedge $-1 $288 $288 $287 $442 forward $180 $-1 #
coedge $-1 $289 $289 $181 $290 forward $284 $-1 #
edge $-1 $443 0 $443 6.2831853071796004 $289 $444 forward 7 unknown #
loop $-1 $-1 $296 $182 #
plane-surface $-1 -20.329569249917789 8.2607694171783734 60.180844389831066 0.66913061440640931 0 0.74314481823134659 0.74314481823134659 0 -0.66913061440640931 forward_v I I I I #
loop $-1 $-1 $445 $116 #
coedge $-1 $294 $294 $295 $446 reversed $183 $-1 #
coedge $-1 $295 $295 $294 $446 forward $185 $-1 #
coedge $-1 $296 $296 $186 $297 forward $291 $-1 #
edge $-1 $447 0 $447 6.2831853071796004 $296 $448 forward 7 unknown #
face $-1 $449 $450 $61 $-1 $451 reversed single #
loop $-1 $-1 $452 $187 #
plane-surface $-1 35.617077122253953 14.539314768424282 122.31588866034883 0 1 0 0.66913061440640931 0 0.74314481823134659 forward_v I I I I #
coedge $-1 $453 $454 $455 $456 reversed $188 $-1 #
coedge $-1 $303 $190 $457 $458 reversed $120 $-1 #
coedge $-1 $190 $302 $453 $459 reversed $120 $-1 #
coedge $-1 $455 $460 $190 $305 forward $461 $-1 #
edge $-1 $462 -23.996936459473016 $463 -19.34362619945021 $304 $464 forward 7 unknown #
loop $-1 $-1 $311 $191 #
plane-surface $-1 -20.329569249917789 18.120024628488004 60.180844389831066 0.66913061440640931 0 0.74314481823134659 0.74314481823134659 0 -0.66913061440640931 forward_v I I I I #
loop $-1 $-1 $465 $122 #
coedge $-1 $309 $309 $310 $466 reversed $192 $-1 #
coedge $-1 $310 $310 $309 $466 forward $194 $-1 #
coedge $-1 $311 $311 $195 $312 forward $306 $-1 #
edge $-1 $467 0 $467 6.2831853071796004 $311 $468 forward 7 unknown #
loop $-1 $-1 $318 $196 #
plane-surface $-1 -20.329569249917789 18.120024628488004 60.180844389831066 0.66913061440640931 0 0.74314481823134659 0.74314481823134659 0 -0.66913061440640931 forward_v I I I I #
loop $-1 $-1 $469 $125 #
coedge $-1 $316 $316 $317 $470 reversed $197 $-1 #
coedge $-1 $317 $317 $316 $470 forward $199 $-1 #
coedge $-1 $318 $318 $200 $319 forward $313 $-1 #
edge $-1 $471 0 $471 6.2831853071796004 $318 $472 forward 7 unknown #
face $-1 $473 $474 $48 $-1 $475 reversed single #
loop $-1 $-1 $476 $201 #
plane-surface $-1 -41.805475020599992 0 0 1 0 0 0 0 -1 forward_v I I I I #
coedge $-1 $477 $331 $478 $479 forward $202 $-1 #
coedge $-1 $480 $204 $477 $481 forward $129 $-1 #
coedge $-1 $204 $480 $482 $483 forward $129 $-1 #
coedge $-1 $334 $333 $204 $327 reversed $335 $-1 #
edge $-1 $484 -25.747487725325001 $485 25.747487725325001 $326 $486 forward 7 unknown #
coedge $-1 $206 $205 $487 $488 forward $81 $-1 #
coedge $-1 $489 $490 $205 $330 reversed $474 $-1 #
edge $-1 $337 -41.805475020599992 $491 41.805475020599992 $329 $492 forward 7 unknown #
coedge $-1 $323 $493 $206 $332 reversed $202 $-1 #
edge $-1 $494 -41.805475020599992 $336 41.805475020599992 $331 $495 forward 7 unknown #
coedge $-1 $326 $207 $493 $496 forward $335 $-1 #
coedge $-1 $207 $326 $489 $497 reversed $335 $-1 #
loop $-1 $-1 $333 $473 #
vertex $-1 $208 $498 #
vertex $-1 $208 $499 #
straight-curve $-1 41.805475020599992 0 8.4240574864007005 0 1 0 I I #
face $-1 $500 $501 $49 $-1 $502 reversed single #
loop $-1 $-1 $503 $209 #
plane-surface $-1 -41.805475020599992 0 0 1 0 0 0 0 -1 forward_v I I I I #
coedge $-1 $504 $348 $353 $505 reversed $210 $-1 #
coedge $-1 $506 $212 $507 $508 reversed $133 $-1 #
coedge $-1 $212 $506 $504 $509 forward $133 $-1 #
coedge $-1 $353 $352 $212 $346 forward $354 $-1 #
edge $-1 $510 -14.539314768424276 $511 -7.877031145377174 $345 $512 forward 7 unknown #
coedge $-1 $214 $213 $503 $513 reversed $84 $-1 #
coedge $-1 $342 $514 $213 $349 reversed $210 $-1 #
edge $-1 $355 -41.805475020599992 $515 41.805475020599992 $348 $516 forward 7 unknown #
coedge $-1 $517 $518 $214 $351 forward $501 $-1 #
edge $-1 $356 -41.805475020599992 $519 41.805475020599992 $350 $520 forward 7 unknown #
coedge $-1 $345 $215 $518 $521 forward $354 $-1 #
coedge $-1 $215 $345 $342 $505 forward $354 $-1 #
loop $-1 $-1 $215 $500 #
vertex $-1 $216 $522 #
vertex $-1 $521 $523 #
straight-curve $-1 41.805475020599992 -11.208172956900725 2.0377888211581721 0 -1 0 I I #
face $-1 $-1 $370 $50 $-1 $524 forward single #
loop $-1 $-1 $525 $217 #
plane-surface $-1 -41.805475020599992 0 0 1 0 0 0 0 -1 forward_v I I I I #
coedge $-1 $526 $527 $528 $529 reversed $218 $-1 #
coedge $-1 $530 $220 $222 $368 forward $137 $-1 #
coedge $-1 $220 $530 $526 $531 forward $137 $-1 #
coedge $-1 $528 $223 $220 $365 forward $370 $-1 #
edge $-1 $372 -7.9458000406405578 $532 3.4400604595952142 $364 $533 forward 7 unknown #
coedge $-1 $534 $535 $221 $367 forward $359 $-1 #
edge $-1 $536 -21.486964910970084 $371 -13.15179926301043 $366 $537 forward 7 unknown #
edge $-1 $372 -9.72408252734939 $536 -1.379460482718971e-014 $222 $538 forward 7 unknown #
coedge $-1 $223 $528 $534 $539 forward $370 $-1 #
loop $-1 $-1 $528 $358 #
vertex $-1 $367 $540 #
vertex $-1 $224 $541 #
straight-curve $-1 -56.73702401581815 -10.19866983116323 8.4240574864006987 1 0 0 I I #
coedge $-1 $374 $374 $-1 $542 reversed $227 $-1 #
edge $-1 $543 0 $543 6.2831853071796004 $228 $544 forward 7 unknown #
vertex $-1 $231 $545 #
ellipse-curve $-1 -39.301338711421984 -4.5057395810453436 4.2564746624208691 -0.85716730853699208 0 0.51503806187062418 1.0300761237412484 0 1.7143346170739842 1 I I #
face $-1 $-1 $546 $52 $-1 $547 reversed single #
loop $-1 $-1 $238 $232 #
plane-surface $-1 0 0 8.4240574864007005 0 0 1 1 0 0 forward_v I I I I #
coedge $-1 $548 $549 $550 $551 reversed $233 $-1 #
coedge $-1 $552 $235 $237 $388 forward $146 $-1 #
coedge $-1 $235 $552 $548 $553 forward $146 $-1 #
coedge $-1 $550 $238 $235 $385 forward $379 $-1 #
edge $-1 $391 2.1481606426567241 $554 9.3095803627841676 $384 $555 forward 7 unknown #
coedge $-1 $556 $557 $236 $387 forward $546 $-1 #
edge $-1 $558 -56.923746312515107 $390 -52.733886843773718 $386 $559 forward 7 unknown #
edge $-1 $391 77.349303393245862 $558 83.610950041199999 $237 $560 forward 7 unknown #
coedge $-1 $238 $550 $556 $561 forward $379 $-1 #
vertex $-1 $387 $562 #
vertex $-1 $239 $563 #
straight-curve $-1 17.808538561126976 -7.8770311453771704 8.4240574864006987 -1 0 0 I I #
coedge $-1 $393 $393 $-1 $564 reversed $242 $-1 #
edge $-1 $565 0 $565 6.2831853071796004 $243 $566 forward 7 unknown #
vertex $-1 $246 $567 #
ellipse-curve $-1 39.478819890588589 -12.992330945468202 6.3291277520300051 0.66913061440640931 0 0.74314481823134659 0.3715724091156733 0 -0.33456530720320465 1 I I #
coedge $-1 $397 $397 $-1 $568 reversed $249 $-1 #
edge $-1 $569 0 $569 6.2831853071796004 $250 $570 forward 7 unknown #
vertex $-1 $253 $571 #
ellipse-curve $-1 39.478819890588589 -9.9231510654135846 6.3291277520300051 0.66913061440640931 0 0.74314481823134659 0.3715724091156733 0 -0.33456530720320465 1 I I #
face $-1 $-1 $413 $55 $-1 $572 forward single #
loop $-1 $-1 $573 $254 #
plane-surface $-1 41.805475020599992 0 0 -1 0 0 0 0 1 forward_v I I I I #
coedge $-1 $574 $575 $576 $577 reversed $255 $-1 #
coedge $-1 $578 $257 $259 $411 forward $160 $-1 #
coedge $-1 $257 $578 $574 $579 forward $160 $-1 #
coedge $-1 $576 $260 $257 $408 forward $413 $-1 #
edge $-1 $415 -2.7814669629980919 $580 4.3799527571293524 $407 $581 forward 7 unknown #
coedge $-1 $582 $583 $258 $410 forward $402 $-1 #
edge $-1 $584 -56.923746312515107 $414 -52.733886843773718 $409 $585 forward 7 unknown #
edge $-1 $415 77.349303393245862 $584 83.610950041199999 $259 $586 forward 7 unknown #
coedge $-1 $260 $576 $582 $587 forward $413 $-1 #
loop $-1 $-1 $576 $401 #
vertex $-1 $410 $588 #
vertex $-1 $261 $589 #
straight-curve $-1 17.808538561126976 1.9822240659324617 8.4240574864006987 -1 0 0 I I #
coedge $-1 $417 $417 $-1 $590 reversed $264 $-1 #
edge $-1 $591 0 $591 6.2831853071796004 $265 $592 forward 7 unknown #
vertex $-1 $268 $593 #
ellipse-curve $-1 39.478819890588589 -3.1330757341585702 6.3291277520300051 0.66913061440640931 0 0.74314481823134659 0.3715724091156733 0 -0.33456530720320465 1 I I #
coedge $-1 $421 $421 $-1 $594 reversed $271 $-1 #
edge $-1 $595 0 $595 6.2831853071796004 $272 $596 forward 7 unknown #
vertex $-1 $275 $597 #
ellipse-curve $-1 39.478819890588589 -0.063895854103954264 6.3291277520300051 0.66913061440640931 0 0.74314481823134659 0.3715724091156733 0 -0.33456530720320465 1 I I #
face $-1 $-1 $437 $58 $-1 $598 forward single #
loop $-1 $-1 $599 $276 #
plane-surface $-1 41.805475020599992 0 0 -1 0 0 0 0 1 forward_v I I I I #
coedge $-1 $600 $601 $602 $603 reversed $277 $-1 #
coedge $-1 $604 $279 $281 $435 forward $174 $-1 #
coedge $-1 $279 $604 $600 $605 forward $174 $-1 #
coedge $-1 $602 $282 $279 $432 forward $437 $-1 #
edge $-1 $439 -7.7110945686529089 $606 -0.54967484852546455 $431 $607 forward 7 unknown #
coedge $-1 $608 $609 $280 $434 forward $426 $-1 #
edge $-1 $610 -56.923746312515107 $438 -52.733886843773718 $433 $611 forward 7 unknown #
edge $-1 $439 77.349303393245862 $610 83.610950041199999 $281 $612 forward 7 unknown #
coedge $-1 $282 $602 $608 $613 forward $437 $-1 #
loop $-1 $-1 $602 $425 #
vertex $-1 $434 $614 #
vertex $-1 $283 $615 #
straight-curve $-1 17.808538561126976 11.841479277242096 8.4240574864006987 -1 0 0 I I #
coedge $-1 $441 $441 $-1 $616 reversed $286 $-1 #
edge $-1 $617 0 $617 6.2831853071796004 $287 $618 forward 7 unknown #
vertex $-1 $290 $619 #
ellipse-curve $-1 39.478819890588589 6.7261794771510637 6.3291277520300051 0.66913061440640931 0 0.74314481823134659 0.3715724091156733 0 -0.33456530720320465 1 I I #
coedge $-1 $445 $445 $-1 $620 reversed $293 $-1 #
edge $-1 $621 0 $621 6.2831853071796004 $294 $622 forward 7 unknown #
vertex $-1 $297 $623 #
ellipse-curve $-1 39.478819890588589 9.7953593572056761 6.3291277520300051 0.66913061440640931 0 0.74314481823134659 0.3715724091156733 0 -0.33456530720320465 1 I I #
face $-1 $-1 $461 $61 $-1 $624 forward single #
loop $-1 $-1 $625 $298 #
plane-surface $-1 41.805475020599992 0 0 -1 0 0 0 0 1 forward_v I I I I #
coedge $-1 $626 $627 $628 $629 reversed $299 $-1 #
coedge $-1 $630 $301 $303 $459 forward $188 $-1 #
coedge $-1 $301 $630 $626 $631 forward $188 $-1 #
coedge $-1 $628 $304 $301 $456 forward $461 $-1 #
edge $-1 $463 -12.640722174307722 $632 -5.4793024541802797 $455 $633 forward 7 unknown #
coedge $-1 $634 $635 $302 $458 forward $450 $-1 #
edge $-1 $636 -56.923746312515107 $462 -52.733886843773718 $457 $637 forward 7 unknown #
edge $-1 $463 77.349303393245862 $636 83.610950041199999 $303 $638 forward 7 unknown #
coedge $-1 $304 $628 $634 $639 forward $461 $-1 #
loop $-1 $-1 $628 $449 #
vertex $-1 $458 $640 #
vertex $-1 $305 $641 #
straight-curve $-1 17.808538561126976 21.700734488551724 8.4240574864006987 -1 0 0 I I #
coedge $-1 $465 $465 $-1 $642 reversed $308 $-1 #
edge $-1 $643 0 $643 6.2831853071796004 $309 $644 forward 7 unknown #
vertex $-1 $312 $645 #
ellipse-curve $-1 39.478819890588589 16.585434688460694 6.3291277520300051 0.66913061440640931 0 0.74314481823134659 0.3715724091156733 0 -0.33456530720320465 1 I I #
coedge $-1 $469 $469 $-1 $646 reversed $315 $-1 #
edge $-1 $647 0 $647 6.2831853071796004 $316 $648 forward 7 unknown #
vertex $-1 $319 $649 #
ellipse-curve $-1 39.478819890588589 19.654614568515306 6.3291277520300051 0.66913061440640931 0 0.74314481823134659 0.3715724091156733 0 -0.33456530720320465 1 I I #
face $-1 $-1 $335 $48 $-1 $650 reversed single #
loop $-1 $-1 $489 $320 #
plane-surface $-1 0 25.747487725325001 0 0 -1 0 0 0 -1 forward_v I I I I #
coedge $-1 $651 $487 $490 $652 forward $321 $-1 #
coedge $-1 $493 $323 $324 $481 reversed $202 $-1 #
coedge $-1 $487 $651 $323 $479 reversed $321 $-1 #
edge $-1 $494 -8.4240574864007005 $653 8.4240574864007005 $478 $654 forward 7 unknown #
coedge $-1 $325 $324 $651 $655 forward $129 $-1 #
edge $-1 $485 -41.805475020599992 $653 41.805475020599992 $477 $656 forward 7 unknown #
coedge $-1 $490 $489 $325 $483 reversed $474 $-1 #
edge $-1 $657 -41.805475020599992 $484 41.805475020599992 $482 $658 forward 7 unknown #
vertex $-1 $327 $659 #
vertex $-1 $496 $660 #
straight-curve $-1 41.805475020599992 0 -8.4240574864007005 0 -1 0 I I #
coedge $-1 $476 $478 $328 $488 reversed $321 $-1 #
edge $-1 $491 -25.747487725325001 $494 25.747487725325001 $487 $661 forward 7 unknown #
coedge $-1 $482 $329 $334 $497 forward $474 $-1 #
coedge $-1 $329 $482 $476 $652 reversed $474 $-1 #
vertex $-1 $330 $662 #
straight-curve $-1 0 25.747487725325001 8.4240574864007005 -1 0 0 I I #
coedge $-1 $331 $477 $333 $496 reversed $202 $-1 #
vertex $-1 $488 $663 #
straight-curve $-1 0 -25.747487725325001 8.4240574864007005 1 0 0 I I #
edge $-1 $336 -8.4240574864007005 $485 8.4240574864007005 $333 $664 forward 7 unknown #
edge $-1 $337 -8.4240574864007005 $484 8.4240574864007005 $334 $665 forward 7 unknown #
point $-1 41.805475020599992 -25.747487725325001 8.4240574864007005 #
point $-1 41.805475020599992 25.747487725325001 8.4240574864007005 #
face $-1 $-1 $354 $49 $-1 $666 reversed single #
loop $-1 $-1 $350 $339 #
plane-surface $-1 0 -25.747487725325001 0 0 1 0 0 0 1 forward_v I I I I #
coedge $-1 $667 $668 $347 $513 forward $340 $-1 #
coedge $-1 $514 $342 $344 $509 reversed $210 $-1 #
edge $-1 $511 -1.2311055894209146 $355 1.7688944105790863 $353 $669 forward 7 unknown #
coedge $-1 $344 $343 $670 $671 reversed $133 $-1 #
coedge $-1 $518 $517 $343 $508 forward $501 $-1 #
edge $-1 $672 -41.805475020599992 $510 41.805475020599992 $507 $673 forward 7 unknown #
edge $-1 $674 -41.805475020599992 $511 41.805475020599992 $504 $675 forward 7 unknown #
vertex $-1 $508 $676 #
vertex $-1 $346 $677 #
straight-curve $-1 41.805475020599992 -11.208172956900725 -0.96221117884182883 0 1 0 I I #
edge $-1 $519 -14.539314768424276 $515 -7.877031145377174 $503 $678 forward 7 unknown #
coedge $-1 $348 $504 $667 $679 reversed $210 $-1 #
vertex $-1 $513 $680 #
straight-curve $-1 0 -19.085204102277899 2.0377888211581721 -1 0 0 I I #
coedge $-1 $507 $350 $668 $681 forward $501 $-1 #
coedge $-1 $350 $507 $352 $521 reversed $501 $-1 #
vertex $-1 $681 $682 #
straight-curve $-1 0 -25.747487725325001 2.0377888211581721 -1 0 0 I I #
edge $-1 $356 -2.0377888211581721 $510 0.96221117884182883 $352 $683 forward 7 unknown #
point $-1 41.805475020599992 -19.085204102277899 2.0377888211581721 #
point $-1 41.805475020599992 -25.747487725325001 2.0377888211581721 #
plane-surface $-1 0 0 8.4240574864007005 0 0 1 1 0 0 forward_v I I I I #
coedge $-1 $535 $534 $527 $684 forward $359 $-1 #
coedge $-1 $527 $361 $363 $531 reversed $218 $-1 #
coedge $-1 $361 $526 $525 $684 reversed $218 $-1 #
coedge $-1 $369 $364 $361 $529 forward $370 $-1 #
edge $-1 $532 -19.939821613574182 $685 -14.931548995218158 $528 $686 forward 7 unknown #
coedge $-1 $363 $362 $535 $687 reversed $137 $-1 #
edge $-1 $688 1.379460482718971e-014 $532 9.72408252734939 $526 $689 forward 7 unknown #
vertex $-1 $365 $690 #
straight-curve $-1 -36.797202402243968 -2.2528697905226718 8.4240574864007005 0 1 0 I I #
coedge $-1 $525 $366 $369 $539 reversed $359 $-1 #
coedge $-1 $366 $525 $530 $687 forward $359 $-1 #
vertex $-1 $367 $691 #
straight-curve $-1 -41.805475020599992 -10.19866983116323 21.57585674941113 0 0 1 I I #
straight-curve $-1 -41.805475020599999 -10.19866983116323 0.088891838441035986 -0.51503806187062418 0 -0.85716730853699208 I I #
edge $-1 $685 -1.1871906690725424 $371 10.19866983116323 $534 $692 forward 7 unknown #
point $-1 -41.805475020599992 -10.19866983116323 8.4240574864007005 #
point $-1 -36.797202402243968 -10.19866983116323 8.4240574864007005 #
edge $-1 $693 1 $693 0 $374 $-1 forward 7 unknown #
vertex $-1 $375 $694 #
ellipse-curve $-1 -34.2686231799361 -4.5057395810453436 1.2325141969817976 -0.85716730853699208 0 0.51503806187062418 1.0300761237412484 0 1.7143346170739842 1 I I #
point $-1 -38.271262587680724 -4.5057395810453436 5.9708092794948486 #
loop $-1 $-1 $386 $378 #
plane-surface $-1 41.805475020599992 0 0 -1 0 0 0 0 1 forward_v I I I I #
coedge $-1 $549 $381 $383 $553 reversed $233 $-1 #
coedge $-1 $381 $548 $695 $696 reversed $233 $-1 #
coedge $-1 $389 $384 $381 $551 forward $379 $-1 #
edge $-1 $554 19.34362619945021 $697 23.996936459473016 $550 $698 forward 7 unknown #
coedge $-1 $383 $382 $557 $699 reversed $146 $-1 #
edge $-1 $700 -83.610950041199999 $554 -77.349303393245862 $548 $701 forward 7 unknown #
vertex $-1 $385 $702 #
straight-curve $-1 37.152164760577193 -5.7288705027204463 8.4240574864006916 0 -1 0 I I #
coedge $-1 $695 $386 $389 $561 reversed $546 $-1 #
coedge $-1 $386 $695 $552 $699 forward $546 $-1 #
vertex $-1 $387 $703 #
straight-curve $-1 41.805475020599992 -7.8770311453771704 61.157944330174416 0 0 1 I I #
straight-curve $-1 -20.329569249917789 -7.8770311453771704 60.180844389831066 0.74314481823134659 0 -0.66913061440640931 I I #
edge $-1 $697 -15.038450865504615 $390 -7.8770311453771704 $556 $704 forward 7 unknown #
point $-1 41.805475020599992 -7.8770311453771704 8.4240574864007005 #
point $-1 37.152164760577186 -7.8770311453771704 8.4240574864006987 #
edge $-1 $705 1 $705 0 $393 $-1 forward 7 unknown #
vertex $-1 $394 $706 #
ellipse-curve $-1 38.809689276182191 -12.992330945468202 5.5859829337986744 0.66913061440640931 0 0.74314481823134659 0.3715724091156733 0 -0.33456530720320465 1 I I #
point $-1 39.850392299704275 -12.992330945468202 5.9945624448268164 #
edge $-1 $707 1 $707 0 $397 $-1 forward 7 unknown #
vertex $-1 $398 $708 #
ellipse-curve $-1 38.809689276182191 -9.9231510654135846 5.5859829337986744 0.66913061440640931 0 0.74314481823134659 0.3715724091156733 0 -0.33456530720320465 1 I I #
point $-1 39.850392299704275 -9.9231510654135846 5.9945624448268164 #
plane-surface $-1 0 0 8.4240574864007005 0 0 1 1 0 0 forward_v I I I I #
coedge $-1 $583 $582 $575 $709 forward $402 $-1 #
coedge $-1 $575 $404 $406 $579 reversed $255 $-1 #
coedge $-1 $404 $574 $573 $709 reversed $255 $-1 #
coedge $-1 $412 $407 $404 $577 forward $413 $-1 #
edge $-1 $580 19.34362619945021 $710 23.996936459473016 $576 $711 forward 7 unknown #
coedge $-1 $406 $405 $583 $712 reversed $160 $-1 #
edge $-1 $713 -83.610950041199999 $580 -77.349303393245862 $574 $714 forward 7 unknown #
vertex $-1 $408 $715 #
straight-curve $-1 37.152164760577193 -0.79924289706563023 8.4240574864006916 0 -1 0 I I #
coedge $-1 $573 $409 $412 $587 reversed $402 $-1 #
coedge $-1 $409 $573 $578 $712 forward $402 $-1 #
vertex $-1 $410 $716 #
straight-curve $-1 41.805475020599992 1.9822240659324617 61.157944330174416 0 0 1 I I #
straight-curve $-1 -20.329569249917789 1.9822240659324617 60.180844389831066 0.74314481823134659 0 -0.66913061440640931 I I #
edge $-1 $710 -5.1791956541949826 $414 1.9822240659324617 $582 $717 forward 7 unknown #
point $-1 41.805475020599992 1.9822240659324617 8.4240574864007005 #
point $-1 37.152164760577186 1.9822240659324617 8.4240574864006987 #
edge $-1 $718 1 $718 0 $417 $-1 forward 7 unknown #
vertex $-1 $418 $719 #
ellipse-curve $-1 38.809689276182191 -3.1330757341585702 5.5859829337986744 0.66913061440640931 0 0.74314481823134659 0.3715724091156733 0 -0.33456530720320465 1 I I #
point $-1 39.850392299704275 -3.1330757341585702 5.9945624448268164 #
edge $-1 $720 1 $720 0 $421 $-1 forward 7 unknown #
vertex $-1 $422 $721 #
ellipse-curve $-1 38.809689276182191 -0.063895854103954264 5.5859829337986744 0.66913061440640931 0 0.74314481823134659 0.3715724091156733 0 -0.33456530720320465 1 I I #
point $-1 39.850392299704275 -0.063895854103954264 5.9945624448268164 #
plane-surface $-1 0 0 8.4240574864007005 0 0 1 1 0 0 forward_v I I I I #
coedge $-1 $609 $608 $601 $722 forward $426 $-1 #
coedge $-1 $601 $428 $430 $605 reversed $277 $-1 #
coedge $-1 $428 $600 $599 $722 reversed $277 $-1 #
coedge $-1 $436 $431 $428 $603 forward $437 $-1 #
edge $-1 $606 19.34362619945021 $723 23.996936459473016 $602 $724 forward 7 unknown #
coedge $-1 $430 $429 $609 $725 reversed $174 $-1 #
edge $-1 $726 -83.610950041199999 $606 -77.349303393245862 $600 $727 forward 7 unknown #
vertex $-1 $432 $728 #
straight-curve $-1 37.152164760577193 4.1303847085891867 8.4240574864006916 0 -1 0 I I #
coedge $-1 $599 $433 $436 $613 reversed $426 $-1 #
coedge $-1 $433 $599 $604 $725 forward $426 $-1 #
vertex $-1 $434 $729 #
straight-curve $-1 41.805475020599992 11.841479277242096 61.157944330174416 0 0 1 I I #
straight-curve $-1 -20.329569249917789 11.841479277242096 60.180844389831066 0.74314481823134659 0 -0.66913061440640931 I I #
edge $-1 $723 4.6800595571146513 $438 11.841479277242096 $608 $730 forward 7 unknown #
point $-1 41.805475020599992 11.841479277242096 8.4240574864007005 #
point $-1 37.152164760577186 11.841479277242096 8.4240574864006987 #
edge $-1 $731 1 $731 0 $441 $-1 forward 7 unknown #
vertex $-1 $442 $732 #
ellipse-curve $-1 38.809689276182191 6.7261794771510637 5.5859829337986744 0.66913061440640931 0 0.74314481823134659 0.3715724091156733 0 -0.33456530720320465 1 I I #
point $-1 39.850392299704275 6.7261794771510637 5.9945624448268164 #
edge $-1 $733 1 $733 0 $445 $-1 forward 7 unknown #
vertex $-1 $446 $734 #
ellipse-curve $-1 38.809689276182191 9.7953593572056761 5.5859829337986744 0.66913061440640931 0 0.74314481823134659 0.3715724091156733 0 -0.33456530720320465 1 I I #
point $-1 39.850392299704275 9.7953593572056761 5.9945624448268164 #
plane-surface $-1 0 0 8.4240574864007005 0 0 1 1 0 0 forward_v I I I I #
coedge $-1 $635 $634 $627 $735 forward $450 $-1 #
coedge $-1 $627 $452 $454 $631 reversed $299 $-1 #
coedge $-1 $452 $626 $625 $735 reversed $299 $-1 #
coedge $-1 $460 $455 $452 $629 forward $461 $-1 #
edge $-1 $632 19.34362619945021 $736 23.996936459473016 $628 $737 forward 7 unknown #
coedge $-1 $454 $453 $635 $738 reversed $188 $-1 #
edge $-1 $739 -83.610950041199999 $632 -77.349303393245862 $626 $740 forward 7 unknown #
vertex $-1 $456 $741 #
straight-curve $-1 37.152164760577193 9.0600123142440019 8.4240574864006916 0 -1 0 I I #
coedge $-1 $625 $457 $460 $639 reversed $450 $-1 #
coedge $-1 $457 $625 $630 $738 forward $450 $-1 #
vertex $-1 $458 $742 #
straight-curve $-1 41.805475020599992 21.700734488551724 61.157944330174416 0 0 1 I I #
straight-curve $-1 -20.329569249917789 21.700734488551724 60.180844389831066 0.74314481823134659 0 -0.66913061440640931 I I #
edge $-1 $736 14.539314768424282 $462 21.700734488551724 $634 $743 forward 7 unknown #
point $-1 41.805475020599992 21.700734488551724 8.4240574864007005 #
point $-1 37.152164760577186 21.700734488551724 8.4240574864006987 #
edge $-1 $744 1 $744 0 $465 $-1 forward 7 unknown #
vertex $-1 $466 $745 #
ellipse-curve $-1 38.809689276182191 16.585434688460694 5.5859829337986744 0.66913061440640931 0 0.74314481823134659 0.3715724091156733 0 -0.33456530720320465 1 I I #
point $-1 39.850392299704275 16.585434688460694 5.9945624448268164 #
edge $-1 $746 1 $746 0 $469 $-1 forward 7 unknown #
vertex $-1 $470 $747 #
ellipse-curve $-1 38.809689276182191 19.654614568515306 5.5859829337986744 0.66913061440640931 0 0.74314481823134659 0.3715724091156733 0 -0.33456530720320465 1 I I #
point $-1 39.850392299704275 19.654614568515306 5.9945624448268164 #
plane-surface $-1 41.805475020599992 0 0 -1 0 0 0 0 1 forward_v I I I I #
coedge $-1 $478 $476 $480 $655 reversed $321 $-1 #
edge $-1 $491 -8.4240574864007005 $657 8.4240574864007005 $490 $748 forward 7 unknown #
vertex $-1 $655 $749 #
straight-curve $-1 -41.805475020599992 -25.747487725325001 0 0 0 -1 I I #
edge $-1 $653 -25.747487725325001 $657 25.747487725325001 $651 $750 forward 7 unknown #
straight-curve $-1 0 -25.747487725325001 -8.4240574864007005 -1 0 0 I I #
vertex $-1 $483 $751 #
straight-curve $-1 0 25.747487725325001 -8.4240574864007005 1 0 0 I I #
point $-1 41.805475020599992 25.747487725325001 -8.4240574864007005 #
point $-1 41.805475020599992 -25.747487725325001 -8.4240574864007005 #
straight-curve $-1 -41.805475020599992 0 8.4240574864007005 0 -1 0 I I #
point $-1 -41.805475020599992 25.747487725325001 8.4240574864007005 #
point $-1 -41.805475020599992 -25.747487725325001 8.4240574864007005 #
straight-curve $-1 41.805475020599992 -25.747487725325001 0 0 0 -1 I I #
straight-curve $-1 41.805475020599992 25.747487725325001 0 0 0 -1 I I #
plane-surface $-1 41.805475020599992 0 0 -1 0 0 0 0 1 forward_v I I I I #
coedge $-1 $670 $503 $514 $679 forward $340 $-1 #
coedge $-1 $503 $670 $517 $681 reversed $340 $-1 #
straight-curve $-1 41.805475020599992 -19.085204102277899 0.26889441057908581 0 0 1 I I #
coedge $-1 $668 $667 $506 $671 forward $340 $-1 #
edge $-1 $674 7.877031145377174 $672 14.539314768424276 $670 $752 forward 7 unknown #
vertex $-1 $508 $753 #
straight-curve $-1 0 -25.747487725325001 -0.96221117884182883 1 0 0 I I #
vertex $-1 $671 $754 #
straight-curve $-1 0 -19.085204102277899 -0.96221117884182883 1 0 0 I I #
point $-1 41.805475020599992 -25.747487725325001 -0.96221117884182883 #
point $-1 41.805475020599992 -19.085204102277899 -0.96221117884182883 #
straight-curve $-1 -41.805475020599992 -11.208172956900725 2.0377888211581721 0 1 0 I I #
edge $-1 $515 -1.7688944105790863 $674 1.2311055894209146 $667 $755 forward 7 unknown #
point $-1 -41.805475020599992 -19.085204102277899 2.0377888211581721 #
edge $-1 $519 -2.0377888211581721 $672 0.96221117884182883 $668 $756 forward 7 unknown #
point $-1 -41.805475020599992 -25.747487725325001 2.0377888211581721 #
straight-curve $-1 41.805475020599992 -25.747487725325001 0 0 0 -1 I I #
edge $-1 $685 13.15179926301043 $688 21.486964910970084 $525 $757 forward 7 unknown #
vertex $-1 $539 $758 #
straight-curve $-1 -56.73702401581815 1.1871906690725424 8.4240574864006987 -1 0 0 I I #
edge $-1 $688 -3.4400604595952142 $536 7.9458000406405578 $535 $759 forward 7 unknown #
vertex $-1 $687 $760 #
straight-curve $-1 -41.805475020599999 1.1871906690725424 0.088891838441035986 0.51503806187062418 0 0.85716730853699208 I I #
point $-1 -36.797202402243968 1.1871906690725424 8.4240574864007005 #
point $-1 -41.805475020599992 -10.19866983116323 0.08889183844104781 #
straight-curve $-1 -41.805475020599992 0 8.4240574864007005 0 -1 0 I I #
vertex $-1 $542 $761 #
point $-1 -33.238547056194847 -4.5057395810453436 2.9468488140557816 #
coedge $-1 $557 $556 $549 $696 forward $546 $-1 #
edge $-1 $697 52.733886843773718 $700 56.923746312515107 $695 $762 forward 7 unknown #
vertex $-1 $561 $763 #
straight-curve $-1 17.808538561126976 -15.038450865504615 8.4240574864006987 1 0 0 I I #
edge $-1 $700 -9.3095803627841676 $558 -2.1481606426567241 $557 $764 forward 7 unknown #
vertex $-1 $699 $765 #
straight-curve $-1 -20.329569249917789 -15.038450865504615 60.180844389831066 -0.74314481823134659 0 0.66913061440640931 I I #
point $-1 37.152164760577186 -15.038450865504615 8.4240574864006987 #
point $-1 41.805475020599992 -7.8770311453771704 4.2341980176593097 #
straight-curve $-1 41.805475020599992 0 8.4240574864007005 0 1 0 I I #
vertex $-1 $564 $766 #
point $-1 39.181261685297862 -12.992330945468202 5.2514176265954697 #
vertex $-1 $568 $767 #
point $-1 39.181261685297862 -9.9231510654135846 5.2514176265954697 #
edge $-1 $710 52.733886843773718 $713 56.923746312515107 $573 $768 forward 7 unknown #
vertex $-1 $587 $769 #
straight-curve $-1 17.808538561126976 -5.1791956541949826 8.4240574864006987 1 0 0 I I #
edge $-1 $713 -4.3799527571293524 $584 2.7814669629980919 $583 $770 forward 7 unknown #
vertex $-1 $712 $771 #
straight-curve $-1 -20.329569249917789 -5.1791956541949826 60.180844389831066 -0.74314481823134659 0 0.66913061440640931 I I #
point $-1 37.152164760577186 -5.1791956541949826 8.4240574864006987 #
point $-1 41.805475020599992 1.9822240659324617 4.2341980176593097 #
straight-curve $-1 41.805475020599992 0 8.4240574864007005 0 1 0 I I #
vertex $-1 $590 $772 #
point $-1 39.181261685297862 -3.1330757341585702 5.2514176265954697 #
vertex $-1 $594 $773 #
point $-1 39.181261685297862 -0.063895854103954264 5.2514176265954697 #
edge $-1 $723 52.733886843773718 $726 56.923746312515107 $599 $774 forward 7 unknown #
vertex $-1 $613 $775 #
straight-curve $-1 17.808538561126976 4.6800595571146513 8.4240574864006987 1 0 0 I I #
edge $-1 $726 0.54967484852546455 $610 7.7110945686529089 $609 $776 forward 7 unknown #
vertex $-1 $725 $777 #
straight-curve $-1 -20.329569249917789 4.6800595571146513 60.180844389831066 -0.74314481823134659 0 0.66913061440640931 I I #
point $-1 37.152164760577186 4.6800595571146513 8.4240574864006987 #
point $-1 41.805475020599992 11.841479277242096 4.2341980176593097 #
straight-curve $-1 41.805475020599992 0 8.4240574864007005 0 1 0 I I #
vertex $-1 $616 $778 #
point $-1 39.181261685297862 6.7261794771510637 5.2514176265954697 #
vertex $-1 $620 $779 #
point $-1 39.181261685297862 9.7953593572056761 5.2514176265954697 #
edge $-1 $736 52.733886843773718 $739 56.923746312515107 $625 $780 forward 7 unknown #
vertex $-1 $639 $781 #
straight-curve $-1 17.808538561126976 14.539314768424282 8.4240574864006987 1 0 0 I I #
edge $-1 $739 5.4793024541802797 $636 12.640722174307722 $635 $782 forward 7 unknown #
vertex $-1 $738 $783 #
straight-curve $-1 -20.329569249917789 14.539314768424282 60.180844389831066 -0.74314481823134659 0 0.66913061440640931 I I #
point $-1 37.152164760577186 14.539314768424282 8.4240574864006987 #
point $-1 41.805475020599992 21.700734488551724 4.2341980176593097 #
straight-curve $-1 41.805475020599992 0 8.4240574864007005 0 1 0 I I #
vertex $-1 $642 $784 #
point $-1 39.181261685297862 16.585434688460694 5.2514176265954697 #
vertex $-1 $646 $785 #
point $-1 39.181261685297862 19.654614568515306 5.2514176265954697 #
straight-curve $-1 -41.805475020599992 25.747487725325001 0 0 0 -1 I I #
point $-1 -41.805475020599992 -25.747487725325001 -8.4240574864007005 #
straight-curve $-1 -41.805475020599992 0 -8.4240574864007005 0 1 0 I I #
point $-1 -41.805475020599992 25.747487725325001 -8.4240574864007005 #
straight-curve $-1 -41.805475020599992 -11.208172956900725 -0.96221117884182883 0 -1 0 I I #
point $-1 -41.805475020599992 -25.747487725325001 -0.96221117884182883 #
point $-1 -41.805475020599992 -19.085204102277899 -0.96221117884182883 #
straight-curve $-1 -41.805475020599992 -19.085204102277899 0.26889441057908581 0 0 -1 I I #
straight-curve $-1 -41.805475020599992 -25.747487725325001 0 0 0 -1 I I #
straight-curve $-1 -41.805475020599992 1.1871906690725424 21.57585674941113 0 0 -1 I I #
point $-1 -41.805475020599992 1.1871906690725424 8.4240574864007005 #
straight-curve $-1 -41.805475020599992 -2.2528697905226718 0.088891838441052418 0 -1 0 I I #
point $-1 -41.805475020599992 1.1871906690725424 0.08889183844104781 #
point $-1 -32.554288562862112 -4.5057395810453436 0.20243807324054919 #
straight-curve $-1 41.805475020599992 -15.038450865504615 61.157944330174416 0 0 -1 I I #
point $-1 41.805475020599992 -15.038450865504615 8.4240574864007005 #
straight-curve $-1 41.805475020599992 -5.7288705027204463 4.2341980176593097 0 1 0 I I #
point $-1 41.805475020599992 -15.038450865504615 4.2341980176593097 #
point $-1 38.475123968978984 -12.992330945468202 5.214410524683001 #
point $-1 38.475123968978984 -9.9231510654135846 5.214410524683001 #
straight-curve $-1 41.805475020599992 -5.1791956541949826 61.157944330174416 0 0 -1 I I #
point $-1 41.805475020599992 -5.1791956541949826 8.4240574864007005 #
straight-curve $-1 41.805475020599992 -0.79924289706563023 4.2341980176593097 0 1 0 I I #
point $-1 41.805475020599992 -5.1791956541949826 4.2341980176593097 #
point $-1 38.475123968978984 -3.1330757341585702 5.214410524683001 #
point $-1 38.475123968978984 -0.063895854103954264 5.214410524683001 #
straight-curve $-1 41.805475020599992 4.6800595571146513 61.157944330174416 0 0 -1 I I #
point $-1 41.805475020599992 4.6800595571146513 8.4240574864007005 #
straight-curve $-1 41.805475020599992 4.1303847085891867 4.2341980176593097 0 1 0 I I #
point $-1 41.805475020599992 4.6800595571146513 4.2341980176593097 #
point $-1 38.475123968978984 6.7261794771510637 5.214410524683001 #
point $-1 38.475123968978984 9.7953593572056761 5.214410524683001 #
straight-curve $-1 41.805475020599992 14.539314768424282 61.157944330174416 0 0 -1 I I #
point $-1 41.805475020599992 14.539314768424282 8.4240574864007005 #
straight-curve $-1 41.805475020599992 9.0600123142440019 4.2341980176593097 0 1 0 I I #
point $-1 41.805475020599992 14.539314768424282 4.2341980176593097 #
point $-1 38.475123968978984 16.585434688460694 5.214410524683001 #
point $-1 38.475123968978984 19.654614568515306 5.214410524683001 #
End-of-ACIS-data 