500 0 9 0           
7 Unknown 11 ACIS 5.0 NT 24 Fri Mar 26 01:30:54 1999 
-1 9.9999999999999995e-007 1e-010 
body $-1 $9 $-1 $10 #
body $-1 $11 $-1 $12 #
body $-1 $13 $-1 $14 #
body $-1 $15 $-1 $16 #
body $-1 $17 $-1 $18 #
body $-1 $19 $-1 $20 #
body $-1 $21 $-1 $22 #
body $-1 $23 $-1 $24 #
body $-1 $25 $-1 $26 #
lump $-1 $-1 $27 $0 #
transform $-1 1 0 0 0 1 0 0 0 1 79.713126010925635 41.094090615611989 8.4389180072448351 1 rotate no_reflect no_shear #
lump $-1 $-1 $28 $1 #
transform $-1 1 0 0 0 1 0 0 0 1 79.713126010925635 41.094090615611989 8.4389180072448351 1 rotate no_reflect no_shear #
lump $-1 $-1 $29 $2 #
transform $-1 1 0 0 0 1 0 0 0 1 79.713126010925635 41.094090615611989 8.4389180072448351 1 rotate no_reflect no_shear #
lump $-1 $-1 $30 $3 #
transform $-1 1 0 0 0 1 0 0 0 1 79.713126010925635 41.094090615611989 8.4389180072448351 1 rotate no_reflect no_shear #
lump $-1 $-1 $31 $4 #
transform $-1 1 0 0 0 1 0 0 0 1 79.713126010925635 41.094090615611989 8.4389180072448351 1 rotate no_reflect no_shear #
lump $-1 $-1 $32 $5 #
transform $-1 1 0 0 0 1 0 0 0 1 79.713126010925635 41.094090615611989 8.4389180072448351 1 rotate no_reflect no_shear #
lump $-1 $-1 $33 $6 #
transform $-1 1 0 0 0 1 0 0 0 1 79.713126010925635 41.094090615611989 8.4389180072448351 1 rotate no_reflect no_shear #
lump $-1 $-1 $34 $7 #
transform $-1 1 0 0 0 1 0 0 0 1 79.713126010925635 41.094090615611989 8.4389180072448351 1 rotate no_reflect no_shear #
lump $-1 $-1 $35 $8 #
transform $-1 1 0 0 0 1 0 0 0 1 79.713126010925635 41.094090615611989 8.4389180072448351 1 rotate no_reflect no_shear #
shell $-1 $-1 $-1 $36 $-1 $9 #
shell $-1 $-1 $-1 $37 $-1 $11 #
shell $-1 $-1 $-1 $38 $-1 $13 #
shell $-1 $-1 $-1 $39 $-1 $15 #
shell $-1 $-1 $-1 $40 $-1 $17 #
shell $-1 $-1 $-1 $41 $-1 $19 #
shell $-1 $-1 $-1 $42 $-1 $21 #
shell $-1 $-1 $-1 $43 $-1 $23 #
shell $-1 $-1 $-1 $44 $-1 $25 #
face $-1 $45 $46 $27 $-1 $47 forward single #
face $-1 $48 $49 $28 $-1 $50 reversed single #
face $-1 $51 $52 $29 $-1 $53 forward single #
face $-1 $54 $55 $30 $-1 $56 forward single #
face $-1 $57 $58 $31 $-1 $59 forward single #
face $-1 $60 $61 $32 $-1 $62 reversed single #
face $-1 $63 $64 $33 $-1 $65 forward single #
face $-1 $66 $67 $34 $-1 $68 forward single #
face $-1 $69 $70 $35 $-1 $71 forward single #
face $-1 $72 $73 $27 $-1 $74 reversed single #
loop $-1 $-1 $75 $36 #
plane-surface $-1 0 0 8.4389180072448351 0 0 1 1 0 0 forward_v I I I I #
face $-1 $76 $77 $28 $-1 $78 reversed single #
loop $-1 $-1 $79 $37 #
plane-surface $-1 49.983757203005553 80.611512356186282 180.32468190799455 1 0 0 0 -0.64278761758704617 -0.76604443648966558 forward_v I I I I #
face $-1 $80 $81 $29 $-1 $82 forward single #
loop $-1 $83 $84 $38 #
cone-surface $-1 55.929630964589563 38.847050571536712 6.4064134236271846 0 -0.64278761758704617 -0.76604443648966558 1 0 0 1 I I 0 1 1 forward I I I I #
face $-1 $85 $86 $30 $-1 $87 forward single #
loop $-1 $88 $89 $39 #
cone-surface $-1 64.848441606965594 38.847050571536712 6.4064134236271846 0 -0.64278761758704617 -0.76604443648966558 1 0 0 1 I I 0 1 1 forward I I I I #
face $-1 $90 $91 $31 $-1 $92 forward single #
loop $-1 $93 $94 $40 #
cone-surface $-1 73.767252249341624 38.847050571536712 6.4064134236271846 0 -0.64278761758704617 -0.76604443648966558 1 0 0 1 I I 0 1 1 forward I I I I #
face $-1 $95 $96 $32 $-1 $97 reversed single #
loop $-1 $-1 $98 $41 #
plane-surface $-1 71.445020863266905 -41.094090615611961 4.7205233682679193 0 -0.77714596973225614 0.62932038083071107 1 0 0 forward_v I I I I #
face $-1 $99 $100 $33 $-1 $101 forward single #
loop $-1 $102 $103 $42 #
cone-surface $-1 66.484157774671701 -38.962879011607491 6.0730685180028532 0 0.77714596973225614 -0.62932038083071107 0.5 0 0 1 I I 0 1 0.5 forward I I I I #
face $-1 $104 $105 $34 $-1 $106 forward single #
loop $-1 $107 $108 $43 #
cone-surface $-1 71.445020863266933 -38.962879011607491 6.0730685180028532 0 0.77714596973225614 -0.62932038083071107 0.5 0 0 1 I I 0 1 0.5 forward I I I I #
face $-1 $109 $110 $35 $-1 $111 forward single #
loop $-1 $112 $113 $44 #
cone-surface $-1 76.405883951862165 -38.962879011607491 6.0730685180028532 0 0.77714596973225614 -0.62932038083071107 0.5 0 0 1 I I 0 1 0.5 forward I I I I #
face $-1 $114 $115 $27 $-1 $116 reversed single #
loop $-1 $-1 $117 $45 #
plane-surface $-1 0 0 -8.4389180072448351 0 0 1 1 0 0 forward_v I I I I #
coedge $-1 $118 $119 $120 $121 forward $46 $-1 #
face $-1 $122 $123 $28 $-1 $124 forward single #
loop $-1 $-1 $125 $48 #
plane-surface $-1 64.848441606965594 -21.865708361771496 58.197088516256088 0 0.64278761758704617 0.76604443648966558 1 0 0 forward_v I I I I #
coedge $-1 $126 $127 $128 $129 reversed $49 $-1 #
face $-1 $-1 $130 $29 $-1 $131 forward single #
loop $-1 $132 $133 $51 #
cone-surface $-1 55.929630964589563 38.108777595857532 5.5265739709745052 0 -0.64278761758704617 -0.76604443648966558 0.5 0 0 1 I I -0.70710678118654746 0.70710678118654746 0.5 forward I I I I #
loop $-1 $-1 $134 $38 #
coedge $-1 $84 $84 $135 $136 reversed $52 $-1 #
face $-1 $-1 $137 $30 $-1 $138 forward single #
loop $-1 $139 $140 $54 #
cone-surface $-1 64.848441606965594 38.108777595857532 5.5265739709745052 0 -0.64278761758704617 -0.76604443648966558 0.5 0 0 1 I I -0.70710678118654746 0.70710678118654746 0.5 forward I I I I #
loop $-1 $-1 $141 $39 #
coedge $-1 $89 $89 $142 $143 reversed $55 $-1 #
face $-1 $-1 $144 $31 $-1 $145 forward single #
loop $-1 $146 $147 $57 #
cone-surface $-1 73.767252249341624 38.108777595857532 5.5265739709745052 0 -0.64278761758704617 -0.76604443648966558 0.5 0 0 1 I I -0.70710678118654746 0.70710678118654746 0.5 forward I I I I #
loop $-1 $-1 $148 $40 #
coedge $-1 $94 $94 $149 $150 reversed $58 $-1 #
face $-1 $151 $152 $32 $-1 $153 reversed single #
loop $-1 $-1 $154 $60 #
plane-surface $-1 63.176915715608189 -164.99155984391263 105.05071300507228 1 0 0 0 0.77714596973225614 -0.62932038083071107 forward_v I I I I #
coedge $-1 $155 $156 $157 $158 reversed $61 $-1 #
face $-1 $-1 $159 $33 $-1 $160 forward single #
loop $-1 $161 $162 $63 #
cone-surface $-1 66.484157774671701 -38.142929178571478 5.4090862530416377 0 0.77714596973225614 -0.62932038083071107 0.25 0 0 1 I I -0.70710678118654746 0.70710678118654746 0.25 forward I I I I #
loop $-1 $-1 $163 $42 #
coedge $-1 $103 $103 $164 $165 reversed $64 $-1 #
face $-1 $-1 $166 $34 $-1 $167 forward single #
loop $-1 $168 $169 $66 #
cone-surface $-1 71.445020863266933 -38.142929178571478 5.4090862530416377 0 0.77714596973225614 -0.62932038083071107 0.25 0 0 1 I I -0.70710678118654746 0.70710678118654746 0.25 forward I I I I #
loop $-1 $-1 $170 $43 #
coedge $-1 $108 $108 $171 $172 reversed $67 $-1 #
face $-1 $-1 $173 $35 $-1 $174 forward single #
loop $-1 $175 $176 $69 #
cone-surface $-1 76.405883951862165 -38.142929178571478 5.4090862530416377 0 0.77714596973225614 -0.62932038083071107 0.25 0 0 1 I I -0.70710678118654746 0.70710678118654746 0.25 forward I I I I #
loop $-1 $-1 $177 $44 #
coedge $-1 $113 $113 $178 $179 reversed $70 $-1 #
face $-1 $180 $181 $27 $-1 $182 reversed single #
loop $-1 $-1 $183 $72 #
plane-surface $-1 0 -41.094090615611989 0 0 1 0 0 0 1 forward_v I I I I #
coedge $-1 $184 $185 $186 $187 forward $73 $-1 #
coedge $-1 $188 $75 $189 $190 forward $46 $-1 #
coedge $-1 $75 $188 $191 $192 forward $46 $-1 #
coedge $-1 $193 $194 $75 $121 reversed $195 $-1 #
edge $-1 $196 -41.094090615611989 $197 41.094090615611989 $120 $198 forward 7 unknown #
face $-1 $199 $200 $28 $-1 $201 reversed single #
loop $-1 $-1 $128 $76 #
plane-surface $-1 0 0 8.4389180072448351 0 0 1 1 0 0 forward_v I I I I #
coedge $-1 $202 $203 $204 $205 reversed $77 $-1 #
coedge $-1 $127 $79 $206 $207 reversed $49 $-1 #
coedge $-1 $79 $126 $202 $208 reversed $49 $-1 #
coedge $-1 $204 $209 $79 $129 forward $123 $-1 #
edge $-1 $210 -0.78833443751884857 $211 2.8719873168603698 $128 $212 forward 7 unknown #
loop $-1 $-1 $135 $80 #
plane-surface $-1 64.848441606965594 -21.865708361771496 58.197088516256088 0 0.64278761758704617 0.76604443648966558 1 0 0 forward_v I I I I #
loop $-1 $-1 $213 $51 #
coedge $-1 $133 $133 $134 $214 reversed $81 $-1 #
coedge $-1 $134 $134 $133 $214 forward $83 $-1 #
coedge $-1 $135 $135 $84 $136 forward $130 $-1 #
edge $-1 $215 -8.7579237304154467e-016 $215 6.2831853071795996 $135 $216 forward 7 unknown #
loop $-1 $-1 $142 $85 #
plane-surface $-1 64.848441606965594 -21.865708361771496 58.197088516256088 0 0.64278761758704617 0.76604443648966558 1 0 0 forward_v I I I I #
loop $-1 $-1 $217 $54 #
coedge $-1 $140 $140 $141 $218 reversed $86 $-1 #
coedge $-1 $141 $141 $140 $218 forward $88 $-1 #
coedge $-1 $142 $142 $89 $143 forward $137 $-1 #
edge $-1 $219 -8.7579237304154467e-016 $219 6.2831853071795996 $142 $220 forward 7 unknown #
loop $-1 $-1 $149 $90 #
plane-surface $-1 64.848441606965594 -21.865708361771496 58.197088516256088 0 0.64278761758704617 0.76604443648966558 1 0 0 forward_v I I I I #
loop $-1 $-1 $221 $57 #
coedge $-1 $147 $147 $148 $222 reversed $91 $-1 #
coedge $-1 $148 $148 $147 $222 forward $93 $-1 #
coedge $-1 $149 $149 $94 $150 forward $144 $-1 #
edge $-1 $223 -8.7579237304154467e-016 $223 6.2831853071795996 $149 $224 forward 7 unknown #
face $-1 $225 $226 $32 $-1 $227 reversed single #
loop $-1 $-1 $228 $95 #
plane-surface $-1 0 -41.094090615611989 0 0 1 0 0 0 1 forward_v I I I I #
coedge $-1 $229 $230 $231 $232 reversed $96 $-1 #
coedge $-1 $233 $98 $234 $235 reversed $61 $-1 #
coedge $-1 $98 $233 $229 $236 forward $61 $-1 #
coedge $-1 $231 $237 $98 $158 forward $238 $-1 #
edge $-1 $239 -43.990615579292168 $240 -27.454405283974737 $157 $241 forward 7 unknown #
loop $-1 $-1 $164 $99 #
plane-surface $-1 71.445020863266905 -41.094090615611961 4.7205233682679193 0 -0.77714596973225614 0.62932038083071107 1 0 0 forward_v I I I I #
loop $-1 $-1 $242 $63 #
coedge $-1 $162 $162 $163 $243 reversed $100 $-1 #
coedge $-1 $163 $163 $162 $243 forward $102 $-1 #
coedge $-1 $164 $164 $103 $165 forward $159 $-1 #
edge $-1 $244 -1.2605080415474948e-015 $244 6.2831853071795996 $164 $245 forward 7 unknown #
loop $-1 $-1 $171 $104 #
plane-surface $-1 71.445020863266905 -41.094090615611961 4.7205233682679193 0 -0.77714596973225614 0.62932038083071107 1 0 0 forward_v I I I I #
loop $-1 $-1 $246 $66 #
coedge $-1 $169 $169 $170 $247 reversed $105 $-1 #
coedge $-1 $170 $170 $169 $247 forward $107 $-1 #
coedge $-1 $171 $171 $108 $172 forward $166 $-1 #
edge $-1 $248 -1.2605080415474948e-015 $248 6.2831853071795996 $171 $249 forward 7 unknown #
loop $-1 $-1 $178 $109 #
plane-surface $-1 71.445020863266905 -41.094090615611961 4.7205233682679193 0 -0.77714596973225614 0.62932038083071107 1 0 0 forward_v I I I I #
loop $-1 $-1 $250 $69 #
coedge $-1 $176 $176 $177 $251 reversed $110 $-1 #
coedge $-1 $177 $177 $176 $251 forward $112 $-1 #
coedge $-1 $178 $178 $113 $179 forward $173 $-1 #
edge $-1 $252 -1.2605080415474948e-015 $252 6.2831853071795996 $178 $253 forward 7 unknown #
face $-1 $254 $255 $27 $-1 $256 reversed single #
loop $-1 $-1 $257 $114 #
plane-surface $-1 -79.713126010925635 0 0 1 0 0 0 0 -1 forward_v I I I I #
coedge $-1 $258 $191 $259 $260 forward $115 $-1 #
coedge $-1 $261 $117 $258 $262 forward $73 $-1 #
coedge $-1 $117 $261 $263 $264 forward $73 $-1 #
coedge $-1 $194 $193 $117 $187 reversed $195 $-1 #
edge $-1 $265 -41.094090615611989 $266 41.094090615611989 $186 $267 forward 7 unknown #
coedge $-1 $119 $118 $268 $269 forward $46 $-1 #
coedge $-1 $270 $271 $118 $190 reversed $255 $-1 #
edge $-1 $197 -79.713126010925635 $272 79.713126010925635 $189 $273 forward 7 unknown #
coedge $-1 $183 $274 $119 $192 reversed $115 $-1 #
edge $-1 $275 -79.713126010925635 $196 79.713126010925635 $191 $276 forward 7 unknown #
coedge $-1 $186 $120 $274 $277 forward $195 $-1 #
coedge $-1 $120 $186 $270 $278 reversed $195 $-1 #
loop $-1 $-1 $193 $254 #
vertex $-1 $121 $279 #
vertex $-1 $121 $280 #
straight-curve $-1 79.713126010925635 0 8.4389180072448351 0 1 0 I I #
face $-1 $-1 $281 $28 $-1 $282 reversed single #
loop $-1 $-1 $206 $122 #
plane-surface $-1 0 41.094090615611989 0 0 -1 0 0 0 -1 forward_v I I I I #
coedge $-1 $283 $125 $127 $208 forward $77 $-1 #
coedge $-1 $125 $283 $284 $285 reversed $77 $-1 #
coedge $-1 $286 $128 $125 $205 forward $123 $-1 #
edge $-1 $211 17.559536399522756 $287 47.288905207442838 $204 $288 forward 7 unknown #
coedge $-1 $289 $290 $126 $207 forward $200 $-1 #
edge $-1 $291 -84.794797645172025 $210 -81.723422946752436 $206 $292 forward 7 unknown #
edge $-1 $211 77.409970490405428 $291 82.188181231223979 $127 $293 forward 7 unknown #
coedge $-1 $128 $286 $289 $294 forward $123 $-1 #
vertex $-1 $207 $295 #
vertex $-1 $129 $296 #
straight-curve $-1 49.983757203005553 40.305756178093141 8.4389180072448369 0 -1 0 I I #
coedge $-1 $213 $213 $-1 $297 reversed $132 $-1 #
edge $-1 $298 0 $298 6.2831853071796004 $133 $299 forward 7 unknown #
vertex $-1 $136 $300 #
ellipse-curve $-1 55.929630964589563 39.263929738422377 6.9032306580350378 0 0.64278761758704617 0.76604443648966558 1 0 0 1 I I #
coedge $-1 $217 $217 $-1 $301 reversed $139 $-1 #
edge $-1 $302 0 $302 6.2831853071796004 $140 $303 forward 7 unknown #
vertex $-1 $143 $304 #
ellipse-curve $-1 64.848441606965594 39.263929738422377 6.9032306580350378 0 0.64278761758704617 0.76604443648966558 1 0 0 1 I I #
coedge $-1 $221 $221 $-1 $305 reversed $146 $-1 #
edge $-1 $306 0 $306 6.2831853071796004 $147 $307 forward 7 unknown #
vertex $-1 $150 $308 #
ellipse-curve $-1 73.767252249341624 39.263929738422377 6.9032306580350378 0 0.64278761758704617 0.76604443648966558 1 0 0 1 I I #
face $-1 $-1 $238 $32 $-1 $309 forward single #
loop $-1 $-1 $234 $151 #
plane-surface $-1 79.713126010925635 0 0 -1 0 0 0 0 1 forward_v I I I I #
coedge $-1 $310 $311 $230 $312 forward $152 $-1 #
coedge $-1 $230 $154 $156 $236 reversed $96 $-1 #
coedge $-1 $154 $229 $228 $312 reversed $96 $-1 #
coedge $-1 $313 $157 $154 $232 forward $238 $-1 #
edge $-1 $240 -44.412785833147453 $314 -41.401689306344323 $231 $315 forward 7 unknown #
coedge $-1 $156 $155 $310 $316 reversed $61 $-1 #
coedge $-1 $317 $318 $155 $235 forward $226 $-1 #
edge $-1 $319 -11.096406522716206 $239 -6.3117267021954637 $234 $320 forward 7 unknown #
edge $-1 $321 -4.5496132173526324e-014 $240 4.7846798205206964 $229 $322 forward 7 unknown #
coedge $-1 $157 $313 $317 $323 forward $238 $-1 #
loop $-1 $-1 $231 $225 #
vertex $-1 $235 $324 #
vertex $-1 $158 $325 #
straight-curve $-1 35.722510431633452 -38.08299408880886 8.4389180072448351 -1 0 0 I I #
coedge $-1 $242 $242 $-1 $326 reversed $161 $-1 #
edge $-1 $327 0 $327 6.2831853071796004 $162 $328 forward 7 unknown #
vertex $-1 $165 $329 #
ellipse-curve $-1 66.484157774671701 -39.588542352210418 6.5797206877563683 0 -0.77714596973225614 0.62932038083071107 0.5 0 0 1 I I #
coedge $-1 $246 $246 $-1 $330 reversed $168 $-1 #
edge $-1 $331 0 $331 6.2831853071796004 $169 $332 forward 7 unknown #
vertex $-1 $172 $333 #
ellipse-curve $-1 71.445020863266933 -39.588542352210418 6.5797206877563683 0 -0.77714596973225614 0.62932038083071107 0.5 0 0 1 I I #
coedge $-1 $250 $250 $-1 $334 reversed $175 $-1 #
edge $-1 $335 0 $335 6.2831853071796004 $176 $336 forward 7 unknown #
vertex $-1 $179 $337 #
ellipse-curve $-1 76.405883951862165 -39.588542352210418 6.5797206877563683 0 -0.77714596973225614 0.62932038083071107 0.5 0 0 1 I I #
face $-1 $-1 $195 $27 $-1 $338 reversed single #
loop $-1 $-1 $270 $180 #
plane-surface $-1 0 41.094090615611989 0 0 -1 0 0 0 -1 forward_v I I I I #
coedge $-1 $339 $268 $271 $340 forward $181 $-1 #
coedge $-1 $274 $183 $184 $262 reversed $115 $-1 #
coedge $-1 $268 $339 $183 $260 reversed $181 $-1 #
edge $-1 $275 -8.4389180072448351 $341 8.4389180072448351 $259 $342 forward 7 unknown #
coedge $-1 $185 $184 $339 $343 forward $73 $-1 #
edge $-1 $266 -79.713126010925635 $341 79.713126010925635 $258 $344 forward 7 unknown #
coedge $-1 $271 $270 $185 $264 reversed $255 $-1 #
edge $-1 $345 -79.713126010925635 $265 79.713126010925635 $263 $346 forward 7 unknown #
vertex $-1 $187 $347 #
vertex $-1 $277 $348 #
straight-curve $-1 79.713126010925635 0 -8.4389180072448351 0 -1 0 I I #
coedge $-1 $257 $259 $188 $269 reversed $181 $-1 #
edge $-1 $272 -41.094090615611989 $275 41.094090615611989 $268 $349 forward 7 unknown #
coedge $-1 $263 $189 $194 $278 forward $255 $-1 #
coedge $-1 $189 $263 $257 $340 reversed $255 $-1 #
vertex $-1 $190 $350 #
straight-curve $-1 0 41.094090615611989 8.4389180072448351 -1 0 0 I I #
coedge $-1 $191 $258 $193 $277 reversed $115 $-1 #
vertex $-1 $269 $351 #
straight-curve $-1 0 -41.094090615611989 8.4389180072448351 1 0 0 I I #
edge $-1 $196 -8.4389180072448351 $266 8.4389180072448351 $193 $352 forward 7 unknown #
edge $-1 $197 -8.4389180072448351 $265 8.4389180072448351 $194 $353 forward 7 unknown #
point $-1 79.713126010925635 -41.094090615611989 8.4389180072448351 #
point $-1 79.713126010925635 41.094090615611989 8.4389180072448351 #
loop $-1 $-1 $284 $199 #
plane-surface $-1 79.713126010925635 0 0 -1 0 0 0 0 1 forward_v I I I I #
coedge $-1 $203 $202 $290 $354 reversed $77 $-1 #
coedge $-1 $355 $356 $203 $285 forward $281 $-1 #
edge $-1 $287 50.33073443125177 $357 55.108945172070328 $284 $358 forward 7 unknown #
coedge $-1 $209 $204 $356 $359 forward $123 $-1 #
vertex $-1 $359 $360 #
straight-curve $-1 32.424220803482797 37.433768861232764 8.438918007244844 1 0 0 I I #
coedge $-1 $361 $206 $209 $294 reversed $200 $-1 #
coedge $-1 $206 $361 $283 $354 forward $200 $-1 #
vertex $-1 $207 $362 #
straight-curve $-1 49.983757203005553 41.094090615611989 90.162340953997273 0 0 1 I I #
straight-curve $-1 49.983757203005553 -21.865708361771496 58.197088516256088 0 0.76604443648966558 -0.64278761758704617 I I #
edge $-1 $363 -79.713126010925635 $210 -49.983757203005553 $289 $364 forward 7 unknown #
point $-1 49.983757203005553 41.094090615611989 8.4389180072448351 #
point $-1 49.983757203005553 37.433768861232771 8.4389180072448369 #
edge $-1 $365 1 $365 0 $213 $-1 forward 7 unknown #
vertex $-1 $214 $366 #
ellipse-curve $-1 55.929630964589563 38.430171404651055 5.9095961892193376 0 0.64278761758704617 0.76604443648966558 1 0 0 1 I I #
point $-1 56.929630964589563 39.26392973842237 6.9032306580350307 #
edge $-1 $367 1 $367 0 $217 $-1 forward 7 unknown #
vertex $-1 $218 $368 #
ellipse-curve $-1 64.848441606965594 38.430171404651055 5.9095961892193376 0 0.64278761758704617 0.76604443648966558 1 0 0 1 I I #
point $-1 65.848441606965594 39.26392973842237 6.9032306580350307 #
edge $-1 $369 1 $369 0 $221 $-1 forward 7 unknown #
vertex $-1 $222 $370 #
ellipse-curve $-1 73.767252249341624 38.430171404651055 5.9095961892193376 0 0.64278761758704617 0.76604443648966558 1 0 0 1 I I #
point $-1 74.767252249341624 39.26392973842237 6.9032306580350307 #
plane-surface $-1 0 0 8.4389180072448351 0 0 1 1 0 0 forward_v I I I I #
coedge $-1 $371 $228 $233 $316 forward $152 $-1 #
coedge $-1 $228 $371 $313 $372 reversed $152 $-1 #
edge $-1 $314 44.086438495291304 $321 47.804833134268257 $228 $373 forward 7 unknown #
coedge $-1 $237 $231 $311 $372 forward $238 $-1 #
vertex $-1 $372 $374 #
straight-curve $-1 63.176915715608189 -82.495779921956313 8.4389180072448369 0 -1 0 I I #
edge $-1 $321 27.454405283974737 $319 43.990615579292168 $310 $375 forward 7 unknown #
coedge $-1 $318 $234 $237 $323 reversed $226 $-1 #
coedge $-1 $234 $317 $371 $376 forward $226 $-1 #
vertex $-1 $235 $377 #
straight-curve $-1 79.713126010925635 -34.110895836883842 13.344050975907503 0 0.62932038083071107 0.77714596973225614 I I #
vertex $-1 $316 $378 #
straight-curve $-1 63.176915715608189 -41.094090615611961 4.7205233682679193 0 0.62932038083071107 0.77714596973225614 I I #
edge $-1 $379 -41.094090615611989 $239 -38.08299408880886 $317 $380 forward 7 unknown #
point $-1 79.71312601092562 -38.08299408880886 8.4389180072448351 #
point $-1 63.176915715608189 -38.08299408880886 8.4389180072448351 #
edge $-1 $381 1 $381 0 $242 $-1 forward 7 unknown #
vertex $-1 $243 $382 #
ellipse-curve $-1 66.484157774671701 -38.337215671004543 5.5664163482493159 0 -0.77714596973225614 0.62932038083071107 0.5 0 0 1 I I #
point $-1 66.984157774671701 -39.588542352210446 6.5797206877563905 #
edge $-1 $383 1 $383 0 $246 $-1 forward 7 unknown #
vertex $-1 $247 $384 #
ellipse-curve $-1 71.445020863266933 -38.337215671004543 5.5664163482493159 0 -0.77714596973225614 0.62932038083071107 0.5 0 0 1 I I #
point $-1 71.945020863266933 -39.588542352210446 6.5797206877563905 #
edge $-1 $385 1 $385 0 $250 $-1 forward 7 unknown #
vertex $-1 $251 $386 #
ellipse-curve $-1 76.405883951862165 -38.337215671004543 5.5664163482493159 0 -0.77714596973225614 0.62932038083071107 0.5 0 0 1 I I #
point $-1 76.905883951862165 -39.588542352210446 6.5797206877563905 #
plane-surface $-1 79.713126010925635 0 0 -1 0 0 0 0 1 forward_v I I I I #
coedge $-1 $259 $257 $261 $343 reversed $181 $-1 #
edge $-1 $272 -8.4389180072448351 $345 8.4389180072448351 $271 $387 forward 7 unknown #
vertex $-1 $343 $388 #
straight-curve $-1 -79.713126010925635 -41.094090615611989 0 0 0 -1 I I #
edge $-1 $341 -41.094090615611989 $345 41.094090615611989 $339 $389 forward 7 unknown #
straight-curve $-1 0 -41.094090615611989 -8.4389180072448351 -1 0 0 I I #
vertex $-1 $264 $390 #
straight-curve $-1 0 41.094090615611989 -8.4389180072448351 1 0 0 I I #
point $-1 79.713126010925635 41.094090615611989 -8.4389180072448351 #
point $-1 79.713126010925635 -41.094090615611989 -8.4389180072448351 #
straight-curve $-1 -79.713126010925635 0 8.4389180072448351 0 -1 0 I I #
point $-1 -79.713126010925635 41.094090615611989 8.4389180072448351 #
point $-1 -79.713126010925635 -41.094090615611989 8.4389180072448351 #
straight-curve $-1 79.713126010925635 -41.094090615611989 0 0 0 -1 I I #
straight-curve $-1 79.713126010925635 41.094090615611989 0 0 0 -1 I I #
edge $-1 $357 -47.288905207442838 $291 -17.559536399522756 $290 $391 forward 7 unknown #
coedge $-1 $356 $284 $361 $392 reversed $281 $-1 #
coedge $-1 $284 $355 $286 $359 reversed $281 $-1 #
vertex $-1 $285 $393 #
straight-curve $-1 79.713126010925635 -1.1218102342665013 40.790890883715477 0 0.76604443648966558 -0.64278761758704617 I I #
edge $-1 $287 37.433768861232771 $363 41.094090615611989 $356 $394 forward 7 unknown #
point $-1 79.713126010925635 37.433768861232771 8.4389180072448369 #
coedge $-1 $290 $289 $355 $392 forward $200 $-1 #
point $-1 49.983757203005553 41.094090615611989 5.3675433088252404 #
vertex $-1 $359 $395 #
straight-curve $-1 0 41.094090615611989 8.4389180072448351 -1 0 0 I I #
vertex $-1 $297 $396 #
point $-1 56.929630964589563 38.430171404651055 5.9095961892193376 #
vertex $-1 $301 $397 #
point $-1 65.848441606965594 38.430171404651055 5.9095961892193376 #
vertex $-1 $305 $398 #
point $-1 74.767252249341624 38.430171404651055 5.9095961892193376 #
coedge $-1 $311 $310 $318 $376 reversed $152 $-1 #
edge $-1 $314 63.176915715608189 $379 79.713126010925635 $311 $399 forward 7 unknown #
straight-curve $-1 63.176915715608189 -41.094090615611989 52.525356502536141 0 0 -1 I I #
point $-1 63.176915715608189 -41.094090615611989 8.4389180072448351 #
straight-curve $-1 35.722510431633452 -41.094090615611989 4.7205233682678864 1 0 0 I I #
edge $-1 $379 -8.4389180072448351 $319 -4.7205233682678838 $318 $400 forward 7 unknown #
point $-1 79.71312601092562 -41.094090615611989 4.7205233682678838 #
point $-1 63.176915715608189 -41.094090615611989 4.7205233682678838 #
vertex $-1 $323 $401 #
straight-curve $-1 79.713126010925635 0 8.4389180072448351 0 1 0 I I #
vertex $-1 $326 $402 #
point $-1 66.984157774671701 -38.337215671004543 5.5664163482493159 #
vertex $-1 $330 $403 #
point $-1 71.945020863266933 -38.337215671004543 5.5664163482493159 #
vertex $-1 $334 $404 #
point $-1 76.905883951862165 -38.337215671004543 5.5664163482493159 #
straight-curve $-1 -79.713126010925635 41.094090615611989 0 0 0 -1 I I #
point $-1 -79.713126010925635 -41.094090615611989 -8.4389180072448351 #
straight-curve $-1 -79.713126010925635 0 -8.4389180072448351 0 1 0 I I #
point $-1 -79.713126010925635 41.094090615611989 -8.4389180072448351 #
straight-curve $-1 32.424220803482797 41.094090615611982 5.367543308825244 -1 0 0 I I #
edge $-1 $363 -8.4389180072448351 $357 -5.3675433088252404 $355 $405 forward 7 unknown #
point $-1 79.713126010925635 41.094090615611989 5.3675433088252404 #
straight-curve $-1 79.713126010925635 0 8.4389180072448351 0 1 0 I I #
point $-1 79.713126010925635 41.094090615611989 8.4389180072448351 #
point $-1 55.929630964589563 37.787383787064009 5.1435517527296728 #
point $-1 64.848441606965594 37.787383787064009 5.1435517527296728 #
point $-1 73.767252249341624 37.787383787064009 5.1435517527296728 #
straight-curve $-1 0 -41.094090615611989 8.4389180072448351 1 0 0 I I #
straight-curve $-1 79.713126010925635 -41.094090615611989 0 0 0 -1 I I #
point $-1 79.713126010925635 -41.094090615611989 8.4389180072448351 #
point $-1 66.484157774671701 -37.948642686138413 5.2517561578339595 #
point $-1 71.445020863266933 -37.948642686138413 5.2517561578339595 #
point $-1 76.405883951862165 -37.948642686138413 5.2517561578339595 #
straight-curve $-1 79.713126010925635 41.094090615611989 0 0 0 -1 I I #
End-of-ACIS-data 