500 0 3 0           
7 Unknown 11 ACIS 5.0 NT 24 Thu Mar 25 19:03:41 1999 
-1 9.9999999999999995e-007 1e-010 
body $-1 $3 $-1 $4 #
body $-1 $5 $-1 $6 #
body $-1 $7 $-1 $8 #
lump $-1 $-1 $9 $0 #
transform $-1 1 0 0 0 1 0 0 0 1 57.161168248542744 32.817387289810959 9.6032446677557424 1 rotate no_reflect no_shear #
lump $-1 $-1 $10 $1 #
transform $-1 1 0 0 0 1 0 0 0 1 57.161168248542744 32.817387289810959 9.6032446677557424 1 rotate no_reflect no_shear #
lump $-1 $-1 $11 $2 #
transform $-1 1 0 0 0 1 0 0 0 1 57.161168248542744 32.817387289810959 9.6032446677557424 1 rotate no_reflect no_shear #
shell $-1 $-1 $-1 $12 $-1 $3 #
shell $-1 $-1 $-1 $13 $-1 $5 #
shell $-1 $-1 $-1 $14 $-1 $7 #
face $-1 $15 $16 $9 $-1 $17 forward single #
face $-1 $18 $19 $10 $-1 $20 reversed single #
face $-1 $21 $22 $11 $-1 $23 reversed single #
face $-1 $24 $25 $9 $-1 $26 reversed single #
loop $-1 $-1 $27 $12 #
plane-surface $-1 0 0 9.6032446677557424 0 0 1 1 0 0 forward_v I I I I #
face $-1 $28 $29 $10 $-1 $30 reversed single #
loop $-1 $-1 $31 $13 #
plane-surface $-1 -55.309890573051774 -42.87848812229813 0 0 1 0 0 0 1 forward_v I I I I #
face $-1 $32 $33 $11 $-1 $34 forward single #
loop $-1 $-1 $35 $14 #
plane-surface $-1 0 28.416840438211715 6.1833052817734862 0 0 1 1 0 0 forward_v I I I I #
face $-1 $36 $37 $9 $-1 $38 reversed single #
loop $-1 $-1 $39 $15 #
plane-surface $-1 0 0 -9.6032446677557424 0 0 1 1 0 0 forward_v I I I I #
coedge $-1 $40 $41 $42 $43 forward $16 $-1 #
face $-1 $44 $45 $10 $-1 $46 reversed single #
loop $-1 $-1 $47 $18 #
plane-surface $-1 -53.458612897560805 -37.847937706054545 0 -1 0 0 0 0 1 forward_v I I I I #
coedge $-1 $48 $49 $50 $51 forward $19 $-1 #
face $-1 $52 $53 $11 $-1 $54 forward single #
loop $-1 $-1 $55 $21 #
plane-surface $-1 0 28.416840438211715 2.24816425104268 0 0 1 1 0 0 forward_v I I I I #
coedge $-1 $56 $57 $58 $59 reversed $22 $-1 #
face $-1 $60 $61 $9 $-1 $62 reversed single #
loop $-1 $-1 $63 $24 #
plane-surface $-1 0 -32.817387289810959 0 0 1 0 0 0 1 forward_v I I I I #
coedge $-1 $64 $65 $66 $67 forward $25 $-1 #
coedge $-1 $68 $27 $69 $70 forward $16 $-1 #
coedge $-1 $27 $68 $71 $72 forward $16 $-1 #
coedge $-1 $73 $74 $27 $43 reversed $75 $-1 #
edge $-1 $76 -32.817387289810959 $77 32.817387289810959 $42 $78 forward 7 unknown #
face $-1 $79 $80 $10 $-1 $81 forward single #
loop $-1 $-1 $82 $28 #
plane-surface $-1 0 -32.817387289810959 0 0 1 0 0 0 1 forward_v I I I I #
coedge $-1 $83 $84 $85 $86 forward $29 $-1 #
coedge $-1 $85 $31 $87 $88 reversed $19 $-1 #
coedge $-1 $31 $85 $89 $90 reversed $19 $-1 #
coedge $-1 $91 $92 $31 $51 reversed $93 $-1 #
edge $-1 $94 -9.6032446677557424 $95 9.6032446677557424 $50 $96 forward 7 unknown #
face $-1 $97 $98 $11 $-1 $99 reversed single #
loop $-1 $-1 $100 $32 #
plane-surface $-1 0 24.01629358661247 4.2157347664080831 0 1 0 0 0 1 forward_v I I I I #
coedge $-1 $101 $102 $103 $104 reversed $33 $-1 #
coedge $-1 $105 $35 $106 $107 reversed $22 $-1 #
coedge $-1 $35 $105 $108 $109 reversed $22 $-1 #
coedge $-1 $110 $111 $35 $59 forward $112 $-1 #
edge $-1 $113 9.8078733675066125 $114 18.608967070705102 $58 $115 forward 7 unknown #
face $-1 $116 $117 $9 $-1 $118 reversed single #
loop $-1 $-1 $119 $36 #
plane-surface $-1 -57.161168248542744 0 0 1 0 0 0 0 -1 forward_v I I I I #
coedge $-1 $120 $71 $121 $122 forward $37 $-1 #
coedge $-1 $123 $39 $120 $124 forward $25 $-1 #
coedge $-1 $39 $123 $125 $126 forward $25 $-1 #
coedge $-1 $74 $73 $39 $67 reversed $75 $-1 #
edge $-1 $127 -32.817387289810959 $128 32.817387289810959 $66 $129 forward 7 unknown #
coedge $-1 $41 $40 $130 $131 forward $16 $-1 #
coedge $-1 $132 $133 $40 $70 reversed $117 $-1 #
edge $-1 $77 -57.161168248542744 $134 57.161168248542744 $69 $135 forward 7 unknown #
coedge $-1 $63 $136 $41 $72 reversed $37 $-1 #
edge $-1 $137 -57.161168248542744 $76 57.161168248542744 $71 $138 forward 7 unknown #
coedge $-1 $66 $42 $136 $139 forward $75 $-1 #
coedge $-1 $42 $66 $132 $140 reversed $75 $-1 #
loop $-1 $-1 $73 $116 #
vertex $-1 $43 $141 #
vertex $-1 $43 $142 #
straight-curve $-1 57.161168248542744 0 9.6032446677557424 0 1 0 I I #
face $-1 $143 $144 $10 $-1 $145 reversed single #
loop $-1 $-1 $146 $44 #
plane-surface $-1 0 0 9.6032446677557424 0 0 1 1 0 0 forward_v I I I I #
coedge $-1 $147 $148 $149 $150 forward $45 $-1 #
coedge $-1 $149 $47 $151 $152 reversed $29 $-1 #
coedge $-1 $47 $149 $153 $154 reversed $29 $-1 #
coedge $-1 $49 $48 $47 $86 reversed $19 $-1 #
edge $-1 $155 -9.6032446677557424 $156 9.6032446677557424 $47 $157 forward 7 unknown #
coedge $-1 $158 $151 $48 $88 forward $144 $-1 #
edge $-1 $156 -1.8512776754909694 $95 1.8512776754909694 $48 $159 forward 7 unknown #
coedge $-1 $153 $160 $49 $90 forward $80 $-1 #
edge $-1 $94 -1.8512776754909694 $155 1.8512776754909694 $49 $161 forward 7 unknown #
coedge $-1 $162 $50 $160 $163 reversed $93 $-1 #
coedge $-1 $50 $162 $158 $164 reversed $93 $-1 #
loop $-1 $-1 $162 $143 #
vertex $-1 $163 $165 #
vertex $-1 $164 $166 #
straight-curve $-1 -57.161168248542744 -42.87848812229813 0 0 0 -1 I I #
face $-1 $167 $168 $11 $-1 $99 reversed single #
loop $-1 $-1 $169 $52 #
plane-surface $-1 0 32.817387289810959 0 0 -1 0 0 0 -1 forward_v I I I I #
coedge $-1 $106 $170 $171 $172 reversed $53 $-1 #
coedge $-1 $173 $55 $169 $174 reversed $33 $-1 #
coedge $-1 $55 $173 $170 $175 reversed $33 $-1 #
coedge $-1 $111 $176 $55 $104 forward $112 $-1 #
edge $-1 $177 -18.608967070705102 $178 -9.8078733675066125 $103 $179 forward 7 unknown #
coedge $-1 $57 $56 $180 $181 reversed $22 $-1 #
coedge $-1 $182 $100 $56 $107 forward $53 $-1 #
edge $-1 $183 -57.161168248542744 $113 57.161168248542744 $106 $184 forward 7 unknown #
coedge $-1 $185 $186 $57 $109 forward $168 $-1 #
edge $-1 $114 -57.161168248542744 $187 57.161168248542744 $108 $188 forward 7 unknown #
coedge $-1 $189 $58 $186 $190 reversed $112 $-1 #
coedge $-1 $58 $103 $182 $191 forward $112 $-1 #
loop $-1 $-1 $58 $192 #
vertex $-1 $59 $193 #
vertex $-1 $109 $194 #
straight-curve $-1 57.161168248542744 14.208420219105857 6.1833052817734862 0 1 0 I I #
face $-1 $-1 $75 $9 $-1 $195 reversed single #
loop $-1 $-1 $132 $60 #
plane-surface $-1 0 32.817387289810959 0 0 -1 0 0 0 -1 forward_v I I I I #
coedge $-1 $196 $130 $133 $197 forward $61 $-1 #
coedge $-1 $136 $63 $64 $124 reversed $37 $-1 #
coedge $-1 $130 $196 $63 $122 reversed $61 $-1 #
edge $-1 $137 -9.6032446677557424 $198 9.6032446677557424 $121 $199 forward 7 unknown #
coedge $-1 $65 $64 $196 $200 forward $25 $-1 #
edge $-1 $128 -57.161168248542744 $198 57.161168248542744 $120 $201 forward 7 unknown #
coedge $-1 $133 $132 $65 $126 reversed $117 $-1 #
edge $-1 $202 -57.161168248542744 $127 57.161168248542744 $125 $203 forward 7 unknown #
vertex $-1 $67 $204 #
vertex $-1 $139 $205 #
straight-curve $-1 57.161168248542744 0 -9.6032446677557424 0 -1 0 I I #
coedge $-1 $119 $121 $68 $131 reversed $61 $-1 #
edge $-1 $134 -32.817387289810959 $137 32.817387289810959 $130 $206 forward 7 unknown #
coedge $-1 $125 $69 $74 $140 forward $117 $-1 #
coedge $-1 $69 $125 $119 $197 reversed $117 $-1 #
vertex $-1 $70 $207 #
straight-curve $-1 0 32.817387289810959 9.6032446677557424 -1 0 0 I I #
coedge $-1 $71 $120 $73 $139 reversed $37 $-1 #
vertex $-1 $131 $208 #
straight-curve $-1 0 -32.817387289810959 9.6032446677557424 1 0 0 I I #
edge $-1 $76 -9.6032446677557424 $128 9.6032446677557424 $73 $209 forward 7 unknown #
edge $-1 $77 -9.6032446677557424 $127 9.6032446677557424 $74 $210 forward 7 unknown #
point $-1 57.161168248542744 -32.817387289810959 9.6032446677557424 #
point $-1 57.161168248542744 32.817387289810959 9.6032446677557424 #
face $-1 $211 $93 $10 $-1 $212 reversed single #
loop $-1 $-1 $213 $79 #
plane-surface $-1 0 0 -9.6032446677557424 0 0 1 1 0 0 forward_v I I I I #
coedge $-1 $214 $215 $216 $217 forward $80 $-1 #
coedge $-1 $218 $82 $219 $220 reversed $45 $-1 #
coedge $-1 $82 $218 $215 $221 reversed $45 $-1 #
coedge $-1 $84 $83 $82 $150 reversed $29 $-1 #
edge $-1 $222 -9.6032446677557424 $223 9.6032446677557424 $82 $224 forward 7 unknown #
coedge $-1 $87 $219 $83 $152 forward $144 $-1 #
edge $-1 $223 -5.0305504162435852 $156 5.0305504162435852 $83 $225 forward 7 unknown #
coedge $-1 $215 $89 $84 $154 forward $80 $-1 #
edge $-1 $155 -5.0305504162435852 $222 5.0305504162435852 $84 $226 forward 7 unknown #
vertex $-1 $154 $227 #
vertex $-1 $86 $228 #
straight-curve $-1 -53.458612897560805 -42.87848812229813 0 0 0 -1 I I #
coedge $-1 $229 $87 $92 $164 forward $144 $-1 #
straight-curve $-1 -55.309890573051774 -42.87848812229813 -9.6032446677557424 -1 0 0 I I #
coedge $-1 $89 $214 $91 $163 forward $80 $-1 #
straight-curve $-1 -55.309890573051774 -42.87848812229813 9.6032446677557424 1 0 0 I I #
coedge $-1 $92 $91 $230 $231 forward $93 $-1 #
edge $-1 $232 -32.817387289810959 $94 42.87848812229813 $91 $233 forward 7 unknown #
edge $-1 $95 -42.87848812229813 $234 32.817387289810959 $92 $235 forward 7 unknown #
point $-1 -57.161168248542744 -42.87848812229813 9.6032446677557424 #
point $-1 -57.161168248542744 -42.87848812229813 -9.6032446677557424 #
face $-1 $236 $237 $11 $-1 $238 reversed single #
loop $-1 $-1 $108 $97 #
coedge $-1 $239 $240 $101 $174 forward $98 $-1 #
coedge $-1 $100 $182 $102 $175 forward $53 $-1 #
coedge $-1 $241 $180 $100 $172 forward $237 $-1 #
edge $-1 $183 -4.0754378985694446 $242 -0.14029686783863848 $171 $243 forward 7 unknown #
coedge $-1 $102 $101 $241 $244 reversed $33 $-1 #
edge $-1 $245 -57.161168248542744 $177 57.161168248542744 $169 $246 forward 7 unknown #
edge $-1 $178 -57.161168248542744 $242 57.161168248542744 $170 $247 forward 7 unknown #
coedge $-1 $103 $248 $239 $249 reversed $112 $-1 #
vertex $-1 $249 $250 #
vertex $-1 $104 $251 #
straight-curve $-1 57.161168248542744 14.208420219105857 2.24816425104268 0 -1 0 I I #
coedge $-1 $171 $252 $105 $181 forward $237 $-1 #
edge $-1 $187 -18.608967070705102 $183 -9.8078733675066125 $180 $253 forward 7 unknown #
coedge $-1 $170 $106 $111 $191 reversed $53 $-1 #
vertex $-1 $181 $254 #
straight-curve $-1 0 24.01629358661247 6.1833052817734862 1 0 0 I I #
coedge $-1 $255 $108 $252 $256 reversed $168 $-1 #
coedge $-1 $108 $255 $110 $190 forward $168 $-1 #
vertex $-1 $181 $257 #
straight-curve $-1 0 32.817387289810959 6.1833052817734862 -1 0 0 I I #
coedge $-1 $258 $110 $259 $260 reversed $112 $-1 #
edge $-1 $261 -9.6032446677557424 $114 -6.1833052817734862 $110 $262 forward 7 unknown #
edge $-1 $178 0.14029686783863848 $113 4.0754378985694446 $111 $263 forward 7 unknown #
face $-1 $-1 $112 $11 $-1 $264 reversed single #
point $-1 57.161168248542744 24.01629358661247 6.1833052817734862 #
point $-1 57.161168248542744 32.817387289810959 6.1833052817734862 #
plane-surface $-1 57.161168248542744 0 0 -1 0 0 0 0 1 forward_v I I I I #
coedge $-1 $121 $119 $123 $200 reversed $61 $-1 #
edge $-1 $134 -9.6032446677557424 $202 9.6032446677557424 $133 $265 forward 7 unknown #
vertex $-1 $200 $266 #
straight-curve $-1 -57.161168248542744 -32.817387289810959 0 0 0 -1 I I #
edge $-1 $198 -32.817387289810959 $202 32.817387289810959 $196 $267 forward 7 unknown #
straight-curve $-1 0 -32.817387289810959 -9.6032446677557424 -1 0 0 I I #
vertex $-1 $126 $268 #
straight-curve $-1 0 32.817387289810959 -9.6032446677557424 1 0 0 I I #
point $-1 57.161168248542744 32.817387289810959 -9.6032446677557424 #
point $-1 57.161168248542744 -32.817387289810959 -9.6032446677557424 #
straight-curve $-1 -57.161168248542744 0 9.6032446677557424 0 -1 0 I I #
point $-1 -57.161168248542744 32.817387289810959 9.6032446677557424 #
point $-1 -57.161168248542744 -32.817387289810959 9.6032446677557424 #
straight-curve $-1 57.161168248542744 -32.817387289810959 0 0 0 -1 I I #
straight-curve $-1 57.161168248542744 32.817387289810959 0 0 0 -1 I I #
face $-1 $269 $270 $10 $-1 $271 reversed single #
plane-surface $-1 -57.161168248542744 0 0 1 0 0 0 0 -1 forward_v I I I I #
coedge $-1 $219 $229 $272 $273 forward $144 $-1 #
coedge $-1 $160 $146 $274 $275 forward $80 $-1 #
coedge $-1 $146 $153 $148 $221 forward $80 $-1 #
coedge $-1 $276 $277 $146 $217 reversed $278 $-1 #
edge $-1 $279 -32.817387289810959 $280 32.817387289810959 $216 $281 forward 7 unknown #
coedge $-1 $148 $147 $276 $282 reversed $45 $-1 #
coedge $-1 $151 $213 $147 $220 forward $144 $-1 #
edge $-1 $283 -57.161168248542744 $223 53.458612897560805 $147 $284 forward 7 unknown #
edge $-1 $222 -53.458612897560805 $279 57.161168248542744 $148 $285 forward 7 unknown #
vertex $-1 $221 $286 #
vertex $-1 $152 $287 #
straight-curve $-1 -53.458612897560805 -32.817387289810959 0 0 0 -1 I I #
straight-curve $-1 -53.458612897560805 -37.847937706054545 -9.6032446677557424 0 -1 0 I I #
straight-curve $-1 -53.458612897560805 -37.847937706054545 9.6032446677557424 0 1 0 I I #
point $-1 -53.458612897560805 -42.87848812229813 9.6032446677557424 #
point $-1 -53.458612897560805 -42.87848812229813 -9.6032446677557424 #
coedge $-1 $213 $158 $288 $289 forward $144 $-1 #
coedge $-1 $274 $288 $162 $231 reversed $270 $-1 #
edge $-1 $232 -9.6032446677557424 $234 9.6032446677557424 $230 $290 forward 7 unknown #
vertex $-1 $275 $291 #
straight-curve $-1 -57.161168248542744 0 9.6032446677557424 0 -1 0 I I #
vertex $-1 $289 $292 #
straight-curve $-1 -57.161168248542744 0 -9.6032446677557424 0 1 0 I I #
face $-1 $293 $294 $11 $-1 $295 reversed single #
loop $-1 $-1 $180 $167 #
plane-surface $-1 -57.161168248542744 0 0 1 0 0 0 0 -1 forward_v I I I I #
coedge $-1 $296 $169 $176 $249 forward $98 $-1 #
coedge $-1 $169 $296 $297 $298 reversed $98 $-1 #
coedge $-1 $297 $171 $173 $244 forward $237 $-1 #
vertex $-1 $244 $299 #
straight-curve $-1 -57.161168248542744 24.01629358661247 2.1078673832040415 0 0 -1 I I #
edge $-1 $242 9.8078733675066125 $245 18.608967070705102 $241 $300 forward 7 unknown #
vertex $-1 $298 $301 #
straight-curve $-1 0 32.817387289810959 2.24816425104268 1 0 0 I I #
straight-curve $-1 0 24.01629358661247 2.24816425104268 -1 0 0 I I #
coedge $-1 $176 $258 $302 $303 reversed $112 $-1 #
edge $-1 $177 -2.24816425104268 $304 9.6032446677557424 $176 $262 forward 7 unknown #
point $-1 57.161168248542744 32.817387289810959 2.24816425104268 #
point $-1 57.161168248542744 24.01629358661247 2.24816425104268 #
coedge $-1 $180 $305 $185 $256 forward $237 $-1 #
straight-curve $-1 -57.161168248542744 14.208420219105857 6.1833052817734862 0 -1 0 I I #
point $-1 -57.161168248542744 24.01629358661247 6.1833052817734862 #
coedge $-1 $186 $185 $306 $307 reversed $168 $-1 #
edge $-1 $308 -9.6032446677557424 $187 -6.1833052817734862 $185 $309 forward 7 unknown #
point $-1 -57.161168248542744 32.817387289810959 6.1833052817734862 #
coedge $-1 $248 $189 $310 $311 forward $112 $-1 #
coedge $-1 $306 $312 $189 $260 forward $313 $-1 #
edge $-1 $314 -32.817387289810959 $261 32.817387289810959 $189 $315 forward 7 unknown #
vertex $-1 $260 $316 #
straight-curve $-1 57.161168248542744 32.817387289810959 0 0 0 -1 I I #
straight-curve $-1 57.161168248542744 24.01629358661247 2.1078673832040415 0 0 1 I I #
plane-surface $-1 57.161168248542744 0 0 -1 0 0 0 0 1 forward_v I I I I #
straight-curve $-1 -57.161168248542744 32.817387289810959 0 0 0 -1 I I #
point $-1 -57.161168248542744 -32.817387289810959 -9.6032446677557424 #
straight-curve $-1 -57.161168248542744 0 -9.6032446677557424 0 1 0 I I #
point $-1 -57.161168248542744 32.817387289810959 -9.6032446677557424 #
face $-1 $-1 $278 $10 $-1 $317 reversed single #
loop $-1 $-1 $318 $211 #
plane-surface $-1 0 32.817387289810959 0 0 -1 0 0 0 -1 forward_v I I I I #
coedge $-1 $277 $276 $213 $273 reversed $278 $-1 #
edge $-1 $319 -32.817387289810959 $283 32.817387289810959 $272 $320 forward 7 unknown #
coedge $-1 $318 $230 $214 $275 reversed $270 $-1 #
edge $-1 $280 -57.161168248542744 $232 57.161168248542744 $274 $321 forward 7 unknown #
coedge $-1 $272 $216 $218 $282 forward $278 $-1 #
coedge $-1 $216 $272 $318 $322 reversed $278 $-1 #
loop $-1 $-1 $276 $269 #
vertex $-1 $217 $323 #
vertex $-1 $217 $324 #
straight-curve $-1 57.161168248542744 0 9.6032446677557424 0 1 0 I I #
edge $-1 $279 -9.6032446677557424 $283 9.6032446677557424 $276 $325 forward 7 unknown #
vertex $-1 $282 $326 #
straight-curve $-1 0 -32.817387289810959 -9.6032446677557424 -1 0 0 I I #
straight-curve $-1 0 -32.817387289810959 9.6032446677557424 1 0 0 I I #
point $-1 -53.458612897560805 -32.817387289810959 9.6032446677557424 #
point $-1 -53.458612897560805 -32.817387289810959 -9.6032446677557424 #
coedge $-1 $230 $318 $229 $289 reversed $270 $-1 #
edge $-1 $234 -57.161168248542744 $319 57.161168248542744 $288 $327 forward 7 unknown #
straight-curve $-1 -57.161168248542744 32.817387289810959 0 0 0 -1 I I #
point $-1 -57.161168248542744 32.817387289810959 9.6032446677557424 #
point $-1 -57.161168248542744 32.817387289810959 -9.6032446677557424 #
face $-1 $328 $329 $11 $-1 $330 reversed single #
loop $-1 $-1 $331 $236 #
plane-surface $-1 -55.309890573051774 -42.87848812229813 0 0 1 0 0 0 1 forward_v I I I I #
coedge $-1 $240 $239 $332 $333 reversed $98 $-1 #
coedge $-1 $334 $241 $240 $298 forward $237 $-1 #
edge $-1 $245 -2.24816425104268 $335 9.6032446677557424 $240 $309 forward 7 unknown #
point $-1 -57.161168248542744 24.01629358661247 2.24816425104268 #
straight-curve $-1 -57.161168248542744 14.208420219105857 2.24816425104268 0 1 0 I I #
point $-1 -57.161168248542744 32.817387289810959 2.24816425104268 #
coedge $-1 $336 $332 $248 $303 forward $337 $-1 #
edge $-1 $304 -32.817387289810959 $338 32.817387289810959 $248 $339 forward 7 unknown #
vertex $-1 $303 $340 #
coedge $-1 $252 $341 $342 $343 reversed $237 $-1 #
coedge $-1 $342 $259 $255 $307 forward $313 $-1 #
edge $-1 $261 -57.161168248542744 $308 57.161168248542744 $255 $344 forward 7 unknown #
vertex $-1 $307 $345 #
straight-curve $-1 -57.161168248542744 32.817387289810959 0 0 0 -1 I I #
coedge $-1 $346 $347 $258 $311 reversed $348 $-1 #
edge $-1 $314 -9.6032446677557424 $338 9.6032446677557424 $258 $349 forward 7 unknown #
coedge $-1 $259 $350 $346 $351 forward $313 $-1 #
loop $-1 $-1 $259 $352 #
vertex $-1 $260 $353 #
straight-curve $-1 57.161168248542744 0 9.6032446677557424 0 1 0 I I #
point $-1 57.161168248542744 32.817387289810959 9.6032446677557424 #
plane-surface $-1 57.161168248542744 0 0 -1 0 0 0 0 1 forward_v I I I I #
coedge $-1 $288 $274 $277 $322 forward $270 $-1 #
vertex $-1 $273 $354 #
straight-curve $-1 57.161168248542744 0 -9.6032446677557424 0 -1 0 I I #
straight-curve $-1 0 32.817387289810959 9.6032446677557424 -1 0 0 I I #
edge $-1 $280 -9.6032446677557424 $319 9.6032446677557424 $277 $355 forward 7 unknown #
point $-1 57.161168248542744 -32.817387289810959 9.6032446677557424 #
point $-1 57.161168248542744 32.817387289810959 9.6032446677557424 #
straight-curve $-1 57.161168248542744 -32.817387289810959 0 0 0 -1 I I #
point $-1 57.161168248542744 -32.817387289810959 -9.6032446677557424 #
straight-curve $-1 0 32.817387289810959 -9.6032446677557424 1 0 0 I I #
face $-1 $352 $348 $11 $-1 $356 reversed single #
loop $-1 $-1 $357 $293 #
plane-surface $-1 -53.458612897560805 -37.847937706054545 0 -1 0 0 0 0 1 forward_v I I I I #
coedge $-1 $358 $359 $341 $360 forward $294 $-1 #
coedge $-1 $302 $361 $296 $333 forward $337 $-1 #
edge $-1 $335 -57.161168248542744 $304 57.161168248542744 $296 $362 forward 7 unknown #
coedge $-1 $341 $297 $361 $363 reversed $237 $-1 #
vertex $-1 $333 $364 #
coedge $-1 $365 $302 $347 $366 forward $337 $-1 #
loop $-1 $-1 $302 $367 #
vertex $-1 $311 $368 #
straight-curve $-1 57.161168248542744 0 -9.6032446677557424 0 -1 0 I I #
point $-1 57.161168248542744 32.817387289810959 -9.6032446677557424 #
coedge $-1 $305 $334 $331 $360 reversed $237 $-1 #
coedge $-1 $369 $306 $305 $343 forward $313 $-1 #
edge $-1 $308 -32.817387289810959 $370 42.87848812229813 $305 $371 forward 7 unknown #
straight-curve $-1 0 32.817387289810959 9.6032446677557424 -1 0 0 I I #
point $-1 -57.161168248542744 32.817387289810959 9.6032446677557424 #
coedge $-1 $372 $310 $312 $351 reversed $348 $-1 #
coedge $-1 $310 $372 $336 $366 reversed $348 $-1 #
loop $-1 $-1 $372 $328 #
straight-curve $-1 57.161168248542744 -32.817387289810959 0 0 0 -1 I I #
coedge $-1 $312 $369 $373 $374 forward $313 $-1 #
edge $-1 $375 -53.458612897560805 $314 57.161168248542744 $346 $376 forward 7 unknown #
face $-1 $367 $313 $11 $-1 $377 forward single #
point $-1 57.161168248542744 -32.817387289810959 9.6032446677557424 #
point $-1 57.161168248542744 32.817387289810959 -9.6032446677557424 #
straight-curve $-1 57.161168248542744 32.817387289810959 0 0 0 -1 I I #
plane-surface $-1 0 -32.817387289810959 0 0 1 0 0 0 1 forward_v I I I I #
coedge $-1 $378 $373 $379 $380 forward $329 $-1 #
coedge $-1 $379 $331 $381 $382 reversed $294 $-1 #
coedge $-1 $331 $379 $369 $383 reversed $294 $-1 #
edge $-1 $370 -9.6032446677557424 $384 9.6032446677557424 $341 $385 forward 7 unknown #
coedge $-1 $332 $381 $334 $363 forward $337 $-1 #
straight-curve $-1 0 32.817387289810959 -9.6032446677557424 1 0 0 I I #
edge $-1 $384 -42.87848812229813 $335 32.817387289810959 $334 $386 forward 7 unknown #
point $-1 -57.161168248542744 32.817387289810959 -9.6032446677557424 #
coedge $-1 $381 $336 $378 $387 forward $337 $-1 #
edge $-1 $338 -57.161168248542744 $388 53.458612897560805 $347 $389 forward 7 unknown #
face $-1 $192 $337 $11 $-1 $390 reversed single #
point $-1 57.161168248542744 -32.817387289810959 -9.6032446677557424 #
coedge $-1 $350 $342 $359 $383 forward $313 $-1 #
vertex $-1 $343 $391 #
straight-curve $-1 -57.161168248542744 0 9.6032446677557424 0 -1 0 I I #
coedge $-1 $347 $346 $392 $393 forward $348 $-1 #
coedge $-1 $357 $392 $350 $374 reversed $329 $-1 #
edge $-1 $394 -5.0305504162435852 $375 5.0305504162435852 $373 $395 forward 7 unknown #
vertex $-1 $351 $396 #
straight-curve $-1 0 -32.817387289810959 9.6032446677557424 1 0 0 I I #
plane-surface $-1 0 0 9.6032446677557424 0 0 1 1 0 0 forward_v I I I I #
coedge $-1 $392 $357 $365 $387 reversed $329 $-1 #
coedge $-1 $359 $358 $357 $380 reversed $294 $-1 #
edge $-1 $394 -9.6032446677557424 $397 9.6032446677557424 $357 $398 forward 7 unknown #
coedge $-1 $361 $365 $358 $382 forward $337 $-1 #
edge $-1 $397 -1.8512776754909694 $384 1.8512776754909694 $358 $399 forward 7 unknown #
edge $-1 $370 -1.8512776754909694 $394 1.8512776754909694 $359 $400 forward 7 unknown #
vertex $-1 $363 $401 #
straight-curve $-1 -57.161168248542744 -42.87848812229813 0 0 0 -1 I I #
straight-curve $-1 -57.161168248542744 0 -9.6032446677557424 0 1 0 I I #
edge $-1 $388 -5.0305504162435852 $397 5.0305504162435852 $378 $402 forward 7 unknown #
vertex $-1 $387 $403 #
straight-curve $-1 0 -32.817387289810959 -9.6032446677557424 -1 0 0 I I #
plane-surface $-1 0 0 -9.6032446677557424 0 0 1 1 0 0 forward_v I I I I #
point $-1 -57.161168248542744 -42.87848812229813 9.6032446677557424 #
coedge $-1 $373 $378 $372 $393 reversed $329 $-1 #
edge $-1 $375 -9.6032446677557424 $388 9.6032446677557424 $372 $404 forward 7 unknown #
vertex $-1 $374 $405 #
straight-curve $-1 -53.458612897560805 -37.847937706054545 9.6032446677557424 0 1 0 I I #
point $-1 -53.458612897560805 -32.817387289810959 9.6032446677557424 #
vertex $-1 $380 $406 #
straight-curve $-1 -53.458612897560805 -42.87848812229813 0 0 0 -1 I I #
straight-curve $-1 -55.309890573051774 -42.87848812229813 -9.6032446677557424 -1 0 0 I I #
straight-curve $-1 -55.309890573051774 -42.87848812229813 9.6032446677557424 1 0 0 I I #
point $-1 -57.161168248542744 -42.87848812229813 -9.6032446677557424 #
straight-curve $-1 -53.458612897560805 -37.847937706054545 -9.6032446677557424 0 -1 0 I I #
point $-1 -53.458612897560805 -32.817387289810959 -9.6032446677557424 #
straight-curve $-1 -53.458612897560805 -32.817387289810959 0 0 0 -1 I I #
point $-1 -53.458612897560805 -42.87848812229813 9.6032446677557424 #
point $-1 -53.458612897560805 -42.87848812229813 -9.6032446677557424 #
End-of-ACIS-data 