500 0 9 0           
7 Unknown 11 ACIS 5.0 NT 24 Thu Mar 25 15:12:41 1999 
-1 9.9999999999999995e-007 1e-010 
body $-1 $9 $-1 $10 #
body $-1 $11 $-1 $12 #
body $-1 $13 $-1 $14 #
body $-1 $15 $-1 $16 #
body $-1 $17 $-1 $18 #
body $-1 $19 $-1 $20 #
body $-1 $21 $-1 $22 #
body $-1 $23 $-1 $24 #
body $-1 $25 $-1 $26 #
lump $-1 $-1 $27 $0 #
transform $-1 1 0 0 0 1 0 0 0 1 40.430921353801082 25.693445186997138 9.3976675076034422 1 rotate no_reflect no_shear #
lump $-1 $-1 $28 $1 #
transform $-1 1 0 0 0 1 0 0 0 1 40.430921353801082 25.693445186997138 9.3976675076034422 1 rotate no_reflect no_shear #
lump $-1 $-1 $29 $2 #
transform $-1 1 0 0 0 1 0 0 0 1 40.430921353801082 25.693445186997138 9.3976675076034422 1 rotate no_reflect no_shear #
lump $-1 $-1 $30 $3 #
transform $-1 1 0 0 0 1 0 0 0 1 40.430921353801082 25.693445186997138 9.3976675076034422 1 rotate no_reflect no_shear #
lump $-1 $-1 $31 $4 #
transform $-1 1 0 0 0 1 0 0 0 1 40.430921353801082 25.693445186997138 9.3976675076034422 1 rotate no_reflect no_shear #
lump $-1 $-1 $32 $5 #
transform $-1 1 0 0 0 1 0 0 0 1 40.430921353801082 25.693445186997138 9.3976675076034422 1 rotate no_reflect no_shear #
lump $-1 $-1 $33 $6 #
transform $-1 1 0 0 0 1 0 0 0 1 40.430921353801082 25.693445186997138 9.3976675076034422 1 rotate no_reflect no_shear #
lump $-1 $-1 $34 $7 #
transform $-1 1 0 0 0 1 0 0 0 1 40.430921353801082 25.693445186997138 9.3976675076034422 1 rotate no_reflect no_shear #
lump $-1 $-1 $35 $8 #
transform $-1 1 0 0 0 1 0 0 0 1 40.430921353801082 25.693445186997138 9.3976675076034422 1 rotate no_reflect no_shear #
shell $-1 $-1 $-1 $36 $-1 $9 #
shell $-1 $-1 $-1 $37 $-1 $11 #
shell $-1 $-1 $-1 $38 $-1 $13 #
shell $-1 $-1 $-1 $39 $-1 $15 #
shell $-1 $-1 $-1 $40 $-1 $17 #
shell $-1 $-1 $-1 $41 $-1 $19 #
shell $-1 $-1 $-1 $42 $-1 $21 #
shell $-1 $-1 $-1 $43 $-1 $23 #
shell $-1 $-1 $-1 $44 $-1 $25 #
face $-1 $45 $46 $27 $-1 $47 forward single #
face $-1 $48 $49 $28 $-1 $50 forward single #
face $-1 $51 $52 $29 $-1 $53 reversed single #
face $-1 $54 $55 $30 $-1 $56 forward single #
face $-1 $57 $58 $31 $-1 $59 forward single #
face $-1 $60 $61 $32 $-1 $62 forward single #
face $-1 $63 $64 $33 $-1 $65 reversed single #
face $-1 $66 $67 $34 $-1 $68 forward single #
face $-1 $69 $70 $35 $-1 $71 forward single #
face $-1 $72 $73 $27 $-1 $74 reversed single #
loop $-1 $-1 $75 $36 #
plane-surface $-1 0 0 9.3976675076034422 0 0 1 1 0 0 forward_v I I I I #
face $-1 $76 $77 $28 $-1 $78 reversed single #
loop $-1 $-1 $79 $37 #
plane-surface $-1 0 -21.435464628665326 1.7632111591664401 0 0 1 1 0 0 forward_v I I I I #
face $-1 $80 $81 $29 $-1 $82 reversed single #
loop $-1 $-1 $83 $38 #
plane-surface $-1 28.477474474989563 -0.49444477772894402 116.05153694901909 0 1 0 0.62932039886446345 0 0.77714595512881146 forward_v I I I I #
face $-1 $84 $85 $30 $-1 $86 forward single #
loop $-1 $87 $88 $39 #
cone-surface $-1 35.721524049016885 1.1644674988941759 5.4392862311470971 -0.62932039886446345 0 -0.77714595512881146 0.38857297756440573 0 -0.31466019943223172 1 I I 0 1 0.5 forward I I I I #
face $-1 $89 $90 $31 $-1 $91 forward single #
loop $-1 $92 $93 $40 #
cone-surface $-1 35.721524049016885 3.6528359138288558 5.4392862311470971 -0.62932039886446345 0 -0.77714595512881146 0.38857297756440573 0 -0.31466019943223172 1 I I 0 1 0.5 forward I I I I #
face $-1 $94 $95 $32 $-1 $96 forward single #
loop $-1 $97 $98 $41 #
cone-surface $-1 35.721524049016885 6.1412043287635356 5.4392862311470971 -0.62932039886446345 0 -0.77714595512881146 0.38857297756440573 0 -0.31466019943223172 1 I I 0 1 0.5 forward I I I I #
face $-1 $99 $100 $33 $-1 $101 reversed single #
loop $-1 $-1 $102 $42 #
plane-surface $-1 -109.74304943081803 -13.662077743788661 42.868979450742998 0 1 0 -0.85716730853699208 0 0.51503806187062418 forward_v I I I I #
face $-1 $103 $104 $34 $-1 $105 forward single #
loop $-1 $106 $107 $43 #
cone-surface $-1 -36.70849603284929 -10.508583398307765 4.5490366444618129 0.85716730853699208 0 -0.51503806187062418 0.51503806187062418 0 0.85716730853699208 1 I I 0 1 1 forward I I I I #
face $-1 $108 $109 $35 $-1 $110 forward single #
loop $-1 $111 $112 $44 #
cone-surface $-1 -36.70849603284929 -5.7783418800864226 4.5490366444618129 0.85716730853699208 0 -0.51503806187062418 0.51503806187062418 0 0.85716730853699208 1 I I 0 1 1 forward I I I I #
face $-1 $113 $114 $27 $-1 $115 reversed single #
loop $-1 $-1 $116 $45 #
plane-surface $-1 0 0 -9.3976675076034422 0 0 1 1 0 0 forward_v I I I I #
coedge $-1 $117 $118 $119 $120 forward $46 $-1 #
face $-1 $121 $122 $28 $-1 $123 reversed single #
loop $-1 $-1 $124 $48 #
plane-surface $-1 0 -21.435464628665326 -3.0090154324048566 0 0 1 1 0 0 forward_v I I I I #
coedge $-1 $125 $126 $127 $128 reversed $49 $-1 #
face $-1 $129 $130 $29 $-1 $131 reversed single #
loop $-1 $-1 $132 $51 #
plane-surface $-1 -22.410532630674133 3.6528359138288522 53.210082964543894 0.62932039886446345 0 0.77714595512881146 0.77714595512881146 0 -0.62932039886446345 forward_v I I I I #
coedge $-1 $133 $134 $135 $136 reversed $52 $-1 #
face $-1 $-1 $137 $30 $-1 $138 forward single #
loop $-1 $139 $140 $54 #
cone-surface $-1 35.223610558597827 1.1644674988941759 4.8244142902701643 -0.62932039886446345 0 -0.77714595512881146 0.19428648878220287 0 -0.15733009971611586 1 I I -0.70710678118654746 0.70710678118654746 0.25 forward I I I I #
loop $-1 $-1 $141 $39 #
coedge $-1 $88 $88 $142 $143 reversed $55 $-1 #
face $-1 $-1 $144 $31 $-1 $145 forward single #
loop $-1 $146 $147 $57 #
cone-surface $-1 35.223610558597827 3.6528359138288558 4.8244142902701643 -0.62932039886446345 0 -0.77714595512881146 0.19428648878220287 0 -0.15733009971611586 1 I I -0.70710678118654746 0.70710678118654746 0.25 forward I I I I #
loop $-1 $-1 $148 $40 #
coedge $-1 $93 $93 $149 $150 reversed $58 $-1 #
face $-1 $-1 $151 $32 $-1 $152 forward single #
loop $-1 $153 $154 $60 #
cone-surface $-1 35.223610558597827 6.1412043287635356 4.8244142902701643 -0.62932039886446345 0 -0.77714595512881146 0.19428648878220287 0 -0.15733009971611586 1 I I -0.70710678118654746 0.70710678118654746 0.25 forward I I I I #
loop $-1 $-1 $155 $41 #
coedge $-1 $98 $98 $156 $157 reversed $61 $-1 #
face $-1 $158 $159 $33 $-1 $160 reversed single #
loop $-1 $-1 $161 $63 #
plane-surface $-1 -40.430921353801082 -8.143462639197093 1.2220527033323165 -0.85716730853699208 0 0.51503806187062418 0.51503806187062418 0 0.85716730853699208 forward_v I I I I #
coedge $-1 $162 $163 $164 $165 reversed $64 $-1 #
face $-1 $-1 $166 $34 $-1 $167 forward single #
loop $-1 $168 $169 $66 #
cone-surface $-1 -35.013689459106182 -10.508583398307765 3.5306941525204376 0.85716730853699208 0 -0.51503806187062418 0.25751903093531209 0 0.42858365426849604 1 I I -0.70710678118654746 0.70710678118654746 0.5 forward I I I I #
loop $-1 $-1 $170 $43 #
coedge $-1 $107 $107 $171 $172 reversed $67 $-1 #
face $-1 $-1 $173 $35 $-1 $174 forward single #
loop $-1 $175 $176 $69 #
cone-surface $-1 -35.013689459106182 -5.7783418800864226 3.5306941525204376 0.85716730853699208 0 -0.51503806187062418 0.25751903093531209 0 0.42858365426849604 1 I I -0.70710678118654746 0.70710678118654746 0.5 forward I I I I #
loop $-1 $-1 $177 $44 #
coedge $-1 $112 $112 $178 $179 reversed $70 $-1 #
face $-1 $180 $181 $27 $-1 $182 reversed single #
loop $-1 $-1 $183 $72 #
plane-surface $-1 0 -25.693445186997138 0 0 1 0 0 0 1 forward_v I I I I #
coedge $-1 $184 $185 $186 $187 forward $73 $-1 #
coedge $-1 $188 $75 $189 $190 forward $46 $-1 #
coedge $-1 $75 $188 $191 $192 forward $46 $-1 #
coedge $-1 $193 $194 $75 $120 reversed $195 $-1 #
edge $-1 $196 -25.693445186997138 $197 25.693445186997138 $119 $198 forward 7 unknown #
face $-1 $199 $200 $28 $-1 $201 reversed single #
loop $-1 $-1 $202 $76 #
plane-surface $-1 0 -17.177484070333513 -0.62290213661920824 0 -1 0 0 0 -1 forward_v I I I I #
coedge $-1 $203 $204 $205 $206 reversed $77 $-1 #
coedge $-1 $207 $79 $208 $209 forward $49 $-1 #
coedge $-1 $79 $207 $210 $211 reversed $49 $-1 #
coedge $-1 $212 $213 $79 $128 forward $214 $-1 #
edge $-1 $215 6.4597517560008502 $216 14.975712872664475 $127 $217 forward 7 unknown #
face $-1 $218 $219 $29 $-1 $220 forward single #
loop $-1 $-1 $221 $80 #
plane-surface $-1 28.477474474989563 7.8001166053866484 116.05153694901909 0 -1 0 -0.62932039886446345 0 -0.77714595512881146 forward_v I I I I #
coedge $-1 $222 $223 $224 $225 reversed $81 $-1 #
coedge $-1 $134 $83 $226 $227 reversed $52 $-1 #
coedge $-1 $83 $133 $222 $228 reversed $52 $-1 #
coedge $-1 $224 $229 $83 $136 forward $230 $-1 #
edge $-1 $231 48.628100966906104 $232 55.703692615629365 $135 $233 forward 7 unknown #
loop $-1 $-1 $142 $84 #
plane-surface $-1 -22.410532630674133 3.6528359138288522 53.210082964543894 0.62932039886446345 0 0.77714595512881146 0.77714595512881146 0 -0.62932039886446345 forward_v I I I I #
loop $-1 $-1 $234 $54 #
coedge $-1 $140 $140 $141 $235 reversed $85 $-1 #
coedge $-1 $141 $141 $140 $235 forward $87 $-1 #
coedge $-1 $142 $142 $88 $143 forward $137 $-1 #
edge $-1 $236 0 $236 6.2831853071796004 $142 $237 forward 7 unknown #
loop $-1 $-1 $149 $89 #
plane-surface $-1 -22.410532630674133 3.6528359138288522 53.210082964543894 0.62932039886446345 0 0.77714595512881146 0.77714595512881146 0 -0.62932039886446345 forward_v I I I I #
loop $-1 $-1 $238 $57 #
coedge $-1 $147 $147 $148 $239 reversed $90 $-1 #
coedge $-1 $148 $148 $147 $239 forward $92 $-1 #
coedge $-1 $149 $149 $93 $150 forward $144 $-1 #
edge $-1 $240 0 $240 6.2831853071796004 $149 $241 forward 7 unknown #
loop $-1 $-1 $156 $94 #
plane-surface $-1 -22.410532630674133 3.6528359138288522 53.210082964543894 0.62932039886446345 0 0.77714595512881146 0.77714595512881146 0 -0.62932039886446345 forward_v I I I I #
loop $-1 $-1 $242 $60 #
coedge $-1 $154 $154 $155 $243 reversed $95 $-1 #
coedge $-1 $155 $155 $154 $243 forward $97 $-1 #
coedge $-1 $156 $156 $98 $157 forward $151 $-1 #
edge $-1 $244 0 $244 6.2831853071796004 $156 $245 forward 7 unknown #
face $-1 $246 $247 $33 $-1 $248 reversed single #
loop $-1 $-1 $249 $99 #
plane-surface $-1 -109.74304943081803 -2.6248475346055251 42.868979450742998 0 -1 0 0.85716730853699208 0 -0.51503806187062418 forward_v I I I I #
coedge $-1 $250 $251 $252 $253 reversed $100 $-1 #
coedge $-1 $163 $102 $254 $255 reversed $64 $-1 #
coedge $-1 $102 $162 $250 $256 reversed $64 $-1 #
coedge $-1 $252 $257 $102 $165 forward $258 $-1 #
edge $-1 $259 14.440603361607934 $260 19.353008164562297 $164 $261 forward 7 unknown #
loop $-1 $-1 $171 $103 #
plane-surface $-1 -40.430921353801082 -8.143462639197093 1.2220527033323165 -0.85716730853699208 0 0.51503806187062418 0.51503806187062418 0 0.85716730853699208 forward_v I I I I #
loop $-1 $-1 $262 $66 #
coedge $-1 $169 $169 $170 $263 reversed $104 $-1 #
coedge $-1 $170 $170 $169 $263 forward $106 $-1 #
coedge $-1 $171 $171 $107 $172 forward $166 $-1 #
edge $-1 $264 0 $264 6.2831853071796004 $171 $265 forward 7 unknown #
loop $-1 $-1 $178 $108 #
plane-surface $-1 -40.430921353801082 -8.143462639197093 1.2220527033323165 -0.85716730853699208 0 0.51503806187062418 0.51503806187062418 0 0.85716730853699208 forward_v I I I I #
loop $-1 $-1 $266 $69 #
coedge $-1 $176 $176 $177 $267 reversed $109 $-1 #
coedge $-1 $177 $177 $176 $267 forward $111 $-1 #
coedge $-1 $178 $178 $112 $179 forward $173 $-1 #
edge $-1 $268 0 $268 6.2831853071796004 $178 $269 forward 7 unknown #
face $-1 $270 $271 $27 $-1 $272 reversed single #
loop $-1 $-1 $273 $113 #
plane-surface $-1 -40.430921353801082 0 0 1 0 0 0 0 -1 forward_v I I I I #
coedge $-1 $274 $191 $275 $276 forward $114 $-1 #
coedge $-1 $277 $116 $274 $278 forward $73 $-1 #
coedge $-1 $116 $277 $279 $280 forward $73 $-1 #
coedge $-1 $194 $193 $116 $187 reversed $195 $-1 #
edge $-1 $281 -25.693445186997138 $282 25.693445186997138 $186 $283 forward 7 unknown #
coedge $-1 $118 $117 $284 $285 forward $46 $-1 #
coedge $-1 $286 $287 $117 $190 reversed $271 $-1 #
edge $-1 $197 -40.430921353801082 $288 40.430921353801082 $189 $289 forward 7 unknown #
coedge $-1 $183 $290 $118 $192 reversed $114 $-1 #
edge $-1 $291 -40.430921353801082 $196 40.430921353801082 $191 $292 forward 7 unknown #
coedge $-1 $186 $119 $290 $293 forward $195 $-1 #
coedge $-1 $119 $186 $286 $294 reversed $195 $-1 #
loop $-1 $-1 $193 $270 #
vertex $-1 $120 $295 #
vertex $-1 $120 $296 #
straight-curve $-1 40.430921353801082 0 9.3976675076034422 0 1 0 I I #
face $-1 $297 $298 $28 $-1 $299 reversed single #
loop $-1 $-1 $300 $121 #
plane-surface $-1 -40.430921353801082 0 0 1 0 0 0 0 -1 forward_v I I I I #
coedge $-1 $301 $208 $213 $302 reversed $122 $-1 #
coedge $-1 $303 $124 $304 $305 reversed $77 $-1 #
coedge $-1 $124 $303 $301 $306 forward $77 $-1 #
coedge $-1 $213 $212 $124 $206 forward $214 $-1 #
edge $-1 $307 -14.975712872664475 $308 -6.4597517560008502 $205 $309 forward 7 unknown #
coedge $-1 $126 $125 $300 $310 reversed $49 $-1 #
coedge $-1 $202 $311 $125 $209 reversed $122 $-1 #
edge $-1 $215 -40.430921353801082 $312 40.430921353801082 $208 $313 forward 7 unknown #
coedge $-1 $314 $315 $126 $211 forward $298 $-1 #
edge $-1 $216 -40.430921353801082 $316 40.430921353801082 $210 $317 forward 7 unknown #
coedge $-1 $205 $127 $315 $318 forward $214 $-1 #
coedge $-1 $127 $205 $202 $302 forward $214 $-1 #
loop $-1 $-1 $127 $297 #
vertex $-1 $128 $319 #
vertex $-1 $318 $320 #
straight-curve $-1 40.430921353801082 -10.717732314332663 1.7632111591664401 0 -1 0 I I #
face $-1 $-1 $230 $29 $-1 $321 reversed single #
loop $-1 $-1 $322 $129 #
plane-surface $-1 0 0 9.3976675076034422 0 0 1 1 0 0 forward_v I I I I #
coedge $-1 $323 $324 $325 $326 reversed $130 $-1 #
coedge $-1 $327 $132 $134 $228 forward $81 $-1 #
coedge $-1 $132 $327 $323 $328 forward $81 $-1 #
coedge $-1 $325 $135 $132 $225 forward $230 $-1 #
edge $-1 $232 -2.3208627346433701 $329 5.9736986484722223 $224 $330 forward 7 unknown #
coedge $-1 $331 $332 $133 $227 forward $219 $-1 #
edge $-1 $333 17.45455628814377 $231 26.192184116306301 $226 $334 forward 7 unknown #
edge $-1 $232 -80.861842707602193 $333 -69.618616424948144 $134 $335 forward 7 unknown #
coedge $-1 $135 $325 $331 $336 reversed $230 $-1 #
loop $-1 $-1 $325 $218 #
vertex $-1 $336 $337 #
vertex $-1 $136 $338 #
straight-curve $-1 40.430921353801082 -0.49444477772894402 58.025768474509547 0 0 -1 I I #
coedge $-1 $234 $234 $-1 $339 reversed $139 $-1 #
edge $-1 $340 0 $340 6.2831853071796004 $140 $341 forward 7 unknown #
vertex $-1 $143 $342 #
ellipse-curve $-1 36.06210743971981 1.1644674988941759 5.859871683241809 0.62932039886446345 0 0.77714595512881146 0.38857297756440573 0 -0.31466019943223172 1 I I #
coedge $-1 $238 $238 $-1 $343 reversed $146 $-1 #
edge $-1 $344 0 $344 6.2831853071796004 $147 $345 forward 7 unknown #
vertex $-1 $150 $346 #
ellipse-curve $-1 36.06210743971981 3.6528359138288558 5.859871683241809 0.62932039886446345 0 0.77714595512881146 0.38857297756440573 0 -0.31466019943223172 1 I I #
coedge $-1 $242 $242 $-1 $347 reversed $153 $-1 #
edge $-1 $348 0 $348 6.2831853071796004 $154 $349 forward 7 unknown #
vertex $-1 $157 $350 #
ellipse-curve $-1 36.06210743971981 6.1412043287635356 5.859871683241809 0.62932039886446345 0 0.77714595512881146 0.38857297756440573 0 -0.31466019943223172 1 I I #
face $-1 $-1 $258 $33 $-1 $351 forward single #
loop $-1 $-1 $352 $158 #
plane-surface $-1 -40.430921353801082 0 0 1 0 0 0 0 -1 forward_v I I I I #
coedge $-1 $353 $354 $355 $356 reversed $159 $-1 #
coedge $-1 $357 $161 $163 $256 forward $100 $-1 #
coedge $-1 $161 $357 $353 $358 forward $100 $-1 #
coedge $-1 $355 $164 $161 $253 forward $258 $-1 #
edge $-1 $260 -9.5903464241901144 $359 1.4468837849930214 $252 $360 forward 7 unknown #
coedge $-1 $361 $362 $162 $255 forward $247 $-1 #
edge $-1 $363 -20.212437022039182 $259 -12.036822217768057 $254 $364 forward 7 unknown #
edge $-1 $260 -9.5379451862498321 $363 0 $163 $365 forward 7 unknown #
coedge $-1 $164 $355 $361 $366 forward $258 $-1 #
loop $-1 $-1 $355 $246 #
vertex $-1 $255 $367 #
vertex $-1 $165 $368 #
straight-curve $-1 -54.871524715409016 -13.662077743788661 9.3976675076034439 1 0 0 I I #
coedge $-1 $262 $262 $-1 $369 reversed $168 $-1 #
edge $-1 $370 0 $370 6.2831853071796004 $169 $371 forward 7 unknown #
vertex $-1 $172 $372 #
ellipse-curve $-1 -37.974718952323904 -10.508583398307765 5.3098601054678776 -0.85716730853699208 0 0.51503806187062418 0.51503806187062418 0 0.85716730853699208 1 I I #
coedge $-1 $266 $266 $-1 $373 reversed $175 $-1 #
edge $-1 $374 0 $374 6.2831853071796004 $176 $375 forward 7 unknown #
vertex $-1 $179 $376 #
ellipse-curve $-1 -37.974718952323904 -5.7783418800864226 5.3098601054678776 -0.85716730853699208 0 0.51503806187062418 0.51503806187062418 0 0.85716730853699208 1 I I #
face $-1 $-1 $195 $27 $-1 $377 reversed single #
loop $-1 $-1 $286 $180 #
plane-surface $-1 0 25.693445186997138 0 0 -1 0 0 0 -1 forward_v I I I I #
coedge $-1 $378 $284 $287 $379 forward $181 $-1 #
coedge $-1 $290 $183 $184 $278 reversed $114 $-1 #
coedge $-1 $284 $378 $183 $276 reversed $181 $-1 #
edge $-1 $291 -9.3976675076034422 $380 9.3976675076034422 $275 $381 forward 7 unknown #
coedge $-1 $185 $184 $378 $382 forward $73 $-1 #
edge $-1 $282 -40.430921353801082 $380 40.430921353801082 $274 $383 forward 7 unknown #
coedge $-1 $287 $286 $185 $280 reversed $271 $-1 #
edge $-1 $384 -40.430921353801082 $281 40.430921353801082 $279 $385 forward 7 unknown #
vertex $-1 $187 $386 #
vertex $-1 $293 $387 #
straight-curve $-1 40.430921353801082 0 -9.3976675076034422 0 -1 0 I I #
coedge $-1 $273 $275 $188 $285 reversed $181 $-1 #
edge $-1 $288 -25.693445186997138 $291 25.693445186997138 $284 $388 forward 7 unknown #
coedge $-1 $279 $189 $194 $294 forward $271 $-1 #
coedge $-1 $189 $279 $273 $379 reversed $271 $-1 #
vertex $-1 $190 $389 #
straight-curve $-1 0 25.693445186997138 9.3976675076034422 -1 0 0 I I #
coedge $-1 $191 $274 $193 $293 reversed $114 $-1 #
vertex $-1 $285 $390 #
straight-curve $-1 0 -25.693445186997138 9.3976675076034422 1 0 0 I I #
edge $-1 $196 -9.3976675076034422 $282 9.3976675076034422 $193 $391 forward 7 unknown #
edge $-1 $197 -9.3976675076034422 $281 9.3976675076034422 $194 $392 forward 7 unknown #
point $-1 40.430921353801082 -25.693445186997138 9.3976675076034422 #
point $-1 40.430921353801082 25.693445186997138 9.3976675076034422 #
face $-1 $-1 $214 $28 $-1 $393 reversed single #
loop $-1 $-1 $210 $199 #
plane-surface $-1 0 -25.693445186997138 0 0 1 0 0 0 1 forward_v I I I I #
coedge $-1 $394 $395 $207 $310 forward $200 $-1 #
coedge $-1 $311 $202 $204 $306 reversed $122 $-1 #
edge $-1 $308 -2.6975643640952525 $215 2.0746622274760442 $213 $396 forward 7 unknown #
coedge $-1 $204 $203 $397 $398 reversed $77 $-1 #
coedge $-1 $315 $314 $203 $305 forward $298 $-1 #
edge $-1 $399 -40.430921353801082 $307 40.430921353801082 $304 $400 forward 7 unknown #
edge $-1 $401 -40.430921353801082 $308 40.430921353801082 $301 $402 forward 7 unknown #
vertex $-1 $305 $403 #
vertex $-1 $206 $404 #
straight-curve $-1 40.430921353801082 -10.717732314332663 -3.0090154324048566 0 1 0 I I #
edge $-1 $316 -14.975712872664475 $312 -6.4597517560008502 $300 $405 forward 7 unknown #
coedge $-1 $208 $301 $394 $406 reversed $122 $-1 #
vertex $-1 $310 $407 #
straight-curve $-1 0 -17.177484070333513 1.7632111591664401 -1 0 0 I I #
coedge $-1 $304 $210 $395 $408 forward $298 $-1 #
coedge $-1 $210 $304 $212 $318 reversed $298 $-1 #
vertex $-1 $408 $409 #
straight-curve $-1 0 -25.693445186997138 1.7632111591664401 -1 0 0 I I #
edge $-1 $216 -1.7632111591664401 $307 3.0090154324048566 $212 $410 forward 7 unknown #
point $-1 40.430921353801082 -17.177484070333513 1.7632111591664401 #
point $-1 40.430921353801082 -25.693445186997138 1.7632111591664401 #
plane-surface $-1 40.430921353801082 0 0 -1 0 0 0 0 1 forward_v I I I I #
coedge $-1 $332 $331 $324 $411 forward $219 $-1 #
coedge $-1 $324 $221 $223 $328 reversed $130 $-1 #
coedge $-1 $221 $323 $322 $411 reversed $130 $-1 #
coedge $-1 $229 $224 $221 $326 forward $230 $-1 #
edge $-1 $329 -55.703692615629365 $412 -48.628100966906104 $325 $413 forward 7 unknown #
coedge $-1 $223 $222 $332 $414 reversed $81 $-1 #
edge $-1 $415 69.618616424948144 $329 80.861842707602193 $323 $416 forward 7 unknown #
vertex $-1 $225 $417 #
straight-curve $-1 40.430921353801082 1.8264179569144261 2.3220758588801829 0 1 0 I I #
coedge $-1 $322 $226 $229 $336 forward $219 $-1 #
coedge $-1 $226 $322 $327 $414 forward $219 $-1 #
vertex $-1 $227 $418 #
straight-curve $-1 14.238737237494782 -0.49444477772894402 9.3976675076034439 1 0 0 I I #
straight-curve $-1 -22.410532630674133 -0.49444477772894402 53.210082964543894 -0.77714595512881146 0 0.62932039886446345 I I #
edge $-1 $231 -0.49444477772894402 $412 7.8001166053866484 $229 $419 forward 7 unknown #
point $-1 40.430921353801082 -0.49444477772894402 9.3976675076034422 #
point $-1 40.430921353801082 -0.49444477772894402 2.3220758588801829 #
edge $-1 $420 1 $420 0 $234 $-1 forward 7 unknown #
vertex $-1 $235 $421 #
ellipse-curve $-1 35.380940658313939 1.1644674988941759 5.0187007790523674 0.62932039886446345 0 0.77714595512881146 0.38857297756440573 0 -0.31466019943223172 1 I I #
point $-1 36.450680417284232 1.1644674988941759 5.5452114838095943 #
edge $-1 $422 1 $422 0 $238 $-1 forward 7 unknown #
vertex $-1 $239 $423 #
ellipse-curve $-1 35.380940658313939 3.6528359138288558 5.0187007790523674 0.62932039886446345 0 0.77714595512881146 0.38857297756440573 0 -0.31466019943223172 1 I I #
point $-1 36.450680417284232 3.6528359138288558 5.5452114838095943 #
edge $-1 $424 1 $424 0 $242 $-1 forward 7 unknown #
vertex $-1 $243 $425 #
ellipse-curve $-1 35.380940658313939 6.1412043287635356 5.0187007790523674 0.62932039886446345 0 0.77714595512881146 0.38857297756440573 0 -0.31466019943223172 1 I I #
point $-1 36.450680417284232 6.1412043287635356 5.5452114838095943 #
plane-surface $-1 0 0 9.3976675076034422 0 0 1 1 0 0 forward_v I I I I #
coedge $-1 $362 $361 $354 $426 forward $247 $-1 #
coedge $-1 $354 $249 $251 $358 reversed $159 $-1 #
coedge $-1 $249 $353 $352 $426 reversed $159 $-1 #
coedge $-1 $257 $252 $249 $356 forward $258 $-1 #
edge $-1 $359 -19.353008164562297 $427 -14.440603361607934 $355 $428 forward 7 unknown #
coedge $-1 $251 $250 $362 $429 reversed $100 $-1 #
edge $-1 $430 0 $359 9.5379451862498321 $353 $431 forward 7 unknown #
vertex $-1 $253 $432 #
straight-curve $-1 -35.518516550846719 -4.0717313195985465 9.3976675076034422 0 1 0 I I #
coedge $-1 $352 $254 $257 $366 reversed $247 $-1 #
coedge $-1 $254 $352 $357 $429 forward $247 $-1 #
vertex $-1 $255 $433 #
straight-curve $-1 -40.430921353801082 -13.662077743788661 21.434489725371499 0 0 1 I I #
straight-curve $-1 -40.430921353801082 -13.662077743788661 1.2220527033323165 -0.51503806187062418 0 -0.85716730853699208 I I #
edge $-1 $427 2.6248475346055251 $259 13.662077743788661 $361 $434 forward 7 unknown #
point $-1 -40.430921353801082 -13.662077743788661 9.3976675076034422 #
point $-1 -35.518516550846719 -13.662077743788661 9.3976675076034422 #
edge $-1 $435 1 $435 0 $262 $-1 forward 7 unknown #
vertex $-1 $263 $436 #
ellipse-curve $-1 -35.442273113374675 -10.508583398307765 3.7882131834557495 -0.85716730853699208 0 0.51503806187062418 0.51503806187062418 0 0.85716730853699208 1 I I #
point $-1 -37.459680890453271 -10.508583398307765 6.1670274140048686 #
edge $-1 $437 1 $437 0 $266 $-1 forward 7 unknown #
vertex $-1 $267 $438 #
ellipse-curve $-1 -35.442273113374675 -5.7783418800864226 3.7882131834557495 -0.85716730853699208 0 0.51503806187062418 0.51503806187062418 0 0.85716730853699208 1 I I #
point $-1 -37.459680890453271 -5.7783418800864226 6.1670274140048686 #
plane-surface $-1 40.430921353801082 0 0 -1 0 0 0 0 1 forward_v I I I I #
coedge $-1 $275 $273 $277 $382 reversed $181 $-1 #
edge $-1 $288 -9.3976675076034422 $384 9.3976675076034422 $287 $439 forward 7 unknown #
vertex $-1 $382 $440 #
straight-curve $-1 -40.430921353801082 -25.693445186997138 0 0 0 -1 I I #
edge $-1 $380 -25.693445186997138 $384 25.693445186997138 $378 $441 forward 7 unknown #
straight-curve $-1 0 -25.693445186997138 -9.3976675076034422 -1 0 0 I I #
vertex $-1 $280 $442 #
straight-curve $-1 0 25.693445186997138 -9.3976675076034422 1 0 0 I I #
point $-1 40.430921353801082 25.693445186997138 -9.3976675076034422 #
point $-1 40.430921353801082 -25.693445186997138 -9.3976675076034422 #
straight-curve $-1 -40.430921353801082 0 9.3976675076034422 0 -1 0 I I #
point $-1 -40.430921353801082 25.693445186997138 9.3976675076034422 #
point $-1 -40.430921353801082 -25.693445186997138 9.3976675076034422 #
straight-curve $-1 40.430921353801082 -25.693445186997138 0 0 0 -1 I I #
straight-curve $-1 40.430921353801082 25.693445186997138 0 0 0 -1 I I #
plane-surface $-1 40.430921353801082 0 0 -1 0 0 0 0 1 forward_v I I I I #
coedge $-1 $397 $300 $311 $406 forward $200 $-1 #
coedge $-1 $300 $397 $314 $408 reversed $200 $-1 #
straight-curve $-1 40.430921353801082 -17.177484070333513 -0.31145106830960412 0 0 1 I I #
coedge $-1 $395 $394 $303 $398 forward $200 $-1 #
edge $-1 $401 6.4597517560008502 $399 14.975712872664475 $397 $443 forward 7 unknown #
vertex $-1 $305 $444 #
straight-curve $-1 0 -25.693445186997138 -3.0090154324048566 1 0 0 I I #
vertex $-1 $398 $445 #
straight-curve $-1 0 -17.177484070333513 -3.0090154324048566 1 0 0 I I #
point $-1 40.430921353801082 -25.693445186997138 -3.0090154324048566 #
point $-1 40.430921353801082 -17.177484070333513 -3.0090154324048566 #
straight-curve $-1 -40.430921353801082 -10.717732314332663 1.7632111591664401 0 1 0 I I #
edge $-1 $312 -2.0746622274760442 $401 2.6975643640952525 $394 $446 forward 7 unknown #
point $-1 -40.430921353801082 -17.177484070333513 1.7632111591664401 #
edge $-1 $316 -1.7632111591664401 $399 3.0090154324048566 $395 $447 forward 7 unknown #
point $-1 -40.430921353801082 -25.693445186997138 1.7632111591664401 #
straight-curve $-1 40.430921353801082 -25.693445186997138 0 0 0 -1 I I #
edge $-1 $412 -26.192184116306301 $415 -17.45455628814377 $322 $448 forward 7 unknown #
vertex $-1 $411 $449 #
straight-curve $-1 40.430921353801082 7.8001166053866484 58.025768474509547 0 0 1 I I #
edge $-1 $415 -5.9736986484722223 $333 2.3208627346433701 $332 $450 forward 7 unknown #
vertex $-1 $414 $451 #
straight-curve $-1 -22.410532630674133 7.8001166053866484 53.210082964543894 0.77714595512881146 0 -0.62932039886446345 I I #
point $-1 40.430921353801082 7.8001166053866484 2.3220758588801829 #
point $-1 31.693293525638552 -0.49444477772894402 9.3976675076034439 #
straight-curve $-1 40.430921353801082 0 9.3976675076034422 0 1 0 I I #
vertex $-1 $339 $452 #
point $-1 35.769513635878347 1.1644674988941759 4.7040405796201359 #
vertex $-1 $343 $453 #
point $-1 35.769513635878347 3.6528359138288558 4.7040405796201359 #
vertex $-1 $347 $454 #
point $-1 35.769513635878347 6.1412043287635356 4.7040405796201359 #
edge $-1 $427 12.036822217768057 $430 20.212437022039182 $352 $455 forward 7 unknown #
vertex $-1 $366 $456 #
straight-curve $-1 -54.871524715409016 -2.6248475346055251 9.3976675076034439 -1 0 0 I I #
edge $-1 $430 -1.4468837849930214 $363 9.5903464241901144 $362 $457 forward 7 unknown #
vertex $-1 $429 $458 #
straight-curve $-1 -40.430921353801082 -2.6248475346055251 1.2220527033323165 0.51503806187062418 0 0.85716730853699208 I I #
point $-1 -35.518516550846719 -2.6248475346055251 9.3976675076034422 #
point $-1 -40.430921353801082 -13.662077743788661 1.2220527033323165 #
straight-curve $-1 -40.430921353801082 0 9.3976675076034422 0 -1 0 I I #
vertex $-1 $369 $459 #
point $-1 -34.927235051504056 -10.508583398307765 4.6453804919927419 #
vertex $-1 $373 $460 #
point $-1 -34.927235051504056 -5.7783418800864226 4.6453804919927419 #
straight-curve $-1 -40.430921353801082 25.693445186997138 0 0 0 -1 I I #
point $-1 -40.430921353801082 -25.693445186997138 -9.3976675076034422 #
straight-curve $-1 -40.430921353801082 0 -9.3976675076034422 0 1 0 I I #
point $-1 -40.430921353801082 25.693445186997138 -9.3976675076034422 #
straight-curve $-1 -40.430921353801082 -10.717732314332663 -3.0090154324048566 0 -1 0 I I #
point $-1 -40.430921353801082 -25.693445186997138 -3.0090154324048566 #
point $-1 -40.430921353801082 -17.177484070333513 -3.0090154324048566 #
straight-curve $-1 -40.430921353801082 -17.177484070333513 -0.31145106830960412 0 0 -1 I I #
straight-curve $-1 -40.430921353801082 -25.693445186997138 0 0 0 -1 I I #
straight-curve $-1 14.238737237494782 7.8001166053866484 9.3976675076034439 -1 0 0 I I #
point $-1 40.430921353801082 7.8001166053866484 9.3976675076034422 #
straight-curve $-1 31.693293525638556 1.8264179569144261 9.3976675076034404 0 -1 0 I I #
point $-1 31.693293525638552 7.8001166053866484 9.3976675076034439 #
point $-1 35.066280458881714 1.1644674988941759 4.6301278014879612 #
point $-1 35.066280458881714 3.6528359138288558 4.6301278014879612 #
point $-1 35.066280458881714 6.1412043287635356 4.6301278014879612 #
straight-curve $-1 -40.430921353801082 -2.6248475346055251 21.434489725371499 0 0 -1 I I #
point $-1 -40.430921353801082 -2.6248475346055251 9.3976675076034422 #
straight-curve $-1 -40.430921353801082 -4.0717313195985465 1.2220527033323119 0 -1 0 I I #
point $-1 -40.430921353801082 -2.6248475346055251 1.2220527033323165 #
point $-1 -34.585105804837688 -10.508583398307765 3.2731751215851257 #
point $-1 -34.585105804837688 -5.7783418800864226 3.2731751215851257 #
End-of-ACIS-data 