500 0 8 0           
7 Unknown 11 ACIS 5.0 NT 24 Thu Mar 25 18:33:20 1999 
-1 9.9999999999999995e-007 1e-010 
body $-1 $8 $-1 $9 #
body $-1 $10 $-1 $11 #
body $-1 $12 $-1 $13 #
body $-1 $14 $-1 $15 #
body $-1 $16 $-1 $17 #
body $-1 $18 $-1 $19 #
body $-1 $20 $-1 $21 #
body $-1 $22 $-1 $23 #
lump $-1 $-1 $24 $0 #
transform $-1 1 0 0 0 1 0 0 0 1 71.678212836085095 35.423479096687032 8.9414366057554489 1 rotate no_reflect no_shear #
lump $-1 $-1 $25 $1 #
transform $-1 1 0 0 0 1 0 0 0 1 71.678212836085095 35.423479096687032 8.9414366057554489 1 rotate no_reflect no_shear #
lump $-1 $-1 $26 $2 #
transform $-1 1 0 0 0 1 0 0 0 1 71.678212836085095 35.423479096687032 8.9414366057554489 1 rotate no_reflect no_shear #
lump $-1 $-1 $27 $3 #
transform $-1 1 0 0 0 1 0 0 0 1 71.678212836085095 35.423479096687032 8.9414366057554489 1 rotate no_reflect no_shear #
lump $-1 $-1 $28 $4 #
transform $-1 1 0 0 0 1 0 0 0 1 71.678212836085095 35.423479096687032 8.9414366057554489 1 rotate no_reflect no_shear #
lump $-1 $-1 $29 $5 #
transform $-1 1 0 0 0 1 0 0 0 1 71.678212836085095 35.423479096687032 8.9414366057554489 1 rotate no_reflect no_shear #
lump $-1 $-1 $30 $6 #
transform $-1 1 0 0 0 1 0 0 0 1 71.678212836085095 35.423479096687032 8.9414366057554489 1 rotate no_reflect no_shear #
lump $-1 $-1 $31 $7 #
transform $-1 1 0 0 0 1 0 0 0 1 71.678212836085095 35.423479096687032 8.9414366057554489 1 rotate no_reflect no_shear #
shell $-1 $-1 $-1 $32 $-1 $8 #
shell $-1 $-1 $-1 $33 $-1 $10 #
shell $-1 $-1 $-1 $34 $-1 $12 #
shell $-1 $-1 $-1 $35 $-1 $14 #
shell $-1 $-1 $-1 $36 $-1 $16 #
shell $-1 $-1 $-1 $37 $-1 $18 #
shell $-1 $-1 $-1 $38 $-1 $20 #
shell $-1 $-1 $-1 $39 $-1 $22 #
face $-1 $40 $41 $24 $-1 $42 forward single #
face $-1 $43 $44 $25 $-1 $45 reversed single #
face $-1 $46 $47 $26 $-1 $48 reversed single #
face $-1 $49 $50 $27 $-1 $51 forward single #
face $-1 $52 $53 $28 $-1 $54 forward single #
face $-1 $55 $56 $29 $-1 $57 reversed single #
face $-1 $58 $59 $30 $-1 $60 forward single #
face $-1 $61 $62 $31 $-1 $63 forward single #
face $-1 $64 $65 $24 $-1 $66 reversed single #
loop $-1 $-1 $67 $32 #
plane-surface $-1 0 0 8.9414366057554489 0 0 1 1 0 0 forward_v I I I I #
face $-1 $68 $69 $25 $-1 $70 reversed single #
loop $-1 $-1 $71 $33 #
plane-surface $-1 -66.299245740695682 0 5.9414366057554489 0 0 1 1 0 0 forward_v I I I I #
face $-1 $72 $73 $26 $-1 $74 reversed single #
loop $-1 $-1 $75 $34 #
plane-surface $-1 -30.726573866409659 -152.85418941404464 87.192143366405048 -1 0 0 0 -0.81915205242281985 0.57357642473473569 forward_v I I I I #
face $-1 $76 $77 $27 $-1 $78 forward single #
loop $-1 $79 $80 $35 #
cone-surface $-1 -52.293505851335809 -32.800207871767547 6.0915142682574759 0 0.81915205242281985 -0.57357642473473569 1 0 0 1 I I 0 1 1 forward I I I I #
face $-1 $81 $82 $28 $-1 $83 forward single #
loop $-1 $84 $85 $36 #
cone-surface $-1 -39.353346660380119 -32.800207871767547 6.0915142682574759 0 0.81915205242281985 -0.57357642473473569 1 0 0 1 I I 0 1 1 forward I I I I #
face $-1 $86 $87 $29 $-1 $88 reversed single #
loop $-1 $-1 $89 $37 #
plane-surface $-1 -45.823426255857967 -5.2126658871997904 63.000708478626862 0 0.81915205242281985 0.57357642473473569 1 0 0 forward_v I I I I #
face $-1 $90 $91 $30 $-1 $92 forward single #
loop $-1 $93 $94 $38 #
cone-surface $-1 -52.293505851335809 32.80020787176754 6.091514268257483 0 -0.81915205242281985 -0.57357642473473569 1 0 0 1 I I 0 1 1 forward I I I I #
face $-1 $95 $96 $31 $-1 $97 forward single #
loop $-1 $98 $99 $39 #
cone-surface $-1 -39.353346660380119 32.80020787176754 6.091514268257483 0 -0.81915205242281985 -0.57357642473473569 1 0 0 1 I I 0 1 1 forward I I I I #
face $-1 $100 $101 $24 $-1 $102 reversed single #
loop $-1 $-1 $103 $40 #
plane-surface $-1 0 0 -8.9414366057554489 0 0 1 1 0 0 forward_v I I I I #
coedge $-1 $104 $105 $106 $107 forward $41 $-1 #
face $-1 $108 $109 $25 $-1 $110 reversed single #
loop $-1 $-1 $111 $43 #
plane-surface $-1 -60.920278645306269 0 7.4414366057554489 -1 0 0 0 0 1 forward_v I I I I #
coedge $-1 $112 $113 $114 $115 forward $44 $-1 #
face $-1 $116 $117 $26 $-1 $118 forward single #
loop $-1 $-1 $119 $46 #
plane-surface $-1 -45.823426255857967 -35.423479096687004 4.9662772666107884 0 -0.81915205242281985 0.57357642473473569 1 0 0 forward_v I I I I #
coedge $-1 $120 $121 $122 $123 reversed $47 $-1 #
face $-1 $-1 $124 $27 $-1 $125 forward single #
loop $-1 $126 $127 $49 #
cone-surface $-1 -52.293505851335809 -31.159078846058726 4.9423833879644619 0 0.81915205242281985 -0.57357642473473569 0.5 0 0 1 I I -0.70710678118654746 0.70710678118654746 0.5 forward I I I I #
loop $-1 $-1 $128 $35 #
coedge $-1 $80 $80 $129 $130 reversed $50 $-1 #
face $-1 $-1 $131 $28 $-1 $132 forward single #
loop $-1 $133 $134 $52 #
cone-surface $-1 -39.353346660380119 -31.159078846058726 4.9423833879644619 0 0.81915205242281985 -0.57357642473473569 0.5 0 0 1 I I -0.70710678118654746 0.70710678118654746 0.5 forward I I I I #
loop $-1 $-1 $135 $36 #
coedge $-1 $85 $85 $136 $137 reversed $53 $-1 #
face $-1 $138 $139 $29 $-1 $140 forward single #
loop $-1 $-1 $141 $55 #
plane-surface $-1 -30.726573866409659 112.21804443015785 145.22657457842112 -1 0 0 0 0.81915205242281985 0.57357642473473569 forward_v I I I I #
coedge $-1 $142 $143 $144 $145 reversed $56 $-1 #
face $-1 $-1 $146 $30 $-1 $147 forward single #
loop $-1 $148 $149 $58 #
cone-surface $-1 -52.293505851335809 31.159078846058719 4.942383387964469 0 -0.81915205242281985 -0.57357642473473569 0.5 0 0 1 I I -0.70710678118654746 0.70710678118654746 0.5 forward I I I I #
loop $-1 $-1 $150 $38 #
coedge $-1 $94 $94 $151 $152 reversed $59 $-1 #
face $-1 $-1 $153 $31 $-1 $154 forward single #
loop $-1 $155 $156 $61 #
cone-surface $-1 -39.353346660380119 31.159078846058719 4.942383387964469 0 -0.81915205242281985 -0.57357642473473569 0.5 0 0 1 I I -0.70710678118654746 0.70710678118654746 0.5 forward I I I I #
loop $-1 $-1 $157 $39 #
coedge $-1 $99 $99 $158 $159 reversed $62 $-1 #
face $-1 $160 $161 $24 $-1 $162 reversed single #
loop $-1 $-1 $163 $64 #
plane-surface $-1 0 -35.423479096687032 0 0 1 0 0 0 1 forward_v I I I I #
coedge $-1 $164 $165 $166 $167 forward $65 $-1 #
coedge $-1 $168 $67 $169 $170 forward $41 $-1 #
coedge $-1 $67 $168 $171 $172 forward $41 $-1 #
coedge $-1 $173 $174 $67 $107 reversed $175 $-1 #
edge $-1 $176 -35.423479096687032 $177 35.423479096687032 $106 $178 forward 7 unknown #
face $-1 $179 $180 $25 $-1 $181 reversed single #
loop $-1 $-1 $182 $68 #
plane-surface $-1 0 35.423479096687032 0 0 -1 0 0 0 -1 forward_v I I I I #
coedge $-1 $183 $184 $185 $186 reversed $69 $-1 #
coedge $-1 $187 $71 $188 $189 reversed $44 $-1 #
coedge $-1 $71 $187 $190 $191 reversed $44 $-1 #
coedge $-1 $184 $183 $71 $115 reversed $69 $-1 #
edge $-1 $192 -35.423479096687032 $193 35.423479096687032 $114 $194 forward 7 unknown #
face $-1 $195 $196 $26 $-1 $197 forward single #
loop $-1 $-1 $198 $72 #
plane-surface $-1 -60.920278645306269 0 7.4414366057554489 -1 0 0 0 0 1 forward_v I I I I #
coedge $-1 $199 $200 $201 $202 reversed $73 $-1 #
coedge $-1 $121 $75 $203 $204 reversed $47 $-1 #
coedge $-1 $75 $120 $199 $205 reversed $47 $-1 #
coedge $-1 $201 $206 $75 $123 forward $196 $-1 #
edge $-1 $207 41.003615610335288 $208 43.78705206117948 $122 $209 forward 7 unknown #
loop $-1 $-1 $129 $76 #
plane-surface $-1 -45.823426255857967 -35.423479096687004 4.9662772666107884 0 -0.81915205242281985 0.57357642473473569 1 0 0 forward_v I I I I #
loop $-1 $-1 $210 $49 #
coedge $-1 $127 $127 $128 $211 reversed $77 $-1 #
coedge $-1 $128 $128 $127 $211 forward $79 $-1 #
coedge $-1 $129 $129 $80 $130 forward $124 $-1 #
edge $-1 $212 2.3245466483447964e-015 $212 6.2831853071796031 $129 $213 forward 7 unknown #
loop $-1 $-1 $136 $81 #
plane-surface $-1 -45.823426255857967 -35.423479096687004 4.9662772666107884 0 -0.81915205242281985 0.57357642473473569 1 0 0 forward_v I I I I #
loop $-1 $-1 $214 $52 #
coedge $-1 $134 $134 $135 $215 reversed $82 $-1 #
coedge $-1 $135 $135 $134 $215 forward $84 $-1 #
coedge $-1 $136 $136 $85 $137 forward $131 $-1 #
edge $-1 $216 2.3245466483447964e-015 $216 6.2831853071796031 $136 $217 forward 7 unknown #
face $-1 $218 $219 $29 $-1 $220 reversed single #
loop $-1 $-1 $144 $86 #
plane-surface $-1 0 0 8.9414366057554489 0 0 1 1 0 0 forward_v I I I I #
coedge $-1 $221 $222 $223 $224 reversed $87 $-1 #
coedge $-1 $225 $89 $226 $227 reversed $56 $-1 #
coedge $-1 $89 $225 $221 $228 forward $56 $-1 #
coedge $-1 $223 $229 $89 $145 forward $139 $-1 #
edge $-1 $230 -38.008565517377292 $231 -7.8148607384806752 $144 $232 forward 7 unknown #
loop $-1 $-1 $151 $90 #
plane-surface $-1 -45.823426255857967 -5.2126658871997904 63.000708478626862 0 0.81915205242281985 0.57357642473473569 1 0 0 forward_v I I I I #
loop $-1 $-1 $233 $58 #
coedge $-1 $149 $149 $150 $234 reversed $91 $-1 #
coedge $-1 $150 $150 $149 $234 forward $93 $-1 #
coedge $-1 $151 $151 $94 $152 forward $146 $-1 #
edge $-1 $235 -4.0694664316797508e-015 $235 6.283185307179596 $151 $236 forward 7 unknown #
loop $-1 $-1 $158 $95 #
plane-surface $-1 -45.823426255857967 -5.2126658871997904 63.000708478626862 0 0.81915205242281985 0.57357642473473569 1 0 0 forward_v I I I I #
loop $-1 $-1 $237 $61 #
coedge $-1 $156 $156 $157 $238 reversed $96 $-1 #
coedge $-1 $157 $157 $156 $238 forward $98 $-1 #
coedge $-1 $158 $158 $99 $159 forward $153 $-1 #
edge $-1 $239 -4.0694664316797508e-015 $239 6.283185307179596 $158 $240 forward 7 unknown #
face $-1 $241 $242 $24 $-1 $243 reversed single #
loop $-1 $-1 $244 $100 #
plane-surface $-1 -71.678212836085095 0 0 1 0 0 0 0 -1 forward_v I I I I #
coedge $-1 $245 $171 $246 $247 forward $101 $-1 #
coedge $-1 $248 $103 $245 $249 forward $65 $-1 #
coedge $-1 $103 $248 $250 $251 forward $65 $-1 #
coedge $-1 $174 $173 $103 $167 reversed $175 $-1 #
edge $-1 $252 -35.423479096687032 $253 35.423479096687032 $166 $254 forward 7 unknown #
coedge $-1 $105 $104 $255 $256 forward $41 $-1 #
coedge $-1 $257 $258 $104 $170 reversed $242 $-1 #
edge $-1 $177 -71.678212836085095 $259 71.678212836085095 $169 $260 forward 7 unknown #
coedge $-1 $163 $261 $105 $172 reversed $101 $-1 #
edge $-1 $262 -71.678212836085095 $176 71.678212836085095 $171 $263 forward 7 unknown #
coedge $-1 $166 $106 $261 $264 forward $175 $-1 #
coedge $-1 $106 $166 $257 $265 reversed $175 $-1 #
loop $-1 $-1 $173 $241 #
vertex $-1 $107 $266 #
vertex $-1 $107 $267 #
straight-curve $-1 71.678212836085095 0 8.9414366057554489 0 1 0 I I #
face $-1 $268 $269 $25 $-1 $270 forward single #
loop $-1 $-1 $271 $108 #
plane-surface $-1 -71.678212836085095 0 0 1 0 0 0 0 -1 forward_v I I I I #
coedge $-1 $190 $272 $184 $273 forward $109 $-1 #
coedge $-1 $114 $111 $274 $275 reversed $69 $-1 #
coedge $-1 $111 $114 $182 $273 reversed $69 $-1 #
coedge $-1 $276 $277 $111 $186 forward $269 $-1 #
edge $-1 $278 -35.423479096687032 $279 35.423479096687032 $185 $280 forward 7 unknown #
coedge $-1 $113 $112 $271 $281 reversed $44 $-1 #
coedge $-1 $274 $282 $112 $189 forward $283 $-1 #
edge $-1 $284 -38.528589965737254 $193 -27.770655774958428 $188 $285 forward 7 unknown #
coedge $-1 $286 $182 $113 $191 forward $109 $-1 #
edge $-1 $192 27.770655774958428 $287 38.528589965737254 $190 $288 forward 7 unknown #
vertex $-1 $191 $289 #
vertex $-1 $189 $290 #
straight-curve $-1 -60.920278645306269 0 5.9414366057554489 0 -1 0 I I #
face $-1 $-1 $291 $26 $-1 $292 reversed single #
loop $-1 $-1 $201 $116 #
plane-surface $-1 0 0 8.9414366057554489 0 0 1 1 0 0 forward_v I I I I #
coedge $-1 $293 $294 $200 $295 reversed $117 $-1 #
coedge $-1 $296 $119 $121 $205 forward $73 $-1 #
coedge $-1 $119 $296 $198 $295 forward $73 $-1 #
coedge $-1 $297 $122 $119 $202 forward $196 $-1 #
edge $-1 $208 7.8148607384806752 $298 38.008565517377285 $201 $299 forward 7 unknown #
coedge $-1 $300 $301 $120 $204 forward $291 $-1 #
edge $-1 $302 -38.629794416591778 $207 -34.654635077447075 $203 $303 forward 7 unknown #
edge $-1 $208 -4.8527734593196268 $302 4.9769468549031306e-014 $121 $304 forward 7 unknown #
coedge $-1 $122 $297 $300 $305 forward $196 $-1 #
vertex $-1 $204 $306 #
vertex $-1 $123 $307 #
straight-curve $-1 -30.726573866409659 -76.42709470702232 8.9414366057554489 0 1 0 I I #
coedge $-1 $210 $210 $-1 $308 reversed $126 $-1 #
edge $-1 $309 0 $309 6.2831853071796004 $127 $310 forward 7 unknown #
vertex $-1 $130 $311 #
ellipse-curve $-1 -52.293505851335809 -34.031760871264929 6.9538569361831044 0 -0.81915205242281985 0.57357642473473569 1 0 0 1 I I #
coedge $-1 $214 $214 $-1 $312 reversed $133 $-1 #
edge $-1 $313 0 $313 6.2831853071796004 $134 $314 forward 7 unknown #
vertex $-1 $137 $315 #
ellipse-curve $-1 -39.353346660380119 -34.031760871264929 6.9538569361831044 0 -0.81915205242281985 0.57357642473473569 1 0 0 1 I I #
face $-1 $-1 $316 $29 $-1 $317 forward single #
loop $-1 $-1 $318 $138 #
plane-surface $-1 0 35.423479096687032 0 0 -1 0 0 0 -1 forward_v I I I I #
coedge $-1 $222 $141 $143 $228 reversed $87 $-1 #
coedge $-1 $141 $221 $318 $319 reversed $87 $-1 #
coedge $-1 $320 $144 $141 $224 forward $139 $-1 #
edge $-1 $231 -23.468979569236097 $321 -20.685543118391891 $223 $322 forward 7 unknown #
coedge $-1 $143 $142 $323 $324 reversed $56 $-1 #
coedge $-1 $325 $326 $142 $227 forward $316 $-1 #
edge $-1 $327 -46.596281269025717 $230 -41.743507809706017 $226 $328 forward 7 unknown #
edge $-1 $329 -70.846958193374149 $231 -65.994184734054443 $221 $330 forward 7 unknown #
coedge $-1 $144 $320 $325 $331 forward $139 $-1 #
vertex $-1 $227 $332 #
vertex $-1 $145 $333 #
straight-curve $-1 -22.911713127928984 32.640042645842833 8.9414366057554489 1 0 0 I I #
coedge $-1 $233 $233 $-1 $334 reversed $148 $-1 #
edge $-1 $335 0 $335 6.2831853071796004 $149 $336 forward 7 unknown #
vertex $-1 $152 $337 #
ellipse-curve $-1 -52.293505851335809 34.031760871264915 6.9538569361831044 0 0.81915205242281985 0.57357642473473569 1 0 0 1 I I #
coedge $-1 $237 $237 $-1 $338 reversed $155 $-1 #
edge $-1 $339 0 $339 6.2831853071796004 $156 $340 forward 7 unknown #
vertex $-1 $159 $341 #
ellipse-curve $-1 -39.353346660380119 34.031760871264915 6.9538569361831044 0 0.81915205242281985 0.57357642473473569 1 0 0 1 I I #
face $-1 $-1 $175 $24 $-1 $342 reversed single #
loop $-1 $-1 $257 $160 #
plane-surface $-1 0 35.423479096687032 0 0 -1 0 0 0 -1 forward_v I I I I #
coedge $-1 $343 $255 $258 $344 forward $161 $-1 #
coedge $-1 $261 $163 $164 $249 reversed $101 $-1 #
coedge $-1 $255 $343 $163 $247 reversed $161 $-1 #
edge $-1 $262 -8.9414366057554489 $345 8.9414366057554489 $246 $346 forward 7 unknown #
coedge $-1 $165 $164 $343 $347 forward $65 $-1 #
edge $-1 $253 -71.678212836085095 $345 71.678212836085095 $245 $348 forward 7 unknown #
coedge $-1 $258 $257 $165 $251 reversed $242 $-1 #
edge $-1 $349 -71.678212836085095 $252 71.678212836085095 $250 $350 forward 7 unknown #
vertex $-1 $167 $351 #
vertex $-1 $264 $352 #
straight-curve $-1 71.678212836085095 0 -8.9414366057554489 0 -1 0 I I #
coedge $-1 $244 $246 $168 $256 reversed $161 $-1 #
edge $-1 $259 -35.423479096687032 $262 35.423479096687032 $255 $353 forward 7 unknown #
coedge $-1 $250 $169 $174 $265 forward $242 $-1 #
coedge $-1 $169 $250 $244 $344 reversed $242 $-1 #
vertex $-1 $170 $354 #
straight-curve $-1 0 35.423479096687032 8.9414366057554489 -1 0 0 I I #
coedge $-1 $171 $245 $173 $264 reversed $101 $-1 #
vertex $-1 $256 $355 #
straight-curve $-1 0 -35.423479096687032 8.9414366057554489 1 0 0 I I #
edge $-1 $176 -8.9414366057554489 $253 8.9414366057554489 $173 $356 forward 7 unknown #
edge $-1 $177 -8.9414366057554489 $252 8.9414366057554489 $174 $357 forward 7 unknown #
point $-1 71.678212836085095 -35.423479096687032 8.9414366057554489 #
point $-1 71.678212836085095 35.423479096687032 8.9414366057554489 #
face $-1 $-1 $283 $25 $-1 $358 reversed single #
loop $-1 $-1 $185 $179 #
plane-surface $-1 0 0 8.9414366057554489 0 0 1 1 0 0 forward_v I I I I #
coedge $-1 $359 $360 $187 $281 forward $180 $-1 #
coedge $-1 $182 $286 $276 $361 reversed $109 $-1 #
edge $-1 $279 -5.2207183028777244 $192 -2.2207183028777244 $182 $362 forward 7 unknown #
coedge $-1 $363 $188 $183 $275 forward $283 $-1 #
edge $-1 $193 2.2207183028777244 $278 5.2207183028777244 $274 $364 forward 7 unknown #
coedge $-1 $365 $185 $272 $361 forward $269 $-1 #
coedge $-1 $185 $365 $363 $366 forward $269 $-1 #
vertex $-1 $275 $367 #
vertex $-1 $361 $368 #
straight-curve $-1 -60.920278645306269 0 8.9414366057554489 0 1 0 I I #
edge $-1 $287 -35.423479096687032 $284 35.423479096687032 $271 $369 forward 7 unknown #
coedge $-1 $188 $363 $359 $370 forward $283 $-1 #
loop $-1 $-1 $274 $268 #
vertex $-1 $281 $371 #
straight-curve $-1 -33.149622870347841 -35.423479096687032 5.9414366057554489 1 0 0 I I #
coedge $-1 $272 $190 $360 $372 reversed $109 $-1 #
vertex $-1 $281 $373 #
straight-curve $-1 -33.149622870347841 35.423479096687032 5.9414366057554489 -1 0 0 I I #
point $-1 -60.920278645306269 35.423479096687032 5.9414366057554489 #
point $-1 -60.920278645306269 -35.423479096687032 5.9414366057554489 #
loop $-1 $-1 $203 $195 #
plane-surface $-1 0 -35.423479096687032 0 0 1 0 0 0 1 forward_v I I I I #
coedge $-1 $294 $198 $374 $375 reversed $117 $-1 #
coedge $-1 $198 $293 $297 $376 reversed $117 $-1 #
edge $-1 $377 -4.9769468549031306e-014 $298 4.8527734593196303 $198 $378 forward 7 unknown #
coedge $-1 $200 $199 $301 $379 reversed $73 $-1 #
coedge $-1 $206 $201 $294 $376 forward $196 $-1 #
vertex $-1 $376 $380 #
straight-curve $-1 -22.911713127928984 -32.64004264584284 8.9414366057554489 -1 0 0 I I #
coedge $-1 $374 $203 $206 $305 reversed $291 $-1 #
coedge $-1 $203 $374 $296 $379 forward $291 $-1 #
vertex $-1 $204 $381 #
straight-curve $-1 -30.726573866409659 -35.423479096687032 43.596071683202524 0 0 1 I I #
straight-curve $-1 -30.726573866409659 -35.423479096687004 4.9662772666107884 0 -0.57357642473473569 -0.81915205242281985 I I #
edge $-1 $382 -60.920278645306269 $207 -30.726573866409659 $300 $383 forward 7 unknown #
point $-1 -30.726573866409659 -35.423479096687032 8.9414366057554489 #
point $-1 -30.726573866409659 -32.64004264584284 8.9414366057554489 #
edge $-1 $384 1 $384 0 $210 $-1 forward 7 unknown #
vertex $-1 $211 $385 #
ellipse-curve $-1 -52.293505851335809 -31.568654872270137 5.2291716003318296 0 -0.81915205242281985 0.57357642473473569 1 0 0 1 I I #
point $-1 -51.293505851335809 -34.03176087126495 6.9538569361831222 #
edge $-1 $386 1 $386 0 $214 $-1 forward 7 unknown #
vertex $-1 $215 $387 #
ellipse-curve $-1 -39.353346660380119 -31.568654872270137 5.2291716003318296 0 -0.81915205242281985 0.57357642473473569 1 0 0 1 I I #
point $-1 -38.353346660380119 -34.03176087126495 6.9538569361831222 #
loop $-1 $-1 $226 $218 #
plane-surface $-1 -60.920278645306269 0 7.4414366057554489 -1 0 0 0 0 1 forward_v I I I I #
coedge $-1 $323 $388 $222 $319 forward $219 $-1 #
edge $-1 $321 63.671850683455112 $329 67.647010022599829 $318 $389 forward 7 unknown #
coedge $-1 $229 $223 $388 $390 forward $139 $-1 #
vertex $-1 $390 $391 #
straight-curve $-1 -30.726573866409659 56.109022215078923 8.941436605755456 0 1 0 I I #
coedge $-1 $392 $318 $225 $324 forward $219 $-1 #
edge $-1 $329 7.8148607384806752 $327 38.008565517377292 $323 $393 forward 7 unknown #
coedge $-1 $326 $226 $229 $331 reversed $316 $-1 #
coedge $-1 $226 $325 $392 $394 reversed $316 $-1 #
vertex $-1 $394 $395 #
straight-curve $-1 -60.920278645306269 8.6969506804651324 43.135716703404135 0 -0.57357642473473569 0.81915205242281985 I I #
vertex $-1 $324 $396 #
straight-curve $-1 -30.726573866409659 -5.2126658871997904 63.000708478626862 0 -0.57357642473473569 0.81915205242281985 I I #
edge $-1 $397 -35.423479096687032 $230 -32.640042645842826 $229 $398 forward 7 unknown #
point $-1 -60.920278645306276 32.640042645842826 8.9414366057554489 #
point $-1 -30.726573866409659 32.640042645842826 8.9414366057554489 #
edge $-1 $399 1 $399 0 $233 $-1 forward 7 unknown #
vertex $-1 $234 $400 #
ellipse-curve $-1 -52.293505851335809 31.56865487227013 5.2291716003318367 0 0.81915205242281985 0.57357642473473569 1 0 0 1 I I #
point $-1 -51.293505851335809 34.031760871264943 6.9538569361831293 #
edge $-1 $401 1 $401 0 $237 $-1 forward 7 unknown #
vertex $-1 $238 $402 #
ellipse-curve $-1 -39.353346660380119 31.56865487227013 5.2291716003318367 0 0.81915205242281985 0.57357642473473569 1 0 0 1 I I #
point $-1 -38.353346660380119 34.031760871264943 6.9538569361831293 #
plane-surface $-1 71.678212836085095 0 0 -1 0 0 0 0 1 forward_v I I I I #
coedge $-1 $246 $244 $248 $347 reversed $161 $-1 #
edge $-1 $259 -8.9414366057554489 $349 8.9414366057554489 $258 $403 forward 7 unknown #
vertex $-1 $347 $404 #
straight-curve $-1 -71.678212836085095 -35.423479096687032 0 0 0 -1 I I #
edge $-1 $345 -35.423479096687032 $349 35.423479096687032 $343 $405 forward 7 unknown #
straight-curve $-1 0 -35.423479096687032 -8.9414366057554489 -1 0 0 I I #
vertex $-1 $251 $406 #
straight-curve $-1 0 35.423479096687032 -8.9414366057554489 1 0 0 I I #
point $-1 71.678212836085095 35.423479096687032 -8.9414366057554489 #
point $-1 71.678212836085095 -35.423479096687032 -8.9414366057554489 #
straight-curve $-1 -71.678212836085095 0 8.9414366057554489 0 -1 0 I I #
point $-1 -71.678212836085095 35.423479096687032 8.9414366057554489 #
point $-1 -71.678212836085095 -35.423479096687032 8.9414366057554489 #
straight-curve $-1 71.678212836085095 -35.423479096687032 0 0 0 -1 I I #
straight-curve $-1 71.678212836085095 35.423479096687032 0 0 0 -1 I I #
plane-surface $-1 0 -35.423479096687032 0 0 1 0 0 0 1 forward_v I I I I #
coedge $-1 $407 $271 $282 $370 reversed $180 $-1 #
coedge $-1 $271 $407 $286 $372 forward $180 $-1 #
edge $-1 $279 60.920278645306269 $408 71.678212836085095 $272 $409 forward 7 unknown #
straight-curve $-1 -60.920278645306269 35.423479096687032 3.7207183028777244 0 0 -1 I I #
coedge $-1 $282 $274 $277 $366 reversed $283 $-1 #
straight-curve $-1 -60.920278645306269 -35.423479096687032 3.7207183028777244 0 0 1 I I #
coedge $-1 $277 $276 $407 $410 forward $269 $-1 #
edge $-1 $411 -71.678212836085095 $278 -60.920278645306269 $363 $412 forward 7 unknown #
point $-1 -60.920278645306269 -35.423479096687032 8.9414366057554489 #
point $-1 -60.920278645306269 35.423479096687032 8.9414366057554489 #
straight-curve $-1 -71.678212836085095 0 5.9414366057554489 0 -1 0 I I #
edge $-1 $411 -8.9414366057554489 $284 -5.9414366057554489 $359 $413 forward 7 unknown #
point $-1 -71.678212836085095 -35.423479096687032 5.9414366057554489 #
edge $-1 $408 -8.9414366057554489 $287 -5.9414366057554489 $286 $414 forward 7 unknown #
point $-1 -71.678212836085095 35.423479096687032 5.9414366057554489 #
coedge $-1 $301 $300 $293 $375 forward $291 $-1 #
edge $-1 $382 34.654635077447075 $377 38.629794416591778 $374 $415 forward 7 unknown #
edge $-1 $298 32.640042645842833 $382 35.423479096687032 $297 $416 forward 7 unknown #
vertex $-1 $375 $417 #
straight-curve $-1 -60.920278645306276 -35.423479096687004 4.9662772666107884 0 0.57357642473473569 0.81915205242281985 I I #
edge $-1 $377 -38.008565517377292 $302 -7.8148607384806752 $301 $418 forward 7 unknown #
point $-1 -60.920278645306269 -32.640042645842833 8.9414366057554489 #
point $-1 -30.726573866409659 -35.423479096687032 4.9662772666107475 #
vertex $-1 $305 $419 #
straight-curve $-1 0 -35.423479096687032 8.9414366057554489 1 0 0 I I #
vertex $-1 $308 $420 #
point $-1 -51.293505851335809 -31.568654872270137 5.2291716003318296 #
vertex $-1 $312 $421 #
point $-1 -38.353346660380119 -31.568654872270137 5.2291716003318296 #
coedge $-1 $318 $392 $320 $390 reversed $219 $-1 #
straight-curve $-1 -30.726573866409659 35.423479096687032 72.613287289210561 0 0 -1 I I #
edge $-1 $321 30.726573866409659 $397 60.920278645306269 $388 $422 forward 7 unknown #
point $-1 -30.726573866409659 35.423479096687032 8.9414366057554489 #
coedge $-1 $388 $323 $326 $394 forward $219 $-1 #
straight-curve $-1 -22.911713127928984 35.423479096687032 4.9662772666107209 -1 0 0 I I #
edge $-1 $327 -67.647010022599829 $397 -63.671850683455112 $392 $423 forward 7 unknown #
point $-1 -60.920278645306276 35.423479096687032 4.9662772666107244 #
point $-1 -30.726573866409659 35.423479096687032 4.9662772666107244 #
vertex $-1 $331 $424 #
straight-curve $-1 -60.920278645306269 0 8.9414366057554489 0 -1 0 I I #
vertex $-1 $334 $425 #
point $-1 -51.293505851335809 31.56865487227013 5.2291716003318367 #
vertex $-1 $338 $426 #
point $-1 -38.353346660380119 31.56865487227013 5.2291716003318367 #
straight-curve $-1 -71.678212836085095 35.423479096687032 0 0 0 -1 I I #
point $-1 -71.678212836085095 -35.423479096687032 -8.9414366057554489 #
straight-curve $-1 -71.678212836085095 0 -8.9414366057554489 0 1 0 I I #
point $-1 -71.678212836085095 35.423479096687032 -8.9414366057554489 #
coedge $-1 $360 $359 $365 $410 reversed $180 $-1 #
vertex $-1 $361 $427 #
straight-curve $-1 0 35.423479096687032 8.9414366057554489 -1 0 0 I I #
edge $-1 $408 -35.423479096687032 $411 35.423479096687032 $407 $428 forward 7 unknown #
vertex $-1 $410 $429 #
straight-curve $-1 0 -35.423479096687032 8.9414366057554489 1 0 0 I I #
straight-curve $-1 -71.678212836085095 -35.423479096687032 0 0 0 -1 I I #
straight-curve $-1 -71.678212836085095 35.423479096687032 0 0 0 -1 I I #
straight-curve $-1 -60.920278645306276 -35.423479096687032 43.596071683202524 0 0 -1 I I #
straight-curve $-1 -60.920278645306269 0 8.9414366057554489 0 -1 0 I I #
point $-1 -60.920278645306276 -35.423479096687032 4.9662772666107475 #
straight-curve $-1 -22.911713127928984 -35.423479096687032 4.966277266610744 1 0 0 I I #
point $-1 -60.920278645306269 -35.423479096687032 8.9414366057554489 #
point $-1 -52.293505851335809 -30.749502819847315 4.6555951755970941 #
point $-1 -39.353346660380119 -30.749502819847315 4.6555951755970941 #
straight-curve $-1 0 35.423479096687032 8.9414366057554489 -1 0 0 I I #
straight-curve $-1 -60.920278645306276 35.423479096687032 72.613287289210561 0 0 1 I I #
point $-1 -60.920278645306269 35.423479096687032 8.9414366057554489 #
point $-1 -52.293505851335809 30.749502819847308 4.6555951755971012 #
point $-1 -39.353346660380119 30.749502819847308 4.6555951755971012 #
point $-1 -71.678212836085095 35.423479096687032 8.9414366057554489 #
straight-curve $-1 -71.678212836085095 0 8.9414366057554489 0 -1 0 I I #
point $-1 -71.678212836085095 -35.423479096687032 8.9414366057554489 #
End-of-ACIS-data 