500 0 4 0           
7 Unknown 11 ACIS 5.0 NT 24 Fri Mar 26 19:19:19 1999 
-1 9.9999999999999995e-007 1e-010 
body $-1 $4 $-1 $5 #
body $-1 $6 $-1 $7 #
body $-1 $8 $-1 $9 #
body $-1 $10 $-1 $11 #
lump $-1 $-1 $12 $0 #
transform $-1 1 0 0 0 1 0 0 0 1 68.268684957426672 31.885249018477669 9.5400797403562496 1 rotate no_reflect no_shear #
lump $-1 $-1 $13 $1 #
transform $-1 1 0 0 0 1 0 0 0 1 68.268684957426672 31.885249018477669 9.5400797403562496 1 rotate no_reflect no_shear #
lump $-1 $-1 $14 $2 #
transform $-1 1 0 0 0 1 0 0 0 1 68.268684957426672 31.885249018477669 9.5400797403562496 1 rotate no_reflect no_shear #
lump $-1 $-1 $15 $3 #
transform $-1 1 0 0 0 1 0 0 0 1 68.268684957426672 31.885249018477669 9.5400797403562496 1 rotate no_reflect no_shear #
shell $-1 $-1 $-1 $16 $-1 $4 #
shell $-1 $-1 $-1 $17 $-1 $6 #
shell $-1 $-1 $-1 $18 $-1 $8 #
shell $-1 $-1 $-1 $19 $-1 $10 #
face $-1 $20 $21 $12 $-1 $22 forward single #
face $-1 $23 $24 $13 $-1 $25 forward single #
face $-1 $26 $27 $14 $-1 $28 forward single #
face $-1 $29 $30 $15 $-1 $31 reversed single #
face $-1 $32 $33 $12 $-1 $34 reversed single #
loop $-1 $-1 $35 $16 #
plane-surface $-1 0 0 9.5400797403562496 0 0 1 1 0 0 forward_v I I I I #
face $-1 $36 $37 $13 $-1 $38 reversed single #
loop $-1 $-1 $39 $17 #
plane-surface $-1 -73.715509445020189 0 -6.0400797403562496 0 0 1 1 0 0 forward_v I I I I #
face $-1 $40 $41 $14 $-1 $42 forward single #
loop $-1 $-1 $43 $18 #
plane-surface $-1 -39.32422998105335 -25.389774128398006 86.192258485001133 0.61566148304635926 0 0.78801074757464917 0.78801074757464917 0 -0.61566148304635926 forward_v I I I I #
face $-1 $44 $45 $15 $-1 $46 reversed single #
loop $-1 $47 $48 $19 #
cone-surface $-1 62.73216934337038 -25.389774128398006 4.8179411092706221 -0.61566148304635926 0 -0.78801074757464917 1.1820161213619738 0 -0.92349222456953894 1 I I 0 1 1.5 forward I I I I #
face $-1 $49 $50 $12 $-1 $51 reversed single #
loop $-1 $-1 $52 $20 #
plane-surface $-1 0 0 -9.5400797403562496 0 0 1 1 0 0 forward_v I I I I #
coedge $-1 $53 $54 $55 $56 forward $21 $-1 #
face $-1 $57 $58 $13 $-1 $59 reversed single #
loop $-1 $-1 $60 $23 #
plane-surface $-1 -73.715509445020189 0 -9.0400797403562496 0 0 1 1 0 0 forward_v I I I I #
coedge $-1 $61 $62 $63 $64 reversed $24 $-1 #
face $-1 $65 $66 $14 $-1 $67 reversed single #
loop $-1 $-1 $68 $26 #
plane-surface $-1 44.736569671974621 -18.894299238318343 193.78517342348113 0 -1 0 -0.61566148304635926 0 -0.78801074757464917 forward_v I I I I #
coedge $-1 $69 $70 $71 $72 reversed $27 $-1 #
face $-1 $73 $74 $15 $-1 $75 forward single #
loop $-1 $76 $77 $29 #
cone-surface $-1 61.475208690165118 -25.389774128398006 3.2091048716955424 -0.61566148304635926 0 -0.78801074757464917 0.59100806068098688 0 -0.46174611228476947 1 I I -0.70710678118654757 0.70710678118654757 0.75 forward I I I I #
loop $-1 $-1 $78 $19 #
coedge $-1 $48 $48 $79 $80 reversed $30 $-1 #
face $-1 $81 $82 $12 $-1 $83 reversed single #
loop $-1 $-1 $84 $32 #
plane-surface $-1 0 -31.885249018477669 0 0 1 0 0 0 1 forward_v I I I I #
coedge $-1 $85 $86 $87 $88 forward $33 $-1 #
coedge $-1 $89 $35 $90 $91 forward $21 $-1 #
coedge $-1 $35 $89 $92 $93 forward $21 $-1 #
coedge $-1 $94 $95 $35 $56 reversed $96 $-1 #
edge $-1 $97 -31.885249018477669 $98 31.885249018477669 $55 $99 forward 7 unknown #
face $-1 $100 $101 $13 $-1 $102 reversed single #
loop $-1 $-1 $103 $36 #
plane-surface $-1 -79.162333932613706 0 -7.5400797403562496 1 0 0 0 0 -1 forward_v I I I I #
coedge $-1 $104 $105 $106 $107 reversed $37 $-1 #
coedge $-1 $108 $39 $109 $110 forward $24 $-1 #
coedge $-1 $39 $108 $111 $112 forward $24 $-1 #
coedge $-1 $113 $114 $39 $64 forward $115 $-1 #
edge $-1 $116 -31.885249018477669 $117 31.885249018477669 $63 $118 forward 7 unknown #
face $-1 $119 $120 $14 $-1 $121 reversed single #
loop $-1 $-1 $122 $40 #
plane-surface $-1 68.268684957426672 0 0 -1 0 0 0 0 1 forward_v I I I I #
coedge $-1 $123 $124 $122 $125 reversed $41 $-1 #
coedge $-1 $126 $43 $124 $127 reversed $27 $-1 #
coedge $-1 $43 $126 $128 $129 reversed $27 $-1 #
coedge $-1 $130 $122 $43 $72 forward $66 $-1 #
edge $-1 $131 6.19941217411934 $132 19.190361954278664 $71 $133 forward 7 unknown #
face $-1 $134 $135 $15 $-1 $136 forward single #
loop $-1 $137 $79 $44 #
plane-surface $-1 -39.32422998105335 -25.389774128398006 86.192258485001133 0.61566148304635926 0 0.78801074757464917 0.78801074757464917 0 -0.61566148304635926 forward_v I I I I #
loop $-1 $-1 $138 $29 #
coedge $-1 $77 $77 $78 $139 forward $45 $-1 #
coedge $-1 $78 $78 $77 $139 reversed $47 $-1 #
coedge $-1 $79 $79 $48 $80 forward $74 $-1 #
edge $-1 $140 0 $140 6.2831853071796004 $79 $141 forward 7 unknown #
face $-1 $142 $143 $12 $-1 $144 reversed single #
loop $-1 $-1 $145 $49 #
plane-surface $-1 -68.268684957426672 0 0 1 0 0 0 0 -1 forward_v I I I I #
coedge $-1 $146 $92 $147 $148 forward $50 $-1 #
coedge $-1 $149 $52 $146 $150 forward $33 $-1 #
coedge $-1 $52 $149 $151 $152 forward $33 $-1 #
coedge $-1 $95 $94 $52 $88 reversed $96 $-1 #
edge $-1 $153 -31.885249018477669 $154 31.885249018477669 $87 $155 forward 7 unknown #
coedge $-1 $54 $53 $156 $157 forward $21 $-1 #
coedge $-1 $158 $159 $53 $91 reversed $143 $-1 #
edge $-1 $98 -68.268684957426672 $160 68.268684957426672 $90 $161 forward 7 unknown #
coedge $-1 $84 $162 $54 $93 reversed $50 $-1 #
edge $-1 $163 -68.268684957426672 $97 68.268684957426672 $92 $164 forward 7 unknown #
coedge $-1 $87 $55 $162 $165 forward $96 $-1 #
coedge $-1 $55 $87 $158 $166 reversed $96 $-1 #
loop $-1 $-1 $94 $142 #
vertex $-1 $56 $167 #
vertex $-1 $56 $168 #
straight-curve $-1 68.268684957426672 0 9.5400797403562496 0 1 0 I I #
face $-1 $169 $115 $13 $-1 $102 reversed single #
loop $-1 $-1 $106 $57 #
plane-surface $-1 -68.268684957426672 0 0 1 0 0 0 0 -1 forward_v I I I I #
coedge $-1 $170 $171 $172 $173 forward $58 $-1 #
coedge $-1 $174 $60 $175 $176 forward $37 $-1 #
coedge $-1 $60 $174 $177 $178 forward $37 $-1 #
coedge $-1 $179 $180 $60 $107 forward $101 $-1 #
edge $-1 $181 -31.885249018477669 $182 31.885249018477669 $106 $183 forward 7 unknown #
coedge $-1 $62 $61 $171 $184 forward $24 $-1 #
coedge $-1 $185 $172 $61 $110 reversed $186 $-1 #
edge $-1 $116 -5.446824487593517 $187 5.446824487593517 $109 $188 forward 7 unknown #
coedge $-1 $189 $190 $62 $112 reversed $191 $-1 #
edge $-1 $192 -5.446824487593517 $117 5.446824487593517 $111 $193 forward 7 unknown #
coedge $-1 $194 $63 $190 $195 reversed $115 $-1 #
coedge $-1 $63 $194 $185 $196 forward $115 $-1 #
loop $-1 $-1 $63 $100 #
vertex $-1 $196 $197 #
vertex $-1 $112 $198 #
straight-curve $-1 -68.268684957426672 0 -6.0400797403562496 0 -1 0 I I #
face $-1 $199 $200 $14 $-1 $201 forward single #
loop $-1 $-1 $128 $65 #
plane-surface $-1 0 -31.885249018477669 0 0 1 0 0 0 1 forward_v I I I I #
coedge $-1 $71 $202 $68 $125 forward $66 $-1 #
coedge $-1 $124 $68 $203 $204 reversed $41 $-1 #
coedge $-1 $68 $123 $69 $127 forward $41 $-1 #
edge $-1 $205 87.352506971384315 $131 94.761127879767415 $122 $206 forward 7 unknown #
coedge $-1 $70 $69 $207 $208 reversed $27 $-1 #
edge $-1 $209 124.50377497283353 $131 136.53736991485337 $124 $210 forward 7 unknown #
coedge $-1 $211 $212 $70 $129 forward $120 $-1 #
edge $-1 $132 -94.510785139274248 $213 -82.477190197254416 $128 $214 forward 7 unknown #
coedge $-1 $215 $71 $212 $216 forward $66 $-1 #
vertex $-1 $72 $217 #
vertex $-1 $216 $218 #
straight-curve $-1 68.268684957426672 -12.694887064199003 2.1314588319731484 0 -1 0 I I #
face $-1 $219 $220 $15 $-1 $221 reversed single #
loop $-1 $-1 $222 $73 #
plane-surface $-1 44.736569671974621 -18.894299238318343 193.78517342348113 0 -1 0 -0.61566148304635926 0 -0.78801074757464917 forward_v I I I I #
loop $-1 $-1 $223 $44 #
coedge $-1 $138 $138 $-1 $224 forward $76 $-1 #
edge $-1 $225 0 $225 6.2831853071796004 $77 $226 forward 7 unknown #
vertex $-1 $80 $227 #
ellipse-curve $-1 63.527383884290877 -25.389774128398006 5.8357692861647203 -0.61566148304635926 0 -0.78801074757464917 1.1820161213619738 0 -0.92349222456953894 1 I I #
face $-1 $-1 $96 $12 $-1 $228 reversed single #
loop $-1 $-1 $158 $81 #
plane-surface $-1 0 31.885249018477669 0 0 -1 0 0 0 -1 forward_v I I I I #
coedge $-1 $229 $156 $159 $230 forward $82 $-1 #
coedge $-1 $162 $84 $85 $150 reversed $50 $-1 #
coedge $-1 $156 $229 $84 $148 reversed $82 $-1 #
edge $-1 $163 -9.5400797403562496 $231 9.5400797403562496 $147 $232 forward 7 unknown #
coedge $-1 $86 $85 $229 $233 forward $33 $-1 #
edge $-1 $154 -68.268684957426672 $231 68.268684957426672 $146 $234 forward 7 unknown #
coedge $-1 $159 $158 $86 $152 reversed $143 $-1 #
edge $-1 $235 -68.268684957426672 $153 68.268684957426672 $151 $236 forward 7 unknown #
vertex $-1 $88 $237 #
vertex $-1 $165 $238 #
straight-curve $-1 68.268684957426672 0 -9.5400797403562496 0 -1 0 I I #
coedge $-1 $145 $147 $89 $157 reversed $82 $-1 #
edge $-1 $160 -31.885249018477669 $163 31.885249018477669 $156 $239 forward 7 unknown #
coedge $-1 $151 $90 $95 $166 forward $143 $-1 #
coedge $-1 $90 $151 $145 $230 reversed $143 $-1 #
vertex $-1 $91 $240 #
straight-curve $-1 0 31.885249018477669 9.5400797403562496 -1 0 0 I I #
coedge $-1 $92 $146 $94 $165 reversed $50 $-1 #
vertex $-1 $157 $241 #
straight-curve $-1 0 -31.885249018477669 9.5400797403562496 1 0 0 I I #
edge $-1 $97 -9.5400797403562496 $154 9.5400797403562496 $94 $242 forward 7 unknown #
edge $-1 $98 -9.5400797403562496 $153 9.5400797403562496 $95 $243 forward 7 unknown #
point $-1 68.268684957426672 -31.885249018477669 9.5400797403562496 #
point $-1 68.268684957426672 31.885249018477669 9.5400797403562496 #
face $-1 $244 $245 $13 $-1 $246 forward single #
coedge $-1 $247 $103 $174 $248 reversed $58 $-1 #
coedge $-1 $103 $247 $108 $184 reversed $58 $-1 #
coedge $-1 $109 $177 $103 $173 reversed $186 $-1 #
edge $-1 $187 -1.5 $249 1.5 $172 $250 forward 7 unknown #
coedge $-1 $105 $104 $170 $248 forward $37 $-1 #
coedge $-1 $251 $189 $104 $176 reversed $191 $-1 #
edge $-1 $181 -5.446824487593517 $252 5.446824487593517 $175 $253 forward 7 unknown #
coedge $-1 $172 $254 $105 $178 reversed $186 $-1 #
edge $-1 $249 -5.446824487593517 $182 5.446824487593517 $177 $255 forward 7 unknown #
coedge $-1 $256 $106 $254 $257 forward $101 $-1 #
coedge $-1 $106 $256 $251 $258 reversed $101 $-1 #
vertex $-1 $258 $259 #
vertex $-1 $257 $260 #
straight-curve $-1 -68.268684957426672 0 -9.0400797403562496 0 1 0 I I #
edge $-1 $187 -31.885249018477669 $192 31.885249018477669 $171 $261 forward 7 unknown #
coedge $-1 $262 $109 $114 $196 reversed $186 $-1 #
loop $-1 $-1 $263 $264 #
vertex $-1 $110 $265 #
straight-curve $-1 -73.715509445020189 31.885249018477669 -6.0400797403562496 -1 0 0 I I #
coedge $-1 $175 $111 $247 $266 forward $191 $-1 #
coedge $-1 $111 $267 $113 $195 forward $191 $-1 #
loop $-1 $-1 $190 $268 #
vertex $-1 $184 $269 #
straight-curve $-1 -73.715509445020189 -31.885249018477669 -6.0400797403562496 1 0 0 I I #
coedge $-1 $114 $113 $270 $271 reversed $115 $-1 #
edge $-1 $272 -9.5400797403562496 $117 6.0400797403562496 $113 $273 forward 7 unknown #
edge $-1 $274 -9.5400797403562496 $116 6.0400797403562496 $185 $275 forward 7 unknown #
point $-1 -68.268684957426672 31.885249018477669 -6.0400797403562496 #
point $-1 -68.268684957426672 -31.885249018477669 -6.0400797403562496 #
face $-1 $276 $277 $14 $-1 $278 reversed single #
loop $-1 $-1 $279 $119 #
plane-surface $-1 -73.715509445020189 0 -6.0400797403562496 0 0 1 1 0 0 forward_v I I I I #
coedge $-1 $122 $280 $281 $282 reversed $66 $-1 #
coedge $-1 $281 $207 $123 $204 forward $283 $-1 #
edge $-1 $209 36.417797975167787 $205 45.900400121439361 $203 $284 forward 7 unknown #
vertex $-1 $282 $285 #
straight-curve $-1 68.268684957426672 -18.894299238318343 96.892586711740563 0 0 -1 I I #
coedge $-1 $203 $286 $126 $208 forward $283 $-1 #
edge $-1 $213 -19.190361954278664 $209 -6.19941217411934 $207 $287 forward 7 unknown #
vertex $-1 $208 $288 #
straight-curve $-1 -39.32422998105335 -18.894299238318343 86.192258485001133 0.78801074757464917 0 -0.61566148304635926 I I #
coedge $-1 $289 $128 $286 $290 reversed $120 $-1 #
coedge $-1 $128 $291 $130 $216 reversed $120 $-1 #
vertex $-1 $208 $292 #
straight-curve $-1 -6.2068294940398854 -31.885249018477669 60.318108974694553 -0.78801074757464917 0 0.61566148304635926 I I #
coedge $-1 $280 $130 $293 $294 reversed $66 $-1 #
edge $-1 $132 -2.1314588319731542 $295 9.5400797403562496 $130 $296 forward 7 unknown #
point $-1 68.268684957426672 -18.894299238318343 2.1314588319731484 #
point $-1 68.268684957426672 -31.885249018477669 2.1314588319731542 #
face $-1 $297 $298 $15 $-1 $299 reversed single #
loop $-1 $-1 $300 $134 #
plane-surface $-1 68.268684957426672 0 0 -1 0 0 0 0 1 forward_v I I I I #
coedge $-1 $301 $302 $300 $303 reversed $135 $-1 #
coedge $-1 $304 $305 $306 $307 reversed $137 $-1 #
edge $-1 $308 1 $308 0 $138 $-1 forward 7 unknown #
vertex $-1 $139 $309 #
ellipse-curve $-1 61.93695480244989 -25.389774128398006 3.8001129323765293 0.61566148304635926 0 0.78801074757464917 1.1820161213619738 0 -0.92349222456953894 1 I I #
point $-1 64.709400005652853 -25.389774128398006 4.9122770615951765 #
plane-surface $-1 68.268684957426672 0 0 -1 0 0 0 0 1 forward_v I I I I #
coedge $-1 $147 $145 $149 $233 reversed $82 $-1 #
edge $-1 $160 -9.5400797403562496 $235 9.5400797403562496 $159 $310 forward 7 unknown #
vertex $-1 $233 $311 #
straight-curve $-1 -68.268684957426672 -31.885249018477669 0 0 0 -1 I I #
edge $-1 $231 -31.885249018477669 $235 31.885249018477669 $229 $312 forward 7 unknown #
straight-curve $-1 0 -31.885249018477669 -9.5400797403562496 -1 0 0 I I #
vertex $-1 $152 $313 #
straight-curve $-1 0 31.885249018477669 -9.5400797403562496 1 0 0 I I #
point $-1 68.268684957426672 31.885249018477669 -9.5400797403562496 #
point $-1 68.268684957426672 -31.885249018477669 -9.5400797403562496 #
straight-curve $-1 -68.268684957426672 0 9.5400797403562496 0 -1 0 I I #
point $-1 -68.268684957426672 31.885249018477669 9.5400797403562496 #
point $-1 -68.268684957426672 -31.885249018477669 9.5400797403562496 #
straight-curve $-1 68.268684957426672 -31.885249018477669 0 0 0 -1 I I #
straight-curve $-1 68.268684957426672 31.885249018477669 0 0 0 -1 I I #
face $-1 $268 $314 $13 $-1 $315 reversed single #
loop $-1 $-1 $316 $169 #
plane-surface $-1 0 0 9.5400797403562496 0 0 1 1 0 0 forward_v I I I I #
coedge $-1 $171 $170 $189 $266 reversed $58 $-1 #
edge $-1 $252 -31.885249018477669 $249 31.885249018477669 $170 $317 forward 7 unknown #
vertex $-1 $178 $318 #
straight-curve $-1 -79.162333932613706 31.885249018477669 -7.5400797403562496 0 0 -1 I I #
coedge $-1 $319 $175 $180 $258 forward $191 $-1 #
vertex $-1 $248 $320 #
straight-curve $-1 -73.715509445020189 -31.885249018477669 -9.0400797403562496 -1 0 0 I I #
coedge $-1 $177 $321 $179 $257 reversed $186 $-1 #
straight-curve $-1 -73.715509445020189 31.885249018477669 -9.0400797403562496 1 0 0 I I #
coedge $-1 $180 $179 $322 $323 reversed $101 $-1 #
edge $-1 $182 9.0400797403562496 $324 9.5400797403562496 $254 $275 forward 7 unknown #
edge $-1 $181 9.0400797403562496 $325 9.5400797403562496 $180 $273 forward 7 unknown #
point $-1 -68.268684957426672 -31.885249018477669 -9.0400797403562496 #
point $-1 -68.268684957426672 31.885249018477669 -9.0400797403562496 #
straight-curve $-1 -79.162333932613706 0 -6.0400797403562496 0 -1 0 I I #
coedge $-1 $263 $185 $326 $327 reversed $186 $-1 #
coedge $-1 $321 $262 $328 $329 forward $186 $-1 #
face $-1 $330 $186 $13 $-1 $331 reversed single #
point $-1 -79.162333932613706 31.885249018477669 -6.0400797403562496 #
edge $-1 $192 -1.5 $252 1.5 $247 $332 forward 7 unknown #
coedge $-1 $190 $333 $334 $335 reversed $191 $-1 #
face $-1 $264 $191 $13 $-1 $336 reversed single #
point $-1 -79.162333932613706 -31.885249018477669 -6.0400797403562496 #
coedge $-1 $334 $326 $194 $271 forward $245 $-1 #
edge $-1 $274 -31.885249018477669 $272 31.885249018477669 $194 $337 forward 7 unknown #
vertex $-1 $271 $338 #
straight-curve $-1 -68.268684957426672 -31.885249018477669 0 0 0 -1 I I #
vertex $-1 $327 $339 #
straight-curve $-1 -68.268684957426672 31.885249018477669 0 0 0 -1 I I #
face $-1 $340 $341 $14 $-1 $342 reversed single #
loop $-1 $-1 $343 $199 #
plane-surface $-1 -73.715509445020189 0 -9.0400797403562496 0 0 1 1 0 0 forward_v I I I I #
coedge $-1 $344 $345 $346 $347 reversed $200 $-1 #
coedge $-1 $202 $215 $348 $349 reversed $66 $-1 #
coedge $-1 $350 $203 $202 $282 forward $283 $-1 #
edge $-1 $205 -18.894299238318343 $351 31.885249018477669 $202 $352 forward 7 unknown #
loop $-1 $-1 $203 $353 #
straight-curve $-1 22.368284835987311 -18.894299238318343 9.5400797403562478 1 0 0 I I #
point $-1 68.268684957426672 -18.894299238318343 9.5400797403562496 #
coedge $-1 $207 $354 $211 $290 forward $283 $-1 #
straight-curve $-1 58.786082811155111 -12.694887064199003 9.5400797403562407 0 1 0 I I #
point $-1 58.786082811155097 -18.894299238318343 9.5400797403562478 #
coedge $-1 $355 $211 $356 $357 forward $120 $-1 #
edge $-1 $358 -68.268684957426672 $213 58.786082811155097 $211 $359 forward 7 unknown #
coedge $-1 $212 $360 $361 $362 reversed $120 $-1 #
point $-1 58.786082811155097 -31.885249018477669 9.5400797403562478 #
coedge $-1 $361 $363 $215 $294 forward $364 $-1 #
edge $-1 $365 -31.885249018477669 $295 31.885249018477669 $215 $366 forward 7 unknown #
vertex $-1 $216 $367 #
straight-curve $-1 68.268684957426672 -31.885249018477669 0 0 0 -1 I I #
face $-1 $368 $369 $15 $-1 $370 forward single #
loop $-1 $-1 $371 $219 #
plane-surface $-1 0 -31.885249018477669 0 0 1 0 0 0 1 forward_v I I I I #
coedge $-1 $306 $372 $222 $303 forward $220 $-1 #
coedge $-1 $302 $222 $373 $374 reversed $135 $-1 #
coedge $-1 $222 $301 $304 $375 forward $135 $-1 #
edge $-1 $376 87.352506971384315 $377 94.761127879767415 $300 $378 forward 7 unknown #
coedge $-1 $379 $223 $302 $375 reversed $137 $-1 #
coedge $-1 $223 $379 $371 $380 reversed $137 $-1 #
coedge $-1 $381 $300 $223 $307 forward $220 $-1 #
edge $-1 $377 6.19941217411934 $382 19.190361954278664 $306 $383 forward 7 unknown #
vertex $-1 $224 $384 #
point $-1 63.118970923811858 -25.389774128398006 2.8766207078069903 #
straight-curve $-1 -68.268684957426672 31.885249018477669 0 0 0 -1 I I #
point $-1 -68.268684957426672 -31.885249018477669 -9.5400797403562496 #
straight-curve $-1 -68.268684957426672 0 -9.5400797403562496 0 1 0 I I #
point $-1 -68.268684957426672 31.885249018477669 -9.5400797403562496 #
loop $-1 $-1 $385 $244 #
plane-surface $-1 0 0 -9.5400797403562496 0 0 1 1 0 0 forward_v I I I I #
coedge $-1 $326 $334 $386 $387 forward $245 $-1 #
straight-curve $-1 -79.162333932613706 0 -9.0400797403562496 0 1 0 I I #
point $-1 -79.162333932613706 31.885249018477669 -9.0400797403562496 #
coedge $-1 $333 $251 $388 $389 reversed $191 $-1 #
point $-1 -79.162333932613706 -31.885249018477669 -9.0400797403562496 #
coedge $-1 $254 $263 $390 $391 reversed $186 $-1 #
coedge $-1 $390 $388 $256 $323 forward $314 $-1 #
edge $-1 $325 -31.885249018477669 $324 31.885249018477669 $256 $392 forward 7 unknown #
vertex $-1 $391 $393 #
vertex $-1 $323 $394 #
coedge $-1 $270 $316 $262 $327 forward $245 $-1 #
edge $-1 $395 -68.268684957426672 $274 68.268684957426672 $262 $396 forward 7 unknown #
coedge $-1 $386 $397 $263 $329 reversed $398 $-1 #
edge $-1 $395 -9.5400797403562496 $399 9.5400797403562496 $328 $400 forward 7 unknown #
face $-1 $-1 $398 $13 $-1 $401 reversed single #
plane-surface $-1 0 31.885249018477669 0 0 -1 0 0 0 -1 forward_v I I I I #
straight-curve $-1 -79.162333932613706 -31.885249018477669 -7.5400797403562496 0 0 -1 I I #
coedge $-1 $267 $319 $402 $403 reversed $191 $-1 #
coedge $-1 $316 $270 $267 $335 forward $245 $-1 #
edge $-1 $272 -68.268684957426672 $404 68.268684957426672 $267 $405 forward 7 unknown #
plane-surface $-1 0 -31.885249018477669 0 0 1 0 0 0 1 forward_v I I I I #
straight-curve $-1 -68.268684957426672 0 9.5400797403562496 0 -1 0 I I #
point $-1 -68.268684957426672 -31.885249018477669 9.5400797403562496 #
point $-1 -68.268684957426672 31.885249018477669 9.5400797403562496 #
face $-1 $406 $407 $14 $-1 $408 reversed single #
loop $-1 $-1 $409 $276 #
plane-surface $-1 -79.162333932613706 0 -7.5400797403562496 1 0 0 0 0 -1 forward_v I I I I #
coedge $-1 $410 $411 $412 $413 reversed $277 $-1 #
coedge $-1 $414 $279 $415 $416 forward $200 $-1 #
coedge $-1 $279 $414 $355 $417 forward $200 $-1 #
coedge $-1 $356 $418 $279 $347 forward $419 $-1 #
edge $-1 $420 -31.885249018477669 $421 31.885249018477669 $346 $422 forward 7 unknown #
coedge $-1 $423 $424 $280 $349 forward $425 $-1 #
edge $-1 $351 -9.5400797403562496 $365 9.5400797403562496 $280 $426 forward 7 unknown #
coedge $-1 $354 $281 $424 $427 forward $283 $-1 #
vertex $-1 $282 $428 #
straight-curve $-1 68.268684957426672 0 9.5400797403562496 0 1 0 I I #
face $-1 $429 $283 $14 $-1 $430 forward single #
coedge $-1 $286 $350 $431 $432 forward $283 $-1 #
coedge $-1 $433 $289 $345 $417 reversed $120 $-1 #
coedge $-1 $431 $346 $289 $357 reversed $419 $-1 #
edge $-1 $358 -9.5400797403562496 $421 6.0400797403562496 $356 $434 forward 7 unknown #
vertex $-1 $432 $435 #
straight-curve $-1 0 -31.885249018477669 9.5400797403562496 1 0 0 I I #
coedge $-1 $291 $436 $437 $438 forward $120 $-1 #
coedge $-1 $439 $293 $291 $362 forward $364 $-1 #
edge $-1 $295 -68.268684957426672 $440 68.268684957426672 $291 $441 forward 7 unknown #
coedge $-1 $293 $439 $423 $442 forward $364 $-1 #
loop $-1 $-1 $293 $429 #
vertex $-1 $294 $443 #
straight-curve $-1 68.268684957426672 0 -9.5400797403562496 0 -1 0 I I #
point $-1 68.268684957426672 -31.885249018477669 -9.5400797403562496 #
face $-1 $444 $445 $15 $-1 $446 reversed single #
loop $-1 $-1 $447 $297 #
plane-surface $-1 -73.715509445020189 0 -6.0400797403562496 0 0 1 1 0 0 forward_v I I I I #
coedge $-1 $448 $449 $305 $380 forward $298 $-1 #
coedge $-1 $300 $450 $451 $452 reversed $220 $-1 #
coedge $-1 $451 $453 $301 $374 forward $454 $-1 #
edge $-1 $455 36.417797975167787 $376 45.900400121439361 $373 $456 forward 7 unknown #
edge $-1 $455 124.50377497283353 $377 136.53736991485337 $302 $457 forward 7 unknown #
vertex $-1 $452 $458 #
vertex $-1 $307 $459 #
straight-curve $-1 68.268684957426672 -18.894299238318343 96.892586711740563 0 0 -1 I I #
coedge $-1 $305 $304 $453 $460 reversed $137 $-1 #
edge $-1 $382 -94.510785139274248 $461 -82.477190197254416 $371 $462 forward 7 unknown #
coedge $-1 $463 $306 $449 $464 forward $220 $-1 #
vertex $-1 $464 $465 #
straight-curve $-1 68.268684957426672 -12.694887064199003 2.1314588319731484 0 -1 0 I I #
point $-1 61.013462577880347 -25.389774128398006 2.6180968110145555 #
coedge $-1 $388 $390 $397 $466 forward $314 $-1 #
coedge $-1 $402 $328 $316 $387 reversed $398 $-1 #
edge $-1 $404 -31.885249018477669 $395 31.885249018477669 $386 $467 forward 7 unknown #
coedge $-1 $322 $385 $319 $389 forward $314 $-1 #
edge $-1 $468 -68.268684957426672 $325 68.268684957426672 $319 $469 forward 7 unknown #
coedge $-1 $385 $322 $321 $391 forward $314 $-1 #
edge $-1 $324 -68.268684957426672 $399 68.268684957426672 $321 $470 forward 7 unknown #
straight-curve $-1 -68.268684957426672 0 -9.5400797403562496 0 1 0 I I #
point $-1 -68.268684957426672 31.885249018477669 -9.5400797403562496 #
point $-1 -68.268684957426672 -31.885249018477669 -9.5400797403562496 #
vertex $-1 $387 $471 #
straight-curve $-1 0 31.885249018477669 9.5400797403562496 -1 0 0 I I #
coedge $-1 $328 $402 $385 $466 reversed $398 $-1 #
loop $-1 $-1 $402 $330 #
vertex $-1 $466 $472 #
straight-curve $-1 68.268684957426672 31.885249018477669 0 0 0 -1 I I #
plane-surface $-1 68.268684957426672 0 0 -1 0 0 0 0 1 forward_v I I I I #
coedge $-1 $397 $386 $333 $403 forward $398 $-1 #
edge $-1 $404 -9.5400797403562496 $468 9.5400797403562496 $402 $473 forward 7 unknown #
vertex $-1 $387 $474 #
straight-curve $-1 0 -31.885249018477669 9.5400797403562496 1 0 0 I I #
face $-1 $353 $419 $14 $-1 $408 reversed single #
loop $-1 $-1 $412 $340 #
plane-surface $-1 -68.268684957426672 0 0 1 0 0 0 0 -1 forward_v I I I I #
coedge $-1 $475 $476 $477 $478 forward $341 $-1 #
coedge $-1 $479 $343 $436 $480 forward $277 $-1 #
coedge $-1 $343 $479 $481 $482 forward $277 $-1 #
coedge $-1 $483 $437 $343 $413 forward $407 $-1 #
edge $-1 $484 -31.885249018477669 $485 31.885249018477669 $412 $486 forward 7 unknown #
coedge $-1 $345 $344 $476 $487 forward $200 $-1 #
coedge $-1 $488 $477 $344 $416 reversed $425 $-1 #
edge $-1 $420 -5.446824487593517 $489 5.446824487593517 $415 $490 forward 7 unknown #
edge $-1 $491 -5.446824487593517 $421 5.446824487593517 $355 $492 forward 7 unknown #
coedge $-1 $346 $431 $488 $493 forward $419 $-1 #
loop $-1 $-1 $346 $406 #
vertex $-1 $493 $494 #
vertex $-1 $417 $495 #
straight-curve $-1 -68.268684957426672 0 -6.0400797403562496 0 -1 0 I I #
coedge $-1 $496 $348 $363 $442 reversed $425 $-1 #
coedge $-1 $348 $488 $350 $427 reversed $425 $-1 #
loop $-1 $-1 $348 $497 #
straight-curve $-1 68.268684957426672 31.885249018477669 0 0 0 -1 I I #
edge $-1 $351 -68.268684957426672 $498 68.268684957426672 $424 $499 forward 7 unknown #
point $-1 68.268684957426672 31.885249018477669 9.5400797403562496 #
face $-1 $497 $364 $14 $-1 $500 reversed single #
plane-surface $-1 0 0 9.5400797403562496 0 0 1 1 0 0 forward_v I I I I #
coedge $-1 $418 $356 $354 $432 reversed $419 $-1 #
edge $-1 $498 -31.885249018477669 $358 31.885249018477669 $431 $501 forward 7 unknown #
coedge $-1 $436 $355 $502 $503 forward $120 $-1 #
straight-curve $-1 -68.268684957426672 -31.885249018477669 0 0 0 -1 I I #
point $-1 -68.268684957426672 -31.885249018477669 9.5400797403562496 #
coedge $-1 $360 $433 $410 $480 reversed $120 $-1 #
coedge $-1 $412 $504 $360 $438 reversed $407 $-1 #
edge $-1 $484 9.0400797403562496 $440 9.5400797403562496 $437 $434 forward 7 unknown #
coedge $-1 $363 $361 $504 $505 forward $364 $-1 #
vertex $-1 $505 $506 #
straight-curve $-1 0 -31.885249018477669 -9.5400797403562496 -1 0 0 I I #
edge $-1 $507 -68.268684957426672 $365 68.268684957426672 $423 $508 forward 7 unknown #
point $-1 68.268684957426672 31.885249018477669 -9.5400797403562496 #
face $-1 $509 $510 $15 $-1 $511 reversed single #
loop $-1 $-1 $512 $368 #
plane-surface $-1 -73.715509445020189 0 -9.0400797403562496 0 0 1 1 0 0 forward_v I I I I #
coedge $-1 $513 $514 $515 $516 reversed $369 $-1 #
coedge $-1 $517 $371 $518 $519 reversed $298 $-1 #
coedge $-1 $371 $520 $381 $464 reversed $298 $-1 #
coedge $-1 $372 $463 $521 $522 reversed $220 $-1 #
coedge $-1 $523 $373 $372 $452 forward $454 $-1 #
edge $-1 $376 -18.894299238318343 $524 31.885249018477669 $372 $525 forward 7 unknown #
coedge $-1 $373 $518 $379 $460 forward $454 $-1 #
loop $-1 $-1 $373 $526 #
vertex $-1 $460 $527 #
straight-curve $-1 22.368284835987311 -18.894299238318343 9.5400797403562478 1 0 0 I I #
straight-curve $-1 -39.32422998105335 -18.894299238318343 86.192258485001133 0.78801074757464917 0 -0.61566148304635926 I I #
point $-1 68.268684957426672 -18.894299238318343 9.5400797403562496 #
point $-1 68.268684957426672 -18.894299238318343 2.1314588319731484 #
edge $-1 $461 -19.190361954278664 $455 -6.19941217411934 $453 $528 forward 7 unknown #
vertex $-1 $460 $529 #
straight-curve $-1 -6.2068294940398854 -31.885249018477669 60.318108974694553 -0.78801074757464917 0 0.61566148304635926 I I #
coedge $-1 $450 $381 $530 $531 reversed $220 $-1 #
edge $-1 $382 -2.1314588319731542 $532 9.5400797403562496 $381 $533 forward 7 unknown #
point $-1 68.268684957426672 -31.885249018477669 2.1314588319731542 #
edge $-1 $399 -31.885249018477669 $468 31.885249018477669 $397 $534 forward 7 unknown #
straight-curve $-1 68.268684957426672 0 9.5400797403562496 0 1 0 I I #
vertex $-1 $403 $535 #
straight-curve $-1 0 -31.885249018477669 -9.5400797403562496 -1 0 0 I I #
straight-curve $-1 0 31.885249018477669 -9.5400797403562496 1 0 0 I I #
point $-1 68.268684957426672 31.885249018477669 9.5400797403562496 #
point $-1 68.268684957426672 31.885249018477669 -9.5400797403562496 #
straight-curve $-1 68.268684957426672 -31.885249018477669 0 0 0 -1 I I #
point $-1 68.268684957426672 -31.885249018477669 9.5400797403562496 #
coedge $-1 $502 $409 $479 $536 reversed $341 $-1 #
coedge $-1 $409 $502 $414 $487 reversed $341 $-1 #
coedge $-1 $415 $481 $409 $478 reversed $425 $-1 #
edge $-1 $489 -1.5 $537 1.5 $477 $538 forward 7 unknown #
coedge $-1 $411 $410 $475 $536 forward $277 $-1 #
edge $-1 $484 -5.446824487593517 $539 5.446824487593517 $436 $540 forward 7 unknown #
coedge $-1 $477 $496 $411 $482 reversed $425 $-1 #
edge $-1 $537 -5.446824487593517 $485 5.446824487593517 $481 $541 forward 7 unknown #
coedge $-1 $504 $412 $496 $542 forward $407 $-1 #
vertex $-1 $438 $543 #
vertex $-1 $542 $544 #
straight-curve $-1 -68.268684957426672 0 -9.0400797403562496 0 1 0 I I #
edge $-1 $489 -31.885249018477669 $491 31.885249018477669 $476 $545 forward 7 unknown #
coedge $-1 $424 $415 $418 $493 reversed $425 $-1 #
vertex $-1 $416 $546 #
straight-curve $-1 -73.715509445020189 31.885249018477669 -6.0400797403562496 -1 0 0 I I #
vertex $-1 $487 $547 #
straight-curve $-1 -73.715509445020189 -31.885249018477669 -6.0400797403562496 1 0 0 I I #
edge $-1 $498 -9.5400797403562496 $420 6.0400797403562496 $488 $548 forward 7 unknown #
point $-1 -68.268684957426672 31.885249018477669 -6.0400797403562496 #
point $-1 -68.268684957426672 -31.885249018477669 -6.0400797403562496 #
coedge $-1 $481 $423 $483 $542 reversed $425 $-1 #
face $-1 $-1 $425 $14 $-1 $549 reversed single #
vertex $-1 $427 $550 #
straight-curve $-1 0 31.885249018477669 9.5400797403562496 -1 0 0 I I #
plane-surface $-1 0 0 -9.5400797403562496 0 0 1 1 0 0 forward_v I I I I #
straight-curve $-1 -68.268684957426672 0 9.5400797403562496 0 -1 0 I I #
coedge $-1 $476 $475 $433 $503 reversed $341 $-1 #
edge $-1 $491 -1.5 $539 1.5 $502 $551 forward 7 unknown #
coedge $-1 $437 $483 $439 $505 reversed $407 $-1 #
edge $-1 $440 -31.885249018477669 $507 31.885249018477669 $504 $552 forward 7 unknown #
point $-1 -68.268684957426672 -31.885249018477669 -9.5400797403562496 #
vertex $-1 $442 $553 #
straight-curve $-1 0 31.885249018477669 -9.5400797403562496 1 0 0 I I #
face $-1 $554 $555 $15 $-1 $556 reversed single #
loop $-1 $-1 $557 $444 #
plane-surface $-1 -79.162333932613706 0 -7.5400797403562496 1 0 0 0 0 -1 forward_v I I I I #
coedge $-1 $558 $559 $560 $561 reversed $445 $-1 #
coedge $-1 $562 $447 $563 $564 forward $369 $-1 #
coedge $-1 $447 $562 $565 $566 forward $369 $-1 #
coedge $-1 $567 $568 $447 $516 forward $569 $-1 #
edge $-1 $570 -31.885249018477669 $571 31.885249018477669 $515 $572 forward 7 unknown #
coedge $-1 $565 $448 $567 $573 forward $298 $-1 #
coedge $-1 $453 $574 $448 $519 forward $454 $-1 #
edge $-1 $575 -68.268684957426672 $461 58.786082811155097 $448 $576 forward 7 unknown #
coedge $-1 $449 $577 $578 $579 reversed $298 $-1 #
coedge $-1 $580 $581 $450 $522 forward $582 $-1 #
edge $-1 $524 -9.5400797403562496 $583 9.5400797403562496 $450 $584 forward 7 unknown #
coedge $-1 $574 $451 $581 $585 forward $454 $-1 #
vertex $-1 $452 $586 #
straight-curve $-1 68.268684957426672 0 9.5400797403562496 0 1 0 I I #
face $-1 $587 $454 $15 $-1 $588 forward single #
point $-1 58.786082811155097 -18.894299238318343 9.5400797403562478 #
straight-curve $-1 58.786082811155111 -12.694887064199003 9.5400797403562407 0 1 0 I I #
point $-1 58.786082811155097 -31.885249018477669 9.5400797403562478 #
coedge $-1 $578 $589 $463 $531 forward $590 $-1 #
edge $-1 $583 -31.885249018477669 $532 31.885249018477669 $463 $591 forward 7 unknown #
vertex $-1 $464 $592 #
straight-curve $-1 68.268684957426672 -31.885249018477669 0 0 0 -1 I I #
straight-curve $-1 68.268684957426672 0 -9.5400797403562496 0 -1 0 I I #
point $-1 68.268684957426672 -31.885249018477669 -9.5400797403562496 #
edge $-1 $539 -31.885249018477669 $537 31.885249018477669 $475 $593 forward 7 unknown #
vertex $-1 $482 $594 #
straight-curve $-1 -79.162333932613706 31.885249018477669 -7.5400797403562496 0 0 -1 I I #
vertex $-1 $536 $595 #
straight-curve $-1 -73.715509445020189 -31.885249018477669 -9.0400797403562496 -1 0 0 I I #
straight-curve $-1 -73.715509445020189 31.885249018477669 -9.0400797403562496 1 0 0 I I #
edge $-1 $485 9.0400797403562496 $507 9.5400797403562496 $496 $548 forward 7 unknown #
point $-1 -68.268684957426672 -31.885249018477669 -9.0400797403562496 #
point $-1 -68.268684957426672 31.885249018477669 -9.0400797403562496 #
straight-curve $-1 -79.162333932613706 0 -6.0400797403562496 0 -1 0 I I #
point $-1 -79.162333932613706 31.885249018477669 -6.0400797403562496 #
point $-1 -79.162333932613706 -31.885249018477669 -6.0400797403562496 #
straight-curve $-1 -68.268684957426672 31.885249018477669 0 0 0 -1 I I #
plane-surface $-1 0 31.885249018477669 0 0 -1 0 0 0 -1 forward_v I I I I #
point $-1 -68.268684957426672 31.885249018477669 9.5400797403562496 #
straight-curve $-1 -79.162333932613706 -31.885249018477669 -7.5400797403562496 0 0 -1 I I #
straight-curve $-1 -68.268684957426672 0 -9.5400797403562496 0 1 0 I I #
point $-1 -68.268684957426672 31.885249018477669 -9.5400797403562496 #
face $-1 $526 $569 $15 $-1 $556 reversed single #
loop $-1 $-1 $560 $509 #
plane-surface $-1 -68.268684957426672 0 0 1 0 0 0 0 -1 forward_v I I I I #
coedge $-1 $596 $597 $598 $599 forward $510 $-1 #
coedge $-1 $600 $512 $601 $602 forward $445 $-1 #
coedge $-1 $512 $600 $603 $604 forward $445 $-1 #
coedge $-1 $605 $606 $512 $561 forward $555 $-1 #
edge $-1 $607 -31.885249018477669 $608 31.885249018477669 $560 $609 forward 7 unknown #
coedge $-1 $514 $513 $597 $610 forward $369 $-1 #
coedge $-1 $611 $598 $513 $564 reversed $582 $-1 #
edge $-1 $570 -5.446824487593517 $612 5.446824487593517 $563 $613 forward 7 unknown #
coedge $-1 $614 $517 $514 $566 reversed $298 $-1 #
edge $-1 $615 -5.446824487593517 $571 5.446824487593517 $565 $616 forward 7 unknown #
coedge $-1 $617 $515 $517 $573 reversed $569 $-1 #
coedge $-1 $515 $617 $611 $618 forward $569 $-1 #
loop $-1 $-1 $515 $554 #
vertex $-1 $618 $619 #
vertex $-1 $566 $620 #
straight-curve $-1 -68.268684957426672 0 -6.0400797403562496 0 -1 0 I I #
edge $-1 $575 -9.5400797403562496 $571 6.0400797403562496 $567 $621 forward 7 unknown #
coedge $-1 $518 $523 $617 $622 forward $454 $-1 #
vertex $-1 $622 $623 #
straight-curve $-1 0 -31.885249018477669 9.5400797403562496 1 0 0 I I #
coedge $-1 $520 $601 $606 $624 forward $298 $-1 #
coedge $-1 $625 $530 $520 $579 forward $590 $-1 #
edge $-1 $532 -68.268684957426672 $626 68.268684957426672 $520 $627 forward 7 unknown #
coedge $-1 $628 $521 $589 $629 reversed $582 $-1 #
coedge $-1 $521 $611 $523 $585 reversed $582 $-1 #
loop $-1 $-1 $521 $630 #
vertex $-1 $531 $631 #
straight-curve $-1 68.268684957426672 31.885249018477669 0 0 0 -1 I I #
edge $-1 $524 -68.268684957426672 $632 68.268684957426672 $581 $633 forward 7 unknown #
point $-1 68.268684957426672 31.885249018477669 9.5400797403562496 #
face $-1 $630 $590 $15 $-1 $634 reversed single #
plane-surface $-1 0 0 9.5400797403562496 0 0 1 1 0 0 forward_v I I I I #
coedge $-1 $530 $625 $580 $629 forward $590 $-1 #
loop $-1 $-1 $530 $587 #
straight-curve $-1 68.268684957426672 0 -9.5400797403562496 0 -1 0 I I #
point $-1 68.268684957426672 -31.885249018477669 -9.5400797403562496 #
straight-curve $-1 -79.162333932613706 0 -9.0400797403562496 0 1 0 I I #
point $-1 -79.162333932613706 31.885249018477669 -9.0400797403562496 #
point $-1 -79.162333932613706 -31.885249018477669 -9.0400797403562496 #
coedge $-1 $635 $557 $600 $636 reversed $510 $-1 #
coedge $-1 $557 $635 $562 $610 reversed $510 $-1 #
coedge $-1 $563 $603 $557 $599 reversed $582 $-1 #
edge $-1 $612 -1.5 $637 1.5 $598 $638 forward 7 unknown #
coedge $-1 $559 $558 $596 $636 forward $445 $-1 #
coedge $-1 $577 $614 $558 $602 reversed $298 $-1 #
edge $-1 $607 -5.446824487593517 $639 5.446824487593517 $601 $640 forward 7 unknown #
coedge $-1 $598 $628 $559 $604 reversed $582 $-1 #
edge $-1 $637 -5.446824487593517 $608 5.446824487593517 $603 $641 forward 7 unknown #
coedge $-1 $642 $560 $628 $643 forward $555 $-1 #
coedge $-1 $560 $642 $577 $624 reversed $555 $-1 #
vertex $-1 $624 $644 #
vertex $-1 $643 $645 #
straight-curve $-1 -68.268684957426672 0 -9.0400797403562496 0 1 0 I I #
edge $-1 $612 -31.885249018477669 $615 31.885249018477669 $597 $646 forward 7 unknown #
coedge $-1 $581 $563 $568 $618 reversed $582 $-1 #
vertex $-1 $564 $647 #
straight-curve $-1 -73.715509445020189 31.885249018477669 -6.0400797403562496 -1 0 0 I I #
coedge $-1 $601 $565 $635 $648 forward $298 $-1 #
vertex $-1 $610 $649 #
straight-curve $-1 -73.715509445020189 -31.885249018477669 -6.0400797403562496 1 0 0 I I #
coedge $-1 $568 $567 $574 $622 reversed $569 $-1 #
edge $-1 $632 -9.5400797403562496 $570 6.0400797403562496 $611 $650 forward 7 unknown #
point $-1 -68.268684957426672 31.885249018477669 -6.0400797403562496 #
point $-1 -68.268684957426672 -31.885249018477669 -6.0400797403562496 #
straight-curve $-1 -68.268684957426672 -31.885249018477669 0 0 0 -1 I I #
edge $-1 $632 -31.885249018477669 $575 31.885249018477669 $617 $651 forward 7 unknown #
point $-1 -68.268684957426672 -31.885249018477669 9.5400797403562496 #
edge $-1 $607 9.0400797403562496 $626 9.5400797403562496 $606 $621 forward 7 unknown #
coedge $-1 $589 $578 $642 $652 forward $590 $-1 #
vertex $-1 $652 $653 #
straight-curve $-1 0 -31.885249018477669 -9.5400797403562496 -1 0 0 I I #
coedge $-1 $603 $580 $605 $643 reversed $582 $-1 #
edge $-1 $654 -68.268684957426672 $583 68.268684957426672 $580 $655 forward 7 unknown #
face $-1 $-1 $582 $15 $-1 $656 reversed single #
point $-1 68.268684957426672 31.885249018477669 -9.5400797403562496 #
vertex $-1 $585 $657 #
straight-curve $-1 0 31.885249018477669 9.5400797403562496 -1 0 0 I I #
plane-surface $-1 0 0 -9.5400797403562496 0 0 1 1 0 0 forward_v I I I I #
coedge $-1 $597 $596 $614 $648 reversed $510 $-1 #
edge $-1 $639 -31.885249018477669 $637 31.885249018477669 $596 $658 forward 7 unknown #
vertex $-1 $604 $659 #
straight-curve $-1 -79.162333932613706 31.885249018477669 -7.5400797403562496 0 0 -1 I I #
vertex $-1 $636 $660 #
straight-curve $-1 -73.715509445020189 -31.885249018477669 -9.0400797403562496 -1 0 0 I I #
straight-curve $-1 -73.715509445020189 31.885249018477669 -9.0400797403562496 1 0 0 I I #
coedge $-1 $606 $605 $625 $652 reversed $555 $-1 #
edge $-1 $608 9.0400797403562496 $654 9.5400797403562496 $628 $650 forward 7 unknown #
point $-1 -68.268684957426672 -31.885249018477669 -9.0400797403562496 #
point $-1 -68.268684957426672 31.885249018477669 -9.0400797403562496 #
straight-curve $-1 -79.162333932613706 0 -6.0400797403562496 0 -1 0 I I #
point $-1 -79.162333932613706 31.885249018477669 -6.0400797403562496 #
edge $-1 $615 -1.5 $639 1.5 $635 $661 forward 7 unknown #
point $-1 -79.162333932613706 -31.885249018477669 -6.0400797403562496 #
straight-curve $-1 -68.268684957426672 31.885249018477669 0 0 0 -1 I I #
straight-curve $-1 -68.268684957426672 0 9.5400797403562496 0 -1 0 I I #
edge $-1 $626 -31.885249018477669 $654 31.885249018477669 $642 $662 forward 7 unknown #
point $-1 -68.268684957426672 -31.885249018477669 -9.5400797403562496 #
vertex $-1 $629 $663 #
straight-curve $-1 0 31.885249018477669 -9.5400797403562496 1 0 0 I I #
plane-surface $-1 0 31.885249018477669 0 0 -1 0 0 0 -1 forward_v I I I I #
point $-1 -68.268684957426672 31.885249018477669 9.5400797403562496 #
straight-curve $-1 -79.162333932613706 0 -9.0400797403562496 0 1 0 I I #
point $-1 -79.162333932613706 31.885249018477669 -9.0400797403562496 #
point $-1 -79.162333932613706 -31.885249018477669 -9.0400797403562496 #
straight-curve $-1 -79.162333932613706 -31.885249018477669 -7.5400797403562496 0 0 -1 I I #
straight-curve $-1 -68.268684957426672 0 -9.5400797403562496 0 1 0 I I #
point $-1 -68.268684957426672 31.885249018477669 -9.5400797403562496 #
End-of-ACIS-data 