500 0 13 0           
7 Unknown 11 ACIS 5.0 NT 24 Fri Mar 26 18:13:26 1999 
-1 9.9999999999999995e-007 1e-010 
body $-1 $13 $-1 $14 #
body $-1 $15 $-1 $16 #
body $-1 $17 $-1 $18 #
body $-1 $19 $-1 $20 #
body $-1 $21 $-1 $22 #
body $-1 $23 $-1 $24 #
body $-1 $25 $-1 $26 #
body $-1 $27 $-1 $28 #
body $-1 $29 $-1 $30 #
body $-1 $31 $-1 $32 #
body $-1 $33 $-1 $34 #
body $-1 $35 $-1 $36 #
body $-1 $37 $-1 $38 #
lump $-1 $-1 $39 $0 #
transform $-1 1 0 0 0 1 0 0 0 1 52.528458510086367 29.119333005965263 6.4263907193010406 1 rotate no_reflect no_shear #
lump $-1 $-1 $40 $1 #
transform $-1 1 0 0 0 1 0 0 0 1 52.528458510086367 29.119333005965263 6.4263907193010406 1 rotate no_reflect no_shear #
lump $-1 $-1 $41 $2 #
transform $-1 1 0 0 0 1 0 0 0 1 52.528458510086367 29.119333005965263 6.4263907193010406 1 rotate no_reflect no_shear #
lump $-1 $-1 $42 $3 #
transform $-1 1 0 0 0 1 0 0 0 1 52.528458510086367 29.119333005965263 6.4263907193010406 1 rotate no_reflect no_shear #
lump $-1 $-1 $43 $4 #
transform $-1 1 0 0 0 1 0 0 0 1 52.528458510086367 29.119333005965263 6.4263907193010406 1 rotate no_reflect no_shear #
lump $-1 $-1 $44 $5 #
transform $-1 1 0 0 0 1 0 0 0 1 52.528458510086367 29.119333005965263 6.4263907193010406 1 rotate no_reflect no_shear #
lump $-1 $-1 $45 $6 #
transform $-1 1 0 0 0 1 0 0 0 1 52.528458510086367 29.119333005965263 6.4263907193010406 1 rotate no_reflect no_shear #
lump $-1 $-1 $46 $7 #
transform $-1 1 0 0 0 1 0 0 0 1 52.528458510086367 29.119333005965263 6.4263907193010406 1 rotate no_reflect no_shear #
lump $-1 $-1 $47 $8 #
transform $-1 1 0 0 0 1 0 0 0 1 52.528458510086367 29.119333005965263 6.4263907193010406 1 rotate no_reflect no_shear #
lump $-1 $-1 $48 $9 #
transform $-1 1 0 0 0 1 0 0 0 1 52.528458510086367 29.119333005965263 6.4263907193010406 1 rotate no_reflect no_shear #
lump $-1 $-1 $49 $10 #
transform $-1 1 0 0 0 1 0 0 0 1 52.528458510086367 29.119333005965263 6.4263907193010406 1 rotate no_reflect no_shear #
lump $-1 $-1 $50 $11 #
transform $-1 1 0 0 0 1 0 0 0 1 52.528458510086367 29.119333005965263 6.4263907193010406 1 rotate no_reflect no_shear #
lump $-1 $-1 $51 $12 #
transform $-1 1 0 0 0 1 0 0 0 1 52.528458510086367 29.119333005965263 6.4263907193010406 1 rotate no_reflect no_shear #
shell $-1 $-1 $-1 $52 $-1 $13 #
shell $-1 $-1 $-1 $53 $-1 $15 #
shell $-1 $-1 $-1 $54 $-1 $17 #
shell $-1 $-1 $-1 $55 $-1 $19 #
shell $-1 $-1 $-1 $56 $-1 $21 #
shell $-1 $-1 $-1 $57 $-1 $23 #
shell $-1 $-1 $-1 $58 $-1 $25 #
shell $-1 $-1 $-1 $59 $-1 $27 #
shell $-1 $-1 $-1 $60 $-1 $29 #
shell $-1 $-1 $-1 $61 $-1 $31 #
shell $-1 $-1 $-1 $62 $-1 $33 #
shell $-1 $-1 $-1 $63 $-1 $35 #
shell $-1 $-1 $-1 $64 $-1 $37 #
face $-1 $65 $66 $39 $-1 $67 forward single #
face $-1 $68 $69 $40 $-1 $70 forward single #
face $-1 $71 $72 $41 $-1 $73 reversed single #
face $-1 $74 $75 $42 $-1 $76 forward single #
face $-1 $77 $78 $43 $-1 $79 forward single #
face $-1 $80 $81 $44 $-1 $82 reversed single #
face $-1 $83 $84 $45 $-1 $85 forward single #
face $-1 $86 $87 $46 $-1 $88 forward single #
face $-1 $89 $90 $47 $-1 $91 forward single #
face $-1 $92 $93 $48 $-1 $94 reversed single #
face $-1 $95 $96 $49 $-1 $97 forward single #
face $-1 $98 $99 $50 $-1 $100 forward single #
face $-1 $101 $102 $51 $-1 $103 forward single #
face $-1 $104 $105 $39 $-1 $106 reversed single #
loop $-1 $-1 $107 $52 #
plane-surface $-1 0 0 6.4263907193010406 0 0 1 1 0 0 forward_v I I I I #
face $-1 $108 $109 $40 $-1 $110 reversed single #
loop $-1 $-1 $111 $53 #
plane-surface $-1 0 -26.124309757401043 -3.4263907193010406 0 0 1 1 0 0 forward_v I I I I #
face $-1 $112 $113 $41 $-1 $114 reversed single #
loop $-1 $-1 $115 $54 #
plane-surface $-1 -137.52129061580644 -16.784809878540702 62.744931909973857 0 1 0 -0.80901700255871778 0 0.5877852410284794 forward_v I I I I #
face $-1 $116 $117 $42 $-1 $118 forward single #
loop $-1 $119 $120 $55 #
cone-surface $-1 -49.495638571936865 -13.989219877431397 2.9405108284693897 0.80901700255871778 0 -0.5877852410284794 0.5877852410284794 0 0.80901700255871778 1 I I 0 1 1 forward I I I I #
face $-1 $121 $122 $43 $-1 $123 forward single #
loop $-1 $124 $125 $56 #
cone-surface $-1 -49.495638571936865 -9.7958348757674436 2.9405108284693897 0.80901700255871778 0 -0.5877852410284794 0.5877852410284794 0 0.80901700255871778 1 I I 0 1 1 forward I I I I #
face $-1 $126 $127 $44 $-1 $128 reversed single #
loop $-1 $-1 $129 $57 #
plane-surface $-1 62.892383157370134 -8.9115995699299368 148.5731207350789 0 -1 0 -0.75470958851134928 0 -0.65605901945558964 forward_v I I I I #
face $-1 $130 $131 $45 $-1 $132 forward single #
loop $-1 $133 $134 $58 #
cone-surface $-1 49.064169028350875 -18.120063596264114 2.6740561211221898 -0.75470958851134928 0 -0.65605901945558964 0.65605901945558964 0 -0.75470958851134928 1 I I 0 1 1 forward I I I I #
face $-1 $135 $136 $46 $-1 $137 forward single #
loop $-1 $138 $139 $59 #
cone-surface $-1 49.064169028350875 -14.666889586388798 2.6740561211221898 -0.75470958851134928 0 -0.65605901945558964 0.65605901945558964 0 -0.75470958851134928 1 I I 0 1 1 forward I I I I #
face $-1 $140 $141 $47 $-1 $142 forward single #
loop $-1 $143 $144 $60 #
cone-surface $-1 49.064169028350875 -11.213715576513483 2.6740561211221898 -0.75470958851134928 0 -0.65605901945558964 0.65605901945558964 0 -0.75470958851134928 1 I I 0 1 1 forward I I I I #
face $-1 $145 $146 $48 $-1 $147 reversed single #
loop $-1 $-1 $148 $61 #
plane-surface $-1 62.892383157370134 26.412226099976095 148.5731207350789 0 -1 0 -0.75470958851134928 0 -0.65605901945558964 forward_v I I I I #
face $-1 $149 $150 $49 $-1 $151 forward single #
loop $-1 $152 $153 $62 #
cone-surface $-1 49.064169028350875 17.203762073641915 2.6740561211221898 -0.75470958851134928 0 -0.65605901945558964 0.65605901945558964 0 -0.75470958851134928 1 I I 0 1 1 forward I I I I #
face $-1 $154 $155 $50 $-1 $156 forward single #
loop $-1 $157 $158 $63 #
cone-surface $-1 49.064169028350875 20.656936083517234 2.6740561211221898 -0.75470958851134928 0 -0.65605901945558964 0.65605901945558964 0 -0.75470958851134928 1 I I 0 1 1 forward I I I I #
face $-1 $159 $160 $51 $-1 $161 forward single #
loop $-1 $162 $163 $64 #
cone-surface $-1 49.064169028350875 24.110110093392546 2.6740561211221898 -0.75470958851134928 0 -0.65605901945558964 0.65605901945558964 0 -0.75470958851134928 1 I I 0 1 1 forward I I I I #
face $-1 $164 $165 $39 $-1 $166 reversed single #
loop $-1 $-1 $167 $65 #
plane-surface $-1 0 0 -6.4263907193010406 0 0 1 1 0 0 forward_v I I I I #
coedge $-1 $168 $169 $170 $171 forward $66 $-1 #
face $-1 $172 $173 $40 $-1 $174 reversed single #
loop $-1 $-1 $175 $68 #
plane-surface $-1 0 -23.129286508836824 -4.9263907193010406 0 -1 0 0 0 -1 forward_v I I I I #
coedge $-1 $176 $177 $178 $179 reversed $69 $-1 #
face $-1 $180 $181 $41 $-1 $182 reversed single #
loop $-1 $-1 $183 $71 #
plane-surface $-1 -52.528458510086352 -11.892527376599421 0.99402661756266752 -0.80901700255871778 0 0.5877852410284794 0.5877852410284794 0 0.80901700255871778 forward_v I I I I #
coedge $-1 $184 $185 $186 $187 reversed $72 $-1 #
face $-1 $-1 $188 $42 $-1 $189 forward single #
loop $-1 $190 $191 $74 #
cone-surface $-1 -48.03173184848918 -13.989219877431397 1.876920367992688 0.80901700255871778 0 -0.5877852410284794 0.2938926205142397 0 0.40450850127935889 1 I I -0.70710678118654746 0.70710678118654746 0.5 forward I I I I #
loop $-1 $-1 $192 $55 #
coedge $-1 $120 $120 $193 $194 reversed $75 $-1 #
face $-1 $-1 $195 $43 $-1 $196 forward single #
loop $-1 $197 $198 $77 #
cone-surface $-1 -48.03173184848918 -9.7958348757674436 1.876920367992688 0.80901700255871778 0 -0.5877852410284794 0.2938926205142397 0 0.40450850127935889 1 I I -0.70710678118654746 0.70710678118654746 0.5 forward I I I I #
loop $-1 $-1 $199 $56 #
coedge $-1 $125 $125 $200 $201 reversed $78 $-1 #
face $-1 $202 $203 $44 $-1 $204 reversed single #
loop $-1 $-1 $205 $80 #
plane-surface $-1 -16.395079457195394 -14.666889586388798 79.649582767797128 0.75470958851134928 0 0.65605901945558964 0.65605901945558964 0 -0.75470958851134928 forward_v I I I I #
coedge $-1 $206 $207 $208 $209 reversed $81 $-1 #
face $-1 $-1 $210 $45 $-1 $211 forward single #
loop $-1 $212 $213 $83 #
cone-surface $-1 47.858319673911254 -18.120063596264114 1.6258272962502778 -0.75470958851134928 0 -0.65605901945558964 0.32802950972779482 0 -0.37735479425567464 1 I I -0.70710678118654746 0.70710678118654746 0.5 forward I I I I #
loop $-1 $-1 $214 $58 #
coedge $-1 $134 $134 $215 $216 reversed $84 $-1 #
face $-1 $-1 $217 $46 $-1 $218 forward single #
loop $-1 $219 $220 $86 #
cone-surface $-1 47.858319673911254 -14.666889586388798 1.6258272962502778 -0.75470958851134928 0 -0.65605901945558964 0.32802950972779482 0 -0.37735479425567464 1 I I -0.70710678118654746 0.70710678118654746 0.5 forward I I I I #
loop $-1 $-1 $221 $59 #
coedge $-1 $139 $139 $222 $223 reversed $87 $-1 #
face $-1 $-1 $224 $47 $-1 $225 forward single #
loop $-1 $226 $227 $89 #
cone-surface $-1 47.858319673911254 -11.213715576513483 1.6258272962502778 -0.75470958851134928 0 -0.65605901945558964 0.32802950972779482 0 -0.37735479425567464 1 I I -0.70710678118654746 0.70710678118654746 0.5 forward I I I I #
loop $-1 $-1 $228 $60 #
coedge $-1 $144 $144 $229 $230 reversed $90 $-1 #
face $-1 $231 $232 $48 $-1 $233 reversed single #
loop $-1 $-1 $234 $92 #
plane-surface $-1 -16.395079457195394 20.656936083517234 79.649582767797128 0.75470958851134928 0 0.65605901945558964 0.65605901945558964 0 -0.75470958851134928 forward_v I I I I #
coedge $-1 $235 $236 $237 $238 reversed $93 $-1 #
face $-1 $-1 $239 $49 $-1 $240 forward single #
loop $-1 $241 $242 $95 #
cone-surface $-1 47.858319673911254 17.203762073641915 1.6258272962502778 -0.75470958851134928 0 -0.65605901945558964 0.32802950972779482 0 -0.37735479425567464 1 I I -0.70710678118654746 0.70710678118654746 0.5 forward I I I I #
loop $-1 $-1 $243 $62 #
coedge $-1 $153 $153 $244 $245 reversed $96 $-1 #
face $-1 $-1 $246 $50 $-1 $247 forward single #
loop $-1 $248 $249 $98 #
cone-surface $-1 47.858319673911254 20.656936083517234 1.6258272962502778 -0.75470958851134928 0 -0.65605901945558964 0.32802950972779482 0 -0.37735479425567464 1 I I -0.70710678118654746 0.70710678118654746 0.5 forward I I I I #
loop $-1 $-1 $250 $63 #
coedge $-1 $158 $158 $251 $252 reversed $99 $-1 #
face $-1 $-1 $253 $51 $-1 $254 forward single #
loop $-1 $255 $256 $101 #
cone-surface $-1 47.858319673911254 24.110110093392546 1.6258272962502778 -0.75470958851134928 0 -0.65605901945558964 0.32802950972779482 0 -0.37735479425567464 1 I I -0.70710678118654746 0.70710678118654746 0.5 forward I I I I #
loop $-1 $-1 $257 $64 #
coedge $-1 $163 $163 $258 $259 reversed $102 $-1 #
face $-1 $260 $261 $39 $-1 $262 reversed single #
loop $-1 $-1 $263 $104 #
plane-surface $-1 0 -29.119333005965263 0 0 1 0 0 0 1 forward_v I I I I #
coedge $-1 $264 $265 $266 $267 forward $105 $-1 #
coedge $-1 $268 $107 $269 $270 forward $66 $-1 #
coedge $-1 $107 $268 $271 $272 forward $66 $-1 #
coedge $-1 $273 $274 $107 $171 reversed $275 $-1 #
edge $-1 $276 -29.119333005965263 $277 29.119333005965263 $170 $278 forward 7 unknown #
face $-1 $279 $280 $40 $-1 $281 reversed single #
loop $-1 $-1 $282 $108 #
plane-surface $-1 0 0 -6.4263907193010406 0 0 1 1 0 0 forward_v I I I I #
coedge $-1 $283 $284 $285 $286 reversed $109 $-1 #
coedge $-1 $287 $111 $284 $288 forward $69 $-1 #
coedge $-1 $111 $287 $289 $290 reversed $69 $-1 #
coedge $-1 $291 $285 $111 $179 forward $280 $-1 #
edge $-1 $292 10.067131630136302 $293 16.057178127264741 $178 $294 forward 7 unknown #
face $-1 $295 $296 $41 $-1 $297 forward single #
loop $-1 $-1 $298 $112 #
plane-surface $-1 -137.52129061580644 -7.0002448746581409 62.744931909973857 0 -1 0 0.80901700255871778 0 -0.5877852410284794 forward_v I I I I #
coedge $-1 $299 $300 $301 $302 reversed $113 $-1 #
coedge $-1 $185 $115 $303 $304 reversed $72 $-1 #
coedge $-1 $115 $184 $299 $305 reversed $72 $-1 #
coedge $-1 $301 $306 $115 $187 forward $296 $-1 #
edge $-1 $307 16.232186797816851 $308 20.179030229779222 $186 $309 forward 7 unknown #
loop $-1 $-1 $193 $116 #
plane-surface $-1 -52.528458510086352 -11.892527376599421 0.99402661756266752 -0.80901700255871778 0 0.5877852410284794 0.5877852410284794 0 0.80901700255871778 forward_v I I I I #
loop $-1 $-1 $310 $74 #
coedge $-1 $191 $191 $192 $311 reversed $117 $-1 #
coedge $-1 $192 $192 $191 $311 forward $119 $-1 #
coedge $-1 $193 $193 $120 $194 forward $188 $-1 #
edge $-1 $312 0 $312 6.2831853071796004 $193 $313 forward 7 unknown #
loop $-1 $-1 $200 $121 #
plane-surface $-1 -52.528458510086352 -11.892527376599421 0.99402661756266752 -0.80901700255871778 0 0.5877852410284794 0.5877852410284794 0 0.80901700255871778 forward_v I I I I #
loop $-1 $-1 $314 $77 #
coedge $-1 $198 $198 $199 $315 reversed $122 $-1 #
coedge $-1 $199 $199 $198 $315 forward $124 $-1 #
coedge $-1 $200 $200 $125 $201 forward $195 $-1 #
edge $-1 $316 0 $316 6.2831853071796004 $200 $317 forward 7 unknown #
face $-1 $318 $319 $44 $-1 $320 reversed single #
loop $-1 $-1 $321 $126 #
plane-surface $-1 62.892383157370134 -20.42217960284766 148.5731207350789 0 1 0 0.75470958851134928 0 0.65605901945558964 forward_v I I I I #
coedge $-1 $322 $323 $324 $325 reversed $127 $-1 #
coedge $-1 $207 $129 $326 $327 reversed $81 $-1 #
coedge $-1 $129 $206 $322 $328 reversed $81 $-1 #
coedge $-1 $324 $329 $129 $209 forward $330 $-1 #
edge $-1 $331 -21.0822669314013 $332 -15.810677088298256 $208 $333 forward 7 unknown #
loop $-1 $-1 $215 $130 #
plane-surface $-1 -16.395079457195394 -14.666889586388798 79.649582767797128 0.75470958851134928 0 0.65605901945558964 0.65605901945558964 0 -0.75470958851134928 forward_v I I I I #
loop $-1 $-1 $334 $83 #
coedge $-1 $213 $213 $214 $335 reversed $131 $-1 #
coedge $-1 $214 $214 $213 $335 forward $133 $-1 #
coedge $-1 $215 $215 $134 $216 forward $210 $-1 #
edge $-1 $336 0 $336 6.2831853071796004 $215 $337 forward 7 unknown #
loop $-1 $-1 $222 $135 #
plane-surface $-1 -16.395079457195394 -14.666889586388798 79.649582767797128 0.75470958851134928 0 0.65605901945558964 0.65605901945558964 0 -0.75470958851134928 forward_v I I I I #
loop $-1 $-1 $338 $86 #
coedge $-1 $220 $220 $221 $339 reversed $136 $-1 #
coedge $-1 $221 $221 $220 $339 forward $138 $-1 #
coedge $-1 $222 $222 $139 $223 forward $217 $-1 #
edge $-1 $340 0 $340 6.2831853071796004 $222 $341 forward 7 unknown #
loop $-1 $-1 $229 $140 #
plane-surface $-1 -16.395079457195394 -14.666889586388798 79.649582767797128 0.75470958851134928 0 0.65605901945558964 0.65605901945558964 0 -0.75470958851134928 forward_v I I I I #
loop $-1 $-1 $342 $89 #
coedge $-1 $227 $227 $228 $343 reversed $141 $-1 #
coedge $-1 $228 $228 $227 $343 forward $143 $-1 #
coedge $-1 $229 $229 $144 $230 forward $224 $-1 #
edge $-1 $344 0 $344 6.2831853071796004 $229 $345 forward 7 unknown #
face $-1 $346 $347 $48 $-1 $348 reversed single #
loop $-1 $-1 $349 $145 #
plane-surface $-1 62.892383157370134 14.901646067058373 148.5731207350789 0 1 0 0.75470958851134928 0 0.65605901945558964 forward_v I I I I #
coedge $-1 $350 $351 $352 $353 reversed $146 $-1 #
coedge $-1 $236 $148 $354 $355 reversed $93 $-1 #
coedge $-1 $148 $235 $350 $356 reversed $93 $-1 #
coedge $-1 $352 $357 $148 $238 forward $358 $-1 #
edge $-1 $359 -21.0822669314013 $360 -15.810677088298256 $237 $361 forward 7 unknown #
loop $-1 $-1 $244 $149 #
plane-surface $-1 -16.395079457195394 20.656936083517234 79.649582767797128 0.75470958851134928 0 0.65605901945558964 0.65605901945558964 0 -0.75470958851134928 forward_v I I I I #
loop $-1 $-1 $362 $95 #
coedge $-1 $242 $242 $243 $363 reversed $150 $-1 #
coedge $-1 $243 $243 $242 $363 forward $152 $-1 #
coedge $-1 $244 $244 $153 $245 forward $239 $-1 #
edge $-1 $364 0 $364 6.2831853071796004 $244 $365 forward 7 unknown #
loop $-1 $-1 $251 $154 #
plane-surface $-1 -16.395079457195394 20.656936083517234 79.649582767797128 0.75470958851134928 0 0.65605901945558964 0.65605901945558964 0 -0.75470958851134928 forward_v I I I I #
loop $-1 $-1 $366 $98 #
coedge $-1 $249 $249 $250 $367 reversed $155 $-1 #
coedge $-1 $250 $250 $249 $367 forward $157 $-1 #
coedge $-1 $251 $251 $158 $252 forward $246 $-1 #
edge $-1 $368 0 $368 6.2831853071796004 $251 $369 forward 7 unknown #
loop $-1 $-1 $258 $159 #
plane-surface $-1 -16.395079457195394 20.656936083517234 79.649582767797128 0.75470958851134928 0 0.65605901945558964 0.65605901945558964 0 -0.75470958851134928 forward_v I I I I #
loop $-1 $-1 $370 $101 #
coedge $-1 $256 $256 $257 $371 reversed $160 $-1 #
coedge $-1 $257 $257 $256 $371 forward $162 $-1 #
coedge $-1 $258 $258 $163 $259 forward $253 $-1 #
edge $-1 $372 0 $372 6.2831853071796004 $258 $373 forward 7 unknown #
face $-1 $374 $375 $39 $-1 $376 reversed single #
loop $-1 $-1 $377 $164 #
plane-surface $-1 -52.528458510086367 0 0 1 0 0 0 0 -1 forward_v I I I I #
coedge $-1 $378 $271 $379 $380 forward $165 $-1 #
coedge $-1 $381 $167 $378 $382 forward $105 $-1 #
coedge $-1 $167 $381 $383 $384 forward $105 $-1 #
coedge $-1 $274 $273 $167 $267 reversed $275 $-1 #
edge $-1 $385 -29.119333005965263 $386 29.119333005965263 $266 $387 forward 7 unknown #
coedge $-1 $169 $168 $388 $389 forward $66 $-1 #
coedge $-1 $390 $391 $168 $270 reversed $375 $-1 #
edge $-1 $277 -52.528458510086367 $392 52.528458510086367 $269 $393 forward 7 unknown #
coedge $-1 $263 $394 $169 $272 reversed $165 $-1 #
edge $-1 $395 -52.528458510086367 $276 52.528458510086367 $271 $396 forward 7 unknown #
coedge $-1 $266 $170 $394 $397 forward $275 $-1 #
coedge $-1 $170 $266 $390 $398 reversed $275 $-1 #
loop $-1 $-1 $273 $374 #
vertex $-1 $171 $399 #
vertex $-1 $171 $400 #
straight-curve $-1 52.528458510086367 0 6.4263907193010406 0 1 0 I I #
face $-1 $401 $402 $40 $-1 $403 reversed single #
loop $-1 $-1 $285 $172 #
plane-surface $-1 52.528458510086367 0 0 -1 0 0 0 0 1 forward_v I I I I #
coedge $-1 $404 $405 $283 $406 forward $173 $-1 #
coedge $-1 $407 $175 $282 $406 reversed $109 $-1 #
coedge $-1 $175 $407 $176 $288 reversed $109 $-1 #
coedge $-1 $178 $408 $175 $286 forward $280 $-1 #
edge $-1 $409 -3.9631953596505203 $292 -0.96319535965052028 $285 $410 forward 7 unknown #
coedge $-1 $177 $176 $411 $412 reversed $69 $-1 #
edge $-1 $292 -52.528458510086367 $413 52.528458510086367 $284 $414 forward 7 unknown #
coedge $-1 $415 $416 $177 $290 forward $402 $-1 #
edge $-1 $293 -52.528458510086367 $417 52.528458510086367 $289 $418 forward 7 unknown #
coedge $-1 $408 $178 $416 $419 forward $280 $-1 #
vertex $-1 $179 $420 #
vertex $-1 $419 $421 #
straight-curve $-1 52.528458510086367 -13.062154878700522 -3.4263907193010406 0 -1 0 I I #
face $-1 $-1 $422 $41 $-1 $423 reversed single #
loop $-1 $-1 $186 $180 #
plane-surface $-1 0 0 6.4263907193010406 0 0 1 1 0 0 forward_v I I I I #
coedge $-1 $424 $425 $426 $427 reversed $181 $-1 #
coedge $-1 $428 $183 $185 $305 forward $113 $-1 #
coedge $-1 $183 $428 $424 $429 forward $113 $-1 #
coedge $-1 $426 $186 $183 $302 forward $296 $-1 #
edge $-1 $308 -10.838546190240992 $430 -1.0539811863584303 $301 $431 forward 7 unknown #
coedge $-1 $432 $433 $184 $304 forward $422 $-1 #
edge $-1 $434 -30.378439337424282 $307 -24.946075235685889 $303 $435 forward 7 unknown #
edge $-1 $308 -6.7147712403536248 $434 2.4161062406544664e-014 $185 $436 forward 7 unknown #
coedge $-1 $186 $426 $432 $437 forward $296 $-1 #
vertex $-1 $304 $438 #
vertex $-1 $187 $439 #
straight-curve $-1 -68.760645307903218 -16.784809878540702 6.4263907193010397 1 0 0 I I #
coedge $-1 $310 $310 $-1 $440 reversed $190 $-1 #
edge $-1 $441 0 $441 6.2831853071796004 $191 $442 forward 7 unknown #
vertex $-1 $194 $443 #
ellipse-curve $-1 -50.555036794105177 -13.989219877431397 3.7102086684318456 -0.80901700255871778 0 0.5877852410284794 0.5877852410284794 0 0.80901700255871778 1 I I #
coedge $-1 $314 $314 $-1 $444 reversed $197 $-1 #
edge $-1 $445 0 $445 6.2831853071796004 $198 $446 forward 7 unknown #
vertex $-1 $201 $447 #
ellipse-curve $-1 -50.555036794105177 -9.7958348757674436 3.7102086684318456 -0.80901700255871778 0 0.5877852410284794 0.5877852410284794 0 0.80901700255871778 1 I I #
face $-1 $-1 $330 $44 $-1 $448 forward single #
loop $-1 $-1 $449 $202 #
plane-surface $-1 52.528458510086367 0 0 -1 0 0 0 0 1 forward_v I I I I #
coedge $-1 $450 $451 $452 $453 reversed $203 $-1 #
coedge $-1 $454 $205 $207 $328 forward $127 $-1 #
coedge $-1 $205 $454 $450 $455 forward $127 $-1 #
coedge $-1 $452 $208 $205 $325 forward $330 $-1 #
edge $-1 $332 1.5781547767355377 $456 13.088734809653261 $324 $457 forward 7 unknown #
coedge $-1 $458 $459 $206 $327 forward $319 $-1 #
edge $-1 $460 -73.92444021430785 $331 -67.860169648238411 $326 $461 forward 7 unknown #
edge $-1 $332 97.021679813194751 $460 105.05691702017275 $207 $462 forward 7 unknown #
coedge $-1 $208 $452 $458 $463 forward $330 $-1 #
loop $-1 $-1 $452 $318 #
vertex $-1 $327 $464 #
vertex $-1 $209 $465 #
straight-curve $-1 31.446191578685067 -8.9115995699299368 6.4263907193010397 -1 0 0 I I #
coedge $-1 $334 $334 $-1 $466 reversed $212 $-1 #
edge $-1 $467 0 $467 6.2831853071796004 $213 $468 forward 7 unknown #
vertex $-1 $216 $469 #
ellipse-curve $-1 49.892663588534845 -18.120063596264114 3.3942554362663238 0.75470958851134928 0 0.65605901945558964 0.65605901945558964 0 -0.75470958851134928 1 I I #
coedge $-1 $338 $338 $-1 $470 reversed $219 $-1 #
edge $-1 $471 0 $471 6.2831853071796004 $220 $472 forward 7 unknown #
vertex $-1 $223 $473 #
ellipse-curve $-1 49.892663588534845 -14.666889586388798 3.3942554362663238 0.75470958851134928 0 0.65605901945558964 0.65605901945558964 0 -0.75470958851134928 1 I I #
coedge $-1 $342 $342 $-1 $474 reversed $226 $-1 #
edge $-1 $475 0 $475 6.2831853071796004 $227 $476 forward 7 unknown #
vertex $-1 $230 $477 #
ellipse-curve $-1 49.892663588534845 -11.213715576513483 3.3942554362663238 0.75470958851134928 0 0.65605901945558964 0.65605901945558964 0 -0.75470958851134928 1 I I #
face $-1 $-1 $358 $48 $-1 $478 forward single #
loop $-1 $-1 $479 $231 #
plane-surface $-1 52.528458510086367 0 0 -1 0 0 0 0 1 forward_v I I I I #
coedge $-1 $480 $481 $482 $483 reversed $232 $-1 #
coedge $-1 $484 $234 $236 $356 forward $146 $-1 #
coedge $-1 $234 $484 $480 $485 forward $146 $-1 #
coedge $-1 $482 $237 $234 $353 forward $358 $-1 #
edge $-1 $360 -16.083758058217477 $486 -4.5731780252997556 $352 $487 forward 7 unknown #
coedge $-1 $488 $489 $235 $355 forward $347 $-1 #
edge $-1 $490 -73.92444021430785 $359 -67.860169648238411 $354 $491 forward 7 unknown #
edge $-1 $360 97.021679813194751 $490 105.05691702017275 $236 $492 forward 7 unknown #
coedge $-1 $237 $482 $488 $493 forward $358 $-1 #
loop $-1 $-1 $482 $346 #
vertex $-1 $355 $494 #
vertex $-1 $238 $495 #
straight-curve $-1 31.446191578685067 26.412226099976095 6.4263907193010397 -1 0 0 I I #
coedge $-1 $362 $362 $-1 $496 reversed $241 $-1 #
edge $-1 $497 0 $497 6.2831853071796004 $242 $498 forward 7 unknown #
vertex $-1 $245 $499 #
ellipse-curve $-1 49.892663588534845 17.203762073641915 3.3942554362663238 0.75470958851134928 0 0.65605901945558964 0.65605901945558964 0 -0.75470958851134928 1 I I #
coedge $-1 $366 $366 $-1 $500 reversed $248 $-1 #
edge $-1 $501 0 $501 6.2831853071796004 $249 $502 forward 7 unknown #
vertex $-1 $252 $503 #
ellipse-curve $-1 49.892663588534845 20.656936083517234 3.3942554362663238 0.75470958851134928 0 0.65605901945558964 0.65605901945558964 0 -0.75470958851134928 1 I I #
coedge $-1 $370 $370 $-1 $504 reversed $255 $-1 #
edge $-1 $505 0 $505 6.2831853071796004 $256 $506 forward 7 unknown #
vertex $-1 $259 $507 #
ellipse-curve $-1 49.892663588534845 24.110110093392546 3.3942554362663238 0.75470958851134928 0 0.65605901945558964 0.65605901945558964 0 -0.75470958851134928 1 I I #
face $-1 $-1 $275 $39 $-1 $508 reversed single #
loop $-1 $-1 $390 $260 #
plane-surface $-1 0 29.119333005965263 0 0 -1 0 0 0 -1 forward_v I I I I #
coedge $-1 $509 $388 $391 $510 forward $261 $-1 #
coedge $-1 $394 $263 $264 $382 reversed $165 $-1 #
coedge $-1 $388 $509 $263 $380 reversed $261 $-1 #
edge $-1 $395 -6.4263907193010406 $511 6.4263907193010406 $379 $512 forward 7 unknown #
coedge $-1 $265 $264 $509 $513 forward $105 $-1 #
edge $-1 $386 -52.528458510086367 $511 52.528458510086367 $378 $514 forward 7 unknown #
coedge $-1 $391 $390 $265 $384 reversed $375 $-1 #
edge $-1 $515 -52.528458510086367 $385 52.528458510086367 $383 $516 forward 7 unknown #
vertex $-1 $267 $517 #
vertex $-1 $397 $518 #
straight-curve $-1 52.528458510086367 0 -6.4263907193010406 0 -1 0 I I #
coedge $-1 $377 $379 $268 $389 reversed $261 $-1 #
edge $-1 $392 -29.119333005965263 $395 29.119333005965263 $388 $519 forward 7 unknown #
coedge $-1 $383 $269 $274 $398 forward $375 $-1 #
coedge $-1 $269 $383 $377 $510 reversed $375 $-1 #
vertex $-1 $270 $520 #
straight-curve $-1 0 29.119333005965263 6.4263907193010406 -1 0 0 I I #
coedge $-1 $271 $378 $273 $397 reversed $165 $-1 #
vertex $-1 $389 $521 #
straight-curve $-1 0 -29.119333005965263 6.4263907193010406 1 0 0 I I #
edge $-1 $276 -6.4263907193010406 $386 6.4263907193010406 $273 $522 forward 7 unknown #
edge $-1 $277 -6.4263907193010406 $385 6.4263907193010406 $274 $523 forward 7 unknown #
point $-1 52.528458510086367 -29.119333005965263 6.4263907193010406 #
point $-1 52.528458510086367 29.119333005965263 6.4263907193010406 #
face $-1 $-1 $524 $40 $-1 $525 reversed single #
loop $-1 $-1 $289 $279 #
plane-surface $-1 0 -29.119333005965263 0 0 1 0 0 0 1 forward_v I I I I #
coedge $-1 $526 $282 $408 $527 forward $173 $-1 #
coedge $-1 $282 $526 $528 $529 forward $173 $-1 #
edge $-1 $530 -52.528458510086367 $409 52.528458510086367 $282 $531 forward 7 unknown #
coedge $-1 $284 $283 $532 $533 reversed $109 $-1 #
coedge $-1 $285 $291 $404 $527 reversed $280 $-1 #
vertex $-1 $527 $534 #
straight-curve $-1 52.528458510086367 -23.129286508836824 -2.4631953596505203 0 0 1 I I #
coedge $-1 $532 $535 $287 $412 forward $524 $-1 #
edge $-1 $417 -16.057178127264741 $413 -10.067131630136302 $411 $536 forward 7 unknown #
vertex $-1 $412 $537 #
straight-curve $-1 0 -23.129286508836824 -3.4263907193010406 -1 0 0 I I #
coedge $-1 $538 $289 $535 $539 forward $402 $-1 #
coedge $-1 $289 $538 $291 $419 reversed $402 $-1 #
vertex $-1 $539 $540 #
straight-curve $-1 0 -29.119333005965263 -3.4263907193010406 -1 0 0 I I #
edge $-1 $293 3.4263907193010406 $541 6.4263907193010406 $291 $542 forward 7 unknown #
point $-1 52.528458510086367 -23.129286508836824 -3.4263907193010406 #
point $-1 52.528458510086367 -29.119333005965263 -3.4263907193010406 #
loop $-1 $-1 $303 $295 #
plane-surface $-1 -52.528458510086367 0 0 1 0 0 0 0 -1 forward_v I I I I #
coedge $-1 $425 $298 $300 $429 reversed $181 $-1 #
coedge $-1 $298 $424 $543 $544 reversed $181 $-1 #
coedge $-1 $306 $301 $298 $427 forward $296 $-1 #
edge $-1 $430 -20.179030229779222 $545 -16.232186797816851 $426 $546 forward 7 unknown #
coedge $-1 $300 $299 $433 $547 reversed $113 $-1 #
edge $-1 $548 -2.4161062406544664e-014 $430 6.7147712403536248 $424 $549 forward 7 unknown #
vertex $-1 $302 $550 #
straight-curve $-1 -48.581615078123995 -5.9462636882997106 6.4263907193010414 0 1 0 I I #
coedge $-1 $543 $303 $306 $437 reversed $422 $-1 #
coedge $-1 $303 $543 $428 $547 forward $422 $-1 #
vertex $-1 $304 $551 #
straight-curve $-1 -52.528458510086367 -16.784809878540702 31.372465954986929 0 0 1 I I #
straight-curve $-1 -52.528458510086352 -16.784809878540702 0.99402661756266752 -0.5877852410284794 0 -0.80901700255871778 I I #
edge $-1 $545 7.0002448746581409 $307 16.784809878540702 $432 $552 forward 7 unknown #
point $-1 -52.528458510086367 -16.784809878540702 6.4263907193010406 #
point $-1 -48.581615078123995 -16.784809878540702 6.4263907193010406 #
edge $-1 $553 1 $553 0 $310 $-1 forward 7 unknown #
vertex $-1 $311 $554 #
ellipse-curve $-1 -48.436240349768539 -13.989219877431397 2.1708129885069276 -0.80901700255871778 0 0.5877852410284794 0.5877852410284794 0 0.80901700255871778 1 I I #
point $-1 -49.967251553076707 -13.989219877431397 4.5192256709905694 #
edge $-1 $555 1 $555 0 $314 $-1 forward 7 unknown #
vertex $-1 $315 $556 #
ellipse-curve $-1 -48.436240349768539 -9.7958348757674436 2.1708129885069276 -0.80901700255871778 0 0.5877852410284794 0.5877852410284794 0 0.80901700255871778 1 I I #
point $-1 -49.967251553076707 -9.7958348757674436 4.5192256709905694 #
plane-surface $-1 0 0 6.4263907193010406 0 0 1 1 0 0 forward_v I I I I #
coedge $-1 $459 $458 $451 $557 forward $319 $-1 #
coedge $-1 $451 $321 $323 $455 reversed $203 $-1 #
coedge $-1 $321 $450 $449 $557 reversed $203 $-1 #
coedge $-1 $329 $324 $321 $453 forward $330 $-1 #
edge $-1 $456 15.810677088298256 $558 21.0822669314013 $452 $559 forward 7 unknown #
coedge $-1 $323 $322 $459 $560 reversed $127 $-1 #
edge $-1 $561 -105.05691702017275 $456 -97.021679813194751 $450 $562 forward 7 unknown #
vertex $-1 $325 $563 #
straight-curve $-1 47.25686866698333 -7.3334447931943991 6.4263907193010326 0 -1 0 I I #
coedge $-1 $449 $326 $329 $463 reversed $319 $-1 #
coedge $-1 $326 $449 $454 $560 forward $319 $-1 #
vertex $-1 $327 $564 #
straight-curve $-1 52.528458510086367 -8.9115995699299368 74.286560367539451 0 0 1 I I #
straight-curve $-1 -16.395079457195394 -8.9115995699299368 79.649582767797128 0.65605901945558964 0 -0.75470958851134928 I I #
edge $-1 $558 -20.42217960284766 $331 -8.9115995699299368 $458 $565 forward 7 unknown #
point $-1 52.528458510086367 -8.9115995699299368 6.4263907193010406 #
point $-1 47.256868666983323 -8.9115995699299368 6.4263907193010397 #
edge $-1 $566 1 $566 0 $334 $-1 forward 7 unknown #
vertex $-1 $335 $567 #
ellipse-curve $-1 48.235674468166927 -18.120063596264114 1.9538568059780725 0.75470958851134928 0 0.65605901945558964 0.65605901945558964 0 -0.75470958851134928 1 I I #
point $-1 50.54872260799042 -18.120063596264114 2.6395458477549578 #
edge $-1 $568 1 $568 0 $338 $-1 forward 7 unknown #
vertex $-1 $339 $569 #
ellipse-curve $-1 48.235674468166927 -14.666889586388798 1.9538568059780725 0.75470958851134928 0 0.65605901945558964 0.65605901945558964 0 -0.75470958851134928 1 I I #
point $-1 50.54872260799042 -14.666889586388798 2.6395458477549578 #
edge $-1 $570 1 $570 0 $342 $-1 forward 7 unknown #
vertex $-1 $343 $571 #
ellipse-curve $-1 48.235674468166927 -11.213715576513483 1.9538568059780725 0.75470958851134928 0 0.65605901945558964 0.65605901945558964 0 -0.75470958851134928 1 I I #
point $-1 50.54872260799042 -11.213715576513483 2.6395458477549578 #
plane-surface $-1 0 0 6.4263907193010406 0 0 1 1 0 0 forward_v I I I I #
coedge $-1 $489 $488 $481 $572 forward $347 $-1 #
coedge $-1 $481 $349 $351 $485 reversed $232 $-1 #
coedge $-1 $349 $480 $479 $572 reversed $232 $-1 #
coedge $-1 $357 $352 $349 $483 forward $358 $-1 #
edge $-1 $486 15.810677088298256 $573 21.0822669314013 $482 $574 forward 7 unknown #
coedge $-1 $351 $350 $489 $575 reversed $146 $-1 #
edge $-1 $576 -105.05691702017275 $486 -97.021679813194751 $480 $577 forward 7 unknown #
vertex $-1 $353 $578 #
straight-curve $-1 47.25686866698333 10.328468041758617 6.4263907193010326 0 -1 0 I I #
coedge $-1 $479 $354 $357 $493 reversed $347 $-1 #
coedge $-1 $354 $479 $484 $575 forward $347 $-1 #
vertex $-1 $355 $579 #
straight-curve $-1 52.528458510086367 26.412226099976095 74.286560367539451 0 0 1 I I #
straight-curve $-1 -16.395079457195394 26.412226099976095 79.649582767797128 0.65605901945558964 0 -0.75470958851134928 I I #
edge $-1 $573 14.901646067058373 $359 26.412226099976095 $488 $580 forward 7 unknown #
point $-1 52.528458510086367 26.412226099976095 6.4263907193010406 #
point $-1 47.256868666983323 26.412226099976095 6.4263907193010397 #
edge $-1 $581 1 $581 0 $362 $-1 forward 7 unknown #
vertex $-1 $363 $582 #
ellipse-curve $-1 48.235674468166927 17.203762073641915 1.9538568059780725 0.75470958851134928 0 0.65605901945558964 0.65605901945558964 0 -0.75470958851134928 1 I I #
point $-1 50.54872260799042 17.203762073641915 2.6395458477549578 #
edge $-1 $583 1 $583 0 $366 $-1 forward 7 unknown #
vertex $-1 $367 $584 #
ellipse-curve $-1 48.235674468166927 20.656936083517234 1.9538568059780725 0.75470958851134928 0 0.65605901945558964 0.65605901945558964 0 -0.75470958851134928 1 I I #
point $-1 50.54872260799042 20.656936083517234 2.6395458477549578 #
edge $-1 $585 1 $585 0 $370 $-1 forward 7 unknown #
vertex $-1 $371 $586 #
ellipse-curve $-1 48.235674468166927 24.110110093392546 1.9538568059780725 0.75470958851134928 0 0.65605901945558964 0.65605901945558964 0 -0.75470958851134928 1 I I #
point $-1 50.54872260799042 24.110110093392546 2.6395458477549578 #
plane-surface $-1 52.528458510086367 0 0 -1 0 0 0 0 1 forward_v I I I I #
coedge $-1 $379 $377 $381 $513 reversed $261 $-1 #
edge $-1 $392 -6.4263907193010406 $515 6.4263907193010406 $391 $587 forward 7 unknown #
vertex $-1 $513 $588 #
straight-curve $-1 -52.528458510086367 -29.119333005965263 0 0 0 -1 I I #
edge $-1 $511 -29.119333005965263 $515 29.119333005965263 $509 $589 forward 7 unknown #
straight-curve $-1 0 -29.119333005965263 -6.4263907193010406 -1 0 0 I I #
vertex $-1 $384 $590 #
straight-curve $-1 0 29.119333005965263 -6.4263907193010406 1 0 0 I I #
point $-1 52.528458510086367 29.119333005965263 -6.4263907193010406 #
point $-1 52.528458510086367 -29.119333005965263 -6.4263907193010406 #
straight-curve $-1 -52.528458510086367 0 6.4263907193010406 0 -1 0 I I #
point $-1 -52.528458510086367 29.119333005965263 6.4263907193010406 #
point $-1 -52.528458510086367 -29.119333005965263 6.4263907193010406 #
straight-curve $-1 52.528458510086367 -29.119333005965263 0 0 0 -1 I I #
straight-curve $-1 52.528458510086367 29.119333005965263 0 0 0 -1 I I #
loop $-1 $-1 $532 $401 #
plane-surface $-1 -52.528458510086367 0 0 1 0 0 0 0 -1 forward_v I I I I #
coedge $-1 $405 $404 $538 $591 forward $173 $-1 #
edge $-1 $409 23.129286508836824 $541 29.119333005965263 $408 $592 forward 7 unknown #
coedge $-1 $535 $532 $405 $529 reversed $524 $-1 #
edge $-1 $593 -29.119333005965263 $530 -23.129286508836824 $528 $594 forward 7 unknown #
vertex $-1 $533 $595 #
straight-curve $-1 0 -23.129286508836824 -6.4263907193010406 1 0 0 I I #
coedge $-1 $528 $411 $407 $533 forward $524 $-1 #
edge $-1 $413 0.96319535965052028 $530 3.9631953596505203 $532 $596 forward 7 unknown #
point $-1 52.528458510086367 -23.129286508836824 -6.4263907193010406 #
coedge $-1 $411 $528 $415 $539 reversed $524 $-1 #
straight-curve $-1 -52.528458510086367 -13.062154878700522 -3.4263907193010406 0 1 0 I I #
point $-1 -52.528458510086367 -23.129286508836824 -3.4263907193010406 #
coedge $-1 $416 $415 $526 $591 reversed $402 $-1 #
edge $-1 $417 3.4263907193010406 $593 6.4263907193010406 $535 $597 forward 7 unknown #
point $-1 -52.528458510086367 -29.119333005965263 -3.4263907193010406 #
vertex $-1 $419 $598 #
straight-curve $-1 52.528458510086367 -29.119333005965263 0 0 0 -1 I I #
coedge $-1 $433 $432 $425 $544 forward $422 $-1 #
edge $-1 $545 24.946075235685889 $548 30.378439337424282 $543 $599 forward 7 unknown #
vertex $-1 $437 $600 #
straight-curve $-1 -68.760645307903218 -7.0002448746581409 6.4263907193010397 -1 0 0 I I #
edge $-1 $548 1.0539811863584303 $434 10.838546190240992 $433 $601 forward 7 unknown #
vertex $-1 $547 $602 #
straight-curve $-1 -52.528458510086352 -7.0002448746581409 0.99402661756266752 0.5877852410284794 0 0.80901700255871778 I I #
point $-1 -48.581615078123995 -7.0002448746581409 6.4263907193010406 #
point $-1 -52.528458510086367 -16.784809878540702 0.99402661756264798 #
straight-curve $-1 -52.528458510086367 0 6.4263907193010406 0 -1 0 I I #
vertex $-1 $440 $603 #
point $-1 -47.848455108740062 -13.989219877431397 2.9798299910656456 #
vertex $-1 $444 $604 #
point $-1 -47.848455108740062 -9.7958348757674436 2.9798299910656456 #
edge $-1 $558 67.860169648238411 $561 73.92444021430785 $449 $605 forward 7 unknown #
vertex $-1 $463 $606 #
straight-curve $-1 31.446191578685067 -20.42217960284766 6.4263907193010397 1 0 0 I I #
edge $-1 $561 -13.088734809653261 $460 -1.5781547767355377 $459 $607 forward 7 unknown #
vertex $-1 $560 $608 #
straight-curve $-1 -16.395079457195394 -20.42217960284766 79.649582767797128 -0.65605901945558964 0 0.75470958851134928 I I #
point $-1 47.256868666983323 -20.42217960284766 6.4263907193010397 #
point $-1 52.528458510086367 -8.9115995699299368 0.36212015323160074 #
straight-curve $-1 52.528458510086367 0 6.4263907193010406 0 1 0 I I #
vertex $-1 $466 $609 #
point $-1 48.891733487622517 -18.120063596264114 1.1991472174667233 #
vertex $-1 $470 $610 #
point $-1 48.891733487622517 -14.666889586388798 1.1991472174667233 #
vertex $-1 $474 $611 #
point $-1 48.891733487622517 -11.213715576513483 1.1991472174667233 #
edge $-1 $573 67.860169648238411 $576 73.92444021430785 $479 $612 forward 7 unknown #
vertex $-1 $493 $613 #
straight-curve $-1 31.446191578685067 14.901646067058373 6.4263907193010397 1 0 0 I I #
edge $-1 $576 4.5731780252997556 $490 16.083758058217477 $489 $614 forward 7 unknown #
vertex $-1 $575 $615 #
straight-curve $-1 -16.395079457195394 14.901646067058373 79.649582767797128 -0.65605901945558964 0 0.75470958851134928 I I #
point $-1 47.256868666983323 14.901646067058373 6.4263907193010397 #
point $-1 52.528458510086367 26.412226099976095 0.36212015323160074 #
straight-curve $-1 52.528458510086367 0 6.4263907193010406 0 1 0 I I #
vertex $-1 $496 $616 #
point $-1 48.891733487622517 17.203762073641915 1.1991472174667233 #
vertex $-1 $500 $617 #
point $-1 48.891733487622517 20.656936083517234 1.1991472174667233 #
vertex $-1 $504 $618 #
point $-1 48.891733487622517 24.110110093392546 1.1991472174667233 #
straight-curve $-1 -52.528458510086367 29.119333005965263 0 0 0 -1 I I #
point $-1 -52.528458510086367 -29.119333005965263 -6.4263907193010406 #
straight-curve $-1 -52.528458510086367 0 -6.4263907193010406 0 1 0 I I #
point $-1 -52.528458510086367 29.119333005965263 -6.4263907193010406 #
edge $-1 $541 -52.528458510086367 $593 52.528458510086367 $538 $619 forward 7 unknown #
straight-curve $-1 52.528458510086367 0 -6.4263907193010406 0 -1 0 I I #
vertex $-1 $529 $620 #
straight-curve $-1 -52.528458510086367 0 -6.4263907193010406 0 1 0 I I #
point $-1 -52.528458510086367 -23.129286508836824 -6.4263907193010406 #
straight-curve $-1 -52.528458510086367 -23.129286508836824 -2.4631953596505203 0 0 -1 I I #
straight-curve $-1 -52.528458510086367 -29.119333005965263 0 0 0 -1 I I #
point $-1 52.528458510086367 -29.119333005965263 -6.4263907193010406 #
straight-curve $-1 -52.528458510086367 -7.0002448746581409 31.372465954986929 0 0 -1 I I #
point $-1 -52.528458510086367 -7.0002448746581409 6.4263907193010406 #
straight-curve $-1 -52.528458510086367 -5.9462636882997106 0.99402661756264377 0 -1 0 I I #
point $-1 -52.528458510086367 -7.0002448746581409 0.99402661756264798 #
point $-1 -47.627223347209821 -13.989219877431397 1.5830277474784484 #
point $-1 -47.627223347209821 -9.7958348757674436 1.5830277474784484 #
straight-curve $-1 52.528458510086367 -20.42217960284766 74.286560367539451 0 0 -1 I I #
point $-1 52.528458510086367 -20.42217960284766 6.4263907193010406 #
straight-curve $-1 52.528458510086367 -7.3334447931943991 0.36212015323160784 0 1 0 I I #
point $-1 52.528458510086367 -20.42217960284766 0.36212015323160074 #
point $-1 47.480964879655581 -18.120063596264114 1.297797786522483 #
point $-1 47.480964879655581 -14.666889586388798 1.297797786522483 #
point $-1 47.480964879655581 -11.213715576513483 1.297797786522483 #
straight-curve $-1 52.528458510086367 14.901646067058373 74.286560367539451 0 0 -1 I I #
point $-1 52.528458510086367 14.901646067058373 6.4263907193010406 #
straight-curve $-1 52.528458510086367 10.328468041758617 0.36212015323160784 0 1 0 I I #
point $-1 52.528458510086367 14.901646067058373 0.36212015323160074 #
point $-1 47.480964879655581 17.203762073641915 1.297797786522483 #
point $-1 47.480964879655581 20.656936083517234 1.297797786522483 #
point $-1 47.480964879655581 24.110110093392546 1.297797786522483 #
straight-curve $-1 0 -29.119333005965263 -6.4263907193010406 -1 0 0 I I #
point $-1 -52.528458510086367 -29.119333005965263 -6.4263907193010406 #
End-of-ACIS-data 