500 0 8 0           
7 Unknown 11 ACIS 5.0 NT 24 Thu Mar 25 15:45:06 1999 
-1 9.9999999999999995e-007 1e-010 
body $-1 $8 $-1 $9 #
body $-1 $10 $-1 $11 #
body $-1 $12 $-1 $13 #
body $-1 $14 $-1 $15 #
body $-1 $16 $-1 $17 #
body $-1 $18 $-1 $19 #
body $-1 $20 $-1 $21 #
body $-1 $22 $-1 $23 #
lump $-1 $-1 $24 $0 #
transform $-1 1 0 0 0 1 0 0 0 1 47.541734061708425 32.889646424891851 11.571751389324875 1 rotate no_reflect no_shear #
lump $-1 $-1 $25 $1 #
transform $-1 1 0 0 0 1 0 0 0 1 47.541734061708425 32.889646424891851 11.571751389324875 1 rotate no_reflect no_shear #
lump $-1 $-1 $26 $2 #
transform $-1 1 0 0 0 1 0 0 0 1 47.541734061708425 32.889646424891851 11.571751389324875 1 rotate no_reflect no_shear #
lump $-1 $-1 $27 $3 #
transform $-1 1 0 0 0 1 0 0 0 1 47.541734061708425 32.889646424891851 11.571751389324875 1 rotate no_reflect no_shear #
lump $-1 $-1 $28 $4 #
transform $-1 1 0 0 0 1 0 0 0 1 47.541734061708425 32.889646424891851 11.571751389324875 1 rotate no_reflect no_shear #
lump $-1 $-1 $29 $5 #
transform $-1 1 0 0 0 1 0 0 0 1 47.541734061708425 32.889646424891851 11.571751389324875 1 rotate no_reflect no_shear #
lump $-1 $-1 $30 $6 #
transform $-1 1 0 0 0 1 0 0 0 1 47.541734061708425 32.889646424891851 11.571751389324875 1 rotate no_reflect no_shear #
lump $-1 $-1 $31 $7 #
transform $-1 1 0 0 0 1 0 0 0 1 47.541734061708425 32.889646424891851 11.571751389324875 1 rotate no_reflect no_shear #
shell $-1 $-1 $-1 $32 $-1 $8 #
shell $-1 $-1 $-1 $33 $-1 $10 #
shell $-1 $-1 $-1 $34 $-1 $12 #
shell $-1 $-1 $-1 $35 $-1 $14 #
shell $-1 $-1 $-1 $36 $-1 $16 #
shell $-1 $-1 $-1 $37 $-1 $18 #
shell $-1 $-1 $-1 $38 $-1 $20 #
shell $-1 $-1 $-1 $39 $-1 $22 #
face $-1 $40 $41 $24 $-1 $42 forward single #
face $-1 $43 $44 $25 $-1 $45 forward single #
face $-1 $46 $47 $26 $-1 $48 forward single #
face $-1 $49 $50 $27 $-1 $51 reversed single #
face $-1 $52 $53 $28 $-1 $54 forward single #
face $-1 $55 $56 $29 $-1 $57 reversed single #
face $-1 $58 $59 $30 $-1 $60 forward single #
face $-1 $61 $62 $31 $-1 $63 forward single #
face $-1 $64 $65 $24 $-1 $66 reversed single #
loop $-1 $-1 $67 $32 #
plane-surface $-1 0 0 11.571751389324875 0 0 1 1 0 0 forward_v I I I I #
face $-1 $68 $69 $25 $-1 $70 reversed single #
loop $-1 $-1 $71 $33 #
plane-surface $-1 0 -27.465741555190998 -8.1266064720782598 0 0 1 1 0 0 forward_v I I I I #
face $-1 $72 $73 $26 $-1 $74 reversed single #
loop $-1 $-1 $75 $34 #
plane-surface $-1 0 27.465741555191002 -8.1266064720782598 0 0 1 1 0 0 forward_v I I I I #
face $-1 $76 $77 $27 $-1 $78 reversed single #
loop $-1 $-1 $79 $35 #
plane-surface $-1 -111.16499350702256 -12.902367022817177 75.544019253093367 0 -1 0 0.66913061440640931 0 -0.74314481823134659 forward_v I I I I #
face $-1 $80 $81 $28 $-1 $82 forward single #
loop $-1 $83 $84 $36 #
cone-surface $-1 -42.711067224369721 -17.472101854153664 6.9875036068998444 0.66913061440640931 0 -0.74314481823134659 0.74314481823134659 0 0.66913061440640931 1 I I 0 1 1 forward I I I I #
face $-1 $85 $86 $29 $-1 $87 reversed single #
loop $-1 $-1 $88 $37 #
plane-surface $-1 19.584197292168554 -10.494073185500547 131.7532786786891 0 -1 0 -0.54463904215088732 0 -0.83867056331134215 forward_v I I I I #
face $-1 $89 $90 $30 $-1 $91 forward single #
loop $-1 $92 $93 $38 #
cone-surface $-1 38.278216753786545 -18.742475685493119 5.0875222654501524 -0.54463904215088732 0 -0.83867056331134215 0.83867056331134215 0 -0.54463904215088732 1 I I 0 1 1 forward I I I I #
face $-1 $94 $95 $31 $-1 $96 forward single #
loop $-1 $97 $98 $39 #
cone-surface $-1 38.278216753786545 -13.793434185497574 5.0875222654501524 -0.54463904215088732 0 -0.83867056331134215 0.83867056331134215 0 -0.54463904215088732 1 I I 0 1 1 forward I I I I #
face $-1 $99 $100 $24 $-1 $101 reversed single #
loop $-1 $-1 $102 $40 #
plane-surface $-1 0 0 -11.571751389324875 0 0 1 1 0 0 forward_v I I I I #
coedge $-1 $103 $104 $105 $106 forward $41 $-1 #
face $-1 $107 $108 $25 $-1 $109 reversed single #
loop $-1 $-1 $110 $43 #
plane-surface $-1 0 -22.041836685490146 -9.8491789307015676 0 -1 0 0 0 -1 forward_v I I I I #
coedge $-1 $111 $112 $113 $114 reversed $44 $-1 #
face $-1 $115 $116 $26 $-1 $117 reversed single #
loop $-1 $-1 $118 $46 #
plane-surface $-1 0 22.04183668549015 -9.8491789307015676 0 1 0 0 0 1 forward_v I I I I #
coedge $-1 $119 $120 $121 $122 reversed $47 $-1 #
face $-1 $123 $124 $27 $-1 $125 reversed single #
loop $-1 $-1 $126 $49 #
plane-surface $-1 -47.541734061708404 -17.472101854153664 4.8832326177107177 -0.66913061440640931 0 0.74314481823134659 0.74314481823134659 0 0.66913061440640931 forward_v I I I I #
coedge $-1 $127 $128 $129 $130 reversed $50 $-1 #
face $-1 $-1 $131 $28 $-1 $132 forward single #
loop $-1 $133 $134 $52 #
cone-surface $-1 -41.260011325655057 -17.472101854153664 5.3759428011662127 0.66913061440640931 0 -0.74314481823134659 0.3715724091156733 0 0.33456530720320465 1 I I -0.70710678118654746 0.70710678118654746 0.5 forward I I I I #
loop $-1 $-1 $135 $36 #
coedge $-1 $84 $84 $136 $137 reversed $53 $-1 #
face $-1 $138 $139 $29 $-1 $140 reversed single #
loop $-1 $-1 $141 $55 #
plane-surface $-1 -32.201971710953629 -16.267954935495347 52.009572906027046 0.54463904215088732 0 0.83867056331134215 0.83867056331134215 0 -0.54463904215088732 forward_v I I I I #
coedge $-1 $142 $143 $144 $145 reversed $56 $-1 #
face $-1 $-1 $146 $30 $-1 $147 forward single #
loop $-1 $148 $149 $58 #
cone-surface $-1 37.479841107797824 -18.742475685493119 3.8581316031297685 -0.54463904215088732 0 -0.83867056331134215 0.41933528165567108 0 -0.27231952107544366 1 I I -0.70710678118654746 0.70710678118654746 0.5 forward I I I I #
loop $-1 $-1 $150 $38 #
coedge $-1 $93 $93 $151 $152 reversed $59 $-1 #
face $-1 $-1 $153 $31 $-1 $154 forward single #
loop $-1 $155 $156 $61 #
cone-surface $-1 37.479841107797824 -13.793434185497574 3.8581316031297685 -0.54463904215088732 0 -0.83867056331134215 0.41933528165567108 0 -0.27231952107544366 1 I I -0.70710678118654746 0.70710678118654746 0.5 forward I I I I #
loop $-1 $-1 $157 $39 #
coedge $-1 $98 $98 $158 $159 reversed $62 $-1 #
face $-1 $160 $161 $24 $-1 $162 reversed single #
loop $-1 $-1 $163 $64 #
plane-surface $-1 0 -32.889646424891851 0 0 1 0 0 0 1 forward_v I I I I #
coedge $-1 $164 $165 $166 $167 forward $65 $-1 #
coedge $-1 $168 $67 $169 $170 forward $41 $-1 #
coedge $-1 $67 $168 $171 $172 forward $41 $-1 #
coedge $-1 $173 $174 $67 $106 reversed $175 $-1 #
edge $-1 $176 -32.889646424891851 $177 32.889646424891851 $105 $178 forward 7 unknown #
face $-1 $179 $180 $25 $-1 $181 reversed single #
loop $-1 $-1 $182 $68 #
plane-surface $-1 0 0 -11.571751389324875 0 0 1 1 0 0 forward_v I I I I #
coedge $-1 $183 $184 $185 $186 reversed $69 $-1 #
coedge $-1 $187 $71 $184 $188 forward $44 $-1 #
coedge $-1 $71 $187 $189 $190 reversed $44 $-1 #
coedge $-1 $191 $185 $71 $114 forward $180 $-1 #
edge $-1 $192 8.3089659078946472 $193 19.15677564729635 $113 $194 forward 7 unknown #
face $-1 $195 $196 $26 $-1 $197 reversed single #
loop $-1 $-1 $121 $72 #
plane-surface $-1 47.541734061708425 0 0 -1 0 0 0 0 1 forward_v I I I I #
coedge $-1 $198 $199 $200 $201 reversed $73 $-1 #
coedge $-1 $202 $75 $203 $204 reversed $47 $-1 #
coedge $-1 $75 $202 $199 $205 forward $47 $-1 #
coedge $-1 $206 $207 $75 $122 forward $116 $-1 #
edge $-1 $208 -19.15677564729635 $209 -8.308965907894649 $121 $210 forward 7 unknown #
face $-1 $211 $212 $27 $-1 $213 reversed single #
loop $-1 $-1 $214 $76 #
plane-surface $-1 -111.16499350702256 -22.04183668549015 75.544019253093367 0 1 0 -0.66913061440640931 0 0.74314481823134659 forward_v I I I I #
coedge $-1 $215 $216 $217 $218 reversed $77 $-1 #
coedge $-1 $128 $79 $219 $220 reversed $50 $-1 #
coedge $-1 $79 $127 $215 $221 reversed $50 $-1 #
coedge $-1 $217 $222 $79 $130 forward $212 $-1 #
edge $-1 $223 26.20025823722181 $224 32.888777008835987 $129 $225 forward 7 unknown #
loop $-1 $-1 $136 $80 #
plane-surface $-1 -47.541734061708404 -17.472101854153664 4.8832326177107177 -0.66913061440640931 0 0.74314481823134659 0.74314481823134659 0 0.66913061440640931 forward_v I I I I #
loop $-1 $-1 $226 $52 #
coedge $-1 $134 $134 $135 $227 reversed $81 $-1 #
coedge $-1 $135 $135 $134 $227 forward $83 $-1 #
coedge $-1 $136 $136 $84 $137 forward $131 $-1 #
edge $-1 $228 0 $228 6.2831853071796004 $136 $229 forward 7 unknown #
face $-1 $230 $231 $29 $-1 $232 forward single #
loop $-1 $-1 $233 $85 #
plane-surface $-1 19.584197292168554 -22.041836685490146 131.7532786786891 0 1 0 0.54463904215088732 0 0.83867056331134215 forward_v I I I I #
coedge $-1 $234 $235 $236 $237 reversed $86 $-1 #
coedge $-1 $143 $88 $238 $239 reversed $56 $-1 #
coedge $-1 $88 $142 $234 $240 reversed $56 $-1 #
coedge $-1 $236 $241 $88 $145 forward $231 $-1 #
edge $-1 $242 -37.749635415624148 $243 -20.274713049606952 $144 $244 forward 7 unknown #
loop $-1 $-1 $151 $89 #
plane-surface $-1 -32.201971710953629 -16.267954935495347 52.009572906027046 0.54463904215088732 0 0.83867056331134215 0.83867056331134215 0 -0.54463904215088732 forward_v I I I I #
loop $-1 $-1 $245 $58 #
coedge $-1 $149 $149 $150 $246 reversed $90 $-1 #
coedge $-1 $150 $150 $149 $246 forward $92 $-1 #
coedge $-1 $151 $151 $93 $152 forward $146 $-1 #
edge $-1 $247 0 $247 6.2831853071796004 $151 $248 forward 7 unknown #
loop $-1 $-1 $158 $94 #
plane-surface $-1 -32.201971710953629 -16.267954935495347 52.009572906027046 0.54463904215088732 0 0.83867056331134215 0.83867056331134215 0 -0.54463904215088732 forward_v I I I I #
loop $-1 $-1 $249 $61 #
coedge $-1 $156 $156 $157 $250 reversed $95 $-1 #
coedge $-1 $157 $157 $156 $250 forward $97 $-1 #
coedge $-1 $158 $158 $98 $159 forward $153 $-1 #
edge $-1 $251 0 $251 6.2831853071796004 $158 $252 forward 7 unknown #
face $-1 $253 $254 $24 $-1 $255 reversed single #
loop $-1 $-1 $256 $99 #
plane-surface $-1 -47.541734061708425 0 0 1 0 0 0 0 -1 forward_v I I I I #
coedge $-1 $257 $171 $258 $259 forward $100 $-1 #
coedge $-1 $260 $102 $257 $261 forward $65 $-1 #
coedge $-1 $102 $260 $262 $263 forward $65 $-1 #
coedge $-1 $174 $173 $102 $167 reversed $175 $-1 #
edge $-1 $264 -32.889646424891851 $265 32.889646424891851 $166 $266 forward 7 unknown #
coedge $-1 $104 $103 $267 $268 forward $41 $-1 #
coedge $-1 $269 $270 $103 $170 reversed $254 $-1 #
edge $-1 $177 -47.541734061708425 $271 47.541734061708425 $169 $272 forward 7 unknown #
coedge $-1 $163 $273 $104 $172 reversed $100 $-1 #
edge $-1 $274 -47.541734061708425 $176 47.541734061708425 $171 $275 forward 7 unknown #
coedge $-1 $166 $105 $273 $276 forward $175 $-1 #
coedge $-1 $105 $166 $269 $277 reversed $175 $-1 #
loop $-1 $-1 $173 $253 #
vertex $-1 $106 $278 #
vertex $-1 $106 $279 #
straight-curve $-1 47.541734061708425 0 11.571751389324875 0 1 0 I I #
face $-1 $280 $281 $25 $-1 $282 reversed single #
loop $-1 $-1 $185 $107 #
plane-surface $-1 47.541734061708425 0 0 -1 0 0 0 0 1 forward_v I I I I #
coedge $-1 $283 $284 $183 $285 forward $108 $-1 #
coedge $-1 $286 $110 $182 $285 reversed $69 $-1 #
coedge $-1 $110 $286 $111 $188 reversed $69 $-1 #
coedge $-1 $113 $287 $110 $186 forward $180 $-1 #
edge $-1 $288 -6.6471619239740916 $192 -3.202017006727476 $185 $289 forward 7 unknown #
coedge $-1 $112 $111 $290 $291 reversed $44 $-1 #
edge $-1 $192 -47.541734061708425 $292 47.541734061708425 $184 $293 forward 7 unknown #
coedge $-1 $294 $295 $112 $190 forward $281 $-1 #
edge $-1 $193 -47.541734061708425 $296 47.541734061708425 $189 $297 forward 7 unknown #
coedge $-1 $287 $113 $295 $298 forward $180 $-1 #
vertex $-1 $114 $299 #
vertex $-1 $298 $300 #
straight-curve $-1 47.541734061708425 -13.732870777595499 -8.1266064720782598 0 -1 0 I I #
face $-1 $301 $302 $26 $-1 $303 reversed single #
loop $-1 $-1 $304 $115 #
plane-surface $-1 0 0 -11.571751389324875 0 0 1 1 0 0 forward_v I I I I #
coedge $-1 $305 $118 $304 $306 reversed $73 $-1 #
coedge $-1 $118 $305 $120 $205 reversed $73 $-1 #
coedge $-1 $307 $308 $118 $201 forward $302 $-1 #
edge $-1 $309 -6.6471619239740916 $310 -3.202017006727476 $200 $311 forward 7 unknown #
coedge $-1 $120 $119 $307 $312 reversed $47 $-1 #
coedge $-1 $313 $314 $119 $204 forward $315 $-1 #
edge $-1 $316 -47.541734061708425 $208 47.541734061708425 $203 $317 forward 7 unknown #
edge $-1 $310 -47.541734061708425 $209 47.541734061708425 $199 $318 forward 7 unknown #
coedge $-1 $319 $121 $305 $320 forward $116 $-1 #
coedge $-1 $121 $319 $313 $321 reversed $116 $-1 #
vertex $-1 $321 $322 #
vertex $-1 $122 $323 #
straight-curve $-1 47.541734061708425 13.732870777595501 -8.1266064720782598 0 -1 0 I I #
face $-1 $-1 $324 $27 $-1 $325 forward single #
loop $-1 $-1 $129 $123 #
plane-surface $-1 -47.541734061708425 0 0 1 0 0 0 0 -1 forward_v I I I I #
coedge $-1 $326 $327 $328 $329 reversed $124 $-1 #
coedge $-1 $330 $126 $128 $221 forward $77 $-1 #
coedge $-1 $126 $330 $326 $331 forward $77 $-1 #
coedge $-1 $328 $129 $126 $218 forward $212 $-1 #
edge $-1 $224 4.1663160957403456 $332 13.305785758413318 $217 $333 forward 7 unknown #
coedge $-1 $334 $335 $127 $220 forward $324 $-1 #
edge $-1 $336 -15.469115183457369 $223 -8.0407626918028541 $219 $337 forward 7 unknown #
edge $-1 $224 -2.8915846743243384e-014 $336 9.9958343372879312 $128 $338 forward 7 unknown #
coedge $-1 $129 $328 $334 $339 reversed $212 $-1 #
vertex $-1 $339 $340 #
vertex $-1 $130 $341 #
straight-curve $-1 -47.541734061708425 -12.902367022817177 37.772009626546684 0 0 -1 I I #
coedge $-1 $226 $226 $-1 $342 reversed $133 $-1 #
edge $-1 $343 0 $343 6.2831853071796004 $134 $344 forward 7 unknown #
vertex $-1 $137 $345 #
ellipse-curve $-1 -43.827557815881164 -17.472101854153664 8.2274920035177868 -0.66913061440640931 0 0.74314481823134659 0.74314481823134659 0 0.66913061440640931 1 I I #
face $-1 $-1 $346 $29 $-1 $347 reversed single #
loop $-1 $-1 $144 $138 #
plane-surface $-1 0 0 11.571751389324875 0 0 1 1 0 0 forward_v I I I I #
coedge $-1 $348 $349 $350 $351 reversed $139 $-1 #
coedge $-1 $352 $141 $143 $240 forward $86 $-1 #
coedge $-1 $141 $352 $348 $353 forward $86 $-1 #
coedge $-1 $350 $144 $141 $237 forward $231 $-1 #
edge $-1 $243 2.3600957177528734 $354 13.907859217742473 $236 $355 forward 7 unknown #
coedge $-1 $356 $357 $142 $239 forward $346 $-1 #
edge $-1 $358 -65.653235436439687 $242 -54.304887950019676 $238 $359 forward 7 unknown #
edge $-1 $243 74.247012033888012 $358 95.08346812341685 $143 $360 forward 7 unknown #
coedge $-1 $144 $350 $356 $361 forward $231 $-1 #
vertex $-1 $145 $362 #
vertex $-1 $145 $363 #
straight-curve $-1 9.7920986460842769 -10.494073185500547 11.571751389324874 -1 0 0 I I #
coedge $-1 $245 $245 $-1 $364 reversed $148 $-1 #
edge $-1 $365 0 $365 6.2831853071796004 $149 $366 forward 7 unknown #
vertex $-1 $152 $367 #
ellipse-curve $-1 38.804272878699827 -18.742475685493119 5.8975776461148728 0.54463904215088732 0 0.83867056331134215 0.83867056331134215 0 -0.54463904215088732 1 I I #
coedge $-1 $249 $249 $-1 $368 reversed $155 $-1 #
edge $-1 $369 0 $369 6.2831853071796004 $156 $370 forward 7 unknown #
vertex $-1 $159 $371 #
ellipse-curve $-1 38.804272878699827 -13.793434185497574 5.8975776461148728 0.54463904215088732 0 0.83867056331134215 0.83867056331134215 0 -0.54463904215088732 1 I I #
face $-1 $-1 $175 $24 $-1 $372 reversed single #
loop $-1 $-1 $269 $160 #
plane-surface $-1 0 32.889646424891851 0 0 -1 0 0 0 -1 forward_v I I I I #
coedge $-1 $373 $267 $270 $374 forward $161 $-1 #
coedge $-1 $273 $163 $164 $261 reversed $100 $-1 #
coedge $-1 $267 $373 $163 $259 reversed $161 $-1 #
edge $-1 $274 -11.571751389324875 $375 11.571751389324875 $258 $376 forward 7 unknown #
coedge $-1 $165 $164 $373 $377 forward $65 $-1 #
edge $-1 $265 -47.541734061708425 $375 47.541734061708425 $257 $378 forward 7 unknown #
coedge $-1 $270 $269 $165 $263 reversed $254 $-1 #
edge $-1 $379 -47.541734061708425 $264 47.541734061708425 $262 $380 forward 7 unknown #
vertex $-1 $167 $381 #
vertex $-1 $276 $382 #
straight-curve $-1 47.541734061708425 0 -11.571751389324875 0 -1 0 I I #
coedge $-1 $256 $258 $168 $268 reversed $161 $-1 #
edge $-1 $271 -32.889646424891851 $274 32.889646424891851 $267 $383 forward 7 unknown #
coedge $-1 $262 $169 $174 $277 forward $254 $-1 #
coedge $-1 $169 $262 $256 $374 reversed $254 $-1 #
vertex $-1 $170 $384 #
straight-curve $-1 0 32.889646424891851 11.571751389324875 -1 0 0 I I #
coedge $-1 $171 $257 $173 $276 reversed $100 $-1 #
vertex $-1 $268 $385 #
straight-curve $-1 0 -32.889646424891851 11.571751389324875 1 0 0 I I #
edge $-1 $176 -11.571751389324875 $265 11.571751389324875 $173 $386 forward 7 unknown #
edge $-1 $177 -11.571751389324875 $264 11.571751389324875 $174 $387 forward 7 unknown #
point $-1 47.541734061708425 -32.889646424891851 11.571751389324875 #
point $-1 47.541734061708425 32.889646424891851 11.571751389324875 #
face $-1 $-1 $388 $25 $-1 $389 reversed single #
loop $-1 $-1 $189 $179 #
plane-surface $-1 0 -32.889646424891851 0 0 1 0 0 0 1 forward_v I I I I #
coedge $-1 $390 $182 $287 $391 forward $108 $-1 #
coedge $-1 $182 $390 $392 $393 forward $108 $-1 #
edge $-1 $394 -47.541734061708425 $288 47.541734061708425 $182 $395 forward 7 unknown #
coedge $-1 $184 $183 $396 $397 reversed $69 $-1 #
coedge $-1 $185 $191 $283 $391 reversed $180 $-1 #
vertex $-1 $391 $398 #
straight-curve $-1 47.541734061708425 -22.041836685490146 -4.9245894653507838 0 0 1 I I #
coedge $-1 $396 $399 $187 $291 forward $388 $-1 #
edge $-1 $296 -19.15677564729635 $292 -8.3089659078946472 $290 $400 forward 7 unknown #
vertex $-1 $291 $401 #
straight-curve $-1 0 -22.041836685490146 -8.1266064720782598 -1 0 0 I I #
coedge $-1 $402 $189 $399 $403 forward $281 $-1 #
coedge $-1 $189 $402 $191 $298 reversed $281 $-1 #
vertex $-1 $403 $404 #
straight-curve $-1 0 -32.889646424891851 -8.1266064720782598 -1 0 0 I I #
edge $-1 $193 8.1266064720782598 $405 11.571751389324875 $191 $406 forward 7 unknown #
point $-1 47.541734061708425 -22.041836685490146 -8.1266064720782598 #
point $-1 47.541734061708425 -32.889646424891851 -8.1266064720782598 #
face $-1 $-1 $315 $26 $-1 $407 reversed single #
loop $-1 $-1 $307 $195 #
plane-surface $-1 -47.541734061708425 0 0 1 0 0 0 0 -1 forward_v I I I I #
coedge $-1 $408 $409 $198 $306 forward $196 $-1 #
coedge $-1 $199 $198 $206 $320 reversed $73 $-1 #
edge $-1 $410 -47.541734061708425 $309 47.541734061708425 $304 $411 forward 7 unknown #
coedge $-1 $412 $200 $202 $312 forward $302 $-1 #
coedge $-1 $200 $412 $408 $413 reversed $302 $-1 #
vertex $-1 $413 $414 #
vertex $-1 $312 $415 #
straight-curve $-1 -47.541734061708425 22.04183668549015 -4.9245894653507838 0 0 1 I I #
edge $-1 $310 8.308965907894649 $316 19.15677564729635 $307 $416 forward 7 unknown #
coedge $-1 $417 $203 $207 $321 forward $315 $-1 #
coedge $-1 $203 $417 $412 $418 reversed $315 $-1 #
loop $-1 $-1 $203 $301 #
vertex $-1 $418 $419 #
straight-curve $-1 0 32.889646424891851 -8.1266064720782598 1 0 0 I I #
straight-curve $-1 0 22.04183668549015 -8.1266064720782598 1 0 0 I I #
coedge $-1 $207 $206 $409 $420 reversed $116 $-1 #
edge $-1 $209 3.202017006727476 $410 6.6471619239740916 $206 $421 forward 7 unknown #
edge $-1 $208 8.1266064720782598 $422 11.571751389324875 $207 $423 forward 7 unknown #
point $-1 47.541734061708425 32.889646424891851 -8.1266064720782598 #
point $-1 47.541734061708425 22.04183668549015 -8.1266064720782598 #
loop $-1 $-1 $219 $211 #
plane-surface $-1 0 0 11.571751389324875 0 0 1 1 0 0 forward_v I I I I #
coedge $-1 $327 $214 $216 $331 reversed $124 $-1 #
coedge $-1 $214 $326 $424 $425 reversed $124 $-1 #
coedge $-1 $222 $217 $214 $329 forward $212 $-1 #
edge $-1 $332 -32.888777008835987 $426 -26.20025823722181 $328 $427 forward 7 unknown #
coedge $-1 $216 $215 $335 $428 reversed $77 $-1 #
edge $-1 $429 -9.9958343372879312 $332 2.8915846743243384e-014 $326 $430 forward 7 unknown #
vertex $-1 $218 $431 #
straight-curve $-1 -47.541734061708425 -8.7360509270768318 4.8832326177106937 0 -1 0 I I #
coedge $-1 $424 $219 $222 $339 forward $324 $-1 #
coedge $-1 $219 $424 $330 $428 forward $324 $-1 #
vertex $-1 $220 $432 #
straight-curve $-1 -55.582496753511279 -12.902367022817177 11.571751389324874 -1 0 0 I I #
straight-curve $-1 -47.541734061708404 -12.902367022817177 4.8832326177107177 0.74314481823134659 0 0.66913061440640931 I I #
edge $-1 $223 12.902367022817177 $426 22.04183668549015 $222 $433 forward 7 unknown #
point $-1 -47.541734061708425 -12.902367022817177 11.571751389324875 #
point $-1 -47.541734061708425 -12.902367022817177 4.8832326177106982 #
edge $-1 $434 1 $434 0 $226 $-1 forward 7 unknown #
vertex $-1 $227 $435 #
ellipse-curve $-1 -41.594576632858264 -17.472101854153664 5.7475152102818861 -0.66913061440640931 0 0.74314481823134659 0.74314481823134659 0 0.66913061440640931 1 I I #
point $-1 -43.084412997649835 -17.472101854153664 8.8966226179242121 #
loop $-1 $-1 $238 $230 #
plane-surface $-1 47.541734061708425 0 0 -1 0 0 0 0 1 forward_v I I I I #
coedge $-1 $349 $233 $235 $353 reversed $139 $-1 #
coedge $-1 $233 $348 $436 $437 reversed $139 $-1 #
coedge $-1 $241 $236 $233 $351 forward $231 $-1 #
edge $-1 $354 20.274713049606952 $438 37.749635415624148 $350 $439 forward 7 unknown #
coedge $-1 $235 $234 $357 $440 reversed $86 $-1 #
edge $-1 $441 -95.08346812341685 $354 -74.247012033888012 $348 $442 forward 7 unknown #
vertex $-1 $237 $443 #
straight-curve $-1 30.066811695691239 -8.1339774677476733 11.571751389324866 0 -1 0 I I #
coedge $-1 $436 $238 $241 $361 reversed $346 $-1 #
coedge $-1 $238 $436 $352 $440 forward $346 $-1 #
vertex $-1 $239 $444 #
straight-curve $-1 47.541734061708425 -10.494073185500547 65.87663933934455 0 0 1 I I #
straight-curve $-1 -32.201971710953629 -10.494073185500547 52.009572906027046 0.83867056331134215 0 -0.54463904215088732 I I #
edge $-1 $438 -22.041836685490146 $242 -10.494073185500547 $356 $445 forward 7 unknown #
point $-1 47.541734061708425 -10.494073185500547 11.571751389324875 #
point $-1 30.066811695691229 -10.494073185500547 11.571751389324874 #
edge $-1 $446 1 $446 0 $245 $-1 forward 7 unknown #
vertex $-1 $246 $447 #
ellipse-curve $-1 37.75216062887327 -18.742475685493119 4.27746688478544 0.54463904215088732 0 0.83867056331134215 0.83867056331134215 0 -0.54463904215088732 1 I I #
point $-1 39.642943442011166 -18.742475685493119 5.3529386039639792 #
edge $-1 $448 1 $448 0 $249 $-1 forward 7 unknown #
vertex $-1 $250 $449 #
ellipse-curve $-1 37.75216062887327 -13.793434185497574 4.27746688478544 0.54463904215088732 0 0.83867056331134215 0.83867056331134215 0 -0.54463904215088732 1 I I #
point $-1 39.642943442011166 -13.793434185497574 5.3529386039639792 #
plane-surface $-1 47.541734061708425 0 0 -1 0 0 0 0 1 forward_v I I I I #
coedge $-1 $258 $256 $260 $377 reversed $161 $-1 #
edge $-1 $271 -11.571751389324875 $379 11.571751389324875 $270 $450 forward 7 unknown #
vertex $-1 $377 $451 #
straight-curve $-1 -47.541734061708425 -32.889646424891851 0 0 0 -1 I I #
edge $-1 $375 -32.889646424891851 $379 32.889646424891851 $373 $452 forward 7 unknown #
straight-curve $-1 0 -32.889646424891851 -11.571751389324875 -1 0 0 I I #
vertex $-1 $263 $453 #
straight-curve $-1 0 32.889646424891851 -11.571751389324875 1 0 0 I I #
point $-1 47.541734061708425 32.889646424891851 -11.571751389324875 #
point $-1 47.541734061708425 -32.889646424891851 -11.571751389324875 #
straight-curve $-1 -47.541734061708425 0 11.571751389324875 0 -1 0 I I #
point $-1 -47.541734061708425 32.889646424891851 11.571751389324875 #
point $-1 -47.541734061708425 -32.889646424891851 11.571751389324875 #
straight-curve $-1 47.541734061708425 -32.889646424891851 0 0 0 -1 I I #
straight-curve $-1 47.541734061708425 32.889646424891851 0 0 0 -1 I I #
loop $-1 $-1 $396 $280 #
plane-surface $-1 -47.541734061708425 0 0 1 0 0 0 0 -1 forward_v I I I I #
coedge $-1 $284 $283 $402 $454 forward $108 $-1 #
edge $-1 $288 22.041836685490146 $405 32.889646424891851 $287 $455 forward 7 unknown #
coedge $-1 $399 $396 $284 $393 reversed $388 $-1 #
edge $-1 $456 -32.889646424891851 $394 -22.041836685490146 $392 $457 forward 7 unknown #
vertex $-1 $397 $458 #
straight-curve $-1 0 -22.041836685490146 -11.571751389324875 1 0 0 I I #
coedge $-1 $392 $290 $286 $397 forward $388 $-1 #
edge $-1 $292 3.202017006727476 $394 6.6471619239740916 $396 $459 forward 7 unknown #
point $-1 47.541734061708425 -22.041836685490146 -11.571751389324875 #
coedge $-1 $290 $392 $294 $403 reversed $388 $-1 #
straight-curve $-1 -47.541734061708425 -13.732870777595499 -8.1266064720782598 0 1 0 I I #
point $-1 -47.541734061708425 -22.041836685490146 -8.1266064720782598 #
coedge $-1 $295 $294 $390 $454 reversed $281 $-1 #
edge $-1 $296 8.1266064720782598 $456 11.571751389324875 $399 $460 forward 7 unknown #
point $-1 -47.541734061708425 -32.889646424891851 -8.1266064720782598 #
vertex $-1 $298 $461 #
straight-curve $-1 47.541734061708425 -32.889646424891851 0 0 0 -1 I I #
plane-surface $-1 0 32.889646424891851 0 0 -1 0 0 0 -1 forward_v I I I I #
coedge $-1 $462 $304 $308 $413 forward $196 $-1 #
coedge $-1 $304 $462 $319 $420 forward $196 $-1 #
vertex $-1 $306 $463 #
straight-curve $-1 0 22.04183668549015 -11.571751389324875 -1 0 0 I I #
coedge $-1 $308 $307 $314 $418 forward $302 $-1 #
edge $-1 $309 22.04183668549015 $464 32.889646424891851 $308 $465 forward 7 unknown #
point $-1 -47.541734061708425 22.04183668549015 -11.571751389324875 #
point $-1 -47.541734061708425 22.04183668549015 -8.1266064720782598 #
straight-curve $-1 -47.541734061708425 13.732870777595501 -8.1266064720782598 0 1 0 I I #
coedge $-1 $314 $313 $462 $466 reversed $315 $-1 #
edge $-1 $316 8.1266064720782598 $464 11.571751389324875 $314 $467 forward 7 unknown #
point $-1 -47.541734061708425 32.889646424891851 -8.1266064720782598 #
edge $-1 $422 -32.889646424891851 $410 -22.04183668549015 $319 $468 forward 7 unknown #
straight-curve $-1 47.541734061708425 22.04183668549015 -4.9245894653507838 0 0 -1 I I #
vertex $-1 $420 $469 #
straight-curve $-1 47.541734061708425 32.889646424891851 0 0 0 -1 I I #
coedge $-1 $335 $334 $327 $425 forward $324 $-1 #
edge $-1 $426 8.0407626918028541 $429 15.469115183457369 $424 $470 forward 7 unknown #
vertex $-1 $425 $471 #
straight-curve $-1 -47.541734061708425 -22.04183668549015 37.772009626546684 0 0 1 I I #
edge $-1 $429 -13.305785758413318 $336 -4.1663160957403456 $335 $472 forward 7 unknown #
vertex $-1 $428 $473 #
straight-curve $-1 -47.541734061708404 -22.04183668549015 4.8832326177107177 -0.74314481823134659 0 -0.66913061440640931 I I #
point $-1 -47.541734061708425 -22.04183668549015 4.8832326177106982 #
point $-1 -40.11338157005391 -12.902367022817177 11.571751389324875 #
straight-curve $-1 -47.541734061708425 0 11.571751389324875 0 -1 0 I I #
vertex $-1 $342 $474 #
point $-1 -40.851431814626913 -17.472101854153664 6.4166458246882954 #
coedge $-1 $357 $356 $349 $437 forward $346 $-1 #
edge $-1 $438 54.304887950019676 $441 65.653235436439687 $436 $475 forward 7 unknown #
vertex $-1 $361 $476 #
straight-curve $-1 9.7920986460842769 -22.041836685490146 11.571751389324874 1 0 0 I I #
edge $-1 $441 -13.907859217742473 $358 -2.3600957177528734 $357 $477 forward 7 unknown #
vertex $-1 $440 $478 #
straight-curve $-1 -32.201971710953629 -22.041836685490146 52.009572906027046 -0.83867056331134215 0 0.54463904215088732 I I #
point $-1 30.066811695691229 -22.041836685490146 11.571751389324874 #
point $-1 47.541734061708425 -10.494073185500547 0.22340390290486312 #
straight-curve $-1 47.541734061708425 0 11.571751389324875 0 1 0 I I #
vertex $-1 $364 $479 #
point $-1 38.590831192184609 -18.742475685493119 3.7328278426345523 #
vertex $-1 $368 $480 #
point $-1 38.590831192184609 -13.793434185497574 3.7328278426345523 #
straight-curve $-1 -47.541734061708425 32.889646424891851 0 0 0 -1 I I #
point $-1 -47.541734061708425 -32.889646424891851 -11.571751389324875 #
straight-curve $-1 -47.541734061708425 0 -11.571751389324875 0 1 0 I I #
point $-1 -47.541734061708425 32.889646424891851 -11.571751389324875 #
edge $-1 $405 -47.541734061708425 $456 47.541734061708425 $402 $481 forward 7 unknown #
straight-curve $-1 47.541734061708425 0 -11.571751389324875 0 -1 0 I I #
vertex $-1 $393 $482 #
straight-curve $-1 -47.541734061708425 0 -11.571751389324875 0 1 0 I I #
point $-1 -47.541734061708425 -22.041836685490146 -11.571751389324875 #
straight-curve $-1 -47.541734061708425 -22.041836685490146 -4.9245894653507838 0 0 -1 I I #
straight-curve $-1 -47.541734061708425 -32.889646424891851 0 0 0 -1 I I #
point $-1 47.541734061708425 -32.889646424891851 -11.571751389324875 #
coedge $-1 $409 $408 $417 $466 forward $196 $-1 #
point $-1 47.541734061708425 22.04183668549015 -11.571751389324875 #
vertex $-1 $466 $483 #
straight-curve $-1 -47.541734061708425 0 -11.571751389324875 0 1 0 I I #
edge $-1 $464 -47.541734061708425 $422 47.541734061708425 $417 $484 forward 7 unknown #
straight-curve $-1 -47.541734061708425 32.889646424891851 0 0 0 -1 I I #
straight-curve $-1 47.541734061708425 0 -11.571751389324875 0 -1 0 I I #
point $-1 47.541734061708425 32.889646424891851 -11.571751389324875 #
straight-curve $-1 -55.582496753511279 -22.04183668549015 11.571751389324874 1 0 0 I I #
point $-1 -47.541734061708425 -22.04183668549015 11.571751389324875 #
straight-curve $-1 -40.113381570053917 -8.7360509270768318 11.571751389324874 0 1 0 I I #
point $-1 -40.11338157005391 -22.04183668549015 11.571751389324875 #
point $-1 -40.925446018451851 -17.472101854153664 5.0043703920505394 #
straight-curve $-1 47.541734061708425 -22.041836685490146 65.87663933934455 0 0 -1 I I #
point $-1 47.541734061708425 -22.041836685490146 11.571751389324875 #
straight-curve $-1 47.541734061708425 -8.1339774677476733 0.22340390290486667 0 1 0 I I #
point $-1 47.541734061708425 -22.041836685490146 0.22340390290486312 #
point $-1 37.207521586722379 -18.742475685493119 3.4387963214740975 #
point $-1 37.207521586722379 -13.793434185497574 3.4387963214740975 #
straight-curve $-1 0 -32.889646424891851 -11.571751389324875 -1 0 0 I I #
point $-1 -47.541734061708425 -32.889646424891851 -11.571751389324875 #
point $-1 -47.541734061708425 32.889646424891851 -11.571751389324875 #
straight-curve $-1 0 32.889646424891851 -11.571751389324875 1 0 0 I I #
End-of-ACIS-data 