500 0 9 0           
7 Unknown 11 ACIS 5.0 NT 24 Fri Mar 26 00:08:30 1999 
-1 9.9999999999999995e-007 1e-010 
body $-1 $9 $-1 $10 #
body $-1 $11 $-1 $12 #
body $-1 $13 $-1 $14 #
body $-1 $15 $-1 $16 #
body $-1 $17 $-1 $18 #
body $-1 $19 $-1 $20 #
body $-1 $21 $-1 $22 #
body $-1 $23 $-1 $24 #
body $-1 $25 $-1 $26 #
lump $-1 $-1 $27 $0 #
transform $-1 1 0 0 0 1 0 0 0 1 71.429181798760951 46.247926464174718 21.441694377671336 1 rotate no_reflect no_shear #
lump $-1 $-1 $28 $1 #
transform $-1 1 0 0 0 1 0 0 0 1 71.429181798760951 46.247926464174718 21.441694377671336 1 rotate no_reflect no_shear #
lump $-1 $-1 $29 $2 #
transform $-1 1 0 0 0 1 0 0 0 1 71.429181798760951 46.247926464174718 21.441694377671336 1 rotate no_reflect no_shear #
lump $-1 $-1 $30 $3 #
transform $-1 1 0 0 0 1 0 0 0 1 71.429181798760951 46.247926464174718 21.441694377671336 1 rotate no_reflect no_shear #
lump $-1 $-1 $31 $4 #
transform $-1 1 0 0 0 1 0 0 0 1 71.429181798760951 46.247926464174718 21.441694377671336 1 rotate no_reflect no_shear #
lump $-1 $-1 $32 $5 #
transform $-1 1 0 0 0 1 0 0 0 1 71.429181798760951 46.247926464174718 21.441694377671336 1 rotate no_reflect no_shear #
lump $-1 $-1 $33 $6 #
transform $-1 1 0 0 0 1 0 0 0 1 71.429181798760951 46.247926464174718 21.441694377671336 1 rotate no_reflect no_shear #
lump $-1 $-1 $34 $7 #
transform $-1 1 0 0 0 1 0 0 0 1 71.429181798760951 46.247926464174718 21.441694377671336 1 rotate no_reflect no_shear #
lump $-1 $-1 $35 $8 #
transform $-1 1 0 0 0 1 0 0 0 1 71.429181798760951 46.247926464174718 21.441694377671336 1 rotate no_reflect no_shear #
shell $-1 $-1 $-1 $36 $-1 $9 #
shell $-1 $-1 $-1 $37 $-1 $11 #
shell $-1 $-1 $-1 $38 $-1 $13 #
shell $-1 $-1 $-1 $39 $-1 $15 #
shell $-1 $-1 $-1 $40 $-1 $17 #
shell $-1 $-1 $-1 $41 $-1 $19 #
shell $-1 $-1 $-1 $42 $-1 $21 #
shell $-1 $-1 $-1 $43 $-1 $23 #
shell $-1 $-1 $-1 $44 $-1 $25 #
face $-1 $45 $46 $27 $-1 $47 forward single #
face $-1 $48 $49 $28 $-1 $50 reversed single #
face $-1 $51 $52 $29 $-1 $53 forward single #
face $-1 $54 $55 $30 $-1 $56 forward single #
face $-1 $57 $58 $31 $-1 $59 forward single #
face $-1 $60 $61 $32 $-1 $62 reversed single #
face $-1 $63 $64 $33 $-1 $65 forward single #
face $-1 $66 $67 $34 $-1 $68 forward single #
face $-1 $69 $70 $35 $-1 $71 forward single #
face $-1 $72 $73 $27 $-1 $74 reversed single #
loop $-1 $-1 $75 $36 #
plane-surface $-1 0 0 21.441694377671336 0 0 1 1 0 0 forward_v I I I I #
face $-1 $76 $77 $28 $-1 $78 reversed single #
loop $-1 $-1 $79 $37 #
plane-surface $-1 53.73984858112108 -46.247926464174725 10.24150860898115 0 -0.83867057594974714 0.54463902268945019 1 0 0 forward_v I I I I #
face $-1 $80 $81 $29 $-1 $82 forward single #
loop $-1 $83 $84 $38 #
cone-surface $-1 43.126248650537164 -40.880566645205441 14.71772564754669 0 0.83867057594974714 -0.54463902268945019 1.5 0 0 1 I I 0 1 1.5 forward I I I I #
face $-1 $85 $86 $30 $-1 $87 forward single #
loop $-1 $88 $89 $39 #
cone-surface $-1 53.73984858112108 -40.880566645205441 14.71772564754669 0 0.83867057594974714 -0.54463902268945019 1.5 0 0 1 I I 0 1 1.5 forward I I I I #
face $-1 $90 $91 $31 $-1 $92 forward single #
loop $-1 $93 $94 $40 #
cone-surface $-1 64.353448511704997 -40.880566645205441 14.71772564754669 0 0.83867057594974714 -0.54463902268945019 1.5 0 0 1 I I 0 1 1.5 forward I I I I #
face $-1 $95 $96 $32 $-1 $97 reversed single #
loop $-1 $-1 $98 $41 #
plane-surface $-1 53.73984858112108 -4.1289244775486225 87.815058857363098 0 0.83867057594974714 0.54463902268945019 1 0 0 forward_v I I I I #
face $-1 $99 $100 $33 $-1 $101 forward single #
loop $-1 $102 $103 $42 #
cone-surface $-1 43.126248650537164 40.880566645205448 14.71772564754669 0 -0.83867057594974714 -0.54463902268945019 1.5 0 0 1 I I 0 1 1.5 forward I I I I #
face $-1 $104 $105 $34 $-1 $106 forward single #
loop $-1 $107 $108 $43 #
cone-surface $-1 53.73984858112108 40.880566645205448 14.71772564754669 0 -0.83867057594974714 -0.54463902268945019 1.5 0 0 1 I I 0 1 1.5 forward I I I I #
face $-1 $109 $110 $35 $-1 $111 forward single #
loop $-1 $112 $113 $44 #
cone-surface $-1 64.353448511704997 40.880566645205448 14.71772564754669 0 -0.83867057594974714 -0.54463902268945019 1.5 0 0 1 I I 0 1 1.5 forward I I I I #
face $-1 $114 $115 $27 $-1 $116 reversed single #
loop $-1 $-1 $117 $45 #
plane-surface $-1 0 0 -21.441694377671336 0 0 1 1 0 0 forward_v I I I I #
coedge $-1 $118 $119 $120 $121 forward $46 $-1 #
face $-1 $122 $123 $28 $-1 $124 reversed single #
loop $-1 $-1 $125 $48 #
plane-surface $-1 36.05051536348121 -166.0590325417468 88.047748141749608 1 0 0 0 0.83867057594974714 -0.54463902268945019 forward_v I I I I #
coedge $-1 $126 $127 $128 $129 reversed $49 $-1 #
face $-1 $-1 $130 $29 $-1 $131 forward single #
loop $-1 $132 $133 $51 #
cone-surface $-1 43.126248650537164 -38.520946618967486 13.185370534750053 0 0.83867057594974714 -0.54463902268945019 0.75 0 0 1 I I -0.70710678118654757 0.70710678118654757 0.75 forward I I I I #
loop $-1 $-1 $134 $38 #
coedge $-1 $84 $84 $135 $136 reversed $52 $-1 #
face $-1 $-1 $137 $30 $-1 $138 forward single #
loop $-1 $139 $140 $54 #
cone-surface $-1 53.73984858112108 -38.520946618967486 13.185370534750053 0 0.83867057594974714 -0.54463902268945019 0.75 0 0 1 I I -0.70710678118654757 0.70710678118654757 0.75 forward I I I I #
loop $-1 $-1 $141 $39 #
coedge $-1 $89 $89 $142 $143 reversed $55 $-1 #
face $-1 $-1 $144 $31 $-1 $145 forward single #
loop $-1 $146 $147 $57 #
cone-surface $-1 64.353448511704997 -38.520946618967486 13.185370534750053 0 0.83867057594974714 -0.54463902268945019 0.75 0 0 1 I I -0.70710678118654757 0.70710678118654757 0.75 forward I I I I #
loop $-1 $-1 $148 $40 #
coedge $-1 $94 $94 $149 $150 reversed $58 $-1 #
face $-1 $151 $152 $32 $-1 $153 forward single #
loop $-1 $-1 $154 $60 #
plane-surface $-1 36.05051536348121 115.68218160002345 165.62129839013156 1 0 0 0 -0.83867057594974714 -0.54463902268945019 forward_v I I I I #
coedge $-1 $155 $156 $157 $158 reversed $61 $-1 #
face $-1 $-1 $159 $33 $-1 $160 forward single #
loop $-1 $161 $162 $63 #
cone-surface $-1 43.126248650537164 38.520946618967493 13.185370534750053 0 -0.83867057594974714 -0.54463902268945019 0.75 0 0 1 I I -0.70710678118654757 0.70710678118654757 0.75 forward I I I I #
loop $-1 $-1 $163 $42 #
coedge $-1 $103 $103 $164 $165 reversed $64 $-1 #
face $-1 $-1 $166 $34 $-1 $167 forward single #
loop $-1 $168 $169 $66 #
cone-surface $-1 53.73984858112108 38.520946618967493 13.185370534750053 0 -0.83867057594974714 -0.54463902268945019 0.75 0 0 1 I I -0.70710678118654757 0.70710678118654757 0.75 forward I I I I #
loop $-1 $-1 $170 $43 #
coedge $-1 $108 $108 $171 $172 reversed $67 $-1 #
face $-1 $-1 $173 $35 $-1 $174 forward single #
loop $-1 $175 $176 $69 #
cone-surface $-1 64.353448511704997 38.520946618967493 13.185370534750053 0 -0.83867057594974714 -0.54463902268945019 0.75 0 0 1 I I -0.70710678118654757 0.70710678118654757 0.75 forward I I I I #
loop $-1 $-1 $177 $44 #
coedge $-1 $113 $113 $178 $179 reversed $70 $-1 #
face $-1 $180 $181 $27 $-1 $182 reversed single #
loop $-1 $-1 $183 $72 #
plane-surface $-1 0 -46.247926464174718 0 0 1 0 0 0 1 forward_v I I I I #
coedge $-1 $184 $185 $186 $187 forward $73 $-1 #
coedge $-1 $188 $75 $189 $190 forward $46 $-1 #
coedge $-1 $75 $188 $191 $192 forward $46 $-1 #
coedge $-1 $193 $194 $75 $121 reversed $195 $-1 #
edge $-1 $196 -46.247926464174718 $197 46.247926464174718 $120 $198 forward 7 unknown #
face $-1 $199 $200 $28 $-1 $201 forward single #
loop $-1 $-1 $202 $76 #
plane-surface $-1 0 -46.247926464174718 0 0 1 0 0 0 1 forward_v I I I I #
coedge $-1 $203 $204 $205 $206 reversed $77 $-1 #
coedge $-1 $207 $79 $208 $209 reversed $49 $-1 #
coedge $-1 $79 $207 $203 $210 forward $49 $-1 #
coedge $-1 $205 $211 $79 $129 forward $200 $-1 #
edge $-1 $212 -44.55925750820041 $213 -9.1805910729206701 $128 $214 forward 7 unknown #
loop $-1 $-1 $135 $80 #
plane-surface $-1 53.73984858112108 -46.247926464174725 10.24150860898115 0 -0.83867057594974714 0.54463902268945019 1 0 0 forward_v I I I I #
loop $-1 $-1 $215 $51 #
coedge $-1 $133 $133 $134 $216 reversed $81 $-1 #
coedge $-1 $134 $134 $133 $216 forward $83 $-1 #
coedge $-1 $135 $135 $84 $136 forward $130 $-1 #
edge $-1 $217 -1.3928132283557532e-015 $217 6.2831853071795987 $135 $218 forward 7 unknown #
loop $-1 $-1 $142 $85 #
plane-surface $-1 53.73984858112108 -46.247926464174725 10.24150860898115 0 -0.83867057594974714 0.54463902268945019 1 0 0 forward_v I I I I #
loop $-1 $-1 $219 $54 #
coedge $-1 $140 $140 $141 $220 reversed $86 $-1 #
coedge $-1 $141 $141 $140 $220 forward $88 $-1 #
coedge $-1 $142 $142 $89 $143 forward $137 $-1 #
edge $-1 $221 -1.3928132283557532e-015 $221 6.2831853071795987 $142 $222 forward 7 unknown #
loop $-1 $-1 $149 $90 #
plane-surface $-1 53.73984858112108 -46.247926464174725 10.24150860898115 0 -0.83867057594974714 0.54463902268945019 1 0 0 forward_v I I I I #
loop $-1 $-1 $223 $57 #
coedge $-1 $147 $147 $148 $224 reversed $91 $-1 #
coedge $-1 $148 $148 $147 $224 forward $93 $-1 #
coedge $-1 $149 $149 $94 $150 forward $144 $-1 #
edge $-1 $225 -1.3928132283557532e-015 $225 6.2831853071795987 $149 $226 forward 7 unknown #
face $-1 $227 $228 $32 $-1 $229 reversed single #
loop $-1 $-1 $230 $95 #
plane-surface $-1 0 0 21.441694377671336 0 0 1 1 0 0 forward_v I I I I #
coedge $-1 $231 $232 $233 $234 reversed $96 $-1 #
coedge $-1 $235 $98 $236 $237 reversed $61 $-1 #
coedge $-1 $98 $235 $231 $238 forward $61 $-1 #
coedge $-1 $233 $239 $98 $158 forward $240 $-1 #
edge $-1 $241 -44.55925750820041 $242 -9.1805910729206701 $157 $243 forward 7 unknown #
loop $-1 $-1 $164 $99 #
plane-surface $-1 53.73984858112108 -4.1289244775486225 87.815058857363098 0 0.83867057594974714 0.54463902268945019 1 0 0 forward_v I I I I #
loop $-1 $-1 $244 $63 #
coedge $-1 $162 $162 $163 $245 reversed $100 $-1 #
coedge $-1 $163 $163 $162 $245 forward $102 $-1 #
coedge $-1 $164 $164 $103 $165 forward $159 $-1 #
edge $-1 $246 -1.381045416673363e-015 $246 6.2831853071795987 $164 $247 forward 7 unknown #
loop $-1 $-1 $171 $104 #
plane-surface $-1 53.73984858112108 -4.1289244775486225 87.815058857363098 0 0.83867057594974714 0.54463902268945019 1 0 0 forward_v I I I I #
loop $-1 $-1 $248 $66 #
coedge $-1 $169 $169 $170 $249 reversed $105 $-1 #
coedge $-1 $170 $170 $169 $249 forward $107 $-1 #
coedge $-1 $171 $171 $108 $172 forward $166 $-1 #
edge $-1 $250 -1.381045416673363e-015 $250 6.2831853071795987 $171 $251 forward 7 unknown #
loop $-1 $-1 $178 $109 #
plane-surface $-1 53.73984858112108 -4.1289244775486225 87.815058857363098 0 0.83867057594974714 0.54463902268945019 1 0 0 forward_v I I I I #
loop $-1 $-1 $252 $69 #
coedge $-1 $176 $176 $177 $253 reversed $110 $-1 #
coedge $-1 $177 $177 $176 $253 forward $112 $-1 #
coedge $-1 $178 $178 $113 $179 forward $173 $-1 #
edge $-1 $254 -1.381045416673363e-015 $254 6.2831853071795987 $178 $255 forward 7 unknown #
face $-1 $256 $257 $27 $-1 $258 reversed single #
loop $-1 $-1 $259 $114 #
plane-surface $-1 -71.429181798760951 0 0 1 0 0 0 0 -1 forward_v I I I I #
coedge $-1 $260 $191 $261 $262 forward $115 $-1 #
coedge $-1 $263 $117 $260 $264 forward $73 $-1 #
coedge $-1 $117 $263 $265 $266 forward $73 $-1 #
coedge $-1 $194 $193 $117 $187 reversed $195 $-1 #
edge $-1 $267 -46.247926464174718 $268 46.247926464174718 $186 $269 forward 7 unknown #
coedge $-1 $119 $118 $270 $271 forward $46 $-1 #
coedge $-1 $272 $273 $118 $190 reversed $257 $-1 #
edge $-1 $197 -71.429181798760951 $274 71.429181798760951 $189 $275 forward 7 unknown #
coedge $-1 $183 $276 $119 $192 reversed $115 $-1 #
edge $-1 $277 -71.429181798760951 $196 71.429181798760951 $191 $278 forward 7 unknown #
coedge $-1 $186 $120 $276 $279 forward $195 $-1 #
coedge $-1 $120 $186 $272 $280 reversed $195 $-1 #
loop $-1 $-1 $193 $256 #
vertex $-1 $121 $281 #
vertex $-1 $121 $282 #
straight-curve $-1 71.429181798760951 0 21.441694377671336 0 1 0 I I #
face $-1 $-1 $283 $28 $-1 $284 reversed single #
loop $-1 $-1 $205 $122 #
plane-surface $-1 0 0 21.441694377671336 0 0 1 1 0 0 forward_v I I I I #
coedge $-1 $285 $286 $204 $287 forward $123 $-1 #
coedge $-1 $204 $125 $127 $210 reversed $77 $-1 #
coedge $-1 $125 $203 $202 $287 reversed $77 $-1 #
coedge $-1 $288 $128 $125 $206 forward $200 $-1 #
edge $-1 $213 -44.055075256085928 $289 -36.781589806698683 $205 $290 forward 7 unknown #
coedge $-1 $127 $126 $285 $291 reversed $49 $-1 #
coedge $-1 $292 $293 $126 $209 forward $283 $-1 #
edge $-1 $294 -8.2995867735865705 $212 5.0551034824851859 $208 $295 forward 7 unknown #
edge $-1 $296 1.2808562293387176e-014 $213 13.35469025607177 $203 $297 forward 7 unknown #
coedge $-1 $128 $288 $292 $298 forward $200 $-1 #
vertex $-1 $209 $299 #
vertex $-1 $129 $300 #
straight-curve $-1 26.86992429056054 -38.974441014787466 21.441694377671336 -1 0 0 I I #
coedge $-1 $215 $215 $-1 $301 reversed $132 $-1 #
edge $-1 $302 0 $302 6.2831853071796004 $133 $303 forward 7 unknown #
vertex $-1 $136 $304 #
ellipse-curve $-1 43.126248650537164 -42.611183739481099 15.841601493326246 0 -0.83867057594974714 0.54463902268945019 1.5 0 0 1 I I #
coedge $-1 $219 $219 $-1 $305 reversed $139 $-1 #
edge $-1 $306 0 $306 6.2831853071796004 $140 $307 forward 7 unknown #
vertex $-1 $143 $308 #
ellipse-curve $-1 53.73984858112108 -42.611183739481099 15.841601493326246 0 -0.83867057594974714 0.54463902268945019 1.5 0 0 1 I I #
coedge $-1 $223 $223 $-1 $309 reversed $146 $-1 #
edge $-1 $310 0 $310 6.2831853071796004 $147 $311 forward 7 unknown #
vertex $-1 $150 $312 #
ellipse-curve $-1 64.353448511704997 -42.611183739481099 15.841601493326246 0 -0.83867057594974714 0.54463902268945019 1.5 0 0 1 I I #
face $-1 $-1 $240 $32 $-1 $313 reversed single #
loop $-1 $-1 $236 $151 #
plane-surface $-1 71.429181798760951 0 0 -1 0 0 0 0 1 forward_v I I I I #
coedge $-1 $314 $315 $232 $316 forward $152 $-1 #
coedge $-1 $232 $154 $156 $238 reversed $96 $-1 #
coedge $-1 $154 $231 $230 $316 reversed $96 $-1 #
coedge $-1 $317 $157 $154 $234 forward $240 $-1 #
edge $-1 $242 -72.569140586084586 $318 -61.368954817394439 $233 $319 forward 7 unknown #
coedge $-1 $156 $155 $314 $320 reversed $61 $-1 #
coedge $-1 $321 $322 $155 $237 forward $228 $-1 #
edge $-1 $323 41.192822981689545 $241 54.547513237761265 $236 $324 forward 7 unknown #
edge $-1 $325 79.141162672277687 $242 92.495852928349422 $231 $326 forward 7 unknown #
coedge $-1 $157 $317 $321 $327 forward $240 $-1 #
loop $-1 $-1 $233 $227 #
vertex $-1 $237 $328 #
vertex $-1 $158 $329 #
straight-curve $-1 26.86992429056054 46.247926464174725 10.241508608981185 -1 0 0 I I #
coedge $-1 $244 $244 $-1 $330 reversed $161 $-1 #
edge $-1 $331 0 $331 6.2831853071796004 $162 $332 forward 7 unknown #
vertex $-1 $165 $333 #
ellipse-curve $-1 43.126248650537164 42.61118373948112 15.841601493326255 0 0.83867057594974714 0.54463902268945019 1.5 0 0 1 I I #
coedge $-1 $248 $248 $-1 $334 reversed $168 $-1 #
edge $-1 $335 0 $335 6.2831853071796004 $169 $336 forward 7 unknown #
vertex $-1 $172 $337 #
ellipse-curve $-1 53.73984858112108 42.61118373948112 15.841601493326255 0 0.83867057594974714 0.54463902268945019 1.5 0 0 1 I I #
coedge $-1 $252 $252 $-1 $338 reversed $175 $-1 #
edge $-1 $339 0 $339 6.2831853071796004 $176 $340 forward 7 unknown #
vertex $-1 $179 $341 #
ellipse-curve $-1 64.353448511704997 42.61118373948112 15.841601493326255 0 0.83867057594974714 0.54463902268945019 1.5 0 0 1 I I #
face $-1 $-1 $195 $27 $-1 $342 reversed single #
loop $-1 $-1 $272 $180 #
plane-surface $-1 0 46.247926464174718 0 0 -1 0 0 0 -1 forward_v I I I I #
coedge $-1 $343 $270 $273 $344 forward $181 $-1 #
coedge $-1 $276 $183 $184 $264 reversed $115 $-1 #
coedge $-1 $270 $343 $183 $262 reversed $181 $-1 #
edge $-1 $277 -21.441694377671336 $345 21.441694377671336 $261 $346 forward 7 unknown #
coedge $-1 $185 $184 $343 $347 forward $73 $-1 #
edge $-1 $268 -71.429181798760951 $345 71.429181798760951 $260 $348 forward 7 unknown #
coedge $-1 $273 $272 $185 $266 reversed $257 $-1 #
edge $-1 $349 -71.429181798760951 $267 71.429181798760951 $265 $350 forward 7 unknown #
vertex $-1 $187 $351 #
vertex $-1 $279 $352 #
straight-curve $-1 71.429181798760951 0 -21.441694377671336 0 -1 0 I I #
coedge $-1 $259 $261 $188 $271 reversed $181 $-1 #
edge $-1 $274 -46.247926464174718 $277 46.247926464174718 $270 $353 forward 7 unknown #
coedge $-1 $265 $189 $194 $280 forward $257 $-1 #
coedge $-1 $189 $265 $259 $344 reversed $257 $-1 #
vertex $-1 $190 $354 #
straight-curve $-1 0 46.247926464174718 21.441694377671336 -1 0 0 I I #
coedge $-1 $191 $260 $193 $279 reversed $115 $-1 #
vertex $-1 $271 $355 #
straight-curve $-1 0 -46.247926464174718 21.441694377671336 1 0 0 I I #
edge $-1 $196 -21.441694377671336 $268 21.441694377671336 $193 $356 forward 7 unknown #
edge $-1 $197 -21.441694377671336 $267 21.441694377671336 $194 $357 forward 7 unknown #
point $-1 71.429181798760951 -46.247926464174718 21.441694377671336 #
point $-1 71.429181798760951 46.247926464174718 21.441694377671336 #
loop $-1 $-1 $208 $199 #
plane-surface $-1 71.429181798760951 0 0 -1 0 0 0 0 1 forward_v I I I I #
coedge $-1 $358 $202 $207 $291 forward $123 $-1 #
coedge $-1 $202 $358 $288 $359 reversed $123 $-1 #
edge $-1 $289 22.582179693203468 $296 33.782365461893647 $202 $360 forward 7 unknown #
coedge $-1 $211 $205 $286 $359 forward $200 $-1 #
vertex $-1 $359 $361 #
straight-curve $-1 36.05051536348121 -83.029516270873401 21.44169437767134 0 -1 0 I I #
edge $-1 $296 9.1805910729206701 $294 44.55925750820041 $285 $362 forward 7 unknown #
coedge $-1 $293 $208 $211 $298 reversed $283 $-1 #
coedge $-1 $208 $292 $358 $363 forward $283 $-1 #
vertex $-1 $291 $364 #
straight-curve $-1 71.429181798760951 -41.727647635082242 17.202127828529914 0 0.54463902268945019 0.83867057594974714 I I #
vertex $-1 $291 $365 #
straight-curve $-1 36.05051536348121 -46.247926464174725 10.24150860898115 0 0.54463902268945019 0.83867057594974714 I I #
edge $-1 $366 -46.247926464174718 $212 -38.974441014787473 $292 $367 forward 7 unknown #
point $-1 71.429181798760951 -38.974441014787473 21.441694377671336 #
point $-1 36.05051536348121 -38.974441014787473 21.441694377671336 #
edge $-1 $368 1 $368 0 $215 $-1 forward 7 unknown #
vertex $-1 $216 $369 #
ellipse-curve $-1 43.126248650537164 -39.149949550929797 13.59384980176714 0 -0.83867057594974714 0.54463902268945019 1.5 0 0 1 I I #
point $-1 44.626248650537164 -42.611183739481092 15.841601493326239 #
edge $-1 $370 1 $370 0 $219 $-1 forward 7 unknown #
vertex $-1 $220 $371 #
ellipse-curve $-1 53.73984858112108 -39.149949550929797 13.59384980176714 0 -0.83867057594974714 0.54463902268945019 1.5 0 0 1 I I #
point $-1 55.23984858112108 -42.611183739481092 15.841601493326239 #
edge $-1 $372 1 $372 0 $223 $-1 forward 7 unknown #
vertex $-1 $224 $373 #
ellipse-curve $-1 64.353448511704997 -39.149949550929797 13.59384980176714 0 -0.83867057594974714 0.54463902268945019 1.5 0 0 1 I I #
point $-1 65.853448511704997 -42.611183739481092 15.841601493326239 #
plane-surface $-1 0 46.247926464174718 0 0 -1 0 0 0 -1 forward_v I I I I #
coedge $-1 $374 $230 $235 $320 forward $152 $-1 #
coedge $-1 $230 $374 $317 $375 forward $152 $-1 #
edge $-1 $318 11.59316433583701 $325 18.866649785224233 $230 $376 forward 7 unknown #
coedge $-1 $239 $233 $315 $375 reversed $240 $-1 #
vertex $-1 $316 $377 #
straight-curve $-1 36.05051536348121 46.247926464174718 82.810649195065778 0 0 1 I I #
edge $-1 $325 9.1805910729206701 $323 44.55925750820041 $314 $378 forward 7 unknown #
coedge $-1 $322 $236 $239 $327 reversed $228 $-1 #
coedge $-1 $236 $321 $374 $379 reversed $228 $-1 #
vertex $-1 $379 $380 #
straight-curve $-1 71.429181798760951 16.539222164220575 55.988902952720892 0 0.54463902268945019 -0.83867057594974714 I I #
vertex $-1 $320 $381 #
straight-curve $-1 36.05051536348121 -4.1289244775486225 87.815058857363098 0 0.54463902268945019 -0.83867057594974714 I I #
edge $-1 $382 -21.441694377671336 $241 -10.24150860898119 $321 $383 forward 7 unknown #
point $-1 71.429181798760951 46.247926464174718 10.24150860898119 #
point $-1 36.05051536348121 46.247926464174718 10.241508608981192 #
edge $-1 $384 1 $384 0 $244 $-1 forward 7 unknown #
vertex $-1 $245 $385 #
ellipse-curve $-1 43.126248650537164 39.149949550929804 13.59384980176714 0 0.83867057594974714 0.54463902268945019 1.5 0 0 1 I I #
point $-1 44.626248650537164 42.611183739481092 15.841601493326239 #
edge $-1 $386 1 $386 0 $248 $-1 forward 7 unknown #
vertex $-1 $249 $387 #
ellipse-curve $-1 53.73984858112108 39.149949550929804 13.59384980176714 0 0.83867057594974714 0.54463902268945019 1.5 0 0 1 I I #
point $-1 55.23984858112108 42.611183739481092 15.841601493326239 #
edge $-1 $388 1 $388 0 $252 $-1 forward 7 unknown #
vertex $-1 $253 $389 #
ellipse-curve $-1 64.353448511704997 39.149949550929804 13.59384980176714 0 0.83867057594974714 0.54463902268945019 1.5 0 0 1 I I #
point $-1 65.853448511704997 42.611183739481092 15.841601493326239 #
plane-surface $-1 71.429181798760951 0 0 -1 0 0 0 0 1 forward_v I I I I #
coedge $-1 $261 $259 $263 $347 reversed $181 $-1 #
edge $-1 $274 -21.441694377671336 $349 21.441694377671336 $273 $390 forward 7 unknown #
vertex $-1 $347 $391 #
straight-curve $-1 -71.429181798760951 -46.247926464174718 0 0 0 -1 I I #
edge $-1 $345 -46.247926464174718 $349 46.247926464174718 $343 $392 forward 7 unknown #
straight-curve $-1 0 -46.247926464174718 -21.441694377671336 -1 0 0 I I #
vertex $-1 $266 $393 #
straight-curve $-1 0 46.247926464174718 -21.441694377671336 1 0 0 I I #
point $-1 71.429181798760951 46.247926464174718 -21.441694377671336 #
point $-1 71.429181798760951 -46.247926464174718 -21.441694377671336 #
straight-curve $-1 -71.429181798760951 0 21.441694377671336 0 -1 0 I I #
point $-1 -71.429181798760951 46.247926464174718 21.441694377671336 #
point $-1 -71.429181798760951 -46.247926464174718 21.441694377671336 #
straight-curve $-1 71.429181798760951 -46.247926464174718 0 0 0 -1 I I #
straight-curve $-1 71.429181798760951 46.247926464174718 0 0 0 -1 I I #
coedge $-1 $286 $285 $293 $363 reversed $123 $-1 #
edge $-1 $289 36.05051536348121 $366 71.429181798760951 $286 $394 forward 7 unknown #
straight-curve $-1 36.05051536348121 -46.247926464174718 44.023874070874804 0 0 -1 I I #
point $-1 36.05051536348121 -46.247926464174718 21.441694377671336 #
straight-curve $-1 26.86992429056054 -46.247926464174718 10.241508608981166 1 0 0 I I #
edge $-1 $366 -21.441694377671336 $294 -10.24150860898116 $293 $395 forward 7 unknown #
point $-1 71.429181798760951 -46.247926464174718 10.24150860898116 #
point $-1 36.05051536348121 -46.247926464174718 10.24150860898116 #
vertex $-1 $298 $396 #
straight-curve $-1 71.429181798760951 0 21.441694377671336 0 1 0 I I #
vertex $-1 $301 $397 #
point $-1 44.626248650537164 -39.149949550929797 13.59384980176714 #
vertex $-1 $305 $398 #
point $-1 55.23984858112108 -39.149949550929797 13.59384980176714 #
vertex $-1 $309 $399 #
point $-1 65.853448511704997 -39.149949550929797 13.59384980176714 #
coedge $-1 $315 $314 $322 $379 forward $152 $-1 #
edge $-1 $382 -71.429181798760951 $318 -36.05051536348121 $317 $400 forward 7 unknown #
straight-curve $-1 36.05051536348121 57.841090800011727 21.44169437767134 0 -1 0 I I #
point $-1 36.05051536348121 46.247926464174718 21.441694377671336 #
straight-curve $-1 26.86992429056054 38.974441014787494 21.441694377671332 1 0 0 I I #
edge $-1 $323 38.974441014787494 $382 46.247926464174718 $322 $401 forward 7 unknown #
point $-1 71.429181798760951 38.974441014787494 21.44169437767134 #
point $-1 36.05051536348121 38.974441014787494 21.44169437767134 #
vertex $-1 $379 $402 #
straight-curve $-1 71.429181798760951 46.247926464174718 0 0 0 -1 I I #
vertex $-1 $330 $403 #
point $-1 44.626248650537164 39.149949550929804 13.59384980176714 #
vertex $-1 $334 $404 #
point $-1 55.23984858112108 39.149949550929804 13.59384980176714 #
vertex $-1 $338 $405 #
point $-1 65.853448511704997 39.149949550929804 13.59384980176714 #
straight-curve $-1 -71.429181798760951 46.247926464174718 0 0 0 -1 I I #
point $-1 -71.429181798760951 -46.247926464174718 -21.441694377671336 #
straight-curve $-1 -71.429181798760951 0 -21.441694377671336 0 1 0 I I #
point $-1 -71.429181798760951 46.247926464174718 -21.441694377671336 #
straight-curve $-1 0 -46.247926464174718 21.441694377671336 1 0 0 I I #
straight-curve $-1 71.429181798760951 -46.247926464174718 0 0 0 -1 I I #
point $-1 71.429181798760951 -46.247926464174718 21.441694377671336 #
point $-1 43.126248650537164 -37.891943687005174 12.776891267732966 #
point $-1 53.73984858112108 -37.891943687005174 12.776891267732966 #
point $-1 64.353448511704997 -37.891943687005174 12.776891267732966 #
straight-curve $-1 0 46.247926464174718 21.441694377671336 -1 0 0 I I #
straight-curve $-1 71.429181798760951 0 21.441694377671336 0 1 0 I I #
point $-1 71.429181798760951 46.247926464174718 21.441694377671336 #
point $-1 43.126248650537164 37.891943687005181 12.776891267732966 #
point $-1 53.73984858112108 37.891943687005181 12.776891267732966 #
point $-1 64.353448511704997 37.891943687005181 12.776891267732966 #
End-of-ACIS-data 