500 0 9 0           
7 Unknown 11 ACIS 5.0 NT 24 Fri Mar 26 01:41:18 1999 
-1 9.9999999999999995e-007 1e-010 
body $-1 $9 $-1 $10 #
body $-1 $11 $-1 $12 #
body $-1 $13 $-1 $14 #
body $-1 $15 $-1 $16 #
body $-1 $17 $-1 $18 #
body $-1 $19 $-1 $20 #
body $-1 $21 $-1 $22 #
body $-1 $23 $-1 $24 #
body $-1 $25 $-1 $26 #
lump $-1 $-1 $27 $0 #
transform $-1 1 0 0 0 1 0 0 0 1 68.296761986144588 42.848521811772997 10.185203609959336 1 rotate no_reflect no_shear #
lump $-1 $-1 $28 $1 #
transform $-1 1 0 0 0 1 0 0 0 1 68.296761986144588 42.848521811772997 10.185203609959336 1 rotate no_reflect no_shear #
lump $-1 $-1 $29 $2 #
transform $-1 1 0 0 0 1 0 0 0 1 68.296761986144588 42.848521811772997 10.185203609959336 1 rotate no_reflect no_shear #
lump $-1 $-1 $30 $3 #
transform $-1 1 0 0 0 1 0 0 0 1 68.296761986144588 42.848521811772997 10.185203609959336 1 rotate no_reflect no_shear #
lump $-1 $-1 $31 $4 #
transform $-1 1 0 0 0 1 0 0 0 1 68.296761986144588 42.848521811772997 10.185203609959336 1 rotate no_reflect no_shear #
lump $-1 $-1 $32 $5 #
transform $-1 1 0 0 0 1 0 0 0 1 68.296761986144588 42.848521811772997 10.185203609959336 1 rotate no_reflect no_shear #
lump $-1 $-1 $33 $6 #
transform $-1 1 0 0 0 1 0 0 0 1 68.296761986144588 42.848521811772997 10.185203609959336 1 rotate no_reflect no_shear #
lump $-1 $-1 $34 $7 #
transform $-1 1 0 0 0 1 0 0 0 1 68.296761986144588 42.848521811772997 10.185203609959336 1 rotate no_reflect no_shear #
lump $-1 $-1 $35 $8 #
transform $-1 1 0 0 0 1 0 0 0 1 68.296761986144588 42.848521811772997 10.185203609959336 1 rotate no_reflect no_shear #
shell $-1 $-1 $-1 $36 $-1 $9 #
shell $-1 $-1 $-1 $37 $-1 $11 #
shell $-1 $-1 $-1 $38 $-1 $13 #
shell $-1 $-1 $-1 $39 $-1 $15 #
shell $-1 $-1 $-1 $40 $-1 $17 #
shell $-1 $-1 $-1 $41 $-1 $19 #
shell $-1 $-1 $-1 $42 $-1 $21 #
shell $-1 $-1 $-1 $43 $-1 $23 #
shell $-1 $-1 $-1 $44 $-1 $25 #
face $-1 $45 $46 $27 $-1 $47 forward single #
face $-1 $48 $49 $28 $-1 $50 forward single #
face $-1 $51 $52 $29 $-1 $53 reversed single #
face $-1 $54 $55 $30 $-1 $56 forward single #
face $-1 $57 $58 $31 $-1 $59 forward single #
face $-1 $60 $61 $32 $-1 $62 reversed single #
face $-1 $63 $64 $33 $-1 $65 forward single #
face $-1 $66 $67 $34 $-1 $68 reversed single #
face $-1 $69 $70 $35 $-1 $71 forward single #
face $-1 $72 $73 $27 $-1 $74 reversed single #
loop $-1 $-1 $75 $36 #
plane-surface $-1 0 0 10.185203609959336 0 0 1 1 0 0 forward_v I I I I #
face $-1 $76 $77 $28 $-1 $78 reversed single #
loop $-1 $-1 $79 $37 #
plane-surface $-1 0 -42.848521811772997 0 0 1 0 0 0 1 forward_v I I I I #
face $-1 $80 $81 $29 $-1 $82 reversed single #
loop $-1 $-1 $83 $38 #
plane-surface $-1 71.668087760831924 40.103974056232225 193.60063391683923 0 -1 0 -0.71933980857756763 0 -0.69465836192734942 forward_v I I I I #
face $-1 $84 $85 $30 $-1 $86 forward single #
loop $-1 $87 $88 $39 #
cone-surface $-1 63.121733791410833 30.456569023653273 4.8596982182428761 -0.71933980857756763 0 -0.69465836192734942 0.34732918096367471 0 -0.35966990428878381 1 I I 0 1 0.5 forward I I I I #
face $-1 $89 $90 $31 $-1 $91 forward single #
loop $-1 $92 $93 $40 #
cone-surface $-1 63.121733791410833 36.245012043200646 4.8596982182428761 -0.71933980857756763 0 -0.69465836192734942 0.34732918096367471 0 -0.35966990428878381 1 I I 0 1 0.5 forward I I I I #
face $-1 $94 $95 $32 $-1 $96 reversed single #
loop $-1 $-1 $97 $41 #
plane-surface $-1 -148.58442196144028 -26.785912520947107 115.46816859667051 0 1 0 -0.5877852598018023 0 0.80901698891910034 forward_v I I I I #
face $-1 $98 $99 $33 $-1 $100 forward single #
loop $-1 $101 $102 $42 #
cone-surface $-1 -64.337218260119002 -19.058640003400708 7.0713867129693986 0.5877852598018023 0 -0.80901698891910034 0.80901698891910034 0 0.5877852598018023 1 I I 0 1 1 forward I I I I #
face $-1 $103 $104 $34 $-1 $105 reversed single #
loop $-1 $-1 $106 $43 #
plane-surface $-1 -148.58442196144028 18.98458424789818 115.46816859667051 0 1 0 -0.5877852598018023 0 0.80901698891910034 forward_v I I I I #
face $-1 $107 $108 $35 $-1 $109 forward single #
loop $-1 $110 $111 $44 #
cone-surface $-1 -64.337218260119002 26.71185676544458 7.0713867129693986 0.5877852598018023 0 -0.80901698891910034 0.80901698891910034 0 0.5877852598018023 1 I I 0 1 1 forward I I I I #
face $-1 $112 $113 $27 $-1 $114 reversed single #
loop $-1 $-1 $115 $45 #
plane-surface $-1 0 0 -10.185203609959336 0 0 1 1 0 0 forward_v I I I I #
coedge $-1 $116 $117 $118 $119 forward $46 $-1 #
face $-1 $120 $121 $28 $-1 $122 reversed single #
loop $-1 $-1 $123 $48 #
plane-surface $-1 0 0 -10.185203609959336 0 0 1 1 0 0 forward_v I I I I #
coedge $-1 $124 $125 $126 $127 forward $49 $-1 #
face $-1 $128 $129 $29 $-1 $130 reversed single #
loop $-1 $-1 $131 $51 #
plane-surface $-1 -26.589071626329968 33.350790533426959 98.714800304364701 0.71933980857756763 0 0.69465836192734942 0.69465836192734942 0 -0.71933980857756763 forward_v I I I I #
coedge $-1 $132 $133 $134 $135 reversed $52 $-1 #
face $-1 $-1 $136 $30 $-1 $137 forward single #
loop $-1 $138 $139 $54 #
cone-surface $-1 62.463769582364222 30.456569023653273 4.2243095824228423 -0.71933980857756763 0 -0.69465836192734942 0.17366459048183736 0 -0.17983495214439191 1 I I -0.70710678118654746 0.70710678118654746 0.25 forward I I I I #
loop $-1 $-1 $140 $39 #
coedge $-1 $88 $88 $141 $142 reversed $55 $-1 #
face $-1 $-1 $143 $31 $-1 $144 forward single #
loop $-1 $145 $146 $57 #
cone-surface $-1 62.463769582364222 36.245012043200646 4.2243095824228423 -0.71933980857756763 0 -0.69465836192734942 0.17366459048183736 0 -0.17983495214439191 1 I I -0.70710678118654746 0.70710678118654746 0.25 forward I I I I #
loop $-1 $-1 $147 $40 #
coedge $-1 $93 $93 $148 $149 reversed $58 $-1 #
face $-1 $150 $151 $32 $-1 $152 reversed single #
loop $-1 $-1 $153 $60 #
plane-surface $-1 -68.296761986144574 -19.058640003400708 4.9616871267601681 -0.5877852598018023 0 0.80901698891910034 0.80901698891910034 0 0.5877852598018023 forward_v I I I I #
coedge $-1 $154 $155 $156 $157 reversed $61 $-1 #
face $-1 $-1 $158 $33 $-1 $159 forward single #
loop $-1 $160 $161 $63 #
cone-surface $-1 -63.678558658403787 -19.058640003400708 6.1648195631195026 0.5877852598018023 0 -0.80901698891910034 0.40450849445955017 0 0.29389262990090115 1 I I -0.70710678118654746 0.70710678118654746 0.5 forward I I I I #
loop $-1 $-1 $162 $42 #
coedge $-1 $102 $102 $163 $164 reversed $64 $-1 #
face $-1 $165 $166 $34 $-1 $167 reversed single #
loop $-1 $-1 $168 $66 #
plane-surface $-1 -68.296761986144574 26.71185676544458 4.9616871267601681 -0.5877852598018023 0 0.80901698891910034 0.80901698891910034 0 0.5877852598018023 forward_v I I I I #
coedge $-1 $169 $170 $171 $172 reversed $67 $-1 #
face $-1 $-1 $173 $35 $-1 $174 forward single #
loop $-1 $175 $176 $69 #
cone-surface $-1 -63.678558658403787 26.71185676544458 6.1648195631195026 0.5877852598018023 0 -0.80901698891910034 0.40450849445955017 0 0.29389262990090115 1 I I -0.70710678118654746 0.70710678118654746 0.5 forward I I I I #
loop $-1 $-1 $177 $44 #
coedge $-1 $111 $111 $178 $179 reversed $70 $-1 #
face $-1 $180 $181 $27 $-1 $182 reversed single #
loop $-1 $-1 $183 $72 #
plane-surface $-1 0 -42.848521811772997 0 0 1 0 0 0 1 forward_v I I I I #
coedge $-1 $184 $185 $186 $187 forward $73 $-1 #
coedge $-1 $188 $75 $189 $190 forward $46 $-1 #
coedge $-1 $75 $188 $191 $192 forward $46 $-1 #
coedge $-1 $193 $194 $75 $119 reversed $195 $-1 #
edge $-1 $196 -42.848521811772997 $197 42.848521811772997 $118 $198 forward 7 unknown #
face $-1 $199 $200 $28 $-1 $201 forward single #
loop $-1 $-1 $202 $76 #
plane-surface $-1 68.296761986144588 0 0 -1 0 0 0 0 1 forward_v I I I I #
coedge $-1 $203 $204 $205 $206 forward $77 $-1 #
coedge $-1 $205 $79 $202 $207 reversed $49 $-1 #
coedge $-1 $79 $205 $208 $209 reversed $49 $-1 #
coedge $-1 $210 $211 $79 $127 reversed $200 $-1 #
edge $-1 $212 -68.296761986144588 $213 68.296761986144588 $126 $214 forward 7 unknown #
face $-1 $215 $216 $29 $-1 $217 reversed single #
loop $-1 $-1 $218 $80 #
plane-surface $-1 71.668087760831924 26.597607010621694 193.60063391683923 0 1 0 0.71933980857756763 0 0.69465836192734942 forward_v I I I I #
coedge $-1 $219 $220 $221 $222 reversed $81 $-1 #
coedge $-1 $133 $83 $223 $224 reversed $52 $-1 #
coedge $-1 $83 $132 $219 $225 reversed $52 $-1 #
coedge $-1 $221 $226 $83 $135 forward $227 $-1 #
edge $-1 $228 -32.462718105728626 $229 -23.06892023006553 $134 $230 forward 7 unknown #
loop $-1 $-1 $141 $84 #
plane-surface $-1 -26.589071626329968 33.350790533426959 98.714800304364701 0.71933980857756763 0 0.69465836192734942 0.69465836192734942 0 -0.71933980857756763 forward_v I I I I #
loop $-1 $-1 $231 $54 #
coedge $-1 $139 $139 $140 $232 reversed $85 $-1 #
coedge $-1 $140 $140 $139 $232 forward $87 $-1 #
coedge $-1 $141 $141 $88 $142 forward $136 $-1 #
edge $-1 $233 0 $233 6.2831853071796004 $141 $234 forward 7 unknown #
loop $-1 $-1 $148 $89 #
plane-surface $-1 -26.589071626329968 33.350790533426959 98.714800304364701 0.71933980857756763 0 0.69465836192734942 0.69465836192734942 0 -0.71933980857756763 forward_v I I I I #
loop $-1 $-1 $235 $57 #
coedge $-1 $146 $146 $147 $236 reversed $90 $-1 #
coedge $-1 $147 $147 $146 $236 forward $92 $-1 #
coedge $-1 $148 $148 $93 $149 forward $143 $-1 #
edge $-1 $237 0 $237 6.2831853071796004 $148 $238 forward 7 unknown #
face $-1 $239 $240 $32 $-1 $241 forward single #
loop $-1 $-1 $242 $94 #
plane-surface $-1 -148.58442196144028 -11.331367485854308 115.46816859667051 0 -1 0 0.5877852598018023 0 -0.80901698891910034 forward_v I I I I #
coedge $-1 $243 $244 $245 $246 reversed $95 $-1 #
coedge $-1 $155 $97 $247 $248 reversed $61 $-1 #
coedge $-1 $97 $154 $243 $249 reversed $61 $-1 #
coedge $-1 $245 $250 $97 $157 forward $240 $-1 #
edge $-1 $251 5.995448994575554 $252 13.185002502998067 $156 $253 forward 7 unknown #
loop $-1 $-1 $163 $98 #
plane-surface $-1 -68.296761986144574 -19.058640003400708 4.9616871267601681 -0.5877852598018023 0 0.80901698891910034 0.80901698891910034 0 0.5877852598018023 forward_v I I I I #
loop $-1 $-1 $254 $63 #
coedge $-1 $161 $161 $162 $255 reversed $99 $-1 #
coedge $-1 $162 $162 $161 $255 forward $101 $-1 #
coedge $-1 $163 $163 $102 $164 forward $158 $-1 #
edge $-1 $256 0 $256 6.2831853071796004 $163 $257 forward 7 unknown #
face $-1 $258 $259 $34 $-1 $260 forward single #
loop $-1 $-1 $261 $103 #
plane-surface $-1 -148.58442196144028 34.439129282990976 115.46816859667051 0 -1 0 0.5877852598018023 0 -0.80901698891910034 forward_v I I I I #
coedge $-1 $262 $263 $264 $265 reversed $104 $-1 #
coedge $-1 $170 $106 $266 $267 reversed $67 $-1 #
coedge $-1 $106 $169 $262 $268 reversed $67 $-1 #
coedge $-1 $264 $269 $106 $172 forward $259 $-1 #
edge $-1 $270 5.995448994575554 $271 13.185002502998067 $171 $272 forward 7 unknown #
loop $-1 $-1 $178 $107 #
plane-surface $-1 -68.296761986144574 26.71185676544458 4.9616871267601681 -0.5877852598018023 0 0.80901698891910034 0.80901698891910034 0 0.5877852598018023 forward_v I I I I #
loop $-1 $-1 $273 $69 #
coedge $-1 $176 $176 $177 $274 reversed $108 $-1 #
coedge $-1 $177 $177 $176 $274 forward $110 $-1 #
coedge $-1 $178 $178 $111 $179 forward $173 $-1 #
edge $-1 $275 0 $275 6.2831853071796004 $178 $276 forward 7 unknown #
face $-1 $277 $278 $27 $-1 $279 reversed single #
loop $-1 $-1 $280 $112 #
plane-surface $-1 -68.296761986144588 0 0 1 0 0 0 0 -1 forward_v I I I I #
coedge $-1 $281 $191 $282 $283 forward $113 $-1 #
coedge $-1 $284 $115 $281 $285 forward $73 $-1 #
coedge $-1 $115 $284 $286 $287 forward $73 $-1 #
coedge $-1 $194 $193 $115 $187 reversed $195 $-1 #
edge $-1 $288 -42.848521811772997 $289 42.848521811772997 $186 $290 forward 7 unknown #
coedge $-1 $117 $116 $291 $292 forward $46 $-1 #
coedge $-1 $293 $294 $116 $190 reversed $278 $-1 #
edge $-1 $197 -68.296761986144588 $295 68.296761986144588 $189 $296 forward 7 unknown #
coedge $-1 $183 $297 $117 $192 reversed $113 $-1 #
edge $-1 $298 -68.296761986144588 $196 68.296761986144588 $191 $299 forward 7 unknown #
coedge $-1 $186 $118 $297 $300 forward $195 $-1 #
coedge $-1 $118 $186 $293 $301 reversed $195 $-1 #
loop $-1 $-1 $193 $277 #
vertex $-1 $119 $302 #
vertex $-1 $119 $303 #
straight-curve $-1 68.296761986144588 0 10.185203609959336 0 1 0 I I #
face $-1 $304 $305 $28 $-1 $306 reversed single #
loop $-1 $-1 $211 $120 #
plane-surface $-1 0 -46.675130192794938 -6.2687166430485517 0 0 1 1 0 0 forward_v I I I I #
coedge $-1 $307 $308 $124 $207 forward $121 $-1 #
coedge $-1 $309 $123 $308 $310 forward $77 $-1 #
coedge $-1 $123 $309 $311 $312 forward $77 $-1 #
coedge $-1 $125 $124 $123 $206 reversed $49 $-1 #
edge $-1 $313 -68.296761986144588 $314 68.296761986144588 $123 $315 forward 7 unknown #
edge $-1 $314 -10.185203609959336 $213 -6.2687166430485517 $202 $316 forward 7 unknown #
coedge $-1 $311 $317 $125 $209 forward $318 $-1 #
edge $-1 $212 6.2687166430485517 $313 10.185203609959336 $208 $319 forward 7 unknown #
coedge $-1 $320 $126 $317 $321 forward $200 $-1 #
coedge $-1 $126 $320 $307 $322 forward $200 $-1 #
vertex $-1 $209 $323 #
vertex $-1 $322 $324 #
straight-curve $-1 0 -42.848521811772997 -6.2687166430485517 1 0 0 I I #
face $-1 $-1 $227 $29 $-1 $325 forward single #
loop $-1 $-1 $326 $128 #
plane-surface $-1 68.296761986144588 0 0 -1 0 0 0 0 1 forward_v I I I I #
coedge $-1 $327 $328 $329 $330 reversed $129 $-1 #
coedge $-1 $331 $131 $133 $225 forward $81 $-1 #
coedge $-1 $131 $331 $327 $332 forward $81 $-1 #
coedge $-1 $329 $134 $131 $222 forward $227 $-1 #
edge $-1 $229 -23.428578789518745 $333 -9.922211743908214 $221 $334 forward 7 unknown #
coedge $-1 $335 $336 $132 $224 forward $216 $-1 #
edge $-1 $337 -96.342676041216819 $228 -86.615113348460284 $223 $338 forward 7 unknown #
edge $-1 $229 123.0706206423707 $337 136.5935239722892 $133 $339 forward 7 unknown #
coedge $-1 $134 $329 $335 $340 forward $227 $-1 #
loop $-1 $-1 $329 $215 #
vertex $-1 $224 $341 #
vertex $-1 $135 $342 #
straight-curve $-1 35.834043880415962 40.103974056232225 10.185203609959331 -1 0 0 I I #
coedge $-1 $231 $231 $-1 $343 reversed $138 $-1 #
edge $-1 $344 0 $344 6.2831853071796004 $139 $345 forward 7 unknown #
vertex $-1 $142 $346 #
ellipse-curve $-1 63.59986304831304 30.456569023653273 5.3214222635810602 0.71933980857756763 0 0.69465836192734942 0.34732918096367471 0 -0.35966990428878381 1 I I #
coedge $-1 $235 $235 $-1 $347 reversed $145 $-1 #
edge $-1 $348 0 $348 6.2831853071796004 $146 $349 forward 7 unknown #
vertex $-1 $149 $350 #
ellipse-curve $-1 63.59986304831304 36.245012043200646 5.3214222635810602 0.71933980857756763 0 0.69465836192734942 0.34732918096367471 0 -0.35966990428878381 1 I I #
face $-1 $-1 $351 $32 $-1 $352 reversed single #
loop $-1 $-1 $156 $150 #
plane-surface $-1 0 0 10.185203609959336 0 0 1 1 0 0 forward_v I I I I #
coedge $-1 $353 $354 $355 $356 reversed $151 $-1 #
coedge $-1 $357 $153 $155 $249 forward $95 $-1 #
coedge $-1 $153 $357 $353 $358 forward $95 $-1 #
coedge $-1 $355 $156 $153 $246 forward $240 $-1 #
edge $-1 $252 -17.256592519246752 $359 -1.8020474841539542 $245 $360 forward 7 unknown #
coedge $-1 $361 $362 $154 $248 forward $351 $-1 #
edge $-1 $363 -52.772397171575093 $251 -47.548880688375917 $247 $364 forward 7 unknown #
edge $-1 $252 -8.8867769242129437 $363 1.7761521089745031e-014 $155 $365 forward 7 unknown #
coedge $-1 $156 $355 $361 $366 forward $240 $-1 #
vertex $-1 $248 $367 #
vertex $-1 $157 $368 #
straight-curve $-1 -74.292210980720142 -26.785912520947107 10.185203609959338 1 0 0 I I #
coedge $-1 $254 $254 $-1 $369 reversed $160 $-1 #
edge $-1 $370 0 $370 6.2831853071796004 $161 $371 forward 7 unknown #
vertex $-1 $164 $372 #
ellipse-curve $-1 -64.701985231933321 -19.058640003400708 7.5734453683597511 -0.5877852598018023 0 0.80901698891910034 0.80901698891910034 0 0.5877852598018023 1 I I #
face $-1 $-1 $373 $34 $-1 $374 reversed single #
loop $-1 $-1 $171 $165 #
plane-surface $-1 0 0 10.185203609959336 0 0 1 1 0 0 forward_v I I I I #
coedge $-1 $375 $376 $377 $378 reversed $166 $-1 #
coedge $-1 $379 $168 $170 $268 forward $104 $-1 #
coedge $-1 $168 $379 $375 $380 forward $104 $-1 #
coedge $-1 $377 $171 $168 $265 forward $259 $-1 #
edge $-1 $271 5.6286558651758902 $381 21.083200900268686 $264 $382 forward 7 unknown #
coedge $-1 $383 $384 $169 $267 forward $373 $-1 #
edge $-1 $385 -52.772397171575093 $270 -47.548880688375917 $266 $386 forward 7 unknown #
edge $-1 $271 -8.8867769242129437 $385 1.7761521089745031e-014 $170 $387 forward 7 unknown #
coedge $-1 $171 $377 $383 $388 forward $259 $-1 #
vertex $-1 $172 $389 #
vertex $-1 $172 $390 #
straight-curve $-1 -74.292210980720142 18.98458424789818 10.185203609959338 1 0 0 I I #
coedge $-1 $273 $273 $-1 $391 reversed $175 $-1 #
edge $-1 $392 0 $392 6.2831853071796004 $176 $393 forward 7 unknown #
vertex $-1 $179 $394 #
ellipse-curve $-1 -64.701985231933321 26.71185676544458 7.5734453683597511 -0.5877852598018023 0 0.80901698891910034 0.80901698891910034 0 0.5877852598018023 1 I I #
face $-1 $-1 $195 $27 $-1 $395 reversed single #
loop $-1 $-1 $293 $180 #
plane-surface $-1 0 42.848521811772997 0 0 -1 0 0 0 -1 forward_v I I I I #
coedge $-1 $396 $291 $294 $397 forward $181 $-1 #
coedge $-1 $297 $183 $184 $285 reversed $113 $-1 #
coedge $-1 $291 $396 $183 $283 reversed $181 $-1 #
edge $-1 $298 -10.185203609959336 $398 10.185203609959336 $282 $399 forward 7 unknown #
coedge $-1 $185 $184 $396 $400 forward $73 $-1 #
edge $-1 $289 -68.296761986144588 $398 68.296761986144588 $281 $401 forward 7 unknown #
coedge $-1 $294 $293 $185 $287 reversed $278 $-1 #
edge $-1 $402 -68.296761986144588 $288 68.296761986144588 $286 $403 forward 7 unknown #
vertex $-1 $187 $404 #
vertex $-1 $300 $405 #
straight-curve $-1 68.296761986144588 0 -10.185203609959336 0 -1 0 I I #
coedge $-1 $280 $282 $188 $292 reversed $181 $-1 #
edge $-1 $295 -42.848521811772997 $298 42.848521811772997 $291 $406 forward 7 unknown #
coedge $-1 $286 $189 $194 $301 forward $278 $-1 #
coedge $-1 $189 $286 $280 $397 reversed $278 $-1 #
vertex $-1 $190 $407 #
straight-curve $-1 0 42.848521811772997 10.185203609959336 -1 0 0 I I #
coedge $-1 $191 $281 $193 $300 reversed $113 $-1 #
vertex $-1 $292 $408 #
straight-curve $-1 0 -42.848521811772997 10.185203609959336 1 0 0 I I #
edge $-1 $196 -10.185203609959336 $289 10.185203609959336 $193 $409 forward 7 unknown #
edge $-1 $197 -10.185203609959336 $288 10.185203609959336 $194 $410 forward 7 unknown #
point $-1 68.296761986144588 -42.848521811772997 10.185203609959336 #
point $-1 68.296761986144588 42.848521811772997 10.185203609959336 #
face $-1 $-1 $318 $28 $-1 $411 reversed single #
loop $-1 $-1 $412 $199 #
plane-surface $-1 0 -50.50173857381688 -8.2269601265039434 0 1 0 0 0 1 forward_v I I I I #
coedge $-1 $413 $202 $211 $322 reversed $121 $-1 #
coedge $-1 $202 $413 $203 $310 reversed $121 $-1 #
coedge $-1 $204 $203 $414 $415 forward $77 $-1 #
edge $-1 $314 42.848521811772997 $416 50.50173857381688 $308 $417 forward 7 unknown #
coedge $-1 $418 $208 $204 $312 reversed $318 $-1 #
edge $-1 $419 -50.50173857381688 $313 -42.848521811772997 $311 $420 forward 7 unknown #
vertex $-1 $209 $421 #
vertex $-1 $310 $422 #
straight-curve $-1 0 -42.848521811772997 -10.185203609959336 1 0 0 I I #
straight-curve $-1 68.296761986144588 -42.848521811772997 0 0 0 1 I I #
coedge $-1 $208 $418 $210 $321 reversed $318 $-1 #
loop $-1 $-1 $208 $304 #
straight-curve $-1 -68.296761986144588 -42.848521811772997 0 0 0 -1 I I #
coedge $-1 $211 $210 $423 $424 forward $200 $-1 #
edge $-1 $212 -3.8266083810219413 $425 3.8266083810219413 $317 $426 forward 7 unknown #
edge $-1 $427 -3.8266083810219413 $213 3.8266083810219413 $307 $428 forward 7 unknown #
point $-1 -68.296761986144588 -42.848521811772997 -6.2687166430485517 #
point $-1 68.296761986144588 -42.848521811772997 -6.2687166430485517 #
plane-surface $-1 0 0 10.185203609959336 0 0 1 1 0 0 forward_v I I I I #
coedge $-1 $336 $335 $328 $429 forward $216 $-1 #
coedge $-1 $328 $218 $220 $332 reversed $129 $-1 #
coedge $-1 $218 $327 $326 $429 reversed $129 $-1 #
coedge $-1 $226 $221 $218 $330 forward $227 $-1 #
edge $-1 $333 23.06892023006553 $430 32.462718105728626 $329 $431 forward 7 unknown #
coedge $-1 $220 $219 $336 $432 reversed $81 $-1 #
edge $-1 $433 -136.5935239722892 $333 -123.0706206423707 $327 $434 forward 7 unknown #
vertex $-1 $222 $435 #
straight-curve $-1 58.902964110481463 16.67539526671348 10.185203609959345 0 -1 0 I I #
coedge $-1 $326 $223 $226 $340 reversed $216 $-1 #
coedge $-1 $223 $326 $331 $432 forward $216 $-1 #
vertex $-1 $224 $436 #
straight-curve $-1 68.296761986144588 40.103974056232225 96.800316958419614 0 0 1 I I #
straight-curve $-1 -26.589071626329968 40.103974056232225 98.714800304364701 0.69465836192734942 0 -0.71933980857756763 I I #
edge $-1 $430 26.597607010621694 $228 40.103974056232225 $335 $437 forward 7 unknown #
point $-1 68.296761986144588 40.103974056232225 10.185203609959336 #
point $-1 58.902964110481491 40.103974056232225 10.185203609959331 #
edge $-1 $438 1 $438 0 $231 $-1 forward 7 unknown #
vertex $-1 $232 $439 #
ellipse-curve $-1 62.643604534508611 30.456569023653273 4.3979741729046795 0.71933980857756763 0 0.69465836192734942 0.34732918096367471 0 -0.35966990428878381 1 I I #
point $-1 63.94719222927673 30.456569023653273 4.961752359292289 #
edge $-1 $440 1 $440 0 $235 $-1 forward 7 unknown #
vertex $-1 $236 $441 #
ellipse-curve $-1 62.643604534508611 36.245012043200646 4.3979741729046795 0.71933980857756763 0 0.69465836192734942 0.34732918096367471 0 -0.35966990428878381 1 I I #
point $-1 63.94719222927673 36.245012043200646 4.961752359292289 #
loop $-1 $-1 $247 $239 #
plane-surface $-1 -68.296761986144588 0 0 1 0 0 0 0 -1 forward_v I I I I #
coedge $-1 $354 $242 $244 $358 reversed $151 $-1 #
coedge $-1 $242 $353 $442 $443 reversed $151 $-1 #
coedge $-1 $250 $245 $242 $356 forward $240 $-1 #
edge $-1 $359 -13.185002502998067 $444 -5.995448994575554 $355 $445 forward 7 unknown #
coedge $-1 $244 $243 $362 $446 reversed $95 $-1 #
edge $-1 $447 -1.7761521089745031e-014 $359 8.8867769242129437 $353 $448 forward 7 unknown #
vertex $-1 $246 $449 #
straight-curve $-1 -61.107208477722068 -9.5293200017003539 10.185203609959336 0 1 0 I I #
coedge $-1 $442 $247 $250 $366 reversed $351 $-1 #
coedge $-1 $247 $442 $357 $446 forward $351 $-1 #
vertex $-1 $248 $450 #
straight-curve $-1 -68.296761986144588 -26.785912520947107 57.734084298335254 0 0 1 I I #
straight-curve $-1 -68.296761986144574 -26.785912520947107 4.9616871267601681 -0.80901698891910034 0 -0.5877852598018023 I I #
edge $-1 $444 11.331367485854308 $251 26.785912520947107 $361 $451 forward 7 unknown #
point $-1 -68.296761986144588 -26.785912520947107 10.185203609959336 #
point $-1 -61.107208477722075 -26.785912520947107 10.185203609959336 #
edge $-1 $452 1 $452 0 $254 $-1 forward 7 unknown #
vertex $-1 $255 $453 #
ellipse-curve $-1 -63.97245128830469 -19.058640003400708 6.5693280575790531 -0.5877852598018023 0 0.80901698891910034 0.80901698891910034 0 0.5877852598018023 1 I I #
point $-1 -63.892968243014224 -19.058640003400708 8.1612306281615457 #
loop $-1 $-1 $266 $258 #
plane-surface $-1 -68.296761986144588 0 0 1 0 0 0 0 -1 forward_v I I I I #
coedge $-1 $376 $261 $263 $380 reversed $166 $-1 #
coedge $-1 $261 $375 $454 $455 reversed $166 $-1 #
coedge $-1 $269 $264 $261 $378 forward $259 $-1 #
edge $-1 $381 -13.185002502998067 $456 -5.995448994575554 $377 $457 forward 7 unknown #
coedge $-1 $263 $262 $384 $458 reversed $104 $-1 #
edge $-1 $459 -1.7761521089745031e-014 $381 8.8867769242129437 $375 $460 forward 7 unknown #
vertex $-1 $265 $461 #
straight-curve $-1 -61.107208477722068 13.35592838272229 10.185203609959336 0 1 0 I I #
coedge $-1 $454 $266 $269 $388 reversed $373 $-1 #
coedge $-1 $266 $454 $379 $458 forward $373 $-1 #
vertex $-1 $267 $462 #
straight-curve $-1 -68.296761986144588 18.98458424789818 57.734084298335254 0 0 1 I I #
straight-curve $-1 -68.296761986144574 18.98458424789818 4.9616871267601681 -0.80901698891910034 0 -0.5877852598018023 I I #
edge $-1 $456 -34.439129282990976 $270 -18.98458424789818 $383 $463 forward 7 unknown #
point $-1 -68.296761986144588 18.98458424789818 10.185203609959336 #
point $-1 -61.107208477722075 18.98458424789818 10.185203609959336 #
edge $-1 $464 1 $464 0 $273 $-1 forward 7 unknown #
vertex $-1 $274 $465 #
ellipse-curve $-1 -63.97245128830469 26.71185676544458 6.5693280575790531 -0.5877852598018023 0 0.80901698891910034 0.80901698891910034 0 0.5877852598018023 1 I I #
point $-1 -63.892968243014224 26.71185676544458 8.1612306281615457 #
plane-surface $-1 68.296761986144588 0 0 -1 0 0 0 0 1 forward_v I I I I #
coedge $-1 $282 $280 $284 $400 reversed $181 $-1 #
edge $-1 $295 -10.185203609959336 $402 10.185203609959336 $294 $466 forward 7 unknown #
vertex $-1 $400 $467 #
straight-curve $-1 -68.296761986144588 -42.848521811772997 0 0 0 -1 I I #
edge $-1 $398 -42.848521811772997 $402 42.848521811772997 $396 $468 forward 7 unknown #
straight-curve $-1 0 -42.848521811772997 -10.185203609959336 -1 0 0 I I #
vertex $-1 $287 $469 #
straight-curve $-1 0 42.848521811772997 -10.185203609959336 1 0 0 I I #
point $-1 68.296761986144588 42.848521811772997 -10.185203609959336 #
point $-1 68.296761986144588 -42.848521811772997 -10.185203609959336 #
straight-curve $-1 -68.296761986144588 0 10.185203609959336 0 -1 0 I I #
point $-1 -68.296761986144588 42.848521811772997 10.185203609959336 #
point $-1 -68.296761986144588 -42.848521811772997 10.185203609959336 #
straight-curve $-1 68.296761986144588 -42.848521811772997 0 0 0 -1 I I #
straight-curve $-1 68.296761986144588 42.848521811772997 0 0 0 -1 I I #
plane-surface $-1 -68.296761986144588 0 0 1 0 0 0 0 -1 forward_v I I I I #
coedge $-1 $414 $423 $418 $470 forward $305 $-1 #
coedge $-1 $308 $307 $471 $472 forward $121 $-1 #
coedge $-1 $471 $412 $309 $415 reversed $305 $-1 #
edge $-1 $416 -68.296761986144588 $419 68.296761986144588 $414 $473 forward 7 unknown #
vertex $-1 $472 $474 #
straight-curve $-1 68.296761986144588 0 -10.185203609959336 0 -1 0 I I #
coedge $-1 $317 $311 $412 $470 reversed $318 $-1 #
vertex $-1 $312 $475 #
straight-curve $-1 -68.296761986144588 0 -10.185203609959336 0 1 0 I I #
point $-1 -68.296761986144588 -42.848521811772997 -10.185203609959336 #
point $-1 68.296761986144588 -42.848521811772997 -10.185203609959336 #
coedge $-1 $412 $471 $320 $424 reversed $305 $-1 #
edge $-1 $425 -68.296761986144588 $427 68.296761986144588 $423 $476 forward 7 unknown #
vertex $-1 $321 $477 #
straight-curve $-1 -68.296761986144588 -46.675130192794938 -6.2687166430485517 0 -1 0 I I #
vertex $-1 $322 $478 #
straight-curve $-1 68.296761986144588 -46.675130192794938 -6.2687166430485517 0 1 0 I I #
edge $-1 $430 86.615113348460284 $433 96.342676041216819 $326 $479 forward 7 unknown #
vertex $-1 $340 $480 #
straight-curve $-1 35.834043880415962 26.597607010621694 10.185203609959331 1 0 0 I I #
edge $-1 $433 9.922211743908214 $337 23.428578789518745 $336 $481 forward 7 unknown #
vertex $-1 $432 $482 #
straight-curve $-1 -26.589071626329968 26.597607010621694 98.714800304364701 -0.69465836192734942 0 0.71933980857756763 I I #
point $-1 58.902964110481491 26.597607010621694 10.185203609959331 #
point $-1 68.296761986144588 40.103974056232225 0.45764091720279509 #
straight-curve $-1 68.296761986144588 0 10.185203609959336 0 1 0 I I #
vertex $-1 $343 $483 #
point $-1 62.990933715472288 30.456569023653273 4.0383042686158959 #
vertex $-1 $347 $484 #
point $-1 62.990933715472288 36.245012043200646 4.0383042686158959 #
coedge $-1 $362 $361 $354 $443 forward $351 $-1 #
edge $-1 $444 47.548880688375917 $447 52.772397171575093 $442 $485 forward 7 unknown #
vertex $-1 $366 $486 #
straight-curve $-1 -74.292210980720142 -11.331367485854308 10.185203609959338 -1 0 0 I I #
edge $-1 $447 1.8020474841539542 $363 17.256592519246752 $362 $487 forward 7 unknown #
vertex $-1 $446 $488 #
straight-curve $-1 -68.296761986144574 -11.331367485854308 4.9616871267601681 0.80901698891910034 0 0.5877852598018023 I I #
point $-1 -61.107208477722075 -11.331367485854308 10.185203609959336 #
point $-1 -68.296761986144588 -26.785912520947107 4.9616871267601574 #
straight-curve $-1 -68.296761986144588 0 10.185203609959336 0 -1 0 I I #
vertex $-1 $369 $489 #
point $-1 -63.163434299385585 -19.058640003400708 7.1571133173808548 #
coedge $-1 $384 $383 $376 $455 forward $373 $-1 #
edge $-1 $456 47.548880688375917 $459 52.772397171575093 $454 $490 forward 7 unknown #
vertex $-1 $388 $491 #
straight-curve $-1 -74.292210980720142 34.439129282990976 10.185203609959338 -1 0 0 I I #
edge $-1 $459 -21.083200900268686 $385 -5.6286558651758902 $384 $492 forward 7 unknown #
vertex $-1 $458 $493 #
straight-curve $-1 -68.296761986144574 34.439129282990976 4.9616871267601681 0.80901698891910034 0 0.5877852598018023 I I #
point $-1 -61.107208477722075 34.439129282990976 10.185203609959336 #
point $-1 -68.296761986144588 18.98458424789818 4.9616871267601574 #
straight-curve $-1 -68.296761986144588 0 10.185203609959336 0 -1 0 I I #
vertex $-1 $391 $494 #
point $-1 -63.163434299385585 26.71185676544458 7.1571133173808548 #
straight-curve $-1 -68.296761986144588 42.848521811772997 0 0 0 -1 I I #
point $-1 -68.296761986144588 -42.848521811772997 -10.185203609959336 #
straight-curve $-1 -68.296761986144588 0 -10.185203609959336 0 1 0 I I #
point $-1 -68.296761986144588 42.848521811772997 -10.185203609959336 #
edge $-1 $425 -1.9582434834553917 $419 1.9582434834553926 $418 $495 forward 7 unknown #
coedge $-1 $423 $414 $413 $472 reversed $305 $-1 #
edge $-1 $427 -1.9582434834553917 $416 1.9582434834553926 $413 $496 forward 7 unknown #
straight-curve $-1 0 -50.50173857381688 -10.185203609959336 -1 0 0 I I #
point $-1 68.296761986144588 -50.50173857381688 -10.185203609959336 #
point $-1 -68.296761986144588 -50.50173857381688 -10.185203609959336 #
straight-curve $-1 0 -50.50173857381688 -6.2687166430485517 1 0 0 I I #
point $-1 -68.296761986144588 -50.50173857381688 -6.2687166430485517 #
point $-1 68.296761986144588 -50.50173857381688 -6.2687166430485517 #
straight-curve $-1 68.296761986144588 26.597607010621694 96.800316958419614 0 0 -1 I I #
point $-1 68.296761986144588 26.597607010621694 10.185203609959336 #
straight-curve $-1 68.296761986144588 16.67539526671348 0.45764091720278799 0 1 0 I I #
point $-1 68.296761986144588 26.597607010621694 0.45764091720279509 #
point $-1 62.283934630219832 30.456569023653273 4.050644991941005 #
point $-1 62.283934630219832 36.245012043200646 4.050644991941005 #
straight-curve $-1 -68.296761986144588 -11.331367485854308 57.734084298335254 0 0 -1 I I #
point $-1 -68.296761986144588 -11.331367485854308 10.185203609959336 #
straight-curve $-1 -68.296761986144588 -9.5293200017003539 4.9616871267601645 0 -1 0 I I #
point $-1 -68.296761986144588 -11.331367485854308 4.9616871267601574 #
point $-1 -63.384666028502885 -19.058640003400708 5.7603110686599521 #
straight-curve $-1 -68.296761986144588 34.439129282990976 57.734084298335254 0 0 -1 I I #
point $-1 -68.296761986144588 34.439129282990976 10.185203609959336 #
straight-curve $-1 -68.296761986144588 13.35592838272229 4.9616871267601645 0 -1 0 I I #
point $-1 -68.296761986144588 34.439129282990976 4.9616871267601574 #
point $-1 -63.384666028502885 26.71185676544458 5.7603110686599521 #
straight-curve $-1 -68.296761986144588 -50.50173857381688 -8.2269601265039434 0 0 -1 I I #
straight-curve $-1 68.296761986144588 -50.50173857381688 -8.2269601265039434 0 0 -1 I I #
End-of-ACIS-data 