500 0 9 0           
7 Unknown 11 ACIS 5.0 NT 24 Fri Mar 26 15:40:11 1999 
-1 9.9999999999999995e-007 1e-010 
body $-1 $9 $-1 $10 #
body $-1 $11 $-1 $12 #
body $-1 $13 $-1 $14 #
body $-1 $15 $-1 $16 #
body $-1 $17 $-1 $18 #
body $-1 $19 $-1 $20 #
body $-1 $21 $-1 $22 #
body $-1 $23 $-1 $24 #
body $-1 $25 $-1 $26 #
lump $-1 $-1 $27 $0 #
transform $-1 1 0 0 0 1 0 0 0 1 46.338084047975094 21.961907146111894 10.11834868102903 1 rotate no_reflect no_shear #
lump $-1 $-1 $28 $1 #
transform $-1 1 0 0 0 1 0 0 0 1 46.338084047975094 21.961907146111894 10.11834868102903 1 rotate no_reflect no_shear #
lump $-1 $-1 $29 $2 #
transform $-1 1 0 0 0 1 0 0 0 1 46.338084047975094 21.961907146111894 10.11834868102903 1 rotate no_reflect no_shear #
lump $-1 $-1 $30 $3 #
transform $-1 1 0 0 0 1 0 0 0 1 46.338084047975094 21.961907146111894 10.11834868102903 1 rotate no_reflect no_shear #
lump $-1 $-1 $31 $4 #
transform $-1 1 0 0 0 1 0 0 0 1 46.338084047975094 21.961907146111894 10.11834868102903 1 rotate no_reflect no_shear #
lump $-1 $-1 $32 $5 #
transform $-1 1 0 0 0 1 0 0 0 1 46.338084047975094 21.961907146111894 10.11834868102903 1 rotate no_reflect no_shear #
lump $-1 $-1 $33 $6 #
transform $-1 1 0 0 0 1 0 0 0 1 46.338084047975094 21.961907146111894 10.11834868102903 1 rotate no_reflect no_shear #
lump $-1 $-1 $34 $7 #
transform $-1 1 0 0 0 1 0 0 0 1 46.338084047975094 21.961907146111894 10.11834868102903 1 rotate no_reflect no_shear #
lump $-1 $-1 $35 $8 #
transform $-1 1 0 0 0 1 0 0 0 1 46.338084047975094 21.961907146111894 10.11834868102903 1 rotate no_reflect no_shear #
shell $-1 $-1 $-1 $36 $-1 $9 #
shell $-1 $-1 $-1 $37 $-1 $11 #
shell $-1 $-1 $-1 $38 $-1 $13 #
shell $-1 $-1 $-1 $39 $-1 $15 #
shell $-1 $-1 $-1 $40 $-1 $17 #
shell $-1 $-1 $-1 $41 $-1 $19 #
shell $-1 $-1 $-1 $42 $-1 $21 #
shell $-1 $-1 $-1 $43 $-1 $23 #
shell $-1 $-1 $-1 $44 $-1 $25 #
face $-1 $45 $46 $27 $-1 $47 forward single #
face $-1 $48 $49 $28 $-1 $50 forward single #
face $-1 $51 $52 $29 $-1 $53 reversed single #
face $-1 $54 $55 $30 $-1 $56 forward single #
face $-1 $57 $58 $31 $-1 $59 forward single #
face $-1 $60 $61 $32 $-1 $62 reversed single #
face $-1 $63 $64 $33 $-1 $65 forward single #
face $-1 $66 $67 $34 $-1 $68 forward single #
face $-1 $69 $70 $35 $-1 $71 forward single #
face $-1 $72 $73 $27 $-1 $74 reversed single #
loop $-1 $-1 $75 $36 #
plane-surface $-1 0 0 10.11834868102903 0 0 1 1 0 0 forward_v I I I I #
face $-1 $76 $77 $28 $-1 $78 reversed single #
loop $-1 $-1 $79 $37 #
plane-surface $-1 -46.338084047975094 0 0 1 0 0 0 0 -1 forward_v I I I I #
face $-1 $80 $81 $29 $-1 $82 reversed single #
loop $-1 $-1 $83 $38 #
plane-surface $-1 -31.74736745146145 72.684116090145537 96.160344733779567 1 0 0 0 -0.81915205242281985 -0.57357642473473569 forward_v I I I I #
face $-1 $84 $85 $30 $-1 $86 forward single #
loop $-1 $87 $88 $39 #
cone-surface $-1 -26.042579892157399 20.468706866138206 8.2839846038847451 0 -0.81915205242281985 -0.57357642473473569 0.5 0 0 1 I I 0 1 0.5 forward I I I I #
face $-1 $89 $90 $31 $-1 $91 forward single #
loop $-1 $92 $93 $40 #
cone-surface $-1 -17.485398553201325 20.468706866138206 8.2839846038847451 0 -0.81915205242281985 -0.57357642473473569 0.5 0 0 1 I I 0 1 0.5 forward I I I I #
face $-1 $94 $95 $32 $-1 $96 reversed single #
loop $-1 $-1 $97 $41 #
plane-surface $-1 29.265257234758597 -97.87778045259175 55.981654970546188 -1 0 0 0 -0.81915205242281985 0.57357642473473569 forward_v I I I I #
face $-1 $98 $99 $33 $-1 $100 forward single #
loop $-1 $101 $102 $42 #
cone-surface $-1 17.06050832456976 -18.277286461274858 5.6795517029878066 0 0.81915205242281985 -0.57357642473473569 1.5 0 0 1 I I 0 1 1.5 forward I I I I #
face $-1 $103 $104 $34 $-1 $105 forward single #
loop $-1 $106 $107 $43 #
cone-surface $-1 21.637289165890571 -18.277286461274858 5.6795517029878066 0 0.81915205242281985 -0.57357642473473569 1.5 0 0 1 I I 0 1 1.5 forward I I I I #
face $-1 $108 $109 $35 $-1 $110 forward single #
loop $-1 $111 $112 $44 #
cone-surface $-1 26.214070007211383 -18.277286461274858 5.6795517029878066 0 0.81915205242281985 -0.57357642473473569 1.5 0 0 1 I I 0 1 1.5 forward I I I I #
face $-1 $113 $114 $27 $-1 $115 reversed single #
loop $-1 $-1 $116 $45 #
plane-surface $-1 0 0 -10.11834868102903 0 0 1 1 0 0 forward_v I I I I #
coedge $-1 $117 $118 $119 $120 forward $46 $-1 #
face $-1 $121 $122 $28 $-1 $123 forward single #
loop $-1 $-1 $124 $48 #
plane-surface $-1 0 21.961907146111894 0 0 -1 0 0 0 -1 forward_v I I I I #
coedge $-1 $125 $126 $127 $128 forward $49 $-1 #
face $-1 $129 $130 $29 $-1 $131 reversed single #
loop $-1 $-1 $132 $51 #
plane-surface $-1 -21.763989222679363 -3.2317572163343016 43.00347957918909 0 0.81915205242281985 0.57357642473473569 1 0 0 forward_v I I I I #
coedge $-1 $133 $134 $135 $136 reversed $52 $-1 #
face $-1 $-1 $137 $30 $-1 $138 forward single #
loop $-1 $139 $140 $54 #
cone-surface $-1 -26.042579892157399 19.854342826821092 7.8538022853336926 0 -0.81915205242281985 -0.57357642473473569 0.25 0 0 1 I I -0.70710678118654746 0.70710678118654746 0.25 forward I I I I #
loop $-1 $-1 $141 $39 #
coedge $-1 $88 $88 $142 $143 reversed $55 $-1 #
face $-1 $-1 $144 $31 $-1 $145 forward single #
loop $-1 $146 $147 $57 #
cone-surface $-1 -17.485398553201325 19.854342826821092 7.8538022853336926 0 -0.81915205242281985 -0.57357642473473569 0.25 0 0 1 I I -0.70710678118654746 0.70710678118654746 0.25 forward I I I I #
loop $-1 $-1 $148 $40 #
coedge $-1 $93 $93 $149 $150 reversed $58 $-1 #
face $-1 $151 $152 $32 $-1 $153 reversed single #
loop $-1 $-1 $154 $60 #
plane-surface $-1 21.637289165890571 -21.961907146111884 2.8247898159556968 0 -0.81915205242281985 0.57357642473473569 1 0 0 forward_v I I I I #
coedge $-1 $155 $156 $157 $158 reversed $61 $-1 #
face $-1 $-1 $159 $33 $-1 $160 forward single #
loop $-1 $161 $162 $63 #
cone-surface $-1 17.06050832456976 -16.531804108901227 4.4573518389321976 0 0.81915205242281985 -0.57357642473473569 0.75 0 0 1 I I -0.70710678118654757 0.70710678118654757 0.75 forward I I I I #
loop $-1 $-1 $163 $42 #
coedge $-1 $102 $102 $164 $165 reversed $64 $-1 #
face $-1 $-1 $166 $34 $-1 $167 forward single #
loop $-1 $168 $169 $66 #
cone-surface $-1 21.637289165890571 -16.531804108901227 4.4573518389321976 0 0.81915205242281985 -0.57357642473473569 0.75 0 0 1 I I -0.70710678118654757 0.70710678118654757 0.75 forward I I I I #
loop $-1 $-1 $170 $43 #
coedge $-1 $107 $107 $171 $172 reversed $67 $-1 #
face $-1 $-1 $173 $35 $-1 $174 forward single #
loop $-1 $175 $176 $69 #
cone-surface $-1 26.214070007211383 -16.531804108901227 4.4573518389321976 0 0.81915205242281985 -0.57357642473473569 0.75 0 0 1 I I -0.70710678118654757 0.70710678118654757 0.75 forward I I I I #
loop $-1 $-1 $177 $44 #
coedge $-1 $112 $112 $178 $179 reversed $70 $-1 #
face $-1 $180 $181 $27 $-1 $182 reversed single #
loop $-1 $-1 $183 $72 #
plane-surface $-1 0 -21.961907146111894 0 0 1 0 0 0 1 forward_v I I I I #
coedge $-1 $184 $185 $186 $187 forward $73 $-1 #
coedge $-1 $188 $75 $189 $190 forward $46 $-1 #
coedge $-1 $75 $188 $191 $192 forward $46 $-1 #
coedge $-1 $193 $194 $75 $120 reversed $195 $-1 #
edge $-1 $196 -21.961907146111894 $197 21.961907146111894 $119 $198 forward 7 unknown #
face $-1 $199 $200 $28 $-1 $201 reversed single #
loop $-1 $-1 $127 $76 #
plane-surface $-1 -52.106506242552364 0 -7.1183486810290297 0 0 1 1 0 0 forward_v I I I I #
coedge $-1 $202 $203 $126 $204 forward $77 $-1 #
coedge $-1 $205 $79 $206 $207 reversed $49 $-1 #
coedge $-1 $79 $205 $124 $204 reversed $49 $-1 #
coedge $-1 $208 $209 $79 $128 reversed $122 $-1 #
edge $-1 $210 -21.961907146111894 $211 21.961907146111894 $127 $212 forward 7 unknown #
face $-1 $213 $214 $29 $-1 $215 forward single #
loop $-1 $-1 $216 $80 #
plane-surface $-1 -11.780610993897277 72.684116090145537 96.160344733779567 -1 0 0 0 0.81915205242281985 0.57357642473473569 forward_v I I I I #
coedge $-1 $217 $218 $219 $220 reversed $81 $-1 #
coedge $-1 $134 $83 $221 $222 reversed $52 $-1 #
coedge $-1 $83 $133 $217 $223 reversed $52 $-1 #
coedge $-1 $219 $224 $83 $136 forward $214 $-1 #
edge $-1 $225 14.380150898960874 $226 16.547399406485418 $135 $227 forward 7 unknown #
loop $-1 $-1 $142 $84 #
plane-surface $-1 -21.763989222679363 -3.2317572163343016 43.00347957918909 0 0.81915205242281985 0.57357642473473569 1 0 0 forward_v I I I I #
loop $-1 $-1 $228 $54 #
coedge $-1 $140 $140 $141 $229 reversed $85 $-1 #
coedge $-1 $141 $141 $140 $229 forward $87 $-1 #
coedge $-1 $142 $142 $88 $143 forward $137 $-1 #
edge $-1 $230 1.7449197833349507e-015 $230 6.2831853071796022 $142 $231 forward 7 unknown #
loop $-1 $-1 $149 $89 #
plane-surface $-1 -21.763989222679363 -3.2317572163343016 43.00347957918909 0 0.81915205242281985 0.57357642473473569 1 0 0 forward_v I I I I #
loop $-1 $-1 $232 $57 #
coedge $-1 $147 $147 $148 $233 reversed $90 $-1 #
coedge $-1 $148 $148 $147 $233 forward $92 $-1 #
coedge $-1 $149 $149 $93 $150 forward $144 $-1 #
edge $-1 $234 1.7449197833349507e-015 $234 6.2831853071796022 $149 $235 forward 7 unknown #
face $-1 $236 $237 $32 $-1 $238 reversed single #
loop $-1 $-1 $239 $94 #
plane-surface $-1 14.009321097022546 -97.87778045259175 55.981654970546188 1 0 0 0 0.81915205242281985 -0.57357642473473569 forward_v I I I I #
coedge $-1 $240 $241 $242 $243 reversed $95 $-1 #
coedge $-1 $156 $97 $244 $245 reversed $61 $-1 #
coedge $-1 $97 $155 $240 $246 reversed $61 $-1 #
coedge $-1 $242 $247 $97 $158 forward $248 $-1 #
edge $-1 $249 26.976983080183981 $250 32.083987823745026 $157 $251 forward 7 unknown #
loop $-1 $-1 $164 $98 #
plane-surface $-1 21.637289165890571 -21.961907146111884 2.8247898159556968 0 -0.81915205242281985 0.57357642473473569 1 0 0 forward_v I I I I #
loop $-1 $-1 $252 $63 #
coedge $-1 $162 $162 $163 $253 reversed $99 $-1 #
coedge $-1 $163 $163 $162 $253 forward $101 $-1 #
coedge $-1 $164 $164 $102 $165 forward $159 $-1 #
edge $-1 $254 1.9320895500328186e-016 $254 6.2831853071796004 $164 $255 forward 7 unknown #
loop $-1 $-1 $171 $103 #
plane-surface $-1 21.637289165890571 -21.961907146111884 2.8247898159556968 0 -0.81915205242281985 0.57357642473473569 1 0 0 forward_v I I I I #
loop $-1 $-1 $256 $66 #
coedge $-1 $169 $169 $170 $257 reversed $104 $-1 #
coedge $-1 $170 $170 $169 $257 forward $106 $-1 #
coedge $-1 $171 $171 $107 $172 forward $166 $-1 #
edge $-1 $258 1.9320895500328186e-016 $258 6.2831853071796004 $171 $259 forward 7 unknown #
loop $-1 $-1 $178 $108 #
plane-surface $-1 21.637289165890571 -21.961907146111884 2.8247898159556968 0 -0.81915205242281985 0.57357642473473569 1 0 0 forward_v I I I I #
loop $-1 $-1 $260 $69 #
coedge $-1 $176 $176 $177 $261 reversed $109 $-1 #
coedge $-1 $177 $177 $176 $261 forward $111 $-1 #
coedge $-1 $178 $178 $112 $179 forward $173 $-1 #
edge $-1 $262 1.9320895500328186e-016 $262 6.2831853071796004 $178 $263 forward 7 unknown #
face $-1 $264 $265 $27 $-1 $266 reversed single #
loop $-1 $-1 $267 $113 #
plane-surface $-1 -46.338084047975094 0 0 1 0 0 0 0 -1 forward_v I I I I #
coedge $-1 $268 $191 $267 $269 forward $114 $-1 #
coedge $-1 $270 $116 $268 $271 forward $73 $-1 #
coedge $-1 $116 $270 $272 $273 forward $73 $-1 #
coedge $-1 $194 $193 $116 $187 reversed $195 $-1 #
edge $-1 $274 -21.961907146111894 $275 21.961907146111894 $186 $276 forward 7 unknown #
coedge $-1 $118 $117 $277 $278 forward $46 $-1 #
coedge $-1 $279 $280 $117 $190 reversed $265 $-1 #
edge $-1 $197 -46.338084047975094 $281 46.338084047975094 $189 $282 forward 7 unknown #
coedge $-1 $183 $283 $118 $192 reversed $114 $-1 #
edge $-1 $284 -46.338084047975094 $196 46.338084047975094 $191 $285 forward 7 unknown #
coedge $-1 $186 $119 $283 $286 forward $195 $-1 #
coedge $-1 $119 $186 $279 $287 reversed $195 $-1 #
loop $-1 $-1 $193 $264 #
vertex $-1 $120 $288 #
vertex $-1 $120 $289 #
straight-curve $-1 46.338084047975094 0 10.11834868102903 0 1 0 I I #
face $-1 $290 $291 $28 $-1 $292 reversed single #
loop $-1 $-1 $293 $121 #
plane-surface $-1 -57.874928437129633 0 -8.6183486810290297 1 0 0 0 0 -1 forward_v I I I I #
coedge $-1 $294 $124 $295 $296 reversed $77 $-1 #
coedge $-1 $124 $294 $208 $297 reversed $77 $-1 #
edge $-1 $210 7.1183486810290297 $298 10.11834868102903 $124 $299 forward 7 unknown #
coedge $-1 $126 $125 $300 $301 reversed $49 $-1 #
coedge $-1 $302 $303 $125 $207 forward $304 $-1 #
edge $-1 $305 -10.11834868102903 $211 -7.1183486810290297 $206 $306 forward 7 unknown #
coedge $-1 $307 $127 $203 $297 forward $122 $-1 #
coedge $-1 $127 $307 $302 $308 forward $122 $-1 #
vertex $-1 $204 $309 #
vertex $-1 $308 $310 #
straight-curve $-1 -46.338084047975094 0 -7.1183486810290297 0 -1 0 I I #
face $-1 $-1 $311 $29 $-1 $312 reversed single #
loop $-1 $-1 $135 $129 #
plane-surface $-1 0 0 10.11834868102903 0 0 1 1 0 0 forward_v I I I I #
coedge $-1 $313 $314 $315 $316 reversed $130 $-1 #
coedge $-1 $317 $132 $134 $223 forward $81 $-1 #
coedge $-1 $132 $317 $313 $318 forward $81 $-1 #
coedge $-1 $315 $135 $132 $220 forward $214 $-1 #
edge $-1 $226 -20.865372840121768 $319 -0.89861638255759502 $219 $320 forward 7 unknown #
coedge $-1 $321 $322 $133 $222 forward $311 $-1 #
edge $-1 $323 -41.056975415414584 $225 -37.96182368586075 $221 $324 forward 7 unknown #
edge $-1 $226 40.145331749942095 $323 43.923814292223781 $134 $325 forward 7 unknown #
coedge $-1 $135 $315 $321 $326 forward $214 $-1 #
vertex $-1 $222 $327 #
vertex $-1 $136 $328 #
straight-curve $-1 -31.74736745146145 36.342058045072768 10.118348681029033 0 -1 0 I I #
coedge $-1 $228 $228 $-1 $329 reversed $139 $-1 #
edge $-1 $330 0 $330 6.2831853071796004 $140 $331 forward 7 unknown #
vertex $-1 $143 $332 #
ellipse-curve $-1 -26.042579892157399 20.87828289234962 8.5707728162521164 0 0.81915205242281985 0.57357642473473569 0.5 0 0 1 I I #
coedge $-1 $232 $232 $-1 $333 reversed $146 $-1 #
edge $-1 $334 0 $334 6.2831853071796004 $147 $335 forward 7 unknown #
vertex $-1 $150 $336 #
ellipse-curve $-1 -17.485398553201325 20.87828289234962 8.5707728162521164 0 0.81915205242281985 0.57357642473473569 0.5 0 0 1 I I #
face $-1 $-1 $248 $32 $-1 $337 forward single #
loop $-1 $-1 $338 $151 #
plane-surface $-1 0 -21.961907146111894 0 0 1 0 0 0 1 forward_v I I I I #
coedge $-1 $339 $340 $341 $342 reversed $152 $-1 #
coedge $-1 $343 $154 $156 $246 forward $95 $-1 #
coedge $-1 $154 $343 $339 $344 forward $95 $-1 #
coedge $-1 $341 $157 $154 $243 forward $248 $-1 #
edge $-1 $250 -18.446612651813311 $345 -3.1906765140772606 $242 $346 forward 7 unknown #
coedge $-1 $347 $348 $155 $245 forward $237 $-1 #
edge $-1 $349 -25.166037669317411 $249 -17.872478804244064 $244 $350 forward 7 unknown #
edge $-1 $250 -8.9037912357065476 $349 1.8481662412032989e-014 $156 $351 forward 7 unknown #
coedge $-1 $157 $341 $347 $352 forward $248 $-1 #
loop $-1 $-1 $341 $236 #
vertex $-1 $245 $353 #
vertex $-1 $158 $354 #
straight-curve $-1 29.265257234758597 -48.938890226295875 10.11834868102903 0 1 0 I I #
coedge $-1 $252 $252 $-1 $355 reversed $161 $-1 #
edge $-1 $356 0 $356 6.2831853071796004 $162 $357 forward 7 unknown #
vertex $-1 $165 $358 #
ellipse-curve $-1 17.06050832456976 -19.40840477433137 6.4715692484923597 0 -0.81915205242281985 0.57357642473473569 1.5 0 0 1 I I #
coedge $-1 $256 $256 $-1 $359 reversed $168 $-1 #
edge $-1 $360 0 $360 6.2831853071796004 $169 $361 forward 7 unknown #
vertex $-1 $172 $362 #
ellipse-curve $-1 21.637289165890571 -19.40840477433137 6.4715692484923597 0 -0.81915205242281985 0.57357642473473569 1.5 0 0 1 I I #
coedge $-1 $260 $260 $-1 $363 reversed $175 $-1 #
edge $-1 $364 0 $364 6.2831853071796004 $176 $365 forward 7 unknown #
vertex $-1 $179 $366 #
ellipse-curve $-1 26.214070007211383 -19.40840477433137 6.4715692484923597 0 -0.81915205242281985 0.57357642473473569 1.5 0 0 1 I I #
face $-1 $-1 $195 $27 $-1 $367 reversed single #
loop $-1 $-1 $279 $180 #
plane-surface $-1 0 21.961907146111894 0 0 -1 0 0 0 -1 forward_v I I I I #
coedge $-1 $277 $368 $183 $269 reversed $181 $-1 #
coedge $-1 $283 $183 $184 $271 reversed $114 $-1 #
edge $-1 $284 -10.11834868102903 $369 10.11834868102903 $267 $370 forward 7 unknown #
coedge $-1 $185 $184 $368 $371 forward $73 $-1 #
edge $-1 $275 -46.338084047975094 $369 46.338084047975094 $268 $372 forward 7 unknown #
coedge $-1 $280 $279 $185 $273 reversed $265 $-1 #
edge $-1 $373 -46.338084047975094 $274 46.338084047975094 $272 $374 forward 7 unknown #
vertex $-1 $187 $375 #
vertex $-1 $286 $376 #
straight-curve $-1 46.338084047975094 0 -10.11834868102903 0 -1 0 I I #
coedge $-1 $377 $267 $188 $278 reversed $181 $-1 #
edge $-1 $281 -21.961907146111894 $284 21.961907146111894 $277 $378 forward 7 unknown #
coedge $-1 $272 $189 $194 $287 forward $265 $-1 #
coedge $-1 $189 $272 $377 $379 reversed $265 $-1 #
vertex $-1 $190 $380 #
straight-curve $-1 0 21.961907146111894 10.11834868102903 -1 0 0 I I #
coedge $-1 $191 $268 $193 $286 reversed $114 $-1 #
vertex $-1 $278 $381 #
straight-curve $-1 0 -21.961907146111894 10.11834868102903 1 0 0 I I #
edge $-1 $196 -10.11834868102903 $275 10.11834868102903 $193 $382 forward 7 unknown #
edge $-1 $197 -10.11834868102903 $274 10.11834868102903 $194 $383 forward 7 unknown #
point $-1 46.338084047975094 -21.961907146111894 10.11834868102903 #
point $-1 46.338084047975094 21.961907146111894 10.11834868102903 #
face $-1 $-1 $304 $28 $-1 $384 reversed single #
loop $-1 $-1 $300 $199 #
plane-surface $-1 0 0 -10.11834868102903 0 0 1 1 0 0 forward_v I I I I #
coedge $-1 $385 $386 $294 $387 forward $200 $-1 #
coedge $-1 $203 $202 $293 $387 reversed $77 $-1 #
coedge $-1 $300 $388 $202 $296 forward $291 $-1 #
edge $-1 $389 -57.874928437129633 $298 -46.338084047975094 $202 $390 forward 7 unknown #
edge $-1 $210 -5.7684221945772691 $391 5.7684221945772691 $203 $392 forward 7 unknown #
vertex $-1 $204 $393 #
straight-curve $-1 -46.338084047975094 21.961907146111894 0 0 0 -1 I I #
coedge $-1 $394 $295 $205 $301 forward $291 $-1 #
edge $-1 $298 -21.961907146111894 $305 21.961907146111894 $300 $395 forward 7 unknown #
coedge $-1 $396 $206 $209 $308 reversed $304 $-1 #
coedge $-1 $206 $396 $394 $397 reversed $304 $-1 #
loop $-1 $-1 $206 $290 #
vertex $-1 $397 $398 #
straight-curve $-1 -46.338084047975094 -21.961907146111894 0 0 0 1 I I #
coedge $-1 $209 $208 $386 $399 forward $122 $-1 #
edge $-1 $400 -5.7684221945772691 $211 5.7684221945772691 $302 $401 forward 7 unknown #
point $-1 -46.338084047975094 21.961907146111894 -7.1183486810290297 #
point $-1 -46.338084047975094 -21.961907146111894 -7.1183486810290297 #
loop $-1 $-1 $221 $213 #
plane-surface $-1 0 21.961907146111894 0 0 -1 0 0 0 -1 forward_v I I I I #
coedge $-1 $314 $216 $218 $318 reversed $130 $-1 #
coedge $-1 $216 $313 $402 $403 reversed $130 $-1 #
coedge $-1 $224 $219 $216 $316 forward $214 $-1 #
edge $-1 $319 -16.547399406485418 $404 -14.380150898960874 $315 $405 forward 7 unknown #
coedge $-1 $218 $217 $322 $406 reversed $81 $-1 #
edge $-1 $407 -43.923814292223781 $319 -40.145331749942095 $313 $408 forward 7 unknown #
vertex $-1 $220 $409 #
straight-curve $-1 -10.881994611339682 19.794658638587357 10.11834868102903 1 0 0 I I #
coedge $-1 $402 $221 $224 $326 reversed $311 $-1 #
coedge $-1 $221 $402 $317 $406 forward $311 $-1 #
vertex $-1 $222 $410 #
straight-curve $-1 -31.74736745146145 21.961907146111894 48.080172366889784 0 0 1 I I #
straight-curve $-1 -31.74736745146145 -3.2317572163343016 43.00347957918909 0 0.57357642473473569 -0.81915205242281985 I I #
edge $-1 $404 11.780610993897277 $225 31.74736745146145 $321 $411 forward 7 unknown #
point $-1 -31.74736745146145 21.961907146111894 10.11834868102903 #
point $-1 -31.74736745146145 19.79465863858735 10.118348681029033 #
edge $-1 $412 1 $412 0 $228 $-1 forward 7 unknown #
vertex $-1 $229 $413 #
ellipse-curve $-1 -26.042579892157399 20.059130839926798 7.9971963915173765 0 0.81915205242281985 0.57357642473473569 0.5 0 0 1 I I #
point $-1 -25.542579892157399 20.878282892349617 8.5707728162521128 #
edge $-1 $414 1 $414 0 $232 $-1 forward 7 unknown #
vertex $-1 $233 $415 #
ellipse-curve $-1 -17.485398553201325 20.059130839926798 7.9971963915173765 0 0.81915205242281985 0.57357642473473569 0.5 0 0 1 I I #
point $-1 -16.985398553201325 20.878282892349617 8.5707728162521128 #
plane-surface $-1 0 0 10.11834868102903 0 0 1 1 0 0 forward_v I I I I #
coedge $-1 $348 $347 $340 $416 forward $237 $-1 #
coedge $-1 $340 $239 $241 $344 reversed $152 $-1 #
coedge $-1 $239 $339 $338 $416 reversed $152 $-1 #
coedge $-1 $247 $242 $239 $342 forward $248 $-1 #
edge $-1 $345 -32.083987823745026 $417 -26.976983080183981 $341 $418 forward 7 unknown #
coedge $-1 $241 $240 $348 $419 reversed $95 $-1 #
edge $-1 $420 -1.8481662412032989e-014 $345 8.9037912357065476 $339 $421 forward 7 unknown #
vertex $-1 $243 $422 #
straight-curve $-1 10.818644582945286 -16.854902402550849 10.11834868102903 -1 0 0 I I #
coedge $-1 $338 $244 $247 $352 reversed $237 $-1 #
coedge $-1 $244 $338 $343 $419 forward $237 $-1 #
vertex $-1 $245 $423 #
straight-curve $-1 29.265257234758597 -21.961907146111898 27.990827485273094 0 0 1 I I #
straight-curve $-1 29.265257234758597 -21.961907146111884 2.8247898159556968 0 -0.57357642473473569 -0.81915205242281985 I I #
edge $-1 $417 14.009321097022546 $249 29.265257234758597 $347 $424 forward 7 unknown #
point $-1 29.265257234758597 -21.961907146111894 10.11834868102903 #
point $-1 29.265257234758597 -16.854902402550849 10.11834868102903 #
edge $-1 $425 1 $425 0 $252 $-1 forward 7 unknown #
vertex $-1 $253 $426 #
ellipse-curve $-1 17.06050832456976 -17.14616814821834 4.8875341574832492 0 -0.81915205242281985 0.57357642473473569 1.5 0 0 1 I I #
point $-1 18.56050832456976 -19.408404774331377 6.471569248492365 #
edge $-1 $427 1 $427 0 $256 $-1 forward 7 unknown #
vertex $-1 $257 $428 #
ellipse-curve $-1 21.637289165890571 -17.14616814821834 4.8875341574832492 0 -0.81915205242281985 0.57357642473473569 1.5 0 0 1 I I #
point $-1 23.137289165890571 -19.408404774331377 6.471569248492365 #
edge $-1 $429 1 $429 0 $260 $-1 forward 7 unknown #
vertex $-1 $261 $430 #
ellipse-curve $-1 26.214070007211383 -17.14616814821834 4.8875341574832492 0 -0.81915205242281985 0.57357642473473569 1.5 0 0 1 I I #
point $-1 27.714070007211383 -19.408404774331377 6.471569248492365 #
plane-surface $-1 46.338084047975094 0 0 -1 0 0 0 0 1 forward_v I I I I #
coedge $-1 $267 $377 $270 $371 reversed $181 $-1 #
vertex $-1 $371 $431 #
straight-curve $-1 -46.338084047975094 -21.961907146111894 0 0 0 -1 I I #
edge $-1 $369 -21.961907146111894 $373 21.961907146111894 $368 $432 forward 7 unknown #
straight-curve $-1 0 -21.961907146111894 -10.11834868102903 -1 0 0 I I #
vertex $-1 $273 $433 #
straight-curve $-1 0 21.961907146111894 -10.11834868102903 1 0 0 I I #
point $-1 46.338084047975094 21.961907146111894 -10.11834868102903 #
point $-1 46.338084047975094 -21.961907146111894 -10.11834868102903 #
coedge $-1 $368 $277 $280 $379 forward $181 $-1 #
straight-curve $-1 -46.338084047975094 0 10.11834868102903 0 -1 0 I I #
edge $-1 $281 -10.11834868102903 $373 10.11834868102903 $280 $434 forward 7 unknown #
point $-1 -46.338084047975094 21.961907146111894 10.11834868102903 #
point $-1 -46.338084047975094 -21.961907146111894 10.11834868102903 #
straight-curve $-1 46.338084047975094 -21.961907146111894 0 0 0 -1 I I #
straight-curve $-1 46.338084047975094 21.961907146111894 0 0 0 -1 I I #
plane-surface $-1 0 -21.961907146111894 0 0 1 0 0 0 1 forward_v I I I I #
coedge $-1 $435 $293 $388 $436 reversed $200 $-1 #
coedge $-1 $293 $435 $307 $399 reversed $200 $-1 #
edge $-1 $391 -1.5 $389 1.5 $294 $437 forward 7 unknown #
coedge $-1 $295 $394 $385 $436 forward $291 $-1 #
vertex $-1 $296 $438 #
straight-curve $-1 0 21.961907146111894 -10.11834868102903 1 0 0 I I #
vertex $-1 $297 $439 #
straight-curve $-1 -52.106506242552364 21.961907146111894 -7.1183486810290297 -1 0 0 I I #
point $-1 -46.338084047975094 21.961907146111894 -10.11834868102903 #
coedge $-1 $388 $300 $303 $397 forward $291 $-1 #
straight-curve $-1 -46.338084047975094 0 -10.11834868102903 0 -1 0 I I #
coedge $-1 $303 $302 $435 $440 forward $304 $-1 #
edge $-1 $305 -5.7684221945772691 $441 5.7684221945772691 $303 $442 forward 7 unknown #
point $-1 -46.338084047975094 -21.961907146111894 -10.11834868102903 #
edge $-1 $391 -21.961907146111894 $400 21.961907146111894 $386 $443 forward 7 unknown #
vertex $-1 $399 $444 #
straight-curve $-1 -52.106506242552364 -21.961907146111894 -7.1183486810290297 1 0 0 I I #
coedge $-1 $322 $321 $314 $403 forward $311 $-1 #
edge $-1 $404 37.96182368586075 $407 41.056975415414584 $402 $445 forward 7 unknown #
vertex $-1 $326 $446 #
straight-curve $-1 -11.780610993897277 36.342058045072768 10.118348681029033 0 1 0 I I #
edge $-1 $407 0.89861638255759502 $323 20.865372840121768 $322 $447 forward 7 unknown #
vertex $-1 $406 $448 #
straight-curve $-1 -11.780610993897277 -3.2317572163343016 43.00347957918909 0 -0.57357642473473569 0.81915205242281985 I I #
point $-1 -11.780610993897277 19.79465863858735 10.118348681029033 #
point $-1 -31.74736745146145 21.961907146111894 7.0231969514751995 #
straight-curve $-1 0 21.961907146111894 10.11834868102903 -1 0 0 I I #
vertex $-1 $329 $449 #
point $-1 -25.542579892157399 20.059130839926798 7.9971963915173765 #
vertex $-1 $333 $450 #
point $-1 -16.985398553201325 20.059130839926798 7.9971963915173765 #
edge $-1 $417 17.872478804244064 $420 25.166037669317411 $338 $451 forward 7 unknown #
vertex $-1 $352 $452 #
straight-curve $-1 14.009321097022546 -48.938890226295875 10.11834868102903 0 -1 0 I I #
edge $-1 $420 3.1906765140772606 $349 18.446612651813311 $348 $453 forward 7 unknown #
vertex $-1 $419 $454 #
straight-curve $-1 14.009321097022546 -21.961907146111884 2.8247898159556968 0 0.57357642473473569 0.81915205242281985 I I #
point $-1 14.009321097022546 -16.854902402550849 10.11834868102903 #
point $-1 29.265257234758597 -21.961907146111894 2.8247898159556817 #
straight-curve $-1 0 -21.961907146111894 10.11834868102903 1 0 0 I I #
vertex $-1 $355 $455 #
point $-1 18.56050832456976 -17.14616814821834 4.8875341574832492 #
vertex $-1 $359 $456 #
point $-1 23.137289165890571 -17.14616814821834 4.8875341574832492 #
vertex $-1 $363 $457 #
point $-1 27.714070007211383 -17.14616814821834 4.8875341574832492 #
point $-1 -46.338084047975094 -21.961907146111894 -10.11834868102903 #
straight-curve $-1 -46.338084047975094 0 -10.11834868102903 0 1 0 I I #
point $-1 -46.338084047975094 21.961907146111894 -10.11834868102903 #
straight-curve $-1 -46.338084047975094 21.961907146111894 0 0 0 -1 I I #
coedge $-1 $386 $385 $396 $440 reversed $200 $-1 #
edge $-1 $441 -21.961907146111894 $389 21.961907146111894 $385 $458 forward 7 unknown #
straight-curve $-1 -57.874928437129633 21.961907146111894 -8.6183486810290297 0 0 -1 I I #
point $-1 -57.874928437129633 21.961907146111894 -10.11834868102903 #
point $-1 -57.874928437129633 21.961907146111894 -7.1183486810290297 #
edge $-1 $400 -1.5 $441 1.5 $435 $459 forward 7 unknown #
vertex $-1 $436 $460 #
straight-curve $-1 -52.106506242552364 -21.961907146111894 -10.11834868102903 -1 0 0 I I #
straight-curve $-1 -57.874928437129633 0 -7.1183486810290297 0 -1 0 I I #
point $-1 -57.874928437129633 -21.961907146111894 -7.1183486810290297 #
straight-curve $-1 -11.780610993897277 21.961907146111894 48.080172366889784 0 0 -1 I I #
point $-1 -11.780610993897277 21.961907146111894 10.11834868102903 #
straight-curve $-1 -10.881994611339682 21.961907146111898 7.0231969514751977 -1 0 0 I I #
point $-1 -11.780610993897277 21.961907146111894 7.0231969514751995 #
point $-1 -26.042579892157399 19.649554813715387 7.7104081791500088 #
point $-1 -17.485398553201325 19.649554813715387 7.7104081791500088 #
straight-curve $-1 14.009321097022546 -21.961907146111898 27.990827485273094 0 0 -1 I I #
point $-1 14.009321097022546 -21.961907146111894 10.11834868102903 #
straight-curve $-1 10.818644582945286 -21.961907146111894 2.8247898159556843 1 0 0 I I #
point $-1 14.009321097022546 -21.961907146111894 2.8247898159556817 #
point $-1 17.06050832456976 -15.917440069584112 4.027169520381146 #
point $-1 21.637289165890571 -15.917440069584112 4.027169520381146 #
point $-1 26.214070007211383 -15.917440069584112 4.027169520381146 #
straight-curve $-1 -57.874928437129633 0 -10.11834868102903 0 1 0 I I #
straight-curve $-1 -57.874928437129633 -21.961907146111894 -8.6183486810290297 0 0 -1 I I #
point $-1 -57.874928437129633 -21.961907146111894 -10.11834868102903 #
End-of-ACIS-data 