500 0 18 0           
7 Unknown 11 ACIS 5.0 NT 24 Thu Mar 25 19:24:41 1999 
-1 9.9999999999999995e-007 1e-010 
body $-1 $18 $-1 $19 #
body $-1 $20 $-1 $21 #
body $-1 $22 $-1 $23 #
body $-1 $24 $-1 $25 #
body $-1 $26 $-1 $27 #
body $-1 $28 $-1 $29 #
body $-1 $30 $-1 $31 #
body $-1 $32 $-1 $33 #
body $-1 $34 $-1 $35 #
body $-1 $36 $-1 $37 #
body $-1 $38 $-1 $39 #
body $-1 $40 $-1 $41 #
body $-1 $42 $-1 $43 #
body $-1 $44 $-1 $45 #
body $-1 $46 $-1 $47 #
body $-1 $48 $-1 $49 #
body $-1 $50 $-1 $51 #
body $-1 $52 $-1 $53 #
lump $-1 $-1 $54 $0 #
transform $-1 1 0 0 0 1 0 0 0 1 61.309244056520278 33.923001419657872 9.344432227968138 1 rotate no_reflect no_shear #
lump $-1 $-1 $55 $1 #
transform $-1 1 0 0 0 1 0 0 0 1 61.309244056520278 33.923001419657872 9.344432227968138 1 rotate no_reflect no_shear #
lump $-1 $-1 $56 $2 #
transform $-1 1 0 0 0 1 0 0 0 1 61.309244056520278 33.923001419657872 9.344432227968138 1 rotate no_reflect no_shear #
lump $-1 $-1 $57 $3 #
transform $-1 1 0 0 0 1 0 0 0 1 61.309244056520278 33.923001419657872 9.344432227968138 1 rotate no_reflect no_shear #
lump $-1 $-1 $58 $4 #
transform $-1 1 0 0 0 1 0 0 0 1 61.309244056520278 33.923001419657872 9.344432227968138 1 rotate no_reflect no_shear #
lump $-1 $-1 $59 $5 #
transform $-1 1 0 0 0 1 0 0 0 1 61.309244056520278 33.923001419657872 9.344432227968138 1 rotate no_reflect no_shear #
lump $-1 $-1 $60 $6 #
transform $-1 1 0 0 0 1 0 0 0 1 61.309244056520278 33.923001419657872 9.344432227968138 1 rotate no_reflect no_shear #
lump $-1 $-1 $61 $7 #
transform $-1 1 0 0 0 1 0 0 0 1 61.309244056520278 33.923001419657872 9.344432227968138 1 rotate no_reflect no_shear #
lump $-1 $-1 $62 $8 #
transform $-1 1 0 0 0 1 0 0 0 1 61.309244056520278 33.923001419657872 9.344432227968138 1 rotate no_reflect no_shear #
lump $-1 $-1 $63 $9 #
transform $-1 1 0 0 0 1 0 0 0 1 61.309244056520278 33.923001419657872 9.344432227968138 1 rotate no_reflect no_shear #
lump $-1 $-1 $64 $10 #
transform $-1 1 0 0 0 1 0 0 0 1 61.309244056520278 33.923001419657872 9.344432227968138 1 rotate no_reflect no_shear #
lump $-1 $-1 $65 $11 #
transform $-1 1 0 0 0 1 0 0 0 1 61.309244056520278 33.923001419657872 9.344432227968138 1 rotate no_reflect no_shear #
lump $-1 $-1 $66 $12 #
transform $-1 1 0 0 0 1 0 0 0 1 61.309244056520278 33.923001419657872 9.344432227968138 1 rotate no_reflect no_shear #
lump $-1 $-1 $67 $13 #
transform $-1 1 0 0 0 1 0 0 0 1 61.309244056520278 33.923001419657872 9.344432227968138 1 rotate no_reflect no_shear #
lump $-1 $-1 $68 $14 #
transform $-1 1 0 0 0 1 0 0 0 1 61.309244056520278 33.923001419657872 9.344432227968138 1 rotate no_reflect no_shear #
lump $-1 $-1 $69 $15 #
transform $-1 1 0 0 0 1 0 0 0 1 61.309244056520278 33.923001419657872 9.344432227968138 1 rotate no_reflect no_shear #
lump $-1 $-1 $70 $16 #
transform $-1 1 0 0 0 1 0 0 0 1 61.309244056520278 33.923001419657872 9.344432227968138 1 rotate no_reflect no_shear #
lump $-1 $-1 $71 $17 #
transform $-1 1 0 0 0 1 0 0 0 1 61.309244056520278 33.923001419657872 9.344432227968138 1 rotate no_reflect no_shear #
shell $-1 $-1 $-1 $72 $-1 $18 #
shell $-1 $-1 $-1 $73 $-1 $20 #
shell $-1 $-1 $-1 $74 $-1 $22 #
shell $-1 $-1 $-1 $75 $-1 $24 #
shell $-1 $-1 $-1 $76 $-1 $26 #
shell $-1 $-1 $-1 $77 $-1 $28 #
shell $-1 $-1 $-1 $78 $-1 $30 #
shell $-1 $-1 $-1 $79 $-1 $32 #
shell $-1 $-1 $-1 $80 $-1 $34 #
shell $-1 $-1 $-1 $81 $-1 $36 #
shell $-1 $-1 $-1 $82 $-1 $38 #
shell $-1 $-1 $-1 $83 $-1 $40 #
shell $-1 $-1 $-1 $84 $-1 $42 #
shell $-1 $-1 $-1 $85 $-1 $44 #
shell $-1 $-1 $-1 $86 $-1 $46 #
shell $-1 $-1 $-1 $87 $-1 $48 #
shell $-1 $-1 $-1 $88 $-1 $50 #
shell $-1 $-1 $-1 $89 $-1 $52 #
face $-1 $90 $91 $54 $-1 $92 forward single #
face $-1 $93 $94 $55 $-1 $95 reversed single #
face $-1 $96 $97 $56 $-1 $98 reversed single #
face $-1 $99 $100 $57 $-1 $101 forward single #
face $-1 $102 $103 $58 $-1 $104 forward single #
face $-1 $105 $106 $59 $-1 $107 forward single #
face $-1 $108 $109 $60 $-1 $110 reversed single #
face $-1 $111 $112 $61 $-1 $113 forward single #
face $-1 $114 $115 $62 $-1 $116 forward single #
face $-1 $117 $118 $63 $-1 $119 forward single #
face $-1 $120 $121 $64 $-1 $122 reversed single #
face $-1 $123 $124 $65 $-1 $125 forward single #
face $-1 $126 $127 $66 $-1 $128 forward single #
face $-1 $129 $130 $67 $-1 $131 forward single #
face $-1 $132 $133 $68 $-1 $134 reversed single #
face $-1 $135 $136 $69 $-1 $137 forward single #
face $-1 $138 $139 $70 $-1 $140 forward single #
face $-1 $141 $142 $71 $-1 $143 forward single #
face $-1 $144 $145 $54 $-1 $146 reversed single #
loop $-1 $-1 $147 $72 #
plane-surface $-1 0 0 9.344432227968138 0 0 1 1 0 0 forward_v I I I I #
face $-1 $148 $149 $55 $-1 $150 reversed single #
loop $-1 $-1 $151 $73 #
plane-surface $-1 -53.179685976826008 -30.197422745886552 0 1 0 0 0 0 -1 forward_v I I I I #
face $-1 $152 $153 $56 $-1 $154 reversed single #
loop $-1 $-1 $155 $74 #
plane-surface $-1 -61.309244056520285 -20.660957524345346 0.77797566734749068 -0.62932039886446345 0 0.77714595512881146 0.77714595512881146 0 0.62932039886446345 forward_v I I I I #
face $-1 $156 $157 $57 $-1 $158 forward single #
loop $-1 $159 $160 $75 #
cone-surface $-1 -55.554816771897279 -24.147489453007275 4.4868767930076681 0.62932039886446345 0 -0.77714595512881146 0.38857297756440573 0 0.31466019943223172 1 I I 0 1 0.5 forward I I I I #
face $-1 $161 $162 $58 $-1 $163 forward single #
loop $-1 $164 $165 $76 #
cone-surface $-1 -55.554816771897279 -20.660957524345346 4.4868767930076681 0.62932039886446345 0 -0.77714595512881146 0.38857297756440573 0 0.31466019943223172 1 I I 0 1 0.5 forward I I I I #
face $-1 $166 $167 $59 $-1 $168 forward single #
loop $-1 $169 $170 $77 #
cone-surface $-1 -55.554816771897279 -17.174425595683417 4.4868767930076681 0.62932039886446345 0 -0.77714595512881146 0.38857297756440573 0 0.31466019943223172 1 I I 0 1 0.5 forward I I I I #
face $-1 $171 $172 $60 $-1 $173 reversed single #
loop $-1 $-1 $174 $78 #
plane-surface $-1 -138.47555990397643 3.7255786737713228 96.070437728407214 0 1 0 -0.62932039886446345 0 0.77714595512881146 forward_v I I I I #
face $-1 $175 $176 $61 $-1 $177 forward single #
loop $-1 $178 $179 $79 #
cone-surface $-1 -55.554816771897279 6.0499332928792739 4.4868767930076681 0.62932039886446345 0 -0.77714595512881146 0.38857297756440573 0 0.31466019943223172 1 I I 0 1 0.5 forward I I I I #
face $-1 $180 $181 $62 $-1 $182 forward single #
loop $-1 $183 $184 $80 #
cone-surface $-1 -55.554816771897279 9.5364652215412065 4.4868767930076681 0.62932039886446345 0 -0.77714595512881146 0.38857297756440573 0 0.31466019943223172 1 I I 0 1 0.5 forward I I I I #
face $-1 $185 $186 $63 $-1 $187 forward single #
loop $-1 $188 $189 $81 #
cone-surface $-1 -55.554816771897279 13.022997150203132 4.4868767930076681 0.62932039886446345 0 -0.77714595512881146 0.38857297756440573 0 0.31466019943223172 1 I I 0 1 0.5 forward I I I I #
face $-1 $190 $191 $64 $-1 $192 reversed single #
loop $-1 $-1 $193 $82 #
plane-surface $-1 49.212864441577231 -6.9265316758411117 178.18953460169371 0 -1 0 -0.6560590369687036 0 -0.75470957328743171 forward_v I I I I #
face $-1 $194 $195 $65 $-1 $196 forward single #
loop $-1 $197 $198 $83 #
cone-surface $-1 57.96309781444991 -16.519888028555741 6.1646564370248669 -0.6560590369687036 0 -0.75470957328743171 0.75470957328743171 0 -0.6560590369687036 1 I I 0 1 1 forward I I I I #
face $-1 $199 $200 $66 $-1 $201 forward single #
loop $-1 $202 $203 $84 #
cone-surface $-1 57.96309781444991 -12.922379396287752 6.1646564370248669 -0.6560590369687036 0 -0.75470957328743171 0.75470957328743171 0 -0.6560590369687036 1 I I 0 1 1 forward I I I I #
face $-1 $204 $205 $67 $-1 $206 forward single #
loop $-1 $207 $208 $85 #
cone-surface $-1 57.96309781444991 -9.3248707640197637 6.1646564370248669 -0.6560590369687036 0 -0.75470957328743171 0.75470957328743171 0 -0.6560590369687036 1 I I 0 1 1 forward I I I I #
face $-1 $209 $210 $68 $-1 $211 reversed single #
loop $-1 $-1 $212 $86 #
plane-surface $-1 49.212864441577231 26.369384464277037 178.18953460169371 0 -1 0 -0.6560590369687036 0 -0.75470957328743171 forward_v I I I I #
face $-1 $213 $214 $69 $-1 $215 forward single #
loop $-1 $216 $217 $87 #
cone-surface $-1 57.96309781444991 16.776028111562411 6.1646564370248669 -0.6560590369687036 0 -0.75470957328743171 0.75470957328743171 0 -0.6560590369687036 1 I I 0 1 1 forward I I I I #
face $-1 $218 $219 $70 $-1 $220 forward single #
loop $-1 $221 $222 $88 #
cone-surface $-1 57.96309781444991 20.3735367438304 6.1646564370248669 -0.6560590369687036 0 -0.75470957328743171 0.75470957328743171 0 -0.6560590369687036 1 I I 0 1 1 forward I I I I #
face $-1 $223 $224 $71 $-1 $225 forward single #
loop $-1 $226 $227 $89 #
cone-surface $-1 57.96309781444991 23.971045376098388 6.1646564370248669 -0.6560590369687036 0 -0.75470957328743171 0.75470957328743171 0 -0.6560590369687036 1 I I 0 1 1 forward I I I I #
face $-1 $228 $229 $54 $-1 $230 reversed single #
loop $-1 $-1 $231 $90 #
plane-surface $-1 0 0 -9.344432227968138 0 0 1 1 0 0 forward_v I I I I #
coedge $-1 $232 $233 $234 $235 forward $91 $-1 #
face $-1 $236 $237 $55 $-1 $238 reversed single #
loop $-1 $-1 $239 $93 #
plane-surface $-1 -51.679685976826008 -26.471844072115232 0 0 -1 0 0 0 -1 forward_v I I I I #
coedge $-1 $240 $241 $242 $243 forward $94 $-1 #
face $-1 $244 $245 $56 $-1 $246 forward single #
loop $-1 $-1 $247 $96 #
plane-surface $-1 -138.47555990397643 -14.850070976575463 96.070437728407214 0 -1 0 0.62932039886446345 0 -0.77714595512881146 forward_v I I I I #
coedge $-1 $248 $249 $250 $251 reversed $97 $-1 #
face $-1 $-1 $252 $57 $-1 $253 forward single #
loop $-1 $254 $255 $99 #
cone-surface $-1 -54.932405702952906 -24.147489453007275 3.7182631495753071 0.62932039886446345 0 -0.77714595512881146 0.19428648878220287 0 0.15733009971611586 1 I I -0.70710678118654746 0.70710678118654746 0.25 forward I I I I #
loop $-1 $-1 $256 $75 #
coedge $-1 $160 $160 $257 $258 reversed $100 $-1 #
face $-1 $-1 $259 $58 $-1 $260 forward single #
loop $-1 $261 $262 $102 #
cone-surface $-1 -54.932405702952906 -20.660957524345346 3.7182631495753071 0.62932039886446345 0 -0.77714595512881146 0.19428648878220287 0 0.15733009971611586 1 I I -0.70710678118654746 0.70710678118654746 0.25 forward I I I I #
loop $-1 $-1 $263 $76 #
coedge $-1 $165 $165 $264 $265 reversed $103 $-1 #
face $-1 $-1 $266 $59 $-1 $267 forward single #
loop $-1 $268 $269 $105 #
cone-surface $-1 -54.932405702952906 -17.174425595683417 3.7182631495753071 0.62932039886446345 0 -0.77714595512881146 0.19428648878220287 0 0.15733009971611586 1 I I -0.70710678118654746 0.70710678118654746 0.25 forward I I I I #
loop $-1 $-1 $270 $77 #
coedge $-1 $170 $170 $271 $272 reversed $106 $-1 #
face $-1 $273 $274 $60 $-1 $275 reversed single #
loop $-1 $-1 $276 $108 #
plane-surface $-1 -61.309244056520285 9.5364652215412065 0.77797566734749068 -0.62932039886446345 0 0.77714595512881146 0.77714595512881146 0 0.62932039886446345 forward_v I I I I #
coedge $-1 $277 $278 $279 $280 reversed $109 $-1 #
face $-1 $-1 $281 $61 $-1 $282 forward single #
loop $-1 $283 $284 $111 #
cone-surface $-1 -54.932405702952906 6.0499332928792739 3.7182631495753071 0.62932039886446345 0 -0.77714595512881146 0.19428648878220287 0 0.15733009971611586 1 I I -0.70710678118654746 0.70710678118654746 0.25 forward I I I I #
loop $-1 $-1 $285 $79 #
coedge $-1 $179 $179 $286 $287 reversed $112 $-1 #
face $-1 $-1 $288 $62 $-1 $289 forward single #
loop $-1 $290 $291 $114 #
cone-surface $-1 -54.932405702952906 9.5364652215412065 3.7182631495753071 0.62932039886446345 0 -0.77714595512881146 0.19428648878220287 0 0.15733009971611586 1 I I -0.70710678118654746 0.70710678118654746 0.25 forward I I I I #
loop $-1 $-1 $292 $80 #
coedge $-1 $184 $184 $293 $294 reversed $115 $-1 #
face $-1 $-1 $295 $63 $-1 $296 forward single #
loop $-1 $297 $298 $117 #
cone-surface $-1 -54.932405702952906 13.022997150203132 3.7182631495753071 0.62932039886446345 0 -0.77714595512881146 0.19428648878220287 0 0.15733009971611586 1 I I -0.70710678118654746 0.70710678118654746 0.25 forward I I I I #
loop $-1 $-1 $299 $81 #
coedge $-1 $189 $189 $300 $301 reversed $118 $-1 #
face $-1 $302 $303 $64 $-1 $304 reversed single #
loop $-1 $-1 $305 $120 #
plane-surface $-1 -31.232102784422587 -12.922379396287756 85.648187760750858 0.6560590369687036 0 0.75470957328743171 0.75470957328743171 0 -0.6560590369687036 forward_v I I I I #
coedge $-1 $306 $307 $308 $309 reversed $121 $-1 #
face $-1 $-1 $310 $65 $-1 $311 forward single #
loop $-1 $312 $313 $123 #
cone-surface $-1 56.670881552785424 -16.519888028555741 4.6781317060464183 -0.6560590369687036 0 -0.75470957328743171 0.37735478664371586 0 -0.3280295184843518 1 I I -0.70710678118654746 0.70710678118654746 0.5 forward I I I I #
loop $-1 $-1 $314 $83 #
coedge $-1 $198 $198 $315 $316 reversed $124 $-1 #
face $-1 $-1 $317 $66 $-1 $318 forward single #
loop $-1 $319 $320 $126 #
cone-surface $-1 56.670881552785424 -12.922379396287752 4.6781317060464183 -0.6560590369687036 0 -0.75470957328743171 0.37735478664371586 0 -0.3280295184843518 1 I I -0.70710678118654746 0.70710678118654746 0.5 forward I I I I #
loop $-1 $-1 $321 $84 #
coedge $-1 $203 $203 $322 $323 reversed $127 $-1 #
face $-1 $-1 $324 $67 $-1 $325 forward single #
loop $-1 $326 $327 $129 #
cone-surface $-1 56.670881552785424 -9.3248707640197637 4.6781317060464183 -0.6560590369687036 0 -0.75470957328743171 0.37735478664371586 0 -0.3280295184843518 1 I I -0.70710678118654746 0.70710678118654746 0.5 forward I I I I #
loop $-1 $-1 $328 $85 #
coedge $-1 $208 $208 $329 $330 reversed $130 $-1 #
face $-1 $331 $332 $68 $-1 $333 reversed single #
loop $-1 $-1 $334 $132 #
plane-surface $-1 -31.232102784422587 20.373536743830392 85.648187760750858 0.6560590369687036 0 0.75470957328743171 0.75470957328743171 0 -0.6560590369687036 forward_v I I I I #
coedge $-1 $335 $336 $337 $338 reversed $133 $-1 #
face $-1 $-1 $339 $69 $-1 $340 forward single #
loop $-1 $341 $342 $135 #
cone-surface $-1 56.670881552785424 16.776028111562411 4.6781317060464183 -0.6560590369687036 0 -0.75470957328743171 0.37735478664371586 0 -0.3280295184843518 1 I I -0.70710678118654746 0.70710678118654746 0.5 forward I I I I #
loop $-1 $-1 $343 $87 #
coedge $-1 $217 $217 $344 $345 reversed $136 $-1 #
face $-1 $-1 $346 $70 $-1 $347 forward single #
loop $-1 $348 $349 $138 #
cone-surface $-1 56.670881552785424 20.3735367438304 4.6781317060464183 -0.6560590369687036 0 -0.75470957328743171 0.37735478664371586 0 -0.3280295184843518 1 I I -0.70710678118654746 0.70710678118654746 0.5 forward I I I I #
loop $-1 $-1 $350 $88 #
coedge $-1 $222 $222 $351 $352 reversed $139 $-1 #
face $-1 $-1 $353 $71 $-1 $354 forward single #
loop $-1 $355 $356 $141 #
cone-surface $-1 56.670881552785424 23.971045376098388 4.6781317060464183 -0.6560590369687036 0 -0.75470957328743171 0.37735478664371586 0 -0.3280295184843518 1 I I -0.70710678118654746 0.70710678118654746 0.5 forward I I I I #
loop $-1 $-1 $357 $89 #
coedge $-1 $227 $227 $358 $359 reversed $142 $-1 #
face $-1 $360 $361 $54 $-1 $362 reversed single #
loop $-1 $-1 $363 $144 #
plane-surface $-1 0 -33.923001419657872 0 0 1 0 0 0 1 forward_v I I I I #
coedge $-1 $364 $365 $366 $367 forward $145 $-1 #
coedge $-1 $368 $147 $369 $370 forward $91 $-1 #
coedge $-1 $147 $368 $371 $372 forward $91 $-1 #
coedge $-1 $373 $374 $147 $235 reversed $375 $-1 #
edge $-1 $376 -33.923001419657872 $377 33.923001419657872 $234 $378 forward 7 unknown #
face $-1 $379 $380 $55 $-1 $381 forward single #
loop $-1 $-1 $382 $148 #
plane-surface $-1 -50.179685976826008 -30.197422745886552 0 -1 0 0 0 0 1 forward_v I I I I #
coedge $-1 $383 $384 $385 $386 forward $149 $-1 #
coedge $-1 $387 $151 $388 $389 reversed $94 $-1 #
coedge $-1 $151 $387 $390 $391 reversed $94 $-1 #
coedge $-1 $384 $383 $151 $243 reversed $149 $-1 #
edge $-1 $392 -9.344432227968138 $393 9.344432227968138 $242 $394 forward 7 unknown #
face $-1 $395 $396 $56 $-1 $397 forward single #
loop $-1 $-1 $398 $152 #
plane-surface $-1 0 0 9.344432227968138 0 0 1 1 0 0 forward_v I I I I #
coedge $-1 $399 $400 $401 $402 reversed $153 $-1 #
coedge $-1 $403 $155 $404 $405 reversed $97 $-1 #
coedge $-1 $155 $403 $399 $406 forward $97 $-1 #
coedge $-1 $401 $398 $155 $251 forward $245 $-1 #
edge $-1 $407 -16.141365309942557 $408 -4.51959221440279 $250 $409 forward 7 unknown #
loop $-1 $-1 $257 $156 #
plane-surface $-1 -61.309244056520285 -20.660957524345346 0.77797566734749068 -0.62932039886446345 0 0.77714595512881146 0.77714595512881146 0 0.62932039886446345 forward_v I I I I #
loop $-1 $-1 $410 $99 #
coedge $-1 $255 $255 $256 $411 reversed $157 $-1 #
coedge $-1 $256 $256 $255 $411 forward $159 $-1 #
coedge $-1 $257 $257 $160 $258 forward $252 $-1 #
edge $-1 $412 0 $412 6.2831853071796004 $257 $413 forward 7 unknown #
loop $-1 $-1 $264 $161 #
plane-surface $-1 -61.309244056520285 -20.660957524345346 0.77797566734749068 -0.62932039886446345 0 0.77714595512881146 0.77714595512881146 0 0.62932039886446345 forward_v I I I I #
loop $-1 $-1 $414 $102 #
coedge $-1 $262 $262 $263 $415 reversed $162 $-1 #
coedge $-1 $263 $263 $262 $415 forward $164 $-1 #
coedge $-1 $264 $264 $165 $265 forward $259 $-1 #
edge $-1 $416 0 $416 6.2831853071796004 $264 $417 forward 7 unknown #
loop $-1 $-1 $271 $166 #
plane-surface $-1 -61.309244056520285 -20.660957524345346 0.77797566734749068 -0.62932039886446345 0 0.77714595512881146 0.77714595512881146 0 0.62932039886446345 forward_v I I I I #
loop $-1 $-1 $418 $105 #
coedge $-1 $269 $269 $270 $419 reversed $167 $-1 #
coedge $-1 $270 $270 $269 $419 forward $169 $-1 #
coedge $-1 $271 $271 $170 $272 forward $266 $-1 #
edge $-1 $420 0 $420 6.2831853071796004 $271 $421 forward 7 unknown #
face $-1 $422 $423 $60 $-1 $424 reversed single #
loop $-1 $-1 $425 $171 #
plane-surface $-1 -138.47555990397643 15.347351769311089 96.070437728407214 0 -1 0 0.62932039886446345 0 -0.77714595512881146 forward_v I I I I #
coedge $-1 $426 $427 $428 $429 reversed $172 $-1 #
coedge $-1 $278 $174 $430 $431 reversed $109 $-1 #
coedge $-1 $174 $277 $426 $432 reversed $109 $-1 #
coedge $-1 $428 $433 $174 $280 forward $434 $-1 #
edge $-1 $435 7.9285358954679381 $436 18.507228526257428 $279 $437 forward 7 unknown #
loop $-1 $-1 $286 $175 #
plane-surface $-1 -61.309244056520285 9.5364652215412065 0.77797566734749068 -0.62932039886446345 0 0.77714595512881146 0.77714595512881146 0 0.62932039886446345 forward_v I I I I #
loop $-1 $-1 $438 $111 #
coedge $-1 $284 $284 $285 $439 reversed $176 $-1 #
coedge $-1 $285 $285 $284 $439 forward $178 $-1 #
coedge $-1 $286 $286 $179 $287 forward $281 $-1 #
edge $-1 $440 0 $440 6.2831853071796004 $286 $441 forward 7 unknown #
loop $-1 $-1 $293 $180 #
plane-surface $-1 -61.309244056520285 9.5364652215412065 0.77797566734749068 -0.62932039886446345 0 0.77714595512881146 0.77714595512881146 0 0.62932039886446345 forward_v I I I I #
loop $-1 $-1 $442 $114 #
coedge $-1 $291 $291 $292 $443 reversed $181 $-1 #
coedge $-1 $292 $292 $291 $443 forward $183 $-1 #
coedge $-1 $293 $293 $184 $294 forward $288 $-1 #
edge $-1 $444 0 $444 6.2831853071796004 $293 $445 forward 7 unknown #
loop $-1 $-1 $300 $185 #
plane-surface $-1 -61.309244056520285 9.5364652215412065 0.77797566734749068 -0.62932039886446345 0 0.77714595512881146 0.77714595512881146 0 0.62932039886446345 forward_v I I I I #
loop $-1 $-1 $446 $117 #
coedge $-1 $298 $298 $299 $447 reversed $186 $-1 #
coedge $-1 $299 $299 $298 $447 forward $188 $-1 #
coedge $-1 $300 $300 $189 $301 forward $295 $-1 #
edge $-1 $448 0 $448 6.2831853071796004 $300 $449 forward 7 unknown #
face $-1 $450 $451 $64 $-1 $452 forward single #
loop $-1 $-1 $453 $190 #
plane-surface $-1 49.212864441577231 -18.9182271167344 178.18953460169371 0 1 0 0.6560590369687036 0 0.75470957328743171 forward_v I I I I #
coedge $-1 $454 $455 $456 $457 reversed $191 $-1 #
coedge $-1 $307 $193 $458 $459 reversed $121 $-1 #
coedge $-1 $193 $306 $454 $460 reversed $121 $-1 #
coedge $-1 $456 $461 $193 $309 forward $451 $-1 #
edge $-1 $462 -36.702811835731666 $463 -31.938892837951126 $308 $464 forward 7 unknown #
loop $-1 $-1 $315 $194 #
plane-surface $-1 -31.232102784422587 -12.922379396287756 85.648187760750858 0.6560590369687036 0 0.75470957328743171 0.75470957328743171 0 -0.6560590369687036 forward_v I I I I #
loop $-1 $-1 $465 $123 #
coedge $-1 $313 $313 $314 $466 reversed $195 $-1 #
coedge $-1 $314 $314 $313 $466 forward $197 $-1 #
coedge $-1 $315 $315 $198 $316 forward $310 $-1 #
edge $-1 $467 0 $467 6.2831853071796004 $315 $468 forward 7 unknown #
loop $-1 $-1 $322 $199 #
plane-surface $-1 -31.232102784422587 -12.922379396287756 85.648187760750858 0.6560590369687036 0 0.75470957328743171 0.75470957328743171 0 -0.6560590369687036 forward_v I I I I #
loop $-1 $-1 $469 $126 #
coedge $-1 $320 $320 $321 $470 reversed $200 $-1 #
coedge $-1 $321 $321 $320 $470 forward $202 $-1 #
coedge $-1 $322 $322 $203 $323 forward $317 $-1 #
edge $-1 $471 0 $471 6.2831853071796004 $322 $472 forward 7 unknown #
loop $-1 $-1 $329 $204 #
plane-surface $-1 -31.232102784422587 -12.922379396287756 85.648187760750858 0.6560590369687036 0 0.75470957328743171 0.75470957328743171 0 -0.6560590369687036 forward_v I I I I #
loop $-1 $-1 $473 $129 #
coedge $-1 $327 $327 $328 $474 reversed $205 $-1 #
coedge $-1 $328 $328 $327 $474 forward $207 $-1 #
coedge $-1 $329 $329 $208 $330 forward $324 $-1 #
edge $-1 $475 0 $475 6.2831853071796004 $329 $476 forward 7 unknown #
face $-1 $477 $478 $68 $-1 $479 reversed single #
loop $-1 $-1 $480 $209 #
plane-surface $-1 49.212864441577231 14.377689023383748 178.18953460169371 0 1 0 0.6560590369687036 0 0.75470957328743171 forward_v I I I I #
coedge $-1 $481 $482 $483 $484 reversed $210 $-1 #
coedge $-1 $336 $212 $485 $486 reversed $133 $-1 #
coedge $-1 $212 $335 $481 $487 reversed $133 $-1 #
coedge $-1 $483 $488 $212 $338 forward $489 $-1 #
edge $-1 $490 -36.702811835731666 $491 -31.938892837951126 $337 $492 forward 7 unknown #
loop $-1 $-1 $344 $213 #
plane-surface $-1 -31.232102784422587 20.373536743830392 85.648187760750858 0.6560590369687036 0 0.75470957328743171 0.75470957328743171 0 -0.6560590369687036 forward_v I I I I #
loop $-1 $-1 $493 $135 #
coedge $-1 $342 $342 $343 $494 reversed $214 $-1 #
coedge $-1 $343 $343 $342 $494 forward $216 $-1 #
coedge $-1 $344 $344 $217 $345 forward $339 $-1 #
edge $-1 $495 0 $495 6.2831853071796004 $344 $496 forward 7 unknown #
loop $-1 $-1 $351 $218 #
plane-surface $-1 -31.232102784422587 20.373536743830392 85.648187760750858 0.6560590369687036 0 0.75470957328743171 0.75470957328743171 0 -0.6560590369687036 forward_v I I I I #
loop $-1 $-1 $497 $138 #
coedge $-1 $349 $349 $350 $498 reversed $219 $-1 #
coedge $-1 $350 $350 $349 $498 forward $221 $-1 #
coedge $-1 $351 $351 $222 $352 forward $346 $-1 #
edge $-1 $499 0 $499 6.2831853071796004 $351 $500 forward 7 unknown #
loop $-1 $-1 $358 $223 #
plane-surface $-1 -31.232102784422587 20.373536743830392 85.648187760750858 0.6560590369687036 0 0.75470957328743171 0.75470957328743171 0 -0.6560590369687036 forward_v I I I I #
loop $-1 $-1 $501 $141 #
coedge $-1 $356 $356 $357 $502 reversed $224 $-1 #
coedge $-1 $357 $357 $356 $502 forward $226 $-1 #
coedge $-1 $358 $358 $227 $359 forward $353 $-1 #
edge $-1 $503 0 $503 6.2831853071796004 $358 $504 forward 7 unknown #
face $-1 $505 $506 $54 $-1 $507 reversed single #
loop $-1 $-1 $508 $228 #
plane-surface $-1 -61.309244056520278 0 0 1 0 0 0 0 -1 forward_v I I I I #
coedge $-1 $509 $371 $510 $511 forward $229 $-1 #
coedge $-1 $512 $231 $509 $513 forward $145 $-1 #
coedge $-1 $231 $512 $514 $515 forward $145 $-1 #
coedge $-1 $374 $373 $231 $367 reversed $375 $-1 #
edge $-1 $516 -33.923001419657872 $517 33.923001419657872 $366 $518 forward 7 unknown #
coedge $-1 $233 $232 $519 $520 forward $91 $-1 #
coedge $-1 $521 $522 $232 $370 reversed $506 $-1 #
edge $-1 $377 -61.309244056520278 $523 61.309244056520278 $369 $524 forward 7 unknown #
coedge $-1 $363 $525 $233 $372 reversed $229 $-1 #
edge $-1 $526 -61.309244056520278 $376 61.309244056520278 $371 $527 forward 7 unknown #
coedge $-1 $366 $234 $525 $528 forward $375 $-1 #
coedge $-1 $234 $366 $521 $529 reversed $375 $-1 #
loop $-1 $-1 $373 $505 #
vertex $-1 $235 $530 #
vertex $-1 $235 $531 #
straight-curve $-1 61.309244056520278 0 9.344432227968138 0 1 0 I I #
face $-1 $532 $533 $55 $-1 $534 reversed single #
loop $-1 $-1 $535 $236 #
plane-surface $-1 0 0 9.344432227968138 0 0 1 1 0 0 forward_v I I I I #
coedge $-1 $536 $537 $538 $539 reversed $237 $-1 #
coedge $-1 $242 $239 $540 $541 reversed $149 $-1 #
coedge $-1 $239 $242 $542 $543 reversed $149 $-1 #
coedge $-1 $537 $536 $239 $386 reversed $237 $-1 #
edge $-1 $544 -9.344432227968138 $545 9.344432227968138 $385 $546 forward 7 unknown #
coedge $-1 $241 $240 $547 $548 reversed $94 $-1 #
coedge $-1 $540 $549 $240 $389 forward $533 $-1 #
edge $-1 $550 -18.824290046714594 $393 -11.373132699171956 $388 $551 forward 7 unknown #
coedge $-1 $552 $542 $241 $391 forward $380 $-1 #
edge $-1 $392 11.373132699171956 $553 18.824290046714594 $390 $554 forward 7 unknown #
vertex $-1 $391 $555 #
vertex $-1 $389 $556 #
straight-curve $-1 -53.179685976826008 -26.471844072115232 0 0 0 -1 I I #
face $-1 $-1 $557 $56 $-1 $558 reversed single #
loop $-1 $-1 $404 $244 #
plane-surface $-1 -51.679685976826008 -26.471844072115232 0 0 -1 0 0 0 -1 forward_v I I I I #
coedge $-1 $250 $559 $560 $561 forward $245 $-1 #
coedge $-1 $400 $247 $249 $406 reversed $153 $-1 #
coedge $-1 $247 $399 $562 $563 reversed $153 $-1 #
coedge $-1 $559 $250 $247 $402 forward $245 $-1 #
edge $-1 $408 -18.507228526257428 $564 -7.9285358954679381 $401 $565 forward 7 unknown #
coedge $-1 $249 $248 $566 $567 reversed $97 $-1 #
coedge $-1 $560 $568 $248 $405 forward $396 $-1 #
edge $-1 $569 -3.4969880770151942 $407 10.115245971138705 $404 $570 forward 7 unknown #
edge $-1 $571 9.1551213131864128e-015 $408 13.612234048153908 $399 $572 forward 7 unknown #
vertex $-1 $405 $573 #
vertex $-1 $251 $574 #
straight-curve $-1 -50.730551425730788 -10.330478762172673 9.344432227968138 0 1 0 I I #
coedge $-1 $410 $410 $-1 $575 reversed $254 $-1 #
edge $-1 $576 0 $576 6.2831853071796004 $255 $577 forward 7 unknown #
vertex $-1 $258 $578 #
ellipse-curve $-1 -56.019897741125533 -24.147489453007275 5.0612039476578179 -0.62932039886446345 0 0.77714595512881146 0.38857297756440573 0 0.31466019943223172 1 I I #
coedge $-1 $414 $414 $-1 $579 reversed $261 $-1 #
edge $-1 $580 0 $580 6.2831853071796004 $262 $581 forward 7 unknown #
vertex $-1 $265 $582 #
ellipse-curve $-1 -56.019897741125533 -20.660957524345346 5.0612039476578179 -0.62932039886446345 0 0.77714595512881146 0.38857297756440573 0 0.31466019943223172 1 I I #
coedge $-1 $418 $418 $-1 $583 reversed $268 $-1 #
edge $-1 $584 0 $584 6.2831853071796004 $269 $585 forward 7 unknown #
vertex $-1 $272 $586 #
ellipse-curve $-1 -56.019897741125533 -17.174425595683417 5.0612039476578179 -0.62932039886446345 0 0.77714595512881146 0.38857297756440573 0 0.31466019943223172 1 I I #
face $-1 $-1 $434 $60 $-1 $587 forward single #
loop $-1 $-1 $588 $273 #
plane-surface $-1 -61.309244056520278 0 0 1 0 0 0 0 -1 forward_v I I I I #
coedge $-1 $589 $590 $591 $592 reversed $274 $-1 #
coedge $-1 $593 $276 $278 $432 forward $172 $-1 #
coedge $-1 $276 $593 $589 $594 forward $172 $-1 #
coedge $-1 $591 $279 $276 $429 forward $434 $-1 #
edge $-1 $436 -1.0426539369992804 $595 10.579119158540486 $428 $596 forward 7 unknown #
coedge $-1 $597 $598 $277 $431 forward $423 $-1 #
edge $-1 $599 -47.257243196856109 $435 -38.690786636235472 $430 $600 forward 7 unknown #
edge $-1 $436 -13.612234048153908 $599 -9.1551213131864128e-015 $278 $601 forward 7 unknown #
coedge $-1 $279 $591 $597 $602 forward $434 $-1 #
loop $-1 $-1 $591 $422 #
vertex $-1 $431 $603 #
vertex $-1 $280 $604 #
straight-curve $-1 -69.237779951988216 3.7255786737713228 9.3444322279681415 1 0 0 I I #
coedge $-1 $438 $438 $-1 $605 reversed $283 $-1 #
edge $-1 $606 0 $606 6.2831853071796004 $284 $607 forward 7 unknown #
vertex $-1 $287 $608 #
ellipse-curve $-1 -56.019897741125533 6.0499332928792739 5.0612039476578179 -0.62932039886446345 0 0.77714595512881146 0.38857297756440573 0 0.31466019943223172 1 I I #
coedge $-1 $442 $442 $-1 $609 reversed $290 $-1 #
edge $-1 $610 0 $610 6.2831853071796004 $291 $611 forward 7 unknown #
vertex $-1 $294 $612 #
ellipse-curve $-1 -56.019897741125533 9.5364652215412065 5.0612039476578179 -0.62932039886446345 0 0.77714595512881146 0.38857297756440573 0 0.31466019943223172 1 I I #
coedge $-1 $446 $446 $-1 $613 reversed $297 $-1 #
edge $-1 $614 0 $614 6.2831853071796004 $298 $615 forward 7 unknown #
vertex $-1 $301 $616 #
ellipse-curve $-1 -56.019897741125533 13.022997150203132 5.0612039476578179 -0.62932039886446345 0 0.77714595512881146 0.38857297756440573 0 0.31466019943223172 1 I I #
face $-1 $-1 $617 $64 $-1 $618 reversed single #
loop $-1 $-1 $308 $302 #
plane-surface $-1 0 0 9.344432227968138 0 0 1 1 0 0 forward_v I I I I #
coedge $-1 $619 $620 $621 $622 reversed $303 $-1 #
coedge $-1 $623 $305 $307 $460 forward $191 $-1 #
coedge $-1 $305 $623 $619 $624 forward $191 $-1 #
coedge $-1 $621 $308 $305 $457 forward $451 $-1 #
edge $-1 $463 0.46534197769723384 $625 12.457037418590522 $456 $626 forward 7 unknown #
coedge $-1 $627 $628 $306 $459 forward $617 $-1 #
edge $-1 $629 -83.891546766095829 $462 -79.750335072878713 $458 $630 forward 7 unknown #
edge $-1 $463 116.30623348371418 $629 122.61848811304057 $307 $631 forward 7 unknown #
coedge $-1 $308 $621 $627 $632 forward $451 $-1 #
vertex $-1 $459 $633 #
vertex $-1 $309 $634 #
straight-curve $-1 24.606432220788616 -6.9265316758411117 9.3444322279681415 -1 0 0 I I #
coedge $-1 $465 $465 $-1 $635 reversed $312 $-1 #
edge $-1 $636 0 $636 6.2831853071796004 $313 $637 forward 7 unknown #
vertex $-1 $316 $638 #
ellipse-curve $-1 58.927284557630024 -16.519888028555741 7.2738263813595792 0.6560590369687036 0 0.75470957328743171 0.75470957328743171 0 -0.6560590369687036 1 I I #
coedge $-1 $469 $469 $-1 $639 reversed $319 $-1 #
edge $-1 $640 0 $640 6.2831853071796004 $320 $641 forward 7 unknown #
vertex $-1 $323 $642 #
ellipse-curve $-1 58.927284557630024 -12.922379396287752 7.2738263813595792 0.6560590369687036 0 0.75470957328743171 0.75470957328743171 0 -0.6560590369687036 1 I I #
coedge $-1 $473 $473 $-1 $643 reversed $326 $-1 #
edge $-1 $644 0 $644 6.2831853071796004 $327 $645 forward 7 unknown #
vertex $-1 $330 $646 #
ellipse-curve $-1 58.927284557630024 -9.3248707640197637 7.2738263813595792 0.6560590369687036 0 0.75470957328743171 0.75470957328743171 0 -0.6560590369687036 1 I I #
face $-1 $-1 $489 $68 $-1 $647 forward single #
loop $-1 $-1 $648 $331 #
plane-surface $-1 61.309244056520278 0 0 -1 0 0 0 0 1 forward_v I I I I #
coedge $-1 $649 $650 $651 $652 reversed $332 $-1 #
coedge $-1 $653 $334 $336 $487 forward $210 $-1 #
coedge $-1 $334 $653 $649 $654 forward $210 $-1 #
coedge $-1 $651 $337 $334 $484 forward $489 $-1 #
edge $-1 $491 -16.18261609236184 $655 -4.1909206514685522 $483 $656 forward 7 unknown #
coedge $-1 $657 $658 $335 $486 forward $478 $-1 #
edge $-1 $659 -83.891546766095829 $490 -79.750335072878713 $485 $660 forward 7 unknown #
edge $-1 $491 116.30623348371418 $659 122.61848811304057 $336 $661 forward 7 unknown #
coedge $-1 $337 $651 $657 $662 forward $489 $-1 #
loop $-1 $-1 $651 $477 #
vertex $-1 $486 $663 #
vertex $-1 $338 $664 #
straight-curve $-1 24.606432220788616 26.369384464277037 9.3444322279681415 -1 0 0 I I #
coedge $-1 $493 $493 $-1 $665 reversed $341 $-1 #
edge $-1 $666 0 $666 6.2831853071796004 $342 $667 forward 7 unknown #
vertex $-1 $345 $668 #
ellipse-curve $-1 58.927284557630024 16.776028111562411 7.2738263813595792 0.6560590369687036 0 0.75470957328743171 0.75470957328743171 0 -0.6560590369687036 1 I I #
coedge $-1 $497 $497 $-1 $669 reversed $348 $-1 #
edge $-1 $670 0 $670 6.2831853071796004 $349 $671 forward 7 unknown #
vertex $-1 $352 $672 #
ellipse-curve $-1 58.927284557630024 20.3735367438304 7.2738263813595792 0.6560590369687036 0 0.75470957328743171 0.75470957328743171 0 -0.6560590369687036 1 I I #
coedge $-1 $501 $501 $-1 $673 reversed $355 $-1 #
edge $-1 $674 0 $674 6.2831853071796004 $356 $675 forward 7 unknown #
vertex $-1 $359 $676 #
ellipse-curve $-1 58.927284557630024 23.971045376098388 7.2738263813595792 0.6560590369687036 0 0.75470957328743171 0.75470957328743171 0 -0.6560590369687036 1 I I #
face $-1 $-1 $375 $54 $-1 $677 reversed single #
loop $-1 $-1 $521 $360 #
plane-surface $-1 0 33.923001419657872 0 0 -1 0 0 0 -1 forward_v I I I I #
coedge $-1 $678 $519 $522 $679 forward $361 $-1 #
coedge $-1 $525 $363 $364 $513 reversed $229 $-1 #
coedge $-1 $519 $678 $363 $511 reversed $361 $-1 #
edge $-1 $526 -9.344432227968138 $680 9.344432227968138 $510 $681 forward 7 unknown #
coedge $-1 $365 $364 $678 $682 forward $145 $-1 #
edge $-1 $517 -61.309244056520278 $680 61.309244056520278 $509 $683 forward 7 unknown #
coedge $-1 $522 $521 $365 $515 reversed $506 $-1 #
edge $-1 $684 -61.309244056520278 $516 61.309244056520278 $514 $685 forward 7 unknown #
vertex $-1 $367 $686 #
vertex $-1 $528 $687 #
straight-curve $-1 61.309244056520278 0 -9.344432227968138 0 -1 0 I I #
coedge $-1 $508 $510 $368 $520 reversed $361 $-1 #
edge $-1 $523 -33.923001419657872 $526 33.923001419657872 $519 $688 forward 7 unknown #
coedge $-1 $514 $369 $374 $529 forward $506 $-1 #
coedge $-1 $369 $514 $508 $679 reversed $506 $-1 #
vertex $-1 $370 $689 #
straight-curve $-1 0 33.923001419657872 9.344432227968138 -1 0 0 I I #
coedge $-1 $371 $509 $373 $528 reversed $229 $-1 #
vertex $-1 $520 $690 #
straight-curve $-1 0 -33.923001419657872 9.344432227968138 1 0 0 I I #
edge $-1 $376 -9.344432227968138 $517 9.344432227968138 $373 $691 forward 7 unknown #
edge $-1 $377 -9.344432227968138 $516 9.344432227968138 $374 $692 forward 7 unknown #
point $-1 61.309244056520278 -33.923001419657872 9.344432227968138 #
point $-1 61.309244056520278 33.923001419657872 9.344432227968138 #
face $-1 $-1 $693 $55 $-1 $694 reversed single #
loop $-1 $-1 $695 $379 #
plane-surface $-1 0 0 -9.344432227968138 0 0 1 1 0 0 forward_v I I I I #
coedge $-1 $542 $552 $537 $696 forward $380 $-1 #
coedge $-1 $385 $382 $695 $697 reversed $237 $-1 #
coedge $-1 $382 $385 $535 $696 reversed $237 $-1 #
coedge $-1 $698 $699 $382 $539 forward $693 $-1 #
edge $-1 $700 -9.344432227968138 $701 9.344432227968138 $538 $702 forward 7 unknown #
coedge $-1 $695 $388 $383 $541 forward $533 $-1 #
edge $-1 $393 -27.339842988413004 $545 -24.339842988413004 $540 $703 forward 7 unknown #
coedge $-1 $390 $535 $384 $543 forward $380 $-1 #
edge $-1 $544 24.339842988413004 $392 27.339842988413004 $542 $704 forward 7 unknown #
vertex $-1 $543 $705 #
vertex $-1 $541 $706 #
straight-curve $-1 -50.179685976826008 -26.471844072115232 0 0 0 -1 I I #
coedge $-1 $699 $698 $387 $548 forward $693 $-1 #
edge $-1 $553 -9.344432227968138 $550 9.344432227968138 $547 $707 forward 7 unknown #
coedge $-1 $388 $695 $699 $708 forward $533 $-1 #
vertex $-1 $389 $709 #
straight-curve $-1 -53.179685976826008 -15.098711372943276 -9.344432227968138 0 1 0 I I #
coedge $-1 $535 $390 $698 $710 forward $380 $-1 #
vertex $-1 $710 $711 #
straight-curve $-1 -53.179685976826008 -15.098711372943276 9.344432227968138 0 -1 0 I I #
point $-1 -53.179685976826008 -26.471844072115232 9.344432227968138 #
point $-1 -53.179685976826008 -26.471844072115232 -9.344432227968138 #
loop $-1 $-1 $712 $395 #
plane-surface $-1 -61.309244056520278 0 0 1 0 0 0 0 -1 forward_v I I I I #
coedge $-1 $398 $401 $713 $714 forward $245 $-1 #
coedge $-1 $568 $404 $398 $561 reversed $396 $-1 #
edge $-1 $715 7.9285358954679381 $407 18.507228526257428 $398 $716 forward 7 unknown #
coedge $-1 $566 $713 $400 $563 forward $557 $-1 #
edge $-1 $564 38.690786636235472 $571 47.257243196856109 $562 $717 forward 7 unknown #
vertex $-1 $714 $718 #
straight-curve $-1 -69.237779951988216 -14.850070976575463 9.3444322279681415 -1 0 0 I I #
coedge $-1 $712 $562 $403 $567 forward $557 $-1 #
edge $-1 $571 4.51959221440279 $569 16.141365309942557 $566 $719 forward 7 unknown #
coedge $-1 $404 $560 $712 $720 reversed $396 $-1 #
vertex $-1 $720 $721 #
straight-curve $-1 -58.591573917334237 -26.471844072115232 2.97870159879897 0.77714595512881146 0 0.62932039886446345 I I #
vertex $-1 $567 $722 #
straight-curve $-1 -61.309244056520285 -14.850070976575463 0.77797566734749068 0.77714595512881146 0 0.62932039886446345 I I #
point $-1 -50.730551425730788 -26.471844072115232 9.344432227968138 #
point $-1 -50.730551425730788 -14.850070976575463 9.344432227968138 #
edge $-1 $723 1 $723 0 $410 $-1 forward 7 unknown #
vertex $-1 $411 $724 #
ellipse-curve $-1 -55.089735802669018 -24.147489453007275 3.9125496383575098 -0.62932039886446345 0 0.77714595512881146 0.38857297756440573 0 0.31466019943223172 1 I I #
point $-1 -55.631324763561139 -24.147489453007275 5.3758641470900592 #
edge $-1 $725 1 $725 0 $414 $-1 forward 7 unknown #
vertex $-1 $415 $726 #
ellipse-curve $-1 -55.089735802669018 -20.660957524345346 3.9125496383575098 -0.62932039886446345 0 0.77714595512881146 0.38857297756440573 0 0.31466019943223172 1 I I #
point $-1 -55.631324763561139 -20.660957524345346 5.3758641470900592 #
edge $-1 $727 1 $727 0 $418 $-1 forward 7 unknown #
vertex $-1 $419 $728 #
ellipse-curve $-1 -55.089735802669018 -17.174425595683417 3.9125496383575098 -0.62932039886446345 0 0.77714595512881146 0.38857297756440573 0 0.31466019943223172 1 I I #
point $-1 -55.631324763561139 -17.174425595683417 5.3758641470900592 #
plane-surface $-1 0 0 9.344432227968138 0 0 1 1 0 0 forward_v I I I I #
coedge $-1 $598 $597 $590 $729 forward $423 $-1 #
coedge $-1 $590 $425 $427 $594 reversed $274 $-1 #
coedge $-1 $425 $589 $588 $729 reversed $274 $-1 #
coedge $-1 $433 $428 $425 $592 forward $434 $-1 #
edge $-1 $595 -18.507228526257428 $730 -7.9285358954679381 $591 $731 forward 7 unknown #
coedge $-1 $427 $426 $598 $732 reversed $172 $-1 #
edge $-1 $733 9.1551213131864128e-015 $595 13.612234048153908 $589 $734 forward 7 unknown #
vertex $-1 $429 $735 #
straight-curve $-1 -50.730551425730788 4.7682326107706032 9.344432227968138 0 1 0 I I #
coedge $-1 $588 $430 $433 $602 reversed $423 $-1 #
coedge $-1 $430 $588 $593 $732 forward $423 $-1 #
vertex $-1 $431 $736 #
straight-curve $-1 -61.309244056520278 3.7255786737713228 48.035218864203607 0 0 1 I I #
straight-curve $-1 -61.309244056520285 3.7255786737713228 0.77797566734749068 -0.77714595512881146 0 -0.62932039886446345 I I #
edge $-1 $730 -15.347351769311089 $435 -3.7255786737713228 $597 $737 forward 7 unknown #
point $-1 -61.309244056520278 3.7255786737713228 9.344432227968138 #
point $-1 -50.730551425730788 3.7255786737713228 9.344432227968138 #
edge $-1 $738 1 $738 0 $438 $-1 forward 7 unknown #
vertex $-1 $439 $739 #
ellipse-curve $-1 -55.089735802669018 6.0499332928792739 3.9125496383575098 -0.62932039886446345 0 0.77714595512881146 0.38857297756440573 0 0.31466019943223172 1 I I #
point $-1 -55.631324763561139 6.0499332928792739 5.3758641470900592 #
edge $-1 $740 1 $740 0 $442 $-1 forward 7 unknown #
vertex $-1 $443 $741 #
ellipse-curve $-1 -55.089735802669018 9.5364652215412065 3.9125496383575098 -0.62932039886446345 0 0.77714595512881146 0.38857297756440573 0 0.31466019943223172 1 I I #
point $-1 -55.631324763561139 9.5364652215412065 5.3758641470900592 #
edge $-1 $742 1 $742 0 $446 $-1 forward 7 unknown #
vertex $-1 $447 $743 #
ellipse-curve $-1 -55.089735802669018 13.022997150203132 3.9125496383575098 -0.62932039886446345 0 0.77714595512881146 0.38857297756440573 0 0.31466019943223172 1 I I #
point $-1 -55.631324763561139 13.022997150203132 5.3758641470900592 #
loop $-1 $-1 $458 $450 #
plane-surface $-1 61.309244056520278 0 0 -1 0 0 0 0 1 forward_v I I I I #
coedge $-1 $620 $453 $455 $624 reversed $303 $-1 #
coedge $-1 $453 $619 $744 $745 reversed $303 $-1 #
coedge $-1 $461 $456 $453 $622 forward $451 $-1 #
edge $-1 $625 31.938892837951126 $746 36.702811835731666 $621 $747 forward 7 unknown #
coedge $-1 $455 $454 $628 $748 reversed $191 $-1 #
edge $-1 $749 -122.61848811304057 $625 -116.30623348371418 $619 $750 forward 7 unknown #
vertex $-1 $457 $751 #
straight-curve $-1 56.545325058739742 -6.4611896981438779 9.3444322279681487 0 -1 0 I I #
coedge $-1 $744 $458 $461 $632 reversed $617 $-1 #
coedge $-1 $458 $744 $623 $748 forward $617 $-1 #
vertex $-1 $459 $752 #
straight-curve $-1 61.309244056520278 -6.9265316758411117 89.094767300846854 0 0 1 I I #
straight-curve $-1 -31.232102784422587 -6.9265316758411117 85.648187760750858 0.75470957328743171 0 -0.6560590369687036 I I #
edge $-1 $746 -18.9182271167344 $462 -6.9265316758411117 $627 $753 forward 7 unknown #
point $-1 61.309244056520278 -6.9265316758411117 9.344432227968138 #
point $-1 56.545325058739742 -6.9265316758411117 9.3444322279681415 #
edge $-1 $754 1 $754 0 $465 $-1 forward 7 unknown #
vertex $-1 $466 $755 #
ellipse-curve $-1 56.998911071269774 -16.519888028555741 5.0554864926901342 0.6560590369687036 0 0.75470957328743171 0.75470957328743171 0 -0.6560590369687036 1 I I #
point $-1 59.681994130917474 -16.519888028555741 6.6177673443908969 #
edge $-1 $756 1 $756 0 $469 $-1 forward 7 unknown #
vertex $-1 $470 $757 #
ellipse-curve $-1 56.998911071269774 -12.922379396287752 5.0554864926901342 0.6560590369687036 0 0.75470957328743171 0.75470957328743171 0 -0.6560590369687036 1 I I #
point $-1 59.681994130917474 -12.922379396287752 6.6177673443908969 #
edge $-1 $758 1 $758 0 $473 $-1 forward 7 unknown #
vertex $-1 $474 $759 #
ellipse-curve $-1 56.998911071269774 -9.3248707640197637 5.0554864926901342 0.6560590369687036 0 0.75470957328743171 0.75470957328743171 0 -0.6560590369687036 1 I I #
point $-1 59.681994130917474 -9.3248707640197637 6.6177673443908969 #
plane-surface $-1 0 0 9.344432227968138 0 0 1 1 0 0 forward_v I I I I #
coedge $-1 $658 $657 $650 $760 forward $478 $-1 #
coedge $-1 $650 $480 $482 $654 reversed $332 $-1 #
coedge $-1 $480 $649 $648 $760 reversed $332 $-1 #
coedge $-1 $488 $483 $480 $652 forward $489 $-1 #
edge $-1 $655 31.938892837951126 $761 36.702811835731666 $651 $762 forward 7 unknown #
coedge $-1 $482 $481 $658 $763 reversed $210 $-1 #
edge $-1 $764 -122.61848811304057 $655 -116.30623348371418 $649 $765 forward 7 unknown #
vertex $-1 $484 $766 #
straight-curve $-1 56.545325058739742 10.186768371915196 9.3444322279681487 0 -1 0 I I #
coedge $-1 $648 $485 $488 $662 reversed $478 $-1 #
coedge $-1 $485 $648 $653 $763 forward $478 $-1 #
vertex $-1 $486 $767 #
straight-curve $-1 61.309244056520278 26.369384464277037 89.094767300846854 0 0 1 I I #
straight-curve $-1 -31.232102784422587 26.369384464277037 85.648187760750858 0.75470957328743171 0 -0.6560590369687036 I I #
edge $-1 $761 14.377689023383748 $490 26.369384464277037 $657 $768 forward 7 unknown #
point $-1 61.309244056520278 26.369384464277037 9.344432227968138 #
point $-1 56.545325058739742 26.369384464277037 9.3444322279681415 #
edge $-1 $769 1 $769 0 $493 $-1 forward 7 unknown #
vertex $-1 $494 $770 #
ellipse-curve $-1 56.998911071269774 16.776028111562411 5.0554864926901342 0.6560590369687036 0 0.75470957328743171 0.75470957328743171 0 -0.6560590369687036 1 I I #
point $-1 59.681994130917474 16.776028111562411 6.6177673443908969 #
edge $-1 $771 1 $771 0 $497 $-1 forward 7 unknown #
vertex $-1 $498 $772 #
ellipse-curve $-1 56.998911071269774 20.3735367438304 5.0554864926901342 0.6560590369687036 0 0.75470957328743171 0.75470957328743171 0 -0.6560590369687036 1 I I #
point $-1 59.681994130917474 20.3735367438304 6.6177673443908969 #
edge $-1 $773 1 $773 0 $501 $-1 forward 7 unknown #
vertex $-1 $502 $774 #
ellipse-curve $-1 56.998911071269774 23.971045376098388 5.0554864926901342 0.6560590369687036 0 0.75470957328743171 0.75470957328743171 0 -0.6560590369687036 1 I I #
point $-1 59.681994130917474 23.971045376098388 6.6177673443908969 #
plane-surface $-1 61.309244056520278 0 0 -1 0 0 0 0 1 forward_v I I I I #
coedge $-1 $510 $508 $512 $682 reversed $361 $-1 #
edge $-1 $523 -9.344432227968138 $684 9.344432227968138 $522 $775 forward 7 unknown #
vertex $-1 $682 $776 #
straight-curve $-1 -61.309244056520278 -33.923001419657872 0 0 0 -1 I I #
edge $-1 $680 -33.923001419657872 $684 33.923001419657872 $678 $777 forward 7 unknown #
straight-curve $-1 0 -33.923001419657872 -9.344432227968138 -1 0 0 I I #
vertex $-1 $515 $778 #
straight-curve $-1 0 33.923001419657872 -9.344432227968138 1 0 0 I I #
point $-1 61.309244056520278 33.923001419657872 -9.344432227968138 #
point $-1 61.309244056520278 -33.923001419657872 -9.344432227968138 #
straight-curve $-1 -61.309244056520278 0 9.344432227968138 0 -1 0 I I #
point $-1 -61.309244056520278 33.923001419657872 9.344432227968138 #
point $-1 -61.309244056520278 -33.923001419657872 9.344432227968138 #
straight-curve $-1 61.309244056520278 -33.923001419657872 0 0 0 -1 I I #
straight-curve $-1 61.309244056520278 33.923001419657872 0 0 0 -1 I I #
loop $-1 $-1 $538 $532 #
plane-surface $-1 0 -33.923001419657872 0 0 1 0 0 0 1 forward_v I I I I #
coedge $-1 $549 $540 $536 $697 forward $533 $-1 #
edge $-1 $701 -18.824290046714594 $544 -11.373132699171956 $535 $779 forward 7 unknown #
edge $-1 $545 11.373132699171956 $700 18.824290046714594 $695 $780 forward 7 unknown #
coedge $-1 $547 $538 $552 $710 reversed $693 $-1 #
coedge $-1 $538 $547 $549 $708 reversed $693 $-1 #
vertex $-1 $708 $781 #
vertex $-1 $539 $782 #
straight-curve $-1 -50.179685976826008 -33.923001419657872 0 0 0 1 I I #
straight-curve $-1 -25.839842988413004 -26.471844072115232 -9.344432227968138 1 0 0 I I #
straight-curve $-1 -25.839842988413004 -26.471844072115232 9.344432227968138 -1 0 0 I I #
point $-1 -50.179685976826008 -26.471844072115232 9.344432227968138 #
point $-1 -50.179685976826008 -26.471844072115232 -9.344432227968138 #
straight-curve $-1 -53.179685976826008 -33.923001419657872 0 0 0 -1 I I #
edge $-1 $700 50.179685976826008 $550 53.179685976826008 $699 $783 forward 7 unknown #
point $-1 -53.179685976826008 -33.923001419657872 -9.344432227968138 #
edge $-1 $553 -53.179685976826008 $701 -50.179685976826008 $698 $784 forward 7 unknown #
point $-1 -53.179685976826008 -33.923001419657872 9.344432227968138 #
coedge $-1 $713 $566 $568 $720 forward $557 $-1 #
coedge $-1 $562 $712 $559 $714 reversed $557 $-1 #
edge $-1 $564 14.850070976575463 $715 26.471844072115228 $713 $785 forward 7 unknown #
vertex $-1 $561 $786 #
straight-curve $-1 -69.237779951988216 -26.471844072115228 9.3444322279681415 1 0 0 I I #
straight-curve $-1 -61.309244056520278 -14.850070976575463 48.035218864203607 0 0 -1 I I #
point $-1 -61.309244056520278 -14.850070976575463 9.344432227968138 #
straight-curve $-1 -61.309244056520278 -10.330478762172673 0.77797566734749946 0 -1 0 I I #
edge $-1 $569 -47.257243196856109 $715 -38.690786636235472 $712 $787 forward 7 unknown #
point $-1 -61.309244056520278 -26.471844072115228 0.77797566734749646 #
point $-1 -61.309244056520278 -14.850070976575463 0.77797566734749646 #
vertex $-1 $575 $788 #
point $-1 -54.701162825104618 -24.147489453007275 4.2272098377897418 #
vertex $-1 $579 $789 #
point $-1 -54.701162825104618 -20.660957524345346 4.2272098377897418 #
vertex $-1 $583 $790 #
point $-1 -54.701162825104618 -17.174425595683417 4.2272098377897418 #
edge $-1 $730 38.690786636235472 $733 47.257243196856109 $588 $791 forward 7 unknown #
vertex $-1 $602 $792 #
straight-curve $-1 -69.237779951988216 15.347351769311089 9.3444322279681415 -1 0 0 I I #
edge $-1 $733 -10.579119158540486 $599 1.0426539369992804 $598 $793 forward 7 unknown #
vertex $-1 $732 $794 #
straight-curve $-1 -61.309244056520285 15.347351769311089 0.77797566734749068 0.77714595512881146 0 0.62932039886446345 I I #
point $-1 -50.730551425730788 15.347351769311089 9.344432227968138 #
point $-1 -61.309244056520278 3.7255786737713228 0.77797566734749646 #
straight-curve $-1 -61.309244056520278 0 9.344432227968138 0 -1 0 I I #
vertex $-1 $605 $795 #
point $-1 -54.701162825104618 6.0499332928792739 4.2272098377897418 #
vertex $-1 $609 $796 #
point $-1 -54.701162825104618 9.5364652215412065 4.2272098377897418 #
vertex $-1 $613 $797 #
point $-1 -54.701162825104618 13.022997150203132 4.2272098377897418 #
coedge $-1 $628 $627 $620 $745 forward $617 $-1 #
edge $-1 $746 79.750335072878713 $749 83.891546766095829 $744 $798 forward 7 unknown #
vertex $-1 $632 $799 #
straight-curve $-1 24.606432220788616 -18.9182271167344 9.3444322279681415 1 0 0 I I #
edge $-1 $749 -12.457037418590522 $629 -0.46534197769723384 $628 $800 forward 7 unknown #
vertex $-1 $748 $801 #
straight-curve $-1 -31.232102784422587 -18.9182271167344 85.648187760750858 -0.75470957328743171 0 0.6560590369687036 I I #
point $-1 56.545325058739742 -18.9182271167344 9.3444322279681415 #
point $-1 61.309244056520278 -6.9265316758411117 5.2032205347510256 #
straight-curve $-1 61.309244056520278 0 9.344432227968138 0 1 0 I I #
vertex $-1 $635 $802 #
point $-1 57.753620644557209 -16.519888028555741 4.3994274557214306 #
vertex $-1 $639 $803 #
point $-1 57.753620644557209 -12.922379396287752 4.3994274557214306 #
vertex $-1 $643 $804 #
point $-1 57.753620644557209 -9.3248707640197637 4.3994274557214306 #
edge $-1 $761 79.750335072878713 $764 83.891546766095829 $648 $805 forward 7 unknown #
vertex $-1 $662 $806 #
straight-curve $-1 24.606432220788616 14.377689023383748 9.3444322279681415 1 0 0 I I #
edge $-1 $764 4.1909206514685522 $659 16.18261609236184 $658 $807 forward 7 unknown #
vertex $-1 $763 $808 #
straight-curve $-1 -31.232102784422587 14.377689023383748 85.648187760750858 -0.75470957328743171 0 0.6560590369687036 I I #
point $-1 56.545325058739742 14.377689023383748 9.3444322279681415 #
point $-1 61.309244056520278 26.369384464277037 5.2032205347510256 #
straight-curve $-1 61.309244056520278 0 9.344432227968138 0 1 0 I I #
vertex $-1 $665 $809 #
point $-1 57.753620644557209 16.776028111562411 4.3994274557214306 #
vertex $-1 $669 $810 #
point $-1 57.753620644557209 20.3735367438304 4.3994274557214306 #
vertex $-1 $673 $811 #
point $-1 57.753620644557209 23.971045376098388 4.3994274557214306 #
straight-curve $-1 -61.309244056520278 33.923001419657872 0 0 0 -1 I I #
point $-1 -61.309244056520278 -33.923001419657872 -9.344432227968138 #
straight-curve $-1 -61.309244056520278 0 -9.344432227968138 0 1 0 I I #
point $-1 -61.309244056520278 33.923001419657872 -9.344432227968138 #
straight-curve $-1 -50.179685976826008 -15.098711372943276 9.344432227968138 0 1 0 I I #
straight-curve $-1 -50.179685976826008 -15.098711372943276 -9.344432227968138 0 -1 0 I I #
point $-1 -50.179685976826008 -33.923001419657872 -9.344432227968138 #
point $-1 -50.179685976826008 -33.923001419657872 9.344432227968138 #
straight-curve $-1 0 -33.923001419657872 -9.344432227968138 -1 0 0 I I #
straight-curve $-1 0 -33.923001419657872 9.344432227968138 1 0 0 I I #
straight-curve $-1 -61.309244056520278 0 9.344432227968138 0 -1 0 I I #
point $-1 -61.309244056520278 -26.471844072115228 9.344432227968138 #
straight-curve $-1 -61.309244056520278 -26.471844072115228 48.035218864203607 0 0 1 I I #
point $-1 -54.775075603236793 -24.147489453007275 3.5239766607931045 #
point $-1 -54.775075603236793 -20.660957524345346 3.5239766607931045 #
point $-1 -54.775075603236793 -17.174425595683417 3.5239766607931045 #
straight-curve $-1 -61.309244056520278 15.347351769311089 48.035218864203607 0 0 -1 I I #
point $-1 -61.309244056520278 15.347351769311089 9.344432227968138 #
straight-curve $-1 -61.309244056520278 4.7682326107706032 0.77797566734749946 0 -1 0 I I #
point $-1 -61.309244056520278 15.347351769311089 0.77797566734749646 #
point $-1 -54.775075603236793 6.0499332928792739 3.5239766607931045 #
point $-1 -54.775075603236793 9.5364652215412065 3.5239766607931045 #
point $-1 -54.775075603236793 13.022997150203132 3.5239766607931045 #
straight-curve $-1 61.309244056520278 -18.9182271167344 89.094767300846854 0 0 -1 I I #
point $-1 61.309244056520278 -18.9182271167344 9.344432227968138 #
straight-curve $-1 61.309244056520285 -6.4611896981438779 5.2032205347510256 0 1 0 I I #
point $-1 61.309244056520278 -18.9182271167344 5.2032205347510256 #
point $-1 56.342852034301075 -16.519888028555741 4.3007769194027023 #
point $-1 56.342852034301075 -12.922379396287752 4.3007769194027023 #
point $-1 56.342852034301075 -9.3248707640197637 4.3007769194027023 #
straight-curve $-1 61.309244056520278 14.377689023383748 89.094767300846854 0 0 -1 I I #
point $-1 61.309244056520278 14.377689023383748 9.344432227968138 #
straight-curve $-1 61.309244056520285 10.186768371915196 5.2032205347510256 0 1 0 I I #
point $-1 61.309244056520278 14.377689023383748 5.2032205347510256 #
point $-1 56.342852034301075 16.776028111562411 4.3007769194027023 #
point $-1 56.342852034301075 20.3735367438304 4.3007769194027023 #
point $-1 56.342852034301075 23.971045376098388 4.3007769194027023 #
End-of-ACIS-data 