500 0 11 0           
7 Unknown 11 ACIS 5.0 NT 24 Thu Mar 25 16:06:47 1999 
-1 9.9999999999999995e-007 1e-010 
body $-1 $11 $-1 $12 #
body $-1 $13 $-1 $14 #
body $-1 $15 $-1 $16 #
body $-1 $17 $-1 $18 #
body $-1 $19 $-1 $20 #
body $-1 $21 $-1 $22 #
body $-1 $23 $-1 $24 #
body $-1 $25 $-1 $26 #
body $-1 $27 $-1 $28 #
body $-1 $29 $-1 $30 #
body $-1 $31 $-1 $32 #
lump $-1 $-1 $33 $0 #
transform $-1 1 0 0 0 1 0 0 0 1 40.207525864436782 19.746929883072049 6.3781733790240587 1 rotate no_reflect no_shear #
lump $-1 $-1 $34 $1 #
transform $-1 1 0 0 0 1 0 0 0 1 7.2522160411002403 2.2834997466599223 6.3781733790240587 1 rotate no_reflect no_shear #
lump $-1 $-1 $35 $2 #
transform $-1 0.75470957328743171 0 0.6560590369687036 0 1 0 -0.6560590369687036 0 0.75470957328743171 -52.75702139503327 32.786924130493347 67.090967151606691 1 rotate no_reflect no_shear #
lump $-1 $-1 $36 $3 #
transform $-1 0.75470957328743171 0 0.6560590369687036 0 -1 0 0.6560590369687036 0 -0.75470957328743171 6.2248652611335924 30.914483475894357 6.6229578773654767 1 rotate no_reflect no_shear #
lump $-1 $-1 $37 $4 #
transform $-1 0.75470957328743171 0 0.6560590369687036 0 -1 0 0.6560590369687036 0 -0.75470957328743171 6.2248652611335924 34.659364785092336 6.6229578773654767 1 rotate no_reflect no_shear #
lump $-1 $-1 $38 $5 #
transform $-1 0.80901698891910034 0 -0.5877852598018023 0 1 0 0.5877852598018023 0 0.80901698891910034 62.624690787837906 12.818475637620892 120.46237350607527 1 rotate no_reflect no_shear #
lump $-1 $-1 $39 $6 #
transform $-1 0.80901698891910034 0 -0.5877852598018023 0 -1 0 -0.5877852598018023 0 -0.80901698891910034 76.239366344964623 11.044308988717441 9.0741957508162159 1 rotate no_reflect no_shear #
lump $-1 $-1 $40 $7 #
transform $-1 0.80901698891910034 0 -0.5877852598018023 0 -1 0 -0.5877852598018023 0 -0.80901698891910034 76.239366344964623 14.592642286524342 9.0741957508162159 1 rotate no_reflect no_shear #
lump $-1 $-1 $41 $8 #
transform $-1 0.80901698891910034 0 -0.5877852598018023 0 1 0 0.5877852598018023 0 0.80901698891910034 62.624690787837906 31.242383621843057 120.46237350607527 1 rotate no_reflect no_shear #
lump $-1 $-1 $42 $9 #
transform $-1 0.80901698891910034 0 -0.5877852598018023 0 -1 0 -0.5877852598018023 0 -0.80901698891910034 76.239366344964623 29.468216972939608 9.0741957508162159 1 rotate no_reflect no_shear #
lump $-1 $-1 $43 $10 #
transform $-1 0.80901698891910034 0 -0.5877852598018023 0 -1 0 -0.5877852598018023 0 -0.80901698891910034 76.239366344964623 33.016550270746507 9.0741957508162159 1 rotate no_reflect no_shear #
shell $-1 $-1 $-1 $44 $-1 $11 #
shell $-1 $-1 $-1 $45 $-1 $13 #
shell $-1 $-1 $-1 $46 $-1 $15 #
shell $-1 $-1 $-1 $47 $-1 $17 #
shell $-1 $-1 $-1 $48 $-1 $19 #
shell $-1 $-1 $-1 $49 $-1 $21 #
shell $-1 $-1 $-1 $50 $-1 $23 #
shell $-1 $-1 $-1 $51 $-1 $25 #
shell $-1 $-1 $-1 $52 $-1 $27 #
shell $-1 $-1 $-1 $53 $-1 $29 #
shell $-1 $-1 $-1 $54 $-1 $31 #
face $-1 $55 $56 $33 $-1 $57 forward single #
face $-1 $58 $59 $34 $-1 $60 forward single #
face $-1 $61 $62 $35 $-1 $63 forward single #
face $-1 $64 $65 $36 $-1 $66 forward single #
face $-1 $67 $68 $37 $-1 $69 forward single #
face $-1 $70 $71 $38 $-1 $72 forward single #
face $-1 $73 $74 $39 $-1 $75 forward single #
face $-1 $76 $77 $40 $-1 $78 forward single #
face $-1 $79 $80 $41 $-1 $81 forward single #
face $-1 $82 $83 $42 $-1 $84 forward single #
face $-1 $85 $86 $43 $-1 $87 forward single #
face $-1 $88 $89 $33 $-1 $90 reversed single #
loop $-1 $-1 $91 $44 #
plane-surface $-1 0 0 6.3781733790240587 0 0 1 1 0 0 forward_v I I I I #
face $-1 $92 $93 $34 $-1 $94 reversed single #
loop $-1 $-1 $95 $45 #
plane-surface $-1 0 0 6.3781733790240587 0 0 1 1 0 0 forward_v I I I I #
face $-1 $96 $97 $35 $-1 $98 reversed single #
loop $-1 $-1 $99 $46 #
plane-surface $-1 0 0 80.415051728873564 0 0 1 1 0 0 forward_v I I I I #
face $-1 $100 $101 $36 $-1 $102 forward single #
loop $-1 $103 $104 $47 #
cone-surface $-1 0 0 -2.2081667531357763 0 0 1 1 0 0 1 I I 0 1 1 forward I I I I #
face $-1 $105 $106 $37 $-1 $107 forward single #
loop $-1 $108 $109 $48 #
cone-surface $-1 0 0 -2.2081667531357763 0 0 1 1 0 0 1 I I 0 1 1 forward I I I I #
face $-1 $110 $111 $38 $-1 $112 reversed single #
loop $-1 $-1 $113 $49 #
plane-surface $-1 0 0 80.415051728873564 0 0 1 1 0 0 forward_v I I I I #
face $-1 $114 $115 $39 $-1 $116 forward single #
loop $-1 $117 $118 $50 #
cone-surface $-1 0 0 -0.97368541520432128 0 0 1 0.5 0 0 1 I I 0 1 0.5 forward I I I I #
face $-1 $119 $120 $40 $-1 $121 forward single #
loop $-1 $122 $123 $51 #
cone-surface $-1 0 0 -0.97368541520432128 0 0 1 0.5 0 0 1 I I 0 1 0.5 forward I I I I #
face $-1 $124 $125 $41 $-1 $126 reversed single #
loop $-1 $-1 $127 $52 #
plane-surface $-1 0 0 80.415051728873564 0 0 1 1 0 0 forward_v I I I I #
face $-1 $128 $129 $42 $-1 $130 forward single #
loop $-1 $131 $132 $53 #
cone-surface $-1 0 0 -0.97368541520432128 0 0 1 0.5 0 0 1 I I 0 1 0.5 forward I I I I #
face $-1 $133 $134 $43 $-1 $135 forward single #
loop $-1 $136 $137 $54 #
cone-surface $-1 0 0 -0.97368541520432128 0 0 1 0.5 0 0 1 I I 0 1 0.5 forward I I I I #
face $-1 $138 $139 $33 $-1 $140 reversed single #
loop $-1 $-1 $141 $55 #
plane-surface $-1 0 0 -6.3781733790240587 0 0 1 1 0 0 forward_v I I I I #
coedge $-1 $142 $143 $144 $145 forward $56 $-1 #
face $-1 $146 $147 $34 $-1 $148 reversed single #
loop $-1 $-1 $149 $58 #
plane-surface $-1 0 0 -6.3781733790240587 0 0 1 1 0 0 forward_v I I I I #
coedge $-1 $150 $151 $152 $153 forward $59 $-1 #
face $-1 $154 $155 $35 $-1 $156 reversed single #
loop $-1 $-1 $157 $61 #
plane-surface $-1 0 0 -80.415051728873564 0 0 1 1 0 0 forward_v I I I I #
coedge $-1 $158 $159 $160 $161 forward $62 $-1 #
face $-1 $-1 $162 $36 $-1 $163 forward single #
loop $-1 $-1 $164 $64 #
plane-surface $-1 0 0 -3.916333506271553 0 0 -1 -1 0 0 forward_v I I I I #
loop $-1 $-1 $165 $47 #
coedge $-1 $104 $104 $164 $166 reversed $65 $-1 #
face $-1 $-1 $167 $37 $-1 $168 forward single #
loop $-1 $-1 $169 $67 #
plane-surface $-1 0 0 -3.916333506271553 0 0 -1 -1 0 0 forward_v I I I I #
loop $-1 $-1 $170 $48 #
coedge $-1 $109 $109 $169 $171 reversed $68 $-1 #
face $-1 $172 $173 $38 $-1 $174 reversed single #
loop $-1 $-1 $175 $70 #
plane-surface $-1 0 0 -80.415051728873564 0 0 1 1 0 0 forward_v I I I I #
coedge $-1 $176 $177 $178 $179 forward $71 $-1 #
face $-1 $-1 $180 $39 $-1 $181 forward single #
loop $-1 $-1 $182 $73 #
plane-surface $-1 0 0 -1.6973708304086426 0 0 -1 -1 0 0 forward_v I I I I #
loop $-1 $-1 $183 $50 #
coedge $-1 $118 $118 $182 $184 reversed $74 $-1 #
face $-1 $-1 $185 $40 $-1 $186 forward single #
loop $-1 $-1 $187 $76 #
plane-surface $-1 0 0 -1.6973708304086426 0 0 -1 -1 0 0 forward_v I I I I #
loop $-1 $-1 $188 $51 #
coedge $-1 $123 $123 $187 $189 reversed $77 $-1 #
face $-1 $190 $191 $41 $-1 $192 reversed single #
loop $-1 $-1 $193 $79 #
plane-surface $-1 0 0 -80.415051728873564 0 0 1 1 0 0 forward_v I I I I #
coedge $-1 $194 $195 $196 $197 forward $80 $-1 #
face $-1 $-1 $198 $42 $-1 $199 forward single #
loop $-1 $-1 $200 $82 #
plane-surface $-1 0 0 -1.6973708304086426 0 0 -1 -1 0 0 forward_v I I I I #
loop $-1 $-1 $201 $53 #
coedge $-1 $132 $132 $200 $202 reversed $83 $-1 #
face $-1 $-1 $203 $43 $-1 $204 forward single #
loop $-1 $-1 $205 $85 #
plane-surface $-1 0 0 -1.6973708304086426 0 0 -1 -1 0 0 forward_v I I I I #
loop $-1 $-1 $206 $54 #
coedge $-1 $137 $137 $205 $207 reversed $86 $-1 #
face $-1 $208 $209 $33 $-1 $210 reversed single #
loop $-1 $-1 $211 $88 #
plane-surface $-1 0 -19.746929883072049 0 0 1 0 0 0 1 forward_v I I I I #
coedge $-1 $212 $213 $214 $215 forward $89 $-1 #
coedge $-1 $216 $91 $217 $218 forward $56 $-1 #
coedge $-1 $91 $216 $219 $220 forward $56 $-1 #
coedge $-1 $221 $222 $91 $145 reversed $223 $-1 #
edge $-1 $224 -19.746929883072049 $225 19.746929883072049 $144 $226 forward 7 unknown #
face $-1 $227 $228 $34 $-1 $229 reversed single #
loop $-1 $-1 $230 $92 #
plane-surface $-1 0 -2.2834997466599223 0 0 1 0 0 0 1 forward_v I I I I #
coedge $-1 $231 $232 $233 $234 forward $93 $-1 #
coedge $-1 $235 $95 $236 $237 forward $59 $-1 #
coedge $-1 $95 $235 $238 $239 forward $59 $-1 #
coedge $-1 $240 $241 $95 $153 reversed $242 $-1 #
edge $-1 $243 -2.2834997466599223 $244 2.2834997466599223 $152 $245 forward 7 unknown #
face $-1 $246 $247 $35 $-1 $248 reversed single #
loop $-1 $-1 $249 $96 #
plane-surface $-1 0 -4.3690281940643061 0 0 1 0 0 0 1 forward_v I I I I #
coedge $-1 $250 $251 $252 $253 forward $97 $-1 #
coedge $-1 $254 $99 $255 $256 forward $62 $-1 #
coedge $-1 $99 $254 $257 $258 forward $62 $-1 #
coedge $-1 $259 $260 $99 $161 reversed $261 $-1 #
edge $-1 $262 -4.3690281940643061 $263 4.3690281940643061 $160 $264 forward 7 unknown #
loop $-1 $265 $266 $100 #
cone-surface $-1 0 0 0 0 0 1 0.5 0 0 1 I I -0.70710678118654746 0.70710678118654746 0.5 forward I I I I #
coedge $-1 $164 $164 $104 $166 forward $101 $-1 #
coedge $-1 $165 $165 $266 $267 forward $103 $-1 #
edge $-1 $268 0 $268 6.2831853071796004 $164 $269 forward 7 unknown #
loop $-1 $270 $271 $105 #
cone-surface $-1 0 0 0 0 0 1 0.5 0 0 1 I I -0.70710678118654746 0.70710678118654746 0.5 forward I I I I #
coedge $-1 $169 $169 $109 $171 forward $106 $-1 #
coedge $-1 $170 $170 $271 $272 forward $108 $-1 #
edge $-1 $273 0 $273 6.2831853071796004 $169 $274 forward 7 unknown #
face $-1 $275 $276 $38 $-1 $277 reversed single #
loop $-1 $-1 $278 $110 #
plane-surface $-1 0 -4.139722180774716 0 0 1 0 0 0 1 forward_v I I I I #
coedge $-1 $279 $280 $281 $282 forward $111 $-1 #
coedge $-1 $283 $113 $284 $285 forward $71 $-1 #
coedge $-1 $113 $283 $286 $287 forward $71 $-1 #
coedge $-1 $288 $289 $113 $179 reversed $290 $-1 #
edge $-1 $291 -4.139722180774716 $292 4.139722180774716 $178 $293 forward 7 unknown #
loop $-1 $294 $295 $114 #
cone-surface $-1 0 0 0 0 0 1 0.25 0 0 1 I I -0.70710678118654746 0.70710678118654746 0.25 forward I I I I #
coedge $-1 $182 $182 $118 $184 forward $115 $-1 #
coedge $-1 $183 $183 $295 $296 forward $117 $-1 #
edge $-1 $297 0 $297 6.2831853071796004 $182 $298 forward 7 unknown #
loop $-1 $299 $300 $119 #
cone-surface $-1 0 0 0 0 0 1 0.25 0 0 1 I I -0.70710678118654746 0.70710678118654746 0.25 forward I I I I #
coedge $-1 $187 $187 $123 $189 forward $120 $-1 #
coedge $-1 $188 $188 $300 $301 forward $122 $-1 #
edge $-1 $302 0 $302 6.2831853071796004 $187 $303 forward 7 unknown #
face $-1 $304 $305 $41 $-1 $306 reversed single #
loop $-1 $-1 $307 $124 #
plane-surface $-1 0 -4.139722180774716 0 0 1 0 0 0 1 forward_v I I I I #
coedge $-1 $308 $309 $310 $311 forward $125 $-1 #
coedge $-1 $312 $127 $313 $314 forward $80 $-1 #
coedge $-1 $127 $312 $315 $316 forward $80 $-1 #
coedge $-1 $317 $318 $127 $197 reversed $319 $-1 #
edge $-1 $320 -4.139722180774716 $321 4.139722180774716 $196 $322 forward 7 unknown #
loop $-1 $323 $324 $128 #
cone-surface $-1 0 0 0 0 0 1 0.25 0 0 1 I I -0.70710678118654746 0.70710678118654746 0.25 forward I I I I #
coedge $-1 $200 $200 $132 $202 forward $129 $-1 #
coedge $-1 $201 $201 $324 $325 forward $131 $-1 #
edge $-1 $326 0 $326 6.2831853071796004 $200 $327 forward 7 unknown #
loop $-1 $328 $329 $133 #
cone-surface $-1 0 0 0 0 0 1 0.25 0 0 1 I I -0.70710678118654746 0.70710678118654746 0.25 forward I I I I #
coedge $-1 $205 $205 $137 $207 forward $134 $-1 #
coedge $-1 $206 $206 $329 $330 forward $136 $-1 #
edge $-1 $331 0 $331 6.2831853071796004 $205 $332 forward 7 unknown #
face $-1 $333 $334 $33 $-1 $335 reversed single #
loop $-1 $-1 $336 $138 #
plane-surface $-1 -40.207525864436782 0 0 1 0 0 0 0 -1 forward_v I I I I #
coedge $-1 $337 $219 $338 $339 forward $139 $-1 #
coedge $-1 $340 $141 $337 $341 forward $89 $-1 #
coedge $-1 $141 $340 $342 $343 forward $89 $-1 #
coedge $-1 $222 $221 $141 $215 reversed $223 $-1 #
edge $-1 $344 -19.746929883072049 $345 19.746929883072049 $214 $346 forward 7 unknown #
coedge $-1 $143 $142 $347 $348 forward $56 $-1 #
coedge $-1 $349 $350 $142 $218 reversed $334 $-1 #
edge $-1 $225 -40.207525864436782 $351 40.207525864436782 $217 $352 forward 7 unknown #
coedge $-1 $211 $353 $143 $220 reversed $139 $-1 #
edge $-1 $354 -40.207525864436782 $224 40.207525864436782 $219 $355 forward 7 unknown #
coedge $-1 $214 $144 $353 $356 forward $223 $-1 #
coedge $-1 $144 $214 $349 $357 reversed $223 $-1 #
loop $-1 $-1 $221 $333 #
vertex $-1 $145 $358 #
vertex $-1 $145 $359 #
straight-curve $-1 40.207525864436782 0 6.3781733790240587 0 1 0 I I #
face $-1 $360 $361 $34 $-1 $362 reversed single #
loop $-1 $-1 $363 $146 #
plane-surface $-1 -1.5 0 0 1 0 0 0 0 -1 forward_v I I I I #
coedge $-1 $364 $238 $365 $366 forward $147 $-1 #
coedge $-1 $367 $149 $364 $368 forward $93 $-1 #
coedge $-1 $149 $367 $369 $370 forward $93 $-1 #
coedge $-1 $241 $240 $149 $234 reversed $242 $-1 #
edge $-1 $371 -2.2834997466599223 $372 2.2834997466599223 $233 $373 forward 7 unknown #
coedge $-1 $151 $150 $374 $375 forward $59 $-1 #
coedge $-1 $376 $377 $150 $237 reversed $361 $-1 #
edge $-1 $244 -1.5 $378 1.5 $236 $379 forward 7 unknown #
coedge $-1 $230 $380 $151 $239 reversed $147 $-1 #
edge $-1 $381 -1.5 $243 1.5 $238 $382 forward 7 unknown #
coedge $-1 $233 $152 $380 $383 forward $242 $-1 #
coedge $-1 $152 $233 $376 $384 reversed $242 $-1 #
loop $-1 $-1 $240 $360 #
vertex $-1 $153 $385 #
vertex $-1 $153 $386 #
straight-curve $-1 1.5 0 6.3781733790240587 0 1 0 I I #
face $-1 $387 $388 $35 $-1 $389 reversed single #
loop $-1 $-1 $390 $154 #
plane-surface $-1 -160.83010345774713 0 0 1 0 0 0 0 -1 forward_v I I I I #
coedge $-1 $391 $257 $392 $393 forward $155 $-1 #
coedge $-1 $394 $157 $391 $395 forward $97 $-1 #
coedge $-1 $157 $394 $396 $397 forward $97 $-1 #
coedge $-1 $260 $259 $157 $253 reversed $261 $-1 #
edge $-1 $398 -4.3690281940643061 $399 4.3690281940643061 $252 $400 forward 7 unknown #
coedge $-1 $159 $158 $401 $402 forward $62 $-1 #
coedge $-1 $403 $404 $158 $256 reversed $388 $-1 #
edge $-1 $263 -160.83010345774713 $405 160.83010345774713 $255 $406 forward 7 unknown #
coedge $-1 $249 $407 $159 $258 reversed $155 $-1 #
edge $-1 $408 -160.83010345774713 $262 160.83010345774713 $257 $409 forward 7 unknown #
coedge $-1 $252 $160 $407 $410 forward $261 $-1 #
coedge $-1 $160 $252 $403 $411 reversed $261 $-1 #
loop $-1 $-1 $259 $387 #
vertex $-1 $161 $412 #
vertex $-1 $161 $413 #
straight-curve $-1 160.83010345774713 0 80.415051728873564 0 1 0 I I #
loop $-1 $-1 $414 $100 #
coedge $-1 $266 $266 $165 $267 reversed $162 $-1 #
edge $-1 $415 0 $415 6.2831853071796004 $266 $416 forward 7 unknown #
vertex $-1 $166 $417 #
ellipse-curve $-1 0 0 -3.916333506271553 0 0 -1 1 0 0 1 I I #
loop $-1 $-1 $418 $105 #
coedge $-1 $271 $271 $170 $272 reversed $167 $-1 #
edge $-1 $419 0 $419 6.2831853071796004 $271 $420 forward 7 unknown #
vertex $-1 $171 $421 #
ellipse-curve $-1 0 0 -3.916333506271553 0 0 -1 1 0 0 1 I I #
face $-1 $422 $423 $38 $-1 $424 reversed single #
loop $-1 $-1 $425 $172 #
plane-surface $-1 -160.83010345774713 0 0 1 0 0 0 0 -1 forward_v I I I I #
coedge $-1 $426 $286 $427 $428 forward $173 $-1 #
coedge $-1 $429 $175 $426 $430 forward $111 $-1 #
coedge $-1 $175 $429 $431 $432 forward $111 $-1 #
coedge $-1 $289 $288 $175 $282 reversed $290 $-1 #
edge $-1 $433 -4.139722180774716 $434 4.139722180774716 $281 $435 forward 7 unknown #
coedge $-1 $177 $176 $436 $437 forward $71 $-1 #
coedge $-1 $438 $439 $176 $285 reversed $423 $-1 #
edge $-1 $292 -160.83010345774713 $440 160.83010345774713 $284 $441 forward 7 unknown #
coedge $-1 $278 $442 $177 $287 reversed $173 $-1 #
edge $-1 $443 -160.83010345774713 $291 160.83010345774713 $286 $444 forward 7 unknown #
coedge $-1 $281 $178 $442 $445 forward $290 $-1 #
coedge $-1 $178 $281 $438 $446 reversed $290 $-1 #
loop $-1 $-1 $288 $422 #
vertex $-1 $179 $447 #
vertex $-1 $179 $448 #
straight-curve $-1 160.83010345774713 0 80.415051728873564 0 1 0 I I #
loop $-1 $-1 $449 $114 #
coedge $-1 $295 $295 $183 $296 reversed $180 $-1 #
edge $-1 $450 0 $450 6.2831853071796004 $295 $451 forward 7 unknown #
vertex $-1 $184 $452 #
ellipse-curve $-1 0 0 -1.6973708304086426 0 0 -1 0.5 0 0 1 I I #
loop $-1 $-1 $453 $119 #
coedge $-1 $300 $300 $188 $301 reversed $185 $-1 #
edge $-1 $454 0 $454 6.2831853071796004 $300 $455 forward 7 unknown #
vertex $-1 $189 $456 #
ellipse-curve $-1 0 0 -1.6973708304086426 0 0 -1 0.5 0 0 1 I I #
face $-1 $457 $458 $41 $-1 $459 reversed single #
loop $-1 $-1 $460 $190 #
plane-surface $-1 -160.83010345774713 0 0 1 0 0 0 0 -1 forward_v I I I I #
coedge $-1 $461 $315 $462 $463 forward $191 $-1 #
coedge $-1 $464 $193 $461 $465 forward $125 $-1 #
coedge $-1 $193 $464 $466 $467 forward $125 $-1 #
coedge $-1 $318 $317 $193 $311 reversed $319 $-1 #
edge $-1 $468 -4.139722180774716 $469 4.139722180774716 $310 $470 forward 7 unknown #
coedge $-1 $195 $194 $471 $472 forward $80 $-1 #
coedge $-1 $473 $474 $194 $314 reversed $458 $-1 #
edge $-1 $321 -160.83010345774713 $475 160.83010345774713 $313 $476 forward 7 unknown #
coedge $-1 $307 $477 $195 $316 reversed $191 $-1 #
edge $-1 $478 -160.83010345774713 $320 160.83010345774713 $315 $479 forward 7 unknown #
coedge $-1 $310 $196 $477 $480 forward $319 $-1 #
coedge $-1 $196 $310 $473 $481 reversed $319 $-1 #
loop $-1 $-1 $317 $457 #
vertex $-1 $197 $482 #
vertex $-1 $197 $483 #
straight-curve $-1 160.83010345774713 0 80.415051728873564 0 1 0 I I #
loop $-1 $-1 $484 $128 #
coedge $-1 $324 $324 $201 $325 reversed $198 $-1 #
edge $-1 $485 0 $485 6.2831853071796004 $324 $486 forward 7 unknown #
vertex $-1 $202 $487 #
ellipse-curve $-1 0 0 -1.6973708304086426 0 0 -1 0.5 0 0 1 I I #
loop $-1 $-1 $488 $133 #
coedge $-1 $329 $329 $206 $330 reversed $203 $-1 #
edge $-1 $489 0 $489 6.2831853071796004 $329 $490 forward 7 unknown #
vertex $-1 $207 $491 #
ellipse-curve $-1 0 0 -1.6973708304086426 0 0 -1 0.5 0 0 1 I I #
face $-1 $-1 $223 $33 $-1 $492 reversed single #
loop $-1 $-1 $349 $208 #
plane-surface $-1 0 19.746929883072049 0 0 -1 0 0 0 -1 forward_v I I I I #
coedge $-1 $493 $347 $350 $494 forward $209 $-1 #
coedge $-1 $353 $211 $212 $341 reversed $139 $-1 #
coedge $-1 $347 $493 $211 $339 reversed $209 $-1 #
edge $-1 $354 -6.3781733790240587 $495 6.3781733790240587 $338 $496 forward 7 unknown #
coedge $-1 $213 $212 $493 $497 forward $89 $-1 #
edge $-1 $345 -40.207525864436782 $495 40.207525864436782 $337 $498 forward 7 unknown #
coedge $-1 $350 $349 $213 $343 reversed $334 $-1 #
edge $-1 $499 -40.207525864436782 $344 40.207525864436782 $342 $500 forward 7 unknown #
vertex $-1 $215 $501 #
vertex $-1 $356 $502 #
straight-curve $-1 40.207525864436782 0 -6.3781733790240587 0 -1 0 I I #
coedge $-1 $336 $338 $216 $348 reversed $209 $-1 #
edge $-1 $351 -19.746929883072049 $354 19.746929883072049 $347 $503 forward 7 unknown #
coedge $-1 $342 $217 $222 $357 forward $334 $-1 #
coedge $-1 $217 $342 $336 $494 reversed $334 $-1 #
vertex $-1 $218 $504 #
straight-curve $-1 0 19.746929883072049 6.3781733790240587 -1 0 0 I I #
coedge $-1 $219 $337 $221 $356 reversed $139 $-1 #
vertex $-1 $348 $505 #
straight-curve $-1 0 -19.746929883072049 6.3781733790240587 1 0 0 I I #
edge $-1 $224 -6.3781733790240587 $345 6.3781733790240587 $221 $506 forward 7 unknown #
edge $-1 $225 -6.3781733790240587 $344 6.3781733790240587 $222 $507 forward 7 unknown #
point $-1 40.207525864436782 -19.746929883072049 6.3781733790240587 #
point $-1 40.207525864436782 19.746929883072049 6.3781733790240587 #
face $-1 $-1 $242 $34 $-1 $508 reversed single #
loop $-1 $-1 $376 $227 #
plane-surface $-1 0 2.2834997466599223 0 0 -1 0 0 0 -1 forward_v I I I I #
coedge $-1 $509 $374 $377 $510 forward $228 $-1 #
coedge $-1 $380 $230 $231 $368 reversed $147 $-1 #
coedge $-1 $374 $509 $230 $366 reversed $228 $-1 #
edge $-1 $381 -6.3781733790240587 $511 6.3781733790240587 $365 $512 forward 7 unknown #
coedge $-1 $232 $231 $509 $513 forward $93 $-1 #
edge $-1 $372 -1.5 $511 1.5 $364 $514 forward 7 unknown #
coedge $-1 $377 $376 $232 $370 reversed $361 $-1 #
edge $-1 $515 -1.5 $371 1.5 $369 $516 forward 7 unknown #
vertex $-1 $234 $517 #
vertex $-1 $383 $518 #
straight-curve $-1 1.5 0 -6.3781733790240587 0 -1 0 I I #
coedge $-1 $363 $365 $235 $375 reversed $228 $-1 #
edge $-1 $378 -2.2834997466599223 $381 2.2834997466599223 $374 $519 forward 7 unknown #
coedge $-1 $369 $236 $241 $384 forward $361 $-1 #
coedge $-1 $236 $369 $363 $510 reversed $361 $-1 #
vertex $-1 $237 $520 #
straight-curve $-1 0 2.2834997466599223 6.3781733790240587 -1 0 0 I I #
coedge $-1 $238 $364 $240 $383 reversed $147 $-1 #
vertex $-1 $375 $521 #
straight-curve $-1 0 -2.2834997466599223 6.3781733790240587 1 0 0 I I #
edge $-1 $243 -6.3781733790240587 $372 6.3781733790240587 $240 $522 forward 7 unknown #
edge $-1 $244 -6.3781733790240587 $371 6.3781733790240587 $241 $523 forward 7 unknown #
point $-1 1.5 -2.2834997466599223 6.3781733790240587 #
point $-1 1.5 2.2834997466599223 6.3781733790240587 #
face $-1 $-1 $261 $35 $-1 $524 reversed single #
loop $-1 $-1 $403 $246 #
plane-surface $-1 0 4.3690281940643061 0 0 -1 0 0 0 -1 forward_v I I I I #
coedge $-1 $525 $401 $404 $526 forward $247 $-1 #
coedge $-1 $407 $249 $250 $395 reversed $155 $-1 #
coedge $-1 $401 $525 $249 $393 reversed $247 $-1 #
edge $-1 $408 -80.415051728873564 $527 80.415051728873564 $392 $528 forward 7 unknown #
coedge $-1 $251 $250 $525 $529 forward $97 $-1 #
edge $-1 $399 -160.83010345774713 $527 160.83010345774713 $391 $530 forward 7 unknown #
coedge $-1 $404 $403 $251 $397 reversed $388 $-1 #
edge $-1 $531 -160.83010345774713 $398 160.83010345774713 $396 $532 forward 7 unknown #
vertex $-1 $253 $533 #
vertex $-1 $410 $534 #
straight-curve $-1 160.83010345774713 0 -80.415051728873564 0 -1 0 I I #
coedge $-1 $390 $392 $254 $402 reversed $247 $-1 #
edge $-1 $405 -4.3690281940643061 $408 4.3690281940643061 $401 $535 forward 7 unknown #
coedge $-1 $396 $255 $260 $411 forward $388 $-1 #
coedge $-1 $255 $396 $390 $526 reversed $388 $-1 #
vertex $-1 $256 $536 #
straight-curve $-1 0 4.3690281940643061 80.415051728873564 -1 0 0 I I #
coedge $-1 $257 $391 $259 $410 reversed $155 $-1 #
vertex $-1 $402 $537 #
straight-curve $-1 0 -4.3690281940643061 80.415051728873564 1 0 0 I I #
edge $-1 $262 -80.415051728873564 $399 80.415051728873564 $259 $538 forward 7 unknown #
edge $-1 $263 -80.415051728873564 $398 80.415051728873564 $260 $539 forward 7 unknown #
point $-1 160.83010345774713 -4.3690281940643061 80.415051728873564 #
point $-1 160.83010345774713 4.3690281940643061 80.415051728873564 #
coedge $-1 $414 $414 $-1 $540 reversed $265 $-1 #
vertex $-1 $267 $541 #
ellipse-curve $-1 0 0 -0.5 0 0 -1 1 0 0 1 I I #
point $-1 1 0 -3.916333506271553 #
coedge $-1 $418 $418 $-1 $542 reversed $270 $-1 #
vertex $-1 $272 $543 #
ellipse-curve $-1 0 0 -0.5 0 0 -1 1 0 0 1 I I #
point $-1 1 0 -3.916333506271553 #
face $-1 $-1 $290 $38 $-1 $544 reversed single #
loop $-1 $-1 $438 $275 #
plane-surface $-1 0 4.139722180774716 0 0 -1 0 0 0 -1 forward_v I I I I #
coedge $-1 $545 $436 $439 $546 forward $276 $-1 #
coedge $-1 $442 $278 $279 $430 reversed $173 $-1 #
coedge $-1 $436 $545 $278 $428 reversed $276 $-1 #
edge $-1 $443 -80.415051728873564 $547 80.415051728873564 $427 $548 forward 7 unknown #
coedge $-1 $280 $279 $545 $549 forward $111 $-1 #
edge $-1 $434 -160.83010345774713 $547 160.83010345774713 $426 $550 forward 7 unknown #
coedge $-1 $439 $438 $280 $432 reversed $423 $-1 #
edge $-1 $551 -160.83010345774713 $433 160.83010345774713 $431 $552 forward 7 unknown #
vertex $-1 $282 $553 #
vertex $-1 $445 $554 #
straight-curve $-1 160.83010345774713 0 -80.415051728873564 0 -1 0 I I #
coedge $-1 $425 $427 $283 $437 reversed $276 $-1 #
edge $-1 $440 -4.139722180774716 $443 4.139722180774716 $436 $555 forward 7 unknown #
coedge $-1 $431 $284 $289 $446 forward $423 $-1 #
coedge $-1 $284 $431 $425 $546 reversed $423 $-1 #
vertex $-1 $285 $556 #
straight-curve $-1 0 4.139722180774716 80.415051728873564 -1 0 0 I I #
coedge $-1 $286 $426 $288 $445 reversed $173 $-1 #
vertex $-1 $437 $557 #
straight-curve $-1 0 -4.139722180774716 80.415051728873564 1 0 0 I I #
edge $-1 $291 -80.415051728873564 $434 80.415051728873564 $288 $558 forward 7 unknown #
edge $-1 $292 -80.415051728873564 $433 80.415051728873564 $289 $559 forward 7 unknown #
point $-1 160.83010345774713 -4.139722180774716 80.415051728873564 #
point $-1 160.83010345774713 4.139722180774716 80.415051728873564 #
coedge $-1 $449 $449 $-1 $560 reversed $294 $-1 #
vertex $-1 $296 $561 #
ellipse-curve $-1 0 0 -0.25 0 0 -1 0.5 0 0 1 I I #
point $-1 0.5 0 -1.6973708304086426 #
coedge $-1 $453 $453 $-1 $562 reversed $299 $-1 #
vertex $-1 $301 $563 #
ellipse-curve $-1 0 0 -0.25 0 0 -1 0.5 0 0 1 I I #
point $-1 0.5 0 -1.6973708304086426 #
face $-1 $-1 $319 $41 $-1 $564 reversed single #
loop $-1 $-1 $473 $304 #
plane-surface $-1 0 4.139722180774716 0 0 -1 0 0 0 -1 forward_v I I I I #
coedge $-1 $565 $471 $474 $566 forward $305 $-1 #
coedge $-1 $477 $307 $308 $465 reversed $191 $-1 #
coedge $-1 $471 $565 $307 $463 reversed $305 $-1 #
edge $-1 $478 -80.415051728873564 $567 80.415051728873564 $462 $568 forward 7 unknown #
coedge $-1 $309 $308 $565 $569 forward $125 $-1 #
edge $-1 $469 -160.83010345774713 $567 160.83010345774713 $461 $570 forward 7 unknown #
coedge $-1 $474 $473 $309 $467 reversed $458 $-1 #
edge $-1 $571 -160.83010345774713 $468 160.83010345774713 $466 $572 forward 7 unknown #
vertex $-1 $311 $573 #
vertex $-1 $480 $574 #
straight-curve $-1 160.83010345774713 0 -80.415051728873564 0 -1 0 I I #
coedge $-1 $460 $462 $312 $472 reversed $305 $-1 #
edge $-1 $475 -4.139722180774716 $478 4.139722180774716 $471 $575 forward 7 unknown #
coedge $-1 $466 $313 $318 $481 forward $458 $-1 #
coedge $-1 $313 $466 $460 $566 reversed $458 $-1 #
vertex $-1 $314 $576 #
straight-curve $-1 0 4.139722180774716 80.415051728873564 -1 0 0 I I #
coedge $-1 $315 $461 $317 $480 reversed $191 $-1 #
vertex $-1 $472 $577 #
straight-curve $-1 0 -4.139722180774716 80.415051728873564 1 0 0 I I #
edge $-1 $320 -80.415051728873564 $469 80.415051728873564 $317 $578 forward 7 unknown #
edge $-1 $321 -80.415051728873564 $468 80.415051728873564 $318 $579 forward 7 unknown #
point $-1 160.83010345774713 -4.139722180774716 80.415051728873564 #
point $-1 160.83010345774713 4.139722180774716 80.415051728873564 #
coedge $-1 $484 $484 $-1 $580 reversed $323 $-1 #
vertex $-1 $325 $581 #
ellipse-curve $-1 0 0 -0.25 0 0 -1 0.5 0 0 1 I I #
point $-1 0.5 0 -1.6973708304086426 #
coedge $-1 $488 $488 $-1 $582 reversed $328 $-1 #
vertex $-1 $330 $583 #
ellipse-curve $-1 0 0 -0.25 0 0 -1 0.5 0 0 1 I I #
point $-1 0.5 0 -1.6973708304086426 #
plane-surface $-1 40.207525864436782 0 0 -1 0 0 0 0 1 forward_v I I I I #
coedge $-1 $338 $336 $340 $497 reversed $209 $-1 #
edge $-1 $351 -6.3781733790240587 $499 6.3781733790240587 $350 $584 forward 7 unknown #
vertex $-1 $497 $585 #
straight-curve $-1 -40.207525864436782 -19.746929883072049 0 0 0 -1 I I #
edge $-1 $495 -19.746929883072049 $499 19.746929883072049 $493 $586 forward 7 unknown #
straight-curve $-1 0 -19.746929883072049 -6.3781733790240587 -1 0 0 I I #
vertex $-1 $343 $587 #
straight-curve $-1 0 19.746929883072049 -6.3781733790240587 1 0 0 I I #
point $-1 40.207525864436782 19.746929883072049 -6.3781733790240587 #
point $-1 40.207525864436782 -19.746929883072049 -6.3781733790240587 #
straight-curve $-1 -40.207525864436782 0 6.3781733790240587 0 -1 0 I I #
point $-1 -40.207525864436782 19.746929883072049 6.3781733790240587 #
point $-1 -40.207525864436782 -19.746929883072049 6.3781733790240587 #
straight-curve $-1 40.207525864436782 -19.746929883072049 0 0 0 -1 I I #
straight-curve $-1 40.207525864436782 19.746929883072049 0 0 0 -1 I I #
plane-surface $-1 1.5 0 0 -1 0 0 0 0 1 forward_v I I I I #
coedge $-1 $365 $363 $367 $513 reversed $228 $-1 #
edge $-1 $378 -6.3781733790240587 $515 6.3781733790240587 $377 $588 forward 7 unknown #
vertex $-1 $513 $589 #
straight-curve $-1 -1.5 -2.2834997466599223 0 0 0 -1 I I #
edge $-1 $511 -2.2834997466599223 $515 2.2834997466599223 $509 $590 forward 7 unknown #
straight-curve $-1 0 -2.2834997466599223 -6.3781733790240587 -1 0 0 I I #
vertex $-1 $370 $591 #
straight-curve $-1 0 2.2834997466599223 -6.3781733790240587 1 0 0 I I #
point $-1 1.5 2.2834997466599223 -6.3781733790240587 #
point $-1 1.5 -2.2834997466599223 -6.3781733790240587 #
straight-curve $-1 -1.5 0 6.3781733790240587 0 -1 0 I I #
point $-1 -1.5 2.2834997466599223 6.3781733790240587 #
point $-1 -1.5 -2.2834997466599223 6.3781733790240587 #
straight-curve $-1 1.5 -2.2834997466599223 0 0 0 -1 I I #
straight-curve $-1 1.5 2.2834997466599223 0 0 0 -1 I I #
plane-surface $-1 160.83010345774713 0 0 -1 0 0 0 0 1 forward_v I I I I #
coedge $-1 $392 $390 $394 $529 reversed $247 $-1 #
edge $-1 $405 -80.415051728873564 $531 80.415051728873564 $404 $592 forward 7 unknown #
vertex $-1 $529 $593 #
straight-curve $-1 -160.83010345774713 -4.3690281940643061 0 0 0 -1 I I #
edge $-1 $527 -4.3690281940643061 $531 4.3690281940643061 $525 $594 forward 7 unknown #
straight-curve $-1 0 -4.3690281940643061 -80.415051728873564 -1 0 0 I I #
vertex $-1 $397 $595 #
straight-curve $-1 0 4.3690281940643061 -80.415051728873564 1 0 0 I I #
point $-1 160.83010345774713 4.3690281940643061 -80.415051728873564 #
point $-1 160.83010345774713 -4.3690281940643061 -80.415051728873564 #
straight-curve $-1 -160.83010345774713 0 80.415051728873564 0 -1 0 I I #
point $-1 -160.83010345774713 4.3690281940643061 80.415051728873564 #
point $-1 -160.83010345774713 -4.3690281940643061 80.415051728873564 #
straight-curve $-1 160.83010345774713 -4.3690281940643061 0 0 0 -1 I I #
straight-curve $-1 160.83010345774713 4.3690281940643061 0 0 0 -1 I I #
edge $-1 $596 1 $596 0 $414 $-1 forward 7 unknown #
point $-1 1 0 -0.5 #
edge $-1 $597 1 $597 0 $418 $-1 forward 7 unknown #
point $-1 1 0 -0.5 #
plane-surface $-1 160.83010345774713 0 0 -1 0 0 0 0 1 forward_v I I I I #
coedge $-1 $427 $425 $429 $549 reversed $276 $-1 #
edge $-1 $440 -80.415051728873564 $551 80.415051728873564 $439 $598 forward 7 unknown #
vertex $-1 $549 $599 #
straight-curve $-1 -160.83010345774713 -4.139722180774716 0 0 0 -1 I I #
edge $-1 $547 -4.139722180774716 $551 4.139722180774716 $545 $600 forward 7 unknown #
straight-curve $-1 0 -4.139722180774716 -80.415051728873564 -1 0 0 I I #
vertex $-1 $432 $601 #
straight-curve $-1 0 4.139722180774716 -80.415051728873564 1 0 0 I I #
point $-1 160.83010345774713 4.139722180774716 -80.415051728873564 #
point $-1 160.83010345774713 -4.139722180774716 -80.415051728873564 #
straight-curve $-1 -160.83010345774713 0 80.415051728873564 0 -1 0 I I #
point $-1 -160.83010345774713 4.139722180774716 80.415051728873564 #
point $-1 -160.83010345774713 -4.139722180774716 80.415051728873564 #
straight-curve $-1 160.83010345774713 -4.139722180774716 0 0 0 -1 I I #
straight-curve $-1 160.83010345774713 4.139722180774716 0 0 0 -1 I I #
edge $-1 $602 1 $602 0 $449 $-1 forward 7 unknown #
point $-1 0.5 0 -0.25 #
edge $-1 $603 1 $603 0 $453 $-1 forward 7 unknown #
point $-1 0.5 0 -0.25 #
plane-surface $-1 160.83010345774713 0 0 -1 0 0 0 0 1 forward_v I I I I #
coedge $-1 $462 $460 $464 $569 reversed $305 $-1 #
edge $-1 $475 -80.415051728873564 $571 80.415051728873564 $474 $604 forward 7 unknown #
vertex $-1 $569 $605 #
straight-curve $-1 -160.83010345774713 -4.139722180774716 0 0 0 -1 I I #
edge $-1 $567 -4.139722180774716 $571 4.139722180774716 $565 $606 forward 7 unknown #
straight-curve $-1 0 -4.139722180774716 -80.415051728873564 -1 0 0 I I #
vertex $-1 $467 $607 #
straight-curve $-1 0 4.139722180774716 -80.415051728873564 1 0 0 I I #
point $-1 160.83010345774713 4.139722180774716 -80.415051728873564 #
point $-1 160.83010345774713 -4.139722180774716 -80.415051728873564 #
straight-curve $-1 -160.83010345774713 0 80.415051728873564 0 -1 0 I I #
point $-1 -160.83010345774713 4.139722180774716 80.415051728873564 #
point $-1 -160.83010345774713 -4.139722180774716 80.415051728873564 #
straight-curve $-1 160.83010345774713 -4.139722180774716 0 0 0 -1 I I #
straight-curve $-1 160.83010345774713 4.139722180774716 0 0 0 -1 I I #
edge $-1 $608 1 $608 0 $484 $-1 forward 7 unknown #
point $-1 0.5 0 -0.25 #
edge $-1 $609 1 $609 0 $488 $-1 forward 7 unknown #
point $-1 0.5 0 -0.25 #
straight-curve $-1 -40.207525864436782 19.746929883072049 0 0 0 -1 I I #
point $-1 -40.207525864436782 -19.746929883072049 -6.3781733790240587 #
straight-curve $-1 -40.207525864436782 0 -6.3781733790240587 0 1 0 I I #
point $-1 -40.207525864436782 19.746929883072049 -6.3781733790240587 #
straight-curve $-1 -1.5 2.2834997466599223 0 0 0 -1 I I #
point $-1 -1.5 -2.2834997466599223 -6.3781733790240587 #
straight-curve $-1 -1.5 0 -6.3781733790240587 0 1 0 I I #
point $-1 -1.5 2.2834997466599223 -6.3781733790240587 #
straight-curve $-1 -160.83010345774713 4.3690281940643061 0 0 0 -1 I I #
point $-1 -160.83010345774713 -4.3690281940643061 -80.415051728873564 #
straight-curve $-1 -160.83010345774713 0 -80.415051728873564 0 1 0 I I #
point $-1 -160.83010345774713 4.3690281940643061 -80.415051728873564 #
vertex $-1 $540 $610 #
vertex $-1 $542 $611 #
straight-curve $-1 -160.83010345774713 4.139722180774716 0 0 0 -1 I I #
point $-1 -160.83010345774713 -4.139722180774716 -80.415051728873564 #
straight-curve $-1 -160.83010345774713 0 -80.415051728873564 0 1 0 I I #
point $-1 -160.83010345774713 4.139722180774716 -80.415051728873564 #
vertex $-1 $560 $612 #
vertex $-1 $562 $613 #
straight-curve $-1 -160.83010345774713 4.139722180774716 0 0 0 -1 I I #
point $-1 -160.83010345774713 -4.139722180774716 -80.415051728873564 #
straight-curve $-1 -160.83010345774713 0 -80.415051728873564 0 1 0 I I #
point $-1 -160.83010345774713 4.139722180774716 -80.415051728873564 #
vertex $-1 $580 $614 #
vertex $-1 $582 $615 #
point $-1 0 0 0.5 #
point $-1 0 0 0.5 #
point $-1 0 0 0.25 #
point $-1 0 0 0.25 #
point $-1 0 0 0.25 #
point $-1 0 0 0.25 #
End-of-ACIS-data 