500 0 5 0           
7 Unknown 11 ACIS 5.0 NT 24 Fri Mar 26 17:33:06 1999 
-1 9.9999999999999995e-007 1e-010 
body $-1 $5 $-1 $6 #
body $-1 $7 $-1 $8 #
body $-1 $9 $-1 $10 #
body $-1 $11 $-1 $12 #
body $-1 $13 $-1 $14 #
lump $-1 $-1 $15 $0 #
transform $-1 1 0 0 0 1 0 0 0 1 49.060335093234045 33.814454539006775 10.165285286752901 1 rotate no_reflect no_shear #
lump $-1 $-1 $16 $1 #
transform $-1 1 0 0 0 1 0 0 0 1 49.060335093234045 33.814454539006775 10.165285286752901 1 rotate no_reflect no_shear #
lump $-1 $-1 $17 $2 #
transform $-1 1 0 0 0 1 0 0 0 1 49.060335093234045 33.814454539006775 10.165285286752901 1 rotate no_reflect no_shear #
lump $-1 $-1 $18 $3 #
transform $-1 1 0 0 0 1 0 0 0 1 49.060335093234045 33.814454539006775 10.165285286752901 1 rotate no_reflect no_shear #
lump $-1 $-1 $19 $4 #
transform $-1 1 0 0 0 1 0 0 0 1 49.060335093234045 33.814454539006775 10.165285286752901 1 rotate no_reflect no_shear #
shell $-1 $-1 $-1 $20 $-1 $5 #
shell $-1 $-1 $-1 $21 $-1 $7 #
shell $-1 $-1 $-1 $22 $-1 $9 #
shell $-1 $-1 $-1 $23 $-1 $11 #
shell $-1 $-1 $-1 $24 $-1 $13 #
face $-1 $25 $26 $15 $-1 $27 reversed single #
face $-1 $28 $29 $16 $-1 $30 forward single #
face $-1 $31 $32 $17 $-1 $33 reversed single #
face $-1 $34 $35 $18 $-1 $36 forward single #
face $-1 $37 $38 $19 $-1 $39 forward single #
face $-1 $40 $41 $15 $-1 $42 forward single #
loop $-1 $-1 $43 $20 #
plane-surface $-1 0 -33.814454539006775 0 0 1 0 0 0 1 forward_v I I I I #
face $-1 $44 $45 $16 $-1 $46 forward single #
loop $-1 $-1 $47 $21 #
plane-surface $-1 0 -33.814454539006775 0 0 1 0 0 0 1 forward_v I I I I #
face $-1 $48 $49 $17 $-1 $50 reversed single #
loop $-1 $-1 $51 $22 #
plane-surface $-1 -35.744773348623454 79.272030571064178 116.27918378502218 1 0 0 0 -0.83867057594974714 -0.54463902268945019 forward_v I I I I #
face $-1 $52 $53 $18 $-1 $54 forward single #
loop $-1 $55 $56 $23 #
cone-surface $-1 -29.276575129363508 32.03126364164401 7.837767953748954 0 -0.83867057594974714 -0.54463902268945019 1 0 0 1 I I 0 1 1 forward I I I I #
face $-1 $57 $58 $19 $-1 $59 forward single #
loop $-1 $60 $61 $24 #
cone-surface $-1 -19.574277800473588 32.03126364164401 7.837767953748954 0 -0.83867057594974714 -0.54463902268945019 1 0 0 1 I I 0 1 1 forward I I I I #
face $-1 $62 $63 $15 $-1 $64 reversed single #
loop $-1 $-1 $65 $25 #
plane-surface $-1 0 0 10.165285286752901 0 0 1 1 0 0 forward_v I I I I #
coedge $-1 $66 $67 $68 $69 reversed $26 $-1 #
face $-1 $70 $71 $16 $-1 $72 reversed single #
loop $-1 $-1 $73 $28 #
plane-surface $-1 0 0 10.165285286752901 0 0 1 1 0 0 forward_v I I I I #
coedge $-1 $74 $75 $76 $77 forward $29 $-1 #
face $-1 $78 $79 $17 $-1 $80 reversed single #
loop $-1 $-1 $81 $31 #
plane-surface $-1 -24.425426464918548 -3.0188884067961936 62.838837869030328 0 0.83867057594974714 0.54463902268945019 1 0 0 forward_v I I I I #
coedge $-1 $82 $83 $84 $85 reversed $32 $-1 #
face $-1 $-1 $86 $18 $-1 $87 forward single #
loop $-1 $88 $89 $34 #
cone-surface $-1 -29.276575129363508 31.142106975693324 7.2603428819169231 0 -0.83867057594974714 -0.54463902268945019 0.5 0 0 1 I I -0.70710678118654746 0.70710678118654746 0.5 forward I I I I #
loop $-1 $-1 $90 $23 #
coedge $-1 $56 $56 $91 $92 reversed $35 $-1 #
face $-1 $-1 $93 $19 $-1 $94 forward single #
loop $-1 $95 $96 $37 #
cone-surface $-1 -19.574277800473588 31.142106975693324 7.2603428819169231 0 -0.83867057594974714 -0.54463902268945019 0.5 0 0 1 I I -0.70710678118654746 0.70710678118654746 0.5 forward I I I I #
loop $-1 $-1 $97 $24 #
coedge $-1 $61 $61 $98 $99 reversed $38 $-1 #
face $-1 $100 $101 $15 $-1 $102 reversed single #
loop $-1 $-1 $103 $40 #
plane-surface $-1 0 0 -10.165285286752901 0 0 1 1 0 0 forward_v I I I I #
coedge $-1 $104 $105 $106 $107 forward $41 $-1 #
coedge $-1 $108 $43 $109 $110 reversed $26 $-1 #
coedge $-1 $43 $108 $111 $112 forward $26 $-1 #
coedge $-1 $113 $103 $43 $69 forward $63 $-1 #
edge $-1 $114 -49.060335093234045 $115 49.060335093234045 $43 $116 forward 7 unknown #
face $-1 $117 $118 $16 $-1 $119 reversed single #
loop $-1 $-1 $120 $44 #
plane-surface $-1 -49.060335093234045 0 0 1 0 0 0 0 -1 forward_v I I I I #
coedge $-1 $121 $122 $75 $123 forward $45 $-1 #
coedge $-1 $124 $47 $125 $126 reversed $29 $-1 #
coedge $-1 $47 $124 $73 $123 reversed $29 $-1 #
coedge $-1 $127 $128 $47 $77 reversed $129 $-1 #
edge $-1 $130 -10.165285286752901 $131 10.165285286752901 $76 $132 forward 7 unknown #
face $-1 $133 $134 $17 $-1 $135 reversed single #
loop $-1 $-1 $136 $48 #
plane-surface $-1 -13.106079581213642 79.272030571064178 116.27918378502218 -1 0 0 0 0.83867057594974714 0.54463902268945019 forward_v I I I I #
coedge $-1 $137 $138 $139 $140 reversed $49 $-1 #
coedge $-1 $83 $51 $141 $142 reversed $32 $-1 #
coedge $-1 $51 $82 $137 $143 reversed $32 $-1 #
coedge $-1 $139 $144 $51 $85 forward $145 $-1 #
edge $-1 $146 5.8215607465253143 $147 8.4482997852992128 $84 $148 forward 7 unknown #
loop $-1 $-1 $91 $52 #
plane-surface $-1 -24.425426464918548 -3.0188884067961936 62.838837869030328 0 0.83867057594974714 0.54463902268945019 1 0 0 forward_v I I I I #
loop $-1 $-1 $149 $34 #
coedge $-1 $89 $89 $90 $150 reversed $53 $-1 #
coedge $-1 $90 $90 $89 $150 forward $55 $-1 #
coedge $-1 $91 $91 $56 $92 forward $86 $-1 #
edge $-1 $151 -8.9033658465053147e-016 $151 6.2831853071795996 $91 $152 forward 7 unknown #
loop $-1 $-1 $98 $57 #
plane-surface $-1 -24.425426464918548 -3.0188884067961936 62.838837869030328 0 0.83867057594974714 0.54463902268945019 1 0 0 forward_v I I I I #
loop $-1 $-1 $153 $37 #
coedge $-1 $96 $96 $97 $154 reversed $58 $-1 #
coedge $-1 $97 $97 $96 $154 forward $60 $-1 #
coedge $-1 $98 $98 $61 $99 forward $93 $-1 #
edge $-1 $155 -8.9033658465053147e-016 $155 6.2831853071795996 $98 $156 forward 7 unknown #
face $-1 $157 $158 $15 $-1 $159 reversed single #
loop $-1 $-1 $160 $62 #
plane-surface $-1 -49.060335093234045 0 0 1 0 0 0 0 -1 forward_v I I I I #
coedge $-1 $68 $161 $162 $163 forward $63 $-1 #
coedge $-1 $164 $65 $165 $166 forward $41 $-1 #
coedge $-1 $65 $164 $108 $167 forward $41 $-1 #
coedge $-1 $109 $168 $65 $107 reversed $169 $-1 #
edge $-1 $170 -33.814454539006775 $171 33.814454539006775 $106 $172 forward 7 unknown #
coedge $-1 $67 $66 $105 $167 reversed $26 $-1 #
coedge $-1 $162 $106 $66 $110 forward $169 $-1 #
edge $-1 $170 -10.165285286752901 $114 10.165285286752901 $109 $173 forward 7 unknown #
coedge $-1 $174 $175 $67 $112 reversed $101 $-1 #
edge $-1 $176 -10.165285286752901 $115 10.165285286752901 $111 $177 forward 7 unknown #
coedge $-1 $161 $68 $175 $178 forward $63 $-1 #
vertex $-1 $110 $179 #
vertex $-1 $178 $180 #
straight-curve $-1 0 -33.814454539006775 -10.165285286752901 -1 0 0 I I #
face $-1 $181 $129 $16 $-1 $182 reversed single #
loop $-1 $-1 $183 $70 #
plane-surface $-1 -47.54247592631318 -46.919771017237252 0 0 1 0 0 0 1 forward_v I I I I #
coedge $-1 $184 $185 $124 $186 forward $71 $-1 #
coedge $-1 $187 $73 $185 $188 forward $45 $-1 #
coedge $-1 $73 $187 $127 $189 forward $45 $-1 #
edge $-1 $130 46.024616759392316 $190 49.060335093234045 $73 $191 forward 7 unknown #
coedge $-1 $75 $74 $120 $186 reversed $29 $-1 #
coedge $-1 $192 $193 $74 $126 forward $194 $-1 #
edge $-1 $195 -49.060335093234045 $131 -46.024616759392316 $125 $196 forward 7 unknown #
coedge $-1 $197 $76 $122 $189 reversed $129 $-1 #
coedge $-1 $76 $197 $192 $198 reversed $129 $-1 #
loop $-1 $-1 $197 $117 #
vertex $-1 $123 $199 #
vertex $-1 $198 $200 #
straight-curve $-1 -46.024616759392316 -33.814454539006775 0 0 0 -1 I I #
face $-1 $-1 $145 $17 $-1 $201 forward single #
loop $-1 $-1 $202 $78 #
plane-surface $-1 0 33.814454539006775 0 0 -1 0 0 0 -1 forward_v I I I I #
coedge $-1 $203 $204 $205 $206 reversed $79 $-1 #
coedge $-1 $207 $81 $83 $143 forward $49 $-1 #
coedge $-1 $81 $207 $203 $208 forward $49 $-1 #
coedge $-1 $205 $84 $81 $140 forward $145 $-1 #
edge $-1 $147 -23.532060116164182 $209 -0.89336634875436793 $139 $210 forward 7 unknown #
coedge $-1 $211 $212 $82 $142 forward $134 $-1 #
edge $-1 $213 -52.019130150791447 $146 -47.974306605758187 $141 $214 forward 7 unknown #
edge $-1 $147 62.806010002947339 $213 67.628909078013521 $83 $215 forward 7 unknown #
coedge $-1 $84 $205 $211 $216 forward $145 $-1 #
loop $-1 $-1 $205 $133 #
vertex $-1 $142 $217 #
vertex $-1 $85 $218 #
straight-curve $-1 -35.744773348623454 39.636015285532089 10.165285286752898 0 -1 0 I I #
coedge $-1 $149 $149 $-1 $219 reversed $88 $-1 #
edge $-1 $220 0 $220 6.2831853071796004 $89 $221 forward 7 unknown #
vertex $-1 $92 $222 #
ellipse-curve $-1 -29.276575129363508 32.501085019619836 8.142873514236264 0 0.83867057594974714 0.54463902268945019 1 0 0 1 I I #
coedge $-1 $153 $153 $-1 $223 reversed $95 $-1 #
edge $-1 $224 0 $224 6.2831853071796004 $96 $225 forward 7 unknown #
vertex $-1 $99 $226 #
ellipse-curve $-1 -19.574277800473588 32.501085019619836 8.142873514236264 0 0.83867057594974714 0.54463902268945019 1 0 0 1 I I #
face $-1 $-1 $169 $15 $-1 $227 reversed single #
loop $-1 $-1 $228 $100 #
plane-surface $-1 0 33.814454539006775 0 0 -1 0 0 0 -1 forward_v I I I I #
coedge $-1 $175 $174 $229 $230 forward $101 $-1 #
coedge $-1 $103 $113 $231 $232 forward $63 $-1 #
coedge $-1 $168 $109 $103 $163 reversed $169 $-1 #
edge $-1 $233 -33.814454539006775 $114 33.814454539006775 $162 $234 forward 7 unknown #
coedge $-1 $105 $104 $174 $235 forward $41 $-1 #
coedge $-1 $228 $229 $104 $166 reversed $158 $-1 #
edge $-1 $171 -49.060335093234045 $236 49.060335093234045 $165 $237 forward 7 unknown #
edge $-1 $176 -49.060335093234045 $170 49.060335093234045 $108 $238 forward 7 unknown #
coedge $-1 $106 $162 $228 $239 reversed $169 $-1 #
loop $-1 $-1 $109 $157 #
vertex $-1 $107 $240 #
vertex $-1 $107 $241 #
straight-curve $-1 49.060335093234045 0 10.165285286752901 0 1 0 I I #
straight-curve $-1 49.060335093234045 -33.814454539006775 0 0 0 -1 I I #
coedge $-1 $160 $111 $164 $235 reversed $101 $-1 #
coedge $-1 $111 $160 $113 $178 reversed $101 $-1 #
vertex $-1 $235 $242 #
straight-curve $-1 -49.060335093234045 -33.814454539006775 0 0 0 -1 I I #
edge $-1 $115 -33.814454539006775 $243 33.814454539006775 $175 $244 forward 7 unknown #
point $-1 49.060335093234045 -33.814454539006775 -10.165285286752901 #
point $-1 -49.060335093234045 -33.814454539006775 -10.165285286752901 #
face $-1 $-1 $194 $16 $-1 $245 reversed single #
plane-surface $-1 -46.024616759392316 -40.367112778122014 0 -1 0 0 0 0 1 forward_v I I I I #
coedge $-1 $246 $247 $248 $249 forward $118 $-1 #
coedge $-1 $248 $120 $193 $250 reversed $71 $-1 #
coedge $-1 $120 $248 $121 $188 reversed $71 $-1 #
edge $-1 $190 -10.165285286752901 $195 10.165285286752901 $120 $251 forward 7 unknown #
coedge $-1 $122 $121 $247 $252 forward $45 $-1 #
edge $-1 $190 33.814454539006775 $253 46.919771017237252 $185 $254 forward 7 unknown #
edge $-1 $255 -6.5526582391152388 $130 6.5526582391152388 $127 $256 forward 7 unknown #
vertex $-1 $188 $257 #
straight-curve $-1 0 -33.814454539006775 10.165285286752901 -1 0 0 I I #
coedge $-1 $258 $125 $128 $198 forward $194 $-1 #
coedge $-1 $125 $258 $184 $250 forward $194 $-1 #
loop $-1 $-1 $125 $181 #
vertex $-1 $186 $259 #
straight-curve $-1 0 -33.814454539006775 -10.165285286752901 1 0 0 I I #
coedge $-1 $128 $127 $260 $261 forward $129 $-1 #
edge $-1 $131 -6.5526582391152388 $262 6.5526582391152388 $128 $263 forward 7 unknown #
point $-1 -46.024616759392316 -33.814454539006775 10.165285286752901 #
point $-1 -46.024616759392316 -33.814454539006775 -10.165285286752901 #
plane-surface $-1 0 0 10.165285286752901 0 0 1 1 0 0 forward_v I I I I #
coedge $-1 $212 $211 $204 $264 forward $134 $-1 #
coedge $-1 $204 $136 $138 $208 reversed $79 $-1 #
coedge $-1 $136 $203 $202 $264 reversed $79 $-1 #
coedge $-1 $144 $139 $136 $206 forward $145 $-1 #
edge $-1 $209 -8.4482997852992128 $265 -5.8215607465253143 $205 $266 forward 7 unknown #
coedge $-1 $138 $137 $212 $267 reversed $49 $-1 #
edge $-1 $268 -67.628909078013521 $209 -62.806010002947339 $203 $269 forward 7 unknown #
vertex $-1 $140 $270 #
straight-curve $-1 -12.212713232459274 31.187715500232883 10.165285286752898 1 0 0 I I #
coedge $-1 $202 $141 $144 $216 reversed $134 $-1 #
coedge $-1 $141 $202 $207 $267 forward $134 $-1 #
vertex $-1 $142 $271 #
straight-curve $-1 -35.744773348623454 33.814454539006775 58.139591892511092 0 0 1 I I #
straight-curve $-1 -35.744773348623454 -3.0188884067961936 62.838837869030328 0 0.54463902268945019 -0.83867057594974714 I I #
edge $-1 $265 13.106079581213642 $146 35.744773348623454 $211 $272 forward 7 unknown #
point $-1 -35.744773348623454 33.814454539006775 10.165285286752901 #
point $-1 -35.744773348623454 31.187715500232876 10.165285286752905 #
edge $-1 $273 1 $273 0 $149 $-1 forward 7 unknown #
vertex $-1 $150 $274 #
ellipse-curve $-1 -29.276575129363508 31.561442263668198 7.5326623932616483 0 0.83867057594974714 0.54463902268945019 1 0 0 1 I I #
point $-1 -28.276575129363508 32.501085019619829 8.1428735142362605 #
edge $-1 $275 1 $275 0 $153 $-1 forward 7 unknown #
vertex $-1 $154 $276 #
ellipse-curve $-1 -19.574277800473588 31.561442263668198 7.5326623932616483 0 0.83867057594974714 0.54463902268945019 1 0 0 1 I I #
point $-1 -18.574277800473588 32.501085019619829 8.1428735142362605 #
plane-surface $-1 49.060335093234045 0 0 -1 0 0 0 0 1 forward_v I I I I #
coedge $-1 $231 $165 $168 $239 forward $158 $-1 #
coedge $-1 $165 $231 $160 $230 reversed $158 $-1 #
edge $-1 $236 -10.165285286752901 $243 10.165285286752901 $229 $277 forward 7 unknown #
coedge $-1 $229 $228 $161 $232 reversed $158 $-1 #
edge $-1 $243 -49.060335093234045 $233 49.060335093234045 $231 $278 forward 7 unknown #
vertex $-1 $163 $279 #
straight-curve $-1 49.060335093234045 0 -10.165285286752901 0 -1 0 I I #
edge $-1 $236 -33.814454539006775 $176 33.814454539006775 $174 $280 forward 7 unknown #
vertex $-1 $166 $281 #
straight-curve $-1 0 33.814454539006775 10.165285286752901 -1 0 0 I I #
straight-curve $-1 0 -33.814454539006775 10.165285286752901 1 0 0 I I #
edge $-1 $171 -10.165285286752901 $233 10.165285286752901 $168 $282 forward 7 unknown #
point $-1 49.060335093234045 -33.814454539006775 10.165285286752901 #
point $-1 49.060335093234045 33.814454539006775 10.165285286752901 #
point $-1 -49.060335093234045 -33.814454539006775 10.165285286752901 #
vertex $-1 $232 $283 #
straight-curve $-1 -49.060335093234045 0 -10.165285286752901 0 1 0 I I #
plane-surface $-1 0 0 -10.165285286752901 0 0 1 1 0 0 forward_v I I I I #
coedge $-1 $260 $183 $258 $284 reversed $118 $-1 #
coedge $-1 $183 $260 $187 $252 reversed $118 $-1 #
coedge $-1 $185 $184 $183 $249 reversed $71 $-1 #
edge $-1 $253 -10.165285286752901 $285 10.165285286752901 $248 $286 forward 7 unknown #
edge $-1 $285 -46.919771017237252 $195 -33.814454539006775 $184 $287 forward 7 unknown #
straight-curve $-1 -49.060335093234045 -33.814454539006775 0 0 0 -1 I I #
edge $-1 $253 -1.5178591669208643 $255 1.5178591669208643 $247 $288 forward 7 unknown #
vertex $-1 $188 $289 #
straight-curve $-1 -49.060335093234045 0 10.165285286752901 0 -1 0 I I #
vertex $-1 $189 $290 #
straight-curve $-1 -46.024616759392316 -40.367112778122014 10.165285286752901 0 1 0 I I #
point $-1 -49.060335093234045 -33.814454539006775 10.165285286752901 #
coedge $-1 $193 $192 $246 $284 forward $194 $-1 #
point $-1 -49.060335093234045 -33.814454539006775 -10.165285286752901 #
coedge $-1 $247 $246 $197 $261 reversed $118 $-1 #
edge $-1 $255 -10.165285286752901 $262 10.165285286752901 $197 $291 forward 7 unknown #
vertex $-1 $261 $292 #
straight-curve $-1 -46.024616759392316 -40.367112778122014 -10.165285286752901 0 -1 0 I I #
edge $-1 $265 47.974306605758187 $268 52.019130150791447 $202 $293 forward 7 unknown #
vertex $-1 $216 $294 #
straight-curve $-1 -13.106079581213642 39.636015285532089 10.165285286752898 0 1 0 I I #
edge $-1 $268 0.89336634875436793 $213 23.532060116164182 $212 $295 forward 7 unknown #
vertex $-1 $267 $296 #
straight-curve $-1 -13.106079581213642 -3.0188884067961936 62.838837869030328 0 -0.54463902268945019 0.83867057594974714 I I #
point $-1 -13.106079581213642 31.187715500232876 10.165285286752905 #
point $-1 -35.744773348623454 33.814454539006775 6.1204617417196445 #
straight-curve $-1 0 33.814454539006775 10.165285286752901 -1 0 0 I I #
vertex $-1 $219 $297 #
point $-1 -28.276575129363508 31.561442263668198 7.5326623932616483 #
vertex $-1 $223 $298 #
point $-1 -18.574277800473588 31.561442263668198 7.5326623932616483 #
straight-curve $-1 -49.060335093234045 33.814454539006775 0 0 0 -1 I I #
straight-curve $-1 0 33.814454539006775 -10.165285286752901 1 0 0 I I #
point $-1 49.060335093234045 33.814454539006775 -10.165285286752901 #
straight-curve $-1 -49.060335093234045 0 10.165285286752901 0 -1 0 I I #
point $-1 -49.060335093234045 33.814454539006775 10.165285286752901 #
straight-curve $-1 49.060335093234045 33.814454539006775 0 0 0 -1 I I #
point $-1 -49.060335093234045 33.814454539006775 -10.165285286752901 #
edge $-1 $262 -1.5178591669208643 $285 1.5178591669208643 $246 $299 forward 7 unknown #
vertex $-1 $250 $300 #
straight-curve $-1 -49.060335093234045 -46.919771017237252 0 0 0 -1 I I #
straight-curve $-1 -49.060335093234045 0 -10.165285286752901 0 1 0 I I #
straight-curve $-1 -47.54247592631318 -46.919771017237252 10.165285286752901 1 0 0 I I #
point $-1 -49.060335093234045 -46.919771017237252 10.165285286752901 #
point $-1 -46.024616759392316 -46.919771017237252 10.165285286752901 #
straight-curve $-1 -46.024616759392316 -46.919771017237252 0 0 0 -1 I I #
point $-1 -46.024616759392316 -46.919771017237252 -10.165285286752901 #
straight-curve $-1 -13.106079581213642 33.814454539006775 58.139591892511092 0 0 -1 I I #
point $-1 -13.106079581213642 33.814454539006775 10.165285286752901 #
straight-curve $-1 -12.212713232459274 33.814454539006775 6.1204617417196481 -1 0 0 I I #
point $-1 -13.106079581213642 33.814454539006775 6.1204617417196445 #
point $-1 -29.276575129363508 30.722771687718449 6.9880233705721979 #
point $-1 -19.574277800473588 30.722771687718449 6.9880233705721979 #
straight-curve $-1 -47.54247592631318 -46.919771017237252 -10.165285286752901 -1 0 0 I I #
point $-1 -49.060335093234045 -46.919771017237252 -10.165285286752901 #
End-of-ACIS-data 