500 0 3 0           
7 Unknown 11 ACIS 5.0 NT 24 Thu Mar 25 20:56:50 1999 
-1 9.9999999999999995e-007 1e-010 
body $-1 $3 $-1 $4 #
body $-1 $5 $-1 $6 #
body $-1 $7 $-1 $8 #
lump $-1 $-1 $9 $0 #
transform $-1 1 0 0 0 1 0 0 0 1 47.646717734305859 25.816793888423106 10.657946540344769 1 rotate no_reflect no_shear #
lump $-1 $-1 $10 $1 #
transform $-1 1 0 0 0 1 0 0 0 1 47.646717734305859 25.816793888423106 10.657946540344769 1 rotate no_reflect no_shear #
lump $-1 $-1 $11 $2 #
transform $-1 1 0 0 0 1 0 0 0 1 47.646717734305859 25.816793888423106 10.657946540344769 1 rotate no_reflect no_shear #
shell $-1 $-1 $-1 $12 $-1 $3 #
shell $-1 $-1 $-1 $13 $-1 $5 #
shell $-1 $-1 $-1 $14 $-1 $7 #
face $-1 $15 $16 $9 $-1 $17 forward single #
face $-1 $18 $19 $10 $-1 $20 reversed single #
face $-1 $21 $22 $11 $-1 $23 forward single #
face $-1 $24 $25 $9 $-1 $26 reversed single #
loop $-1 $-1 $27 $12 #
plane-surface $-1 0 0 10.657946540344769 0 0 1 1 0 0 forward_v I I I I #
face $-1 $28 $29 $10 $-1 $30 reversed single #
loop $-1 $-1 $31 $13 #
plane-surface $-1 61.733525950904756 -0.98544796665093326 136.44800312867477 0 -1 0 -0.77714596973225614 0 -0.62932038083071107 forward_v I I I I #
face $-1 $32 $33 $11 $-1 $34 forward single #
loop $-1 $35 $36 $14 #
cone-surface $-1 43.519167679473156 -7.8314963892953244 5.8977374198023274 -0.77714596973225614 0 -0.62932038083071107 0.9439805712460666 0 -1.1657189545983841 1 I I 0 1 1.5 forward I I I I #
face $-1 $37 $38 $9 $-1 $39 reversed single #
loop $-1 $-1 $40 $15 #
plane-surface $-1 0 0 -10.657946540344769 0 0 1 1 0 0 forward_v I I I I #
coedge $-1 $41 $42 $43 $44 forward $16 $-1 #
face $-1 $45 $46 $10 $-1 $47 reversed single #
loop $-1 $-1 $48 $18 #
plane-surface $-1 -12.32338336546767 -7.8314963892953244 76.477902028901255 0.77714596973225614 0 0.62932038083071107 0.62932038083071107 0 -0.77714596973225614 forward_v I I I I #
coedge $-1 $49 $50 $51 $52 reversed $19 $-1 #
face $-1 $-1 $53 $11 $-1 $54 forward single #
loop $-1 $55 $56 $21 #
cone-surface $-1 42.143834903637135 -7.8314963892953244 4.7840149275448223 -0.77714596973225614 0 -0.62932038083071107 0.4719902856230333 0 -0.58285947729919207 1 I I -0.70710678118654757 0.70710678118654757 0.75 forward I I I I #
loop $-1 $-1 $57 $14 #
coedge $-1 $36 $36 $58 $59 reversed $22 $-1 #
face $-1 $60 $61 $9 $-1 $62 reversed single #
loop $-1 $-1 $63 $24 #
plane-surface $-1 0 -25.816793888423106 0 0 1 0 0 0 1 forward_v I I I I #
coedge $-1 $64 $65 $66 $67 forward $25 $-1 #
coedge $-1 $68 $27 $69 $70 forward $16 $-1 #
coedge $-1 $27 $68 $71 $72 forward $16 $-1 #
coedge $-1 $73 $74 $27 $44 reversed $75 $-1 #
edge $-1 $76 -25.816793888423106 $77 25.816793888423106 $43 $78 forward 7 unknown #
face $-1 $79 $80 $10 $-1 $81 forward single #
loop $-1 $-1 $82 $28 #
plane-surface $-1 61.733525950904756 -14.677544811939715 136.44800312867477 0 1 0 0.77714596973225614 0 0.62932038083071107 forward_v I I I I #
coedge $-1 $83 $84 $85 $86 reversed $29 $-1 #
coedge $-1 $50 $31 $87 $88 reversed $19 $-1 #
coedge $-1 $31 $49 $83 $89 reversed $19 $-1 #
coedge $-1 $85 $90 $31 $52 forward $80 $-1 #
edge $-1 $91 -16.779954758853481 $92 -10.10980124626175 $51 $93 forward 7 unknown #
loop $-1 $-1 $58 $32 #
plane-surface $-1 -12.32338336546767 -7.8314963892953244 76.477902028901255 0.77714596973225614 0 0.62932038083071107 0.62932038083071107 0 -0.77714596973225614 forward_v I I I I #
loop $-1 $-1 $94 $21 #
coedge $-1 $56 $56 $57 $95 reversed $33 $-1 #
coedge $-1 $57 $57 $56 $95 forward $35 $-1 #
coedge $-1 $58 $58 $36 $59 forward $53 $-1 #
edge $-1 $96 0 $96 6.2831853071796004 $58 $97 forward 7 unknown #
face $-1 $98 $99 $9 $-1 $100 reversed single #
loop $-1 $-1 $101 $37 #
plane-surface $-1 -47.646717734305859 0 0 1 0 0 0 0 -1 forward_v I I I I #
coedge $-1 $102 $71 $103 $104 forward $38 $-1 #
coedge $-1 $105 $40 $102 $106 forward $25 $-1 #
coedge $-1 $40 $105 $107 $108 forward $25 $-1 #
coedge $-1 $74 $73 $40 $67 reversed $75 $-1 #
edge $-1 $109 -25.816793888423106 $110 25.816793888423106 $66 $111 forward 7 unknown #
coedge $-1 $42 $41 $112 $113 forward $16 $-1 #
coedge $-1 $114 $115 $41 $70 reversed $99 $-1 #
edge $-1 $77 -47.646717734305859 $116 47.646717734305859 $69 $117 forward 7 unknown #
coedge $-1 $63 $118 $42 $72 reversed $38 $-1 #
edge $-1 $119 -47.646717734305859 $76 47.646717734305859 $71 $120 forward 7 unknown #
coedge $-1 $66 $43 $118 $121 forward $75 $-1 #
coedge $-1 $43 $66 $114 $122 reversed $75 $-1 #
loop $-1 $-1 $73 $98 #
vertex $-1 $44 $123 #
vertex $-1 $44 $124 #
straight-curve $-1 47.646717734305859 0 10.657946540344769 0 1 0 I I #
face $-1 $-1 $125 $10 $-1 $126 reversed single #
loop $-1 $-1 $51 $45 #
plane-surface $-1 0 0 10.657946540344769 0 0 1 1 0 0 forward_v I I I I #
coedge $-1 $127 $128 $129 $130 reversed $46 $-1 #
coedge $-1 $131 $48 $50 $89 forward $29 $-1 #
coedge $-1 $48 $131 $127 $132 forward $29 $-1 #
coedge $-1 $129 $51 $48 $86 forward $80 $-1 #
edge $-1 $92 -2.930300227996729 $133 10.761796617292053 $85 $134 forward 7 unknown #
coedge $-1 $135 $136 $49 $88 forward $125 $-1 #
edge $-1 $137 -65.803008851808571 $91 -57.566055023992618 $87 $138 forward 7 unknown #
edge $-1 $92 84.694456449710344 $137 95.293435468611733 $50 $139 forward 7 unknown #
coedge $-1 $51 $129 $135 $140 forward $80 $-1 #
vertex $-1 $88 $141 #
vertex $-1 $52 $142 #
straight-curve $-1 30.866762975452378 -0.98544796665093326 10.657946540344767 -1 0 0 I I #
coedge $-1 $94 $94 $-1 $143 reversed $55 $-1 #
edge $-1 $144 0 $144 6.2831853071796004 $56 $145 forward 7 unknown #
vertex $-1 $59 $146 #
ellipse-curve $-1 44.311640978009983 -7.8314963892953244 6.5394696264367944 0.77714596973225614 0 0.62932038083071107 0.9439805712460666 0 -1.1657189545983841 1 I I #
face $-1 $-1 $75 $9 $-1 $147 reversed single #
loop $-1 $-1 $114 $60 #
plane-surface $-1 0 25.816793888423106 0 0 -1 0 0 0 -1 forward_v I I I I #
coedge $-1 $148 $112 $115 $149 forward $61 $-1 #
coedge $-1 $118 $63 $64 $106 reversed $38 $-1 #
coedge $-1 $112 $148 $63 $104 reversed $61 $-1 #
edge $-1 $119 -10.657946540344769 $150 10.657946540344769 $103 $151 forward 7 unknown #
coedge $-1 $65 $64 $148 $152 forward $25 $-1 #
edge $-1 $110 -47.646717734305859 $150 47.646717734305859 $102 $153 forward 7 unknown #
coedge $-1 $115 $114 $65 $108 reversed $99 $-1 #
edge $-1 $154 -47.646717734305859 $109 47.646717734305859 $107 $155 forward 7 unknown #
vertex $-1 $67 $156 #
vertex $-1 $121 $157 #
straight-curve $-1 47.646717734305859 0 -10.657946540344769 0 -1 0 I I #
coedge $-1 $101 $103 $68 $113 reversed $61 $-1 #
edge $-1 $116 -25.816793888423106 $119 25.816793888423106 $112 $158 forward 7 unknown #
coedge $-1 $107 $69 $74 $122 forward $99 $-1 #
coedge $-1 $69 $107 $101 $149 reversed $99 $-1 #
vertex $-1 $70 $159 #
straight-curve $-1 0 25.816793888423106 10.657946540344769 -1 0 0 I I #
coedge $-1 $71 $102 $73 $121 reversed $38 $-1 #
vertex $-1 $113 $160 #
straight-curve $-1 0 -25.816793888423106 10.657946540344769 1 0 0 I I #
edge $-1 $76 -10.657946540344769 $110 10.657946540344769 $73 $161 forward 7 unknown #
edge $-1 $77 -10.657946540344769 $109 10.657946540344769 $74 $162 forward 7 unknown #
point $-1 47.646717734305859 -25.816793888423106 10.657946540344769 #
point $-1 47.646717734305859 25.816793888423106 10.657946540344769 #
loop $-1 $-1 $87 $79 #
plane-surface $-1 47.646717734305859 0 0 -1 0 0 0 0 1 forward_v I I I I #
coedge $-1 $128 $82 $84 $132 reversed $46 $-1 #
coedge $-1 $82 $127 $163 $164 reversed $46 $-1 #
coedge $-1 $90 $85 $82 $130 forward $80 $-1 #
edge $-1 $133 10.10980124626175 $165 16.779954758853481 $129 $166 forward 7 unknown #
coedge $-1 $84 $83 $136 $167 reversed $29 $-1 #
edge $-1 $168 -95.293435468611733 $133 -84.694456449710344 $127 $169 forward 7 unknown #
vertex $-1 $86 $170 #
straight-curve $-1 40.976564221714121 -3.9157481946476622 10.657946540344767 0 -1 0 I I #
coedge $-1 $163 $87 $90 $140 reversed $125 $-1 #
coedge $-1 $87 $163 $131 $167 forward $125 $-1 #
vertex $-1 $88 $171 #
straight-curve $-1 47.646717734305859 -0.98544796665093326 68.224001564337385 0 0 1 I I #
straight-curve $-1 -12.32338336546767 -0.98544796665093326 76.477902028901255 0.62932038083071107 0 -0.77714596973225614 I I #
edge $-1 $165 -14.677544811939715 $91 -0.98544796665093326 $135 $172 forward 7 unknown #
point $-1 47.646717734305859 -0.98544796665093326 10.657946540344769 #
point $-1 40.976564221714128 -0.98544796665093326 10.657946540344767 #
edge $-1 $173 1 $173 0 $94 $-1 forward 7 unknown #
vertex $-1 $95 $174 #
ellipse-curve $-1 42.72669438093633 -7.8314963892953244 5.2560052131678558 0.77714596973225614 0 0.62932038083071107 0.9439805712460666 0 -1.1657189545983841 1 I I #
point $-1 45.255621549256055 -7.8314963892953244 5.3737506718384154 #
plane-surface $-1 47.646717734305859 0 0 -1 0 0 0 0 1 forward_v I I I I #
coedge $-1 $103 $101 $105 $152 reversed $61 $-1 #
edge $-1 $116 -10.657946540344769 $154 10.657946540344769 $115 $175 forward 7 unknown #
vertex $-1 $152 $176 #
straight-curve $-1 -47.646717734305859 -25.816793888423106 0 0 0 -1 I I #
edge $-1 $150 -25.816793888423106 $154 25.816793888423106 $148 $177 forward 7 unknown #
straight-curve $-1 0 -25.816793888423106 -10.657946540344769 -1 0 0 I I #
vertex $-1 $108 $178 #
straight-curve $-1 0 25.816793888423106 -10.657946540344769 1 0 0 I I #
point $-1 47.646717734305859 25.816793888423106 -10.657946540344769 #
point $-1 47.646717734305859 -25.816793888423106 -10.657946540344769 #
straight-curve $-1 -47.646717734305859 0 10.657946540344769 0 -1 0 I I #
point $-1 -47.646717734305859 25.816793888423106 10.657946540344769 #
point $-1 -47.646717734305859 -25.816793888423106 10.657946540344769 #
straight-curve $-1 47.646717734305859 -25.816793888423106 0 0 0 -1 I I #
straight-curve $-1 47.646717734305859 25.816793888423106 0 0 0 -1 I I #
coedge $-1 $136 $135 $128 $164 forward $125 $-1 #
edge $-1 $165 57.566055023992618 $168 65.803008851808571 $163 $179 forward 7 unknown #
vertex $-1 $140 $180 #
straight-curve $-1 30.866762975452378 -14.677544811939715 10.657946540344767 1 0 0 I I #
edge $-1 $168 -10.761796617292053 $137 2.930300227996729 $136 $181 forward 7 unknown #
vertex $-1 $167 $182 #
straight-curve $-1 -12.32338336546767 -14.677544811939715 76.477902028901255 -0.62932038083071107 0 0.77714596973225614 I I #
point $-1 40.976564221714128 -14.677544811939715 10.657946540344767 #
point $-1 47.646717734305852 -0.98544796665093326 2.4209927125288146 #
straight-curve $-1 47.646717734305859 0 10.657946540344769 0 1 0 I I #
vertex $-1 $143 $183 #
point $-1 43.670674952182395 -7.8314963892953244 4.0902862585694715 #
straight-curve $-1 -47.646717734305859 25.816793888423106 0 0 0 -1 I I #
point $-1 -47.646717734305859 -25.816793888423106 -10.657946540344769 #
straight-curve $-1 -47.646717734305859 0 -10.657946540344769 0 1 0 I I #
point $-1 -47.646717734305859 25.816793888423106 -10.657946540344769 #
straight-curve $-1 47.646717734305859 -14.677544811939715 68.224001564337385 0 0 -1 I I #
point $-1 47.646717734305859 -14.677544811939715 10.657946540344769 #
straight-curve $-1 47.646717734305859 -3.9157481946476622 2.4209927125288146 0 1 0 I I #
point $-1 47.646717734305852 -14.677544811939715 2.4209927125288146 #
point $-1 41.56097542633794 -7.8314963892953244 4.3120246419217887 #
End-of-ACIS-data 