500 0 7 0           
7 Unknown 11 ACIS 5.0 NT 24 Thu Mar 25 21:06:47 1999 
-1 9.9999999999999995e-007 1e-010 
body $-1 $7 $-1 $8 #
body $-1 $9 $-1 $10 #
body $-1 $11 $-1 $12 #
body $-1 $13 $-1 $14 #
body $-1 $15 $-1 $16 #
body $-1 $17 $-1 $18 #
body $-1 $19 $-1 $20 #
lump $-1 $-1 $21 $0 #
transform $-1 1 0 0 0 1 0 0 0 1 63.180639057588422 27.582599619092456 8.6242026922674029 1 rotate no_reflect no_shear #
lump $-1 $-1 $22 $1 #
transform $-1 1 0 0 0 1 0 0 0 1 63.180639057588422 3.4557977940482405 10.321642164965921 1 rotate no_reflect no_shear #
lump $-1 $-1 $23 $2 #
transform $-1 1 0 0 0 1 0 0 0 1 63.180639057588422 51.709401444136674 10.321642164965921 1 rotate no_reflect no_shear #
lump $-1 $-1 $24 $3 #
transform $-1 0.5877852410284794 0 0.80901700255871778 0 1 0 -0.80901700255871778 0 0.5877852410284794 -102.22842246022886 40.299599430450428 86.658351072157814 1 rotate no_reflect no_shear #
lump $-1 $-1 $25 $4 #
transform $-1 0.5877852410284794 0 0.80901700255871778 0 -1 0 0.80901700255871778 0 -0.5877852410284794 4.0968637083334869 40.299599430450421 13.123778806964644 1 rotate no_reflect no_shear #
lump $-1 $-1 $26 $5 #
transform $-1 0.78801074757464917 0 -0.61566148304635926 0 1 0 0.61566148304635926 0 0.78801074757464917 104.5830047671714 37.468396046713728 191.35372174223883 1 rotate no_reflect no_shear #
lump $-1 $-1 $27 $6 #
transform $-1 0.78801074757464917 0 -0.61566148304635926 0 -1 0 -0.61566148304635926 0 -0.78801074757464917 121.73903496787618 37.468396046713728 12.373988711844532 1 rotate no_reflect no_shear #
shell $-1 $-1 $-1 $28 $-1 $7 #
shell $-1 $-1 $-1 $29 $-1 $9 #
shell $-1 $-1 $-1 $30 $-1 $11 #
shell $-1 $-1 $-1 $31 $-1 $13 #
shell $-1 $-1 $-1 $32 $-1 $15 #
shell $-1 $-1 $-1 $33 $-1 $17 #
shell $-1 $-1 $-1 $34 $-1 $19 #
face $-1 $35 $36 $21 $-1 $37 forward single #
face $-1 $38 $39 $22 $-1 $40 forward single #
face $-1 $41 $42 $23 $-1 $43 forward single #
face $-1 $44 $45 $24 $-1 $46 forward single #
face $-1 $47 $48 $25 $-1 $49 forward single #
face $-1 $50 $51 $26 $-1 $52 forward single #
face $-1 $53 $54 $27 $-1 $55 forward single #
face $-1 $56 $57 $21 $-1 $58 reversed single #
loop $-1 $-1 $59 $28 #
plane-surface $-1 0 0 8.6242026922674029 0 0 1 1 0 0 forward_v I I I I #
face $-1 $60 $61 $22 $-1 $62 reversed single #
loop $-1 $-1 $63 $29 #
plane-surface $-1 0 0 1.6499081214946951 0 0 1 1 0 0 forward_v I I I I #
face $-1 $64 $65 $23 $-1 $66 reversed single #
loop $-1 $-1 $67 $30 #
plane-surface $-1 0 0 1.6499081214946951 0 0 1 1 0 0 forward_v I I I I #
face $-1 $68 $69 $24 $-1 $70 reversed single #
loop $-1 $-1 $71 $31 #
plane-surface $-1 0 0 126.36127811517683 0 0 1 1 0 0 forward_v I I I I #
face $-1 $72 $73 $25 $-1 $74 forward single #
loop $-1 $75 $76 $32 #
cone-surface $-1 0 0 -1.8151112399670399 0 0 1 1.5 0 0 1 I I 0 1 1.5 forward I I I I #
face $-1 $77 $78 $26 $-1 $79 reversed single #
loop $-1 $-1 $80 $33 #
plane-surface $-1 0 0 126.36127811517683 0 0 1 1 0 0 forward_v I I I I #
face $-1 $81 $82 $27 $-1 $83 forward single #
loop $-1 $84 $85 $34 #
cone-surface $-1 0 0 -2.3071840571306499 0 0 1 1 0 0 1 I I 0 1 1 forward I I I I #
face $-1 $86 $87 $21 $-1 $88 reversed single #
loop $-1 $-1 $89 $35 #
plane-surface $-1 0 0 -8.6242026922674029 0 0 1 1 0 0 forward_v I I I I #
coedge $-1 $90 $91 $92 $93 forward $36 $-1 #
face $-1 $94 $95 $22 $-1 $96 reversed single #
loop $-1 $-1 $97 $38 #
plane-surface $-1 0 0 -1.6499081214946951 0 0 1 1 0 0 forward_v I I I I #
coedge $-1 $98 $99 $100 $101 forward $39 $-1 #
face $-1 $102 $103 $23 $-1 $104 reversed single #
loop $-1 $-1 $105 $41 #
plane-surface $-1 0 0 -1.6499081214946951 0 0 1 1 0 0 forward_v I I I I #
coedge $-1 $106 $107 $108 $109 forward $42 $-1 #
face $-1 $110 $111 $24 $-1 $112 reversed single #
loop $-1 $-1 $113 $44 #
plane-surface $-1 0 0 -126.36127811517683 0 0 1 1 0 0 forward_v I I I I #
coedge $-1 $114 $115 $116 $117 forward $45 $-1 #
face $-1 $-1 $118 $25 $-1 $119 forward single #
loop $-1 $-1 $120 $47 #
plane-surface $-1 0 0 -2.8802224799340799 0 0 -1 -1 0 0 forward_v I I I I #
loop $-1 $-1 $121 $32 #
coedge $-1 $76 $76 $120 $122 reversed $48 $-1 #
face $-1 $123 $124 $26 $-1 $125 reversed single #
loop $-1 $-1 $126 $50 #
plane-surface $-1 0 0 -126.36127811517683 0 0 1 1 0 0 forward_v I I I I #
coedge $-1 $127 $128 $129 $130 forward $51 $-1 #
face $-1 $-1 $131 $27 $-1 $132 forward single #
loop $-1 $-1 $133 $53 #
plane-surface $-1 0 0 -4.1143681142612998 0 0 -1 -1 0 0 forward_v I I I I #
loop $-1 $-1 $134 $34 #
coedge $-1 $85 $85 $133 $135 reversed $54 $-1 #
face $-1 $136 $137 $21 $-1 $138 reversed single #
loop $-1 $-1 $139 $56 #
plane-surface $-1 0 -27.582599619092456 0 0 1 0 0 0 1 forward_v I I I I #
coedge $-1 $140 $141 $142 $143 forward $57 $-1 #
coedge $-1 $144 $59 $145 $146 forward $36 $-1 #
coedge $-1 $59 $144 $147 $148 forward $36 $-1 #
coedge $-1 $149 $150 $59 $93 reversed $151 $-1 #
edge $-1 $152 -27.582599619092456 $153 27.582599619092456 $92 $154 forward 7 unknown #
face $-1 $155 $156 $22 $-1 $157 reversed single #
loop $-1 $-1 $158 $60 #
plane-surface $-1 0 -3.4557977940482405 0 0 1 0 0 0 1 forward_v I I I I #
coedge $-1 $159 $160 $161 $162 forward $61 $-1 #
coedge $-1 $163 $63 $164 $165 forward $39 $-1 #
coedge $-1 $63 $163 $166 $167 forward $39 $-1 #
coedge $-1 $168 $169 $63 $101 reversed $170 $-1 #
edge $-1 $171 -3.4557977940482405 $172 3.4557977940482405 $100 $173 forward 7 unknown #
face $-1 $174 $175 $23 $-1 $176 reversed single #
loop $-1 $-1 $177 $64 #
plane-surface $-1 0 -3.4557977940482409 0 0 1 0 0 0 1 forward_v I I I I #
coedge $-1 $178 $179 $180 $181 forward $65 $-1 #
coedge $-1 $182 $67 $183 $184 forward $42 $-1 #
coedge $-1 $67 $182 $185 $186 forward $42 $-1 #
coedge $-1 $187 $188 $67 $109 reversed $189 $-1 #
edge $-1 $190 -3.4557977940482409 $191 3.4557977940482409 $108 $192 forward 7 unknown #
face $-1 $193 $194 $24 $-1 $195 reversed single #
loop $-1 $-1 $196 $68 #
plane-surface $-1 0 -3.3742846440877621 0 0 1 0 0 0 1 forward_v I I I I #
coedge $-1 $197 $198 $199 $200 forward $69 $-1 #
coedge $-1 $201 $71 $202 $203 forward $45 $-1 #
coedge $-1 $71 $201 $204 $205 forward $45 $-1 #
coedge $-1 $206 $207 $71 $117 reversed $208 $-1 #
edge $-1 $209 -3.3742846440877621 $210 3.3742846440877621 $116 $211 forward 7 unknown #
loop $-1 $212 $213 $72 #
cone-surface $-1 0 0 0 0 0 1 0.75 0 0 1 I I -0.70710678118654757 0.70710678118654757 0.75 forward I I I I #
coedge $-1 $120 $120 $76 $122 forward $73 $-1 #
coedge $-1 $121 $121 $213 $214 forward $75 $-1 #
edge $-1 $215 0 $215 6.2831853071796004 $120 $216 forward 7 unknown #
face $-1 $217 $218 $26 $-1 $219 reversed single #
loop $-1 $-1 $220 $77 #
plane-surface $-1 0 -4.0487004358230294 0 0 1 0 0 0 1 forward_v I I I I #
coedge $-1 $221 $222 $223 $224 forward $78 $-1 #
coedge $-1 $225 $80 $226 $227 forward $51 $-1 #
coedge $-1 $80 $225 $228 $229 forward $51 $-1 #
coedge $-1 $230 $231 $80 $130 reversed $232 $-1 #
edge $-1 $233 -4.0487004358230294 $234 4.0487004358230294 $129 $235 forward 7 unknown #
loop $-1 $236 $237 $81 #
cone-surface $-1 0 0 0 0 0 1 0.5 0 0 1 I I -0.70710678118654746 0.70710678118654746 0.5 forward I I I I #
coedge $-1 $133 $133 $85 $135 forward $82 $-1 #
coedge $-1 $134 $134 $237 $238 forward $84 $-1 #
edge $-1 $239 0 $239 6.2831853071796004 $133 $240 forward 7 unknown #
face $-1 $241 $242 $21 $-1 $243 reversed single #
loop $-1 $-1 $244 $86 #
plane-surface $-1 -63.180639057588422 0 0 1 0 0 0 0 -1 forward_v I I I I #
coedge $-1 $245 $147 $246 $247 forward $87 $-1 #
coedge $-1 $248 $89 $245 $249 forward $57 $-1 #
coedge $-1 $89 $248 $250 $251 forward $57 $-1 #
coedge $-1 $150 $149 $89 $143 reversed $151 $-1 #
edge $-1 $252 -27.582599619092456 $253 27.582599619092456 $142 $254 forward 7 unknown #
coedge $-1 $91 $90 $255 $256 forward $36 $-1 #
coedge $-1 $257 $258 $90 $146 reversed $242 $-1 #
edge $-1 $153 -63.180639057588422 $259 63.180639057588422 $145 $260 forward 7 unknown #
coedge $-1 $139 $261 $91 $148 reversed $87 $-1 #
edge $-1 $262 -63.180639057588422 $152 63.180639057588422 $147 $263 forward 7 unknown #
coedge $-1 $142 $92 $261 $264 forward $151 $-1 #
coedge $-1 $92 $142 $257 $265 reversed $151 $-1 #
loop $-1 $-1 $149 $241 #
vertex $-1 $93 $266 #
vertex $-1 $93 $267 #
straight-curve $-1 63.180639057588422 0 8.6242026922674029 0 1 0 I I #
face $-1 $268 $269 $22 $-1 $270 reversed single #
loop $-1 $-1 $271 $94 #
plane-surface $-1 -63.180639057588422 0 0 1 0 0 0 0 -1 forward_v I I I I #
coedge $-1 $272 $166 $273 $274 forward $95 $-1 #
coedge $-1 $275 $97 $272 $276 forward $61 $-1 #
coedge $-1 $97 $275 $277 $278 forward $61 $-1 #
coedge $-1 $169 $168 $97 $162 reversed $170 $-1 #
edge $-1 $279 -3.4557977940482405 $280 3.4557977940482405 $161 $281 forward 7 unknown #
coedge $-1 $99 $98 $282 $283 forward $39 $-1 #
coedge $-1 $284 $285 $98 $165 reversed $269 $-1 #
edge $-1 $172 -63.180639057588422 $286 63.180639057588422 $164 $287 forward 7 unknown #
coedge $-1 $158 $288 $99 $167 reversed $95 $-1 #
edge $-1 $289 -63.180639057588422 $171 63.180639057588422 $166 $290 forward 7 unknown #
coedge $-1 $161 $100 $288 $291 forward $170 $-1 #
coedge $-1 $100 $161 $284 $292 reversed $170 $-1 #
loop $-1 $-1 $168 $268 #
vertex $-1 $101 $293 #
vertex $-1 $101 $294 #
straight-curve $-1 63.180639057588422 0 1.6499081214946951 0 1 0 I I #
face $-1 $295 $296 $23 $-1 $297 reversed single #
loop $-1 $-1 $298 $102 #
plane-surface $-1 -63.180639057588422 0 0 1 0 0 0 0 -1 forward_v I I I I #
coedge $-1 $299 $185 $300 $301 forward $103 $-1 #
coedge $-1 $302 $105 $299 $303 forward $65 $-1 #
coedge $-1 $105 $302 $304 $305 forward $65 $-1 #
coedge $-1 $188 $187 $105 $181 reversed $189 $-1 #
edge $-1 $306 -3.4557977940482409 $307 3.4557977940482409 $180 $308 forward 7 unknown #
coedge $-1 $107 $106 $309 $310 forward $42 $-1 #
coedge $-1 $311 $312 $106 $184 reversed $296 $-1 #
edge $-1 $191 -63.180639057588422 $313 63.180639057588422 $183 $314 forward 7 unknown #
coedge $-1 $177 $315 $107 $186 reversed $103 $-1 #
edge $-1 $316 -63.180639057588422 $190 63.180639057588422 $185 $317 forward 7 unknown #
coedge $-1 $180 $108 $315 $318 forward $189 $-1 #
coedge $-1 $108 $180 $311 $319 reversed $189 $-1 #
loop $-1 $-1 $187 $295 #
vertex $-1 $109 $320 #
vertex $-1 $109 $321 #
straight-curve $-1 63.180639057588422 0 1.6499081214946951 0 1 0 I I #
face $-1 $322 $323 $24 $-1 $324 reversed single #
loop $-1 $-1 $325 $110 #
plane-surface $-1 -252.72255623035369 0 0 1 0 0 0 0 -1 forward_v I I I I #
coedge $-1 $326 $204 $327 $328 forward $111 $-1 #
coedge $-1 $329 $113 $326 $330 forward $69 $-1 #
coedge $-1 $113 $329 $331 $332 forward $69 $-1 #
coedge $-1 $207 $206 $113 $200 reversed $208 $-1 #
edge $-1 $333 -3.3742846440877621 $334 3.3742846440877621 $199 $335 forward 7 unknown #
coedge $-1 $115 $114 $336 $337 forward $45 $-1 #
coedge $-1 $338 $339 $114 $203 reversed $323 $-1 #
edge $-1 $210 -252.72255623035369 $340 252.72255623035369 $202 $341 forward 7 unknown #
coedge $-1 $196 $342 $115 $205 reversed $111 $-1 #
edge $-1 $343 -252.72255623035369 $209 252.72255623035369 $204 $344 forward 7 unknown #
coedge $-1 $199 $116 $342 $345 forward $208 $-1 #
coedge $-1 $116 $199 $338 $346 reversed $208 $-1 #
loop $-1 $-1 $206 $322 #
vertex $-1 $117 $347 #
vertex $-1 $117 $348 #
straight-curve $-1 252.72255623035369 0 126.36127811517683 0 1 0 I I #
loop $-1 $-1 $349 $72 #
coedge $-1 $213 $213 $121 $214 reversed $118 $-1 #
edge $-1 $350 0 $350 6.2831853071796004 $213 $351 forward 7 unknown #
vertex $-1 $122 $352 #
ellipse-curve $-1 0 0 -2.8802224799340799 0 0 -1 1.5 0 0 1 I I #
face $-1 $353 $354 $26 $-1 $355 reversed single #
loop $-1 $-1 $356 $123 #
plane-surface $-1 -252.72255623035369 0 0 1 0 0 0 0 -1 forward_v I I I I #
coedge $-1 $357 $228 $358 $359 forward $124 $-1 #
coedge $-1 $360 $126 $357 $361 forward $78 $-1 #
coedge $-1 $126 $360 $362 $363 forward $78 $-1 #
coedge $-1 $231 $230 $126 $224 reversed $232 $-1 #
edge $-1 $364 -4.0487004358230294 $365 4.0487004358230294 $223 $366 forward 7 unknown #
coedge $-1 $128 $127 $367 $368 forward $51 $-1 #
coedge $-1 $369 $370 $127 $227 reversed $354 $-1 #
edge $-1 $234 -252.72255623035369 $371 252.72255623035369 $226 $372 forward 7 unknown #
coedge $-1 $220 $373 $128 $229 reversed $124 $-1 #
edge $-1 $374 -252.72255623035369 $233 252.72255623035369 $228 $375 forward 7 unknown #
coedge $-1 $223 $129 $373 $376 forward $232 $-1 #
coedge $-1 $129 $223 $369 $377 reversed $232 $-1 #
loop $-1 $-1 $230 $353 #
vertex $-1 $130 $378 #
vertex $-1 $130 $379 #
straight-curve $-1 252.72255623035369 0 126.36127811517683 0 1 0 I I #
loop $-1 $-1 $380 $81 #
coedge $-1 $237 $237 $134 $238 reversed $131 $-1 #
edge $-1 $381 0 $381 6.2831853071796004 $237 $382 forward 7 unknown #
vertex $-1 $135 $383 #
ellipse-curve $-1 0 0 -4.1143681142612998 0 0 -1 1 0 0 1 I I #
face $-1 $-1 $151 $21 $-1 $384 reversed single #
loop $-1 $-1 $257 $136 #
plane-surface $-1 0 27.582599619092456 0 0 -1 0 0 0 -1 forward_v I I I I #
coedge $-1 $385 $255 $258 $386 forward $137 $-1 #
coedge $-1 $261 $139 $140 $249 reversed $87 $-1 #
coedge $-1 $255 $385 $139 $247 reversed $137 $-1 #
edge $-1 $262 -8.6242026922674029 $387 8.6242026922674029 $246 $388 forward 7 unknown #
coedge $-1 $141 $140 $385 $389 forward $57 $-1 #
edge $-1 $253 -63.180639057588422 $387 63.180639057588422 $245 $390 forward 7 unknown #
coedge $-1 $258 $257 $141 $251 reversed $242 $-1 #
edge $-1 $391 -63.180639057588422 $252 63.180639057588422 $250 $392 forward 7 unknown #
vertex $-1 $143 $393 #
vertex $-1 $264 $394 #
straight-curve $-1 63.180639057588422 0 -8.6242026922674029 0 -1 0 I I #
coedge $-1 $244 $246 $144 $256 reversed $137 $-1 #
edge $-1 $259 -27.582599619092456 $262 27.582599619092456 $255 $395 forward 7 unknown #
coedge $-1 $250 $145 $150 $265 forward $242 $-1 #
coedge $-1 $145 $250 $244 $386 reversed $242 $-1 #
vertex $-1 $146 $396 #
straight-curve $-1 0 27.582599619092456 8.6242026922674029 -1 0 0 I I #
coedge $-1 $147 $245 $149 $264 reversed $87 $-1 #
vertex $-1 $256 $397 #
straight-curve $-1 0 -27.582599619092456 8.6242026922674029 1 0 0 I I #
edge $-1 $152 -8.6242026922674029 $253 8.6242026922674029 $149 $398 forward 7 unknown #
edge $-1 $153 -8.6242026922674029 $252 8.6242026922674029 $150 $399 forward 7 unknown #
point $-1 63.180639057588422 -27.582599619092456 8.6242026922674029 #
point $-1 63.180639057588422 27.582599619092456 8.6242026922674029 #
face $-1 $-1 $170 $22 $-1 $400 reversed single #
loop $-1 $-1 $284 $155 #
plane-surface $-1 0 3.4557977940482405 0 0 -1 0 0 0 -1 forward_v I I I I #
coedge $-1 $401 $282 $285 $402 forward $156 $-1 #
coedge $-1 $288 $158 $159 $276 reversed $95 $-1 #
coedge $-1 $282 $401 $158 $274 reversed $156 $-1 #
edge $-1 $289 -1.6499081214946951 $403 1.6499081214946951 $273 $404 forward 7 unknown #
coedge $-1 $160 $159 $401 $405 forward $61 $-1 #
edge $-1 $280 -63.180639057588422 $403 63.180639057588422 $272 $406 forward 7 unknown #
coedge $-1 $285 $284 $160 $278 reversed $269 $-1 #
edge $-1 $407 -63.180639057588422 $279 63.180639057588422 $277 $408 forward 7 unknown #
vertex $-1 $162 $409 #
vertex $-1 $291 $410 #
straight-curve $-1 63.180639057588422 0 -1.6499081214946951 0 -1 0 I I #
coedge $-1 $271 $273 $163 $283 reversed $156 $-1 #
edge $-1 $286 -3.4557977940482405 $289 3.4557977940482405 $282 $411 forward 7 unknown #
coedge $-1 $277 $164 $169 $292 forward $269 $-1 #
coedge $-1 $164 $277 $271 $402 reversed $269 $-1 #
vertex $-1 $165 $412 #
straight-curve $-1 0 3.4557977940482405 1.6499081214946951 -1 0 0 I I #
coedge $-1 $166 $272 $168 $291 reversed $95 $-1 #
vertex $-1 $283 $413 #
straight-curve $-1 0 -3.4557977940482405 1.6499081214946951 1 0 0 I I #
edge $-1 $171 -1.6499081214946951 $280 1.6499081214946951 $168 $414 forward 7 unknown #
edge $-1 $172 -1.6499081214946951 $279 1.6499081214946951 $169 $415 forward 7 unknown #
point $-1 63.180639057588422 -3.4557977940482405 1.6499081214946951 #
point $-1 63.180639057588422 3.4557977940482405 1.6499081214946951 #
face $-1 $-1 $189 $23 $-1 $416 reversed single #
loop $-1 $-1 $311 $174 #
plane-surface $-1 0 3.4557977940482409 0 0 -1 0 0 0 -1 forward_v I I I I #
coedge $-1 $417 $309 $312 $418 forward $175 $-1 #
coedge $-1 $315 $177 $178 $303 reversed $103 $-1 #
coedge $-1 $309 $417 $177 $301 reversed $175 $-1 #
edge $-1 $316 -1.6499081214946951 $419 1.6499081214946951 $300 $420 forward 7 unknown #
coedge $-1 $179 $178 $417 $421 forward $65 $-1 #
edge $-1 $307 -63.180639057588422 $419 63.180639057588422 $299 $422 forward 7 unknown #
coedge $-1 $312 $311 $179 $305 reversed $296 $-1 #
edge $-1 $423 -63.180639057588422 $306 63.180639057588422 $304 $424 forward 7 unknown #
vertex $-1 $181 $425 #
vertex $-1 $318 $426 #
straight-curve $-1 63.180639057588422 0 -1.6499081214946951 0 -1 0 I I #
coedge $-1 $298 $300 $182 $310 reversed $175 $-1 #
edge $-1 $313 -3.4557977940482409 $316 3.4557977940482409 $309 $427 forward 7 unknown #
coedge $-1 $304 $183 $188 $319 forward $296 $-1 #
coedge $-1 $183 $304 $298 $418 reversed $296 $-1 #
vertex $-1 $184 $428 #
straight-curve $-1 0 3.4557977940482409 1.6499081214946951 -1 0 0 I I #
coedge $-1 $185 $299 $187 $318 reversed $103 $-1 #
vertex $-1 $310 $429 #
straight-curve $-1 0 -3.4557977940482409 1.6499081214946951 1 0 0 I I #
edge $-1 $190 -1.6499081214946951 $307 1.6499081214946951 $187 $430 forward 7 unknown #
edge $-1 $191 -1.6499081214946951 $306 1.6499081214946951 $188 $431 forward 7 unknown #
point $-1 63.180639057588422 -3.4557977940482409 1.6499081214946951 #
point $-1 63.180639057588422 3.4557977940482409 1.6499081214946951 #
face $-1 $-1 $208 $24 $-1 $432 reversed single #
loop $-1 $-1 $338 $193 #
plane-surface $-1 0 3.3742846440877621 0 0 -1 0 0 0 -1 forward_v I I I I #
coedge $-1 $433 $336 $339 $434 forward $194 $-1 #
coedge $-1 $342 $196 $197 $330 reversed $111 $-1 #
coedge $-1 $336 $433 $196 $328 reversed $194 $-1 #
edge $-1 $343 -126.36127811517683 $435 126.36127811517683 $327 $436 forward 7 unknown #
coedge $-1 $198 $197 $433 $437 forward $69 $-1 #
edge $-1 $334 -252.72255623035369 $435 252.72255623035369 $326 $438 forward 7 unknown #
coedge $-1 $339 $338 $198 $332 reversed $323 $-1 #
edge $-1 $439 -252.72255623035369 $333 252.72255623035369 $331 $440 forward 7 unknown #
vertex $-1 $200 $441 #
vertex $-1 $345 $442 #
straight-curve $-1 252.72255623035369 0 -126.36127811517683 0 -1 0 I I #
coedge $-1 $325 $327 $201 $337 reversed $194 $-1 #
edge $-1 $340 -3.3742846440877621 $343 3.3742846440877621 $336 $443 forward 7 unknown #
coedge $-1 $331 $202 $207 $346 forward $323 $-1 #
coedge $-1 $202 $331 $325 $434 reversed $323 $-1 #
vertex $-1 $203 $444 #
straight-curve $-1 0 3.3742846440877621 126.36127811517683 -1 0 0 I I #
coedge $-1 $204 $326 $206 $345 reversed $111 $-1 #
vertex $-1 $337 $445 #
straight-curve $-1 0 -3.3742846440877621 126.36127811517683 1 0 0 I I #
edge $-1 $209 -126.36127811517683 $334 126.36127811517683 $206 $446 forward 7 unknown #
edge $-1 $210 -126.36127811517683 $333 126.36127811517683 $207 $447 forward 7 unknown #
point $-1 252.72255623035369 -3.3742846440877621 126.36127811517683 #
point $-1 252.72255623035369 3.3742846440877621 126.36127811517683 #
coedge $-1 $349 $349 $-1 $448 reversed $212 $-1 #
vertex $-1 $214 $449 #
ellipse-curve $-1 0 0 -0.75 0 0 -1 1.5 0 0 1 I I #
point $-1 1.5 0 -2.8802224799340799 #
face $-1 $-1 $232 $26 $-1 $450 reversed single #
loop $-1 $-1 $369 $217 #
plane-surface $-1 0 4.0487004358230294 0 0 -1 0 0 0 -1 forward_v I I I I #
coedge $-1 $451 $367 $370 $452 forward $218 $-1 #
coedge $-1 $373 $220 $221 $361 reversed $124 $-1 #
coedge $-1 $367 $451 $220 $359 reversed $218 $-1 #
edge $-1 $374 -126.36127811517683 $453 126.36127811517683 $358 $454 forward 7 unknown #
coedge $-1 $222 $221 $451 $455 forward $78 $-1 #
edge $-1 $365 -252.72255623035369 $453 252.72255623035369 $357 $456 forward 7 unknown #
coedge $-1 $370 $369 $222 $363 reversed $354 $-1 #
edge $-1 $457 -252.72255623035369 $364 252.72255623035369 $362 $458 forward 7 unknown #
vertex $-1 $224 $459 #
vertex $-1 $376 $460 #
straight-curve $-1 252.72255623035369 0 -126.36127811517683 0 -1 0 I I #
coedge $-1 $356 $358 $225 $368 reversed $218 $-1 #
edge $-1 $371 -4.0487004358230294 $374 4.0487004358230294 $367 $461 forward 7 unknown #
coedge $-1 $362 $226 $231 $377 forward $354 $-1 #
coedge $-1 $226 $362 $356 $452 reversed $354 $-1 #
vertex $-1 $227 $462 #
straight-curve $-1 0 4.0487004358230294 126.36127811517683 -1 0 0 I I #
coedge $-1 $228 $357 $230 $376 reversed $124 $-1 #
vertex $-1 $368 $463 #
straight-curve $-1 0 -4.0487004358230294 126.36127811517683 1 0 0 I I #
edge $-1 $233 -126.36127811517683 $365 126.36127811517683 $230 $464 forward 7 unknown #
edge $-1 $234 -126.36127811517683 $364 126.36127811517683 $231 $465 forward 7 unknown #
point $-1 252.72255623035369 -4.0487004358230294 126.36127811517683 #
point $-1 252.72255623035369 4.0487004358230294 126.36127811517683 #
coedge $-1 $380 $380 $-1 $466 reversed $236 $-1 #
vertex $-1 $238 $467 #
ellipse-curve $-1 0 0 -0.5 0 0 -1 1 0 0 1 I I #
point $-1 1 0 -4.1143681142612998 #
plane-surface $-1 63.180639057588422 0 0 -1 0 0 0 0 1 forward_v I I I I #
coedge $-1 $246 $244 $248 $389 reversed $137 $-1 #
edge $-1 $259 -8.6242026922674029 $391 8.6242026922674029 $258 $468 forward 7 unknown #
vertex $-1 $389 $469 #
straight-curve $-1 -63.180639057588422 -27.582599619092456 0 0 0 -1 I I #
edge $-1 $387 -27.582599619092456 $391 27.582599619092456 $385 $470 forward 7 unknown #
straight-curve $-1 0 -27.582599619092456 -8.6242026922674029 -1 0 0 I I #
vertex $-1 $251 $471 #
straight-curve $-1 0 27.582599619092456 -8.6242026922674029 1 0 0 I I #
point $-1 63.180639057588422 27.582599619092456 -8.6242026922674029 #
point $-1 63.180639057588422 -27.582599619092456 -8.6242026922674029 #
straight-curve $-1 -63.180639057588422 0 8.6242026922674029 0 -1 0 I I #
point $-1 -63.180639057588422 27.582599619092456 8.6242026922674029 #
point $-1 -63.180639057588422 -27.582599619092456 8.6242026922674029 #
straight-curve $-1 63.180639057588422 -27.582599619092456 0 0 0 -1 I I #
straight-curve $-1 63.180639057588422 27.582599619092456 0 0 0 -1 I I #
plane-surface $-1 63.180639057588422 0 0 -1 0 0 0 0 1 forward_v I I I I #
coedge $-1 $273 $271 $275 $405 reversed $156 $-1 #
edge $-1 $286 -1.6499081214946951 $407 1.6499081214946951 $285 $472 forward 7 unknown #
vertex $-1 $405 $473 #
straight-curve $-1 -63.180639057588422 -3.4557977940482405 0 0 0 -1 I I #
edge $-1 $403 -3.4557977940482405 $407 3.4557977940482405 $401 $474 forward 7 unknown #
straight-curve $-1 0 -3.4557977940482405 -1.6499081214946951 -1 0 0 I I #
vertex $-1 $278 $475 #
straight-curve $-1 0 3.4557977940482405 -1.6499081214946951 1 0 0 I I #
point $-1 63.180639057588422 3.4557977940482405 -1.6499081214946951 #
point $-1 63.180639057588422 -3.4557977940482405 -1.6499081214946951 #
straight-curve $-1 -63.180639057588422 0 1.6499081214946951 0 -1 0 I I #
point $-1 -63.180639057588422 3.4557977940482405 1.6499081214946951 #
point $-1 -63.180639057588422 -3.4557977940482405 1.6499081214946951 #
straight-curve $-1 63.180639057588422 -3.4557977940482405 0 0 0 -1 I I #
straight-curve $-1 63.180639057588422 3.4557977940482405 0 0 0 -1 I I #
plane-surface $-1 63.180639057588422 0 0 -1 0 0 0 0 1 forward_v I I I I #
coedge $-1 $300 $298 $302 $421 reversed $175 $-1 #
edge $-1 $313 -1.6499081214946951 $423 1.6499081214946951 $312 $476 forward 7 unknown #
vertex $-1 $421 $477 #
straight-curve $-1 -63.180639057588422 -3.4557977940482409 0 0 0 -1 I I #
edge $-1 $419 -3.4557977940482409 $423 3.4557977940482409 $417 $478 forward 7 unknown #
straight-curve $-1 0 -3.4557977940482409 -1.6499081214946951 -1 0 0 I I #
vertex $-1 $305 $479 #
straight-curve $-1 0 3.4557977940482409 -1.6499081214946951 1 0 0 I I #
point $-1 63.180639057588422 3.4557977940482409 -1.6499081214946951 #
point $-1 63.180639057588422 -3.4557977940482409 -1.6499081214946951 #
straight-curve $-1 -63.180639057588422 0 1.6499081214946951 0 -1 0 I I #
point $-1 -63.180639057588422 3.4557977940482409 1.6499081214946951 #
point $-1 -63.180639057588422 -3.4557977940482409 1.6499081214946951 #
straight-curve $-1 63.180639057588422 -3.4557977940482409 0 0 0 -1 I I #
straight-curve $-1 63.180639057588422 3.4557977940482409 0 0 0 -1 I I #
plane-surface $-1 252.72255623035369 0 0 -1 0 0 0 0 1 forward_v I I I I #
coedge $-1 $327 $325 $329 $437 reversed $194 $-1 #
edge $-1 $340 -126.36127811517683 $439 126.36127811517683 $339 $480 forward 7 unknown #
vertex $-1 $437 $481 #
straight-curve $-1 -252.72255623035369 -3.3742846440877621 0 0 0 -1 I I #
edge $-1 $435 -3.3742846440877621 $439 3.3742846440877621 $433 $482 forward 7 unknown #
straight-curve $-1 0 -3.3742846440877621 -126.36127811517683 -1 0 0 I I #
vertex $-1 $332 $483 #
straight-curve $-1 0 3.3742846440877621 -126.36127811517683 1 0 0 I I #
point $-1 252.72255623035369 3.3742846440877621 -126.36127811517683 #
point $-1 252.72255623035369 -3.3742846440877621 -126.36127811517683 #
straight-curve $-1 -252.72255623035369 0 126.36127811517683 0 -1 0 I I #
point $-1 -252.72255623035369 3.3742846440877621 126.36127811517683 #
point $-1 -252.72255623035369 -3.3742846440877621 126.36127811517683 #
straight-curve $-1 252.72255623035369 -3.3742846440877621 0 0 0 -1 I I #
straight-curve $-1 252.72255623035369 3.3742846440877621 0 0 0 -1 I I #
edge $-1 $484 1 $484 0 $349 $-1 forward 7 unknown #
point $-1 1.5 0 -0.75 #
plane-surface $-1 252.72255623035369 0 0 -1 0 0 0 0 1 forward_v I I I I #
coedge $-1 $358 $356 $360 $455 reversed $218 $-1 #
edge $-1 $371 -126.36127811517683 $457 126.36127811517683 $370 $485 forward 7 unknown #
vertex $-1 $455 $486 #
straight-curve $-1 -252.72255623035369 -4.0487004358230294 0 0 0 -1 I I #
edge $-1 $453 -4.0487004358230294 $457 4.0487004358230294 $451 $487 forward 7 unknown #
straight-curve $-1 0 -4.0487004358230294 -126.36127811517683 -1 0 0 I I #
vertex $-1 $363 $488 #
straight-curve $-1 0 4.0487004358230294 -126.36127811517683 1 0 0 I I #
point $-1 252.72255623035369 4.0487004358230294 -126.36127811517683 #
point $-1 252.72255623035369 -4.0487004358230294 -126.36127811517683 #
straight-curve $-1 -252.72255623035369 0 126.36127811517683 0 -1 0 I I #
point $-1 -252.72255623035369 4.0487004358230294 126.36127811517683 #
point $-1 -252.72255623035369 -4.0487004358230294 126.36127811517683 #
straight-curve $-1 252.72255623035369 -4.0487004358230294 0 0 0 -1 I I #
straight-curve $-1 252.72255623035369 4.0487004358230294 0 0 0 -1 I I #
edge $-1 $489 1 $489 0 $380 $-1 forward 7 unknown #
point $-1 1 0 -0.5 #
straight-curve $-1 -63.180639057588422 27.582599619092456 0 0 0 -1 I I #
point $-1 -63.180639057588422 -27.582599619092456 -8.6242026922674029 #
straight-curve $-1 -63.180639057588422 0 -8.6242026922674029 0 1 0 I I #
point $-1 -63.180639057588422 27.582599619092456 -8.6242026922674029 #
straight-curve $-1 -63.180639057588422 3.4557977940482405 0 0 0 -1 I I #
point $-1 -63.180639057588422 -3.4557977940482405 -1.6499081214946951 #
straight-curve $-1 -63.180639057588422 0 -1.6499081214946951 0 1 0 I I #
point $-1 -63.180639057588422 3.4557977940482405 -1.6499081214946951 #
straight-curve $-1 -63.180639057588422 3.4557977940482409 0 0 0 -1 I I #
point $-1 -63.180639057588422 -3.4557977940482409 -1.6499081214946951 #
straight-curve $-1 -63.180639057588422 0 -1.6499081214946951 0 1 0 I I #
point $-1 -63.180639057588422 3.4557977940482409 -1.6499081214946951 #
straight-curve $-1 -252.72255623035369 3.3742846440877621 0 0 0 -1 I I #
point $-1 -252.72255623035369 -3.3742846440877621 -126.36127811517683 #
straight-curve $-1 -252.72255623035369 0 -126.36127811517683 0 1 0 I I #
point $-1 -252.72255623035369 3.3742846440877621 -126.36127811517683 #
vertex $-1 $448 $490 #
straight-curve $-1 -252.72255623035369 4.0487004358230294 0 0 0 -1 I I #
point $-1 -252.72255623035369 -4.0487004358230294 -126.36127811517683 #
straight-curve $-1 -252.72255623035369 0 -126.36127811517683 0 1 0 I I #
point $-1 -252.72255623035369 4.0487004358230294 -126.36127811517683 #
vertex $-1 $466 $491 #
point $-1 0 0 0.75 #
point $-1 0 0 0.5 #
End-of-ACIS-data 