500 0 12 0           
7 Unknown 11 ACIS 5.0 NT 24 Fri Mar 26 02:41:41 1999 
-1 9.9999999999999995e-007 1e-010 
body $-1 $12 $-1 $13 #
body $-1 $14 $-1 $15 #
body $-1 $16 $-1 $17 #
body $-1 $18 $-1 $19 #
body $-1 $20 $-1 $21 #
body $-1 $22 $-1 $23 #
body $-1 $24 $-1 $25 #
body $-1 $26 $-1 $27 #
body $-1 $28 $-1 $29 #
body $-1 $30 $-1 $31 #
body $-1 $32 $-1 $33 #
body $-1 $34 $-1 $35 #
lump $-1 $-1 $36 $0 #
transform $-1 1 0 0 0 1 0 0 0 1 58.407544175542469 33.544721589730479 11.75923334490793 1 rotate no_reflect no_shear #
lump $-1 $-1 $37 $1 #
transform $-1 1 0 0 0 1 0 0 0 1 58.407544175542469 33.544721589730479 11.75923334490793 1 rotate no_reflect no_shear #
lump $-1 $-1 $38 $2 #
transform $-1 1 0 0 0 1 0 0 0 1 58.407544175542469 33.544721589730479 11.75923334490793 1 rotate no_reflect no_shear #
lump $-1 $-1 $39 $3 #
transform $-1 1 0 0 0 1 0 0 0 1 58.407544175542469 33.544721589730479 11.75923334490793 1 rotate no_reflect no_shear #
lump $-1 $-1 $40 $4 #
transform $-1 1 0 0 0 1 0 0 0 1 58.407544175542469 33.544721589730479 11.75923334490793 1 rotate no_reflect no_shear #
lump $-1 $-1 $41 $5 #
transform $-1 1 0 0 0 1 0 0 0 1 58.407544175542469 33.544721589730479 11.75923334490793 1 rotate no_reflect no_shear #
lump $-1 $-1 $42 $6 #
transform $-1 1 0 0 0 1 0 0 0 1 58.407544175542469 33.544721589730479 11.75923334490793 1 rotate no_reflect no_shear #
lump $-1 $-1 $43 $7 #
transform $-1 1 0 0 0 1 0 0 0 1 58.407544175542469 33.544721589730479 11.75923334490793 1 rotate no_reflect no_shear #
lump $-1 $-1 $44 $8 #
transform $-1 1 0 0 0 1 0 0 0 1 58.407544175542469 33.544721589730479 11.75923334490793 1 rotate no_reflect no_shear #
lump $-1 $-1 $45 $9 #
transform $-1 1 0 0 0 1 0 0 0 1 58.407544175542469 33.544721589730479 11.75923334490793 1 rotate no_reflect no_shear #
lump $-1 $-1 $46 $10 #
transform $-1 1 0 0 0 1 0 0 0 1 58.407544175542469 33.544721589730479 11.75923334490793 1 rotate no_reflect no_shear #
lump $-1 $-1 $47 $11 #
transform $-1 1 0 0 0 1 0 0 0 1 58.407544175542469 33.544721589730479 11.75923334490793 1 rotate no_reflect no_shear #
shell $-1 $-1 $-1 $48 $-1 $12 #
shell $-1 $-1 $-1 $49 $-1 $14 #
shell $-1 $-1 $-1 $50 $-1 $16 #
shell $-1 $-1 $-1 $51 $-1 $18 #
shell $-1 $-1 $-1 $52 $-1 $20 #
shell $-1 $-1 $-1 $53 $-1 $22 #
shell $-1 $-1 $-1 $54 $-1 $24 #
shell $-1 $-1 $-1 $55 $-1 $26 #
shell $-1 $-1 $-1 $56 $-1 $28 #
shell $-1 $-1 $-1 $57 $-1 $30 #
shell $-1 $-1 $-1 $58 $-1 $32 #
shell $-1 $-1 $-1 $59 $-1 $34 #
face $-1 $60 $61 $36 $-1 $62 forward single #
face $-1 $63 $64 $37 $-1 $65 forward single #
face $-1 $66 $67 $38 $-1 $68 forward single #
face $-1 $69 $70 $39 $-1 $71 reversed single #
face $-1 $72 $73 $40 $-1 $74 forward single #
face $-1 $75 $76 $41 $-1 $77 forward single #
face $-1 $78 $79 $42 $-1 $80 reversed single #
face $-1 $81 $82 $43 $-1 $83 forward single #
face $-1 $84 $85 $44 $-1 $86 forward single #
face $-1 $87 $88 $45 $-1 $89 reversed single #
face $-1 $90 $91 $46 $-1 $92 forward single #
face $-1 $93 $94 $47 $-1 $95 forward single #
face $-1 $96 $97 $36 $-1 $98 reversed single #
loop $-1 $-1 $99 $48 #
plane-surface $-1 0 0 11.75923334490793 0 0 1 1 0 0 forward_v I I I I #
face $-1 $100 $101 $37 $-1 $102 reversed single #
loop $-1 $-1 $103 $49 #
plane-surface $-1 0 -25.89175281218516 -7.9622717483078489 0 0 1 1 0 0 forward_v I I I I #
face $-1 $104 $105 $38 $-1 $106 reversed single #
loop $-1 $-1 $107 $50 #
plane-surface $-1 0 25.815603279928439 -6.9673287103299204 0 0 1 1 0 0 forward_v I I I I #
face $-1 $108 $109 $39 $-1 $110 reversed single #
loop $-1 $-1 $111 $51 #
plane-surface $-1 -150.45909094395699 -9.4171035195101709 74.684762782297241 0 -1 0 0.78801076186113728 0 -0.61566146476048833 forward_v I I I I #
face $-1 $112 $113 $40 $-1 $114 forward single #
loop $-1 $115 $116 $52 #
cone-surface $-1 -54.226864146432099 -15.718303887459935 6.7411204843176593 0.78801076186113728 0 -0.61566146476048833 0.61566146476048833 0 0.78801076186113728 1 I I 0 1 1 forward I I I I #
face $-1 $117 $118 $41 $-1 $119 forward single #
loop $-1 $120 $121 $53 #
cone-surface $-1 -54.226864146432099 -11.937583666690077 6.7411204843176593 0.78801076186113728 0 -0.61566146476048833 0.61566146476048833 0 0.78801076186113728 1 I I 0 1 1 forward I I I I #
face $-1 $122 $123 $42 $-1 $124 reversed single #
loop $-1 $-1 $125 $54 #
plane-surface $-1 -150.45909094395699 8.7455309828729497 74.684762782297241 0 -1 0 0.78801076186113728 0 -0.61566146476048833 forward_v I I I I #
face $-1 $126 $127 $43 $-1 $128 forward single #
loop $-1 $129 $130 $55 #
cone-surface $-1 -54.226864146432099 2.4443306149231816 6.7411204843176593 0.78801076186113728 0 -0.61566146476048833 0.61566146476048833 0 0.78801076186113728 1 I I 0 1 1 forward I I I I #
face $-1 $131 $132 $44 $-1 $133 forward single #
loop $-1 $134 $135 $56 #
cone-surface $-1 -54.226864146432099 6.2250508356930467 6.7411204843176593 0.78801076186113728 0 -0.61566146476048833 0.61566146476048833 0 0.78801076186113728 1 I I 0 1 1 forward I I I I #
face $-1 $136 $137 $45 $-1 $138 reversed single #
loop $-1 $-1 $139 $57 #
plane-surface $-1 58.407546092301203 3.7912544671478692 165.61422237949117 0 -1 0 -0.70710678939079041 0 -0.70710677298230451 forward_v I I I I #
face $-1 $140 $141 $46 $-1 $142 forward single #
loop $-1 $143 $144 $58 #
cone-surface $-1 52.34137188416581 -1.2085911377914229 5.6930609310009093 -0.70710678939079041 0 -0.70710677298230451 0.35355338649115226 0 -0.35355339469539521 1 I I 0 1 0.5 forward I I I I #
face $-1 $145 $146 $47 $-1 $147 forward single #
loop $-1 $148 $149 $59 #
cone-surface $-1 52.34137188416581 1.7913162251721531 5.6930609310009093 -0.70710678939079041 0 -0.70710677298230451 0.35355338649115226 0 -0.35355339469539521 1 I I 0 1 0.5 forward I I I I #
face $-1 $150 $151 $36 $-1 $152 reversed single #
loop $-1 $-1 $153 $60 #
plane-surface $-1 0 0 -11.75923334490793 0 0 1 1 0 0 forward_v I I I I #
coedge $-1 $154 $155 $156 $157 forward $61 $-1 #
face $-1 $158 $159 $37 $-1 $160 reversed single #
loop $-1 $-1 $161 $63 #
plane-surface $-1 0 -18.238784034639842 -9.8607525466078894 0 -1 0 0 0 -1 forward_v I I I I #
coedge $-1 $162 $163 $164 $165 reversed $64 $-1 #
face $-1 $166 $167 $38 $-1 $168 reversed single #
loop $-1 $-1 $169 $66 #
plane-surface $-1 0 18.086484970126399 -9.3632810276189247 0 1 0 0 0 1 forward_v I I I I #
coedge $-1 $170 $171 $172 $173 reversed $67 $-1 #
face $-1 $174 $175 $39 $-1 $176 reversed single #
loop $-1 $-1 $177 $69 #
plane-surface $-1 -58.407544175542483 -13.827943777075006 2.766214381942433 -0.78801076186113728 0 0.61566146476048833 0.61566146476048833 0 0.78801076186113728 forward_v I I I I #
coedge $-1 $178 $179 $180 $181 reversed $70 $-1 #
face $-1 $-1 $182 $40 $-1 $183 forward single #
loop $-1 $184 $185 $72 #
cone-surface $-1 -53.165236866639049 -15.718303887459935 5.9116863728299016 0.78801076186113728 0 -0.61566146476048833 0.30783073238024417 0 0.39400538093056864 1 I I -0.70710678118654746 0.70710678118654746 0.5 forward I I I I #
loop $-1 $-1 $186 $52 #
coedge $-1 $116 $116 $187 $188 reversed $73 $-1 #
face $-1 $-1 $189 $41 $-1 $190 forward single #
loop $-1 $191 $192 $75 #
cone-surface $-1 -53.165236866639049 -11.937583666690077 5.9116863728299016 0.78801076186113728 0 -0.61566146476048833 0.30783073238024417 0 0.39400538093056864 1 I I -0.70710678118654746 0.70710678118654746 0.5 forward I I I I #
loop $-1 $-1 $193 $53 #
coedge $-1 $121 $121 $194 $195 reversed $76 $-1 #
face $-1 $196 $197 $42 $-1 $198 reversed single #
loop $-1 $-1 $199 $78 #
plane-surface $-1 -58.407544175542483 4.3346907253081142 2.766214381942433 -0.78801076186113728 0 0.61566146476048833 0.61566146476048833 0 0.78801076186113728 forward_v I I I I #
coedge $-1 $200 $201 $202 $203 reversed $79 $-1 #
face $-1 $-1 $204 $43 $-1 $205 forward single #
loop $-1 $206 $207 $81 #
cone-surface $-1 -53.165236866639049 2.4443306149231816 5.9116863728299016 0.78801076186113728 0 -0.61566146476048833 0.30783073238024417 0 0.39400538093056864 1 I I -0.70710678118654746 0.70710678118654746 0.5 forward I I I I #
loop $-1 $-1 $208 $55 #
coedge $-1 $130 $130 $209 $210 reversed $82 $-1 #
face $-1 $-1 $211 $44 $-1 $212 forward single #
loop $-1 $213 $214 $84 #
cone-surface $-1 -53.165236866639049 6.2250508356930467 5.9116863728299016 0.78801076186113728 0 -0.61566146476048833 0.30783073238024417 0 0.39400538093056864 1 I I -0.70710678118654746 0.70710678118654746 0.5 forward I I I I #
loop $-1 $-1 $215 $56 #
coedge $-1 $135 $135 $216 $217 reversed $85 $-1 #
face $-1 $218 $219 $45 $-1 $220 reversed single #
loop $-1 $-1 $221 $87 #
plane-surface $-1 -24.193195984035995 0.29136254369036152 83.013482219912703 0.70710678939079041 0 0.70710677298230451 0.70710677298230451 0 -0.70710678939079041 forward_v I I I I #
coedge $-1 $222 $223 $224 $225 reversed $88 $-1 #
face $-1 $-1 $226 $46 $-1 $227 forward single #
loop $-1 $228 $229 $90 #
cone-surface $-1 51.771669364459413 -1.2085911377914229 5.1233584245145174 -0.70710678939079041 0 -0.70710677298230451 0.17677669324557613 0 -0.1767766973476976 1 I I -0.70710678118654746 0.70710678118654746 0.25 forward I I I I #
loop $-1 $-1 $230 $58 #
coedge $-1 $144 $144 $231 $232 reversed $91 $-1 #
face $-1 $-1 $233 $47 $-1 $234 forward single #
loop $-1 $235 $236 $93 #
cone-surface $-1 51.771669364459413 1.7913162251721531 5.1233584245145174 -0.70710678939079041 0 -0.70710677298230451 0.17677669324557613 0 -0.1767766973476976 1 I I -0.70710678118654746 0.70710678118654746 0.25 forward I I I I #
loop $-1 $-1 $237 $59 #
coedge $-1 $149 $149 $238 $239 reversed $94 $-1 #
face $-1 $240 $241 $36 $-1 $242 reversed single #
loop $-1 $-1 $243 $96 #
plane-surface $-1 0 -33.544721589730479 0 0 1 0 0 0 1 forward_v I I I I #
coedge $-1 $244 $245 $246 $247 forward $97 $-1 #
coedge $-1 $248 $99 $249 $250 forward $61 $-1 #
coedge $-1 $99 $248 $251 $252 forward $61 $-1 #
coedge $-1 $253 $254 $99 $157 reversed $255 $-1 #
edge $-1 $256 -33.544721589730479 $257 33.544721589730479 $156 $258 forward 7 unknown #
face $-1 $259 $260 $37 $-1 $261 reversed single #
loop $-1 $-1 $262 $100 #
plane-surface $-1 0 0 -11.75923334490793 0 0 1 1 0 0 forward_v I I I I #
coedge $-1 $263 $264 $265 $266 reversed $101 $-1 #
coedge $-1 $267 $103 $264 $268 forward $64 $-1 #
coedge $-1 $103 $267 $269 $270 reversed $64 $-1 #
coedge $-1 $271 $265 $103 $165 forward $260 $-1 #
edge $-1 $272 5.2929076285472618 $273 20.598845183637899 $164 $274 forward 7 unknown #
face $-1 $275 $276 $38 $-1 $277 reversed single #
loop $-1 $-1 $172 $104 #
plane-surface $-1 58.407544175542469 0 0 -1 0 0 0 0 1 forward_v I I I I #
coedge $-1 $278 $279 $280 $281 reversed $105 $-1 #
coedge $-1 $282 $107 $283 $284 reversed $67 $-1 #
coedge $-1 $107 $282 $279 $285 forward $67 $-1 #
coedge $-1 $286 $287 $107 $173 forward $167 $-1 #
edge $-1 $288 -20.636919949766259 $289 -5.1786833301621797 $172 $290 forward 7 unknown #
face $-1 $291 $292 $39 $-1 $293 reversed single #
loop $-1 $-1 $294 $108 #
plane-surface $-1 -150.45909094395699 -18.238784034639842 74.684762782297241 0 1 0 -0.78801076186113728 0 0.61566146476048833 forward_v I I I I #
coedge $-1 $295 $296 $297 $298 reversed $109 $-1 #
coedge $-1 $179 $111 $299 $300 reversed $70 $-1 #
coedge $-1 $111 $178 $295 $301 reversed $70 $-1 #
coedge $-1 $297 $302 $111 $181 forward $292 $-1 #
edge $-1 $303 25.583148046240691 $304 34.576167009206166 $180 $305 forward 7 unknown #
loop $-1 $-1 $187 $112 #
plane-surface $-1 -58.407544175542483 -13.827943777075006 2.766214381942433 -0.78801076186113728 0 0.61566146476048833 0.61566146476048833 0 0.78801076186113728 forward_v I I I I #
loop $-1 $-1 $306 $72 #
coedge $-1 $185 $185 $186 $307 reversed $113 $-1 #
coedge $-1 $186 $186 $185 $307 forward $115 $-1 #
coedge $-1 $187 $187 $116 $188 forward $182 $-1 #
edge $-1 $308 0 $308 6.2831853071796004 $187 $309 forward 7 unknown #
loop $-1 $-1 $194 $117 #
plane-surface $-1 -58.407544175542483 -13.827943777075006 2.766214381942433 -0.78801076186113728 0 0.61566146476048833 0.61566146476048833 0 0.78801076186113728 forward_v I I I I #
loop $-1 $-1 $310 $75 #
coedge $-1 $192 $192 $193 $311 reversed $118 $-1 #
coedge $-1 $193 $193 $192 $311 forward $120 $-1 #
coedge $-1 $194 $194 $121 $195 forward $189 $-1 #
edge $-1 $312 0 $312 6.2831853071796004 $194 $313 forward 7 unknown #
face $-1 $314 $315 $42 $-1 $316 forward single #
loop $-1 $-1 $317 $122 #
plane-surface $-1 -150.45909094395699 -0.076149532256721386 74.684762782297241 0 1 0 -0.78801076186113728 0 0.61566146476048833 forward_v I I I I #
coedge $-1 $318 $319 $320 $321 reversed $123 $-1 #
coedge $-1 $201 $125 $322 $323 reversed $79 $-1 #
coedge $-1 $125 $200 $318 $324 reversed $79 $-1 #
coedge $-1 $320 $325 $125 $203 forward $326 $-1 #
edge $-1 $327 25.583148046240691 $328 34.576167009206166 $202 $329 forward 7 unknown #
loop $-1 $-1 $209 $126 #
plane-surface $-1 -58.407544175542483 4.3346907253081142 2.766214381942433 -0.78801076186113728 0 0.61566146476048833 0.61566146476048833 0 0.78801076186113728 forward_v I I I I #
loop $-1 $-1 $330 $81 #
coedge $-1 $207 $207 $208 $331 reversed $127 $-1 #
coedge $-1 $208 $208 $207 $331 forward $129 $-1 #
coedge $-1 $209 $209 $130 $210 forward $204 $-1 #
edge $-1 $332 0 $332 6.2831853071796004 $209 $333 forward 7 unknown #
loop $-1 $-1 $216 $131 #
plane-surface $-1 -58.407544175542483 4.3346907253081142 2.766214381942433 -0.78801076186113728 0 0.61566146476048833 0.61566146476048833 0 0.78801076186113728 forward_v I I I I #
loop $-1 $-1 $334 $84 #
coedge $-1 $214 $214 $215 $335 reversed $132 $-1 #
coedge $-1 $215 $215 $214 $335 forward $134 $-1 #
coedge $-1 $216 $216 $135 $217 forward $211 $-1 #
edge $-1 $336 0 $336 6.2831853071796004 $216 $337 forward 7 unknown #
face $-1 $338 $339 $45 $-1 $340 forward single #
loop $-1 $-1 $341 $136 #
plane-surface $-1 58.407546092301203 -3.2085293797671461 165.61422237949117 0 1 0 0.70710678939079041 0 0.70710677298230451 forward_v I I I I #
coedge $-1 $342 $343 $344 $345 reversed $137 $-1 #
coedge $-1 $223 $139 $346 $347 reversed $88 $-1 #
coedge $-1 $139 $222 $342 $348 reversed $88 $-1 #
coedge $-1 $344 $349 $139 $225 forward $339 $-1 #
edge $-1 $350 -29.203771129391868 $351 -17.857278191355988 $224 $352 forward 7 unknown #
loop $-1 $-1 $231 $140 #
plane-surface $-1 -24.193195984035995 0.29136254369036152 83.013482219912703 0.70710678939079041 0 0.70710677298230451 0.70710677298230451 0 -0.70710678939079041 forward_v I I I I #
loop $-1 $-1 $353 $90 #
coedge $-1 $229 $229 $230 $354 reversed $141 $-1 #
coedge $-1 $230 $230 $229 $354 forward $143 $-1 #
coedge $-1 $231 $231 $144 $232 forward $226 $-1 #
edge $-1 $355 0 $355 6.2831853071796004 $231 $356 forward 7 unknown #
loop $-1 $-1 $238 $145 #
plane-surface $-1 -24.193195984035995 0.29136254369036152 83.013482219912703 0.70710678939079041 0 0.70710677298230451 0.70710677298230451 0 -0.70710678939079041 forward_v I I I I #
loop $-1 $-1 $357 $93 #
coedge $-1 $236 $236 $237 $358 reversed $146 $-1 #
coedge $-1 $237 $237 $236 $358 forward $148 $-1 #
coedge $-1 $238 $238 $149 $239 forward $233 $-1 #
edge $-1 $359 0 $359 6.2831853071796004 $238 $360 forward 7 unknown #
face $-1 $361 $362 $36 $-1 $363 reversed single #
loop $-1 $-1 $364 $150 #
plane-surface $-1 -58.407544175542469 0 0 1 0 0 0 0 -1 forward_v I I I I #
coedge $-1 $365 $251 $366 $367 forward $151 $-1 #
coedge $-1 $368 $153 $365 $369 forward $97 $-1 #
coedge $-1 $153 $368 $370 $371 forward $97 $-1 #
coedge $-1 $254 $253 $153 $247 reversed $255 $-1 #
edge $-1 $372 -33.544721589730479 $373 33.544721589730479 $246 $374 forward 7 unknown #
coedge $-1 $155 $154 $375 $376 forward $61 $-1 #
coedge $-1 $377 $378 $154 $250 reversed $362 $-1 #
edge $-1 $257 -58.407544175542469 $379 58.407544175542469 $249 $380 forward 7 unknown #
coedge $-1 $243 $381 $155 $252 reversed $151 $-1 #
edge $-1 $382 -58.407544175542469 $256 58.407544175542469 $251 $383 forward 7 unknown #
coedge $-1 $246 $156 $381 $384 forward $255 $-1 #
coedge $-1 $156 $246 $377 $385 reversed $255 $-1 #
loop $-1 $-1 $253 $361 #
vertex $-1 $157 $386 #
vertex $-1 $157 $387 #
straight-curve $-1 58.407544175542469 0 11.75923334490793 0 1 0 I I #
face $-1 $388 $389 $37 $-1 $390 reversed single #
loop $-1 $-1 $265 $158 #
plane-surface $-1 58.407544175542469 0 0 -1 0 0 0 0 1 forward_v I I I I #
coedge $-1 $391 $392 $263 $393 forward $159 $-1 #
coedge $-1 $394 $161 $262 $393 reversed $101 $-1 #
coedge $-1 $161 $394 $162 $268 reversed $101 $-1 #
coedge $-1 $164 $395 $161 $266 forward $260 $-1 #
edge $-1 $396 -6.8288570716039851 $272 -3.0318954750039042 $265 $397 forward 7 unknown #
coedge $-1 $163 $162 $398 $399 reversed $64 $-1 #
edge $-1 $272 -58.407544175542469 $400 58.407544175542469 $264 $401 forward 7 unknown #
coedge $-1 $402 $403 $163 $270 forward $389 $-1 #
edge $-1 $273 -58.407544175542469 $404 58.407544175542469 $269 $405 forward 7 unknown #
coedge $-1 $395 $164 $403 $406 forward $260 $-1 #
vertex $-1 $165 $407 #
vertex $-1 $406 $408 #
straight-curve $-1 58.407544175542469 -12.94587640609258 -7.9622717483078489 0 -1 0 I I #
face $-1 $409 $410 $38 $-1 $411 reversed single #
loop $-1 $-1 $412 $166 #
plane-surface $-1 0 0 -11.75923334490793 0 0 1 1 0 0 forward_v I I I I #
coedge $-1 $413 $169 $412 $414 reversed $105 $-1 #
coedge $-1 $169 $413 $171 $285 reversed $105 $-1 #
coedge $-1 $415 $416 $169 $281 forward $410 $-1 #
edge $-1 $417 -7.0775928310984675 $418 -2.2856881965204581 $280 $419 forward 7 unknown #
coedge $-1 $171 $170 $415 $420 reversed $67 $-1 #
coedge $-1 $421 $422 $170 $284 forward $423 $-1 #
edge $-1 $424 -58.407544175542469 $288 58.407544175542469 $283 $425 forward 7 unknown #
edge $-1 $418 -58.407544175542469 $289 58.407544175542469 $279 $426 forward 7 unknown #
coedge $-1 $427 $172 $413 $428 forward $167 $-1 #
coedge $-1 $172 $427 $421 $429 reversed $167 $-1 #
vertex $-1 $429 $430 #
vertex $-1 $173 $431 #
straight-curve $-1 58.407544175542469 12.907801639964219 -6.9673287103299204 0 -1 0 I I #
face $-1 $-1 $432 $39 $-1 $433 forward single #
loop $-1 $-1 $180 $174 #
plane-surface $-1 -58.407544175542469 0 0 1 0 0 0 0 -1 forward_v I I I I #
coedge $-1 $434 $435 $436 $437 reversed $175 $-1 #
coedge $-1 $438 $177 $179 $301 forward $109 $-1 #
coedge $-1 $177 $438 $434 $439 forward $109 $-1 #
coedge $-1 $436 $180 $177 $298 forward $292 $-1 #
edge $-1 $304 2.5031316309726677 $440 11.324812146102339 $297 $441 forward 7 unknown #
coedge $-1 $442 $443 $178 $300 forward $432 $-1 #
edge $-1 $444 -23.848117556931768 $303 -16.822001296436028 $299 $445 forward 7 unknown #
edge $-1 $304 2.3096905769578348e-014 $444 11.412304752952398 $179 $446 forward 7 unknown #
coedge $-1 $180 $436 $442 $447 reversed $292 $-1 #
vertex $-1 $447 $448 #
vertex $-1 $181 $449 #
straight-curve $-1 -58.407544175542469 -9.4171035195101709 37.342381391148621 0 0 -1 I I #
coedge $-1 $306 $306 $-1 $450 reversed $184 $-1 #
edge $-1 $451 0 $451 6.2831853071796004 $185 $452 forward 7 unknown #
vertex $-1 $188 $453 #
ellipse-curve $-1 -54.894486045294599 -15.718303887459935 7.2627238634251867 -0.78801076186113728 0 0.61566146476048833 0.61566146476048833 0 0.78801076186113728 1 I I #
coedge $-1 $310 $310 $-1 $454 reversed $191 $-1 #
edge $-1 $455 0 $455 6.2831853071796004 $192 $456 forward 7 unknown #
vertex $-1 $195 $457 #
ellipse-curve $-1 -54.894486045294599 -11.937583666690077 7.2627238634251867 -0.78801076186113728 0 0.61566146476048833 0.61566146476048833 0 0.78801076186113728 1 I I #
face $-1 $-1 $326 $42 $-1 $458 reversed single #
loop $-1 $-1 $459 $196 #
plane-surface $-1 0 0 11.75923334490793 0 0 1 1 0 0 forward_v I I I I #
coedge $-1 $460 $461 $462 $463 reversed $197 $-1 #
coedge $-1 $464 $199 $201 $324 forward $123 $-1 #
coedge $-1 $199 $464 $460 $465 forward $123 $-1 #
coedge $-1 $462 $202 $199 $321 forward $326 $-1 #
edge $-1 $328 -6.5781856202188926 $466 2.2434948949107785 $320 $467 forward 7 unknown #
coedge $-1 $468 $469 $200 $323 forward $315 $-1 #
edge $-1 $470 -23.848117556931768 $327 -16.822001296436028 $322 $471 forward 7 unknown #
edge $-1 $328 2.3096905769578348e-014 $470 11.412304752952398 $201 $472 forward 7 unknown #
coedge $-1 $202 $462 $468 $473 reversed $326 $-1 #
loop $-1 $-1 $462 $314 #
vertex $-1 $473 $474 #
vertex $-1 $203 $475 #
straight-curve $-1 -58.407544175542469 8.7455309828729497 37.342381391148621 0 0 -1 I I #
coedge $-1 $330 $330 $-1 $476 reversed $206 $-1 #
edge $-1 $477 0 $477 6.2831853071796004 $207 $478 forward 7 unknown #
vertex $-1 $210 $479 #
ellipse-curve $-1 -54.894486045294599 2.4443306149231816 7.2627238634251867 -0.78801076186113728 0 0.61566146476048833 0.61566146476048833 0 0.78801076186113728 1 I I #
coedge $-1 $334 $334 $-1 $480 reversed $213 $-1 #
edge $-1 $481 0 $481 6.2831853071796004 $214 $482 forward 7 unknown #
vertex $-1 $217 $483 #
ellipse-curve $-1 -54.894486045294599 6.2250508356930467 7.2627238634251867 -0.78801076186113728 0 0.61566146476048833 0.61566146476048833 0 0.78801076186113728 1 I I #
face $-1 $-1 $484 $45 $-1 $485 reversed single #
loop $-1 $-1 $224 $218 #
plane-surface $-1 0 0 11.75923334490793 0 0 1 1 0 0 forward_v I I I I #
coedge $-1 $486 $487 $488 $489 reversed $219 $-1 #
coedge $-1 $490 $221 $223 $348 forward $137 $-1 #
coedge $-1 $221 $490 $486 $491 forward $137 $-1 #
coedge $-1 $488 $224 $221 $345 forward $339 $-1 #
edge $-1 $351 -3.6455731953026884 $492 3.3542106516123269 $344 $493 forward 7 unknown #
coedge $-1 $494 $495 $222 $347 forward $484 $-1 #
edge $-1 $496 -82.394371046170079 $350 -71.047877844837657 $346 $497 forward 7 unknown #
edge $-1 $351 100.7687239665653 $496 116.81508835108498 $223 $498 forward 7 unknown #
coedge $-1 $224 $488 $494 $499 forward $339 $-1 #
vertex $-1 $225 $500 #
vertex $-1 $225 $501 #
straight-curve $-1 29.203773046150602 3.7912544671478692 11.759233344907926 -1 0 0 I I #
coedge $-1 $353 $353 $-1 $502 reversed $228 $-1 #
edge $-1 $503 0 $503 6.2831853071796004 $229 $504 forward 7 unknown #
vertex $-1 $232 $505 #
ellipse-curve $-1 52.734297706524515 -1.2085911377914229 6.0859867442417288 0.70710678939079041 0 0.70710677298230451 0.35355338649115226 0 -0.35355339469539521 1 I I #
coedge $-1 $357 $357 $-1 $506 reversed $235 $-1 #
edge $-1 $507 0 $507 6.2831853071796004 $236 $508 forward 7 unknown #
vertex $-1 $239 $509 #
ellipse-curve $-1 52.734297706524515 1.7913162251721531 6.0859867442417288 0.70710678939079041 0 0.70710677298230451 0.35355338649115226 0 -0.35355339469539521 1 I I #
face $-1 $-1 $255 $36 $-1 $510 reversed single #
loop $-1 $-1 $377 $240 #
plane-surface $-1 0 33.544721589730479 0 0 -1 0 0 0 -1 forward_v I I I I #
coedge $-1 $511 $375 $378 $512 forward $241 $-1 #
coedge $-1 $381 $243 $244 $369 reversed $151 $-1 #
coedge $-1 $375 $511 $243 $367 reversed $241 $-1 #
edge $-1 $382 -11.75923334490793 $513 11.75923334490793 $366 $514 forward 7 unknown #
coedge $-1 $245 $244 $511 $515 forward $97 $-1 #
edge $-1 $373 -58.407544175542469 $513 58.407544175542469 $365 $516 forward 7 unknown #
coedge $-1 $378 $377 $245 $371 reversed $362 $-1 #
edge $-1 $517 -58.407544175542469 $372 58.407544175542469 $370 $518 forward 7 unknown #
vertex $-1 $247 $519 #
vertex $-1 $384 $520 #
straight-curve $-1 58.407544175542469 0 -11.75923334490793 0 -1 0 I I #
coedge $-1 $364 $366 $248 $376 reversed $241 $-1 #
edge $-1 $379 -33.544721589730479 $382 33.544721589730479 $375 $521 forward 7 unknown #
coedge $-1 $370 $249 $254 $385 forward $362 $-1 #
coedge $-1 $249 $370 $364 $512 reversed $362 $-1 #
vertex $-1 $250 $522 #
straight-curve $-1 0 33.544721589730479 11.75923334490793 -1 0 0 I I #
coedge $-1 $251 $365 $253 $384 reversed $151 $-1 #
vertex $-1 $376 $523 #
straight-curve $-1 0 -33.544721589730479 11.75923334490793 1 0 0 I I #
edge $-1 $256 -11.75923334490793 $373 11.75923334490793 $253 $524 forward 7 unknown #
edge $-1 $257 -11.75923334490793 $372 11.75923334490793 $254 $525 forward 7 unknown #
point $-1 58.407544175542469 -33.544721589730479 11.75923334490793 #
point $-1 58.407544175542469 33.544721589730479 11.75923334490793 #
face $-1 $-1 $526 $37 $-1 $527 reversed single #
loop $-1 $-1 $269 $259 #
plane-surface $-1 0 -33.544721589730479 0 0 1 0 0 0 1 forward_v I I I I #
coedge $-1 $528 $262 $395 $529 forward $159 $-1 #
coedge $-1 $262 $528 $530 $531 forward $159 $-1 #
edge $-1 $532 -58.407544175542469 $396 58.407544175542469 $262 $533 forward 7 unknown #
coedge $-1 $264 $263 $534 $535 reversed $101 $-1 #
coedge $-1 $265 $271 $391 $529 reversed $260 $-1 #
vertex $-1 $529 $536 #
straight-curve $-1 58.407544175542469 -18.238784034639842 -4.9303762733039447 0 0 1 I I #
coedge $-1 $534 $537 $267 $399 forward $526 $-1 #
edge $-1 $404 -20.598845183637899 $400 -5.2929076285472618 $398 $538 forward 7 unknown #
vertex $-1 $399 $539 #
straight-curve $-1 0 -18.238784034639842 -7.9622717483078489 -1 0 0 I I #
coedge $-1 $540 $269 $537 $541 forward $389 $-1 #
coedge $-1 $269 $540 $271 $406 reversed $389 $-1 #
vertex $-1 $541 $542 #
straight-curve $-1 0 -33.544721589730479 -7.9622717483078489 -1 0 0 I I #
edge $-1 $273 7.9622717483078489 $543 11.75923334490793 $271 $544 forward 7 unknown #
point $-1 58.407544175542469 -18.238784034639842 -7.9622717483078489 #
point $-1 58.407544175542469 -33.544721589730479 -7.9622717483078489 #
face $-1 $-1 $423 $38 $-1 $545 reversed single #
loop $-1 $-1 $415 $275 #
plane-surface $-1 -58.407544175542469 0 0 1 0 0 0 0 -1 forward_v I I I I #
coedge $-1 $546 $547 $278 $414 forward $276 $-1 #
coedge $-1 $279 $278 $286 $428 reversed $105 $-1 #
edge $-1 $548 -58.407544175542469 $417 58.407544175542469 $412 $549 forward 7 unknown #
coedge $-1 $550 $280 $282 $420 forward $410 $-1 #
coedge $-1 $280 $550 $546 $551 reversed $410 $-1 #
vertex $-1 $551 $552 #
vertex $-1 $420 $553 #
straight-curve $-1 -58.407544175542469 18.086484970126399 -4.6816405138094623 0 0 1 I I #
edge $-1 $418 5.1786833301621797 $424 20.636919949766259 $415 $554 forward 7 unknown #
coedge $-1 $555 $283 $287 $429 forward $423 $-1 #
coedge $-1 $283 $555 $550 $556 reversed $423 $-1 #
loop $-1 $-1 $283 $409 #
vertex $-1 $556 $557 #
straight-curve $-1 0 33.544721589730479 -6.9673287103299204 1 0 0 I I #
straight-curve $-1 0 18.086484970126399 -6.9673287103299204 1 0 0 I I #
coedge $-1 $287 $286 $547 $558 reversed $167 $-1 #
edge $-1 $289 2.2856881965204581 $548 7.0775928310984675 $286 $559 forward 7 unknown #
edge $-1 $288 6.9673287103299204 $560 11.75923334490793 $287 $561 forward 7 unknown #
point $-1 58.407544175542469 33.544721589730479 -6.9673287103299204 #
point $-1 58.407544175542469 18.086484970126399 -6.9673287103299204 #
loop $-1 $-1 $299 $291 #
plane-surface $-1 0 0 11.75923334490793 0 0 1 1 0 0 forward_v I I I I #
coedge $-1 $435 $294 $296 $439 reversed $175 $-1 #
coedge $-1 $294 $434 $562 $563 reversed $175 $-1 #
coedge $-1 $302 $297 $294 $437 forward $292 $-1 #
edge $-1 $440 -34.576167009206166 $564 -25.583148046240691 $436 $565 forward 7 unknown #
coedge $-1 $296 $295 $443 $566 reversed $109 $-1 #
edge $-1 $567 -11.412304752952398 $440 -2.3096905769578348e-014 $434 $568 forward 7 unknown #
vertex $-1 $298 $569 #
straight-curve $-1 -58.407544175542469 -6.9139718885375032 2.7662143819424476 0 -1 0 I I #
coedge $-1 $562 $299 $302 $447 forward $432 $-1 #
coedge $-1 $299 $562 $438 $566 forward $432 $-1 #
vertex $-1 $300 $570 #
straight-curve $-1 -75.229545471978497 -9.4171035195101709 11.75923334490793 -1 0 0 I I #
straight-curve $-1 -58.407544175542483 -9.4171035195101709 2.766214381942433 0.61566146476048833 0 0.78801076186113728 I I #
edge $-1 $303 9.4171035195101709 $564 18.238784034639842 $302 $571 forward 7 unknown #
point $-1 -58.407544175542469 -9.4171035195101709 11.75923334490793 #
point $-1 -58.407544175542469 -9.4171035195101709 2.7662143819424512 #
edge $-1 $572 1 $572 0 $306 $-1 forward 7 unknown #
vertex $-1 $307 $573 #
ellipse-curve $-1 -53.559242247569614 -15.718303887459935 6.2195171052101461 -0.78801076186113728 0 0.61566146476048833 0.61566146476048833 0 0.78801076186113728 1 I I #
point $-1 -54.278824580534099 -15.718303887459935 8.0507346252863101 #
edge $-1 $574 1 $574 0 $310 $-1 forward 7 unknown #
vertex $-1 $311 $575 #
ellipse-curve $-1 -53.559242247569614 -11.937583666690077 6.2195171052101461 -0.78801076186113728 0 0.61566146476048833 0.61566146476048833 0 0.78801076186113728 1 I I #
point $-1 -54.278824580534099 -11.937583666690077 8.0507346252863101 #
plane-surface $-1 -58.407544175542469 0 0 1 0 0 0 0 -1 forward_v I I I I #
coedge $-1 $469 $468 $461 $576 forward $315 $-1 #
coedge $-1 $461 $317 $319 $465 reversed $197 $-1 #
coedge $-1 $317 $460 $459 $576 reversed $197 $-1 #
coedge $-1 $325 $320 $317 $463 forward $326 $-1 #
edge $-1 $466 -34.576167009206166 $577 -25.583148046240691 $462 $578 forward 7 unknown #
coedge $-1 $319 $318 $469 $579 reversed $123 $-1 #
edge $-1 $580 -11.412304752952398 $466 -2.3096905769578348e-014 $460 $581 forward 7 unknown #
vertex $-1 $321 $582 #
straight-curve $-1 -58.407544175542469 2.1673453626540571 2.7662143819424476 0 -1 0 I I #
coedge $-1 $459 $322 $325 $473 forward $315 $-1 #
coedge $-1 $322 $459 $464 $579 forward $315 $-1 #
vertex $-1 $323 $583 #
straight-curve $-1 -75.229545471978497 8.7455309828729497 11.75923334490793 -1 0 0 I I #
straight-curve $-1 -58.407544175542483 8.7455309828729497 2.766214381942433 0.61566146476048833 0 0.78801076186113728 I I #
edge $-1 $327 -8.7455309828729497 $577 0.076149532256721386 $325 $584 forward 7 unknown #
point $-1 -58.407544175542469 8.7455309828729497 11.75923334490793 #
point $-1 -58.407544175542469 8.7455309828729497 2.7662143819424512 #
edge $-1 $585 1 $585 0 $330 $-1 forward 7 unknown #
vertex $-1 $331 $586 #
ellipse-curve $-1 -53.559242247569614 2.4443306149231816 6.2195171052101461 -0.78801076186113728 0 0.61566146476048833 0.61566146476048833 0 0.78801076186113728 1 I I #
point $-1 -54.278824580534099 2.4443306149231816 8.0507346252863101 #
edge $-1 $587 1 $587 0 $334 $-1 forward 7 unknown #
vertex $-1 $335 $588 #
ellipse-curve $-1 -53.559242247569614 6.2250508356930467 6.2195171052101461 -0.78801076186113728 0 0.61566146476048833 0.61566146476048833 0 0.78801076186113728 1 I I #
point $-1 -54.278824580534099 6.2250508356930467 8.0507346252863101 #
loop $-1 $-1 $346 $338 #
plane-surface $-1 58.407544175542469 0 0 -1 0 0 0 0 1 forward_v I I I I #
coedge $-1 $487 $341 $343 $491 reversed $219 $-1 #
coedge $-1 $341 $486 $589 $590 reversed $219 $-1 #
coedge $-1 $349 $344 $341 $489 forward $339 $-1 #
edge $-1 $492 17.857278191355988 $591 29.203771129391868 $488 $592 forward 7 unknown #
coedge $-1 $343 $342 $495 $593 reversed $137 $-1 #
edge $-1 $594 -116.81508835108498 $492 -100.7687239665653 $486 $595 forward 7 unknown #
vertex $-1 $345 $596 #
straight-curve $-1 47.061051237506589 0.14568127184518076 11.759233344907926 0 -1 0 I I #
coedge $-1 $589 $346 $349 $499 reversed $484 $-1 #
coedge $-1 $346 $589 $490 $593 forward $484 $-1 #
vertex $-1 $347 $597 #
straight-curve $-1 58.407544175542469 3.7912544671478692 82.807111189745584 0 0 1 I I #
straight-curve $-1 -24.193195984035995 3.7912544671478692 83.013482219912703 0.70710677298230451 0 -0.70710678939079041 I I #
edge $-1 $591 -3.2085293797671461 $350 3.7912544671478692 $494 $598 forward 7 unknown #
point $-1 58.407544175542469 3.7912544671478692 11.75923334490793 #
point $-1 47.061051237506589 3.7912544671478692 11.759233344907926 #
edge $-1 $599 1 $599 0 $353 $-1 forward 7 unknown #
vertex $-1 $354 $600 #
ellipse-curve $-1 51.948446061807111 -1.2085911377914229 5.3001351177600933 0.70710678939079041 0 0.70710677298230451 0.35355338649115226 0 -0.35355339469539521 1 I I #
point $-1 53.087851093015665 -1.2085911377914229 5.73243334954633 #
edge $-1 $601 1 $601 0 $357 $-1 forward 7 unknown #
vertex $-1 $358 $602 #
ellipse-curve $-1 51.948446061807111 1.7913162251721531 5.3001351177600933 0.70710678939079041 0 0.70710677298230451 0.35355338649115226 0 -0.35355339469539521 1 I I #
point $-1 53.087851093015665 1.7913162251721531 5.73243334954633 #
plane-surface $-1 58.407544175542469 0 0 -1 0 0 0 0 1 forward_v I I I I #
coedge $-1 $366 $364 $368 $515 reversed $241 $-1 #
edge $-1 $379 -11.75923334490793 $517 11.75923334490793 $378 $603 forward 7 unknown #
vertex $-1 $515 $604 #
straight-curve $-1 -58.407544175542469 -33.544721589730479 0 0 0 -1 I I #
edge $-1 $513 -33.544721589730479 $517 33.544721589730479 $511 $605 forward 7 unknown #
straight-curve $-1 0 -33.544721589730479 -11.75923334490793 -1 0 0 I I #
vertex $-1 $371 $606 #
straight-curve $-1 0 33.544721589730479 -11.75923334490793 1 0 0 I I #
point $-1 58.407544175542469 33.544721589730479 -11.75923334490793 #
point $-1 58.407544175542469 -33.544721589730479 -11.75923334490793 #
straight-curve $-1 -58.407544175542469 0 11.75923334490793 0 -1 0 I I #
point $-1 -58.407544175542469 33.544721589730479 11.75923334490793 #
point $-1 -58.407544175542469 -33.544721589730479 11.75923334490793 #
straight-curve $-1 58.407544175542469 -33.544721589730479 0 0 0 -1 I I #
straight-curve $-1 58.407544175542469 33.544721589730479 0 0 0 -1 I I #
loop $-1 $-1 $534 $388 #
plane-surface $-1 -58.407544175542469 0 0 1 0 0 0 0 -1 forward_v I I I I #
coedge $-1 $392 $391 $540 $607 forward $159 $-1 #
edge $-1 $396 18.238784034639842 $543 33.544721589730479 $395 $608 forward 7 unknown #
coedge $-1 $537 $534 $392 $531 reversed $526 $-1 #
edge $-1 $609 -33.544721589730479 $532 -18.238784034639842 $530 $610 forward 7 unknown #
vertex $-1 $535 $611 #
straight-curve $-1 0 -18.238784034639842 -11.75923334490793 1 0 0 I I #
coedge $-1 $530 $398 $394 $535 forward $526 $-1 #
edge $-1 $400 3.0318954750039042 $532 6.8288570716039851 $534 $612 forward 7 unknown #
point $-1 58.407544175542469 -18.238784034639842 -11.75923334490793 #
coedge $-1 $398 $530 $402 $541 reversed $526 $-1 #
straight-curve $-1 -58.407544175542469 -12.94587640609258 -7.9622717483078489 0 1 0 I I #
point $-1 -58.407544175542469 -18.238784034639842 -7.9622717483078489 #
coedge $-1 $403 $402 $528 $607 reversed $389 $-1 #
edge $-1 $404 7.9622717483078489 $609 11.75923334490793 $537 $613 forward 7 unknown #
point $-1 -58.407544175542469 -33.544721589730479 -7.9622717483078489 #
vertex $-1 $406 $614 #
straight-curve $-1 58.407544175542469 -33.544721589730479 0 0 0 -1 I I #
plane-surface $-1 0 33.544721589730479 0 0 -1 0 0 0 -1 forward_v I I I I #
coedge $-1 $615 $412 $416 $551 forward $276 $-1 #
coedge $-1 $412 $615 $427 $558 forward $276 $-1 #
vertex $-1 $414 $616 #
straight-curve $-1 0 18.086484970126399 -11.75923334490793 -1 0 0 I I #
coedge $-1 $416 $415 $422 $556 forward $410 $-1 #
edge $-1 $417 18.086484970126399 $617 33.544721589730479 $416 $618 forward 7 unknown #
point $-1 -58.407544175542469 18.086484970126399 -11.75923334490793 #
point $-1 -58.407544175542469 18.086484970126399 -6.9673287103299204 #
straight-curve $-1 -58.407544175542469 12.907801639964219 -6.9673287103299204 0 1 0 I I #
coedge $-1 $422 $421 $615 $619 reversed $423 $-1 #
edge $-1 $424 6.9673287103299204 $617 11.75923334490793 $422 $620 forward 7 unknown #
point $-1 -58.407544175542469 33.544721589730479 -6.9673287103299204 #
edge $-1 $560 -33.544721589730479 $548 -18.086484970126399 $427 $621 forward 7 unknown #
straight-curve $-1 58.407544175542469 18.086484970126399 -4.6816405138094623 0 0 -1 I I #
vertex $-1 $558 $622 #
straight-curve $-1 58.407544175542469 33.544721589730479 0 0 0 -1 I I #
coedge $-1 $443 $442 $435 $563 forward $432 $-1 #
edge $-1 $564 16.822001296436028 $567 23.848117556931768 $562 $623 forward 7 unknown #
vertex $-1 $563 $624 #
straight-curve $-1 -58.407544175542469 -18.238784034639842 37.342381391148621 0 0 1 I I #
edge $-1 $567 -11.324812146102339 $444 -2.5031316309726677 $443 $625 forward 7 unknown #
vertex $-1 $566 $626 #
straight-curve $-1 -58.407544175542483 -18.238784034639842 2.766214381942433 -0.61566146476048833 0 -0.78801076186113728 I I #
point $-1 -58.407544175542469 -18.238784034639842 2.7662143819424512 #
point $-1 -51.381427915046729 -9.4171035195101709 11.75923334490793 #
straight-curve $-1 -58.407544175542469 0 11.75923334490793 0 -1 0 I I #
vertex $-1 $450 $627 #
point $-1 -52.943580782809128 -15.718303887459935 7.0075278670712828 #
vertex $-1 $454 $628 #
point $-1 -52.943580782809128 -11.937583666690077 7.0075278670712828 #
edge $-1 $577 16.822001296436028 $580 23.848117556931768 $459 $629 forward 7 unknown #
vertex $-1 $576 $630 #
straight-curve $-1 -58.407544175542469 -0.076149532256721386 37.342381391148621 0 0 1 I I #
edge $-1 $580 -2.2434948949107785 $470 6.5781856202188926 $469 $631 forward 7 unknown #
vertex $-1 $579 $632 #
straight-curve $-1 -58.407544175542483 -0.076149532256721386 2.766214381942433 -0.61566146476048833 0 -0.78801076186113728 I I #
point $-1 -58.407544175542469 -0.076149532256721386 2.7662143819424512 #
point $-1 -51.381427915046729 8.7455309828729497 11.75923334490793 #
straight-curve $-1 -58.407544175542469 0 11.75923334490793 0 -1 0 I I #
vertex $-1 $476 $633 #
point $-1 -52.943580782809128 2.4443306149231816 7.0075278670712828 #
vertex $-1 $480 $634 #
point $-1 -52.943580782809128 6.2250508356930467 7.0075278670712828 #
coedge $-1 $495 $494 $487 $590 forward $484 $-1 #
edge $-1 $591 71.047877844837657 $594 82.394371046170079 $589 $635 forward 7 unknown #
vertex $-1 $499 $636 #
straight-curve $-1 29.203773046150602 -3.2085293797671461 11.759233344907926 1 0 0 I I #
edge $-1 $594 -3.3542106516123269 $496 3.6455731953026884 $495 $637 forward 7 unknown #
vertex $-1 $593 $638 #
straight-curve $-1 -24.193195984035995 -3.2085293797671461 83.013482219912703 -0.70710677298230451 0 0.70710678939079041 I I #
point $-1 47.061051237506589 -3.2085293797671461 11.759233344907926 #
point $-1 58.407544175542469 3.7912544671478692 0.4127401435755047 #
straight-curve $-1 58.407544175542469 0 11.75923334490793 0 1 0 I I #
vertex $-1 $502 $639 #
point $-1 52.301999448298261 -1.2085911377914229 4.946581723064698 #
vertex $-1 $506 $640 #
point $-1 52.301999448298261 1.7913162251721531 4.946581723064698 #
straight-curve $-1 -58.407544175542469 33.544721589730479 0 0 0 -1 I I #
point $-1 -58.407544175542469 -33.544721589730479 -11.75923334490793 #
straight-curve $-1 -58.407544175542469 0 -11.75923334490793 0 1 0 I I #
point $-1 -58.407544175542469 33.544721589730479 -11.75923334490793 #
edge $-1 $543 -58.407544175542469 $609 58.407544175542469 $540 $641 forward 7 unknown #
straight-curve $-1 58.407544175542469 0 -11.75923334490793 0 -1 0 I I #
vertex $-1 $531 $642 #
straight-curve $-1 -58.407544175542469 0 -11.75923334490793 0 1 0 I I #
point $-1 -58.407544175542469 -18.238784034639842 -11.75923334490793 #
straight-curve $-1 -58.407544175542469 -18.238784034639842 -4.9303762733039447 0 0 -1 I I #
straight-curve $-1 -58.407544175542469 -33.544721589730479 0 0 0 -1 I I #
point $-1 58.407544175542469 -33.544721589730479 -11.75923334490793 #
coedge $-1 $547 $546 $555 $619 forward $276 $-1 #
point $-1 58.407544175542469 18.086484970126399 -11.75923334490793 #
vertex $-1 $619 $643 #
straight-curve $-1 -58.407544175542469 0 -11.75923334490793 0 1 0 I I #
edge $-1 $617 -58.407544175542469 $560 58.407544175542469 $555 $644 forward 7 unknown #
straight-curve $-1 -58.407544175542469 33.544721589730479 0 0 0 -1 I I #
straight-curve $-1 58.407544175542469 0 -11.75923334490793 0 -1 0 I I #
point $-1 58.407544175542469 33.544721589730479 -11.75923334490793 #
straight-curve $-1 -75.229545471978497 -18.238784034639842 11.75923334490793 1 0 0 I I #
point $-1 -58.407544175542469 -18.238784034639842 11.75923334490793 #
straight-curve $-1 -51.381427915046721 -6.9139718885375032 11.75923334490793 0 1 0 I I #
point $-1 -51.381427915046729 -18.238784034639842 11.75923334490793 #
point $-1 -52.771231485708483 -15.718303887459935 5.6038556404496571 #
point $-1 -52.771231485708483 -11.937583666690077 5.6038556404496571 #
straight-curve $-1 -75.229545471978497 -0.076149532256721386 11.75923334490793 1 0 0 I I #
point $-1 -58.407544175542469 -0.076149532256721386 11.75923334490793 #
straight-curve $-1 -51.381427915046721 2.1673453626540571 11.75923334490793 0 1 0 I I #
point $-1 -51.381427915046729 -0.076149532256721386 11.75923334490793 #
point $-1 -52.771231485708483 2.4443306149231816 5.6038556404496571 #
point $-1 -52.771231485708483 6.2250508356930467 5.6038556404496571 #
straight-curve $-1 58.407544175542469 -3.2085293797671461 82.807111189745584 0 0 -1 I I #
point $-1 58.407544175542469 -3.2085293797671461 11.75923334490793 #
straight-curve $-1 58.407544175542469 0.14568127184518076 0.4127401435755047 0 1 0 I I #
point $-1 58.407544175542469 -3.2085293797671461 0.4127401435755047 #
point $-1 51.594892667111715 -1.2085911377914229 4.9465817312689415 #
point $-1 51.594892667111715 1.7913162251721531 4.9465817312689415 #
straight-curve $-1 0 -33.544721589730479 -11.75923334490793 -1 0 0 I I #
point $-1 -58.407544175542469 -33.544721589730479 -11.75923334490793 #
point $-1 -58.407544175542469 33.544721589730479 -11.75923334490793 #
straight-curve $-1 0 33.544721589730479 -11.75923334490793 1 0 0 I I #
End-of-ACIS-data 