500 0 4 0           
7 Unknown 11 ACIS 5.0 NT 24 Thu Mar 25 16:39:33 1999 
-1 9.9999999999999995e-007 1e-010 
body $-1 $4 $-1 $5 #
body $-1 $6 $-1 $7 #
body $-1 $8 $-1 $9 #
body $-1 $10 $-1 $11 #
lump $-1 $-1 $12 $0 #
transform $-1 1 0 0 0 1 0 0 0 1 61.001617481002228 38.693869392136676 13.946537848504649 1 rotate no_reflect no_shear #
lump $-1 $-1 $13 $1 #
transform $-1 1 0 0 0 1 0 0 0 1 61.001617481002228 38.693869392136676 13.946537848504649 1 rotate no_reflect no_shear #
lump $-1 $-1 $14 $2 #
transform $-1 1 0 0 0 1 0 0 0 1 61.001617481002228 38.693869392136676 13.946537848504649 1 rotate no_reflect no_shear #
lump $-1 $-1 $15 $3 #
transform $-1 1 0 0 0 1 0 0 0 1 61.001617481002228 38.693869392136676 13.946537848504649 1 rotate no_reflect no_shear #
shell $-1 $-1 $-1 $16 $-1 $4 #
shell $-1 $-1 $-1 $17 $-1 $6 #
shell $-1 $-1 $-1 $18 $-1 $8 #
shell $-1 $-1 $-1 $19 $-1 $10 #
face $-1 $20 $21 $12 $-1 $22 forward single #
face $-1 $23 $24 $13 $-1 $25 forward single #
face $-1 $26 $27 $14 $-1 $28 reversed single #
face $-1 $29 $30 $15 $-1 $31 forward single #
face $-1 $32 $33 $12 $-1 $34 reversed single #
loop $-1 $-1 $35 $16 #
plane-surface $-1 0 0 13.946537848504649 0 0 1 1 0 0 forward_v I I I I #
face $-1 $36 $37 $13 $-1 $38 reversed single #
loop $-1 $-1 $39 $17 #
plane-surface $-1 0 -32.658428206017078 -8.0205255048439472 0 0 1 1 0 0 forward_v I I I I #
face $-1 $40 $41 $14 $-1 $42 reversed single #
loop $-1 $-1 $43 $18 #
plane-surface $-1 57.9904051493004 26.002660867752454 178.53633774950237 0 1 0 0.69465837861970381 0 0.71933979245794832 forward_v I I I I #
face $-1 $44 $45 $15 $-1 $46 forward single #
loop $-1 $47 $48 $19 #
cone-surface $-1 54.293509392051163 32.348265129944565 7.2865799962166422 -0.69465837861970381 0 -0.71933979245794832 1.4386795849158966 0 -1.3893167572394076 1 I I 0 1 2 forward I I I I #
face $-1 $49 $50 $12 $-1 $51 reversed single #
loop $-1 $-1 $52 $20 #
plane-surface $-1 0 0 -13.946537848504649 0 0 1 1 0 0 forward_v I I I I #
coedge $-1 $53 $54 $55 $56 forward $21 $-1 #
face $-1 $57 $58 $13 $-1 $59 reversed single #
loop $-1 $-1 $60 $23 #
plane-surface $-1 0 -26.622987019897483 -10.983531676674298 0 -1 0 0 0 -1 forward_v I I I I #
coedge $-1 $61 $62 $63 $64 reversed $24 $-1 #
face $-1 $65 $66 $14 $-1 $67 forward single #
loop $-1 $-1 $68 $26 #
plane-surface $-1 -26.760164235764378 32.348265129944565 90.774556032735774 0.69465837861970381 0 0.71933979245794832 0.71933979245794832 0 -0.69465837861970381 forward_v I I I I #
coedge $-1 $69 $70 $71 $72 reversed $27 $-1 #
face $-1 $-1 $73 $15 $-1 $74 forward single #
loop $-1 $75 $76 $29 #
cone-surface $-1 50.992763796861695 32.348265129944565 3.8685579518875084 -0.69465837861970381 0 -0.71933979245794832 0.71933979245794832 0 -0.69465837861970381 1 I I -0.70710678118654746 0.70710678118654746 1 forward I I I I #
loop $-1 $-1 $77 $19 #
coedge $-1 $48 $48 $78 $79 reversed $30 $-1 #
face $-1 $80 $81 $12 $-1 $82 reversed single #
loop $-1 $-1 $83 $32 #
plane-surface $-1 0 -38.693869392136676 0 0 1 0 0 0 1 forward_v I I I I #
coedge $-1 $84 $85 $86 $87 forward $33 $-1 #
coedge $-1 $88 $35 $89 $90 forward $21 $-1 #
coedge $-1 $35 $88 $91 $92 forward $21 $-1 #
coedge $-1 $93 $94 $35 $56 reversed $95 $-1 #
edge $-1 $96 -38.693869392136676 $97 38.693869392136676 $55 $98 forward 7 unknown #
face $-1 $99 $100 $13 $-1 $101 reversed single #
loop $-1 $-1 $102 $36 #
plane-surface $-1 0 0 -13.946537848504649 0 0 1 1 0 0 forward_v I I I I #
coedge $-1 $103 $104 $105 $106 reversed $37 $-1 #
coedge $-1 $107 $39 $104 $108 forward $24 $-1 #
coedge $-1 $39 $107 $109 $110 reversed $24 $-1 #
coedge $-1 $111 $105 $39 $64 forward $100 $-1 #
edge $-1 $112 10.293772916888944 $113 22.364655289128137 $63 $114 forward 7 unknown #
face $-1 $115 $116 $14 $-1 $117 reversed single #
loop $-1 $-1 $118 $40 #
plane-surface $-1 0 0 13.946537848504649 0 0 1 1 0 0 forward_v I I I I #
coedge $-1 $119 $120 $121 $122 reversed $41 $-1 #
coedge $-1 $70 $43 $123 $124 reversed $27 $-1 #
coedge $-1 $43 $69 $119 $125 reversed $27 $-1 #
coedge $-1 $121 $126 $43 $72 forward $127 $-1 #
edge $-1 $128 75.321631026246536 $129 83.244182227080202 $71 $130 forward 7 unknown #
loop $-1 $-1 $78 $44 #
plane-surface $-1 -26.760164235764378 32.348265129944565 90.774556032735774 0.69465837861970381 0 0.71933979245794832 0.71933979245794832 0 -0.69465837861970381 forward_v I I I I #
loop $-1 $-1 $131 $29 #
coedge $-1 $76 $76 $77 $132 reversed $45 $-1 #
coedge $-1 $77 $77 $76 $132 forward $47 $-1 #
coedge $-1 $78 $78 $48 $79 forward $73 $-1 #
edge $-1 $133 0 $133 6.2831853071796004 $78 $134 forward 7 unknown #
face $-1 $135 $136 $12 $-1 $137 reversed single #
loop $-1 $-1 $138 $49 #
plane-surface $-1 -61.001617481002228 0 0 1 0 0 0 0 -1 forward_v I I I I #
coedge $-1 $139 $91 $140 $141 forward $50 $-1 #
coedge $-1 $142 $52 $139 $143 forward $33 $-1 #
coedge $-1 $52 $142 $144 $145 forward $33 $-1 #
coedge $-1 $94 $93 $52 $87 reversed $95 $-1 #
edge $-1 $146 -38.693869392136676 $147 38.693869392136676 $86 $148 forward 7 unknown #
coedge $-1 $54 $53 $149 $150 forward $21 $-1 #
coedge $-1 $151 $152 $53 $90 reversed $136 $-1 #
edge $-1 $97 -61.001617481002228 $153 61.001617481002228 $89 $154 forward 7 unknown #
coedge $-1 $83 $155 $54 $92 reversed $50 $-1 #
edge $-1 $156 -61.001617481002228 $96 61.001617481002228 $91 $157 forward 7 unknown #
coedge $-1 $86 $55 $155 $158 forward $95 $-1 #
coedge $-1 $55 $86 $151 $159 reversed $95 $-1 #
loop $-1 $-1 $93 $135 #
vertex $-1 $56 $160 #
vertex $-1 $56 $161 #
straight-curve $-1 61.001617481002228 0 13.946537848504649 0 1 0 I I #
face $-1 $162 $163 $13 $-1 $164 reversed single #
loop $-1 $-1 $105 $57 #
plane-surface $-1 61.001617481002228 0 0 -1 0 0 0 0 1 forward_v I I I I #
coedge $-1 $165 $166 $103 $167 forward $58 $-1 #
coedge $-1 $168 $60 $102 $167 reversed $37 $-1 #
coedge $-1 $60 $168 $61 $108 reversed $37 $-1 #
coedge $-1 $63 $169 $60 $106 forward $100 $-1 #
edge $-1 $170 -8.454772010167499 $112 -2.5287596665067982 $105 $171 forward 7 unknown #
coedge $-1 $62 $61 $172 $173 reversed $24 $-1 #
edge $-1 $112 -61.001617481002228 $174 61.001617481002228 $104 $175 forward 7 unknown #
coedge $-1 $176 $177 $62 $110 forward $163 $-1 #
edge $-1 $113 -61.001617481002228 $178 61.001617481002228 $109 $179 forward 7 unknown #
coedge $-1 $169 $63 $177 $180 forward $100 $-1 #
vertex $-1 $64 $181 #
vertex $-1 $180 $182 #
straight-curve $-1 61.001617481002228 -16.329214103008539 -8.0205255048439472 0 -1 0 I I #
face $-1 $-1 $127 $14 $-1 $183 reversed single #
loop $-1 $-1 $184 $65 #
plane-surface $-1 0 38.693869392136676 0 0 -1 0 0 0 -1 forward_v I I I I #
coedge $-1 $123 $185 $186 $187 forward $66 $-1 #
coedge $-1 $186 $68 $70 $125 forward $41 $-1 #
coedge $-1 $68 $186 $184 $188 reversed $41 $-1 #
coedge $-1 $189 $71 $68 $122 forward $127 $-1 #
edge $-1 $129 9.8285283027801711 $190 22.519736827164394 $121 $191 forward 7 unknown #
coedge $-1 $192 $118 $69 $124 forward $66 $-1 #
edge $-1 $193 23.802373161589422 $128 32.006414906352028 $123 $194 forward 7 unknown #
edge $-1 $129 -122.00323496200447 $193 -110.5982747043079 $70 $195 forward 7 unknown #
coedge $-1 $71 $189 $192 $196 reversed $127 $-1 #
loop $-1 $-1 $121 $115 #
vertex $-1 $196 $197 #
vertex $-1 $72 $198 #
straight-curve $-1 61.001617481002228 26.002660867752454 89.268168874751183 0 0 -1 I I #
coedge $-1 $131 $131 $-1 $199 reversed $75 $-1 #
edge $-1 $200 0 $200 6.2831853071796004 $76 $201 forward 7 unknown #
vertex $-1 $79 $202 #
ellipse-curve $-1 56.899596608620918 32.348265129944565 9.9852622480878122 0.69465837861970381 0 0.71933979245794832 1.4386795849158966 0 -1.3893167572394076 1 I I #
face $-1 $-1 $95 $12 $-1 $203 reversed single #
loop $-1 $-1 $151 $80 #
plane-surface $-1 0 38.693869392136676 0 0 -1 0 0 0 -1 forward_v I I I I #
coedge $-1 $204 $149 $152 $205 forward $81 $-1 #
coedge $-1 $155 $83 $84 $143 reversed $50 $-1 #
coedge $-1 $149 $204 $83 $141 reversed $81 $-1 #
edge $-1 $156 -13.946537848504649 $206 13.946537848504649 $140 $207 forward 7 unknown #
coedge $-1 $85 $84 $204 $208 forward $33 $-1 #
edge $-1 $147 -61.001617481002228 $206 61.001617481002228 $139 $209 forward 7 unknown #
coedge $-1 $152 $151 $85 $145 reversed $136 $-1 #
edge $-1 $210 -61.001617481002228 $146 61.001617481002228 $144 $211 forward 7 unknown #
vertex $-1 $87 $212 #
vertex $-1 $158 $213 #
straight-curve $-1 61.001617481002228 0 -13.946537848504649 0 -1 0 I I #
coedge $-1 $138 $140 $88 $150 reversed $81 $-1 #
edge $-1 $153 -38.693869392136676 $156 38.693869392136676 $149 $214 forward 7 unknown #
coedge $-1 $144 $89 $94 $159 forward $136 $-1 #
coedge $-1 $89 $144 $138 $205 reversed $136 $-1 #
vertex $-1 $90 $215 #
straight-curve $-1 0 38.693869392136676 13.946537848504649 -1 0 0 I I #
coedge $-1 $91 $139 $93 $158 reversed $50 $-1 #
vertex $-1 $150 $216 #
straight-curve $-1 0 -38.693869392136676 13.946537848504649 1 0 0 I I #
edge $-1 $96 -13.946537848504649 $147 13.946537848504649 $93 $217 forward 7 unknown #
edge $-1 $97 -13.946537848504649 $146 13.946537848504649 $94 $218 forward 7 unknown #
point $-1 61.001617481002228 -38.693869392136676 13.946537848504649 #
point $-1 61.001617481002228 38.693869392136676 13.946537848504649 #
face $-1 $-1 $219 $13 $-1 $220 reversed single #
loop $-1 $-1 $109 $99 #
plane-surface $-1 0 -38.693869392136676 0 0 1 0 0 0 1 forward_v I I I I #
coedge $-1 $221 $102 $169 $222 forward $58 $-1 #
coedge $-1 $102 $221 $223 $224 forward $58 $-1 #
edge $-1 $225 -61.001617481002228 $170 61.001617481002228 $102 $226 forward 7 unknown #
coedge $-1 $104 $103 $227 $228 reversed $37 $-1 #
coedge $-1 $105 $111 $165 $222 reversed $100 $-1 #
vertex $-1 $222 $229 #
straight-curve $-1 61.001617481002228 -26.622987019897483 -5.491765838337149 0 0 1 I I #
coedge $-1 $227 $230 $107 $173 forward $219 $-1 #
edge $-1 $178 -22.364655289128137 $174 -10.293772916888944 $172 $231 forward 7 unknown #
vertex $-1 $173 $232 #
straight-curve $-1 0 -26.622987019897483 -8.0205255048439472 -1 0 0 I I #
coedge $-1 $233 $109 $230 $234 forward $163 $-1 #
coedge $-1 $109 $233 $111 $180 reversed $163 $-1 #
vertex $-1 $234 $235 #
straight-curve $-1 0 -38.693869392136676 -8.0205255048439472 -1 0 0 I I #
edge $-1 $113 8.0205255048439472 $236 13.946537848504649 $111 $237 forward 7 unknown #
point $-1 61.001617481002228 -26.622987019897483 -8.0205255048439472 #
point $-1 61.001617481002228 -38.693869392136676 -8.0205255048439472 #
plane-surface $-1 61.001617481002228 0 0 -1 0 0 0 0 1 forward_v I I I I #
coedge $-1 $238 $239 $120 $188 forward $116 $-1 #
coedge $-1 $118 $192 $238 $240 forward $66 $-1 #
coedge $-1 $120 $119 $118 $187 reversed $41 $-1 #
edge $-1 $241 -22.519736827164394 $193 -9.8285283027801711 $118 $242 forward 7 unknown #
edge $-1 $190 -80.849756511444951 $241 -69.444796253748365 $184 $243 forward 7 unknown #
coedge $-1 $126 $121 $239 $244 reversed $127 $-1 #
vertex $-1 $122 $245 #
straight-curve $-1 61.001617481002228 16.174132564972282 6.0239866476709807 0 1 0 I I #
coedge $-1 $185 $123 $126 $196 forward $66 $-1 #
vertex $-1 $124 $246 #
straight-curve $-1 28.9952025746502 26.002660867752454 13.946537848504647 1 0 0 I I #
straight-curve $-1 -26.760164235764378 26.002660867752454 90.774556032735774 -0.71933979245794832 0 0.69465837861970381 I I #
edge $-1 $128 26.002660867752454 $247 38.693869392136676 $126 $248 forward 7 unknown #
point $-1 61.001617481002228 26.002660867752454 13.946537848504649 #
point $-1 61.001617481002228 26.002660867752454 6.0239866476709807 #
edge $-1 $249 1 $249 0 $131 $-1 forward 7 unknown #
vertex $-1 $132 $250 #
ellipse-curve $-1 51.687422175481402 32.348265129944565 4.5878977443454563 0.69465837861970381 0 0.71933979245794832 1.4386795849158966 0 -1.3893167572394076 1 I I #
point $-1 58.338276193536828 32.348265129944565 8.5959454908484201 #
plane-surface $-1 61.001617481002228 0 0 -1 0 0 0 0 1 forward_v I I I I #
coedge $-1 $140 $138 $142 $208 reversed $81 $-1 #
edge $-1 $153 -13.946537848504649 $210 13.946537848504649 $152 $251 forward 7 unknown #
vertex $-1 $208 $252 #
straight-curve $-1 -61.001617481002228 -38.693869392136676 0 0 0 -1 I I #
edge $-1 $206 -38.693869392136676 $210 38.693869392136676 $204 $253 forward 7 unknown #
straight-curve $-1 0 -38.693869392136676 -13.946537848504649 -1 0 0 I I #
vertex $-1 $145 $254 #
straight-curve $-1 0 38.693869392136676 -13.946537848504649 1 0 0 I I #
point $-1 61.001617481002228 38.693869392136676 -13.946537848504649 #
point $-1 61.001617481002228 -38.693869392136676 -13.946537848504649 #
straight-curve $-1 -61.001617481002228 0 13.946537848504649 0 -1 0 I I #
point $-1 -61.001617481002228 38.693869392136676 13.946537848504649 #
point $-1 -61.001617481002228 -38.693869392136676 13.946537848504649 #
straight-curve $-1 61.001617481002228 -38.693869392136676 0 0 0 -1 I I #
straight-curve $-1 61.001617481002228 38.693869392136676 0 0 0 -1 I I #
loop $-1 $-1 $227 $162 #
plane-surface $-1 -61.001617481002228 0 0 1 0 0 0 0 -1 forward_v I I I I #
coedge $-1 $166 $165 $233 $255 forward $58 $-1 #
edge $-1 $170 26.622987019897483 $236 38.693869392136676 $169 $256 forward 7 unknown #
coedge $-1 $230 $227 $166 $224 reversed $219 $-1 #
edge $-1 $257 -38.693869392136676 $225 -26.622987019897483 $223 $258 forward 7 unknown #
vertex $-1 $228 $259 #
straight-curve $-1 0 -26.622987019897483 -13.946537848504649 1 0 0 I I #
coedge $-1 $223 $172 $168 $228 forward $219 $-1 #
edge $-1 $174 2.5287596665067982 $225 8.454772010167499 $227 $260 forward 7 unknown #
point $-1 61.001617481002228 -26.622987019897483 -13.946537848504649 #
coedge $-1 $172 $223 $176 $234 reversed $219 $-1 #
straight-curve $-1 -61.001617481002228 -16.329214103008539 -8.0205255048439472 0 1 0 I I #
point $-1 -61.001617481002228 -26.622987019897483 -8.0205255048439472 #
coedge $-1 $177 $176 $221 $255 reversed $163 $-1 #
edge $-1 $178 8.0205255048439472 $257 13.946537848504649 $230 $261 forward 7 unknown #
point $-1 -61.001617481002228 -38.693869392136676 -8.0205255048439472 #
vertex $-1 $180 $262 #
straight-curve $-1 61.001617481002228 -38.693869392136676 0 0 0 -1 I I #
coedge $-1 $239 $184 $185 $240 reversed $116 $-1 #
coedge $-1 $184 $238 $189 $244 forward $116 $-1 #
edge $-1 $247 -61.001617481002228 $241 -52.797575736239622 $238 $263 forward 7 unknown #
vertex $-1 $187 $264 #
straight-curve $-1 52.797575736239615 16.174132564972282 13.946537848504647 0 -1 0 I I #
straight-curve $-1 2.8431704117837597 38.693869392136676 62.186947417709177 -0.71933979245794832 0 0.69465837861970381 I I #
edge $-1 $247 -13.946537848504649 $190 -6.0239866476709842 $189 $265 forward 7 unknown #
point $-1 61.001617481002228 38.693869392136676 6.0239866476709842 #
point $-1 52.797575736239622 26.002660867752454 13.946537848504647 #
vertex $-1 $196 $266 #
straight-curve $-1 61.001617481002228 0 13.946537848504649 0 1 0 I I #
vertex $-1 $199 $267 #
point $-1 53.126101760397297 32.348265129944565 3.1985809871060491 #
straight-curve $-1 -61.001617481002228 38.693869392136676 0 0 0 -1 I I #
point $-1 -61.001617481002228 -38.693869392136676 -13.946537848504649 #
straight-curve $-1 -61.001617481002228 0 -13.946537848504649 0 1 0 I I #
point $-1 -61.001617481002228 38.693869392136676 -13.946537848504649 #
edge $-1 $236 -61.001617481002228 $257 61.001617481002228 $233 $268 forward 7 unknown #
straight-curve $-1 61.001617481002228 0 -13.946537848504649 0 -1 0 I I #
vertex $-1 $224 $269 #
straight-curve $-1 -61.001617481002228 0 -13.946537848504649 0 1 0 I I #
point $-1 -61.001617481002228 -26.622987019897483 -13.946537848504649 #
straight-curve $-1 -61.001617481002228 -26.622987019897483 -5.491765838337149 0 0 -1 I I #
straight-curve $-1 -61.001617481002228 -38.693869392136676 0 0 0 -1 I I #
point $-1 61.001617481002228 -38.693869392136676 -13.946537848504649 #
straight-curve $-1 0 38.693869392136676 13.946537848504649 -1 0 0 I I #
point $-1 52.797575736239622 38.693869392136676 13.946537848504647 #
straight-curve $-1 61.001617481002228 38.693869392136676 0 0 0 -1 I I #
point $-1 61.001617481002228 38.693869392136676 13.946537848504649 #
point $-1 50.298105418241988 32.348265129944565 3.1492181594295601 #
straight-curve $-1 0 -38.693869392136676 -13.946537848504649 -1 0 0 I I #
point $-1 -61.001617481002228 -38.693869392136676 -13.946537848504649 #
End-of-ACIS-data 