500 0 5 0           
7 Unknown 11 ACIS 5.0 NT 24 Fri Mar 26 14:28:54 1999 
-1 9.9999999999999995e-007 1e-010 
body $-1 $5 $-1 $6 #
body $-1 $7 $-1 $8 #
body $-1 $9 $-1 $10 #
body $-1 $11 $-1 $12 #
body $-1 $13 $-1 $14 #
lump $-1 $-1 $15 $0 #
transform $-1 1 0 0 0 1 0 0 0 1 56.563005462813194 30.146681948380063 6.5275336086782962 1 rotate no_reflect no_shear #
lump $-1 $-1 $16 $1 #
transform $-1 1 0 0 0 1 0 0 0 1 56.563005462813194 30.146681948380063 6.5275336086782962 1 rotate no_reflect no_shear #
lump $-1 $-1 $17 $2 #
transform $-1 1 0 0 0 1 0 0 0 1 56.563005462813194 30.146681948380063 6.5275336086782962 1 rotate no_reflect no_shear #
lump $-1 $-1 $18 $3 #
transform $-1 1 0 0 0 1 0 0 0 1 56.563005462813194 30.146681948380063 6.5275336086782962 1 rotate no_reflect no_shear #
lump $-1 $-1 $19 $4 #
transform $-1 1 0 0 0 1 0 0 0 1 56.563005462813194 30.146681948380063 6.5275336086782962 1 rotate no_reflect no_shear #
shell $-1 $-1 $-1 $20 $-1 $5 #
shell $-1 $-1 $-1 $21 $-1 $7 #
shell $-1 $-1 $-1 $22 $-1 $9 #
shell $-1 $-1 $-1 $23 $-1 $11 #
shell $-1 $-1 $-1 $24 $-1 $13 #
face $-1 $25 $26 $15 $-1 $27 forward single #
face $-1 $28 $29 $16 $-1 $30 forward single #
face $-1 $31 $32 $17 $-1 $33 reversed single #
face $-1 $34 $35 $18 $-1 $36 forward single #
face $-1 $37 $38 $19 $-1 $39 forward single #
face $-1 $40 $41 $15 $-1 $42 reversed single #
loop $-1 $-1 $43 $20 #
plane-surface $-1 0 0 6.5275336086782962 0 0 1 1 0 0 forward_v I I I I #
face $-1 $44 $45 $16 $-1 $46 reversed single #
loop $-1 $-1 $47 $21 #
plane-surface $-1 0 -30.146681948380063 0 0 1 0 0 0 1 forward_v I I I I #
face $-1 $48 $49 $17 $-1 $50 reversed single #
loop $-1 $-1 $51 $22 #
plane-surface $-1 -116.51065872970059 -13.196065966812236 98.920711487945923 0 1 0 -0.52991927123019833 0 0.84804809178421925 forward_v I I I I #
face $-1 $52 $53 $18 $-1 $54 forward single #
loop $-1 $55 $56 $23 #
cone-surface $-1 -53.052867115798755 -10.275342376605973 3.6756680449386767 0.52991927123019833 0 -0.84804809178421925 0.84804809178421925 0 0.52991927123019833 1 I I 0 1 1 forward I I I I #
face $-1 $57 $58 $19 $-1 $59 forward single #
loop $-1 $60 $61 $24 #
cone-surface $-1 -53.052867115798755 -5.8942569912965794 3.6756680449386767 0.52991927123019833 0 -0.84804809178421925 0.84804809178421925 0 0.52991927123019833 1 I I 0 1 1 forward I I I I #
face $-1 $62 $63 $15 $-1 $64 reversed single #
loop $-1 $-1 $65 $25 #
plane-surface $-1 0 0 -6.5275336086782962 0 0 1 1 0 0 forward_v I I I I #
coedge $-1 $66 $67 $68 $69 forward $26 $-1 #
face $-1 $70 $71 $16 $-1 $72 reversed single #
loop $-1 $-1 $73 $28 #
plane-surface $-1 0 0 -6.5275336086782962 0 0 1 1 0 0 forward_v I I I I #
coedge $-1 $74 $75 $76 $77 forward $29 $-1 #
face $-1 $78 $79 $17 $-1 $80 reversed single #
loop $-1 $-1 $81 $31 #
plane-surface $-1 -56.563005462813202 -8.0847996839512746 2.9844137913077304 -0.52991927123019833 0 0.84804809178421925 0.84804809178421925 0 0.52991927123019833 forward_v I I I I #
coedge $-1 $82 $83 $84 $85 reversed $32 $-1 #
face $-1 $-1 $86 $18 $-1 $87 forward single #
loop $-1 $88 $89 $34 #
cone-surface $-1 -52.112857573252299 -10.275342376605973 2.1713383439922405 0.52991927123019833 0 -0.84804809178421925 0.42402404589210962 0 0.26495963561509916 1 I I -0.70710678118654746 0.70710678118654746 0.5 forward I I I I #
loop $-1 $-1 $90 $23 #
coedge $-1 $56 $56 $91 $92 reversed $35 $-1 #
face $-1 $-1 $93 $19 $-1 $94 forward single #
loop $-1 $95 $96 $37 #
cone-surface $-1 -52.112857573252299 -5.8942569912965794 2.1713383439922405 0.52991927123019833 0 -0.84804809178421925 0.42402404589210962 0 0.26495963561509916 1 I I -0.70710678118654746 0.70710678118654746 0.5 forward I I I I #
loop $-1 $-1 $97 $24 #
coedge $-1 $61 $61 $98 $99 reversed $38 $-1 #
face $-1 $100 $101 $15 $-1 $102 reversed single #
loop $-1 $-1 $103 $40 #
plane-surface $-1 0 -30.146681948380063 0 0 1 0 0 0 1 forward_v I I I I #
coedge $-1 $104 $105 $106 $107 forward $41 $-1 #
coedge $-1 $108 $43 $109 $110 forward $26 $-1 #
coedge $-1 $43 $108 $111 $112 forward $26 $-1 #
coedge $-1 $113 $114 $43 $69 reversed $115 $-1 #
edge $-1 $116 -30.146681948380063 $117 30.146681948380063 $68 $118 forward 7 unknown #
face $-1 $119 $120 $16 $-1 $121 reversed single #
loop $-1 $-1 $122 $44 #
plane-surface $-1 -52.502518361106496 -34.916739834456905 0 0 1 0 0 0 1 forward_v I I I I #
coedge $-1 $123 $124 $75 $125 forward $45 $-1 #
coedge $-1 $126 $47 $127 $128 reversed $29 $-1 #
coedge $-1 $47 $126 $73 $125 reversed $29 $-1 #
coedge $-1 $129 $130 $47 $77 reversed $120 $-1 #
edge $-1 $131 -6.5275336086782962 $132 6.5275336086782962 $76 $133 forward 7 unknown #
face $-1 $134 $135 $17 $-1 $136 reversed single #
loop $-1 $-1 $137 $48 #
plane-surface $-1 -116.51065872970059 -2.9735334010903127 98.920711487945923 0 -1 0 0.52991927123019833 0 -0.84804809178421925 forward_v I I I I #
coedge $-1 $138 $139 $140 $141 reversed $49 $-1 #
coedge $-1 $83 $51 $142 $143 reversed $32 $-1 #
coedge $-1 $51 $82 $138 $144 reversed $32 $-1 #
coedge $-1 $140 $145 $51 $85 forward $146 $-1 #
edge $-1 $147 1.6923239020371028 $148 7.3625007822032345 $84 $149 forward 7 unknown #
loop $-1 $-1 $91 $52 #
plane-surface $-1 -56.563005462813202 -8.0847996839512746 2.9844137913077304 -0.52991927123019833 0 0.84804809178421925 0.84804809178421925 0 0.52991927123019833 forward_v I I I I #
loop $-1 $-1 $150 $34 #
coedge $-1 $89 $89 $90 $151 reversed $53 $-1 #
coedge $-1 $90 $90 $89 $151 forward $55 $-1 #
coedge $-1 $91 $91 $56 $92 forward $86 $-1 #
edge $-1 $152 0 $152 6.2831853071796004 $91 $153 forward 7 unknown #
loop $-1 $-1 $98 $57 #
plane-surface $-1 -56.563005462813202 -8.0847996839512746 2.9844137913077304 -0.52991927123019833 0 0.84804809178421925 0.84804809178421925 0 0.52991927123019833 forward_v I I I I #
loop $-1 $-1 $154 $37 #
coedge $-1 $96 $96 $97 $155 reversed $58 $-1 #
coedge $-1 $97 $97 $96 $155 forward $60 $-1 #
coedge $-1 $98 $98 $61 $99 forward $93 $-1 #
edge $-1 $156 0 $156 6.2831853071796004 $98 $157 forward 7 unknown #
face $-1 $158 $159 $15 $-1 $160 reversed single #
loop $-1 $-1 $161 $62 #
plane-surface $-1 -56.563005462813194 0 0 1 0 0 0 0 -1 forward_v I I I I #
coedge $-1 $162 $111 $163 $164 forward $63 $-1 #
coedge $-1 $165 $65 $162 $166 forward $41 $-1 #
coedge $-1 $65 $165 $167 $168 forward $41 $-1 #
coedge $-1 $114 $113 $65 $107 reversed $115 $-1 #
edge $-1 $169 -30.146681948380063 $170 30.146681948380063 $106 $171 forward 7 unknown #
coedge $-1 $67 $66 $172 $173 forward $26 $-1 #
coedge $-1 $174 $175 $66 $110 reversed $159 $-1 #
edge $-1 $117 -56.563005462813194 $176 56.563005462813194 $109 $177 forward 7 unknown #
coedge $-1 $103 $178 $67 $112 reversed $63 $-1 #
edge $-1 $179 -56.563005462813194 $116 56.563005462813194 $111 $180 forward 7 unknown #
coedge $-1 $106 $68 $178 $181 forward $115 $-1 #
coedge $-1 $68 $106 $174 $182 reversed $115 $-1 #
loop $-1 $-1 $113 $158 #
vertex $-1 $69 $183 #
vertex $-1 $69 $184 #
straight-curve $-1 56.563005462813194 0 6.5275336086782962 0 1 0 I I #
face $-1 $185 $186 $16 $-1 $187 reversed single #
loop $-1 $-1 $76 $70 #
plane-surface $-1 -54.002518361106496 -32.531710891418484 0 1 0 0 0 0 -1 forward_v I I I I #
coedge $-1 $188 $189 $190 $191 forward $71 $-1 #
coedge $-1 $192 $73 $193 $194 forward $45 $-1 #
coedge $-1 $73 $192 $129 $195 forward $45 $-1 #
edge $-1 $131 -54.002518361106496 $196 -51.002518361106496 $73 $197 forward 7 unknown #
coedge $-1 $75 $74 $198 $199 forward $29 $-1 #
coedge $-1 $200 $201 $74 $128 forward $202 $-1 #
edge $-1 $203 51.002518361106496 $132 54.002518361106496 $127 $204 forward 7 unknown #
coedge $-1 $190 $76 $124 $195 reversed $120 $-1 #
coedge $-1 $76 $190 $200 $205 reversed $120 $-1 #
vertex $-1 $125 $206 #
vertex $-1 $205 $207 #
straight-curve $-1 -54.002518361106496 -30.146681948380063 0 0 0 1 I I #
face $-1 $-1 $146 $17 $-1 $208 forward single #
loop $-1 $-1 $209 $78 #
plane-surface $-1 -56.563005462813194 0 0 1 0 0 0 0 -1 forward_v I I I I #
coedge $-1 $210 $211 $212 $213 reversed $79 $-1 #
coedge $-1 $214 $81 $83 $144 forward $49 $-1 #
coedge $-1 $81 $214 $210 $215 forward $49 $-1 #
coedge $-1 $212 $84 $81 $141 forward $146 $-1 #
edge $-1 $148 -9.1536661248365991 $216 1.0688664408853246 $140 $217 forward 7 unknown #
coedge $-1 $218 $219 $82 $143 forward $135 $-1 #
edge $-1 $220 -46.475941952665224 $147 -42.932822135294664 $142 $221 forward 7 unknown #
edge $-1 $148 -6.6861501548061746 $220 -8.3790584163743152e-015 $83 $222 forward 7 unknown #
coedge $-1 $84 $212 $218 $223 forward $146 $-1 #
loop $-1 $-1 $212 $134 #
vertex $-1 $143 $224 #
vertex $-1 $85 $225 #
straight-curve $-1 -58.255329364850297 -13.196065966812236 6.5275336086782971 1 0 0 I I #
coedge $-1 $150 $150 $-1 $226 reversed $88 $-1 #
edge $-1 $227 0 $227 6.2831853071796004 $89 $228 forward 7 unknown #
vertex $-1 $92 $229 #
ellipse-curve $-1 -53.727917022730118 -10.275342376605973 4.7559736999930209 -0.52991927123019833 0 0.84804809178421925 0.84804809178421925 0 0.52991927123019833 1 I I #
coedge $-1 $154 $154 $-1 $230 reversed $95 $-1 #
edge $-1 $231 0 $231 6.2831853071796004 $96 $232 forward 7 unknown #
vertex $-1 $99 $233 #
ellipse-curve $-1 -53.727917022730118 -5.8942569912965794 4.7559736999930209 -0.52991927123019833 0 0.84804809178421925 0.84804809178421925 0 0.52991927123019833 1 I I #
face $-1 $-1 $115 $15 $-1 $234 reversed single #
loop $-1 $-1 $174 $100 #
plane-surface $-1 0 30.146681948380063 0 0 -1 0 0 0 -1 forward_v I I I I #
coedge $-1 $235 $172 $175 $236 forward $101 $-1 #
coedge $-1 $178 $103 $104 $166 reversed $63 $-1 #
coedge $-1 $172 $235 $103 $164 reversed $101 $-1 #
edge $-1 $179 -6.5275336086782962 $237 6.5275336086782962 $163 $238 forward 7 unknown #
coedge $-1 $105 $104 $235 $239 forward $41 $-1 #
edge $-1 $170 -56.563005462813194 $237 56.563005462813194 $162 $240 forward 7 unknown #
coedge $-1 $175 $174 $105 $168 reversed $159 $-1 #
edge $-1 $241 -56.563005462813194 $169 56.563005462813194 $167 $242 forward 7 unknown #
vertex $-1 $107 $243 #
vertex $-1 $181 $244 #
straight-curve $-1 56.563005462813194 0 -6.5275336086782962 0 -1 0 I I #
coedge $-1 $161 $163 $108 $173 reversed $101 $-1 #
edge $-1 $176 -30.146681948380063 $179 30.146681948380063 $172 $245 forward 7 unknown #
coedge $-1 $167 $109 $114 $182 forward $159 $-1 #
coedge $-1 $109 $167 $161 $236 reversed $159 $-1 #
vertex $-1 $110 $246 #
straight-curve $-1 0 30.146681948380063 6.5275336086782962 -1 0 0 I I #
coedge $-1 $111 $162 $113 $181 reversed $63 $-1 #
vertex $-1 $173 $247 #
straight-curve $-1 0 -30.146681948380063 6.5275336086782962 1 0 0 I I #
edge $-1 $116 -6.5275336086782962 $170 6.5275336086782962 $113 $248 forward 7 unknown #
edge $-1 $117 -6.5275336086782962 $169 6.5275336086782962 $114 $249 forward 7 unknown #
point $-1 56.563005462813194 -30.146681948380063 6.5275336086782962 #
point $-1 56.563005462813194 30.146681948380063 6.5275336086782962 #
face $-1 $-1 $202 $16 $-1 $250 forward single #
loop $-1 $-1 $251 $119 #
plane-surface $-1 -51.002518361106496 -32.531710891418484 0 -1 0 0 0 0 1 forward_v I I I I #
coedge $-1 $252 $122 $192 $253 reversed $71 $-1 #
coedge $-1 $122 $252 $254 $255 reversed $71 $-1 #
coedge $-1 $130 $129 $122 $191 reversed $120 $-1 #
edge $-1 $256 -6.5275336086782962 $257 6.5275336086782962 $190 $258 forward 7 unknown #
coedge $-1 $124 $123 $188 $253 forward $45 $-1 #
coedge $-1 $198 $251 $123 $194 reversed $186 $-1 #
edge $-1 $196 -2.3850289430384244 $259 2.3850289430384208 $193 $260 forward 7 unknown #
edge $-1 $257 -2.3850289430384208 $131 2.3850289430384244 $129 $261 forward 7 unknown #
vertex $-1 $194 $262 #
straight-curve $-1 0 -30.146681948380063 -6.5275336086782962 1 0 0 I I #
coedge $-1 $263 $193 $126 $199 reversed $186 $-1 #
edge $-1 $203 -6.5275336086782962 $196 6.5275336086782962 $198 $264 forward 7 unknown #
coedge $-1 $254 $127 $130 $205 forward $202 $-1 #
coedge $-1 $127 $254 $263 $265 forward $202 $-1 #
loop $-1 $-1 $127 $185 #
vertex $-1 $128 $266 #
straight-curve $-1 0 -30.146681948380063 6.5275336086782962 -1 0 0 I I #
edge $-1 $132 -2.3850289430384244 $256 2.3850289430384208 $130 $267 forward 7 unknown #
point $-1 -54.002518361106496 -30.14668194838006 -6.5275336086782962 #
point $-1 -54.002518361106496 -30.14668194838006 6.5275336086782962 #
plane-surface $-1 0 0 6.5275336086782962 0 0 1 1 0 0 forward_v I I I I #
coedge $-1 $219 $218 $211 $268 forward $135 $-1 #
coedge $-1 $211 $137 $139 $215 reversed $79 $-1 #
coedge $-1 $137 $210 $209 $268 reversed $79 $-1 #
coedge $-1 $145 $140 $137 $213 forward $146 $-1 #
edge $-1 $216 -7.3625007822032345 $269 -1.6923239020371028 $212 $270 forward 7 unknown #
coedge $-1 $139 $138 $219 $271 reversed $49 $-1 #
edge $-1 $272 8.3790584163743152e-015 $216 6.6861501548061746 $210 $273 forward 7 unknown #
vertex $-1 $141 $274 #
straight-curve $-1 -50.89282858264707 -4.0423998419756373 6.5275336086782954 0 1 0 I I #
coedge $-1 $209 $142 $145 $223 reversed $135 $-1 #
coedge $-1 $142 $209 $214 $271 forward $135 $-1 #
vertex $-1 $143 $275 #
straight-curve $-1 -56.563005462813194 -13.196065966812236 49.460355743972961 0 0 1 I I #
straight-curve $-1 -56.563005462813202 -13.196065966812236 2.9844137913077304 -0.84804809178421925 0 -0.52991927123019833 I I #
edge $-1 $269 2.9735334010903127 $147 13.196065966812236 $218 $276 forward 7 unknown #
point $-1 -56.563005462813194 -13.196065966812236 6.5275336086782962 #
point $-1 -50.892828582647063 -13.196065966812236 6.5275336086782962 #
edge $-1 $277 1 $277 0 $150 $-1 forward 7 unknown #
vertex $-1 $151 $278 #
ellipse-curve $-1 -52.377817208867398 -10.275342376605973 2.5953623898843503 -0.52991927123019833 0 0.84804809178421925 0.84804809178421925 0 0.52991927123019833 1 I I #
point $-1 -52.879868930945889 -10.275342376605973 5.2858929712232019 #
edge $-1 $279 1 $279 0 $154 $-1 forward 7 unknown #
vertex $-1 $155 $280 #
ellipse-curve $-1 -52.377817208867398 -5.8942569912965794 2.5953623898843503 -0.52991927123019833 0 0.84804809178421925 0.84804809178421925 0 0.52991927123019833 1 I I #
point $-1 -52.879868930945889 -5.8942569912965794 5.2858929712232019 #
plane-surface $-1 56.563005462813194 0 0 -1 0 0 0 0 1 forward_v I I I I #
coedge $-1 $163 $161 $165 $239 reversed $101 $-1 #
edge $-1 $176 -6.5275336086782962 $241 6.5275336086782962 $175 $281 forward 7 unknown #
vertex $-1 $239 $282 #
straight-curve $-1 -56.563005462813194 -30.146681948380063 0 0 0 -1 I I #
edge $-1 $237 -30.146681948380063 $241 30.146681948380063 $235 $283 forward 7 unknown #
straight-curve $-1 0 -30.146681948380063 -6.5275336086782962 -1 0 0 I I #
vertex $-1 $168 $284 #
straight-curve $-1 0 30.146681948380063 -6.5275336086782962 1 0 0 I I #
point $-1 56.563005462813194 30.146681948380063 -6.5275336086782962 #
point $-1 56.563005462813194 -30.146681948380063 -6.5275336086782962 #
straight-curve $-1 -56.563005462813194 0 6.5275336086782962 0 -1 0 I I #
point $-1 -56.563005462813194 30.146681948380063 6.5275336086782962 #
point $-1 -56.563005462813194 -30.146681948380063 6.5275336086782962 #
straight-curve $-1 56.563005462813194 -30.146681948380063 0 0 0 -1 I I #
straight-curve $-1 56.563005462813194 30.146681948380063 0 0 0 -1 I I #
plane-surface $-1 0 0 6.5275336086782962 0 0 1 1 0 0 forward_v I I I I #
coedge $-1 $193 $263 $252 $285 forward $186 $-1 #
coedge $-1 $189 $188 $251 $285 reversed $71 $-1 #
edge $-1 $259 -1.5 $257 1.5 $188 $286 forward 7 unknown #
coedge $-1 $201 $200 $189 $255 forward $202 $-1 #
edge $-1 $256 -1.5 $287 1.5 $189 $288 forward 7 unknown #
vertex $-1 $205 $289 #
vertex $-1 $195 $290 #
straight-curve $-1 -54.002518361106496 -34.916739834456905 0 0 0 -1 I I #
vertex $-1 $285 $291 #
straight-curve $-1 -51.002518361106496 -32.531710891418484 -6.5275336086782962 0 -1 0 I I #
straight-curve $-1 -54.002518361106496 -32.531710891418484 -6.5275336086782962 0 1 0 I I #
point $-1 -51.002518361106496 -30.14668194838006 -6.5275336086782962 #
coedge $-1 $251 $198 $201 $265 reversed $186 $-1 #
straight-curve $-1 -51.002518361106496 -30.146681948380063 0 0 0 -1 I I #
edge $-1 $287 -2.3850289430384208 $203 2.3850289430384244 $263 $292 forward 7 unknown #
point $-1 -51.002518361106496 -30.14668194838006 6.5275336086782962 #
straight-curve $-1 -54.002518361106496 -32.531710891418484 6.5275336086782962 0 -1 0 I I #
edge $-1 $269 42.932822135294664 $272 46.475941952665224 $209 $293 forward 7 unknown #
vertex $-1 $223 $294 #
straight-curve $-1 -58.255329364850297 -2.9735334010903127 6.5275336086782971 -1 0 0 I I #
edge $-1 $272 -1.0688664408853246 $220 9.1536661248365991 $219 $295 forward 7 unknown #
vertex $-1 $271 $296 #
straight-curve $-1 -56.563005462813202 -2.9735334010903127 2.9844137913077304 0.84804809178421925 0 0.52991927123019833 I I #
point $-1 -50.892828582647063 -2.9735334010903127 6.5275336086782962 #
point $-1 -56.563005462813194 -13.196065966812236 2.9844137913077349 #
straight-curve $-1 -56.563005462813194 0 6.5275336086782962 0 -1 0 I I #
vertex $-1 $226 $297 #
point $-1 -51.529769117083177 -10.275342376605973 3.1252816611145482 #
vertex $-1 $230 $298 #
point $-1 -51.529769117083177 -5.8942569912965794 3.1252816611145482 #
straight-curve $-1 -56.563005462813194 30.146681948380063 0 0 0 -1 I I #
point $-1 -56.563005462813194 -30.146681948380063 -6.5275336086782962 #
straight-curve $-1 -56.563005462813194 0 -6.5275336086782962 0 1 0 I I #
point $-1 -56.563005462813194 30.146681948380063 -6.5275336086782962 #
edge $-1 $287 -6.5275336086782962 $259 6.5275336086782962 $251 $299 forward 7 unknown #
straight-curve $-1 -52.502518361106496 -34.916739834456905 -6.5275336086782962 -1 0 0 I I #
vertex $-1 $265 $300 #
straight-curve $-1 -52.502518361106496 -34.916739834456905 6.5275336086782962 1 0 0 I I #
point $-1 -54.002518361106496 -34.916739834456905 6.5275336086782962 #
point $-1 -54.002518361106496 -34.916739834456905 -6.5275336086782962 #
point $-1 -51.002518361106496 -34.916739834456905 -6.5275336086782962 #
straight-curve $-1 -51.002518361106496 -32.531710891418484 6.5275336086782962 0 1 0 I I #
straight-curve $-1 -56.563005462813194 -2.9735334010903127 49.460355743972961 0 0 -1 I I #
point $-1 -56.563005462813194 -2.9735334010903127 6.5275336086782962 #
straight-curve $-1 -56.563005462813194 -4.0423998419756373 2.9844137913077335 0 -1 0 I I #
point $-1 -56.563005462813194 -2.9735334010903127 2.9844137913077349 #
point $-1 -51.8478979376372 -10.275342376605973 1.7473142981001308 #
point $-1 -51.8478979376372 -5.8942569912965794 1.7473142981001308 #
straight-curve $-1 -51.002518361106496 -34.916739834456905 0 0 0 -1 I I #
point $-1 -51.002518361106496 -34.916739834456905 6.5275336086782962 #
End-of-ACIS-data 