500 0 13 0           
7 Unknown 11 ACIS 5.0 NT 24 Fri Mar 26 17:07:45 1999 
-1 9.9999999999999995e-007 1e-010 
body $-1 $13 $-1 $14 #
body $-1 $15 $-1 $16 #
body $-1 $17 $-1 $18 #
body $-1 $19 $-1 $20 #
body $-1 $21 $-1 $22 #
body $-1 $23 $-1 $24 #
body $-1 $25 $-1 $26 #
body $-1 $27 $-1 $28 #
body $-1 $29 $-1 $30 #
body $-1 $31 $-1 $32 #
body $-1 $33 $-1 $34 #
body $-1 $35 $-1 $36 #
body $-1 $37 $-1 $38 #
lump $-1 $-1 $39 $0 #
transform $-1 1 0 0 0 1 0 0 0 1 48.360850856044195 23.951808349937401 8.6729273626261882 1 rotate no_reflect no_shear #
lump $-1 $-1 $40 $1 #
transform $-1 1 0 0 0 1 0 0 0 1 48.360850856044195 23.951808349937401 8.6729273626261882 1 rotate no_reflect no_shear #
lump $-1 $-1 $41 $2 #
transform $-1 1 0 0 0 1 0 0 0 1 48.360850856044195 23.951808349937401 8.6729273626261882 1 rotate no_reflect no_shear #
lump $-1 $-1 $42 $3 #
transform $-1 1 0 0 0 1 0 0 0 1 48.360850856044195 23.951808349937401 8.6729273626261882 1 rotate no_reflect no_shear #
lump $-1 $-1 $43 $4 #
transform $-1 1 0 0 0 1 0 0 0 1 48.360850856044195 23.951808349937401 8.6729273626261882 1 rotate no_reflect no_shear #
lump $-1 $-1 $44 $5 #
transform $-1 1 0 0 0 1 0 0 0 1 48.360850856044195 23.951808349937401 8.6729273626261882 1 rotate no_reflect no_shear #
lump $-1 $-1 $45 $6 #
transform $-1 1 0 0 0 1 0 0 0 1 48.360850856044195 23.951808349937401 8.6729273626261882 1 rotate no_reflect no_shear #
lump $-1 $-1 $46 $7 #
transform $-1 1 0 0 0 1 0 0 0 1 48.360850856044195 23.951808349937401 8.6729273626261882 1 rotate no_reflect no_shear #
lump $-1 $-1 $47 $8 #
transform $-1 1 0 0 0 1 0 0 0 1 48.360850856044195 23.951808349937401 8.6729273626261882 1 rotate no_reflect no_shear #
lump $-1 $-1 $48 $9 #
transform $-1 1 0 0 0 1 0 0 0 1 48.360850856044195 23.951808349937401 8.6729273626261882 1 rotate no_reflect no_shear #
lump $-1 $-1 $49 $10 #
transform $-1 1 0 0 0 1 0 0 0 1 48.360850856044195 23.951808349937401 8.6729273626261882 1 rotate no_reflect no_shear #
lump $-1 $-1 $50 $11 #
transform $-1 1 0 0 0 1 0 0 0 1 48.360850856044195 23.951808349937401 8.6729273626261882 1 rotate no_reflect no_shear #
lump $-1 $-1 $51 $12 #
transform $-1 1 0 0 0 1 0 0 0 1 48.360850856044195 23.951808349937401 8.6729273626261882 1 rotate no_reflect no_shear #
shell $-1 $-1 $-1 $52 $-1 $13 #
shell $-1 $-1 $-1 $53 $-1 $15 #
shell $-1 $-1 $-1 $54 $-1 $17 #
shell $-1 $-1 $-1 $55 $-1 $19 #
shell $-1 $-1 $-1 $56 $-1 $21 #
shell $-1 $-1 $-1 $57 $-1 $23 #
shell $-1 $-1 $-1 $58 $-1 $25 #
shell $-1 $-1 $-1 $59 $-1 $27 #
shell $-1 $-1 $-1 $60 $-1 $29 #
shell $-1 $-1 $-1 $61 $-1 $31 #
shell $-1 $-1 $-1 $62 $-1 $33 #
shell $-1 $-1 $-1 $63 $-1 $35 #
shell $-1 $-1 $-1 $64 $-1 $37 #
face $-1 $65 $66 $39 $-1 $67 forward single #
face $-1 $68 $69 $40 $-1 $70 reversed single #
face $-1 $71 $72 $41 $-1 $73 reversed single #
face $-1 $74 $75 $42 $-1 $76 reversed single #
face $-1 $77 $78 $43 $-1 $79 forward single #
face $-1 $80 $81 $44 $-1 $82 forward single #
face $-1 $83 $84 $45 $-1 $85 reversed single #
face $-1 $86 $87 $46 $-1 $88 forward single #
face $-1 $89 $90 $47 $-1 $91 forward single #
face $-1 $92 $93 $48 $-1 $94 reversed single #
face $-1 $95 $96 $49 $-1 $97 forward single #
face $-1 $98 $99 $50 $-1 $100 forward single #
face $-1 $101 $102 $51 $-1 $103 forward single #
face $-1 $104 $105 $39 $-1 $106 reversed single #
loop $-1 $-1 $107 $52 #
plane-surface $-1 0 0 8.6729273626261882 0 0 1 1 0 0 forward_v I I I I #
face $-1 $108 $109 $40 $-1 $110 reversed single #
loop $-1 $-1 $111 $53 #
plane-surface $-1 -44.904919445485085 -14.269987267927116 0 0 1 0 0 0 1 forward_v I I I I #
face $-1 $112 $113 $41 $-1 $114 reversed single #
loop $-1 $-1 $115 $54 #
plane-surface $-1 44.904919445485078 -14.269987267927116 0 0 1 0 0 0 1 forward_v I I I I #
face $-1 $116 $117 $42 $-1 $118 reversed single #
loop $-1 $-1 $119 $55 #
plane-surface $-1 -41.448988034925975 32.705754441119367 108.32643869553738 1 0 0 0 -0.51503808176128008 -0.85716729658548041 forward_v I I I I #
face $-1 $120 $121 $43 $-1 $122 forward single #
loop $-1 $123 $124 $56 #
cone-surface $-1 -37.039152115441219 16.086272424083241 2.5957276743033715 0 -0.51503808176128008 -0.85716729658548041 1.5 0 0 1 I I 0 1 1.5 forward I I I I #
face $-1 $125 $126 $44 $-1 $127 forward single #
loop $-1 $128 $129 $57 #
cone-surface $-1 -30.424398236214088 16.086272424083241 2.5957276743033715 0 -0.51503808176128008 -0.85716729658548041 1.5 0 0 1 I I 0 1 1.5 forward I I I I #
face $-1 $130 $131 $45 $-1 $132 reversed single #
loop $-1 $-1 $133 $58 #
plane-surface $-1 -1.7763568394002505e-015 32.705754441119367 108.32643869553738 1 0 0 0 -0.51503808176128008 -0.85716729658548041 forward_v I I I I #
face $-1 $134 $135 $46 $-1 $136 forward single #
loop $-1 $137 $138 $59 #
cone-surface $-1 4.4098359194847561 16.086272424083241 2.5957276743033715 0 -0.51503808176128008 -0.85716729658548041 1.5 0 0 1 I I 0 1 1.5 forward I I I I #
face $-1 $139 $140 $47 $-1 $141 forward single #
loop $-1 $142 $143 $60 #
cone-surface $-1 11.024589798711887 16.086272424083241 2.5957276743033715 0 -0.51503808176128008 -0.85716729658548041 1.5 0 0 1 I I 0 1 1.5 forward I I I I #
face $-1 $144 $145 $48 $-1 $146 reversed single #
loop $-1 $-1 $147 $61 #
plane-surface $-1 22.545742082049021 -88.671260042980549 74.245428185474111 -1 0 0 0 -0.66913061440640931 0.74314481823134659 forward_v I I I I #
face $-1 $148 $149 $49 $-1 $150 forward single #
loop $-1 $151 $152 $62 #
cone-surface $-1 6.5050203964113464 -19.041815370379005 3.9558960943206616 0 0.66913061440640931 -0.74314481823134659 1.5 0 0 1 I I 0 1 1.5 forward I I I I #
face $-1 $153 $154 $50 $-1 $155 forward single #
loop $-1 $156 $157 $63 #
cone-surface $-1 12.52029102852547 -19.041815370379005 3.9558960943206616 0 0.66913061440640931 -0.74314481823134659 1.5 0 0 1 I I 0 1 1.5 forward I I I I #
face $-1 $158 $159 $51 $-1 $160 forward single #
loop $-1 $161 $162 $64 #
cone-surface $-1 18.535561660639601 -19.041815370379005 3.9558960943206616 0 0.66913061440640931 -0.74314481823134659 1.5 0 0 1 I I 0 1 1.5 forward I I I I #
face $-1 $163 $164 $39 $-1 $165 reversed single #
loop $-1 $-1 $166 $65 #
plane-surface $-1 0 0 -8.6729273626261882 0 0 1 1 0 0 forward_v I I I I #
coedge $-1 $167 $168 $169 $170 forward $66 $-1 #
face $-1 $171 $172 $40 $-1 $173 reversed single #
loop $-1 $-1 $174 $68 #
plane-surface $-1 -44.904919445485085 -11.269987267927116 0 0 -1 0 0 0 -1 forward_v I I I I #
coedge $-1 $175 $176 $177 $178 reversed $69 $-1 #
face $-1 $179 $180 $41 $-1 $181 reversed single #
loop $-1 $-1 $182 $71 #
plane-surface $-1 41.448988034925968 -12.769987267927116 0 1 0 0 0 0 -1 forward_v I I I I #
coedge $-1 $183 $184 $185 $186 forward $72 $-1 #
face $-1 $187 $188 $42 $-1 $189 reversed single #
loop $-1 $-1 $190 $74 #
plane-surface $-1 -33.731775175827657 -17.109605273361353 25.419759117839334 0 0.51503808176128008 0.85716729658548041 1 0 0 forward_v I I I I #
coedge $-1 $191 $192 $193 $194 reversed $75 $-1 #
face $-1 $-1 $195 $43 $-1 $196 forward single #
loop $-1 $197 $198 $77 #
cone-surface $-1 -37.039152115441219 14.429460758574294 -0.16166993679956398 0 -0.51503808176128008 -0.85716729658548041 0.75 0 0 1 I I -0.70710678118654757 0.70710678118654757 0.75 forward I I I I #
loop $-1 $-1 $199 $56 #
coedge $-1 $124 $124 $200 $201 reversed $78 $-1 #
face $-1 $-1 $202 $44 $-1 $203 forward single #
loop $-1 $204 $205 $80 #
cone-surface $-1 -30.424398236214088 14.429460758574294 -0.16166993679956398 0 -0.51503808176128008 -0.85716729658548041 0.75 0 0 1 I I -0.70710678118654757 0.70710678118654757 0.75 forward I I I I #
loop $-1 $-1 $206 $57 #
coedge $-1 $129 $129 $207 $208 reversed $81 $-1 #
face $-1 $209 $210 $45 $-1 $211 reversed single #
loop $-1 $-1 $212 $83 #
plane-surface $-1 7.7172128590983178 -17.109605273361353 25.419759117839334 0 0.51503808176128008 0.85716729658548041 1 0 0 forward_v I I I I #
coedge $-1 $213 $214 $215 $216 reversed $84 $-1 #
face $-1 $-1 $217 $46 $-1 $218 forward single #
loop $-1 $219 $220 $86 #
cone-surface $-1 4.4098359194847561 14.429460758574294 -0.16166993679956398 0 -0.51503808176128008 -0.85716729658548041 0.75 0 0 1 I I -0.70710678118654757 0.70710678118654757 0.75 forward I I I I #
loop $-1 $-1 $221 $59 #
coedge $-1 $138 $138 $222 $223 reversed $87 $-1 #
face $-1 $-1 $224 $47 $-1 $225 forward single #
loop $-1 $226 $227 $89 #
cone-surface $-1 11.024589798711887 14.429460758574294 -0.16166993679956398 0 -0.51503808176128008 -0.85716729658548041 0.75 0 0 1 I I -0.70710678118654757 0.70710678118654757 0.75 forward I I I I #
loop $-1 $-1 $228 $60 #
coedge $-1 $143 $143 $229 $230 reversed $90 $-1 #
face $-1 $231 $232 $48 $-1 $233 reversed single #
loop $-1 $-1 $234 $92 #
plane-surface $-1 12.520291028525477 -23.951808349937394 2.3671967476176548 0 -0.66913061440640931 0.74314481823134659 1 0 0 forward_v I I I I #
coedge $-1 $235 $236 $237 $238 reversed $93 $-1 #
face $-1 $-1 $239 $49 $-1 $240 forward single #
loop $-1 $241 $242 $95 #
cone-surface $-1 6.5050203964113464 -17.131586021844846 1.8343715198458899 0 0.66913061440640931 -0.74314481823134659 0.75 0 0 1 I I -0.70710678118654757 0.70710678118654757 0.75 forward I I I I #
loop $-1 $-1 $243 $62 #
coedge $-1 $152 $152 $244 $245 reversed $96 $-1 #
face $-1 $-1 $246 $50 $-1 $247 forward single #
loop $-1 $248 $249 $98 #
cone-surface $-1 12.52029102852547 -17.131586021844846 1.8343715198458899 0 0.66913061440640931 -0.74314481823134659 0.75 0 0 1 I I -0.70710678118654757 0.70710678118654757 0.75 forward I I I I #
loop $-1 $-1 $250 $63 #
coedge $-1 $157 $157 $251 $252 reversed $99 $-1 #
face $-1 $-1 $253 $51 $-1 $254 forward single #
loop $-1 $255 $256 $101 #
cone-surface $-1 18.535561660639601 -17.131586021844846 1.8343715198458899 0 0.66913061440640931 -0.74314481823134659 0.75 0 0 1 I I -0.70710678118654757 0.70710678118654757 0.75 forward I I I I #
loop $-1 $-1 $257 $64 #
coedge $-1 $162 $162 $258 $259 reversed $102 $-1 #
face $-1 $260 $261 $39 $-1 $262 reversed single #
loop $-1 $-1 $263 $104 #
plane-surface $-1 0 -23.951808349937401 0 0 1 0 0 0 1 forward_v I I I I #
coedge $-1 $264 $265 $266 $267 forward $105 $-1 #
coedge $-1 $268 $107 $269 $270 forward $66 $-1 #
coedge $-1 $107 $268 $271 $272 forward $66 $-1 #
coedge $-1 $273 $274 $107 $170 reversed $275 $-1 #
edge $-1 $276 -23.951808349937401 $277 23.951808349937401 $169 $278 forward 7 unknown #
face $-1 $279 $280 $40 $-1 $281 reversed single #
loop $-1 $-1 $282 $108 #
plane-surface $-1 -41.448988034925975 -12.769987267927116 0 -1 0 0 0 0 1 forward_v I I I I #
coedge $-1 $283 $284 $285 $286 forward $109 $-1 #
coedge $-1 $287 $111 $288 $289 reversed $69 $-1 #
coedge $-1 $111 $287 $290 $291 reversed $69 $-1 #
coedge $-1 $292 $293 $111 $178 forward $294 $-1 #
edge $-1 $295 -8.6729273626261882 $296 8.6729273626261882 $177 $297 forward 7 unknown #
face $-1 $298 $299 $41 $-1 $300 reversed single #
loop $-1 $-1 $301 $112 #
plane-surface $-1 44.904919445485078 -11.269987267927116 0 0 -1 0 0 0 -1 forward_v I I I I #
coedge $-1 $302 $303 $304 $305 forward $113 $-1 #
coedge $-1 $306 $115 $307 $308 reversed $72 $-1 #
coedge $-1 $115 $306 $309 $310 reversed $72 $-1 #
coedge $-1 $303 $302 $115 $186 reversed $113 $-1 #
edge $-1 $311 -8.6729273626261882 $312 8.6729273626261882 $185 $313 forward 7 unknown #
face $-1 $314 $315 $42 $-1 $316 reversed single #
loop $-1 $-1 $317 $116 #
plane-surface $-1 -26.014562316729339 32.705754441119367 108.32643869553738 -1 0 0 0 0.51503808176128008 0.85716729658548041 forward_v I I I I #
coedge $-1 $318 $319 $320 $321 reversed $117 $-1 #
coedge $-1 $192 $119 $322 $323 reversed $75 $-1 #
coedge $-1 $119 $191 $318 $324 reversed $75 $-1 #
coedge $-1 $320 $325 $119 $194 forward $326 $-1 #
edge $-1 $327 -7.5989311293777178 $328 5.5910745139546449 $193 $329 forward 7 unknown #
loop $-1 $-1 $200 $120 #
plane-surface $-1 -33.731775175827657 -17.109605273361353 25.419759117839334 0 0.51503808176128008 0.85716729658548041 1 0 0 forward_v I I I I #
loop $-1 $-1 $330 $77 #
coedge $-1 $198 $198 $199 $331 reversed $121 $-1 #
coedge $-1 $199 $199 $198 $331 forward $123 $-1 #
coedge $-1 $200 $200 $124 $201 forward $195 $-1 #
edge $-1 $332 2.5355409409858509e-015 $332 6.2831853071796031 $200 $333 forward 7 unknown #
loop $-1 $-1 $207 $125 #
plane-surface $-1 -33.731775175827657 -17.109605273361353 25.419759117839334 0 0.51503808176128008 0.85716729658548041 1 0 0 forward_v I I I I #
loop $-1 $-1 $334 $80 #
coedge $-1 $205 $205 $206 $335 reversed $126 $-1 #
coedge $-1 $206 $206 $205 $335 forward $128 $-1 #
coedge $-1 $207 $207 $129 $208 forward $202 $-1 #
edge $-1 $336 2.5355409409858509e-015 $336 6.2831853071796031 $207 $337 forward 7 unknown #
face $-1 $338 $339 $45 $-1 $340 forward single #
loop $-1 $-1 $341 $130 #
plane-surface $-1 15.434425718196637 32.705754441119367 108.32643869553738 -1 0 0 0 0.51503808176128008 0.85716729658548041 forward_v I I I I #
coedge $-1 $342 $343 $344 $345 reversed $131 $-1 #
coedge $-1 $214 $133 $346 $347 reversed $84 $-1 #
coedge $-1 $133 $213 $342 $348 reversed $84 $-1 #
coedge $-1 $344 $349 $133 $216 forward $339 $-1 #
edge $-1 $350 -7.5989311293777178 $351 5.5910745139546449 $215 $352 forward 7 unknown #
loop $-1 $-1 $222 $134 #
plane-surface $-1 7.7172128590983178 -17.109605273361353 25.419759117839334 0 0.51503808176128008 0.85716729658548041 1 0 0 forward_v I I I I #
loop $-1 $-1 $353 $86 #
coedge $-1 $220 $220 $221 $354 reversed $135 $-1 #
coedge $-1 $221 $221 $220 $354 forward $137 $-1 #
coedge $-1 $222 $222 $138 $223 forward $217 $-1 #
edge $-1 $355 2.5355409409858509e-015 $355 6.2831853071796031 $222 $356 forward 7 unknown #
loop $-1 $-1 $229 $139 #
plane-surface $-1 7.7172128590983178 -17.109605273361353 25.419759117839334 0 0.51503808176128008 0.85716729658548041 1 0 0 forward_v I I I I #
loop $-1 $-1 $357 $89 #
coedge $-1 $227 $227 $228 $358 reversed $140 $-1 #
coedge $-1 $228 $228 $227 $358 forward $142 $-1 #
coedge $-1 $229 $229 $143 $230 forward $224 $-1 #
edge $-1 $359 2.5355409409858509e-015 $359 6.2831853071796031 $229 $360 forward 7 unknown #
face $-1 $361 $362 $48 $-1 $363 forward single #
loop $-1 $-1 $364 $144 #
plane-surface $-1 2.4948399750019341 -88.671260042980549 74.245428185474111 1 0 0 0 0.66913061440640931 -0.74314481823134659 forward_v I I I I #
coedge $-1 $365 $366 $367 $368 reversed $145 $-1 #
coedge $-1 $236 $147 $369 $370 reversed $93 $-1 #
coedge $-1 $147 $235 $365 $371 reversed $93 $-1 #
coedge $-1 $367 $372 $147 $238 forward $362 $-1 #
edge $-1 $373 20.383821671552873 $374 27.387044855210981 $237 $375 forward 7 unknown #
loop $-1 $-1 $244 $148 #
plane-surface $-1 12.520291028525477 -23.951808349937394 2.3671967476176548 0 -0.66913061440640931 0.74314481823134659 1 0 0 forward_v I I I I #
loop $-1 $-1 $376 $95 #
coedge $-1 $242 $242 $243 $377 reversed $149 $-1 #
coedge $-1 $243 $243 $242 $377 forward $151 $-1 #
coedge $-1 $244 $244 $152 $245 forward $239 $-1 #
edge $-1 $378 1.0133138937833284e-015 $378 6.2831853071796013 $244 $379 forward 7 unknown #
loop $-1 $-1 $251 $153 #
plane-surface $-1 12.520291028525477 -23.951808349937394 2.3671967476176548 0 -0.66913061440640931 0.74314481823134659 1 0 0 forward_v I I I I #
loop $-1 $-1 $380 $98 #
coedge $-1 $249 $249 $250 $381 reversed $154 $-1 #
coedge $-1 $250 $250 $249 $381 forward $156 $-1 #
coedge $-1 $251 $251 $157 $252 forward $246 $-1 #
edge $-1 $382 1.0133138937833284e-015 $382 6.2831853071796013 $251 $383 forward 7 unknown #
loop $-1 $-1 $258 $158 #
plane-surface $-1 12.520291028525477 -23.951808349937394 2.3671967476176548 0 -0.66913061440640931 0.74314481823134659 1 0 0 forward_v I I I I #
loop $-1 $-1 $384 $101 #
coedge $-1 $256 $256 $257 $385 reversed $159 $-1 #
coedge $-1 $257 $257 $256 $385 forward $161 $-1 #
coedge $-1 $258 $258 $162 $259 forward $253 $-1 #
edge $-1 $386 1.0133138937833284e-015 $386 6.2831853071796013 $258 $387 forward 7 unknown #
face $-1 $388 $389 $39 $-1 $390 reversed single #
loop $-1 $-1 $391 $163 #
plane-surface $-1 -48.360850856044195 0 0 1 0 0 0 0 -1 forward_v I I I I #
coedge $-1 $392 $271 $393 $394 forward $164 $-1 #
coedge $-1 $395 $166 $392 $396 forward $105 $-1 #
coedge $-1 $166 $395 $397 $398 forward $105 $-1 #
coedge $-1 $274 $273 $166 $267 reversed $275 $-1 #
edge $-1 $399 -23.951808349937401 $400 23.951808349937401 $266 $401 forward 7 unknown #
coedge $-1 $168 $167 $402 $403 forward $66 $-1 #
coedge $-1 $404 $405 $167 $270 reversed $389 $-1 #
edge $-1 $277 -48.360850856044195 $406 48.360850856044195 $269 $407 forward 7 unknown #
coedge $-1 $263 $408 $168 $272 reversed $164 $-1 #
edge $-1 $409 -48.360850856044195 $276 48.360850856044195 $271 $410 forward 7 unknown #
coedge $-1 $266 $169 $408 $411 forward $275 $-1 #
coedge $-1 $169 $266 $404 $412 reversed $275 $-1 #
loop $-1 $-1 $273 $388 #
vertex $-1 $170 $413 #
vertex $-1 $170 $414 #
straight-curve $-1 48.360850856044195 0 8.6729273626261882 0 1 0 I I #
face $-1 $415 $416 $40 $-1 $417 forward single #
loop $-1 $-1 $418 $171 #
plane-surface $-1 0 0 -8.6729273626261882 0 0 1 1 0 0 forward_v I I I I #
coedge $-1 $419 $420 $287 $421 forward $172 $-1 #
coedge $-1 $422 $174 $418 $423 reversed $109 $-1 #
coedge $-1 $174 $422 $424 $425 reversed $109 $-1 #
coedge $-1 $420 $419 $174 $286 reversed $172 $-1 #
edge $-1 $426 -8.6729273626261882 $427 8.6729273626261882 $285 $428 forward 7 unknown #
coedge $-1 $176 $175 $282 $421 reversed $69 $-1 #
coedge $-1 $429 $430 $175 $289 forward $280 $-1 #
edge $-1 $431 18.996528312183433 $295 25.908391133301652 $288 $432 forward 7 unknown #
coedge $-1 $433 $434 $176 $291 forward $416 $-1 #
edge $-1 $296 -25.908391133301652 $435 -18.996528312183433 $290 $436 forward 7 unknown #
coedge $-1 $437 $177 $434 $438 reversed $294 $-1 #
coedge $-1 $177 $437 $429 $439 reversed $294 $-1 #
loop $-1 $-1 $437 $415 #
vertex $-1 $439 $440 #
vertex $-1 $178 $441 #
straight-curve $-1 -48.360850856044195 -14.269987267927116 0 0 0 1 I I #
face $-1 $442 $443 $41 $-1 $444 forward single #
loop $-1 $-1 $307 $179 #
plane-surface $-1 0 0 -8.6729273626261882 0 0 1 1 0 0 forward_v I I I I #
coedge $-1 $445 $446 $447 $448 reversed $180 $-1 #
coedge $-1 $185 $182 $449 $450 reversed $113 $-1 #
coedge $-1 $182 $185 $451 $452 reversed $113 $-1 #
coedge $-1 $446 $445 $182 $305 reversed $180 $-1 #
edge $-1 $453 -8.6729273626261882 $454 8.6729273626261882 $304 $455 forward 7 unknown #
coedge $-1 $184 $183 $456 $457 reversed $72 $-1 #
coedge $-1 $449 $458 $183 $308 forward $299 $-1 #
edge $-1 $459 -25.908391133301649 $312 -18.996528312183429 $307 $460 forward 7 unknown #
coedge $-1 $461 $451 $184 $310 forward $443 $-1 #
edge $-1 $311 18.996528312183429 $462 25.908391133301649 $309 $463 forward 7 unknown #
vertex $-1 $310 $464 #
vertex $-1 $308 $465 #
straight-curve $-1 41.448988034925968 -14.269987267927116 0 0 0 -1 I I #
face $-1 $-1 $326 $42 $-1 $466 forward single #
loop $-1 $-1 $467 $187 #
plane-surface $-1 0 23.951808349937401 0 0 -1 0 0 0 -1 forward_v I I I I #
coedge $-1 $468 $469 $470 $471 reversed $188 $-1 #
coedge $-1 $472 $190 $192 $324 forward $117 $-1 #
coedge $-1 $190 $472 $468 $473 forward $117 $-1 #
coedge $-1 $470 $193 $190 $321 forward $326 $-1 #
edge $-1 $328 -24.583100447012146 $474 -9.1486747288155108 $320 $475 forward 7 unknown #
coedge $-1 $476 $477 $191 $323 forward $315 $-1 #
edge $-1 $478 -53.415647084460495 $327 -45.490291985142498 $322 $479 forward 7 unknown #
edge $-1 $328 32.515715533002648 $478 47.903616699874796 $192 $480 forward 7 unknown #
coedge $-1 $193 $470 $476 $481 forward $326 $-1 #
loop $-1 $-1 $470 $314 #
vertex $-1 $323 $482 #
vertex $-1 $194 $483 #
straight-curve $-1 -41.448988034925975 16.352877220559684 8.67292736262619 0 -1 0 I I #
coedge $-1 $330 $330 $-1 $484 reversed $197 $-1 #
edge $-1 $485 0 $485 6.2831853071796004 $198 $486 forward 7 unknown #
vertex $-1 $201 $487 #
ellipse-curve $-1 -37.039152115441219 17.356805528271224 4.7102498129671915 0 0.51503808176128008 0.85716729658548041 1.5 0 0 1 I I #
coedge $-1 $334 $334 $-1 $488 reversed $204 $-1 #
edge $-1 $489 0 $489 6.2831853071796004 $205 $490 forward 7 unknown #
vertex $-1 $208 $491 #
ellipse-curve $-1 -30.424398236214088 17.356805528271224 4.7102498129671915 0 0.51503808176128008 0.85716729658548041 1.5 0 0 1 I I #
face $-1 $-1 $492 $45 $-1 $493 reversed single #
loop $-1 $-1 $215 $209 #
plane-surface $-1 0 0 8.6729273626261882 0 0 1 1 0 0 forward_v I I I I #
coedge $-1 $494 $495 $496 $497 reversed $210 $-1 #
coedge $-1 $498 $212 $214 $348 forward $131 $-1 #
coedge $-1 $212 $498 $494 $499 forward $131 $-1 #
coedge $-1 $496 $215 $212 $345 forward $339 $-1 #
edge $-1 $351 -3.8586064295491607 $500 11.575819288647478 $344 $501 forward 7 unknown #
coedge $-1 $502 $503 $213 $347 forward $492 $-1 #
edge $-1 $504 -53.415647084460495 $350 -45.490291985142498 $346 $505 forward 7 unknown #
edge $-1 $351 32.515715533002648 $504 47.903616699874796 $214 $506 forward 7 unknown #
coedge $-1 $215 $496 $502 $507 forward $339 $-1 #
vertex $-1 $347 $508 #
vertex $-1 $216 $509 #
straight-curve $-1 -1.7763568394002505e-015 16.352877220559684 8.67292736262619 0 -1 0 I I #
coedge $-1 $353 $353 $-1 $510 reversed $219 $-1 #
edge $-1 $511 0 $511 6.2831853071796004 $220 $512 forward 7 unknown #
vertex $-1 $223 $513 #
ellipse-curve $-1 4.4098359194847561 17.356805528271224 4.7102498129671915 0 0.51503808176128008 0.85716729658548041 1.5 0 0 1 I I #
coedge $-1 $357 $357 $-1 $514 reversed $226 $-1 #
edge $-1 $515 0 $515 6.2831853071796004 $227 $516 forward 7 unknown #
vertex $-1 $230 $517 #
ellipse-curve $-1 11.024589798711887 17.356805528271224 4.7102498129671915 0 0.51503808176128008 0.85716729658548041 1.5 0 0 1 I I #
face $-1 $-1 $518 $48 $-1 $519 reversed single #
loop $-1 $-1 $237 $231 #
plane-surface $-1 0 0 8.6729273626261882 0 0 1 1 0 0 forward_v I I I I #
coedge $-1 $520 $521 $522 $523 reversed $232 $-1 #
coedge $-1 $524 $234 $236 $371 forward $145 $-1 #
coedge $-1 $234 $524 $520 $525 forward $145 $-1 #
coedge $-1 $522 $237 $234 $368 forward $362 $-1 #
edge $-1 $374 -16.285596567786282 $526 3.7653055392608046 $367 $527 forward 7 unknown #
coedge $-1 $528 $529 $235 $370 forward $518 $-1 #
edge $-1 $530 -34.755517345119408 $373 -28.449786730110866 $369 $531 forward 7 unknown #
edge $-1 $374 -9.4237664205551166 $530 9.4405131238556439e-015 $236 $532 forward 7 unknown #
coedge $-1 $237 $522 $528 $533 forward $362 $-1 #
vertex $-1 $238 $534 #
vertex $-1 $238 $535 #
straight-curve $-1 22.545742082049021 -44.335630021490275 8.67292736262619 0 1 0 I I #
coedge $-1 $376 $376 $-1 $536 reversed $241 $-1 #
edge $-1 $537 0 $537 6.2831853071796004 $242 $538 forward 7 unknown #
vertex $-1 $245 $539 #
ellipse-curve $-1 6.5050203964113464 -20.450196758108351 5.5200620551219171 0 -0.66913061440640931 0.74314481823134659 1.5 0 0 1 I I #
coedge $-1 $380 $380 $-1 $540 reversed $248 $-1 #
edge $-1 $541 0 $541 6.2831853071796004 $249 $542 forward 7 unknown #
vertex $-1 $252 $543 #
ellipse-curve $-1 12.52029102852547 -20.450196758108351 5.5200620551219171 0 -0.66913061440640931 0.74314481823134659 1.5 0 0 1 I I #
coedge $-1 $384 $384 $-1 $544 reversed $255 $-1 #
edge $-1 $545 0 $545 6.2831853071796004 $256 $546 forward 7 unknown #
vertex $-1 $259 $547 #
ellipse-curve $-1 18.535561660639601 -20.450196758108351 5.5200620551219171 0 -0.66913061440640931 0.74314481823134659 1.5 0 0 1 I I #
face $-1 $-1 $275 $39 $-1 $548 reversed single #
loop $-1 $-1 $404 $260 #
plane-surface $-1 0 23.951808349937401 0 0 -1 0 0 0 -1 forward_v I I I I #
coedge $-1 $549 $402 $405 $550 forward $261 $-1 #
coedge $-1 $408 $263 $264 $396 reversed $164 $-1 #
coedge $-1 $402 $549 $263 $394 reversed $261 $-1 #
edge $-1 $409 -8.6729273626261882 $551 8.6729273626261882 $393 $552 forward 7 unknown #
coedge $-1 $265 $264 $549 $553 forward $105 $-1 #
edge $-1 $400 -48.360850856044195 $551 48.360850856044195 $392 $554 forward 7 unknown #
coedge $-1 $405 $404 $265 $398 reversed $389 $-1 #
edge $-1 $555 -48.360850856044195 $399 48.360850856044195 $397 $556 forward 7 unknown #
vertex $-1 $267 $557 #
vertex $-1 $411 $558 #
straight-curve $-1 48.360850856044195 0 -8.6729273626261882 0 -1 0 I I #
coedge $-1 $391 $393 $268 $403 reversed $261 $-1 #
edge $-1 $406 -23.951808349937401 $409 23.951808349937401 $402 $559 forward 7 unknown #
coedge $-1 $397 $269 $274 $412 forward $389 $-1 #
coedge $-1 $269 $397 $391 $550 reversed $389 $-1 #
vertex $-1 $270 $560 #
straight-curve $-1 0 23.951808349937401 8.6729273626261882 -1 0 0 I I #
coedge $-1 $271 $392 $273 $411 reversed $164 $-1 #
vertex $-1 $403 $561 #
straight-curve $-1 0 -23.951808349937401 8.6729273626261882 1 0 0 I I #
edge $-1 $276 -8.6729273626261882 $400 8.6729273626261882 $273 $562 forward 7 unknown #
edge $-1 $277 -8.6729273626261882 $399 8.6729273626261882 $274 $563 forward 7 unknown #
point $-1 48.360850856044195 -23.951808349937401 8.6729273626261882 #
point $-1 48.360850856044195 23.951808349937401 8.6729273626261882 #
face $-1 $-1 $294 $40 $-1 $564 reversed single #
loop $-1 $-1 $424 $279 #
plane-surface $-1 0 0 8.6729273626261882 0 0 1 1 0 0 forward_v I I I I #
coedge $-1 $430 $429 $283 $423 forward $280 $-1 #
coedge $-1 $285 $282 $430 $565 reversed $172 $-1 #
coedge $-1 $282 $285 $433 $566 reversed $172 $-1 #
edge $-1 $435 -8.6729273626261882 $431 8.6729273626261882 $282 $567 forward 7 unknown #
coedge $-1 $284 $283 $437 $568 reversed $109 $-1 #
edge $-1 $569 -25.908391133301652 $427 -18.996528312183433 $418 $570 forward 7 unknown #
coedge $-1 $434 $433 $284 $425 forward $416 $-1 #
edge $-1 $426 18.996528312183433 $571 25.908391133301652 $424 $572 forward 7 unknown #
vertex $-1 $425 $573 #
vertex $-1 $423 $574 #
straight-curve $-1 -41.448988034925975 -11.269987267927116 0 0 0 -1 I I #
coedge $-1 $418 $288 $293 $439 forward $280 $-1 #
coedge $-1 $288 $418 $419 $565 forward $280 $-1 #
vertex $-1 $289 $575 #
straight-curve $-1 -22.452459722742542 -14.269987267927116 -8.6729273626261882 -1 0 0 I I #
coedge $-1 $424 $290 $420 $566 forward $416 $-1 #
coedge $-1 $290 $424 $292 $438 forward $416 $-1 #
vertex $-1 $291 $576 #
straight-curve $-1 -22.452459722742542 -14.269987267927116 8.6729273626261882 1 0 0 I I #
coedge $-1 $293 $292 $422 $568 forward $294 $-1 #
edge $-1 $571 11.269987267927116 $296 14.269987267927116 $292 $577 forward 7 unknown #
edge $-1 $295 -14.269987267927116 $569 -11.269987267927116 $293 $578 forward 7 unknown #
point $-1 -48.360850856044195 -14.269987267927116 -8.6729273626261882 #
point $-1 -48.360850856044195 -14.269987267927116 8.6729273626261882 #
face $-1 $-1 $579 $41 $-1 $580 reversed single #
loop $-1 $-1 $309 $298 #
plane-surface $-1 0 0 8.6729273626261882 0 0 1 1 0 0 forward_v I I I I #
coedge $-1 $304 $301 $581 $582 reversed $180 $-1 #
coedge $-1 $301 $304 $583 $584 reversed $180 $-1 #
coedge $-1 $585 $586 $301 $448 forward $579 $-1 #
edge $-1 $587 -8.6729273626261882 $588 8.6729273626261882 $447 $589 forward 7 unknown #
coedge $-1 $581 $307 $302 $450 forward $299 $-1 #
edge $-1 $312 -7.8849936339635578 $454 -4.8849936339635578 $449 $590 forward 7 unknown #
coedge $-1 $309 $583 $303 $452 forward $443 $-1 #
edge $-1 $453 4.8849936339635578 $311 7.8849936339635578 $451 $591 forward 7 unknown #
vertex $-1 $452 $592 #
vertex $-1 $450 $593 #
straight-curve $-1 41.448988034925968 -11.269987267927116 0 0 0 -1 I I #
coedge $-1 $586 $585 $306 $457 forward $579 $-1 #
edge $-1 $462 -8.6729273626261882 $459 8.6729273626261882 $456 $594 forward 7 unknown #
coedge $-1 $307 $581 $586 $595 forward $299 $-1 #
vertex $-1 $457 $596 #
straight-curve $-1 22.452459722742539 -14.269987267927116 -8.6729273626261882 -1 0 0 I I #
coedge $-1 $583 $309 $585 $597 forward $443 $-1 #
vertex $-1 $597 $598 #
straight-curve $-1 22.452459722742539 -14.269987267927116 8.6729273626261882 1 0 0 I I #
point $-1 41.448988034925968 -14.269987267927116 8.6729273626261882 #
point $-1 41.448988034925968 -14.269987267927116 -8.6729273626261882 #
plane-surface $-1 0 0 8.6729273626261882 0 0 1 1 0 0 forward_v I I I I #
coedge $-1 $477 $476 $469 $599 forward $315 $-1 #
coedge $-1 $469 $317 $319 $473 reversed $188 $-1 #
coedge $-1 $317 $468 $467 $599 reversed $188 $-1 #
coedge $-1 $325 $320 $317 $471 forward $326 $-1 #
edge $-1 $474 -5.5910745139546449 $600 7.5989311293777178 $470 $601 forward 7 unknown #
coedge $-1 $319 $318 $477 $602 reversed $117 $-1 #
edge $-1 $603 -47.903616699874796 $474 -32.515715533002648 $468 $604 forward 7 unknown #
vertex $-1 $321 $605 #
straight-curve $-1 -16.865887587913829 10.761802706605042 8.6729273626261882 1 0 0 I I #
coedge $-1 $467 $322 $325 $481 reversed $315 $-1 #
coedge $-1 $322 $467 $472 $602 forward $315 $-1 #
vertex $-1 $323 $606 #
straight-curve $-1 -41.448988034925975 23.951808349937401 54.163219347768688 0 0 1 I I #
straight-curve $-1 -41.448988034925975 -17.109605273361353 25.419759117839334 0 0.85716729658548041 -0.51503808176128008 I I #
edge $-1 $600 26.014562316729339 $327 41.448988034925975 $476 $607 forward 7 unknown #
point $-1 -41.448988034925975 23.951808349937401 8.6729273626261882 #
point $-1 -41.448988034925975 10.761802706605039 8.67292736262619 #
edge $-1 $608 1 $608 0 $330 $-1 forward 7 unknown #
vertex $-1 $331 $609 #
ellipse-curve $-1 -37.039152115441219 14.815739319895254 0.48120553563954638 0 0.51503808176128008 0.85716729658548041 1.5 0 0 1 I I #
point $-1 -35.539152115441219 17.356805528271231 4.7102498129671959 #
edge $-1 $610 1 $610 0 $334 $-1 forward 7 unknown #
vertex $-1 $335 $611 #
ellipse-curve $-1 -30.424398236214088 14.815739319895254 0.48120553563954638 0 0.51503808176128008 0.85716729658548041 1.5 0 0 1 I I #
point $-1 -28.924398236214088 17.356805528271231 4.7102498129671959 #
loop $-1 $-1 $346 $338 #
plane-surface $-1 0 23.951808349937401 0 0 -1 0 0 0 -1 forward_v I I I I #
coedge $-1 $495 $341 $343 $499 reversed $210 $-1 #
coedge $-1 $341 $494 $612 $613 reversed $210 $-1 #
coedge $-1 $349 $344 $341 $497 forward $339 $-1 #
edge $-1 $500 -5.5910745139546449 $614 7.5989311293777178 $496 $615 forward 7 unknown #
coedge $-1 $343 $342 $503 $616 reversed $131 $-1 #
edge $-1 $617 -47.903616699874796 $500 -32.515715533002648 $494 $618 forward 7 unknown #
vertex $-1 $345 $619 #
straight-curve $-1 3.8586064295491589 10.761802706605042 8.6729273626261882 1 0 0 I I #
coedge $-1 $612 $346 $349 $507 reversed $492 $-1 #
coedge $-1 $346 $612 $498 $616 forward $492 $-1 #
vertex $-1 $347 $620 #
straight-curve $-1 -1.7763568394002505e-015 23.951808349937401 54.163219347768688 0 0 1 I I #
straight-curve $-1 -1.7763568394002505e-015 -17.109605273361353 25.419759117839334 0 0.85716729658548041 -0.51503808176128008 I I #
edge $-1 $614 -15.434425718196637 $350 1.7763568394002505e-015 $502 $621 forward 7 unknown #
point $-1 -1.7763568394002505e-015 23.951808349937401 8.6729273626261882 #
point $-1 -1.7763568394002505e-015 10.761802706605039 8.67292736262619 #
edge $-1 $622 1 $622 0 $353 $-1 forward 7 unknown #
vertex $-1 $354 $623 #
ellipse-curve $-1 4.4098359194847561 14.815739319895254 0.48120553563954638 0 0.51503808176128008 0.85716729658548041 1.5 0 0 1 I I #
point $-1 5.9098359194847561 17.356805528271231 4.7102498129671959 #
edge $-1 $624 1 $624 0 $357 $-1 forward 7 unknown #
vertex $-1 $358 $625 #
ellipse-curve $-1 11.024589798711887 14.815739319895254 0.48120553563954638 0 0.51503808176128008 0.85716729658548041 1.5 0 0 1 I I #
point $-1 12.524589798711887 17.356805528271231 4.7102498129671959 #
loop $-1 $-1 $369 $361 #
plane-surface $-1 0 -23.951808349937401 0 0 1 0 0 0 1 forward_v I I I I #
coedge $-1 $521 $364 $366 $525 reversed $232 $-1 #
coedge $-1 $364 $520 $626 $627 reversed $232 $-1 #
coedge $-1 $372 $367 $364 $523 forward $362 $-1 #
edge $-1 $526 -27.387044855210981 $628 -20.383821671552873 $522 $629 forward 7 unknown #
coedge $-1 $366 $365 $529 $630 reversed $145 $-1 #
edge $-1 $631 -9.4405131238556439e-015 $526 9.4237664205551166 $520 $632 forward 7 unknown #
vertex $-1 $368 $633 #
straight-curve $-1 6.2601455142627387 -16.948585166279294 8.6729273626261882 -1 0 0 I I #
coedge $-1 $626 $369 $372 $533 reversed $518 $-1 #
coedge $-1 $369 $626 $524 $630 forward $518 $-1 #
vertex $-1 $370 $634 #
straight-curve $-1 22.545742082049021 -23.951808349937401 37.122714092737056 0 0 1 I I #
straight-curve $-1 22.545742082049021 -23.951808349937394 2.3671967476176548 0 -0.74314481823134659 -0.66913061440640931 I I #
edge $-1 $628 2.4948399750019341 $373 22.545742082049021 $528 $635 forward 7 unknown #
point $-1 22.545742082049021 -23.951808349937401 8.6729273626261882 #
point $-1 22.545742082049021 -16.948585166279294 8.6729273626261882 #
edge $-1 $636 1 $636 0 $376 $-1 forward 7 unknown #
vertex $-1 $377 $637 #
ellipse-curve $-1 6.5050203964113464 -17.633433982649652 2.3917301335193999 0 -0.66913061440640931 0.74314481823134659 1.5 0 0 1 I I #
point $-1 8.0050203964113464 -20.450196758108355 5.5200620551219233 #
edge $-1 $638 1 $638 0 $380 $-1 forward 7 unknown #
vertex $-1 $381 $639 #
ellipse-curve $-1 12.52029102852547 -17.633433982649652 2.3917301335193999 0 -0.66913061440640931 0.74314481823134659 1.5 0 0 1 I I #
point $-1 14.02029102852547 -20.450196758108355 5.5200620551219233 #
edge $-1 $640 1 $640 0 $384 $-1 forward 7 unknown #
vertex $-1 $385 $641 #
ellipse-curve $-1 18.535561660639601 -17.633433982649652 2.3917301335193999 0 -0.66913061440640931 0.74314481823134659 1.5 0 0 1 I I #
point $-1 20.035561660639601 -20.450196758108355 5.5200620551219233 #
plane-surface $-1 48.360850856044195 0 0 -1 0 0 0 0 1 forward_v I I I I #
coedge $-1 $393 $391 $395 $553 reversed $261 $-1 #
edge $-1 $406 -8.6729273626261882 $555 8.6729273626261882 $405 $642 forward 7 unknown #
vertex $-1 $553 $643 #
straight-curve $-1 -48.360850856044195 -23.951808349937401 0 0 0 -1 I I #
edge $-1 $551 -23.951808349937401 $555 23.951808349937401 $549 $644 forward 7 unknown #
straight-curve $-1 0 -23.951808349937401 -8.6729273626261882 -1 0 0 I I #
vertex $-1 $398 $645 #
straight-curve $-1 0 23.951808349937401 -8.6729273626261882 1 0 0 I I #
point $-1 48.360850856044195 23.951808349937401 -8.6729273626261882 #
point $-1 48.360850856044195 -23.951808349937401 -8.6729273626261882 #
straight-curve $-1 -48.360850856044195 0 8.6729273626261882 0 -1 0 I I #
point $-1 -48.360850856044195 23.951808349937401 8.6729273626261882 #
point $-1 -48.360850856044195 -23.951808349937401 8.6729273626261882 #
straight-curve $-1 48.360850856044195 -23.951808349937401 0 0 0 -1 I I #
straight-curve $-1 48.360850856044195 23.951808349937401 0 0 0 -1 I I #
plane-surface $-1 -48.360850856044195 0 0 1 0 0 0 0 -1 forward_v I I I I #
edge $-1 $427 4.8849936339635578 $431 7.8849936339635578 $430 $646 forward 7 unknown #
edge $-1 $435 -7.8849936339635578 $426 -4.8849936339635578 $433 $647 forward 7 unknown #
straight-curve $-1 -41.448988034925975 -14.269987267927116 0 0 0 -1 I I #
edge $-1 $571 -8.6729273626261882 $569 8.6729273626261882 $437 $648 forward 7 unknown #
vertex $-1 $568 $649 #
straight-curve $-1 -22.452459722742542 -11.269987267927116 -8.6729273626261882 1 0 0 I I #
vertex $-1 $438 $650 #
straight-curve $-1 -22.452459722742542 -11.269987267927116 8.6729273626261882 -1 0 0 I I #
point $-1 -41.448988034925975 -11.269987267927116 8.6729273626261882 #
point $-1 -41.448988034925975 -11.269987267927116 -8.6729273626261882 #
point $-1 -41.448988034925975 -14.269987267927116 -8.6729273626261882 #
point $-1 -41.448988034925975 -14.269987267927116 8.6729273626261882 #
straight-curve $-1 -48.360850856044195 0 8.6729273626261882 0 -1 0 I I #
straight-curve $-1 -48.360850856044195 0 -8.6729273626261882 0 1 0 I I #
loop $-1 $-1 $456 $442 #
plane-surface $-1 48.360850856044195 0 0 -1 0 0 0 0 1 forward_v I I I I #
coedge $-1 $458 $449 $445 $582 forward $299 $-1 #
edge $-1 $454 18.996528312183429 $587 25.908391133301649 $581 $651 forward 7 unknown #
coedge $-1 $451 $461 $446 $584 forward $443 $-1 #
edge $-1 $588 -25.908391133301649 $453 -18.996528312183429 $583 $652 forward 7 unknown #
coedge $-1 $456 $447 $461 $597 reversed $579 $-1 #
coedge $-1 $447 $456 $458 $595 reversed $579 $-1 #
vertex $-1 $595 $653 #
vertex $-1 $448 $654 #
straight-curve $-1 48.360850856044195 -11.269987267927116 0 0 0 1 I I #
straight-curve $-1 41.448988034925968 -6.3849936339635578 -8.6729273626261882 0 1 0 I I #
straight-curve $-1 41.448988034925968 -6.3849936339635578 8.6729273626261882 0 -1 0 I I #
point $-1 41.448988034925968 -11.269987267927116 8.6729273626261882 #
point $-1 41.448988034925968 -11.269987267927116 -8.6729273626261882 #
straight-curve $-1 48.360850856044195 -14.269987267927116 0 0 0 -1 I I #
edge $-1 $587 11.269987267927116 $459 14.269987267927116 $586 $655 forward 7 unknown #
point $-1 48.360850856044188 -14.269987267927116 -8.6729273626261882 #
edge $-1 $462 -14.269987267927116 $588 -11.269987267927116 $585 $656 forward 7 unknown #
point $-1 48.360850856044188 -14.269987267927116 8.6729273626261882 #
edge $-1 $600 45.490291985142498 $603 53.415647084460495 $467 $657 forward 7 unknown #
vertex $-1 $481 $658 #
straight-curve $-1 -26.014562316729339 16.352877220559684 8.67292736262619 0 1 0 I I #
edge $-1 $603 9.1486747288155108 $478 24.583100447012146 $477 $659 forward 7 unknown #
vertex $-1 $602 $660 #
straight-curve $-1 -26.014562316729339 -17.109605273361353 25.419759117839334 0 -0.85716729658548041 0.51503808176128008 I I #
point $-1 -26.014562316729339 10.761802706605039 8.67292736262619 #
point $-1 -41.448988034925975 23.951808349937401 0.74757226330819293 #
straight-curve $-1 0 23.951808349937401 8.6729273626261882 -1 0 0 I I #
vertex $-1 $484 $661 #
point $-1 -35.539152115441219 14.815739319895254 0.48120553563954638 #
vertex $-1 $488 $662 #
point $-1 -28.924398236214088 14.815739319895254 0.48120553563954638 #
coedge $-1 $503 $502 $495 $613 forward $492 $-1 #
edge $-1 $614 45.490291985142498 $617 53.415647084460495 $612 $663 forward 7 unknown #
vertex $-1 $507 $664 #
straight-curve $-1 15.434425718196637 16.352877220559684 8.67292736262619 0 1 0 I I #
edge $-1 $617 -11.575819288647478 $504 3.8586064295491607 $503 $665 forward 7 unknown #
vertex $-1 $616 $666 #
straight-curve $-1 15.434425718196637 -17.109605273361353 25.419759117839334 0 -0.85716729658548041 0.51503808176128008 I I #
point $-1 15.434425718196637 10.761802706605039 8.67292736262619 #
point $-1 -1.7763568394002505e-015 23.951808349937401 0.74757226330819293 #
straight-curve $-1 0 23.951808349937401 8.6729273626261882 -1 0 0 I I #
vertex $-1 $510 $667 #
point $-1 5.9098359194847561 14.815739319895254 0.48120553563954638 #
vertex $-1 $514 $668 #
point $-1 12.524589798711887 14.815739319895254 0.48120553563954638 #
coedge $-1 $529 $528 $521 $627 forward $518 $-1 #
edge $-1 $628 28.449786730110866 $631 34.755517345119408 $626 $669 forward 7 unknown #
vertex $-1 $533 $670 #
straight-curve $-1 2.4948399750019341 -44.335630021490275 8.67292736262619 0 -1 0 I I #
edge $-1 $631 -3.7653055392608046 $530 16.285596567786282 $529 $671 forward 7 unknown #
vertex $-1 $630 $672 #
straight-curve $-1 2.4948399750019341 -23.951808349937394 2.3671967476176548 0 0.74314481823134659 0.66913061440640931 I I #
point $-1 2.4948399750019341 -16.948585166279294 8.6729273626261882 #
point $-1 22.545742082049021 -23.951808349937401 2.3671967476176485 #
straight-curve $-1 0 -23.951808349937401 8.6729273626261882 1 0 0 I I #
vertex $-1 $536 $673 #
point $-1 8.0050203964113464 -17.633433982649652 2.3917301335193999 #
vertex $-1 $540 $674 #
point $-1 14.02029102852547 -17.633433982649652 2.3917301335193999 #
vertex $-1 $544 $675 #
point $-1 20.035561660639601 -17.633433982649652 2.3917301335193999 #
straight-curve $-1 -48.360850856044195 23.951808349937401 0 0 0 -1 I I #
point $-1 -48.360850856044195 -23.951808349937401 -8.6729273626261882 #
straight-curve $-1 -48.360850856044195 0 -8.6729273626261882 0 1 0 I I #
point $-1 -48.360850856044195 23.951808349937401 -8.6729273626261882 #
straight-curve $-1 -41.448988034925975 -6.3849936339635578 -8.6729273626261882 0 -1 0 I I #
straight-curve $-1 -41.448988034925975 -6.3849936339635578 8.6729273626261882 0 1 0 I I #
straight-curve $-1 -48.360850856044195 -11.269987267927116 0 0 0 -1 I I #
point $-1 -48.360850856044195 -11.269987267927116 -8.6729273626261882 #
point $-1 -48.360850856044195 -11.269987267927116 8.6729273626261882 #
straight-curve $-1 22.452459722742539 -11.269987267927116 -8.6729273626261882 1 0 0 I I #
straight-curve $-1 22.452459722742539 -11.269987267927116 8.6729273626261882 -1 0 0 I I #
point $-1 48.360850856044188 -11.269987267927116 -8.6729273626261882 #
point $-1 48.360850856044188 -11.269987267927116 8.6729273626261882 #
straight-curve $-1 48.360850856044195 0 -8.6729273626261882 0 -1 0 I I #
straight-curve $-1 48.360850856044195 0 8.6729273626261882 0 1 0 I I #
straight-curve $-1 -26.014562316729339 23.951808349937401 54.163219347768688 0 0 -1 I I #
point $-1 -26.014562316729339 23.951808349937401 8.6729273626261882 #
straight-curve $-1 -16.865887587913829 23.951808349937401 0.74757226330819826 -1 0 0 I I #
point $-1 -26.014562316729339 23.951808349937401 0.74757226330819293 #
point $-1 -37.039152115441219 14.043182197253333 -0.80454540923867435 #
point $-1 -30.424398236214088 14.043182197253333 -0.80454540923867435 #
straight-curve $-1 15.434425718196637 23.951808349937401 54.163219347768688 0 0 -1 I I #
point $-1 15.434425718196637 23.951808349937401 8.6729273626261882 #
straight-curve $-1 3.8586064295491589 23.951808349937401 0.74757226330819826 -1 0 0 I I #
point $-1 15.434425718196637 23.951808349937401 0.74757226330819293 #
point $-1 4.4098359194847561 14.043182197253333 -0.80454540923867435 #
point $-1 11.024589798711887 14.043182197253333 -0.80454540923867435 #
straight-curve $-1 2.4948399750019341 -23.951808349937401 37.122714092737056 0 0 -1 I I #
point $-1 2.4948399750019341 -23.951808349937401 8.6729273626261882 #
straight-curve $-1 6.2601455142627387 -23.951808349937401 2.3671967476176481 1 0 0 I I #
point $-1 2.4948399750019341 -23.951808349937401 2.3671967476176485 #
point $-1 6.5050203964113464 -16.62973806104004 1.2770129061723798 #
point $-1 12.52029102852547 -16.62973806104004 1.2770129061723798 #
point $-1 18.535561660639601 -16.62973806104004 1.2770129061723798 #
End-of-ACIS-data 