500 0 7 0           
7 Unknown 11 ACIS 5.0 NT 24 Thu Mar 25 17:26:40 1999 
-1 9.9999999999999995e-007 1e-010 
body $-1 $7 $-1 $8 #
body $-1 $9 $-1 $10 #
body $-1 $11 $-1 $12 #
body $-1 $13 $-1 $14 #
body $-1 $15 $-1 $16 #
body $-1 $17 $-1 $18 #
body $-1 $19 $-1 $20 #
lump $-1 $-1 $21 $0 #
transform $-1 1 0 0 0 1 0 0 0 1 58.298898281807915 24.727080856677091 6.7671772692724943 1 rotate no_reflect no_shear #
lump $-1 $-1 $22 $1 #
transform $-1 1 0 0 0 1 0 0 0 1 58.298898281807915 24.727080856677091 6.7671772692724943 1 rotate no_reflect no_shear #
lump $-1 $-1 $23 $2 #
transform $-1 1 0 0 0 1 0 0 0 1 58.298898281807915 24.727080856677091 6.7671772692724943 1 rotate no_reflect no_shear #
lump $-1 $-1 $24 $3 #
transform $-1 1 0 0 0 1 0 0 0 1 58.298898281807915 24.727080856677091 6.7671772692724943 1 rotate no_reflect no_shear #
lump $-1 $-1 $25 $4 #
transform $-1 1 0 0 0 1 0 0 0 1 58.298898281807915 24.727080856677091 6.7671772692724943 1 rotate no_reflect no_shear #
lump $-1 $-1 $26 $5 #
transform $-1 1 0 0 0 1 0 0 0 1 58.298898281807915 24.727080856677091 6.7671772692724943 1 rotate no_reflect no_shear #
lump $-1 $-1 $27 $6 #
transform $-1 1 0 0 0 1 0 0 0 1 58.298898281807915 24.727080856677091 6.7671772692724943 1 rotate no_reflect no_shear #
shell $-1 $-1 $-1 $28 $-1 $7 #
shell $-1 $-1 $-1 $29 $-1 $9 #
shell $-1 $-1 $-1 $30 $-1 $11 #
shell $-1 $-1 $-1 $31 $-1 $13 #
shell $-1 $-1 $-1 $32 $-1 $15 #
shell $-1 $-1 $-1 $33 $-1 $17 #
shell $-1 $-1 $-1 $34 $-1 $19 #
face $-1 $35 $36 $21 $-1 $37 forward single #
face $-1 $38 $39 $22 $-1 $40 forward single #
face $-1 $41 $42 $23 $-1 $43 forward single #
face $-1 $44 $45 $24 $-1 $46 reversed single #
face $-1 $47 $48 $25 $-1 $49 forward single #
face $-1 $50 $51 $26 $-1 $52 forward single #
face $-1 $53 $54 $27 $-1 $55 forward single #
face $-1 $56 $57 $21 $-1 $58 reversed single #
loop $-1 $-1 $59 $28 #
plane-surface $-1 0 0 6.7671772692724943 0 0 1 1 0 0 forward_v I I I I #
face $-1 $60 $61 $22 $-1 $62 forward single #
loop $-1 $-1 $63 $29 #
plane-surface $-1 -58.298898281807915 0 0 1 0 0 0 0 -1 forward_v I I I I #
face $-1 $64 $65 $23 $-1 $66 reversed single #
loop $-1 $-1 $67 $30 #
plane-surface $-1 55.930855047413949 0 -3.2418580360200604 0 0 1 1 0 0 forward_v I I I I #
face $-1 $68 $69 $24 $-1 $70 reversed single #
loop $-1 $-1 $71 $31 #
plane-surface $-1 53.562811813019998 -98.104452696809375 90.794236670864848 -1 0 0 0 -0.62932039886446345 0.77714595512881146 forward_v I I I I #
face $-1 $72 $73 $25 $-1 $74 forward single #
loop $-1 $75 $76 $32 #
cone-surface $-1 35.659339258442678 -20.017265043693886 2.6798857073910911 0 0.62932039886446345 -0.77714595512881146 1 0 0 1 I I 0 1 1 forward I I I I #
face $-1 $77 $78 $26 $-1 $79 forward single #
loop $-1 $80 $81 $33 #
cone-surface $-1 42.373141466409173 -20.017265043693886 2.6798857073910911 0 0.62932039886446345 -0.77714595512881146 1 0 0 1 I I 0 1 1 forward I I I I #
face $-1 $82 $83 $27 $-1 $84 forward single #
loop $-1 $85 $86 $34 #
cone-surface $-1 49.086943674375668 -20.017265043693886 2.6798857073910911 0 0.62932039886446345 -0.77714595512881146 1 0 0 1 I I 0 1 1 forward I I I I #
face $-1 $87 $88 $21 $-1 $89 reversed single #
loop $-1 $-1 $90 $35 #
plane-surface $-1 0 0 -6.7671772692724943 0 0 1 1 0 0 forward_v I I I I #
coedge $-1 $91 $92 $93 $94 forward $36 $-1 #
face $-1 $95 $96 $22 $-1 $97 reversed single #
loop $-1 $-1 $98 $38 #
plane-surface $-1 0 0 6.7671772692724943 0 0 1 1 0 0 forward_v I I I I #
coedge $-1 $99 $100 $101 $102 forward $39 $-1 #
face $-1 $103 $104 $23 $-1 $105 reversed single #
loop $-1 $-1 $106 $41 #
plane-surface $-1 55.930855047413949 0 -6.2418580360200604 0 0 1 1 0 0 forward_v I I I I #
coedge $-1 $107 $108 $109 $110 reversed $42 $-1 #
face $-1 $111 $112 $24 $-1 $113 reversed single #
loop $-1 $-1 $114 $44 #
plane-surface $-1 42.373141466409173 -24.727080856677091 0.18073069451877188 0 -0.62932039886446345 0.77714595512881146 1 0 0 forward_v I I I I #
coedge $-1 $115 $116 $117 $118 reversed $45 $-1 #
face $-1 $-1 $119 $25 $-1 $120 forward single #
loop $-1 $121 $122 $47 #
cone-surface $-1 35.659339258442678 -19.059581021080355 1.4972444553221482 0 0.62932039886446345 -0.77714595512881146 0.5 0 0 1 I I -0.70710678118654768 0.70710678118654735 0.5 forward I I I I #
loop $-1 $-1 $123 $32 #
coedge $-1 $76 $76 $124 $125 reversed $48 $-1 #
face $-1 $-1 $126 $26 $-1 $127 forward single #
loop $-1 $128 $129 $50 #
cone-surface $-1 42.373141466409173 -19.059581021080355 1.4972444553221482 0 0.62932039886446345 -0.77714595512881146 0.5 0 0 1 I I -0.70710678118654768 0.70710678118654735 0.5 forward I I I I #
loop $-1 $-1 $130 $33 #
coedge $-1 $81 $81 $131 $132 reversed $51 $-1 #
face $-1 $-1 $133 $27 $-1 $134 forward single #
loop $-1 $135 $136 $53 #
cone-surface $-1 49.086943674375668 -19.059581021080355 1.4972444553221482 0 0.62932039886446345 -0.77714595512881146 0.5 0 0 1 I I -0.70710678118654768 0.70710678118654735 0.5 forward I I I I #
loop $-1 $-1 $137 $34 #
coedge $-1 $86 $86 $138 $139 reversed $54 $-1 #
face $-1 $140 $141 $21 $-1 $142 reversed single #
loop $-1 $-1 $143 $56 #
plane-surface $-1 0 -24.727080856677091 0 0 1 0 0 0 1 forward_v I I I I #
coedge $-1 $144 $145 $146 $147 forward $57 $-1 #
coedge $-1 $148 $59 $149 $150 forward $36 $-1 #
coedge $-1 $59 $148 $151 $152 forward $36 $-1 #
coedge $-1 $153 $154 $59 $94 reversed $155 $-1 #
edge $-1 $156 -24.727080856677091 $157 24.727080856677091 $93 $158 forward 7 unknown #
face $-1 $159 $160 $22 $-1 $161 reversed single #
loop $-1 $-1 $162 $60 #
plane-surface $-1 -63.154252455085263 -23.227080856677091 0 1 0 0 0 0 -1 forward_v I I I I #
coedge $-1 $163 $164 $99 $165 forward $61 $-1 #
coedge $-1 $166 $63 $98 $165 reversed $39 $-1 #
coedge $-1 $63 $166 $167 $168 reversed $39 $-1 #
coedge $-1 $169 $170 $63 $102 reversed $160 $-1 #
edge $-1 $171 -6.7671772692724943 $172 6.7671772692724943 $101 $173 forward 7 unknown #
face $-1 $174 $175 $23 $-1 $176 reversed single #
loop $-1 $-1 $177 $64 #
plane-surface $-1 53.562811813019991 0 -4.7418580360200604 1 0 0 0 0 -1 forward_v I I I I #
coedge $-1 $178 $179 $180 $181 reversed $65 $-1 #
coedge $-1 $182 $67 $183 $184 reversed $42 $-1 #
coedge $-1 $67 $182 $185 $186 reversed $42 $-1 #
coedge $-1 $187 $188 $67 $110 forward $175 $-1 #
edge $-1 $189 -24.727080856677091 $190 24.727080856677091 $109 $191 forward 7 unknown #
face $-1 $192 $193 $24 $-1 $194 forward single #
loop $-1 $-1 $195 $68 #
plane-surface $-1 31.183471119798348 -98.104452696809375 90.794236670864848 1 0 0 0 0.62932039886446345 -0.77714595512881146 forward_v I I I I #
coedge $-1 $196 $197 $198 $199 reversed $69 $-1 #
coedge $-1 $116 $71 $200 $201 reversed $45 $-1 #
coedge $-1 $71 $115 $196 $202 reversed $45 $-1 #
coedge $-1 $198 $203 $71 $118 forward $193 $-1 #
edge $-1 $204 24.325145491727596 $205 32.458729471331395 $117 $206 forward 7 unknown #
loop $-1 $-1 $124 $72 #
plane-surface $-1 42.373141466409173 -24.727080856677091 0.18073069451877188 0 -0.62932039886446345 0.77714595512881146 1 0 0 forward_v I I I I #
loop $-1 $-1 $207 $47 #
coedge $-1 $122 $122 $123 $208 reversed $73 $-1 #
coedge $-1 $123 $123 $122 $208 forward $75 $-1 #
coedge $-1 $124 $124 $76 $125 forward $119 $-1 #
edge $-1 $209 -1.1516645162288325e-015 $209 6.2831853071795996 $124 $210 forward 7 unknown #
loop $-1 $-1 $131 $77 #
plane-surface $-1 42.373141466409173 -24.727080856677091 0.18073069451877188 0 -0.62932039886446345 0.77714595512881146 1 0 0 forward_v I I I I #
loop $-1 $-1 $211 $50 #
coedge $-1 $129 $129 $130 $212 reversed $78 $-1 #
coedge $-1 $130 $130 $129 $212 forward $80 $-1 #
coedge $-1 $131 $131 $81 $132 forward $126 $-1 #
edge $-1 $213 -1.1516645162288325e-015 $213 6.2831853071795996 $131 $214 forward 7 unknown #
loop $-1 $-1 $138 $82 #
plane-surface $-1 42.373141466409173 -24.727080856677091 0.18073069451877188 0 -0.62932039886446345 0.77714595512881146 1 0 0 forward_v I I I I #
loop $-1 $-1 $215 $53 #
coedge $-1 $136 $136 $137 $216 reversed $83 $-1 #
coedge $-1 $137 $137 $136 $216 forward $85 $-1 #
coedge $-1 $138 $138 $86 $139 forward $133 $-1 #
edge $-1 $217 -1.1516645162288325e-015 $217 6.2831853071795996 $138 $218 forward 7 unknown #
face $-1 $219 $220 $21 $-1 $221 reversed single #
loop $-1 $-1 $222 $87 #
plane-surface $-1 -58.298898281807915 0 0 1 0 0 0 0 -1 forward_v I I I I #
coedge $-1 $223 $151 $224 $225 forward $88 $-1 #
coedge $-1 $226 $90 $223 $227 forward $57 $-1 #
coedge $-1 $90 $226 $228 $229 forward $57 $-1 #
coedge $-1 $154 $153 $90 $147 reversed $155 $-1 #
edge $-1 $230 -24.727080856677091 $231 24.727080856677091 $146 $232 forward 7 unknown #
coedge $-1 $92 $91 $233 $234 forward $36 $-1 #
coedge $-1 $235 $236 $91 $150 reversed $220 $-1 #
edge $-1 $157 -58.298898281807915 $237 58.298898281807915 $149 $238 forward 7 unknown #
coedge $-1 $143 $239 $92 $152 reversed $88 $-1 #
edge $-1 $240 -58.298898281807915 $156 58.298898281807915 $151 $241 forward 7 unknown #
coedge $-1 $146 $93 $239 $242 forward $155 $-1 #
coedge $-1 $93 $146 $235 $243 reversed $155 $-1 #
loop $-1 $-1 $153 $219 #
vertex $-1 $94 $244 #
vertex $-1 $94 $245 #
straight-curve $-1 58.298898281807915 0 6.7671772692724943 0 1 0 I I #
face $-1 $246 $247 $22 $-1 $248 reversed single #
loop $-1 $-1 $101 $95 #
plane-surface $-1 -60.726575368446589 -21.727080856677091 0 0 -1 0 0 0 -1 forward_v I I I I #
coedge $-1 $249 $250 $251 $252 forward $96 $-1 #
coedge $-1 $253 $98 $170 $254 forward $61 $-1 #
coedge $-1 $98 $253 $255 $256 forward $61 $-1 #
edge $-1 $257 -24.727080856677091 $172 -21.727080856677091 $98 $258 forward 7 unknown #
coedge $-1 $100 $99 $259 $260 reversed $39 $-1 #
coedge $-1 $261 $262 $100 $168 forward $247 $-1 #
edge $-1 $171 21.727080856677091 $263 24.727080856677091 $167 $264 forward 7 unknown #
coedge $-1 $251 $101 $262 $265 reversed $160 $-1 #
coedge $-1 $101 $251 $163 $254 reversed $160 $-1 #
vertex $-1 $168 $266 #
vertex $-1 $254 $267 #
straight-curve $-1 -58.298898281807915 -21.727080856677091 0 0 0 1 I I #
face $-1 $268 $269 $23 $-1 $270 reversed single #
loop $-1 $-1 $109 $103 #
plane-surface $-1 58.298898281807915 0 0 -1 0 0 0 0 1 forward_v I I I I #
coedge $-1 $271 $272 $273 $274 reversed $104 $-1 #
coedge $-1 $275 $106 $276 $277 reversed $65 $-1 #
coedge $-1 $106 $275 $278 $279 reversed $65 $-1 #
coedge $-1 $188 $187 $106 $181 forward $175 $-1 #
edge $-1 $280 -24.727080856677091 $281 24.727080856677091 $180 $282 forward 7 unknown #
coedge $-1 $108 $107 $272 $283 forward $42 $-1 #
coedge $-1 $284 $273 $107 $184 forward $285 $-1 #
edge $-1 $286 25.597384289313016 $189 30.333470758100933 $183 $287 forward 7 unknown #
coedge $-1 $288 $289 $108 $186 forward $269 $-1 #
edge $-1 $190 -30.333470758100933 $290 -25.597384289313016 $185 $291 forward 7 unknown #
coedge $-1 $180 $109 $289 $292 forward $175 $-1 #
coedge $-1 $109 $180 $284 $293 reversed $175 $-1 #
vertex $-1 $293 $294 #
vertex $-1 $292 $295 #
straight-curve $-1 58.298898281807915 0 -3.2418580360200604 0 -1 0 I I #
face $-1 $-1 $296 $24 $-1 $297 reversed single #
loop $-1 $-1 $117 $111 #
plane-surface $-1 0 0 6.7671772692724943 0 0 1 1 0 0 forward_v I I I I #
coedge $-1 $298 $299 $300 $301 reversed $112 $-1 #
coedge $-1 $302 $114 $116 $202 forward $69 $-1 #
coedge $-1 $114 $302 $298 $303 forward $69 $-1 #
coedge $-1 $300 $117 $114 $199 forward $193 $-1 #
edge $-1 $205 -32.376241079815415 $304 -9.9969003865937616 $198 $305 forward 7 unknown #
coedge $-1 $306 $307 $115 $201 forward $296 $-1 #
edge $-1 $308 -45.216387640913652 $204 -38.62994106615993 $200 $309 forward 7 unknown #
edge $-1 $205 -10.465967075973083 $308 0 $116 $310 forward 7 unknown #
coedge $-1 $117 $300 $306 $311 forward $193 $-1 #
vertex $-1 $201 $312 #
vertex $-1 $118 $313 #
straight-curve $-1 53.562811813019998 -49.052226348404687 6.7671772692724943 0 1 0 I I #
coedge $-1 $207 $207 $-1 $314 reversed $121 $-1 #
edge $-1 $315 0 $315 6.2831853071796004 $122 $316 forward 7 unknown #
vertex $-1 $125 $317 #
ellipse-curve $-1 35.659339258442678 -20.660288866875192 3.4739539818956349 0 -0.62932039886446345 0.77714595512881146 1 0 0 1 I I #
coedge $-1 $211 $211 $-1 $318 reversed $128 $-1 #
edge $-1 $319 0 $319 6.2831853071796004 $129 $320 forward 7 unknown #
vertex $-1 $132 $321 #
ellipse-curve $-1 42.373141466409173 -20.660288866875192 3.4739539818956349 0 -0.62932039886446345 0.77714595512881146 1 0 0 1 I I #
coedge $-1 $215 $215 $-1 $322 reversed $135 $-1 #
edge $-1 $323 0 $323 6.2831853071796004 $136 $324 forward 7 unknown #
vertex $-1 $139 $325 #
ellipse-curve $-1 49.086943674375668 -20.660288866875192 3.4739539818956349 0 -0.62932039886446345 0.77714595512881146 1 0 0 1 I I #
face $-1 $-1 $155 $21 $-1 $326 reversed single #
loop $-1 $-1 $235 $140 #
plane-surface $-1 0 24.727080856677091 0 0 -1 0 0 0 -1 forward_v I I I I #
coedge $-1 $327 $233 $236 $328 forward $141 $-1 #
coedge $-1 $239 $143 $144 $227 reversed $88 $-1 #
coedge $-1 $233 $327 $143 $225 reversed $141 $-1 #
edge $-1 $240 -6.7671772692724943 $329 6.7671772692724943 $224 $330 forward 7 unknown #
coedge $-1 $145 $144 $327 $331 forward $57 $-1 #
edge $-1 $231 -58.298898281807915 $329 58.298898281807915 $223 $332 forward 7 unknown #
coedge $-1 $236 $235 $145 $229 reversed $220 $-1 #
edge $-1 $333 -58.298898281807915 $230 58.298898281807915 $228 $334 forward 7 unknown #
vertex $-1 $147 $335 #
vertex $-1 $242 $336 #
straight-curve $-1 58.298898281807915 0 -6.7671772692724943 0 -1 0 I I #
coedge $-1 $222 $224 $148 $234 reversed $141 $-1 #
edge $-1 $237 -24.727080856677091 $240 24.727080856677091 $233 $337 forward 7 unknown #
coedge $-1 $228 $149 $154 $243 forward $220 $-1 #
coedge $-1 $149 $228 $222 $328 reversed $220 $-1 #
vertex $-1 $150 $338 #
straight-curve $-1 0 24.727080856677091 6.7671772692724943 -1 0 0 I I #
coedge $-1 $151 $223 $153 $242 reversed $88 $-1 #
vertex $-1 $234 $339 #
straight-curve $-1 0 -24.727080856677091 6.7671772692724943 1 0 0 I I #
edge $-1 $156 -6.7671772692724943 $231 6.7671772692724943 $153 $340 forward 7 unknown #
edge $-1 $157 -6.7671772692724943 $230 6.7671772692724943 $154 $341 forward 7 unknown #
point $-1 58.298898281807915 -24.727080856677091 6.7671772692724943 #
point $-1 58.298898281807915 24.727080856677091 6.7671772692724943 #
face $-1 $-1 $342 $22 $-1 $343 reversed single #
loop $-1 $-1 $167 $159 #
plane-surface $-1 0 0 -6.7671772692724943 0 0 1 1 0 0 forward_v I I I I #
coedge $-1 $344 $162 $345 $346 reversed $96 $-1 #
coedge $-1 $162 $344 $253 $347 reversed $96 $-1 #
coedge $-1 $170 $169 $162 $252 reversed $160 $-1 #
edge $-1 $348 -6.7671772692724943 $349 6.7671772692724943 $251 $350 forward 7 unknown #
coedge $-1 $164 $163 $250 $347 forward $61 $-1 #
edge $-1 $172 -2.4276770866386741 $348 2.4276770866386741 $170 $351 forward 7 unknown #
coedge $-1 $352 $259 $164 $256 reversed $342 $-1 #
edge $-1 $353 -63.154252455085263 $257 -58.298898281807915 $255 $354 forward 7 unknown #
vertex $-1 $260 $355 #
straight-curve $-1 -58.298898281807915 0 6.7671772692724943 0 1 0 I I #
coedge $-1 $255 $356 $166 $260 forward $342 $-1 #
edge $-1 $263 -6.7671772692724943 $257 6.7671772692724943 $259 $357 forward 7 unknown #
coedge $-1 $345 $167 $356 $358 forward $247 $-1 #
coedge $-1 $167 $345 $169 $265 forward $247 $-1 #
vertex $-1 $358 $359 #
straight-curve $-1 -58.298898281807915 0 -6.7671772692724943 0 -1 0 I I #
edge $-1 $349 -2.4276770866386741 $171 2.4276770866386741 $169 $360 forward 7 unknown #
point $-1 -58.298898281807915 -21.727080856677091 -6.7671772692724943 #
point $-1 -58.298898281807915 -21.727080856677091 6.7671772692724943 #
face $-1 $-1 $285 $23 $-1 $361 reversed single #
loop $-1 $-1 $185 $174 #
plane-surface $-1 0 -24.727080856677091 0 0 1 0 0 0 1 forward_v I I I I #
coedge $-1 $362 $177 $275 $363 reversed $104 $-1 #
coedge $-1 $177 $362 $182 $283 reversed $104 $-1 #
coedge $-1 $183 $278 $177 $274 forward $285 $-1 #
edge $-1 $364 -3.8709290180100302 $286 -0.8709290180100302 $273 $365 forward 7 unknown #
coedge $-1 $179 $178 $271 $363 forward $65 $-1 #
coedge $-1 $289 $288 $178 $277 forward $269 $-1 #
edge $-1 $366 25.597384289313016 $280 30.333470758100933 $276 $367 forward 7 unknown #
coedge $-1 $273 $284 $179 $279 forward $285 $-1 #
edge $-1 $281 -30.333470758100933 $364 -25.597384289313016 $278 $368 forward 7 unknown #
vertex $-1 $277 $369 #
vertex $-1 $181 $370 #
straight-curve $-1 58.298898281807915 0 -6.2418580360200604 0 1 0 I I #
edge $-1 $286 -24.727080856677091 $290 24.727080856677091 $272 $371 forward 7 unknown #
coedge $-1 $278 $183 $188 $293 forward $285 $-1 #
loop $-1 $-1 $183 $268 #
vertex $-1 $184 $372 #
straight-curve $-1 27.965427523706975 24.727080856677091 -3.2418580360200604 1 0 0 I I #
coedge $-1 $276 $185 $362 $373 forward $269 $-1 #
coedge $-1 $185 $276 $187 $292 reversed $269 $-1 #
vertex $-1 $186 $374 #
straight-curve $-1 27.965427523706975 -24.727080856677091 -3.2418580360200604 -1 0 0 I I #
edge $-1 $190 3.2418580360200604 $280 6.2418580360200604 $187 $375 forward 7 unknown #
edge $-1 $189 3.2418580360200604 $281 6.2418580360200604 $188 $376 forward 7 unknown #
point $-1 58.298898281807908 24.727080856677091 -3.2418580360200604 #
point $-1 58.298898281807908 -24.727080856677091 -3.2418580360200604 #
loop $-1 $-1 $200 $192 #
plane-surface $-1 0 -24.727080856677091 0 0 1 0 0 0 1 forward_v I I I I #
coedge $-1 $299 $195 $197 $303 reversed $112 $-1 #
coedge $-1 $195 $298 $377 $378 reversed $112 $-1 #
coedge $-1 $203 $198 $195 $301 forward $193 $-1 #
edge $-1 $304 -32.458729471331395 $379 -24.325145491727596 $300 $380 forward 7 unknown #
coedge $-1 $197 $196 $307 $381 reversed $69 $-1 #
edge $-1 $382 0 $304 10.465967075973083 $298 $383 forward 7 unknown #
vertex $-1 $199 $384 #
straight-curve $-1 21.186570733204587 -16.593496877073296 6.7671772692724943 -1 0 0 I I #
coedge $-1 $377 $200 $203 $311 reversed $296 $-1 #
coedge $-1 $200 $377 $302 $381 forward $296 $-1 #
vertex $-1 $201 $385 #
straight-curve $-1 53.562811813019998 -24.727080856677091 45.397118335432424 0 0 1 I I #
straight-curve $-1 53.562811813019998 -24.727080856677091 0.18073069451877188 0 -0.77714595512881146 -0.62932039886446345 I I #
edge $-1 $379 31.183471119798348 $204 53.562811813019998 $306 $386 forward 7 unknown #
point $-1 53.562811813019998 -24.727080856677091 6.7671772692724943 #
point $-1 53.562811813019998 -16.593496877073296 6.7671772692724943 #
edge $-1 $387 1 $387 0 $207 $-1 forward 7 unknown #
vertex $-1 $208 $388 #
ellipse-curve $-1 35.659339258442678 -19.374241220512587 1.8858174328865538 0 -0.62932039886446345 0.77714595512881146 1 0 0 1 I I #
point $-1 36.659339258442678 -20.660288866875188 3.4739539818956287 #
edge $-1 $389 1 $389 0 $211 $-1 forward 7 unknown #
vertex $-1 $212 $390 #
ellipse-curve $-1 42.373141466409173 -19.374241220512587 1.8858174328865538 0 -0.62932039886446345 0.77714595512881146 1 0 0 1 I I #
point $-1 43.373141466409173 -20.660288866875188 3.4739539818956287 #
edge $-1 $391 1 $391 0 $215 $-1 forward 7 unknown #
vertex $-1 $216 $392 #
ellipse-curve $-1 49.086943674375668 -19.374241220512587 1.8858174328865538 0 -0.62932039886446345 0.77714595512881146 1 0 0 1 I I #
point $-1 50.086943674375668 -20.660288866875188 3.4739539818956287 #
plane-surface $-1 58.298898281807915 0 0 -1 0 0 0 0 1 forward_v I I I I #
coedge $-1 $224 $222 $226 $331 reversed $141 $-1 #
edge $-1 $237 -6.7671772692724943 $333 6.7671772692724943 $236 $393 forward 7 unknown #
vertex $-1 $331 $394 #
straight-curve $-1 -58.298898281807915 -24.727080856677091 0 0 0 -1 I I #
edge $-1 $329 -24.727080856677091 $333 24.727080856677091 $327 $395 forward 7 unknown #
straight-curve $-1 0 -24.727080856677091 -6.7671772692724943 -1 0 0 I I #
vertex $-1 $229 $396 #
straight-curve $-1 0 24.727080856677091 -6.7671772692724943 1 0 0 I I #
point $-1 58.298898281807915 24.727080856677091 -6.7671772692724943 #
point $-1 58.298898281807915 -24.727080856677091 -6.7671772692724943 #
straight-curve $-1 -58.298898281807915 0 6.7671772692724943 0 -1 0 I I #
point $-1 -58.298898281807915 24.727080856677091 6.7671772692724943 #
point $-1 -58.298898281807915 -24.727080856677091 6.7671772692724943 #
straight-curve $-1 58.298898281807915 -24.727080856677091 0 0 0 -1 I I #
straight-curve $-1 58.298898281807915 24.727080856677091 0 0 0 -1 I I #
loop $-1 $-1 $259 $246 #
plane-surface $-1 0 -24.727080856677091 0 0 1 0 0 0 1 forward_v I I I I #
coedge $-1 $250 $249 $352 $397 reversed $96 $-1 #
coedge $-1 $262 $261 $249 $346 forward $247 $-1 #
edge $-1 $398 -1.5 $349 1.5 $249 $399 forward 7 unknown #
edge $-1 $348 -1.5 $353 1.5 $250 $400 forward 7 unknown #
vertex $-1 $254 $401 #
vertex $-1 $265 $402 #
straight-curve $-1 -63.154252455085263 -21.727080856677091 0 0 0 -1 I I #
straight-curve $-1 -60.726575368446589 -21.727080856677091 6.7671772692724943 -1 0 0 I I #
coedge $-1 $356 $255 $344 $397 forward $342 $-1 #
vertex $-1 $347 $403 #
straight-curve $-1 0 -24.727080856677091 6.7671772692724943 1 0 0 I I #
point $-1 -58.298898281807915 -24.727080856677091 6.7671772692724943 #
coedge $-1 $259 $352 $261 $358 reversed $342 $-1 #
straight-curve $-1 -58.298898281807915 -24.727080856677091 0 0 0 1 I I #
edge $-1 $263 -2.4276770866386741 $398 2.4276770866386741 $356 $404 forward 7 unknown #
point $-1 -58.298898281807915 -24.727080856677091 -6.7671772692724943 #
straight-curve $-1 -60.726575368446589 -21.727080856677091 -6.7671772692724943 1 0 0 I I #
plane-surface $-1 0 24.727080856677091 0 0 -1 0 0 0 -1 forward_v I I I I #
coedge $-1 $272 $271 $288 $373 reversed $104 $-1 #
edge $-1 $366 -24.727080856677091 $364 24.727080856677091 $271 $405 forward 7 unknown #
vertex $-1 $279 $406 #
straight-curve $-1 53.562811813019991 24.727080856677091 -2.3709290180100302 0 0 1 I I #
vertex $-1 $277 $407 #
straight-curve $-1 27.965427523706975 -24.727080856677091 -6.2418580360200604 1 0 0 I I #
straight-curve $-1 27.965427523706975 24.727080856677091 -6.2418580360200604 -1 0 0 I I #
point $-1 58.298898281807908 -24.727080856677091 -6.2418580360200604 #
point $-1 58.298898281807908 24.727080856677091 -6.2418580360200604 #
straight-curve $-1 53.562811813019991 0 -3.2418580360200604 0 -1 0 I I #
point $-1 53.562811813019991 24.727080856677091 -3.2418580360200604 #
edge $-1 $290 0.8709290180100302 $366 3.8709290180100302 $288 $408 forward 7 unknown #
point $-1 53.562811813019991 -24.727080856677091 -3.2418580360200604 #
straight-curve $-1 58.298898281807915 -24.727080856677091 0 0 0 -1 I I #
straight-curve $-1 58.298898281807915 24.727080856677091 0 0 0 -1 I I #
coedge $-1 $307 $306 $299 $378 forward $296 $-1 #
edge $-1 $379 38.62994106615993 $382 45.216387640913652 $377 $409 forward 7 unknown #
vertex $-1 $311 $410 #
straight-curve $-1 31.183471119798348 -49.052226348404687 6.7671772692724943 0 -1 0 I I #
edge $-1 $382 9.9969003865937616 $308 32.376241079815415 $307 $411 forward 7 unknown #
vertex $-1 $381 $412 #
straight-curve $-1 31.183471119798348 -24.727080856677091 0.18073069451877188 0 0.77714595512881146 0.62932039886446345 I I #
point $-1 31.183471119798348 -16.593496877073296 6.7671772692724943 #
point $-1 53.562811813019998 -24.727080856677091 0.18073069451877188 #
straight-curve $-1 0 -24.727080856677091 6.7671772692724943 1 0 0 I I #
vertex $-1 $314 $413 #
point $-1 36.659339258442678 -19.374241220512587 1.8858174328865538 #
vertex $-1 $318 $414 #
point $-1 43.373141466409173 -19.374241220512587 1.8858174328865538 #
vertex $-1 $322 $415 #
point $-1 50.086943674375668 -19.374241220512587 1.8858174328865538 #
straight-curve $-1 -58.298898281807915 24.727080856677091 0 0 0 -1 I I #
point $-1 -58.298898281807915 -24.727080856677091 -6.7671772692724943 #
straight-curve $-1 -58.298898281807915 0 -6.7671772692724943 0 1 0 I I #
point $-1 -58.298898281807915 24.727080856677091 -6.7671772692724943 #
edge $-1 $353 -6.7671772692724943 $398 6.7671772692724943 $344 $416 forward 7 unknown #
vertex $-1 $346 $417 #
straight-curve $-1 -63.154252455085263 -23.227080856677091 -6.7671772692724943 0 1 0 I I #
straight-curve $-1 -63.154252455085263 -23.227080856677091 6.7671772692724943 0 -1 0 I I #
point $-1 -63.154252455085263 -21.727080856677091 6.7671772692724943 #
point $-1 -63.154252455085263 -21.727080856677091 -6.7671772692724943 #
point $-1 -63.154252455085263 -24.727080856677091 6.7671772692724943 #
straight-curve $-1 -60.726575368446589 -24.727080856677091 -6.7671772692724943 -1 0 0 I I #
straight-curve $-1 53.562811813019991 0 -6.2418580360200604 0 1 0 I I #
point $-1 53.562811813019991 24.727080856677091 -6.2418580360200604 #
point $-1 53.562811813019991 -24.727080856677091 -6.2418580360200604 #
straight-curve $-1 53.562811813019991 -24.727080856677091 -2.3709290180100302 0 0 -1 I I #
straight-curve $-1 31.183471119798348 -24.727080856677091 45.397118335432424 0 0 -1 I I #
point $-1 31.183471119798348 -24.727080856677091 6.7671772692724943 #
straight-curve $-1 21.186570733204587 -24.727080856677091 0.18073069451877227 1 0 0 I I #
point $-1 31.183471119798348 -24.727080856677091 0.18073069451877188 #
point $-1 35.659339258442678 -18.744920821648122 1.1086714777577427 #
point $-1 42.373141466409173 -18.744920821648122 1.1086714777577427 #
point $-1 49.086943674375668 -18.744920821648122 1.1086714777577427 #
straight-curve $-1 -63.154252455085263 -24.727080856677091 0 0 0 -1 I I #
point $-1 -63.154252455085263 -24.727080856677091 -6.7671772692724943 #
End-of-ACIS-data 