500 0 10 0           
7 Unknown 11 ACIS 5.0 NT 24 Fri Mar 26 16:43:17 1999 
-1 9.9999999999999995e-007 1e-010 
body $-1 $10 $-1 $11 #
body $-1 $12 $-1 $13 #
body $-1 $14 $-1 $15 #
body $-1 $16 $-1 $17 #
body $-1 $18 $-1 $19 #
body $-1 $20 $-1 $21 #
body $-1 $22 $-1 $23 #
body $-1 $24 $-1 $25 #
body $-1 $26 $-1 $27 #
body $-1 $28 $-1 $29 #
lump $-1 $-1 $30 $0 #
transform $-1 1 0 0 0 1 0 0 0 1 64.933622241889708 33.065277685386228 9.33914726555623 1 rotate no_reflect no_shear #
lump $-1 $-1 $31 $1 #
transform $-1 1 0 0 0 1 0 0 0 1 64.933622241889708 33.065277685386228 9.33914726555623 1 rotate no_reflect no_shear #
lump $-1 $-1 $32 $2 #
transform $-1 1 0 0 0 1 0 0 0 1 64.933622241889708 33.065277685386228 9.33914726555623 1 rotate no_reflect no_shear #
lump $-1 $-1 $33 $3 #
transform $-1 1 0 0 0 1 0 0 0 1 64.933622241889708 33.065277685386228 9.33914726555623 1 rotate no_reflect no_shear #
lump $-1 $-1 $34 $4 #
transform $-1 1 0 0 0 1 0 0 0 1 64.933622241889708 33.065277685386228 9.33914726555623 1 rotate no_reflect no_shear #
lump $-1 $-1 $35 $5 #
transform $-1 1 0 0 0 1 0 0 0 1 64.933622241889708 33.065277685386228 9.33914726555623 1 rotate no_reflect no_shear #
lump $-1 $-1 $36 $6 #
transform $-1 1 0 0 0 1 0 0 0 1 64.933622241889708 33.065277685386228 9.33914726555623 1 rotate no_reflect no_shear #
lump $-1 $-1 $37 $7 #
transform $-1 1 0 0 0 1 0 0 0 1 64.933622241889708 33.065277685386228 9.33914726555623 1 rotate no_reflect no_shear #
lump $-1 $-1 $38 $8 #
transform $-1 1 0 0 0 1 0 0 0 1 64.933622241889708 33.065277685386228 9.33914726555623 1 rotate no_reflect no_shear #
lump $-1 $-1 $39 $9 #
transform $-1 1 0 0 0 1 0 0 0 1 64.933622241889708 33.065277685386228 9.33914726555623 1 rotate no_reflect no_shear #
shell $-1 $-1 $-1 $40 $-1 $10 #
shell $-1 $-1 $-1 $41 $-1 $12 #
shell $-1 $-1 $-1 $42 $-1 $14 #
shell $-1 $-1 $-1 $43 $-1 $16 #
shell $-1 $-1 $-1 $44 $-1 $18 #
shell $-1 $-1 $-1 $45 $-1 $20 #
shell $-1 $-1 $-1 $46 $-1 $22 #
shell $-1 $-1 $-1 $47 $-1 $24 #
shell $-1 $-1 $-1 $48 $-1 $26 #
shell $-1 $-1 $-1 $49 $-1 $28 #
face $-1 $50 $51 $30 $-1 $52 forward single #
face $-1 $53 $54 $31 $-1 $55 forward single #
face $-1 $56 $57 $32 $-1 $58 reversed single #
face $-1 $59 $60 $33 $-1 $61 forward single #
face $-1 $62 $63 $34 $-1 $64 forward single #
face $-1 $65 $66 $35 $-1 $67 forward single #
face $-1 $68 $69 $36 $-1 $70 reversed single #
face $-1 $71 $72 $37 $-1 $73 forward single #
face $-1 $74 $75 $38 $-1 $76 reversed single #
face $-1 $77 $78 $39 $-1 $79 forward single #
face $-1 $80 $81 $30 $-1 $82 reversed single #
loop $-1 $-1 $83 $40 #
plane-surface $-1 0 0 9.33914726555623 0 0 1 1 0 0 forward_v I I I I #
face $-1 $84 $85 $31 $-1 $86 reversed single #
loop $-1 $-1 $87 $41 #
plane-surface $-1 0 -28.038666289367974 -5.4139857204317021 0 0 1 1 0 0 forward_v I I I I #
face $-1 $88 $89 $32 $-1 $90 reversed single #
loop $-1 $-1 $91 $42 #
plane-surface $-1 -159.91251328748527 -23.01205489334972 94.834491651862834 0 1 0 -0.73135370988377701 0 0.68199835119979291 forward_v I I I I #
face $-1 $92 $93 $33 $-1 $94 forward single #
loop $-1 $95 $96 $43 #
cone-surface $-1 -62.801346413938482 -21.450830146731729 7.1503254482362673 0.73135370988377701 0 -0.68199835119979291 0.34099917559989645 0 0.36567685494188851 1 I I 0 1 0.5 forward I I I I #
face $-1 $97 $98 $34 $-1 $99 forward single #
loop $-1 $100 $101 $44 #
cone-surface $-1 -62.801346413938482 -19.108993026804743 7.1503254482362673 0.73135370988377701 0 -0.68199835119979291 0.34099917559989645 0 0.36567685494188851 1 I I 0 1 0.5 forward I I I I #
face $-1 $102 $103 $35 $-1 $104 forward single #
loop $-1 $105 $106 $45 #
cone-surface $-1 -62.801346413938482 -16.767155906877758 7.1503254482362673 0.73135370988377701 0 -0.68199835119979291 0.34099917559989645 0 0.36567685494188851 1 I I 0 1 0.5 forward I I I I #
face $-1 $107 $108 $36 $-1 $109 reversed single #
loop $-1 $-1 $110 $46 #
plane-surface $-1 112.46833558685793 -6.7479121881756594 181.66622889430909 0 -1 0 -0.86602541151947299 0 -0.49999998660252726 forward_v I I I I #
face $-1 $111 $112 $37 $-1 $113 forward single #
loop $-1 $114 $115 $47 #
cone-surface $-1 61.986581428553265 -13.113550464664023 5.9460482189458554 -0.86602541151947299 0 -0.49999998660252726 0.49999998660252726 0 -0.86602541151947299 1 I I 0 1 1 forward I I I I #
face $-1 $116 $117 $38 $-1 $118 reversed single #
loop $-1 $-1 $119 $48 #
plane-surface $-1 112.46833558685793 29.532411533188906 181.66622889430909 0 -1 0 -0.86602541151947299 0 -0.49999998660252726 forward_v I I I I #
face $-1 $120 $121 $39 $-1 $122 forward single #
loop $-1 $123 $124 $49 #
cone-surface $-1 61.986581428553265 23.166773256700544 5.9460482189458554 -0.86602541151947299 0 -0.49999998660252726 0.49999998660252726 0 -0.86602541151947299 1 I I 0 1 1 forward I I I I #
face $-1 $125 $126 $30 $-1 $127 reversed single #
loop $-1 $-1 $128 $50 #
plane-surface $-1 0 0 -9.33914726555623 0 0 1 1 0 0 forward_v I I I I #
coedge $-1 $129 $130 $131 $132 forward $51 $-1 #
face $-1 $133 $134 $31 $-1 $135 reversed single #
loop $-1 $-1 $136 $53 #
plane-surface $-1 0 -28.038666289367974 -8.83914726555623 0 0 1 1 0 0 forward_v I I I I #
coedge $-1 $137 $138 $139 $140 reversed $54 $-1 #
face $-1 $141 $142 $32 $-1 $143 reversed single #
loop $-1 $-1 $144 $56 #
plane-surface $-1 -64.933622241889722 -19.108993026804743 6.2652450390648653 -0.73135370988377701 0 0.68199835119979291 0.68199835119979291 0 0.73135370988377701 forward_v I I I I #
coedge $-1 $145 $146 $147 $148 reversed $57 $-1 #
face $-1 $-1 $149 $33 $-1 $150 forward single #
loop $-1 $151 $152 $59 #
cone-surface $-1 -61.919462223452769 -21.450830146731729 6.3279551563620409 0.73135370988377701 0 -0.68199835119979291 0.17049958779994823 0 0.18283842747094425 1 I I -0.70710678118654879 0.70710678118654635 0.25 forward I I I I #
loop $-1 $-1 $153 $43 #
coedge $-1 $96 $96 $154 $155 reversed $60 $-1 #
face $-1 $-1 $156 $34 $-1 $157 forward single #
loop $-1 $158 $159 $62 #
cone-surface $-1 -61.919462223452769 -19.108993026804743 6.3279551563620409 0.73135370988377701 0 -0.68199835119979291 0.17049958779994823 0 0.18283842747094425 1 I I -0.70710678118654879 0.70710678118654635 0.25 forward I I I I #
loop $-1 $-1 $160 $44 #
coedge $-1 $101 $101 $161 $162 reversed $63 $-1 #
face $-1 $-1 $163 $35 $-1 $164 forward single #
loop $-1 $165 $166 $65 #
cone-surface $-1 -61.919462223452769 -16.767155906877758 6.3279551563620409 0.73135370988377701 0 -0.68199835119979291 0.17049958779994823 0 0.18283842747094425 1 I I -0.70710678118654879 0.70710678118654635 0.25 forward I I I I #
loop $-1 $-1 $167 $45 #
coedge $-1 $106 $106 $168 $169 reversed $66 $-1 #
face $-1 $170 $171 $36 $-1 $172 reversed single #
loop $-1 $-1 $173 $68 #
plane-surface $-1 1.7398928520151458e-006 -13.113550464664023 116.73260839231224 0.86602541151947299 0 0.49999998660252726 0.49999998660252726 0 -0.86602541151947299 forward_v I I I I #
coedge $-1 $174 $175 $176 $177 reversed $69 $-1 #
face $-1 $-1 $178 $37 $-1 $179 forward single #
loop $-1 $180 $181 $71 #
cone-surface $-1 60.071517422675896 -13.113550464664023 4.8403855391387562 -0.86602541151947299 0 -0.49999998660252726 0.24999999330126363 0 -0.43301270575973649 1 I I -0.70710678118654746 0.70710678118654746 0.5 forward I I I I #
loop $-1 $-1 $182 $47 #
coedge $-1 $115 $115 $183 $184 reversed $72 $-1 #
face $-1 $185 $186 $38 $-1 $187 reversed single #
loop $-1 $-1 $188 $74 #
plane-surface $-1 1.7398928520151458e-006 23.166773256700544 116.73260839231224 0.86602541151947299 0 0.49999998660252726 0.49999998660252726 0 -0.86602541151947299 forward_v I I I I #
coedge $-1 $189 $190 $191 $192 reversed $75 $-1 #
face $-1 $-1 $193 $39 $-1 $194 forward single #
loop $-1 $195 $196 $77 #
cone-surface $-1 60.071517422675896 23.166773256700544 4.8403855391387562 -0.86602541151947299 0 -0.49999998660252726 0.24999999330126363 0 -0.43301270575973649 1 I I -0.70710678118654746 0.70710678118654746 0.5 forward I I I I #
loop $-1 $-1 $197 $49 #
coedge $-1 $124 $124 $198 $199 reversed $78 $-1 #
face $-1 $200 $201 $30 $-1 $202 reversed single #
loop $-1 $-1 $203 $80 #
plane-surface $-1 0 -33.065277685386228 0 0 1 0 0 0 1 forward_v I I I I #
coedge $-1 $204 $205 $206 $207 forward $81 $-1 #
coedge $-1 $208 $83 $209 $210 forward $51 $-1 #
coedge $-1 $83 $208 $211 $212 forward $51 $-1 #
coedge $-1 $213 $214 $83 $132 reversed $215 $-1 #
edge $-1 $216 -33.065277685386228 $217 33.065277685386228 $131 $218 forward 7 unknown #
face $-1 $219 $220 $31 $-1 $221 reversed single #
loop $-1 $-1 $222 $84 #
plane-surface $-1 0 -23.01205489334972 -7.1265664929939661 0 -1 0 0 0 -1 forward_v I I I I #
coedge $-1 $223 $224 $225 $226 reversed $85 $-1 #
coedge $-1 $227 $87 $228 $229 forward $54 $-1 #
coedge $-1 $87 $227 $230 $231 reversed $54 $-1 #
coedge $-1 $232 $233 $87 $140 forward $234 $-1 #
edge $-1 $235 8.9927217486657334 $236 19.045944540702241 $139 $237 forward 7 unknown #
face $-1 $238 $239 $32 $-1 $240 reversed single #
loop $-1 $-1 $241 $88 #
plane-surface $-1 -159.91251328748527 -15.205931160259766 94.834491651862834 0 -1 0 0.73135370988377701 0 -0.68199835119979291 forward_v I I I I #
coedge $-1 $242 $243 $244 $245 reversed $89 $-1 #
coedge $-1 $146 $91 $246 $247 reversed $57 $-1 #
coedge $-1 $91 $145 $242 $248 reversed $57 $-1 #
coedge $-1 $244 $249 $91 $148 forward $250 $-1 #
edge $-1 $251 15.022634401852926 $252 17.889094531725817 $147 $253 forward 7 unknown #
loop $-1 $-1 $154 $92 #
plane-surface $-1 -64.933622241889722 -19.108993026804743 6.2652450390648653 -0.73135370988377701 0 0.68199835119979291 0.68199835119979291 0 0.73135370988377701 forward_v I I I I #
loop $-1 $-1 $254 $59 #
coedge $-1 $152 $152 $153 $255 reversed $93 $-1 #
coedge $-1 $153 $153 $152 $255 forward $95 $-1 #
coedge $-1 $154 $154 $96 $155 forward $149 $-1 #
edge $-1 $256 0 $256 6.2831853071796004 $154 $257 forward 7 unknown #
loop $-1 $-1 $161 $97 #
plane-surface $-1 -64.933622241889722 -19.108993026804743 6.2652450390648653 -0.73135370988377701 0 0.68199835119979291 0.68199835119979291 0 0.73135370988377701 forward_v I I I I #
loop $-1 $-1 $258 $62 #
coedge $-1 $159 $159 $160 $259 reversed $98 $-1 #
coedge $-1 $160 $160 $159 $259 forward $100 $-1 #
coedge $-1 $161 $161 $101 $162 forward $156 $-1 #
edge $-1 $260 0 $260 6.2831853071796004 $161 $261 forward 7 unknown #
loop $-1 $-1 $168 $102 #
plane-surface $-1 -64.933622241889722 -19.108993026804743 6.2652450390648653 -0.73135370988377701 0 0.68199835119979291 0.68199835119979291 0 0.73135370988377701 forward_v I I I I #
loop $-1 $-1 $262 $65 #
coedge $-1 $166 $166 $167 $263 reversed $103 $-1 #
coedge $-1 $167 $167 $166 $263 forward $105 $-1 #
coedge $-1 $168 $168 $106 $169 forward $163 $-1 #
edge $-1 $264 0 $264 6.2831853071796004 $168 $265 forward 7 unknown #
face $-1 $266 $267 $36 $-1 $268 forward single #
loop $-1 $-1 $269 $107 #
plane-surface $-1 112.46833558685793 -19.479188741152385 181.66622889430909 0 1 0 0.86602541151947299 0 0.49999998660252726 forward_v I I I I #
coedge $-1 $270 $271 $272 $273 reversed $108 $-1 #
coedge $-1 $175 $110 $274 $275 reversed $69 $-1 #
coedge $-1 $110 $174 $270 $276 reversed $69 $-1 #
coedge $-1 $272 $277 $110 $177 forward $267 $-1 #
edge $-1 $278 -8.6994544484607417 $279 -5.7694754220231061 $176 $280 forward 7 unknown #
loop $-1 $-1 $183 $111 #
plane-surface $-1 1.7398928520151458e-006 -13.113550464664023 116.73260839231224 0.86602541151947299 0 0.49999998660252726 0.49999998660252726 0 -0.86602541151947299 forward_v I I I I #
loop $-1 $-1 $281 $71 #
coedge $-1 $181 $181 $182 $282 reversed $112 $-1 #
coedge $-1 $182 $182 $181 $282 forward $114 $-1 #
coedge $-1 $183 $183 $115 $184 forward $178 $-1 #
edge $-1 $283 0 $283 6.2831853071796004 $183 $284 forward 7 unknown #
face $-1 $285 $286 $38 $-1 $287 reversed single #
loop $-1 $-1 $288 $116 #
plane-surface $-1 112.46833558685793 16.801134980212183 181.66622889430909 0 1 0 0.86602541151947299 0 0.49999998660252726 forward_v I I I I #
coedge $-1 $289 $290 $291 $292 reversed $117 $-1 #
coedge $-1 $190 $119 $293 $294 reversed $75 $-1 #
coedge $-1 $119 $189 $289 $295 reversed $75 $-1 #
coedge $-1 $291 $296 $119 $192 forward $297 $-1 #
edge $-1 $298 -8.6994544484607417 $299 -5.7694754220231061 $191 $300 forward 7 unknown #
loop $-1 $-1 $198 $120 #
plane-surface $-1 1.7398928520151458e-006 23.166773256700544 116.73260839231224 0.86602541151947299 0 0.49999998660252726 0.49999998660252726 0 -0.86602541151947299 forward_v I I I I #
loop $-1 $-1 $301 $77 #
coedge $-1 $196 $196 $197 $302 reversed $121 $-1 #
coedge $-1 $197 $197 $196 $302 forward $123 $-1 #
coedge $-1 $198 $198 $124 $199 forward $193 $-1 #
edge $-1 $303 0 $303 6.2831853071796004 $198 $304 forward 7 unknown #
face $-1 $305 $306 $30 $-1 $307 reversed single #
loop $-1 $-1 $308 $125 #
plane-surface $-1 -64.933622241889708 0 0 1 0 0 0 0 -1 forward_v I I I I #
coedge $-1 $309 $211 $310 $311 forward $126 $-1 #
coedge $-1 $312 $128 $309 $313 forward $81 $-1 #
coedge $-1 $128 $312 $314 $315 forward $81 $-1 #
coedge $-1 $214 $213 $128 $207 reversed $215 $-1 #
edge $-1 $316 -33.065277685386228 $317 33.065277685386228 $206 $318 forward 7 unknown #
coedge $-1 $130 $129 $319 $320 forward $51 $-1 #
coedge $-1 $321 $322 $129 $210 reversed $306 $-1 #
edge $-1 $217 -64.933622241889708 $323 64.933622241889708 $209 $324 forward 7 unknown #
coedge $-1 $203 $325 $130 $212 reversed $126 $-1 #
edge $-1 $326 -64.933622241889708 $216 64.933622241889708 $211 $327 forward 7 unknown #
coedge $-1 $206 $131 $325 $328 forward $215 $-1 #
coedge $-1 $131 $206 $321 $329 reversed $215 $-1 #
loop $-1 $-1 $213 $305 #
vertex $-1 $132 $330 #
vertex $-1 $132 $331 #
straight-curve $-1 64.933622241889708 0 9.33914726555623 0 1 0 I I #
face $-1 $332 $333 $31 $-1 $334 reversed single #
loop $-1 $-1 $335 $133 #
plane-surface $-1 -64.933622241889708 0 0 1 0 0 0 0 -1 forward_v I I I I #
coedge $-1 $336 $228 $233 $337 reversed $134 $-1 #
coedge $-1 $338 $136 $339 $340 reversed $85 $-1 #
coedge $-1 $136 $338 $336 $341 forward $85 $-1 #
coedge $-1 $233 $232 $136 $226 forward $234 $-1 #
edge $-1 $342 -19.045944540702241 $343 -8.9927217486657334 $225 $344 forward 7 unknown #
coedge $-1 $138 $137 $335 $345 reversed $54 $-1 #
coedge $-1 $222 $346 $137 $229 reversed $134 $-1 #
edge $-1 $235 -64.933622241889708 $347 64.933622241889708 $228 $348 forward 7 unknown #
coedge $-1 $349 $350 $138 $231 forward $333 $-1 #
edge $-1 $236 -64.933622241889708 $351 64.933622241889708 $230 $352 forward 7 unknown #
coedge $-1 $225 $139 $350 $353 forward $234 $-1 #
coedge $-1 $139 $225 $222 $337 forward $234 $-1 #
loop $-1 $-1 $139 $332 #
vertex $-1 $140 $354 #
vertex $-1 $353 $355 #
straight-curve $-1 64.933622241889708 -14.019333144683987 -5.4139857204317021 0 -1 0 I I #
face $-1 $-1 $250 $32 $-1 $356 forward single #
loop $-1 $-1 $357 $141 #
plane-surface $-1 -64.933622241889708 0 0 1 0 0 0 0 -1 forward_v I I I I #
coedge $-1 $358 $359 $360 $361 reversed $142 $-1 #
coedge $-1 $362 $144 $146 $248 forward $89 $-1 #
coedge $-1 $144 $362 $358 $363 forward $89 $-1 #
coedge $-1 $360 $147 $144 $245 forward $250 $-1 #
edge $-1 $252 -13.457558379947349 $364 -5.6514346468573944 $244 $365 forward 7 unknown #
coedge $-1 $366 $367 $145 $247 forward $239 $-1 #
edge $-1 $368 -41.152000786866537 $251 -38.078098560375189 $246 $369 forward 7 unknown #
edge $-1 $252 -4.203030879517728 $368 -2.0734513383776317e-014 $146 $370 forward 7 unknown #
coedge $-1 $147 $360 $366 $371 forward $250 $-1 #
loop $-1 $-1 $360 $238 #
vertex $-1 $247 $372 #
vertex $-1 $148 $373 #
straight-curve $-1 -79.956256643742634 -23.01205489334972 9.3391472655562282 1 0 0 I I #
coedge $-1 $254 $254 $-1 $374 reversed $151 $-1 #
edge $-1 $375 0 $375 6.2831853071796004 $152 $376 forward 7 unknown #
vertex $-1 $155 $377 #
ellipse-curve $-1 -63.500392176953262 -21.450830146731729 7.8021961523105556 -0.73135370988377701 0 0.68199835119979291 0.34099917559989645 0 0.36567685494188851 1 I I #
coedge $-1 $258 $258 $-1 $378 reversed $158 $-1 #
edge $-1 $379 0 $379 6.2831853071796004 $159 $380 forward 7 unknown #
vertex $-1 $162 $381 #
ellipse-curve $-1 -63.500392176953262 -19.108993026804743 7.8021961523105556 -0.73135370988377701 0 0.68199835119979291 0.34099917559989645 0 0.36567685494188851 1 I I #
coedge $-1 $262 $262 $-1 $382 reversed $165 $-1 #
edge $-1 $383 0 $383 6.2831853071796004 $166 $384 forward 7 unknown #
vertex $-1 $169 $385 #
ellipse-curve $-1 -63.500392176953262 -16.767155906877758 7.8021961523105556 -0.73135370988377701 0 0.68199835119979291 0.34099917559989645 0 0.36567685494188851 1 I I #
face $-1 $-1 $386 $36 $-1 $387 reversed single #
loop $-1 $-1 $176 $170 #
plane-surface $-1 0 0 9.33914726555623 0 0 1 1 0 0 forward_v I I I I #
coedge $-1 $388 $389 $390 $391 reversed $171 $-1 #
coedge $-1 $392 $173 $175 $276 forward $108 $-1 #
coedge $-1 $173 $392 $388 $393 forward $108 $-1 #
coedge $-1 $390 $176 $173 $273 forward $267 $-1 #
edge $-1 $279 0.19113695584364798 $394 12.922413508820373 $272 $395 forward 7 unknown #
coedge $-1 $396 $397 $174 $275 forward $386 $-1 #
edge $-1 $398 -86.568839901807394 $278 -81.493967181598308 $274 $399 forward 7 unknown #
edge $-1 $279 124.0072862738869 $398 129.86724448377942 $175 $400 forward 7 unknown #
coedge $-1 $176 $390 $396 $401 forward $267 $-1 #
vertex $-1 $275 $402 #
vertex $-1 $177 $403 #
straight-curve $-1 56.234167793428966 -6.7479121881756594 9.3391472655562353 -1 0 0 I I #
coedge $-1 $281 $281 $-1 $404 reversed $180 $-1 #
edge $-1 $405 0 $405 6.2831853071796004 $181 $406 forward 7 unknown #
vertex $-1 $184 $407 #
ellipse-curve $-1 63.468632728670883 -13.113550464664023 6.8017109054516842 0.86602541151947299 0 0.49999998660252726 0.49999998660252726 0 -0.86602541151947299 1 I I #
face $-1 $-1 $297 $38 $-1 $408 forward single #
loop $-1 $-1 $409 $185 #
plane-surface $-1 64.933622241889708 0 0 -1 0 0 0 0 1 forward_v I I I I #
coedge $-1 $410 $411 $412 $413 reversed $186 $-1 #
coedge $-1 $414 $188 $190 $295 forward $117 $-1 #
coedge $-1 $188 $414 $410 $415 forward $117 $-1 #
coedge $-1 $412 $191 $188 $292 forward $297 $-1 #
edge $-1 $299 -17.949024904838634 $416 -5.2177483518619105 $291 $417 forward 7 unknown #
coedge $-1 $418 $419 $189 $294 forward $286 $-1 #
edge $-1 $420 -86.568839901807394 $298 -81.493967181598308 $293 $421 forward 7 unknown #
edge $-1 $299 124.0072862738869 $420 129.86724448377942 $190 $422 forward 7 unknown #
coedge $-1 $191 $412 $418 $423 forward $297 $-1 #
loop $-1 $-1 $412 $285 #
vertex $-1 $294 $424 #
vertex $-1 $192 $425 #
straight-curve $-1 56.234167793428966 29.532411533188906 9.3391472655562353 -1 0 0 I I #
coedge $-1 $301 $301 $-1 $426 reversed $195 $-1 #
edge $-1 $427 0 $427 6.2831853071796004 $196 $428 forward 7 unknown #
vertex $-1 $199 $429 #
ellipse-curve $-1 63.468632728670883 23.166773256700544 6.8017109054516842 0.86602541151947299 0 0.49999998660252726 0.49999998660252726 0 -0.86602541151947299 1 I I #
face $-1 $-1 $215 $30 $-1 $430 reversed single #
loop $-1 $-1 $321 $200 #
plane-surface $-1 0 33.065277685386228 0 0 -1 0 0 0 -1 forward_v I I I I #
coedge $-1 $431 $319 $322 $432 forward $201 $-1 #
coedge $-1 $325 $203 $204 $313 reversed $126 $-1 #
coedge $-1 $319 $431 $203 $311 reversed $201 $-1 #
edge $-1 $326 -9.33914726555623 $433 9.33914726555623 $310 $434 forward 7 unknown #
coedge $-1 $205 $204 $431 $435 forward $81 $-1 #
edge $-1 $317 -64.933622241889708 $433 64.933622241889708 $309 $436 forward 7 unknown #
coedge $-1 $322 $321 $205 $315 reversed $306 $-1 #
edge $-1 $437 -64.933622241889708 $316 64.933622241889708 $314 $438 forward 7 unknown #
vertex $-1 $207 $439 #
vertex $-1 $328 $440 #
straight-curve $-1 64.933622241889708 0 -9.33914726555623 0 -1 0 I I #
coedge $-1 $308 $310 $208 $320 reversed $201 $-1 #
edge $-1 $323 -33.065277685386228 $326 33.065277685386228 $319 $441 forward 7 unknown #
coedge $-1 $314 $209 $214 $329 forward $306 $-1 #
coedge $-1 $209 $314 $308 $432 reversed $306 $-1 #
vertex $-1 $210 $442 #
straight-curve $-1 0 33.065277685386228 9.33914726555623 -1 0 0 I I #
coedge $-1 $211 $309 $213 $328 reversed $126 $-1 #
vertex $-1 $320 $443 #
straight-curve $-1 0 -33.065277685386228 9.33914726555623 1 0 0 I I #
edge $-1 $216 -9.33914726555623 $317 9.33914726555623 $213 $444 forward 7 unknown #
edge $-1 $217 -9.33914726555623 $316 9.33914726555623 $214 $445 forward 7 unknown #
point $-1 64.933622241889708 -33.065277685386228 9.33914726555623 #
point $-1 64.933622241889708 33.065277685386228 9.33914726555623 #
face $-1 $-1 $234 $31 $-1 $446 reversed single #
loop $-1 $-1 $230 $219 #
plane-surface $-1 0 -33.065277685386228 0 0 1 0 0 0 1 forward_v I I I I #
coedge $-1 $447 $448 $227 $345 forward $220 $-1 #
coedge $-1 $346 $222 $224 $341 reversed $134 $-1 #
edge $-1 $343 -5.275864019059247 $235 -1.8507024739347191 $233 $449 forward 7 unknown #
coedge $-1 $224 $223 $450 $451 reversed $85 $-1 #
coedge $-1 $350 $349 $223 $340 forward $333 $-1 #
edge $-1 $452 -64.933622241889708 $342 64.933622241889708 $339 $453 forward 7 unknown #
edge $-1 $454 -64.933622241889708 $343 64.933622241889708 $336 $455 forward 7 unknown #
vertex $-1 $340 $456 #
vertex $-1 $226 $457 #
straight-curve $-1 64.933622241889708 -14.019333144683987 -8.83914726555623 0 1 0 I I #
edge $-1 $351 -19.045944540702241 $347 -8.9927217486657334 $335 $458 forward 7 unknown #
coedge $-1 $228 $336 $447 $459 reversed $134 $-1 #
vertex $-1 $345 $460 #
straight-curve $-1 0 -23.01205489334972 -5.4139857204317021 -1 0 0 I I #
coedge $-1 $339 $230 $448 $461 forward $333 $-1 #
coedge $-1 $230 $339 $232 $353 reversed $333 $-1 #
vertex $-1 $461 $462 #
straight-curve $-1 0 -33.065277685386228 -5.4139857204317021 -1 0 0 I I #
edge $-1 $236 5.4139857204317021 $342 8.83914726555623 $232 $463 forward 7 unknown #
point $-1 64.933622241889708 -23.01205489334972 -5.4139857204317021 #
point $-1 64.933622241889708 -33.065277685386228 -5.4139857204317021 #
plane-surface $-1 0 0 9.33914726555623 0 0 1 1 0 0 forward_v I I I I #
coedge $-1 $367 $366 $359 $464 forward $239 $-1 #
coedge $-1 $359 $241 $243 $363 reversed $142 $-1 #
coedge $-1 $241 $358 $357 $464 reversed $142 $-1 #
coedge $-1 $249 $244 $241 $361 forward $250 $-1 #
edge $-1 $364 -17.889094531725817 $465 -15.022634401852926 $360 $466 forward 7 unknown #
coedge $-1 $243 $242 $367 $467 reversed $89 $-1 #
edge $-1 $468 2.0734513383776317e-014 $364 4.203030879517728 $358 $469 forward 7 unknown #
vertex $-1 $245 $470 #
straight-curve $-1 -62.067162112016817 -9.5544965134023716 9.33914726555623 0 1 0 I I #
coedge $-1 $357 $246 $249 $371 reversed $239 $-1 #
coedge $-1 $246 $357 $362 $467 forward $239 $-1 #
vertex $-1 $247 $471 #
straight-curve $-1 -64.933622241889708 -23.01205489334972 47.417245825931417 0 0 1 I I #
straight-curve $-1 -64.933622241889722 -23.01205489334972 6.2652450390648653 -0.68199835119979291 0 -0.73135370988377701 I I #
edge $-1 $465 15.205931160259766 $251 23.01205489334972 $366 $472 forward 7 unknown #
point $-1 -64.933622241889708 -23.01205489334972 9.33914726555623 #
point $-1 -62.067162112016817 -23.01205489334972 9.33914726555623 #
edge $-1 $473 1 $473 0 $254 $-1 forward 7 unknown #
vertex $-1 $255 $474 #
ellipse-curve $-1 -62.102300650923709 -21.450830146731729 6.4984547441619886 -0.73135370988377701 0 0.68199835119979291 0.34099917559989645 0 0.36567685494188851 1 I I #
point $-1 -63.159393001353351 -21.450830146731729 8.1678730072524353 #
edge $-1 $475 1 $475 0 $258 $-1 forward 7 unknown #
vertex $-1 $259 $476 #
ellipse-curve $-1 -62.102300650923709 -19.108993026804743 6.4984547441619886 -0.73135370988377701 0 0.68199835119979291 0.34099917559989645 0 0.36567685494188851 1 I I #
point $-1 -63.159393001353351 -19.108993026804743 8.1678730072524353 #
edge $-1 $477 1 $477 0 $262 $-1 forward 7 unknown #
vertex $-1 $263 $478 #
ellipse-curve $-1 -62.102300650923709 -16.767155906877758 6.4984547441619886 -0.73135370988377701 0 0.68199835119979291 0.34099917559989645 0 0.36567685494188851 1 I I #
point $-1 -63.159393001353351 -16.767155906877758 8.1678730072524353 #
loop $-1 $-1 $274 $266 #
plane-surface $-1 64.933622241889708 0 0 -1 0 0 0 0 1 forward_v I I I I #
coedge $-1 $389 $269 $271 $393 reversed $171 $-1 #
coedge $-1 $269 $388 $479 $480 reversed $171 $-1 #
coedge $-1 $277 $272 $269 $391 forward $267 $-1 #
edge $-1 $394 5.7694754220231061 $481 8.6994544484607417 $390 $482 forward 7 unknown #
coedge $-1 $271 $270 $397 $483 reversed $108 $-1 #
edge $-1 $484 -129.86724448377942 $394 -124.0072862738869 $388 $485 forward 7 unknown #
vertex $-1 $273 $486 #
straight-curve $-1 62.003643215452065 -6.5567752323320114 9.3391472655562353 0 -1 0 I I #
coedge $-1 $479 $274 $277 $401 reversed $386 $-1 #
coedge $-1 $274 $479 $392 $483 forward $386 $-1 #
vertex $-1 $275 $487 #
straight-curve $-1 64.933622241889708 -6.7479121881756594 90.833114447154543 0 0 1 I I #
straight-curve $-1 1.7398928520151458e-006 -6.7479121881756594 116.73260839231224 0.49999998660252726 0 -0.86602541151947299 I I #
edge $-1 $481 -19.479188741152385 $278 -6.7479121881756594 $396 $488 forward 7 unknown #
point $-1 64.933622241889708 -6.7479121881756594 9.33914726555623 #
point $-1 62.003643215452072 -6.7479121881756594 9.3391472655562353 #
edge $-1 $489 1 $489 0 $281 $-1 forward 7 unknown #
vertex $-1 $282 $490 #
ellipse-curve $-1 60.504530128435633 -13.113550464664023 5.0903855324400196 0.86602541151947299 0 0.49999998660252726 0.49999998660252726 0 -0.86602541151947299 1 I I #
point $-1 63.968632715273422 -13.113550464664023 5.9356854939322181 #
plane-surface $-1 0 0 9.33914726555623 0 0 1 1 0 0 forward_v I I I I #
coedge $-1 $419 $418 $411 $491 forward $286 $-1 #
coedge $-1 $411 $288 $290 $415 reversed $186 $-1 #
coedge $-1 $288 $410 $409 $491 reversed $186 $-1 #
coedge $-1 $296 $291 $288 $413 forward $297 $-1 #
edge $-1 $416 5.7694754220231061 $492 8.6994544484607417 $412 $493 forward 7 unknown #
coedge $-1 $290 $289 $419 $494 reversed $117 $-1 #
edge $-1 $495 -129.86724448377942 $416 -124.0072862738869 $410 $496 forward 7 unknown #
vertex $-1 $292 $497 #
straight-curve $-1 62.003643215452065 11.583386628350272 9.3391472655562353 0 -1 0 I I #
coedge $-1 $409 $293 $296 $423 reversed $286 $-1 #
coedge $-1 $293 $409 $414 $494 forward $286 $-1 #
vertex $-1 $294 $498 #
straight-curve $-1 64.933622241889708 29.532411533188906 90.833114447154543 0 0 1 I I #
straight-curve $-1 1.7398928520151458e-006 29.532411533188906 116.73260839231224 0.49999998660252726 0 -0.86602541151947299 I I #
edge $-1 $492 16.801134980212183 $298 29.532411533188906 $418 $499 forward 7 unknown #
point $-1 64.933622241889708 29.532411533188906 9.33914726555623 #
point $-1 62.003643215452072 29.532411533188906 9.3391472655562353 #
edge $-1 $500 1 $500 0 $301 $-1 forward 7 unknown #
vertex $-1 $302 $501 #
ellipse-curve $-1 60.504530128435633 23.166773256700544 5.0903855324400196 0.86602541151947299 0 0.49999998660252726 0.49999998660252726 0 -0.86602541151947299 1 I I #
point $-1 63.968632715273422 23.166773256700544 5.9356854939322181 #
plane-surface $-1 64.933622241889708 0 0 -1 0 0 0 0 1 forward_v I I I I #
coedge $-1 $310 $308 $312 $435 reversed $201 $-1 #
edge $-1 $323 -9.33914726555623 $437 9.33914726555623 $322 $502 forward 7 unknown #
vertex $-1 $435 $503 #
straight-curve $-1 -64.933622241889708 -33.065277685386228 0 0 0 -1 I I #
edge $-1 $433 -33.065277685386228 $437 33.065277685386228 $431 $504 forward 7 unknown #
straight-curve $-1 0 -33.065277685386228 -9.33914726555623 -1 0 0 I I #
vertex $-1 $315 $505 #
straight-curve $-1 0 33.065277685386228 -9.33914726555623 1 0 0 I I #
point $-1 64.933622241889708 33.065277685386228 -9.33914726555623 #
point $-1 64.933622241889708 -33.065277685386228 -9.33914726555623 #
straight-curve $-1 -64.933622241889708 0 9.33914726555623 0 -1 0 I I #
point $-1 -64.933622241889708 33.065277685386228 9.33914726555623 #
point $-1 -64.933622241889708 -33.065277685386228 9.33914726555623 #
straight-curve $-1 64.933622241889708 -33.065277685386228 0 0 0 -1 I I #
straight-curve $-1 64.933622241889708 33.065277685386228 0 0 0 -1 I I #
plane-surface $-1 64.933622241889708 0 0 -1 0 0 0 0 1 forward_v I I I I #
coedge $-1 $450 $335 $346 $459 forward $220 $-1 #
coedge $-1 $335 $450 $349 $461 reversed $220 $-1 #
straight-curve $-1 64.933622241889708 -23.01205489334972 -3.563283246496983 0 0 1 I I #
coedge $-1 $448 $447 $338 $451 forward $220 $-1 #
edge $-1 $454 8.9927217486657334 $452 19.045944540702241 $450 $506 forward 7 unknown #
vertex $-1 $340 $507 #
straight-curve $-1 0 -33.065277685386228 -8.83914726555623 1 0 0 I I #
vertex $-1 $451 $508 #
straight-curve $-1 0 -23.01205489334972 -8.83914726555623 1 0 0 I I #
point $-1 64.933622241889708 -33.065277685386228 -8.83914726555623 #
point $-1 64.933622241889708 -23.01205489334972 -8.83914726555623 #
straight-curve $-1 -64.933622241889708 -14.019333144683987 -5.4139857204317021 0 1 0 I I #
edge $-1 $347 1.8507024739347191 $454 5.275864019059247 $447 $509 forward 7 unknown #
point $-1 -64.933622241889708 -23.01205489334972 -5.4139857204317021 #
edge $-1 $351 5.4139857204317021 $452 8.83914726555623 $448 $510 forward 7 unknown #
point $-1 -64.933622241889708 -33.065277685386228 -5.4139857204317021 #
straight-curve $-1 64.933622241889708 -33.065277685386228 0 0 0 -1 I I #
edge $-1 $465 38.078098560375189 $468 41.152000786866537 $357 $511 forward 7 unknown #
vertex $-1 $371 $512 #
straight-curve $-1 -79.956256643742634 -15.205931160259766 9.3391472655562282 -1 0 0 I I #
edge $-1 $468 5.6514346468573944 $368 13.457558379947349 $367 $513 forward 7 unknown #
vertex $-1 $467 $514 #
straight-curve $-1 -64.933622241889722 -15.205931160259766 6.2652450390648653 0.68199835119979291 0 0.73135370988377701 I I #
point $-1 -62.067162112016817 -15.205931160259766 9.33914726555623 #
point $-1 -64.933622241889708 -23.01205489334972 6.2652450390648804 #
straight-curve $-1 -64.933622241889708 0 9.33914726555623 0 -1 0 I I #
vertex $-1 $374 $515 #
point $-1 -61.761301475323819 -21.450830146731729 6.8641315991038772 #
vertex $-1 $378 $516 #
point $-1 -61.761301475323819 -19.108993026804743 6.8641315991038772 #
vertex $-1 $382 $517 #
point $-1 -61.761301475323819 -16.767155906877758 6.8641315991038772 #
coedge $-1 $397 $396 $389 $480 forward $386 $-1 #
edge $-1 $481 81.493967181598308 $484 86.568839901807394 $479 $518 forward 7 unknown #
vertex $-1 $401 $519 #
straight-curve $-1 56.234167793428966 -19.479188741152385 9.3391472655562353 1 0 0 I I #
edge $-1 $484 -12.922413508820373 $398 -0.19113695584364798 $397 $520 forward 7 unknown #
vertex $-1 $483 $521 #
straight-curve $-1 1.7398928520151458e-006 -19.479188741152385 116.73260839231224 -0.49999998660252726 0 0.86602541151947299 I I #
point $-1 62.003643215452072 -19.479188741152385 9.3391472655562353 #
point $-1 64.933622241889708 -6.7479121881756594 4.2642745453471491 #
straight-curve $-1 64.933622241889708 0 9.33914726555623 0 1 0 I I #
vertex $-1 $404 $522 #
point $-1 61.004530115038158 -13.113550464664023 4.2243601209205472 #
edge $-1 $492 81.493967181598308 $495 86.568839901807394 $409 $523 forward 7 unknown #
vertex $-1 $423 $524 #
straight-curve $-1 56.234167793428966 16.801134980212183 9.3391472655562353 1 0 0 I I #
edge $-1 $495 5.2177483518619105 $420 17.949024904838634 $419 $525 forward 7 unknown #
vertex $-1 $494 $526 #
straight-curve $-1 1.7398928520151458e-006 16.801134980212183 116.73260839231224 -0.49999998660252726 0 0.86602541151947299 I I #
point $-1 62.003643215452072 16.801134980212183 9.3391472655562353 #
point $-1 64.933622241889708 29.532411533188906 4.2642745453471491 #
straight-curve $-1 64.933622241889708 0 9.33914726555623 0 1 0 I I #
vertex $-1 $426 $527 #
point $-1 61.004530115038158 23.166773256700544 4.2243601209205472 #
straight-curve $-1 -64.933622241889708 33.065277685386228 0 0 0 -1 I I #
point $-1 -64.933622241889708 -33.065277685386228 -9.33914726555623 #
straight-curve $-1 -64.933622241889708 0 -9.33914726555623 0 1 0 I I #
point $-1 -64.933622241889708 33.065277685386228 -9.33914726555623 #
straight-curve $-1 -64.933622241889708 -14.019333144683987 -8.83914726555623 0 -1 0 I I #
point $-1 -64.933622241889708 -33.065277685386228 -8.83914726555623 #
point $-1 -64.933622241889708 -23.01205489334972 -8.83914726555623 #
straight-curve $-1 -64.933622241889708 -23.01205489334972 -3.563283246496983 0 0 -1 I I #
straight-curve $-1 -64.933622241889708 -33.065277685386228 0 0 0 -1 I I #
straight-curve $-1 -64.933622241889708 -15.205931160259766 47.417245825931417 0 0 -1 I I #
point $-1 -64.933622241889708 -15.205931160259766 9.33914726555623 #
straight-curve $-1 -64.933622241889708 -9.5544965134023716 6.2652450390648706 0 -1 0 I I #
point $-1 -64.933622241889708 -15.205931160259766 6.2652450390648804 #
point $-1 -61.736623795981828 -21.450830146731729 6.1574555685620931 #
point $-1 -61.736623795981828 -19.108993026804743 6.1574555685620931 #
point $-1 -61.736623795981828 -16.767155906877758 6.1574555685620931 #
straight-curve $-1 64.933622241889708 -19.479188741152385 90.833114447154543 0 0 -1 I I #
point $-1 64.933622241889708 -19.479188741152385 9.33914726555623 #
straight-curve $-1 64.933622241889708 -6.5567752323320114 4.2642745453471349 0 1 0 I I #
point $-1 64.933622241889708 -19.479188741152385 4.2642745453471491 #
point $-1 59.63850471691616 -13.113550464664023 4.5903855458374929 #
straight-curve $-1 64.933622241889708 16.801134980212183 90.833114447154543 0 0 -1 I I #
point $-1 64.933622241889708 16.801134980212183 9.33914726555623 #
straight-curve $-1 64.933622241889708 11.583386628350272 4.2642745453471349 0 1 0 I I #
point $-1 64.933622241889708 16.801134980212183 4.2642745453471491 #
point $-1 59.63850471691616 23.166773256700544 4.5903855458374929 #
End-of-ACIS-data 