500 0 10 0           
7 Unknown 11 ACIS 5.0 NT 24 Thu Mar 25 22:24:30 1999 
-1 9.9999999999999995e-007 1e-010 
body $-1 $10 $-1 $11 #
body $-1 $12 $-1 $13 #
body $-1 $14 $-1 $15 #
body $-1 $16 $-1 $17 #
body $-1 $18 $-1 $19 #
body $-1 $20 $-1 $21 #
body $-1 $22 $-1 $23 #
body $-1 $24 $-1 $25 #
body $-1 $26 $-1 $27 #
body $-1 $28 $-1 $29 #
lump $-1 $-1 $30 $0 #
transform $-1 1 0 0 0 1 0 0 0 1 50.655842768639175 20.654696886949694 9.3748257082268935 1 rotate no_reflect no_shear #
lump $-1 $-1 $31 $1 #
transform $-1 1 0 0 0 1 0 0 0 1 50.655842768639175 20.654696886949694 9.3748257082268935 1 rotate no_reflect no_shear #
lump $-1 $-1 $32 $2 #
transform $-1 1 0 0 0 1 0 0 0 1 50.655842768639175 20.654696886949694 9.3748257082268935 1 rotate no_reflect no_shear #
lump $-1 $-1 $33 $3 #
transform $-1 1 0 0 0 1 0 0 0 1 50.655842768639175 20.654696886949694 9.3748257082268935 1 rotate no_reflect no_shear #
lump $-1 $-1 $34 $4 #
transform $-1 1 0 0 0 1 0 0 0 1 50.655842768639175 20.654696886949694 9.3748257082268935 1 rotate no_reflect no_shear #
lump $-1 $-1 $35 $5 #
transform $-1 1 0 0 0 1 0 0 0 1 50.655842768639175 20.654696886949694 9.3748257082268935 1 rotate no_reflect no_shear #
lump $-1 $-1 $36 $6 #
transform $-1 1 0 0 0 1 0 0 0 1 50.655842768639175 20.654696886949694 9.3748257082268935 1 rotate no_reflect no_shear #
lump $-1 $-1 $37 $7 #
transform $-1 1 0 0 0 1 0 0 0 1 50.655842768639175 20.654696886949694 9.3748257082268935 1 rotate no_reflect no_shear #
lump $-1 $-1 $38 $8 #
transform $-1 1 0 0 0 1 0 0 0 1 50.655842768639175 20.654696886949694 9.3748257082268935 1 rotate no_reflect no_shear #
lump $-1 $-1 $39 $9 #
transform $-1 1 0 0 0 1 0 0 0 1 50.655842768639175 20.654696886949694 9.3748257082268935 1 rotate no_reflect no_shear #
shell $-1 $-1 $-1 $40 $-1 $10 #
shell $-1 $-1 $-1 $41 $-1 $12 #
shell $-1 $-1 $-1 $42 $-1 $14 #
shell $-1 $-1 $-1 $43 $-1 $16 #
shell $-1 $-1 $-1 $44 $-1 $18 #
shell $-1 $-1 $-1 $45 $-1 $20 #
shell $-1 $-1 $-1 $46 $-1 $22 #
shell $-1 $-1 $-1 $47 $-1 $24 #
shell $-1 $-1 $-1 $48 $-1 $26 #
shell $-1 $-1 $-1 $49 $-1 $28 #
face $-1 $50 $51 $30 $-1 $52 forward single #
face $-1 $53 $54 $31 $-1 $55 forward single #
face $-1 $56 $57 $32 $-1 $58 reversed single #
face $-1 $59 $60 $33 $-1 $61 forward single #
face $-1 $62 $63 $34 $-1 $64 reversed single #
face $-1 $65 $66 $35 $-1 $67 forward single #
face $-1 $68 $69 $36 $-1 $70 reversed single #
face $-1 $71 $72 $37 $-1 $73 forward single #
face $-1 $74 $75 $38 $-1 $76 reversed single #
face $-1 $77 $78 $39 $-1 $79 forward single #
face $-1 $80 $81 $30 $-1 $82 reversed single #
loop $-1 $-1 $83 $40 #
plane-surface $-1 0 0 9.3748257082268935 0 0 1 1 0 0 forward_v I I I I #
face $-1 $84 $85 $31 $-1 $86 reversed single #
loop $-1 $-1 $87 $41 #
plane-surface $-1 0 -20.654696886949694 0 0 1 0 0 0 1 forward_v I I I I #
face $-1 $88 $89 $32 $-1 $90 reversed single #
loop $-1 $-1 $91 $42 #
plane-surface $-1 87.738495516473463 2.1487523021991084 142.72404979931733 0 -1 0 -0.86602541151947299 0 -0.49999998660252726 forward_v I I I I #
face $-1 $92 $93 $33 $-1 $94 forward single #
loop $-1 $95 $96 $43 #
cone-surface $-1 47.764015460737554 -1.2305246083409109 6.0235246066670882 -0.86602541151947299 0 -0.49999998660252726 0.49999998660252726 0 -0.86602541151947299 1 I I 0 1 1 forward I I I I #
face $-1 $97 $98 $34 $-1 $99 reversed single #
loop $-1 $-1 $100 $44 #
plane-surface $-1 87.738495516473463 14.136640911463887 142.72404979931733 0 -1 0 -0.86602541151947299 0 -0.49999998660252726 forward_v I I I I #
face $-1 $101 $102 $35 $-1 $103 forward single #
loop $-1 $104 $105 $45 #
cone-surface $-1 47.764015460737554 10.757364000923864 6.0235246066670882 -0.86602541151947299 0 -0.49999998660252726 0.49999998660252726 0 -0.86602541151947299 1 I I 0 1 1 forward I I I I #
face $-1 $106 $107 $36 $-1 $108 reversed single #
loop $-1 $-1 $109 $46 #
plane-surface $-1 -138.3943369277921 -4.6098015188809232 54.985555640164407 0 1 0 -0.86602541151947299 0 0.49999998660252726 forward_v I I I I #
face $-1 $110 $111 $37 $-1 $112 forward single #
loop $-1 $113 $114 $47 #
cone-surface $-1 -47.764015460737546 -1.2305246083409109 6.0235246066670811 0.86602541151947299 0 -0.49999998660252726 0.49999998660252726 0 0.86602541151947299 1 I I 0 1 1 forward I I I I #
face $-1 $115 $116 $38 $-1 $117 reversed single #
loop $-1 $-1 $118 $48 #
plane-surface $-1 -138.3943369277921 7.3780870903838558 54.985555640164407 0 1 0 -0.86602541151947299 0 0.49999998660252726 forward_v I I I I #
face $-1 $119 $120 $39 $-1 $121 forward single #
loop $-1 $122 $123 $49 #
cone-surface $-1 -47.764015460737546 10.757364000923864 6.0235246066670811 0.86602541151947299 0 -0.49999998660252726 0.49999998660252726 0 0.86602541151947299 1 I I 0 1 1 forward I I I I #
face $-1 $124 $125 $30 $-1 $126 reversed single #
loop $-1 $-1 $127 $50 #
plane-surface $-1 0 0 -9.3748257082268935 0 0 1 1 0 0 forward_v I I I I #
coedge $-1 $128 $129 $130 $131 forward $51 $-1 #
face $-1 $132 $133 $31 $-1 $134 reversed single #
loop $-1 $-1 $135 $53 #
plane-surface $-1 0 0 -9.3748257082268935 0 0 1 1 0 0 forward_v I I I I #
coedge $-1 $136 $137 $138 $139 forward $54 $-1 #
face $-1 $140 $141 $32 $-1 $142 reversed single #
loop $-1 $-1 $143 $56 #
plane-surface $-1 1.3573205421835155e-006 -1.2305246083409074 92.068208387998695 0.86602541151947299 0 0.49999998660252726 0.49999998660252726 0 -0.86602541151947299 forward_v I I I I #
coedge $-1 $144 $145 $146 $147 reversed $57 $-1 #
face $-1 $-1 $148 $33 $-1 $149 forward single #
loop $-1 $150 $151 $59 #
cone-surface $-1 45.895573630400222 -1.2305246083409109 4.9447792514965698 -0.86602541151947299 0 -0.49999998660252726 0.24999999330126363 0 -0.43301270575973649 1 I I -0.70710678118654746 0.70710678118654746 0.5 forward I I I I #
loop $-1 $-1 $152 $43 #
coedge $-1 $96 $96 $153 $154 reversed $60 $-1 #
face $-1 $155 $156 $34 $-1 $157 reversed single #
loop $-1 $-1 $158 $62 #
plane-surface $-1 1.3573205421835155e-006 10.757364000923872 92.068208387998695 0.86602541151947299 0 0.49999998660252726 0.49999998660252726 0 -0.86602541151947299 forward_v I I I I #
coedge $-1 $159 $160 $161 $162 reversed $63 $-1 #
face $-1 $-1 $163 $35 $-1 $164 forward single #
loop $-1 $165 $166 $65 #
cone-surface $-1 45.895573630400222 10.757364000923864 4.9447792514965698 -0.86602541151947299 0 -0.49999998660252726 0.24999999330126363 0 -0.43301270575973649 1 I I -0.70710678118654746 0.70710678118654746 0.5 forward I I I I #
loop $-1 $-1 $167 $45 #
coedge $-1 $105 $105 $168 $169 reversed $66 $-1 #
face $-1 $170 $171 $36 $-1 $172 reversed single #
loop $-1 $-1 $173 $68 #
plane-surface $-1 -50.655842768639175 -1.2305246083409074 4.3297142288457735 -0.86602541151947299 0 0.49999998660252726 0.49999998660252726 0 0.86602541151947299 forward_v I I I I #
coedge $-1 $174 $175 $176 $177 reversed $69 $-1 #
face $-1 $-1 $178 $37 $-1 $179 forward single #
loop $-1 $180 $181 $71 #
cone-surface $-1 -45.895573630400214 -1.2305246083409109 4.9447792514965627 0.86602541151947299 0 -0.49999998660252726 0.24999999330126363 0 0.43301270575973649 1 I I -0.70710678118654746 0.70710678118654746 0.5 forward I I I I #
loop $-1 $-1 $182 $47 #
coedge $-1 $114 $114 $183 $184 reversed $72 $-1 #
face $-1 $185 $186 $38 $-1 $187 reversed single #
loop $-1 $-1 $188 $74 #
plane-surface $-1 -50.655842768639175 10.757364000923872 4.3297142288457735 -0.86602541151947299 0 0.49999998660252726 0.49999998660252726 0 0.86602541151947299 forward_v I I I I #
coedge $-1 $189 $190 $191 $192 reversed $75 $-1 #
face $-1 $-1 $193 $39 $-1 $194 forward single #
loop $-1 $195 $196 $77 #
cone-surface $-1 -45.895573630400214 10.757364000923864 4.9447792514965627 0.86602541151947299 0 -0.49999998660252726 0.24999999330126363 0 0.43301270575973649 1 I I -0.70710678118654746 0.70710678118654746 0.5 forward I I I I #
loop $-1 $-1 $197 $49 #
coedge $-1 $123 $123 $198 $199 reversed $78 $-1 #
face $-1 $200 $201 $30 $-1 $202 reversed single #
loop $-1 $-1 $203 $80 #
plane-surface $-1 0 -20.654696886949694 0 0 1 0 0 0 1 forward_v I I I I #
coedge $-1 $204 $205 $206 $207 forward $81 $-1 #
coedge $-1 $208 $83 $209 $210 forward $51 $-1 #
coedge $-1 $83 $208 $211 $212 forward $51 $-1 #
coedge $-1 $213 $214 $83 $131 reversed $215 $-1 #
edge $-1 $216 -20.654696886949694 $217 20.654696886949694 $130 $218 forward 7 unknown #
face $-1 $219 $220 $31 $-1 $221 forward single #
loop $-1 $-1 $222 $84 #
plane-surface $-1 50.655842768639175 0 0 -1 0 0 0 0 1 forward_v I I I I #
coedge $-1 $223 $224 $225 $226 forward $85 $-1 #
coedge $-1 $225 $87 $222 $227 reversed $54 $-1 #
coedge $-1 $87 $225 $228 $229 reversed $54 $-1 #
coedge $-1 $230 $231 $87 $139 reversed $220 $-1 #
edge $-1 $232 -50.655842768639175 $233 50.655842768639175 $138 $234 forward 7 unknown #
face $-1 $235 $236 $32 $-1 $237 reversed single #
loop $-1 $-1 $238 $88 #
plane-surface $-1 87.738495516473463 -4.6098015188809232 142.72404979931733 0 1 0 0.86602541151947299 0 0.49999998660252726 forward_v I I I I #
coedge $-1 $239 $240 $241 $242 reversed $89 $-1 #
coedge $-1 $145 $91 $243 $244 reversed $57 $-1 #
coedge $-1 $91 $144 $239 $245 reversed $57 $-1 #
coedge $-1 $241 $246 $91 $147 forward $247 $-1 #
edge $-1 $248 -6.7865950104024435 $249 -3.8737986437543697 $146 $250 forward 7 unknown #
loop $-1 $-1 $153 $92 #
plane-surface $-1 1.3573205421835155e-006 -1.2305246083409074 92.068208387998695 0.86602541151947299 0 0.49999998660252726 0.49999998660252726 0 -0.86602541151947299 forward_v I I I I #
loop $-1 $-1 $251 $59 #
coedge $-1 $151 $151 $152 $252 reversed $93 $-1 #
coedge $-1 $152 $152 $151 $252 forward $95 $-1 #
coedge $-1 $153 $153 $96 $154 forward $148 $-1 #
edge $-1 $253 0 $253 6.2831853071796004 $153 $254 forward 7 unknown #
face $-1 $255 $256 $34 $-1 $257 reversed single #
loop $-1 $-1 $258 $97 #
plane-surface $-1 87.738495516473463 7.3780870903838558 142.72404979931733 0 1 0 0.86602541151947299 0 0.49999998660252726 forward_v I I I I #
coedge $-1 $259 $260 $261 $262 reversed $98 $-1 #
coedge $-1 $160 $100 $263 $264 reversed $63 $-1 #
coedge $-1 $100 $159 $259 $265 reversed $63 $-1 #
coedge $-1 $261 $266 $100 $162 forward $267 $-1 #
edge $-1 $268 -6.7865950104024435 $269 -3.8737986437543697 $161 $270 forward 7 unknown #
loop $-1 $-1 $168 $101 #
plane-surface $-1 1.3573205421835155e-006 10.757364000923872 92.068208387998695 0.86602541151947299 0 0.49999998660252726 0.49999998660252726 0 -0.86602541151947299 forward_v I I I I #
loop $-1 $-1 $271 $65 #
coedge $-1 $166 $166 $167 $272 reversed $102 $-1 #
coedge $-1 $167 $167 $166 $272 forward $104 $-1 #
coedge $-1 $168 $168 $105 $169 forward $163 $-1 #
edge $-1 $273 0 $273 6.2831853071796004 $168 $274 forward 7 unknown #
face $-1 $275 $276 $36 $-1 $277 forward single #
loop $-1 $-1 $278 $106 #
plane-surface $-1 -138.3943369277921 2.1487523021991084 54.985555640164407 0 -1 0 0.86602541151947299 0 -0.49999998660252726 forward_v I I I I #
coedge $-1 $279 $280 $281 $282 reversed $107 $-1 #
coedge $-1 $175 $109 $283 $284 reversed $69 $-1 #
coedge $-1 $109 $174 $279 $285 reversed $69 $-1 #
coedge $-1 $281 $286 $109 $177 forward $276 $-1 #
edge $-1 $287 18.541325695256873 $288 21.45412206190494 $176 $289 forward 7 unknown #
loop $-1 $-1 $183 $110 #
plane-surface $-1 -50.655842768639175 -1.2305246083409074 4.3297142288457735 -0.86602541151947299 0 0.49999998660252726 0.49999998660252726 0 0.86602541151947299 forward_v I I I I #
loop $-1 $-1 $290 $71 #
coedge $-1 $181 $181 $182 $291 reversed $111 $-1 #
coedge $-1 $182 $182 $181 $291 forward $113 $-1 #
coedge $-1 $183 $183 $114 $184 forward $178 $-1 #
edge $-1 $292 0 $292 6.2831853071796004 $183 $293 forward 7 unknown #
face $-1 $294 $295 $38 $-1 $296 forward single #
loop $-1 $-1 $297 $115 #
plane-surface $-1 -138.3943369277921 14.136640911463887 54.985555640164407 0 -1 0 0.86602541151947299 0 -0.49999998660252726 forward_v I I I I #
coedge $-1 $298 $299 $300 $301 reversed $116 $-1 #
coedge $-1 $190 $118 $302 $303 reversed $75 $-1 #
coedge $-1 $118 $189 $298 $304 reversed $75 $-1 #
coedge $-1 $300 $305 $118 $192 forward $295 $-1 #
edge $-1 $306 18.541325695256873 $307 21.45412206190494 $191 $308 forward 7 unknown #
loop $-1 $-1 $198 $119 #
plane-surface $-1 -50.655842768639175 10.757364000923872 4.3297142288457735 -0.86602541151947299 0 0.49999998660252726 0.49999998660252726 0 0.86602541151947299 forward_v I I I I #
loop $-1 $-1 $309 $77 #
coedge $-1 $196 $196 $197 $310 reversed $120 $-1 #
coedge $-1 $197 $197 $196 $310 forward $122 $-1 #
coedge $-1 $198 $198 $123 $199 forward $193 $-1 #
edge $-1 $311 0 $311 6.2831853071796004 $198 $312 forward 7 unknown #
face $-1 $313 $314 $30 $-1 $315 reversed single #
loop $-1 $-1 $316 $124 #
plane-surface $-1 -50.655842768639175 0 0 1 0 0 0 0 -1 forward_v I I I I #
coedge $-1 $317 $211 $318 $319 forward $125 $-1 #
coedge $-1 $320 $127 $317 $321 forward $81 $-1 #
coedge $-1 $127 $320 $322 $323 forward $81 $-1 #
coedge $-1 $214 $213 $127 $207 reversed $215 $-1 #
edge $-1 $324 -20.654696886949694 $325 20.654696886949694 $206 $326 forward 7 unknown #
coedge $-1 $129 $128 $327 $328 forward $51 $-1 #
coedge $-1 $329 $330 $128 $210 reversed $314 $-1 #
edge $-1 $217 -50.655842768639175 $331 50.655842768639175 $209 $332 forward 7 unknown #
coedge $-1 $203 $333 $129 $212 reversed $125 $-1 #
edge $-1 $334 -50.655842768639175 $216 50.655842768639175 $211 $335 forward 7 unknown #
coedge $-1 $206 $130 $333 $336 forward $215 $-1 #
coedge $-1 $130 $206 $329 $337 reversed $215 $-1 #
loop $-1 $-1 $213 $313 #
vertex $-1 $131 $338 #
vertex $-1 $131 $339 #
straight-curve $-1 50.655842768639175 0 9.3748257082268935 0 1 0 I I #
face $-1 $340 $341 $31 $-1 $342 reversed single #
loop $-1 $-1 $231 $132 #
plane-surface $-1 0 -25.418116583241172 -5.0867305896697168 0 0 1 1 0 0 forward_v I I I I #
coedge $-1 $343 $344 $136 $227 forward $133 $-1 #
coedge $-1 $345 $135 $344 $346 forward $85 $-1 #
coedge $-1 $135 $345 $347 $348 forward $85 $-1 #
coedge $-1 $137 $136 $135 $226 reversed $54 $-1 #
edge $-1 $349 -50.655842768639175 $350 50.655842768639175 $135 $351 forward 7 unknown #
edge $-1 $350 -9.3748257082268935 $233 -5.0867305896697168 $222 $352 forward 7 unknown #
coedge $-1 $347 $353 $137 $229 forward $354 $-1 #
edge $-1 $232 5.0867305896697168 $349 9.3748257082268935 $228 $355 forward 7 unknown #
coedge $-1 $356 $138 $353 $357 forward $220 $-1 #
coedge $-1 $138 $356 $343 $358 forward $220 $-1 #
vertex $-1 $229 $359 #
vertex $-1 $358 $360 #
straight-curve $-1 0 -20.654696886949694 -5.0867305896697168 1 0 0 I I #
face $-1 $-1 $247 $32 $-1 $361 forward single #
loop $-1 $-1 $362 $140 #
plane-surface $-1 50.655842768639175 0 0 -1 0 0 0 0 1 forward_v I I I I #
coedge $-1 $363 $364 $365 $366 reversed $141 $-1 #
coedge $-1 $367 $143 $145 $245 forward $89 $-1 #
coedge $-1 $143 $367 $363 $368 forward $89 $-1 #
coedge $-1 $365 $146 $143 $242 forward $247 $-1 #
edge $-1 $249 -2.7640146063695621 $369 3.9945392147104695 $241 $370 forward 7 unknown #
coedge $-1 $371 $372 $144 $244 forward $236 $-1 #
edge $-1 $373 -67.03231067081289 $248 -61.98719919143177 $243 $374 forward 7 unknown #
edge $-1 $249 95.486092647885755 $373 101.31168553727835 $145 $375 forward 7 unknown #
coedge $-1 $146 $365 $371 $376 forward $247 $-1 #
loop $-1 $-1 $365 $235 #
vertex $-1 $244 $377 #
vertex $-1 $147 $378 #
straight-curve $-1 43.869247758236732 2.1487523021991084 9.3748257082268935 -1 0 0 I I #
coedge $-1 $251 $251 $-1 $379 reversed $150 $-1 #
edge $-1 $380 0 $380 6.2831853071796004 $151 $381 forward 7 unknown #
vertex $-1 $154 $382 #
ellipse-curve $-1 49.199444585315135 -1.2305246083409109 6.8522699685363335 0.86602541151947299 0 0.49999998660252726 0.49999998660252726 0 -0.86602541151947299 1 I I #
face $-1 $-1 $267 $34 $-1 $383 forward single #
loop $-1 $-1 $384 $155 #
plane-surface $-1 50.655842768639175 0 0 -1 0 0 0 0 1 forward_v I I I I #
coedge $-1 $385 $386 $387 $388 reversed $156 $-1 #
coedge $-1 $389 $158 $160 $265 forward $98 $-1 #
coedge $-1 $158 $389 $385 $390 forward $98 $-1 #
coedge $-1 $387 $161 $158 $262 forward $267 $-1 #
edge $-1 $269 -8.7579589110019516 $391 -1.99940508992192 $261 $392 forward 7 unknown #
coedge $-1 $393 $394 $159 $264 forward $256 $-1 #
edge $-1 $395 -67.03231067081289 $268 -61.98719919143177 $263 $396 forward 7 unknown #
edge $-1 $269 95.486092647885755 $395 101.31168553727835 $160 $397 forward 7 unknown #
coedge $-1 $161 $387 $393 $398 forward $267 $-1 #
loop $-1 $-1 $387 $255 #
vertex $-1 $264 $399 #
vertex $-1 $162 $400 #
straight-curve $-1 43.869247758236732 14.136640911463887 9.3748257082268935 -1 0 0 I I #
coedge $-1 $271 $271 $-1 $401 reversed $165 $-1 #
edge $-1 $402 0 $402 6.2831853071796004 $166 $403 forward 7 unknown #
vertex $-1 $169 $404 #
ellipse-curve $-1 49.199444585315135 10.757364000923864 6.8522699685363335 0.86602541151947299 0 0.49999998660252726 0.49999998660252726 0 -0.86602541151947299 1 I I #
face $-1 $-1 $405 $36 $-1 $406 reversed single #
loop $-1 $-1 $176 $170 #
plane-surface $-1 0 0 9.3748257082268935 0 0 1 1 0 0 forward_v I I I I #
coedge $-1 $407 $408 $409 $410 reversed $171 $-1 #
coedge $-1 $411 $173 $175 $285 forward $107 $-1 #
coedge $-1 $173 $411 $407 $412 forward $107 $-1 #
coedge $-1 $409 $176 $173 $282 forward $276 $-1 #
edge $-1 $288 -3.9945392147104695 $413 2.7640146063695621 $281 $414 forward 7 unknown #
coedge $-1 $415 $416 $174 $284 forward $405 $-1 #
edge $-1 $417 -23.16306359123643 $287 -18.11795211185531 $283 $418 forward 7 unknown #
edge $-1 $288 -5.825592889392575 $417 0 $175 $419 forward 7 unknown #
coedge $-1 $176 $409 $415 $420 forward $276 $-1 #
vertex $-1 $284 $421 #
vertex $-1 $177 $422 #
straight-curve $-1 -69.197168463896048 -4.6098015188809232 9.3748257082268935 1 0 0 I I #
coedge $-1 $290 $290 $-1 $423 reversed $180 $-1 #
edge $-1 $424 0 $424 6.2831853071796004 $181 $425 forward 7 unknown #
vertex $-1 $184 $426 #
ellipse-curve $-1 -49.199444585315142 -1.2305246083409109 6.8522699685363353 -0.86602541151947299 0 0.49999998660252726 0.49999998660252726 0 0.86602541151947299 1 I I #
face $-1 $-1 $427 $38 $-1 $428 reversed single #
loop $-1 $-1 $191 $185 #
plane-surface $-1 0 0 9.3748257082268935 0 0 1 1 0 0 forward_v I I I I #
coedge $-1 $429 $430 $431 $432 reversed $186 $-1 #
coedge $-1 $433 $188 $190 $304 forward $116 $-1 #
coedge $-1 $188 $433 $429 $434 forward $116 $-1 #
coedge $-1 $431 $191 $188 $301 forward $295 $-1 #
edge $-1 $307 1.99940508992192 $435 8.7579589110019516 $300 $436 forward 7 unknown #
coedge $-1 $437 $438 $189 $303 forward $427 $-1 #
edge $-1 $439 -23.16306359123643 $306 -18.11795211185531 $302 $440 forward 7 unknown #
edge $-1 $307 -5.825592889392575 $439 0 $190 $441 forward 7 unknown #
coedge $-1 $191 $431 $437 $442 forward $295 $-1 #
vertex $-1 $192 $443 #
vertex $-1 $192 $444 #
straight-curve $-1 -69.197168463896048 7.3780870903838558 9.3748257082268935 1 0 0 I I #
coedge $-1 $309 $309 $-1 $445 reversed $195 $-1 #
edge $-1 $446 0 $446 6.2831853071796004 $196 $447 forward 7 unknown #
vertex $-1 $199 $448 #
ellipse-curve $-1 -49.199444585315142 10.757364000923864 6.8522699685363353 -0.86602541151947299 0 0.49999998660252726 0.49999998660252726 0 0.86602541151947299 1 I I #
face $-1 $-1 $215 $30 $-1 $449 reversed single #
loop $-1 $-1 $329 $200 #
plane-surface $-1 0 20.654696886949694 0 0 -1 0 0 0 -1 forward_v I I I I #
coedge $-1 $450 $327 $330 $451 forward $201 $-1 #
coedge $-1 $333 $203 $204 $321 reversed $125 $-1 #
coedge $-1 $327 $450 $203 $319 reversed $201 $-1 #
edge $-1 $334 -9.3748257082268935 $452 9.3748257082268935 $318 $453 forward 7 unknown #
coedge $-1 $205 $204 $450 $454 forward $81 $-1 #
edge $-1 $325 -50.655842768639175 $452 50.655842768639175 $317 $455 forward 7 unknown #
coedge $-1 $330 $329 $205 $323 reversed $314 $-1 #
edge $-1 $456 -50.655842768639175 $324 50.655842768639175 $322 $457 forward 7 unknown #
vertex $-1 $207 $458 #
vertex $-1 $336 $459 #
straight-curve $-1 50.655842768639175 0 -9.3748257082268935 0 -1 0 I I #
coedge $-1 $316 $318 $208 $328 reversed $201 $-1 #
edge $-1 $331 -20.654696886949694 $334 20.654696886949694 $327 $460 forward 7 unknown #
coedge $-1 $322 $209 $214 $337 forward $314 $-1 #
coedge $-1 $209 $322 $316 $451 reversed $314 $-1 #
vertex $-1 $210 $461 #
straight-curve $-1 0 20.654696886949694 9.3748257082268935 -1 0 0 I I #
coedge $-1 $211 $317 $213 $336 reversed $125 $-1 #
vertex $-1 $328 $462 #
straight-curve $-1 0 -20.654696886949694 9.3748257082268935 1 0 0 I I #
edge $-1 $216 -9.3748257082268935 $325 9.3748257082268935 $213 $463 forward 7 unknown #
edge $-1 $217 -9.3748257082268935 $324 9.3748257082268935 $214 $464 forward 7 unknown #
point $-1 50.655842768639175 -20.654696886949694 9.3748257082268935 #
point $-1 50.655842768639175 20.654696886949694 9.3748257082268935 #
face $-1 $-1 $354 $31 $-1 $465 reversed single #
loop $-1 $-1 $466 $219 #
plane-surface $-1 0 -30.181536279532651 -7.2307781489483052 0 1 0 0 0 1 forward_v I I I I #
coedge $-1 $467 $222 $231 $358 reversed $133 $-1 #
coedge $-1 $222 $467 $223 $346 reversed $133 $-1 #
coedge $-1 $224 $223 $468 $469 forward $85 $-1 #
edge $-1 $350 20.654696886949694 $470 30.181536279532651 $344 $471 forward 7 unknown #
coedge $-1 $472 $228 $224 $348 reversed $354 $-1 #
edge $-1 $473 -30.181536279532651 $349 -20.654696886949694 $347 $474 forward 7 unknown #
vertex $-1 $229 $475 #
vertex $-1 $346 $476 #
straight-curve $-1 0 -20.654696886949694 -9.3748257082268935 1 0 0 I I #
straight-curve $-1 50.655842768639175 -20.654696886949694 0 0 0 1 I I #
coedge $-1 $228 $472 $230 $357 reversed $354 $-1 #
loop $-1 $-1 $228 $340 #
straight-curve $-1 -50.655842768639175 -20.654696886949694 0 0 0 -1 I I #
coedge $-1 $231 $230 $477 $478 forward $220 $-1 #
edge $-1 $232 -4.7634196962914785 $479 4.7634196962914785 $353 $480 forward 7 unknown #
edge $-1 $481 -4.7634196962914785 $233 4.7634196962914785 $343 $482 forward 7 unknown #
point $-1 -50.655842768639175 -20.654696886949694 -5.0867305896697168 #
point $-1 50.655842768639175 -20.654696886949694 -5.0867305896697168 #
plane-surface $-1 0 0 9.3748257082268935 0 0 1 1 0 0 forward_v I I I I #
coedge $-1 $372 $371 $364 $483 forward $236 $-1 #
coedge $-1 $364 $238 $240 $368 reversed $141 $-1 #
coedge $-1 $238 $363 $362 $483 reversed $141 $-1 #
coedge $-1 $246 $241 $238 $366 forward $247 $-1 #
edge $-1 $369 3.8737986437543697 $484 6.7865950104024435 $365 $485 forward 7 unknown #
coedge $-1 $240 $239 $372 $486 reversed $89 $-1 #
edge $-1 $487 -101.31168553727835 $369 -95.486092647885755 $363 $488 forward 7 unknown #
vertex $-1 $242 $489 #
straight-curve $-1 47.743046401991108 -0.61526230417045369 9.3748257082268864 0 -1 0 I I #
coedge $-1 $362 $243 $246 $376 reversed $236 $-1 #
coedge $-1 $243 $362 $367 $486 forward $236 $-1 #
vertex $-1 $244 $490 #
straight-curve $-1 50.655842768639175 2.1487523021991084 71.362024899658664 0 0 1 I I #
straight-curve $-1 1.3573205421835155e-006 2.1487523021991084 92.068208387998695 0.49999998660252726 0 -0.86602541151947299 I I #
edge $-1 $484 -4.6098015188809232 $248 2.1487523021991084 $371 $491 forward 7 unknown #
point $-1 50.655842768639175 2.1487523021991084 9.3748257082268935 #
point $-1 47.743046401991101 2.1487523021991084 9.3748257082268935 #
edge $-1 $492 1 $492 0 $251 $-1 forward 7 unknown #
vertex $-1 $252 $493 #
ellipse-curve $-1 46.328586336159958 -1.2305246083409109 5.1947792447978332 0.86602541151947299 0 0.49999998660252726 0.49999998660252726 0 -0.86602541151947299 1 I I #
point $-1 49.699444571917681 -1.2305246083409109 5.9862445570168692 #
plane-surface $-1 0 0 9.3748257082268935 0 0 1 1 0 0 forward_v I I I I #
coedge $-1 $394 $393 $386 $494 forward $256 $-1 #
coedge $-1 $386 $258 $260 $390 reversed $156 $-1 #
coedge $-1 $258 $385 $384 $494 reversed $156 $-1 #
coedge $-1 $266 $261 $258 $388 forward $267 $-1 #
edge $-1 $391 3.8737986437543697 $495 6.7865950104024435 $387 $496 forward 7 unknown #
coedge $-1 $260 $259 $394 $497 reversed $98 $-1 #
edge $-1 $498 -101.31168553727835 $391 -95.486092647885755 $385 $499 forward 7 unknown #
vertex $-1 $262 $500 #
straight-curve $-1 47.743046401991108 5.3786820004619358 9.3748257082268864 0 -1 0 I I #
coedge $-1 $384 $263 $266 $398 reversed $256 $-1 #
coedge $-1 $263 $384 $389 $497 forward $256 $-1 #
vertex $-1 $264 $501 #
straight-curve $-1 50.655842768639175 14.136640911463887 71.362024899658664 0 0 1 I I #
straight-curve $-1 1.3573205421835155e-006 14.136640911463887 92.068208387998695 0.49999998660252726 0 -0.86602541151947299 I I #
edge $-1 $495 7.3780870903838558 $268 14.136640911463887 $393 $502 forward 7 unknown #
point $-1 50.655842768639175 14.136640911463887 9.3748257082268935 #
point $-1 47.743046401991101 14.136640911463887 9.3748257082268935 #
edge $-1 $503 1 $503 0 $271 $-1 forward 7 unknown #
vertex $-1 $272 $504 #
ellipse-curve $-1 46.328586336159958 10.757364000923864 5.1947792447978332 0.86602541151947299 0 0.49999998660252726 0.49999998660252726 0 -0.86602541151947299 1 I I #
point $-1 49.699444571917681 10.757364000923864 5.9862445570168692 #
loop $-1 $-1 $283 $275 #
plane-surface $-1 -50.655842768639175 0 0 1 0 0 0 0 -1 forward_v I I I I #
coedge $-1 $408 $278 $280 $412 reversed $171 $-1 #
coedge $-1 $278 $407 $505 $506 reversed $171 $-1 #
coedge $-1 $286 $281 $278 $410 forward $276 $-1 #
edge $-1 $413 -21.45412206190494 $507 -18.541325695256873 $409 $508 forward 7 unknown #
coedge $-1 $280 $279 $416 $509 reversed $107 $-1 #
edge $-1 $510 0 $413 5.825592889392575 $407 $511 forward 7 unknown #
vertex $-1 $282 $512 #
straight-curve $-1 -47.743046401991108 -0.61526230417045369 9.3748257082268935 0 1 0 I I #
coedge $-1 $505 $283 $286 $420 reversed $405 $-1 #
coedge $-1 $283 $505 $411 $509 forward $405 $-1 #
vertex $-1 $284 $513 #
straight-curve $-1 -50.655842768639175 -4.6098015188809232 27.492777820082203 0 0 1 I I #
straight-curve $-1 -50.655842768639175 -4.6098015188809232 4.3297142288457735 -0.49999998660252726 0 -0.86602541151947299 I I #
edge $-1 $507 -2.1487523021991084 $287 4.6098015188809232 $415 $514 forward 7 unknown #
point $-1 -50.655842768639175 -4.6098015188809232 9.3748257082268935 #
point $-1 -47.743046401991108 -4.6098015188809232 9.3748257082268935 #
edge $-1 $515 1 $515 0 $290 $-1 forward 7 unknown #
vertex $-1 $291 $516 #
ellipse-curve $-1 -46.328586336159951 -1.2305246083409109 5.194779244797826 -0.86602541151947299 0 0.49999998660252726 0.49999998660252726 0 0.86602541151947299 1 I I #
point $-1 -48.699444598712617 -1.2305246083409109 7.7182953800558085 #
loop $-1 $-1 $302 $294 #
plane-surface $-1 -50.655842768639175 0 0 1 0 0 0 0 -1 forward_v I I I I #
coedge $-1 $430 $297 $299 $434 reversed $186 $-1 #
coedge $-1 $297 $429 $517 $518 reversed $186 $-1 #
coedge $-1 $305 $300 $297 $432 forward $295 $-1 #
edge $-1 $435 -21.45412206190494 $519 -18.541325695256873 $431 $520 forward 7 unknown #
coedge $-1 $299 $298 $438 $521 reversed $116 $-1 #
edge $-1 $522 0 $435 5.825592889392575 $429 $523 forward 7 unknown #
vertex $-1 $301 $524 #
straight-curve $-1 -47.743046401991108 5.3786820004619358 9.3748257082268935 0 1 0 I I #
coedge $-1 $517 $302 $305 $442 reversed $427 $-1 #
coedge $-1 $302 $517 $433 $521 forward $427 $-1 #
vertex $-1 $303 $525 #
straight-curve $-1 -50.655842768639175 7.3780870903838558 27.492777820082203 0 0 1 I I #
straight-curve $-1 -50.655842768639175 7.3780870903838558 4.3297142288457735 -0.49999998660252726 0 -0.86602541151947299 I I #
edge $-1 $519 -14.136640911463887 $306 -7.3780870903838558 $437 $526 forward 7 unknown #
point $-1 -50.655842768639175 7.3780870903838558 9.3748257082268935 #
point $-1 -47.743046401991108 7.3780870903838558 9.3748257082268935 #
edge $-1 $527 1 $527 0 $309 $-1 forward 7 unknown #
vertex $-1 $310 $528 #
ellipse-curve $-1 -46.328586336159951 10.757364000923864 5.194779244797826 -0.86602541151947299 0 0.49999998660252726 0.49999998660252726 0 0.86602541151947299 1 I I #
point $-1 -48.699444598712617 10.757364000923864 7.7182953800558085 #
plane-surface $-1 50.655842768639175 0 0 -1 0 0 0 0 1 forward_v I I I I #
coedge $-1 $318 $316 $320 $454 reversed $201 $-1 #
edge $-1 $331 -9.3748257082268935 $456 9.3748257082268935 $330 $529 forward 7 unknown #
vertex $-1 $454 $530 #
straight-curve $-1 -50.655842768639175 -20.654696886949694 0 0 0 -1 I I #
edge $-1 $452 -20.654696886949694 $456 20.654696886949694 $450 $531 forward 7 unknown #
straight-curve $-1 0 -20.654696886949694 -9.3748257082268935 -1 0 0 I I #
vertex $-1 $323 $532 #
straight-curve $-1 0 20.654696886949694 -9.3748257082268935 1 0 0 I I #
point $-1 50.655842768639175 20.654696886949694 -9.3748257082268935 #
point $-1 50.655842768639175 -20.654696886949694 -9.3748257082268935 #
straight-curve $-1 -50.655842768639175 0 9.3748257082268935 0 -1 0 I I #
point $-1 -50.655842768639175 20.654696886949694 9.3748257082268935 #
point $-1 -50.655842768639175 -20.654696886949694 9.3748257082268935 #
straight-curve $-1 50.655842768639175 -20.654696886949694 0 0 0 -1 I I #
straight-curve $-1 50.655842768639175 20.654696886949694 0 0 0 -1 I I #
plane-surface $-1 -50.655842768639175 0 0 1 0 0 0 0 -1 forward_v I I I I #
coedge $-1 $468 $477 $472 $533 forward $341 $-1 #
coedge $-1 $344 $343 $534 $535 forward $133 $-1 #
coedge $-1 $534 $466 $345 $469 reversed $341 $-1 #
edge $-1 $470 -50.655842768639175 $473 50.655842768639175 $468 $536 forward 7 unknown #
vertex $-1 $535 $537 #
straight-curve $-1 50.655842768639175 0 -9.3748257082268935 0 -1 0 I I #
coedge $-1 $353 $347 $466 $533 reversed $354 $-1 #
vertex $-1 $348 $538 #
straight-curve $-1 -50.655842768639175 0 -9.3748257082268935 0 1 0 I I #
point $-1 -50.655842768639175 -20.654696886949694 -9.3748257082268935 #
point $-1 50.655842768639175 -20.654696886949694 -9.3748257082268935 #
coedge $-1 $466 $534 $356 $478 reversed $341 $-1 #
edge $-1 $479 -50.655842768639175 $481 50.655842768639175 $477 $539 forward 7 unknown #
vertex $-1 $357 $540 #
straight-curve $-1 -50.655842768639175 -25.418116583241172 -5.0867305896697168 0 -1 0 I I #
vertex $-1 $358 $541 #
straight-curve $-1 50.655842768639175 -25.418116583241172 -5.0867305896697168 0 1 0 I I #
edge $-1 $484 61.98719919143177 $487 67.03231067081289 $362 $542 forward 7 unknown #
vertex $-1 $376 $543 #
straight-curve $-1 43.869247758236732 -4.6098015188809232 9.3748257082268935 1 0 0 I I #
edge $-1 $487 -3.9945392147104695 $373 2.7640146063695621 $372 $544 forward 7 unknown #
vertex $-1 $486 $545 #
straight-curve $-1 1.3573205421835155e-006 -4.6098015188809232 92.068208387998695 -0.49999998660252726 0 0.86602541151947299 I I #
point $-1 47.743046401991101 -4.6098015188809232 9.3748257082268935 #
point $-1 50.655842768639175 2.1487523021991084 4.3297142288457735 #
straight-curve $-1 50.655842768639175 0 9.3748257082268935 0 1 0 I I #
vertex $-1 $379 $546 #
point $-1 46.828586322762483 -1.2305246083409109 4.3287538332783608 #
edge $-1 $495 61.98719919143177 $498 67.03231067081289 $384 $547 forward 7 unknown #
vertex $-1 $398 $548 #
straight-curve $-1 43.869247758236732 7.3780870903838558 9.3748257082268935 1 0 0 I I #
edge $-1 $498 1.99940508992192 $395 8.7579589110019516 $394 $549 forward 7 unknown #
vertex $-1 $497 $550 #
straight-curve $-1 1.3573205421835155e-006 7.3780870903838558 92.068208387998695 -0.49999998660252726 0 0.86602541151947299 I I #
point $-1 47.743046401991101 7.3780870903838558 9.3748257082268935 #
point $-1 50.655842768639175 14.136640911463887 4.3297142288457735 #
straight-curve $-1 50.655842768639175 0 9.3748257082268935 0 1 0 I I #
vertex $-1 $401 $551 #
point $-1 46.828586322762483 10.757364000923864 4.3287538332783608 #
coedge $-1 $416 $415 $408 $506 forward $405 $-1 #
edge $-1 $507 18.11795211185531 $510 23.16306359123643 $505 $552 forward 7 unknown #
vertex $-1 $420 $553 #
straight-curve $-1 -69.197168463896048 2.1487523021991084 9.3748257082268935 -1 0 0 I I #
edge $-1 $510 -2.7640146063695621 $417 3.9945392147104695 $416 $554 forward 7 unknown #
vertex $-1 $509 $555 #
straight-curve $-1 -50.655842768639175 2.1487523021991084 4.3297142288457735 0.49999998660252726 0 0.86602541151947299 I I #
point $-1 -47.743046401991108 2.1487523021991084 9.3748257082268935 #
point $-1 -50.655842768639175 -4.6098015188809232 4.3297142288457735 #
straight-curve $-1 -50.655842768639175 0 9.3748257082268935 0 -1 0 I I #
vertex $-1 $423 $556 #
point $-1 -45.828586349557426 -1.2305246083409109 6.0608046563172993 #
coedge $-1 $438 $437 $430 $518 forward $427 $-1 #
edge $-1 $519 18.11795211185531 $522 23.16306359123643 $517 $557 forward 7 unknown #
vertex $-1 $442 $558 #
straight-curve $-1 -69.197168463896048 14.136640911463887 9.3748257082268935 -1 0 0 I I #
edge $-1 $522 -8.7579589110019516 $439 -1.99940508992192 $438 $559 forward 7 unknown #
vertex $-1 $521 $560 #
straight-curve $-1 -50.655842768639175 14.136640911463887 4.3297142288457735 0.49999998660252726 0 0.86602541151947299 I I #
point $-1 -47.743046401991108 14.136640911463887 9.3748257082268935 #
point $-1 -50.655842768639175 7.3780870903838558 4.3297142288457735 #
straight-curve $-1 -50.655842768639175 0 9.3748257082268935 0 -1 0 I I #
vertex $-1 $445 $561 #
point $-1 -45.828586349557426 10.757364000923864 6.0608046563172993 #
straight-curve $-1 -50.655842768639175 20.654696886949694 0 0 0 -1 I I #
point $-1 -50.655842768639175 -20.654696886949694 -9.3748257082268935 #
straight-curve $-1 -50.655842768639175 0 -9.3748257082268935 0 1 0 I I #
point $-1 -50.655842768639175 20.654696886949694 -9.3748257082268935 #
edge $-1 $479 -2.1440475592785884 $473 2.1440475592785884 $472 $562 forward 7 unknown #
coedge $-1 $477 $468 $467 $535 reversed $341 $-1 #
edge $-1 $481 -2.1440475592785884 $470 2.1440475592785884 $467 $563 forward 7 unknown #
straight-curve $-1 0 -30.181536279532651 -9.3748257082268935 -1 0 0 I I #
point $-1 50.655842768639175 -30.181536279532651 -9.3748257082268935 #
point $-1 -50.655842768639175 -30.181536279532651 -9.3748257082268935 #
straight-curve $-1 0 -30.181536279532651 -5.0867305896697168 1 0 0 I I #
point $-1 -50.655842768639175 -30.181536279532651 -5.0867305896697168 #
point $-1 50.655842768639175 -30.181536279532651 -5.0867305896697168 #
straight-curve $-1 50.655842768639175 -4.6098015188809232 71.362024899658664 0 0 -1 I I #
point $-1 50.655842768639175 -4.6098015188809232 9.3748257082268935 #
straight-curve $-1 50.655842768639175 -0.61526230417045369 4.3297142288457664 0 1 0 I I #
point $-1 50.655842768639175 -4.6098015188809232 4.3297142288457735 #
point $-1 45.462560924640485 -1.2305246083409109 4.6947792581953065 #
straight-curve $-1 50.655842768639175 7.3780870903838558 71.362024899658664 0 0 -1 I I #
point $-1 50.655842768639175 7.3780870903838558 9.3748257082268935 #
straight-curve $-1 50.655842768639175 5.3786820004619358 4.3297142288457664 0 1 0 I I #
point $-1 50.655842768639175 7.3780870903838558 4.3297142288457735 #
point $-1 45.462560924640485 10.757364000923864 4.6947792581953065 #
straight-curve $-1 -50.655842768639175 2.1487523021991084 27.492777820082203 0 0 -1 I I #
point $-1 -50.655842768639175 2.1487523021991084 9.3748257082268935 #
straight-curve $-1 -50.655842768639175 -0.61526230417045369 4.3297142288457771 0 -1 0 I I #
point $-1 -50.655842768639175 2.1487523021991084 4.3297142288457735 #
point $-1 -45.462560924640478 -1.2305246083409109 4.6947792581952994 #
straight-curve $-1 -50.655842768639175 14.136640911463887 27.492777820082203 0 0 -1 I I #
point $-1 -50.655842768639175 14.136640911463887 9.3748257082268935 #
straight-curve $-1 -50.655842768639175 5.3786820004619358 4.3297142288457771 0 -1 0 I I #
point $-1 -50.655842768639175 14.136640911463887 4.3297142288457735 #
point $-1 -45.462560924640478 10.757364000923864 4.6947792581952994 #
straight-curve $-1 -50.655842768639175 -30.181536279532651 -7.2307781489483052 0 0 -1 I I #
straight-curve $-1 50.655842768639175 -30.181536279532651 -7.2307781489483052 0 0 -1 I I #
End-of-ACIS-data 