500 0 11 0           
7 Unknown 11 ACIS 5.0 NT 24 Thu Mar 25 17:53:23 1999 
-1 9.9999999999999995e-007 1e-010 
body $-1 $11 $-1 $12 #
body $-1 $13 $-1 $14 #
body $-1 $15 $-1 $16 #
body $-1 $17 $-1 $18 #
body $-1 $19 $-1 $20 #
body $-1 $21 $-1 $22 #
body $-1 $23 $-1 $24 #
body $-1 $25 $-1 $26 #
body $-1 $27 $-1 $28 #
body $-1 $29 $-1 $30 #
body $-1 $31 $-1 $32 #
lump $-1 $-1 $33 $0 #
transform $-1 1 0 0 0 1 0 0 0 1 62.848597674489575 39.578293967521894 17.009836872390732 1 rotate no_reflect no_shear #
lump $-1 $-1 $34 $1 #
transform $-1 1 0 0 0 1 0 0 0 1 62.848597674489575 39.578293967521894 17.009836872390732 1 rotate no_reflect no_shear #
lump $-1 $-1 $35 $2 #
transform $-1 1 0 0 0 1 0 0 0 1 62.848597674489575 39.578293967521894 17.009836872390732 1 rotate no_reflect no_shear #
lump $-1 $-1 $36 $3 #
transform $-1 1 0 0 0 1 0 0 0 1 62.848597674489575 39.578293967521894 17.009836872390732 1 rotate no_reflect no_shear #
lump $-1 $-1 $37 $4 #
transform $-1 1 0 0 0 1 0 0 0 1 62.848597674489575 39.578293967521894 17.009836872390732 1 rotate no_reflect no_shear #
lump $-1 $-1 $38 $5 #
transform $-1 1 0 0 0 1 0 0 0 1 62.848597674489575 39.578293967521894 17.009836872390732 1 rotate no_reflect no_shear #
lump $-1 $-1 $39 $6 #
transform $-1 1 0 0 0 1 0 0 0 1 62.848597674489575 39.578293967521894 17.009836872390732 1 rotate no_reflect no_shear #
lump $-1 $-1 $40 $7 #
transform $-1 1 0 0 0 1 0 0 0 1 62.848597674489575 39.578293967521894 17.009836872390732 1 rotate no_reflect no_shear #
lump $-1 $-1 $41 $8 #
transform $-1 1 0 0 0 1 0 0 0 1 62.848597674489575 39.578293967521894 17.009836872390732 1 rotate no_reflect no_shear #
lump $-1 $-1 $42 $9 #
transform $-1 1 0 0 0 1 0 0 0 1 62.848597674489575 39.578293967521894 17.009836872390732 1 rotate no_reflect no_shear #
lump $-1 $-1 $43 $10 #
transform $-1 1 0 0 0 1 0 0 0 1 62.848597674489575 39.578293967521894 17.009836872390732 1 rotate no_reflect no_shear #
shell $-1 $-1 $-1 $44 $-1 $11 #
shell $-1 $-1 $-1 $45 $-1 $13 #
shell $-1 $-1 $-1 $46 $-1 $15 #
shell $-1 $-1 $-1 $47 $-1 $17 #
shell $-1 $-1 $-1 $48 $-1 $19 #
shell $-1 $-1 $-1 $49 $-1 $21 #
shell $-1 $-1 $-1 $50 $-1 $23 #
shell $-1 $-1 $-1 $51 $-1 $25 #
shell $-1 $-1 $-1 $52 $-1 $27 #
shell $-1 $-1 $-1 $53 $-1 $29 #
shell $-1 $-1 $-1 $54 $-1 $31 #
face $-1 $55 $56 $33 $-1 $57 reversed single #
face $-1 $58 $59 $34 $-1 $60 forward single #
face $-1 $61 $62 $35 $-1 $63 forward single #
face $-1 $64 $65 $36 $-1 $66 reversed single #
face $-1 $67 $68 $37 $-1 $69 forward single #
face $-1 $70 $71 $38 $-1 $72 forward single #
face $-1 $73 $74 $39 $-1 $75 forward single #
face $-1 $76 $77 $40 $-1 $78 reversed single #
face $-1 $79 $80 $41 $-1 $81 forward single #
face $-1 $82 $83 $42 $-1 $84 forward single #
face $-1 $85 $86 $43 $-1 $87 forward single #
face $-1 $88 $89 $33 $-1 $90 forward single #
loop $-1 $-1 $91 $44 #
plane-surface $-1 -62.848597674489575 0 0 1 0 0 0 0 -1 forward_v I I I I #
face $-1 $92 $93 $34 $-1 $94 reversed single #
loop $-1 $-1 $95 $45 #
plane-surface $-1 -62.848597674489575 0 0 1 0 0 0 0 -1 forward_v I I I I #
face $-1 $96 $97 $35 $-1 $98 reversed single #
loop $-1 $-1 $99 $46 #
plane-surface $-1 62.848597674489575 0 0 -1 0 0 0 0 1 forward_v I I I I #
face $-1 $100 $101 $36 $-1 $102 reversed single #
loop $-1 $-1 $103 $47 #
plane-surface $-1 -23.231124759475069 62.302840194494188 155.55738993821245 1 0 0 0 -0.6560590369687036 -0.75470957328743171 forward_v I I I I #
face $-1 $104 $105 $37 $-1 $106 forward single #
loop $-1 $107 $108 $48 #
cone-surface $-1 -19.253864429907267 33.575967981896255 11.438551733414611 0 -0.6560590369687036 -0.75470957328743171 1.5 0 0 1 I I 0 1 1.5 forward I I I I #
face $-1 $109 $110 $38 $-1 $111 forward single #
loop $-1 $112 $113 $49 #
cone-surface $-1 -13.287973935555563 33.575967981896255 11.438551733414611 0 -0.6560590369687036 -0.75470957328743171 1.5 0 0 1 I I 0 1 1.5 forward I I I I #
face $-1 $114 $115 $39 $-1 $116 forward single #
loop $-1 $117 $118 $50 #
cone-surface $-1 -7.3220834412038585 33.575967981896255 11.438551733414611 0 -0.6560590369687036 -0.75470957328743171 1.5 0 0 1 I I 0 1 1.5 forward I I I I #
face $-1 $119 $120 $40 $-1 $121 reversed single #
loop $-1 $-1 $122 $51 #
plane-surface $-1 -28.486005106091771 -128.45963420616553 100.23047327977589 -1 0 0 0 -0.70710678939079041 0.70710677298230451 forward_v I I I I #
face $-1 $123 $124 $41 $-1 $125 forward single #
loop $-1 $126 $127 $52 #
cone-surface $-1 -40.53835882442236 -35.140525215493767 12.572068091984322 0 0.70710678939079041 -0.70710677298230451 1.5 0 0 1 I I 0 1 1.5 forward I I I I #
face $-1 $128 $129 $42 $-1 $130 forward single #
loop $-1 $131 $132 $53 #
cone-surface $-1 -36.01872618004839 -35.140525215493767 12.572068091984322 0 0.70710678939079041 -0.70710677298230451 1.5 0 0 1 I I 0 1 1.5 forward I I I I #
face $-1 $133 $134 $43 $-1 $135 forward single #
loop $-1 $136 $137 $54 #
cone-surface $-1 -31.499093535674422 -35.140525215493767 12.572068091984322 0 0.70710678939079041 -0.70710677298230451 1.5 0 0 1 I I 0 1 1.5 forward I I I I #
face $-1 $138 $139 $33 $-1 $140 reversed single #
loop $-1 $-1 $141 $55 #
plane-surface $-1 0 0 17.009836872390732 0 0 1 1 0 0 forward_v I I I I #
coedge $-1 $142 $143 $144 $145 reversed $56 $-1 #
face $-1 $146 $147 $34 $-1 $148 reversed single #
loop $-1 $-1 $149 $58 #
plane-surface $-1 0 0 -17.009836872390732 0 0 1 1 0 0 forward_v I I I I #
coedge $-1 $150 $151 $152 $153 forward $59 $-1 #
face $-1 $154 $155 $35 $-1 $156 reversed single #
loop $-1 $-1 $157 $61 #
plane-surface $-1 0 39.578293967521894 0 0 -1 0 0 0 -1 forward_v I I I I #
coedge $-1 $158 $159 $160 $161 forward $62 $-1 #
face $-1 $162 $163 $36 $-1 $164 reversed single #
loop $-1 $-1 $165 $64 #
plane-surface $-1 -13.287973935555563 -20.161940735824082 60.692513272957456 0 0.6560590369687036 0.75470957328743171 1 0 0 forward_v I I I I #
coedge $-1 $166 $167 $168 $169 reversed $65 $-1 #
face $-1 $-1 $170 $37 $-1 $171 forward single #
loop $-1 $172 $173 $67 #
cone-surface $-1 -19.253864429907267 31.826130169618146 9.4255936393862179 0 -0.6560590369687036 -0.75470957328743171 0.75 0 0 1 I I -0.70710678118654757 0.70710678118654757 0.75 forward I I I I #
loop $-1 $-1 $174 $48 #
coedge $-1 $108 $108 $175 $176 reversed $68 $-1 #
face $-1 $-1 $177 $38 $-1 $178 forward single #
loop $-1 $179 $180 $70 #
cone-surface $-1 -13.287973935555563 31.826130169618146 9.4255936393862179 0 -0.6560590369687036 -0.75470957328743171 0.75 0 0 1 I I -0.70710678118654757 0.70710678118654757 0.75 forward I I I I #
loop $-1 $-1 $181 $49 #
coedge $-1 $113 $113 $182 $183 reversed $71 $-1 #
face $-1 $-1 $184 $39 $-1 $185 forward single #
loop $-1 $186 $187 $73 #
cone-surface $-1 -7.3220834412038585 31.826130169618146 9.4255936393862179 0 -0.6560590369687036 -0.75470957328743171 0.75 0 0 1 I I -0.70710678118654757 0.70710678118654757 0.75 forward I I I I #
loop $-1 $-1 $188 $50 #
coedge $-1 $118 $118 $189 $190 reversed $74 $-1 #
face $-1 $191 $192 $40 $-1 $193 reversed single #
loop $-1 $-1 $194 $76 #
plane-surface $-1 -36.01872618004839 -39.578293967521887 11.349135103632918 0 -0.70710678939079041 0.70710677298230451 1 0 0 forward_v I I I I #
coedge $-1 $195 $196 $197 $198 reversed $77 $-1 #
face $-1 $-1 $199 $41 $-1 $200 forward single #
loop $-1 $201 $202 $79 #
cone-surface $-1 -40.53835882442236 -33.002777190122885 10.4343201162201 0 0.70710678939079041 -0.70710677298230451 0.75 0 0 1 I I -0.70710678118654757 0.70710678118654757 0.75 forward I I I I #
loop $-1 $-1 $203 $52 #
coedge $-1 $127 $127 $204 $205 reversed $80 $-1 #
face $-1 $-1 $206 $42 $-1 $207 forward single #
loop $-1 $208 $209 $82 #
cone-surface $-1 -36.01872618004839 -33.002777190122885 10.4343201162201 0 0.70710678939079041 -0.70710677298230451 0.75 0 0 1 I I -0.70710678118654757 0.70710678118654757 0.75 forward I I I I #
loop $-1 $-1 $210 $53 #
coedge $-1 $132 $132 $211 $212 reversed $83 $-1 #
face $-1 $-1 $213 $43 $-1 $214 forward single #
loop $-1 $215 $216 $85 #
cone-surface $-1 -31.499093535674422 -33.002777190122885 10.4343201162201 0 0.70710678939079041 -0.70710677298230451 0.75 0 0 1 I I -0.70710678118654757 0.70710678118654757 0.75 forward I I I I #
loop $-1 $-1 $217 $54 #
coedge $-1 $137 $137 $218 $219 reversed $86 $-1 #
face $-1 $220 $221 $33 $-1 $222 reversed single #
loop $-1 $-1 $223 $88 #
plane-surface $-1 0 0 -17.009836872390732 0 0 1 1 0 0 forward_v I I I I #
coedge $-1 $224 $225 $226 $227 forward $89 $-1 #
coedge $-1 $228 $91 $229 $230 reversed $56 $-1 #
coedge $-1 $91 $228 $231 $232 forward $56 $-1 #
coedge $-1 $233 $234 $91 $145 forward $139 $-1 #
edge $-1 $235 -39.578293967521894 $236 39.578293967521894 $91 $237 forward 7 unknown #
face $-1 $238 $239 $34 $-1 $240 reversed single #
loop $-1 $-1 $241 $92 #
plane-surface $-1 -72.497172884731853 -13.576687560441442 0 0 1 0 0 0 1 forward_v I I I I #
coedge $-1 $242 $243 $151 $244 forward $93 $-1 #
coedge $-1 $245 $95 $246 $247 reversed $59 $-1 #
coedge $-1 $95 $245 $149 $244 reversed $59 $-1 #
coedge $-1 $248 $249 $95 $153 reversed $250 $-1 #
edge $-1 $251 -17.009836872390732 $252 17.009836872390732 $152 $253 forward 7 unknown #
face $-1 $254 $255 $35 $-1 $256 reversed single #
loop $-1 $-1 $257 $96 #
plane-surface $-1 74.072349083765602 0 7.8463174034489391 0 0 1 1 0 0 forward_v I I I I #
coedge $-1 $258 $259 $159 $260 forward $97 $-1 #
coedge $-1 $261 $99 $262 $263 reversed $62 $-1 #
coedge $-1 $99 $261 $157 $260 reversed $62 $-1 #
coedge $-1 $264 $265 $99 $161 reversed $155 $-1 #
edge $-1 $266 -39.578293967521894 $267 39.578293967521894 $160 $268 forward 7 unknown #
face $-1 $269 $270 $36 $-1 $271 forward single #
loop $-1 $-1 $272 $100 #
plane-surface $-1 -3.3448231116360567 62.302840194494188 155.55738993821245 -1 0 0 0 0.6560590369687036 0.75470957328743171 forward_v I I I I #
coedge $-1 $273 $274 $275 $276 reversed $101 $-1 #
coedge $-1 $167 $103 $277 $278 reversed $65 $-1 #
coedge $-1 $103 $166 $273 $279 reversed $65 $-1 #
coedge $-1 $275 $280 $103 $169 forward $270 $-1 #
edge $-1 $281 -8.4268738702748003 $282 1.0621910318733079 $168 $283 forward 7 unknown #
loop $-1 $-1 $175 $104 #
plane-surface $-1 -13.287973935555563 -20.161940735824082 60.692513272957456 0 0.6560590369687036 0.75470957328743171 1 0 0 forward_v I I I I #
loop $-1 $-1 $284 $67 #
coedge $-1 $173 $173 $174 $285 reversed $105 $-1 #
coedge $-1 $174 $174 $173 $285 forward $107 $-1 #
coedge $-1 $175 $175 $108 $176 forward $170 $-1 #
edge $-1 $286 -1.5538599431595979e-015 $286 6.2831853071795987 $175 $287 forward 7 unknown #
loop $-1 $-1 $182 $109 #
plane-surface $-1 -13.287973935555563 -20.161940735824082 60.692513272957456 0 0.6560590369687036 0.75470957328743171 1 0 0 forward_v I I I I #
loop $-1 $-1 $288 $70 #
coedge $-1 $180 $180 $181 $289 reversed $110 $-1 #
coedge $-1 $181 $181 $180 $289 forward $112 $-1 #
coedge $-1 $182 $182 $113 $183 forward $177 $-1 #
edge $-1 $290 -1.5538599431595979e-015 $290 6.2831853071795987 $182 $291 forward 7 unknown #
loop $-1 $-1 $189 $114 #
plane-surface $-1 -13.287973935555563 -20.161940735824082 60.692513272957456 0 0.6560590369687036 0.75470957328743171 1 0 0 forward_v I I I I #
loop $-1 $-1 $292 $73 #
coedge $-1 $187 $187 $188 $293 reversed $115 $-1 #
coedge $-1 $188 $188 $187 $293 forward $117 $-1 #
coedge $-1 $189 $189 $118 $190 forward $184 $-1 #
edge $-1 $294 -1.5538599431595979e-015 $294 6.2831853071795987 $189 $295 forward 7 unknown #
face $-1 $296 $297 $40 $-1 $298 reversed single #
loop $-1 $-1 $299 $119 #
plane-surface $-1 -43.551447254005012 -128.45963420616553 100.23047327977589 1 0 0 0 0.70710678939079041 -0.70710677298230451 forward_v I I I I #
coedge $-1 $300 $301 $302 $303 reversed $120 $-1 #
coedge $-1 $196 $122 $304 $305 reversed $77 $-1 #
coedge $-1 $122 $195 $300 $306 reversed $77 $-1 #
coedge $-1 $302 $307 $122 $198 forward $308 $-1 #
edge $-1 $309 24.651523135560872 $310 30.312224772961528 $197 $311 forward 7 unknown #
loop $-1 $-1 $204 $123 #
plane-surface $-1 -36.01872618004839 -39.578293967521887 11.349135103632918 0 -0.70710678939079041 0.70710677298230451 1 0 0 forward_v I I I I #
loop $-1 $-1 $312 $79 #
coedge $-1 $202 $202 $203 $313 reversed $124 $-1 #
coedge $-1 $203 $203 $202 $313 forward $126 $-1 #
coedge $-1 $204 $204 $127 $205 forward $199 $-1 #
edge $-1 $314 -2.5121479630413656e-015 $314 6.2831853071795978 $204 $315 forward 7 unknown #
loop $-1 $-1 $211 $128 #
plane-surface $-1 -36.01872618004839 -39.578293967521887 11.349135103632918 0 -0.70710678939079041 0.70710677298230451 1 0 0 forward_v I I I I #
loop $-1 $-1 $316 $82 #
coedge $-1 $209 $209 $210 $317 reversed $129 $-1 #
coedge $-1 $210 $210 $209 $317 forward $131 $-1 #
coedge $-1 $211 $211 $132 $212 forward $206 $-1 #
edge $-1 $318 -2.5121479630413656e-015 $318 6.2831853071795978 $211 $319 forward 7 unknown #
loop $-1 $-1 $218 $133 #
plane-surface $-1 -36.01872618004839 -39.578293967521887 11.349135103632918 0 -0.70710678939079041 0.70710677298230451 1 0 0 forward_v I I I I #
loop $-1 $-1 $320 $85 #
coedge $-1 $216 $216 $217 $321 reversed $134 $-1 #
coedge $-1 $217 $217 $216 $321 forward $136 $-1 #
coedge $-1 $218 $218 $137 $219 forward $213 $-1 #
edge $-1 $322 -2.5121479630413656e-015 $322 6.2831853071795978 $218 $323 forward 7 unknown #
face $-1 $324 $325 $33 $-1 $326 reversed single #
loop $-1 $-1 $229 $138 #
plane-surface $-1 0 -39.578293967521894 0 0 1 0 0 0 1 forward_v I I I I #
coedge $-1 $234 $233 $327 $328 forward $139 $-1 #
coedge $-1 $329 $141 $330 $331 forward $89 $-1 #
coedge $-1 $141 $329 $332 $333 forward $89 $-1 #
coedge $-1 $334 $335 $141 $227 reversed $336 $-1 #
edge $-1 $337 -39.578293967521894 $338 39.578293967521894 $226 $339 forward 7 unknown #
coedge $-1 $143 $142 $329 $340 reversed $56 $-1 #
coedge $-1 $341 $332 $142 $230 forward $221 $-1 #
edge $-1 $342 -17.009836872390732 $235 17.009836872390732 $142 $343 forward 7 unknown #
coedge $-1 $330 $344 $143 $232 reversed $325 $-1 #
edge $-1 $345 -17.009836872390732 $236 17.009836872390732 $231 $346 forward 7 unknown #
coedge $-1 $223 $144 $344 $347 forward $139 $-1 #
coedge $-1 $144 $223 $341 $348 forward $139 $-1 #
vertex $-1 $145 $349 #
vertex $-1 $347 $350 #
straight-curve $-1 -62.848597674489575 0 -17.009836872390732 0 1 0 I I #
face $-1 $351 $250 $34 $-1 $352 reversed single #
loop $-1 $-1 $353 $146 #
plane-surface $-1 -82.145748094974138 -10.639172258161789 0 1 0 0 0 0 -1 forward_v I I I I #
coedge $-1 $354 $355 $356 $357 forward $147 $-1 #
coedge $-1 $358 $149 $354 $359 forward $93 $-1 #
coedge $-1 $149 $358 $248 $360 forward $93 $-1 #
edge $-1 $251 7.7016569558821359 $361 13.576687560441442 $149 $362 forward 7 unknown #
coedge $-1 $151 $150 $363 $364 forward $59 $-1 #
coedge $-1 $365 $366 $150 $247 forward $367 $-1 #
edge $-1 $368 -13.576687560441442 $252 -7.7016569558821359 $246 $369 forward 7 unknown #
coedge $-1 $370 $152 $243 $360 reversed $250 $-1 #
coedge $-1 $152 $370 $365 $371 reversed $250 $-1 #
loop $-1 $-1 $152 $238 #
vertex $-1 $244 $372 #
vertex $-1 $371 $373 #
straight-curve $-1 -62.848597674489575 -7.7016569558821359 0 0 0 1 I I #
face $-1 $374 $375 $35 $-1 $376 forward single #
loop $-1 $-1 $377 $154 #
plane-surface $-1 85.296100493041621 0 12.428077137919836 -1 0 0 0 0 1 forward_v I I I I #
coedge $-1 $265 $264 $378 $379 forward $155 $-1 #
coedge $-1 $380 $157 $381 $382 reversed $97 $-1 #
coedge $-1 $157 $380 $264 $383 reversed $97 $-1 #
edge $-1 $266 7.8463174034489391 $384 17.009836872390732 $157 $385 forward 7 unknown #
coedge $-1 $159 $158 $386 $387 reversed $62 $-1 #
coedge $-1 $388 $389 $158 $263 forward $390 $-1 #
edge $-1 $391 -17.009836872390732 $267 -7.8463174034489391 $262 $392 forward 7 unknown #
coedge $-1 $257 $160 $259 $383 forward $155 $-1 #
coedge $-1 $160 $257 $388 $393 forward $155 $-1 #
vertex $-1 $260 $394 #
vertex $-1 $263 $395 #
straight-curve $-1 62.848597674489575 0 7.8463174034489391 0 -1 0 I I #
face $-1 $-1 $396 $36 $-1 $397 reversed single #
loop $-1 $-1 $168 $162 #
plane-surface $-1 0 0 17.009836872390732 0 0 1 1 0 0 forward_v I I I I #
coedge $-1 $398 $399 $400 $401 reversed $163 $-1 #
coedge $-1 $402 $165 $167 $279 forward $101 $-1 #
coedge $-1 $165 $402 $398 $403 forward $101 $-1 #
coedge $-1 $400 $168 $165 $276 forward $270 $-1 #
edge $-1 $282 -16.587137791697288 $404 3.2991638561417247 $275 $405 forward 7 unknown #
coedge $-1 $406 $407 $166 $278 forward $396 $-1 #
edge $-1 $408 -69.017576546542102 $281 -60.768858096715491 $277 $409 forward 7 unknown #
edge $-1 $282 66.583453529427629 $408 79.156587935043802 $167 $410 forward 7 unknown #
coedge $-1 $168 $400 $406 $411 forward $270 $-1 #
vertex $-1 $169 $412 #
vertex $-1 $169 $413 #
straight-curve $-1 -23.231124759475069 31.151420097247094 17.009836872390736 0 -1 0 I I #
coedge $-1 $284 $284 $-1 $414 reversed $172 $-1 #
edge $-1 $415 0 $415 6.2831853071796004 $173 $416 forward 7 unknown #
vertex $-1 $176 $417 #
ellipse-curve $-1 -19.253864429907267 34.833761516447836 12.885477647477428 0 0.6560590369687036 0.75470957328743171 1.5 0 0 1 I I #
coedge $-1 $288 $288 $-1 $418 reversed $179 $-1 #
edge $-1 $419 0 $419 6.2831853071796004 $180 $420 forward 7 unknown #
vertex $-1 $183 $421 #
ellipse-curve $-1 -13.287973935555563 34.833761516447836 12.885477647477428 0 0.6560590369687036 0.75470957328743171 1.5 0 0 1 I I #
coedge $-1 $292 $292 $-1 $422 reversed $186 $-1 #
edge $-1 $423 0 $423 6.2831853071796004 $187 $424 forward 7 unknown #
vertex $-1 $190 $425 #
ellipse-curve $-1 -7.3220834412038585 34.833761516447836 12.885477647477428 0 0.6560590369687036 0.75470957328743171 1.5 0 0 1 I I #
face $-1 $-1 $308 $40 $-1 $426 forward single #
loop $-1 $-1 $427 $191 #
plane-surface $-1 0 -39.578293967521894 0 0 1 0 0 0 1 forward_v I I I I #
coedge $-1 $428 $429 $430 $431 reversed $192 $-1 #
coedge $-1 $432 $194 $196 $306 forward $120 $-1 #
coedge $-1 $194 $432 $428 $433 forward $120 $-1 #
coedge $-1 $430 $197 $194 $303 forward $308 $-1 #
edge $-1 $310 10.476642016067576 $434 25.542084163980817 $302 $435 forward 7 unknown #
coedge $-1 $436 $437 $195 $305 forward $297 $-1 #
edge $-1 $438 -38.766101536255036 $309 -33.105399767497218 $304 $439 forward 7 unknown #
edge $-1 $310 -8.0054411210431287 $438 1.0048591735576163e-014 $196 $440 forward 7 unknown #
coedge $-1 $197 $430 $436 $441 forward $308 $-1 #
loop $-1 $-1 $430 $296 #
vertex $-1 $305 $442 #
vertex $-1 $198 $443 #
straight-curve $-1 -28.486005106091771 -64.229817103082766 17.009836872390729 0 1 0 I I #
coedge $-1 $312 $312 $-1 $444 reversed $201 $-1 #
edge $-1 $445 0 $445 6.2831853071796004 $202 $446 forward 7 unknown #
vertex $-1 $205 $447 #
ellipse-curve $-1 -40.53835882442236 -36.747943148821562 14.179485988011823 0 -0.70710678939079041 0.70710677298230451 1.5 0 0 1 I I #
coedge $-1 $316 $316 $-1 $448 reversed $208 $-1 #
edge $-1 $449 0 $449 6.2831853071796004 $209 $450 forward 7 unknown #
vertex $-1 $212 $451 #
ellipse-curve $-1 -36.01872618004839 -36.747943148821562 14.179485988011823 0 -0.70710678939079041 0.70710677298230451 1.5 0 0 1 I I #
coedge $-1 $320 $320 $-1 $452 reversed $215 $-1 #
edge $-1 $453 0 $453 6.2831853071796004 $216 $454 forward 7 unknown #
vertex $-1 $219 $455 #
ellipse-curve $-1 -31.499093535674422 -36.747943148821562 14.179485988011823 0 -0.70710678939079041 0.70710677298230451 1.5 0 0 1 I I #
face $-1 $-1 $336 $33 $-1 $456 reversed single #
loop $-1 $-1 $457 $220 #
plane-surface $-1 0 39.578293967521894 0 0 -1 0 0 0 -1 forward_v I I I I #
coedge $-1 $335 $334 $223 $328 reversed $336 $-1 #
edge $-1 $458 -39.578293967521894 $459 39.578293967521894 $327 $460 forward 7 unknown #
coedge $-1 $225 $224 $228 $340 forward $89 $-1 #
coedge $-1 $457 $231 $224 $331 reversed $325 $-1 #
edge $-1 $338 -62.848597674489575 $345 62.848597674489575 $330 $461 forward 7 unknown #
coedge $-1 $229 $462 $225 $333 reversed $221 $-1 #
edge $-1 $342 -62.848597674489575 $337 62.848597674489575 $332 $463 forward 7 unknown #
coedge $-1 $327 $226 $462 $464 forward $336 $-1 #
coedge $-1 $226 $327 $457 $465 reversed $336 $-1 #
loop $-1 $-1 $334 $324 #
vertex $-1 $227 $466 #
vertex $-1 $227 $467 #
straight-curve $-1 62.848597674489575 0 17.009836872390732 0 1 0 I I #
edge $-1 $345 -39.578293967521894 $342 39.578293967521894 $228 $468 forward 7 unknown #
coedge $-1 $462 $229 $234 $348 reversed $221 $-1 #
vertex $-1 $340 $469 #
straight-curve $-1 -62.848597674489575 -39.578293967521894 0 0 0 -1 I I #
coedge $-1 $231 $457 $233 $347 reversed $325 $-1 #
vertex $-1 $331 $470 #
straight-curve $-1 -62.848597674489575 39.578293967521894 0 0 0 -1 I I #
edge $-1 $236 -62.848597674489575 $458 62.848597674489575 $344 $471 forward 7 unknown #
edge $-1 $459 -62.848597674489575 $235 62.848597674489575 $341 $472 forward 7 unknown #
point $-1 -62.848597674489575 -39.578293967521894 -17.009836872390732 #
point $-1 -62.848597674489575 39.578293967521894 -17.009836872390732 #
face $-1 $-1 $367 $34 $-1 $473 forward single #
plane-surface $-1 -72.497172884731853 -7.7016569558821359 0 0 -1 0 0 0 -1 forward_v I I I I #
coedge $-1 $474 $475 $370 $476 forward $239 $-1 #
coedge $-1 $363 $241 $242 $359 reversed $147 $-1 #
coedge $-1 $241 $363 $366 $477 reversed $147 $-1 #
coedge $-1 $475 $474 $241 $357 reversed $239 $-1 #
edge $-1 $478 -17.009836872390732 $479 17.009836872390732 $356 $480 forward 7 unknown #
coedge $-1 $243 $242 $474 $481 forward $93 $-1 #
edge $-1 $361 -9.648575210242285 $479 9.648575210242285 $354 $482 forward 7 unknown #
edge $-1 $483 -9.648575210242285 $251 9.648575210242285 $248 $484 forward 7 unknown #
vertex $-1 $359 $485 #
straight-curve $-1 -62.848597674489575 0 -17.009836872390732 0 -1 0 I I #
coedge $-1 $355 $354 $245 $364 reversed $147 $-1 #
edge $-1 $368 -17.009836872390732 $361 17.009836872390732 $363 $486 forward 7 unknown #
coedge $-1 $487 $246 $249 $371 forward $367 $-1 #
coedge $-1 $246 $487 $355 $477 forward $367 $-1 #
loop $-1 $-1 $246 $351 #
vertex $-1 $247 $488 #
straight-curve $-1 -62.848597674489575 0 17.009836872390732 0 1 0 I I #
coedge $-1 $249 $248 $353 $476 reversed $250 $-1 #
edge $-1 $252 -9.648575210242285 $489 9.648575210242285 $249 $490 forward 7 unknown #
point $-1 -62.848597674489568 -7.7016569558821359 -17.009836872390732 #
point $-1 -62.848597674489568 -7.7016569558821359 17.009836872390732 #
face $-1 $-1 $390 $35 $-1 $491 reversed single #
loop $-1 $-1 $386 $254 #
plane-surface $-1 0 0 17.009836872390732 0 0 1 1 0 0 forward_v I I I I #
coedge $-1 $378 $492 $493 $494 forward $255 $-1 #
coedge $-1 $495 $377 $257 $379 reversed $255 $-1 #
edge $-1 $496 -39.578293967521894 $497 39.578293967521894 $378 $498 forward 7 unknown #
coedge $-1 $259 $258 $495 $499 forward $97 $-1 #
coedge $-1 $386 $500 $258 $382 forward $375 $-1 #
edge $-1 $501 -85.296100493041621 $384 -62.848597674489575 $258 $502 forward 7 unknown #
edge $-1 $266 -11.223751409276026 $496 11.223751409276019 $259 $503 forward 7 unknown #
vertex $-1 $260 $504 #
straight-curve $-1 62.848597674489575 39.578293967521894 0 0 0 1 I I #
coedge $-1 $505 $381 $261 $387 forward $375 $-1 #
edge $-1 $384 -39.578293967521894 $391 39.578293967521894 $386 $506 forward 7 unknown #
coedge $-1 $493 $262 $265 $393 reversed $390 $-1 #
coedge $-1 $262 $493 $505 $507 reversed $390 $-1 #
loop $-1 $-1 $262 $374 #
vertex $-1 $507 $508 #
straight-curve $-1 62.848597674489575 -39.578293967521894 0 0 0 -1 I I #
edge $-1 $497 -11.223751409276019 $267 11.223751409276026 $388 $509 forward 7 unknown #
point $-1 62.848597674489575 39.578293967521894 7.8463174034489391 #
point $-1 62.848597674489575 -39.578293967521894 7.8463174034489391 #
loop $-1 $-1 $277 $269 #
plane-surface $-1 0 39.578293967521894 0 0 -1 0 0 0 -1 forward_v I I I I #
coedge $-1 $399 $272 $274 $403 reversed $163 $-1 #
coedge $-1 $272 $398 $510 $511 reversed $163 $-1 #
coedge $-1 $280 $275 $272 $401 forward $270 $-1 #
edge $-1 $404 -1.0621910318733079 $512 8.4268738702748003 $400 $513 forward 7 unknown #
coedge $-1 $274 $273 $407 $514 reversed $101 $-1 #
edge $-1 $515 -79.156587935043802 $404 -66.583453529427629 $398 $516 forward 7 unknown #
vertex $-1 $276 $517 #
straight-curve $-1 -6.6439869677777814 30.089229065373782 17.009836872390739 1 0 0 I I #
coedge $-1 $510 $277 $280 $411 reversed $396 $-1 #
coedge $-1 $277 $510 $402 $514 forward $396 $-1 #
vertex $-1 $278 $518 #
straight-curve $-1 -23.231124759475069 39.578293967521894 77.778694969106226 0 0 1 I I #
straight-curve $-1 -23.231124759475069 -20.161940735824082 60.692513272957456 0 0.75470957328743171 -0.6560590369687036 I I #
edge $-1 $512 3.3448231116360567 $281 23.231124759475069 $406 $519 forward 7 unknown #
point $-1 -23.231124759475069 39.578293967521894 17.009836872390732 #
point $-1 -23.231124759475069 30.089229065373786 17.009836872390736 #
edge $-1 $520 1 $520 0 $284 $-1 forward 7 unknown #
vertex $-1 $285 $521 #
ellipse-curve $-1 -19.253864429907267 32.318174447344674 9.9916258193517908 0 0.6560590369687036 0.75470957328743171 1.5 0 0 1 I I #
point $-1 -17.753864429907267 34.833761516447836 12.885477647477432 #
edge $-1 $522 1 $522 0 $288 $-1 forward 7 unknown #
vertex $-1 $289 $523 #
ellipse-curve $-1 -13.287973935555563 32.318174447344674 9.9916258193517908 0 0.6560590369687036 0.75470957328743171 1.5 0 0 1 I I #
point $-1 -11.787973935555563 34.833761516447836 12.885477647477432 #
edge $-1 $524 1 $524 0 $292 $-1 forward 7 unknown #
vertex $-1 $293 $525 #
ellipse-curve $-1 -7.3220834412038585 32.318174447344674 9.9916258193517908 0 0.6560590369687036 0.75470957328743171 1.5 0 0 1 I I #
point $-1 -5.8220834412038585 34.833761516447836 12.885477647477432 #
plane-surface $-1 0 0 17.009836872390732 0 0 1 1 0 0 forward_v I I I I #
coedge $-1 $437 $436 $429 $526 forward $297 $-1 #
coedge $-1 $429 $299 $301 $433 reversed $192 $-1 #
coedge $-1 $299 $428 $427 $526 reversed $192 $-1 #
coedge $-1 $307 $302 $299 $431 forward $308 $-1 #
edge $-1 $434 -30.312224772961528 $527 -24.651523135560872 $430 $528 forward 7 unknown #
coedge $-1 $301 $300 $437 $529 reversed $120 $-1 #
edge $-1 $530 -1.0048591735576163e-014 $434 8.0054411210431287 $428 $531 forward 7 unknown #
vertex $-1 $303 $532 #
straight-curve $-1 -18.009363090024195 -33.917592330121238 17.009836872390732 -1 0 0 I I #
coedge $-1 $427 $304 $307 $441 reversed $297 $-1 #
coedge $-1 $304 $427 $432 $529 forward $297 $-1 #
vertex $-1 $305 $533 #
straight-curve $-1 -28.486005106091771 -39.578293967521894 50.115236639887947 0 0 1 I I #
straight-curve $-1 -28.486005106091771 -39.578293967521887 11.349135103632918 0 -0.70710677298230451 -0.70710678939079041 I I #
edge $-1 $527 -117.62379633777061 $309 -102.55835418985737 $436 $534 forward 7 unknown #
point $-1 -28.486005106091767 -39.578293967521894 17.009836872390732 #
point $-1 -28.486005106091771 -33.917592330121238 17.009836872390732 #
edge $-1 $535 1 $535 0 $312 $-1 forward 7 unknown #
vertex $-1 $313 $536 #
ellipse-curve $-1 -40.53835882442236 -33.533107282165979 10.964650195956828 0 -0.70710678939079041 0.70710677298230451 1.5 0 0 1 I I #
point $-1 -39.03835882442236 -36.747943148821562 14.179485988011818 #
edge $-1 $537 1 $537 0 $316 $-1 forward 7 unknown #
vertex $-1 $317 $538 #
ellipse-curve $-1 -36.01872618004839 -33.533107282165979 10.964650195956828 0 -0.70710678939079041 0.70710677298230451 1.5 0 0 1 I I #
point $-1 -34.51872618004839 -36.747943148821562 14.179485988011818 #
edge $-1 $539 1 $539 0 $320 $-1 forward 7 unknown #
vertex $-1 $321 $540 #
ellipse-curve $-1 -31.499093535674422 -33.533107282165979 10.964650195956828 0 -0.70710678939079041 0.70710677298230451 1.5 0 0 1 I I #
point $-1 -29.999093535674422 -36.747943148821562 14.179485988011818 #
plane-surface $-1 62.848597674489575 0 0 -1 0 0 0 0 1 forward_v I I I I #
coedge $-1 $344 $330 $335 $465 forward $325 $-1 #
vertex $-1 $328 $541 #
vertex $-1 $464 $542 #
straight-curve $-1 62.848597674489575 0 -17.009836872390732 0 -1 0 I I #
straight-curve $-1 0 39.578293967521894 17.009836872390732 -1 0 0 I I #
coedge $-1 $332 $341 $334 $464 reversed $221 $-1 #
straight-curve $-1 0 -39.578293967521894 17.009836872390732 1 0 0 I I #
edge $-1 $337 -17.009836872390732 $459 17.009836872390732 $334 $543 forward 7 unknown #
edge $-1 $338 -17.009836872390732 $458 17.009836872390732 $335 $544 forward 7 unknown #
point $-1 62.848597674489575 -39.578293967521894 17.009836872390732 #
point $-1 62.848597674489575 39.578293967521894 17.009836872390732 #
straight-curve $-1 -62.848597674489575 0 17.009836872390732 0 -1 0 I I #
point $-1 -62.848597674489575 -39.578293967521894 17.009836872390732 #
point $-1 -62.848597674489575 39.578293967521894 17.009836872390732 #
straight-curve $-1 0 39.578293967521894 -17.009836872390732 1 0 0 I I #
straight-curve $-1 0 -39.578293967521894 -17.009836872390732 -1 0 0 I I #
plane-surface $-1 0 0 17.009836872390732 0 0 1 1 0 0 forward_v I I I I #
coedge $-1 $356 $353 $358 $481 reversed $239 $-1 #
coedge $-1 $353 $356 $487 $545 reversed $239 $-1 #
edge $-1 $489 -17.009836872390732 $483 17.009836872390732 $370 $546 forward 7 unknown #
edge $-1 $478 -9.648575210242285 $368 9.648575210242285 $355 $547 forward 7 unknown #
vertex $-1 $545 $548 #
vertex $-1 $481 $549 #
straight-curve $-1 -82.145748094974138 -13.576687560441442 0 0 0 -1 I I #
edge $-1 $479 -2.9375153022796532 $483 2.9375153022796532 $474 $550 forward 7 unknown #
straight-curve $-1 -72.497172884731853 -13.576687560441442 -17.009836872390732 -1 0 0 I I #
vertex $-1 $360 $551 #
straight-curve $-1 -72.497172884731853 -7.7016569558821359 -17.009836872390732 1 0 0 I I #
point $-1 -62.848597674489568 -13.576687560441442 -17.009836872390732 #
straight-curve $-1 -62.848597674489575 -13.576687560441442 0 0 0 -1 I I #
coedge $-1 $366 $365 $475 $545 forward $367 $-1 #
point $-1 -62.848597674489568 -13.576687560441442 17.009836872390732 #
vertex $-1 $371 $552 #
straight-curve $-1 -72.497172884731853 -7.7016569558821359 17.009836872390732 -1 0 0 I I #
plane-surface $-1 0 -39.578293967521894 0 0 1 0 0 0 1 forward_v I I I I #
coedge $-1 $377 $495 $500 $553 reversed $255 $-1 #
coedge $-1 $389 $388 $377 $494 reversed $390 $-1 #
edge $-1 $554 -4.5817597344708965 $497 4.5817597344708965 $377 $555 forward 7 unknown #
coedge $-1 $492 $378 $380 $499 reversed $255 $-1 #
vertex $-1 $379 $556 #
vertex $-1 $494 $557 #
straight-curve $-1 85.296100493041621 0 7.8463174034489391 0 -1 0 I I #
edge $-1 $501 -4.5817597344708965 $496 4.5817597344708965 $495 $558 forward 7 unknown #
coedge $-1 $381 $505 $492 $553 forward $375 $-1 #
vertex $-1 $553 $559 #
straight-curve $-1 0 39.578293967521894 17.009836872390732 -1 0 0 I I #
straight-curve $-1 74.072349083765602 39.578293967521894 7.8463174034489391 1 0 0 I I #
point $-1 62.848597674489575 39.578293967521894 17.009836872390732 #
coedge $-1 $500 $386 $389 $507 forward $375 $-1 #
straight-curve $-1 62.848597674489575 0 17.009836872390732 0 -1 0 I I #
edge $-1 $391 -11.223751409276026 $554 11.223751409276019 $389 $560 forward 7 unknown #
point $-1 62.848597674489575 -39.578293967521894 17.009836872390732 #
straight-curve $-1 74.072349083765602 -39.578293967521894 7.8463174034489391 -1 0 0 I I #
coedge $-1 $407 $406 $399 $511 forward $396 $-1 #
edge $-1 $512 60.768858096715491 $515 69.017576546542102 $510 $561 forward 7 unknown #
vertex $-1 $411 $562 #
straight-curve $-1 -3.3448231116360567 31.151420097247094 17.009836872390736 0 1 0 I I #
edge $-1 $515 -3.2991638561417247 $408 16.587137791697288 $407 $563 forward 7 unknown #
vertex $-1 $514 $564 #
straight-curve $-1 -3.3448231116360567 -20.161940735824082 60.692513272957456 0 -0.75470957328743171 0.6560590369687036 I I #
point $-1 -3.3448231116360567 30.089229065373786 17.009836872390736 #
point $-1 -23.231124759475069 39.578293967521894 8.7611184225641168 #
straight-curve $-1 0 39.578293967521894 17.009836872390732 -1 0 0 I I #
vertex $-1 $414 $565 #
point $-1 -17.753864429907267 32.318174447344674 9.9916258193517908 #
vertex $-1 $418 $566 #
point $-1 -11.787973935555563 32.318174447344674 9.9916258193517908 #
vertex $-1 $422 $567 #
point $-1 -5.8220834412038585 32.318174447344674 9.9916258193517908 #
edge $-1 $527 33.105399767497218 $530 38.766101536255036 $427 $568 forward 7 unknown #
vertex $-1 $441 $569 #
straight-curve $-1 -43.551447254005012 -64.229817103082766 17.009836872390729 0 -1 0 I I #
edge $-1 $530 -25.542084163980817 $438 -10.476642016067576 $437 $570 forward 7 unknown #
vertex $-1 $529 $571 #
straight-curve $-1 -43.551447254005012 -39.578293967521887 11.349135103632918 0 0.70710677298230451 0.70710678939079041 I I #
point $-1 -43.551447254005012 -33.917592330121238 17.009836872390732 #
point $-1 -28.486005106091771 -39.578293967521894 11.349135103632911 #
straight-curve $-1 74.072349083765602 -39.578293967521894 17.009836872390732 1 0 0 I I #
vertex $-1 $444 $572 #
point $-1 -39.03835882442236 -33.533107282165979 10.964650195956828 #
vertex $-1 $448 $573 #
point $-1 -34.51872618004839 -33.533107282165979 10.964650195956828 #
vertex $-1 $452 $574 #
point $-1 -29.999093535674422 -33.533107282165979 10.964650195956828 #
point $-1 62.848597674489575 39.578293967521894 -17.009836872390732 #
point $-1 62.848597674489575 -39.578293967521894 -17.009836872390732 #
straight-curve $-1 62.848597674489575 -39.578293967521894 0 0 0 -1 I I #
straight-curve $-1 62.848597674489575 39.578293967521894 0 0 0 -1 I I #
edge $-1 $489 -2.9375153022796532 $478 2.9375153022796532 $475 $575 forward 7 unknown #
straight-curve $-1 -82.145748094974138 -7.7016569558821359 0 0 0 -1 I I #
straight-curve $-1 -72.497172884731853 -13.576687560441442 17.009836872390732 1 0 0 I I #
point $-1 -82.145748094974138 -13.576687560441442 17.009836872390732 #
point $-1 -82.145748094974138 -13.576687560441442 -17.009836872390732 #
straight-curve $-1 -82.145748094974138 -10.639172258161789 -17.009836872390732 0 1 0 I I #
point $-1 -82.145748094974138 -7.7016569558821359 -17.009836872390732 #
point $-1 -82.145748094974138 -7.7016569558821359 17.009836872390732 #
edge $-1 $554 -39.578293967521894 $501 39.578293967521894 $492 $576 forward 7 unknown #
vertex $-1 $553 $577 #
straight-curve $-1 85.296100493041621 -39.578293967521894 12.428077137919836 0 0 -1 I I #
point $-1 85.296100493041621 39.578293967521894 7.8463174034489391 #
point $-1 85.296100493041621 -39.578293967521894 7.8463174034489391 #
straight-curve $-1 85.296100493041621 39.578293967521894 12.428077137919836 0 0 -1 I I #
point $-1 85.296100493041621 39.578293967521894 17.009836872390732 #
straight-curve $-1 74.072349083765602 -39.578293967521894 17.009836872390732 1 0 0 I I #
straight-curve $-1 -3.3448231116360567 39.578293967521894 77.778694969106226 0 0 -1 I I #
point $-1 -3.3448231116360567 39.578293967521894 17.009836872390732 #
straight-curve $-1 -6.6439869677777814 39.578293967521894 8.7611184225641168 -1 0 0 I I #
point $-1 -3.3448231116360567 39.578293967521894 8.7611184225641168 #
point $-1 -19.253864429907267 31.334085891891618 8.8595614594206449 #
point $-1 -13.287973935555563 31.334085891891618 8.8595614594206449 #
point $-1 -7.3220834412038585 31.334085891891618 8.8595614594206449 #
straight-curve $-1 -43.551447254005012 -39.578293967521894 50.115236639887947 0 0 -1 I I #
point $-1 -43.551447254005012 -39.578293967521894 17.009836872390732 #
straight-curve $-1 -18.009363090024195 -39.578293967521894 11.349135103632905 1 0 0 I I #
point $-1 -43.551447254005012 -39.578293967521894 11.349135103632911 #
point $-1 -40.53835882442236 -32.47244709807979 9.9039900364833713 #
point $-1 -36.01872618004839 -32.47244709807979 9.9039900364833713 #
point $-1 -31.499093535674422 -32.47244709807979 9.9039900364833713 #
straight-curve $-1 -82.145748094974138 -10.639172258161789 17.009836872390732 0 -1 0 I I #
straight-curve $-1 85.296100493041621 0 17.009836872390732 0 1 0 I I #
point $-1 85.296100493041621 -39.578293967521894 17.009836872390732 #
End-of-ACIS-data 