500 0 8 0           
7 Unknown 11 ACIS 5.0 NT 24 Fri Mar 26 01:17:16 1999 
-1 9.9999999999999995e-007 1e-010 
body $-1 $8 $-1 $9 #
body $-1 $10 $-1 $11 #
body $-1 $12 $-1 $13 #
body $-1 $14 $-1 $15 #
body $-1 $16 $-1 $17 #
body $-1 $18 $-1 $19 #
body $-1 $20 $-1 $21 #
body $-1 $22 $-1 $23 #
lump $-1 $-1 $24 $0 #
transform $-1 1 0 0 0 1 0 0 0 1 58.950773644215218 35.498019649384283 10.166341624004394 1 rotate no_reflect no_shear #
lump $-1 $-1 $25 $1 #
transform $-1 1 0 0 0 1 0 0 0 1 58.950773644215218 35.498019649384283 10.166341624004394 1 rotate no_reflect no_shear #
lump $-1 $-1 $26 $2 #
transform $-1 1 0 0 0 1 0 0 0 1 58.950773644215218 35.498019649384283 10.166341624004394 1 rotate no_reflect no_shear #
lump $-1 $-1 $27 $3 #
transform $-1 1 0 0 0 1 0 0 0 1 58.950773644215218 35.498019649384283 10.166341624004394 1 rotate no_reflect no_shear #
lump $-1 $-1 $28 $4 #
transform $-1 1 0 0 0 1 0 0 0 1 58.950773644215218 35.498019649384283 10.166341624004394 1 rotate no_reflect no_shear #
lump $-1 $-1 $29 $5 #
transform $-1 1 0 0 0 1 0 0 0 1 58.950773644215218 35.498019649384283 10.166341624004394 1 rotate no_reflect no_shear #
lump $-1 $-1 $30 $6 #
transform $-1 1 0 0 0 1 0 0 0 1 58.950773644215218 35.498019649384283 10.166341624004394 1 rotate no_reflect no_shear #
lump $-1 $-1 $31 $7 #
transform $-1 1 0 0 0 1 0 0 0 1 58.950773644215218 35.498019649384283 10.166341624004394 1 rotate no_reflect no_shear #
shell $-1 $-1 $-1 $32 $-1 $8 #
shell $-1 $-1 $-1 $33 $-1 $10 #
shell $-1 $-1 $-1 $34 $-1 $12 #
shell $-1 $-1 $-1 $35 $-1 $14 #
shell $-1 $-1 $-1 $36 $-1 $16 #
shell $-1 $-1 $-1 $37 $-1 $18 #
shell $-1 $-1 $-1 $38 $-1 $20 #
shell $-1 $-1 $-1 $39 $-1 $22 #
face $-1 $40 $41 $24 $-1 $42 reversed single #
face $-1 $43 $44 $25 $-1 $45 forward single #
face $-1 $46 $47 $26 $-1 $48 reversed single #
face $-1 $49 $50 $27 $-1 $51 forward single #
face $-1 $52 $53 $28 $-1 $54 forward single #
face $-1 $55 $56 $29 $-1 $57 reversed single #
face $-1 $58 $59 $30 $-1 $60 forward single #
face $-1 $61 $62 $31 $-1 $63 forward single #
face $-1 $64 $65 $24 $-1 $66 forward single #
loop $-1 $-1 $67 $32 #
plane-surface $-1 0 -35.498019649384283 0 0 1 0 0 0 1 forward_v I I I I #
face $-1 $68 $69 $25 $-1 $70 reversed single #
loop $-1 $-1 $71 $33 #
plane-surface $-1 0 -35.498019649384283 0 0 1 0 0 0 1 forward_v I I I I #
face $-1 $72 $73 $26 $-1 $74 reversed single #
loop $-1 $-1 $75 $34 #
plane-surface $-1 -154.33513002853613 -20.333493725852264 69.539616413279106 0 1 0 -0.80901700255871778 0 0.5877852410284794 forward_v I I I I #
face $-1 $76 $77 $27 $-1 $78 forward single #
loop $-1 $79 $80 $35 #
cone-surface $-1 -53.778244987488428 -17.487233729126313 4.0647112406397703 0.80901700255871778 0 -0.5877852410284794 0.5877852410284794 0 0.80901700255871778 1 I I 0 1 1 forward I I I I #
face $-1 $81 $82 $28 $-1 $83 forward single #
loop $-1 $84 $85 $36 #
cone-surface $-1 -53.778244987488428 -13.21784373403738 4.0647112406397703 0.80901700255871778 0 -0.5877852410284794 0.5877852410284794 0 0.80901700255871778 1 I I 0 1 1 forward I I I I #
face $-1 $86 $87 $29 $-1 $88 reversed single #
loop $-1 $-1 $89 $37 #
plane-surface $-1 15.795813436935035 -6.1342584272193577 167.07879927453607 0 -1 0 -0.50000000669873634 0 -0.8660253999169214 forward_v I I I I #
face $-1 $90 $91 $30 $-1 $92 forward single #
loop $-1 $93 $94 $38 #
cone-surface $-1 54.722389265998899 -18.099254516795249 6.986616380512416 -0.50000000669873634 0 -0.8660253999169214 1.7320507998338428 0 -1.0000000133974727 1 I I 0 1 2 forward I I I I #
face $-1 $95 $96 $31 $-1 $97 forward single #
loop $-1 $98 $99 $39 #
cone-surface $-1 54.722389265998899 -10.920256863049715 6.986616380512416 -0.50000000669873634 0 -0.8660253999169214 1.7320507998338428 0 -1.0000000133974727 1 I I 0 1 2 forward I I I I #
face $-1 $100 $101 $24 $-1 $102 reversed single #
loop $-1 $-1 $103 $40 #
plane-surface $-1 0 0 10.166341624004394 0 0 1 1 0 0 forward_v I I I I #
coedge $-1 $104 $105 $106 $107 reversed $41 $-1 #
face $-1 $108 $109 $25 $-1 $110 reversed single #
loop $-1 $-1 $111 $43 #
plane-surface $-1 0 0 -10.166341624004394 0 0 1 1 0 0 forward_v I I I I #
coedge $-1 $112 $113 $114 $115 forward $44 $-1 #
face $-1 $116 $117 $26 $-1 $118 reversed single #
loop $-1 $-1 $119 $46 #
plane-surface $-1 -58.950773644215218 -15.352538731581845 0.23882702271835399 -0.80901700255871778 0 0.5877852410284794 0.5877852410284794 0 0.80901700255871778 forward_v I I I I #
coedge $-1 $120 $121 $122 $123 reversed $47 $-1 #
face $-1 $-1 $124 $27 $-1 $125 forward single #
loop $-1 $126 $127 $49 #
cone-surface $-1 -51.807588501504767 -17.487233729126313 2.6329455374039199 0.80901700255871778 0 -0.5877852410284794 0.2938926205142397 0 0.40450850127935889 1 I I -0.70710678118654746 0.70710678118654746 0.5 forward I I I I #
loop $-1 $-1 $128 $35 #
coedge $-1 $80 $80 $129 $130 reversed $50 $-1 #
face $-1 $-1 $131 $28 $-1 $132 forward single #
loop $-1 $133 $134 $52 #
cone-surface $-1 -51.807588501504767 -13.21784373403738 2.6329455374039199 0.80901700255871778 0 -0.5877852410284794 0.2938926205142397 0 0.40450850127935889 1 I I -0.70710678118654746 0.70710678118654746 0.5 forward I I I I #
loop $-1 $-1 $135 $36 #
coedge $-1 $85 $85 $136 $137 reversed $53 $-1 #
face $-1 $138 $139 $29 $-1 $140 reversed single #
loop $-1 $-1 $141 $55 #
plane-surface $-1 -43.154960997071562 -14.509755689922482 64.97306463324928 0.50000000669873634 0 0.8660253999169214 0.8660253999169214 0 -0.50000000669873634 forward_v I I I I #
coedge $-1 $142 $143 $144 $145 reversed $56 $-1 #
face $-1 $-1 $146 $30 $-1 $147 forward single #
loop $-1 $148 $149 $58 #
cone-surface $-1 53.582858625407809 -18.099254516795249 5.012891449484373 -0.50000000669873634 0 -0.8660253999169214 0.8660253999169214 0 -0.50000000669873634 1 I I -0.70710678118654746 0.70710678118654746 1 forward I I I I #
loop $-1 $-1 $150 $38 #
coedge $-1 $94 $94 $151 $152 reversed $59 $-1 #
face $-1 $-1 $153 $31 $-1 $154 forward single #
loop $-1 $155 $156 $61 #
cone-surface $-1 53.582858625407809 -10.920256863049715 5.012891449484373 -0.50000000669873634 0 -0.8660253999169214 0.8660253999169214 0 -0.50000000669873634 1 I I -0.70710678118654746 0.70710678118654746 1 forward I I I I #
loop $-1 $-1 $157 $39 #
coedge $-1 $99 $99 $158 $159 reversed $62 $-1 #
face $-1 $160 $161 $24 $-1 $162 reversed single #
loop $-1 $-1 $163 $64 #
plane-surface $-1 0 0 -10.166341624004394 0 0 1 1 0 0 forward_v I I I I #
coedge $-1 $164 $165 $166 $167 forward $65 $-1 #
coedge $-1 $168 $67 $169 $170 reversed $41 $-1 #
coedge $-1 $67 $168 $171 $172 forward $41 $-1 #
coedge $-1 $173 $163 $67 $107 forward $101 $-1 #
edge $-1 $174 -58.950773644215218 $175 58.950773644215218 $67 $176 forward 7 unknown #
face $-1 $177 $178 $25 $-1 $179 reversed single #
loop $-1 $-1 $180 $68 #
plane-surface $-1 -40.654368258461233 -48.110786346142966 0 0 1 0 0 0 1 forward_v I I I I #
coedge $-1 $181 $182 $113 $183 forward $69 $-1 #
coedge $-1 $184 $71 $185 $186 reversed $44 $-1 #
coedge $-1 $71 $184 $111 $183 reversed $44 $-1 #
coedge $-1 $187 $188 $71 $115 reversed $178 $-1 #
edge $-1 $189 -10.166341624004394 $190 10.166341624004394 $114 $191 forward 7 unknown #
face $-1 $192 $193 $26 $-1 $194 reversed single #
loop $-1 $-1 $195 $72 #
plane-surface $-1 -154.33513002853613 -10.371583737311424 69.539616413279106 0 -1 0 0.80901700255871778 0 -0.5877852410284794 forward_v I I I I #
coedge $-1 $196 $197 $198 $199 reversed $73 $-1 #
coedge $-1 $121 $75 $200 $201 reversed $47 $-1 #
coedge $-1 $75 $120 $196 $202 reversed $47 $-1 #
coedge $-1 $198 $203 $75 $123 forward $204 $-1 #
edge $-1 $205 18.216791370052846 $206 25.429552714097831 $122 $207 forward 7 unknown #
loop $-1 $-1 $129 $76 #
plane-surface $-1 -58.950773644215218 -15.352538731581845 0.23882702271835399 -0.80901700255871778 0 0.5877852410284794 0.5877852410284794 0 0.80901700255871778 forward_v I I I I #
loop $-1 $-1 $208 $49 #
coedge $-1 $127 $127 $128 $209 reversed $77 $-1 #
coedge $-1 $128 $128 $127 $209 forward $79 $-1 #
coedge $-1 $129 $129 $80 $130 forward $124 $-1 #
edge $-1 $210 0 $210 6.2831853071796004 $129 $211 forward 7 unknown #
loop $-1 $-1 $136 $81 #
plane-surface $-1 -58.950773644215218 -15.352538731581845 0.23882702271835399 -0.80901700255871778 0 0.5877852410284794 0.5877852410284794 0 0.80901700255871778 forward_v I I I I #
loop $-1 $-1 $212 $52 #
coedge $-1 $134 $134 $135 $213 reversed $82 $-1 #
coedge $-1 $135 $135 $134 $213 forward $84 $-1 #
coedge $-1 $136 $136 $85 $137 forward $131 $-1 #
edge $-1 $214 0 $214 6.2831853071796004 $136 $215 forward 7 unknown #
face $-1 $216 $217 $29 $-1 $218 forward single #
loop $-1 $-1 $219 $86 #
plane-surface $-1 15.795813436935035 -22.885252952625606 167.07879927453607 0 1 0 0.50000000669873634 0 0.8660253999169214 forward_v I I I I #
coedge $-1 $220 $221 $222 $223 reversed $87 $-1 #
coedge $-1 $143 $89 $224 $225 reversed $56 $-1 #
coedge $-1 $89 $142 $220 $226 reversed $56 $-1 #
coedge $-1 $222 $227 $89 $145 forward $217 $-1 #
edge $-1 $228 -51.052866925747701 $229 -43.87515943709974 $144 $230 forward 7 unknown #
loop $-1 $-1 $151 $90 #
plane-surface $-1 -43.154960997071562 -14.509755689922482 64.97306463324928 0.50000000669873634 0 0.8660253999169214 0.8660253999169214 0 -0.50000000669873634 forward_v I I I I #
loop $-1 $-1 $231 $58 #
coedge $-1 $149 $149 $150 $232 reversed $91 $-1 #
coedge $-1 $150 $150 $149 $232 forward $93 $-1 #
coedge $-1 $151 $151 $94 $152 forward $146 $-1 #
edge $-1 $233 0 $233 6.2831853071796004 $151 $234 forward 7 unknown #
loop $-1 $-1 $158 $95 #
plane-surface $-1 -43.154960997071562 -14.509755689922482 64.97306463324928 0.50000000669873634 0 0.8660253999169214 0.8660253999169214 0 -0.50000000669873634 forward_v I I I I #
loop $-1 $-1 $235 $61 #
coedge $-1 $156 $156 $157 $236 reversed $96 $-1 #
coedge $-1 $157 $157 $156 $236 forward $98 $-1 #
coedge $-1 $158 $158 $99 $159 forward $153 $-1 #
edge $-1 $237 0 $237 6.2831853071796004 $158 $238 forward 7 unknown #
face $-1 $239 $240 $24 $-1 $241 reversed single #
loop $-1 $-1 $242 $100 #
plane-surface $-1 -58.950773644215218 0 0 1 0 0 0 0 -1 forward_v I I I I #
coedge $-1 $106 $243 $244 $245 forward $101 $-1 #
coedge $-1 $246 $103 $247 $248 forward $65 $-1 #
coedge $-1 $103 $246 $168 $249 forward $65 $-1 #
coedge $-1 $169 $250 $103 $167 reversed $251 $-1 #
edge $-1 $252 -35.498019649384283 $253 35.498019649384283 $166 $254 forward 7 unknown #
coedge $-1 $105 $104 $165 $249 reversed $41 $-1 #
coedge $-1 $244 $166 $104 $170 forward $251 $-1 #
edge $-1 $252 -10.166341624004394 $174 10.166341624004394 $169 $255 forward 7 unknown #
coedge $-1 $256 $257 $105 $172 reversed $161 $-1 #
edge $-1 $258 -10.166341624004394 $175 10.166341624004394 $171 $259 forward 7 unknown #
coedge $-1 $243 $106 $257 $260 forward $101 $-1 #
vertex $-1 $170 $261 #
vertex $-1 $260 $262 #
straight-curve $-1 0 -35.498019649384283 -10.166341624004394 -1 0 0 I I #
face $-1 $263 $264 $25 $-1 $265 reversed single #
loop $-1 $-1 $114 $108 #
plane-surface $-1 -42.690646120716039 -41.804402997763624 0 1 0 0 0 0 -1 forward_v I I I I #
coedge $-1 $266 $267 $268 $269 forward $109 $-1 #
coedge $-1 $270 $111 $271 $272 forward $69 $-1 #
coedge $-1 $111 $270 $187 $273 forward $69 $-1 #
edge $-1 $189 -42.690646120716039 $274 -38.618090396206426 $111 $275 forward 7 unknown #
coedge $-1 $113 $112 $276 $277 forward $44 $-1 #
coedge $-1 $278 $279 $112 $186 forward $280 $-1 #
edge $-1 $281 38.618090396206426 $190 42.690646120716039 $185 $282 forward 7 unknown #
coedge $-1 $268 $114 $182 $273 reversed $178 $-1 #
coedge $-1 $114 $268 $278 $283 reversed $178 $-1 #
vertex $-1 $183 $284 #
vertex $-1 $283 $285 #
straight-curve $-1 -42.690646120716039 -35.498019649384283 0 0 0 1 I I #
face $-1 $-1 $204 $26 $-1 $286 forward single #
loop $-1 $-1 $287 $116 #
plane-surface $-1 -58.950773644215218 0 0 1 0 0 0 0 -1 forward_v I I I I #
coedge $-1 $288 $289 $290 $291 reversed $117 $-1 #
coedge $-1 $292 $119 $121 $202 forward $73 $-1 #
coedge $-1 $119 $292 $288 $293 forward $73 $-1 #
coedge $-1 $290 $122 $119 $199 forward $204 $-1 #
edge $-1 $206 -12.657224360061342 $294 -2.6953143715205012 $198 $295 forward 7 unknown #
coedge $-1 $296 $297 $120 $201 forward $193 $-1 #
edge $-1 $298 -34.530981183921199 $205 -24.603466582635157 $200 $299 forward 7 unknown #
edge $-1 $206 -12.271082770680717 $298 0 $121 $300 forward 7 unknown #
coedge $-1 $122 $290 $296 $301 forward $204 $-1 #
loop $-1 $-1 $290 $192 #
vertex $-1 $201 $302 #
vertex $-1 $123 $303 #
straight-curve $-1 -77.167565014268064 -20.333493725852264 10.166341624004396 1 0 0 I I #
coedge $-1 $208 $208 $-1 $304 reversed $126 $-1 #
edge $-1 $305 0 $305 6.2831853071796004 $127 $306 forward 7 unknown #
vertex $-1 $130 $307 #
ellipse-curve $-1 -55.344392972192722 -17.487233729126313 5.2025843233613758 -0.80901700255871778 0 0.5877852410284794 0.5877852410284794 0 0.80901700255871778 1 I I #
coedge $-1 $212 $212 $-1 $308 reversed $133 $-1 #
edge $-1 $309 0 $309 6.2831853071796004 $134 $310 forward 7 unknown #
vertex $-1 $137 $311 #
ellipse-curve $-1 -55.344392972192722 -13.21784373403738 5.2025843233613758 -0.80901700255871778 0 0.5877852410284794 0.5877852410284794 0 0.80901700255871778 1 I I #
face $-1 $-1 $312 $29 $-1 $313 reversed single #
loop $-1 $-1 $144 $138 #
plane-surface $-1 0 0 10.166341624004394 0 0 1 1 0 0 forward_v I I I I #
coedge $-1 $314 $315 $316 $317 reversed $139 $-1 #
coedge $-1 $318 $141 $143 $226 forward $87 $-1 #
coedge $-1 $141 $318 $314 $319 forward $87 $-1 #
coedge $-1 $316 $144 $141 $223 forward $217 $-1 #
edge $-1 $229 -1.1206194177418833 $320 15.630375107664365 $222 $321 forward 7 unknown #
coedge $-1 $322 $323 $142 $225 forward $312 $-1 #
edge $-1 $324 -77.517109438025344 $228 -73.373058013263645 $224 $325 forward 7 unknown #
edge $-1 $229 109.61344454994665 $324 117.90154728843042 $143 $326 forward 7 unknown #
coedge $-1 $144 $316 $322 $327 forward $217 $-1 #
vertex $-1 $145 $328 #
vertex $-1 $145 $329 #
straight-curve $-1 7.8979067184675174 -6.1342584272193577 10.166341624004389 -1 0 0 I I #
coedge $-1 $231 $231 $-1 $330 reversed $148 $-1 #
edge $-1 $331 0 $331 6.2831853071796004 $149 $332 forward 7 unknown #
vertex $-1 $152 $333 #
ellipse-curve $-1 55.361919899891255 -18.099254516795249 8.0943159116235357 0.50000000669873634 0 0.8660253999169214 1.7320507998338428 0 -1.0000000133974727 1 I I #
coedge $-1 $235 $235 $-1 $334 reversed $155 $-1 #
edge $-1 $335 0 $335 6.2831853071796004 $156 $336 forward 7 unknown #
vertex $-1 $159 $337 #
ellipse-curve $-1 55.361919899891255 -10.920256863049715 8.0943159116235357 0.50000000669873634 0 0.8660253999169214 1.7320507998338428 0 -1.0000000133974727 1 I I #
face $-1 $-1 $251 $24 $-1 $338 reversed single #
loop $-1 $-1 $339 $160 #
plane-surface $-1 0 35.498019649384283 0 0 -1 0 0 0 -1 forward_v I I I I #
coedge $-1 $257 $256 $340 $341 forward $161 $-1 #
coedge $-1 $163 $173 $342 $343 forward $101 $-1 #
coedge $-1 $250 $169 $163 $245 reversed $251 $-1 #
edge $-1 $344 -35.498019649384283 $174 35.498019649384283 $244 $345 forward 7 unknown #
coedge $-1 $165 $164 $256 $346 forward $65 $-1 #
coedge $-1 $339 $340 $164 $248 reversed $240 $-1 #
edge $-1 $253 -58.950773644215218 $347 58.950773644215218 $247 $348 forward 7 unknown #
edge $-1 $258 -58.950773644215218 $252 58.950773644215218 $168 $349 forward 7 unknown #
coedge $-1 $166 $244 $339 $350 reversed $251 $-1 #
loop $-1 $-1 $169 $239 #
vertex $-1 $167 $351 #
vertex $-1 $167 $352 #
straight-curve $-1 58.950773644215218 0 10.166341624004394 0 1 0 I I #
straight-curve $-1 58.950773644215218 -35.498019649384283 0 0 0 -1 I I #
coedge $-1 $242 $171 $246 $346 reversed $161 $-1 #
coedge $-1 $171 $242 $173 $260 reversed $161 $-1 #
vertex $-1 $346 $353 #
straight-curve $-1 -58.950773644215218 -35.498019649384283 0 0 0 -1 I I #
edge $-1 $175 -35.498019649384283 $354 35.498019649384283 $257 $355 forward 7 unknown #
point $-1 58.950773644215218 -35.498019649384283 -10.166341624004394 #
point $-1 -58.950773644215218 -35.498019649384283 -10.166341624004394 #
face $-1 $-1 $280 $25 $-1 $356 forward single #
loop $-1 $-1 $357 $177 #
plane-surface $-1 -38.618090396206426 -41.804402997763624 0 -1 0 0 0 0 1 forward_v I I I I #
coedge $-1 $358 $180 $270 $359 reversed $109 $-1 #
coedge $-1 $180 $358 $360 $361 reversed $109 $-1 #
coedge $-1 $188 $187 $180 $269 reversed $178 $-1 #
edge $-1 $362 -10.166341624004394 $363 10.166341624004394 $268 $364 forward 7 unknown #
coedge $-1 $182 $181 $266 $359 forward $69 $-1 #
coedge $-1 $276 $357 $181 $272 reversed $264 $-1 #
edge $-1 $274 -6.3063833483793417 $365 6.3063833483793417 $271 $366 forward 7 unknown #
edge $-1 $363 -6.3063833483793417 $189 6.3063833483793417 $187 $367 forward 7 unknown #
vertex $-1 $272 $368 #
straight-curve $-1 0 -35.498019649384283 -10.166341624004394 1 0 0 I I #
coedge $-1 $369 $271 $184 $277 reversed $264 $-1 #
edge $-1 $281 -10.166341624004394 $274 10.166341624004394 $276 $370 forward 7 unknown #
coedge $-1 $360 $185 $188 $283 forward $280 $-1 #
coedge $-1 $185 $360 $369 $371 forward $280 $-1 #
loop $-1 $-1 $185 $263 #
vertex $-1 $186 $372 #
straight-curve $-1 0 -35.498019649384283 10.166341624004394 -1 0 0 I I #
edge $-1 $190 -6.3063833483793417 $362 6.3063833483793417 $188 $373 forward 7 unknown #
point $-1 -42.690646120716039 -35.498019649384283 -10.166341624004394 #
point $-1 -42.690646120716039 -35.498019649384283 10.166341624004394 #
plane-surface $-1 0 0 10.166341624004394 0 0 1 1 0 0 forward_v I I I I #
coedge $-1 $297 $296 $289 $374 forward $193 $-1 #
coedge $-1 $289 $195 $197 $293 reversed $117 $-1 #
coedge $-1 $195 $288 $287 $374 reversed $117 $-1 #
coedge $-1 $203 $198 $195 $291 forward $204 $-1 #
edge $-1 $294 -25.429552714097831 $375 -18.216791370052846 $290 $376 forward 7 unknown #
coedge $-1 $197 $196 $297 $377 reversed $73 $-1 #
edge $-1 $378 0 $294 12.271082770680717 $288 $379 forward 7 unknown #
vertex $-1 $199 $380 #
straight-curve $-1 -51.738012300170233 -7.6762693657909224 10.166341624004394 0 1 0 I I #
coedge $-1 $287 $200 $203 $301 reversed $193 $-1 #
coedge $-1 $200 $287 $292 $377 forward $193 $-1 #
vertex $-1 $201 $381 #
straight-curve $-1 -58.950773644215218 -20.333493725852264 34.769808206639553 0 0 1 I I #
straight-curve $-1 -58.950773644215218 -20.333493725852264 0.23882702271835399 -0.5877852410284794 0 -0.80901700255871778 I I #
edge $-1 $375 10.371583737311424 $205 20.333493725852264 $296 $382 forward 7 unknown #
point $-1 -58.950773644215218 -20.333493725852264 10.166341624004394 #
point $-1 -51.738012300170233 -20.333493725852264 10.166341624004394 #
edge $-1 $383 1 $383 0 $208 $-1 forward 7 unknown #
vertex $-1 $209 $384 #
ellipse-curve $-1 -52.212097002784127 -17.487233729126313 2.9268381579181595 -0.80901700255871778 0 0.5877852410284794 0.5877852410284794 0 0.80901700255871778 1 I I #
point $-1 -54.756607731164252 -17.487233729126313 6.0116013259200987 #
edge $-1 $385 1 $385 0 $212 $-1 forward 7 unknown #
vertex $-1 $213 $386 #
ellipse-curve $-1 -52.212097002784127 -13.21784373403738 2.9268381579181595 -0.80901700255871778 0 0.5877852410284794 0.5877852410284794 0 0.80901700255871778 1 I I #
point $-1 -54.756607731164252 -13.21784373403738 6.0116013259200987 #
loop $-1 $-1 $224 $216 #
plane-surface $-1 58.950773644215218 0 0 -1 0 0 0 0 1 forward_v I I I I #
coedge $-1 $315 $219 $221 $319 reversed $139 $-1 #
coedge $-1 $219 $314 $387 $388 reversed $139 $-1 #
coedge $-1 $227 $222 $219 $317 forward $217 $-1 #
edge $-1 $320 43.87515943709974 $389 51.052866925747701 $316 $390 forward 7 unknown #
coedge $-1 $221 $220 $323 $391 reversed $87 $-1 #
edge $-1 $392 -117.90154728843042 $320 -109.61344454994665 $314 $393 forward 7 unknown #
vertex $-1 $223 $394 #
straight-curve $-1 51.77306615556725 -7.254877844961241 10.166341624004396 0 -1 0 I I #
coedge $-1 $387 $224 $227 $327 reversed $312 $-1 #
coedge $-1 $224 $387 $318 $391 forward $312 $-1 #
vertex $-1 $225 $395 #
straight-curve $-1 58.950773644215218 -6.1342584272193577 83.539399637268033 0 0 1 I I #
straight-curve $-1 -43.154960997071562 -6.1342584272193577 64.97306463324928 0.8660253999169214 0 -0.50000000669873634 I I #
edge $-1 $389 -22.885252952625606 $228 -6.1342584272193577 $322 $396 forward 7 unknown #
point $-1 58.950773644215218 -6.1342584272193577 10.166341624004394 #
point $-1 51.773066155567257 -6.1342584272193577 10.166341624004396 #
edge $-1 $397 1 $397 0 $231 $-1 forward 7 unknown #
vertex $-1 $232 $398 #
ellipse-curve $-1 54.082858632106543 -18.099254516795249 5.8789168494012944 0.50000000669873634 0 0.8660253999169214 1.7320507998338428 0 -1.0000000133974727 1 I I #
point $-1 57.093970699725098 -18.099254516795249 7.0943158982260641 #
edge $-1 $399 1 $399 0 $235 $-1 forward 7 unknown #
vertex $-1 $236 $400 #
ellipse-curve $-1 54.082858632106543 -10.920256863049715 5.8789168494012944 0.50000000669873634 0 0.8660253999169214 1.7320507998338428 0 -1.0000000133974727 1 I I #
point $-1 57.093970699725098 -10.920256863049715 7.0943158982260641 #
plane-surface $-1 58.950773644215218 0 0 -1 0 0 0 0 1 forward_v I I I I #
coedge $-1 $342 $247 $250 $350 forward $240 $-1 #
coedge $-1 $247 $342 $242 $341 reversed $240 $-1 #
edge $-1 $347 -10.166341624004394 $354 10.166341624004394 $340 $401 forward 7 unknown #
coedge $-1 $340 $339 $243 $343 reversed $240 $-1 #
edge $-1 $354 -58.950773644215218 $344 58.950773644215218 $342 $402 forward 7 unknown #
vertex $-1 $245 $403 #
straight-curve $-1 58.950773644215218 0 -10.166341624004394 0 -1 0 I I #
edge $-1 $347 -35.498019649384283 $258 35.498019649384283 $256 $404 forward 7 unknown #
vertex $-1 $248 $405 #
straight-curve $-1 0 35.498019649384283 10.166341624004394 -1 0 0 I I #
straight-curve $-1 0 -35.498019649384283 10.166341624004394 1 0 0 I I #
edge $-1 $253 -10.166341624004394 $344 10.166341624004394 $250 $406 forward 7 unknown #
point $-1 58.950773644215218 -35.498019649384283 10.166341624004394 #
point $-1 58.950773644215218 35.498019649384283 10.166341624004394 #
point $-1 -58.950773644215218 -35.498019649384283 10.166341624004394 #
vertex $-1 $343 $407 #
straight-curve $-1 -58.950773644215218 0 -10.166341624004394 0 1 0 I I #
plane-surface $-1 0 0 10.166341624004394 0 0 1 1 0 0 forward_v I I I I #
coedge $-1 $271 $369 $358 $408 forward $264 $-1 #
coedge $-1 $267 $266 $357 $408 reversed $109 $-1 #
edge $-1 $365 -2.0362778622548063 $363 2.0362778622548063 $266 $409 forward 7 unknown #
coedge $-1 $279 $278 $267 $361 forward $280 $-1 #
edge $-1 $362 -2.0362778622548063 $410 2.0362778622548063 $267 $411 forward 7 unknown #
vertex $-1 $283 $412 #
vertex $-1 $273 $413 #
straight-curve $-1 -42.690646120716039 -48.110786346142966 0 0 0 -1 I I #
vertex $-1 $408 $414 #
straight-curve $-1 -38.618090396206426 -41.804402997763624 -10.166341624004394 0 -1 0 I I #
straight-curve $-1 -42.690646120716039 -41.804402997763624 -10.166341624004394 0 1 0 I I #
point $-1 -38.618090396206426 -35.498019649384283 -10.166341624004394 #
coedge $-1 $357 $276 $279 $371 reversed $264 $-1 #
straight-curve $-1 -38.618090396206426 -35.498019649384283 0 0 0 -1 I I #
edge $-1 $410 -6.3063833483793417 $281 6.3063833483793417 $369 $415 forward 7 unknown #
point $-1 -38.618090396206426 -35.498019649384283 10.166341624004394 #
straight-curve $-1 -42.690646120716039 -41.804402997763624 10.166341624004394 0 -1 0 I I #
edge $-1 $375 24.603466582635157 $378 34.530981183921199 $287 $416 forward 7 unknown #
vertex $-1 $301 $417 #
straight-curve $-1 -77.167565014268064 -10.371583737311424 10.166341624004396 -1 0 0 I I #
edge $-1 $378 2.6953143715205012 $298 12.657224360061342 $297 $418 forward 7 unknown #
vertex $-1 $377 $419 #
straight-curve $-1 -58.950773644215218 -10.371583737311424 0.23882702271835399 0.5877852410284794 0 0.80901700255871778 I I #
point $-1 -51.738012300170233 -10.371583737311424 10.166341624004394 #
point $-1 -58.950773644215218 -20.333493725852264 0.23882702271835399 #
straight-curve $-1 -58.950773644215218 0 10.166341624004394 0 -1 0 I I #
vertex $-1 $304 $420 #
point $-1 -51.624311761755649 -17.487233729126313 3.7358551604768775 #
vertex $-1 $308 $421 #
point $-1 -51.624311761755649 -13.21784373403738 3.7358551604768775 #
coedge $-1 $323 $322 $315 $388 forward $312 $-1 #
edge $-1 $389 73.373058013263645 $392 77.517109438025344 $387 $422 forward 7 unknown #
vertex $-1 $327 $423 #
straight-curve $-1 7.8979067184675174 -22.885252952625606 10.166341624004389 1 0 0 I I #
edge $-1 $392 -15.630375107664365 $324 1.1206194177418833 $323 $424 forward 7 unknown #
vertex $-1 $391 $425 #
straight-curve $-1 -43.154960997071562 -22.885252952625606 64.97306463324928 -0.8660253999169214 0 0.50000000669873634 I I #
point $-1 51.773066155567257 -22.885252952625606 10.166341624004396 #
point $-1 58.950773644215211 -6.1342584272193577 6.0222901992426898 #
straight-curve $-1 58.950773644215218 0 10.166341624004394 0 1 0 I I #
vertex $-1 $330 $426 #
point $-1 55.814909431940386 -18.099254516795249 4.878916836003822 #
vertex $-1 $334 $427 #
point $-1 55.814909431940386 -10.920256863049715 4.878916836003822 #
straight-curve $-1 -58.950773644215218 35.498019649384283 0 0 0 -1 I I #
straight-curve $-1 0 35.498019649384283 -10.166341624004394 1 0 0 I I #
point $-1 58.950773644215218 35.498019649384283 -10.166341624004394 #
straight-curve $-1 -58.950773644215218 0 10.166341624004394 0 -1 0 I I #
point $-1 -58.950773644215218 35.498019649384283 10.166341624004394 #
straight-curve $-1 58.950773644215218 35.498019649384283 0 0 0 -1 I I #
point $-1 -58.950773644215218 35.498019649384283 -10.166341624004394 #
edge $-1 $410 -10.166341624004394 $365 10.166341624004394 $357 $428 forward 7 unknown #
straight-curve $-1 -40.654368258461233 -48.110786346142966 -10.166341624004394 -1 0 0 I I #
vertex $-1 $371 $429 #
straight-curve $-1 -40.654368258461233 -48.110786346142966 10.166341624004394 1 0 0 I I #
point $-1 -42.690646120716039 -48.110786346142966 10.166341624004394 #
point $-1 -42.690646120716039 -48.110786346142966 -10.166341624004394 #
point $-1 -38.618090396206426 -48.110786346142966 -10.166341624004394 #
straight-curve $-1 -38.618090396206426 -41.804402997763624 10.166341624004394 0 1 0 I I #
straight-curve $-1 -58.950773644215218 -10.371583737311424 34.769808206639553 0 0 -1 I I #
point $-1 -58.950773644215218 -10.371583737311424 10.166341624004394 #
straight-curve $-1 -58.950773644215218 -7.6762693657909224 0.23882702271835393 0 -1 0 I I #
point $-1 -58.950773644215218 -10.371583737311424 0.23882702271835399 #
point $-1 -51.403080000225408 -17.487233729126313 2.3390529168896803 #
point $-1 -51.403080000225408 -13.21784373403738 2.3390529168896803 #
straight-curve $-1 58.950773644215218 -22.885252952625606 83.539399637268033 0 0 -1 I I #
point $-1 58.950773644215218 -22.885252952625606 10.166341624004394 #
straight-curve $-1 58.950773644215218 -7.254877844961241 6.0222901992426827 0 1 0 I I #
point $-1 58.950773644215211 -22.885252952625606 6.0222901992426898 #
point $-1 53.082858618709075 -18.099254516795249 4.1468660495674516 #
point $-1 53.082858618709075 -10.920256863049715 4.1468660495674516 #
straight-curve $-1 -38.618090396206426 -48.110786346142966 0 0 0 -1 I I #
point $-1 -38.618090396206426 -48.110786346142966 10.166341624004394 #
End-of-ACIS-data 