500 0 4 0           
7 Unknown 11 ACIS 5.0 NT 24 Fri Mar 26 18:21:03 1999 
-1 9.9999999999999995e-007 1e-010 
body $-1 $4 $-1 $5 #
body $-1 $6 $-1 $7 #
body $-1 $8 $-1 $9 #
body $-1 $10 $-1 $11 #
lump $-1 $-1 $12 $0 #
transform $-1 1 0 0 0 1 0 0 0 1 54.150822473830374 37.785596798254332 14.747303177408838 1 rotate no_reflect no_shear #
lump $-1 $-1 $13 $1 #
transform $-1 1 0 0 0 1 0 0 0 1 54.150822473830374 37.785596798254332 14.747303177408838 1 rotate no_reflect no_shear #
lump $-1 $-1 $14 $2 #
transform $-1 1 0 0 0 1 0 0 0 1 54.150822473830374 37.785596798254332 14.747303177408838 1 rotate no_reflect no_shear #
lump $-1 $-1 $15 $3 #
transform $-1 1 0 0 0 1 0 0 0 1 54.150822473830374 37.785596798254332 14.747303177408838 1 rotate no_reflect no_shear #
shell $-1 $-1 $-1 $16 $-1 $4 #
shell $-1 $-1 $-1 $17 $-1 $6 #
shell $-1 $-1 $-1 $18 $-1 $8 #
shell $-1 $-1 $-1 $19 $-1 $10 #
face $-1 $20 $21 $12 $-1 $22 forward single #
face $-1 $23 $24 $13 $-1 $25 forward single #
face $-1 $26 $27 $14 $-1 $28 reversed single #
face $-1 $29 $30 $15 $-1 $31 forward single #
face $-1 $32 $33 $12 $-1 $34 reversed single #
loop $-1 $-1 $35 $16 #
plane-surface $-1 0 0 14.747303177408838 0 0 1 1 0 0 forward_v I I I I #
face $-1 $36 $37 $13 $-1 $38 forward single #
loop $-1 $-1 $39 $17 #
plane-surface $-1 -54.150822473830374 0 0 1 0 0 0 0 -1 forward_v I I I I #
face $-1 $40 $41 $14 $-1 $42 reversed single #
loop $-1 $-1 $43 $18 #
plane-surface $-1 30.878532134521485 -102.96315458497332 92.577456641181712 -1 0 0 0 -0.6018150307709319 0.79863550430605224 forward_v I I I I #
face $-1 $44 $45 $15 $-1 $46 forward single #
loop $-1 $47 $48 $19 #
cone-surface $-1 26.046932750638646 -30.963945174682486 8.9912914660101535 0 0.6018150307709319 -0.79863550430605224 2 0 0 1 I I 0 1 2 forward I I I I #
face $-1 $49 $50 $12 $-1 $51 reversed single #
loop $-1 $-1 $52 $20 #
plane-surface $-1 0 0 -14.747303177408838 0 0 1 1 0 0 forward_v I I I I #
coedge $-1 $53 $54 $55 $56 forward $21 $-1 #
face $-1 $57 $58 $13 $-1 $59 reversed single #
loop $-1 $-1 $60 $23 #
plane-surface $-1 0 0 14.747303177408838 0 0 1 1 0 0 forward_v I I I I #
coedge $-1 $61 $62 $63 $64 forward $24 $-1 #
face $-1 $65 $66 $14 $-1 $67 reversed single #
loop $-1 $-1 $68 $26 #
plane-surface $-1 26.046932750638632 -37.785596798254332 6.0839178112316574 0 -0.6018150307709319 0.79863550430605224 1 0 0 forward_v I I I I #
coedge $-1 $69 $70 $71 $72 reversed $27 $-1 #
face $-1 $-1 $73 $15 $-1 $74 forward single #
loop $-1 $75 $76 $29 #
cone-surface $-1 26.046932750638646 -29.288828750186411 6.768336933394 0 0.6018150307709319 -0.79863550430605224 1 0 0 1 I I -0.70710678118654724 0.70710678118654791 1 forward I I I I #
loop $-1 $-1 $77 $19 #
coedge $-1 $48 $48 $78 $79 reversed $30 $-1 #
face $-1 $80 $81 $12 $-1 $82 reversed single #
loop $-1 $-1 $83 $32 #
plane-surface $-1 0 -37.785596798254332 0 0 1 0 0 0 1 forward_v I I I I #
coedge $-1 $84 $85 $86 $87 forward $33 $-1 #
coedge $-1 $88 $35 $89 $90 forward $21 $-1 #
coedge $-1 $35 $88 $91 $92 forward $21 $-1 #
coedge $-1 $93 $94 $35 $56 reversed $95 $-1 #
edge $-1 $96 -37.785596798254332 $97 37.785596798254332 $55 $98 forward 7 unknown #
face $-1 $99 $100 $13 $-1 $101 reversed single #
loop $-1 $-1 $102 $36 #
plane-surface $-1 -71.905401728054329 -33.80148009799565 0 1 0 0 0 0 -1 forward_v I I I I #
coedge $-1 $103 $104 $61 $105 forward $37 $-1 #
coedge $-1 $106 $39 $60 $105 reversed $24 $-1 #
coedge $-1 $39 $106 $107 $108 reversed $24 $-1 #
coedge $-1 $109 $110 $39 $64 reversed $100 $-1 #
edge $-1 $111 -14.747303177408838 $112 14.747303177408838 $63 $113 forward 7 unknown #
face $-1 $114 $115 $14 $-1 $116 forward single #
loop $-1 $-1 $117 $40 #
plane-surface $-1 21.215333366755779 -102.96315458497332 92.577456641181712 1 0 0 0 0.6018150307709319 -0.79863550430605224 forward_v I I I I #
coedge $-1 $118 $119 $120 $121 reversed $41 $-1 #
coedge $-1 $70 $43 $122 $123 reversed $27 $-1 #
coedge $-1 $43 $69 $118 $124 reversed $27 $-1 #
coedge $-1 $120 $125 $43 $72 forward $115 $-1 #
edge $-1 $126 13.69598049423233 $127 25.192680953925755 $71 $128 forward 7 unknown #
loop $-1 $-1 $78 $44 #
plane-surface $-1 26.046932750638632 -37.785596798254332 6.0839178112316574 0 -0.6018150307709319 0.79863550430605224 1 0 0 forward_v I I I I #
loop $-1 $-1 $129 $29 #
coedge $-1 $76 $76 $77 $130 reversed $45 $-1 #
coedge $-1 $77 $77 $76 $130 forward $47 $-1 #
coedge $-1 $78 $78 $48 $79 forward $73 $-1 #
edge $-1 $131 2.1380764919276341e-015 $131 6.2831853071796022 $78 $132 forward 7 unknown #
face $-1 $133 $134 $12 $-1 $135 reversed single #
loop $-1 $-1 $136 $49 #
plane-surface $-1 -54.150822473830374 0 0 1 0 0 0 0 -1 forward_v I I I I #
coedge $-1 $137 $91 $138 $139 forward $50 $-1 #
coedge $-1 $140 $52 $137 $141 forward $33 $-1 #
coedge $-1 $52 $140 $142 $143 forward $33 $-1 #
coedge $-1 $94 $93 $52 $87 reversed $95 $-1 #
edge $-1 $144 -37.785596798254332 $145 37.785596798254332 $86 $146 forward 7 unknown #
coedge $-1 $54 $53 $136 $147 forward $21 $-1 #
coedge $-1 $148 $149 $53 $90 reversed $134 $-1 #
edge $-1 $97 -54.150822473830374 $150 54.150822473830374 $89 $151 forward 7 unknown #
coedge $-1 $83 $152 $54 $92 reversed $50 $-1 #
edge $-1 $153 -54.150822473830374 $96 54.150822473830374 $91 $154 forward 7 unknown #
coedge $-1 $86 $55 $152 $155 forward $95 $-1 #
coedge $-1 $55 $86 $148 $156 reversed $95 $-1 #
loop $-1 $-1 $93 $133 #
vertex $-1 $56 $157 #
vertex $-1 $56 $158 #
straight-curve $-1 54.150822473830374 0 14.747303177408838 0 1 0 I I #
face $-1 $159 $160 $13 $-1 $161 reversed single #
loop $-1 $-1 $63 $57 #
plane-surface $-1 -63.028112100942352 -29.817363397736969 0 0 -1 0 0 0 -1 forward_v I I I I #
coedge $-1 $162 $163 $164 $165 forward $58 $-1 #
coedge $-1 $166 $60 $110 $167 forward $37 $-1 #
coedge $-1 $60 $166 $168 $169 forward $37 $-1 #
edge $-1 $170 -37.785596798254332 $112 -29.817363397736969 $60 $171 forward 7 unknown #
coedge $-1 $62 $61 $172 $173 reversed $24 $-1 #
coedge $-1 $174 $175 $62 $108 forward $160 $-1 #
edge $-1 $111 29.817363397736969 $176 37.785596798254332 $107 $177 forward 7 unknown #
coedge $-1 $164 $63 $175 $178 reversed $100 $-1 #
coedge $-1 $63 $164 $103 $167 reversed $100 $-1 #
vertex $-1 $108 $179 #
vertex $-1 $167 $180 #
straight-curve $-1 -54.150822473830374 -29.817363397736969 0 0 0 1 I I #
face $-1 $-1 $181 $14 $-1 $182 reversed single #
loop $-1 $-1 $71 $65 #
plane-surface $-1 0 0 14.747303177408838 0 0 1 1 0 0 forward_v I I I I #
coedge $-1 $183 $184 $185 $186 reversed $66 $-1 #
coedge $-1 $187 $68 $70 $124 forward $41 $-1 #
coedge $-1 $68 $187 $183 $188 forward $41 $-1 #
coedge $-1 $185 $71 $68 $121 forward $115 $-1 #
edge $-1 $127 -17.855065759202169 $189 -8.1918669914364628 $120 $190 forward 7 unknown #
coedge $-1 $191 $192 $69 $123 forward $181 $-1 #
edge $-1 $193 -40.204810509359199 $126 -31.541425143182018 $122 $194 forward 7 unknown #
edge $-1 $127 -14.395428700209242 $193 0 $70 $195 forward 7 unknown #
coedge $-1 $71 $185 $191 $196 forward $115 $-1 #
vertex $-1 $72 $197 #
vertex $-1 $72 $198 #
straight-curve $-1 30.878532134521485 -51.481577292486662 14.747303177408838 0 1 0 I I #
coedge $-1 $129 $129 $-1 $199 reversed $75 $-1 #
edge $-1 $200 0 $200 6.2831853071796004 $76 $201 forward 7 unknown #
vertex $-1 $79 $202 #
ellipse-curve $-1 26.046932750638646 -32.037246568407625 10.415610494320246 0 -0.6018150307709319 0.79863550430605224 2 0 0 1 I I #
face $-1 $-1 $95 $12 $-1 $203 reversed single #
loop $-1 $-1 $148 $80 #
plane-surface $-1 0 37.785596798254332 0 0 -1 0 0 0 -1 forward_v I I I I #
coedge $-1 $204 $138 $88 $147 reversed $81 $-1 #
coedge $-1 $152 $83 $84 $141 reversed $50 $-1 #
coedge $-1 $136 $205 $83 $139 reversed $81 $-1 #
edge $-1 $153 -14.747303177408838 $206 14.747303177408838 $138 $207 forward 7 unknown #
coedge $-1 $85 $84 $205 $208 forward $33 $-1 #
edge $-1 $145 -54.150822473830374 $206 54.150822473830374 $137 $209 forward 7 unknown #
coedge $-1 $149 $148 $85 $143 reversed $134 $-1 #
edge $-1 $210 -54.150822473830374 $144 54.150822473830374 $142 $211 forward 7 unknown #
vertex $-1 $87 $212 #
vertex $-1 $155 $213 #
straight-curve $-1 54.150822473830374 0 -14.747303177408838 0 -1 0 I I #
edge $-1 $150 -37.785596798254332 $153 37.785596798254332 $136 $214 forward 7 unknown #
coedge $-1 $142 $89 $94 $156 forward $134 $-1 #
coedge $-1 $89 $142 $204 $215 reversed $134 $-1 #
vertex $-1 $90 $216 #
straight-curve $-1 0 37.785596798254332 14.747303177408838 -1 0 0 I I #
coedge $-1 $91 $137 $93 $155 reversed $50 $-1 #
vertex $-1 $147 $217 #
straight-curve $-1 0 -37.785596798254332 14.747303177408838 1 0 0 I I #
edge $-1 $96 -14.747303177408838 $145 14.747303177408838 $93 $218 forward 7 unknown #
edge $-1 $97 -14.747303177408838 $144 14.747303177408838 $94 $219 forward 7 unknown #
point $-1 54.150822473830374 -37.785596798254332 14.747303177408838 #
point $-1 54.150822473830374 37.785596798254332 14.747303177408838 #
face $-1 $-1 $220 $13 $-1 $221 reversed single #
loop $-1 $-1 $107 $99 #
plane-surface $-1 0 0 -14.747303177408838 0 0 1 1 0 0 forward_v I I I I #
coedge $-1 $222 $102 $223 $224 reversed $58 $-1 #
coedge $-1 $102 $222 $166 $225 reversed $58 $-1 #
coedge $-1 $110 $109 $102 $165 reversed $100 $-1 #
edge $-1 $226 -14.747303177408838 $227 14.747303177408838 $164 $228 forward 7 unknown #
coedge $-1 $104 $103 $163 $225 forward $37 $-1 #
edge $-1 $112 -8.8772896271119777 $226 8.8772896271119777 $110 $229 forward 7 unknown #
coedge $-1 $230 $172 $104 $169 reversed $220 $-1 #
edge $-1 $231 -71.905401728054329 $170 -54.150822473830374 $168 $232 forward 7 unknown #
vertex $-1 $173 $233 #
straight-curve $-1 -54.150822473830374 0 14.747303177408838 0 1 0 I I #
coedge $-1 $168 $234 $106 $173 forward $220 $-1 #
edge $-1 $176 -14.747303177408838 $170 14.747303177408838 $172 $235 forward 7 unknown #
coedge $-1 $223 $107 $234 $236 forward $160 $-1 #
coedge $-1 $107 $223 $109 $178 forward $160 $-1 #
vertex $-1 $236 $237 #
straight-curve $-1 -54.150822473830374 0 -14.747303177408838 0 -1 0 I I #
edge $-1 $227 -8.8772896271119777 $111 8.8772896271119777 $109 $238 forward 7 unknown #
point $-1 -54.150822473830374 -29.817363397736969 -14.747303177408838 #
point $-1 -54.150822473830374 -29.817363397736969 14.747303177408838 #
loop $-1 $-1 $122 $114 #
plane-surface $-1 0 -37.785596798254332 0 0 1 0 0 0 1 forward_v I I I I #
coedge $-1 $184 $117 $119 $188 reversed $66 $-1 #
coedge $-1 $117 $183 $239 $240 reversed $66 $-1 #
coedge $-1 $125 $120 $117 $186 forward $115 $-1 #
edge $-1 $189 -25.192680953925755 $241 -13.69598049423233 $185 $242 forward 7 unknown #
coedge $-1 $119 $118 $192 $243 reversed $41 $-1 #
edge $-1 $244 0 $189 14.395428700209242 $183 $245 forward 7 unknown #
vertex $-1 $121 $246 #
straight-curve $-1 13.023466375319316 -26.288896338560914 14.747303177408838 -1 0 0 I I #
coedge $-1 $239 $122 $125 $196 reversed $181 $-1 #
coedge $-1 $122 $239 $187 $243 forward $181 $-1 #
vertex $-1 $123 $247 #
straight-curve $-1 30.878532134521485 -37.785596798254332 46.288728320590856 0 0 1 I I #
straight-curve $-1 30.878532134521485 -37.785596798254332 6.0839178112316574 0 -0.79863550430605224 -0.6018150307709319 I I #
edge $-1 $241 21.215333366755779 $126 30.878532134521485 $191 $248 forward 7 unknown #
point $-1 30.878532134521485 -37.785596798254332 14.747303177408838 #
point $-1 30.878532134521485 -26.288896338560907 14.747303177408838 #
edge $-1 $249 1 $249 0 $129 $-1 forward 7 unknown #
vertex $-1 $130 $250 #
ellipse-curve $-1 26.046932750638646 -29.890643780957344 7.5669724377000529 0 -0.6018150307709319 0.79863550430605224 2 0 0 1 I I #
point $-1 28.046932750638646 -32.037246568407625 10.415610494320253 #
plane-surface $-1 54.150822473830374 0 0 -1 0 0 0 0 1 forward_v I I I I #
coedge $-1 $205 $136 $149 $215 forward $81 $-1 #
coedge $-1 $138 $204 $140 $208 reversed $81 $-1 #
vertex $-1 $208 $251 #
straight-curve $-1 -54.150822473830374 -37.785596798254332 0 0 0 -1 I I #
edge $-1 $206 -37.785596798254332 $210 37.785596798254332 $205 $252 forward 7 unknown #
straight-curve $-1 0 -37.785596798254332 -14.747303177408838 -1 0 0 I I #
vertex $-1 $143 $253 #
straight-curve $-1 0 37.785596798254332 -14.747303177408838 1 0 0 I I #
point $-1 54.150822473830374 37.785596798254332 -14.747303177408838 #
point $-1 54.150822473830374 -37.785596798254332 -14.747303177408838 #
straight-curve $-1 -54.150822473830374 0 14.747303177408838 0 -1 0 I I #
edge $-1 $150 -14.747303177408838 $210 14.747303177408838 $149 $254 forward 7 unknown #
point $-1 -54.150822473830374 37.785596798254332 14.747303177408838 #
point $-1 -54.150822473830374 -37.785596798254332 14.747303177408838 #
straight-curve $-1 54.150822473830374 -37.785596798254332 0 0 0 -1 I I #
straight-curve $-1 54.150822473830374 37.785596798254332 0 0 0 -1 I I #
loop $-1 $-1 $172 $159 #
plane-surface $-1 0 -37.785596798254332 0 0 1 0 0 0 1 forward_v I I I I #
coedge $-1 $163 $162 $230 $255 reversed $58 $-1 #
coedge $-1 $175 $174 $162 $224 forward $160 $-1 #
edge $-1 $256 -3.9841167002586815 $227 3.9841167002586815 $162 $257 forward 7 unknown #
edge $-1 $226 -3.9841167002586815 $231 3.9841167002586815 $163 $258 forward 7 unknown #
vertex $-1 $167 $259 #
vertex $-1 $178 $260 #
straight-curve $-1 -71.905401728054329 -29.817363397736969 0 0 0 -1 I I #
straight-curve $-1 -63.028112100942352 -29.817363397736969 14.747303177408838 -1 0 0 I I #
coedge $-1 $234 $168 $222 $255 forward $220 $-1 #
vertex $-1 $225 $261 #
straight-curve $-1 0 -37.785596798254332 14.747303177408838 1 0 0 I I #
point $-1 -54.150822473830374 -37.785596798254332 14.747303177408838 #
coedge $-1 $172 $230 $174 $236 reversed $220 $-1 #
straight-curve $-1 -54.150822473830374 -37.785596798254332 0 0 0 1 I I #
edge $-1 $176 -8.8772896271119777 $256 8.8772896271119777 $234 $262 forward 7 unknown #
point $-1 -54.150822473830374 -37.785596798254332 -14.747303177408838 #
straight-curve $-1 -63.028112100942352 -29.817363397736969 -14.747303177408838 1 0 0 I I #
coedge $-1 $192 $191 $184 $240 forward $181 $-1 #
edge $-1 $241 31.541425143182018 $244 40.204810509359199 $239 $263 forward 7 unknown #
vertex $-1 $196 $264 #
straight-curve $-1 21.215333366755779 -51.481577292486662 14.747303177408838 0 -1 0 I I #
edge $-1 $244 8.1918669914364628 $193 17.855065759202169 $192 $265 forward 7 unknown #
vertex $-1 $243 $266 #
straight-curve $-1 21.215333366755779 -37.785596798254332 6.0839178112316574 0 0.79863550430605224 0.6018150307709319 I I #
point $-1 21.215333366755779 -26.288896338560907 14.747303177408838 #
point $-1 30.878532134521485 -37.785596798254332 6.0839178112316574 #
straight-curve $-1 0 -37.785596798254332 14.747303177408838 1 0 0 I I #
vertex $-1 $199 $267 #
point $-1 28.046932750638646 -29.890643780957344 7.5669724377000529 #
point $-1 -54.150822473830374 -37.785596798254332 -14.747303177408838 #
straight-curve $-1 -54.150822473830374 0 -14.747303177408838 0 1 0 I I #
point $-1 -54.150822473830374 37.785596798254332 -14.747303177408838 #
straight-curve $-1 -54.150822473830374 37.785596798254332 0 0 0 -1 I I #
edge $-1 $231 -14.747303177408838 $256 14.747303177408838 $222 $268 forward 7 unknown #
vertex $-1 $224 $269 #
straight-curve $-1 -71.905401728054329 -33.80148009799565 -14.747303177408838 0 1 0 I I #
straight-curve $-1 -71.905401728054329 -33.80148009799565 14.747303177408838 0 -1 0 I I #
point $-1 -71.905401728054329 -29.817363397736969 14.747303177408838 #
point $-1 -71.905401728054329 -29.817363397736969 -14.747303177408838 #
point $-1 -71.905401728054329 -37.785596798254332 14.747303177408838 #
straight-curve $-1 -63.028112100942352 -37.785596798254332 -14.747303177408838 -1 0 0 I I #
straight-curve $-1 21.215333366755779 -37.785596798254332 46.288728320590856 0 0 -1 I I #
point $-1 21.215333366755779 -37.785596798254332 14.747303177408838 #
straight-curve $-1 13.023466375319316 -37.785596798254332 6.0839178112316583 1 0 0 I I #
point $-1 21.215333366755779 -37.785596798254332 6.0839178112316574 #
point $-1 26.046932750638646 -28.687013719415479 5.9697014290879471 #
straight-curve $-1 -71.905401728054329 -37.785596798254332 0 0 0 -1 I I #
point $-1 -71.905401728054329 -37.785596798254332 -14.747303177408838 #
End-of-ACIS-data 