500 0 12 0           
7 Unknown 11 ACIS 5.0 NT 24 Fri Mar 26 16:46:57 1999 
-1 9.9999999999999995e-007 1e-010 
body $-1 $12 $-1 $13 #
body $-1 $14 $-1 $15 #
body $-1 $16 $-1 $17 #
body $-1 $18 $-1 $19 #
body $-1 $20 $-1 $21 #
body $-1 $22 $-1 $23 #
body $-1 $24 $-1 $25 #
body $-1 $26 $-1 $27 #
body $-1 $28 $-1 $29 #
body $-1 $30 $-1 $31 #
body $-1 $32 $-1 $33 #
body $-1 $34 $-1 $35 #
lump $-1 $-1 $36 $0 #
transform $-1 1 0 0 0 1 0 0 0 1 64.470961638233589 42.459894166480936 20.310956728833037 1 rotate no_reflect no_shear #
lump $-1 $-1 $37 $1 #
transform $-1 1 0 0 0 1 0 0 0 1 64.470961638233589 42.459894166480936 20.310956728833037 1 rotate no_reflect no_shear #
lump $-1 $-1 $38 $2 #
transform $-1 1 0 0 0 1 0 0 0 1 64.470961638233589 42.459894166480936 20.310956728833037 1 rotate no_reflect no_shear #
lump $-1 $-1 $39 $3 #
transform $-1 1 0 0 0 1 0 0 0 1 64.470961638233589 42.459894166480936 20.310956728833037 1 rotate no_reflect no_shear #
lump $-1 $-1 $40 $4 #
transform $-1 1 0 0 0 1 0 0 0 1 64.470961638233589 42.459894166480936 20.310956728833037 1 rotate no_reflect no_shear #
lump $-1 $-1 $41 $5 #
transform $-1 1 0 0 0 1 0 0 0 1 64.470961638233589 42.459894166480936 20.310956728833037 1 rotate no_reflect no_shear #
lump $-1 $-1 $42 $6 #
transform $-1 1 0 0 0 1 0 0 0 1 64.470961638233589 42.459894166480936 20.310956728833037 1 rotate no_reflect no_shear #
lump $-1 $-1 $43 $7 #
transform $-1 1 0 0 0 1 0 0 0 1 64.470961638233589 42.459894166480936 20.310956728833037 1 rotate no_reflect no_shear #
lump $-1 $-1 $44 $8 #
transform $-1 1 0 0 0 1 0 0 0 1 64.470961638233589 42.459894166480936 20.310956728833037 1 rotate no_reflect no_shear #
lump $-1 $-1 $45 $9 #
transform $-1 1 0 0 0 1 0 0 0 1 64.470961638233589 42.459894166480936 20.310956728833037 1 rotate no_reflect no_shear #
lump $-1 $-1 $46 $10 #
transform $-1 1 0 0 0 1 0 0 0 1 64.470961638233589 42.459894166480936 20.310956728833037 1 rotate no_reflect no_shear #
lump $-1 $-1 $47 $11 #
transform $-1 1 0 0 0 1 0 0 0 1 64.470961638233589 42.459894166480936 20.310956728833037 1 rotate no_reflect no_shear #
shell $-1 $-1 $-1 $48 $-1 $12 #
shell $-1 $-1 $-1 $49 $-1 $14 #
shell $-1 $-1 $-1 $50 $-1 $16 #
shell $-1 $-1 $-1 $51 $-1 $18 #
shell $-1 $-1 $-1 $52 $-1 $20 #
shell $-1 $-1 $-1 $53 $-1 $22 #
shell $-1 $-1 $-1 $54 $-1 $24 #
shell $-1 $-1 $-1 $55 $-1 $26 #
shell $-1 $-1 $-1 $56 $-1 $28 #
shell $-1 $-1 $-1 $57 $-1 $30 #
shell $-1 $-1 $-1 $58 $-1 $32 #
shell $-1 $-1 $-1 $59 $-1 $34 #
face $-1 $60 $61 $36 $-1 $62 forward single #
face $-1 $63 $64 $37 $-1 $65 forward single #
face $-1 $66 $67 $38 $-1 $68 reversed single #
face $-1 $69 $70 $39 $-1 $71 forward single #
face $-1 $72 $73 $40 $-1 $74 forward single #
face $-1 $75 $76 $41 $-1 $77 reversed single #
face $-1 $78 $79 $42 $-1 $80 forward single #
face $-1 $81 $82 $43 $-1 $83 forward single #
face $-1 $84 $85 $44 $-1 $86 reversed single #
face $-1 $87 $88 $45 $-1 $89 forward single #
face $-1 $90 $91 $46 $-1 $92 forward single #
face $-1 $93 $94 $47 $-1 $95 forward single #
face $-1 $96 $97 $36 $-1 $98 reversed single #
loop $-1 $-1 $99 $48 #
plane-surface $-1 0 0 20.310956728833037 0 0 1 1 0 0 forward_v I I I I #
face $-1 $100 $101 $37 $-1 $102 reversed single #
loop $-1 $-1 $103 $49 #
plane-surface $-1 0 -32.126038653779361 -3.8847896592936069 0 0 1 1 0 0 forward_v I I I I #
face $-1 $104 $105 $38 $-1 $106 reversed single #
loop $-1 $-1 $107 $50 #
plane-surface $-1 45.41005010409495 -21.792183141077793 187.69213187114298 0 1 0 0.62932039886446345 0 0.77714595512881146 forward_v I I I I #
face $-1 $108 $109 $39 $-1 $110 forward single #
loop $-1 $111 $112 $51 #
cone-surface $-1 55.11304967578571 -18.72937632037554 12.422161642552163 -0.62932039886446345 0 -0.77714595512881146 0.77714595512881146 0 -0.62932039886446345 1 I I 0 1 1 forward I I I I #
face $-1 $113 $114 $40 $-1 $115 forward single #
loop $-1 $116 $117 $52 #
cone-surface $-1 55.11304967578571 -14.135166089322162 12.422161642552163 -0.62932039886446345 0 -0.77714595512881146 0.77714595512881146 0 -0.62932039886446345 1 I I 0 1 1 forward I I I I #
face $-1 $118 $119 $41 $-1 $120 reversed single #
loop $-1 $-1 $121 $53 #
plane-surface $-1 45.41005010409495 31.740070294023056 187.69213187114298 0 1 0 0.62932039886446345 0 0.77714595512881146 forward_v I I I I #
face $-1 $122 $123 $42 $-1 $124 forward single #
loop $-1 $125 $126 $54 #
cone-surface $-1 55.11304967578571 34.802877114725305 12.422161642552163 -0.62932039886446345 0 -0.77714595512881146 0.77714595512881146 0 -0.62932039886446345 1 I I 0 1 1 forward I I I I #
face $-1 $127 $128 $43 $-1 $129 forward single #
loop $-1 $130 $131 $55 #
cone-surface $-1 55.11304967578571 39.397087345778672 12.422161642552163 -0.62932039886446345 0 -0.77714595512881146 0.77714595512881146 0 -0.62932039886446345 1 I I 0 1 1 forward I I I I #
face $-1 $132 $133 $44 $-1 $134 reversed single #
loop $-1 $-1 $135 $56 #
plane-surface $-1 -170.09400273349746 -21.792183141077793 80.955970042767746 0 1 0 -0.81915205242281985 0 0.57357642473473569 forward_v I I I I #
face $-1 $136 $137 $45 $-1 $138 forward single #
loop $-1 $139 $140 $57 #
cone-surface $-1 -58.971041887130063 -18.898045411614667 13.06698206023742 0.81915205242281985 0 -0.57357642473473569 0.57357642473473569 0 0.81915205242281985 1 I I 0 1 1 forward I I I I #
face $-1 $141 $142 $46 $-1 $143 forward single #
loop $-1 $144 $145 $58 #
cone-surface $-1 -58.971041887130063 -14.55683881741998 13.06698206023742 0.81915205242281985 0 -0.57357642473473569 0.57357642473473569 0 0.81915205242281985 1 I I 0 1 1 forward I I I I #
face $-1 $146 $147 $47 $-1 $148 forward single #
loop $-1 $149 $150 $59 #
cone-surface $-1 -58.971041887130063 -10.215632223225292 13.06698206023742 0.81915205242281985 0 -0.57357642473473569 0.57357642473473569 0 0.81915205242281985 1 I I 0 1 1 forward I I I I #
face $-1 $151 $152 $36 $-1 $153 reversed single #
loop $-1 $-1 $154 $60 #
plane-surface $-1 0 0 -20.310956728833037 0 0 1 1 0 0 forward_v I I I I #
coedge $-1 $155 $156 $157 $158 forward $61 $-1 #
face $-1 $159 $160 $37 $-1 $161 reversed single #
loop $-1 $-1 $162 $63 #
plane-surface $-1 0 -32.126038653779361 -13.234139930633329 0 0 1 1 0 0 forward_v I I I I #
coedge $-1 $163 $164 $165 $166 reversed $64 $-1 #
face $-1 $167 $168 $38 $-1 $169 reversed single #
loop $-1 $-1 $170 $66 #
plane-surface $-1 -35.735732482602415 -16.432271204848853 87.485437750306957 0.62932039886446345 0 0.77714595512881146 0.77714595512881146 0 -0.62932039886446345 forward_v I I I I #
coedge $-1 $171 $172 $173 $174 reversed $67 $-1 #
face $-1 $-1 $175 $39 $-1 $176 forward single #
loop $-1 $177 $178 $69 #
cone-surface $-1 54.067037624534294 -18.72937632037554 11.130444361318592 -0.62932039886446345 0 -0.77714595512881146 0.38857297756440573 0 -0.31466019943223172 1 I I -0.70710678118654746 0.70710678118654746 0.5 forward I I I I #
loop $-1 $-1 $179 $51 #
coedge $-1 $112 $112 $180 $181 reversed $70 $-1 #
face $-1 $-1 $182 $40 $-1 $183 forward single #
loop $-1 $184 $185 $72 #
cone-surface $-1 54.067037624534294 -14.135166089322162 11.130444361318592 -0.62932039886446345 0 -0.77714595512881146 0.38857297756440573 0 -0.31466019943223172 1 I I -0.70710678118654746 0.70710678118654746 0.5 forward I I I I #
loop $-1 $-1 $186 $52 #
coedge $-1 $117 $117 $187 $188 reversed $73 $-1 #
face $-1 $189 $190 $41 $-1 $191 reversed single #
loop $-1 $-1 $192 $75 #
plane-surface $-1 -35.735732482602415 37.099982230251996 87.485437750306957 0.62932039886446345 0 0.77714595512881146 0.77714595512881146 0 -0.62932039886446345 forward_v I I I I #
coedge $-1 $193 $194 $195 $196 reversed $76 $-1 #
face $-1 $-1 $197 $42 $-1 $198 forward single #
loop $-1 $199 $200 $78 #
cone-surface $-1 54.067037624534294 34.802877114725305 11.130444361318592 -0.62932039886446345 0 -0.77714595512881146 0.38857297756440573 0 -0.31466019943223172 1 I I -0.70710678118654746 0.70710678118654746 0.5 forward I I I I #
loop $-1 $-1 $201 $54 #
coedge $-1 $126 $126 $202 $203 reversed $79 $-1 #
face $-1 $-1 $204 $43 $-1 $205 forward single #
loop $-1 $206 $207 $81 #
cone-surface $-1 54.067037624534294 39.397087345778672 11.130444361318592 -0.62932039886446345 0 -0.77714595512881146 0.38857297756440573 0 -0.31466019943223172 1 I I -0.70710678118654746 0.70710678118654746 0.5 forward I I I I #
loop $-1 $-1 $208 $55 #
coedge $-1 $131 $131 $209 $210 reversed $82 $-1 #
face $-1 $211 $212 $44 $-1 $213 reversed single #
loop $-1 $-1 $214 $84 #
plane-surface $-1 -64.470961638233604 -14.55683881741998 6.9979226914310999 -0.81915205242281985 0 0.57357642473473569 0.57357642473473569 0 0.81915205242281985 forward_v I I I I #
coedge $-1 $215 $216 $217 $218 reversed $85 $-1 #
face $-1 $-1 $219 $45 $-1 $220 forward single #
loop $-1 $221 $222 $87 #
cone-surface $-1 -57.722489363854237 -18.898045411614667 12.19273619797541 0.81915205242281985 0 -0.57357642473473569 0.28678821236736785 0 0.40957602621140993 1 I I -0.70710678118654746 0.70710678118654746 0.5 forward I I I I #
loop $-1 $-1 $223 $57 #
coedge $-1 $140 $140 $224 $225 reversed $88 $-1 #
face $-1 $-1 $226 $46 $-1 $227 forward single #
loop $-1 $228 $229 $90 #
cone-surface $-1 -57.722489363854237 -14.55683881741998 12.19273619797541 0.81915205242281985 0 -0.57357642473473569 0.28678821236736785 0 0.40957602621140993 1 I I -0.70710678118654746 0.70710678118654746 0.5 forward I I I I #
loop $-1 $-1 $230 $58 #
coedge $-1 $145 $145 $231 $232 reversed $91 $-1 #
face $-1 $-1 $233 $47 $-1 $234 forward single #
loop $-1 $235 $236 $93 #
cone-surface $-1 -57.722489363854237 -10.215632223225292 12.19273619797541 0.81915205242281985 0 -0.57357642473473569 0.28678821236736785 0 0.40957602621140993 1 I I -0.70710678118654746 0.70710678118654746 0.5 forward I I I I #
loop $-1 $-1 $237 $59 #
coedge $-1 $150 $150 $238 $239 reversed $94 $-1 #
face $-1 $240 $241 $36 $-1 $242 reversed single #
loop $-1 $-1 $243 $96 #
plane-surface $-1 0 -42.459894166480936 0 0 1 0 0 0 1 forward_v I I I I #
coedge $-1 $244 $245 $246 $247 forward $97 $-1 #
coedge $-1 $248 $99 $249 $250 forward $61 $-1 #
coedge $-1 $99 $248 $251 $252 forward $61 $-1 #
coedge $-1 $253 $254 $99 $158 reversed $255 $-1 #
edge $-1 $256 -42.459894166480936 $257 42.459894166480936 $157 $258 forward 7 unknown #
face $-1 $259 $260 $37 $-1 $261 reversed single #
loop $-1 $-1 $262 $100 #
plane-surface $-1 0 -21.792183141077789 -8.5594647949634677 0 -1 0 0 0 -1 forward_v I I I I #
coedge $-1 $263 $264 $265 $266 reversed $101 $-1 #
coedge $-1 $267 $103 $268 $269 forward $64 $-1 #
coedge $-1 $103 $267 $270 $271 reversed $64 $-1 #
coedge $-1 $272 $273 $103 $166 forward $274 $-1 #
edge $-1 $275 5.7291638141881087 $276 26.396874839591256 $165 $277 forward 7 unknown #
face $-1 $278 $279 $38 $-1 $280 forward single #
loop $-1 $-1 $281 $104 #
plane-surface $-1 45.41005010409495 -11.072359268619913 187.69213187114298 0 -1 0 -0.62932039886446345 0 -0.77714595512881146 forward_v I I I I #
coedge $-1 $282 $283 $284 $285 reversed $105 $-1 #
coedge $-1 $172 $107 $286 $287 reversed $67 $-1 #
coedge $-1 $107 $171 $282 $288 reversed $67 $-1 #
coedge $-1 $284 $289 $107 $174 forward $290 $-1 #
edge $-1 $291 73.535109206738454 $292 87.506410771961896 $173 $293 forward 7 unknown #
loop $-1 $-1 $180 $108 #
plane-surface $-1 -35.735732482602415 -16.432271204848853 87.485437750306957 0.62932039886446345 0 0.77714595512881146 0.77714595512881146 0 -0.62932039886446345 forward_v I I I I #
loop $-1 $-1 $294 $69 #
coedge $-1 $178 $178 $179 $295 reversed $109 $-1 #
coedge $-1 $179 $179 $178 $295 forward $111 $-1 #
coedge $-1 $180 $180 $112 $181 forward $175 $-1 #
edge $-1 $296 0 $296 6.2831853071796004 $180 $297 forward 7 unknown #
loop $-1 $-1 $187 $113 #
plane-surface $-1 -35.735732482602415 -16.432271204848853 87.485437750306957 0.62932039886446345 0 0.77714595512881146 0.77714595512881146 0 -0.62932039886446345 forward_v I I I I #
loop $-1 $-1 $298 $72 #
coedge $-1 $185 $185 $186 $299 reversed $114 $-1 #
coedge $-1 $186 $186 $185 $299 forward $116 $-1 #
coedge $-1 $187 $187 $117 $188 forward $182 $-1 #
edge $-1 $300 0 $300 6.2831853071796004 $187 $301 forward 7 unknown #
face $-1 $302 $303 $41 $-1 $304 forward single #
loop $-1 $-1 $195 $118 #
plane-surface $-1 64.470961638233589 0 0 -1 0 0 0 0 1 forward_v I I I I #
coedge $-1 $305 $306 $307 $308 reversed $119 $-1 #
coedge $-1 $194 $121 $309 $310 reversed $76 $-1 #
coedge $-1 $121 $193 $305 $311 reversed $76 $-1 #
coedge $-1 $307 $312 $121 $196 forward $190 $-1 #
edge $-1 $313 73.535109206738454 $314 87.506410771961896 $195 $315 forward 7 unknown #
loop $-1 $-1 $202 $122 #
plane-surface $-1 -35.735732482602415 37.099982230251996 87.485437750306957 0.62932039886446345 0 0.77714595512881146 0.77714595512881146 0 -0.62932039886446345 forward_v I I I I #
loop $-1 $-1 $316 $78 #
coedge $-1 $200 $200 $201 $317 reversed $123 $-1 #
coedge $-1 $201 $201 $200 $317 forward $125 $-1 #
coedge $-1 $202 $202 $126 $203 forward $197 $-1 #
edge $-1 $318 0 $318 6.2831853071796004 $202 $319 forward 7 unknown #
loop $-1 $-1 $209 $127 #
plane-surface $-1 -35.735732482602415 37.099982230251996 87.485437750306957 0.62932039886446345 0 0.77714595512881146 0.77714595512881146 0 -0.62932039886446345 forward_v I I I I #
loop $-1 $-1 $320 $81 #
coedge $-1 $207 $207 $208 $321 reversed $128 $-1 #
coedge $-1 $208 $208 $207 $321 forward $130 $-1 #
coedge $-1 $209 $209 $131 $210 forward $204 $-1 #
edge $-1 $322 0 $322 6.2831853071796004 $209 $323 forward 7 unknown #
face $-1 $324 $325 $44 $-1 $326 reversed single #
loop $-1 $-1 $327 $132 #
plane-surface $-1 -170.09400273349746 -7.3214944937621667 80.955970042767746 0 -1 0 0.81915205242281985 0 -0.57357642473473569 forward_v I I I I #
coedge $-1 $328 $329 $330 $331 reversed $133 $-1 #
coedge $-1 $216 $135 $332 $333 reversed $85 $-1 #
coedge $-1 $135 $215 $328 $334 reversed $85 $-1 #
coedge $-1 $330 $335 $135 $218 forward $336 $-1 #
edge $-1 $337 20.576039728515141 $338 29.897926236593321 $217 $339 forward 7 unknown #
loop $-1 $-1 $224 $136 #
plane-surface $-1 -64.470961638233604 -14.55683881741998 6.9979226914310999 -0.81915205242281985 0 0.57357642473473569 0.57357642473473569 0 0.81915205242281985 forward_v I I I I #
loop $-1 $-1 $340 $87 #
coedge $-1 $222 $222 $223 $341 reversed $137 $-1 #
coedge $-1 $223 $223 $222 $341 forward $139 $-1 #
coedge $-1 $224 $224 $140 $225 forward $219 $-1 #
edge $-1 $342 0 $342 6.2831853071796004 $224 $343 forward 7 unknown #
loop $-1 $-1 $231 $141 #
plane-surface $-1 -64.470961638233604 -14.55683881741998 6.9979226914310999 -0.81915205242281985 0 0.57357642473473569 0.57357642473473569 0 0.81915205242281985 forward_v I I I I #
loop $-1 $-1 $344 $90 #
coedge $-1 $229 $229 $230 $345 reversed $142 $-1 #
coedge $-1 $230 $230 $229 $345 forward $144 $-1 #
coedge $-1 $231 $231 $145 $232 forward $226 $-1 #
edge $-1 $346 0 $346 6.2831853071796004 $231 $347 forward 7 unknown #
loop $-1 $-1 $238 $146 #
plane-surface $-1 -64.470961638233604 -14.55683881741998 6.9979226914310999 -0.81915205242281985 0 0.57357642473473569 0.57357642473473569 0 0.81915205242281985 forward_v I I I I #
loop $-1 $-1 $348 $93 #
coedge $-1 $236 $236 $237 $349 reversed $147 $-1 #
coedge $-1 $237 $237 $236 $349 forward $149 $-1 #
coedge $-1 $238 $238 $150 $239 forward $233 $-1 #
edge $-1 $350 0 $350 6.2831853071796004 $238 $351 forward 7 unknown #
face $-1 $352 $353 $36 $-1 $354 reversed single #
loop $-1 $-1 $355 $151 #
plane-surface $-1 -64.470961638233589 0 0 1 0 0 0 0 -1 forward_v I I I I #
coedge $-1 $356 $251 $357 $358 forward $152 $-1 #
coedge $-1 $359 $154 $356 $360 forward $97 $-1 #
coedge $-1 $154 $359 $361 $362 forward $97 $-1 #
coedge $-1 $254 $253 $154 $247 reversed $255 $-1 #
edge $-1 $363 -42.459894166480936 $364 42.459894166480936 $246 $365 forward 7 unknown #
coedge $-1 $156 $155 $366 $367 forward $61 $-1 #
coedge $-1 $368 $369 $155 $250 reversed $353 $-1 #
edge $-1 $257 -64.470961638233589 $370 64.470961638233589 $249 $371 forward 7 unknown #
coedge $-1 $243 $372 $156 $252 reversed $152 $-1 #
edge $-1 $373 -64.470961638233589 $256 64.470961638233589 $251 $374 forward 7 unknown #
coedge $-1 $246 $157 $372 $375 forward $255 $-1 #
coedge $-1 $157 $246 $368 $376 reversed $255 $-1 #
loop $-1 $-1 $253 $352 #
vertex $-1 $158 $377 #
vertex $-1 $158 $378 #
straight-curve $-1 64.470961638233589 0 20.310956728833037 0 1 0 I I #
face $-1 $379 $380 $37 $-1 $381 reversed single #
loop $-1 $-1 $382 $159 #
plane-surface $-1 -64.470961638233589 0 0 1 0 0 0 0 -1 forward_v I I I I #
coedge $-1 $383 $268 $273 $384 reversed $160 $-1 #
coedge $-1 $385 $162 $386 $387 reversed $101 $-1 #
coedge $-1 $162 $385 $383 $388 forward $101 $-1 #
coedge $-1 $273 $272 $162 $266 forward $274 $-1 #
edge $-1 $389 -26.396874839591256 $390 -5.7291638141881087 $265 $391 forward 7 unknown #
coedge $-1 $164 $163 $382 $392 reversed $64 $-1 #
coedge $-1 $262 $393 $163 $269 reversed $160 $-1 #
edge $-1 $275 -64.470961638233589 $394 64.470961638233589 $268 $395 forward 7 unknown #
coedge $-1 $396 $397 $164 $271 forward $380 $-1 #
edge $-1 $276 -64.470961638233589 $398 64.470961638233589 $270 $399 forward 7 unknown #
coedge $-1 $265 $165 $397 $400 forward $274 $-1 #
coedge $-1 $165 $265 $262 $384 forward $274 $-1 #
loop $-1 $-1 $165 $379 #
vertex $-1 $166 $401 #
vertex $-1 $400 $402 #
straight-curve $-1 64.470961638233589 -16.06301932688968 -3.8847896592936069 0 -1 0 I I #
face $-1 $-1 $290 $38 $-1 $403 reversed single #
loop $-1 $-1 $404 $167 #
plane-surface $-1 0 0 20.310956728833037 0 0 1 1 0 0 forward_v I I I I #
coedge $-1 $405 $406 $407 $408 reversed $168 $-1 #
coedge $-1 $409 $170 $172 $288 forward $105 $-1 #
coedge $-1 $170 $409 $405 $410 forward $105 $-1 #
coedge $-1 $407 $173 $170 $285 forward $290 $-1 #
edge $-1 $292 -13.576047538653366 $411 -2.8562236661954863 $284 $412 forward 7 unknown #
coedge $-1 $413 $414 $171 $287 forward $279 $-1 #
edge $-1 $415 24.512816364928753 $291 41.765936586186115 $286 $416 forward 7 unknown #
edge $-1 $292 -128.94192327646718 $415 -106.74130560948379 $172 $417 forward 7 unknown #
coedge $-1 $173 $407 $413 $418 reversed $290 $-1 #
loop $-1 $-1 $407 $278 #
vertex $-1 $418 $419 #
vertex $-1 $174 $420 #
straight-curve $-1 64.470961638233589 -21.792183141077793 93.846065935571488 0 0 -1 I I #
coedge $-1 $294 $294 $-1 $421 reversed $177 $-1 #
edge $-1 $422 0 $422 6.2831853071796004 $178 $423 forward 7 unknown #
vertex $-1 $181 $424 #
ellipse-curve $-1 55.844401527604887 -18.72937632037554 13.325305946221315 0.62932039886446345 0 0.77714595512881146 0.77714595512881146 0 -0.62932039886446345 1 I I #
coedge $-1 $298 $298 $-1 $425 reversed $184 $-1 #
edge $-1 $426 0 $426 6.2831853071796004 $185 $427 forward 7 unknown #
vertex $-1 $188 $428 #
ellipse-curve $-1 55.844401527604887 -14.135166089322162 13.325305946221315 0.62932039886446345 0 0.77714595512881146 0.77714595512881146 0 -0.62932039886446345 1 I I #
face $-1 $-1 $429 $41 $-1 $430 reversed single #
loop $-1 $-1 $309 $189 #
plane-surface $-1 0 0 20.310956728833037 0 0 1 1 0 0 forward_v I I I I #
coedge $-1 $431 $192 $194 $311 forward $119 $-1 #
coedge $-1 $192 $431 $432 $433 reversed $119 $-1 #
coedge $-1 $434 $195 $192 $308 forward $190 $-1 #
edge $-1 $314 13.190079178897058 $435 23.909903051354938 $307 $436 forward 7 unknown #
coedge $-1 $437 $438 $193 $310 forward $303 $-1 #
edge $-1 $439 24.512816364928753 $313 41.765936586186115 $309 $440 forward 7 unknown #
edge $-1 $314 -128.94192327646718 $439 -106.74130560948379 $194 $441 forward 7 unknown #
coedge $-1 $195 $434 $437 $442 reversed $190 $-1 #
vertex $-1 $442 $443 #
vertex $-1 $196 $444 #
straight-curve $-1 64.470961638233589 31.740070294023056 93.846065935571488 0 0 -1 I I #
coedge $-1 $316 $316 $-1 $445 reversed $199 $-1 #
edge $-1 $446 0 $446 6.2831853071796004 $200 $447 forward 7 unknown #
vertex $-1 $203 $448 #
ellipse-curve $-1 55.844401527604887 34.802877114725305 13.325305946221315 0.62932039886446345 0 0.77714595512881146 0.77714595512881146 0 -0.62932039886446345 1 I I #
coedge $-1 $320 $320 $-1 $449 reversed $206 $-1 #
edge $-1 $450 0 $450 6.2831853071796004 $207 $451 forward 7 unknown #
vertex $-1 $210 $452 #
ellipse-curve $-1 55.844401527604887 39.397087345778672 13.325305946221315 0.62932039886446345 0 0.77714595512881146 0.77714595512881146 0 -0.62932039886446345 1 I I #
face $-1 $-1 $336 $44 $-1 $453 forward single #
loop $-1 $-1 $454 $211 #
plane-surface $-1 -64.470961638233589 0 0 1 0 0 0 0 -1 forward_v I I I I #
coedge $-1 $455 $456 $457 $458 reversed $212 $-1 #
coedge $-1 $459 $214 $216 $334 forward $133 $-1 #
coedge $-1 $214 $459 $455 $460 forward $133 $-1 #
coedge $-1 $457 $217 $214 $331 forward $336 $-1 #
edge $-1 $338 -14.513763732367803 $461 -0.043075085052176831 $330 $462 forward 7 unknown #
coedge $-1 $463 $464 $215 $333 forward $325 $-1 #
edge $-1 $465 -33.480062329952752 $337 -20.167028292550835 $332 $466 forward 7 unknown #
edge $-1 $338 -16.252213490799114 $465 -2.4884734274515653e-014 $216 $467 forward 7 unknown #
coedge $-1 $217 $457 $463 $468 forward $336 $-1 #
loop $-1 $-1 $457 $324 #
vertex $-1 $333 $469 #
vertex $-1 $218 $470 #
straight-curve $-1 -85.047001366748731 -21.792183141077793 20.310956728833037 1 0 0 I I #
coedge $-1 $340 $340 $-1 $471 reversed $221 $-1 #
edge $-1 $472 0 $472 6.2831853071796004 $222 $473 forward 7 unknown #
vertex $-1 $225 $474 #
ellipse-curve $-1 -59.8100183841945 -18.898045411614667 13.654439710132076 -0.81915205242281985 0 0.57357642473473569 0.57357642473473569 0 0.81915205242281985 1 I I #
coedge $-1 $344 $344 $-1 $475 reversed $228 $-1 #
edge $-1 $476 0 $476 6.2831853071796004 $229 $477 forward 7 unknown #
vertex $-1 $232 $478 #
ellipse-curve $-1 -59.8100183841945 -14.55683881741998 13.654439710132076 -0.81915205242281985 0 0.57357642473473569 0.57357642473473569 0 0.81915205242281985 1 I I #
coedge $-1 $348 $348 $-1 $479 reversed $235 $-1 #
edge $-1 $480 0 $480 6.2831853071796004 $236 $481 forward 7 unknown #
vertex $-1 $239 $482 #
ellipse-curve $-1 -59.8100183841945 -10.215632223225292 13.654439710132076 -0.81915205242281985 0 0.57357642473473569 0.57357642473473569 0 0.81915205242281985 1 I I #
face $-1 $-1 $255 $36 $-1 $483 reversed single #
loop $-1 $-1 $368 $240 #
plane-surface $-1 0 42.459894166480936 0 0 -1 0 0 0 -1 forward_v I I I I #
coedge $-1 $484 $366 $369 $485 forward $241 $-1 #
coedge $-1 $372 $243 $244 $360 reversed $152 $-1 #
coedge $-1 $366 $484 $243 $358 reversed $241 $-1 #
edge $-1 $373 -20.310956728833037 $486 20.310956728833037 $357 $487 forward 7 unknown #
coedge $-1 $245 $244 $484 $488 forward $97 $-1 #
edge $-1 $364 -64.470961638233589 $486 64.470961638233589 $356 $489 forward 7 unknown #
coedge $-1 $369 $368 $245 $362 reversed $353 $-1 #
edge $-1 $490 -64.470961638233589 $363 64.470961638233589 $361 $491 forward 7 unknown #
vertex $-1 $247 $492 #
vertex $-1 $375 $493 #
straight-curve $-1 64.470961638233589 0 -20.310956728833037 0 -1 0 I I #
coedge $-1 $355 $357 $248 $367 reversed $241 $-1 #
edge $-1 $370 -42.459894166480936 $373 42.459894166480936 $366 $494 forward 7 unknown #
coedge $-1 $361 $249 $254 $376 forward $353 $-1 #
coedge $-1 $249 $361 $355 $485 reversed $353 $-1 #
vertex $-1 $250 $495 #
straight-curve $-1 0 42.459894166480936 20.310956728833037 -1 0 0 I I #
coedge $-1 $251 $356 $253 $375 reversed $152 $-1 #
vertex $-1 $367 $496 #
straight-curve $-1 0 -42.459894166480936 20.310956728833037 1 0 0 I I #
edge $-1 $256 -20.310956728833037 $364 20.310956728833037 $253 $497 forward 7 unknown #
edge $-1 $257 -20.310956728833037 $363 20.310956728833037 $254 $498 forward 7 unknown #
point $-1 64.470961638233589 -42.459894166480936 20.310956728833037 #
point $-1 64.470961638233589 42.459894166480936 20.310956728833037 #
face $-1 $-1 $274 $37 $-1 $499 reversed single #
loop $-1 $-1 $270 $259 #
plane-surface $-1 0 -42.459894166480936 0 0 1 0 0 0 1 forward_v I I I I #
coedge $-1 $500 $501 $267 $392 forward $260 $-1 #
coedge $-1 $393 $262 $264 $388 reversed $160 $-1 #
edge $-1 $390 -8.9544075331515955 $275 0.39494273818812697 $273 $502 forward 7 unknown #
coedge $-1 $264 $263 $503 $504 reversed $101 $-1 #
coedge $-1 $397 $396 $263 $387 forward $380 $-1 #
edge $-1 $505 -64.470961638233589 $389 64.470961638233589 $386 $506 forward 7 unknown #
edge $-1 $507 -64.470961638233589 $390 64.470961638233589 $383 $508 forward 7 unknown #
vertex $-1 $387 $509 #
vertex $-1 $266 $510 #
straight-curve $-1 64.470961638233589 -16.06301932688968 -13.234139930633329 0 1 0 I I #
edge $-1 $398 -26.396874839591256 $394 -5.7291638141881087 $382 $511 forward 7 unknown #
coedge $-1 $268 $383 $500 $512 reversed $160 $-1 #
vertex $-1 $392 $513 #
straight-curve $-1 0 -21.792183141077789 -3.8847896592936069 -1 0 0 I I #
coedge $-1 $386 $270 $501 $514 forward $380 $-1 #
coedge $-1 $270 $386 $272 $400 reversed $380 $-1 #
vertex $-1 $514 $515 #
straight-curve $-1 0 -42.459894166480936 -3.8847896592936069 -1 0 0 I I #
edge $-1 $276 3.8847896592936069 $389 13.234139930633329 $272 $516 forward 7 unknown #
point $-1 64.470961638233589 -21.792183141077789 -3.8847896592936069 #
point $-1 64.470961638233589 -42.459894166480936 -3.8847896592936069 #
plane-surface $-1 64.470961638233589 0 0 -1 0 0 0 0 1 forward_v I I I I #
coedge $-1 $414 $413 $406 $517 forward $279 $-1 #
coedge $-1 $406 $281 $283 $410 reversed $168 $-1 #
coedge $-1 $281 $405 $404 $517 reversed $168 $-1 #
coedge $-1 $289 $284 $281 $408 forward $290 $-1 #
edge $-1 $411 -87.506410771961896 $518 -73.535109206738454 $407 $519 forward 7 unknown #
coedge $-1 $283 $282 $414 $520 reversed $105 $-1 #
edge $-1 $521 106.74130560948379 $411 128.94192327646718 $405 $522 forward 7 unknown #
vertex $-1 $285 $523 #
straight-curve $-1 64.470961638233589 -8.2161356024244263 6.3396551636095921 0 1 0 I I #
coedge $-1 $404 $286 $289 $418 forward $279 $-1 #
coedge $-1 $286 $404 $409 $520 forward $279 $-1 #
vertex $-1 $287 $524 #
straight-curve $-1 22.705025052047475 -21.792183141077793 20.310956728833034 1 0 0 I I #
straight-curve $-1 -35.735732482602415 -21.792183141077793 87.485437750306957 -0.77714595512881146 0 0.62932039886446345 I I #
edge $-1 $291 -21.792183141077793 $518 -11.072359268619913 $289 $525 forward 7 unknown #
point $-1 64.470961638233589 -21.792183141077793 20.310956728833037 #
point $-1 64.470961638233604 -21.792183141077793 6.3396551636095921 #
edge $-1 $526 1 $526 0 $294 $-1 forward 7 unknown #
vertex $-1 $295 $527 #
ellipse-curve $-1 54.381697823966526 -18.72937632037554 11.519017338882998 0.62932039886446345 0 0.77714595512881146 0.77714595512881146 0 -0.62932039886446345 1 I I #
point $-1 56.62154748273371 -18.72937632037554 12.695985547356866 #
edge $-1 $528 1 $528 0 $298 $-1 forward 7 unknown #
vertex $-1 $299 $529 #
ellipse-curve $-1 54.381697823966526 -14.135166089322162 11.519017338882998 0.62932039886446345 0 0.77714595512881146 0.77714595512881146 0 -0.62932039886446345 1 I I #
point $-1 56.62154748273371 -14.135166089322162 12.695985547356866 #
loop $-1 $-1 $432 $302 #
plane-surface $-1 0 42.459894166480936 0 0 -1 0 0 0 -1 forward_v I I I I #
coedge $-1 $306 $305 $438 $530 reversed $119 $-1 #
coedge $-1 $531 $532 $306 $433 forward $429 $-1 #
edge $-1 $435 -87.527798010329633 $533 -65.327180343346242 $432 $534 forward 7 unknown #
coedge $-1 $312 $307 $532 $535 reversed $190 $-1 #
vertex $-1 $433 $536 #
straight-curve $-1 64.470961638233589 18.549991115125998 6.3396551636095921 0 1 0 I I #
coedge $-1 $537 $309 $312 $442 forward $303 $-1 #
coedge $-1 $309 $537 $431 $530 forward $303 $-1 #
vertex $-1 $310 $538 #
straight-curve $-1 22.705025052047475 31.740070294023056 20.310956728833034 1 0 0 I I #
straight-curve $-1 -35.735732482602415 31.740070294023056 87.485437750306957 -0.77714595512881146 0 0.62932039886446345 I I #
edge $-1 $313 31.740070294023056 $539 42.459894166480936 $312 $540 forward 7 unknown #
point $-1 64.470961638233589 31.740070294023056 20.310956728833037 #
point $-1 64.470961638233604 31.740070294023056 6.3396551636095921 #
edge $-1 $541 1 $541 0 $316 $-1 forward 7 unknown #
vertex $-1 $317 $542 #
ellipse-curve $-1 54.381697823966526 34.802877114725305 11.519017338882998 0.62932039886446345 0 0.77714595512881146 0.77714595512881146 0 -0.62932039886446345 1 I I #
point $-1 56.62154748273371 34.802877114725305 12.695985547356866 #
edge $-1 $543 1 $543 0 $320 $-1 forward 7 unknown #
vertex $-1 $321 $544 #
ellipse-curve $-1 54.381697823966526 39.397087345778672 11.519017338882998 0.62932039886446345 0 0.77714595512881146 0.77714595512881146 0 -0.62932039886446345 1 I I #
point $-1 56.62154748273371 39.397087345778672 12.695985547356866 #
plane-surface $-1 0 0 20.310956728833037 0 0 1 1 0 0 forward_v I I I I #
coedge $-1 $464 $463 $456 $545 forward $325 $-1 #
coedge $-1 $456 $327 $329 $460 reversed $212 $-1 #
coedge $-1 $327 $455 $454 $545 reversed $212 $-1 #
coedge $-1 $335 $330 $327 $458 forward $336 $-1 #
edge $-1 $461 -29.897926236593321 $546 -20.576039728515141 $457 $547 forward 7 unknown #
coedge $-1 $329 $328 $464 $548 reversed $133 $-1 #
edge $-1 $549 2.4884734274515653e-014 $461 16.252213490799114 $455 $550 forward 7 unknown #
vertex $-1 $331 $551 #
straight-curve $-1 -55.14907513015541 -7.2784194087099898 20.310956728833037 0 1 0 I I #
coedge $-1 $454 $332 $335 $468 reversed $325 $-1 #
coedge $-1 $332 $454 $459 $548 forward $325 $-1 #
vertex $-1 $333 $552 #
straight-curve $-1 -64.470961638233589 -21.792183141077793 40.477985021383873 0 0 1 I I #
straight-curve $-1 -64.470961638233604 -21.792183141077793 6.9979226914310999 -0.57357642473473569 0 -0.81915205242281985 I I #
edge $-1 $546 7.3214944937621667 $337 21.792183141077793 $463 $553 forward 7 unknown #
point $-1 -64.470961638233589 -21.792183141077793 20.310956728833037 #
point $-1 -55.14907513015541 -21.792183141077793 20.310956728833034 #
edge $-1 $554 1 $554 0 $340 $-1 forward 7 unknown #
vertex $-1 $341 $555 #
ellipse-curve $-1 -58.132065390065648 -18.898045411614667 12.479524410342778 -0.81915205242281985 0 0.57357642473473569 0.57357642473473569 0 0.81915205242281985 1 I I #
point $-1 -59.236441959459746 -18.898045411614667 14.47359176255488 #
edge $-1 $556 1 $556 0 $344 $-1 forward 7 unknown #
vertex $-1 $345 $557 #
ellipse-curve $-1 -58.132065390065648 -14.55683881741998 12.479524410342778 -0.81915205242281985 0 0.57357642473473569 0.57357642473473569 0 0.81915205242281985 1 I I #
point $-1 -59.236441959459746 -14.55683881741998 14.47359176255488 #
edge $-1 $558 1 $558 0 $348 $-1 forward 7 unknown #
vertex $-1 $349 $559 #
ellipse-curve $-1 -58.132065390065648 -10.215632223225292 12.479524410342778 -0.81915205242281985 0 0.57357642473473569 0.57357642473473569 0 0.81915205242281985 1 I I #
point $-1 -59.236441959459746 -10.215632223225292 14.47359176255488 #
plane-surface $-1 64.470961638233589 0 0 -1 0 0 0 0 1 forward_v I I I I #
coedge $-1 $357 $355 $359 $488 reversed $241 $-1 #
edge $-1 $370 -20.310956728833037 $490 20.310956728833037 $369 $560 forward 7 unknown #
vertex $-1 $488 $561 #
straight-curve $-1 -64.470961638233589 -42.459894166480936 0 0 0 -1 I I #
edge $-1 $486 -42.459894166480936 $490 42.459894166480936 $484 $562 forward 7 unknown #
straight-curve $-1 0 -42.459894166480936 -20.310956728833037 -1 0 0 I I #
vertex $-1 $362 $563 #
straight-curve $-1 0 42.459894166480936 -20.310956728833037 1 0 0 I I #
point $-1 64.470961638233589 42.459894166480936 -20.310956728833037 #
point $-1 64.470961638233589 -42.459894166480936 -20.310956728833037 #
straight-curve $-1 -64.470961638233589 0 20.310956728833037 0 -1 0 I I #
point $-1 -64.470961638233589 42.459894166480936 20.310956728833037 #
point $-1 -64.470961638233589 -42.459894166480936 20.310956728833037 #
straight-curve $-1 64.470961638233589 -42.459894166480936 0 0 0 -1 I I #
straight-curve $-1 64.470961638233589 42.459894166480936 0 0 0 -1 I I #
plane-surface $-1 64.470961638233589 0 0 -1 0 0 0 0 1 forward_v I I I I #
coedge $-1 $503 $382 $393 $512 forward $260 $-1 #
coedge $-1 $382 $503 $396 $514 reversed $260 $-1 #
straight-curve $-1 64.470961638233589 -21.792183141077789 -4.2797323974817338 0 0 1 I I #
coedge $-1 $501 $500 $385 $504 forward $260 $-1 #
edge $-1 $507 5.7291638141881087 $505 26.396874839591256 $503 $564 forward 7 unknown #
vertex $-1 $387 $565 #
straight-curve $-1 0 -42.459894166480936 -13.234139930633329 1 0 0 I I #
vertex $-1 $504 $566 #
straight-curve $-1 0 -21.792183141077789 -13.234139930633329 1 0 0 I I #
point $-1 64.470961638233589 -42.459894166480936 -13.234139930633329 #
point $-1 64.470961638233589 -21.792183141077789 -13.234139930633329 #
straight-curve $-1 -64.470961638233589 -16.06301932688968 -3.8847896592936069 0 1 0 I I #
edge $-1 $394 -0.39494273818812697 $507 8.9544075331515955 $500 $567 forward 7 unknown #
point $-1 -64.470961638233589 -21.792183141077789 -3.8847896592936069 #
edge $-1 $398 3.8847896592936069 $505 13.234139930633329 $501 $568 forward 7 unknown #
point $-1 -64.470961638233589 -42.459894166480936 -3.8847896592936069 #
straight-curve $-1 64.470961638233589 -42.459894166480936 0 0 0 -1 I I #
edge $-1 $518 -41.765936586186115 $521 -24.512816364928753 $404 $569 forward 7 unknown #
vertex $-1 $517 $570 #
straight-curve $-1 64.470961638233589 -11.072359268619913 93.846065935571488 0 0 1 I I #
edge $-1 $521 2.8562236661954863 $415 13.576047538653366 $414 $571 forward 7 unknown #
vertex $-1 $520 $572 #
straight-curve $-1 -35.735732482602415 -11.072359268619913 87.485437750306957 0.77714595512881146 0 -0.62932039886446345 I I #
point $-1 64.470961638233604 -11.072359268619913 6.3396551636095921 #
point $-1 47.217841416976228 -21.792183141077793 20.310956728833034 #
straight-curve $-1 64.470961638233589 0 20.310956728833037 0 1 0 I I #
vertex $-1 $421 $573 #
point $-1 55.158843779095335 -18.72937632037554 10.889696940018535 #
vertex $-1 $425 $574 #
point $-1 55.158843779095335 -14.135166089322162 10.889696940018535 #
edge $-1 $533 -23.909903051354938 $439 -13.190079178897058 $438 $575 forward 7 unknown #
coedge $-1 $532 $432 $537 $576 reversed $429 $-1 #
coedge $-1 $432 $531 $434 $535 forward $429 $-1 #
vertex $-1 $433 $577 #
straight-curve $-1 -3.550912546825705 42.459894166480936 61.42268391919842 -0.77714595512881146 0 0.62932039886446345 I I #
edge $-1 $539 -20.310956728833037 $435 -6.3396551636095921 $434 $578 forward 7 unknown #
point $-1 64.470961638233604 42.459894166480936 6.3396551636095921 #
coedge $-1 $438 $437 $531 $576 forward $303 $-1 #
point $-1 47.217841416976228 31.740070294023056 20.310956728833034 #
vertex $-1 $442 $579 #
straight-curve $-1 64.470961638233589 0 20.310956728833037 0 1 0 I I #
vertex $-1 $445 $580 #
point $-1 55.158843779095335 34.802877114725305 10.889696940018535 #
vertex $-1 $449 $581 #
point $-1 55.158843779095335 39.397087345778672 10.889696940018535 #
edge $-1 $546 20.167028292550835 $549 33.480062329952752 $454 $582 forward 7 unknown #
vertex $-1 $468 $583 #
straight-curve $-1 -85.047001366748731 -7.3214944937621667 20.310956728833037 -1 0 0 I I #
edge $-1 $549 0.043075085052176831 $465 14.513763732367803 $464 $584 forward 7 unknown #
vertex $-1 $548 $585 #
straight-curve $-1 -64.470961638233604 -7.3214944937621667 6.9979226914310999 0.57357642473473569 0 0.81915205242281985 I I #
point $-1 -55.14907513015541 -7.3214944937621667 20.310956728833034 #
point $-1 -64.470961638233589 -21.792183141077793 6.9979226914311203 #
straight-curve $-1 -64.470961638233589 0 20.310956728833037 0 -1 0 I I #
vertex $-1 $471 $586 #
point $-1 -57.558488965330909 -18.898045411614667 13.298676462765599 #
vertex $-1 $475 $587 #
point $-1 -57.558488965330909 -14.55683881741998 13.298676462765599 #
vertex $-1 $479 $588 #
point $-1 -57.558488965330909 -10.215632223225292 13.298676462765599 #
straight-curve $-1 -64.470961638233589 42.459894166480936 0 0 0 -1 I I #
point $-1 -64.470961638233589 -42.459894166480936 -20.310956728833037 #
straight-curve $-1 -64.470961638233589 0 -20.310956728833037 0 1 0 I I #
point $-1 -64.470961638233589 42.459894166480936 -20.310956728833037 #
straight-curve $-1 -64.470961638233589 -16.06301932688968 -13.234139930633329 0 -1 0 I I #
point $-1 -64.470961638233589 -42.459894166480936 -13.234139930633329 #
point $-1 -64.470961638233589 -21.792183141077789 -13.234139930633329 #
straight-curve $-1 -64.470961638233589 -21.792183141077789 -4.2797323974817338 0 0 -1 I I #
straight-curve $-1 -64.470961638233589 -42.459894166480936 0 0 0 -1 I I #
straight-curve $-1 22.705025052047475 -11.072359268619913 20.310956728833034 -1 0 0 I I #
point $-1 64.470961638233589 -11.072359268619913 20.310956728833037 #
straight-curve $-1 47.217841416976228 -8.2161356024244263 20.310956728833027 0 -1 0 I I #
point $-1 47.217841416976228 -11.072359268619913 20.310956728833034 #
point $-1 53.752377425102061 -18.72937632037554 10.741871383754185 #
point $-1 53.752377425102061 -14.135166089322162 10.741871383754185 #
straight-curve $-1 47.217841416976228 18.549991115125998 20.310956728833027 0 -1 0 I I #
edge $-1 $539 -64.470961638233589 $533 -47.217841416976228 $531 $589 forward 7 unknown #
point $-1 47.217841416976228 42.459894166480936 20.310956728833034 #
straight-curve $-1 64.470961638233589 42.459894166480936 0 0 0 -1 I I #
point $-1 64.470961638233589 42.459894166480936 20.310956728833037 #
point $-1 53.752377425102061 34.802877114725305 10.741871383754185 #
point $-1 53.752377425102061 39.397087345778672 10.741871383754185 #
straight-curve $-1 -64.470961638233589 -7.3214944937621667 40.477985021383873 0 0 -1 I I #
point $-1 -64.470961638233589 -7.3214944937621667 20.310956728833037 #
straight-curve $-1 -64.470961638233589 -7.2784194087099898 6.9979226914311408 0 -1 0 I I #
point $-1 -64.470961638233589 -7.3214944937621667 6.9979226914311203 #
point $-1 -57.312913337642826 -18.898045411614667 11.905947985608043 #
point $-1 -57.312913337642826 -14.55683881741998 11.905947985608043 #
point $-1 -57.312913337642826 -10.215632223225292 11.905947985608043 #
straight-curve $-1 0 42.459894166480936 20.310956728833037 -1 0 0 I I #
End-of-ACIS-data 