500 0 13 0           
7 Unknown 11 ACIS 5.0 NT 24 Fri Mar 26 19:43:49 1999 
-1 9.9999999999999995e-007 1e-010 
body $-1 $13 $-1 $14 #
body $-1 $15 $-1 $16 #
body $-1 $17 $-1 $18 #
body $-1 $19 $-1 $20 #
body $-1 $21 $-1 $22 #
body $-1 $23 $-1 $24 #
body $-1 $25 $-1 $26 #
body $-1 $27 $-1 $28 #
body $-1 $29 $-1 $30 #
body $-1 $31 $-1 $32 #
body $-1 $33 $-1 $34 #
body $-1 $35 $-1 $36 #
body $-1 $37 $-1 $38 #
lump $-1 $-1 $39 $0 #
transform $-1 1 0 0 0 1 0 0 0 1 46.013367107150486 29.677477312717294 11.271681048142888 1 rotate no_reflect no_shear #
lump $-1 $-1 $40 $1 #
transform $-1 1 0 0 0 1 0 0 0 1 46.013367107150486 29.677477312717294 11.271681048142888 1 rotate no_reflect no_shear #
lump $-1 $-1 $41 $2 #
transform $-1 1 0 0 0 1 0 0 0 1 46.013367107150486 29.677477312717294 11.271681048142888 1 rotate no_reflect no_shear #
lump $-1 $-1 $42 $3 #
transform $-1 1 0 0 0 1 0 0 0 1 46.013367107150486 29.677477312717294 11.271681048142888 1 rotate no_reflect no_shear #
lump $-1 $-1 $43 $4 #
transform $-1 1 0 0 0 1 0 0 0 1 46.013367107150486 29.677477312717294 11.271681048142888 1 rotate no_reflect no_shear #
lump $-1 $-1 $44 $5 #
transform $-1 1 0 0 0 1 0 0 0 1 46.013367107150486 29.677477312717294 11.271681048142888 1 rotate no_reflect no_shear #
lump $-1 $-1 $45 $6 #
transform $-1 1 0 0 0 1 0 0 0 1 46.013367107150486 29.677477312717294 11.271681048142888 1 rotate no_reflect no_shear #
lump $-1 $-1 $46 $7 #
transform $-1 1 0 0 0 1 0 0 0 1 46.013367107150486 29.677477312717294 11.271681048142888 1 rotate no_reflect no_shear #
lump $-1 $-1 $47 $8 #
transform $-1 1 0 0 0 1 0 0 0 1 46.013367107150486 29.677477312717294 11.271681048142888 1 rotate no_reflect no_shear #
lump $-1 $-1 $48 $9 #
transform $-1 1 0 0 0 1 0 0 0 1 46.013367107150486 29.677477312717294 11.271681048142888 1 rotate no_reflect no_shear #
lump $-1 $-1 $49 $10 #
transform $-1 1 0 0 0 1 0 0 0 1 46.013367107150486 29.677477312717294 11.271681048142888 1 rotate no_reflect no_shear #
lump $-1 $-1 $50 $11 #
transform $-1 1 0 0 0 1 0 0 0 1 46.013367107150486 29.677477312717294 11.271681048142888 1 rotate no_reflect no_shear #
lump $-1 $-1 $51 $12 #
transform $-1 1 0 0 0 1 0 0 0 1 46.013367107150486 29.677477312717294 11.271681048142888 1 rotate no_reflect no_shear #
shell $-1 $-1 $-1 $52 $-1 $13 #
shell $-1 $-1 $-1 $53 $-1 $15 #
shell $-1 $-1 $-1 $54 $-1 $17 #
shell $-1 $-1 $-1 $55 $-1 $19 #
shell $-1 $-1 $-1 $56 $-1 $21 #
shell $-1 $-1 $-1 $57 $-1 $23 #
shell $-1 $-1 $-1 $58 $-1 $25 #
shell $-1 $-1 $-1 $59 $-1 $27 #
shell $-1 $-1 $-1 $60 $-1 $29 #
shell $-1 $-1 $-1 $61 $-1 $31 #
shell $-1 $-1 $-1 $62 $-1 $33 #
shell $-1 $-1 $-1 $63 $-1 $35 #
shell $-1 $-1 $-1 $64 $-1 $37 #
face $-1 $65 $66 $39 $-1 $67 reversed single #
face $-1 $68 $69 $40 $-1 $70 forward single #
face $-1 $71 $72 $41 $-1 $73 reversed single #
face $-1 $74 $75 $42 $-1 $76 forward single #
face $-1 $77 $78 $43 $-1 $79 forward single #
face $-1 $80 $81 $44 $-1 $82 reversed single #
face $-1 $83 $84 $45 $-1 $85 forward single #
face $-1 $86 $87 $46 $-1 $88 reversed single #
face $-1 $89 $90 $47 $-1 $91 forward single #
face $-1 $92 $93 $48 $-1 $94 reversed single #
face $-1 $95 $96 $49 $-1 $97 forward single #
face $-1 $98 $99 $50 $-1 $100 reversed single #
face $-1 $101 $102 $51 $-1 $103 forward single #
face $-1 $104 $105 $39 $-1 $106 forward single #
loop $-1 $-1 $107 $52 #
plane-surface $-1 0 -29.677477312717294 0 0 1 0 0 0 1 forward_v I I I I #
face $-1 $108 $109 $40 $-1 $110 forward single #
loop $-1 $-1 $111 $53 #
plane-surface $-1 0 -29.677477312717294 0 0 1 0 0 0 1 forward_v I I I I #
face $-1 $112 $113 $41 $-1 $114 reversed single #
loop $-1 $-1 $115 $54 #
plane-surface $-1 34.670444593898907 -6.0724087814987655 135.51412726866636 0 -1 0 -0.64278761758704617 0 -0.76604443648966558 forward_v I I I I #
face $-1 $116 $117 $42 $-1 $118 forward single #
loop $-1 $119 $120 $55 #
cone-surface $-1 42.40076014131693 -12.248733156677453 8.1027226325176649 -0.64278761758704617 0 -0.76604443648966558 0.38302221824483279 0 -0.32139380879352308 1 I I 0 1 0.5 forward I I I I #
face $-1 $121 $122 $43 $-1 $123 forward single #
loop $-1 $124 $125 $56 #
cone-surface $-1 42.40076014131693 -8.5429385315702362 8.1027226325176649 -0.64278761758704617 0 -0.76604443648966558 0.38302221824483279 0 -0.32139380879352308 1 I I 0 1 0.5 forward I I I I #
face $-1 $126 $127 $44 $-1 $128 reversed single #
loop $-1 $-1 $129 $57 #
plane-surface $-1 -114.40255920618327 -15.750328999356817 68.849419858299569 0 1 0 -0.74314483375859142 0 0.66913059716165679 forward_v I I I I #
face $-1 $130 $131 $45 $-1 $132 forward single #
loop $-1 $133 $134 $58 #
cone-surface $-1 -43.714121738972516 -12.055817056570866 8.8228704796318453 0.74314483375859142 0 -0.66913059716165679 0.66913059716165679 0 0.74314483375859142 1 I I 0 1 1 forward I I I I #
face $-1 $135 $136 $46 $-1 $137 reversed single #
loop $-1 $-1 $138 $59 #
plane-surface $-1 -114.40255920618327 -3.8061939492293364 68.849419858299569 0 1 0 -0.74314483375859142 0 0.66913059716165679 forward_v I I I I #
face $-1 $139 $140 $47 $-1 $141 forward single #
loop $-1 $142 $143 $60 #
cone-surface $-1 -43.714121738972516 -0.11168200644338455 8.8228704796318453 0.74314483375859142 0 -0.66913059716165679 0.66913059716165679 0 0.74314483375859142 1 I I 0 1 1 forward I I I I #
face $-1 $144 $145 $48 $-1 $146 reversed single #
loop $-1 $-1 $147 $61 #
plane-surface $-1 -114.40255920618327 8.1379411008981464 68.849419858299569 0 1 0 -0.74314483375859142 0 0.66913059716165679 forward_v I I I I #
face $-1 $148 $149 $49 $-1 $150 forward single #
loop $-1 $151 $152 $62 #
cone-surface $-1 -43.714121738972516 11.832453043684097 8.8228704796318453 0.74314483375859142 0 -0.66913059716165679 0.66913059716165679 0 0.74314483375859142 1 I I 0 1 1 forward I I I I #
face $-1 $153 $154 $50 $-1 $155 reversed single #
loop $-1 $-1 $156 $63 #
plane-surface $-1 -114.40255920618327 20.082076151025625 68.849419858299569 0 1 0 -0.74314483375859142 0 0.66913059716165679 forward_v I I I I #
face $-1 $157 $158 $51 $-1 $159 forward single #
loop $-1 $160 $161 $64 #
cone-surface $-1 -43.714121738972516 23.776588093811576 8.8228704796318453 0.74314483375859142 0 -0.66913059716165679 0.66913059716165679 0 0.74314483375859142 1 I I 0 1 1 forward I I I I #
face $-1 $162 $163 $39 $-1 $164 reversed single #
loop $-1 $-1 $165 $65 #
plane-surface $-1 0 0 11.271681048142888 0 0 1 1 0 0 forward_v I I I I #
coedge $-1 $166 $167 $168 $169 reversed $66 $-1 #
face $-1 $170 $171 $40 $-1 $172 reversed single #
loop $-1 $-1 $173 $68 #
plane-surface $-1 0 0 11.271681048142888 0 0 1 1 0 0 forward_v I I I I #
coedge $-1 $174 $175 $176 $177 forward $69 $-1 #
face $-1 $178 $179 $41 $-1 $180 reversed single #
loop $-1 $-1 $181 $71 #
plane-surface $-1 -24.483200646027925 -10.395835844123848 65.017559515487946 0.64278761758704617 0 0.76604443648966558 0.76604443648966558 0 -0.64278761758704617 forward_v I I I I #
coedge $-1 $182 $183 $184 $185 reversed $72 $-1 #
face $-1 $-1 $186 $42 $-1 $187 forward single #
loop $-1 $188 $189 $74 #
cone-surface $-1 41.849818943162319 -12.248733156677453 7.4461364940609158 -0.64278761758704617 0 -0.76604443648966558 0.1915111091224164 0 -0.16069690439676154 1 I I -0.70710678118654746 0.70710678118654746 0.25 forward I I I I #
loop $-1 $-1 $190 $55 #
coedge $-1 $120 $120 $191 $192 reversed $75 $-1 #
face $-1 $-1 $193 $43 $-1 $194 forward single #
loop $-1 $195 $196 $77 #
cone-surface $-1 41.849818943162319 -8.5429385315702362 7.4461364940609158 -0.64278761758704617 0 -0.76604443648966558 0.1915111091224164 0 -0.16069690439676154 1 I I -0.70710678118654746 0.70710678118654746 0.25 forward I I I I #
loop $-1 $-1 $197 $56 #
coedge $-1 $125 $125 $198 $199 reversed $78 $-1 #
face $-1 $200 $201 $44 $-1 $202 reversed single #
loop $-1 $-1 $203 $80 #
plane-surface $-1 -46.013367107150501 -12.055817056570866 7.2715162386472869 -0.74314483375859142 0 0.66913059716165679 0.66913059716165679 0 0.74314483375859142 forward_v I I I I #
coedge $-1 $204 $205 $206 $207 reversed $81 $-1 #
face $-1 $-1 $208 $45 $-1 $209 forward single #
loop $-1 $210 $211 $83 #
cone-surface $-1 -42.844186195257954 -12.055817056570866 8.0395770172877725 0.74314483375859142 0 -0.66913059716165679 0.3345652985808284 0 0.37157241687929571 1 I I -0.70710678118654746 0.70710678118654746 0.5 forward I I I I #
loop $-1 $-1 $212 $58 #
coedge $-1 $134 $134 $213 $214 reversed $84 $-1 #
face $-1 $215 $216 $46 $-1 $217 reversed single #
loop $-1 $-1 $218 $86 #
plane-surface $-1 -46.013367107150501 -0.11168200644338455 7.2715162386472869 -0.74314483375859142 0 0.66913059716165679 0.66913059716165679 0 0.74314483375859142 forward_v I I I I #
coedge $-1 $219 $220 $221 $222 reversed $87 $-1 #
face $-1 $-1 $223 $47 $-1 $224 forward single #
loop $-1 $225 $226 $89 #
cone-surface $-1 -42.844186195257954 -0.11168200644338455 8.0395770172877725 0.74314483375859142 0 -0.66913059716165679 0.3345652985808284 0 0.37157241687929571 1 I I -0.70710678118654746 0.70710678118654746 0.5 forward I I I I #
loop $-1 $-1 $227 $60 #
coedge $-1 $143 $143 $228 $229 reversed $90 $-1 #
face $-1 $230 $231 $48 $-1 $232 reversed single #
loop $-1 $-1 $233 $92 #
plane-surface $-1 -46.013367107150501 11.832453043684097 7.2715162386472869 -0.74314483375859142 0 0.66913059716165679 0.66913059716165679 0 0.74314483375859142 forward_v I I I I #
coedge $-1 $234 $235 $236 $237 reversed $93 $-1 #
face $-1 $-1 $238 $49 $-1 $239 forward single #
loop $-1 $240 $241 $95 #
cone-surface $-1 -42.844186195257954 11.832453043684097 8.0395770172877725 0.74314483375859142 0 -0.66913059716165679 0.3345652985808284 0 0.37157241687929571 1 I I -0.70710678118654746 0.70710678118654746 0.5 forward I I I I #
loop $-1 $-1 $242 $62 #
coedge $-1 $152 $152 $243 $244 reversed $96 $-1 #
face $-1 $245 $246 $50 $-1 $247 reversed single #
loop $-1 $-1 $248 $98 #
plane-surface $-1 -46.013367107150501 23.776588093811576 7.2715162386472869 -0.74314483375859142 0 0.66913059716165679 0.66913059716165679 0 0.74314483375859142 forward_v I I I I #
coedge $-1 $249 $250 $251 $252 reversed $99 $-1 #
face $-1 $-1 $253 $51 $-1 $254 forward single #
loop $-1 $255 $256 $101 #
cone-surface $-1 -42.844186195257954 23.776588093811576 8.0395770172877725 0.74314483375859142 0 -0.66913059716165679 0.3345652985808284 0 0.37157241687929571 1 I I -0.70710678118654746 0.70710678118654746 0.5 forward I I I I #
loop $-1 $-1 $257 $64 #
coedge $-1 $161 $161 $258 $259 reversed $102 $-1 #
face $-1 $260 $261 $39 $-1 $262 reversed single #
loop $-1 $-1 $263 $104 #
plane-surface $-1 0 0 -11.271681048142888 0 0 1 1 0 0 forward_v I I I I #
coedge $-1 $264 $265 $266 $267 forward $105 $-1 #
coedge $-1 $268 $107 $269 $270 reversed $66 $-1 #
coedge $-1 $107 $268 $271 $272 forward $66 $-1 #
coedge $-1 $273 $263 $107 $169 forward $163 $-1 #
edge $-1 $274 -46.013367107150486 $275 46.013367107150486 $107 $276 forward 7 unknown #
face $-1 $277 $278 $40 $-1 $279 reversed single #
loop $-1 $-1 $280 $108 #
plane-surface $-1 -46.013367107150486 0 0 1 0 0 0 0 -1 forward_v I I I I #
coedge $-1 $281 $282 $175 $283 forward $109 $-1 #
coedge $-1 $284 $111 $285 $286 reversed $69 $-1 #
coedge $-1 $111 $284 $173 $283 reversed $69 $-1 #
coedge $-1 $287 $288 $111 $177 reversed $289 $-1 #
edge $-1 $290 -11.271681048142888 $291 11.271681048142888 $176 $292 forward 7 unknown #
face $-1 $293 $294 $41 $-1 $295 forward single #
loop $-1 $-1 $296 $112 #
plane-surface $-1 34.670444593898907 -14.719262906748931 135.51412726866636 0 1 0 0.64278761758704617 0 0.76604443648966558 forward_v I I I I #
coedge $-1 $297 $298 $299 $300 reversed $113 $-1 #
coedge $-1 $183 $115 $301 $302 reversed $72 $-1 #
coedge $-1 $115 $182 $297 $303 reversed $72 $-1 #
coedge $-1 $299 $304 $115 $185 forward $294 $-1 #
edge $-1 $305 -28.678144810201033 $306 -22.233419466049625 $184 $307 forward 7 unknown #
loop $-1 $-1 $191 $116 #
plane-surface $-1 -24.483200646027925 -10.395835844123848 65.017559515487946 0.64278761758704617 0 0.76604443648966558 0.76604443648966558 0 -0.64278761758704617 forward_v I I I I #
loop $-1 $-1 $308 $74 #
coedge $-1 $189 $189 $190 $309 reversed $117 $-1 #
coedge $-1 $190 $190 $189 $309 forward $119 $-1 #
coedge $-1 $191 $191 $120 $192 forward $186 $-1 #
edge $-1 $310 0 $310 6.2831853071796004 $191 $311 forward 7 unknown #
loop $-1 $-1 $198 $121 #
plane-surface $-1 -24.483200646027925 -10.395835844123848 65.017559515487946 0.64278761758704617 0 0.76604443648966558 0.76604443648966558 0 -0.64278761758704617 forward_v I I I I #
loop $-1 $-1 $312 $77 #
coedge $-1 $196 $196 $197 $313 reversed $122 $-1 #
coedge $-1 $197 $197 $196 $313 forward $124 $-1 #
coedge $-1 $198 $198 $125 $199 forward $193 $-1 #
edge $-1 $314 0 $314 6.2831853071796004 $198 $315 forward 7 unknown #
face $-1 $316 $317 $44 $-1 $318 reversed single #
loop $-1 $-1 $319 $126 #
plane-surface $-1 -114.40255920618327 -8.3613051137849155 68.849419858299569 0 -1 0 0.74314483375859142 0 -0.66913059716165679 forward_v I I I I #
coedge $-1 $320 $321 $322 $323 reversed $127 $-1 #
coedge $-1 $205 $129 $324 $325 reversed $81 $-1 #
coedge $-1 $129 $204 $320 $326 reversed $81 $-1 #
coedge $-1 $322 $327 $129 $207 forward $328 $-1 #
edge $-1 $329 11.187912495941148 $330 14.789676978626531 $206 $331 forward 7 unknown #
loop $-1 $-1 $213 $130 #
plane-surface $-1 -46.013367107150501 -12.055817056570866 7.2715162386472869 -0.74314483375859142 0 0.66913059716165679 0.66913059716165679 0 0.74314483375859142 forward_v I I I I #
loop $-1 $-1 $332 $83 #
coedge $-1 $211 $211 $212 $333 reversed $131 $-1 #
coedge $-1 $212 $212 $211 $333 forward $133 $-1 #
coedge $-1 $213 $213 $134 $214 forward $208 $-1 #
edge $-1 $334 0 $334 6.2831853071796004 $213 $335 forward 7 unknown #
face $-1 $336 $337 $46 $-1 $338 forward single #
loop $-1 $-1 $339 $135 #
plane-surface $-1 -114.40255920618327 3.5828299363425673 68.849419858299569 0 -1 0 0.74314483375859142 0 -0.66913059716165679 forward_v I I I I #
coedge $-1 $340 $341 $342 $343 reversed $136 $-1 #
coedge $-1 $220 $138 $344 $345 reversed $87 $-1 #
coedge $-1 $138 $219 $340 $346 reversed $87 $-1 #
coedge $-1 $342 $347 $138 $222 forward $337 $-1 #
edge $-1 $348 11.187912495941148 $349 14.789676978626531 $221 $350 forward 7 unknown #
loop $-1 $-1 $228 $139 #
plane-surface $-1 -46.013367107150501 -0.11168200644338455 7.2715162386472869 -0.74314483375859142 0 0.66913059716165679 0.66913059716165679 0 0.74314483375859142 forward_v I I I I #
loop $-1 $-1 $351 $89 #
coedge $-1 $226 $226 $227 $352 reversed $140 $-1 #
coedge $-1 $227 $227 $226 $352 forward $142 $-1 #
coedge $-1 $228 $228 $143 $229 forward $223 $-1 #
edge $-1 $353 0 $353 6.2831853071796004 $228 $354 forward 7 unknown #
face $-1 $355 $356 $48 $-1 $357 forward single #
loop $-1 $-1 $358 $144 #
plane-surface $-1 -114.40255920618327 15.526964986470048 68.849419858299569 0 -1 0 0.74314483375859142 0 -0.66913059716165679 forward_v I I I I #
coedge $-1 $359 $360 $361 $362 reversed $145 $-1 #
coedge $-1 $235 $147 $363 $364 reversed $93 $-1 #
coedge $-1 $147 $234 $359 $365 reversed $93 $-1 #
coedge $-1 $361 $366 $147 $237 forward $356 $-1 #
edge $-1 $367 11.187912495941148 $368 14.789676978626531 $236 $369 forward 7 unknown #
loop $-1 $-1 $243 $148 #
plane-surface $-1 -46.013367107150501 11.832453043684097 7.2715162386472869 -0.74314483375859142 0 0.66913059716165679 0.66913059716165679 0 0.74314483375859142 forward_v I I I I #
loop $-1 $-1 $370 $95 #
coedge $-1 $241 $241 $242 $371 reversed $149 $-1 #
coedge $-1 $242 $242 $241 $371 forward $151 $-1 #
coedge $-1 $243 $243 $152 $244 forward $238 $-1 #
edge $-1 $372 0 $372 6.2831853071796004 $243 $373 forward 7 unknown #
face $-1 $374 $375 $50 $-1 $376 forward single #
loop $-1 $-1 $377 $153 #
plane-surface $-1 -114.40255920618327 27.471100036597527 68.849419858299569 0 -1 0 0.74314483375859142 0 -0.66913059716165679 forward_v I I I I #
coedge $-1 $378 $379 $380 $381 reversed $154 $-1 #
coedge $-1 $250 $156 $382 $383 reversed $99 $-1 #
coedge $-1 $156 $249 $378 $384 reversed $99 $-1 #
coedge $-1 $380 $385 $156 $252 forward $375 $-1 #
edge $-1 $386 11.187912495941148 $387 14.789676978626531 $251 $388 forward 7 unknown #
loop $-1 $-1 $258 $157 #
plane-surface $-1 -46.013367107150501 23.776588093811576 7.2715162386472869 -0.74314483375859142 0 0.66913059716165679 0.66913059716165679 0 0.74314483375859142 forward_v I I I I #
loop $-1 $-1 $389 $101 #
coedge $-1 $256 $256 $257 $390 reversed $158 $-1 #
coedge $-1 $257 $257 $256 $390 forward $160 $-1 #
coedge $-1 $258 $258 $161 $259 forward $253 $-1 #
edge $-1 $391 0 $391 6.2831853071796004 $258 $392 forward 7 unknown #
face $-1 $393 $394 $39 $-1 $395 reversed single #
loop $-1 $-1 $396 $162 #
plane-surface $-1 -46.013367107150486 0 0 1 0 0 0 0 -1 forward_v I I I I #
coedge $-1 $168 $397 $398 $399 forward $163 $-1 #
coedge $-1 $400 $165 $401 $402 forward $105 $-1 #
coedge $-1 $165 $400 $268 $403 forward $105 $-1 #
coedge $-1 $269 $404 $165 $267 reversed $405 $-1 #
edge $-1 $406 -29.677477312717294 $407 29.677477312717294 $266 $408 forward 7 unknown #
coedge $-1 $167 $166 $265 $403 reversed $66 $-1 #
coedge $-1 $398 $266 $166 $270 forward $405 $-1 #
edge $-1 $406 -11.271681048142888 $274 11.271681048142888 $269 $409 forward 7 unknown #
coedge $-1 $410 $411 $167 $272 reversed $261 $-1 #
edge $-1 $412 -11.271681048142888 $275 11.271681048142888 $271 $413 forward 7 unknown #
coedge $-1 $397 $168 $411 $414 forward $163 $-1 #
vertex $-1 $270 $415 #
vertex $-1 $414 $416 #
straight-curve $-1 0 -29.677477312717294 -11.271681048142888 -1 0 0 I I #
face $-1 $417 $289 $40 $-1 $418 reversed single #
loop $-1 $-1 $419 $170 #
plane-surface $-1 -42.709949636114963 -41.255891737641939 0 0 1 0 0 0 1 forward_v I I I I #
coedge $-1 $420 $421 $284 $422 forward $171 $-1 #
coedge $-1 $423 $173 $421 $424 forward $109 $-1 #
coedge $-1 $173 $423 $287 $425 forward $109 $-1 #
edge $-1 $290 39.40653216507944 $426 46.013367107150486 $173 $427 forward 7 unknown #
coedge $-1 $175 $174 $280 $422 reversed $69 $-1 #
coedge $-1 $428 $429 $174 $286 forward $430 $-1 #
edge $-1 $431 -46.013367107150486 $291 -39.40653216507944 $285 $432 forward 7 unknown #
coedge $-1 $433 $176 $282 $425 reversed $289 $-1 #
coedge $-1 $176 $433 $428 $434 reversed $289 $-1 #
loop $-1 $-1 $433 $277 #
vertex $-1 $283 $435 #
vertex $-1 $434 $436 #
straight-curve $-1 -39.40653216507944 -29.677477312717294 0 0 0 -1 I I #
face $-1 $-1 $437 $41 $-1 $438 reversed single #
loop $-1 $-1 $184 $178 #
plane-surface $-1 0 0 11.271681048142888 0 0 1 1 0 0 forward_v I I I I #
coedge $-1 $439 $440 $441 $442 reversed $179 $-1 #
coedge $-1 $443 $181 $183 $303 forward $113 $-1 #
coedge $-1 $181 $443 $439 $444 forward $113 $-1 #
coedge $-1 $441 $184 $181 $300 forward $294 $-1 #
edge $-1 $306 0.87449085943684146 $445 9.5213449846870066 $299 $446 forward 7 unknown #
coedge $-1 $447 $448 $182 $302 forward $437 $-1 #
edge $-1 $449 -61.893149358772064 $305 -56.485382586190291 $301 $450 forward 7 unknown #
edge $-1 $306 83.613742699495617 $449 92.026734214300973 $183 $451 forward 7 unknown #
coedge $-1 $184 $441 $447 $452 forward $294 $-1 #
vertex $-1 $302 $453 #
vertex $-1 $185 $454 #
straight-curve $-1 17.335222296949453 -6.0724087814987655 11.271681048142888 -1 0 0 I I #
coedge $-1 $308 $308 $-1 $455 reversed $188 $-1 #
edge $-1 $456 0 $456 6.2831853071796004 $189 $457 forward 7 unknown #
vertex $-1 $192 $458 #
ellipse-curve $-1 42.79100443507479 -12.248733156677453 8.5677976618520049 0.64278761758704617 0 0.76604443648966558 0.38302221824483279 0 -0.32139380879352308 1 I I #
coedge $-1 $312 $312 $-1 $459 reversed $195 $-1 #
edge $-1 $460 0 $460 6.2831853071796004 $196 $461 forward 7 unknown #
vertex $-1 $199 $462 #
ellipse-curve $-1 42.79100443507479 -8.5429385315702362 8.5677976618520049 0.64278761758704617 0 0.76604443648966558 0.38302221824483279 0 -0.32139380879352308 1 I I #
face $-1 $-1 $328 $44 $-1 $463 forward single #
loop $-1 $-1 $464 $200 #
plane-surface $-1 -46.013367107150486 0 0 1 0 0 0 0 -1 forward_v I I I I #
coedge $-1 $465 $466 $467 $468 reversed $201 $-1 #
coedge $-1 $469 $203 $205 $326 forward $127 $-1 #
coedge $-1 $203 $469 $465 $470 forward $127 $-1 #
coedge $-1 $467 $206 $203 $323 forward $328 $-1 #
edge $-1 $330 -9.7224204710713842 $471 -2.3333965854994823 $322 $472 forward 7 unknown #
coedge $-1 $473 $474 $204 $325 forward $317 $-1 #
edge $-1 $475 -27.153193690502484 $329 -23.153028881006897 $324 $476 forward 7 unknown #
edge $-1 $330 -5.3827526314945011 $475 -2.1389731374768986e-014 $205 $477 forward 7 unknown #
coedge $-1 $206 $467 $473 $478 forward $328 $-1 #
loop $-1 $-1 $467 $316 #
vertex $-1 $325 $479 #
vertex $-1 $207 $480 #
straight-curve $-1 -57.201279603091635 -15.750328999356817 11.271681048142888 1 0 0 I I #
coedge $-1 $332 $332 $-1 $481 reversed $210 $-1 #
edge $-1 $482 0 $482 6.2831853071796004 $211 $483 forward 7 unknown #
vertex $-1 $214 $484 #
ellipse-curve $-1 -44.212484865807795 -12.055817056570866 9.2715986433950981 -0.74314483375859142 0 0.66913059716165679 0.66913059716165679 0 0.74314483375859142 1 I I #
face $-1 $-1 $485 $46 $-1 $486 reversed single #
loop $-1 $-1 $221 $215 #
plane-surface $-1 0 0 11.271681048142888 0 0 1 1 0 0 forward_v I I I I #
coedge $-1 $487 $488 $489 $490 reversed $216 $-1 #
coedge $-1 $491 $218 $220 $346 forward $136 $-1 #
coedge $-1 $218 $491 $487 $492 forward $136 $-1 #
coedge $-1 $489 $221 $218 $343 forward $337 $-1 #
edge $-1 $349 -3.7503529460076441 $493 3.6386709395642596 $342 $494 forward 7 unknown #
coedge $-1 $495 $496 $219 $345 forward $485 $-1 #
edge $-1 $497 -27.153193690502484 $348 -23.153028881006897 $344 $498 forward 7 unknown #
edge $-1 $349 -5.3827526314945011 $497 -2.1389731374768986e-014 $220 $499 forward 7 unknown #
coedge $-1 $221 $489 $495 $500 forward $337 $-1 #
vertex $-1 $345 $501 #
vertex $-1 $222 $502 #
straight-curve $-1 -57.201279603091635 -3.8061939492293364 11.271681048142888 1 0 0 I I #
coedge $-1 $351 $351 $-1 $503 reversed $225 $-1 #
edge $-1 $504 0 $504 6.2831853071796004 $226 $505 forward 7 unknown #
vertex $-1 $229 $506 #
ellipse-curve $-1 -44.212484865807795 -0.11168200644338455 9.2715986433950981 -0.74314483375859142 0 0.66913059716165679 0.66913059716165679 0 0.74314483375859142 1 I I #
face $-1 $-1 $507 $48 $-1 $508 reversed single #
loop $-1 $-1 $236 $230 #
plane-surface $-1 0 0 11.271681048142888 0 0 1 1 0 0 forward_v I I I I #
coedge $-1 $509 $510 $511 $512 reversed $231 $-1 #
coedge $-1 $513 $233 $235 $365 forward $145 $-1 #
coedge $-1 $233 $513 $509 $514 forward $145 $-1 #
coedge $-1 $511 $236 $233 $362 forward $356 $-1 #
edge $-1 $368 2.2217145790560977 $515 9.6107384646279996 $361 $516 forward 7 unknown #
coedge $-1 $517 $518 $234 $364 forward $507 $-1 #
edge $-1 $519 -27.153193690502484 $367 -23.153028881006897 $363 $520 forward 7 unknown #
edge $-1 $368 -5.3827526314945011 $519 -2.1389731374768986e-014 $235 $521 forward 7 unknown #
coedge $-1 $236 $511 $517 $522 forward $356 $-1 #
vertex $-1 $237 $523 #
vertex $-1 $237 $524 #
straight-curve $-1 -57.201279603091635 8.1379411008981464 11.271681048142888 1 0 0 I I #
coedge $-1 $370 $370 $-1 $525 reversed $240 $-1 #
edge $-1 $526 0 $526 6.2831853071796004 $241 $527 forward 7 unknown #
vertex $-1 $244 $528 #
ellipse-curve $-1 -44.212484865807795 11.832453043684097 9.2715986433950981 -0.74314483375859142 0 0.66913059716165679 0.66913059716165679 0 0.74314483375859142 1 I I #
face $-1 $-1 $529 $50 $-1 $530 reversed single #
loop $-1 $-1 $251 $245 #
plane-surface $-1 0 0 11.271681048142888 0 0 1 1 0 0 forward_v I I I I #
coedge $-1 $531 $532 $533 $534 reversed $246 $-1 #
coedge $-1 $535 $248 $250 $384 forward $154 $-1 #
coedge $-1 $248 $535 $531 $536 forward $154 $-1 #
coedge $-1 $533 $251 $248 $381 forward $375 $-1 #
edge $-1 $387 8.1937821041198369 $537 15.582805989691739 $380 $538 forward 7 unknown #
coedge $-1 $539 $540 $249 $383 forward $529 $-1 #
edge $-1 $541 -27.153193690502484 $386 -23.153028881006897 $382 $542 forward 7 unknown #
edge $-1 $387 -5.3827526314945011 $541 -2.1389731374768986e-014 $250 $543 forward 7 unknown #
coedge $-1 $251 $533 $539 $544 forward $375 $-1 #
vertex $-1 $252 $545 #
vertex $-1 $252 $546 #
straight-curve $-1 -57.201279603091635 20.082076151025625 11.271681048142888 1 0 0 I I #
coedge $-1 $389 $389 $-1 $547 reversed $255 $-1 #
edge $-1 $548 0 $548 6.2831853071796004 $256 $549 forward 7 unknown #
vertex $-1 $259 $550 #
ellipse-curve $-1 -44.212484865807795 23.776588093811576 9.2715986433950981 -0.74314483375859142 0 0.66913059716165679 0.66913059716165679 0 0.74314483375859142 1 I I #
face $-1 $-1 $405 $39 $-1 $551 reversed single #
loop $-1 $-1 $552 $260 #
plane-surface $-1 0 29.677477312717294 0 0 -1 0 0 0 -1 forward_v I I I I #
coedge $-1 $411 $410 $553 $554 forward $261 $-1 #
coedge $-1 $263 $273 $555 $556 forward $163 $-1 #
coedge $-1 $404 $269 $263 $399 reversed $405 $-1 #
edge $-1 $557 -29.677477312717294 $274 29.677477312717294 $398 $558 forward 7 unknown #
coedge $-1 $265 $264 $410 $559 forward $105 $-1 #
coedge $-1 $552 $553 $264 $402 reversed $394 $-1 #
edge $-1 $407 -46.013367107150486 $560 46.013367107150486 $401 $561 forward 7 unknown #
edge $-1 $412 -46.013367107150486 $406 46.013367107150486 $268 $562 forward 7 unknown #
coedge $-1 $266 $398 $552 $563 reversed $405 $-1 #
loop $-1 $-1 $269 $393 #
vertex $-1 $267 $564 #
vertex $-1 $267 $565 #
straight-curve $-1 46.013367107150486 0 11.271681048142888 0 1 0 I I #
straight-curve $-1 46.013367107150486 -29.677477312717294 0 0 0 -1 I I #
coedge $-1 $396 $271 $400 $559 reversed $261 $-1 #
coedge $-1 $271 $396 $273 $414 reversed $261 $-1 #
vertex $-1 $559 $566 #
straight-curve $-1 -46.013367107150486 -29.677477312717294 0 0 0 -1 I I #
edge $-1 $275 -29.677477312717294 $567 29.677477312717294 $411 $568 forward 7 unknown #
point $-1 46.013367107150486 -29.677477312717294 -11.271681048142888 #
point $-1 -46.013367107150486 -29.677477312717294 -11.271681048142888 #
face $-1 $-1 $430 $40 $-1 $569 reversed single #
plane-surface $-1 -39.40653216507944 -35.466684525179616 0 -1 0 0 0 0 1 forward_v I I I I #
coedge $-1 $570 $571 $572 $573 forward $278 $-1 #
coedge $-1 $572 $280 $429 $574 reversed $171 $-1 #
coedge $-1 $280 $572 $281 $424 reversed $171 $-1 #
edge $-1 $426 -11.271681048142888 $431 11.271681048142888 $280 $575 forward 7 unknown #
coedge $-1 $282 $281 $571 $576 forward $109 $-1 #
edge $-1 $426 29.677477312717294 $577 41.255891737641939 $421 $578 forward 7 unknown #
edge $-1 $579 -5.7892072124623226 $290 5.7892072124623262 $287 $580 forward 7 unknown #
vertex $-1 $424 $581 #
straight-curve $-1 0 -29.677477312717294 11.271681048142888 -1 0 0 I I #
coedge $-1 $582 $285 $288 $434 forward $430 $-1 #
coedge $-1 $285 $582 $420 $574 forward $430 $-1 #
loop $-1 $-1 $285 $417 #
vertex $-1 $422 $583 #
straight-curve $-1 0 -29.677477312717294 -11.271681048142888 1 0 0 I I #
coedge $-1 $288 $287 $584 $585 forward $289 $-1 #
edge $-1 $291 -5.7892072124623262 $586 5.7892072124623226 $288 $587 forward 7 unknown #
point $-1 -39.40653216507944 -29.67747731271729 11.271681048142888 #
point $-1 -39.40653216507944 -29.67747731271729 -11.271681048142888 #
loop $-1 $-1 $301 $293 #
plane-surface $-1 46.013367107150486 0 0 -1 0 0 0 0 1 forward_v I I I I #
coedge $-1 $440 $296 $298 $444 reversed $179 $-1 #
coedge $-1 $296 $439 $588 $589 reversed $179 $-1 #
coedge $-1 $304 $299 $296 $442 forward $294 $-1 #
edge $-1 $445 22.233419466049625 $590 28.678144810201033 $441 $591 forward 7 unknown #
coedge $-1 $298 $297 $448 $592 reversed $113 $-1 #
edge $-1 $593 -92.026734214300973 $445 -83.613742699495617 $439 $594 forward 7 unknown #
vertex $-1 $300 $595 #
straight-curve $-1 39.568641762999079 -5.197917922061924 11.271681048142888 0 -1 0 I I #
coedge $-1 $588 $301 $304 $452 reversed $437 $-1 #
coedge $-1 $301 $588 $443 $592 forward $437 $-1 #
vertex $-1 $302 $596 #
straight-curve $-1 46.013367107150486 -6.0724087814987655 67.757063634333178 0 0 1 I I #
straight-curve $-1 -24.483200646027925 -6.0724087814987655 65.017559515487946 0.76604443648966558 0 -0.64278761758704617 I I #
edge $-1 $590 -14.719262906748931 $305 -6.0724087814987655 $447 $597 forward 7 unknown #
point $-1 46.013367107150486 -6.0724087814987655 11.271681048142888 #
point $-1 39.568641762999079 -6.0724087814987655 11.271681048142881 #
edge $-1 $598 1 $598 0 $308 $-1 forward 7 unknown #
vertex $-1 $309 $599 #
ellipse-curve $-1 42.010515847559077 -12.248733156677453 7.637647603183332 0.64278761758704617 0 0.76604443648966558 0.38302221824483279 0 -0.32139380879352308 1 I I #
point $-1 43.174026653319615 -12.248733156677453 8.2464038530584727 #
edge $-1 $600 1 $600 0 $312 $-1 forward 7 unknown #
vertex $-1 $313 $601 #
ellipse-curve $-1 42.010515847559077 -8.5429385315702362 7.637647603183332 0.64278761758704617 0 0.76604443648966558 0.38302221824483279 0 -0.32139380879352308 1 I I #
point $-1 43.174026653319615 -8.5429385315702362 8.2464038530584727 #
plane-surface $-1 0 0 11.271681048142888 0 0 1 1 0 0 forward_v I I I I #
coedge $-1 $474 $473 $466 $602 forward $317 $-1 #
coedge $-1 $466 $319 $321 $470 reversed $201 $-1 #
coedge $-1 $319 $465 $464 $602 reversed $201 $-1 #
coedge $-1 $327 $322 $319 $468 forward $328 $-1 #
edge $-1 $471 -14.789676978626531 $603 -11.187912495941148 $467 $604 forward 7 unknown #
coedge $-1 $321 $320 $474 $605 reversed $127 $-1 #
edge $-1 $606 2.1389731374768986e-014 $471 5.3827526314945011 $465 $607 forward 7 unknown #
vertex $-1 $323 $608 #
straight-curve $-1 -42.411602624465104 -6.0279085282854332 11.271681048142888 0 1 0 I I #
coedge $-1 $464 $324 $327 $478 reversed $317 $-1 #
coedge $-1 $324 $464 $469 $605 forward $317 $-1 #
vertex $-1 $325 $609 #
straight-curve $-1 -46.013367107150486 -15.750328999356817 34.424709929149785 0 0 1 I I #
straight-curve $-1 -46.013367107150501 -15.750328999356817 7.2715162386472869 -0.66913059716165679 0 -0.74314483375859142 I I #
edge $-1 $603 8.3613051137849155 $329 15.750328999356817 $473 $610 forward 7 unknown #
point $-1 -46.013367107150486 -15.750328999356817 11.271681048142888 #
point $-1 -42.411602624465104 -15.750328999356817 11.271681048142888 #
edge $-1 $611 1 $611 0 $332 $-1 forward 7 unknown #
vertex $-1 $333 $612 #
ellipse-curve $-1 -43.21575861213725 -12.055817056570866 8.3741423158686015 -0.74314483375859142 0 0.66913059716165679 0.66913059716165679 0 0.74314483375859142 1 I I #
point $-1 -43.543354268646134 -12.055817056570866 10.014743477153681 #
loop $-1 $-1 $344 $336 #
plane-surface $-1 -46.013367107150486 0 0 1 0 0 0 0 -1 forward_v I I I I #
coedge $-1 $488 $339 $341 $492 reversed $216 $-1 #
coedge $-1 $339 $487 $613 $614 reversed $216 $-1 #
coedge $-1 $347 $342 $339 $490 forward $337 $-1 #
edge $-1 $493 -14.789676978626531 $615 -11.187912495941148 $489 $616 forward 7 unknown #
coedge $-1 $341 $340 $496 $617 reversed $136 $-1 #
edge $-1 $618 2.1389731374768986e-014 $493 5.3827526314945011 $487 $619 forward 7 unknown #
vertex $-1 $343 $620 #
straight-curve $-1 -42.411602624465104 -0.055841003221692276 11.271681048142888 0 1 0 I I #
coedge $-1 $613 $344 $347 $500 reversed $485 $-1 #
coedge $-1 $344 $613 $491 $617 forward $485 $-1 #
vertex $-1 $345 $621 #
straight-curve $-1 -46.013367107150486 -3.8061939492293364 34.424709929149785 0 0 1 I I #
straight-curve $-1 -46.013367107150501 -3.8061939492293364 7.2715162386472869 -0.66913059716165679 0 -0.74314483375859142 I I #
edge $-1 $615 -3.5828299363425673 $348 3.8061939492293364 $495 $622 forward 7 unknown #
point $-1 -46.013367107150486 -3.8061939492293364 11.271681048142888 #
point $-1 -42.411602624465104 -3.8061939492293364 11.271681048142888 #
edge $-1 $623 1 $623 0 $351 $-1 forward 7 unknown #
vertex $-1 $352 $624 #
ellipse-curve $-1 -43.21575861213725 -0.11168200644338455 8.3741423158686015 -0.74314483375859142 0 0.66913059716165679 0.66913059716165679 0 0.74314483375859142 1 I I #
point $-1 -43.543354268646134 -0.11168200644338455 10.014743477153681 #
loop $-1 $-1 $363 $355 #
plane-surface $-1 -46.013367107150486 0 0 1 0 0 0 0 -1 forward_v I I I I #
coedge $-1 $510 $358 $360 $514 reversed $231 $-1 #
coedge $-1 $358 $509 $625 $626 reversed $231 $-1 #
coedge $-1 $366 $361 $358 $512 forward $356 $-1 #
edge $-1 $515 -14.789676978626531 $627 -11.187912495941148 $511 $628 forward 7 unknown #
coedge $-1 $360 $359 $518 $629 reversed $145 $-1 #
edge $-1 $630 2.1389731374768986e-014 $515 5.3827526314945011 $509 $631 forward 7 unknown #
vertex $-1 $362 $632 #
straight-curve $-1 -42.411602624465104 5.9162265218420487 11.271681048142888 0 1 0 I I #
coedge $-1 $625 $363 $366 $522 reversed $507 $-1 #
coedge $-1 $363 $625 $513 $629 forward $507 $-1 #
vertex $-1 $364 $633 #
straight-curve $-1 -46.013367107150486 8.1379411008981464 34.424709929149785 0 0 1 I I #
straight-curve $-1 -46.013367107150501 8.1379411008981464 7.2715162386472869 -0.66913059716165679 0 -0.74314483375859142 I I #
edge $-1 $627 -15.526964986470048 $367 -8.1379411008981464 $517 $634 forward 7 unknown #
point $-1 -46.013367107150486 8.1379411008981464 11.271681048142888 #
point $-1 -42.411602624465104 8.1379411008981464 11.271681048142888 #
edge $-1 $635 1 $635 0 $370 $-1 forward 7 unknown #
vertex $-1 $371 $636 #
ellipse-curve $-1 -43.21575861213725 11.832453043684097 8.3741423158686015 -0.74314483375859142 0 0.66913059716165679 0.66913059716165679 0 0.74314483375859142 1 I I #
point $-1 -43.543354268646134 11.832453043684097 10.014743477153681 #
loop $-1 $-1 $382 $374 #
plane-surface $-1 -46.013367107150486 0 0 1 0 0 0 0 -1 forward_v I I I I #
coedge $-1 $532 $377 $379 $536 reversed $246 $-1 #
coedge $-1 $377 $531 $637 $638 reversed $246 $-1 #
coedge $-1 $385 $380 $377 $534 forward $375 $-1 #
edge $-1 $537 -14.789676978626531 $639 -11.187912495941148 $533 $640 forward 7 unknown #
coedge $-1 $379 $378 $540 $641 reversed $154 $-1 #
edge $-1 $642 2.1389731374768986e-014 $537 5.3827526314945011 $531 $643 forward 7 unknown #
vertex $-1 $381 $644 #
straight-curve $-1 -42.411602624465104 11.888294046905788 11.271681048142888 0 1 0 I I #
coedge $-1 $637 $382 $385 $544 reversed $529 $-1 #
coedge $-1 $382 $637 $535 $641 forward $529 $-1 #
vertex $-1 $383 $645 #
straight-curve $-1 -46.013367107150486 20.082076151025625 34.424709929149785 0 0 1 I I #
straight-curve $-1 -46.013367107150501 20.082076151025625 7.2715162386472869 -0.66913059716165679 0 -0.74314483375859142 I I #
edge $-1 $639 -27.471100036597527 $386 -20.082076151025625 $539 $646 forward 7 unknown #
point $-1 -46.013367107150486 20.082076151025625 11.271681048142888 #
point $-1 -42.411602624465104 20.082076151025625 11.271681048142888 #
edge $-1 $647 1 $647 0 $389 $-1 forward 7 unknown #
vertex $-1 $390 $648 #
ellipse-curve $-1 -43.21575861213725 23.776588093811576 8.3741423158686015 -0.74314483375859142 0 0.66913059716165679 0.66913059716165679 0 0.74314483375859142 1 I I #
point $-1 -43.543354268646134 23.776588093811576 10.014743477153681 #
plane-surface $-1 46.013367107150486 0 0 -1 0 0 0 0 1 forward_v I I I I #
coedge $-1 $555 $401 $404 $563 forward $394 $-1 #
coedge $-1 $401 $555 $396 $554 reversed $394 $-1 #
edge $-1 $560 -11.271681048142888 $567 11.271681048142888 $553 $649 forward 7 unknown #
coedge $-1 $553 $552 $397 $556 reversed $394 $-1 #
edge $-1 $567 -46.013367107150486 $557 46.013367107150486 $555 $650 forward 7 unknown #
vertex $-1 $399 $651 #
straight-curve $-1 46.013367107150486 0 -11.271681048142888 0 -1 0 I I #
edge $-1 $560 -29.677477312717294 $412 29.677477312717294 $410 $652 forward 7 unknown #
vertex $-1 $402 $653 #
straight-curve $-1 0 29.677477312717294 11.271681048142888 -1 0 0 I I #
straight-curve $-1 0 -29.677477312717294 11.271681048142888 1 0 0 I I #
edge $-1 $407 -11.271681048142888 $557 11.271681048142888 $404 $654 forward 7 unknown #
point $-1 46.013367107150486 -29.677477312717294 11.271681048142888 #
point $-1 46.013367107150486 29.677477312717294 11.271681048142888 #
point $-1 -46.013367107150486 -29.677477312717294 11.271681048142888 #
vertex $-1 $556 $655 #
straight-curve $-1 -46.013367107150486 0 -11.271681048142888 0 1 0 I I #
plane-surface $-1 0 0 -11.271681048142888 0 0 1 1 0 0 forward_v I I I I #
coedge $-1 $584 $419 $582 $656 reversed $278 $-1 #
coedge $-1 $419 $584 $423 $576 reversed $278 $-1 #
coedge $-1 $421 $420 $419 $573 reversed $171 $-1 #
edge $-1 $577 -11.271681048142888 $657 11.271681048142888 $572 $658 forward 7 unknown #
edge $-1 $657 -41.255891737641939 $431 -29.677477312717294 $420 $659 forward 7 unknown #
straight-curve $-1 -46.013367107150486 -29.677477312717294 0 0 0 -1 I I #
edge $-1 $577 -3.3034174710355231 $579 3.3034174710355231 $571 $660 forward 7 unknown #
vertex $-1 $424 $661 #
straight-curve $-1 -46.013367107150486 0 11.271681048142888 0 -1 0 I I #
vertex $-1 $425 $662 #
straight-curve $-1 -39.40653216507944 -35.466684525179616 11.271681048142888 0 1 0 I I #
point $-1 -46.013367107150486 -29.677477312717294 11.271681048142888 #
coedge $-1 $429 $428 $570 $656 forward $430 $-1 #
point $-1 -46.013367107150486 -29.677477312717294 -11.271681048142888 #
coedge $-1 $571 $570 $433 $585 reversed $278 $-1 #
edge $-1 $579 -11.271681048142888 $586 11.271681048142888 $433 $663 forward 7 unknown #
vertex $-1 $585 $664 #
straight-curve $-1 -39.40653216507944 -35.466684525179616 -11.271681048142888 0 -1 0 I I #
coedge $-1 $448 $447 $440 $589 forward $437 $-1 #
edge $-1 $590 56.485382586190291 $593 61.893149358772064 $588 $665 forward 7 unknown #
vertex $-1 $452 $666 #
straight-curve $-1 17.335222296949453 -14.719262906748931 11.271681048142888 1 0 0 I I #
edge $-1 $593 -9.5213449846870066 $449 -0.87449085943684146 $448 $667 forward 7 unknown #
vertex $-1 $592 $668 #
straight-curve $-1 -24.483200646027925 -14.719262906748931 65.017559515487946 -0.76604443648966558 0 0.64278761758704617 I I #
point $-1 39.568641762999079 -14.719262906748931 11.271681048142881 #
point $-1 46.013367107150486 -6.0724087814987655 5.8639142755611147 #
straight-curve $-1 46.013367107150486 0 11.271681048142888 0 1 0 I I #
vertex $-1 $455 $669 #
point $-1 42.393538065803916 -12.248733156677453 7.3162537943898087 #
vertex $-1 $459 $670 #
point $-1 42.393538065803916 -8.5429385315702362 7.3162537943898087 #
edge $-1 $603 23.153028881006897 $606 27.153193690502484 $464 $671 forward 7 unknown #
vertex $-1 $478 $672 #
straight-curve $-1 -57.201279603091635 -8.3613051137849155 11.271681048142888 -1 0 0 I I #
edge $-1 $606 2.3333965854994823 $475 9.7224204710713842 $474 $673 forward 7 unknown #
vertex $-1 $605 $674 #
straight-curve $-1 -46.013367107150501 -8.3613051137849155 7.2715162386472869 0.66913059716165679 0 0.74314483375859142 I I #
point $-1 -42.411602624465104 -8.3613051137849155 11.271681048142888 #
point $-1 -46.013367107150486 -15.750328999356817 7.2715162386473029 #
straight-curve $-1 -46.013367107150486 0 11.271681048142888 0 -1 0 I I #
vertex $-1 $481 $675 #
point $-1 -42.546628014975596 -12.055817056570866 9.1172871496271917 #
coedge $-1 $496 $495 $488 $614 forward $485 $-1 #
edge $-1 $615 23.153028881006897 $618 27.153193690502484 $613 $676 forward 7 unknown #
vertex $-1 $500 $677 #
straight-curve $-1 -57.201279603091635 3.5828299363425673 11.271681048142888 -1 0 0 I I #
edge $-1 $618 -3.6386709395642596 $497 3.7503529460076441 $496 $678 forward 7 unknown #
vertex $-1 $617 $679 #
straight-curve $-1 -46.013367107150501 3.5828299363425673 7.2715162386472869 0.66913059716165679 0 0.74314483375859142 I I #
point $-1 -42.411602624465104 3.5828299363425673 11.271681048142888 #
point $-1 -46.013367107150486 -3.8061939492293364 7.2715162386473029 #
straight-curve $-1 -46.013367107150486 0 11.271681048142888 0 -1 0 I I #
vertex $-1 $503 $680 #
point $-1 -42.546628014975596 -0.11168200644338455 9.1172871496271917 #
coedge $-1 $518 $517 $510 $626 forward $507 $-1 #
edge $-1 $627 23.153028881006897 $630 27.153193690502484 $625 $681 forward 7 unknown #
vertex $-1 $522 $682 #
straight-curve $-1 -57.201279603091635 15.526964986470048 11.271681048142888 -1 0 0 I I #
edge $-1 $630 -9.6107384646279996 $519 -2.2217145790560977 $518 $683 forward 7 unknown #
vertex $-1 $629 $684 #
straight-curve $-1 -46.013367107150501 15.526964986470048 7.2715162386472869 0.66913059716165679 0 0.74314483375859142 I I #
point $-1 -42.411602624465104 15.526964986470048 11.271681048142888 #
point $-1 -46.013367107150486 8.1379411008981464 7.2715162386473029 #
straight-curve $-1 -46.013367107150486 0 11.271681048142888 0 -1 0 I I #
vertex $-1 $525 $685 #
point $-1 -42.546628014975596 11.832453043684097 9.1172871496271917 #
coedge $-1 $540 $539 $532 $638 forward $529 $-1 #
edge $-1 $639 23.153028881006897 $642 27.153193690502484 $637 $686 forward 7 unknown #
vertex $-1 $544 $687 #
straight-curve $-1 -57.201279603091635 27.471100036597527 11.271681048142888 -1 0 0 I I #
edge $-1 $642 -15.582805989691739 $541 -8.1937821041198369 $540 $688 forward 7 unknown #
vertex $-1 $641 $689 #
straight-curve $-1 -46.013367107150501 27.471100036597527 7.2715162386472869 0.66913059716165679 0 0.74314483375859142 I I #
point $-1 -42.411602624465104 27.471100036597527 11.271681048142888 #
point $-1 -46.013367107150486 20.082076151025625 7.2715162386473029 #
straight-curve $-1 -46.013367107150486 0 11.271681048142888 0 -1 0 I I #
vertex $-1 $547 $690 #
point $-1 -42.546628014975596 23.776588093811576 9.1172871496271917 #
straight-curve $-1 -46.013367107150486 29.677477312717294 0 0 0 -1 I I #
straight-curve $-1 0 29.677477312717294 -11.271681048142888 1 0 0 I I #
point $-1 46.013367107150486 29.677477312717294 -11.271681048142888 #
straight-curve $-1 -46.013367107150486 0 11.271681048142888 0 -1 0 I I #
point $-1 -46.013367107150486 29.677477312717294 11.271681048142888 #
straight-curve $-1 46.013367107150486 29.677477312717294 0 0 0 -1 I I #
point $-1 -46.013367107150486 29.677477312717294 -11.271681048142888 #
edge $-1 $586 -3.3034174710355231 $657 3.3034174710355231 $570 $691 forward 7 unknown #
vertex $-1 $574 $692 #
straight-curve $-1 -46.013367107150486 -41.255891737641939 0 0 0 -1 I I #
straight-curve $-1 -46.013367107150486 0 -11.271681048142888 0 1 0 I I #
straight-curve $-1 -42.709949636114963 -41.255891737641939 11.271681048142888 1 0 0 I I #
point $-1 -46.013367107150486 -41.255891737641939 11.271681048142888 #
point $-1 -39.40653216507944 -41.255891737641939 11.271681048142888 #
straight-curve $-1 -39.40653216507944 -41.255891737641939 0 0 0 -1 I I #
point $-1 -39.40653216507944 -41.255891737641939 -11.271681048142888 #
straight-curve $-1 46.013367107150486 -14.719262906748931 67.757063634333178 0 0 -1 I I #
point $-1 46.013367107150486 -14.719262906748931 11.271681048142888 #
straight-curve $-1 46.013367107150479 -5.197917922061924 5.8639142755611289 0 1 0 I I #
point $-1 46.013367107150486 -14.719262906748931 5.8639142755611147 #
point $-1 41.689122038765561 -12.248733156677453 7.2546253849384996 #
point $-1 41.689122038765561 -8.5429385315702362 7.2546253849384996 #
straight-curve $-1 -46.013367107150486 -8.3613051137849155 34.424709929149785 0 0 -1 I I #
point $-1 -46.013367107150486 -8.3613051137849155 11.271681048142888 #
straight-curve $-1 -46.013367107150486 -6.0279085282854332 7.2715162386472993 0 -1 0 I I #
point $-1 -46.013367107150486 -8.3613051137849155 7.2715162386473029 #
point $-1 -42.472613778378658 -12.055817056570866 7.7050117187069445 #
straight-curve $-1 -46.013367107150486 3.5828299363425673 34.424709929149785 0 0 -1 I I #
point $-1 -46.013367107150486 3.5828299363425673 11.271681048142888 #
straight-curve $-1 -46.013367107150486 -0.055841003221692276 7.2715162386472993 0 -1 0 I I #
point $-1 -46.013367107150486 3.5828299363425673 7.2715162386473029 #
point $-1 -42.472613778378658 -0.11168200644338455 7.7050117187069445 #
straight-curve $-1 -46.013367107150486 15.526964986470048 34.424709929149785 0 0 -1 I I #
point $-1 -46.013367107150486 15.526964986470048 11.271681048142888 #
straight-curve $-1 -46.013367107150486 5.9162265218420487 7.2715162386472993 0 -1 0 I I #
point $-1 -46.013367107150486 15.526964986470048 7.2715162386473029 #
point $-1 -42.472613778378658 11.832453043684097 7.7050117187069445 #
straight-curve $-1 -46.013367107150486 27.471100036597527 34.424709929149785 0 0 -1 I I #
point $-1 -46.013367107150486 27.471100036597527 11.271681048142888 #
straight-curve $-1 -46.013367107150486 11.888294046905788 7.2715162386472993 0 -1 0 I I #
point $-1 -46.013367107150486 27.471100036597527 7.2715162386473029 #
point $-1 -42.472613778378658 23.776588093811576 7.7050117187069445 #
straight-curve $-1 -42.709949636114963 -41.255891737641939 -11.271681048142888 -1 0 0 I I #
point $-1 -46.013367107150486 -41.255891737641939 -11.271681048142888 #
End-of-ACIS-data 