500 0 3 0           
7 Unknown 11 ACIS 5.0 NT 24 Thu Mar 25 15:11:54 1999 
-1 9.9999999999999995e-007 1e-010 
body $-1 $3 $-1 $4 #
body $-1 $5 $-1 $6 #
body $-1 $7 $-1 $8 #
lump $-1 $-1 $9 $0 #
transform $-1 1 0 0 0 1 0 0 0 1 71.481673635059664 32.164026243109113 10.945997175272634 1 rotate no_reflect no_shear #
lump $-1 $-1 $10 $1 #
transform $-1 1 0 0 0 1 0 0 0 1 71.481673635059664 32.164026243109113 10.945997175272634 1 rotate no_reflect no_shear #
lump $-1 $-1 $11 $2 #
transform $-1 1 0 0 0 1 0 0 0 1 71.481673635059664 32.164026243109113 10.945997175272634 1 rotate no_reflect no_shear #
shell $-1 $-1 $-1 $12 $-1 $3 #
shell $-1 $-1 $-1 $13 $-1 $5 #
shell $-1 $-1 $-1 $14 $-1 $7 #
face $-1 $15 $16 $9 $-1 $17 forward single #
face $-1 $18 $19 $10 $-1 $20 forward single #
face $-1 $21 $22 $11 $-1 $23 forward single #
face $-1 $24 $25 $9 $-1 $26 reversed single #
loop $-1 $-1 $27 $12 #
plane-surface $-1 0 0 10.945997175272634 0 0 1 1 0 0 forward_v I I I I #
face $-1 $28 $29 $10 $-1 $30 reversed single #
loop $-1 $-1 $31 $13 #
plane-surface $-1 0 -38.277071863670344 -6.295318754129072 0 0 1 1 0 0 forward_v I I I I #
face $-1 $32 $33 $11 $-1 $34 reversed single #
loop $-1 $-1 $35 $14 #
plane-surface $-1 0 38.277071863670351 -6.295318754129072 0 0 1 1 0 0 forward_v I I I I #
face $-1 $36 $37 $9 $-1 $38 reversed single #
loop $-1 $-1 $39 $15 #
plane-surface $-1 0 0 -10.945997175272634 0 0 1 1 0 0 forward_v I I I I #
coedge $-1 $40 $41 $42 $43 forward $16 $-1 #
face $-1 $44 $45 $10 $-1 $46 reversed single #
loop $-1 $-1 $47 $18 #
plane-surface $-1 0 -38.277071863670344 -9.295318754129072 0 0 1 1 0 0 forward_v I I I I #
coedge $-1 $48 $49 $50 $51 forward $19 $-1 #
face $-1 $52 $53 $11 $-1 $54 reversed single #
loop $-1 $-1 $55 $21 #
plane-surface $-1 0 38.277071863670351 -9.295318754129072 0 0 1 1 0 0 forward_v I I I I #
coedge $-1 $56 $57 $58 $59 forward $22 $-1 #
face $-1 $60 $61 $9 $-1 $62 reversed single #
loop $-1 $-1 $63 $24 #
plane-surface $-1 0 -32.164026243109113 0 0 1 0 0 0 1 forward_v I I I I #
coedge $-1 $64 $65 $66 $67 forward $25 $-1 #
coedge $-1 $68 $27 $69 $70 forward $16 $-1 #
coedge $-1 $27 $68 $71 $72 forward $16 $-1 #
coedge $-1 $73 $74 $27 $43 reversed $75 $-1 #
edge $-1 $76 -32.164026243109113 $77 32.164026243109113 $42 $78 forward 7 unknown #
face $-1 $79 $80 $10 $-1 $81 reversed single #
loop $-1 $-1 $82 $28 #
plane-surface $-1 0 -44.390117484231574 -7.795318754129072 0 1 0 0 0 1 forward_v I I I I #
coedge $-1 $83 $84 $85 $86 forward $29 $-1 #
coedge $-1 $87 $31 $88 $89 reversed $19 $-1 #
coedge $-1 $31 $87 $90 $91 forward $19 $-1 #
coedge $-1 $92 $93 $31 $51 reversed $94 $-1 #
edge $-1 $95 -6.1130456205612305 $96 6.1130456205612305 $50 $97 forward 7 unknown #
face $-1 $98 $99 $11 $-1 $100 reversed single #
loop $-1 $-1 $101 $32 #
plane-surface $-1 0 44.390117484231581 -7.795318754129072 0 -1 0 0 0 -1 forward_v I I I I #
coedge $-1 $102 $103 $104 $105 forward $33 $-1 #
coedge $-1 $106 $35 $107 $108 forward $22 $-1 #
coedge $-1 $35 $106 $109 $110 reversed $22 $-1 #
coedge $-1 $111 $112 $35 $59 reversed $113 $-1 #
edge $-1 $114 -6.1130456205612305 $115 6.1130456205612305 $58 $116 forward 7 unknown #
face $-1 $117 $118 $9 $-1 $119 reversed single #
loop $-1 $-1 $120 $36 #
plane-surface $-1 -71.481673635059664 0 0 1 0 0 0 0 -1 forward_v I I I I #
coedge $-1 $121 $71 $122 $123 forward $37 $-1 #
coedge $-1 $124 $39 $121 $125 forward $25 $-1 #
coedge $-1 $39 $124 $126 $127 forward $25 $-1 #
coedge $-1 $74 $73 $39 $67 reversed $75 $-1 #
edge $-1 $128 -32.164026243109113 $129 32.164026243109113 $66 $130 forward 7 unknown #
coedge $-1 $41 $40 $131 $132 forward $16 $-1 #
coedge $-1 $133 $134 $40 $70 reversed $118 $-1 #
edge $-1 $77 -71.481673635059664 $135 71.481673635059664 $69 $136 forward 7 unknown #
coedge $-1 $63 $137 $41 $72 reversed $37 $-1 #
edge $-1 $138 -71.481673635059664 $76 71.481673635059664 $71 $139 forward 7 unknown #
coedge $-1 $66 $42 $137 $140 forward $75 $-1 #
coedge $-1 $42 $66 $133 $141 reversed $75 $-1 #
loop $-1 $-1 $73 $117 #
vertex $-1 $43 $142 #
vertex $-1 $43 $143 #
straight-curve $-1 71.481673635059664 0 10.945997175272634 0 1 0 I I #
face $-1 $144 $145 $10 $-1 $81 reversed single #
loop $-1 $-1 $146 $44 #
plane-surface $-1 0 -32.164026243109113 0 0 1 0 0 0 1 forward_v I I I I #
coedge $-1 $147 $90 $148 $149 forward $45 $-1 #
coedge $-1 $150 $47 $147 $151 forward $29 $-1 #
coedge $-1 $47 $150 $146 $152 reversed $29 $-1 #
coedge $-1 $153 $92 $47 $86 reversed $94 $-1 #
edge $-1 $154 -6.1130456205612305 $155 6.1130456205612305 $85 $156 forward 7 unknown #
coedge $-1 $49 $48 $157 $158 forward $19 $-1 #
coedge $-1 $159 $160 $48 $89 forward $145 $-1 #
edge $-1 $161 -71.481673635059664 $96 71.481673635059664 $88 $162 forward 7 unknown #
coedge $-1 $82 $163 $49 $91 reversed $45 $-1 #
edge $-1 $164 -71.481673635059664 $95 71.481673635059664 $90 $165 forward 7 unknown #
coedge $-1 $85 $50 $163 $166 forward $94 $-1 #
coedge $-1 $50 $167 $159 $168 forward $94 $-1 #
loop $-1 $-1 $93 $169 #
vertex $-1 $51 $170 #
vertex $-1 $51 $171 #
straight-curve $-1 71.481673635059664 -38.277071863670344 -6.295318754129072 0 1 0 I I #
face $-1 $172 $173 $11 $-1 $100 reversed single #
loop $-1 $-1 $174 $52 #
plane-surface $-1 0 32.164026243109113 0 0 -1 0 0 0 -1 forward_v I I I I #
coedge $-1 $175 $107 $112 $176 forward $53 $-1 #
coedge $-1 $177 $55 $174 $178 reversed $33 $-1 #
coedge $-1 $55 $177 $175 $179 forward $33 $-1 #
coedge $-1 $112 $180 $55 $105 reversed $113 $-1 #
edge $-1 $181 -6.1130456205612305 $182 6.1130456205612305 $104 $183 forward 7 unknown #
coedge $-1 $57 $56 $184 $185 forward $22 $-1 #
coedge $-1 $101 $186 $56 $108 reversed $53 $-1 #
edge $-1 $115 -71.481673635059664 $187 71.481673635059664 $107 $188 forward 7 unknown #
coedge $-1 $189 $190 $57 $110 forward $173 $-1 #
edge $-1 $114 -71.481673635059664 $191 71.481673635059664 $109 $192 forward 7 unknown #
coedge $-1 $193 $58 $190 $194 reversed $113 $-1 #
coedge $-1 $58 $104 $101 $176 reversed $113 $-1 #
loop $-1 $-1 $195 $196 #
vertex $-1 $194 $197 #
vertex $-1 $59 $198 #
straight-curve $-1 71.481673635059664 38.277071863670351 -6.295318754129072 0 1 0 I I #
face $-1 $-1 $75 $9 $-1 $199 reversed single #
loop $-1 $-1 $133 $60 #
plane-surface $-1 0 32.164026243109113 0 0 -1 0 0 0 -1 forward_v I I I I #
coedge $-1 $200 $131 $134 $201 forward $61 $-1 #
coedge $-1 $137 $63 $64 $125 reversed $37 $-1 #
coedge $-1 $131 $200 $63 $123 reversed $61 $-1 #
edge $-1 $138 -10.945997175272634 $202 10.945997175272634 $122 $203 forward 7 unknown #
coedge $-1 $65 $64 $200 $204 forward $25 $-1 #
edge $-1 $129 -71.481673635059664 $202 71.481673635059664 $121 $205 forward 7 unknown #
coedge $-1 $134 $133 $65 $127 reversed $118 $-1 #
edge $-1 $206 -71.481673635059664 $128 71.481673635059664 $126 $207 forward 7 unknown #
vertex $-1 $67 $208 #
vertex $-1 $140 $209 #
straight-curve $-1 71.481673635059664 0 -10.945997175272634 0 -1 0 I I #
coedge $-1 $120 $122 $68 $132 reversed $61 $-1 #
edge $-1 $135 -32.164026243109113 $138 32.164026243109113 $131 $210 forward 7 unknown #
coedge $-1 $126 $69 $74 $141 forward $118 $-1 #
coedge $-1 $69 $126 $120 $201 reversed $118 $-1 #
vertex $-1 $70 $211 #
straight-curve $-1 0 32.164026243109113 10.945997175272634 -1 0 0 I I #
coedge $-1 $71 $121 $73 $140 reversed $37 $-1 #
vertex $-1 $132 $212 #
straight-curve $-1 0 -32.164026243109113 10.945997175272634 1 0 0 I I #
edge $-1 $76 -10.945997175272634 $129 10.945997175272634 $73 $213 forward 7 unknown #
edge $-1 $77 -10.945997175272634 $128 10.945997175272634 $74 $214 forward 7 unknown #
point $-1 71.481673635059664 -32.164026243109113 10.945997175272634 #
point $-1 71.481673635059664 32.164026243109113 10.945997175272634 #
face $-1 $215 $216 $10 $-1 $217 forward single #
loop $-1 $-1 $88 $79 #
coedge $-1 $218 $219 $84 $152 forward $80 $-1 #
coedge $-1 $163 $82 $83 $151 reversed $45 $-1 #
coedge $-1 $157 $220 $82 $149 reversed $221 $-1 #
edge $-1 $164 -1.5 $222 1.5 $148 $223 forward 7 unknown #
coedge $-1 $84 $83 $220 $224 forward $29 $-1 #
edge $-1 $155 -71.481673635059664 $222 71.481673635059664 $147 $225 forward 7 unknown #
edge $-1 $154 -71.481673635059664 $226 71.481673635059664 $146 $227 forward 7 unknown #
coedge $-1 $228 $85 $219 $229 forward $94 $-1 #
vertex $-1 $229 $230 #
vertex $-1 $166 $231 #
straight-curve $-1 71.481673635059664 -38.277071863670344 -9.295318754129072 0 -1 0 I I #
coedge $-1 $232 $148 $87 $158 reversed $221 $-1 #
edge $-1 $161 -6.1130456205612305 $164 6.1130456205612305 $157 $233 forward 7 unknown #
coedge $-1 $234 $88 $93 $168 reversed $145 $-1 #
coedge $-1 $88 $234 $232 $235 forward $145 $-1 #
vertex $-1 $235 $236 #
straight-curve $-1 0 -32.164026243109113 -6.295318754129072 1 0 0 I I #
coedge $-1 $90 $147 $92 $166 reversed $45 $-1 #
vertex $-1 $158 $237 #
straight-curve $-1 0 -44.390117484231574 -6.295318754129072 1 0 0 I I #
edge $-1 $95 -1.5 $155 1.5 $92 $238 forward 7 unknown #
coedge $-1 $93 $239 $240 $241 reversed $94 $-1 #
edge $-1 $242 -10.945997175272634 $96 6.295318754129072 $93 $243 forward 7 unknown #
face $-1 $-1 $94 $10 $-1 $244 reversed single #
point $-1 71.481673635059664 -44.390117484231574 -6.295318754129072 #
point $-1 71.481673635059664 -32.164026243109113 -6.295318754129072 #
face $-1 $245 $246 $11 $-1 $247 forward single #
loop $-1 $-1 $109 $98 #
coedge $-1 $248 $249 $102 $178 forward $99 $-1 #
coedge $-1 $186 $101 $103 $179 reversed $53 $-1 #
edge $-1 $115 -1.5 $181 1.5 $112 $250 forward 7 unknown #
coedge $-1 $103 $102 $251 $252 forward $33 $-1 #
edge $-1 $253 -71.481673635059664 $182 71.481673635059664 $174 $254 forward 7 unknown #
edge $-1 $255 -71.481673635059664 $181 71.481673635059664 $175 $256 forward 7 unknown #
coedge $-1 $104 $257 $248 $258 reversed $113 $-1 #
vertex $-1 $105 $259 #
vertex $-1 $258 $260 #
straight-curve $-1 71.481673635059664 38.277071863670351 -9.295318754129072 0 -1 0 I I #
coedge $-1 $261 $262 $106 $185 reversed $263 $-1 #
edge $-1 $187 -6.1130456205612305 $191 6.1130456205612305 $184 $264 forward 7 unknown #
coedge $-1 $107 $175 $261 $265 reversed $53 $-1 #
vertex $-1 $108 $266 #
straight-curve $-1 0 44.390117484231581 -6.295318754129072 -1 0 0 I I #
coedge $-1 $267 $109 $262 $268 reversed $173 $-1 #
coedge $-1 $109 $267 $111 $194 forward $173 $-1 #
vertex $-1 $185 $269 #
straight-curve $-1 0 32.164026243109113 -6.295318754129072 -1 0 0 I I #
coedge $-1 $195 $111 $270 $271 reversed $113 $-1 #
edge $-1 $272 -10.945997175272634 $114 6.295318754129072 $111 $273 forward 7 unknown #
coedge $-1 $274 $193 $275 $276 forward $113 $-1 #
face $-1 $-1 $113 $11 $-1 $277 reversed single #
point $-1 71.481673635059664 32.16402624310912 -6.295318754129072 #
point $-1 71.481673635059664 44.390117484231581 -6.295318754129072 #
plane-surface $-1 71.481673635059664 0 0 -1 0 0 0 0 1 forward_v I I I I #
coedge $-1 $122 $120 $124 $204 reversed $61 $-1 #
edge $-1 $135 -10.945997175272634 $206 10.945997175272634 $134 $278 forward 7 unknown #
vertex $-1 $204 $279 #
straight-curve $-1 -71.481673635059664 -32.164026243109113 0 0 0 -1 I I #
edge $-1 $202 -32.164026243109113 $206 32.164026243109113 $200 $280 forward 7 unknown #
straight-curve $-1 0 -32.164026243109113 -10.945997175272634 -1 0 0 I I #
vertex $-1 $127 $281 #
straight-curve $-1 0 32.164026243109113 -10.945997175272634 1 0 0 I I #
point $-1 71.481673635059664 32.164026243109113 -10.945997175272634 #
point $-1 71.481673635059664 -32.164026243109113 -10.945997175272634 #
straight-curve $-1 -71.481673635059664 0 10.945997175272634 0 -1 0 I I #
point $-1 -71.481673635059664 32.164026243109113 10.945997175272634 #
point $-1 -71.481673635059664 -32.164026243109113 10.945997175272634 #
straight-curve $-1 71.481673635059664 -32.164026243109113 0 0 0 -1 I I #
straight-curve $-1 71.481673635059664 32.164026243109113 0 0 0 -1 I I #
face $-1 $282 $283 $10 $-1 $284 reversed single #
loop $-1 $-1 $240 $144 #
plane-surface $-1 0 0 10.945997175272634 0 0 1 1 0 0 forward_v I I I I #
coedge $-1 $285 $146 $286 $287 forward $80 $-1 #
coedge $-1 $146 $285 $153 $229 reversed $80 $-1 #
coedge $-1 $148 $286 $150 $224 reversed $221 $-1 #
loop $-1 $-1 $288 $282 #
vertex $-1 $224 $289 #
straight-curve $-1 -71.481673635059664 -44.390117484231574 -7.795318754129072 0 0 -1 I I #
edge $-1 $222 -6.1130456205612305 $226 6.1130456205612305 $220 $290 forward 7 unknown #
straight-curve $-1 0 -44.390117484231574 -9.295318754129072 -1 0 0 I I #
vertex $-1 $287 $291 #
straight-curve $-1 0 -32.164026243109113 -9.295318754129072 -1 0 0 I I #
coedge $-1 $239 $153 $292 $293 reversed $94 $-1 #
edge $-1 $154 9.295318754129072 $294 10.945997175272634 $153 $243 forward 7 unknown #
point $-1 71.481673635059664 -32.164026243109113 -9.295318754129072 #
point $-1 71.481673635059664 -44.390117484231574 -9.295318754129072 #
coedge $-1 $295 $157 $160 $235 reversed $221 $-1 #
straight-curve $-1 -71.481673635059664 -38.277071863670344 -6.295318754129072 0 -1 0 I I #
coedge $-1 $160 $159 $296 $297 reversed $145 $-1 #
edge $-1 $298 -10.945997175272634 $161 6.295318754129072 $232 $299 forward 7 unknown #
point $-1 -71.481673635059664 -32.164026243109113 -6.295318754129072 #
point $-1 -71.481673635059664 -44.390117484231574 -6.295318754129072 #
straight-curve $-1 71.481673635059664 -44.390117484231574 -7.795318754129072 0 0 -1 I I #
coedge $-1 $167 $228 $300 $301 reversed $94 $-1 #
coedge $-1 $302 $296 $167 $241 forward $216 $-1 #
edge $-1 $242 -32.164026243109113 $303 32.164026243109113 $167 $304 forward 7 unknown #
vertex $-1 $241 $305 #
straight-curve $-1 71.481673635059664 -32.164026243109113 0 0 0 -1 I I #
plane-surface $-1 71.481673635059664 0 0 -1 0 0 0 0 1 forward_v I I I I #
face $-1 $306 $307 $11 $-1 $308 reversed single #
loop $-1 $-1 $309 $172 #
plane-surface $-1 0 -38.277071863670344 -6.295318754129072 0 0 1 1 0 0 forward_v I I I I #
coedge $-1 $310 $174 $180 $258 forward $99 $-1 #
coedge $-1 $174 $310 $311 $312 reversed $99 $-1 #
straight-curve $-1 71.481673635059664 44.390117484231581 -7.795318754129072 0 0 -1 I I #
coedge $-1 $311 $261 $177 $252 reversed $263 $-1 #
edge $-1 $253 -6.1130456205612305 $255 6.1130456205612305 $251 $313 forward 7 unknown #
vertex $-1 $312 $314 #
straight-curve $-1 0 32.164026243109113 -9.295318754129072 1 0 0 I I #
vertex $-1 $179 $315 #
straight-curve $-1 0 44.390117484231581 -9.295318754129072 1 0 0 I I #
coedge $-1 $180 $316 $317 $318 reversed $113 $-1 #
edge $-1 $182 9.295318754129072 $319 10.945997175272634 $180 $273 forward 7 unknown #
point $-1 71.481673635059664 44.390117484231581 -9.295318754129072 #
point $-1 71.481673635059664 32.16402624310912 -9.295318754129072 #
coedge $-1 $251 $184 $186 $265 forward $263 $-1 #
coedge $-1 $184 $320 $189 $268 forward $263 $-1 #
loop $-1 $-1 $262 $321 #
straight-curve $-1 -71.481673635059664 38.277071863670351 -6.295318754129072 0 -1 0 I I #
edge $-1 $187 -1.5 $255 1.5 $186 $322 forward 7 unknown #
point $-1 -71.481673635059664 44.390117484231581 -6.295318754129072 #
coedge $-1 $190 $189 $323 $324 reversed $173 $-1 #
edge $-1 $325 -10.945997175272634 $191 6.295318754129072 $189 $326 forward 7 unknown #
point $-1 -71.481673635059664 32.16402624310912 -6.295318754129072 #
coedge $-1 $323 $327 $193 $271 forward $328 $-1 #
edge $-1 $329 -32.164026243109113 $272 32.164026243109113 $193 $330 forward 7 unknown #
vertex $-1 $271 $331 #
straight-curve $-1 71.481673635059664 32.164026243109113 0 0 0 -1 I I #
coedge $-1 $332 $195 $309 $333 reversed $113 $-1 #
coedge $-1 $334 $335 $195 $276 reversed $336 $-1 #
edge $-1 $329 -10.945997175272634 $337 6.295318754129072 $195 $338 forward 7 unknown #
plane-surface $-1 71.481673635059664 0 0 -1 0 0 0 0 1 forward_v I I I I #
straight-curve $-1 -71.481673635059664 32.164026243109113 0 0 0 -1 I I #
point $-1 -71.481673635059664 -32.164026243109113 -10.945997175272634 #
straight-curve $-1 -71.481673635059664 0 -10.945997175272634 0 1 0 I I #
point $-1 -71.481673635059664 32.164026243109113 -10.945997175272634 #
face $-1 $339 $221 $10 $-1 $340 reversed single #
loop $-1 $-1 $292 $215 #
plane-surface $-1 0 0 -10.945997175272634 0 0 1 1 0 0 forward_v I I I I #
coedge $-1 $219 $218 $341 $342 reversed $80 $-1 #
coedge $-1 $220 $343 $218 $287 reversed $221 $-1 #
edge $-1 $226 9.295318754129072 $344 10.945997175272634 $286 $299 forward 7 unknown #
coedge $-1 $343 $295 $345 $346 forward $221 $-1 #
point $-1 -71.481673635059664 -44.390117484231574 -9.295318754129072 #
straight-curve $-1 -71.481673635059664 -38.277071863670344 -9.295318754129072 0 1 0 I I #
point $-1 -71.481673635059664 -32.164026243109113 -9.295318754129072 #
coedge $-1 $341 $347 $228 $293 forward $283 $-1 #
edge $-1 $348 -32.164026243109113 $294 32.164026243109113 $228 $349 forward 7 unknown #
vertex $-1 $229 $350 #
coedge $-1 $288 $232 $351 $352 reversed $221 $-1 #
coedge $-1 $240 $351 $234 $297 forward $216 $-1 #
edge $-1 $298 -71.481673635059664 $242 71.481673635059664 $234 $353 forward 7 unknown #
vertex $-1 $352 $354 #
straight-curve $-1 -71.481673635059664 -32.164026243109113 0 0 0 -1 I I #
coedge $-1 $355 $356 $239 $301 forward $357 $-1 #
edge $-1 $303 -10.945997175272634 $348 10.945997175272634 $239 $358 forward 7 unknown #
coedge $-1 $351 $240 $356 $359 forward $216 $-1 #
vertex $-1 $241 $360 #
straight-curve $-1 71.481673635059664 0 10.945997175272634 0 1 0 I I #
point $-1 71.481673635059664 -32.164026243109113 10.945997175272634 #
face $-1 $361 $362 $11 $-1 $363 reversed single #
loop $-1 $-1 $364 $245 #
plane-surface $-1 0 -38.277071863670344 -9.295318754129072 0 0 1 1 0 0 forward_v I I I I #
coedge $-1 $365 $366 $274 $333 forward $246 $-1 #
coedge $-1 $249 $248 $367 $368 reversed $99 $-1 #
coedge $-1 $369 $251 $249 $312 forward $263 $-1 #
edge $-1 $253 9.295318754129072 $370 10.945997175272634 $249 $326 forward 7 unknown #
straight-curve $-1 -71.481673635059664 38.277071863670351 -9.295318754129072 0 1 0 I I #
point $-1 -71.481673635059664 32.16402624310912 -9.295318754129072 #
point $-1 -71.481673635059664 44.390117484231581 -9.295318754129072 #
coedge $-1 $257 $371 $372 $373 forward $113 $-1 #
coedge $-1 $374 $367 $257 $318 forward $375 $-1 #
edge $-1 $319 -32.164026243109113 $376 32.164026243109113 $257 $377 forward 7 unknown #
vertex $-1 $318 $378 #
coedge $-1 $262 $379 $380 $381 reversed $263 $-1 #
face $-1 $196 $263 $11 $-1 $382 reversed single #
straight-curve $-1 -71.481673635059664 44.390117484231581 -7.795318754129072 0 0 -1 I I #
coedge $-1 $380 $270 $267 $324 forward $328 $-1 #
edge $-1 $272 -71.481673635059664 $325 71.481673635059664 $267 $383 forward 7 unknown #
vertex $-1 $324 $384 #
straight-curve $-1 -71.481673635059664 32.164026243109113 0 0 0 -1 I I #
coedge $-1 $270 $380 $334 $385 forward $328 $-1 #
loop $-1 $-1 $270 $386 #
vertex $-1 $271 $387 #
straight-curve $-1 71.481673635059664 0 10.945997175272634 0 1 0 I I #
point $-1 71.481673635059664 32.164026243109113 10.945997175272634 #
coedge $-1 $371 $274 $388 $389 forward $113 $-1 #
edge $-1 $390 -6.1130456205612305 $337 6.1130456205612305 $274 $391 forward 7 unknown #
coedge $-1 $392 $275 $327 $385 reversed $336 $-1 #
coedge $-1 $275 $392 $365 $393 forward $336 $-1 #
loop $-1 $-1 $335 $394 #
vertex $-1 $333 $395 #
straight-curve $-1 71.481673635059664 -32.164026243109113 0 0 0 -1 I I #
face $-1 $169 $357 $10 $-1 $396 reversed single #
plane-surface $-1 -71.481673635059664 0 0 1 0 0 0 0 -1 forward_v I I I I #
coedge $-1 $397 $292 $285 $342 forward $283 $-1 #
edge $-1 $294 -71.481673635059664 $344 71.481673635059664 $285 $398 forward 7 unknown #
coedge $-1 $286 $288 $397 $399 reversed $221 $-1 #
vertex $-1 $399 $400 #
coedge $-1 $356 $355 $288 $346 reversed $357 $-1 #
edge $-1 $401 -10.945997175272634 $402 10.945997175272634 $345 $403 forward 7 unknown #
coedge $-1 $292 $397 $355 $404 forward $283 $-1 #
vertex $-1 $293 $405 #
straight-curve $-1 71.481673635059664 0 -10.945997175272634 0 -1 0 I I #
point $-1 71.481673635059664 -32.164026243109113 -10.945997175272634 #
coedge $-1 $296 $302 $295 $352 forward $216 $-1 #
edge $-1 $401 -32.164026243109113 $298 32.164026243109113 $295 $406 forward 7 unknown #
straight-curve $-1 0 -32.164026243109113 10.945997175272634 1 0 0 I I #
point $-1 -71.481673635059664 -32.164026243109113 10.945997175272634 #
coedge $-1 $345 $300 $347 $404 reversed $357 $-1 #
coedge $-1 $300 $345 $302 $359 reversed $357 $-1 #
loop $-1 $-1 $300 $339 #
straight-curve $-1 71.481673635059664 32.164026243109113 0 0 0 -1 I I #
edge $-1 $303 -71.481673635059664 $401 71.481673635059664 $356 $407 forward 7 unknown #
point $-1 71.481673635059664 32.164026243109113 10.945997175272634 #
face $-1 $394 $408 $11 $-1 $409 reversed single #
loop $-1 $-1 $410 $306 #
plane-surface $-1 0 -44.390117484231574 -7.795318754129072 0 1 0 0 0 1 forward_v I I I I #
coedge $-1 $411 $412 $371 $413 forward $307 $-1 #
coedge $-1 $414 $309 $335 $393 reversed $246 $-1 #
coedge $-1 $309 $414 $415 $416 forward $246 $-1 #
coedge $-1 $317 $417 $310 $368 forward $375 $-1 #
edge $-1 $370 -71.481673635059664 $319 71.481673635059664 $310 $418 forward 7 unknown #
coedge $-1 $419 $311 $417 $420 reversed $263 $-1 #
vertex $-1 $368 $421 #
coedge $-1 $316 $332 $364 $413 reversed $113 $-1 #
coedge $-1 $422 $423 $316 $373 reversed $408 $-1 #
edge $-1 $424 9.295318754129072 $376 10.945997175272634 $316 $338 forward 7 unknown #
coedge $-1 $417 $317 $423 $425 forward $375 $-1 #
loop $-1 $-1 $317 $426 #
vertex $-1 $373 $427 #
straight-curve $-1 71.481673635059664 0 -10.945997175272634 0 -1 0 I I #
point $-1 71.481673635059664 32.164026243109113 -10.945997175272634 #
coedge $-1 $320 $428 $392 $429 reversed $263 $-1 #
coedge $-1 $327 $323 $320 $381 forward $328 $-1 #
edge $-1 $325 -32.164026243109113 $430 32.164026243109113 $320 $431 forward 7 unknown #
plane-surface $-1 -71.481673635059664 0 0 1 0 0 0 0 -1 forward_v I I I I #
straight-curve $-1 0 32.164026243109113 10.945997175272634 -1 0 0 I I #
point $-1 -71.481673635059664 32.164026243109113 10.945997175272634 #
edge $-1 $430 -71.481673635059664 $329 71.481673635059664 $334 $432 forward 7 unknown #
face $-1 $426 $328 $11 $-1 $433 forward single #
point $-1 71.481673635059664 -32.164026243109113 10.945997175272634 #
coedge $-1 $415 $434 $332 $389 reversed $362 $-1 #
edge $-1 $390 -1.5 $435 1.5 $332 $436 forward 7 unknown #
vertex $-1 $333 $437 #
straight-curve $-1 71.481673635059664 -38.277071863670344 -6.295318754129072 0 1 0 I I #
coedge $-1 $335 $334 $379 $429 forward $336 $-1 #
edge $-1 $438 -71.481673635059664 $337 71.481673635059664 $335 $439 forward 7 unknown #
face $-1 $386 $336 $11 $-1 $409 reversed single #
point $-1 71.481673635059664 -32.164026243109113 -6.295318754129072 #
plane-surface $-1 0 32.164026243109113 0 0 -1 0 0 0 -1 forward_v I I I I #
coedge $-1 $347 $341 $343 $399 forward $283 $-1 #
straight-curve $-1 0 -32.164026243109113 -10.945997175272634 -1 0 0 I I #
edge $-1 $344 -32.164026243109113 $402 32.164026243109113 $343 $440 forward 7 unknown #
point $-1 -71.481673635059664 -32.164026243109113 -10.945997175272634 #
vertex $-1 $359 $441 #
vertex $-1 $404 $442 #
straight-curve $-1 -71.481673635059664 32.164026243109113 0 0 0 -1 I I #
edge $-1 $402 -71.481673635059664 $348 71.481673635059664 $355 $443 forward 7 unknown #
point $-1 71.481673635059664 32.164026243109113 -10.945997175272634 #
straight-curve $-1 -71.481673635059664 0 10.945997175272634 0 -1 0 I I #
straight-curve $-1 0 32.164026243109113 10.945997175272634 -1 0 0 I I #
loop $-1 $-1 $422 $361 #
plane-surface $-1 0 -32.164026243109113 0 0 1 0 0 0 1 forward_v I I I I #
coedge $-1 $434 $415 $444 $445 forward $362 $-1 #
coedge $-1 $446 $364 $434 $447 forward $307 $-1 #
coedge $-1 $364 $446 $422 $448 reversed $307 $-1 #
edge $-1 $424 -6.1130456205612305 $435 6.1130456205612305 $371 $449 forward 7 unknown #
coedge $-1 $366 $365 $428 $450 forward $246 $-1 #
coedge $-1 $410 $388 $366 $416 reversed $362 $-1 #
edge $-1 $451 -71.481673635059664 $390 71.481673635059664 $415 $452 forward 7 unknown #
coedge $-1 $367 $374 $369 $420 forward $375 $-1 #
straight-curve $-1 0 32.164026243109113 -10.945997175272634 1 0 0 I I #
coedge $-1 $453 $369 $454 $455 reversed $263 $-1 #
edge $-1 $456 -32.164026243109113 $370 32.164026243109113 $369 $457 forward 7 unknown #
point $-1 -71.481673635059664 32.164026243109113 -10.945997175272634 #
coedge $-1 $454 $372 $412 $448 forward $408 $-1 #
coedge $-1 $372 $454 $374 $425 reversed $408 $-1 #
vertex $-1 $373 $458 #
edge $-1 $376 -71.481673635059664 $456 71.481673635059664 $423 $459 forward 7 unknown #
face $-1 $321 $375 $11 $-1 $460 reversed single #
point $-1 71.481673635059664 -32.164026243109113 -10.945997175272634 #
coedge $-1 $379 $444 $414 $450 reversed $263 $-1 #
edge $-1 $430 -10.945997175272634 $438 6.295318754129072 $379 $461 forward 7 unknown #
vertex $-1 $381 $462 #
straight-curve $-1 -71.481673635059664 0 10.945997175272634 0 -1 0 I I #
straight-curve $-1 0 -32.164026243109113 10.945997175272634 1 0 0 I I #
plane-surface $-1 0 0 10.945997175272634 0 0 1 1 0 0 forward_v I I I I #
coedge $-1 $388 $410 $411 $447 reversed $362 $-1 #
vertex $-1 $389 $463 #
straight-curve $-1 71.481673635059664 -44.390117484231574 -7.795318754129072 0 0 -1 I I #
point $-1 71.481673635059664 -44.390117484231574 -6.295318754129072 #
vertex $-1 $429 $464 #
straight-curve $-1 0 -32.164026243109113 -6.295318754129072 1 0 0 I I #
straight-curve $-1 -71.481673635059664 0 -10.945997175272634 0 1 0 I I #
point $-1 -71.481673635059664 32.164026243109113 10.945997175272634 #
point $-1 -71.481673635059664 32.164026243109113 -10.945997175272634 #
straight-curve $-1 0 32.164026243109113 -10.945997175272634 1 0 0 I I #
coedge $-1 $428 $453 $410 $445 reversed $263 $-1 #
edge $-1 $451 -1.5 $465 1.5 $444 $466 forward 7 unknown #
coedge $-1 $412 $411 $453 $467 forward $307 $-1 #
edge $-1 $435 -71.481673635059664 $465 71.481673635059664 $434 $468 forward 7 unknown #
edge $-1 $424 -71.481673635059664 $469 71.481673635059664 $422 $470 forward 7 unknown #
straight-curve $-1 71.481673635059664 -38.277071863670344 -9.295318754129072 0 -1 0 I I #
edge $-1 $438 -6.1130456205612305 $451 6.1130456205612305 $428 $471 forward 7 unknown #
vertex $-1 $450 $472 #
straight-curve $-1 0 -44.390117484231574 -6.295318754129072 1 0 0 I I #
coedge $-1 $444 $419 $446 $467 reversed $263 $-1 #
coedge $-1 $423 $422 $419 $455 forward $408 $-1 #
edge $-1 $469 9.295318754129072 $456 10.945997175272634 $419 $461 forward 7 unknown #
vertex $-1 $420 $473 #
straight-curve $-1 -71.481673635059664 0 -10.945997175272634 0 1 0 I I #
point $-1 71.481673635059664 -32.164026243109113 -9.295318754129072 #
straight-curve $-1 0 -32.164026243109113 -10.945997175272634 -1 0 0 I I #
plane-surface $-1 0 0 -10.945997175272634 0 0 1 1 0 0 forward_v I I I I #
straight-curve $-1 -71.481673635059664 -32.164026243109113 0 0 0 -1 I I #
point $-1 -71.481673635059664 -32.164026243109113 10.945997175272634 #
point $-1 71.481673635059664 -44.390117484231574 -9.295318754129072 #
point $-1 -71.481673635059664 -32.164026243109113 -6.295318754129072 #
vertex $-1 $467 $474 #
straight-curve $-1 -71.481673635059664 -44.390117484231574 -7.795318754129072 0 0 -1 I I #
edge $-1 $465 -6.1130456205612305 $469 6.1130456205612305 $453 $475 forward 7 unknown #
straight-curve $-1 0 -44.390117484231574 -9.295318754129072 -1 0 0 I I #
vertex $-1 $455 $476 #
straight-curve $-1 0 -32.164026243109113 -9.295318754129072 -1 0 0 I I #
straight-curve $-1 -71.481673635059664 -38.277071863670344 -6.295318754129072 0 -1 0 I I #
point $-1 -71.481673635059664 -44.390117484231574 -6.295318754129072 #
point $-1 -71.481673635059664 -32.164026243109113 -10.945997175272634 #
point $-1 -71.481673635059664 -44.390117484231574 -9.295318754129072 #
straight-curve $-1 -71.481673635059664 -38.277071863670344 -9.295318754129072 0 1 0 I I #
point $-1 -71.481673635059664 -32.164026243109113 -9.295318754129072 #
End-of-ACIS-data 