500 0 6 0           
7 Unknown 11 ACIS 5.0 NT 24 Thu Mar 25 16:54:27 1999 
-1 9.9999999999999995e-007 1e-010 
body $-1 $6 $-1 $7 #
body $-1 $8 $-1 $9 #
body $-1 $10 $-1 $11 #
body $-1 $12 $-1 $13 #
body $-1 $14 $-1 $15 #
body $-1 $16 $-1 $17 #
lump $-1 $-1 $18 $0 #
transform $-1 1 0 0 0 1 0 0 0 1 48.005615405743583 25.10453269402506 6.3186163528599959 1 rotate no_reflect no_shear #
lump $-1 $-1 $19 $1 #
transform $-1 1 0 0 0 1 0 0 0 1 48.005615405743583 25.10453269402506 6.3186163528599959 1 rotate no_reflect no_shear #
lump $-1 $-1 $20 $2 #
transform $-1 1 0 0 0 1 0 0 0 1 48.005615405743583 25.10453269402506 6.3186163528599959 1 rotate no_reflect no_shear #
lump $-1 $-1 $21 $3 #
transform $-1 1 0 0 0 1 0 0 0 1 48.005615405743583 25.10453269402506 6.3186163528599959 1 rotate no_reflect no_shear #
lump $-1 $-1 $22 $4 #
transform $-1 1 0 0 0 1 0 0 0 1 48.005615405743583 25.10453269402506 6.3186163528599959 1 rotate no_reflect no_shear #
lump $-1 $-1 $23 $5 #
transform $-1 1 0 0 0 1 0 0 0 1 48.005615405743583 25.10453269402506 6.3186163528599959 1 rotate no_reflect no_shear #
shell $-1 $-1 $-1 $24 $-1 $6 #
shell $-1 $-1 $-1 $25 $-1 $8 #
shell $-1 $-1 $-1 $26 $-1 $10 #
shell $-1 $-1 $-1 $27 $-1 $12 #
shell $-1 $-1 $-1 $28 $-1 $14 #
shell $-1 $-1 $-1 $29 $-1 $16 #
face $-1 $30 $31 $18 $-1 $32 reversed single #
face $-1 $33 $34 $19 $-1 $35 forward single #
face $-1 $36 $37 $20 $-1 $38 reversed single #
face $-1 $39 $40 $21 $-1 $41 forward single #
face $-1 $42 $43 $22 $-1 $44 reversed single #
face $-1 $45 $46 $23 $-1 $47 forward single #
face $-1 $48 $49 $18 $-1 $50 forward single #
loop $-1 $-1 $51 $24 #
plane-surface $-1 0 -25.10453269402506 0 0 1 0 0 0 1 forward_v I I I I #
face $-1 $52 $53 $19 $-1 $54 forward single #
loop $-1 $-1 $55 $25 #
plane-surface $-1 0 -25.10453269402506 0 0 1 0 0 0 1 forward_v I I I I #
face $-1 $56 $57 $20 $-1 $58 reversed single #
loop $-1 $-1 $59 $26 #
plane-surface $-1 83.148166960317127 9.5985600525964063 131.62168981115224 0 -1 0 -0.86602541151947299 0 -0.49999998660252726 forward_v I I I I #
face $-1 $60 $61 $21 $-1 $62 forward single #
loop $-1 $63 $64 $27 #
cone-surface $-1 44.822651240552176 3.5969984899302254 2.5306956861938414 -0.86602541151947299 0 -0.49999998660252726 0.74999997990379086 0 -1.2990381172792094 1 I I 0 1 1.5 forward I I I I #
face $-1 $65 $66 $22 $-1 $67 reversed single #
loop $-1 $-1 $68 $28 #
plane-surface $-1 -131.15378107975286 -2.4045630727359484 48.473524137142974 0 1 0 -0.86602541151947299 0 0.49999998660252726 forward_v I I I I #
face $-1 $69 $70 $23 $-1 $71 forward single #
loop $-1 $72 $73 $29 #
cone-surface $-1 -44.822651240552176 3.5969984899302254 2.5306956861938539 0.86602541151947299 0 -0.49999998660252726 0.74999997990379086 0 1.2990381172792094 1 I I 0 1 1.5 forward I I I I #
face $-1 $74 $75 $18 $-1 $76 reversed single #
loop $-1 $-1 $77 $30 #
plane-surface $-1 0 0 6.3186163528599959 0 0 1 1 0 0 forward_v I I I I #
coedge $-1 $78 $79 $80 $81 reversed $31 $-1 #
face $-1 $82 $83 $19 $-1 $84 reversed single #
loop $-1 $-1 $85 $33 #
plane-surface $-1 0 0 6.3186163528599959 0 0 1 1 0 0 forward_v I I I I #
coedge $-1 $86 $87 $88 $89 forward $34 $-1 #
face $-1 $90 $91 $20 $-1 $92 reversed single #
loop $-1 $-1 $93 $36 #
plane-surface $-1 1.2863078495684022e-006 3.596998489930229 83.616075691716503 0.86602541151947299 0 0.49999998660252726 0.49999998660252726 0 -0.86602541151947299 forward_v I I I I #
coedge $-1 $94 $95 $96 $97 reversed $37 $-1 #
face $-1 $-1 $98 $21 $-1 $99 forward single #
loop $-1 $100 $101 $39 #
cone-surface $-1 42.679121395155562 3.5969984899302254 1.2931281971521802 -0.86602541151947299 0 -0.49999998660252726 0.37499998995189543 0 -0.64951905863960469 1 I I -0.70710678118654757 0.70710678118654757 0.75 forward I I I I #
loop $-1 $-1 $102 $27 #
coedge $-1 $64 $64 $103 $104 reversed $40 $-1 #
face $-1 $105 $106 $22 $-1 $107 reversed single #
loop $-1 $-1 $108 $42 #
plane-surface $-1 -48.005615405743583 3.596998489930229 0.46791001770723994 -0.86602541151947299 0 0.49999998660252726 0.49999998660252726 0 0.86602541151947299 forward_v I I I I #
coedge $-1 $109 $110 $111 $112 reversed $43 $-1 #
face $-1 $-1 $113 $23 $-1 $114 forward single #
loop $-1 $115 $116 $45 #
cone-surface $-1 -42.679121395155562 3.5969984899302254 1.2931281971521926 0.86602541151947299 0 -0.49999998660252726 0.37499998995189543 0 0.64951905863960469 1 I I -0.70710678118654757 0.70710678118654757 0.75 forward I I I I #
loop $-1 $-1 $117 $29 #
coedge $-1 $73 $73 $118 $119 reversed $46 $-1 #
face $-1 $120 $121 $18 $-1 $122 reversed single #
loop $-1 $-1 $123 $48 #
plane-surface $-1 0 0 -6.3186163528599959 0 0 1 1 0 0 forward_v I I I I #
coedge $-1 $124 $125 $126 $127 forward $49 $-1 #
coedge $-1 $128 $51 $129 $130 reversed $31 $-1 #
coedge $-1 $51 $128 $131 $132 forward $31 $-1 #
coedge $-1 $133 $123 $51 $81 forward $75 $-1 #
edge $-1 $134 -48.005615405743583 $135 48.005615405743583 $51 $136 forward 7 unknown #
face $-1 $137 $138 $19 $-1 $139 reversed single #
loop $-1 $-1 $140 $52 #
plane-surface $-1 -48.005615405743583 0 0 1 0 0 0 0 -1 forward_v I I I I #
coedge $-1 $141 $142 $87 $143 forward $53 $-1 #
coedge $-1 $144 $55 $145 $146 reversed $34 $-1 #
coedge $-1 $55 $144 $85 $143 reversed $34 $-1 #
coedge $-1 $147 $148 $55 $89 reversed $149 $-1 #
edge $-1 $150 -6.3186163528599959 $151 6.3186163528599959 $88 $152 forward 7 unknown #
face $-1 $153 $154 $20 $-1 $155 forward single #
loop $-1 $-1 $156 $56 #
plane-surface $-1 83.148166960317127 -2.4045630727359484 131.62168981115224 0 1 0 0.86602541151947299 0 0.49999998660252726 forward_v I I I I #
coedge $-1 $157 $158 $159 $160 reversed $57 $-1 #
coedge $-1 $95 $59 $161 $162 reversed $37 $-1 #
coedge $-1 $59 $94 $157 $163 reversed $37 $-1 #
coedge $-1 $159 $164 $59 $97 forward $154 $-1 #
edge $-1 $165 -6.4315319255850198 $166 -3.0536251687162306 $96 $167 forward 7 unknown #
loop $-1 $-1 $103 $60 #
plane-surface $-1 1.2863078495684022e-006 3.596998489930229 83.616075691716503 0.86602541151947299 0 0.49999998660252726 0.49999998660252726 0 -0.86602541151947299 forward_v I I I I #
loop $-1 $-1 $168 $39 #
coedge $-1 $101 $101 $102 $169 reversed $61 $-1 #
coedge $-1 $102 $102 $101 $169 forward $63 $-1 #
coedge $-1 $103 $103 $64 $104 forward $98 $-1 #
edge $-1 $170 0 $170 6.2831853071796004 $103 $171 forward 7 unknown #
face $-1 $172 $173 $22 $-1 $174 reversed single #
loop $-1 $-1 $175 $65 #
plane-surface $-1 -131.15378107975286 9.5985600525964063 48.473524137142974 0 -1 0 0.86602541151947299 0 -0.49999998660252726 forward_v I I I I #
coedge $-1 $176 $177 $178 $179 reversed $66 $-1 #
coedge $-1 $110 $68 $180 $181 reversed $43 $-1 #
coedge $-1 $68 $109 $176 $182 reversed $43 $-1 #
coedge $-1 $178 $183 $68 $112 forward $184 $-1 #
edge $-1 $185 17.571275134132847 $186 20.949181891001636 $111 $187 forward 7 unknown #
loop $-1 $-1 $118 $69 #
plane-surface $-1 -48.005615405743583 3.596998489930229 0.46791001770723994 -0.86602541151947299 0 0.49999998660252726 0.49999998660252726 0 0.86602541151947299 forward_v I I I I #
loop $-1 $-1 $188 $45 #
coedge $-1 $116 $116 $117 $189 reversed $70 $-1 #
coedge $-1 $117 $117 $116 $189 forward $72 $-1 #
coedge $-1 $118 $118 $73 $119 forward $113 $-1 #
edge $-1 $190 0 $190 6.2831853071796004 $118 $191 forward 7 unknown #
face $-1 $192 $193 $18 $-1 $194 reversed single #
loop $-1 $-1 $195 $74 #
plane-surface $-1 -48.005615405743583 0 0 1 0 0 0 0 -1 forward_v I I I I #
coedge $-1 $80 $196 $197 $198 forward $75 $-1 #
coedge $-1 $199 $77 $200 $201 forward $49 $-1 #
coedge $-1 $77 $199 $128 $202 forward $49 $-1 #
coedge $-1 $129 $203 $77 $127 reversed $204 $-1 #
edge $-1 $205 -25.10453269402506 $206 25.10453269402506 $126 $207 forward 7 unknown #
coedge $-1 $79 $78 $125 $202 reversed $31 $-1 #
coedge $-1 $197 $126 $78 $130 forward $204 $-1 #
edge $-1 $205 -6.3186163528599959 $134 6.3186163528599959 $129 $208 forward 7 unknown #
coedge $-1 $209 $210 $79 $132 reversed $121 $-1 #
edge $-1 $211 -6.3186163528599959 $135 6.3186163528599959 $131 $212 forward 7 unknown #
coedge $-1 $196 $80 $210 $213 forward $75 $-1 #
vertex $-1 $130 $214 #
vertex $-1 $213 $215 #
straight-curve $-1 0 -25.10453269402506 -6.3186163528599959 -1 0 0 I I #
face $-1 $216 $149 $19 $-1 $217 reversed single #
loop $-1 $-1 $218 $82 #
plane-surface $-1 -46.505615405743583 -29.860138526204935 0 0 1 0 0 0 1 forward_v I I I I #
coedge $-1 $219 $220 $144 $221 forward $83 $-1 #
coedge $-1 $222 $85 $220 $223 forward $53 $-1 #
coedge $-1 $85 $222 $147 $224 forward $53 $-1 #
edge $-1 $150 45.005615405743583 $225 48.005615405743583 $85 $226 forward 7 unknown #
coedge $-1 $87 $86 $140 $221 reversed $34 $-1 #
coedge $-1 $227 $228 $86 $146 forward $229 $-1 #
edge $-1 $230 -48.005615405743583 $151 -45.005615405743583 $145 $231 forward 7 unknown #
coedge $-1 $232 $88 $142 $224 reversed $149 $-1 #
coedge $-1 $88 $232 $227 $233 reversed $149 $-1 #
loop $-1 $-1 $232 $137 #
vertex $-1 $143 $234 #
vertex $-1 $233 $235 #
straight-curve $-1 -45.005615405743583 -25.10453269402506 0 0 0 -1 I I #
face $-1 $-1 $236 $20 $-1 $237 reversed single #
loop $-1 $-1 $96 $90 #
plane-surface $-1 0 0 6.3186163528599959 0 0 1 1 0 0 forward_v I I I I #
coedge $-1 $238 $239 $240 $241 reversed $91 $-1 #
coedge $-1 $242 $93 $95 $163 forward $57 $-1 #
coedge $-1 $93 $242 $238 $243 forward $57 $-1 #
coedge $-1 $240 $96 $93 $160 forward $154 $-1 #
edge $-1 $166 -7.8000608076312918 $244 4.2030623177010629 $159 $245 forward 7 unknown #
coedge $-1 $246 $247 $94 $162 forward $236 $-1 #
edge $-1 $248 -65.342934887868893 $165 -59.492228552716121 $161 $249 forward 7 unknown #
edge $-1 $166 89.255417116727926 $248 96.011230811487152 $95 $250 forward 7 unknown #
coedge $-1 $96 $240 $246 $251 forward $154 $-1 #
vertex $-1 $162 $252 #
vertex $-1 $97 $253 #
straight-curve $-1 41.574083480158563 9.5985600525964063 6.3186163528599977 -1 0 0 I I #
coedge $-1 $168 $168 $-1 $254 reversed $100 $-1 #
edge $-1 $255 0 $255 6.2831853071796004 $101 $256 forward 7 unknown #
vertex $-1 $104 $257 #
ellipse-curve $-1 46.316662027309185 3.5969984899302254 3.3932631852836077 0.86602541151947299 0 0.49999998660252726 0.74999997990379086 0 -1.2990381172792094 1 I I #
face $-1 $-1 $184 $22 $-1 $258 forward single #
loop $-1 $-1 $259 $105 #
plane-surface $-1 -48.005615405743583 0 0 1 0 0 0 0 -1 forward_v I I I I #
coedge $-1 $260 $261 $262 $263 reversed $106 $-1 #
coedge $-1 $264 $108 $110 $182 forward $66 $-1 #
coedge $-1 $108 $264 $260 $265 forward $66 $-1 #
coedge $-1 $262 $111 $108 $179 forward $184 $-1 #
edge $-1 $186 -4.2030623177010629 $266 7.8000608076312918 $178 $267 forward 7 unknown #
coedge $-1 $268 $269 $109 $181 forward $173 $-1 #
edge $-1 $270 -23.768852050864247 $185 -17.918145715711489 $180 $271 forward 7 unknown #
edge $-1 $186 -6.755813694759234 $270 0 $110 $272 forward 7 unknown #
coedge $-1 $111 $262 $268 $273 forward $184 $-1 #
loop $-1 $-1 $262 $172 #
vertex $-1 $181 $274 #
vertex $-1 $112 $275 #
straight-curve $-1 -65.57689053987643 -2.4045630727359484 6.3186163528599941 1 0 0 I I #
coedge $-1 $188 $188 $-1 $276 reversed $115 $-1 #
edge $-1 $277 0 $277 6.2831853071796004 $116 $278 forward 7 unknown #
vertex $-1 $119 $279 #
ellipse-curve $-1 -46.316662027309192 3.5969984899302254 3.3932631852836201 -0.86602541151947299 0 0.49999998660252726 0.74999997990379086 0 1.2990381172792094 1 I I #
face $-1 $-1 $204 $18 $-1 $280 reversed single #
loop $-1 $-1 $281 $120 #
plane-surface $-1 0 25.10453269402506 0 0 -1 0 0 0 -1 forward_v I I I I #
coedge $-1 $210 $209 $282 $283 forward $121 $-1 #
coedge $-1 $123 $133 $284 $285 forward $75 $-1 #
coedge $-1 $203 $129 $123 $198 reversed $204 $-1 #
edge $-1 $286 -25.10453269402506 $134 25.10453269402506 $197 $287 forward 7 unknown #
coedge $-1 $125 $124 $209 $288 forward $49 $-1 #
coedge $-1 $281 $282 $124 $201 reversed $193 $-1 #
edge $-1 $206 -48.005615405743583 $289 48.005615405743583 $200 $290 forward 7 unknown #
edge $-1 $211 -48.005615405743583 $205 48.005615405743583 $128 $291 forward 7 unknown #
coedge $-1 $126 $197 $281 $292 reversed $204 $-1 #
loop $-1 $-1 $129 $192 #
vertex $-1 $127 $293 #
vertex $-1 $127 $294 #
straight-curve $-1 48.005615405743583 0 6.3186163528599959 0 1 0 I I #
straight-curve $-1 48.005615405743583 -25.10453269402506 0 0 0 -1 I I #
coedge $-1 $195 $131 $199 $288 reversed $121 $-1 #
coedge $-1 $131 $195 $133 $213 reversed $121 $-1 #
vertex $-1 $288 $295 #
straight-curve $-1 -48.005615405743583 -25.10453269402506 0 0 0 -1 I I #
edge $-1 $135 -25.10453269402506 $296 25.10453269402506 $210 $297 forward 7 unknown #
point $-1 48.005615405743583 -25.10453269402506 -6.3186163528599959 #
point $-1 -48.005615405743583 -25.10453269402506 -6.3186163528599959 #
face $-1 $-1 $229 $19 $-1 $298 reversed single #
plane-surface $-1 -45.005615405743583 -27.482335610114998 0 -1 0 0 0 0 1 forward_v I I I I #
coedge $-1 $299 $300 $301 $302 forward $138 $-1 #
coedge $-1 $301 $140 $228 $303 reversed $83 $-1 #
coedge $-1 $140 $301 $141 $223 reversed $83 $-1 #
edge $-1 $225 -6.3186163528599959 $230 6.3186163528599959 $140 $304 forward 7 unknown #
coedge $-1 $142 $141 $300 $305 forward $53 $-1 #
edge $-1 $225 25.10453269402506 $306 29.860138526204935 $220 $307 forward 7 unknown #
edge $-1 $308 -2.3778029160899372 $150 2.3778029160899372 $147 $309 forward 7 unknown #
vertex $-1 $223 $310 #
straight-curve $-1 0 -25.10453269402506 6.3186163528599959 -1 0 0 I I #
coedge $-1 $311 $145 $148 $233 forward $229 $-1 #
coedge $-1 $145 $311 $219 $303 forward $229 $-1 #
loop $-1 $-1 $145 $216 #
vertex $-1 $221 $312 #
straight-curve $-1 0 -25.10453269402506 -6.3186163528599959 1 0 0 I I #
coedge $-1 $148 $147 $313 $314 forward $149 $-1 #
edge $-1 $151 -2.3778029160899372 $315 2.3778029160899372 $148 $316 forward 7 unknown #
point $-1 -45.005615405743583 -25.10453269402506 6.3186163528599959 #
point $-1 -45.005615405743583 -25.10453269402506 -6.3186163528599959 #
loop $-1 $-1 $161 $153 #
plane-surface $-1 48.005615405743583 0 0 -1 0 0 0 0 1 forward_v I I I I #
coedge $-1 $239 $156 $158 $243 reversed $91 $-1 #
coedge $-1 $156 $238 $317 $318 reversed $91 $-1 #
coedge $-1 $164 $159 $156 $241 forward $154 $-1 #
edge $-1 $244 3.0536251687162306 $319 6.4315319255850198 $240 $320 forward 7 unknown #
coedge $-1 $158 $157 $247 $321 reversed $57 $-1 #
edge $-1 $322 -96.011230811487152 $244 -89.255417116727926 $238 $323 forward 7 unknown #
vertex $-1 $160 $324 #
straight-curve $-1 44.627708648874787 1.7984992449651145 6.3186163528599977 0 -1 0 I I #
coedge $-1 $317 $161 $164 $251 reversed $236 $-1 #
coedge $-1 $161 $317 $242 $321 forward $236 $-1 #
vertex $-1 $162 $325 #
straight-curve $-1 48.005615405743583 9.5985600525964063 65.810844905576118 0 0 1 I I #
straight-curve $-1 1.2863078495684022e-006 9.5985600525964063 83.616075691716503 0.49999998660252726 0 -0.86602541151947299 I I #
edge $-1 $319 -2.4045630727359484 $165 9.5985600525964063 $246 $326 forward 7 unknown #
point $-1 48.005615405743583 9.5985600525964063 6.3186163528599959 #
point $-1 44.627708648874794 9.5985600525964063 6.3186163528599906 #
edge $-1 $327 1 $327 0 $168 $-1 forward 7 unknown #
vertex $-1 $169 $328 #
ellipse-curve $-1 43.328640453795167 3.5969984899302254 1.6681281871040756 0.86602541151947299 0 0.49999998660252726 0.74999997990379086 0 -1.2990381172792094 1 I I #
point $-1 47.066662007212983 3.5969984899302254 2.0942250680043979 #
plane-surface $-1 0 0 6.3186163528599959 0 0 1 1 0 0 forward_v I I I I #
coedge $-1 $269 $268 $261 $329 forward $173 $-1 #
coedge $-1 $261 $175 $177 $265 reversed $106 $-1 #
coedge $-1 $175 $260 $259 $329 reversed $106 $-1 #
coedge $-1 $183 $178 $175 $263 forward $184 $-1 #
edge $-1 $266 -20.949181891001636 $330 -17.571275134132847 $262 $331 forward 7 unknown #
coedge $-1 $177 $176 $269 $332 reversed $66 $-1 #
edge $-1 $333 0 $266 6.755813694759234 $260 $334 forward 7 unknown #
vertex $-1 $179 $335 #
straight-curve $-1 -44.627708648874794 1.7984992449651145 6.3186163528599959 0 1 0 I I #
coedge $-1 $259 $180 $183 $273 reversed $173 $-1 #
coedge $-1 $180 $259 $264 $332 forward $173 $-1 #
vertex $-1 $181 $336 #
straight-curve $-1 -48.005615405743583 -2.4045630727359484 24.236762068571487 0 0 1 I I #
straight-curve $-1 -48.005615405743583 -2.4045630727359484 0.46791001770723994 -0.49999998660252726 0 -0.86602541151947299 I I #
edge $-1 $330 -9.5985600525964063 $185 2.4045630727359484 $268 $337 forward 7 unknown #
point $-1 -48.005615405743583 -2.4045630727359484 6.3186163528599959 #
point $-1 -44.627708648874794 -2.4045630727359484 6.3186163528599959 #
edge $-1 $338 1 $338 0 $188 $-1 forward 7 unknown #
vertex $-1 $189 $339 #
ellipse-curve $-1 -43.328640453795167 3.5969984899302254 1.6681281871040881 -0.86602541151947299 0 0.49999998660252726 0.74999997990379086 0 1.2990381172792094 1 I I #
point $-1 -45.566662047405401 3.5969984899302254 4.6923013025628286 #
plane-surface $-1 48.005615405743583 0 0 -1 0 0 0 0 1 forward_v I I I I #
coedge $-1 $284 $200 $203 $292 forward $193 $-1 #
coedge $-1 $200 $284 $195 $283 reversed $193 $-1 #
edge $-1 $289 -6.3186163528599959 $296 6.3186163528599959 $282 $340 forward 7 unknown #
coedge $-1 $282 $281 $196 $285 reversed $193 $-1 #
edge $-1 $296 -48.005615405743583 $286 48.005615405743583 $284 $341 forward 7 unknown #
vertex $-1 $198 $342 #
straight-curve $-1 48.005615405743583 0 -6.3186163528599959 0 -1 0 I I #
edge $-1 $289 -25.10453269402506 $211 25.10453269402506 $209 $343 forward 7 unknown #
vertex $-1 $201 $344 #
straight-curve $-1 0 25.10453269402506 6.3186163528599959 -1 0 0 I I #
straight-curve $-1 0 -25.10453269402506 6.3186163528599959 1 0 0 I I #
edge $-1 $206 -6.3186163528599959 $286 6.3186163528599959 $203 $345 forward 7 unknown #
point $-1 48.005615405743583 -25.10453269402506 6.3186163528599959 #
point $-1 48.005615405743583 25.10453269402506 6.3186163528599959 #
point $-1 -48.005615405743583 -25.10453269402506 6.3186163528599959 #
vertex $-1 $285 $346 #
straight-curve $-1 -48.005615405743583 0 -6.3186163528599959 0 1 0 I I #
plane-surface $-1 0 0 -6.3186163528599959 0 0 1 1 0 0 forward_v I I I I #
coedge $-1 $313 $218 $311 $347 reversed $138 $-1 #
coedge $-1 $218 $313 $222 $305 reversed $138 $-1 #
coedge $-1 $220 $219 $218 $302 reversed $83 $-1 #
edge $-1 $306 -6.3186163528599959 $348 6.3186163528599959 $301 $349 forward 7 unknown #
edge $-1 $348 -29.860138526204935 $230 -25.10453269402506 $219 $350 forward 7 unknown #
straight-curve $-1 -48.005615405743583 -25.10453269402506 0 0 0 -1 I I #
edge $-1 $306 -1.5 $308 1.5 $300 $351 forward 7 unknown #
vertex $-1 $223 $352 #
straight-curve $-1 -48.005615405743583 0 6.3186163528599959 0 -1 0 I I #
vertex $-1 $224 $353 #
straight-curve $-1 -45.005615405743583 -27.482335610114998 6.3186163528599959 0 1 0 I I #
point $-1 -48.005615405743583 -25.10453269402506 6.3186163528599959 #
coedge $-1 $228 $227 $299 $347 forward $229 $-1 #
point $-1 -48.005615405743583 -25.10453269402506 -6.3186163528599959 #
coedge $-1 $300 $299 $232 $314 reversed $138 $-1 #
edge $-1 $308 -6.3186163528599959 $315 6.3186163528599959 $232 $354 forward 7 unknown #
vertex $-1 $314 $355 #
straight-curve $-1 -45.005615405743583 -27.482335610114998 -6.3186163528599959 0 -1 0 I I #
coedge $-1 $247 $246 $239 $318 forward $236 $-1 #
edge $-1 $319 59.492228552716121 $322 65.342934887868893 $317 $356 forward 7 unknown #
vertex $-1 $251 $357 #
straight-curve $-1 41.574083480158563 -2.4045630727359484 6.3186163528599977 1 0 0 I I #
edge $-1 $322 -4.2030623177010629 $248 7.8000608076312918 $247 $358 forward 7 unknown #
vertex $-1 $321 $359 #
straight-curve $-1 1.2863078495684022e-006 -2.4045630727359484 83.616075691716503 -0.49999998660252726 0 0.86602541151947299 I I #
point $-1 44.627708648874794 -2.4045630727359484 6.3186163528599906 #
point $-1 48.005615405743583 9.5985600525964063 0.46791001770722573 #
straight-curve $-1 48.005615405743583 0 6.3186163528599959 0 1 0 I I #
vertex $-1 $254 $360 #
point $-1 44.078640433698958 3.5969984899302254 0.36909006982486625 #
edge $-1 $330 17.918145715711489 $333 23.768852050864247 $259 $361 forward 7 unknown #
vertex $-1 $273 $362 #
straight-curve $-1 -65.57689053987643 9.5985600525964063 6.3186163528599941 -1 0 0 I I #
edge $-1 $333 -7.8000608076312918 $270 4.2030623177010629 $269 $363 forward 7 unknown #
vertex $-1 $332 $364 #
straight-curve $-1 -48.005615405743583 9.5985600525964063 0.46791001770723994 0.49999998660252726 0 0.86602541151947299 I I #
point $-1 -44.627708648874794 9.5985600525964063 6.3186163528599959 #
point $-1 -48.005615405743583 -2.4045630727359484 0.46791001770723994 #
straight-curve $-1 -48.005615405743583 0 6.3186163528599959 0 -1 0 I I #
vertex $-1 $276 $365 #
point $-1 -42.578640473891376 3.5969984899302254 2.9671663043832974 #
straight-curve $-1 -48.005615405743583 25.10453269402506 0 0 0 -1 I I #
straight-curve $-1 0 25.10453269402506 -6.3186163528599959 1 0 0 I I #
point $-1 48.005615405743583 25.10453269402506 -6.3186163528599959 #
straight-curve $-1 -48.005615405743583 0 6.3186163528599959 0 -1 0 I I #
point $-1 -48.005615405743583 25.10453269402506 6.3186163528599959 #
straight-curve $-1 48.005615405743583 25.10453269402506 0 0 0 -1 I I #
point $-1 -48.005615405743583 25.10453269402506 -6.3186163528599959 #
edge $-1 $315 -1.5 $348 1.5 $299 $366 forward 7 unknown #
vertex $-1 $303 $367 #
straight-curve $-1 -48.005615405743583 -29.860138526204935 0 0 0 -1 I I #
straight-curve $-1 -48.005615405743583 0 -6.3186163528599959 0 1 0 I I #
straight-curve $-1 -46.505615405743583 -29.860138526204935 6.3186163528599959 1 0 0 I I #
point $-1 -48.005615405743583 -29.860138526204935 6.3186163528599959 #
point $-1 -45.005615405743583 -29.860138526204935 6.3186163528599959 #
straight-curve $-1 -45.005615405743583 -29.860138526204935 0 0 0 -1 I I #
point $-1 -45.005615405743583 -29.860138526204935 -6.3186163528599959 #
straight-curve $-1 48.005615405743583 -2.4045630727359484 65.810844905576118 0 0 -1 I I #
point $-1 48.005615405743583 -2.4045630727359484 6.3186163528599959 #
straight-curve $-1 48.005615405743583 1.7984992449651145 0.46791001770722573 0 1 0 I I #
point $-1 48.005615405743583 -2.4045630727359484 0.46791001770722573 #
point $-1 42.029602336515957 3.5969984899302254 0.91812820720028476 #
straight-curve $-1 -48.005615405743583 9.5985600525964063 24.236762068571487 0 0 -1 I I #
point $-1 -48.005615405743583 9.5985600525964063 6.3186163528599959 #
straight-curve $-1 -48.005615405743583 1.7984992449651145 0.46791001770724072 0 -1 0 I I #
point $-1 -48.005615405743583 9.5985600525964063 0.46791001770723994 #
point $-1 -42.029602336515957 3.5969984899302254 0.9181282072002972 #
straight-curve $-1 -46.505615405743583 -29.860138526204935 -6.3186163528599959 -1 0 0 I I #
point $-1 -48.005615405743583 -29.860138526204935 -6.3186163528599959 #
End-of-ACIS-data 