500 0 11 0           
7 Unknown 11 ACIS 5.0 NT 24 Fri Mar 26 18:20:41 1999 
-1 9.9999999999999995e-007 1e-010 
body $-1 $11 $-1 $12 #
body $-1 $13 $-1 $14 #
body $-1 $15 $-1 $16 #
body $-1 $17 $-1 $18 #
body $-1 $19 $-1 $20 #
body $-1 $21 $-1 $22 #
body $-1 $23 $-1 $24 #
body $-1 $25 $-1 $26 #
body $-1 $27 $-1 $28 #
body $-1 $29 $-1 $30 #
body $-1 $31 $-1 $32 #
lump $-1 $-1 $33 $0 #
transform $-1 1 0 0 0 1 0 0 0 1 65.624561296426279 32.904608059198743 9.3793246172588951 1 rotate no_reflect no_shear #
lump $-1 $-1 $34 $1 #
transform $-1 1 0 0 0 1 0 0 0 1 65.624561296426279 32.904608059198743 9.3793246172588951 1 rotate no_reflect no_shear #
lump $-1 $-1 $35 $2 #
transform $-1 1 0 0 0 1 0 0 0 1 65.624561296426279 32.904608059198743 9.3793246172588951 1 rotate no_reflect no_shear #
lump $-1 $-1 $36 $3 #
transform $-1 1 0 0 0 1 0 0 0 1 65.624561296426279 32.904608059198743 9.3793246172588951 1 rotate no_reflect no_shear #
lump $-1 $-1 $37 $4 #
transform $-1 1 0 0 0 1 0 0 0 1 65.624561296426279 32.904608059198743 9.3793246172588951 1 rotate no_reflect no_shear #
lump $-1 $-1 $38 $5 #
transform $-1 1 0 0 0 1 0 0 0 1 65.624561296426279 32.904608059198743 9.3793246172588951 1 rotate no_reflect no_shear #
lump $-1 $-1 $39 $6 #
transform $-1 1 0 0 0 1 0 0 0 1 65.624561296426279 32.904608059198743 9.3793246172588951 1 rotate no_reflect no_shear #
lump $-1 $-1 $40 $7 #
transform $-1 1 0 0 0 1 0 0 0 1 65.624561296426279 32.904608059198743 9.3793246172588951 1 rotate no_reflect no_shear #
lump $-1 $-1 $41 $8 #
transform $-1 1 0 0 0 1 0 0 0 1 65.624561296426279 32.904608059198743 9.3793246172588951 1 rotate no_reflect no_shear #
lump $-1 $-1 $42 $9 #
transform $-1 1 0 0 0 1 0 0 0 1 65.624561296426279 32.904608059198743 9.3793246172588951 1 rotate no_reflect no_shear #
lump $-1 $-1 $43 $10 #
transform $-1 1 0 0 0 1 0 0 0 1 65.624561296426279 32.904608059198743 9.3793246172588951 1 rotate no_reflect no_shear #
shell $-1 $-1 $-1 $44 $-1 $11 #
shell $-1 $-1 $-1 $45 $-1 $13 #
shell $-1 $-1 $-1 $46 $-1 $15 #
shell $-1 $-1 $-1 $47 $-1 $17 #
shell $-1 $-1 $-1 $48 $-1 $19 #
shell $-1 $-1 $-1 $49 $-1 $21 #
shell $-1 $-1 $-1 $50 $-1 $23 #
shell $-1 $-1 $-1 $51 $-1 $25 #
shell $-1 $-1 $-1 $52 $-1 $27 #
shell $-1 $-1 $-1 $53 $-1 $29 #
shell $-1 $-1 $-1 $54 $-1 $31 #
face $-1 $55 $56 $33 $-1 $57 forward single #
face $-1 $58 $59 $34 $-1 $60 forward single #
face $-1 $61 $62 $35 $-1 $63 forward single #
face $-1 $64 $65 $36 $-1 $66 reversed single #
face $-1 $67 $68 $37 $-1 $69 forward single #
face $-1 $70 $71 $38 $-1 $72 reversed single #
face $-1 $73 $74 $39 $-1 $75 forward single #
face $-1 $76 $77 $40 $-1 $78 forward single #
face $-1 $79 $80 $41 $-1 $81 reversed single #
face $-1 $82 $83 $42 $-1 $84 forward single #
face $-1 $85 $86 $43 $-1 $87 forward single #
face $-1 $88 $89 $33 $-1 $90 reversed single #
loop $-1 $-1 $91 $44 #
plane-surface $-1 0 0 9.3793246172588951 0 0 1 1 0 0 forward_v I I I I #
face $-1 $92 $93 $34 $-1 $94 reversed single #
loop $-1 $-1 $95 $45 #
plane-surface $-1 0 -32.904608059198743 0 0 1 0 0 0 1 forward_v I I I I #
face $-1 $96 $97 $35 $-1 $98 reversed single #
loop $-1 $-1 $99 $46 #
plane-surface $-1 0 32.904608059198743 0 0 -1 0 0 0 -1 forward_v I I I I #
face $-1 $100 $101 $36 $-1 $102 reversed single #
loop $-1 $-1 $103 $47 #
plane-surface $-1 94.661035886941264 5.8171669934758796 183.74219573652354 0 -1 0 -0.80901700255871778 0 -0.5877852410284794 forward_v I I I I #
face $-1 $104 $105 $37 $-1 $106 forward single #
loop $-1 $107 $108 $48 #
cone-surface $-1 61.293662452671668 2.5412152631673521 4.1161101988279558 -0.80901700255871778 0 -0.5877852410284794 0.8816778615427191 0 -1.2135255038380768 1 I I 0 1 1.5 forward I I I I #
face $-1 $109 $110 $38 $-1 $111 reversed single #
loop $-1 $-1 $112 $49 #
plane-surface $-1 -167.6242879503564 -17.106443208201767 82.630455310266058 0 1 0 -0.77714596973225614 0 0.62932038083071107 forward_v I I I I #
face $-1 $113 $114 $39 $-1 $115 forward single #
loop $-1 $116 $117 $50 #
cone-surface $-1 -61.20495745782258 -14.855556745317369 4.191614298371273 0.77714596973225614 0 -0.62932038083071107 0.31466019041535553 0 0.38857298486612807 1 I I 0 1 0.5 forward I I I I #
face $-1 $118 $119 $40 $-1 $120 forward single #
loop $-1 $121 $122 $51 #
cone-surface $-1 -61.20495745782258 -11.479227050990769 4.191614298371273 0.77714596973225614 0 -0.62932038083071107 0.31466019041535553 0 0.38857298486612807 1 I I 0 1 0.5 forward I I I I #
face $-1 $123 $124 $41 $-1 $125 reversed single #
loop $-1 $-1 $126 $52 #
plane-surface $-1 -167.6242879503564 9.2283405881063736 82.630455310266058 0 1 0 -0.77714596973225614 0 0.62932038083071107 forward_v I I I I #
face $-1 $127 $128 $42 $-1 $129 forward single #
loop $-1 $130 $131 $53 #
cone-surface $-1 -61.20495745782258 11.479227050990779 4.191614298371273 0.77714596973225614 0 -0.62932038083071107 0.31466019041535553 0 0.38857298486612807 1 I I 0 1 0.5 forward I I I I #
face $-1 $132 $133 $43 $-1 $134 forward single #
loop $-1 $135 $136 $54 #
cone-surface $-1 -61.20495745782258 14.855556745317379 4.191614298371273 0.77714596973225614 0 -0.62932038083071107 0.31466019041535553 0 0.38857298486612807 1 I I 0 1 0.5 forward I I I I #
face $-1 $137 $138 $33 $-1 $139 reversed single #
loop $-1 $-1 $140 $55 #
plane-surface $-1 0 0 -9.3793246172588951 0 0 1 1 0 0 forward_v I I I I #
coedge $-1 $141 $142 $143 $144 forward $56 $-1 #
face $-1 $145 $146 $34 $-1 $147 reversed single #
loop $-1 $-1 $148 $58 #
plane-surface $-1 0 0 -9.3793246172588951 0 0 1 1 0 0 forward_v I I I I #
coedge $-1 $149 $150 $151 $152 forward $59 $-1 #
face $-1 $153 $154 $35 $-1 $155 forward single #
loop $-1 $-1 $156 $61 #
plane-surface $-1 -65.624561296426279 0 0 1 0 0 0 0 -1 forward_v I I I I #
coedge $-1 $157 $158 $159 $160 forward $62 $-1 #
face $-1 $161 $162 $36 $-1 $163 reversed single #
loop $-1 $-1 $164 $64 #
plane-surface $-1 -11.521735861590003 2.5412152631673521 106.59589857850726 0.80901700255871778 0 0.5877852410284794 0.5877852410284794 0 -0.80901700255871778 forward_v I I I I #
coedge $-1 $165 $166 $167 $168 reversed $65 $-1 #
face $-1 $-1 $169 $37 $-1 $170 forward single #
loop $-1 $171 $172 $67 #
cone-surface $-1 59.613162765115391 2.5412152631673521 2.8951557432671038 -0.80901700255871778 0 -0.5877852410284794 0.44083893077135955 0 -0.60676275191903839 1 I I -0.70710678118654757 0.70710678118654757 0.75 forward I I I I #
loop $-1 $-1 $173 $48 #
coedge $-1 $108 $108 $174 $175 reversed $68 $-1 #
face $-1 $176 $177 $38 $-1 $178 reversed single #
loop $-1 $-1 $179 $70 #
plane-surface $-1 -65.624561296426236 -13.167391898154069 0.032707496435406824 -0.77714596973225614 0 0.62932038083071107 0.62932038083071107 0 0.77714596973225614 forward_v I I I I #
coedge $-1 $180 $181 $182 $183 reversed $71 $-1 #
face $-1 $-1 $184 $39 $-1 $185 forward single #
loop $-1 $186 $187 $73 #
cone-surface $-1 -60.375437679451714 -14.855556745317369 3.5198824446877097 0.77714596973225614 0 -0.62932038083071107 0.15733009520767777 0 0.19428649243306403 1 I I -0.70710678118654746 0.70710678118654746 0.25 forward I I I I #
loop $-1 $-1 $188 $50 #
coedge $-1 $117 $117 $189 $190 reversed $74 $-1 #
face $-1 $-1 $191 $40 $-1 $192 forward single #
loop $-1 $193 $194 $76 #
cone-surface $-1 -60.375437679451714 -11.479227050990769 3.5198824446877097 0.77714596973225614 0 -0.62932038083071107 0.15733009520767777 0 0.19428649243306403 1 I I -0.70710678118654746 0.70710678118654746 0.25 forward I I I I #
loop $-1 $-1 $195 $51 #
coedge $-1 $122 $122 $196 $197 reversed $77 $-1 #
face $-1 $198 $199 $41 $-1 $200 reversed single #
loop $-1 $-1 $201 $79 #
plane-surface $-1 -65.624561296426236 13.167391898154072 0.032707496435406824 -0.77714596973225614 0 0.62932038083071107 0.62932038083071107 0 0.77714596973225614 forward_v I I I I #
coedge $-1 $202 $203 $204 $205 reversed $80 $-1 #
face $-1 $-1 $206 $42 $-1 $207 forward single #
loop $-1 $208 $209 $82 #
cone-surface $-1 -60.375437679451714 11.479227050990779 3.5198824446877097 0.77714596973225614 0 -0.62932038083071107 0.15733009520767777 0 0.19428649243306403 1 I I -0.70710678118654746 0.70710678118654746 0.25 forward I I I I #
loop $-1 $-1 $210 $53 #
coedge $-1 $131 $131 $211 $212 reversed $83 $-1 #
face $-1 $-1 $213 $43 $-1 $214 forward single #
loop $-1 $215 $216 $85 #
cone-surface $-1 -60.375437679451714 14.855556745317379 3.5198824446877097 0.77714596973225614 0 -0.62932038083071107 0.15733009520767777 0 0.19428649243306403 1 I I -0.70710678118654746 0.70710678118654746 0.25 forward I I I I #
loop $-1 $-1 $217 $54 #
coedge $-1 $136 $136 $218 $219 reversed $86 $-1 #
face $-1 $220 $221 $33 $-1 $222 reversed single #
loop $-1 $-1 $223 $88 #
plane-surface $-1 0 -32.904608059198743 0 0 1 0 0 0 1 forward_v I I I I #
coedge $-1 $224 $225 $226 $227 forward $89 $-1 #
coedge $-1 $228 $91 $229 $230 forward $56 $-1 #
coedge $-1 $91 $228 $231 $232 forward $56 $-1 #
coedge $-1 $233 $234 $91 $144 reversed $235 $-1 #
edge $-1 $236 -32.904608059198743 $237 32.904608059198743 $143 $238 forward 7 unknown #
face $-1 $239 $240 $34 $-1 $241 forward single #
loop $-1 $-1 $242 $92 #
plane-surface $-1 65.624561296426279 0 0 -1 0 0 0 0 1 forward_v I I I I #
coedge $-1 $243 $244 $245 $246 forward $93 $-1 #
coedge $-1 $245 $95 $242 $247 reversed $59 $-1 #
coedge $-1 $95 $245 $248 $249 reversed $59 $-1 #
coedge $-1 $250 $251 $95 $152 reversed $240 $-1 #
edge $-1 $252 -65.624561296426279 $253 65.624561296426279 $151 $254 forward 7 unknown #
face $-1 $255 $256 $35 $-1 $257 reversed single #
loop $-1 $-1 $258 $96 #
plane-surface $-1 0 37.456644729961489 -5.9348480142948397 0 0 1 1 0 0 forward_v I I I I #
coedge $-1 $259 $260 $157 $261 forward $97 $-1 #
coedge $-1 $262 $99 $156 $261 reversed $62 $-1 #
coedge $-1 $99 $262 $263 $264 reversed $62 $-1 #
coedge $-1 $258 $265 $99 $160 reversed $154 $-1 #
edge $-1 $266 -65.624561296426279 $267 65.624561296426279 $159 $268 forward 7 unknown #
face $-1 $269 $270 $36 $-1 $271 forward single #
loop $-1 $-1 $272 $100 #
plane-surface $-1 94.661035886941264 -0.73473646714117535 183.74219573652354 0 1 0 0.80901700255871778 0 0.5877852410284794 forward_v I I I I #
coedge $-1 $273 $274 $275 $276 reversed $101 $-1 #
coedge $-1 $166 $103 $277 $278 reversed $65 $-1 #
coedge $-1 $103 $165 $273 $279 reversed $65 $-1 #
coedge $-1 $275 $280 $103 $168 forward $270 $-1 #
edge $-1 $281 -18.294043352955647 $282 -11.779719536720911 $167 $283 forward 7 unknown #
loop $-1 $-1 $174 $104 #
plane-surface $-1 -11.521735861590003 2.5412152631673521 106.59589857850726 0.80901700255871778 0 0.5877852410284794 0.5877852410284794 0 -0.80901700255871778 forward_v I I I I #
loop $-1 $-1 $284 $67 #
coedge $-1 $172 $172 $173 $285 reversed $105 $-1 #
coedge $-1 $173 $173 $172 $285 forward $107 $-1 #
coedge $-1 $174 $174 $108 $175 forward $169 $-1 #
edge $-1 $286 0 $286 6.2831853071796004 $174 $287 forward 7 unknown #
face $-1 $288 $289 $38 $-1 $290 reversed single #
loop $-1 $-1 $291 $109 #
plane-surface $-1 -167.6242879503564 -9.22834058810637 82.630455310266058 0 -1 0 0.77714596973225614 0 -0.62932038083071107 forward_v I I I I #
coedge $-1 $292 $293 $294 $295 reversed $110 $-1 #
coedge $-1 $181 $112 $296 $297 reversed $71 $-1 #
coedge $-1 $112 $180 $292 $298 reversed $71 $-1 #
coedge $-1 $294 $299 $112 $183 forward $300 $-1 #
edge $-1 $301 18.187582678751923 $302 25.756323784083783 $182 $303 forward 7 unknown #
loop $-1 $-1 $189 $113 #
plane-surface $-1 -65.624561296426236 -13.167391898154069 0.032707496435406824 -0.77714596973225614 0 0.62932038083071107 0.62932038083071107 0 0.77714596973225614 forward_v I I I I #
loop $-1 $-1 $304 $73 #
coedge $-1 $187 $187 $188 $305 reversed $114 $-1 #
coedge $-1 $188 $188 $187 $305 forward $116 $-1 #
coedge $-1 $189 $189 $117 $190 forward $184 $-1 #
edge $-1 $306 0 $306 6.2831853071796004 $189 $307 forward 7 unknown #
loop $-1 $-1 $196 $118 #
plane-surface $-1 -65.624561296426236 -13.167391898154069 0.032707496435406824 -0.77714596973225614 0 0.62932038083071107 0.62932038083071107 0 0.77714596973225614 forward_v I I I I #
loop $-1 $-1 $308 $76 #
coedge $-1 $194 $194 $195 $309 reversed $119 $-1 #
coedge $-1 $195 $195 $194 $309 forward $121 $-1 #
coedge $-1 $196 $196 $122 $197 forward $191 $-1 #
edge $-1 $310 0 $310 6.2831853071796004 $196 $311 forward 7 unknown #
face $-1 $312 $313 $41 $-1 $314 forward single #
loop $-1 $-1 $315 $123 #
plane-surface $-1 -167.6242879503564 17.106443208201771 82.630455310266058 0 -1 0 0.77714596973225614 0 -0.62932038083071107 forward_v I I I I #
coedge $-1 $316 $317 $318 $319 reversed $124 $-1 #
coedge $-1 $203 $126 $320 $321 reversed $80 $-1 #
coedge $-1 $126 $202 $316 $322 reversed $80 $-1 #
coedge $-1 $318 $323 $126 $205 forward $313 $-1 #
edge $-1 $324 18.187582678751923 $325 25.756323784083783 $204 $326 forward 7 unknown #
loop $-1 $-1 $211 $127 #
plane-surface $-1 -65.624561296426236 13.167391898154072 0.032707496435406824 -0.77714596973225614 0 0.62932038083071107 0.62932038083071107 0 0.77714596973225614 forward_v I I I I #
loop $-1 $-1 $327 $82 #
coedge $-1 $209 $209 $210 $328 reversed $128 $-1 #
coedge $-1 $210 $210 $209 $328 forward $130 $-1 #
coedge $-1 $211 $211 $131 $212 forward $206 $-1 #
edge $-1 $329 0 $329 6.2831853071796004 $211 $330 forward 7 unknown #
loop $-1 $-1 $218 $132 #
plane-surface $-1 -65.624561296426236 13.167391898154072 0.032707496435406824 -0.77714596973225614 0 0.62932038083071107 0.62932038083071107 0 0.77714596973225614 forward_v I I I I #
loop $-1 $-1 $331 $85 #
coedge $-1 $216 $216 $217 $332 reversed $133 $-1 #
coedge $-1 $217 $217 $216 $332 forward $135 $-1 #
coedge $-1 $218 $218 $136 $219 forward $213 $-1 #
edge $-1 $333 0 $333 6.2831853071796004 $218 $334 forward 7 unknown #
face $-1 $335 $336 $33 $-1 $337 reversed single #
loop $-1 $-1 $338 $137 #
plane-surface $-1 -65.624561296426279 0 0 1 0 0 0 0 -1 forward_v I I I I #
coedge $-1 $339 $231 $340 $341 forward $138 $-1 #
coedge $-1 $342 $140 $339 $343 forward $89 $-1 #
coedge $-1 $140 $342 $344 $345 forward $89 $-1 #
coedge $-1 $234 $233 $140 $227 reversed $235 $-1 #
edge $-1 $346 -32.904608059198743 $347 32.904608059198743 $226 $348 forward 7 unknown #
coedge $-1 $142 $141 $349 $350 forward $56 $-1 #
coedge $-1 $351 $352 $141 $230 reversed $336 $-1 #
edge $-1 $237 -65.624561296426279 $353 65.624561296426279 $229 $354 forward 7 unknown #
coedge $-1 $223 $355 $142 $232 reversed $138 $-1 #
edge $-1 $356 -65.624561296426279 $236 65.624561296426279 $231 $357 forward 7 unknown #
coedge $-1 $226 $143 $355 $358 forward $235 $-1 #
coedge $-1 $143 $226 $351 $359 reversed $235 $-1 #
loop $-1 $-1 $233 $335 #
vertex $-1 $144 $360 #
vertex $-1 $144 $361 #
straight-curve $-1 65.624561296426279 0 9.3793246172588951 0 1 0 I I #
face $-1 $362 $363 $34 $-1 $364 reversed single #
loop $-1 $-1 $251 $145 #
plane-surface $-1 0 -37.456644729961496 -5.9348480142948397 0 0 1 1 0 0 forward_v I I I I #
coedge $-1 $365 $366 $149 $247 forward $146 $-1 #
coedge $-1 $367 $148 $366 $368 forward $93 $-1 #
coedge $-1 $148 $367 $369 $370 forward $93 $-1 #
coedge $-1 $150 $149 $148 $246 reversed $59 $-1 #
edge $-1 $371 -65.624561296426279 $372 65.624561296426279 $148 $373 forward 7 unknown #
edge $-1 $372 -9.3793246172588951 $253 -5.9348480142948397 $242 $374 forward 7 unknown #
coedge $-1 $369 $375 $150 $249 forward $376 $-1 #
edge $-1 $252 5.9348480142948397 $371 9.3793246172588951 $248 $377 forward 7 unknown #
coedge $-1 $378 $151 $375 $379 forward $240 $-1 #
coedge $-1 $151 $378 $365 $380 forward $240 $-1 #
vertex $-1 $249 $381 #
vertex $-1 $380 $382 #
straight-curve $-1 0 -32.904608059198743 -5.9348480142948397 1 0 0 I I #
face $-1 $383 $384 $35 $-1 $385 reversed single #
loop $-1 $-1 $386 $153 #
plane-surface $-1 0 42.008681400724242 -7.6570863157768674 0 -1 0 0 0 -1 forward_v I I I I #
coedge $-1 $387 $159 $388 $389 forward $154 $-1 #
coedge $-1 $390 $156 $265 $391 reversed $97 $-1 #
coedge $-1 $156 $390 $392 $393 reversed $97 $-1 #
edge $-1 $394 -9.3793246172588951 $267 -5.9348480142948397 $156 $395 forward 7 unknown #
coedge $-1 $158 $157 $396 $397 reversed $62 $-1 #
coedge $-1 $398 $388 $158 $264 forward $399 $-1 #
edge $-1 $266 5.9348480142948397 $400 9.3793246172588951 $263 $401 forward 7 unknown #
coedge $-1 $159 $387 $259 $391 forward $154 $-1 #
vertex $-1 $264 $402 #
vertex $-1 $391 $403 #
straight-curve $-1 0 32.904608059198743 -5.9348480142948397 -1 0 0 I I #
face $-1 $-1 $404 $36 $-1 $405 reversed single #
loop $-1 $-1 $167 $161 #
plane-surface $-1 0 0 9.3793246172588951 0 0 1 1 0 0 forward_v I I I I #
coedge $-1 $406 $407 $408 $409 reversed $162 $-1 #
coedge $-1 $410 $164 $166 $279 forward $101 $-1 #
coedge $-1 $164 $410 $406 $411 forward $101 $-1 #
coedge $-1 $408 $167 $164 $276 forward $270 $-1 #
edge $-1 $282 -4.5465593618922036 $412 2.0053440987248514 $275 $413 forward 7 unknown #
coedge $-1 $414 $415 $165 $278 forward $404 $-1 #
edge $-1 $416 -91.457971038285777 $281 -82.491773251002883 $277 $417 forward 7 unknown #
edge $-1 $282 120.16629274017325 $416 131.24912259285256 $166 $418 forward 7 unknown #
coedge $-1 $167 $408 $414 $419 forward $270 $-1 #
vertex $-1 $278 $420 #
vertex $-1 $168 $421 #
straight-curve $-1 47.330517943470632 5.8171669934758796 9.3793246172589022 -1 0 0 I I #
coedge $-1 $284 $284 $-1 $422 reversed $171 $-1 #
edge $-1 $423 0 $423 6.2831853071796004 $172 $424 forward 7 unknown #
vertex $-1 $175 $425 #
ellipse-curve $-1 62.367399388308911 2.5412152631673521 4.8962257236174507 0.80901700255871778 0 0.5877852410284794 0.8816778615427191 0 -1.2135255038380768 1 I I #
face $-1 $-1 $300 $38 $-1 $426 forward single #
loop $-1 $-1 $427 $176 #
plane-surface $-1 -65.624561296426279 0 0 1 0 0 0 0 -1 forward_v I I I I #
coedge $-1 $428 $429 $430 $431 reversed $177 $-1 #
coedge $-1 $432 $179 $181 $298 forward $110 $-1 #
coedge $-1 $179 $432 $428 $433 forward $110 $-1 #
coedge $-1 $430 $182 $179 $295 forward $300 $-1 #
edge $-1 $302 -10.522747259124733 $434 -2.6446446390293357 $294 $435 forward 7 unknown #
coedge $-1 $436 $437 $180 $297 forward $289 $-1 #
edge $-1 $438 -41.282520158697672 $301 -31.935903037874134 $296 $439 forward 7 unknown #
edge $-1 $302 -12.026848860894955 $438 6.7742692651130113e-014 $181 $440 forward 7 unknown #
coedge $-1 $182 $430 $436 $441 forward $300 $-1 #
loop $-1 $-1 $430 $288 #
vertex $-1 $297 $442 #
vertex $-1 $183 $443 #
straight-curve $-1 -83.812143975178202 -17.106443208201767 9.3793246172588951 1 0 0 I I #
coedge $-1 $304 $304 $-1 $444 reversed $186 $-1 #
edge $-1 $445 0 $445 6.2831853071796004 $187 $446 forward 7 unknown #
vertex $-1 $190 $447 #
ellipse-curve $-1 -61.840190743760346 -14.855556745317369 4.7060160568471305 -0.77714596973225614 0 0.62932038083071107 0.31466019041535553 0 0.38857298486612807 1 I I #
coedge $-1 $308 $308 $-1 $448 reversed $193 $-1 #
edge $-1 $449 0 $449 6.2831853071796004 $194 $450 forward 7 unknown #
vertex $-1 $197 $451 #
ellipse-curve $-1 -61.840190743760346 -11.479227050990769 4.7060160568471305 -0.77714596973225614 0 0.62932038083071107 0.31466019041535553 0 0.38857298486612807 1 I I #
face $-1 $-1 $452 $41 $-1 $453 reversed single #
loop $-1 $-1 $204 $198 #
plane-surface $-1 0 0 9.3793246172588951 0 0 1 1 0 0 forward_v I I I I #
coedge $-1 $454 $455 $456 $457 reversed $199 $-1 #
coedge $-1 $458 $201 $203 $322 forward $124 $-1 #
coedge $-1 $201 $458 $454 $459 forward $124 $-1 #
coedge $-1 $456 $204 $201 $319 forward $313 $-1 #
edge $-1 $325 2.6446446390293374 $460 10.522747259124735 $318 $461 forward 7 unknown #
coedge $-1 $462 $463 $202 $321 forward $452 $-1 #
edge $-1 $464 -41.282520158697672 $324 -31.935903037874134 $320 $465 forward 7 unknown #
edge $-1 $325 -12.026848860894955 $464 6.7742692651130113e-014 $203 $466 forward 7 unknown #
coedge $-1 $204 $456 $462 $467 forward $313 $-1 #
vertex $-1 $205 $468 #
vertex $-1 $205 $469 #
straight-curve $-1 -83.812143975178202 9.2283405881063736 9.3793246172588951 1 0 0 I I #
coedge $-1 $327 $327 $-1 $470 reversed $208 $-1 #
edge $-1 $471 0 $471 6.2831853071796004 $209 $472 forward 7 unknown #
vertex $-1 $212 $473 #
ellipse-curve $-1 -61.840190743760346 11.479227050990779 4.7060160568471305 -0.77714596973225614 0 0.62932038083071107 0.31466019041535553 0 0.38857298486612807 1 I I #
coedge $-1 $331 $331 $-1 $474 reversed $215 $-1 #
edge $-1 $475 0 $475 6.2831853071796004 $216 $476 forward 7 unknown #
vertex $-1 $219 $477 #
ellipse-curve $-1 -61.840190743760346 14.855556745317379 4.7060160568471305 -0.77714596973225614 0 0.62932038083071107 0.31466019041535553 0 0.38857298486612807 1 I I #
face $-1 $-1 $235 $33 $-1 $478 reversed single #
loop $-1 $-1 $351 $220 #
plane-surface $-1 0 32.904608059198743 0 0 -1 0 0 0 -1 forward_v I I I I #
coedge $-1 $479 $349 $352 $480 forward $221 $-1 #
coedge $-1 $355 $223 $224 $343 reversed $138 $-1 #
coedge $-1 $349 $479 $223 $341 reversed $221 $-1 #
edge $-1 $356 -9.3793246172588951 $481 9.3793246172588951 $340 $482 forward 7 unknown #
coedge $-1 $225 $224 $479 $483 forward $89 $-1 #
edge $-1 $347 -65.624561296426279 $481 65.624561296426279 $339 $484 forward 7 unknown #
coedge $-1 $352 $351 $225 $345 reversed $336 $-1 #
edge $-1 $485 -65.624561296426279 $346 65.624561296426279 $344 $486 forward 7 unknown #
vertex $-1 $227 $487 #
vertex $-1 $358 $488 #
straight-curve $-1 65.624561296426279 0 -9.3793246172588951 0 -1 0 I I #
coedge $-1 $338 $340 $228 $350 reversed $221 $-1 #
edge $-1 $353 -32.904608059198743 $356 32.904608059198743 $349 $489 forward 7 unknown #
coedge $-1 $344 $229 $234 $359 forward $336 $-1 #
coedge $-1 $229 $344 $338 $480 reversed $336 $-1 #
vertex $-1 $230 $490 #
straight-curve $-1 0 32.904608059198743 9.3793246172588951 -1 0 0 I I #
coedge $-1 $231 $339 $233 $358 reversed $138 $-1 #
vertex $-1 $350 $491 #
straight-curve $-1 0 -32.904608059198743 9.3793246172588951 1 0 0 I I #
edge $-1 $236 -9.3793246172588951 $347 9.3793246172588951 $233 $492 forward 7 unknown #
edge $-1 $237 -9.3793246172588951 $346 9.3793246172588951 $234 $493 forward 7 unknown #
point $-1 65.624561296426279 -32.904608059198743 9.3793246172588951 #
point $-1 65.624561296426279 32.904608059198743 9.3793246172588951 #
face $-1 $-1 $376 $34 $-1 $494 reversed single #
loop $-1 $-1 $495 $239 #
plane-surface $-1 0 -42.008681400724249 -7.6570863157768674 0 1 0 0 0 1 forward_v I I I I #
coedge $-1 $496 $242 $251 $380 reversed $146 $-1 #
coedge $-1 $242 $496 $243 $368 reversed $146 $-1 #
coedge $-1 $244 $243 $497 $498 forward $93 $-1 #
edge $-1 $372 32.904608059198743 $499 42.008681400724249 $366 $500 forward 7 unknown #
coedge $-1 $501 $248 $244 $370 reversed $376 $-1 #
edge $-1 $502 -42.008681400724249 $371 -32.904608059198743 $369 $503 forward 7 unknown #
vertex $-1 $249 $504 #
vertex $-1 $368 $505 #
straight-curve $-1 0 -32.904608059198743 -9.3793246172588951 1 0 0 I I #
straight-curve $-1 65.624561296426279 -32.904608059198743 0 0 0 1 I I #
coedge $-1 $248 $501 $250 $379 reversed $376 $-1 #
loop $-1 $-1 $248 $362 #
straight-curve $-1 -65.624561296426279 -32.904608059198743 0 0 0 -1 I I #
coedge $-1 $251 $250 $506 $507 forward $240 $-1 #
edge $-1 $252 -4.5520366707627531 $508 4.5520366707627531 $375 $509 forward 7 unknown #
edge $-1 $510 -4.5520366707627531 $253 4.5520366707627531 $365 $511 forward 7 unknown #
point $-1 -65.624561296426279 -32.904608059198743 -5.9348480142948397 #
point $-1 65.624561296426279 -32.904608059198743 -5.9348480142948397 #
face $-1 $-1 $399 $35 $-1 $512 reversed single #
loop $-1 $-1 $396 $255 #
plane-surface $-1 0 0 -9.3793246172588951 0 0 1 1 0 0 forward_v I I I I #
coedge $-1 $513 $514 $515 $516 forward $256 $-1 #
coedge $-1 $265 $258 $514 $517 forward $154 $-1 #
coedge $-1 $263 $515 $258 $389 reversed $399 $-1 #
edge $-1 $266 -4.5520366707627531 $518 4.5520366707627531 $388 $519 forward 7 unknown #
coedge $-1 $260 $259 $520 $521 forward $97 $-1 #
edge $-1 $522 -4.5520366707627531 $267 4.5520366707627531 $259 $523 forward 7 unknown #
coedge $-1 $524 $396 $260 $393 forward $384 $-1 #
edge $-1 $394 -4.552036670762746 $525 4.5520366707627531 $260 $526 forward 7 unknown #
vertex $-1 $393 $527 #
straight-curve $-1 -65.624561296426279 32.904608059198743 0 0 0 1 I I #
coedge $-1 $392 $528 $262 $397 forward $384 $-1 #
edge $-1 $400 -65.624561296426279 $394 65.624561296426279 $396 $529 forward 7 unknown #
coedge $-1 $515 $263 $528 $530 reversed $399 $-1 #
loop $-1 $-1 $263 $383 #
vertex $-1 $264 $531 #
straight-curve $-1 65.624561296426279 32.904608059198743 0 0 0 -1 I I #
point $-1 65.624561296426279 32.904608059198736 -5.9348480142948397 #
point $-1 -65.624561296426279 32.904608059198736 -5.9348480142948397 #
loop $-1 $-1 $277 $269 #
plane-surface $-1 65.624561296426279 0 0 -1 0 0 0 0 1 forward_v I I I I #
coedge $-1 $407 $272 $274 $411 reversed $162 $-1 #
coedge $-1 $272 $406 $532 $533 reversed $162 $-1 #
coedge $-1 $280 $275 $272 $409 forward $270 $-1 #
edge $-1 $412 11.779719536720911 $534 18.294043352955647 $408 $535 forward 7 unknown #
coedge $-1 $274 $273 $415 $536 reversed $101 $-1 #
edge $-1 $537 -131.24912259285256 $412 -120.16629274017325 $406 $538 forward 7 unknown #
vertex $-1 $276 $539 #
straight-curve $-1 59.110237480191536 1.2706076315836761 9.3793246172589022 0 -1 0 I I #
coedge $-1 $532 $277 $280 $419 reversed $404 $-1 #
coedge $-1 $277 $532 $410 $536 forward $404 $-1 #
vertex $-1 $278 $540 #
straight-curve $-1 65.624561296426279 5.8171669934758796 91.871097868261771 0 0 1 I I #
straight-curve $-1 -11.521735861590003 5.8171669934758796 106.59589857850726 0.5877852410284794 0 -0.80901700255871778 I I #
edge $-1 $534 -0.73473646714117535 $281 5.8171669934758796 $414 $541 forward 7 unknown #
point $-1 65.624561296426279 5.8171669934758796 9.3793246172588951 #
point $-1 59.110237480191543 5.8171669934758796 9.379324617258888 #
edge $-1 $542 1 $542 0 $284 $-1 forward 7 unknown #
vertex $-1 $285 $543 #
ellipse-curve $-1 60.219925517034426 2.5412152631673521 3.3359946740384632 0.80901700255871778 0 0.5877852410284794 0.8816778615427191 0 -1.2135255038380768 1 I I #
point $-1 63.249077249851631 2.5412152631673521 3.6827002197793708 #
plane-surface $-1 0 0 9.3793246172588951 0 0 1 1 0 0 forward_v I I I I #
coedge $-1 $437 $436 $429 $544 forward $289 $-1 #
coedge $-1 $429 $291 $293 $433 reversed $177 $-1 #
coedge $-1 $291 $428 $427 $544 reversed $177 $-1 #
coedge $-1 $299 $294 $291 $431 forward $300 $-1 #
edge $-1 $434 -25.756323784083783 $545 -18.187582678751923 $430 $546 forward 7 unknown #
coedge $-1 $293 $292 $437 $547 reversed $110 $-1 #
edge $-1 $548 -6.7742692651130113e-014 $434 12.026848860894955 $428 $549 forward 7 unknown #
vertex $-1 $295 $550 #
straight-curve $-1 -58.055820191094412 -6.5836959490770344 9.3793246172588951 0 1 0 I I #
coedge $-1 $427 $296 $299 $441 reversed $289 $-1 #
coedge $-1 $296 $427 $432 $547 forward $289 $-1 #
vertex $-1 $297 $551 #
straight-curve $-1 -65.624561296426279 -17.106443208201767 41.315227655133029 0 0 1 I I #
straight-curve $-1 -65.624561296426236 -17.106443208201767 0.032707496435406824 -0.62932038083071107 0 -0.77714596973225614 I I #
edge $-1 $545 9.22834058810637 $301 17.106443208201767 $436 $552 forward 7 unknown #
point $-1 -65.624561296426279 -17.106443208201767 9.3793246172588951 #
point $-1 -58.055820191094419 -17.106443208201767 9.3793246172588951 #
edge $-1 $553 1 $553 0 $304 $-1 forward 7 unknown #
vertex $-1 $305 $554 #
ellipse-curve $-1 -60.569724171884779 -14.855556745317369 3.6772125398953874 -0.77714596973225614 0 0.62932038083071107 0.31466019041535553 0 0.38857298486612807 1 I I #
point $-1 -61.525530553345021 -14.855556745317369 5.0945890417132871 #
edge $-1 $555 1 $555 0 $308 $-1 forward 7 unknown #
vertex $-1 $309 $556 #
ellipse-curve $-1 -60.569724171884779 -11.479227050990769 3.6772125398953874 -0.77714596973225614 0 0.62932038083071107 0.31466019041535553 0 0.38857298486612807 1 I I #
point $-1 -61.525530553345021 -11.479227050990769 5.0945890417132871 #
loop $-1 $-1 $320 $312 #
plane-surface $-1 -65.624561296426279 0 0 1 0 0 0 0 -1 forward_v I I I I #
coedge $-1 $455 $315 $317 $459 reversed $199 $-1 #
coedge $-1 $315 $454 $557 $558 reversed $199 $-1 #
coedge $-1 $323 $318 $315 $457 forward $313 $-1 #
edge $-1 $460 -25.756323784083783 $559 -18.187582678751923 $456 $560 forward 7 unknown #
coedge $-1 $317 $316 $463 $561 reversed $124 $-1 #
edge $-1 $562 -6.7742692651130113e-014 $460 12.026848860894955 $454 $563 forward 7 unknown #
vertex $-1 $319 $564 #
straight-curve $-1 -58.055820191094412 6.5836959490770361 9.3793246172588951 0 1 0 I I #
coedge $-1 $557 $320 $323 $467 reversed $452 $-1 #
coedge $-1 $320 $557 $458 $561 forward $452 $-1 #
vertex $-1 $321 $565 #
straight-curve $-1 -65.624561296426279 9.2283405881063736 41.315227655133029 0 0 1 I I #
straight-curve $-1 -65.624561296426236 9.2283405881063736 0.032707496435406824 -0.62932038083071107 0 -0.77714596973225614 I I #
edge $-1 $559 -17.106443208201771 $324 -9.2283405881063736 $462 $566 forward 7 unknown #
point $-1 -65.624561296426279 9.2283405881063736 9.3793246172588951 #
point $-1 -58.055820191094419 9.2283405881063736 9.3793246172588951 #
edge $-1 $567 1 $567 0 $327 $-1 forward 7 unknown #
vertex $-1 $328 $568 #
ellipse-curve $-1 -60.569724171884779 11.479227050990779 3.6772125398953874 -0.77714596973225614 0 0.62932038083071107 0.31466019041535553 0 0.38857298486612807 1 I I #
point $-1 -61.525530553345021 11.479227050990779 5.0945890417132871 #
edge $-1 $569 1 $569 0 $331 $-1 forward 7 unknown #
vertex $-1 $332 $570 #
ellipse-curve $-1 -60.569724171884779 14.855556745317379 3.6772125398953874 -0.77714596973225614 0 0.62932038083071107 0.31466019041535553 0 0.38857298486612807 1 I I #
point $-1 -61.525530553345021 14.855556745317379 5.0945890417132871 #
plane-surface $-1 65.624561296426279 0 0 -1 0 0 0 0 1 forward_v I I I I #
coedge $-1 $340 $338 $342 $483 reversed $221 $-1 #
edge $-1 $353 -9.3793246172588951 $485 9.3793246172588951 $352 $571 forward 7 unknown #
vertex $-1 $483 $572 #
straight-curve $-1 -65.624561296426279 -32.904608059198743 0 0 0 -1 I I #
edge $-1 $481 -32.904608059198743 $485 32.904608059198743 $479 $573 forward 7 unknown #
straight-curve $-1 0 -32.904608059198743 -9.3793246172588951 -1 0 0 I I #
vertex $-1 $345 $574 #
straight-curve $-1 0 32.904608059198743 -9.3793246172588951 1 0 0 I I #
point $-1 65.624561296426279 32.904608059198743 -9.3793246172588951 #
point $-1 65.624561296426279 -32.904608059198743 -9.3793246172588951 #
straight-curve $-1 -65.624561296426279 0 9.3793246172588951 0 -1 0 I I #
point $-1 -65.624561296426279 32.904608059198743 9.3793246172588951 #
point $-1 -65.624561296426279 -32.904608059198743 9.3793246172588951 #
straight-curve $-1 65.624561296426279 -32.904608059198743 0 0 0 -1 I I #
straight-curve $-1 65.624561296426279 32.904608059198743 0 0 0 -1 I I #
plane-surface $-1 -65.624561296426279 0 0 1 0 0 0 0 -1 forward_v I I I I #
coedge $-1 $497 $506 $501 $575 forward $363 $-1 #
coedge $-1 $366 $365 $576 $577 forward $146 $-1 #
coedge $-1 $576 $495 $367 $498 reversed $363 $-1 #
edge $-1 $499 -65.624561296426279 $502 65.624561296426279 $497 $578 forward 7 unknown #
vertex $-1 $577 $579 #
straight-curve $-1 65.624561296426279 0 -9.3793246172588951 0 -1 0 I I #
coedge $-1 $375 $369 $495 $575 reversed $376 $-1 #
vertex $-1 $370 $580 #
straight-curve $-1 -65.624561296426279 0 -9.3793246172588951 0 1 0 I I #
point $-1 -65.624561296426279 -32.904608059198743 -9.3793246172588951 #
point $-1 65.624561296426279 -32.904608059198743 -9.3793246172588951 #
coedge $-1 $495 $576 $378 $507 reversed $363 $-1 #
edge $-1 $508 -65.624561296426279 $510 65.624561296426279 $506 $581 forward 7 unknown #
vertex $-1 $379 $582 #
straight-curve $-1 -65.624561296426279 -37.456644729961496 -5.9348480142948397 0 -1 0 I I #
vertex $-1 $380 $583 #
straight-curve $-1 65.624561296426279 -37.456644729961496 -5.9348480142948397 0 1 0 I I #
plane-surface $-1 65.624561296426279 0 0 -1 0 0 0 0 1 forward_v I I I I #
coedge $-1 $520 $386 $524 $584 reversed $256 $-1 #
coedge $-1 $386 $520 $387 $517 reversed $256 $-1 #
coedge $-1 $388 $398 $386 $516 reversed $399 $-1 #
edge $-1 $518 -1.7222383014820277 $585 1.7222383014820277 $515 $586 forward 7 unknown #
edge $-1 $518 -65.624561296426279 $522 65.624561296426279 $514 $587 forward 7 unknown #
vertex $-1 $389 $588 #
straight-curve $-1 65.624561296426279 37.456644729961489 -5.9348480142948397 0 1 0 I I #
coedge $-1 $514 $513 $390 $521 reversed $256 $-1 #
edge $-1 $522 -1.7222383014820277 $525 1.7222383014820277 $520 $589 forward 7 unknown #
vertex $-1 $517 $590 #
straight-curve $-1 -65.624561296426279 37.456644729961489 -5.9348480142948397 0 -1 0 I I #
coedge $-1 $528 $392 $513 $584 forward $384 $-1 #
vertex $-1 $584 $591 #
straight-curve $-1 -65.624561296426279 37.456644729961489 -9.3793246172588951 0 1 0 I I #
point $-1 -65.624561296426279 32.904608059198743 -9.3793246172588951 #
coedge $-1 $396 $524 $398 $530 forward $384 $-1 #
straight-curve $-1 0 32.904608059198743 -9.3793246172588951 -1 0 0 I I #
edge $-1 $585 -42.008681400724242 $400 -32.904608059198743 $398 $592 forward 7 unknown #
point $-1 65.624561296426279 32.904608059198743 -9.3793246172588951 #
coedge $-1 $415 $414 $407 $533 forward $404 $-1 #
edge $-1 $534 82.491773251002883 $537 91.457971038285777 $532 $593 forward 7 unknown #
vertex $-1 $419 $594 #
straight-curve $-1 47.330517943470632 -0.73473646714117535 9.3793246172589022 1 0 0 I I #
edge $-1 $537 -2.0053440987248514 $416 4.5465593618922036 $415 $595 forward 7 unknown #
vertex $-1 $536 $596 #
straight-curve $-1 -11.521735861590003 -0.73473646714117535 106.59589857850726 -0.5877852410284794 0 0.80901700255871778 I I #
point $-1 59.110237480191543 -0.73473646714117535 9.379324617258888 #
point $-1 65.624561296426279 5.8171669934758796 0.41312682997599381 #
straight-curve $-1 65.624561296426279 0 9.3793246172588951 0 1 0 I I #
vertex $-1 $422 $597 #
point $-1 61.101603378577146 2.5412152631673521 2.1224691702003868 #
edge $-1 $545 31.935903037874134 $548 41.282520158697672 $427 $598 forward 7 unknown #
vertex $-1 $441 $599 #
straight-curve $-1 -83.812143975178202 -9.22834058810637 9.3793246172588951 -1 0 0 I I #
edge $-1 $548 2.6446446390293357 $438 10.522747259124733 $437 $600 forward 7 unknown #
vertex $-1 $547 $601 #
straight-curve $-1 -65.624561296426236 -9.22834058810637 0.032707496435406824 0.62932038083071107 0 0.77714596973225614 I I #
point $-1 -58.055820191094419 -9.22834058810637 9.3793246172588951 #
point $-1 -65.624561296426279 -17.106443208201767 0.032707496435354179 #
straight-curve $-1 -65.624561296426279 0 9.3793246172588951 0 -1 0 I I #
vertex $-1 $444 $602 #
point $-1 -60.255063981469419 -14.855556745317369 4.065785524761516 #
vertex $-1 $448 $603 #
point $-1 -60.255063981469419 -11.479227050990769 4.065785524761516 #
coedge $-1 $463 $462 $455 $558 forward $452 $-1 #
edge $-1 $559 31.935903037874134 $562 41.282520158697672 $557 $604 forward 7 unknown #
vertex $-1 $467 $605 #
straight-curve $-1 -83.812143975178202 17.106443208201771 9.3793246172588951 -1 0 0 I I #
edge $-1 $562 -10.522747259124735 $464 -2.6446446390293374 $463 $606 forward 7 unknown #
vertex $-1 $561 $607 #
straight-curve $-1 -65.624561296426236 17.106443208201771 0.032707496435406824 0.62932038083071107 0 0.77714596973225614 I I #
point $-1 -58.055820191094419 17.106443208201771 9.3793246172588951 #
point $-1 -65.624561296426279 9.2283405881063736 0.032707496435354179 #
straight-curve $-1 -65.624561296426279 0 9.3793246172588951 0 -1 0 I I #
vertex $-1 $470 $608 #
point $-1 -60.255063981469419 11.479227050990779 4.065785524761516 #
vertex $-1 $474 $609 #
point $-1 -60.255063981469419 14.855556745317379 4.065785524761516 #
straight-curve $-1 -65.624561296426279 32.904608059198743 0 0 0 -1 I I #
point $-1 -65.624561296426279 -32.904608059198743 -9.3793246172588951 #
straight-curve $-1 -65.624561296426279 0 -9.3793246172588951 0 1 0 I I #
point $-1 -65.624561296426279 32.904608059198743 -9.3793246172588951 #
edge $-1 $508 -1.7222383014820277 $502 1.7222383014820277 $501 $610 forward 7 unknown #
coedge $-1 $506 $497 $496 $577 reversed $363 $-1 #
edge $-1 $510 -1.7222383014820277 $499 1.7222383014820277 $496 $611 forward 7 unknown #
straight-curve $-1 0 -42.008681400724249 -9.3793246172588951 -1 0 0 I I #
point $-1 65.624561296426279 -42.008681400724249 -9.3793246172588951 #
point $-1 -65.624561296426279 -42.008681400724249 -9.3793246172588951 #
straight-curve $-1 0 -42.008681400724249 -5.9348480142948397 1 0 0 I I #
point $-1 -65.624561296426279 -42.008681400724249 -5.9348480142948397 #
point $-1 65.624561296426279 -42.008681400724249 -5.9348480142948397 #
edge $-1 $525 -65.624561296426279 $585 65.624561296426279 $513 $612 forward 7 unknown #
vertex $-1 $530 $613 #
straight-curve $-1 65.624561296426279 42.008681400724242 -7.6570863157768674 0 0 -1 I I #
straight-curve $-1 0 42.008681400724242 -5.9348480142948397 -1 0 0 I I #
point $-1 65.624561296426279 42.008681400724242 -5.9348480142948397 #
straight-curve $-1 -65.624561296426279 42.008681400724242 -7.6570863157768674 0 0 -1 I I #
point $-1 -65.624561296426279 42.008681400724242 -5.9348480142948397 #
point $-1 -65.624561296426279 42.008681400724242 -9.3793246172588951 #
straight-curve $-1 65.624561296426279 0 -9.3793246172588951 0 -1 0 I I #
straight-curve $-1 65.624561296426279 -0.73473646714117535 91.871097868261771 0 0 -1 I I #
point $-1 65.624561296426279 -0.73473646714117535 9.3793246172588951 #
straight-curve $-1 65.624561296426279 1.2706076315836761 0.41312682997600092 0 1 0 I I #
point $-1 65.624561296426279 -0.73473646714117535 0.41312682997599381 #
point $-1 59.006400013196355 2.5412152631673521 2.4543168124957444 #
straight-curve $-1 -65.624561296426279 -9.22834058810637 41.315227655133029 0 0 -1 I I #
point $-1 -65.624561296426279 -9.22834058810637 9.3793246172588951 #
straight-curve $-1 -65.624561296426279 -6.5836959490770344 0.032707496435354255 0 -1 0 I I #
point $-1 -65.624561296426279 -9.22834058810637 0.032707496435354179 #
point $-1 -60.181151187018649 -14.855556745317369 3.362552349480032 #
point $-1 -60.181151187018649 -11.479227050990769 3.362552349480032 #
straight-curve $-1 -65.624561296426279 17.106443208201771 41.315227655133029 0 0 -1 I I #
point $-1 -65.624561296426279 17.106443208201771 9.3793246172588951 #
straight-curve $-1 -65.624561296426279 6.5836959490770361 0.032707496435354255 0 -1 0 I I #
point $-1 -65.624561296426279 17.106443208201771 0.032707496435354179 #
point $-1 -60.181151187018649 11.479227050990779 3.362552349480032 #
point $-1 -60.181151187018649 14.855556745317379 3.362552349480032 #
straight-curve $-1 -65.624561296426279 -42.008681400724249 -7.6570863157768674 0 0 -1 I I #
straight-curve $-1 65.624561296426279 -42.008681400724249 -7.6570863157768674 0 0 -1 I I #
straight-curve $-1 0 42.008681400724242 -9.3793246172588951 1 0 0 I I #
point $-1 65.624561296426279 42.008681400724242 -9.3793246172588951 #
End-of-ACIS-data 