500 0 13 0           
7 Unknown 11 ACIS 5.0 NT 24 Fri Mar 26 19:57:52 1999 
-1 9.9999999999999995e-007 1e-010 
body $-1 $13 $-1 $14 #
body $-1 $15 $-1 $16 #
body $-1 $17 $-1 $18 #
body $-1 $19 $-1 $20 #
body $-1 $21 $-1 $22 #
body $-1 $23 $-1 $24 #
body $-1 $25 $-1 $26 #
body $-1 $27 $-1 $28 #
body $-1 $29 $-1 $30 #
body $-1 $31 $-1 $32 #
body $-1 $33 $-1 $34 #
body $-1 $35 $-1 $36 #
body $-1 $37 $-1 $38 #
lump $-1 $-1 $39 $0 #
transform $-1 1 0 0 0 1 0 0 0 1 69.26358836634418 29.113240450818967 6.7003900330137363 1 rotate no_reflect no_shear #
lump $-1 $-1 $40 $1 #
transform $-1 1 0 0 0 1 0 0 0 1 69.26358836634418 29.113240450818967 6.7003900330137363 1 rotate no_reflect no_shear #
lump $-1 $-1 $41 $2 #
transform $-1 1 0 0 0 1 0 0 0 1 69.26358836634418 29.113240450818967 6.7003900330137363 1 rotate no_reflect no_shear #
lump $-1 $-1 $42 $3 #
transform $-1 1 0 0 0 1 0 0 0 1 69.26358836634418 29.113240450818967 6.7003900330137363 1 rotate no_reflect no_shear #
lump $-1 $-1 $43 $4 #
transform $-1 1 0 0 0 1 0 0 0 1 69.26358836634418 29.113240450818967 6.7003900330137363 1 rotate no_reflect no_shear #
lump $-1 $-1 $44 $5 #
transform $-1 1 0 0 0 1 0 0 0 1 69.26358836634418 29.113240450818967 6.7003900330137363 1 rotate no_reflect no_shear #
lump $-1 $-1 $45 $6 #
transform $-1 1 0 0 0 1 0 0 0 1 69.26358836634418 29.113240450818967 6.7003900330137363 1 rotate no_reflect no_shear #
lump $-1 $-1 $46 $7 #
transform $-1 1 0 0 0 1 0 0 0 1 69.26358836634418 29.113240450818967 6.7003900330137363 1 rotate no_reflect no_shear #
lump $-1 $-1 $47 $8 #
transform $-1 1 0 0 0 1 0 0 0 1 69.26358836634418 29.113240450818967 6.7003900330137363 1 rotate no_reflect no_shear #
lump $-1 $-1 $48 $9 #
transform $-1 1 0 0 0 1 0 0 0 1 69.26358836634418 29.113240450818967 6.7003900330137363 1 rotate no_reflect no_shear #
lump $-1 $-1 $49 $10 #
transform $-1 1 0 0 0 1 0 0 0 1 69.26358836634418 29.113240450818967 6.7003900330137363 1 rotate no_reflect no_shear #
lump $-1 $-1 $50 $11 #
transform $-1 1 0 0 0 1 0 0 0 1 69.26358836634418 29.113240450818967 6.7003900330137363 1 rotate no_reflect no_shear #
lump $-1 $-1 $51 $12 #
transform $-1 1 0 0 0 1 0 0 0 1 69.26358836634418 29.113240450818967 6.7003900330137363 1 rotate no_reflect no_shear #
shell $-1 $-1 $-1 $52 $-1 $13 #
shell $-1 $-1 $-1 $53 $-1 $15 #
shell $-1 $-1 $-1 $54 $-1 $17 #
shell $-1 $-1 $-1 $55 $-1 $19 #
shell $-1 $-1 $-1 $56 $-1 $21 #
shell $-1 $-1 $-1 $57 $-1 $23 #
shell $-1 $-1 $-1 $58 $-1 $25 #
shell $-1 $-1 $-1 $59 $-1 $27 #
shell $-1 $-1 $-1 $60 $-1 $29 #
shell $-1 $-1 $-1 $61 $-1 $31 #
shell $-1 $-1 $-1 $62 $-1 $33 #
shell $-1 $-1 $-1 $63 $-1 $35 #
shell $-1 $-1 $-1 $64 $-1 $37 #
face $-1 $65 $66 $39 $-1 $67 reversed single #
face $-1 $68 $69 $40 $-1 $70 forward single #
face $-1 $71 $72 $41 $-1 $73 forward single #
face $-1 $74 $75 $42 $-1 $76 reversed single #
face $-1 $77 $78 $43 $-1 $79 forward single #
face $-1 $80 $81 $44 $-1 $82 forward single #
face $-1 $83 $84 $45 $-1 $85 forward single #
face $-1 $86 $87 $46 $-1 $88 reversed single #
face $-1 $89 $90 $47 $-1 $91 forward single #
face $-1 $92 $93 $48 $-1 $94 forward single #
face $-1 $95 $96 $49 $-1 $97 reversed single #
face $-1 $98 $99 $50 $-1 $100 forward single #
face $-1 $101 $102 $51 $-1 $103 forward single #
face $-1 $104 $105 $39 $-1 $106 reversed single #
loop $-1 $-1 $107 $52 #
plane-surface $-1 69.26358836634418 0 0 -1 0 0 0 0 1 forward_v I I I I #
face $-1 $108 $109 $40 $-1 $110 reversed single #
loop $-1 $-1 $111 $53 #
plane-surface $-1 -69.26358836634418 0 0 1 0 0 0 0 -1 forward_v I I I I #
face $-1 $112 $113 $41 $-1 $114 reversed single #
loop $-1 $-1 $115 $54 #
plane-surface $-1 69.26358836634418 0 0 -1 0 0 0 0 1 forward_v I I I I #
face $-1 $116 $117 $42 $-1 $118 reversed single #
loop $-1 $-1 $119 $55 #
plane-surface $-1 19.138521443608536 -119.99524661205992 107.58945351877314 -1 0 0 0 -0.6560590369687036 0.75470957328743171 forward_v I I I I #
face $-1 $120 $121 $43 $-1 $122 forward single #
loop $-1 $123 $124 $56 #
cone-surface $-1 -10.797169860312792 -26.279741802153442 4.0323420816175215 0 0.6560590369687036 -0.75470957328743171 1 0 0 1 I I 0 1 1 forward I I I I #
face $-1 $125 $126 $44 $-1 $127 forward single #
loop $-1 $128 $129 $57 #
cone-surface $-1 0.4287143786577019 -26.279741802153442 4.0323420816175215 0 0.6560590369687036 -0.75470957328743171 1 0 0 1 I I 0 1 1 forward I I I I #
face $-1 $130 $131 $45 $-1 $132 forward single #
loop $-1 $133 $134 $58 #
cone-surface $-1 11.65459861762821 -26.279741802153442 4.0323420816175215 0 0.6560590369687036 -0.75470957328743171 1 0 0 1 I I 0 1 1 forward I I I I #
face $-1 $135 $136 $46 $-1 $137 reversed single #
loop $-1 $-1 $138 $59 #
plane-surface $-1 -63.933450281803715 71.040744451709529 147.86415961694931 1 0 0 0 -0.62932039886446345 -0.77714595512881146 forward_v I I I I #
face $-1 $139 $140 $47 $-1 $141 forward single #
loop $-1 $142 $143 $60 #
cone-surface $-1 -60.053163227437217 26.849968547228041 4.7284206134847899 0 -0.62932039886446345 -0.77714595512881146 0.5 0 0 1 I I 0 1 0.5 forward I I I I #
face $-1 $144 $145 $48 $-1 $146 forward single #
loop $-1 $147 $148 $61 #
cone-surface $-1 -54.232732645887467 26.849968547228041 4.7284206134847899 0 -0.62932039886446345 -0.77714595512881146 0.5 0 0 1 I I 0 1 0.5 forward I I I I #
face $-1 $149 $150 $49 $-1 $151 reversed single #
loop $-1 $-1 $152 $62 #
plane-surface $-1 2.6645352591003757e-015 71.040744451709529 147.86415961694931 1 0 0 0 -0.62932039886446345 -0.77714595512881146 forward_v I I I I #
face $-1 $153 $154 $50 $-1 $155 forward single #
loop $-1 $156 $157 $63 #
cone-surface $-1 3.8802870543665051 26.849968547228041 4.7284206134847899 0 -0.62932039886446345 -0.77714595512881146 0.5 0 0 1 I I 0 1 0.5 forward I I I I #
face $-1 $158 $159 $51 $-1 $160 forward single #
loop $-1 $161 $162 $64 #
cone-surface $-1 9.7007176359162486 26.849968547228041 4.7284206134847899 0 -0.62932039886446345 -0.77714595512881146 0.5 0 0 1 I I 0 1 0.5 forward I I I I #
face $-1 $163 $164 $39 $-1 $165 forward single #
loop $-1 $-1 $166 $65 #
plane-surface $-1 -69.26358836634418 0 0 1 0 0 0 0 -1 forward_v I I I I #
coedge $-1 $167 $168 $169 $170 reversed $66 $-1 #
face $-1 $171 $172 $40 $-1 $173 reversed single #
loop $-1 $-1 $174 $68 #
plane-surface $-1 0 0 -6.7003900330137363 0 0 1 1 0 0 forward_v I I I I #
coedge $-1 $175 $176 $177 $178 forward $69 $-1 #
face $-1 $179 $180 $41 $-1 $181 reversed single #
loop $-1 $-1 $182 $71 #
plane-surface $-1 0 0 -6.7003900330137363 0 0 1 1 0 0 forward_v I I I I #
coedge $-1 $183 $184 $185 $186 forward $72 $-1 #
face $-1 $187 $188 $42 $-1 $189 reversed single #
loop $-1 $-1 $190 $74 #
plane-surface $-1 0.4287143786577019 -29.113240450818978 3.0416670781332726 0 -0.6560590369687036 0.75470957328743171 1 0 0 forward_v I I I I #
coedge $-1 $191 $192 $193 $194 reversed $75 $-1 #
face $-1 $-1 $195 $43 $-1 $196 forward single #
loop $-1 $197 $198 $77 #
cone-surface $-1 -10.797169860312792 -25.22265323910775 2.8163008210178369 0 0.6560590369687036 -0.75470957328743171 0.5 0 0 1 I I -0.70710678118654746 0.70710678118654746 0.5 forward I I I I #
loop $-1 $-1 $199 $56 #
coedge $-1 $124 $124 $200 $201 reversed $78 $-1 #
face $-1 $-1 $202 $44 $-1 $203 forward single #
loop $-1 $204 $205 $80 #
cone-surface $-1 0.4287143786577019 -25.22265323910775 2.8163008210178369 0 0.6560590369687036 -0.75470957328743171 0.5 0 0 1 I I -0.70710678118654746 0.70710678118654746 0.5 forward I I I I #
loop $-1 $-1 $206 $57 #
coedge $-1 $129 $129 $207 $208 reversed $81 $-1 #
face $-1 $-1 $209 $45 $-1 $210 forward single #
loop $-1 $211 $212 $83 #
cone-surface $-1 11.65459861762821 -25.22265323910775 2.8163008210178369 0 0.6560590369687036 -0.75470957328743171 0.5 0 0 1 I I -0.70710678118654746 0.70710678118654746 0.5 forward I I I I #
loop $-1 $-1 $213 $58 #
coedge $-1 $134 $134 $214 $215 reversed $84 $-1 #
face $-1 $216 $217 $46 $-1 $218 reversed single #
loop $-1 $-1 $219 $86 #
plane-surface $-1 -57.142947936662338 -16.137233663273932 40.208324543726548 0 0.62932039886446345 0.77714595512881146 1 0 0 forward_v I I I I #
coedge $-1 $220 $221 $222 $223 reversed $87 $-1 #
face $-1 $-1 $224 $47 $-1 $225 forward single #
loop $-1 $226 $227 $89 #
cone-surface $-1 -60.053163227437217 26.365177502028995 4.1297535425636589 0 -0.62932039886446345 -0.77714595512881146 0.25 0 0 1 I I -0.70710678118654746 0.70710678118654746 0.25 forward I I I I #
loop $-1 $-1 $228 $60 #
coedge $-1 $143 $143 $229 $230 reversed $90 $-1 #
face $-1 $-1 $231 $48 $-1 $232 forward single #
loop $-1 $233 $234 $92 #
cone-surface $-1 -54.232732645887467 26.365177502028995 4.1297535425636589 0 -0.62932039886446345 -0.77714595512881146 0.25 0 0 1 I I -0.70710678118654746 0.70710678118654746 0.25 forward I I I I #
loop $-1 $-1 $235 $61 #
coedge $-1 $148 $148 $236 $237 reversed $93 $-1 #
face $-1 $238 $239 $49 $-1 $240 reversed single #
loop $-1 $-1 $241 $95 #
plane-surface $-1 6.7905023451413768 -16.137233663273932 40.208324543726548 0 0.62932039886446345 0.77714595512881146 1 0 0 forward_v I I I I #
coedge $-1 $242 $243 $244 $245 reversed $96 $-1 #
face $-1 $-1 $246 $50 $-1 $247 forward single #
loop $-1 $248 $249 $98 #
cone-surface $-1 3.8802870543665051 26.365177502028995 4.1297535425636589 0 -0.62932039886446345 -0.77714595512881146 0.25 0 0 1 I I -0.70710678118654746 0.70710678118654746 0.25 forward I I I I #
loop $-1 $-1 $250 $63 #
coedge $-1 $157 $157 $251 $252 reversed $99 $-1 #
face $-1 $-1 $253 $51 $-1 $254 forward single #
loop $-1 $255 $256 $101 #
cone-surface $-1 9.7007176359162486 26.365177502028995 4.1297535425636589 0 -0.62932039886446345 -0.77714595512881146 0.25 0 0 1 I I -0.70710678118654746 0.70710678118654746 0.25 forward I I I I #
loop $-1 $-1 $257 $64 #
coedge $-1 $162 $162 $258 $259 reversed $102 $-1 #
face $-1 $260 $261 $39 $-1 $262 reversed single #
loop $-1 $-1 $263 $104 #
plane-surface $-1 0 0 6.7003900330137363 0 0 1 1 0 0 forward_v I I I I #
coedge $-1 $264 $265 $266 $267 reversed $105 $-1 #
coedge $-1 $268 $107 $269 $270 reversed $66 $-1 #
coedge $-1 $107 $268 $271 $272 forward $66 $-1 #
coedge $-1 $273 $274 $107 $170 forward $261 $-1 #
edge $-1 $275 -29.113240450818967 $276 29.113240450818967 $107 $277 forward 7 unknown #
face $-1 $278 $279 $40 $-1 $280 reversed single #
loop $-1 $-1 $281 $108 #
plane-surface $-1 -71.928657408614413 -18.712460384791495 0 0 1 0 0 0 1 forward_v I I I I #
coedge $-1 $282 $283 $176 $284 forward $109 $-1 #
coedge $-1 $285 $111 $286 $287 reversed $69 $-1 #
coedge $-1 $111 $285 $174 $284 reversed $69 $-1 #
coedge $-1 $288 $289 $111 $178 reversed $290 $-1 #
edge $-1 $291 -6.7003900330137363 $292 6.7003900330137363 $177 $293 forward 7 unknown #
face $-1 $294 $295 $41 $-1 $296 reversed single #
loop $-1 $-1 $185 $112 #
plane-surface $-1 71.928657408614413 -18.712460384791495 0 0 1 0 0 0 1 forward_v I I I I #
coedge $-1 $297 $298 $184 $299 forward $113 $-1 #
coedge $-1 $300 $115 $301 $302 reversed $72 $-1 #
coedge $-1 $115 $300 $182 $299 reversed $72 $-1 #
coedge $-1 $303 $304 $115 $186 reversed $180 $-1 #
edge $-1 $305 -6.7003900330137363 $306 6.7003900330137363 $185 $307 forward 7 unknown #
face $-1 $308 $309 $42 $-1 $310 forward single #
loop $-1 $-1 $311 $116 #
plane-surface $-1 -18.281092686293132 -119.99524661205992 107.58945351877314 1 0 0 0 0.6560590369687036 -0.75470957328743171 forward_v I I I I #
coedge $-1 $312 $313 $314 $315 reversed $117 $-1 #
coedge $-1 $192 $119 $316 $317 reversed $75 $-1 #
coedge $-1 $119 $191 $312 $318 reversed $75 $-1 #
coedge $-1 $314 $319 $119 $194 forward $309 $-1 #
edge $-1 $320 30.88438285521099 $321 35.093262063419324 $193 $322 forward 7 unknown #
loop $-1 $-1 $200 $120 #
plane-surface $-1 0.4287143786577019 -29.113240450818978 3.0416670781332726 0 -0.6560590369687036 0.75470957328743171 1 0 0 forward_v I I I I #
loop $-1 $-1 $323 $77 #
coedge $-1 $198 $198 $199 $324 reversed $121 $-1 #
coedge $-1 $199 $199 $198 $324 forward $123 $-1 #
coedge $-1 $200 $200 $124 $201 forward $195 $-1 #
edge $-1 $325 5.8699059163305684e-016 $325 6.2831853071796013 $200 $326 forward 7 unknown #
loop $-1 $-1 $207 $125 #
plane-surface $-1 0.4287143786577019 -29.113240450818978 3.0416670781332726 0 -0.6560590369687036 0.75470957328743171 1 0 0 forward_v I I I I #
loop $-1 $-1 $327 $80 #
coedge $-1 $205 $205 $206 $328 reversed $126 $-1 #
coedge $-1 $206 $206 $205 $328 forward $128 $-1 #
coedge $-1 $207 $207 $129 $208 forward $202 $-1 #
edge $-1 $329 5.8699059163305684e-016 $329 6.2831853071796013 $207 $330 forward 7 unknown #
loop $-1 $-1 $214 $130 #
plane-surface $-1 0.4287143786577019 -29.113240450818978 3.0416670781332726 0 -0.6560590369687036 0.75470957328743171 1 0 0 forward_v I I I I #
loop $-1 $-1 $331 $83 #
coedge $-1 $212 $212 $213 $332 reversed $131 $-1 #
coedge $-1 $213 $213 $212 $332 forward $133 $-1 #
coedge $-1 $214 $214 $134 $215 forward $209 $-1 #
edge $-1 $333 5.8699059163305684e-016 $333 6.2831853071796013 $214 $334 forward 7 unknown #
face $-1 $335 $336 $46 $-1 $337 reversed single #
loop $-1 $-1 $338 $135 #
plane-surface $-1 -50.352445591520961 71.040744451709529 147.86415961694931 -1 0 0 0 0.62932039886446345 0.77714595512881146 forward_v I I I I #
coedge $-1 $339 $340 $341 $342 reversed $136 $-1 #
coedge $-1 $221 $138 $343 $344 reversed $87 $-1 #
coedge $-1 $138 $220 $339 $345 reversed $87 $-1 #
coedge $-1 $341 $346 $138 $223 forward $347 $-1 #
edge $-1 $348 6.407131775035797 $349 10.278753691251787 $222 $350 forward 7 unknown #
loop $-1 $-1 $229 $139 #
plane-surface $-1 -57.142947936662338 -16.137233663273932 40.208324543726548 0 0.62932039886446345 0.77714595512881146 1 0 0 forward_v I I I I #
loop $-1 $-1 $351 $89 #
coedge $-1 $227 $227 $228 $352 reversed $140 $-1 #
coedge $-1 $228 $228 $227 $352 forward $142 $-1 #
coedge $-1 $229 $229 $143 $230 forward $224 $-1 #
edge $-1 $353 -3.2861589410272507e-015 $353 6.2831853071795969 $229 $354 forward 7 unknown #
loop $-1 $-1 $236 $144 #
plane-surface $-1 -57.142947936662338 -16.137233663273932 40.208324543726548 0 0.62932039886446345 0.77714595512881146 1 0 0 forward_v I I I I #
loop $-1 $-1 $355 $92 #
coedge $-1 $234 $234 $235 $356 reversed $145 $-1 #
coedge $-1 $235 $235 $234 $356 forward $147 $-1 #
coedge $-1 $236 $236 $148 $237 forward $231 $-1 #
edge $-1 $357 -3.2861589410272507e-015 $357 6.2831853071795969 $236 $358 forward 7 unknown #
face $-1 $359 $360 $49 $-1 $361 forward single #
loop $-1 $-1 $362 $149 #
plane-surface $-1 13.58100469028275 71.040744451709529 147.86415961694931 -1 0 0 0 0.62932039886446345 0.77714595512881146 forward_v I I I I #
coedge $-1 $363 $364 $365 $366 reversed $150 $-1 #
coedge $-1 $243 $152 $367 $368 reversed $96 $-1 #
coedge $-1 $152 $242 $363 $369 reversed $96 $-1 #
coedge $-1 $365 $370 $152 $245 forward $360 $-1 #
edge $-1 $371 6.407131775035797 $372 10.278753691251787 $244 $373 forward 7 unknown #
loop $-1 $-1 $251 $153 #
plane-surface $-1 6.7905023451413768 -16.137233663273932 40.208324543726548 0 0.62932039886446345 0.77714595512881146 1 0 0 forward_v I I I I #
loop $-1 $-1 $374 $98 #
coedge $-1 $249 $249 $250 $375 reversed $154 $-1 #
coedge $-1 $250 $250 $249 $375 forward $156 $-1 #
coedge $-1 $251 $251 $157 $252 forward $246 $-1 #
edge $-1 $376 -3.2861589410272507e-015 $376 6.2831853071795969 $251 $377 forward 7 unknown #
loop $-1 $-1 $258 $158 #
plane-surface $-1 6.7905023451413768 -16.137233663273932 40.208324543726548 0 0.62932039886446345 0.77714595512881146 1 0 0 forward_v I I I I #
loop $-1 $-1 $378 $101 #
coedge $-1 $256 $256 $257 $379 reversed $159 $-1 #
coedge $-1 $257 $257 $256 $379 forward $161 $-1 #
coedge $-1 $258 $258 $162 $259 forward $253 $-1 #
edge $-1 $380 -3.2861589410272507e-015 $380 6.2831853071795969 $258 $381 forward 7 unknown #
face $-1 $382 $383 $39 $-1 $384 reversed single #
loop $-1 $-1 $169 $163 #
plane-surface $-1 0 0 -6.7003900330137363 0 0 1 1 0 0 forward_v I I I I #
coedge $-1 $385 $386 $268 $387 forward $164 $-1 #
coedge $-1 $388 $166 $389 $390 reversed $105 $-1 #
coedge $-1 $166 $388 $391 $392 forward $105 $-1 #
coedge $-1 $274 $273 $166 $267 forward $261 $-1 #
edge $-1 $393 -29.113240450818967 $394 29.113240450818967 $166 $395 forward 7 unknown #
coedge $-1 $168 $167 $263 $387 reversed $66 $-1 #
coedge $-1 $396 $397 $167 $270 forward $398 $-1 #
edge $-1 $399 -6.7003900330137363 $275 6.7003900330137363 $167 $400 forward 7 unknown #
coedge $-1 $401 $402 $168 $272 reversed $383 $-1 #
edge $-1 $403 -6.7003900330137363 $276 6.7003900330137363 $168 $404 forward 7 unknown #
coedge $-1 $266 $169 $402 $405 forward $261 $-1 #
coedge $-1 $169 $266 $396 $406 forward $261 $-1 #
vertex $-1 $170 $407 #
vertex $-1 $272 $408 #
straight-curve $-1 69.26358836634418 0 -6.7003900330137363 0 -1 0 I I #
face $-1 $409 $290 $40 $-1 $410 reversed single #
loop $-1 $-1 $411 $171 #
plane-surface $-1 -74.593726450884645 -17.212460384791495 0 1 0 0 0 0 -1 forward_v I I I I #
coedge $-1 $412 $413 $414 $415 forward $172 $-1 #
coedge $-1 $416 $174 $412 $417 forward $109 $-1 #
coedge $-1 $174 $416 $288 $418 forward $109 $-1 #
edge $-1 $291 15.712460384791495 $419 18.712460384791495 $174 $420 forward 7 unknown #
coedge $-1 $176 $175 $421 $422 forward $69 $-1 #
coedge $-1 $423 $424 $175 $287 forward $425 $-1 #
edge $-1 $426 -18.712460384791495 $292 -15.712460384791495 $286 $427 forward 7 unknown #
coedge $-1 $428 $177 $283 $418 reversed $290 $-1 #
coedge $-1 $177 $428 $423 $429 reversed $290 $-1 #
loop $-1 $-1 $177 $278 #
vertex $-1 $284 $430 #
vertex $-1 $429 $431 #
straight-curve $-1 -69.26358836634418 -15.712460384791495 0 0 0 1 I I #
face $-1 $432 $433 $41 $-1 $434 reversed single #
loop $-1 $-1 $435 $179 #
plane-surface $-1 71.928657408614413 -15.712460384791495 0 0 -1 0 0 0 -1 forward_v I I I I #
coedge $-1 $436 $182 $437 $438 forward $113 $-1 #
coedge $-1 $182 $436 $303 $439 forward $113 $-1 #
edge $-1 $305 -18.712460384791495 $440 -15.712460384791495 $182 $441 forward 7 unknown #
coedge $-1 $184 $183 $442 $443 forward $72 $-1 #
coedge $-1 $444 $445 $183 $302 forward $446 $-1 #
edge $-1 $447 15.712460384791495 $306 18.712460384791495 $301 $448 forward 7 unknown #
coedge $-1 $449 $185 $298 $439 reversed $180 $-1 #
coedge $-1 $185 $449 $444 $450 reversed $180 $-1 #
vertex $-1 $299 $451 #
vertex $-1 $450 $452 #
straight-curve $-1 69.26358836634418 -18.712460384791495 0 0 0 1 I I #
face $-1 $-1 $453 $42 $-1 $454 reversed single #
loop $-1 $-1 $193 $187 #
plane-surface $-1 0 0 6.7003900330137363 0 0 1 1 0 0 forward_v I I I I #
coedge $-1 $455 $456 $457 $458 reversed $188 $-1 #
coedge $-1 $459 $190 $192 $318 forward $117 $-1 #
coedge $-1 $190 $459 $455 $460 forward $117 $-1 #
coedge $-1 $457 $193 $190 $315 forward $309 $-1 #
edge $-1 $321 -18.924164254279685 $461 18.495449875621983 $314 $462 forward 7 unknown #
coedge $-1 $463 $464 $191 $317 forward $453 $-1 #
edge $-1 $465 -50.753059681253291 $320 -47.094336726372831 $316 $466 forward 7 unknown #
edge $-1 $321 -5.5768196895594295 $465 -1.4162124599810759e-014 $192 $467 forward 7 unknown #
coedge $-1 $193 $457 $463 $468 forward $309 $-1 #
vertex $-1 $194 $469 #
vertex $-1 $194 $470 #
straight-curve $-1 19.138521443608536 -59.997623306029958 6.7003900330137327 0 1 0 I I #
coedge $-1 $323 $323 $-1 $471 reversed $197 $-1 #
edge $-1 $472 0 $472 6.2831853071796004 $198 $473 forward 7 unknown #
vertex $-1 $201 $474 #
ellipse-curve $-1 -10.797169860312792 -27.008800846714799 4.8710285555735107 0 -0.6560590369687036 0.75470957328743171 1 0 0 1 I I #
coedge $-1 $327 $327 $-1 $475 reversed $204 $-1 #
edge $-1 $476 0 $476 6.2831853071796004 $205 $477 forward 7 unknown #
vertex $-1 $208 $478 #
ellipse-curve $-1 0.4287143786577019 -27.008800846714799 4.8710285555735107 0 -0.6560590369687036 0.75470957328743171 1 0 0 1 I I #
coedge $-1 $331 $331 $-1 $479 reversed $211 $-1 #
edge $-1 $480 0 $480 6.2831853071796004 $212 $481 forward 7 unknown #
vertex $-1 $215 $482 #
ellipse-curve $-1 11.65459861762821 -27.008800846714799 4.8710285555735107 0 -0.6560590369687036 0.75470957328743171 1 0 0 1 I I #
face $-1 $-1 $347 $46 $-1 $483 forward single #
loop $-1 $-1 $484 $216 #
plane-surface $-1 0 29.113240450818967 0 0 -1 0 0 0 -1 forward_v I I I I #
coedge $-1 $485 $486 $487 $488 reversed $217 $-1 #
coedge $-1 $489 $219 $221 $345 forward $136 $-1 #
coedge $-1 $219 $489 $485 $490 forward $136 $-1 #
coedge $-1 $487 $222 $219 $342 forward $347 $-1 #
edge $-1 $349 -35.361976313472546 $491 -21.780971623189792 $341 $492 forward 7 unknown #
coedge $-1 $493 $494 $220 $344 forward $336 $-1 #
edge $-1 $495 -70.366867450240932 $348 -67.231689775460922 $343 $496 forward 7 unknown #
edge $-1 $349 53.244634324859078 $495 58.226480901637913 $221 $497 forward 7 unknown #
coedge $-1 $222 $487 $493 $498 forward $347 $-1 #
loop $-1 $-1 $487 $335 #
vertex $-1 $344 $499 #
vertex $-1 $223 $500 #
straight-curve $-1 -63.933450281803715 35.520372225854764 6.7003900330137327 0 -1 0 I I #
coedge $-1 $351 $351 $-1 $501 reversed $226 $-1 #
edge $-1 $502 0 $502 6.2831853071796004 $227 $503 forward 7 unknown #
vertex $-1 $230 $504 #
ellipse-curve $-1 -60.053163227437217 27.177429492710971 5.1328011956237196 0 0.62932039886446345 0.77714595512881146 0.5 0 0 1 I I #
coedge $-1 $355 $355 $-1 $505 reversed $233 $-1 #
edge $-1 $506 0 $506 6.2831853071796004 $234 $507 forward 7 unknown #
vertex $-1 $237 $508 #
ellipse-curve $-1 -54.232732645887467 27.177429492710971 5.1328011956237196 0 0.62932039886446345 0.77714595512881146 0.5 0 0 1 I I #
face $-1 $-1 $509 $49 $-1 $510 reversed single #
loop $-1 $-1 $244 $238 #
plane-surface $-1 0 0 6.7003900330137363 0 0 1 1 0 0 forward_v I I I I #
coedge $-1 $511 $512 $513 $514 reversed $239 $-1 #
coedge $-1 $515 $241 $243 $369 forward $150 $-1 #
coedge $-1 $241 $515 $511 $516 forward $150 $-1 #
coedge $-1 $513 $244 $241 $366 forward $360 $-1 #
edge $-1 $372 -3.3952511725706858 $517 10.185753517712062 $365 $518 forward 7 unknown #
coedge $-1 $519 $520 $242 $368 forward $509 $-1 #
edge $-1 $521 -70.366867450240932 $371 -67.231689775460922 $367 $522 forward 7 unknown #
edge $-1 $372 53.244634324859078 $521 58.226480901637913 $243 $523 forward 7 unknown #
coedge $-1 $244 $513 $519 $524 forward $360 $-1 #
vertex $-1 $368 $525 #
vertex $-1 $245 $526 #
straight-curve $-1 2.6645352591003757e-015 35.520372225854764 6.7003900330137327 0 -1 0 I I #
coedge $-1 $374 $374 $-1 $527 reversed $248 $-1 #
edge $-1 $528 0 $528 6.2831853071796004 $249 $529 forward 7 unknown #
vertex $-1 $252 $530 #
ellipse-curve $-1 3.8802870543665051 27.177429492710971 5.1328011956237196 0 0.62932039886446345 0.77714595512881146 0.5 0 0 1 I I #
coedge $-1 $378 $378 $-1 $531 reversed $255 $-1 #
edge $-1 $532 0 $532 6.2831853071796004 $256 $533 forward 7 unknown #
vertex $-1 $259 $534 #
ellipse-curve $-1 9.7007176359162486 27.177429492710971 5.1328011956237196 0 0.62932039886446345 0.77714595512881146 0.5 0 0 1 I I #
face $-1 $-1 $398 $39 $-1 $535 reversed single #
loop $-1 $-1 $389 $260 #
plane-surface $-1 0 -29.113240450818967 0 0 1 0 0 0 1 forward_v I I I I #
coedge $-1 $536 $263 $397 $537 forward $164 $-1 #
coedge $-1 $263 $536 $401 $538 forward $164 $-1 #
edge $-1 $403 -29.113240450818967 $399 29.113240450818967 $268 $539 forward 7 unknown #
coedge $-1 $265 $264 $536 $540 reversed $105 $-1 #
coedge $-1 $402 $401 $264 $390 forward $383 $-1 #
edge $-1 $541 -6.7003900330137363 $393 6.7003900330137363 $264 $542 forward 7 unknown #
coedge $-1 $397 $396 $265 $392 reversed $398 $-1 #
edge $-1 $543 -6.7003900330137363 $394 6.7003900330137363 $391 $544 forward 7 unknown #
vertex $-1 $267 $545 #
vertex $-1 $406 $546 #
straight-curve $-1 -69.26358836634418 0 -6.7003900330137363 0 1 0 I I #
coedge $-1 $391 $269 $274 $406 reversed $398 $-1 #
coedge $-1 $269 $391 $385 $537 reversed $398 $-1 #
loop $-1 $-1 $269 $382 #
vertex $-1 $387 $547 #
straight-curve $-1 69.26358836634418 29.113240450818967 0 0 0 -1 I I #
coedge $-1 $389 $271 $386 $538 reversed $383 $-1 #
coedge $-1 $271 $389 $273 $405 reversed $383 $-1 #
vertex $-1 $387 $548 #
straight-curve $-1 69.26358836634418 -29.113240450818967 0 0 0 -1 I I #
edge $-1 $276 -69.26358836634418 $393 69.26358836634418 $402 $549 forward 7 unknown #
edge $-1 $394 -69.26358836634418 $275 69.26358836634418 $396 $550 forward 7 unknown #
point $-1 69.26358836634418 29.113240450818967 -6.7003900330137363 #
point $-1 69.26358836634418 -29.113240450818967 -6.7003900330137363 #
face $-1 $-1 $425 $40 $-1 $551 forward single #
plane-surface $-1 -71.928657408614413 -15.712460384791495 0 0 -1 0 0 0 -1 forward_v I I I I #
coedge $-1 $552 $553 $428 $554 forward $279 $-1 #
coedge $-1 $421 $281 $282 $417 reversed $172 $-1 #
coedge $-1 $281 $421 $424 $555 reversed $172 $-1 #
coedge $-1 $553 $552 $281 $415 reversed $279 $-1 #
edge $-1 $556 -6.7003900330137363 $557 6.7003900330137363 $414 $558 forward 7 unknown #
coedge $-1 $283 $282 $552 $559 forward $109 $-1 #
edge $-1 $419 -2.6650690422702326 $557 2.6650690422702326 $412 $560 forward 7 unknown #
edge $-1 $561 -2.6650690422702326 $291 2.6650690422702326 $288 $562 forward 7 unknown #
vertex $-1 $417 $563 #
straight-curve $-1 -69.26358836634418 0 -6.7003900330137363 0 -1 0 I I #
coedge $-1 $413 $412 $285 $422 reversed $172 $-1 #
edge $-1 $426 -6.7003900330137363 $419 6.7003900330137363 $421 $564 forward 7 unknown #
coedge $-1 $565 $286 $289 $429 forward $425 $-1 #
coedge $-1 $286 $565 $413 $555 forward $425 $-1 #
loop $-1 $-1 $286 $409 #
vertex $-1 $287 $566 #
straight-curve $-1 -69.26358836634418 0 6.7003900330137363 0 1 0 I I #
coedge $-1 $289 $288 $411 $554 reversed $290 $-1 #
edge $-1 $292 -2.6650690422702326 $567 2.6650690422702326 $289 $568 forward 7 unknown #
point $-1 -69.26358836634418 -15.712460384791495 -6.7003900330137363 #
point $-1 -69.26358836634418 -15.712460384791495 6.7003900330137363 #
face $-1 $-1 $446 $41 $-1 $569 forward single #
loop $-1 $-1 $570 $294 #
plane-surface $-1 74.593726450884645 -17.212460384791495 0 -1 0 0 0 0 1 forward_v I I I I #
coedge $-1 $437 $571 $572 $573 forward $295 $-1 #
coedge $-1 $298 $297 $574 $575 forward $113 $-1 #
coedge $-1 $442 $435 $297 $438 reversed $295 $-1 #
edge $-1 $440 -2.6650690422702326 $576 2.6650690422702326 $437 $577 forward 7 unknown #
edge $-1 $578 -2.6650690422702326 $305 2.6650690422702326 $303 $579 forward 7 unknown #
vertex $-1 $438 $580 #
straight-curve $-1 69.26358836634418 0 -6.7003900330137363 0 1 0 I I #
coedge $-1 $571 $437 $300 $443 reversed $295 $-1 #
edge $-1 $447 -6.7003900330137363 $440 6.7003900330137363 $442 $581 forward 7 unknown #
coedge $-1 $582 $301 $304 $450 forward $446 $-1 #
coedge $-1 $301 $582 $571 $583 forward $446 $-1 #
loop $-1 $-1 $301 $432 #
vertex $-1 $302 $584 #
straight-curve $-1 69.26358836634418 0 6.7003900330137363 0 -1 0 I I #
coedge $-1 $304 $303 $570 $585 reversed $180 $-1 #
edge $-1 $306 -2.6650690422702326 $586 2.6650690422702326 $304 $587 forward 7 unknown #
point $-1 69.26358836634418 -18.712460384791495 -6.7003900330137363 #
point $-1 69.26358836634418 -18.712460384791495 6.7003900330137363 #
loop $-1 $-1 $316 $308 #
plane-surface $-1 0 -29.113240450818967 0 0 1 0 0 0 1 forward_v I I I I #
coedge $-1 $456 $311 $313 $460 reversed $188 $-1 #
coedge $-1 $311 $455 $588 $589 reversed $188 $-1 #
coedge $-1 $319 $314 $311 $458 forward $309 $-1 #
edge $-1 $461 -35.093262063419324 $590 -30.88438285521099 $457 $591 forward 7 unknown #
coedge $-1 $313 $312 $464 $592 reversed $117 $-1 #
edge $-1 $593 1.4162124599810759e-014 $461 5.5768196895594295 $455 $594 forward 7 unknown #
vertex $-1 $315 $595 #
straight-curve $-1 0.21435718932885095 -24.904361242610634 6.7003900330137371 -1 0 0 I I #
coedge $-1 $588 $316 $319 $468 reversed $453 $-1 #
coedge $-1 $316 $588 $459 $592 forward $453 $-1 #
vertex $-1 $317 $596 #
straight-curve $-1 19.138521443608536 -29.113240450818964 53.79472675938657 0 0 1 I I #
straight-curve $-1 19.138521443608536 -29.113240450818978 3.0416670781332726 0 -0.75470957328743171 -0.6560590369687036 I I #
edge $-1 $590 -18.281092686293132 $320 19.138521443608536 $463 $597 forward 7 unknown #
point $-1 19.138521443608536 -29.113240450818967 6.7003900330137363 #
point $-1 19.138521443608536 -24.904361242610634 6.7003900330137363 #
edge $-1 $598 1 $598 0 $323 $-1 forward 7 unknown #
vertex $-1 $324 $599 #
ellipse-curve $-1 -10.797169860312792 -25.550682757592103 3.1936556076615528 0 -0.6560590369687036 0.75470957328743171 1 0 0 1 I I #
point $-1 -9.7971698603127919 -27.008800846714781 4.8710285555734911 #
edge $-1 $600 1 $600 0 $327 $-1 forward 7 unknown #
vertex $-1 $328 $601 #
ellipse-curve $-1 0.4287143786577019 -25.550682757592103 3.1936556076615528 0 -0.6560590369687036 0.75470957328743171 1 0 0 1 I I #
point $-1 1.4287143786577019 -27.008800846714781 4.8710285555734911 #
edge $-1 $602 1 $602 0 $331 $-1 forward 7 unknown #
vertex $-1 $332 $603 #
ellipse-curve $-1 11.65459861762821 -25.550682757592103 3.1936556076615528 0 -0.6560590369687036 0.75470957328743171 1 0 0 1 I I #
point $-1 12.65459861762821 -27.008800846714781 4.8710285555734911 #
plane-surface $-1 0 0 6.7003900330137363 0 0 1 1 0 0 forward_v I I I I #
coedge $-1 $494 $493 $486 $604 forward $336 $-1 #
coedge $-1 $486 $338 $340 $490 reversed $217 $-1 #
coedge $-1 $338 $485 $484 $604 reversed $217 $-1 #
coedge $-1 $346 $341 $338 $488 forward $347 $-1 #
edge $-1 $491 -10.278753691251787 $605 -6.407131775035797 $487 $606 forward 7 unknown #
coedge $-1 $340 $339 $494 $607 reversed $136 $-1 #
edge $-1 $608 -58.226480901637913 $491 -53.244634324859078 $485 $609 forward 7 unknown #
vertex $-1 $342 $610 #
straight-curve $-1 -28.571473968331169 25.241618534602967 6.7003900330137363 1 0 0 I I #
coedge $-1 $484 $343 $346 $498 reversed $336 $-1 #
coedge $-1 $343 $484 $489 $607 forward $336 $-1 #
vertex $-1 $344 $611 #
straight-curve $-1 -63.933450281803715 29.113240450818967 73.932079808474654 0 0 1 I I #
straight-curve $-1 -63.933450281803715 -16.137233663273932 40.208324543726548 0 0.77714595512881146 -0.62932039886446345 I I #
edge $-1 $605 50.352445591520961 $348 63.933450281803715 $493 $612 forward 7 unknown #
point $-1 -63.933450281803715 29.113240450818967 6.7003900330137363 #
point $-1 -63.933450281803715 25.241618534602978 6.7003900330137327 #
edge $-1 $613 1 $613 0 $351 $-1 forward 7 unknown #
vertex $-1 $352 $614 #
ellipse-curve $-1 -60.053163227437217 26.522507601745112 4.324040031345862 0 0.62932039886446345 0.77714595512881146 0.5 0 0 1 I I #
point $-1 -59.553163227437217 27.177429492710967 5.1328011956237178 #
edge $-1 $615 1 $615 0 $355 $-1 forward 7 unknown #
vertex $-1 $356 $616 #
ellipse-curve $-1 -54.232732645887467 26.522507601745112 4.324040031345862 0 0.62932039886446345 0.77714595512881146 0.5 0 0 1 I I #
point $-1 -53.732732645887467 27.177429492710967 5.1328011956237178 #
loop $-1 $-1 $367 $359 #
plane-surface $-1 0 29.113240450818967 0 0 -1 0 0 0 -1 forward_v I I I I #
coedge $-1 $512 $362 $364 $516 reversed $239 $-1 #
coedge $-1 $362 $511 $617 $618 reversed $239 $-1 #
coedge $-1 $370 $365 $362 $514 forward $360 $-1 #
edge $-1 $517 -10.278753691251787 $619 -6.407131775035797 $513 $620 forward 7 unknown #
coedge $-1 $364 $363 $520 $621 reversed $150 $-1 #
edge $-1 $622 -58.226480901637913 $517 -53.244634324859078 $511 $623 forward 7 unknown #
vertex $-1 $366 $624 #
straight-curve $-1 3.3952511725706884 25.241618534602967 6.7003900330137363 1 0 0 I I #
coedge $-1 $617 $367 $370 $524 reversed $509 $-1 #
coedge $-1 $367 $617 $515 $621 forward $509 $-1 #
vertex $-1 $368 $625 #
straight-curve $-1 2.6645352591003757e-015 29.113240450818967 73.932079808474654 0 0 1 I I #
straight-curve $-1 2.6645352591003757e-015 -16.137233663273932 40.208324543726548 0 0.77714595512881146 -0.62932039886446345 I I #
edge $-1 $619 -13.58100469028275 $371 -2.6645352591003757e-015 $519 $626 forward 7 unknown #
point $-1 2.6645352591003757e-015 29.113240450818967 6.7003900330137363 #
point $-1 2.6645352591003757e-015 25.241618534602978 6.7003900330137327 #
edge $-1 $627 1 $627 0 $374 $-1 forward 7 unknown #
vertex $-1 $375 $628 #
ellipse-curve $-1 3.8802870543665051 26.522507601745112 4.324040031345862 0 0.62932039886446345 0.77714595512881146 0.5 0 0 1 I I #
point $-1 4.3802870543665051 27.177429492710967 5.1328011956237178 #
edge $-1 $629 1 $629 0 $378 $-1 forward 7 unknown #
vertex $-1 $379 $630 #
ellipse-curve $-1 9.7007176359162486 26.522507601745112 4.324040031345862 0 0.62932039886446345 0.77714595512881146 0.5 0 0 1 I I #
point $-1 10.200717635916249 27.177429492710967 5.1328011956237178 #
plane-surface $-1 0 29.113240450818967 0 0 -1 0 0 0 -1 forward_v I I I I #
coedge $-1 $386 $385 $388 $540 forward $164 $-1 #
edge $-1 $399 -69.26358836634418 $543 69.26358836634418 $397 $631 forward 7 unknown #
edge $-1 $541 -69.26358836634418 $403 69.26358836634418 $401 $632 forward 7 unknown #
straight-curve $-1 69.26358836634418 0 6.7003900330137363 0 1 0 I I #
edge $-1 $543 -29.113240450818967 $541 29.113240450818967 $388 $633 forward 7 unknown #
vertex $-1 $540 $634 #
straight-curve $-1 -69.26358836634418 -29.113240450818967 0 0 0 -1 I I #
vertex $-1 $537 $635 #
straight-curve $-1 -69.26358836634418 29.113240450818967 0 0 0 -1 I I #
point $-1 -69.26358836634418 -29.113240450818967 -6.7003900330137363 #
point $-1 -69.26358836634418 29.113240450818967 -6.7003900330137363 #
point $-1 69.26358836634418 29.113240450818967 6.7003900330137363 #
point $-1 69.26358836634418 -29.113240450818967 6.7003900330137363 #
straight-curve $-1 0 -29.113240450818967 -6.7003900330137363 -1 0 0 I I #
straight-curve $-1 0 29.113240450818967 -6.7003900330137363 1 0 0 I I #
plane-surface $-1 0 0 6.7003900330137363 0 0 1 1 0 0 forward_v I I I I #
coedge $-1 $414 $411 $416 $559 reversed $279 $-1 #
coedge $-1 $411 $414 $565 $636 reversed $279 $-1 #
edge $-1 $567 -6.7003900330137363 $561 6.7003900330137363 $428 $637 forward 7 unknown #
edge $-1 $556 -2.6650690422702326 $426 2.6650690422702326 $413 $638 forward 7 unknown #
vertex $-1 $636 $639 #
vertex $-1 $559 $640 #
straight-curve $-1 -74.593726450884645 -18.712460384791495 0 0 0 -1 I I #
edge $-1 $557 -1.5 $561 1.5 $552 $641 forward 7 unknown #
straight-curve $-1 -71.928657408614413 -18.712460384791495 -6.7003900330137363 -1 0 0 I I #
vertex $-1 $418 $642 #
straight-curve $-1 -71.928657408614413 -15.712460384791495 -6.7003900330137363 1 0 0 I I #
point $-1 -69.26358836634418 -18.712460384791495 -6.7003900330137363 #
straight-curve $-1 -69.26358836634418 -18.712460384791495 0 0 0 -1 I I #
coedge $-1 $424 $423 $553 $636 forward $425 $-1 #
point $-1 -69.26358836634418 -18.712460384791495 6.7003900330137363 #
vertex $-1 $429 $643 #
straight-curve $-1 -71.928657408614413 -15.712460384791495 6.7003900330137363 -1 0 0 I I #
plane-surface $-1 0 0 6.7003900330137363 0 0 1 1 0 0 forward_v I I I I #
coedge $-1 $574 $644 $449 $585 forward $433 $-1 #
coedge $-1 $435 $442 $445 $583 reversed $295 $-1 #
coedge $-1 $644 $574 $435 $573 reversed $433 $-1 #
edge $-1 $645 -6.7003900330137363 $576 6.7003900330137363 $572 $646 forward 7 unknown #
coedge $-1 $572 $570 $436 $575 reversed $433 $-1 #
edge $-1 $576 -1.5 $578 1.5 $574 $647 forward 7 unknown #
vertex $-1 $575 $648 #
straight-curve $-1 71.928657408614413 -15.712460384791495 -6.7003900330137363 1 0 0 I I #
vertex $-1 $585 $649 #
straight-curve $-1 71.928657408614413 -18.712460384791495 -6.7003900330137363 -1 0 0 I I #
point $-1 69.26358836634418 -15.712460384791495 -6.7003900330137363 #
straight-curve $-1 69.26358836634418 -15.712460384791495 0 0 0 -1 I I #
coedge $-1 $445 $444 $644 $650 forward $446 $-1 #
edge $-1 $645 -2.6650690422702326 $447 2.6650690422702326 $571 $651 forward 7 unknown #
point $-1 69.26358836634418 -15.712460384791495 6.7003900330137363 #
edge $-1 $586 -6.7003900330137363 $578 6.7003900330137363 $570 $652 forward 7 unknown #
vertex $-1 $650 $653 #
straight-curve $-1 71.928657408614413 -18.712460384791495 6.7003900330137363 1 0 0 I I #
coedge $-1 $464 $463 $456 $589 forward $453 $-1 #
edge $-1 $590 47.094336726372831 $593 50.753059681253291 $588 $654 forward 7 unknown #
vertex $-1 $468 $655 #
straight-curve $-1 -18.281092686293132 -59.997623306029958 6.7003900330137327 0 -1 0 I I #
edge $-1 $593 -18.495449875621983 $465 18.924164254279685 $464 $656 forward 7 unknown #
vertex $-1 $592 $657 #
straight-curve $-1 -18.281092686293132 -29.113240450818978 3.0416670781332726 0 0.75470957328743171 0.6560590369687036 I I #
point $-1 -18.281092686293132 -24.904361242610634 6.7003900330137363 #
point $-1 19.138521443608536 -29.113240450818967 3.041667078133282 #
straight-curve $-1 0 -29.113240450818967 6.7003900330137363 1 0 0 I I #
vertex $-1 $471 $658 #
point $-1 -9.7971698603127919 -25.550682757592103 3.1936556076615528 #
vertex $-1 $475 $659 #
point $-1 1.4287143786577019 -25.550682757592103 3.1936556076615528 #
vertex $-1 $479 $660 #
point $-1 12.65459861762821 -25.550682757592103 3.1936556076615528 #
edge $-1 $605 67.231689775460922 $608 70.366867450240932 $484 $661 forward 7 unknown #
vertex $-1 $498 $662 #
straight-curve $-1 -50.352445591520961 35.520372225854764 6.7003900330137327 0 1 0 I I #
edge $-1 $608 21.780971623189792 $495 35.361976313472546 $494 $663 forward 7 unknown #
vertex $-1 $607 $664 #
straight-curve $-1 -50.352445591520961 -16.137233663273932 40.208324543726548 0 -0.77714595512881146 0.62932039886446345 I I #
point $-1 -50.352445591520961 25.241618534602978 6.7003900330137327 #
point $-1 -63.933450281803715 29.113240450818964 3.5652123582337154 #
straight-curve $-1 0 29.113240450818967 6.7003900330137363 -1 0 0 I I #
vertex $-1 $501 $665 #
point $-1 -59.553163227437217 26.522507601745112 4.324040031345862 #
vertex $-1 $505 $666 #
point $-1 -53.732732645887467 26.522507601745112 4.324040031345862 #
coedge $-1 $520 $519 $512 $618 forward $509 $-1 #
edge $-1 $619 67.231689775460922 $622 70.366867450240932 $617 $667 forward 7 unknown #
vertex $-1 $524 $668 #
straight-curve $-1 13.58100469028275 35.520372225854764 6.7003900330137327 0 1 0 I I #
edge $-1 $622 -10.185753517712062 $521 3.3952511725706858 $520 $669 forward 7 unknown #
vertex $-1 $621 $670 #
straight-curve $-1 13.58100469028275 -16.137233663273932 40.208324543726548 0 -0.77714595512881146 0.62932039886446345 I I #
point $-1 13.58100469028275 25.241618534602978 6.7003900330137327 #
point $-1 2.6645352591003757e-015 29.113240450818964 3.5652123582337154 #
straight-curve $-1 0 29.113240450818967 6.7003900330137363 -1 0 0 I I #
vertex $-1 $527 $671 #
point $-1 4.3802870543665051 26.522507601745112 4.324040031345862 #
vertex $-1 $531 $672 #
point $-1 10.200717635916249 26.522507601745112 4.324040031345862 #
straight-curve $-1 0 29.113240450818967 6.7003900330137363 -1 0 0 I I #
straight-curve $-1 0 -29.113240450818967 6.7003900330137363 1 0 0 I I #
straight-curve $-1 -69.26358836634418 0 6.7003900330137363 0 -1 0 I I #
point $-1 -69.26358836634418 -29.113240450818967 6.7003900330137363 #
point $-1 -69.26358836634418 29.113240450818967 6.7003900330137363 #
edge $-1 $567 -1.5 $556 1.5 $553 $673 forward 7 unknown #
straight-curve $-1 -74.593726450884645 -15.712460384791495 0 0 0 -1 I I #
straight-curve $-1 -71.928657408614413 -18.712460384791495 6.7003900330137363 1 0 0 I I #
point $-1 -74.593726450884645 -18.712460384791495 6.7003900330137363 #
point $-1 -74.593726450884645 -18.712460384791495 -6.7003900330137363 #
straight-curve $-1 -74.593726450884645 -17.212460384791495 -6.7003900330137363 0 1 0 I I #
point $-1 -74.593726450884645 -15.712460384791495 -6.7003900330137363 #
point $-1 -74.593726450884645 -15.712460384791495 6.7003900330137363 #
coedge $-1 $570 $572 $582 $650 reversed $433 $-1 #
vertex $-1 $650 $674 #
straight-curve $-1 74.593726450884645 -15.712460384791495 0 0 0 -1 I I #
straight-curve $-1 74.593726450884645 -17.212460384791495 -6.7003900330137363 0 -1 0 I I #
point $-1 74.593726450884645 -15.712460384791495 -6.7003900330137363 #
point $-1 74.593726450884645 -18.712460384791495 -6.7003900330137363 #
edge $-1 $586 -1.5 $645 1.5 $644 $675 forward 7 unknown #
straight-curve $-1 71.928657408614413 -15.712460384791495 6.7003900330137363 -1 0 0 I I #
straight-curve $-1 74.593726450884645 -18.712460384791495 0 0 0 -1 I I #
point $-1 74.593726450884645 -18.712460384791495 6.7003900330137363 #
straight-curve $-1 -18.281092686293132 -29.113240450818964 53.79472675938657 0 0 -1 I I #
point $-1 -18.281092686293132 -29.113240450818967 6.7003900330137363 #
straight-curve $-1 0.21435718932885095 -29.113240450818967 3.0416670781332802 1 0 0 I I #
point $-1 -18.281092686293132 -29.113240450818967 3.041667078133282 #
point $-1 -10.797169860312792 -24.894623720623397 2.4389460343741209 #
point $-1 0.4287143786577019 -24.894623720623397 2.4389460343741209 #
point $-1 11.65459861762821 -24.894623720623397 2.4389460343741209 #
straight-curve $-1 -50.352445591520961 29.113240450818967 73.932079808474654 0 0 -1 I I #
point $-1 -50.352445591520961 29.113240450818967 6.7003900330137363 #
straight-curve $-1 -28.571473968331169 29.113240450818967 3.5652123582337119 -1 0 0 I I #
point $-1 -50.352445591520961 29.113240450818964 3.5652123582337154 #
point $-1 -60.053163227437217 26.207847402312879 3.9354670537814562 #
point $-1 -54.232732645887467 26.207847402312879 3.9354670537814562 #
straight-curve $-1 13.58100469028275 29.113240450818967 73.932079808474654 0 0 -1 I I #
point $-1 13.58100469028275 29.113240450818967 6.7003900330137363 #
straight-curve $-1 3.3952511725706884 29.113240450818967 3.5652123582337119 -1 0 0 I I #
point $-1 13.58100469028275 29.113240450818964 3.5652123582337154 #
point $-1 3.8802870543665051 26.207847402312879 3.9354670537814562 #
point $-1 9.7007176359162486 26.207847402312879 3.9354670537814562 #
straight-curve $-1 -74.593726450884645 -17.212460384791495 6.7003900330137363 0 -1 0 I I #
point $-1 74.593726450884645 -15.712460384791495 6.7003900330137363 #
straight-curve $-1 74.593726450884645 -17.212460384791495 6.7003900330137363 0 1 0 I I #
End-of-ACIS-data 