500 0 5 0           
7 Unknown 11 ACIS 5.0 NT 24 Fri Mar 26 01:55:47 1999 
-1 9.9999999999999995e-007 1e-010 
body $-1 $5 $-1 $6 #
body $-1 $7 $-1 $8 #
body $-1 $9 $-1 $10 #
body $-1 $11 $-1 $12 #
body $-1 $13 $-1 $14 #
lump $-1 $-1 $15 $0 #
transform $-1 1 0 0 0 1 0 0 0 1 60.266731772820215 40.94356260856199 14.085275281495228 1 rotate no_reflect no_shear #
lump $-1 $-1 $16 $1 #
transform $-1 1 0 0 0 1 0 0 0 1 60.266731772820215 40.94356260856199 14.085275281495228 1 rotate no_reflect no_shear #
lump $-1 $-1 $17 $2 #
transform $-1 1 0 0 0 1 0 0 0 1 60.266731772820215 40.94356260856199 14.085275281495228 1 rotate no_reflect no_shear #
lump $-1 $-1 $18 $3 #
transform $-1 1 0 0 0 1 0 0 0 1 60.266731772820215 40.94356260856199 14.085275281495228 1 rotate no_reflect no_shear #
lump $-1 $-1 $19 $4 #
transform $-1 1 0 0 0 1 0 0 0 1 60.266731772820215 40.94356260856199 14.085275281495228 1 rotate no_reflect no_shear #
shell $-1 $-1 $-1 $20 $-1 $5 #
shell $-1 $-1 $-1 $21 $-1 $7 #
shell $-1 $-1 $-1 $22 $-1 $9 #
shell $-1 $-1 $-1 $23 $-1 $11 #
shell $-1 $-1 $-1 $24 $-1 $13 #
face $-1 $25 $26 $15 $-1 $27 forward single #
face $-1 $28 $29 $16 $-1 $30 forward single #
face $-1 $31 $32 $17 $-1 $33 forward single #
face $-1 $34 $35 $18 $-1 $36 reversed single #
face $-1 $37 $38 $19 $-1 $39 reversed single #
face $-1 $40 $41 $15 $-1 $42 reversed single #
loop $-1 $-1 $43 $20 #
plane-surface $-1 0 0 14.085275281495228 0 0 1 1 0 0 forward_v I I I I #
face $-1 $44 $45 $16 $-1 $46 forward single #
loop $-1 $-1 $47 $21 #
plane-surface $-1 0 -34.779708245776106 5.8165433786726979 0 0 1 1 0 0 forward_v I I I I #
face $-1 $48 $49 $17 $-1 $50 forward single #
loop $-1 $-1 $51 $22 #
plane-surface $-1 60.266733750591861 -28.615853882990216 174.7886851433002 0 1 0 0.70710678939079041 0 0.70710677298230451 forward_v I I I I #
face $-1 $52 $53 $18 $-1 $54 reversed single #
loop $-1 $55 $56 $23 #
cone-surface $-1 55.034853989205459 -26.19186277688182 8.8533973928826697 -0.70710678939079041 0 -0.70710677298230451 0.35355338649115226 0 -0.35355339469539521 1 I I 0 1 0.5 forward I I I I #
face $-1 $57 $58 $19 $-1 $59 reversed single #
loop $-1 $60 $61 $24 #
cone-surface $-1 55.034853989205459 -22.555876117719226 8.8533973928826697 -0.70710678939079041 0 -0.70710677298230451 0.35355338649115226 0 -0.35355339469539521 1 I I 0 1 0.5 forward I I I I #
face $-1 $62 $63 $15 $-1 $64 reversed single #
loop $-1 $-1 $65 $25 #
plane-surface $-1 0 0 -14.085275281495228 0 0 1 1 0 0 forward_v I I I I #
coedge $-1 $66 $67 $68 $69 forward $26 $-1 #
face $-1 $70 $71 $16 $-1 $72 forward single #
loop $-1 $-1 $73 $28 #
plane-surface $-1 0 -28.615853882990219 9.9509093300839631 0 -1 0 0 0 -1 forward_v I I I I #
coedge $-1 $74 $75 $76 $77 reversed $29 $-1 #
face $-1 $78 $79 $17 $-1 $80 forward single #
loop $-1 $-1 $81 $31 #
plane-surface $-1 60.266733750591861 -20.131885011610827 174.7886851433002 0 -1 0 -0.70710678939079041 0 -0.70710677298230451 forward_v I I I I #
coedge $-1 $82 $83 $84 $85 forward $32 $-1 #
face $-1 $86 $87 $18 $-1 $88 forward single #
loop $-1 $89 $90 $34 #
cone-surface $-1 54.504523897162365 -26.19186277688182 8.3230673131459412 -0.70710678939079041 0 -0.70710677298230451 0.17677669324557613 0 -0.1767766973476976 1 I I -0.70710678118654746 0.70710678118654746 0.25 forward I I I I #
loop $-1 $-1 $91 $23 #
coedge $-1 $56 $56 $92 $93 reversed $35 $-1 #
face $-1 $94 $95 $19 $-1 $96 reversed single #
loop $-1 $97 $98 $37 #
cone-surface $-1 54.504523897162365 -22.555876117719226 8.3230673131459412 -0.70710678939079041 0 -0.70710677298230451 0.17677669324557613 0 -0.1767766973476976 1 I I -0.70710678118654746 0.70710678118654746 0.25 forward I I I I #
loop $-1 $-1 $99 $24 #
coedge $-1 $61 $61 $100 $101 reversed $38 $-1 #
face $-1 $102 $103 $15 $-1 $104 reversed single #
loop $-1 $-1 $105 $40 #
plane-surface $-1 0 -40.94356260856199 0 0 1 0 0 0 1 forward_v I I I I #
coedge $-1 $106 $107 $108 $109 forward $41 $-1 #
coedge $-1 $110 $43 $111 $112 forward $26 $-1 #
coedge $-1 $43 $110 $113 $114 forward $26 $-1 #
coedge $-1 $115 $116 $43 $69 reversed $117 $-1 #
edge $-1 $118 -40.94356260856199 $119 40.94356260856199 $68 $120 forward 7 unknown #
face $-1 $121 $122 $16 $-1 $123 reversed single #
loop $-1 $-1 $124 $44 #
plane-surface $-1 0 0 14.085275281495228 0 0 1 1 0 0 forward_v I I I I #
coedge $-1 $125 $126 $127 $128 reversed $45 $-1 #
coedge $-1 $129 $47 $126 $130 reversed $29 $-1 #
coedge $-1 $47 $129 $131 $132 reversed $29 $-1 #
coedge $-1 $133 $127 $47 $77 forward $122 $-1 #
edge $-1 $134 11.225999760102166 $135 23.553708485673937 $76 $136 forward 7 unknown #
face $-1 $137 $138 $17 $-1 $139 forward single #
loop $-1 $-1 $140 $48 #
plane-surface $-1 -24.963296671317828 -24.373869447300521 89.558656699162142 0.70710678939079041 0 0.70710677298230451 0.70710677298230451 0 -0.70710678939079041 forward_v I I I I #
coedge $-1 $141 $142 $143 $144 reversed $49 $-1 #
coedge $-1 $83 $51 $145 $146 reversed $32 $-1 #
coedge $-1 $51 $82 $147 $148 forward $32 $-1 #
coedge $-1 $149 $150 $51 $85 reversed $151 $-1 #
edge $-1 $152 58.778814705927239 $153 60.266731772820215 $84 $154 forward 7 unknown #
face $-1 $155 $156 $18 $-1 $157 forward single #
loop $-1 $-1 $158 $52 #
plane-surface $-1 60.266733750591861 -28.615853882990216 174.7886851433002 0 1 0 0.70710678939079041 0 0.70710677298230451 forward_v I I I I #
loop $-1 $-1 $159 $34 #
coedge $-1 $90 $90 $91 $160 forward $53 $-1 #
coedge $-1 $91 $91 $90 $160 reversed $55 $-1 #
coedge $-1 $92 $92 $56 $93 forward $161 $-1 #
edge $-1 $162 0 $162 6.2831853071796004 $92 $163 forward 7 unknown #
face $-1 $164 $165 $19 $-1 $166 reversed single #
loop $-1 $167 $168 $57 #
cone-surface $-1 55.034853989205459 -26.19186277688182 8.8533973928826697 -0.70710678939079041 0 -0.70710677298230451 0.35355338649115226 0 -0.35355339469539521 1 I I 0 1 0.5 forward I I I I #
loop $-1 $-1 $169 $37 #
coedge $-1 $98 $98 $99 $170 forward $58 $-1 #
coedge $-1 $99 $99 $98 $170 reversed $60 $-1 #
coedge $-1 $100 $100 $61 $101 forward $171 $-1 #
edge $-1 $172 0 $172 6.2831853071796004 $100 $173 forward 7 unknown #
face $-1 $174 $175 $15 $-1 $176 reversed single #
loop $-1 $-1 $177 $62 #
plane-surface $-1 -60.266731772820215 0 0 1 0 0 0 0 -1 forward_v I I I I #
coedge $-1 $178 $113 $179 $180 forward $63 $-1 #
coedge $-1 $181 $65 $178 $182 forward $41 $-1 #
coedge $-1 $65 $181 $183 $184 forward $41 $-1 #
coedge $-1 $116 $115 $65 $109 reversed $117 $-1 #
edge $-1 $185 -40.94356260856199 $186 40.94356260856199 $108 $187 forward 7 unknown #
coedge $-1 $67 $66 $188 $189 forward $26 $-1 #
coedge $-1 $190 $191 $66 $112 reversed $175 $-1 #
edge $-1 $119 -60.266731772820215 $192 60.266731772820215 $111 $193 forward 7 unknown #
coedge $-1 $105 $194 $67 $114 reversed $63 $-1 #
edge $-1 $195 -60.266731772820215 $118 60.266731772820215 $113 $196 forward 7 unknown #
coedge $-1 $108 $68 $194 $197 forward $117 $-1 #
coedge $-1 $68 $108 $190 $198 reversed $117 $-1 #
loop $-1 $-1 $115 $174 #
vertex $-1 $69 $199 #
vertex $-1 $69 $200 #
straight-curve $-1 60.266731772820215 0 14.085275281495228 0 1 0 I I #
face $-1 $201 $202 $16 $-1 $203 reversed single #
loop $-1 $-1 $127 $70 #
plane-surface $-1 60.266731772820215 0 0 -1 0 0 0 0 1 forward_v I I I I #
coedge $-1 $204 $205 $125 $206 forward $71 $-1 #
coedge $-1 $207 $73 $124 $206 reversed $45 $-1 #
coedge $-1 $73 $207 $74 $130 forward $45 $-1 #
coedge $-1 $76 $208 $73 $128 forward $122 $-1 #
edge $-1 $209 -9.1098206164532467 $134 -0.84108871363071636 $127 $210 forward 7 unknown #
coedge $-1 $75 $74 $211 $212 reversed $29 $-1 #
edge $-1 $213 -60.266731772820215 $134 60.266731772820215 $126 $214 forward 7 unknown #
coedge $-1 $215 $216 $75 $132 forward $217 $-1 #
edge $-1 $135 -60.266731772820215 $218 60.266731772820215 $131 $219 forward 7 unknown #
coedge $-1 $220 $76 $216 $221 forward $122 $-1 #
vertex $-1 $77 $222 #
vertex $-1 $221 $223 #
straight-curve $-1 60.266731772820215 -17.389854122888053 5.8165433786726979 0 -1 0 I I #
face $-1 $224 $151 $17 $-1 $225 forward single #
loop $-1 $-1 $226 $78 #
plane-surface $-1 0 0 14.085275281495228 0 0 1 1 0 0 forward_v I I I I #
coedge $-1 $227 $228 $226 $229 reversed $79 $-1 #
coedge $-1 $142 $81 $228 $230 forward $49 $-1 #
coedge $-1 $81 $141 $231 $232 reversed $49 $-1 #
coedge $-1 $233 $226 $81 $144 forward $138 $-1 #
edge $-1 $234 20.376716119685565 $235 30.133364897524284 $143 $236 forward 7 unknown #
coedge $-1 $237 $238 $82 $146 forward $239 $-1 #
edge $-1 $240 -83.065716294397646 $153 -81.577799192977409 $145 $241 forward 7 unknown #
coedge $-1 $242 $227 $83 $148 reversed $79 $-1 #
edge $-1 $240 -120.53346354564046 $152 -118.42923102553955 $83 $243 forward 7 unknown #
coedge $-1 $244 $84 $245 $246 reversed $151 $-1 #
coedge $-1 $84 $247 $237 $248 reversed $151 $-1 #
loop $-1 $-1 $150 $137 #
vertex $-1 $85 $249 #
vertex $-1 $248 $250 #
straight-curve $-1 0 -28.615853882990219 5.8165433786726979 1 0 0 I I #
face $-1 $251 $161 $18 $-1 $252 forward single #
loop $-1 $-1 $253 $86 #
plane-surface $-1 60.266733750591861 -20.131885011610827 174.7886851433002 0 -1 0 -0.70710678939079041 0 -0.70710677298230451 forward_v I I I I #
coedge $-1 $254 $255 $256 $257 forward $87 $-1 #
coedge $-1 $159 $159 $-1 $258 forward $89 $-1 #
edge $-1 $259 0 $259 6.2831853071796004 $90 $260 forward 7 unknown #
loop $-1 $261 $92 $155 #
vertex $-1 $93 $262 #
ellipse-curve $-1 55.388407383900862 -26.19186277688182 9.2069507793738321 -0.70710678939079041 0 -0.70710677298230451 0.35355338649115226 0 -0.35355339469539521 1 I I #
face $-1 $263 $264 $19 $-1 $265 forward single #
loop $-1 $266 $267 $94 #
cone-surface $-1 54.504523897162365 -26.19186277688182 8.3230673131459412 -0.70710678939079041 0 -0.70710677298230451 0.17677669324557613 0 -0.1767766973476976 1 I I -0.70710678118654746 0.70710678118654746 0.25 forward I I I I #
loop $-1 $-1 $268 $57 #
coedge $-1 $168 $168 $269 $270 reversed $95 $-1 #
coedge $-1 $169 $169 $-1 $271 forward $97 $-1 #
edge $-1 $272 0 $272 6.2831853071796004 $98 $273 forward 7 unknown #
loop $-1 $274 $100 $275 #
vertex $-1 $101 $276 #
ellipse-curve $-1 55.388407383900862 -22.555876117719226 9.2069507793738321 -0.70710678939079041 0 -0.70710677298230451 0.35355338649115226 0 -0.35355339469539521 1 I I #
face $-1 $-1 $117 $15 $-1 $277 reversed single #
loop $-1 $-1 $190 $102 #
plane-surface $-1 0 40.94356260856199 0 0 -1 0 0 0 -1 forward_v I I I I #
coedge $-1 $278 $188 $191 $279 forward $103 $-1 #
coedge $-1 $194 $105 $106 $182 reversed $63 $-1 #
coedge $-1 $188 $278 $105 $180 reversed $103 $-1 #
edge $-1 $195 -14.085275281495228 $280 14.085275281495228 $179 $281 forward 7 unknown #
coedge $-1 $107 $106 $278 $282 forward $41 $-1 #
edge $-1 $186 -60.266731772820215 $280 60.266731772820215 $178 $283 forward 7 unknown #
coedge $-1 $191 $190 $107 $184 reversed $175 $-1 #
edge $-1 $284 -60.266731772820215 $185 60.266731772820215 $183 $285 forward 7 unknown #
vertex $-1 $109 $286 #
vertex $-1 $197 $287 #
straight-curve $-1 60.266731772820215 0 -14.085275281495228 0 -1 0 I I #
coedge $-1 $177 $179 $110 $189 reversed $103 $-1 #
edge $-1 $192 -40.94356260856199 $195 40.94356260856199 $188 $288 forward 7 unknown #
coedge $-1 $183 $111 $116 $198 forward $175 $-1 #
coedge $-1 $111 $183 $177 $279 reversed $175 $-1 #
vertex $-1 $112 $289 #
straight-curve $-1 0 40.94356260856199 14.085275281495228 -1 0 0 I I #
coedge $-1 $113 $178 $115 $197 reversed $63 $-1 #
vertex $-1 $189 $290 #
straight-curve $-1 0 -40.94356260856199 14.085275281495228 1 0 0 I I #
edge $-1 $118 -14.085275281495228 $186 14.085275281495228 $115 $291 forward 7 unknown #
edge $-1 $119 -14.085275281495228 $185 14.085275281495228 $116 $292 forward 7 unknown #
point $-1 60.266731772820215 -40.94356260856199 14.085275281495228 #
point $-1 60.266731772820215 40.94356260856199 14.085275281495228 #
face $-1 $293 $217 $16 $-1 $294 reversed single #
loop $-1 $-1 $295 $121 #
plane-surface $-1 0 0 -14.085275281495228 0 0 1 1 0 0 forward_v I I I I #
coedge $-1 $296 $124 $208 $297 forward $71 $-1 #
coedge $-1 $124 $296 $298 $299 forward $71 $-1 #
edge $-1 $300 -60.266731772820215 $209 60.266731772820215 $124 $301 forward 7 unknown #
coedge $-1 $126 $125 $302 $303 reversed $45 $-1 #
coedge $-1 $127 $304 $204 $297 reversed $122 $-1 #
vertex $-1 $297 $305 #
straight-curve $-1 60.266731772820215 -28.615853882990219 4.9754546650419815 0 0 -1 I I #
coedge $-1 $302 $306 $129 $212 forward $307 $-1 #
edge $-1 $218 -23.553708485673937 $213 -11.225999760102166 $211 $308 forward 7 unknown #
vertex $-1 $212 $309 #
straight-curve $-1 0 -28.615853882990219 5.8165433786726979 1 0 0 I I #
coedge $-1 $310 $131 $306 $311 forward $217 $-1 #
coedge $-1 $131 $310 $133 $221 reversed $217 $-1 #
loop $-1 $-1 $131 $201 #
vertex $-1 $311 $312 #
straight-curve $-1 0 -40.94356260856199 5.8165433786726979 -1 0 0 I I #
coedge $-1 $304 $133 $295 $313 reversed $122 $-1 #
edge $-1 $135 -5.8165433786726979 $314 14.085275281495228 $133 $315 forward 7 unknown #
point $-1 60.266731772820215 -28.615853882990219 5.8165433786726979 #
point $-1 60.266731772820215 -40.94356260856199 5.8165433786726979 #
face $-1 $316 $317 $17 $-1 $318 forward single #
plane-surface $-1 0 -34.779708245776106 5.8165433786726979 0 0 1 1 0 0 forward_v I I I I #
coedge $-1 $143 $319 $140 $229 forward $138 $-1 #
coedge $-1 $147 $140 $320 $321 reversed $79 $-1 #
coedge $-1 $140 $242 $141 $230 reversed $79 $-1 #
edge $-1 $322 -16.428919159339959 $234 -7.944950287960566 $226 $323 forward 7 unknown #
edge $-1 $234 106.73547836061822 $324 120.53346354564046 $141 $325 forward 7 unknown #
coedge $-1 $238 $326 $142 $232 forward $239 $-1 #
edge $-1 $235 73.309067290154871 $324 83.065716294397646 $231 $327 forward 7 unknown #
coedge $-1 $328 $143 $326 $329 forward $138 $-1 #
vertex $-1 $229 $330 #
vertex $-1 $329 $331 #
straight-curve $-1 30.13336687529593 -20.131885011610827 14.085275281495228 1 0 0 I I #
coedge $-1 $332 $145 $150 $248 forward $239 $-1 #
coedge $-1 $145 $231 $242 $333 forward $239 $-1 #
loop $-1 $-1 $145 $316 #
vertex $-1 $333 $334 #
straight-curve $-1 60.266731772820215 -28.615853882990216 87.3943425716501 0 0 1 I I #
coedge $-1 $228 $147 $238 $333 reversed $79 $-1 #
straight-curve $-1 -24.963296671317828 -28.615853882990216 89.558656699162142 -0.70710677298230451 0 0.70710678939079041 I I #
coedge $-1 $247 $149 $335 $336 reversed $151 $-1 #
coedge $-1 $320 $337 $149 $246 forward $317 $-1 #
edge $-1 $338 -60.266731772820215 $152 58.778814705927239 $245 $154 forward 7 unknown #
coedge $-1 $150 $244 $339 $340 reversed $151 $-1 #
edge $-1 $153 11.225999760102166 $341 23.553708485673937 $237 $342 forward 7 unknown #
point $-1 58.778814705927239 -28.615853882990216 5.816543378672705 #
point $-1 60.266731772820215 -28.615853882990219 5.8165433786726979 #
face $-1 $343 $344 $18 $-1 $345 forward single #
plane-surface $-1 -24.963296671317828 -24.373869447300521 89.558656699162142 0.70710678939079041 0 0.70710677298230451 0.70710677298230451 0 -0.70710678939079041 forward_v I I I I #
coedge $-1 $346 $347 $348 $349 reversed $156 $-1 #
coedge $-1 $255 $158 $350 $351 reversed $87 $-1 #
coedge $-1 $158 $254 $352 $353 forward $87 $-1 #
coedge $-1 $354 $355 $158 $257 reversed $356 $-1 #
edge $-1 $357 58.778814705927239 $358 60.266731772820215 $256 $359 forward 7 unknown #
edge $-1 $360 1 $360 0 $159 $-1 forward 7 unknown #
vertex $-1 $160 $361 #
ellipse-curve $-1 54.681300594510063 -26.19186277688182 8.4998440063915179 0.70710678939079041 0 0.70710677298230451 0.35355338649115226 0 -0.35355339469539521 1 I I #
loop $-1 $-1 $362 $155 #
point $-1 55.741960770392005 -26.19186277688182 8.8533973846784271 #
face $-1 $275 $363 $19 $-1 $364 forward single #
loop $-1 $-1 $365 $164 #
plane-surface $-1 60.266733750591861 -28.615853882990216 174.7886851433002 0 1 0 0.70710678939079041 0 0.70710677298230451 forward_v I I I I #
loop $-1 $-1 $366 $94 #
coedge $-1 $267 $267 $268 $367 forward $165 $-1 #
coedge $-1 $268 $268 $267 $367 reversed $167 $-1 #
coedge $-1 $269 $269 $168 $270 forward $274 $-1 #
edge $-1 $368 0 $368 6.2831853071796004 $269 $369 forward 7 unknown #
edge $-1 $370 1 $370 0 $169 $-1 forward 7 unknown #
vertex $-1 $170 $371 #
ellipse-curve $-1 54.681300594510063 -22.555876117719226 8.4998440063915179 0.70710678939079041 0 0.70710677298230451 0.35355338649115226 0 -0.35355339469539521 1 I I #
loop $-1 $372 $269 $275 #
face $-1 $373 $171 $19 $-1 $374 forward single #
point $-1 55.741960770392005 -22.555876117719226 8.8533973846784271 #
plane-surface $-1 60.266731772820215 0 0 -1 0 0 0 0 1 forward_v I I I I #
coedge $-1 $179 $177 $181 $282 reversed $103 $-1 #
edge $-1 $192 -14.085275281495228 $284 14.085275281495228 $191 $375 forward 7 unknown #
vertex $-1 $282 $376 #
straight-curve $-1 -60.266731772820215 -40.94356260856199 0 0 0 -1 I I #
edge $-1 $280 -40.94356260856199 $284 40.94356260856199 $278 $377 forward 7 unknown #
straight-curve $-1 0 -40.94356260856199 -14.085275281495228 -1 0 0 I I #
vertex $-1 $184 $378 #
straight-curve $-1 0 40.94356260856199 -14.085275281495228 1 0 0 I I #
point $-1 60.266731772820215 40.94356260856199 -14.085275281495228 #
point $-1 60.266731772820215 -40.94356260856199 -14.085275281495228 #
straight-curve $-1 -60.266731772820215 0 14.085275281495228 0 -1 0 I I #
point $-1 -60.266731772820215 40.94356260856199 14.085275281495228 #
point $-1 -60.266731772820215 -40.94356260856199 14.085275281495228 #
straight-curve $-1 60.266731772820215 -40.94356260856199 0 0 0 -1 I I #
straight-curve $-1 60.266731772820215 40.94356260856199 0 0 0 -1 I I #
face $-1 $379 $307 $16 $-1 $380 reversed single #
plane-surface $-1 0 -40.94356260856199 0 0 1 0 0 0 1 forward_v I I I I #
coedge $-1 $381 $382 $220 $313 forward $202 $-1 #
coedge $-1 $205 $204 $383 $384 forward $71 $-1 #
edge $-1 $209 -28.615853882990219 $385 40.94356260856199 $208 $386 forward 7 unknown #
coedge $-1 $387 $302 $205 $299 reversed $307 $-1 #
edge $-1 $388 -40.94356260856199 $300 28.615853882990219 $298 $389 forward 7 unknown #
vertex $-1 $303 $390 #
straight-curve $-1 0 -28.615853882990219 14.085275281495228 1 0 0 I I #
coedge $-1 $298 $211 $207 $303 forward $307 $-1 #
edge $-1 $213 0.84108871363071636 $300 9.1098206164532467 $302 $391 forward 7 unknown #
coedge $-1 $208 $220 $392 $393 reversed $122 $-1 #
point $-1 60.266731772820215 -28.615853882990219 14.085275281495228 #
coedge $-1 $211 $394 $215 $311 reversed $307 $-1 #
loop $-1 $-1 $302 $293 #
straight-curve $-1 -60.266731772820215 -17.389854122888053 5.8165433786726979 0 1 0 I I #
point $-1 -60.266731772820215 -28.615853882990219 5.8165433786726979 #
coedge $-1 $216 $215 $381 $395 reversed $217 $-1 #
edge $-1 $218 -5.8165433786726979 $396 14.085275281495228 $306 $397 forward 7 unknown #
point $-1 -60.266731772820215 -40.94356260856199 5.8165433786726979 #
edge $-1 $398 -40.94356260856199 $314 40.94356260856199 $220 $399 forward 7 unknown #
vertex $-1 $221 $400 #
straight-curve $-1 60.266731772820215 -40.94356260856199 0 0 0 -1 I I #
face $-1 $401 $239 $17 $-1 $402 reversed single #
loop $-1 $-1 $320 $224 #
plane-surface $-1 0 -28.615853882990219 9.9509093300839631 0 -1 0 0 0 -1 forward_v I I I I #
coedge $-1 $226 $403 $404 $405 forward $138 $-1 #
coedge $-1 $404 $245 $227 $321 forward $317 $-1 #
edge $-1 $152 -81.457783623020788 $322 -69.764030958099468 $320 $406 forward 7 unknown #
vertex $-1 $229 $407 #
straight-curve $-1 50.510082994981509 -12.186934723650261 14.085275281495221 0 1 0 I I #
vertex $-1 $333 $408 #
straight-curve $-1 -24.963296671317828 -20.131885011610827 89.558656699162142 0.70710677298230451 0 -0.70710678939079041 I I #
coedge $-1 $231 $409 $233 $329 reversed $239 $-1 #
straight-curve $-1 60.266731772820215 -20.131885011610827 87.3943425716501 0 0 -1 I I #
coedge $-1 $403 $233 $410 $411 forward $138 $-1 #
edge $-1 $235 -20.131885011610827 $412 40.94356260856199 $326 $413 forward 7 unknown #
point $-1 50.510082994981495 -20.131885011610827 14.085275281495228 #
point $-1 60.266731772820215 -20.131885011610827 14.085275281495228 #
coedge $-1 $414 $237 $415 $416 forward $239 $-1 #
edge $-1 $324 7.944950287960566 $240 16.428919159339955 $238 $417 forward 7 unknown #
point $-1 60.266731772820215 -28.615853882990216 4.3286262772524537 #
coedge $-1 $418 $419 $244 $336 forward $420 $-1 #
edge $-1 $421 -23.553708485673937 $338 -11.225999760102166 $335 $422 forward 7 unknown #
coedge $-1 $245 $404 $418 $423 reversed $317 $-1 #
vertex $-1 $336 $424 #
coedge $-1 $425 $415 $247 $340 forward $426 $-1 #
edge $-1 $341 -60.266731772820215 $421 60.266731772820215 $339 $427 forward 7 unknown #
vertex $-1 $416 $428 #
straight-curve $-1 60.266731772820215 -17.389854122888053 5.8165433786726979 0 -1 0 I I #
face $-1 $429 $356 $18 $-1 $430 forward single #
loop $-1 $-1 $431 $251 #
plane-surface $-1 0 0 14.085275281495228 0 0 1 1 0 0 forward_v I I I I #
coedge $-1 $347 $253 $432 $433 forward $156 $-1 #
coedge $-1 $253 $346 $434 $435 reversed $156 $-1 #
coedge $-1 $436 $431 $253 $349 forward $344 $-1 #
edge $-1 $437 20.376716119685565 $438 30.133364897524284 $348 $439 forward 7 unknown #
coedge $-1 $440 $441 $254 $351 forward $442 $-1 #
edge $-1 $443 -83.065716294397646 $358 -81.577799192977409 $350 $444 forward 7 unknown #
coedge $-1 $445 $446 $255 $353 reversed $261 $-1 #
edge $-1 $443 -120.53346354564046 $357 -118.42923102553955 $255 $447 forward 7 unknown #
coedge $-1 $448 $256 $449 $450 reversed $356 $-1 #
coedge $-1 $256 $451 $440 $452 reversed $356 $-1 #
loop $-1 $-1 $355 $343 #
vertex $-1 $257 $453 #
vertex $-1 $452 $454 #
straight-curve $-1 0 -28.615853882990219 5.8165433786726979 1 0 0 I I #
vertex $-1 $258 $455 #
point $-1 55.034853981001213 -26.19186277688182 8.1462906116961218 #
coedge $-1 $446 $432 $431 $456 reversed $261 $-1 #
loop $-1 $-1 $457 $263 #
plane-surface $-1 60.266733750591861 -20.131885011610827 174.7886851433002 0 -1 0 -0.70710678939079041 0 -0.70710677298230451 forward_v I I I I #
coedge $-1 $458 $459 $460 $461 forward $264 $-1 #
coedge $-1 $366 $366 $-1 $462 forward $266 $-1 #
edge $-1 $463 0 $463 6.2831853071796004 $267 $464 forward 7 unknown #
vertex $-1 $270 $465 #
ellipse-curve $-1 55.388407383900862 -26.19186277688182 9.2069507793738321 -0.70710678939079041 0 -0.70710677298230451 0.35355338649115226 0 -0.35355339469539521 1 I I #
vertex $-1 $271 $466 #
point $-1 55.034853981001213 -22.555876117719226 8.1462906116961218 #
loop $-1 $-1 $467 $275 #
face $-1 $468 $469 $19 $-1 $470 forward single #
plane-surface $-1 -24.963296671317828 -24.373869447300521 89.558656699162142 0.70710678939079041 0 0.70710677298230451 0.70710677298230451 0 -0.70710678939079041 forward_v I I I I #
straight-curve $-1 -60.266731772820215 40.94356260856199 0 0 0 -1 I I #
point $-1 -60.266731772820215 -40.94356260856199 -14.085275281495228 #
straight-curve $-1 -60.266731772820215 0 -14.085275281495228 0 1 0 I I #
point $-1 -60.266731772820215 40.94356260856199 -14.085275281495228 #
face $-1 $-1 $471 $16 $-1 $472 reversed single #
plane-surface $-1 -60.266731772820215 0 0 1 0 0 0 0 -1 forward_v I I I I #
coedge $-1 $473 $295 $310 $395 forward $202 $-1 #
coedge $-1 $295 $473 $474 $475 forward $202 $-1 #
coedge $-1 $392 $476 $296 $384 reversed $471 $-1 #
edge $-1 $385 -60.266731772820215 $388 60.266731772820215 $383 $477 forward 7 unknown #
vertex $-1 $297 $478 #
straight-curve $-1 60.266731772820215 0 14.085275281495228 0 1 0 I I #
coedge $-1 $394 $298 $476 $479 forward $307 $-1 #
vertex $-1 $384 $480 #
straight-curve $-1 -60.266731772820215 0 14.085275281495228 0 -1 0 I I #
point $-1 -60.266731772820215 -28.615853882990219 14.085275281495228 #
straight-curve $-1 -60.266731772820215 -28.615853882990219 4.9754546650419815 0 0 1 I I #
coedge $-1 $474 $383 $304 $393 forward $471 $-1 #
edge $-1 $385 -14.085275281495228 $398 14.085275281495228 $304 $481 forward 7 unknown #
coedge $-1 $306 $387 $473 $482 reversed $307 $-1 #
edge $-1 $314 -60.266731772820215 $396 60.266731772820215 $310 $483 forward 7 unknown #
vertex $-1 $482 $484 #
straight-curve $-1 -60.266731772820215 -40.94356260856199 0 0 0 -1 I I #
vertex $-1 $313 $485 #
straight-curve $-1 60.266731772820215 0 -14.085275281495228 0 -1 0 I I #
point $-1 60.266731772820215 -40.94356260856199 -14.085275281495228 #
face $-1 $486 $487 $17 $-1 $488 reversed single #
plane-surface $-1 60.266731772820215 0 0 -1 0 0 0 0 1 forward_v I I I I #
coedge $-1 $319 $328 $489 $490 forward $138 $-1 #
coedge $-1 $337 $320 $319 $405 reversed $317 $-1 #
edge $-1 $491 -60.266731772820215 $322 50.510082994981502 $319 $492 forward 7 unknown #
straight-curve $-1 1.1794641939621986 -28.615853882990219 63.415895227236639 -0.70710677298230462 0 0.70710678939079052 I I #
point $-1 50.510082994981502 -28.615853882990219 14.085275281495228 #
point $-1 60.266731772820215 -20.131885011610827 4.3286262772524537 #
coedge $-1 $326 $414 $493 $494 reversed $239 $-1 #
coedge $-1 $493 $495 $328 $411 reversed $496 $-1 #
edge $-1 $412 -60.266731772820215 $497 60.266731772820215 $410 $498 forward 7 unknown #
vertex $-1 $329 $499 #
straight-curve $-1 60.266731772820215 0 14.085275281495228 0 1 0 I I #
coedge $-1 $409 $332 $500 $501 reversed $239 $-1 #
coedge $-1 $339 $502 $332 $416 reversed $426 $-1 #
edge $-1 $341 -5.8165433786726979 $503 14.085275281495228 $332 $504 forward 7 unknown #
straight-curve $-1 60.266731772820222 -12.186934723650261 4.3286262772524609 0 -1 0 I I #
coedge $-1 $489 $335 $337 $423 forward $420 $-1 #
coedge $-1 $335 $505 $425 $506 reversed $420 $-1 #
loop $-1 $-1 $418 $507 #
vertex $-1 $506 $508 #
straight-curve $-1 -60.266731772820215 -17.389854122888053 5.8165433786726979 0 1 0 I I #
edge $-1 $338 0.84108871363071636 $491 9.1098206164532467 $418 $509 forward 7 unknown #
point $-1 -60.266731772820215 -28.615853882990219 5.8165433786726979 #
coedge $-1 $502 $339 $419 $506 forward $426 $-1 #
loop $-1 $-1 $339 $486 #
straight-curve $-1 0 -40.94356260856199 5.8165433786726979 -1 0 0 I I #
point $-1 60.266731772820215 -40.94356260856199 5.8165433786726979 #
face $-1 $510 $511 $18 $-1 $512 forward single #
plane-surface $-1 0 -34.779708245776106 5.8165433786726979 0 0 1 1 0 0 forward_v I I I I #
coedge $-1 $348 $513 $362 $456 forward $344 $-1 #
coedge $-1 $362 $445 $346 $433 reversed $261 $-1 #
edge $-1 $437 106.73547836061822 $514 120.53346354564046 $346 $515 forward 7 unknown #
coedge $-1 $441 $516 $347 $435 forward $442 $-1 #
edge $-1 $438 73.309067290154871 $514 83.065716294397646 $434 $517 forward 7 unknown #
coedge $-1 $518 $348 $516 $519 forward $344 $-1 #
vertex $-1 $456 $520 #
vertex $-1 $519 $521 #
straight-curve $-1 30.13336687529593 -20.131885011610827 14.085275281495228 1 0 0 I I #
coedge $-1 $522 $350 $355 $452 forward $442 $-1 #
coedge $-1 $350 $434 $445 $523 forward $442 $-1 #
loop $-1 $-1 $350 $510 #
vertex $-1 $523 $524 #
straight-curve $-1 60.266731772820215 -28.615853882990216 87.3943425716501 0 0 1 I I #
coedge $-1 $432 $352 $441 $523 reversed $261 $-1 #
coedge $-1 $352 $362 $525 $526 reversed $261 $-1 #
straight-curve $-1 -24.963296671317828 -28.615853882990216 89.558656699162142 -0.70710677298230451 0 0.70710678939079041 I I #
coedge $-1 $451 $354 $527 $528 reversed $356 $-1 #
coedge $-1 $525 $529 $354 $450 forward $511 $-1 #
edge $-1 $530 -60.266731772820215 $357 58.778814705927239 $449 $359 forward 7 unknown #
coedge $-1 $355 $448 $531 $532 reversed $356 $-1 #
edge $-1 $358 11.225999760102166 $533 23.553708485673937 $440 $534 forward 7 unknown #
point $-1 58.778814705927239 -28.615853882990216 5.816543378672705 #
point $-1 60.266731772820215 -28.615853882990219 5.8165433786726979 #
point $-1 54.327747199814667 -26.19186277688182 8.1462906199003644 #
edge $-1 $535 -16.428919159339959 $437 -7.944950287960566 $431 $536 forward 7 unknown #
coedge $-1 $537 $538 $539 $540 reversed $363 $-1 #
coedge $-1 $459 $365 $541 $542 reversed $264 $-1 #
coedge $-1 $365 $458 $543 $544 forward $264 $-1 #
coedge $-1 $545 $546 $365 $461 reversed $547 $-1 #
edge $-1 $548 58.778814705927239 $549 60.266731772820215 $460 $550 forward 7 unknown #
edge $-1 $551 1 $551 0 $366 $-1 forward 7 unknown #
vertex $-1 $367 $552 #
ellipse-curve $-1 54.681300594510063 -26.19186277688182 8.4998440063915179 0.70710678939079041 0 0.70710677298230451 0.35355338649115226 0 -0.35355339469539521 1 I I #
point $-1 55.741960770392005 -26.19186277688182 8.8533973846784271 #
point $-1 54.327747199814667 -22.555876117719226 8.1462906199003644 #
coedge $-1 $553 $554 $555 $556 reversed $372 $-1 #
face $-1 $557 $547 $19 $-1 $558 forward single #
loop $-1 $-1 $555 $373 #
plane-surface $-1 0 0 14.085275281495228 0 0 1 1 0 0 forward_v I I I I #
loop $-1 $-1 $392 $379 #
plane-surface $-1 0 40.94356260856199 0 0 -1 0 0 0 -1 forward_v I I I I #
coedge $-1 $382 $381 $394 $482 forward $202 $-1 #
coedge $-1 $476 $392 $382 $475 reversed $471 $-1 #
edge $-1 $559 -60.266731772820215 $398 60.266731772820215 $474 $560 forward 7 unknown #
coedge $-1 $383 $474 $387 $479 reversed $471 $-1 #
straight-curve $-1 0 40.94356260856199 14.085275281495228 -1 0 0 I I #
point $-1 60.266731772820215 40.94356260856199 14.085275281495228 #
edge $-1 $388 -14.085275281495228 $559 14.085275281495228 $476 $561 forward 7 unknown #
point $-1 -60.266731772820215 40.94356260856199 14.085275281495228 #
straight-curve $-1 60.266731772820215 40.94356260856199 0 0 0 -1 I I #
edge $-1 $396 -40.94356260856199 $559 40.94356260856199 $394 $562 forward 7 unknown #
straight-curve $-1 0 -40.94356260856199 -14.085275281495228 -1 0 0 I I #
point $-1 -60.266731772820215 -40.94356260856199 -14.085275281495228 #
point $-1 60.266731772820215 40.94356260856199 -14.085275281495228 #
face $-1 $507 $426 $17 $-1 $563 reversed single #
loop $-1 $-1 $500 $401 #
plane-surface $-1 0 0 -14.085275281495228 0 0 1 1 0 0 forward_v I I I I #
coedge $-1 $564 $418 $403 $490 reversed $420 $-1 #
edge $-1 $497 -40.94356260856199 $491 28.615853882990219 $489 $565 forward 7 unknown #
vertex $-1 $423 $566 #
straight-curve $-1 0 -28.615853882990219 14.085275281495228 1 0 0 I I #
coedge $-1 $567 $410 $409 $494 forward $496 $-1 #
edge $-1 $412 -14.085275281495228 $568 14.085275281495228 $409 $569 forward 7 unknown #
coedge $-1 $410 $567 $564 $570 reversed $496 $-1 #
loop $-1 $-1 $493 $571 #
vertex $-1 $411 $572 #
straight-curve $-1 0 40.94356260856199 14.085275281495228 -1 0 0 I I #
point $-1 60.266731772820215 40.94356260856199 14.085275281495228 #
coedge $-1 $573 $574 $414 $501 forward $487 $-1 #
edge $-1 $568 -40.94356260856199 $503 40.94356260856199 $414 $575 forward 7 unknown #
coedge $-1 $415 $425 $573 $576 reversed $426 $-1 #
vertex $-1 $416 $577 #
straight-curve $-1 60.266731772820215 -40.94356260856199 0 0 0 -1 I I #
coedge $-1 $419 $564 $578 $579 reversed $420 $-1 #
edge $-1 $421 -5.8165433786726979 $580 14.085275281495228 $419 $581 forward 7 unknown #
face $-1 $571 $420 $17 $-1 $582 reversed single #
point $-1 -60.266731772820215 -40.94356260856199 5.8165433786726979 #
straight-curve $-1 -60.266731772820215 -28.615853882990219 4.9754546650419815 0 0 1 I I #
face $-1 $583 $442 $18 $-1 $584 reversed single #
loop $-1 $-1 $525 $429 #
plane-surface $-1 0 -28.615853882990219 9.9509093300839631 0 -1 0 0 0 -1 forward_v I I I I #
coedge $-1 $431 $585 $586 $587 forward $344 $-1 #
vertex $-1 $523 $588 #
straight-curve $-1 -24.963296671317828 -20.131885011610827 89.558656699162142 0.70710677298230451 0 -0.70710678939079041 I I #
coedge $-1 $434 $589 $436 $519 reversed $442 $-1 #
straight-curve $-1 60.266731772820215 -20.131885011610827 87.3943425716501 0 0 -1 I I #
coedge $-1 $585 $436 $590 $591 forward $344 $-1 #
edge $-1 $438 -20.131885011610827 $592 40.94356260856199 $516 $593 forward 7 unknown #
point $-1 50.510082994981495 -20.131885011610827 14.085275281495228 #
point $-1 60.266731772820215 -20.131885011610827 14.085275281495228 #
coedge $-1 $594 $440 $595 $596 forward $442 $-1 #
edge $-1 $514 7.944950287960566 $443 16.428919159339955 $441 $597 forward 7 unknown #
point $-1 60.266731772820215 -28.615853882990216 4.3286262772524537 #
coedge $-1 $586 $449 $446 $526 forward $511 $-1 #
edge $-1 $357 -81.457783623020788 $535 -69.764030958099468 $525 $598 forward 7 unknown #
coedge $-1 $599 $600 $448 $528 forward $601 $-1 #
edge $-1 $602 -23.553708485673937 $530 -11.225999760102166 $527 $603 forward 7 unknown #
coedge $-1 $449 $586 $599 $604 reversed $511 $-1 #
vertex $-1 $528 $605 #
coedge $-1 $606 $595 $451 $532 forward $607 $-1 #
edge $-1 $533 -60.266731772820215 $602 60.266731772820215 $531 $608 forward 7 unknown #
vertex $-1 $596 $609 #
straight-curve $-1 60.266731772820215 -17.389854122888053 5.8165433786726979 0 -1 0 I I #
vertex $-1 $456 $610 #
straight-curve $-1 50.510082994981509 -12.186934723650261 14.085275281495221 0 1 0 I I #
coedge $-1 $538 $457 $554 $611 forward $363 $-1 #
coedge $-1 $457 $537 $612 $613 reversed $363 $-1 #
coedge $-1 $614 $555 $457 $540 forward $469 $-1 #
edge $-1 $615 20.376716119685565 $616 30.133364897524284 $539 $617 forward 7 unknown #
coedge $-1 $618 $619 $458 $542 forward $620 $-1 #
edge $-1 $621 -83.065716294397646 $549 -81.577799192977409 $541 $622 forward 7 unknown #
coedge $-1 $623 $553 $459 $544 reversed $372 $-1 #
edge $-1 $621 -120.53346354564046 $548 -118.42923102553955 $459 $624 forward 7 unknown #
coedge $-1 $625 $460 $626 $627 reversed $547 $-1 #
coedge $-1 $460 $628 $618 $629 reversed $547 $-1 #
loop $-1 $-1 $546 $468 #
vertex $-1 $461 $630 #
vertex $-1 $629 $631 #
straight-curve $-1 0 -28.615853882990219 5.8165433786726979 1 0 0 I I #
vertex $-1 $462 $632 #
point $-1 55.034853981001213 -26.19186277688182 8.1462906116961218 #
coedge $-1 $543 $467 $633 $634 reversed $372 $-1 #
coedge $-1 $467 $623 $537 $611 reversed $372 $-1 #
coedge $-1 $539 $635 $467 $556 forward $469 $-1 #
edge $-1 $636 -16.428919159339959 $615 -7.944950287960566 $555 $637 forward 7 unknown #
face $-1 $638 $639 $19 $-1 $640 forward single #
plane-surface $-1 0 -34.779708245776106 5.8165433786726979 0 0 1 1 0 0 forward_v I I I I #
vertex $-1 $475 $641 #
straight-curve $-1 0 40.94356260856199 -14.085275281495228 1 0 0 I I #
straight-curve $-1 -60.266731772820215 40.94356260856199 0 0 0 -1 I I #
straight-curve $-1 -60.266731772820215 0 -14.085275281495228 0 1 0 I I #
plane-surface $-1 0 -40.94356260856199 0 0 1 0 0 0 1 forward_v I I I I #
coedge $-1 $505 $489 $495 $570 forward $420 $-1 #
straight-curve $-1 -60.266731772820215 0 14.085275281495228 0 -1 0 I I #
point $-1 -60.266731772820215 -28.615853882990219 14.085275281495228 #
coedge $-1 $495 $493 $574 $642 reversed $496 $-1 #
vertex $-1 $501 $643 #
straight-curve $-1 60.266731772820215 40.94356260856199 0 0 0 -1 I I #
edge $-1 $497 -14.085275281495228 $644 14.085275281495228 $495 $645 forward 7 unknown #
face $-1 $-1 $496 $17 $-1 $646 reversed single #
point $-1 -60.266731772820215 40.94356260856199 14.085275281495228 #
coedge $-1 $578 $500 $502 $576 forward $487 $-1 #
coedge $-1 $500 $578 $567 $642 forward $487 $-1 #
straight-curve $-1 60.266731772820215 0 -14.085275281495228 0 -1 0 I I #
edge $-1 $503 -60.266731772820215 $580 60.266731772820215 $502 $647 forward 7 unknown #
point $-1 60.266731772820215 -40.94356260856199 -14.085275281495228 #
coedge $-1 $574 $573 $505 $579 forward $487 $-1 #
edge $-1 $580 -40.94356260856199 $644 40.94356260856199 $505 $648 forward 7 unknown #
vertex $-1 $579 $649 #
straight-curve $-1 -60.266731772820215 -40.94356260856199 0 0 0 -1 I I #
plane-surface $-1 -60.266731772820215 0 0 1 0 0 0 0 -1 forward_v I I I I #
face $-1 $650 $651 $18 $-1 $652 reversed single #
plane-surface $-1 60.266731772820215 0 0 -1 0 0 0 0 1 forward_v I I I I #
coedge $-1 $513 $518 $653 $654 forward $344 $-1 #
coedge $-1 $529 $525 $513 $587 reversed $511 $-1 #
edge $-1 $655 -60.266731772820215 $535 50.510082994981502 $513 $656 forward 7 unknown #
point $-1 60.266731772820215 -20.131885011610827 4.3286262772524537 #
coedge $-1 $516 $594 $657 $658 reversed $442 $-1 #
coedge $-1 $657 $659 $518 $591 reversed $660 $-1 #
edge $-1 $592 -60.266731772820215 $661 60.266731772820215 $590 $662 forward 7 unknown #
vertex $-1 $519 $663 #
straight-curve $-1 60.266731772820215 0 14.085275281495228 0 1 0 I I #
coedge $-1 $589 $522 $664 $665 reversed $442 $-1 #
coedge $-1 $531 $666 $522 $596 reversed $607 $-1 #
edge $-1 $533 -5.8165433786726979 $667 14.085275281495228 $522 $668 forward 7 unknown #
straight-curve $-1 60.266731772820222 -12.186934723650261 4.3286262772524609 0 -1 0 I I #
straight-curve $-1 1.1794641939621986 -28.615853882990219 63.415895227236639 -0.70710677298230462 0 0.70710678939079052 I I #
coedge $-1 $653 $527 $529 $604 forward $601 $-1 #
coedge $-1 $527 $669 $606 $670 reversed $601 $-1 #
loop $-1 $-1 $599 $671 #
vertex $-1 $670 $672 #
straight-curve $-1 -60.266731772820215 -17.389854122888053 5.8165433786726979 0 1 0 I I #
edge $-1 $530 0.84108871363071636 $655 9.1098206164532467 $599 $673 forward 7 unknown #
point $-1 -60.266731772820215 -28.615853882990219 5.8165433786726979 #
coedge $-1 $666 $531 $600 $670 forward $607 $-1 #
loop $-1 $-1 $531 $650 #
straight-curve $-1 0 -40.94356260856199 5.8165433786726979 -1 0 0 I I #
point $-1 60.266731772820215 -40.94356260856199 5.8165433786726979 #
point $-1 50.510082994981502 -28.615853882990219 14.085275281495228 #
edge $-1 $615 106.73547836061822 $674 120.53346354564046 $537 $675 forward 7 unknown #
coedge $-1 $619 $676 $538 $613 forward $620 $-1 #
edge $-1 $616 73.309067290154871 $674 83.065716294397646 $612 $677 forward 7 unknown #
coedge $-1 $678 $539 $676 $679 forward $469 $-1 #
vertex $-1 $556 $680 #
vertex $-1 $679 $681 #
straight-curve $-1 30.13336687529593 -20.131885011610827 14.085275281495228 1 0 0 I I #
coedge $-1 $682 $541 $546 $629 forward $620 $-1 #
coedge $-1 $541 $612 $623 $683 forward $620 $-1 #
loop $-1 $-1 $541 $638 #
vertex $-1 $683 $684 #
straight-curve $-1 60.266731772820215 -28.615853882990216 87.3943425716501 0 0 1 I I #
coedge $-1 $554 $543 $619 $683 reversed $372 $-1 #
straight-curve $-1 -24.963296671317828 -28.615853882990216 89.558656699162142 -0.70710677298230451 0 0.70710678939079041 I I #
coedge $-1 $628 $545 $685 $686 reversed $547 $-1 #
coedge $-1 $633 $687 $545 $627 forward $639 $-1 #
edge $-1 $688 -60.266731772820215 $548 58.778814705927239 $626 $550 forward 7 unknown #
coedge $-1 $546 $625 $689 $690 reversed $547 $-1 #
edge $-1 $549 11.225999760102166 $691 23.553708485673937 $618 $692 forward 7 unknown #
point $-1 58.778814705927239 -28.615853882990216 5.816543378672705 #
point $-1 60.266731772820215 -28.615853882990219 5.8165433786726979 #
point $-1 54.327747199814667 -26.19186277688182 8.1462906199003644 #
coedge $-1 $693 $626 $553 $634 forward $639 $-1 #
edge $-1 $548 -81.457783623020788 $636 -69.764030958099468 $633 $694 forward 7 unknown #
coedge $-1 $555 $695 $693 $696 forward $469 $-1 #
vertex $-1 $556 $697 #
straight-curve $-1 50.510082994981509 -12.186934723650261 14.085275281495221 0 1 0 I I #
face $-1 $698 $620 $19 $-1 $699 reversed single #
loop $-1 $-1 $633 $557 #
plane-surface $-1 0 -28.615853882990219 9.9509093300839631 0 -1 0 0 0 -1 forward_v I I I I #
point $-1 -60.266731772820215 40.94356260856199 -14.085275281495228 #
edge $-1 $644 -60.266731772820215 $568 60.266731772820215 $567 $700 forward 7 unknown #
point $-1 60.266731772820215 40.94356260856199 -14.085275281495228 #
vertex $-1 $642 $701 #
straight-curve $-1 -60.266731772820215 40.94356260856199 0 0 0 -1 I I #
plane-surface $-1 0 40.94356260856199 0 0 -1 0 0 0 -1 forward_v I I I I #
straight-curve $-1 0 -40.94356260856199 -14.085275281495228 -1 0 0 I I #
straight-curve $-1 -60.266731772820215 0 -14.085275281495228 0 1 0 I I #
point $-1 -60.266731772820215 -40.94356260856199 -14.085275281495228 #
face $-1 $671 $607 $18 $-1 $702 reversed single #
loop $-1 $-1 $664 $583 #
plane-surface $-1 0 0 -14.085275281495228 0 0 1 1 0 0 forward_v I I I I #
coedge $-1 $703 $599 $585 $654 reversed $601 $-1 #
edge $-1 $661 -40.94356260856199 $655 28.615853882990219 $653 $704 forward 7 unknown #
vertex $-1 $604 $705 #
straight-curve $-1 0 -28.615853882990219 14.085275281495228 1 0 0 I I #
coedge $-1 $706 $590 $589 $658 forward $660 $-1 #
edge $-1 $592 -14.085275281495228 $707 14.085275281495228 $589 $708 forward 7 unknown #
coedge $-1 $590 $706 $703 $709 reversed $660 $-1 #
loop $-1 $-1 $657 $710 #
vertex $-1 $591 $711 #
straight-curve $-1 0 40.94356260856199 14.085275281495228 -1 0 0 I I #
point $-1 60.266731772820215 40.94356260856199 14.085275281495228 #
coedge $-1 $712 $713 $594 $665 forward $651 $-1 #
edge $-1 $707 -40.94356260856199 $667 40.94356260856199 $594 $714 forward 7 unknown #
coedge $-1 $595 $606 $712 $715 reversed $607 $-1 #
vertex $-1 $596 $716 #
straight-curve $-1 60.266731772820215 -40.94356260856199 0 0 0 -1 I I #
coedge $-1 $600 $703 $717 $718 reversed $601 $-1 #
edge $-1 $602 -5.8165433786726979 $719 14.085275281495228 $600 $720 forward 7 unknown #
face $-1 $710 $601 $18 $-1 $721 reversed single #
point $-1 -60.266731772820215 -40.94356260856199 5.8165433786726979 #
straight-curve $-1 -60.266731772820215 -28.615853882990219 4.9754546650419815 0 0 1 I I #
vertex $-1 $683 $722 #
straight-curve $-1 -24.963296671317828 -20.131885011610827 89.558656699162142 0.70710677298230451 0 -0.70710678939079041 I I #
coedge $-1 $612 $723 $614 $679 reversed $620 $-1 #
straight-curve $-1 60.266731772820215 -20.131885011610827 87.3943425716501 0 0 -1 I I #
coedge $-1 $695 $614 $724 $725 forward $469 $-1 #
edge $-1 $616 -20.131885011610827 $726 40.94356260856199 $676 $727 forward 7 unknown #
point $-1 50.510082994981495 -20.131885011610827 14.085275281495228 #
point $-1 60.266731772820215 -20.131885011610827 14.085275281495228 #
coedge $-1 $728 $618 $729 $730 forward $620 $-1 #
edge $-1 $674 7.944950287960566 $621 16.428919159339955 $619 $731 forward 7 unknown #
point $-1 60.266731772820215 -28.615853882990216 4.3286262772524537 #
coedge $-1 $732 $733 $625 $686 forward $734 $-1 #
edge $-1 $735 -23.553708485673937 $688 -11.225999760102166 $685 $736 forward 7 unknown #
coedge $-1 $626 $693 $732 $737 reversed $639 $-1 #
vertex $-1 $686 $738 #
coedge $-1 $739 $729 $628 $690 forward $740 $-1 #
edge $-1 $691 -60.266731772820215 $735 60.266731772820215 $689 $741 forward 7 unknown #
vertex $-1 $730 $742 #
straight-curve $-1 60.266731772820215 -17.389854122888053 5.8165433786726979 0 -1 0 I I #
coedge $-1 $687 $633 $635 $696 reversed $639 $-1 #
straight-curve $-1 1.1794641939621986 -28.615853882990219 63.415895227236639 -0.70710677298230462 0 0.70710678939079052 I I #
coedge $-1 $635 $678 $743 $744 forward $469 $-1 #
edge $-1 $745 -60.266731772820215 $636 50.510082994981502 $635 $746 forward 7 unknown #
point $-1 50.510082994981502 -28.615853882990219 14.085275281495228 #
face $-1 $747 $748 $19 $-1 $749 reversed single #
plane-surface $-1 60.266731772820215 0 0 -1 0 0 0 0 1 forward_v I I I I #
straight-curve $-1 0 40.94356260856199 -14.085275281495228 1 0 0 I I #
point $-1 -60.266731772820215 40.94356260856199 -14.085275281495228 #
plane-surface $-1 0 -40.94356260856199 0 0 1 0 0 0 1 forward_v I I I I #
coedge $-1 $669 $653 $659 $709 forward $601 $-1 #
straight-curve $-1 -60.266731772820215 0 14.085275281495228 0 -1 0 I I #
point $-1 -60.266731772820215 -28.615853882990219 14.085275281495228 #
coedge $-1 $659 $657 $713 $750 reversed $660 $-1 #
vertex $-1 $665 $751 #
straight-curve $-1 60.266731772820215 40.94356260856199 0 0 0 -1 I I #
edge $-1 $661 -14.085275281495228 $752 14.085275281495228 $659 $753 forward 7 unknown #
face $-1 $-1 $660 $18 $-1 $754 reversed single #
point $-1 -60.266731772820215 40.94356260856199 14.085275281495228 #
coedge $-1 $717 $664 $666 $715 forward $651 $-1 #
coedge $-1 $664 $717 $706 $750 forward $651 $-1 #
straight-curve $-1 60.266731772820215 0 -14.085275281495228 0 -1 0 I I #
edge $-1 $667 -60.266731772820215 $719 60.266731772820215 $666 $755 forward 7 unknown #
point $-1 60.266731772820215 -40.94356260856199 -14.085275281495228 #
coedge $-1 $713 $712 $669 $718 forward $651 $-1 #
edge $-1 $719 -40.94356260856199 $752 40.94356260856199 $669 $756 forward 7 unknown #
vertex $-1 $718 $757 #
straight-curve $-1 -60.266731772820215 -40.94356260856199 0 0 0 -1 I I #
plane-surface $-1 -60.266731772820215 0 0 1 0 0 0 0 -1 forward_v I I I I #
point $-1 60.266731772820215 -20.131885011610827 4.3286262772524537 #
coedge $-1 $676 $728 $758 $759 reversed $620 $-1 #
coedge $-1 $758 $760 $678 $725 reversed $761 $-1 #
edge $-1 $726 -60.266731772820215 $762 60.266731772820215 $724 $763 forward 7 unknown #
vertex $-1 $679 $764 #
straight-curve $-1 60.266731772820215 0 14.085275281495228 0 1 0 I I #
coedge $-1 $723 $682 $765 $766 reversed $620 $-1 #
coedge $-1 $689 $767 $682 $730 reversed $740 $-1 #
edge $-1 $691 -5.8165433786726979 $768 14.085275281495228 $682 $769 forward 7 unknown #
straight-curve $-1 60.266731772820222 -12.186934723650261 4.3286262772524609 0 -1 0 I I #
coedge $-1 $743 $685 $687 $737 forward $734 $-1 #
coedge $-1 $685 $770 $739 $771 reversed $734 $-1 #
loop $-1 $-1 $732 $772 #
vertex $-1 $771 $773 #
straight-curve $-1 -60.266731772820215 -17.389854122888053 5.8165433786726979 0 1 0 I I #
edge $-1 $688 0.84108871363071636 $745 9.1098206164532467 $732 $774 forward 7 unknown #
point $-1 -60.266731772820215 -28.615853882990219 5.8165433786726979 #
coedge $-1 $767 $689 $733 $771 forward $740 $-1 #
loop $-1 $-1 $689 $747 #
straight-curve $-1 0 -40.94356260856199 5.8165433786726979 -1 0 0 I I #
point $-1 60.266731772820215 -40.94356260856199 5.8165433786726979 #
coedge $-1 $775 $732 $695 $744 reversed $734 $-1 #
edge $-1 $762 -40.94356260856199 $745 28.615853882990219 $743 $776 forward 7 unknown #
vertex $-1 $737 $777 #
straight-curve $-1 0 -28.615853882990219 14.085275281495228 1 0 0 I I #
face $-1 $772 $740 $19 $-1 $778 reversed single #
loop $-1 $-1 $765 $698 #
plane-surface $-1 0 0 -14.085275281495228 0 0 1 1 0 0 forward_v I I I I #
edge $-1 $752 -60.266731772820215 $707 60.266731772820215 $706 $779 forward 7 unknown #
point $-1 60.266731772820215 40.94356260856199 -14.085275281495228 #
vertex $-1 $750 $780 #
straight-curve $-1 -60.266731772820215 40.94356260856199 0 0 0 -1 I I #
plane-surface $-1 0 40.94356260856199 0 0 -1 0 0 0 -1 forward_v I I I I #
straight-curve $-1 0 -40.94356260856199 -14.085275281495228 -1 0 0 I I #
straight-curve $-1 -60.266731772820215 0 -14.085275281495228 0 1 0 I I #
point $-1 -60.266731772820215 -40.94356260856199 -14.085275281495228 #
coedge $-1 $781 $724 $723 $759 forward $761 $-1 #
edge $-1 $726 -14.085275281495228 $782 14.085275281495228 $723 $783 forward 7 unknown #
coedge $-1 $724 $781 $775 $784 reversed $761 $-1 #
loop $-1 $-1 $758 $785 #
vertex $-1 $725 $786 #
straight-curve $-1 0 40.94356260856199 14.085275281495228 -1 0 0 I I #
point $-1 60.266731772820215 40.94356260856199 14.085275281495228 #
coedge $-1 $787 $788 $728 $766 forward $748 $-1 #
edge $-1 $782 -40.94356260856199 $768 40.94356260856199 $728 $789 forward 7 unknown #
coedge $-1 $729 $739 $787 $790 reversed $740 $-1 #
vertex $-1 $730 $791 #
straight-curve $-1 60.266731772820215 -40.94356260856199 0 0 0 -1 I I #
coedge $-1 $733 $775 $792 $793 reversed $734 $-1 #
edge $-1 $735 -5.8165433786726979 $794 14.085275281495228 $733 $795 forward 7 unknown #
face $-1 $785 $734 $19 $-1 $796 reversed single #
point $-1 -60.266731772820215 -40.94356260856199 5.8165433786726979 #
straight-curve $-1 -60.266731772820215 -28.615853882990219 4.9754546650419815 0 0 1 I I #
coedge $-1 $770 $743 $760 $784 forward $734 $-1 #
straight-curve $-1 -60.266731772820215 0 14.085275281495228 0 -1 0 I I #
point $-1 -60.266731772820215 -28.615853882990219 14.085275281495228 #
plane-surface $-1 0 -40.94356260856199 0 0 1 0 0 0 1 forward_v I I I I #
straight-curve $-1 0 40.94356260856199 -14.085275281495228 1 0 0 I I #
point $-1 -60.266731772820215 40.94356260856199 -14.085275281495228 #
coedge $-1 $760 $758 $788 $797 reversed $761 $-1 #
vertex $-1 $766 $798 #
straight-curve $-1 60.266731772820215 40.94356260856199 0 0 0 -1 I I #
edge $-1 $762 -14.085275281495228 $799 14.085275281495228 $760 $800 forward 7 unknown #
face $-1 $-1 $761 $19 $-1 $801 reversed single #
point $-1 -60.266731772820215 40.94356260856199 14.085275281495228 #
coedge $-1 $792 $765 $767 $790 forward $748 $-1 #
coedge $-1 $765 $792 $781 $797 forward $748 $-1 #
straight-curve $-1 60.266731772820215 0 -14.085275281495228 0 -1 0 I I #
edge $-1 $768 -60.266731772820215 $794 60.266731772820215 $767 $802 forward 7 unknown #
point $-1 60.266731772820215 -40.94356260856199 -14.085275281495228 #
coedge $-1 $788 $787 $770 $793 forward $748 $-1 #
edge $-1 $794 -40.94356260856199 $799 40.94356260856199 $770 $803 forward 7 unknown #
vertex $-1 $793 $804 #
straight-curve $-1 -60.266731772820215 -40.94356260856199 0 0 0 -1 I I #
plane-surface $-1 -60.266731772820215 0 0 1 0 0 0 0 -1 forward_v I I I I #
edge $-1 $799 -60.266731772820215 $782 60.266731772820215 $781 $805 forward 7 unknown #
point $-1 60.266731772820215 40.94356260856199 -14.085275281495228 #
vertex $-1 $797 $806 #
straight-curve $-1 -60.266731772820215 40.94356260856199 0 0 0 -1 I I #
plane-surface $-1 0 40.94356260856199 0 0 -1 0 0 0 -1 forward_v I I I I #
straight-curve $-1 0 -40.94356260856199 -14.085275281495228 -1 0 0 I I #
straight-curve $-1 -60.266731772820215 0 -14.085275281495228 0 1 0 I I #
point $-1 -60.266731772820215 -40.94356260856199 -14.085275281495228 #
straight-curve $-1 0 40.94356260856199 -14.085275281495228 1 0 0 I I #
point $-1 -60.266731772820215 40.94356260856199 -14.085275281495228 #
End-of-ACIS-data 