500 0 8 0           
7 Unknown 11 ACIS 5.0 NT 24 Thu Mar 25 22:45:34 1999 
-1 9.9999999999999995e-007 1e-010 
body $-1 $8 $-1 $9 #
body $-1 $10 $-1 $11 #
body $-1 $12 $-1 $13 #
body $-1 $14 $-1 $15 #
body $-1 $16 $-1 $17 #
body $-1 $18 $-1 $19 #
body $-1 $20 $-1 $21 #
body $-1 $22 $-1 $23 #
lump $-1 $-1 $24 $0 #
transform $-1 1 0 0 0 1 0 0 0 1 43.294778283028656 24.645136660925179 7.0784725529739987 1 rotate no_reflect no_shear #
lump $-1 $-1 $25 $1 #
transform $-1 1 0 0 0 1 0 0 0 1 43.294778283028656 24.645136660925179 7.0784725529739987 1 rotate no_reflect no_shear #
lump $-1 $-1 $26 $2 #
transform $-1 1 0 0 0 1 0 0 0 1 43.294778283028656 24.645136660925179 7.0784725529739987 1 rotate no_reflect no_shear #
lump $-1 $-1 $27 $3 #
transform $-1 1 0 0 0 1 0 0 0 1 43.294778283028656 24.645136660925179 7.0784725529739987 1 rotate no_reflect no_shear #
lump $-1 $-1 $28 $4 #
transform $-1 1 0 0 0 1 0 0 0 1 43.294778283028656 24.645136660925179 7.0784725529739987 1 rotate no_reflect no_shear #
lump $-1 $-1 $29 $5 #
transform $-1 1 0 0 0 1 0 0 0 1 43.294778283028656 24.645136660925179 7.0784725529739987 1 rotate no_reflect no_shear #
lump $-1 $-1 $30 $6 #
transform $-1 1 0 0 0 1 0 0 0 1 43.294778283028656 24.645136660925179 7.0784725529739987 1 rotate no_reflect no_shear #
lump $-1 $-1 $31 $7 #
transform $-1 1 0 0 0 1 0 0 0 1 43.294778283028656 24.645136660925179 7.0784725529739987 1 rotate no_reflect no_shear #
shell $-1 $-1 $-1 $32 $-1 $8 #
shell $-1 $-1 $-1 $33 $-1 $10 #
shell $-1 $-1 $-1 $34 $-1 $12 #
shell $-1 $-1 $-1 $35 $-1 $14 #
shell $-1 $-1 $-1 $36 $-1 $16 #
shell $-1 $-1 $-1 $37 $-1 $18 #
shell $-1 $-1 $-1 $38 $-1 $20 #
shell $-1 $-1 $-1 $39 $-1 $22 #
face $-1 $40 $41 $24 $-1 $42 forward single #
face $-1 $43 $44 $25 $-1 $45 forward single #
face $-1 $46 $47 $26 $-1 $48 reversed single #
face $-1 $49 $50 $27 $-1 $51 forward single #
face $-1 $52 $53 $28 $-1 $54 forward single #
face $-1 $55 $56 $29 $-1 $57 reversed single #
face $-1 $58 $59 $30 $-1 $60 forward single #
face $-1 $61 $62 $31 $-1 $63 forward single #
face $-1 $64 $65 $24 $-1 $66 reversed single #
loop $-1 $-1 $67 $32 #
plane-surface $-1 0 0 7.0784725529739987 0 0 1 1 0 0 forward_v I I I I #
face $-1 $68 $69 $25 $-1 $70 reversed single #
loop $-1 $-1 $71 $33 #
plane-surface $-1 -43.294778283028656 0 0 1 0 0 0 0 -1 forward_v I I I I #
face $-1 $72 $73 $26 $-1 $74 reversed single #
loop $-1 $-1 $75 $34 #
plane-surface $-1 11.089681442130054 -99.633893019333641 47.138376855478249 -1 0 0 0 -0.86602541151947299 0.49999998660252726 forward_v I I I I #
face $-1 $76 $77 $27 $-1 $78 forward single #
loop $-1 $79 $80 $35 #
cone-surface $-1 -5.1457275652671797 -22.93940047056573 5.0153743608159029 0 0.86602541151947299 -0.49999998660252726 0.5 0 0 1 I I 0 1 0.5 forward I I I I #
face $-1 $81 $82 $28 $-1 $83 forward single #
loop $-1 $84 $85 $36 #
cone-surface $-1 4.5955178391711584 -22.93940047056573 5.0153743608159029 0 0.86602541151947299 -0.49999998660252726 0.5 0 0 1 I I 0 1 0.5 forward I I I I #
face $-1 $86 $87 $29 $-1 $88 reversed single #
loop $-1 $-1 $89 $37 #
plane-surface $-1 -34.008652691442158 42.545291782681474 99.481864855878115 1 0 0 0 -0.64278761758704617 -0.76604443648966558 forward_v I I I I #
face $-1 $90 $91 $30 $-1 $92 forward single #
loop $-1 $93 $94 $38 #
cone-surface $-1 -27.711986616706522 20.450668827292194 3.2588354414678031 0 -0.64278761758704617 -0.76604443648966558 1.5 0 0 1 I I 0 1 1.5 forward I I I I #
face $-1 $95 $96 $31 $-1 $97 forward single #
loop $-1 $98 $99 $39 #
cone-surface $-1 -18.266987504603065 20.450668827292194 3.2588354414678031 0 -0.64278761758704617 -0.76604443648966558 1.5 0 0 1 I I 0 1 1.5 forward I I I I #
face $-1 $100 $101 $24 $-1 $102 reversed single #
loop $-1 $-1 $103 $40 #
plane-surface $-1 0 0 -7.0784725529739987 0 0 1 1 0 0 forward_v I I I I #
coedge $-1 $104 $105 $106 $107 forward $41 $-1 #
face $-1 $108 $109 $25 $-1 $110 forward single #
loop $-1 $-1 $111 $43 #
plane-surface $-1 0 24.645136660925179 0 0 -1 0 0 0 -1 forward_v I I I I #
coedge $-1 $112 $113 $114 $115 forward $44 $-1 #
face $-1 $116 $117 $26 $-1 $118 reversed single #
loop $-1 $-1 $119 $46 #
plane-surface $-1 -0.27510486304800708 -24.645136660925175 3.8435997325308193 0 -0.86602541151947299 0.49999998660252726 1 0 0 forward_v I I I I #
coedge $-1 $120 $121 $122 $123 reversed $47 $-1 #
face $-1 $-1 $124 $27 $-1 $125 forward single #
loop $-1 $126 $127 $49 #
cone-surface $-1 -5.1457275652671797 -21.950985240802481 4.4447125822287674 0 0.86602541151947299 -0.49999998660252726 0.25 0 0 1 I I -0.70710678118654746 0.70710678118654746 0.25 forward I I I I #
loop $-1 $-1 $128 $35 #
coedge $-1 $80 $80 $129 $130 reversed $50 $-1 #
face $-1 $-1 $131 $28 $-1 $132 forward single #
loop $-1 $133 $134 $52 #
cone-surface $-1 4.5955178391711584 -21.950985240802481 4.4447125822287674 0 0.86602541151947299 -0.49999998660252726 0.25 0 0 1 I I -0.70710678118654746 0.70710678118654746 0.25 forward I I I I #
loop $-1 $-1 $135 $36 #
coedge $-1 $85 $85 $136 $137 reversed $53 $-1 #
face $-1 $138 $139 $29 $-1 $140 reversed single #
loop $-1 $-1 $141 $55 #
plane-surface $-1 -22.989487060654795 -13.113402990333277 33.150416790342717 0 0.64278761758704617 0.76604443648966558 1 0 0 forward_v I I I I #
coedge $-1 $142 $143 $144 $145 reversed $56 $-1 #
face $-1 $-1 $146 $30 $-1 $147 forward single #
loop $-1 $148 $149 $58 #
cone-surface $-1 -27.711986616706522 19.117713826092004 1.6702815632932548 0 -0.64278761758704617 -0.76604443648966558 0.75 0 0 1 I I -0.70710678118654757 0.70710678118654757 0.75 forward I I I I #
loop $-1 $-1 $150 $38 #
coedge $-1 $94 $94 $151 $152 reversed $59 $-1 #
face $-1 $-1 $153 $31 $-1 $154 forward single #
loop $-1 $155 $156 $61 #
cone-surface $-1 -18.266987504603065 19.117713826092004 1.6702815632932548 0 -0.64278761758704617 -0.76604443648966558 0.75 0 0 1 I I -0.70710678118654757 0.70710678118654757 0.75 forward I I I I #
loop $-1 $-1 $157 $39 #
coedge $-1 $99 $99 $158 $159 reversed $62 $-1 #
face $-1 $160 $161 $24 $-1 $162 reversed single #
loop $-1 $-1 $163 $64 #
plane-surface $-1 0 -24.645136660925179 0 0 1 0 0 0 1 forward_v I I I I #
coedge $-1 $164 $165 $166 $167 forward $65 $-1 #
coedge $-1 $168 $67 $169 $170 forward $41 $-1 #
coedge $-1 $67 $168 $171 $172 forward $41 $-1 #
coedge $-1 $173 $174 $67 $107 reversed $175 $-1 #
edge $-1 $176 -24.645136660925179 $177 24.645136660925179 $106 $178 forward 7 unknown #
face $-1 $179 $180 $25 $-1 $181 reversed single #
loop $-1 $-1 $114 $68 #
plane-surface $-1 -47.937841078821904 0 -4.0784725529739987 0 0 1 1 0 0 forward_v I I I I #
coedge $-1 $182 $183 $113 $184 forward $69 $-1 #
coedge $-1 $185 $71 $186 $187 reversed $44 $-1 #
coedge $-1 $71 $185 $111 $184 reversed $44 $-1 #
coedge $-1 $188 $189 $71 $115 reversed $109 $-1 #
edge $-1 $190 -24.645136660925179 $191 24.645136660925179 $114 $192 forward 7 unknown #
face $-1 $193 $194 $26 $-1 $195 reversed single #
loop $-1 $-1 $196 $72 #
plane-surface $-1 -11.639891168226068 -99.633893019333641 47.138376855478249 1 0 0 0 0.86602541151947299 -0.49999998660252726 forward_v I I I I #
coedge $-1 $197 $198 $199 $200 reversed $73 $-1 #
coedge $-1 $121 $75 $201 $202 reversed $47 $-1 #
coedge $-1 $75 $120 $197 $203 reversed $47 $-1 #
coedge $-1 $199 $204 $75 $123 forward $205 $-1 #
edge $-1 $206 25.171809848741642 $207 27.03946447569378 $122 $208 forward 7 unknown #
loop $-1 $-1 $129 $76 #
plane-surface $-1 -0.27510486304800708 -24.645136660925175 3.8435997325308193 0 -0.86602541151947299 0.49999998660252726 1 0 0 forward_v I I I I #
loop $-1 $-1 $209 $49 #
coedge $-1 $127 $127 $128 $210 reversed $77 $-1 #
coedge $-1 $128 $128 $127 $210 forward $79 $-1 #
coedge $-1 $129 $129 $80 $130 forward $124 $-1 #
edge $-1 $211 -1.5383701628470323e-015 $211 6.2831853071795987 $129 $212 forward 7 unknown #
loop $-1 $-1 $136 $81 #
plane-surface $-1 -0.27510486304800708 -24.645136660925175 3.8435997325308193 0 -0.86602541151947299 0.49999998660252726 1 0 0 forward_v I I I I #
loop $-1 $-1 $213 $52 #
coedge $-1 $134 $134 $135 $214 reversed $82 $-1 #
coedge $-1 $135 $135 $134 $214 forward $84 $-1 #
coedge $-1 $136 $136 $85 $137 forward $131 $-1 #
edge $-1 $215 -1.5383701628470323e-015 $215 6.2831853071795987 $136 $216 forward 7 unknown #
face $-1 $217 $218 $29 $-1 $219 forward single #
loop $-1 $-1 $220 $86 #
plane-surface $-1 -11.970321429867433 42.545291782681474 99.481864855878115 -1 0 0 0 0.64278761758704617 0.76604443648966558 forward_v I I I I #
coedge $-1 $221 $222 $223 $224 reversed $87 $-1 #
coedge $-1 $143 $89 $225 $226 reversed $56 $-1 #
coedge $-1 $89 $142 $221 $227 reversed $56 $-1 #
coedge $-1 $223 $228 $89 $145 forward $218 $-1 #
edge $-1 $229 -3.3724907695844415 $230 3.3147163216617415 $144 $231 forward 7 unknown #
loop $-1 $-1 $151 $90 #
plane-surface $-1 -22.989487060654795 -13.113402990333277 33.150416790342717 0 0.64278761758704617 0.76604443648966558 1 0 0 forward_v I I I I #
loop $-1 $-1 $232 $58 #
coedge $-1 $149 $149 $150 $233 reversed $91 $-1 #
coedge $-1 $150 $150 $149 $233 forward $93 $-1 #
coedge $-1 $151 $151 $94 $152 forward $146 $-1 #
edge $-1 $234 1.1457891918651628e-016 $234 6.2831853071796004 $151 $235 forward 7 unknown #
loop $-1 $-1 $158 $95 #
plane-surface $-1 -22.989487060654795 -13.113402990333277 33.150416790342717 0 0.64278761758704617 0.76604443648966558 1 0 0 forward_v I I I I #
loop $-1 $-1 $236 $61 #
coedge $-1 $156 $156 $157 $237 reversed $96 $-1 #
coedge $-1 $157 $157 $156 $237 forward $98 $-1 #
coedge $-1 $158 $158 $99 $159 forward $153 $-1 #
edge $-1 $238 1.1457891918651628e-016 $238 6.2831853071796004 $158 $239 forward 7 unknown #
face $-1 $240 $241 $24 $-1 $242 reversed single #
loop $-1 $-1 $243 $100 #
plane-surface $-1 -43.294778283028656 0 0 1 0 0 0 0 -1 forward_v I I I I #
coedge $-1 $244 $171 $245 $246 forward $101 $-1 #
coedge $-1 $247 $103 $244 $248 forward $65 $-1 #
coedge $-1 $103 $247 $249 $250 forward $65 $-1 #
coedge $-1 $174 $173 $103 $167 reversed $175 $-1 #
edge $-1 $251 -24.645136660925179 $252 24.645136660925179 $166 $253 forward 7 unknown #
coedge $-1 $105 $104 $254 $255 forward $41 $-1 #
coedge $-1 $256 $257 $104 $170 reversed $241 $-1 #
edge $-1 $177 -43.294778283028656 $258 43.294778283028656 $169 $259 forward 7 unknown #
coedge $-1 $163 $260 $105 $172 reversed $101 $-1 #
edge $-1 $261 -43.294778283028656 $176 43.294778283028656 $171 $262 forward 7 unknown #
coedge $-1 $166 $106 $260 $263 forward $175 $-1 #
coedge $-1 $106 $166 $256 $264 reversed $175 $-1 #
loop $-1 $-1 $173 $240 #
vertex $-1 $107 $265 #
vertex $-1 $107 $266 #
straight-curve $-1 43.294778283028656 0 7.0784725529739987 0 1 0 I I #
face $-1 $267 $268 $25 $-1 $269 reversed single #
loop $-1 $-1 $270 $108 #
plane-surface $-1 -52.580903874615153 0 -5.5784725529739987 1 0 0 0 0 -1 forward_v I I I I #
coedge $-1 $271 $111 $272 $273 reversed $69 $-1 #
coedge $-1 $111 $271 $188 $274 reversed $69 $-1 #
edge $-1 $190 4.0784725529739987 $275 7.0784725529739987 $111 $276 forward 7 unknown #
coedge $-1 $113 $112 $277 $278 reversed $44 $-1 #
coedge $-1 $279 $280 $112 $187 forward $281 $-1 #
edge $-1 $282 -7.0784725529739987 $191 -4.0784725529739987 $186 $283 forward 7 unknown #
coedge $-1 $284 $114 $183 $274 forward $109 $-1 #
coedge $-1 $114 $284 $279 $285 forward $109 $-1 #
vertex $-1 $184 $286 #
vertex $-1 $285 $287 #
straight-curve $-1 -43.294778283028656 0 -4.0784725529739987 0 -1 0 I I #
face $-1 $-1 $205 $26 $-1 $288 forward single #
loop $-1 $-1 $289 $116 #
plane-surface $-1 0 -24.645136660925179 0 0 1 0 0 0 1 forward_v I I I I #
coedge $-1 $290 $291 $292 $293 reversed $117 $-1 #
coedge $-1 $294 $119 $121 $203 forward $73 $-1 #
coedge $-1 $119 $294 $290 $295 forward $73 $-1 #
coedge $-1 $292 $122 $119 $200 forward $205 $-1 #
edge $-1 $207 -11.227233873654058 $296 11.502338736702065 $199 $297 forward 7 unknown #
coedge $-1 $298 $299 $120 $202 forward $194 $-1 #
edge $-1 $300 -19.725588695208312 $206 -16.490715874765126 $201 $301 forward 7 unknown #
edge $-1 $207 -3.7353093539916777 $300 7.160652361767478e-015 $121 $302 forward 7 unknown #
coedge $-1 $122 $292 $298 $303 forward $205 $-1 #
loop $-1 $-1 $292 $193 #
vertex $-1 $202 $304 #
vertex $-1 $123 $305 #
straight-curve $-1 11.089681442130054 -49.81694650966682 7.0784725529739987 0 1 0 I I #
coedge $-1 $209 $209 $-1 $306 reversed $126 $-1 #
edge $-1 $307 0 $307 6.2831853071796004 $127 $308 forward 7 unknown #
vertex $-1 $130 $309 #
ellipse-curve $-1 -5.1457275652671797 -23.711309347449109 5.4610361427524063 0 -0.86602541151947299 0.49999998660252726 0.5 0 0 1 I I #
coedge $-1 $213 $213 $-1 $310 reversed $133 $-1 #
edge $-1 $311 0 $311 6.2831853071796004 $134 $312 forward 7 unknown #
vertex $-1 $137 $313 #
ellipse-curve $-1 4.5955178391711584 -23.711309347449109 5.4610361427524063 0 -0.86602541151947299 0.49999998660252726 0.5 0 0 1 I I #
face $-1 $-1 $314 $29 $-1 $315 reversed single #
loop $-1 $-1 $144 $138 #
plane-surface $-1 0 0 7.0784725529739987 0 0 1 1 0 0 forward_v I I I I #
coedge $-1 $316 $317 $318 $319 reversed $139 $-1 #
coedge $-1 $320 $141 $143 $227 forward $87 $-1 #
coedge $-1 $141 $320 $316 $321 forward $87 $-1 #
coedge $-1 $318 $144 $141 $224 forward $218 $-1 #
edge $-1 $230 -22.513909161114761 $322 -0.47557789954003482 $223 $323 forward 7 unknown #
coedge $-1 $324 $325 $142 $226 forward $314 $-1 #
edge $-1 $326 -48.273692996362875 $229 -42.662459874965059 $225 $327 forward 7 unknown #
edge $-1 $230 40.56074436411815 $326 49.290273321850364 $143 $328 forward 7 unknown #
coedge $-1 $144 $318 $324 $329 forward $218 $-1 #
vertex $-1 $226 $330 #
vertex $-1 $145 $331 #
straight-curve $-1 -34.008652691442158 21.272645891340737 7.0784725529739987 0 -1 0 I I #
coedge $-1 $232 $232 $-1 $332 reversed $148 $-1 #
edge $-1 $333 0 $333 6.2831853071796004 $149 $334 forward 7 unknown #
vertex $-1 $152 $335 #
ellipse-curve $-1 -27.711986616706522 21.301533115302089 4.2728559922750895 0 0.64278761758704617 0.76604443648966558 1.5 0 0 1 I I #
coedge $-1 $236 $236 $-1 $336 reversed $155 $-1 #
edge $-1 $337 0 $337 6.2831853071796004 $156 $338 forward 7 unknown #
vertex $-1 $159 $339 #
ellipse-curve $-1 -18.266987504603065 21.301533115302089 4.2728559922750895 0 0.64278761758704617 0.76604443648966558 1.5 0 0 1 I I #
face $-1 $-1 $175 $24 $-1 $340 reversed single #
loop $-1 $-1 $256 $160 #
plane-surface $-1 0 24.645136660925179 0 0 -1 0 0 0 -1 forward_v I I I I #
coedge $-1 $341 $254 $257 $342 forward $161 $-1 #
coedge $-1 $260 $163 $164 $248 reversed $101 $-1 #
coedge $-1 $254 $341 $163 $246 reversed $161 $-1 #
edge $-1 $261 -7.0784725529739987 $343 7.0784725529739987 $245 $344 forward 7 unknown #
coedge $-1 $165 $164 $341 $345 forward $65 $-1 #
edge $-1 $252 -43.294778283028656 $343 43.294778283028656 $244 $346 forward 7 unknown #
coedge $-1 $257 $256 $165 $250 reversed $241 $-1 #
edge $-1 $347 -43.294778283028656 $251 43.294778283028656 $249 $348 forward 7 unknown #
vertex $-1 $167 $349 #
vertex $-1 $263 $350 #
straight-curve $-1 43.294778283028656 0 -7.0784725529739987 0 -1 0 I I #
coedge $-1 $243 $245 $168 $255 reversed $161 $-1 #
edge $-1 $258 -24.645136660925179 $261 24.645136660925179 $254 $351 forward 7 unknown #
coedge $-1 $249 $169 $174 $264 forward $241 $-1 #
coedge $-1 $169 $249 $243 $342 reversed $241 $-1 #
vertex $-1 $170 $352 #
straight-curve $-1 0 24.645136660925179 7.0784725529739987 -1 0 0 I I #
coedge $-1 $171 $244 $173 $263 reversed $101 $-1 #
vertex $-1 $255 $353 #
straight-curve $-1 0 -24.645136660925179 7.0784725529739987 1 0 0 I I #
edge $-1 $176 -7.0784725529739987 $252 7.0784725529739987 $173 $354 forward 7 unknown #
edge $-1 $177 -7.0784725529739987 $251 7.0784725529739987 $174 $355 forward 7 unknown #
point $-1 43.294778283028656 -24.645136660925179 7.0784725529739987 #
point $-1 43.294778283028656 24.645136660925179 7.0784725529739987 #
face $-1 $-1 $281 $25 $-1 $356 reversed single #
loop $-1 $-1 $277 $179 #
plane-surface $-1 0 0 -7.0784725529739987 0 0 1 1 0 0 forward_v I I I I #
coedge $-1 $357 $358 $271 $359 forward $180 $-1 #
coedge $-1 $183 $182 $270 $359 reversed $69 $-1 #
coedge $-1 $277 $360 $182 $273 forward $268 $-1 #
edge $-1 $361 -52.580903874615153 $275 -43.294778283028656 $182 $362 forward 7 unknown #
edge $-1 $190 -4.6430627957932487 $363 4.6430627957932487 $183 $364 forward 7 unknown #
vertex $-1 $184 $365 #
straight-curve $-1 -43.294778283028656 24.645136660925179 0 0 0 -1 I I #
coedge $-1 $366 $272 $185 $278 forward $268 $-1 #
edge $-1 $275 -24.645136660925179 $282 24.645136660925179 $277 $367 forward 7 unknown #
coedge $-1 $368 $186 $189 $285 reversed $281 $-1 #
coedge $-1 $186 $368 $366 $369 reversed $281 $-1 #
loop $-1 $-1 $186 $267 #
vertex $-1 $369 $370 #
straight-curve $-1 -43.294778283028656 -24.645136660925179 0 0 0 1 I I #
coedge $-1 $189 $188 $358 $371 forward $109 $-1 #
edge $-1 $372 -4.6430627957932487 $191 4.6430627957932487 $279 $373 forward 7 unknown #
point $-1 -43.294778283028656 24.645136660925179 -4.0784725529739987 #
point $-1 -43.294778283028656 -24.645136660925179 -4.0784725529739987 #
plane-surface $-1 0 0 7.0784725529739987 0 0 1 1 0 0 forward_v I I I I #
coedge $-1 $299 $298 $291 $374 forward $194 $-1 #
coedge $-1 $291 $196 $198 $295 reversed $117 $-1 #
coedge $-1 $196 $290 $289 $374 reversed $117 $-1 #
coedge $-1 $204 $199 $196 $293 forward $205 $-1 #
edge $-1 $296 -27.03946447569378 $375 -25.171809848741642 $292 $376 forward 7 unknown #
coedge $-1 $198 $197 $299 $377 reversed $73 $-1 #
edge $-1 $378 -7.160652361767478e-015 $296 3.7353093539916777 $290 $379 forward 7 unknown #
vertex $-1 $200 $380 #
straight-curve $-1 -0.13755243152400354 -22.777482033973044 7.0784725529739987 -1 0 0 I I #
coedge $-1 $289 $201 $204 $303 reversed $194 $-1 #
coedge $-1 $201 $289 $294 $377 forward $194 $-1 #
vertex $-1 $202 $381 #
straight-curve $-1 11.089681442130054 -24.645136660925175 23.569188427739125 0 0 1 I I #
straight-curve $-1 11.089681442130054 -24.645136660925175 3.8435997325308193 0 -0.49999998660252726 -0.86602541151947299 I I #
edge $-1 $375 -11.639891168226068 $206 11.089681442130054 $298 $382 forward 7 unknown #
point $-1 11.089681442130054 -24.645136660925179 7.0784725529739987 #
point $-1 11.089681442130054 -22.77748203397304 7.0784725529739987 #
edge $-1 $383 1 $383 0 $209 $-1 forward 7 unknown #
vertex $-1 $210 $384 #
ellipse-curve $-1 -5.1457275652671797 -22.16749159368235 4.5697125788793995 0 -0.86602541151947299 0.49999998660252726 0.5 0 0 1 I I #
point $-1 -4.6457275652671797 -23.711309347449109 5.4610361427524055 #
edge $-1 $385 1 $385 0 $213 $-1 forward 7 unknown #
vertex $-1 $214 $386 #
ellipse-curve $-1 4.5955178391711584 -22.16749159368235 4.5697125788793995 0 -0.86602541151947299 0.49999998660252726 0.5 0 0 1 I I #
point $-1 5.0955178391711584 -23.711309347449109 5.4610361427524055 #
loop $-1 $-1 $225 $217 #
plane-surface $-1 0 24.645136660925179 0 0 -1 0 0 0 -1 forward_v I I I I #
coedge $-1 $317 $220 $222 $321 reversed $139 $-1 #
coedge $-1 $220 $316 $387 $388 reversed $139 $-1 #
coedge $-1 $228 $223 $220 $319 forward $218 $-1 #
edge $-1 $322 -3.3147163216617415 $389 3.3724907695844415 $318 $390 forward 7 unknown #
coedge $-1 $222 $221 $325 $391 reversed $87 $-1 #
edge $-1 $392 -49.290273321850364 $322 -40.56074436411815 $316 $393 forward 7 unknown #
vertex $-1 $224 $394 #
straight-curve $-1 -11.494743530327398 17.957929569678988 7.0784725529739987 1 0 0 I I #
coedge $-1 $387 $225 $228 $329 reversed $314 $-1 #
coedge $-1 $225 $387 $320 $391 forward $314 $-1 #
vertex $-1 $226 $395 #
straight-curve $-1 -34.008652691442158 24.645136660925179 49.740932427939057 0 0 1 I I #
straight-curve $-1 -34.008652691442158 -13.113402990333277 33.150416790342717 0 0.76604443648966558 -0.64278761758704617 I I #
edge $-1 $389 11.970321429867433 $229 34.008652691442158 $324 $396 forward 7 unknown #
point $-1 -34.008652691442158 24.645136660925179 7.0784725529739987 #
point $-1 -34.008652691442158 17.957929569678996 7.0784725529739987 #
edge $-1 $397 1 $397 0 $232 $-1 forward 7 unknown #
vertex $-1 $233 $398 #
ellipse-curve $-1 -27.711986616706522 19.599804539282289 2.2448148906605039 0 0.64278761758704617 0.76604443648966558 1.5 0 0 1 I I #
point $-1 -26.211986616706522 21.301533115302099 4.2728559922751019 #
edge $-1 $399 1 $399 0 $236 $-1 forward 7 unknown #
vertex $-1 $237 $400 #
ellipse-curve $-1 -18.266987504603065 19.599804539282289 2.2448148906605039 0 0.64278761758704617 0.76604443648966558 1.5 0 0 1 I I #
point $-1 -16.766987504603065 21.301533115302099 4.2728559922751019 #
plane-surface $-1 43.294778283028656 0 0 -1 0 0 0 0 1 forward_v I I I I #
coedge $-1 $245 $243 $247 $345 reversed $161 $-1 #
edge $-1 $258 -7.0784725529739987 $347 7.0784725529739987 $257 $401 forward 7 unknown #
vertex $-1 $345 $402 #
straight-curve $-1 -43.294778283028656 -24.645136660925179 0 0 0 -1 I I #
edge $-1 $343 -24.645136660925179 $347 24.645136660925179 $341 $403 forward 7 unknown #
straight-curve $-1 0 -24.645136660925179 -7.0784725529739987 -1 0 0 I I #
vertex $-1 $250 $404 #
straight-curve $-1 0 24.645136660925179 -7.0784725529739987 1 0 0 I I #
point $-1 43.294778283028656 24.645136660925179 -7.0784725529739987 #
point $-1 43.294778283028656 -24.645136660925179 -7.0784725529739987 #
straight-curve $-1 -43.294778283028656 0 7.0784725529739987 0 -1 0 I I #
point $-1 -43.294778283028656 24.645136660925179 7.0784725529739987 #
point $-1 -43.294778283028656 -24.645136660925179 7.0784725529739987 #
straight-curve $-1 43.294778283028656 -24.645136660925179 0 0 0 -1 I I #
straight-curve $-1 43.294778283028656 24.645136660925179 0 0 0 -1 I I #
plane-surface $-1 0 -24.645136660925179 0 0 1 0 0 0 1 forward_v I I I I #
coedge $-1 $405 $270 $360 $406 reversed $180 $-1 #
coedge $-1 $270 $405 $284 $371 reversed $180 $-1 #
edge $-1 $363 -1.5 $361 1.5 $271 $407 forward 7 unknown #
coedge $-1 $272 $366 $357 $406 forward $268 $-1 #
vertex $-1 $273 $408 #
straight-curve $-1 0 24.645136660925179 -7.0784725529739987 1 0 0 I I #
vertex $-1 $274 $409 #
straight-curve $-1 -47.937841078821904 24.645136660925179 -4.0784725529739987 -1 0 0 I I #
point $-1 -43.294778283028656 24.645136660925179 -7.0784725529739987 #
coedge $-1 $360 $277 $280 $369 forward $268 $-1 #
straight-curve $-1 -43.294778283028656 0 -7.0784725529739987 0 -1 0 I I #
coedge $-1 $280 $279 $405 $410 forward $281 $-1 #
edge $-1 $282 -4.6430627957932487 $411 4.6430627957932487 $280 $412 forward 7 unknown #
point $-1 -43.294778283028656 -24.645136660925179 -7.0784725529739987 #
edge $-1 $363 -24.645136660925179 $372 24.645136660925179 $358 $413 forward 7 unknown #
vertex $-1 $371 $414 #
straight-curve $-1 -47.937841078821904 -24.645136660925179 -4.0784725529739987 1 0 0 I I #
edge $-1 $375 16.490715874765126 $378 19.725588695208312 $289 $415 forward 7 unknown #
vertex $-1 $303 $416 #
straight-curve $-1 -11.639891168226068 -49.81694650966682 7.0784725529739987 0 -1 0 I I #
edge $-1 $378 -11.502338736702065 $300 11.227233873654058 $299 $417 forward 7 unknown #
vertex $-1 $377 $418 #
straight-curve $-1 -11.639891168226068 -24.645136660925175 3.8435997325308193 0 0.49999998660252726 0.86602541151947299 I I #
point $-1 -11.639891168226068 -22.77748203397304 7.0784725529739987 #
point $-1 11.089681442130054 -24.645136660925179 3.8435997325308131 #
straight-curve $-1 0 -24.645136660925179 7.0784725529739987 1 0 0 I I #
vertex $-1 $306 $419 #
point $-1 -4.6457275652671797 -22.16749159368235 4.5697125788793995 #
vertex $-1 $310 $420 #
point $-1 5.0955178391711584 -22.16749159368235 4.5697125788793995 #
coedge $-1 $325 $324 $317 $388 forward $314 $-1 #
edge $-1 $389 42.662459874965059 $392 48.273692996362875 $387 $421 forward 7 unknown #
vertex $-1 $329 $422 #
straight-curve $-1 -11.970321429867433 21.272645891340737 7.0784725529739987 0 1 0 I I #
edge $-1 $392 0.47557789954003482 $326 22.513909161114761 $325 $423 forward 7 unknown #
vertex $-1 $391 $424 #
straight-curve $-1 -11.970321429867433 -13.113402990333277 33.150416790342717 0 -0.76604443648966558 0.64278761758704617 I I #
point $-1 -11.970321429867433 17.957929569678996 7.0784725529739987 #
point $-1 -34.008652691442158 24.645136660925182 1.4672394315761821 #
straight-curve $-1 0 24.645136660925179 7.0784725529739987 -1 0 0 I I #
vertex $-1 $332 $425 #
point $-1 -26.211986616706522 19.599804539282289 2.2448148906605039 #
vertex $-1 $336 $426 #
point $-1 -16.766987504603065 19.599804539282289 2.2448148906605039 #
straight-curve $-1 -43.294778283028656 24.645136660925179 0 0 0 -1 I I #
point $-1 -43.294778283028656 -24.645136660925179 -7.0784725529739987 #
straight-curve $-1 -43.294778283028656 0 -7.0784725529739987 0 1 0 I I #
point $-1 -43.294778283028656 24.645136660925179 -7.0784725529739987 #
coedge $-1 $358 $357 $368 $410 reversed $180 $-1 #
edge $-1 $411 -24.645136660925179 $361 24.645136660925179 $357 $427 forward 7 unknown #
straight-curve $-1 -52.580903874615153 24.645136660925179 -5.5784725529739987 0 0 -1 I I #
point $-1 -52.580903874615153 24.645136660925179 -7.0784725529739987 #
point $-1 -52.580903874615153 24.645136660925179 -4.0784725529739987 #
edge $-1 $372 -1.5 $411 1.5 $405 $428 forward 7 unknown #
vertex $-1 $406 $429 #
straight-curve $-1 -47.937841078821904 -24.645136660925179 -7.0784725529739987 -1 0 0 I I #
straight-curve $-1 -52.580903874615153 0 -4.0784725529739987 0 -1 0 I I #
point $-1 -52.580903874615153 -24.645136660925179 -4.0784725529739987 #
straight-curve $-1 -11.639891168226068 -24.645136660925175 23.569188427739125 0 0 -1 I I #
point $-1 -11.639891168226068 -24.645136660925179 7.0784725529739987 #
straight-curve $-1 -0.13755243152400354 -24.645136660925179 3.8435997325308078 1 0 0 I I #
point $-1 -11.639891168226068 -24.645136660925179 3.8435997325308131 #
point $-1 -5.1457275652671797 -21.734478887922613 4.3197125855781353 #
point $-1 4.5955178391711584 -21.734478887922613 4.3197125855781353 #
straight-curve $-1 -11.970321429867433 24.645136660925179 49.740932427939057 0 0 -1 I I #
point $-1 -11.970321429867433 24.645136660925179 7.0784725529739987 #
straight-curve $-1 -11.494743530327398 24.645136660925175 1.4672394315761821 -1 0 0 I I #
point $-1 -11.970321429867433 24.645136660925182 1.4672394315761821 #
point $-1 -27.711986616706522 18.635623112901719 1.0957482359260058 #
point $-1 -18.266987504603065 18.635623112901719 1.0957482359260058 #
straight-curve $-1 -52.580903874615153 0 -7.0784725529739987 0 1 0 I I #
straight-curve $-1 -52.580903874615153 -24.645136660925179 -5.5784725529739987 0 0 -1 I I #
point $-1 -52.580903874615153 -24.645136660925179 -7.0784725529739987 #
End-of-ACIS-data 