500 0 9 0           
7 Unknown 11 ACIS 5.0 NT 24 Fri Mar 26 18:03:47 1999 
-1 9.9999999999999995e-007 1e-010 
body $-1 $9 $-1 $10 #
body $-1 $11 $-1 $12 #
body $-1 $13 $-1 $14 #
body $-1 $15 $-1 $16 #
body $-1 $17 $-1 $18 #
body $-1 $19 $-1 $20 #
body $-1 $21 $-1 $22 #
body $-1 $23 $-1 $24 #
body $-1 $25 $-1 $26 #
lump $-1 $-1 $27 $0 #
transform $-1 1 0 0 0 1 0 0 0 1 45.971861934263131 25.633237900441333 8.4164824342560571 1 rotate no_reflect no_shear #
lump $-1 $-1 $28 $1 #
transform $-1 1 0 0 0 1 0 0 0 1 45.971861934263131 25.633237900441333 8.4164824342560571 1 rotate no_reflect no_shear #
lump $-1 $-1 $29 $2 #
transform $-1 1 0 0 0 1 0 0 0 1 45.971861934263131 25.633237900441333 8.4164824342560571 1 rotate no_reflect no_shear #
lump $-1 $-1 $30 $3 #
transform $-1 1 0 0 0 1 0 0 0 1 45.971861934263131 25.633237900441333 8.4164824342560571 1 rotate no_reflect no_shear #
lump $-1 $-1 $31 $4 #
transform $-1 1 0 0 0 1 0 0 0 1 45.971861934263131 25.633237900441333 8.4164824342560571 1 rotate no_reflect no_shear #
lump $-1 $-1 $32 $5 #
transform $-1 1 0 0 0 1 0 0 0 1 45.971861934263131 25.633237900441333 8.4164824342560571 1 rotate no_reflect no_shear #
lump $-1 $-1 $33 $6 #
transform $-1 1 0 0 0 1 0 0 0 1 45.971861934263131 25.633237900441333 8.4164824342560571 1 rotate no_reflect no_shear #
lump $-1 $-1 $34 $7 #
transform $-1 1 0 0 0 1 0 0 0 1 45.971861934263131 25.633237900441333 8.4164824342560571 1 rotate no_reflect no_shear #
lump $-1 $-1 $35 $8 #
transform $-1 1 0 0 0 1 0 0 0 1 45.971861934263131 25.633237900441333 8.4164824342560571 1 rotate no_reflect no_shear #
shell $-1 $-1 $-1 $36 $-1 $9 #
shell $-1 $-1 $-1 $37 $-1 $11 #
shell $-1 $-1 $-1 $38 $-1 $13 #
shell $-1 $-1 $-1 $39 $-1 $15 #
shell $-1 $-1 $-1 $40 $-1 $17 #
shell $-1 $-1 $-1 $41 $-1 $19 #
shell $-1 $-1 $-1 $42 $-1 $21 #
shell $-1 $-1 $-1 $43 $-1 $23 #
shell $-1 $-1 $-1 $44 $-1 $25 #
face $-1 $45 $46 $27 $-1 $47 forward single #
face $-1 $48 $49 $28 $-1 $50 reversed single #
face $-1 $51 $52 $29 $-1 $53 reversed single #
face $-1 $54 $55 $30 $-1 $56 reversed single #
face $-1 $57 $58 $31 $-1 $59 forward single #
face $-1 $60 $61 $32 $-1 $62 forward single #
face $-1 $63 $64 $33 $-1 $65 reversed single #
face $-1 $66 $67 $34 $-1 $68 forward single #
face $-1 $69 $70 $35 $-1 $71 forward single #
face $-1 $72 $73 $27 $-1 $74 reversed single #
loop $-1 $-1 $75 $36 #
plane-surface $-1 0 0 8.4164824342560571 0 0 1 1 0 0 forward_v I I I I #
face $-1 $76 $77 $28 $-1 $78 reversed single #
loop $-1 $-1 $79 $37 #
plane-surface $-1 -41.689450256985694 -22.593950779447827 0 0 1 0 0 0 1 forward_v I I I I #
face $-1 $80 $81 $29 $-1 $82 reversed single #
loop $-1 $-1 $83 $38 #
plane-surface $-1 41.689450256985694 -22.593950779447827 0 0 1 0 0 0 1 forward_v I I I I #
face $-1 $84 $85 $30 $-1 $86 reversed single #
loop $-1 $-1 $87 $39 #
plane-surface $-1 26.612344689570392 -25.633237900441316 0.58831327199674632 0 -0.73135370988377701 0.68199835119979291 1 0 0 forward_v I I I I #
face $-1 $88 $89 $31 $-1 $90 forward single #
loop $-1 $91 $92 $40 #
cone-surface $-1 21.986047308082746 -18.789969788325269 1.5245739264900484 0 0.73135370988377701 -0.68199835119979291 2.5 0 0 1 I I 0 1 2.5 forward I I I I #
face $-1 $93 $94 $32 $-1 $95 forward single #
loop $-1 $96 $97 $41 #
cone-surface $-1 31.238642071058052 -18.789969788325269 1.5245739264900484 0 0.73135370988377701 -0.68199835119979291 2.5 0 0 1 I I 0 1 2.5 forward I I I I #
face $-1 $98 $99 $33 $-1 $100 reversed single #
loop $-1 $-1 $101 $42 #
plane-surface $-1 15.817650799432535 57.912969484191521 100.78770862314312 1 0 0 0 -0.73135370988377701 -0.68199835119979291 forward_v I I I I #
face $-1 $102 $103 $34 $-1 $104 forward single #
loop $-1 $105 $106 $43 #
cone-surface $-1 21.986047308082746 18.789969788325273 1.5245739264900457 0 -0.73135370988377701 -0.68199835119979291 2.5 0 0 1 I I 0 1 2.5 forward I I I I #
face $-1 $107 $108 $35 $-1 $109 forward single #
loop $-1 $110 $111 $44 #
cone-surface $-1 31.238642071058052 18.789969788325273 1.5245739264900457 0 -0.73135370988377701 -0.68199835119979291 2.5 0 0 1 I I 0 1 2.5 forward I I I I #
face $-1 $112 $113 $27 $-1 $114 reversed single #
loop $-1 $-1 $115 $45 #
plane-surface $-1 0 0 -8.4164824342560571 0 0 1 1 0 0 forward_v I I I I #
coedge $-1 $116 $117 $118 $119 forward $46 $-1 #
face $-1 $120 $121 $28 $-1 $122 reversed single #
loop $-1 $-1 $123 $48 #
plane-surface $-1 -41.689450256985694 -18.426421634399315 0 0 -1 0 0 0 -1 forward_v I I I I #
coedge $-1 $124 $125 $126 $127 reversed $49 $-1 #
face $-1 $128 $129 $29 $-1 $130 reversed single #
loop $-1 $-1 $131 $51 #
plane-surface $-1 37.407038579708257 -20.510186206923571 0 1 0 0 0 0 -1 forward_v I I I I #
coedge $-1 $132 $133 $134 $135 forward $52 $-1 #
face $-1 $136 $137 $30 $-1 $138 forward single #
loop $-1 $-1 $139 $54 #
plane-surface $-1 15.817650799432535 -92.876621452217577 63.293781353500705 1 0 0 0 0.73135370988377701 -0.68199835119979291 forward_v I I I I #
coedge $-1 $140 $141 $142 $143 reversed $55 $-1 #
face $-1 $-1 $144 $31 $-1 $145 forward single #
loop $-1 $146 $147 $57 #
cone-surface $-1 21.986047308082746 -14.682452370499057 -2.3057479391460456 0 0.73135370988377701 -0.68199835119979291 1.25 0 0 1 I I -0.70710678118654746 0.70710678118654746 1.25 forward I I I I #
loop $-1 $-1 $148 $40 #
coedge $-1 $92 $92 $149 $150 reversed $58 $-1 #
face $-1 $-1 $151 $32 $-1 $152 forward single #
loop $-1 $153 $154 $60 #
cone-surface $-1 31.238642071058052 -14.682452370499057 -2.3057479391460456 0 0.73135370988377701 -0.68199835119979291 1.25 0 0 1 I I -0.70710678118654746 0.70710678118654746 1.25 forward I I I I #
loop $-1 $-1 $155 $41 #
coedge $-1 $97 $97 $156 $157 reversed $61 $-1 #
face $-1 $158 $159 $33 $-1 $160 reversed single #
loop $-1 $-1 $161 $63 #
plane-surface $-1 26.612344689570392 -9.3304140675847407 38.082240541639159 0 0.73135370988377701 0.68199835119979291 1 0 0 forward_v I I I I #
coedge $-1 $162 $163 $164 $165 reversed $64 $-1 #
face $-1 $-1 $166 $34 $-1 $167 forward single #
loop $-1 $168 $169 $66 #
cone-surface $-1 21.986047308082746 14.68245237049906 -2.3057479391460483 0 -0.73135370988377701 -0.68199835119979291 1.25 0 0 1 I I -0.70710678118654746 0.70710678118654746 1.25 forward I I I I #
loop $-1 $-1 $170 $43 #
coedge $-1 $106 $106 $171 $172 reversed $67 $-1 #
face $-1 $-1 $173 $35 $-1 $174 forward single #
loop $-1 $175 $176 $69 #
cone-surface $-1 31.238642071058052 14.68245237049906 -2.3057479391460483 0 -0.73135370988377701 -0.68199835119979291 1.25 0 0 1 I I -0.70710678118654746 0.70710678118654746 1.25 forward I I I I #
loop $-1 $-1 $177 $44 #
coedge $-1 $111 $111 $178 $179 reversed $70 $-1 #
face $-1 $180 $181 $27 $-1 $182 reversed single #
loop $-1 $-1 $183 $72 #
plane-surface $-1 0 -25.633237900441333 0 0 1 0 0 0 1 forward_v I I I I #
coedge $-1 $184 $185 $186 $187 forward $73 $-1 #
coedge $-1 $188 $75 $189 $190 forward $46 $-1 #
coedge $-1 $75 $188 $191 $192 forward $46 $-1 #
coedge $-1 $193 $194 $75 $119 reversed $195 $-1 #
edge $-1 $196 -25.633237900441333 $197 25.633237900441333 $118 $198 forward 7 unknown #
face $-1 $199 $200 $28 $-1 $201 reversed single #
loop $-1 $-1 $202 $76 #
plane-surface $-1 -37.407038579708257 -20.510186206923571 0 -1 0 0 0 0 1 forward_v I I I I #
coedge $-1 $203 $204 $205 $206 forward $77 $-1 #
coedge $-1 $207 $79 $208 $209 reversed $49 $-1 #
coedge $-1 $79 $207 $210 $211 reversed $49 $-1 #
coedge $-1 $212 $213 $79 $127 forward $214 $-1 #
edge $-1 $215 -8.4164824342560571 $216 8.4164824342560571 $126 $217 forward 7 unknown #
face $-1 $218 $219 $29 $-1 $220 reversed single #
loop $-1 $-1 $221 $80 #
plane-surface $-1 41.689450256985694 -18.426421634399315 0 0 -1 0 0 0 -1 forward_v I I I I #
coedge $-1 $222 $223 $224 $225 forward $81 $-1 #
coedge $-1 $226 $83 $227 $228 reversed $52 $-1 #
coedge $-1 $83 $226 $229 $230 reversed $52 $-1 #
coedge $-1 $223 $222 $83 $135 reversed $81 $-1 #
edge $-1 $231 -8.4164824342560571 $232 8.4164824342560571 $134 $233 forward 7 unknown #
face $-1 $234 $235 $30 $-1 $236 forward single #
loop $-1 $-1 $237 $84 #
plane-surface $-1 37.407038579708257 -20.510186206923571 0 1 0 0 0 0 -1 forward_v I I I I #
coedge $-1 $238 $239 $240 $241 reversed $85 $-1 #
coedge $-1 $242 $87 $237 $243 reversed $55 $-1 #
coedge $-1 $87 $242 $238 $244 forward $55 $-1 #
coedge $-1 $240 $245 $87 $143 forward $235 $-1 #
edge $-1 $246 -24.100866234923053 $247 -2.5114784546473388 $142 $248 forward 7 unknown #
loop $-1 $-1 $149 $88 #
plane-surface $-1 26.612344689570392 -25.633237900441316 0.58831327199674632 0 -0.73135370988377701 0.68199835119979291 1 0 0 forward_v I I I I #
loop $-1 $-1 $249 $57 #
coedge $-1 $147 $147 $148 $250 reversed $89 $-1 #
coedge $-1 $148 $148 $147 $250 forward $91 $-1 #
coedge $-1 $149 $149 $92 $150 forward $144 $-1 #
edge $-1 $251 -3.0924351632668328e-016 $251 6.2831853071796004 $149 $252 forward 7 unknown #
loop $-1 $-1 $156 $93 #
plane-surface $-1 26.612344689570392 -25.633237900441316 0.58831327199674632 0 -0.73135370988377701 0.68199835119979291 1 0 0 forward_v I I I I #
loop $-1 $-1 $253 $60 #
coedge $-1 $154 $154 $155 $254 reversed $94 $-1 #
coedge $-1 $155 $155 $154 $254 forward $96 $-1 #
coedge $-1 $156 $156 $97 $157 forward $151 $-1 #
edge $-1 $255 -3.0924351632668328e-016 $255 6.2831853071796004 $156 $256 forward 7 unknown #
face $-1 $257 $258 $33 $-1 $259 forward single #
loop $-1 $-1 $260 $98 #
plane-surface $-1 37.407038579708249 57.912969484191521 100.78770862314312 -1 0 0 0 0.73135370988377701 0.68199835119979291 forward_v I I I I #
coedge $-1 $261 $262 $263 $264 reversed $99 $-1 #
coedge $-1 $163 $101 $265 $266 reversed $64 $-1 #
coedge $-1 $101 $162 $261 $267 reversed $64 $-1 #
coedge $-1 $263 $268 $101 $165 forward $258 $-1 #
edge $-1 $269 3.3232468416544272 $270 10.623132504943591 $164 $271 forward 7 unknown #
loop $-1 $-1 $171 $102 #
plane-surface $-1 26.612344689570392 -9.3304140675847407 38.082240541639159 0 0.73135370988377701 0.68199835119979291 1 0 0 forward_v I I I I #
loop $-1 $-1 $272 $66 #
coedge $-1 $169 $169 $170 $273 reversed $103 $-1 #
coedge $-1 $170 $170 $169 $273 forward $105 $-1 #
coedge $-1 $171 $171 $106 $172 forward $166 $-1 #
edge $-1 $274 -4.0010539924951481e-016 $274 6.2831853071796004 $171 $275 forward 7 unknown #
loop $-1 $-1 $178 $107 #
plane-surface $-1 26.612344689570392 -9.3304140675847407 38.082240541639159 0 0.73135370988377701 0.68199835119979291 1 0 0 forward_v I I I I #
loop $-1 $-1 $276 $69 #
coedge $-1 $176 $176 $177 $277 reversed $108 $-1 #
coedge $-1 $177 $177 $176 $277 forward $110 $-1 #
coedge $-1 $178 $178 $111 $179 forward $173 $-1 #
edge $-1 $278 -4.0010539924951481e-016 $278 6.2831853071796004 $178 $279 forward 7 unknown #
face $-1 $280 $281 $27 $-1 $282 reversed single #
loop $-1 $-1 $283 $112 #
plane-surface $-1 -45.971861934263131 0 0 1 0 0 0 0 -1 forward_v I I I I #
coedge $-1 $284 $191 $285 $286 forward $113 $-1 #
coedge $-1 $287 $115 $284 $288 forward $73 $-1 #
coedge $-1 $115 $287 $289 $290 forward $73 $-1 #
coedge $-1 $194 $193 $115 $187 reversed $195 $-1 #
edge $-1 $291 -25.633237900441333 $292 25.633237900441333 $186 $293 forward 7 unknown #
coedge $-1 $117 $116 $294 $295 forward $46 $-1 #
coedge $-1 $296 $297 $116 $190 reversed $281 $-1 #
edge $-1 $197 -45.971861934263131 $298 45.971861934263131 $189 $299 forward 7 unknown #
coedge $-1 $183 $300 $117 $192 reversed $113 $-1 #
edge $-1 $301 -45.971861934263131 $196 45.971861934263131 $191 $302 forward 7 unknown #
coedge $-1 $186 $118 $300 $303 forward $195 $-1 #
coedge $-1 $118 $186 $296 $304 reversed $195 $-1 #
loop $-1 $-1 $193 $280 #
vertex $-1 $119 $305 #
vertex $-1 $119 $306 #
straight-curve $-1 45.971861934263131 0 8.4164824342560571 0 1 0 I I #
face $-1 $307 $308 $28 $-1 $309 forward single #
loop $-1 $-1 $310 $120 #
plane-surface $-1 0 0 -8.4164824342560571 0 0 1 1 0 0 forward_v I I I I #
coedge $-1 $311 $312 $207 $313 forward $121 $-1 #
coedge $-1 $314 $123 $310 $315 reversed $77 $-1 #
coedge $-1 $123 $314 $316 $317 reversed $77 $-1 #
coedge $-1 $312 $311 $123 $206 reversed $121 $-1 #
edge $-1 $318 -8.4164824342560571 $319 8.4164824342560571 $205 $320 forward 7 unknown #
coedge $-1 $125 $124 $202 $313 reversed $49 $-1 #
coedge $-1 $321 $322 $124 $209 forward $200 $-1 #
edge $-1 $323 16.56231345121541 $215 25.127136805770284 $208 $324 forward 7 unknown #
coedge $-1 $325 $326 $125 $211 forward $308 $-1 #
edge $-1 $216 -25.127136805770284 $327 -16.56231345121541 $210 $328 forward 7 unknown #
coedge $-1 $329 $126 $326 $330 reversed $214 $-1 #
coedge $-1 $126 $329 $321 $331 reversed $214 $-1 #
loop $-1 $-1 $329 $307 #
vertex $-1 $331 $332 #
vertex $-1 $127 $333 #
straight-curve $-1 -45.971861934263131 -22.593950779447827 0 0 0 1 I I #
face $-1 $334 $335 $29 $-1 $336 forward single #
loop $-1 $-1 $227 $128 #
plane-surface $-1 0 0 -8.4164824342560571 0 0 1 1 0 0 forward_v I I I I #
coedge $-1 $337 $338 $339 $340 reversed $129 $-1 #
coedge $-1 $134 $131 $341 $342 reversed $81 $-1 #
coedge $-1 $131 $134 $343 $344 reversed $81 $-1 #
coedge $-1 $338 $337 $131 $225 reversed $129 $-1 #
edge $-1 $345 -8.4164824342560571 $346 8.4164824342560571 $224 $347 forward 7 unknown #
coedge $-1 $133 $132 $348 $349 reversed $52 $-1 #
coedge $-1 $341 $350 $132 $228 forward $219 $-1 #
edge $-1 $351 -25.127136805770284 $232 -16.56231345121541 $227 $352 forward 7 unknown #
coedge $-1 $353 $343 $133 $230 forward $335 $-1 #
edge $-1 $231 16.56231345121541 $354 25.127136805770284 $229 $355 forward 7 unknown #
vertex $-1 $230 $356 #
vertex $-1 $228 $357 #
straight-curve $-1 37.407038579708257 -22.593950779447827 0 0 0 -1 I I #
face $-1 $-1 $358 $30 $-1 $359 reversed single #
loop $-1 $-1 $245 $136 #
plane-surface $-1 0 0 8.4164824342560571 0 0 1 1 0 0 forward_v I I I I #
coedge $-1 $360 $361 $140 $243 forward $137 $-1 #
coedge $-1 $239 $139 $141 $244 reversed $85 $-1 #
coedge $-1 $139 $238 $362 $363 reversed $85 $-1 #
coedge $-1 $364 $142 $139 $241 forward $235 $-1 #
edge $-1 $247 -28.104958488956619 $365 -20.805072825667455 $240 $366 forward 7 unknown #
coedge $-1 $141 $140 $367 $368 reversed $55 $-1 #
edge $-1 $369 -1.5318238570208893 $246 9.1718466877054681 $237 $370 forward 7 unknown #
edge $-1 $371 -2.6080534875291995e-014 $247 10.703670544726329 $238 $372 forward 7 unknown #
coedge $-1 $142 $364 $360 $373 forward $235 $-1 #
vertex $-1 $143 $374 #
vertex $-1 $143 $375 #
straight-curve $-1 13.306172344785196 -18.33335223715217 8.4164824342560571 -1 0 0 I I #
coedge $-1 $249 $249 $-1 $376 reversed $146 $-1 #
edge $-1 $377 0 $377 6.2831853071796004 $147 $378 forward 7 unknown #
vertex $-1 $150 $379 #
ellipse-curve $-1 21.986047308082746 -21.98329506879675 4.5023978531263928 0 -0.73135370988377701 0.68199835119979291 2.5 0 0 1 I I #
coedge $-1 $253 $253 $-1 $380 reversed $153 $-1 #
edge $-1 $381 0 $381 6.2831853071796004 $154 $382 forward 7 unknown #
vertex $-1 $157 $383 #
ellipse-curve $-1 31.238642071058052 -21.98329506879675 4.5023978531263928 0 -0.73135370988377701 0.68199835119979291 2.5 0 0 1 I I #
face $-1 $-1 $384 $33 $-1 $385 reversed single #
loop $-1 $-1 $164 $158 #
plane-surface $-1 0 0 8.4164824342560571 0 0 1 1 0 0 forward_v I I I I #
coedge $-1 $386 $387 $388 $389 reversed $159 $-1 #
coedge $-1 $390 $161 $163 $267 forward $99 $-1 #
coedge $-1 $161 $390 $386 $391 forward $99 $-1 #
coedge $-1 $388 $164 $161 $264 forward $258 $-1 #
edge $-1 $270 2.5114784546473388 $392 24.100866234923053 $263 $393 forward 7 unknown #
coedge $-1 $394 $395 $162 $266 forward $384 $-1 #
edge $-1 $396 -49.805541039574827 $269 -41.977371877315505 $265 $397 forward 7 unknown #
edge $-1 $270 40.562805256156324 $396 51.266475800882674 $163 $398 forward 7 unknown #
coedge $-1 $164 $388 $394 $399 forward $258 $-1 #
vertex $-1 $165 $400 #
vertex $-1 $165 $401 #
straight-curve $-1 15.817650799432535 28.956484742095761 8.4164824342560607 0 -1 0 I I #
coedge $-1 $272 $272 $-1 $402 reversed $168 $-1 #
edge $-1 $403 0 $403 6.2831853071796004 $169 $404 forward 7 unknown #
vertex $-1 $172 $405 #
ellipse-curve $-1 21.986047308082746 21.983295068796757 4.5023978531263911 0 0.73135370988377701 0.68199835119979291 2.5 0 0 1 I I #
coedge $-1 $276 $276 $-1 $406 reversed $175 $-1 #
edge $-1 $407 0 $407 6.2831853071796004 $176 $408 forward 7 unknown #
vertex $-1 $179 $409 #
ellipse-curve $-1 31.238642071058052 21.983295068796757 4.5023978531263911 0 0.73135370988377701 0.68199835119979291 2.5 0 0 1 I I #
face $-1 $-1 $195 $27 $-1 $410 reversed single #
loop $-1 $-1 $296 $180 #
plane-surface $-1 0 25.633237900441333 0 0 -1 0 0 0 -1 forward_v I I I I #
coedge $-1 $411 $294 $297 $412 forward $181 $-1 #
coedge $-1 $300 $183 $184 $288 reversed $113 $-1 #
coedge $-1 $294 $411 $183 $286 reversed $181 $-1 #
edge $-1 $301 -8.4164824342560571 $413 8.4164824342560571 $285 $414 forward 7 unknown #
coedge $-1 $185 $184 $411 $415 forward $73 $-1 #
edge $-1 $292 -45.971861934263131 $413 45.971861934263131 $284 $416 forward 7 unknown #
coedge $-1 $297 $296 $185 $290 reversed $281 $-1 #
edge $-1 $417 -45.971861934263131 $291 45.971861934263131 $289 $418 forward 7 unknown #
vertex $-1 $187 $419 #
vertex $-1 $303 $420 #
straight-curve $-1 45.971861934263131 0 -8.4164824342560571 0 -1 0 I I #
coedge $-1 $283 $285 $188 $295 reversed $181 $-1 #
edge $-1 $298 -25.633237900441333 $301 25.633237900441333 $294 $421 forward 7 unknown #
coedge $-1 $289 $189 $194 $304 forward $281 $-1 #
coedge $-1 $189 $289 $283 $412 reversed $281 $-1 #
vertex $-1 $190 $422 #
straight-curve $-1 0 25.633237900441333 8.4164824342560571 -1 0 0 I I #
coedge $-1 $191 $284 $193 $303 reversed $113 $-1 #
vertex $-1 $295 $423 #
straight-curve $-1 0 -25.633237900441333 8.4164824342560571 1 0 0 I I #
edge $-1 $196 -8.4164824342560571 $292 8.4164824342560571 $193 $424 forward 7 unknown #
edge $-1 $197 -8.4164824342560571 $291 8.4164824342560571 $194 $425 forward 7 unknown #
point $-1 45.971861934263131 -25.633237900441333 8.4164824342560571 #
point $-1 45.971861934263131 25.633237900441333 8.4164824342560571 #
face $-1 $-1 $214 $28 $-1 $426 reversed single #
loop $-1 $-1 $316 $199 #
plane-surface $-1 0 0 8.4164824342560571 0 0 1 1 0 0 forward_v I I I I #
coedge $-1 $322 $321 $203 $315 forward $200 $-1 #
coedge $-1 $205 $202 $322 $427 reversed $121 $-1 #
coedge $-1 $202 $205 $325 $428 reversed $121 $-1 #
edge $-1 $327 -8.4164824342560571 $323 8.4164824342560571 $202 $429 forward 7 unknown #
coedge $-1 $204 $203 $329 $430 reversed $77 $-1 #
edge $-1 $431 -25.127136805770284 $319 -16.56231345121541 $310 $432 forward 7 unknown #
coedge $-1 $326 $325 $204 $317 forward $308 $-1 #
edge $-1 $318 16.56231345121541 $433 25.127136805770284 $316 $434 forward 7 unknown #
vertex $-1 $317 $435 #
vertex $-1 $315 $436 #
straight-curve $-1 -37.407038579708257 -18.426421634399315 0 0 0 -1 I I #
coedge $-1 $310 $208 $213 $331 forward $200 $-1 #
coedge $-1 $208 $310 $311 $427 forward $200 $-1 #
vertex $-1 $209 $437 #
straight-curve $-1 -20.844725128492847 -22.593950779447827 -8.4164824342560571 -1 0 0 I I #
coedge $-1 $316 $210 $312 $428 forward $308 $-1 #
coedge $-1 $210 $316 $212 $330 forward $308 $-1 #
vertex $-1 $211 $438 #
straight-curve $-1 -20.844725128492847 -22.593950779447827 8.4164824342560571 1 0 0 I I #
coedge $-1 $213 $212 $314 $430 forward $214 $-1 #
edge $-1 $433 18.426421634399315 $216 22.593950779447827 $212 $439 forward 7 unknown #
edge $-1 $215 -22.593950779447827 $431 -18.426421634399315 $213 $440 forward 7 unknown #
point $-1 -45.971861934263131 -22.593950779447827 -8.4164824342560571 #
point $-1 -45.971861934263131 -22.593950779447827 8.4164824342560571 #
face $-1 $-1 $441 $29 $-1 $442 reversed single #
loop $-1 $-1 $229 $218 #
plane-surface $-1 0 0 8.4164824342560571 0 0 1 1 0 0 forward_v I I I I #
coedge $-1 $224 $221 $443 $444 reversed $129 $-1 #
coedge $-1 $221 $224 $445 $446 reversed $129 $-1 #
coedge $-1 $447 $448 $221 $340 forward $441 $-1 #
edge $-1 $449 -8.4164824342560571 $450 8.4164824342560571 $339 $451 forward 7 unknown #
coedge $-1 $443 $227 $222 $342 forward $219 $-1 #
edge $-1 $232 -12.338857675986041 $346 -8.1713285309375294 $341 $452 forward 7 unknown #
coedge $-1 $229 $445 $223 $344 forward $335 $-1 #
edge $-1 $345 8.1713285309375294 $231 12.338857675986041 $343 $453 forward 7 unknown #
vertex $-1 $344 $454 #
vertex $-1 $342 $455 #
straight-curve $-1 37.407038579708257 -18.426421634399315 0 0 0 -1 I I #
coedge $-1 $448 $447 $226 $349 forward $441 $-1 #
edge $-1 $354 -8.4164824342560571 $351 8.4164824342560571 $348 $456 forward 7 unknown #
coedge $-1 $227 $443 $448 $457 forward $219 $-1 #
vertex $-1 $349 $458 #
straight-curve $-1 20.844725128492847 -22.593950779447827 -8.4164824342560571 -1 0 0 I I #
coedge $-1 $445 $229 $447 $459 forward $335 $-1 #
vertex $-1 $459 $460 #
straight-curve $-1 20.844725128492847 -22.593950779447827 8.4164824342560571 1 0 0 I I #
point $-1 37.407038579708257 -22.593950779447827 8.4164824342560571 #
point $-1 37.407038579708257 -22.593950779447827 -8.4164824342560571 #
loop $-1 $-1 $461 $234 #
plane-surface $-1 0 -25.633237900441333 0 0 1 0 0 0 1 forward_v I I I I #
coedge $-1 $361 $237 $245 $373 reversed $137 $-1 #
coedge $-1 $237 $360 $461 $462 reversed $137 $-1 #
coedge $-1 $367 $463 $239 $363 forward $358 $-1 #
edge $-1 $365 23.230408242494295 $371 31.058577404753624 $362 $464 forward 7 unknown #
coedge $-1 $245 $240 $463 $465 forward $235 $-1 #
vertex $-1 $465 $466 #
straight-curve $-1 15.817650799432535 -46.438310726108789 8.4164824342560571 0 -1 0 I I #
coedge $-1 $461 $362 $242 $368 forward $358 $-1 #
edge $-1 $371 2.5114784546473388 $369 24.100866234923053 $367 $467 forward 7 unknown #
vertex $-1 $462 $468 #
straight-curve $-1 37.407038579708257 -24.588536555624579 1.7086183327174305 0 0.68199835119979291 0.73135370988377701 I I #
vertex $-1 $368 $469 #
straight-curve $-1 15.817650799432535 -25.633237900441316 0.58831327199674632 0 0.68199835119979291 0.73135370988377701 I I #
edge $-1 $470 20.805072825667455 $246 28.104958488956619 $245 $471 forward 7 unknown #
point $-1 37.407038579708249 -18.33335223715217 8.4164824342560571 #
point $-1 15.817650799432535 -18.33335223715217 8.4164824342560571 #
edge $-1 $472 1 $472 0 $249 $-1 forward 7 unknown #
vertex $-1 $250 $473 #
ellipse-curve $-1 21.986047308082746 -15.596644507853778 -1.4532500001463045 0 -0.73135370988377701 0.68199835119979291 2.5 0 0 1 I I #
point $-1 24.486047308082746 -21.98329506879676 4.5023978531264017 #
edge $-1 $474 1 $474 0 $253 $-1 forward 7 unknown #
vertex $-1 $254 $475 #
ellipse-curve $-1 31.238642071058052 -15.596644507853778 -1.4532500001463045 0 -0.73135370988377701 0.68199835119979291 2.5 0 0 1 I I #
point $-1 33.738642071058052 -21.98329506879676 4.5023978531264017 #
loop $-1 $-1 $265 $257 #
plane-surface $-1 0 25.633237900441333 0 0 -1 0 0 0 -1 forward_v I I I I #
coedge $-1 $387 $260 $262 $391 reversed $159 $-1 #
coedge $-1 $260 $386 $476 $477 reversed $159 $-1 #
coedge $-1 $268 $263 $260 $389 forward $258 $-1 #
edge $-1 $392 -10.623132504943591 $478 -3.3232468416544272 $388 $479 forward 7 unknown #
coedge $-1 $262 $261 $395 $480 reversed $99 $-1 #
edge $-1 $481 -51.266475800882674 $392 -40.562805256156324 $386 $482 forward 7 unknown #
vertex $-1 $264 $483 #
straight-curve $-1 13.306172344785196 18.333352237152177 8.4164824342560571 1 0 0 I I #
coedge $-1 $476 $265 $268 $399 reversed $384 $-1 #
coedge $-1 $265 $476 $390 $480 forward $384 $-1 #
vertex $-1 $266 $484 #
straight-curve $-1 15.817650799432535 25.633237900441333 50.393854311571559 0 0 1 I I #
straight-curve $-1 15.817650799432535 -9.3304140675847407 38.082240541639159 0 0.68199835119979291 -0.73135370988377701 I I #
edge $-1 $478 -37.407038579708249 $269 -15.817650799432535 $394 $485 forward 7 unknown #
point $-1 15.817650799432535 25.633237900441333 8.4164824342560571 #
point $-1 15.817650799432535 18.33335223715217 8.4164824342560571 #
edge $-1 $486 1 $486 0 $272 $-1 forward 7 unknown #
vertex $-1 $273 $487 #
ellipse-curve $-1 21.986047308082746 15.596644507853782 -1.4532500001463071 0 0.73135370988377701 0.68199835119979291 2.5 0 0 1 I I #
point $-1 24.486047308082746 21.983295068796764 4.5023978531263991 #
edge $-1 $488 1 $488 0 $276 $-1 forward 7 unknown #
vertex $-1 $277 $489 #
ellipse-curve $-1 31.238642071058052 15.596644507853782 -1.4532500001463071 0 0.73135370988377701 0.68199835119979291 2.5 0 0 1 I I #
point $-1 33.738642071058052 21.983295068796764 4.5023978531263991 #
plane-surface $-1 45.971861934263131 0 0 -1 0 0 0 0 1 forward_v I I I I #
coedge $-1 $285 $283 $287 $415 reversed $181 $-1 #
edge $-1 $298 -8.4164824342560571 $417 8.4164824342560571 $297 $490 forward 7 unknown #
vertex $-1 $415 $491 #
straight-curve $-1 -45.971861934263131 -25.633237900441333 0 0 0 -1 I I #
edge $-1 $413 -25.633237900441333 $417 25.633237900441333 $411 $492 forward 7 unknown #
straight-curve $-1 0 -25.633237900441333 -8.4164824342560571 -1 0 0 I I #
vertex $-1 $290 $493 #
straight-curve $-1 0 25.633237900441333 -8.4164824342560571 1 0 0 I I #
point $-1 45.971861934263131 25.633237900441333 -8.4164824342560571 #
point $-1 45.971861934263131 -25.633237900441333 -8.4164824342560571 #
straight-curve $-1 -45.971861934263131 0 8.4164824342560571 0 -1 0 I I #
point $-1 -45.971861934263131 25.633237900441333 8.4164824342560571 #
point $-1 -45.971861934263131 -25.633237900441333 8.4164824342560571 #
straight-curve $-1 45.971861934263131 -25.633237900441333 0 0 0 -1 I I #
straight-curve $-1 45.971861934263131 25.633237900441333 0 0 0 -1 I I #
plane-surface $-1 -45.971861934263131 0 0 1 0 0 0 0 -1 forward_v I I I I #
edge $-1 $319 8.1713285309375294 $323 12.338857675986041 $322 $494 forward 7 unknown #
edge $-1 $327 -12.338857675986041 $318 -8.1713285309375294 $325 $495 forward 7 unknown #
straight-curve $-1 -37.407038579708257 -22.593950779447827 0 0 0 -1 I I #
edge $-1 $433 -8.4164824342560571 $431 8.4164824342560571 $329 $496 forward 7 unknown #
vertex $-1 $430 $497 #
straight-curve $-1 -20.844725128492847 -18.426421634399315 -8.4164824342560571 1 0 0 I I #
vertex $-1 $330 $498 #
straight-curve $-1 -20.844725128492847 -18.426421634399315 8.4164824342560571 -1 0 0 I I #
point $-1 -37.407038579708257 -18.426421634399315 8.4164824342560571 #
point $-1 -37.407038579708257 -18.426421634399315 -8.4164824342560571 #
point $-1 -37.407038579708257 -22.593950779447827 -8.4164824342560571 #
point $-1 -37.407038579708257 -22.593950779447827 8.4164824342560571 #
straight-curve $-1 -45.971861934263131 0 8.4164824342560571 0 -1 0 I I #
straight-curve $-1 -45.971861934263131 0 -8.4164824342560571 0 1 0 I I #
loop $-1 $-1 $348 $334 #
plane-surface $-1 45.971861934263131 0 0 -1 0 0 0 0 1 forward_v I I I I #
coedge $-1 $350 $341 $337 $444 forward $219 $-1 #
edge $-1 $346 16.56231345121541 $449 25.127136805770284 $443 $499 forward 7 unknown #
coedge $-1 $343 $353 $338 $446 forward $335 $-1 #
edge $-1 $450 -25.127136805770284 $345 -16.56231345121541 $445 $500 forward 7 unknown #
coedge $-1 $348 $339 $353 $459 reversed $441 $-1 #
coedge $-1 $339 $348 $350 $457 reversed $441 $-1 #
vertex $-1 $457 $501 #
vertex $-1 $340 $502 #
straight-curve $-1 45.971861934263131 -18.426421634399315 0 0 0 1 I I #
straight-curve $-1 37.407038579708257 -10.255093103461785 -8.4164824342560571 0 1 0 I I #
straight-curve $-1 37.407038579708257 -10.255093103461785 8.4164824342560571 0 -1 0 I I #
point $-1 37.407038579708257 -18.426421634399315 8.4164824342560571 #
point $-1 37.407038579708257 -18.426421634399315 -8.4164824342560571 #
straight-curve $-1 45.971861934263131 -22.593950779447827 0 0 0 -1 I I #
edge $-1 $449 18.426421634399315 $351 22.593950779447827 $448 $503 forward 7 unknown #
point $-1 45.971861934263131 -22.593950779447827 -8.4164824342560571 #
edge $-1 $354 -22.593950779447827 $450 -18.426421634399315 $447 $504 forward 7 unknown #
point $-1 45.971861934263131 -22.593950779447827 8.4164824342560571 #
coedge $-1 $463 $367 $361 $462 forward $358 $-1 #
edge $-1 $369 -31.058577404753624 $470 -23.230408242494295 $461 $505 forward 7 unknown #
coedge $-1 $362 $461 $364 $465 reversed $358 $-1 #
straight-curve $-1 15.817650799432535 -25.63323790044133 31.646890676750353 0 0 -1 I I #
edge $-1 $365 15.817650799432535 $470 37.407038579708249 $463 $506 forward 7 unknown #
point $-1 15.817650799432535 -25.633237900441333 8.4164824342560571 #
straight-curve $-1 13.306172344785196 -25.633237900441333 0.58831327199672601 1 0 0 I I #
point $-1 37.407038579708249 -25.633237900441333 0.58831327199672723 #
point $-1 15.817650799432535 -25.633237900441333 0.58831327199672723 #
vertex $-1 $462 $507 #
straight-curve $-1 37.407038579708249 -46.438310726108789 8.4164824342560571 0 1 0 I I #
vertex $-1 $376 $508 #
point $-1 24.486047308082746 -15.596644507853778 -1.4532500001463045 #
vertex $-1 $380 $509 #
point $-1 33.738642071058052 -15.596644507853778 -1.4532500001463045 #
coedge $-1 $395 $394 $387 $477 forward $384 $-1 #
edge $-1 $478 41.977371877315505 $481 49.805541039574827 $476 $510 forward 7 unknown #
vertex $-1 $399 $511 #
straight-curve $-1 37.407038579708249 28.956484742095761 8.4164824342560607 0 1 0 I I #
edge $-1 $481 -24.100866234923053 $396 -2.5114784546473388 $395 $512 forward 7 unknown #
vertex $-1 $480 $513 #
straight-curve $-1 37.407038579708249 -9.3304140675847407 38.082240541639159 0 -0.68199835119979291 0.73135370988377701 I I #
point $-1 37.407038579708249 18.33335223715217 8.4164824342560571 #
point $-1 15.817650799432535 25.63323790044133 0.58831327199673211 #
straight-curve $-1 0 25.633237900441333 8.4164824342560571 -1 0 0 I I #
vertex $-1 $402 $514 #
point $-1 24.486047308082746 15.596644507853782 -1.4532500001463071 #
vertex $-1 $406 $515 #
point $-1 33.738642071058052 15.596644507853782 -1.4532500001463071 #
straight-curve $-1 -45.971861934263131 25.633237900441333 0 0 0 -1 I I #
point $-1 -45.971861934263131 -25.633237900441333 -8.4164824342560571 #
straight-curve $-1 -45.971861934263131 0 -8.4164824342560571 0 1 0 I I #
point $-1 -45.971861934263131 25.633237900441333 -8.4164824342560571 #
straight-curve $-1 -37.407038579708257 -10.255093103461785 -8.4164824342560571 0 -1 0 I I #
straight-curve $-1 -37.407038579708257 -10.255093103461785 8.4164824342560571 0 1 0 I I #
straight-curve $-1 -45.971861934263131 -18.426421634399315 0 0 0 -1 I I #
point $-1 -45.971861934263131 -18.426421634399315 -8.4164824342560571 #
point $-1 -45.971861934263131 -18.426421634399315 8.4164824342560571 #
straight-curve $-1 20.844725128492847 -18.426421634399315 -8.4164824342560571 1 0 0 I I #
straight-curve $-1 20.844725128492847 -18.426421634399315 8.4164824342560571 -1 0 0 I I #
point $-1 45.971861934263131 -18.426421634399315 -8.4164824342560571 #
point $-1 45.971861934263131 -18.426421634399315 8.4164824342560571 #
straight-curve $-1 45.971861934263131 0 -8.4164824342560571 0 -1 0 I I #
straight-curve $-1 45.971861934263131 0 8.4164824342560571 0 1 0 I I #
straight-curve $-1 37.407038579708249 -25.63323790044133 31.646890676750353 0 0 1 I I #
straight-curve $-1 0 -25.633237900441333 8.4164824342560571 1 0 0 I I #
point $-1 37.407038579708249 -25.633237900441333 8.4164824342560571 #
point $-1 21.986047308082746 -13.768260233144336 -3.1582458781457867 #
point $-1 31.238642071058052 -13.768260233144336 -3.1582458781457867 #
straight-curve $-1 37.407038579708249 25.633237900441333 50.393854311571559 0 0 -1 I I #
point $-1 37.407038579708249 25.633237900441333 8.4164824342560571 #
straight-curve $-1 13.306172344785196 25.63323790044133 0.58831327199673211 -1 0 0 I I #
point $-1 37.407038579708249 25.63323790044133 0.58831327199673211 #
point $-1 21.986047308082746 13.768260233144339 -3.1582458781457894 #
point $-1 31.238642071058052 13.768260233144339 -3.1582458781457894 #
End-of-ACIS-data 