500 0 14 0           
7 Unknown 11 ACIS 5.0 NT 24 Fri Mar 26 17:32:26 1999 
-1 9.9999999999999995e-007 1e-010 
body $-1 $14 $-1 $15 #
body $-1 $16 $-1 $17 #
body $-1 $18 $-1 $19 #
body $-1 $20 $-1 $21 #
body $-1 $22 $-1 $23 #
body $-1 $24 $-1 $25 #
body $-1 $26 $-1 $27 #
body $-1 $28 $-1 $29 #
body $-1 $30 $-1 $31 #
body $-1 $32 $-1 $33 #
body $-1 $34 $-1 $35 #
body $-1 $36 $-1 $37 #
body $-1 $38 $-1 $39 #
body $-1 $40 $-1 $41 #
lump $-1 $-1 $42 $0 #
transform $-1 1 0 0 0 1 0 0 0 1 67.143162327951899 32.330230788956165 11.878426937014812 1 rotate no_reflect no_shear #
lump $-1 $-1 $43 $1 #
transform $-1 1 0 0 0 1 0 0 0 1 67.143162327951899 32.330230788956165 11.878426937014812 1 rotate no_reflect no_shear #
lump $-1 $-1 $44 $2 #
transform $-1 1 0 0 0 1 0 0 0 1 67.143162327951899 32.330230788956165 11.878426937014812 1 rotate no_reflect no_shear #
lump $-1 $-1 $45 $3 #
transform $-1 1 0 0 0 1 0 0 0 1 67.143162327951899 32.330230788956165 11.878426937014812 1 rotate no_reflect no_shear #
lump $-1 $-1 $46 $4 #
transform $-1 1 0 0 0 1 0 0 0 1 67.143162327951899 32.330230788956165 11.878426937014812 1 rotate no_reflect no_shear #
lump $-1 $-1 $47 $5 #
transform $-1 1 0 0 0 1 0 0 0 1 67.143162327951899 32.330230788956165 11.878426937014812 1 rotate no_reflect no_shear #
lump $-1 $-1 $48 $6 #
transform $-1 1 0 0 0 1 0 0 0 1 67.143162327951899 32.330230788956165 11.878426937014812 1 rotate no_reflect no_shear #
lump $-1 $-1 $49 $7 #
transform $-1 1 0 0 0 1 0 0 0 1 67.143162327951899 32.330230788956165 11.878426937014812 1 rotate no_reflect no_shear #
lump $-1 $-1 $50 $8 #
transform $-1 1 0 0 0 1 0 0 0 1 67.143162327951899 32.330230788956165 11.878426937014812 1 rotate no_reflect no_shear #
lump $-1 $-1 $51 $9 #
transform $-1 1 0 0 0 1 0 0 0 1 67.143162327951899 32.330230788956165 11.878426937014812 1 rotate no_reflect no_shear #
lump $-1 $-1 $52 $10 #
transform $-1 1 0 0 0 1 0 0 0 1 67.143162327951899 32.330230788956165 11.878426937014812 1 rotate no_reflect no_shear #
lump $-1 $-1 $53 $11 #
transform $-1 1 0 0 0 1 0 0 0 1 67.143162327951899 32.330230788956165 11.878426937014812 1 rotate no_reflect no_shear #
lump $-1 $-1 $54 $12 #
transform $-1 1 0 0 0 1 0 0 0 1 67.143162327951899 32.330230788956165 11.878426937014812 1 rotate no_reflect no_shear #
lump $-1 $-1 $55 $13 #
transform $-1 1 0 0 0 1 0 0 0 1 67.143162327951899 32.330230788956165 11.878426937014812 1 rotate no_reflect no_shear #
shell $-1 $-1 $-1 $56 $-1 $14 #
shell $-1 $-1 $-1 $57 $-1 $16 #
shell $-1 $-1 $-1 $58 $-1 $18 #
shell $-1 $-1 $-1 $59 $-1 $20 #
shell $-1 $-1 $-1 $60 $-1 $22 #
shell $-1 $-1 $-1 $61 $-1 $24 #
shell $-1 $-1 $-1 $62 $-1 $26 #
shell $-1 $-1 $-1 $63 $-1 $28 #
shell $-1 $-1 $-1 $64 $-1 $30 #
shell $-1 $-1 $-1 $65 $-1 $32 #
shell $-1 $-1 $-1 $66 $-1 $34 #
shell $-1 $-1 $-1 $67 $-1 $36 #
shell $-1 $-1 $-1 $68 $-1 $38 #
shell $-1 $-1 $-1 $69 $-1 $40 #
face $-1 $70 $71 $42 $-1 $72 forward single #
face $-1 $73 $74 $43 $-1 $75 forward single #
face $-1 $76 $77 $44 $-1 $78 forward single #
face $-1 $79 $80 $45 $-1 $81 reversed single #
face $-1 $82 $83 $46 $-1 $84 forward single #
face $-1 $85 $86 $47 $-1 $87 forward single #
face $-1 $88 $89 $48 $-1 $90 reversed single #
face $-1 $91 $92 $49 $-1 $93 forward single #
face $-1 $94 $95 $50 $-1 $96 forward single #
face $-1 $97 $98 $51 $-1 $99 forward single #
face $-1 $100 $101 $52 $-1 $102 reversed single #
face $-1 $103 $104 $53 $-1 $105 forward single #
face $-1 $106 $107 $54 $-1 $108 forward single #
face $-1 $109 $110 $55 $-1 $111 forward single #
face $-1 $112 $113 $42 $-1 $114 reversed single #
loop $-1 $-1 $115 $56 #
plane-surface $-1 0 0 11.878426937014812 0 0 1 1 0 0 forward_v I I I I #
face $-1 $116 $117 $43 $-1 $118 reversed single #
loop $-1 $-1 $119 $57 #
plane-surface $-1 -67.143162327951899 0 0 1 0 0 0 0 -1 forward_v I I I I #
face $-1 $120 $121 $44 $-1 $122 reversed single #
loop $-1 $-1 $123 $58 #
plane-surface $-1 67.143162327951899 0 0 -1 0 0 0 0 1 forward_v I I I I #
face $-1 $124 $125 $45 $-1 $126 reversed single #
loop $-1 $-1 $127 $59 #
plane-surface $-1 -30.082115577625537 -136.69030678544908 90.652243489854456 -1 0 0 0 -0.77714596973225614 0.62932038083071107 forward_v I I I I #
face $-1 $128 $129 $46 $-1 $130 forward single #
loop $-1 $131 $132 $60 #
cone-surface $-1 -46.258684998258239 -28.90795879487813 8.1199369364397338 0 0.77714596973225614 -0.62932038083071107 1 0 0 1 I I 0 1 1 forward I I I I #
face $-1 $133 $134 $47 $-1 $135 forward single #
loop $-1 $136 $137 $61 #
cone-surface $-1 -36.552743345878618 -28.90795879487813 8.1199369364397338 0 0.77714596973225614 -0.62932038083071107 1 0 0 1 I I 0 1 1 forward I I I I #
face $-1 $138 $139 $48 $-1 $140 reversed single #
loop $-1 $-1 $141 $62 #
plane-surface $-1 -40.060810612619235 76.623617637457102 145.40914055584 1 0 0 0 -0.68199836817093118 -0.7313536940579346 forward_v I I I I #
face $-1 $142 $143 $49 $-1 $144 forward single #
loop $-1 $145 $146 $63 #
cone-surface $-1 -36.55123046189626 26.295475969191187 6.0652144943046089 0 -0.68199836817093118 -0.7313536940579346 1 0 0 1 I I 0 1 1 forward I I I I #
face $-1 $147 $148 $50 $-1 $149 forward single #
loop $-1 $150 $151 $64 #
cone-surface $-1 -31.286860235811787 26.295475969191187 6.0652144943046089 0 -0.68199836817093118 -0.7313536940579346 1 0 0 1 I I 0 1 1 forward I I I I #
face $-1 $152 $153 $51 $-1 $154 forward single #
loop $-1 $155 $156 $65 #
cone-surface $-1 -26.022490009727321 26.295475969191187 6.0652144943046089 0 -0.68199836817093118 -0.7313536940579346 1 0 0 1 I I 0 1 1 forward I I I I #
face $-1 $157 $158 $52 $-1 $159 reversed single #
loop $-1 $-1 $160 $66 #
plane-surface $-1 22.512909859004367 76.623617637457102 145.40914055584 1 0 0 0 -0.68199836817093118 -0.7313536940579346 forward_v I I I I #
face $-1 $161 $162 $53 $-1 $163 forward single #
loop $-1 $164 $165 $67 #
cone-surface $-1 26.022490009727335 26.295475969191187 6.0652144943046089 0 -0.68199836817093118 -0.7313536940579346 1 0 0 1 I I 0 1 1 forward I I I I #
face $-1 $166 $167 $54 $-1 $168 forward single #
loop $-1 $169 $170 $68 #
cone-surface $-1 31.286860235811815 26.295475969191187 6.0652144943046089 0 -0.68199836817093118 -0.7313536940579346 1 0 0 1 I I 0 1 1 forward I I I I #
face $-1 $171 $172 $55 $-1 $173 forward single #
loop $-1 $174 $175 $69 #
cone-surface $-1 36.551230461896267 26.295475969191187 6.0652144943046089 0 -0.68199836817093118 -0.7313536940579346 1 0 0 1 I I 0 1 1 forward I I I I #
face $-1 $176 $177 $42 $-1 $178 reversed single #
loop $-1 $-1 $179 $70 #
plane-surface $-1 0 0 -11.878426937014812 0 0 1 1 0 0 forward_v I I I I #
coedge $-1 $180 $181 $182 $183 forward $71 $-1 #
face $-1 $184 $185 $43 $-1 $186 forward single #
loop $-1 $-1 $187 $73 #
plane-surface $-1 0 32.330230788956165 0 0 -1 0 0 0 -1 forward_v I I I I #
coedge $-1 $188 $189 $190 $191 forward $74 $-1 #
face $-1 $192 $193 $44 $-1 $194 forward single #
loop $-1 $-1 $195 $76 #
plane-surface $-1 0 32.330230788956165 0 0 -1 0 0 0 -1 forward_v I I I I #
coedge $-1 $196 $197 $198 $199 forward $77 $-1 #
face $-1 $200 $201 $45 $-1 $202 reversed single #
loop $-1 $-1 $203 $79 #
plane-surface $-1 -41.405714172068429 -32.330230788956143 6.1431225170445742 0 -0.77714596973225614 0.62932038083071107 1 0 0 forward_v I I I I #
coedge $-1 $204 $205 $206 $207 reversed $80 $-1 #
face $-1 $-1 $208 $46 $-1 $209 forward single #
loop $-1 $210 $211 $82 #
cone-surface $-1 -46.258684998258239 -27.419292725900668 6.9144389554344166 0 0.77714596973225614 -0.62932038083071107 0.5 0 0 1 I I -0.70710678118654746 0.70710678118654746 0.5 forward I I I I #
loop $-1 $-1 $212 $60 #
coedge $-1 $132 $132 $213 $214 reversed $83 $-1 #
face $-1 $-1 $215 $47 $-1 $216 forward single #
loop $-1 $217 $218 $85 #
cone-surface $-1 -36.552743345878618 -27.419292725900668 6.9144389554344166 0 0.77714596973225614 -0.62932038083071107 0.5 0 0 1 I I -0.70710678118654746 0.70710678118654746 0.5 forward I I I I #
loop $-1 $-1 $219 $61 #
coedge $-1 $137 $137 $220 $221 reversed $86 $-1 #
face $-1 $222 $223 $48 $-1 $224 reversed single #
loop $-1 $-1 $225 $88 #
plane-surface $-1 -31.286860235811787 -14.959436645541174 47.198340957281644 0 0.68199836817093118 0.7313536940579346 1 0 0 forward_v I I I I #
coedge $-1 $226 $227 $228 $229 reversed $89 $-1 #
face $-1 $-1 $230 $49 $-1 $231 forward single #
loop $-1 $232 $233 $91 #
cone-surface $-1 -36.55123046189626 24.626570785493143 4.2755328350897166 0 -0.68199836817093118 -0.7313536940579346 0.5 0 0 1 I I -0.70710678118654746 0.70710678118654746 0.5 forward I I I I #
loop $-1 $-1 $234 $63 #
coedge $-1 $146 $146 $235 $236 reversed $92 $-1 #
face $-1 $-1 $237 $50 $-1 $238 forward single #
loop $-1 $239 $240 $94 #
cone-surface $-1 -31.286860235811787 24.626570785493143 4.2755328350897166 0 -0.68199836817093118 -0.7313536940579346 0.5 0 0 1 I I -0.70710678118654746 0.70710678118654746 0.5 forward I I I I #
loop $-1 $-1 $241 $64 #
coedge $-1 $151 $151 $242 $243 reversed $95 $-1 #
face $-1 $-1 $244 $51 $-1 $245 forward single #
loop $-1 $246 $247 $97 #
cone-surface $-1 -26.022490009727321 24.626570785493143 4.2755328350897166 0 -0.68199836817093118 -0.7313536940579346 0.5 0 0 1 I I -0.70710678118654746 0.70710678118654746 0.5 forward I I I I #
loop $-1 $-1 $248 $65 #
coedge $-1 $156 $156 $249 $250 reversed $98 $-1 #
face $-1 $251 $252 $52 $-1 $253 reversed single #
loop $-1 $-1 $254 $100 #
plane-surface $-1 31.286860235811815 -14.959436645541174 47.198340957281644 0 0.68199836817093118 0.7313536940579346 1 0 0 forward_v I I I I #
coedge $-1 $255 $256 $257 $258 reversed $101 $-1 #
face $-1 $-1 $259 $53 $-1 $260 forward single #
loop $-1 $261 $262 $103 #
cone-surface $-1 26.022490009727335 24.626570785493143 4.2755328350897166 0 -0.68199836817093118 -0.7313536940579346 0.5 0 0 1 I I -0.70710678118654746 0.70710678118654746 0.5 forward I I I I #
loop $-1 $-1 $263 $67 #
coedge $-1 $165 $165 $264 $265 reversed $104 $-1 #
face $-1 $-1 $266 $54 $-1 $267 forward single #
loop $-1 $268 $269 $106 #
cone-surface $-1 31.286860235811815 24.626570785493143 4.2755328350897166 0 -0.68199836817093118 -0.7313536940579346 0.5 0 0 1 I I -0.70710678118654746 0.70710678118654746 0.5 forward I I I I #
loop $-1 $-1 $270 $68 #
coedge $-1 $170 $170 $271 $272 reversed $107 $-1 #
face $-1 $-1 $273 $55 $-1 $274 forward single #
loop $-1 $275 $276 $109 #
cone-surface $-1 36.551230461896267 24.626570785493143 4.2755328350897166 0 -0.68199836817093118 -0.7313536940579346 0.5 0 0 1 I I -0.70710678118654746 0.70710678118654746 0.5 forward I I I I #
loop $-1 $-1 $277 $69 #
coedge $-1 $175 $175 $278 $279 reversed $110 $-1 #
face $-1 $280 $281 $42 $-1 $282 reversed single #
loop $-1 $-1 $283 $112 #
plane-surface $-1 0 -32.330230788956165 0 0 1 0 0 0 1 forward_v I I I I #
coedge $-1 $284 $285 $286 $287 forward $113 $-1 #
coedge $-1 $288 $115 $289 $290 forward $71 $-1 #
coedge $-1 $115 $288 $291 $292 forward $71 $-1 #
coedge $-1 $293 $294 $115 $183 reversed $295 $-1 #
edge $-1 $296 -32.330230788956165 $297 32.330230788956165 $182 $298 forward 7 unknown #
face $-1 $299 $300 $43 $-1 $301 reversed single #
loop $-1 $-1 $190 $116 #
plane-surface $-1 -74.350087108672184 0 -6.6306323868389079 0 0 1 1 0 0 forward_v I I I I #
coedge $-1 $302 $303 $189 $304 forward $117 $-1 #
coedge $-1 $305 $119 $306 $307 reversed $74 $-1 #
coedge $-1 $119 $305 $187 $304 reversed $74 $-1 #
coedge $-1 $308 $309 $119 $191 reversed $185 $-1 #
edge $-1 $310 -32.330230788956165 $311 32.330230788956165 $190 $312 forward 7 unknown #
face $-1 $313 $314 $44 $-1 $315 reversed single #
loop $-1 $-1 $316 $120 #
plane-surface $-1 74.35008710867217 0 -6.6306323868389079 0 0 1 1 0 0 forward_v I I I I #
coedge $-1 $317 $318 $196 $319 forward $121 $-1 #
coedge $-1 $320 $123 $195 $319 reversed $77 $-1 #
coedge $-1 $123 $320 $321 $322 reversed $77 $-1 #
coedge $-1 $323 $324 $123 $199 reversed $193 $-1 #
edge $-1 $325 -32.330230788956165 $326 32.330230788956165 $198 $327 forward 7 unknown #
face $-1 $328 $329 $45 $-1 $330 forward single #
loop $-1 $-1 $331 $124 #
plane-surface $-1 -52.72931276651132 -136.69030678544908 90.652243489854456 1 0 0 0 0.77714596973225614 -0.62932038083071107 forward_v I I I I #
coedge $-1 $332 $333 $334 $335 reversed $125 $-1 #
coedge $-1 $205 $127 $336 $337 reversed $80 $-1 #
coedge $-1 $127 $204 $332 $338 reversed $80 $-1 #
coedge $-1 $334 $339 $127 $207 forward $329 $-1 #
edge $-1 $340 36.014922603768376 $341 40.659280423701802 $206 $342 forward 7 unknown #
loop $-1 $-1 $213 $128 #
plane-surface $-1 -41.405714172068429 -32.330230788956143 6.1431225170445742 0 -0.77714596973225614 0.62932038083071107 1 0 0 forward_v I I I I #
loop $-1 $-1 $343 $82 #
coedge $-1 $211 $211 $212 $344 reversed $129 $-1 #
coedge $-1 $212 $212 $211 $344 forward $131 $-1 #
coedge $-1 $213 $213 $132 $214 forward $208 $-1 #
edge $-1 $345 -1.5155557168024059e-015 $345 6.2831853071795987 $213 $346 forward 7 unknown #
loop $-1 $-1 $220 $133 #
plane-surface $-1 -41.405714172068429 -32.330230788956143 6.1431225170445742 0 -0.77714596973225614 0.62932038083071107 1 0 0 forward_v I I I I #
loop $-1 $-1 $347 $85 #
coedge $-1 $218 $218 $219 $348 reversed $134 $-1 #
coedge $-1 $219 $219 $218 $348 forward $136 $-1 #
coedge $-1 $220 $220 $137 $221 forward $215 $-1 #
edge $-1 $349 -1.5155557168024059e-015 $349 6.2831853071795987 $220 $350 forward 7 unknown #
face $-1 $351 $352 $48 $-1 $353 reversed single #
loop $-1 $-1 $354 $138 #
plane-surface $-1 -22.512909859004338 76.623617637457102 145.40914055584 -1 0 0 0 0.68199836817093118 0.7313536940579346 forward_v I I I I #
coedge $-1 $355 $356 $357 $358 reversed $139 $-1 #
coedge $-1 $227 $141 $359 $360 reversed $89 $-1 #
coedge $-1 $141 $226 $355 $361 reversed $89 $-1 #
coedge $-1 $357 $362 $141 $229 forward $363 $-1 #
edge $-1 $364 5.9815780297723862 $365 15.39527567007719 $228 $366 forward 7 unknown #
loop $-1 $-1 $235 $142 #
plane-surface $-1 -31.286860235811787 -14.959436645541174 47.198340957281644 0 0.68199836817093118 0.7313536940579346 1 0 0 forward_v I I I I #
loop $-1 $-1 $367 $91 #
coedge $-1 $233 $233 $234 $368 reversed $143 $-1 #
coedge $-1 $234 $234 $233 $368 forward $145 $-1 #
coedge $-1 $235 $235 $146 $236 forward $230 $-1 #
edge $-1 $369 2.5185900642420196e-015 $369 6.2831853071796031 $235 $370 forward 7 unknown #
loop $-1 $-1 $242 $147 #
plane-surface $-1 -31.286860235811787 -14.959436645541174 47.198340957281644 0 0.68199836817093118 0.7313536940579346 1 0 0 forward_v I I I I #
loop $-1 $-1 $371 $94 #
coedge $-1 $240 $240 $241 $372 reversed $148 $-1 #
coedge $-1 $241 $241 $240 $372 forward $150 $-1 #
coedge $-1 $242 $242 $151 $243 forward $237 $-1 #
edge $-1 $373 2.5185900642420196e-015 $373 6.2831853071796031 $242 $374 forward 7 unknown #
loop $-1 $-1 $249 $152 #
plane-surface $-1 -31.286860235811787 -14.959436645541174 47.198340957281644 0 0.68199836817093118 0.7313536940579346 1 0 0 forward_v I I I I #
loop $-1 $-1 $375 $97 #
coedge $-1 $247 $247 $248 $376 reversed $153 $-1 #
coedge $-1 $248 $248 $247 $376 forward $155 $-1 #
coedge $-1 $249 $249 $156 $250 forward $244 $-1 #
edge $-1 $377 2.5185900642420196e-015 $377 6.2831853071796031 $249 $378 forward 7 unknown #
face $-1 $379 $380 $52 $-1 $381 forward single #
loop $-1 $-1 $382 $157 #
plane-surface $-1 40.060810612619264 76.623617637457102 145.40914055584 -1 0 0 0 0.68199836817093118 0.7313536940579346 forward_v I I I I #
coedge $-1 $383 $384 $385 $386 reversed $158 $-1 #
coedge $-1 $256 $160 $387 $388 reversed $101 $-1 #
coedge $-1 $160 $255 $383 $389 reversed $101 $-1 #
coedge $-1 $385 $390 $160 $258 forward $380 $-1 #
edge $-1 $391 5.9815780297723862 $392 15.39527567007719 $257 $393 forward 7 unknown #
loop $-1 $-1 $264 $161 #
plane-surface $-1 31.286860235811815 -14.959436645541174 47.198340957281644 0 0.68199836817093118 0.7313536940579346 1 0 0 forward_v I I I I #
loop $-1 $-1 $394 $103 #
coedge $-1 $262 $262 $263 $395 reversed $162 $-1 #
coedge $-1 $263 $263 $262 $395 forward $164 $-1 #
coedge $-1 $264 $264 $165 $265 forward $259 $-1 #
edge $-1 $396 2.5185900642420196e-015 $396 6.2831853071796031 $264 $397 forward 7 unknown #
loop $-1 $-1 $271 $166 #
plane-surface $-1 31.286860235811815 -14.959436645541174 47.198340957281644 0 0.68199836817093118 0.7313536940579346 1 0 0 forward_v I I I I #
loop $-1 $-1 $398 $106 #
coedge $-1 $269 $269 $270 $399 reversed $167 $-1 #
coedge $-1 $270 $270 $269 $399 forward $169 $-1 #
coedge $-1 $271 $271 $170 $272 forward $266 $-1 #
edge $-1 $400 2.5185900642420196e-015 $400 6.2831853071796031 $271 $401 forward 7 unknown #
loop $-1 $-1 $278 $171 #
plane-surface $-1 31.286860235811815 -14.959436645541174 47.198340957281644 0 0.68199836817093118 0.7313536940579346 1 0 0 forward_v I I I I #
loop $-1 $-1 $402 $109 #
coedge $-1 $276 $276 $277 $403 reversed $172 $-1 #
coedge $-1 $277 $277 $276 $403 forward $174 $-1 #
coedge $-1 $278 $278 $175 $279 forward $273 $-1 #
edge $-1 $404 2.5185900642420196e-015 $404 6.2831853071796031 $278 $405 forward 7 unknown #
face $-1 $406 $407 $42 $-1 $408 reversed single #
loop $-1 $-1 $409 $176 #
plane-surface $-1 -67.143162327951899 0 0 1 0 0 0 0 -1 forward_v I I I I #
coedge $-1 $410 $291 $409 $411 forward $177 $-1 #
coedge $-1 $412 $179 $410 $413 forward $113 $-1 #
coedge $-1 $179 $412 $414 $415 forward $113 $-1 #
coedge $-1 $294 $293 $179 $287 reversed $295 $-1 #
edge $-1 $416 -32.330230788956165 $417 32.330230788956165 $286 $418 forward 7 unknown #
coedge $-1 $181 $180 $419 $420 forward $71 $-1 #
coedge $-1 $421 $422 $180 $290 reversed $407 $-1 #
edge $-1 $297 -67.143162327951899 $423 67.143162327951899 $289 $424 forward 7 unknown #
coedge $-1 $283 $425 $181 $292 reversed $177 $-1 #
edge $-1 $426 -67.143162327951899 $296 67.143162327951899 $291 $427 forward 7 unknown #
coedge $-1 $286 $182 $425 $428 forward $295 $-1 #
coedge $-1 $182 $286 $421 $429 reversed $295 $-1 #
loop $-1 $-1 $294 $406 #
vertex $-1 $183 $430 #
vertex $-1 $183 $431 #
straight-curve $-1 67.143162327951899 0 11.878426937014812 0 1 0 I I #
face $-1 $432 $433 $43 $-1 $434 reversed single #
loop $-1 $-1 $435 $184 #
plane-surface $-1 -81.55701188939247 0 -9.2545296619268598 1 0 0 0 0 -1 forward_v I I I I #
coedge $-1 $436 $187 $437 $438 reversed $117 $-1 #
coedge $-1 $187 $436 $308 $439 reversed $117 $-1 #
edge $-1 $310 6.6306323868389079 $440 11.878426937014812 $187 $441 forward 7 unknown #
coedge $-1 $189 $188 $442 $443 reversed $74 $-1 #
coedge $-1 $444 $445 $188 $307 forward $446 $-1 #
edge $-1 $447 -11.878426937014812 $311 -6.6306323868389079 $306 $448 forward 7 unknown #
coedge $-1 $449 $190 $303 $439 forward $185 $-1 #
coedge $-1 $190 $449 $444 $450 forward $185 $-1 #
vertex $-1 $304 $451 #
vertex $-1 $450 $452 #
straight-curve $-1 -67.143162327951899 0 -6.6306323868389079 0 -1 0 I I #
face $-1 $453 $454 $44 $-1 $455 reversed single #
loop $-1 $-1 $456 $192 #
plane-surface $-1 81.557011889392456 0 -9.2545296619268598 -1 0 0 0 0 1 forward_v I I I I #
coedge $-1 $324 $323 $457 $458 forward $193 $-1 #
coedge $-1 $459 $195 $324 $460 reversed $121 $-1 #
coedge $-1 $195 $459 $461 $462 reversed $121 $-1 #
edge $-1 $463 -11.878426937014812 $326 -6.6306323868389079 $195 $464 forward 7 unknown #
coedge $-1 $197 $196 $465 $466 reversed $77 $-1 #
coedge $-1 $467 $468 $197 $322 forward $469 $-1 #
edge $-1 $325 6.6306323868389079 $470 11.878426937014812 $321 $471 forward 7 unknown #
coedge $-1 $316 $198 $468 $472 forward $193 $-1 #
coedge $-1 $198 $316 $317 $460 forward $193 $-1 #
vertex $-1 $322 $473 #
vertex $-1 $460 $474 #
straight-curve $-1 67.143162327951899 0 -6.6306323868389079 0 1 0 I I #
face $-1 $-1 $475 $45 $-1 $476 reversed single #
loop $-1 $-1 $206 $200 #
plane-surface $-1 0 0 11.878426937014812 0 0 1 1 0 0 forward_v I I I I #
coedge $-1 $477 $478 $479 $480 reversed $201 $-1 #
coedge $-1 $481 $203 $205 $338 forward $125 $-1 #
coedge $-1 $203 $481 $477 $482 forward $125 $-1 #
coedge $-1 $479 $206 $203 $335 forward $329 $-1 #
edge $-1 $341 9.3792584915913224 $483 32.026455680477106 $334 $484 forward 7 unknown #
coedge $-1 $485 $486 $204 $337 forward $475 $-1 #
edge $-1 $487 -39.182999227882682 $340 -33.447694807912413 $336 $488 forward 7 unknown #
edge $-1 $341 -7.3799577471220434 $487 3.4122099130144743e-014 $205 $489 forward 7 unknown #
coedge $-1 $206 $479 $485 $490 forward $329 $-1 #
vertex $-1 $337 $491 #
vertex $-1 $207 $492 #
straight-curve $-1 -30.082115577625537 -68.345153392724541 11.878426937014815 0 1 0 I I #
coedge $-1 $343 $343 $-1 $493 reversed $210 $-1 #
edge $-1 $494 0 $494 6.2831853071796004 $211 $495 forward 7 unknown #
vertex $-1 $214 $496 #
ellipse-curve $-1 -46.258684998258239 -30.008051878989448 9.0107747270296841 0 -0.77714596973225614 0.62932038083071107 1 0 0 1 I I #
coedge $-1 $347 $347 $-1 $497 reversed $217 $-1 #
edge $-1 $498 0 $498 6.2831853071796004 $218 $499 forward 7 unknown #
vertex $-1 $221 $500 #
ellipse-curve $-1 -36.552743345878618 -30.008051878989448 9.0107747270296841 0 -0.77714596973225614 0.62932038083071107 1 0 0 1 I I #
face $-1 $-1 $363 $48 $-1 $501 forward single #
loop $-1 $-1 $502 $222 #
plane-surface $-1 0 32.330230788956165 0 0 -1 0 0 0 -1 forward_v I I I I #
coedge $-1 $503 $504 $505 $506 reversed $223 $-1 #
coedge $-1 $507 $225 $227 $361 forward $139 $-1 #
coedge $-1 $225 $507 $503 $508 forward $139 $-1 #
coedge $-1 $505 $228 $225 $358 forward $363 $-1 #
edge $-1 $365 -24.417380494713342 $509 -6.8694797410984449 $357 $510 forward 7 unknown #
coedge $-1 $511 $512 $226 $360 forward $352 $-1 #
edge $-1 $513 -69.604558601953769 $364 -60.82614334090519 $359 $514 forward 7 unknown #
edge $-1 $365 51.788854150769041 $513 64.660461577912344 $227 $515 forward 7 unknown #
coedge $-1 $228 $505 $511 $516 forward $363 $-1 #
loop $-1 $-1 $505 $351 #
vertex $-1 $360 $517 #
vertex $-1 $229 $518 #
straight-curve $-1 -40.060810612619235 38.311808818728551 11.878426937014808 0 -1 0 I I #
coedge $-1 $367 $367 $-1 $519 reversed $232 $-1 #
edge $-1 $520 0 $520 6.2831853071796004 $233 $521 forward 7 unknown #
vertex $-1 $236 $522 #
ellipse-curve $-1 -36.55123046189626 27.623381968803756 7.489219306490523 0 0.68199836817093118 0.7313536940579346 1 0 0 1 I I #
coedge $-1 $371 $371 $-1 $523 reversed $239 $-1 #
edge $-1 $524 0 $524 6.2831853071796004 $240 $525 forward 7 unknown #
vertex $-1 $243 $526 #
ellipse-curve $-1 -31.286860235811787 27.623381968803756 7.489219306490523 0 0.68199836817093118 0.7313536940579346 1 0 0 1 I I #
coedge $-1 $375 $375 $-1 $527 reversed $246 $-1 #
edge $-1 $528 0 $528 6.2831853071796004 $247 $529 forward 7 unknown #
vertex $-1 $250 $530 #
ellipse-curve $-1 -26.022490009727321 27.623381968803756 7.489219306490523 0 0.68199836817093118 0.7313536940579346 1 0 0 1 I I #
face $-1 $-1 $531 $52 $-1 $532 reversed single #
loop $-1 $-1 $257 $251 #
plane-surface $-1 0 0 11.878426937014812 0 0 1 1 0 0 forward_v I I I I #
coedge $-1 $533 $534 $535 $536 reversed $252 $-1 #
coedge $-1 $537 $254 $256 $389 forward $158 $-1 #
coedge $-1 $254 $537 $533 $538 forward $158 $-1 #
coedge $-1 $535 $257 $254 $386 forward $380 $-1 #
edge $-1 $392 6.8694797410984592 $539 24.417380494713356 $385 $540 forward 7 unknown #
coedge $-1 $541 $542 $255 $388 forward $531 $-1 #
edge $-1 $543 -69.604558601953769 $391 -60.82614334090519 $387 $544 forward 7 unknown #
edge $-1 $392 51.788854150769041 $543 64.660461577912344 $256 $545 forward 7 unknown #
coedge $-1 $257 $535 $541 $546 forward $380 $-1 #
vertex $-1 $258 $547 #
vertex $-1 $258 $548 #
straight-curve $-1 22.512909859004367 38.311808818728551 11.878426937014808 0 -1 0 I I #
coedge $-1 $394 $394 $-1 $549 reversed $261 $-1 #
edge $-1 $550 0 $550 6.2831853071796004 $262 $551 forward 7 unknown #
vertex $-1 $265 $552 #
ellipse-curve $-1 26.022490009727335 27.623381968803756 7.489219306490523 0 0.68199836817093118 0.7313536940579346 1 0 0 1 I I #
coedge $-1 $398 $398 $-1 $553 reversed $268 $-1 #
edge $-1 $554 0 $554 6.2831853071796004 $269 $555 forward 7 unknown #
vertex $-1 $272 $556 #
ellipse-curve $-1 31.286860235811815 27.623381968803756 7.489219306490523 0 0.68199836817093118 0.7313536940579346 1 0 0 1 I I #
coedge $-1 $402 $402 $-1 $557 reversed $275 $-1 #
edge $-1 $558 0 $558 6.2831853071796004 $276 $559 forward 7 unknown #
vertex $-1 $279 $560 #
ellipse-curve $-1 36.551230461896267 27.623381968803756 7.489219306490523 0 0.68199836817093118 0.7313536940579346 1 0 0 1 I I #
face $-1 $-1 $295 $42 $-1 $561 reversed single #
loop $-1 $-1 $421 $280 #
plane-surface $-1 0 32.330230788956165 0 0 -1 0 0 0 -1 forward_v I I I I #
coedge $-1 $419 $562 $283 $411 reversed $281 $-1 #
coedge $-1 $425 $283 $284 $413 reversed $177 $-1 #
edge $-1 $426 -11.878426937014812 $563 11.878426937014812 $409 $564 forward 7 unknown #
coedge $-1 $285 $284 $562 $565 forward $113 $-1 #
edge $-1 $417 -67.143162327951899 $563 67.143162327951899 $410 $566 forward 7 unknown #
coedge $-1 $422 $421 $285 $415 reversed $407 $-1 #
edge $-1 $567 -67.143162327951899 $416 67.143162327951899 $414 $568 forward 7 unknown #
vertex $-1 $287 $569 #
vertex $-1 $428 $570 #
straight-curve $-1 67.143162327951899 0 -11.878426937014812 0 -1 0 I I #
coedge $-1 $571 $409 $288 $420 reversed $281 $-1 #
edge $-1 $423 -32.330230788956165 $426 32.330230788956165 $419 $572 forward 7 unknown #
coedge $-1 $414 $289 $294 $429 forward $407 $-1 #
coedge $-1 $289 $414 $571 $573 reversed $407 $-1 #
vertex $-1 $290 $574 #
straight-curve $-1 0 32.330230788956165 11.878426937014812 -1 0 0 I I #
coedge $-1 $291 $410 $293 $428 reversed $177 $-1 #
vertex $-1 $420 $575 #
straight-curve $-1 0 -32.330230788956165 11.878426937014812 1 0 0 I I #
edge $-1 $296 -11.878426937014812 $417 11.878426937014812 $293 $576 forward 7 unknown #
edge $-1 $297 -11.878426937014812 $416 11.878426937014812 $294 $577 forward 7 unknown #
point $-1 67.143162327951899 -32.330230788956165 11.878426937014812 #
point $-1 67.143162327951899 32.330230788956165 11.878426937014812 #
face $-1 $-1 $446 $43 $-1 $578 reversed single #
loop $-1 $-1 $442 $299 #
plane-surface $-1 0 0 -11.878426937014812 0 0 1 1 0 0 forward_v I I I I #
coedge $-1 $579 $580 $436 $581 forward $300 $-1 #
coedge $-1 $303 $302 $435 $581 reversed $117 $-1 #
coedge $-1 $442 $582 $302 $438 forward $433 $-1 #
edge $-1 $583 -81.55701188939247 $440 -67.143162327951899 $302 $584 forward 7 unknown #
edge $-1 $310 -7.2069247807202856 $585 7.2069247807202856 $303 $586 forward 7 unknown #
vertex $-1 $304 $587 #
straight-curve $-1 -67.143162327951899 32.330230788956165 0 0 0 -1 I I #
coedge $-1 $588 $437 $305 $443 forward $433 $-1 #
edge $-1 $440 -32.330230788956165 $447 32.330230788956165 $442 $589 forward 7 unknown #
coedge $-1 $590 $306 $309 $450 reversed $446 $-1 #
coedge $-1 $306 $590 $588 $591 reversed $446 $-1 #
loop $-1 $-1 $306 $432 #
vertex $-1 $591 $592 #
straight-curve $-1 -67.143162327951899 -32.330230788956165 0 0 0 1 I I #
coedge $-1 $309 $308 $580 $593 forward $185 $-1 #
edge $-1 $594 -7.2069247807202856 $311 7.2069247807202856 $444 $595 forward 7 unknown #
point $-1 -67.143162327951899 32.330230788956165 -6.6306323868389079 #
point $-1 -67.143162327951899 -32.330230788956165 -6.6306323868389079 #
face $-1 $-1 $469 $44 $-1 $596 reversed single #
loop $-1 $-1 $465 $313 #
plane-surface $-1 0 0 -11.878426937014812 0 0 1 1 0 0 forward_v I I I I #
coedge $-1 $597 $457 $598 $599 forward $314 $-1 #
coedge $-1 $456 $600 $316 $458 reversed $314 $-1 #
edge $-1 $601 -32.330230788956165 $602 32.330230788956165 $457 $603 forward 7 unknown #
coedge $-1 $318 $317 $600 $604 forward $121 $-1 #
edge $-1 $602 -7.2069247807202856 $326 7.2069247807202856 $317 $605 forward 7 unknown #
coedge $-1 $606 $465 $318 $462 forward $454 $-1 #
edge $-1 $463 -7.2069247807202714 $607 7.2069247807202856 $318 $608 forward 7 unknown #
vertex $-1 $462 $609 #
straight-curve $-1 67.143162327951899 32.330230788956165 0 0 0 1 I I #
coedge $-1 $461 $610 $320 $466 forward $454 $-1 #
edge $-1 $470 -32.330230788956165 $463 32.330230788956165 $465 $611 forward 7 unknown #
coedge $-1 $598 $321 $610 $612 reversed $469 $-1 #
coedge $-1 $321 $598 $323 $472 reversed $469 $-1 #
loop $-1 $-1 $321 $453 #
vertex $-1 $322 $613 #
straight-curve $-1 67.143162327951899 -32.330230788956165 0 0 0 -1 I I #
edge $-1 $325 -7.2069247807202856 $601 7.2069247807202856 $468 $614 forward 7 unknown #
point $-1 67.143162327951885 -32.330230788956165 -6.6306323868389079 #
point $-1 67.143162327951885 32.330230788956165 -6.6306323868389079 #
loop $-1 $-1 $336 $328 #
plane-surface $-1 0 -32.330230788956165 0 0 1 0 0 0 1 forward_v I I I I #
coedge $-1 $478 $331 $333 $482 reversed $201 $-1 #
coedge $-1 $331 $477 $615 $616 reversed $201 $-1 #
coedge $-1 $339 $334 $331 $480 forward $329 $-1 #
edge $-1 $483 -40.659280423701802 $617 -36.014922603768376 $479 $618 forward 7 unknown #
coedge $-1 $333 $332 $486 $619 reversed $125 $-1 #
edge $-1 $620 -3.4122099130144743e-014 $483 7.3799577471220434 $477 $621 forward 7 unknown #
vertex $-1 $335 $622 #
straight-curve $-1 -20.702857086034214 -27.685872969022739 11.878426937014812 -1 0 0 I I #
coedge $-1 $615 $336 $339 $490 reversed $475 $-1 #
coedge $-1 $336 $615 $481 $619 forward $475 $-1 #
vertex $-1 $337 $623 #
straight-curve $-1 -30.082115577625537 -32.330230788956165 45.326121744927228 0 0 1 I I #
straight-curve $-1 -30.082115577625537 -32.330230788956143 6.1431225170445742 0 -0.62932038083071107 -0.77714596973225614 I I #
edge $-1 $617 -52.72931276651132 $340 -30.082115577625537 $485 $624 forward 7 unknown #
point $-1 -30.082115577625537 -32.330230788956165 11.878426937014812 #
point $-1 -30.082115577625537 -27.685872969022743 11.878426937014812 #
edge $-1 $625 1 $625 0 $343 $-1 forward 7 unknown #
vertex $-1 $344 $626 #
ellipse-curve $-1 -46.258684998258239 -27.807865710766794 7.229099145849772 0 -0.77714596973225614 0.62932038083071107 1 0 0 1 I I #
point $-1 -45.258684998258239 -30.008051878989466 9.0107747270296965 #
edge $-1 $627 1 $627 0 $347 $-1 forward 7 unknown #
vertex $-1 $348 $628 #
ellipse-curve $-1 -36.552743345878618 -27.807865710766794 7.229099145849772 0 -0.77714596973225614 0.62932038083071107 1 0 0 1 I I #
point $-1 -35.552743345878618 -30.008051878989466 9.0107747270296965 #
plane-surface $-1 0 0 11.878426937014812 0 0 1 1 0 0 forward_v I I I I #
coedge $-1 $512 $511 $504 $629 forward $352 $-1 #
coedge $-1 $504 $354 $356 $508 reversed $223 $-1 #
coedge $-1 $354 $503 $502 $629 reversed $223 $-1 #
coedge $-1 $362 $357 $354 $506 forward $363 $-1 #
edge $-1 $509 -15.39527567007719 $630 -5.9815780297723862 $505 $631 forward 7 unknown #
coedge $-1 $356 $355 $512 $632 reversed $139 $-1 #
edge $-1 $633 -64.660461577912344 $509 -51.788854150769041 $503 $634 forward 7 unknown #
vertex $-1 $358 $635 #
straight-curve $-1 -15.643430117905893 22.91653314865135 11.878426937014812 1 0 0 I I #
coedge $-1 $502 $359 $362 $516 reversed $352 $-1 #
coedge $-1 $359 $502 $507 $632 forward $352 $-1 #
vertex $-1 $360 $636 #
straight-curve $-1 -40.060810612619235 32.330230788956165 72.704570277919998 0 0 1 I I #
straight-curve $-1 -40.060810612619235 -14.959436645541174 47.198340957281644 0 0.7313536940579346 -0.68199836817093118 I I #
edge $-1 $630 22.512909859004338 $364 40.060810612619235 $511 $637 forward 7 unknown #
point $-1 -40.060810612619235 32.330230788956165 11.878426937014812 #
point $-1 -40.060810612619235 22.916533148651361 11.878426937014808 #
edge $-1 $638 1 $638 0 $367 $-1 forward 7 unknown #
vertex $-1 $368 $639 #
ellipse-curve $-1 -36.55123046189626 24.967569969578609 4.6412096821186841 0 0.68199836817093118 0.7313536940579346 1 0 0 1 I I #
point $-1 -35.55123046189626 27.62338196880377 7.4892193064905346 #
edge $-1 $640 1 $640 0 $371 $-1 forward 7 unknown #
vertex $-1 $372 $641 #
ellipse-curve $-1 -31.286860235811787 24.967569969578609 4.6412096821186841 0 0.68199836817093118 0.7313536940579346 1 0 0 1 I I #
point $-1 -30.286860235811787 27.62338196880377 7.4892193064905346 #
edge $-1 $642 1 $642 0 $375 $-1 forward 7 unknown #
vertex $-1 $376 $643 #
ellipse-curve $-1 -26.022490009727321 24.967569969578609 4.6412096821186841 0 0.68199836817093118 0.7313536940579346 1 0 0 1 I I #
point $-1 -25.022490009727321 27.62338196880377 7.4892193064905346 #
loop $-1 $-1 $387 $379 #
plane-surface $-1 0 32.330230788956165 0 0 -1 0 0 0 -1 forward_v I I I I #
coedge $-1 $534 $382 $384 $538 reversed $252 $-1 #
coedge $-1 $382 $533 $644 $645 reversed $252 $-1 #
coedge $-1 $390 $385 $382 $536 forward $380 $-1 #
edge $-1 $539 -15.39527567007719 $646 -5.9815780297723862 $535 $647 forward 7 unknown #
coedge $-1 $384 $383 $542 $648 reversed $158 $-1 #
edge $-1 $649 -64.660461577912344 $539 -51.788854150769041 $533 $650 forward 7 unknown #
vertex $-1 $386 $651 #
straight-curve $-1 15.643430117905908 22.91653314865135 11.878426937014812 1 0 0 I I #
coedge $-1 $644 $387 $390 $546 reversed $531 $-1 #
coedge $-1 $387 $644 $537 $648 forward $531 $-1 #
vertex $-1 $388 $652 #
straight-curve $-1 22.512909859004367 32.330230788956165 72.704570277919998 0 0 1 I I #
straight-curve $-1 22.512909859004367 -14.959436645541174 47.198340957281644 0 0.7313536940579346 -0.68199836817093118 I I #
edge $-1 $646 -40.060810612619264 $391 -22.512909859004367 $541 $653 forward 7 unknown #
point $-1 22.512909859004367 32.330230788956165 11.878426937014812 #
point $-1 22.512909859004367 22.916533148651361 11.878426937014808 #
edge $-1 $654 1 $654 0 $394 $-1 forward 7 unknown #
vertex $-1 $395 $655 #
ellipse-curve $-1 26.022490009727335 24.967569969578609 4.6412096821186841 0 0.68199836817093118 0.7313536940579346 1 0 0 1 I I #
point $-1 27.022490009727335 27.62338196880377 7.4892193064905346 #
edge $-1 $656 1 $656 0 $398 $-1 forward 7 unknown #
vertex $-1 $399 $657 #
ellipse-curve $-1 31.286860235811815 24.967569969578609 4.6412096821186841 0 0.68199836817093118 0.7313536940579346 1 0 0 1 I I #
point $-1 32.286860235811815 27.62338196880377 7.4892193064905346 #
edge $-1 $658 1 $658 0 $402 $-1 forward 7 unknown #
vertex $-1 $403 $659 #
ellipse-curve $-1 36.551230461896267 24.967569969578609 4.6412096821186841 0 0.68199836817093118 0.7313536940579346 1 0 0 1 I I #
point $-1 37.551230461896267 27.62338196880377 7.4892193064905346 #
plane-surface $-1 67.143162327951899 0 0 -1 0 0 0 0 1 forward_v I I I I #
coedge $-1 $409 $571 $412 $565 reversed $281 $-1 #
vertex $-1 $565 $660 #
straight-curve $-1 -67.143162327951899 -32.330230788956165 0 0 0 -1 I I #
edge $-1 $563 -32.330230788956165 $567 32.330230788956165 $562 $661 forward 7 unknown #
straight-curve $-1 0 -32.330230788956165 -11.878426937014812 -1 0 0 I I #
vertex $-1 $415 $662 #
straight-curve $-1 0 32.330230788956165 -11.878426937014812 1 0 0 I I #
point $-1 67.143162327951899 32.330230788956165 -11.878426937014812 #
point $-1 67.143162327951899 -32.330230788956165 -11.878426937014812 #
coedge $-1 $562 $419 $422 $573 forward $281 $-1 #
straight-curve $-1 -67.143162327951899 0 11.878426937014812 0 -1 0 I I #
edge $-1 $423 -11.878426937014812 $567 11.878426937014812 $422 $663 forward 7 unknown #
point $-1 -67.143162327951899 32.330230788956165 11.878426937014812 #
point $-1 -67.143162327951899 -32.330230788956165 11.878426937014812 #
straight-curve $-1 67.143162327951899 -32.330230788956165 0 0 0 -1 I I #
straight-curve $-1 67.143162327951899 32.330230788956165 0 0 0 -1 I I #
plane-surface $-1 0 -32.330230788956165 0 0 1 0 0 0 1 forward_v I I I I #
coedge $-1 $664 $435 $582 $665 reversed $300 $-1 #
coedge $-1 $435 $664 $449 $593 reversed $300 $-1 #
edge $-1 $585 -2.6238972750879519 $583 2.6238972750879519 $436 $666 forward 7 unknown #
coedge $-1 $437 $588 $579 $665 forward $433 $-1 #
vertex $-1 $438 $667 #
straight-curve $-1 0 32.330230788956165 -11.878426937014812 1 0 0 I I #
vertex $-1 $439 $668 #
straight-curve $-1 -74.350087108672184 32.330230788956165 -6.6306323868389079 -1 0 0 I I #
point $-1 -67.143162327951899 32.330230788956165 -11.878426937014812 #
coedge $-1 $582 $442 $445 $591 forward $433 $-1 #
straight-curve $-1 -67.143162327951899 0 -11.878426937014812 0 -1 0 I I #
coedge $-1 $445 $444 $664 $669 forward $446 $-1 #
edge $-1 $447 -7.2069247807202856 $670 7.2069247807202856 $445 $671 forward 7 unknown #
point $-1 -67.143162327951899 -32.330230788956165 -11.878426937014812 #
edge $-1 $585 -32.330230788956165 $594 32.330230788956165 $580 $672 forward 7 unknown #
vertex $-1 $593 $673 #
straight-curve $-1 -74.350087108672184 -32.330230788956165 -6.6306323868389079 1 0 0 I I #
plane-surface $-1 0 -32.330230788956165 0 0 1 0 0 0 1 forward_v I I I I #
coedge $-1 $600 $456 $606 $674 reversed $314 $-1 #
coedge $-1 $468 $467 $456 $599 reversed $469 $-1 #
edge $-1 $601 -2.6238972750879519 $675 2.6238972750879519 $456 $676 forward 7 unknown #
coedge $-1 $457 $597 $459 $604 reversed $314 $-1 #
vertex $-1 $458 $677 #
vertex $-1 $458 $678 #
straight-curve $-1 81.557011889392456 0 -6.6306323868389079 0 1 0 I I #
edge $-1 $602 -2.6238972750879519 $607 2.6238972750879519 $600 $679 forward 7 unknown #
straight-curve $-1 74.35008710867217 32.330230788956165 -6.6306323868389079 -1 0 0 I I #
coedge $-1 $610 $461 $597 $674 forward $454 $-1 #
vertex $-1 $674 $680 #
straight-curve $-1 74.35008710867217 32.330230788956165 -11.878426937014812 1 0 0 I I #
point $-1 67.143162327951899 32.330230788956165 -11.878426937014812 #
coedge $-1 $465 $606 $467 $612 forward $454 $-1 #
straight-curve $-1 67.143162327951899 0 -11.878426937014812 0 1 0 I I #
edge $-1 $675 -7.2069247807202856 $470 7.2069247807202714 $467 $681 forward 7 unknown #
point $-1 67.143162327951899 -32.330230788956165 -11.878426937014812 #
straight-curve $-1 74.35008710867217 -32.330230788956165 -6.6306323868389079 1 0 0 I I #
coedge $-1 $486 $485 $478 $616 forward $475 $-1 #
edge $-1 $617 33.447694807912413 $620 39.182999227882682 $615 $682 forward 7 unknown #
vertex $-1 $490 $683 #
straight-curve $-1 -52.72931276651132 -68.345153392724541 11.878426937014815 0 -1 0 I I #
edge $-1 $620 -32.026455680477106 $487 -9.3792584915913224 $486 $684 forward 7 unknown #
vertex $-1 $619 $685 #
straight-curve $-1 -52.72931276651132 -32.330230788956143 6.1431225170445742 0 0.62932038083071107 0.77714596973225614 I I #
point $-1 -52.72931276651132 -27.685872969022743 11.878426937014812 #
point $-1 -30.082115577625537 -32.330230788956165 6.1431225170445476 #
straight-curve $-1 0 -32.330230788956165 11.878426937014812 1 0 0 I I #
vertex $-1 $493 $686 #
point $-1 -45.258684998258239 -27.807865710766794 7.229099145849772 #
vertex $-1 $497 $687 #
point $-1 -35.552743345878618 -27.807865710766794 7.229099145849772 #
edge $-1 $630 60.82614334090519 $633 69.604558601953769 $502 $688 forward 7 unknown #
vertex $-1 $516 $689 #
straight-curve $-1 -22.512909859004338 38.311808818728551 11.878426937014808 0 1 0 I I #
edge $-1 $633 6.8694797410984449 $513 24.417380494713342 $512 $690 forward 7 unknown #
vertex $-1 $632 $691 #
straight-curve $-1 -22.512909859004338 -14.959436645541174 47.198340957281644 0 -0.7313536940579346 0.68199836817093118 I I #
point $-1 -22.512909859004338 22.916533148651361 11.878426937014808 #
point $-1 -40.060810612619235 32.330230788956165 3.1000116759662291 #
straight-curve $-1 0 32.330230788956165 11.878426937014812 -1 0 0 I I #
vertex $-1 $519 $692 #
point $-1 -35.55123046189626 24.967569969578609 4.6412096821186841 #
vertex $-1 $523 $693 #
point $-1 -30.286860235811787 24.967569969578609 4.6412096821186841 #
vertex $-1 $527 $694 #
point $-1 -25.022490009727321 24.967569969578609 4.6412096821186841 #
coedge $-1 $542 $541 $534 $645 forward $531 $-1 #
edge $-1 $646 60.82614334090519 $649 69.604558601953769 $644 $695 forward 7 unknown #
vertex $-1 $546 $696 #
straight-curve $-1 40.060810612619264 38.311808818728551 11.878426937014808 0 1 0 I I #
edge $-1 $649 -24.417380494713356 $543 -6.8694797410984592 $542 $697 forward 7 unknown #
vertex $-1 $648 $698 #
straight-curve $-1 40.060810612619264 -14.959436645541174 47.198340957281644 0 -0.7313536940579346 0.68199836817093118 I I #
point $-1 40.060810612619264 22.916533148651361 11.878426937014808 #
point $-1 22.512909859004367 32.330230788956165 3.1000116759662291 #
straight-curve $-1 0 32.330230788956165 11.878426937014812 -1 0 0 I I #
vertex $-1 $549 $699 #
point $-1 27.022490009727335 24.967569969578609 4.6412096821186841 #
vertex $-1 $553 $700 #
point $-1 32.286860235811815 24.967569969578609 4.6412096821186841 #
vertex $-1 $557 $701 #
point $-1 37.551230461896267 24.967569969578609 4.6412096821186841 #
point $-1 -67.143162327951899 -32.330230788956165 -11.878426937014812 #
straight-curve $-1 -67.143162327951899 0 -11.878426937014812 0 1 0 I I #
point $-1 -67.143162327951899 32.330230788956165 -11.878426937014812 #
straight-curve $-1 -67.143162327951899 32.330230788956165 0 0 0 -1 I I #
coedge $-1 $580 $579 $590 $669 reversed $300 $-1 #
edge $-1 $670 -32.330230788956165 $583 32.330230788956165 $579 $702 forward 7 unknown #
straight-curve $-1 -81.55701188939247 32.330230788956165 -9.2545296619268598 0 0 -1 I I #
point $-1 -81.55701188939247 32.330230788956165 -11.878426937014812 #
point $-1 -81.55701188939247 32.330230788956165 -6.6306323868389079 #
edge $-1 $594 -2.6238972750879519 $670 2.6238972750879519 $664 $703 forward 7 unknown #
vertex $-1 $665 $704 #
straight-curve $-1 -74.350087108672184 -32.330230788956165 -11.878426937014812 -1 0 0 I I #
straight-curve $-1 -81.55701188939247 0 -6.6306323868389079 0 -1 0 I I #
point $-1 -81.55701188939247 -32.330230788956165 -6.6306323868389079 #
edge $-1 $607 -32.330230788956165 $675 32.330230788956165 $597 $705 forward 7 unknown #
vertex $-1 $599 $706 #
straight-curve $-1 81.557011889392456 -32.330230788956165 -9.2545296619268598 0 0 -1 I I #
point $-1 81.557011889392456 -32.330230788956165 -6.6306323868389079 #
point $-1 81.557011889392456 32.330230788956165 -6.6306323868389079 #
straight-curve $-1 81.557011889392456 32.330230788956165 -9.2545296619268598 0 0 -1 I I #
point $-1 81.557011889392456 32.330230788956165 -11.878426937014812 #
straight-curve $-1 74.35008710867217 -32.330230788956165 -11.878426937014812 -1 0 0 I I #
straight-curve $-1 -52.72931276651132 -32.330230788956165 45.326121744927228 0 0 -1 I I #
point $-1 -52.72931276651132 -32.330230788956165 11.878426937014812 #
straight-curve $-1 -20.702857086034214 -32.330230788956165 6.1431225170445529 1 0 0 I I #
point $-1 -52.72931276651132 -32.330230788956165 6.1431225170445476 #
point $-1 -46.258684998258239 -27.030719741034542 6.5997787650190611 #
point $-1 -36.552743345878618 -27.030719741034542 6.5997787650190611 #
straight-curve $-1 -22.512909859004338 32.330230788956165 72.704570277919998 0 0 -1 I I #
point $-1 -22.512909859004338 32.330230788956165 11.878426937014812 #
straight-curve $-1 -15.643430117905893 32.330230788956158 3.1000116759662326 -1 0 0 I I #
point $-1 -22.512909859004338 32.330230788956165 3.1000116759662291 #
point $-1 -36.55123046189626 24.285571601407678 3.9098559880607491 #
point $-1 -31.286860235811787 24.285571601407678 3.9098559880607491 #
point $-1 -26.022490009727321 24.285571601407678 3.9098559880607491 #
straight-curve $-1 40.060810612619264 32.330230788956165 72.704570277919998 0 0 -1 I I #
point $-1 40.060810612619264 32.330230788956165 11.878426937014812 #
straight-curve $-1 15.643430117905908 32.330230788956158 3.1000116759662326 -1 0 0 I I #
point $-1 40.060810612619264 32.330230788956165 3.1000116759662291 #
point $-1 26.022490009727335 24.285571601407678 3.9098559880607491 #
point $-1 31.286860235811815 24.285571601407678 3.9098559880607491 #
point $-1 36.551230461896267 24.285571601407678 3.9098559880607491 #
straight-curve $-1 -81.55701188939247 0 -11.878426937014812 0 1 0 I I #
straight-curve $-1 -81.55701188939247 -32.330230788956165 -9.2545296619268598 0 0 -1 I I #
point $-1 -81.55701188939247 -32.330230788956165 -11.878426937014812 #
straight-curve $-1 81.557011889392456 0 -11.878426937014812 0 -1 0 I I #
point $-1 81.557011889392456 -32.330230788956165 -11.878426937014812 #
End-of-ACIS-data 