500 0 15 0           
7 Unknown 11 ACIS 5.0 NT 24 Fri Mar 26 17:31:34 1999 
-1 9.9999999999999995e-007 1e-010 
body $-1 $15 $-1 $16 #
body $-1 $17 $-1 $18 #
body $-1 $19 $-1 $20 #
body $-1 $21 $-1 $22 #
body $-1 $23 $-1 $24 #
body $-1 $25 $-1 $26 #
body $-1 $27 $-1 $28 #
body $-1 $29 $-1 $30 #
body $-1 $31 $-1 $32 #
body $-1 $33 $-1 $34 #
body $-1 $35 $-1 $36 #
body $-1 $37 $-1 $38 #
body $-1 $39 $-1 $40 #
body $-1 $41 $-1 $42 #
body $-1 $43 $-1 $44 #
lump $-1 $-1 $45 $0 #
transform $-1 1 0 0 0 1 0 0 0 1 52.001098666341136 30.326224391456222 14.947375542825849 1 rotate no_reflect no_shear #
lump $-1 $-1 $46 $1 #
transform $-1 1 0 0 0 1 0 0 0 1 52.001098666341136 30.326224391456222 14.947375542825849 1 rotate no_reflect no_shear #
lump $-1 $-1 $47 $2 #
transform $-1 1 0 0 0 1 0 0 0 1 52.001098666341136 30.326224391456222 14.947375542825849 1 rotate no_reflect no_shear #
lump $-1 $-1 $48 $3 #
transform $-1 1 0 0 0 1 0 0 0 1 52.001098666341136 30.326224391456222 14.947375542825849 1 rotate no_reflect no_shear #
lump $-1 $-1 $49 $4 #
transform $-1 1 0 0 0 1 0 0 0 1 52.001098666341136 30.326224391456222 14.947375542825849 1 rotate no_reflect no_shear #
lump $-1 $-1 $50 $5 #
transform $-1 1 0 0 0 1 0 0 0 1 52.001098666341136 30.326224391456222 14.947375542825849 1 rotate no_reflect no_shear #
lump $-1 $-1 $51 $6 #
transform $-1 1 0 0 0 1 0 0 0 1 52.001098666341136 30.326224391456222 14.947375542825849 1 rotate no_reflect no_shear #
lump $-1 $-1 $52 $7 #
transform $-1 1 0 0 0 1 0 0 0 1 52.001098666341136 30.326224391456222 14.947375542825849 1 rotate no_reflect no_shear #
lump $-1 $-1 $53 $8 #
transform $-1 1 0 0 0 1 0 0 0 1 52.001098666341136 30.326224391456222 14.947375542825849 1 rotate no_reflect no_shear #
lump $-1 $-1 $54 $9 #
transform $-1 1 0 0 0 1 0 0 0 1 52.001098666341136 30.326224391456222 14.947375542825849 1 rotate no_reflect no_shear #
lump $-1 $-1 $55 $10 #
transform $-1 1 0 0 0 1 0 0 0 1 52.001098666341136 30.326224391456222 14.947375542825849 1 rotate no_reflect no_shear #
lump $-1 $-1 $56 $11 #
transform $-1 1 0 0 0 1 0 0 0 1 52.001098666341136 30.326224391456222 14.947375542825849 1 rotate no_reflect no_shear #
lump $-1 $-1 $57 $12 #
transform $-1 1 0 0 0 1 0 0 0 1 52.001098666341136 30.326224391456222 14.947375542825849 1 rotate no_reflect no_shear #
lump $-1 $-1 $58 $13 #
transform $-1 1 0 0 0 1 0 0 0 1 52.001098666341136 30.326224391456222 14.947375542825849 1 rotate no_reflect no_shear #
lump $-1 $-1 $59 $14 #
transform $-1 1 0 0 0 1 0 0 0 1 52.001098666341136 30.326224391456222 14.947375542825849 1 rotate no_reflect no_shear #
shell $-1 $-1 $-1 $60 $-1 $15 #
shell $-1 $-1 $-1 $61 $-1 $17 #
shell $-1 $-1 $-1 $62 $-1 $19 #
shell $-1 $-1 $-1 $63 $-1 $21 #
shell $-1 $-1 $-1 $64 $-1 $23 #
shell $-1 $-1 $-1 $65 $-1 $25 #
shell $-1 $-1 $-1 $66 $-1 $27 #
shell $-1 $-1 $-1 $67 $-1 $29 #
shell $-1 $-1 $-1 $68 $-1 $31 #
shell $-1 $-1 $-1 $69 $-1 $33 #
shell $-1 $-1 $-1 $70 $-1 $35 #
shell $-1 $-1 $-1 $71 $-1 $37 #
shell $-1 $-1 $-1 $72 $-1 $39 #
shell $-1 $-1 $-1 $73 $-1 $41 #
shell $-1 $-1 $-1 $74 $-1 $43 #
face $-1 $75 $76 $45 $-1 $77 forward single #
face $-1 $78 $79 $46 $-1 $80 reversed single #
face $-1 $81 $82 $47 $-1 $83 reversed single #
face $-1 $84 $85 $48 $-1 $86 reversed single #
face $-1 $87 $88 $49 $-1 $89 forward single #
face $-1 $90 $91 $50 $-1 $92 forward single #
face $-1 $93 $94 $51 $-1 $95 forward single #
face $-1 $96 $97 $52 $-1 $98 reversed single #
face $-1 $99 $100 $53 $-1 $101 forward single #
face $-1 $102 $103 $54 $-1 $104 reversed single #
face $-1 $105 $106 $55 $-1 $107 forward single #
face $-1 $108 $109 $56 $-1 $110 reversed single #
face $-1 $111 $112 $57 $-1 $113 forward single #
face $-1 $114 $115 $58 $-1 $116 reversed single #
face $-1 $117 $118 $59 $-1 $119 forward single #
face $-1 $120 $121 $45 $-1 $122 reversed single #
loop $-1 $-1 $123 $60 #
plane-surface $-1 0 0 14.947375542825849 0 0 1 1 0 0 forward_v I I I I #
face $-1 $124 $125 $46 $-1 $126 reversed single #
loop $-1 $-1 $127 $61 #
plane-surface $-1 -42.186110044268901 -14.848271593450384 0 0 1 0 0 0 1 forward_v I I I I #
face $-1 $128 $129 $47 $-1 $130 reversed single #
loop $-1 $-1 $131 $62 #
plane-surface $-1 42.186110044268901 -14.848271593450384 0 0 1 0 0 0 1 forward_v I I I I #
face $-1 $132 $133 $48 $-1 $134 reversed single #
loop $-1 $-1 $135 $63 #
plane-surface $-1 24.217831066125342 38.200357229927405 129.87230393954084 1 0 0 0 -0.55919291073839883 -0.82903756765294845 forward_v I I I I #
face $-1 $136 $137 $49 $-1 $138 forward single #
loop $-1 $139 $140 $64 #
cone-surface $-1 25.848489137339612 26.086934664270196 11.785054735049552 0 -0.55919291073839883 -0.82903756765294845 0.5 0 0 1 I I 0 1 0.5 forward I I I I #
face $-1 $141 $142 $50 $-1 $143 forward single #
loop $-1 $144 $145 $65 #
cone-surface $-1 28.294476244161004 26.086934664270196 11.785054735049552 0 -0.55919291073839883 -0.82903756765294845 0.5 0 0 1 I I 0 1 0.5 forward I I I I #
face $-1 $146 $147 $51 $-1 $148 forward single #
loop $-1 $149 $150 $66 #
cone-surface $-1 30.740463350982395 26.086934664270196 11.785054735049552 0 -0.55919291073839883 -0.82903756765294845 0.5 0 0 1 I I 0 1 0.5 forward I I I I #
face $-1 $151 $152 $52 $-1 $153 reversed single #
loop $-1 $-1 $154 $67 #
plane-surface $-1 -16.185560711098326 -113.38607315958987 73.41116008993427 -1 0 0 0 -0.79863551827123203 0.60181501223851219 forward_v I I I I #
face $-1 $155 $156 $53 $-1 $157 forward single #
loop $-1 $158 $159 $68 #
cone-surface $-1 -19.642064826639761 -27.687484443380754 12.067339292170406 0 0.79863551827123203 -0.60181501223851219 1 0 0 1 I I 0 1 1 forward I I I I #
face $-1 $160 $161 $54 $-1 $162 reversed single #
loop $-1 $-1 $163 $69 #
plane-surface $-1 -3.0908508266718187 -113.38607315958987 73.41116008993427 -1 0 0 0 -0.79863551827123203 0.60181501223851219 forward_v I I I I #
face $-1 $164 $165 $55 $-1 $166 forward single #
loop $-1 $167 $168 $70 #
cone-surface $-1 -6.5473549422132535 -27.687484443380754 12.067339292170406 0 0.79863551827123203 -0.60181501223851219 1 0 0 1 I I 0 1 1 forward I I I I #
face $-1 $169 $170 $56 $-1 $171 reversed single #
loop $-1 $-1 $172 $71 #
plane-surface $-1 10.003859057754688 -113.38607315958987 73.41116008993427 -1 0 0 0 -0.79863551827123203 0.60181501223851219 forward_v I I I I #
face $-1 $173 $174 $57 $-1 $175 forward single #
loop $-1 $176 $177 $72 #
cone-surface $-1 6.5473549422132535 -27.687484443380754 12.067339292170406 0 0.79863551827123203 -0.60181501223851219 1 0 0 1 I I 0 1 1 forward I I I I #
face $-1 $178 $179 $58 $-1 $180 reversed single #
loop $-1 $-1 $181 $73 #
plane-surface $-1 23.098568942181203 -113.38607315958987 73.41116008993427 -1 0 0 0 -0.79863551827123203 0.60181501223851219 forward_v I I I I #
face $-1 $182 $183 $59 $-1 $184 forward single #
loop $-1 $185 $186 $74 #
cone-surface $-1 19.642064826639768 -27.687484443380754 12.067339292170406 0 0.79863551827123203 -0.60181501223851219 1 0 0 1 I I 0 1 1 forward I I I I #
face $-1 $187 $188 $45 $-1 $189 reversed single #
loop $-1 $-1 $190 $75 #
plane-surface $-1 0 0 -14.947375542825849 0 0 1 1 0 0 forward_v I I I I #
coedge $-1 $191 $192 $193 $194 forward $76 $-1 #
face $-1 $195 $196 $46 $-1 $197 reversed single #
loop $-1 $-1 $198 $78 #
plane-surface $-1 -42.186110044268901 -7.5353843188435823 0 0 -1 0 0 0 -1 forward_v I I I I #
coedge $-1 $199 $200 $201 $202 reversed $79 $-1 #
face $-1 $203 $204 $47 $-1 $205 reversed single #
loop $-1 $-1 $206 $81 #
plane-surface $-1 32.371121422196666 -11.191827956146984 0 1 0 0 0 0 -1 forward_v I I I I #
coedge $-1 $207 $208 $209 $210 forward $82 $-1 #
face $-1 $211 $212 $48 $-1 $213 reversed single #
loop $-1 $-1 $214 $84 #
plane-surface $-1 28.294476244161004 -19.956934219724531 43.65057523229197 0 0.55919291073839883 0.82903756765294845 1 0 0 forward_v I I I I #
coedge $-1 $215 $216 $217 $218 reversed $85 $-1 #
face $-1 $-1 $219 $49 $-1 $220 forward single #
loop $-1 $221 $222 $87 #
cone-surface $-1 25.848489137339612 25.572304651818662 11.022084379791202 0 -0.55919291073839883 -0.82903756765294845 0.25 0 0 1 I I -0.70710678118654746 0.70710678118654746 0.25 forward I I I I #
loop $-1 $-1 $223 $64 #
coedge $-1 $140 $140 $224 $225 reversed $88 $-1 #
face $-1 $-1 $226 $50 $-1 $227 forward single #
loop $-1 $228 $229 $90 #
cone-surface $-1 28.294476244161004 25.572304651818662 11.022084379791202 0 -0.55919291073839883 -0.82903756765294845 0.25 0 0 1 I I -0.70710678118654746 0.70710678118654746 0.25 forward I I I I #
loop $-1 $-1 $230 $65 #
coedge $-1 $145 $145 $231 $232 reversed $91 $-1 #
face $-1 $-1 $233 $51 $-1 $234 forward single #
loop $-1 $235 $236 $93 #
cone-surface $-1 30.740463350982395 25.572304651818662 11.022084379791202 0 -0.55919291073839883 -0.82903756765294845 0.25 0 0 1 I I -0.70710678118654746 0.70710678118654746 0.25 forward I I I I #
loop $-1 $-1 $237 $66 #
coedge $-1 $150 $150 $238 $239 reversed $94 $-1 #
face $-1 $240 $241 $52 $-1 $242 reversed single #
loop $-1 $-1 $243 $96 #
plane-surface $-1 -19.642064826639761 -30.326224391456222 10.821076429333928 0 -0.79863551827123203 0.60181501223851219 1 0 0 forward_v I I I I #
coedge $-1 $244 $245 $246 $247 reversed $97 $-1 #
face $-1 $-1 $248 $53 $-1 $249 forward single #
loop $-1 $250 $251 $99 #
cone-surface $-1 -19.642064826639761 -26.204121396420508 10.949545092141658 0 0.79863551827123203 -0.60181501223851219 0.5 0 0 1 I I -0.70710678118654746 0.70710678118654746 0.5 forward I I I I #
loop $-1 $-1 $252 $68 #
coedge $-1 $159 $159 $253 $254 reversed $100 $-1 #
face $-1 $255 $256 $54 $-1 $257 reversed single #
loop $-1 $-1 $258 $102 #
plane-surface $-1 -6.5473549422132535 -30.326224391456222 10.821076429333928 0 -0.79863551827123203 0.60181501223851219 1 0 0 forward_v I I I I #
coedge $-1 $259 $260 $261 $262 reversed $103 $-1 #
face $-1 $-1 $263 $55 $-1 $264 forward single #
loop $-1 $265 $266 $105 #
cone-surface $-1 -6.5473549422132535 -26.204121396420508 10.949545092141658 0 0.79863551827123203 -0.60181501223851219 0.5 0 0 1 I I -0.70710678118654746 0.70710678118654746 0.5 forward I I I I #
loop $-1 $-1 $267 $70 #
coedge $-1 $168 $168 $268 $269 reversed $106 $-1 #
face $-1 $270 $271 $56 $-1 $272 reversed single #
loop $-1 $-1 $273 $108 #
plane-surface $-1 6.5473549422132535 -30.326224391456222 10.821076429333928 0 -0.79863551827123203 0.60181501223851219 1 0 0 forward_v I I I I #
coedge $-1 $274 $275 $276 $277 reversed $109 $-1 #
face $-1 $-1 $278 $57 $-1 $279 forward single #
loop $-1 $280 $281 $111 #
cone-surface $-1 6.5473549422132535 -26.204121396420508 10.949545092141658 0 0.79863551827123203 -0.60181501223851219 0.5 0 0 1 I I -0.70710678118654746 0.70710678118654746 0.5 forward I I I I #
loop $-1 $-1 $282 $72 #
coedge $-1 $177 $177 $283 $284 reversed $112 $-1 #
face $-1 $285 $286 $58 $-1 $287 reversed single #
loop $-1 $-1 $288 $114 #
plane-surface $-1 19.642064826639768 -30.326224391456222 10.821076429333928 0 -0.79863551827123203 0.60181501223851219 1 0 0 forward_v I I I I #
coedge $-1 $289 $290 $291 $292 reversed $115 $-1 #
face $-1 $-1 $293 $59 $-1 $294 forward single #
loop $-1 $295 $296 $117 #
cone-surface $-1 19.642064826639768 -26.204121396420508 10.949545092141658 0 0.79863551827123203 -0.60181501223851219 0.5 0 0 1 I I -0.70710678118654746 0.70710678118654746 0.5 forward I I I I #
loop $-1 $-1 $297 $74 #
coedge $-1 $186 $186 $298 $299 reversed $118 $-1 #
face $-1 $300 $301 $45 $-1 $302 reversed single #
loop $-1 $-1 $303 $120 #
plane-surface $-1 0 -30.326224391456222 0 0 1 0 0 0 1 forward_v I I I I #
coedge $-1 $304 $305 $306 $307 forward $121 $-1 #
coedge $-1 $308 $123 $309 $310 forward $76 $-1 #
coedge $-1 $123 $308 $311 $312 forward $76 $-1 #
coedge $-1 $313 $314 $123 $194 reversed $315 $-1 #
edge $-1 $316 -30.326224391456222 $317 30.326224391456222 $193 $318 forward 7 unknown #
face $-1 $319 $320 $46 $-1 $321 reversed single #
loop $-1 $-1 $322 $124 #
plane-surface $-1 -32.371121422196666 -11.191827956146984 0 -1 0 0 0 0 1 forward_v I I I I #
coedge $-1 $323 $324 $325 $326 forward $125 $-1 #
coedge $-1 $327 $127 $328 $329 reversed $79 $-1 #
coedge $-1 $127 $327 $330 $331 reversed $79 $-1 #
coedge $-1 $332 $333 $127 $202 forward $334 $-1 #
edge $-1 $335 -14.947375542825849 $336 14.947375542825849 $201 $337 forward 7 unknown #
face $-1 $338 $339 $47 $-1 $340 reversed single #
loop $-1 $-1 $341 $128 #
plane-surface $-1 42.186110044268901 -7.5353843188435823 0 0 -1 0 0 0 -1 forward_v I I I I #
coedge $-1 $342 $343 $344 $345 forward $129 $-1 #
coedge $-1 $346 $131 $347 $348 reversed $82 $-1 #
coedge $-1 $131 $346 $349 $350 reversed $82 $-1 #
coedge $-1 $343 $342 $131 $210 reversed $129 $-1 #
edge $-1 $351 -14.947375542825849 $352 14.947375542825849 $209 $353 forward 7 unknown #
face $-1 $354 $355 $48 $-1 $356 reversed single #
loop $-1 $-1 $357 $132 #
plane-surface $-1 32.371121422196666 38.200357229927405 129.87230393954084 -1 0 0 0 0.55919291073839883 0.82903756765294845 forward_v I I I I #
coedge $-1 $358 $359 $360 $361 reversed $133 $-1 #
coedge $-1 $216 $135 $362 $363 reversed $85 $-1 #
coedge $-1 $135 $215 $358 $364 reversed $85 $-1 #
coedge $-1 $360 $365 $135 $218 forward $366 $-1 #
edge $-1 $367 -11.226045776492519 $368 -3.4971298916543745 $217 $369 forward 7 unknown #
loop $-1 $-1 $224 $136 #
plane-surface $-1 28.294476244161004 -19.956934219724531 43.65057523229197 0 0.55919291073839883 0.82903756765294845 1 0 0 forward_v I I I I #
loop $-1 $-1 $370 $87 #
coedge $-1 $222 $222 $223 $371 reversed $137 $-1 #
coedge $-1 $223 $223 $222 $371 forward $139 $-1 #
coedge $-1 $224 $224 $140 $225 forward $219 $-1 #
edge $-1 $372 2.0787208657643989e-016 $372 6.2831853071796004 $224 $373 forward 7 unknown #
loop $-1 $-1 $231 $141 #
plane-surface $-1 28.294476244161004 -19.956934219724531 43.65057523229197 0 0.55919291073839883 0.82903756765294845 1 0 0 forward_v I I I I #
loop $-1 $-1 $374 $90 #
coedge $-1 $229 $229 $230 $375 reversed $142 $-1 #
coedge $-1 $230 $230 $229 $375 forward $144 $-1 #
coedge $-1 $231 $231 $145 $232 forward $226 $-1 #
edge $-1 $376 2.0787208657643989e-016 $376 6.2831853071796004 $231 $377 forward 7 unknown #
loop $-1 $-1 $238 $146 #
plane-surface $-1 28.294476244161004 -19.956934219724531 43.65057523229197 0 0.55919291073839883 0.82903756765294845 1 0 0 forward_v I I I I #
loop $-1 $-1 $378 $93 #
coedge $-1 $236 $236 $237 $379 reversed $147 $-1 #
coedge $-1 $237 $237 $236 $379 forward $149 $-1 #
coedge $-1 $238 $238 $150 $239 forward $233 $-1 #
edge $-1 $380 2.0787208657643989e-016 $380 6.2831853071796004 $238 $381 forward 7 unknown #
face $-1 $382 $383 $52 $-1 $384 forward single #
loop $-1 $-1 $385 $151 #
plane-surface $-1 -23.098568942181195 -113.38607315958987 73.41116008993427 1 0 0 0 0.79863551827123203 -0.60181501223851219 forward_v I I I I #
coedge $-1 $386 $387 $388 $389 reversed $152 $-1 #
coedge $-1 $245 $154 $390 $391 reversed $97 $-1 #
coedge $-1 $154 $244 $386 $392 reversed $97 $-1 #
coedge $-1 $388 $393 $154 $247 forward $383 $-1 #
edge $-1 $394 26.366812188338713 $395 29.476201508840404 $246 $396 forward 7 unknown #
loop $-1 $-1 $253 $155 #
plane-surface $-1 -19.642064826639761 -30.326224391456222 10.821076429333928 0 -0.79863551827123203 0.60181501223851219 1 0 0 forward_v I I I I #
loop $-1 $-1 $397 $99 #
coedge $-1 $251 $251 $252 $398 reversed $156 $-1 #
coedge $-1 $252 $252 $251 $398 forward $158 $-1 #
coedge $-1 $253 $253 $159 $254 forward $248 $-1 #
edge $-1 $399 1.3984938081017603e-015 $399 6.2831853071796022 $253 $400 forward 7 unknown #
face $-1 $401 $402 $54 $-1 $403 reversed single #
loop $-1 $-1 $404 $160 #
plane-surface $-1 -10.003859057754688 -113.38607315958987 73.41116008993427 1 0 0 0 0.79863551827123203 -0.60181501223851219 forward_v I I I I #
coedge $-1 $405 $406 $407 $408 reversed $161 $-1 #
coedge $-1 $260 $163 $409 $410 reversed $103 $-1 #
coedge $-1 $163 $259 $405 $411 reversed $103 $-1 #
coedge $-1 $407 $412 $163 $262 forward $413 $-1 #
edge $-1 $414 26.366812188338713 $415 29.476201508840404 $261 $416 forward 7 unknown #
loop $-1 $-1 $268 $164 #
plane-surface $-1 -6.5473549422132535 -30.326224391456222 10.821076429333928 0 -0.79863551827123203 0.60181501223851219 1 0 0 forward_v I I I I #
loop $-1 $-1 $417 $105 #
coedge $-1 $266 $266 $267 $418 reversed $165 $-1 #
coedge $-1 $267 $267 $266 $418 forward $167 $-1 #
coedge $-1 $268 $268 $168 $269 forward $263 $-1 #
edge $-1 $419 1.3984938081017603e-015 $419 6.2831853071796022 $268 $420 forward 7 unknown #
face $-1 $421 $422 $56 $-1 $423 reversed single #
loop $-1 $-1 $424 $169 #
plane-surface $-1 3.0908508266718187 -113.38607315958987 73.41116008993427 1 0 0 0 0.79863551827123203 -0.60181501223851219 forward_v I I I I #
coedge $-1 $425 $426 $427 $428 reversed $170 $-1 #
coedge $-1 $275 $172 $429 $430 reversed $109 $-1 #
coedge $-1 $172 $274 $425 $431 reversed $109 $-1 #
coedge $-1 $427 $432 $172 $277 forward $433 $-1 #
edge $-1 $434 26.366812188338713 $435 29.476201508840404 $276 $436 forward 7 unknown #
loop $-1 $-1 $283 $173 #
plane-surface $-1 6.5473549422132535 -30.326224391456222 10.821076429333928 0 -0.79863551827123203 0.60181501223851219 1 0 0 forward_v I I I I #
loop $-1 $-1 $437 $111 #
coedge $-1 $281 $281 $282 $438 reversed $174 $-1 #
coedge $-1 $282 $282 $281 $438 forward $176 $-1 #
coedge $-1 $283 $283 $177 $284 forward $278 $-1 #
edge $-1 $439 1.3984938081017603e-015 $439 6.2831853071796022 $283 $440 forward 7 unknown #
face $-1 $441 $442 $58 $-1 $443 reversed single #
loop $-1 $-1 $444 $178 #
plane-surface $-1 16.185560711098333 -113.38607315958987 73.41116008993427 1 0 0 0 0.79863551827123203 -0.60181501223851219 forward_v I I I I #
coedge $-1 $445 $446 $447 $448 reversed $179 $-1 #
coedge $-1 $290 $181 $449 $450 reversed $115 $-1 #
coedge $-1 $181 $289 $445 $451 reversed $115 $-1 #
coedge $-1 $447 $452 $181 $292 forward $453 $-1 #
edge $-1 $454 26.366812188338713 $455 29.476201508840404 $291 $456 forward 7 unknown #
loop $-1 $-1 $298 $182 #
plane-surface $-1 19.642064826639768 -30.326224391456222 10.821076429333928 0 -0.79863551827123203 0.60181501223851219 1 0 0 forward_v I I I I #
loop $-1 $-1 $457 $117 #
coedge $-1 $296 $296 $297 $458 reversed $183 $-1 #
coedge $-1 $297 $297 $296 $458 forward $185 $-1 #
coedge $-1 $298 $298 $186 $299 forward $293 $-1 #
edge $-1 $459 1.3984938081017603e-015 $459 6.2831853071796022 $298 $460 forward 7 unknown #
face $-1 $461 $462 $45 $-1 $463 reversed single #
loop $-1 $-1 $464 $187 #
plane-surface $-1 -52.001098666341136 0 0 1 0 0 0 0 -1 forward_v I I I I #
coedge $-1 $465 $311 $466 $467 forward $188 $-1 #
coedge $-1 $468 $190 $465 $469 forward $121 $-1 #
coedge $-1 $190 $468 $470 $471 forward $121 $-1 #
coedge $-1 $314 $313 $190 $307 reversed $315 $-1 #
edge $-1 $472 -30.326224391456222 $473 30.326224391456222 $306 $474 forward 7 unknown #
coedge $-1 $192 $191 $475 $476 forward $76 $-1 #
coedge $-1 $477 $478 $191 $310 reversed $462 $-1 #
edge $-1 $317 -52.001098666341136 $479 52.001098666341136 $309 $480 forward 7 unknown #
coedge $-1 $303 $481 $192 $312 reversed $188 $-1 #
edge $-1 $482 -52.001098666341136 $316 52.001098666341136 $311 $483 forward 7 unknown #
coedge $-1 $306 $193 $481 $484 forward $315 $-1 #
coedge $-1 $193 $306 $477 $485 reversed $315 $-1 #
loop $-1 $-1 $313 $461 #
vertex $-1 $194 $486 #
vertex $-1 $194 $487 #
straight-curve $-1 52.001098666341136 0 14.947375542825849 0 1 0 I I #
face $-1 $488 $489 $46 $-1 $490 forward single #
loop $-1 $-1 $491 $195 #
plane-surface $-1 0 0 -14.947375542825849 0 0 1 1 0 0 forward_v I I I I #
coedge $-1 $492 $493 $327 $494 forward $196 $-1 #
coedge $-1 $495 $198 $491 $496 reversed $125 $-1 #
coedge $-1 $198 $495 $497 $498 reversed $125 $-1 #
coedge $-1 $493 $492 $198 $326 reversed $196 $-1 #
edge $-1 $499 -14.947375542825849 $500 14.947375542825849 $325 $501 forward 7 unknown #
coedge $-1 $200 $199 $322 $494 reversed $79 $-1 #
coedge $-1 $502 $503 $199 $329 forward $320 $-1 #
edge $-1 $504 11.278066400062215 $335 30.908043644206685 $328 $505 forward 7 unknown #
coedge $-1 $506 $507 $200 $331 forward $489 $-1 #
edge $-1 $336 -30.908043644206685 $508 -11.278066400062215 $330 $509 forward 7 unknown #
coedge $-1 $510 $201 $507 $511 reversed $334 $-1 #
coedge $-1 $201 $510 $502 $512 reversed $334 $-1 #
loop $-1 $-1 $510 $488 #
vertex $-1 $512 $513 #
vertex $-1 $202 $514 #
straight-curve $-1 -52.001098666341136 -14.848271593450384 0 0 0 1 I I #
face $-1 $515 $516 $47 $-1 $517 forward single #
loop $-1 $-1 $347 $203 #
plane-surface $-1 0 0 -14.947375542825849 0 0 1 1 0 0 forward_v I I I I #
coedge $-1 $518 $519 $520 $521 reversed $204 $-1 #
coedge $-1 $209 $206 $522 $523 reversed $129 $-1 #
coedge $-1 $206 $209 $524 $525 reversed $129 $-1 #
coedge $-1 $519 $518 $206 $345 reversed $204 $-1 #
edge $-1 $526 -14.947375542825849 $527 14.947375542825849 $344 $528 forward 7 unknown #
coedge $-1 $208 $207 $529 $530 reversed $82 $-1 #
coedge $-1 $522 $531 $207 $348 forward $339 $-1 #
edge $-1 $532 -30.908043644206685 $352 -11.278066400062215 $347 $533 forward 7 unknown #
coedge $-1 $534 $524 $208 $350 forward $516 $-1 #
edge $-1 $351 11.278066400062215 $535 30.908043644206685 $349 $536 forward 7 unknown #
vertex $-1 $350 $537 #
vertex $-1 $348 $538 #
straight-curve $-1 32.371121422196666 -14.848271593450384 0 0 0 -1 I I #
face $-1 $-1 $366 $48 $-1 $539 forward single #
loop $-1 $-1 $540 $211 #
plane-surface $-1 0 30.326224391456222 0 0 -1 0 0 0 -1 forward_v I I I I #
coedge $-1 $541 $542 $543 $544 reversed $212 $-1 #
coedge $-1 $545 $214 $216 $364 forward $133 $-1 #
coedge $-1 $214 $545 $541 $546 forward $133 $-1 #
coedge $-1 $543 $217 $214 $361 forward $366 $-1 #
edge $-1 $368 10.07059294404484 $547 18.223883300116164 $360 $548 forward 7 unknown #
coedge $-1 $549 $550 $215 $363 forward $355 $-1 #
edge $-1 $551 -55.201996115806907 $367 -49.988776426944568 $362 $552 forward 7 unknown #
edge $-1 $368 51.329691665018316 $551 60.65244878291243 $216 $553 forward 7 unknown #
coedge $-1 $217 $543 $549 $554 forward $366 $-1 #
loop $-1 $-1 $543 $354 #
vertex $-1 $363 $555 #
vertex $-1 $218 $556 #
straight-curve $-1 24.217831066125342 19.100178614963703 14.947375542825853 0 -1 0 I I #
coedge $-1 $370 $370 $-1 $557 reversed $221 $-1 #
edge $-1 $558 0 $558 6.2831853071796004 $222 $559 forward 7 unknown #
vertex $-1 $225 $560 #
ellipse-curve $-1 25.848489137339612 26.461766449037142 12.340765698394684 0 0.55919291073839883 0.82903756765294845 0.5 0 0 1 I I #
coedge $-1 $374 $374 $-1 $561 reversed $228 $-1 #
edge $-1 $562 0 $562 6.2831853071796004 $229 $563 forward 7 unknown #
vertex $-1 $232 $564 #
ellipse-curve $-1 28.294476244161004 26.461766449037142 12.340765698394684 0 0.55919291073839883 0.82903756765294845 0.5 0 0 1 I I #
coedge $-1 $378 $378 $-1 $565 reversed $235 $-1 #
edge $-1 $566 0 $566 6.2831853071796004 $236 $567 forward 7 unknown #
vertex $-1 $239 $568 #
ellipse-curve $-1 30.740463350982395 26.461766449037142 12.340765698394684 0 0.55919291073839883 0.82903756765294845 0.5 0 0 1 I I #
face $-1 $-1 $569 $52 $-1 $570 reversed single #
loop $-1 $-1 $246 $240 #
plane-surface $-1 0 0 14.947375542825849 0 0 1 1 0 0 forward_v I I I I #
coedge $-1 $571 $572 $573 $574 reversed $241 $-1 #
coedge $-1 $575 $243 $245 $392 forward $152 $-1 #
coedge $-1 $243 $575 $571 $576 forward $152 $-1 #
coedge $-1 $573 $246 $243 $389 forward $383 $-1 #
edge $-1 $395 6.3645282977784454 $577 13.277536528861315 $388 $578 forward 7 unknown #
coedge $-1 $579 $580 $244 $391 forward $569 $-1 #
edge $-1 $581 -25.884503615633207 $394 -21.758204502141286 $390 $582 forward 7 unknown #
edge $-1 $395 -5.16668620301777 $581 0 $245 $583 forward 7 unknown #
coedge $-1 $246 $573 $579 $584 forward $383 $-1 #
vertex $-1 $247 $585 #
vertex $-1 $247 $586 #
straight-curve $-1 -16.185560711098326 -56.693036579794935 14.947375542825849 0 1 0 I I #
coedge $-1 $397 $397 $-1 $587 reversed $250 $-1 #
edge $-1 $588 0 $588 6.2831853071796004 $251 $589 forward 7 unknown #
vertex $-1 $254 $590 #
ellipse-curve $-1 -19.642064826639761 -28.771529731205373 12.88422598607989 0 -0.79863551827123203 0.60181501223851219 1 0 0 1 I I #
face $-1 $-1 $413 $54 $-1 $591 forward single #
loop $-1 $-1 $592 $255 #
plane-surface $-1 0 -30.326224391456222 0 0 1 0 0 0 1 forward_v I I I I #
coedge $-1 $593 $594 $595 $596 reversed $256 $-1 #
coedge $-1 $597 $258 $260 $411 forward $161 $-1 #
coedge $-1 $258 $597 $593 $598 forward $161 $-1 #
coedge $-1 $595 $261 $258 $408 forward $413 $-1 #
edge $-1 $415 -0.18282664443480812 $599 6.7301815866480617 $407 $600 forward 7 unknown #
coedge $-1 $601 $602 $259 $410 forward $402 $-1 #
edge $-1 $603 -25.884503615633207 $414 -21.758204502141286 $409 $604 forward 7 unknown #
edge $-1 $415 -5.16668620301777 $603 0 $260 $605 forward 7 unknown #
coedge $-1 $261 $595 $601 $606 forward $413 $-1 #
loop $-1 $-1 $595 $401 #
vertex $-1 $410 $607 #
vertex $-1 $262 $608 #
straight-curve $-1 -3.0908508266718187 -56.693036579794935 14.947375542825849 0 1 0 I I #
coedge $-1 $417 $417 $-1 $609 reversed $265 $-1 #
edge $-1 $610 0 $610 6.2831853071796004 $266 $611 forward 7 unknown #
vertex $-1 $269 $612 #
ellipse-curve $-1 -6.5473549422132535 -28.771529731205373 12.88422598607989 0 -0.79863551827123203 0.60181501223851219 1 0 0 1 I I #
face $-1 $-1 $433 $56 $-1 $613 forward single #
loop $-1 $-1 $614 $270 #
plane-surface $-1 0 -30.326224391456222 0 0 1 0 0 0 1 forward_v I I I I #
coedge $-1 $615 $616 $617 $618 reversed $271 $-1 #
coedge $-1 $619 $273 $275 $431 forward $170 $-1 #
coedge $-1 $273 $619 $615 $620 forward $170 $-1 #
coedge $-1 $617 $276 $273 $428 forward $433 $-1 #
edge $-1 $435 -6.7301815866480617 $621 0.18282664443480812 $427 $622 forward 7 unknown #
coedge $-1 $623 $624 $274 $430 forward $422 $-1 #
edge $-1 $625 -25.884503615633207 $434 -21.758204502141286 $429 $626 forward 7 unknown #
edge $-1 $435 -5.16668620301777 $625 0 $275 $627 forward 7 unknown #
coedge $-1 $276 $617 $623 $628 forward $433 $-1 #
loop $-1 $-1 $617 $421 #
vertex $-1 $430 $629 #
vertex $-1 $277 $630 #
straight-curve $-1 10.003859057754688 -56.693036579794935 14.947375542825849 0 1 0 I I #
coedge $-1 $437 $437 $-1 $631 reversed $280 $-1 #
edge $-1 $632 0 $632 6.2831853071796004 $281 $633 forward 7 unknown #
vertex $-1 $284 $634 #
ellipse-curve $-1 6.5473549422132535 -28.771529731205373 12.88422598607989 0 -0.79863551827123203 0.60181501223851219 1 0 0 1 I I #
face $-1 $-1 $453 $58 $-1 $635 forward single #
loop $-1 $-1 $636 $285 #
plane-surface $-1 0 -30.326224391456222 0 0 1 0 0 0 1 forward_v I I I I #
coedge $-1 $637 $638 $639 $640 reversed $286 $-1 #
coedge $-1 $641 $288 $290 $451 forward $179 $-1 #
coedge $-1 $288 $641 $637 $642 forward $179 $-1 #
coedge $-1 $639 $291 $288 $448 forward $453 $-1 #
edge $-1 $455 -13.277536528861319 $643 -6.364528297778449 $447 $644 forward 7 unknown #
coedge $-1 $645 $646 $289 $450 forward $442 $-1 #
edge $-1 $647 -25.884503615633207 $454 -21.758204502141286 $449 $648 forward 7 unknown #
edge $-1 $455 -5.16668620301777 $647 0 $290 $649 forward 7 unknown #
coedge $-1 $291 $639 $645 $650 forward $453 $-1 #
loop $-1 $-1 $639 $441 #
vertex $-1 $450 $651 #
vertex $-1 $292 $652 #
straight-curve $-1 23.098568942181203 -56.693036579794935 14.947375542825849 0 1 0 I I #
coedge $-1 $457 $457 $-1 $653 reversed $295 $-1 #
edge $-1 $654 0 $654 6.2831853071796004 $296 $655 forward 7 unknown #
vertex $-1 $299 $656 #
ellipse-curve $-1 19.642064826639768 -28.771529731205373 12.88422598607989 0 -0.79863551827123203 0.60181501223851219 1 0 0 1 I I #
face $-1 $-1 $315 $45 $-1 $657 reversed single #
loop $-1 $-1 $477 $300 #
plane-surface $-1 0 30.326224391456222 0 0 -1 0 0 0 -1 forward_v I I I I #
coedge $-1 $658 $475 $478 $659 forward $301 $-1 #
coedge $-1 $481 $303 $304 $469 reversed $188 $-1 #
coedge $-1 $475 $658 $303 $467 reversed $301 $-1 #
edge $-1 $482 -14.947375542825849 $660 14.947375542825849 $466 $661 forward 7 unknown #
coedge $-1 $305 $304 $658 $662 forward $121 $-1 #
edge $-1 $473 -52.001098666341136 $660 52.001098666341136 $465 $663 forward 7 unknown #
coedge $-1 $478 $477 $305 $471 reversed $462 $-1 #
edge $-1 $664 -52.001098666341136 $472 52.001098666341136 $470 $665 forward 7 unknown #
vertex $-1 $307 $666 #
vertex $-1 $484 $667 #
straight-curve $-1 52.001098666341136 0 -14.947375542825849 0 -1 0 I I #
coedge $-1 $464 $466 $308 $476 reversed $301 $-1 #
edge $-1 $479 -30.326224391456222 $482 30.326224391456222 $475 $668 forward 7 unknown #
coedge $-1 $470 $309 $314 $485 forward $462 $-1 #
coedge $-1 $309 $470 $464 $659 reversed $462 $-1 #
vertex $-1 $310 $669 #
straight-curve $-1 0 30.326224391456222 14.947375542825849 -1 0 0 I I #
coedge $-1 $311 $465 $313 $484 reversed $188 $-1 #
vertex $-1 $476 $670 #
straight-curve $-1 0 -30.326224391456222 14.947375542825849 1 0 0 I I #
edge $-1 $316 -14.947375542825849 $473 14.947375542825849 $313 $671 forward 7 unknown #
edge $-1 $317 -14.947375542825849 $472 14.947375542825849 $314 $672 forward 7 unknown #
point $-1 52.001098666341136 -30.326224391456222 14.947375542825849 #
point $-1 52.001098666341136 30.326224391456222 14.947375542825849 #
face $-1 $-1 $334 $46 $-1 $673 reversed single #
loop $-1 $-1 $497 $319 #
plane-surface $-1 0 0 14.947375542825849 0 0 1 1 0 0 forward_v I I I I #
coedge $-1 $503 $502 $323 $496 forward $320 $-1 #
coedge $-1 $325 $322 $503 $674 reversed $196 $-1 #
coedge $-1 $322 $325 $506 $675 reversed $196 $-1 #
edge $-1 $508 -14.947375542825849 $504 14.947375542825849 $322 $676 forward 7 unknown #
coedge $-1 $324 $323 $510 $677 reversed $125 $-1 #
edge $-1 $678 -30.908043644206685 $500 -11.278066400062215 $491 $679 forward 7 unknown #
coedge $-1 $507 $506 $324 $498 forward $489 $-1 #
edge $-1 $499 11.278066400062215 $680 30.908043644206685 $497 $681 forward 7 unknown #
vertex $-1 $498 $682 #
vertex $-1 $496 $683 #
straight-curve $-1 -32.371121422196666 -7.5353843188435823 0 0 0 -1 I I #
coedge $-1 $491 $328 $333 $512 forward $320 $-1 #
coedge $-1 $328 $491 $492 $674 forward $320 $-1 #
vertex $-1 $329 $684 #
straight-curve $-1 -21.09305502213445 -14.848271593450384 -14.947375542825849 -1 0 0 I I #
coedge $-1 $497 $330 $493 $675 forward $489 $-1 #
coedge $-1 $330 $497 $332 $511 forward $489 $-1 #
vertex $-1 $331 $685 #
straight-curve $-1 -21.09305502213445 -14.848271593450384 14.947375542825849 1 0 0 I I #
coedge $-1 $333 $332 $495 $677 forward $334 $-1 #
edge $-1 $680 7.5353843188435823 $336 14.848271593450384 $332 $686 forward 7 unknown #
edge $-1 $335 -14.848271593450384 $678 -7.5353843188435823 $333 $687 forward 7 unknown #
point $-1 -52.001098666341136 -14.848271593450384 -14.947375542825849 #
point $-1 -52.001098666341136 -14.848271593450384 14.947375542825849 #
face $-1 $-1 $688 $47 $-1 $689 reversed single #
loop $-1 $-1 $349 $338 #
plane-surface $-1 0 0 14.947375542825849 0 0 1 1 0 0 forward_v I I I I #
coedge $-1 $344 $341 $690 $691 reversed $204 $-1 #
coedge $-1 $341 $344 $692 $693 reversed $204 $-1 #
coedge $-1 $694 $695 $341 $521 forward $688 $-1 #
edge $-1 $696 -14.947375542825849 $697 14.947375542825849 $520 $698 forward 7 unknown #
coedge $-1 $690 $347 $342 $523 forward $339 $-1 #
edge $-1 $352 -9.2523576153768925 $527 -1.9394703407700904 $522 $699 forward 7 unknown #
coedge $-1 $349 $692 $343 $525 forward $516 $-1 #
edge $-1 $526 1.9394703407700904 $351 9.2523576153768925 $524 $700 forward 7 unknown #
vertex $-1 $525 $701 #
vertex $-1 $523 $702 #
straight-curve $-1 32.371121422196666 -7.5353843188435823 0 0 0 -1 I I #
coedge $-1 $695 $694 $346 $530 forward $688 $-1 #
edge $-1 $535 -14.947375542825849 $532 14.947375542825849 $529 $703 forward 7 unknown #
coedge $-1 $347 $690 $695 $704 forward $339 $-1 #
vertex $-1 $530 $705 #
straight-curve $-1 21.09305502213445 -14.848271593450384 -14.947375542825849 -1 0 0 I I #
coedge $-1 $692 $349 $694 $706 forward $516 $-1 #
vertex $-1 $706 $707 #
straight-curve $-1 21.09305502213445 -14.848271593450384 14.947375542825849 1 0 0 I I #
point $-1 32.371121422196666 -14.848271593450384 14.947375542825849 #
point $-1 32.371121422196666 -14.848271593450384 -14.947375542825849 #
plane-surface $-1 0 0 14.947375542825849 0 0 1 1 0 0 forward_v I I I I #
coedge $-1 $550 $549 $542 $708 forward $355 $-1 #
coedge $-1 $542 $357 $359 $546 reversed $212 $-1 #
coedge $-1 $357 $541 $540 $708 reversed $212 $-1 #
coedge $-1 $365 $360 $357 $544 forward $366 $-1 #
edge $-1 $547 3.4971298916543745 $709 11.226045776492519 $543 $710 forward 7 unknown #
coedge $-1 $359 $358 $550 $711 reversed $133 $-1 #
edge $-1 $712 -60.65244878291243 $547 -51.329691665018316 $541 $713 forward 7 unknown #
vertex $-1 $361 $714 #
straight-curve $-1 14.147238122080502 22.597308506618081 14.947375542825849 1 0 0 I I #
coedge $-1 $540 $362 $365 $554 reversed $355 $-1 #
coedge $-1 $362 $540 $545 $711 forward $355 $-1 #
vertex $-1 $363 $715 #
straight-curve $-1 24.217831066125342 30.326224391456222 64.936151969770421 0 0 1 I I #
straight-curve $-1 24.217831066125342 -19.956934219724531 43.65057523229197 0 0.82903756765294845 -0.55919291073839883 I I #
edge $-1 $709 -32.371121422196666 $367 -24.217831066125342 $549 $716 forward 7 unknown #
point $-1 24.217831066125342 30.326224391456222 14.947375542825849 #
point $-1 24.217831066125342 22.597308506618077 14.947375542825849 #
edge $-1 $717 1 $717 0 $370 $-1 forward 7 unknown #
vertex $-1 $371 $718 #
ellipse-curve $-1 25.848489137339612 25.712102879503263 11.229343771704439 0 0.55919291073839883 0.82903756765294845 0.5 0 0 1 I I #
point $-1 26.348489137339612 26.461766449037132 12.340765698394668 #
edge $-1 $719 1 $719 0 $374 $-1 forward 7 unknown #
vertex $-1 $375 $720 #
ellipse-curve $-1 28.294476244161004 25.712102879503263 11.229343771704439 0 0.55919291073839883 0.82903756765294845 0.5 0 0 1 I I #
point $-1 28.794476244161004 26.461766449037132 12.340765698394668 #
edge $-1 $721 1 $721 0 $378 $-1 forward 7 unknown #
vertex $-1 $379 $722 #
ellipse-curve $-1 30.740463350982395 25.712102879503263 11.229343771704439 0 0.55919291073839883 0.82903756765294845 0.5 0 0 1 I I #
point $-1 31.240463350982395 26.461766449037132 12.340765698394668 #
loop $-1 $-1 $390 $382 #
plane-surface $-1 0 -30.326224391456222 0 0 1 0 0 0 1 forward_v I I I I #
coedge $-1 $572 $385 $387 $576 reversed $241 $-1 #
coedge $-1 $385 $571 $723 $724 reversed $241 $-1 #
coedge $-1 $393 $388 $385 $574 forward $383 $-1 #
edge $-1 $577 -29.476201508840404 $725 -26.366812188338713 $573 $726 forward 7 unknown #
coedge $-1 $387 $386 $580 $727 reversed $152 $-1 #
edge $-1 $728 0 $577 5.16668620301777 $571 $729 forward 7 unknown #
vertex $-1 $389 $730 #
straight-curve $-1 -9.8210324133198803 -27.216835070954534 14.947375542825849 -1 0 0 I I #
coedge $-1 $723 $390 $393 $584 reversed $569 $-1 #
coedge $-1 $390 $723 $575 $727 forward $569 $-1 #
vertex $-1 $391 $731 #
straight-curve $-1 -16.185560711098326 -30.326224391456222 36.705580044967135 0 0 1 I I #
straight-curve $-1 -16.185560711098326 -30.326224391456222 10.821076429333928 0 -0.60181501223851219 -0.79863551827123203 I I #
edge $-1 $725 -23.098568942181195 $394 -16.185560711098326 $579 $732 forward 7 unknown #
point $-1 -16.185560711098326 -30.326224391456222 14.947375542825849 #
point $-1 -16.185560711098326 -27.216835070954531 14.947375542825849 #
edge $-1 $733 1 $733 0 $397 $-1 forward 7 unknown #
vertex $-1 $398 $734 #
ellipse-curve $-1 -19.642064826639761 -26.603439155556124 11.250452598260914 0 -0.79863551827123203 0.60181501223851219 1 0 0 1 I I #
point $-1 -18.642064826639761 -28.77152973120538 12.884225986079898 #
plane-surface $-1 0 0 14.947375542825849 0 0 1 1 0 0 forward_v I I I I #
coedge $-1 $602 $601 $594 $735 forward $402 $-1 #
coedge $-1 $594 $404 $406 $598 reversed $256 $-1 #
coedge $-1 $404 $593 $592 $735 reversed $256 $-1 #
coedge $-1 $412 $407 $404 $596 forward $413 $-1 #
edge $-1 $599 -29.476201508840404 $736 -26.366812188338713 $595 $737 forward 7 unknown #
coedge $-1 $406 $405 $602 $738 reversed $161 $-1 #
edge $-1 $739 0 $599 5.16668620301777 $593 $740 forward 7 unknown #
vertex $-1 $408 $741 #
straight-curve $-1 -3.2736774711066268 -27.216835070954534 14.947375542825849 -1 0 0 I I #
coedge $-1 $592 $409 $412 $606 reversed $402 $-1 #
coedge $-1 $409 $592 $597 $738 forward $402 $-1 #
vertex $-1 $410 $742 #
straight-curve $-1 -3.0908508266718187 -30.326224391456222 36.705580044967135 0 0 1 I I #
straight-curve $-1 -3.0908508266718187 -30.326224391456222 10.821076429333928 0 -0.60181501223851219 -0.79863551827123203 I I #
edge $-1 $736 -10.003859057754688 $414 -3.0908508266718187 $601 $743 forward 7 unknown #
point $-1 -3.0908508266718187 -30.326224391456222 14.947375542825849 #
point $-1 -3.0908508266718187 -27.216835070954531 14.947375542825849 #
edge $-1 $744 1 $744 0 $417 $-1 forward 7 unknown #
vertex $-1 $418 $745 #
ellipse-curve $-1 -6.5473549422132535 -26.603439155556124 11.250452598260914 0 -0.79863551827123203 0.60181501223851219 1 0 0 1 I I #
point $-1 -5.5473549422132535 -28.77152973120538 12.884225986079898 #
plane-surface $-1 0 0 14.947375542825849 0 0 1 1 0 0 forward_v I I I I #
coedge $-1 $624 $623 $616 $746 forward $422 $-1 #
coedge $-1 $616 $424 $426 $620 reversed $271 $-1 #
coedge $-1 $424 $615 $614 $746 reversed $271 $-1 #
coedge $-1 $432 $427 $424 $618 forward $433 $-1 #
edge $-1 $621 -29.476201508840404 $747 -26.366812188338713 $617 $748 forward 7 unknown #
coedge $-1 $426 $425 $624 $749 reversed $170 $-1 #
edge $-1 $750 0 $621 5.16668620301777 $615 $751 forward 7 unknown #
vertex $-1 $428 $752 #
straight-curve $-1 3.2736774711066268 -27.216835070954534 14.947375542825849 -1 0 0 I I #
coedge $-1 $614 $429 $432 $628 reversed $422 $-1 #
coedge $-1 $429 $614 $619 $749 forward $422 $-1 #
vertex $-1 $430 $753 #
straight-curve $-1 10.003859057754688 -30.326224391456222 36.705580044967135 0 0 1 I I #
straight-curve $-1 10.003859057754688 -30.326224391456222 10.821076429333928 0 -0.60181501223851219 -0.79863551827123203 I I #
edge $-1 $747 3.0908508266718187 $434 10.003859057754688 $623 $754 forward 7 unknown #
point $-1 10.003859057754688 -30.326224391456222 14.947375542825849 #
point $-1 10.003859057754688 -27.216835070954531 14.947375542825849 #
edge $-1 $755 1 $755 0 $437 $-1 forward 7 unknown #
vertex $-1 $438 $756 #
ellipse-curve $-1 6.5473549422132535 -26.603439155556124 11.250452598260914 0 -0.79863551827123203 0.60181501223851219 1 0 0 1 I I #
point $-1 7.5473549422132535 -28.77152973120538 12.884225986079898 #
plane-surface $-1 0 0 14.947375542825849 0 0 1 1 0 0 forward_v I I I I #
coedge $-1 $646 $645 $638 $757 forward $442 $-1 #
coedge $-1 $638 $444 $446 $642 reversed $286 $-1 #
coedge $-1 $444 $637 $636 $757 reversed $286 $-1 #
coedge $-1 $452 $447 $444 $640 forward $453 $-1 #
edge $-1 $643 -29.476201508840404 $758 -26.366812188338713 $639 $759 forward 7 unknown #
coedge $-1 $446 $445 $646 $760 reversed $179 $-1 #
edge $-1 $761 0 $643 5.16668620301777 $637 $762 forward 7 unknown #
vertex $-1 $448 $763 #
straight-curve $-1 9.8210324133198839 -27.216835070954534 14.947375542825849 -1 0 0 I I #
coedge $-1 $636 $449 $452 $650 reversed $442 $-1 #
coedge $-1 $449 $636 $641 $760 forward $442 $-1 #
vertex $-1 $450 $764 #
straight-curve $-1 23.098568942181203 -30.326224391456222 36.705580044967135 0 0 1 I I #
straight-curve $-1 23.098568942181203 -30.326224391456222 10.821076429333928 0 -0.60181501223851219 -0.79863551827123203 I I #
edge $-1 $758 16.185560711098333 $454 23.098568942181203 $645 $765 forward 7 unknown #
point $-1 23.098568942181203 -30.326224391456222 14.947375542825849 #
point $-1 23.098568942181203 -27.216835070954531 14.947375542825849 #
edge $-1 $766 1 $766 0 $457 $-1 forward 7 unknown #
vertex $-1 $458 $767 #
ellipse-curve $-1 19.642064826639768 -26.603439155556124 11.250452598260914 0 -0.79863551827123203 0.60181501223851219 1 0 0 1 I I #
point $-1 20.642064826639768 -28.77152973120538 12.884225986079898 #
plane-surface $-1 52.001098666341136 0 0 -1 0 0 0 0 1 forward_v I I I I #
coedge $-1 $466 $464 $468 $662 reversed $301 $-1 #
edge $-1 $479 -14.947375542825849 $664 14.947375542825849 $478 $768 forward 7 unknown #
vertex $-1 $662 $769 #
straight-curve $-1 -52.001098666341136 -30.326224391456222 0 0 0 -1 I I #
edge $-1 $660 -30.326224391456222 $664 30.326224391456222 $658 $770 forward 7 unknown #
straight-curve $-1 0 -30.326224391456222 -14.947375542825849 -1 0 0 I I #
vertex $-1 $471 $771 #
straight-curve $-1 0 30.326224391456222 -14.947375542825849 1 0 0 I I #
point $-1 52.001098666341136 30.326224391456222 -14.947375542825849 #
point $-1 52.001098666341136 -30.326224391456222 -14.947375542825849 #
straight-curve $-1 -52.001098666341136 0 14.947375542825849 0 -1 0 I I #
point $-1 -52.001098666341136 30.326224391456222 14.947375542825849 #
point $-1 -52.001098666341136 -30.326224391456222 14.947375542825849 #
straight-curve $-1 52.001098666341136 -30.326224391456222 0 0 0 -1 I I #
straight-curve $-1 52.001098666341136 30.326224391456222 0 0 0 -1 I I #
plane-surface $-1 -52.001098666341136 0 0 1 0 0 0 0 -1 forward_v I I I I #
edge $-1 $500 1.9394703407700904 $504 9.2523576153768925 $503 $772 forward 7 unknown #
edge $-1 $508 -9.2523576153768925 $499 -1.9394703407700904 $506 $773 forward 7 unknown #
straight-curve $-1 -32.371121422196666 -14.848271593450384 0 0 0 -1 I I #
edge $-1 $680 -14.947375542825849 $678 14.947375542825849 $510 $774 forward 7 unknown #
vertex $-1 $677 $775 #
straight-curve $-1 -21.09305502213445 -7.5353843188435823 -14.947375542825849 1 0 0 I I #
vertex $-1 $511 $776 #
straight-curve $-1 -21.09305502213445 -7.5353843188435823 14.947375542825849 -1 0 0 I I #
point $-1 -32.371121422196666 -7.5353843188435823 14.947375542825849 #
point $-1 -32.371121422196666 -7.5353843188435823 -14.947375542825849 #
point $-1 -32.371121422196666 -14.848271593450384 -14.947375542825849 #
point $-1 -32.371121422196666 -14.848271593450384 14.947375542825849 #
straight-curve $-1 -52.001098666341136 0 14.947375542825849 0 -1 0 I I #
straight-curve $-1 -52.001098666341136 0 -14.947375542825849 0 1 0 I I #
loop $-1 $-1 $529 $515 #
plane-surface $-1 52.001098666341136 0 0 -1 0 0 0 0 1 forward_v I I I I #
coedge $-1 $531 $522 $518 $691 forward $339 $-1 #
edge $-1 $527 11.278066400062215 $696 30.908043644206685 $690 $777 forward 7 unknown #
coedge $-1 $524 $534 $519 $693 forward $516 $-1 #
edge $-1 $697 -30.908043644206685 $526 -11.278066400062215 $692 $778 forward 7 unknown #
coedge $-1 $529 $520 $534 $706 reversed $688 $-1 #
coedge $-1 $520 $529 $531 $704 reversed $688 $-1 #
vertex $-1 $704 $779 #
vertex $-1 $521 $780 #
straight-curve $-1 52.001098666341136 -7.5353843188435823 0 0 0 1 I I #
straight-curve $-1 32.371121422196666 -5.5959139780734919 -14.947375542825849 0 1 0 I I #
straight-curve $-1 32.371121422196666 -5.5959139780734919 14.947375542825849 0 -1 0 I I #
point $-1 32.371121422196666 -7.5353843188435823 14.947375542825849 #
point $-1 32.371121422196666 -7.5353843188435823 -14.947375542825849 #
straight-curve $-1 52.001098666341136 -14.848271593450384 0 0 0 -1 I I #
edge $-1 $696 7.5353843188435823 $532 14.848271593450384 $695 $781 forward 7 unknown #
point $-1 52.001098666341136 -14.848271593450384 -14.947375542825849 #
edge $-1 $535 -14.848271593450384 $697 -7.5353843188435823 $694 $782 forward 7 unknown #
point $-1 52.001098666341136 -14.848271593450384 14.947375542825849 #
edge $-1 $709 49.988776426944568 $712 55.201996115806907 $540 $783 forward 7 unknown #
vertex $-1 $554 $784 #
straight-curve $-1 32.371121422196666 19.100178614963703 14.947375542825853 0 1 0 I I #
edge $-1 $712 -18.223883300116164 $551 -10.07059294404484 $550 $785 forward 7 unknown #
vertex $-1 $711 $786 #
straight-curve $-1 32.371121422196666 -19.956934219724531 43.65057523229197 0 -0.82903756765294845 0.55919291073839883 I I #
point $-1 32.371121422196666 22.597308506618077 14.947375542825849 #
point $-1 24.217831066125342 30.326224391456222 9.7341558539635145 #
straight-curve $-1 0 30.326224391456222 14.947375542825849 -1 0 0 I I #
vertex $-1 $557 $787 #
point $-1 26.348489137339612 25.712102879503263 11.229343771704439 #
vertex $-1 $561 $788 #
point $-1 28.794476244161004 25.712102879503263 11.229343771704439 #
vertex $-1 $565 $789 #
point $-1 31.240463350982395 25.712102879503263 11.229343771704439 #
coedge $-1 $580 $579 $572 $724 forward $569 $-1 #
edge $-1 $725 21.758204502141286 $728 25.884503615633207 $723 $790 forward 7 unknown #
vertex $-1 $584 $791 #
straight-curve $-1 -23.098568942181195 -56.693036579794935 14.947375542825849 0 -1 0 I I #
edge $-1 $728 -13.277536528861315 $581 -6.3645282977784454 $580 $792 forward 7 unknown #
vertex $-1 $727 $793 #
straight-curve $-1 -23.098568942181195 -30.326224391456222 10.821076429333928 0 0.60181501223851219 0.79863551827123203 I I #
point $-1 -23.098568942181195 -27.216835070954531 14.947375542825849 #
point $-1 -16.185560711098326 -30.326224391456222 10.821076429333928 #
straight-curve $-1 0 -30.326224391456222 14.947375542825849 1 0 0 I I #
vertex $-1 $587 $794 #
point $-1 -18.642064826639761 -26.603439155556124 11.250452598260914 #
edge $-1 $736 21.758204502141286 $739 25.884503615633207 $592 $795 forward 7 unknown #
vertex $-1 $606 $796 #
straight-curve $-1 -10.003859057754688 -56.693036579794935 14.947375542825849 0 -1 0 I I #
edge $-1 $739 -6.7301815866480617 $603 0.18282664443480812 $602 $797 forward 7 unknown #
vertex $-1 $738 $798 #
straight-curve $-1 -10.003859057754688 -30.326224391456222 10.821076429333928 0 0.60181501223851219 0.79863551827123203 I I #
point $-1 -10.003859057754688 -27.216835070954531 14.947375542825849 #
point $-1 -3.0908508266718187 -30.326224391456222 10.821076429333928 #
straight-curve $-1 0 -30.326224391456222 14.947375542825849 1 0 0 I I #
vertex $-1 $609 $799 #
point $-1 -5.5473549422132535 -26.603439155556124 11.250452598260914 #
edge $-1 $747 21.758204502141286 $750 25.884503615633207 $614 $800 forward 7 unknown #
vertex $-1 $628 $801 #
straight-curve $-1 3.0908508266718187 -56.693036579794935 14.947375542825849 0 -1 0 I I #
edge $-1 $750 -0.18282664443480812 $625 6.7301815866480617 $624 $802 forward 7 unknown #
vertex $-1 $749 $803 #
straight-curve $-1 3.0908508266718187 -30.326224391456222 10.821076429333928 0 0.60181501223851219 0.79863551827123203 I I #
point $-1 3.0908508266718187 -27.216835070954531 14.947375542825849 #
point $-1 10.003859057754688 -30.326224391456222 10.821076429333928 #
straight-curve $-1 0 -30.326224391456222 14.947375542825849 1 0 0 I I #
vertex $-1 $631 $804 #
point $-1 7.5473549422132535 -26.603439155556124 11.250452598260914 #
edge $-1 $758 21.758204502141286 $761 25.884503615633207 $636 $805 forward 7 unknown #
vertex $-1 $650 $806 #
straight-curve $-1 16.185560711098333 -56.693036579794935 14.947375542825849 0 -1 0 I I #
edge $-1 $761 6.364528297778449 $647 13.277536528861319 $646 $807 forward 7 unknown #
vertex $-1 $760 $808 #
straight-curve $-1 16.185560711098333 -30.326224391456222 10.821076429333928 0 0.60181501223851219 0.79863551827123203 I I #
point $-1 16.185560711098333 -27.216835070954531 14.947375542825849 #
point $-1 23.098568942181203 -30.326224391456222 10.821076429333928 #
straight-curve $-1 0 -30.326224391456222 14.947375542825849 1 0 0 I I #
vertex $-1 $653 $809 #
point $-1 20.642064826639768 -26.603439155556124 11.250452598260914 #
straight-curve $-1 -52.001098666341136 30.326224391456222 0 0 0 -1 I I #
point $-1 -52.001098666341136 -30.326224391456222 -14.947375542825849 #
straight-curve $-1 -52.001098666341136 0 -14.947375542825849 0 1 0 I I #
point $-1 -52.001098666341136 30.326224391456222 -14.947375542825849 #
straight-curve $-1 -32.371121422196666 -5.5959139780734919 -14.947375542825849 0 -1 0 I I #
straight-curve $-1 -32.371121422196666 -5.5959139780734919 14.947375542825849 0 1 0 I I #
straight-curve $-1 -52.001098666341136 -7.5353843188435823 0 0 0 -1 I I #
point $-1 -52.001098666341136 -7.5353843188435823 -14.947375542825849 #
point $-1 -52.001098666341136 -7.5353843188435823 14.947375542825849 #
straight-curve $-1 21.09305502213445 -7.5353843188435823 -14.947375542825849 1 0 0 I I #
straight-curve $-1 21.09305502213445 -7.5353843188435823 14.947375542825849 -1 0 0 I I #
point $-1 52.001098666341136 -7.5353843188435823 -14.947375542825849 #
point $-1 52.001098666341136 -7.5353843188435823 14.947375542825849 #
straight-curve $-1 52.001098666341136 0 -14.947375542825849 0 -1 0 I I #
straight-curve $-1 52.001098666341136 0 14.947375542825849 0 1 0 I I #
straight-curve $-1 32.371121422196666 30.326224391456222 64.936151969770421 0 0 -1 I I #
point $-1 32.371121422196666 30.326224391456222 14.947375542825849 #
straight-curve $-1 14.147238122080502 30.326224391456222 9.7341558539635091 -1 0 0 I I #
point $-1 32.371121422196666 30.326224391456222 9.7341558539635145 #
point $-1 25.848489137339612 25.432506424134061 10.814824987877966 #
point $-1 28.294476244161004 25.432506424134061 10.814824987877966 #
point $-1 30.740463350982395 25.432506424134061 10.814824987877966 #
straight-curve $-1 -23.098568942181195 -30.326224391456222 36.705580044967135 0 0 -1 I I #
point $-1 -23.098568942181195 -30.326224391456222 14.947375542825849 #
straight-curve $-1 -9.8210324133198803 -30.326224391456222 10.821076429333925 1 0 0 I I #
point $-1 -23.098568942181195 -30.326224391456222 10.821076429333928 #
point $-1 -19.642064826639761 -25.804803637284891 10.648637586022403 #
straight-curve $-1 -10.003859057754688 -30.326224391456222 36.705580044967135 0 0 -1 I I #
point $-1 -10.003859057754688 -30.326224391456222 14.947375542825849 #
straight-curve $-1 -3.2736774711066268 -30.326224391456222 10.821076429333925 1 0 0 I I #
point $-1 -10.003859057754688 -30.326224391456222 10.821076429333928 #
point $-1 -6.5473549422132535 -25.804803637284891 10.648637586022403 #
straight-curve $-1 3.0908508266718187 -30.326224391456222 36.705580044967135 0 0 -1 I I #
point $-1 3.0908508266718187 -30.326224391456222 14.947375542825849 #
straight-curve $-1 3.2736774711066268 -30.326224391456222 10.821076429333925 1 0 0 I I #
point $-1 3.0908508266718187 -30.326224391456222 10.821076429333928 #
point $-1 6.5473549422132535 -25.804803637284891 10.648637586022403 #
straight-curve $-1 16.185560711098333 -30.326224391456222 36.705580044967135 0 0 -1 I I #
point $-1 16.185560711098333 -30.326224391456222 14.947375542825849 #
straight-curve $-1 9.8210324133198839 -30.326224391456222 10.821076429333925 1 0 0 I I #
point $-1 16.185560711098333 -30.326224391456222 10.821076429333928 #
point $-1 19.642064826639768 -25.804803637284891 10.648637586022403 #
End-of-ACIS-data 