500 0 9 0           
7 Unknown 11 ACIS 5.0 NT 24 Fri Mar 26 01:46:21 1999 
-1 9.9999999999999995e-007 1e-010 
body $-1 $9 $-1 $10 #
body $-1 $11 $-1 $12 #
body $-1 $13 $-1 $14 #
body $-1 $15 $-1 $16 #
body $-1 $17 $-1 $18 #
body $-1 $19 $-1 $20 #
body $-1 $21 $-1 $22 #
body $-1 $23 $-1 $24 #
body $-1 $25 $-1 $26 #
lump $-1 $-1 $27 $0 #
transform $-1 1 0 0 0 1 0 0 0 1 70.70162053285317 34.49678940986653 17.046890585146638 1 rotate no_reflect no_shear #
lump $-1 $-1 $28 $1 #
transform $-1 1 0 0 0 1 0 0 0 1 70.70162053285317 34.49678940986653 17.046890585146638 1 rotate no_reflect no_shear #
lump $-1 $-1 $29 $2 #
transform $-1 1 0 0 0 1 0 0 0 1 70.70162053285317 34.49678940986653 17.046890585146638 1 rotate no_reflect no_shear #
lump $-1 $-1 $30 $3 #
transform $-1 1 0 0 0 1 0 0 0 1 70.70162053285317 34.49678940986653 17.046890585146638 1 rotate no_reflect no_shear #
lump $-1 $-1 $31 $4 #
transform $-1 1 0 0 0 1 0 0 0 1 70.70162053285317 34.49678940986653 17.046890585146638 1 rotate no_reflect no_shear #
lump $-1 $-1 $32 $5 #
transform $-1 1 0 0 0 1 0 0 0 1 70.70162053285317 34.49678940986653 17.046890585146638 1 rotate no_reflect no_shear #
lump $-1 $-1 $33 $6 #
transform $-1 1 0 0 0 1 0 0 0 1 70.70162053285317 34.49678940986653 17.046890585146638 1 rotate no_reflect no_shear #
lump $-1 $-1 $34 $7 #
transform $-1 1 0 0 0 1 0 0 0 1 70.70162053285317 34.49678940986653 17.046890585146638 1 rotate no_reflect no_shear #
lump $-1 $-1 $35 $8 #
transform $-1 1 0 0 0 1 0 0 0 1 70.70162053285317 34.49678940986653 17.046890585146638 1 rotate no_reflect no_shear #
shell $-1 $-1 $-1 $36 $-1 $9 #
shell $-1 $-1 $-1 $37 $-1 $11 #
shell $-1 $-1 $-1 $38 $-1 $13 #
shell $-1 $-1 $-1 $39 $-1 $15 #
shell $-1 $-1 $-1 $40 $-1 $17 #
shell $-1 $-1 $-1 $41 $-1 $19 #
shell $-1 $-1 $-1 $42 $-1 $21 #
shell $-1 $-1 $-1 $43 $-1 $23 #
shell $-1 $-1 $-1 $44 $-1 $25 #
face $-1 $45 $46 $27 $-1 $47 forward single #
face $-1 $48 $49 $28 $-1 $50 forward single #
face $-1 $51 $52 $29 $-1 $53 reversed single #
face $-1 $54 $55 $30 $-1 $56 forward single #
face $-1 $57 $58 $31 $-1 $59 forward single #
face $-1 $60 $61 $32 $-1 $62 reversed single #
face $-1 $63 $64 $33 $-1 $65 forward single #
face $-1 $66 $67 $34 $-1 $68 forward single #
face $-1 $69 $70 $35 $-1 $71 forward single #
face $-1 $72 $73 $27 $-1 $74 reversed single #
loop $-1 $-1 $75 $36 #
plane-surface $-1 0 0 17.046890585146638 0 0 1 1 0 0 forward_v I I I I #
face $-1 $76 $77 $28 $-1 $78 reversed single #
loop $-1 $-1 $79 $37 #
plane-surface $-1 -62.50985788112461 0 6.2976761326979638 0 0 1 1 0 0 forward_v I I I I #
face $-1 $80 $81 $29 $-1 $82 reversed single #
loop $-1 $-1 $83 $38 #
plane-surface $-1 -54.31809522939605 69.866652768448347 162.79436455398866 1 0 0 0 -0.62932039886446345 -0.77714595512881146 forward_v I I I I #
face $-1 $84 $85 $30 $-1 $86 forward single #
loop $-1 $87 $88 $39 #
cone-surface $-1 -44.123414345431968 27.898751215273876 10.884051425011751 0 -0.62932039886446345 -0.77714595512881146 3 0 0 1 I I 0 1 3 forward I I I I #
face $-1 $89 $90 $31 $-1 $91 forward single #
loop $-1 $92 $93 $40 #
cone-surface $-1 -28.831393019485851 27.898751215273876 10.884051425011751 0 -0.62932039886446345 -0.77714595512881146 3 0 0 1 I I 0 1 3 forward I I I I #
face $-1 $94 $95 $32 $-1 $96 reversed single #
loop $-1 $-1 $97 $41 #
plane-surface $-1 60.512088372126712 -123.48473347806473 118.5089151917732 -1 0 0 0 -0.62932039886446345 0.77714595512881146 forward_v I I I I #
face $-1 $98 $99 $33 $-1 $100 forward single #
loop $-1 $101 $102 $42 #
cone-surface $-1 45.167708645977768 -28.485161263239831 11.835620405994446 0 0.62932039886446345 -0.77714595512881146 1.5 0 0 1 I I 0 1 1.5 forward I I I I #
face $-1 $103 $104 $34 $-1 $105 forward single #
loop $-1 $106 $107 $43 #
cone-surface $-1 50.921851043283624 -28.485161263239831 11.835620405994446 0 0.62932039886446345 -0.77714595512881146 1.5 0 0 1 I I 0 1 1.5 forward I I I I #
face $-1 $108 $109 $35 $-1 $110 forward single #
loop $-1 $111 $112 $44 #
cone-surface $-1 56.67599344058948 -28.485161263239831 11.835620405994446 0 0.62932039886446345 -0.77714595512881146 1.5 0 0 1 I I 0 1 1.5 forward I I I I #
face $-1 $113 $114 $27 $-1 $115 reversed single #
loop $-1 $-1 $116 $45 #
plane-surface $-1 0 0 -17.046890585146638 0 0 1 1 0 0 forward_v I I I I #
coedge $-1 $117 $118 $119 $120 forward $46 $-1 #
face $-1 $121 $122 $28 $-1 $123 reversed single #
loop $-1 $-1 $124 $48 #
plane-surface $-1 -62.50985788112461 0 1.2027019740451994 0 0 1 1 0 0 forward_v I I I I #
coedge $-1 $125 $126 $127 $128 forward $49 $-1 #
face $-1 $129 $130 $29 $-1 $131 reversed single #
loop $-1 $-1 $132 $51 #
plane-surface $-1 -36.477403682458913 -19.121291299749842 52.903407717670731 0 0.62932039886446345 0.77714595512881146 1 0 0 forward_v I I I I #
coedge $-1 $133 $134 $135 $136 reversed $52 $-1 #
face $-1 $-1 $137 $30 $-1 $138 forward single #
loop $-1 $139 $140 $54 #
cone-surface $-1 -44.123414345431968 25.026217707288296 7.3367680368822086 0 -0.62932039886446345 -0.77714595512881146 1.5 0 0 1 I I -0.70710678118654757 0.70710678118654757 1.5 forward I I I I #
loop $-1 $-1 $141 $39 #
coedge $-1 $88 $88 $142 $143 reversed $55 $-1 #
face $-1 $-1 $144 $31 $-1 $145 forward single #
loop $-1 $146 $147 $57 #
cone-surface $-1 -28.831393019485851 25.026217707288296 7.3367680368822086 0 -0.62932039886446345 -0.77714595512881146 1.5 0 0 1 I I -0.70710678118654757 0.70710678118654757 1.5 forward I I I I #
loop $-1 $-1 $148 $40 #
coedge $-1 $93 $93 $149 $150 reversed $58 $-1 #
face $-1 $151 $152 $32 $-1 $153 reversed single #
loop $-1 $-1 $154 $60 #
plane-surface $-1 50.921851043283624 -34.496789409866537 8.6179583554552721 0 -0.62932039886446345 0.77714595512881146 1 0 0 forward_v I I I I #
coedge $-1 $155 $156 $157 $158 reversed $61 $-1 #
face $-1 $-1 $159 $33 $-1 $160 forward single #
loop $-1 $161 $162 $63 #
cone-surface $-1 45.167708645977768 -27.205974931995929 10.255956875341333 0 0.62932039886446345 -0.77714595512881146 0.75 0 0 1 I I -0.70710678118654757 0.70710678118654757 0.75 forward I I I I #
loop $-1 $-1 $163 $42 #
coedge $-1 $102 $102 $164 $165 reversed $64 $-1 #
face $-1 $-1 $166 $34 $-1 $167 forward single #
loop $-1 $168 $169 $66 #
cone-surface $-1 50.921851043283624 -27.205974931995929 10.255956875341333 0 0.62932039886446345 -0.77714595512881146 0.75 0 0 1 I I -0.70710678118654757 0.70710678118654757 0.75 forward I I I I #
loop $-1 $-1 $170 $43 #
coedge $-1 $107 $107 $171 $172 reversed $67 $-1 #
face $-1 $-1 $173 $35 $-1 $174 forward single #
loop $-1 $175 $176 $69 #
cone-surface $-1 56.67599344058948 -27.205974931995929 10.255956875341333 0 0.62932039886446345 -0.77714595512881146 0.75 0 0 1 I I -0.70710678118654757 0.70710678118654757 0.75 forward I I I I #
loop $-1 $-1 $177 $44 #
coedge $-1 $112 $112 $178 $179 reversed $70 $-1 #
face $-1 $180 $181 $27 $-1 $182 reversed single #
loop $-1 $-1 $183 $72 #
plane-surface $-1 0 -34.49678940986653 0 0 1 0 0 0 1 forward_v I I I I #
coedge $-1 $184 $185 $186 $187 forward $73 $-1 #
coedge $-1 $188 $75 $189 $190 forward $46 $-1 #
coedge $-1 $75 $188 $191 $192 forward $46 $-1 #
coedge $-1 $193 $194 $75 $120 reversed $195 $-1 #
edge $-1 $196 -34.49678940986653 $197 34.49678940986653 $119 $198 forward 7 unknown #
face $-1 $199 $200 $28 $-1 $201 reversed single #
loop $-1 $-1 $202 $76 #
plane-surface $-1 -54.31809522939605 0 3.7501890533715816 -1 0 0 0 0 1 forward_v I I I I #
coedge $-1 $203 $204 $205 $206 forward $77 $-1 #
coedge $-1 $207 $79 $208 $209 reversed $49 $-1 #
coedge $-1 $79 $207 $210 $211 reversed $49 $-1 #
coedge $-1 $202 $212 $79 $128 reversed $122 $-1 #
edge $-1 $213 -34.49678940986653 $214 34.49678940986653 $127 $215 forward 7 unknown #
face $-1 $216 $217 $29 $-1 $218 forward single #
loop $-1 $-1 $219 $80 #
plane-surface $-1 -18.636712135521776 69.866652768448347 162.79436455398866 -1 0 0 0 0.62932039886446345 0.77714595512881146 forward_v I I I I #
coedge $-1 $220 $221 $222 $223 reversed $81 $-1 #
coedge $-1 $134 $83 $224 $225 reversed $52 $-1 #
coedge $-1 $83 $133 $220 $226 reversed $52 $-1 #
coedge $-1 $222 $227 $83 $136 forward $217 $-1 #
edge $-1 $228 0.43653697435764371 $229 9.7755075441651513 $135 $230 forward 7 unknown #
loop $-1 $-1 $142 $84 #
plane-surface $-1 -36.477403682458913 -19.121291299749842 52.903407717670731 0 0.62932039886446345 0.77714595512881146 1 0 0 forward_v I I I I #
loop $-1 $-1 $231 $54 #
coedge $-1 $140 $140 $141 $232 reversed $85 $-1 #
coedge $-1 $141 $141 $140 $232 forward $87 $-1 #
coedge $-1 $142 $142 $88 $143 forward $137 $-1 #
edge $-1 $233 7.9028762517378823e-016 $233 6.2831853071796013 $142 $234 forward 7 unknown #
loop $-1 $-1 $149 $89 #
plane-surface $-1 -36.477403682458913 -19.121291299749842 52.903407717670731 0 0.62932039886446345 0.77714595512881146 1 0 0 forward_v I I I I #
loop $-1 $-1 $235 $57 #
coedge $-1 $147 $147 $148 $236 reversed $90 $-1 #
coedge $-1 $148 $148 $147 $236 forward $92 $-1 #
coedge $-1 $149 $149 $93 $150 forward $144 $-1 #
edge $-1 $237 7.9028762517378823e-016 $237 6.2831853071796013 $149 $238 forward 7 unknown #
face $-1 $239 $240 $32 $-1 $241 reversed single #
loop $-1 $-1 $242 $94 #
plane-surface $-1 41.331613714440536 -123.48473347806473 118.5089151917732 1 0 0 0 0.62932039886446345 -0.77714595512881146 forward_v I I I I #
coedge $-1 $243 $244 $245 $246 reversed $95 $-1 #
coedge $-1 $156 $97 $247 $248 reversed $61 $-1 #
coedge $-1 $97 $155 $243 $249 reversed $61 $-1 #
coedge $-1 $245 $250 $97 $158 forward $251 $-1 #
edge $-1 $252 27.245577329165833 $253 37.654441558228108 $157 $254 forward 7 unknown #
loop $-1 $-1 $164 $98 #
plane-surface $-1 50.921851043283624 -34.496789409866537 8.6179583554552721 0 -0.62932039886446345 0.77714595512881146 1 0 0 forward_v I I I I #
loop $-1 $-1 $255 $63 #
coedge $-1 $162 $162 $163 $256 reversed $99 $-1 #
coedge $-1 $163 $163 $162 $256 forward $101 $-1 #
coedge $-1 $164 $164 $102 $165 forward $159 $-1 #
edge $-1 $257 -1.140408875718216e-015 $257 6.2831853071795996 $164 $258 forward 7 unknown #
loop $-1 $-1 $171 $103 #
plane-surface $-1 50.921851043283624 -34.496789409866537 8.6179583554552721 0 -0.62932039886446345 0.77714595512881146 1 0 0 forward_v I I I I #
loop $-1 $-1 $259 $66 #
coedge $-1 $169 $169 $170 $260 reversed $104 $-1 #
coedge $-1 $170 $170 $169 $260 forward $106 $-1 #
coedge $-1 $171 $171 $107 $172 forward $166 $-1 #
edge $-1 $261 -1.140408875718216e-015 $261 6.2831853071795996 $171 $262 forward 7 unknown #
loop $-1 $-1 $178 $108 #
plane-surface $-1 50.921851043283624 -34.496789409866537 8.6179583554552721 0 -0.62932039886446345 0.77714595512881146 1 0 0 forward_v I I I I #
loop $-1 $-1 $263 $69 #
coedge $-1 $176 $176 $177 $264 reversed $109 $-1 #
coedge $-1 $177 $177 $176 $264 forward $111 $-1 #
coedge $-1 $178 $178 $112 $179 forward $173 $-1 #
edge $-1 $265 -1.140408875718216e-015 $265 6.2831853071795996 $178 $266 forward 7 unknown #
face $-1 $267 $268 $27 $-1 $269 reversed single #
loop $-1 $-1 $270 $113 #
plane-surface $-1 -70.70162053285317 0 0 1 0 0 0 0 -1 forward_v I I I I #
coedge $-1 $271 $191 $272 $273 forward $114 $-1 #
coedge $-1 $274 $116 $271 $275 forward $73 $-1 #
coedge $-1 $116 $274 $276 $277 forward $73 $-1 #
coedge $-1 $194 $193 $116 $187 reversed $195 $-1 #
edge $-1 $278 -34.49678940986653 $279 34.49678940986653 $186 $280 forward 7 unknown #
coedge $-1 $118 $117 $281 $282 forward $46 $-1 #
coedge $-1 $283 $284 $117 $190 reversed $268 $-1 #
edge $-1 $197 -70.70162053285317 $285 70.70162053285317 $189 $286 forward 7 unknown #
coedge $-1 $183 $287 $118 $192 reversed $114 $-1 #
edge $-1 $288 -70.70162053285317 $196 70.70162053285317 $191 $289 forward 7 unknown #
coedge $-1 $186 $119 $287 $290 forward $195 $-1 #
coedge $-1 $119 $186 $283 $291 reversed $195 $-1 #
loop $-1 $-1 $193 $267 #
vertex $-1 $120 $292 #
vertex $-1 $120 $293 #
straight-curve $-1 70.70162053285317 0 17.046890585146638 0 1 0 I I #
face $-1 $294 $295 $28 $-1 $296 reversed single #
loop $-1 $-1 $297 $121 #
plane-surface $-1 0 -34.49678940986653 0 0 1 0 0 0 1 forward_v I I I I #
coedge $-1 $205 $127 $298 $299 reversed $122 $-1 #
coedge $-1 $300 $124 $297 $301 reversed $77 $-1 #
coedge $-1 $124 $300 $302 $303 reversed $77 $-1 #
coedge $-1 $212 $202 $124 $206 reversed $122 $-1 #
edge $-1 $304 -34.49678940986653 $305 34.49678940986653 $205 $306 forward 7 unknown #
coedge $-1 $126 $125 $307 $308 reversed $49 $-1 #
coedge $-1 $309 $310 $125 $209 forward $311 $-1 #
edge $-1 $312 -39.446691592290861 $214 -23.063166288833745 $208 $313 forward 7 unknown #
coedge $-1 $314 $298 $126 $211 forward $200 $-1 #
edge $-1 $213 23.063166288833745 $315 39.446691592290861 $210 $316 forward 7 unknown #
coedge $-1 $127 $205 $309 $317 reversed $122 $-1 #
vertex $-1 $211 $318 #
vertex $-1 $209 $319 #
straight-curve $-1 -54.31809522939605 0 6.2976761326979638 0 1 0 I I #
face $-1 $-1 $320 $29 $-1 $321 reversed single #
loop $-1 $-1 $135 $129 #
plane-surface $-1 0 0 17.046890585146638 0 0 1 1 0 0 forward_v I I I I #
coedge $-1 $322 $323 $324 $325 reversed $130 $-1 #
coedge $-1 $326 $132 $134 $226 forward $81 $-1 #
coedge $-1 $132 $326 $322 $327 forward $81 $-1 #
coedge $-1 $324 $135 $132 $223 forward $217 $-1 #
edge $-1 $229 -36.079393388166594 $328 -0.3980102942923196 $222 $329 forward 7 unknown #
coedge $-1 $330 $331 $133 $225 forward $320 $-1 #
edge $-1 $332 -71.912841101244794 $228 -64.350291691847687 $224 $333 forward 7 unknown #
edge $-1 $229 56.976569005586128 $332 68.993578819733045 $134 $334 forward 7 unknown #
coedge $-1 $135 $324 $330 $335 forward $217 $-1 #
vertex $-1 $225 $336 #
vertex $-1 $136 $337 #
straight-curve $-1 -54.31809522939605 34.933326384224173 17.046890585146642 0 -1 0 I I #
coedge $-1 $231 $231 $-1 $338 reversed $139 $-1 #
edge $-1 $339 0 $339 6.2831853071796004 $140 $340 forward 7 unknown #
vertex $-1 $143 $341 #
ellipse-curve $-1 -44.123414345431968 29.827304124962776 13.265615880448097 0 0.62932039886446345 0.77714595512881146 3 0 0 1 I I #
coedge $-1 $235 $235 $-1 $342 reversed $146 $-1 #
edge $-1 $343 0 $343 6.2831853071796004 $147 $344 forward 7 unknown #
vertex $-1 $150 $345 #
ellipse-curve $-1 -28.831393019485851 29.827304124962776 13.265615880448097 0 0.62932039886446345 0.77714595512881146 3 0 0 1 I I #
face $-1 $-1 $251 $32 $-1 $346 forward single #
loop $-1 $-1 $347 $151 #
plane-surface $-1 0 -34.49678940986653 0 0 1 0 0 0 1 forward_v I I I I #
coedge $-1 $348 $349 $350 $351 reversed $152 $-1 #
coedge $-1 $352 $154 $156 $249 forward $95 $-1 #
coedge $-1 $154 $352 $348 $353 forward $95 $-1 #
coedge $-1 $350 $157 $154 $246 forward $251 $-1 #
edge $-1 $253 -35.0511628504849 $354 -15.870688192798724 $245 $355 forward 7 unknown #
coedge $-1 $356 $357 $155 $248 forward $240 $-1 #
edge $-1 $358 -50.63649924043132 $252 -42.207567010739965 $247 $359 forward 7 unknown #
edge $-1 $253 -13.393705725891628 $358 -8.8756469145121664e-015 $156 $360 forward 7 unknown #
coedge $-1 $157 $350 $356 $361 forward $251 $-1 #
loop $-1 $-1 $350 $239 #
vertex $-1 $248 $362 #
vertex $-1 $158 $363 #
straight-curve $-1 60.512088372126712 -61.742366739032363 17.046890585146642 0 1 0 I I #
coedge $-1 $255 $255 $-1 $364 reversed $161 $-1 #
edge $-1 $365 0 $365 6.2831853071796004 $162 $366 forward 7 unknown #
vertex $-1 $165 $367 #
ellipse-curve $-1 45.167708645977768 -29.292357295335393 12.832424470300959 0 -0.62932039886446345 0.77714595512881146 1.5 0 0 1 I I #
coedge $-1 $259 $259 $-1 $368 reversed $168 $-1 #
edge $-1 $369 0 $369 6.2831853071796004 $169 $370 forward 7 unknown #
vertex $-1 $172 $371 #
ellipse-curve $-1 50.921851043283624 -29.292357295335393 12.832424470300959 0 -0.62932039886446345 0.77714595512881146 1.5 0 0 1 I I #
coedge $-1 $263 $263 $-1 $372 reversed $175 $-1 #
edge $-1 $373 0 $373 6.2831853071796004 $176 $374 forward 7 unknown #
vertex $-1 $179 $375 #
ellipse-curve $-1 56.67599344058948 -29.292357295335393 12.832424470300959 0 -0.62932039886446345 0.77714595512881146 1.5 0 0 1 I I #
face $-1 $-1 $195 $27 $-1 $376 reversed single #
loop $-1 $-1 $283 $180 #
plane-surface $-1 0 34.49678940986653 0 0 -1 0 0 0 -1 forward_v I I I I #
coedge $-1 $377 $281 $284 $378 forward $181 $-1 #
coedge $-1 $287 $183 $184 $275 reversed $114 $-1 #
coedge $-1 $281 $377 $183 $273 reversed $181 $-1 #
edge $-1 $288 -17.046890585146638 $379 17.046890585146638 $272 $380 forward 7 unknown #
coedge $-1 $185 $184 $377 $381 forward $73 $-1 #
edge $-1 $279 -70.70162053285317 $379 70.70162053285317 $271 $382 forward 7 unknown #
coedge $-1 $284 $283 $185 $277 reversed $268 $-1 #
edge $-1 $383 -70.70162053285317 $278 70.70162053285317 $276 $384 forward 7 unknown #
vertex $-1 $187 $385 #
vertex $-1 $290 $386 #
straight-curve $-1 70.70162053285317 0 -17.046890585146638 0 -1 0 I I #
coedge $-1 $270 $272 $188 $282 reversed $181 $-1 #
edge $-1 $285 -34.49678940986653 $288 34.49678940986653 $281 $387 forward 7 unknown #
coedge $-1 $276 $189 $194 $291 forward $268 $-1 #
coedge $-1 $189 $276 $270 $378 reversed $268 $-1 #
vertex $-1 $190 $388 #
straight-curve $-1 0 34.49678940986653 17.046890585146638 -1 0 0 I I #
coedge $-1 $191 $271 $193 $290 reversed $114 $-1 #
vertex $-1 $282 $389 #
straight-curve $-1 0 -34.49678940986653 17.046890585146638 1 0 0 I I #
edge $-1 $196 -17.046890585146638 $279 17.046890585146638 $193 $390 forward 7 unknown #
edge $-1 $197 -17.046890585146638 $278 17.046890585146638 $194 $391 forward 7 unknown #
point $-1 70.70162053285317 -34.49678940986653 17.046890585146638 #
point $-1 70.70162053285317 34.49678940986653 17.046890585146638 #
face $-1 $-1 $311 $28 $-1 $392 reversed single #
loop $-1 $-1 $393 $199 #
plane-surface $-1 -70.70162053285317 0 0 1 0 0 0 0 -1 forward_v I I I I #
coedge $-1 $298 $314 $203 $301 forward $200 $-1 #
coedge $-1 $210 $297 $202 $299 forward $200 $-1 #
edge $-1 $305 -0.67239255264059139 $213 4.422581606012173 $298 $394 forward 7 unknown #
coedge $-1 $204 $203 $393 $395 reversed $77 $-1 #
edge $-1 $396 -39.446691592290861 $305 -23.063166288833745 $297 $397 forward 7 unknown #
coedge $-1 $310 $309 $204 $303 forward $311 $-1 #
edge $-1 $304 23.063166288833745 $398 39.446691592290861 $302 $399 forward 7 unknown #
vertex $-1 $303 $400 #
vertex $-1 $301 $401 #
straight-curve $-1 -54.31809522939605 0 1.2027019740451994 0 -1 0 I I #
coedge $-1 $402 $403 $207 $308 forward $295 $-1 #
edge $-1 $315 -34.49678940986653 $312 34.49678940986653 $307 $404 forward 7 unknown #
coedge $-1 $302 $208 $212 $317 forward $311 $-1 #
coedge $-1 $208 $302 $402 $405 reversed $311 $-1 #
loop $-1 $-1 $302 $294 #
vertex $-1 $405 $406 #
straight-curve $-1 -31.254928940562305 34.49678940986653 6.2976761326979638 1 0 0 I I #
coedge $-1 $297 $210 $403 $407 forward $200 $-1 #
vertex $-1 $407 $408 #
straight-curve $-1 -31.254928940562305 -34.49678940986653 6.2976761326979638 -1 0 0 I I #
edge $-1 $214 -4.422581606012173 $304 0.67239255264059139 $309 $409 forward 7 unknown #
point $-1 -54.31809522939605 -34.49678940986653 6.2976761326979638 #
point $-1 -54.31809522939605 34.49678940986653 6.2976761326979638 #
loop $-1 $-1 $224 $216 #
plane-surface $-1 0 34.49678940986653 0 0 -1 0 0 0 -1 forward_v I I I I #
coedge $-1 $323 $219 $221 $327 reversed $130 $-1 #
coedge $-1 $219 $322 $410 $411 reversed $130 $-1 #
coedge $-1 $227 $222 $219 $325 forward $217 $-1 #
edge $-1 $328 -9.7755075441651513 $412 -0.43653697435764371 $324 $413 forward 7 unknown #
coedge $-1 $221 $220 $331 $414 reversed $81 $-1 #
edge $-1 $415 -68.993578819733045 $328 -56.976569005586128 $322 $416 forward 7 unknown #
vertex $-1 $223 $417 #
straight-curve $-1 -18.238701841229457 25.15781884005904 17.046890585146635 1 0 0 I I #
coedge $-1 $410 $224 $227 $335 reversed $320 $-1 #
coedge $-1 $224 $410 $326 $414 forward $320 $-1 #
vertex $-1 $225 $418 #
straight-curve $-1 -54.31809522939605 34.49678940986653 81.397182276994329 0 0 1 I I #
straight-curve $-1 -54.31809522939605 -19.121291299749842 52.903407717670731 0 0.77714595512881146 -0.62932039886446345 I I #
edge $-1 $412 18.636712135521776 $228 54.31809522939605 $330 $419 forward 7 unknown #
point $-1 -54.31809522939605 34.49678940986653 17.046890585146638 #
point $-1 -54.31809522939605 25.157818840059022 17.046890585146642 #
edge $-1 $420 1 $420 0 $231 $-1 forward 7 unknown #
vertex $-1 $232 $421 #
ellipse-curve $-1 -44.123414345431968 25.97019830558499 8.5024869695754255 0 0.62932039886446345 0.77714595512881146 3 0 0 1 I I #
point $-1 -41.123414345431968 29.827304124962762 13.265615880448076 #
edge $-1 $422 1 $422 0 $235 $-1 forward 7 unknown #
vertex $-1 $236 $423 #
ellipse-curve $-1 -28.831393019485851 25.97019830558499 8.5024869695754255 0 0.62932039886446345 0.77714595512881146 3 0 0 1 I I #
point $-1 -25.831393019485851 29.827304124962762 13.265615880448076 #
plane-surface $-1 0 0 17.046890585146638 0 0 1 1 0 0 forward_v I I I I #
coedge $-1 $357 $356 $349 $424 forward $240 $-1 #
coedge $-1 $349 $242 $244 $353 reversed $152 $-1 #
coedge $-1 $242 $348 $347 $424 reversed $152 $-1 #
coedge $-1 $250 $245 $242 $351 forward $251 $-1 #
edge $-1 $354 -37.654441558228108 $425 -27.245577329165833 $350 $426 forward 7 unknown #
coedge $-1 $244 $243 $357 $427 reversed $95 $-1 #
edge $-1 $428 8.8756469145121664e-015 $354 13.393705725891628 $348 $429 forward 7 unknown #
vertex $-1 $246 $430 #
straight-curve $-1 25.460925521641812 -24.087925180804259 17.046890585146638 -1 0 0 I I #
coedge $-1 $347 $247 $250 $361 reversed $240 $-1 #
coedge $-1 $247 $347 $352 $427 forward $240 $-1 #
vertex $-1 $248 $431 #
straight-curve $-1 60.512088372126712 -34.49678940986653 59.254457595886599 0 0 1 I I #
straight-curve $-1 60.512088372126712 -34.496789409866537 8.6179583554552721 0 -0.77714595512881146 -0.62932039886446345 I I #
edge $-1 $425 41.331613714440536 $252 60.512088372126712 $356 $432 forward 7 unknown #
point $-1 60.512088372126712 -34.49678940986653 17.046890585146638 #
point $-1 60.512088372126712 -24.087925180804255 17.046890585146638 #
edge $-1 $433 1 $433 0 $255 $-1 forward 7 unknown #
vertex $-1 $256 $434 #
ellipse-curve $-1 45.167708645977768 -27.677965231144277 10.838816341687942 0 -0.62932039886446345 0.77714595512881146 1.5 0 0 1 I I #
point $-1 46.667708645977768 -29.292357295335389 12.832424470300952 #
edge $-1 $435 1 $435 0 $259 $-1 forward 7 unknown #
vertex $-1 $260 $436 #
ellipse-curve $-1 50.921851043283624 -27.677965231144277 10.838816341687942 0 -0.62932039886446345 0.77714595512881146 1.5 0 0 1 I I #
point $-1 52.421851043283624 -29.292357295335389 12.832424470300952 #
edge $-1 $437 1 $437 0 $263 $-1 forward 7 unknown #
vertex $-1 $264 $438 #
ellipse-curve $-1 56.67599344058948 -27.677965231144277 10.838816341687942 0 -0.62932039886446345 0.77714595512881146 1.5 0 0 1 I I #
point $-1 58.17599344058948 -29.292357295335389 12.832424470300952 #
plane-surface $-1 70.70162053285317 0 0 -1 0 0 0 0 1 forward_v I I I I #
coedge $-1 $272 $270 $274 $381 reversed $181 $-1 #
edge $-1 $285 -17.046890585146638 $383 17.046890585146638 $284 $439 forward 7 unknown #
vertex $-1 $381 $440 #
straight-curve $-1 -70.70162053285317 -34.49678940986653 0 0 0 -1 I I #
edge $-1 $379 -34.49678940986653 $383 34.49678940986653 $377 $441 forward 7 unknown #
straight-curve $-1 0 -34.49678940986653 -17.046890585146638 -1 0 0 I I #
vertex $-1 $277 $442 #
straight-curve $-1 0 34.49678940986653 -17.046890585146638 1 0 0 I I #
point $-1 70.70162053285317 34.49678940986653 -17.046890585146638 #
point $-1 70.70162053285317 -34.49678940986653 -17.046890585146638 #
straight-curve $-1 -70.70162053285317 0 17.046890585146638 0 -1 0 I I #
point $-1 -70.70162053285317 34.49678940986653 17.046890585146638 #
point $-1 -70.70162053285317 -34.49678940986653 17.046890585146638 #
straight-curve $-1 70.70162053285317 -34.49678940986653 0 0 0 -1 I I #
straight-curve $-1 70.70162053285317 34.49678940986653 0 0 0 -1 I I #
plane-surface $-1 0 34.49678940986653 0 0 -1 0 0 0 -1 forward_v I I I I #
coedge $-1 $403 $402 $300 $395 forward $295 $-1 #
straight-curve $-1 -54.31809522939605 -34.49678940986653 1.8750945266857908 0 0 1 I I #
edge $-1 $398 -34.49678940986653 $396 34.49678940986653 $393 $443 forward 7 unknown #
vertex $-1 $301 $444 #
straight-curve $-1 -31.254928940562305 -34.49678940986653 1.2027019740451994 1 0 0 I I #
vertex $-1 $303 $445 #
straight-curve $-1 -31.254928940562305 34.49678940986653 1.2027019740451994 -1 0 0 I I #
point $-1 -54.31809522939605 34.49678940986653 1.2027019740451994 #
point $-1 -54.31809522939605 -34.49678940986653 1.2027019740451994 #
coedge $-1 $393 $307 $310 $405 forward $295 $-1 #
coedge $-1 $307 $393 $314 $407 reversed $295 $-1 #
straight-curve $-1 -70.70162053285317 0 6.2976761326979638 0 1 0 I I #
edge $-1 $312 -6.2976761326979638 $398 -1.2027019740451994 $310 $446 forward 7 unknown #
point $-1 -70.70162053285317 34.49678940986653 6.2976761326979638 #
edge $-1 $315 -6.2976761326979638 $396 -1.2027019740451994 $403 $447 forward 7 unknown #
point $-1 -70.70162053285317 -34.49678940986653 6.2976761326979638 #
straight-curve $-1 -54.31809522939605 34.49678940986653 1.8750945266857908 0 0 -1 I I #
coedge $-1 $331 $330 $323 $411 forward $320 $-1 #
edge $-1 $412 64.350291691847687 $415 71.912841101244794 $410 $448 forward 7 unknown #
vertex $-1 $335 $449 #
straight-curve $-1 -18.636712135521776 34.933326384224173 17.046890585146642 0 1 0 I I #
edge $-1 $415 0.3980102942923196 $332 36.079393388166594 $331 $450 forward 7 unknown #
vertex $-1 $414 $451 #
straight-curve $-1 -18.636712135521776 -19.121291299749842 52.903407717670731 0 -0.77714595512881146 0.62932039886446345 I I #
point $-1 -18.636712135521776 25.157818840059022 17.046890585146642 #
point $-1 -54.31809522939605 34.49678940986653 9.4843411757495346 #
straight-curve $-1 0 34.49678940986653 17.046890585146638 -1 0 0 I I #
vertex $-1 $338 $452 #
point $-1 -41.123414345431968 25.97019830558499 8.5024869695754255 #
vertex $-1 $342 $453 #
point $-1 -25.831393019485851 25.97019830558499 8.5024869695754255 #
edge $-1 $425 42.207567010739965 $428 50.63649924043132 $347 $454 forward 7 unknown #
vertex $-1 $361 $455 #
straight-curve $-1 41.331613714440536 -61.742366739032363 17.046890585146642 0 -1 0 I I #
edge $-1 $428 15.870688192798724 $358 35.0511628504849 $357 $456 forward 7 unknown #
vertex $-1 $427 $457 #
straight-curve $-1 41.331613714440536 -34.496789409866537 8.6179583554552721 0 0.77714595512881146 0.62932039886446345 I I #
point $-1 41.331613714440536 -24.087925180804255 17.046890585146638 #
point $-1 60.512088372126712 -34.49678940986653 8.6179583554552774 #
straight-curve $-1 0 -34.49678940986653 17.046890585146638 1 0 0 I I #
vertex $-1 $364 $458 #
point $-1 46.667708645977768 -27.677965231144277 10.838816341687942 #
vertex $-1 $368 $459 #
point $-1 52.421851043283624 -27.677965231144277 10.838816341687942 #
vertex $-1 $372 $460 #
point $-1 58.17599344058948 -27.677965231144277 10.838816341687942 #
straight-curve $-1 -70.70162053285317 34.49678940986653 0 0 0 -1 I I #
point $-1 -70.70162053285317 -34.49678940986653 -17.046890585146638 #
straight-curve $-1 -70.70162053285317 0 -17.046890585146638 0 1 0 I I #
point $-1 -70.70162053285317 34.49678940986653 -17.046890585146638 #
straight-curve $-1 -70.70162053285317 0 1.2027019740451994 0 -1 0 I I #
point $-1 -70.70162053285317 -34.49678940986653 1.2027019740451994 #
point $-1 -70.70162053285317 34.49678940986653 1.2027019740451994 #
straight-curve $-1 -70.70162053285317 34.49678940986653 0 0 0 -1 I I #
straight-curve $-1 -70.70162053285317 -34.49678940986653 0 0 0 -1 I I #
straight-curve $-1 -18.636712135521776 34.49678940986653 81.397182276994329 0 0 -1 I I #
point $-1 -18.636712135521776 34.49678940986653 17.046890585146638 #
straight-curve $-1 -18.238701841229457 34.49678940986653 9.4843411757495382 -1 0 0 I I #
point $-1 -18.636712135521776 34.49678940986653 9.4843411757495346 #
point $-1 -44.123414345431968 24.082237108991603 6.1710491041889917 #
point $-1 -28.831393019485851 24.082237108991603 6.1710491041889917 #
straight-curve $-1 41.331613714440536 -34.49678940986653 59.254457595886599 0 0 -1 I I #
point $-1 41.331613714440536 -34.49678940986653 17.046890585146638 #
straight-curve $-1 25.460925521641812 -34.49678940986653 8.617958355455281 1 0 0 I I #
point $-1 41.331613714440536 -34.49678940986653 8.6179583554552774 #
point $-1 45.167708645977768 -26.73398463284758 9.6730974089947246 #
point $-1 50.921851043283624 -26.73398463284758 9.6730974089947246 #
point $-1 56.67599344058948 -26.73398463284758 9.6730974089947246 #
End-of-ACIS-data 