500 0 6 0           
7 Unknown 11 ACIS 5.0 NT 24 Thu Mar 25 23:08:16 1999 
-1 9.9999999999999995e-007 1e-010 
body $-1 $6 $-1 $7 #
body $-1 $8 $-1 $9 #
body $-1 $10 $-1 $11 #
body $-1 $12 $-1 $13 #
body $-1 $14 $-1 $15 #
body $-1 $16 $-1 $17 #
lump $-1 $-1 $18 $0 #
transform $-1 1 0 0 0 1 0 0 0 1 74.503006073183386 32.344131656613314 11.046675367971595 1 rotate no_reflect no_shear #
lump $-1 $-1 $19 $1 #
transform $-1 1 0 0 0 1 0 0 0 1 74.503006073183386 32.344131656613314 11.046675367971595 1 rotate no_reflect no_shear #
lump $-1 $-1 $20 $2 #
transform $-1 1 0 0 0 1 0 0 0 1 74.503006073183386 32.344131656613314 11.046675367971595 1 rotate no_reflect no_shear #
lump $-1 $-1 $21 $3 #
transform $-1 1 0 0 0 1 0 0 0 1 74.503006073183386 32.344131656613314 11.046675367971595 1 rotate no_reflect no_shear #
lump $-1 $-1 $22 $4 #
transform $-1 1 0 0 0 1 0 0 0 1 74.503006073183386 32.344131656613314 11.046675367971595 1 rotate no_reflect no_shear #
lump $-1 $-1 $23 $5 #
transform $-1 1 0 0 0 1 0 0 0 1 74.503006073183386 32.344131656613314 11.046675367971595 1 rotate no_reflect no_shear #
shell $-1 $-1 $-1 $24 $-1 $6 #
shell $-1 $-1 $-1 $25 $-1 $8 #
shell $-1 $-1 $-1 $26 $-1 $10 #
shell $-1 $-1 $-1 $27 $-1 $12 #
shell $-1 $-1 $-1 $28 $-1 $14 #
shell $-1 $-1 $-1 $29 $-1 $16 #
face $-1 $30 $31 $18 $-1 $32 forward single #
face $-1 $33 $34 $19 $-1 $35 forward single #
face $-1 $36 $37 $20 $-1 $38 reversed single #
face $-1 $39 $40 $21 $-1 $41 forward single #
face $-1 $42 $43 $22 $-1 $44 forward single #
face $-1 $45 $46 $23 $-1 $47 forward single #
face $-1 $48 $49 $18 $-1 $50 reversed single #
loop $-1 $-1 $51 $24 #
plane-surface $-1 0 0 11.046675367971595 0 0 1 1 0 0 forward_v I I I I #
face $-1 $52 $53 $19 $-1 $54 reversed single #
loop $-1 $-1 $55 $25 #
plane-surface $-1 -74.503006073183386 0 0 1 0 0 0 0 -1 forward_v I I I I #
face $-1 $56 $57 $20 $-1 $58 reversed single #
loop $-1 $-1 $59 $26 #
plane-surface $-1 64.406379761500617 -126.11665465376794 117.50860449715879 -1 0 0 0 -0.62932039886446345 0.77714595512881146 forward_v I I I I #
face $-1 $60 $61 $21 $-1 $62 forward single #
loop $-1 $63 $64 $27 #
cone-surface $-1 42.140486753691007 -25.735019458562686 5.3360571854408096 0 0.62932039886446345 -0.77714595512881146 2.5 0 0 1 I I 0 1 2.5 forward I I I I #
face $-1 $65 $66 $22 $-1 $67 forward single #
loop $-1 $68 $69 $28 #
cone-surface $-1 50.490196631619611 -25.735019458562686 5.3360571854408096 0 0.62932039886446345 -0.77714595512881146 2.5 0 0 1 I I 0 1 2.5 forward I I I I #
face $-1 $70 $71 $23 $-1 $72 forward single #
loop $-1 $73 $74 $29 #
cone-surface $-1 58.839906509548214 -25.735019458562686 5.3360571854408096 0 0.62932039886446345 -0.77714595512881146 2.5 0 0 1 I I 0 1 2.5 forward I I I I #
face $-1 $75 $76 $18 $-1 $77 reversed single #
loop $-1 $-1 $78 $30 #
plane-surface $-1 0 0 -11.046675367971595 0 0 1 1 0 0 forward_v I I I I #
coedge $-1 $79 $80 $81 $82 forward $31 $-1 #
face $-1 $83 $84 $19 $-1 $85 forward single #
loop $-1 $-1 $86 $33 #
plane-surface $-1 0 32.344131656613314 0 0 -1 0 0 0 -1 forward_v I I I I #
coedge $-1 $87 $88 $89 $90 forward $34 $-1 #
face $-1 $91 $92 $20 $-1 $93 reversed single #
loop $-1 $-1 $94 $36 #
plane-surface $-1 50.490196631619611 -32.344131656613314 1.7091848677353028 0 -0.62932039886446345 0.77714595512881146 1 0 0 forward_v I I I I #
coedge $-1 $95 $96 $97 $98 reversed $37 $-1 #
face $-1 $-1 $99 $21 $-1 $100 forward single #
loop $-1 $101 $102 $39 #
cone-surface $-1 42.140486753691007 -24.104676877349661 3.3227518091171611 0 0.62932039886446345 -0.77714595512881146 1.25 0 0 1 I I -0.70710678118654746 0.70710678118654746 1.25 forward I I I I #
loop $-1 $-1 $103 $27 #
coedge $-1 $64 $64 $104 $105 reversed $40 $-1 #
face $-1 $-1 $106 $22 $-1 $107 forward single #
loop $-1 $108 $109 $42 #
cone-surface $-1 50.490196631619611 -24.104676877349661 3.3227518091171611 0 0.62932039886446345 -0.77714595512881146 1.25 0 0 1 I I -0.70710678118654746 0.70710678118654746 1.25 forward I I I I #
loop $-1 $-1 $110 $28 #
coedge $-1 $69 $69 $111 $112 reversed $43 $-1 #
face $-1 $-1 $113 $23 $-1 $114 forward single #
loop $-1 $115 $116 $45 #
cone-surface $-1 58.839906509548214 -24.104676877349661 3.3227518091171611 0 0.62932039886446345 -0.77714595512881146 1.25 0 0 1 I I -0.70710678118654746 0.70710678118654746 1.25 forward I I I I #
loop $-1 $-1 $117 $29 #
coedge $-1 $74 $74 $118 $119 reversed $46 $-1 #
face $-1 $120 $121 $18 $-1 $122 reversed single #
loop $-1 $-1 $123 $48 #
plane-surface $-1 0 -32.344131656613314 0 0 1 0 0 0 1 forward_v I I I I #
coedge $-1 $124 $125 $126 $127 forward $49 $-1 #
coedge $-1 $128 $51 $129 $130 forward $31 $-1 #
coedge $-1 $51 $128 $131 $132 forward $31 $-1 #
coedge $-1 $133 $134 $51 $82 reversed $135 $-1 #
edge $-1 $136 -32.344131656613314 $137 32.344131656613314 $81 $138 forward 7 unknown #
face $-1 $139 $140 $19 $-1 $141 reversed single #
loop $-1 $-1 $89 $52 #
plane-surface $-1 -80.885548348459579 0 0.49878616353642835 0 0 1 1 0 0 forward_v I I I I #
coedge $-1 $142 $143 $88 $144 forward $53 $-1 #
coedge $-1 $145 $55 $146 $147 reversed $34 $-1 #
coedge $-1 $55 $145 $86 $144 reversed $34 $-1 #
coedge $-1 $148 $149 $55 $90 reversed $84 $-1 #
edge $-1 $150 -32.344131656613314 $151 32.344131656613314 $89 $152 forward 7 unknown #
face $-1 $153 $154 $20 $-1 $155 reversed single #
loop $-1 $-1 $156 $56 #
plane-surface $-1 36.574013501738605 -126.11665465376794 117.50860449715879 1 0 0 0 0.62932039886446345 -0.77714595512881146 forward_v I I I I #
coedge $-1 $157 $158 $159 $160 reversed $57 $-1 #
coedge $-1 $96 $59 $161 $162 reversed $37 $-1 #
coedge $-1 $59 $95 $157 $163 reversed $37 $-1 #
coedge $-1 $159 $164 $59 $98 forward $165 $-1 #
edge $-1 $166 30.714195670270655 $167 42.245035901107009 $97 $168 forward 7 unknown #
loop $-1 $-1 $104 $60 #
plane-surface $-1 50.490196631619611 -32.344131656613314 1.7091848677353028 0 -0.62932039886446345 0.77714595512881146 1 0 0 forward_v I I I I #
loop $-1 $-1 $169 $39 #
coedge $-1 $102 $102 $103 $170 reversed $61 $-1 #
coedge $-1 $103 $103 $102 $170 forward $63 $-1 #
coedge $-1 $104 $104 $64 $105 forward $99 $-1 #
edge $-1 $171 -4.6066580649153295e-016 $171 6.2831853071795996 $104 $172 forward 7 unknown #
loop $-1 $-1 $111 $65 #
plane-surface $-1 50.490196631619611 -32.344131656613314 1.7091848677353028 0 -0.62932039886446345 0.77714595512881146 1 0 0 forward_v I I I I #
loop $-1 $-1 $173 $42 #
coedge $-1 $109 $109 $110 $174 reversed $66 $-1 #
coedge $-1 $110 $110 $109 $174 forward $68 $-1 #
coedge $-1 $111 $111 $69 $112 forward $106 $-1 #
edge $-1 $175 -4.6066580649153295e-016 $175 6.2831853071795996 $111 $176 forward 7 unknown #
loop $-1 $-1 $118 $70 #
plane-surface $-1 50.490196631619611 -32.344131656613314 1.7091848677353028 0 -0.62932039886446345 0.77714595512881146 1 0 0 forward_v I I I I #
loop $-1 $-1 $177 $45 #
coedge $-1 $116 $116 $117 $178 reversed $71 $-1 #
coedge $-1 $117 $117 $116 $178 forward $73 $-1 #
coedge $-1 $118 $118 $74 $119 forward $113 $-1 #
edge $-1 $179 -4.6066580649153295e-016 $179 6.2831853071795996 $118 $180 forward 7 unknown #
face $-1 $181 $182 $18 $-1 $183 reversed single #
loop $-1 $-1 $184 $75 #
plane-surface $-1 -74.503006073183386 0 0 1 0 0 0 0 -1 forward_v I I I I #
coedge $-1 $185 $131 $186 $187 forward $76 $-1 #
coedge $-1 $188 $78 $185 $189 forward $49 $-1 #
coedge $-1 $78 $188 $190 $191 forward $49 $-1 #
coedge $-1 $134 $133 $78 $127 reversed $135 $-1 #
edge $-1 $192 -32.344131656613314 $193 32.344131656613314 $126 $194 forward 7 unknown #
coedge $-1 $80 $79 $195 $196 forward $31 $-1 #
coedge $-1 $197 $198 $79 $130 reversed $182 $-1 #
edge $-1 $137 -74.503006073183386 $199 74.503006073183386 $129 $200 forward 7 unknown #
coedge $-1 $123 $201 $80 $132 reversed $76 $-1 #
edge $-1 $202 -74.503006073183386 $136 74.503006073183386 $131 $203 forward 7 unknown #
coedge $-1 $126 $81 $201 $204 forward $135 $-1 #
coedge $-1 $81 $126 $197 $205 reversed $135 $-1 #
loop $-1 $-1 $133 $181 #
vertex $-1 $82 $206 #
vertex $-1 $82 $207 #
straight-curve $-1 74.503006073183386 0 11.046675367971595 0 1 0 I I #
face $-1 $208 $209 $19 $-1 $210 reversed single #
loop $-1 $-1 $211 $83 #
plane-surface $-1 -80.885548348459579 0 -4.1854734747526461 0 0 1 1 0 0 forward_v I I I I #
coedge $-1 $212 $86 $213 $214 reversed $53 $-1 #
coedge $-1 $86 $212 $148 $215 reversed $53 $-1 #
edge $-1 $150 -0.49878616353642835 $216 4.1854734747526461 $86 $217 forward 7 unknown #
coedge $-1 $88 $87 $211 $218 forward $34 $-1 #
coedge $-1 $219 $220 $87 $147 forward $221 $-1 #
edge $-1 $222 -4.1854734747526461 $151 0.49878616353642835 $146 $223 forward 7 unknown #
coedge $-1 $224 $89 $143 $215 forward $84 $-1 #
coedge $-1 $89 $224 $219 $225 forward $84 $-1 #
vertex $-1 $144 $226 #
vertex $-1 $225 $227 #
straight-curve $-1 -74.503006073183386 0 0.49878616353642835 0 -1 0 I I #
face $-1 $-1 $165 $20 $-1 $228 forward single #
loop $-1 $-1 $229 $91 #
plane-surface $-1 0 -32.344131656613314 0 0 1 0 0 0 1 forward_v I I I I #
coedge $-1 $230 $231 $232 $233 reversed $92 $-1 #
coedge $-1 $234 $94 $96 $163 forward $57 $-1 #
coedge $-1 $94 $234 $230 $235 forward $57 $-1 #
coedge $-1 $232 $97 $94 $160 forward $165 $-1 #
edge $-1 $167 -39.161281445690811 $236 -11.3289151859288 $159 $237 forward 7 unknown #
coedge $-1 $238 $239 $95 $162 forward $154 $-1 #
edge $-1 $240 -57.04511738084409 $166 -47.707626880607798 $161 $241 forward 7 unknown #
edge $-1 $167 -14.837419090632885 $240 0 $96 $242 forward 7 unknown #
coedge $-1 $97 $232 $238 $243 forward $165 $-1 #
loop $-1 $-1 $232 $153 #
vertex $-1 $162 $244 #
vertex $-1 $98 $245 #
straight-curve $-1 64.406379761500617 -63.058327326883969 11.046675367971595 0 1 0 I I #
coedge $-1 $169 $169 $-1 $246 reversed $101 $-1 #
edge $-1 $247 0 $247 6.2831853071796004 $102 $248 forward 7 unknown #
vertex $-1 $105 $249 #
ellipse-curve $-1 42.140486753691007 -26.578711541195133 6.3779301178534498 0 -0.62932039886446345 0.77714595512881146 2.5 0 0 1 I I #
coedge $-1 $173 $173 $-1 $250 reversed $108 $-1 #
edge $-1 $251 0 $251 6.2831853071796004 $109 $252 forward 7 unknown #
vertex $-1 $112 $253 #
ellipse-curve $-1 50.490196631619611 -26.578711541195133 6.3779301178534498 0 -0.62932039886446345 0.77714595512881146 2.5 0 0 1 I I #
coedge $-1 $177 $177 $-1 $254 reversed $115 $-1 #
edge $-1 $255 0 $255 6.2831853071796004 $116 $256 forward 7 unknown #
vertex $-1 $119 $257 #
ellipse-curve $-1 58.839906509548214 -26.578711541195133 6.3779301178534498 0 -0.62932039886446345 0.77714595512881146 2.5 0 0 1 I I #
face $-1 $-1 $135 $18 $-1 $258 reversed single #
loop $-1 $-1 $197 $120 #
plane-surface $-1 0 32.344131656613314 0 0 -1 0 0 0 -1 forward_v I I I I #
coedge $-1 $259 $195 $198 $260 forward $121 $-1 #
coedge $-1 $201 $123 $124 $189 reversed $76 $-1 #
coedge $-1 $195 $259 $123 $187 reversed $121 $-1 #
edge $-1 $202 -11.046675367971595 $261 11.046675367971595 $186 $262 forward 7 unknown #
coedge $-1 $125 $124 $259 $263 forward $49 $-1 #
edge $-1 $193 -74.503006073183386 $261 74.503006073183386 $185 $264 forward 7 unknown #
coedge $-1 $198 $197 $125 $191 reversed $182 $-1 #
edge $-1 $265 -74.503006073183386 $192 74.503006073183386 $190 $266 forward 7 unknown #
vertex $-1 $127 $267 #
vertex $-1 $204 $268 #
straight-curve $-1 74.503006073183386 0 -11.046675367971595 0 -1 0 I I #
coedge $-1 $184 $186 $128 $196 reversed $121 $-1 #
edge $-1 $199 -32.344131656613314 $202 32.344131656613314 $195 $269 forward 7 unknown #
coedge $-1 $190 $129 $134 $205 forward $182 $-1 #
coedge $-1 $129 $190 $184 $260 reversed $182 $-1 #
vertex $-1 $130 $270 #
straight-curve $-1 0 32.344131656613314 11.046675367971595 -1 0 0 I I #
coedge $-1 $131 $185 $133 $204 reversed $76 $-1 #
vertex $-1 $196 $271 #
straight-curve $-1 0 -32.344131656613314 11.046675367971595 1 0 0 I I #
edge $-1 $136 -11.046675367971595 $193 11.046675367971595 $133 $272 forward 7 unknown #
edge $-1 $137 -11.046675367971595 $192 11.046675367971595 $134 $273 forward 7 unknown #
point $-1 74.503006073183386 -32.344131656613314 11.046675367971595 #
point $-1 74.503006073183386 32.344131656613314 11.046675367971595 #
face $-1 $-1 $221 $19 $-1 $274 reversed single #
loop $-1 $-1 $275 $139 #
plane-surface $-1 -87.268090623735773 0 -1.8433436556081091 1 0 0 0 0 -1 forward_v I I I I #
coedge $-1 $276 $213 $145 $218 reversed $140 $-1 #
coedge $-1 $143 $142 $275 $277 reversed $53 $-1 #
coedge $-1 $211 $278 $142 $214 forward $140 $-1 #
edge $-1 $279 -6.3825422752761938 $216 6.3825422752761938 $142 $280 forward 7 unknown #
edge $-1 $150 -6.3825422752761938 $281 6.3825422752761938 $143 $282 forward 7 unknown #
vertex $-1 $144 $283 #
straight-curve $-1 -74.503006073183386 32.344131656613314 0 0 0 -1 I I #
edge $-1 $222 -32.344131656613314 $216 32.344131656613314 $211 $284 forward 7 unknown #
coedge $-1 $285 $146 $149 $225 reversed $221 $-1 #
coedge $-1 $146 $285 $276 $286 reversed $221 $-1 #
loop $-1 $-1 $146 $208 #
vertex $-1 $147 $287 #
straight-curve $-1 -74.503006073183386 -32.344131656613314 0 0 0 1 I I #
coedge $-1 $149 $148 $288 $289 forward $84 $-1 #
edge $-1 $290 -6.3825422752761938 $151 6.3825422752761938 $219 $291 forward 7 unknown #
point $-1 -74.503006073183386 32.344131656613314 0.49878616353642835 #
point $-1 -74.503006073183386 -32.344131656613314 0.49878616353642835 #
plane-surface $-1 0 0 11.046675367971595 0 0 1 1 0 0 forward_v I I I I #
coedge $-1 $239 $238 $231 $292 forward $154 $-1 #
coedge $-1 $231 $156 $158 $235 reversed $92 $-1 #
coedge $-1 $156 $230 $229 $292 reversed $92 $-1 #
coedge $-1 $164 $159 $156 $233 forward $165 $-1 #
edge $-1 $236 -42.245035901107009 $293 -30.714195670270655 $232 $294 forward 7 unknown #
coedge $-1 $158 $157 $239 $295 reversed $57 $-1 #
edge $-1 $296 0 $236 14.837419090632885 $230 $297 forward 7 unknown #
vertex $-1 $160 $298 #
straight-curve $-1 25.245098315809805 -20.813291425776956 11.046675367971595 -1 0 0 I I #
coedge $-1 $229 $161 $164 $243 reversed $154 $-1 #
coedge $-1 $161 $229 $234 $295 forward $154 $-1 #
vertex $-1 $162 $299 #
straight-curve $-1 64.406379761500617 -32.344131656613314 58.754302248579393 0 0 1 I I #
straight-curve $-1 64.406379761500617 -32.344131656613314 1.7091848677353028 0 -0.77714595512881146 -0.62932039886446345 I I #
edge $-1 $293 36.574013501738605 $166 64.406379761500617 $238 $300 forward 7 unknown #
point $-1 64.406379761500617 -32.344131656613314 11.046675367971595 #
point $-1 64.406379761500617 -20.81329142577696 11.046675367971595 #
edge $-1 $301 1 $301 0 $169 $-1 forward 7 unknown #
vertex $-1 $170 $302 #
ellipse-curve $-1 42.140486753691007 -24.891327375930238 4.2941842530281757 0 -0.62932039886446345 0.77714595512881146 2.5 0 0 1 I I #
point $-1 44.640486753691007 -26.57871154119513 6.3779301178534435 #
edge $-1 $303 1 $303 0 $173 $-1 forward 7 unknown #
vertex $-1 $174 $304 #
ellipse-curve $-1 50.490196631619611 -24.891327375930238 4.2941842530281757 0 -0.62932039886446345 0.77714595512881146 2.5 0 0 1 I I #
point $-1 52.990196631619611 -26.57871154119513 6.3779301178534435 #
edge $-1 $305 1 $305 0 $177 $-1 forward 7 unknown #
vertex $-1 $178 $306 #
ellipse-curve $-1 58.839906509548214 -24.891327375930238 4.2941842530281757 0 -0.62932039886446345 0.77714595512881146 2.5 0 0 1 I I #
point $-1 61.339906509548214 -26.57871154119513 6.3779301178534435 #
plane-surface $-1 74.503006073183386 0 0 -1 0 0 0 0 1 forward_v I I I I #
coedge $-1 $186 $184 $188 $263 reversed $121 $-1 #
edge $-1 $199 -11.046675367971595 $265 11.046675367971595 $198 $307 forward 7 unknown #
vertex $-1 $263 $308 #
straight-curve $-1 -74.503006073183386 -32.344131656613314 0 0 0 -1 I I #
edge $-1 $261 -32.344131656613314 $265 32.344131656613314 $259 $309 forward 7 unknown #
straight-curve $-1 0 -32.344131656613314 -11.046675367971595 -1 0 0 I I #
vertex $-1 $191 $310 #
straight-curve $-1 0 32.344131656613314 -11.046675367971595 1 0 0 I I #
point $-1 74.503006073183386 32.344131656613314 -11.046675367971595 #
point $-1 74.503006073183386 -32.344131656613314 -11.046675367971595 #
straight-curve $-1 -74.503006073183386 0 11.046675367971595 0 -1 0 I I #
point $-1 -74.503006073183386 32.344131656613314 11.046675367971595 #
point $-1 -74.503006073183386 -32.344131656613314 11.046675367971595 #
straight-curve $-1 74.503006073183386 -32.344131656613314 0 0 0 -1 I I #
straight-curve $-1 74.503006073183386 32.344131656613314 0 0 0 -1 I I #
plane-surface $-1 0 -32.344131656613314 0 0 1 0 0 0 1 forward_v I I I I #
coedge $-1 $311 $288 $212 $277 forward $209 $-1 #
coedge $-1 $278 $211 $220 $286 forward $140 $-1 #
edge $-1 $281 -2.3421298191445374 $279 2.342129819144537 $212 $312 forward 7 unknown #
coedge $-1 $213 $276 $311 $313 forward $140 $-1 #
vertex $-1 $214 $314 #
straight-curve $-1 -80.885548348459579 32.344131656613314 -4.1854734747526461 1 0 0 I I #
vertex $-1 $215 $315 #
straight-curve $-1 -80.885548348459579 32.344131656613314 0.49878616353642835 -1 0 0 I I #
point $-1 -74.503006073183386 32.344131656613314 -4.1854734747526461 #
straight-curve $-1 -74.503006073183386 0 -4.1854734747526461 0 1 0 I I #
coedge $-1 $220 $219 $316 $317 forward $221 $-1 #
edge $-1 $222 -6.3825422752761938 $318 6.3825422752761938 $220 $319 forward 7 unknown #
point $-1 -74.503006073183386 -32.344131656613314 -4.1854734747526461 #
coedge $-1 $275 $316 $224 $289 reversed $209 $-1 #
edge $-1 $281 -32.344131656613314 $290 32.344131656613314 $288 $320 forward 7 unknown #
vertex $-1 $289 $321 #
straight-curve $-1 -80.885548348459579 -32.344131656613314 0.49878616353642835 1 0 0 I I #
edge $-1 $293 47.707626880607798 $296 57.04511738084409 $229 $322 forward 7 unknown #
vertex $-1 $243 $323 #
straight-curve $-1 36.574013501738605 -63.058327326883969 11.046675367971595 0 -1 0 I I #
edge $-1 $296 11.3289151859288 $240 39.161281445690811 $239 $324 forward 7 unknown #
vertex $-1 $295 $325 #
straight-curve $-1 36.574013501738605 -32.344131656613314 1.7091848677353028 0 0.77714595512881146 0.62932039886446345 I I #
point $-1 36.574013501738605 -20.81329142577696 11.046675367971595 #
point $-1 64.406379761500617 -32.344131656613314 1.7091848677353028 #
straight-curve $-1 0 -32.344131656613314 11.046675367971595 1 0 0 I I #
vertex $-1 $246 $326 #
point $-1 44.640486753691007 -24.891327375930238 4.2941842530281757 #
vertex $-1 $250 $327 #
point $-1 52.990196631619611 -24.891327375930238 4.2941842530281757 #
vertex $-1 $254 $328 #
point $-1 61.339906509548214 -24.891327375930238 4.2941842530281757 #
straight-curve $-1 -74.503006073183386 32.344131656613314 0 0 0 -1 I I #
point $-1 -74.503006073183386 -32.344131656613314 -11.046675367971595 #
straight-curve $-1 -74.503006073183386 0 -11.046675367971595 0 1 0 I I #
point $-1 -74.503006073183386 32.344131656613314 -11.046675367971595 #
coedge $-1 $316 $275 $278 $313 reversed $209 $-1 #
straight-curve $-1 -87.268090623735773 32.344131656613314 -1.8433436556081091 0 0 -1 I I #
edge $-1 $318 -32.344131656613314 $279 32.344131656613314 $311 $329 forward 7 unknown #
point $-1 -87.268090623735773 32.344131656613314 -4.1854734747526461 #
point $-1 -87.268090623735773 32.344131656613314 0.49878616353642835 #
coedge $-1 $288 $311 $285 $317 reversed $209 $-1 #
edge $-1 $290 -2.3421298191445374 $318 2.342129819144537 $316 $330 forward 7 unknown #
vertex $-1 $313 $331 #
straight-curve $-1 -80.885548348459579 -32.344131656613314 -4.1854734747526461 -1 0 0 I I #
straight-curve $-1 -87.268090623735773 0 0.49878616353642835 0 -1 0 I I #
point $-1 -87.268090623735773 -32.344131656613314 0.49878616353642835 #
straight-curve $-1 36.574013501738605 -32.344131656613314 58.754302248579393 0 0 -1 I I #
point $-1 36.574013501738605 -32.344131656613314 11.046675367971595 #
straight-curve $-1 25.245098315809805 -32.344131656613314 1.7091848677353054 1 0 0 I I #
point $-1 36.574013501738605 -32.344131656613314 1.7091848677353028 #
point $-1 42.140486753691007 -23.318026378769083 2.3513193652061468 #
point $-1 50.490196631619611 -23.318026378769083 2.3513193652061468 #
point $-1 58.839906509548214 -23.318026378769083 2.3513193652061468 #
straight-curve $-1 -87.268090623735773 0 -4.1854734747526461 0 1 0 I I #
straight-curve $-1 -87.268090623735773 -32.344131656613314 -1.8433436556081091 0 0 -1 I I #
point $-1 -87.268090623735773 -32.344131656613314 -4.1854734747526461 #
End-of-ACIS-data 