500 0 16 0           
7 Unknown 11 ACIS 5.0 NT 24 Fri Mar 26 01:46:45 1999 
-1 9.9999999999999995e-007 1e-010 
body $-1 $16 $-1 $17 #
body $-1 $18 $-1 $19 #
body $-1 $20 $-1 $21 #
body $-1 $22 $-1 $23 #
body $-1 $24 $-1 $25 #
body $-1 $26 $-1 $27 #
body $-1 $28 $-1 $29 #
body $-1 $30 $-1 $31 #
body $-1 $32 $-1 $33 #
body $-1 $34 $-1 $35 #
body $-1 $36 $-1 $37 #
body $-1 $38 $-1 $39 #
body $-1 $40 $-1 $41 #
body $-1 $42 $-1 $43 #
body $-1 $44 $-1 $45 #
body $-1 $46 $-1 $47 #
lump $-1 $-1 $48 $0 #
transform $-1 1 0 0 0 1 0 0 0 1 66.166570024719988 26.778610646956363 9.0112513332804234 1 rotate no_reflect no_shear #
lump $-1 $-1 $49 $1 #
transform $-1 1 0 0 0 1 0 0 0 1 66.166570024719988 26.778610646956363 9.0112513332804234 1 rotate no_reflect no_shear #
lump $-1 $-1 $50 $2 #
transform $-1 1 0 0 0 1 0 0 0 1 66.166570024719988 26.778610646956363 9.0112513332804234 1 rotate no_reflect no_shear #
lump $-1 $-1 $51 $3 #
transform $-1 1 0 0 0 1 0 0 0 1 66.166570024719988 26.778610646956363 9.0112513332804234 1 rotate no_reflect no_shear #
lump $-1 $-1 $52 $4 #
transform $-1 1 0 0 0 1 0 0 0 1 66.166570024719988 26.778610646956363 9.0112513332804234 1 rotate no_reflect no_shear #
lump $-1 $-1 $53 $5 #
transform $-1 1 0 0 0 1 0 0 0 1 66.166570024719988 26.778610646956363 9.0112513332804234 1 rotate no_reflect no_shear #
lump $-1 $-1 $54 $6 #
transform $-1 1 0 0 0 1 0 0 0 1 66.166570024719988 26.778610646956363 9.0112513332804234 1 rotate no_reflect no_shear #
lump $-1 $-1 $55 $7 #
transform $-1 1 0 0 0 1 0 0 0 1 66.166570024719988 26.778610646956363 9.0112513332804234 1 rotate no_reflect no_shear #
lump $-1 $-1 $56 $8 #
transform $-1 1 0 0 0 1 0 0 0 1 66.166570024719988 26.778610646956363 9.0112513332804234 1 rotate no_reflect no_shear #
lump $-1 $-1 $57 $9 #
transform $-1 1 0 0 0 1 0 0 0 1 66.166570024719988 26.778610646956363 9.0112513332804234 1 rotate no_reflect no_shear #
lump $-1 $-1 $58 $10 #
transform $-1 1 0 0 0 1 0 0 0 1 66.166570024719988 26.778610646956363 9.0112513332804234 1 rotate no_reflect no_shear #
lump $-1 $-1 $59 $11 #
transform $-1 1 0 0 0 1 0 0 0 1 66.166570024719988 26.778610646956363 9.0112513332804234 1 rotate no_reflect no_shear #
lump $-1 $-1 $60 $12 #
transform $-1 1 0 0 0 1 0 0 0 1 66.166570024719988 26.778610646956363 9.0112513332804234 1 rotate no_reflect no_shear #
lump $-1 $-1 $61 $13 #
transform $-1 1 0 0 0 1 0 0 0 1 66.166570024719988 26.778610646956363 9.0112513332804234 1 rotate no_reflect no_shear #
lump $-1 $-1 $62 $14 #
transform $-1 1 0 0 0 1 0 0 0 1 66.166570024719988 26.778610646956363 9.0112513332804234 1 rotate no_reflect no_shear #
lump $-1 $-1 $63 $15 #
transform $-1 1 0 0 0 1 0 0 0 1 66.166570024719988 26.778610646956363 9.0112513332804234 1 rotate no_reflect no_shear #
shell $-1 $-1 $-1 $64 $-1 $16 #
shell $-1 $-1 $-1 $65 $-1 $18 #
shell $-1 $-1 $-1 $66 $-1 $20 #
shell $-1 $-1 $-1 $67 $-1 $22 #
shell $-1 $-1 $-1 $68 $-1 $24 #
shell $-1 $-1 $-1 $69 $-1 $26 #
shell $-1 $-1 $-1 $70 $-1 $28 #
shell $-1 $-1 $-1 $71 $-1 $30 #
shell $-1 $-1 $-1 $72 $-1 $32 #
shell $-1 $-1 $-1 $73 $-1 $34 #
shell $-1 $-1 $-1 $74 $-1 $36 #
shell $-1 $-1 $-1 $75 $-1 $38 #
shell $-1 $-1 $-1 $76 $-1 $40 #
shell $-1 $-1 $-1 $77 $-1 $42 #
shell $-1 $-1 $-1 $78 $-1 $44 #
shell $-1 $-1 $-1 $79 $-1 $46 #
face $-1 $80 $81 $48 $-1 $82 forward single #
face $-1 $83 $84 $49 $-1 $85 reversed single #
face $-1 $86 $87 $50 $-1 $88 reversed single #
face $-1 $89 $90 $51 $-1 $91 forward single #
face $-1 $92 $93 $52 $-1 $94 reversed single #
face $-1 $95 $96 $53 $-1 $97 forward single #
face $-1 $98 $99 $54 $-1 $100 forward single #
face $-1 $101 $102 $55 $-1 $103 reversed single #
face $-1 $104 $105 $56 $-1 $106 forward single #
face $-1 $107 $108 $57 $-1 $109 forward single #
face $-1 $110 $111 $58 $-1 $112 reversed single #
face $-1 $113 $114 $59 $-1 $115 forward single #
face $-1 $116 $117 $60 $-1 $118 forward single #
face $-1 $119 $120 $61 $-1 $121 reversed single #
face $-1 $122 $123 $62 $-1 $124 forward single #
face $-1 $125 $126 $63 $-1 $127 forward single #
face $-1 $128 $129 $48 $-1 $130 reversed single #
loop $-1 $-1 $131 $64 #
plane-surface $-1 0 0 9.0112513332804234 0 0 1 1 0 0 forward_v I I I I #
face $-1 $132 $133 $49 $-1 $134 reversed single #
loop $-1 $-1 $135 $65 #
plane-surface $-1 -59.12356455318443 -21.15835036495988 0 1 0 0 0 0 -1 forward_v I I I I #
face $-1 $136 $137 $50 $-1 $138 reversed single #
loop $-1 $-1 $139 $66 #
plane-surface $-1 62.900401030645412 -5.2794073057203894 191.41330277293719 0 -1 0 -0.69465837861970381 0 -0.71933979245794832 forward_v I I I I #
face $-1 $140 $141 $51 $-1 $142 forward single #
loop $-1 $143 $144 $67 #
cone-surface $-1 63.220152167809474 -9.1971183686352234 6.1307117064597936 -0.69465837861970381 0 -0.71933979245794832 0.35966989622897416 0 -0.3473291893098519 1 I I 0 1 0.5 forward I I I I #
face $-1 $145 $146 $52 $-1 $147 reversed single #
loop $-1 $-1 $148 $68 #
plane-surface $-1 -66.166570024719988 -12.43356563941974 0.33443742730702297 -0.74314483375859142 0 0.66913059716165679 0.66913059716165679 0 0.74314483375859142 forward_v I I I I #
face $-1 $149 $150 $53 $-1 $151 forward single #
loop $-1 $152 $153 $69 #
cone-surface $-1 -61.88867853878385 -13.764076115224166 4.3382790817129102 0.74314483375859142 0 -0.66913059716165679 0.1672826492904142 0 0.18578620843964785 1 I I 0 1 0.25 forward I I I I #
face $-1 $154 $155 $54 $-1 $156 forward single #
loop $-1 $157 $158 $70 #
cone-surface $-1 -61.88867853878385 -11.103055163615313 4.3382790817129102 0.74314483375859142 0 -0.66913059716165679 0.1672826492904142 0 0.18578620843964785 1 I I 0 1 0.25 forward I I I I #
face $-1 $159 $160 $55 $-1 $161 reversed single #
loop $-1 $-1 $162 $71 #
plane-surface $-1 -164.50925938751345 -3.5022061353525871 88.882590452865955 0 1 0 -0.74314483375859142 0 0.66913059716165679 forward_v I I I I #
face $-1 $163 $164 $56 $-1 $165 forward single #
loop $-1 $166 $167 $72 #
cone-surface $-1 -61.88867853878385 -1.7281921676133543 4.3382790817129102 0.74314483375859142 0 -0.66913059716165679 0.1672826492904142 0 0.18578620843964785 1 I I 0 1 0.25 forward I I I I #
face $-1 $168 $169 $57 $-1 $170 forward single #
loop $-1 $171 $172 $73 #
cone-surface $-1 -61.88867853878385 0.93282878399550029 4.3382790817129102 0.74314483375859142 0 -0.66913059716165679 0.1672826492904142 0 0.18578620843964785 1 I I 0 1 0.25 forward I I I I #
face $-1 $173 $174 $58 $-1 $175 reversed single #
loop $-1 $-1 $176 $74 #
plane-surface $-1 -164.50925938751345 8.5336778122582295 88.882590452865955 0 1 0 -0.74314483375859142 0 0.66913059716165679 forward_v I I I I #
face $-1 $177 $178 $59 $-1 $179 forward single #
loop $-1 $180 $181 $75 #
cone-surface $-1 -61.88867853878385 10.307691779997459 4.3382790817129102 0.74314483375859142 0 -0.66913059716165679 0.1672826492904142 0 0.18578620843964785 1 I I 0 1 0.25 forward I I I I #
face $-1 $182 $183 $60 $-1 $184 forward single #
loop $-1 $185 $186 $76 #
cone-surface $-1 -61.88867853878385 12.968712731606313 4.3382790817129102 0.74314483375859142 0 -0.66913059716165679 0.1672826492904142 0 0.18578620843964785 1 I I 0 1 0.25 forward I I I I #
face $-1 $187 $188 $61 $-1 $189 reversed single #
loop $-1 $-1 $190 $77 #
plane-surface $-1 -164.50925938751345 20.569561759869043 88.882590452865955 0 1 0 -0.74314483375859142 0 0.66913059716165679 forward_v I I I I #
face $-1 $191 $192 $62 $-1 $193 forward single #
loop $-1 $194 $195 $78 #
cone-surface $-1 -61.88867853878385 22.343575727608272 4.3382790817129102 0.74314483375859142 0 -0.66913059716165679 0.1672826492904142 0 0.18578620843964785 1 I I 0 1 0.25 forward I I I I #
face $-1 $196 $197 $63 $-1 $198 forward single #
loop $-1 $199 $200 $79 #
cone-surface $-1 -61.88867853878385 25.004596679217126 4.3382790817129102 0.74314483375859142 0 -0.66913059716165679 0.1672826492904142 0 0.18578620843964785 1 I I 0 1 0.25 forward I I I I #
face $-1 $201 $202 $48 $-1 $203 reversed single #
loop $-1 $-1 $204 $80 #
plane-surface $-1 0 0 -9.0112513332804234 0 0 1 1 0 0 forward_v I I I I #
coedge $-1 $205 $206 $207 $208 forward $81 $-1 #
face $-1 $209 $210 $49 $-1 $211 reversed single #
loop $-1 $-1 $212 $83 #
plane-surface $-1 -56.565119401701502 -15.538090082963398 0 0 -1 0 0 0 -1 forward_v I I I I #
coedge $-1 $213 $214 $215 $216 forward $84 $-1 #
face $-1 $217 $218 $50 $-1 $219 reversed single #
loop $-1 $-1 $220 $86 #
plane-surface $-1 -29.025923473752755 -9.1971183686352234 96.220809274464429 0.69465837861970381 0 0.71933979245794832 0.71933979245794832 0 -0.69465837861970381 forward_v I I I I #
coedge $-1 $221 $222 $223 $224 reversed $87 $-1 #
face $-1 $-1 $225 $51 $-1 $226 forward single #
loop $-1 $227 $228 $89 #
cone-surface $-1 62.542247040439634 -9.1971183686352234 5.4287204131317601 -0.69465837861970381 0 -0.71933979245794832 0.17983494811448708 0 -0.17366459465492595 1 I I -0.70710678118654746 0.70710678118654746 0.25 forward I I I I #
loop $-1 $-1 $229 $67 #
coedge $-1 $144 $144 $230 $231 reversed $90 $-1 #
face $-1 $232 $233 $52 $-1 $234 forward single #
loop $-1 $-1 $235 $92 #
plane-surface $-1 -164.50925938751345 -9.3290411958760799 88.882590452865955 0 -1 0 0.74314483375859142 0 -0.66913059716165679 forward_v I I I I #
coedge $-1 $236 $237 $238 $239 reversed $93 $-1 #
face $-1 $-1 $240 $53 $-1 $241 forward single #
loop $-1 $242 $243 $95 #
cone-surface $-1 -61.424213017684728 -13.764076115224166 3.9200724584868745 0.74314483375859142 0 -0.66913059716165679 0.083641324645207099 0 0.092893104219823927 1 I I -0.70710678118654746 0.70710678118654746 0.125 forward I I I I #
loop $-1 $-1 $244 $69 #
coedge $-1 $153 $153 $245 $246 reversed $96 $-1 #
face $-1 $-1 $247 $54 $-1 $248 forward single #
loop $-1 $249 $250 $98 #
cone-surface $-1 -61.424213017684728 -11.103055163615313 3.9200724584868745 0.74314483375859142 0 -0.66913059716165679 0.083641324645207099 0 0.092893104219823927 1 I I -0.70710678118654746 0.70710678118654746 0.125 forward I I I I #
loop $-1 $-1 $251 $70 #
coedge $-1 $158 $158 $252 $253 reversed $99 $-1 #
face $-1 $254 $255 $55 $-1 $256 reversed single #
loop $-1 $-1 $257 $101 #
plane-surface $-1 -66.166570024719988 -0.39768169180892698 0.33443742730702297 -0.74314483375859142 0 0.66913059716165679 0.66913059716165679 0 0.74314483375859142 forward_v I I I I #
coedge $-1 $258 $259 $260 $261 reversed $102 $-1 #
face $-1 $-1 $262 $56 $-1 $263 forward single #
loop $-1 $264 $265 $104 #
cone-surface $-1 -61.424213017684728 -1.7281921676133543 3.9200724584868745 0.74314483375859142 0 -0.66913059716165679 0.083641324645207099 0 0.092893104219823927 1 I I -0.70710678118654746 0.70710678118654746 0.125 forward I I I I #
loop $-1 $-1 $266 $72 #
coedge $-1 $167 $167 $267 $268 reversed $105 $-1 #
face $-1 $-1 $269 $57 $-1 $270 forward single #
loop $-1 $271 $272 $107 #
cone-surface $-1 -61.424213017684728 0.93282878399550029 3.9200724584868745 0.74314483375859142 0 -0.66913059716165679 0.083641324645207099 0 0.092893104219823927 1 I I -0.70710678118654746 0.70710678118654746 0.125 forward I I I I #
loop $-1 $-1 $273 $73 #
coedge $-1 $172 $172 $274 $275 reversed $108 $-1 #
face $-1 $276 $277 $58 $-1 $278 reversed single #
loop $-1 $-1 $279 $110 #
plane-surface $-1 -66.166570024719988 11.63820225580189 0.33443742730702297 -0.74314483375859142 0 0.66913059716165679 0.66913059716165679 0 0.74314483375859142 forward_v I I I I #
coedge $-1 $280 $281 $282 $283 reversed $111 $-1 #
face $-1 $-1 $284 $59 $-1 $285 forward single #
loop $-1 $286 $287 $113 #
cone-surface $-1 -61.424213017684728 10.307691779997459 3.9200724584868745 0.74314483375859142 0 -0.66913059716165679 0.083641324645207099 0 0.092893104219823927 1 I I -0.70710678118654746 0.70710678118654746 0.125 forward I I I I #
loop $-1 $-1 $288 $75 #
coedge $-1 $181 $181 $289 $290 reversed $114 $-1 #
face $-1 $-1 $291 $60 $-1 $292 forward single #
loop $-1 $293 $294 $116 #
cone-surface $-1 -61.424213017684728 12.968712731606313 3.9200724584868745 0.74314483375859142 0 -0.66913059716165679 0.083641324645207099 0 0.092893104219823927 1 I I -0.70710678118654746 0.70710678118654746 0.125 forward I I I I #
loop $-1 $-1 $295 $76 #
coedge $-1 $186 $186 $296 $297 reversed $117 $-1 #
face $-1 $298 $299 $61 $-1 $300 forward single #
loop $-1 $-1 $301 $119 #
plane-surface $-1 -66.166570024719988 23.674086203412703 0.33443742730702297 -0.74314483375859142 0 0.66913059716165679 0.66913059716165679 0 0.74314483375859142 forward_v I I I I #
coedge $-1 $302 $303 $304 $305 reversed $120 $-1 #
face $-1 $-1 $306 $62 $-1 $307 forward single #
loop $-1 $308 $309 $122 #
cone-surface $-1 -61.424213017684728 22.343575727608272 3.9200724584868745 0.74314483375859142 0 -0.66913059716165679 0.083641324645207099 0 0.092893104219823927 1 I I -0.70710678118654746 0.70710678118654746 0.125 forward I I I I #
loop $-1 $-1 $310 $78 #
coedge $-1 $195 $195 $311 $312 reversed $123 $-1 #
face $-1 $-1 $313 $63 $-1 $314 forward single #
loop $-1 $315 $316 $125 #
cone-surface $-1 -61.424213017684728 25.004596679217126 3.9200724584868745 0.74314483375859142 0 -0.66913059716165679 0.083641324645207099 0 0.092893104219823927 1 I I -0.70710678118654746 0.70710678118654746 0.125 forward I I I I #
loop $-1 $-1 $317 $79 #
coedge $-1 $200 $200 $318 $319 reversed $126 $-1 #
face $-1 $320 $321 $48 $-1 $322 reversed single #
loop $-1 $-1 $323 $128 #
plane-surface $-1 0 -26.778610646956363 0 0 1 0 0 0 1 forward_v I I I I #
coedge $-1 $324 $325 $326 $327 forward $129 $-1 #
coedge $-1 $328 $131 $329 $330 forward $81 $-1 #
coedge $-1 $131 $328 $331 $332 forward $81 $-1 #
coedge $-1 $333 $334 $131 $208 reversed $335 $-1 #
edge $-1 $336 -26.778610646956363 $337 26.778610646956363 $207 $338 forward 7 unknown #
face $-1 $339 $340 $49 $-1 $341 forward single #
loop $-1 $-1 $342 $132 #
plane-surface $-1 -54.006674250218573 -21.15835036495988 0 -1 0 0 0 0 1 forward_v I I I I #
coedge $-1 $343 $215 $344 $345 reversed $133 $-1 #
coedge $-1 $346 $135 $347 $348 reversed $84 $-1 #
coedge $-1 $135 $346 $349 $350 reversed $84 $-1 #
coedge $-1 $212 $351 $135 $216 reversed $133 $-1 #
edge $-1 $352 -9.0112513332804234 $353 9.0112513332804234 $215 $354 forward 7 unknown #
face $-1 $355 $356 $50 $-1 $357 reversed single #
loop $-1 $-1 $358 $136 #
plane-surface $-1 62.900401030645412 -13.114829431550056 191.41330277293719 0 1 0 0.69465837861970381 0 0.71933979245794832 forward_v I I I I #
coedge $-1 $359 $360 $361 $362 reversed $137 $-1 #
coedge $-1 $222 $139 $363 $364 reversed $87 $-1 #
coedge $-1 $139 $221 $359 $365 reversed $87 $-1 #
coedge $-1 $361 $366 $139 $224 forward $367 $-1 #
edge $-1 $368 -34.716369509397282 $369 -29.832014861006073 $223 $370 forward 7 unknown #
loop $-1 $-1 $230 $140 #
plane-surface $-1 -29.025923473752755 -9.1971183686352234 96.220809274464429 0.69465837861970381 0 0.71933979245794832 0.71933979245794832 0 -0.69465837861970381 forward_v I I I I #
loop $-1 $-1 $371 $89 #
coedge $-1 $228 $228 $229 $372 reversed $141 $-1 #
coedge $-1 $229 $229 $228 $372 forward $143 $-1 #
coedge $-1 $230 $230 $144 $231 forward $225 $-1 #
edge $-1 $373 0 $373 6.2831853071796004 $230 $374 forward 7 unknown #
face $-1 $375 $376 $52 $-1 $377 forward single #
loop $-1 $-1 $378 $145 #
plane-surface $-1 -56.565119401701502 -15.538090082963398 0 0 -1 0 0 0 -1 forward_v I I I I #
coedge $-1 $379 $380 $381 $382 reversed $146 $-1 #
coedge $-1 $383 $148 $378 $384 reversed $93 $-1 #
coedge $-1 $148 $383 $379 $385 forward $93 $-1 #
coedge $-1 $381 $386 $148 $239 forward $376 $-1 #
edge $-1 $387 -9.3213072632535301 $388 -3.1122583761662099 $238 $389 forward 7 unknown #
loop $-1 $-1 $245 $149 #
plane-surface $-1 -66.166570024719988 -12.43356563941974 0.33443742730702297 -0.74314483375859142 0 0.66913059716165679 0.66913059716165679 0 0.74314483375859142 forward_v I I I I #
loop $-1 $-1 $390 $95 #
coedge $-1 $243 $243 $244 $391 reversed $150 $-1 #
coedge $-1 $244 $244 $243 $391 forward $152 $-1 #
coedge $-1 $245 $245 $153 $246 forward $240 $-1 #
edge $-1 $392 0 $392 6.2831853071796004 $245 $393 forward 7 unknown #
loop $-1 $-1 $252 $154 #
plane-surface $-1 -66.166570024719988 -12.43356563941974 0.33443742730702297 -0.74314483375859142 0 0.66913059716165679 0.66913059716165679 0 0.74314483375859142 forward_v I I I I #
loop $-1 $-1 $394 $98 #
coedge $-1 $250 $250 $251 $395 reversed $155 $-1 #
coedge $-1 $251 $251 $250 $395 forward $157 $-1 #
coedge $-1 $252 $252 $158 $253 forward $247 $-1 #
edge $-1 $396 0 $396 6.2831853071796004 $252 $397 forward 7 unknown #
face $-1 $398 $399 $55 $-1 $400 reversed single #
loop $-1 $-1 $401 $159 #
plane-surface $-1 -164.50925938751345 2.7068427517347331 88.882590452865955 0 -1 0 0.74314483375859142 0 -0.66913059716165679 forward_v I I I I #
coedge $-1 $402 $403 $404 $405 reversed $160 $-1 #
coedge $-1 $259 $162 $406 $407 reversed $102 $-1 #
coedge $-1 $162 $258 $402 $408 reversed $102 $-1 #
coedge $-1 $404 $409 $162 $261 forward $410 $-1 #
edge $-1 $411 16.088059669036738 $412 23.900697807150458 $260 $413 forward 7 unknown #
loop $-1 $-1 $267 $163 #
plane-surface $-1 -66.166570024719988 -0.39768169180892698 0.33443742730702297 -0.74314483375859142 0 0.66913059716165679 0.66913059716165679 0 0.74314483375859142 forward_v I I I I #
loop $-1 $-1 $414 $104 #
coedge $-1 $265 $265 $266 $415 reversed $164 $-1 #
coedge $-1 $266 $266 $265 $415 forward $166 $-1 #
coedge $-1 $267 $267 $167 $268 forward $262 $-1 #
edge $-1 $416 0 $416 6.2831853071796004 $267 $417 forward 7 unknown #
loop $-1 $-1 $274 $168 #
plane-surface $-1 -66.166570024719988 -0.39768169180892698 0.33443742730702297 -0.74314483375859142 0 0.66913059716165679 0.66913059716165679 0 0.74314483375859142 forward_v I I I I #
loop $-1 $-1 $418 $107 #
coedge $-1 $272 $272 $273 $419 reversed $169 $-1 #
coedge $-1 $273 $273 $272 $419 forward $171 $-1 #
coedge $-1 $274 $274 $172 $275 forward $269 $-1 #
edge $-1 $420 0 $420 6.2831853071796004 $274 $421 forward 7 unknown #
face $-1 $422 $423 $58 $-1 $424 forward single #
loop $-1 $-1 $425 $173 #
plane-surface $-1 -164.50925938751345 14.74272669934555 88.882590452865955 0 -1 0 0.74314483375859142 0 -0.66913059716165679 forward_v I I I I #
coedge $-1 $426 $427 $428 $429 reversed $174 $-1 #
coedge $-1 $281 $176 $430 $431 reversed $111 $-1 #
coedge $-1 $176 $280 $426 $432 reversed $111 $-1 #
coedge $-1 $428 $433 $176 $283 forward $423 $-1 #
edge $-1 $434 16.088059669036738 $435 23.900697807150458 $282 $436 forward 7 unknown #
loop $-1 $-1 $289 $177 #
plane-surface $-1 -66.166570024719988 11.63820225580189 0.33443742730702297 -0.74314483375859142 0 0.66913059716165679 0.66913059716165679 0 0.74314483375859142 forward_v I I I I #
loop $-1 $-1 $437 $113 #
coedge $-1 $287 $287 $288 $438 reversed $178 $-1 #
coedge $-1 $288 $288 $287 $438 forward $180 $-1 #
coedge $-1 $289 $289 $181 $290 forward $284 $-1 #
edge $-1 $439 0 $439 6.2831853071796004 $289 $440 forward 7 unknown #
loop $-1 $-1 $296 $182 #
plane-surface $-1 -66.166570024719988 11.63820225580189 0.33443742730702297 -0.74314483375859142 0 0.66913059716165679 0.66913059716165679 0 0.74314483375859142 forward_v I I I I #
loop $-1 $-1 $441 $116 #
coedge $-1 $294 $294 $295 $442 reversed $183 $-1 #
coedge $-1 $295 $295 $294 $442 forward $185 $-1 #
coedge $-1 $296 $296 $186 $297 forward $291 $-1 #
edge $-1 $443 0 $443 6.2831853071796004 $296 $444 forward 7 unknown #
face $-1 $445 $446 $61 $-1 $447 reversed single #
loop $-1 $-1 $304 $187 #
plane-surface $-1 0 0 9.0112513332804234 0 0 1 1 0 0 forward_v I I I I #
coedge $-1 $448 $449 $450 $451 reversed $188 $-1 #
coedge $-1 $303 $190 $452 $453 reversed $120 $-1 #
coedge $-1 $190 $302 $448 $454 reversed $120 $-1 #
coedge $-1 $450 $455 $190 $305 forward $299 $-1 #
edge $-1 $456 16.088059669036738 $457 23.900697807150458 $304 $458 forward 7 unknown #
loop $-1 $-1 $311 $191 #
plane-surface $-1 -66.166570024719988 23.674086203412703 0.33443742730702297 -0.74314483375859142 0 0.66913059716165679 0.66913059716165679 0 0.74314483375859142 forward_v I I I I #
loop $-1 $-1 $459 $122 #
coedge $-1 $309 $309 $310 $460 reversed $192 $-1 #
coedge $-1 $310 $310 $309 $460 forward $194 $-1 #
coedge $-1 $311 $311 $195 $312 forward $306 $-1 #
edge $-1 $461 0 $461 6.2831853071796004 $311 $462 forward 7 unknown #
loop $-1 $-1 $318 $196 #
plane-surface $-1 -66.166570024719988 23.674086203412703 0.33443742730702297 -0.74314483375859142 0 0.66913059716165679 0.66913059716165679 0 0.74314483375859142 forward_v I I I I #
loop $-1 $-1 $463 $125 #
coedge $-1 $316 $316 $317 $464 reversed $197 $-1 #
coedge $-1 $317 $317 $316 $464 forward $199 $-1 #
coedge $-1 $318 $318 $200 $319 forward $313 $-1 #
edge $-1 $465 0 $465 6.2831853071796004 $318 $466 forward 7 unknown #
face $-1 $467 $468 $48 $-1 $469 reversed single #
loop $-1 $-1 $470 $201 #
plane-surface $-1 -66.166570024719988 0 0 1 0 0 0 0 -1 forward_v I I I I #
coedge $-1 $471 $331 $472 $473 forward $202 $-1 #
coedge $-1 $474 $204 $471 $475 forward $129 $-1 #
coedge $-1 $204 $474 $476 $477 forward $129 $-1 #
coedge $-1 $334 $333 $204 $327 reversed $335 $-1 #
edge $-1 $478 -26.778610646956363 $479 26.778610646956363 $326 $480 forward 7 unknown #
coedge $-1 $206 $205 $481 $482 forward $81 $-1 #
coedge $-1 $483 $484 $205 $330 reversed $468 $-1 #
edge $-1 $337 -66.166570024719988 $485 66.166570024719988 $329 $486 forward 7 unknown #
coedge $-1 $323 $487 $206 $332 reversed $202 $-1 #
edge $-1 $488 -66.166570024719988 $336 66.166570024719988 $331 $489 forward 7 unknown #
coedge $-1 $326 $207 $487 $490 forward $335 $-1 #
coedge $-1 $207 $326 $483 $491 reversed $335 $-1 #
loop $-1 $-1 $333 $467 #
vertex $-1 $208 $492 #
vertex $-1 $208 $493 #
straight-curve $-1 66.166570024719988 0 9.0112513332804234 0 1 0 I I #
face $-1 $494 $495 $49 $-1 $496 reversed single #
loop $-1 $-1 $497 $209 #
plane-surface $-1 0 0 9.0112513332804234 0 0 1 1 0 0 forward_v I I I I #
coedge $-1 $498 $499 $500 $501 reversed $210 $-1 #
coedge $-1 $351 $212 $502 $503 forward $133 $-1 #
coedge $-1 $349 $497 $212 $345 forward $340 $-1 #
edge $-1 $504 25.724114549367822 $352 30.841004852333679 $344 $505 forward 7 unknown #
coedge $-1 $214 $213 $506 $507 reversed $84 $-1 #
coedge $-1 $508 $509 $213 $348 forward $495 $-1 #
edge $-1 $510 -16.199435464476419 $353 -4.9589149004834585 $347 $511 forward 7 unknown #
coedge $-1 $512 $344 $214 $350 forward $340 $-1 #
edge $-1 $352 4.9589149004834585 $513 16.199435464476419 $349 $514 forward 7 unknown #
coedge $-1 $215 $343 $508 $515 reversed $133 $-1 #
vertex $-1 $350 $516 #
vertex $-1 $348 $517 #
straight-curve $-1 -59.12356455318443 -15.538090082963398 0 0 0 -1 I I #
face $-1 $-1 $367 $50 $-1 $518 forward single #
loop $-1 $-1 $519 $217 #
plane-surface $-1 66.166570024719988 0 0 -1 0 0 0 0 1 forward_v I I I I #
coedge $-1 $520 $521 $522 $523 reversed $218 $-1 #
coedge $-1 $524 $220 $222 $365 forward $137 $-1 #
coedge $-1 $220 $524 $520 $525 forward $137 $-1 #
coedge $-1 $522 $223 $220 $362 forward $367 $-1 #
edge $-1 $369 0.68084812140277773 $526 8.5162702472324447 $361 $527 forward 7 unknown #
coedge $-1 $528 $529 $221 $364 forward $356 $-1 #
edge $-1 $530 -91.412166616402303 $368 -86.695400053188166 $363 $531 forward 7 unknown #
edge $-1 $369 125.54308797724522 $530 132.33314004943995 $222 $532 forward 7 unknown #
coedge $-1 $223 $522 $528 $533 forward $367 $-1 #
loop $-1 $-1 $522 $355 #
vertex $-1 $364 $534 #
vertex $-1 $224 $535 #
straight-curve $-1 31.450200515322706 -5.2794073057203894 9.0112513332804269 -1 0 0 I I #
coedge $-1 $371 $371 $-1 $536 reversed $227 $-1 #
edge $-1 $537 0 $537 6.2831853071796004 $228 $538 forward 7 unknown #
vertex $-1 $231 $539 #
ellipse-curve $-1 63.724392700524398 -9.1971183686352234 6.6528680516733463 0.69465837861970381 0 0.71933979245794832 0.35966989622897416 0 -0.3473291893098519 1 I I #
face $-1 $-1 $540 $52 $-1 $541 reversed single #
loop $-1 $-1 $386 $232 #
plane-surface $-1 0 0 9.0112513332804234 0 0 1 1 0 0 forward_v I I I I #
coedge $-1 $542 $543 $236 $384 forward $233 $-1 #
coedge $-1 $380 $235 $237 $385 reversed $146 $-1 #
coedge $-1 $235 $379 $544 $545 reversed $146 $-1 #
coedge $-1 $546 $238 $235 $382 forward $376 $-1 #
edge $-1 $388 -23.900697807150458 $547 -16.088059669036738 $381 $548 forward 7 unknown #
coedge $-1 $237 $236 $549 $550 reversed $93 $-1 #
edge $-1 $551 -3.0880444713398942 $387 8.5877601791329106 $378 $552 forward 7 unknown #
edge $-1 $553 0 $388 11.675804650472806 $379 $554 forward 7 unknown #
coedge $-1 $238 $546 $542 $555 forward $376 $-1 #
vertex $-1 $239 $556 #
vertex $-1 $239 $557 #
straight-curve $-1 -58.353931886606269 -6.21678281970987 9.0112513332804234 0 1 0 I I #
coedge $-1 $390 $390 $-1 $558 reversed $242 $-1 #
edge $-1 $559 0 $559 6.2831853071796004 $243 $560 forward 7 unknown #
vertex $-1 $246 $561 #
ellipse-curve $-1 -62.260250955663132 -13.764076115224166 4.6728443802937241 -0.74314483375859142 0 0.66913059716165679 0.1672826492904142 0 0.18578620843964785 1 I I #
coedge $-1 $394 $394 $-1 $562 reversed $249 $-1 #
edge $-1 $563 0 $563 6.2831853071796004 $250 $564 forward 7 unknown #
vertex $-1 $253 $565 #
ellipse-curve $-1 -62.260250955663132 -11.103055163615313 4.6728443802937241 -0.74314483375859142 0 0.66913059716165679 0.1672826492904142 0 0.18578620843964785 1 I I #
face $-1 $-1 $410 $55 $-1 $566 forward single #
loop $-1 $-1 $567 $254 #
plane-surface $-1 -66.166570024719988 0 0 1 0 0 0 0 -1 forward_v I I I I #
coedge $-1 $568 $569 $570 $571 reversed $255 $-1 #
coedge $-1 $572 $257 $259 $408 forward $160 $-1 #
coedge $-1 $257 $572 $568 $573 forward $160 $-1 #
coedge $-1 $570 $260 $257 $405 forward $410 $-1 #
edge $-1 $412 -3.3033652894481236 $574 2.9056835976391966 $404 $575 forward 7 unknown #
coedge $-1 $576 $577 $258 $407 forward $399 $-1 #
edge $-1 $578 -44.106857799125955 $411 -35.430043893152558 $406 $579 forward 7 unknown #
edge $-1 $412 -11.675804650472806 $578 0 $259 $580 forward 7 unknown #
coedge $-1 $260 $570 $576 $581 forward $410 $-1 #
loop $-1 $-1 $570 $398 #
vertex $-1 $407 $582 #
vertex $-1 $261 $583 #
straight-curve $-1 -82.254629693756726 -3.5022061353525871 9.0112513332804198 1 0 0 I I #
coedge $-1 $414 $414 $-1 $584 reversed $264 $-1 #
edge $-1 $585 0 $585 6.2831853071796004 $265 $586 forward 7 unknown #
vertex $-1 $268 $587 #
ellipse-curve $-1 -62.260250955663132 -1.7281921676133543 4.6728443802937241 -0.74314483375859142 0 0.66913059716165679 0.1672826492904142 0 0.18578620843964785 1 I I #
coedge $-1 $418 $418 $-1 $588 reversed $271 $-1 #
edge $-1 $589 0 $589 6.2831853071796004 $272 $590 forward 7 unknown #
vertex $-1 $275 $591 #
ellipse-curve $-1 -62.260250955663132 0.93282878399550029 4.6728443802937241 -0.74314483375859142 0 0.66913059716165679 0.1672826492904142 0 0.18578620843964785 1 I I #
face $-1 $-1 $592 $58 $-1 $593 reversed single #
loop $-1 $-1 $282 $276 #
plane-surface $-1 0 0 9.0112513332804234 0 0 1 1 0 0 forward_v I I I I #
coedge $-1 $594 $595 $596 $597 reversed $277 $-1 #
coedge $-1 $598 $279 $281 $432 forward $174 $-1 #
coedge $-1 $279 $598 $594 $599 forward $174 $-1 #
coedge $-1 $596 $282 $279 $429 forward $423 $-1 #
edge $-1 $435 2.7145766843572847 $600 8.9236255714446049 $428 $601 forward 7 unknown #
coedge $-1 $602 $603 $280 $431 forward $592 $-1 #
edge $-1 $604 -44.106857799125955 $434 -35.430043893152558 $430 $605 forward 7 unknown #
edge $-1 $435 -11.675804650472806 $604 0 $281 $606 forward 7 unknown #
coedge $-1 $282 $596 $602 $607 forward $423 $-1 #
vertex $-1 $283 $608 #
vertex $-1 $283 $609 #
straight-curve $-1 -82.254629693756726 8.5336778122582295 9.0112513332804198 1 0 0 I I #
coedge $-1 $437 $437 $-1 $610 reversed $286 $-1 #
edge $-1 $611 0 $611 6.2831853071796004 $287 $612 forward 7 unknown #
vertex $-1 $290 $613 #
ellipse-curve $-1 -62.260250955663132 10.307691779997459 4.6728443802937241 -0.74314483375859142 0 0.66913059716165679 0.1672826492904142 0 0.18578620843964785 1 I I #
coedge $-1 $441 $441 $-1 $614 reversed $293 $-1 #
edge $-1 $615 0 $615 6.2831853071796004 $294 $616 forward 7 unknown #
vertex $-1 $297 $617 #
ellipse-curve $-1 -62.260250955663132 12.968712731606313 4.6728443802937241 -0.74314483375859142 0 0.66913059716165679 0.1672826492904142 0 0.18578620843964785 1 I I #
face $-1 $-1 $618 $61 $-1 $619 reversed single #
loop $-1 $-1 $620 $298 #
plane-surface $-1 0 26.778610646956363 0 0 -1 0 0 0 -1 forward_v I I I I #
coedge $-1 $621 $301 $303 $454 forward $188 $-1 #
coedge $-1 $301 $621 $620 $622 reversed $188 $-1 #
coedge $-1 $623 $304 $301 $451 forward $299 $-1 #
edge $-1 $457 8.7325186581626912 $624 14.941567545250011 $450 $625 forward 7 unknown #
coedge $-1 $626 $627 $302 $453 forward $618 $-1 #
edge $-1 $628 -44.106857799125955 $456 -35.430043893152558 $452 $629 forward 7 unknown #
edge $-1 $457 -11.675804650472806 $628 0 $303 $630 forward 7 unknown #
coedge $-1 $304 $623 $626 $631 forward $299 $-1 #
vertex $-1 $453 $632 #
vertex $-1 $305 $633 #
straight-curve $-1 -82.254629693756726 20.569561759869043 9.0112513332804198 1 0 0 I I #
coedge $-1 $459 $459 $-1 $634 reversed $308 $-1 #
edge $-1 $635 0 $635 6.2831853071796004 $309 $636 forward 7 unknown #
vertex $-1 $312 $637 #
ellipse-curve $-1 -62.260250955663132 22.343575727608272 4.6728443802937241 -0.74314483375859142 0 0.66913059716165679 0.1672826492904142 0 0.18578620843964785 1 I I #
coedge $-1 $463 $463 $-1 $638 reversed $315 $-1 #
edge $-1 $639 0 $639 6.2831853071796004 $316 $640 forward 7 unknown #
vertex $-1 $319 $641 #
ellipse-curve $-1 -62.260250955663132 25.004596679217126 4.6728443802937241 -0.74314483375859142 0 0.66913059716165679 0.1672826492904142 0 0.18578620843964785 1 I I #
face $-1 $-1 $335 $48 $-1 $642 reversed single #
loop $-1 $-1 $483 $320 #
plane-surface $-1 0 26.778610646956363 0 0 -1 0 0 0 -1 forward_v I I I I #
coedge $-1 $643 $481 $484 $644 forward $321 $-1 #
coedge $-1 $487 $323 $324 $475 reversed $202 $-1 #
coedge $-1 $481 $643 $323 $473 reversed $321 $-1 #
edge $-1 $488 -9.0112513332804234 $645 9.0112513332804234 $472 $646 forward 7 unknown #
coedge $-1 $325 $324 $643 $647 forward $129 $-1 #
edge $-1 $479 -66.166570024719988 $645 66.166570024719988 $471 $648 forward 7 unknown #
coedge $-1 $484 $483 $325 $477 reversed $468 $-1 #
edge $-1 $649 -66.166570024719988 $478 66.166570024719988 $476 $650 forward 7 unknown #
vertex $-1 $327 $651 #
vertex $-1 $490 $652 #
straight-curve $-1 66.166570024719988 0 -9.0112513332804234 0 -1 0 I I #
coedge $-1 $470 $472 $328 $482 reversed $321 $-1 #
edge $-1 $485 -26.778610646956363 $488 26.778610646956363 $481 $653 forward 7 unknown #
coedge $-1 $476 $329 $334 $491 forward $468 $-1 #
coedge $-1 $329 $476 $470 $644 reversed $468 $-1 #
vertex $-1 $330 $654 #
straight-curve $-1 0 26.778610646956363 9.0112513332804234 -1 0 0 I I #
coedge $-1 $331 $471 $333 $490 reversed $202 $-1 #
vertex $-1 $482 $655 #
straight-curve $-1 0 -26.778610646956363 9.0112513332804234 1 0 0 I I #
edge $-1 $336 -9.0112513332804234 $479 9.0112513332804234 $333 $656 forward 7 unknown #
edge $-1 $337 -9.0112513332804234 $478 9.0112513332804234 $334 $657 forward 7 unknown #
point $-1 66.166570024719988 -26.778610646956363 9.0112513332804234 #
point $-1 66.166570024719988 26.778610646956363 9.0112513332804234 #
face $-1 $-1 $658 $49 $-1 $659 reversed single #
loop $-1 $-1 $660 $339 #
plane-surface $-1 0 0 -9.0112513332804234 0 0 1 1 0 0 forward_v I I I I #
coedge $-1 $344 $512 $499 $661 forward $340 $-1 #
coedge $-1 $502 $342 $660 $662 reversed $210 $-1 #
coedge $-1 $342 $502 $497 $661 reversed $210 $-1 #
coedge $-1 $663 $664 $342 $501 forward $658 $-1 #
edge $-1 $665 -9.0112513332804234 $666 9.0112513332804234 $500 $667 forward 7 unknown #
coedge $-1 $499 $498 $343 $503 reversed $210 $-1 #
edge $-1 $504 -9.0112513332804234 $668 9.0112513332804234 $502 $669 forward 7 unknown #
vertex $-1 $345 $670 #
straight-curve $-1 -28.282559700850751 -15.538090082963398 9.0112513332804234 -1 0 0 I I #
coedge $-1 $664 $663 $346 $507 forward $658 $-1 #
edge $-1 $513 -9.0112513332804234 $510 9.0112513332804234 $506 $671 forward 7 unknown #
coedge $-1 $660 $347 $351 $515 forward $495 $-1 #
coedge $-1 $347 $660 $664 $672 forward $495 $-1 #
vertex $-1 $348 $673 #
straight-curve $-1 -59.12356455318443 -10.57917518247994 -9.0112513332804234 0 1 0 I I #
coedge $-1 $497 $349 $663 $674 forward $340 $-1 #
vertex $-1 $674 $675 #
straight-curve $-1 -59.12356455318443 -10.57917518247994 9.0112513332804234 0 -1 0 I I #
edge $-1 $353 -30.841004852333679 $668 -25.724114549367822 $508 $676 forward 7 unknown #
point $-1 -59.12356455318443 -15.538090082963398 9.0112513332804234 #
point $-1 -59.12356455318443 -15.538090082963398 -9.0112513332804234 #
plane-surface $-1 0 0 9.0112513332804234 0 0 1 1 0 0 forward_v I I I I #
coedge $-1 $529 $528 $521 $677 forward $356 $-1 #
coedge $-1 $521 $358 $360 $525 reversed $218 $-1 #
coedge $-1 $358 $520 $519 $677 reversed $218 $-1 #
coedge $-1 $366 $361 $358 $523 forward $367 $-1 #
edge $-1 $526 29.832014861006073 $678 34.716369509397282 $522 $679 forward 7 unknown #
coedge $-1 $360 $359 $529 $680 reversed $137 $-1 #
edge $-1 $681 -132.33314004943995 $526 -125.54308797724522 $520 $682 forward 7 unknown #
vertex $-1 $362 $683 #
straight-curve $-1 61.282215376328779 -4.5985591843176117 9.0112513332804269 0 -1 0 I I #
coedge $-1 $519 $363 $366 $533 reversed $356 $-1 #
coedge $-1 $363 $519 $524 $680 forward $356 $-1 #
vertex $-1 $364 $684 #
straight-curve $-1 66.166570024719988 -5.2794073057203894 95.706651386468593 0 0 1 I I #
straight-curve $-1 -29.025923473752755 -5.2794073057203894 96.220809274464429 0.71933979245794832 0 -0.69465837861970381 I I #
edge $-1 $678 -13.114829431550056 $368 -5.2794073057203894 $528 $685 forward 7 unknown #
point $-1 66.166570024719988 -5.2794073057203894 9.0112513332804234 #
point $-1 61.282215376328779 -5.2794073057203894 9.0112513332804269 #
edge $-1 $686 1 $686 0 $371 $-1 forward 7 unknown #
vertex $-1 $372 $687 #
ellipse-curve $-1 62.715911635094557 -9.1971183686352234 5.6085553612462471 0.69465837861970381 0 0.71933979245794832 0.35966989622897416 0 -0.3473291893098519 1 I I #
point $-1 64.08406259675337 -9.1971183686352234 6.3055388623634885 #
loop $-1 $-1 $688 $375 #
plane-surface $-1 -66.166570024719988 0 0 1 0 0 0 0 -1 forward_v I I I I #
coedge $-1 $543 $378 $386 $555 reversed $233 $-1 #
coedge $-1 $378 $542 $688 $689 reversed $233 $-1 #
coedge $-1 $549 $690 $380 $545 forward $540 $-1 #
edge $-1 $547 35.430043893152558 $553 44.106857799125955 $544 $691 forward 7 unknown #
coedge $-1 $386 $381 $690 $692 forward $376 $-1 #
vertex $-1 $692 $693 #
straight-curve $-1 -82.254629693756726 -9.3290411958760799 9.0112513332804198 -1 0 0 I I #
coedge $-1 $688 $544 $383 $550 forward $540 $-1 #
edge $-1 $553 3.1122583761662099 $551 9.3213072632535301 $549 $694 forward 7 unknown #
vertex $-1 $689 $695 #
straight-curve $-1 -64.100264983550574 -15.538090082963398 2.6293017226000477 0.66913059716165679 0 0.74314483375859142 I I #
vertex $-1 $550 $696 #
straight-curve $-1 -66.166570024719988 -9.3290411958760799 0.33443742730702297 0.66913059716165679 0 0.74314483375859142 I I #
edge $-1 $697 16.088059669036738 $387 23.900697807150458 $386 $698 forward 7 unknown #
point $-1 -58.353931886606269 -15.5380900829634 9.0112513332804234 #
point $-1 -58.353931886606269 -9.3290411958760799 9.0112513332804234 #
edge $-1 $699 1 $699 0 $390 $-1 forward 7 unknown #
vertex $-1 $391 $700 #
ellipse-curve $-1 -61.517106121904554 -13.764076115224166 4.0037137831320813 -0.74314483375859142 0 0.66913059716165679 0.1672826492904142 0 0.18578620843964785 1 I I #
point $-1 -62.092968306372732 -13.764076115224166 4.8586305887333863 #
edge $-1 $701 1 $701 0 $394 $-1 forward 7 unknown #
vertex $-1 $395 $702 #
ellipse-curve $-1 -61.517106121904554 -11.103055163615313 4.0037137831320813 -0.74314483375859142 0 0.66913059716165679 0.1672826492904142 0 0.18578620843964785 1 I I #
point $-1 -62.092968306372732 -11.103055163615313 4.8586305887333863 #
plane-surface $-1 0 0 9.0112513332804234 0 0 1 1 0 0 forward_v I I I I #
coedge $-1 $577 $576 $569 $703 forward $399 $-1 #
coedge $-1 $569 $401 $403 $573 reversed $255 $-1 #
coedge $-1 $401 $568 $567 $703 reversed $255 $-1 #
coedge $-1 $409 $404 $401 $571 forward $410 $-1 #
edge $-1 $574 -23.900697807150458 $704 -16.088059669036738 $570 $705 forward 7 unknown #
coedge $-1 $403 $402 $577 $706 reversed $160 $-1 #
edge $-1 $707 0 $574 11.675804650472806 $568 $708 forward 7 unknown #
vertex $-1 $405 $709 #
straight-curve $-1 -58.353931886606269 -0.19884084590446349 9.0112513332804234 0 1 0 I I #
coedge $-1 $567 $406 $409 $581 reversed $399 $-1 #
coedge $-1 $406 $567 $572 $706 forward $399 $-1 #
vertex $-1 $407 $710 #
straight-curve $-1 -66.166570024719988 -3.5022061353525871 44.441295226432977 0 0 1 I I #
straight-curve $-1 -66.166570024719988 -3.5022061353525871 0.33443742730702297 -0.66913059716165679 0 -0.74314483375859142 I I #
edge $-1 $704 -2.7068427517347331 $411 3.5022061353525871 $576 $711 forward 7 unknown #
point $-1 -66.166570024719988 -3.5022061353525871 9.0112513332804234 #
point $-1 -58.353931886606269 -3.5022061353525871 9.0112513332804234 #
edge $-1 $712 1 $712 0 $414 $-1 forward 7 unknown #
vertex $-1 $415 $713 #
ellipse-curve $-1 -61.517106121904554 -1.7281921676133543 4.0037137831320813 -0.74314483375859142 0 0.66913059716165679 0.1672826492904142 0 0.18578620843964785 1 I I #
point $-1 -62.092968306372732 -1.7281921676133543 4.8586305887333863 #
edge $-1 $714 1 $714 0 $418 $-1 forward 7 unknown #
vertex $-1 $419 $715 #
ellipse-curve $-1 -61.517106121904554 0.93282878399550029 4.0037137831320813 -0.74314483375859142 0 0.66913059716165679 0.1672826492904142 0 0.18578620843964785 1 I I #
point $-1 -62.092968306372732 0.93282878399550029 4.8586305887333863 #
loop $-1 $-1 $430 $422 #
plane-surface $-1 -66.166570024719988 0 0 1 0 0 0 0 -1 forward_v I I I I #
coedge $-1 $595 $425 $427 $599 reversed $277 $-1 #
coedge $-1 $425 $594 $716 $717 reversed $277 $-1 #
coedge $-1 $433 $428 $425 $597 forward $423 $-1 #
edge $-1 $600 -23.900697807150458 $718 -16.088059669036738 $596 $719 forward 7 unknown #
coedge $-1 $427 $426 $603 $720 reversed $174 $-1 #
edge $-1 $721 0 $600 11.675804650472806 $594 $722 forward 7 unknown #
vertex $-1 $429 $723 #
straight-curve $-1 -58.353931886606269 5.8191011279009448 9.0112513332804234 0 1 0 I I #
coedge $-1 $716 $430 $433 $607 reversed $592 $-1 #
coedge $-1 $430 $716 $598 $720 forward $592 $-1 #
vertex $-1 $431 $724 #
straight-curve $-1 -66.166570024719988 8.5336778122582295 44.441295226432977 0 0 1 I I #
straight-curve $-1 -66.166570024719988 8.5336778122582295 0.33443742730702297 -0.66913059716165679 0 -0.74314483375859142 I I #
edge $-1 $718 -14.74272669934555 $434 -8.5336778122582295 $602 $725 forward 7 unknown #
point $-1 -66.166570024719988 8.5336778122582295 9.0112513332804234 #
point $-1 -58.353931886606269 8.5336778122582295 9.0112513332804234 #
edge $-1 $726 1 $726 0 $437 $-1 forward 7 unknown #
vertex $-1 $438 $727 #
ellipse-curve $-1 -61.517106121904554 10.307691779997459 4.0037137831320813 -0.74314483375859142 0 0.66913059716165679 0.1672826492904142 0 0.18578620843964785 1 I I #
point $-1 -62.092968306372732 10.307691779997459 4.8586305887333863 #
edge $-1 $728 1 $728 0 $441 $-1 forward 7 unknown #
vertex $-1 $442 $729 #
ellipse-curve $-1 -61.517106121904554 12.968712731606313 4.0037137831320813 -0.74314483375859142 0 0.66913059716165679 0.1672826492904142 0 0.18578620843964785 1 I I #
point $-1 -62.092968306372732 12.968712731606313 4.8586305887333863 #
loop $-1 $-1 $452 $445 #
plane-surface $-1 -66.166570024719988 0 0 1 0 0 0 0 -1 forward_v I I I I #
coedge $-1 $730 $731 $449 $622 forward $446 $-1 #
coedge $-1 $449 $448 $627 $732 reversed $188 $-1 #
edge $-1 $624 10.336965882757564 $733 22.01277053323037 $620 $734 forward 7 unknown #
coedge $-1 $455 $450 $731 $735 forward $299 $-1 #
vertex $-1 $735 $736 #
straight-curve $-1 -58.353931886606269 11.837043101706351 9.0112513332804234 0 1 0 I I #
coedge $-1 $737 $452 $455 $631 reversed $618 $-1 #
coedge $-1 $452 $737 $621 $732 forward $618 $-1 #
vertex $-1 $453 $738 #
straight-curve $-1 -66.166570024719988 20.569561759869043 44.441295226432977 0 0 1 I I #
straight-curve $-1 -66.166570024719988 20.569561759869043 0.33443742730702297 -0.66913059716165679 0 -0.74314483375859142 I I #
edge $-1 $739 -26.778610646956363 $456 -20.569561759869043 $626 $740 forward 7 unknown #
point $-1 -66.166570024719988 20.569561759869043 9.0112513332804234 #
point $-1 -58.353931886606269 20.569561759869043 9.0112513332804234 #
edge $-1 $741 1 $741 0 $459 $-1 forward 7 unknown #
vertex $-1 $460 $742 #
ellipse-curve $-1 -61.517106121904554 22.343575727608272 4.0037137831320813 -0.74314483375859142 0 0.66913059716165679 0.1672826492904142 0 0.18578620843964785 1 I I #
point $-1 -62.092968306372732 22.343575727608272 4.8586305887333863 #
edge $-1 $743 1 $743 0 $463 $-1 forward 7 unknown #
vertex $-1 $464 $744 #
ellipse-curve $-1 -61.517106121904554 25.004596679217126 4.0037137831320813 -0.74314483375859142 0 0.66913059716165679 0.1672826492904142 0 0.18578620843964785 1 I I #
point $-1 -62.092968306372732 25.004596679217126 4.8586305887333863 #
plane-surface $-1 66.166570024719988 0 0 -1 0 0 0 0 1 forward_v I I I I #
coedge $-1 $472 $470 $474 $647 reversed $321 $-1 #
edge $-1 $485 -9.0112513332804234 $649 9.0112513332804234 $484 $745 forward 7 unknown #
vertex $-1 $647 $746 #
straight-curve $-1 -66.166570024719988 -26.778610646956363 0 0 0 -1 I I #
edge $-1 $645 -26.778610646956363 $649 26.778610646956363 $643 $747 forward 7 unknown #
straight-curve $-1 0 -26.778610646956363 -9.0112513332804234 -1 0 0 I I #
vertex $-1 $477 $748 #
straight-curve $-1 0 26.778610646956363 -9.0112513332804234 1 0 0 I I #
point $-1 66.166570024719988 26.778610646956363 -9.0112513332804234 #
point $-1 66.166570024719988 -26.778610646956363 -9.0112513332804234 #
straight-curve $-1 -66.166570024719988 0 9.0112513332804234 0 -1 0 I I #
point $-1 -66.166570024719988 26.778610646956363 9.0112513332804234 #
point $-1 -66.166570024719988 -26.778610646956363 9.0112513332804234 #
straight-curve $-1 66.166570024719988 -26.778610646956363 0 0 0 -1 I I #
straight-curve $-1 66.166570024719988 26.778610646956363 0 0 0 -1 I I #
loop $-1 $-1 $500 $494 #
plane-surface $-1 0 -26.778610646956363 0 0 1 0 0 0 1 forward_v I I I I #
coedge $-1 $509 $508 $498 $662 forward $495 $-1 #
edge $-1 $666 -16.199435464476419 $504 -4.9589149004834585 $497 $749 forward 7 unknown #
edge $-1 $668 4.9589149004834585 $665 16.199435464476419 $660 $750 forward 7 unknown #
coedge $-1 $506 $500 $512 $674 reversed $658 $-1 #
coedge $-1 $500 $506 $509 $672 reversed $658 $-1 #
vertex $-1 $672 $751 #
vertex $-1 $501 $752 #
straight-curve $-1 -54.006674250218573 -26.778610646956363 0 0 0 1 I I #
vertex $-1 $515 $753 #
straight-curve $-1 -54.006674250218573 -15.538090082963398 0 0 0 -1 I I #
point $-1 -54.006674250218573 -15.538090082963398 9.0112513332804234 #
straight-curve $-1 -59.12356455318443 -26.778610646956363 0 0 0 -1 I I #
edge $-1 $665 54.006674250218573 $510 59.12356455318443 $664 $754 forward 7 unknown #
point $-1 -59.12356455318443 -26.778610646956359 -9.0112513332804234 #
edge $-1 $513 -59.12356455318443 $666 -54.006674250218573 $663 $755 forward 7 unknown #
point $-1 -59.12356455318443 -26.778610646956359 9.0112513332804234 #
straight-curve $-1 -28.282559700850751 -15.538090082963398 -9.0112513332804234 1 0 0 I I #
edge $-1 $678 86.695400053188166 $681 91.412166616402303 $519 $756 forward 7 unknown #
vertex $-1 $533 $757 #
straight-curve $-1 31.450200515322706 -13.114829431550056 9.0112513332804269 1 0 0 I I #
edge $-1 $681 -8.5162702472324447 $530 -0.68084812140277773 $529 $758 forward 7 unknown #
vertex $-1 $680 $759 #
straight-curve $-1 -29.025923473752755 -13.114829431550056 96.220809274464429 -0.71933979245794832 0 0.69465837861970381 I I #
point $-1 61.282215376328779 -13.114829431550056 9.0112513332804269 #
point $-1 66.166570024719988 -5.2794073057203894 4.2944847700662905 #
straight-curve $-1 66.166570024719988 0 9.0112513332804234 0 1 0 I I #
vertex $-1 $536 $760 #
point $-1 63.075581531323536 -9.1971183686352234 5.2612261719363955 #
coedge $-1 $690 $549 $543 $689 forward $540 $-1 #
edge $-1 $551 -44.106857799125955 $697 -35.430043893152558 $688 $761 forward 7 unknown #
coedge $-1 $544 $688 $546 $692 reversed $540 $-1 #
straight-curve $-1 -66.166570024719988 -9.3290411958760799 44.441295226432977 0 0 -1 I I #
edge $-1 $547 9.3290411958760799 $697 15.5380900829634 $690 $762 forward 7 unknown #
point $-1 -66.166570024719988 -9.3290411958760799 9.0112513332804234 #
straight-curve $-1 -66.166570024719988 -6.21678281970987 0.33443742730701631 0 -1 0 I I #
point $-1 -66.166570024719988 -15.5380900829634 0.33443742730702297 #
point $-1 -66.166570024719988 -9.3290411958760799 0.33443742730702297 #
vertex $-1 $689 $763 #
straight-curve $-1 -82.254629693756726 -15.5380900829634 9.0112513332804198 1 0 0 I I #
vertex $-1 $558 $764 #
point $-1 -61.34982347261414 -13.764076115224166 4.1894999915717293 #
vertex $-1 $562 $765 #
point $-1 -61.34982347261414 -11.103055163615313 4.1894999915717293 #
edge $-1 $704 35.430043893152558 $707 44.106857799125955 $567 $766 forward 7 unknown #
vertex $-1 $581 $767 #
straight-curve $-1 -82.254629693756726 2.7068427517347331 9.0112513332804198 -1 0 0 I I #
edge $-1 $707 -2.9056835976391966 $578 3.3033652894481236 $577 $768 forward 7 unknown #
vertex $-1 $706 $769 #
straight-curve $-1 -66.166570024719988 2.7068427517347331 0.33443742730702297 0.66913059716165679 0 0.74314483375859142 I I #
point $-1 -58.353931886606269 2.7068427517347331 9.0112513332804234 #
point $-1 -66.166570024719988 -3.5022061353525871 0.33443742730702297 #
straight-curve $-1 -66.166570024719988 0 9.0112513332804234 0 -1 0 I I #
vertex $-1 $584 $770 #
point $-1 -61.34982347261414 -1.7281921676133543 4.1894999915717293 #
vertex $-1 $588 $771 #
point $-1 -61.34982347261414 0.93282878399550029 4.1894999915717293 #
coedge $-1 $603 $602 $595 $717 forward $592 $-1 #
edge $-1 $718 35.430043893152558 $721 44.106857799125955 $716 $772 forward 7 unknown #
vertex $-1 $607 $773 #
straight-curve $-1 -82.254629693756726 14.74272669934555 9.0112513332804198 -1 0 0 I I #
edge $-1 $721 -8.9236255714446049 $604 -2.7145766843572847 $603 $774 forward 7 unknown #
vertex $-1 $720 $775 #
straight-curve $-1 -66.166570024719988 14.74272669934555 0.33443742730702297 0.66913059716165679 0 0.74314483375859142 I I #
point $-1 -58.353931886606269 14.74272669934555 9.0112513332804234 #
point $-1 -66.166570024719988 8.5336778122582295 0.33443742730702297 #
straight-curve $-1 -66.166570024719988 0 9.0112513332804234 0 -1 0 I I #
vertex $-1 $610 $776 #
point $-1 -61.34982347261414 10.307691779997459 4.1894999915717293 #
vertex $-1 $614 $777 #
point $-1 -61.34982347261414 12.968712731606313 4.1894999915717293 #
coedge $-1 $731 $620 $737 $778 reversed $446 $-1 #
coedge $-1 $620 $730 $623 $735 reversed $446 $-1 #
edge $-1 $733 -14.941567545250011 $628 -8.7325186581626912 $627 $779 forward 7 unknown #
vertex $-1 $622 $780 #
straight-curve $-1 -51.437151732637027 26.778610646956363 16.693114125790526 -0.66913059716165679 0 -0.74314483375859142 I I #
edge $-1 $624 58.353931886606269 $739 66.166570024719988 $731 $781 forward 7 unknown #
point $-1 -58.353931886606269 26.778610646956363 9.0112513332804234 #
coedge $-1 $627 $626 $730 $778 forward $618 $-1 #
point $-1 -66.166570024719988 20.569561759869043 0.33443742730702297 #
vertex $-1 $735 $782 #
straight-curve $-1 -66.166570024719988 0 9.0112513332804234 0 -1 0 I I #
vertex $-1 $634 $783 #
point $-1 -61.34982347261414 22.343575727608272 4.1894999915717293 #
vertex $-1 $638 $784 #
point $-1 -61.34982347261414 25.004596679217126 4.1894999915717293 #
straight-curve $-1 -66.166570024719988 26.778610646956363 0 0 0 -1 I I #
point $-1 -66.166570024719988 -26.778610646956363 -9.0112513332804234 #
straight-curve $-1 -66.166570024719988 0 -9.0112513332804234 0 1 0 I I #
point $-1 -66.166570024719988 26.778610646956363 -9.0112513332804234 #
straight-curve $-1 -54.006674250218573 -10.57917518247994 9.0112513332804234 0 1 0 I I #
straight-curve $-1 -54.006674250218573 -10.57917518247994 -9.0112513332804234 0 -1 0 I I #
point $-1 -54.006674250218573 -26.778610646956359 -9.0112513332804234 #
point $-1 -54.006674250218573 -26.778610646956359 9.0112513332804234 #
point $-1 -54.006674250218573 -15.538090082963398 -9.0112513332804234 #
straight-curve $-1 0 -26.778610646956363 -9.0112513332804234 -1 0 0 I I #
straight-curve $-1 0 -26.778610646956363 9.0112513332804234 1 0 0 I I #
straight-curve $-1 66.166570024719988 -13.114829431550056 95.706651386468593 0 0 -1 I I #
point $-1 66.166570024719988 -13.114829431550056 9.0112513332804234 #
straight-curve $-1 66.166570024719988 -4.5985591843176117 4.2944847700662976 0 1 0 I I #
point $-1 66.166570024719988 -13.114829431550056 4.2944847700662905 #
point $-1 62.36858244578471 -9.1971183686352234 5.2488854650172732 #
straight-curve $-1 -66.166570024719988 -15.5380900829634 44.441295226432977 0 0 1 I I #
straight-curve $-1 -66.166570024719988 0 9.0112513332804234 0 -1 0 I I #
point $-1 -66.166570024719988 -15.5380900829634 9.0112513332804234 #
point $-1 -61.331319913464903 -13.764076115224166 3.8364311338416672 #
point $-1 -61.331319913464903 -11.103055163615313 3.8364311338416672 #
straight-curve $-1 -66.166570024719988 2.7068427517347331 44.441295226432977 0 0 -1 I I #
point $-1 -66.166570024719988 2.7068427517347331 9.0112513332804234 #
straight-curve $-1 -66.166570024719988 -0.19884084590446349 0.33443742730701631 0 -1 0 I I #
point $-1 -66.166570024719988 2.7068427517347331 0.33443742730702297 #
point $-1 -61.331319913464903 -1.7281921676133543 3.8364311338416672 #
point $-1 -61.331319913464903 0.93282878399550029 3.8364311338416672 #
straight-curve $-1 -66.166570024719988 14.74272669934555 44.441295226432977 0 0 -1 I I #
point $-1 -66.166570024719988 14.74272669934555 9.0112513332804234 #
straight-curve $-1 -66.166570024719988 5.8191011279009448 0.33443742730701631 0 -1 0 I I #
point $-1 -66.166570024719988 14.74272669934555 0.33443742730702297 #
point $-1 -61.331319913464903 10.307691779997459 3.8364311338416672 #
point $-1 -61.331319913464903 12.968712731606313 3.8364311338416672 #
edge $-1 $739 -9.0112513332804234 $733 -0.33443742730702297 $730 $785 forward 7 unknown #
straight-curve $-1 -66.166570024719988 11.837043101706351 0.33443742730701631 0 -1 0 I I #
point $-1 -66.166570024719988 26.778610646956363 0.33443742730702297 #
straight-curve $-1 0 26.778610646956363 9.0112513332804234 -1 0 0 I I #
point $-1 -66.166570024719988 26.778610646956363 9.0112513332804234 #
point $-1 -61.331319913464903 22.343575727608272 3.8364311338416672 #
point $-1 -61.331319913464903 25.004596679217126 3.8364311338416672 #
straight-curve $-1 -66.166570024719988 26.778610646956363 0 0 0 -1 I I #
End-of-ACIS-data 