500 0 11 0           
7 Unknown 11 ACIS 5.0 NT 24 Thu Mar 25 17:07:28 1999 
-1 9.9999999999999995e-007 1e-010 
body $-1 $11 $-1 $12 #
body $-1 $13 $-1 $14 #
body $-1 $15 $-1 $16 #
body $-1 $17 $-1 $18 #
body $-1 $19 $-1 $20 #
body $-1 $21 $-1 $22 #
body $-1 $23 $-1 $24 #
body $-1 $25 $-1 $26 #
body $-1 $27 $-1 $28 #
body $-1 $29 $-1 $30 #
body $-1 $31 $-1 $32 #
lump $-1 $-1 $33 $0 #
transform $-1 1 0 0 0 1 0 0 0 1 62.180852687154761 31.949879701590394 15.702897355701239 1 rotate no_reflect no_shear #
lump $-1 $-1 $34 $1 #
transform $-1 1 0 0 0 1 0 0 0 1 62.180852687154761 31.949879701590394 15.702897355701239 1 rotate no_reflect no_shear #
lump $-1 $-1 $35 $2 #
transform $-1 1 0 0 0 1 0 0 0 1 62.180852687154761 31.949879701590394 15.702897355701239 1 rotate no_reflect no_shear #
lump $-1 $-1 $36 $3 #
transform $-1 1 0 0 0 1 0 0 0 1 62.180852687154761 31.949879701590394 15.702897355701239 1 rotate no_reflect no_shear #
lump $-1 $-1 $37 $4 #
transform $-1 1 0 0 0 1 0 0 0 1 62.180852687154761 31.949879701590394 15.702897355701239 1 rotate no_reflect no_shear #
lump $-1 $-1 $38 $5 #
transform $-1 1 0 0 0 1 0 0 0 1 62.180852687154761 31.949879701590394 15.702897355701239 1 rotate no_reflect no_shear #
lump $-1 $-1 $39 $6 #
transform $-1 1 0 0 0 1 0 0 0 1 62.180852687154761 31.949879701590394 15.702897355701239 1 rotate no_reflect no_shear #
lump $-1 $-1 $40 $7 #
transform $-1 1 0 0 0 1 0 0 0 1 62.180852687154761 31.949879701590394 15.702897355701239 1 rotate no_reflect no_shear #
lump $-1 $-1 $41 $8 #
transform $-1 1 0 0 0 1 0 0 0 1 62.180852687154761 31.949879701590394 15.702897355701239 1 rotate no_reflect no_shear #
lump $-1 $-1 $42 $9 #
transform $-1 1 0 0 0 1 0 0 0 1 62.180852687154761 31.949879701590394 15.702897355701239 1 rotate no_reflect no_shear #
lump $-1 $-1 $43 $10 #
transform $-1 1 0 0 0 1 0 0 0 1 62.180852687154761 31.949879701590394 15.702897355701239 1 rotate no_reflect no_shear #
shell $-1 $-1 $-1 $44 $-1 $11 #
shell $-1 $-1 $-1 $45 $-1 $13 #
shell $-1 $-1 $-1 $46 $-1 $15 #
shell $-1 $-1 $-1 $47 $-1 $17 #
shell $-1 $-1 $-1 $48 $-1 $19 #
shell $-1 $-1 $-1 $49 $-1 $21 #
shell $-1 $-1 $-1 $50 $-1 $23 #
shell $-1 $-1 $-1 $51 $-1 $25 #
shell $-1 $-1 $-1 $52 $-1 $27 #
shell $-1 $-1 $-1 $53 $-1 $29 #
shell $-1 $-1 $-1 $54 $-1 $31 #
face $-1 $55 $56 $33 $-1 $57 forward single #
face $-1 $58 $59 $34 $-1 $60 reversed single #
face $-1 $61 $62 $35 $-1 $63 reversed single #
face $-1 $64 $65 $36 $-1 $66 forward single #
face $-1 $67 $68 $37 $-1 $69 forward single #
face $-1 $70 $71 $38 $-1 $72 reversed single #
face $-1 $73 $74 $39 $-1 $75 forward single #
face $-1 $76 $77 $40 $-1 $78 forward single #
face $-1 $79 $80 $41 $-1 $81 reversed single #
face $-1 $82 $83 $42 $-1 $84 forward single #
face $-1 $85 $86 $43 $-1 $87 forward single #
face $-1 $88 $89 $33 $-1 $90 reversed single #
loop $-1 $-1 $91 $44 #
plane-surface $-1 0 0 15.702897355701239 0 0 1 1 0 0 forward_v I I I I #
face $-1 $92 $93 $34 $-1 $94 reversed single #
loop $-1 $-1 $95 $45 #
plane-surface $-1 -49.008865207532963 -22.79530667550538 0 1 0 0 0 0 -1 forward_v I I I I #
face $-1 $96 $97 $35 $-1 $98 reversed single #
loop $-1 $-1 $99 $46 #
plane-surface $-1 19.633080073243711 -6.2469672109082861 180.1299685807133 0 -1 0 -0.51503808176128008 0 -0.85716729658548041 forward_v I I I I #
face $-1 $100 $101 $36 $-1 $102 forward single #
loop $-1 $103 $104 $47 #
cone-surface $-1 56.682358829122066 -11.52822895270263 12.058441756701036 -0.51503808176128008 0 -0.85716729658548041 0.4285836482927402 0 -0.25751904088064004 1 I I 0 1 0.5 forward I I I I #
face $-1 $105 $106 $37 $-1 $107 forward single #
loop $-1 $108 $109 $48 #
cone-surface $-1 56.682358829122066 -8.3594719076260233 12.058441756701036 -0.51503808176128008 0 -0.85716729658548041 0.4285836482927402 0 -0.25751904088064004 1 I I 0 1 0.5 forward I I I I #
face $-1 $110 $111 $38 $-1 $112 reversed single #
loop $-1 $-1 $113 $49 #
plane-surface $-1 19.633080073243711 16.548339464597092 180.1299685807133 0 -1 0 -0.51503808176128008 0 -0.85716729658548041 forward_v I I I I #
face $-1 $114 $115 $39 $-1 $116 forward single #
loop $-1 $117 $118 $50 #
cone-surface $-1 56.682358829122066 11.26707772280275 12.058441756701036 -0.51503808176128008 0 -0.85716729658548041 0.4285836482927402 0 -0.25751904088064004 1 I I 0 1 0.5 forward I I I I #
face $-1 $119 $120 $40 $-1 $121 forward single #
loop $-1 $122 $123 $51 #
cone-surface $-1 56.682358829122066 14.435834767879353 12.058441756701036 -0.51503808176128008 0 -0.85716729658548041 0.4285836482927402 0 -0.25751904088064004 1 I I 0 1 0.5 forward I I I I #
face $-1 $124 $125 $41 $-1 $126 reversed single #
loop $-1 $-1 $127 $52 #
plane-surface $-1 -143.76947335080993 19.825376698610977 95.739512079916935 0 1 0 -0.6560590369687036 0 0.75470957328743171 forward_v I I I I #
face $-1 $128 $129 $42 $-1 $130 forward single #
loop $-1 $131 $132 $53 #
cone-surface $-1 -52.93633343801929 23.289520413747955 7.3026827154416516 0.6560590369687036 0 -0.75470957328743171 0.75470957328743171 0 0.6560590369687036 1 I I 0 1 1 forward I I I I #
face $-1 $133 $134 $43 $-1 $135 forward single #
loop $-1 $136 $137 $54 #
cone-surface $-1 -52.93633343801929 28.485735986453417 7.3026827154416516 0.6560590369687036 0 -0.75470957328743171 0.75470957328743171 0 0.6560590369687036 1 I I 0 1 1 forward I I I I #
face $-1 $138 $139 $33 $-1 $140 reversed single #
loop $-1 $-1 $141 $55 #
plane-surface $-1 0 0 -15.702897355701239 0 0 1 1 0 0 forward_v I I I I #
coedge $-1 $142 $143 $144 $145 forward $56 $-1 #
face $-1 $146 $147 $34 $-1 $148 reversed single #
loop $-1 $-1 $149 $58 #
plane-surface $-1 -47.157268036195248 -13.640733649420367 0 0 -1 0 0 0 -1 forward_v I I I I #
coedge $-1 $150 $151 $152 $153 forward $59 $-1 #
face $-1 $154 $155 $35 $-1 $156 reversed single #
loop $-1 $-1 $157 $61 #
plane-surface $-1 -44.417934107302138 -9.9438504301643285 73.531181786256397 0.51503808176128008 0 0.85716729658548041 0.85716729658548041 0 -0.51503808176128008 forward_v I I I I #
coedge $-1 $158 $159 $160 $161 reversed $62 $-1 #
face $-1 $-1 $162 $36 $-1 $163 forward single #
loop $-1 $164 $165 $64 #
cone-surface $-1 56.233286080459074 -11.52822895270263 11.311059208549807 -0.51503808176128008 0 -0.85716729658548041 0.2142918241463701 0 -0.12875952044032002 1 I I -0.70710678118654746 0.70710678118654746 0.25 forward I I I I #
loop $-1 $-1 $166 $47 #
coedge $-1 $104 $104 $167 $168 reversed $65 $-1 #
face $-1 $-1 $169 $37 $-1 $170 forward single #
loop $-1 $171 $172 $67 #
cone-surface $-1 56.233286080459074 -8.3594719076260233 11.311059208549807 -0.51503808176128008 0 -0.85716729658548041 0.2142918241463701 0 -0.12875952044032002 1 I I -0.70710678118654746 0.70710678118654746 0.25 forward I I I I #
loop $-1 $-1 $173 $48 #
coedge $-1 $109 $109 $174 $175 reversed $68 $-1 #
face $-1 $176 $177 $38 $-1 $178 reversed single #
loop $-1 $-1 $179 $70 #
plane-surface $-1 -44.417934107302138 12.851456245341051 73.531181786256397 0.51503808176128008 0 0.85716729658548041 0.85716729658548041 0 -0.51503808176128008 forward_v I I I I #
coedge $-1 $180 $181 $182 $183 reversed $71 $-1 #
face $-1 $-1 $184 $39 $-1 $185 forward single #
loop $-1 $186 $187 $73 #
cone-surface $-1 56.233286080459074 11.26707772280275 11.311059208549807 -0.51503808176128008 0 -0.85716729658548041 0.2142918241463701 0 -0.12875952044032002 1 I I -0.70710678118654746 0.70710678118654746 0.25 forward I I I I #
loop $-1 $-1 $188 $50 #
coedge $-1 $118 $118 $189 $190 reversed $74 $-1 #
face $-1 $-1 $191 $40 $-1 $192 forward single #
loop $-1 $193 $194 $76 #
cone-surface $-1 56.233286080459074 14.435834767879353 11.311059208549807 -0.51503808176128008 0 -0.85716729658548041 0.2142918241463701 0 -0.12875952044032002 1 I I -0.70710678118654746 0.70710678118654746 0.25 forward I I I I #
loop $-1 $-1 $195 $51 #
coedge $-1 $123 $123 $196 $197 reversed $77 $-1 #
face $-1 $198 $199 $41 $-1 $200 forward single #
loop $-1 $-1 $201 $79 #
plane-surface $-1 -62.180852687154768 25.887628200100682 1.8825424835744968 -0.6560590369687036 0 0.75470957328743171 0.75470957328743171 0 0.6560590369687036 forward_v I I I I #
coedge $-1 $202 $203 $204 $205 reversed $80 $-1 #
face $-1 $-1 $206 $42 $-1 $207 forward single #
loop $-1 $208 $209 $82 #
cone-surface $-1 -51.313034311420132 23.289520413747955 5.4352907246017281 0.6560590369687036 0 -0.75470957328743171 0.37735478664371586 0 0.3280295184843518 1 I I -0.70710678118654746 0.70710678118654746 0.5 forward I I I I #
loop $-1 $-1 $210 $53 #
coedge $-1 $132 $132 $211 $212 reversed $83 $-1 #
face $-1 $-1 $213 $43 $-1 $214 forward single #
loop $-1 $215 $216 $85 #
cone-surface $-1 -51.313034311420132 28.485735986453417 5.4352907246017281 0.6560590369687036 0 -0.75470957328743171 0.37735478664371586 0 0.3280295184843518 1 I I -0.70710678118654746 0.70710678118654746 0.5 forward I I I I #
loop $-1 $-1 $217 $54 #
coedge $-1 $137 $137 $218 $219 reversed $86 $-1 #
face $-1 $220 $221 $33 $-1 $222 reversed single #
loop $-1 $-1 $223 $88 #
plane-surface $-1 0 -31.949879701590394 0 0 1 0 0 0 1 forward_v I I I I #
coedge $-1 $224 $225 $226 $227 forward $89 $-1 #
coedge $-1 $228 $91 $229 $230 forward $56 $-1 #
coedge $-1 $91 $228 $231 $232 forward $56 $-1 #
coedge $-1 $233 $234 $91 $145 reversed $235 $-1 #
edge $-1 $236 -31.949879701590394 $237 31.949879701590394 $144 $238 forward 7 unknown #
face $-1 $239 $240 $34 $-1 $241 forward single #
loop $-1 $-1 $242 $92 #
plane-surface $-1 -45.305670864857532 -22.79530667550538 0 -1 0 0 0 0 1 forward_v I I I I #
coedge $-1 $243 $244 $245 $246 forward $93 $-1 #
coedge $-1 $247 $95 $248 $249 reversed $59 $-1 #
coedge $-1 $95 $247 $250 $251 reversed $59 $-1 #
coedge $-1 $244 $243 $95 $153 reversed $93 $-1 #
edge $-1 $252 -15.702897355701239 $253 15.702897355701239 $152 $254 forward 7 unknown #
face $-1 $255 $256 $35 $-1 $257 reversed single #
loop $-1 $-1 $258 $96 #
plane-surface $-1 19.633080073243711 -13.640733649420371 180.1299685807133 0 1 0 0.51503808176128008 0 0.85716729658548041 forward_v I I I I #
coedge $-1 $259 $260 $261 $262 reversed $97 $-1 #
coedge $-1 $159 $99 $263 $264 reversed $62 $-1 #
coedge $-1 $99 $158 $259 $265 reversed $62 $-1 #
coedge $-1 $261 $266 $99 $161 forward $267 $-1 #
edge $-1 $268 -52.364312650532909 $269 -42.007951390912822 $160 $270 forward 7 unknown #
loop $-1 $-1 $167 $100 #
plane-surface $-1 -44.417934107302138 -9.9438504301643285 73.531181786256397 0.51503808176128008 0 0.85716729658548041 0.85716729658548041 0 -0.51503808176128008 forward_v I I I I #
loop $-1 $-1 $271 $64 #
coedge $-1 $165 $165 $166 $272 reversed $101 $-1 #
coedge $-1 $166 $166 $165 $272 forward $103 $-1 #
coedge $-1 $167 $167 $104 $168 forward $162 $-1 #
edge $-1 $273 0 $273 6.2831853071796004 $167 $274 forward 7 unknown #
loop $-1 $-1 $174 $105 #
plane-surface $-1 -44.417934107302138 -9.9438504301643285 73.531181786256397 0.51503808176128008 0 0.85716729658548041 0.85716729658548041 0 -0.51503808176128008 forward_v I I I I #
loop $-1 $-1 $275 $67 #
coedge $-1 $172 $172 $173 $276 reversed $106 $-1 #
coedge $-1 $173 $173 $172 $276 forward $108 $-1 #
coedge $-1 $174 $174 $109 $175 forward $169 $-1 #
edge $-1 $277 0 $277 6.2831853071796004 $174 $278 forward 7 unknown #
face $-1 $279 $280 $38 $-1 $281 reversed single #
loop $-1 $-1 $282 $110 #
plane-surface $-1 19.633080073243711 9.1545730260850089 180.1299685807133 0 1 0 0.51503808176128008 0 0.85716729658548041 forward_v I I I I #
coedge $-1 $283 $284 $285 $286 reversed $111 $-1 #
coedge $-1 $181 $113 $287 $288 reversed $71 $-1 #
coedge $-1 $113 $180 $283 $289 reversed $71 $-1 #
coedge $-1 $285 $290 $113 $183 forward $291 $-1 #
edge $-1 $292 -52.364312650532909 $293 -42.007951390912822 $182 $294 forward 7 unknown #
loop $-1 $-1 $189 $114 #
plane-surface $-1 -44.417934107302138 12.851456245341051 73.531181786256397 0.51503808176128008 0 0.85716729658548041 0.85716729658548041 0 -0.51503808176128008 forward_v I I I I #
loop $-1 $-1 $295 $73 #
coedge $-1 $187 $187 $188 $296 reversed $115 $-1 #
coedge $-1 $188 $188 $187 $296 forward $117 $-1 #
coedge $-1 $189 $189 $118 $190 forward $184 $-1 #
edge $-1 $297 0 $297 6.2831853071796004 $189 $298 forward 7 unknown #
loop $-1 $-1 $196 $119 #
plane-surface $-1 -44.417934107302138 12.851456245341051 73.531181786256397 0.51503808176128008 0 0.85716729658548041 0.85716729658548041 0 -0.51503808176128008 forward_v I I I I #
loop $-1 $-1 $299 $76 #
coedge $-1 $194 $194 $195 $300 reversed $120 $-1 #
coedge $-1 $195 $195 $194 $300 forward $122 $-1 #
coedge $-1 $196 $196 $123 $197 forward $191 $-1 #
edge $-1 $301 0 $301 6.2831853071796004 $196 $302 forward 7 unknown #
face $-1 $303 $304 $41 $-1 $305 reversed single #
loop $-1 $-1 $204 $124 #
plane-surface $-1 0 0 15.702897355701239 0 0 1 1 0 0 forward_v I I I I #
coedge $-1 $306 $307 $308 $309 reversed $125 $-1 #
coedge $-1 $203 $127 $310 $311 reversed $80 $-1 #
coedge $-1 $127 $202 $306 $312 reversed $80 $-1 #
coedge $-1 $308 $313 $127 $205 forward $199 $-1 #
edge $-1 $314 9.7038839882502046 $315 25.602383270291512 $204 $316 forward 7 unknown #
loop $-1 $-1 $211 $128 #
plane-surface $-1 -62.180852687154768 25.887628200100682 1.8825424835744968 -0.6560590369687036 0 0.75470957328743171 0.75470957328743171 0 0.6560590369687036 forward_v I I I I #
loop $-1 $-1 $317 $82 #
coedge $-1 $209 $209 $210 $318 reversed $129 $-1 #
coedge $-1 $210 $210 $209 $318 forward $131 $-1 #
coedge $-1 $211 $211 $132 $212 forward $206 $-1 #
edge $-1 $319 0 $319 6.2831853071796004 $211 $320 forward 7 unknown #
loop $-1 $-1 $218 $133 #
plane-surface $-1 -62.180852687154768 25.887628200100682 1.8825424835744968 -0.6560590369687036 0 0.75470957328743171 0.75470957328743171 0 0.6560590369687036 forward_v I I I I #
loop $-1 $-1 $321 $85 #
coedge $-1 $216 $216 $217 $322 reversed $134 $-1 #
coedge $-1 $217 $217 $216 $322 forward $136 $-1 #
coedge $-1 $218 $218 $137 $219 forward $213 $-1 #
edge $-1 $323 0 $323 6.2831853071796004 $218 $324 forward 7 unknown #
face $-1 $325 $326 $33 $-1 $327 reversed single #
loop $-1 $-1 $328 $138 #
plane-surface $-1 -62.180852687154761 0 0 1 0 0 0 0 -1 forward_v I I I I #
coedge $-1 $329 $231 $330 $331 forward $139 $-1 #
coedge $-1 $332 $141 $329 $333 forward $89 $-1 #
coedge $-1 $141 $332 $334 $335 forward $89 $-1 #
coedge $-1 $234 $233 $141 $227 reversed $235 $-1 #
edge $-1 $336 -31.949879701590394 $337 31.949879701590394 $226 $338 forward 7 unknown #
coedge $-1 $143 $142 $339 $340 forward $56 $-1 #
coedge $-1 $341 $342 $142 $230 reversed $326 $-1 #
edge $-1 $237 -62.180852687154761 $343 62.180852687154761 $229 $344 forward 7 unknown #
coedge $-1 $223 $345 $143 $232 reversed $139 $-1 #
edge $-1 $346 -62.180852687154761 $236 62.180852687154761 $231 $347 forward 7 unknown #
coedge $-1 $226 $144 $345 $348 forward $235 $-1 #
coedge $-1 $144 $226 $341 $349 reversed $235 $-1 #
loop $-1 $-1 $233 $325 #
vertex $-1 $145 $350 #
vertex $-1 $145 $351 #
straight-curve $-1 62.180852687154761 0 15.702897355701239 0 1 0 I I #
face $-1 $352 $353 $34 $-1 $354 reversed single #
loop $-1 $-1 $355 $146 #
plane-surface $-1 0 0 15.702897355701239 0 0 1 1 0 0 forward_v I I I I #
coedge $-1 $356 $357 $358 $359 reversed $147 $-1 #
coedge $-1 $152 $149 $360 $361 reversed $93 $-1 #
coedge $-1 $149 $152 $362 $363 reversed $93 $-1 #
coedge $-1 $357 $356 $149 $246 reversed $147 $-1 #
edge $-1 $364 -15.702897355701239 $365 15.702897355701239 $245 $366 forward 7 unknown #
coedge $-1 $151 $150 $367 $368 reversed $59 $-1 #
coedge $-1 $360 $369 $150 $249 forward $353 $-1 #
edge $-1 $370 -20.552226363837701 $253 -2.2430803116676774 $248 $371 forward 7 unknown #
coedge $-1 $372 $362 $151 $251 forward $240 $-1 #
edge $-1 $252 2.2430803116676774 $373 20.552226363837701 $250 $374 forward 7 unknown #
vertex $-1 $251 $375 #
vertex $-1 $249 $376 #
straight-curve $-1 -49.008865207532963 -13.640733649420367 0 0 0 -1 I I #
face $-1 $-1 $267 $35 $-1 $377 forward single #
loop $-1 $-1 $378 $154 #
plane-surface $-1 62.180852687154761 0 0 -1 0 0 0 0 1 forward_v I I I I #
coedge $-1 $379 $380 $381 $382 reversed $155 $-1 #
coedge $-1 $383 $157 $159 $265 forward $97 $-1 #
coedge $-1 $157 $383 $379 $384 forward $97 $-1 #
coedge $-1 $381 $160 $157 $262 forward $267 $-1 #
edge $-1 $269 1.2750419958261219 $385 8.6688084343382066 $261 $386 forward 7 unknown #
coedge $-1 $387 $388 $158 $264 forward $256 $-1 #
edge $-1 $389 -80.5848166846461 $268 -74.362086934655409 $263 $390 forward 7 unknown #
edge $-1 $269 112.2796283971843 $389 124.36170537430951 $159 $391 forward 7 unknown #
coedge $-1 $160 $381 $387 $392 forward $267 $-1 #
loop $-1 $-1 $381 $255 #
vertex $-1 $264 $393 #
vertex $-1 $161 $394 #
straight-curve $-1 9.8165400366218556 -6.2469672109082861 15.702897355701239 -1 0 0 I I #
coedge $-1 $271 $271 $-1 $395 reversed $164 $-1 #
edge $-1 $396 0 $396 6.2831853071796004 $165 $397 forward 7 unknown #
vertex $-1 $168 $398 #
ellipse-curve $-1 57.002672057344732 -11.52822895270263 12.591532480705887 0.51503808176128008 0 0.85716729658548041 0.4285836482927402 0 -0.25751904088064004 1 I I #
coedge $-1 $275 $275 $-1 $399 reversed $171 $-1 #
edge $-1 $400 0 $400 6.2831853071796004 $172 $401 forward 7 unknown #
vertex $-1 $175 $402 #
ellipse-curve $-1 57.002672057344732 -8.3594719076260233 12.591532480705887 0.51503808176128008 0 0.85716729658548041 0.4285836482927402 0 -0.25751904088064004 1 I I #
face $-1 $-1 $291 $38 $-1 $403 forward single #
loop $-1 $-1 $404 $176 #
plane-surface $-1 62.180852687154761 0 0 -1 0 0 0 0 1 forward_v I I I I #
coedge $-1 $405 $406 $407 $408 reversed $177 $-1 #
coedge $-1 $409 $179 $181 $289 forward $111 $-1 #
coedge $-1 $179 $409 $405 $410 forward $111 $-1 #
coedge $-1 $407 $182 $179 $286 forward $291 $-1 #
edge $-1 $293 -10.122611341926566 $411 -2.7288449034144833 $285 $412 forward 7 unknown #
coedge $-1 $413 $414 $180 $288 forward $280 $-1 #
edge $-1 $415 -80.5848166846461 $292 -74.362086934655409 $287 $416 forward 7 unknown #
edge $-1 $293 112.2796283971843 $415 124.36170537430951 $181 $417 forward 7 unknown #
coedge $-1 $182 $407 $413 $418 forward $291 $-1 #
loop $-1 $-1 $407 $279 #
vertex $-1 $288 $419 #
vertex $-1 $183 $420 #
straight-curve $-1 9.8165400366218556 16.548339464597092 15.702897355701239 -1 0 0 I I #
coedge $-1 $295 $295 $-1 $421 reversed $186 $-1 #
edge $-1 $422 0 $422 6.2831853071796004 $187 $423 forward 7 unknown #
vertex $-1 $190 $424 #
ellipse-curve $-1 57.002672057344732 11.26707772280275 12.591532480705887 0.51503808176128008 0 0.85716729658548041 0.4285836482927402 0 -0.25751904088064004 1 I I #
coedge $-1 $299 $299 $-1 $425 reversed $193 $-1 #
edge $-1 $426 0 $426 6.2831853071796004 $194 $427 forward 7 unknown #
vertex $-1 $197 $428 #
ellipse-curve $-1 57.002672057344732 14.435834767879353 12.591532480705887 0.51503808176128008 0 0.85716729658548041 0.4285836482927402 0 -0.25751904088064004 1 I I #
face $-1 $-1 $429 $41 $-1 $430 reversed single #
loop $-1 $-1 $431 $198 #
plane-surface $-1 0 31.949879701590394 0 0 -1 0 0 0 -1 forward_v I I I I #
coedge $-1 $432 $201 $203 $312 forward $125 $-1 #
coedge $-1 $201 $432 $431 $433 reversed $125 $-1 #
coedge $-1 $434 $204 $201 $309 forward $199 $-1 #
edge $-1 $315 6.8815625985606363 $435 19.006065601540044 $308 $436 forward 7 unknown #
coedge $-1 $437 $438 $202 $311 forward $429 $-1 #
edge $-1 $439 -45.987213556383963 $314 -32.166858684257228 $310 $440 forward 7 unknown #
edge $-1 $315 -21.065718317033141 $439 -9.44141639987384e-015 $203 $441 forward 7 unknown #
coedge $-1 $204 $434 $437 $442 forward $199 $-1 #
vertex $-1 $311 $443 #
vertex $-1 $205 $444 #
straight-curve $-1 -71.884736675404966 19.825376698610977 15.702897355701239 1 0 0 I I #
coedge $-1 $317 $317 $-1 $445 reversed $208 $-1 #
edge $-1 $446 0 $446 6.2831853071796004 $209 $447 forward 7 unknown #
vertex $-1 $212 $448 #
ellipse-curve $-1 -54.231603046134104 23.289520413747955 8.7927199196378716 -0.6560590369687036 0 0.75470957328743171 0.75470957328743171 0 0.6560590369687036 1 I I #
coedge $-1 $321 $321 $-1 $449 reversed $215 $-1 #
edge $-1 $450 0 $450 6.2831853071796004 $216 $451 forward 7 unknown #
vertex $-1 $219 $452 #
ellipse-curve $-1 -54.231603046134104 28.485735986453417 8.7927199196378716 -0.6560590369687036 0 0.75470957328743171 0.75470957328743171 0 0.6560590369687036 1 I I #
face $-1 $-1 $235 $33 $-1 $453 reversed single #
loop $-1 $-1 $341 $220 #
plane-surface $-1 0 31.949879701590394 0 0 -1 0 0 0 -1 forward_v I I I I #
coedge $-1 $454 $339 $342 $455 forward $221 $-1 #
coedge $-1 $345 $223 $224 $333 reversed $139 $-1 #
coedge $-1 $339 $454 $223 $331 reversed $221 $-1 #
edge $-1 $346 -15.702897355701239 $456 15.702897355701239 $330 $457 forward 7 unknown #
coedge $-1 $225 $224 $454 $458 forward $89 $-1 #
edge $-1 $337 -62.180852687154761 $456 62.180852687154761 $329 $459 forward 7 unknown #
coedge $-1 $342 $341 $225 $335 reversed $326 $-1 #
edge $-1 $460 -62.180852687154761 $336 62.180852687154761 $334 $461 forward 7 unknown #
vertex $-1 $227 $462 #
vertex $-1 $348 $463 #
straight-curve $-1 62.180852687154761 0 -15.702897355701239 0 -1 0 I I #
coedge $-1 $328 $330 $228 $340 reversed $221 $-1 #
edge $-1 $343 -31.949879701590394 $346 31.949879701590394 $339 $464 forward 7 unknown #
coedge $-1 $334 $229 $234 $349 forward $326 $-1 #
coedge $-1 $229 $334 $328 $455 reversed $326 $-1 #
vertex $-1 $230 $465 #
straight-curve $-1 0 31.949879701590394 15.702897355701239 -1 0 0 I I #
coedge $-1 $231 $329 $233 $348 reversed $139 $-1 #
vertex $-1 $340 $466 #
straight-curve $-1 0 -31.949879701590394 15.702897355701239 1 0 0 I I #
edge $-1 $236 -15.702897355701239 $337 15.702897355701239 $233 $467 forward 7 unknown #
edge $-1 $237 -15.702897355701239 $336 15.702897355701239 $234 $468 forward 7 unknown #
point $-1 62.180852687154761 -31.949879701590394 15.702897355701239 #
point $-1 62.180852687154761 31.949879701590394 15.702897355701239 #
face $-1 $-1 $469 $34 $-1 $470 reversed single #
loop $-1 $-1 $471 $239 #
plane-surface $-1 0 0 -15.702897355701239 0 0 1 1 0 0 forward_v I I I I #
coedge $-1 $362 $372 $357 $472 forward $240 $-1 #
coedge $-1 $245 $242 $471 $473 reversed $147 $-1 #
coedge $-1 $242 $245 $355 $472 reversed $147 $-1 #
coedge $-1 $474 $475 $242 $359 forward $469 $-1 #
edge $-1 $476 -15.702897355701239 $477 15.702897355701239 $358 $478 forward 7 unknown #
coedge $-1 $471 $248 $243 $361 forward $353 $-1 #
edge $-1 $253 -25.430231189435339 $365 -21.727036846759908 $360 $479 forward 7 unknown #
coedge $-1 $250 $355 $244 $363 forward $240 $-1 #
edge $-1 $364 21.727036846759908 $252 25.430231189435339 $362 $480 forward 7 unknown #
vertex $-1 $363 $481 #
vertex $-1 $361 $482 #
straight-curve $-1 -45.305670864857532 -13.640733649420367 0 0 0 -1 I I #
coedge $-1 $475 $474 $247 $368 forward $469 $-1 #
edge $-1 $373 -15.702897355701239 $370 15.702897355701239 $367 $483 forward 7 unknown #
coedge $-1 $248 $471 $475 $484 forward $353 $-1 #
vertex $-1 $249 $485 #
straight-curve $-1 -49.008865207532963 -11.39765333775269 -15.702897355701239 0 1 0 I I #
coedge $-1 $355 $250 $474 $486 forward $240 $-1 #
vertex $-1 $486 $487 #
straight-curve $-1 -49.008865207532963 -11.39765333775269 15.702897355701239 0 -1 0 I I #
point $-1 -49.008865207532963 -13.640733649420367 15.702897355701239 #
point $-1 -49.008865207532963 -13.640733649420367 -15.702897355701239 #
plane-surface $-1 0 0 15.702897355701239 0 0 1 1 0 0 forward_v I I I I #
coedge $-1 $388 $387 $380 $488 forward $256 $-1 #
coedge $-1 $380 $258 $260 $384 reversed $155 $-1 #
coedge $-1 $258 $379 $378 $488 reversed $155 $-1 #
coedge $-1 $266 $261 $258 $382 forward $267 $-1 #
edge $-1 $385 42.007951390912822 $489 52.364312650532909 $381 $490 forward 7 unknown #
coedge $-1 $260 $259 $388 $491 reversed $97 $-1 #
edge $-1 $492 -124.36170537430951 $385 -112.2796283971843 $379 $493 forward 7 unknown #
vertex $-1 $262 $494 #
straight-curve $-1 51.824491427534689 -4.9719252150821642 15.702897355701239 0 -1 0 I I #
coedge $-1 $378 $263 $266 $392 reversed $256 $-1 #
coedge $-1 $263 $378 $383 $491 forward $256 $-1 #
vertex $-1 $264 $495 #
straight-curve $-1 62.180852687154761 -6.2469672109082861 90.064984290356648 0 0 1 I I #
straight-curve $-1 -44.417934107302138 -6.2469672109082861 73.531181786256397 0.85716729658548041 0 -0.51503808176128008 I I #
edge $-1 $489 -13.640733649420371 $268 -6.2469672109082861 $387 $496 forward 7 unknown #
point $-1 62.180852687154761 -6.2469672109082861 15.702897355701239 #
point $-1 51.824491427534674 -6.2469672109082861 15.702897355701239 #
edge $-1 $497 1 $497 0 $271 $-1 forward 7 unknown #
vertex $-1 $272 $498 #
ellipse-curve $-1 56.362045600899393 -11.52822895270263 11.525351032696177 0.51503808176128008 0 0.85716729658548041 0.4285836482927402 0 -0.25751904088064004 1 I I #
point $-1 57.431255705637476 -11.52822895270263 12.334013439825256 #
edge $-1 $499 1 $499 0 $275 $-1 forward 7 unknown #
vertex $-1 $276 $500 #
ellipse-curve $-1 56.362045600899393 -8.3594719076260233 11.525351032696177 0.51503808176128008 0 0.85716729658548041 0.4285836482927402 0 -0.25751904088064004 1 I I #
point $-1 57.431255705637476 -8.3594719076260233 12.334013439825256 #
plane-surface $-1 0 0 15.702897355701239 0 0 1 1 0 0 forward_v I I I I #
coedge $-1 $414 $413 $406 $501 forward $280 $-1 #
coedge $-1 $406 $282 $284 $410 reversed $177 $-1 #
coedge $-1 $282 $405 $404 $501 reversed $177 $-1 #
coedge $-1 $290 $285 $282 $408 forward $291 $-1 #
edge $-1 $411 42.007951390912822 $502 52.364312650532909 $407 $503 forward 7 unknown #
coedge $-1 $284 $283 $414 $504 reversed $111 $-1 #
edge $-1 $505 -124.36170537430951 $411 -112.2796283971843 $405 $506 forward 7 unknown #
vertex $-1 $286 $507 #
straight-curve $-1 51.824491427534689 6.4257281226705256 15.702897355701239 0 -1 0 I I #
coedge $-1 $404 $287 $290 $418 reversed $280 $-1 #
coedge $-1 $287 $404 $409 $504 forward $280 $-1 #
vertex $-1 $288 $508 #
straight-curve $-1 62.180852687154761 16.548339464597092 90.064984290356648 0 0 1 I I #
straight-curve $-1 -44.417934107302138 16.548339464597092 73.531181786256397 0.85716729658548041 0 -0.51503808176128008 I I #
edge $-1 $502 9.1545730260850089 $292 16.548339464597092 $413 $509 forward 7 unknown #
point $-1 62.180852687154761 16.548339464597092 15.702897355701239 #
point $-1 51.824491427534674 16.548339464597092 15.702897355701239 #
edge $-1 $510 1 $510 0 $295 $-1 forward 7 unknown #
vertex $-1 $296 $511 #
ellipse-curve $-1 56.362045600899393 11.26707772280275 11.525351032696177 0.51503808176128008 0 0.85716729658548041 0.4285836482927402 0 -0.25751904088064004 1 I I #
point $-1 57.431255705637476 11.26707772280275 12.334013439825256 #
edge $-1 $512 1 $512 0 $299 $-1 forward 7 unknown #
vertex $-1 $300 $513 #
ellipse-curve $-1 56.362045600899393 14.435834767879353 11.525351032696177 0.51503808176128008 0 0.85716729658548041 0.4285836482927402 0 -0.25751904088064004 1 I I #
point $-1 57.431255705637476 14.435834767879353 12.334013439825256 #
loop $-1 $-1 $310 $303 #
plane-surface $-1 -62.180852687154761 0 0 1 0 0 0 0 -1 forward_v I I I I #
coedge $-1 $514 $515 $307 $433 forward $304 $-1 #
coedge $-1 $307 $306 $438 $516 reversed $125 $-1 #
edge $-1 $435 1.7809945776391951 $517 22.846712894672329 $431 $518 forward 7 unknown #
coedge $-1 $313 $308 $515 $519 forward $199 $-1 #
vertex $-1 $519 $520 #
straight-curve $-1 -46.282353405113454 12.943814100050341 15.702897355701239 0 1 0 I I #
coedge $-1 $521 $310 $313 $442 reversed $429 $-1 #
coedge $-1 $310 $521 $432 $516 forward $429 $-1 #
vertex $-1 $311 $522 #
straight-curve $-1 -62.180852687154761 19.825376698610977 47.869756039958467 0 0 1 I I #
straight-curve $-1 -62.180852687154768 19.825376698610977 1.8825424835744968 -0.75470957328743171 0 -0.6560590369687036 I I #
edge $-1 $523 -31.949879701590394 $314 -19.825376698610977 $437 $524 forward 7 unknown #
point $-1 -62.180852687154761 19.825376698610977 15.702897355701239 #
point $-1 -46.282353405113454 19.825376698610977 15.702897355701239 #
edge $-1 $525 1 $525 0 $317 $-1 forward 7 unknown #
vertex $-1 $318 $526 #
ellipse-curve $-1 -51.641063829904482 23.289520413747955 5.812645511245444 -0.6560590369687036 0 0.75470957328743171 0.75470957328743171 0 0.6560590369687036 1 I I #
point $-1 -53.476893472846662 23.289520413747955 9.4487789566065636 #
edge $-1 $527 1 $527 0 $321 $-1 forward 7 unknown #
vertex $-1 $322 $528 #
ellipse-curve $-1 -51.641063829904482 28.485735986453417 5.812645511245444 -0.6560590369687036 0 0.75470957328743171 0.75470957328743171 0 0.6560590369687036 1 I I #
point $-1 -53.476893472846662 28.485735986453417 9.4487789566065636 #
plane-surface $-1 62.180852687154761 0 0 -1 0 0 0 0 1 forward_v I I I I #
coedge $-1 $330 $328 $332 $458 reversed $221 $-1 #
edge $-1 $343 -15.702897355701239 $460 15.702897355701239 $342 $529 forward 7 unknown #
vertex $-1 $458 $530 #
straight-curve $-1 -62.180852687154761 -31.949879701590394 0 0 0 -1 I I #
edge $-1 $456 -31.949879701590394 $460 31.949879701590394 $454 $531 forward 7 unknown #
straight-curve $-1 0 -31.949879701590394 -15.702897355701239 -1 0 0 I I #
vertex $-1 $335 $532 #
straight-curve $-1 0 31.949879701590394 -15.702897355701239 1 0 0 I I #
point $-1 62.180852687154761 31.949879701590394 -15.702897355701239 #
point $-1 62.180852687154761 -31.949879701590394 -15.702897355701239 #
straight-curve $-1 -62.180852687154761 0 15.702897355701239 0 -1 0 I I #
point $-1 -62.180852687154761 31.949879701590394 15.702897355701239 #
point $-1 -62.180852687154761 -31.949879701590394 15.702897355701239 #
straight-curve $-1 62.180852687154761 -31.949879701590394 0 0 0 -1 I I #
straight-curve $-1 62.180852687154761 31.949879701590394 0 0 0 -1 I I #
loop $-1 $-1 $358 $352 #
plane-surface $-1 0 -31.949879701590394 0 0 1 0 0 0 1 forward_v I I I I #
coedge $-1 $369 $360 $356 $473 forward $353 $-1 #
edge $-1 $477 -20.552226363837701 $364 -2.2430803116676774 $355 $533 forward 7 unknown #
edge $-1 $365 2.2430803116676774 $476 20.552226363837701 $471 $534 forward 7 unknown #
coedge $-1 $367 $358 $372 $486 reversed $469 $-1 #
coedge $-1 $358 $367 $369 $484 reversed $469 $-1 #
vertex $-1 $484 $535 #
vertex $-1 $359 $536 #
straight-curve $-1 -45.305670864857532 -31.949879701590394 0 0 0 1 I I #
straight-curve $-1 -23.578634018097624 -13.640733649420367 -15.702897355701239 1 0 0 I I #
straight-curve $-1 -23.578634018097624 -13.640733649420367 15.702897355701239 -1 0 0 I I #
point $-1 -45.305670864857532 -13.640733649420367 15.702897355701239 #
point $-1 -45.305670864857532 -13.640733649420367 -15.702897355701239 #
straight-curve $-1 -49.008865207532963 -31.949879701590394 0 0 0 -1 I I #
edge $-1 $476 45.305670864857532 $370 49.008865207532963 $475 $537 forward 7 unknown #
point $-1 -49.008865207532963 -31.94987970159039 -15.702897355701239 #
edge $-1 $373 -49.008865207532963 $477 -45.305670864857532 $474 $538 forward 7 unknown #
point $-1 -49.008865207532963 -31.94987970159039 15.702897355701239 #
edge $-1 $489 74.362086934655409 $492 80.5848166846461 $378 $539 forward 7 unknown #
vertex $-1 $392 $540 #
straight-curve $-1 9.8165400366218556 -13.640733649420371 15.702897355701239 1 0 0 I I #
edge $-1 $492 -8.6688084343382066 $389 -1.2750419958261219 $388 $541 forward 7 unknown #
vertex $-1 $491 $542 #
straight-curve $-1 -44.417934107302138 -13.640733649420371 73.531181786256397 -0.85716729658548041 0 0.51503808176128008 I I #
point $-1 51.824491427534674 -13.640733649420371 15.702897355701239 #
point $-1 62.180852687154761 -6.2469672109082861 9.4801676057105482 #
straight-curve $-1 62.180852687154761 0 15.702897355701239 0 1 0 I I #
vertex $-1 $395 $543 #
point $-1 56.790629249192136 -11.52822895270263 11.267831991815537 #
vertex $-1 $399 $544 #
point $-1 56.790629249192136 -8.3594719076260233 11.267831991815537 #
edge $-1 $502 74.362086934655409 $505 80.5848166846461 $404 $545 forward 7 unknown #
vertex $-1 $418 $546 #
straight-curve $-1 9.8165400366218556 9.1545730260850089 15.702897355701239 1 0 0 I I #
edge $-1 $505 2.7288449034144833 $415 10.122611341926566 $414 $547 forward 7 unknown #
vertex $-1 $504 $548 #
straight-curve $-1 -44.417934107302138 9.1545730260850089 73.531181786256397 -0.85716729658548041 0 0.51503808176128008 I I #
point $-1 51.824491427534674 9.1545730260850089 15.702897355701239 #
point $-1 62.180852687154761 16.548339464597092 9.4801676057105482 #
straight-curve $-1 62.180852687154761 0 15.702897355701239 0 1 0 I I #
vertex $-1 $421 $549 #
point $-1 56.790629249192136 11.26707772280275 11.267831991815537 #
vertex $-1 $425 $550 #
point $-1 56.790629249192136 14.435834767879353 11.267831991815537 #
coedge $-1 $515 $431 $521 $551 reversed $304 $-1 #
coedge $-1 $431 $514 $434 $519 reversed $304 $-1 #
edge $-1 $517 -19.006065601540044 $439 -6.8815625985606363 $438 $552 forward 7 unknown #
vertex $-1 $433 $553 #
straight-curve $-1 -44.938219747396147 31.949879701590394 16.871334943153691 -0.75470957328743171 0 -0.6560590369687036 I I #
edge $-1 $435 46.282353405113454 $523 62.180852687154761 $515 $554 forward 7 unknown #
point $-1 -46.282353405113454 31.949879701590387 15.702897355701239 #
coedge $-1 $438 $437 $514 $551 forward $429 $-1 #
point $-1 -62.180852687154761 19.825376698610977 1.882542483574503 #
vertex $-1 $519 $555 #
straight-curve $-1 -62.180852687154761 0 15.702897355701239 0 -1 0 I I #
vertex $-1 $445 $556 #
point $-1 -50.886354256617054 23.289520413747955 6.4687045482141476 #
vertex $-1 $449 $557 #
point $-1 -50.886354256617054 28.485735986453417 6.4687045482141476 #
straight-curve $-1 -62.180852687154761 31.949879701590394 0 0 0 -1 I I #
point $-1 -62.180852687154761 -31.949879701590394 -15.702897355701239 #
straight-curve $-1 -62.180852687154761 0 -15.702897355701239 0 1 0 I I #
point $-1 -62.180852687154761 31.949879701590394 -15.702897355701239 #
straight-curve $-1 -45.305670864857532 -11.39765333775269 15.702897355701239 0 1 0 I I #
straight-curve $-1 -45.305670864857532 -11.39765333775269 -15.702897355701239 0 -1 0 I I #
point $-1 -45.305670864857532 -31.94987970159039 -15.702897355701239 #
point $-1 -45.305670864857532 -31.94987970159039 15.702897355701239 #
straight-curve $-1 0 -31.949879701590394 -15.702897355701239 -1 0 0 I I #
straight-curve $-1 0 -31.949879701590394 15.702897355701239 1 0 0 I I #
straight-curve $-1 62.180852687154761 -13.640733649420371 90.064984290356648 0 0 -1 I I #
point $-1 62.180852687154761 -13.640733649420371 15.702897355701239 #
straight-curve $-1 62.180852687154754 -4.9719252150821642 9.4801676057105446 0 1 0 I I #
point $-1 62.180852687154761 -13.640733649420371 9.4801676057105482 #
point $-1 56.104526560018755 -11.52822895270263 11.096767384403437 #
point $-1 56.104526560018755 -8.3594719076260233 11.096767384403437 #
straight-curve $-1 62.180852687154761 9.1545730260850089 90.064984290356648 0 0 -1 I I #
point $-1 62.180852687154761 9.1545730260850089 15.702897355701239 #
straight-curve $-1 62.180852687154754 6.4257281226705256 9.4801676057105446 0 1 0 I I #
point $-1 62.180852687154761 9.1545730260850089 9.4801676057105482 #
point $-1 56.104526560018755 11.26707772280275 11.096767384403437 #
point $-1 56.104526560018755 14.435834767879353 11.096767384403437 #
edge $-1 $523 -15.702897355701239 $517 -1.882542483574503 $514 $558 forward 7 unknown #
straight-curve $-1 -62.180852687154761 12.943814100050341 1.8825424835745044 0 -1 0 I I #
point $-1 -62.180852687154761 31.949879701590387 1.882542483574503 #
straight-curve $-1 0 31.949879701590394 15.702897355701239 -1 0 0 I I #
point $-1 -62.180852687154761 31.949879701590394 15.702897355701239 #
point $-1 -50.985004792935783 23.289520413747955 5.0579359379580122 #
point $-1 -50.985004792935783 28.485735986453417 5.0579359379580122 #
straight-curve $-1 -62.180852687154761 31.949879701590394 0 0 0 -1 I I #
End-of-ACIS-data 