500 0 7 0           
7 Unknown 11 ACIS 5.0 NT 24 Thu Mar 25 23:13:23 1999 
-1 9.9999999999999995e-007 1e-010 
body $-1 $7 $-1 $8 #
body $-1 $9 $-1 $10 #
body $-1 $11 $-1 $12 #
body $-1 $13 $-1 $14 #
body $-1 $15 $-1 $16 #
body $-1 $17 $-1 $18 #
body $-1 $19 $-1 $20 #
lump $-1 $-1 $21 $0 #
transform $-1 1 0 0 0 1 0 0 0 1 61.259193700979644 28.020280872571266 6.240791339091925 1 rotate no_reflect no_shear #
lump $-1 $-1 $22 $1 #
transform $-1 1 0 0 0 1 0 0 0 1 61.259193700979644 28.020280872571266 6.240791339091925 1 rotate no_reflect no_shear #
lump $-1 $-1 $23 $2 #
transform $-1 1 0 0 0 1 0 0 0 1 61.259193700979644 28.020280872571266 6.240791339091925 1 rotate no_reflect no_shear #
lump $-1 $-1 $24 $3 #
transform $-1 1 0 0 0 1 0 0 0 1 61.259193700979644 28.020280872571266 6.240791339091925 1 rotate no_reflect no_shear #
lump $-1 $-1 $25 $4 #
transform $-1 1 0 0 0 1 0 0 0 1 61.259193700979644 28.020280872571266 6.240791339091925 1 rotate no_reflect no_shear #
lump $-1 $-1 $26 $5 #
transform $-1 1 0 0 0 1 0 0 0 1 61.259193700979644 28.020280872571266 6.240791339091925 1 rotate no_reflect no_shear #
lump $-1 $-1 $27 $6 #
transform $-1 1 0 0 0 1 0 0 0 1 61.259193700979644 28.020280872571266 6.240791339091925 1 rotate no_reflect no_shear #
shell $-1 $-1 $-1 $28 $-1 $7 #
shell $-1 $-1 $-1 $29 $-1 $9 #
shell $-1 $-1 $-1 $30 $-1 $11 #
shell $-1 $-1 $-1 $31 $-1 $13 #
shell $-1 $-1 $-1 $32 $-1 $15 #
shell $-1 $-1 $-1 $33 $-1 $17 #
shell $-1 $-1 $-1 $34 $-1 $19 #
face $-1 $35 $36 $21 $-1 $37 forward single #
face $-1 $38 $39 $22 $-1 $40 reversed single #
face $-1 $41 $42 $23 $-1 $43 reversed single #
face $-1 $44 $45 $24 $-1 $46 forward single #
face $-1 $47 $48 $25 $-1 $49 reversed single #
face $-1 $50 $51 $26 $-1 $52 forward single #
face $-1 $53 $54 $27 $-1 $55 forward single #
face $-1 $56 $57 $21 $-1 $58 reversed single #
loop $-1 $-1 $59 $28 #
plane-surface $-1 0 0 6.240791339091925 0 0 1 1 0 0 forward_v I I I I #
face $-1 $60 $61 $22 $-1 $62 reversed single #
loop $-1 $-1 $63 $29 #
plane-surface $-1 -57.342339582443095 -27.284139439626543 0 0 1 0 0 0 1 forward_v I I I I #
face $-1 $64 $65 $23 $-1 $66 reversed single #
loop $-1 $-1 $67 $30 #
plane-surface $-1 38.546608218491293 106.1040376192859 111.26501839593553 1 0 0 0 -0.86602541151947299 -0.49999998660252726 forward_v I I I I #
face $-1 $68 $69 $24 $-1 $70 forward single #
loop $-1 $71 $72 $31 #
cone-surface $-1 49.902900959735469 25.695108449567464 3.3091805560038683 0 -0.86602541151947299 -0.49999998660252726 1 0 0 1 I I 0 1 1 forward I I I I #
face $-1 $73 $74 $25 $-1 $75 reversed single #
loop $-1 $-1 $76 $32 #
plane-surface $-1 17.518428076081722 -96.531694542847646 103.00665345000553 -1 0 0 0 -0.55919291073839883 0.82903756765294845 forward_v I I I I #
face $-1 $77 $78 $26 $-1 $79 forward single #
loop $-1 $80 $81 $33 #
cone-surface $-1 -4.3138560311654217 -23.225762550376114 2.0116781455893253 0 0.55919291073839883 -0.82903756765294845 2 0 0 1 I I 0 1 2 forward I I I I #
face $-1 $82 $83 $27 $-1 $84 forward single #
loop $-1 $85 $86 $34 #
cone-surface $-1 8.7855144331828754 -23.225762550376114 2.0116781455893253 0 0.55919291073839883 -0.82903756765294845 2 0 0 1 I I 0 1 2 forward I I I I #
face $-1 $87 $88 $21 $-1 $89 reversed single #
loop $-1 $-1 $90 $35 #
plane-surface $-1 0 0 -6.240791339091925 0 0 1 1 0 0 forward_v I I I I #
coedge $-1 $91 $92 $93 $94 forward $36 $-1 #
face $-1 $95 $96 $22 $-1 $97 reversed single #
loop $-1 $-1 $98 $38 #
plane-surface $-1 -57.342339582443095 -24.284139439626543 0 0 -1 0 0 0 -1 forward_v I I I I #
coedge $-1 $99 $100 $101 $102 reversed $39 $-1 #
face $-1 $103 $104 $23 $-1 $105 forward single #
loop $-1 $-1 $106 $41 #
plane-surface $-1 49.902900959735469 7.5080190242715616e-007 50.005826336392637 0 0.86602541151947299 0.49999998660252726 1 0 0 forward_v I I I I #
coedge $-1 $107 $108 $109 $110 reversed $42 $-1 #
face $-1 $-1 $111 $24 $-1 $112 forward single #
loop $-1 $113 $114 $44 #
cone-surface $-1 49.902900959735469 24.313186464661523 2.5113275545239331 0 -0.86602541151947299 -0.49999998660252726 0.5 0 0 1 I I -0.70710678118654746 0.70710678118654746 0.5 forward I I I I #
loop $-1 $-1 $115 $31 #
coedge $-1 $72 $72 $116 $117 reversed $45 $-1 #
face $-1 $118 $119 $25 $-1 $120 reversed single #
loop $-1 $-1 $121 $47 #
plane-surface $-1 2.2358292010087197 -28.020280872571263 1.4343075655235538 0 -0.55919291073839883 0.82903756765294845 1 0 0 forward_v I I I I #
coedge $-1 $122 $123 $124 $125 reversed $48 $-1 #
face $-1 $-1 $126 $26 $-1 $127 forward single #
loop $-1 $128 $129 $50 #
cone-surface $-1 -4.3138560311654217 -21.435003869309419 -0.64323072878204979 0 0.55919291073839883 -0.82903756765294845 1 0 0 1 I I -0.70710678118654746 0.70710678118654746 1 forward I I I I #
loop $-1 $-1 $130 $33 #
coedge $-1 $81 $81 $131 $132 reversed $51 $-1 #
face $-1 $-1 $133 $27 $-1 $134 forward single #
loop $-1 $135 $136 $53 #
cone-surface $-1 8.7855144331828754 -21.435003869309419 -0.64323072878204979 0 0.55919291073839883 -0.82903756765294845 1 0 0 1 I I -0.70710678118654746 0.70710678118654746 1 forward I I I I #
loop $-1 $-1 $137 $34 #
coedge $-1 $86 $86 $138 $139 reversed $54 $-1 #
face $-1 $140 $141 $21 $-1 $142 reversed single #
loop $-1 $-1 $143 $56 #
plane-surface $-1 0 -28.020280872571266 0 0 1 0 0 0 1 forward_v I I I I #
coedge $-1 $144 $145 $146 $147 forward $57 $-1 #
coedge $-1 $148 $59 $149 $150 forward $36 $-1 #
coedge $-1 $59 $148 $151 $152 forward $36 $-1 #
coedge $-1 $153 $154 $59 $94 reversed $155 $-1 #
edge $-1 $156 -28.020280872571266 $157 28.020280872571266 $93 $158 forward 7 unknown #
face $-1 $159 $160 $22 $-1 $161 reversed single #
loop $-1 $-1 $162 $60 #
plane-surface $-1 -53.425485463906547 -25.784139439626543 0 -1 0 0 0 0 1 forward_v I I I I #
coedge $-1 $163 $164 $165 $166 forward $61 $-1 #
coedge $-1 $167 $63 $168 $169 reversed $39 $-1 #
coedge $-1 $63 $167 $170 $171 reversed $39 $-1 #
coedge $-1 $172 $173 $63 $102 forward $174 $-1 #
edge $-1 $175 -6.240791339091925 $176 6.240791339091925 $101 $177 forward 7 unknown #
face $-1 $178 $179 $23 $-1 $180 reversed single #
loop $-1 $-1 $109 $64 #
plane-surface $-1 0 0 6.240791339091925 0 0 1 1 0 0 forward_v I I I I #
coedge $-1 $181 $182 $183 $184 reversed $65 $-1 #
coedge $-1 $108 $67 $185 $186 reversed $42 $-1 #
coedge $-1 $67 $107 $181 $187 reversed $42 $-1 #
coedge $-1 $183 $188 $67 $110 forward $104 $-1 #
edge $-1 $189 25.031737937071686 $190 27.784264224786892 $109 $191 forward 7 unknown #
loop $-1 $-1 $116 $68 #
plane-surface $-1 49.902900959735469 7.5080190242715616e-007 50.005826336392637 0 0.86602541151947299 0.49999998660252726 1 0 0 forward_v I I I I #
loop $-1 $-1 $192 $44 #
coedge $-1 $114 $114 $115 $193 reversed $69 $-1 #
coedge $-1 $115 $115 $114 $193 forward $71 $-1 #
coedge $-1 $116 $116 $72 $117 forward $111 $-1 #
edge $-1 $194 2.3798662895583359e-016 $194 6.2831853071796004 $116 $195 forward 7 unknown #
face $-1 $196 $197 $25 $-1 $198 reversed single #
loop $-1 $-1 $199 $73 #
plane-surface $-1 -13.046769674064283 -96.531694542847646 103.00665345000553 1 0 0 0 0.55919291073839883 -0.82903756765294845 forward_v I I I I #
coedge $-1 $200 $201 $202 $203 reversed $74 $-1 #
coedge $-1 $123 $76 $204 $205 reversed $48 $-1 #
coedge $-1 $76 $122 $200 $206 reversed $48 $-1 #
coedge $-1 $202 $207 $76 $125 forward $208 $-1 #
edge $-1 $209 20.245566398852556 $210 27.37147150258631 $124 $211 forward 7 unknown #
loop $-1 $-1 $131 $77 #
plane-surface $-1 2.2358292010087197 -28.020280872571263 1.4343075655235538 0 -0.55919291073839883 0.82903756765294845 1 0 0 forward_v I I I I #
loop $-1 $-1 $212 $50 #
coedge $-1 $129 $129 $130 $213 reversed $78 $-1 #
coedge $-1 $130 $130 $129 $213 forward $80 $-1 #
coedge $-1 $131 $131 $81 $132 forward $126 $-1 #
edge $-1 $214 -4.2737238024166487e-016 $214 6.2831853071796004 $131 $215 forward 7 unknown #
loop $-1 $-1 $138 $82 #
plane-surface $-1 2.2358292010087197 -28.020280872571263 1.4343075655235538 0 -0.55919291073839883 0.82903756765294845 1 0 0 forward_v I I I I #
loop $-1 $-1 $216 $53 #
coedge $-1 $136 $136 $137 $217 reversed $83 $-1 #
coedge $-1 $137 $137 $136 $217 forward $85 $-1 #
coedge $-1 $138 $138 $86 $139 forward $133 $-1 #
edge $-1 $218 -4.2737238024166487e-016 $218 6.2831853071796004 $138 $219 forward 7 unknown #
face $-1 $220 $221 $21 $-1 $222 reversed single #
loop $-1 $-1 $223 $87 #
plane-surface $-1 -61.259193700979644 0 0 1 0 0 0 0 -1 forward_v I I I I #
coedge $-1 $224 $151 $225 $226 forward $88 $-1 #
coedge $-1 $227 $90 $224 $228 forward $57 $-1 #
coedge $-1 $90 $227 $229 $230 forward $57 $-1 #
coedge $-1 $154 $153 $90 $147 reversed $155 $-1 #
edge $-1 $231 -28.020280872571266 $232 28.020280872571266 $146 $233 forward 7 unknown #
coedge $-1 $92 $91 $234 $235 forward $36 $-1 #
coedge $-1 $236 $237 $91 $150 reversed $221 $-1 #
edge $-1 $157 -61.259193700979644 $238 61.259193700979644 $149 $239 forward 7 unknown #
coedge $-1 $143 $240 $92 $152 reversed $88 $-1 #
edge $-1 $241 -61.259193700979644 $156 61.259193700979644 $151 $242 forward 7 unknown #
coedge $-1 $146 $93 $240 $243 forward $155 $-1 #
coedge $-1 $93 $146 $236 $244 reversed $155 $-1 #
loop $-1 $-1 $153 $220 #
vertex $-1 $94 $245 #
vertex $-1 $94 $246 #
straight-curve $-1 61.259193700979644 0 6.240791339091925 0 1 0 I I #
face $-1 $247 $248 $22 $-1 $249 forward single #
loop $-1 $-1 $250 $95 #
plane-surface $-1 0 0 -6.240791339091925 0 0 1 1 0 0 forward_v I I I I #
coedge $-1 $251 $252 $167 $253 forward $96 $-1 #
coedge $-1 $254 $98 $250 $255 reversed $61 $-1 #
coedge $-1 $98 $254 $256 $257 reversed $61 $-1 #
coedge $-1 $252 $251 $98 $166 reversed $96 $-1 #
edge $-1 $258 -6.240791339091925 $259 6.240791339091925 $165 $260 forward 7 unknown #
coedge $-1 $100 $99 $162 $253 reversed $39 $-1 #
coedge $-1 $261 $262 $99 $169 forward $160 $-1 #
edge $-1 $263 24.754315672684999 $175 32.588023909758093 $168 $264 forward 7 unknown #
coedge $-1 $265 $266 $100 $171 forward $248 $-1 #
edge $-1 $176 -32.588023909758093 $267 -24.754315672684999 $170 $268 forward 7 unknown #
coedge $-1 $269 $101 $266 $270 reversed $174 $-1 #
coedge $-1 $101 $269 $261 $271 reversed $174 $-1 #
loop $-1 $-1 $269 $247 #
vertex $-1 $271 $272 #
vertex $-1 $102 $273 #
straight-curve $-1 -61.259193700979644 -27.284139439626543 0 0 0 1 I I #
face $-1 $-1 $274 $23 $-1 $275 reversed single #
loop $-1 $-1 $276 $103 #
plane-surface $-1 61.259193700979644 0 0 -1 0 0 0 0 1 forward_v I I I I #
coedge $-1 $277 $106 $108 $187 forward $65 $-1 #
coedge $-1 $106 $277 $276 $278 reversed $65 $-1 #
coedge $-1 $279 $109 $106 $184 forward $104 $-1 #
edge $-1 $190 13.595157738623559 $280 36.307743221111906 $183 $281 forward 7 unknown #
coedge $-1 $282 $283 $107 $186 forward $274 $-1 #
edge $-1 $284 -54.159233408694618 $189 -49.391717858875836 $185 $285 forward 7 unknown #
edge $-1 $190 50.535509022204522 $284 56.040561745142526 $108 $286 forward 7 unknown #
coedge $-1 $109 $279 $282 $287 forward $104 $-1 #
vertex $-1 $186 $288 #
vertex $-1 $110 $289 #
straight-curve $-1 38.546608218491293 53.052018809642952 6.2407913390919276 0 -1 0 I I #
coedge $-1 $192 $192 $-1 $290 reversed $113 $-1 #
edge $-1 $291 0 $291 6.2831853071796004 $114 $292 forward 7 unknown #
vertex $-1 $117 $293 #
ellipse-curve $-1 49.902900959735469 26.644017728713663 3.8570335641825384 0 0.86602541151947299 0.49999998660252726 1 0 0 1 I I #
face $-1 $-1 $208 $25 $-1 $294 forward single #
loop $-1 $-1 $295 $118 #
plane-surface $-1 0 -28.020280872571266 0 0 1 0 0 0 1 forward_v I I I I #
coedge $-1 $296 $297 $298 $299 reversed $119 $-1 #
coedge $-1 $300 $121 $123 $206 forward $74 $-1 #
coedge $-1 $121 $300 $296 $301 forward $74 $-1 #
coedge $-1 $298 $124 $121 $203 forward $208 $-1 #
edge $-1 $210 -16.400513475577362 $302 14.164684274568643 $202 $303 forward 7 unknown #
coedge $-1 $304 $305 $122 $205 forward $197 $-1 #
edge $-1 $306 -50.069019159479211 $209 -45.262535385910837 $204 $307 forward 7 unknown #
edge $-1 $210 -8.5953946862837398 $306 4.3111565651997722e-015 $123 $308 forward 7 unknown #
coedge $-1 $124 $298 $304 $309 forward $208 $-1 #
loop $-1 $-1 $298 $196 #
vertex $-1 $205 $310 #
vertex $-1 $125 $311 #
straight-curve $-1 17.518428076081722 -48.265847271423823 6.2407913390919276 0 1 0 I I #
coedge $-1 $212 $212 $-1 $312 reversed $128 $-1 #
edge $-1 $313 0 $313 6.2831853071796004 $129 $314 forward 7 unknown #
vertex $-1 $132 $315 #
ellipse-curve $-1 -4.3138560311654217 -24.457328320704399 3.8375494523077327 0 -0.55919291073839883 0.82903756765294845 2 0 0 1 I I #
coedge $-1 $216 $216 $-1 $316 reversed $135 $-1 #
edge $-1 $317 0 $317 6.2831853071796004 $136 $318 forward 7 unknown #
vertex $-1 $139 $319 #
ellipse-curve $-1 8.7855144331828754 -24.457328320704399 3.8375494523077327 0 -0.55919291073839883 0.82903756765294845 2 0 0 1 I I #
face $-1 $-1 $155 $21 $-1 $320 reversed single #
loop $-1 $-1 $236 $140 #
plane-surface $-1 0 28.020280872571266 0 0 -1 0 0 0 -1 forward_v I I I I #
coedge $-1 $321 $234 $237 $322 forward $141 $-1 #
coedge $-1 $240 $143 $144 $228 reversed $88 $-1 #
coedge $-1 $234 $321 $143 $226 reversed $141 $-1 #
edge $-1 $241 -6.240791339091925 $323 6.240791339091925 $225 $324 forward 7 unknown #
coedge $-1 $145 $144 $321 $325 forward $57 $-1 #
edge $-1 $232 -61.259193700979644 $323 61.259193700979644 $224 $326 forward 7 unknown #
coedge $-1 $237 $236 $145 $230 reversed $221 $-1 #
edge $-1 $327 -61.259193700979644 $231 61.259193700979644 $229 $328 forward 7 unknown #
vertex $-1 $147 $329 #
vertex $-1 $243 $330 #
straight-curve $-1 61.259193700979644 0 -6.240791339091925 0 -1 0 I I #
coedge $-1 $223 $225 $148 $235 reversed $141 $-1 #
edge $-1 $238 -28.020280872571266 $241 28.020280872571266 $234 $331 forward 7 unknown #
coedge $-1 $229 $149 $154 $244 forward $221 $-1 #
coedge $-1 $149 $229 $223 $322 reversed $221 $-1 #
vertex $-1 $150 $332 #
straight-curve $-1 0 28.020280872571266 6.240791339091925 -1 0 0 I I #
coedge $-1 $151 $224 $153 $243 reversed $88 $-1 #
vertex $-1 $235 $333 #
straight-curve $-1 0 -28.020280872571266 6.240791339091925 1 0 0 I I #
edge $-1 $156 -6.240791339091925 $232 6.240791339091925 $153 $334 forward 7 unknown #
edge $-1 $157 -6.240791339091925 $231 6.240791339091925 $154 $335 forward 7 unknown #
point $-1 61.259193700979644 -28.020280872571266 6.240791339091925 #
point $-1 61.259193700979644 28.020280872571266 6.240791339091925 #
face $-1 $-1 $174 $22 $-1 $336 reversed single #
loop $-1 $-1 $256 $159 #
plane-surface $-1 0 0 6.240791339091925 0 0 1 1 0 0 forward_v I I I I #
coedge $-1 $262 $261 $163 $255 forward $160 $-1 #
coedge $-1 $165 $162 $262 $337 reversed $96 $-1 #
coedge $-1 $162 $165 $265 $338 reversed $96 $-1 #
edge $-1 $267 -6.240791339091925 $263 6.240791339091925 $162 $339 forward 7 unknown #
coedge $-1 $164 $163 $269 $340 reversed $61 $-1 #
edge $-1 $341 -32.588023909758093 $259 -24.754315672684999 $250 $342 forward 7 unknown #
coedge $-1 $266 $265 $164 $257 forward $248 $-1 #
edge $-1 $258 24.754315672684999 $343 32.588023909758093 $256 $344 forward 7 unknown #
vertex $-1 $257 $345 #
vertex $-1 $255 $346 #
straight-curve $-1 -53.425485463906547 -24.284139439626543 0 0 0 -1 I I #
coedge $-1 $250 $168 $173 $271 forward $160 $-1 #
coedge $-1 $168 $250 $251 $337 forward $160 $-1 #
vertex $-1 $169 $347 #
straight-curve $-1 -28.671169791221548 -27.284139439626543 -6.240791339091925 -1 0 0 I I #
coedge $-1 $256 $170 $252 $338 forward $248 $-1 #
coedge $-1 $170 $256 $172 $270 forward $248 $-1 #
vertex $-1 $171 $348 #
straight-curve $-1 -28.671169791221548 -27.284139439626543 6.240791339091925 1 0 0 I I #
coedge $-1 $173 $172 $254 $340 forward $174 $-1 #
edge $-1 $343 24.284139439626543 $176 27.284139439626543 $172 $349 forward 7 unknown #
edge $-1 $175 -27.284139439626543 $341 -24.284139439626543 $173 $350 forward 7 unknown #
point $-1 -61.259193700979644 -27.284139439626543 -6.240791339091925 #
point $-1 -61.259193700979644 -27.284139439626543 6.240791339091925 #
loop $-1 $-1 $185 $178 #
plane-surface $-1 0 28.020280872571266 0 0 -1 0 0 0 -1 forward_v I I I I #
coedge $-1 $351 $352 $182 $278 forward $179 $-1 #
coedge $-1 $182 $181 $283 $353 reversed $65 $-1 #
edge $-1 $280 28.882351044232124 $354 34.387403767170127 $276 $355 forward 7 unknown #
coedge $-1 $188 $183 $352 $356 forward $104 $-1 #
vertex $-1 $356 $357 #
straight-curve $-1 24.951450479867734 25.267754584856057 6.2407913390919241 1 0 0 I I #
coedge $-1 $358 $185 $188 $287 reversed $274 $-1 #
coedge $-1 $185 $358 $277 $353 forward $274 $-1 #
vertex $-1 $186 $359 #
straight-curve $-1 38.546608218491293 28.020280872571263 55.632509197967764 0 0 1 I I #
straight-curve $-1 38.546608218491293 7.5080190242715616e-007 50.005826336392637 0 0.49999998660252726 -0.86602541151947299 I I #
edge $-1 $360 -61.259193700979644 $189 -38.546608218491293 $282 $361 forward 7 unknown #
point $-1 38.546608218491293 28.020280872571266 6.240791339091925 #
point $-1 38.546608218491293 25.267754584856061 6.2407913390919276 #
edge $-1 $362 1 $362 0 $192 $-1 forward 7 unknown #
vertex $-1 $193 $363 #
ellipse-curve $-1 49.902900959735469 24.74619917042126 2.7613275478251968 0 0.86602541151947299 0.49999998660252726 1 0 0 1 I I #
point $-1 50.902900959735469 26.644017728713667 3.8570335641825402 #
plane-surface $-1 0 0 6.240791339091925 0 0 1 1 0 0 forward_v I I I I #
coedge $-1 $305 $304 $297 $364 forward $197 $-1 #
coedge $-1 $297 $199 $201 $301 reversed $119 $-1 #
coedge $-1 $199 $296 $295 $364 reversed $119 $-1 #
coedge $-1 $207 $202 $199 $299 forward $208 $-1 #
edge $-1 $302 -27.37147150258631 $365 -20.245566398852556 $298 $366 forward 7 unknown #
coedge $-1 $201 $200 $305 $367 reversed $74 $-1 #
edge $-1 $368 -4.3111565651997722e-015 $302 8.5953946862837398 $296 $369 forward 7 unknown #
vertex $-1 $203 $370 #
straight-curve $-1 1.1179146005043599 -20.894375768837513 6.2407913390919241 -1 0 0 I I #
coedge $-1 $295 $204 $207 $309 reversed $197 $-1 #
coedge $-1 $204 $295 $300 $367 forward $197 $-1 #
vertex $-1 $205 $371 #
straight-curve $-1 17.518428076081722 -28.02028087257127 51.503326725002765 0 0 1 I I #
straight-curve $-1 17.518428076081722 -28.020280872571263 1.4343075655235538 0 -0.82903756765294845 -0.55919291073839883 I I #
edge $-1 $365 -13.046769674064283 $209 17.518428076081722 $304 $372 forward 7 unknown #
point $-1 17.518428076081722 -28.020280872571266 6.240791339091925 #
point $-1 17.518428076081722 -20.894375768837513 6.240791339091925 #
edge $-1 $373 1 $373 0 $212 $-1 forward 7 unknown #
vertex $-1 $213 $374 #
ellipse-curve $-1 -4.3138560311654217 -21.994196780047819 0.18580683887089866 0 -0.55919291073839883 0.82903756765294845 2 0 0 1 I I #
point $-1 -2.3138560311654217 -24.457328320704413 3.8375494523077522 #
edge $-1 $375 1 $375 0 $216 $-1 forward 7 unknown #
vertex $-1 $217 $376 #
ellipse-curve $-1 8.7855144331828754 -21.994196780047819 0.18580683887089866 0 -0.55919291073839883 0.82903756765294845 2 0 0 1 I I #
point $-1 10.785514433182875 -24.457328320704413 3.8375494523077522 #
plane-surface $-1 61.259193700979644 0 0 -1 0 0 0 0 1 forward_v I I I I #
coedge $-1 $225 $223 $227 $325 reversed $141 $-1 #
edge $-1 $238 -6.240791339091925 $327 6.240791339091925 $237 $377 forward 7 unknown #
vertex $-1 $325 $378 #
straight-curve $-1 -61.259193700979644 -28.020280872571266 0 0 0 -1 I I #
edge $-1 $323 -28.020280872571266 $327 28.020280872571266 $321 $379 forward 7 unknown #
straight-curve $-1 0 -28.020280872571266 -6.240791339091925 -1 0 0 I I #
vertex $-1 $230 $380 #
straight-curve $-1 0 28.020280872571266 -6.240791339091925 1 0 0 I I #
point $-1 61.259193700979644 28.020280872571266 -6.240791339091925 #
point $-1 61.259193700979644 -28.020280872571266 -6.240791339091925 #
straight-curve $-1 -61.259193700979644 0 6.240791339091925 0 -1 0 I I #
point $-1 -61.259193700979644 28.020280872571266 6.240791339091925 #
point $-1 -61.259193700979644 -28.020280872571266 6.240791339091925 #
straight-curve $-1 61.259193700979644 -28.020280872571266 0 0 0 -1 I I #
straight-curve $-1 61.259193700979644 28.020280872571266 0 0 0 -1 I I #
plane-surface $-1 -61.259193700979644 0 0 1 0 0 0 0 -1 forward_v I I I I #
edge $-1 $259 11.392069719813271 $263 14.392069719813271 $262 $381 forward 7 unknown #
edge $-1 $267 -14.392069719813271 $258 -11.392069719813271 $265 $382 forward 7 unknown #
straight-curve $-1 -53.425485463906547 -27.284139439626543 0 0 0 -1 I I #
edge $-1 $343 -6.240791339091925 $341 6.240791339091925 $269 $383 forward 7 unknown #
vertex $-1 $340 $384 #
straight-curve $-1 -28.671169791221548 -24.284139439626543 -6.240791339091925 1 0 0 I I #
vertex $-1 $270 $385 #
straight-curve $-1 -28.671169791221548 -24.284139439626543 6.240791339091925 -1 0 0 I I #
point $-1 -53.425485463906547 -24.284139439626543 6.240791339091925 #
point $-1 -53.425485463906547 -24.284139439626543 -6.240791339091925 #
point $-1 -53.425485463906547 -27.284139439626543 -6.240791339091925 #
point $-1 -53.425485463906547 -27.284139439626543 6.240791339091925 #
straight-curve $-1 -61.259193700979644 0 6.240791339091925 0 -1 0 I I #
straight-curve $-1 -61.259193700979644 0 -6.240791339091925 0 1 0 I I #
coedge $-1 $352 $276 $358 $386 reversed $179 $-1 #
coedge $-1 $276 $351 $279 $356 reversed $179 $-1 #
edge $-1 $354 -36.307743221111906 $284 -13.595157738623559 $283 $387 forward 7 unknown #
vertex $-1 $278 $388 #
straight-curve $-1 61.259193700979644 10.826579449690506 31.25364128782293 0 0.49999998660252726 -0.86602541151947299 I I #
edge $-1 $280 25.267754584856061 $360 28.020280872571266 $352 $389 forward 7 unknown #
point $-1 61.259193700979644 25.267754584856061 6.2407913390919276 #
coedge $-1 $283 $282 $351 $386 forward $274 $-1 #
point $-1 38.546608218491293 28.020280872571266 1.4732757892731456 #
vertex $-1 $356 $390 #
straight-curve $-1 0 28.020280872571266 6.240791339091925 -1 0 0 I I #
vertex $-1 $290 $391 #
point $-1 50.902900959735469 24.74619917042126 2.7613275478251968 #
edge $-1 $365 45.262535385910837 $368 50.069019159479211 $295 $392 forward 7 unknown #
vertex $-1 $309 $393 #
straight-curve $-1 -13.046769674064283 -48.265847271423823 6.2407913390919276 0 -1 0 I I #
edge $-1 $368 -14.164684274568643 $306 16.400513475577362 $305 $394 forward 7 unknown #
vertex $-1 $367 $395 #
straight-curve $-1 -13.046769674064283 -28.020280872571263 1.4343075655235538 0 0.82903756765294845 0.55919291073839883 I I #
point $-1 -13.046769674064283 -20.894375768837513 6.240791339091925 #
point $-1 17.518428076081722 -28.020280872571266 1.4343075655235513 #
straight-curve $-1 0 -28.020280872571266 6.240791339091925 1 0 0 I I #
vertex $-1 $312 $396 #
point $-1 -2.3138560311654217 -21.994196780047819 0.18580683887089866 #
vertex $-1 $316 $397 #
point $-1 10.785514433182875 -21.994196780047819 0.18580683887089866 #
straight-curve $-1 -61.259193700979644 28.020280872571266 0 0 0 -1 I I #
point $-1 -61.259193700979644 -28.020280872571266 -6.240791339091925 #
straight-curve $-1 -61.259193700979644 0 -6.240791339091925 0 1 0 I I #
point $-1 -61.259193700979644 28.020280872571266 -6.240791339091925 #
straight-curve $-1 -53.425485463906547 -12.892069719813271 -6.240791339091925 0 -1 0 I I #
straight-curve $-1 -53.425485463906547 -12.892069719813271 6.240791339091925 0 1 0 I I #
straight-curve $-1 -61.259193700979644 -24.284139439626543 0 0 0 -1 I I #
point $-1 -61.259193700979644 -24.284139439626543 -6.240791339091925 #
point $-1 -61.259193700979644 -24.284139439626543 6.240791339091925 #
edge $-1 $360 -6.240791339091925 $354 -1.4732757892731456 $351 $398 forward 7 unknown #
straight-curve $-1 24.951450479867734 28.02028087257127 1.4732757892731385 -1 0 0 I I #
point $-1 61.259193700979644 28.020280872571266 1.4732757892731456 #
straight-curve $-1 61.259193700979644 0 6.240791339091925 0 1 0 I I #
point $-1 61.259193700979644 28.020280872571266 6.240791339091925 #
point $-1 49.902900959735469 23.880173758901787 2.2613275612226693 #
straight-curve $-1 -13.046769674064283 -28.02028087257127 51.503326725002765 0 0 -1 I I #
point $-1 -13.046769674064283 -28.020280872571266 6.240791339091925 #
straight-curve $-1 1.1179146005043599 -28.020280872571266 1.4343075655235509 1 0 0 I I #
point $-1 -13.046769674064283 -28.020280872571266 1.4343075655235513 #
point $-1 -4.3138560311654217 -20.875810958571019 -1.4722682964349982 #
point $-1 8.7855144331828754 -20.875810958571019 -1.4722682964349982 #
straight-curve $-1 61.259193700979644 28.020280872571266 0 0 0 -1 I I #
End-of-ACIS-data 