500 0 9 0           
7 Unknown 11 ACIS 5.0 NT 24 Thu Mar 25 20:50:26 1999 
-1 9.9999999999999995e-007 1e-010 
body $-1 $9 $-1 $10 #
body $-1 $11 $-1 $12 #
body $-1 $13 $-1 $14 #
body $-1 $15 $-1 $16 #
body $-1 $17 $-1 $18 #
body $-1 $19 $-1 $20 #
body $-1 $21 $-1 $22 #
body $-1 $23 $-1 $24 #
body $-1 $25 $-1 $26 #
lump $-1 $-1 $27 $0 #
transform $-1 1 0 0 0 1 0 0 0 1 53.70525223548082 33.085267576398905 9.8349080408459191 1 rotate no_reflect no_shear #
lump $-1 $-1 $28 $1 #
transform $-1 1 0 0 0 1 0 0 0 1 53.70525223548082 33.085267576398905 9.8349080408459191 1 rotate no_reflect no_shear #
lump $-1 $-1 $29 $2 #
transform $-1 1 0 0 0 1 0 0 0 1 53.70525223548082 33.085267576398905 9.8349080408459191 1 rotate no_reflect no_shear #
lump $-1 $-1 $30 $3 #
transform $-1 1 0 0 0 1 0 0 0 1 53.70525223548082 33.085267576398905 9.8349080408459191 1 rotate no_reflect no_shear #
lump $-1 $-1 $31 $4 #
transform $-1 1 0 0 0 1 0 0 0 1 53.70525223548082 33.085267576398905 9.8349080408459191 1 rotate no_reflect no_shear #
lump $-1 $-1 $32 $5 #
transform $-1 1 0 0 0 1 0 0 0 1 53.70525223548082 33.085267576398905 9.8349080408459191 1 rotate no_reflect no_shear #
lump $-1 $-1 $33 $6 #
transform $-1 1 0 0 0 1 0 0 0 1 53.70525223548082 33.085267576398905 9.8349080408459191 1 rotate no_reflect no_shear #
lump $-1 $-1 $34 $7 #
transform $-1 1 0 0 0 1 0 0 0 1 53.70525223548082 33.085267576398905 9.8349080408459191 1 rotate no_reflect no_shear #
lump $-1 $-1 $35 $8 #
transform $-1 1 0 0 0 1 0 0 0 1 53.70525223548082 33.085267576398905 9.8349080408459191 1 rotate no_reflect no_shear #
shell $-1 $-1 $-1 $36 $-1 $9 #
shell $-1 $-1 $-1 $37 $-1 $11 #
shell $-1 $-1 $-1 $38 $-1 $13 #
shell $-1 $-1 $-1 $39 $-1 $15 #
shell $-1 $-1 $-1 $40 $-1 $17 #
shell $-1 $-1 $-1 $41 $-1 $19 #
shell $-1 $-1 $-1 $42 $-1 $21 #
shell $-1 $-1 $-1 $43 $-1 $23 #
shell $-1 $-1 $-1 $44 $-1 $25 #
face $-1 $45 $46 $27 $-1 $47 forward single #
face $-1 $48 $49 $28 $-1 $50 forward single #
face $-1 $51 $52 $29 $-1 $53 forward single #
face $-1 $54 $55 $30 $-1 $56 reversed single #
face $-1 $57 $58 $31 $-1 $59 forward single #
face $-1 $60 $61 $32 $-1 $62 forward single #
face $-1 $63 $64 $33 $-1 $65 forward single #
face $-1 $66 $67 $34 $-1 $68 reversed single #
face $-1 $69 $70 $35 $-1 $71 forward single #
face $-1 $72 $73 $27 $-1 $74 reversed single #
loop $-1 $-1 $75 $36 #
plane-surface $-1 0 0 9.8349080408459191 0 0 1 1 0 0 forward_v I I I I #
face $-1 $76 $77 $28 $-1 $78 forward single #
loop $-1 $-1 $79 $37 #
plane-surface $-1 0 -33.085267576398905 0 0 1 0 0 0 1 forward_v I I I I #
face $-1 $80 $81 $29 $-1 $82 reversed single #
loop $-1 $-1 $83 $38 #
plane-surface $-1 0 33.085267576398905 0 0 -1 0 0 0 -1 forward_v I I I I #
face $-1 $84 $85 $30 $-1 $86 reversed single #
loop $-1 $-1 $87 $39 #
plane-surface $-1 -125.57690908583777 8.7189837295962178 86.024019326033581 0 1 0 -0.66913061440640931 0 0.74314481823134659 forward_v I I I I #
face $-1 $88 $89 $31 $-1 $90 forward single #
loop $-1 $91 $92 $40 #
cone-surface $-1 -51.088824319528435 10.023669912723655 7.3530864236953866 0.66913061440640931 0 -0.74314481823134659 0.3715724091156733 0 0.33456530720320465 1 I I 0 1 0.5 forward I I I I #
face $-1 $93 $94 $32 $-1 $95 forward single #
loop $-1 $96 $97 $41 #
cone-surface $-1 -51.088824319528435 11.980699187414807 7.3530864236953866 0.66913061440640931 0 -0.74314481823134659 0.3715724091156733 0 0.33456530720320465 1 I I 0 1 0.5 forward I I I I #
face $-1 $98 $99 $33 $-1 $100 forward single #
loop $-1 $101 $102 $42 #
cone-surface $-1 -51.088824319528435 13.937728462105959 7.3530864236953866 0.66913061440640931 0 -0.74314481823134659 0.3715724091156733 0 0.33456530720320465 1 I I 0 1 0.5 forward I I I I #
face $-1 $103 $104 $34 $-1 $105 reversed single #
loop $-1 $-1 $106 $43 #
plane-surface $-1 72.217377182277176 -14.746438405762198 156.25988828389936 0 -1 0 -0.78801076186113728 0 -0.61566146476048833 forward_v I I I I #
face $-1 $107 $108 $35 $-1 $109 forward single #
loop $-1 $110 $111 $44 #
cone-surface $-1 51.444325765189674 -18.627855821368797 7.2222516620489028 -0.78801076186113728 0 -0.61566146476048833 0.61566146476048833 0 -0.78801076186113728 1 I I 0 1 1 forward I I I I #
face $-1 $112 $113 $27 $-1 $114 reversed single #
loop $-1 $-1 $115 $45 #
plane-surface $-1 0 0 -9.8349080408459191 0 0 1 1 0 0 forward_v I I I I #
coedge $-1 $116 $117 $118 $119 forward $46 $-1 #
face $-1 $120 $121 $28 $-1 $122 reversed single #
loop $-1 $-1 $123 $48 #
plane-surface $-1 0 0 9.8349080408459191 0 0 1 1 0 0 forward_v I I I I #
coedge $-1 $124 $125 $126 $127 forward $49 $-1 #
face $-1 $128 $129 $29 $-1 $130 reversed single #
loop $-1 $-1 $131 $51 #
plane-surface $-1 0 0 -9.8349080408459191 0 0 1 1 0 0 forward_v I I I I #
coedge $-1 $132 $133 $134 $135 forward $52 $-1 #
face $-1 $136 $137 $30 $-1 $138 reversed single #
loop $-1 $-1 $139 $54 #
plane-surface $-1 -53.705252235480827 11.980699187414807 6.2024595048235511 -0.66913061440640931 0 0.74314481823134659 0.74314481823134659 0 0.66913061440640931 forward_v I I I I #
coedge $-1 $140 $141 $142 $143 reversed $55 $-1 #
face $-1 $-1 $144 $31 $-1 $145 forward single #
loop $-1 $146 $147 $57 #
cone-surface $-1 -50.322235107836505 10.023669912723655 6.5017028699982031 0.66913061440640931 0 -0.74314481823134659 0.18578620455783665 0 0.16728265360160233 1 I I -0.70710678118654879 0.70710678118654635 0.25 forward I I I I #
loop $-1 $-1 $148 $40 #
coedge $-1 $92 $92 $149 $150 reversed $58 $-1 #
face $-1 $-1 $151 $32 $-1 $152 forward single #
loop $-1 $153 $154 $60 #
cone-surface $-1 -50.322235107836505 11.980699187414807 6.5017028699982031 0.66913061440640931 0 -0.74314481823134659 0.18578620455783665 0 0.16728265360160233 1 I I -0.70710678118654879 0.70710678118654635 0.25 forward I I I I #
loop $-1 $-1 $155 $41 #
coedge $-1 $97 $97 $156 $157 reversed $61 $-1 #
face $-1 $-1 $158 $33 $-1 $159 forward single #
loop $-1 $160 $161 $63 #
cone-surface $-1 -50.322235107836505 13.937728462105959 6.5017028699982031 0.66913061440640931 0 -0.74314481823134659 0.18578620455783665 0 0.16728265360160233 1 I I -0.70710678118654879 0.70710678118654635 0.25 forward I I I I #
loop $-1 $-1 $162 $42 #
coedge $-1 $102 $102 $163 $164 reversed $64 $-1 #
face $-1 $165 $166 $34 $-1 $167 reversed single #
loop $-1 $-1 $168 $66 #
plane-surface $-1 -12.423256277774385 -18.627855821368797 90.131379770644145 0.78801076186113728 0 0.61566146476048833 0.61566146476048833 0 -0.78801076186113728 forward_v I I I I #
coedge $-1 $169 $170 $171 $172 reversed $67 $-1 #
face $-1 $-1 $173 $35 $-1 $174 forward single #
loop $-1 $175 $176 $69 #
cone-surface $-1 50.486409426603508 -18.627855821368797 6.4738454159983103 -0.78801076186113728 0 -0.61566146476048833 0.30783073238024417 0 -0.39400538093056864 1 I I -0.70710678118654746 0.70710678118654746 0.5 forward I I I I #
loop $-1 $-1 $177 $44 #
coedge $-1 $111 $111 $178 $179 reversed $70 $-1 #
face $-1 $180 $181 $27 $-1 $182 reversed single #
loop $-1 $-1 $183 $72 #
plane-surface $-1 0 -33.085267576398905 0 0 1 0 0 0 1 forward_v I I I I #
coedge $-1 $184 $185 $186 $187 forward $73 $-1 #
coedge $-1 $188 $75 $189 $190 forward $46 $-1 #
coedge $-1 $75 $188 $191 $192 forward $46 $-1 #
coedge $-1 $193 $194 $75 $119 reversed $195 $-1 #
edge $-1 $196 -33.085267576398905 $197 33.085267576398905 $118 $198 forward 7 unknown #
face $-1 $199 $200 $28 $-1 $201 reversed single #
loop $-1 $-1 $202 $76 #
plane-surface $-1 -53.70525223548082 0 0 1 0 0 0 0 -1 forward_v I I I I #
coedge $-1 $203 $204 $205 $206 forward $77 $-1 #
coedge $-1 $205 $79 $202 $207 reversed $49 $-1 #
coedge $-1 $79 $205 $208 $209 reversed $49 $-1 #
coedge $-1 $210 $211 $79 $127 reversed $200 $-1 #
edge $-1 $212 -53.70525223548082 $213 53.70525223548082 $126 $214 forward 7 unknown #
face $-1 $215 $216 $29 $-1 $217 reversed single #
loop $-1 $-1 $218 $80 #
plane-surface $-1 -38.341521291238251 38.394362060060388 0 1 0 0 0 0 -1 forward_v I I I I #
coedge $-1 $219 $220 $133 $221 forward $81 $-1 #
coedge $-1 $222 $83 $223 $224 reversed $52 $-1 #
coedge $-1 $83 $222 $131 $221 reversed $52 $-1 #
coedge $-1 $225 $226 $83 $135 reversed $227 $-1 #
edge $-1 $228 -9.8349080408459191 $229 9.8349080408459191 $134 $230 forward 7 unknown #
face $-1 $231 $232 $30 $-1 $233 forward single #
loop $-1 $-1 $234 $84 #
plane-surface $-1 -125.57690908583777 15.242414645233396 86.024019326033581 0 -1 0 0.66913061440640931 0 -0.74314481823134659 forward_v I I I I #
coedge $-1 $235 $236 $237 $238 reversed $85 $-1 #
coedge $-1 $141 $87 $239 $240 reversed $55 $-1 #
coedge $-1 $87 $140 $235 $241 reversed $55 $-1 #
coedge $-1 $237 $242 $87 $143 forward $232 $-1 #
edge $-1 $243 9.0832023074380643 $244 13.117445023162183 $142 $245 forward 7 unknown #
loop $-1 $-1 $149 $88 #
plane-surface $-1 -53.705252235480827 11.980699187414807 6.2024595048235511 -0.66913061440640931 0 0.74314481823134659 0.74314481823134659 0 0.66913061440640931 forward_v I I I I #
loop $-1 $-1 $246 $57 #
coedge $-1 $147 $147 $148 $247 reversed $89 $-1 #
coedge $-1 $148 $148 $147 $247 forward $91 $-1 #
coedge $-1 $149 $149 $92 $150 forward $144 $-1 #
edge $-1 $248 0 $248 6.2831853071796004 $149 $249 forward 7 unknown #
loop $-1 $-1 $156 $93 #
plane-surface $-1 -53.705252235480827 11.980699187414807 6.2024595048235511 -0.66913061440640931 0 0.74314481823134659 0.74314481823134659 0 0.66913061440640931 forward_v I I I I #
loop $-1 $-1 $250 $60 #
coedge $-1 $154 $154 $155 $251 reversed $94 $-1 #
coedge $-1 $155 $155 $154 $251 forward $96 $-1 #
coedge $-1 $156 $156 $97 $157 forward $151 $-1 #
edge $-1 $252 0 $252 6.2831853071796004 $156 $253 forward 7 unknown #
loop $-1 $-1 $163 $98 #
plane-surface $-1 -53.705252235480827 11.980699187414807 6.2024595048235511 -0.66913061440640931 0 0.74314481823134659 0.74314481823134659 0 0.66913061440640931 forward_v I I I I #
loop $-1 $-1 $254 $63 #
coedge $-1 $161 $161 $162 $255 reversed $99 $-1 #
coedge $-1 $162 $162 $161 $255 forward $101 $-1 #
coedge $-1 $163 $163 $102 $164 forward $158 $-1 #
edge $-1 $256 0 $256 6.2831853071796004 $163 $257 forward 7 unknown #
face $-1 $258 $259 $34 $-1 $260 reversed single #
loop $-1 $-1 $261 $103 #
plane-surface $-1 72.217377182277176 -22.509273236975396 156.25988828389936 0 1 0 0.78801076186113728 0 0.61566146476048833 forward_v I I I I #
coedge $-1 $262 $263 $264 $265 reversed $104 $-1 #
coedge $-1 $170 $106 $266 $267 reversed $67 $-1 #
coedge $-1 $106 $169 $262 $268 reversed $67 $-1 #
coedge $-1 $264 $269 $106 $172 forward $270 $-1 #
edge $-1 $271 -17.596563644342233 $272 -14.202532619071128 $171 $273 forward 7 unknown #
loop $-1 $-1 $178 $107 #
plane-surface $-1 -12.423256277774385 -18.627855821368797 90.131379770644145 0.78801076186113728 0 0.61566146476048833 0.61566146476048833 0 -0.78801076186113728 forward_v I I I I #
loop $-1 $-1 $274 $69 #
coedge $-1 $176 $176 $177 $275 reversed $108 $-1 #
coedge $-1 $177 $177 $176 $275 forward $110 $-1 #
coedge $-1 $178 $178 $111 $179 forward $173 $-1 #
edge $-1 $276 0 $276 6.2831853071796004 $178 $277 forward 7 unknown #
face $-1 $278 $279 $27 $-1 $280 reversed single #
loop $-1 $-1 $281 $112 #
plane-surface $-1 -53.70525223548082 0 0 1 0 0 0 0 -1 forward_v I I I I #
coedge $-1 $282 $191 $283 $284 forward $113 $-1 #
coedge $-1 $285 $115 $282 $286 forward $73 $-1 #
coedge $-1 $115 $285 $287 $288 forward $73 $-1 #
coedge $-1 $194 $193 $115 $187 reversed $195 $-1 #
edge $-1 $289 -33.085267576398905 $290 33.085267576398905 $186 $291 forward 7 unknown #
coedge $-1 $117 $116 $292 $293 forward $46 $-1 #
coedge $-1 $294 $295 $116 $190 reversed $279 $-1 #
edge $-1 $197 -53.70525223548082 $296 53.70525223548082 $189 $297 forward 7 unknown #
coedge $-1 $183 $298 $117 $192 reversed $113 $-1 #
edge $-1 $299 -53.70525223548082 $196 53.70525223548082 $191 $300 forward 7 unknown #
coedge $-1 $186 $118 $298 $301 forward $195 $-1 #
coedge $-1 $118 $186 $294 $302 reversed $195 $-1 #
loop $-1 $-1 $193 $278 #
vertex $-1 $119 $303 #
vertex $-1 $119 $304 #
straight-curve $-1 53.70525223548082 0 9.8349080408459191 0 1 0 I I #
face $-1 $305 $306 $28 $-1 $307 reversed single #
loop $-1 $-1 $210 $120 #
plane-surface $-1 0 -38.373264746110657 6.8349080408459191 0 0 1 1 0 0 forward_v I I I I #
coedge $-1 $308 $309 $124 $207 forward $121 $-1 #
coedge $-1 $310 $123 $309 $311 forward $77 $-1 #
coedge $-1 $123 $310 $312 $313 forward $77 $-1 #
coedge $-1 $125 $124 $123 $206 reversed $49 $-1 #
edge $-1 $314 -53.70525223548082 $315 53.70525223548082 $123 $316 forward 7 unknown #
edge $-1 $315 -9.8349080408459191 $213 -6.8349080408459191 $202 $317 forward 7 unknown #
coedge $-1 $312 $318 $125 $209 forward $319 $-1 #
edge $-1 $212 6.8349080408459191 $314 9.8349080408459191 $208 $320 forward 7 unknown #
coedge $-1 $321 $126 $318 $322 forward $200 $-1 #
coedge $-1 $126 $321 $308 $323 forward $200 $-1 #
vertex $-1 $209 $324 #
vertex $-1 $207 $325 #
straight-curve $-1 0 -33.085267576398905 6.8349080408459191 -1 0 0 I I #
face $-1 $326 $227 $29 $-1 $327 reversed single #
loop $-1 $-1 $328 $128 #
plane-surface $-1 -36.188478722513615 43.703456543721877 0 0 -1 0 0 0 -1 forward_v I I I I #
coedge $-1 $329 $330 $331 $332 forward $129 $-1 #
coedge $-1 $333 $131 $329 $334 forward $81 $-1 #
coedge $-1 $131 $333 $225 $335 forward $81 $-1 #
edge $-1 $228 34.035436153788979 $336 38.341521291238251 $131 $337 forward 7 unknown #
coedge $-1 $133 $132 $338 $339 forward $52 $-1 #
coedge $-1 $340 $341 $132 $224 forward $342 $-1 #
edge $-1 $343 -38.341521291238251 $229 -34.035436153788979 $223 $344 forward 7 unknown #
coedge $-1 $345 $134 $220 $335 reversed $227 $-1 #
coedge $-1 $134 $345 $340 $346 reversed $227 $-1 #
loop $-1 $-1 $134 $215 #
vertex $-1 $221 $347 #
vertex $-1 $346 $348 #
straight-curve $-1 -34.035436153788979 33.085267576398905 0 0 0 1 I I #
face $-1 $-1 $349 $30 $-1 $350 reversed single #
loop $-1 $-1 $142 $136 #
plane-surface $-1 0 0 9.8349080408459191 0 0 1 1 0 0 forward_v I I I I #
coedge $-1 $351 $352 $353 $354 reversed $137 $-1 #
coedge $-1 $355 $139 $141 $241 forward $85 $-1 #
coedge $-1 $139 $355 $351 $356 forward $85 $-1 #
coedge $-1 $353 $142 $139 $238 forward $232 $-1 #
edge $-1 $244 2.7286341358888144 $357 9.2520650515259923 $237 $358 forward 7 unknown #
coedge $-1 $359 $360 $140 $240 forward $349 $-1 #
edge $-1 $361 -36.809550158193233 $243 -33.177101622170873 $239 $362 forward 7 unknown #
edge $-1 $244 -5.4286090903862494 $361 -9.4405131238556439e-015 $141 $363 forward 7 unknown #
coedge $-1 $142 $353 $359 $364 forward $232 $-1 #
vertex $-1 $240 $365 #
vertex $-1 $143 $366 #
straight-curve $-1 -62.788454542918885 8.7189837295962178 9.8349080408459173 1 0 0 I I #
coedge $-1 $246 $246 $-1 $367 reversed $146 $-1 #
edge $-1 $368 0 $368 6.2831853071796004 $147 $369 forward 7 unknown #
vertex $-1 $150 $370 #
ellipse-curve $-1 -51.688130877618761 10.023669912723655 8.0186837728347378 -0.66913061440640931 0 0.74314481823134659 0.3715724091156733 0 0.33456530720320465 1 I I #
coedge $-1 $250 $250 $-1 $371 reversed $153 $-1 #
edge $-1 $372 0 $372 6.2831853071796004 $154 $373 forward 7 unknown #
vertex $-1 $157 $374 #
ellipse-curve $-1 -51.688130877618761 11.980699187414807 8.0186837728347378 -0.66913061440640931 0 0.74314481823134659 0.3715724091156733 0 0.33456530720320465 1 I I #
coedge $-1 $254 $254 $-1 $375 reversed $160 $-1 #
edge $-1 $376 0 $376 6.2831853071796004 $161 $377 forward 7 unknown #
vertex $-1 $164 $378 #
ellipse-curve $-1 -51.688130877618761 13.937728462105959 8.0186837728347378 -0.66913061440640931 0 0.74314481823134659 0.3715724091156733 0 0.33456530720320465 1 I I #
face $-1 $-1 $270 $34 $-1 $379 forward single #
loop $-1 $-1 $380 $165 #
plane-surface $-1 53.70525223548082 0 0 -1 0 0 0 0 1 forward_v I I I I #
coedge $-1 $381 $382 $383 $384 reversed $166 $-1 #
coedge $-1 $385 $168 $170 $268 forward $104 $-1 #
coedge $-1 $168 $385 $381 $386 forward $104 $-1 #
coedge $-1 $383 $171 $168 $265 forward $270 $-1 #
edge $-1 $272 5.4325104950777998 $387 13.195345326290997 $264 $388 forward 7 unknown #
coedge $-1 $389 $390 $169 $267 forward $259 $-1 #
edge $-1 $391 -72.639197831357095 $271 -68.295036101103761 $266 $392 forward 7 unknown #
edge $-1 $272 101.89768416379574 $391 107.41050447096163 $170 $393 forward 7 unknown #
coedge $-1 $171 $383 $389 $394 forward $270 $-1 #
loop $-1 $-1 $383 $258 #
vertex $-1 $267 $395 #
vertex $-1 $172 $396 #
straight-curve $-1 36.108688591138588 -14.746438405762198 9.8349080408459173 -1 0 0 I I #
coedge $-1 $274 $274 $-1 $397 reversed $175 $-1 #
edge $-1 $398 0 $398 6.2831853071796004 $176 $399 forward 7 unknown #
vertex $-1 $179 $400 #
ellipse-curve $-1 52.008236722845268 -18.627855821368797 7.6628271757192516 0.78801076186113728 0 0.61566146476048833 0.61566146476048833 0 -0.78801076186113728 1 I I #
face $-1 $-1 $195 $27 $-1 $401 reversed single #
loop $-1 $-1 $294 $180 #
plane-surface $-1 0 33.085267576398905 0 0 -1 0 0 0 -1 forward_v I I I I #
coedge $-1 $402 $292 $295 $403 forward $181 $-1 #
coedge $-1 $298 $183 $184 $286 reversed $113 $-1 #
coedge $-1 $292 $402 $183 $284 reversed $181 $-1 #
edge $-1 $299 -9.8349080408459191 $404 9.8349080408459191 $283 $405 forward 7 unknown #
coedge $-1 $185 $184 $402 $406 forward $73 $-1 #
edge $-1 $290 -53.70525223548082 $404 53.70525223548082 $282 $407 forward 7 unknown #
coedge $-1 $295 $294 $185 $288 reversed $279 $-1 #
edge $-1 $408 -53.70525223548082 $289 53.70525223548082 $287 $409 forward 7 unknown #
vertex $-1 $187 $410 #
vertex $-1 $301 $411 #
straight-curve $-1 53.70525223548082 0 -9.8349080408459191 0 -1 0 I I #
coedge $-1 $281 $283 $188 $293 reversed $181 $-1 #
edge $-1 $296 -33.085267576398905 $299 33.085267576398905 $292 $412 forward 7 unknown #
coedge $-1 $287 $189 $194 $302 forward $279 $-1 #
coedge $-1 $189 $287 $281 $403 reversed $279 $-1 #
vertex $-1 $190 $413 #
straight-curve $-1 0 33.085267576398905 9.8349080408459191 -1 0 0 I I #
coedge $-1 $191 $282 $193 $301 reversed $113 $-1 #
vertex $-1 $293 $414 #
straight-curve $-1 0 -33.085267576398905 9.8349080408459191 1 0 0 I I #
edge $-1 $196 -9.8349080408459191 $290 9.8349080408459191 $193 $415 forward 7 unknown #
edge $-1 $197 -9.8349080408459191 $289 9.8349080408459191 $194 $416 forward 7 unknown #
point $-1 53.70525223548082 -33.085267576398905 9.8349080408459191 #
point $-1 53.70525223548082 33.085267576398905 9.8349080408459191 #
face $-1 $-1 $319 $28 $-1 $417 reversed single #
loop $-1 $-1 $418 $199 #
plane-surface $-1 0 -43.661261915822408 8.3349080408459191 0 1 0 0 0 1 forward_v I I I I #
coedge $-1 $419 $202 $211 $323 reversed $121 $-1 #
coedge $-1 $202 $419 $203 $311 reversed $121 $-1 #
coedge $-1 $204 $203 $420 $421 forward $77 $-1 #
edge $-1 $315 33.085267576398905 $422 43.661261915822408 $309 $423 forward 7 unknown #
coedge $-1 $424 $208 $204 $313 reversed $319 $-1 #
edge $-1 $425 -43.661261915822408 $314 -33.085267576398905 $312 $426 forward 7 unknown #
vertex $-1 $209 $427 #
vertex $-1 $311 $428 #
straight-curve $-1 0 -33.085267576398905 9.8349080408459191 -1 0 0 I I #
straight-curve $-1 -53.70525223548082 -33.085267576398905 0 0 0 -1 I I #
coedge $-1 $208 $424 $210 $322 reversed $319 $-1 #
loop $-1 $-1 $208 $305 #
straight-curve $-1 53.70525223548082 -33.085267576398905 0 0 0 1 I I #
coedge $-1 $211 $210 $429 $430 forward $200 $-1 #
edge $-1 $212 -5.2879971697117512 $431 5.2879971697117512 $318 $432 forward 7 unknown #
edge $-1 $433 -5.2879971697117512 $213 5.2879971697117512 $308 $434 forward 7 unknown #
point $-1 53.70525223548082 -33.085267576398905 6.8349080408459191 #
point $-1 -53.70525223548082 -33.085267576398905 6.8349080408459191 #
face $-1 $-1 $342 $29 $-1 $435 forward single #
plane-surface $-1 -34.035436153788979 38.394362060060388 0 -1 0 0 0 0 1 forward_v I I I I #
coedge $-1 $436 $437 $345 $438 forward $216 $-1 #
coedge $-1 $338 $218 $219 $334 reversed $129 $-1 #
coedge $-1 $218 $338 $341 $439 reversed $129 $-1 #
coedge $-1 $437 $436 $218 $332 reversed $216 $-1 #
edge $-1 $440 -9.8349080408459191 $441 9.8349080408459191 $331 $442 forward 7 unknown #
coedge $-1 $220 $219 $436 $443 forward $81 $-1 #
edge $-1 $336 -5.3090944836614895 $441 5.3090944836614895 $329 $444 forward 7 unknown #
edge $-1 $445 -5.3090944836614895 $228 5.3090944836614895 $225 $446 forward 7 unknown #
vertex $-1 $334 $447 #
straight-curve $-1 0 33.085267576398905 -9.8349080408459191 -1 0 0 I I #
coedge $-1 $330 $329 $222 $339 reversed $129 $-1 #
edge $-1 $343 -9.8349080408459191 $336 9.8349080408459191 $338 $448 forward 7 unknown #
coedge $-1 $449 $223 $226 $346 forward $342 $-1 #
coedge $-1 $223 $449 $330 $439 forward $342 $-1 #
loop $-1 $-1 $223 $326 #
vertex $-1 $224 $450 #
straight-curve $-1 0 33.085267576398905 9.8349080408459191 1 0 0 I I #
coedge $-1 $226 $225 $328 $438 reversed $227 $-1 #
edge $-1 $229 -5.3090944836614895 $451 5.3090944836614895 $226 $452 forward 7 unknown #
point $-1 -34.035436153788979 33.085267576398898 -9.8349080408459191 #
point $-1 -34.035436153788979 33.085267576398898 9.8349080408459191 #
loop $-1 $-1 $239 $231 #
plane-surface $-1 -53.70525223548082 0 0 1 0 0 0 0 -1 forward_v I I I I #
coedge $-1 $352 $234 $236 $356 reversed $137 $-1 #
coedge $-1 $234 $351 $453 $454 reversed $137 $-1 #
coedge $-1 $242 $237 $234 $354 forward $232 $-1 #
edge $-1 $357 -13.117445023162183 $455 -9.0832023074380643 $353 $456 forward 7 unknown #
coedge $-1 $236 $235 $360 $457 reversed $85 $-1 #
edge $-1 $458 9.4405131238556439e-015 $357 5.4286090903862494 $351 $459 forward 7 unknown #
vertex $-1 $238 $460 #
straight-curve $-1 -49.671009519756701 5.9903495937074034 9.8349080408459173 0 1 0 I I #
coedge $-1 $453 $239 $242 $364 reversed $349 $-1 #
coedge $-1 $239 $453 $355 $457 forward $349 $-1 #
vertex $-1 $240 $461 #
straight-curve $-1 -53.70525223548082 8.7189837295962178 43.012009663016791 0 0 1 I I #
straight-curve $-1 -53.705252235480827 8.7189837295962178 6.2024595048235511 -0.74314481823134659 0 -0.66913061440640931 I I #
edge $-1 $455 -15.242414645233396 $243 -8.7189837295962178 $359 $462 forward 7 unknown #
point $-1 -53.70525223548082 8.7189837295962178 9.8349080408459191 #
point $-1 -49.671009519756701 8.7189837295962178 9.8349080408459191 #
edge $-1 $463 1 $463 0 $246 $-1 forward 7 unknown #
vertex $-1 $247 $464 #
ellipse-curve $-1 -50.489517761438108 10.023669912723655 6.6874890745560389 -0.66913061440640931 0 0.74314481823134659 0.3715724091156733 0 0.33456530720320465 1 I I #
point $-1 -51.316558468503082 10.023669912723655 8.3532490800379389 #
edge $-1 $465 1 $465 0 $250 $-1 forward 7 unknown #
vertex $-1 $251 $466 #
ellipse-curve $-1 -50.489517761438108 11.980699187414807 6.6874890745560389 -0.66913061440640931 0 0.74314481823134659 0.3715724091156733 0 0.33456530720320465 1 I I #
point $-1 -51.316558468503082 11.980699187414807 8.3532490800379389 #
edge $-1 $467 1 $467 0 $254 $-1 forward 7 unknown #
vertex $-1 $255 $468 #
ellipse-curve $-1 -50.489517761438108 13.937728462105959 6.6874890745560389 -0.66913061440640931 0 0.74314481823134659 0.3715724091156733 0 0.33456530720320465 1 I I #
point $-1 -51.316558468503082 13.937728462105959 8.3532490800379389 #
plane-surface $-1 0 0 9.8349080408459191 0 0 1 1 0 0 forward_v I I I I #
coedge $-1 $390 $389 $382 $469 forward $259 $-1 #
coedge $-1 $382 $261 $263 $386 reversed $166 $-1 #
coedge $-1 $261 $381 $380 $469 reversed $166 $-1 #
coedge $-1 $269 $264 $261 $384 forward $270 $-1 #
edge $-1 $387 14.202532619071128 $470 17.596563644342233 $383 $471 forward 7 unknown #
coedge $-1 $263 $262 $390 $472 reversed $104 $-1 #
edge $-1 $473 -107.41050447096163 $387 -101.89768416379574 $381 $474 forward 7 unknown #
vertex $-1 $265 $475 #
straight-curve $-1 50.311221210209723 -9.3139279106843986 9.8349080408459102 0 -1 0 I I #
coedge $-1 $380 $266 $269 $394 reversed $259 $-1 #
coedge $-1 $266 $380 $385 $472 forward $259 $-1 #
vertex $-1 $267 $476 #
straight-curve $-1 53.70525223548082 -14.746438405762198 78.129944141949679 0 0 1 I I #
straight-curve $-1 -12.423256277774385 -14.746438405762198 90.131379770644145 0.61566146476048833 0 -0.78801076186113728 I I #
edge $-1 $470 -22.509273236975396 $271 -14.746438405762198 $389 $477 forward 7 unknown #
point $-1 53.70525223548082 -14.746438405762198 9.8349080408459191 #
point $-1 50.311221210209716 -14.746438405762198 9.8349080408459173 #
edge $-1 $478 1 $478 0 $274 $-1 forward 7 unknown #
vertex $-1 $275 $479 #
ellipse-curve $-1 50.880414807534073 -18.627855821368797 6.7816761483785548 0.78801076186113728 0 0.61566146476048833 0.61566146476048833 0 -0.78801076186113728 1 I I #
point $-1 52.623898187605754 -18.627855821368797 6.874816413858114 #
plane-surface $-1 53.70525223548082 0 0 -1 0 0 0 0 1 forward_v I I I I #
coedge $-1 $283 $281 $285 $406 reversed $181 $-1 #
edge $-1 $296 -9.8349080408459191 $408 9.8349080408459191 $295 $480 forward 7 unknown #
vertex $-1 $406 $481 #
straight-curve $-1 -53.70525223548082 -33.085267576398905 0 0 0 -1 I I #
edge $-1 $404 -33.085267576398905 $408 33.085267576398905 $402 $482 forward 7 unknown #
straight-curve $-1 0 -33.085267576398905 -9.8349080408459191 -1 0 0 I I #
vertex $-1 $288 $483 #
straight-curve $-1 0 33.085267576398905 -9.8349080408459191 1 0 0 I I #
point $-1 53.70525223548082 33.085267576398905 -9.8349080408459191 #
point $-1 53.70525223548082 -33.085267576398905 -9.8349080408459191 #
straight-curve $-1 -53.70525223548082 0 9.8349080408459191 0 -1 0 I I #
point $-1 -53.70525223548082 33.085267576398905 9.8349080408459191 #
point $-1 -53.70525223548082 -33.085267576398905 9.8349080408459191 #
straight-curve $-1 53.70525223548082 -33.085267576398905 0 0 0 -1 I I #
straight-curve $-1 53.70525223548082 33.085267576398905 0 0 0 -1 I I #
plane-surface $-1 53.70525223548082 0 0 -1 0 0 0 0 1 forward_v I I I I #
coedge $-1 $429 $420 $419 $484 forward $306 $-1 #
coedge $-1 $309 $308 $418 $484 reversed $121 $-1 #
coedge $-1 $418 $485 $310 $421 reversed $306 $-1 #
edge $-1 $422 -53.70525223548082 $425 53.70525223548082 $420 $486 forward 7 unknown #
vertex $-1 $311 $487 #
straight-curve $-1 -53.70525223548082 0 9.8349080408459191 0 -1 0 I I #
coedge $-1 $318 $312 $485 $488 forward $319 $-1 #
vertex $-1 $313 $489 #
straight-curve $-1 53.70525223548082 0 9.8349080408459191 0 1 0 I I #
point $-1 53.70525223548082 -33.085267576398905 9.8349080408459191 #
point $-1 -53.70525223548082 -33.085267576398905 9.8349080408459191 #
coedge $-1 $485 $418 $321 $430 reversed $306 $-1 #
edge $-1 $431 -53.70525223548082 $433 53.70525223548082 $429 $490 forward 7 unknown #
vertex $-1 $488 $491 #
straight-curve $-1 53.70525223548082 -38.373264746110657 6.8349080408459191 0 -1 0 I I #
vertex $-1 $323 $492 #
straight-curve $-1 -53.70525223548082 -38.373264746110657 6.8349080408459191 0 1 0 I I #
plane-surface $-1 0 0 9.8349080408459191 0 0 1 1 0 0 forward_v I I I I #
coedge $-1 $331 $328 $333 $443 reversed $216 $-1 #
coedge $-1 $328 $331 $449 $493 reversed $216 $-1 #
edge $-1 $451 -9.8349080408459191 $445 9.8349080408459191 $345 $494 forward 7 unknown #
edge $-1 $440 -5.3090944836614895 $343 5.3090944836614895 $330 $495 forward 7 unknown #
vertex $-1 $493 $496 #
vertex $-1 $443 $497 #
straight-curve $-1 -38.341521291238251 43.703456543721877 0 0 0 -1 I I #
edge $-1 $441 -2.1530425687246364 $445 2.1530425687246364 $436 $498 forward 7 unknown #
straight-curve $-1 -38.341521291238251 38.394362060060388 -9.8349080408459191 0 1 0 I I #
vertex $-1 $335 $499 #
straight-curve $-1 -34.035436153788979 38.394362060060388 -9.8349080408459191 0 -1 0 I I #
point $-1 -38.341521291238251 33.085267576398898 -9.8349080408459191 #
straight-curve $-1 -38.341521291238251 33.085267576398905 0 0 0 -1 I I #
coedge $-1 $341 $340 $437 $493 forward $342 $-1 #
point $-1 -38.341521291238251 33.085267576398898 9.8349080408459191 #
vertex $-1 $346 $500 #
straight-curve $-1 -34.035436153788979 38.394362060060388 9.8349080408459191 0 1 0 I I #
coedge $-1 $360 $359 $352 $454 forward $349 $-1 #
edge $-1 $455 33.177101622170873 $458 36.809550158193233 $453 $501 forward 7 unknown #
vertex $-1 $364 $502 #
straight-curve $-1 -62.788454542918885 15.242414645233396 9.8349080408459173 -1 0 0 I I #
edge $-1 $458 -9.2520650515259923 $361 -2.7286341358888144 $360 $503 forward 7 unknown #
vertex $-1 $457 $504 #
straight-curve $-1 -53.705252235480827 15.242414645233396 6.2024595048235511 0.74314481823134659 0 0.66913061440640931 I I #
point $-1 -49.671009519756701 15.242414645233396 9.8349080408459191 #
point $-1 -53.70525223548082 8.7189837295962178 6.2024595048235573 #
straight-curve $-1 -53.70525223548082 0 9.8349080408459191 0 -1 0 I I #
vertex $-1 $367 $505 #
point $-1 -50.117945352322437 10.023669912723655 7.0220543817592436 #
vertex $-1 $371 $506 #
point $-1 -50.117945352322437 11.980699187414807 7.0220543817592436 #
vertex $-1 $375 $507 #
point $-1 -50.117945352322437 13.937728462105959 7.0220543817592436 #
edge $-1 $470 68.295036101103761 $473 72.639197831357095 $380 $508 forward 7 unknown #
vertex $-1 $394 $509 #
straight-curve $-1 36.108688591138588 -22.509273236975396 9.8349080408459173 1 0 0 I I #
edge $-1 $473 -13.195345326290997 $391 -5.4325104950777998 $390 $510 forward 7 unknown #
vertex $-1 $472 $511 #
straight-curve $-1 -12.423256277774385 -22.509273236975396 90.131379770644145 -0.61566146476048833 0 0.78801076186113728 I I #
point $-1 50.311221210209716 -22.509273236975396 9.8349080408459173 #
point $-1 53.705252235480827 -14.746438405762198 5.4907463105925842 #
straight-curve $-1 53.70525223548082 0 9.8349080408459191 0 1 0 I I #
vertex $-1 $397 $512 #
point $-1 51.496076272294566 -18.627855821368797 5.9936653865174172 #
straight-curve $-1 -53.70525223548082 33.085267576398905 0 0 0 -1 I I #
point $-1 -53.70525223548082 -33.085267576398905 -9.8349080408459191 #
straight-curve $-1 -53.70525223548082 0 -9.8349080408459191 0 1 0 I I #
point $-1 -53.70525223548082 33.085267576398905 -9.8349080408459191 #
edge $-1 $422 -1.5 $433 1.5 $419 $513 forward 7 unknown #
coedge $-1 $420 $429 $424 $488 reversed $306 $-1 #
straight-curve $-1 0 -43.661261915822408 9.8349080408459191 1 0 0 I I #
point $-1 -53.70525223548082 -43.661261915822408 9.8349080408459191 #
edge $-1 $425 -1.5 $431 1.5 $424 $514 forward 7 unknown #
point $-1 53.70525223548082 -43.661261915822408 9.8349080408459191 #
straight-curve $-1 0 -43.661261915822408 6.8349080408459191 -1 0 0 I I #
point $-1 53.70525223548082 -43.661261915822408 6.8349080408459191 #
point $-1 -53.70525223548082 -43.661261915822408 6.8349080408459191 #
edge $-1 $451 -2.1530425687246364 $440 2.1530425687246364 $437 $515 forward 7 unknown #
straight-curve $-1 -34.035436153788979 43.703456543721877 0 0 0 -1 I I #
straight-curve $-1 -38.341521291238251 38.394362060060388 9.8349080408459191 0 -1 0 I I #
point $-1 -38.341521291238251 43.703456543721877 9.8349080408459191 #
point $-1 -38.341521291238251 43.703456543721877 -9.8349080408459191 #
straight-curve $-1 -36.188478722513615 43.703456543721877 -9.8349080408459191 1 0 0 I I #
point $-1 -34.035436153788979 43.703456543721877 -9.8349080408459191 #
point $-1 -34.035436153788979 43.703456543721877 9.8349080408459191 #
straight-curve $-1 -53.70525223548082 15.242414645233396 43.012009663016791 0 0 -1 I I #
point $-1 -53.70525223548082 15.242414645233396 9.8349080408459191 #
straight-curve $-1 -53.70525223548082 5.9903495937074034 6.2024595048235636 0 -1 0 I I #
point $-1 -53.70525223548082 15.242414645233396 6.2024595048235573 #
point $-1 -50.154952454234902 10.023669912723655 6.3159166654403673 #
point $-1 -50.154952454234902 11.980699187414807 6.3159166654403673 #
point $-1 -50.154952454234902 13.937728462105959 6.3159166654403673 #
straight-curve $-1 53.70525223548082 -22.509273236975396 78.129944141949679 0 0 -1 I I #
point $-1 53.70525223548082 -22.509273236975396 9.8349080408459191 #
straight-curve $-1 53.70525223548082 -9.3139279106843986 5.4907463105925842 0 1 0 I I #
point $-1 53.705252235480827 -22.509273236975396 5.4907463105925842 #
point $-1 50.092404045672943 -18.627855821368797 6.1660146836180658 #
straight-curve $-1 -53.70525223548082 -43.661261915822408 8.3349080408459191 0 0 -1 I I #
straight-curve $-1 53.70525223548082 -43.661261915822408 8.3349080408459191 0 0 -1 I I #
straight-curve $-1 -36.188478722513615 43.703456543721877 9.8349080408459191 -1 0 0 I I #
End-of-ACIS-data 