500 0 6 0           
7 Unknown 11 ACIS 5.0 NT 24 Fri Mar 26 16:49:00 1999 
-1 9.9999999999999995e-007 1e-010 
body $-1 $6 $-1 $7 #
body $-1 $8 $-1 $9 #
body $-1 $10 $-1 $11 #
body $-1 $12 $-1 $13 #
body $-1 $14 $-1 $15 #
body $-1 $16 $-1 $17 #
lump $-1 $-1 $18 $0 #
transform $-1 1 0 0 0 1 0 0 0 1 62.611774040955837 42.979838628065288 20.42588400121528 1 rotate no_reflect no_shear #
lump $-1 $-1 $19 $1 #
transform $-1 1 0 0 0 1 0 0 0 1 62.611774040955837 42.979838628065288 20.42588400121528 1 rotate no_reflect no_shear #
lump $-1 $-1 $20 $2 #
transform $-1 1 0 0 0 1 0 0 0 1 62.611774040955837 42.979838628065288 20.42588400121528 1 rotate no_reflect no_shear #
lump $-1 $-1 $21 $3 #
transform $-1 1 0 0 0 1 0 0 0 1 62.611774040955837 42.979838628065288 20.42588400121528 1 rotate no_reflect no_shear #
lump $-1 $-1 $22 $4 #
transform $-1 1 0 0 0 1 0 0 0 1 62.611774040955837 42.979838628065288 20.42588400121528 1 rotate no_reflect no_shear #
lump $-1 $-1 $23 $5 #
transform $-1 1 0 0 0 1 0 0 0 1 62.611774040955837 42.979838628065288 20.42588400121528 1 rotate no_reflect no_shear #
shell $-1 $-1 $-1 $24 $-1 $6 #
shell $-1 $-1 $-1 $25 $-1 $8 #
shell $-1 $-1 $-1 $26 $-1 $10 #
shell $-1 $-1 $-1 $27 $-1 $12 #
shell $-1 $-1 $-1 $28 $-1 $14 #
shell $-1 $-1 $-1 $29 $-1 $16 #
face $-1 $30 $31 $18 $-1 $32 forward single #
face $-1 $33 $34 $19 $-1 $35 forward single #
face $-1 $36 $37 $20 $-1 $38 reversed single #
face $-1 $39 $40 $21 $-1 $41 forward single #
face $-1 $42 $43 $22 $-1 $44 reversed single #
face $-1 $45 $46 $23 $-1 $47 forward single #
face $-1 $48 $49 $18 $-1 $50 reversed single #
loop $-1 $-1 $51 $24 #
plane-surface $-1 0 0 20.42588400121528 0 0 1 1 0 0 forward_v I I I I #
face $-1 $52 $53 $19 $-1 $54 reversed single #
loop $-1 $-1 $55 $25 #
plane-surface $-1 0 -31.945485227317221 -15.745017185054948 0 0 1 1 0 0 forward_v I I I I #
face $-1 $56 $57 $20 $-1 $58 reversed single #
loop $-1 $-1 $59 $26 #
plane-surface $-1 -35.88095860427444 60.259287646588739 167.18877630155853 -1 0 0 0 0.6560590369687036 0.75470957328743171 forward_v I I I I #
face $-1 $60 $61 $21 $-1 $62 forward single #
loop $-1 $63 $64 $27 #
cone-surface $-1 -49.246366322615138 39.632720863781991 17.244655876417987 0 -0.6560590369687036 -0.75470957328743171 1 0 0 1 I I 0 1 1 forward I I I I #
face $-1 $65 $66 $22 $-1 $67 reversed single #
loop $-1 $-1 $68 $28 #
plane-surface $-1 26.730815436681404 60.259287646588739 167.18877630155853 -1 0 0 0 0.6560590369687036 0.75470957328743171 forward_v I I I I #
face $-1 $69 $70 $23 $-1 $71 forward single #
loop $-1 $72 $73 $29 #
cone-surface $-1 13.365407718340705 39.632720863781991 17.244655876417987 0 -0.6560590369687036 -0.75470957328743171 1 0 0 1 I I 0 1 1 forward I I I I #
face $-1 $74 $75 $18 $-1 $76 reversed single #
loop $-1 $-1 $77 $30 #
plane-surface $-1 0 0 -20.42588400121528 0 0 1 1 0 0 forward_v I I I I #
coedge $-1 $78 $79 $80 $81 forward $31 $-1 #
face $-1 $82 $83 $19 $-1 $84 reversed single #
loop $-1 $-1 $85 $33 #
plane-surface $-1 0 -20.911131826569154 -18.085450593135114 0 -1 0 0 0 -1 forward_v I I I I #
coedge $-1 $86 $87 $88 $89 reversed $34 $-1 #
face $-1 $90 $91 $20 $-1 $92 reversed single #
loop $-1 $-1 $93 $36 #
plane-surface $-1 -49.246366322615138 -21.894752713834386 72.68136576312078 0 0.6560590369687036 0.75470957328743171 1 0 0 forward_v I I I I #
coedge $-1 $94 $95 $96 $97 reversed $37 $-1 #
face $-1 $-1 $98 $21 $-1 $99 forward single #
loop $-1 $100 $101 $39 #
cone-surface $-1 -49.246366322615138 38.338342232172359 15.755643623423026 0 -0.6560590369687036 -0.75470957328743171 0.5 0 0 1 I I -0.70710678118654746 0.70710678118654746 0.5 forward I I I I #
loop $-1 $-1 $102 $27 #
coedge $-1 $64 $64 $103 $104 reversed $40 $-1 #
face $-1 $105 $106 $22 $-1 $107 reversed single #
loop $-1 $-1 $108 $42 #
plane-surface $-1 13.365407718340705 -21.894752713834386 72.68136576312078 0 0.6560590369687036 0.75470957328743171 1 0 0 forward_v I I I I #
coedge $-1 $109 $110 $111 $112 reversed $43 $-1 #
face $-1 $-1 $113 $23 $-1 $114 forward single #
loop $-1 $115 $116 $45 #
cone-surface $-1 13.365407718340705 38.338342232172359 15.755643623423026 0 -0.6560590369687036 -0.75470957328743171 0.5 0 0 1 I I -0.70710678118654746 0.70710678118654746 0.5 forward I I I I #
loop $-1 $-1 $117 $29 #
coedge $-1 $73 $73 $118 $119 reversed $46 $-1 #
face $-1 $120 $121 $18 $-1 $122 reversed single #
loop $-1 $-1 $123 $48 #
plane-surface $-1 0 -42.979838628065288 0 0 1 0 0 0 1 forward_v I I I I #
coedge $-1 $124 $125 $126 $127 forward $49 $-1 #
coedge $-1 $128 $51 $129 $130 forward $31 $-1 #
coedge $-1 $51 $128 $131 $132 forward $31 $-1 #
coedge $-1 $133 $134 $51 $81 reversed $135 $-1 #
edge $-1 $136 -42.979838628065288 $137 42.979838628065288 $80 $138 forward 7 unknown #
face $-1 $139 $140 $19 $-1 $141 reversed single #
loop $-1 $-1 $142 $52 #
plane-surface $-1 0 0 -20.42588400121528 0 0 1 1 0 0 forward_v I I I I #
coedge $-1 $143 $144 $145 $146 reversed $53 $-1 #
coedge $-1 $147 $55 $144 $148 forward $34 $-1 #
coedge $-1 $55 $147 $149 $150 reversed $34 $-1 #
coedge $-1 $151 $145 $55 $89 forward $140 $-1 #
edge $-1 $152 4.9383892129105433 $153 27.007096014406677 $88 $154 forward 7 unknown #
face $-1 $155 $156 $20 $-1 $157 forward single #
loop $-1 $-1 $96 $56 #
plane-surface $-1 0 42.979838628065288 0 0 -1 0 0 0 -1 forward_v I I I I #
coedge $-1 $158 $159 $160 $161 reversed $57 $-1 #
coedge $-1 $95 $59 $162 $163 reversed $37 $-1 #
coedge $-1 $59 $94 $158 $164 reversed $37 $-1 #
coedge $-1 $160 $165 $59 $97 forward $91 $-1 #
edge $-1 $166 63.168504149563987 $167 67.307645466456108 $96 $168 forward 7 unknown #
loop $-1 $-1 $103 $60 #
plane-surface $-1 -49.246366322615138 -21.894752713834386 72.68136576312078 0 0.6560590369687036 0.75470957328743171 1 0 0 forward_v I I I I #
loop $-1 $-1 $169 $39 #
coedge $-1 $101 $101 $102 $170 reversed $61 $-1 #
coedge $-1 $102 $102 $101 $170 forward $63 $-1 #
coedge $-1 $103 $103 $64 $104 forward $98 $-1 #
edge $-1 $171 -4.6615798294787936e-015 $171 6.283185307179596 $103 $172 forward 7 unknown #
face $-1 $173 $174 $22 $-1 $175 forward single #
loop $-1 $-1 $176 $65 #
plane-surface $-1 5.3290705182007514e-015 60.259287646588739 167.18877630155853 1 0 0 0 -0.6560590369687036 -0.75470957328743171 forward_v I I I I #
coedge $-1 $177 $178 $179 $180 reversed $66 $-1 #
coedge $-1 $110 $68 $181 $182 reversed $43 $-1 #
coedge $-1 $68 $109 $177 $183 reversed $43 $-1 #
coedge $-1 $179 $184 $68 $112 forward $185 $-1 #
edge $-1 $186 63.168504149563987 $187 67.307645466456108 $111 $188 forward 7 unknown #
loop $-1 $-1 $118 $69 #
plane-surface $-1 13.365407718340705 -21.894752713834386 72.68136576312078 0 0.6560590369687036 0.75470957328743171 1 0 0 forward_v I I I I #
loop $-1 $-1 $189 $45 #
coedge $-1 $116 $116 $117 $190 reversed $70 $-1 #
coedge $-1 $117 $117 $116 $190 forward $72 $-1 #
coedge $-1 $118 $118 $73 $119 forward $113 $-1 #
edge $-1 $191 -4.6615798294787936e-015 $191 6.283185307179596 $118 $192 forward 7 unknown #
face $-1 $193 $194 $18 $-1 $195 reversed single #
loop $-1 $-1 $196 $74 #
plane-surface $-1 -62.611774040955837 0 0 1 0 0 0 0 -1 forward_v I I I I #
coedge $-1 $197 $131 $198 $199 forward $75 $-1 #
coedge $-1 $200 $77 $197 $201 forward $49 $-1 #
coedge $-1 $77 $200 $202 $203 forward $49 $-1 #
coedge $-1 $134 $133 $77 $127 reversed $135 $-1 #
edge $-1 $204 -42.979838628065288 $205 42.979838628065288 $126 $206 forward 7 unknown #
coedge $-1 $79 $78 $207 $208 forward $31 $-1 #
coedge $-1 $209 $210 $78 $130 reversed $194 $-1 #
edge $-1 $137 -62.611774040955837 $211 62.611774040955837 $129 $212 forward 7 unknown #
coedge $-1 $123 $213 $79 $132 reversed $75 $-1 #
edge $-1 $214 -62.611774040955837 $136 62.611774040955837 $131 $215 forward 7 unknown #
coedge $-1 $126 $80 $213 $216 forward $135 $-1 #
coedge $-1 $80 $126 $209 $217 reversed $135 $-1 #
loop $-1 $-1 $133 $193 #
vertex $-1 $81 $218 #
vertex $-1 $81 $219 #
straight-curve $-1 62.611774040955837 0 20.42588400121528 0 1 0 I I #
face $-1 $220 $221 $19 $-1 $222 reversed single #
loop $-1 $-1 $145 $82 #
plane-surface $-1 62.611774040955837 0 0 -1 0 0 0 0 1 forward_v I I I I #
coedge $-1 $223 $224 $143 $225 forward $83 $-1 #
coedge $-1 $226 $85 $142 $225 reversed $53 $-1 #
coedge $-1 $85 $226 $86 $148 reversed $53 $-1 #
coedge $-1 $88 $227 $85 $146 forward $140 $-1 #
edge $-1 $228 -11.383158704647723 $152 -6.702291888487391 $145 $229 forward 7 unknown #
coedge $-1 $87 $86 $230 $231 reversed $34 $-1 #
edge $-1 $152 -62.611774040955837 $232 62.611774040955837 $144 $233 forward 7 unknown #
coedge $-1 $234 $235 $87 $150 forward $221 $-1 #
edge $-1 $153 -62.611774040955837 $236 62.611774040955837 $149 $237 forward 7 unknown #
coedge $-1 $227 $88 $235 $238 forward $140 $-1 #
vertex $-1 $89 $239 #
vertex $-1 $238 $240 #
straight-curve $-1 62.611774040955837 -15.97274261365861 -15.745017185054948 0 -1 0 I I #
face $-1 $-1 $241 $20 $-1 $242 reversed single #
loop $-1 $-1 $162 $90 #
plane-surface $-1 0 0 20.42588400121528 0 0 1 1 0 0 forward_v I I I I #
coedge $-1 $243 $93 $95 $164 forward $57 $-1 #
coedge $-1 $93 $243 $244 $245 reversed $57 $-1 #
coedge $-1 $246 $96 $93 $161 forward $91 $-1 #
edge $-1 $167 11.257775442966871 $247 37.988590879648271 $160 $248 forward 7 unknown #
coedge $-1 $249 $250 $94 $163 forward $156 $-1 #
edge $-1 $251 8.0886575024548684 $166 12.850194804770918 $162 $252 forward 7 unknown #
edge $-1 $167 -85.959677256130604 $251 -79.650578404269851 $95 $253 forward 7 unknown #
coedge $-1 $96 $246 $249 $254 reversed $91 $-1 #
vertex $-1 $254 $255 #
vertex $-1 $97 $256 #
straight-curve $-1 -35.88095860427444 42.979838628065288 83.594388150779267 0 0 -1 I I #
coedge $-1 $169 $169 $-1 $257 reversed $100 $-1 #
edge $-1 $258 0 $258 6.2831853071796004 $101 $259 forward 7 unknown #
vertex $-1 $104 $260 #
ellipse-curve $-1 -49.246366322615138 40.599069976907266 18.356313342769226 0 0.6560590369687036 0.75470957328743171 1 0 0 1 I I #
face $-1 $-1 $185 $22 $-1 $261 reversed single #
loop $-1 $-1 $262 $105 #
plane-surface $-1 0 0 20.42588400121528 0 0 1 1 0 0 forward_v I I I I #
coedge $-1 $263 $264 $265 $266 reversed $106 $-1 #
coedge $-1 $267 $108 $110 $183 forward $66 $-1 #
coedge $-1 $108 $267 $263 $268 forward $66 $-1 #
coedge $-1 $265 $111 $108 $180 forward $185 $-1 #
edge $-1 $187 -20.048111577511051 $269 6.6827038591703474 $179 $270 forward 7 unknown #
coedge $-1 $271 $272 $109 $182 forward $174 $-1 #
edge $-1 $273 8.0886575024548684 $186 12.850194804770918 $181 $274 forward 7 unknown #
edge $-1 $187 -85.959677256130604 $273 -79.650578404269851 $110 $275 forward 7 unknown #
coedge $-1 $111 $265 $271 $276 reversed $185 $-1 #
loop $-1 $-1 $265 $173 #
vertex $-1 $276 $277 #
vertex $-1 $112 $278 #
straight-curve $-1 26.730815436681404 42.979838628065288 83.594388150779267 0 0 -1 I I #
coedge $-1 $189 $189 $-1 $279 reversed $115 $-1 #
edge $-1 $280 0 $280 6.2831853071796004 $116 $281 forward 7 unknown #
vertex $-1 $119 $282 #
ellipse-curve $-1 13.365407718340705 40.599069976907266 18.356313342769226 0 0.6560590369687036 0.75470957328743171 1 0 0 1 I I #
face $-1 $-1 $135 $18 $-1 $283 reversed single #
loop $-1 $-1 $209 $120 #
plane-surface $-1 0 42.979838628065288 0 0 -1 0 0 0 -1 forward_v I I I I #
coedge $-1 $284 $207 $210 $285 forward $121 $-1 #
coedge $-1 $213 $123 $124 $201 reversed $75 $-1 #
coedge $-1 $207 $284 $123 $199 reversed $121 $-1 #
edge $-1 $214 -20.42588400121528 $286 20.42588400121528 $198 $287 forward 7 unknown #
coedge $-1 $125 $124 $284 $288 forward $49 $-1 #
edge $-1 $205 -62.611774040955837 $286 62.611774040955837 $197 $289 forward 7 unknown #
coedge $-1 $210 $209 $125 $203 reversed $194 $-1 #
edge $-1 $290 -62.611774040955837 $204 62.611774040955837 $202 $291 forward 7 unknown #
vertex $-1 $127 $292 #
vertex $-1 $216 $293 #
straight-curve $-1 62.611774040955837 0 -20.42588400121528 0 -1 0 I I #
coedge $-1 $196 $198 $128 $208 reversed $121 $-1 #
edge $-1 $211 -42.979838628065288 $214 42.979838628065288 $207 $294 forward 7 unknown #
coedge $-1 $202 $129 $134 $217 forward $194 $-1 #
coedge $-1 $129 $202 $196 $285 reversed $194 $-1 #
vertex $-1 $130 $295 #
straight-curve $-1 0 42.979838628065288 20.42588400121528 -1 0 0 I I #
coedge $-1 $131 $197 $133 $216 reversed $75 $-1 #
vertex $-1 $208 $296 #
straight-curve $-1 0 -42.979838628065288 20.42588400121528 1 0 0 I I #
edge $-1 $136 -20.42588400121528 $205 20.42588400121528 $133 $297 forward 7 unknown #
edge $-1 $137 -20.42588400121528 $204 20.42588400121528 $134 $298 forward 7 unknown #
point $-1 62.611774040955837 -42.979838628065288 20.42588400121528 #
point $-1 62.611774040955837 42.979838628065288 20.42588400121528 #
face $-1 $-1 $299 $19 $-1 $300 reversed single #
loop $-1 $-1 $149 $139 #
plane-surface $-1 0 -42.979838628065288 0 0 1 0 0 0 1 forward_v I I I I #
coedge $-1 $301 $142 $227 $302 forward $83 $-1 #
coedge $-1 $142 $301 $303 $304 forward $83 $-1 #
edge $-1 $305 -62.611774040955837 $228 62.611774040955837 $142 $306 forward 7 unknown #
coedge $-1 $144 $143 $307 $308 reversed $53 $-1 #
coedge $-1 $145 $151 $223 $302 reversed $140 $-1 #
vertex $-1 $302 $309 #
straight-curve $-1 62.611774040955837 -20.911131826569154 -9.0427252965675571 0 0 1 I I #
coedge $-1 $307 $310 $147 $231 forward $299 $-1 #
edge $-1 $236 -27.007096014406677 $232 -4.9383892129105433 $230 $311 forward 7 unknown #
vertex $-1 $231 $312 #
straight-curve $-1 0 -20.911131826569154 -15.745017185054948 -1 0 0 I I #
coedge $-1 $313 $149 $310 $314 forward $221 $-1 #
coedge $-1 $149 $313 $151 $238 reversed $221 $-1 #
vertex $-1 $314 $315 #
straight-curve $-1 0 -42.979838628065288 -15.745017185054948 -1 0 0 I I #
edge $-1 $153 15.745017185054948 $316 20.42588400121528 $151 $317 forward 7 unknown #
point $-1 62.611774040955837 -20.911131826569154 -15.745017185054948 #
point $-1 62.611774040955837 -42.979838628065288 -15.745017185054948 #
loop $-1 $-1 $244 $155 #
plane-surface $-1 -62.611774040955837 0 0 1 0 0 0 0 -1 forward_v I I I I #
coedge $-1 $159 $158 $250 $318 reversed $57 $-1 #
coedge $-1 $319 $320 $159 $245 forward $241 $-1 #
edge $-1 $247 -53.855954103123146 $321 -47.5468552512624 $244 $322 forward 7 unknown #
coedge $-1 $165 $160 $320 $323 reversed $91 $-1 #
vertex $-1 $161 $324 #
straight-curve $-1 -24.623183161307569 42.979838628065281 16.286742684323169 -1 0 0 I I #
coedge $-1 $325 $162 $165 $254 forward $156 $-1 #
coedge $-1 $162 $325 $243 $318 forward $156 $-1 #
vertex $-1 $163 $326 #
straight-curve $-1 -35.88095860427444 30.129643823294369 20.42588400121528 0 1 0 I I #
straight-curve $-1 -35.88095860427444 -21.894752713834386 72.68136576312078 0 -0.75470957328743171 0.6560590369687036 I I #
edge $-1 $166 35.88095860427444 $327 62.611774040955837 $165 $328 forward 7 unknown #
point $-1 -35.88095860427444 42.979838628065288 20.42588400121528 #
point $-1 -35.88095860427444 42.979838628065288 16.286742684323166 #
edge $-1 $329 1 $329 0 $169 $-1 forward 7 unknown #
vertex $-1 $170 $330 #
ellipse-curve $-1 -49.246366322615138 38.666371750656708 16.13299841006674 0 0.6560590369687036 0.75470957328743171 1 0 0 1 I I #
point $-1 -48.246366322615138 40.599069976907266 18.356313342769234 #
plane-surface $-1 0 42.979838628065288 0 0 -1 0 0 0 -1 forward_v I I I I #
coedge $-1 $272 $271 $264 $331 forward $174 $-1 #
coedge $-1 $264 $176 $178 $268 reversed $106 $-1 #
coedge $-1 $176 $263 $262 $331 reversed $106 $-1 #
coedge $-1 $184 $179 $176 $266 forward $185 $-1 #
edge $-1 $269 -67.307645466456108 $332 -63.168504149563987 $265 $333 forward 7 unknown #
coedge $-1 $178 $177 $272 $334 reversed $66 $-1 #
edge $-1 $335 79.650578404269851 $269 85.959677256130604 $263 $336 forward 7 unknown #
vertex $-1 $180 $337 #
straight-curve $-1 6.6827038591703527 42.979838628065281 16.286742684323169 -1 0 0 I I #
coedge $-1 $262 $181 $184 $276 forward $174 $-1 #
coedge $-1 $181 $262 $267 $334 forward $174 $-1 #
vertex $-1 $182 $338 #
straight-curve $-1 26.730815436681404 30.129643823294369 20.42588400121528 0 1 0 I I #
straight-curve $-1 26.730815436681404 -21.894752713834386 72.68136576312078 0 -0.75470957328743171 0.6560590369687036 I I #
edge $-1 $186 -26.730815436681404 $332 -5.3290705182007514e-015 $184 $339 forward 7 unknown #
point $-1 26.730815436681404 42.979838628065288 20.42588400121528 #
point $-1 26.730815436681404 42.979838628065288 16.286742684323166 #
edge $-1 $340 1 $340 0 $189 $-1 forward 7 unknown #
vertex $-1 $190 $341 #
ellipse-curve $-1 13.365407718340705 38.666371750656708 16.13299841006674 0 0.6560590369687036 0.75470957328743171 1 0 0 1 I I #
point $-1 14.365407718340705 40.599069976907266 18.356313342769234 #
plane-surface $-1 62.611774040955837 0 0 -1 0 0 0 0 1 forward_v I I I I #
coedge $-1 $198 $196 $200 $288 reversed $121 $-1 #
edge $-1 $211 -20.42588400121528 $290 20.42588400121528 $210 $342 forward 7 unknown #
vertex $-1 $288 $343 #
straight-curve $-1 -62.611774040955837 -42.979838628065288 0 0 0 -1 I I #
edge $-1 $286 -42.979838628065288 $290 42.979838628065288 $284 $344 forward 7 unknown #
straight-curve $-1 0 -42.979838628065288 -20.42588400121528 -1 0 0 I I #
vertex $-1 $203 $345 #
straight-curve $-1 0 42.979838628065288 -20.42588400121528 1 0 0 I I #
point $-1 62.611774040955837 42.979838628065288 -20.42588400121528 #
point $-1 62.611774040955837 -42.979838628065288 -20.42588400121528 #
straight-curve $-1 -62.611774040955837 0 20.42588400121528 0 -1 0 I I #
point $-1 -62.611774040955837 42.979838628065288 20.42588400121528 #
point $-1 -62.611774040955837 -42.979838628065288 20.42588400121528 #
straight-curve $-1 62.611774040955837 -42.979838628065288 0 0 0 -1 I I #
straight-curve $-1 62.611774040955837 42.979838628065288 0 0 0 -1 I I #
loop $-1 $-1 $307 $220 #
plane-surface $-1 -62.611774040955837 0 0 1 0 0 0 0 -1 forward_v I I I I #
coedge $-1 $224 $223 $313 $346 forward $83 $-1 #
edge $-1 $228 20.911131826569154 $316 42.979838628065288 $227 $347 forward 7 unknown #
coedge $-1 $310 $307 $224 $304 reversed $299 $-1 #
edge $-1 $348 -42.979838628065288 $305 -20.911131826569154 $303 $349 forward 7 unknown #
vertex $-1 $308 $350 #
straight-curve $-1 0 -20.911131826569154 -20.42588400121528 1 0 0 I I #
coedge $-1 $303 $230 $226 $308 forward $299 $-1 #
edge $-1 $232 6.702291888487391 $305 11.383158704647723 $307 $351 forward 7 unknown #
point $-1 62.611774040955837 -20.911131826569154 -20.42588400121528 #
coedge $-1 $230 $303 $234 $314 reversed $299 $-1 #
straight-curve $-1 -62.611774040955837 -15.97274261365861 -15.745017185054948 0 1 0 I I #
point $-1 -62.611774040955837 -20.911131826569154 -15.745017185054948 #
coedge $-1 $235 $234 $301 $346 reversed $221 $-1 #
edge $-1 $236 15.745017185054948 $348 20.42588400121528 $310 $352 forward 7 unknown #
point $-1 -62.611774040955837 -42.979838628065288 -15.745017185054948 #
vertex $-1 $238 $353 #
straight-curve $-1 62.611774040955837 -42.979838628065288 0 0 0 -1 I I #
edge $-1 $321 -37.988590879648271 $251 -11.257775442966871 $250 $354 forward 7 unknown #
coedge $-1 $320 $244 $325 $355 reversed $241 $-1 #
coedge $-1 $244 $319 $246 $323 forward $241 $-1 #
vertex $-1 $245 $356 #
straight-curve $-1 -62.611774040955837 2.334234487909713 51.619428068248837 0 -0.75470957328743171 0.6560590369687036 I I #
edge $-1 $327 -20.42588400121528 $247 -16.286742684323166 $246 $357 forward 7 unknown #
point $-1 -62.611774040955837 42.979838628065288 16.286742684323166 #
coedge $-1 $250 $249 $319 $355 forward $156 $-1 #
point $-1 -35.88095860427444 38.218301325749238 20.42588400121528 #
vertex $-1 $254 $358 #
straight-curve $-1 0 42.979838628065288 20.42588400121528 -1 0 0 I I #
vertex $-1 $257 $359 #
point $-1 -48.246366322615138 38.666371750656708 16.13299841006674 #
edge $-1 $332 -12.850194804770918 $335 -8.0886575024548684 $262 $360 forward 7 unknown #
vertex $-1 $331 $361 #
straight-curve $-1 5.3290705182007514e-015 42.979838628065288 83.594388150779267 0 0 1 I I #
edge $-1 $335 -6.6827038591703474 $273 20.048111577511051 $272 $362 forward 7 unknown #
vertex $-1 $334 $363 #
straight-curve $-1 5.3290705182007514e-015 -21.894752713834386 72.68136576312078 0 0.75470957328743171 -0.6560590369687036 I I #
point $-1 5.3290705182007514e-015 42.979838628065288 16.286742684323166 #
point $-1 26.730815436681404 38.218301325749238 20.42588400121528 #
straight-curve $-1 0 42.979838628065288 20.42588400121528 -1 0 0 I I #
vertex $-1 $279 $364 #
point $-1 14.365407718340705 38.666371750656708 16.13299841006674 #
straight-curve $-1 -62.611774040955837 42.979838628065288 0 0 0 -1 I I #
point $-1 -62.611774040955837 -42.979838628065288 -20.42588400121528 #
straight-curve $-1 -62.611774040955837 0 -20.42588400121528 0 1 0 I I #
point $-1 -62.611774040955837 42.979838628065288 -20.42588400121528 #
edge $-1 $316 -62.611774040955837 $348 62.611774040955837 $313 $365 forward 7 unknown #
straight-curve $-1 62.611774040955837 0 -20.42588400121528 0 -1 0 I I #
vertex $-1 $304 $366 #
straight-curve $-1 -62.611774040955837 0 -20.42588400121528 0 1 0 I I #
point $-1 -62.611774040955837 -20.911131826569154 -20.42588400121528 #
straight-curve $-1 -62.611774040955837 -20.911131826569154 -9.0427252965675571 0 0 -1 I I #
straight-curve $-1 -62.611774040955837 -42.979838628065288 0 0 0 -1 I I #
point $-1 62.611774040955837 -42.979838628065288 -20.42588400121528 #
straight-curve $-1 -24.623183161307569 38.218301325749231 20.425884001215287 1 0 0 I I #
edge $-1 $327 -42.979838628065288 $321 -38.218301325749238 $319 $367 forward 7 unknown #
point $-1 -62.611774040955837 38.218301325749238 20.42588400121528 #
straight-curve $-1 -62.611774040955837 42.979838628065288 0 0 0 -1 I I #
point $-1 -62.611774040955837 42.979838628065288 20.42588400121528 #
point $-1 -49.246366322615138 38.010312713688009 15.37828883677931 #
straight-curve $-1 5.3290705182007514e-015 30.129643823294369 20.42588400121528 0 -1 0 I I #
point $-1 5.3290705182007514e-015 42.979838628065288 20.42588400121528 #
straight-curve $-1 6.6827038591703527 38.218301325749231 20.425884001215287 1 0 0 I I #
point $-1 5.3290705182007514e-015 38.218301325749238 20.42588400121528 #
point $-1 13.365407718340705 38.010312713688009 15.37828883677931 #
straight-curve $-1 0 -42.979838628065288 -20.42588400121528 -1 0 0 I I #
point $-1 -62.611774040955837 -42.979838628065288 -20.42588400121528 #
straight-curve $-1 -62.611774040955837 0 20.42588400121528 0 -1 0 I I #
End-of-ACIS-data 