500 0 4 0           
7 Unknown 11 ACIS 5.0 NT 24 Fri Mar 26 00:18:20 1999 
-1 9.9999999999999995e-007 1e-010 
body $-1 $4 $-1 $5 #
body $-1 $6 $-1 $7 #
body $-1 $8 $-1 $9 #
body $-1 $10 $-1 $11 #
lump $-1 $-1 $12 $0 #
transform $-1 1 0 0 0 1 0 0 0 1 50.682699056978059 22.883701878974811 11.256012960118065 1 rotate no_reflect no_shear #
lump $-1 $-1 $13 $1 #
transform $-1 1 0 0 0 1 0 0 0 1 50.682699056978059 22.883701878974811 11.256012960118065 1 rotate no_reflect no_shear #
lump $-1 $-1 $14 $2 #
transform $-1 1 0 0 0 1 0 0 0 1 50.682699056978059 22.883701878974811 11.256012960118065 1 rotate no_reflect no_shear #
lump $-1 $-1 $15 $3 #
transform $-1 1 0 0 0 1 0 0 0 1 50.682699056978059 22.883701878974811 11.256012960118065 1 rotate no_reflect no_shear #
shell $-1 $-1 $-1 $16 $-1 $4 #
shell $-1 $-1 $-1 $17 $-1 $6 #
shell $-1 $-1 $-1 $18 $-1 $8 #
shell $-1 $-1 $-1 $19 $-1 $10 #
face $-1 $20 $21 $12 $-1 $22 forward single #
face $-1 $23 $24 $13 $-1 $25 reversed single #
face $-1 $26 $27 $14 $-1 $28 forward single #
face $-1 $29 $30 $15 $-1 $31 reversed single #
face $-1 $32 $33 $12 $-1 $34 reversed single #
loop $-1 $-1 $35 $16 #
plane-surface $-1 0 0 11.256012960118065 0 0 1 1 0 0 forward_v I I I I #
face $-1 $36 $37 $13 $-1 $38 forward single #
loop $-1 $-1 $39 $17 #
plane-surface $-1 -44.548307682825296 0 -1.712277195486914 0 0 1 1 0 0 forward_v I I I I #
face $-1 $40 $41 $14 $-1 $42 forward single #
loop $-1 $-1 $43 $18 #
plane-surface $-1 38.188722538654254 14.025080353414737 148.42984035534252 0 -1 0 -0.64278761758704617 0 -0.76604443648966558 forward_v I I I I #
face $-1 $44 $45 $15 $-1 $46 reversed single #
loop $-1 $47 $48 $19 #
cone-surface $-1 46.239125363978594 10.460772087882198 7.1440759805604603 -0.64278761758704617 0 -0.76604443648966558 1.1490666547344983 0 -0.96418142638056925 1 I I 0 1 1.5 forward I I I I #
face $-1 $49 $50 $12 $-1 $51 reversed single #
loop $-1 $-1 $52 $20 #
plane-surface $-1 0 0 -11.256012960118065 0 0 1 1 0 0 forward_v I I I I #
coedge $-1 $53 $54 $55 $56 forward $21 $-1 #
face $-1 $57 $58 $13 $-1 $59 forward single #
loop $-1 $-1 $60 $23 #
plane-surface $-1 -44.548307682825296 0 -7.8391730344124735 0 0 1 1 0 0 forward_v I I I I #
coedge $-1 $61 $62 $63 $64 reversed $24 $-1 #
face $-1 $65 $66 $14 $-1 $67 forward single #
loop $-1 $-1 $68 $26 #
plane-surface $-1 -26.967700220778063 10.460772087882198 70.779441077586398 0.64278761758704617 0 0.76604443648966558 0.76604443648966558 0 -0.64278761758704617 forward_v I I I I #
coedge $-1 $69 $70 $71 $72 reversed $27 $-1 #
face $-1 $73 $74 $15 $-1 $75 forward single #
loop $-1 $76 $77 $29 #
cone-surface $-1 44.670031688297861 10.460772087882198 5.2741029946175981 -0.64278761758704617 0 -0.76604443648966558 0.57453332736724916 0 -0.48209071319028463 1 I I -0.70710678118654757 0.70710678118654757 0.75 forward I I I I #
loop $-1 $-1 $78 $19 #
coedge $-1 $48 $48 $79 $80 reversed $30 $-1 #
face $-1 $81 $82 $12 $-1 $83 reversed single #
loop $-1 $-1 $84 $32 #
plane-surface $-1 0 -22.883701878974811 0 0 1 0 0 0 1 forward_v I I I I #
coedge $-1 $85 $86 $87 $88 forward $33 $-1 #
coedge $-1 $89 $35 $90 $91 forward $21 $-1 #
coedge $-1 $35 $89 $92 $93 forward $21 $-1 #
coedge $-1 $94 $95 $35 $56 reversed $96 $-1 #
edge $-1 $97 -22.883701878974811 $98 22.883701878974811 $55 $99 forward 7 unknown #
face $-1 $100 $101 $13 $-1 $102 reversed single #
loop $-1 $-1 $103 $36 #
plane-surface $-1 -38.413916308672533 0 -4.7757251149496938 -1 0 0 0 0 1 forward_v I I I I #
coedge $-1 $104 $105 $106 $107 reversed $37 $-1 #
coedge $-1 $108 $39 $109 $110 reversed $24 $-1 #
coedge $-1 $39 $108 $111 $112 reversed $24 $-1 #
coedge $-1 $113 $103 $39 $64 forward $58 $-1 #
edge $-1 $114 -22.883701878974811 $115 22.883701878974811 $63 $116 forward 7 unknown #
face $-1 $117 $118 $14 $-1 $119 forward single #
loop $-1 $-1 $120 $40 #
plane-surface $-1 38.188722538654254 6.8964638223496593 148.42984035534252 0 1 0 0.64278761758704617 0 0.76604443648966558 forward_v I I I I #
coedge $-1 $121 $122 $123 $124 reversed $41 $-1 #
coedge $-1 $70 $43 $122 $125 forward $27 $-1 #
coedge $-1 $43 $69 $126 $127 reversed $27 $-1 #
coedge $-1 $128 $123 $43 $72 forward $118 $-1 #
edge $-1 $129 24.875196326632906 $130 31.588337787650932 $71 $131 forward 7 unknown #
face $-1 $132 $133 $15 $-1 $134 forward single #
loop $-1 $-1 $135 $44 #
plane-surface $-1 38.188722538654254 14.025080353414737 148.42984035534252 0 -1 0 -0.64278761758704617 0 -0.76604443648966558 forward_v I I I I #
loop $-1 $-1 $136 $29 #
coedge $-1 $77 $77 $78 $137 forward $45 $-1 #
coedge $-1 $78 $78 $77 $137 reversed $47 $-1 #
coedge $-1 $79 $79 $48 $80 forward $133 $-1 #
edge $-1 $138 0 $138 6.2831853071796004 $79 $139 forward 7 unknown #
face $-1 $140 $141 $12 $-1 $142 reversed single #
loop $-1 $-1 $143 $49 #
plane-surface $-1 -50.682699056978059 0 0 1 0 0 0 0 -1 forward_v I I I I #
coedge $-1 $144 $92 $145 $146 forward $50 $-1 #
coedge $-1 $147 $52 $144 $148 forward $33 $-1 #
coedge $-1 $52 $147 $149 $150 forward $33 $-1 #
coedge $-1 $95 $94 $52 $88 reversed $96 $-1 #
edge $-1 $151 -22.883701878974811 $152 22.883701878974811 $87 $153 forward 7 unknown #
coedge $-1 $54 $53 $154 $155 forward $21 $-1 #
coedge $-1 $156 $157 $53 $91 reversed $141 $-1 #
edge $-1 $98 -50.682699056978059 $158 50.682699056978059 $90 $159 forward 7 unknown #
coedge $-1 $84 $160 $54 $93 reversed $50 $-1 #
edge $-1 $161 -50.682699056978059 $97 50.682699056978059 $92 $162 forward 7 unknown #
coedge $-1 $87 $55 $160 $163 forward $96 $-1 #
coedge $-1 $55 $87 $156 $164 reversed $96 $-1 #
loop $-1 $-1 $94 $140 #
vertex $-1 $56 $165 #
vertex $-1 $56 $166 #
straight-curve $-1 50.682699056978059 0 11.256012960118065 0 1 0 I I #
face $-1 $167 $168 $13 $-1 $102 reversed single #
loop $-1 $-1 $169 $57 #
plane-surface $-1 -50.682699056978059 0 0 1 0 0 0 0 -1 forward_v I I I I #
coedge $-1 $63 $106 $170 $171 reversed $58 $-1 #
coedge $-1 $172 $60 $173 $174 reversed $37 $-1 #
coedge $-1 $60 $172 $175 $176 reversed $37 $-1 #
coedge $-1 $103 $113 $60 $107 forward $58 $-1 #
edge $-1 $177 -22.883701878974811 $178 22.883701878974811 $106 $179 forward 7 unknown #
coedge $-1 $62 $61 $180 $181 reversed $24 $-1 #
coedge $-1 $170 $182 $61 $110 forward $183 $-1 #
edge $-1 $184 -28.408545215565411 $114 -16.139762467259885 $109 $185 forward 7 unknown #
coedge $-1 $186 $187 $62 $112 forward $188 $-1 #
edge $-1 $115 16.139762467259885 $189 28.408545215565411 $111 $190 forward 7 unknown #
coedge $-1 $106 $63 $187 $191 reversed $58 $-1 #
vertex $-1 $110 $192 #
vertex $-1 $112 $193 #
straight-curve $-1 -38.413916308672533 0 -1.712277195486914 0 1 0 I I #
face $-1 $194 $195 $14 $-1 $196 reversed single #
loop $-1 $-1 $197 $65 #
plane-surface $-1 0 0 11.256012960118065 0 0 1 1 0 0 forward_v I I I I #
coedge $-1 $198 $199 $197 $200 reversed $66 $-1 #
coedge $-1 $201 $68 $199 $202 reversed $41 $-1 #
coedge $-1 $68 $201 $69 $125 reversed $41 $-1 #
coedge $-1 $71 $197 $68 $124 forward $118 $-1 #
edge $-1 $203 1.6660777784085603 $129 8.7946943094736376 $123 $204 forward 7 unknown #
edge $-1 $129 92.602014240586527 $205 101.3653981139561 $69 $206 forward 7 unknown #
coedge $-1 $207 $208 $70 $127 forward $209 $-1 #
edge $-1 $130 62.958907217553197 $205 68.591901859517179 $126 $210 forward 7 unknown #
coedge $-1 $211 $71 $208 $212 forward $118 $-1 #
vertex $-1 $124 $213 #
vertex $-1 $212 $214 #
straight-curve $-1 19.094361269327127 14.025080353414737 11.256012960118071 1 0 0 I I #
face $-1 $215 $216 $15 $-1 $217 forward single #
loop $-1 $218 $79 $73 #
plane-surface $-1 -26.967700220778063 10.460772087882198 70.779441077586398 0.64278761758704617 0 0.76604443648966558 0.76604443648966558 0 -0.64278761758704617 forward_v I I I I #
coedge $-1 $219 $220 $221 $222 reversed $74 $-1 #
coedge $-1 $136 $136 $-1 $223 forward $76 $-1 #
edge $-1 $224 0 $224 6.2831853071796004 $77 $225 forward 7 unknown #
vertex $-1 $80 $226 #
ellipse-curve $-1 47.326128326469046 10.460772087882198 8.4395156391360739 -0.64278761758704617 0 -0.76604443648966558 1.1490666547344983 0 -0.96418142638056925 1 I I #
face $-1 $-1 $96 $12 $-1 $227 reversed single #
loop $-1 $-1 $156 $81 #
plane-surface $-1 0 22.883701878974811 0 0 -1 0 0 0 -1 forward_v I I I I #
coedge $-1 $228 $154 $157 $229 forward $82 $-1 #
coedge $-1 $160 $84 $85 $148 reversed $50 $-1 #
coedge $-1 $154 $228 $84 $146 reversed $82 $-1 #
edge $-1 $161 -11.256012960118065 $230 11.256012960118065 $145 $231 forward 7 unknown #
coedge $-1 $86 $85 $228 $232 forward $33 $-1 #
edge $-1 $152 -50.682699056978059 $230 50.682699056978059 $144 $233 forward 7 unknown #
coedge $-1 $157 $156 $86 $150 reversed $141 $-1 #
edge $-1 $234 -50.682699056978059 $151 50.682699056978059 $149 $235 forward 7 unknown #
vertex $-1 $88 $236 #
vertex $-1 $163 $237 #
straight-curve $-1 50.682699056978059 0 -11.256012960118065 0 -1 0 I I #
coedge $-1 $143 $145 $89 $155 reversed $82 $-1 #
edge $-1 $158 -22.883701878974811 $161 22.883701878974811 $154 $238 forward 7 unknown #
coedge $-1 $149 $90 $95 $164 forward $141 $-1 #
coedge $-1 $90 $149 $143 $229 reversed $141 $-1 #
vertex $-1 $91 $239 #
straight-curve $-1 0 22.883701878974811 11.256012960118065 -1 0 0 I I #
coedge $-1 $92 $144 $94 $163 reversed $50 $-1 #
vertex $-1 $155 $240 #
straight-curve $-1 0 -22.883701878974811 11.256012960118065 1 0 0 I I #
edge $-1 $97 -11.256012960118065 $152 11.256012960118065 $94 $241 forward 7 unknown #
edge $-1 $98 -11.256012960118065 $151 11.256012960118065 $95 $242 forward 7 unknown #
point $-1 50.682699056978059 -22.883701878974811 11.256012960118065 #
point $-1 50.682699056978059 22.883701878974811 11.256012960118065 #
face $-1 $243 $183 $13 $-1 $244 reversed single #
loop $-1 $-1 $180 $100 #
coedge $-1 $245 $246 $172 $247 forward $101 $-1 #
coedge $-1 $175 $109 $103 $171 forward $183 $-1 #
edge $-1 $114 -0.67558536198793284 $178 5.4513104769376266 $170 $248 forward 7 unknown #
coedge $-1 $105 $104 $169 $247 reversed $37 $-1 #
coedge $-1 $187 $249 $104 $174 forward $188 $-1 #
edge $-1 $250 -28.408545215565411 $177 -16.139762467259885 $173 $251 forward 7 unknown #
coedge $-1 $252 $170 $105 $176 forward $183 $-1 #
edge $-1 $178 16.139762467259885 $253 28.408545215565411 $175 $254 forward 7 unknown #
vertex $-1 $174 $255 #
vertex $-1 $176 $256 #
straight-curve $-1 -38.413916308672533 0 -7.8391730344124735 0 -1 0 I I #
coedge $-1 $257 $258 $108 $181 forward $168 $-1 #
edge $-1 $189 -22.883701878974811 $184 22.883701878974811 $180 $259 forward 7 unknown #
coedge $-1 $109 $260 $257 $261 forward $183 $-1 #
loop $-1 $-1 $109 $167 #
vertex $-1 $110 $262 #
straight-curve $-1 -22.274153841412648 -22.883701878974811 -1.712277195486914 1 0 0 I I #
coedge $-1 $263 $111 $258 $264 reversed $188 $-1 #
coedge $-1 $111 $173 $113 $191 forward $188 $-1 #
loop $-1 $-1 $111 $265 #
vertex $-1 $181 $266 #
straight-curve $-1 -22.274153841412648 22.883701878974811 -1.712277195486914 -1 0 0 I I #
edge $-1 $177 -5.4513104769376266 $115 0.67558536198793284 $187 $267 forward 7 unknown #
point $-1 -38.413916308672533 -22.883701878974811 -1.712277195486914 #
point $-1 -38.413916308672533 22.883701878974811 -1.712277195486914 #
face $-1 $268 $269 $14 $-1 $270 forward single #
loop $-1 $-1 $271 $117 #
plane-surface $-1 -44.548307682825296 0 -1.712277195486914 0 0 1 1 0 0 forward_v I I I I #
coedge $-1 $123 $272 $120 $200 forward $118 $-1 #
coedge $-1 $199 $120 $273 $274 reversed $66 $-1 #
coedge $-1 $120 $198 $121 $202 forward $66 $-1 #
edge $-1 $275 -31.588337787650932 $203 -24.875196326632906 $197 $276 forward 7 unknown #
coedge $-1 $122 $121 $207 $277 reversed $41 $-1 #
edge $-1 $278 -101.3653981139561 $203 -92.602014240586527 $199 $279 forward 7 unknown #
vertex $-1 $124 $280 #
straight-curve $-1 43.969557595960026 5.230386043941099 11.256012960118071 0 1 0 I I #
vertex $-1 $277 $281 #
straight-curve $-1 -26.967700220778063 14.025080353414737 70.779441077586398 0.76604443648966558 0 -0.64278761758704617 I I #
coedge $-1 $273 $126 $201 $277 forward $209 $-1 #
coedge $-1 $126 $282 $128 $212 reversed $209 $-1 #
loop $-1 $-1 $273 $283 #
straight-curve $-1 50.682699056978059 14.025080353414737 74.21492017767126 0 0 -1 I I #
coedge $-1 $284 $128 $285 $286 forward $118 $-1 #
edge $-1 $130 14.025080353414737 $287 22.883701878974811 $208 $288 forward 7 unknown #
point $-1 43.969557595960033 14.025080353414737 11.256012960118063 #
point $-1 50.682699056978059 14.025080353414737 11.256012960118065 #
face $-1 $289 $290 $15 $-1 $291 forward single #
loop $-1 $-1 $292 $132 #
plane-surface $-1 38.188722538654254 6.8964638223496593 148.42984035534252 0 1 0 0.64278761758704617 0 0.76604443648966558 forward_v I I I I #
loop $-1 $-1 $293 $73 #
coedge $-1 $220 $135 $294 $295 forward $74 $-1 #
coedge $-1 $135 $219 $296 $297 reversed $74 $-1 #
coedge $-1 $298 $299 $135 $222 forward $290 $-1 #
edge $-1 $300 24.875196326632906 $301 31.588337787650932 $221 $302 forward 7 unknown #
edge $-1 $303 1 $303 0 $136 $-1 forward 7 unknown #
vertex $-1 $137 $304 #
ellipse-curve $-1 45.152122401488143 10.460772087882198 5.8486363219848476 0.64278761758704617 0 0.76604443648966558 1.1490666547344983 0 -0.96418142638056925 1 I I #
point $-1 48.475194981203543 10.460772087882198 7.4753342127555031 #
plane-surface $-1 50.682699056978059 0 0 -1 0 0 0 0 1 forward_v I I I I #
coedge $-1 $145 $143 $147 $232 reversed $82 $-1 #
edge $-1 $158 -11.256012960118065 $234 11.256012960118065 $157 $305 forward 7 unknown #
vertex $-1 $232 $306 #
straight-curve $-1 -50.682699056978059 -22.883701878974811 0 0 0 -1 I I #
edge $-1 $230 -22.883701878974811 $234 22.883701878974811 $228 $307 forward 7 unknown #
straight-curve $-1 0 -22.883701878974811 -11.256012960118065 -1 0 0 I I #
vertex $-1 $150 $308 #
straight-curve $-1 0 22.883701878974811 -11.256012960118065 1 0 0 I I #
point $-1 50.682699056978059 22.883701878974811 -11.256012960118065 #
point $-1 50.682699056978059 -22.883701878974811 -11.256012960118065 #
straight-curve $-1 -50.682699056978059 0 11.256012960118065 0 -1 0 I I #
point $-1 -50.682699056978059 22.883701878974811 11.256012960118065 #
point $-1 -50.682699056978059 -22.883701878974811 11.256012960118065 #
straight-curve $-1 50.682699056978059 -22.883701878974811 0 0 0 -1 I I #
straight-curve $-1 50.682699056978059 22.883701878974811 0 0 0 -1 I I #
face $-1 $309 $310 $13 $-1 $311 forward single #
plane-surface $-1 0 -22.883701878974811 0 0 1 0 0 0 1 forward_v I I I I #
coedge $-1 $312 $169 $249 $313 forward $101 $-1 #
coedge $-1 $169 $312 $252 $314 reversed $101 $-1 #
edge $-1 $253 -22.883701878974811 $250 22.883701878974811 $169 $315 forward 7 unknown #
straight-curve $-1 -38.413916308672533 -22.883701878974811 -2.3878625574748469 0 0 -1 I I #
coedge $-1 $173 $316 $245 $313 reversed $188 $-1 #
vertex $-1 $313 $317 #
straight-curve $-1 -22.274153841412648 22.883701878974811 -7.8391730344124735 1 0 0 I I #
coedge $-1 $318 $175 $246 $314 forward $183 $-1 #
vertex $-1 $314 $319 #
straight-curve $-1 -22.274153841412648 -22.883701878974811 -7.8391730344124735 -1 0 0 I I #
point $-1 -38.413916308672533 22.883701878974811 -7.8391730344124735 #
point $-1 -38.413916308672533 -22.883701878974811 -7.8391730344124735 #
coedge $-1 $320 $180 $182 $261 reversed $168 $-1 #
coedge $-1 $180 $320 $186 $264 forward $168 $-1 #
straight-curve $-1 -50.682699056978059 0 -1.712277195486914 0 -1 0 I I #
coedge $-1 $182 $321 $322 $323 reversed $183 $-1 #
edge $-1 $324 -11.256012960118065 $184 1.712277195486914 $257 $325 forward 7 unknown #
point $-1 -50.682699056978059 -22.883701878974811 -1.712277195486914 #
coedge $-1 $326 $186 $327 $328 reversed $188 $-1 #
edge $-1 $329 -11.256012960118065 $189 1.712277195486914 $186 $330 forward 7 unknown #
face $-1 $331 $188 $13 $-1 $332 reversed single #
point $-1 -50.682699056978059 22.883701878974811 -1.712277195486914 #
straight-curve $-1 -38.413916308672533 22.883701878974811 -2.3878625574748469 0 0 1 I I #
face $-1 $333 $334 $14 $-1 $335 forward single #
loop $-1 $-1 $336 $194 #
plane-surface $-1 -44.548307682825296 0 -7.8391730344124735 0 0 1 1 0 0 forward_v I I I I #
coedge $-1 $337 $338 $339 $340 reversed $195 $-1 #
coedge $-1 $197 $341 $342 $343 forward $118 $-1 #
coedge $-1 $342 $207 $198 $274 forward $209 $-1 #
edge $-1 $278 -68.591901859517179 $275 -62.958907217553197 $273 $344 forward 7 unknown #
vertex $-1 $274 $345 #
straight-curve $-1 19.094361269327127 6.8964638223496593 11.256012960118071 -1 0 0 I I #
edge $-1 $205 -8.7946943094736376 $278 -1.6660777784085603 $207 $346 forward 7 unknown #
vertex $-1 $277 $347 #
straight-curve $-1 -26.967700220778063 6.8964638223496593 70.779441077586398 -0.76604443648966558 0 0.64278761758704617 I I #
point $-1 43.969557595960033 6.8964638223496593 11.256012960118063 #
point $-1 50.682699056978059 14.025080353414737 5.6230183181540809 #
coedge $-1 $208 $348 $349 $350 reversed $209 $-1 #
face $-1 $-1 $209 $14 $-1 $351 reversed single #
coedge $-1 $341 $211 $352 $353 forward $118 $-1 #
coedge $-1 $349 $354 $211 $286 reversed $355 $-1 #
edge $-1 $287 -50.682699056978059 $356 50.682699056978059 $285 $357 forward 7 unknown #
vertex $-1 $212 $358 #
straight-curve $-1 50.682699056978059 0 11.256012960118065 0 1 0 I I #
face $-1 $359 $360 $15 $-1 $361 reversed single #
loop $-1 $-1 $362 $215 #
plane-surface $-1 0 0 11.256012960118065 0 0 1 1 0 0 forward_v I I I I #
coedge $-1 $363 $364 $362 $365 reversed $216 $-1 #
coedge $-1 $366 $294 $299 $367 reversed $218 $-1 #
coedge $-1 $293 $368 $219 $295 reversed $218 $-1 #
edge $-1 $300 92.602014240586527 $369 101.3653981139561 $219 $370 forward 7 unknown #
coedge $-1 $371 $372 $220 $297 forward $373 $-1 #
edge $-1 $301 62.958907217553197 $369 68.591901859517179 $296 $374 forward 7 unknown #
coedge $-1 $375 $221 $372 $376 forward $290 $-1 #
coedge $-1 $221 $362 $293 $367 forward $290 $-1 #
vertex $-1 $367 $377 #
vertex $-1 $376 $378 #
straight-curve $-1 19.094361269327127 14.025080353414737 11.256012960118071 1 0 0 I I #
vertex $-1 $223 $379 #
point $-1 46.301189056222647 10.460772087882198 4.8844548956042777 #
straight-curve $-1 -50.682699056978059 22.883701878974811 0 0 0 -1 I I #
point $-1 -50.682699056978059 -22.883701878974811 -11.256012960118065 #
straight-curve $-1 -50.682699056978059 0 -11.256012960118065 0 1 0 I I #
point $-1 -50.682699056978059 22.883701878974811 -11.256012960118065 #
face $-1 $265 $380 $13 $-1 $381 reversed single #
loop $-1 $-1 $382 $243 #
plane-surface $-1 0 0 11.256012960118065 0 0 1 1 0 0 forward_v I I I I #
coedge $-1 $246 $245 $383 $384 reversed $101 $-1 #
edge $-1 $250 7.8391730344124735 $385 11.256012960118065 $249 $330 forward 7 unknown #
edge $-1 $253 7.8391730344124735 $386 11.256012960118065 $246 $325 forward 7 unknown #
straight-curve $-1 -50.682699056978059 0 -7.8391730344124735 0 1 0 I I #
coedge $-1 $249 $326 $387 $388 reversed $188 $-1 #
point $-1 -50.682699056978059 22.883701878974811 -7.8391730344124735 #
coedge $-1 $321 $252 $389 $390 reversed $183 $-1 #
point $-1 -50.682699056978059 -22.883701878974811 -7.8391730344124735 #
coedge $-1 $258 $257 $391 $392 reversed $168 $-1 #
coedge $-1 $260 $318 $393 $394 reversed $183 $-1 #
coedge $-1 $382 $391 $260 $323 forward $310 $-1 #
edge $-1 $324 -50.682699056978059 $395 50.682699056978059 $260 $396 forward 7 unknown #
vertex $-1 $392 $397 #
straight-curve $-1 -50.682699056978059 -22.883701878974811 0 0 0 -1 I I #
coedge $-1 $316 $263 $398 $399 forward $188 $-1 #
coedge $-1 $391 $382 $263 $328 forward $310 $-1 #
edge $-1 $400 -50.682699056978059 $329 50.682699056978059 $263 $401 forward 7 unknown #
vertex $-1 $328 $402 #
straight-curve $-1 -50.682699056978059 22.883701878974811 0 0 0 -1 I I #
face $-1 $-1 $403 $13 $-1 $404 reversed single #
plane-surface $-1 0 22.883701878974811 0 0 -1 0 0 0 -1 forward_v I I I I #
face $-1 $405 $406 $14 $-1 $407 reversed single #
loop $-1 $-1 $408 $268 #
plane-surface $-1 -38.413916308672533 0 -4.7757251149496938 -1 0 0 0 0 1 forward_v I I I I #
coedge $-1 $409 $410 $411 $412 reversed $269 $-1 #
coedge $-1 $413 $271 $414 $415 reversed $195 $-1 #
coedge $-1 $271 $413 $416 $417 reversed $195 $-1 #
coedge $-1 $418 $408 $271 $340 forward $334 $-1 #
edge $-1 $419 -22.883701878974811 $420 22.883701878974811 $339 $421 forward 7 unknown #
coedge $-1 $272 $284 $422 $423 forward $118 $-1 #
coedge $-1 $424 $273 $272 $343 reversed $209 $-1 #
edge $-1 $425 -22.883701878974811 $275 6.8964638223496593 $342 $288 forward 7 unknown #
straight-curve $-1 50.682699056978059 6.8964638223496593 74.21492017767126 0 0 1 I I #
point $-1 50.682699056978059 6.8964638223496593 11.256012960118065 #
straight-curve $-1 50.682699056978052 5.230386043941099 5.623018318154088 0 -1 0 I I #
point $-1 50.682699056978059 6.8964638223496593 5.6230183181540809 #
coedge $-1 $282 $424 $426 $427 reversed $209 $-1 #
coedge $-1 $428 $285 $282 $350 forward $355 $-1 #
edge $-1 $287 -11.256012960118065 $429 11.256012960118065 $282 $430 forward 7 unknown #
plane-surface $-1 50.682699056978059 0 0 -1 0 0 0 0 1 forward_v I I I I #
coedge $-1 $431 $432 $284 $353 reversed $433 $-1 #
edge $-1 $356 -22.883701878974811 $434 22.883701878974811 $352 $435 forward 7 unknown #
coedge $-1 $285 $416 $431 $436 reversed $355 $-1 #
loop $-1 $-1 $416 $437 #
vertex $-1 $286 $438 #
straight-curve $-1 0 22.883701878974811 11.256012960118065 -1 0 0 I I #
point $-1 50.682699056978059 22.883701878974811 11.256012960118065 #
face $-1 $439 $440 $15 $-1 $441 forward single #
loop $-1 $-1 $442 $289 #
plane-surface $-1 -44.548307682825296 0 -1.712277195486914 0 0 1 1 0 0 forward_v I I I I #
coedge $-1 $299 $443 $292 $365 forward $290 $-1 #
coedge $-1 $364 $292 $444 $445 reversed $216 $-1 #
coedge $-1 $292 $363 $366 $446 forward $216 $-1 #
edge $-1 $447 -31.588337787650932 $448 -24.875196326632906 $362 $449 forward 7 unknown #
coedge $-1 $368 $293 $364 $446 reversed $218 $-1 #
edge $-1 $448 1.6660777784085603 $300 8.7946943094736376 $299 $450 forward 7 unknown #
coedge $-1 $294 $366 $371 $451 reversed $218 $-1 #
vertex $-1 $451 $452 #
straight-curve $-1 -26.967700220778063 14.025080353414737 70.779441077586398 0.76604443648966558 0 -0.64278761758704617 I I #
coedge $-1 $444 $296 $368 $451 forward $373 $-1 #
coedge $-1 $296 $453 $298 $376 reversed $373 $-1 #
loop $-1 $-1 $444 $454 #
straight-curve $-1 50.682699056978059 14.025080353414737 74.21492017767126 0 0 -1 I I #
coedge $-1 $455 $298 $456 $457 forward $290 $-1 #
edge $-1 $301 14.025080353414737 $458 22.883701878974811 $372 $459 forward 7 unknown #
point $-1 43.969557595960033 14.025080353414737 11.256012960118063 #
point $-1 50.682699056978059 14.025080353414737 11.256012960118065 #
point $-1 44.18794097510758 10.460772087882198 4.6995696672503486 #
loop $-1 $-1 $460 $309 #
plane-surface $-1 0 0 -11.256012960118065 0 0 1 1 0 0 forward_v I I I I #
coedge $-1 $327 $322 $461 $462 forward $310 $-1 #
coedge $-1 $387 $389 $312 $384 forward $380 $-1 #
edge $-1 $386 -22.883701878974811 $385 22.883701878974811 $312 $463 forward 7 unknown #
vertex $-1 $388 $464 #
vertex $-1 $384 $465 #
coedge $-1 $460 $383 $316 $388 forward $380 $-1 #
edge $-1 $385 -50.682699056978059 $466 50.682699056978059 $316 $467 forward 7 unknown #
coedge $-1 $383 $460 $318 $390 forward $380 $-1 #
edge $-1 $468 -50.682699056978059 $386 50.682699056978059 $318 $469 forward 7 unknown #
coedge $-1 $322 $327 $320 $392 forward $310 $-1 #
edge $-1 $329 -22.883701878974811 $324 22.883701878974811 $320 $470 forward 7 unknown #
coedge $-1 $471 $461 $321 $394 forward $403 $-1 #
edge $-1 $395 -11.256012960118065 $468 11.256012960118065 $393 $472 forward 7 unknown #
vertex $-1 $462 $473 #
straight-curve $-1 0 -22.883701878974811 11.256012960118065 1 0 0 I I #
point $-1 -50.682699056978059 -22.883701878974811 11.256012960118065 #
coedge $-1 $461 $471 $326 $399 reversed $403 $-1 #
edge $-1 $400 -11.256012960118065 $466 11.256012960118065 $398 $474 forward 7 unknown #
vertex $-1 $462 $475 #
straight-curve $-1 0 22.883701878974811 11.256012960118065 -1 0 0 I I #
point $-1 -50.682699056978059 22.883701878974811 11.256012960118065 #
loop $-1 $-1 $393 $331 #
plane-surface $-1 50.682699056978059 0 0 -1 0 0 0 0 1 forward_v I I I I #
face $-1 $476 $433 $14 $-1 $407 reversed single #
loop $-1 $-1 $477 $333 #
plane-surface $-1 -50.682699056978059 0 0 1 0 0 0 0 -1 forward_v I I I I #
coedge $-1 $339 $411 $478 $479 reversed $334 $-1 #
coedge $-1 $480 $336 $481 $482 reversed $269 $-1 #
coedge $-1 $336 $480 $483 $484 reversed $269 $-1 #
coedge $-1 $408 $418 $336 $412 forward $334 $-1 #
edge $-1 $485 -22.883701878974811 $486 22.883701878974811 $411 $487 forward 7 unknown #
coedge $-1 $338 $337 $488 $489 reversed $195 $-1 #
coedge $-1 $478 $490 $337 $415 forward $491 $-1 #
edge $-1 $492 -28.408545215565411 $419 -16.139762467259885 $414 $493 forward 7 unknown #
coedge $-1 $354 $494 $338 $417 forward $355 $-1 #
edge $-1 $420 16.139762467259885 $495 28.408545215565411 $416 $496 forward 7 unknown #
coedge $-1 $411 $339 $494 $497 reversed $334 $-1 #
vertex $-1 $415 $498 #
vertex $-1 $417 $499 #
straight-curve $-1 -38.413916308672533 0 -1.712277195486914 0 1 0 I I #
coedge $-1 $490 $500 $341 $423 reversed $491 $-1 #
edge $-1 $434 -50.682699056978059 $425 50.682699056978059 $422 $501 forward 7 unknown #
coedge $-1 $348 $342 $500 $502 forward $209 $-1 #
vertex $-1 $343 $503 #
coedge $-1 $504 $505 $348 $427 forward $506 $-1 #
edge $-1 $429 -22.883701878974811 $507 22.883701878974811 $348 $508 forward 7 unknown #
coedge $-1 $509 $349 $505 $510 reversed $355 $-1 #
vertex $-1 $427 $511 #
straight-curve $-1 50.682699056978059 22.883701878974811 0 0 0 -1 I I #
coedge $-1 $488 $352 $354 $436 forward $433 $-1 #
coedge $-1 $352 $488 $490 $512 reversed $433 $-1 #
loop $-1 $-1 $488 $405 #
vertex $-1 $353 $513 #
straight-curve $-1 -50.682699056978059 0 11.256012960118065 0 -1 0 I I #
edge $-1 $356 -11.256012960118065 $495 1.712277195486914 $354 $514 forward 7 unknown #
face $-1 $283 $355 $14 $-1 $515 reversed single #
point $-1 -50.682699056978059 22.883701878974811 11.256012960118065 #
face $-1 $516 $517 $15 $-1 $518 forward single #
loop $-1 $-1 $519 $359 #
plane-surface $-1 -44.548307682825296 0 -7.8391730344124735 0 0 1 1 0 0 forward_v I I I I #
coedge $-1 $520 $521 $522 $523 reversed $360 $-1 #
coedge $-1 $362 $524 $525 $526 forward $290 $-1 #
coedge $-1 $525 $371 $363 $445 forward $373 $-1 #
edge $-1 $527 -68.591901859517179 $447 -62.958907217553197 $444 $528 forward 7 unknown #
edge $-1 $527 -101.3653981139561 $448 -92.602014240586527 $364 $529 forward 7 unknown #
vertex $-1 $445 $530 #
vertex $-1 $367 $531 #
straight-curve $-1 19.094361269327127 6.8964638223496593 11.256012960118071 -1 0 0 I I #
straight-curve $-1 43.969557595960026 5.230386043941099 11.256012960118071 0 1 0 I I #
edge $-1 $369 -8.7946943094736376 $527 -1.6660777784085603 $371 $532 forward 7 unknown #
point $-1 50.682699056978059 14.025080353414737 5.6230183181540809 #
coedge $-1 $372 $533 $534 $535 reversed $373 $-1 #
face $-1 $-1 $373 $15 $-1 $536 reversed single #
coedge $-1 $524 $375 $537 $538 forward $290 $-1 #
coedge $-1 $534 $539 $375 $457 reversed $540 $-1 #
edge $-1 $458 -50.682699056978059 $541 50.682699056978059 $456 $542 forward 7 unknown #
vertex $-1 $376 $543 #
straight-curve $-1 50.682699056978059 0 11.256012960118065 0 1 0 I I #
coedge $-1 $389 $387 $471 $544 forward $380 $-1 #
coedge $-1 $393 $398 $382 $462 reversed $403 $-1 #
edge $-1 $395 -22.883701878974811 $400 22.883701878974811 $461 $545 forward 7 unknown #
straight-curve $-1 -50.682699056978059 0 -11.256012960118065 0 1 0 I I #
point $-1 -50.682699056978059 22.883701878974811 -11.256012960118065 #
point $-1 -50.682699056978059 -22.883701878974811 -11.256012960118065 #
vertex $-1 $544 $546 #
straight-curve $-1 0 22.883701878974811 -11.256012960118065 1 0 0 I I #
vertex $-1 $394 $547 #
straight-curve $-1 0 -22.883701878974811 -11.256012960118065 -1 0 0 I I #
straight-curve $-1 -50.682699056978059 0 11.256012960118065 0 -1 0 I I #
coedge $-1 $398 $393 $460 $544 reversed $403 $-1 #
straight-curve $-1 50.682699056978059 -22.883701878974811 0 0 0 -1 I I #
point $-1 50.682699056978059 -22.883701878974811 11.256012960118065 #
straight-curve $-1 50.682699056978059 22.883701878974811 0 0 0 -1 I I #
point $-1 50.682699056978059 22.883701878974811 11.256012960118065 #
face $-1 $548 $491 $14 $-1 $549 reversed single #
coedge $-1 $550 $551 $480 $552 forward $406 $-1 #
coedge $-1 $483 $414 $408 $479 forward $491 $-1 #
edge $-1 $419 -0.67558536198793284 $486 5.4513104769376266 $478 $553 forward 7 unknown #
coedge $-1 $410 $409 $477 $552 reversed $269 $-1 #
coedge $-1 $494 $509 $409 $482 forward $355 $-1 #
edge $-1 $554 -28.408545215565411 $485 -16.139762467259885 $481 $555 forward 7 unknown #
coedge $-1 $556 $478 $410 $484 forward $491 $-1 #
edge $-1 $486 16.139762467259885 $557 28.408545215565411 $483 $558 forward 7 unknown #
vertex $-1 $482 $559 #
vertex $-1 $484 $560 #
straight-curve $-1 -38.413916308672533 0 -7.8391730344124735 0 -1 0 I I #
coedge $-1 $432 $431 $413 $489 forward $433 $-1 #
edge $-1 $495 -22.883701878974811 $492 22.883701878974811 $488 $561 forward 7 unknown #
coedge $-1 $414 $422 $432 $512 forward $491 $-1 #
loop $-1 $-1 $414 $476 #
vertex $-1 $415 $562 #
straight-curve $-1 -22.274153841412648 -22.883701878974811 -1.712277195486914 1 0 0 I I #
coedge $-1 $416 $481 $418 $497 forward $355 $-1 #
vertex $-1 $489 $563 #
straight-curve $-1 -22.274153841412648 22.883701878974811 -1.712277195486914 -1 0 0 I I #
edge $-1 $485 -5.4513104769376266 $420 0.67558536198793284 $494 $564 forward 7 unknown #
point $-1 -38.413916308672533 -22.883701878974811 -1.712277195486914 #
point $-1 -38.413916308672533 22.883701878974811 -1.712277195486914 #
coedge $-1 $422 $565 $424 $502 reversed $491 $-1 #
straight-curve $-1 0 -22.883701878974811 11.256012960118065 1 0 0 I I #
edge $-1 $425 -11.256012960118065 $507 11.256012960118065 $424 $566 forward 7 unknown #
point $-1 50.682699056978059 -22.883701878974811 11.256012960118065 #
coedge $-1 $567 $426 $565 $568 forward $506 $-1 #
coedge $-1 $426 $567 $428 $510 forward $506 $-1 #
loop $-1 $-1 $426 $548 #
vertex $-1 $502 $569 #
straight-curve $-1 50.682699056978059 0 -11.256012960118065 0 -1 0 I I #
coedge $-1 $481 $428 $550 $570 reversed $355 $-1 #
edge $-1 $571 -50.682699056978059 $429 50.682699056978059 $428 $572 forward 7 unknown #
point $-1 50.682699056978059 22.883701878974811 -11.256012960118065 #
edge $-1 $434 -11.256012960118065 $492 1.712277195486914 $432 $573 forward 7 unknown #
point $-1 -50.682699056978059 -22.883701878974811 11.256012960118065 #
straight-curve $-1 -50.682699056978059 22.883701878974811 0 0 0 -1 I I #
plane-surface $-1 0 22.883701878974811 0 0 -1 0 0 0 -1 forward_v I I I I #
face $-1 $574 $575 $15 $-1 $576 reversed single #
loop $-1 $-1 $577 $439 #
plane-surface $-1 -38.413916308672533 0 -4.7757251149496938 -1 0 0 0 0 1 forward_v I I I I #
coedge $-1 $578 $579 $580 $581 reversed $440 $-1 #
coedge $-1 $582 $442 $583 $584 reversed $360 $-1 #
coedge $-1 $442 $582 $585 $586 reversed $360 $-1 #
coedge $-1 $587 $577 $442 $523 forward $517 $-1 #
edge $-1 $588 -22.883701878974811 $589 22.883701878974811 $522 $590 forward 7 unknown #
coedge $-1 $443 $455 $591 $592 forward $290 $-1 #
coedge $-1 $593 $444 $443 $526 reversed $373 $-1 #
edge $-1 $594 -22.883701878974811 $447 6.8964638223496593 $525 $459 forward 7 unknown #
vertex $-1 $451 $595 #
straight-curve $-1 50.682699056978059 6.8964638223496593 74.21492017767126 0 0 1 I I #
straight-curve $-1 -26.967700220778063 6.8964638223496593 70.779441077586398 -0.76604443648966558 0 0.64278761758704617 I I #
point $-1 50.682699056978059 6.8964638223496593 11.256012960118065 #
point $-1 43.969557595960033 6.8964638223496593 11.256012960118063 #
straight-curve $-1 50.682699056978052 5.230386043941099 5.623018318154088 0 -1 0 I I #
coedge $-1 $453 $593 $596 $597 reversed $373 $-1 #
coedge $-1 $598 $456 $453 $535 forward $540 $-1 #
edge $-1 $458 -11.256012960118065 $599 11.256012960118065 $453 $600 forward 7 unknown #
plane-surface $-1 50.682699056978059 0 0 -1 0 0 0 0 1 forward_v I I I I #
coedge $-1 $601 $602 $455 $538 reversed $603 $-1 #
edge $-1 $541 -22.883701878974811 $604 22.883701878974811 $537 $605 forward 7 unknown #
coedge $-1 $456 $585 $601 $606 reversed $540 $-1 #
loop $-1 $-1 $585 $607 #
vertex $-1 $457 $608 #
straight-curve $-1 0 22.883701878974811 11.256012960118065 -1 0 0 I I #
point $-1 50.682699056978059 22.883701878974811 11.256012960118065 #
edge $-1 $466 -22.883701878974811 $468 22.883701878974811 $471 $609 forward 7 unknown #
straight-curve $-1 50.682699056978059 0 11.256012960118065 0 1 0 I I #
point $-1 50.682699056978059 22.883701878974811 -11.256012960118065 #
point $-1 50.682699056978059 -22.883701878974811 -11.256012960118065 #
face $-1 $437 $506 $14 $-1 $610 reversed single #
plane-surface $-1 0 -22.883701878974811 0 0 1 0 0 0 1 forward_v I I I I #
coedge $-1 $611 $477 $509 $570 forward $406 $-1 #
coedge $-1 $477 $611 $556 $612 reversed $406 $-1 #
edge $-1 $557 -22.883701878974811 $554 22.883701878974811 $477 $613 forward 7 unknown #
straight-curve $-1 -38.413916308672533 -22.883701878974811 -2.3878625574748469 0 0 -1 I I #
vertex $-1 $570 $614 #
straight-curve $-1 -22.274153841412648 22.883701878974811 -7.8391730344124735 1 0 0 I I #
coedge $-1 $565 $483 $551 $612 forward $491 $-1 #
vertex $-1 $612 $615 #
straight-curve $-1 -22.274153841412648 -22.883701878974811 -7.8391730344124735 -1 0 0 I I #
point $-1 -38.413916308672533 22.883701878974811 -7.8391730344124735 #
point $-1 -38.413916308672533 -22.883701878974811 -7.8391730344124735 #
straight-curve $-1 -50.682699056978059 0 -1.712277195486914 0 -1 0 I I #
point $-1 -50.682699056978059 -22.883701878974811 -1.712277195486914 #
point $-1 -50.682699056978059 22.883701878974811 -1.712277195486914 #
straight-curve $-1 -38.413916308672533 22.883701878974811 -2.3878625574748469 0 0 1 I I #
coedge $-1 $500 $556 $504 $568 reversed $491 $-1 #
straight-curve $-1 50.682699056978059 -22.883701878974811 0 0 0 -1 I I #
coedge $-1 $505 $504 $611 $616 forward $506 $-1 #
edge $-1 $507 -50.682699056978059 $617 50.682699056978059 $565 $618 forward 7 unknown #
point $-1 50.682699056978059 -22.883701878974811 -11.256012960118065 #
edge $-1 $554 7.8391730344124735 $571 11.256012960118065 $509 $514 forward 7 unknown #
vertex $-1 $510 $619 #
straight-curve $-1 0 22.883701878974811 -11.256012960118065 1 0 0 I I #
straight-curve $-1 -50.682699056978059 -22.883701878974811 0 0 0 -1 I I #
face $-1 $620 $603 $15 $-1 $576 reversed single #
loop $-1 $-1 $621 $516 #
plane-surface $-1 -50.682699056978059 0 0 1 0 0 0 0 -1 forward_v I I I I #
coedge $-1 $522 $580 $622 $623 reversed $517 $-1 #
coedge $-1 $624 $519 $625 $626 reversed $440 $-1 #
coedge $-1 $519 $624 $627 $628 reversed $440 $-1 #
coedge $-1 $577 $587 $519 $581 forward $517 $-1 #
edge $-1 $629 -22.883701878974811 $630 22.883701878974811 $580 $631 forward 7 unknown #
coedge $-1 $521 $520 $632 $633 reversed $360 $-1 #
coedge $-1 $622 $634 $520 $584 forward $635 $-1 #
edge $-1 $636 -28.408545215565411 $588 -16.139762467259885 $583 $637 forward 7 unknown #
coedge $-1 $539 $638 $521 $586 forward $540 $-1 #
edge $-1 $589 16.139762467259885 $639 28.408545215565411 $585 $640 forward 7 unknown #
coedge $-1 $580 $522 $638 $641 reversed $517 $-1 #
vertex $-1 $584 $642 #
vertex $-1 $586 $643 #
straight-curve $-1 -38.413916308672533 0 -1.712277195486914 0 1 0 I I #
coedge $-1 $634 $644 $524 $592 reversed $635 $-1 #
edge $-1 $604 -50.682699056978059 $594 50.682699056978059 $591 $645 forward 7 unknown #
coedge $-1 $533 $525 $644 $646 forward $373 $-1 #
vertex $-1 $526 $647 #
point $-1 50.682699056978059 6.8964638223496593 5.6230183181540809 #
coedge $-1 $648 $649 $533 $597 forward $650 $-1 #
edge $-1 $599 -22.883701878974811 $651 22.883701878974811 $533 $652 forward 7 unknown #
coedge $-1 $653 $534 $649 $654 reversed $540 $-1 #
vertex $-1 $597 $655 #
straight-curve $-1 50.682699056978059 22.883701878974811 0 0 0 -1 I I #
coedge $-1 $632 $537 $539 $606 forward $603 $-1 #
coedge $-1 $537 $632 $634 $656 reversed $603 $-1 #
loop $-1 $-1 $632 $574 #
vertex $-1 $538 $657 #
straight-curve $-1 -50.682699056978059 0 11.256012960118065 0 -1 0 I I #
edge $-1 $541 -11.256012960118065 $639 1.712277195486914 $539 $658 forward 7 unknown #
face $-1 $454 $540 $15 $-1 $659 reversed single #
point $-1 -50.682699056978059 22.883701878974811 11.256012960118065 #
straight-curve $-1 50.682699056978059 0 -11.256012960118065 0 -1 0 I I #
plane-surface $-1 0 0 -11.256012960118065 0 0 1 1 0 0 forward_v I I I I #
coedge $-1 $551 $550 $567 $616 reversed $406 $-1 #
edge $-1 $557 7.8391730344124735 $617 11.256012960118065 $551 $573 forward 7 unknown #
straight-curve $-1 -50.682699056978059 0 -7.8391730344124735 0 1 0 I I #
point $-1 -50.682699056978059 22.883701878974811 -7.8391730344124735 #
point $-1 -50.682699056978059 -22.883701878974811 -7.8391730344124735 #
edge $-1 $617 -22.883701878974811 $571 22.883701878974811 $611 $660 forward 7 unknown #
vertex $-1 $616 $661 #
straight-curve $-1 0 -22.883701878974811 -11.256012960118065 -1 0 0 I I #
point $-1 -50.682699056978059 22.883701878974811 -11.256012960118065 #
face $-1 $662 $635 $15 $-1 $663 reversed single #
coedge $-1 $664 $665 $624 $666 forward $575 $-1 #
coedge $-1 $627 $583 $577 $623 forward $635 $-1 #
edge $-1 $588 -0.67558536198793284 $630 5.4513104769376266 $622 $667 forward 7 unknown #
coedge $-1 $579 $578 $621 $666 reversed $440 $-1 #
coedge $-1 $638 $653 $578 $626 forward $540 $-1 #
edge $-1 $668 -28.408545215565411 $629 -16.139762467259885 $625 $669 forward 7 unknown #
coedge $-1 $670 $622 $579 $628 forward $635 $-1 #
edge $-1 $630 16.139762467259885 $671 28.408545215565411 $627 $672 forward 7 unknown #
vertex $-1 $626 $673 #
vertex $-1 $628 $674 #
straight-curve $-1 -38.413916308672533 0 -7.8391730344124735 0 -1 0 I I #
coedge $-1 $602 $601 $582 $633 forward $603 $-1 #
edge $-1 $639 -22.883701878974811 $636 22.883701878974811 $632 $675 forward 7 unknown #
coedge $-1 $583 $591 $602 $656 forward $635 $-1 #
loop $-1 $-1 $583 $620 #
vertex $-1 $584 $676 #
straight-curve $-1 -22.274153841412648 -22.883701878974811 -1.712277195486914 1 0 0 I I #
coedge $-1 $585 $625 $587 $641 forward $540 $-1 #
vertex $-1 $633 $677 #
straight-curve $-1 -22.274153841412648 22.883701878974811 -1.712277195486914 -1 0 0 I I #
edge $-1 $629 -5.4513104769376266 $589 0.67558536198793284 $638 $678 forward 7 unknown #
point $-1 -38.413916308672533 -22.883701878974811 -1.712277195486914 #
point $-1 -38.413916308672533 22.883701878974811 -1.712277195486914 #
coedge $-1 $591 $679 $593 $646 reversed $635 $-1 #
straight-curve $-1 0 -22.883701878974811 11.256012960118065 1 0 0 I I #
edge $-1 $594 -11.256012960118065 $651 11.256012960118065 $593 $680 forward 7 unknown #
point $-1 50.682699056978059 -22.883701878974811 11.256012960118065 #
coedge $-1 $681 $596 $679 $682 forward $650 $-1 #
coedge $-1 $596 $681 $598 $654 forward $650 $-1 #
loop $-1 $-1 $596 $662 #
vertex $-1 $646 $683 #
straight-curve $-1 50.682699056978059 0 -11.256012960118065 0 -1 0 I I #
coedge $-1 $625 $598 $664 $684 reversed $540 $-1 #
edge $-1 $685 -50.682699056978059 $599 50.682699056978059 $598 $686 forward 7 unknown #
point $-1 50.682699056978059 22.883701878974811 -11.256012960118065 #
edge $-1 $604 -11.256012960118065 $636 1.712277195486914 $602 $687 forward 7 unknown #
point $-1 -50.682699056978059 -22.883701878974811 11.256012960118065 #
straight-curve $-1 -50.682699056978059 22.883701878974811 0 0 0 -1 I I #
plane-surface $-1 0 22.883701878974811 0 0 -1 0 0 0 -1 forward_v I I I I #
straight-curve $-1 -50.682699056978059 0 -11.256012960118065 0 1 0 I I #
point $-1 -50.682699056978059 -22.883701878974811 -11.256012960118065 #
face $-1 $607 $650 $15 $-1 $688 reversed single #
plane-surface $-1 0 -22.883701878974811 0 0 1 0 0 0 1 forward_v I I I I #
coedge $-1 $689 $621 $653 $684 forward $575 $-1 #
coedge $-1 $621 $689 $670 $690 reversed $575 $-1 #
edge $-1 $671 -22.883701878974811 $668 22.883701878974811 $621 $691 forward 7 unknown #
straight-curve $-1 -38.413916308672533 -22.883701878974811 -2.3878625574748469 0 0 -1 I I #
vertex $-1 $684 $692 #
straight-curve $-1 -22.274153841412648 22.883701878974811 -7.8391730344124735 1 0 0 I I #
coedge $-1 $679 $627 $665 $690 forward $635 $-1 #
vertex $-1 $690 $693 #
straight-curve $-1 -22.274153841412648 -22.883701878974811 -7.8391730344124735 -1 0 0 I I #
point $-1 -38.413916308672533 22.883701878974811 -7.8391730344124735 #
point $-1 -38.413916308672533 -22.883701878974811 -7.8391730344124735 #
straight-curve $-1 -50.682699056978059 0 -1.712277195486914 0 -1 0 I I #
point $-1 -50.682699056978059 -22.883701878974811 -1.712277195486914 #
point $-1 -50.682699056978059 22.883701878974811 -1.712277195486914 #
straight-curve $-1 -38.413916308672533 22.883701878974811 -2.3878625574748469 0 0 1 I I #
coedge $-1 $644 $670 $648 $682 reversed $635 $-1 #
straight-curve $-1 50.682699056978059 -22.883701878974811 0 0 0 -1 I I #
coedge $-1 $649 $648 $689 $694 forward $650 $-1 #
edge $-1 $651 -50.682699056978059 $695 50.682699056978059 $679 $696 forward 7 unknown #
point $-1 50.682699056978059 -22.883701878974811 -11.256012960118065 #
edge $-1 $668 7.8391730344124735 $685 11.256012960118065 $653 $658 forward 7 unknown #
vertex $-1 $654 $697 #
straight-curve $-1 0 22.883701878974811 -11.256012960118065 1 0 0 I I #
straight-curve $-1 -50.682699056978059 -22.883701878974811 0 0 0 -1 I I #
plane-surface $-1 0 0 -11.256012960118065 0 0 1 1 0 0 forward_v I I I I #
coedge $-1 $665 $664 $681 $694 reversed $575 $-1 #
edge $-1 $671 7.8391730344124735 $695 11.256012960118065 $665 $687 forward 7 unknown #
straight-curve $-1 -50.682699056978059 0 -7.8391730344124735 0 1 0 I I #
point $-1 -50.682699056978059 22.883701878974811 -7.8391730344124735 #
point $-1 -50.682699056978059 -22.883701878974811 -7.8391730344124735 #
edge $-1 $695 -22.883701878974811 $685 22.883701878974811 $689 $698 forward 7 unknown #
vertex $-1 $694 $699 #
straight-curve $-1 0 -22.883701878974811 -11.256012960118065 -1 0 0 I I #
point $-1 -50.682699056978059 22.883701878974811 -11.256012960118065 #
straight-curve $-1 -50.682699056978059 0 -11.256012960118065 0 1 0 I I #
point $-1 -50.682699056978059 -22.883701878974811 -11.256012960118065 #
End-of-ACIS-data 