500 0 14 0           
7 Unknown 11 ACIS 5.0 NT 24 Fri Mar 26 16:50:49 1999 
-1 9.9999999999999995e-007 1e-010 
body $-1 $14 $-1 $15 #
body $-1 $16 $-1 $17 #
body $-1 $18 $-1 $19 #
body $-1 $20 $-1 $21 #
body $-1 $22 $-1 $23 #
body $-1 $24 $-1 $25 #
body $-1 $26 $-1 $27 #
body $-1 $28 $-1 $29 #
body $-1 $30 $-1 $31 #
body $-1 $32 $-1 $33 #
body $-1 $34 $-1 $35 #
body $-1 $36 $-1 $37 #
body $-1 $38 $-1 $39 #
body $-1 $40 $-1 $41 #
lump $-1 $-1 $42 $0 #
transform $-1 1 0 0 0 1 0 0 0 1 59.973754081850643 36.442378937549577 11.235890429162941 1 rotate no_reflect no_shear #
lump $-1 $-1 $43 $1 #
transform $-1 1 0 0 0 1 0 0 0 1 59.973754081850643 36.442378937549577 11.235890429162941 1 rotate no_reflect no_shear #
lump $-1 $-1 $44 $2 #
transform $-1 1 0 0 0 1 0 0 0 1 59.973754081850643 36.442378937549577 11.235890429162941 1 rotate no_reflect no_shear #
lump $-1 $-1 $45 $3 #
transform $-1 1 0 0 0 1 0 0 0 1 59.973754081850643 36.442378937549577 11.235890429162941 1 rotate no_reflect no_shear #
lump $-1 $-1 $46 $4 #
transform $-1 1 0 0 0 1 0 0 0 1 59.973754081850643 36.442378937549577 11.235890429162941 1 rotate no_reflect no_shear #
lump $-1 $-1 $47 $5 #
transform $-1 1 0 0 0 1 0 0 0 1 59.973754081850643 36.442378937549577 11.235890429162941 1 rotate no_reflect no_shear #
lump $-1 $-1 $48 $6 #
transform $-1 1 0 0 0 1 0 0 0 1 59.973754081850643 36.442378937549577 11.235890429162941 1 rotate no_reflect no_shear #
lump $-1 $-1 $49 $7 #
transform $-1 1 0 0 0 1 0 0 0 1 59.973754081850643 36.442378937549577 11.235890429162941 1 rotate no_reflect no_shear #
lump $-1 $-1 $50 $8 #
transform $-1 1 0 0 0 1 0 0 0 1 59.973754081850643 36.442378937549577 11.235890429162941 1 rotate no_reflect no_shear #
lump $-1 $-1 $51 $9 #
transform $-1 1 0 0 0 1 0 0 0 1 59.973754081850643 36.442378937549577 11.235890429162941 1 rotate no_reflect no_shear #
lump $-1 $-1 $52 $10 #
transform $-1 1 0 0 0 1 0 0 0 1 59.973754081850643 36.442378937549577 11.235890429162941 1 rotate no_reflect no_shear #
lump $-1 $-1 $53 $11 #
transform $-1 1 0 0 0 1 0 0 0 1 59.973754081850643 36.442378937549577 11.235890429162941 1 rotate no_reflect no_shear #
lump $-1 $-1 $54 $12 #
transform $-1 1 0 0 0 1 0 0 0 1 59.973754081850643 36.442378937549577 11.235890429162941 1 rotate no_reflect no_shear #
lump $-1 $-1 $55 $13 #
transform $-1 1 0 0 0 1 0 0 0 1 59.973754081850643 36.442378937549577 11.235890429162941 1 rotate no_reflect no_shear #
shell $-1 $-1 $-1 $56 $-1 $14 #
shell $-1 $-1 $-1 $57 $-1 $16 #
shell $-1 $-1 $-1 $58 $-1 $18 #
shell $-1 $-1 $-1 $59 $-1 $20 #
shell $-1 $-1 $-1 $60 $-1 $22 #
shell $-1 $-1 $-1 $61 $-1 $24 #
shell $-1 $-1 $-1 $62 $-1 $26 #
shell $-1 $-1 $-1 $63 $-1 $28 #
shell $-1 $-1 $-1 $64 $-1 $30 #
shell $-1 $-1 $-1 $65 $-1 $32 #
shell $-1 $-1 $-1 $66 $-1 $34 #
shell $-1 $-1 $-1 $67 $-1 $36 #
shell $-1 $-1 $-1 $68 $-1 $38 #
shell $-1 $-1 $-1 $69 $-1 $40 #
face $-1 $70 $71 $42 $-1 $72 forward single #
face $-1 $73 $74 $43 $-1 $75 forward single #
face $-1 $76 $77 $44 $-1 $78 forward single #
face $-1 $79 $80 $45 $-1 $81 reversed single #
face $-1 $82 $83 $46 $-1 $84 forward single #
face $-1 $85 $86 $47 $-1 $87 forward single #
face $-1 $88 $89 $48 $-1 $90 reversed single #
face $-1 $91 $92 $49 $-1 $93 forward single #
face $-1 $94 $95 $50 $-1 $96 forward single #
face $-1 $97 $98 $51 $-1 $99 forward single #
face $-1 $100 $101 $52 $-1 $102 reversed single #
face $-1 $103 $104 $53 $-1 $105 forward single #
face $-1 $106 $107 $54 $-1 $108 forward single #
face $-1 $109 $110 $55 $-1 $111 forward single #
face $-1 $112 $113 $42 $-1 $114 reversed single #
loop $-1 $-1 $115 $56 #
plane-surface $-1 0 0 11.235890429162941 0 0 1 1 0 0 forward_v I I I I #
face $-1 $116 $117 $43 $-1 $118 reversed single #
loop $-1 $-1 $119 $57 #
plane-surface $-1 0 -31.074282865196597 -7.7358904291629411 0 0 1 1 0 0 forward_v I I I I #
face $-1 $120 $121 $44 $-1 $122 reversed single #
loop $-1 $-1 $123 $58 #
plane-surface $-1 0 31.074282865196594 -7.7358904291629411 0 0 1 1 0 0 forward_v I I I I #
face $-1 $124 $125 $45 $-1 $126 reversed single #
loop $-1 $-1 $127 $59 #
plane-surface $-1 59.973756050007637 10.988239341112269 170.62069500397985 0 1 0 0.70710678939079041 0 0.70710677298230451 forward_v I I I I #
face $-1 $128 $129 $46 $-1 $130 forward single #
loop $-1 $131 $132 $60 #
cone-surface $-1 54.28376255290874 15.19336718446408 5.5458987944847404 -0.70710678939079041 0 -0.70710677298230451 1.0606601594734568 0 -1.0606601840861856 1 I I 0 1 1.5 forward I I I I #
face $-1 $133 $134 $47 $-1 $135 forward single #
loop $-1 $136 $137 $61 #
cone-surface $-1 54.28376255290874 21.501058949491799 5.5458987944847404 -0.70710678939079041 0 -0.70710677298230451 1.0606601594734568 0 -1.0606601840861856 1 I I 0 1 1.5 forward I I I I #
face $-1 $138 $139 $48 $-1 $140 reversed single #
loop $-1 $-1 $141 $62 #
plane-surface $-1 -143.29629562232105 -10.869497163318847 88.625570601309917 0 -1 0 0.69465837861970381 0 -0.71933979245794832 forward_v I I I I #
face $-1 $142 $143 $49 $-1 $144 forward single #
loop $-1 $145 $146 $63 #
cone-surface $-1 -54.842991989503446 -17.668600160857778 6.2444271407667991 0.69465837861970381 0 -0.71933979245794832 0.35966989622897416 0 0.3473291893098519 1 I I 0 1 0.5 forward I I I I #
face $-1 $147 $148 $50 $-1 $149 forward single #
loop $-1 $150 $151 $64 #
cone-surface $-1 -54.842991989503446 -15.11893653678068 6.2444271407667991 0.69465837861970381 0 -0.71933979245794832 0.35966989622897416 0 0.3473291893098519 1 I I 0 1 0.5 forward I I I I #
face $-1 $152 $153 $51 $-1 $154 forward single #
loop $-1 $155 $156 $65 #
cone-surface $-1 -54.842991989503446 -12.569272912703582 6.2444271407667991 0.69465837861970381 0 -0.71933979245794832 0.35966989622897416 0 0.3473291893098519 1 I I 0 1 0.5 forward I I I I #
face $-1 $157 $158 $52 $-1 $159 reversed single #
loop $-1 $-1 $160 $66 #
plane-surface $-1 -143.29629562232105 14.836689629524777 88.625570601309917 0 -1 0 0.69465837861970381 0 -0.71933979245794832 forward_v I I I I #
face $-1 $161 $162 $53 $-1 $163 forward single #
loop $-1 $164 $165 $67 #
cone-surface $-1 -54.842991989503446 8.037586631985846 6.2444271407667991 0.69465837861970381 0 -0.71933979245794832 0.35966989622897416 0 0.3473291893098519 1 I I 0 1 0.5 forward I I I I #
face $-1 $166 $167 $54 $-1 $168 forward single #
loop $-1 $169 $170 $68 #
cone-surface $-1 -54.842991989503446 10.587250256062944 6.2444271407667991 0.69465837861970381 0 -0.71933979245794832 0.35966989622897416 0 0.3473291893098519 1 I I 0 1 0.5 forward I I I I #
face $-1 $171 $172 $55 $-1 $173 forward single #
loop $-1 $174 $175 $69 #
cone-surface $-1 -54.842991989503446 13.136913880140042 6.2444271407667991 0.69465837861970381 0 -0.71933979245794832 0.35966989622897416 0 0.3473291893098519 1 I I 0 1 0.5 forward I I I I #
face $-1 $176 $177 $42 $-1 $178 reversed single #
loop $-1 $-1 $179 $70 #
plane-surface $-1 0 0 -11.235890429162941 0 0 1 1 0 0 forward_v I I I I #
coedge $-1 $180 $181 $182 $183 forward $71 $-1 #
face $-1 $184 $185 $43 $-1 $186 reversed single #
loop $-1 $-1 $187 $73 #
plane-surface $-1 0 -31.074282865196597 -10.735890429162941 0 0 1 1 0 0 forward_v I I I I #
coedge $-1 $188 $189 $190 $191 reversed $74 $-1 #
face $-1 $192 $193 $44 $-1 $194 reversed single #
loop $-1 $-1 $195 $76 #
plane-surface $-1 0 31.074282865196594 -10.735890429162941 0 0 1 1 0 0 forward_v I I I I #
coedge $-1 $196 $197 $198 $199 reversed $77 $-1 #
face $-1 $200 $201 $45 $-1 $202 reversed single #
loop $-1 $-1 $203 $79 #
plane-surface $-1 -24.841941343052795 18.347213066977943 85.804999579076409 0.70710678939079041 0 0.70710677298230451 0.70710677298230451 0 -0.70710678939079041 forward_v I I I I #
coedge $-1 $204 $205 $206 $207 reversed $80 $-1 #
face $-1 $-1 $208 $46 $-1 $209 forward single #
loop $-1 $210 $211 $82 #
cone-surface $-1 53.186734934610669 15.19336718446408 4.4488712016433087 -0.70710678939079041 0 -0.70710677298230451 0.53033007973672841 0 -0.53033009204309278 1 I I -0.70710678118654757 0.70710678118654757 0.75 forward I I I I #
loop $-1 $-1 $212 $60 #
coedge $-1 $132 $132 $213 $214 reversed $83 $-1 #
face $-1 $-1 $215 $47 $-1 $216 forward single #
loop $-1 $217 $218 $85 #
cone-surface $-1 53.186734934610669 21.501058949491799 4.4488712016433087 -0.70710678939079041 0 -0.70710677298230451 0.53033007973672841 0 -0.53033009204309278 1 I I -0.70710678118654757 0.70710678118654757 0.75 forward I I I I #
loop $-1 $-1 $219 $61 #
coedge $-1 $137 $137 $220 $221 reversed $86 $-1 #
face $-1 $222 $223 $48 $-1 $224 reversed single #
loop $-1 $-1 $225 $88 #
plane-surface $-1 -59.973754081850629 -15.11893653678068 2.3425549729849706 -0.69465837861970381 0 0.71933979245794832 0.71933979245794832 0 0.69465837861970381 forward_v I I I I #
coedge $-1 $226 $227 $228 $229 reversed $89 $-1 #
face $-1 $-1 $230 $49 $-1 $231 forward single #
loop $-1 $232 $233 $91 #
cone-surface $-1 -54.143224425750915 -17.668600160857778 5.5197966323451571 0.69465837861970381 0 -0.71933979245794832 0.17983494811448708 0 0.17366459465492595 1 I I -0.70710678118654746 0.70710678118654746 0.25 forward I I I I #
loop $-1 $-1 $234 $63 #
coedge $-1 $146 $146 $235 $236 reversed $92 $-1 #
face $-1 $-1 $237 $50 $-1 $238 forward single #
loop $-1 $239 $240 $94 #
cone-surface $-1 -54.143224425750915 -15.11893653678068 5.5197966323451571 0.69465837861970381 0 -0.71933979245794832 0.17983494811448708 0 0.17366459465492595 1 I I -0.70710678118654746 0.70710678118654746 0.25 forward I I I I #
loop $-1 $-1 $241 $64 #
coedge $-1 $151 $151 $242 $243 reversed $95 $-1 #
face $-1 $-1 $244 $51 $-1 $245 forward single #
loop $-1 $246 $247 $97 #
cone-surface $-1 -54.143224425750915 -12.569272912703582 5.5197966323451571 0.69465837861970381 0 -0.71933979245794832 0.17983494811448708 0 0.17366459465492595 1 I I -0.70710678118654746 0.70710678118654746 0.25 forward I I I I #
loop $-1 $-1 $248 $65 #
coedge $-1 $156 $156 $249 $250 reversed $98 $-1 #
face $-1 $251 $252 $52 $-1 $253 reversed single #
loop $-1 $-1 $254 $100 #
plane-surface $-1 -59.973754081850629 10.587250256062944 2.3425549729849706 -0.69465837861970381 0 0.71933979245794832 0.71933979245794832 0 0.69465837861970381 forward_v I I I I #
coedge $-1 $255 $256 $257 $258 reversed $101 $-1 #
face $-1 $-1 $259 $53 $-1 $260 forward single #
loop $-1 $261 $262 $103 #
cone-surface $-1 -54.143224425750915 8.037586631985846 5.5197966323451571 0.69465837861970381 0 -0.71933979245794832 0.17983494811448708 0 0.17366459465492595 1 I I -0.70710678118654746 0.70710678118654746 0.25 forward I I I I #
loop $-1 $-1 $263 $67 #
coedge $-1 $165 $165 $264 $265 reversed $104 $-1 #
face $-1 $-1 $266 $54 $-1 $267 forward single #
loop $-1 $268 $269 $106 #
cone-surface $-1 -54.143224425750915 10.587250256062944 5.5197966323451571 0.69465837861970381 0 -0.71933979245794832 0.17983494811448708 0 0.17366459465492595 1 I I -0.70710678118654746 0.70710678118654746 0.25 forward I I I I #
loop $-1 $-1 $270 $68 #
coedge $-1 $170 $170 $271 $272 reversed $107 $-1 #
face $-1 $-1 $273 $55 $-1 $274 forward single #
loop $-1 $275 $276 $109 #
cone-surface $-1 -54.143224425750915 13.136913880140042 5.5197966323451571 0.69465837861970381 0 -0.71933979245794832 0.17983494811448708 0 0.17366459465492595 1 I I -0.70710678118654746 0.70710678118654746 0.25 forward I I I I #
loop $-1 $-1 $277 $69 #
coedge $-1 $175 $175 $278 $279 reversed $110 $-1 #
face $-1 $280 $281 $42 $-1 $282 reversed single #
loop $-1 $-1 $283 $112 #
plane-surface $-1 0 -36.442378937549577 0 0 1 0 0 0 1 forward_v I I I I #
coedge $-1 $284 $285 $286 $287 forward $113 $-1 #
coedge $-1 $288 $115 $289 $290 forward $71 $-1 #
coedge $-1 $115 $288 $291 $292 forward $71 $-1 #
coedge $-1 $293 $294 $115 $183 reversed $295 $-1 #
edge $-1 $296 -36.442378937549577 $297 36.442378937549577 $182 $298 forward 7 unknown #
face $-1 $299 $300 $43 $-1 $301 reversed single #
loop $-1 $-1 $302 $116 #
plane-surface $-1 0 -25.706186792843617 -9.2358904291629411 0 -1 0 0 0 -1 forward_v I I I I #
coedge $-1 $303 $304 $305 $306 reversed $117 $-1 #
coedge $-1 $307 $119 $308 $309 forward $74 $-1 #
coedge $-1 $119 $307 $310 $311 reversed $74 $-1 #
coedge $-1 $312 $313 $119 $191 forward $314 $-1 #
edge $-1 $315 10.169045360245319 $316 20.90523750495128 $190 $317 forward 7 unknown #
face $-1 $318 $319 $44 $-1 $320 reversed single #
loop $-1 $-1 $321 $120 #
plane-surface $-1 0 25.706186792843614 -9.2358904291629411 0 1 0 0 0 1 forward_v I I I I #
coedge $-1 $322 $323 $324 $325 reversed $121 $-1 #
coedge $-1 $326 $123 $327 $328 reversed $77 $-1 #
coedge $-1 $123 $326 $329 $330 forward $77 $-1 #
coedge $-1 $331 $332 $123 $199 forward $319 $-1 #
edge $-1 $333 -20.90523750495128 $334 -10.169045360245317 $198 $335 forward 7 unknown #
face $-1 $336 $337 $45 $-1 $338 forward single #
loop $-1 $-1 $339 $124 #
plane-surface $-1 59.973756050007637 25.706186792843617 170.62069500397985 0 -1 0 -0.70710678939079041 0 -0.70710677298230451 forward_v I I I I #
coedge $-1 $340 $341 $342 $343 reversed $125 $-1 #
coedge $-1 $205 $127 $344 $345 reversed $80 $-1 #
coedge $-1 $127 $204 $340 $346 reversed $80 $-1 #
coedge $-1 $342 $347 $127 $207 forward $348 $-1 #
edge $-1 $349 74.074457072826988 $350 84.321045315973947 $206 $351 forward 7 unknown #
loop $-1 $-1 $213 $128 #
plane-surface $-1 -24.841941343052795 18.347213066977943 85.804999579076409 0.70710678939079041 0 0.70710677298230451 0.70710677298230451 0 -0.70710678939079041 forward_v I I I I #
loop $-1 $-1 $352 $82 #
coedge $-1 $211 $211 $212 $353 reversed $129 $-1 #
coedge $-1 $212 $212 $211 $353 forward $131 $-1 #
coedge $-1 $213 $213 $132 $214 forward $208 $-1 #
edge $-1 $354 0 $354 6.2831853071796004 $213 $355 forward 7 unknown #
loop $-1 $-1 $220 $133 #
plane-surface $-1 -24.841941343052795 18.347213066977943 85.804999579076409 0.70710678939079041 0 0.70710677298230451 0.70710677298230451 0 -0.70710678939079041 forward_v I I I I #
loop $-1 $-1 $356 $85 #
coedge $-1 $218 $218 $219 $357 reversed $134 $-1 #
coedge $-1 $219 $219 $218 $357 forward $136 $-1 #
coedge $-1 $220 $220 $137 $221 forward $215 $-1 #
edge $-1 $358 0 $358 6.2831853071796004 $220 $359 forward 7 unknown #
face $-1 $360 $361 $48 $-1 $362 reversed single #
loop $-1 $-1 $363 $138 #
plane-surface $-1 -143.29629562232105 -19.368375910242513 88.625570601309917 0 1 0 -0.69465837861970381 0 0.71933979245794832 forward_v I I I I #
coedge $-1 $364 $365 $366 $367 reversed $139 $-1 #
coedge $-1 $227 $141 $368 $369 reversed $89 $-1 #
coedge $-1 $141 $226 $364 $370 reversed $89 $-1 #
coedge $-1 $366 $371 $141 $229 forward $361 $-1 #
edge $-1 $372 33.076894871492016 $373 41.970230327670002 $228 $374 forward 7 unknown #
loop $-1 $-1 $235 $142 #
plane-surface $-1 -59.973754081850629 -15.11893653678068 2.3425549729849706 -0.69465837861970381 0 0.71933979245794832 0.71933979245794832 0 0.69465837861970381 forward_v I I I I #
loop $-1 $-1 $375 $91 #
coedge $-1 $233 $233 $234 $376 reversed $143 $-1 #
coedge $-1 $234 $234 $233 $376 forward $145 $-1 #
coedge $-1 $235 $235 $146 $236 forward $230 $-1 #
edge $-1 $377 0 $377 6.2831853071796004 $235 $378 forward 7 unknown #
loop $-1 $-1 $242 $147 #
plane-surface $-1 -59.973754081850629 -15.11893653678068 2.3425549729849706 -0.69465837861970381 0 0.71933979245794832 0.71933979245794832 0 0.69465837861970381 forward_v I I I I #
loop $-1 $-1 $379 $94 #
coedge $-1 $240 $240 $241 $380 reversed $148 $-1 #
coedge $-1 $241 $241 $240 $380 forward $150 $-1 #
coedge $-1 $242 $242 $151 $243 forward $237 $-1 #
edge $-1 $381 0 $381 6.2831853071796004 $242 $382 forward 7 unknown #
loop $-1 $-1 $249 $152 #
plane-surface $-1 -59.973754081850629 -15.11893653678068 2.3425549729849706 -0.69465837861970381 0 0.71933979245794832 0.71933979245794832 0 0.69465837861970381 forward_v I I I I #
loop $-1 $-1 $383 $97 #
coedge $-1 $247 $247 $248 $384 reversed $153 $-1 #
coedge $-1 $248 $248 $247 $384 forward $155 $-1 #
coedge $-1 $249 $249 $156 $250 forward $244 $-1 #
edge $-1 $385 0 $385 6.2831853071796004 $249 $386 forward 7 unknown #
face $-1 $387 $388 $52 $-1 $389 reversed single #
loop $-1 $-1 $390 $157 #
plane-surface $-1 -143.29629562232105 6.3378108826011115 88.625570601309917 0 1 0 -0.69465837861970381 0 0.71933979245794832 forward_v I I I I #
coedge $-1 $391 $392 $393 $394 reversed $158 $-1 #
coedge $-1 $256 $160 $395 $396 reversed $101 $-1 #
coedge $-1 $160 $255 $391 $397 reversed $101 $-1 #
coedge $-1 $393 $398 $160 $258 forward $388 $-1 #
edge $-1 $399 33.076894871492016 $400 41.970230327670002 $257 $401 forward 7 unknown #
loop $-1 $-1 $264 $161 #
plane-surface $-1 -59.973754081850629 10.587250256062944 2.3425549729849706 -0.69465837861970381 0 0.71933979245794832 0.71933979245794832 0 0.69465837861970381 forward_v I I I I #
loop $-1 $-1 $402 $103 #
coedge $-1 $262 $262 $263 $403 reversed $162 $-1 #
coedge $-1 $263 $263 $262 $403 forward $164 $-1 #
coedge $-1 $264 $264 $165 $265 forward $259 $-1 #
edge $-1 $404 0 $404 6.2831853071796004 $264 $405 forward 7 unknown #
loop $-1 $-1 $271 $166 #
plane-surface $-1 -59.973754081850629 10.587250256062944 2.3425549729849706 -0.69465837861970381 0 0.71933979245794832 0.71933979245794832 0 0.69465837861970381 forward_v I I I I #
loop $-1 $-1 $406 $106 #
coedge $-1 $269 $269 $270 $407 reversed $167 $-1 #
coedge $-1 $270 $270 $269 $407 forward $169 $-1 #
coedge $-1 $271 $271 $170 $272 forward $266 $-1 #
edge $-1 $408 0 $408 6.2831853071796004 $271 $409 forward 7 unknown #
loop $-1 $-1 $278 $171 #
plane-surface $-1 -59.973754081850629 10.587250256062944 2.3425549729849706 -0.69465837861970381 0 0.71933979245794832 0.71933979245794832 0 0.69465837861970381 forward_v I I I I #
loop $-1 $-1 $410 $109 #
coedge $-1 $276 $276 $277 $411 reversed $172 $-1 #
coedge $-1 $277 $277 $276 $411 forward $174 $-1 #
coedge $-1 $278 $278 $175 $279 forward $273 $-1 #
edge $-1 $412 0 $412 6.2831853071796004 $278 $413 forward 7 unknown #
face $-1 $414 $415 $42 $-1 $416 reversed single #
loop $-1 $-1 $417 $176 #
plane-surface $-1 -59.973754081850643 0 0 1 0 0 0 0 -1 forward_v I I I I #
coedge $-1 $418 $291 $419 $420 forward $177 $-1 #
coedge $-1 $421 $179 $418 $422 forward $113 $-1 #
coedge $-1 $179 $421 $423 $424 forward $113 $-1 #
coedge $-1 $294 $293 $179 $287 reversed $295 $-1 #
edge $-1 $425 -36.442378937549577 $426 36.442378937549577 $286 $427 forward 7 unknown #
coedge $-1 $181 $180 $428 $429 forward $71 $-1 #
coedge $-1 $430 $431 $180 $290 reversed $415 $-1 #
edge $-1 $297 -59.973754081850643 $432 59.973754081850643 $289 $433 forward 7 unknown #
coedge $-1 $283 $434 $181 $292 reversed $177 $-1 #
edge $-1 $435 -59.973754081850643 $296 59.973754081850643 $291 $436 forward 7 unknown #
coedge $-1 $286 $182 $434 $437 forward $295 $-1 #
coedge $-1 $182 $286 $430 $438 reversed $295 $-1 #
loop $-1 $-1 $293 $414 #
vertex $-1 $183 $439 #
vertex $-1 $183 $440 #
straight-curve $-1 59.973754081850643 0 11.235890429162941 0 1 0 I I #
face $-1 $441 $442 $43 $-1 $443 reversed single #
loop $-1 $-1 $444 $184 #
plane-surface $-1 -59.973754081850643 0 0 1 0 0 0 0 -1 forward_v I I I I #
coedge $-1 $445 $308 $313 $446 reversed $185 $-1 #
coedge $-1 $447 $187 $448 $449 reversed $117 $-1 #
coedge $-1 $187 $447 $445 $450 forward $117 $-1 #
coedge $-1 $313 $312 $187 $306 forward $314 $-1 #
edge $-1 $451 -20.90523750495128 $452 -10.169045360245319 $305 $453 forward 7 unknown #
coedge $-1 $189 $188 $444 $454 reversed $74 $-1 #
coedge $-1 $302 $455 $188 $309 reversed $185 $-1 #
edge $-1 $315 -59.973754081850643 $456 59.973754081850643 $308 $457 forward 7 unknown #
coedge $-1 $458 $459 $189 $311 forward $442 $-1 #
edge $-1 $316 -59.973754081850643 $460 59.973754081850643 $310 $461 forward 7 unknown #
coedge $-1 $305 $190 $459 $462 forward $314 $-1 #
coedge $-1 $190 $305 $302 $446 forward $314 $-1 #
loop $-1 $-1 $190 $441 #
vertex $-1 $191 $463 #
vertex $-1 $462 $464 #
straight-curve $-1 59.973754081850643 -15.537141432598299 -7.7358904291629411 0 -1 0 I I #
face $-1 $465 $466 $44 $-1 $467 reversed single #
loop $-1 $-1 $198 $192 #
plane-surface $-1 59.973754081850643 0 0 -1 0 0 0 0 1 forward_v I I I I #
coedge $-1 $468 $329 $469 $470 reversed $193 $-1 #
coedge $-1 $471 $195 $468 $472 forward $121 $-1 #
coedge $-1 $195 $471 $473 $474 reversed $121 $-1 #
coedge $-1 $332 $331 $195 $325 forward $319 $-1 #
edge $-1 $475 10.169045360245317 $476 20.90523750495128 $324 $477 forward 7 unknown #
coedge $-1 $197 $196 $478 $479 reversed $77 $-1 #
coedge $-1 $480 $481 $196 $328 forward $482 $-1 #
edge $-1 $483 -59.973754081850643 $333 59.973754081850643 $327 $484 forward 7 unknown #
coedge $-1 $321 $485 $197 $330 reversed $193 $-1 #
edge $-1 $486 -59.973754081850643 $334 59.973754081850643 $329 $487 forward 7 unknown #
coedge $-1 $324 $198 $485 $488 forward $319 $-1 #
coedge $-1 $198 $324 $480 $489 reversed $319 $-1 #
vertex $-1 $489 $490 #
vertex $-1 $199 $491 #
straight-curve $-1 59.973754081850643 15.537141432598297 -7.7358904291629411 0 -1 0 I I #
face $-1 $-1 $348 $45 $-1 $492 reversed single #
loop $-1 $-1 $493 $200 #
plane-surface $-1 0 0 11.235890429162941 0 0 1 1 0 0 forward_v I I I I #
coedge $-1 $494 $495 $496 $497 reversed $201 $-1 #
coedge $-1 $498 $203 $205 $346 forward $125 $-1 #
coedge $-1 $203 $498 $494 $499 forward $125 $-1 #
coedge $-1 $496 $206 $203 $343 forward $348 $-1 #
edge $-1 $350 1.8146328076232976 $500 16.532580259354646 $342 $501 forward 7 unknown #
coedge $-1 $502 $503 $204 $345 forward $337 $-1 #
edge $-1 $504 19.740288051473001 $349 29.986876056846825 $344 $505 forward 7 unknown #
edge $-1 $350 -119.9475081637013 $504 -105.45664427032116 $205 $506 forward 7 unknown #
coedge $-1 $206 $496 $502 $507 reversed $348 $-1 #
loop $-1 $-1 $496 $336 #
vertex $-1 $507 $508 #
vertex $-1 $207 $509 #
straight-curve $-1 59.973754081850643 10.988239341112269 85.310347501989924 0 0 -1 I I #
coedge $-1 $352 $352 $-1 $510 reversed $210 $-1 #
edge $-1 $511 0 $511 6.2831853071796004 $211 $512 forward 7 unknown #
vertex $-1 $214 $513 #
ellipse-curve $-1 54.850460079163732 15.19336718446408 6.1125963075894578 0.70710678939079041 0 0.70710677298230451 1.0606601594734568 0 -1.0606601840861856 1 I I #
coedge $-1 $356 $356 $-1 $514 reversed $217 $-1 #
edge $-1 $515 0 $515 6.2831853071796004 $218 $516 forward 7 unknown #
vertex $-1 $221 $517 #
ellipse-curve $-1 54.850460079163732 21.501058949491799 6.1125963075894578 0.70710678939079041 0 0.70710677298230451 1.0606601594734568 0 -1.0606601840861856 1 I I #
face $-1 $-1 $518 $48 $-1 $519 forward single #
loop $-1 $-1 $228 $222 #
plane-surface $-1 -59.973754081850643 0 0 1 0 0 0 0 -1 forward_v I I I I #
coedge $-1 $520 $521 $522 $523 reversed $223 $-1 #
coedge $-1 $524 $225 $227 $370 forward $139 $-1 #
coedge $-1 $225 $524 $520 $525 forward $139 $-1 #
coedge $-1 $522 $228 $225 $367 forward $361 $-1 #
edge $-1 $373 3.3100288949285073 $526 11.808907641852173 $366 $527 forward 7 unknown #
coedge $-1 $528 $529 $226 $369 forward $518 $-1 #
edge $-1 $530 -20.883711975809078 $372 -11.674393729309884 $368 $531 forward 7 unknown #
edge $-1 $373 -1.9785632286268914e-014 $530 12.80245906462563 $227 $532 forward 7 unknown #
coedge $-1 $228 $522 $528 $533 reversed $361 $-1 #
vertex $-1 $533 $534 #
vertex $-1 $229 $535 #
straight-curve $-1 -59.973754081850643 -10.869497163318847 44.312785300654959 0 0 -1 I I #
coedge $-1 $375 $375 $-1 $536 reversed $232 $-1 #
edge $-1 $537 0 $537 6.2831853071796004 $233 $538 forward 7 unknown #
vertex $-1 $236 $539 #
ellipse-curve $-1 -55.369094958601046 -17.668600160857778 6.7892227010739497 -0.69465837861970381 0 0.71933979245794832 0.35966989622897416 0 0.3473291893098519 1 I I #
coedge $-1 $379 $379 $-1 $540 reversed $239 $-1 #
edge $-1 $541 0 $541 6.2831853071796004 $240 $542 forward 7 unknown #
vertex $-1 $243 $543 #
ellipse-curve $-1 -55.369094958601046 -15.11893653678068 6.7892227010739497 -0.69465837861970381 0 0.71933979245794832 0.35966989622897416 0 0.3473291893098519 1 I I #
coedge $-1 $383 $383 $-1 $544 reversed $246 $-1 #
edge $-1 $545 0 $545 6.2831853071796004 $247 $546 forward 7 unknown #
vertex $-1 $250 $547 #
ellipse-curve $-1 -55.369094958601046 -12.569272912703582 6.7892227010739497 -0.69465837861970381 0 0.71933979245794832 0.35966989622897416 0 0.3473291893098519 1 I I #
face $-1 $-1 $548 $52 $-1 $549 forward single #
loop $-1 $-1 $257 $251 #
plane-surface $-1 -59.973754081850643 0 0 1 0 0 0 0 -1 forward_v I I I I #
coedge $-1 $550 $551 $552 $553 reversed $252 $-1 #
coedge $-1 $554 $254 $256 $397 forward $158 $-1 #
coedge $-1 $254 $554 $550 $555 forward $158 $-1 #
coedge $-1 $552 $257 $254 $394 forward $388 $-1 #
edge $-1 $400 -9.5430645014933049 $556 -1.0441857545696394 $393 $557 forward 7 unknown #
coedge $-1 $558 $559 $255 $396 forward $548 $-1 #
edge $-1 $560 -20.883711975809078 $399 -11.674393729309884 $395 $561 forward 7 unknown #
edge $-1 $400 -1.9785632286268914e-014 $560 12.80245906462563 $256 $562 forward 7 unknown #
coedge $-1 $257 $552 $558 $563 reversed $388 $-1 #
vertex $-1 $563 $564 #
vertex $-1 $258 $565 #
straight-curve $-1 -59.973754081850643 14.836689629524777 44.312785300654959 0 0 -1 I I #
coedge $-1 $402 $402 $-1 $566 reversed $261 $-1 #
edge $-1 $567 0 $567 6.2831853071796004 $262 $568 forward 7 unknown #
vertex $-1 $265 $569 #
ellipse-curve $-1 -55.369094958601046 8.037586631985846 6.7892227010739497 -0.69465837861970381 0 0.71933979245794832 0.35966989622897416 0 0.3473291893098519 1 I I #
coedge $-1 $406 $406 $-1 $570 reversed $268 $-1 #
edge $-1 $571 0 $571 6.2831853071796004 $269 $572 forward 7 unknown #
vertex $-1 $272 $573 #
ellipse-curve $-1 -55.369094958601046 10.587250256062944 6.7892227010739497 -0.69465837861970381 0 0.71933979245794832 0.35966989622897416 0 0.3473291893098519 1 I I #
coedge $-1 $410 $410 $-1 $574 reversed $275 $-1 #
edge $-1 $575 0 $575 6.2831853071796004 $276 $576 forward 7 unknown #
vertex $-1 $279 $577 #
ellipse-curve $-1 -55.369094958601046 13.136913880140042 6.7892227010739497 -0.69465837861970381 0 0.71933979245794832 0.35966989622897416 0 0.3473291893098519 1 I I #
face $-1 $-1 $295 $42 $-1 $578 reversed single #
loop $-1 $-1 $430 $280 #
plane-surface $-1 0 36.442378937549577 0 0 -1 0 0 0 -1 forward_v I I I I #
coedge $-1 $579 $428 $431 $580 forward $281 $-1 #
coedge $-1 $434 $283 $284 $422 reversed $177 $-1 #
coedge $-1 $428 $579 $283 $420 reversed $281 $-1 #
edge $-1 $435 -11.235890429162941 $581 11.235890429162941 $419 $582 forward 7 unknown #
coedge $-1 $285 $284 $579 $583 forward $113 $-1 #
edge $-1 $426 -59.973754081850643 $581 59.973754081850643 $418 $584 forward 7 unknown #
coedge $-1 $431 $430 $285 $424 reversed $415 $-1 #
edge $-1 $585 -59.973754081850643 $425 59.973754081850643 $423 $586 forward 7 unknown #
vertex $-1 $287 $587 #
vertex $-1 $437 $588 #
straight-curve $-1 59.973754081850643 0 -11.235890429162941 0 -1 0 I I #
coedge $-1 $417 $419 $288 $429 reversed $281 $-1 #
edge $-1 $432 -36.442378937549577 $435 36.442378937549577 $428 $589 forward 7 unknown #
coedge $-1 $423 $289 $294 $438 forward $415 $-1 #
coedge $-1 $289 $423 $417 $580 reversed $415 $-1 #
vertex $-1 $290 $590 #
straight-curve $-1 0 36.442378937549577 11.235890429162941 -1 0 0 I I #
coedge $-1 $291 $418 $293 $437 reversed $177 $-1 #
vertex $-1 $429 $591 #
straight-curve $-1 0 -36.442378937549577 11.235890429162941 1 0 0 I I #
edge $-1 $296 -11.235890429162941 $426 11.235890429162941 $293 $592 forward 7 unknown #
edge $-1 $297 -11.235890429162941 $425 11.235890429162941 $294 $593 forward 7 unknown #
point $-1 59.973754081850643 -36.442378937549577 11.235890429162941 #
point $-1 59.973754081850643 36.442378937549577 11.235890429162941 #
face $-1 $-1 $314 $43 $-1 $594 reversed single #
loop $-1 $-1 $310 $299 #
plane-surface $-1 0 -36.442378937549577 0 0 1 0 0 0 1 forward_v I I I I #
coedge $-1 $595 $596 $307 $454 forward $300 $-1 #
coedge $-1 $455 $302 $304 $450 reversed $185 $-1 #
edge $-1 $452 -6.1179452145814706 $315 -3.1179452145814706 $313 $597 forward 7 unknown #
coedge $-1 $304 $303 $598 $599 reversed $117 $-1 #
coedge $-1 $459 $458 $303 $449 forward $442 $-1 #
edge $-1 $600 -59.973754081850643 $451 59.973754081850643 $448 $601 forward 7 unknown #
edge $-1 $602 -59.973754081850643 $452 59.973754081850643 $445 $603 forward 7 unknown #
vertex $-1 $449 $604 #
vertex $-1 $306 $605 #
straight-curve $-1 59.973754081850643 -15.537141432598299 -10.735890429162941 0 1 0 I I #
edge $-1 $460 -20.90523750495128 $456 -10.169045360245319 $444 $606 forward 7 unknown #
coedge $-1 $308 $445 $595 $607 reversed $185 $-1 #
vertex $-1 $454 $608 #
straight-curve $-1 0 -25.706186792843617 -7.7358904291629411 -1 0 0 I I #
coedge $-1 $448 $310 $596 $609 forward $442 $-1 #
coedge $-1 $310 $448 $312 $462 reversed $442 $-1 #
vertex $-1 $609 $610 #
straight-curve $-1 0 -36.442378937549577 -7.7358904291629411 -1 0 0 I I #
edge $-1 $316 7.7358904291629411 $451 10.735890429162941 $312 $611 forward 7 unknown #
point $-1 59.973754081850643 -25.706186792843617 -7.7358904291629411 #
point $-1 59.973754081850643 -36.442378937549577 -7.7358904291629411 #
face $-1 $-1 $482 $44 $-1 $612 reversed single #
loop $-1 $-1 $478 $318 #
plane-surface $-1 -59.973754081850643 0 0 1 0 0 0 0 -1 forward_v I I I I #
coedge $-1 $485 $321 $322 $472 reversed $193 $-1 #
coedge $-1 $478 $613 $321 $470 forward $466 $-1 #
edge $-1 $614 -6.1179452145814706 $486 -3.1179452145814706 $469 $615 forward 7 unknown #
coedge $-1 $323 $322 $613 $616 reversed $121 $-1 #
edge $-1 $475 -59.973754081850643 $614 59.973754081850643 $468 $617 forward 7 unknown #
coedge $-1 $481 $480 $323 $474 forward $482 $-1 #
edge $-1 $476 -59.973754081850643 $618 59.973754081850643 $473 $619 forward 7 unknown #
vertex $-1 $325 $620 #
vertex $-1 $474 $621 #
straight-curve $-1 59.973754081850643 15.537141432598297 -10.735890429162941 0 1 0 I I #
coedge $-1 $622 $469 $326 $479 forward $466 $-1 #
edge $-1 $486 10.169045360245317 $483 20.90523750495128 $478 $623 forward 7 unknown #
coedge $-1 $473 $327 $332 $489 forward $482 $-1 #
coedge $-1 $327 $473 $622 $624 reversed $482 $-1 #
loop $-1 $-1 $327 $465 #
vertex $-1 $624 $625 #
straight-curve $-1 0 36.442378937549577 -7.7358904291629411 1 0 0 I I #
coedge $-1 $329 $468 $331 $488 reversed $193 $-1 #
vertex $-1 $479 $626 #
straight-curve $-1 0 25.706186792843614 -7.7358904291629411 1 0 0 I I #
edge $-1 $334 3.1179452145814706 $475 6.1179452145814706 $331 $627 forward 7 unknown #
edge $-1 $333 7.7358904291629411 $476 10.735890429162941 $332 $628 forward 7 unknown #
point $-1 59.973754081850643 36.442378937549577 -7.7358904291629411 #
point $-1 59.973754081850643 25.706186792843614 -7.7358904291629411 #
plane-surface $-1 59.973754081850643 0 0 -1 0 0 0 0 1 forward_v I I I I #
coedge $-1 $503 $502 $495 $629 forward $337 $-1 #
coedge $-1 $495 $339 $341 $499 reversed $201 $-1 #
coedge $-1 $339 $494 $493 $629 reversed $201 $-1 #
coedge $-1 $347 $342 $339 $497 forward $348 $-1 #
edge $-1 $500 -84.321045315973947 $630 -74.074457072826988 $496 $631 forward 7 unknown #
coedge $-1 $341 $340 $503 $632 reversed $125 $-1 #
edge $-1 $633 105.45664427032116 $500 119.9475081637013 $494 $634 forward 7 unknown #
vertex $-1 $343 $635 #
straight-curve $-1 59.973754081850643 9.1736065334889716 0.9893021860159763 0 1 0 I I #
coedge $-1 $493 $344 $347 $507 forward $337 $-1 #
coedge $-1 $344 $493 $498 $632 forward $337 $-1 #
vertex $-1 $345 $636 #
straight-curve $-1 29.986878025003818 10.988239341112269 11.235890429162936 1 0 0 I I #
straight-curve $-1 -24.841941343052795 10.988239341112269 85.804999579076409 -0.70710677298230451 0 0.70710678939079041 I I #
edge $-1 $349 10.988239341112269 $630 25.706186792843617 $347 $637 forward 7 unknown #
point $-1 59.973754081850643 10.988239341112269 11.235890429162941 #
point $-1 59.973754081850643 10.988239341112269 0.9893021860159763 #
edge $-1 $638 1 $638 0 $352 $-1 forward 7 unknown #
vertex $-1 $353 $639 #
ellipse-curve $-1 53.717065026653763 15.19336718446408 4.9792012813800373 0.70710678939079041 0 0.70710677298230451 1.0606601594734568 0 -1.0606601840861856 1 I I #
point $-1 55.911120238637174 15.19336718446408 5.0519361235032587 #
edge $-1 $640 1 $640 0 $356 $-1 forward 7 unknown #
vertex $-1 $357 $641 #
ellipse-curve $-1 53.717065026653763 21.501058949491799 4.9792012813800373 0.70710678939079041 0 0.70710677298230451 1.0606601594734568 0 -1.0606601840861856 1 I I #
point $-1 55.911120238637174 21.501058949491799 5.0519361235032587 #
loop $-1 $-1 $368 $360 #
plane-surface $-1 0 0 11.235890429162941 0 0 1 1 0 0 forward_v I I I I #
coedge $-1 $521 $363 $365 $525 reversed $223 $-1 #
coedge $-1 $363 $520 $642 $643 reversed $223 $-1 #
coedge $-1 $371 $366 $363 $523 forward $361 $-1 #
edge $-1 $526 -41.970230327670002 $644 -33.076894871492016 $522 $645 forward 7 unknown #
coedge $-1 $365 $364 $529 $646 reversed $139 $-1 #
edge $-1 $647 -12.80245906462563 $526 1.9785632286268914e-014 $520 $648 forward 7 unknown #
vertex $-1 $367 $649 #
straight-curve $-1 -59.973754081850643 -7.55946826839034 2.3425549729849551 0 -1 0 I I #
coedge $-1 $642 $368 $371 $533 forward $518 $-1 #
coedge $-1 $368 $642 $524 $646 forward $518 $-1 #
vertex $-1 $369 $650 #
straight-curve $-1 -71.648147811160527 -10.869497163318847 11.235890429162943 -1 0 0 I I #
straight-curve $-1 -59.973754081850629 -10.869497163318847 2.3425549729849706 0.71933979245794832 0 0.69465837861970381 I I #
edge $-1 $372 10.869497163318847 $644 19.368375910242513 $371 $651 forward 7 unknown #
point $-1 -59.973754081850643 -10.869497163318847 11.235890429162941 #
point $-1 -59.973754081850643 -10.869497163318847 2.3425549729849569 #
edge $-1 $652 1 $652 0 $375 $-1 forward 7 unknown #
vertex $-1 $376 $653 #
ellipse-curve $-1 -54.316889020405839 -17.668600160857778 5.699631580459644 -0.69465837861970381 0 0.71933979245794832 0.35966989622897416 0 0.3473291893098519 1 I I #
point $-1 -55.009425062372074 -17.668600160857778 7.1365518903838066 #
edge $-1 $654 1 $654 0 $379 $-1 forward 7 unknown #
vertex $-1 $380 $655 #
ellipse-curve $-1 -54.316889020405839 -15.11893653678068 5.699631580459644 -0.69465837861970381 0 0.71933979245794832 0.35966989622897416 0 0.3473291893098519 1 I I #
point $-1 -55.009425062372074 -15.11893653678068 7.1365518903838066 #
edge $-1 $656 1 $656 0 $383 $-1 forward 7 unknown #
vertex $-1 $384 $657 #
ellipse-curve $-1 -54.316889020405839 -12.569272912703582 5.699631580459644 -0.69465837861970381 0 0.71933979245794832 0.35966989622897416 0 0.3473291893098519 1 I I #
point $-1 -55.009425062372074 -12.569272912703582 7.1365518903838066 #
loop $-1 $-1 $395 $387 #
plane-surface $-1 0 0 11.235890429162941 0 0 1 1 0 0 forward_v I I I I #
coedge $-1 $551 $390 $392 $555 reversed $252 $-1 #
coedge $-1 $390 $550 $658 $659 reversed $252 $-1 #
coedge $-1 $398 $393 $390 $553 forward $388 $-1 #
edge $-1 $556 -41.970230327670002 $660 -33.076894871492016 $552 $661 forward 7 unknown #
coedge $-1 $392 $391 $559 $662 reversed $158 $-1 #
edge $-1 $663 -12.80245906462563 $556 1.9785632286268914e-014 $550 $664 forward 7 unknown #
vertex $-1 $394 $665 #
straight-curve $-1 -59.973754081850643 5.2936251280314721 2.3425549729849551 0 -1 0 I I #
coedge $-1 $658 $395 $398 $563 forward $548 $-1 #
coedge $-1 $395 $658 $554 $662 forward $548 $-1 #
vertex $-1 $396 $666 #
straight-curve $-1 -71.648147811160527 14.836689629524777 11.235890429162943 -1 0 0 I I #
straight-curve $-1 -59.973754081850629 14.836689629524777 2.3425549729849706 0.71933979245794832 0 0.69465837861970381 I I #
edge $-1 $399 -14.836689629524777 $660 -6.3378108826011115 $398 $667 forward 7 unknown #
point $-1 -59.973754081850643 14.836689629524777 11.235890429162941 #
point $-1 -59.973754081850643 14.836689629524777 2.3425549729849569 #
edge $-1 $668 1 $668 0 $402 $-1 forward 7 unknown #
vertex $-1 $403 $669 #
ellipse-curve $-1 -54.316889020405839 8.037586631985846 5.699631580459644 -0.69465837861970381 0 0.71933979245794832 0.35966989622897416 0 0.3473291893098519 1 I I #
point $-1 -55.009425062372074 8.037586631985846 7.1365518903838066 #
edge $-1 $670 1 $670 0 $406 $-1 forward 7 unknown #
vertex $-1 $407 $671 #
ellipse-curve $-1 -54.316889020405839 10.587250256062944 5.699631580459644 -0.69465837861970381 0 0.71933979245794832 0.35966989622897416 0 0.3473291893098519 1 I I #
point $-1 -55.009425062372074 10.587250256062944 7.1365518903838066 #
edge $-1 $672 1 $672 0 $410 $-1 forward 7 unknown #
vertex $-1 $411 $673 #
ellipse-curve $-1 -54.316889020405839 13.136913880140042 5.699631580459644 -0.69465837861970381 0 0.71933979245794832 0.35966989622897416 0 0.3473291893098519 1 I I #
point $-1 -55.009425062372074 13.136913880140042 7.1365518903838066 #
plane-surface $-1 59.973754081850643 0 0 -1 0 0 0 0 1 forward_v I I I I #
coedge $-1 $419 $417 $421 $583 reversed $281 $-1 #
edge $-1 $432 -11.235890429162941 $585 11.235890429162941 $431 $674 forward 7 unknown #
vertex $-1 $583 $675 #
straight-curve $-1 -59.973754081850643 -36.442378937549577 0 0 0 -1 I I #
edge $-1 $581 -36.442378937549577 $585 36.442378937549577 $579 $676 forward 7 unknown #
straight-curve $-1 0 -36.442378937549577 -11.235890429162941 -1 0 0 I I #
vertex $-1 $424 $677 #
straight-curve $-1 0 36.442378937549577 -11.235890429162941 1 0 0 I I #
point $-1 59.973754081850643 36.442378937549577 -11.235890429162941 #
point $-1 59.973754081850643 -36.442378937549577 -11.235890429162941 #
straight-curve $-1 -59.973754081850643 0 11.235890429162941 0 -1 0 I I #
point $-1 -59.973754081850643 36.442378937549577 11.235890429162941 #
point $-1 -59.973754081850643 -36.442378937549577 11.235890429162941 #
straight-curve $-1 59.973754081850643 -36.442378937549577 0 0 0 -1 I I #
straight-curve $-1 59.973754081850643 36.442378937549577 0 0 0 -1 I I #
plane-surface $-1 59.973754081850643 0 0 -1 0 0 0 0 1 forward_v I I I I #
coedge $-1 $598 $444 $455 $607 forward $300 $-1 #
coedge $-1 $444 $598 $458 $609 reversed $300 $-1 #
straight-curve $-1 59.973754081850643 -25.706186792843617 -4.6179452145814706 0 0 1 I I #
coedge $-1 $596 $595 $447 $599 forward $300 $-1 #
edge $-1 $602 10.169045360245319 $600 20.90523750495128 $598 $678 forward 7 unknown #
vertex $-1 $449 $679 #
straight-curve $-1 0 -36.442378937549577 -10.735890429162941 1 0 0 I I #
vertex $-1 $599 $680 #
straight-curve $-1 0 -25.706186792843617 -10.735890429162941 1 0 0 I I #
point $-1 59.973754081850643 -36.442378937549577 -10.735890429162941 #
point $-1 59.973754081850643 -25.706186792843617 -10.735890429162941 #
straight-curve $-1 -59.973754081850643 -15.537141432598299 -7.7358904291629411 0 1 0 I I #
edge $-1 $456 3.1179452145814706 $602 6.1179452145814706 $595 $681 forward 7 unknown #
point $-1 -59.973754081850643 -25.706186792843617 -7.7358904291629411 #
edge $-1 $460 7.7358904291629411 $600 10.735890429162941 $596 $682 forward 7 unknown #
point $-1 -59.973754081850643 -36.442378937549577 -7.7358904291629411 #
straight-curve $-1 59.973754081850643 -36.442378937549577 0 0 0 -1 I I #
plane-surface $-1 0 36.442378937549577 0 0 -1 0 0 0 -1 forward_v I I I I #
coedge $-1 $469 $622 $471 $616 forward $466 $-1 #
vertex $-1 $616 $683 #
straight-curve $-1 -59.973754081850643 25.706186792843614 -4.6179452145814706 0 0 1 I I #
edge $-1 $618 -20.90523750495128 $614 -10.169045360245317 $613 $684 forward 7 unknown #
straight-curve $-1 0 25.706186792843614 -10.735890429162941 -1 0 0 I I #
vertex $-1 $474 $685 #
straight-curve $-1 0 36.442378937549577 -10.735890429162941 -1 0 0 I I #
point $-1 59.973754081850643 25.706186792843614 -10.735890429162941 #
point $-1 59.973754081850643 36.442378937549577 -10.735890429162941 #
coedge $-1 $613 $478 $481 $624 forward $466 $-1 #
straight-curve $-1 -59.973754081850643 15.537141432598297 -7.7358904291629411 0 1 0 I I #
edge $-1 $483 7.7358904291629411 $618 10.735890429162941 $481 $686 forward 7 unknown #
point $-1 -59.973754081850643 36.442378937549577 -7.7358904291629411 #
point $-1 -59.973754081850643 25.706186792843614 -7.7358904291629411 #
straight-curve $-1 59.973754081850643 25.706186792843614 -4.6179452145814706 0 0 -1 I I #
straight-curve $-1 59.973754081850643 36.442378937549577 0 0 0 -1 I I #
edge $-1 $630 -29.986876056846825 $633 -19.740288051473001 $493 $687 forward 7 unknown #
vertex $-1 $629 $688 #
straight-curve $-1 59.973754081850643 25.706186792843617 85.310347501989924 0 0 1 I I #
edge $-1 $633 -16.532580259354646 $504 -1.8146328076232976 $503 $689 forward 7 unknown #
vertex $-1 $632 $690 #
straight-curve $-1 -24.841941343052795 25.706186792843617 85.804999579076409 0.70710677298230451 0 -0.70710678939079041 I I #
point $-1 59.973754081850643 25.706186792843617 0.9893021860159763 #
point $-1 49.72716607647682 10.988239341112269 11.235890429162936 #
straight-curve $-1 59.973754081850643 0 11.235890429162941 0 1 0 I I #
vertex $-1 $510 $691 #
point $-1 54.777725186127221 15.19336718446408 3.9185410972938515 #
vertex $-1 $514 $692 #
point $-1 54.777725186127221 21.501058949491799 3.9185410972938515 #
coedge $-1 $529 $528 $521 $643 forward $518 $-1 #
edge $-1 $644 11.674393729309884 $647 20.883711975809078 $642 $693 forward 7 unknown #
vertex $-1 $643 $694 #
straight-curve $-1 -59.973754081850643 -19.368375910242513 44.312785300654959 0 0 1 I I #
edge $-1 $647 -11.808907641852173 $530 -3.3100288949285073 $529 $695 forward 7 unknown #
vertex $-1 $646 $696 #
straight-curve $-1 -59.973754081850629 -19.368375910242513 2.3425549729849706 -0.71933979245794832 0 -0.69465837861970381 I I #
point $-1 -59.973754081850643 -19.368375910242513 2.3425549729849569 #
point $-1 -50.764435835351449 -10.869497163318847 11.235890429162941 #
straight-curve $-1 -59.973754081850643 0 11.235890429162941 0 -1 0 I I #
vertex $-1 $536 $697 #
point $-1 -53.957219124176866 -17.668600160857778 6.0469607697694965 #
vertex $-1 $540 $698 #
point $-1 -53.957219124176866 -15.11893653678068 6.0469607697694965 #
vertex $-1 $544 $699 #
point $-1 -53.957219124176866 -12.569272912703582 6.0469607697694965 #
coedge $-1 $559 $558 $551 $659 forward $548 $-1 #
edge $-1 $660 11.674393729309884 $663 20.883711975809078 $658 $700 forward 7 unknown #
vertex $-1 $659 $701 #
straight-curve $-1 -59.973754081850643 6.3378108826011115 44.312785300654959 0 0 1 I I #
edge $-1 $663 1.0441857545696394 $560 9.5430645014933049 $559 $702 forward 7 unknown #
vertex $-1 $662 $703 #
straight-curve $-1 -59.973754081850629 6.3378108826011115 2.3425549729849706 -0.71933979245794832 0 -0.69465837861970381 I I #
point $-1 -59.973754081850643 6.3378108826011115 2.3425549729849569 #
point $-1 -50.764435835351449 14.836689629524777 11.235890429162941 #
straight-curve $-1 -59.973754081850643 0 11.235890429162941 0 -1 0 I I #
vertex $-1 $566 $704 #
point $-1 -53.957219124176866 8.037586631985846 6.0469607697694965 #
vertex $-1 $570 $705 #
point $-1 -53.957219124176866 10.587250256062944 6.0469607697694965 #
vertex $-1 $574 $706 #
point $-1 -53.957219124176866 13.136913880140042 6.0469607697694965 #
straight-curve $-1 -59.973754081850643 36.442378937549577 0 0 0 -1 I I #
point $-1 -59.973754081850643 -36.442378937549577 -11.235890429162941 #
straight-curve $-1 -59.973754081850643 0 -11.235890429162941 0 1 0 I I #
point $-1 -59.973754081850643 36.442378937549577 -11.235890429162941 #
straight-curve $-1 -59.973754081850643 -15.537141432598299 -10.735890429162941 0 -1 0 I I #
point $-1 -59.973754081850643 -36.442378937549577 -10.735890429162941 #
point $-1 -59.973754081850643 -25.706186792843617 -10.735890429162941 #
straight-curve $-1 -59.973754081850643 -25.706186792843617 -4.6179452145814706 0 0 -1 I I #
straight-curve $-1 -59.973754081850643 -36.442378937549577 0 0 0 -1 I I #
point $-1 -59.973754081850643 25.706186792843614 -10.735890429162941 #
straight-curve $-1 -59.973754081850643 15.537141432598297 -10.735890429162941 0 -1 0 I I #
point $-1 -59.973754081850643 36.442378937549577 -10.735890429162941 #
straight-curve $-1 -59.973754081850643 36.442378937549577 0 0 0 -1 I I #
straight-curve $-1 29.986878025003818 25.706186792843617 11.235890429162936 -1 0 0 I I #
point $-1 59.973754081850643 25.706186792843617 11.235890429162941 #
straight-curve $-1 49.72716607647682 9.1736065334889716 11.235890429162936 0 -1 0 I I #
point $-1 49.72716607647682 25.706186792843617 11.235890429162936 #
point $-1 52.656404842567575 15.19336718446408 3.9185411219065802 #
point $-1 52.656404842567575 21.501058949491799 3.9185411219065802 #
straight-curve $-1 -71.648147811160527 -19.368375910242513 11.235890429162943 1 0 0 I I #
point $-1 -59.973754081850643 -19.368375910242513 11.235890429162941 #
straight-curve $-1 -50.764435835351442 -7.55946826839034 11.235890429162941 0 1 0 I I #
point $-1 -50.764435835351449 -19.368375910242513 11.235890429162941 #
point $-1 -53.969559831095992 -17.668600160857778 5.3399616842306701 #
point $-1 -53.969559831095992 -15.11893653678068 5.3399616842306701 #
point $-1 -53.969559831095992 -12.569272912703582 5.3399616842306701 #
straight-curve $-1 -71.648147811160527 6.3378108826011115 11.235890429162943 1 0 0 I I #
point $-1 -59.973754081850643 6.3378108826011115 11.235890429162941 #
straight-curve $-1 -50.764435835351442 5.2936251280314721 11.235890429162941 0 1 0 I I #
point $-1 -50.764435835351449 6.3378108826011115 11.235890429162941 #
point $-1 -53.969559831095992 8.037586631985846 5.3399616842306701 #
point $-1 -53.969559831095992 10.587250256062944 5.3399616842306701 #
point $-1 -53.969559831095992 13.136913880140042 5.3399616842306701 #
End-of-ACIS-data 