500 0 11 0           
7 Unknown 11 ACIS 5.0 NT 24 Fri Mar 26 01:03:35 1999 
-1 9.9999999999999995e-007 1e-010 
body $-1 $11 $-1 $12 #
body $-1 $13 $-1 $14 #
body $-1 $15 $-1 $16 #
body $-1 $17 $-1 $18 #
body $-1 $19 $-1 $20 #
body $-1 $21 $-1 $22 #
body $-1 $23 $-1 $24 #
body $-1 $25 $-1 $26 #
body $-1 $27 $-1 $28 #
body $-1 $29 $-1 $30 #
body $-1 $31 $-1 $32 #
lump $-1 $-1 $33 $0 #
transform $-1 1 0 0 0 1 0 0 0 1 42.369457075716426 28.714044972264446 10.896299612373053 1 rotate no_reflect no_shear #
lump $-1 $-1 $34 $1 #
transform $-1 1 0 0 0 1 0 0 0 1 42.369457075716426 28.714044972264446 10.896299612373053 1 rotate no_reflect no_shear #
lump $-1 $-1 $35 $2 #
transform $-1 1 0 0 0 1 0 0 0 1 42.369457075716426 28.714044972264446 10.896299612373053 1 rotate no_reflect no_shear #
lump $-1 $-1 $36 $3 #
transform $-1 1 0 0 0 1 0 0 0 1 42.369457075716426 28.714044972264446 10.896299612373053 1 rotate no_reflect no_shear #
lump $-1 $-1 $37 $4 #
transform $-1 1 0 0 0 1 0 0 0 1 42.369457075716426 28.714044972264446 10.896299612373053 1 rotate no_reflect no_shear #
lump $-1 $-1 $38 $5 #
transform $-1 1 0 0 0 1 0 0 0 1 42.369457075716426 28.714044972264446 10.896299612373053 1 rotate no_reflect no_shear #
lump $-1 $-1 $39 $6 #
transform $-1 1 0 0 0 1 0 0 0 1 42.369457075716426 28.714044972264446 10.896299612373053 1 rotate no_reflect no_shear #
lump $-1 $-1 $40 $7 #
transform $-1 1 0 0 0 1 0 0 0 1 42.369457075716426 28.714044972264446 10.896299612373053 1 rotate no_reflect no_shear #
lump $-1 $-1 $41 $8 #
transform $-1 1 0 0 0 1 0 0 0 1 42.369457075716426 28.714044972264446 10.896299612373053 1 rotate no_reflect no_shear #
lump $-1 $-1 $42 $9 #
transform $-1 1 0 0 0 1 0 0 0 1 42.369457075716426 28.714044972264446 10.896299612373053 1 rotate no_reflect no_shear #
lump $-1 $-1 $43 $10 #
transform $-1 1 0 0 0 1 0 0 0 1 42.369457075716426 28.714044972264446 10.896299612373053 1 rotate no_reflect no_shear #
shell $-1 $-1 $-1 $44 $-1 $11 #
shell $-1 $-1 $-1 $45 $-1 $13 #
shell $-1 $-1 $-1 $46 $-1 $15 #
shell $-1 $-1 $-1 $47 $-1 $17 #
shell $-1 $-1 $-1 $48 $-1 $19 #
shell $-1 $-1 $-1 $49 $-1 $21 #
shell $-1 $-1 $-1 $50 $-1 $23 #
shell $-1 $-1 $-1 $51 $-1 $25 #
shell $-1 $-1 $-1 $52 $-1 $27 #
shell $-1 $-1 $-1 $53 $-1 $29 #
shell $-1 $-1 $-1 $54 $-1 $31 #
face $-1 $55 $56 $33 $-1 $57 forward single #
face $-1 $58 $59 $34 $-1 $60 reversed single #
face $-1 $61 $62 $35 $-1 $63 reversed single #
face $-1 $64 $65 $36 $-1 $66 reversed single #
face $-1 $67 $68 $37 $-1 $69 forward single #
face $-1 $70 $71 $38 $-1 $72 reversed single #
face $-1 $73 $74 $39 $-1 $75 forward single #
face $-1 $76 $77 $40 $-1 $78 reversed single #
face $-1 $79 $80 $41 $-1 $81 forward single #
face $-1 $82 $83 $42 $-1 $84 reversed single #
face $-1 $85 $86 $43 $-1 $87 forward single #
face $-1 $88 $89 $33 $-1 $90 reversed single #
loop $-1 $-1 $91 $44 #
plane-surface $-1 0 0 10.896299612373053 0 0 1 1 0 0 forward_v I I I I #
face $-1 $92 $93 $34 $-1 $94 reversed single #
loop $-1 $-1 $95 $45 #
plane-surface $-1 -35.311230772621442 0 5.5788043097328206 0 0 1 1 0 0 forward_v I I I I #
face $-1 $96 $97 $35 $-1 $98 reversed single #
loop $-1 $-1 $99 $46 #
plane-surface $-1 35.311230772621442 0 5.5788043097328206 0 0 1 1 0 0 forward_v I I I I #
face $-1 $100 $101 $36 $-1 $102 reversed single #
loop $-1 $-1 $103 $47 #
plane-surface $-1 -17.507240711030249 71.771819801833345 96.983073222933882 1 0 0 0 -0.85716730853699208 -0.51503806187062418 forward_v I I I I #
face $-1 $104 $105 $37 $-1 $106 forward single #
loop $-1 $107 $108 $48 #
cone-surface $-1 -12.567688395378347 26.160140308481314 7.1948720178453387 0 -0.85716730853699208 -0.51503806187062418 1 0 0 1 I I 0 1 1 forward I I I I #
face $-1 $109 $110 $38 $-1 $111 reversed single #
loop $-1 $-1 $112 $49 #
plane-surface $-1 10.74576375849621 71.771819801833345 96.983073222933882 1 0 0 0 -0.85716730853699208 -0.51503806187062418 forward_v I I I I #
face $-1 $113 $114 $39 $-1 $115 forward single #
loop $-1 $116 $117 $50 #
cone-surface $-1 15.685316074148112 26.160140308481314 7.1948720178453387 0 -0.85716730853699208 -0.51503806187062418 1 0 0 1 I I 0 1 1 forward I I I I #
face $-1 $118 $119 $40 $-1 $120 reversed single #
loop $-1 $-1 $121 $51 #
plane-surface $-1 -7.6281360797264455 -101.34947194379539 47.757591930761762 -1 0 0 0 -0.85716730853699208 0.51503806187062418 forward_v I I I I #
face $-1 $122 $123 $41 $-1 $124 forward single #
loop $-1 $125 $126 $52 #
cone-surface $-1 -12.567688395378347 -26.160140308481321 7.1948720178453422 0 0.85716730853699208 -0.51503806187062418 1 0 0 1 I I 0 1 1 forward I I I I #
face $-1 $127 $128 $42 $-1 $129 reversed single #
loop $-1 $-1 $130 $53 #
plane-surface $-1 20.624868389800014 -101.34947194379539 47.757591930761762 -1 0 0 0 -0.85716730853699208 0.51503806187062418 forward_v I I I I #
face $-1 $131 $132 $43 $-1 $133 forward single #
loop $-1 $134 $135 $54 #
cone-surface $-1 15.685316074148112 -26.160140308481321 7.1948720178453422 0 0.85716730853699208 -0.51503806187062418 1 0 0 1 I I 0 1 1 forward I I I I #
face $-1 $136 $137 $33 $-1 $138 reversed single #
loop $-1 $-1 $139 $55 #
plane-surface $-1 0 0 -10.896299612373053 0 0 1 1 0 0 forward_v I I I I #
coedge $-1 $140 $141 $142 $143 forward $56 $-1 #
face $-1 $144 $145 $34 $-1 $146 reversed single #
loop $-1 $-1 $147 $58 #
plane-surface $-1 -28.253004469526459 0 8.2375519610529366 -1 0 0 0 0 1 forward_v I I I I #
coedge $-1 $148 $149 $150 $151 forward $59 $-1 #
face $-1 $152 $153 $35 $-1 $154 forward single #
loop $-1 $-1 $155 $61 #
plane-surface $-1 28.253004469526459 0 8.2375519610529366 1 0 0 0 0 -1 forward_v I I I I #
coedge $-1 $156 $157 $158 $159 reversed $62 $-1 #
face $-1 $160 $161 $36 $-1 $162 reversed single #
loop $-1 $-1 $163 $64 #
plane-surface $-1 -12.567688395378347 -0.86360716969758755 53.3393071133587 0 0.85716730853699208 0.51503806187062418 1 0 0 forward_v I I I I #
coedge $-1 $164 $165 $166 $167 reversed $65 $-1 #
face $-1 $-1 $168 $37 $-1 $169 forward single #
loop $-1 $170 $171 $67 #
cone-surface $-1 -12.567688395378347 25.215312620571552 6.6271622879755547 0 -0.85716730853699208 -0.51503806187062418 0.5 0 0 1 I I -0.70710678118654746 0.70710678118654746 0.5 forward I I I I #
loop $-1 $-1 $172 $48 #
coedge $-1 $108 $108 $173 $174 reversed $68 $-1 #
face $-1 $175 $176 $38 $-1 $177 reversed single #
loop $-1 $-1 $178 $70 #
plane-surface $-1 15.685316074148112 -0.86360716969758755 53.3393071133587 0 0.85716730853699208 0.51503806187062418 1 0 0 forward_v I I I I #
coedge $-1 $179 $180 $181 $182 reversed $71 $-1 #
face $-1 $-1 $183 $39 $-1 $184 forward single #
loop $-1 $185 $186 $73 #
cone-surface $-1 15.685316074148112 25.215312620571552 6.6271622879755547 0 -0.85716730853699208 -0.51503806187062418 0.5 0 0 1 I I -0.70710678118654746 0.70710678118654746 0.5 forward I I I I #
loop $-1 $-1 $187 $50 #
coedge $-1 $117 $117 $188 $189 reversed $74 $-1 #
face $-1 $190 $191 $40 $-1 $192 reversed single #
loop $-1 $-1 $193 $76 #
plane-surface $-1 -12.567688395378347 -28.71404497226446 4.1138258211865804 0 -0.85716730853699208 0.51503806187062418 1 0 0 forward_v I I I I #
coedge $-1 $194 $195 $196 $197 reversed $77 $-1 #
face $-1 $-1 $198 $41 $-1 $199 forward single #
loop $-1 $200 $201 $79 #
cone-surface $-1 -12.567688395378347 -25.215312620571559 6.6271622879755583 0 0.85716730853699208 -0.51503806187062418 0.5 0 0 1 I I -0.70710678118654746 0.70710678118654746 0.5 forward I I I I #
loop $-1 $-1 $202 $52 #
coedge $-1 $126 $126 $203 $204 reversed $80 $-1 #
face $-1 $205 $206 $42 $-1 $207 reversed single #
loop $-1 $-1 $208 $82 #
plane-surface $-1 15.685316074148112 -28.71404497226446 4.1138258211865804 0 -0.85716730853699208 0.51503806187062418 1 0 0 forward_v I I I I #
coedge $-1 $209 $210 $211 $212 reversed $83 $-1 #
face $-1 $-1 $213 $43 $-1 $214 forward single #
loop $-1 $215 $216 $85 #
cone-surface $-1 15.685316074148112 -25.215312620571559 6.6271622879755583 0 0.85716730853699208 -0.51503806187062418 0.5 0 0 1 I I -0.70710678118654746 0.70710678118654746 0.5 forward I I I I #
loop $-1 $-1 $217 $54 #
coedge $-1 $135 $135 $218 $219 reversed $86 $-1 #
face $-1 $220 $221 $33 $-1 $222 reversed single #
loop $-1 $-1 $223 $88 #
plane-surface $-1 0 -28.714044972264446 0 0 1 0 0 0 1 forward_v I I I I #
coedge $-1 $224 $225 $226 $227 forward $89 $-1 #
coedge $-1 $228 $91 $229 $230 forward $56 $-1 #
coedge $-1 $91 $228 $231 $232 forward $56 $-1 #
coedge $-1 $233 $234 $91 $143 reversed $235 $-1 #
edge $-1 $236 -28.714044972264446 $237 28.714044972264446 $142 $238 forward 7 unknown #
face $-1 $239 $240 $34 $-1 $241 reversed single #
loop $-1 $-1 $242 $92 #
plane-surface $-1 0 28.714044972264446 0 0 -1 0 0 0 -1 forward_v I I I I #
coedge $-1 $150 $243 $244 $245 reversed $93 $-1 #
coedge $-1 $246 $95 $247 $248 reversed $59 $-1 #
coedge $-1 $95 $246 $249 $250 reversed $59 $-1 #
coedge $-1 $251 $147 $95 $151 reversed $93 $-1 #
edge $-1 $252 -28.714044972264446 $253 28.714044972264446 $150 $254 forward 7 unknown #
face $-1 $255 $256 $35 $-1 $257 reversed single #
loop $-1 $-1 $258 $96 #
plane-surface $-1 0 0 10.896299612373053 0 0 1 1 0 0 forward_v I I I I #
coedge $-1 $259 $260 $261 $262 reversed $97 $-1 #
coedge $-1 $263 $99 $264 $265 reversed $62 $-1 #
coedge $-1 $99 $263 $266 $267 reversed $62 $-1 #
coedge $-1 $268 $269 $99 $159 forward $270 $-1 #
edge $-1 $271 -28.714044972264446 $272 28.714044972264446 $158 $273 forward 7 unknown #
face $-1 $274 $275 $36 $-1 $276 reversed single #
loop $-1 $-1 $277 $100 #
plane-surface $-1 -7.6281360797264455 71.771819801833345 96.983073222933882 -1 0 0 0 0.85716730853699208 0.51503806187062418 forward_v I I I I #
coedge $-1 $278 $279 $280 $281 reversed $101 $-1 #
coedge $-1 $165 $103 $282 $283 reversed $65 $-1 #
coedge $-1 $103 $164 $278 $284 reversed $65 $-1 #
coedge $-1 $280 $285 $103 $167 forward $286 $-1 #
edge $-1 $287 7.1718649286522265 $288 11.247186188935952 $166 $289 forward 7 unknown #
loop $-1 $-1 $173 $104 #
plane-surface $-1 -12.567688395378347 -0.86360716969758755 53.3393071133587 0 0.85716730853699208 0.51503806187062418 1 0 0 forward_v I I I I #
loop $-1 $-1 $290 $67 #
coedge $-1 $171 $171 $172 $291 reversed $105 $-1 #
coedge $-1 $172 $172 $171 $291 forward $107 $-1 #
coedge $-1 $173 $173 $108 $174 forward $168 $-1 #
edge $-1 $292 -1.6012576392702874e-016 $292 6.2831853071796004 $173 $293 forward 7 unknown #
face $-1 $294 $295 $38 $-1 $296 forward single #
loop $-1 $-1 $297 $109 #
plane-surface $-1 20.624868389800014 71.771819801833345 96.983073222933882 -1 0 0 0 0.85716730853699208 0.51503806187062418 forward_v I I I I #
coedge $-1 $298 $299 $300 $301 reversed $110 $-1 #
coedge $-1 $180 $112 $302 $303 reversed $71 $-1 #
coedge $-1 $112 $179 $298 $304 reversed $71 $-1 #
coedge $-1 $300 $305 $112 $182 forward $295 $-1 #
edge $-1 $306 7.1718649286522265 $307 11.247186188935952 $181 $308 forward 7 unknown #
loop $-1 $-1 $188 $113 #
plane-surface $-1 15.685316074148112 -0.86360716969758755 53.3393071133587 0 0.85716730853699208 0.51503806187062418 1 0 0 forward_v I I I I #
loop $-1 $-1 $309 $73 #
coedge $-1 $186 $186 $187 $310 reversed $114 $-1 #
coedge $-1 $187 $187 $186 $310 forward $116 $-1 #
coedge $-1 $188 $188 $117 $189 forward $183 $-1 #
edge $-1 $311 -1.6012576392702874e-016 $311 6.2831853071796004 $188 $312 forward 7 unknown #
face $-1 $313 $314 $40 $-1 $315 forward single #
loop $-1 $-1 $316 $118 #
plane-surface $-1 -17.507240711030249 -101.34947194379539 47.757591930761762 1 0 0 0 0.85716730853699208 -0.51503806187062418 forward_v I I I I #
coedge $-1 $317 $318 $319 $320 reversed $119 $-1 #
coedge $-1 $195 $121 $321 $322 reversed $77 $-1 #
coedge $-1 $121 $194 $317 $323 reversed $77 $-1 #
coedge $-1 $319 $324 $121 $197 forward $314 $-1 #
edge $-1 $325 21.96069099963325 $326 26.036012259916966 $196 $327 forward 7 unknown #
loop $-1 $-1 $203 $122 #
plane-surface $-1 -12.567688395378347 -28.71404497226446 4.1138258211865804 0 -0.85716730853699208 0.51503806187062418 1 0 0 forward_v I I I I #
loop $-1 $-1 $328 $79 #
coedge $-1 $201 $201 $202 $329 reversed $123 $-1 #
coedge $-1 $202 $202 $201 $329 forward $125 $-1 #
coedge $-1 $203 $203 $126 $204 forward $198 $-1 #
edge $-1 $330 1.989908531437693e-015 $330 6.2831853071796022 $203 $331 forward 7 unknown #
face $-1 $332 $333 $42 $-1 $334 reversed single #
loop $-1 $-1 $335 $127 #
plane-surface $-1 10.74576375849621 -101.34947194379539 47.757591930761762 1 0 0 0 0.85716730853699208 -0.51503806187062418 forward_v I I I I #
coedge $-1 $336 $337 $338 $339 reversed $128 $-1 #
coedge $-1 $210 $130 $340 $341 reversed $83 $-1 #
coedge $-1 $130 $209 $336 $342 reversed $83 $-1 #
coedge $-1 $338 $343 $130 $212 forward $344 $-1 #
edge $-1 $345 21.96069099963325 $346 26.036012259916966 $211 $347 forward 7 unknown #
loop $-1 $-1 $218 $131 #
plane-surface $-1 15.685316074148112 -28.71404497226446 4.1138258211865804 0 -0.85716730853699208 0.51503806187062418 1 0 0 forward_v I I I I #
loop $-1 $-1 $348 $85 #
coedge $-1 $216 $216 $217 $349 reversed $132 $-1 #
coedge $-1 $217 $217 $216 $349 forward $134 $-1 #
coedge $-1 $218 $218 $135 $219 forward $213 $-1 #
edge $-1 $350 1.989908531437693e-015 $350 6.2831853071796022 $218 $351 forward 7 unknown #
face $-1 $352 $353 $33 $-1 $354 reversed single #
loop $-1 $-1 $355 $136 #
plane-surface $-1 -42.369457075716426 0 0 1 0 0 0 0 -1 forward_v I I I I #
coedge $-1 $356 $231 $357 $358 forward $137 $-1 #
coedge $-1 $359 $139 $356 $360 forward $89 $-1 #
coedge $-1 $139 $359 $361 $362 forward $89 $-1 #
coedge $-1 $234 $233 $139 $227 reversed $235 $-1 #
edge $-1 $363 -28.714044972264446 $364 28.714044972264446 $226 $365 forward 7 unknown #
coedge $-1 $141 $140 $366 $367 forward $56 $-1 #
coedge $-1 $368 $369 $140 $230 reversed $353 $-1 #
edge $-1 $237 -42.369457075716426 $370 42.369457075716426 $229 $371 forward 7 unknown #
coedge $-1 $223 $372 $141 $232 reversed $137 $-1 #
edge $-1 $373 -42.369457075716426 $236 42.369457075716426 $231 $374 forward 7 unknown #
coedge $-1 $226 $142 $372 $375 forward $235 $-1 #
coedge $-1 $142 $226 $368 $376 reversed $235 $-1 #
loop $-1 $-1 $233 $352 #
vertex $-1 $143 $377 #
vertex $-1 $143 $378 #
straight-curve $-1 42.369457075716426 0 10.896299612373053 0 1 0 I I #
face $-1 $379 $380 $34 $-1 $381 forward single #
loop $-1 $-1 $382 $144 #
plane-surface $-1 -42.369457075716426 0 0 1 0 0 0 0 -1 forward_v I I I I #
coedge $-1 $249 $383 $251 $384 forward $145 $-1 #
coedge $-1 $147 $251 $385 $386 reversed $93 $-1 #
coedge $-1 $387 $247 $147 $245 forward $388 $-1 #
edge $-1 $253 1.4600283292063523 $389 6.7775236318465844 $244 $390 forward 7 unknown #
coedge $-1 $149 $148 $382 $391 reversed $59 $-1 #
coedge $-1 $244 $392 $148 $248 forward $388 $-1 #
edge $-1 $393 -24.713841689405704 $253 -10.597389083215738 $247 $394 forward 7 unknown #
coedge $-1 $395 $242 $149 $250 forward $145 $-1 #
edge $-1 $252 10.597389083215738 $396 24.713841689405704 $249 $397 forward 7 unknown #
coedge $-1 $243 $150 $242 $384 reversed $93 $-1 #
vertex $-1 $250 $398 #
vertex $-1 $248 $399 #
straight-curve $-1 -28.253004469526459 0 5.5788043097328206 0 -1 0 I I #
face $-1 $400 $401 $35 $-1 $402 reversed single #
loop $-1 $-1 $403 $152 #
plane-surface $-1 0 -28.714044972264446 0 0 1 0 0 0 1 forward_v I I I I #
coedge $-1 $404 $405 $260 $406 forward $153 $-1 #
coedge $-1 $407 $155 $263 $408 reversed $97 $-1 #
coedge $-1 $155 $407 $258 $406 reversed $97 $-1 #
coedge $-1 $409 $266 $155 $262 forward $401 $-1 #
edge $-1 $410 1.4600283292063523 $411 6.7775236318465844 $261 $412 forward 7 unknown #
coedge $-1 $157 $156 $259 $408 forward $62 $-1 #
coedge $-1 $413 $403 $156 $265 forward $256 $-1 #
edge $-1 $414 10.597389083215738 $271 24.713841689405704 $264 $415 forward 7 unknown #
coedge $-1 $261 $416 $157 $267 forward $401 $-1 #
edge $-1 $272 -24.713841689405704 $410 -10.597389083215738 $266 $417 forward 7 unknown #
coedge $-1 $418 $158 $416 $419 reversed $270 $-1 #
coedge $-1 $158 $418 $413 $420 forward $270 $-1 #
loop $-1 $-1 $158 $400 #
vertex $-1 $265 $421 #
vertex $-1 $159 $422 #
straight-curve $-1 42.369457075716426 0 5.5788043097328206 0 1 0 I I #
face $-1 $-1 $286 $36 $-1 $423 forward single #
loop $-1 $-1 $424 $160 #
plane-surface $-1 0 28.714044972264446 0 0 -1 0 0 0 -1 forward_v I I I I #
coedge $-1 $425 $426 $427 $428 reversed $161 $-1 #
coedge $-1 $429 $163 $165 $284 forward $101 $-1 #
coedge $-1 $163 $429 $425 $430 forward $101 $-1 #
coedge $-1 $427 $166 $163 $281 forward $286 $-1 #
edge $-1 $288 -11.223396513341076 $431 -1.3442918820372718 $280 $432 forward 7 unknown #
coedge $-1 $433 $434 $164 $283 forward $275 $-1 #
edge $-1 $435 -44.377710790280354 $287 -37.595236999093885 $282 $436 forward 7 unknown #
edge $-1 $288 49.515429576318205 $435 57.428089944528885 $165 $437 forward 7 unknown #
coedge $-1 $166 $427 $433 $438 forward $286 $-1 #
loop $-1 $-1 $427 $274 #
vertex $-1 $283 $439 #
vertex $-1 $167 $440 #
straight-curve $-1 -17.507240711030249 35.885909900916673 10.896299612373049 0 -1 0 I I #
coedge $-1 $290 $290 $-1 $441 reversed $170 $-1 #
edge $-1 $442 0 $442 6.2831853071796004 $171 $443 forward 7 unknown #
vertex $-1 $174 $444 #
ellipse-curve $-1 -12.567688395378347 26.676384342122585 7.5050627167798165 0 0.85716730853699208 0.51503806187062418 1 0 0 1 I I #
face $-1 $-1 $445 $38 $-1 $446 reversed single #
loop $-1 $-1 $181 $175 #
plane-surface $-1 0 0 10.896299612373053 0 0 1 1 0 0 forward_v I I I I #
coedge $-1 $447 $448 $449 $450 reversed $176 $-1 #
coedge $-1 $451 $178 $180 $304 forward $110 $-1 #
coedge $-1 $178 $451 $447 $452 forward $110 $-1 #
coedge $-1 $449 $181 $178 $301 forward $295 $-1 #
edge $-1 $307 2.9031057214221541 $453 12.782210352725958 $300 $454 forward 7 unknown #
coedge $-1 $455 $456 $179 $303 forward $445 $-1 #
edge $-1 $457 -44.377710790280354 $306 -37.595236999093885 $302 $458 forward 7 unknown #
edge $-1 $307 49.515429576318205 $457 57.428089944528885 $180 $459 forward 7 unknown #
coedge $-1 $181 $449 $455 $460 forward $295 $-1 #
vertex $-1 $182 $461 #
vertex $-1 $182 $462 #
straight-curve $-1 10.74576375849621 35.885909900916673 10.896299612373049 0 -1 0 I I #
coedge $-1 $309 $309 $-1 $463 reversed $185 $-1 #
edge $-1 $464 0 $464 6.2831853071796004 $186 $465 forward 7 unknown #
vertex $-1 $189 $466 #
ellipse-curve $-1 15.685316074148112 26.676384342122585 7.5050627167798165 0 0.85716730853699208 0.51503806187062418 1 0 0 1 I I #
face $-1 $-1 $467 $40 $-1 $468 reversed single #
loop $-1 $-1 $196 $190 #
plane-surface $-1 0 0 10.896299612373053 0 0 1 1 0 0 forward_v I I I I #
coedge $-1 $469 $470 $471 $472 reversed $191 $-1 #
coedge $-1 $473 $193 $195 $323 forward $119 $-1 #
coedge $-1 $193 $473 $469 $474 forward $119 $-1 #
coedge $-1 $471 $196 $193 $320 forward $314 $-1 #
edge $-1 $326 1.3442918820372718 $475 11.223396513341076 $319 $476 forward 7 unknown #
coedge $-1 $477 $478 $194 $322 forward $467 $-1 #
edge $-1 $479 -19.764970144194276 $325 -12.982496353007829 $321 $480 forward 7 unknown #
edge $-1 $326 -7.9126603682106804 $479 -2.787470371894754e-014 $195 $481 forward 7 unknown #
coedge $-1 $196 $471 $477 $482 forward $314 $-1 #
vertex $-1 $322 $483 #
vertex $-1 $197 $484 #
straight-curve $-1 -7.6281360797264455 -50.674735971897697 10.896299612373053 0 1 0 I I #
coedge $-1 $328 $328 $-1 $485 reversed $200 $-1 #
edge $-1 $486 0 $486 6.2831853071796004 $201 $487 forward 7 unknown #
vertex $-1 $204 $488 #
ellipse-curve $-1 -12.567688395378347 -26.676384342122596 7.5050627167798201 0 -0.85716730853699208 0.51503806187062418 1 0 0 1 I I #
face $-1 $-1 $344 $42 $-1 $489 forward single #
loop $-1 $-1 $490 $205 #
plane-surface $-1 0 -28.714044972264446 0 0 1 0 0 0 1 forward_v I I I I #
coedge $-1 $491 $492 $493 $494 reversed $206 $-1 #
coedge $-1 $495 $208 $210 $342 forward $128 $-1 #
coedge $-1 $208 $495 $491 $496 forward $128 $-1 #
coedge $-1 $493 $211 $208 $339 forward $344 $-1 #
edge $-1 $346 -12.782210352725958 $497 -2.9031057214221541 $338 $498 forward 7 unknown #
coedge $-1 $499 $500 $209 $341 forward $333 $-1 #
edge $-1 $501 -19.764970144194276 $345 -12.982496353007829 $340 $502 forward 7 unknown #
edge $-1 $346 -7.9126603682106804 $501 -2.787470371894754e-014 $210 $503 forward 7 unknown #
coedge $-1 $211 $493 $499 $504 forward $344 $-1 #
loop $-1 $-1 $493 $332 #
vertex $-1 $341 $505 #
vertex $-1 $212 $506 #
straight-curve $-1 20.624868389800014 -50.674735971897697 10.896299612373053 0 1 0 I I #
coedge $-1 $348 $348 $-1 $507 reversed $215 $-1 #
edge $-1 $508 0 $508 6.2831853071796004 $216 $509 forward 7 unknown #
vertex $-1 $219 $510 #
ellipse-curve $-1 15.685316074148112 -26.676384342122596 7.5050627167798201 0 -0.85716730853699208 0.51503806187062418 1 0 0 1 I I #
face $-1 $-1 $235 $33 $-1 $511 reversed single #
loop $-1 $-1 $368 $220 #
plane-surface $-1 0 28.714044972264446 0 0 -1 0 0 0 -1 forward_v I I I I #
coedge $-1 $512 $366 $369 $513 forward $221 $-1 #
coedge $-1 $372 $223 $224 $360 reversed $137 $-1 #
coedge $-1 $366 $512 $223 $358 reversed $221 $-1 #
edge $-1 $373 -10.896299612373053 $514 10.896299612373053 $357 $515 forward 7 unknown #
coedge $-1 $225 $224 $512 $516 forward $89 $-1 #
edge $-1 $364 -42.369457075716426 $514 42.369457075716426 $356 $517 forward 7 unknown #
coedge $-1 $369 $368 $225 $362 reversed $353 $-1 #
edge $-1 $518 -42.369457075716426 $363 42.369457075716426 $361 $519 forward 7 unknown #
vertex $-1 $227 $520 #
vertex $-1 $375 $521 #
straight-curve $-1 42.369457075716426 0 -10.896299612373053 0 -1 0 I I #
coedge $-1 $355 $357 $228 $367 reversed $221 $-1 #
edge $-1 $370 -28.714044972264446 $373 28.714044972264446 $366 $522 forward 7 unknown #
coedge $-1 $361 $229 $234 $376 forward $353 $-1 #
coedge $-1 $229 $361 $355 $513 reversed $353 $-1 #
vertex $-1 $230 $523 #
straight-curve $-1 0 28.714044972264446 10.896299612373053 -1 0 0 I I #
coedge $-1 $231 $356 $233 $375 reversed $137 $-1 #
vertex $-1 $367 $524 #
straight-curve $-1 0 -28.714044972264446 10.896299612373053 1 0 0 I I #
edge $-1 $236 -10.896299612373053 $364 10.896299612373053 $233 $525 forward 7 unknown #
edge $-1 $237 -10.896299612373053 $363 10.896299612373053 $234 $526 forward 7 unknown #
point $-1 42.369457075716426 -28.714044972264446 10.896299612373053 #
point $-1 42.369457075716426 28.714044972264446 10.896299612373053 #
face $-1 $-1 $388 $34 $-1 $527 reversed single #
loop $-1 $-1 $385 $239 #
plane-surface $-1 0 0 10.896299612373053 0 0 1 1 0 0 forward_v I I I I #
coedge $-1 $528 $529 $246 $391 forward $240 $-1 #
coedge $-1 $242 $395 $530 $531 reversed $145 $-1 #
edge $-1 $532 -6.7775236318465844 $252 -1.4600283292063523 $242 $533 forward 7 unknown #
coedge $-1 $530 $534 $243 $386 forward $380 $-1 #
edge $-1 $389 -28.714044972264446 $532 28.714044972264446 $385 $535 forward 7 unknown #
coedge $-1 $392 $244 $534 $536 reversed $388 $-1 #
loop $-1 $-1 $244 $379 #
vertex $-1 $245 $537 #
straight-curve $-1 -28.253004469526459 -28.714044972264446 4.1187759805264683 0 0 1 I I #
edge $-1 $396 -28.714044972264446 $393 28.714044972264446 $382 $538 forward 7 unknown #
coedge $-1 $247 $387 $528 $539 forward $388 $-1 #
vertex $-1 $391 $540 #
straight-curve $-1 -17.655615386310721 -28.714044972264446 5.5788043097328206 1 0 0 I I #
coedge $-1 $383 $249 $529 $541 reversed $145 $-1 #
vertex $-1 $391 $542 #
straight-curve $-1 -17.655615386310721 28.714044972264446 5.5788043097328206 -1 0 0 I I #
point $-1 -28.253004469526459 28.714044972264446 5.5788043097328206 #
point $-1 -28.253004469526459 -28.714044972264446 5.5788043097328206 #
face $-1 $-1 $270 $35 $-1 $543 reversed single #
loop $-1 $-1 $261 $255 #
plane-surface $-1 0 28.714044972264446 0 0 -1 0 0 0 -1 forward_v I I I I #
coedge $-1 $264 $544 $407 $545 forward $256 $-1 #
coedge $-1 $546 $258 $544 $547 forward $153 $-1 #
coedge $-1 $258 $546 $409 $548 forward $153 $-1 #
edge $-1 $411 -28.714044972264446 $549 28.714044972264446 $258 $550 forward 7 unknown #
coedge $-1 $260 $259 $403 $545 reversed $97 $-1 #
edge $-1 $414 -28.714044972264446 $410 28.714044972264446 $259 $551 forward 7 unknown #
coedge $-1 $416 $261 $405 $548 reversed $401 $-1 #
vertex $-1 $267 $552 #
vertex $-1 $262 $553 #
straight-curve $-1 28.253004469526459 28.714044972264446 4.1187759805264683 0 0 1 I I #
coedge $-1 $544 $264 $269 $420 reversed $256 $-1 #
vertex $-1 $265 $554 #
straight-curve $-1 17.655615386310721 -28.714044972264446 5.5788043097328206 1 0 0 I I #
coedge $-1 $266 $409 $268 $419 forward $401 $-1 #
straight-curve $-1 17.655615386310721 28.714044972264446 5.5788043097328206 -1 0 0 I I #
coedge $-1 $269 $268 $546 $555 reversed $270 $-1 #
edge $-1 $556 -10.896299612373053 $272 -5.5788043097328206 $268 $557 forward 7 unknown #
edge $-1 $558 -10.896299612373053 $271 -5.5788043097328206 $269 $559 forward 7 unknown #
point $-1 42.369457075716426 -28.714044972264446 5.5788043097328206 #
point $-1 42.369457075716426 28.714044972264446 5.5788043097328206 #
plane-surface $-1 0 0 10.896299612373053 0 0 1 1 0 0 forward_v I I I I #
coedge $-1 $434 $433 $426 $560 forward $275 $-1 #
coedge $-1 $426 $277 $279 $430 reversed $161 $-1 #
coedge $-1 $277 $425 $424 $560 reversed $161 $-1 #
coedge $-1 $285 $280 $277 $428 forward $286 $-1 #
edge $-1 $431 -11.247186188935952 $561 -7.1718649286522265 $427 $562 forward 7 unknown #
coedge $-1 $279 $278 $434 $563 reversed $101 $-1 #
edge $-1 $564 -57.428089944528885 $431 -49.515429576318205 $425 $565 forward 7 unknown #
vertex $-1 $281 $566 #
straight-curve $-1 -6.2838441976891737 24.638723711980724 10.896299612373053 1 0 0 I I #
coedge $-1 $424 $282 $285 $438 reversed $275 $-1 #
coedge $-1 $282 $424 $429 $563 forward $275 $-1 #
vertex $-1 $283 $567 #
straight-curve $-1 -17.507240711030249 28.714044972264446 48.491536611466941 0 0 1 I I #
straight-curve $-1 -17.507240711030249 -0.86360716969758755 53.3393071133587 0 0.51503806187062418 -0.85716730853699208 I I #
edge $-1 $561 7.6281360797264455 $287 17.507240711030249 $433 $568 forward 7 unknown #
point $-1 -17.507240711030249 28.714044972264446 10.896299612373053 #
point $-1 -17.507240711030249 24.63872371198072 10.896299612373056 #
edge $-1 $569 1 $569 0 $290 $-1 forward 7 unknown #
vertex $-1 $291 $570 #
ellipse-curve $-1 -12.567688395378347 25.643896274840049 6.8846813189108671 0 0.85716730853699208 0.51503806187062418 1 0 0 1 I I #
point $-1 -11.567688395378347 26.676384342122574 7.5050627167798103 #
loop $-1 $-1 $302 $294 #
plane-surface $-1 0 28.714044972264446 0 0 -1 0 0 0 -1 forward_v I I I I #
coedge $-1 $448 $297 $299 $452 reversed $176 $-1 #
coedge $-1 $297 $447 $571 $572 reversed $176 $-1 #
coedge $-1 $305 $300 $297 $450 forward $295 $-1 #
edge $-1 $453 -11.247186188935952 $573 -7.1718649286522265 $449 $574 forward 7 unknown #
coedge $-1 $299 $298 $456 $575 reversed $110 $-1 #
edge $-1 $576 -57.428089944528885 $453 -49.515429576318205 $447 $577 forward 7 unknown #
vertex $-1 $301 $578 #
straight-curve $-1 7.842658037074056 24.638723711980724 10.896299612373053 1 0 0 I I #
coedge $-1 $571 $302 $305 $460 reversed $445 $-1 #
coedge $-1 $302 $571 $451 $575 forward $445 $-1 #
vertex $-1 $303 $579 #
straight-curve $-1 10.74576375849621 28.714044972264446 48.491536611466941 0 0 1 I I #
straight-curve $-1 10.74576375849621 -0.86360716969758755 53.3393071133587 0 0.51503806187062418 -0.85716730853699208 I I #
edge $-1 $573 -20.624868389800014 $306 -10.74576375849621 $455 $580 forward 7 unknown #
point $-1 10.74576375849621 28.714044972264446 10.896299612373053 #
point $-1 10.74576375849621 24.63872371198072 10.896299612373056 #
edge $-1 $581 1 $581 0 $309 $-1 forward 7 unknown #
vertex $-1 $310 $582 #
ellipse-curve $-1 15.685316074148112 25.643896274840049 6.8846813189108671 0 0.85716730853699208 0.51503806187062418 1 0 0 1 I I #
point $-1 16.685316074148112 26.676384342122574 7.5050627167798103 #
loop $-1 $-1 $321 $313 #
plane-surface $-1 0 -28.714044972264446 0 0 1 0 0 0 1 forward_v I I I I #
coedge $-1 $470 $316 $318 $474 reversed $191 $-1 #
coedge $-1 $316 $469 $583 $584 reversed $191 $-1 #
coedge $-1 $324 $319 $316 $472 forward $314 $-1 #
edge $-1 $475 -26.036012259916966 $585 -21.96069099963325 $471 $586 forward 7 unknown #
coedge $-1 $318 $317 $478 $587 reversed $119 $-1 #
edge $-1 $588 2.787470371894754e-014 $475 7.9126603682106804 $469 $589 forward 7 unknown #
vertex $-1 $320 $590 #
straight-curve $-1 -6.2838441976891737 -24.638723711980735 10.896299612373053 -1 0 0 I I #
coedge $-1 $583 $321 $324 $482 reversed $467 $-1 #
coedge $-1 $321 $583 $473 $587 forward $467 $-1 #
vertex $-1 $322 $591 #
straight-curve $-1 -7.6281360797264455 -28.714044972264446 23.878795965380881 0 0 1 I I #
straight-curve $-1 -7.6281360797264455 -28.71404497226446 4.1138258211865804 0 -0.51503806187062418 -0.85716730853699208 I I #
edge $-1 $585 -17.507240711030249 $325 -7.6281360797264455 $477 $592 forward 7 unknown #
point $-1 -7.6281360797264455 -28.714044972264446 10.896299612373053 #
point $-1 -7.6281360797264455 -24.638723711980731 10.896299612373053 #
edge $-1 $593 1 $593 0 $328 $-1 forward 7 unknown #
vertex $-1 $329 $594 #
ellipse-curve $-1 -12.567688395378347 -25.643896274840056 6.8846813189108707 0 -0.85716730853699208 0.51503806187062418 1 0 0 1 I I #
point $-1 -11.567688395378347 -26.676384342122581 7.5050627167798138 #
plane-surface $-1 0 0 10.896299612373053 0 0 1 1 0 0 forward_v I I I I #
coedge $-1 $500 $499 $492 $595 forward $333 $-1 #
coedge $-1 $492 $335 $337 $496 reversed $206 $-1 #
coedge $-1 $335 $491 $490 $595 reversed $206 $-1 #
coedge $-1 $343 $338 $335 $494 forward $344 $-1 #
edge $-1 $497 -26.036012259916966 $596 -21.96069099963325 $493 $597 forward 7 unknown #
coedge $-1 $337 $336 $500 $598 reversed $128 $-1 #
edge $-1 $599 2.787470371894754e-014 $497 7.9126603682106804 $491 $600 forward 7 unknown #
vertex $-1 $339 $601 #
straight-curve $-1 7.842658037074056 -24.638723711980735 10.896299612373053 -1 0 0 I I #
coedge $-1 $490 $340 $343 $504 reversed $333 $-1 #
coedge $-1 $340 $490 $495 $598 forward $333 $-1 #
vertex $-1 $341 $602 #
straight-curve $-1 20.624868389800014 -28.714044972264446 23.878795965380881 0 0 1 I I #
straight-curve $-1 20.624868389800014 -28.71404497226446 4.1138258211865804 0 -0.51503806187062418 -0.85716730853699208 I I #
edge $-1 $596 10.74576375849621 $345 20.624868389800014 $499 $603 forward 7 unknown #
point $-1 20.624868389800014 -28.714044972264446 10.896299612373053 #
point $-1 20.624868389800014 -24.638723711980731 10.896299612373053 #
edge $-1 $604 1 $604 0 $348 $-1 forward 7 unknown #
vertex $-1 $349 $605 #
ellipse-curve $-1 15.685316074148112 -25.643896274840056 6.8846813189108707 0 -0.85716730853699208 0.51503806187062418 1 0 0 1 I I #
point $-1 16.685316074148112 -26.676384342122581 7.5050627167798138 #
plane-surface $-1 42.369457075716426 0 0 -1 0 0 0 0 1 forward_v I I I I #
coedge $-1 $357 $355 $359 $516 reversed $221 $-1 #
edge $-1 $370 -10.896299612373053 $518 10.896299612373053 $369 $606 forward 7 unknown #
vertex $-1 $516 $607 #
straight-curve $-1 -42.369457075716426 -28.714044972264446 0 0 0 -1 I I #
edge $-1 $514 -28.714044972264446 $518 28.714044972264446 $512 $608 forward 7 unknown #
straight-curve $-1 0 -28.714044972264446 -10.896299612373053 -1 0 0 I I #
vertex $-1 $362 $609 #
straight-curve $-1 0 28.714044972264446 -10.896299612373053 1 0 0 I I #
point $-1 42.369457075716426 28.714044972264446 -10.896299612373053 #
point $-1 42.369457075716426 -28.714044972264446 -10.896299612373053 #
straight-curve $-1 -42.369457075716426 0 10.896299612373053 0 -1 0 I I #
point $-1 -42.369457075716426 28.714044972264446 10.896299612373053 #
point $-1 -42.369457075716426 -28.714044972264446 10.896299612373053 #
straight-curve $-1 42.369457075716426 -28.714044972264446 0 0 0 -1 I I #
straight-curve $-1 42.369457075716426 28.714044972264446 0 0 0 -1 I I #
plane-surface $-1 0 -28.714044972264446 0 0 1 0 0 0 1 forward_v I I I I #
coedge $-1 $610 $382 $392 $539 reversed $240 $-1 #
coedge $-1 $382 $610 $395 $541 forward $240 $-1 #
coedge $-1 $611 $385 $383 $531 forward $380 $-1 #
edge $-1 $532 28.253004469526459 $612 42.369457075716426 $383 $613 forward 7 unknown #
vertex $-1 $531 $614 #
straight-curve $-1 -28.253004469526459 28.714044972264446 4.1187759805264683 0 0 -1 I I #
coedge $-1 $385 $611 $387 $536 forward $380 $-1 #
straight-curve $-1 -28.253004469526459 0 10.896299612373053 0 1 0 I I #
edge $-1 $615 -42.369457075716426 $389 -28.253004469526459 $387 $616 forward 7 unknown #
point $-1 -28.253004469526459 -28.714044972264446 10.896299612373053 #
straight-curve $-1 -42.369457075716426 0 5.5788043097328206 0 -1 0 I I #
edge $-1 $615 -10.896299612373053 $393 -5.5788043097328206 $528 $617 forward 7 unknown #
point $-1 -42.369457075716426 -28.714044972264446 5.5788043097328206 #
edge $-1 $612 -10.896299612373053 $396 -5.5788043097328206 $395 $618 forward 7 unknown #
point $-1 -42.369457075716426 28.714044972264446 5.5788043097328206 #
plane-surface $-1 42.369457075716426 0 0 -1 0 0 0 0 1 forward_v I I I I #
coedge $-1 $403 $413 $404 $547 reversed $256 $-1 #
edge $-1 $549 -6.7775236318465844 $414 -1.4600283292063523 $403 $619 forward 7 unknown #
coedge $-1 $405 $404 $418 $555 forward $153 $-1 #
edge $-1 $549 28.253004469526459 $558 42.369457075716426 $544 $620 forward 7 unknown #
edge $-1 $556 -42.369457075716426 $411 -28.253004469526459 $409 $621 forward 7 unknown #
vertex $-1 $547 $622 #
straight-curve $-1 28.253004469526459 0 10.896299612373053 0 -1 0 I I #
straight-curve $-1 28.253004469526459 0 5.5788043097328206 0 1 0 I I #
point $-1 28.253004469526459 28.714044972264446 5.5788043097328206 #
point $-1 28.253004469526459 28.714044972264446 10.896299612373053 #
point $-1 28.253004469526459 -28.714044972264446 5.5788043097328206 #
edge $-1 $558 -28.714044972264446 $556 28.714044972264446 $418 $623 forward 7 unknown #
vertex $-1 $555 $624 #
straight-curve $-1 42.369457075716426 28.714044972264446 0 0 0 -1 I I #
vertex $-1 $555 $625 #
straight-curve $-1 42.369457075716426 -28.714044972264446 0 0 0 -1 I I #
edge $-1 $561 37.595236999093885 $564 44.377710790280354 $424 $626 forward 7 unknown #
vertex $-1 $438 $627 #
straight-curve $-1 -7.6281360797264455 35.885909900916673 10.896299612373049 0 1 0 I I #
edge $-1 $564 1.3442918820372718 $435 11.223396513341076 $434 $628 forward 7 unknown #
vertex $-1 $563 $629 #
straight-curve $-1 -7.6281360797264455 -0.86360716969758755 53.3393071133587 0 -0.51503806187062418 0.85716730853699208 I I #
point $-1 -7.6281360797264455 24.63872371198072 10.896299612373056 #
point $-1 -17.507240711030249 28.714044972264446 4.1138258211865875 #
straight-curve $-1 0 28.714044972264446 10.896299612373053 -1 0 0 I I #
vertex $-1 $441 $630 #
point $-1 -11.567688395378347 25.643896274840049 6.8846813189108671 #
coedge $-1 $456 $455 $448 $572 forward $445 $-1 #
edge $-1 $573 37.595236999093885 $576 44.377710790280354 $571 $631 forward 7 unknown #
vertex $-1 $460 $632 #
straight-curve $-1 20.624868389800014 35.885909900916673 10.896299612373049 0 1 0 I I #
edge $-1 $576 -12.782210352725958 $457 -2.9031057214221541 $456 $633 forward 7 unknown #
vertex $-1 $575 $634 #
straight-curve $-1 20.624868389800014 -0.86360716969758755 53.3393071133587 0 -0.51503806187062418 0.85716730853699208 I I #
point $-1 20.624868389800014 24.63872371198072 10.896299612373056 #
point $-1 10.74576375849621 28.714044972264446 4.1138258211865875 #
straight-curve $-1 0 28.714044972264446 10.896299612373053 -1 0 0 I I #
vertex $-1 $463 $635 #
point $-1 16.685316074148112 25.643896274840049 6.8846813189108671 #
coedge $-1 $478 $477 $470 $584 forward $467 $-1 #
edge $-1 $585 12.982496353007829 $588 19.764970144194276 $583 $636 forward 7 unknown #
vertex $-1 $482 $637 #
straight-curve $-1 -17.507240711030249 -50.674735971897697 10.896299612373053 0 -1 0 I I #
edge $-1 $588 -11.223396513341076 $479 -1.3442918820372718 $478 $638 forward 7 unknown #
vertex $-1 $587 $639 #
straight-curve $-1 -17.507240711030249 -28.71404497226446 4.1138258211865804 0 0.51503806187062418 0.85716730853699208 I I #
point $-1 -17.507240711030249 -24.638723711980731 10.896299612373053 #
point $-1 -7.6281360797264455 -28.714044972264446 4.1138258211866043 #
straight-curve $-1 0 -28.714044972264446 10.896299612373053 1 0 0 I I #
vertex $-1 $485 $640 #
point $-1 -11.567688395378347 -25.643896274840056 6.8846813189108707 #
edge $-1 $596 12.982496353007829 $599 19.764970144194276 $490 $641 forward 7 unknown #
vertex $-1 $504 $642 #
straight-curve $-1 10.74576375849621 -50.674735971897697 10.896299612373053 0 -1 0 I I #
edge $-1 $599 2.9031057214221541 $501 12.782210352725958 $500 $643 forward 7 unknown #
vertex $-1 $598 $644 #
straight-curve $-1 10.74576375849621 -28.71404497226446 4.1138258211865804 0 0.51503806187062418 0.85716730853699208 I I #
point $-1 10.74576375849621 -24.638723711980731 10.896299612373053 #
point $-1 20.624868389800014 -28.714044972264446 4.1138258211866043 #
straight-curve $-1 0 -28.714044972264446 10.896299612373053 1 0 0 I I #
vertex $-1 $507 $645 #
point $-1 16.685316074148112 -25.643896274840056 6.8846813189108707 #
straight-curve $-1 -42.369457075716426 28.714044972264446 0 0 0 -1 I I #
point $-1 -42.369457075716426 -28.714044972264446 -10.896299612373053 #
straight-curve $-1 -42.369457075716426 0 -10.896299612373053 0 1 0 I I #
point $-1 -42.369457075716426 28.714044972264446 -10.896299612373053 #
coedge $-1 $529 $528 $611 $646 reversed $240 $-1 #
coedge $-1 $534 $530 $610 $646 forward $380 $-1 #
vertex $-1 $531 $647 #
straight-curve $-1 0 28.714044972264446 10.896299612373053 -1 0 0 I I #
point $-1 -28.253004469526459 28.714044972264446 10.896299612373053 #
vertex $-1 $646 $648 #
straight-curve $-1 0 -28.714044972264446 10.896299612373053 1 0 0 I I #
straight-curve $-1 -42.369457075716426 -28.714044972264446 0 0 0 -1 I I #
straight-curve $-1 -42.369457075716426 28.714044972264446 0 0 0 -1 I I #
straight-curve $-1 28.253004469526459 -28.714044972264446 4.1187759805264683 0 0 -1 I I #
straight-curve $-1 0 -28.714044972264446 10.896299612373053 1 0 0 I I #
straight-curve $-1 0 28.714044972264446 10.896299612373053 -1 0 0 I I #
point $-1 28.253004469526459 -28.714044972264446 10.896299612373053 #
straight-curve $-1 42.369457075716426 0 10.896299612373053 0 1 0 I I #
point $-1 42.369457075716426 28.714044972264446 10.896299612373053 #
point $-1 42.369457075716426 -28.714044972264446 10.896299612373053 #
straight-curve $-1 -7.6281360797264455 28.714044972264446 48.491536611466941 0 0 -1 I I #
point $-1 -7.6281360797264455 28.714044972264446 10.896299612373053 #
straight-curve $-1 -6.2838441976891737 28.714044972264446 4.1138258211865875 -1 0 0 I I #
point $-1 -7.6281360797264455 28.714044972264446 4.1138258211865875 #
point $-1 -12.567688395378347 24.786728966303055 6.3696432570402424 #
straight-curve $-1 20.624868389800014 28.714044972264446 48.491536611466941 0 0 -1 I I #
point $-1 20.624868389800014 28.714044972264446 10.896299612373053 #
straight-curve $-1 7.842658037074056 28.714044972264446 4.1138258211865875 -1 0 0 I I #
point $-1 20.624868389800014 28.714044972264446 4.1138258211865875 #
point $-1 15.685316074148112 24.786728966303055 6.3696432570402424 #
straight-curve $-1 -17.507240711030249 -28.714044972264446 23.878795965380881 0 0 -1 I I #
point $-1 -17.507240711030249 -28.714044972264446 10.896299612373053 #
straight-curve $-1 -6.2838441976891737 -28.714044972264446 4.1138258211866043 1 0 0 I I #
point $-1 -17.507240711030249 -28.714044972264446 4.1138258211866043 #
point $-1 -12.567688395378347 -24.786728966303063 6.3696432570402459 #
straight-curve $-1 10.74576375849621 -28.714044972264446 23.878795965380881 0 0 -1 I I #
point $-1 10.74576375849621 -28.714044972264446 10.896299612373053 #
straight-curve $-1 7.842658037074056 -28.714044972264446 4.1138258211866043 1 0 0 I I #
point $-1 10.74576375849621 -28.714044972264446 4.1138258211866043 #
point $-1 15.685316074148112 -24.786728966303063 6.3696432570402459 #
edge $-1 $612 -28.714044972264446 $615 28.714044972264446 $610 $649 forward 7 unknown #
point $-1 -42.369457075716426 28.714044972264446 10.896299612373053 #
point $-1 -42.369457075716426 -28.714044972264446 10.896299612373053 #
straight-curve $-1 -42.369457075716426 0 10.896299612373053 0 -1 0 I I #
End-of-ACIS-data 