500 0 8 0           
7 Unknown 11 ACIS 5.0 NT 24 Fri Mar 26 15:40:17 1999 
-1 9.9999999999999995e-007 1e-010 
body $-1 $8 $-1 $9 #
body $-1 $10 $-1 $11 #
body $-1 $12 $-1 $13 #
body $-1 $14 $-1 $15 #
body $-1 $16 $-1 $17 #
body $-1 $18 $-1 $19 #
body $-1 $20 $-1 $21 #
body $-1 $22 $-1 $23 #
lump $-1 $-1 $24 $0 #
transform $-1 1 0 0 0 1 0 0 0 1 51.418805505539112 29.08982790063272 7.4268859910374205 1 rotate no_reflect no_shear #
lump $-1 $-1 $25 $1 #
transform $-1 1 0 0 0 1 0 0 0 1 51.418805505539112 29.08982790063272 7.4268859910374205 1 rotate no_reflect no_shear #
lump $-1 $-1 $26 $2 #
transform $-1 1 0 0 0 1 0 0 0 1 51.418805505539112 29.08982790063272 7.4268859910374205 1 rotate no_reflect no_shear #
lump $-1 $-1 $27 $3 #
transform $-1 1 0 0 0 1 0 0 0 1 51.418805505539112 29.08982790063272 7.4268859910374205 1 rotate no_reflect no_shear #
lump $-1 $-1 $28 $4 #
transform $-1 1 0 0 0 1 0 0 0 1 51.418805505539112 29.08982790063272 7.4268859910374205 1 rotate no_reflect no_shear #
lump $-1 $-1 $29 $5 #
transform $-1 1 0 0 0 1 0 0 0 1 51.418805505539112 29.08982790063272 7.4268859910374205 1 rotate no_reflect no_shear #
lump $-1 $-1 $30 $6 #
transform $-1 1 0 0 0 1 0 0 0 1 51.418805505539112 29.08982790063272 7.4268859910374205 1 rotate no_reflect no_shear #
lump $-1 $-1 $31 $7 #
transform $-1 1 0 0 0 1 0 0 0 1 51.418805505539112 29.08982790063272 7.4268859910374205 1 rotate no_reflect no_shear #
shell $-1 $-1 $-1 $32 $-1 $8 #
shell $-1 $-1 $-1 $33 $-1 $10 #
shell $-1 $-1 $-1 $34 $-1 $12 #
shell $-1 $-1 $-1 $35 $-1 $14 #
shell $-1 $-1 $-1 $36 $-1 $16 #
shell $-1 $-1 $-1 $37 $-1 $18 #
shell $-1 $-1 $-1 $38 $-1 $20 #
shell $-1 $-1 $-1 $39 $-1 $22 #
face $-1 $40 $41 $24 $-1 $42 reversed single #
face $-1 $43 $44 $25 $-1 $45 forward single #
face $-1 $46 $47 $26 $-1 $48 forward single #
face $-1 $49 $50 $27 $-1 $51 reversed single #
face $-1 $52 $53 $28 $-1 $54 forward single #
face $-1 $55 $56 $29 $-1 $57 forward single #
face $-1 $58 $59 $30 $-1 $60 reversed single #
face $-1 $61 $62 $31 $-1 $63 forward single #
face $-1 $64 $65 $24 $-1 $66 forward single #
loop $-1 $-1 $67 $32 #
plane-surface $-1 51.418805505539112 0 0 -1 0 0 0 0 1 forward_v I I I I #
face $-1 $68 $69 $25 $-1 $70 reversed single #
loop $-1 $-1 $71 $33 #
plane-surface $-1 -51.418805505539112 0 0 1 0 0 0 0 -1 forward_v I I I I #
face $-1 $72 $73 $26 $-1 $74 reversed single #
loop $-1 $-1 $75 $34 #
plane-surface $-1 51.418805505539112 0 0 -1 0 0 0 0 1 forward_v I I I I #
face $-1 $76 $77 $27 $-1 $78 reversed single #
loop $-1 $-1 $79 $35 #
plane-surface $-1 34.340473700652133 38.362770602933914 121.57909869921507 1 0 0 0 -0.55919291073839883 -0.82903756765294845 forward_v I I I I #
face $-1 $80 $81 $28 $-1 $82 forward single #
loop $-1 $83 $84 $36 #
cone-surface $-1 37.330967493226112 25.781905899178103 4.7016373628439547 0 -0.55919291073839883 -0.82903756765294845 1 0 0 1 I I 0 1 1 forward I I I I #
face $-1 $85 $86 $29 $-1 $87 forward single #
loop $-1 $88 $89 $37 #
cone-surface $-1 41.816708182087083 25.781905899178103 4.7016373628439547 0 -0.55919291073839883 -0.82903756765294845 1 0 0 1 I I 0 1 1 forward I I I I #
face $-1 $90 $91 $30 $-1 $92 reversed single #
loop $-1 $-1 $93 $38 #
plane-surface $-1 -8.8950189942512186 -97.901621740562803 78.467735734128027 -1 0 0 0 -0.66913061440640931 0.74314481823134659 forward_v I I I I #
face $-1 $94 $95 $31 $-1 $96 forward single #
loop $-1 $97 $98 $39 #
cone-surface $-1 -21.159805982102785 -24.742558024355251 3.2270401982664572 0 0.66913061440640931 -0.74314481823134659 2 0 0 1 I I 0 1 2 forward I I I I #
face $-1 $99 $100 $24 $-1 $101 reversed single #
loop $-1 $-1 $102 $40 #
plane-surface $-1 0 0 7.4268859910374205 0 0 1 1 0 0 forward_v I I I I #
coedge $-1 $103 $104 $105 $106 reversed $41 $-1 #
face $-1 $107 $108 $25 $-1 $109 forward single #
loop $-1 $-1 $110 $43 #
plane-surface $-1 0 29.08982790063272 0 0 -1 0 0 0 -1 forward_v I I I I #
coedge $-1 $111 $112 $113 $114 forward $44 $-1 #
face $-1 $115 $116 $26 $-1 $117 forward single #
loop $-1 $-1 $118 $46 #
plane-surface $-1 0 -29.08982790063272 0 0 1 0 0 0 1 forward_v I I I I #
coedge $-1 $119 $120 $121 $122 forward $47 $-1 #
face $-1 $123 $124 $27 $-1 $125 reversed single #
loop $-1 $-1 $126 $49 #
plane-surface $-1 39.573837837656598 -19.143292431734132 36.322855803350706 0 0.55919291073839883 0.82903756765294845 1 0 0 forward_v I I I I #
coedge $-1 $127 $128 $129 $130 reversed $50 $-1 #
face $-1 $-1 $131 $28 $-1 $132 forward single #
loop $-1 $133 $134 $52 #
cone-surface $-1 37.330967493226112 24.890929518054236 3.3807105813012752 0 -0.55919291073839883 -0.82903756765294845 0.5 0 0 1 I I -0.70710678118654746 0.70710678118654746 0.5 forward I I I I #
loop $-1 $-1 $135 $36 #
coedge $-1 $84 $84 $136 $137 reversed $53 $-1 #
face $-1 $-1 $138 $29 $-1 $139 forward single #
loop $-1 $140 $141 $55 #
cone-surface $-1 41.816708182087083 24.890929518054236 3.3807105813012752 0 -0.55919291073839883 -0.82903756765294845 0.5 0 0 1 I I -0.70710678118654746 0.70710678118654746 0.5 forward I I I I #
loop $-1 $-1 $142 $37 #
coedge $-1 $89 $89 $143 $144 reversed $56 $-1 #
face $-1 $145 $146 $30 $-1 $147 reversed single #
loop $-1 $-1 $148 $58 #
plane-surface $-1 -21.159805982102789 -29.089827900632713 2.0444979919543727 0 -0.66913061440640931 0.74314481823134659 1 0 0 forward_v I I I I #
coedge $-1 $149 $150 $151 $152 reversed $59 $-1 #
face $-1 $-1 $153 $31 $-1 $154 forward single #
loop $-1 $155 $156 $61 #
cone-surface $-1 -21.159805982102785 -22.715031204305532 0.97524358680566703 0 0.66913061440640931 -0.74314481823134659 1 0 0 1 I I -0.70710678118654746 0.70710678118654746 1 forward I I I I #
loop $-1 $-1 $157 $39 #
coedge $-1 $98 $98 $158 $159 reversed $62 $-1 #
face $-1 $160 $161 $24 $-1 $162 reversed single #
loop $-1 $-1 $163 $64 #
plane-surface $-1 0 0 -7.4268859910374205 0 0 1 1 0 0 forward_v I I I I #
coedge $-1 $164 $165 $103 $166 forward $65 $-1 #
coedge $-1 $167 $67 $102 $166 reversed $41 $-1 #
coedge $-1 $67 $167 $163 $168 reversed $41 $-1 #
coedge $-1 $169 $170 $67 $106 forward $171 $-1 #
edge $-1 $172 -7.4268859910374205 $173 7.4268859910374205 $67 $174 forward 7 unknown #
face $-1 $175 $176 $25 $-1 $177 reversed single #
loop $-1 $-1 $113 $68 #
plane-surface $-1 -54.72460727097814 0 2.5655624675191961 0 0 1 1 0 0 forward_v I I I I #
coedge $-1 $178 $179 $112 $180 forward $69 $-1 #
coedge $-1 $181 $71 $182 $183 reversed $44 $-1 #
coedge $-1 $71 $181 $110 $180 reversed $44 $-1 #
coedge $-1 $184 $185 $71 $114 reversed $108 $-1 #
edge $-1 $186 -29.08982790063272 $187 29.08982790063272 $113 $188 forward 7 unknown #
face $-1 $189 $190 $26 $-1 $191 reversed single #
loop $-1 $-1 $192 $72 #
plane-surface $-1 54.72460727097814 0 2.5655624675191961 0 0 1 1 0 0 forward_v I I I I #
coedge $-1 $193 $194 $120 $195 forward $73 $-1 #
coedge $-1 $196 $75 $197 $198 reversed $47 $-1 #
coedge $-1 $75 $196 $118 $195 reversed $47 $-1 #
coedge $-1 $199 $200 $75 $122 reversed $116 $-1 #
edge $-1 $201 -29.08982790063272 $202 29.08982790063272 $121 $203 forward 7 unknown #
face $-1 $204 $205 $27 $-1 $206 reversed single #
loop $-1 $-1 $207 $76 #
plane-surface $-1 44.807201974661062 38.362770602933914 121.57909869921507 -1 0 0 0 0.55919291073839883 0.82903756765294845 forward_v I I I I #
coedge $-1 $208 $209 $210 $211 reversed $77 $-1 #
coedge $-1 $128 $79 $212 $213 reversed $50 $-1 #
coedge $-1 $79 $127 $208 $214 reversed $50 $-1 #
coedge $-1 $210 $215 $79 $130 forward $216 $-1 #
edge $-1 $217 -9.9084425991657632 $218 -4.5153584477658661 $129 $219 forward 7 unknown #
loop $-1 $-1 $136 $80 #
plane-surface $-1 39.573837837656598 -19.143292431734132 36.322855803350706 0 0.55919291073839883 0.82903756765294845 1 0 0 forward_v I I I I #
loop $-1 $-1 $220 $52 #
coedge $-1 $134 $134 $135 $221 reversed $81 $-1 #
coedge $-1 $135 $135 $134 $221 forward $83 $-1 #
coedge $-1 $136 $136 $84 $137 forward $131 $-1 #
edge $-1 $222 5.3130842352988438e-016 $222 6.2831853071796013 $136 $223 forward 7 unknown #
loop $-1 $-1 $143 $85 #
plane-surface $-1 39.573837837656598 -19.143292431734132 36.322855803350706 0 0.55919291073839883 0.82903756765294845 1 0 0 forward_v I I I I #
loop $-1 $-1 $224 $55 #
coedge $-1 $141 $141 $142 $225 reversed $86 $-1 #
coedge $-1 $142 $142 $141 $225 forward $88 $-1 #
coedge $-1 $143 $143 $89 $144 forward $138 $-1 #
edge $-1 $226 5.3130842352988438e-016 $226 6.2831853071796013 $143 $227 forward 7 unknown #
face $-1 $228 $229 $30 $-1 $230 forward single #
loop $-1 $-1 $231 $90 #
plane-surface $-1 -33.424592969954361 -97.901621740562803 78.467735734128027 1 0 0 0 0.66913061440640931 -0.74314481823134659 forward_v I I I I #
coedge $-1 $232 $233 $234 $235 reversed $91 $-1 #
coedge $-1 $150 $93 $236 $237 reversed $59 $-1 #
coedge $-1 $93 $149 $232 $238 reversed $59 $-1 #
coedge $-1 $234 $239 $93 $152 forward $229 $-1 #
edge $-1 $240 19.860982969648681 $241 25.838730310917011 $151 $242 forward 7 unknown #
loop $-1 $-1 $158 $94 #
plane-surface $-1 -21.159805982102789 -29.089827900632713 2.0444979919543727 0 -0.66913061440640931 0.74314481823134659 1 0 0 forward_v I I I I #
loop $-1 $-1 $243 $61 #
coedge $-1 $156 $156 $157 $244 reversed $95 $-1 #
coedge $-1 $157 $157 $156 $244 forward $97 $-1 #
coedge $-1 $158 $158 $98 $159 forward $153 $-1 #
edge $-1 $245 -1.5830416548844917e-015 $245 6.2831853071795987 $158 $246 forward 7 unknown #
face $-1 $247 $248 $24 $-1 $249 reversed single #
loop $-1 $-1 $250 $99 #
plane-surface $-1 0 -29.08982790063272 0 0 1 0 0 0 1 forward_v I I I I #
coedge $-1 $251 $252 $104 $168 forward $100 $-1 #
coedge $-1 $253 $102 $170 $254 forward $65 $-1 #
coedge $-1 $102 $253 $255 $256 forward $65 $-1 #
edge $-1 $257 -29.08982790063272 $172 29.08982790063272 $103 $258 forward 7 unknown #
coedge $-1 $104 $103 $259 $260 forward $41 $-1 #
edge $-1 $173 -29.08982790063272 $261 29.08982790063272 $104 $262 forward 7 unknown #
coedge $-1 $263 $105 $252 $264 reversed $171 $-1 #
coedge $-1 $105 $263 $164 $254 reversed $171 $-1 #
loop $-1 $-1 $105 $247 #
vertex $-1 $166 $265 #
vertex $-1 $168 $266 #
straight-curve $-1 51.418805505539112 29.08982790063272 0 0 0 -1 I I #
face $-1 $267 $268 $25 $-1 $269 reversed single #
loop $-1 $-1 $270 $107 #
plane-surface $-1 -54.72460727097814 0 -0.43443753248080474 0 0 1 1 0 0 forward_v I I I I #
coedge $-1 $271 $110 $272 $273 reversed $69 $-1 #
coedge $-1 $110 $271 $184 $274 reversed $69 $-1 #
edge $-1 $186 -2.5655624675191961 $275 0.43443753248080474 $110 $276 forward 7 unknown #
coedge $-1 $112 $111 $270 $277 forward $44 $-1 #
coedge $-1 $278 $279 $111 $183 forward $280 $-1 #
edge $-1 $281 -0.43443753248080474 $187 2.5655624675191961 $182 $282 forward 7 unknown #
coedge $-1 $283 $113 $179 $274 forward $108 $-1 #
coedge $-1 $113 $283 $278 $284 forward $108 $-1 #
vertex $-1 $180 $285 #
vertex $-1 $284 $286 #
straight-curve $-1 -51.418805505539112 0 2.5655624675191961 0 -1 0 I I #
face $-1 $287 $288 $26 $-1 $289 reversed single #
loop $-1 $-1 $290 $115 #
plane-surface $-1 54.72460727097814 0 -0.43443753248080474 0 0 1 1 0 0 forward_v I I I I #
coedge $-1 $200 $199 $291 $292 forward $116 $-1 #
coedge $-1 $293 $118 $294 $295 reversed $73 $-1 #
coedge $-1 $118 $293 $199 $296 reversed $73 $-1 #
edge $-1 $201 -2.5655624675191961 $297 0.43443753248080474 $118 $298 forward 7 unknown #
coedge $-1 $120 $119 $299 $300 forward $47 $-1 #
coedge $-1 $301 $302 $119 $198 forward $303 $-1 #
edge $-1 $304 -0.43443753248080474 $202 2.5655624675191961 $197 $305 forward 7 unknown #
coedge $-1 $192 $121 $194 $296 forward $116 $-1 #
coedge $-1 $121 $192 $301 $306 forward $116 $-1 #
vertex $-1 $195 $307 #
vertex $-1 $306 $308 #
straight-curve $-1 51.418805505539112 0 2.5655624675191961 0 1 0 I I #
face $-1 $-1 $216 $27 $-1 $309 forward single #
loop $-1 $-1 $310 $123 #
plane-surface $-1 0 29.08982790063272 0 0 -1 0 0 0 -1 forward_v I I I I #
coedge $-1 $311 $312 $313 $314 reversed $124 $-1 #
coedge $-1 $315 $126 $128 $214 forward $77 $-1 #
coedge $-1 $126 $315 $311 $316 forward $77 $-1 #
coedge $-1 $313 $129 $126 $211 forward $216 $-1 #
edge $-1 $218 14.553554781823834 $317 25.020283055832763 $210 $318 forward 7 unknown #
coedge $-1 $319 $320 $127 $213 forward $205 $-1 #
edge $-1 $321 -57.000344619524618 $217 -53.36266335857011 $212 $322 forward 7 unknown #
edge $-1 $218 51.674420861589525 $321 58.17965580126544 $128 $323 forward 7 unknown #
coedge $-1 $129 $313 $319 $324 forward $216 $-1 #
loop $-1 $-1 $313 $204 #
vertex $-1 $213 $325 #
vertex $-1 $130 $326 #
straight-curve $-1 34.340473700652133 19.181385301466957 7.4268859910374232 0 -1 0 I I #
coedge $-1 $220 $220 $-1 $327 reversed $133 $-1 #
edge $-1 $328 0 $328 6.2831853071796004 $134 $329 forward 7 unknown #
vertex $-1 $137 $330 #
ellipse-curve $-1 37.330967493226112 26.393285824932772 5.6080453605601663 0 0.55919291073839883 0.82903756765294845 1 0 0 1 I I #
coedge $-1 $224 $224 $-1 $331 reversed $140 $-1 #
edge $-1 $332 0 $332 6.2831853071796004 $141 $333 forward 7 unknown #
vertex $-1 $144 $334 #
ellipse-curve $-1 41.816708182087083 26.393285824932772 5.6080453605601663 0 0.55919291073839883 0.82903756765294845 1 0 0 1 I I #
face $-1 $-1 $335 $30 $-1 $336 reversed single #
loop $-1 $-1 $151 $145 #
plane-surface $-1 0 0 7.4268859910374205 0 0 1 1 0 0 forward_v I I I I #
coedge $-1 $337 $338 $339 $340 reversed $146 $-1 #
coedge $-1 $341 $148 $150 $238 forward $91 $-1 #
coedge $-1 $148 $341 $337 $342 forward $91 $-1 #
coedge $-1 $339 $151 $148 $235 forward $229 $-1 #
edge $-1 $241 -1.6848839968001759 $343 22.844689978902966 $234 $344 forward 7 unknown #
coedge $-1 $345 $346 $149 $237 forward $335 $-1 #
edge $-1 $347 -37.189369875109648 $240 -31.806981876026594 $236 $348 forward 7 unknown #
edge $-1 $241 -8.0438525501598868 $347 9.4405131238556439e-015 $150 $349 forward 7 unknown #
coedge $-1 $151 $339 $345 $350 forward $229 $-1 #
vertex $-1 $237 $351 #
vertex $-1 $152 $352 #
straight-curve $-1 -8.8950189942512186 -48.950810870281401 7.4268859910374232 0 1 0 I I #
coedge $-1 $243 $243 $-1 $353 reversed $155 $-1 #
edge $-1 $354 0 $354 6.2831853071796004 $156 $355 forward 7 unknown #
vertex $-1 $159 $356 #
ellipse-curve $-1 -21.159805982102785 -26.100954229998553 4.7356919914958935 0 -0.66913061440640931 0.74314481823134659 2 0 0 1 I I #
face $-1 $-1 $171 $24 $-1 $357 reversed single #
loop $-1 $-1 $358 $160 #
plane-surface $-1 -51.418805505539112 0 0 1 0 0 0 0 -1 forward_v I I I I #
coedge $-1 $359 $255 $358 $360 forward $161 $-1 #
coedge $-1 $361 $163 $359 $362 forward $100 $-1 #
coedge $-1 $163 $361 $169 $264 forward $100 $-1 #
coedge $-1 $165 $164 $363 $364 forward $65 $-1 #
edge $-1 $172 -51.418805505539112 $365 51.418805505539112 $170 $366 forward 7 unknown #
coedge $-1 $250 $259 $165 $256 reversed $161 $-1 #
edge $-1 $367 -51.418805505539112 $257 51.418805505539112 $255 $368 forward 7 unknown #
vertex $-1 $166 $369 #
straight-curve $-1 51.418805505539112 0 7.4268859910374205 0 1 0 I I #
coedge $-1 $255 $359 $167 $260 reversed $161 $-1 #
edge $-1 $257 -7.4268859910374205 $261 7.4268859910374205 $167 $370 forward 7 unknown #
vertex $-1 $260 $371 #
straight-curve $-1 51.418805505539112 0 -7.4268859910374205 0 -1 0 I I #
coedge $-1 $170 $169 $372 $373 reversed $171 $-1 #
edge $-1 $374 -51.418805505539112 $173 51.418805505539112 $169 $375 forward 7 unknown #
point $-1 51.418805505539112 29.08982790063272 7.4268859910374205 #
point $-1 51.418805505539112 29.08982790063272 -7.4268859910374205 #
face $-1 $-1 $280 $25 $-1 $376 reversed single #
loop $-1 $-1 $377 $175 #
plane-surface $-1 -58.030409036417169 0 1.0655624675191957 1 0 0 0 0 -1 forward_v I I I I #
coedge $-1 $378 $272 $181 $277 reversed $176 $-1 #
coedge $-1 $179 $178 $377 $379 reversed $69 $-1 #
coedge $-1 $270 $380 $178 $273 forward $176 $-1 #
edge $-1 $381 -3.3058017654390284 $275 3.3058017654390284 $178 $382 forward 7 unknown #
edge $-1 $186 -3.3058017654390284 $383 3.3058017654390284 $179 $384 forward 7 unknown #
vertex $-1 $180 $385 #
straight-curve $-1 -51.418805505539112 29.08982790063272 0 0 0 -1 I I #
edge $-1 $281 -29.08982790063272 $275 29.08982790063272 $270 $386 forward 7 unknown #
coedge $-1 $387 $182 $185 $284 reversed $280 $-1 #
coedge $-1 $182 $387 $378 $388 reversed $280 $-1 #
loop $-1 $-1 $182 $267 #
vertex $-1 $183 $389 #
straight-curve $-1 -51.418805505539112 -29.08982790063272 0 0 0 1 I I #
coedge $-1 $185 $184 $390 $391 forward $108 $-1 #
edge $-1 $392 -3.3058017654390284 $187 3.3058017654390284 $278 $393 forward 7 unknown #
point $-1 -51.418805505539112 29.08982790063272 2.5655624675191961 #
point $-1 -51.418805505539112 -29.08982790063272 2.5655624675191961 #
face $-1 $-1 $303 $26 $-1 $394 reversed single #
loop $-1 $-1 $395 $189 #
plane-surface $-1 58.030409036417169 0 1.0655624675191957 -1 0 0 0 0 1 forward_v I I I I #
coedge $-1 $294 $396 $397 $398 forward $190 $-1 #
coedge $-1 $395 $399 $192 $292 reversed $288 $-1 #
edge $-1 $400 -29.08982790063272 $401 29.08982790063272 $291 $402 forward 7 unknown #
coedge $-1 $194 $193 $395 $403 reversed $73 $-1 #
coedge $-1 $299 $290 $193 $295 forward $190 $-1 #
edge $-1 $404 -3.3058017654390284 $297 3.3058017654390284 $193 $405 forward 7 unknown #
edge $-1 $201 -3.3058017654390284 $400 3.3058017654390284 $194 $406 forward 7 unknown #
vertex $-1 $195 $407 #
straight-curve $-1 51.418805505539112 -29.08982790063272 0 0 0 -1 I I #
coedge $-1 $396 $294 $196 $300 reversed $190 $-1 #
edge $-1 $304 -29.08982790063272 $297 29.08982790063272 $299 $408 forward 7 unknown #
coedge $-1 $409 $197 $200 $306 reversed $303 $-1 #
coedge $-1 $197 $409 $396 $410 reversed $303 $-1 #
loop $-1 $-1 $197 $287 #
vertex $-1 $198 $411 #
straight-curve $-1 51.418805505539112 29.08982790063272 0 0 0 1 I I #
edge $-1 $401 -3.3058017654390284 $202 3.3058017654390284 $301 $412 forward 7 unknown #
point $-1 51.418805505539112 -29.08982790063272 2.5655624675191961 #
point $-1 51.418805505539112 29.08982790063272 2.5655624675191961 #
plane-surface $-1 0 0 7.4268859910374205 0 0 1 1 0 0 forward_v I I I I #
coedge $-1 $320 $319 $312 $413 forward $205 $-1 #
coedge $-1 $312 $207 $209 $316 reversed $124 $-1 #
coedge $-1 $207 $311 $310 $413 reversed $124 $-1 #
coedge $-1 $215 $210 $207 $314 forward $216 $-1 #
edge $-1 $317 4.5153584477658661 $414 9.9084425991657632 $313 $415 forward 7 unknown #
coedge $-1 $209 $208 $320 $416 reversed $77 $-1 #
edge $-1 $417 -58.17965580126544 $317 -51.674420861589525 $311 $418 forward 7 unknown #
vertex $-1 $211 $419 #
straight-curve $-1 19.786918918828299 23.696743749232827 7.4268859910374196 1 0 0 I I #
coedge $-1 $310 $212 $215 $324 reversed $205 $-1 #
coedge $-1 $212 $310 $315 $416 forward $205 $-1 #
vertex $-1 $213 $420 #
straight-curve $-1 34.340473700652133 29.08982790063272 60.789549349607533 0 0 1 I I #
straight-curve $-1 34.340473700652133 -19.143292431734132 36.322855803350706 0 0.82903756765294845 -0.55919291073839883 I I #
edge $-1 $414 -44.807201974661062 $217 -34.340473700652133 $319 $421 forward 7 unknown #
point $-1 34.340473700652133 29.08982790063272 7.4268859910374205 #
point $-1 34.340473700652133 23.696743749232823 7.4268859910374196 #
edge $-1 $422 1 $422 0 $220 $-1 forward 7 unknown #
vertex $-1 $221 $423 #
ellipse-curve $-1 37.330967493226112 25.170525973423434 3.7952293651277493 0 0.55919291073839883 0.82903756765294845 1 0 0 1 I I #
point $-1 38.330967493226112 26.393285824932768 5.6080453605601601 #
edge $-1 $424 1 $424 0 $224 $-1 forward 7 unknown #
vertex $-1 $225 $425 #
ellipse-curve $-1 41.816708182087083 25.170525973423434 3.7952293651277493 0 0.55919291073839883 0.82903756765294845 1 0 0 1 I I #
point $-1 42.816708182087083 26.393285824932768 5.6080453605601601 #
loop $-1 $-1 $236 $228 #
plane-surface $-1 0 -29.08982790063272 0 0 1 0 0 0 1 forward_v I I I I #
coedge $-1 $338 $231 $233 $342 reversed $146 $-1 #
coedge $-1 $231 $337 $426 $427 reversed $146 $-1 #
coedge $-1 $239 $234 $231 $340 forward $229 $-1 #
edge $-1 $343 -25.838730310917011 $428 -19.860982969648681 $339 $429 forward 7 unknown #
coedge $-1 $233 $232 $346 $430 reversed $91 $-1 #
edge $-1 $431 -9.4405131238556439e-015 $343 8.0438525501598868 $337 $432 forward 7 unknown #
vertex $-1 $235 $433 #
straight-curve $-1 -10.579902991051394 -23.112080559364387 7.4268859910374205 -1 0 0 I I #
coedge $-1 $426 $236 $239 $350 reversed $335 $-1 #
coedge $-1 $236 $426 $341 $430 forward $335 $-1 #
vertex $-1 $237 $434 #
straight-curve $-1 -8.8950189942512186 -29.08982790063272 39.233867867064014 0 0 1 I I #
straight-curve $-1 -8.8950189942512186 -29.089827900632713 2.0444979919543727 0 -0.74314481823134659 -0.66913061440640931 I I #
edge $-1 $428 -33.424592969954361 $240 -8.8950189942512186 $345 $435 forward 7 unknown #
point $-1 -8.8950189942512186 -29.08982790063272 7.4268859910374205 #
point $-1 -8.8950189942512186 -23.11208055936439 7.4268859910374196 #
edge $-1 $436 1 $436 0 $243 $-1 forward 7 unknown #
vertex $-1 $244 $437 #
ellipse-curve $-1 -21.159805982102785 -23.384161818711942 1.7183884050370137 0 -0.66913061440640931 0.74314481823134659 2 0 0 1 I I #
point $-1 -19.159805982102785 -26.100954229998564 4.7356919914959006 #
plane-surface $-1 0 29.08982790063272 0 0 -1 0 0 0 -1 forward_v I I I I #
coedge $-1 $363 $438 $250 $360 reversed $248 $-1 #
coedge $-1 $259 $250 $251 $362 reversed $161 $-1 #
edge $-1 $367 -7.4268859910374205 $439 7.4268859910374205 $358 $440 forward 7 unknown #
coedge $-1 $252 $251 $438 $441 forward $100 $-1 #
edge $-1 $261 -51.418805505539112 $439 51.418805505539112 $359 $442 forward 7 unknown #
coedge $-1 $372 $358 $253 $364 reversed $248 $-1 #
edge $-1 $365 -29.08982790063272 $367 29.08982790063272 $363 $443 forward 7 unknown #
vertex $-1 $254 $444 #
straight-curve $-1 0 29.08982790063272 7.4268859910374205 -1 0 0 I I #
vertex $-1 $364 $445 #
straight-curve $-1 0 -29.08982790063272 7.4268859910374205 1 0 0 I I #
point $-1 51.418805505539112 -29.08982790063272 7.4268859910374205 #
straight-curve $-1 51.418805505539112 -29.08982790063272 0 0 0 -1 I I #
point $-1 51.418805505539112 -29.08982790063272 -7.4268859910374205 #
coedge $-1 $438 $363 $263 $373 forward $248 $-1 #
edge $-1 $365 -7.4268859910374205 $374 7.4268859910374205 $263 $446 forward 7 unknown #
vertex $-1 $264 $447 #
straight-curve $-1 0 29.08982790063272 -7.4268859910374205 1 0 0 I I #
plane-surface $-1 0 -29.08982790063272 0 0 1 0 0 0 1 forward_v I I I I #
coedge $-1 $448 $390 $271 $379 forward $268 $-1 #
coedge $-1 $380 $270 $279 $388 forward $176 $-1 #
edge $-1 $383 -1.5000000000000004 $381 1.5000000000000004 $271 $449 forward 7 unknown #
coedge $-1 $272 $378 $448 $450 forward $176 $-1 #
vertex $-1 $273 $451 #
straight-curve $-1 -54.72460727097814 29.08982790063272 -0.43443753248080474 1 0 0 I I #
vertex $-1 $274 $452 #
straight-curve $-1 -54.72460727097814 29.08982790063272 2.5655624675191961 -1 0 0 I I #
point $-1 -51.418805505539112 29.08982790063272 -0.43443753248080474 #
straight-curve $-1 -51.418805505539112 0 -0.43443753248080474 0 1 0 I I #
coedge $-1 $279 $278 $453 $454 forward $280 $-1 #
edge $-1 $281 -3.3058017654390284 $455 3.3058017654390284 $279 $456 forward 7 unknown #
point $-1 -51.418805505539112 -29.08982790063272 -0.43443753248080474 #
coedge $-1 $377 $453 $283 $391 reversed $268 $-1 #
edge $-1 $383 -29.08982790063272 $392 29.08982790063272 $390 $457 forward 7 unknown #
vertex $-1 $391 $458 #
straight-curve $-1 -54.72460727097814 -29.08982790063272 2.5655624675191961 1 0 0 I I #
plane-surface $-1 0 29.08982790063272 0 0 -1 0 0 0 -1 forward_v I I I I #
coedge $-1 $397 $291 $293 $403 forward $288 $-1 #
coedge $-1 $290 $299 $302 $410 forward $190 $-1 #
coedge $-1 $399 $395 $290 $398 reversed $288 $-1 #
edge $-1 $459 -29.08982790063272 $404 29.08982790063272 $397 $460 forward 7 unknown #
coedge $-1 $291 $397 $409 $461 reversed $288 $-1 #
vertex $-1 $292 $462 #
vertex $-1 $292 $463 #
straight-curve $-1 58.030409036417169 0 2.5655624675191961 0 1 0 I I #
edge $-1 $400 -1.5000000000000004 $404 1.5000000000000004 $395 $464 forward 7 unknown #
vertex $-1 $403 $465 #
straight-curve $-1 54.72460727097814 -29.08982790063272 -0.43443753248080474 -1 0 0 I I #
straight-curve $-1 54.72460727097814 -29.08982790063272 2.5655624675191961 1 0 0 I I #
point $-1 51.418805505539112 -29.08982790063272 -0.43443753248080474 #
straight-curve $-1 51.418805505539112 0 -0.43443753248080474 0 -1 0 I I #
coedge $-1 $302 $301 $399 $461 forward $303 $-1 #
edge $-1 $304 -3.3058017654390284 $459 3.3058017654390284 $302 $466 forward 7 unknown #
point $-1 51.418805505539112 29.08982790063272 -0.43443753248080474 #
straight-curve $-1 54.72460727097814 29.08982790063272 2.5655624675191961 -1 0 0 I I #
edge $-1 $414 53.36266335857011 $417 57.000344619524618 $310 $467 forward 7 unknown #
vertex $-1 $324 $468 #
straight-curve $-1 44.807201974661062 19.181385301466957 7.4268859910374232 0 1 0 I I #
edge $-1 $417 -25.020283055832763 $321 -14.553554781823834 $320 $469 forward 7 unknown #
vertex $-1 $416 $470 #
straight-curve $-1 44.807201974661062 -19.143292431734132 36.322855803350706 0 -0.82903756765294845 0.55919291073839883 I I #
point $-1 44.807201974661062 23.696743749232823 7.4268859910374196 #
point $-1 34.340473700652133 29.08982790063272 3.7892047300829148 #
straight-curve $-1 0 29.08982790063272 7.4268859910374205 -1 0 0 I I #
vertex $-1 $327 $471 #
point $-1 38.330967493226112 25.170525973423434 3.7952293651277493 #
vertex $-1 $331 $472 #
point $-1 42.816708182087083 25.170525973423434 3.7952293651277493 #
coedge $-1 $346 $345 $338 $427 forward $335 $-1 #
edge $-1 $428 31.806981876026594 $431 37.189369875109648 $426 $473 forward 7 unknown #
vertex $-1 $350 $474 #
straight-curve $-1 -33.424592969954361 -48.950810870281401 7.4268859910374232 0 -1 0 I I #
edge $-1 $431 -22.844689978902966 $347 1.6848839968001759 $346 $475 forward 7 unknown #
vertex $-1 $430 $476 #
straight-curve $-1 -33.424592969954361 -29.089827900632713 2.0444979919543727 0 0.74314481823134659 0.66913061440640931 I I #
point $-1 -33.424592969954361 -23.11208055936439 7.4268859910374196 #
point $-1 -8.8950189942512186 -29.08982790063272 2.0444979919543664 #
straight-curve $-1 0 -29.08982790063272 7.4268859910374205 1 0 0 I I #
vertex $-1 $353 $477 #
point $-1 -19.159805982102785 -23.384161818711942 1.7183884050370137 #
coedge $-1 $358 $372 $361 $441 reversed $248 $-1 #
vertex $-1 $441 $478 #
straight-curve $-1 -51.418805505539112 -29.08982790063272 0 0 0 -1 I I #
edge $-1 $439 -29.08982790063272 $374 29.08982790063272 $438 $479 forward 7 unknown #
straight-curve $-1 0 -29.08982790063272 -7.4268859910374205 -1 0 0 I I #
straight-curve $-1 -51.418805505539112 0 7.4268859910374205 0 -1 0 I I #
point $-1 -51.418805505539112 29.08982790063272 7.4268859910374205 #
point $-1 -51.418805505539112 -29.08982790063272 7.4268859910374205 #
straight-curve $-1 -51.418805505539112 29.08982790063272 0 0 0 -1 I I #
point $-1 -51.418805505539112 29.08982790063272 -7.4268859910374205 #
coedge $-1 $453 $377 $380 $450 reversed $268 $-1 #
straight-curve $-1 -58.030409036417169 29.08982790063272 1.0655624675191957 0 0 -1 I I #
edge $-1 $455 -29.08982790063272 $381 29.08982790063272 $448 $480 forward 7 unknown #
point $-1 -58.030409036417169 29.08982790063272 -0.43443753248080474 #
point $-1 -58.030409036417169 29.08982790063272 2.5655624675191961 #
coedge $-1 $390 $448 $387 $454 reversed $268 $-1 #
edge $-1 $392 -1.5000000000000004 $455 1.5000000000000004 $453 $481 forward 7 unknown #
vertex $-1 $450 $482 #
straight-curve $-1 -54.72460727097814 -29.08982790063272 -0.43443753248080474 -1 0 0 I I #
straight-curve $-1 -58.030409036417169 0 2.5655624675191961 0 -1 0 I I #
point $-1 -58.030409036417169 -29.08982790063272 2.5655624675191961 #
vertex $-1 $398 $483 #
straight-curve $-1 58.030409036417169 0 -0.43443753248080474 0 -1 0 I I #
edge $-1 $401 -1.5000000000000004 $459 1.5000000000000004 $399 $484 forward 7 unknown #
point $-1 58.030409036417169 -29.08982790063272 2.5655624675191961 #
point $-1 58.030409036417169 29.08982790063272 2.5655624675191961 #
straight-curve $-1 58.030409036417169 -29.08982790063272 1.0655624675191957 0 0 -1 I I #
point $-1 58.030409036417169 -29.08982790063272 -0.43443753248080474 #
straight-curve $-1 54.72460727097814 29.08982790063272 -0.43443753248080474 1 0 0 I I #
straight-curve $-1 44.807201974661062 29.08982790063272 60.789549349607533 0 0 -1 I I #
point $-1 44.807201974661062 29.08982790063272 7.4268859910374205 #
straight-curve $-1 19.786918918828299 29.089827900632724 3.7892047300829113 -1 0 0 I I #
point $-1 44.807201974661062 29.08982790063272 3.7892047300829148 #
point $-1 37.330967493226112 24.611333062685038 2.9661917974748011 #
point $-1 41.816708182087083 24.611333062685038 2.9661917974748011 #
straight-curve $-1 -33.424592969954361 -29.08982790063272 39.233867867064014 0 0 -1 I I #
point $-1 -33.424592969954361 -29.08982790063272 7.4268859910374205 #
straight-curve $-1 -10.579902991051394 -29.08982790063272 2.0444979919543669 1 0 0 I I #
point $-1 -33.424592969954361 -29.08982790063272 2.0444979919543664 #
point $-1 -21.159805982102785 -22.045900589899123 0.23209876857432044 #
point $-1 -51.418805505539112 -29.08982790063272 -7.4268859910374205 #
straight-curve $-1 -51.418805505539112 0 -7.4268859910374205 0 1 0 I I #
straight-curve $-1 -58.030409036417169 0 -0.43443753248080474 0 1 0 I I #
straight-curve $-1 -58.030409036417169 -29.08982790063272 1.0655624675191957 0 0 -1 I I #
point $-1 -58.030409036417169 -29.08982790063272 -0.43443753248080474 #
point $-1 58.030409036417169 29.08982790063272 -0.43443753248080474 #
straight-curve $-1 58.030409036417169 29.08982790063272 1.0655624675191957 0 0 -1 I I #
End-of-ACIS-data 