500 0 10 0           
7 Unknown 11 ACIS 5.0 NT 24 Fri Mar 26 00:29:24 1999 
-1 9.9999999999999995e-007 1e-010 
body $-1 $10 $-1 $11 #
body $-1 $12 $-1 $13 #
body $-1 $14 $-1 $15 #
body $-1 $16 $-1 $17 #
body $-1 $18 $-1 $19 #
body $-1 $20 $-1 $21 #
body $-1 $22 $-1 $23 #
body $-1 $24 $-1 $25 #
body $-1 $26 $-1 $27 #
body $-1 $28 $-1 $29 #
lump $-1 $-1 $30 $0 #
transform $-1 1 0 0 0 1 0 0 0 1 67.703482161931205 44.37742481244269 19.867115018194085 1 rotate no_reflect no_shear #
lump $-1 $-1 $31 $1 #
transform $-1 1 0 0 0 1 0 0 0 1 67.703482161931205 44.37742481244269 19.867115018194085 1 rotate no_reflect no_shear #
lump $-1 $-1 $32 $2 #
transform $-1 1 0 0 0 1 0 0 0 1 67.703482161931205 44.37742481244269 19.867115018194085 1 rotate no_reflect no_shear #
lump $-1 $-1 $33 $3 #
transform $-1 1 0 0 0 1 0 0 0 1 67.703482161931205 44.37742481244269 19.867115018194085 1 rotate no_reflect no_shear #
lump $-1 $-1 $34 $4 #
transform $-1 1 0 0 0 1 0 0 0 1 67.703482161931205 44.37742481244269 19.867115018194085 1 rotate no_reflect no_shear #
lump $-1 $-1 $35 $5 #
transform $-1 1 0 0 0 1 0 0 0 1 67.703482161931205 44.37742481244269 19.867115018194085 1 rotate no_reflect no_shear #
lump $-1 $-1 $36 $6 #
transform $-1 1 0 0 0 1 0 0 0 1 67.703482161931205 44.37742481244269 19.867115018194085 1 rotate no_reflect no_shear #
lump $-1 $-1 $37 $7 #
transform $-1 1 0 0 0 1 0 0 0 1 67.703482161931205 44.37742481244269 19.867115018194085 1 rotate no_reflect no_shear #
lump $-1 $-1 $38 $8 #
transform $-1 1 0 0 0 1 0 0 0 1 67.703482161931205 44.37742481244269 19.867115018194085 1 rotate no_reflect no_shear #
lump $-1 $-1 $39 $9 #
transform $-1 1 0 0 0 1 0 0 0 1 67.703482161931205 44.37742481244269 19.867115018194085 1 rotate no_reflect no_shear #
shell $-1 $-1 $-1 $40 $-1 $10 #
shell $-1 $-1 $-1 $41 $-1 $12 #
shell $-1 $-1 $-1 $42 $-1 $14 #
shell $-1 $-1 $-1 $43 $-1 $16 #
shell $-1 $-1 $-1 $44 $-1 $18 #
shell $-1 $-1 $-1 $45 $-1 $20 #
shell $-1 $-1 $-1 $46 $-1 $22 #
shell $-1 $-1 $-1 $47 $-1 $24 #
shell $-1 $-1 $-1 $48 $-1 $26 #
shell $-1 $-1 $-1 $49 $-1 $28 #
face $-1 $50 $51 $30 $-1 $52 reversed single #
face $-1 $53 $54 $31 $-1 $55 forward single #
face $-1 $56 $57 $32 $-1 $58 forward single #
face $-1 $59 $60 $33 $-1 $61 reversed single #
face $-1 $62 $63 $34 $-1 $64 forward single #
face $-1 $65 $66 $35 $-1 $67 reversed single #
face $-1 $68 $69 $36 $-1 $70 forward single #
face $-1 $71 $72 $37 $-1 $73 reversed single #
face $-1 $74 $75 $38 $-1 $76 forward single #
face $-1 $77 $78 $39 $-1 $79 forward single #
face $-1 $80 $81 $30 $-1 $82 forward single #
loop $-1 $-1 $83 $40 #
plane-surface $-1 67.703482161931205 0 0 -1 0 0 0 0 1 forward_v I I I I #
face $-1 $84 $85 $31 $-1 $86 reversed single #
loop $-1 $-1 $87 $41 #
plane-surface $-1 -67.703482161931205 0 0 1 0 0 0 0 -1 forward_v I I I I #
face $-1 $88 $89 $32 $-1 $90 reversed single #
loop $-1 $-1 $91 $42 #
plane-surface $-1 67.703482161931205 0 0 -1 0 0 0 0 1 forward_v I I I I #
face $-1 $92 $93 $33 $-1 $94 reversed single #
loop $-1 $-1 $95 $43 #
plane-surface $-1 -35.5237725865288 52.163461321025203 168.35675022256922 1 0 0 0 -0.5877852598018023 -0.80901698891910034 forward_v I I I I #
face $-1 $96 $97 $34 $-1 $98 forward single #
loop $-1 $99 $100 $44 #
cone-surface $-1 -26.519843341049246 33.108197889053081 10.271063773653951 0 -0.5877852598018023 -0.80901698891910034 3 0 0 1 I I 0 1 3 forward I I I I #
face $-1 $101 $102 $35 $-1 $103 reversed single #
loop $-1 $-1 $104 $45 #
plane-surface $-1 17.515914095569698 52.163461321025203 168.35675022256922 1 0 0 0 -0.5877852598018023 -0.80901698891910034 forward_v I I I I #
face $-1 $105 $106 $36 $-1 $107 forward single #
loop $-1 $108 $109 $46 #
cone-surface $-1 26.519843341049253 33.108197889053081 10.271063773653951 0 -0.5877852598018023 -0.80901698891910034 3 0 0 1 I I 0 1 3 forward I I I I #
face $-1 $110 $111 $37 $-1 $112 reversed single #
loop $-1 $-1 $113 $47 #
plane-surface $-1 -20.381976972434472 -161.64329681361824 72.665244368339913 -1 0 0 0 -0.86602541151947299 0.49999998660252726 forward_v I I I I #
face $-1 $114 $115 $38 $-1 $116 forward single #
loop $-1 $117 $118 $48 #
cone-surface $-1 -28.786999496653401 -38.887050344891435 11.728795444586254 0 0.86602541151947299 -0.49999998660252726 1 0 0 1 I I 0 1 1 forward I I I I #
face $-1 $119 $120 $39 $-1 $121 forward single #
loop $-1 $122 $123 $49 #
cone-surface $-1 -23.743985982122041 -38.887050344891435 11.728795444586254 0 0.86602541151947299 -0.49999998660252726 1 0 0 1 I I 0 1 1 forward I I I I #
face $-1 $124 $125 $30 $-1 $126 reversed single #
loop $-1 $-1 $127 $50 #
plane-surface $-1 0 0 19.867115018194085 0 0 1 1 0 0 forward_v I I I I #
coedge $-1 $128 $129 $130 $131 reversed $51 $-1 #
face $-1 $132 $133 $31 $-1 $134 forward single #
loop $-1 $-1 $135 $53 #
plane-surface $-1 0 44.37742481244269 0 0 -1 0 0 0 -1 forward_v I I I I #
coedge $-1 $136 $137 $138 $139 forward $54 $-1 #
face $-1 $140 $141 $32 $-1 $142 forward single #
loop $-1 $-1 $143 $56 #
plane-surface $-1 0 -44.37742481244269 0 0 1 0 0 0 1 forward_v I I I I #
coedge $-1 $144 $145 $146 $147 forward $57 $-1 #
face $-1 $148 $149 $33 $-1 $150 reversed single #
loop $-1 $-1 $151 $59 #
plane-surface $-1 -26.519843341049246 -27.426756383049643 58.810215666602005 0 0.5877852598018023 0.80901698891910034 1 0 0 forward_v I I I I #
coedge $-1 $152 $153 $154 $155 reversed $60 $-1 #
face $-1 $-1 $156 $34 $-1 $157 forward single #
loop $-1 $158 $159 $62 #
cone-surface $-1 -26.519843341049246 30.059094367054392 6.0743328942477817 0 -0.5877852598018023 -0.80901698891910034 1.5 0 0 1 I I -0.70710678118654757 0.70710678118654757 1.5 forward I I I I #
loop $-1 $-1 $160 $44 #
coedge $-1 $100 $100 $161 $162 reversed $63 $-1 #
face $-1 $163 $164 $35 $-1 $165 reversed single #
loop $-1 $-1 $166 $65 #
plane-surface $-1 26.519843341049253 -27.426756383049643 58.810215666602005 0 0.5877852598018023 0.80901698891910034 1 0 0 forward_v I I I I #
coedge $-1 $167 $168 $169 $170 reversed $66 $-1 #
face $-1 $-1 $171 $36 $-1 $172 forward single #
loop $-1 $173 $174 $68 #
cone-surface $-1 26.519843341049253 30.059094367054392 6.0743328942477817 0 -0.5877852598018023 -0.80901698891910034 1.5 0 0 1 I I -0.70710678118654757 0.70710678118654757 1.5 forward I I I I #
loop $-1 $-1 $175 $46 #
coedge $-1 $109 $109 $176 $177 reversed $69 $-1 #
face $-1 $178 $179 $37 $-1 $180 reversed single #
loop $-1 $-1 $181 $71 #
plane-surface $-1 -26.265492739387724 -44.377424812442698 4.9617640205198228 0 -0.86602541151947299 0.49999998660252726 1 0 0 forward_v I I I I #
coedge $-1 $182 $183 $184 $185 reversed $72 $-1 #
face $-1 $-1 $186 $38 $-1 $187 forward single #
loop $-1 $188 $189 $74 #
cone-surface $-1 -28.786999496653401 -37.266467223292459 10.793151376514295 0 0.86602541151947299 -0.49999998660252726 0.5 0 0 1 I I -0.70710678118654746 0.70710678118654746 0.5 forward I I I I #
loop $-1 $-1 $190 $48 #
coedge $-1 $118 $118 $191 $192 reversed $75 $-1 #
face $-1 $-1 $193 $39 $-1 $194 forward single #
loop $-1 $195 $196 $77 #
cone-surface $-1 -23.743985982122041 -37.266467223292459 10.793151376514295 0 0.86602541151947299 -0.49999998660252726 0.5 0 0 1 I I -0.70710678118654746 0.70710678118654746 0.5 forward I I I I #
loop $-1 $-1 $197 $49 #
coedge $-1 $123 $123 $198 $199 reversed $78 $-1 #
face $-1 $200 $201 $30 $-1 $202 reversed single #
loop $-1 $-1 $203 $80 #
plane-surface $-1 0 0 -19.867115018194085 0 0 1 1 0 0 forward_v I I I I #
coedge $-1 $204 $205 $128 $206 forward $81 $-1 #
coedge $-1 $207 $83 $127 $206 reversed $51 $-1 #
coedge $-1 $83 $207 $203 $208 reversed $51 $-1 #
coedge $-1 $209 $210 $83 $131 forward $211 $-1 #
edge $-1 $212 -19.867115018194085 $213 19.867115018194085 $83 $214 forward 7 unknown #
face $-1 $215 $216 $31 $-1 $217 reversed single #
loop $-1 $-1 $138 $84 #
plane-surface $-1 -75.935932726517123 0 1.1221827824802872 0 0 1 1 0 0 forward_v I I I I #
coedge $-1 $218 $219 $137 $220 forward $85 $-1 #
coedge $-1 $221 $87 $222 $223 reversed $54 $-1 #
coedge $-1 $87 $221 $135 $220 reversed $54 $-1 #
coedge $-1 $224 $225 $87 $139 reversed $133 $-1 #
edge $-1 $226 -44.37742481244269 $227 44.37742481244269 $138 $228 forward 7 unknown #
face $-1 $229 $230 $32 $-1 $231 reversed single #
loop $-1 $-1 $232 $88 #
plane-surface $-1 75.935932726517123 0 1.1221827824802872 0 0 1 1 0 0 forward_v I I I I #
coedge $-1 $233 $234 $145 $235 forward $89 $-1 #
coedge $-1 $236 $91 $237 $238 reversed $57 $-1 #
coedge $-1 $91 $236 $143 $235 reversed $57 $-1 #
coedge $-1 $239 $240 $91 $147 reversed $141 $-1 #
edge $-1 $241 -44.37742481244269 $242 44.37742481244269 $146 $243 forward 7 unknown #
face $-1 $244 $245 $33 $-1 $246 reversed single #
loop $-1 $-1 $247 $92 #
plane-surface $-1 -17.515914095569691 52.163461321025203 168.35675022256922 -1 0 0 0 0.5877852598018023 0.80901698891910034 forward_v I I I I #
coedge $-1 $248 $249 $250 $251 reversed $93 $-1 #
coedge $-1 $153 $95 $252 $253 reversed $60 $-1 #
coedge $-1 $95 $152 $248 $254 reversed $60 $-1 #
coedge $-1 $250 $255 $95 $155 forward $256 $-1 #
edge $-1 $257 -18.295694151930089 $258 -0.092091569742809298 $154 $259 forward 7 unknown #
loop $-1 $-1 $161 $96 #
plane-surface $-1 -26.519843341049246 -27.426756383049643 58.810215666602005 0 0.5877852598018023 0.80901698891910034 1 0 0 forward_v I I I I #
loop $-1 $-1 $260 $62 #
coedge $-1 $159 $159 $160 $261 reversed $97 $-1 #
coedge $-1 $160 $160 $159 $261 forward $99 $-1 #
coedge $-1 $161 $161 $100 $162 forward $156 $-1 #
edge $-1 $262 -1.7209558408524861e-016 $262 6.2831853071796004 $161 $263 forward 7 unknown #
face $-1 $264 $265 $35 $-1 $266 forward single #
loop $-1 $-1 $267 $101 #
plane-surface $-1 35.523772586528807 52.163461321025203 168.35675022256922 -1 0 0 0 0.5877852598018023 0.80901698891910034 forward_v I I I I #
coedge $-1 $268 $269 $270 $271 reversed $102 $-1 #
coedge $-1 $168 $104 $272 $273 reversed $66 $-1 #
coedge $-1 $104 $167 $268 $274 reversed $66 $-1 #
coedge $-1 $270 $275 $104 $170 forward $265 $-1 #
edge $-1 $276 -18.295694151930089 $277 -0.092091569742809298 $169 $278 forward 7 unknown #
loop $-1 $-1 $176 $105 #
plane-surface $-1 26.519843341049253 -27.426756383049643 58.810215666602005 0 0.5877852598018023 0.80901698891910034 1 0 0 forward_v I I I I #
loop $-1 $-1 $279 $68 #
coedge $-1 $174 $174 $175 $280 reversed $106 $-1 #
coedge $-1 $175 $175 $174 $280 forward $108 $-1 #
coedge $-1 $176 $176 $109 $177 forward $171 $-1 #
edge $-1 $281 -1.7209558408524861e-016 $281 6.2831853071796004 $176 $282 forward 7 unknown #
face $-1 $283 $284 $37 $-1 $285 forward single #
loop $-1 $-1 $286 $110 #
plane-surface $-1 -32.149008506340977 -161.64329681361824 72.665244368339913 1 0 0 0 0.86602541151947299 -0.49999998660252726 forward_v I I I I #
coedge $-1 $287 $288 $289 $290 reversed $111 $-1 #
coedge $-1 $183 $113 $291 $292 reversed $72 $-1 #
coedge $-1 $113 $182 $287 $293 reversed $72 $-1 #
coedge $-1 $289 $294 $113 $185 forward $284 $-1 #
edge $-1 $295 36.444223594366427 $296 45.049831697790438 $184 $297 forward 7 unknown #
loop $-1 $-1 $191 $114 #
plane-surface $-1 -26.265492739387724 -44.377424812442698 4.9617640205198228 0 -0.86602541151947299 0.49999998660252726 1 0 0 forward_v I I I I #
loop $-1 $-1 $298 $74 #
coedge $-1 $189 $189 $190 $299 reversed $115 $-1 #
coedge $-1 $190 $190 $189 $299 forward $117 $-1 #
coedge $-1 $191 $191 $118 $192 forward $186 $-1 #
edge $-1 $300 -1.0623969049353655e-015 $300 6.2831853071795996 $191 $301 forward 7 unknown #
loop $-1 $-1 $198 $119 #
plane-surface $-1 -26.265492739387724 -44.377424812442698 4.9617640205198228 0 -0.86602541151947299 0.49999998660252726 1 0 0 forward_v I I I I #
loop $-1 $-1 $302 $77 #
coedge $-1 $196 $196 $197 $303 reversed $120 $-1 #
coedge $-1 $197 $197 $196 $303 forward $122 $-1 #
coedge $-1 $198 $198 $123 $199 forward $193 $-1 #
edge $-1 $304 -1.0623969049353655e-015 $304 6.2831853071795996 $198 $305 forward 7 unknown #
face $-1 $306 $307 $30 $-1 $308 reversed single #
loop $-1 $-1 $309 $124 #
plane-surface $-1 0 -44.37742481244269 0 0 1 0 0 0 1 forward_v I I I I #
coedge $-1 $310 $311 $129 $208 forward $125 $-1 #
coedge $-1 $312 $127 $210 $313 forward $81 $-1 #
coedge $-1 $127 $312 $314 $315 forward $81 $-1 #
edge $-1 $316 -44.37742481244269 $212 44.37742481244269 $128 $317 forward 7 unknown #
coedge $-1 $129 $128 $318 $319 forward $51 $-1 #
edge $-1 $213 -44.37742481244269 $320 44.37742481244269 $129 $321 forward 7 unknown #
coedge $-1 $322 $130 $311 $323 reversed $211 $-1 #
coedge $-1 $130 $322 $204 $313 reversed $211 $-1 #
loop $-1 $-1 $130 $306 #
vertex $-1 $206 $324 #
vertex $-1 $208 $325 #
straight-curve $-1 67.703482161931205 44.37742481244269 0 0 0 -1 I I #
face $-1 $326 $327 $31 $-1 $328 reversed single #
loop $-1 $-1 $329 $132 #
plane-surface $-1 -75.935932726517123 0 -7.4146074648163562 0 0 1 1 0 0 forward_v I I I I #
coedge $-1 $330 $135 $331 $332 reversed $85 $-1 #
coedge $-1 $135 $330 $224 $333 reversed $85 $-1 #
edge $-1 $226 -1.1221827824802872 $334 7.4146074648163562 $135 $335 forward 7 unknown #
coedge $-1 $137 $136 $329 $336 forward $54 $-1 #
coedge $-1 $337 $338 $136 $223 forward $339 $-1 #
edge $-1 $340 -7.4146074648163562 $227 1.1221827824802872 $222 $341 forward 7 unknown #
coedge $-1 $342 $138 $219 $333 forward $133 $-1 #
coedge $-1 $138 $342 $337 $343 forward $133 $-1 #
vertex $-1 $220 $344 #
vertex $-1 $343 $345 #
straight-curve $-1 -67.703482161931205 0 1.1221827824802872 0 -1 0 I I #
face $-1 $346 $347 $32 $-1 $348 reversed single #
loop $-1 $-1 $349 $140 #
plane-surface $-1 75.935932726517123 0 -7.4146074648163562 0 0 1 1 0 0 forward_v I I I I #
coedge $-1 $240 $239 $350 $351 forward $141 $-1 #
coedge $-1 $352 $143 $353 $354 reversed $89 $-1 #
coedge $-1 $143 $352 $239 $355 reversed $89 $-1 #
edge $-1 $241 -1.1221827824802872 $356 7.4146074648163562 $143 $357 forward 7 unknown #
coedge $-1 $145 $144 $358 $359 forward $57 $-1 #
coedge $-1 $360 $361 $144 $238 forward $362 $-1 #
edge $-1 $363 -7.4146074648163562 $242 1.1221827824802872 $237 $364 forward 7 unknown #
coedge $-1 $232 $146 $234 $355 forward $141 $-1 #
coedge $-1 $146 $232 $360 $365 forward $141 $-1 #
vertex $-1 $235 $366 #
vertex $-1 $365 $367 #
straight-curve $-1 67.703482161931205 0 1.1221827824802872 0 1 0 I I #
face $-1 $-1 $256 $33 $-1 $368 forward single #
loop $-1 $-1 $369 $148 #
plane-surface $-1 0 44.37742481244269 0 0 -1 0 0 0 -1 forward_v I I I I #
coedge $-1 $370 $371 $372 $373 reversed $149 $-1 #
coedge $-1 $374 $151 $153 $254 forward $93 $-1 #
coedge $-1 $151 $374 $370 $375 forward $93 $-1 #
coedge $-1 $372 $154 $151 $251 forward $256 $-1 #
edge $-1 $258 -22.263850916004177 $376 -4.2559924250450685 $250 $377 forward 7 unknown #
coedge $-1 $378 $379 $152 $253 forward $245 $-1 #
edge $-1 $380 -77.536951790115779 $257 -64.311260093090524 $252 $381 forward 7 unknown #
edge $-1 $258 66.253959246169771 $380 88.754849624885395 $153 $382 forward 7 unknown #
coedge $-1 $154 $372 $378 $383 forward $256 $-1 #
loop $-1 $-1 $372 $244 #
vertex $-1 $253 $384 #
vertex $-1 $155 $385 #
straight-curve $-1 -35.5237725865288 26.081730660512601 19.867115018194085 0 -1 0 I I #
coedge $-1 $260 $260 $-1 $386 reversed $158 $-1 #
edge $-1 $387 0 $387 6.2831853071796004 $159 $388 forward 7 unknown #
vertex $-1 $162 $389 #
ellipse-curve $-1 -26.519843341049246 35.275623521349054 13.254269169681459 0 0.5877852598018023 0.80901698891910034 3 0 0 1 I I #
face $-1 $-1 $390 $35 $-1 $391 reversed single #
loop $-1 $-1 $169 $163 #
plane-surface $-1 0 0 19.867115018194085 0 0 1 1 0 0 forward_v I I I I #
coedge $-1 $392 $393 $394 $395 reversed $164 $-1 #
coedge $-1 $396 $166 $168 $274 forward $102 $-1 #
coedge $-1 $166 $396 $392 $397 forward $102 $-1 #
coedge $-1 $394 $169 $166 $271 forward $265 $-1 #
edge $-1 $277 4.255992425045072 $398 22.263850916004181 $270 $399 forward 7 unknown #
coedge $-1 $400 $401 $167 $273 forward $390 $-1 #
edge $-1 $402 -77.536951790115779 $276 -64.311260093090524 $272 $403 forward 7 unknown #
edge $-1 $277 66.253959246169771 $402 88.754849624885395 $168 $404 forward 7 unknown #
coedge $-1 $169 $394 $400 $405 forward $265 $-1 #
vertex $-1 $170 $406 #
vertex $-1 $170 $407 #
straight-curve $-1 17.515914095569698 26.081730660512601 19.867115018194085 0 -1 0 I I #
coedge $-1 $279 $279 $-1 $408 reversed $173 $-1 #
edge $-1 $409 0 $409 6.2831853071796004 $174 $410 forward 7 unknown #
vertex $-1 $177 $411 #
ellipse-curve $-1 26.519843341049253 35.275623521349054 13.254269169681459 0 0.5877852598018023 0.80901698891910034 3 0 0 1 I I #
face $-1 $-1 $412 $37 $-1 $413 reversed single #
loop $-1 $-1 $184 $178 #
plane-surface $-1 0 0 19.867115018194085 0 0 1 1 0 0 forward_v I I I I #
coedge $-1 $414 $415 $416 $417 reversed $179 $-1 #
coedge $-1 $418 $181 $183 $293 forward $111 $-1 #
coedge $-1 $181 $418 $414 $419 forward $111 $-1 #
coedge $-1 $416 $184 $181 $290 forward $284 $-1 #
edge $-1 $296 7.2492306027406102 $420 19.016262136647114 $289 $421 forward 7 unknown #
coedge $-1 $422 $423 $182 $292 forward $412 $-1 #
edge $-1 $424 -31.370858163650119 $295 -16.465507165975872 $291 $425 forward 7 unknown #
edge $-1 $296 -17.211216668021649 $424 -1.4321304723534956e-014 $183 $426 forward 7 unknown #
coedge $-1 $184 $416 $422 $427 forward $284 $-1 #
vertex $-1 $292 $428 #
vertex $-1 $185 $429 #
straight-curve $-1 -20.381976972434472 -80.821648406809118 19.867115018194085 0 1 0 I I #
coedge $-1 $298 $298 $-1 $430 reversed $188 $-1 #
edge $-1 $431 0 $431 6.2831853071796004 $189 $432 forward 7 unknown #
vertex $-1 $192 $433 #
ellipse-curve $-1 -28.786999496653401 -40.074620760730689 12.414439519356954 0 -0.86602541151947299 0.49999998660252726 1 0 0 1 I I #
coedge $-1 $302 $302 $-1 $434 reversed $195 $-1 #
edge $-1 $435 0 $435 6.2831853071796004 $196 $436 forward 7 unknown #
vertex $-1 $199 $437 #
ellipse-curve $-1 -23.743985982122041 -40.074620760730689 12.414439519356954 0 -0.86602541151947299 0.49999998660252726 1 0 0 1 I I #
face $-1 $-1 $211 $30 $-1 $438 reversed single #
loop $-1 $-1 $439 $200 #
plane-surface $-1 -67.703482161931205 0 0 1 0 0 0 0 -1 forward_v I I I I #
coedge $-1 $440 $314 $439 $441 forward $201 $-1 #
coedge $-1 $442 $203 $440 $443 forward $125 $-1 #
coedge $-1 $203 $442 $209 $323 forward $125 $-1 #
coedge $-1 $205 $204 $444 $445 forward $81 $-1 #
edge $-1 $212 -67.703482161931205 $446 67.703482161931205 $210 $447 forward 7 unknown #
coedge $-1 $309 $318 $205 $315 reversed $201 $-1 #
edge $-1 $448 -67.703482161931205 $316 67.703482161931205 $314 $449 forward 7 unknown #
vertex $-1 $206 $450 #
straight-curve $-1 67.703482161931205 0 19.867115018194085 0 1 0 I I #
coedge $-1 $314 $440 $207 $319 reversed $201 $-1 #
edge $-1 $316 -19.867115018194085 $320 19.867115018194085 $207 $451 forward 7 unknown #
vertex $-1 $319 $452 #
straight-curve $-1 67.703482161931205 0 -19.867115018194085 0 -1 0 I I #
coedge $-1 $210 $209 $453 $454 reversed $211 $-1 #
edge $-1 $455 -67.703482161931205 $213 67.703482161931205 $209 $456 forward 7 unknown #
point $-1 67.703482161931205 44.37742481244269 19.867115018194085 #
point $-1 67.703482161931205 44.37742481244269 -19.867115018194085 #
face $-1 $-1 $339 $31 $-1 $457 reversed single #
loop $-1 $-1 $458 $215 #
plane-surface $-1 -84.168383291103041 0 -3.1462123411680345 1 0 0 0 0 -1 forward_v I I I I #
coedge $-1 $459 $331 $221 $336 reversed $216 $-1 #
coedge $-1 $219 $218 $458 $460 reversed $85 $-1 #
coedge $-1 $329 $461 $218 $332 forward $216 $-1 #
edge $-1 $462 -8.2324505645859176 $334 8.2324505645859176 $218 $463 forward 7 unknown #
edge $-1 $226 -8.2324505645859176 $464 8.2324505645859176 $219 $465 forward 7 unknown #
vertex $-1 $220 $466 #
straight-curve $-1 -67.703482161931205 44.37742481244269 0 0 0 -1 I I #
edge $-1 $340 -44.37742481244269 $334 44.37742481244269 $329 $467 forward 7 unknown #
coedge $-1 $468 $222 $225 $343 reversed $339 $-1 #
coedge $-1 $222 $468 $459 $469 reversed $339 $-1 #
loop $-1 $-1 $222 $326 #
vertex $-1 $223 $470 #
straight-curve $-1 -67.703482161931205 -44.37742481244269 0 0 0 1 I I #
coedge $-1 $225 $224 $471 $472 forward $133 $-1 #
edge $-1 $473 -8.2324505645859176 $227 8.2324505645859176 $337 $474 forward 7 unknown #
point $-1 -67.703482161931205 44.37742481244269 1.1221827824802872 #
point $-1 -67.703482161931205 -44.37742481244269 1.1221827824802872 #
face $-1 $-1 $362 $32 $-1 $475 reversed single #
loop $-1 $-1 $476 $229 #
plane-surface $-1 84.168383291103041 0 -3.1462123411680345 -1 0 0 0 0 1 forward_v I I I I #
coedge $-1 $353 $477 $478 $479 forward $230 $-1 #
coedge $-1 $476 $480 $232 $351 reversed $347 $-1 #
edge $-1 $481 -44.37742481244269 $482 44.37742481244269 $350 $483 forward 7 unknown #
coedge $-1 $234 $233 $476 $484 reversed $89 $-1 #
coedge $-1 $358 $349 $233 $354 forward $230 $-1 #
edge $-1 $485 -8.2324505645859176 $356 8.2324505645859176 $233 $486 forward 7 unknown #
edge $-1 $241 -8.2324505645859176 $481 8.2324505645859176 $234 $487 forward 7 unknown #
vertex $-1 $235 $488 #
straight-curve $-1 67.703482161931205 -44.37742481244269 0 0 0 -1 I I #
coedge $-1 $477 $353 $236 $359 reversed $230 $-1 #
edge $-1 $363 -44.37742481244269 $356 44.37742481244269 $358 $489 forward 7 unknown #
coedge $-1 $490 $237 $240 $365 reversed $362 $-1 #
coedge $-1 $237 $490 $477 $491 reversed $362 $-1 #
loop $-1 $-1 $237 $346 #
vertex $-1 $238 $492 #
straight-curve $-1 67.703482161931205 44.37742481244269 0 0 0 1 I I #
edge $-1 $482 -8.2324505645859176 $242 8.2324505645859176 $360 $493 forward 7 unknown #
point $-1 67.703482161931205 -44.37742481244269 1.1221827824802872 #
point $-1 67.703482161931205 44.37742481244269 1.1221827824802872 #
plane-surface $-1 0 0 19.867115018194085 0 0 1 1 0 0 forward_v I I I I #
coedge $-1 $379 $378 $371 $494 forward $245 $-1 #
coedge $-1 $371 $247 $249 $375 reversed $149 $-1 #
coedge $-1 $247 $370 $369 $494 reversed $149 $-1 #
coedge $-1 $255 $250 $247 $373 forward $256 $-1 #
edge $-1 $376 0.092091569742809298 $495 18.295694151930089 $372 $496 forward 7 unknown #
coedge $-1 $249 $248 $379 $497 reversed $93 $-1 #
edge $-1 $498 -88.754849624885395 $376 -66.253959246169771 $370 $499 forward 7 unknown #
vertex $-1 $251 $500 #
straight-curve $-1 -13.259921670524623 26.173822230255414 19.867115018194085 1 0 0 I I #
coedge $-1 $369 $252 $255 $383 reversed $245 $-1 #
coedge $-1 $252 $369 $374 $497 forward $245 $-1 #
vertex $-1 $253 $501 #
straight-curve $-1 -35.5237725865288 44.37742481244269 84.178375111284609 0 0 1 I I #
straight-curve $-1 -35.5237725865288 -27.426756383049643 58.810215666602005 0 0.80901698891910034 -0.5877852598018023 I I #
edge $-1 $495 17.515914095569691 $257 35.5237725865288 $378 $502 forward 7 unknown #
point $-1 -35.5237725865288 44.37742481244269 19.867115018194085 #
point $-1 -35.5237725865288 26.173822230255411 19.867115018194085 #
edge $-1 $503 1 $503 0 $260 $-1 forward 7 unknown #
vertex $-1 $261 $504 #
ellipse-curve $-1 -26.519843341049246 30.940772256757096 7.2878583776264323 0 0.5877852598018023 0.80901698891910034 3 0 0 1 I I #
point $-1 -23.519843341049246 35.275623521349061 13.25426916968147 #
loop $-1 $-1 $272 $264 #
plane-surface $-1 0 44.37742481244269 0 0 -1 0 0 0 -1 forward_v I I I I #
coedge $-1 $393 $267 $269 $397 reversed $164 $-1 #
coedge $-1 $267 $392 $505 $506 reversed $164 $-1 #
coedge $-1 $275 $270 $267 $395 forward $265 $-1 #
edge $-1 $398 0.092091569742809298 $507 18.295694151930089 $394 $508 forward 7 unknown #
coedge $-1 $269 $268 $401 $509 reversed $102 $-1 #
edge $-1 $510 -88.754849624885395 $398 -66.253959246169771 $392 $511 forward 7 unknown #
vertex $-1 $271 $512 #
straight-curve $-1 13.259921670524626 26.173822230255414 19.867115018194085 1 0 0 I I #
coedge $-1 $505 $272 $275 $405 reversed $390 $-1 #
coedge $-1 $272 $505 $396 $509 forward $390 $-1 #
vertex $-1 $273 $513 #
straight-curve $-1 17.515914095569698 44.37742481244269 84.178375111284609 0 0 1 I I #
straight-curve $-1 17.515914095569698 -27.426756383049643 58.810215666602005 0 0.80901698891910034 -0.5877852598018023 I I #
edge $-1 $507 -35.523772586528807 $276 -17.515914095569698 $400 $514 forward 7 unknown #
point $-1 17.515914095569698 44.37742481244269 19.867115018194085 #
point $-1 17.515914095569698 26.173822230255411 19.867115018194085 #
edge $-1 $515 1 $515 0 $279 $-1 forward 7 unknown #
vertex $-1 $280 $516 #
ellipse-curve $-1 26.519843341049253 30.940772256757096 7.2878583776264323 0 0.5877852598018023 0.80901698891910034 3 0 0 1 I I #
point $-1 29.519843341049253 35.275623521349061 13.25426916968147 #
loop $-1 $-1 $291 $283 #
plane-surface $-1 0 -44.37742481244269 0 0 1 0 0 0 1 forward_v I I I I #
coedge $-1 $415 $286 $288 $419 reversed $179 $-1 #
coedge $-1 $286 $414 $517 $518 reversed $179 $-1 #
coedge $-1 $294 $289 $286 $417 forward $284 $-1 #
edge $-1 $420 -45.049831697790438 $519 -36.444223594366427 $416 $520 forward 7 unknown #
coedge $-1 $288 $287 $423 $521 reversed $111 $-1 #
edge $-1 $522 1.4321304723534956e-014 $420 17.211216668021649 $414 $523 forward 7 unknown #
vertex $-1 $290 $524 #
straight-curve $-1 -13.132746369693862 -35.77181670901868 19.867115018194085 -1 0 0 I I #
coedge $-1 $517 $291 $294 $427 reversed $412 $-1 #
coedge $-1 $291 $517 $418 $521 forward $412 $-1 #
vertex $-1 $292 $525 #
straight-curve $-1 -20.381976972434472 -44.37742481244269 36.332622184169956 0 0 1 I I #
straight-curve $-1 -20.381976972434472 -44.377424812442698 4.9617640205198228 0 -0.49999998660252726 -0.86602541151947299 I I #
edge $-1 $519 -32.149008506340977 $295 -20.381976972434472 $422 $526 forward 7 unknown #
point $-1 -20.381976972434472 -44.37742481244269 19.867115018194085 #
point $-1 -20.381976972434472 -35.77181670901868 19.867115018194085 #
edge $-1 $527 1 $527 0 $298 $-1 forward 7 unknown #
vertex $-1 $299 $528 #
ellipse-curve $-1 -28.786999496653401 -37.699479929052195 11.043151369815559 0 -0.86602541151947299 0.49999998660252726 1 0 0 1 I I #
point $-1 -27.786999496653401 -40.074620760730681 12.414439519356948 #
edge $-1 $529 1 $529 0 $302 $-1 forward 7 unknown #
vertex $-1 $303 $530 #
ellipse-curve $-1 -23.743985982122041 -37.699479929052195 11.043151369815559 0 -0.86602541151947299 0.49999998660252726 1 0 0 1 I I #
point $-1 -22.743985982122041 -40.074620760730681 12.414439519356948 #
plane-surface $-1 0 44.37742481244269 0 0 -1 0 0 0 -1 forward_v I I I I #
coedge $-1 $444 $531 $309 $441 reversed $307 $-1 #
coedge $-1 $318 $309 $310 $443 reversed $201 $-1 #
edge $-1 $448 -19.867115018194085 $532 19.867115018194085 $439 $533 forward 7 unknown #
coedge $-1 $311 $310 $531 $534 forward $125 $-1 #
edge $-1 $320 -67.703482161931205 $532 67.703482161931205 $440 $535 forward 7 unknown #
coedge $-1 $453 $439 $312 $445 reversed $307 $-1 #
edge $-1 $446 -44.37742481244269 $448 44.37742481244269 $444 $536 forward 7 unknown #
vertex $-1 $313 $537 #
straight-curve $-1 0 44.37742481244269 19.867115018194085 -1 0 0 I I #
vertex $-1 $445 $538 #
straight-curve $-1 0 -44.37742481244269 19.867115018194085 1 0 0 I I #
point $-1 67.703482161931205 -44.37742481244269 19.867115018194085 #
straight-curve $-1 67.703482161931205 -44.37742481244269 0 0 0 -1 I I #
point $-1 67.703482161931205 -44.37742481244269 -19.867115018194085 #
coedge $-1 $531 $444 $322 $454 forward $307 $-1 #
edge $-1 $446 -19.867115018194085 $455 19.867115018194085 $322 $539 forward 7 unknown #
vertex $-1 $323 $540 #
straight-curve $-1 0 44.37742481244269 -19.867115018194085 1 0 0 I I #
plane-surface $-1 0 -44.37742481244269 0 0 1 0 0 0 1 forward_v I I I I #
coedge $-1 $541 $471 $330 $460 forward $327 $-1 #
coedge $-1 $461 $329 $338 $469 forward $216 $-1 #
edge $-1 $464 -4.2683951236483217 $462 4.2683951236483217 $330 $542 forward 7 unknown #
coedge $-1 $331 $459 $541 $543 forward $216 $-1 #
vertex $-1 $332 $544 #
straight-curve $-1 -75.935932726517123 44.37742481244269 -7.4146074648163562 1 0 0 I I #
vertex $-1 $333 $545 #
straight-curve $-1 -75.935932726517123 44.37742481244269 1.1221827824802872 -1 0 0 I I #
point $-1 -67.703482161931205 44.37742481244269 -7.4146074648163562 #
straight-curve $-1 -67.703482161931205 0 -7.4146074648163562 0 1 0 I I #
coedge $-1 $338 $337 $546 $547 forward $339 $-1 #
edge $-1 $340 -8.2324505645859176 $548 8.2324505645859176 $338 $549 forward 7 unknown #
point $-1 -67.703482161931205 -44.37742481244269 -7.4146074648163562 #
coedge $-1 $458 $546 $342 $472 reversed $327 $-1 #
edge $-1 $464 -44.37742481244269 $473 44.37742481244269 $471 $550 forward 7 unknown #
vertex $-1 $472 $551 #
straight-curve $-1 -75.935932726517123 -44.37742481244269 1.1221827824802872 1 0 0 I I #
plane-surface $-1 0 44.37742481244269 0 0 -1 0 0 0 -1 forward_v I I I I #
coedge $-1 $478 $350 $352 $484 forward $347 $-1 #
coedge $-1 $349 $358 $361 $491 forward $230 $-1 #
coedge $-1 $480 $476 $349 $479 reversed $347 $-1 #
edge $-1 $552 -44.37742481244269 $485 44.37742481244269 $478 $553 forward 7 unknown #
coedge $-1 $350 $478 $490 $554 reversed $347 $-1 #
vertex $-1 $351 $555 #
vertex $-1 $351 $556 #
straight-curve $-1 84.168383291103041 0 1.1221827824802872 0 1 0 I I #
edge $-1 $481 -4.2683951236483217 $485 4.2683951236483217 $476 $557 forward 7 unknown #
vertex $-1 $484 $558 #
straight-curve $-1 75.935932726517123 -44.37742481244269 -7.4146074648163562 -1 0 0 I I #
straight-curve $-1 75.935932726517123 -44.37742481244269 1.1221827824802872 1 0 0 I I #
point $-1 67.703482161931205 -44.37742481244269 -7.4146074648163562 #
straight-curve $-1 67.703482161931205 0 -7.4146074648163562 0 -1 0 I I #
coedge $-1 $361 $360 $480 $554 forward $362 $-1 #
edge $-1 $363 -8.2324505645859176 $552 8.2324505645859176 $361 $559 forward 7 unknown #
point $-1 67.703482161931205 44.37742481244269 -7.4146074648163562 #
straight-curve $-1 75.935932726517123 44.37742481244269 1.1221827824802872 -1 0 0 I I #
edge $-1 $495 64.311260093090524 $498 77.536951790115779 $369 $560 forward 7 unknown #
vertex $-1 $383 $561 #
straight-curve $-1 -17.515914095569691 26.081730660512601 19.867115018194085 0 1 0 I I #
edge $-1 $498 4.2559924250450685 $380 22.263850916004177 $379 $562 forward 7 unknown #
vertex $-1 $497 $563 #
straight-curve $-1 -17.515914095569691 -27.426756383049643 58.810215666602005 0 -0.80901698891910034 0.5877852598018023 I I #
point $-1 -17.515914095569691 26.173822230255411 19.867115018194085 #
point $-1 -35.5237725865288 44.37742481244269 6.6414233211688369 #
straight-curve $-1 0 44.37742481244269 19.867115018194085 -1 0 0 I I #
vertex $-1 $386 $564 #
point $-1 -23.519843341049246 30.940772256757096 7.2878583776264323 #
coedge $-1 $401 $400 $393 $506 forward $390 $-1 #
edge $-1 $507 64.311260093090524 $510 77.536951790115779 $505 $565 forward 7 unknown #
vertex $-1 $405 $566 #
straight-curve $-1 35.523772586528807 26.081730660512601 19.867115018194085 0 1 0 I I #
edge $-1 $510 -22.263850916004181 $402 -4.255992425045072 $401 $567 forward 7 unknown #
vertex $-1 $509 $568 #
straight-curve $-1 35.523772586528807 -27.426756383049643 58.810215666602005 0 -0.80901698891910034 0.5877852598018023 I I #
point $-1 35.523772586528807 26.173822230255411 19.867115018194085 #
point $-1 17.515914095569698 44.37742481244269 6.6414233211688369 #
straight-curve $-1 0 44.37742481244269 19.867115018194085 -1 0 0 I I #
vertex $-1 $408 $569 #
point $-1 29.519843341049253 30.940772256757096 7.2878583776264323 #
coedge $-1 $423 $422 $415 $518 forward $412 $-1 #
edge $-1 $519 16.465507165975872 $522 31.370858163650119 $517 $570 forward 7 unknown #
vertex $-1 $427 $571 #
straight-curve $-1 -32.149008506340977 -80.821648406809118 19.867115018194085 0 -1 0 I I #
edge $-1 $522 -19.016262136647114 $424 -7.2492306027406102 $423 $572 forward 7 unknown #
vertex $-1 $521 $573 #
straight-curve $-1 -32.149008506340977 -44.377424812442698 4.9617640205198228 0 0.49999998660252726 0.86602541151947299 I I #
point $-1 -32.149008506340977 -35.77181670901868 19.867115018194085 #
point $-1 -20.381976972434472 -44.37742481244269 4.9617640205198352 #
straight-curve $-1 0 -44.37742481244269 19.867115018194085 1 0 0 I I #
vertex $-1 $430 $574 #
point $-1 -27.786999496653401 -37.699479929052195 11.043151369815559 #
vertex $-1 $434 $575 #
point $-1 -22.743985982122041 -37.699479929052195 11.043151369815559 #
coedge $-1 $439 $453 $442 $534 reversed $307 $-1 #
vertex $-1 $534 $576 #
straight-curve $-1 -67.703482161931205 -44.37742481244269 0 0 0 -1 I I #
edge $-1 $532 -44.37742481244269 $455 44.37742481244269 $531 $577 forward 7 unknown #
straight-curve $-1 0 -44.37742481244269 -19.867115018194085 -1 0 0 I I #
straight-curve $-1 -67.703482161931205 0 19.867115018194085 0 -1 0 I I #
point $-1 -67.703482161931205 44.37742481244269 19.867115018194085 #
point $-1 -67.703482161931205 -44.37742481244269 19.867115018194085 #
straight-curve $-1 -67.703482161931205 44.37742481244269 0 0 0 -1 I I #
point $-1 -67.703482161931205 44.37742481244269 -19.867115018194085 #
coedge $-1 $546 $458 $461 $543 reversed $327 $-1 #
straight-curve $-1 -84.168383291103041 44.37742481244269 -3.1462123411680345 0 0 -1 I I #
edge $-1 $548 -44.37742481244269 $462 44.37742481244269 $541 $578 forward 7 unknown #
point $-1 -84.168383291103041 44.37742481244269 -7.4146074648163562 #
point $-1 -84.168383291103041 44.37742481244269 1.1221827824802872 #
coedge $-1 $471 $541 $468 $547 reversed $327 $-1 #
edge $-1 $473 -4.2683951236483217 $548 4.2683951236483217 $546 $579 forward 7 unknown #
vertex $-1 $543 $580 #
straight-curve $-1 -75.935932726517123 -44.37742481244269 -7.4146074648163562 -1 0 0 I I #
straight-curve $-1 -84.168383291103041 0 1.1221827824802872 0 -1 0 I I #
point $-1 -84.168383291103041 -44.37742481244269 1.1221827824802872 #
vertex $-1 $479 $581 #
straight-curve $-1 84.168383291103041 0 -7.4146074648163562 0 -1 0 I I #
edge $-1 $482 -4.2683951236483217 $552 4.2683951236483217 $480 $582 forward 7 unknown #
point $-1 84.168383291103041 -44.37742481244269 1.1221827824802872 #
point $-1 84.168383291103041 44.37742481244269 1.1221827824802872 #
straight-curve $-1 84.168383291103041 -44.37742481244269 -3.1462123411680345 0 0 -1 I I #
point $-1 84.168383291103041 -44.37742481244269 -7.4146074648163562 #
straight-curve $-1 75.935932726517123 44.37742481244269 -7.4146074648163562 1 0 0 I I #
straight-curve $-1 -17.515914095569691 44.37742481244269 84.178375111284609 0 0 -1 I I #
point $-1 -17.515914095569691 44.37742481244269 19.867115018194085 #
straight-curve $-1 -13.259921670524623 44.37742481244269 6.6414233211688405 -1 0 0 I I #
point $-1 -17.515914095569691 44.37742481244269 6.6414233211688369 #
point $-1 -26.519843341049246 29.177416477351688 4.860807410869131 #
straight-curve $-1 35.523772586528807 44.37742481244269 84.178375111284609 0 0 -1 I I #
point $-1 35.523772586528807 44.37742481244269 19.867115018194085 #
straight-curve $-1 13.259921670524626 44.37742481244269 6.6414233211688405 -1 0 0 I I #
point $-1 35.523772586528807 44.37742481244269 6.6414233211688369 #
point $-1 26.519843341049253 29.177416477351688 4.860807410869131 #
straight-curve $-1 -32.149008506340977 -44.37742481244269 36.332622184169956 0 0 -1 I I #
point $-1 -32.149008506340977 -44.37742481244269 19.867115018194085 #
straight-curve $-1 -13.132746369693862 -44.37742481244269 4.9617640205198397 1 0 0 I I #
point $-1 -32.149008506340977 -44.37742481244269 4.9617640205198352 #
point $-1 -28.786999496653401 -36.833454517532722 10.543151383213031 #
point $-1 -23.743985982122041 -36.833454517532722 10.543151383213031 #
point $-1 -67.703482161931205 -44.37742481244269 -19.867115018194085 #
straight-curve $-1 -67.703482161931205 0 -19.867115018194085 0 1 0 I I #
straight-curve $-1 -84.168383291103041 0 -7.4146074648163562 0 1 0 I I #
straight-curve $-1 -84.168383291103041 -44.37742481244269 -3.1462123411680345 0 0 -1 I I #
point $-1 -84.168383291103041 -44.37742481244269 -7.4146074648163562 #
point $-1 84.168383291103041 44.37742481244269 -7.4146074648163562 #
straight-curve $-1 84.168383291103041 44.37742481244269 -3.1462123411680345 0 0 -1 I I #
End-of-ACIS-data 