500 0 6 0           
7 Unknown 11 ACIS 5.0 NT 24 Thu Mar 25 18:21:42 1999 
-1 9.9999999999999995e-007 1e-010 
body $-1 $6 $-1 $7 #
body $-1 $8 $-1 $9 #
body $-1 $10 $-1 $11 #
body $-1 $12 $-1 $13 #
body $-1 $14 $-1 $15 #
body $-1 $16 $-1 $17 #
lump $-1 $-1 $18 $0 #
transform $-1 1 0 0 0 1 0 0 0 1 49.931943723868528 25.619093328044986 8.5964344991156292 1 rotate no_reflect no_shear #
lump $-1 $-1 $19 $1 #
transform $-1 1 0 0 0 1 0 0 0 1 49.931943723868528 25.619093328044986 8.5964344991156292 1 rotate no_reflect no_shear #
lump $-1 $-1 $20 $2 #
transform $-1 1 0 0 0 1 0 0 0 1 49.931943723868528 25.619093328044986 8.5964344991156292 1 rotate no_reflect no_shear #
lump $-1 $-1 $21 $3 #
transform $-1 1 0 0 0 1 0 0 0 1 49.931943723868528 25.619093328044986 8.5964344991156292 1 rotate no_reflect no_shear #
lump $-1 $-1 $22 $4 #
transform $-1 1 0 0 0 1 0 0 0 1 49.931943723868528 25.619093328044986 8.5964344991156292 1 rotate no_reflect no_shear #
lump $-1 $-1 $23 $5 #
transform $-1 1 0 0 0 1 0 0 0 1 49.931943723868528 25.619093328044986 8.5964344991156292 1 rotate no_reflect no_shear #
shell $-1 $-1 $-1 $24 $-1 $6 #
shell $-1 $-1 $-1 $25 $-1 $8 #
shell $-1 $-1 $-1 $26 $-1 $10 #
shell $-1 $-1 $-1 $27 $-1 $12 #
shell $-1 $-1 $-1 $28 $-1 $14 #
shell $-1 $-1 $-1 $29 $-1 $16 #
face $-1 $30 $31 $18 $-1 $32 forward single #
face $-1 $33 $34 $19 $-1 $35 forward single #
face $-1 $36 $37 $20 $-1 $38 forward single #
face $-1 $39 $40 $21 $-1 $41 reversed single #
face $-1 $42 $43 $22 $-1 $44 forward single #
face $-1 $45 $46 $23 $-1 $47 forward single #
face $-1 $48 $49 $18 $-1 $50 reversed single #
loop $-1 $-1 $51 $24 #
plane-surface $-1 0 0 8.5964344991156292 0 0 1 1 0 0 forward_v I I I I #
face $-1 $52 $53 $19 $-1 $54 reversed single #
loop $-1 $-1 $55 $25 #
plane-surface $-1 0 -22.724437428276399 -4.2095690603048705 0 0 1 1 0 0 forward_v I I I I #
face $-1 $56 $57 $20 $-1 $58 reversed single #
loop $-1 $-1 $59 $26 #
plane-surface $-1 0 20.134181413167195 7.2054987573701954 0 0 1 1 0 0 forward_v I I I I #
face $-1 $60 $61 $21 $-1 $62 reversed single #
loop $-1 $-1 $63 $27 #
plane-surface $-1 27.838883227430415 -1.5092033945188899 143.84588333950111 0 -1 0 -0.5877852598018023 0 -0.80901698891910034 forward_v I I I I #
face $-1 $64 $65 $22 $-1 $66 forward single #
loop $-1 $67 $68 $28 #
cone-surface $-1 46.71967160041487 -6.4321704045137764 6.0715991483436831 -0.5877852598018023 0 -0.80901698891910034 0.40450849445955017 0 -0.29389262990090115 1 I I 0 1 0.5 forward I I I I #
face $-1 $69 $70 $23 $-1 $71 forward single #
loop $-1 $72 $73 $29 #
cone-surface $-1 46.71967160041487 -3.4783901985168448 6.0715991483436831 -0.5877852598018023 0 -0.80901698891910034 0.40450849445955017 0 -0.29389262990090115 1 I I 0 1 0.5 forward I I I I #
face $-1 $74 $75 $18 $-1 $76 reversed single #
loop $-1 $-1 $77 $30 #
plane-surface $-1 0 0 -8.5964344991156292 0 0 1 1 0 0 forward_v I I I I #
coedge $-1 $78 $79 $80 $81 forward $31 $-1 #
face $-1 $82 $83 $19 $-1 $84 reversed single #
loop $-1 $-1 $85 $33 #
plane-surface $-1 0 -19.829781528507812 -6.4030017797102499 0 -1 0 0 0 -1 forward_v I I I I #
coedge $-1 $86 $87 $88 $89 reversed $34 $-1 #
face $-1 $90 $91 $20 $-1 $92 reversed single #
loop $-1 $-1 $93 $36 #
plane-surface $-1 0 20.134181413167195 2.38753919432021 0 0 1 1 0 0 forward_v I I I I #
coedge $-1 $94 $95 $96 $97 reversed $37 $-1 #
face $-1 $98 $99 $21 $-1 $100 reversed single #
loop $-1 $-1 $101 $39 #
plane-surface $-1 -30.859637800855651 -4.9552803015153124 63.054301814776935 0.5877852598018023 0 0.80901698891910034 0.80901698891910034 0 -0.5877852598018023 forward_v I I I I #
coedge $-1 $102 $103 $104 $105 reversed $40 $-1 #
face $-1 $-1 $106 $22 $-1 $107 forward single #
loop $-1 $108 $109 $42 #
cone-surface $-1 46.278832655563519 -6.4321704045137764 5.4648364066543582 -0.5877852598018023 0 -0.80901698891910034 0.20225424722977509 0 -0.14694631495045057 1 I I -0.70710678118654746 0.70710678118654746 0.25 forward I I I I #
loop $-1 $-1 $110 $28 #
coedge $-1 $68 $68 $111 $112 reversed $43 $-1 #
face $-1 $-1 $113 $23 $-1 $114 forward single #
loop $-1 $115 $116 $45 #
cone-surface $-1 46.278832655563519 -3.4783901985168448 5.4648364066543582 -0.5877852598018023 0 -0.80901698891910034 0.20225424722977509 0 -0.14694631495045057 1 I I -0.70710678118654746 0.70710678118654746 0.25 forward I I I I #
loop $-1 $-1 $117 $29 #
coedge $-1 $73 $73 $118 $119 reversed $46 $-1 #
face $-1 $120 $121 $18 $-1 $122 reversed single #
loop $-1 $-1 $123 $48 #
plane-surface $-1 0 -25.619093328044986 0 0 1 0 0 0 1 forward_v I I I I #
coedge $-1 $124 $125 $126 $127 forward $49 $-1 #
coedge $-1 $128 $51 $129 $130 forward $31 $-1 #
coedge $-1 $51 $128 $131 $132 forward $31 $-1 #
coedge $-1 $133 $134 $51 $81 reversed $135 $-1 #
edge $-1 $136 -25.619093328044986 $137 25.619093328044986 $80 $138 forward 7 unknown #
face $-1 $139 $140 $19 $-1 $141 reversed single #
loop $-1 $-1 $142 $52 #
plane-surface $-1 0 0 -8.5964344991156292 0 0 1 1 0 0 forward_v I I I I #
coedge $-1 $143 $144 $145 $146 reversed $53 $-1 #
coedge $-1 $147 $55 $144 $148 forward $34 $-1 #
coedge $-1 $55 $147 $149 $150 reversed $34 $-1 #
coedge $-1 $151 $145 $55 $89 forward $140 $-1 #
edge $-1 $152 8.4675628143696127 $153 14.256874613906787 $88 $154 forward 7 unknown #
face $-1 $155 $156 $20 $-1 $157 reversed single #
loop $-1 $-1 $158 $56 #
plane-surface $-1 0 14.649269498289403 4.7965189758452027 0 1 0 0 0 1 forward_v I I I I #
coedge $-1 $159 $160 $161 $162 reversed $57 $-1 #
coedge $-1 $163 $59 $164 $165 reversed $37 $-1 #
coedge $-1 $59 $163 $166 $167 forward $37 $-1 #
coedge $-1 $168 $169 $59 $97 forward $156 $-1 #
edge $-1 $170 -15.552002621461389 $171 -4.5821787917058057 $96 $172 forward 7 unknown #
face $-1 $173 $174 $21 $-1 $175 forward single #
loop $-1 $-1 $176 $60 #
plane-surface $-1 27.838883227430415 -8.401357208511735 143.84588333950111 0 1 0 0.5877852598018023 0 0.80901698891910034 forward_v I I I I #
coedge $-1 $177 $178 $179 $180 reversed $61 $-1 #
coedge $-1 $103 $63 $181 $182 reversed $40 $-1 #
coedge $-1 $63 $102 $177 $183 reversed $40 $-1 #
coedge $-1 $179 $184 $63 $105 forward $174 $-1 #
edge $-1 $185 -36.012502110153321 $186 -30.175743123047852 $104 $187 forward 7 unknown #
loop $-1 $-1 $111 $64 #
plane-surface $-1 -30.859637800855651 -4.9552803015153124 63.054301814776935 0.5877852598018023 0 0.80901698891910034 0.80901698891910034 0 -0.5877852598018023 forward_v I I I I #
loop $-1 $-1 $188 $42 #
coedge $-1 $109 $109 $110 $189 reversed $65 $-1 #
coedge $-1 $110 $110 $109 $189 forward $67 $-1 #
coedge $-1 $111 $111 $68 $112 forward $106 $-1 #
edge $-1 $190 0 $190 6.2831853071796004 $111 $191 forward 7 unknown #
loop $-1 $-1 $118 $69 #
plane-surface $-1 -30.859637800855651 -4.9552803015153124 63.054301814776935 0.5877852598018023 0 0.80901698891910034 0.80901698891910034 0 -0.5877852598018023 forward_v I I I I #
loop $-1 $-1 $192 $45 #
coedge $-1 $116 $116 $117 $193 reversed $70 $-1 #
coedge $-1 $117 $117 $116 $193 forward $72 $-1 #
coedge $-1 $118 $118 $73 $119 forward $113 $-1 #
edge $-1 $194 0 $194 6.2831853071796004 $118 $195 forward 7 unknown #
face $-1 $196 $197 $18 $-1 $198 reversed single #
loop $-1 $-1 $199 $74 #
plane-surface $-1 -49.931943723868528 0 0 1 0 0 0 0 -1 forward_v I I I I #
coedge $-1 $200 $131 $201 $202 forward $75 $-1 #
coedge $-1 $203 $77 $200 $204 forward $49 $-1 #
coedge $-1 $77 $203 $205 $206 forward $49 $-1 #
coedge $-1 $134 $133 $77 $127 reversed $135 $-1 #
edge $-1 $207 -25.619093328044986 $208 25.619093328044986 $126 $209 forward 7 unknown #
coedge $-1 $79 $78 $210 $211 forward $31 $-1 #
coedge $-1 $212 $213 $78 $130 reversed $197 $-1 #
edge $-1 $137 -49.931943723868528 $214 49.931943723868528 $129 $215 forward 7 unknown #
coedge $-1 $123 $216 $79 $132 reversed $75 $-1 #
edge $-1 $217 -49.931943723868528 $136 49.931943723868528 $131 $218 forward 7 unknown #
coedge $-1 $126 $80 $216 $219 forward $135 $-1 #
coedge $-1 $80 $126 $212 $220 reversed $135 $-1 #
loop $-1 $-1 $133 $196 #
vertex $-1 $81 $221 #
vertex $-1 $81 $222 #
straight-curve $-1 49.931943723868528 0 8.5964344991156292 0 1 0 I I #
face $-1 $223 $224 $19 $-1 $225 reversed single #
loop $-1 $-1 $145 $82 #
plane-surface $-1 49.931943723868528 0 0 -1 0 0 0 0 1 forward_v I I I I #
coedge $-1 $226 $227 $143 $228 forward $83 $-1 #
coedge $-1 $229 $85 $142 $228 reversed $53 $-1 #
coedge $-1 $85 $229 $86 $148 reversed $53 $-1 #
coedge $-1 $88 $230 $85 $146 forward $140 $-1 #
edge $-1 $231 -5.3949336092605042 $152 -1.0080681704497456 $145 $232 forward 7 unknown #
coedge $-1 $87 $86 $233 $234 reversed $34 $-1 #
edge $-1 $152 -49.931943723868528 $235 49.931943723868528 $144 $236 forward 7 unknown #
coedge $-1 $237 $238 $87 $150 forward $224 $-1 #
edge $-1 $153 -49.931943723868528 $239 49.931943723868528 $149 $240 forward 7 unknown #
coedge $-1 $230 $88 $238 $241 forward $140 $-1 #
vertex $-1 $89 $242 #
vertex $-1 $241 $243 #
straight-curve $-1 49.931943723868528 -11.3622187141382 -4.2095690603048705 0 -1 0 I I #
face $-1 $244 $245 $20 $-1 $246 reversed single #
loop $-1 $-1 $96 $90 #
plane-surface $-1 49.931943723868528 0 0 -1 0 0 0 0 1 forward_v I I I I #
coedge $-1 $247 $166 $248 $249 reversed $91 $-1 #
coedge $-1 $250 $93 $247 $251 forward $57 $-1 #
coedge $-1 $93 $250 $252 $253 reversed $57 $-1 #
coedge $-1 $169 $168 $93 $162 forward $156 $-1 #
edge $-1 $254 4.5821787917058057 $255 15.552002621461389 $161 $256 forward 7 unknown #
coedge $-1 $95 $94 $257 $258 reversed $37 $-1 #
coedge $-1 $259 $260 $94 $165 forward $261 $-1 #
edge $-1 $262 -49.931943723868528 $170 49.931943723868528 $164 $263 forward 7 unknown #
coedge $-1 $158 $264 $95 $167 reversed $91 $-1 #
edge $-1 $265 -49.931943723868528 $171 49.931943723868528 $166 $266 forward 7 unknown #
coedge $-1 $161 $96 $264 $267 forward $156 $-1 #
coedge $-1 $96 $161 $259 $268 reversed $156 $-1 #
vertex $-1 $268 $269 #
vertex $-1 $97 $270 #
straight-curve $-1 49.931943723868528 10.067090706583597 7.2054987573701954 0 -1 0 I I #
face $-1 $-1 $271 $21 $-1 $272 reversed single #
loop $-1 $-1 $104 $98 #
plane-surface $-1 0 0 8.5964344991156292 0 0 1 1 0 0 forward_v I I I I #
coedge $-1 $273 $274 $275 $276 reversed $99 $-1 #
coedge $-1 $277 $101 $103 $183 forward $61 $-1 #
coedge $-1 $101 $277 $273 $278 forward $61 $-1 #
coedge $-1 $275 $104 $101 $180 forward $174 $-1 #
edge $-1 $186 -0.96843675623876635 $279 5.9237170577540788 $179 $280 forward 7 unknown #
coedge $-1 $281 $282 $102 $182 forward $271 $-1 #
edge $-1 $283 -67.567160883259689 $185 -63.326507170634926 $181 $284 forward 7 unknown #
edge $-1 $186 92.649256522737858 $283 99.863887447737056 $103 $285 forward 7 unknown #
coedge $-1 $104 $275 $281 $286 forward $174 $-1 #
vertex $-1 $182 $287 #
vertex $-1 $105 $288 #
straight-curve $-1 13.919441613715207 -1.5092033945188899 8.596434499115631 -1 0 0 I I #
coedge $-1 $188 $188 $-1 $289 reversed $108 $-1 #
edge $-1 $290 0 $290 6.2831853071796004 $109 $291 forward 7 unknown #
vertex $-1 $112 $292 #
ellipse-curve $-1 47.013564230315787 -6.4321704045137764 6.4761076428032505 0.5877852598018023 0 0.80901698891910034 0.40450849445955017 0 -0.29389262990090115 1 I I #
coedge $-1 $192 $192 $-1 $293 reversed $115 $-1 #
edge $-1 $294 0 $294 6.2831853071796004 $116 $295 forward 7 unknown #
vertex $-1 $119 $296 #
ellipse-curve $-1 47.013564230315787 -3.4783901985168448 6.4761076428032505 0.5877852598018023 0 0.80901698891910034 0.40450849445955017 0 -0.29389262990090115 1 I I #
face $-1 $-1 $135 $18 $-1 $297 reversed single #
loop $-1 $-1 $212 $120 #
plane-surface $-1 0 25.619093328044986 0 0 -1 0 0 0 -1 forward_v I I I I #
coedge $-1 $298 $210 $213 $299 forward $121 $-1 #
coedge $-1 $216 $123 $124 $204 reversed $75 $-1 #
coedge $-1 $210 $298 $123 $202 reversed $121 $-1 #
edge $-1 $217 -8.5964344991156292 $300 8.5964344991156292 $201 $301 forward 7 unknown #
coedge $-1 $125 $124 $298 $302 forward $49 $-1 #
edge $-1 $208 -49.931943723868528 $300 49.931943723868528 $200 $303 forward 7 unknown #
coedge $-1 $213 $212 $125 $206 reversed $197 $-1 #
edge $-1 $304 -49.931943723868528 $207 49.931943723868528 $205 $305 forward 7 unknown #
vertex $-1 $127 $306 #
vertex $-1 $219 $307 #
straight-curve $-1 49.931943723868528 0 -8.5964344991156292 0 -1 0 I I #
coedge $-1 $199 $201 $128 $211 reversed $121 $-1 #
edge $-1 $214 -25.619093328044986 $217 25.619093328044986 $210 $308 forward 7 unknown #
coedge $-1 $205 $129 $134 $220 forward $197 $-1 #
coedge $-1 $129 $205 $199 $299 reversed $197 $-1 #
vertex $-1 $130 $309 #
straight-curve $-1 0 25.619093328044986 8.5964344991156292 -1 0 0 I I #
coedge $-1 $131 $200 $133 $219 reversed $75 $-1 #
vertex $-1 $211 $310 #
straight-curve $-1 0 -25.619093328044986 8.5964344991156292 1 0 0 I I #
edge $-1 $136 -8.5964344991156292 $208 8.5964344991156292 $133 $311 forward 7 unknown #
edge $-1 $137 -8.5964344991156292 $207 8.5964344991156292 $134 $312 forward 7 unknown #
point $-1 49.931943723868528 -25.619093328044986 8.5964344991156292 #
point $-1 49.931943723868528 25.619093328044986 8.5964344991156292 #
face $-1 $-1 $313 $19 $-1 $314 reversed single #
loop $-1 $-1 $149 $139 #
plane-surface $-1 0 -25.619093328044986 0 0 1 0 0 0 1 forward_v I I I I #
coedge $-1 $315 $142 $230 $316 forward $83 $-1 #
coedge $-1 $142 $315 $317 $318 forward $83 $-1 #
edge $-1 $319 -49.931943723868528 $231 49.931943723868528 $142 $320 forward 7 unknown #
coedge $-1 $144 $143 $321 $322 reversed $53 $-1 #
coedge $-1 $145 $151 $226 $316 reversed $140 $-1 #
vertex $-1 $316 $323 #
straight-curve $-1 49.931943723868528 -19.829781528507812 -3.2015008898551249 0 0 1 I I #
coedge $-1 $321 $324 $147 $234 forward $313 $-1 #
edge $-1 $239 -14.256874613906787 $235 -8.4675628143696127 $233 $325 forward 7 unknown #
vertex $-1 $234 $326 #
straight-curve $-1 0 -19.829781528507812 -4.2095690603048705 -1 0 0 I I #
coedge $-1 $327 $149 $324 $328 forward $224 $-1 #
coedge $-1 $149 $327 $151 $241 reversed $224 $-1 #
vertex $-1 $328 $329 #
straight-curve $-1 0 -25.619093328044986 -4.2095690603048705 -1 0 0 I I #
edge $-1 $153 4.2095690603048705 $330 8.5964344991156292 $151 $331 forward 7 unknown #
point $-1 49.931943723868528 -19.829781528507812 -4.2095690603048705 #
point $-1 49.931943723868528 -25.619093328044986 -4.2095690603048705 #
face $-1 $-1 $261 $20 $-1 $332 reversed single #
loop $-1 $-1 $257 $155 #
plane-surface $-1 -49.931943723868528 0 0 1 0 0 0 0 -1 forward_v I I I I #
coedge $-1 $264 $158 $159 $251 reversed $91 $-1 #
coedge $-1 $257 $333 $158 $249 forward $245 $-1 #
edge $-1 $334 -0.010720293602391351 $265 4.8072392694475941 $248 $335 forward 7 unknown #
coedge $-1 $160 $159 $333 $336 reversed $57 $-1 #
edge $-1 $254 -49.931943723868528 $334 49.931943723868528 $247 $337 forward 7 unknown #
coedge $-1 $260 $259 $160 $253 forward $261 $-1 #
edge $-1 $255 -49.931943723868528 $338 49.931943723868528 $252 $339 forward 7 unknown #
vertex $-1 $162 $340 #
vertex $-1 $253 $341 #
straight-curve $-1 49.931943723868528 10.067090706583597 2.38753919432021 0 1 0 I I #
coedge $-1 $342 $248 $163 $258 forward $245 $-1 #
edge $-1 $265 4.5821787917058057 $262 15.552002621461389 $257 $343 forward 7 unknown #
coedge $-1 $252 $164 $169 $268 forward $261 $-1 #
coedge $-1 $164 $252 $342 $344 reversed $261 $-1 #
loop $-1 $-1 $164 $244 #
vertex $-1 $344 $345 #
straight-curve $-1 0 25.619093328044986 7.2054987573701954 1 0 0 I I #
coedge $-1 $166 $247 $168 $267 reversed $91 $-1 #
vertex $-1 $258 $346 #
straight-curve $-1 0 14.649269498289403 7.2054987573701954 1 0 0 I I #
edge $-1 $171 -4.8072392694475941 $254 0.010720293602391351 $168 $347 forward 7 unknown #
edge $-1 $170 -7.2054987573701954 $255 -2.38753919432021 $169 $348 forward 7 unknown #
point $-1 49.931943723868528 25.619093328044986 7.2054987573701954 #
point $-1 49.931943723868528 14.649269498289403 7.2054987573701954 #
loop $-1 $-1 $181 $173 #
plane-surface $-1 49.931943723868528 0 0 -1 0 0 0 0 1 forward_v I I I I #
coedge $-1 $274 $176 $178 $278 reversed $99 $-1 #
coedge $-1 $176 $273 $349 $350 reversed $99 $-1 #
coedge $-1 $184 $179 $176 $276 forward $174 $-1 #
edge $-1 $279 30.175743123047852 $351 36.012502110153321 $275 $352 forward 7 unknown #
coedge $-1 $178 $177 $282 $353 reversed $61 $-1 #
edge $-1 $354 -99.863887447737056 $279 -92.649256522737858 $273 $355 forward 7 unknown #
vertex $-1 $180 $356 #
straight-curve $-1 44.095184736763045 -2.4776401507576562 8.596434499115631 0 -1 0 I I #
coedge $-1 $349 $181 $184 $286 reversed $271 $-1 #
coedge $-1 $181 $349 $277 $353 forward $271 $-1 #
vertex $-1 $182 $357 #
straight-curve $-1 49.931943723868528 -1.5092033945188899 71.922941669750557 0 0 1 I I #
straight-curve $-1 -30.859637800855651 -1.5092033945188899 63.054301814776935 0.80901698891910034 0 -0.5877852598018023 I I #
edge $-1 $351 -8.401357208511735 $185 -1.5092033945188899 $281 $358 forward 7 unknown #
point $-1 49.931943723868528 -1.5092033945188899 8.5964344991156292 #
point $-1 44.095184736763059 -1.5092033945188899 8.596434499115631 #
edge $-1 $359 1 $359 0 $188 $-1 forward 7 unknown #
vertex $-1 $189 $360 #
ellipse-curve $-1 46.425778970513967 -6.4321704045137764 5.6670906538841335 0.5877852598018023 0 0.80901698891910034 0.40450849445955017 0 -0.29389262990090115 1 I I #
point $-1 47.418072724775321 -6.4321704045137764 6.1822150129023328 #
edge $-1 $361 1 $361 0 $192 $-1 forward 7 unknown #
vertex $-1 $193 $362 #
ellipse-curve $-1 46.425778970513967 -3.4783901985168448 5.6670906538841335 0.5877852598018023 0 0.80901698891910034 0.40450849445955017 0 -0.29389262990090115 1 I I #
point $-1 47.418072724775321 -3.4783901985168448 6.1822150129023328 #
plane-surface $-1 49.931943723868528 0 0 -1 0 0 0 0 1 forward_v I I I I #
coedge $-1 $201 $199 $203 $302 reversed $121 $-1 #
edge $-1 $214 -8.5964344991156292 $304 8.5964344991156292 $213 $363 forward 7 unknown #
vertex $-1 $302 $364 #
straight-curve $-1 -49.931943723868528 -25.619093328044986 0 0 0 -1 I I #
edge $-1 $300 -25.619093328044986 $304 25.619093328044986 $298 $365 forward 7 unknown #
straight-curve $-1 0 -25.619093328044986 -8.5964344991156292 -1 0 0 I I #
vertex $-1 $206 $366 #
straight-curve $-1 0 25.619093328044986 -8.5964344991156292 1 0 0 I I #
point $-1 49.931943723868528 25.619093328044986 -8.5964344991156292 #
point $-1 49.931943723868528 -25.619093328044986 -8.5964344991156292 #
straight-curve $-1 -49.931943723868528 0 8.5964344991156292 0 -1 0 I I #
point $-1 -49.931943723868528 25.619093328044986 8.5964344991156292 #
point $-1 -49.931943723868528 -25.619093328044986 8.5964344991156292 #
straight-curve $-1 49.931943723868528 -25.619093328044986 0 0 0 -1 I I #
straight-curve $-1 49.931943723868528 25.619093328044986 0 0 0 -1 I I #
loop $-1 $-1 $321 $223 #
plane-surface $-1 -49.931943723868528 0 0 1 0 0 0 0 -1 forward_v I I I I #
coedge $-1 $227 $226 $327 $367 forward $83 $-1 #
edge $-1 $231 19.829781528507812 $330 25.619093328044986 $230 $368 forward 7 unknown #
coedge $-1 $324 $321 $227 $318 reversed $313 $-1 #
edge $-1 $369 -25.619093328044986 $319 -19.829781528507812 $317 $370 forward 7 unknown #
vertex $-1 $322 $371 #
straight-curve $-1 0 -19.829781528507812 -8.5964344991156292 1 0 0 I I #
coedge $-1 $317 $233 $229 $322 forward $313 $-1 #
edge $-1 $235 1.0080681704497456 $319 5.3949336092605042 $321 $372 forward 7 unknown #
point $-1 49.931943723868528 -19.829781528507812 -8.5964344991156292 #
coedge $-1 $233 $317 $237 $328 reversed $313 $-1 #
straight-curve $-1 -49.931943723868528 -11.3622187141382 -4.2095690603048705 0 1 0 I I #
point $-1 -49.931943723868528 -19.829781528507812 -4.2095690603048705 #
coedge $-1 $238 $237 $315 $367 reversed $224 $-1 #
edge $-1 $239 4.2095690603048705 $369 8.5964344991156292 $324 $373 forward 7 unknown #
point $-1 -49.931943723868528 -25.619093328044986 -4.2095690603048705 #
vertex $-1 $241 $374 #
straight-curve $-1 49.931943723868528 -25.619093328044986 0 0 0 -1 I I #
plane-surface $-1 0 25.619093328044986 0 0 -1 0 0 0 -1 forward_v I I I I #
coedge $-1 $248 $342 $250 $336 forward $245 $-1 #
vertex $-1 $336 $375 #
straight-curve $-1 -49.931943723868528 14.649269498289403 2.3982594879226014 0 0 1 I I #
edge $-1 $338 -15.552002621461389 $334 -4.5821787917058057 $333 $376 forward 7 unknown #
straight-curve $-1 0 14.649269498289403 2.38753919432021 -1 0 0 I I #
vertex $-1 $253 $377 #
straight-curve $-1 0 25.619093328044986 2.38753919432021 -1 0 0 I I #
point $-1 49.931943723868528 14.649269498289403 2.38753919432021 #
point $-1 49.931943723868528 25.619093328044986 2.38753919432021 #
coedge $-1 $333 $257 $260 $344 forward $245 $-1 #
straight-curve $-1 -49.931943723868528 10.067090706583597 7.2054987573701954 0 1 0 I I #
edge $-1 $262 -7.2054987573701954 $338 -2.38753919432021 $260 $378 forward 7 unknown #
point $-1 -49.931943723868528 25.619093328044986 7.2054987573701954 #
point $-1 -49.931943723868528 14.649269498289403 7.2054987573701954 #
straight-curve $-1 49.931943723868528 14.649269498289403 2.3982594879226014 0 0 -1 I I #
straight-curve $-1 49.931943723868528 25.619093328044986 0 0 0 -1 I I #
coedge $-1 $282 $281 $274 $350 forward $271 $-1 #
edge $-1 $351 63.326507170634926 $354 67.567160883259689 $349 $379 forward 7 unknown #
vertex $-1 $286 $380 #
straight-curve $-1 13.919441613715207 -8.401357208511735 8.596434499115631 1 0 0 I I #
edge $-1 $354 -5.9237170577540788 $283 0.96843675623876635 $282 $381 forward 7 unknown #
vertex $-1 $353 $382 #
straight-curve $-1 -30.859637800855651 -8.401357208511735 63.054301814776935 -0.80901698891910034 0 0.5877852598018023 I I #
point $-1 44.095184736763059 -8.401357208511735 8.596434499115631 #
point $-1 49.931943723868528 -1.5092033945188899 4.3557807864908682 #
straight-curve $-1 49.931943723868528 0 8.5964344991156292 0 1 0 I I #
vertex $-1 $289 $383 #
point $-1 46.830287464973523 -6.4321704045137764 5.3731980239832318 #
vertex $-1 $293 $384 #
point $-1 46.830287464973523 -3.4783901985168448 5.3731980239832318 #
straight-curve $-1 -49.931943723868528 25.619093328044986 0 0 0 -1 I I #
point $-1 -49.931943723868528 -25.619093328044986 -8.5964344991156292 #
straight-curve $-1 -49.931943723868528 0 -8.5964344991156292 0 1 0 I I #
point $-1 -49.931943723868528 25.619093328044986 -8.5964344991156292 #
edge $-1 $330 -49.931943723868528 $369 49.931943723868528 $327 $385 forward 7 unknown #
straight-curve $-1 49.931943723868528 0 -8.5964344991156292 0 -1 0 I I #
vertex $-1 $318 $386 #
straight-curve $-1 -49.931943723868528 0 -8.5964344991156292 0 1 0 I I #
point $-1 -49.931943723868528 -19.829781528507812 -8.5964344991156292 #
straight-curve $-1 -49.931943723868528 -19.829781528507812 -3.2015008898551249 0 0 -1 I I #
straight-curve $-1 -49.931943723868528 -25.619093328044986 0 0 0 -1 I I #
point $-1 49.931943723868528 -25.619093328044986 -8.5964344991156292 #
point $-1 -49.931943723868528 14.649269498289403 2.38753919432021 #
straight-curve $-1 -49.931943723868528 10.067090706583597 2.38753919432021 0 -1 0 I I #
point $-1 -49.931943723868528 25.619093328044986 2.38753919432021 #
straight-curve $-1 -49.931943723868528 25.619093328044986 0 0 0 -1 I I #
straight-curve $-1 49.931943723868528 -8.401357208511735 71.922941669750557 0 0 -1 I I #
point $-1 49.931943723868528 -8.401357208511735 8.5964344991156292 #
straight-curve $-1 49.931943723868528 -2.4776401507576562 4.3557807864908646 0 1 0 I I #
point $-1 49.931943723868528 -8.401357208511735 4.3557807864908682 #
point $-1 46.131886340613072 -6.4321704045137764 5.262582159424583 #
point $-1 46.131886340613072 -3.4783901985168448 5.262582159424583 #
straight-curve $-1 0 -25.619093328044986 -8.5964344991156292 -1 0 0 I I #
point $-1 -49.931943723868528 -25.619093328044986 -8.5964344991156292 #
End-of-ACIS-data 