600 0 12 0           
107 GICL ACIS Healer - Source: /gicl/data5/repository/Drexel/CICIRELLO-THESISDATA/Part10008.smdg.feat.sat - 6 0 18 ACIS 6.0.3 Solaris 24 Fri Apr 12 10:21:05 2002 
1 9.999999999999999547e-07 1.000000000000000036e-10 
body $-1 $12 $-1 $-1 #
body $-1 $13 $-1 $-1 #
body $-1 $14 $-1 $-1 #
body $-1 $15 $-1 $-1 #
body $-1 $16 $-1 $-1 #
body $-1 $17 $-1 $-1 #
body $-1 $18 $-1 $-1 #
body $-1 $19 $-1 $-1 #
body $-1 $20 $-1 $-1 #
body $-1 $21 $-1 $-1 #
body $-1 $22 $-1 $-1 #
body $-1 $23 $-1 $-1 #
lump $-1 $-1 $24 $0 #
lump $-1 $-1 $25 $1 #
lump $-1 $-1 $26 $2 #
lump $-1 $-1 $27 $3 #
lump $-1 $-1 $28 $4 #
lump $-1 $-1 $29 $5 #
lump $-1 $-1 $30 $6 #
lump $-1 $-1 $31 $7 #
lump $-1 $-1 $32 $8 #
lump $-1 $-1 $33 $9 #
lump $-1 $-1 $34 $10 #
lump $-1 $-1 $35 $11 #
shell $-1 $-1 $-1 $36 $-1 $12 #
shell $-1 $-1 $-1 $37 $-1 $13 #
shell $-1 $-1 $-1 $38 $-1 $14 #
shell $-1 $-1 $-1 $39 $-1 $15 #
shell $-1 $-1 $-1 $40 $-1 $16 #
shell $-1 $-1 $-1 $41 $-1 $17 #
shell $-1 $-1 $-1 $42 $-1 $18 #
shell $-1 $-1 $-1 $43 $-1 $19 #
shell $-1 $-1 $-1 $44 $-1 $20 #
shell $-1 $-1 $-1 $45 $-1 $21 #
shell $-1 $-1 $-1 $46 $-1 $22 #
shell $-1 $-1 $-1 $47 $-1 $23 #
face $-1 $48 $49 $24 $-1 $50 forward single #
face $-1 $51 $52 $25 $-1 $53 forward single #
face $-1 $54 $55 $26 $-1 $56 forward single #
face $-1 $57 $58 $27 $-1 $59 forward single #
face $-1 $60 $61 $28 $-1 $62 forward single #
face $-1 $63 $64 $29 $-1 $65 forward single #
face $-1 $66 $67 $30 $-1 $68 forward single #
face $-1 $69 $70 $31 $-1 $71 forward single #
face $-1 $72 $73 $32 $-1 $74 forward single #
face $-1 $75 $76 $33 $-1 $77 forward single #
face $-1 $78 $79 $34 $-1 $80 forward single #
face $-1 $81 $82 $35 $-1 $83 forward single #
face $-1 $84 $85 $24 $-1 $86 reversed single #
loop $-1 $-1 $87 $36 #
plane-surface $-1 56.58009582811975235 33.87052686231016452 25.41400718517892088 0 0 1 1 0 0 forward_v I I I I #
face $-1 $88 $89 $25 $-1 $90 reversed single #
loop $-1 $-1 $91 $37 #
plane-surface $-1 132.7265921779026598 8.080191204437843666 274.4588803511368269 0.5150380817612800755 0 0.8571672965854804094 0.8571672965854804094 0 -0.5150380817612800755 forward_v I I I I #
face $-1 $92 $93 $26 $-1 $94 forward single #
loop $-1 $95 $96 $38 #
cone-surface $-1 109.5610344242466709 8.080191204437845442 22.28348169570542581 -0.5150380817612800755 0 -0.8571672965854804094 0.8571672965854804094 0 -0.5150380817612800755 1 I I 0 1 1 forward I I I I #
face $-1 $97 $98 $27 $-1 $99 reversed single #
loop $-1 $-1 $100 $39 #
plane-surface $-1 132.7265921779026598 25.27374830968605579 274.4588803511368269 0.5150380817612800755 0 0.8571672965854804094 0.8571672965854804094 0 -0.5150380817612800755 forward_v I I I I #
face $-1 $101 $102 $28 $-1 $103 forward single #
loop $-1 $104 $105 $40 #
cone-surface $-1 109.5610344242466709 25.27374830968605934 22.28348169570542581 -0.5150380817612800755 0 -0.8571672965854804094 0.8571672965854804094 0 -0.5150380817612800755 1 I I 0 1 1 forward I I I I #
face $-1 $106 $107 $29 $-1 $108 reversed single #
loop $-1 $-1 $109 $41 #
plane-surface $-1 132.7265921779026598 42.46730541493427324 274.4588803511368269 0.5150380817612800755 0 0.8571672965854804094 0.8571672965854804094 0 -0.5150380817612800755 forward_v I I I I #
face $-1 $110 $111 $30 $-1 $112 forward single #
loop $-1 $113 $114 $42 #
cone-surface $-1 109.5610344242466709 42.46730541493427324 22.28348169570542581 -0.5150380817612800755 0 -0.8571672965854804094 0.8571672965854804094 0 -0.5150380817612800755 1 I I 0 1 1 forward I I I I #
face $-1 $115 $116 $31 $-1 $117 reversed single #
loop $-1 $-1 $118 $43 #
plane-surface $-1 132.7265921779026598 59.6608625201824907 274.4588803511368269 0.5150380817612800755 0 0.8571672965854804094 0.8571672965854804094 0 -0.5150380817612800755 forward_v I I I I #
face $-1 $119 $120 $32 $-1 $121 forward single #
loop $-1 $122 $123 $44 #
cone-surface $-1 109.5610344242466709 59.6608625201824907 22.28348169570542581 -0.5150380817612800755 0 -0.8571672965854804094 0.8571672965854804094 0 -0.5150380817612800755 1 I I 0 1 1 forward I I I I #
face $-1 $124 $125 $33 $-1 $126 reversed single #
loop $-1 $-1 $127 $45 #
plane-surface $-1 -195.9992030934345166 50.07121991167271347 128.4202168134342799 -0.8660254115194729874 0 0.4999999866025272577 0.4999999866025272577 0 0.8660254115194729874 forward_v I I I I #
face $-1 $128 $129 $34 $-1 $130 forward single #
loop $-1 $131 $132 $46 #
cone-surface $-1 5.311892239253166004 46.30873537765608461 18.96252509429691457 0.8660254115194729874 0 -0.4999999866025272577 0.9999999732050545154 0 1.732050823038945975 1 I I 0 1 2 forward I I I I #
face $-1 $133 $134 $35 $-1 $135 forward single #
loop $-1 $136 $137 $47 #
cone-surface $-1 5.311892239253166004 53.83370444568933522 18.96252509429691457 0.8660254115194729874 0 -0.4999999866025272577 0.9999999732050545154 0 1.732050823038945975 1 I I 0 1 2 forward I I I I #
face $-1 $138 $139 $24 $-1 $140 reversed single #
loop $-1 $-1 $141 $48 #
plane-surface $-1 56.58009582811975235 33.87052686231016452 0 0 0 1 1 0 0 forward_v I I I I #
coedge $-1 $142 $143 $144 $145 forward $49 $-1 #
face $-1 $146 $147 $25 $-1 $148 reversed single #
loop $-1 $-1 $149 $51 #
plane-surface $-1 16.16297609316585948 8.080191204437843666 80.46444922498950802 0.5150380817612800755 0 0.8571672965854804094 0.8571672965854804094 0 -0.5150380817612800755 forward_v I I I I #
coedge $-1 $150 $151 $152 $153 forward $52 $-1 #
face $-1 $-1 $154 $26 $-1 $155 forward single #
loop $-1 $-1 $156 $54 #
plane-surface $-1 110.4712436359118186 8.080191204437845442 23.79832418390001081 0.5150380817612800755 0 0.8571672965854804094 -0.8571672965854804094 0 0.5150380817612800755 forward_v I I I I #
loop $-1 $-1 $157 $38 #
coedge $-1 $96 $96 $156 $158 reversed $55 $-1 #
face $-1 $159 $160 $27 $-1 $161 reversed single #
loop $-1 $-1 $162 $57 #
plane-surface $-1 16.16297609316585948 25.27374830968605579 80.46444922498950802 0.5150380817612800755 0 0.8571672965854804094 0.8571672965854804094 0 -0.5150380817612800755 forward_v I I I I #
coedge $-1 $163 $164 $165 $166 forward $58 $-1 #
face $-1 $-1 $167 $28 $-1 $168 forward single #
loop $-1 $-1 $169 $60 #
plane-surface $-1 110.4712436359118186 25.27374830968605934 23.79832418390001081 0.5150380817612800755 0 0.8571672965854804094 -0.8571672965854804094 0 0.5150380817612800755 forward_v I I I I #
loop $-1 $-1 $170 $40 #
coedge $-1 $105 $105 $169 $171 reversed $61 $-1 #
face $-1 $172 $173 $29 $-1 $174 reversed single #
loop $-1 $-1 $175 $63 #
plane-surface $-1 16.16297609316585948 42.46730541493427324 80.46444922498950802 0.5150380817612800755 0 0.8571672965854804094 0.8571672965854804094 0 -0.5150380817612800755 forward_v I I I I #
coedge $-1 $176 $177 $178 $179 forward $64 $-1 #
face $-1 $-1 $180 $30 $-1 $181 forward single #
loop $-1 $-1 $182 $66 #
plane-surface $-1 110.4712436359118186 42.46730541493427324 23.79832418390001081 0.5150380817612800755 0 0.8571672965854804094 -0.8571672965854804094 0 0.5150380817612800755 forward_v I I I I #
loop $-1 $-1 $183 $42 #
coedge $-1 $114 $114 $182 $184 reversed $67 $-1 #
face $-1 $185 $186 $31 $-1 $187 reversed single #
loop $-1 $-1 $188 $69 #
plane-surface $-1 16.16297609316585948 59.6608625201824907 80.46444922498950802 0.5150380817612800755 0 0.8571672965854804094 0.8571672965854804094 0 -0.5150380817612800755 forward_v I I I I #
coedge $-1 $189 $190 $191 $192 forward $70 $-1 #
face $-1 $-1 $193 $32 $-1 $194 forward single #
loop $-1 $-1 $195 $72 #
plane-surface $-1 110.4712436359118186 59.6608625201824907 23.79832418390001081 0.5150380817612800755 0 0.8571672965854804094 -0.8571672965854804094 0 0.5150380817612800755 forward_v I I I I #
loop $-1 $-1 $196 $44 #
coedge $-1 $123 $123 $195 $197 reversed $73 $-1 #
face $-1 $198 $199 $33 $-1 $200 reversed single #
loop $-1 $-1 $201 $75 #
plane-surface $-1 -1.421085471520200372e-14 50.07121991167271347 15.26002818931593907 -0.8660254115194729874 0 0.4999999866025272577 0.4999999866025272577 0 0.8660254115194729874 forward_v I I I I #
coedge $-1 $202 $203 $204 $205 forward $76 $-1 #
face $-1 $-1 $206 $34 $-1 $207 forward single #
loop $-1 $-1 $208 $78 #
plane-surface $-1 2.931201148581818572 46.30873537765608461 20.33701768724742109 -0.8660254115194729874 0 0.4999999866025272577 -0.4999999866025272577 0 -0.8660254115194729874 forward_v I I I I #
loop $-1 $-1 $209 $46 #
coedge $-1 $132 $132 $208 $210 reversed $79 $-1 #
face $-1 $-1 $211 $35 $-1 $212 forward single #
loop $-1 $-1 $213 $81 #
plane-surface $-1 2.931201148581818572 53.83370444568933522 20.33701768724742109 -0.8660254115194729874 0 0.4999999866025272577 -0.4999999866025272577 0 -0.8660254115194729874 forward_v I I I I #
loop $-1 $-1 $214 $47 #
coedge $-1 $137 $137 $213 $215 reversed $82 $-1 #
face $-1 $216 $217 $24 $-1 $218 reversed single #
loop $-1 $-1 $219 $84 #
plane-surface $-1 56.58009582811975235 0 12.70700359258946044 0 1 0 0 0 1 forward_v I I I I #
coedge $-1 $220 $221 $222 $223 forward $85 $-1 #
coedge $-1 $224 $87 $225 $226 forward $49 $-1 #
coedge $-1 $87 $224 $227 $228 forward $49 $-1 #
coedge $-1 $229 $230 $87 $145 reversed $231 $-1 #
edge $-1 $232 -33.87052686231016452 $233 33.87052686231016452 $144 $234 forward 7 unknown #
face $-1 $235 $236 $25 $-1 $237 reversed single #
loop $-1 $-1 $238 $88 #
plane-surface $-1 74.44478413553426321 2.216032570978210714 177.4616647880631604 0 1 0 0.5150380817612800755 0 0.8571672965854804094 forward_v I I I I #
coedge $-1 $239 $240 $241 $242 forward $89 $-1 #
coedge $-1 $243 $91 $244 $245 forward $52 $-1 #
coedge $-1 $91 $243 $246 $247 forward $52 $-1 #
coedge $-1 $248 $249 $91 $153 reversed $250 $-1 #
edge $-1 $251 -5.864158633459632952 $252 5.864158633459632952 $152 $253 forward 7 unknown #
loop $-1 $254 $255 $92 #
cone-surface $-1 108.3933061717008712 8.080191204437845442 20.34005555921810071 -0.5150380817612800755 0 -0.8571672965854804094 0.4285836482927402047 0 -0.2575190408806400377 1 I I -0.7071067811865474617 0.7071067811865474617 0.5 forward I I I I #
coedge $-1 $156 $156 $96 $158 forward $93 $-1 #
coedge $-1 $157 $157 $255 $256 forward $95 $-1 #
edge $-1 $257 0 $257 6.283185307179586232 $156 $258 forward 7 unknown #
face $-1 $259 $260 $27 $-1 $261 reversed single #
loop $-1 $-1 $262 $97 #
plane-surface $-1 74.44478413553426321 19.40958967622642461 177.4616647880631604 0 1 0 0.5150380817612800755 0 0.8571672965854804094 forward_v I I I I #
coedge $-1 $263 $264 $265 $266 forward $98 $-1 #
coedge $-1 $267 $100 $268 $269 forward $58 $-1 #
coedge $-1 $100 $267 $270 $271 forward $58 $-1 #
coedge $-1 $272 $273 $100 $166 reversed $274 $-1 #
edge $-1 $275 -5.864158633459631176 $276 5.864158633459631176 $165 $277 forward 7 unknown #
loop $-1 $278 $279 $101 #
cone-surface $-1 108.3933061717008712 25.27374830968605934 20.34005555921810071 -0.5150380817612800755 0 -0.8571672965854804094 0.4285836482927402047 0 -0.2575190408806400377 1 I I -0.7071067811865474617 0.7071067811865474617 0.5 forward I I I I #
coedge $-1 $169 $169 $105 $171 forward $102 $-1 #
coedge $-1 $170 $170 $279 $280 forward $104 $-1 #
edge $-1 $281 0 $281 6.283185307179586232 $169 $282 forward 7 unknown #
face $-1 $283 $284 $29 $-1 $285 reversed single #
loop $-1 $-1 $286 $106 #
plane-surface $-1 74.44478413553426321 36.60314678147464207 177.4616647880631604 0 1 0 0.5150380817612800755 0 0.8571672965854804094 forward_v I I I I #
coedge $-1 $287 $288 $289 $290 forward $107 $-1 #
coedge $-1 $291 $109 $292 $293 forward $64 $-1 #
coedge $-1 $109 $291 $294 $295 forward $64 $-1 #
coedge $-1 $296 $297 $109 $179 reversed $298 $-1 #
edge $-1 $299 -5.864158633459631176 $300 5.864158633459631176 $178 $301 forward 7 unknown #
loop $-1 $302 $303 $110 #
cone-surface $-1 108.3933061717008712 42.46730541493427324 20.34005555921810071 -0.5150380817612800755 0 -0.8571672965854804094 0.4285836482927402047 0 -0.2575190408806400377 1 I I -0.7071067811865474617 0.7071067811865474617 0.5 forward I I I I #
coedge $-1 $182 $182 $114 $184 forward $111 $-1 #
coedge $-1 $183 $183 $303 $304 forward $113 $-1 #
edge $-1 $305 0 $305 6.283185307179586232 $182 $306 forward 7 unknown #
face $-1 $307 $308 $31 $-1 $309 reversed single #
loop $-1 $-1 $310 $115 #
plane-surface $-1 74.44478413553426321 53.79670388672285952 177.4616647880631604 0 1 0 0.5150380817612800755 0 0.8571672965854804094 forward_v I I I I #
coedge $-1 $311 $312 $313 $314 forward $116 $-1 #
coedge $-1 $315 $118 $316 $317 forward $70 $-1 #
coedge $-1 $118 $315 $318 $319 forward $70 $-1 #
coedge $-1 $320 $321 $118 $192 reversed $322 $-1 #
edge $-1 $323 -5.864158633459631176 $324 5.864158633459638281 $191 $325 forward 7 unknown #
loop $-1 $326 $327 $119 #
cone-surface $-1 108.3933061717008712 59.6608625201824907 20.34005555921810071 -0.5150380817612800755 0 -0.8571672965854804094 0.4285836482927402047 0 -0.2575190408806400377 1 I I -0.7071067811865474617 0.7071067811865474617 0.5 forward I I I I #
coedge $-1 $195 $195 $123 $197 forward $120 $-1 #
coedge $-1 $196 $196 $327 $328 forward $122 $-1 #
edge $-1 $329 0 $329 6.283185307179586232 $195 $330 forward 7 unknown #
face $-1 $331 $332 $33 $-1 $333 reversed single #
loop $-1 $-1 $334 $124 #
plane-surface $-1 -97.99960154671725832 41.29208933230059131 71.84012250137510591 0 1 0 -0.8660254115194729874 0 0.4999999866025272577 forward_v I I I I #
coedge $-1 $335 $336 $337 $338 forward $125 $-1 #
coedge $-1 $339 $127 $340 $341 forward $76 $-1 #
coedge $-1 $127 $339 $342 $343 forward $76 $-1 #
coedge $-1 $344 $345 $127 $205 reversed $346 $-1 #
edge $-1 $347 -8.779130579372122156 $348 8.779130579372122156 $204 $349 forward 7 unknown #
loop $-1 $350 $351 $128 #
cone-surface $-1 8.558608741443986645 46.30873537765608461 17.08803251474387963 0.8660254115194729874 0 -0.4999999866025272577 0.4999999866025272577 0 0.8660254115194729874 1 I I -0.7071067811865474617 0.7071067811865474617 1 forward I I I I #
coedge $-1 $208 $208 $132 $210 forward $129 $-1 #
coedge $-1 $209 $209 $351 $352 forward $131 $-1 #
edge $-1 $353 0 $353 6.283185307179586232 $208 $354 forward 7 unknown #
loop $-1 $355 $356 $133 #
cone-surface $-1 8.558608741443986645 53.83370444568933522 17.08803251474387963 0.8660254115194729874 0 -0.4999999866025272577 0.4999999866025272577 0 0.8660254115194729874 1 I I -0.7071067811865474617 0.7071067811865474617 1 forward I I I I #
coedge $-1 $213 $213 $137 $215 forward $134 $-1 #
coedge $-1 $214 $214 $356 $357 forward $136 $-1 #
edge $-1 $358 0 $358 6.283185307179586232 $213 $359 forward 7 unknown #
face $-1 $360 $361 $24 $-1 $362 reversed single #
loop $-1 $-1 $363 $138 #
plane-surface $-1 0 33.87052686231016452 12.70700359258946044 1 0 0 0 0 -1 forward_v I I I I #
coedge $-1 $364 $227 $365 $366 forward $139 $-1 #
coedge $-1 $367 $141 $364 $368 forward $85 $-1 #
coedge $-1 $141 $367 $369 $370 forward $85 $-1 #
coedge $-1 $230 $229 $141 $223 reversed $231 $-1 #
edge $-1 $371 -33.87052686231016452 $372 33.87052686231016452 $222 $373 forward 7 unknown #
coedge $-1 $143 $142 $374 $375 forward $49 $-1 #
coedge $-1 $376 $377 $142 $226 reversed $361 $-1 #
edge $-1 $233 -56.58009582811975235 $378 56.58009582811975235 $225 $379 forward 7 unknown #
coedge $-1 $219 $380 $143 $228 reversed $139 $-1 #
edge $-1 $381 -56.58009582811975235 $232 56.58009582811975235 $227 $382 forward 7 unknown #
coedge $-1 $222 $144 $380 $383 forward $231 $-1 #
coedge $-1 $144 $222 $376 $384 reversed $231 $-1 #
loop $-1 $-1 $229 $360 #
vertex $-1 $145 $385 #
vertex $-1 $145 $386 #
straight-curve $-1 113.1601916562395047 33.87052686231016452 25.41400718517892088 0 1 0 I I #
face $-1 $387 $388 $25 $-1 $389 reversed single #
loop $-1 $-1 $390 $146 #
plane-surface $-1 -119.5496469906130415 8.080191204437843666 294.0252808727999536 0.8571672965854804094 0 -0.5150380817612800755 -0.5150380817612800755 0 -0.8571672965854804094 forward_v I I I I #
coedge $-1 $391 $246 $392 $393 forward $147 $-1 #
coedge $-1 $394 $149 $391 $395 forward $89 $-1 #
coedge $-1 $149 $394 $396 $397 forward $89 $-1 #
coedge $-1 $249 $248 $149 $242 reversed $250 $-1 #
edge $-1 $398 -5.864158633459632952 $399 5.864158633459632952 $241 $400 forward 7 unknown #
coedge $-1 $151 $150 $401 $402 forward $52 $-1 #
coedge $-1 $403 $404 $150 $245 reversed $388 $-1 #
edge $-1 $252 -226.320383312478981 $405 226.3203833124790094 $244 $406 forward 7 unknown #
coedge $-1 $238 $407 $151 $247 reversed $147 $-1 #
edge $-1 $408 -226.3203833124790094 $251 226.320383312478981 $246 $409 forward 7 unknown #
coedge $-1 $241 $152 $407 $410 forward $250 $-1 #
coedge $-1 $152 $241 $403 $411 reversed $250 $-1 #
loop $-1 $-1 $248 $387 #
vertex $-1 $153 $412 #
vertex $-1 $153 $413 #
straight-curve $-1 326.7210233040499361 8.080191204437843666 157.8952642664000052 0 1 0 I I #
loop $-1 $-1 $414 $92 #
coedge $-1 $255 $255 $157 $256 reversed $154 $-1 #
edge $-1 $415 0 $415 6.283185307179586232 $255 $416 forward 7 unknown #
vertex $-1 $158 $417 #
ellipse-curve $-1 110.4712436359118186 8.080191204437845442 23.79832418390001081 0.5150380817612800755 0 0.8571672965854804094 0.8571672965854804094 0 -0.5150380817612800755 1 I I #
face $-1 $418 $419 $27 $-1 $420 reversed single #
loop $-1 $-1 $421 $159 #
plane-surface $-1 -119.5496469906130415 25.27374830968605579 294.0252808727999536 0.8571672965854804094 0 -0.5150380817612800755 -0.5150380817612800755 0 -0.8571672965854804094 forward_v I I I I #
coedge $-1 $422 $270 $423 $424 forward $160 $-1 #
coedge $-1 $425 $162 $422 $426 forward $98 $-1 #
coedge $-1 $162 $425 $427 $428 forward $98 $-1 #
coedge $-1 $273 $272 $162 $266 reversed $274 $-1 #
edge $-1 $429 -5.864158633459631176 $430 5.864158633459631176 $265 $431 forward 7 unknown #
coedge $-1 $164 $163 $432 $433 forward $58 $-1 #
coedge $-1 $434 $435 $163 $269 reversed $419 $-1 #
edge $-1 $276 -226.320383312478981 $436 226.3203833124790094 $268 $437 forward 7 unknown #
coedge $-1 $262 $438 $164 $271 reversed $160 $-1 #
edge $-1 $439 -226.3203833124790094 $275 226.320383312478981 $270 $440 forward 7 unknown #
coedge $-1 $265 $165 $438 $441 forward $274 $-1 #
coedge $-1 $165 $265 $434 $442 reversed $274 $-1 #
loop $-1 $-1 $272 $418 #
vertex $-1 $166 $443 #
vertex $-1 $166 $444 #
straight-curve $-1 326.7210233040499361 25.27374830968605579 157.8952642664000052 0 1 0 I I #
loop $-1 $-1 $445 $101 #
coedge $-1 $279 $279 $170 $280 reversed $167 $-1 #
edge $-1 $446 0 $446 6.283185307179586232 $279 $447 forward 7 unknown #
vertex $-1 $171 $448 #
ellipse-curve $-1 110.4712436359118186 25.27374830968605934 23.79832418390001081 0.5150380817612800755 0 0.8571672965854804094 0.8571672965854804094 0 -0.5150380817612800755 1 I I #
face $-1 $449 $450 $29 $-1 $451 reversed single #
loop $-1 $-1 $452 $172 #
plane-surface $-1 -119.5496469906130415 42.46730541493427324 294.0252808727999536 0.8571672965854804094 0 -0.5150380817612800755 -0.5150380817612800755 0 -0.8571672965854804094 forward_v I I I I #
coedge $-1 $453 $294 $454 $455 forward $173 $-1 #
coedge $-1 $456 $175 $453 $457 forward $107 $-1 #
coedge $-1 $175 $456 $458 $459 forward $107 $-1 #
coedge $-1 $297 $296 $175 $290 reversed $298 $-1 #
edge $-1 $460 -5.864158633459631176 $461 5.864158633459631176 $289 $462 forward 7 unknown #
coedge $-1 $177 $176 $463 $464 forward $64 $-1 #
coedge $-1 $465 $466 $176 $293 reversed $450 $-1 #
edge $-1 $300 -226.320383312478981 $467 226.3203833124790094 $292 $468 forward 7 unknown #
coedge $-1 $286 $469 $177 $295 reversed $173 $-1 #
edge $-1 $470 -226.3203833124790094 $299 226.320383312478981 $294 $471 forward 7 unknown #
coedge $-1 $289 $178 $469 $472 forward $298 $-1 #
coedge $-1 $178 $289 $465 $473 reversed $298 $-1 #
loop $-1 $-1 $296 $449 #
vertex $-1 $179 $474 #
vertex $-1 $179 $475 #
straight-curve $-1 326.7210233040499361 42.46730541493427324 157.8952642664000052 0 1 0 I I #
loop $-1 $-1 $476 $110 #
coedge $-1 $303 $303 $183 $304 reversed $180 $-1 #
edge $-1 $477 0 $477 6.283185307179586232 $303 $478 forward 7 unknown #
vertex $-1 $184 $479 #
ellipse-curve $-1 110.4712436359118186 42.46730541493427324 23.79832418390001081 0.5150380817612800755 0 0.8571672965854804094 0.8571672965854804094 0 -0.5150380817612800755 1 I I #
face $-1 $480 $481 $31 $-1 $482 reversed single #
loop $-1 $-1 $483 $185 #
plane-surface $-1 -119.5496469906130415 59.6608625201824907 294.0252808727999536 0.8571672965854804094 0 -0.5150380817612800755 -0.5150380817612800755 0 -0.8571672965854804094 forward_v I I I I #
coedge $-1 $484 $318 $485 $486 forward $186 $-1 #
coedge $-1 $487 $188 $484 $488 forward $116 $-1 #
coedge $-1 $188 $487 $489 $490 forward $116 $-1 #
coedge $-1 $321 $320 $188 $314 reversed $322 $-1 #
edge $-1 $491 -5.864158633459638281 $492 5.864158633459631176 $313 $493 forward 7 unknown #
coedge $-1 $190 $189 $494 $495 forward $70 $-1 #
coedge $-1 $496 $497 $189 $317 reversed $481 $-1 #
edge $-1 $324 -226.320383312478981 $498 226.3203833124790094 $316 $499 forward 7 unknown #
coedge $-1 $310 $500 $190 $319 reversed $186 $-1 #
edge $-1 $501 -226.3203833124790094 $323 226.320383312478981 $318 $502 forward 7 unknown #
coedge $-1 $313 $191 $500 $503 forward $322 $-1 #
coedge $-1 $191 $313 $496 $504 reversed $322 $-1 #
loop $-1 $-1 $320 $480 #
vertex $-1 $192 $505 #
vertex $-1 $192 $506 #
straight-curve $-1 326.7210233040499361 59.6608625201824907 157.8952642664000052 0 1 0 I I #
loop $-1 $-1 $507 $119 #
coedge $-1 $327 $327 $196 $328 reversed $193 $-1 #
edge $-1 $508 0 $508 6.283185307179586232 $327 $509 forward 7 unknown #
vertex $-1 $197 $510 #
ellipse-curve $-1 110.4712436359118186 59.6608625201824907 23.79832418390001081 0.5150380817612800755 0 0.8571672965854804094 0.8571672965854804094 0 -0.5150380817612800755 1 I I #
face $-1 $511 $512 $33 $-1 $513 reversed single #
loop $-1 $-1 $514 $198 #
plane-surface $-1 -211.1597901708356062 50.07121991167271347 -124.1590805920593823 0.4999999866025272577 0 0.8660254115194729874 0.8660254115194729874 0 -0.4999999866025272577 forward_v I I I I #
coedge $-1 $515 $342 $516 $517 forward $199 $-1 #
coedge $-1 $518 $201 $515 $519 forward $125 $-1 #
coedge $-1 $201 $518 $520 $521 forward $125 $-1 #
coedge $-1 $345 $344 $201 $338 reversed $346 $-1 #
edge $-1 $522 -8.779130579372122156 $523 8.779130579372122156 $337 $524 forward 7 unknown #
coedge $-1 $203 $202 $525 $526 forward $76 $-1 #
coedge $-1 $527 $528 $202 $341 reversed $512 $-1 #
edge $-1 $348 -226.3203833124790094 $529 226.320383312478981 $340 $530 forward 7 unknown #
coedge $-1 $334 $531 $203 $343 reversed $199 $-1 #
edge $-1 $532 -226.320383312478981 $347 226.3203833124790094 $342 $533 forward 7 unknown #
coedge $-1 $337 $204 $531 $534 forward $346 $-1 #
coedge $-1 $204 $337 $527 $535 reversed $346 $-1 #
loop $-1 $-1 $344 $511 #
vertex $-1 $205 $536 #
vertex $-1 $205 $537 #
straight-curve $-1 -82.83901446931616874 50.07121991167271347 324.4194199068687681 0 1 0 I I #
loop $-1 $-1 $538 $128 #
coedge $-1 $351 $351 $209 $352 reversed $206 $-1 #
edge $-1 $539 0 $539 6.283185307179586232 $351 $540 forward 7 unknown #
vertex $-1 $210 $541 #
ellipse-curve $-1 2.931201148581818572 46.30873537765608461 20.33701768724742109 -0.8660254115194729874 0 0.4999999866025272577 0.9999999732050545154 0 1.732050823038945975 1 I I #
loop $-1 $-1 $542 $133 #
coedge $-1 $356 $356 $214 $357 reversed $211 $-1 #
edge $-1 $543 0 $543 6.283185307179586232 $356 $544 forward 7 unknown #
vertex $-1 $215 $545 #
ellipse-curve $-1 2.931201148581818572 53.83370444568933522 20.33701768724742109 -0.8660254115194729874 0 0.4999999866025272577 0.9999999732050545154 0 1.732050823038945975 1 I I #
face $-1 $-1 $231 $24 $-1 $546 reversed single #
loop $-1 $-1 $376 $216 #
plane-surface $-1 56.58009582811975235 67.74105372462032904 12.70700359258946044 0 -1 0 0 0 -1 forward_v I I I I #
coedge $-1 $547 $374 $377 $548 forward $217 $-1 #
coedge $-1 $380 $219 $220 $368 reversed $139 $-1 #
coedge $-1 $374 $547 $219 $366 reversed $217 $-1 #
edge $-1 $381 -12.70700359258946044 $549 12.70700359258946044 $365 $550 forward 7 unknown #
coedge $-1 $221 $220 $547 $551 forward $85 $-1 #
edge $-1 $372 -56.58009582811975235 $549 56.58009582811975235 $364 $552 forward 7 unknown #
coedge $-1 $377 $376 $221 $370 reversed $361 $-1 #
edge $-1 $553 -56.58009582811975235 $371 56.58009582811975235 $369 $554 forward 7 unknown #
vertex $-1 $223 $555 #
vertex $-1 $383 $556 #
straight-curve $-1 113.1601916562395047 33.87052686231016452 0 0 -1 0 I I #
coedge $-1 $363 $365 $224 $375 reversed $217 $-1 #
edge $-1 $378 -33.87052686231016452 $381 33.87052686231016452 $374 $557 forward 7 unknown #
coedge $-1 $369 $225 $230 $384 forward $361 $-1 #
coedge $-1 $225 $369 $363 $548 reversed $361 $-1 #
vertex $-1 $226 $558 #
straight-curve $-1 56.58009582811975235 67.74105372462032904 25.41400718517892088 -1 0 0 I I #
coedge $-1 $227 $364 $229 $383 reversed $139 $-1 #
vertex $-1 $375 $559 #
straight-curve $-1 56.58009582811975235 0 25.41400718517892088 1 0 0 I I #
edge $-1 $232 -12.70700359258946044 $372 12.70700359258946044 $229 $560 forward 7 unknown #
edge $-1 $233 -12.70700359258946044 $371 12.70700359258946044 $230 $561 forward 7 unknown #
point $-1 113.1601916562395047 0 25.41400718517892088 #
point $-1 113.1601916562395047 67.74105372462032904 25.41400718517892088 #
face $-1 $-1 $250 $25 $-1 $562 reversed single #
loop $-1 $-1 $403 $235 #
plane-surface $-1 74.44478413553426321 13.94434983789747662 177.4616647880631604 0 -1 0 -0.5150380817612800755 0 -0.8571672965854804094 forward_v I I I I #
coedge $-1 $563 $401 $404 $564 forward $236 $-1 #
coedge $-1 $407 $238 $239 $395 reversed $147 $-1 #
coedge $-1 $401 $563 $238 $393 reversed $236 $-1 #
edge $-1 $408 -113.1601916562395047 $565 113.1601916562394763 $392 $566 forward 7 unknown #
coedge $-1 $240 $239 $563 $567 forward $89 $-1 #
edge $-1 $399 -226.3203833124790094 $565 226.3203833124790094 $391 $568 forward 7 unknown #
coedge $-1 $404 $403 $240 $397 reversed $388 $-1 #
edge $-1 $569 -226.3203833124790094 $398 226.3203833124790094 $396 $570 forward 7 unknown #
vertex $-1 $242 $571 #
vertex $-1 $410 $572 #
straight-curve $-1 210.1574072193131713 8.080191204437843666 -36.09916685974729944 0 -1 0 I I #
coedge $-1 $390 $392 $243 $402 reversed $236 $-1 #
edge $-1 $405 -5.864158633459632952 $408 5.864158633459632952 $401 $573 forward 7 unknown #
coedge $-1 $396 $244 $249 $411 forward $388 $-1 #
coedge $-1 $244 $396 $390 $564 reversed $388 $-1 #
vertex $-1 $245 $574 #
straight-curve $-1 132.7265921779026598 13.94434983789747662 274.4588803511368269 -0.8571672965854804094 0 0.5150380817612800755 I I #
coedge $-1 $246 $391 $248 $410 reversed $147 $-1 #
vertex $-1 $402 $575 #
straight-curve $-1 132.7265921779026598 2.216032570978210714 274.4588803511368269 0.8571672965854804094 0 -0.5150380817612800755 I I #
edge $-1 $251 -113.1601916562394763 $399 113.1601916562395047 $248 $576 forward 7 unknown #
edge $-1 $252 -113.1601916562394763 $398 113.1601916562395047 $249 $577 forward 7 unknown #
point $-1 326.7210233040499361 2.216032570978210714 157.8952642664000052 #
point $-1 326.7210233040499361 13.94434983789747662 157.8952642664000052 #
coedge $-1 $414 $414 $-1 $578 reversed $254 $-1 #
vertex $-1 $256 $579 #
ellipse-curve $-1 108.650825212581509 8.080191204437845442 20.76863920751084081 0.5150380817612800755 0 0.8571672965854804094 0.8571672965854804094 0 -0.5150380817612800755 1 I I #
point $-1 111.3284109324973059 8.080191204437845442 23.28328610213873162 #
face $-1 $-1 $274 $27 $-1 $580 reversed single #
loop $-1 $-1 $434 $259 #
plane-surface $-1 74.44478413553426321 31.13790694314568697 177.4616647880631604 0 -1 0 -0.5150380817612800755 0 -0.8571672965854804094 forward_v I I I I #
coedge $-1 $581 $432 $435 $582 forward $260 $-1 #
coedge $-1 $438 $262 $263 $426 reversed $160 $-1 #
coedge $-1 $432 $581 $262 $424 reversed $260 $-1 #
edge $-1 $439 -113.1601916562395047 $583 113.1601916562394763 $423 $584 forward 7 unknown #
coedge $-1 $264 $263 $581 $585 forward $98 $-1 #
edge $-1 $430 -226.3203833124790094 $583 226.3203833124790094 $422 $586 forward 7 unknown #
coedge $-1 $435 $434 $264 $428 reversed $419 $-1 #
edge $-1 $587 -226.3203833124790094 $429 226.3203833124790094 $427 $588 forward 7 unknown #
vertex $-1 $266 $589 #
vertex $-1 $441 $590 #
straight-curve $-1 210.1574072193131713 25.27374830968605579 -36.09916685974729944 0 -1 0 I I #
coedge $-1 $421 $423 $267 $433 reversed $260 $-1 #
edge $-1 $436 -5.864158633459631176 $439 5.864158633459631176 $432 $591 forward 7 unknown #
coedge $-1 $427 $268 $273 $442 forward $419 $-1 #
coedge $-1 $268 $427 $421 $582 reversed $419 $-1 #
vertex $-1 $269 $592 #
straight-curve $-1 132.7265921779026598 31.13790694314568697 274.4588803511368269 -0.8571672965854804094 0 0.5150380817612800755 I I #
coedge $-1 $270 $422 $272 $441 reversed $160 $-1 #
vertex $-1 $433 $593 #
straight-curve $-1 132.7265921779026598 19.40958967622642461 274.4588803511368269 0.8571672965854804094 0 -0.5150380817612800755 I I #
edge $-1 $275 -113.1601916562394763 $430 113.1601916562395047 $272 $594 forward 7 unknown #
edge $-1 $276 -113.1601916562394763 $429 113.1601916562395047 $273 $595 forward 7 unknown #
point $-1 326.7210233040499361 19.40958967622642461 157.8952642664000052 #
point $-1 326.7210233040499361 31.13790694314568697 157.8952642664000052 #
coedge $-1 $445 $445 $-1 $596 reversed $278 $-1 #
vertex $-1 $280 $597 #
ellipse-curve $-1 108.650825212581509 25.27374830968605934 20.76863920751084081 0.5150380817612800755 0 0.8571672965854804094 0.8571672965854804094 0 -0.5150380817612800755 1 I I #
point $-1 111.3284109324973059 25.27374830968605934 23.28328610213873162 #
face $-1 $-1 $298 $29 $-1 $598 reversed single #
loop $-1 $-1 $465 $283 #
plane-surface $-1 74.44478413553426321 48.33146404839390442 177.4616647880631604 0 -1 0 -0.5150380817612800755 0 -0.8571672965854804094 forward_v I I I I #
coedge $-1 $599 $463 $466 $600 forward $284 $-1 #
coedge $-1 $469 $286 $287 $457 reversed $173 $-1 #
coedge $-1 $463 $599 $286 $455 reversed $284 $-1 #
edge $-1 $470 -113.1601916562395047 $601 113.1601916562394763 $454 $602 forward 7 unknown #
coedge $-1 $288 $287 $599 $603 forward $107 $-1 #
edge $-1 $461 -226.3203833124790094 $601 226.3203833124790094 $453 $604 forward 7 unknown #
coedge $-1 $466 $465 $288 $459 reversed $450 $-1 #
edge $-1 $605 -226.3203833124790094 $460 226.3203833124790094 $458 $606 forward 7 unknown #
vertex $-1 $290 $607 #
vertex $-1 $472 $608 #
straight-curve $-1 210.1574072193131713 42.46730541493427324 -36.09916685974729944 0 -1 0 I I #
coedge $-1 $452 $454 $291 $464 reversed $284 $-1 #
edge $-1 $467 -5.864158633459631176 $470 5.864158633459631176 $463 $609 forward 7 unknown #
coedge $-1 $458 $292 $297 $473 forward $450 $-1 #
coedge $-1 $292 $458 $452 $600 reversed $450 $-1 #
vertex $-1 $293 $610 #
straight-curve $-1 132.7265921779026598 48.33146404839390442 274.4588803511368269 -0.8571672965854804094 0 0.5150380817612800755 I I #
coedge $-1 $294 $453 $296 $472 reversed $173 $-1 #
vertex $-1 $464 $611 #
straight-curve $-1 132.7265921779026598 36.60314678147464207 274.4588803511368269 0.8571672965854804094 0 -0.5150380817612800755 I I #
edge $-1 $299 -113.1601916562394763 $461 113.1601916562395047 $296 $612 forward 7 unknown #
edge $-1 $300 -113.1601916562394763 $460 113.1601916562395047 $297 $613 forward 7 unknown #
point $-1 326.7210233040499361 36.60314678147464207 157.8952642664000052 #
point $-1 326.7210233040499361 48.33146404839390442 157.8952642664000052 #
coedge $-1 $476 $476 $-1 $614 reversed $302 $-1 #
vertex $-1 $304 $615 #
ellipse-curve $-1 108.650825212581509 42.46730541493427324 20.76863920751084081 0.5150380817612800755 0 0.8571672965854804094 0.8571672965854804094 0 -0.5150380817612800755 1 I I #
point $-1 111.3284109324973059 42.46730541493427324 23.28328610213873162 #
face $-1 $-1 $322 $31 $-1 $616 reversed single #
loop $-1 $-1 $496 $307 #
plane-surface $-1 74.44478413553426321 65.52502115364212898 177.4616647880631604 0 -1 0 -0.5150380817612800755 0 -0.8571672965854804094 forward_v I I I I #
coedge $-1 $617 $494 $497 $618 forward $308 $-1 #
coedge $-1 $500 $310 $311 $488 reversed $186 $-1 #
coedge $-1 $494 $617 $310 $486 reversed $308 $-1 #
edge $-1 $501 -113.1601916562395047 $619 113.1601916562394763 $485 $620 forward 7 unknown #
coedge $-1 $312 $311 $617 $621 forward $116 $-1 #
edge $-1 $492 -226.3203833124790094 $619 226.3203833124790094 $484 $622 forward 7 unknown #
coedge $-1 $497 $496 $312 $490 reversed $481 $-1 #
edge $-1 $623 -226.3203833124790094 $491 226.3203833124790094 $489 $624 forward 7 unknown #
vertex $-1 $314 $625 #
vertex $-1 $503 $626 #
straight-curve $-1 210.1574072193131713 59.6608625201824907 -36.09916685974729944 0 -1 0 I I #
coedge $-1 $483 $485 $315 $495 reversed $308 $-1 #
edge $-1 $498 -5.864158633459638281 $501 5.864158633459631176 $494 $627 forward 7 unknown #
coedge $-1 $489 $316 $321 $504 forward $481 $-1 #
coedge $-1 $316 $489 $483 $618 reversed $481 $-1 #
vertex $-1 $317 $628 #
straight-curve $-1 132.7265921779026598 65.52502115364212898 274.4588803511368269 -0.8571672965854804094 0 0.5150380817612800755 I I #
coedge $-1 $318 $484 $320 $503 reversed $186 $-1 #
vertex $-1 $495 $629 #
straight-curve $-1 132.7265921779026598 53.79670388672285952 274.4588803511368269 0.8571672965854804094 0 -0.5150380817612800755 I I #
edge $-1 $323 -113.1601916562394763 $492 113.1601916562395047 $320 $630 forward 7 unknown #
edge $-1 $324 -113.1601916562394763 $491 113.1601916562395047 $321 $631 forward 7 unknown #
point $-1 326.7210233040499361 53.79670388672285952 157.8952642664000052 #
point $-1 326.7210233040499361 65.52502115364212898 157.8952642664000052 #
coedge $-1 $507 $507 $-1 $632 reversed $326 $-1 #
vertex $-1 $328 $633 #
ellipse-curve $-1 108.650825212581509 59.6608625201824907 20.76863920751084081 0.5150380817612800755 0 0.8571672965854804094 0.8571672965854804094 0 -0.5150380817612800755 1 I I #
point $-1 111.3284109324973059 59.6608625201824907 23.28328610213873162 #
face $-1 $-1 $346 $33 $-1 $634 reversed single #
loop $-1 $-1 $527 $331 #
plane-surface $-1 -97.99960154671725832 58.85035049104483562 71.84012250137510591 0 -1 0 0.8660254115194729874 0 -0.4999999866025272577 forward_v I I I I #
coedge $-1 $635 $525 $528 $636 forward $332 $-1 #
coedge $-1 $531 $334 $335 $519 reversed $199 $-1 #
coedge $-1 $525 $635 $334 $517 reversed $332 $-1 #
edge $-1 $532 -113.1601916562394621 $637 113.1601916562395189 $516 $638 forward 7 unknown #
coedge $-1 $336 $335 $635 $639 forward $125 $-1 #
edge $-1 $523 -226.3203833124790094 $637 226.3203833124790094 $515 $640 forward 7 unknown #
coedge $-1 $528 $527 $336 $521 reversed $512 $-1 #
edge $-1 $641 -226.3203833124790094 $522 226.3203833124790094 $520 $642 forward 7 unknown #
vertex $-1 $338 $643 #
vertex $-1 $534 $644 #
straight-curve $-1 113.1601886241183195 50.07121991167271347 211.2592312827504202 0 -1 0 I I #
coedge $-1 $514 $516 $339 $526 reversed $332 $-1 #
edge $-1 $529 -8.779130579372122156 $532 8.779130579372122156 $525 $645 forward 7 unknown #
coedge $-1 $520 $340 $345 $535 forward $512 $-1 #
coedge $-1 $340 $520 $514 $636 reversed $512 $-1 #
vertex $-1 $341 $646 #
straight-curve $-1 -195.9992030934345166 58.85035049104483562 128.4202168134342799 -0.4999999866025272577 0 -0.8660254115194729874 I I #
coedge $-1 $342 $515 $344 $534 reversed $199 $-1 #
vertex $-1 $526 $647 #
straight-curve $-1 -195.9992030934345166 41.29208933230059131 128.4202168134342799 0.4999999866025272577 0 0.8660254115194729874 I I #
edge $-1 $347 -113.1601916562395189 $523 113.1601916562394905 $344 $648 forward 7 unknown #
edge $-1 $348 -113.1601916562395189 $522 113.1601916562394905 $345 $649 forward 7 unknown #
point $-1 -82.83901446931616874 41.29208933230059131 324.4194199068687681 #
point $-1 -82.83901446931616874 58.85035049104483562 324.4194199068687681 #
coedge $-1 $538 $538 $-1 $650 reversed $350 $-1 #
vertex $-1 $352 $651 #
ellipse-curve $-1 7.692583329924513436 46.30873537765608461 17.58803250134640805 -0.8660254115194729874 0 0.4999999866025272577 0.9999999732050545154 0 1.732050823038945975 1 I I #
point $-1 3.931201121786872754 46.30873537765608461 22.06906851028636396 #
coedge $-1 $542 $542 $-1 $652 reversed $355 $-1 #
vertex $-1 $357 $653 #
ellipse-curve $-1 7.692583329924513436 53.83370444568933522 17.58803250134640805 -0.8660254115194729874 0 0.4999999866025272577 0.9999999732050545154 0 1.732050823038945975 1 I I #
point $-1 3.931201121786872754 53.83370444568933522 22.06906851028636396 #
plane-surface $-1 113.1601916562395047 33.87052686231016452 12.70700359258946044 -1 0 0 0 0 1 forward_v I I I I #
coedge $-1 $365 $363 $367 $551 reversed $217 $-1 #
edge $-1 $378 -12.70700359258946044 $553 12.70700359258946044 $377 $654 forward 7 unknown #
vertex $-1 $551 $655 #
straight-curve $-1 0 0 12.70700359258946044 0 0 -1 I I #
edge $-1 $549 -33.87052686231016452 $553 33.87052686231016452 $547 $656 forward 7 unknown #
straight-curve $-1 56.58009582811975235 0 0 -1 0 0 I I #
vertex $-1 $370 $657 #
straight-curve $-1 56.58009582811975235 67.74105372462032904 0 1 0 0 I I #
point $-1 113.1601916562395047 67.74105372462032904 0 #
point $-1 113.1601916562395047 0 0 #
straight-curve $-1 0 33.87052686231016452 25.41400718517892088 0 -1 0 I I #
point $-1 0 67.74105372462032904 25.41400718517892088 #
point $-1 0 0 25.41400718517892088 #
straight-curve $-1 113.1601916562395047 0 12.70700359258946044 0 0 -1 I I #
straight-curve $-1 113.1601916562395047 67.74105372462032904 12.70700359258946044 0 0 -1 I I #
plane-surface $-1 268.4392152616815679 8.080191204437843666 60.89804870332635289 -0.8571672965854804094 0 0.5150380817612800755 0.5150380817612800755 0 0.8571672965854804094 forward_v I I I I #
coedge $-1 $392 $390 $394 $567 reversed $236 $-1 #
edge $-1 $405 -113.1601916562395047 $569 113.1601916562394763 $404 $658 forward 7 unknown #
vertex $-1 $567 $659 #
straight-curve $-1 -119.5496469906130415 2.216032570978210714 294.0252808727999536 -0.5150380817612800755 0 -0.8571672965854804094 I I #
edge $-1 $565 -5.864158633459632952 $569 5.864158633459632952 $563 $660 forward 7 unknown #
straight-curve $-1 16.16297609316585948 2.216032570978210714 80.46444922498950802 -0.8571672965854804094 0 0.5150380817612800755 I I #
vertex $-1 $397 $661 #
straight-curve $-1 16.16297609316585948 13.94434983789747662 80.46444922498950802 0.8571672965854804094 0 -0.5150380817612800755 I I #
point $-1 210.1574072193131713 13.94434983789747662 -36.09916685974729944 #
point $-1 210.1574072193131713 2.216032570978210714 -36.09916685974729944 #
straight-curve $-1 -61.26783894824464483 8.080191204437843666 391.0224964358736202 0 -1 0 I I #
point $-1 -61.26783894824464483 13.94434983789747662 391.0224964358736202 #
point $-1 -61.26783894824464483 2.216032570978210714 391.0224964358736202 #
straight-curve $-1 268.4392152616815679 2.216032570978210714 60.89804870332635289 -0.5150380817612800755 0 -0.8571672965854804094 I I #
straight-curve $-1 268.4392152616815679 13.94434983789747662 60.89804870332635289 -0.5150380817612800755 0 -0.8571672965854804094 I I #
edge $-1 $662 1 $662 0 $414 $-1 forward 7 unknown #
point $-1 109.5079925091669963 8.080191204437845442 20.25360112574956162 #
plane-surface $-1 268.4392152616815679 25.27374830968605579 60.89804870332635289 -0.8571672965854804094 0 0.5150380817612800755 0.5150380817612800755 0 0.8571672965854804094 forward_v I I I I #
coedge $-1 $423 $421 $425 $585 reversed $260 $-1 #
edge $-1 $436 -113.1601916562395047 $587 113.1601916562394763 $435 $663 forward 7 unknown #
vertex $-1 $585 $664 #
straight-curve $-1 -119.5496469906130415 19.40958967622642461 294.0252808727999536 -0.5150380817612800755 0 -0.8571672965854804094 I I #
edge $-1 $583 -5.864158633459631176 $587 5.864158633459631176 $581 $665 forward 7 unknown #
straight-curve $-1 16.16297609316585948 19.40958967622642461 80.46444922498950802 -0.8571672965854804094 0 0.5150380817612800755 I I #
vertex $-1 $428 $666 #
straight-curve $-1 16.16297609316585948 31.13790694314568697 80.46444922498950802 0.8571672965854804094 0 -0.5150380817612800755 I I #
point $-1 210.1574072193131713 31.13790694314568697 -36.09916685974729944 #
point $-1 210.1574072193131713 19.40958967622642461 -36.09916685974729944 #
straight-curve $-1 -61.26783894824464483 25.27374830968605579 391.0224964358736202 0 -1 0 I I #
point $-1 -61.26783894824464483 31.13790694314568697 391.0224964358736202 #
point $-1 -61.26783894824464483 19.40958967622642461 391.0224964358736202 #
straight-curve $-1 268.4392152616815679 19.40958967622642461 60.89804870332635289 -0.5150380817612800755 0 -0.8571672965854804094 I I #
straight-curve $-1 268.4392152616815679 31.13790694314568697 60.89804870332635289 -0.5150380817612800755 0 -0.8571672965854804094 I I #
edge $-1 $667 1 $667 0 $445 $-1 forward 7 unknown #
point $-1 109.5079925091669963 25.27374830968605934 20.25360112574956162 #
plane-surface $-1 268.4392152616815679 42.46730541493427324 60.89804870332635289 -0.8571672965854804094 0 0.5150380817612800755 0.5150380817612800755 0 0.8571672965854804094 forward_v I I I I #
coedge $-1 $454 $452 $456 $603 reversed $284 $-1 #
edge $-1 $467 -113.1601916562395047 $605 113.1601916562394763 $466 $668 forward 7 unknown #
vertex $-1 $603 $669 #
straight-curve $-1 -119.5496469906130415 36.60314678147464207 294.0252808727999536 -0.5150380817612800755 0 -0.8571672965854804094 I I #
edge $-1 $601 -5.864158633459631176 $605 5.864158633459631176 $599 $670 forward 7 unknown #
straight-curve $-1 16.16297609316585948 36.60314678147464207 80.46444922498950802 -0.8571672965854804094 0 0.5150380817612800755 I I #
vertex $-1 $459 $671 #
straight-curve $-1 16.16297609316585948 48.33146404839390442 80.46444922498950802 0.8571672965854804094 0 -0.5150380817612800755 I I #
point $-1 210.1574072193131713 48.33146404839390442 -36.09916685974729944 #
point $-1 210.1574072193131713 36.60314678147464207 -36.09916685974729944 #
straight-curve $-1 -61.26783894824464483 42.46730541493427324 391.0224964358736202 0 -1 0 I I #
point $-1 -61.26783894824464483 48.33146404839390442 391.0224964358736202 #
point $-1 -61.26783894824464483 36.60314678147464207 391.0224964358736202 #
straight-curve $-1 268.4392152616815679 36.60314678147464207 60.89804870332635289 -0.5150380817612800755 0 -0.8571672965854804094 I I #
straight-curve $-1 268.4392152616815679 48.33146404839390442 60.89804870332635289 -0.5150380817612800755 0 -0.8571672965854804094 I I #
edge $-1 $672 1 $672 0 $476 $-1 forward 7 unknown #
point $-1 109.5079925091669963 42.46730541493427324 20.25360112574956162 #
plane-surface $-1 268.4392152616815679 59.6608625201824907 60.89804870332635289 -0.8571672965854804094 0 0.5150380817612800755 0.5150380817612800755 0 0.8571672965854804094 forward_v I I I I #
coedge $-1 $485 $483 $487 $621 reversed $308 $-1 #
edge $-1 $498 -113.1601916562395047 $623 113.1601916562394763 $497 $673 forward 7 unknown #
vertex $-1 $621 $674 #
straight-curve $-1 -119.5496469906130415 53.79670388672285952 294.0252808727999536 -0.5150380817612800755 0 -0.8571672965854804094 I I #
edge $-1 $619 -5.864158633459631176 $623 5.864158633459638281 $617 $675 forward 7 unknown #
straight-curve $-1 16.16297609316585948 53.79670388672285952 80.46444922498950802 -0.8571672965854804094 0 0.5150380817612800755 I I #
vertex $-1 $490 $676 #
straight-curve $-1 16.16297609316585948 65.52502115364212898 80.46444922498950802 0.8571672965854804094 0 -0.5150380817612800755 I I #
point $-1 210.1574072193131713 65.52502115364212898 -36.09916685974729944 #
point $-1 210.1574072193131713 53.79670388672285952 -36.09916685974729944 #
straight-curve $-1 -61.26783894824464483 59.6608625201824907 391.0224964358736202 0 -1 0 I I #
point $-1 -61.26783894824464483 65.52502115364212898 391.0224964358736202 #
point $-1 -61.26783894824464483 53.79670388672285952 391.0224964358736202 #
straight-curve $-1 268.4392152616815679 53.79670388672285952 60.89804870332635289 -0.5150380817612800755 0 -0.8571672965854804094 I I #
straight-curve $-1 268.4392152616815679 65.52502115364212898 60.89804870332635289 -0.5150380817612800755 0 -0.8571672965854804094 I I #
edge $-1 $677 1 $677 0 $507 $-1 forward 7 unknown #
point $-1 109.5079925091669963 59.6608625201824907 20.25360112574956162 #
plane-surface $-1 15.16058707740107536 50.07121991167271347 267.8393255948095657 -0.4999999866025272577 0 -0.8660254115194729874 -0.8660254115194729874 0 0.4999999866025272577 forward_v I I I I #
coedge $-1 $516 $514 $518 $639 reversed $332 $-1 #
edge $-1 $529 -113.1601916562394621 $641 113.1601916562395189 $528 $678 forward 7 unknown #
vertex $-1 $639 $679 #
straight-curve $-1 -211.1597901708356062 41.29208933230059131 -124.1590805920593823 0.8660254115194729874 0 -0.4999999866025272577 I I #
edge $-1 $637 -8.779130579372122156 $641 8.779130579372122156 $635 $680 forward 7 unknown #
straight-curve $-1 -1.421085471520200372e-14 41.29208933230059131 15.26002818931593907 -0.4999999866025272577 0 -0.8660254115194729874 I I #
vertex $-1 $521 $681 #
straight-curve $-1 -1.421085471520200372e-14 58.85035049104483562 15.26002818931593907 0.4999999866025272577 0 0.8660254115194729874 I I #
point $-1 113.1601886241183195 58.85035049104483562 211.2592312827504202 #
point $-1 113.1601886241183195 41.29208933230059131 211.2592312827504202 #
straight-curve $-1 -309.1593917175528077 50.07121991167271347 -67.57898628000020835 0 -1 0 I I #
point $-1 -309.1593917175528077 58.85035049104483562 -67.57898628000020835 #
point $-1 -309.1593917175528077 41.29208933230059131 -67.57898628000020835 #
straight-curve $-1 15.16058707740107536 41.29208933230059131 267.8393255948095657 0.8660254115194729874 0 -0.4999999866025272577 I I #
straight-curve $-1 15.16058707740107536 58.85035049104483562 267.8393255948095657 0.8660254115194729874 0 -0.4999999866025272577 I I #
edge $-1 $682 1 $682 0 $538 $-1 forward 7 unknown #
point $-1 8.692583303129568506 46.30873537765608461 19.32008332438535092 #
edge $-1 $683 1 $683 0 $542 $-1 forward 7 unknown #
point $-1 8.692583303129568506 53.83370444568933522 19.32008332438535092 #
straight-curve $-1 0 67.74105372462032904 12.70700359258946044 0 0 -1 I I #
point $-1 0 0 0 #
straight-curve $-1 0 33.87052686231016452 0 0 1 0 I I #
point $-1 0 67.74105372462032904 0 #
straight-curve $-1 -119.5496469906130415 13.94434983789747662 294.0252808727999536 -0.5150380817612800755 0 -0.8571672965854804094 I I #
point $-1 -177.8314550329814381 2.216032570978210714 197.0280653097263155 #
straight-curve $-1 -177.8314550329814381 8.080191204437843666 197.0280653097263155 0 1 0 I I #
point $-1 -177.8314550329814381 13.94434983789747662 197.0280653097263155 #
vertex $-1 $578 $684 #
straight-curve $-1 -119.5496469906130415 31.13790694314568697 294.0252808727999536 -0.5150380817612800755 0 -0.8571672965854804094 I I #
point $-1 -177.8314550329814381 19.40958967622642461 197.0280653097263155 #
straight-curve $-1 -177.8314550329814381 25.27374830968605579 197.0280653097263155 0 1 0 I I #
point $-1 -177.8314550329814381 31.13790694314568697 197.0280653097263155 #
vertex $-1 $596 $685 #
straight-curve $-1 -119.5496469906130415 48.33146404839390442 294.0252808727999536 -0.5150380817612800755 0 -0.8571672965854804094 I I #
point $-1 -177.8314550329814381 36.60314678147464207 197.0280653097263155 #
straight-curve $-1 -177.8314550329814381 42.46730541493427324 197.0280653097263155 0 1 0 I I #
point $-1 -177.8314550329814381 48.33146404839390442 197.0280653097263155 #
vertex $-1 $614 $686 #
straight-curve $-1 -119.5496469906130415 65.52502115364212898 294.0252808727999536 -0.5150380817612800755 0 -0.8571672965854804094 I I #
point $-1 -177.8314550329814381 53.79670388672285952 197.0280653097263155 #
straight-curve $-1 -177.8314550329814381 59.6608625201824907 197.0280653097263155 0 1 0 I I #
point $-1 -177.8314550329814381 65.52502115364212898 197.0280653097263155 #
vertex $-1 $632 $687 #
straight-curve $-1 -211.1597901708356062 58.85035049104483562 -124.1590805920593823 0.8660254115194729874 0 -0.4999999866025272577 I I #
point $-1 -113.1601886241183479 41.29208933230059131 -180.7391749041185562 #
straight-curve $-1 -113.1601886241183479 50.07121991167271347 -180.7391749041185562 0 1 0 I I #
point $-1 -113.1601886241183479 58.85035049104483562 -180.7391749041185562 #
vertex $-1 $650 $688 #
vertex $-1 $652 $689 #
point $-1 108.1357871308202334 8.080191204437845442 19.91147191092536062 #
point $-1 108.1357871308202334 25.27374830968605934 19.91147191092536062 #
point $-1 108.1357871308202334 42.46730541493427324 19.91147191092536062 #
point $-1 108.1357871308202334 59.6608625201824907 19.91147191092536062 #
point $-1 9.424634152963459854 46.30873537765608461 16.58803252814135121 #
point $-1 9.424634152963459854 53.83370444568933522 16.58803252814135121 #
End-of-ACIS-data 