500 0 9 0           
7 Unknown 11 ACIS 5.0 NT 24 Fri Mar 26 14:52:58 1999 
-1 9.9999999999999995e-007 1e-010 
body $-1 $9 $-1 $10 #
body $-1 $11 $-1 $12 #
body $-1 $13 $-1 $14 #
body $-1 $15 $-1 $16 #
body $-1 $17 $-1 $18 #
body $-1 $19 $-1 $20 #
body $-1 $21 $-1 $22 #
body $-1 $23 $-1 $24 #
body $-1 $25 $-1 $26 #
lump $-1 $-1 $27 $0 #
transform $-1 1 0 0 0 1 0 0 0 1 60.040894802697835 33.762673404814286 11.485099729588365 1 rotate no_reflect no_shear #
lump $-1 $-1 $28 $1 #
transform $-1 1 0 0 0 1 0 0 0 1 60.040894802697835 33.762673404814286 11.485099729588365 1 rotate no_reflect no_shear #
lump $-1 $-1 $29 $2 #
transform $-1 1 0 0 0 1 0 0 0 1 60.040894802697835 33.762673404814286 11.485099729588365 1 rotate no_reflect no_shear #
lump $-1 $-1 $30 $3 #
transform $-1 1 0 0 0 1 0 0 0 1 60.040894802697835 33.762673404814286 11.485099729588365 1 rotate no_reflect no_shear #
lump $-1 $-1 $31 $4 #
transform $-1 1 0 0 0 1 0 0 0 1 60.040894802697835 33.762673404814286 11.485099729588365 1 rotate no_reflect no_shear #
lump $-1 $-1 $32 $5 #
transform $-1 1 0 0 0 1 0 0 0 1 60.040894802697835 33.762673404814286 11.485099729588365 1 rotate no_reflect no_shear #
lump $-1 $-1 $33 $6 #
transform $-1 1 0 0 0 1 0 0 0 1 60.040894802697835 33.762673404814286 11.485099729588365 1 rotate no_reflect no_shear #
lump $-1 $-1 $34 $7 #
transform $-1 1 0 0 0 1 0 0 0 1 60.040894802697835 33.762673404814286 11.485099729588365 1 rotate no_reflect no_shear #
lump $-1 $-1 $35 $8 #
transform $-1 1 0 0 0 1 0 0 0 1 60.040894802697835 33.762673404814286 11.485099729588365 1 rotate no_reflect no_shear #
shell $-1 $-1 $-1 $36 $-1 $9 #
shell $-1 $-1 $-1 $37 $-1 $11 #
shell $-1 $-1 $-1 $38 $-1 $13 #
shell $-1 $-1 $-1 $39 $-1 $15 #
shell $-1 $-1 $-1 $40 $-1 $17 #
shell $-1 $-1 $-1 $41 $-1 $19 #
shell $-1 $-1 $-1 $42 $-1 $21 #
shell $-1 $-1 $-1 $43 $-1 $23 #
shell $-1 $-1 $-1 $44 $-1 $25 #
face $-1 $45 $46 $27 $-1 $47 forward single #
face $-1 $48 $49 $28 $-1 $50 forward single #
face $-1 $51 $52 $29 $-1 $53 reversed single #
face $-1 $54 $55 $30 $-1 $56 forward single #
face $-1 $57 $58 $31 $-1 $59 forward single #
face $-1 $60 $61 $32 $-1 $62 forward single #
face $-1 $63 $64 $33 $-1 $65 reversed single #
face $-1 $66 $67 $34 $-1 $68 forward single #
face $-1 $69 $70 $35 $-1 $71 forward single #
face $-1 $72 $73 $27 $-1 $74 reversed single #
loop $-1 $-1 $75 $36 #
plane-surface $-1 0 0 11.485099729588365 0 0 1 1 0 0 forward_v I I I I #
face $-1 $76 $77 $28 $-1 $78 reversed single #
loop $-1 $-1 $79 $37 #
plane-surface $-1 -60.040894802697835 0 0 1 0 0 0 0 -1 forward_v I I I I #
face $-1 $80 $81 $29 $-1 $82 reversed single #
loop $-1 $-1 $83 $38 #
plane-surface $-1 -47.470362542313069 52.101559908465269 142.50250965978611 1 0 0 0 -0.6018150307709319 -0.79863550430605224 forward_v I I I I #
face $-1 $84 $85 $30 $-1 $86 forward single #
loop $-1 $87 $88 $39 #
cone-surface $-1 -44.696206590129265 29.461122458007182 7.8779790710455737 0 -0.6018150307709319 -0.79863550430605224 1 0 0 1 I I 0 1 1 forward I I I I #
face $-1 $89 $90 $31 $-1 $91 forward single #
loop $-1 $92 $93 $40 #
cone-surface $-1 -40.534972661853558 29.461122458007182 7.8779790710455737 0 -0.6018150307709319 -0.79863550430605224 1 0 0 1 I I 0 1 1 forward I I I I #
face $-1 $94 $95 $32 $-1 $96 forward single #
loop $-1 $97 $98 $41 #
cone-surface $-1 -36.373738733577852 29.461122458007182 7.8779790710455737 0 -0.6018150307709319 -0.79863550430605224 1 0 0 1 I I 0 1 1 forward I I I I #
face $-1 $99 $100 $33 $-1 $101 reversed single #
loop $-1 $-1 $102 $42 #
plane-surface $-1 6.1928110640704972 -93.803569011908365 106.52695416473716 -1 0 0 0 -0.50000000669873634 0.8660253999169214 forward_v I I I I #
face $-1 $103 $104 $34 $-1 $105 forward single #
loop $-1 $106 $107 $43 #
cone-surface $-1 -5.4744868803044611 -25.632211100838369 6.3547511325017396 0 0.50000000669873634 -0.8660253999169214 1.5 0 0 1 I I 0 1 1.5 forward I I I I #
face $-1 $108 $109 $35 $-1 $110 forward single #
loop $-1 $111 $112 $44 #
cone-surface $-1 1.5258918863205082 -25.632211100838369 6.3547511325017396 0 0.50000000669873634 -0.8660253999169214 1.5 0 0 1 I I 0 1 1.5 forward I I I I #
face $-1 $113 $114 $27 $-1 $115 reversed single #
loop $-1 $-1 $116 $45 #
plane-surface $-1 0 0 -11.485099729588365 0 0 1 1 0 0 forward_v I I I I #
coedge $-1 $117 $118 $119 $120 forward $46 $-1 #
face $-1 $121 $122 $28 $-1 $123 forward single #
loop $-1 $-1 $124 $48 #
plane-surface $-1 0 33.762673404814286 0 0 -1 0 0 0 -1 forward_v I I I I #
coedge $-1 $125 $126 $127 $128 forward $49 $-1 #
face $-1 $129 $130 $29 $-1 $131 reversed single #
loop $-1 $-1 $132 $51 #
plane-surface $-1 -40.534972661853558 -20.165465997934511 46.600929060307664 0 0.6018150307709319 0.79863550430605224 1 0 0 forward_v I I I I #
coedge $-1 $133 $134 $135 $136 reversed $52 $-1 #
face $-1 $-1 $137 $30 $-1 $138 forward single #
loop $-1 $139 $140 $54 #
cone-surface $-1 -44.696206590129265 28.522594424546853 6.6325103290173342 0 -0.6018150307709319 -0.79863550430605224 0.5 0 0 1 I I -0.70710678118654746 0.70710678118654746 0.5 forward I I I I #
loop $-1 $-1 $141 $39 #
coedge $-1 $88 $88 $142 $143 reversed $55 $-1 #
face $-1 $-1 $144 $31 $-1 $145 forward single #
loop $-1 $146 $147 $57 #
cone-surface $-1 -40.534972661853558 28.522594424546853 6.6325103290173342 0 -0.6018150307709319 -0.79863550430605224 0.5 0 0 1 I I -0.70710678118654746 0.70710678118654746 0.5 forward I I I I #
loop $-1 $-1 $148 $40 #
coedge $-1 $93 $93 $149 $150 reversed $58 $-1 #
face $-1 $-1 $151 $32 $-1 $152 forward single #
loop $-1 $153 $154 $60 #
cone-surface $-1 -36.373738733577852 28.522594424546853 6.6325103290173342 0 -0.6018150307709319 -0.79863550430605224 0.5 0 0 1 I I -0.70710678118654746 0.70710678118654746 0.5 forward I I I I #
loop $-1 $-1 $155 $41 #
coedge $-1 $98 $98 $156 $157 reversed $61 $-1 #
face $-1 $158 $159 $33 $-1 $160 reversed single #
loop $-1 $-1 $161 $63 #
plane-surface $-1 -1.9742974969919729 -33.762673404814279 2.5330742989847579 0 -0.50000000669873634 0.8660253999169214 1 0 0 forward_v I I I I #
coedge $-1 $162 $163 $164 $165 reversed $64 $-1 #
face $-1 $-1 $166 $34 $-1 $167 forward single #
loop $-1 $168 $169 $66 #
cone-surface $-1 -5.4744868803044611 -24.879430091577007 5.0508962007792295 0 0.50000000669873634 -0.8660253999169214 0.75 0 0 1 I I -0.70710678118654757 0.70710678118654757 0.75 forward I I I I #
loop $-1 $-1 $170 $43 #
coedge $-1 $107 $107 $171 $172 reversed $67 $-1 #
face $-1 $-1 $173 $35 $-1 $174 forward single #
loop $-1 $175 $176 $69 #
cone-surface $-1 1.5258918863205082 -24.879430091577007 5.0508962007792295 0 0.50000000669873634 -0.8660253999169214 0.75 0 0 1 I I -0.70710678118654757 0.70710678118654757 0.75 forward I I I I #
loop $-1 $-1 $177 $44 #
coedge $-1 $112 $112 $178 $179 reversed $70 $-1 #
face $-1 $180 $181 $27 $-1 $182 reversed single #
loop $-1 $-1 $183 $72 #
plane-surface $-1 0 -33.762673404814286 0 0 1 0 0 0 1 forward_v I I I I #
coedge $-1 $184 $185 $186 $187 forward $73 $-1 #
coedge $-1 $188 $75 $189 $190 forward $46 $-1 #
coedge $-1 $75 $188 $191 $192 forward $46 $-1 #
coedge $-1 $193 $194 $75 $120 reversed $195 $-1 #
edge $-1 $196 -33.762673404814286 $197 33.762673404814286 $119 $198 forward 7 unknown #
face $-1 $199 $200 $28 $-1 $201 reversed single #
loop $-1 $-1 $127 $76 #
plane-surface $-1 -66.326160932890218 0 -8.4850997295883648 0 0 1 1 0 0 forward_v I I I I #
coedge $-1 $202 $203 $126 $204 forward $77 $-1 #
coedge $-1 $205 $79 $206 $207 reversed $49 $-1 #
coedge $-1 $79 $205 $124 $204 reversed $49 $-1 #
coedge $-1 $208 $209 $79 $128 reversed $122 $-1 #
edge $-1 $210 -33.762673404814286 $211 33.762673404814286 $127 $212 forward 7 unknown #
face $-1 $213 $214 $29 $-1 $215 forward single #
loop $-1 $-1 $216 $80 #
plane-surface $-1 -33.599582781394048 52.101559908465269 142.50250965978611 -1 0 0 0 0.6018150307709319 0.79863550430605224 forward_v I I I I #
coedge $-1 $217 $218 $219 $220 reversed $81 $-1 #
coedge $-1 $134 $83 $221 $222 reversed $52 $-1 #
coedge $-1 $83 $133 $217 $223 reversed $52 $-1 #
coedge $-1 $219 $224 $83 $136 forward $214 $-1 #
edge $-1 $225 -7.7118934505816519 $226 -0.38403259311715132 $135 $227 forward 7 unknown #
loop $-1 $-1 $142 $84 #
plane-surface $-1 -40.534972661853558 -20.165465997934511 46.600929060307664 0 0.6018150307709319 0.79863550430605224 1 0 0 forward_v I I I I #
loop $-1 $-1 $228 $54 #
coedge $-1 $140 $140 $141 $229 reversed $85 $-1 #
coedge $-1 $141 $141 $140 $229 forward $87 $-1 #
coedge $-1 $142 $142 $88 $143 forward $137 $-1 #
edge $-1 $230 -7.3958291473520646e-016 $230 6.2831853071795996 $142 $231 forward 7 unknown #
loop $-1 $-1 $149 $89 #
plane-surface $-1 -40.534972661853558 -20.165465997934511 46.600929060307664 0 0.6018150307709319 0.79863550430605224 1 0 0 forward_v I I I I #
loop $-1 $-1 $232 $57 #
coedge $-1 $147 $147 $148 $233 reversed $90 $-1 #
coedge $-1 $148 $148 $147 $233 forward $92 $-1 #
coedge $-1 $149 $149 $93 $150 forward $144 $-1 #
edge $-1 $234 -7.3958291473520646e-016 $234 6.2831853071795996 $149 $235 forward 7 unknown #
loop $-1 $-1 $156 $94 #
plane-surface $-1 -40.534972661853558 -20.165465997934511 46.600929060307664 0 0.6018150307709319 0.79863550430605224 1 0 0 forward_v I I I I #
loop $-1 $-1 $236 $60 #
coedge $-1 $154 $154 $155 $237 reversed $95 $-1 #
coedge $-1 $155 $155 $154 $237 forward $97 $-1 #
coedge $-1 $156 $156 $98 $157 forward $151 $-1 #
edge $-1 $238 -7.3958291473520646e-016 $238 6.2831853071795996 $156 $239 forward 7 unknown #
face $-1 $240 $241 $33 $-1 $242 reversed single #
loop $-1 $-1 $243 $99 #
plane-surface $-1 -10.141406058054443 -93.803569011908365 106.52695416473716 1 0 0 0 0.50000000669873634 -0.8660253999169214 forward_v I I I I #
coedge $-1 $244 $245 $246 $247 reversed $100 $-1 #
coedge $-1 $163 $102 $248 $249 reversed $64 $-1 #
coedge $-1 $102 $162 $244 $250 reversed $64 $-1 #
coedge $-1 $246 $251 $102 $165 forward $252 $-1 #
edge $-1 $253 13.139111101139896 $254 28.644473700617112 $164 $255 forward 7 unknown #
loop $-1 $-1 $171 $103 #
plane-surface $-1 -1.9742974969919729 -33.762673404814279 2.5330742989847579 0 -0.50000000669873634 0.8660253999169214 1 0 0 forward_v I I I I #
loop $-1 $-1 $256 $66 #
coedge $-1 $169 $169 $170 $257 reversed $104 $-1 #
coedge $-1 $170 $170 $169 $257 forward $106 $-1 #
coedge $-1 $171 $171 $107 $172 forward $166 $-1 #
edge $-1 $258 -2.051160189649014e-015 $258 6.2831853071795987 $171 $259 forward 7 unknown #
loop $-1 $-1 $178 $108 #
plane-surface $-1 -1.9742974969919729 -33.762673404814279 2.5330742989847579 0 -0.50000000669873634 0.8660253999169214 1 0 0 forward_v I I I I #
loop $-1 $-1 $260 $69 #
coedge $-1 $176 $176 $177 $261 reversed $109 $-1 #
coedge $-1 $177 $177 $176 $261 forward $111 $-1 #
coedge $-1 $178 $178 $112 $179 forward $173 $-1 #
edge $-1 $262 -2.051160189649014e-015 $262 6.2831853071795987 $178 $263 forward 7 unknown #
face $-1 $264 $265 $27 $-1 $266 reversed single #
loop $-1 $-1 $267 $113 #
plane-surface $-1 -60.040894802697835 0 0 1 0 0 0 0 -1 forward_v I I I I #
coedge $-1 $268 $191 $267 $269 forward $114 $-1 #
coedge $-1 $270 $116 $268 $271 forward $73 $-1 #
coedge $-1 $116 $270 $272 $273 forward $73 $-1 #
coedge $-1 $194 $193 $116 $187 reversed $195 $-1 #
edge $-1 $274 -33.762673404814286 $275 33.762673404814286 $186 $276 forward 7 unknown #
coedge $-1 $118 $117 $277 $278 forward $46 $-1 #
coedge $-1 $279 $280 $117 $190 reversed $265 $-1 #
edge $-1 $197 -60.040894802697835 $281 60.040894802697835 $189 $282 forward 7 unknown #
coedge $-1 $183 $283 $118 $192 reversed $114 $-1 #
edge $-1 $284 -60.040894802697835 $196 60.040894802697835 $191 $285 forward 7 unknown #
coedge $-1 $186 $119 $283 $286 forward $195 $-1 #
coedge $-1 $119 $186 $279 $287 reversed $195 $-1 #
loop $-1 $-1 $193 $264 #
vertex $-1 $120 $288 #
vertex $-1 $120 $289 #
straight-curve $-1 60.040894802697835 0 11.485099729588365 0 1 0 I I #
face $-1 $290 $291 $28 $-1 $292 reversed single #
loop $-1 $-1 $293 $121 #
plane-surface $-1 -72.611427063082601 0 -9.9850997295883648 1 0 0 0 0 -1 forward_v I I I I #
coedge $-1 $294 $124 $295 $296 reversed $77 $-1 #
coedge $-1 $124 $294 $208 $297 reversed $77 $-1 #
edge $-1 $210 8.4850997295883648 $298 11.485099729588365 $124 $299 forward 7 unknown #
coedge $-1 $126 $125 $300 $301 reversed $49 $-1 #
coedge $-1 $302 $303 $125 $207 forward $304 $-1 #
edge $-1 $305 -11.485099729588365 $211 -8.4850997295883648 $206 $306 forward 7 unknown #
coedge $-1 $307 $127 $203 $297 forward $122 $-1 #
coedge $-1 $127 $307 $302 $308 forward $122 $-1 #
vertex $-1 $204 $309 #
vertex $-1 $308 $310 #
straight-curve $-1 -60.040894802697835 0 -8.4850997295883648 0 -1 0 I I #
face $-1 $-1 $311 $29 $-1 $312 reversed single #
loop $-1 $-1 $135 $129 #
plane-surface $-1 0 0 11.485099729588365 0 0 1 1 0 0 forward_v I I I I #
coedge $-1 $313 $314 $315 $316 reversed $130 $-1 #
coedge $-1 $317 $132 $134 $223 forward $81 $-1 #
coedge $-1 $132 $317 $313 $318 forward $81 $-1 #
coedge $-1 $315 $135 $132 $220 forward $214 $-1 #
edge $-1 $226 -27.20287621138629 $319 -13.332096450467269 $219 $320 forward 7 unknown #
coedge $-1 $321 $322 $133 $222 forward $311 $-1 #
edge $-1 $323 -65.28809443763987 $225 -59.766155100304694 $221 $324 forward 7 unknown #
edge $-1 $226 58.349870866029264 $323 67.525346809628587 $134 $325 forward 7 unknown #
coedge $-1 $135 $315 $321 $326 forward $214 $-1 #
vertex $-1 $222 $327 #
vertex $-1 $136 $328 #
straight-curve $-1 -47.470362542313069 26.050779954232635 11.48509972958837 0 -1 0 I I #
coedge $-1 $228 $228 $-1 $329 reversed $139 $-1 #
edge $-1 $330 0 $330 6.2831853071796004 $140 $331 forward 7 unknown #
vertex $-1 $143 $332 #
ellipse-curve $-1 -44.696206590129265 30.09874297608204 8.7241300609207748 0 0.6018150307709319 0.79863550430605224 1 0 0 1 I I #
coedge $-1 $232 $232 $-1 $333 reversed $146 $-1 #
edge $-1 $334 0 $334 6.2831853071796004 $147 $335 forward 7 unknown #
vertex $-1 $150 $336 #
ellipse-curve $-1 -40.534972661853558 30.09874297608204 8.7241300609207748 0 0.6018150307709319 0.79863550430605224 1 0 0 1 I I #
coedge $-1 $236 $236 $-1 $337 reversed $153 $-1 #
edge $-1 $338 0 $338 6.2831853071796004 $154 $339 forward 7 unknown #
vertex $-1 $157 $340 #
ellipse-curve $-1 -36.373738733577852 30.09874297608204 8.7241300609207748 0 0.6018150307709319 0.79863550430605224 1 0 0 1 I I #
face $-1 $-1 $252 $33 $-1 $341 forward single #
loop $-1 $-1 $342 $158 #
plane-surface $-1 0 -33.762673404814286 0 0 1 0 0 0 1 forward_v I I I I #
coedge $-1 $343 $344 $345 $346 reversed $159 $-1 #
coedge $-1 $347 $161 $163 $250 forward $100 $-1 #
coedge $-1 $161 $347 $343 $348 forward $100 $-1 #
coedge $-1 $345 $164 $161 $247 forward $252 $-1 #
edge $-1 $254 -7.1799598125664836 $349 9.1542573095584565 $246 $350 forward 7 unknown #
coedge $-1 $351 $352 $162 $249 forward $241 $-1 #
edge $-1 $353 -50.73040278338383 $253 -41.778377352780218 $248 $354 forward 7 unknown #
edge $-1 $254 -17.904050621338186 $353 8.1518820400458524e-015 $163 $355 forward 7 unknown #
coedge $-1 $164 $345 $351 $356 forward $252 $-1 #
loop $-1 $-1 $345 $240 #
vertex $-1 $249 $357 #
vertex $-1 $165 $358 #
straight-curve $-1 6.1928110640704972 -46.901784505954183 11.485099729588363 0 1 0 I I #
coedge $-1 $256 $256 $-1 $359 reversed $168 $-1 #
edge $-1 $360 0 $360 6.2831853071796004 $169 $361 forward 7 unknown #
vertex $-1 $172 $362 #
ellipse-curve $-1 -5.4744868803044611 -26.009992105075678 7.0090870142865596 0 -0.50000000669873634 0.8660253999169214 1.5 0 0 1 I I #
coedge $-1 $260 $260 $-1 $363 reversed $175 $-1 #
edge $-1 $364 0 $364 6.2831853071796004 $176 $365 forward 7 unknown #
vertex $-1 $179 $366 #
ellipse-curve $-1 1.5258918863205082 -26.009992105075678 7.0090870142865596 0 -0.50000000669873634 0.8660253999169214 1.5 0 0 1 I I #
face $-1 $-1 $195 $27 $-1 $367 reversed single #
loop $-1 $-1 $279 $180 #
plane-surface $-1 0 33.762673404814286 0 0 -1 0 0 0 -1 forward_v I I I I #
coedge $-1 $277 $368 $183 $269 reversed $181 $-1 #
coedge $-1 $283 $183 $184 $271 reversed $114 $-1 #
edge $-1 $284 -11.485099729588365 $369 11.485099729588365 $267 $370 forward 7 unknown #
coedge $-1 $185 $184 $368 $371 forward $73 $-1 #
edge $-1 $275 -60.040894802697835 $369 60.040894802697835 $268 $372 forward 7 unknown #
coedge $-1 $280 $279 $185 $273 reversed $265 $-1 #
edge $-1 $373 -60.040894802697835 $274 60.040894802697835 $272 $374 forward 7 unknown #
vertex $-1 $187 $375 #
vertex $-1 $286 $376 #
straight-curve $-1 60.040894802697835 0 -11.485099729588365 0 -1 0 I I #
coedge $-1 $377 $267 $188 $278 reversed $181 $-1 #
edge $-1 $281 -33.762673404814286 $284 33.762673404814286 $277 $378 forward 7 unknown #
coedge $-1 $272 $189 $194 $287 forward $265 $-1 #
coedge $-1 $189 $272 $377 $379 reversed $265 $-1 #
vertex $-1 $190 $380 #
straight-curve $-1 0 33.762673404814286 11.485099729588365 -1 0 0 I I #
coedge $-1 $191 $268 $193 $286 reversed $114 $-1 #
vertex $-1 $278 $381 #
straight-curve $-1 0 -33.762673404814286 11.485099729588365 1 0 0 I I #
edge $-1 $196 -11.485099729588365 $275 11.485099729588365 $193 $382 forward 7 unknown #
edge $-1 $197 -11.485099729588365 $274 11.485099729588365 $194 $383 forward 7 unknown #
point $-1 60.040894802697835 -33.762673404814286 11.485099729588365 #
point $-1 60.040894802697835 33.762673404814286 11.485099729588365 #
face $-1 $-1 $304 $28 $-1 $384 reversed single #
loop $-1 $-1 $300 $199 #
plane-surface $-1 0 0 -11.485099729588365 0 0 1 1 0 0 forward_v I I I I #
coedge $-1 $385 $386 $294 $387 forward $200 $-1 #
coedge $-1 $203 $202 $293 $387 reversed $77 $-1 #
coedge $-1 $300 $388 $202 $296 forward $291 $-1 #
edge $-1 $389 -72.611427063082601 $298 -60.040894802697835 $202 $390 forward 7 unknown #
edge $-1 $210 -6.2852661301923831 $391 6.2852661301923831 $203 $392 forward 7 unknown #
vertex $-1 $204 $393 #
straight-curve $-1 -60.040894802697835 33.762673404814286 0 0 0 -1 I I #
coedge $-1 $394 $295 $205 $301 forward $291 $-1 #
edge $-1 $298 -33.762673404814286 $305 33.762673404814286 $300 $395 forward 7 unknown #
coedge $-1 $396 $206 $209 $308 reversed $304 $-1 #
coedge $-1 $206 $396 $394 $397 reversed $304 $-1 #
loop $-1 $-1 $206 $290 #
vertex $-1 $397 $398 #
straight-curve $-1 -60.040894802697835 -33.762673404814286 0 0 0 1 I I #
coedge $-1 $209 $208 $386 $399 forward $122 $-1 #
edge $-1 $400 -6.2852661301923831 $211 6.2852661301923831 $302 $401 forward 7 unknown #
point $-1 -60.040894802697835 33.762673404814286 -8.4850997295883648 #
point $-1 -60.040894802697835 -33.762673404814286 -8.4850997295883648 #
loop $-1 $-1 $221 $213 #
plane-surface $-1 0 33.762673404814286 0 0 -1 0 0 0 -1 forward_v I I I I #
coedge $-1 $314 $216 $218 $318 reversed $130 $-1 #
coedge $-1 $216 $313 $402 $403 reversed $130 $-1 #
coedge $-1 $224 $219 $216 $316 forward $214 $-1 #
edge $-1 $319 0.38403259311715132 $404 7.7118934505816519 $315 $405 forward 7 unknown #
coedge $-1 $218 $217 $322 $406 reversed $81 $-1 #
edge $-1 $407 -67.525346809628587 $319 -58.349870866029264 $313 $408 forward 7 unknown #
vertex $-1 $220 $409 #
straight-curve $-1 -20.267486330926779 26.434812547349793 11.485099729588363 1 0 0 I I #
coedge $-1 $402 $221 $224 $326 reversed $311 $-1 #
coedge $-1 $221 $402 $317 $406 forward $311 $-1 #
vertex $-1 $222 $410 #
straight-curve $-1 -47.470362542313069 33.762673404814286 71.251254829893057 0 0 1 I I #
straight-curve $-1 -47.470362542313069 -20.165465997934511 46.600929060307664 0 0.79863550430605224 -0.6018150307709319 I I #
edge $-1 $404 33.599582781394048 $225 47.470362542313069 $321 $411 forward 7 unknown #
point $-1 -47.470362542313069 33.762673404814286 11.485099729588365 #
point $-1 -47.470362542313069 26.434812547349786 11.485099729588363 #
edge $-1 $412 1 $412 0 $228 $-1 forward 7 unknown #
vertex $-1 $229 $413 #
ellipse-curve $-1 -44.696206590129265 28.823501939932317 7.0318280811703602 0 0.6018150307709319 0.79863550430605224 1 0 0 1 I I #
point $-1 -43.696206590129265 30.098742976082047 8.7241300609207855 #
edge $-1 $414 1 $414 0 $232 $-1 forward 7 unknown #
vertex $-1 $233 $415 #
ellipse-curve $-1 -40.534972661853558 28.823501939932317 7.0318280811703602 0 0.6018150307709319 0.79863550430605224 1 0 0 1 I I #
point $-1 -39.534972661853558 30.098742976082047 8.7241300609207855 #
edge $-1 $416 1 $416 0 $236 $-1 forward 7 unknown #
vertex $-1 $237 $417 #
ellipse-curve $-1 -36.373738733577852 28.823501939932317 7.0318280811703602 0 0.6018150307709319 0.79863550430605224 1 0 0 1 I I #
point $-1 -35.373738733577852 30.098742976082047 8.7241300609207855 #
plane-surface $-1 0 0 11.485099729588365 0 0 1 1 0 0 forward_v I I I I #
coedge $-1 $352 $351 $344 $418 forward $241 $-1 #
coedge $-1 $344 $243 $245 $348 reversed $159 $-1 #
coedge $-1 $243 $343 $342 $418 reversed $159 $-1 #
coedge $-1 $251 $246 $243 $346 forward $252 $-1 #
edge $-1 $349 -28.644473700617112 $419 -13.139111101139896 $345 $420 forward 7 unknown #
coedge $-1 $245 $244 $352 $421 reversed $100 $-1 #
edge $-1 $422 -8.1518820400458524e-015 $349 17.904050621338186 $343 $423 forward 7 unknown #
vertex $-1 $247 $424 #
straight-curve $-1 -0.98714874849598644 -18.257310805337074 11.485099729588365 -1 0 0 I I #
coedge $-1 $342 $248 $251 $356 reversed $241 $-1 #
coedge $-1 $248 $342 $347 $421 forward $241 $-1 #
vertex $-1 $249 $425 #
straight-curve $-1 6.1928110640704972 -33.762673404814286 53.263477082368581 0 0 1 I I #
straight-curve $-1 6.1928110640704972 -33.762673404814279 2.5330742989847579 0 -0.8660253999169214 -0.50000000669873634 I I #
edge $-1 $419 -10.141406058054443 $253 6.1928110640704972 $351 $426 forward 7 unknown #
point $-1 6.1928110640704972 -33.762673404814286 11.485099729588365 #
point $-1 6.1928110640704972 -18.25731080533707 11.485099729588365 #
edge $-1 $427 1 $427 0 $256 $-1 forward 7 unknown #
vertex $-1 $257 $428 #
ellipse-curve $-1 -5.4744868803044611 -25.254430096601059 5.7004152507169206 0 -0.50000000669873634 0.8660253999169214 1.5 0 0 1 I I #
point $-1 -3.9744868803044611 -26.009992105075682 7.0090870142865596 #
edge $-1 $429 1 $429 0 $260 $-1 forward 7 unknown #
vertex $-1 $261 $430 #
ellipse-curve $-1 1.5258918863205082 -25.254430096601059 5.7004152507169206 0 -0.50000000669873634 0.8660253999169214 1.5 0 0 1 I I #
point $-1 3.0258918863205082 -26.009992105075682 7.0090870142865596 #
plane-surface $-1 60.040894802697835 0 0 -1 0 0 0 0 1 forward_v I I I I #
coedge $-1 $267 $377 $270 $371 reversed $181 $-1 #
vertex $-1 $371 $431 #
straight-curve $-1 -60.040894802697835 -33.762673404814286 0 0 0 -1 I I #
edge $-1 $369 -33.762673404814286 $373 33.762673404814286 $368 $432 forward 7 unknown #
straight-curve $-1 0 -33.762673404814286 -11.485099729588365 -1 0 0 I I #
vertex $-1 $273 $433 #
straight-curve $-1 0 33.762673404814286 -11.485099729588365 1 0 0 I I #
point $-1 60.040894802697835 33.762673404814286 -11.485099729588365 #
point $-1 60.040894802697835 -33.762673404814286 -11.485099729588365 #
coedge $-1 $368 $277 $280 $379 forward $181 $-1 #
straight-curve $-1 -60.040894802697835 0 11.485099729588365 0 -1 0 I I #
edge $-1 $281 -11.485099729588365 $373 11.485099729588365 $280 $434 forward 7 unknown #
point $-1 -60.040894802697835 33.762673404814286 11.485099729588365 #
point $-1 -60.040894802697835 -33.762673404814286 11.485099729588365 #
straight-curve $-1 60.040894802697835 -33.762673404814286 0 0 0 -1 I I #
straight-curve $-1 60.040894802697835 33.762673404814286 0 0 0 -1 I I #
plane-surface $-1 0 -33.762673404814286 0 0 1 0 0 0 1 forward_v I I I I #
coedge $-1 $435 $293 $388 $436 reversed $200 $-1 #
coedge $-1 $293 $435 $307 $399 reversed $200 $-1 #
edge $-1 $391 -1.5 $389 1.5 $294 $437 forward 7 unknown #
coedge $-1 $295 $394 $385 $436 forward $291 $-1 #
vertex $-1 $296 $438 #
straight-curve $-1 0 33.762673404814286 -11.485099729588365 1 0 0 I I #
vertex $-1 $297 $439 #
straight-curve $-1 -66.326160932890218 33.762673404814286 -8.4850997295883648 -1 0 0 I I #
point $-1 -60.040894802697835 33.762673404814286 -11.485099729588365 #
coedge $-1 $388 $300 $303 $397 forward $291 $-1 #
straight-curve $-1 -60.040894802697835 0 -11.485099729588365 0 -1 0 I I #
coedge $-1 $303 $302 $435 $440 forward $304 $-1 #
edge $-1 $305 -6.2852661301923831 $441 6.2852661301923831 $303 $442 forward 7 unknown #
point $-1 -60.040894802697835 -33.762673404814286 -11.485099729588365 #
edge $-1 $391 -33.762673404814286 $400 33.762673404814286 $386 $443 forward 7 unknown #
vertex $-1 $399 $444 #
straight-curve $-1 -66.326160932890218 -33.762673404814286 -8.4850997295883648 1 0 0 I I #
coedge $-1 $322 $321 $314 $403 forward $311 $-1 #
edge $-1 $404 59.766155100304694 $407 65.28809443763987 $402 $445 forward 7 unknown #
vertex $-1 $326 $446 #
straight-curve $-1 -33.599582781394048 26.050779954232635 11.48509972958837 0 1 0 I I #
edge $-1 $407 13.332096450467269 $323 27.20287621138629 $322 $447 forward 7 unknown #
vertex $-1 $406 $448 #
straight-curve $-1 -33.599582781394048 -20.165465997934511 46.600929060307664 0 -0.79863550430605224 0.6018150307709319 I I #
point $-1 -33.599582781394048 26.434812547349786 11.485099729588363 #
point $-1 -47.470362542313069 33.762673404814294 5.9631603922531866 #
straight-curve $-1 0 33.762673404814286 11.485099729588365 -1 0 0 I I #
vertex $-1 $329 $449 #
point $-1 -43.696206590129265 28.823501939932317 7.0318280811703602 #
vertex $-1 $333 $450 #
point $-1 -39.534972661853558 28.823501939932317 7.0318280811703602 #
vertex $-1 $337 $451 #
point $-1 -35.373738733577852 28.823501939932317 7.0318280811703602 #
edge $-1 $419 41.778377352780218 $422 50.73040278338383 $342 $452 forward 7 unknown #
vertex $-1 $356 $453 #
straight-curve $-1 -10.141406058054443 -46.901784505954183 11.485099729588363 0 -1 0 I I #
edge $-1 $422 -9.1542573095584565 $353 7.1799598125664836 $352 $454 forward 7 unknown #
vertex $-1 $421 $455 #
straight-curve $-1 -10.141406058054443 -33.762673404814279 2.5330742989847579 0 0.8660253999169214 0.50000000669873634 I I #
point $-1 -10.141406058054443 -18.25731080533707 11.485099729588365 #
point $-1 6.1928110640704972 -33.762673404814286 2.5330742989847539 #
straight-curve $-1 0 -33.762673404814286 11.485099729588365 1 0 0 I I #
vertex $-1 $359 $456 #
point $-1 -3.9744868803044611 -25.254430096601059 5.7004152507169206 #
vertex $-1 $363 $457 #
point $-1 3.0258918863205082 -25.254430096601059 5.7004152507169206 #
point $-1 -60.040894802697835 -33.762673404814286 -11.485099729588365 #
straight-curve $-1 -60.040894802697835 0 -11.485099729588365 0 1 0 I I #
point $-1 -60.040894802697835 33.762673404814286 -11.485099729588365 #
straight-curve $-1 -60.040894802697835 33.762673404814286 0 0 0 -1 I I #
coedge $-1 $386 $385 $396 $440 reversed $200 $-1 #
edge $-1 $441 -33.762673404814286 $389 33.762673404814286 $385 $458 forward 7 unknown #
straight-curve $-1 -72.611427063082601 33.762673404814286 -9.9850997295883648 0 0 -1 I I #
point $-1 -72.611427063082601 33.762673404814286 -11.485099729588365 #
point $-1 -72.611427063082601 33.762673404814286 -8.4850997295883648 #
edge $-1 $400 -1.5 $441 1.5 $435 $459 forward 7 unknown #
vertex $-1 $436 $460 #
straight-curve $-1 -66.326160932890218 -33.762673404814286 -11.485099729588365 -1 0 0 I I #
straight-curve $-1 -72.611427063082601 0 -8.4850997295883648 0 -1 0 I I #
point $-1 -72.611427063082601 -33.762673404814286 -8.4850997295883648 #
straight-curve $-1 -33.599582781394048 33.762673404814286 71.251254829893057 0 0 -1 I I #
point $-1 -33.599582781394048 33.762673404814286 11.485099729588365 #
straight-curve $-1 -20.267486330926779 33.762673404814286 5.9631603922531902 -1 0 0 I I #
point $-1 -33.599582781394048 33.762673404814294 5.9631603922531866 #
point $-1 -44.696206590129265 28.221686909161388 6.2331925768643082 #
point $-1 -40.534972661853558 28.221686909161388 6.2331925768643082 #
point $-1 -36.373738733577852 28.221686909161388 6.2331925768643082 #
straight-curve $-1 -10.141406058054443 -33.762673404814286 53.263477082368581 0 0 -1 I I #
point $-1 -10.141406058054443 -33.762673404814286 11.485099729588365 #
straight-curve $-1 -0.98714874849598644 -33.762673404814286 2.5330742989847503 1 0 0 I I #
point $-1 -10.141406058054443 -33.762673404814286 2.5330742989847539 #
point $-1 -5.4744868803044611 -24.504430086552954 4.4013771508415385 #
point $-1 1.5258918863205082 -24.504430086552954 4.4013771508415385 #
straight-curve $-1 -72.611427063082601 0 -11.485099729588365 0 1 0 I I #
straight-curve $-1 -72.611427063082601 -33.762673404814286 -9.9850997295883648 0 0 -1 I I #
point $-1 -72.611427063082601 -33.762673404814286 -11.485099729588365 #
End-of-ACIS-data 