500 0 6 0           
7 Unknown 11 ACIS 5.0 NT 24 Thu Mar 25 23:17:57 1999 
-1 9.9999999999999995e-007 1e-010 
body $-1 $6 $-1 $7 #
body $-1 $8 $-1 $9 #
body $-1 $10 $-1 $11 #
body $-1 $12 $-1 $13 #
body $-1 $14 $-1 $15 #
body $-1 $16 $-1 $17 #
lump $-1 $-1 $18 $0 #
transform $-1 1 0 0 0 1 0 0 0 1 69.01577806939909 47.922439922672069 19.979505349394916 1 rotate no_reflect no_shear #
lump $-1 $-1 $19 $1 #
transform $-1 1 0 0 0 1 0 0 0 1 69.01577806939909 47.922439922672069 19.979505349394916 1 rotate no_reflect no_shear #
lump $-1 $-1 $20 $2 #
transform $-1 1 0 0 0 1 0 0 0 1 69.01577806939909 47.922439922672069 19.979505349394916 1 rotate no_reflect no_shear #
lump $-1 $-1 $21 $3 #
transform $-1 1 0 0 0 1 0 0 0 1 69.01577806939909 47.922439922672069 19.979505349394916 1 rotate no_reflect no_shear #
lump $-1 $-1 $22 $4 #
transform $-1 1 0 0 0 1 0 0 0 1 69.01577806939909 47.922439922672069 19.979505349394916 1 rotate no_reflect no_shear #
lump $-1 $-1 $23 $5 #
transform $-1 1 0 0 0 1 0 0 0 1 69.01577806939909 47.922439922672069 19.979505349394916 1 rotate no_reflect no_shear #
shell $-1 $-1 $-1 $24 $-1 $6 #
shell $-1 $-1 $-1 $25 $-1 $8 #
shell $-1 $-1 $-1 $26 $-1 $10 #
shell $-1 $-1 $-1 $27 $-1 $12 #
shell $-1 $-1 $-1 $28 $-1 $14 #
shell $-1 $-1 $-1 $29 $-1 $16 #
face $-1 $30 $31 $18 $-1 $32 forward single #
face $-1 $33 $34 $19 $-1 $35 forward single #
face $-1 $36 $37 $20 $-1 $38 reversed single #
face $-1 $39 $40 $21 $-1 $41 forward single #
face $-1 $42 $43 $22 $-1 $44 reversed single #
face $-1 $45 $46 $23 $-1 $47 forward single #
face $-1 $48 $49 $18 $-1 $50 reversed single #
loop $-1 $-1 $51 $24 #
plane-surface $-1 0 0 19.979505349394916 0 0 1 1 0 0 forward_v I I I I #
face $-1 $52 $53 $19 $-1 $54 reversed single #
loop $-1 $-1 $55 $25 #
plane-surface $-1 0 -35.043021639846572 -14.81972355162125 0 0 1 1 0 0 forward_v I I I I #
face $-1 $56 $57 $20 $-1 $58 reversed single #
loop $-1 $-1 $59 $26 #
plane-surface $-1 -29.522374746230426 106.01690892206146 162.07431174780621 1 0 0 0 -0.81915205242281985 -0.57357642473473569 forward_v I I I I #
face $-1 $60 $61 $21 $-1 $62 forward single #
loop $-1 $63 $64 $27 #
cone-surface $-1 -14.761187373115213 39.782936838887167 10.307394459093736 0 -0.81915205242281985 -0.57357642473473569 2.5 0 0 1 I I 0 1 2.5 forward I I I I #
face $-1 $65 $66 $22 $-1 $67 reversed single #
loop $-1 $-1 $68 $28 #
plane-surface $-1 -14.761187373115213 -7.0519235881507427 82.90266527714239 0 0.81915205242281985 0.57357642473473569 1 0 0 forward_v I I I I #
face $-1 $69 $70 $23 $-1 $71 forward single #
loop $-1 $72 $73 $29 #
cone-surface $-1 14.761187373115206 39.782936838887167 10.307394459093736 0 -0.81915205242281985 -0.57357642473473569 2.5 0 0 1 I I 0 1 2.5 forward I I I I #
face $-1 $74 $75 $18 $-1 $76 reversed single #
loop $-1 $-1 $77 $30 #
plane-surface $-1 0 0 -19.979505349394916 0 0 1 1 0 0 forward_v I I I I #
coedge $-1 $78 $79 $80 $81 forward $31 $-1 #
face $-1 $82 $83 $19 $-1 $84 reversed single #
loop $-1 $-1 $85 $33 #
plane-surface $-1 0 -22.163603357021074 -17.399614450508082 0 -1 0 0 0 -1 forward_v I I I I #
coedge $-1 $86 $87 $88 $89 reversed $34 $-1 #
face $-1 $90 $91 $20 $-1 $92 reversed single #
loop $-1 $-1 $93 $36 #
plane-surface $-1 -14.761187373115213 -7.0519235881507427 82.90266527714239 0 0.81915205242281985 0.57357642473473569 1 0 0 forward_v I I I I #
coedge $-1 $94 $95 $96 $97 reversed $37 $-1 #
face $-1 $-1 $98 $21 $-1 $99 forward single #
loop $-1 $100 $101 $39 #
cone-surface $-1 -14.761187373115213 36.077040655191411 7.7124980937665093 0 -0.81915205242281985 -0.57357642473473569 1.25 0 0 1 I I -0.70710678118654724 0.70710678118654768 1.25 forward I I I I #
loop $-1 $-1 $102 $27 #
coedge $-1 $64 $64 $103 $104 reversed $40 $-1 #
face $-1 $105 $106 $22 $-1 $107 forward single #
loop $-1 $-1 $108 $42 #
plane-surface $-1 29.522374746230419 106.01690892206146 162.07431174780621 -1 0 0 0 0.81915205242281985 0.57357642473473569 forward_v I I I I #
coedge $-1 $109 $110 $111 $112 reversed $43 $-1 #
face $-1 $-1 $113 $23 $-1 $114 forward single #
loop $-1 $115 $116 $45 #
cone-surface $-1 14.761187373115206 36.077040655191411 7.7124980937665093 0 -0.81915205242281985 -0.57357642473473569 1.25 0 0 1 I I -0.70710678118654724 0.70710678118654768 1.25 forward I I I I #
loop $-1 $-1 $117 $29 #
coedge $-1 $73 $73 $118 $119 reversed $46 $-1 #
face $-1 $120 $121 $18 $-1 $122 reversed single #
loop $-1 $-1 $123 $48 #
plane-surface $-1 0 -47.922439922672069 0 0 1 0 0 0 1 forward_v I I I I #
coedge $-1 $124 $125 $126 $127 forward $49 $-1 #
coedge $-1 $128 $51 $129 $130 forward $31 $-1 #
coedge $-1 $51 $128 $131 $132 forward $31 $-1 #
coedge $-1 $133 $134 $51 $81 reversed $135 $-1 #
edge $-1 $136 -47.922439922672069 $137 47.922439922672069 $80 $138 forward 7 unknown #
face $-1 $139 $140 $19 $-1 $141 reversed single #
loop $-1 $-1 $142 $52 #
plane-surface $-1 0 0 -19.979505349394916 0 0 1 1 0 0 forward_v I I I I #
coedge $-1 $143 $144 $145 $146 reversed $53 $-1 #
coedge $-1 $147 $55 $144 $148 forward $34 $-1 #
coedge $-1 $55 $147 $149 $150 reversed $34 $-1 #
coedge $-1 $151 $145 $55 $89 forward $140 $-1 #
edge $-1 $152 4.6420925370977884 $153 30.400929102748783 $88 $154 forward 7 unknown #
face $-1 $155 $156 $20 $-1 $157 reversed single #
loop $-1 $-1 $158 $56 #
plane-surface $-1 0 106.01690892206146 162.07431174780621 -1 0 0 0 0.81915205242281985 0.57357642473473569 forward_v I I I I #
coedge $-1 $159 $160 $161 $162 reversed $57 $-1 #
coedge $-1 $95 $59 $163 $164 reversed $37 $-1 #
coedge $-1 $59 $94 $159 $165 reversed $37 $-1 #
coedge $-1 $161 $166 $59 $97 forward $167 $-1 #
edge $-1 $168 5.0860145383586612 $169 16.001108469594008 $96 $170 forward 7 unknown #
loop $-1 $-1 $103 $60 #
plane-surface $-1 -14.761187373115213 -7.0519235881507427 82.90266527714239 0 0.81915205242281985 0.57357642473473569 1 0 0 forward_v I I I I #
loop $-1 $-1 $171 $39 #
coedge $-1 $101 $101 $102 $172 reversed $61 $-1 #
coedge $-1 $102 $102 $101 $172 forward $63 $-1 #
coedge $-1 $103 $103 $64 $104 forward $98 $-1 #
edge $-1 $173 -4.6611716733004247e-016 $173 6.2831853071795996 $103 $174 forward 7 unknown #
face $-1 $175 $176 $22 $-1 $177 forward single #
loop $-1 $-1 $178 $65 #
plane-surface $-1 0 0 19.979505349394916 0 0 1 1 0 0 forward_v I I I I #
coedge $-1 $179 $180 $181 $182 reversed $66 $-1 #
coedge $-1 $183 $68 $184 $185 reversed $43 $-1 #
coedge $-1 $68 $183 $178 $186 reversed $43 $-1 #
coedge $-1 $187 $188 $68 $112 forward $176 $-1 #
edge $-1 $189 -95.844879845344138 $190 -76.814993921627362 $111 $191 forward 7 unknown #
loop $-1 $-1 $118 $69 #
plane-surface $-1 -14.761187373115213 -7.0519235881507427 82.90266527714239 0 0.81915205242281985 0.57357642473473569 1 0 0 forward_v I I I I #
loop $-1 $-1 $192 $45 #
coedge $-1 $116 $116 $117 $193 reversed $70 $-1 #
coedge $-1 $117 $117 $116 $193 forward $72 $-1 #
coedge $-1 $118 $118 $73 $119 forward $113 $-1 #
edge $-1 $194 -4.6611716733004247e-016 $194 6.2831853071795996 $118 $195 forward 7 unknown #
face $-1 $196 $197 $18 $-1 $198 reversed single #
loop $-1 $-1 $199 $74 #
plane-surface $-1 -69.01577806939909 0 0 1 0 0 0 0 -1 forward_v I I I I #
coedge $-1 $200 $131 $201 $202 forward $75 $-1 #
coedge $-1 $203 $77 $200 $204 forward $49 $-1 #
coedge $-1 $77 $203 $205 $206 forward $49 $-1 #
coedge $-1 $134 $133 $77 $127 reversed $135 $-1 #
edge $-1 $207 -47.922439922672069 $208 47.922439922672069 $126 $209 forward 7 unknown #
coedge $-1 $79 $78 $210 $211 forward $31 $-1 #
coedge $-1 $212 $213 $78 $130 reversed $197 $-1 #
edge $-1 $137 -69.01577806939909 $214 69.01577806939909 $129 $215 forward 7 unknown #
coedge $-1 $123 $216 $79 $132 reversed $75 $-1 #
edge $-1 $217 -69.01577806939909 $136 69.01577806939909 $131 $218 forward 7 unknown #
coedge $-1 $126 $80 $216 $219 forward $135 $-1 #
coedge $-1 $80 $126 $212 $220 reversed $135 $-1 #
loop $-1 $-1 $133 $196 #
vertex $-1 $81 $221 #
vertex $-1 $81 $222 #
straight-curve $-1 69.01577806939909 0 19.979505349394916 0 1 0 I I #
face $-1 $223 $224 $19 $-1 $225 reversed single #
loop $-1 $-1 $145 $82 #
plane-surface $-1 69.01577806939909 0 0 -1 0 0 0 0 1 forward_v I I I I #
coedge $-1 $226 $227 $143 $228 forward $83 $-1 #
coedge $-1 $229 $85 $142 $228 reversed $53 $-1 #
coedge $-1 $85 $229 $86 $148 reversed $53 $-1 #
coedge $-1 $88 $230 $85 $146 forward $140 $-1 #
edge $-1 $231 -11.279698124140872 $152 -6.1199163263672087 $145 $232 forward 7 unknown #
coedge $-1 $87 $86 $233 $234 reversed $34 $-1 #
edge $-1 $152 -69.01577806939909 $235 69.01577806939909 $144 $236 forward 7 unknown #
coedge $-1 $237 $238 $87 $150 forward $224 $-1 #
edge $-1 $153 -69.01577806939909 $239 69.01577806939909 $149 $240 forward 7 unknown #
coedge $-1 $230 $88 $238 $241 forward $140 $-1 #
vertex $-1 $89 $242 #
vertex $-1 $241 $243 #
straight-curve $-1 69.01577806939909 -17.521510819923286 -14.81972355162125 0 -1 0 I I #
face $-1 $-1 $167 $20 $-1 $244 forward single #
loop $-1 $-1 $245 $90 #
plane-surface $-1 0 47.922439922672069 0 0 -1 0 0 0 -1 forward_v I I I I #
coedge $-1 $246 $247 $248 $249 reversed $91 $-1 #
coedge $-1 $250 $93 $95 $165 forward $57 $-1 #
coedge $-1 $93 $250 $246 $251 forward $57 $-1 #
coedge $-1 $248 $96 $93 $162 forward $167 $-1 #
edge $-1 $169 -22.14178105967282 $252 7.3805936865576065 $161 $253 forward 7 unknown #
coedge $-1 $254 $255 $94 $164 forward $156 $-1 #
edge $-1 $256 -76.646020636292917 $168 -61.05765052450819 $163 $257 forward 7 unknown #
edge $-1 $169 76.814993921627362 $256 95.844879845344138 $95 $258 forward 7 unknown #
coedge $-1 $96 $248 $254 $259 forward $167 $-1 #
loop $-1 $-1 $248 $155 #
vertex $-1 $164 $260 #
vertex $-1 $97 $261 #
straight-curve $-1 -29.522374746230426 53.00845446103073 19.979505349394913 0 -1 0 I I #
coedge $-1 $171 $171 $-1 $262 reversed $100 $-1 #
edge $-1 $263 0 $263 6.2831853071796004 $101 $264 forward 7 unknown #
vertex $-1 $104 $265 #
ellipse-curve $-1 -14.761187373115213 42.464892957054403 12.185320293502546 0 0.81915205242281985 0.57357642473473569 2.5 0 0 1 I I #
face $-1 $-1 $266 $22 $-1 $267 reversed single #
loop $-1 $-1 $187 $105 #
plane-surface $-1 0 106.01690892206146 162.07431174780621 -1 0 0 0 0.81915205242281985 0.57357642473473569 forward_v I I I I #
coedge $-1 $181 $268 $110 $186 forward $106 $-1 #
coedge $-1 $180 $108 $183 $269 reversed $66 $-1 #
coedge $-1 $108 $179 $270 $271 reversed $66 $-1 #
coedge $-1 $272 $178 $108 $182 forward $106 $-1 #
edge $-1 $273 -16.001108469594008 $274 -5.0860145383586612 $181 $275 forward 7 unknown #
coedge $-1 $110 $109 $179 $269 forward $43 $-1 #
coedge $-1 $276 $270 $109 $185 forward $266 $-1 #
edge $-1 $277 -36.902968432788029 $189 -7.3805936865576065 $184 $278 forward 7 unknown #
edge $-1 $190 7.3805936865576065 $273 36.902968432788029 $178 $279 forward 7 unknown #
coedge $-1 $188 $111 $268 $280 reversed $176 $-1 #
coedge $-1 $111 $187 $276 $281 reversed $176 $-1 #
vertex $-1 $185 $282 #
vertex $-1 $186 $283 #
straight-curve $-1 0 -7.0519235881507427 82.90266527714239 0 -0.57357642473473569 0.81915205242281985 I I #
coedge $-1 $192 $192 $-1 $284 reversed $115 $-1 #
edge $-1 $285 0 $285 6.2831853071796004 $116 $286 forward 7 unknown #
vertex $-1 $119 $287 #
ellipse-curve $-1 14.761187373115206 42.464892957054403 12.185320293502546 0 0.81915205242281985 0.57357642473473569 2.5 0 0 1 I I #
face $-1 $-1 $135 $18 $-1 $288 reversed single #
loop $-1 $-1 $212 $120 #
plane-surface $-1 0 47.922439922672069 0 0 -1 0 0 0 -1 forward_v I I I I #
coedge $-1 $289 $210 $213 $290 forward $121 $-1 #
coedge $-1 $216 $123 $124 $204 reversed $75 $-1 #
coedge $-1 $210 $289 $123 $202 reversed $121 $-1 #
edge $-1 $217 -19.979505349394916 $291 19.979505349394916 $201 $292 forward 7 unknown #
coedge $-1 $125 $124 $289 $293 forward $49 $-1 #
edge $-1 $208 -69.01577806939909 $291 69.01577806939909 $200 $294 forward 7 unknown #
coedge $-1 $213 $212 $125 $206 reversed $197 $-1 #
edge $-1 $295 -69.01577806939909 $207 69.01577806939909 $205 $296 forward 7 unknown #
vertex $-1 $127 $297 #
vertex $-1 $219 $298 #
straight-curve $-1 69.01577806939909 0 -19.979505349394916 0 -1 0 I I #
coedge $-1 $199 $201 $128 $211 reversed $121 $-1 #
edge $-1 $214 -47.922439922672069 $217 47.922439922672069 $210 $299 forward 7 unknown #
coedge $-1 $205 $129 $134 $220 forward $197 $-1 #
coedge $-1 $129 $205 $199 $290 reversed $197 $-1 #
vertex $-1 $130 $300 #
straight-curve $-1 0 47.922439922672069 19.979505349394916 -1 0 0 I I #
coedge $-1 $131 $200 $133 $219 reversed $75 $-1 #
vertex $-1 $211 $301 #
straight-curve $-1 0 -47.922439922672069 19.979505349394916 1 0 0 I I #
edge $-1 $136 -19.979505349394916 $208 19.979505349394916 $133 $302 forward 7 unknown #
edge $-1 $137 -19.979505349394916 $207 19.979505349394916 $134 $303 forward 7 unknown #
point $-1 69.01577806939909 -47.922439922672069 19.979505349394916 #
point $-1 69.01577806939909 47.922439922672069 19.979505349394916 #
face $-1 $-1 $304 $19 $-1 $305 reversed single #
loop $-1 $-1 $149 $139 #
plane-surface $-1 0 -47.922439922672069 0 0 1 0 0 0 1 forward_v I I I I #
coedge $-1 $306 $142 $230 $307 forward $83 $-1 #
coedge $-1 $142 $306 $308 $309 forward $83 $-1 #
edge $-1 $310 -69.01577806939909 $231 69.01577806939909 $142 $311 forward 7 unknown #
coedge $-1 $144 $143 $312 $313 reversed $53 $-1 #
coedge $-1 $145 $151 $226 $307 reversed $140 $-1 #
vertex $-1 $307 $314 #
straight-curve $-1 69.01577806939909 -22.163603357021074 -8.699807225254041 0 0 1 I I #
coedge $-1 $312 $315 $147 $234 forward $304 $-1 #
edge $-1 $239 -30.400929102748783 $235 -4.6420925370977884 $233 $316 forward 7 unknown #
vertex $-1 $234 $317 #
straight-curve $-1 0 -22.163603357021074 -14.81972355162125 -1 0 0 I I #
coedge $-1 $318 $149 $315 $319 forward $224 $-1 #
coedge $-1 $149 $318 $151 $241 reversed $224 $-1 #
vertex $-1 $319 $320 #
straight-curve $-1 0 -47.922439922672069 -14.81972355162125 -1 0 0 I I #
edge $-1 $153 14.81972355162125 $321 19.979505349394916 $151 $322 forward 7 unknown #
point $-1 69.01577806939909 -22.163603357021074 -14.81972355162125 #
point $-1 69.01577806939909 -47.922439922672069 -14.81972355162125 #
plane-surface $-1 0 0 19.979505349394916 0 0 1 1 0 0 forward_v I I I I #
coedge $-1 $255 $254 $247 $323 forward $156 $-1 #
coedge $-1 $247 $158 $160 $251 reversed $91 $-1 #
coedge $-1 $158 $246 $245 $323 reversed $91 $-1 #
coedge $-1 $166 $161 $158 $249 forward $167 $-1 #
edge $-1 $252 -16.001108469594008 $324 -5.0860145383586612 $248 $325 forward 7 unknown #
coedge $-1 $160 $159 $255 $326 reversed $57 $-1 #
edge $-1 $327 -95.844879845344138 $252 -76.814993921627362 $246 $328 forward 7 unknown #
vertex $-1 $162 $329 #
straight-curve $-1 -7.3805936865576065 37.007345991436729 19.979505349394913 1 0 0 I I #
coedge $-1 $245 $163 $166 $259 reversed $156 $-1 #
coedge $-1 $163 $245 $250 $326 forward $156 $-1 #
vertex $-1 $164 $330 #
straight-curve $-1 -29.522374746230426 47.922439922672069 81.037155873903103 0 0 1 I I #
straight-curve $-1 -29.522374746230426 -7.0519235881507427 82.90266527714239 0 0.57357642473473569 -0.81915205242281985 I I #
edge $-1 $324 0 $168 29.522374746230426 $254 $331 forward 7 unknown #
point $-1 -29.522374746230426 47.922439922672069 19.979505349394916 #
point $-1 -29.522374746230426 37.007345991436722 19.979505349394913 #
edge $-1 $332 1 $332 0 $171 $-1 forward 7 unknown #
vertex $-1 $172 $333 #
ellipse-curve $-1 -14.761187373115213 37.100980720719939 8.4294686246849295 0 0.81915205242281985 0.57357642473473569 2.5 0 0 1 I I #
point $-1 -12.261187373115213 42.464892957054396 12.185320293502542 #
loop $-1 $-1 $184 $175 #
plane-surface $-1 0 47.922439922672069 0 0 -1 0 0 0 -1 forward_v I I I I #
coedge $-1 $178 $272 $187 $280 forward $106 $-1 #
edge $-1 $277 -95.844879845344138 $273 -76.814993921627362 $179 $334 forward 7 unknown #
coedge $-1 $184 $335 $180 $271 forward $266 $-1 #
edge $-1 $274 61.05765052450819 $277 76.646020636292917 $270 $336 forward 7 unknown #
coedge $-1 $268 $181 $335 $337 forward $106 $-1 #
vertex $-1 $182 $338 #
vertex $-1 $337 $339 #
straight-curve $-1 29.522374746230419 53.00845446103073 19.979505349394913 0 1 0 I I #
coedge $-1 $335 $184 $188 $281 forward $266 $-1 #
vertex $-1 $271 $340 #
straight-curve $-1 -7.3805936865576065 47.922439922672069 4.391135237610186 -1 0 0 I I #
straight-curve $-1 -7.3805936865576065 37.007345991436729 19.979505349394913 1 0 0 I I #
edge $-1 $341 5.0860145383586612 $190 16.001108469594008 $268 $342 forward 7 unknown #
edge $-1 $189 -76.646020636292917 $341 -61.05765052450819 $276 $343 forward 7 unknown #
point $-1 0 47.922439922672069 4.391135237610186 #
point $-1 0 37.007345991436722 19.979505349394913 #
edge $-1 $344 1 $344 0 $192 $-1 forward 7 unknown #
vertex $-1 $193 $345 #
ellipse-curve $-1 14.761187373115206 37.100980720719939 8.4294686246849295 0 0.81915205242281985 0.57357642473473569 2.5 0 0 1 I I #
point $-1 17.261187373115206 42.464892957054396 12.185320293502542 #
plane-surface $-1 69.01577806939909 0 0 -1 0 0 0 0 1 forward_v I I I I #
coedge $-1 $201 $199 $203 $293 reversed $121 $-1 #
edge $-1 $214 -19.979505349394916 $295 19.979505349394916 $213 $346 forward 7 unknown #
vertex $-1 $293 $347 #
straight-curve $-1 -69.01577806939909 -47.922439922672069 0 0 0 -1 I I #
edge $-1 $291 -47.922439922672069 $295 47.922439922672069 $289 $348 forward 7 unknown #
straight-curve $-1 0 -47.922439922672069 -19.979505349394916 -1 0 0 I I #
vertex $-1 $206 $349 #
straight-curve $-1 0 47.922439922672069 -19.979505349394916 1 0 0 I I #
point $-1 69.01577806939909 47.922439922672069 -19.979505349394916 #
point $-1 69.01577806939909 -47.922439922672069 -19.979505349394916 #
straight-curve $-1 -69.01577806939909 0 19.979505349394916 0 -1 0 I I #
point $-1 -69.01577806939909 47.922439922672069 19.979505349394916 #
point $-1 -69.01577806939909 -47.922439922672069 19.979505349394916 #
straight-curve $-1 69.01577806939909 -47.922439922672069 0 0 0 -1 I I #
straight-curve $-1 69.01577806939909 47.922439922672069 0 0 0 -1 I I #
loop $-1 $-1 $312 $223 #
plane-surface $-1 -69.01577806939909 0 0 1 0 0 0 0 -1 forward_v I I I I #
coedge $-1 $227 $226 $318 $350 forward $83 $-1 #
edge $-1 $231 22.163603357021074 $321 47.922439922672069 $230 $351 forward 7 unknown #
coedge $-1 $315 $312 $227 $309 reversed $304 $-1 #
edge $-1 $352 -47.922439922672069 $310 -22.163603357021074 $308 $353 forward 7 unknown #
vertex $-1 $313 $354 #
straight-curve $-1 0 -22.163603357021074 -19.979505349394916 1 0 0 I I #
coedge $-1 $308 $233 $229 $313 forward $304 $-1 #
edge $-1 $235 6.1199163263672087 $310 11.279698124140872 $312 $355 forward 7 unknown #
point $-1 69.01577806939909 -22.163603357021074 -19.979505349394913 #
coedge $-1 $233 $308 $237 $319 reversed $304 $-1 #
straight-curve $-1 -69.01577806939909 -17.521510819923286 -14.81972355162125 0 1 0 I I #
point $-1 -69.01577806939909 -22.163603357021074 -14.81972355162125 #
coedge $-1 $238 $237 $306 $350 reversed $224 $-1 #
edge $-1 $239 14.81972355162125 $352 19.979505349394916 $315 $356 forward 7 unknown #
point $-1 -69.01577806939909 -47.922439922672069 -14.81972355162125 #
vertex $-1 $241 $357 #
straight-curve $-1 69.01577806939909 -47.922439922672069 0 0 0 -1 I I #
edge $-1 $324 61.05765052450819 $327 76.646020636292917 $245 $358 forward 7 unknown #
vertex $-1 $259 $359 #
straight-curve $-1 0 53.00845446103073 19.979505349394913 0 1 0 I I #
edge $-1 $327 -7.3805936865576065 $256 22.14178105967282 $255 $360 forward 7 unknown #
vertex $-1 $326 $361 #
straight-curve $-1 0 -7.0519235881507427 82.90266527714239 0 -0.57357642473473569 0.81915205242281985 I I #
point $-1 0 37.007345991436722 19.979505349394913 #
point $-1 -29.522374746230426 47.922439922672069 4.391135237610186 #
straight-curve $-1 0 47.922439922672069 19.979505349394916 -1 0 0 I I #
vertex $-1 $262 $362 #
point $-1 -12.261187373115213 37.100980720719939 8.4294686246849295 #
straight-curve $-1 29.522374746230419 -7.0519235881507427 82.90266527714239 0 -0.57357642473473569 0.81915205242281985 I I #
coedge $-1 $270 $276 $272 $337 reversed $266 $-1 #
straight-curve $-1 29.522374746230419 47.922439922672069 81.037155873903103 0 0 -1 I I #
edge $-1 $274 -29.522374746230419 $341 0 $335 $363 forward 7 unknown #
point $-1 29.522374746230419 37.007345991436722 19.979505349394913 #
point $-1 29.522374746230419 47.922439922672069 19.979505349394916 #
point $-1 29.522374746230419 47.922439922672069 4.391135237610186 #
vertex $-1 $281 $364 #
straight-curve $-1 0 53.00845446103073 19.979505349394913 0 -1 0 I I #
straight-curve $-1 0 47.922439922672069 81.037155873903103 0 0 1 I I #
vertex $-1 $284 $365 #
point $-1 17.261187373115206 37.100980720719939 8.4294686246849295 #
straight-curve $-1 -69.01577806939909 47.922439922672069 0 0 0 -1 I I #
point $-1 -69.01577806939909 -47.922439922672069 -19.979505349394916 #
straight-curve $-1 -69.01577806939909 0 -19.979505349394916 0 1 0 I I #
point $-1 -69.01577806939909 47.922439922672069 -19.979505349394916 #
edge $-1 $321 -69.01577806939909 $352 69.01577806939909 $318 $366 forward 7 unknown #
straight-curve $-1 69.01577806939909 0 -19.979505349394916 0 -1 0 I I #
vertex $-1 $309 $367 #
straight-curve $-1 -69.01577806939909 0 -19.979505349394916 0 1 0 I I #
point $-1 -69.01577806939909 -22.163603357021074 -19.979505349394913 #
straight-curve $-1 -69.01577806939909 -22.163603357021074 -8.699807225254041 0 0 -1 I I #
straight-curve $-1 -69.01577806939909 -47.922439922672069 0 0 0 -1 I I #
point $-1 69.01577806939909 -47.922439922672069 -19.979505349394916 #
straight-curve $-1 0 47.922439922672069 81.037155873903103 0 0 -1 I I #
point $-1 0 47.922439922672069 19.979505349394916 #
straight-curve $-1 -7.3805936865576065 47.922439922672069 4.391135237610186 -1 0 0 I I #
point $-1 0 47.922439922672069 4.391135237610186 #
point $-1 -14.761187373115213 35.053100589662883 6.9955275628480891 #
straight-curve $-1 0 47.922439922672069 19.979505349394916 -1 0 0 I I #
point $-1 0 47.922439922672069 19.979505349394916 #
point $-1 14.761187373115206 35.053100589662883 6.9955275628480891 #
straight-curve $-1 0 -47.922439922672069 -19.979505349394916 -1 0 0 I I #
point $-1 -69.01577806939909 -47.922439922672069 -19.979505349394916 #
End-of-ACIS-data 