500 0 7 0           
7 Unknown 11 ACIS 5.0 NT 24 Thu Mar 25 21:12:53 1999 
-1 9.9999999999999995e-007 1e-010 
body $-1 $7 $-1 $8 #
body $-1 $9 $-1 $10 #
body $-1 $11 $-1 $12 #
body $-1 $13 $-1 $14 #
body $-1 $15 $-1 $16 #
body $-1 $17 $-1 $18 #
body $-1 $19 $-1 $20 #
lump $-1 $-1 $21 $0 #
transform $-1 1 0 0 0 1 0 0 0 1 52.689596240119627 30.199997161341802 12.651058718693873 1 rotate no_reflect no_shear #
lump $-1 $-1 $22 $1 #
transform $-1 1 0 0 0 1 0 0 0 1 52.689596240119627 30.199997161341802 12.651058718693873 1 rotate no_reflect no_shear #
lump $-1 $-1 $23 $2 #
transform $-1 1 0 0 0 1 0 0 0 1 52.689596240119627 30.199997161341802 12.651058718693873 1 rotate no_reflect no_shear #
lump $-1 $-1 $24 $3 #
transform $-1 1 0 0 0 1 0 0 0 1 52.689596240119627 30.199997161341802 12.651058718693873 1 rotate no_reflect no_shear #
lump $-1 $-1 $25 $4 #
transform $-1 1 0 0 0 1 0 0 0 1 52.689596240119627 30.199997161341802 12.651058718693873 1 rotate no_reflect no_shear #
lump $-1 $-1 $26 $5 #
transform $-1 1 0 0 0 1 0 0 0 1 52.689596240119627 30.199997161341802 12.651058718693873 1 rotate no_reflect no_shear #
lump $-1 $-1 $27 $6 #
transform $-1 1 0 0 0 1 0 0 0 1 52.689596240119627 30.199997161341802 12.651058718693873 1 rotate no_reflect no_shear #
shell $-1 $-1 $-1 $28 $-1 $7 #
shell $-1 $-1 $-1 $29 $-1 $9 #
shell $-1 $-1 $-1 $30 $-1 $11 #
shell $-1 $-1 $-1 $31 $-1 $13 #
shell $-1 $-1 $-1 $32 $-1 $15 #
shell $-1 $-1 $-1 $33 $-1 $17 #
shell $-1 $-1 $-1 $34 $-1 $19 #
face $-1 $35 $36 $21 $-1 $37 forward single #
face $-1 $38 $39 $22 $-1 $40 reversed single #
face $-1 $41 $42 $23 $-1 $43 reversed single #
face $-1 $44 $45 $24 $-1 $46 reversed single #
face $-1 $47 $48 $25 $-1 $49 forward single #
face $-1 $50 $51 $26 $-1 $52 reversed single #
face $-1 $53 $54 $27 $-1 $55 forward single #
face $-1 $56 $57 $21 $-1 $58 reversed single #
loop $-1 $-1 $59 $28 #
plane-surface $-1 0 0 12.651058718693873 0 0 1 1 0 0 forward_v I I I I #
face $-1 $60 $61 $22 $-1 $62 reversed single #
loop $-1 $-1 $63 $29 #
plane-surface $-1 -32.464708065222823 -23.808210647335756 0 1 0 0 0 0 -1 forward_v I I I I #
face $-1 $64 $65 $23 $-1 $66 reversed single #
loop $-1 $-1 $67 $30 #
plane-surface $-1 -30.842622033701822 17.416424133329706 0 0 1 0 0 0 1 forward_v I I I I #
face $-1 $68 $69 $24 $-1 $70 reversed single #
loop $-1 $-1 $71 $31 #
plane-surface $-1 -137.94315467254097 4.1614726392076378 66.363674602467214 0 1 0 -0.80901700255871778 0 0.5877852410284794 forward_v I I I I #
face $-1 $72 $73 $25 $-1 $74 forward single #
loop $-1 $75 $76 $32 #
cone-surface $-1 -47.36286903126809 7.9432900848495187 6.8386640652641137 0.80901700255871778 0 -0.5877852410284794 0.8816778615427191 0 1.2135255038380768 1 I I 0 1 1.5 forward I I I I #
face $-1 $77 $78 $26 $-1 $79 reversed single #
loop $-1 $-1 $80 $33 #
plane-surface $-1 76.002820621157028 11.7251075304914 151.61723303488856 0 -1 0 -0.80901700255871778 0 -0.5877852410284794 forward_v I I I I #
face $-1 $81 $82 $27 $-1 $83 forward single #
loop $-1 $84 $85 $34 #
cone-surface $-1 47.36286903126809 7.9432900848495187 6.8386640652641137 -0.80901700255871778 0 -0.5877852410284794 0.8816778615427191 0 -1.2135255038380768 1 I I 0 1 1.5 forward I I I I #
face $-1 $86 $87 $21 $-1 $88 reversed single #
loop $-1 $-1 $89 $35 #
plane-surface $-1 0 0 -12.651058718693873 0 0 1 1 0 0 forward_v I I I I #
coedge $-1 $90 $91 $92 $93 forward $36 $-1 #
face $-1 $94 $95 $22 $-1 $96 reversed single #
loop $-1 $-1 $97 $38 #
plane-surface $-1 -30.842622033701822 -17.416424133329709 0 0 -1 0 0 0 -1 forward_v I I I I #
coedge $-1 $98 $99 $100 $101 forward $39 $-1 #
face $-1 $102 $103 $23 $-1 $104 reversed single #
loop $-1 $-1 $105 $41 #
plane-surface $-1 -32.464708065222823 23.808210647335752 0 1 0 0 0 0 -1 forward_v I I I I #
coedge $-1 $106 $107 $108 $109 forward $42 $-1 #
face $-1 $110 $111 $24 $-1 $112 reversed single #
loop $-1 $-1 $113 $44 #
plane-surface $-1 -52.689596240119641 7.9432900848495187 4.4233405510832569 -0.80901700255871778 0 0.5877852410284794 0.5877852410284794 0 0.80901700255871778 forward_v I I I I #
coedge $-1 $114 $115 $116 $117 reversed $45 $-1 #
face $-1 $-1 $118 $25 $-1 $119 forward single #
loop $-1 $120 $121 $47 #
cone-surface $-1 -44.418272561590982 7.9432900848495187 4.6992895648683106 0.80901700255871778 0 -0.5877852410284794 0.44083893077135955 0 0.60676275191903839 1 I I -0.70710678118654757 0.70710678118654757 0.75 forward I I I I #
loop $-1 $-1 $122 $32 #
coedge $-1 $76 $76 $123 $124 reversed $48 $-1 #
face $-1 $125 $126 $26 $-1 $127 reversed single #
loop $-1 $-1 $128 $50 #
plane-surface $-1 -9.2507378112643011 7.9432900848495187 89.6768989835046 0.80901700255871778 0 0.5877852410284794 0.5877852410284794 0 -0.80901700255871778 forward_v I I I I #
coedge $-1 $129 $130 $131 $132 reversed $51 $-1 #
face $-1 $-1 $133 $27 $-1 $134 forward single #
loop $-1 $135 $136 $53 #
cone-surface $-1 44.418272561590982 7.9432900848495187 4.6992895648683106 -0.80901700255871778 0 -0.5877852410284794 0.44083893077135955 0 -0.60676275191903839 1 I I -0.70710678118654757 0.70710678118654757 0.75 forward I I I I #
loop $-1 $-1 $137 $34 #
coedge $-1 $85 $85 $138 $139 reversed $54 $-1 #
face $-1 $140 $141 $21 $-1 $142 reversed single #
loop $-1 $-1 $143 $56 #
plane-surface $-1 0 -30.199997161341802 0 0 1 0 0 0 1 forward_v I I I I #
coedge $-1 $144 $145 $146 $147 forward $57 $-1 #
coedge $-1 $148 $59 $149 $150 forward $36 $-1 #
coedge $-1 $59 $148 $151 $152 forward $36 $-1 #
coedge $-1 $153 $154 $59 $93 reversed $155 $-1 #
edge $-1 $156 -30.199997161341802 $157 30.199997161341802 $92 $158 forward 7 unknown #
face $-1 $159 $160 $22 $-1 $161 forward single #
loop $-1 $-1 $162 $60 #
plane-surface $-1 -29.220536002180822 -23.808210647335756 0 -1 0 0 0 0 1 forward_v I I I I #
coedge $-1 $163 $164 $165 $166 forward $61 $-1 #
coedge $-1 $167 $63 $168 $169 reversed $39 $-1 #
coedge $-1 $63 $167 $170 $171 reversed $39 $-1 #
coedge $-1 $164 $163 $63 $101 reversed $61 $-1 #
edge $-1 $172 -12.651058718693873 $173 12.651058718693873 $100 $174 forward 7 unknown #
face $-1 $175 $176 $23 $-1 $177 reversed single #
loop $-1 $-1 $178 $64 #
plane-surface $-1 -29.220536002180822 23.808210647335752 0 -1 0 0 0 0 1 forward_v I I I I #
coedge $-1 $179 $180 $181 $182 reversed $65 $-1 #
coedge $-1 $183 $67 $184 $185 reversed $42 $-1 #
coedge $-1 $67 $183 $186 $187 reversed $42 $-1 #
coedge $-1 $180 $179 $67 $109 reversed $65 $-1 #
edge $-1 $188 -12.651058718693873 $189 12.651058718693873 $108 $190 forward 7 unknown #
face $-1 $191 $192 $24 $-1 $193 reversed single #
loop $-1 $-1 $194 $68 #
plane-surface $-1 -137.94315467254097 11.7251075304914 66.363674602467214 0 -1 0 0.80901700255871778 0 -0.5877852410284794 forward_v I I I I #
coedge $-1 $195 $196 $197 $198 reversed $69 $-1 #
coedge $-1 $115 $71 $199 $200 reversed $45 $-1 #
coedge $-1 $71 $114 $195 $201 reversed $45 $-1 #
coedge $-1 $197 $202 $71 $117 forward $203 $-1 #
edge $-1 $204 16.281981096150858 $205 22.259768078337785 $116 $206 forward 7 unknown #
loop $-1 $-1 $123 $72 #
plane-surface $-1 -52.689596240119641 7.9432900848495187 4.4233405510832569 -0.80901700255871778 0 0.5877852410284794 0.5877852410284794 0 0.80901700255871778 forward_v I I I I #
loop $-1 $-1 $207 $47 #
coedge $-1 $121 $121 $122 $208 reversed $73 $-1 #
coedge $-1 $122 $122 $121 $208 forward $75 $-1 #
coedge $-1 $123 $123 $76 $124 forward $118 $-1 #
edge $-1 $209 0 $209 6.2831853071796004 $123 $210 forward 7 unknown #
face $-1 $211 $212 $26 $-1 $213 forward single #
loop $-1 $-1 $214 $77 #
plane-surface $-1 76.002820621157028 4.1614726392076378 151.61723303488856 0 1 0 0.80901700255871778 0 0.5877852410284794 forward_v I I I I #
coedge $-1 $215 $216 $217 $218 reversed $78 $-1 #
coedge $-1 $130 $80 $219 $220 reversed $51 $-1 #
coedge $-1 $80 $129 $215 $221 reversed $51 $-1 #
coedge $-1 $217 $222 $80 $132 forward $212 $-1 #
edge $-1 $223 -14.688185929541113 $224 -8.7103989473542001 $131 $225 forward 7 unknown #
loop $-1 $-1 $138 $81 #
plane-surface $-1 -9.2507378112643011 7.9432900848495187 89.6768989835046 0.80901700255871778 0 0.5877852410284794 0.5877852410284794 0 -0.80901700255871778 forward_v I I I I #
loop $-1 $-1 $226 $53 #
coedge $-1 $136 $136 $137 $227 reversed $82 $-1 #
coedge $-1 $137 $137 $136 $227 forward $84 $-1 #
coedge $-1 $138 $138 $85 $139 forward $133 $-1 #
edge $-1 $228 0 $228 6.2831853071796004 $138 $229 forward 7 unknown #
face $-1 $230 $231 $21 $-1 $232 reversed single #
loop $-1 $-1 $233 $86 #
plane-surface $-1 -52.689596240119627 0 0 1 0 0 0 0 -1 forward_v I I I I #
coedge $-1 $234 $151 $235 $236 forward $87 $-1 #
coedge $-1 $237 $89 $234 $238 forward $57 $-1 #
coedge $-1 $89 $237 $239 $240 forward $57 $-1 #
coedge $-1 $154 $153 $89 $147 reversed $155 $-1 #
edge $-1 $241 -30.199997161341802 $242 30.199997161341802 $146 $243 forward 7 unknown #
coedge $-1 $91 $90 $244 $245 forward $36 $-1 #
coedge $-1 $246 $247 $90 $150 reversed $231 $-1 #
edge $-1 $157 -52.689596240119627 $248 52.689596240119627 $149 $249 forward 7 unknown #
coedge $-1 $143 $250 $91 $152 reversed $87 $-1 #
edge $-1 $251 -52.689596240119627 $156 52.689596240119627 $151 $252 forward 7 unknown #
coedge $-1 $146 $92 $250 $253 forward $155 $-1 #
coedge $-1 $92 $146 $246 $254 reversed $155 $-1 #
loop $-1 $-1 $153 $230 #
vertex $-1 $93 $255 #
vertex $-1 $93 $256 #
straight-curve $-1 52.689596240119627 0 12.651058718693873 0 1 0 I I #
face $-1 $257 $258 $22 $-1 $259 reversed single #
loop $-1 $-1 $260 $94 #
plane-surface $-1 0 0 12.651058718693873 0 0 1 1 0 0 forward_v I I I I #
coedge $-1 $261 $262 $263 $264 reversed $95 $-1 #
coedge $-1 $100 $97 $265 $266 reversed $61 $-1 #
coedge $-1 $97 $100 $267 $268 reversed $61 $-1 #
coedge $-1 $262 $261 $97 $166 reversed $95 $-1 #
edge $-1 $269 -12.651058718693873 $270 12.651058718693873 $165 $271 forward 7 unknown #
coedge $-1 $99 $98 $272 $273 reversed $39 $-1 #
coedge $-1 $265 $274 $98 $169 forward $258 $-1 #
edge $-1 $275 -18.295891837673924 $173 -5.5123188096618314 $168 $276 forward 7 unknown #
coedge $-1 $277 $267 $99 $171 forward $160 $-1 #
edge $-1 $172 5.5123188096618314 $278 18.295891837673924 $170 $279 forward 7 unknown #
vertex $-1 $171 $280 #
vertex $-1 $169 $281 #
straight-curve $-1 -32.464708065222823 -17.416424133329709 0 0 0 -1 I I #
face $-1 $282 $283 $23 $-1 $284 forward single #
loop $-1 $-1 $285 $102 #
plane-surface $-1 0 0 -12.651058718693873 0 0 1 1 0 0 forward_v I I I I #
coedge $-1 $286 $287 $183 $288 forward $103 $-1 #
coedge $-1 $108 $105 $289 $290 reversed $65 $-1 #
coedge $-1 $105 $108 $291 $292 reversed $65 $-1 #
coedge $-1 $293 $294 $105 $182 forward $295 $-1 #
edge $-1 $296 -12.651058718693873 $297 12.651058718693873 $181 $298 forward 7 unknown #
coedge $-1 $107 $106 $178 $288 reversed $42 $-1 #
coedge $-1 $289 $285 $106 $185 forward $176 $-1 #
edge $-1 $299 13.799224985329911 $189 17.043397048371911 $184 $300 forward 7 unknown #
coedge $-1 $301 $291 $107 $187 forward $283 $-1 #
edge $-1 $188 -17.043397048371911 $302 -13.799224985329911 $186 $303 forward 7 unknown #
vertex $-1 $187 $304 #
vertex $-1 $185 $305 #
straight-curve $-1 -32.464708065222823 17.416424133329706 0 0 0 -1 I I #
face $-1 $-1 $203 $24 $-1 $306 forward single #
loop $-1 $-1 $307 $110 #
plane-surface $-1 -52.689596240119627 0 0 1 0 0 0 0 -1 forward_v I I I I #
coedge $-1 $308 $309 $310 $311 reversed $111 $-1 #
coedge $-1 $312 $113 $115 $201 forward $69 $-1 #
coedge $-1 $113 $312 $308 $313 forward $69 $-1 #
coedge $-1 $310 $116 $113 $198 forward $203 $-1 #
edge $-1 $205 0.18982759678287842 $314 7.7534624880666403 $197 $315 forward 7 unknown #
coedge $-1 $316 $317 $114 $200 forward $192 $-1 #
edge $-1 $318 -28.758496750150329 $204 -20.530778582539732 $199 $319 forward 7 unknown #
edge $-1 $205 -10.170018851999904 $318 -2.4161062406544664e-014 $115 $320 forward 7 unknown #
coedge $-1 $116 $310 $316 $321 forward $203 $-1 #
loop $-1 $-1 $310 $191 #
vertex $-1 $200 $322 #
vertex $-1 $117 $323 #
straight-curve $-1 -68.971577336270485 4.1614726392076378 12.651058718693875 1 0 0 I I #
coedge $-1 $207 $207 $-1 $324 reversed $120 $-1 #
edge $-1 $325 0 $325 6.2831853071796004 $121 $326 forward 7 unknown #
vertex $-1 $124 $327 #
ellipse-curve $-1 -49.700702749026171 7.9432900848495187 8.5371996348885659 -0.80901700255871778 0 0.5877852410284794 0.8816778615427191 0 1.2135255038380768 1 I I #
face $-1 $-1 $328 $26 $-1 $329 reversed single #
loop $-1 $-1 $131 $125 #
plane-surface $-1 0 0 12.651058718693873 0 0 1 1 0 0 forward_v I I I I #
coedge $-1 $330 $331 $332 $333 reversed $126 $-1 #
coedge $-1 $334 $128 $130 $221 forward $78 $-1 #
coedge $-1 $128 $334 $330 $335 forward $78 $-1 #
coedge $-1 $332 $131 $128 $218 forward $212 $-1 #
edge $-1 $224 -7.7534624880666403 $336 -0.18982759678287842 $217 $337 forward 7 unknown #
coedge $-1 $338 $339 $129 $220 forward $328 $-1 #
edge $-1 $340 -71.385275966360979 $223 -63.157557798750403 $219 $341 forward 7 unknown #
edge $-1 $224 95.209173628239355 $340 105.37919248023923 $130 $342 forward 7 unknown #
coedge $-1 $131 $332 $338 $343 forward $212 $-1 #
vertex $-1 $132 $344 #
vertex $-1 $132 $345 #
straight-curve $-1 38.001410310578514 11.7251075304914 12.651058718693875 -1 0 0 I I #
coedge $-1 $226 $226 $-1 $346 reversed $135 $-1 #
edge $-1 $347 0 $347 6.2831853071796004 $136 $348 forward 7 unknown #
vertex $-1 $139 $349 #
ellipse-curve $-1 49.700702749026185 7.9432900848495187 8.5371996348885766 0.80901700255871778 0 0.5877852410284794 0.8816778615427191 0 -1.2135255038380768 1 I I #
face $-1 $-1 $155 $21 $-1 $350 reversed single #
loop $-1 $-1 $246 $140 #
plane-surface $-1 0 30.199997161341802 0 0 -1 0 0 0 -1 forward_v I I I I #
coedge $-1 $351 $244 $247 $352 forward $141 $-1 #
coedge $-1 $250 $143 $144 $238 reversed $87 $-1 #
coedge $-1 $244 $351 $143 $236 reversed $141 $-1 #
edge $-1 $251 -12.651058718693873 $353 12.651058718693873 $235 $354 forward 7 unknown #
coedge $-1 $145 $144 $351 $355 forward $57 $-1 #
edge $-1 $242 -52.689596240119627 $353 52.689596240119627 $234 $356 forward 7 unknown #
coedge $-1 $247 $246 $145 $240 reversed $231 $-1 #
edge $-1 $357 -52.689596240119627 $241 52.689596240119627 $239 $358 forward 7 unknown #
vertex $-1 $147 $359 #
vertex $-1 $253 $360 #
straight-curve $-1 52.689596240119627 0 -12.651058718693873 0 -1 0 I I #
coedge $-1 $233 $235 $148 $245 reversed $141 $-1 #
edge $-1 $248 -30.199997161341802 $251 30.199997161341802 $244 $361 forward 7 unknown #
coedge $-1 $239 $149 $154 $254 forward $231 $-1 #
coedge $-1 $149 $239 $233 $352 reversed $231 $-1 #
vertex $-1 $150 $362 #
straight-curve $-1 0 30.199997161341802 12.651058718693873 -1 0 0 I I #
coedge $-1 $151 $234 $153 $253 reversed $87 $-1 #
vertex $-1 $245 $363 #
straight-curve $-1 0 -30.199997161341802 12.651058718693873 1 0 0 I I #
edge $-1 $156 -12.651058718693873 $242 12.651058718693873 $153 $364 forward 7 unknown #
edge $-1 $157 -12.651058718693873 $241 12.651058718693873 $154 $365 forward 7 unknown #
point $-1 52.689596240119627 -30.199997161341802 12.651058718693873 #
point $-1 52.689596240119627 30.199997161341802 12.651058718693873 #
face $-1 $-1 $366 $22 $-1 $367 reversed single #
loop $-1 $-1 $368 $159 #
plane-surface $-1 0 0 -12.651058718693873 0 0 1 1 0 0 forward_v I I I I #
coedge $-1 $267 $277 $262 $369 forward $160 $-1 #
coedge $-1 $165 $162 $368 $370 reversed $95 $-1 #
coedge $-1 $162 $165 $260 $369 reversed $95 $-1 #
coedge $-1 $371 $372 $162 $264 forward $366 $-1 #
edge $-1 $373 -12.651058718693873 $374 12.651058718693873 $263 $375 forward 7 unknown #
coedge $-1 $368 $168 $163 $266 forward $258 $-1 #
edge $-1 $173 -17.043397048371911 $270 -13.799224985329911 $265 $376 forward 7 unknown #
coedge $-1 $170 $260 $164 $268 forward $160 $-1 #
edge $-1 $269 13.799224985329911 $172 17.043397048371911 $267 $377 forward 7 unknown #
vertex $-1 $268 $378 #
vertex $-1 $266 $379 #
straight-curve $-1 -29.220536002180822 -17.416424133329709 0 0 0 -1 I I #
coedge $-1 $372 $371 $167 $273 forward $366 $-1 #
edge $-1 $278 -12.651058718693873 $275 12.651058718693873 $272 $380 forward 7 unknown #
coedge $-1 $168 $368 $372 $381 forward $258 $-1 #
vertex $-1 $169 $382 #
straight-curve $-1 -32.464708065222823 -11.904105323667878 -12.651058718693873 0 1 0 I I #
coedge $-1 $260 $170 $371 $383 forward $160 $-1 #
vertex $-1 $383 $384 #
straight-curve $-1 -32.464708065222823 -11.904105323667878 12.651058718693873 0 -1 0 I I #
point $-1 -32.464708065222823 -17.416424133329709 12.651058718693873 #
point $-1 -32.464708065222823 -17.416424133329709 -12.651058718693873 #
face $-1 $-1 $295 $23 $-1 $385 reversed single #
loop $-1 $-1 $301 $175 #
plane-surface $-1 0 0 12.651058718693873 0 0 1 1 0 0 forward_v I I I I #
coedge $-1 $184 $386 $286 $387 forward $176 $-1 #
coedge $-1 $388 $178 $285 $387 reversed $103 $-1 #
coedge $-1 $178 $388 $301 $389 reversed $103 $-1 #
edge $-1 $302 -12.651058718693873 $299 12.651058718693873 $178 $390 forward 7 unknown #
coedge $-1 $386 $184 $179 $290 forward $176 $-1 #
edge $-1 $189 5.5123188096618296 $296 18.295891837673921 $289 $391 forward 7 unknown #
coedge $-1 $186 $392 $180 $292 forward $283 $-1 #
edge $-1 $297 -18.295891837673921 $188 -5.5123188096618296 $291 $393 forward 7 unknown #
coedge $-1 $394 $181 $392 $395 reversed $295 $-1 #
coedge $-1 $181 $394 $386 $396 reversed $295 $-1 #
loop $-1 $-1 $394 $282 #
vertex $-1 $396 $397 #
vertex $-1 $182 $398 #
straight-curve $-1 -32.464708065222823 30.199997161341802 0 0 0 1 I I #
vertex $-1 $185 $399 #
straight-curve $-1 -15.421311016850911 17.416424133329706 -12.651058718693873 -1 0 0 I I #
coedge $-1 $392 $186 $287 $389 forward $283 $-1 #
vertex $-1 $187 $400 #
straight-curve $-1 -15.421311016850911 17.416424133329706 12.651058718693873 1 0 0 I I #
point $-1 -32.464708065222823 17.416424133329706 12.651058718693873 #
point $-1 -32.464708065222823 17.416424133329706 -12.651058718693873 #
plane-surface $-1 0 0 12.651058718693873 0 0 1 1 0 0 forward_v I I I I #
coedge $-1 $317 $316 $309 $401 forward $192 $-1 #
coedge $-1 $309 $194 $196 $313 reversed $111 $-1 #
coedge $-1 $194 $308 $307 $401 reversed $111 $-1 #
coedge $-1 $202 $197 $194 $311 forward $203 $-1 #
edge $-1 $314 -22.259768078337785 $402 -16.281981096150858 $310 $403 forward 7 unknown #
coedge $-1 $196 $195 $317 $404 reversed $69 $-1 #
edge $-1 $405 2.4161062406544664e-014 $314 10.170018851999904 $308 $406 forward 7 unknown #
vertex $-1 $198 $407 #
straight-curve $-1 -46.7118092579327 3.9716450424247594 12.651058718693871 0 1 0 I I #
coedge $-1 $307 $199 $202 $321 reversed $192 $-1 #
coedge $-1 $199 $307 $312 $404 forward $192 $-1 #
vertex $-1 $200 $408 #
straight-curve $-1 -52.689596240119627 4.1614726392076378 33.181837301233607 0 0 1 I I #
straight-curve $-1 -52.689596240119641 4.1614726392076378 4.4233405510832569 -0.5877852410284794 0 -0.80901700255871778 I I #
edge $-1 $402 -11.7251075304914 $204 -4.1614726392076378 $316 $409 forward 7 unknown #
point $-1 -52.689596240119627 4.1614726392076378 12.651058718693873 #
point $-1 -46.7118092579327 4.1614726392076378 12.651058718693873 #
edge $-1 $410 1 $410 0 $207 $-1 forward 7 unknown #
vertex $-1 $208 $411 #
ellipse-curve $-1 -45.025035313510017 7.9432900848495187 5.1401284956396704 -0.80901700255871778 0 0.5877852410284794 0.8816778615427191 0 1.2135255038380768 1 I I #
point $-1 -48.819024887483437 7.9432900848495187 9.7507251387266329 #
loop $-1 $-1 $219 $211 #
plane-surface $-1 52.689596240119627 0 0 -1 0 0 0 0 1 forward_v I I I I #
coedge $-1 $331 $214 $216 $335 reversed $126 $-1 #
coedge $-1 $214 $330 $412 $413 reversed $126 $-1 #
coedge $-1 $222 $217 $214 $333 forward $212 $-1 #
edge $-1 $336 8.7103989473542001 $414 14.688185929541113 $332 $415 forward 7 unknown #
coedge $-1 $216 $215 $339 $416 reversed $78 $-1 #
edge $-1 $417 -105.37919248023923 $336 -95.209173628239355 $330 $418 forward 7 unknown #
vertex $-1 $218 $419 #
straight-curve $-1 46.711809257932707 3.9716450424247594 12.651058718693882 0 -1 0 I I #
coedge $-1 $412 $219 $222 $343 reversed $328 $-1 #
coedge $-1 $219 $412 $334 $416 forward $328 $-1 #
vertex $-1 $220 $420 #
straight-curve $-1 52.689596240119627 11.7251075304914 75.808616517444278 0 0 1 I I #
straight-curve $-1 -9.2507378112643011 11.7251075304914 89.6768989835046 0.5877852410284794 0 -0.80901700255871778 I I #
edge $-1 $414 4.1614726392076378 $223 11.7251075304914 $338 $421 forward 7 unknown #
point $-1 52.689596240119627 11.7251075304914 12.651058718693873 #
point $-1 46.711809257932714 11.7251075304914 12.651058718693875 #
edge $-1 $422 1 $422 0 $226 $-1 forward 7 unknown #
vertex $-1 $227 $423 #
ellipse-curve $-1 45.025035313510017 7.9432900848495187 5.1401284956396704 0.80901700255871778 0 0.5877852410284794 0.8816778615427191 0 -1.2135255038380768 1 I I #
point $-1 50.582380610568876 7.9432900848495187 7.3236741310504803 #
plane-surface $-1 52.689596240119627 0 0 -1 0 0 0 0 1 forward_v I I I I #
coedge $-1 $235 $233 $237 $355 reversed $141 $-1 #
edge $-1 $248 -12.651058718693873 $357 12.651058718693873 $247 $424 forward 7 unknown #
vertex $-1 $355 $425 #
straight-curve $-1 -52.689596240119627 -30.199997161341802 0 0 0 -1 I I #
edge $-1 $353 -30.199997161341802 $357 30.199997161341802 $351 $426 forward 7 unknown #
straight-curve $-1 0 -30.199997161341802 -12.651058718693873 -1 0 0 I I #
vertex $-1 $240 $427 #
straight-curve $-1 0 30.199997161341802 -12.651058718693873 1 0 0 I I #
point $-1 52.689596240119627 30.199997161341802 -12.651058718693873 #
point $-1 52.689596240119627 -30.199997161341802 -12.651058718693873 #
straight-curve $-1 -52.689596240119627 0 12.651058718693873 0 -1 0 I I #
point $-1 -52.689596240119627 30.199997161341802 12.651058718693873 #
point $-1 -52.689596240119627 -30.199997161341802 12.651058718693873 #
straight-curve $-1 52.689596240119627 -30.199997161341802 0 0 0 -1 I I #
straight-curve $-1 52.689596240119627 30.199997161341802 0 0 0 -1 I I #
loop $-1 $-1 $263 $257 #
plane-surface $-1 0 -30.199997161341802 0 0 1 0 0 0 1 forward_v I I I I #
coedge $-1 $274 $265 $261 $370 forward $258 $-1 #
edge $-1 $374 -18.295891837673924 $269 -5.5123188096618314 $260 $428 forward 7 unknown #
edge $-1 $270 5.5123188096618314 $373 18.295891837673924 $368 $429 forward 7 unknown #
coedge $-1 $272 $263 $277 $383 reversed $366 $-1 #
coedge $-1 $263 $272 $274 $381 reversed $366 $-1 #
vertex $-1 $381 $430 #
vertex $-1 $264 $431 #
straight-curve $-1 -29.220536002180822 -30.199997161341802 0 0 0 1 I I #
straight-curve $-1 -15.421311016850911 -17.416424133329709 -12.651058718693873 1 0 0 I I #
straight-curve $-1 -15.421311016850911 -17.416424133329709 12.651058718693873 -1 0 0 I I #
point $-1 -29.220536002180822 -17.416424133329709 12.651058718693873 #
point $-1 -29.220536002180822 -17.416424133329709 -12.651058718693873 #
straight-curve $-1 -32.464708065222823 -30.199997161341802 0 0 0 -1 I I #
edge $-1 $373 29.220536002180822 $275 32.464708065222823 $372 $432 forward 7 unknown #
point $-1 -32.464708065222823 -30.199997161341802 -12.651058718693873 #
edge $-1 $278 -32.464708065222823 $374 -29.220536002180822 $371 $433 forward 7 unknown #
point $-1 -32.464708065222823 -30.199997161341802 12.651058718693873 #
plane-surface $-1 0 30.199997161341802 0 0 -1 0 0 0 -1 forward_v I I I I #
coedge $-1 $285 $289 $294 $396 forward $176 $-1 #
edge $-1 $434 -18.295891837673921 $299 -5.5123188096618296 $285 $435 forward 7 unknown #
coedge $-1 $287 $286 $394 $436 reversed $103 $-1 #
edge $-1 $302 5.5123188096618296 $437 18.295891837673921 $301 $438 forward 7 unknown #
straight-curve $-1 -29.220536002180822 17.416424133329706 0 0 0 -1 I I #
straight-curve $-1 -32.464708065222823 11.904105323667876 -12.651058718693873 0 1 0 I I #
coedge $-1 $291 $301 $293 $395 forward $283 $-1 #
straight-curve $-1 -32.464708065222823 11.904105323667876 12.651058718693873 0 -1 0 I I #
coedge $-1 $294 $293 $388 $436 forward $295 $-1 #
edge $-1 $437 29.220536002180822 $297 32.464708065222823 $293 $439 forward 7 unknown #
edge $-1 $296 -32.464708065222823 $434 -29.220536002180822 $294 $440 forward 7 unknown #
point $-1 -32.464708065222823 30.199997161341798 -12.651058718693873 #
point $-1 -32.464708065222823 30.199997161341798 12.651058718693873 #
point $-1 -29.220536002180822 17.416424133329706 -12.651058718693873 #
point $-1 -29.220536002180822 17.416424133329706 12.651058718693873 #
edge $-1 $402 20.530778582539732 $405 28.758496750150329 $307 $441 forward 7 unknown #
vertex $-1 $321 $442 #
straight-curve $-1 -68.971577336270485 11.7251075304914 12.651058718693875 -1 0 0 I I #
edge $-1 $405 -7.7534624880666403 $318 -0.18982759678287842 $317 $443 forward 7 unknown #
vertex $-1 $404 $444 #
straight-curve $-1 -52.689596240119641 11.7251075304914 4.4233405510832569 0.5877852410284794 0 0.80901700255871778 I I #
point $-1 -46.7118092579327 11.7251075304914 12.651058718693873 #
point $-1 -52.689596240119627 4.1614726392076378 4.4233405510832764 #
straight-curve $-1 -52.689596240119627 0 12.651058718693873 0 -1 0 I I #
vertex $-1 $324 $445 #
point $-1 -44.143357451967304 7.9432900848495187 6.3536539994777472 #
coedge $-1 $339 $338 $331 $413 forward $328 $-1 #
edge $-1 $414 63.157557798750403 $417 71.385275966360979 $412 $446 forward 7 unknown #
vertex $-1 $343 $447 #
straight-curve $-1 38.001410310578514 4.1614726392076378 12.651058718693875 1 0 0 I I #
edge $-1 $417 0.18982759678287842 $340 7.7534624880666403 $339 $448 forward 7 unknown #
vertex $-1 $416 $449 #
straight-curve $-1 -9.2507378112643011 4.1614726392076378 89.6768989835046 -0.5877852410284794 0 0.80901700255871778 I I #
point $-1 46.711809257932714 4.1614726392076378 12.651058718693875 #
point $-1 52.689596240119627 11.7251075304914 4.4233405510832995 #
straight-curve $-1 52.689596240119627 0 12.651058718693873 0 1 0 I I #
vertex $-1 $346 $450 #
point $-1 45.906713175052737 7.9432900848495187 3.9266029918015937 #
straight-curve $-1 -52.689596240119627 30.199997161341802 0 0 0 -1 I I #
point $-1 -52.689596240119627 -30.199997161341802 -12.651058718693873 #
straight-curve $-1 -52.689596240119627 0 -12.651058718693873 0 1 0 I I #
point $-1 -52.689596240119627 30.199997161341802 -12.651058718693873 #
straight-curve $-1 -29.220536002180822 -11.904105323667878 12.651058718693873 0 1 0 I I #
straight-curve $-1 -29.220536002180822 -11.904105323667878 -12.651058718693873 0 -1 0 I I #
point $-1 -29.220536002180822 -30.199997161341802 -12.651058718693873 #
point $-1 -29.220536002180822 -30.199997161341802 12.651058718693873 #
straight-curve $-1 0 -30.199997161341802 -12.651058718693873 -1 0 0 I I #
straight-curve $-1 0 -30.199997161341802 12.651058718693873 1 0 0 I I #
vertex $-1 $436 $451 #
straight-curve $-1 -29.220536002180822 11.904105323667876 -12.651058718693873 0 -1 0 I I #
edge $-1 $437 -12.651058718693873 $434 12.651058718693873 $394 $452 forward 7 unknown #
vertex $-1 $395 $453 #
straight-curve $-1 -29.220536002180822 11.904105323667876 12.651058718693873 0 1 0 I I #
straight-curve $-1 0 30.199997161341802 12.651058718693873 -1 0 0 I I #
straight-curve $-1 0 30.199997161341802 -12.651058718693873 1 0 0 I I #
straight-curve $-1 -52.689596240119627 11.7251075304914 33.181837301233607 0 0 -1 I I #
point $-1 -52.689596240119627 11.7251075304914 12.651058718693873 #
straight-curve $-1 -52.689596240119627 3.9716450424247594 4.4233405510832799 0 -1 0 I I #
point $-1 -52.689596240119627 11.7251075304914 4.4233405510832764 #
point $-1 -43.811509809671946 7.9432900848495187 4.2584506340969508 #
straight-curve $-1 52.689596240119627 4.1614726392076378 75.808616517444278 0 0 -1 I I #
point $-1 52.689596240119627 4.1614726392076378 12.651058718693873 #
straight-curve $-1 52.689596240119627 3.9716450424247594 4.4233405510832995 0 1 0 I I #
point $-1 52.689596240119627 4.1614726392076378 4.4233405510832995 #
point $-1 43.811509809671946 7.9432900848495187 4.2584506340969508 #
point $-1 -29.220536002180822 30.199997161341798 -12.651058718693873 #
straight-curve $-1 -29.220536002180822 30.199997161341802 0 0 0 -1 I I #
point $-1 -29.220536002180822 30.199997161341798 12.651058718693873 #
End-of-ACIS-data 