500 0 9 0           
7 Unknown 11 ACIS 5.0 NT 24 Fri Mar 26 20:41:02 1999 
-1 9.9999999999999995e-007 1e-010 
body $-1 $9 $-1 $10 #
body $-1 $11 $-1 $12 #
body $-1 $13 $-1 $14 #
body $-1 $15 $-1 $16 #
body $-1 $17 $-1 $18 #
body $-1 $19 $-1 $20 #
body $-1 $21 $-1 $22 #
body $-1 $23 $-1 $24 #
body $-1 $25 $-1 $26 #
lump $-1 $-1 $27 $0 #
transform $-1 1 0 0 0 1 0 0 0 1 73.958555864131597 37.60878448532079 17.953210426372241 1 rotate no_reflect no_shear #
lump $-1 $-1 $28 $1 #
transform $-1 1 0 0 0 1 0 0 0 1 73.958555864131597 37.60878448532079 17.953210426372241 1 rotate no_reflect no_shear #
lump $-1 $-1 $29 $2 #
transform $-1 1 0 0 0 1 0 0 0 1 73.958555864131597 37.60878448532079 17.953210426372241 1 rotate no_reflect no_shear #
lump $-1 $-1 $30 $3 #
transform $-1 1 0 0 0 1 0 0 0 1 73.958555864131597 37.60878448532079 17.953210426372241 1 rotate no_reflect no_shear #
lump $-1 $-1 $31 $4 #
transform $-1 1 0 0 0 1 0 0 0 1 73.958555864131597 37.60878448532079 17.953210426372241 1 rotate no_reflect no_shear #
lump $-1 $-1 $32 $5 #
transform $-1 1 0 0 0 1 0 0 0 1 73.958555864131597 37.60878448532079 17.953210426372241 1 rotate no_reflect no_shear #
lump $-1 $-1 $33 $6 #
transform $-1 1 0 0 0 1 0 0 0 1 73.958555864131597 37.60878448532079 17.953210426372241 1 rotate no_reflect no_shear #
lump $-1 $-1 $34 $7 #
transform $-1 1 0 0 0 1 0 0 0 1 73.958555864131597 37.60878448532079 17.953210426372241 1 rotate no_reflect no_shear #
lump $-1 $-1 $35 $8 #
transform $-1 1 0 0 0 1 0 0 0 1 73.958555864131597 37.60878448532079 17.953210426372241 1 rotate no_reflect no_shear #
shell $-1 $-1 $-1 $36 $-1 $9 #
shell $-1 $-1 $-1 $37 $-1 $11 #
shell $-1 $-1 $-1 $38 $-1 $13 #
shell $-1 $-1 $-1 $39 $-1 $15 #
shell $-1 $-1 $-1 $40 $-1 $17 #
shell $-1 $-1 $-1 $41 $-1 $19 #
shell $-1 $-1 $-1 $42 $-1 $21 #
shell $-1 $-1 $-1 $43 $-1 $23 #
shell $-1 $-1 $-1 $44 $-1 $25 #
face $-1 $45 $46 $27 $-1 $47 forward single #
face $-1 $48 $49 $28 $-1 $50 reversed single #
face $-1 $51 $52 $29 $-1 $53 reversed single #
face $-1 $54 $55 $30 $-1 $56 forward single #
face $-1 $57 $58 $31 $-1 $59 forward single #
face $-1 $60 $61 $32 $-1 $62 reversed single #
face $-1 $63 $64 $33 $-1 $65 forward single #
face $-1 $66 $67 $34 $-1 $68 forward single #
face $-1 $69 $70 $35 $-1 $71 forward single #
face $-1 $72 $73 $27 $-1 $74 reversed single #
loop $-1 $-1 $75 $36 #
plane-surface $-1 0 0 17.953210426372241 0 0 1 1 0 0 forward_v I I I I #
face $-1 $76 $77 $28 $-1 $78 reversed single #
loop $-1 $-1 $79 $37 #
plane-surface $-1 -71.672421323159327 -22.469308454895966 0 0 -1 0 0 0 -1 forward_v I I I I #
face $-1 $80 $81 $29 $-1 $82 reversed single #
loop $-1 $-1 $83 $38 #
plane-surface $-1 -182.13828428189004 25.468671664950985 115.32908302669782 0 1 0 -0.73135370988377701 0 0.68199835119979291 forward_v I I I I #
face $-1 $84 $85 $30 $-1 $86 forward single #
loop $-1 $87 $88 $39 #
cone-surface $-1 -71.564553928051254 28.937275327913788 15.492321471994313 0.73135370988377701 0 -0.68199835119979291 0.68199835119979291 0 0.73135370988377701 1 I I 0 1 1 forward I I I I #
face $-1 $89 $90 $31 $-1 $91 forward single #
loop $-1 $92 $93 $40 #
cone-surface $-1 -71.564553928051254 34.140180822357983 15.492321471994313 0.73135370988377701 0 -0.68199835119979291 0.68199835119979291 0 0.73135370988377701 1 I I 0 1 1 forward I I I I #
face $-1 $94 $95 $32 $-1 $96 reversed single #
loop $-1 $-1 $97 $41 #
plane-surface $-1 70.307752415808466 8.1258572255390167 219.81622335796683 0 -1 0 -0.69465837861970381 0 -0.71933979245794832 forward_v I I I I #
face $-1 $98 $99 $33 $-1 $100 forward single #
loop $-1 $101 $102 $42 #
cone-surface $-1 68.682372791666765 -5.7971083434256485 12.753235002578547 -0.69465837861970381 0 -0.71933979245794832 1.0790096886869225 0 -1.0419875679295556 1 I I 0 1 1.5 forward I I I I #
face $-1 $103 $104 $34 $-1 $105 forward single #
loop $-1 $106 $107 $43 #
cone-surface $-1 68.682372791666765 -0.57599625506389884 12.753235002578547 -0.69465837861970381 0 -0.71933979245794832 1.0790096886869225 0 -1.0419875679295556 1 I I 0 1 1.5 forward I I I I #
face $-1 $108 $109 $35 $-1 $110 forward single #
loop $-1 $111 $112 $44 #
cone-surface $-1 68.682372791666765 4.6451158332978508 12.753235002578547 -0.69465837861970381 0 -0.71933979245794832 1.0790096886869225 0 -1.0419875679295556 1 I I 0 1 1.5 forward I I I I #
face $-1 $113 $114 $27 $-1 $115 reversed single #
loop $-1 $-1 $116 $45 #
plane-surface $-1 0 0 -17.953210426372241 0 0 1 1 0 0 forward_v I I I I #
coedge $-1 $117 $118 $119 $120 forward $46 $-1 #
face $-1 $121 $122 $28 $-1 $123 forward single #
loop $-1 $-1 $124 $48 #
plane-surface $-1 -69.386286782187057 -30.039046470108378 0 -1 0 0 0 0 1 forward_v I I I I #
coedge $-1 $125 $126 $127 $128 forward $49 $-1 #
face $-1 $129 $130 $29 $-1 $131 reversed single #
loop $-1 $-1 $132 $51 #
plane-surface $-1 -73.958555864131611 31.538728075135886 14.449856713786772 -0.73135370988377701 0 0.68199835119979291 0.68199835119979291 0 0.73135370988377701 forward_v I I I I #
coedge $-1 $133 $134 $135 $136 reversed $52 $-1 #
face $-1 $-1 $137 $30 $-1 $138 forward single #
loop $-1 $139 $140 $54 #
cone-surface $-1 -70.438340191874133 28.937275327913788 14.442110198309226 0.73135370988377701 0 -0.68199835119979291 0.34099917559989645 0 0.36567685494188851 1 I I -0.70710678118654746 0.70710678118654746 0.5 forward I I I I #
loop $-1 $-1 $141 $39 #
coedge $-1 $88 $88 $142 $143 reversed $55 $-1 #
face $-1 $-1 $144 $31 $-1 $145 forward single #
loop $-1 $146 $147 $57 #
cone-surface $-1 -70.438340191874133 34.140180822357983 14.442110198309226 0.73135370988377701 0 -0.68199835119979291 0.34099917559989645 0 0.36567685494188851 1 I I -0.70710678118654746 0.70710678118654746 0.5 forward I I I I #
loop $-1 $-1 $148 $40 #
coedge $-1 $93 $93 $149 $150 reversed $58 $-1 #
face $-1 $151 $152 $32 $-1 $153 reversed single #
loop $-1 $-1 $154 $60 #
plane-surface $-1 -32.444108587456412 -0.57599625506389884 113.41355890637884 0.69465837861970381 0 0.71933979245794832 0.71933979245794832 0 -0.69465837861970381 forward_v I I I I #
coedge $-1 $155 $156 $157 $158 reversed $61 $-1 #
face $-1 $-1 $159 $33 $-1 $160 forward single #
loop $-1 $161 $162 $63 #
cone-surface $-1 66.660486975134489 -5.7971083434256485 10.659510996070548 -0.69465837861970381 0 -0.71933979245794832 0.53950484434346124 0 -0.5209937839647778 1 I I -0.70710678118654757 0.70710678118654757 0.75 forward I I I I #
loop $-1 $-1 $163 $42 #
coedge $-1 $102 $102 $164 $165 reversed $64 $-1 #
face $-1 $-1 $166 $34 $-1 $167 forward single #
loop $-1 $168 $169 $66 #
cone-surface $-1 66.660486975134489 -0.57599625506389884 10.659510996070548 -0.69465837861970381 0 -0.71933979245794832 0.53950484434346124 0 -0.5209937839647778 1 I I -0.70710678118654757 0.70710678118654757 0.75 forward I I I I #
loop $-1 $-1 $170 $43 #
coedge $-1 $107 $107 $171 $172 reversed $67 $-1 #
face $-1 $-1 $173 $35 $-1 $174 forward single #
loop $-1 $175 $176 $69 #
cone-surface $-1 66.660486975134489 4.6451158332978508 10.659510996070548 -0.69465837861970381 0 -0.71933979245794832 0.53950484434346124 0 -0.5209937839647778 1 I I -0.70710678118654757 0.70710678118654757 0.75 forward I I I I #
loop $-1 $-1 $177 $44 #
coedge $-1 $112 $112 $178 $179 reversed $70 $-1 #
face $-1 $180 $181 $27 $-1 $182 reversed single #
loop $-1 $-1 $183 $72 #
plane-surface $-1 0 -37.60878448532079 0 0 1 0 0 0 1 forward_v I I I I #
coedge $-1 $184 $185 $186 $187 forward $73 $-1 #
coedge $-1 $188 $75 $189 $190 forward $46 $-1 #
coedge $-1 $75 $188 $191 $192 forward $46 $-1 #
coedge $-1 $193 $194 $75 $120 reversed $195 $-1 #
edge $-1 $196 -37.60878448532079 $197 37.60878448532079 $119 $198 forward 7 unknown #
face $-1 $199 $200 $28 $-1 $201 reversed single #
loop $-1 $-1 $202 $76 #
plane-surface $-1 0 0 17.953210426372241 0 0 1 1 0 0 forward_v I I I I #
coedge $-1 $203 $204 $205 $206 reversed $77 $-1 #
coedge $-1 $207 $79 $208 $209 reversed $49 $-1 #
coedge $-1 $79 $207 $210 $211 reversed $49 $-1 #
coedge $-1 $204 $203 $79 $128 reversed $77 $-1 #
edge $-1 $212 -17.953210426372241 $213 17.953210426372241 $127 $214 forward 7 unknown #
face $-1 $215 $216 $29 $-1 $217 reversed single #
loop $-1 $-1 $218 $80 #
plane-surface $-1 0 37.60878448532079 0 0 -1 0 0 0 -1 forward_v I I I I #
coedge $-1 $219 $220 $221 $222 reversed $81 $-1 #
coedge $-1 $134 $83 $223 $224 reversed $52 $-1 #
coedge $-1 $83 $133 $219 $225 reversed $52 $-1 #
coedge $-1 $221 $226 $83 $136 forward $227 $-1 #
edge $-1 $228 17.110586276813422 $229 20.377516386503629 $135 $230 forward 7 unknown #
loop $-1 $-1 $142 $84 #
plane-surface $-1 -73.958555864131611 31.538728075135886 14.449856713786772 -0.73135370988377701 0 0.68199835119979291 0.68199835119979291 0 0.73135370988377701 forward_v I I I I #
loop $-1 $-1 $231 $54 #
coedge $-1 $140 $140 $141 $232 reversed $85 $-1 #
coedge $-1 $141 $141 $140 $232 forward $87 $-1 #
coedge $-1 $142 $142 $88 $143 forward $137 $-1 #
edge $-1 $233 0 $233 6.2831853071796004 $142 $234 forward 7 unknown #
loop $-1 $-1 $149 $89 #
plane-surface $-1 -73.958555864131611 31.538728075135886 14.449856713786772 -0.73135370988377701 0 0.68199835119979291 0.68199835119979291 0 0.73135370988377701 forward_v I I I I #
loop $-1 $-1 $235 $57 #
coedge $-1 $147 $147 $148 $236 reversed $90 $-1 #
coedge $-1 $148 $148 $147 $236 forward $92 $-1 #
coedge $-1 $149 $149 $93 $150 forward $144 $-1 #
edge $-1 $237 0 $237 6.2831853071796004 $149 $238 forward 7 unknown #
face $-1 $239 $240 $32 $-1 $241 reversed single #
loop $-1 $-1 $242 $94 #
plane-surface $-1 70.307752415808466 -9.2778497356668144 219.81622335796683 0 1 0 0.69465837861970381 0 0.71933979245794832 forward_v I I I I #
coedge $-1 $243 $244 $245 $246 reversed $95 $-1 #
coedge $-1 $156 $97 $247 $248 reversed $61 $-1 #
coedge $-1 $97 $155 $243 $249 reversed $61 $-1 #
coedge $-1 $245 $250 $97 $158 forward $251 $-1 #
edge $-1 $252 -38.804679656227364 $253 -31.254097576432713 $157 $254 forward 7 unknown #
loop $-1 $-1 $164 $98 #
plane-surface $-1 -32.444108587456412 -0.57599625506389884 113.41355890637884 0.69465837861970381 0 0.71933979245794832 0.71933979245794832 0 -0.69465837861970381 forward_v I I I I #
loop $-1 $-1 $255 $63 #
coedge $-1 $162 $162 $163 $256 reversed $99 $-1 #
coedge $-1 $163 $163 $162 $256 forward $101 $-1 #
coedge $-1 $164 $164 $102 $165 forward $159 $-1 #
edge $-1 $257 0 $257 6.2831853071796004 $164 $258 forward 7 unknown #
loop $-1 $-1 $171 $103 #
plane-surface $-1 -32.444108587456412 -0.57599625506389884 113.41355890637884 0.69465837861970381 0 0.71933979245794832 0.71933979245794832 0 -0.69465837861970381 forward_v I I I I #
loop $-1 $-1 $259 $66 #
coedge $-1 $169 $169 $170 $260 reversed $104 $-1 #
coedge $-1 $170 $170 $169 $260 forward $106 $-1 #
coedge $-1 $171 $171 $107 $172 forward $166 $-1 #
edge $-1 $261 0 $261 6.2831853071796004 $171 $262 forward 7 unknown #
loop $-1 $-1 $178 $108 #
plane-surface $-1 -32.444108587456412 -0.57599625506389884 113.41355890637884 0.69465837861970381 0 0.71933979245794832 0.71933979245794832 0 -0.69465837861970381 forward_v I I I I #
loop $-1 $-1 $263 $69 #
coedge $-1 $176 $176 $177 $264 reversed $109 $-1 #
coedge $-1 $177 $177 $176 $264 forward $111 $-1 #
coedge $-1 $178 $178 $112 $179 forward $173 $-1 #
edge $-1 $265 0 $265 6.2831853071796004 $178 $266 forward 7 unknown #
face $-1 $267 $268 $27 $-1 $269 reversed single #
loop $-1 $-1 $270 $113 #
plane-surface $-1 -73.958555864131597 0 0 1 0 0 0 0 -1 forward_v I I I I #
coedge $-1 $271 $191 $272 $273 forward $114 $-1 #
coedge $-1 $274 $116 $271 $275 forward $73 $-1 #
coedge $-1 $116 $274 $276 $277 forward $73 $-1 #
coedge $-1 $194 $193 $116 $187 reversed $195 $-1 #
edge $-1 $278 -37.60878448532079 $279 37.60878448532079 $186 $280 forward 7 unknown #
coedge $-1 $118 $117 $281 $282 forward $46 $-1 #
coedge $-1 $283 $284 $117 $190 reversed $268 $-1 #
edge $-1 $197 -73.958555864131597 $285 73.958555864131597 $189 $286 forward 7 unknown #
coedge $-1 $183 $287 $118 $192 reversed $114 $-1 #
edge $-1 $288 -73.958555864131597 $196 73.958555864131597 $191 $289 forward 7 unknown #
coedge $-1 $186 $119 $287 $290 forward $195 $-1 #
coedge $-1 $119 $186 $283 $291 reversed $195 $-1 #
loop $-1 $-1 $193 $267 #
vertex $-1 $120 $292 #
vertex $-1 $120 $293 #
straight-curve $-1 73.958555864131597 0 17.953210426372241 0 1 0 I I #
face $-1 $294 $295 $28 $-1 $296 reversed single #
loop $-1 $-1 $297 $121 #
plane-surface $-1 -73.958555864131597 0 0 1 0 0 0 0 -1 forward_v I I I I #
coedge $-1 $210 $298 $204 $299 forward $122 $-1 #
coedge $-1 $127 $124 $300 $301 reversed $77 $-1 #
coedge $-1 $124 $127 $202 $299 reversed $77 $-1 #
coedge $-1 $302 $303 $124 $206 forward $304 $-1 #
edge $-1 $305 -17.953210426372241 $306 17.953210426372241 $205 $307 forward 7 unknown #
coedge $-1 $126 $125 $297 $308 reversed $49 $-1 #
coedge $-1 $300 $309 $125 $209 forward $295 $-1 #
edge $-1 $310 -38.122345202551934 $213 -33.550076120607393 $208 $311 forward 7 unknown #
coedge $-1 $312 $202 $126 $211 forward $122 $-1 #
edge $-1 $212 33.550076120607393 $313 38.122345202551934 $210 $314 forward 7 unknown #
vertex $-1 $211 $315 #
vertex $-1 $209 $316 #
straight-curve $-1 -69.386286782187057 -22.469308454895966 0 0 0 -1 I I #
face $-1 $-1 $227 $29 $-1 $317 forward single #
loop $-1 $-1 $318 $129 #
plane-surface $-1 -73.958555864131597 0 0 1 0 0 0 0 -1 forward_v I I I I #
coedge $-1 $319 $320 $220 $321 forward $130 $-1 #
coedge $-1 $322 $132 $134 $225 forward $81 $-1 #
coedge $-1 $132 $322 $218 $321 reversed $81 $-1 #
coedge $-1 $323 $135 $132 $222 forward $227 $-1 #
edge $-1 $229 9.6993076273830425 $324 21.83942044775284 $221 $325 forward 7 unknown #
coedge $-1 $326 $318 $133 $224 forward $216 $-1 #
edge $-1 $327 -43.214684799562121 $228 -39.711331086976671 $223 $328 forward 7 unknown #
edge $-1 $229 -4.7902316830281757 $327 -2.1384085966062714e-014 $134 $329 forward 7 unknown #
coedge $-1 $135 $323 $326 $330 forward $227 $-1 #
loop $-1 $-1 $221 $215 #
vertex $-1 $224 $331 #
vertex $-1 $136 $332 #
straight-curve $-1 -91.069142140945019 25.468671664950985 17.953210426372237 1 0 0 I I #
coedge $-1 $231 $231 $-1 $333 reversed $139 $-1 #
edge $-1 $334 0 $334 6.2831853071796004 $140 $335 forward 7 unknown #
vertex $-1 $143 $336 #
ellipse-curve $-1 -72.325090809286493 28.937275327913788 16.201533570079512 -0.73135370988377701 0 0.68199835119979291 0.68199835119979291 0 0.73135370988377701 1 I I #
coedge $-1 $235 $235 $-1 $337 reversed $146 $-1 #
edge $-1 $338 0 $338 6.2831853071796004 $147 $339 forward 7 unknown #
vertex $-1 $150 $340 #
ellipse-curve $-1 -72.325090809286493 34.140180822357983 16.201533570079512 -0.73135370988377701 0 0.68199835119979291 0.68199835119979291 0 0.73135370988377701 1 I I #
face $-1 $-1 $251 $32 $-1 $341 forward single #
loop $-1 $-1 $342 $151 #
plane-surface $-1 73.958555864131597 0 0 -1 0 0 0 0 1 forward_v I I I I #
coedge $-1 $343 $344 $345 $346 reversed $152 $-1 #
coedge $-1 $347 $154 $156 $249 forward $95 $-1 #
coedge $-1 $154 $347 $343 $348 forward $95 $-1 #
coedge $-1 $345 $157 $154 $246 forward $251 $-1 #
edge $-1 $253 -8.4138553530709661 $349 8.9898516081348649 $245 $350 forward 7 unknown #
coedge $-1 $351 $352 $155 $248 forward $240 $-1 #
edge $-1 $353 -99.246413775869456 $252 -91.95490125261118 $247 $354 forward 7 unknown #
edge $-1 $253 137.42056731495515 $353 147.91711172826319 $156 $355 forward 7 unknown #
coedge $-1 $157 $345 $351 $356 forward $251 $-1 #
loop $-1 $-1 $345 $239 #
vertex $-1 $248 $357 #
vertex $-1 $158 $358 #
straight-curve $-1 35.153876207904233 8.1258572255390167 17.953210426372237 -1 0 0 I I #
coedge $-1 $255 $255 $-1 $359 reversed $161 $-1 #
edge $-1 $360 0 $360 6.2831853071796004 $162 $361 forward 7 unknown #
vertex $-1 $165 $362 #
ellipse-curve $-1 70.183264824234271 -5.7971083434256485 14.30745416474309 0.69465837861970381 0 0.71933979245794832 1.0790096886869225 0 -1.0419875679295556 1 I I #
coedge $-1 $259 $259 $-1 $363 reversed $168 $-1 #
edge $-1 $364 0 $364 6.2831853071796004 $169 $365 forward 7 unknown #
vertex $-1 $172 $366 #
ellipse-curve $-1 70.183264824234271 -0.57599625506389884 14.30745416474309 0.69465837861970381 0 0.71933979245794832 1.0790096886869225 0 -1.0419875679295556 1 I I #
coedge $-1 $263 $263 $-1 $367 reversed $175 $-1 #
edge $-1 $368 0 $368 6.2831853071796004 $176 $369 forward 7 unknown #
vertex $-1 $179 $370 #
ellipse-curve $-1 70.183264824234271 4.6451158332978508 14.30745416474309 0.69465837861970381 0 0.71933979245794832 1.0790096886869225 0 -1.0419875679295556 1 I I #
face $-1 $-1 $195 $27 $-1 $371 reversed single #
loop $-1 $-1 $283 $180 #
plane-surface $-1 0 37.60878448532079 0 0 -1 0 0 0 -1 forward_v I I I I #
coedge $-1 $372 $281 $284 $373 forward $181 $-1 #
coedge $-1 $287 $183 $184 $275 reversed $114 $-1 #
coedge $-1 $281 $372 $183 $273 reversed $181 $-1 #
edge $-1 $288 -17.953210426372241 $374 17.953210426372241 $272 $375 forward 7 unknown #
coedge $-1 $185 $184 $372 $376 forward $73 $-1 #
edge $-1 $279 -73.958555864131597 $374 73.958555864131597 $271 $377 forward 7 unknown #
coedge $-1 $284 $283 $185 $277 reversed $268 $-1 #
edge $-1 $378 -73.958555864131597 $278 73.958555864131597 $276 $379 forward 7 unknown #
vertex $-1 $187 $380 #
vertex $-1 $290 $381 #
straight-curve $-1 73.958555864131597 0 -17.953210426372241 0 -1 0 I I #
coedge $-1 $270 $272 $188 $282 reversed $181 $-1 #
edge $-1 $285 -37.60878448532079 $288 37.60878448532079 $281 $382 forward 7 unknown #
coedge $-1 $276 $189 $194 $291 forward $268 $-1 #
coedge $-1 $189 $276 $270 $373 reversed $268 $-1 #
vertex $-1 $190 $383 #
straight-curve $-1 0 37.60878448532079 17.953210426372241 -1 0 0 I I #
coedge $-1 $191 $271 $193 $290 reversed $114 $-1 #
vertex $-1 $282 $384 #
straight-curve $-1 0 -37.60878448532079 17.953210426372241 1 0 0 I I #
edge $-1 $196 -17.953210426372241 $279 17.953210426372241 $193 $385 forward 7 unknown #
edge $-1 $197 -17.953210426372241 $278 17.953210426372241 $194 $386 forward 7 unknown #
point $-1 73.958555864131597 -37.60878448532079 17.953210426372241 #
point $-1 73.958555864131597 37.60878448532079 17.953210426372241 #
face $-1 $-1 $304 $28 $-1 $387 reversed single #
loop $-1 $-1 $300 $199 #
plane-surface $-1 0 0 -17.953210426372241 0 0 1 1 0 0 forward_v I I I I #
coedge $-1 $388 $389 $207 $308 forward $200 $-1 #
coedge $-1 $202 $312 $302 $390 forward $122 $-1 #
edge $-1 $306 -22.589261250266603 $212 -7.4497852198417771 $202 $391 forward 7 unknown #
coedge $-1 $392 $208 $203 $301 forward $295 $-1 #
edge $-1 $213 7.4497852198417771 $305 22.589261250266603 $300 $393 forward 7 unknown #
coedge $-1 $394 $205 $298 $390 reversed $304 $-1 #
coedge $-1 $205 $394 $392 $395 reversed $304 $-1 #
loop $-1 $-1 $205 $294 #
vertex $-1 $395 $396 #
vertex $-1 $206 $397 #
straight-curve $-1 -69.386286782187057 -37.60878448532079 0 0 0 1 I I #
edge $-1 $313 -17.953210426372241 $310 17.953210426372241 $297 $398 forward 7 unknown #
coedge $-1 $208 $392 $388 $399 forward $295 $-1 #
vertex $-1 $209 $400 #
straight-curve $-1 -35.836210661579663 -22.469308454895966 -17.953210426372241 1 0 0 I I #
coedge $-1 $298 $210 $389 $401 forward $122 $-1 #
vertex $-1 $401 $402 #
straight-curve $-1 -35.836210661579663 -22.469308454895966 17.953210426372241 -1 0 0 I I #
point $-1 -69.386286782187057 -22.469308454895966 17.953210426372241 #
point $-1 -69.386286782187057 -22.469308454895966 -17.953210426372241 #
plane-surface $-1 0 0 17.953210426372241 0 0 1 1 0 0 forward_v I I I I #
coedge $-1 $223 $403 $322 $404 forward $216 $-1 #
coedge $-1 $320 $218 $403 $405 reversed $130 $-1 #
coedge $-1 $218 $319 $323 $406 reversed $130 $-1 #
edge $-1 $324 15.145596737741112 $407 19.935828420769266 $218 $408 forward 7 unknown #
coedge $-1 $220 $219 $318 $404 reversed $81 $-1 #
coedge $-1 $226 $221 $320 $406 forward $227 $-1 #
vertex $-1 $406 $409 #
straight-curve $-1 -70.69162575444139 15.769364037567943 17.953210426372241 0 1 0 I I #
coedge $-1 $403 $223 $226 $330 reversed $216 $-1 #
vertex $-1 $224 $410 #
straight-curve $-1 -73.958555864131597 25.468671664950985 57.664541513348908 0 0 1 I I #
straight-curve $-1 -73.958555864131611 25.468671664950985 14.449856713786772 -0.68199835119979291 0 -0.73135370988377701 I I #
edge $-1 $411 -37.60878448532079 $228 -25.468671664950985 $326 $412 forward 7 unknown #
point $-1 -73.958555864131597 25.468671664950985 17.953210426372241 #
point $-1 -70.69162575444139 25.468671664950985 17.953210426372241 #
edge $-1 $413 1 $413 0 $231 $-1 forward 7 unknown #
vertex $-1 $232 $414 #
ellipse-curve $-1 -70.804017046816028 28.937275327913788 14.783109373909124 -0.73135370988377701 0 0.68199835119979291 0.68199835119979291 0 0.73135370988377701 1 I I #
point $-1 -71.643092458086684 28.937275327913788 16.932887279963278 #
edge $-1 $415 1 $415 0 $235 $-1 forward 7 unknown #
vertex $-1 $236 $416 #
ellipse-curve $-1 -70.804017046816028 34.140180822357983 14.783109373909124 -0.73135370988377701 0 0.68199835119979291 0.68199835119979291 0 0.73135370988377701 1 I I #
point $-1 -71.643092458086684 34.140180822357983 16.932887279963278 #
plane-surface $-1 0 0 17.953210426372241 0 0 1 1 0 0 forward_v I I I I #
coedge $-1 $352 $351 $344 $417 forward $240 $-1 #
coedge $-1 $344 $242 $244 $348 reversed $152 $-1 #
coedge $-1 $242 $343 $342 $417 reversed $152 $-1 #
coedge $-1 $250 $245 $242 $346 forward $251 $-1 #
edge $-1 $349 31.254097576432713 $418 38.804679656227364 $345 $419 forward 7 unknown #
coedge $-1 $244 $243 $352 $420 reversed $95 $-1 #
edge $-1 $421 -147.91711172826319 $349 -137.42056731495515 $343 $422 forward 7 unknown #
vertex $-1 $246 $423 #
straight-curve $-1 66.407973784336946 -0.28799812753194942 17.953210426372237 0 -1 0 I I #
coedge $-1 $342 $247 $250 $356 reversed $240 $-1 #
coedge $-1 $247 $342 $347 $420 forward $240 $-1 #
vertex $-1 $248 $424 #
straight-curve $-1 73.958555864131597 8.1258572255390167 109.90811167898342 0 0 1 I I #
straight-curve $-1 -32.444108587456412 8.1258572255390167 113.41355890637884 0.71933979245794832 0 -0.69465837861970381 I I #
edge $-1 $418 -9.2778497356668144 $252 8.1258572255390167 $351 $425 forward 7 unknown #
point $-1 73.958555864131597 8.1258572255390167 17.953210426372241 #
point $-1 66.407973784336946 8.1258572255390167 17.953210426372223 #
edge $-1 $426 1 $426 0 $255 $-1 forward 7 unknown #
vertex $-1 $256 $427 #
ellipse-curve $-1 67.181480759099273 -5.7971083434256485 11.19901584041401 0.69465837861970381 0 0.71933979245794832 1.0790096886869225 0 -1.0419875679295556 1 I I #
point $-1 71.262274512921181 -5.7971083434256485 13.265466596813528 #
edge $-1 $428 1 $428 0 $259 $-1 forward 7 unknown #
vertex $-1 $260 $429 #
ellipse-curve $-1 67.181480759099273 -0.57599625506389884 11.19901584041401 0.69465837861970381 0 0.71933979245794832 1.0790096886869225 0 -1.0419875679295556 1 I I #
point $-1 71.262274512921181 -0.57599625506389884 13.265466596813528 #
edge $-1 $430 1 $430 0 $263 $-1 forward 7 unknown #
vertex $-1 $264 $431 #
ellipse-curve $-1 67.181480759099273 4.6451158332978508 11.19901584041401 0.69465837861970381 0 0.71933979245794832 1.0790096886869225 0 -1.0419875679295556 1 I I #
point $-1 71.262274512921181 4.6451158332978508 13.265466596813528 #
plane-surface $-1 73.958555864131597 0 0 -1 0 0 0 0 1 forward_v I I I I #
coedge $-1 $272 $270 $274 $376 reversed $181 $-1 #
edge $-1 $285 -17.953210426372241 $378 17.953210426372241 $284 $432 forward 7 unknown #
vertex $-1 $376 $433 #
straight-curve $-1 -73.958555864131597 -37.60878448532079 0 0 0 -1 I I #
edge $-1 $374 -37.60878448532079 $378 37.60878448532079 $372 $434 forward 7 unknown #
straight-curve $-1 0 -37.60878448532079 -17.953210426372241 -1 0 0 I I #
vertex $-1 $277 $435 #
straight-curve $-1 0 37.60878448532079 -17.953210426372241 1 0 0 I I #
point $-1 73.958555864131597 37.60878448532079 -17.953210426372241 #
point $-1 73.958555864131597 -37.60878448532079 -17.953210426372241 #
straight-curve $-1 -73.958555864131597 0 17.953210426372241 0 -1 0 I I #
point $-1 -73.958555864131597 37.60878448532079 17.953210426372241 #
point $-1 -73.958555864131597 -37.60878448532079 17.953210426372241 #
straight-curve $-1 73.958555864131597 -37.60878448532079 0 0 0 -1 I I #
straight-curve $-1 73.958555864131597 37.60878448532079 0 0 0 -1 I I #
plane-surface $-1 0 -37.60878448532079 0 0 1 0 0 0 1 forward_v I I I I #
coedge $-1 $436 $297 $309 $399 reversed $200 $-1 #
coedge $-1 $297 $436 $312 $401 reversed $200 $-1 #
edge $-1 $437 -73.958555864131597 $306 -69.386286782187057 $302 $438 forward 7 unknown #
straight-curve $-1 -69.386286782187057 -15.019523235054189 17.953210426372241 0 1 0 I I #
coedge $-1 $309 $300 $303 $395 forward $295 $-1 #
straight-curve $-1 -69.386286782187057 -15.019523235054189 -17.953210426372241 0 -1 0 I I #
coedge $-1 $303 $302 $436 $439 forward $304 $-1 #
edge $-1 $305 69.386286782187057 $440 73.958555864131597 $303 $441 forward 7 unknown #
point $-1 -69.386286782187057 -37.60878448532079 -17.953210426372241 #
point $-1 -69.386286782187057 -37.60878448532079 17.953210426372241 #
straight-curve $-1 -73.958555864131597 -22.469308454895966 0 0 0 -1 I I #
edge $-1 $440 -37.60878448532079 $310 -22.469308454895966 $388 $442 forward 7 unknown #
point $-1 -73.958555864131597 -22.469308454895966 -17.953210426372241 #
edge $-1 $313 22.469308454895966 $437 37.60878448532079 $389 $443 forward 7 unknown #
point $-1 -73.958555864131597 -22.469308454895966 17.953210426372241 #
coedge $-1 $318 $326 $319 $405 forward $216 $-1 #
edge $-1 $407 -21.83942044775284 $327 -9.6993076273830425 $318 $444 forward 7 unknown #
edge $-1 $411 -17.953210426372241 $407 -14.449856713786788 $319 $445 forward 7 unknown #
edge $-1 $324 70.69162575444139 $411 73.958555864131597 $320 $446 forward 7 unknown #
vertex $-1 $404 $447 #
straight-curve $-1 -60.362353751364985 37.60878448532079 29.029998788922832 -0.68199835119979291 0 -0.73135370988377701 I I #
point $-1 -70.69162575444139 37.608784485320783 17.953210426372241 #
point $-1 -73.958555864131597 25.468671664950985 14.449856713786788 #
vertex $-1 $406 $448 #
straight-curve $-1 -73.958555864131597 0 17.953210426372241 0 -1 0 I I #
vertex $-1 $333 $449 #
point $-1 -70.122018695616234 28.937275327913788 15.514463083792901 #
vertex $-1 $337 $450 #
point $-1 -70.122018695616234 34.140180822357983 15.514463083792901 #
edge $-1 $418 91.95490125261118 $421 99.246413775869456 $342 $451 forward 7 unknown #
vertex $-1 $356 $452 #
straight-curve $-1 35.153876207904233 -9.2778497356668144 17.953210426372237 1 0 0 I I #
edge $-1 $421 -8.9898516081348649 $353 8.4138553530709661 $352 $453 forward 7 unknown #
vertex $-1 $420 $454 #
straight-curve $-1 -32.444108587456412 -9.2778497356668144 113.41355890637884 -0.71933979245794832 0 0.69465837861970381 I I #
point $-1 66.407973784336946 -9.2778497356668144 17.953210426372223 #
point $-1 73.958555864131583 8.1258572255390167 10.661697903113961 #
straight-curve $-1 73.958555864131597 0 17.953210426372241 0 1 0 I I #
vertex $-1 $359 $455 #
point $-1 68.260490447786196 -5.7971083434256485 10.157028272484453 #
vertex $-1 $363 $456 #
point $-1 68.260490447786196 -0.57599625506389884 10.157028272484453 #
vertex $-1 $367 $457 #
point $-1 68.260490447786196 4.6451158332978508 10.157028272484453 #
straight-curve $-1 -73.958555864131597 37.60878448532079 0 0 0 -1 I I #
point $-1 -73.958555864131597 -37.60878448532079 -17.953210426372241 #
straight-curve $-1 -73.958555864131597 0 -17.953210426372241 0 1 0 I I #
point $-1 -73.958555864131597 37.60878448532079 -17.953210426372241 #
coedge $-1 $389 $388 $394 $439 reversed $200 $-1 #
vertex $-1 $401 $458 #
straight-curve $-1 0 -37.60878448532079 17.953210426372241 1 0 0 I I #
edge $-1 $437 -17.953210426372241 $440 17.953210426372241 $436 $459 forward 7 unknown #
vertex $-1 $399 $460 #
straight-curve $-1 0 -37.60878448532079 -17.953210426372241 -1 0 0 I I #
straight-curve $-1 -73.958555864131597 0 -17.953210426372241 0 1 0 I I #
straight-curve $-1 -73.958555864131597 0 17.953210426372241 0 -1 0 I I #
straight-curve $-1 -73.958555864131597 15.769364037567943 14.449856713786785 0 -1 0 I I #
straight-curve $-1 -73.958555864131597 37.60878448532079 0 0 0 -1 I I #
straight-curve $-1 0 37.60878448532079 17.953210426372241 -1 0 0 I I #
point $-1 -73.958555864131597 37.608784485320783 14.449856713786788 #
point $-1 -73.958555864131597 37.60878448532079 17.953210426372241 #
point $-1 -70.072663336932237 28.937275327913788 14.101111022709329 #
point $-1 -70.072663336932237 34.140180822357983 14.101111022709329 #
straight-curve $-1 73.958555864131597 -9.2778497356668144 109.90811167898342 0 0 -1 I I #
point $-1 73.958555864131597 -9.2778497356668144 17.953210426372241 #
straight-curve $-1 73.958555864131597 -0.28799812753194942 10.661697903113939 0 1 0 I I #
point $-1 73.958555864131583 -9.2778497356668144 10.661697903113961 #
point $-1 66.139493191169706 -5.7971083434256485 10.120006151727086 #
point $-1 66.139493191169706 -0.57599625506389884 10.120006151727086 #
point $-1 66.139493191169706 4.6451158332978508 10.120006151727086 #
point $-1 -73.958555864131597 -37.60878448532079 17.953210426372241 #
straight-curve $-1 -73.958555864131597 -37.60878448532079 0 0 0 -1 I I #
point $-1 -73.958555864131597 -37.60878448532079 -17.953210426372241 #
End-of-ACIS-data 