500 0 7 0           
7 Unknown 11 ACIS 5.0 NT 24 Fri Mar 26 19:09:55 1999 
-1 9.9999999999999995e-007 1e-010 
body $-1 $7 $-1 $8 #
body $-1 $9 $-1 $10 #
body $-1 $11 $-1 $12 #
body $-1 $13 $-1 $14 #
body $-1 $15 $-1 $16 #
body $-1 $17 $-1 $18 #
body $-1 $19 $-1 $20 #
lump $-1 $-1 $21 $0 #
transform $-1 1 0 0 0 1 0 0 0 1 55.339823603015226 35.794649782007056 13.570440271674578 1 rotate no_reflect no_shear #
lump $-1 $-1 $22 $1 #
transform $-1 1 0 0 0 1 0 0 0 1 55.339823603015226 35.794649782007056 13.570440271674578 1 rotate no_reflect no_shear #
lump $-1 $-1 $23 $2 #
transform $-1 1 0 0 0 1 0 0 0 1 55.339823603015226 35.794649782007056 13.570440271674578 1 rotate no_reflect no_shear #
lump $-1 $-1 $24 $3 #
transform $-1 1 0 0 0 1 0 0 0 1 55.339823603015226 35.794649782007056 13.570440271674578 1 rotate no_reflect no_shear #
lump $-1 $-1 $25 $4 #
transform $-1 1 0 0 0 1 0 0 0 1 55.339823603015226 35.794649782007056 13.570440271674578 1 rotate no_reflect no_shear #
lump $-1 $-1 $26 $5 #
transform $-1 1 0 0 0 1 0 0 0 1 55.339823603015226 35.794649782007056 13.570440271674578 1 rotate no_reflect no_shear #
lump $-1 $-1 $27 $6 #
transform $-1 1 0 0 0 1 0 0 0 1 55.339823603015226 35.794649782007056 13.570440271674578 1 rotate no_reflect no_shear #
shell $-1 $-1 $-1 $28 $-1 $7 #
shell $-1 $-1 $-1 $29 $-1 $9 #
shell $-1 $-1 $-1 $30 $-1 $11 #
shell $-1 $-1 $-1 $31 $-1 $13 #
shell $-1 $-1 $-1 $32 $-1 $15 #
shell $-1 $-1 $-1 $33 $-1 $17 #
shell $-1 $-1 $-1 $34 $-1 $19 #
face $-1 $35 $36 $21 $-1 $37 forward single #
face $-1 $38 $39 $22 $-1 $40 forward single #
face $-1 $41 $42 $23 $-1 $43 forward single #
face $-1 $44 $45 $24 $-1 $46 reversed single #
face $-1 $47 $48 $25 $-1 $49 forward single #
face $-1 $50 $51 $26 $-1 $52 forward single #
face $-1 $53 $54 $27 $-1 $55 forward single #
face $-1 $56 $57 $21 $-1 $58 reversed single #
loop $-1 $-1 $59 $28 #
plane-surface $-1 0 0 13.570440271674578 0 0 1 1 0 0 forward_v I I I I #
face $-1 $60 $61 $22 $-1 $62 reversed single #
loop $-1 $-1 $63 $29 #
plane-surface $-1 0 -29.253106993716013 0.14765752753685124 0 0 1 1 0 0 forward_v I I I I #
face $-1 $64 $65 $23 $-1 $66 reversed single #
loop $-1 $-1 $67 $30 #
plane-surface $-1 0 35.794649782007056 0 0 -1 0 0 0 -1 forward_v I I I I #
face $-1 $68 $69 $24 $-1 $70 reversed single #
loop $-1 $-1 $71 $31 #
plane-surface $-1 66.258433782780827 -10.535665626825548 156.33079898053106 0 1 0 0.75470958851134928 0 0.65605901945558964 forward_v I I I I #
face $-1 $72 $73 $25 $-1 $74 forward single #
loop $-1 $75 $76 $32 #
cone-surface $-1 49.145631052794691 -8.6118480461856954 6.5509042068132874 -0.75470958851134928 0 -0.65605901945558964 0.32802950972779482 0 -0.37735479425567464 1 I I 0 1 0.5 forward I I I I #
face $-1 $77 $78 $26 $-1 $79 forward single #
loop $-1 $80 $81 $33 #
cone-surface $-1 49.145631052794691 -5.7261216752259188 6.5509042068132874 -0.75470958851134928 0 -0.65605901945558964 0.32802950972779482 0 -0.37735479425567464 1 I I 0 1 0.5 forward I I I I #
face $-1 $82 $83 $27 $-1 $84 forward single #
loop $-1 $85 $86 $34 #
cone-surface $-1 49.145631052794691 -2.8403953042661385 6.5509042068132874 -0.75470958851134928 0 -0.65605901945558964 0.32802950972779482 0 -0.37735479425567464 1 I I 0 1 0.5 forward I I I I #
face $-1 $87 $88 $21 $-1 $89 reversed single #
loop $-1 $-1 $90 $35 #
plane-surface $-1 0 0 -13.570440271674578 0 0 1 1 0 0 forward_v I I I I #
coedge $-1 $91 $92 $93 $94 forward $36 $-1 #
face $-1 $95 $96 $22 $-1 $97 reversed single #
loop $-1 $-1 $98 $38 #
plane-surface $-1 0 -29.253106993716013 -7.4741034055890347 0 0 1 1 0 0 forward_v I I I I #
coedge $-1 $99 $100 $101 $102 reversed $39 $-1 #
face $-1 $103 $104 $23 $-1 $105 forward single #
loop $-1 $-1 $106 $41 #
plane-surface $-1 -55.339823603015226 0 0 1 0 0 0 0 -1 forward_v I I I I #
coedge $-1 $107 $108 $109 $110 forward $42 $-1 #
face $-1 $111 $112 $24 $-1 $113 reversed single #
loop $-1 $-1 $114 $44 #
plane-surface $-1 -17.272557216663728 -5.7261216752259188 83.718418160852124 0.75470958851134928 0 0.65605901945558964 0.65605901945558964 0 -0.75470958851134928 forward_v I I I I #
coedge $-1 $115 $116 $117 $118 reversed $45 $-1 #
face $-1 $-1 $119 $25 $-1 $120 forward single #
loop $-1 $121 $122 $47 #
cone-surface $-1 48.579598861411178 -8.6118480461856954 6.058859942221595 -0.75470958851134928 0 -0.65605901945558964 0.16401475486389741 0 -0.18867739712783732 1 I I -0.70710678118654746 0.70710678118654746 0.25 forward I I I I #
loop $-1 $-1 $123 $32 #
coedge $-1 $76 $76 $124 $125 reversed $48 $-1 #
face $-1 $-1 $126 $26 $-1 $127 forward single #
loop $-1 $128 $129 $50 #
cone-surface $-1 48.579598861411178 -5.7261216752259188 6.058859942221595 -0.75470958851134928 0 -0.65605901945558964 0.16401475486389741 0 -0.18867739712783732 1 I I -0.70710678118654746 0.70710678118654746 0.25 forward I I I I #
loop $-1 $-1 $130 $33 #
coedge $-1 $81 $81 $131 $132 reversed $51 $-1 #
face $-1 $-1 $133 $27 $-1 $134 forward single #
loop $-1 $135 $136 $53 #
cone-surface $-1 48.579598861411178 -2.8403953042661385 6.058859942221595 -0.75470958851134928 0 -0.65605901945558964 0.16401475486389741 0 -0.18867739712783732 1 I I -0.70710678118654746 0.70710678118654746 0.25 forward I I I I #
loop $-1 $-1 $137 $34 #
coedge $-1 $86 $86 $138 $139 reversed $54 $-1 #
face $-1 $140 $141 $21 $-1 $142 reversed single #
loop $-1 $-1 $143 $56 #
plane-surface $-1 0 -35.794649782007056 0 0 1 0 0 0 1 forward_v I I I I #
coedge $-1 $144 $145 $146 $147 forward $57 $-1 #
coedge $-1 $148 $59 $149 $150 forward $36 $-1 #
coedge $-1 $59 $148 $151 $152 forward $36 $-1 #
coedge $-1 $153 $154 $59 $94 reversed $155 $-1 #
edge $-1 $156 -35.794649782007056 $157 35.794649782007056 $93 $158 forward 7 unknown #
face $-1 $159 $160 $22 $-1 $161 reversed single #
loop $-1 $-1 $162 $60 #
plane-surface $-1 0 -22.71156420542497 -3.6632229390260918 0 -1 0 0 0 -1 forward_v I I I I #
coedge $-1 $163 $164 $165 $166 reversed $61 $-1 #
coedge $-1 $167 $63 $168 $169 forward $39 $-1 #
coedge $-1 $63 $167 $170 $171 reversed $39 $-1 #
coedge $-1 $172 $173 $63 $102 forward $174 $-1 #
edge $-1 $175 8.0850107085669638 $176 21.168096285149048 $101 $177 forward 7 unknown #
face $-1 $178 $179 $23 $-1 $180 reversed single #
loop $-1 $-1 $181 $64 #
plane-surface $-1 0 41.12325189993868 6.5444862518334812 0 0 1 1 0 0 forward_v I I I I #
coedge $-1 $182 $183 $108 $184 forward $65 $-1 #
coedge $-1 $185 $67 $186 $187 reversed $42 $-1 #
coedge $-1 $67 $185 $106 $184 reversed $42 $-1 #
coedge $-1 $188 $189 $67 $110 reversed $179 $-1 #
edge $-1 $190 -55.339823603015226 $191 55.339823603015226 $109 $192 forward 7 unknown #
face $-1 $193 $194 $24 $-1 $195 forward single #
loop $-1 $-1 $196 $68 #
plane-surface $-1 66.258433782780827 -0.91657772362628975 156.33079898053106 0 -1 0 -0.75470958851134928 0 -0.65605901945558964 forward_v I I I I #
coedge $-1 $197 $198 $199 $200 reversed $69 $-1 #
coedge $-1 $116 $71 $201 $202 reversed $45 $-1 #
coedge $-1 $71 $115 $197 $203 reversed $45 $-1 #
coedge $-1 $199 $204 $71 $118 forward $205 $-1 #
edge $-1 $206 64.594959218590958 $207 77.977972328857973 $117 $208 forward 7 unknown #
loop $-1 $-1 $124 $72 #
plane-surface $-1 -17.272557216663728 -5.7261216752259188 83.718418160852124 0.75470958851134928 0 0.65605901945558964 0.65605901945558964 0 -0.75470958851134928 forward_v I I I I #
loop $-1 $-1 $209 $47 #
coedge $-1 $122 $122 $123 $210 reversed $73 $-1 #
coedge $-1 $123 $123 $122 $210 forward $75 $-1 #
coedge $-1 $124 $124 $76 $125 forward $119 $-1 #
edge $-1 $211 0 $211 6.2831853071796004 $124 $212 forward 7 unknown #
loop $-1 $-1 $131 $77 #
plane-surface $-1 -17.272557216663728 -5.7261216752259188 83.718418160852124 0.75470958851134928 0 0.65605901945558964 0.65605901945558964 0 -0.75470958851134928 forward_v I I I I #
loop $-1 $-1 $213 $50 #
coedge $-1 $129 $129 $130 $214 reversed $78 $-1 #
coedge $-1 $130 $130 $129 $214 forward $80 $-1 #
coedge $-1 $131 $131 $81 $132 forward $126 $-1 #
edge $-1 $215 0 $215 6.2831853071796004 $131 $216 forward 7 unknown #
loop $-1 $-1 $138 $82 #
plane-surface $-1 -17.272557216663728 -5.7261216752259188 83.718418160852124 0.75470958851134928 0 0.65605901945558964 0.65605901945558964 0 -0.75470958851134928 forward_v I I I I #
loop $-1 $-1 $217 $53 #
coedge $-1 $136 $136 $137 $218 reversed $83 $-1 #
coedge $-1 $137 $137 $136 $218 forward $85 $-1 #
coedge $-1 $138 $138 $86 $139 forward $133 $-1 #
edge $-1 $219 0 $219 6.2831853071796004 $138 $220 forward 7 unknown #
face $-1 $221 $222 $21 $-1 $223 reversed single #
loop $-1 $-1 $224 $87 #
plane-surface $-1 -55.339823603015226 0 0 1 0 0 0 0 -1 forward_v I I I I #
coedge $-1 $225 $151 $226 $227 forward $88 $-1 #
coedge $-1 $228 $90 $225 $229 forward $57 $-1 #
coedge $-1 $90 $228 $230 $231 forward $57 $-1 #
coedge $-1 $154 $153 $90 $147 reversed $155 $-1 #
edge $-1 $232 -35.794649782007056 $233 35.794649782007056 $146 $234 forward 7 unknown #
coedge $-1 $92 $91 $235 $236 forward $36 $-1 #
coedge $-1 $237 $238 $91 $150 reversed $222 $-1 #
edge $-1 $157 -55.339823603015226 $239 55.339823603015226 $149 $240 forward 7 unknown #
coedge $-1 $143 $241 $92 $152 reversed $88 $-1 #
edge $-1 $242 -55.339823603015226 $156 55.339823603015226 $151 $243 forward 7 unknown #
coedge $-1 $146 $93 $241 $244 forward $155 $-1 #
coedge $-1 $93 $146 $237 $245 reversed $155 $-1 #
loop $-1 $-1 $153 $221 #
vertex $-1 $94 $246 #
vertex $-1 $94 $247 #
straight-curve $-1 55.339823603015226 0 13.570440271674578 0 1 0 I I #
face $-1 $248 $249 $22 $-1 $250 reversed single #
loop $-1 $-1 $251 $95 #
plane-surface $-1 -55.339823603015226 0 0 1 0 0 0 0 -1 forward_v I I I I #
coedge $-1 $252 $168 $173 $253 reversed $96 $-1 #
coedge $-1 $254 $98 $255 $256 reversed $61 $-1 #
coedge $-1 $98 $254 $252 $257 forward $61 $-1 #
coedge $-1 $173 $172 $98 $166 forward $174 $-1 #
edge $-1 $258 -21.168096285149048 $259 -8.0850107085669638 $165 $260 forward 7 unknown #
coedge $-1 $100 $99 $251 $261 reversed $39 $-1 #
coedge $-1 $162 $262 $99 $169 reversed $96 $-1 #
edge $-1 $175 -55.339823603015226 $263 55.339823603015226 $168 $264 forward 7 unknown #
coedge $-1 $265 $266 $100 $171 forward $249 $-1 #
edge $-1 $176 -55.339823603015226 $267 55.339823603015226 $170 $268 forward 7 unknown #
coedge $-1 $165 $101 $266 $269 forward $174 $-1 #
coedge $-1 $101 $165 $162 $253 forward $174 $-1 #
loop $-1 $-1 $101 $248 #
vertex $-1 $102 $270 #
vertex $-1 $269 $271 #
straight-curve $-1 55.339823603015226 -14.626553496858007 0.14765752753685124 0 -1 0 I I #
face $-1 $272 $273 $23 $-1 $274 reversed single #
loop $-1 $-1 $189 $103 #
plane-surface $-1 0 41.12325189993868 3.0498090125242872 0 0 1 1 0 0 forward_v I I I I #
coedge $-1 $275 $276 $277 $278 forward $104 $-1 #
coedge $-1 $279 $106 $280 $281 reversed $65 $-1 #
coedge $-1 $106 $279 $188 $282 reversed $65 $-1 #
edge $-1 $190 3.0498090125242872 $283 6.5444862518334812 $106 $284 forward 7 unknown #
coedge $-1 $108 $107 $276 $285 forward $42 $-1 #
coedge $-1 $286 $277 $107 $187 forward $287 $-1 #
edge $-1 $288 -6.5444862518334812 $191 -3.0498090125242872 $186 $289 forward 7 unknown #
coedge $-1 $290 $109 $183 $282 forward $179 $-1 #
coedge $-1 $109 $290 $286 $291 forward $179 $-1 #
vertex $-1 $184 $292 #
vertex $-1 $187 $293 #
straight-curve $-1 0 35.794649782007056 3.0498090125242872 1 0 0 I I #
face $-1 $-1 $205 $24 $-1 $294 reversed single #
loop $-1 $-1 $295 $111 #
plane-surface $-1 0 0 13.570440271674578 0 0 1 1 0 0 forward_v I I I I #
coedge $-1 $296 $297 $298 $299 reversed $112 $-1 #
coedge $-1 $300 $114 $116 $203 forward $69 $-1 #
coedge $-1 $114 $300 $296 $301 forward $69 $-1 #
coedge $-1 $298 $117 $114 $200 forward $205 $-1 #
edge $-1 $207 -7.6726047892125884 $302 1.9464831139866696 $199 $303 forward 7 unknown #
coedge $-1 $304 $305 $115 $202 forward $194 $-1 #
edge $-1 $306 10.576931199695039 $206 22.210606711624813 $201 $307 forward 7 unknown #
edge $-1 $207 -110.67964720603049 $306 -92.946981139517746 $116 $308 forward 7 unknown #
coedge $-1 $117 $298 $304 $309 reversed $205 $-1 #
loop $-1 $-1 $298 $193 #
vertex $-1 $309 $310 #
vertex $-1 $118 $311 #
straight-curve $-1 55.339823603015226 -10.535665626825548 78.165399490265528 0 0 -1 I I #
coedge $-1 $209 $209 $-1 $312 reversed $121 $-1 #
edge $-1 $313 0 $313 6.2831853071796004 $122 $314 forward 7 unknown #
vertex $-1 $125 $315 #
ellipse-curve $-1 49.522985847050329 -8.6118480461856954 6.8789337165410496 0.75470958851134928 0 0.65605901945558964 0.32802950972779482 0 -0.37735479425567464 1 I I #
coedge $-1 $213 $213 $-1 $316 reversed $128 $-1 #
edge $-1 $317 0 $317 6.2831853071796004 $129 $318 forward 7 unknown #
vertex $-1 $132 $319 #
ellipse-curve $-1 49.522985847050329 -5.7261216752259188 6.8789337165410496 0.75470958851134928 0 0.65605901945558964 0.32802950972779482 0 -0.37735479425567464 1 I I #
coedge $-1 $217 $217 $-1 $320 reversed $135 $-1 #
edge $-1 $321 0 $321 6.2831853071796004 $136 $322 forward 7 unknown #
vertex $-1 $139 $323 #
ellipse-curve $-1 49.522985847050329 -2.8403953042661385 6.8789337165410496 0.75470958851134928 0 0.65605901945558964 0.32802950972779482 0 -0.37735479425567464 1 I I #
face $-1 $-1 $155 $21 $-1 $324 reversed single #
loop $-1 $-1 $238 $140 #
plane-surface $-1 0 35.794649782007056 0 0 -1 0 0 0 -1 forward_v I I I I #
coedge $-1 $325 $235 $238 $326 forward $141 $-1 #
coedge $-1 $241 $143 $144 $229 reversed $88 $-1 #
coedge $-1 $235 $325 $143 $227 reversed $141 $-1 #
edge $-1 $242 -13.570440271674578 $327 13.570440271674578 $226 $328 forward 7 unknown #
coedge $-1 $145 $144 $325 $329 forward $57 $-1 #
edge $-1 $233 -55.339823603015226 $327 55.339823603015226 $225 $330 forward 7 unknown #
coedge $-1 $238 $237 $145 $231 reversed $222 $-1 #
edge $-1 $331 -55.339823603015226 $232 55.339823603015226 $230 $332 forward 7 unknown #
vertex $-1 $147 $333 #
vertex $-1 $244 $334 #
straight-curve $-1 55.339823603015226 0 -13.570440271674578 0 -1 0 I I #
coedge $-1 $224 $226 $148 $236 reversed $141 $-1 #
edge $-1 $239 -35.794649782007056 $242 35.794649782007056 $235 $335 forward 7 unknown #
coedge $-1 $230 $149 $154 $245 forward $222 $-1 #
coedge $-1 $149 $230 $224 $326 reversed $222 $-1 #
vertex $-1 $150 $336 #
straight-curve $-1 0 35.794649782007056 13.570440271674578 -1 0 0 I I #
coedge $-1 $151 $225 $153 $244 reversed $88 $-1 #
vertex $-1 $236 $337 #
straight-curve $-1 0 -35.794649782007056 13.570440271674578 1 0 0 I I #
edge $-1 $156 -13.570440271674578 $233 13.570440271674578 $153 $338 forward 7 unknown #
edge $-1 $157 -13.570440271674578 $232 13.570440271674578 $154 $339 forward 7 unknown #
point $-1 55.339823603015226 -35.794649782007056 13.570440271674578 #
point $-1 55.339823603015226 35.794649782007056 13.570440271674578 #
face $-1 $-1 $174 $22 $-1 $340 reversed single #
loop $-1 $-1 $170 $159 #
plane-surface $-1 0 -35.794649782007056 0 0 1 0 0 0 1 forward_v I I I I #
coedge $-1 $341 $342 $167 $261 forward $160 $-1 #
coedge $-1 $262 $162 $164 $257 reversed $96 $-1 #
edge $-1 $259 -5.6424919360759889 $175 1.9792689970498971 $173 $343 forward 7 unknown #
coedge $-1 $164 $163 $344 $345 reversed $61 $-1 #
coedge $-1 $266 $265 $163 $256 forward $249 $-1 #
edge $-1 $346 -55.339823603015226 $258 55.339823603015226 $255 $347 forward 7 unknown #
edge $-1 $348 -55.339823603015226 $259 55.339823603015226 $252 $349 forward 7 unknown #
vertex $-1 $256 $350 #
vertex $-1 $166 $351 #
straight-curve $-1 55.339823603015226 -14.626553496858007 -7.4741034055890347 0 1 0 I I #
edge $-1 $267 -21.168096285149048 $263 -8.0850107085669638 $251 $352 forward 7 unknown #
coedge $-1 $168 $252 $341 $353 reversed $96 $-1 #
vertex $-1 $261 $354 #
straight-curve $-1 0 -22.71156420542497 0.14765752753685124 -1 0 0 I I #
coedge $-1 $255 $170 $342 $355 forward $249 $-1 #
coedge $-1 $170 $255 $172 $269 reversed $249 $-1 #
vertex $-1 $355 $356 #
straight-curve $-1 0 -35.794649782007056 0.14765752753685124 -1 0 0 I I #
edge $-1 $176 -0.14765752753685124 $258 7.4741034055890347 $172 $357 forward 7 unknown #
point $-1 55.339823603015226 -22.71156420542497 0.14765752753685124 #
point $-1 55.339823603015226 -35.794649782007056 0.14765752753685124 #
face $-1 $-1 $287 $23 $-1 $358 reversed single #
loop $-1 $-1 $359 $178 #
plane-surface $-1 0 46.451854017870303 4.7971476321788842 0 -1 0 0 0 -1 forward_v I I I I #
coedge $-1 $280 $181 $360 $361 forward $104 $-1 #
coedge $-1 $181 $280 $185 $285 reversed $104 $-1 #
coedge $-1 $186 $362 $181 $278 reversed $287 $-1 #
edge $-1 $288 -5.3286021179316236 $363 5.3286021179316236 $277 $364 forward 7 unknown #
coedge $-1 $183 $182 $365 $366 forward $65 $-1 #
coedge $-1 $276 $275 $182 $281 forward $104 $-1 #
edge $-1 $367 -5.3286021179316236 $283 5.3286021179316236 $182 $368 forward 7 unknown #
edge $-1 $190 -5.3286021179316236 $369 5.3286021179316236 $183 $370 forward 7 unknown #
vertex $-1 $281 $371 #
straight-curve $-1 -55.339823603015226 35.794649782007056 0 0 0 1 I I #
edge $-1 $288 -55.339823603015226 $283 55.339823603015226 $276 $372 forward 7 unknown #
coedge $-1 $362 $186 $189 $291 reversed $287 $-1 #
loop $-1 $-1 $186 $272 #
vertex $-1 $187 $373 #
straight-curve $-1 55.339823603015226 35.794649782007056 0 0 0 -1 I I #
coedge $-1 $189 $188 $374 $375 forward $179 $-1 #
edge $-1 $376 -5.3286021179316236 $191 5.3286021179316236 $286 $377 forward 7 unknown #
point $-1 -55.339823603015226 35.794649782007056 3.0498090125242872 #
point $-1 55.339823603015226 35.794649782007056 3.0498090125242872 #
plane-surface $-1 55.339823603015226 0 0 -1 0 0 0 0 1 forward_v I I I I #
coedge $-1 $305 $304 $297 $378 forward $194 $-1 #
coedge $-1 $297 $196 $198 $301 reversed $112 $-1 #
coedge $-1 $196 $296 $295 $378 reversed $112 $-1 #
coedge $-1 $204 $199 $196 $299 forward $205 $-1 #
edge $-1 $302 -77.977972328857973 $379 -64.594959218590958 $298 $380 forward 7 unknown #
coedge $-1 $198 $197 $305 $381 reversed $69 $-1 #
edge $-1 $382 92.946981139517746 $302 110.67964720603049 $296 $383 forward 7 unknown #
vertex $-1 $200 $384 #
straight-curve $-1 55.339823603015233 -2.8630608376129594 0.18742716140754823 0 1 0 I I #
coedge $-1 $295 $201 $204 $309 forward $194 $-1 #
coedge $-1 $201 $295 $300 $381 forward $194 $-1 #
vertex $-1 $202 $385 #
straight-curve $-1 33.129216891390413 -10.535665626825548 13.570440271674585 1 0 0 I I #
straight-curve $-1 -17.272557216663728 -10.535665626825548 83.718418160852124 -0.65605901945558964 0 0.75470958851134928 I I #
edge $-1 $206 -10.535665626825548 $379 -0.91657772362628975 $204 $386 forward 7 unknown #
point $-1 55.339823603015226 -10.535665626825548 13.570440271674578 #
point $-1 55.339823603015219 -10.535665626825548 0.18742716140755533 #
edge $-1 $387 1 $387 0 $209 $-1 forward 7 unknown #
vertex $-1 $210 $388 #
ellipse-curve $-1 48.768276258539018 -8.6118480461856954 6.2228746970854925 0.75470958851134928 0 0.65605901945558964 0.32802950972779482 0 -0.37735479425567464 1 I I #
point $-1 49.851015356778156 -8.6118480461856954 6.5015789222854075 #
edge $-1 $389 1 $389 0 $213 $-1 forward 7 unknown #
vertex $-1 $214 $390 #
ellipse-curve $-1 48.768276258539018 -5.7261216752259188 6.2228746970854925 0.75470958851134928 0 0.65605901945558964 0.32802950972779482 0 -0.37735479425567464 1 I I #
point $-1 49.851015356778156 -5.7261216752259188 6.5015789222854075 #
edge $-1 $391 1 $391 0 $217 $-1 forward 7 unknown #
vertex $-1 $218 $392 #
ellipse-curve $-1 48.768276258539018 -2.8403953042661385 6.2228746970854925 0.75470958851134928 0 0.65605901945558964 0.32802950972779482 0 -0.37735479425567464 1 I I #
point $-1 49.851015356778156 -2.8403953042661385 6.5015789222854075 #
plane-surface $-1 55.339823603015226 0 0 -1 0 0 0 0 1 forward_v I I I I #
coedge $-1 $226 $224 $228 $329 reversed $141 $-1 #
edge $-1 $239 -13.570440271674578 $331 13.570440271674578 $238 $393 forward 7 unknown #
vertex $-1 $329 $394 #
straight-curve $-1 -55.339823603015226 -35.794649782007056 0 0 0 -1 I I #
edge $-1 $327 -35.794649782007056 $331 35.794649782007056 $325 $395 forward 7 unknown #
straight-curve $-1 0 -35.794649782007056 -13.570440271674578 -1 0 0 I I #
vertex $-1 $231 $396 #
straight-curve $-1 0 35.794649782007056 -13.570440271674578 1 0 0 I I #
point $-1 55.339823603015226 35.794649782007056 -13.570440271674578 #
point $-1 55.339823603015226 -35.794649782007056 -13.570440271674578 #
straight-curve $-1 -55.339823603015226 0 13.570440271674578 0 -1 0 I I #
point $-1 -55.339823603015226 35.794649782007056 13.570440271674578 #
point $-1 -55.339823603015226 -35.794649782007056 13.570440271674578 #
straight-curve $-1 55.339823603015226 -35.794649782007056 0 0 0 -1 I I #
straight-curve $-1 55.339823603015226 35.794649782007056 0 0 0 -1 I I #
plane-surface $-1 55.339823603015226 0 0 -1 0 0 0 0 1 forward_v I I I I #
coedge $-1 $344 $251 $262 $353 forward $160 $-1 #
coedge $-1 $251 $344 $265 $355 reversed $160 $-1 #
straight-curve $-1 55.339823603015226 -22.71156420542497 -1.8316114695130459 0 0 1 I I #
coedge $-1 $342 $341 $254 $345 forward $160 $-1 #
edge $-1 $348 8.0850107085669638 $346 21.168096285149048 $344 $397 forward 7 unknown #
vertex $-1 $256 $398 #
straight-curve $-1 0 -35.794649782007056 -7.4741034055890347 1 0 0 I I #
vertex $-1 $345 $399 #
straight-curve $-1 0 -22.71156420542497 -7.4741034055890347 1 0 0 I I #
point $-1 55.339823603015226 -35.794649782007056 -7.4741034055890347 #
point $-1 55.339823603015226 -22.71156420542497 -7.4741034055890347 #
straight-curve $-1 -55.339823603015226 -14.626553496858007 0.14765752753685124 0 1 0 I I #
edge $-1 $263 -1.9792689970498971 $348 5.6424919360759889 $341 $400 forward 7 unknown #
point $-1 -55.339823603015226 -22.71156420542497 0.14765752753685124 #
edge $-1 $267 -0.14765752753685124 $346 7.4741034055890347 $342 $401 forward 7 unknown #
point $-1 -55.339823603015226 -35.794649782007056 0.14765752753685124 #
straight-curve $-1 55.339823603015226 -35.794649782007056 0 0 0 -1 I I #
plane-surface $-1 55.339823603015226 0 0 -1 0 0 0 0 1 forward_v I I I I #
coedge $-1 $374 $360 $362 $402 forward $273 $-1 #
coedge $-1 $359 $365 $275 $361 reversed $273 $-1 #
edge $-1 $363 -55.339823603015226 $367 55.339823603015226 $360 $403 forward 7 unknown #
coedge $-1 $277 $286 $359 $402 reversed $287 $-1 #
vertex $-1 $278 $404 #
straight-curve $-1 55.339823603015226 41.12325189993868 6.5444862518334812 0 1 0 I I #
coedge $-1 $360 $374 $279 $366 reversed $273 $-1 #
edge $-1 $367 -1.747338619654597 $369 1.747338619654597 $365 $405 forward 7 unknown #
vertex $-1 $361 $406 #
straight-curve $-1 -55.339823603015226 41.12325189993868 6.5444862518334812 0 -1 0 I I #
vertex $-1 $375 $407 #
straight-curve $-1 -55.339823603015226 41.12325189993868 3.0498090125242872 0 1 0 I I #
point $-1 -55.339823603015226 35.794649782007056 6.5444862518334812 #
straight-curve $-1 0 35.794649782007056 6.5444862518334812 -1 0 0 I I #
point $-1 55.339823603015226 35.794649782007056 6.5444862518334812 #
coedge $-1 $365 $359 $290 $375 reversed $273 $-1 #
edge $-1 $369 -55.339823603015226 $376 55.339823603015226 $374 $408 forward 7 unknown #
vertex $-1 $291 $409 #
straight-curve $-1 55.339823603015226 41.12325189993868 3.0498090125242872 0 -1 0 I I #
edge $-1 $379 -22.210606711624813 $382 -10.576931199695039 $295 $410 forward 7 unknown #
vertex $-1 $299 $411 #
straight-curve $-1 55.339823603015226 -0.91657772362628975 78.165399490265528 0 0 1 I I #
edge $-1 $382 -1.9464831139866696 $306 7.6726047892125884 $305 $412 forward 7 unknown #
vertex $-1 $381 $413 #
straight-curve $-1 -17.272557216663728 -0.91657772362628975 83.718418160852124 0.65605901945558964 0 -0.75470958851134928 I I #
point $-1 55.339823603015219 -0.91657772362628975 0.18742716140755533 #
point $-1 43.706148091085453 -10.535665626825548 13.57044027167457 #
straight-curve $-1 55.339823603015226 0 13.570440271674578 0 1 0 I I #
vertex $-1 $312 $414 #
point $-1 49.096305768266809 -8.6118480461856954 5.8455199028298175 #
vertex $-1 $316 $415 #
point $-1 49.096305768266809 -5.7261216752259188 5.8455199028298175 #
vertex $-1 $320 $416 #
point $-1 49.096305768266809 -2.8403953042661385 5.8455199028298175 #
straight-curve $-1 -55.339823603015226 35.794649782007056 0 0 0 -1 I I #
point $-1 -55.339823603015226 -35.794649782007056 -13.570440271674578 #
straight-curve $-1 -55.339823603015226 0 -13.570440271674578 0 1 0 I I #
point $-1 -55.339823603015226 35.794649782007056 -13.570440271674578 #
straight-curve $-1 -55.339823603015226 -14.626553496858007 -7.4741034055890347 0 -1 0 I I #
point $-1 -55.339823603015226 -35.794649782007056 -7.4741034055890347 #
point $-1 -55.339823603015226 -22.71156420542497 -7.4741034055890347 #
straight-curve $-1 -55.339823603015226 -22.71156420542497 -1.8316114695130459 0 0 -1 I I #
straight-curve $-1 -55.339823603015226 -35.794649782007056 0 0 0 -1 I I #
edge $-1 $363 -1.747338619654597 $376 1.747338619654597 $362 $417 forward 7 unknown #
straight-curve $-1 0 46.451854017870303 6.5444862518334812 -1 0 0 I I #
point $-1 55.339823603015226 46.451854017870303 6.5444862518334812 #
straight-curve $-1 -55.339823603015226 46.451854017870303 4.7971476321788842 0 0 -1 I I #
point $-1 -55.339823603015226 46.451854017870303 6.5444862518334812 #
point $-1 -55.339823603015226 46.451854017870303 3.0498090125242872 #
straight-curve $-1 0 46.451854017870303 3.0498090125242872 1 0 0 I I #
point $-1 55.339823603015226 46.451854017870303 3.0498090125242872 #
straight-curve $-1 33.129216891390413 -0.91657772362628975 13.570440271674585 -1 0 0 I I #
point $-1 55.339823603015226 -0.91657772362628975 13.570440271674578 #
straight-curve $-1 43.706148091085453 -2.8630608376129594 13.570440271674578 0 -1 0 I I #
point $-1 43.706148091085453 -0.91657772362628975 13.57044027167457 #
point $-1 48.390921464283338 -8.6118480461856954 5.8948451873576975 #
point $-1 48.390921464283338 -5.7261216752259188 5.8948451873576975 #
point $-1 48.390921464283338 -2.8403953042661385 5.8948451873576975 #
straight-curve $-1 55.339823603015226 46.451854017870303 4.7971476321788842 0 0 -1 I I #
End-of-ACIS-data 