500 0 6 0           
7 Unknown 11 ACIS 5.0 NT 24 Fri Mar 26 14:38:01 1999 
-1 9.9999999999999995e-007 1e-010 
body $-1 $6 $-1 $7 #
body $-1 $8 $-1 $9 #
body $-1 $10 $-1 $11 #
body $-1 $12 $-1 $13 #
body $-1 $14 $-1 $15 #
body $-1 $16 $-1 $17 #
lump $-1 $-1 $18 $0 #
transform $-1 1 0 0 0 1 0 0 0 1 72.566911832026122 46.239785928624521 18.004121854706572 1 rotate no_reflect no_shear #
lump $-1 $-1 $19 $1 #
transform $-1 1 0 0 0 1 0 0 0 1 72.566911832026122 46.239785928624521 18.004121854706572 1 rotate no_reflect no_shear #
lump $-1 $-1 $20 $2 #
transform $-1 1 0 0 0 1 0 0 0 1 72.566911832026122 46.239785928624521 18.004121854706572 1 rotate no_reflect no_shear #
lump $-1 $-1 $21 $3 #
transform $-1 1 0 0 0 1 0 0 0 1 72.566911832026122 46.239785928624521 18.004121854706572 1 rotate no_reflect no_shear #
lump $-1 $-1 $22 $4 #
transform $-1 1 0 0 0 1 0 0 0 1 72.566911832026122 46.239785928624521 18.004121854706572 1 rotate no_reflect no_shear #
lump $-1 $-1 $23 $5 #
transform $-1 1 0 0 0 1 0 0 0 1 72.566911832026122 46.239785928624521 18.004121854706572 1 rotate no_reflect no_shear #
shell $-1 $-1 $-1 $24 $-1 $6 #
shell $-1 $-1 $-1 $25 $-1 $8 #
shell $-1 $-1 $-1 $26 $-1 $10 #
shell $-1 $-1 $-1 $27 $-1 $12 #
shell $-1 $-1 $-1 $28 $-1 $14 #
shell $-1 $-1 $-1 $29 $-1 $16 #
face $-1 $30 $31 $18 $-1 $32 forward single #
face $-1 $33 $34 $19 $-1 $35 forward single #
face $-1 $36 $37 $20 $-1 $38 reversed single #
face $-1 $39 $40 $21 $-1 $41 forward single #
face $-1 $42 $43 $22 $-1 $44 forward single #
face $-1 $45 $46 $23 $-1 $47 forward single #
face $-1 $48 $49 $18 $-1 $50 reversed single #
loop $-1 $-1 $51 $24 #
plane-surface $-1 0 0 18.004121854706572 0 0 1 1 0 0 forward_v I I I I #
face $-1 $52 $53 $19 $-1 $54 reversed single #
loop $-1 $-1 $55 $25 #
plane-surface $-1 -72.566911832026122 0 0 1 0 0 0 0 -1 forward_v I I I I #
face $-1 $56 $57 $20 $-1 $58 reversed single #
loop $-1 $-1 $59 $26 #
plane-surface $-1 48.262182680588317 -160.6068008859543 99.217916163546306 -1 0 0 0 -0.78801076186113728 0.61566146476048833 forward_v I I I I #
face $-1 $60 $61 $21 $-1 $62 forward single #
loop $-1 $63 $64 $27 #
cone-surface $-1 37.310591881705534 -42.66614027160815 13.62653704509578 0 0.78801076186113728 -0.61566146476048833 0.5 0 0 1 I I 0 1 0.5 forward I I I I #
face $-1 $65 $66 $22 $-1 $67 forward single #
loop $-1 $68 $69 $28 #
cone-surface $-1 41.41743843128657 -42.66614027160815 13.62653704509578 0 0.78801076186113728 -0.61566146476048833 0.5 0 0 1 I I 0 1 0.5 forward I I I I #
face $-1 $70 $71 $23 $-1 $72 forward single #
loop $-1 $73 $74 $29 #
cone-surface $-1 45.524284980867606 -42.66614027160815 13.62653704509578 0 0.78801076186113728 -0.61566146476048833 0.5 0 0 1 I I 0 1 0.5 forward I I I I #
face $-1 $75 $76 $18 $-1 $77 reversed single #
loop $-1 $-1 $78 $30 #
plane-surface $-1 0 0 -18.004121854706572 0 0 1 1 0 0 forward_v I I I I #
coedge $-1 $79 $80 $81 $82 forward $31 $-1 #
face $-1 $83 $84 $19 $-1 $85 forward single #
loop $-1 $-1 $86 $33 #
plane-surface $-1 0 46.239785928624521 0 0 -1 0 0 0 -1 forward_v I I I I #
coedge $-1 $87 $88 $89 $90 forward $34 $-1 #
face $-1 $91 $92 $20 $-1 $93 reversed single #
loop $-1 $-1 $94 $36 #
plane-surface $-1 41.417438431286584 -46.239785928624556 9.8646137002454992 0 -0.78801076186113728 0.61566146476048833 1 0 0 forward_v I I I I #
coedge $-1 $95 $96 $97 $98 reversed $37 $-1 #
face $-1 $-1 $99 $21 $-1 $100 forward single #
loop $-1 $101 $102 $39 #
cone-surface $-1 37.310591881705534 -42.075132200212295 13.164790946525414 0 0.78801076186113728 -0.61566146476048833 0.25 0 0 1 I I -0.70710678118654746 0.70710678118654746 0.25 forward I I I I #
loop $-1 $-1 $103 $27 #
coedge $-1 $64 $64 $104 $105 reversed $40 $-1 #
face $-1 $-1 $106 $22 $-1 $107 forward single #
loop $-1 $108 $109 $42 #
cone-surface $-1 41.41743843128657 -42.075132200212295 13.164790946525414 0 0.78801076186113728 -0.61566146476048833 0.25 0 0 1 I I -0.70710678118654746 0.70710678118654746 0.25 forward I I I I #
loop $-1 $-1 $110 $28 #
coedge $-1 $69 $69 $111 $112 reversed $43 $-1 #
face $-1 $-1 $113 $23 $-1 $114 forward single #
loop $-1 $115 $116 $45 #
cone-surface $-1 45.524284980867606 -42.075132200212295 13.164790946525414 0 0.78801076186113728 -0.61566146476048833 0.25 0 0 1 I I -0.70710678118654746 0.70710678118654746 0.25 forward I I I I #
loop $-1 $-1 $117 $29 #
coedge $-1 $74 $74 $118 $119 reversed $46 $-1 #
face $-1 $120 $121 $18 $-1 $122 reversed single #
loop $-1 $-1 $123 $48 #
plane-surface $-1 0 -46.239785928624521 0 0 1 0 0 0 1 forward_v I I I I #
coedge $-1 $124 $125 $126 $127 forward $49 $-1 #
coedge $-1 $128 $51 $129 $130 forward $31 $-1 #
coedge $-1 $51 $128 $131 $132 forward $31 $-1 #
coedge $-1 $133 $134 $51 $82 reversed $135 $-1 #
edge $-1 $136 -46.239785928624521 $137 46.239785928624521 $81 $138 forward 7 unknown #
face $-1 $139 $140 $19 $-1 $141 reversed single #
loop $-1 $-1 $89 $52 #
plane-surface $-1 -79.956486528581038 0 -8.0627608293699247 0 0 1 1 0 0 forward_v I I I I #
coedge $-1 $142 $143 $88 $144 forward $53 $-1 #
coedge $-1 $145 $55 $146 $147 reversed $34 $-1 #
coedge $-1 $55 $145 $86 $144 reversed $34 $-1 #
coedge $-1 $148 $149 $55 $90 reversed $84 $-1 #
edge $-1 $150 -46.239785928624521 $151 46.239785928624521 $89 $152 forward 7 unknown #
face $-1 $153 $154 $20 $-1 $155 reversed single #
loop $-1 $-1 $156 $56 #
plane-surface $-1 34.572694181984851 -160.6068008859543 99.217916163546306 1 0 0 0 0.78801076186113728 -0.61566146476048833 forward_v I I I I #
coedge $-1 $157 $158 $159 $160 reversed $57 $-1 #
coedge $-1 $96 $59 $161 $162 reversed $37 $-1 #
coedge $-1 $59 $95 $157 $163 reversed $37 $-1 #
coedge $-1 $159 $164 $59 $98 forward $165 $-1 #
edge $-1 $166 34.063614514352629 $167 40.422895066524177 $97 $168 forward 7 unknown #
loop $-1 $-1 $104 $60 #
plane-surface $-1 41.417438431286584 -46.239785928624556 9.8646137002454992 0 -0.78801076186113728 0.61566146476048833 1 0 0 forward_v I I I I #
loop $-1 $-1 $169 $39 #
coedge $-1 $102 $102 $103 $170 reversed $61 $-1 #
coedge $-1 $103 $103 $102 $170 forward $63 $-1 #
coedge $-1 $104 $104 $64 $105 forward $99 $-1 #
edge $-1 $171 1.7517289567077943e-015 $171 6.2831853071796022 $104 $172 forward 7 unknown #
loop $-1 $-1 $111 $65 #
plane-surface $-1 41.417438431286584 -46.239785928624556 9.8646137002454992 0 -0.78801076186113728 0.61566146476048833 1 0 0 forward_v I I I I #
loop $-1 $-1 $173 $42 #
coedge $-1 $109 $109 $110 $174 reversed $66 $-1 #
coedge $-1 $110 $110 $109 $174 forward $68 $-1 #
coedge $-1 $111 $111 $69 $112 forward $106 $-1 #
edge $-1 $175 1.7517289567077943e-015 $175 6.2831853071796022 $111 $176 forward 7 unknown #
loop $-1 $-1 $118 $70 #
plane-surface $-1 41.417438431286584 -46.239785928624556 9.8646137002454992 0 -0.78801076186113728 0.61566146476048833 1 0 0 forward_v I I I I #
loop $-1 $-1 $177 $45 #
coedge $-1 $116 $116 $117 $178 reversed $71 $-1 #
coedge $-1 $117 $117 $116 $178 forward $73 $-1 #
coedge $-1 $118 $118 $74 $119 forward $113 $-1 #
edge $-1 $179 1.7517289567077943e-015 $179 6.2831853071796022 $118 $180 forward 7 unknown #
face $-1 $181 $182 $18 $-1 $183 reversed single #
loop $-1 $-1 $184 $75 #
plane-surface $-1 -72.566911832026122 0 0 1 0 0 0 0 -1 forward_v I I I I #
coedge $-1 $185 $131 $184 $186 forward $76 $-1 #
coedge $-1 $187 $78 $185 $188 forward $49 $-1 #
coedge $-1 $78 $187 $189 $190 forward $49 $-1 #
coedge $-1 $134 $133 $78 $127 reversed $135 $-1 #
edge $-1 $191 -46.239785928624521 $192 46.239785928624521 $126 $193 forward 7 unknown #
coedge $-1 $80 $79 $194 $195 forward $31 $-1 #
coedge $-1 $196 $197 $79 $130 reversed $182 $-1 #
edge $-1 $137 -72.566911832026122 $198 72.566911832026122 $129 $199 forward 7 unknown #
coedge $-1 $123 $200 $80 $132 reversed $76 $-1 #
edge $-1 $201 -72.566911832026122 $136 72.566911832026122 $131 $202 forward 7 unknown #
coedge $-1 $126 $81 $200 $203 forward $135 $-1 #
coedge $-1 $81 $126 $196 $204 reversed $135 $-1 #
loop $-1 $-1 $133 $181 #
vertex $-1 $82 $205 #
vertex $-1 $82 $206 #
straight-curve $-1 72.566911832026122 0 18.004121854706572 0 1 0 I I #
face $-1 $207 $208 $19 $-1 $209 reversed single #
loop $-1 $-1 $210 $83 #
plane-surface $-1 -87.346061225135955 0 -13.033441342038248 1 0 0 0 0 -1 forward_v I I I I #
coedge $-1 $211 $86 $212 $213 reversed $53 $-1 #
coedge $-1 $86 $211 $148 $214 reversed $53 $-1 #
edge $-1 $150 8.0627608293699247 $215 18.004121854706572 $86 $216 forward 7 unknown #
coedge $-1 $88 $87 $217 $218 reversed $34 $-1 #
coedge $-1 $219 $220 $87 $147 forward $221 $-1 #
edge $-1 $222 -18.004121854706572 $151 -8.0627608293699247 $146 $223 forward 7 unknown #
coedge $-1 $224 $89 $143 $214 forward $84 $-1 #
coedge $-1 $89 $224 $219 $225 forward $84 $-1 #
vertex $-1 $144 $226 #
vertex $-1 $225 $227 #
straight-curve $-1 -72.566911832026122 0 -8.0627608293699247 0 -1 0 I I #
face $-1 $-1 $165 $20 $-1 $228 forward single #
loop $-1 $-1 $229 $91 #
plane-surface $-1 0 -46.239785928624521 0 0 1 0 0 0 1 forward_v I I I I #
coedge $-1 $230 $231 $232 $233 reversed $92 $-1 #
coedge $-1 $234 $94 $96 $163 forward $57 $-1 #
coedge $-1 $94 $234 $230 $235 forward $57 $-1 #
coedge $-1 $232 $97 $94 $160 forward $165 $-1 #
edge $-1 $167 -27.553463464945025 $236 -13.863974966341559 $159 $237 forward 7 unknown #
coedge $-1 $238 $239 $95 $162 forward $154 $-1 #
edge $-1 $240 -39.744344381527611 $166 -31.604836227066581 $161 $241 forward 7 unknown #
edge $-1 $167 -10.329184001544654 $240 -5.826718503882826e-014 $96 $242 forward 7 unknown #
coedge $-1 $97 $232 $238 $243 forward $165 $-1 #
loop $-1 $-1 $232 $153 #
vertex $-1 $162 $244 #
vertex $-1 $98 $245 #
straight-curve $-1 48.262182680588317 -80.30340044297715 18.004121854706568 0 1 0 I I #
coedge $-1 $169 $169 $-1 $246 reversed $101 $-1 #
edge $-1 $247 0 $247 6.2831853071796004 $102 $248 forward 7 unknown #
vertex $-1 $105 $249 #
ellipse-curve $-1 37.310591881705534 -43.06014565253875 13.934367777476051 0 -0.78801076186113728 0.61566146476048833 0.5 0 0 1 I I #
coedge $-1 $173 $173 $-1 $250 reversed $108 $-1 #
edge $-1 $251 0 $251 6.2831853071796004 $109 $252 forward 7 unknown #
vertex $-1 $112 $253 #
ellipse-curve $-1 41.41743843128657 -43.06014565253875 13.934367777476051 0 -0.78801076186113728 0.61566146476048833 0.5 0 0 1 I I #
coedge $-1 $177 $177 $-1 $254 reversed $115 $-1 #
edge $-1 $255 0 $255 6.2831853071796004 $116 $256 forward 7 unknown #
vertex $-1 $119 $257 #
ellipse-curve $-1 45.524284980867606 -43.06014565253875 13.934367777476051 0 -0.78801076186113728 0.61566146476048833 0.5 0 0 1 I I #
face $-1 $-1 $135 $18 $-1 $258 reversed single #
loop $-1 $-1 $196 $120 #
plane-surface $-1 0 46.239785928624521 0 0 -1 0 0 0 -1 forward_v I I I I #
coedge $-1 $194 $259 $123 $186 reversed $121 $-1 #
coedge $-1 $200 $123 $124 $188 reversed $76 $-1 #
edge $-1 $201 -18.004121854706572 $260 18.004121854706572 $184 $261 forward 7 unknown #
coedge $-1 $125 $124 $259 $262 forward $49 $-1 #
edge $-1 $192 -72.566911832026122 $260 72.566911832026122 $185 $263 forward 7 unknown #
coedge $-1 $197 $196 $125 $190 reversed $182 $-1 #
edge $-1 $264 -72.566911832026122 $191 72.566911832026122 $189 $265 forward 7 unknown #
vertex $-1 $127 $266 #
vertex $-1 $203 $267 #
straight-curve $-1 72.566911832026122 0 -18.004121854706572 0 -1 0 I I #
coedge $-1 $268 $184 $128 $195 reversed $121 $-1 #
edge $-1 $198 -46.239785928624521 $201 46.239785928624521 $194 $269 forward 7 unknown #
coedge $-1 $189 $129 $134 $204 forward $182 $-1 #
coedge $-1 $129 $189 $268 $270 reversed $182 $-1 #
vertex $-1 $130 $271 #
straight-curve $-1 0 46.239785928624521 18.004121854706572 -1 0 0 I I #
coedge $-1 $131 $185 $133 $203 reversed $76 $-1 #
vertex $-1 $195 $272 #
straight-curve $-1 0 -46.239785928624521 18.004121854706572 1 0 0 I I #
edge $-1 $136 -18.004121854706572 $192 18.004121854706572 $133 $273 forward 7 unknown #
edge $-1 $137 -18.004121854706572 $191 18.004121854706572 $134 $274 forward 7 unknown #
point $-1 72.566911832026122 -46.239785928624521 18.004121854706572 #
point $-1 72.566911832026122 46.239785928624521 18.004121854706572 #
face $-1 $-1 $221 $19 $-1 $275 reversed single #
loop $-1 $-1 $217 $139 #
plane-surface $-1 0 0 -18.004121854706572 0 0 1 1 0 0 forward_v I I I I #
coedge $-1 $276 $277 $211 $278 forward $140 $-1 #
coedge $-1 $143 $142 $210 $278 reversed $53 $-1 #
coedge $-1 $217 $279 $142 $213 forward $208 $-1 #
edge $-1 $280 -87.346061225135955 $215 -72.566911832026122 $142 $281 forward 7 unknown #
edge $-1 $150 -7.3895746965549165 $282 7.3895746965549165 $143 $283 forward 7 unknown #
vertex $-1 $144 $284 #
straight-curve $-1 -72.566911832026122 46.239785928624521 0 0 0 -1 I I #
coedge $-1 $285 $212 $145 $218 forward $208 $-1 #
edge $-1 $215 -46.239785928624521 $222 46.239785928624521 $217 $286 forward 7 unknown #
coedge $-1 $287 $146 $149 $225 reversed $221 $-1 #
coedge $-1 $146 $287 $285 $288 reversed $221 $-1 #
loop $-1 $-1 $146 $207 #
vertex $-1 $288 $289 #
straight-curve $-1 -72.566911832026122 -46.239785928624521 0 0 0 1 I I #
coedge $-1 $149 $148 $277 $290 forward $84 $-1 #
edge $-1 $291 -7.3895746965549165 $151 7.3895746965549165 $219 $292 forward 7 unknown #
point $-1 -72.566911832026122 46.239785928624521 -8.0627608293699247 #
point $-1 -72.566911832026122 -46.239785928624521 -8.0627608293699247 #
plane-surface $-1 0 0 18.004121854706572 0 0 1 1 0 0 forward_v I I I I #
coedge $-1 $239 $238 $231 $293 forward $154 $-1 #
coedge $-1 $231 $156 $158 $235 reversed $92 $-1 #
coedge $-1 $156 $230 $229 $293 reversed $92 $-1 #
coedge $-1 $164 $159 $156 $233 forward $165 $-1 #
edge $-1 $236 -40.422895066524177 $294 -34.063614514352629 $232 $295 forward 7 unknown #
coedge $-1 $158 $157 $239 $296 reversed $57 $-1 #
edge $-1 $297 5.826718503882826e-014 $236 10.329184001544654 $230 $298 forward 7 unknown #
vertex $-1 $160 $299 #
straight-curve $-1 20.708719215643292 -39.880505376452973 18.004121854706572 -1 0 0 I I #
coedge $-1 $229 $161 $164 $243 reversed $154 $-1 #
coedge $-1 $161 $229 $234 $296 forward $154 $-1 #
vertex $-1 $162 $300 #
straight-curve $-1 48.262182680588317 -46.239785928624521 49.608958081773153 0 0 1 I I #
straight-curve $-1 48.262182680588317 -46.239785928624556 9.8646137002454992 0 -0.61566146476048833 -0.78801076186113728 I I #
edge $-1 $294 34.572694181984851 $166 48.262182680588317 $238 $301 forward 7 unknown #
point $-1 48.262182680588317 -46.239785928624521 18.004121854706572 #
point $-1 48.262182680588317 -39.880505376452973 18.004121854706572 #
edge $-1 $302 1 $302 0 $169 $-1 forward 7 unknown #
vertex $-1 $170 $303 #
ellipse-curve $-1 37.310591881705534 -42.272134890677577 13.318706312715536 0 -0.78801076186113728 0.61566146476048833 0.5 0 0 1 I I #
point $-1 37.810591881705534 -43.060145652538715 13.934367777476025 #
edge $-1 $304 1 $304 0 $173 $-1 forward 7 unknown #
vertex $-1 $174 $305 #
ellipse-curve $-1 41.41743843128657 -42.272134890677577 13.318706312715536 0 -0.78801076186113728 0.61566146476048833 0.5 0 0 1 I I #
point $-1 41.91743843128657 -43.060145652538715 13.934367777476025 #
edge $-1 $306 1 $306 0 $177 $-1 forward 7 unknown #
vertex $-1 $178 $307 #
ellipse-curve $-1 45.524284980867606 -42.272134890677577 13.318706312715536 0 -0.78801076186113728 0.61566146476048833 0.5 0 0 1 I I #
point $-1 46.024284980867606 -43.060145652538715 13.934367777476025 #
plane-surface $-1 72.566911832026122 0 0 -1 0 0 0 0 1 forward_v I I I I #
coedge $-1 $184 $268 $187 $262 reversed $121 $-1 #
vertex $-1 $262 $308 #
straight-curve $-1 -72.566911832026122 -46.239785928624521 0 0 0 -1 I I #
edge $-1 $260 -46.239785928624521 $264 46.239785928624521 $259 $309 forward 7 unknown #
straight-curve $-1 0 -46.239785928624521 -18.004121854706572 -1 0 0 I I #
vertex $-1 $190 $310 #
straight-curve $-1 0 46.239785928624521 -18.004121854706572 1 0 0 I I #
point $-1 72.566911832026122 46.239785928624521 -18.004121854706572 #
point $-1 72.566911832026122 -46.239785928624521 -18.004121854706572 #
coedge $-1 $259 $194 $197 $270 forward $121 $-1 #
straight-curve $-1 -72.566911832026122 0 18.004121854706572 0 -1 0 I I #
edge $-1 $198 -18.004121854706572 $264 18.004121854706572 $197 $311 forward 7 unknown #
point $-1 -72.566911832026122 46.239785928624521 18.004121854706572 #
point $-1 -72.566911832026122 -46.239785928624521 18.004121854706572 #
straight-curve $-1 72.566911832026122 -46.239785928624521 0 0 0 -1 I I #
straight-curve $-1 72.566911832026122 46.239785928624521 0 0 0 -1 I I #
plane-surface $-1 0 -46.239785928624521 0 0 1 0 0 0 1 forward_v I I I I #
coedge $-1 $312 $210 $279 $313 reversed $140 $-1 #
coedge $-1 $210 $312 $224 $290 reversed $140 $-1 #
edge $-1 $282 -4.9706805126683236 $280 4.9706805126683236 $211 $314 forward 7 unknown #
coedge $-1 $212 $285 $276 $313 forward $208 $-1 #
vertex $-1 $213 $315 #
straight-curve $-1 0 46.239785928624521 -18.004121854706572 1 0 0 I I #
vertex $-1 $214 $316 #
straight-curve $-1 -79.956486528581038 46.239785928624521 -8.0627608293699247 -1 0 0 I I #
point $-1 -72.566911832026122 46.239785928624521 -18.004121854706572 #
coedge $-1 $279 $217 $220 $288 forward $208 $-1 #
straight-curve $-1 -72.566911832026122 0 -18.004121854706572 0 -1 0 I I #
coedge $-1 $220 $219 $312 $317 forward $221 $-1 #
edge $-1 $222 -7.3895746965549165 $318 7.3895746965549165 $220 $319 forward 7 unknown #
point $-1 -72.566911832026122 -46.239785928624521 -18.004121854706572 #
edge $-1 $282 -46.239785928624521 $291 46.239785928624521 $277 $320 forward 7 unknown #
vertex $-1 $290 $321 #
straight-curve $-1 -79.956486528581038 -46.239785928624521 -8.0627608293699247 1 0 0 I I #
edge $-1 $294 31.604836227066581 $297 39.744344381527611 $229 $322 forward 7 unknown #
vertex $-1 $243 $323 #
straight-curve $-1 34.572694181984851 -80.30340044297715 18.004121854706568 0 -1 0 I I #
edge $-1 $297 13.863974966341559 $240 27.553463464945025 $239 $324 forward 7 unknown #
vertex $-1 $296 $325 #
straight-curve $-1 34.572694181984851 -46.239785928624556 9.8646137002454992 0 0.61566146476048833 0.78801076186113728 I I #
point $-1 34.572694181984851 -39.880505376452973 18.004121854706572 #
point $-1 48.262182680588317 -46.239785928624521 9.8646137002455454 #
straight-curve $-1 0 -46.239785928624521 18.004121854706572 1 0 0 I I #
vertex $-1 $246 $326 #
point $-1 37.810591881705534 -42.272134890677577 13.318706312715536 #
vertex $-1 $250 $327 #
point $-1 41.91743843128657 -42.272134890677577 13.318706312715536 #
vertex $-1 $254 $328 #
point $-1 46.024284980867606 -42.272134890677577 13.318706312715536 #
point $-1 -72.566911832026122 -46.239785928624521 -18.004121854706572 #
straight-curve $-1 -72.566911832026122 0 -18.004121854706572 0 1 0 I I #
point $-1 -72.566911832026122 46.239785928624521 -18.004121854706572 #
straight-curve $-1 -72.566911832026122 46.239785928624521 0 0 0 -1 I I #
coedge $-1 $277 $276 $287 $317 reversed $140 $-1 #
edge $-1 $318 -46.239785928624521 $280 46.239785928624521 $276 $329 forward 7 unknown #
straight-curve $-1 -87.346061225135955 46.239785928624521 -13.033441342038248 0 0 -1 I I #
point $-1 -87.346061225135955 46.239785928624521 -18.004121854706572 #
point $-1 -87.346061225135955 46.239785928624521 -8.0627608293699247 #
edge $-1 $291 -4.9706805126683236 $318 4.9706805126683236 $312 $330 forward 7 unknown #
vertex $-1 $313 $331 #
straight-curve $-1 -79.956486528581038 -46.239785928624521 -18.004121854706572 -1 0 0 I I #
straight-curve $-1 -87.346061225135955 0 -8.0627608293699247 0 -1 0 I I #
point $-1 -87.346061225135955 -46.239785928624521 -8.0627608293699247 #
straight-curve $-1 34.572694181984851 -46.239785928624521 49.608958081773153 0 0 -1 I I #
point $-1 34.572694181984851 -46.239785928624521 18.004121854706572 #
straight-curve $-1 20.708719215643292 -46.239785928624521 9.8646137002455525 1 0 0 I I #
point $-1 34.572694181984851 -46.239785928624521 9.8646137002455454 #
point $-1 37.310591881705534 -41.878129509747012 13.010875580335293 #
point $-1 41.41743843128657 -41.878129509747012 13.010875580335293 #
point $-1 45.524284980867606 -41.878129509747012 13.010875580335293 #
straight-curve $-1 -87.346061225135955 0 -18.004121854706572 0 1 0 I I #
straight-curve $-1 -87.346061225135955 -46.239785928624521 -13.033441342038248 0 0 -1 I I #
point $-1 -87.346061225135955 -46.239785928624521 -18.004121854706572 #
End-of-ACIS-data 