500 0 8 0           
7 Unknown 11 ACIS 5.0 NT 24 Thu Mar 25 20:45:26 1999 
-1 9.9999999999999995e-007 1e-010 
body $-1 $8 $-1 $9 #
body $-1 $10 $-1 $11 #
body $-1 $12 $-1 $13 #
body $-1 $14 $-1 $15 #
body $-1 $16 $-1 $17 #
body $-1 $18 $-1 $19 #
body $-1 $20 $-1 $21 #
body $-1 $22 $-1 $23 #
lump $-1 $-1 $24 $0 #
transform $-1 1 0 0 0 1 0 0 0 1 53.556321909237951 32.009901144422123 12.561397560519788 1 rotate no_reflect no_shear #
lump $-1 $-1 $25 $1 #
transform $-1 1 0 0 0 1 0 0 0 1 53.556321909237951 32.009901144422123 12.561397560519788 1 rotate no_reflect no_shear #
lump $-1 $-1 $26 $2 #
transform $-1 1 0 0 0 1 0 0 0 1 53.556321909237951 32.009901144422123 12.561397560519788 1 rotate no_reflect no_shear #
lump $-1 $-1 $27 $3 #
transform $-1 1 0 0 0 1 0 0 0 1 53.556321909237951 32.009901144422123 12.561397560519788 1 rotate no_reflect no_shear #
lump $-1 $-1 $28 $4 #
transform $-1 1 0 0 0 1 0 0 0 1 53.556321909237951 32.009901144422123 12.561397560519788 1 rotate no_reflect no_shear #
lump $-1 $-1 $29 $5 #
transform $-1 1 0 0 0 1 0 0 0 1 53.556321909237951 32.009901144422123 12.561397560519788 1 rotate no_reflect no_shear #
lump $-1 $-1 $30 $6 #
transform $-1 1 0 0 0 1 0 0 0 1 53.556321909237951 32.009901144422123 12.561397560519788 1 rotate no_reflect no_shear #
lump $-1 $-1 $31 $7 #
transform $-1 1 0 0 0 1 0 0 0 1 53.556321909237951 32.009901144422123 12.561397560519788 1 rotate no_reflect no_shear #
shell $-1 $-1 $-1 $32 $-1 $8 #
shell $-1 $-1 $-1 $33 $-1 $10 #
shell $-1 $-1 $-1 $34 $-1 $12 #
shell $-1 $-1 $-1 $35 $-1 $14 #
shell $-1 $-1 $-1 $36 $-1 $16 #
shell $-1 $-1 $-1 $37 $-1 $18 #
shell $-1 $-1 $-1 $38 $-1 $20 #
shell $-1 $-1 $-1 $39 $-1 $22 #
face $-1 $40 $41 $24 $-1 $42 forward single #
face $-1 $43 $44 $25 $-1 $45 forward single #
face $-1 $46 $47 $26 $-1 $48 reversed single #
face $-1 $49 $50 $27 $-1 $51 forward single #
face $-1 $52 $53 $28 $-1 $54 reversed single #
face $-1 $55 $56 $29 $-1 $57 forward single #
face $-1 $58 $59 $30 $-1 $60 forward single #
face $-1 $61 $62 $31 $-1 $63 forward single #
face $-1 $64 $65 $24 $-1 $66 reversed single #
loop $-1 $-1 $67 $32 #
plane-surface $-1 0 0 12.561397560519788 0 0 1 1 0 0 forward_v I I I I #
face $-1 $68 $69 $25 $-1 $70 reversed single #
loop $-1 $-1 $71 $33 #
plane-surface $-1 0 -27.416551471634829 -8.3468679270213766 0 0 1 1 0 0 forward_v I I I I #
face $-1 $72 $73 $26 $-1 $74 reversed single #
loop $-1 $-1 $75 $34 #
plane-surface $-1 -123.82853985995901 -8.6977765177118158 89.690678638253843 0 1 0 -0.6560590369687036 0 0.75470957328743171 forward_v I I I I #
face $-1 $76 $77 $27 $-1 $78 forward single #
loop $-1 $79 $80 $35 #
cone-surface $-1 -50.99724989311931 -5.0733383735766608 10.217275967034769 0.6560590369687036 0 -0.75470957328743171 0.75470957328743171 0 0.6560590369687036 1 I I 0 1 1 forward I I I I #
face $-1 $81 $82 $28 $-1 $83 reversed single #
loop $-1 $-1 $84 $36 #
plane-surface $-1 29.859606506951266 3.9606178820428539 157.40156233331049 0 -1 0 -0.5877852598018023 0 -0.80901698891910034 forward_v I I I I #
face $-1 $85 $86 $29 $-1 $87 forward single #
loop $-1 $88 $89 $37 #
cone-surface $-1 49.812362940710869 -2.4505473396991277 9.5437325611528685 -0.5877852598018023 0 -0.80901698891910034 0.40450849445955017 0 -0.29389262990090115 1 I I 0 1 0.5 forward I I I I #
face $-1 $90 $91 $30 $-1 $92 forward single #
loop $-1 $93 $94 $38 #
cone-surface $-1 49.812362940710869 -0.046360381545884621 9.5437325611528685 -0.5877852598018023 0 -0.80901698891910034 0.40450849445955017 0 -0.29389262990090115 1 I I 0 1 0.5 forward I I I I #
face $-1 $95 $96 $31 $-1 $97 forward single #
loop $-1 $98 $99 $39 #
cone-surface $-1 49.812362940710869 2.3578265766073585 9.5437325611528685 -0.5877852598018023 0 -0.80901698891910034 0.40450849445955017 0 -0.29389262990090115 1 I I 0 1 0.5 forward I I I I #
face $-1 $100 $101 $24 $-1 $102 reversed single #
loop $-1 $-1 $103 $40 #
plane-surface $-1 0 0 -12.561397560519788 0 0 1 1 0 0 forward_v I I I I #
coedge $-1 $104 $105 $106 $107 forward $41 $-1 #
face $-1 $108 $109 $25 $-1 $110 reversed single #
loop $-1 $-1 $111 $43 #
plane-surface $-1 0 -22.823201798847535 -10.454132743770582 0 -1 0 0 0 -1 forward_v I I I I #
coedge $-1 $112 $113 $114 $115 reversed $44 $-1 #
face $-1 $116 $117 $26 $-1 $118 reversed single #
loop $-1 $-1 $119 $46 #
plane-surface $-1 -53.556321909237951 -5.0733383735766608 8.8517409283232382 -0.6560590369687036 0 0.75470957328743171 0.75470957328743171 0 0.6560590369687036 forward_v I I I I #
coedge $-1 $120 $121 $122 $123 reversed $47 $-1 #
face $-1 $-1 $124 $27 $-1 $125 forward single #
loop $-1 $126 $127 $49 #
cone-surface $-1 -50.243884208619008 -5.0733383735766608 9.3506279030043071 0.6560590369687036 0 -0.75470957328743171 0.37735478664371586 0 0.3280295184843518 1 I I -0.70710678118654746 0.70710678118654746 0.5 forward I I I I #
loop $-1 $-1 $128 $35 #
coedge $-1 $80 $80 $129 $130 reversed $50 $-1 #
face $-1 $131 $132 $28 $-1 $133 reversed single #
loop $-1 $-1 $134 $52 #
plane-surface $-1 -33.099626667949508 -0.046360381545884621 70.745613756123035 0.5877852598018023 0 0.80901698891910034 0.80901698891910034 0 -0.5877852598018023 forward_v I I I I #
coedge $-1 $135 $136 $137 $138 reversed $53 $-1 #
face $-1 $-1 $139 $29 $-1 $140 forward single #
loop $-1 $141 $142 $55 #
cone-surface $-1 49.207581113214061 -2.4505473396991277 8.7113218042049336 -0.5877852598018023 0 -0.80901698891910034 0.20225424722977509 0 -0.14694631495045057 1 I I -0.70710678118654746 0.70710678118654746 0.25 forward I I I I #
loop $-1 $-1 $143 $37 #
coedge $-1 $89 $89 $144 $145 reversed $56 $-1 #
face $-1 $-1 $146 $30 $-1 $147 forward single #
loop $-1 $148 $149 $58 #
cone-surface $-1 49.207581113214061 -0.046360381545884621 8.7113218042049336 -0.5877852598018023 0 -0.80901698891910034 0.20225424722977509 0 -0.14694631495045057 1 I I -0.70710678118654746 0.70710678118654746 0.25 forward I I I I #
loop $-1 $-1 $150 $38 #
coedge $-1 $94 $94 $151 $152 reversed $59 $-1 #
face $-1 $-1 $153 $31 $-1 $154 forward single #
loop $-1 $155 $156 $61 #
cone-surface $-1 49.207581113214061 2.3578265766073585 8.7113218042049336 -0.5877852598018023 0 -0.80901698891910034 0.20225424722977509 0 -0.14694631495045057 1 I I -0.70710678118654746 0.70710678118654746 0.25 forward I I I I #
loop $-1 $-1 $157 $39 #
coedge $-1 $99 $99 $158 $159 reversed $62 $-1 #
face $-1 $160 $161 $24 $-1 $162 reversed single #
loop $-1 $-1 $163 $64 #
plane-surface $-1 0 -32.009901144422123 0 0 1 0 0 0 1 forward_v I I I I #
coedge $-1 $164 $165 $166 $167 forward $65 $-1 #
coedge $-1 $168 $67 $169 $170 forward $41 $-1 #
coedge $-1 $67 $168 $171 $172 forward $41 $-1 #
coedge $-1 $173 $174 $67 $107 reversed $175 $-1 #
edge $-1 $176 -32.009901144422123 $177 32.009901144422123 $106 $178 forward 7 unknown #
face $-1 $179 $180 $25 $-1 $181 reversed single #
loop $-1 $-1 $182 $68 #
plane-surface $-1 0 0 -12.561397560519788 0 0 1 1 0 0 forward_v I I I I #
coedge $-1 $183 $184 $185 $186 reversed $69 $-1 #
coedge $-1 $187 $71 $184 $188 forward $44 $-1 #
coedge $-1 $71 $187 $189 $190 reversed $44 $-1 #
coedge $-1 $191 $185 $71 $115 forward $180 $-1 #
edge $-1 $192 9.1149260630301203 $193 18.301625408604707 $114 $194 forward 7 unknown #
face $-1 $195 $196 $26 $-1 $197 forward single #
loop $-1 $-1 $198 $72 #
plane-surface $-1 -123.82853985995901 -1.4489002294415059 89.690678638253843 0 -1 0 0.6560590369687036 0 -0.75470957328743171 forward_v I I I I #
coedge $-1 $199 $200 $201 $202 reversed $73 $-1 #
coedge $-1 $121 $75 $203 $204 reversed $47 $-1 #
coedge $-1 $75 $120 $199 $205 reversed $47 $-1 #
coedge $-1 $201 $206 $75 $123 forward $196 $-1 #
edge $-1 $207 8.3579480207415529 $208 12.625419720946951 $122 $209 forward 7 unknown #
loop $-1 $-1 $129 $76 #
plane-surface $-1 -53.556321909237951 -5.0733383735766608 8.8517409283232382 -0.6560590369687036 0 0.75470957328743171 0.75470957328743171 0 0.6560590369687036 forward_v I I I I #
loop $-1 $-1 $210 $49 #
coedge $-1 $127 $127 $128 $211 reversed $77 $-1 #
coedge $-1 $128 $128 $127 $211 forward $79 $-1 #
coedge $-1 $129 $129 $80 $130 forward $124 $-1 #
edge $-1 $212 0 $212 6.2831853071796004 $129 $213 forward 7 unknown #
face $-1 $214 $215 $28 $-1 $216 reversed single #
loop $-1 $-1 $217 $81 #
plane-surface $-1 29.859606506951266 -4.0533386451346232 157.40156233331049 0 1 0 0.5877852598018023 0 0.80901698891910034 forward_v I I I I #
coedge $-1 $218 $219 $220 $221 reversed $82 $-1 #
coedge $-1 $136 $84 $222 $223 reversed $53 $-1 #
coedge $-1 $84 $135 $218 $224 reversed $53 $-1 #
coedge $-1 $220 $225 $84 $138 forward $226 $-1 #
edge $-1 $227 -38.626518655762318 $228 -32.054271743800861 $137 $229 forward 7 unknown #
loop $-1 $-1 $144 $85 #
plane-surface $-1 -33.099626667949508 -0.046360381545884621 70.745613756123035 0.5877852598018023 0 0.80901698891910034 0.80901698891910034 0 -0.5877852598018023 forward_v I I I I #
loop $-1 $-1 $230 $55 #
coedge $-1 $142 $142 $143 $231 reversed $86 $-1 #
coedge $-1 $143 $143 $142 $231 forward $88 $-1 #
coedge $-1 $144 $144 $89 $145 forward $139 $-1 #
edge $-1 $232 0 $232 6.2831853071796004 $144 $233 forward 7 unknown #
loop $-1 $-1 $151 $90 #
plane-surface $-1 -33.099626667949508 -0.046360381545884621 70.745613756123035 0.5877852598018023 0 0.80901698891910034 0.80901698891910034 0 -0.5877852598018023 forward_v I I I I #
loop $-1 $-1 $234 $58 #
coedge $-1 $149 $149 $150 $235 reversed $91 $-1 #
coedge $-1 $150 $150 $149 $235 forward $93 $-1 #
coedge $-1 $151 $151 $94 $152 forward $146 $-1 #
edge $-1 $236 0 $236 6.2831853071796004 $151 $237 forward 7 unknown #
loop $-1 $-1 $158 $95 #
plane-surface $-1 -33.099626667949508 -0.046360381545884621 70.745613756123035 0.5877852598018023 0 0.80901698891910034 0.80901698891910034 0 -0.5877852598018023 forward_v I I I I #
loop $-1 $-1 $238 $61 #
coedge $-1 $156 $156 $157 $239 reversed $96 $-1 #
coedge $-1 $157 $157 $156 $239 forward $98 $-1 #
coedge $-1 $158 $158 $99 $159 forward $153 $-1 #
edge $-1 $240 0 $240 6.2831853071796004 $158 $241 forward 7 unknown #
face $-1 $242 $243 $24 $-1 $244 reversed single #
loop $-1 $-1 $245 $100 #
plane-surface $-1 -53.556321909237951 0 0 1 0 0 0 0 -1 forward_v I I I I #
coedge $-1 $246 $171 $247 $248 forward $101 $-1 #
coedge $-1 $249 $103 $246 $250 forward $65 $-1 #
coedge $-1 $103 $249 $251 $252 forward $65 $-1 #
coedge $-1 $174 $173 $103 $167 reversed $175 $-1 #
edge $-1 $253 -32.009901144422123 $254 32.009901144422123 $166 $255 forward 7 unknown #
coedge $-1 $105 $104 $256 $257 forward $41 $-1 #
coedge $-1 $258 $259 $104 $170 reversed $243 $-1 #
edge $-1 $177 -53.556321909237951 $260 53.556321909237951 $169 $261 forward 7 unknown #
coedge $-1 $163 $262 $105 $172 reversed $101 $-1 #
edge $-1 $263 -53.556321909237951 $176 53.556321909237951 $171 $264 forward 7 unknown #
coedge $-1 $166 $106 $262 $265 forward $175 $-1 #
coedge $-1 $106 $166 $258 $266 reversed $175 $-1 #
loop $-1 $-1 $173 $242 #
vertex $-1 $107 $267 #
vertex $-1 $107 $268 #
straight-curve $-1 53.556321909237951 0 12.561397560519788 0 1 0 I I #
face $-1 $269 $270 $25 $-1 $271 reversed single #
loop $-1 $-1 $185 $108 #
plane-surface $-1 53.556321909237951 0 0 -1 0 0 0 0 1 forward_v I I I I #
coedge $-1 $272 $273 $183 $274 forward $109 $-1 #
coedge $-1 $275 $111 $182 $274 reversed $69 $-1 #
coedge $-1 $111 $275 $112 $188 reversed $69 $-1 #
coedge $-1 $114 $276 $111 $186 forward $180 $-1 #
edge $-1 $277 -7.3343311886344971 $192 -3.1198015551360854 $185 $278 forward 7 unknown #
coedge $-1 $113 $112 $279 $280 reversed $44 $-1 #
edge $-1 $192 -53.556321909237951 $281 53.556321909237951 $184 $282 forward 7 unknown #
coedge $-1 $283 $284 $113 $190 forward $270 $-1 #
edge $-1 $193 -53.556321909237951 $285 53.556321909237951 $189 $286 forward 7 unknown #
coedge $-1 $276 $114 $284 $287 forward $180 $-1 #
vertex $-1 $115 $288 #
vertex $-1 $287 $289 #
straight-curve $-1 53.556321909237951 -13.708275735817415 -8.3468679270213766 0 -1 0 I I #
face $-1 $-1 $290 $26 $-1 $291 reversed single #
loop $-1 $-1 $122 $116 #
plane-surface $-1 0 0 12.561397560519788 0 0 1 1 0 0 forward_v I I I I #
coedge $-1 $292 $293 $294 $295 reversed $117 $-1 #
coedge $-1 $296 $119 $121 $205 forward $73 $-1 #
coedge $-1 $119 $296 $292 $297 forward $73 $-1 #
coedge $-1 $294 $122 $119 $202 forward $196 $-1 #
edge $-1 $208 -6.1611073309234854 $298 1.0877689573468245 $201 $299 forward 7 unknown #
coedge $-1 $300 $301 $120 $204 forward $290 $-1 #
edge $-1 $302 -35.993598390803683 $207 -32.283941758607135 $203 $303 forward 7 unknown #
edge $-1 $208 -5.6544555034816399 $302 0 $121 $304 forward 7 unknown #
coedge $-1 $122 $294 $300 $305 forward $196 $-1 #
vertex $-1 $204 $306 #
vertex $-1 $123 $307 #
straight-curve $-1 -61.914269929979504 -8.6977765177118158 12.561397560519787 1 0 0 I I #
coedge $-1 $210 $210 $-1 $308 reversed $126 $-1 #
edge $-1 $309 0 $309 6.2831853071796004 $127 $310 forward 7 unknown #
vertex $-1 $130 $311 #
ellipse-curve $-1 -51.422586059135256 -5.0733383735766608 10.706569244421511 -0.6560590369687036 0 0.75470957328743171 0.75470957328743171 0 0.6560590369687036 1 I I #
face $-1 $-1 $226 $28 $-1 $312 forward single #
loop $-1 $-1 $313 $131 #
plane-surface $-1 53.556321909237951 0 0 -1 0 0 0 0 1 forward_v I I I I #
coedge $-1 $314 $315 $316 $317 reversed $132 $-1 #
coedge $-1 $318 $134 $136 $224 forward $82 $-1 #
coedge $-1 $134 $318 $314 $319 forward $82 $-1 #
coedge $-1 $316 $137 $134 $221 forward $226 $-1 #
edge $-1 $228 -3.9837980728157962 $320 4.0301584543616809 $220 $321 forward 7 unknown #
coedge $-1 $322 $323 $135 $223 forward $215 $-1 #
edge $-1 $324 -70.914400585432986 $227 -66.139383606135453 $222 $325 forward 7 unknown #
edge $-1 $228 98.988899815593555 $324 107.1126438184759 $136 $326 forward 7 unknown #
coedge $-1 $137 $316 $322 $327 forward $226 $-1 #
loop $-1 $-1 $316 $214 #
vertex $-1 $223 $328 #
vertex $-1 $138 $329 #
straight-curve $-1 14.929803253475633 3.9606178820428539 12.561397560519794 -1 0 0 I I #
coedge $-1 $230 $230 $-1 $330 reversed $141 $-1 #
edge $-1 $331 0 $331 6.2831853071796004 $142 $332 forward 7 unknown #
vertex $-1 $145 $333 #
ellipse-curve $-1 50.270198453257223 -2.4505473396991277 10.173889070871029 0.5877852598018023 0 0.80901698891910034 0.40450849445955017 0 -0.29389262990090115 1 I I #
coedge $-1 $234 $234 $-1 $334 reversed $148 $-1 #
edge $-1 $335 0 $335 6.2831853071796004 $149 $336 forward 7 unknown #
vertex $-1 $152 $337 #
ellipse-curve $-1 50.270198453257223 -0.046360381545884621 10.173889070871029 0.5877852598018023 0 0.80901698891910034 0.40450849445955017 0 -0.29389262990090115 1 I I #
coedge $-1 $238 $238 $-1 $338 reversed $155 $-1 #
edge $-1 $339 0 $339 6.2831853071796004 $156 $340 forward 7 unknown #
vertex $-1 $159 $341 #
ellipse-curve $-1 50.270198453257223 2.3578265766073585 10.173889070871029 0.5877852598018023 0 0.80901698891910034 0.40450849445955017 0 -0.29389262990090115 1 I I #
face $-1 $-1 $175 $24 $-1 $342 reversed single #
loop $-1 $-1 $258 $160 #
plane-surface $-1 0 32.009901144422123 0 0 -1 0 0 0 -1 forward_v I I I I #
coedge $-1 $343 $256 $259 $344 forward $161 $-1 #
coedge $-1 $262 $163 $164 $250 reversed $101 $-1 #
coedge $-1 $256 $343 $163 $248 reversed $161 $-1 #
edge $-1 $263 -12.561397560519788 $345 12.561397560519788 $247 $346 forward 7 unknown #
coedge $-1 $165 $164 $343 $347 forward $65 $-1 #
edge $-1 $254 -53.556321909237951 $345 53.556321909237951 $246 $348 forward 7 unknown #
coedge $-1 $259 $258 $165 $252 reversed $243 $-1 #
edge $-1 $349 -53.556321909237951 $253 53.556321909237951 $251 $350 forward 7 unknown #
vertex $-1 $167 $351 #
vertex $-1 $265 $352 #
straight-curve $-1 53.556321909237951 0 -12.561397560519788 0 -1 0 I I #
coedge $-1 $245 $247 $168 $257 reversed $161 $-1 #
edge $-1 $260 -32.009901144422123 $263 32.009901144422123 $256 $353 forward 7 unknown #
coedge $-1 $251 $169 $174 $266 forward $243 $-1 #
coedge $-1 $169 $251 $245 $344 reversed $243 $-1 #
vertex $-1 $170 $354 #
straight-curve $-1 0 32.009901144422123 12.561397560519788 -1 0 0 I I #
coedge $-1 $171 $246 $173 $265 reversed $101 $-1 #
vertex $-1 $257 $355 #
straight-curve $-1 0 -32.009901144422123 12.561397560519788 1 0 0 I I #
edge $-1 $176 -12.561397560519788 $254 12.561397560519788 $173 $356 forward 7 unknown #
edge $-1 $177 -12.561397560519788 $253 12.561397560519788 $174 $357 forward 7 unknown #
point $-1 53.556321909237951 -32.009901144422123 12.561397560519788 #
point $-1 53.556321909237951 32.009901144422123 12.561397560519788 #
face $-1 $-1 $358 $25 $-1 $359 reversed single #
loop $-1 $-1 $189 $179 #
plane-surface $-1 0 -32.009901144422123 0 0 1 0 0 0 1 forward_v I I I I #
coedge $-1 $360 $182 $276 $361 forward $109 $-1 #
coedge $-1 $182 $360 $362 $363 forward $109 $-1 #
edge $-1 $364 -53.556321909237951 $277 53.556321909237951 $182 $365 forward 7 unknown #
coedge $-1 $184 $183 $366 $367 reversed $69 $-1 #
coedge $-1 $185 $191 $272 $361 reversed $180 $-1 #
vertex $-1 $361 $368 #
straight-curve $-1 53.556321909237951 -22.823201798847535 -5.2270663718852912 0 0 1 I I #
coedge $-1 $366 $369 $187 $280 forward $358 $-1 #
edge $-1 $285 -18.301625408604707 $281 -9.1149260630301203 $279 $370 forward 7 unknown #
vertex $-1 $280 $371 #
straight-curve $-1 0 -22.823201798847535 -8.3468679270213766 -1 0 0 I I #
coedge $-1 $372 $189 $369 $373 forward $270 $-1 #
coedge $-1 $189 $372 $191 $287 reversed $270 $-1 #
vertex $-1 $373 $374 #
straight-curve $-1 0 -32.009901144422123 -8.3468679270213766 -1 0 0 I I #
edge $-1 $193 8.3468679270213766 $375 12.561397560519788 $191 $376 forward 7 unknown #
point $-1 53.556321909237951 -22.823201798847535 -8.3468679270213766 #
point $-1 53.556321909237951 -32.009901144422123 -8.3468679270213766 #
loop $-1 $-1 $203 $195 #
plane-surface $-1 -53.556321909237951 0 0 1 0 0 0 0 -1 forward_v I I I I #
coedge $-1 $293 $198 $200 $297 reversed $117 $-1 #
coedge $-1 $198 $292 $377 $378 reversed $117 $-1 #
coedge $-1 $206 $201 $198 $295 forward $196 $-1 #
edge $-1 $298 -12.625419720946951 $379 -8.3579480207415529 $294 $380 forward 7 unknown #
coedge $-1 $200 $199 $301 $381 reversed $73 $-1 #
edge $-1 $382 0 $298 5.6544555034816399 $292 $383 forward 7 unknown #
vertex $-1 $202 $384 #
straight-curve $-1 -49.288850209032546 -2.5366691867883304 12.56139756051979 0 1 0 I I #
coedge $-1 $377 $203 $206 $305 reversed $290 $-1 #
coedge $-1 $203 $377 $296 $381 forward $290 $-1 #
vertex $-1 $204 $385 #
straight-curve $-1 -53.556321909237951 -8.6977765177118158 44.845339319126921 0 0 1 I I #
straight-curve $-1 -53.556321909237951 -8.6977765177118158 8.8517409283232382 -0.75470957328743171 0 -0.6560590369687036 I I #
edge $-1 $379 1.4489002294415059 $207 8.6977765177118158 $300 $386 forward 7 unknown #
point $-1 -53.556321909237951 -8.6977765177118158 12.561397560519788 #
point $-1 -49.288850209032553 -8.6977765177118158 12.561397560519788 #
edge $-1 $387 1 $387 0 $210 $-1 forward 7 unknown #
vertex $-1 $211 $388 #
ellipse-curve $-1 -50.571913727103357 -5.0733383735766608 9.727982689648023 -0.6560590369687036 0 0.75470957328743171 0.75470957328743171 0 0.6560590369687036 1 I I #
point $-1 -50.667876485847827 -5.0733383735766608 11.36262828139022 #
plane-surface $-1 0 0 12.561397560519788 0 0 1 1 0 0 forward_v I I I I #
coedge $-1 $323 $322 $315 $389 forward $215 $-1 #
coedge $-1 $315 $217 $219 $319 reversed $132 $-1 #
coedge $-1 $217 $314 $313 $389 reversed $132 $-1 #
coedge $-1 $225 $220 $217 $317 forward $226 $-1 #
edge $-1 $320 32.054271743800861 $390 38.626518655762318 $316 $391 forward 7 unknown #
coedge $-1 $219 $218 $323 $392 reversed $82 $-1 #
edge $-1 $393 -107.1126438184759 $320 -98.988899815593555 $314 $394 forward 7 unknown #
vertex $-1 $221 $395 #
straight-curve $-1 46.984074997276508 -0.023180190772942311 12.561397560519787 0 -1 0 I I #
coedge $-1 $313 $222 $225 $327 reversed $215 $-1 #
coedge $-1 $222 $313 $318 $392 forward $215 $-1 #
vertex $-1 $223 $396 #
straight-curve $-1 53.556321909237951 3.9606178820428539 78.700781166655247 0 0 1 I I #
straight-curve $-1 -33.099626667949508 3.9606178820428539 70.745613756123035 0.80901698891910034 0 -0.5877852598018023 I I #
edge $-1 $390 -4.0533386451346232 $227 3.9606178820428539 $322 $397 forward 7 unknown #
point $-1 53.556321909237951 3.9606178820428539 12.561397560519788 #
point $-1 46.984074997276494 3.9606178820428539 12.561397560519787 #
edge $-1 $398 1 $398 0 $230 $-1 forward 7 unknown #
vertex $-1 $231 $399 #
ellipse-curve $-1 49.354527428164509 -2.4505473396991277 8.913576051434708 0.5877852598018023 0 0.80901698891910034 0.40450849445955017 0 -0.29389262990090115 1 I I #
point $-1 50.674706947716771 -2.4505473396991277 9.8799964409701282 #
edge $-1 $400 1 $400 0 $234 $-1 forward 7 unknown #
vertex $-1 $235 $401 #
ellipse-curve $-1 49.354527428164509 -0.046360381545884621 8.913576051434708 0.5877852598018023 0 0.80901698891910034 0.40450849445955017 0 -0.29389262990090115 1 I I #
point $-1 50.674706947716771 -0.046360381545884621 9.8799964409701282 #
edge $-1 $402 1 $402 0 $238 $-1 forward 7 unknown #
vertex $-1 $239 $403 #
ellipse-curve $-1 49.354527428164509 2.3578265766073585 8.913576051434708 0.5877852598018023 0 0.80901698891910034 0.40450849445955017 0 -0.29389262990090115 1 I I #
point $-1 50.674706947716771 2.3578265766073585 9.8799964409701282 #
plane-surface $-1 53.556321909237951 0 0 -1 0 0 0 0 1 forward_v I I I I #
coedge $-1 $247 $245 $249 $347 reversed $161 $-1 #
edge $-1 $260 -12.561397560519788 $349 12.561397560519788 $259 $404 forward 7 unknown #
vertex $-1 $347 $405 #
straight-curve $-1 -53.556321909237951 -32.009901144422123 0 0 0 -1 I I #
edge $-1 $345 -32.009901144422123 $349 32.009901144422123 $343 $406 forward 7 unknown #
straight-curve $-1 0 -32.009901144422123 -12.561397560519788 -1 0 0 I I #
vertex $-1 $252 $407 #
straight-curve $-1 0 32.009901144422123 -12.561397560519788 1 0 0 I I #
point $-1 53.556321909237951 32.009901144422123 -12.561397560519788 #
point $-1 53.556321909237951 -32.009901144422123 -12.561397560519788 #
straight-curve $-1 -53.556321909237951 0 12.561397560519788 0 -1 0 I I #
point $-1 -53.556321909237951 32.009901144422123 12.561397560519788 #
point $-1 -53.556321909237951 -32.009901144422123 12.561397560519788 #
straight-curve $-1 53.556321909237951 -32.009901144422123 0 0 0 -1 I I #
straight-curve $-1 53.556321909237951 32.009901144422123 0 0 0 -1 I I #
loop $-1 $-1 $366 $269 #
plane-surface $-1 -53.556321909237951 0 0 1 0 0 0 0 -1 forward_v I I I I #
coedge $-1 $273 $272 $372 $408 forward $109 $-1 #
edge $-1 $277 22.823201798847535 $375 32.009901144422123 $276 $409 forward 7 unknown #
coedge $-1 $369 $366 $273 $363 reversed $358 $-1 #
edge $-1 $410 -32.009901144422123 $364 -22.823201798847535 $362 $411 forward 7 unknown #
vertex $-1 $367 $412 #
straight-curve $-1 0 -22.823201798847535 -12.561397560519788 1 0 0 I I #
coedge $-1 $362 $279 $275 $367 forward $358 $-1 #
edge $-1 $281 3.1198015551360854 $364 7.3343311886344971 $366 $413 forward 7 unknown #
point $-1 53.556321909237951 -22.823201798847535 -12.561397560519788 #
coedge $-1 $279 $362 $283 $373 reversed $358 $-1 #
straight-curve $-1 -53.556321909237951 -13.708275735817415 -8.3468679270213766 0 1 0 I I #
point $-1 -53.556321909237951 -22.823201798847535 -8.3468679270213766 #
coedge $-1 $284 $283 $360 $408 reversed $270 $-1 #
edge $-1 $285 8.3468679270213766 $410 12.561397560519788 $369 $414 forward 7 unknown #
point $-1 -53.556321909237951 -32.009901144422123 -8.3468679270213766 #
vertex $-1 $287 $415 #
straight-curve $-1 53.556321909237951 -32.009901144422123 0 0 0 -1 I I #
coedge $-1 $301 $300 $293 $378 forward $290 $-1 #
edge $-1 $379 32.283941758607135 $382 35.993598390803683 $377 $416 forward 7 unknown #
vertex $-1 $305 $417 #
straight-curve $-1 -61.914269929979504 -1.4489002294415059 12.561397560519787 -1 0 0 I I #
edge $-1 $382 -1.0877689573468245 $302 6.1611073309234854 $301 $418 forward 7 unknown #
vertex $-1 $381 $419 #
straight-curve $-1 -53.556321909237951 -1.4489002294415059 8.8517409283232382 0.75470957328743171 0 0.6560590369687036 I I #
point $-1 -49.288850209032553 -1.4489002294415059 12.561397560519788 #
point $-1 -53.556321909237951 -8.6977765177118158 8.8517409283232382 #
straight-curve $-1 -53.556321909237951 0 12.561397560519788 0 -1 0 I I #
vertex $-1 $308 $420 #
point $-1 -49.817204153815929 -5.0733383735766608 10.384041726616726 #
edge $-1 $390 66.139383606135453 $393 70.914400585432986 $313 $421 forward 7 unknown #
vertex $-1 $327 $422 #
straight-curve $-1 14.929803253475633 -4.0533386451346232 12.561397560519794 1 0 0 I I #
edge $-1 $393 -4.0301584543616809 $324 3.9837980728157962 $323 $423 forward 7 unknown #
vertex $-1 $392 $424 #
straight-curve $-1 -33.099626667949508 -4.0533386451346232 70.745613756123035 -0.80901698891910034 0 0.5877852598018023 I I #
point $-1 46.984074997276494 -4.0533386451346232 12.561397560519787 #
point $-1 53.556321909237951 3.9606178820428539 7.7863805812222608 #
straight-curve $-1 53.556321909237951 0 12.561397560519788 0 1 0 I I #
vertex $-1 $330 $425 #
point $-1 49.759035922624065 -2.4505473396991277 8.6196834215338072 #
vertex $-1 $334 $426 #
point $-1 49.759035922624065 -0.046360381545884621 8.6196834215338072 #
vertex $-1 $338 $427 #
point $-1 49.759035922624065 2.3578265766073585 8.6196834215338072 #
straight-curve $-1 -53.556321909237951 32.009901144422123 0 0 0 -1 I I #
point $-1 -53.556321909237951 -32.009901144422123 -12.561397560519788 #
straight-curve $-1 -53.556321909237951 0 -12.561397560519788 0 1 0 I I #
point $-1 -53.556321909237951 32.009901144422123 -12.561397560519788 #
edge $-1 $375 -53.556321909237951 $410 53.556321909237951 $372 $428 forward 7 unknown #
straight-curve $-1 53.556321909237951 0 -12.561397560519788 0 -1 0 I I #
vertex $-1 $363 $429 #
straight-curve $-1 -53.556321909237951 0 -12.561397560519788 0 1 0 I I #
point $-1 -53.556321909237951 -22.823201798847535 -12.561397560519788 #
straight-curve $-1 -53.556321909237951 -22.823201798847535 -5.2270663718852912 0 0 -1 I I #
straight-curve $-1 -53.556321909237951 -32.009901144422123 0 0 0 -1 I I #
point $-1 53.556321909237951 -32.009901144422123 -12.561397560519788 #
straight-curve $-1 -53.556321909237951 -1.4489002294415059 44.845339319126921 0 0 -1 I I #
point $-1 -53.556321909237951 -1.4489002294415059 12.561397560519788 #
straight-curve $-1 -53.556321909237951 -2.5366691867883304 8.8517409283232364 0 -1 0 I I #
point $-1 -53.556321909237951 -1.4489002294415059 8.8517409283232382 #
point $-1 -49.915854690134658 -5.0733383735766608 8.9732731163605912 #
straight-curve $-1 53.556321909237951 -4.0533386451346232 78.700781166655247 0 0 -1 I I #
point $-1 53.556321909237951 -4.0533386451346232 12.561397560519788 #
straight-curve $-1 53.556321909237958 -0.023180190772942311 7.7863805812222679 0 1 0 I I #
point $-1 53.556321909237951 -4.0533386451346232 7.7863805812222608 #
point $-1 49.060634798263614 -2.4505473396991277 8.5090675569751593 #
point $-1 49.060634798263614 -0.046360381545884621 8.5090675569751593 #
point $-1 49.060634798263614 2.3578265766073585 8.5090675569751593 #
straight-curve $-1 0 -32.009901144422123 -12.561397560519788 -1 0 0 I I #
point $-1 -53.556321909237951 -32.009901144422123 -12.561397560519788 #
End-of-ACIS-data 