500 0 12 0           
7 Unknown 11 ACIS 5.0 NT 24 Thu Mar 25 22:45:49 1999 
-1 9.9999999999999995e-007 1e-010 
body $-1 $12 $-1 $13 #
body $-1 $14 $-1 $15 #
body $-1 $16 $-1 $17 #
body $-1 $18 $-1 $19 #
body $-1 $20 $-1 $21 #
body $-1 $22 $-1 $23 #
body $-1 $24 $-1 $25 #
body $-1 $26 $-1 $27 #
body $-1 $28 $-1 $29 #
body $-1 $30 $-1 $31 #
body $-1 $32 $-1 $33 #
body $-1 $34 $-1 $35 #
lump $-1 $-1 $36 $0 #
transform $-1 1 0 0 0 1 0 0 0 1 48.507339701528977 20.614472085077406 7.4176742795832737 1 rotate no_reflect no_shear #
lump $-1 $-1 $37 $1 #
transform $-1 1 0 0 0 1 0 0 0 1 48.507339701528977 20.614472085077406 7.4176742795832737 1 rotate no_reflect no_shear #
lump $-1 $-1 $38 $2 #
transform $-1 1 0 0 0 1 0 0 0 1 48.507339701528977 20.614472085077406 7.4176742795832737 1 rotate no_reflect no_shear #
lump $-1 $-1 $39 $3 #
transform $-1 1 0 0 0 1 0 0 0 1 48.507339701528977 20.614472085077406 7.4176742795832737 1 rotate no_reflect no_shear #
lump $-1 $-1 $40 $4 #
transform $-1 1 0 0 0 1 0 0 0 1 48.507339701528977 20.614472085077406 7.4176742795832737 1 rotate no_reflect no_shear #
lump $-1 $-1 $41 $5 #
transform $-1 1 0 0 0 1 0 0 0 1 48.507339701528977 20.614472085077406 7.4176742795832737 1 rotate no_reflect no_shear #
lump $-1 $-1 $42 $6 #
transform $-1 1 0 0 0 1 0 0 0 1 48.507339701528977 20.614472085077406 7.4176742795832737 1 rotate no_reflect no_shear #
lump $-1 $-1 $43 $7 #
transform $-1 1 0 0 0 1 0 0 0 1 48.507339701528977 20.614472085077406 7.4176742795832737 1 rotate no_reflect no_shear #
lump $-1 $-1 $44 $8 #
transform $-1 1 0 0 0 1 0 0 0 1 48.507339701528977 20.614472085077406 7.4176742795832737 1 rotate no_reflect no_shear #
lump $-1 $-1 $45 $9 #
transform $-1 1 0 0 0 1 0 0 0 1 48.507339701528977 20.614472085077406 7.4176742795832737 1 rotate no_reflect no_shear #
lump $-1 $-1 $46 $10 #
transform $-1 1 0 0 0 1 0 0 0 1 48.507339701528977 20.614472085077406 7.4176742795832737 1 rotate no_reflect no_shear #
lump $-1 $-1 $47 $11 #
transform $-1 1 0 0 0 1 0 0 0 1 48.507339701528977 20.614472085077406 7.4176742795832737 1 rotate no_reflect no_shear #
shell $-1 $-1 $-1 $48 $-1 $12 #
shell $-1 $-1 $-1 $49 $-1 $14 #
shell $-1 $-1 $-1 $50 $-1 $16 #
shell $-1 $-1 $-1 $51 $-1 $18 #
shell $-1 $-1 $-1 $52 $-1 $20 #
shell $-1 $-1 $-1 $53 $-1 $22 #
shell $-1 $-1 $-1 $54 $-1 $24 #
shell $-1 $-1 $-1 $55 $-1 $26 #
shell $-1 $-1 $-1 $56 $-1 $28 #
shell $-1 $-1 $-1 $57 $-1 $30 #
shell $-1 $-1 $-1 $58 $-1 $32 #
shell $-1 $-1 $-1 $59 $-1 $34 #
face $-1 $60 $61 $36 $-1 $62 reversed single #
face $-1 $63 $64 $37 $-1 $65 forward single #
face $-1 $66 $67 $38 $-1 $68 reversed single #
face $-1 $69 $70 $39 $-1 $71 forward single #
face $-1 $72 $73 $40 $-1 $74 forward single #
face $-1 $75 $76 $41 $-1 $77 forward single #
face $-1 $78 $79 $42 $-1 $80 reversed single #
face $-1 $81 $82 $43 $-1 $83 forward single #
face $-1 $84 $85 $44 $-1 $86 forward single #
face $-1 $87 $88 $45 $-1 $89 forward single #
face $-1 $90 $91 $46 $-1 $92 reversed single #
face $-1 $93 $94 $47 $-1 $95 forward single #
face $-1 $96 $97 $36 $-1 $98 forward single #
loop $-1 $-1 $99 $48 #
plane-surface $-1 0 -20.614472085077406 0 0 1 0 0 0 1 forward_v I I I I #
face $-1 $100 $101 $37 $-1 $102 reversed single #
loop $-1 $-1 $103 $49 #
plane-surface $-1 0 -20.614472085077406 0 0 1 0 0 0 1 forward_v I I I I #
face $-1 $104 $105 $38 $-1 $106 reversed single #
loop $-1 $-1 $107 $50 #
plane-surface $-1 69.970068120158814 -2.0462159832390796 136.55356546738744 0 -1 0 -0.80901700255871778 0 -0.5877852410284794 forward_v I I I I #
face $-1 $108 $109 $39 $-1 $110 forward single #
loop $-1 $111 $112 $51 #
cone-surface $-1 45.649160550005583 -7.9016024035488019 3.8362865812314482 -0.80901700255871778 0 -0.5877852410284794 0.2938926205142397 0 -0.40450850127935889 1 I I 0 1 0.5 forward I I I I #
face $-1 $113 $114 $40 $-1 $115 forward single #
loop $-1 $116 $117 $52 #
cone-surface $-1 45.649160550005583 -5.7058324959326558 3.8362865812314482 -0.80901700255871778 0 -0.5877852410284794 0.2938926205142397 0 -0.40450850127935889 1 I I 0 1 0.5 forward I I I I #
face $-1 $118 $119 $41 $-1 $120 forward single #
loop $-1 $121 $122 $53 #
cone-surface $-1 45.649160550005583 -3.5100625883165115 3.8362865812314482 -0.80901700255871778 0 -0.5877852410284794 0.2938926205142397 0 -0.40450850127935889 1 I I 0 1 0.5 forward I I I I #
face $-1 $123 $124 $42 $-1 $125 reversed single #
loop $-1 $-1 $126 $54 #
plane-surface $-1 69.970068120158814 15.39631578167887 136.55356546738744 0 -1 0 -0.80901700255871778 0 -0.5877852410284794 forward_v I I I I #
face $-1 $127 $128 $43 $-1 $129 forward single #
loop $-1 $130 $131 $55 #
cone-surface $-1 45.649160550005583 9.5409293613691482 3.8362865812314482 -0.80901700255871778 0 -0.5877852410284794 0.2938926205142397 0 -0.40450850127935889 1 I I 0 1 0.5 forward I I I I #
face $-1 $132 $133 $44 $-1 $134 forward single #
loop $-1 $135 $136 $56 #
cone-surface $-1 45.649160550005583 11.736699268985294 3.8362865812314482 -0.80901700255871778 0 -0.5877852410284794 0.2938926205142397 0 -0.40450850127935889 1 I I 0 1 0.5 forward I I I I #
face $-1 $137 $138 $45 $-1 $139 forward single #
loop $-1 $140 $141 $57 #
cone-surface $-1 45.649160550005583 13.932469176601433 3.8362865812314482 -0.80901700255871778 0 -0.5877852410284794 0.2938926205142397 0 -0.40450850127935889 1 I I 0 1 0.5 forward I I I I #
face $-1 $142 $143 $46 $-1 $144 reversed single #
loop $-1 $-1 $145 $58 #
plane-surface $-1 -128.93615479934576 5.3320170001814411 57.797324887157608 0 1 0 -0.82903758062907751 0 0.55919289150049634 forward_v I I I I #
face $-1 $146 $147 $47 $-1 $148 forward single #
loop $-1 $149 $150 $59 #
cone-surface $-1 -45.93429314403182 9.4902690977803239 4.6274102595429341 0.82903758062907751 0 -0.55919289150049634 0.55919289150049634 0 0.82903758062907751 1 I I 0 1 1 forward I I I I #
face $-1 $151 $152 $36 $-1 $153 reversed single #
loop $-1 $-1 $154 $60 #
plane-surface $-1 0 0 7.4176742795832737 0 0 1 1 0 0 forward_v I I I I #
coedge $-1 $155 $156 $157 $158 reversed $61 $-1 #
face $-1 $159 $160 $37 $-1 $161 reversed single #
loop $-1 $-1 $162 $63 #
plane-surface $-1 0 0 -7.4176742795832737 0 0 1 1 0 0 forward_v I I I I #
coedge $-1 $163 $164 $165 $166 forward $64 $-1 #
face $-1 $167 $168 $38 $-1 $169 reversed single #
loop $-1 $-1 $170 $66 #
plane-surface $-1 -8.5164570146981049 -5.7058324959326558 79.529768751160361 0.80901700255871778 0 0.5877852410284794 0.5877852410284794 0 -0.80901700255871778 forward_v I I I I #
coedge $-1 $171 $172 $173 $174 reversed $67 $-1 #
face $-1 $-1 $175 $39 $-1 $176 forward single #
loop $-1 $177 $178 $69 #
cone-surface $-1 44.904374564389414 -7.9016024035488019 3.2951679042624065 -0.80901700255871778 0 -0.5877852410284794 0.14694631025711985 0 -0.20225425063967944 1 I I -0.70710678118654746 0.70710678118654746 0.25 forward I I I I #
loop $-1 $-1 $179 $51 #
coedge $-1 $112 $112 $180 $181 reversed $70 $-1 #
face $-1 $-1 $182 $40 $-1 $183 forward single #
loop $-1 $184 $185 $72 #
cone-surface $-1 44.904374564389414 -5.7058324959326558 3.2951679042624065 -0.80901700255871778 0 -0.5877852410284794 0.14694631025711985 0 -0.20225425063967944 1 I I -0.70710678118654746 0.70710678118654746 0.25 forward I I I I #
loop $-1 $-1 $186 $52 #
coedge $-1 $117 $117 $187 $188 reversed $73 $-1 #
face $-1 $-1 $189 $41 $-1 $190 forward single #
loop $-1 $191 $192 $75 #
cone-surface $-1 44.904374564389414 -3.5100625883165115 3.2951679042624065 -0.80901700255871778 0 -0.5877852410284794 0.14694631025711985 0 -0.20225425063967944 1 I I -0.70710678118654746 0.70710678118654746 0.25 forward I I I I #
loop $-1 $-1 $193 $53 #
coedge $-1 $122 $122 $194 $195 reversed $76 $-1 #
face $-1 $196 $197 $42 $-1 $198 reversed single #
loop $-1 $-1 $199 $78 #
plane-surface $-1 -8.5164570146981049 11.736699268985294 79.529768751160361 0.80901700255871778 0 0.5877852410284794 0.5877852410284794 0 -0.80901700255871778 forward_v I I I I #
coedge $-1 $200 $201 $202 $203 reversed $79 $-1 #
face $-1 $-1 $204 $43 $-1 $205 forward single #
loop $-1 $206 $207 $81 #
cone-surface $-1 44.904374564389414 9.5409293613691482 3.2951679042624065 -0.80901700255871778 0 -0.5877852410284794 0.14694631025711985 0 -0.20225425063967944 1 I I -0.70710678118654746 0.70710678118654746 0.25 forward I I I I #
loop $-1 $-1 $208 $55 #
coedge $-1 $131 $131 $209 $210 reversed $82 $-1 #
face $-1 $-1 $211 $44 $-1 $212 forward single #
loop $-1 $213 $214 $84 #
cone-surface $-1 44.904374564389414 11.736699268985294 3.2951679042624065 -0.80901700255871778 0 -0.5877852410284794 0.14694631025711985 0 -0.20225425063967944 1 I I -0.70710678118654746 0.70710678118654746 0.25 forward I I I I #
loop $-1 $-1 $215 $56 #
coedge $-1 $136 $136 $216 $217 reversed $85 $-1 #
face $-1 $-1 $218 $45 $-1 $219 forward single #
loop $-1 $220 $221 $87 #
cone-surface $-1 44.904374564389414 13.932469176601433 3.2951679042624065 -0.80901700255871778 0 -0.5877852410284794 0.14694631025711985 0 -0.20225425063967944 1 I I -0.70710678118654746 0.70710678118654746 0.25 forward I I I I #
loop $-1 $-1 $222 $57 #
coedge $-1 $141 $141 $223 $224 reversed $88 $-1 #
face $-1 $225 $226 $46 $-1 $227 reversed single #
loop $-1 $-1 $228 $90 #
plane-surface $-1 -48.507339701528991 9.4902690977803239 3.5474057937679859 -0.82903758062907751 0 0.55919289150049634 0.55919289150049634 0 0.82903758062907751 forward_v I I I I #
coedge $-1 $229 $230 $231 $232 reversed $91 $-1 #
face $-1 $-1 $233 $47 $-1 $234 forward single #
loop $-1 $235 $236 $93 #
cone-surface $-1 -44.251992283641847 9.4902690977803239 3.4926840366599947 0.82903758062907751 0 -0.55919289150049634 0.27959644575024817 0 0.41451879031453875 1 I I -0.70710678118654746 0.70710678118654746 0.5 forward I I I I #
loop $-1 $-1 $237 $59 #
coedge $-1 $150 $150 $238 $239 reversed $94 $-1 #
face $-1 $240 $241 $36 $-1 $242 reversed single #
loop $-1 $-1 $243 $96 #
plane-surface $-1 0 0 -7.4176742795832737 0 0 1 1 0 0 forward_v I I I I #
coedge $-1 $244 $245 $246 $247 forward $97 $-1 #
coedge $-1 $248 $99 $249 $250 reversed $61 $-1 #
coedge $-1 $99 $248 $251 $252 forward $61 $-1 #
coedge $-1 $253 $243 $99 $158 forward $152 $-1 #
edge $-1 $254 -48.507339701528977 $255 48.507339701528977 $99 $256 forward 7 unknown #
face $-1 $257 $258 $37 $-1 $259 reversed single #
loop $-1 $-1 $260 $100 #
plane-surface $-1 -35.573892154353729 -26.95835272539632 0 0 1 0 0 0 1 forward_v I I I I #
coedge $-1 $261 $262 $164 $263 forward $101 $-1 #
coedge $-1 $264 $103 $265 $266 reversed $64 $-1 #
coedge $-1 $103 $264 $162 $263 reversed $64 $-1 #
coedge $-1 $267 $268 $103 $166 reversed $258 $-1 #
edge $-1 $269 -7.4176742795832737 $270 7.4176742795832737 $165 $271 forward 7 unknown #
face $-1 $272 $273 $38 $-1 $274 forward single #
loop $-1 $-1 $275 $104 #
plane-surface $-1 69.970068120158814 -9.3654490086262321 136.55356546738744 0 1 0 0.80901700255871778 0 0.5877852410284794 forward_v I I I I #
coedge $-1 $276 $277 $278 $279 reversed $105 $-1 #
coedge $-1 $172 $107 $280 $281 reversed $67 $-1 #
coedge $-1 $107 $171 $276 $282 reversed $67 $-1 #
coedge $-1 $278 $283 $107 $174 forward $273 $-1 #
edge $-1 $284 -13.52230564144957 $285 -8.891010808355702 $173 $286 forward 7 unknown #
loop $-1 $-1 $180 $108 #
plane-surface $-1 -8.5164570146981049 -5.7058324959326558 79.529768751160361 0.80901700255871778 0 0.5877852410284794 0.5877852410284794 0 -0.80901700255871778 forward_v I I I I #
loop $-1 $-1 $287 $69 #
coedge $-1 $178 $178 $179 $288 reversed $109 $-1 #
coedge $-1 $179 $179 $178 $288 forward $111 $-1 #
coedge $-1 $180 $180 $112 $181 forward $175 $-1 #
edge $-1 $289 0 $289 6.2831853071796004 $180 $290 forward 7 unknown #
loop $-1 $-1 $187 $113 #
plane-surface $-1 -8.5164570146981049 -5.7058324959326558 79.529768751160361 0.80901700255871778 0 0.5877852410284794 0.5877852410284794 0 -0.80901700255871778 forward_v I I I I #
loop $-1 $-1 $291 $72 #
coedge $-1 $185 $185 $186 $292 reversed $114 $-1 #
coedge $-1 $186 $186 $185 $292 forward $116 $-1 #
coedge $-1 $187 $187 $117 $188 forward $182 $-1 #
edge $-1 $293 0 $293 6.2831853071796004 $187 $294 forward 7 unknown #
loop $-1 $-1 $194 $118 #
plane-surface $-1 -8.5164570146981049 -5.7058324959326558 79.529768751160361 0.80901700255871778 0 0.5877852410284794 0.5877852410284794 0 -0.80901700255871778 forward_v I I I I #
loop $-1 $-1 $295 $75 #
coedge $-1 $192 $192 $193 $296 reversed $119 $-1 #
coedge $-1 $193 $193 $192 $296 forward $121 $-1 #
coedge $-1 $194 $194 $122 $195 forward $189 $-1 #
edge $-1 $297 0 $297 6.2831853071796004 $194 $298 forward 7 unknown #
face $-1 $299 $300 $42 $-1 $301 reversed single #
loop $-1 $-1 $302 $123 #
plane-surface $-1 69.970068120158814 8.077082756291718 136.55356546738744 0 1 0 0.80901700255871778 0 0.5877852410284794 forward_v I I I I #
coedge $-1 $303 $304 $305 $306 reversed $124 $-1 #
coedge $-1 $201 $126 $307 $308 reversed $79 $-1 #
coedge $-1 $126 $200 $303 $309 reversed $79 $-1 #
coedge $-1 $305 $310 $126 $203 forward $311 $-1 #
edge $-1 $312 -13.52230564144957 $313 -8.891010808355702 $202 $314 forward 7 unknown #
loop $-1 $-1 $209 $127 #
plane-surface $-1 -8.5164570146981049 11.736699268985294 79.529768751160361 0.80901700255871778 0 0.5877852410284794 0.5877852410284794 0 -0.80901700255871778 forward_v I I I I #
loop $-1 $-1 $315 $81 #
coedge $-1 $207 $207 $208 $316 reversed $128 $-1 #
coedge $-1 $208 $208 $207 $316 forward $130 $-1 #
coedge $-1 $209 $209 $131 $210 forward $204 $-1 #
edge $-1 $317 0 $317 6.2831853071796004 $209 $318 forward 7 unknown #
loop $-1 $-1 $216 $132 #
plane-surface $-1 -8.5164570146981049 11.736699268985294 79.529768751160361 0.80901700255871778 0 0.5877852410284794 0.5877852410284794 0 -0.80901700255871778 forward_v I I I I #
loop $-1 $-1 $319 $84 #
coedge $-1 $214 $214 $215 $320 reversed $133 $-1 #
coedge $-1 $215 $215 $214 $320 forward $135 $-1 #
coedge $-1 $216 $216 $136 $217 forward $211 $-1 #
edge $-1 $321 0 $321 6.2831853071796004 $216 $322 forward 7 unknown #
loop $-1 $-1 $223 $137 #
plane-surface $-1 -8.5164570146981049 11.736699268985294 79.529768751160361 0.80901700255871778 0 0.5877852410284794 0.5877852410284794 0 -0.80901700255871778 forward_v I I I I #
loop $-1 $-1 $323 $87 #
coedge $-1 $221 $221 $222 $324 reversed $138 $-1 #
coedge $-1 $222 $222 $221 $324 forward $140 $-1 #
coedge $-1 $223 $223 $141 $224 forward $218 $-1 #
edge $-1 $325 0 $325 6.2831853071796004 $223 $326 forward 7 unknown #
face $-1 $327 $328 $46 $-1 $329 reversed single #
loop $-1 $-1 $330 $142 #
plane-surface $-1 -128.93615479934576 13.648521195379207 57.797324887157608 0 -1 0 0.82903758062907751 0 -0.55919289150049634 forward_v I I I I #
coedge $-1 $331 $332 $333 $334 reversed $143 $-1 #
coedge $-1 $230 $145 $335 $336 reversed $91 $-1 #
coedge $-1 $145 $229 $331 $337 reversed $91 $-1 #
coedge $-1 $333 $338 $145 $232 forward $339 $-1 #
edge $-1 $340 15.960737698143902 $341 18.571266672987313 $231 $342 forward 7 unknown #
loop $-1 $-1 $238 $146 #
plane-surface $-1 -48.507339701528991 9.4902690977803239 3.5474057937679859 -0.82903758062907751 0 0.55919289150049634 0.55919289150049634 0 0.82903758062907751 forward_v I I I I #
loop $-1 $-1 $343 $93 #
coedge $-1 $236 $236 $237 $344 reversed $147 $-1 #
coedge $-1 $237 $237 $236 $344 forward $149 $-1 #
coedge $-1 $238 $238 $150 $239 forward $233 $-1 #
edge $-1 $345 0 $345 6.2831853071796004 $238 $346 forward 7 unknown #
face $-1 $347 $348 $36 $-1 $349 reversed single #
loop $-1 $-1 $350 $151 #
plane-surface $-1 -48.507339701528977 0 0 1 0 0 0 0 -1 forward_v I I I I #
coedge $-1 $157 $351 $352 $353 forward $152 $-1 #
coedge $-1 $354 $154 $355 $356 forward $97 $-1 #
coedge $-1 $154 $354 $248 $357 forward $97 $-1 #
coedge $-1 $249 $358 $154 $247 reversed $359 $-1 #
edge $-1 $360 -20.614472085077406 $361 20.614472085077406 $246 $362 forward 7 unknown #
coedge $-1 $156 $155 $245 $357 reversed $61 $-1 #
coedge $-1 $352 $246 $155 $250 forward $359 $-1 #
edge $-1 $360 -7.4176742795832737 $254 7.4176742795832737 $249 $363 forward 7 unknown #
coedge $-1 $364 $365 $156 $252 reversed $241 $-1 #
edge $-1 $366 -7.4176742795832737 $255 7.4176742795832737 $251 $367 forward 7 unknown #
coedge $-1 $351 $157 $365 $368 forward $152 $-1 #
vertex $-1 $250 $369 #
vertex $-1 $368 $370 #
straight-curve $-1 0 -20.614472085077406 -7.4176742795832737 -1 0 0 I I #
face $-1 $371 $372 $37 $-1 $373 reversed single #
loop $-1 $-1 $165 $159 #
plane-surface $-1 -37.475793166345028 -23.786412405236863 0 1 0 0 0 0 -1 forward_v I I I I #
coedge $-1 $374 $375 $376 $377 forward $160 $-1 #
coedge $-1 $378 $162 $379 $380 forward $101 $-1 #
coedge $-1 $162 $378 $267 $381 forward $101 $-1 #
edge $-1 $269 -37.475793166345028 $382 -33.67199114236243 $162 $383 forward 7 unknown #
coedge $-1 $164 $163 $384 $385 forward $64 $-1 #
coedge $-1 $386 $387 $163 $266 forward $388 $-1 #
edge $-1 $389 33.67199114236243 $270 37.475793166345028 $265 $390 forward 7 unknown #
coedge $-1 $376 $165 $262 $381 reversed $258 $-1 #
coedge $-1 $165 $376 $386 $391 reversed $258 $-1 #
vertex $-1 $263 $392 #
vertex $-1 $391 $393 #
straight-curve $-1 -37.475793166345028 -20.614472085077406 0 0 0 1 I I #
face $-1 $-1 $394 $38 $-1 $395 reversed single #
loop $-1 $-1 $173 $167 #
plane-surface $-1 0 0 7.4176742795832737 0 0 1 1 0 0 forward_v I I I I #
coedge $-1 $396 $397 $398 $399 reversed $168 $-1 #
coedge $-1 $400 $170 $172 $282 forward $105 $-1 #
coedge $-1 $170 $400 $396 $401 forward $105 $-1 #
coedge $-1 $398 $173 $170 $279 forward $273 $-1 #
edge $-1 $285 -0.80670026472724832 $402 6.5125327606599042 $278 $403 forward 7 unknown #
coedge $-1 $404 $405 $171 $281 forward $394 $-1 #
edge $-1 $406 -67.233539117390293 $284 -60.859108454110448 $280 $407 forward 7 unknown #
edge $-1 $285 89.135449865088887 $406 97.014679403057968 $172 $408 forward 7 unknown #
coedge $-1 $173 $398 $404 $409 forward $273 $-1 #
vertex $-1 $174 $410 #
vertex $-1 $174 $411 #
straight-curve $-1 34.985034060079407 -2.0462159832390796 7.4176742795832666 -1 0 0 I I #
coedge $-1 $287 $287 $-1 $412 reversed $177 $-1 #
edge $-1 $413 0 $413 6.2831853071796004 $178 $414 forward 7 unknown #
vertex $-1 $181 $415 #
ellipse-curve $-1 46.191692284982054 -7.9016024035488019 4.2304589479433545 0.80901700255871778 0 0.5877852410284794 0.2938926205142397 0 -0.40450850127935889 1 I I #
coedge $-1 $291 $291 $-1 $416 reversed $184 $-1 #
edge $-1 $417 0 $417 6.2831853071796004 $185 $418 forward 7 unknown #
vertex $-1 $188 $419 #
ellipse-curve $-1 46.191692284982054 -5.7058324959326558 4.2304589479433545 0.80901700255871778 0 0.5877852410284794 0.2938926205142397 0 -0.40450850127935889 1 I I #
coedge $-1 $295 $295 $-1 $420 reversed $191 $-1 #
edge $-1 $421 0 $421 6.2831853071796004 $192 $422 forward 7 unknown #
vertex $-1 $195 $423 #
ellipse-curve $-1 46.191692284982054 -3.5100625883165115 4.2304589479433545 0.80901700255871778 0 0.5877852410284794 0.2938926205142397 0 -0.40450850127935889 1 I I #
face $-1 $-1 $311 $42 $-1 $424 forward single #
loop $-1 $-1 $425 $196 #
plane-surface $-1 48.507339701528977 0 0 -1 0 0 0 0 1 forward_v I I I I #
coedge $-1 $426 $427 $428 $429 reversed $197 $-1 #
coedge $-1 $430 $199 $201 $309 forward $124 $-1 #
coedge $-1 $199 $430 $426 $431 forward $124 $-1 #
coedge $-1 $428 $202 $199 $306 forward $311 $-1 #
edge $-1 $313 -9.5279661471862234 $432 -2.2087331217990709 $305 $433 forward 7 unknown #
coedge $-1 $434 $435 $200 $308 forward $300 $-1 #
edge $-1 $436 -67.233539117390293 $312 -60.859108454110448 $307 $437 forward 7 unknown #
edge $-1 $313 89.135449865088887 $436 97.014679403057968 $201 $438 forward 7 unknown #
coedge $-1 $202 $428 $434 $439 forward $311 $-1 #
loop $-1 $-1 $428 $299 #
vertex $-1 $308 $440 #
vertex $-1 $203 $441 #
straight-curve $-1 34.985034060079407 15.39631578167887 7.4176742795832666 -1 0 0 I I #
coedge $-1 $315 $315 $-1 $442 reversed $206 $-1 #
edge $-1 $443 0 $443 6.2831853071796004 $207 $444 forward 7 unknown #
vertex $-1 $210 $445 #
ellipse-curve $-1 46.191692284982054 9.5409293613691482 4.2304589479433545 0.80901700255871778 0 0.5877852410284794 0.2938926205142397 0 -0.40450850127935889 1 I I #
coedge $-1 $319 $319 $-1 $446 reversed $213 $-1 #
edge $-1 $447 0 $447 6.2831853071796004 $214 $448 forward 7 unknown #
vertex $-1 $217 $449 #
ellipse-curve $-1 46.191692284982054 11.736699268985294 4.2304589479433545 0.80901700255871778 0 0.5877852410284794 0.2938926205142397 0 -0.40450850127935889 1 I I #
coedge $-1 $323 $323 $-1 $450 reversed $220 $-1 #
edge $-1 $451 0 $451 6.2831853071796004 $221 $452 forward 7 unknown #
vertex $-1 $224 $453 #
ellipse-curve $-1 46.191692284982054 13.932469176601433 4.2304589479433545 0.80901700255871778 0 0.5877852410284794 0.2938926205142397 0 -0.40450850127935889 1 I I #
face $-1 $-1 $339 $46 $-1 $454 forward single #
loop $-1 $-1 $455 $225 #
plane-surface $-1 -48.507339701528977 0 0 1 0 0 0 0 -1 forward_v I I I I #
coedge $-1 $456 $457 $458 $459 reversed $226 $-1 #
coedge $-1 $460 $228 $230 $337 forward $143 $-1 #
coedge $-1 $228 $460 $456 $461 forward $143 $-1 #
coedge $-1 $458 $231 $228 $334 forward $339 $-1 #
edge $-1 $341 0.58688245129127914 $462 8.9033866464890448 $333 $463 forward 7 unknown #
coedge $-1 $464 $465 $229 $336 forward $328 $-1 #
edge $-1 $466 -25.351256649810797 $340 -21.48098816399553 $335 $467 forward 7 unknown #
edge $-1 $341 -4.6683872676537916 $466 -2.5250441212413278e-014 $230 $468 forward 7 unknown #
coedge $-1 $231 $458 $464 $469 forward $339 $-1 #
loop $-1 $-1 $458 $327 #
vertex $-1 $336 $470 #
vertex $-1 $232 $471 #
straight-curve $-1 -64.468077399672879 5.3320170001814411 7.4176742795832737 1 0 0 I I #
coedge $-1 $343 $343 $-1 $472 reversed $235 $-1 #
edge $-1 $473 0 $473 6.2831853071796004 $236 $474 forward 7 unknown #
vertex $-1 $239 $475 #
ellipse-curve $-1 -47.202075214107275 9.4902690977803239 5.4825400366756369 -0.82903758062907751 0 0.55919289150049634 0.55919289150049634 0 0.82903758062907751 1 I I #
face $-1 $-1 $359 $36 $-1 $476 reversed single #
loop $-1 $-1 $477 $240 #
plane-surface $-1 0 20.614472085077406 0 0 -1 0 0 0 -1 forward_v I I I I #
coedge $-1 $365 $364 $478 $479 forward $241 $-1 #
coedge $-1 $243 $253 $480 $481 forward $152 $-1 #
coedge $-1 $358 $249 $243 $353 reversed $359 $-1 #
edge $-1 $482 -20.614472085077406 $254 20.614472085077406 $352 $483 forward 7 unknown #
coedge $-1 $245 $244 $364 $484 forward $97 $-1 #
coedge $-1 $477 $478 $244 $356 reversed $348 $-1 #
edge $-1 $361 -48.507339701528977 $485 48.507339701528977 $355 $486 forward 7 unknown #
edge $-1 $366 -48.507339701528977 $360 48.507339701528977 $248 $487 forward 7 unknown #
coedge $-1 $246 $352 $477 $488 reversed $359 $-1 #
loop $-1 $-1 $249 $347 #
vertex $-1 $247 $489 #
vertex $-1 $247 $490 #
straight-curve $-1 48.507339701528977 0 7.4176742795832737 0 1 0 I I #
straight-curve $-1 48.507339701528977 -20.614472085077406 0 0 0 -1 I I #
coedge $-1 $350 $251 $354 $484 reversed $241 $-1 #
coedge $-1 $251 $350 $253 $368 reversed $241 $-1 #
vertex $-1 $484 $491 #
straight-curve $-1 -48.507339701528977 -20.614472085077406 0 0 0 -1 I I #
edge $-1 $255 -20.614472085077406 $492 20.614472085077406 $365 $493 forward 7 unknown #
point $-1 48.507339701528977 -20.614472085077406 -7.4176742795832737 #
point $-1 -48.507339701528977 -20.614472085077406 -7.4176742795832737 #
face $-1 $-1 $388 $37 $-1 $494 forward single #
loop $-1 $-1 $495 $257 #
plane-surface $-1 -33.67199114236243 -23.786412405236863 0 -1 0 0 0 0 1 forward_v I I I I #
coedge $-1 $496 $260 $378 $497 reversed $160 $-1 #
coedge $-1 $260 $496 $498 $499 reversed $160 $-1 #
coedge $-1 $268 $267 $260 $377 reversed $258 $-1 #
edge $-1 $500 -7.4176742795832737 $501 7.4176742795832737 $376 $502 forward 7 unknown #
coedge $-1 $262 $261 $374 $497 forward $101 $-1 #
coedge $-1 $384 $495 $261 $380 reversed $372 $-1 #
edge $-1 $382 -3.1719403201594574 $503 3.1719403201594574 $379 $504 forward 7 unknown #
edge $-1 $501 -3.1719403201594574 $269 3.1719403201594574 $267 $505 forward 7 unknown #
vertex $-1 $380 $506 #
straight-curve $-1 0 -20.614472085077406 -7.4176742795832737 1 0 0 I I #
coedge $-1 $507 $379 $264 $385 reversed $372 $-1 #
edge $-1 $389 -7.4176742795832737 $382 7.4176742795832737 $384 $508 forward 7 unknown #
coedge $-1 $498 $265 $268 $391 forward $388 $-1 #
coedge $-1 $265 $498 $507 $509 forward $388 $-1 #
loop $-1 $-1 $265 $371 #
vertex $-1 $266 $510 #
straight-curve $-1 0 -20.614472085077406 7.4176742795832737 -1 0 0 I I #
edge $-1 $270 -3.1719403201594574 $500 3.1719403201594574 $268 $511 forward 7 unknown #
point $-1 -37.475793166345028 -20.614472085077406 -7.4176742795832737 #
point $-1 -37.475793166345028 -20.614472085077406 7.4176742795832737 #
loop $-1 $-1 $280 $272 #
plane-surface $-1 48.507339701528977 0 0 -1 0 0 0 0 1 forward_v I I I I #
coedge $-1 $397 $275 $277 $401 reversed $168 $-1 #
coedge $-1 $275 $396 $512 $513 reversed $168 $-1 #
coedge $-1 $283 $278 $275 $399 forward $273 $-1 #
edge $-1 $402 8.891010808355702 $514 13.52230564144957 $398 $515 forward 7 unknown #
coedge $-1 $277 $276 $405 $516 reversed $105 $-1 #
edge $-1 $517 -97.014679403057968 $402 -89.135449865088887 $396 $518 forward 7 unknown #
vertex $-1 $279 $519 #
straight-curve $-1 43.876044868435116 -2.8529162479663279 7.4176742795832737 0 -1 0 I I #
coedge $-1 $512 $280 $283 $409 reversed $394 $-1 #
coedge $-1 $280 $512 $400 $516 forward $394 $-1 #
vertex $-1 $281 $520 #
straight-curve $-1 48.507339701528977 -2.0462159832390796 68.276782733693722 0 0 1 I I #
straight-curve $-1 -8.5164570146981049 -2.0462159832390796 79.529768751160361 0.5877852410284794 0 -0.80901700255871778 I I #
edge $-1 $514 -9.3654490086262321 $284 -2.0462159832390796 $404 $521 forward 7 unknown #
point $-1 48.507339701528977 -2.0462159832390796 7.4176742795832737 #
point $-1 43.876044868435109 -2.0462159832390796 7.4176742795832808 #
edge $-1 $522 1 $522 0 $287 $-1 forward 7 unknown #
vertex $-1 $288 $523 #
ellipse-curve $-1 45.10662881502909 -7.9016024035488019 3.4421142145195263 0.80901700255871778 0 0.5877852410284794 0.2938926205142397 0 -0.40450850127935889 1 I I #
point $-1 46.48558490549631 -7.9016024035488019 3.8259504466640113 #
edge $-1 $524 1 $524 0 $291 $-1 forward 7 unknown #
vertex $-1 $292 $525 #
ellipse-curve $-1 45.10662881502909 -5.7058324959326558 3.4421142145195263 0.80901700255871778 0 0.5877852410284794 0.2938926205142397 0 -0.40450850127935889 1 I I #
point $-1 46.48558490549631 -5.7058324959326558 3.8259504466640113 #
edge $-1 $526 1 $526 0 $295 $-1 forward 7 unknown #
vertex $-1 $296 $527 #
ellipse-curve $-1 45.10662881502909 -3.5100625883165115 3.4421142145195263 0.80901700255871778 0 0.5877852410284794 0.2938926205142397 0 -0.40450850127935889 1 I I #
point $-1 46.48558490549631 -3.5100625883165115 3.8259504466640113 #
plane-surface $-1 0 0 7.4176742795832737 0 0 1 1 0 0 forward_v I I I I #
coedge $-1 $435 $434 $427 $528 forward $300 $-1 #
coedge $-1 $427 $302 $304 $431 reversed $197 $-1 #
coedge $-1 $302 $426 $425 $528 reversed $197 $-1 #
coedge $-1 $310 $305 $302 $429 forward $311 $-1 #
edge $-1 $432 8.891010808355702 $529 13.52230564144957 $428 $530 forward 7 unknown #
coedge $-1 $304 $303 $435 $531 reversed $124 $-1 #
edge $-1 $532 -97.014679403057968 $432 -89.135449865088887 $426 $533 forward 7 unknown #
vertex $-1 $306 $534 #
straight-curve $-1 43.876044868435116 5.8683496344926471 7.4176742795832737 0 -1 0 I I #
coedge $-1 $425 $307 $310 $439 reversed $300 $-1 #
coedge $-1 $307 $425 $430 $531 forward $300 $-1 #
vertex $-1 $308 $535 #
straight-curve $-1 48.507339701528977 15.39631578167887 68.276782733693722 0 0 1 I I #
straight-curve $-1 -8.5164570146981049 15.39631578167887 79.529768751160361 0.5877852410284794 0 -0.80901700255871778 I I #
edge $-1 $529 8.077082756291718 $312 15.39631578167887 $434 $536 forward 7 unknown #
point $-1 48.507339701528977 15.39631578167887 7.4176742795832737 #
point $-1 43.876044868435109 15.39631578167887 7.4176742795832808 #
edge $-1 $537 1 $537 0 $315 $-1 forward 7 unknown #
vertex $-1 $316 $538 #
ellipse-curve $-1 45.10662881502909 9.5409293613691482 3.4421142145195263 0.80901700255871778 0 0.5877852410284794 0.2938926205142397 0 -0.40450850127935889 1 I I #
point $-1 46.48558490549631 9.5409293613691482 3.8259504466640113 #
edge $-1 $539 1 $539 0 $319 $-1 forward 7 unknown #
vertex $-1 $320 $540 #
ellipse-curve $-1 45.10662881502909 11.736699268985294 3.4421142145195263 0.80901700255871778 0 0.5877852410284794 0.2938926205142397 0 -0.40450850127935889 1 I I #
point $-1 46.48558490549631 11.736699268985294 3.8259504466640113 #
edge $-1 $541 1 $541 0 $323 $-1 forward 7 unknown #
vertex $-1 $324 $542 #
ellipse-curve $-1 45.10662881502909 13.932469176601433 3.4421142145195263 0.80901700255871778 0 0.5877852410284794 0.2938926205142397 0 -0.40450850127935889 1 I I #
point $-1 46.48558490549631 13.932469176601433 3.8259504466640113 #
plane-surface $-1 0 0 7.4176742795832737 0 0 1 1 0 0 forward_v I I I I #
coedge $-1 $465 $464 $457 $543 forward $328 $-1 #
coedge $-1 $457 $330 $332 $461 reversed $226 $-1 #
coedge $-1 $330 $456 $455 $543 reversed $226 $-1 #
coedge $-1 $338 $333 $330 $459 forward $339 $-1 #
edge $-1 $462 -18.571266672987313 $544 -15.960737698143902 $458 $545 forward 7 unknown #
coedge $-1 $332 $331 $465 $546 reversed $143 $-1 #
edge $-1 $547 2.5250441212413278e-014 $462 4.6683872676537916 $456 $548 forward 7 unknown #
vertex $-1 $334 $549 #
straight-curve $-1 -45.896810726685565 4.745134548890162 7.4176742795832737 0 1 0 I I #
coedge $-1 $455 $335 $338 $469 reversed $328 $-1 #
coedge $-1 $335 $455 $460 $546 forward $328 $-1 #
vertex $-1 $336 $550 #
straight-curve $-1 -48.507339701528977 5.3320170001814411 28.898662443578804 0 0 1 I I #
straight-curve $-1 -48.507339701528991 5.3320170001814411 3.5474057937679859 -0.55919289150049634 0 -0.82903758062907751 I I #
edge $-1 $544 -13.648521195379207 $340 -5.3320170001814411 $464 $551 forward 7 unknown #
point $-1 -48.507339701528977 5.3320170001814411 7.4176742795832737 #
point $-1 -45.896810726685565 5.3320170001814411 7.4176742795832737 #
edge $-1 $552 1 $552 0 $343 $-1 forward 7 unknown #
vertex $-1 $344 $553 #
ellipse-curve $-1 -44.666511073956386 9.4902690977803239 3.7722804824102427 -0.82903758062907751 0 0.55919289150049634 0.55919289150049634 0 0.82903758062907751 1 I I #
point $-1 -46.642882322606766 9.4902690977803239 6.3115776173047022 #
plane-surface $-1 48.507339701528977 0 0 -1 0 0 0 0 1 forward_v I I I I #
coedge $-1 $480 $355 $358 $488 forward $348 $-1 #
coedge $-1 $355 $480 $350 $479 reversed $348 $-1 #
edge $-1 $485 -7.4176742795832737 $492 7.4176742795832737 $478 $554 forward 7 unknown #
coedge $-1 $478 $477 $351 $481 reversed $348 $-1 #
edge $-1 $492 -48.507339701528977 $482 48.507339701528977 $480 $555 forward 7 unknown #
vertex $-1 $353 $556 #
straight-curve $-1 48.507339701528977 0 -7.4176742795832737 0 -1 0 I I #
edge $-1 $485 -20.614472085077406 $366 20.614472085077406 $364 $557 forward 7 unknown #
vertex $-1 $356 $558 #
straight-curve $-1 0 20.614472085077406 7.4176742795832737 -1 0 0 I I #
straight-curve $-1 0 -20.614472085077406 7.4176742795832737 1 0 0 I I #
edge $-1 $361 -7.4176742795832737 $482 7.4176742795832737 $358 $559 forward 7 unknown #
point $-1 48.507339701528977 -20.614472085077406 7.4176742795832737 #
point $-1 48.507339701528977 20.614472085077406 7.4176742795832737 #
point $-1 -48.507339701528977 -20.614472085077406 7.4176742795832737 #
vertex $-1 $481 $560 #
straight-curve $-1 -48.507339701528977 0 -7.4176742795832737 0 1 0 I I #
plane-surface $-1 0 0 7.4176742795832737 0 0 1 1 0 0 forward_v I I I I #
coedge $-1 $379 $507 $496 $561 forward $372 $-1 #
coedge $-1 $375 $374 $495 $561 reversed $160 $-1 #
edge $-1 $503 -1.9019010119912991 $501 1.9019010119912991 $374 $562 forward 7 unknown #
coedge $-1 $387 $386 $375 $499 forward $388 $-1 #
edge $-1 $500 -1.9019010119912991 $563 1.9019010119912991 $375 $564 forward 7 unknown #
vertex $-1 $391 $565 #
vertex $-1 $381 $566 #
straight-curve $-1 -37.475793166345028 -26.95835272539632 0 0 0 -1 I I #
vertex $-1 $561 $567 #
straight-curve $-1 -33.67199114236243 -23.786412405236863 -7.4176742795832737 0 -1 0 I I #
straight-curve $-1 -37.475793166345028 -23.786412405236863 -7.4176742795832737 0 1 0 I I #
point $-1 -33.67199114236243 -20.614472085077406 -7.4176742795832737 #
coedge $-1 $495 $384 $387 $509 reversed $372 $-1 #
straight-curve $-1 -33.67199114236243 -20.614472085077406 0 0 0 -1 I I #
edge $-1 $563 -3.1719403201594574 $389 3.1719403201594574 $507 $568 forward 7 unknown #
point $-1 -33.67199114236243 -20.614472085077406 7.4176742795832737 #
straight-curve $-1 -37.475793166345028 -23.786412405236863 7.4176742795832737 0 -1 0 I I #
coedge $-1 $405 $404 $397 $513 forward $394 $-1 #
edge $-1 $514 60.859108454110448 $517 67.233539117390293 $512 $569 forward 7 unknown #
vertex $-1 $409 $570 #
straight-curve $-1 34.985034060079407 -9.3654490086262321 7.4176742795832666 1 0 0 I I #
edge $-1 $517 -6.5125327606599042 $406 0.80670026472724832 $405 $571 forward 7 unknown #
vertex $-1 $516 $572 #
straight-curve $-1 -8.5164570146981049 -9.3654490086262321 79.529768751160361 -0.5877852410284794 0 0.80901700255871778 I I #
point $-1 43.876044868435109 -9.3654490086262321 7.4176742795832808 #
point $-1 48.507339701528977 -2.0462159832390796 1.0432436163034282 #
straight-curve $-1 48.507339701528977 0 7.4176742795832737 0 1 0 I I #
vertex $-1 $412 $573 #
point $-1 45.400521435543332 -7.9016024035488019 3.0376057132401675 #
vertex $-1 $416 $574 #
point $-1 45.400521435543332 -5.7058324959326558 3.0376057132401675 #
vertex $-1 $420 $575 #
point $-1 45.400521435543332 -3.5100625883165115 3.0376057132401675 #
edge $-1 $529 60.859108454110448 $532 67.233539117390293 $425 $576 forward 7 unknown #
vertex $-1 $439 $577 #
straight-curve $-1 34.985034060079407 8.077082756291718 7.4176742795832666 1 0 0 I I #
edge $-1 $532 2.2087331217990709 $436 9.5279661471862234 $435 $578 forward 7 unknown #
vertex $-1 $531 $579 #
straight-curve $-1 -8.5164570146981049 8.077082756291718 79.529768751160361 -0.5877852410284794 0 0.80901700255871778 I I #
point $-1 43.876044868435109 8.077082756291718 7.4176742795832808 #
point $-1 48.507339701528977 15.39631578167887 1.0432436163034282 #
straight-curve $-1 48.507339701528977 0 7.4176742795832737 0 1 0 I I #
vertex $-1 $442 $580 #
point $-1 45.400521435543332 9.5409293613691482 3.0376057132401675 #
vertex $-1 $446 $581 #
point $-1 45.400521435543332 11.736699268985294 3.0376057132401675 #
vertex $-1 $450 $582 #
point $-1 45.400521435543332 13.932469176601433 3.0376057132401675 #
edge $-1 $544 21.48098816399553 $547 25.351256649810797 $455 $583 forward 7 unknown #
vertex $-1 $469 $584 #
straight-curve $-1 -64.468077399672879 13.648521195379207 7.4176742795832737 -1 0 0 I I #
edge $-1 $547 -8.9033866464890448 $466 -0.58688245129127914 $465 $585 forward 7 unknown #
vertex $-1 $546 $586 #
straight-curve $-1 -48.507339701528991 13.648521195379207 3.5474057937679859 0.55919289150049634 0 0.82903758062907751 I I #
point $-1 -45.896810726685565 13.648521195379207 7.4176742795832737 #
point $-1 -48.507339701528977 5.3320170001814411 3.5474057937680068 #
straight-curve $-1 -48.507339701528977 0 7.4176742795832737 0 -1 0 I I #
vertex $-1 $472 $587 #
point $-1 -44.107318182455892 9.4902690977803239 4.6013180630393204 #
straight-curve $-1 -48.507339701528977 20.614472085077406 0 0 0 -1 I I #
straight-curve $-1 0 20.614472085077406 -7.4176742795832737 1 0 0 I I #
point $-1 48.507339701528977 20.614472085077406 -7.4176742795832737 #
straight-curve $-1 -48.507339701528977 0 7.4176742795832737 0 -1 0 I I #
point $-1 -48.507339701528977 20.614472085077406 7.4176742795832737 #
straight-curve $-1 48.507339701528977 20.614472085077406 0 0 0 -1 I I #
point $-1 -48.507339701528977 20.614472085077406 -7.4176742795832737 #
edge $-1 $563 -7.4176742795832737 $503 7.4176742795832737 $495 $588 forward 7 unknown #
straight-curve $-1 -35.573892154353729 -26.95835272539632 -7.4176742795832737 -1 0 0 I I #
vertex $-1 $509 $589 #
straight-curve $-1 -35.573892154353729 -26.95835272539632 7.4176742795832737 1 0 0 I I #
point $-1 -37.475793166345028 -26.95835272539632 7.4176742795832737 #
point $-1 -37.475793166345028 -26.95835272539632 -7.4176742795832737 #
point $-1 -33.67199114236243 -26.95835272539632 -7.4176742795832737 #
straight-curve $-1 -33.67199114236243 -23.786412405236863 7.4176742795832737 0 1 0 I I #
straight-curve $-1 48.507339701528977 -9.3654490086262321 68.276782733693722 0 0 -1 I I #
point $-1 48.507339701528977 -9.3654490086262321 7.4176742795832737 #
straight-curve $-1 48.507339701528977 -2.8529162479663279 1.0432436163034282 0 1 0 I I #
point $-1 48.507339701528977 -9.3654490086262321 1.0432436163034282 #
point $-1 44.702120313749738 -7.9016024035488019 3.1482215940052867 #
point $-1 44.702120313749738 -5.7058324959326558 3.1482215940052867 #
point $-1 44.702120313749738 -3.5100625883165115 3.1482215940052867 #
straight-curve $-1 48.507339701528977 8.077082756291718 68.276782733693722 0 0 -1 I I #
point $-1 48.507339701528977 8.077082756291718 7.4176742795832737 #
straight-curve $-1 48.507339701528977 5.8683496344926471 1.0432436163034282 0 1 0 I I #
point $-1 48.507339701528977 8.077082756291718 1.0432436163034282 #
point $-1 44.702120313749738 9.5409293613691482 3.1482215940052867 #
point $-1 44.702120313749738 11.736699268985294 3.1482215940052867 #
point $-1 44.702120313749738 13.932469176601433 3.1482215940052867 #
straight-curve $-1 -48.507339701528977 13.648521195379207 28.898662443578804 0 0 -1 I I #
point $-1 -48.507339701528977 13.648521195379207 7.4176742795832737 #
straight-curve $-1 -48.507339701528977 4.745134548890162 3.5474057937680037 0 -1 0 I I #
point $-1 -48.507339701528977 13.648521195379207 3.5474057937680068 #
point $-1 -43.837473493327309 9.4902690977803239 3.2130875909097467 #
straight-curve $-1 -33.67199114236243 -26.95835272539632 0 0 0 -1 I I #
point $-1 -33.67199114236243 -26.95835272539632 7.4176742795832737 #
End-of-ACIS-data 