500 0 12 0           
7 Unknown 11 ACIS 5.0 NT 24 Fri Mar 26 15:11:13 1999 
-1 9.9999999999999995e-007 1e-010 
body $-1 $12 $-1 $13 #
body $-1 $14 $-1 $15 #
body $-1 $16 $-1 $17 #
body $-1 $18 $-1 $19 #
body $-1 $20 $-1 $21 #
body $-1 $22 $-1 $23 #
body $-1 $24 $-1 $25 #
body $-1 $26 $-1 $27 #
body $-1 $28 $-1 $29 #
body $-1 $30 $-1 $31 #
body $-1 $32 $-1 $33 #
body $-1 $34 $-1 $35 #
lump $-1 $-1 $36 $0 #
transform $-1 1 0 0 0 1 0 0 0 1 67.513046662800988 45.106223259439048 11.152182290536805 1 rotate no_reflect no_shear #
lump $-1 $-1 $37 $1 #
transform $-1 1 0 0 0 1 0 0 0 1 67.513046662800988 45.106223259439048 11.152182290536805 1 rotate no_reflect no_shear #
lump $-1 $-1 $38 $2 #
transform $-1 1 0 0 0 1 0 0 0 1 67.513046662800988 45.106223259439048 11.152182290536805 1 rotate no_reflect no_shear #
lump $-1 $-1 $39 $3 #
transform $-1 1 0 0 0 1 0 0 0 1 67.513046662800988 45.106223259439048 11.152182290536805 1 rotate no_reflect no_shear #
lump $-1 $-1 $40 $4 #
transform $-1 1 0 0 0 1 0 0 0 1 67.513046662800988 45.106223259439048 11.152182290536805 1 rotate no_reflect no_shear #
lump $-1 $-1 $41 $5 #
transform $-1 1 0 0 0 1 0 0 0 1 67.513046662800988 45.106223259439048 11.152182290536805 1 rotate no_reflect no_shear #
lump $-1 $-1 $42 $6 #
transform $-1 1 0 0 0 1 0 0 0 1 67.513046662800988 45.106223259439048 11.152182290536805 1 rotate no_reflect no_shear #
lump $-1 $-1 $43 $7 #
transform $-1 1 0 0 0 1 0 0 0 1 67.513046662800988 45.106223259439048 11.152182290536805 1 rotate no_reflect no_shear #
lump $-1 $-1 $44 $8 #
transform $-1 1 0 0 0 1 0 0 0 1 67.513046662800988 45.106223259439048 11.152182290536805 1 rotate no_reflect no_shear #
lump $-1 $-1 $45 $9 #
transform $-1 1 0 0 0 1 0 0 0 1 67.513046662800988 45.106223259439048 11.152182290536805 1 rotate no_reflect no_shear #
lump $-1 $-1 $46 $10 #
transform $-1 1 0 0 0 1 0 0 0 1 67.513046662800988 45.106223259439048 11.152182290536805 1 rotate no_reflect no_shear #
lump $-1 $-1 $47 $11 #
transform $-1 1 0 0 0 1 0 0 0 1 67.513046662800988 45.106223259439048 11.152182290536805 1 rotate no_reflect no_shear #
shell $-1 $-1 $-1 $48 $-1 $12 #
shell $-1 $-1 $-1 $49 $-1 $14 #
shell $-1 $-1 $-1 $50 $-1 $16 #
shell $-1 $-1 $-1 $51 $-1 $18 #
shell $-1 $-1 $-1 $52 $-1 $20 #
shell $-1 $-1 $-1 $53 $-1 $22 #
shell $-1 $-1 $-1 $54 $-1 $24 #
shell $-1 $-1 $-1 $55 $-1 $26 #
shell $-1 $-1 $-1 $56 $-1 $28 #
shell $-1 $-1 $-1 $57 $-1 $30 #
shell $-1 $-1 $-1 $58 $-1 $32 #
shell $-1 $-1 $-1 $59 $-1 $34 #
face $-1 $60 $61 $36 $-1 $62 reversed single #
face $-1 $63 $64 $37 $-1 $65 forward single #
face $-1 $66 $67 $38 $-1 $68 reversed single #
face $-1 $69 $70 $39 $-1 $71 forward single #
face $-1 $72 $73 $40 $-1 $74 forward single #
face $-1 $75 $76 $41 $-1 $77 forward single #
face $-1 $78 $79 $42 $-1 $80 reversed single #
face $-1 $81 $82 $43 $-1 $83 forward single #
face $-1 $84 $85 $44 $-1 $86 forward single #
face $-1 $87 $88 $45 $-1 $89 reversed single #
face $-1 $90 $91 $46 $-1 $92 forward single #
face $-1 $93 $94 $47 $-1 $95 forward single #
face $-1 $96 $97 $36 $-1 $98 forward single #
loop $-1 $-1 $99 $48 #
plane-surface $-1 -67.513046662800988 0 0 1 0 0 0 0 -1 forward_v I I I I #
face $-1 $100 $101 $37 $-1 $102 reversed single #
loop $-1 $-1 $103 $49 #
plane-surface $-1 -67.513046662800988 0 0 1 0 0 0 0 -1 forward_v I I I I #
face $-1 $104 $105 $38 $-1 $106 reversed single #
loop $-1 $-1 $107 $50 #
plane-surface $-1 -0.18236941029988785 -147.01171059149914 93.500976456740858 -1 0 0 0 -0.75470958851134928 0.65605901945558964 forward_v I I I I #
face $-1 $108 $109 $39 $-1 $110 forward single #
loop $-1 $111 $112 $51 #
cone-surface $-1 -23.812000629231186 -41.692094593607948 7.4224358854508496 0 0.75470958851134928 -0.65605901945558964 1 0 0 1 I I 0 1 1 forward I I I I #
face $-1 $113 $114 $40 $-1 $115 forward single #
loop $-1 $116 $117 $52 #
cone-surface $-1 -14.950888922131945 -41.692094593607948 7.4224358854508496 0 0.75470958851134928 -0.65605901945558964 1 0 0 1 I I 0 1 1 forward I I I I #
face $-1 $118 $119 $41 $-1 $120 forward single #
loop $-1 $121 $122 $53 #
cone-surface $-1 -6.0897772150327043 -41.692094593607948 7.4224358854508496 0 0.75470958851134928 -0.65605901945558964 1 0 0 1 I I 0 1 1 forward I I I I #
face $-1 $123 $124 $42 $-1 $125 reversed single #
loop $-1 $-1 $126 $54 #
plane-surface $-1 -37.331068240683209 42.988182053989405 169.22986227917116 1 0 0 0 -0.54463904215088732 -0.83867056331134215 forward_v I I I I #
face $-1 $127 $128 $43 $-1 $129 forward single #
loop $-1 $130 $131 $55 #
cone-surface $-1 -29.623688840041879 40.567939071403636 7.110477933750512 0 -0.54463904215088732 -0.83867056331134215 1.5 0 0 1 I I 0 1 1.5 forward I I I I #
face $-1 $132 $133 $44 $-1 $134 forward single #
loop $-1 $135 $136 $56 #
cone-surface $-1 -18.062619739079885 40.567939071403636 7.110477933750512 0 -0.54463904215088732 -0.83867056331134215 1.5 0 0 1 I I 0 1 1.5 forward I I I I #
face $-1 $137 $138 $45 $-1 $139 reversed single #
loop $-1 $-1 $140 $57 #
plane-surface $-1 19.009996793761935 42.988182053989405 169.22986227917116 1 0 0 0 -0.54463904215088732 -0.83867056331134215 forward_v I I I I #
face $-1 $141 $142 $46 $-1 $143 forward single #
loop $-1 $144 $145 $58 #
cone-surface $-1 26.717376194403258 40.567939071403636 7.110477933750512 0 -0.54463904215088732 -0.83867056331134215 1.5 0 0 1 I I 0 1 1.5 forward I I I I #
face $-1 $146 $147 $47 $-1 $148 forward single #
loop $-1 $149 $150 $59 #
cone-surface $-1 38.278445295365245 40.567939071403636 7.110477933750512 0 -0.54463904215088732 -0.83867056331134215 1.5 0 0 1 I I 0 1 1.5 forward I I I I #
face $-1 $151 $152 $36 $-1 $153 reversed single #
loop $-1 $-1 $154 $60 #
plane-surface $-1 0 0 11.152182290536805 0 0 1 1 0 0 forward_v I I I I #
coedge $-1 $155 $156 $157 $158 reversed $61 $-1 #
face $-1 $159 $160 $37 $-1 $161 reversed single #
loop $-1 $-1 $162 $63 #
plane-surface $-1 0 0 -11.152182290536805 0 0 1 1 0 0 forward_v I I I I #
coedge $-1 $163 $164 $165 $166 forward $64 $-1 #
face $-1 $167 $168 $38 $-1 $169 reversed single #
loop $-1 $-1 $170 $66 #
plane-surface $-1 -14.950888922131952 -45.106223259439005 4.9158900686274762 0 -0.75470958851134928 0.65605901945558964 1 0 0 forward_v I I I I #
coedge $-1 $171 $172 $173 $174 reversed $67 $-1 #
face $-1 $-1 $175 $39 $-1 $176 forward single #
loop $-1 $177 $178 $69 #
cone-surface $-1 -23.812000629231186 -40.611174125184299 6.4828060815917592 0 0.75470958851134928 -0.65605901945558964 0.5 0 0 1 I I -0.70710678118654746 0.70710678118654746 0.5 forward I I I I #
loop $-1 $-1 $179 $51 #
coedge $-1 $112 $112 $180 $181 reversed $70 $-1 #
face $-1 $-1 $182 $40 $-1 $183 forward single #
loop $-1 $184 $185 $72 #
cone-surface $-1 -14.950888922131945 -40.611174125184299 6.4828060815917592 0 0.75470958851134928 -0.65605901945558964 0.5 0 0 1 I I -0.70710678118654746 0.70710678118654746 0.5 forward I I I I #
loop $-1 $-1 $186 $52 #
coedge $-1 $117 $117 $187 $188 reversed $73 $-1 #
face $-1 $-1 $189 $41 $-1 $190 forward single #
loop $-1 $191 $192 $75 #
cone-surface $-1 -6.0897772150327043 -40.611174125184299 6.4828060815917592 0 0.75470958851134928 -0.65605901945558964 0.5 0 0 1 I I -0.70710678118654746 0.70710678118654746 0.5 forward I I I I #
loop $-1 $-1 $193 $53 #
coedge $-1 $122 $122 $194 $195 reversed $76 $-1 #
face $-1 $196 $197 $42 $-1 $198 reversed single #
loop $-1 $-1 $199 $78 #
plane-surface $-1 -23.843154289560879 -30.552300080242773 55.987452528058697 0 0.54463904215088732 0.83867056331134215 1 0 0 forward_v I I I I #
coedge $-1 $200 $201 $202 $203 reversed $79 $-1 #
face $-1 $-1 $204 $43 $-1 $205 forward single #
loop $-1 $206 $207 $81 #
cone-surface $-1 -29.623688840041879 38.930307023660632 4.5887457667847134 0 -0.54463904215088732 -0.83867056331134215 0.75 0 0 1 I I -0.70710678118654757 0.70710678118654757 0.75 forward I I I I #
loop $-1 $-1 $208 $55 #
coedge $-1 $131 $131 $209 $210 reversed $82 $-1 #
face $-1 $-1 $211 $44 $-1 $212 forward single #
loop $-1 $213 $214 $84 #
cone-surface $-1 -18.062619739079885 38.930307023660632 4.5887457667847134 0 -0.54463904215088732 -0.83867056331134215 0.75 0 0 1 I I -0.70710678118654757 0.70710678118654757 0.75 forward I I I I #
loop $-1 $-1 $215 $56 #
coedge $-1 $136 $136 $216 $217 reversed $85 $-1 #
face $-1 $218 $219 $45 $-1 $220 reversed single #
loop $-1 $-1 $221 $87 #
plane-surface $-1 32.497910744884265 -30.552300080242773 55.987452528058697 0 0.54463904215088732 0.83867056331134215 1 0 0 forward_v I I I I #
coedge $-1 $222 $223 $224 $225 reversed $88 $-1 #
face $-1 $-1 $226 $46 $-1 $227 forward single #
loop $-1 $228 $229 $90 #
cone-surface $-1 26.717376194403258 38.930307023660632 4.5887457667847134 0 -0.54463904215088732 -0.83867056331134215 0.75 0 0 1 I I -0.70710678118654757 0.70710678118654757 0.75 forward I I I I #
loop $-1 $-1 $230 $58 #
coedge $-1 $145 $145 $231 $232 reversed $91 $-1 #
face $-1 $-1 $233 $47 $-1 $234 forward single #
loop $-1 $235 $236 $93 #
cone-surface $-1 38.278445295365245 38.930307023660632 4.5887457667847134 0 -0.54463904215088732 -0.83867056331134215 0.75 0 0 1 I I -0.70710678118654757 0.70710678118654757 0.75 forward I I I I #
loop $-1 $-1 $237 $59 #
coedge $-1 $150 $150 $238 $239 reversed $94 $-1 #
face $-1 $240 $241 $36 $-1 $242 reversed single #
loop $-1 $-1 $243 $96 #
plane-surface $-1 0 0 -11.152182290536805 0 0 1 1 0 0 forward_v I I I I #
coedge $-1 $244 $245 $246 $247 forward $97 $-1 #
coedge $-1 $248 $99 $249 $250 reversed $61 $-1 #
coedge $-1 $99 $248 $251 $252 forward $61 $-1 #
coedge $-1 $253 $254 $99 $158 forward $152 $-1 #
edge $-1 $255 -45.106223259439048 $256 45.106223259439048 $99 $257 forward 7 unknown #
face $-1 $258 $259 $37 $-1 $260 reversed single #
loop $-1 $-1 $261 $100 #
plane-surface $-1 -71.840424890462671 -44.467782869998835 0 0 1 0 0 0 1 forward_v I I I I #
coedge $-1 $262 $263 $164 $264 forward $101 $-1 #
coedge $-1 $265 $103 $266 $267 reversed $64 $-1 #
coedge $-1 $103 $265 $162 $264 reversed $64 $-1 #
coedge $-1 $268 $269 $103 $166 reversed $270 $-1 #
edge $-1 $271 -11.152182290536805 $272 11.152182290536805 $165 $273 forward 7 unknown #
face $-1 $274 $275 $38 $-1 $276 forward single #
loop $-1 $-1 $277 $104 #
plane-surface $-1 -29.719408433964016 -147.01171059149914 93.500976456740858 1 0 0 0 0.75470958851134928 -0.65605901945558964 forward_v I I I I #
coedge $-1 $278 $279 $280 $281 reversed $105 $-1 #
coedge $-1 $172 $107 $282 $283 reversed $67 $-1 #
coedge $-1 $107 $171 $278 $284 reversed $67 $-1 #
coedge $-1 $280 $285 $107 $174 forward $275 $-1 #
edge $-1 $286 28.399632036310521 $287 33.820758019636834 $173 $288 forward 7 unknown #
loop $-1 $-1 $180 $108 #
plane-surface $-1 -14.950888922131952 -45.106223259439005 4.9158900686274762 0 -0.75470958851134928 0.65605901945558964 1 0 0 forward_v I I I I #
loop $-1 $-1 $289 $69 #
coedge $-1 $178 $178 $179 $290 reversed $109 $-1 #
coedge $-1 $179 $179 $178 $290 forward $111 $-1 #
coedge $-1 $180 $180 $112 $181 forward $175 $-1 #
edge $-1 $291 1.4631842695337219e-015 $291 6.2831853071796022 $180 $292 forward 7 unknown #
loop $-1 $-1 $187 $113 #
plane-surface $-1 -14.950888922131952 -45.106223259439005 4.9158900686274762 0 -0.75470958851134928 0.65605901945558964 1 0 0 forward_v I I I I #
loop $-1 $-1 $293 $72 #
coedge $-1 $185 $185 $186 $294 reversed $114 $-1 #
coedge $-1 $186 $186 $185 $294 forward $116 $-1 #
coedge $-1 $187 $187 $117 $188 forward $182 $-1 #
edge $-1 $295 1.4631842695337219e-015 $295 6.2831853071796022 $187 $296 forward 7 unknown #
loop $-1 $-1 $194 $118 #
plane-surface $-1 -14.950888922131952 -45.106223259439005 4.9158900686274762 0 -0.75470958851134928 0.65605901945558964 1 0 0 forward_v I I I I #
loop $-1 $-1 $297 $75 #
coedge $-1 $192 $192 $193 $298 reversed $119 $-1 #
coedge $-1 $193 $193 $192 $298 forward $121 $-1 #
coedge $-1 $194 $194 $122 $195 forward $189 $-1 #
edge $-1 $299 1.4631842695337219e-015 $299 6.2831853071796022 $194 $300 forward 7 unknown #
face $-1 $301 $302 $42 $-1 $303 reversed single #
loop $-1 $-1 $304 $123 #
plane-surface $-1 -10.355240338438549 42.988182053989405 169.22986227917116 -1 0 0 0 0.54463904215088732 0.83867056331134215 forward_v I I I I #
coedge $-1 $305 $306 $307 $308 reversed $124 $-1 #
coedge $-1 $201 $126 $309 $310 reversed $79 $-1 #
coedge $-1 $126 $200 $305 $311 reversed $79 $-1 #
coedge $-1 $307 $312 $126 $203 forward $313 $-1 #
edge $-1 $314 -23.612132232444345 $315 -16.993869388633179 $202 $316 forward 7 unknown #
loop $-1 $-1 $209 $127 #
plane-surface $-1 -23.843154289560879 -30.552300080242773 55.987452528058697 0 0.54463904215088732 0.83867056331134215 1 0 0 forward_v I I I I #
loop $-1 $-1 $317 $81 #
coedge $-1 $207 $207 $208 $318 reversed $128 $-1 #
coedge $-1 $208 $208 $207 $318 forward $130 $-1 #
coedge $-1 $209 $209 $131 $210 forward $204 $-1 #
edge $-1 $319 1.4956617692285378e-015 $319 6.2831853071796022 $209 $320 forward 7 unknown #
loop $-1 $-1 $216 $132 #
plane-surface $-1 -23.843154289560879 -30.552300080242773 55.987452528058697 0 0.54463904215088732 0.83867056331134215 1 0 0 forward_v I I I I #
loop $-1 $-1 $321 $84 #
coedge $-1 $214 $214 $215 $322 reversed $133 $-1 #
coedge $-1 $215 $215 $214 $322 forward $135 $-1 #
coedge $-1 $216 $216 $136 $217 forward $211 $-1 #
edge $-1 $323 1.4956617692285378e-015 $323 6.2831853071796022 $216 $324 forward 7 unknown #
face $-1 $325 $326 $45 $-1 $327 forward single #
loop $-1 $-1 $328 $137 #
plane-surface $-1 45.985824696006596 42.988182053989405 169.22986227917116 -1 0 0 0 0.54463904215088732 0.83867056331134215 forward_v I I I I #
coedge $-1 $329 $330 $331 $332 reversed $138 $-1 #
coedge $-1 $223 $140 $333 $334 reversed $88 $-1 #
coedge $-1 $140 $222 $329 $335 reversed $88 $-1 #
coedge $-1 $331 $336 $140 $225 forward $326 $-1 #
edge $-1 $337 -23.612132232444345 $338 -16.993869388633179 $224 $339 forward 7 unknown #
loop $-1 $-1 $231 $141 #
plane-surface $-1 32.497910744884265 -30.552300080242773 55.987452528058697 0 0.54463904215088732 0.83867056331134215 1 0 0 forward_v I I I I #
loop $-1 $-1 $340 $90 #
coedge $-1 $229 $229 $230 $341 reversed $142 $-1 #
coedge $-1 $230 $230 $229 $341 forward $144 $-1 #
coedge $-1 $231 $231 $145 $232 forward $226 $-1 #
edge $-1 $342 1.4956617692285378e-015 $342 6.2831853071796022 $231 $343 forward 7 unknown #
loop $-1 $-1 $238 $146 #
plane-surface $-1 32.497910744884265 -30.552300080242773 55.987452528058697 0 0.54463904215088732 0.83867056331134215 1 0 0 forward_v I I I I #
loop $-1 $-1 $344 $93 #
coedge $-1 $236 $236 $237 $345 reversed $147 $-1 #
coedge $-1 $237 $237 $236 $345 forward $149 $-1 #
coedge $-1 $238 $238 $150 $239 forward $233 $-1 #
edge $-1 $346 1.4956617692285378e-015 $346 6.2831853071796022 $238 $347 forward 7 unknown #
face $-1 $348 $349 $36 $-1 $350 reversed single #
loop $-1 $-1 $249 $151 #
plane-surface $-1 0 -45.106223259439048 0 0 1 0 0 0 1 forward_v I I I I #
coedge $-1 $254 $253 $351 $352 forward $152 $-1 #
coedge $-1 $353 $154 $354 $355 forward $97 $-1 #
coedge $-1 $154 $353 $356 $357 forward $97 $-1 #
coedge $-1 $358 $359 $154 $247 reversed $360 $-1 #
edge $-1 $361 -45.106223259439048 $362 45.106223259439048 $246 $363 forward 7 unknown #
coedge $-1 $156 $155 $353 $364 reversed $61 $-1 #
coedge $-1 $365 $356 $155 $250 forward $241 $-1 #
edge $-1 $366 -11.152182290536805 $255 11.152182290536805 $155 $367 forward 7 unknown #
coedge $-1 $354 $368 $156 $252 reversed $349 $-1 #
edge $-1 $369 -11.152182290536805 $256 11.152182290536805 $251 $370 forward 7 unknown #
coedge $-1 $243 $157 $368 $371 forward $152 $-1 #
coedge $-1 $157 $243 $365 $372 forward $152 $-1 #
vertex $-1 $158 $373 #
vertex $-1 $371 $374 #
straight-curve $-1 -67.513046662800988 0 -11.152182290536805 0 1 0 I I #
face $-1 $375 $270 $37 $-1 $376 reversed single #
loop $-1 $-1 $377 $159 #
plane-surface $-1 -76.167803118124354 -41.99600565862692 0 1 0 0 0 0 -1 forward_v I I I I #
coedge $-1 $378 $379 $380 $381 forward $160 $-1 #
coedge $-1 $382 $162 $378 $383 forward $101 $-1 #
coedge $-1 $162 $382 $268 $384 forward $101 $-1 #
edge $-1 $271 39.524228447255005 $385 44.467782869998835 $162 $386 forward 7 unknown #
coedge $-1 $164 $163 $387 $388 forward $64 $-1 #
coedge $-1 $389 $390 $163 $267 forward $391 $-1 #
edge $-1 $392 -44.467782869998835 $272 -39.524228447255005 $266 $393 forward 7 unknown #
coedge $-1 $394 $165 $263 $384 reversed $270 $-1 #
coedge $-1 $165 $394 $389 $395 reversed $270 $-1 #
loop $-1 $-1 $165 $258 #
vertex $-1 $264 $396 #
vertex $-1 $395 $397 #
straight-curve $-1 -67.513046662800988 -39.524228447255005 0 0 0 1 I I #
face $-1 $-1 $398 $38 $-1 $399 reversed single #
loop $-1 $-1 $173 $167 #
plane-surface $-1 0 0 11.152182290536805 0 0 1 1 0 0 forward_v I I I I #
coedge $-1 $400 $401 $402 $403 reversed $168 $-1 #
coedge $-1 $404 $170 $172 $284 forward $105 $-1 #
coedge $-1 $170 $404 $400 $405 forward $105 $-1 #
coedge $-1 $402 $173 $170 $281 forward $275 $-1 #
edge $-1 $287 -7.2930750507660882 $406 22.24396397289804 $280 $407 forward 7 unknown #
coedge $-1 $408 $409 $171 $283 forward $398 $-1 #
edge $-1 $410 -41.834598159743003 $286 -35.598305937833622 $282 $411 forward 7 unknown #
edge $-1 $287 -8.2631681335999723 $410 6.4836900561353642e-014 $172 $412 forward 7 unknown #
coedge $-1 $173 $402 $408 $413 forward $275 $-1 #
vertex $-1 $174 $414 #
vertex $-1 $174 $415 #
straight-curve $-1 -0.18236941029988785 -73.505855295749569 11.152182290536807 0 1 0 I I #
coedge $-1 $289 $289 $-1 $416 reversed $177 $-1 #
edge $-1 $417 0 $417 6.2831853071796004 $178 $418 forward 7 unknown #
vertex $-1 $181 $419 #
ellipse-curve $-1 -23.812000629231186 -42.395660267775888 8.0340361795821185 0 -0.75470958851134928 0.65605901945558964 1 0 0 1 I I #
coedge $-1 $293 $293 $-1 $420 reversed $184 $-1 #
edge $-1 $421 0 $421 6.2831853071796004 $185 $422 forward 7 unknown #
vertex $-1 $188 $423 #
ellipse-curve $-1 -14.950888922131945 -42.395660267775888 8.0340361795821185 0 -0.75470958851134928 0.65605901945558964 1 0 0 1 I I #
coedge $-1 $297 $297 $-1 $424 reversed $191 $-1 #
edge $-1 $425 0 $425 6.2831853071796004 $192 $426 forward 7 unknown #
vertex $-1 $195 $427 #
ellipse-curve $-1 -6.0897772150327043 -42.395660267775888 8.0340361795821185 0 -0.75470958851134928 0.65605901945558964 1 0 0 1 I I #
face $-1 $-1 $313 $42 $-1 $428 forward single #
loop $-1 $-1 $429 $196 #
plane-surface $-1 0 45.106223259439048 0 0 -1 0 0 0 -1 forward_v I I I I #
coedge $-1 $430 $431 $432 $433 reversed $197 $-1 #
coedge $-1 $434 $199 $201 $311 forward $124 $-1 #
coedge $-1 $199 $434 $430 $435 forward $124 $-1 #
coedge $-1 $432 $202 $199 $308 forward $313 $-1 #
edge $-1 $315 -25.409491095902769 $436 1.5663368063418908 $307 $437 forward 7 unknown #
coedge $-1 $438 $439 $200 $310 forward $302 $-1 #
edge $-1 $440 -77.760699073656795 $314 -73.462748849048779 $309 $441 forward 7 unknown #
edge $-1 $315 82.321072797973756 $440 90.212446518878096 $201 $442 forward 7 unknown #
coedge $-1 $202 $432 $438 $443 forward $313 $-1 #
loop $-1 $-1 $432 $301 #
vertex $-1 $310 $444 #
vertex $-1 $203 $445 #
straight-curve $-1 -37.331068240683209 21.494091026994703 11.1521822905368 0 -1 0 I I #
coedge $-1 $317 $317 $-1 $446 reversed $206 $-1 #
edge $-1 $447 0 $447 6.2831853071796004 $207 $448 forward 7 unknown #
vertex $-1 $210 $449 #
ellipse-curve $-1 -29.623688840041879 41.797091837533465 9.0032071782327865 0 0.54463904215088732 0.83867056331134215 1.5 0 0 1 I I #
coedge $-1 $321 $321 $-1 $450 reversed $213 $-1 #
edge $-1 $451 0 $451 6.2831853071796004 $214 $452 forward 7 unknown #
vertex $-1 $217 $453 #
ellipse-curve $-1 -18.062619739079885 41.797091837533465 9.0032071782327865 0 0.54463904215088732 0.83867056331134215 1.5 0 0 1 I I #
face $-1 $-1 $454 $45 $-1 $455 reversed single #
loop $-1 $-1 $224 $218 #
plane-surface $-1 0 0 11.152182290536805 0 0 1 1 0 0 forward_v I I I I #
coedge $-1 $456 $457 $458 $459 reversed $219 $-1 #
coedge $-1 $460 $221 $223 $335 forward $138 $-1 #
coedge $-1 $221 $460 $456 $461 forward $138 $-1 #
coedge $-1 $458 $224 $221 $332 forward $326 $-1 #
edge $-1 $338 2.7610414213198027 $462 29.736869323564463 $331 $463 forward 7 unknown #
coedge $-1 $464 $465 $222 $334 forward $454 $-1 #
edge $-1 $466 -77.760699073656795 $337 -73.462748849048779 $333 $467 forward 7 unknown #
edge $-1 $338 82.321072797973756 $466 90.212446518878096 $223 $468 forward 7 unknown #
coedge $-1 $224 $458 $464 $469 forward $326 $-1 #
vertex $-1 $225 $470 #
vertex $-1 $225 $471 #
straight-curve $-1 19.009996793761935 21.494091026994703 11.1521822905368 0 -1 0 I I #
coedge $-1 $340 $340 $-1 $472 reversed $228 $-1 #
edge $-1 $473 0 $473 6.2831853071796004 $229 $474 forward 7 unknown #
vertex $-1 $232 $475 #
ellipse-curve $-1 26.717376194403258 41.797091837533465 9.0032071782327865 0 0.54463904215088732 0.83867056331134215 1.5 0 0 1 I I #
coedge $-1 $344 $344 $-1 $476 reversed $235 $-1 #
edge $-1 $477 0 $477 6.2831853071796004 $236 $478 forward 7 unknown #
vertex $-1 $239 $479 #
ellipse-curve $-1 38.278445295365245 41.797091837533465 9.0032071782327865 0 0.54463904215088732 0.83867056331134215 1.5 0 0 1 I I #
face $-1 $-1 $360 $36 $-1 $480 reversed single #
loop $-1 $-1 $481 $240 #
plane-surface $-1 0 45.106223259439048 0 0 -1 0 0 0 -1 forward_v I I I I #
coedge $-1 $359 $358 $243 $352 reversed $360 $-1 #
edge $-1 $482 -45.106223259439048 $483 45.106223259439048 $351 $484 forward 7 unknown #
coedge $-1 $245 $244 $248 $364 forward $97 $-1 #
coedge $-1 $481 $251 $244 $355 reversed $349 $-1 #
edge $-1 $362 -67.513046662800988 $369 67.513046662800988 $354 $485 forward 7 unknown #
coedge $-1 $249 $486 $245 $357 reversed $241 $-1 #
edge $-1 $366 -67.513046662800988 $361 67.513046662800988 $356 $487 forward 7 unknown #
coedge $-1 $351 $246 $486 $488 forward $360 $-1 #
coedge $-1 $246 $351 $481 $489 reversed $360 $-1 #
loop $-1 $-1 $358 $348 #
vertex $-1 $247 $490 #
vertex $-1 $247 $491 #
straight-curve $-1 67.513046662800988 0 11.152182290536805 0 1 0 I I #
edge $-1 $369 -45.106223259439048 $366 45.106223259439048 $248 $492 forward 7 unknown #
coedge $-1 $486 $249 $254 $372 reversed $241 $-1 #
vertex $-1 $364 $493 #
straight-curve $-1 -67.513046662800988 -45.106223259439048 0 0 0 -1 I I #
coedge $-1 $251 $481 $253 $371 reversed $349 $-1 #
vertex $-1 $355 $494 #
straight-curve $-1 -67.513046662800988 45.106223259439048 0 0 0 -1 I I #
edge $-1 $256 -67.513046662800988 $482 67.513046662800988 $368 $495 forward 7 unknown #
edge $-1 $483 -67.513046662800988 $255 67.513046662800988 $365 $496 forward 7 unknown #
point $-1 -67.513046662800988 -45.106223259439048 -11.152182290536805 #
point $-1 -67.513046662800988 45.106223259439048 -11.152182290536805 #
face $-1 $-1 $391 $37 $-1 $497 forward single #
plane-surface $-1 -71.840424890462671 -39.524228447255005 0 0 -1 0 0 0 -1 forward_v I I I I #
coedge $-1 $498 $499 $394 $500 forward $259 $-1 #
coedge $-1 $387 $261 $262 $383 reversed $160 $-1 #
coedge $-1 $261 $387 $390 $501 reversed $160 $-1 #
coedge $-1 $499 $498 $261 $381 reversed $259 $-1 #
edge $-1 $502 -11.152182290536805 $503 11.152182290536805 $380 $504 forward 7 unknown #
coedge $-1 $263 $262 $498 $505 forward $101 $-1 #
edge $-1 $385 -4.3273782276616828 $503 4.3273782276616828 $378 $506 forward 7 unknown #
edge $-1 $507 -4.3273782276616828 $271 4.3273782276616828 $268 $508 forward 7 unknown #
vertex $-1 $383 $509 #
straight-curve $-1 -67.513046662800988 0 -11.152182290536805 0 -1 0 I I #
coedge $-1 $379 $378 $265 $388 reversed $160 $-1 #
edge $-1 $392 -11.152182290536805 $385 11.152182290536805 $387 $510 forward 7 unknown #
coedge $-1 $511 $266 $269 $395 forward $391 $-1 #
coedge $-1 $266 $511 $379 $501 forward $391 $-1 #
loop $-1 $-1 $266 $375 #
vertex $-1 $267 $512 #
straight-curve $-1 -67.513046662800988 0 11.152182290536805 0 1 0 I I #
coedge $-1 $269 $268 $377 $500 reversed $270 $-1 #
edge $-1 $272 -4.3273782276616828 $513 4.3273782276616828 $269 $514 forward 7 unknown #
point $-1 -67.513046662800988 -39.524228447255005 -11.152182290536805 #
point $-1 -67.513046662800988 -39.524228447255005 11.152182290536805 #
loop $-1 $-1 $282 $274 #
plane-surface $-1 0 -45.106223259439048 0 0 1 0 0 0 1 forward_v I I I I #
coedge $-1 $401 $277 $279 $405 reversed $168 $-1 #
coedge $-1 $277 $400 $515 $516 reversed $168 $-1 #
coedge $-1 $285 $280 $277 $403 forward $275 $-1 #
edge $-1 $406 -33.820758019636834 $517 -28.399632036310521 $402 $518 forward 7 unknown #
coedge $-1 $279 $278 $409 $519 reversed $105 $-1 #
edge $-1 $520 -6.4836900561353642e-014 $406 8.2631681335999723 $400 $521 forward 7 unknown #
vertex $-1 $281 $522 #
straight-curve $-1 -7.475444461065976 -39.685097276112735 11.152182290536803 -1 0 0 I I #
coedge $-1 $515 $282 $285 $413 reversed $398 $-1 #
coedge $-1 $282 $515 $404 $519 forward $398 $-1 #
vertex $-1 $283 $523 #
straight-curve $-1 -0.18236941029988785 -45.106223259439048 46.750488228370429 0 0 1 I I #
straight-curve $-1 -0.18236941029988785 -45.106223259439005 4.9158900686274762 0 -0.65605901945558964 -0.75470958851134928 I I #
edge $-1 $517 -29.719408433964016 $286 -0.18236941029988785 $408 $524 forward 7 unknown #
point $-1 -0.18236941029988785 -45.106223259439048 11.152182290536805 #
point $-1 -0.18236941029988785 -39.685097276112735 11.152182290536805 #
edge $-1 $525 1 $525 0 $289 $-1 forward 7 unknown #
vertex $-1 $290 $526 #
ellipse-curve $-1 -23.812000629231186 -40.988528919439972 6.8108355913195542 0 -0.75470958851134928 0.65605901945558964 1 0 0 1 I I #
point $-1 -22.812000629231186 -42.395660267775916 8.0340361795821451 #
edge $-1 $527 1 $527 0 $293 $-1 forward 7 unknown #
vertex $-1 $294 $528 #
ellipse-curve $-1 -14.950888922131945 -40.988528919439972 6.8108355913195542 0 -0.75470958851134928 0.65605901945558964 1 0 0 1 I I #
point $-1 -13.950888922131945 -42.395660267775916 8.0340361795821451 #
edge $-1 $529 1 $529 0 $297 $-1 forward 7 unknown #
vertex $-1 $298 $530 #
ellipse-curve $-1 -6.0897772150327043 -40.988528919439972 6.8108355913195542 0 -0.75470958851134928 0.65605901945558964 1 0 0 1 I I #
point $-1 -5.0897772150327043 -42.395660267775916 8.0340361795821451 #
plane-surface $-1 0 0 11.152182290536805 0 0 1 1 0 0 forward_v I I I I #
coedge $-1 $439 $438 $431 $531 forward $302 $-1 #
coedge $-1 $431 $304 $306 $435 reversed $197 $-1 #
coedge $-1 $304 $430 $429 $531 reversed $197 $-1 #
coedge $-1 $312 $307 $304 $433 forward $313 $-1 #
edge $-1 $436 16.993869388633179 $532 23.612132232444345 $432 $533 forward 7 unknown #
coedge $-1 $306 $305 $439 $534 reversed $124 $-1 #
edge $-1 $535 -90.212446518878096 $436 -82.321072797973756 $430 $536 forward 7 unknown #
vertex $-1 $308 $537 #
straight-curve $-1 -11.921577144780439 38.487960415627875 11.152182290536807 1 0 0 I I #
coedge $-1 $429 $309 $312 $443 reversed $302 $-1 #
coedge $-1 $309 $429 $434 $534 forward $302 $-1 #
vertex $-1 $310 $538 #
straight-curve $-1 -37.331068240683209 45.106223259439048 84.614931139585579 0 0 1 I I #
straight-curve $-1 -37.331068240683209 -30.552300080242773 55.987452528058697 0 0.83867056331134215 -0.54463904215088732 I I #
edge $-1 $532 10.355240338438549 $314 37.331068240683209 $438 $539 forward 7 unknown #
point $-1 -37.331068240683209 45.106223259439048 11.152182290536805 #
point $-1 -37.331068240683209 38.487960415627882 11.152182290536807 #
edge $-1 $540 1 $540 0 $317 $-1 forward 7 unknown #
vertex $-1 $318 $541 #
ellipse-curve $-1 -29.623688840041879 39.3387863052738 5.2177486892682197 0 0.54463904215088732 0.83867056331134215 1.5 0 0 1 I I #
point $-1 -28.123688840041879 41.797091837533479 9.0032071782328043 #
edge $-1 $542 1 $542 0 $321 $-1 forward 7 unknown #
vertex $-1 $322 $543 #
ellipse-curve $-1 -18.062619739079885 39.3387863052738 5.2177486892682197 0 0.54463904215088732 0.83867056331134215 1.5 0 0 1 I I #
point $-1 -16.562619739079885 41.797091837533479 9.0032071782328043 #
loop $-1 $-1 $333 $325 #
plane-surface $-1 0 45.106223259439048 0 0 -1 0 0 0 -1 forward_v I I I I #
coedge $-1 $457 $328 $330 $461 reversed $219 $-1 #
coedge $-1 $328 $456 $544 $545 reversed $219 $-1 #
coedge $-1 $336 $331 $328 $459 forward $326 $-1 #
edge $-1 $462 16.993869388633179 $546 23.612132232444345 $458 $547 forward 7 unknown #
coedge $-1 $330 $329 $465 $548 reversed $138 $-1 #
edge $-1 $549 -90.212446518878096 $462 -82.321072797973756 $456 $550 forward 7 unknown #
vertex $-1 $332 $551 #
straight-curve $-1 16.248955372442133 38.487960415627875 11.152182290536807 1 0 0 I I #
coedge $-1 $544 $333 $336 $469 reversed $454 $-1 #
coedge $-1 $333 $544 $460 $548 forward $454 $-1 #
vertex $-1 $334 $552 #
straight-curve $-1 19.009996793761935 45.106223259439048 84.614931139585579 0 0 1 I I #
straight-curve $-1 19.009996793761935 -30.552300080242773 55.987452528058697 0 0.83867056331134215 -0.54463904215088732 I I #
edge $-1 $546 -45.985824696006596 $337 -19.009996793761935 $464 $553 forward 7 unknown #
point $-1 19.009996793761935 45.106223259439048 11.152182290536805 #
point $-1 19.009996793761935 38.487960415627882 11.152182290536807 #
edge $-1 $554 1 $554 0 $340 $-1 forward 7 unknown #
vertex $-1 $341 $555 #
ellipse-curve $-1 26.717376194403258 39.3387863052738 5.2177486892682197 0 0.54463904215088732 0.83867056331134215 1.5 0 0 1 I I #
point $-1 28.217376194403258 41.797091837533479 9.0032071782328043 #
edge $-1 $556 1 $556 0 $344 $-1 forward 7 unknown #
vertex $-1 $345 $557 #
ellipse-curve $-1 38.278445295365245 39.3387863052738 5.2177486892682197 0 0.54463904215088732 0.83867056331134215 1.5 0 0 1 I I #
point $-1 39.778445295365245 41.797091837533479 9.0032071782328043 #
plane-surface $-1 67.513046662800988 0 0 -1 0 0 0 0 1 forward_v I I I I #
coedge $-1 $368 $354 $359 $489 forward $349 $-1 #
vertex $-1 $352 $558 #
vertex $-1 $488 $559 #
straight-curve $-1 67.513046662800988 0 -11.152182290536805 0 -1 0 I I #
straight-curve $-1 0 45.106223259439048 11.152182290536805 -1 0 0 I I #
coedge $-1 $356 $365 $358 $488 reversed $241 $-1 #
straight-curve $-1 0 -45.106223259439048 11.152182290536805 1 0 0 I I #
edge $-1 $361 -11.152182290536805 $483 11.152182290536805 $358 $560 forward 7 unknown #
edge $-1 $362 -11.152182290536805 $482 11.152182290536805 $359 $561 forward 7 unknown #
point $-1 67.513046662800988 -45.106223259439048 11.152182290536805 #
point $-1 67.513046662800988 45.106223259439048 11.152182290536805 #
straight-curve $-1 -67.513046662800988 0 11.152182290536805 0 -1 0 I I #
point $-1 -67.513046662800988 -45.106223259439048 11.152182290536805 #
point $-1 -67.513046662800988 45.106223259439048 11.152182290536805 #
straight-curve $-1 0 45.106223259439048 -11.152182290536805 1 0 0 I I #
straight-curve $-1 0 -45.106223259439048 -11.152182290536805 -1 0 0 I I #
plane-surface $-1 0 0 11.152182290536805 0 0 1 1 0 0 forward_v I I I I #
coedge $-1 $380 $377 $382 $505 reversed $259 $-1 #
coedge $-1 $377 $380 $511 $562 reversed $259 $-1 #
edge $-1 $513 -11.152182290536805 $507 11.152182290536805 $394 $563 forward 7 unknown #
edge $-1 $502 -4.3273782276616828 $392 4.3273782276616828 $379 $564 forward 7 unknown #
vertex $-1 $562 $565 #
vertex $-1 $505 $566 #
straight-curve $-1 -76.167803118124354 -44.467782869998835 0 0 0 -1 I I #
edge $-1 $503 -2.471777211371915 $507 2.471777211371915 $498 $567 forward 7 unknown #
straight-curve $-1 -71.840424890462671 -44.467782869998835 -11.152182290536805 -1 0 0 I I #
vertex $-1 $384 $568 #
straight-curve $-1 -71.840424890462671 -39.524228447255005 -11.152182290536805 1 0 0 I I #
point $-1 -67.513046662800988 -44.467782869998835 -11.152182290536805 #
straight-curve $-1 -67.513046662800988 -44.467782869998835 0 0 0 -1 I I #
coedge $-1 $390 $389 $499 $562 forward $391 $-1 #
point $-1 -67.513046662800988 -44.467782869998835 11.152182290536805 #
vertex $-1 $395 $569 #
straight-curve $-1 -71.840424890462671 -39.524228447255005 11.152182290536805 -1 0 0 I I #
coedge $-1 $409 $408 $401 $516 forward $398 $-1 #
edge $-1 $517 35.598305937833622 $520 41.834598159743003 $515 $570 forward 7 unknown #
vertex $-1 $413 $571 #
straight-curve $-1 -29.719408433964016 -73.505855295749569 11.152182290536807 0 -1 0 I I #
edge $-1 $520 -22.24396397289804 $410 7.2930750507660882 $409 $572 forward 7 unknown #
vertex $-1 $519 $573 #
straight-curve $-1 -29.719408433964016 -45.106223259439005 4.9158900686274762 0 0.65605901945558964 0.75470958851134928 I I #
point $-1 -29.719408433964016 -39.685097276112735 11.152182290536805 #
point $-1 -0.18236941029988785 -45.106223259439048 4.9158900686274274 #
straight-curve $-1 0 -45.106223259439048 11.152182290536805 1 0 0 I I #
vertex $-1 $416 $574 #
point $-1 -22.812000629231186 -40.988528919439972 6.8108355913195542 #
vertex $-1 $420 $575 #
point $-1 -13.950888922131945 -40.988528919439972 6.8108355913195542 #
vertex $-1 $424 $576 #
point $-1 -5.0897772150327043 -40.988528919439972 6.8108355913195542 #
edge $-1 $532 73.462748849048779 $535 77.760699073656795 $429 $577 forward 7 unknown #
vertex $-1 $443 $578 #
straight-curve $-1 -10.355240338438549 21.494091026994703 11.1521822905368 0 1 0 I I #
edge $-1 $535 -1.5663368063418908 $440 25.409491095902769 $439 $579 forward 7 unknown #
vertex $-1 $534 $580 #
straight-curve $-1 -10.355240338438549 -30.552300080242773 55.987452528058697 0 -0.83867056331134215 0.54463904215088732 I I #
point $-1 -10.355240338438549 38.487960415627882 11.152182290536807 #
point $-1 -37.331068240683209 45.106223259439048 6.8542320659287839 #
straight-curve $-1 0 45.106223259439048 11.152182290536805 -1 0 0 I I #
vertex $-1 $446 $581 #
point $-1 -28.123688840041879 39.3387863052738 5.2177486892682197 #
vertex $-1 $450 $582 #
point $-1 -16.562619739079885 39.3387863052738 5.2177486892682197 #
coedge $-1 $465 $464 $457 $545 forward $454 $-1 #
edge $-1 $546 73.462748849048779 $549 77.760699073656795 $544 $583 forward 7 unknown #
vertex $-1 $469 $584 #
straight-curve $-1 45.985824696006596 21.494091026994703 11.1521822905368 0 1 0 I I #
edge $-1 $549 -29.736869323564463 $466 -2.7610414213198027 $465 $585 forward 7 unknown #
vertex $-1 $548 $586 #
straight-curve $-1 45.985824696006596 -30.552300080242773 55.987452528058697 0 -0.83867056331134215 0.54463904215088732 I I #
point $-1 45.985824696006596 38.487960415627882 11.152182290536807 #
point $-1 19.009996793761935 45.106223259439048 6.8542320659287839 #
straight-curve $-1 0 45.106223259439048 11.152182290536805 -1 0 0 I I #
vertex $-1 $472 $587 #
point $-1 28.217376194403258 39.3387863052738 5.2177486892682197 #
vertex $-1 $476 $588 #
point $-1 39.778445295365245 39.3387863052738 5.2177486892682197 #
point $-1 67.513046662800988 45.106223259439048 -11.152182290536805 #
point $-1 67.513046662800988 -45.106223259439048 -11.152182290536805 #
straight-curve $-1 67.513046662800988 -45.106223259439048 0 0 0 -1 I I #
straight-curve $-1 67.513046662800988 45.106223259439048 0 0 0 -1 I I #
edge $-1 $513 -2.471777211371915 $502 2.471777211371915 $499 $589 forward 7 unknown #
straight-curve $-1 -76.167803118124354 -39.524228447255005 0 0 0 -1 I I #
straight-curve $-1 -71.840424890462671 -44.467782869998835 11.152182290536805 1 0 0 I I #
point $-1 -76.167803118124354 -44.467782869998835 11.152182290536805 #
point $-1 -76.167803118124354 -44.467782869998835 -11.152182290536805 #
straight-curve $-1 -76.167803118124354 -41.99600565862692 -11.152182290536805 0 1 0 I I #
point $-1 -76.167803118124354 -39.524228447255005 -11.152182290536805 #
point $-1 -76.167803118124354 -39.524228447255005 11.152182290536805 #
straight-curve $-1 -29.719408433964016 -45.106223259439048 46.750488228370429 0 0 -1 I I #
point $-1 -29.719408433964016 -45.106223259439048 11.152182290536805 #
straight-curve $-1 -7.475444461065976 -45.106223259439048 4.9158900686274283 1 0 0 I I #
point $-1 -29.719408433964016 -45.106223259439048 4.9158900686274274 #
point $-1 -23.812000629231186 -40.233819330928625 6.1547765718639642 #
point $-1 -14.950888922131945 -40.233819330928625 6.1547765718639642 #
point $-1 -6.0897772150327043 -40.233819330928625 6.1547765718639642 #
straight-curve $-1 -10.355240338438549 45.106223259439048 84.614931139585579 0 0 -1 I I #
point $-1 -10.355240338438549 45.106223259439048 11.152182290536805 #
straight-curve $-1 -11.921577144780439 45.106223259439048 6.8542320659287768 -1 0 0 I I #
point $-1 -10.355240338438549 45.106223259439048 6.8542320659287839 #
point $-1 -29.623688840041879 38.521827742047464 3.9597428443012066 #
point $-1 -18.062619739079885 38.521827742047464 3.9597428443012066 #
straight-curve $-1 45.985824696006596 45.106223259439048 84.614931139585579 0 0 -1 I I #
point $-1 45.985824696006596 45.106223259439048 11.152182290536805 #
straight-curve $-1 16.248955372442133 45.106223259439048 6.8542320659287768 -1 0 0 I I #
point $-1 45.985824696006596 45.106223259439048 6.8542320659287839 #
point $-1 26.717376194403258 38.521827742047464 3.9597428443012066 #
point $-1 38.278445295365245 38.521827742047464 3.9597428443012066 #
straight-curve $-1 -76.167803118124354 -41.99600565862692 11.152182290536805 0 -1 0 I I #
End-of-ACIS-data 