500 0 10 0           
7 Unknown 11 ACIS 5.0 NT 24 Thu Mar 25 18:16:27 1999 
-1 9.9999999999999995e-007 1e-010 
body $-1 $10 $-1 $11 #
body $-1 $12 $-1 $13 #
body $-1 $14 $-1 $15 #
body $-1 $16 $-1 $17 #
body $-1 $18 $-1 $19 #
body $-1 $20 $-1 $21 #
body $-1 $22 $-1 $23 #
body $-1 $24 $-1 $25 #
body $-1 $26 $-1 $27 #
body $-1 $28 $-1 $29 #
lump $-1 $-1 $30 $0 #
transform $-1 1 0 0 0 1 0 0 0 1 75.860469374675745 49.804631105157995 22.343761655691505 1 rotate no_reflect no_shear #
lump $-1 $-1 $31 $1 #
transform $-1 1 0 0 0 1 0 0 0 1 75.860469374675745 49.804631105157995 22.343761655691505 1 rotate no_reflect no_shear #
lump $-1 $-1 $32 $2 #
transform $-1 1 0 0 0 1 0 0 0 1 75.860469374675745 49.804631105157995 22.343761655691505 1 rotate no_reflect no_shear #
lump $-1 $-1 $33 $3 #
transform $-1 1 0 0 0 1 0 0 0 1 75.860469374675745 49.804631105157995 22.343761655691505 1 rotate no_reflect no_shear #
lump $-1 $-1 $34 $4 #
transform $-1 1 0 0 0 1 0 0 0 1 75.860469374675745 49.804631105157995 22.343761655691505 1 rotate no_reflect no_shear #
lump $-1 $-1 $35 $5 #
transform $-1 1 0 0 0 1 0 0 0 1 75.860469374675745 49.804631105157995 22.343761655691505 1 rotate no_reflect no_shear #
lump $-1 $-1 $36 $6 #
transform $-1 1 0 0 0 1 0 0 0 1 75.860469374675745 49.804631105157995 22.343761655691505 1 rotate no_reflect no_shear #
lump $-1 $-1 $37 $7 #
transform $-1 1 0 0 0 1 0 0 0 1 75.860469374675745 49.804631105157995 22.343761655691505 1 rotate no_reflect no_shear #
lump $-1 $-1 $38 $8 #
transform $-1 1 0 0 0 1 0 0 0 1 75.860469374675745 49.804631105157995 22.343761655691505 1 rotate no_reflect no_shear #
lump $-1 $-1 $39 $9 #
transform $-1 1 0 0 0 1 0 0 0 1 75.860469374675745 49.804631105157995 22.343761655691505 1 rotate no_reflect no_shear #
shell $-1 $-1 $-1 $40 $-1 $10 #
shell $-1 $-1 $-1 $41 $-1 $12 #
shell $-1 $-1 $-1 $42 $-1 $14 #
shell $-1 $-1 $-1 $43 $-1 $16 #
shell $-1 $-1 $-1 $44 $-1 $18 #
shell $-1 $-1 $-1 $45 $-1 $20 #
shell $-1 $-1 $-1 $46 $-1 $22 #
shell $-1 $-1 $-1 $47 $-1 $24 #
shell $-1 $-1 $-1 $48 $-1 $26 #
shell $-1 $-1 $-1 $49 $-1 $28 #
face $-1 $50 $51 $30 $-1 $52 forward single #
face $-1 $53 $54 $31 $-1 $55 reversed single #
face $-1 $56 $57 $32 $-1 $58 reversed single #
face $-1 $59 $60 $33 $-1 $61 reversed single #
face $-1 $62 $63 $34 $-1 $64 forward single #
face $-1 $65 $66 $35 $-1 $67 forward single #
face $-1 $68 $69 $36 $-1 $70 forward single #
face $-1 $71 $72 $37 $-1 $73 reversed single #
face $-1 $74 $75 $38 $-1 $76 forward single #
face $-1 $77 $78 $39 $-1 $79 forward single #
face $-1 $80 $81 $30 $-1 $82 reversed single #
loop $-1 $-1 $83 $40 #
plane-surface $-1 0 0 22.343761655691505 0 0 1 1 0 0 forward_v I I I I #
face $-1 $84 $85 $31 $-1 $86 reversed single #
loop $-1 $-1 $87 $41 #
plane-surface $-1 0 -41.989237831405099 11.247230590196708 0 0 1 1 0 0 forward_v I I I I #
face $-1 $88 $89 $32 $-1 $90 reversed single #
loop $-1 $-1 $91 $42 #
plane-surface $-1 0 41.989237831405092 11.247230590196708 0 0 1 1 0 0 forward_v I I I I #
face $-1 $92 $93 $33 $-1 $94 reversed single #
loop $-1 $-1 $95 $43 #
plane-surface $-1 83.348710726520778 20.067705472341348 231.54736746320484 0 -1 0 -0.73135370988377701 0 -0.68199835119979291 forward_v I I I I #
face $-1 $96 $97 $34 $-1 $98 forward single #
loop $-1 $99 $100 $44 #
cone-surface $-1 72.944984681487512 6.2477347338778983 19.283893790242782 -0.73135370988377701 0 -0.68199835119979291 0.68199835119979291 0 -0.73135370988377701 1 I I 0 1 1 forward I I I I #
face $-1 $101 $102 $35 $-1 $103 forward single #
loop $-1 $104 $105 $45 #
cone-surface $-1 72.944984681487512 11.430223760801688 19.283893790242782 -0.73135370988377701 0 -0.68199835119979291 0.68199835119979291 0 -0.73135370988377701 1 I I 0 1 1 forward I I I I #
face $-1 $106 $107 $36 $-1 $108 forward single #
loop $-1 $109 $110 $46 #
cone-surface $-1 72.944984681487512 16.612712787725485 19.283893790242782 -0.73135370988377701 0 -0.68199835119979291 0.68199835119979291 0 -0.73135370988377701 1 I I 0 1 1 forward I I I I #
face $-1 $111 $112 $37 $-1 $113 reversed single #
loop $-1 $-1 $114 $47 #
plane-surface $-1 -75.860469374675759 29.627378888528597 15.339466623782712 -0.81915205242281985 0 0.57357642473473569 0.57357642473473569 0 0.81915205242281985 forward_v I I I I #
face $-1 $115 $116 $38 $-1 $117 forward single #
loop $-1 $118 $119 $48 #
cone-surface $-1 -72.391517840347632 27.678893601761331 18.129698090237255 0.81915205242281985 0 -0.57357642473473569 0.57357642473473569 0 0.81915205242281985 1 I I 0 1 1 forward I I I I #
face $-1 $120 $121 $39 $-1 $122 forward single #
loop $-1 $123 $124 $49 #
cone-surface $-1 -72.391517840347632 31.575864175295848 18.129698090237255 0.81915205242281985 0 -0.57357642473473569 0.57357642473473569 0 0.81915205242281985 1 I I 0 1 1 forward I I I I #
face $-1 $125 $126 $30 $-1 $127 reversed single #
loop $-1 $-1 $128 $50 #
plane-surface $-1 0 0 -22.343761655691505 0 0 1 1 0 0 forward_v I I I I #
coedge $-1 $129 $130 $131 $132 forward $51 $-1 #
face $-1 $133 $134 $31 $-1 $135 reversed single #
loop $-1 $-1 $136 $53 #
plane-surface $-1 0 -34.173844557652203 16.795496122944105 0 -1 0 0 0 -1 forward_v I I I I #
coedge $-1 $137 $138 $139 $140 reversed $54 $-1 #
face $-1 $141 $142 $32 $-1 $143 forward single #
loop $-1 $-1 $144 $56 #
plane-surface $-1 0 34.173844557652195 16.795496122944105 0 1 0 0 0 1 forward_v I I I I #
coedge $-1 $145 $146 $147 $148 reversed $57 $-1 #
face $-1 $149 $150 $33 $-1 $151 reversed single #
loop $-1 $-1 $152 $59 #
plane-surface $-1 -27.612960694866729 11.430223760801695 128.07393739366233 0.73135370988377701 0 0.68199835119979291 0.68199835119979291 0 -0.73135370988377701 forward_v I I I I #
coedge $-1 $153 $154 $155 $156 reversed $60 $-1 #
face $-1 $-1 $157 $34 $-1 $158 forward single #
loop $-1 $159 $160 $62 #
cone-surface $-1 72.103047398019982 6.2477347338778983 18.498774590902503 -0.73135370988377701 0 -0.68199835119979291 0.34099917559989645 0 -0.36567685494188851 1 I I -0.70710678118654746 0.70710678118654746 0.5 forward I I I I #
loop $-1 $-1 $161 $44 #
coedge $-1 $100 $100 $162 $163 reversed $63 $-1 #
face $-1 $-1 $164 $35 $-1 $165 forward single #
loop $-1 $166 $167 $65 #
cone-surface $-1 72.103047398019982 11.430223760801688 18.498774590902503 -0.73135370988377701 0 -0.68199835119979291 0.34099917559989645 0 -0.36567685494188851 1 I I -0.70710678118654746 0.70710678118654746 0.5 forward I I I I #
loop $-1 $-1 $168 $45 #
coedge $-1 $105 $105 $169 $170 reversed $66 $-1 #
face $-1 $-1 $171 $36 $-1 $172 forward single #
loop $-1 $173 $174 $68 #
cone-surface $-1 72.103047398019982 16.612712787725485 18.498774590902503 -0.73135370988377701 0 -0.68199835119979291 0.34099917559989645 0 -0.36567685494188851 1 I I -0.70710678118654746 0.70710678118654746 0.5 forward I I I I #
loop $-1 $-1 $175 $46 #
coedge $-1 $110 $110 $176 $177 reversed $69 $-1 #
face $-1 $178 $179 $37 $-1 $180 forward single #
loop $-1 $-1 $181 $71 #
plane-surface $-1 -200.14298774672397 25.080913219404991 102.36302022903357 0 1 0 -0.81915205242281985 0 0.57357642473473569 forward_v I I I I #
coedge $-1 $182 $183 $184 $185 reversed $72 $-1 #
face $-1 $-1 $186 $38 $-1 $187 forward single #
loop $-1 $188 $189 $74 #
cone-surface $-1 -70.965220296388608 27.678893601761331 17.130993828370034 0.81915205242281985 0 -0.57357642473473569 0.28678821236736785 0 0.40957602621140993 1 I I -0.70710678118654746 0.70710678118654746 0.5 forward I I I I #
loop $-1 $-1 $190 $48 #
coedge $-1 $119 $119 $191 $192 reversed $75 $-1 #
face $-1 $-1 $193 $39 $-1 $194 forward single #
loop $-1 $195 $196 $77 #
cone-surface $-1 -70.965220296388608 31.575864175295848 17.130993828370034 0.81915205242281985 0 -0.57357642473473569 0.28678821236736785 0 0.40957602621140993 1 I I -0.70710678118654746 0.70710678118654746 0.5 forward I I I I #
loop $-1 $-1 $197 $49 #
coedge $-1 $124 $124 $198 $199 reversed $78 $-1 #
face $-1 $200 $201 $30 $-1 $202 reversed single #
loop $-1 $-1 $203 $80 #
plane-surface $-1 0 -49.804631105157995 0 0 1 0 0 0 1 forward_v I I I I #
coedge $-1 $204 $205 $206 $207 forward $81 $-1 #
coedge $-1 $208 $83 $209 $210 forward $51 $-1 #
coedge $-1 $83 $208 $211 $212 forward $51 $-1 #
coedge $-1 $213 $214 $83 $132 reversed $215 $-1 #
edge $-1 $216 -49.804631105157995 $217 49.804631105157995 $131 $218 forward 7 unknown #
face $-1 $219 $220 $31 $-1 $221 reversed single #
loop $-1 $-1 $222 $84 #
plane-surface $-1 -75.860469374675745 0 0 1 0 0 0 0 -1 forward_v I I I I #
coedge $-1 $223 $224 $225 $226 reversed $85 $-1 #
coedge $-1 $227 $87 $228 $229 reversed $54 $-1 #
coedge $-1 $87 $227 $223 $230 forward $54 $-1 #
coedge $-1 $225 $231 $87 $140 forward $232 $-1 #
edge $-1 $233 -28.810012189455446 $234 -13.179225641949653 $139 $235 forward 7 unknown #
face $-1 $236 $237 $32 $-1 $238 reversed single #
loop $-1 $-1 $239 $88 #
plane-surface $-1 0 0 22.343761655691505 0 0 1 1 0 0 forward_v I I I I #
coedge $-1 $240 $241 $242 $243 reversed $89 $-1 #
coedge $-1 $244 $91 $240 $245 forward $57 $-1 #
coedge $-1 $91 $244 $246 $247 reversed $57 $-1 #
coedge $-1 $248 $249 $91 $148 forward $237 $-1 #
edge $-1 $250 13.17922564194965 $251 28.810012189455442 $147 $252 forward 7 unknown #
face $-1 $253 $254 $33 $-1 $255 forward single #
loop $-1 $-1 $256 $92 #
plane-surface $-1 83.348710726520778 2.7927420492620421 231.54736746320484 0 1 0 0.73135370988377701 0 0.68199835119979291 forward_v I I I I #
coedge $-1 $257 $258 $259 $260 reversed $93 $-1 #
coedge $-1 $154 $95 $261 $262 reversed $60 $-1 #
coedge $-1 $95 $153 $257 $263 reversed $60 $-1 #
coedge $-1 $259 $264 $95 $156 forward $254 $-1 #
edge $-1 $265 -34.186114011415356 $266 -29.307665482090201 $155 $267 forward 7 unknown #
loop $-1 $-1 $162 $96 #
plane-surface $-1 -27.612960694866729 11.430223760801695 128.07393739366233 0.73135370988377701 0 0.68199835119979291 0.68199835119979291 0 -0.73135370988377701 forward_v I I I I #
loop $-1 $-1 $268 $62 #
coedge $-1 $160 $160 $161 $269 reversed $97 $-1 #
coedge $-1 $161 $161 $160 $269 forward $99 $-1 #
coedge $-1 $162 $162 $100 $163 forward $157 $-1 #
edge $-1 $270 0 $270 6.2831853071796004 $162 $271 forward 7 unknown #
loop $-1 $-1 $169 $101 #
plane-surface $-1 -27.612960694866729 11.430223760801695 128.07393739366233 0.73135370988377701 0 0.68199835119979291 0.68199835119979291 0 -0.73135370988377701 forward_v I I I I #
loop $-1 $-1 $272 $65 #
coedge $-1 $167 $167 $168 $273 reversed $102 $-1 #
coedge $-1 $168 $168 $167 $273 forward $104 $-1 #
coedge $-1 $169 $169 $105 $170 forward $164 $-1 #
edge $-1 $274 0 $274 6.2831853071796004 $169 $275 forward 7 unknown #
loop $-1 $-1 $176 $106 #
plane-surface $-1 -27.612960694866729 11.430223760801695 128.07393739366233 0.73135370988377701 0 0.68199835119979291 0.68199835119979291 0 -0.73135370988377701 forward_v I I I I #
loop $-1 $-1 $276 $68 #
coedge $-1 $174 $174 $175 $277 reversed $107 $-1 #
coedge $-1 $175 $175 $174 $277 forward $109 $-1 #
coedge $-1 $176 $176 $110 $177 forward $171 $-1 #
edge $-1 $278 0 $278 6.2831853071796004 $176 $279 forward 7 unknown #
face $-1 $280 $281 $37 $-1 $282 forward single #
loop $-1 $-1 $283 $111 #
plane-surface $-1 0 0 22.343761655691505 0 0 1 1 0 0 forward_v I I I I #
coedge $-1 $284 $285 $286 $287 reversed $112 $-1 #
coedge $-1 $288 $114 $289 $290 reversed $72 $-1 #
coedge $-1 $114 $288 $284 $291 forward $72 $-1 #
coedge $-1 $286 $292 $114 $185 forward $293 $-1 #
edge $-1 $294 -19.360155113387897 $295 -10.267223775140693 $184 $296 forward 7 unknown #
loop $-1 $-1 $191 $115 #
plane-surface $-1 -75.860469374675759 29.627378888528597 15.339466623782712 -0.81915205242281985 0 0.57357642473473569 0.57357642473473569 0 0.81915205242281985 forward_v I I I I #
loop $-1 $-1 $297 $74 #
coedge $-1 $189 $189 $190 $298 reversed $116 $-1 #
coedge $-1 $190 $190 $189 $298 forward $118 $-1 #
coedge $-1 $191 $191 $119 $192 forward $186 $-1 #
edge $-1 $299 0 $299 6.2831853071796004 $191 $300 forward 7 unknown #
loop $-1 $-1 $198 $120 #
plane-surface $-1 -75.860469374675759 29.627378888528597 15.339466623782712 -0.81915205242281985 0 0.57357642473473569 0.57357642473473569 0 0.81915205242281985 forward_v I I I I #
loop $-1 $-1 $301 $77 #
coedge $-1 $196 $196 $197 $302 reversed $121 $-1 #
coedge $-1 $197 $197 $196 $302 forward $123 $-1 #
coedge $-1 $198 $198 $124 $199 forward $193 $-1 #
edge $-1 $303 0 $303 6.2831853071796004 $198 $304 forward 7 unknown #
face $-1 $305 $306 $30 $-1 $307 reversed single #
loop $-1 $-1 $308 $125 #
plane-surface $-1 -75.860469374675745 0 0 1 0 0 0 0 -1 forward_v I I I I #
coedge $-1 $309 $211 $310 $311 forward $126 $-1 #
coedge $-1 $312 $128 $309 $313 forward $81 $-1 #
coedge $-1 $128 $312 $314 $315 forward $81 $-1 #
coedge $-1 $214 $213 $128 $207 reversed $215 $-1 #
edge $-1 $316 -49.804631105157995 $317 49.804631105157995 $206 $318 forward 7 unknown #
coedge $-1 $130 $129 $319 $320 forward $51 $-1 #
coedge $-1 $321 $322 $129 $210 reversed $306 $-1 #
edge $-1 $217 -75.860469374675745 $323 75.860469374675745 $209 $324 forward 7 unknown #
coedge $-1 $203 $325 $130 $212 reversed $126 $-1 #
edge $-1 $326 -75.860469374675745 $216 75.860469374675745 $211 $327 forward 7 unknown #
coedge $-1 $206 $131 $325 $328 forward $215 $-1 #
coedge $-1 $131 $206 $321 $329 reversed $215 $-1 #
loop $-1 $-1 $213 $305 #
vertex $-1 $132 $330 #
vertex $-1 $132 $331 #
straight-curve $-1 75.860469374675745 0 22.343761655691505 0 1 0 I I #
face $-1 $332 $333 $31 $-1 $334 forward single #
loop $-1 $-1 $228 $133 #
plane-surface $-1 0 -49.804631105157995 0 0 1 0 0 0 1 forward_v I I I I #
coedge $-1 $335 $336 $337 $338 forward $134 $-1 #
coedge $-1 $337 $136 $138 $230 reversed $85 $-1 #
coedge $-1 $136 $337 $339 $340 reversed $85 $-1 #
coedge $-1 $341 $139 $136 $226 forward $232 $-1 #
edge $-1 $234 2.8494825287246552 $342 13.946013594219449 $225 $343 forward 7 unknown #
coedge $-1 $138 $137 $335 $344 reversed $54 $-1 #
coedge $-1 $345 $346 $137 $229 forward $220 $-1 #
edge $-1 $347 -75.860469374675745 $233 75.860469374675745 $228 $348 forward 7 unknown #
edge $-1 $349 -75.860469374675745 $234 75.860469374675745 $223 $350 forward 7 unknown #
coedge $-1 $139 $341 $345 $351 forward $232 $-1 #
loop $-1 $-1 $225 $332 #
vertex $-1 $229 $352 #
vertex $-1 $140 $353 #
straight-curve $-1 75.860469374675745 -20.994618915702549 11.247230590196708 0 1 0 I I #
face $-1 $354 $355 $32 $-1 $356 reversed single #
loop $-1 $-1 $249 $141 #
plane-surface $-1 75.860469374675745 0 0 -1 0 0 0 0 1 forward_v I I I I #
coedge $-1 $357 $358 $241 $359 forward $142 $-1 #
coedge $-1 $360 $144 $145 $245 reversed $89 $-1 #
coedge $-1 $144 $360 $239 $359 reversed $89 $-1 #
coedge $-1 $361 $362 $144 $243 forward $355 $-1 #
edge $-1 $363 2.8494825287246552 $364 13.946013594219449 $242 $365 forward 7 unknown #
coedge $-1 $146 $145 $362 $366 reversed $57 $-1 #
edge $-1 $250 -75.860469374675745 $363 75.860469374675745 $240 $367 forward 7 unknown #
coedge $-1 $368 $369 $146 $247 forward $370 $-1 #
edge $-1 $251 -75.860469374675745 $371 75.860469374675745 $246 $372 forward 7 unknown #
coedge $-1 $373 $147 $369 $374 reversed $237 $-1 #
coedge $-1 $147 $373 $360 $375 forward $237 $-1 #
vertex $-1 $148 $376 #
vertex $-1 $247 $377 #
straight-curve $-1 75.860469374675745 20.994618915702546 11.247230590196708 0 1 0 I I #
face $-1 $-1 $378 $33 $-1 $379 reversed single #
loop $-1 $-1 $155 $149 #
plane-surface $-1 0 0 22.343761655691505 0 0 1 1 0 0 forward_v I I I I #
coedge $-1 $380 $381 $382 $383 reversed $150 $-1 #
coedge $-1 $384 $152 $154 $263 forward $93 $-1 #
coedge $-1 $152 $384 $380 $385 forward $93 $-1 #
coedge $-1 $382 $155 $152 $260 forward $254 $-1 #
edge $-1 $266 -14.352593591940501 $386 2.9223698311388056 $259 $387 forward 7 unknown #
coedge $-1 $388 $389 $153 $262 forward $378 $-1 #
edge $-1 $390 -98.661417759327577 $265 -93.429922075910909 $261 $391 forward 7 unknown #
edge $-1 $266 144.56777111963089 $390 151.72093874935143 $154 $392 forward 7 unknown #
coedge $-1 $155 $382 $388 $393 forward $254 $-1 #
vertex $-1 $262 $394 #
vertex $-1 $156 $395 #
straight-curve $-1 41.674355363260389 20.067705472341348 22.343761655691509 -1 0 0 I I #
coedge $-1 $268 $268 $-1 $396 reversed $159 $-1 #
edge $-1 $397 0 $397 6.2831853071796004 $160 $398 forward 7 unknown #
vertex $-1 $163 $399 #
ellipse-curve $-1 73.42124511001316 6.2477347338778983 19.728013813983164 0.73135370988377701 0 0.68199835119979291 0.68199835119979291 0 -0.73135370988377701 1 I I #
coedge $-1 $272 $272 $-1 $400 reversed $166 $-1 #
edge $-1 $401 0 $401 6.2831853071796004 $167 $402 forward 7 unknown #
vertex $-1 $170 $403 #
ellipse-curve $-1 73.42124511001316 11.430223760801688 19.728013813983164 0.73135370988377701 0 0.68199835119979291 0.68199835119979291 0 -0.73135370988377701 1 I I #
coedge $-1 $276 $276 $-1 $404 reversed $173 $-1 #
edge $-1 $405 0 $405 6.2831853071796004 $174 $406 forward 7 unknown #
vertex $-1 $177 $407 #
ellipse-curve $-1 73.42124511001316 16.612712787725485 19.728013813983164 0.73135370988377701 0 0.68199835119979291 0.68199835119979291 0 -0.73135370988377701 1 I I #
face $-1 $-1 $293 $37 $-1 $408 reversed single #
loop $-1 $-1 $289 $178 #
plane-surface $-1 0 34.173844557652195 16.795496122944105 0 1 0 0 0 1 forward_v I I I I #
coedge $-1 $409 $410 $285 $411 forward $179 $-1 #
coedge $-1 $285 $181 $183 $291 reversed $112 $-1 #
coedge $-1 $181 $284 $283 $411 reversed $112 $-1 #
coedge $-1 $412 $184 $181 $287 forward $293 $-1 #
edge $-1 $295 -35.842043490734049 $413 -28.837748458825278 $286 $414 forward 7 unknown #
coedge $-1 $183 $182 $409 $415 reversed $72 $-1 #
coedge $-1 $416 $417 $182 $290 forward $281 $-1 #
edge $-1 $418 13.801577875387892 $294 22.352243177625798 $289 $419 forward 7 unknown #
edge $-1 $420 -8.5506653022379311 $295 -2.4157181099100639e-014 $284 $421 forward 7 unknown #
coedge $-1 $184 $412 $416 $422 forward $293 $-1 #
loop $-1 $-1 $286 $280 #
vertex $-1 $290 $423 #
vertex $-1 $185 $424 #
straight-curve $-1 -75.860469374675745 14.813689444264298 15.339466623782716 0 -1 0 I I #
coedge $-1 $297 $297 $-1 $425 reversed $188 $-1 #
edge $-1 $426 0 $426 6.2831853071796004 $189 $427 forward 7 unknown #
vertex $-1 $192 $428 #
ellipse-curve $-1 -73.408239358095258 27.678893601761331 18.841614139737118 -0.81915205242281985 0 0.57357642473473569 0.57357642473473569 0 0.81915205242281985 1 I I #
coedge $-1 $301 $301 $-1 $429 reversed $195 $-1 #
edge $-1 $430 0 $430 6.2831853071796004 $196 $431 forward 7 unknown #
vertex $-1 $199 $432 #
ellipse-curve $-1 -73.408239358095258 31.575864175295848 18.841614139737118 -0.81915205242281985 0 0.57357642473473569 0.57357642473473569 0 0.81915205242281985 1 I I #
face $-1 $-1 $215 $30 $-1 $433 reversed single #
loop $-1 $-1 $321 $200 #
plane-surface $-1 0 49.804631105157995 0 0 -1 0 0 0 -1 forward_v I I I I #
coedge $-1 $434 $319 $322 $435 forward $201 $-1 #
coedge $-1 $325 $203 $204 $313 reversed $126 $-1 #
coedge $-1 $319 $434 $203 $311 reversed $201 $-1 #
edge $-1 $326 -22.343761655691505 $436 22.343761655691505 $310 $437 forward 7 unknown #
coedge $-1 $205 $204 $434 $438 forward $81 $-1 #
edge $-1 $317 -75.860469374675745 $436 75.860469374675745 $309 $439 forward 7 unknown #
coedge $-1 $322 $321 $205 $315 reversed $306 $-1 #
edge $-1 $440 -75.860469374675745 $316 75.860469374675745 $314 $441 forward 7 unknown #
vertex $-1 $207 $442 #
vertex $-1 $328 $443 #
straight-curve $-1 75.860469374675745 0 -22.343761655691505 0 -1 0 I I #
coedge $-1 $308 $310 $208 $320 reversed $201 $-1 #
edge $-1 $323 -49.804631105157995 $326 49.804631105157995 $319 $444 forward 7 unknown #
coedge $-1 $314 $209 $214 $329 forward $306 $-1 #
coedge $-1 $209 $314 $308 $435 reversed $306 $-1 #
vertex $-1 $210 $445 #
straight-curve $-1 0 49.804631105157995 22.343761655691505 -1 0 0 I I #
coedge $-1 $211 $309 $213 $328 reversed $126 $-1 #
vertex $-1 $320 $446 #
straight-curve $-1 0 -49.804631105157995 22.343761655691505 1 0 0 I I #
edge $-1 $216 -22.343761655691505 $317 22.343761655691505 $213 $447 forward 7 unknown #
edge $-1 $217 -22.343761655691505 $316 22.343761655691505 $214 $448 forward 7 unknown #
point $-1 75.860469374675745 -49.804631105157995 22.343761655691505 #
point $-1 75.860469374675745 49.804631105157995 22.343761655691505 #
face $-1 $-1 $232 $31 $-1 $449 reversed single #
loop $-1 $-1 $339 $219 #
plane-surface $-1 0 0 22.343761655691505 0 0 1 1 0 0 forward_v I I I I #
coedge $-1 $450 $222 $227 $344 forward $134 $-1 #
coedge $-1 $222 $450 $451 $452 reversed $134 $-1 #
coedge $-1 $224 $223 $222 $338 reversed $85 $-1 #
edge $-1 $453 -13.946013594219449 $349 -2.8494825287246552 $222 $454 forward 7 unknown #
coedge $-1 $451 $455 $224 $340 forward $333 $-1 #
edge $-1 $342 -75.860469374675745 $453 75.860469374675745 $339 $456 forward 7 unknown #
coedge $-1 $231 $225 $455 $457 reversed $232 $-1 #
vertex $-1 $226 $458 #
straight-curve $-1 75.860469374675745 -34.173844557652203 8.3977480614720523 0 0 1 I I #
edge $-1 $349 13.179225641949653 $347 28.810012189455446 $335 $459 forward 7 unknown #
coedge $-1 $460 $228 $231 $351 reversed $220 $-1 #
coedge $-1 $228 $460 $450 $461 forward $220 $-1 #
vertex $-1 $229 $462 #
straight-curve $-1 0 -49.804631105157995 11.247230590196708 1 0 0 I I #
vertex $-1 $344 $463 #
straight-curve $-1 0 -34.173844557652203 11.247230590196708 1 0 0 I I #
edge $-1 $464 -22.343761655691505 $233 -11.247230590196708 $231 $465 forward 7 unknown #
point $-1 75.860469374675745 -49.804631105157995 11.247230590196708 #
point $-1 75.860469374675745 -34.173844557652203 11.247230590196708 #
face $-1 $-1 $370 $32 $-1 $466 reversed single #
loop $-1 $-1 $242 $236 #
plane-surface $-1 -75.860469374675745 0 0 1 0 0 0 0 -1 forward_v I I I I #
coedge $-1 $467 $239 $373 $468 forward $142 $-1 #
coedge $-1 $239 $467 $361 $469 forward $142 $-1 #
edge $-1 $364 -75.860469374675745 $470 75.860469374675745 $239 $471 forward 7 unknown #
coedge $-1 $241 $240 $249 $375 reversed $89 $-1 #
coedge $-1 $472 $242 $358 $469 reversed $355 $-1 #
coedge $-1 $242 $472 $244 $366 forward $355 $-1 #
vertex $-1 $366 $473 #
vertex $-1 $243 $474 #
straight-curve $-1 -75.860469374675745 34.173844557652195 8.3977480614720523 0 0 1 I I #
edge $-1 $371 -28.810012189455442 $363 -13.17922564194965 $362 $475 forward 7 unknown #
straight-curve $-1 0 34.173844557652195 11.247230590196708 -1 0 0 I I #
coedge $-1 $476 $246 $472 $477 reversed $370 $-1 #
coedge $-1 $246 $476 $248 $374 forward $370 $-1 #
loop $-1 $-1 $246 $354 #
vertex $-1 $247 $478 #
straight-curve $-1 0 49.804631105157995 11.247230590196708 -1 0 0 I I #
coedge $-1 $249 $248 $357 $468 reversed $237 $-1 #
edge $-1 $479 -22.343761655691505 $251 -11.247230590196708 $248 $480 forward 7 unknown #
edge $-1 $470 -13.946013594219449 $250 -2.8494825287246552 $249 $481 forward 7 unknown #
point $-1 75.860469374675745 34.173844557652195 11.247230590196708 #
point $-1 75.860469374675745 49.804631105157988 11.247230590196708 #
loop $-1 $-1 $261 $253 #
plane-surface $-1 75.860469374675745 0 0 -1 0 0 0 0 1 forward_v I I I I #
coedge $-1 $381 $256 $258 $385 reversed $150 $-1 #
coedge $-1 $256 $380 $482 $483 reversed $150 $-1 #
coedge $-1 $264 $259 $256 $383 forward $254 $-1 #
edge $-1 $386 29.307665482090201 $484 34.186114011415356 $382 $485 forward 7 unknown #
coedge $-1 $258 $257 $389 $486 reversed $93 $-1 #
edge $-1 $487 -151.72093874935143 $386 -144.56777111963089 $380 $488 forward 7 unknown #
vertex $-1 $260 $489 #
straight-curve $-1 70.98202084535059 5.7151118804008476 22.343761655691509 0 -1 0 I I #
coedge $-1 $482 $261 $264 $393 reversed $378 $-1 #
coedge $-1 $261 $482 $384 $486 forward $378 $-1 #
vertex $-1 $262 $490 #
straight-curve $-1 75.860469374675745 20.067705472341348 115.77368373160242 0 0 1 I I #
straight-curve $-1 -27.612960694866729 20.067705472341348 128.07393739366233 0.68199835119979291 0 -0.73135370988377701 I I #
edge $-1 $484 2.7927420492620421 $265 20.067705472341348 $388 $491 forward 7 unknown #
point $-1 75.860469374675745 20.067705472341348 22.343761655691505 #
point $-1 70.98202084535059 20.067705472341348 22.343761655691509 #
edge $-1 $492 1 $492 0 $268 $-1 forward 7 unknown #
vertex $-1 $269 $493 #
ellipse-curve $-1 72.468724252961863 6.2477347338778983 18.8397737665024 0.73135370988377701 0 0.68199835119979291 0.68199835119979291 0 -0.73135370988377701 1 I I #
point $-1 74.103243461212969 6.2477347338778983 18.996660104099387 #
edge $-1 $494 1 $494 0 $272 $-1 forward 7 unknown #
vertex $-1 $273 $495 #
ellipse-curve $-1 72.468724252961863 11.430223760801688 18.8397737665024 0.73135370988377701 0 0.68199835119979291 0.68199835119979291 0 -0.73135370988377701 1 I I #
point $-1 74.103243461212969 11.430223760801688 18.996660104099387 #
edge $-1 $496 1 $496 0 $276 $-1 forward 7 unknown #
vertex $-1 $277 $497 #
ellipse-curve $-1 72.468724252961863 16.612712787725485 18.8397737665024 0.73135370988377701 0 0.68199835119979291 0.68199835119979291 0 -0.73135370988377701 1 I I #
point $-1 74.103243461212969 16.612712787725485 18.996660104099387 #
plane-surface $-1 -75.860469374675745 0 0 1 0 0 0 0 -1 forward_v I I I I #
coedge $-1 $498 $283 $288 $415 forward $179 $-1 #
coedge $-1 $283 $498 $412 $499 forward $179 $-1 #
edge $-1 $413 24.211024498686243 $420 29.115484531847216 $283 $500 forward 7 unknown #
coedge $-1 $292 $286 $410 $499 reversed $293 $-1 #
vertex $-1 $287 $501 #
straight-curve $-1 -75.860469374675745 25.080913219404991 51.181510114516783 0 0 1 I I #
edge $-1 $420 10.267223775140693 $418 19.360155113387904 $409 $502 forward 7 unknown #
coedge $-1 $417 $289 $292 $422 reversed $281 $-1 #
coedge $-1 $289 $416 $498 $503 reversed $281 $-1 #
vertex $-1 $503 $504 #
straight-curve $-1 -63.039749648051753 34.173844557652195 33.649352498988875 -0.57357642473473569 0 -0.81915205242281985 I I #
vertex $-1 $415 $505 #
straight-curve $-1 -75.860469374675759 25.080913219404991 15.339466623782712 -0.57357642473473569 0 -0.81915205242281985 I I #
edge $-1 $506 -13.946013594219449 $294 -6.9417185623106796 $292 $507 forward 7 unknown #
point $-1 -75.860469374675745 34.173844557652195 15.339466623782732 #
point $-1 -75.860469374675745 25.080913219404991 15.339466623782732 #
edge $-1 $508 1 $508 0 $297 $-1 forward 7 unknown #
vertex $-1 $298 $509 #
ellipse-curve $-1 -71.374796322600019 27.678893601761331 17.417782040737404 -0.81915205242281985 0 0.57357642473473569 0.57357642473473569 0 0.81915205242281985 1 I I #
point $-1 -72.834662933360505 27.678893601761331 19.660766192159929 #
edge $-1 $510 1 $510 0 $301 $-1 forward 7 unknown #
vertex $-1 $302 $511 #
ellipse-curve $-1 -71.374796322600019 31.575864175295848 17.417782040737404 -0.81915205242281985 0 0.57357642473473569 0.57357642473473569 0 0.81915205242281985 1 I I #
point $-1 -72.834662933360505 31.575864175295848 19.660766192159929 #
plane-surface $-1 75.860469374675745 0 0 -1 0 0 0 0 1 forward_v I I I I #
coedge $-1 $310 $308 $312 $438 reversed $201 $-1 #
edge $-1 $323 -22.343761655691505 $440 22.343761655691505 $322 $512 forward 7 unknown #
vertex $-1 $438 $513 #
straight-curve $-1 -75.860469374675745 -49.804631105157995 0 0 0 -1 I I #
edge $-1 $436 -49.804631105157995 $440 49.804631105157995 $434 $514 forward 7 unknown #
straight-curve $-1 0 -49.804631105157995 -22.343761655691505 -1 0 0 I I #
vertex $-1 $315 $515 #
straight-curve $-1 0 49.804631105157995 -22.343761655691505 1 0 0 I I #
point $-1 75.860469374675745 49.804631105157995 -22.343761655691505 #
point $-1 75.860469374675745 -49.804631105157995 -22.343761655691505 #
straight-curve $-1 -75.860469374675745 0 22.343761655691505 0 -1 0 I I #
point $-1 -75.860469374675745 49.804631105157995 22.343761655691505 #
point $-1 -75.860469374675745 -49.804631105157995 22.343761655691505 #
straight-curve $-1 75.860469374675745 -49.804631105157995 0 0 0 -1 I I #
straight-curve $-1 75.860469374675745 49.804631105157995 0 0 0 -1 I I #
plane-surface $-1 75.860469374675745 0 0 -1 0 0 0 0 1 forward_v I I I I #
coedge $-1 $336 $335 $346 $461 reversed $134 $-1 #
coedge $-1 $516 $339 $336 $452 forward $333 $-1 #
edge $-1 $453 34.173844557652203 $517 49.804631105157995 $336 $518 forward 7 unknown #
vertex $-1 $452 $519 #
straight-curve $-1 -75.860469374675745 -34.173844557652203 8.3977480614720523 0 0 -1 I I #
coedge $-1 $339 $516 $341 $457 forward $333 $-1 #
straight-curve $-1 0 -34.173844557652203 22.343761655691505 -1 0 0 I I #
edge $-1 $464 -49.804631105157995 $342 -34.173844557652203 $341 $520 forward 7 unknown #
point $-1 75.860469374675745 -34.173844557652203 22.343761655691502 #
straight-curve $-1 -75.860469374675745 -20.994618915702549 11.247230590196708 0 -1 0 I I #
coedge $-1 $346 $345 $516 $521 reversed $220 $-1 #
edge $-1 $517 -22.343761655691505 $347 -11.247230590196708 $450 $522 forward 7 unknown #
point $-1 -75.860469374675745 -49.804631105157995 11.247230590196708 #
point $-1 -75.860469374675745 -34.173844557652203 11.247230590196708 #
vertex $-1 $457 $523 #
straight-curve $-1 75.860469374675745 -49.804631105157995 0 0 0 -1 I I #
plane-surface $-1 0 49.804631105157995 0 0 -1 0 0 0 -1 forward_v I I I I #
coedge $-1 $358 $357 $476 $524 forward $142 $-1 #
edge $-1 $470 34.173844557652195 $479 49.804631105157995 $373 $525 forward 7 unknown #
edge $-1 $526 -49.804631105157995 $364 -34.173844557652195 $361 $527 forward 7 unknown #
vertex $-1 $468 $528 #
straight-curve $-1 0 34.173844557652195 22.343761655691505 1 0 0 I I #
coedge $-1 $362 $361 $368 $477 forward $355 $-1 #
point $-1 -75.860469374675745 34.173844557652195 11.247230590196708 #
point $-1 -75.860469374675745 34.173844557652195 22.343761655691502 #
straight-curve $-1 -75.860469374675745 20.994618915702546 11.247230590196708 0 -1 0 I I #
coedge $-1 $369 $368 $467 $524 reversed $370 $-1 #
edge $-1 $526 -22.343761655691505 $371 -11.247230590196708 $368 $529 forward 7 unknown #
point $-1 -75.860469374675745 49.804631105157988 11.247230590196708 #
vertex $-1 $468 $530 #
straight-curve $-1 75.860469374675745 49.804631105157995 0 0 0 -1 I I #
straight-curve $-1 75.860469374675745 34.173844557652195 8.3977480614720523 0 0 -1 I I #
coedge $-1 $389 $388 $381 $483 forward $378 $-1 #
edge $-1 $484 93.429922075910909 $487 98.661417759327577 $482 $531 forward 7 unknown #
vertex $-1 $393 $532 #
straight-curve $-1 41.674355363260389 2.7927420492620421 22.343761655691509 1 0 0 I I #
edge $-1 $487 -2.9223698311388056 $390 14.352593591940501 $389 $533 forward 7 unknown #
vertex $-1 $486 $534 #
straight-curve $-1 -27.612960694866729 2.7927420492620421 128.07393739366233 -0.68199835119979291 0 0.73135370988377701 I I #
point $-1 70.98202084535059 2.7927420492620421 22.343761655691509 #
point $-1 75.860469374675731 20.067705472341348 17.112265972274841 #
straight-curve $-1 75.860469374675745 0 22.343761655691505 0 1 0 I I #
vertex $-1 $396 $535 #
point $-1 73.150722604161658 6.2477347338778983 18.108420056618623 #
vertex $-1 $400 $536 #
point $-1 73.150722604161658 11.430223760801688 18.108420056618623 #
vertex $-1 $404 $537 #
point $-1 73.150722604161658 16.612712787725485 18.108420056618623 #
coedge $-1 $410 $409 $417 $503 forward $179 $-1 #
edge $-1 $506 -34.173844557652195 $413 -25.080913219404991 $412 $538 forward 7 unknown #
straight-curve $-1 -100.07149387336199 25.080913219404991 22.343761655691509 1 0 0 I I #
point $-1 -75.860469374675745 25.080913219404991 22.343761655691505 #
straight-curve $-1 -70.956009341514772 14.813689444264298 22.343761655691509 0 1 0 I I #
edge $-1 $418 70.956009341514772 $506 75.860469374675745 $498 $539 forward 7 unknown #
point $-1 -70.956009341514772 34.173844557652203 22.343761655691505 #
point $-1 -70.956009341514772 25.080913219404991 22.343761655691505 #
vertex $-1 $499 $540 #
straight-curve $-1 -75.860469374675745 34.173844557652195 8.3977480614720523 0 0 -1 I I #
vertex $-1 $425 $541 #
point $-1 -70.80121989786528 27.678893601761331 18.236934093160222 #
vertex $-1 $429 $542 #
point $-1 -70.80121989786528 31.575864175295848 18.236934093160222 #
straight-curve $-1 -75.860469374675745 49.804631105157995 0 0 0 -1 I I #
point $-1 -75.860469374675745 -49.804631105157995 -22.343761655691505 #
straight-curve $-1 -75.860469374675745 0 -22.343761655691505 0 1 0 I I #
point $-1 -75.860469374675745 49.804631105157995 -22.343761655691505 #
coedge $-1 $455 $451 $460 $521 forward $333 $-1 #
vertex $-1 $452 $543 #
straight-curve $-1 -75.860469374675745 0 22.343761655691505 0 -1 0 I I #
point $-1 -75.860469374675745 -34.173844557652203 22.343761655691502 #
straight-curve $-1 75.860469374675745 0 22.343761655691505 0 1 0 I I #
edge $-1 $517 -75.860469374675745 $464 75.860469374675745 $460 $544 forward 7 unknown #
straight-curve $-1 -75.860469374675745 -49.804631105157995 0 0 0 -1 I I #
point $-1 75.860469374675745 -49.804631105157995 22.343761655691505 #
edge $-1 $479 -75.860469374675745 $526 75.860469374675745 $476 $545 forward 7 unknown #
straight-curve $-1 75.860469374675745 0 22.343761655691505 0 1 0 I I #
vertex $-1 $524 $546 #
straight-curve $-1 -75.860469374675745 0 22.343761655691505 0 -1 0 I I #
point $-1 75.860469374675745 34.173844557652195 22.343761655691502 #
straight-curve $-1 -75.860469374675745 49.804631105157995 0 0 0 -1 I I #
point $-1 75.860469374675745 49.804631105157995 22.343761655691505 #
straight-curve $-1 75.860469374675745 2.7927420492620421 115.77368373160242 0 0 -1 I I #
point $-1 75.860469374675745 2.7927420492620421 22.343761655691505 #
straight-curve $-1 75.860469374675745 5.7151118804008476 17.11226597227482 0 1 0 I I #
point $-1 75.860469374675731 2.7927420492620421 17.112265972274841 #
point $-1 71.7373705430781 6.2477347338778983 18.157775415302606 #
point $-1 71.7373705430781 11.430223760801688 18.157775415302606 #
point $-1 71.7373705430781 16.612712787725485 18.157775415302606 #
straight-curve $-1 -75.860469374675745 0 22.343761655691505 0 -1 0 I I #
straight-curve $-1 0 34.173844557652195 22.343761655691505 -1 0 0 I I #
point $-1 -75.860469374675745 34.173844557652195 22.343761655691502 #
point $-1 -70.555644270177197 27.678893601761331 16.844205616002665 #
point $-1 -70.555644270177197 31.575864175295848 16.844205616002665 #
point $-1 -75.860469374675745 -49.804631105157995 22.343761655691505 #
straight-curve $-1 0 -49.804631105157995 22.343761655691505 1 0 0 I I #
straight-curve $-1 0 49.804631105157995 22.343761655691505 -1 0 0 I I #
point $-1 -75.860469374675745 49.804631105157995 22.343761655691505 #
End-of-ACIS-data 