500 0 6 0           
7 Unknown 11 ACIS 5.0 NT 24 Thu Mar 25 15:10:48 1999 
-1 9.9999999999999995e-007 1e-010 
body $-1 $6 $-1 $7 #
body $-1 $8 $-1 $9 #
body $-1 $10 $-1 $11 #
body $-1 $12 $-1 $13 #
body $-1 $14 $-1 $15 #
body $-1 $16 $-1 $17 #
lump $-1 $-1 $18 $0 #
transform $-1 1 0 0 0 1 0 0 0 1 45.67155980101932 30.435069160775701 8.6909969979083286 1 rotate no_reflect no_shear #
lump $-1 $-1 $19 $1 #
transform $-1 1 0 0 0 1 0 0 0 1 45.67155980101932 30.435069160775701 8.6909969979083286 1 rotate no_reflect no_shear #
lump $-1 $-1 $20 $2 #
transform $-1 1 0 0 0 1 0 0 0 1 45.67155980101932 30.435069160775701 8.6909969979083286 1 rotate no_reflect no_shear #
lump $-1 $-1 $21 $3 #
transform $-1 1 0 0 0 1 0 0 0 1 45.67155980101932 30.435069160775701 8.6909969979083286 1 rotate no_reflect no_shear #
lump $-1 $-1 $22 $4 #
transform $-1 1 0 0 0 1 0 0 0 1 45.67155980101932 30.435069160775701 8.6909969979083286 1 rotate no_reflect no_shear #
lump $-1 $-1 $23 $5 #
transform $-1 1 0 0 0 1 0 0 0 1 45.67155980101932 30.435069160775701 8.6909969979083286 1 rotate no_reflect no_shear #
shell $-1 $-1 $-1 $24 $-1 $6 #
shell $-1 $-1 $-1 $25 $-1 $8 #
shell $-1 $-1 $-1 $26 $-1 $10 #
shell $-1 $-1 $-1 $27 $-1 $12 #
shell $-1 $-1 $-1 $28 $-1 $14 #
shell $-1 $-1 $-1 $29 $-1 $16 #
face $-1 $30 $31 $18 $-1 $32 forward single #
face $-1 $33 $34 $19 $-1 $35 reversed single #
face $-1 $36 $37 $20 $-1 $38 reversed single #
face $-1 $39 $40 $21 $-1 $41 reversed single #
face $-1 $42 $43 $22 $-1 $44 forward single #
face $-1 $45 $46 $23 $-1 $47 forward single #
face $-1 $48 $49 $18 $-1 $50 reversed single #
loop $-1 $-1 $51 $24 #
plane-surface $-1 0 0 8.6909969979083286 0 0 1 1 0 0 forward_v I I I I #
face $-1 $52 $53 $19 $-1 $54 reversed single #
loop $-1 $-1 $55 $25 #
plane-surface $-1 -42.224708322805938 0 5.5406796742913862 0 0 1 1 0 0 forward_v I I I I #
face $-1 $56 $57 $20 $-1 $58 reversed single #
loop $-1 $-1 $59 $26 #
plane-surface $-1 42.224708322805931 0 5.5406796742913862 0 0 1 1 0 0 forward_v I I I I #
face $-1 $60 $61 $21 $-1 $62 reversed single #
loop $-1 $-1 $63 $27 #
plane-surface $-1 -10.374342898297719 -106.16194804276226 51.129311627461554 -1 0 0 0 -0.82903758062907751 0.55919289150049634 forward_v I I I I #
face $-1 $64 $65 $22 $-1 $66 forward single #
loop $-1 $67 $68 $28 #
cone-surface $-1 -17.05893271548463 -26.684237013994291 3.8064338607112504 0 0.82903758062907751 -0.55919289150049634 1 0 0 1 I I 0 1 1 forward I I I I #
face $-1 $69 $70 $23 $-1 $71 forward single #
loop $-1 $72 $73 $29 #
cone-surface $-1 -13.048178825172485 -26.684237013994291 3.8064338607112504 0 0.82903758062907751 -0.55919289150049634 1 0 0 1 I I 0 1 1 forward I I I I #
face $-1 $74 $75 $18 $-1 $76 reversed single #
loop $-1 $-1 $77 $30 #
plane-surface $-1 0 0 -8.6909969979083286 0 0 1 1 0 0 forward_v I I I I #
coedge $-1 $78 $79 $80 $81 forward $31 $-1 #
face $-1 $82 $83 $19 $-1 $84 reversed single #
loop $-1 $-1 $85 $33 #
plane-surface $-1 -38.777856844592556 0 7.1158383360998574 -1 0 0 0 0 1 forward_v I I I I #
coedge $-1 $86 $87 $88 $89 forward $34 $-1 #
face $-1 $90 $91 $20 $-1 $92 forward single #
loop $-1 $-1 $93 $36 #
plane-surface $-1 38.777856844592549 0 7.1158383360998574 1 0 0 0 0 -1 forward_v I I I I #
coedge $-1 $94 $95 $96 $97 reversed $37 $-1 #
face $-1 $98 $99 $21 $-1 $100 reversed single #
loop $-1 $-1 $101 $39 #
plane-surface $-1 -15.053555770328558 -30.435069160775683 0.050888458521903601 0 -0.82903758062907751 0.55919289150049634 1 0 0 forward_v I I I I #
coedge $-1 $102 $103 $104 $105 reversed $40 $-1 #
face $-1 $-1 $106 $22 $-1 $107 forward single #
loop $-1 $108 $109 $42 #
cone-surface $-1 -17.05893271548463 -25.432799384273064 2.9623285474571368 0 0.82903758062907751 -0.55919289150049634 0.5 0 0 1 I I -0.70710678118654746 0.70710678118654746 0.5 forward I I I I #
loop $-1 $-1 $110 $28 #
coedge $-1 $68 $68 $111 $112 reversed $43 $-1 #
face $-1 $-1 $113 $23 $-1 $114 forward single #
loop $-1 $115 $116 $45 #
cone-surface $-1 -13.048178825172485 -25.432799384273064 2.9623285474571368 0 0.82903758062907751 -0.55919289150049634 0.5 0 0 1 I I -0.70710678118654746 0.70710678118654746 0.5 forward I I I I #
loop $-1 $-1 $117 $29 #
coedge $-1 $73 $73 $118 $119 reversed $46 $-1 #
face $-1 $120 $121 $18 $-1 $122 reversed single #
loop $-1 $-1 $123 $48 #
plane-surface $-1 0 -30.435069160775701 0 0 1 0 0 0 1 forward_v I I I I #
coedge $-1 $124 $125 $126 $127 forward $49 $-1 #
coedge $-1 $128 $51 $129 $130 forward $31 $-1 #
coedge $-1 $51 $128 $131 $132 forward $31 $-1 #
coedge $-1 $133 $134 $51 $81 reversed $135 $-1 #
edge $-1 $136 -30.435069160775701 $137 30.435069160775701 $80 $138 forward 7 unknown #
face $-1 $139 $140 $19 $-1 $141 reversed single #
loop $-1 $-1 $142 $52 #
plane-surface $-1 0 30.435069160775701 0 0 -1 0 0 0 -1 forward_v I I I I #
coedge $-1 $88 $143 $144 $145 reversed $53 $-1 #
coedge $-1 $146 $55 $147 $148 reversed $34 $-1 #
coedge $-1 $55 $146 $149 $150 reversed $34 $-1 #
coedge $-1 $151 $85 $55 $89 reversed $53 $-1 #
edge $-1 $152 -30.435069160775701 $153 30.435069160775701 $88 $154 forward 7 unknown #
face $-1 $155 $156 $20 $-1 $157 reversed single #
loop $-1 $-1 $158 $56 #
plane-surface $-1 0 0 8.6909969979083286 0 0 1 1 0 0 forward_v I I I I #
coedge $-1 $159 $160 $161 $162 reversed $57 $-1 #
coedge $-1 $163 $59 $164 $165 reversed $37 $-1 #
coedge $-1 $59 $163 $166 $167 reversed $37 $-1 #
coedge $-1 $168 $169 $59 $97 forward $170 $-1 #
edge $-1 $171 -30.435069160775701 $172 30.435069160775701 $96 $173 forward 7 unknown #
face $-1 $174 $175 $21 $-1 $176 forward single #
loop $-1 $-1 $177 $60 #
plane-surface $-1 -19.732768642359396 -106.16194804276226 51.129311627461554 1 0 0 0 0.82903758062907751 -0.55919289150049634 forward_v I I I I #
coedge $-1 $178 $179 $180 $181 reversed $61 $-1 #
coedge $-1 $103 $63 $182 $183 reversed $40 $-1 #
coedge $-1 $63 $102 $178 $184 reversed $40 $-1 #
coedge $-1 $180 $185 $63 $105 forward $175 $-1 #
edge $-1 $186 22.64590486060543 $187 28.473731475354892 $104 $188 forward 7 unknown #
loop $-1 $-1 $111 $64 #
plane-surface $-1 -15.053555770328558 -30.435069160775683 0.050888458521903601 0 -0.82903758062907751 0.55919289150049634 1 0 0 forward_v I I I I #
loop $-1 $-1 $189 $42 #
coedge $-1 $109 $109 $110 $190 reversed $65 $-1 #
coedge $-1 $110 $110 $109 $190 forward $67 $-1 #
coedge $-1 $111 $111 $68 $112 forward $106 $-1 #
edge $-1 $191 6.6704288995088982e-016 $191 6.2831853071796013 $111 $192 forward 7 unknown #
loop $-1 $-1 $118 $69 #
plane-surface $-1 -15.053555770328558 -30.435069160775683 0.050888458521903601 0 -0.82903758062907751 0.55919289150049634 1 0 0 forward_v I I I I #
loop $-1 $-1 $193 $45 #
coedge $-1 $116 $116 $117 $194 reversed $70 $-1 #
coedge $-1 $117 $117 $116 $194 forward $72 $-1 #
coedge $-1 $118 $118 $73 $119 forward $113 $-1 #
edge $-1 $195 6.6704288995088982e-016 $195 6.2831853071796013 $118 $196 forward 7 unknown #
face $-1 $197 $198 $18 $-1 $199 reversed single #
loop $-1 $-1 $200 $74 #
plane-surface $-1 -45.67155980101932 0 0 1 0 0 0 0 -1 forward_v I I I I #
coedge $-1 $201 $131 $202 $203 forward $75 $-1 #
coedge $-1 $204 $77 $201 $205 forward $49 $-1 #
coedge $-1 $77 $204 $206 $207 forward $49 $-1 #
coedge $-1 $134 $133 $77 $127 reversed $135 $-1 #
edge $-1 $208 -30.435069160775701 $209 30.435069160775701 $126 $210 forward 7 unknown #
coedge $-1 $79 $78 $211 $212 forward $31 $-1 #
coedge $-1 $213 $214 $78 $130 reversed $198 $-1 #
edge $-1 $137 -45.67155980101932 $215 45.67155980101932 $129 $216 forward 7 unknown #
coedge $-1 $123 $217 $79 $132 reversed $75 $-1 #
edge $-1 $218 -45.67155980101932 $136 45.67155980101932 $131 $219 forward 7 unknown #
coedge $-1 $126 $80 $217 $220 forward $135 $-1 #
coedge $-1 $80 $126 $213 $221 reversed $135 $-1 #
loop $-1 $-1 $133 $197 #
vertex $-1 $81 $222 #
vertex $-1 $81 $223 #
straight-curve $-1 45.67155980101932 0 8.6909969979083286 0 1 0 I I #
face $-1 $224 $225 $19 $-1 $226 forward single #
loop $-1 $-1 $227 $82 #
plane-surface $-1 -45.67155980101932 0 0 1 0 0 0 0 -1 forward_v I I I I #
coedge $-1 $149 $228 $151 $229 forward $83 $-1 #
coedge $-1 $85 $151 $230 $231 reversed $53 $-1 #
coedge $-1 $232 $147 $85 $145 forward $233 $-1 #
edge $-1 $153 1.9827605062414575 $234 5.1330778298583999 $144 $235 forward 7 unknown #
coedge $-1 $87 $86 $227 $236 reversed $34 $-1 #
coedge $-1 $144 $237 $86 $148 forward $233 $-1 #
edge $-1 $238 -24.559205639616351 $153 -17.665502683189587 $147 $239 forward 7 unknown #
coedge $-1 $240 $142 $87 $150 forward $83 $-1 #
edge $-1 $152 17.665502683189587 $241 24.559205639616351 $149 $242 forward 7 unknown #
coedge $-1 $143 $88 $142 $229 reversed $53 $-1 #
vertex $-1 $150 $243 #
vertex $-1 $148 $244 #
straight-curve $-1 -38.777856844592556 0 5.5406796742913862 0 -1 0 I I #
face $-1 $245 $246 $20 $-1 $247 reversed single #
loop $-1 $-1 $248 $90 #
plane-surface $-1 0 -30.435069160775701 0 0 1 0 0 0 1 forward_v I I I I #
coedge $-1 $249 $250 $160 $251 forward $91 $-1 #
coedge $-1 $252 $93 $163 $253 reversed $57 $-1 #
coedge $-1 $93 $252 $158 $251 reversed $57 $-1 #
coedge $-1 $254 $166 $93 $162 forward $246 $-1 #
edge $-1 $255 1.9827605062414575 $256 5.1330778298583999 $161 $257 forward 7 unknown #
coedge $-1 $95 $94 $159 $253 forward $37 $-1 #
coedge $-1 $258 $248 $94 $165 forward $156 $-1 #
edge $-1 $259 17.665502683189583 $171 24.559205639616348 $164 $260 forward 7 unknown #
coedge $-1 $161 $261 $95 $167 forward $246 $-1 #
edge $-1 $172 -24.559205639616348 $255 -17.665502683189583 $166 $262 forward 7 unknown #
coedge $-1 $263 $96 $261 $264 reversed $170 $-1 #
coedge $-1 $96 $263 $258 $265 forward $170 $-1 #
loop $-1 $-1 $96 $245 #
vertex $-1 $165 $266 #
vertex $-1 $97 $267 #
straight-curve $-1 45.67155980101932 0 5.5406796742913862 0 1 0 I I #
face $-1 $-1 $268 $21 $-1 $269 reversed single #
loop $-1 $-1 $104 $98 #
plane-surface $-1 0 0 8.6909969979083286 0 0 1 1 0 0 forward_v I I I I #
coedge $-1 $270 $271 $272 $273 reversed $99 $-1 #
coedge $-1 $274 $101 $103 $184 forward $61 $-1 #
coedge $-1 $101 $274 $270 $275 forward $61 $-1 #
coedge $-1 $272 $104 $101 $181 forward $175 $-1 #
edge $-1 $187 2.8475650131334405 $276 12.205990757195117 $180 $277 forward 7 unknown #
coedge $-1 $278 $279 $102 $183 forward $268 $-1 #
edge $-1 $280 -25.513767355208898 $186 -16.873658815822449 $182 $281 forward 7 unknown #
edge $-1 $187 -10.421853895730845 $280 3.1764392649018396e-014 $103 $282 forward 7 unknown #
coedge $-1 $104 $272 $278 $283 forward $175 $-1 #
vertex $-1 $183 $284 #
vertex $-1 $105 $285 #
straight-curve $-1 -10.374342898297719 -53.080974021381131 8.6909969979083286 0 1 0 I I #
coedge $-1 $189 $189 $-1 $286 reversed $108 $-1 #
edge $-1 $287 0 $287 6.2831853071796004 $109 $288 forward 7 unknown #
vertex $-1 $112 $289 #
ellipse-curve $-1 -17.05893271548463 -27.521155853400966 4.3709427282151081 0 -0.82903758062907751 0.55919289150049634 1 0 0 1 I I #
coedge $-1 $193 $193 $-1 $290 reversed $115 $-1 #
edge $-1 $291 0 $291 6.2831853071796004 $116 $292 forward 7 unknown #
vertex $-1 $119 $293 #
ellipse-curve $-1 -13.048178825172485 -27.521155853400966 4.3709427282151081 0 -0.82903758062907751 0.55919289150049634 1 0 0 1 I I #
face $-1 $-1 $135 $18 $-1 $294 reversed single #
loop $-1 $-1 $213 $120 #
plane-surface $-1 0 30.435069160775701 0 0 -1 0 0 0 -1 forward_v I I I I #
coedge $-1 $295 $211 $214 $296 forward $121 $-1 #
coedge $-1 $217 $123 $124 $205 reversed $75 $-1 #
coedge $-1 $211 $295 $123 $203 reversed $121 $-1 #
edge $-1 $218 -8.6909969979083286 $297 8.6909969979083286 $202 $298 forward 7 unknown #
coedge $-1 $125 $124 $295 $299 forward $49 $-1 #
edge $-1 $209 -45.67155980101932 $297 45.67155980101932 $201 $300 forward 7 unknown #
coedge $-1 $214 $213 $125 $207 reversed $198 $-1 #
edge $-1 $301 -45.67155980101932 $208 45.67155980101932 $206 $302 forward 7 unknown #
vertex $-1 $127 $303 #
vertex $-1 $220 $304 #
straight-curve $-1 45.67155980101932 0 -8.6909969979083286 0 -1 0 I I #
coedge $-1 $200 $202 $128 $212 reversed $121 $-1 #
edge $-1 $215 -30.435069160775701 $218 30.435069160775701 $211 $305 forward 7 unknown #
coedge $-1 $206 $129 $134 $221 forward $198 $-1 #
coedge $-1 $129 $206 $200 $296 reversed $198 $-1 #
vertex $-1 $130 $306 #
straight-curve $-1 0 30.435069160775701 8.6909969979083286 -1 0 0 I I #
coedge $-1 $131 $201 $133 $220 reversed $75 $-1 #
vertex $-1 $212 $307 #
straight-curve $-1 0 -30.435069160775701 8.6909969979083286 1 0 0 I I #
edge $-1 $136 -8.6909969979083286 $209 8.6909969979083286 $133 $308 forward 7 unknown #
edge $-1 $137 -8.6909969979083286 $208 8.6909969979083286 $134 $309 forward 7 unknown #
point $-1 45.67155980101932 -30.435069160775701 8.6909969979083286 #
point $-1 45.67155980101932 30.435069160775701 8.6909969979083286 #
face $-1 $-1 $233 $19 $-1 $310 reversed single #
loop $-1 $-1 $230 $139 #
plane-surface $-1 0 0 8.6909969979083286 0 0 1 1 0 0 forward_v I I I I #
coedge $-1 $311 $312 $146 $236 forward $140 $-1 #
coedge $-1 $142 $240 $313 $314 reversed $83 $-1 #
edge $-1 $315 -5.1330778298583999 $152 -1.9827605062414575 $142 $316 forward 7 unknown #
coedge $-1 $313 $317 $143 $231 forward $225 $-1 #
edge $-1 $234 -30.435069160775701 $315 30.435069160775701 $230 $318 forward 7 unknown #
coedge $-1 $237 $144 $317 $319 reversed $233 $-1 #
loop $-1 $-1 $144 $224 #
vertex $-1 $145 $320 #
straight-curve $-1 -38.777856844592556 -30.435069160775701 3.5579191680499287 0 0 1 I I #
edge $-1 $241 -30.435069160775701 $238 30.435069160775701 $227 $321 forward 7 unknown #
coedge $-1 $147 $232 $311 $322 forward $233 $-1 #
vertex $-1 $236 $323 #
straight-curve $-1 -21.112354161402969 -30.435069160775701 5.5406796742913862 1 0 0 I I #
coedge $-1 $228 $149 $312 $324 reversed $83 $-1 #
vertex $-1 $236 $325 #
straight-curve $-1 -21.112354161402969 30.435069160775701 5.5406796742913862 -1 0 0 I I #
point $-1 -38.777856844592556 30.435069160775701 5.5406796742913862 #
point $-1 -38.777856844592556 -30.435069160775701 5.5406796742913862 #
face $-1 $-1 $170 $20 $-1 $326 reversed single #
loop $-1 $-1 $161 $155 #
plane-surface $-1 0 30.435069160775701 0 0 -1 0 0 0 -1 forward_v I I I I #
coedge $-1 $164 $327 $252 $328 forward $156 $-1 #
coedge $-1 $329 $158 $327 $330 forward $91 $-1 #
coedge $-1 $158 $329 $254 $331 forward $91 $-1 #
edge $-1 $256 -30.435069160775701 $332 30.435069160775701 $158 $333 forward 7 unknown #
coedge $-1 $160 $159 $248 $328 reversed $57 $-1 #
edge $-1 $259 -30.435069160775701 $255 30.435069160775701 $159 $334 forward 7 unknown #
coedge $-1 $261 $161 $250 $331 reversed $246 $-1 #
vertex $-1 $167 $335 #
vertex $-1 $162 $336 #
straight-curve $-1 38.777856844592549 30.435069160775701 3.5579191680499287 0 0 1 I I #
coedge $-1 $327 $164 $169 $265 reversed $156 $-1 #
vertex $-1 $165 $337 #
straight-curve $-1 21.112354161402966 -30.435069160775701 5.5406796742913862 1 0 0 I I #
coedge $-1 $166 $254 $168 $264 forward $246 $-1 #
straight-curve $-1 21.112354161402966 30.435069160775701 5.5406796742913862 -1 0 0 I I #
coedge $-1 $169 $168 $329 $338 reversed $170 $-1 #
edge $-1 $339 -8.6909969979083286 $172 -5.5406796742913862 $168 $340 forward 7 unknown #
edge $-1 $341 -8.6909969979083286 $171 -5.5406796742913862 $169 $342 forward 7 unknown #
point $-1 45.671559801019313 -30.435069160775701 5.5406796742913862 #
point $-1 45.671559801019313 30.435069160775701 5.5406796742913862 #
loop $-1 $-1 $182 $174 #
plane-surface $-1 0 -30.435069160775701 0 0 1 0 0 0 1 forward_v I I I I #
coedge $-1 $271 $177 $179 $275 reversed $99 $-1 #
coedge $-1 $177 $270 $343 $344 reversed $99 $-1 #
coedge $-1 $185 $180 $177 $273 forward $175 $-1 #
edge $-1 $276 -28.473731475354892 $345 -22.64590486060543 $272 $346 forward 7 unknown #
coedge $-1 $179 $178 $279 $347 reversed $61 $-1 #
edge $-1 $348 -3.1764392649018396e-014 $276 10.421853895730845 $270 $349 forward 7 unknown #
vertex $-1 $181 $350 #
straight-curve $-1 -7.5267778851642788 -24.607242546026239 8.6909969979083286 -1 0 0 I I #
coedge $-1 $343 $182 $185 $283 reversed $268 $-1 #
coedge $-1 $182 $343 $274 $347 forward $268 $-1 #
vertex $-1 $183 $351 #
straight-curve $-1 -10.374342898297719 -30.435069160775697 25.564655813730777 0 0 1 I I #
straight-curve $-1 -10.374342898297719 -30.435069160775683 0.050888458521903601 0 -0.55919289150049634 -0.82903758062907751 I I #
edge $-1 $345 -19.732768642359396 $186 -10.374342898297719 $278 $352 forward 7 unknown #
point $-1 -10.374342898297719 -30.435069160775701 8.6909969979083286 #
point $-1 -10.374342898297719 -24.607242546026239 8.6909969979083286 #
edge $-1 $353 1 $353 0 $189 $-1 forward 7 unknown #
vertex $-1 $190 $354 #
ellipse-curve $-1 -17.05893271548463 -25.847318174587603 3.2419249932073848 0 -0.82903758062907751 0.55919289150049634 1 0 0 1 I I #
point $-1 -16.05893271548463 -27.521155853400977 4.3709427282151161 #
edge $-1 $355 1 $355 0 $193 $-1 forward 7 unknown #
vertex $-1 $194 $356 #
ellipse-curve $-1 -13.048178825172485 -25.847318174587603 3.2419249932073848 0 -0.82903758062907751 0.55919289150049634 1 0 0 1 I I #
point $-1 -12.048178825172485 -27.521155853400977 4.3709427282151161 #
plane-surface $-1 45.67155980101932 0 0 -1 0 0 0 0 1 forward_v I I I I #
coedge $-1 $202 $200 $204 $299 reversed $121 $-1 #
edge $-1 $215 -8.6909969979083286 $301 8.6909969979083286 $214 $357 forward 7 unknown #
vertex $-1 $299 $358 #
straight-curve $-1 -45.67155980101932 -30.435069160775701 0 0 0 -1 I I #
edge $-1 $297 -30.435069160775701 $301 30.435069160775701 $295 $359 forward 7 unknown #
straight-curve $-1 0 -30.435069160775701 -8.6909969979083286 -1 0 0 I I #
vertex $-1 $207 $360 #
straight-curve $-1 0 30.435069160775701 -8.6909969979083286 1 0 0 I I #
point $-1 45.67155980101932 30.435069160775701 -8.6909969979083286 #
point $-1 45.67155980101932 -30.435069160775701 -8.6909969979083286 #
straight-curve $-1 -45.67155980101932 0 8.6909969979083286 0 -1 0 I I #
point $-1 -45.67155980101932 30.435069160775701 8.6909969979083286 #
point $-1 -45.67155980101932 -30.435069160775701 8.6909969979083286 #
straight-curve $-1 45.67155980101932 -30.435069160775701 0 0 0 -1 I I #
straight-curve $-1 45.67155980101932 30.435069160775701 0 0 0 -1 I I #
plane-surface $-1 0 -30.435069160775701 0 0 1 0 0 0 1 forward_v I I I I #
coedge $-1 $361 $227 $237 $322 reversed $140 $-1 #
coedge $-1 $227 $361 $240 $324 forward $140 $-1 #
coedge $-1 $362 $230 $228 $314 forward $225 $-1 #
edge $-1 $315 38.777856844592556 $363 45.67155980101932 $228 $364 forward 7 unknown #
vertex $-1 $314 $365 #
straight-curve $-1 -38.777856844592556 30.435069160775701 3.5579191680499287 0 0 -1 I I #
coedge $-1 $230 $362 $232 $319 forward $225 $-1 #
straight-curve $-1 -38.777856844592556 0 8.6909969979083286 0 1 0 I I #
edge $-1 $366 -45.67155980101932 $234 -38.777856844592556 $232 $367 forward 7 unknown #
point $-1 -38.777856844592556 -30.435069160775701 8.6909969979083286 #
straight-curve $-1 -45.67155980101932 0 5.5406796742913862 0 -1 0 I I #
edge $-1 $366 -8.6909969979083286 $238 -5.5406796742913862 $311 $368 forward 7 unknown #
point $-1 -45.67155980101932 -30.435069160775701 5.5406796742913862 #
edge $-1 $363 -8.6909969979083286 $241 -5.5406796742913862 $240 $369 forward 7 unknown #
point $-1 -45.67155980101932 30.435069160775701 5.5406796742913862 #
plane-surface $-1 45.67155980101932 0 0 -1 0 0 0 0 1 forward_v I I I I #
coedge $-1 $248 $258 $249 $330 reversed $156 $-1 #
edge $-1 $332 -5.1330778298583999 $259 -1.9827605062414575 $248 $370 forward 7 unknown #
coedge $-1 $250 $249 $263 $338 forward $91 $-1 #
edge $-1 $332 38.777856844592549 $341 45.67155980101932 $327 $371 forward 7 unknown #
edge $-1 $339 -45.67155980101932 $256 -38.777856844592549 $254 $372 forward 7 unknown #
vertex $-1 $330 $373 #
straight-curve $-1 38.777856844592549 0 8.6909969979083286 0 -1 0 I I #
straight-curve $-1 38.777856844592549 0 5.5406796742913862 0 1 0 I I #
point $-1 38.777856844592549 30.435069160775701 5.5406796742913862 #
point $-1 38.777856844592549 30.435069160775701 8.6909969979083286 #
point $-1 38.777856844592549 -30.435069160775701 5.5406796742913862 #
edge $-1 $341 -30.435069160775701 $339 30.435069160775701 $263 $374 forward 7 unknown #
vertex $-1 $338 $375 #
straight-curve $-1 45.67155980101932 30.435069160775701 0 0 0 -1 I I #
vertex $-1 $338 $376 #
straight-curve $-1 45.67155980101932 -30.435069160775701 0 0 0 -1 I I #
coedge $-1 $279 $278 $271 $344 forward $268 $-1 #
edge $-1 $345 16.873658815822449 $348 25.513767355208898 $343 $377 forward 7 unknown #
vertex $-1 $283 $378 #
straight-curve $-1 -19.732768642359396 -53.080974021381131 8.6909969979083286 0 -1 0 I I #
edge $-1 $348 -12.205990757195117 $280 -2.8475650131334405 $279 $379 forward 7 unknown #
vertex $-1 $347 $380 #
straight-curve $-1 -19.732768642359396 -30.435069160775683 0.050888458521903601 0 0.55919289150049634 0.82903758062907751 I I #
point $-1 -19.732768642359396 -24.607242546026239 8.6909969979083286 #
point $-1 -10.374342898297719 -30.435069160775701 0.050888458521877268 #
straight-curve $-1 0 -30.435069160775701 8.6909969979083286 1 0 0 I I #
vertex $-1 $286 $381 #
point $-1 -16.05893271548463 -25.847318174587603 3.2419249932073848 #
vertex $-1 $290 $382 #
point $-1 -12.048178825172485 -25.847318174587603 3.2419249932073848 #
straight-curve $-1 -45.67155980101932 30.435069160775701 0 0 0 -1 I I #
point $-1 -45.67155980101932 -30.435069160775701 -8.6909969979083286 #
straight-curve $-1 -45.67155980101932 0 -8.6909969979083286 0 1 0 I I #
point $-1 -45.67155980101932 30.435069160775701 -8.6909969979083286 #
coedge $-1 $312 $311 $362 $383 reversed $140 $-1 #
coedge $-1 $317 $313 $361 $383 forward $225 $-1 #
vertex $-1 $314 $384 #
straight-curve $-1 0 30.435069160775701 8.6909969979083286 -1 0 0 I I #
point $-1 -38.777856844592556 30.435069160775701 8.6909969979083286 #
vertex $-1 $383 $385 #
straight-curve $-1 0 -30.435069160775701 8.6909969979083286 1 0 0 I I #
straight-curve $-1 -45.67155980101932 -30.435069160775701 0 0 0 -1 I I #
straight-curve $-1 -45.67155980101932 30.435069160775701 0 0 0 -1 I I #
straight-curve $-1 38.777856844592549 -30.435069160775701 3.5579191680499287 0 0 -1 I I #
straight-curve $-1 0 -30.435069160775701 8.6909969979083286 1 0 0 I I #
straight-curve $-1 0 30.435069160775701 8.6909969979083286 -1 0 0 I I #
point $-1 38.777856844592549 -30.435069160775701 8.6909969979083286 #
straight-curve $-1 45.67155980101932 0 8.6909969979083286 0 1 0 I I #
point $-1 45.67155980101932 30.435069160775701 8.6909969979083286 #
point $-1 45.67155980101932 -30.435069160775701 8.6909969979083286 #
straight-curve $-1 -19.732768642359396 -30.435069160775697 25.564655813730777 0 0 -1 I I #
point $-1 -19.732768642359396 -30.435069160775701 8.6909969979083286 #
straight-curve $-1 -7.5267778851642788 -30.435069160775701 0.050888458521876859 1 0 0 I I #
point $-1 -19.732768642359396 -30.435069160775701 0.050888458521877268 #
point $-1 -17.05893271548463 -25.018280593958526 2.6827321017068888 #
point $-1 -13.048178825172485 -25.018280593958526 2.6827321017068888 #
edge $-1 $363 -30.435069160775701 $366 30.435069160775701 $361 $386 forward 7 unknown #
point $-1 -45.67155980101932 30.435069160775701 8.6909969979083286 #
point $-1 -45.67155980101932 -30.435069160775701 8.6909969979083286 #
straight-curve $-1 -45.67155980101932 0 8.6909969979083286 0 -1 0 I I #
End-of-ACIS-data 