500 0 7 0           
7 Unknown 11 ACIS 5.0 NT 24 Fri Mar 26 18:13:32 1999 
-1 9.9999999999999995e-007 1e-010 
body $-1 $7 $-1 $8 #
body $-1 $9 $-1 $10 #
body $-1 $11 $-1 $12 #
body $-1 $13 $-1 $14 #
body $-1 $15 $-1 $16 #
body $-1 $17 $-1 $18 #
body $-1 $19 $-1 $20 #
lump $-1 $-1 $21 $0 #
transform $-1 1 0 0 0 1 0 0 0 1 43.798944059572129 19.659332549533467 5.7951442944408633 1 rotate no_reflect no_shear #
lump $-1 $-1 $22 $1 #
transform $-1 1 0 0 0 1 0 0 0 1 43.798944059572129 19.659332549533467 5.7951442944408633 1 rotate no_reflect no_shear #
lump $-1 $-1 $23 $2 #
transform $-1 1 0 0 0 1 0 0 0 1 43.798944059572129 19.659332549533467 5.7951442944408633 1 rotate no_reflect no_shear #
lump $-1 $-1 $24 $3 #
transform $-1 1 0 0 0 1 0 0 0 1 43.798944059572129 19.659332549533467 5.7951442944408633 1 rotate no_reflect no_shear #
lump $-1 $-1 $25 $4 #
transform $-1 1 0 0 0 1 0 0 0 1 43.798944059572129 19.659332549533467 5.7951442944408633 1 rotate no_reflect no_shear #
lump $-1 $-1 $26 $5 #
transform $-1 1 0 0 0 1 0 0 0 1 43.798944059572129 19.659332549533467 5.7951442944408633 1 rotate no_reflect no_shear #
lump $-1 $-1 $27 $6 #
transform $-1 1 0 0 0 1 0 0 0 1 43.798944059572129 19.659332549533467 5.7951442944408633 1 rotate no_reflect no_shear #
shell $-1 $-1 $-1 $28 $-1 $7 #
shell $-1 $-1 $-1 $29 $-1 $9 #
shell $-1 $-1 $-1 $30 $-1 $11 #
shell $-1 $-1 $-1 $31 $-1 $13 #
shell $-1 $-1 $-1 $32 $-1 $15 #
shell $-1 $-1 $-1 $33 $-1 $17 #
shell $-1 $-1 $-1 $34 $-1 $19 #
face $-1 $35 $36 $21 $-1 $37 forward single #
face $-1 $38 $39 $22 $-1 $40 reversed single #
face $-1 $41 $42 $23 $-1 $43 forward single #
face $-1 $44 $45 $24 $-1 $46 reversed single #
face $-1 $47 $48 $25 $-1 $49 forward single #
face $-1 $50 $51 $26 $-1 $52 forward single #
face $-1 $53 $54 $27 $-1 $55 forward single #
face $-1 $56 $57 $21 $-1 $58 reversed single #
loop $-1 $-1 $59 $28 #
plane-surface $-1 0 0 5.7951442944408633 0 0 1 1 0 0 forward_v I I I I #
face $-1 $60 $61 $22 $-1 $62 reversed single #
loop $-1 $-1 $63 $29 #
plane-surface $-1 -91.508173939223454 -10.721824782890469 75.531056544588139 0 -1 0 0.54463904215088732 0 -0.83867056331134215 forward_v I I I I #
face $-1 $64 $65 $23 $-1 $66 forward single #
loop $-1 $67 $68 $30 #
cone-surface $-1 -39.450436868607838 -15.190578666211968 1.6561913388801122 0.54463904215088732 0 -0.83867056331134215 1.2580058449670133 0 0.81695856322633098 1 I I 0 1 1.5 forward I I I I #
face $-1 $69 $70 $24 $-1 $71 reversed single #
loop $-1 $-1 $72 $31 #
plane-surface $-1 58.896378504407927 12.057746998777667 123.64626998290285 0 1 0 0.78801076186113728 0 0.61566146476048833 forward_v I I I I #
face $-1 $73 $74 $25 $-1 $75 forward single #
loop $-1 $76 $77 $32 #
cone-surface $-1 41.409692682468332 13.578064108928828 2.9335150745159919 -0.78801076186113728 0 -0.61566146476048833 0.30783073238024417 0 -0.39400538093056864 1 I I 0 1 0.5 forward I I I I #
face $-1 $78 $79 $26 $-1 $80 forward single #
loop $-1 $81 $82 $33 #
cone-surface $-1 41.409692682468332 15.858539774155567 2.9335150745159919 -0.78801076186113728 0 -0.61566146476048833 0.30783073238024417 0 -0.39400538093056864 1 I I 0 1 0.5 forward I I I I #
face $-1 $83 $84 $27 $-1 $85 forward single #
loop $-1 $86 $87 $34 #
cone-surface $-1 41.409692682468332 18.139015439382305 2.9335150745159919 -0.78801076186113728 0 -0.61566146476048833 0.30783073238024417 0 -0.39400538093056864 1 I I 0 1 0.5 forward I I I I #
face $-1 $88 $89 $21 $-1 $90 reversed single #
loop $-1 $-1 $91 $35 #
plane-surface $-1 0 0 -5.7951442944408633 0 0 1 1 0 0 forward_v I I I I #
coedge $-1 $92 $93 $94 $95 forward $36 $-1 #
face $-1 $96 $97 $22 $-1 $98 forward single #
loop $-1 $-1 $99 $38 #
plane-surface $-1 -43.798944059572129 -15.190578666211968 2.0652863708214966 -0.54463904215088732 0 0.83867056331134215 0.83867056331134215 0 0.54463904215088732 forward_v I I I I #
coedge $-1 $100 $101 $102 $103 reversed $39 $-1 #
face $-1 $-1 $104 $23 $-1 $105 forward single #
loop $-1 $106 $107 $41 #
cone-surface $-1 -37.565189110830886 -15.190578666211968 -1.2468355773544602 0.54463904215088732 0 -0.83867056331134215 0.62900292248350664 0 0.40847928161316549 1 I I -0.70710678118654757 0.70710678118654757 0.75 forward I I I I #
loop $-1 $-1 $108 $30 #
coedge $-1 $68 $68 $109 $110 reversed $42 $-1 #
face $-1 $111 $112 $24 $-1 $113 reversed single #
loop $-1 $-1 $114 $44 #
plane-surface $-1 -10.1317000497856 15.858539774155567 69.715625873545122 0.78801076186113728 0 0.61566146476048833 0.61566146476048833 0 -0.78801076186113728 forward_v I I I I #
coedge $-1 $115 $116 $117 $118 reversed $45 $-1 #
face $-1 $-1 $119 $25 $-1 $120 forward single #
loop $-1 $121 $122 $47 #
cone-surface $-1 40.818684611072477 13.578064108928828 2.4717689759456256 -0.78801076186113728 0 -0.61566146476048833 0.15391536619012208 0 -0.19700269046528432 1 I I -0.70710678118654746 0.70710678118654746 0.25 forward I I I I #
loop $-1 $-1 $123 $32 #
coedge $-1 $77 $77 $124 $125 reversed $48 $-1 #
face $-1 $-1 $126 $26 $-1 $127 forward single #
loop $-1 $128 $129 $50 #
cone-surface $-1 40.818684611072477 15.858539774155567 2.4717689759456256 -0.78801076186113728 0 -0.61566146476048833 0.15391536619012208 0 -0.19700269046528432 1 I I -0.70710678118654746 0.70710678118654746 0.25 forward I I I I #
loop $-1 $-1 $130 $33 #
coedge $-1 $82 $82 $131 $132 reversed $51 $-1 #
face $-1 $-1 $133 $27 $-1 $134 forward single #
loop $-1 $135 $136 $53 #
cone-surface $-1 40.818684611072477 18.139015439382305 2.4717689759456256 -0.78801076186113728 0 -0.61566146476048833 0.15391536619012208 0 -0.19700269046528432 1 I I -0.70710678118654746 0.70710678118654746 0.25 forward I I I I #
loop $-1 $-1 $137 $34 #
coedge $-1 $87 $87 $138 $139 reversed $54 $-1 #
face $-1 $140 $141 $21 $-1 $142 reversed single #
loop $-1 $-1 $143 $56 #
plane-surface $-1 0 -19.659332549533467 0 0 1 0 0 0 1 forward_v I I I I #
coedge $-1 $144 $145 $146 $147 forward $57 $-1 #
coedge $-1 $148 $59 $149 $150 forward $36 $-1 #
coedge $-1 $59 $148 $151 $152 forward $36 $-1 #
coedge $-1 $153 $154 $59 $95 reversed $155 $-1 #
edge $-1 $156 -19.659332549533467 $157 19.659332549533467 $94 $158 forward 7 unknown #
face $-1 $159 $160 $22 $-1 $161 reversed single #
loop $-1 $-1 $162 $60 #
plane-surface $-1 0 0 5.7951442944408633 0 0 1 1 0 0 forward_v I I I I #
coedge $-1 $163 $164 $165 $166 reversed $61 $-1 #
coedge $-1 $101 $63 $167 $168 reversed $39 $-1 #
coedge $-1 $63 $100 $163 $169 reversed $39 $-1 #
coedge $-1 $165 $170 $63 $103 forward $160 $-1 #
edge $-1 $171 31.970383977853206 $172 35.700241901472573 $102 $173 forward 7 unknown #
loop $-1 $-1 $109 $64 #
plane-surface $-1 -43.798944059572129 -15.190578666211968 2.0652863708214966 -0.54463904215088732 0 0.83867056331134215 0.83867056331134215 0 0.54463904215088732 forward_v I I I I #
loop $-1 $-1 $174 $41 #
coedge $-1 $107 $107 $108 $175 reversed $65 $-1 #
coedge $-1 $108 $108 $107 $175 forward $67 $-1 #
coedge $-1 $109 $109 $68 $110 forward $104 $-1 #
edge $-1 $176 0 $176 6.2831853071796004 $109 $177 forward 7 unknown #
face $-1 $178 $179 $24 $-1 $180 reversed single #
loop $-1 $-1 $117 $69 #
plane-surface $-1 43.798944059572129 0 0 -1 0 0 0 0 1 forward_v I I I I #
coedge $-1 $181 $182 $183 $184 reversed $70 $-1 #
coedge $-1 $116 $72 $185 $186 reversed $45 $-1 #
coedge $-1 $72 $115 $181 $187 reversed $45 $-1 #
coedge $-1 $183 $188 $72 $118 forward $112 $-1 #
edge $-1 $189 56.027990697010566 $190 61.135587672099831 $117 $191 forward 7 unknown #
loop $-1 $-1 $124 $73 #
plane-surface $-1 -10.1317000497856 15.858539774155567 69.715625873545122 0.78801076186113728 0 0.61566146476048833 0.61566146476048833 0 -0.78801076186113728 forward_v I I I I #
loop $-1 $-1 $192 $47 #
coedge $-1 $122 $122 $123 $193 reversed $74 $-1 #
coedge $-1 $123 $123 $122 $193 forward $76 $-1 #
coedge $-1 $124 $124 $77 $125 forward $119 $-1 #
edge $-1 $194 0 $194 6.2831853071796004 $124 $195 forward 7 unknown #
loop $-1 $-1 $131 $78 #
plane-surface $-1 -10.1317000497856 15.858539774155567 69.715625873545122 0.78801076186113728 0 0.61566146476048833 0.61566146476048833 0 -0.78801076186113728 forward_v I I I I #
loop $-1 $-1 $196 $50 #
coedge $-1 $129 $129 $130 $197 reversed $79 $-1 #
coedge $-1 $130 $130 $129 $197 forward $81 $-1 #
coedge $-1 $131 $131 $82 $132 forward $126 $-1 #
edge $-1 $198 0 $198 6.2831853071796004 $131 $199 forward 7 unknown #
loop $-1 $-1 $138 $83 #
plane-surface $-1 -10.1317000497856 15.858539774155567 69.715625873545122 0.78801076186113728 0 0.61566146476048833 0.61566146476048833 0 -0.78801076186113728 forward_v I I I I #
loop $-1 $-1 $200 $53 #
coedge $-1 $136 $136 $137 $201 reversed $84 $-1 #
coedge $-1 $137 $137 $136 $201 forward $86 $-1 #
coedge $-1 $138 $138 $87 $139 forward $133 $-1 #
edge $-1 $202 0 $202 6.2831853071796004 $138 $203 forward 7 unknown #
face $-1 $204 $205 $21 $-1 $206 reversed single #
loop $-1 $-1 $207 $88 #
plane-surface $-1 -43.798944059572129 0 0 1 0 0 0 0 -1 forward_v I I I I #
coedge $-1 $208 $151 $209 $210 forward $89 $-1 #
coedge $-1 $211 $91 $208 $212 forward $57 $-1 #
coedge $-1 $91 $211 $213 $214 forward $57 $-1 #
coedge $-1 $154 $153 $91 $147 reversed $155 $-1 #
edge $-1 $215 -19.659332549533467 $216 19.659332549533467 $146 $217 forward 7 unknown #
coedge $-1 $93 $92 $218 $219 forward $36 $-1 #
coedge $-1 $220 $221 $92 $150 reversed $205 $-1 #
edge $-1 $157 -43.798944059572129 $222 43.798944059572129 $149 $223 forward 7 unknown #
coedge $-1 $143 $224 $93 $152 reversed $89 $-1 #
edge $-1 $225 -43.798944059572129 $156 43.798944059572129 $151 $226 forward 7 unknown #
coedge $-1 $146 $94 $224 $227 forward $155 $-1 #
coedge $-1 $94 $146 $220 $228 reversed $155 $-1 #
loop $-1 $-1 $153 $204 #
vertex $-1 $95 $229 #
vertex $-1 $95 $230 #
straight-curve $-1 43.798944059572129 0 5.7951442944408633 0 1 0 I I #
face $-1 $-1 $231 $22 $-1 $232 reversed single #
loop $-1 $-1 $102 $96 #
plane-surface $-1 -43.798944059572129 0 0 1 0 0 0 0 -1 forward_v I I I I #
coedge $-1 $167 $233 $234 $235 forward $97 $-1 #
coedge $-1 $234 $99 $101 $169 forward $61 $-1 #
coedge $-1 $99 $234 $236 $237 reversed $61 $-1 #
coedge $-1 $238 $102 $99 $166 forward $160 $-1 #
edge $-1 $172 3.1265354497844848 $239 12.064043216427482 $165 $240 forward 7 unknown #
coedge $-1 $241 $162 $100 $168 forward $97 $-1 #
edge $-1 $242 -7.6986203396405912 $171 -1.9551429100395978 $167 $243 forward 7 unknown #
edge $-1 $172 0 $242 6.8483116981283949 $101 $244 forward 7 unknown #
coedge $-1 $102 $238 $241 $245 reversed $160 $-1 #
vertex $-1 $245 $246 #
vertex $-1 $103 $247 #
straight-curve $-1 -43.798944059572129 -10.721824782890469 37.76552827229407 0 0 -1 I I #
coedge $-1 $174 $174 $-1 $248 reversed $106 $-1 #
edge $-1 $249 0 $249 6.2831853071796004 $107 $250 forward 7 unknown #
vertex $-1 $110 $251 #
ellipse-curve $-1 -40.927205344771629 -15.190578666211968 3.9302153326311817 -0.54463904215088732 0 0.83867056331134215 1.2580058449670133 0 0.81695856322633098 1 I I #
face $-1 $-1 $252 $24 $-1 $253 forward single #
loop $-1 $-1 $254 $111 #
plane-surface $-1 0 19.659332549533467 0 0 -1 0 0 0 -1 forward_v I I I I #
coedge $-1 $255 $114 $116 $187 forward $70 $-1 #
coedge $-1 $114 $255 $254 $256 reversed $70 $-1 #
coedge $-1 $257 $117 $114 $184 forward $112 $-1 #
edge $-1 $190 4.1284771116998833 $258 11.730062662455683 $183 $259 forward 7 unknown #
coedge $-1 $260 $261 $115 $186 forward $252 $-1 #
edge $-1 $262 10.360262815021709 $189 14.350754807368165 $185 $263 forward 7 unknown #
edge $-1 $190 -87.597888119144244 $262 -81.116254590401496 $116 $264 forward 7 unknown #
coedge $-1 $117 $257 $260 $265 reversed $112 $-1 #
vertex $-1 $265 $266 #
vertex $-1 $118 $267 #
straight-curve $-1 43.798944059572129 12.057746998777667 61.823134991451425 0 0 -1 I I #
coedge $-1 $192 $192 $-1 $268 reversed $121 $-1 #
edge $-1 $269 0 $269 6.2831853071796004 $122 $270 forward 7 unknown #
vertex $-1 $125 $271 #
ellipse-curve $-1 41.803698063398897 13.578064108928828 3.2413458068962315 0.78801076186113728 0 0.61566146476048833 0.30783073238024417 0 -0.39400538093056864 1 I I #
coedge $-1 $196 $196 $-1 $272 reversed $128 $-1 #
edge $-1 $273 0 $273 6.2831853071796004 $129 $274 forward 7 unknown #
vertex $-1 $132 $275 #
ellipse-curve $-1 41.803698063398897 15.858539774155567 3.2413458068962315 0.78801076186113728 0 0.61566146476048833 0.30783073238024417 0 -0.39400538093056864 1 I I #
coedge $-1 $200 $200 $-1 $276 reversed $135 $-1 #
edge $-1 $277 0 $277 6.2831853071796004 $136 $278 forward 7 unknown #
vertex $-1 $139 $279 #
ellipse-curve $-1 41.803698063398897 18.139015439382305 3.2413458068962315 0.78801076186113728 0 0.61566146476048833 0.30783073238024417 0 -0.39400538093056864 1 I I #
face $-1 $-1 $155 $21 $-1 $280 reversed single #
loop $-1 $-1 $220 $140 #
plane-surface $-1 0 19.659332549533467 0 0 -1 0 0 0 -1 forward_v I I I I #
coedge $-1 $281 $218 $221 $282 forward $141 $-1 #
coedge $-1 $224 $143 $144 $212 reversed $89 $-1 #
coedge $-1 $218 $281 $143 $210 reversed $141 $-1 #
edge $-1 $225 -5.7951442944408633 $283 5.7951442944408633 $209 $284 forward 7 unknown #
coedge $-1 $145 $144 $281 $285 forward $57 $-1 #
edge $-1 $216 -43.798944059572129 $283 43.798944059572129 $208 $286 forward 7 unknown #
coedge $-1 $221 $220 $145 $214 reversed $205 $-1 #
edge $-1 $287 -43.798944059572129 $215 43.798944059572129 $213 $288 forward 7 unknown #
vertex $-1 $147 $289 #
vertex $-1 $227 $290 #
straight-curve $-1 43.798944059572129 0 -5.7951442944408633 0 -1 0 I I #
coedge $-1 $207 $209 $148 $219 reversed $141 $-1 #
edge $-1 $222 -19.659332549533467 $225 19.659332549533467 $218 $291 forward 7 unknown #
coedge $-1 $213 $149 $154 $228 forward $205 $-1 #
coedge $-1 $149 $213 $207 $282 reversed $205 $-1 #
vertex $-1 $150 $292 #
straight-curve $-1 0 19.659332549533467 5.7951442944408633 -1 0 0 I I #
coedge $-1 $151 $208 $153 $227 reversed $89 $-1 #
vertex $-1 $219 $293 #
straight-curve $-1 0 -19.659332549533467 5.7951442944408633 1 0 0 I I #
edge $-1 $156 -5.7951442944408633 $216 5.7951442944408633 $153 $294 forward 7 unknown #
edge $-1 $157 -5.7951442944408633 $215 5.7951442944408633 $154 $295 forward 7 unknown #
point $-1 43.798944059572129 -19.659332549533467 5.7951442944408633 #
point $-1 43.798944059572129 19.659332549533467 5.7951442944408633 #
loop $-1 $-1 $236 $159 #
plane-surface $-1 0 -19.659332549533467 0 0 1 0 0 0 1 forward_v I I I I #
coedge $-1 $162 $241 $296 $297 forward $97 $-1 #
coedge $-1 $164 $163 $162 $235 reversed $61 $-1 #
edge $-1 $298 -12.064043216427482 $242 -3.1265354497844848 $162 $299 forward 7 unknown #
coedge $-1 $296 $300 $164 $237 forward $231 $-1 #
edge $-1 $239 -17.804024748055912 $298 -10.955713049927517 $236 $301 forward 7 unknown #
coedge $-1 $170 $165 $300 $302 reversed $160 $-1 #
vertex $-1 $166 $303 #
straight-curve $-1 -43.798944059572129 -7.5952893331059839 2.0652863708214944 0 -1 0 I I #
coedge $-1 $233 $167 $170 $245 forward $97 $-1 #
vertex $-1 $168 $304 #
straight-curve $-1 -45.754086969611727 -10.721824782890469 5.7951442944408669 -1 0 0 I I #
straight-curve $-1 -43.798944059572129 -10.721824782890469 2.0652863708214966 0.83867056331134215 0 0.54463904215088732 I I #
edge $-1 $171 10.721824782890469 $305 19.659332549533467 $170 $306 forward 7 unknown #
point $-1 -43.798944059572129 -10.721824782890469 5.7951442944408633 #
point $-1 -43.798944059572129 -10.721824782890469 2.0652863708214966 #
edge $-1 $307 1 $307 0 $174 $-1 forward 7 unknown #
vertex $-1 $175 $308 #
ellipse-curve $-1 -37.973668392444054 -15.190578666211968 -0.61783265487095351 -0.54463904215088732 0 0.83867056331134215 1.2580058449670133 0 0.81695856322633098 1 I I #
point $-1 -39.669199499804613 -15.190578666211968 4.7471738958575083 #
loop $-1 $-1 $185 $178 #
plane-surface $-1 0 0 5.7951442944408633 0 0 1 1 0 0 forward_v I I I I #
coedge $-1 $309 $310 $182 $256 forward $179 $-1 #
coedge $-1 $182 $181 $261 $311 reversed $70 $-1 #
edge $-1 $258 -57.010707743442644 $312 -50.529074214699889 $254 $313 forward 7 unknown #
coedge $-1 $188 $183 $310 $314 reversed $112 $-1 #
vertex $-1 $256 $315 #
straight-curve $-1 43.798944059572136 7.9292698870777834 0.68754731935159441 0 1 0 I I #
coedge $-1 $316 $185 $188 $265 forward $252 $-1 #
coedge $-1 $185 $316 $255 $311 forward $252 $-1 #
vertex $-1 $186 $317 #
straight-curve $-1 29.448189252203964 12.057746998777667 5.7951442944408598 1 0 0 I I #
straight-curve $-1 -10.1317000497856 12.057746998777667 69.715625873545122 -0.61566146476048833 0 0.78801076186113728 I I #
edge $-1 $189 12.057746998777667 $318 19.659332549533467 $188 $319 forward 7 unknown #
point $-1 43.798944059572129 12.057746998777667 5.7951442944408633 #
point $-1 43.798944059572129 12.057746998777667 0.68754731935159441 #
edge $-1 $320 1 $320 0 $192 $-1 forward 7 unknown #
vertex $-1 $193 $321 #
ellipse-curve $-1 41.01568730153776 13.578064108928828 2.6256843421357479 0.78801076186113728 0 0.61566146476048833 0.30783073238024417 0 -0.39400538093056864 1 I I #
point $-1 42.111528795779144 13.578064108928828 2.8473404259656672 #
edge $-1 $322 1 $322 0 $196 $-1 forward 7 unknown #
vertex $-1 $197 $323 #
ellipse-curve $-1 41.01568730153776 15.858539774155567 2.6256843421357479 0.78801076186113728 0 0.61566146476048833 0.30783073238024417 0 -0.39400538093056864 1 I I #
point $-1 42.111528795779144 15.858539774155567 2.8473404259656672 #
edge $-1 $324 1 $324 0 $200 $-1 forward 7 unknown #
vertex $-1 $201 $325 #
ellipse-curve $-1 41.01568730153776 18.139015439382305 2.6256843421357479 0.78801076186113728 0 0.61566146476048833 0.30783073238024417 0 -0.39400538093056864 1 I I #
point $-1 42.111528795779144 18.139015439382305 2.8473404259656672 #
plane-surface $-1 43.798944059572129 0 0 -1 0 0 0 0 1 forward_v I I I I #
coedge $-1 $209 $207 $211 $285 reversed $141 $-1 #
edge $-1 $222 -5.7951442944408633 $287 5.7951442944408633 $221 $326 forward 7 unknown #
vertex $-1 $285 $327 #
straight-curve $-1 -43.798944059572129 -19.659332549533467 0 0 0 -1 I I #
edge $-1 $283 -19.659332549533467 $287 19.659332549533467 $281 $328 forward 7 unknown #
straight-curve $-1 0 -19.659332549533467 -5.7951442944408633 -1 0 0 I I #
vertex $-1 $214 $329 #
straight-curve $-1 0 19.659332549533467 -5.7951442944408633 1 0 0 I I #
point $-1 43.798944059572129 19.659332549533467 -5.7951442944408633 #
point $-1 43.798944059572129 -19.659332549533467 -5.7951442944408633 #
straight-curve $-1 -43.798944059572129 0 5.7951442944408633 0 -1 0 I I #
point $-1 -43.798944059572129 19.659332549533467 5.7951442944408633 #
point $-1 -43.798944059572129 -19.659332549533467 5.7951442944408633 #
straight-curve $-1 43.798944059572129 -19.659332549533467 0 0 0 -1 I I #
straight-curve $-1 43.798944059572129 19.659332549533467 0 0 0 -1 I I #
coedge $-1 $300 $236 $233 $297 reversed $231 $-1 #
edge $-1 $305 -43.798944059572129 $298 -38.055466629971136 $296 $330 forward 7 unknown #
vertex $-1 $237 $331 #
straight-curve $-1 -38.055466629971136 -7.5952893331059839 5.7951442944408633 0 1 0 I I #
coedge $-1 $236 $296 $238 $302 forward $231 $-1 #
straight-curve $-1 -28.867232594911002 -19.659332549533467 11.762053356033361 0.83867056331134215 0 0.54463904215088732 I I #
edge $-1 $305 -5.7951442944408633 $239 -2.0652863708214966 $238 $332 forward 7 unknown #
point $-1 -43.798944059572129 -19.659332549533467 2.0652863708214966 #
point $-1 -38.055466629971136 -10.721824782890469 5.7951442944408633 #
vertex $-1 $245 $333 #
straight-curve $-1 -43.798944059572129 0 5.7951442944408633 0 -1 0 I I #
vertex $-1 $248 $334 #
point $-1 -36.715662547477038 -15.190578666211968 0.19912590835537758 #
coedge $-1 $310 $254 $316 $335 reversed $179 $-1 #
coedge $-1 $254 $309 $257 $314 forward $179 $-1 #
edge $-1 $312 -11.730062662455683 $262 -4.1284771116998833 $261 $336 forward 7 unknown #
vertex $-1 $256 $337 #
straight-curve $-1 8.6996482232121171 19.659332549533467 45.612598562504473 -0.61566146476048833 0 0.78801076186113728 I I #
edge $-1 $318 -5.7951442944408633 $258 -0.6875473193515953 $257 $338 forward 7 unknown #
point $-1 43.798944059572129 19.659332549533467 0.6875473193515953 #
coedge $-1 $261 $260 $309 $335 forward $252 $-1 #
point $-1 39.808452067225673 12.057746998777667 5.7951442944408669 #
vertex $-1 $265 $339 #
straight-curve $-1 43.798944059572129 0 5.7951442944408633 0 1 0 I I #
vertex $-1 $268 $340 #
point $-1 41.323518033918006 13.578064108928828 2.2316789612051791 #
vertex $-1 $272 $341 #
point $-1 41.323518033918006 15.858539774155567 2.2316789612051791 #
vertex $-1 $276 $342 #
point $-1 41.323518033918006 18.139015439382305 2.2316789612051791 #
straight-curve $-1 -43.798944059572129 19.659332549533467 0 0 0 -1 I I #
point $-1 -43.798944059572129 -19.659332549533467 -5.7951442944408633 #
straight-curve $-1 -43.798944059572129 0 -5.7951442944408633 0 1 0 I I #
point $-1 -43.798944059572129 19.659332549533467 -5.7951442944408633 #
straight-curve $-1 0 -19.659332549533467 5.7951442944408633 1 0 0 I I #
point $-1 -38.055466629971136 -19.659332549533467 5.7951442944408633 #
straight-curve $-1 -43.798944059572129 -19.659332549533467 0 0 0 -1 I I #
point $-1 -43.798944059572129 -19.659332549533467 5.7951442944408633 #
point $-1 -37.156709829217718 -15.190578666211968 -1.8758384998379669 #
edge $-1 $318 -43.798944059572129 $312 -39.808452067225673 $309 $343 forward 7 unknown #
straight-curve $-1 39.808452067225666 7.9292698870777834 5.7951442944408669 0 -1 0 I I #
point $-1 39.808452067225673 19.659332549533467 5.7951442944408669 #
straight-curve $-1 43.798944059572129 19.659332549533467 0 0 0 -1 I I #
point $-1 43.798944059572129 19.659332549533467 5.7951442944408633 #
point $-1 40.621681920607195 13.578064108928828 2.3178536097555034 #
point $-1 40.621681920607195 15.858539774155567 2.3178536097555034 #
point $-1 40.621681920607195 18.139015439382305 2.3178536097555034 #
straight-curve $-1 0 19.659332549533467 5.7951442944408633 -1 0 0 I I #
End-of-ACIS-data 