500 0 10 0           
7 Unknown 11 ACIS 5.0 NT 24 Fri Mar 26 17:51:15 1999 
-1 9.9999999999999995e-007 1e-010 
body $-1 $10 $-1 $11 #
body $-1 $12 $-1 $13 #
body $-1 $14 $-1 $15 #
body $-1 $16 $-1 $17 #
body $-1 $18 $-1 $19 #
body $-1 $20 $-1 $21 #
body $-1 $22 $-1 $23 #
body $-1 $24 $-1 $25 #
body $-1 $26 $-1 $27 #
body $-1 $28 $-1 $29 #
lump $-1 $-1 $30 $0 #
transform $-1 1 0 0 0 1 0 0 0 1 45.802179021576585 26.487601273646082 6.4649568146645073 1 rotate no_reflect no_shear #
lump $-1 $-1 $31 $1 #
transform $-1 1 0 0 0 1 0 0 0 1 45.802179021576585 26.487601273646082 6.4649568146645073 1 rotate no_reflect no_shear #
lump $-1 $-1 $32 $2 #
transform $-1 1 0 0 0 1 0 0 0 1 45.802179021576585 26.487601273646082 6.4649568146645073 1 rotate no_reflect no_shear #
lump $-1 $-1 $33 $3 #
transform $-1 1 0 0 0 1 0 0 0 1 45.802179021576585 26.487601273646082 6.4649568146645073 1 rotate no_reflect no_shear #
lump $-1 $-1 $34 $4 #
transform $-1 1 0 0 0 1 0 0 0 1 45.802179021576585 26.487601273646082 6.4649568146645073 1 rotate no_reflect no_shear #
lump $-1 $-1 $35 $5 #
transform $-1 1 0 0 0 1 0 0 0 1 45.802179021576585 26.487601273646082 6.4649568146645073 1 rotate no_reflect no_shear #
lump $-1 $-1 $36 $6 #
transform $-1 1 0 0 0 1 0 0 0 1 45.802179021576585 26.487601273646082 6.4649568146645073 1 rotate no_reflect no_shear #
lump $-1 $-1 $37 $7 #
transform $-1 1 0 0 0 1 0 0 0 1 45.802179021576585 26.487601273646082 6.4649568146645073 1 rotate no_reflect no_shear #
lump $-1 $-1 $38 $8 #
transform $-1 1 0 0 0 1 0 0 0 1 45.802179021576585 26.487601273646082 6.4649568146645073 1 rotate no_reflect no_shear #
lump $-1 $-1 $39 $9 #
transform $-1 1 0 0 0 1 0 0 0 1 45.802179021576585 26.487601273646082 6.4649568146645073 1 rotate no_reflect no_shear #
shell $-1 $-1 $-1 $40 $-1 $10 #
shell $-1 $-1 $-1 $41 $-1 $12 #
shell $-1 $-1 $-1 $42 $-1 $14 #
shell $-1 $-1 $-1 $43 $-1 $16 #
shell $-1 $-1 $-1 $44 $-1 $18 #
shell $-1 $-1 $-1 $45 $-1 $20 #
shell $-1 $-1 $-1 $46 $-1 $22 #
shell $-1 $-1 $-1 $47 $-1 $24 #
shell $-1 $-1 $-1 $48 $-1 $26 #
shell $-1 $-1 $-1 $49 $-1 $28 #
face $-1 $50 $51 $30 $-1 $52 forward single #
face $-1 $53 $54 $31 $-1 $55 forward single #
face $-1 $56 $57 $32 $-1 $58 reversed single #
face $-1 $59 $60 $33 $-1 $61 forward single #
face $-1 $62 $63 $34 $-1 $64 forward single #
face $-1 $65 $66 $35 $-1 $67 forward single #
face $-1 $68 $69 $36 $-1 $70 reversed single #
face $-1 $71 $72 $37 $-1 $73 forward single #
face $-1 $74 $75 $38 $-1 $76 forward single #
face $-1 $77 $78 $39 $-1 $79 forward single #
face $-1 $80 $81 $30 $-1 $82 reversed single #
loop $-1 $-1 $83 $40 #
plane-surface $-1 0 0 6.4649568146645073 0 0 1 1 0 0 forward_v I I I I #
face $-1 $84 $85 $31 $-1 $86 reversed single #
loop $-1 $-1 $87 $41 #
plane-surface $-1 -45.802179021576585 0 0 1 0 0 0 0 -1 forward_v I I I I #
face $-1 $88 $89 $32 $-1 $90 reversed single #
loop $-1 $-1 $91 $42 #
plane-surface $-1 52.582205651092814 0 130.13343094916246 0 -1 0 -0.74314483375859142 0 -0.66913059716165679 forward_v I I I I #
face $-1 $92 $93 $33 $-1 $94 forward single #
loop $-1 $95 $96 $43 #
cone-surface $-1 42.863505173272664 -8.88360501002213 3.2793364685492374 -0.74314483375859142 0 -0.66913059716165679 0.3345652985808284 0 -0.37157241687929571 1 I I 0 1 0.5 forward I I I I #
face $-1 $97 $98 $34 $-1 $99 forward single #
loop $-1 $100 $101 $44 #
cone-surface $-1 42.863505173272664 -5.5522531312638286 3.2793364685492374 -0.74314483375859142 0 -0.66913059716165679 0.3345652985808284 0 -0.37157241687929571 1 I I 0 1 0.5 forward I I I I #
face $-1 $102 $103 $35 $-1 $104 forward single #
loop $-1 $105 $106 $45 #
cone-surface $-1 42.863505173272664 -2.2209012525055307 3.2793364685492374 -0.74314483375859142 0 -0.66913059716165679 0.3345652985808284 0 -0.37157241687929571 1 I I 0 1 0.5 forward I I I I #
face $-1 $107 $108 $36 $-1 $109 reversed single #
loop $-1 $-1 $110 $46 #
plane-surface $-1 52.582205651092814 15.383095011118417 130.13343094916246 0 1 0 0.74314483375859142 0 0.66913059716165679 forward_v I I I I #
face $-1 $111 $112 $37 $-1 $113 forward single #
loop $-1 $114 $115 $47 #
cone-surface $-1 42.863505173272664 17.603996263623952 3.2793364685492374 -0.74314483375859142 0 -0.66913059716165679 0.3345652985808284 0 -0.37157241687929571 1 I I 0 1 0.5 forward I I I I #
face $-1 $116 $117 $38 $-1 $118 forward single #
loop $-1 $119 $120 $48 #
cone-surface $-1 42.863505173272664 20.935348142382249 3.2793364685492374 -0.74314483375859142 0 -0.66913059716165679 0.3345652985808284 0 -0.37157241687929571 1 I I 0 1 0.5 forward I I I I #
face $-1 $121 $122 $39 $-1 $123 forward single #
loop $-1 $124 $125 $49 #
cone-surface $-1 42.863505173272664 24.266700021140547 3.2793364685492374 -0.74314483375859142 0 -0.66913059716165679 0.3345652985808284 0 -0.37157241687929571 1 I I 0 1 0.5 forward I I I I #
face $-1 $126 $127 $30 $-1 $128 reversed single #
loop $-1 $-1 $129 $50 #
plane-surface $-1 0 0 -6.4649568146645073 0 0 1 1 0 0 forward_v I I I I #
coedge $-1 $130 $131 $132 $133 forward $51 $-1 #
face $-1 $134 $135 $31 $-1 $136 forward single #
loop $-1 $-1 $137 $53 #
plane-surface $-1 0 26.487601273646082 0 0 -1 0 0 0 -1 forward_v I I I I #
coedge $-1 $138 $139 $140 $141 forward $54 $-1 #
face $-1 $142 $143 $32 $-1 $144 reversed single #
loop $-1 $-1 $145 $56 #
plane-surface $-1 -15.49309977844873 -5.5522531312638321 68.838152149137159 0.74314483375859142 0 0.66913059716165679 0.66913059716165679 0 -0.74314483375859142 forward_v I I I I #
coedge $-1 $146 $147 $148 $149 reversed $57 $-1 #
face $-1 $-1 $150 $33 $-1 $151 forward single #
loop $-1 $152 $153 $59 #
cone-surface $-1 42.306146547953723 -8.88360501002213 2.7774885206779949 -0.74314483375859142 0 -0.66913059716165679 0.1672826492904142 0 -0.18578620843964785 1 I I -0.70710678118654746 0.70710678118654746 0.25 forward I I I I #
loop $-1 $-1 $154 $43 #
coedge $-1 $96 $96 $155 $156 reversed $60 $-1 #
face $-1 $-1 $157 $34 $-1 $158 forward single #
loop $-1 $159 $160 $62 #
cone-surface $-1 42.306146547953723 -5.5522531312638286 2.7774885206779949 -0.74314483375859142 0 -0.66913059716165679 0.1672826492904142 0 -0.18578620843964785 1 I I -0.70710678118654746 0.70710678118654746 0.25 forward I I I I #
loop $-1 $-1 $161 $44 #
coedge $-1 $101 $101 $162 $163 reversed $63 $-1 #
face $-1 $-1 $164 $35 $-1 $165 forward single #
loop $-1 $166 $167 $65 #
cone-surface $-1 42.306146547953723 -2.2209012525055307 2.7774885206779949 -0.74314483375859142 0 -0.66913059716165679 0.1672826492904142 0 -0.18578620843964785 1 I I -0.70710678118654746 0.70710678118654746 0.25 forward I I I I #
loop $-1 $-1 $168 $45 #
coedge $-1 $106 $106 $169 $170 reversed $66 $-1 #
face $-1 $171 $172 $36 $-1 $173 reversed single #
loop $-1 $-1 $174 $68 #
plane-surface $-1 -15.49309977844873 20.935348142382249 68.838152149137159 0.74314483375859142 0 0.66913059716165679 0.66913059716165679 0 -0.74314483375859142 forward_v I I I I #
coedge $-1 $175 $176 $177 $178 reversed $69 $-1 #
face $-1 $-1 $179 $37 $-1 $180 forward single #
loop $-1 $181 $182 $71 #
cone-surface $-1 42.306146547953723 17.603996263623952 2.7774885206779949 -0.74314483375859142 0 -0.66913059716165679 0.1672826492904142 0 -0.18578620843964785 1 I I -0.70710678118654746 0.70710678118654746 0.25 forward I I I I #
loop $-1 $-1 $183 $47 #
coedge $-1 $115 $115 $184 $185 reversed $72 $-1 #
face $-1 $-1 $186 $38 $-1 $187 forward single #
loop $-1 $188 $189 $74 #
cone-surface $-1 42.306146547953723 20.935348142382249 2.7774885206779949 -0.74314483375859142 0 -0.66913059716165679 0.1672826492904142 0 -0.18578620843964785 1 I I -0.70710678118654746 0.70710678118654746 0.25 forward I I I I #
loop $-1 $-1 $190 $48 #
coedge $-1 $120 $120 $191 $192 reversed $75 $-1 #
face $-1 $-1 $193 $39 $-1 $194 forward single #
loop $-1 $195 $196 $77 #
cone-surface $-1 42.306146547953723 24.266700021140547 2.7774885206779949 -0.74314483375859142 0 -0.66913059716165679 0.1672826492904142 0 -0.18578620843964785 1 I I -0.70710678118654746 0.70710678118654746 0.25 forward I I I I #
loop $-1 $-1 $197 $49 #
coedge $-1 $125 $125 $198 $199 reversed $78 $-1 #
face $-1 $200 $201 $30 $-1 $202 reversed single #
loop $-1 $-1 $203 $80 #
plane-surface $-1 0 -26.487601273646082 0 0 1 0 0 0 1 forward_v I I I I #
coedge $-1 $204 $205 $206 $207 forward $81 $-1 #
coedge $-1 $208 $83 $209 $210 forward $51 $-1 #
coedge $-1 $83 $208 $211 $212 forward $51 $-1 #
coedge $-1 $213 $214 $83 $133 reversed $215 $-1 #
edge $-1 $216 -26.487601273646082 $217 26.487601273646082 $132 $218 forward 7 unknown #
face $-1 $219 $220 $31 $-1 $221 reversed single #
loop $-1 $-1 $140 $84 #
plane-surface $-1 -49.683278040484666 0 -3.4649568146645073 0 0 1 1 0 0 forward_v I I I I #
coedge $-1 $222 $223 $139 $224 forward $85 $-1 #
coedge $-1 $225 $87 $226 $227 reversed $54 $-1 #
coedge $-1 $87 $225 $137 $224 reversed $54 $-1 #
coedge $-1 $228 $229 $87 $141 reversed $135 $-1 #
edge $-1 $230 -26.487601273646082 $231 26.487601273646082 $140 $232 forward 7 unknown #
face $-1 $233 $234 $32 $-1 $235 forward single #
loop $-1 $-1 $236 $88 #
plane-surface $-1 52.582205651092814 -11.104506262527664 130.13343094916246 0 1 0 0.74314483375859142 0 0.66913059716165679 forward_v I I I I #
coedge $-1 $237 $238 $239 $240 reversed $89 $-1 #
coedge $-1 $147 $91 $241 $242 reversed $57 $-1 #
coedge $-1 $91 $146 $237 $243 reversed $57 $-1 #
coedge $-1 $239 $244 $91 $149 forward $234 $-1 #
edge $-1 $245 -19.511076196030178 $246 -14.376873333180949 $148 $247 forward 7 unknown #
loop $-1 $-1 $155 $92 #
plane-surface $-1 -15.49309977844873 -5.5522531312638321 68.838152149137159 0.74314483375859142 0 0.66913059716165679 0.66913059716165679 0 -0.74314483375859142 forward_v I I I I #
loop $-1 $-1 $248 $59 #
coedge $-1 $153 $153 $154 $249 reversed $93 $-1 #
coedge $-1 $154 $154 $153 $249 forward $95 $-1 #
coedge $-1 $155 $155 $96 $156 forward $150 $-1 #
edge $-1 $250 0 $250 6.2831853071796004 $155 $251 forward 7 unknown #
loop $-1 $-1 $162 $97 #
plane-surface $-1 -15.49309977844873 -5.5522531312638321 68.838152149137159 0.74314483375859142 0 0.66913059716165679 0.66913059716165679 0 -0.74314483375859142 forward_v I I I I #
loop $-1 $-1 $252 $62 #
coedge $-1 $160 $160 $161 $253 reversed $98 $-1 #
coedge $-1 $161 $161 $160 $253 forward $100 $-1 #
coedge $-1 $162 $162 $101 $163 forward $157 $-1 #
edge $-1 $254 0 $254 6.2831853071796004 $162 $255 forward 7 unknown #
loop $-1 $-1 $169 $102 #
plane-surface $-1 -15.49309977844873 -5.5522531312638321 68.838152149137159 0.74314483375859142 0 0.66913059716165679 0.66913059716165679 0 -0.74314483375859142 forward_v I I I I #
loop $-1 $-1 $256 $65 #
coedge $-1 $167 $167 $168 $257 reversed $103 $-1 #
coedge $-1 $168 $168 $167 $257 forward $105 $-1 #
coedge $-1 $169 $169 $106 $170 forward $164 $-1 #
edge $-1 $258 0 $258 6.2831853071796004 $169 $259 forward 7 unknown #
face $-1 $260 $261 $36 $-1 $262 forward single #
loop $-1 $-1 $177 $107 #
plane-surface $-1 45.802179021576585 0 0 -1 0 0 0 0 1 forward_v I I I I #
coedge $-1 $263 $264 $265 $266 reversed $108 $-1 #
coedge $-1 $176 $110 $267 $268 reversed $69 $-1 #
coedge $-1 $110 $175 $263 $269 reversed $69 $-1 #
coedge $-1 $265 $270 $110 $178 forward $172 $-1 #
edge $-1 $271 58.601758659916726 $272 64.303868754985643 $177 $273 forward 7 unknown #
loop $-1 $-1 $184 $111 #
plane-surface $-1 -15.49309977844873 20.935348142382249 68.838152149137159 0.74314483375859142 0 0.66913059716165679 0.66913059716165679 0 -0.74314483375859142 forward_v I I I I #
loop $-1 $-1 $274 $71 #
coedge $-1 $182 $182 $183 $275 reversed $112 $-1 #
coedge $-1 $183 $183 $182 $275 forward $114 $-1 #
coedge $-1 $184 $184 $115 $185 forward $179 $-1 #
edge $-1 $276 0 $276 6.2831853071796004 $184 $277 forward 7 unknown #
loop $-1 $-1 $191 $116 #
plane-surface $-1 -15.49309977844873 20.935348142382249 68.838152149137159 0.74314483375859142 0 0.66913059716165679 0.66913059716165679 0 -0.74314483375859142 forward_v I I I I #
loop $-1 $-1 $278 $74 #
coedge $-1 $189 $189 $190 $279 reversed $117 $-1 #
coedge $-1 $190 $190 $189 $279 forward $119 $-1 #
coedge $-1 $191 $191 $120 $192 forward $186 $-1 #
edge $-1 $280 0 $280 6.2831853071796004 $191 $281 forward 7 unknown #
loop $-1 $-1 $198 $121 #
plane-surface $-1 -15.49309977844873 20.935348142382249 68.838152149137159 0.74314483375859142 0 0.66913059716165679 0.66913059716165679 0 -0.74314483375859142 forward_v I I I I #
loop $-1 $-1 $282 $77 #
coedge $-1 $196 $196 $197 $283 reversed $122 $-1 #
coedge $-1 $197 $197 $196 $283 forward $124 $-1 #
coedge $-1 $198 $198 $125 $199 forward $193 $-1 #
edge $-1 $284 0 $284 6.2831853071796004 $198 $285 forward 7 unknown #
face $-1 $286 $287 $30 $-1 $288 reversed single #
loop $-1 $-1 $289 $126 #
plane-surface $-1 -45.802179021576585 0 0 1 0 0 0 0 -1 forward_v I I I I #
coedge $-1 $290 $211 $291 $292 forward $127 $-1 #
coedge $-1 $293 $129 $290 $294 forward $81 $-1 #
coedge $-1 $129 $293 $295 $296 forward $81 $-1 #
coedge $-1 $214 $213 $129 $207 reversed $215 $-1 #
edge $-1 $297 -26.487601273646082 $298 26.487601273646082 $206 $299 forward 7 unknown #
coedge $-1 $131 $130 $300 $301 forward $51 $-1 #
coedge $-1 $302 $303 $130 $210 reversed $287 $-1 #
edge $-1 $217 -45.802179021576585 $304 45.802179021576585 $209 $305 forward 7 unknown #
coedge $-1 $203 $306 $131 $212 reversed $127 $-1 #
edge $-1 $307 -45.802179021576585 $216 45.802179021576585 $211 $308 forward 7 unknown #
coedge $-1 $206 $132 $306 $309 forward $215 $-1 #
coedge $-1 $132 $206 $302 $310 reversed $215 $-1 #
loop $-1 $-1 $213 $286 #
vertex $-1 $133 $311 #
vertex $-1 $133 $312 #
straight-curve $-1 45.802179021576585 0 6.4649568146645073 0 1 0 I I #
face $-1 $313 $314 $31 $-1 $315 reversed single #
loop $-1 $-1 $316 $134 #
plane-surface $-1 -53.564377059392747 0 -4.9649568146645073 1 0 0 0 0 -1 forward_v I I I I #
coedge $-1 $317 $137 $318 $319 reversed $85 $-1 #
coedge $-1 $137 $317 $228 $320 reversed $85 $-1 #
edge $-1 $230 3.4649568146645073 $321 6.4649568146645073 $137 $322 forward 7 unknown #
coedge $-1 $139 $138 $323 $324 reversed $54 $-1 #
coedge $-1 $325 $326 $138 $227 forward $327 $-1 #
edge $-1 $328 -6.4649568146645073 $231 -3.4649568146645073 $226 $329 forward 7 unknown #
coedge $-1 $330 $140 $223 $320 forward $135 $-1 #
coedge $-1 $140 $330 $325 $331 forward $135 $-1 #
vertex $-1 $224 $332 #
vertex $-1 $331 $333 #
straight-curve $-1 -45.802179021576585 0 -3.4649568146645073 0 -1 0 I I #
face $-1 $-1 $334 $32 $-1 $335 reversed single #
loop $-1 $-1 $148 $142 #
plane-surface $-1 0 0 6.4649568146645073 0 0 1 1 0 0 forward_v I I I I #
coedge $-1 $336 $337 $338 $339 reversed $143 $-1 #
coedge $-1 $340 $145 $147 $243 forward $89 $-1 #
coedge $-1 $145 $340 $336 $341 forward $89 $-1 #
coedge $-1 $338 $148 $145 $240 forward $234 $-1 #
edge $-1 $246 -2.7761265656319161 $342 8.3283796968957482 $239 $343 forward 7 unknown #
coedge $-1 $344 $345 $146 $242 forward $334 $-1 #
edge $-1 $346 -64.303868754985643 $245 -58.601758659916726 $241 $347 forward 7 unknown #
edge $-1 $246 83.931412156912614 $346 91.604358043153184 $147 $348 forward 7 unknown #
coedge $-1 $148 $338 $344 $349 forward $234 $-1 #
vertex $-1 $242 $350 #
vertex $-1 $149 $351 #
straight-curve $-1 26.291102825546407 0 6.4649568146645038 -1 0 0 I I #
coedge $-1 $248 $248 $-1 $352 reversed $152 $-1 #
edge $-1 $353 0 $353 6.2831853071796004 $153 $354 forward 7 unknown #
vertex $-1 $156 $355 #
ellipse-curve $-1 43.23507759015196 -8.88360501002213 3.6139017671300659 0.74314483375859142 0 0.66913059716165679 0.3345652985808284 0 -0.37157241687929571 1 I I #
coedge $-1 $252 $252 $-1 $356 reversed $159 $-1 #
edge $-1 $357 0 $357 6.2831853071796004 $160 $358 forward 7 unknown #
vertex $-1 $163 $359 #
ellipse-curve $-1 43.23507759015196 -5.5522531312638286 3.6139017671300659 0.74314483375859142 0 0.66913059716165679 0.3345652985808284 0 -0.37157241687929571 1 I I #
coedge $-1 $256 $256 $-1 $360 reversed $166 $-1 #
edge $-1 $361 0 $361 6.2831853071796004 $167 $362 forward 7 unknown #
vertex $-1 $170 $363 #
ellipse-curve $-1 43.23507759015196 -2.2209012525055307 3.6139017671300659 0.74314483375859142 0 0.66913059716165679 0.3345652985808284 0 -0.37157241687929571 1 I I #
face $-1 $-1 $364 $36 $-1 $365 reversed single #
loop $-1 $-1 $267 $171 #
plane-surface $-1 0 0 6.4649568146645073 0 0 1 1 0 0 forward_v I I I I #
coedge $-1 $366 $174 $176 $269 forward $108 $-1 #
coedge $-1 $174 $366 $367 $368 reversed $108 $-1 #
coedge $-1 $369 $177 $174 $266 forward $172 $-1 #
edge $-1 $272 4.9154209399272926 $370 16.019927202454959 $265 $371 forward 7 unknown #
coedge $-1 $372 $373 $175 $268 forward $261 $-1 #
edge $-1 $374 14.376873333180949 $271 19.511076196030178 $267 $375 forward 7 unknown #
edge $-1 $272 -91.604358043153184 $374 -83.931412156912614 $176 $376 forward 7 unknown #
coedge $-1 $177 $369 $372 $377 reversed $172 $-1 #
vertex $-1 $377 $378 #
vertex $-1 $178 $379 #
straight-curve $-1 45.802179021576585 15.383095011118417 65.06671547458123 0 0 -1 I I #
coedge $-1 $274 $274 $-1 $380 reversed $181 $-1 #
edge $-1 $381 0 $381 6.2831853071796004 $182 $382 forward 7 unknown #
vertex $-1 $185 $383 #
ellipse-curve $-1 43.23507759015196 17.603996263623952 3.6139017671300659 0.74314483375859142 0 0.66913059716165679 0.3345652985808284 0 -0.37157241687929571 1 I I #
coedge $-1 $278 $278 $-1 $384 reversed $188 $-1 #
edge $-1 $385 0 $385 6.2831853071796004 $189 $386 forward 7 unknown #
vertex $-1 $192 $387 #
ellipse-curve $-1 43.23507759015196 20.935348142382249 3.6139017671300659 0.74314483375859142 0 0.66913059716165679 0.3345652985808284 0 -0.37157241687929571 1 I I #
coedge $-1 $282 $282 $-1 $388 reversed $195 $-1 #
edge $-1 $389 0 $389 6.2831853071796004 $196 $390 forward 7 unknown #
vertex $-1 $199 $391 #
ellipse-curve $-1 43.23507759015196 24.266700021140547 3.6139017671300659 0.74314483375859142 0 0.66913059716165679 0.3345652985808284 0 -0.37157241687929571 1 I I #
face $-1 $-1 $215 $30 $-1 $392 reversed single #
loop $-1 $-1 $302 $200 #
plane-surface $-1 0 26.487601273646082 0 0 -1 0 0 0 -1 forward_v I I I I #
coedge $-1 $393 $300 $303 $394 forward $201 $-1 #
coedge $-1 $306 $203 $204 $294 reversed $127 $-1 #
coedge $-1 $300 $393 $203 $292 reversed $201 $-1 #
edge $-1 $307 -6.4649568146645073 $395 6.4649568146645073 $291 $396 forward 7 unknown #
coedge $-1 $205 $204 $393 $397 forward $81 $-1 #
edge $-1 $298 -45.802179021576585 $395 45.802179021576585 $290 $398 forward 7 unknown #
coedge $-1 $303 $302 $205 $296 reversed $287 $-1 #
edge $-1 $399 -45.802179021576585 $297 45.802179021576585 $295 $400 forward 7 unknown #
vertex $-1 $207 $401 #
vertex $-1 $309 $402 #
straight-curve $-1 45.802179021576585 0 -6.4649568146645073 0 -1 0 I I #
coedge $-1 $289 $291 $208 $301 reversed $201 $-1 #
edge $-1 $304 -26.487601273646082 $307 26.487601273646082 $300 $403 forward 7 unknown #
coedge $-1 $295 $209 $214 $310 forward $287 $-1 #
coedge $-1 $209 $295 $289 $394 reversed $287 $-1 #
vertex $-1 $210 $404 #
straight-curve $-1 0 26.487601273646082 6.4649568146645073 -1 0 0 I I #
coedge $-1 $211 $290 $213 $309 reversed $127 $-1 #
vertex $-1 $301 $405 #
straight-curve $-1 0 -26.487601273646082 6.4649568146645073 1 0 0 I I #
edge $-1 $216 -6.4649568146645073 $298 6.4649568146645073 $213 $406 forward 7 unknown #
edge $-1 $217 -6.4649568146645073 $297 6.4649568146645073 $214 $407 forward 7 unknown #
point $-1 45.802179021576585 -26.487601273646082 6.4649568146645073 #
point $-1 45.802179021576585 26.487601273646082 6.4649568146645073 #
face $-1 $-1 $327 $31 $-1 $408 reversed single #
loop $-1 $-1 $323 $219 #
plane-surface $-1 0 0 -6.4649568146645073 0 0 1 1 0 0 forward_v I I I I #
coedge $-1 $409 $410 $317 $411 forward $220 $-1 #
coedge $-1 $223 $222 $316 $411 reversed $85 $-1 #
coedge $-1 $323 $412 $222 $319 forward $314 $-1 #
edge $-1 $413 -53.564377059392747 $321 -45.802179021576585 $222 $414 forward 7 unknown #
edge $-1 $230 -3.8810990189080812 $415 3.8810990189080812 $223 $416 forward 7 unknown #
vertex $-1 $224 $417 #
straight-curve $-1 -45.802179021576585 26.487601273646082 0 0 0 -1 I I #
coedge $-1 $418 $318 $225 $324 forward $314 $-1 #
edge $-1 $321 -26.487601273646082 $328 26.487601273646082 $323 $419 forward 7 unknown #
coedge $-1 $420 $226 $229 $331 reversed $327 $-1 #
coedge $-1 $226 $420 $418 $421 reversed $327 $-1 #
loop $-1 $-1 $226 $313 #
vertex $-1 $421 $422 #
straight-curve $-1 -45.802179021576585 -26.487601273646082 0 0 0 1 I I #
coedge $-1 $229 $228 $410 $423 forward $135 $-1 #
edge $-1 $424 -3.8810990189080812 $231 3.8810990189080812 $325 $425 forward 7 unknown #
point $-1 -45.802179021576585 26.487601273646082 -3.4649568146645073 #
point $-1 -45.802179021576585 -26.487601273646082 -3.4649568146645073 #
loop $-1 $-1 $241 $233 #
plane-surface $-1 45.802179021576585 0 0 -1 0 0 0 0 1 forward_v I I I I #
coedge $-1 $337 $236 $238 $341 reversed $143 $-1 #
coedge $-1 $236 $336 $426 $427 reversed $143 $-1 #
coedge $-1 $244 $239 $236 $339 forward $234 $-1 #
edge $-1 $342 14.376873333180949 $428 19.511076196030178 $338 $429 forward 7 unknown #
coedge $-1 $238 $237 $345 $430 reversed $89 $-1 #
edge $-1 $431 -91.604358043153184 $342 -83.931412156912614 $336 $432 forward 7 unknown #
vertex $-1 $240 $433 #
straight-curve $-1 40.667976158727356 -2.7761265656319161 6.4649568146645038 0 -1 0 I I #
coedge $-1 $426 $241 $244 $349 reversed $334 $-1 #
coedge $-1 $241 $426 $340 $430 forward $334 $-1 #
vertex $-1 $242 $434 #
straight-curve $-1 45.802179021576585 0 65.06671547458123 0 0 1 I I #
straight-curve $-1 -15.49309977844873 0 68.838152149137159 0.66913059716165679 0 -0.74314483375859142 I I #
edge $-1 $428 -11.104506262527664 $245 0 $344 $435 forward 7 unknown #
point $-1 45.802179021576585 0 6.4649568146645073 #
point $-1 40.667976158727356 0 6.4649568146645038 #
edge $-1 $436 1 $436 0 $248 $-1 forward 7 unknown #
vertex $-1 $249 $437 #
ellipse-curve $-1 42.491932756393368 -8.88360501002213 2.9447711699684089 0.74314483375859142 0 0.66913059716165679 0.3345652985808284 0 -0.37157241687929571 1 I I #
point $-1 43.569642888732794 -8.88360501002213 3.2423293502507704 #
edge $-1 $438 1 $438 0 $252 $-1 forward 7 unknown #
vertex $-1 $253 $439 #
ellipse-curve $-1 42.491932756393368 -5.5522531312638286 2.9447711699684089 0.74314483375859142 0 0.66913059716165679 0.3345652985808284 0 -0.37157241687929571 1 I I #
point $-1 43.569642888732794 -5.5522531312638286 3.2423293502507704 #
edge $-1 $440 1 $440 0 $256 $-1 forward 7 unknown #
vertex $-1 $257 $441 #
ellipse-curve $-1 42.491932756393368 -2.2209012525055307 2.9447711699684089 0.74314483375859142 0 0.66913059716165679 0.3345652985808284 0 -0.37157241687929571 1 I I #
point $-1 43.569642888732794 -2.2209012525055307 3.2423293502507704 #
loop $-1 $-1 $367 $260 #
plane-surface $-1 0 26.487601273646082 0 0 -1 0 0 0 -1 forward_v I I I I #
coedge $-1 $264 $263 $373 $442 reversed $108 $-1 #
coedge $-1 $443 $444 $264 $368 forward $364 $-1 #
edge $-1 $370 -60.84254592227434 $445 -53.169600036033778 $367 $446 forward 7 unknown #
coedge $-1 $270 $265 $444 $447 reversed $172 $-1 #
vertex $-1 $266 $448 #
straight-curve $-1 45.802179021576585 10.467674071191125 0.76284671959559347 0 1 0 I I #
coedge $-1 $449 $267 $270 $377 forward $261 $-1 #
coedge $-1 $267 $449 $366 $442 forward $261 $-1 #
vertex $-1 $268 $450 #
straight-curve $-1 26.291102825546407 15.383095011118417 6.4649568146645038 1 0 0 I I #
straight-curve $-1 -15.49309977844873 15.383095011118417 68.838152149137159 -0.66913059716165679 0 0.74314483375859142 I I #
edge $-1 $271 15.383095011118417 $451 26.487601273646082 $270 $452 forward 7 unknown #
point $-1 45.802179021576585 15.383095011118417 6.4649568146645073 #
point $-1 45.802179021576585 15.383095011118417 0.76284671959558636 #
edge $-1 $453 1 $453 0 $274 $-1 forward 7 unknown #
vertex $-1 $275 $454 #
ellipse-curve $-1 42.491932756393368 17.603996263623952 2.9447711699684089 0.74314483375859142 0 0.66913059716165679 0.3345652985808284 0 -0.37157241687929571 1 I I #
point $-1 43.569642888732794 17.603996263623952 3.2423293502507704 #
edge $-1 $455 1 $455 0 $278 $-1 forward 7 unknown #
vertex $-1 $279 $456 #
ellipse-curve $-1 42.491932756393368 20.935348142382249 2.9447711699684089 0.74314483375859142 0 0.66913059716165679 0.3345652985808284 0 -0.37157241687929571 1 I I #
point $-1 43.569642888732794 20.935348142382249 3.2423293502507704 #
edge $-1 $457 1 $457 0 $282 $-1 forward 7 unknown #
vertex $-1 $283 $458 #
ellipse-curve $-1 42.491932756393368 24.266700021140547 2.9447711699684089 0.74314483375859142 0 0.66913059716165679 0.3345652985808284 0 -0.37157241687929571 1 I I #
point $-1 43.569642888732794 24.266700021140547 3.2423293502507704 #
plane-surface $-1 45.802179021576585 0 0 -1 0 0 0 0 1 forward_v I I I I #
coedge $-1 $291 $289 $293 $397 reversed $201 $-1 #
edge $-1 $304 -6.4649568146645073 $399 6.4649568146645073 $303 $459 forward 7 unknown #
vertex $-1 $397 $460 #
straight-curve $-1 -45.802179021576585 -26.487601273646082 0 0 0 -1 I I #
edge $-1 $395 -26.487601273646082 $399 26.487601273646082 $393 $461 forward 7 unknown #
straight-curve $-1 0 -26.487601273646082 -6.4649568146645073 -1 0 0 I I #
vertex $-1 $296 $462 #
straight-curve $-1 0 26.487601273646082 -6.4649568146645073 1 0 0 I I #
point $-1 45.802179021576585 26.487601273646082 -6.4649568146645073 #
point $-1 45.802179021576585 -26.487601273646082 -6.4649568146645073 #
straight-curve $-1 -45.802179021576585 0 6.4649568146645073 0 -1 0 I I #
point $-1 -45.802179021576585 26.487601273646082 6.4649568146645073 #
point $-1 -45.802179021576585 -26.487601273646082 6.4649568146645073 #
straight-curve $-1 45.802179021576585 -26.487601273646082 0 0 0 -1 I I #
straight-curve $-1 45.802179021576585 26.487601273646082 0 0 0 -1 I I #
plane-surface $-1 0 -26.487601273646082 0 0 1 0 0 0 1 forward_v I I I I #
coedge $-1 $463 $316 $412 $464 reversed $220 $-1 #
coedge $-1 $316 $463 $330 $423 reversed $220 $-1 #
edge $-1 $415 -1.5 $413 1.5 $317 $465 forward 7 unknown #
coedge $-1 $318 $418 $409 $464 forward $314 $-1 #
vertex $-1 $319 $466 #
straight-curve $-1 0 26.487601273646082 -6.4649568146645073 1 0 0 I I #
vertex $-1 $320 $467 #
straight-curve $-1 -49.683278040484666 26.487601273646082 -3.4649568146645073 -1 0 0 I I #
point $-1 -45.802179021576585 26.487601273646082 -6.4649568146645073 #
coedge $-1 $412 $323 $326 $421 forward $314 $-1 #
straight-curve $-1 -45.802179021576585 0 -6.4649568146645073 0 -1 0 I I #
coedge $-1 $326 $325 $463 $468 forward $327 $-1 #
edge $-1 $328 -3.8810990189080812 $469 3.8810990189080812 $326 $470 forward 7 unknown #
point $-1 -45.802179021576585 -26.487601273646082 -6.4649568146645073 #
edge $-1 $415 -26.487601273646082 $424 26.487601273646082 $410 $471 forward 7 unknown #
vertex $-1 $423 $472 #
straight-curve $-1 -49.683278040484666 -26.487601273646082 -3.4649568146645073 1 0 0 I I #
coedge $-1 $345 $344 $337 $427 forward $334 $-1 #
edge $-1 $428 58.601758659916726 $431 64.303868754985643 $426 $473 forward 7 unknown #
vertex $-1 $349 $474 #
straight-curve $-1 26.291102825546407 -11.104506262527664 6.4649568146645038 1 0 0 I I #
edge $-1 $431 -8.3283796968957482 $346 2.7761265656319161 $345 $475 forward 7 unknown #
vertex $-1 $430 $476 #
straight-curve $-1 -15.49309977844873 -11.104506262527664 68.838152149137159 -0.66913059716165679 0 0.74314483375859142 I I #
point $-1 40.667976158727356 -11.104506262527664 6.4649568146645038 #
point $-1 45.802179021576585 0 0.76284671959558636 #
straight-curve $-1 45.802179021576585 0 6.4649568146645073 0 1 0 I I #
vertex $-1 $352 $477 #
point $-1 42.826498054974202 -8.88360501002213 2.5731987530891134 #
vertex $-1 $356 $478 #
point $-1 42.826498054974202 -5.5522531312638286 2.5731987530891134 #
vertex $-1 $360 $479 #
point $-1 42.826498054974202 -2.2209012525055307 2.5731987530891134 #
edge $-1 $445 -16.019927202454959 $374 -4.9154209399272926 $373 $480 forward 7 unknown #
coedge $-1 $444 $367 $449 $481 reversed $364 $-1 #
coedge $-1 $367 $443 $369 $447 forward $364 $-1 #
vertex $-1 $368 $482 #
straight-curve $-1 5.0905699357696221 26.487601273646082 45.977670394453625 -0.66913059716165679 0 0.74314483375859142 I I #
edge $-1 $451 -6.4649568146645073 $370 -0.76284671959559247 $369 $483 forward 7 unknown #
point $-1 45.802179021576585 26.487601273646082 0.76284671959559247 #
coedge $-1 $373 $372 $443 $481 forward $261 $-1 #
point $-1 40.667976158727356 15.383095011118417 6.4649568146645038 #
vertex $-1 $377 $484 #
straight-curve $-1 45.802179021576585 0 6.4649568146645073 0 1 0 I I #
vertex $-1 $380 $485 #
point $-1 42.826498054974202 17.603996263623952 2.5731987530891134 #
vertex $-1 $384 $486 #
point $-1 42.826498054974202 20.935348142382249 2.5731987530891134 #
vertex $-1 $388 $487 #
point $-1 42.826498054974202 24.266700021140547 2.5731987530891134 #
straight-curve $-1 -45.802179021576585 26.487601273646082 0 0 0 -1 I I #
point $-1 -45.802179021576585 -26.487601273646082 -6.4649568146645073 #
straight-curve $-1 -45.802179021576585 0 -6.4649568146645073 0 1 0 I I #
point $-1 -45.802179021576585 26.487601273646082 -6.4649568146645073 #
coedge $-1 $410 $409 $420 $468 reversed $220 $-1 #
edge $-1 $469 -26.487601273646082 $413 26.487601273646082 $409 $488 forward 7 unknown #
straight-curve $-1 -53.564377059392747 26.487601273646082 -4.9649568146645073 0 0 -1 I I #
point $-1 -53.564377059392747 26.487601273646082 -6.4649568146645073 #
point $-1 -53.564377059392747 26.487601273646082 -3.4649568146645073 #
edge $-1 $424 -1.5 $469 1.5 $463 $489 forward 7 unknown #
vertex $-1 $464 $490 #
straight-curve $-1 -49.683278040484666 -26.487601273646082 -6.4649568146645073 -1 0 0 I I #
straight-curve $-1 -53.564377059392747 0 -3.4649568146645073 0 -1 0 I I #
point $-1 -53.564377059392747 -26.487601273646082 -3.4649568146645073 #
straight-curve $-1 45.802179021576585 -11.104506262527664 65.06671547458123 0 0 -1 I I #
point $-1 45.802179021576585 -11.104506262527664 6.4649568146645073 #
straight-curve $-1 45.802179021576585 -2.7761265656319161 0.76284671959559347 0 1 0 I I #
point $-1 45.802179021576585 -11.104506262527664 0.76284671959558636 #
point $-1 42.120360339514079 -8.88360501002213 2.6102058713875809 #
point $-1 42.120360339514079 -5.5522531312638286 2.6102058713875809 #
point $-1 42.120360339514079 -2.2209012525055307 2.6102058713875809 #
straight-curve $-1 40.667976158727356 10.467674071191125 6.4649568146645038 0 -1 0 I I #
edge $-1 $451 -45.802179021576585 $445 -40.667976158727356 $443 $491 forward 7 unknown #
point $-1 40.667976158727356 26.487601273646082 6.4649568146645038 #
straight-curve $-1 45.802179021576585 26.487601273646082 0 0 0 -1 I I #
point $-1 45.802179021576585 26.487601273646082 6.4649568146645073 #
point $-1 42.120360339514079 17.603996263623952 2.6102058713875809 #
point $-1 42.120360339514079 20.935348142382249 2.6102058713875809 #
point $-1 42.120360339514079 24.266700021140547 2.6102058713875809 #
straight-curve $-1 -53.564377059392747 0 -6.4649568146645073 0 1 0 I I #
straight-curve $-1 -53.564377059392747 -26.487601273646082 -4.9649568146645073 0 0 -1 I I #
point $-1 -53.564377059392747 -26.487601273646082 -6.4649568146645073 #
straight-curve $-1 0 26.487601273646082 6.4649568146645073 -1 0 0 I I #
End-of-ACIS-data 