500 0 14 0           
7 Unknown 11 ACIS 5.0 NT 24 Fri Mar 26 19:29:25 1999 
-1 9.9999999999999995e-007 1e-010 
body $-1 $14 $-1 $15 #
body $-1 $16 $-1 $17 #
body $-1 $18 $-1 $19 #
body $-1 $20 $-1 $21 #
body $-1 $22 $-1 $23 #
body $-1 $24 $-1 $25 #
body $-1 $26 $-1 $27 #
body $-1 $28 $-1 $29 #
body $-1 $30 $-1 $31 #
body $-1 $32 $-1 $33 #
body $-1 $34 $-1 $35 #
body $-1 $36 $-1 $37 #
body $-1 $38 $-1 $39 #
body $-1 $40 $-1 $41 #
lump $-1 $-1 $42 $0 #
transform $-1 1 0 0 0 1 0 0 0 1 69.657887508774081 28.712008865085412 12.784804655450367 1 rotate no_reflect no_shear #
lump $-1 $-1 $43 $1 #
transform $-1 1 0 0 0 1 0 0 0 1 69.657887508774081 28.712008865085412 12.784804655450367 1 rotate no_reflect no_shear #
lump $-1 $-1 $44 $2 #
transform $-1 1 0 0 0 1 0 0 0 1 69.657887508774081 28.712008865085412 12.784804655450367 1 rotate no_reflect no_shear #
lump $-1 $-1 $45 $3 #
transform $-1 1 0 0 0 1 0 0 0 1 69.657887508774081 28.712008865085412 12.784804655450367 1 rotate no_reflect no_shear #
lump $-1 $-1 $46 $4 #
transform $-1 1 0 0 0 1 0 0 0 1 69.657887508774081 28.712008865085412 12.784804655450367 1 rotate no_reflect no_shear #
lump $-1 $-1 $47 $5 #
transform $-1 1 0 0 0 1 0 0 0 1 69.657887508774081 28.712008865085412 12.784804655450367 1 rotate no_reflect no_shear #
lump $-1 $-1 $48 $6 #
transform $-1 1 0 0 0 1 0 0 0 1 69.657887508774081 28.712008865085412 12.784804655450367 1 rotate no_reflect no_shear #
lump $-1 $-1 $49 $7 #
transform $-1 1 0 0 0 1 0 0 0 1 69.657887508774081 28.712008865085412 12.784804655450367 1 rotate no_reflect no_shear #
lump $-1 $-1 $50 $8 #
transform $-1 1 0 0 0 1 0 0 0 1 69.657887508774081 28.712008865085412 12.784804655450367 1 rotate no_reflect no_shear #
lump $-1 $-1 $51 $9 #
transform $-1 1 0 0 0 1 0 0 0 1 69.657887508774081 28.712008865085412 12.784804655450367 1 rotate no_reflect no_shear #
lump $-1 $-1 $52 $10 #
transform $-1 1 0 0 0 1 0 0 0 1 69.657887508774081 28.712008865085412 12.784804655450367 1 rotate no_reflect no_shear #
lump $-1 $-1 $53 $11 #
transform $-1 1 0 0 0 1 0 0 0 1 69.657887508774081 28.712008865085412 12.784804655450367 1 rotate no_reflect no_shear #
lump $-1 $-1 $54 $12 #
transform $-1 1 0 0 0 1 0 0 0 1 69.657887508774081 28.712008865085412 12.784804655450367 1 rotate no_reflect no_shear #
lump $-1 $-1 $55 $13 #
transform $-1 1 0 0 0 1 0 0 0 1 69.657887508774081 28.712008865085412 12.784804655450367 1 rotate no_reflect no_shear #
shell $-1 $-1 $-1 $56 $-1 $14 #
shell $-1 $-1 $-1 $57 $-1 $16 #
shell $-1 $-1 $-1 $58 $-1 $18 #
shell $-1 $-1 $-1 $59 $-1 $20 #
shell $-1 $-1 $-1 $60 $-1 $22 #
shell $-1 $-1 $-1 $61 $-1 $24 #
shell $-1 $-1 $-1 $62 $-1 $26 #
shell $-1 $-1 $-1 $63 $-1 $28 #
shell $-1 $-1 $-1 $64 $-1 $30 #
shell $-1 $-1 $-1 $65 $-1 $32 #
shell $-1 $-1 $-1 $66 $-1 $34 #
shell $-1 $-1 $-1 $67 $-1 $36 #
shell $-1 $-1 $-1 $68 $-1 $38 #
shell $-1 $-1 $-1 $69 $-1 $40 #
face $-1 $70 $71 $42 $-1 $72 reversed single #
face $-1 $73 $74 $43 $-1 $75 forward single #
face $-1 $76 $77 $44 $-1 $78 forward single #
face $-1 $79 $80 $45 $-1 $81 reversed single #
face $-1 $82 $83 $46 $-1 $84 forward single #
face $-1 $85 $86 $47 $-1 $87 forward single #
face $-1 $88 $89 $48 $-1 $90 reversed single #
face $-1 $91 $92 $49 $-1 $93 forward single #
face $-1 $94 $95 $50 $-1 $96 forward single #
face $-1 $97 $98 $51 $-1 $99 reversed single #
face $-1 $100 $101 $52 $-1 $102 forward single #
face $-1 $103 $104 $53 $-1 $105 forward single #
face $-1 $106 $107 $54 $-1 $108 reversed single #
face $-1 $109 $110 $55 $-1 $111 forward single #
face $-1 $112 $113 $42 $-1 $114 forward single #
loop $-1 $-1 $115 $56 #
plane-surface $-1 0 -28.712008865085412 0 0 1 0 0 0 1 forward_v I I I I #
face $-1 $116 $117 $43 $-1 $118 forward single #
loop $-1 $-1 $119 $57 #
plane-surface $-1 0 -28.712008865085412 0 0 1 0 0 0 1 forward_v I I I I #
face $-1 $120 $121 $44 $-1 $122 forward single #
loop $-1 $-1 $123 $58 #
plane-surface $-1 0 28.712008865085412 0 0 -1 0 0 0 -1 forward_v I I I I #
face $-1 $124 $125 $45 $-1 $126 reversed single #
loop $-1 $-1 $127 $59 #
plane-surface $-1 -169.87327044173267 -15.406382572682009 105.7786972320452 0 1 0 -0.71933980857756763 0 0.69465836192734942 forward_v I I I I #
face $-1 $128 $129 $46 $-1 $130 forward single #
loop $-1 $131 $132 $60 #
cone-surface $-1 -67.450312629321743 -13.670490176766442 10.525402591014691 0.71933980857756763 0 -0.69465836192734942 0.34732918096367471 0 0.35966990428878381 1 I I 0 1 0.5 forward I I I I #
face $-1 $133 $134 $47 $-1 $135 forward single #
loop $-1 $136 $137 $61 #
cone-surface $-1 -67.450312629321743 -11.066651582893094 10.525402591014691 0.71933980857756763 0 -0.69465836192734942 0.34732918096367471 0 0.35966990428878381 1 I I 0 1 0.5 forward I I I I #
face $-1 $138 $139 $48 $-1 $140 reversed single #
loop $-1 $-1 $141 $62 #
plane-surface $-1 -169.87327044173267 -3.0378116928522436 105.7786972320452 0 1 0 -0.71933980857756763 0 0.69465836192734942 forward_v I I I I #
face $-1 $142 $143 $49 $-1 $144 forward single #
loop $-1 $145 $146 $63 #
cone-surface $-1 -67.450312629321743 -1.3019192969366777 10.525402591014691 0.71933980857756763 0 -0.69465836192734942 0.34732918096367471 0 0.35966990428878381 1 I I 0 1 0.5 forward I I I I #
face $-1 $147 $148 $50 $-1 $149 forward single #
loop $-1 $150 $151 $64 #
cone-surface $-1 -67.450312629321743 1.3019192969366706 10.525402591014691 0.71933980857756763 0 -0.69465836192734942 0.34732918096367471 0 0.35966990428878381 1 I I 0 1 0.5 forward I I I I #
face $-1 $152 $153 $51 $-1 $154 reversed single #
loop $-1 $-1 $155 $65 #
plane-surface $-1 -169.87327044173267 9.3307591869775237 105.7786972320452 0 1 0 -0.71933980857756763 0 0.69465836192734942 forward_v I I I I #
face $-1 $156 $157 $52 $-1 $158 forward single #
loop $-1 $159 $160 $66 #
cone-surface $-1 -67.450312629321743 11.06665158289309 10.525402591014691 0.71933980857756763 0 -0.69465836192734942 0.34732918096367471 0 0.35966990428878381 1 I I 0 1 0.5 forward I I I I #
face $-1 $161 $162 $53 $-1 $163 forward single #
loop $-1 $164 $165 $67 #
cone-surface $-1 -67.450312629321743 13.670490176766439 10.525402591014691 0.71933980857756763 0 -0.69465836192734942 0.34732918096367471 0 0.35966990428878381 1 I I 0 1 0.5 forward I I I I #
face $-1 $166 $167 $54 $-1 $168 reversed single #
loop $-1 $-1 $169 $68 #
plane-surface $-1 28.694658258716686 8.611279947927315 193.93162638902652 0 -1 0 -0.54463904215088732 0 -0.83867056331134215 forward_v I I I I #
face $-1 $170 $171 $55 $-1 $172 forward single #
loop $-1 $173 $174 $69 #
cone-surface $-1 59.308507403156511 3.5566815191477268 4.7804759015959508 -0.54463904215088732 0 -0.83867056331134215 1.2580058449670133 0 -0.81695856322633098 1 I I 0 1 1.5 forward I I I I #
face $-1 $175 $176 $42 $-1 $177 reversed single #
loop $-1 $-1 $178 $70 #
plane-surface $-1 0 0 12.784804655450367 0 0 1 1 0 0 forward_v I I I I #
coedge $-1 $179 $180 $181 $182 reversed $71 $-1 #
face $-1 $183 $184 $43 $-1 $185 reversed single #
loop $-1 $-1 $186 $73 #
plane-surface $-1 0 0 12.784804655450367 0 0 1 1 0 0 forward_v I I I I #
coedge $-1 $187 $188 $189 $190 forward $74 $-1 #
face $-1 $191 $192 $44 $-1 $193 reversed single #
loop $-1 $-1 $194 $76 #
plane-surface $-1 0 0 12.784804655450367 0 0 1 1 0 0 forward_v I I I I #
coedge $-1 $195 $196 $197 $198 forward $77 $-1 #
face $-1 $199 $200 $45 $-1 $201 reversed single #
loop $-1 $-1 $202 $79 #
plane-surface $-1 -69.657887508774095 -12.368570879829768 9.0018291677160533 -0.71933980857756763 0 0.69465836192734942 0.69465836192734942 0 0.71933980857756763 forward_v I I I I #
coedge $-1 $203 $204 $205 $206 reversed $80 $-1 #
face $-1 $-1 $207 $46 $-1 $208 forward single #
loop $-1 $209 $210 $82 #
cone-surface $-1 -66.889491236308203 -13.670490176766442 9.9838236799643507 0.71933980857756763 0 -0.69465836192734942 0.17366459048183736 0 0.17983495214439191 1 I I -0.70710678118654746 0.70710678118654746 0.25 forward I I I I #
loop $-1 $-1 $211 $60 #
coedge $-1 $132 $132 $212 $213 reversed $83 $-1 #
face $-1 $-1 $214 $47 $-1 $215 forward single #
loop $-1 $216 $217 $85 #
cone-surface $-1 -66.889491236308203 -11.066651582893094 9.9838236799643507 0.71933980857756763 0 -0.69465836192734942 0.17366459048183736 0 0.17983495214439191 1 I I -0.70710678118654746 0.70710678118654746 0.25 forward I I I I #
loop $-1 $-1 $218 $61 #
coedge $-1 $137 $137 $219 $220 reversed $86 $-1 #
face $-1 $221 $222 $48 $-1 $223 reversed single #
loop $-1 $-1 $224 $88 #
plane-surface $-1 -69.657887508774095 -3.5527136788005009e-015 9.0018291677160533 -0.71933980857756763 0 0.69465836192734942 0.69465836192734942 0 0.71933980857756763 forward_v I I I I #
coedge $-1 $225 $226 $227 $228 reversed $89 $-1 #
face $-1 $-1 $229 $49 $-1 $230 forward single #
loop $-1 $231 $232 $91 #
cone-surface $-1 -66.889491236308203 -1.3019192969366777 9.9838236799643507 0.71933980857756763 0 -0.69465836192734942 0.17366459048183736 0 0.17983495214439191 1 I I -0.70710678118654746 0.70710678118654746 0.25 forward I I I I #
loop $-1 $-1 $233 $63 #
coedge $-1 $146 $146 $234 $235 reversed $92 $-1 #
face $-1 $-1 $236 $50 $-1 $237 forward single #
loop $-1 $238 $239 $94 #
cone-surface $-1 -66.889491236308203 1.3019192969366706 9.9838236799643507 0.71933980857756763 0 -0.69465836192734942 0.17366459048183736 0 0.17983495214439191 1 I I -0.70710678118654746 0.70710678118654746 0.25 forward I I I I #
loop $-1 $-1 $240 $64 #
coedge $-1 $151 $151 $241 $242 reversed $95 $-1 #
face $-1 $243 $244 $51 $-1 $245 reversed single #
loop $-1 $-1 $246 $97 #
plane-surface $-1 -69.657887508774095 12.368570879829765 9.0018291677160533 -0.71933980857756763 0 0.69465836192734942 0.69465836192734942 0 0.71933980857756763 forward_v I I I I #
coedge $-1 $247 $248 $249 $250 reversed $98 $-1 #
face $-1 $-1 $251 $52 $-1 $252 forward single #
loop $-1 $253 $254 $100 #
cone-surface $-1 -66.889491236308203 11.06665158289309 9.9838236799643507 0.71933980857756763 0 -0.69465836192734942 0.17366459048183736 0 0.17983495214439191 1 I I -0.70710678118654746 0.70710678118654746 0.25 forward I I I I #
loop $-1 $-1 $255 $66 #
coedge $-1 $160 $160 $256 $257 reversed $101 $-1 #
face $-1 $-1 $258 $53 $-1 $259 forward single #
loop $-1 $260 $261 $103 #
cone-surface $-1 -66.889491236308203 13.670490176766439 9.9838236799643507 0.71933980857756763 0 -0.69465836192734942 0.17366459048183736 0 0.17983495214439191 1 I I -0.70710678118654746 0.70710678118654746 0.25 forward I I I I #
loop $-1 $-1 $262 $67 #
coedge $-1 $165 $165 $263 $264 reversed $104 $-1 #
face $-1 $265 $266 $54 $-1 $267 reversed single #
loop $-1 $-1 $268 $106 #
plane-surface $-1 -47.182152003349259 3.5566815191477268 77.091586876903193 0.54463904215088732 0 0.83867056331134215 0.83867056331134215 0 -0.54463904215088732 forward_v I I I I #
coedge $-1 $269 $270 $271 $272 reversed $107 $-1 #
face $-1 $-1 $273 $55 $-1 $274 forward single #
loop $-1 $275 $276 $109 #
cone-surface $-1 57.458788255035543 3.5566815191477268 1.9321582455645707 -0.54463904215088732 0 -0.83867056331134215 0.62900292248350664 0 -0.40847928161316549 1 I I -0.70710678118654757 0.70710678118654757 0.75 forward I I I I #
loop $-1 $-1 $277 $69 #
coedge $-1 $174 $174 $278 $279 reversed $110 $-1 #
face $-1 $280 $281 $42 $-1 $282 reversed single #
loop $-1 $-1 $283 $112 #
plane-surface $-1 0 0 -12.784804655450367 0 0 1 1 0 0 forward_v I I I I #
coedge $-1 $284 $285 $286 $287 forward $113 $-1 #
coedge $-1 $288 $115 $289 $290 reversed $71 $-1 #
coedge $-1 $115 $288 $291 $292 forward $71 $-1 #
coedge $-1 $293 $283 $115 $182 forward $176 $-1 #
edge $-1 $294 -69.657887508774081 $295 69.657887508774081 $115 $296 forward 7 unknown #
face $-1 $297 $298 $43 $-1 $299 reversed single #
loop $-1 $-1 $300 $116 #
plane-surface $-1 -69.657887508774081 0 0 1 0 0 0 0 -1 forward_v I I I I #
coedge $-1 $301 $302 $188 $303 forward $117 $-1 #
coedge $-1 $304 $119 $305 $306 reversed $74 $-1 #
coedge $-1 $119 $304 $186 $303 reversed $74 $-1 #
coedge $-1 $307 $308 $119 $190 reversed $309 $-1 #
edge $-1 $310 -12.784804655450367 $311 12.784804655450367 $189 $312 forward 7 unknown #
face $-1 $313 $314 $44 $-1 $315 reversed single #
loop $-1 $-1 $316 $120 #
plane-surface $-1 -67.645413253201482 37.86895986366585 0 0 -1 0 0 0 -1 forward_v I I I I #
coedge $-1 $317 $318 $195 $319 forward $121 $-1 #
coedge $-1 $320 $123 $194 $319 reversed $77 $-1 #
coedge $-1 $123 $320 $321 $322 reversed $77 $-1 #
coedge $-1 $323 $324 $123 $198 reversed $314 $-1 #
edge $-1 $325 -12.784804655450367 $326 12.784804655450367 $197 $327 forward 7 unknown #
face $-1 $328 $329 $45 $-1 $330 reversed single #
loop $-1 $-1 $331 $124 #
plane-surface $-1 -169.87327044173267 -9.3307591869775273 105.7786972320452 0 -1 0 0.71933980857756763 0 -0.69465836192734942 forward_v I I I I #
coedge $-1 $332 $333 $334 $335 reversed $125 $-1 #
coedge $-1 $204 $127 $336 $337 reversed $80 $-1 #
coedge $-1 $127 $203 $332 $338 reversed $80 $-1 #
coedge $-1 $334 $339 $127 $206 forward $340 $-1 #
edge $-1 $341 15.278747712092255 $342 18.931924589258585 $205 $343 forward 7 unknown #
loop $-1 $-1 $212 $128 #
plane-surface $-1 -69.657887508774095 -12.368570879829768 9.0018291677160533 -0.71933980857756763 0 0.69465836192734942 0.69465836192734942 0 0.71933980857756763 forward_v I I I I #
loop $-1 $-1 $344 $82 #
coedge $-1 $210 $210 $211 $345 reversed $129 $-1 #
coedge $-1 $211 $211 $210 $345 forward $131 $-1 #
coedge $-1 $212 $212 $132 $213 forward $207 $-1 #
edge $-1 $346 0 $346 6.2831853071796004 $212 $347 forward 7 unknown #
loop $-1 $-1 $219 $133 #
plane-surface $-1 -69.657887508774095 -12.368570879829768 9.0018291677160533 -0.71933980857756763 0 0.69465836192734942 0.69465836192734942 0 0.71933980857756763 forward_v I I I I #
loop $-1 $-1 $348 $85 #
coedge $-1 $217 $217 $218 $349 reversed $134 $-1 #
coedge $-1 $218 $218 $217 $349 forward $136 $-1 #
coedge $-1 $219 $219 $137 $220 forward $214 $-1 #
edge $-1 $350 0 $350 6.2831853071796004 $219 $351 forward 7 unknown #
face $-1 $352 $353 $48 $-1 $354 forward single #
loop $-1 $-1 $355 $138 #
plane-surface $-1 -169.87327044173267 3.0378116928522365 105.7786972320452 0 -1 0 0.71933980857756763 0 -0.69465836192734942 forward_v I I I I #
coedge $-1 $356 $357 $358 $359 reversed $139 $-1 #
coedge $-1 $226 $141 $360 $361 reversed $89 $-1 #
coedge $-1 $141 $225 $356 $362 reversed $89 $-1 #
coedge $-1 $358 $363 $141 $228 forward $353 $-1 #
edge $-1 $364 15.278747712092255 $365 18.931924589258585 $227 $366 forward 7 unknown #
loop $-1 $-1 $234 $142 #
plane-surface $-1 -69.657887508774095 -3.5527136788005009e-015 9.0018291677160533 -0.71933980857756763 0 0.69465836192734942 0.69465836192734942 0 0.71933980857756763 forward_v I I I I #
loop $-1 $-1 $367 $91 #
coedge $-1 $232 $232 $233 $368 reversed $143 $-1 #
coedge $-1 $233 $233 $232 $368 forward $145 $-1 #
coedge $-1 $234 $234 $146 $235 forward $229 $-1 #
edge $-1 $369 0 $369 6.2831853071796004 $234 $370 forward 7 unknown #
loop $-1 $-1 $241 $147 #
plane-surface $-1 -69.657887508774095 -3.5527136788005009e-015 9.0018291677160533 -0.71933980857756763 0 0.69465836192734942 0.69465836192734942 0 0.71933980857756763 forward_v I I I I #
loop $-1 $-1 $371 $94 #
coedge $-1 $239 $239 $240 $372 reversed $148 $-1 #
coedge $-1 $240 $240 $239 $372 forward $150 $-1 #
coedge $-1 $241 $241 $151 $242 forward $236 $-1 #
edge $-1 $373 0 $373 6.2831853071796004 $241 $374 forward 7 unknown #
face $-1 $375 $376 $51 $-1 $377 forward single #
loop $-1 $-1 $378 $152 #
plane-surface $-1 -169.87327044173267 15.406382572682006 105.7786972320452 0 -1 0 0.71933980857756763 0 -0.69465836192734942 forward_v I I I I #
coedge $-1 $379 $380 $381 $382 reversed $153 $-1 #
coedge $-1 $248 $155 $383 $384 reversed $98 $-1 #
coedge $-1 $155 $247 $379 $385 reversed $98 $-1 #
coedge $-1 $381 $386 $155 $250 forward $376 $-1 #
edge $-1 $387 15.278747712092255 $388 18.931924589258585 $249 $389 forward 7 unknown #
loop $-1 $-1 $256 $156 #
plane-surface $-1 -69.657887508774095 12.368570879829765 9.0018291677160533 -0.71933980857756763 0 0.69465836192734942 0.69465836192734942 0 0.71933980857756763 forward_v I I I I #
loop $-1 $-1 $390 $100 #
coedge $-1 $254 $254 $255 $391 reversed $157 $-1 #
coedge $-1 $255 $255 $254 $391 forward $159 $-1 #
coedge $-1 $256 $256 $160 $257 forward $251 $-1 #
edge $-1 $392 0 $392 6.2831853071796004 $256 $393 forward 7 unknown #
loop $-1 $-1 $263 $161 #
plane-surface $-1 -69.657887508774095 12.368570879829765 9.0018291677160533 -0.71933980857756763 0 0.69465836192734942 0.69465836192734942 0 0.71933980857756763 forward_v I I I I #
loop $-1 $-1 $394 $103 #
coedge $-1 $261 $261 $262 $395 reversed $162 $-1 #
coedge $-1 $262 $262 $261 $395 forward $164 $-1 #
coedge $-1 $263 $263 $165 $264 forward $258 $-1 #
edge $-1 $396 0 $396 6.2831853071796004 $263 $397 forward 7 unknown #
face $-1 $398 $399 $54 $-1 $400 forward single #
loop $-1 $-1 $401 $166 #
plane-surface $-1 28.694658258716686 -1.4979169096318614 193.93162638902652 0 1 0 0.54463904215088732 0 0.83867056331134215 forward_v I I I I #
coedge $-1 $402 $403 $404 $405 reversed $167 $-1 #
coedge $-1 $270 $169 $406 $407 reversed $107 $-1 #
coedge $-1 $169 $269 $402 $408 reversed $107 $-1 #
coedge $-1 $404 $409 $169 $272 forward $399 $-1 #
edge $-1 $410 -55.310558379415738 $411 -37.494277901196199 $271 $412 forward 7 unknown #
loop $-1 $-1 $278 $170 #
plane-surface $-1 -47.182152003349259 3.5566815191477268 77.091586876903193 0.54463904215088732 0 0.83867056331134215 0.83867056331134215 0 -0.54463904215088732 forward_v I I I I #
loop $-1 $-1 $413 $109 #
coedge $-1 $276 $276 $277 $414 reversed $171 $-1 #
coedge $-1 $277 $277 $276 $414 forward $173 $-1 #
coedge $-1 $278 $278 $174 $279 forward $273 $-1 #
edge $-1 $415 0 $415 6.2831853071796004 $278 $416 forward 7 unknown #
face $-1 $417 $418 $42 $-1 $419 reversed single #
loop $-1 $-1 $420 $175 #
plane-surface $-1 -69.657887508774081 0 0 1 0 0 0 0 -1 forward_v I I I I #
coedge $-1 $181 $421 $422 $423 forward $176 $-1 #
coedge $-1 $424 $178 $425 $426 forward $113 $-1 #
coedge $-1 $178 $424 $288 $427 forward $113 $-1 #
coedge $-1 $289 $428 $178 $287 reversed $429 $-1 #
edge $-1 $430 -28.712008865085412 $431 28.712008865085412 $286 $432 forward 7 unknown #
coedge $-1 $180 $179 $285 $427 reversed $71 $-1 #
coedge $-1 $422 $286 $179 $290 forward $429 $-1 #
edge $-1 $430 -12.784804655450367 $294 12.784804655450367 $289 $433 forward 7 unknown #
coedge $-1 $434 $435 $180 $292 reversed $281 $-1 #
edge $-1 $436 -12.784804655450367 $295 12.784804655450367 $291 $437 forward 7 unknown #
coedge $-1 $421 $181 $435 $438 forward $176 $-1 #
vertex $-1 $290 $439 #
vertex $-1 $438 $440 #
straight-curve $-1 0 -28.712008865085412 -12.784804655450367 -1 0 0 I I #
face $-1 $441 $309 $43 $-1 $442 reversed single #
loop $-1 $-1 $443 $183 #
plane-surface $-1 -67.645413253201482 -37.86895986366585 0 0 1 0 0 0 1 forward_v I I I I #
coedge $-1 $444 $445 $304 $446 forward $184 $-1 #
coedge $-1 $447 $186 $445 $448 forward $117 $-1 #
coedge $-1 $186 $447 $307 $449 forward $117 $-1 #
edge $-1 $310 65.632938997628884 $450 69.657887508774081 $186 $451 forward 7 unknown #
coedge $-1 $188 $187 $300 $446 reversed $74 $-1 #
coedge $-1 $452 $453 $187 $306 forward $454 $-1 #
edge $-1 $455 -69.657887508774081 $311 -65.632938997628884 $305 $456 forward 7 unknown #
coedge $-1 $457 $189 $302 $449 reversed $309 $-1 #
coedge $-1 $189 $457 $452 $458 reversed $309 $-1 #
loop $-1 $-1 $457 $297 #
vertex $-1 $303 $459 #
vertex $-1 $458 $460 #
straight-curve $-1 -65.632938997628884 -28.712008865085412 0 0 0 -1 I I #
face $-1 $461 $462 $44 $-1 $463 reversed single #
loop $-1 $-1 $197 $191 #
plane-surface $-1 -65.632938997628884 33.290484364375629 0 -1 0 0 0 0 1 forward_v I I I I #
coedge $-1 $464 $465 $466 $467 forward $192 $-1 #
coedge $-1 $468 $194 $324 $469 forward $121 $-1 #
coedge $-1 $194 $468 $470 $471 forward $121 $-1 #
edge $-1 $472 -69.657887508774081 $326 -65.632938997628884 $194 $473 forward 7 unknown #
coedge $-1 $196 $195 $474 $475 reversed $77 $-1 #
coedge $-1 $476 $477 $196 $322 forward $462 $-1 #
edge $-1 $325 65.632938997628884 $478 69.657887508774081 $321 $479 forward 7 unknown #
coedge $-1 $466 $197 $477 $480 reversed $314 $-1 #
coedge $-1 $197 $466 $317 $469 reversed $314 $-1 #
vertex $-1 $322 $481 #
vertex $-1 $469 $482 #
straight-curve $-1 -65.632938997628884 28.712008865085412 0 0 0 1 I I #
face $-1 $-1 $340 $45 $-1 $483 forward single #
loop $-1 $-1 $484 $199 #
plane-surface $-1 -69.657887508774081 0 0 1 0 0 0 0 -1 forward_v I I I I #
coedge $-1 $485 $486 $487 $488 reversed $200 $-1 #
coedge $-1 $489 $202 $204 $338 forward $125 $-1 #
coedge $-1 $202 $489 $485 $490 forward $125 $-1 #
coedge $-1 $487 $205 $202 $335 forward $340 $-1 #
edge $-1 $342 -9.2220971327671251 $491 -3.1464737470626432 $334 $492 forward 7 unknown #
coedge $-1 $493 $494 $203 $337 forward $329 $-1 #
edge $-1 $495 -43.887519448306534 $341 -40.104543960572236 $336 $496 forward 7 unknown #
edge $-1 $342 -5.2589547285236753 $495 -2.0094122568606809e-014 $204 $497 forward 7 unknown #
coedge $-1 $205 $487 $493 $498 forward $340 $-1 #
loop $-1 $-1 $487 $328 #
vertex $-1 $337 $499 #
vertex $-1 $206 $500 #
straight-curve $-1 -84.936635220866336 -15.406382572682009 12.784804655450365 1 0 0 I I #
coedge $-1 $344 $344 $-1 $501 reversed $209 $-1 #
edge $-1 $502 0 $502 6.2831853071796004 $210 $503 forward 7 unknown #
vertex $-1 $213 $504 #
ellipse-curve $-1 -67.831299070190909 -13.670490176766442 10.893316911583218 -0.71933980857756763 0 0.69465836192734942 0.34732918096367471 0 0.35966990428878381 1 I I #
coedge $-1 $348 $348 $-1 $505 reversed $216 $-1 #
edge $-1 $506 0 $506 6.2831853071796004 $217 $507 forward 7 unknown #
vertex $-1 $220 $508 #
ellipse-curve $-1 -67.831299070190909 -11.066651582893094 10.893316911583218 -0.71933980857756763 0 0.69465836192734942 0.34732918096367471 0 0.35966990428878381 1 I I #
face $-1 $-1 $509 $48 $-1 $510 reversed single #
loop $-1 $-1 $227 $221 #
plane-surface $-1 0 0 12.784804655450367 0 0 1 1 0 0 forward_v I I I I #
coedge $-1 $511 $512 $513 $514 reversed $222 $-1 #
coedge $-1 $515 $224 $226 $362 forward $139 $-1 #
coedge $-1 $224 $515 $511 $516 forward $139 $-1 #
coedge $-1 $513 $227 $224 $359 forward $353 $-1 #
edge $-1 $365 -3.0378116928522418 $517 3.0378116928522383 $358 $518 forward 7 unknown #
coedge $-1 $519 $520 $225 $361 forward $509 $-1 #
edge $-1 $521 -43.887519448306534 $364 -40.104543960572236 $360 $522 forward 7 unknown #
edge $-1 $365 -5.2589547285236753 $521 -2.0094122568606809e-014 $226 $523 forward 7 unknown #
coedge $-1 $227 $513 $519 $524 forward $353 $-1 #
vertex $-1 $361 $525 #
vertex $-1 $228 $526 #
straight-curve $-1 -84.936635220866336 -3.0378116928522436 12.784804655450365 1 0 0 I I #
coedge $-1 $367 $367 $-1 $527 reversed $231 $-1 #
edge $-1 $528 0 $528 6.2831853071796004 $232 $529 forward 7 unknown #
vertex $-1 $235 $530 #
ellipse-curve $-1 -67.831299070190909 -1.3019192969366777 10.893316911583218 -0.71933980857756763 0 0.69465836192734942 0.34732918096367471 0 0.35966990428878381 1 I I #
coedge $-1 $371 $371 $-1 $531 reversed $238 $-1 #
edge $-1 $532 0 $532 6.2831853071796004 $239 $533 forward 7 unknown #
vertex $-1 $242 $534 #
ellipse-curve $-1 -67.831299070190909 1.3019192969366706 10.893316911583218 -0.71933980857756763 0 0.69465836192734942 0.34732918096367471 0 0.35966990428878381 1 I I #
face $-1 $-1 $535 $51 $-1 $536 reversed single #
loop $-1 $-1 $249 $243 #
plane-surface $-1 0 0 12.784804655450367 0 0 1 1 0 0 forward_v I I I I #
coedge $-1 $537 $538 $539 $540 reversed $244 $-1 #
coedge $-1 $541 $246 $248 $385 forward $153 $-1 #
coedge $-1 $246 $541 $537 $542 forward $153 $-1 #
coedge $-1 $539 $249 $246 $382 forward $376 $-1 #
edge $-1 $388 3.1464737470626414 $543 9.2220971327671233 $381 $544 forward 7 unknown #
coedge $-1 $545 $546 $247 $384 forward $535 $-1 #
edge $-1 $547 -43.887519448306534 $387 -40.104543960572236 $383 $548 forward 7 unknown #
edge $-1 $388 -5.2589547285236753 $547 -2.0094122568606809e-014 $248 $549 forward 7 unknown #
coedge $-1 $249 $539 $545 $550 forward $376 $-1 #
vertex $-1 $250 $551 #
vertex $-1 $250 $552 #
straight-curve $-1 -84.936635220866336 9.3307591869775237 12.784804655450365 1 0 0 I I #
coedge $-1 $390 $390 $-1 $553 reversed $253 $-1 #
edge $-1 $554 0 $554 6.2831853071796004 $254 $555 forward 7 unknown #
vertex $-1 $257 $556 #
ellipse-curve $-1 -67.831299070190909 11.06665158289309 10.893316911583218 -0.71933980857756763 0 0.69465836192734942 0.34732918096367471 0 0.35966990428878381 1 I I #
coedge $-1 $394 $394 $-1 $557 reversed $260 $-1 #
edge $-1 $558 0 $558 6.2831853071796004 $261 $559 forward 7 unknown #
vertex $-1 $264 $560 #
ellipse-curve $-1 -67.831299070190909 13.670490176766439 10.893316911583218 -0.71933980857756763 0 0.69465836192734942 0.34732918096367471 0 0.35966990428878381 1 I I #
face $-1 $-1 $561 $54 $-1 $562 reversed single #
loop $-1 $-1 $271 $265 #
plane-surface $-1 0 0 12.784804655450367 0 0 1 1 0 0 forward_v I I I I #
coedge $-1 $563 $564 $565 $566 reversed $266 $-1 #
coedge $-1 $567 $268 $270 $408 forward $167 $-1 #
coedge $-1 $268 $567 $563 $568 forward $167 $-1 #
coedge $-1 $565 $271 $268 $405 forward $399 $-1 #
edge $-1 $411 -6.8329391883534516 $569 3.2762576692057248 $404 $570 forward 7 unknown #
coedge $-1 $571 $572 $269 $407 forward $561 $-1 #
edge $-1 $573 -95.751036579676025 $410 -84.181008539062887 $406 $574 forward 7 unknown #
edge $-1 $411 118.07229604306849 $573 139.31577501754819 $270 $575 forward 7 unknown #
coedge $-1 $271 $565 $571 $576 forward $399 $-1 #
vertex $-1 $272 $577 #
vertex $-1 $272 $578 #
straight-curve $-1 14.347329129358343 8.611279947927315 12.784804655450372 -1 0 0 I I #
coedge $-1 $413 $413 $-1 $579 reversed $275 $-1 #
edge $-1 $580 0 $580 6.2831853071796004 $276 $581 forward 7 unknown #
vertex $-1 $279 $582 #
ellipse-curve $-1 60.749747269664304 3.5566815191477268 6.9997906351438086 0.54463904215088732 0 0.83867056331134215 1.2580058449670133 0 -0.81695856322633098 1 I I #
face $-1 $-1 $429 $42 $-1 $583 reversed single #
loop $-1 $-1 $425 $280 #
plane-surface $-1 0 28.712008865085412 0 0 -1 0 0 0 -1 forward_v I I I I #
coedge $-1 $435 $434 $584 $585 forward $281 $-1 #
coedge $-1 $283 $293 $586 $587 forward $176 $-1 #
coedge $-1 $428 $289 $283 $423 reversed $429 $-1 #
edge $-1 $588 -28.712008865085412 $294 28.712008865085412 $422 $589 forward 7 unknown #
coedge $-1 $285 $284 $434 $590 forward $113 $-1 #
coedge $-1 $591 $584 $284 $426 reversed $418 $-1 #
edge $-1 $431 -69.657887508774081 $592 69.657887508774081 $425 $593 forward 7 unknown #
edge $-1 $436 -69.657887508774081 $430 69.657887508774081 $288 $594 forward 7 unknown #
coedge $-1 $286 $422 $591 $595 reversed $429 $-1 #
loop $-1 $-1 $289 $417 #
vertex $-1 $287 $596 #
vertex $-1 $287 $597 #
straight-curve $-1 69.657887508774081 0 12.784804655450367 0 1 0 I I #
straight-curve $-1 69.657887508774081 -28.712008865085412 0 0 0 -1 I I #
coedge $-1 $420 $291 $424 $590 reversed $281 $-1 #
coedge $-1 $291 $420 $293 $438 reversed $281 $-1 #
vertex $-1 $590 $598 #
straight-curve $-1 -69.657887508774081 -28.712008865085412 0 0 0 -1 I I #
edge $-1 $295 -28.712008865085412 $599 28.712008865085412 $435 $600 forward 7 unknown #
point $-1 69.657887508774081 -28.712008865085412 -12.784804655450367 #
point $-1 -69.657887508774081 -28.712008865085412 -12.784804655450367 #
face $-1 $-1 $454 $43 $-1 $601 reversed single #
plane-surface $-1 -65.632938997628884 -33.290484364375629 0 -1 0 0 0 0 1 forward_v I I I I #
coedge $-1 $602 $603 $604 $605 forward $298 $-1 #
coedge $-1 $604 $300 $453 $606 reversed $184 $-1 #
coedge $-1 $300 $604 $301 $448 reversed $184 $-1 #
edge $-1 $450 -12.784804655450367 $455 12.784804655450367 $300 $607 forward 7 unknown #
coedge $-1 $302 $301 $603 $608 forward $117 $-1 #
edge $-1 $450 28.712008865085412 $609 37.86895986366585 $445 $610 forward 7 unknown #
edge $-1 $611 -4.5784754992902208 $310 4.5784754992902208 $307 $612 forward 7 unknown #
vertex $-1 $448 $613 #
straight-curve $-1 0 -28.712008865085412 12.784804655450367 -1 0 0 I I #
coedge $-1 $614 $305 $308 $458 forward $454 $-1 #
coedge $-1 $305 $614 $444 $606 forward $454 $-1 #
loop $-1 $-1 $305 $441 #
vertex $-1 $446 $615 #
straight-curve $-1 0 -28.712008865085412 -12.784804655450367 1 0 0 I I #
coedge $-1 $308 $307 $616 $617 forward $309 $-1 #
edge $-1 $311 -4.5784754992902208 $618 4.5784754992902208 $308 $619 forward 7 unknown #
point $-1 -65.632938997628884 -28.712008865085409 12.784804655450367 #
point $-1 -65.632938997628884 -28.712008865085409 -12.784804655450367 #
face $-1 $-1 $620 $44 $-1 $621 reversed single #
loop $-1 $-1 $321 $313 #
plane-surface $-1 0 0 -12.784804655450367 0 0 1 1 0 0 forward_v I I I I #
coedge $-1 $622 $316 $623 $624 reversed $192 $-1 #
coedge $-1 $316 $622 $468 $625 reversed $192 $-1 #
coedge $-1 $324 $323 $316 $467 reversed $314 $-1 #
edge $-1 $626 -12.784804655450367 $627 12.784804655450367 $466 $628 forward 7 unknown #
coedge $-1 $318 $317 $465 $625 forward $121 $-1 #
edge $-1 $326 -4.5784754992902172 $626 4.5784754992902208 $324 $629 forward 7 unknown #
coedge $-1 $630 $474 $318 $471 reversed $620 $-1 #
edge $-1 $631 -37.86895986366585 $472 -28.712008865085412 $470 $632 forward 7 unknown #
vertex $-1 $475 $633 #
straight-curve $-1 0 28.712008865085412 12.784804655450367 1 0 0 I I #
coedge $-1 $470 $634 $320 $475 forward $620 $-1 #
edge $-1 $478 -12.784804655450367 $472 12.784804655450367 $474 $635 forward 7 unknown #
coedge $-1 $623 $321 $634 $636 forward $462 $-1 #
coedge $-1 $321 $623 $323 $480 forward $462 $-1 #
vertex $-1 $636 $637 #
straight-curve $-1 0 28.712008865085412 -12.784804655450367 -1 0 0 I I #
edge $-1 $627 -4.5784754992902208 $325 4.5784754992902172 $323 $638 forward 7 unknown #
point $-1 -65.632938997628884 28.712008865085412 -12.784804655450367 #
point $-1 -65.632938997628884 28.712008865085412 12.784804655450367 #
plane-surface $-1 0 0 12.784804655450367 0 0 1 1 0 0 forward_v I I I I #
coedge $-1 $494 $493 $486 $639 forward $329 $-1 #
coedge $-1 $486 $331 $333 $490 reversed $200 $-1 #
coedge $-1 $331 $485 $484 $639 reversed $200 $-1 #
coedge $-1 $339 $334 $331 $488 forward $340 $-1 #
edge $-1 $491 -18.931924589258585 $640 -15.278747712092255 $487 $641 forward 7 unknown #
coedge $-1 $333 $332 $494 $642 reversed $125 $-1 #
edge $-1 $643 2.0094122568606809e-014 $491 5.2589547285236753 $485 $644 forward 7 unknown #
vertex $-1 $335 $645 #
straight-curve $-1 -66.00471063160775 -6.1842854399148841 12.784804655450369 0 1 0 I I #
coedge $-1 $484 $336 $339 $498 reversed $329 $-1 #
coedge $-1 $336 $484 $489 $642 forward $329 $-1 #
vertex $-1 $337 $646 #
straight-curve $-1 -69.657887508774081 -15.406382572682009 52.889348616022602 0 0 1 I I #
straight-curve $-1 -69.657887508774095 -15.406382572682009 9.0018291677160533 -0.69465836192734942 0 -0.71933980857756763 I I #
edge $-1 $640 9.3307591869775273 $341 15.406382572682009 $493 $647 forward 7 unknown #
point $-1 -69.657887508774081 -15.406382572682009 12.784804655450367 #
point $-1 -66.00471063160775 -15.406382572682009 12.784804655450367 #
edge $-1 $648 1 $648 0 $344 $-1 forward 7 unknown #
vertex $-1 $345 $649 #
ellipse-curve $-1 -67.069326188452592 -13.670490176766442 10.157488270446189 -0.71933980857756763 0 0.69465836192734942 0.34732918096367471 0 0.35966990428878381 1 I I #
point $-1 -67.483969889227211 -13.670490176766442 11.252986815871981 #
edge $-1 $650 1 $650 0 $348 $-1 forward 7 unknown #
vertex $-1 $349 $651 #
ellipse-curve $-1 -67.069326188452592 -11.066651582893094 10.157488270446189 -0.71933980857756763 0 0.69465836192734942 0.34732918096367471 0 0.35966990428878381 1 I I #
point $-1 -67.483969889227211 -11.066651582893094 11.252986815871981 #
loop $-1 $-1 $360 $352 #
plane-surface $-1 -69.657887508774081 0 0 1 0 0 0 0 -1 forward_v I I I I #
coedge $-1 $512 $355 $357 $516 reversed $222 $-1 #
coedge $-1 $355 $511 $652 $653 reversed $222 $-1 #
coedge $-1 $363 $358 $355 $514 forward $353 $-1 #
edge $-1 $517 -18.931924589258585 $654 -15.278747712092255 $513 $655 forward 7 unknown #
coedge $-1 $357 $356 $520 $656 reversed $139 $-1 #
edge $-1 $657 2.0094122568606809e-014 $517 5.2589547285236753 $511 $658 forward 7 unknown #
vertex $-1 $359 $659 #
straight-curve $-1 -66.00471063160775 -1.7763568394002505e-015 12.784804655450369 0 1 0 I I #
coedge $-1 $652 $360 $363 $524 reversed $509 $-1 #
coedge $-1 $360 $652 $515 $656 forward $509 $-1 #
vertex $-1 $361 $660 #
straight-curve $-1 -69.657887508774081 -3.0378116928522436 52.889348616022602 0 0 1 I I #
straight-curve $-1 -69.657887508774095 -3.0378116928522436 9.0018291677160533 -0.69465836192734942 0 -0.71933980857756763 I I #
edge $-1 $654 -3.0378116928522365 $364 3.0378116928522436 $519 $661 forward 7 unknown #
point $-1 -69.657887508774081 -3.0378116928522436 12.784804655450367 #
point $-1 -66.00471063160775 -3.0378116928522436 12.784804655450367 #
edge $-1 $662 1 $662 0 $367 $-1 forward 7 unknown #
vertex $-1 $368 $663 #
ellipse-curve $-1 -67.069326188452592 -1.3019192969366777 10.157488270446189 -0.71933980857756763 0 0.69465836192734942 0.34732918096367471 0 0.35966990428878381 1 I I #
point $-1 -67.483969889227211 -1.3019192969366777 11.252986815871981 #
edge $-1 $664 1 $664 0 $371 $-1 forward 7 unknown #
vertex $-1 $372 $665 #
ellipse-curve $-1 -67.069326188452592 1.3019192969366706 10.157488270446189 -0.71933980857756763 0 0.69465836192734942 0.34732918096367471 0 0.35966990428878381 1 I I #
point $-1 -67.483969889227211 1.3019192969366706 11.252986815871981 #
loop $-1 $-1 $383 $375 #
plane-surface $-1 -69.657887508774081 0 0 1 0 0 0 0 -1 forward_v I I I I #
coedge $-1 $538 $378 $380 $542 reversed $244 $-1 #
coedge $-1 $378 $537 $666 $667 reversed $244 $-1 #
coedge $-1 $386 $381 $378 $540 forward $376 $-1 #
edge $-1 $543 -18.931924589258585 $668 -15.278747712092255 $539 $669 forward 7 unknown #
coedge $-1 $380 $379 $546 $670 reversed $153 $-1 #
edge $-1 $671 2.0094122568606809e-014 $543 5.2589547285236753 $537 $672 forward 7 unknown #
vertex $-1 $382 $673 #
straight-curve $-1 -66.00471063160775 6.1842854399148823 12.784804655450369 0 1 0 I I #
coedge $-1 $666 $383 $386 $550 reversed $535 $-1 #
coedge $-1 $383 $666 $541 $670 forward $535 $-1 #
vertex $-1 $384 $674 #
straight-curve $-1 -69.657887508774081 9.3307591869775237 52.889348616022602 0 0 1 I I #
straight-curve $-1 -69.657887508774095 9.3307591869775237 9.0018291677160533 -0.69465836192734942 0 -0.71933980857756763 I I #
edge $-1 $668 -15.406382572682006 $387 -9.3307591869775237 $545 $675 forward 7 unknown #
point $-1 -69.657887508774081 9.3307591869775237 12.784804655450367 #
point $-1 -66.00471063160775 9.3307591869775237 12.784804655450367 #
edge $-1 $676 1 $676 0 $390 $-1 forward 7 unknown #
vertex $-1 $391 $677 #
ellipse-curve $-1 -67.069326188452592 11.06665158289309 10.157488270446189 -0.71933980857756763 0 0.69465836192734942 0.34732918096367471 0 0.35966990428878381 1 I I #
point $-1 -67.483969889227211 11.06665158289309 11.252986815871981 #
edge $-1 $678 1 $678 0 $394 $-1 forward 7 unknown #
vertex $-1 $395 $679 #
ellipse-curve $-1 -67.069326188452592 13.670490176766439 10.157488270446189 -0.71933980857756763 0 0.69465836192734942 0.34732918096367471 0 0.35966990428878381 1 I I #
point $-1 -67.483969889227211 13.670490176766439 11.252986815871981 #
loop $-1 $-1 $406 $398 #
plane-surface $-1 69.657887508774081 0 0 -1 0 0 0 0 1 forward_v I I I I #
coedge $-1 $564 $401 $403 $568 reversed $266 $-1 #
coedge $-1 $401 $563 $680 $681 reversed $266 $-1 #
coedge $-1 $409 $404 $401 $566 forward $399 $-1 #
edge $-1 $569 37.494277901196199 $682 55.310558379415738 $565 $683 forward 7 unknown #
coedge $-1 $403 $402 $572 $684 reversed $167 $-1 #
edge $-1 $685 -139.31577501754819 $569 -118.07229604306849 $563 $686 forward 7 unknown #
vertex $-1 $405 $687 #
straight-curve $-1 51.841607030554556 1.7783407595738634 12.784804655450365 0 -1 0 I I #
coedge $-1 $680 $406 $409 $576 reversed $561 $-1 #
coedge $-1 $406 $680 $567 $684 forward $561 $-1 #
vertex $-1 $407 $688 #
straight-curve $-1 69.657887508774081 8.611279947927315 96.96581319451326 0 0 1 I I #
straight-curve $-1 -47.182152003349259 8.611279947927315 77.091586876903193 0.83867056331134215 0 -0.54463904215088732 I I #
edge $-1 $682 -1.4979169096318614 $410 8.611279947927315 $571 $689 forward 7 unknown #
point $-1 69.657887508774081 8.611279947927315 12.784804655450367 #
point $-1 51.841607030554542 8.611279947927315 12.784804655450372 #
edge $-1 $690 1 $690 0 $413 $-1 forward 7 unknown #
vertex $-1 $414 $691 #
ellipse-curve $-1 57.867267536648711 3.5566815191477268 2.5611611680480775 0.54463904215088732 0 0.83867056331134215 1.2580058449670133 0 -0.81695856322633098 1 I I #
point $-1 62.007753114631335 3.5566815191477268 6.1828320719174927 #
plane-surface $-1 69.657887508774081 0 0 -1 0 0 0 0 1 forward_v I I I I #
coedge $-1 $425 $586 $420 $585 reversed $418 $-1 #
edge $-1 $592 -12.784804655450367 $599 12.784804655450367 $584 $692 forward 7 unknown #
coedge $-1 $584 $591 $421 $587 reversed $418 $-1 #
edge $-1 $599 -69.657887508774081 $588 69.657887508774081 $586 $693 forward 7 unknown #
vertex $-1 $423 $694 #
straight-curve $-1 69.657887508774081 0 -12.784804655450367 0 -1 0 I I #
edge $-1 $592 -28.712008865085412 $436 28.712008865085412 $434 $695 forward 7 unknown #
coedge $-1 $586 $425 $428 $595 forward $418 $-1 #
vertex $-1 $426 $696 #
straight-curve $-1 0 28.712008865085412 12.784804655450367 -1 0 0 I I #
straight-curve $-1 0 -28.712008865085412 12.784804655450367 1 0 0 I I #
edge $-1 $431 -12.784804655450367 $588 12.784804655450367 $428 $697 forward 7 unknown #
point $-1 69.657887508774081 -28.712008865085412 12.784804655450367 #
point $-1 69.657887508774081 28.712008865085412 12.784804655450367 #
point $-1 -69.657887508774081 -28.712008865085412 12.784804655450367 #
vertex $-1 $587 $698 #
straight-curve $-1 -69.657887508774081 0 -12.784804655450367 0 1 0 I I #
plane-surface $-1 0 0 -12.784804655450367 0 0 1 1 0 0 forward_v I I I I #
coedge $-1 $616 $443 $614 $699 reversed $298 $-1 #
coedge $-1 $443 $616 $447 $608 reversed $298 $-1 #
coedge $-1 $445 $444 $443 $605 reversed $184 $-1 #
edge $-1 $609 -12.784804655450367 $700 12.784804655450367 $604 $701 forward 7 unknown #
edge $-1 $700 -37.86895986366585 $455 -28.712008865085412 $444 $702 forward 7 unknown #
straight-curve $-1 -69.657887508774081 -28.712008865085412 0 0 0 -1 I I #
edge $-1 $609 -2.0124742555725987 $611 2.0124742555725987 $603 $703 forward 7 unknown #
vertex $-1 $448 $704 #
straight-curve $-1 -69.657887508774081 0 12.784804655450367 0 -1 0 I I #
vertex $-1 $449 $705 #
straight-curve $-1 -65.632938997628884 -33.290484364375629 12.784804655450367 0 1 0 I I #
point $-1 -69.657887508774081 -28.712008865085412 12.784804655450367 #
coedge $-1 $453 $452 $602 $699 forward $454 $-1 #
point $-1 -69.657887508774081 -28.712008865085412 -12.784804655450367 #
coedge $-1 $603 $602 $457 $617 reversed $298 $-1 #
edge $-1 $611 -12.784804655450367 $618 12.784804655450367 $457 $706 forward 7 unknown #
vertex $-1 $617 $707 #
straight-curve $-1 -65.632938997628884 -33.290484364375629 -12.784804655450367 0 -1 0 I I #
loop $-1 $-1 $474 $461 #
plane-surface $-1 -69.657887508774081 0 0 1 0 0 0 0 -1 forward_v I I I I #
coedge $-1 $465 $464 $630 $708 reversed $192 $-1 #
coedge $-1 $477 $476 $464 $624 forward $462 $-1 #
edge $-1 $709 -2.0124742555725987 $627 2.0124742555725987 $464 $710 forward 7 unknown #
edge $-1 $626 -2.0124742555725987 $631 2.0124742555725987 $465 $711 forward 7 unknown #
vertex $-1 $469 $712 #
vertex $-1 $480 $713 #
straight-curve $-1 -65.632938997628884 37.86895986366585 0 0 0 -1 I I #
straight-curve $-1 -65.632938997628884 33.290484364375629 12.784804655450367 0 1 0 I I #
coedge $-1 $634 $470 $622 $708 forward $620 $-1 #
vertex $-1 $625 $714 #
straight-curve $-1 -69.657887508774081 0 12.784804655450367 0 -1 0 I I #
point $-1 -69.657887508774081 28.712008865085412 12.784804655450367 #
coedge $-1 $474 $630 $476 $636 reversed $620 $-1 #
straight-curve $-1 -69.657887508774081 28.712008865085412 0 0 0 1 I I #
edge $-1 $478 -4.5784754992902172 $709 4.5784754992902208 $634 $715 forward 7 unknown #
point $-1 -69.657887508774081 28.712008865085412 -12.784804655450367 #
straight-curve $-1 -65.632938997628884 33.290484364375629 -12.784804655450367 0 -1 0 I I #
edge $-1 $640 40.104543960572236 $643 43.887519448306534 $484 $716 forward 7 unknown #
vertex $-1 $498 $717 #
straight-curve $-1 -84.936635220866336 -9.3307591869775273 12.784804655450365 -1 0 0 I I #
edge $-1 $643 3.1464737470626432 $495 9.2220971327671251 $494 $718 forward 7 unknown #
vertex $-1 $642 $719 #
straight-curve $-1 -69.657887508774095 -9.3307591869775273 9.0018291677160533 0.69465836192734942 0 0.71933980857756763 I I #
point $-1 -66.00471063160775 -9.3307591869775273 12.784804655450367 #
point $-1 -69.657887508774081 -15.406382572682009 9.0018291677160676 #
straight-curve $-1 -69.657887508774081 0 12.784804655450367 0 -1 0 I I #
vertex $-1 $501 $720 #
point $-1 -66.721997007488923 -13.670490176766442 10.517158174734972 #
vertex $-1 $505 $721 #
point $-1 -66.721997007488923 -11.066651582893094 10.517158174734972 #
coedge $-1 $520 $519 $512 $653 forward $509 $-1 #
edge $-1 $654 40.104543960572236 $657 43.887519448306534 $652 $722 forward 7 unknown #
vertex $-1 $524 $723 #
straight-curve $-1 -84.936635220866336 3.0378116928522365 12.784804655450365 -1 0 0 I I #
edge $-1 $657 -3.0378116928522383 $521 3.0378116928522418 $520 $724 forward 7 unknown #
vertex $-1 $656 $725 #
straight-curve $-1 -69.657887508774095 3.0378116928522365 9.0018291677160533 0.69465836192734942 0 0.71933980857756763 I I #
point $-1 -66.00471063160775 3.0378116928522365 12.784804655450367 #
point $-1 -69.657887508774081 -3.0378116928522436 9.0018291677160676 #
straight-curve $-1 -69.657887508774081 0 12.784804655450367 0 -1 0 I I #
vertex $-1 $527 $726 #
point $-1 -66.721997007488923 -1.3019192969366777 10.517158174734972 #
vertex $-1 $531 $727 #
point $-1 -66.721997007488923 1.3019192969366706 10.517158174734972 #
coedge $-1 $546 $545 $538 $667 forward $535 $-1 #
edge $-1 $668 40.104543960572236 $671 43.887519448306534 $666 $728 forward 7 unknown #
vertex $-1 $550 $729 #
straight-curve $-1 -84.936635220866336 15.406382572682006 12.784804655450365 -1 0 0 I I #
edge $-1 $671 -9.2220971327671233 $547 -3.1464737470626414 $546 $730 forward 7 unknown #
vertex $-1 $670 $731 #
straight-curve $-1 -69.657887508774095 15.406382572682006 9.0018291677160533 0.69465836192734942 0 0.71933980857756763 I I #
point $-1 -66.00471063160775 15.406382572682006 12.784804655450367 #
point $-1 -69.657887508774081 9.3307591869775237 9.0018291677160676 #
straight-curve $-1 -69.657887508774081 0 12.784804655450367 0 -1 0 I I #
vertex $-1 $553 $732 #
point $-1 -66.721997007488923 11.06665158289309 10.517158174734972 #
vertex $-1 $557 $733 #
point $-1 -66.721997007488923 13.670490176766439 10.517158174734972 #
coedge $-1 $572 $571 $564 $681 forward $561 $-1 #
edge $-1 $682 84.181008539062887 $685 95.751036579676025 $680 $734 forward 7 unknown #
vertex $-1 $576 $735 #
straight-curve $-1 14.347329129358343 -1.4979169096318614 12.784804655450372 1 0 0 I I #
edge $-1 $685 -3.2762576692057248 $573 6.8329391883534516 $572 $736 forward 7 unknown #
vertex $-1 $684 $737 #
straight-curve $-1 -47.182152003349259 -1.4979169096318614 77.091586876903193 -0.83867056331134215 0 0.54463904215088732 I I #
point $-1 51.841607030554542 -1.4979169096318614 12.784804655450372 #
point $-1 69.657887508774095 8.611279947927315 1.2147766148372341 #
straight-curve $-1 69.657887508774081 0 12.784804655450367 0 1 0 I I #
vertex $-1 $579 $738 #
point $-1 59.12527338161572 3.5566815191477268 1.7442026048217465 #
straight-curve $-1 -69.657887508774081 28.712008865085412 0 0 0 -1 I I #
straight-curve $-1 0 28.712008865085412 -12.784804655450367 1 0 0 I I #
point $-1 69.657887508774081 28.712008865085412 -12.784804655450367 #
straight-curve $-1 -69.657887508774081 0 12.784804655450367 0 -1 0 I I #
point $-1 -69.657887508774081 28.712008865085412 12.784804655450367 #
straight-curve $-1 69.657887508774081 28.712008865085412 0 0 0 -1 I I #
point $-1 -69.657887508774081 28.712008865085412 -12.784804655450367 #
edge $-1 $618 -2.0124742555725987 $700 2.0124742555725987 $602 $739 forward 7 unknown #
vertex $-1 $606 $740 #
straight-curve $-1 -69.657887508774081 -37.86895986366585 0 0 0 -1 I I #
straight-curve $-1 -69.657887508774081 0 -12.784804655450367 0 1 0 I I #
straight-curve $-1 -67.645413253201482 -37.86895986366585 12.784804655450367 1 0 0 I I #
point $-1 -69.657887508774081 -37.86895986366585 12.784804655450367 #
point $-1 -65.632938997628884 -37.86895986366585 12.784804655450367 #
straight-curve $-1 -65.632938997628884 -37.86895986366585 0 0 0 -1 I I #
point $-1 -65.632938997628884 -37.86895986366585 -12.784804655450367 #
edge $-1 $631 -12.784804655450367 $709 12.784804655450367 $622 $741 forward 7 unknown #
vertex $-1 $624 $742 #
straight-curve $-1 -67.645413253201482 37.86895986366585 -12.784804655450367 1 0 0 I I #
straight-curve $-1 -67.645413253201482 37.86895986366585 12.784804655450367 -1 0 0 I I #
point $-1 -65.632938997628884 37.86895986366585 12.784804655450367 #
point $-1 -65.632938997628884 37.86895986366585 -12.784804655450367 #
point $-1 -69.657887508774081 37.86895986366585 12.784804655450367 #
straight-curve $-1 -69.657887508774081 33.290484364375629 -12.784804655450367 0 1 0 I I #
straight-curve $-1 -69.657887508774081 -9.3307591869775273 52.889348616022602 0 0 -1 I I #
point $-1 -69.657887508774081 -9.3307591869775273 12.784804655450367 #
straight-curve $-1 -69.657887508774081 -6.1842854399148841 9.001829167716064 0 -1 0 I I #
point $-1 -69.657887508774081 -9.3307591869775273 9.0018291677160676 #
point $-1 -66.709656284163813 -13.670490176766442 9.8101590894825126 #
point $-1 -66.709656284163813 -11.066651582893094 9.8101590894825126 #
straight-curve $-1 -69.657887508774081 3.0378116928522365 52.889348616022602 0 0 -1 I I #
point $-1 -69.657887508774081 3.0378116928522365 12.784804655450367 #
straight-curve $-1 -69.657887508774081 -1.7763568394002505e-015 9.001829167716064 0 -1 0 I I #
point $-1 -69.657887508774081 3.0378116928522365 9.0018291677160676 #
point $-1 -66.709656284163813 -1.3019192969366777 9.8101590894825126 #
point $-1 -66.709656284163813 1.3019192969366706 9.8101590894825126 #
straight-curve $-1 -69.657887508774081 15.406382572682006 52.889348616022602 0 0 -1 I I #
point $-1 -69.657887508774081 15.406382572682006 12.784804655450367 #
straight-curve $-1 -69.657887508774081 6.1842854399148823 9.001829167716064 0 -1 0 I I #
point $-1 -69.657887508774081 15.406382572682006 9.0018291677160676 #
point $-1 -66.709656284163813 11.06665158289309 9.8101590894825126 #
point $-1 -66.709656284163813 13.670490176766439 9.8101590894825126 #
straight-curve $-1 69.657887508774081 -1.4979169096318614 96.96581319451326 0 0 -1 I I #
point $-1 69.657887508774081 -1.4979169096318614 12.784804655450367 #
straight-curve $-1 69.657887508774081 1.7783407595738634 1.2147766148372341 0 1 0 I I #
point $-1 69.657887508774095 -1.4979169096318614 1.2147766148372341 #
point $-1 57.050308973422375 3.5566815191477268 1.303155323081064 #
straight-curve $-1 -67.645413253201482 -37.86895986366585 -12.784804655450367 -1 0 0 I I #
point $-1 -69.657887508774081 -37.86895986366585 -12.784804655450367 #
straight-curve $-1 -69.657887508774081 37.86895986366585 0 0 0 -1 I I #
point $-1 -69.657887508774081 37.86895986366585 -12.784804655450367 #
End-of-ACIS-data 