500 0 9 0           
7 Unknown 11 ACIS 5.0 NT 24 Thu Mar 25 19:06:18 1999 
-1 9.9999999999999995e-007 1e-010 
body $-1 $9 $-1 $10 #
body $-1 $11 $-1 $12 #
body $-1 $13 $-1 $14 #
body $-1 $15 $-1 $16 #
body $-1 $17 $-1 $18 #
body $-1 $19 $-1 $20 #
body $-1 $21 $-1 $22 #
body $-1 $23 $-1 $24 #
body $-1 $25 $-1 $26 #
lump $-1 $-1 $27 $0 #
transform $-1 1 0 0 0 1 0 0 0 1 68.908352916043583 46.938097946577635 11.775708309269739 1 rotate no_reflect no_shear #
lump $-1 $-1 $28 $1 #
transform $-1 1 0 0 0 1 0 0 0 1 68.908352916043583 46.938097946577635 11.775708309269739 1 rotate no_reflect no_shear #
lump $-1 $-1 $29 $2 #
transform $-1 1 0 0 0 1 0 0 0 1 68.908352916043583 46.938097946577635 11.775708309269739 1 rotate no_reflect no_shear #
lump $-1 $-1 $30 $3 #
transform $-1 1 0 0 0 1 0 0 0 1 68.908352916043583 46.938097946577635 11.775708309269739 1 rotate no_reflect no_shear #
lump $-1 $-1 $31 $4 #
transform $-1 1 0 0 0 1 0 0 0 1 68.908352916043583 46.938097946577635 11.775708309269739 1 rotate no_reflect no_shear #
lump $-1 $-1 $32 $5 #
transform $-1 1 0 0 0 1 0 0 0 1 68.908352916043583 46.938097946577635 11.775708309269739 1 rotate no_reflect no_shear #
lump $-1 $-1 $33 $6 #
transform $-1 1 0 0 0 1 0 0 0 1 68.908352916043583 46.938097946577635 11.775708309269739 1 rotate no_reflect no_shear #
lump $-1 $-1 $34 $7 #
transform $-1 1 0 0 0 1 0 0 0 1 68.908352916043583 46.938097946577635 11.775708309269739 1 rotate no_reflect no_shear #
lump $-1 $-1 $35 $8 #
transform $-1 1 0 0 0 1 0 0 0 1 68.908352916043583 46.938097946577635 11.775708309269739 1 rotate no_reflect no_shear #
shell $-1 $-1 $-1 $36 $-1 $9 #
shell $-1 $-1 $-1 $37 $-1 $11 #
shell $-1 $-1 $-1 $38 $-1 $13 #
shell $-1 $-1 $-1 $39 $-1 $15 #
shell $-1 $-1 $-1 $40 $-1 $17 #
shell $-1 $-1 $-1 $41 $-1 $19 #
shell $-1 $-1 $-1 $42 $-1 $21 #
shell $-1 $-1 $-1 $43 $-1 $23 #
shell $-1 $-1 $-1 $44 $-1 $25 #
face $-1 $45 $46 $27 $-1 $47 forward single #
face $-1 $48 $49 $28 $-1 $50 forward single #
face $-1 $51 $52 $29 $-1 $53 reversed single #
face $-1 $54 $55 $30 $-1 $56 forward single #
face $-1 $57 $58 $31 $-1 $59 forward single #
face $-1 $60 $61 $32 $-1 $62 reversed single #
face $-1 $63 $64 $33 $-1 $65 forward single #
face $-1 $66 $67 $34 $-1 $68 forward single #
face $-1 $69 $70 $35 $-1 $71 forward single #
face $-1 $72 $73 $27 $-1 $74 reversed single #
loop $-1 $-1 $75 $36 #
plane-surface $-1 0 0 11.775708309269739 0 0 1 1 0 0 forward_v I I I I #
face $-1 $76 $77 $28 $-1 $78 forward single #
loop $-1 $-1 $79 $37 #
plane-surface $-1 0 -46.938097946577635 0 0 1 0 0 0 1 forward_v I I I I #
face $-1 $80 $81 $29 $-1 $82 reversed single #
loop $-1 $-1 $83 $38 #
plane-surface $-1 -153.75679041719019 -12.286528000547666 116.33680267135992 0 1 0 -0.61566148304635926 0 0.78801074757464917 forward_v I I I I #
face $-1 $84 $85 $30 $-1 $86 forward single #
loop $-1 $87 $88 $39 #
cone-surface $-1 -65.614272405897921 -5.8493126375856406 8.8487280233959904 0.61566148304635926 0 -0.78801074757464917 0.78801074757464917 0 0.61566148304635926 1 I I 0 1 1 forward I I I I #
face $-1 $89 $90 $31 $-1 $91 forward single #
loop $-1 $92 $93 $40 #
cone-surface $-1 -65.614272405897921 3.8065104068573916 8.8487280233959904 0.61566148304635926 0 -0.78801074757464917 0.78801074757464917 0 0.61566148304635926 1 I I 0 1 1 forward I I I I #
face $-1 $94 $95 $32 $-1 $96 reversed single #
loop $-1 $-1 $97 $41 #
plane-surface $-1 51.921504163542451 5.7582256357670865 200.6030398407319 0 -1 0 -0.64278761758704617 0 -0.76604443648966558 forward_v I I I I #
face $-1 $98 $99 $33 $-1 $100 forward single #
loop $-1 $101 $102 $42 #
cone-surface $-1 64.935479342126044 -5.1663751791135795 8.161744411799873 -0.64278761758704617 0 -0.76604443648966558 0.76604443648966558 0 -0.64278761758704617 1 I I 0 1 1 forward I I I I #
face $-1 $103 $104 $34 $-1 $105 forward single #
loop $-1 $106 $107 $43 #
cone-surface $-1 64.935479342126044 -1.0696498735333293 8.161744411799873 -0.64278761758704617 0 -0.76604443648966558 0.76604443648966558 0 -0.64278761758704617 1 I I 0 1 1 forward I I I I #
face $-1 $108 $109 $35 $-1 $110 forward single #
loop $-1 $111 $112 $44 #
cone-surface $-1 64.935479342126044 3.0270754320469209 8.161744411799873 -0.64278761758704617 0 -0.76604443648966558 0.76604443648966558 0 -0.64278761758704617 1 I I 0 1 1 forward I I I I #
face $-1 $113 $114 $27 $-1 $115 reversed single #
loop $-1 $-1 $116 $45 #
plane-surface $-1 0 0 -11.775708309269739 0 0 1 1 0 0 forward_v I I I I #
coedge $-1 $117 $118 $119 $120 forward $46 $-1 #
face $-1 $121 $122 $28 $-1 $123 reversed single #
loop $-1 $-1 $124 $48 #
plane-surface $-1 0 0 11.775708309269739 0 0 1 1 0 0 forward_v I I I I #
coedge $-1 $125 $126 $127 $128 forward $49 $-1 #
face $-1 $129 $130 $29 $-1 $131 reversed single #
loop $-1 $-1 $132 $51 #
plane-surface $-1 -68.908352916043569 -1.0214011153641351 7.735757280341403 -0.61566148304635926 0 0.78801074757464917 0.78801074757464917 0 0.61566148304635926 forward_v I I I I #
coedge $-1 $133 $134 $135 $136 reversed $52 $-1 #
face $-1 $-1 $137 $30 $-1 $138 forward single #
loop $-1 $139 $140 $54 #
cone-surface $-1 -64.597811858988422 -5.8493126375856406 7.5477178781990801 0.61566148304635926 0 -0.78801074757464917 0.39400537378732459 0 0.30783074152317963 1 I I -0.70710678118654746 0.70710678118654746 0.5 forward I I I I #
loop $-1 $-1 $141 $39 #
coedge $-1 $88 $88 $142 $143 reversed $55 $-1 #
face $-1 $-1 $144 $31 $-1 $145 forward single #
loop $-1 $146 $147 $57 #
cone-surface $-1 -64.597811858988422 3.8065104068573916 7.5477178781990801 0.61566148304635926 0 -0.78801074757464917 0.39400537378732459 0 0.30783074152317963 1 I I -0.70710678118654746 0.70710678118654746 0.5 forward I I I I #
loop $-1 $-1 $148 $40 #
coedge $-1 $93 $93 $149 $150 reversed $58 $-1 #
face $-1 $151 $152 $32 $-1 $153 reversed single #
loop $-1 $-1 $154 $60 #
plane-surface $-1 -36.665367841959636 -1.0696498735333293 95.029319082728676 0.64278761758704617 0 0.76604443648966558 0.76604443648966558 0 -0.64278761758704617 forward_v I I I I #
coedge $-1 $155 $156 $157 $158 reversed $61 $-1 #
face $-1 $-1 $159 $33 $-1 $160 forward single #
loop $-1 $161 $162 $63 #
cone-surface $-1 63.819178509618013 -5.1663751791135795 6.8313889121067533 -0.64278761758704617 0 -0.76604443648966558 0.38302221824483279 0 -0.32139380879352308 1 I I -0.70710678118654746 0.70710678118654746 0.5 forward I I I I #
loop $-1 $-1 $163 $42 #
coedge $-1 $102 $102 $164 $165 reversed $64 $-1 #
face $-1 $-1 $166 $34 $-1 $167 forward single #
loop $-1 $168 $169 $66 #
cone-surface $-1 63.819178509618013 -1.0696498735333293 6.8313889121067533 -0.64278761758704617 0 -0.76604443648966558 0.38302221824483279 0 -0.32139380879352308 1 I I -0.70710678118654746 0.70710678118654746 0.5 forward I I I I #
loop $-1 $-1 $170 $43 #
coedge $-1 $107 $107 $171 $172 reversed $67 $-1 #
face $-1 $-1 $173 $35 $-1 $174 forward single #
loop $-1 $175 $176 $69 #
cone-surface $-1 63.819178509618013 3.0270754320469209 6.8313889121067533 -0.64278761758704617 0 -0.76604443648966558 0.38302221824483279 0 -0.32139380879352308 1 I I -0.70710678118654746 0.70710678118654746 0.5 forward I I I I #
loop $-1 $-1 $177 $44 #
coedge $-1 $112 $112 $178 $179 reversed $70 $-1 #
face $-1 $180 $181 $27 $-1 $182 reversed single #
loop $-1 $-1 $183 $72 #
plane-surface $-1 0 -46.938097946577635 0 0 1 0 0 0 1 forward_v I I I I #
coedge $-1 $184 $185 $186 $187 forward $73 $-1 #
coedge $-1 $188 $75 $189 $190 forward $46 $-1 #
coedge $-1 $75 $188 $191 $192 forward $46 $-1 #
coedge $-1 $193 $194 $75 $120 reversed $195 $-1 #
edge $-1 $196 -46.938097946577635 $197 46.938097946577635 $119 $198 forward 7 unknown #
face $-1 $199 $200 $28 $-1 $201 reversed single #
loop $-1 $-1 $202 $76 #
plane-surface $-1 -68.908352916043583 0 0 1 0 0 0 0 -1 forward_v I I I I #
coedge $-1 $203 $204 $126 $205 forward $77 $-1 #
coedge $-1 $206 $79 $207 $208 reversed $49 $-1 #
coedge $-1 $79 $206 $124 $205 reversed $49 $-1 #
coedge $-1 $209 $210 $79 $128 reversed $211 $-1 #
edge $-1 $212 -11.775708309269739 $213 11.775708309269739 $127 $214 forward 7 unknown #
face $-1 $215 $216 $29 $-1 $217 reversed single #
loop $-1 $-1 $218 $80 #
plane-surface $-1 -153.75679041719019 10.243725769819395 116.33680267135992 0 -1 0 0.61566148304635926 0 -0.78801074757464917 forward_v I I I I #
coedge $-1 $219 $220 $221 $222 reversed $81 $-1 #
coedge $-1 $134 $83 $223 $224 reversed $52 $-1 #
coedge $-1 $83 $133 $219 $225 reversed $52 $-1 #
coedge $-1 $221 $226 $83 $136 forward $227 $-1 #
edge $-1 $228 7.9700422925515113 $229 13.140943702070224 $135 $230 forward 7 unknown #
loop $-1 $-1 $142 $84 #
plane-surface $-1 -68.908352916043569 -1.0214011153641351 7.735757280341403 -0.61566148304635926 0 0.78801074757464917 0.78801074757464917 0 0.61566148304635926 forward_v I I I I #
loop $-1 $-1 $231 $54 #
coedge $-1 $140 $140 $141 $232 reversed $85 $-1 #
coedge $-1 $141 $141 $140 $232 forward $87 $-1 #
coedge $-1 $142 $142 $88 $143 forward $137 $-1 #
edge $-1 $233 0 $233 6.2831853071796004 $142 $234 forward 7 unknown #
loop $-1 $-1 $149 $89 #
plane-surface $-1 -68.908352916043569 -1.0214011153641351 7.735757280341403 -0.61566148304635926 0 0.78801074757464917 0.78801074757464917 0 0.61566148304635926 forward_v I I I I #
loop $-1 $-1 $235 $57 #
coedge $-1 $147 $147 $148 $236 reversed $90 $-1 #
coedge $-1 $148 $148 $147 $236 forward $92 $-1 #
coedge $-1 $149 $149 $93 $150 forward $144 $-1 #
edge $-1 $237 0 $237 6.2831853071796004 $149 $238 forward 7 unknown #
face $-1 $239 $240 $32 $-1 $241 forward single #
loop $-1 $-1 $242 $94 #
plane-surface $-1 51.921504163542451 -7.8975253828337451 200.6030398407319 0 1 0 0.64278761758704617 0 0.76604443648966558 forward_v I I I I #
coedge $-1 $243 $244 $245 $246 reversed $95 $-1 #
coedge $-1 $156 $97 $247 $248 reversed $61 $-1 #
coedge $-1 $97 $155 $243 $249 reversed $61 $-1 #
coedge $-1 $245 $250 $97 $158 forward $240 $-1 #
edge $-1 $251 -42.947600834272357 $252 -36.591667733866281 $157 $253 forward 7 unknown #
loop $-1 $-1 $164 $98 #
plane-surface $-1 -36.665367841959636 -1.0696498735333293 95.029319082728676 0.64278761758704617 0 0.76604443648966558 0.76604443648966558 0 -0.64278761758704617 forward_v I I I I #
loop $-1 $-1 $254 $63 #
coedge $-1 $162 $162 $163 $255 reversed $99 $-1 #
coedge $-1 $163 $163 $162 $255 forward $101 $-1 #
coedge $-1 $164 $164 $102 $165 forward $159 $-1 #
edge $-1 $256 0 $256 6.2831853071796004 $164 $257 forward 7 unknown #
loop $-1 $-1 $171 $103 #
plane-surface $-1 -36.665367841959636 -1.0696498735333293 95.029319082728676 0.64278761758704617 0 0.76604443648966558 0.76604443648966558 0 -0.64278761758704617 forward_v I I I I #
loop $-1 $-1 $258 $66 #
coedge $-1 $169 $169 $170 $259 reversed $104 $-1 #
coedge $-1 $170 $170 $169 $259 forward $106 $-1 #
coedge $-1 $171 $171 $107 $172 forward $166 $-1 #
edge $-1 $260 0 $260 6.2831853071796004 $171 $261 forward 7 unknown #
loop $-1 $-1 $178 $108 #
plane-surface $-1 -36.665367841959636 -1.0696498735333293 95.029319082728676 0.64278761758704617 0 0.76604443648966558 0.76604443648966558 0 -0.64278761758704617 forward_v I I I I #
loop $-1 $-1 $262 $69 #
coedge $-1 $176 $176 $177 $263 reversed $109 $-1 #
coedge $-1 $177 $177 $176 $263 forward $111 $-1 #
coedge $-1 $178 $178 $112 $179 forward $173 $-1 #
edge $-1 $264 0 $264 6.2831853071796004 $178 $265 forward 7 unknown #
face $-1 $266 $267 $27 $-1 $268 reversed single #
loop $-1 $-1 $269 $113 #
plane-surface $-1 -68.908352916043583 0 0 1 0 0 0 0 -1 forward_v I I I I #
coedge $-1 $270 $191 $271 $272 forward $114 $-1 #
coedge $-1 $273 $116 $270 $274 forward $73 $-1 #
coedge $-1 $116 $273 $275 $276 forward $73 $-1 #
coedge $-1 $194 $193 $116 $187 reversed $195 $-1 #
edge $-1 $277 -46.938097946577635 $278 46.938097946577635 $186 $279 forward 7 unknown #
coedge $-1 $118 $117 $280 $281 forward $46 $-1 #
coedge $-1 $282 $283 $117 $190 reversed $267 $-1 #
edge $-1 $197 -68.908352916043583 $284 68.908352916043583 $189 $285 forward 7 unknown #
coedge $-1 $183 $286 $118 $192 reversed $114 $-1 #
edge $-1 $287 -68.908352916043583 $196 68.908352916043583 $191 $288 forward 7 unknown #
coedge $-1 $186 $119 $286 $289 forward $195 $-1 #
coedge $-1 $119 $186 $282 $290 reversed $195 $-1 #
loop $-1 $-1 $193 $266 #
vertex $-1 $120 $291 #
vertex $-1 $120 $292 #
straight-curve $-1 68.908352916043583 0 11.775708309269739 0 1 0 I I #
face $-1 $293 $211 $28 $-1 $294 reversed single #
loop $-1 $-1 $295 $121 #
plane-surface $-1 -67.111862902700636 -56.571049252235319 0 0 1 0 0 0 1 forward_v I I I I #
coedge $-1 $296 $297 $206 $298 forward $122 $-1 #
coedge $-1 $299 $124 $297 $300 forward $77 $-1 #
coedge $-1 $124 $299 $209 $301 forward $77 $-1 #
edge $-1 $212 65.31537288935769 $302 68.908352916043583 $124 $303 forward 7 unknown #
coedge $-1 $126 $125 $202 $298 reversed $49 $-1 #
coedge $-1 $304 $305 $125 $208 forward $306 $-1 #
edge $-1 $307 -68.908352916043583 $213 -65.31537288935769 $207 $308 forward 7 unknown #
coedge $-1 $309 $127 $204 $301 reversed $211 $-1 #
coedge $-1 $127 $309 $304 $310 reversed $211 $-1 #
loop $-1 $-1 $309 $199 #
vertex $-1 $205 $311 #
vertex $-1 $310 $312 #
straight-curve $-1 -65.31537288935769 -46.938097946577635 0 0 0 -1 I I #
face $-1 $-1 $227 $29 $-1 $313 forward single #
loop $-1 $-1 $314 $129 #
plane-surface $-1 -68.908352916043583 0 0 1 0 0 0 0 -1 forward_v I I I I #
coedge $-1 $315 $316 $317 $318 reversed $130 $-1 #
coedge $-1 $319 $132 $134 $225 forward $81 $-1 #
coedge $-1 $132 $319 $315 $320 forward $81 $-1 #
coedge $-1 $317 $135 $132 $222 forward $227 $-1 #
edge $-1 $229 -11.775827442865598 $321 10.754426327501463 $221 $322 forward 7 unknown #
coedge $-1 $323 $324 $133 $224 forward $216 $-1 #
edge $-1 $325 -50.432644055338571 $228 -46.392693026410221 $223 $326 forward 7 unknown #
edge $-1 $229 -6.5619681272543211 $325 1.830693040787162e-014 $134 $327 forward 7 unknown #
coedge $-1 $135 $317 $323 $328 forward $227 $-1 #
loop $-1 $-1 $317 $215 #
vertex $-1 $224 $329 #
vertex $-1 $136 $330 #
straight-curve $-1 -76.878395208595094 -12.286528000547666 11.775708309269739 1 0 0 I I #
coedge $-1 $231 $231 $-1 $331 reversed $139 $-1 #
edge $-1 $332 0 $332 6.2831853071796004 $140 $333 forward 7 unknown #
vertex $-1 $143 $334 #
ellipse-curve $-1 -66.32290221128423 -5.8493126375856406 9.7557327948055637 -0.61566148304635926 0 0.78801074757464917 0.78801074757464917 0 0.61566148304635926 1 I I #
coedge $-1 $235 $235 $-1 $335 reversed $146 $-1 #
edge $-1 $336 0 $336 6.2831853071796004 $147 $337 forward 7 unknown #
vertex $-1 $150 $338 #
ellipse-curve $-1 -66.32290221128423 3.8065104068573916 9.7557327948055637 -0.61566148304635926 0 0.78801074757464917 0.78801074757464917 0 0.61566148304635926 1 I I #
face $-1 $-1 $339 $32 $-1 $340 reversed single #
loop $-1 $-1 $157 $151 #
plane-surface $-1 0 0 11.775708309269739 0 0 1 1 0 0 forward_v I I I I #
coedge $-1 $341 $342 $343 $344 reversed $152 $-1 #
coedge $-1 $345 $154 $156 $249 forward $95 $-1 #
coedge $-1 $154 $345 $341 $346 forward $95 $-1 #
coedge $-1 $343 $157 $154 $246 forward $240 $-1 #
edge $-1 $252 -6.2930505725337511 $347 7.3627004460670804 $245 $348 forward 7 unknown #
coedge $-1 $349 $350 $155 $248 forward $339 $-1 #
edge $-1 $351 -93.859072843139359 $251 -88.525811611096202 $247 $352 forward 7 unknown #
edge $-1 $252 129.51962436050621 $351 137.81670583208717 $156 $353 forward 7 unknown #
coedge $-1 $157 $343 $349 $354 forward $240 $-1 #
vertex $-1 $158 $355 #
vertex $-1 $158 $356 #
straight-curve $-1 25.960752081771226 5.7582256357670865 11.775708309269731 -1 0 0 I I #
coedge $-1 $254 $254 $-1 $357 reversed $161 $-1 #
edge $-1 $358 0 $358 6.2831853071796004 $162 $359 forward 7 unknown #
vertex $-1 $165 $360 #
ellipse-curve $-1 65.730386365840559 -5.1663751791135795 9.1090776932481532 0.64278761758704617 0 0.76604443648966558 0.76604443648966558 0 -0.64278761758704617 1 I I #
coedge $-1 $258 $258 $-1 $361 reversed $168 $-1 #
edge $-1 $362 0 $362 6.2831853071796004 $169 $363 forward 7 unknown #
vertex $-1 $172 $364 #
ellipse-curve $-1 65.730386365840559 -1.0696498735333293 9.1090776932481532 0.64278761758704617 0 0.76604443648966558 0.76604443648966558 0 -0.64278761758704617 1 I I #
coedge $-1 $262 $262 $-1 $365 reversed $175 $-1 #
edge $-1 $366 0 $366 6.2831853071796004 $176 $367 forward 7 unknown #
vertex $-1 $179 $368 #
ellipse-curve $-1 65.730386365840559 3.0270754320469209 9.1090776932481532 0.64278761758704617 0 0.76604443648966558 0.76604443648966558 0 -0.64278761758704617 1 I I #
face $-1 $-1 $195 $27 $-1 $369 reversed single #
loop $-1 $-1 $282 $180 #
plane-surface $-1 0 46.938097946577635 0 0 -1 0 0 0 -1 forward_v I I I I #
coedge $-1 $370 $280 $283 $371 forward $181 $-1 #
coedge $-1 $286 $183 $184 $274 reversed $114 $-1 #
coedge $-1 $280 $370 $183 $272 reversed $181 $-1 #
edge $-1 $287 -11.775708309269739 $372 11.775708309269739 $271 $373 forward 7 unknown #
coedge $-1 $185 $184 $370 $374 forward $73 $-1 #
edge $-1 $278 -68.908352916043583 $372 68.908352916043583 $270 $375 forward 7 unknown #
coedge $-1 $283 $282 $185 $276 reversed $267 $-1 #
edge $-1 $376 -68.908352916043583 $277 68.908352916043583 $275 $377 forward 7 unknown #
vertex $-1 $187 $378 #
vertex $-1 $289 $379 #
straight-curve $-1 68.908352916043583 0 -11.775708309269739 0 -1 0 I I #
coedge $-1 $269 $271 $188 $281 reversed $181 $-1 #
edge $-1 $284 -46.938097946577635 $287 46.938097946577635 $280 $380 forward 7 unknown #
coedge $-1 $275 $189 $194 $290 forward $267 $-1 #
coedge $-1 $189 $275 $269 $371 reversed $267 $-1 #
vertex $-1 $190 $381 #
straight-curve $-1 0 46.938097946577635 11.775708309269739 -1 0 0 I I #
coedge $-1 $191 $270 $193 $289 reversed $114 $-1 #
vertex $-1 $281 $382 #
straight-curve $-1 0 -46.938097946577635 11.775708309269739 1 0 0 I I #
edge $-1 $196 -11.775708309269739 $278 11.775708309269739 $193 $383 forward 7 unknown #
edge $-1 $197 -11.775708309269739 $277 11.775708309269739 $194 $384 forward 7 unknown #
point $-1 68.908352916043583 -46.938097946577635 11.775708309269739 #
point $-1 68.908352916043583 46.938097946577635 11.775708309269739 #
face $-1 $-1 $306 $28 $-1 $385 reversed single #
plane-surface $-1 -65.31537288935769 -51.754573599406477 0 -1 0 0 0 0 1 forward_v I I I I #
coedge $-1 $386 $387 $388 $389 forward $200 $-1 #
coedge $-1 $388 $202 $305 $390 reversed $122 $-1 #
coedge $-1 $202 $388 $203 $300 reversed $122 $-1 #
edge $-1 $302 -11.775708309269739 $307 11.775708309269739 $202 $391 forward 7 unknown #
coedge $-1 $204 $203 $387 $392 forward $77 $-1 #
edge $-1 $302 46.938097946577635 $393 56.571049252235319 $297 $394 forward 7 unknown #
edge $-1 $395 -4.8164756528288422 $212 4.8164756528288422 $209 $396 forward 7 unknown #
vertex $-1 $300 $397 #
straight-curve $-1 0 -46.938097946577635 11.775708309269739 -1 0 0 I I #
coedge $-1 $398 $207 $210 $310 forward $306 $-1 #
coedge $-1 $207 $398 $296 $390 forward $306 $-1 #
loop $-1 $-1 $207 $293 #
vertex $-1 $298 $399 #
straight-curve $-1 0 -46.938097946577635 -11.775708309269739 1 0 0 I I #
coedge $-1 $210 $209 $400 $401 forward $211 $-1 #
edge $-1 $213 -4.8164756528288422 $402 4.8164756528288422 $210 $403 forward 7 unknown #
point $-1 -65.31537288935769 -46.938097946577635 11.775708309269739 #
point $-1 -65.31537288935769 -46.938097946577635 -11.775708309269739 #
plane-surface $-1 0 0 11.775708309269739 0 0 1 1 0 0 forward_v I I I I #
coedge $-1 $324 $323 $316 $404 forward $216 $-1 #
coedge $-1 $316 $218 $220 $320 reversed $130 $-1 #
coedge $-1 $218 $315 $314 $404 reversed $130 $-1 #
coedge $-1 $226 $221 $218 $318 forward $227 $-1 #
edge $-1 $321 -13.140943702070224 $405 -7.9700422925515113 $317 $406 forward 7 unknown #
coedge $-1 $220 $219 $324 $407 reversed $81 $-1 #
edge $-1 $408 -1.830693040787162e-014 $321 6.5619681272543211 $315 $409 forward 7 unknown #
vertex $-1 $222 $410 #
straight-curve $-1 -63.737451506524877 -0.51070055768206757 11.77570830926974 0 1 0 I I #
coedge $-1 $314 $223 $226 $328 reversed $216 $-1 #
coedge $-1 $223 $314 $319 $407 forward $216 $-1 #
vertex $-1 $224 $411 #
straight-curve $-1 -68.908352916043583 -12.286528000547666 58.16840133567996 0 0 1 I I #
straight-curve $-1 -68.908352916043569 -12.286528000547666 7.735757280341403 -0.78801074757464917 0 -0.61566148304635926 I I #
edge $-1 $405 -10.243725769819395 $228 12.286528000547666 $323 $412 forward 7 unknown #
point $-1 -68.908352916043583 -12.286528000547666 11.775708309269739 #
point $-1 -63.73745150652487 -12.286528000547666 11.775708309269739 #
edge $-1 $413 1 $413 0 $231 $-1 forward 7 unknown #
vertex $-1 $232 $414 #
ellipse-curve $-1 -64.905642600511598 -5.8493126375856406 7.9417232519864047 -0.61566148304635926 0 0.78801074757464917 0.78801074757464917 0 0.61566148304635926 1 I I #
point $-1 -65.534891463709585 -5.8493126375856406 10.371394277851934 #
edge $-1 $415 1 $415 0 $235 $-1 forward 7 unknown #
vertex $-1 $236 $416 #
ellipse-curve $-1 -64.905642600511598 3.8065104068573916 7.9417232519864047 -0.61566148304635926 0 0.78801074757464917 0.78801074757464917 0 0.61566148304635926 1 I I #
point $-1 -65.534891463709585 3.8065104068573916 10.371394277851934 #
loop $-1 $-1 $247 $239 #
plane-surface $-1 68.908352916043583 0 0 -1 0 0 0 0 1 forward_v I I I I #
coedge $-1 $342 $242 $244 $346 reversed $152 $-1 #
coedge $-1 $242 $341 $417 $418 reversed $152 $-1 #
coedge $-1 $250 $245 $242 $344 forward $240 $-1 #
edge $-1 $347 36.591667733866281 $419 42.947600834272357 $343 $420 forward 7 unknown #
coedge $-1 $244 $243 $350 $421 reversed $95 $-1 #
edge $-1 $422 -137.81670583208717 $347 -129.51962436050621 $341 $423 forward 7 unknown #
vertex $-1 $246 $424 #
straight-curve $-1 62.552419815637514 -0.53482493676666465 11.775708309269746 0 -1 0 I I #
coedge $-1 $417 $247 $250 $354 reversed $339 $-1 #
coedge $-1 $247 $417 $345 $421 forward $339 $-1 #
vertex $-1 $248 $425 #
straight-curve $-1 68.908352916043583 5.7582256357670865 100.30151992036595 0 0 1 I I #
straight-curve $-1 -36.665367841959636 5.7582256357670865 95.029319082728676 0.76604443648966558 0 -0.64278761758704617 I I #
edge $-1 $419 -7.8975253828337451 $251 5.7582256357670865 $349 $426 forward 7 unknown #
point $-1 68.908352916043583 5.7582256357670865 11.775708309269739 #
point $-1 62.552419815637506 5.7582256357670865 11.775708309269746 #
edge $-1 $427 1 $427 0 $254 $-1 forward 7 unknown #
vertex $-1 $255 $428 #
ellipse-curve $-1 64.140572318411529 -5.1663751791135795 7.2144111303515857 0.64278761758704617 0 0.76604443648966558 0.76604443648966558 0 -0.64278761758704617 1 I I #
point $-1 66.496430802330224 -5.1663751791135795 8.4662900756611119 #
edge $-1 $429 1 $429 0 $258 $-1 forward 7 unknown #
vertex $-1 $259 $430 #
ellipse-curve $-1 64.140572318411529 -1.0696498735333293 7.2144111303515857 0.64278761758704617 0 0.76604443648966558 0.76604443648966558 0 -0.64278761758704617 1 I I #
point $-1 66.496430802330224 -1.0696498735333293 8.4662900756611119 #
edge $-1 $431 1 $431 0 $262 $-1 forward 7 unknown #
vertex $-1 $263 $432 #
ellipse-curve $-1 64.140572318411529 3.0270754320469209 7.2144111303515857 0.64278761758704617 0 0.76604443648966558 0.76604443648966558 0 -0.64278761758704617 1 I I #
point $-1 66.496430802330224 3.0270754320469209 8.4662900756611119 #
plane-surface $-1 68.908352916043583 0 0 -1 0 0 0 0 1 forward_v I I I I #
coedge $-1 $271 $269 $273 $374 reversed $181 $-1 #
edge $-1 $284 -11.775708309269739 $376 11.775708309269739 $283 $433 forward 7 unknown #
vertex $-1 $374 $434 #
straight-curve $-1 -68.908352916043583 -46.938097946577635 0 0 0 -1 I I #
edge $-1 $372 -46.938097946577635 $376 46.938097946577635 $370 $435 forward 7 unknown #
straight-curve $-1 0 -46.938097946577635 -11.775708309269739 -1 0 0 I I #
vertex $-1 $276 $436 #
straight-curve $-1 0 46.938097946577635 -11.775708309269739 1 0 0 I I #
point $-1 68.908352916043583 46.938097946577635 -11.775708309269739 #
point $-1 68.908352916043583 -46.938097946577635 -11.775708309269739 #
straight-curve $-1 -68.908352916043583 0 11.775708309269739 0 -1 0 I I #
point $-1 -68.908352916043583 46.938097946577635 11.775708309269739 #
point $-1 -68.908352916043583 -46.938097946577635 11.775708309269739 #
straight-curve $-1 68.908352916043583 -46.938097946577635 0 0 0 -1 I I #
straight-curve $-1 68.908352916043583 46.938097946577635 0 0 0 -1 I I #
plane-surface $-1 0 0 -11.775708309269739 0 0 1 1 0 0 forward_v I I I I #
coedge $-1 $400 $295 $398 $437 reversed $200 $-1 #
coedge $-1 $295 $400 $299 $392 reversed $200 $-1 #
coedge $-1 $297 $296 $295 $389 reversed $122 $-1 #
edge $-1 $393 -11.775708309269739 $438 11.775708309269739 $388 $439 forward 7 unknown #
edge $-1 $438 -56.571049252235319 $307 -46.938097946577635 $296 $440 forward 7 unknown #
straight-curve $-1 -68.908352916043583 -46.938097946577635 0 0 0 -1 I I #
edge $-1 $393 -1.7964900133429467 $395 1.7964900133429467 $387 $441 forward 7 unknown #
vertex $-1 $300 $442 #
straight-curve $-1 -68.908352916043583 0 11.775708309269739 0 -1 0 I I #
vertex $-1 $301 $443 #
straight-curve $-1 -65.31537288935769 -51.754573599406477 11.775708309269739 0 1 0 I I #
point $-1 -68.908352916043583 -46.938097946577635 11.775708309269739 #
coedge $-1 $305 $304 $386 $437 forward $306 $-1 #
point $-1 -68.908352916043583 -46.938097946577635 -11.775708309269739 #
coedge $-1 $387 $386 $309 $401 reversed $200 $-1 #
edge $-1 $395 -11.775708309269739 $402 11.775708309269739 $309 $444 forward 7 unknown #
vertex $-1 $401 $445 #
straight-curve $-1 -65.31537288935769 -51.754573599406477 -11.775708309269739 0 -1 0 I I #
edge $-1 $405 46.392693026410221 $408 50.432644055338571 $314 $446 forward 7 unknown #
vertex $-1 $328 $447 #
straight-curve $-1 -76.878395208595094 10.243725769819395 11.775708309269739 -1 0 0 I I #
edge $-1 $408 -10.754426327501463 $325 11.775827442865598 $324 $448 forward 7 unknown #
vertex $-1 $407 $449 #
straight-curve $-1 -68.908352916043569 10.243725769819395 7.735757280341403 0.78801074757464917 0 0.61566148304635926 I I #
point $-1 -63.73745150652487 10.243725769819395 11.775708309269739 #
point $-1 -68.908352916043583 -12.286528000547666 7.7357572803413914 #
straight-curve $-1 -68.908352916043583 0 11.775708309269739 0 -1 0 I I #
vertex $-1 $331 $450 #
point $-1 -64.117631852936952 -5.8493126375856406 8.5573847350327643 #
vertex $-1 $335 $451 #
point $-1 -64.117631852936952 3.8065104068573916 8.5573847350327643 #
coedge $-1 $350 $349 $342 $418 forward $339 $-1 #
edge $-1 $419 88.525811611096202 $422 93.859072843139359 $417 $452 forward 7 unknown #
vertex $-1 $354 $453 #
straight-curve $-1 25.960752081771226 -7.8975253828337451 11.775708309269731 1 0 0 I I #
edge $-1 $422 -7.3627004460670804 $351 6.2930505725337511 $350 $454 forward 7 unknown #
vertex $-1 $421 $455 #
straight-curve $-1 -36.665367841959636 -7.8975253828337451 95.029319082728676 -0.76604443648966558 0 0.64278761758704617 I I #
point $-1 62.552419815637506 -7.8975253828337451 11.775708309269746 #
point $-1 68.908352916043583 5.7582256357670865 6.4424470772265892 #
straight-curve $-1 68.908352916043583 0 11.775708309269739 0 1 0 I I #
vertex $-1 $357 $456 #
point $-1 64.906616754901208 -5.1663751791135795 6.5716235127645399 #
vertex $-1 $361 $457 #
point $-1 64.906616754901208 -1.0696498735333293 6.5716235127645399 #
vertex $-1 $365 $458 #
point $-1 64.906616754901208 3.0270754320469209 6.5716235127645399 #
straight-curve $-1 -68.908352916043583 46.938097946577635 0 0 0 -1 I I #
point $-1 -68.908352916043583 -46.938097946577635 -11.775708309269739 #
straight-curve $-1 -68.908352916043583 0 -11.775708309269739 0 1 0 I I #
point $-1 -68.908352916043583 46.938097946577635 -11.775708309269739 #
edge $-1 $402 -1.7964900133429467 $438 1.7964900133429467 $386 $459 forward 7 unknown #
vertex $-1 $390 $460 #
straight-curve $-1 -68.908352916043583 -56.571049252235319 0 0 0 -1 I I #
straight-curve $-1 -68.908352916043583 0 -11.775708309269739 0 1 0 I I #
straight-curve $-1 -67.111862902700636 -56.571049252235319 11.775708309269739 1 0 0 I I #
point $-1 -68.908352916043583 -56.571049252235319 11.775708309269739 #
point $-1 -65.31537288935769 -56.571049252235319 11.775708309269739 #
straight-curve $-1 -65.31537288935769 -56.571049252235319 0 0 0 -1 I I #
point $-1 -65.31537288935769 -56.571049252235319 -11.775708309269739 #
straight-curve $-1 -68.908352916043583 10.243725769819395 58.16840133567996 0 0 -1 I I #
point $-1 -68.908352916043583 10.243725769819395 11.775708309269739 #
straight-curve $-1 -68.908352916043583 -0.51070055768206757 7.735757280341395 0 -1 0 I I #
point $-1 -68.908352916043583 10.243725769819395 7.7357572803413914 #
point $-1 -64.289981117465246 -5.8493126375856406 7.1537125044117555 #
point $-1 -64.289981117465246 3.8065104068573916 7.1537125044117555 #
straight-curve $-1 68.908352916043583 -7.8975253828337451 100.30151992036595 0 0 -1 I I #
point $-1 68.908352916043583 -7.8975253828337451 11.775708309269739 #
straight-curve $-1 68.908352916043569 -0.53482493676666465 6.4424470772265963 0 1 0 I I #
point $-1 68.908352916043583 -7.8975253828337451 6.4424470772265892 #
point $-1 63.497784700824489 -5.1663751791135795 6.4483666938619209 #
point $-1 63.497784700824489 -1.0696498735333293 6.4483666938619209 #
point $-1 63.497784700824489 3.0270754320469209 6.4483666938619209 #
straight-curve $-1 -67.111862902700636 -56.571049252235319 -11.775708309269739 -1 0 0 I I #
point $-1 -68.908352916043583 -56.571049252235319 -11.775708309269739 #
End-of-ACIS-data 