500 0 8 0           
7 Unknown 11 ACIS 5.0 NT 24 Thu Mar 25 23:56:41 1999 
-1 9.9999999999999995e-007 1e-010 
body $-1 $8 $-1 $9 #
body $-1 $10 $-1 $11 #
body $-1 $12 $-1 $13 #
body $-1 $14 $-1 $15 #
body $-1 $16 $-1 $17 #
body $-1 $18 $-1 $19 #
body $-1 $20 $-1 $21 #
body $-1 $22 $-1 $23 #
lump $-1 $-1 $24 $0 #
transform $-1 1 0 0 0 1 0 0 0 1 68.531144138920254 32.087516907062856 8.2401080283874357 1 rotate no_reflect no_shear #
lump $-1 $-1 $25 $1 #
transform $-1 1 0 0 0 1 0 0 0 1 68.531144138920254 32.087516907062856 8.2401080283874357 1 rotate no_reflect no_shear #
lump $-1 $-1 $26 $2 #
transform $-1 1 0 0 0 1 0 0 0 1 68.531144138920254 32.087516907062856 8.2401080283874357 1 rotate no_reflect no_shear #
lump $-1 $-1 $27 $3 #
transform $-1 1 0 0 0 1 0 0 0 1 68.531144138920254 32.087516907062856 8.2401080283874357 1 rotate no_reflect no_shear #
lump $-1 $-1 $28 $4 #
transform $-1 1 0 0 0 1 0 0 0 1 68.531144138920254 32.087516907062856 8.2401080283874357 1 rotate no_reflect no_shear #
lump $-1 $-1 $29 $5 #
transform $-1 1 0 0 0 1 0 0 0 1 68.531144138920254 32.087516907062856 8.2401080283874357 1 rotate no_reflect no_shear #
lump $-1 $-1 $30 $6 #
transform $-1 1 0 0 0 1 0 0 0 1 68.531144138920254 32.087516907062856 8.2401080283874357 1 rotate no_reflect no_shear #
lump $-1 $-1 $31 $7 #
transform $-1 1 0 0 0 1 0 0 0 1 68.531144138920254 32.087516907062856 8.2401080283874357 1 rotate no_reflect no_shear #
shell $-1 $-1 $-1 $32 $-1 $8 #
shell $-1 $-1 $-1 $33 $-1 $10 #
shell $-1 $-1 $-1 $34 $-1 $12 #
shell $-1 $-1 $-1 $35 $-1 $14 #
shell $-1 $-1 $-1 $36 $-1 $16 #
shell $-1 $-1 $-1 $37 $-1 $18 #
shell $-1 $-1 $-1 $38 $-1 $20 #
shell $-1 $-1 $-1 $39 $-1 $22 #
face $-1 $40 $41 $24 $-1 $42 forward single #
face $-1 $43 $44 $25 $-1 $45 reversed single #
face $-1 $46 $47 $26 $-1 $48 reversed single #
face $-1 $49 $50 $27 $-1 $51 reversed single #
face $-1 $52 $53 $28 $-1 $54 forward single #
face $-1 $55 $56 $29 $-1 $57 reversed single #
face $-1 $58 $59 $30 $-1 $60 forward single #
face $-1 $61 $62 $31 $-1 $63 forward single #
face $-1 $64 $65 $24 $-1 $66 reversed single #
loop $-1 $-1 $67 $32 #
plane-surface $-1 0 0 8.2401080283874357 0 0 1 1 0 0 forward_v I I I I #
face $-1 $68 $69 $25 $-1 $70 reversed single #
loop $-1 $-1 $71 $33 #
plane-surface $-1 -64.416564753217941 0 5.2401080283874357 0 0 1 1 0 0 forward_v I I I I #
face $-1 $72 $73 $26 $-1 $74 reversed single #
loop $-1 $-1 $75 $34 #
plane-surface $-1 64.416564753217941 0 5.2401080283874357 0 0 1 1 0 0 forward_v I I I I #
face $-1 $76 $77 $27 $-1 $78 reversed single #
loop $-1 $-1 $79 $35 #
plane-surface $-1 24.973969610624536 109.83108205574584 130.73740862172073 1 0 0 0 -0.82903758062907751 -0.55919289150049634 forward_v I I I I #
face $-1 $80 $81 $28 $-1 $82 forward single #
loop $-1 $83 $84 $36 #
cone-surface $-1 42.637977489070082 28.749077155480098 3.9851578550437643 0 -0.82903758062907751 -0.55919289150049634 1 0 0 1 I I 0 1 1 forward I I I I #
face $-1 $85 $86 $29 $-1 $87 reversed single #
loop $-1 $-1 $88 $37 #
plane-surface $-1 26.865934347964107 -116.47148857792575 111.36920011476059 -1 0 0 0 -0.61566148304635926 0.78801074757464917 forward_v I I I I #
face $-1 $89 $90 $30 $-1 $91 forward single #
loop $-1 $92 $93 $38 #
cone-surface $-1 5.3748619106793569 -28.309488774957227 4.9609746409548308 0 0.61566148304635926 -0.78801074757464917 1.5 0 0 1 I I 0 1 1.5 forward I I I I #
face $-1 $94 $95 $31 $-1 $96 forward single #
loop $-1 $97 $98 $39 #
cone-surface $-1 18.269505373050208 -28.309488774957227 4.9609746409548308 0 0.61566148304635926 -0.78801074757464917 1.5 0 0 1 I I 0 1 1.5 forward I I I I #
face $-1 $99 $100 $24 $-1 $101 reversed single #
loop $-1 $-1 $102 $40 #
plane-surface $-1 0 0 -8.2401080283874357 0 0 1 1 0 0 forward_v I I I I #
coedge $-1 $103 $104 $105 $106 forward $41 $-1 #
face $-1 $107 $108 $25 $-1 $109 reversed single #
loop $-1 $-1 $110 $43 #
plane-surface $-1 -60.301985367515634 0 6.7401080283874357 -1 0 0 0 0 1 forward_v I I I I #
coedge $-1 $111 $112 $113 $114 forward $44 $-1 #
face $-1 $115 $116 $26 $-1 $117 forward single #
loop $-1 $-1 $118 $46 #
plane-surface $-1 60.301985367515627 0 6.7401080283874357 1 0 0 0 0 -1 forward_v I I I I #
coedge $-1 $119 $120 $121 $122 reversed $47 $-1 #
face $-1 $123 $124 $27 $-1 $125 forward single #
loop $-1 $-1 $126 $49 #
plane-surface $-1 42.637977489070082 -3.7987058136002219 54.093151323960512 0 0.82903758062907751 0.55919289150049634 1 0 0 forward_v I I I I #
coedge $-1 $127 $128 $129 $130 reversed $50 $-1 #
face $-1 $-1 $131 $28 $-1 $132 forward single #
loop $-1 $133 $134 $52 #
cone-surface $-1 42.637977489070082 27.475096342545868 3.1258469731893221 0 -0.82903758062907751 -0.55919289150049634 0.5 0 0 1 I I -0.70710678118654746 0.70710678118654746 0.5 forward I I I I #
loop $-1 $-1 $135 $36 #
coedge $-1 $84 $84 $136 $137 reversed $53 $-1 #
face $-1 $138 $139 $29 $-1 $140 reversed single #
loop $-1 $-1 $141 $55 #
plane-surface $-1 11.822183641864783 -32.087516907062849 3.3626438646474099 0 -0.61566148304635926 0.78801074757464917 1 0 0 forward_v I I I I #
coedge $-1 $142 $143 $144 $145 reversed $56 $-1 #
face $-1 $-1 $146 $30 $-1 $147 forward single #
loop $-1 $148 $149 $58 #
cone-surface $-1 5.3748619106793569 -27.191149188878807 3.5295652747112385 0 0.61566148304635926 -0.78801074757464917 0.75 0 0 1 I I -0.70710678118654757 0.70710678118654757 0.75 forward I I I I #
loop $-1 $-1 $150 $38 #
coedge $-1 $93 $93 $151 $152 reversed $59 $-1 #
face $-1 $-1 $153 $31 $-1 $154 forward single #
loop $-1 $155 $156 $61 #
cone-surface $-1 18.269505373050208 -27.191149188878807 3.5295652747112385 0 0.61566148304635926 -0.78801074757464917 0.75 0 0 1 I I -0.70710678118654757 0.70710678118654757 0.75 forward I I I I #
loop $-1 $-1 $157 $39 #
coedge $-1 $98 $98 $158 $159 reversed $62 $-1 #
face $-1 $160 $161 $24 $-1 $162 reversed single #
loop $-1 $-1 $163 $64 #
plane-surface $-1 0 -32.087516907062856 0 0 1 0 0 0 1 forward_v I I I I #
coedge $-1 $164 $165 $166 $167 forward $65 $-1 #
coedge $-1 $168 $67 $169 $170 forward $41 $-1 #
coedge $-1 $67 $168 $171 $172 forward $41 $-1 #
coedge $-1 $173 $174 $67 $106 reversed $175 $-1 #
edge $-1 $176 -32.087516907062856 $177 32.087516907062856 $105 $178 forward 7 unknown #
face $-1 $179 $180 $25 $-1 $181 reversed single #
loop $-1 $-1 $182 $68 #
plane-surface $-1 0 32.087516907062856 0 0 -1 0 0 0 -1 forward_v I I I I #
coedge $-1 $113 $183 $184 $185 reversed $69 $-1 #
coedge $-1 $186 $71 $187 $188 reversed $44 $-1 #
coedge $-1 $71 $186 $189 $190 reversed $44 $-1 #
coedge $-1 $191 $110 $71 $114 reversed $69 $-1 #
edge $-1 $192 -32.087516907062856 $193 32.087516907062856 $113 $194 forward 7 unknown #
face $-1 $195 $196 $26 $-1 $197 reversed single #
loop $-1 $-1 $198 $72 #
plane-surface $-1 0 0 8.2401080283874357 0 0 1 1 0 0 forward_v I I I I #
coedge $-1 $199 $200 $201 $202 reversed $73 $-1 #
coedge $-1 $201 $75 $203 $204 reversed $47 $-1 #
coedge $-1 $75 $201 $205 $206 reversed $47 $-1 #
coedge $-1 $207 $208 $75 $122 forward $209 $-1 #
edge $-1 $210 -32.087516907062856 $211 32.087516907062856 $121 $212 forward 7 unknown #
face $-1 $213 $214 $27 $-1 $215 forward single #
loop $-1 $-1 $129 $76 #
plane-surface $-1 0 0 8.2401080283874357 0 0 1 1 0 0 forward_v I I I I #
coedge $-1 $216 $217 $218 $219 reversed $77 $-1 #
coedge $-1 $128 $79 $220 $221 reversed $50 $-1 #
coedge $-1 $79 $127 $216 $222 reversed $50 $-1 #
coedge $-1 $218 $223 $79 $130 forward $124 $-1 #
edge $-1 $224 22.828024120810063 $225 27.785979578736178 $129 $226 forward 7 unknown #
loop $-1 $-1 $136 $80 #
plane-surface $-1 42.637977489070082 -3.7987058136002219 54.093151323960512 0 0.82903758062907751 0.55919289150049634 1 0 0 forward_v I I I I #
loop $-1 $-1 $227 $52 #
coedge $-1 $134 $134 $135 $228 reversed $81 $-1 #
coedge $-1 $135 $135 $134 $228 forward $83 $-1 #
coedge $-1 $136 $136 $84 $137 forward $131 $-1 #
edge $-1 $229 6.6704288995088982e-016 $229 6.2831853071796013 $136 $230 forward 7 unknown #
face $-1 $231 $232 $29 $-1 $233 forward single #
loop $-1 $-1 $234 $85 #
plane-surface $-1 -3.2215670642345415 -116.47148857792575 111.36920011476059 1 0 0 0 0.61566148304635926 -0.78801074757464917 forward_v I I I I #
coedge $-1 $235 $236 $237 $238 reversed $86 $-1 #
coedge $-1 $143 $88 $239 $240 reversed $56 $-1 #
coedge $-1 $88 $142 $235 $241 reversed $56 $-1 #
coedge $-1 $237 $242 $88 $145 forward $232 $-1 #
edge $-1 $243 26.148227381900021 $244 32.391096698524024 $144 $245 forward 7 unknown #
loop $-1 $-1 $151 $89 #
plane-surface $-1 11.822183641864783 -32.087516907062849 3.3626438646474099 0 -0.61566148304635926 0.78801074757464917 1 0 0 forward_v I I I I #
loop $-1 $-1 $246 $58 #
coedge $-1 $149 $149 $150 $247 reversed $90 $-1 #
coedge $-1 $150 $150 $149 $247 forward $92 $-1 #
coedge $-1 $151 $151 $93 $152 forward $146 $-1 #
edge $-1 $248 1.2835383907835738e-015 $248 6.2831853071796013 $151 $249 forward 7 unknown #
loop $-1 $-1 $158 $94 #
plane-surface $-1 11.822183641864783 -32.087516907062849 3.3626438646474099 0 -0.61566148304635926 0.78801074757464917 1 0 0 forward_v I I I I #
loop $-1 $-1 $250 $61 #
coedge $-1 $156 $156 $157 $251 reversed $95 $-1 #
coedge $-1 $157 $157 $156 $251 forward $97 $-1 #
coedge $-1 $158 $158 $98 $159 forward $153 $-1 #
edge $-1 $252 1.2835383907835738e-015 $252 6.2831853071796013 $158 $253 forward 7 unknown #
face $-1 $254 $255 $24 $-1 $256 reversed single #
loop $-1 $-1 $257 $99 #
plane-surface $-1 -68.531144138920254 0 0 1 0 0 0 0 -1 forward_v I I I I #
coedge $-1 $258 $171 $259 $260 forward $100 $-1 #
coedge $-1 $261 $102 $258 $262 forward $65 $-1 #
coedge $-1 $102 $261 $263 $264 forward $65 $-1 #
coedge $-1 $174 $173 $102 $167 reversed $175 $-1 #
edge $-1 $265 -32.087516907062856 $266 32.087516907062856 $166 $267 forward 7 unknown #
coedge $-1 $104 $103 $268 $269 forward $41 $-1 #
coedge $-1 $270 $271 $103 $170 reversed $255 $-1 #
edge $-1 $177 -68.531144138920254 $272 68.531144138920254 $169 $273 forward 7 unknown #
coedge $-1 $163 $274 $104 $172 reversed $100 $-1 #
edge $-1 $275 -68.531144138920254 $176 68.531144138920254 $171 $276 forward 7 unknown #
coedge $-1 $166 $105 $274 $277 forward $175 $-1 #
coedge $-1 $105 $166 $270 $278 reversed $175 $-1 #
loop $-1 $-1 $173 $254 #
vertex $-1 $106 $279 #
vertex $-1 $106 $280 #
straight-curve $-1 68.531144138920254 0 8.2401080283874357 0 1 0 I I #
face $-1 $281 $282 $25 $-1 $283 forward single #
loop $-1 $-1 $284 $107 #
plane-surface $-1 -68.531144138920254 0 0 1 0 0 0 0 -1 forward_v I I I I #
coedge $-1 $189 $285 $191 $286 forward $108 $-1 #
coedge $-1 $110 $191 $287 $288 reversed $69 $-1 #
coedge $-1 $289 $187 $110 $185 forward $290 $-1 #
edge $-1 $193 1.8700540141937179 $291 4.8700540141937179 $184 $292 forward 7 unknown #
coedge $-1 $112 $111 $284 $293 reversed $44 $-1 #
coedge $-1 $184 $294 $111 $188 forward $290 $-1 #
edge $-1 $295 -36.322861762311284 $193 -28.093702990906664 $187 $296 forward 7 unknown #
coedge $-1 $297 $182 $112 $190 forward $108 $-1 #
edge $-1 $192 28.093702990906664 $298 36.322861762311284 $189 $299 forward 7 unknown #
coedge $-1 $183 $113 $182 $286 reversed $69 $-1 #
vertex $-1 $190 $300 #
vertex $-1 $188 $301 #
straight-curve $-1 -60.301985367515634 0 5.2401080283874357 0 -1 0 I I #
face $-1 $302 $303 $26 $-1 $304 reversed single #
loop $-1 $-1 $305 $115 #
plane-surface $-1 0 -32.087516907062856 0 0 1 0 0 0 1 forward_v I I I I #
coedge $-1 $306 $307 $308 $309 forward $116 $-1 #
coedge $-1 $308 $118 $305 $310 reversed $73 $-1 #
coedge $-1 $118 $308 $311 $312 reversed $73 $-1 #
coedge $-1 $120 $119 $118 $202 forward $47 $-1 #
edge $-1 $313 -32.087516907062856 $314 32.087516907062856 $118 $315 forward 7 unknown #
coedge $-1 $316 $305 $119 $204 forward $196 $-1 #
edge $-1 $313 28.093702990906657 $210 36.322861762311284 $203 $317 forward 7 unknown #
coedge $-1 $311 $318 $120 $206 forward $303 $-1 #
edge $-1 $211 -36.322861762311284 $314 -28.093702990906657 $205 $319 forward 7 unknown #
coedge $-1 $320 $121 $318 $321 reversed $209 $-1 #
coedge $-1 $121 $320 $316 $322 forward $209 $-1 #
loop $-1 $-1 $121 $302 #
vertex $-1 $204 $323 #
vertex $-1 $122 $324 #
straight-curve $-1 68.531144138920254 0 5.2401080283874357 0 1 0 I I #
face $-1 $-1 $325 $27 $-1 $326 reversed single #
loop $-1 $-1 $327 $123 #
plane-surface $-1 60.301985367515627 0 6.7401080283874357 1 0 0 0 0 -1 forward_v I I I I #
coedge $-1 $328 $126 $128 $222 forward $77 $-1 #
coedge $-1 $126 $328 $327 $329 forward $77 $-1 #
coedge $-1 $330 $129 $126 $219 forward $124 $-1 #
edge $-1 $225 3.6549808660894954 $331 38.982996622980586 $218 $332 forward 7 unknown #
coedge $-1 $333 $334 $127 $221 forward $325 $-1 #
edge $-1 $335 -64.479067756951864 $224 -57.128596282472927 $220 $336 forward 7 unknown #
edge $-1 $225 55.308763277992263 $335 64.175033814125698 $128 $337 forward 7 unknown #
coedge $-1 $129 $330 $333 $338 forward $124 $-1 #
vertex $-1 $221 $339 #
vertex $-1 $130 $340 #
straight-curve $-1 24.973969610624536 54.915541027872919 8.2401080283874393 0 -1 0 I I #
coedge $-1 $227 $227 $-1 $341 reversed $133 $-1 #
edge $-1 $342 0 $342 6.2831853071796004 $134 $343 forward 7 unknown #
vertex $-1 $137 $344 #
ellipse-curve $-1 42.637977489070082 29.6085391780998 4.5648722911479656 0 0.82903758062907751 0.55919289150049634 1 0 0 1 I I #
face $-1 $-1 $345 $29 $-1 $346 reversed single #
loop $-1 $-1 $144 $138 #
plane-surface $-1 0 0 8.2401080283874357 0 0 1 1 0 0 forward_v I I I I #
coedge $-1 $347 $348 $349 $350 reversed $139 $-1 #
coedge $-1 $351 $141 $143 $241 forward $86 $-1 #
coedge $-1 $141 $351 $347 $352 forward $86 $-1 #
coedge $-1 $349 $144 $141 $238 forward $232 $-1 #
edge $-1 $244 -20.954842527031715 $353 9.1326588851669328 $237 $354 forward 7 unknown #
coedge $-1 $355 $356 $142 $240 forward $345 $-1 #
edge $-1 $357 -52.321956192732891 $243 -47.444492028992855 $239 $358 forward 7 unknown #
edge $-1 $244 -7.9223149377573652 $357 9.1534652039358102e-015 $143 $359 forward 7 unknown #
coedge $-1 $144 $349 $355 $360 forward $232 $-1 #
vertex $-1 $240 $361 #
vertex $-1 $145 $362 #
straight-curve $-1 26.865934347964107 -58.235744288962877 8.2401080283874322 0 1 0 I I #
coedge $-1 $246 $246 $-1 $363 reversed $148 $-1 #
edge $-1 $364 0 $364 6.2831853071796004 $149 $365 forward 7 unknown #
vertex $-1 $152 $366 #
ellipse-curve $-1 5.3748619106793569 -28.966082248750862 5.8013759465174157 0 -0.61566148304635926 0.78801074757464917 1.5 0 0 1 I I #
coedge $-1 $250 $250 $-1 $367 reversed $155 $-1 #
edge $-1 $368 0 $368 6.2831853071796004 $156 $369 forward 7 unknown #
vertex $-1 $159 $370 #
ellipse-curve $-1 18.269505373050208 -28.966082248750862 5.8013759465174157 0 -0.61566148304635926 0.78801074757464917 1.5 0 0 1 I I #
face $-1 $-1 $175 $24 $-1 $371 reversed single #
loop $-1 $-1 $270 $160 #
plane-surface $-1 0 32.087516907062856 0 0 -1 0 0 0 -1 forward_v I I I I #
coedge $-1 $372 $268 $271 $373 forward $161 $-1 #
coedge $-1 $274 $163 $164 $262 reversed $100 $-1 #
coedge $-1 $268 $372 $163 $260 reversed $161 $-1 #
edge $-1 $275 -8.2401080283874357 $374 8.2401080283874357 $259 $375 forward 7 unknown #
coedge $-1 $165 $164 $372 $376 forward $65 $-1 #
edge $-1 $266 -68.531144138920254 $374 68.531144138920254 $258 $377 forward 7 unknown #
coedge $-1 $271 $270 $165 $264 reversed $255 $-1 #
edge $-1 $378 -68.531144138920254 $265 68.531144138920254 $263 $379 forward 7 unknown #
vertex $-1 $167 $380 #
vertex $-1 $277 $381 #
straight-curve $-1 68.531144138920254 0 -8.2401080283874357 0 -1 0 I I #
coedge $-1 $257 $259 $168 $269 reversed $161 $-1 #
edge $-1 $272 -32.087516907062856 $275 32.087516907062856 $268 $382 forward 7 unknown #
coedge $-1 $263 $169 $174 $278 forward $255 $-1 #
coedge $-1 $169 $263 $257 $373 reversed $255 $-1 #
vertex $-1 $170 $383 #
straight-curve $-1 0 32.087516907062856 8.2401080283874357 -1 0 0 I I #
coedge $-1 $171 $258 $173 $277 reversed $100 $-1 #
vertex $-1 $269 $384 #
straight-curve $-1 0 -32.087516907062856 8.2401080283874357 1 0 0 I I #
edge $-1 $176 -8.2401080283874357 $266 8.2401080283874357 $173 $385 forward 7 unknown #
edge $-1 $177 -8.2401080283874357 $265 8.2401080283874357 $174 $386 forward 7 unknown #
point $-1 68.531144138920254 -32.087516907062856 8.2401080283874357 #
point $-1 68.531144138920254 32.087516907062856 8.2401080283874357 #
face $-1 $-1 $290 $25 $-1 $387 reversed single #
loop $-1 $-1 $287 $179 #
plane-surface $-1 0 0 8.2401080283874357 0 0 1 1 0 0 forward_v I I I I #
coedge $-1 $388 $389 $186 $293 forward $180 $-1 #
coedge $-1 $182 $297 $390 $391 reversed $108 $-1 #
edge $-1 $392 -4.8700540141937179 $192 -1.8700540141937179 $182 $393 forward 7 unknown #
coedge $-1 $390 $394 $183 $288 forward $282 $-1 #
edge $-1 $291 -32.087516907062856 $392 32.087516907062856 $287 $395 forward 7 unknown #
coedge $-1 $294 $184 $394 $396 reversed $290 $-1 #
loop $-1 $-1 $184 $281 #
vertex $-1 $185 $397 #
straight-curve $-1 -60.301985367515634 -32.087516907062856 3.3700540141937179 0 0 1 I I #
edge $-1 $298 -32.087516907062856 $295 32.087516907062856 $284 $398 forward 7 unknown #
coedge $-1 $187 $289 $388 $399 forward $290 $-1 #
vertex $-1 $293 $400 #
straight-curve $-1 -32.20828237660897 -32.087516907062856 5.2401080283874357 1 0 0 I I #
coedge $-1 $285 $189 $389 $401 reversed $108 $-1 #
vertex $-1 $293 $402 #
straight-curve $-1 -32.20828237660897 32.087516907062856 5.2401080283874357 -1 0 0 I I #
point $-1 -60.301985367515634 32.087516907062856 5.2401080283874357 #
point $-1 -60.301985367515634 -32.087516907062856 5.2401080283874357 #
face $-1 $-1 $209 $26 $-1 $403 reversed single #
loop $-1 $-1 $311 $195 #
plane-surface $-1 0 32.087516907062856 0 0 -1 0 0 0 -1 forward_v I I I I #
coedge $-1 $203 $404 $199 $310 forward $196 $-1 #
coedge $-1 $405 $198 $404 $406 forward $116 $-1 #
coedge $-1 $198 $405 $407 $408 forward $116 $-1 #
coedge $-1 $200 $199 $198 $309 reversed $73 $-1 #
edge $-1 $409 -32.087516907062856 $410 32.087516907062856 $198 $411 forward 7 unknown #
edge $-1 $410 -4.8700540141937179 $313 -1.8700540141937179 $305 $412 forward 7 unknown #
coedge $-1 $407 $205 $200 $312 forward $303 $-1 #
edge $-1 $314 1.8700540141937179 $409 4.8700540141937179 $311 $413 forward 7 unknown #
vertex $-1 $204 $414 #
vertex $-1 $206 $415 #
straight-curve $-1 60.301985367515627 0 5.2401080283874357 0 1 0 I I #
coedge $-1 $404 $203 $208 $322 reversed $196 $-1 #
straight-curve $-1 32.20828237660897 -32.087516907062856 5.2401080283874357 1 0 0 I I #
coedge $-1 $205 $407 $207 $321 forward $303 $-1 #
straight-curve $-1 32.20828237660897 32.087516907062856 5.2401080283874357 -1 0 0 I I #
coedge $-1 $208 $207 $405 $416 reversed $209 $-1 #
edge $-1 $417 -8.2401080283874357 $211 -5.2401080283874357 $207 $418 forward 7 unknown #
edge $-1 $419 -8.2401080283874357 $210 -5.2401080283874357 $208 $420 forward 7 unknown #
point $-1 68.531144138920254 -32.087516907062856 5.2401080283874357 #
point $-1 68.531144138920254 32.087516907062856 5.2401080283874357 #
loop $-1 $-1 $220 $213 #
plane-surface $-1 0 32.087516907062856 0 0 -1 0 0 0 -1 forward_v I I I I #
coedge $-1 $421 $422 $217 $329 reversed $214 $-1 #
coedge $-1 $217 $216 $334 $423 reversed $77 $-1 #
edge $-1 $424 -64.175033814125698 $331 -55.30876327799227 $327 $425 forward 7 unknown #
coedge $-1 $223 $218 $422 $426 forward $124 $-1 #
vertex $-1 $426 $427 #
straight-curve $-1 21.318988744535041 27.129561449136744 8.2401080283874357 1 0 0 I I #
coedge $-1 $428 $220 $223 $338 reversed $325 $-1 #
coedge $-1 $220 $428 $328 $423 forward $325 $-1 #
vertex $-1 $221 $429 #
straight-curve $-1 24.973969610624536 32.087516907062856 65.368704310860366 0 0 1 I I #
straight-curve $-1 24.973969610624536 -3.7987058136002219 54.093151323960512 0 0.55919289150049634 -0.82903758062907751 I I #
edge $-1 $430 -60.301985367515627 $224 -24.973969610624536 $333 $431 forward 7 unknown #
point $-1 24.973969610624536 32.087516907062856 8.2401080283874357 #
point $-1 24.973969610624536 27.129561449136741 8.2401080283874393 #
edge $-1 $432 1 $432 0 $227 $-1 forward 7 unknown #
vertex $-1 $228 $433 #
ellipse-curve $-1 42.637977489070082 27.889615132860406 3.4054434189395701 0 0.82903758062907751 0.55919289150049634 1 0 0 1 I I #
point $-1 43.637977489070082 29.60853917809979 4.5648722911479576 #
loop $-1 $-1 $239 $231 #
plane-surface $-1 0 -32.087516907062856 0 0 1 0 0 0 1 forward_v I I I I #
coedge $-1 $348 $234 $236 $352 reversed $139 $-1 #
coedge $-1 $234 $347 $434 $435 reversed $139 $-1 #
coedge $-1 $242 $237 $234 $350 forward $232 $-1 #
edge $-1 $353 -32.391096698524024 $436 -26.148227381900021 $349 $437 forward 7 unknown #
coedge $-1 $236 $235 $356 $438 reversed $86 $-1 #
edge $-1 $439 -9.1534652039358102e-015 $353 7.9223149377573652 $347 $440 forward 7 unknown #
vertex $-1 $238 $441 #
straight-curve $-1 5.9110918209323913 -25.844647590438854 8.2401080283874357 -1 0 0 I I #
coedge $-1 $434 $239 $242 $360 reversed $345 $-1 #
coedge $-1 $239 $434 $351 $438 forward $345 $-1 #
vertex $-1 $240 $442 #
straight-curve $-1 26.865934347964107 -32.087516907062856 55.684600057380294 0 0 1 I I #
straight-curve $-1 26.865934347964107 -32.087516907062849 3.3626438646474099 0 -0.78801074757464917 -0.61566148304635926 I I #
edge $-1 $436 -3.2215670642345415 $243 26.865934347964107 $355 $443 forward 7 unknown #
point $-1 26.865934347964107 -32.087516907062856 8.2401080283874357 #
point $-1 26.865934347964107 -25.844647590438857 8.2401080283874357 #
edge $-1 $444 1 $444 0 $246 $-1 forward 7 unknown #
vertex $-1 $247 $445 #
ellipse-curve $-1 5.3748619106793569 -27.652895301163575 4.1205733353922254 0 -0.61566148304635926 0.78801074757464917 1.5 0 0 1 I I #
point $-1 6.8748619106793569 -28.966082248750876 5.801375946517437 #
edge $-1 $446 1 $446 0 $250 $-1 forward 7 unknown #
vertex $-1 $251 $447 #
ellipse-curve $-1 18.269505373050208 -27.652895301163575 4.1205733353922254 0 -0.61566148304635926 0.78801074757464917 1.5 0 0 1 I I #
point $-1 19.769505373050208 -28.966082248750876 5.801375946517437 #
plane-surface $-1 68.531144138920254 0 0 -1 0 0 0 0 1 forward_v I I I I #
coedge $-1 $259 $257 $261 $376 reversed $161 $-1 #
edge $-1 $272 -8.2401080283874357 $378 8.2401080283874357 $271 $448 forward 7 unknown #
vertex $-1 $376 $449 #
straight-curve $-1 -68.531144138920254 -32.087516907062856 0 0 0 -1 I I #
edge $-1 $374 -32.087516907062856 $378 32.087516907062856 $372 $450 forward 7 unknown #
straight-curve $-1 0 -32.087516907062856 -8.2401080283874357 -1 0 0 I I #
vertex $-1 $264 $451 #
straight-curve $-1 0 32.087516907062856 -8.2401080283874357 1 0 0 I I #
point $-1 68.531144138920254 32.087516907062856 -8.2401080283874357 #
point $-1 68.531144138920254 -32.087516907062856 -8.2401080283874357 #
straight-curve $-1 -68.531144138920254 0 8.2401080283874357 0 -1 0 I I #
point $-1 -68.531144138920254 32.087516907062856 8.2401080283874357 #
point $-1 -68.531144138920254 -32.087516907062856 8.2401080283874357 #
straight-curve $-1 68.531144138920254 -32.087516907062856 0 0 0 -1 I I #
straight-curve $-1 68.531144138920254 32.087516907062856 0 0 0 -1 I I #
plane-surface $-1 0 -32.087516907062856 0 0 1 0 0 0 1 forward_v I I I I #
coedge $-1 $452 $284 $294 $399 reversed $180 $-1 #
coedge $-1 $284 $452 $297 $401 forward $180 $-1 #
coedge $-1 $453 $287 $285 $391 forward $282 $-1 #
edge $-1 $392 60.301985367515634 $454 68.531144138920254 $285 $455 forward 7 unknown #
vertex $-1 $391 $456 #
straight-curve $-1 -60.301985367515634 32.087516907062856 3.3700540141937179 0 0 -1 I I #
coedge $-1 $287 $453 $289 $396 forward $282 $-1 #
straight-curve $-1 -60.301985367515634 0 8.2401080283874357 0 1 0 I I #
edge $-1 $457 -68.531144138920254 $291 -60.301985367515634 $289 $458 forward 7 unknown #
point $-1 -60.301985367515634 -32.087516907062856 8.2401080283874357 #
straight-curve $-1 -68.531144138920254 0 5.2401080283874357 0 -1 0 I I #
edge $-1 $457 -8.2401080283874357 $295 -5.2401080283874357 $388 $459 forward 7 unknown #
point $-1 -68.531144138920254 -32.087516907062856 5.2401080283874357 #
edge $-1 $454 -8.2401080283874357 $298 -5.2401080283874357 $297 $460 forward 7 unknown #
point $-1 -68.531144138920254 32.087516907062856 5.2401080283874357 #
plane-surface $-1 68.531144138920254 0 0 -1 0 0 0 0 1 forward_v I I I I #
coedge $-1 $305 $316 $306 $406 reversed $196 $-1 #
coedge $-1 $307 $306 $320 $416 forward $116 $-1 #
edge $-1 $410 60.301985367515627 $419 68.531144138920254 $404 $461 forward 7 unknown #
coedge $-1 $318 $311 $307 $408 reversed $303 $-1 #
edge $-1 $417 -68.531144138920254 $409 -60.301985367515627 $407 $462 forward 7 unknown #
vertex $-1 $312 $463 #
vertex $-1 $406 $464 #
straight-curve $-1 60.301985367515627 0 8.2401080283874357 0 -1 0 I I #
straight-curve $-1 60.301985367515627 -32.087516907062856 3.3700540141937179 0 0 -1 I I #
straight-curve $-1 60.301985367515627 32.087516907062856 3.3700540141937179 0 0 1 I I #
point $-1 60.301985367515627 -32.087516907062856 5.2401080283874357 #
point $-1 60.301985367515627 32.087516907062856 5.2401080283874357 #
edge $-1 $419 -32.087516907062856 $417 32.087516907062856 $320 $465 forward 7 unknown #
vertex $-1 $416 $466 #
straight-curve $-1 68.531144138920254 32.087516907062856 0 0 0 -1 I I #
vertex $-1 $416 $467 #
straight-curve $-1 68.531144138920254 -32.087516907062856 0 0 0 -1 I I #
coedge $-1 $422 $327 $428 $468 reversed $214 $-1 #
coedge $-1 $327 $421 $330 $426 reversed $214 $-1 #
edge $-1 $424 -38.982996622980586 $335 -3.6549808660894954 $334 $469 forward 7 unknown #
vertex $-1 $468 $470 #
straight-curve $-1 60.301985367515627 -3.7987058136002219 54.093151323960512 0 -0.55919289150049634 0.82903758062907751 I I #
edge $-1 $331 27.129561449136744 $430 32.087516907062856 $330 $471 forward 7 unknown #
point $-1 60.301985367515627 27.129561449136744 8.2401080283874357 #
coedge $-1 $334 $333 $421 $468 forward $325 $-1 #
point $-1 24.973969610624536 32.087516907062856 0.88963655390850249 #
vertex $-1 $338 $472 #
straight-curve $-1 0 32.087516907062856 8.2401080283874357 -1 0 0 I I #
vertex $-1 $341 $473 #
point $-1 43.637977489070082 27.889615132860406 3.4054434189395701 #
coedge $-1 $356 $355 $348 $435 forward $345 $-1 #
edge $-1 $436 47.444492028992855 $439 52.321956192732891 $434 $474 forward 7 unknown #
vertex $-1 $360 $475 #
straight-curve $-1 -3.2215670642345415 -58.235744288962877 8.2401080283874322 0 -1 0 I I #
edge $-1 $439 -9.1326588851669328 $357 20.954842527031715 $356 $476 forward 7 unknown #
vertex $-1 $438 $477 #
straight-curve $-1 -3.2215670642345415 -32.087516907062849 3.3626438646474099 0 0.78801074757464917 0.61566148304635926 I I #
point $-1 -3.2215670642345415 -25.844647590438857 8.2401080283874357 #
point $-1 26.865934347964107 -32.087516907062856 3.3626438646474042 #
straight-curve $-1 0 -32.087516907062856 8.2401080283874357 1 0 0 I I #
vertex $-1 $363 $478 #
point $-1 6.8748619106793569 -27.652895301163575 4.1205733353922254 #
vertex $-1 $367 $479 #
point $-1 19.769505373050208 -27.652895301163575 4.1205733353922254 #
straight-curve $-1 -68.531144138920254 32.087516907062856 0 0 0 -1 I I #
point $-1 -68.531144138920254 -32.087516907062856 -8.2401080283874357 #
straight-curve $-1 -68.531144138920254 0 -8.2401080283874357 0 1 0 I I #
point $-1 -68.531144138920254 32.087516907062856 -8.2401080283874357 #
coedge $-1 $389 $388 $453 $480 reversed $180 $-1 #
coedge $-1 $394 $390 $452 $480 forward $282 $-1 #
vertex $-1 $391 $481 #
straight-curve $-1 0 32.087516907062856 8.2401080283874357 -1 0 0 I I #
point $-1 -60.301985367515634 32.087516907062856 8.2401080283874357 #
vertex $-1 $480 $482 #
straight-curve $-1 0 -32.087516907062856 8.2401080283874357 1 0 0 I I #
straight-curve $-1 -68.531144138920254 -32.087516907062856 0 0 0 -1 I I #
straight-curve $-1 -68.531144138920254 32.087516907062856 0 0 0 -1 I I #
straight-curve $-1 0 -32.087516907062856 8.2401080283874357 1 0 0 I I #
straight-curve $-1 0 32.087516907062856 8.2401080283874357 -1 0 0 I I #
point $-1 60.301985367515627 32.087516907062856 8.2401080283874357 #
point $-1 60.301985367515627 -32.087516907062856 8.2401080283874357 #
straight-curve $-1 68.531144138920254 0 8.2401080283874357 0 1 0 I I #
point $-1 68.531144138920254 32.087516907062856 8.2401080283874357 #
point $-1 68.531144138920254 -32.087516907062856 8.2401080283874357 #
edge $-1 $430 57.128596282472927 $424 64.479067756951864 $428 $483 forward 7 unknown #
straight-curve $-1 21.318988744535041 32.087516907062856 0.88963655390849539 -1 0 0 I I #
point $-1 60.301985367515627 32.087516907062856 0.88963655390850249 #
straight-curve $-1 60.301985367515627 0 8.2401080283874357 0 1 0 I I #
point $-1 60.301985367515627 32.087516907062856 8.2401080283874357 #
point $-1 42.637977489070082 27.060577552231329 2.8462505274390741 #
straight-curve $-1 -3.2215670642345415 -32.087516907062856 55.684600057380294 0 0 -1 I I #
point $-1 -3.2215670642345415 -32.087516907062856 8.2401080283874357 #
straight-curve $-1 5.9110918209323913 -32.087516907062856 3.3626438646474024 1 0 0 I I #
point $-1 -3.2215670642345415 -32.087516907062856 3.3626438646474042 #
point $-1 5.3748619106793569 -26.729403076594039 2.9385572140302516 #
point $-1 18.269505373050208 -26.729403076594039 2.9385572140302516 #
edge $-1 $454 -32.087516907062856 $457 32.087516907062856 $452 $484 forward 7 unknown #
point $-1 -68.531144138920254 32.087516907062856 8.2401080283874357 #
point $-1 -68.531144138920254 -32.087516907062856 8.2401080283874357 #
straight-curve $-1 60.301985367515627 32.087516907062856 65.368704310860366 0 0 -1 I I #
straight-curve $-1 -68.531144138920254 0 8.2401080283874357 0 -1 0 I I #
End-of-ACIS-data 