500 0 7 0           
7 Unknown 11 ACIS 5.0 NT 24 Fri Mar 26 14:53:24 1999 
-1 9.9999999999999995e-007 1e-010 
body $-1 $7 $-1 $8 #
body $-1 $9 $-1 $10 #
body $-1 $11 $-1 $12 #
body $-1 $13 $-1 $14 #
body $-1 $15 $-1 $16 #
body $-1 $17 $-1 $18 #
body $-1 $19 $-1 $20 #
lump $-1 $-1 $21 $0 #
transform $-1 1 0 0 0 1 0 0 0 1 59.558702352977079 28.611152134700816 9.00316564060447 1 rotate no_reflect no_shear #
lump $-1 $-1 $22 $1 #
transform $-1 1 0 0 0 1 0 0 0 1 59.558702352977079 28.611152134700816 9.00316564060447 1 rotate no_reflect no_shear #
lump $-1 $-1 $23 $2 #
transform $-1 1 0 0 0 1 0 0 0 1 59.558702352977079 28.611152134700816 9.00316564060447 1 rotate no_reflect no_shear #
lump $-1 $-1 $24 $3 #
transform $-1 1 0 0 0 1 0 0 0 1 59.558702352977079 28.611152134700816 9.00316564060447 1 rotate no_reflect no_shear #
lump $-1 $-1 $25 $4 #
transform $-1 1 0 0 0 1 0 0 0 1 59.558702352977079 28.611152134700816 9.00316564060447 1 rotate no_reflect no_shear #
lump $-1 $-1 $26 $5 #
transform $-1 1 0 0 0 1 0 0 0 1 59.558702352977079 28.611152134700816 9.00316564060447 1 rotate no_reflect no_shear #
lump $-1 $-1 $27 $6 #
transform $-1 1 0 0 0 1 0 0 0 1 59.558702352977079 28.611152134700816 9.00316564060447 1 rotate no_reflect no_shear #
shell $-1 $-1 $-1 $28 $-1 $7 #
shell $-1 $-1 $-1 $29 $-1 $9 #
shell $-1 $-1 $-1 $30 $-1 $11 #
shell $-1 $-1 $-1 $31 $-1 $13 #
shell $-1 $-1 $-1 $32 $-1 $15 #
shell $-1 $-1 $-1 $33 $-1 $17 #
shell $-1 $-1 $-1 $34 $-1 $19 #
face $-1 $35 $36 $21 $-1 $37 forward single #
face $-1 $38 $39 $22 $-1 $40 reversed single #
face $-1 $41 $42 $23 $-1 $43 reversed single #
face $-1 $44 $45 $24 $-1 $46 forward single #
face $-1 $47 $48 $25 $-1 $49 forward single #
face $-1 $50 $51 $26 $-1 $52 reversed single #
face $-1 $53 $54 $27 $-1 $55 forward single #
face $-1 $56 $57 $21 $-1 $58 reversed single #
loop $-1 $-1 $59 $28 #
plane-surface $-1 0 0 9.00316564060447 0 0 1 1 0 0 forward_v I I I I #
face $-1 $60 $61 $22 $-1 $62 reversed single #
loop $-1 $-1 $63 $29 #
plane-surface $-1 -50.502328529132761 -25.027528423268844 0 1 0 0 0 0 -1 forward_v I I I I #
face $-1 $64 $65 $23 $-1 $66 reversed single #
loop $-1 $-1 $67 $30 #
plane-surface $-1 36.113958352476601 -9.2776053660859965 172.25215578281953 0 -1 0 -0.6018150307709319 0 -0.79863550430605224 forward_v I I I I #
face $-1 $68 $69 $24 $-1 $70 forward single #
loop $-1 $71 $72 $31 #
cone-surface $-1 56.770639953630237 -17.967819184479477 6.6613882703063121 -0.6018150307709319 0 -0.79863550430605224 0.79863550430605224 0 -0.6018150307709319 1 I I 0 1 1 forward I I I I #
face $-1 $73 $74 $25 $-1 $75 forward single #
loop $-1 $76 $77 $32 #
cone-surface $-1 56.770639953630237 -12.753690893443389 6.6613882703063121 -0.6018150307709319 0 -0.79863550430605224 0.79863550430605224 0 -0.6018150307709319 1 I I 0 1 1 forward I I I I #
face $-1 $78 $79 $26 $-1 $80 reversed single #
loop $-1 $-1 $81 $33 #
plane-surface $-1 -127.88163973214297 -17.181893380197543 101.02085156118247 0 1 0 -0.57357644374324357 0 0.81915203911291934 forward_v I I I I #
face $-1 $82 $83 $27 $-1 $84 forward single #
loop $-1 $85 $86 $34 #
cone-surface $-1 -54.956063274143141 -10.121475104241458 5.3187640059017429 0.57357644374324357 0 -0.81915203911291934 0.81915203911291934 0 0.57357644374324357 1 I I 0 1 1 forward I I I I #
face $-1 $87 $88 $21 $-1 $89 reversed single #
loop $-1 $-1 $90 $35 #
plane-surface $-1 0 0 -9.00316564060447 0 0 1 1 0 0 forward_v I I I I #
coedge $-1 $91 $92 $93 $94 forward $36 $-1 #
face $-1 $95 $96 $22 $-1 $97 reversed single #
loop $-1 $-1 $98 $38 #
plane-surface $-1 -49.002328529132761 -21.443904711836872 0 0 -1 0 0 0 -1 forward_v I I I I #
coedge $-1 $99 $100 $101 $102 forward $39 $-1 #
face $-1 $103 $104 $23 $-1 $105 reversed single #
loop $-1 $-1 $106 $41 #
plane-surface $-1 -35.572686225990751 -15.360755038961432 77.120767203851713 0.6018150307709319 0 0.79863550430605224 0.79863550430605224 0 -0.6018150307709319 forward_v I I I I #
coedge $-1 $107 $108 $109 $110 reversed $42 $-1 #
face $-1 $-1 $111 $24 $-1 $112 forward single #
loop $-1 $113 $114 $44 #
cone-surface $-1 56.049810017637725 -17.967819184479477 5.7048146554651726 -0.6018150307709319 0 -0.79863550430605224 0.39931775215302612 0 -0.30090751538546595 1 I I -0.70710678118654746 0.70710678118654746 0.5 forward I I I I #
loop $-1 $-1 $115 $31 #
coedge $-1 $72 $72 $116 $117 reversed $45 $-1 #
face $-1 $-1 $118 $25 $-1 $119 forward single #
loop $-1 $120 $121 $47 #
cone-surface $-1 56.049810017637725 -12.753690893443389 5.7048146554651726 -0.6018150307709319 0 -0.79863550430605224 0.39931775215302612 0 -0.30090751538546595 1 I I -0.70710678118654746 0.70710678118654746 0.5 forward I I I I #
loop $-1 $-1 $122 $32 #
coedge $-1 $77 $77 $123 $124 reversed $48 $-1 #
face $-1 $125 $126 $26 $-1 $127 reversed single #
loop $-1 $-1 $128 $50 #
plane-surface $-1 -59.558702352977079 -10.121475104241458 3.4455866024612618 -0.57357644374324357 0 0.81915203911291934 0.81915203911291934 0 0.57357644374324357 forward_v I I I I #
coedge $-1 $129 $130 $131 $132 reversed $51 $-1 #
face $-1 $-1 $133 $27 $-1 $134 forward single #
loop $-1 $135 $136 $53 #
cone-surface $-1 -54.035158610033264 -10.121475104241458 4.0035758707141582 0.57357644374324357 0 -0.81915203911291934 0.40957601955645967 0 0.28678822187162178 1 I I -0.70710678118654746 0.70710678118654746 0.5 forward I I I I #
loop $-1 $-1 $137 $34 #
coedge $-1 $86 $86 $138 $139 reversed $54 $-1 #
face $-1 $140 $141 $21 $-1 $142 reversed single #
loop $-1 $-1 $143 $56 #
plane-surface $-1 0 -28.611152134700816 0 0 1 0 0 0 1 forward_v I I I I #
coedge $-1 $144 $145 $146 $147 forward $57 $-1 #
coedge $-1 $148 $59 $149 $150 forward $36 $-1 #
coedge $-1 $59 $148 $151 $152 forward $36 $-1 #
coedge $-1 $153 $154 $59 $94 reversed $155 $-1 #
edge $-1 $156 -28.611152134700816 $157 28.611152134700816 $93 $158 forward 7 unknown #
face $-1 $159 $160 $22 $-1 $161 forward single #
loop $-1 $-1 $162 $60 #
plane-surface $-1 -47.502328529132761 -25.027528423268844 0 -1 0 0 0 0 1 forward_v I I I I #
coedge $-1 $163 $164 $165 $166 forward $61 $-1 #
coedge $-1 $167 $63 $168 $169 reversed $39 $-1 #
coedge $-1 $63 $167 $170 $171 reversed $39 $-1 #
coedge $-1 $164 $163 $63 $102 reversed $61 $-1 #
edge $-1 $172 -9.00316564060447 $173 9.00316564060447 $101 $174 forward 7 unknown #
face $-1 $175 $176 $23 $-1 $177 reversed single #
loop $-1 $-1 $178 $64 #
plane-surface $-1 36.113958352476601 -21.443904711836868 172.25215578281953 0 1 0 0.6018150307709319 0 0.79863550430605224 forward_v I I I I #
coedge $-1 $179 $180 $181 $182 reversed $65 $-1 #
coedge $-1 $108 $67 $183 $184 reversed $42 $-1 #
coedge $-1 $67 $107 $179 $185 reversed $42 $-1 #
coedge $-1 $181 $186 $67 $110 forward $187 $-1 #
edge $-1 $188 -41.501723176738778 $189 -36.765443219259225 $109 $190 forward 7 unknown #
loop $-1 $-1 $116 $68 #
plane-surface $-1 -35.572686225990751 -15.360755038961432 77.120767203851713 0.6018150307709319 0 0.79863550430605224 0.79863550430605224 0 -0.6018150307709319 forward_v I I I I #
loop $-1 $-1 $191 $44 #
coedge $-1 $114 $114 $115 $192 reversed $69 $-1 #
coedge $-1 $115 $115 $114 $192 forward $71 $-1 #
coedge $-1 $116 $116 $72 $117 forward $111 $-1 #
edge $-1 $193 0 $193 6.2831853071796004 $116 $194 forward 7 unknown #
loop $-1 $-1 $123 $73 #
plane-surface $-1 -35.572686225990751 -15.360755038961432 77.120767203851713 0.6018150307709319 0 0.79863550430605224 0.79863550430605224 0 -0.6018150307709319 forward_v I I I I #
loop $-1 $-1 $195 $47 #
coedge $-1 $121 $121 $122 $196 reversed $74 $-1 #
coedge $-1 $122 $122 $121 $196 forward $76 $-1 #
coedge $-1 $123 $123 $77 $124 forward $118 $-1 #
edge $-1 $197 0 $197 6.2831853071796004 $123 $198 forward 7 unknown #
face $-1 $199 $200 $26 $-1 $201 reversed single #
loop $-1 $-1 $202 $78 #
plane-surface $-1 -127.88163973214297 -3.0610568282853734 101.02085156118247 0 -1 0 0.57357644374324357 0 -0.81915203911291934 forward_v I I I I #
coedge $-1 $203 $204 $205 $206 reversed $79 $-1 #
coedge $-1 $130 $81 $207 $208 reversed $51 $-1 #
coedge $-1 $81 $129 $203 $209 reversed $51 $-1 #
coedge $-1 $205 $210 $81 $132 forward $211 $-1 #
edge $-1 $212 4.382117513094407 $213 12.319162786285773 $131 $214 forward 7 unknown #
loop $-1 $-1 $138 $82 #
plane-surface $-1 -59.558702352977079 -10.121475104241458 3.4455866024612618 -0.57357644374324357 0 0.81915203911291934 0.81915203911291934 0 0.57357644374324357 forward_v I I I I #
loop $-1 $-1 $215 $53 #
coedge $-1 $136 $136 $137 $216 reversed $83 $-1 #
coedge $-1 $137 $137 $136 $216 forward $85 $-1 #
coedge $-1 $138 $138 $86 $139 forward $133 $-1 #
edge $-1 $217 0 $217 6.2831853071796004 $138 $218 forward 7 unknown #
face $-1 $219 $220 $21 $-1 $221 reversed single #
loop $-1 $-1 $222 $87 #
plane-surface $-1 -59.558702352977079 0 0 1 0 0 0 0 -1 forward_v I I I I #
coedge $-1 $223 $151 $224 $225 forward $88 $-1 #
coedge $-1 $226 $90 $223 $227 forward $57 $-1 #
coedge $-1 $90 $226 $228 $229 forward $57 $-1 #
coedge $-1 $154 $153 $90 $147 reversed $155 $-1 #
edge $-1 $230 -28.611152134700816 $231 28.611152134700816 $146 $232 forward 7 unknown #
coedge $-1 $92 $91 $233 $234 forward $36 $-1 #
coedge $-1 $235 $236 $91 $150 reversed $220 $-1 #
edge $-1 $157 -59.558702352977079 $237 59.558702352977079 $149 $238 forward 7 unknown #
coedge $-1 $143 $239 $92 $152 reversed $88 $-1 #
edge $-1 $240 -59.558702352977079 $156 59.558702352977079 $151 $241 forward 7 unknown #
coedge $-1 $146 $93 $239 $242 forward $155 $-1 #
coedge $-1 $93 $146 $235 $243 reversed $155 $-1 #
loop $-1 $-1 $153 $219 #
vertex $-1 $94 $244 #
vertex $-1 $94 $245 #
straight-curve $-1 59.558702352977079 0 9.00316564060447 0 1 0 I I #
face $-1 $246 $247 $22 $-1 $248 reversed single #
loop $-1 $-1 $249 $95 #
plane-surface $-1 0 0 9.00316564060447 0 0 1 1 0 0 forward_v I I I I #
coedge $-1 $250 $251 $252 $253 reversed $96 $-1 #
coedge $-1 $101 $98 $254 $255 reversed $61 $-1 #
coedge $-1 $98 $101 $256 $257 reversed $61 $-1 #
coedge $-1 $251 $250 $98 $166 reversed $96 $-1 #
edge $-1 $258 -9.00316564060447 $259 9.00316564060447 $165 $260 forward 7 unknown #
coedge $-1 $100 $99 $261 $262 reversed $39 $-1 #
coedge $-1 $254 $263 $99 $169 forward $247 $-1 #
edge $-1 $264 -16.097387923066393 $173 -8.9301405002024499 $168 $265 forward 7 unknown #
coedge $-1 $266 $256 $100 $171 forward $160 $-1 #
edge $-1 $172 8.9301405002024499 $267 16.097387923066393 $170 $268 forward 7 unknown #
vertex $-1 $171 $269 #
vertex $-1 $169 $270 #
straight-curve $-1 -50.502328529132761 -21.443904711836872 0 0 0 -1 I I #
face $-1 $-1 $187 $23 $-1 $271 forward single #
loop $-1 $-1 $272 $103 #
plane-surface $-1 59.558702352977079 0 0 -1 0 0 0 0 1 forward_v I I I I #
coedge $-1 $273 $274 $275 $276 reversed $104 $-1 #
coedge $-1 $277 $106 $108 $185 forward $65 $-1 #
coedge $-1 $106 $277 $273 $278 forward $65 $-1 #
coedge $-1 $275 $109 $106 $182 forward $187 $-1 #
edge $-1 $189 1.5972278466052803 $279 13.763527192356152 $181 $280 forward 7 unknown #
coedge $-1 $281 $282 $107 $184 forward $176 $-1 #
edge $-1 $283 -80.691955266025403 $188 -77.1229122508053 $183 $284 forward 7 unknown #
edge $-1 $189 113.18693964155038 $283 119.11740470595419 $108 $285 forward 7 unknown #
coedge $-1 $109 $275 $281 $286 forward $187 $-1 #
loop $-1 $-1 $275 $175 #
vertex $-1 $184 $287 #
vertex $-1 $110 $288 #
straight-curve $-1 18.056979176238301 -9.2776053660859965 9.0031656406044647 -1 0 0 I I #
coedge $-1 $191 $191 $-1 $289 reversed $113 $-1 #
edge $-1 $290 0 $290 6.2831853071796004 $114 $291 forward 7 unknown #
vertex $-1 $117 $292 #
ellipse-curve $-1 57.190562374237281 -17.967819184479477 7.2186441329944211 0.6018150307709319 0 0.79863550430605224 0.79863550430605224 0 -0.6018150307709319 1 I I #
coedge $-1 $195 $195 $-1 $293 reversed $120 $-1 #
edge $-1 $294 0 $294 6.2831853071796004 $121 $295 forward 7 unknown #
vertex $-1 $124 $296 #
ellipse-curve $-1 57.190562374237281 -12.753690893443389 7.2186441329944211 0.6018150307709319 0 0.79863550430605224 0.79863550430605224 0 -0.6018150307709319 1 I I #
face $-1 $-1 $211 $26 $-1 $297 forward single #
loop $-1 $-1 $298 $125 #
plane-surface $-1 -59.558702352977079 0 0 1 0 0 0 0 -1 forward_v I I I I #
coedge $-1 $299 $300 $301 $302 reversed $126 $-1 #
coedge $-1 $303 $128 $130 $209 forward $79 $-1 #
coedge $-1 $128 $303 $299 $304 forward $79 $-1 #
coedge $-1 $301 $131 $128 $206 forward $211 $-1 #
edge $-1 $213 -12.121155828076814 $305 1.9996807238353558 $205 $306 forward 7 unknown #
coedge $-1 $307 $308 $129 $208 forward $200 $-1 #
edge $-1 $309 -47.064839178129972 $212 -41.507260139986762 $207 $310 forward 7 unknown #
edge $-1 $213 -9.6893432405864424 $309 0 $130 $311 forward 7 unknown #
coedge $-1 $131 $301 $307 $312 forward $211 $-1 #
loop $-1 $-1 $301 $199 #
vertex $-1 $208 $313 #
vertex $-1 $132 $314 #
straight-curve $-1 -63.940819866071486 -17.181893380197543 9.0031656406044718 1 0 0 I I #
coedge $-1 $215 $215 $-1 $315 reversed $135 $-1 #
edge $-1 $316 0 $316 6.2831853071796004 $136 $317 forward 7 unknown #
vertex $-1 $139 $318 #
ellipse-curve $-1 -55.590179716381392 -10.121475104241458 6.2243761215328668 -0.57357644374324357 0 0.81915203911291934 0.81915203911291934 0 0.57357644374324357 1 I I #
face $-1 $-1 $155 $21 $-1 $319 reversed single #
loop $-1 $-1 $235 $140 #
plane-surface $-1 0 28.611152134700816 0 0 -1 0 0 0 -1 forward_v I I I I #
coedge $-1 $320 $233 $236 $321 forward $141 $-1 #
coedge $-1 $239 $143 $144 $227 reversed $88 $-1 #
coedge $-1 $233 $320 $143 $225 reversed $141 $-1 #
edge $-1 $240 -9.00316564060447 $322 9.00316564060447 $224 $323 forward 7 unknown #
coedge $-1 $145 $144 $320 $324 forward $57 $-1 #
edge $-1 $231 -59.558702352977079 $322 59.558702352977079 $223 $325 forward 7 unknown #
coedge $-1 $236 $235 $145 $229 reversed $220 $-1 #
edge $-1 $326 -59.558702352977079 $230 59.558702352977079 $228 $327 forward 7 unknown #
vertex $-1 $147 $328 #
vertex $-1 $242 $329 #
straight-curve $-1 59.558702352977079 0 -9.00316564060447 0 -1 0 I I #
coedge $-1 $222 $224 $148 $234 reversed $141 $-1 #
edge $-1 $237 -28.611152134700816 $240 28.611152134700816 $233 $330 forward 7 unknown #
coedge $-1 $228 $149 $154 $243 forward $220 $-1 #
coedge $-1 $149 $228 $222 $321 reversed $220 $-1 #
vertex $-1 $150 $331 #
straight-curve $-1 0 28.611152134700816 9.00316564060447 -1 0 0 I I #
coedge $-1 $151 $223 $153 $242 reversed $88 $-1 #
vertex $-1 $234 $332 #
straight-curve $-1 0 -28.611152134700816 9.00316564060447 1 0 0 I I #
edge $-1 $156 -9.00316564060447 $231 9.00316564060447 $153 $333 forward 7 unknown #
edge $-1 $157 -9.00316564060447 $230 9.00316564060447 $154 $334 forward 7 unknown #
point $-1 59.558702352977079 -28.611152134700816 9.00316564060447 #
point $-1 59.558702352977079 28.611152134700816 9.00316564060447 #
face $-1 $-1 $335 $22 $-1 $336 reversed single #
loop $-1 $-1 $337 $159 #
plane-surface $-1 0 0 -9.00316564060447 0 0 1 1 0 0 forward_v I I I I #
coedge $-1 $256 $266 $251 $338 forward $160 $-1 #
coedge $-1 $165 $162 $337 $339 reversed $96 $-1 #
coedge $-1 $162 $165 $249 $338 reversed $96 $-1 #
coedge $-1 $340 $341 $162 $253 forward $335 $-1 #
edge $-1 $342 -9.00316564060447 $343 9.00316564060447 $252 $344 forward 7 unknown #
coedge $-1 $337 $168 $163 $255 forward $247 $-1 #
edge $-1 $173 -26.001164264566381 $259 -23.001164264566381 $254 $345 forward 7 unknown #
coedge $-1 $170 $249 $164 $257 forward $160 $-1 #
edge $-1 $258 23.001164264566381 $172 26.001164264566381 $256 $346 forward 7 unknown #
vertex $-1 $257 $347 #
vertex $-1 $255 $348 #
straight-curve $-1 -47.502328529132761 -21.443904711836872 0 0 0 -1 I I #
coedge $-1 $341 $340 $167 $262 forward $335 $-1 #
edge $-1 $267 -9.00316564060447 $264 9.00316564060447 $261 $349 forward 7 unknown #
coedge $-1 $168 $337 $341 $350 forward $247 $-1 #
vertex $-1 $169 $351 #
straight-curve $-1 -50.502328529132761 -12.513764211634422 -9.00316564060447 0 1 0 I I #
coedge $-1 $249 $170 $340 $352 forward $160 $-1 #
vertex $-1 $352 $353 #
straight-curve $-1 -50.502328529132761 -12.513764211634422 9.00316564060447 0 -1 0 I I #
point $-1 -50.502328529132761 -21.443904711836872 9.00316564060447 #
point $-1 -50.502328529132761 -21.443904711836872 -9.00316564060447 #
plane-surface $-1 0 0 9.00316564060447 0 0 1 1 0 0 forward_v I I I I #
coedge $-1 $282 $281 $274 $354 forward $176 $-1 #
coedge $-1 $274 $178 $180 $278 reversed $104 $-1 #
coedge $-1 $178 $273 $272 $354 reversed $104 $-1 #
coedge $-1 $186 $181 $178 $276 forward $187 $-1 #
edge $-1 $279 36.765443219259225 $355 41.501723176738778 $275 $356 forward 7 unknown #
coedge $-1 $180 $179 $282 $357 reversed $65 $-1 #
edge $-1 $358 -119.11740470595419 $279 -113.18693964155038 $273 $359 forward 7 unknown #
vertex $-1 $182 $360 #
straight-curve $-1 54.822422395497519 -7.6803775194807162 9.0031656406044718 0 -1 0 I I #
coedge $-1 $272 $183 $186 $286 reversed $176 $-1 #
coedge $-1 $183 $272 $277 $357 forward $176 $-1 #
vertex $-1 $184 $361 #
straight-curve $-1 59.558702352977079 -9.2776053660859965 86.126077891409764 0 0 1 I I #
straight-curve $-1 -35.572686225990751 -9.2776053660859965 77.120767203851713 0.79863550430605224 0 -0.6018150307709319 I I #
edge $-1 $355 -21.443904711836868 $188 -9.2776053660859965 $281 $362 forward 7 unknown #
point $-1 59.558702352977079 -9.2776053660859965 9.00316564060447 #
point $-1 54.822422395497526 -9.2776053660859965 9.0031656406044647 #
edge $-1 $363 1 $363 0 $191 $-1 forward 7 unknown #
vertex $-1 $192 $364 #
ellipse-curve $-1 56.350717533023193 -17.967819184479477 6.1041324076181986 0.6018150307709319 0 0.79863550430605224 0.79863550430605224 0 -0.6018150307709319 1 I I #
point $-1 57.989197878543344 -17.967819184479477 6.6168291022234937 #
edge $-1 $365 1 $365 0 $195 $-1 forward 7 unknown #
vertex $-1 $196 $366 #
ellipse-curve $-1 56.350717533023193 -12.753690893443389 6.1041324076181986 0.6018150307709319 0 0.79863550430605224 0.79863550430605224 0 -0.6018150307709319 1 I I #
point $-1 57.989197878543344 -12.753690893443389 6.6168291022234937 #
plane-surface $-1 0 0 9.00316564060447 0 0 1 1 0 0 forward_v I I I I #
coedge $-1 $308 $307 $300 $367 forward $200 $-1 #
coedge $-1 $300 $202 $204 $304 reversed $126 $-1 #
coedge $-1 $202 $299 $298 $367 reversed $126 $-1 #
coedge $-1 $210 $205 $202 $302 forward $211 $-1 #
edge $-1 $305 -12.319162786285773 $368 -4.382117513094407 $301 $369 forward 7 unknown #
coedge $-1 $204 $203 $308 $370 reversed $79 $-1 #
edge $-1 $371 0 $305 9.6893432405864424 $299 $372 forward 7 unknown #
vertex $-1 $206 $373 #
straight-curve $-1 -51.62165707978572 -5.0607375521207292 9.0031656406044718 0 1 0 I I #
coedge $-1 $298 $207 $210 $312 reversed $200 $-1 #
coedge $-1 $207 $298 $303 $370 forward $200 $-1 #
vertex $-1 $208 $374 #
straight-curve $-1 -59.558702352977079 -17.181893380197543 50.510425780591234 0 0 1 I I #
straight-curve $-1 -59.558702352977079 -17.181893380197543 3.4455866024612618 -0.81915203911291934 0 -0.57357644374324357 I I #
edge $-1 $368 3.0610568282853734 $212 17.181893380197543 $307 $375 forward 7 unknown #
point $-1 -59.558702352977079 -17.181893380197543 9.00316564060447 #
point $-1 -51.621657079785713 -17.181893380197543 9.00316564060447 #
edge $-1 $376 1 $376 0 $215 $-1 forward 7 unknown #
vertex $-1 $216 $377 #
ellipse-curve $-1 -54.321946831904889 -10.121475104241458 4.4131518902706182 -0.57357644374324357 0 0.81915203911291934 0.81915203911291934 0 0.57357644374324357 1 I I #
point $-1 -54.771027677268478 -10.121475104241458 6.7979525652761108 #
plane-surface $-1 59.558702352977079 0 0 -1 0 0 0 0 1 forward_v I I I I #
coedge $-1 $224 $222 $226 $324 reversed $141 $-1 #
edge $-1 $237 -9.00316564060447 $326 9.00316564060447 $236 $378 forward 7 unknown #
vertex $-1 $324 $379 #
straight-curve $-1 -59.558702352977079 -28.611152134700816 0 0 0 -1 I I #
edge $-1 $322 -28.611152134700816 $326 28.611152134700816 $320 $380 forward 7 unknown #
straight-curve $-1 0 -28.611152134700816 -9.00316564060447 -1 0 0 I I #
vertex $-1 $229 $381 #
straight-curve $-1 0 28.611152134700816 -9.00316564060447 1 0 0 I I #
point $-1 59.558702352977079 28.611152134700816 -9.00316564060447 #
point $-1 59.558702352977079 -28.611152134700816 -9.00316564060447 #
straight-curve $-1 -59.558702352977079 0 9.00316564060447 0 -1 0 I I #
point $-1 -59.558702352977079 28.611152134700816 9.00316564060447 #
point $-1 -59.558702352977079 -28.611152134700816 9.00316564060447 #
straight-curve $-1 59.558702352977079 -28.611152134700816 0 0 0 -1 I I #
straight-curve $-1 59.558702352977079 28.611152134700816 0 0 0 -1 I I #
loop $-1 $-1 $252 $246 #
plane-surface $-1 0 -28.611152134700816 0 0 1 0 0 0 1 forward_v I I I I #
coedge $-1 $263 $254 $250 $339 forward $247 $-1 #
edge $-1 $343 -16.097387923066393 $258 -8.9301405002024499 $249 $382 forward 7 unknown #
edge $-1 $259 8.9301405002024499 $342 16.097387923066393 $337 $383 forward 7 unknown #
coedge $-1 $261 $252 $266 $352 reversed $335 $-1 #
coedge $-1 $252 $261 $263 $350 reversed $335 $-1 #
vertex $-1 $350 $384 #
vertex $-1 $253 $385 #
straight-curve $-1 -47.502328529132761 -28.611152134700816 0 0 0 1 I I #
straight-curve $-1 -24.501164264566381 -21.443904711836872 -9.00316564060447 1 0 0 I I #
straight-curve $-1 -24.501164264566381 -21.443904711836872 9.00316564060447 -1 0 0 I I #
point $-1 -47.502328529132761 -21.443904711836872 9.00316564060447 #
point $-1 -47.502328529132761 -21.443904711836872 -9.00316564060447 #
straight-curve $-1 -50.502328529132761 -28.611152134700816 0 0 0 -1 I I #
edge $-1 $342 47.502328529132761 $264 50.502328529132761 $341 $386 forward 7 unknown #
point $-1 -50.502328529132761 -28.611152134700816 -9.00316564060447 #
edge $-1 $267 -50.502328529132761 $343 -47.502328529132761 $340 $387 forward 7 unknown #
point $-1 -50.502328529132761 -28.611152134700816 9.00316564060447 #
edge $-1 $355 77.1229122508053 $358 80.691955266025403 $272 $388 forward 7 unknown #
vertex $-1 $286 $389 #
straight-curve $-1 18.056979176238301 -21.443904711836868 9.0031656406044647 1 0 0 I I #
edge $-1 $358 -13.763527192356152 $283 -1.5972278466052803 $282 $390 forward 7 unknown #
vertex $-1 $357 $391 #
straight-curve $-1 -35.572686225990751 -21.443904711836868 77.120767203851713 -0.79863550430605224 0 0.6018150307709319 I I #
point $-1 54.822422395497526 -21.443904711836868 9.0031656406044647 #
point $-1 59.558702352977079 -9.2776053660859965 5.4341226253843615 #
straight-curve $-1 59.558702352977079 0 9.00316564060447 0 1 0 I I #
vertex $-1 $289 $392 #
point $-1 57.149353037329242 -17.967819184479477 5.5023173768472668 #
vertex $-1 $293 $393 #
point $-1 57.149353037329242 -12.753690893443389 5.5023173768472668 #
edge $-1 $368 41.507260139986762 $371 47.064839178129972 $298 $394 forward 7 unknown #
vertex $-1 $312 $395 #
straight-curve $-1 -63.940819866071486 -3.0610568282853734 9.0031656406044718 -1 0 0 I I #
edge $-1 $371 -1.9996807238353558 $309 12.121155828076814 $308 $396 forward 7 unknown #
vertex $-1 $370 $397 #
straight-curve $-1 -59.558702352977079 -3.0610568282853734 3.4455866024612618 0.81915203911291934 0 0.57357644374324357 I I #
point $-1 -51.621657079785713 -3.0610568282853734 9.00316564060447 #
point $-1 -59.558702352977079 -17.181893380197543 3.4455866024612618 #
straight-curve $-1 -59.558702352977079 0 9.00316564060447 0 -1 0 I I #
vertex $-1 $315 $398 #
point $-1 -53.502794792791967 -10.121475104241458 4.9867283340138613 #
straight-curve $-1 -59.558702352977079 28.611152134700816 0 0 0 -1 I I #
point $-1 -59.558702352977079 -28.611152134700816 -9.00316564060447 #
straight-curve $-1 -59.558702352977079 0 -9.00316564060447 0 1 0 I I #
point $-1 -59.558702352977079 28.611152134700816 -9.00316564060447 #
straight-curve $-1 -47.502328529132761 -12.513764211634422 9.00316564060447 0 1 0 I I #
straight-curve $-1 -47.502328529132761 -12.513764211634422 -9.00316564060447 0 -1 0 I I #
point $-1 -47.502328529132761 -28.611152134700816 -9.00316564060447 #
point $-1 -47.502328529132761 -28.611152134700816 9.00316564060447 #
straight-curve $-1 0 -28.611152134700816 -9.00316564060447 -1 0 0 I I #
straight-curve $-1 0 -28.611152134700816 9.00316564060447 1 0 0 I I #
straight-curve $-1 59.558702352977079 -21.443904711836868 86.126077891409764 0 0 -1 I I #
point $-1 59.558702352977079 -21.443904711836868 9.00316564060447 #
straight-curve $-1 59.558702352977072 -7.6803775194807162 5.4341226253843615 0 1 0 I I #
point $-1 59.558702352977079 -21.443904711836868 5.4341226253843615 #
point $-1 55.748902502252257 -17.967819184479477 5.3054969033121466 #
point $-1 55.748902502252257 -12.753690893443389 5.3054969033121466 #
straight-curve $-1 -59.558702352977079 -3.0610568282853734 50.510425780591234 0 0 -1 I I #
point $-1 -59.558702352977079 -3.0610568282853734 9.00316564060447 #
straight-curve $-1 -59.558702352977079 -5.0607375521207292 3.4455866024612627 0 -1 0 I I #
point $-1 -59.558702352977079 -3.0610568282853734 3.4455866024612618 #
point $-1 -53.748370388161639 -10.121475104241458 3.5939998511576987 #
End-of-ACIS-data 