500 0 16 0           
7 Unknown 11 ACIS 5.0 NT 24 Thu Mar 25 20:55:16 1999 
-1 9.9999999999999995e-007 1e-010 
body $-1 $16 $-1 $17 #
body $-1 $18 $-1 $19 #
body $-1 $20 $-1 $21 #
body $-1 $22 $-1 $23 #
body $-1 $24 $-1 $25 #
body $-1 $26 $-1 $27 #
body $-1 $28 $-1 $29 #
body $-1 $30 $-1 $31 #
body $-1 $32 $-1 $33 #
body $-1 $34 $-1 $35 #
body $-1 $36 $-1 $37 #
body $-1 $38 $-1 $39 #
body $-1 $40 $-1 $41 #
body $-1 $42 $-1 $43 #
body $-1 $44 $-1 $45 #
body $-1 $46 $-1 $47 #
lump $-1 $-1 $48 $0 #
transform $-1 1 0 0 0 1 0 0 0 1 53.451338236640524 35.490729411087884 7.2827102393955112 1 rotate no_reflect no_shear #
lump $-1 $-1 $49 $1 #
transform $-1 1 0 0 0 1 0 0 0 1 53.451338236640524 35.490729411087884 7.2827102393955112 1 rotate no_reflect no_shear #
lump $-1 $-1 $50 $2 #
transform $-1 1 0 0 0 1 0 0 0 1 53.451338236640524 35.490729411087884 7.2827102393955112 1 rotate no_reflect no_shear #
lump $-1 $-1 $51 $3 #
transform $-1 1 0 0 0 1 0 0 0 1 53.451338236640524 35.490729411087884 7.2827102393955112 1 rotate no_reflect no_shear #
lump $-1 $-1 $52 $4 #
transform $-1 1 0 0 0 1 0 0 0 1 53.451338236640524 35.490729411087884 7.2827102393955112 1 rotate no_reflect no_shear #
lump $-1 $-1 $53 $5 #
transform $-1 1 0 0 0 1 0 0 0 1 53.451338236640524 35.490729411087884 7.2827102393955112 1 rotate no_reflect no_shear #
lump $-1 $-1 $54 $6 #
transform $-1 1 0 0 0 1 0 0 0 1 53.451338236640524 35.490729411087884 7.2827102393955112 1 rotate no_reflect no_shear #
lump $-1 $-1 $55 $7 #
transform $-1 1 0 0 0 1 0 0 0 1 53.451338236640524 35.490729411087884 7.2827102393955112 1 rotate no_reflect no_shear #
lump $-1 $-1 $56 $8 #
transform $-1 1 0 0 0 1 0 0 0 1 53.451338236640524 35.490729411087884 7.2827102393955112 1 rotate no_reflect no_shear #
lump $-1 $-1 $57 $9 #
transform $-1 1 0 0 0 1 0 0 0 1 53.451338236640524 35.490729411087884 7.2827102393955112 1 rotate no_reflect no_shear #
lump $-1 $-1 $58 $10 #
transform $-1 1 0 0 0 1 0 0 0 1 53.451338236640524 35.490729411087884 7.2827102393955112 1 rotate no_reflect no_shear #
lump $-1 $-1 $59 $11 #
transform $-1 1 0 0 0 1 0 0 0 1 53.451338236640524 35.490729411087884 7.2827102393955112 1 rotate no_reflect no_shear #
lump $-1 $-1 $60 $12 #
transform $-1 1 0 0 0 1 0 0 0 1 53.451338236640524 35.490729411087884 7.2827102393955112 1 rotate no_reflect no_shear #
lump $-1 $-1 $61 $13 #
transform $-1 1 0 0 0 1 0 0 0 1 53.451338236640524 35.490729411087884 7.2827102393955112 1 rotate no_reflect no_shear #
lump $-1 $-1 $62 $14 #
transform $-1 1 0 0 0 1 0 0 0 1 53.451338236640524 35.490729411087884 7.2827102393955112 1 rotate no_reflect no_shear #
lump $-1 $-1 $63 $15 #
transform $-1 1 0 0 0 1 0 0 0 1 53.451338236640524 35.490729411087884 7.2827102393955112 1 rotate no_reflect no_shear #
shell $-1 $-1 $-1 $64 $-1 $16 #
shell $-1 $-1 $-1 $65 $-1 $18 #
shell $-1 $-1 $-1 $66 $-1 $20 #
shell $-1 $-1 $-1 $67 $-1 $22 #
shell $-1 $-1 $-1 $68 $-1 $24 #
shell $-1 $-1 $-1 $69 $-1 $26 #
shell $-1 $-1 $-1 $70 $-1 $28 #
shell $-1 $-1 $-1 $71 $-1 $30 #
shell $-1 $-1 $-1 $72 $-1 $32 #
shell $-1 $-1 $-1 $73 $-1 $34 #
shell $-1 $-1 $-1 $74 $-1 $36 #
shell $-1 $-1 $-1 $75 $-1 $38 #
shell $-1 $-1 $-1 $76 $-1 $40 #
shell $-1 $-1 $-1 $77 $-1 $42 #
shell $-1 $-1 $-1 $78 $-1 $44 #
shell $-1 $-1 $-1 $79 $-1 $46 #
face $-1 $80 $81 $48 $-1 $82 forward single #
face $-1 $83 $84 $49 $-1 $85 forward single #
face $-1 $86 $87 $50 $-1 $88 reversed single #
face $-1 $89 $90 $51 $-1 $91 forward single #
face $-1 $92 $93 $52 $-1 $94 reversed single #
face $-1 $95 $96 $53 $-1 $97 forward single #
face $-1 $98 $99 $54 $-1 $100 forward single #
face $-1 $101 $102 $55 $-1 $103 reversed single #
face $-1 $104 $105 $56 $-1 $106 forward single #
face $-1 $107 $108 $57 $-1 $109 forward single #
face $-1 $110 $111 $58 $-1 $112 reversed single #
face $-1 $113 $114 $59 $-1 $115 forward single #
face $-1 $116 $117 $60 $-1 $118 forward single #
face $-1 $119 $120 $61 $-1 $121 reversed single #
face $-1 $122 $123 $62 $-1 $124 forward single #
face $-1 $125 $126 $63 $-1 $127 forward single #
face $-1 $128 $129 $48 $-1 $130 reversed single #
loop $-1 $-1 $131 $64 #
plane-surface $-1 0 0 7.2827102393955112 0 0 1 1 0 0 forward_v I I I I #
face $-1 $132 $133 $49 $-1 $134 forward single #
loop $-1 $-1 $135 $65 #
plane-surface $-1 -53.451338236640524 0 0 1 0 0 0 0 -1 forward_v I I I I #
face $-1 $136 $137 $50 $-1 $138 reversed single #
loop $-1 $-1 $139 $66 #
plane-surface $-1 12.725938020605909 -105.62519638752553 83.856138211117027 -1 0 0 0 -0.6560590369687036 0.75470957328743171 forward_v I I I I #
face $-1 $140 $141 $51 $-1 $142 forward single #
loop $-1 $143 $144 $67 #
cone-surface $-1 6.6478136089148521 -31.700116425026458 3.5861101632992698 0 0.6560590369687036 -0.75470957328743171 1.5 0 0 1 I I 0 1 1.5 forward I I I I #
face $-1 $145 $146 $52 $-1 $147 reversed single #
loop $-1 $-1 $148 $68 #
plane-surface $-1 -44.270455928311684 78.149296331133385 123.95180370586313 1 0 0 0 -0.79863551827123203 -0.60181501223851219 forward_v I I I I #
face $-1 $149 $150 $53 $-1 $151 forward single #
loop $-1 $152 $153 $69 #
cone-surface $-1 -39.893129307063965 32.4057243101729 4.0170028814298337 0 -0.79863551827123203 -0.60181501223851219 1 0 0 1 I I 0 1 1 forward I I I I #
face $-1 $154 $155 $54 $-1 $156 forward single #
loop $-1 $157 $158 $70 #
cone-surface $-1 -33.327139375192388 32.4057243101729 4.0170028814298337 0 -0.79863551827123203 -0.60181501223851219 1 0 0 1 I I 0 1 1 forward I I I I #
face $-1 $159 $160 $55 $-1 $161 reversed single #
loop $-1 $-1 $162 $71 #
plane-surface $-1 -19.840007387073626 78.149296331133385 123.95180370586313 1 0 0 0 -0.79863551827123203 -0.60181501223851219 forward_v I I I I #
face $-1 $163 $164 $56 $-1 $165 forward single #
loop $-1 $166 $167 $72 #
cone-surface $-1 -15.462680765825908 32.4057243101729 4.0170028814298337 0 -0.79863551827123203 -0.60181501223851219 1 0 0 1 I I 0 1 1 forward I I I I #
face $-1 $168 $169 $57 $-1 $170 forward single #
loop $-1 $171 $172 $73 #
cone-surface $-1 -8.8966908339543238 32.4057243101729 4.0170028814298337 0 -0.79863551827123203 -0.60181501223851219 1 0 0 1 I I 0 1 1 forward I I I I #
face $-1 $173 $174 $58 $-1 $175 reversed single #
loop $-1 $-1 $176 $74 #
plane-surface $-1 4.590441154164429 78.149296331133385 123.95180370586313 1 0 0 0 -0.79863551827123203 -0.60181501223851219 forward_v I I I I #
face $-1 $177 $178 $59 $-1 $179 forward single #
loop $-1 $180 $181 $75 #
cone-surface $-1 8.967767775412149 32.4057243101729 4.0170028814298337 0 -0.79863551827123203 -0.60181501223851219 1 0 0 1 I I 0 1 1 forward I I I I #
face $-1 $182 $183 $60 $-1 $184 forward single #
loop $-1 $185 $186 $76 #
cone-surface $-1 15.533757707283726 32.4057243101729 4.0170028814298337 0 -0.79863551827123203 -0.60181501223851219 1 0 0 1 I I 0 1 1 forward I I I I #
face $-1 $187 $188 $61 $-1 $189 reversed single #
loop $-1 $-1 $190 $77 #
plane-surface $-1 29.020889695402495 78.149296331133385 123.95180370586313 1 0 0 0 -0.79863551827123203 -0.60181501223851219 forward_v I I I I #
face $-1 $191 $192 $62 $-1 $193 forward single #
loop $-1 $194 $195 $78 #
cone-surface $-1 33.398216316650206 32.4057243101729 4.0170028814298337 0 -0.79863551827123203 -0.60181501223851219 1 0 0 1 I I 0 1 1 forward I I I I #
face $-1 $196 $197 $63 $-1 $198 forward single #
loop $-1 $199 $200 $79 #
cone-surface $-1 39.964206248521791 32.4057243101729 4.0170028814298337 0 -0.79863551827123203 -0.60181501223851219 1 0 0 1 I I 0 1 1 forward I I I I #
face $-1 $201 $202 $48 $-1 $203 reversed single #
loop $-1 $-1 $204 $80 #
plane-surface $-1 0 0 -7.2827102393955112 0 0 1 1 0 0 forward_v I I I I #
coedge $-1 $205 $206 $207 $208 forward $81 $-1 #
face $-1 $209 $210 $49 $-1 $211 reversed single #
loop $-1 $-1 $212 $83 #
plane-surface $-1 0 0 7.2827102393955112 0 0 1 1 0 0 forward_v I I I I #
coedge $-1 $213 $214 $215 $216 forward $84 $-1 #
face $-1 $217 $218 $50 $-1 $219 reversed single #
loop $-1 $-1 $220 $86 #
plane-surface $-1 6.6478136089148521 -35.490729411087884 3.1756648666827232 0 -0.6560590369687036 0.75470957328743171 1 0 0 forward_v I I I I #
coedge $-1 $221 $222 $223 $224 reversed $87 $-1 #
face $-1 $-1 $225 $51 $-1 $226 forward single #
loop $-1 $227 $228 $89 #
cone-surface $-1 6.6478136089148521 -29.779766732698764 1.3770005935938503 0 0.6560590369687036 -0.75470957328743171 0.75 0 0 1 I I -0.70710678118654757 0.70710678118654757 0.75 forward I I I I #
loop $-1 $-1 $229 $67 #
coedge $-1 $144 $144 $230 $231 reversed $90 $-1 #
face $-1 $232 $233 $52 $-1 $234 reversed single #
loop $-1 $-1 $235 $92 #
plane-surface $-1 -36.610134341128173 -7.2269780986872689 59.616168155765791 0 0.79863551827123203 0.60181501223851219 1 0 0 forward_v I I I I #
coedge $-1 $236 $237 $238 $239 reversed $93 $-1 #
face $-1 $-1 $240 $53 $-1 $241 forward single #
loop $-1 $242 $243 $95 #
cone-surface $-1 -39.893129307063965 30.562211181248031 2.6278161362079846 0 -0.79863551827123203 -0.60181501223851219 0.5 0 0 1 I I -0.70710678118654746 0.70710678118654746 0.5 forward I I I I #
loop $-1 $-1 $244 $69 #
coedge $-1 $153 $153 $245 $246 reversed $96 $-1 #
face $-1 $-1 $247 $54 $-1 $248 forward single #
loop $-1 $249 $250 $98 #
cone-surface $-1 -33.327139375192388 30.562211181248031 2.6278161362079846 0 -0.79863551827123203 -0.60181501223851219 0.5 0 0 1 I I -0.70710678118654746 0.70710678118654746 0.5 forward I I I I #
loop $-1 $-1 $251 $70 #
coedge $-1 $158 $158 $252 $253 reversed $99 $-1 #
face $-1 $254 $255 $55 $-1 $256 reversed single #
loop $-1 $-1 $257 $101 #
plane-surface $-1 -12.179685799890116 -7.2269780986872689 59.616168155765791 0 0.79863551827123203 0.60181501223851219 1 0 0 forward_v I I I I #
coedge $-1 $258 $259 $260 $261 reversed $102 $-1 #
face $-1 $-1 $262 $56 $-1 $263 forward single #
loop $-1 $264 $265 $104 #
cone-surface $-1 -15.462680765825908 30.562211181248031 2.6278161362079846 0 -0.79863551827123203 -0.60181501223851219 0.5 0 0 1 I I -0.70710678118654746 0.70710678118654746 0.5 forward I I I I #
loop $-1 $-1 $266 $72 #
coedge $-1 $167 $167 $267 $268 reversed $105 $-1 #
face $-1 $-1 $269 $57 $-1 $270 forward single #
loop $-1 $271 $272 $107 #
cone-surface $-1 -8.8966908339543238 30.562211181248031 2.6278161362079846 0 -0.79863551827123203 -0.60181501223851219 0.5 0 0 1 I I -0.70710678118654746 0.70710678118654746 0.5 forward I I I I #
loop $-1 $-1 $273 $73 #
coedge $-1 $172 $172 $274 $275 reversed $108 $-1 #
face $-1 $276 $277 $58 $-1 $278 reversed single #
loop $-1 $-1 $279 $110 #
plane-surface $-1 12.250762741347941 -7.2269780986872689 59.616168155765791 0 0.79863551827123203 0.60181501223851219 1 0 0 forward_v I I I I #
coedge $-1 $280 $281 $282 $283 reversed $111 $-1 #
face $-1 $-1 $284 $59 $-1 $285 forward single #
loop $-1 $286 $287 $113 #
cone-surface $-1 8.967767775412149 30.562211181248031 2.6278161362079846 0 -0.79863551827123203 -0.60181501223851219 0.5 0 0 1 I I -0.70710678118654746 0.70710678118654746 0.5 forward I I I I #
loop $-1 $-1 $288 $75 #
coedge $-1 $181 $181 $289 $290 reversed $114 $-1 #
face $-1 $-1 $291 $60 $-1 $292 forward single #
loop $-1 $293 $294 $116 #
cone-surface $-1 15.533757707283726 30.562211181248031 2.6278161362079846 0 -0.79863551827123203 -0.60181501223851219 0.5 0 0 1 I I -0.70710678118654746 0.70710678118654746 0.5 forward I I I I #
loop $-1 $-1 $295 $76 #
coedge $-1 $186 $186 $296 $297 reversed $117 $-1 #
face $-1 $298 $299 $61 $-1 $300 reversed single #
loop $-1 $-1 $301 $119 #
plane-surface $-1 36.681211282586005 -7.2269780986872689 59.616168155765791 0 0.79863551827123203 0.60181501223851219 1 0 0 forward_v I I I I #
coedge $-1 $302 $303 $304 $305 reversed $120 $-1 #
face $-1 $-1 $306 $62 $-1 $307 forward single #
loop $-1 $308 $309 $122 #
cone-surface $-1 33.398216316650206 30.562211181248031 2.6278161362079846 0 -0.79863551827123203 -0.60181501223851219 0.5 0 0 1 I I -0.70710678118654746 0.70710678118654746 0.5 forward I I I I #
loop $-1 $-1 $310 $78 #
coedge $-1 $195 $195 $311 $312 reversed $123 $-1 #
face $-1 $-1 $313 $63 $-1 $314 forward single #
loop $-1 $315 $316 $125 #
cone-surface $-1 39.964206248521791 30.562211181248031 2.6278161362079846 0 -0.79863551827123203 -0.60181501223851219 0.5 0 0 1 I I -0.70710678118654746 0.70710678118654746 0.5 forward I I I I #
loop $-1 $-1 $317 $79 #
coedge $-1 $200 $200 $318 $319 reversed $126 $-1 #
face $-1 $320 $321 $48 $-1 $322 reversed single #
loop $-1 $-1 $323 $128 #
plane-surface $-1 0 -35.490729411087884 0 0 1 0 0 0 1 forward_v I I I I #
coedge $-1 $324 $325 $326 $327 forward $129 $-1 #
coedge $-1 $328 $131 $329 $330 forward $81 $-1 #
coedge $-1 $131 $328 $331 $332 forward $81 $-1 #
coedge $-1 $333 $334 $131 $208 reversed $335 $-1 #
edge $-1 $336 -35.490729411087884 $337 35.490729411087884 $207 $338 forward 7 unknown #
face $-1 $339 $340 $49 $-1 $341 reversed single #
loop $-1 $-1 $342 $132 #
plane-surface $-1 -62.632220544969357 -33.990729411087884 0 1 0 0 0 0 -1 forward_v I I I I #
coedge $-1 $343 $344 $213 $345 forward $133 $-1 #
coedge $-1 $346 $135 $212 $345 reversed $84 $-1 #
coedge $-1 $135 $346 $347 $348 reversed $84 $-1 #
coedge $-1 $349 $350 $135 $216 reversed $340 $-1 #
edge $-1 $351 -7.2827102393955112 $352 7.2827102393955112 $215 $353 forward 7 unknown #
face $-1 $354 $355 $50 $-1 $356 forward single #
loop $-1 $-1 $357 $136 #
plane-surface $-1 0.56968919722379496 -105.62519638752553 83.856138211117027 1 0 0 0 0.6560590369687036 -0.75470957328743171 forward_v I I I I #
coedge $-1 $358 $359 $360 $361 reversed $137 $-1 #
coedge $-1 $222 $139 $362 $363 reversed $87 $-1 #
coedge $-1 $139 $221 $358 $364 reversed $87 $-1 #
coedge $-1 $360 $365 $139 $224 forward $355 $-1 #
edge $-1 $366 17.321868782674883 $367 22.046483925595403 $223 $368 forward 7 unknown #
loop $-1 $-1 $230 $140 #
plane-surface $-1 6.6478136089148521 -35.490729411087884 3.1756648666827232 0 -0.6560590369687036 0.75470957328743171 1 0 0 forward_v I I I I #
loop $-1 $-1 $369 $89 #
coedge $-1 $228 $228 $229 $370 reversed $141 $-1 #
coedge $-1 $229 $229 $228 $370 forward $143 $-1 #
coedge $-1 $230 $230 $144 $231 forward $225 $-1 #
edge $-1 $371 -3.8846498578989949e-016 $371 6.2831853071796004 $230 $372 forward 7 unknown #
face $-1 $373 $374 $52 $-1 $375 reversed single #
loop $-1 $-1 $376 $145 #
plane-surface $-1 -28.949812753944663 78.149296331133385 123.95180370586313 -1 0 0 0 0.79863551827123203 0.60181501223851219 forward_v I I I I #
coedge $-1 $377 $378 $379 $380 reversed $146 $-1 #
coedge $-1 $237 $148 $381 $382 reversed $93 $-1 #
coedge $-1 $148 $236 $377 $383 reversed $93 $-1 #
coedge $-1 $379 $384 $148 $239 forward $385 $-1 #
edge $-1 $386 3.5839187544788089 $387 6.8655382167302506 $238 $388 forward 7 unknown #
loop $-1 $-1 $245 $149 #
plane-surface $-1 -36.610134341128173 -7.2269780986872689 59.616168155765791 0 0.79863551827123203 0.60181501223851219 1 0 0 forward_v I I I I #
loop $-1 $-1 $389 $95 #
coedge $-1 $243 $243 $244 $390 reversed $150 $-1 #
coedge $-1 $244 $244 $243 $390 forward $152 $-1 #
coedge $-1 $245 $245 $153 $246 forward $240 $-1 #
edge $-1 $391 -2.0167856967305989e-017 $391 6.2831853071796004 $245 $392 forward 7 unknown #
loop $-1 $-1 $252 $154 #
plane-surface $-1 -36.610134341128173 -7.2269780986872689 59.616168155765791 0 0.79863551827123203 0.60181501223851219 1 0 0 forward_v I I I I #
loop $-1 $-1 $393 $98 #
coedge $-1 $250 $250 $251 $394 reversed $155 $-1 #
coedge $-1 $251 $251 $250 $394 forward $157 $-1 #
coedge $-1 $252 $252 $158 $253 forward $247 $-1 #
edge $-1 $395 -2.0167856967305989e-017 $395 6.2831853071796004 $252 $396 forward 7 unknown #
face $-1 $397 $398 $55 $-1 $399 forward single #
loop $-1 $-1 $400 $159 #
plane-surface $-1 -4.5193642127066038 78.149296331133385 123.95180370586313 -1 0 0 0 0.79863551827123203 0.60181501223851219 forward_v I I I I #
coedge $-1 $401 $402 $403 $404 reversed $160 $-1 #
coedge $-1 $259 $162 $405 $406 reversed $102 $-1 #
coedge $-1 $162 $258 $401 $407 reversed $102 $-1 #
coedge $-1 $403 $408 $162 $261 forward $398 $-1 #
edge $-1 $409 3.5839187544788089 $410 6.8655382167302506 $260 $411 forward 7 unknown #
loop $-1 $-1 $267 $163 #
plane-surface $-1 -12.179685799890116 -7.2269780986872689 59.616168155765791 0 0.79863551827123203 0.60181501223851219 1 0 0 forward_v I I I I #
loop $-1 $-1 $412 $104 #
coedge $-1 $265 $265 $266 $413 reversed $164 $-1 #
coedge $-1 $266 $266 $265 $413 forward $166 $-1 #
coedge $-1 $267 $267 $167 $268 forward $262 $-1 #
edge $-1 $414 -2.0167856967305989e-017 $414 6.2831853071796004 $267 $415 forward 7 unknown #
loop $-1 $-1 $274 $168 #
plane-surface $-1 -12.179685799890116 -7.2269780986872689 59.616168155765791 0 0.79863551827123203 0.60181501223851219 1 0 0 forward_v I I I I #
loop $-1 $-1 $416 $107 #
coedge $-1 $272 $272 $273 $417 reversed $169 $-1 #
coedge $-1 $273 $273 $272 $417 forward $171 $-1 #
coedge $-1 $274 $274 $172 $275 forward $269 $-1 #
edge $-1 $418 -2.0167856967305989e-017 $418 6.2831853071796004 $274 $419 forward 7 unknown #
face $-1 $420 $421 $58 $-1 $422 forward single #
loop $-1 $-1 $423 $173 #
plane-surface $-1 19.911084328531452 78.149296331133385 123.95180370586313 -1 0 0 0 0.79863551827123203 0.60181501223851219 forward_v I I I I #
coedge $-1 $424 $425 $426 $427 reversed $174 $-1 #
coedge $-1 $281 $176 $428 $429 reversed $111 $-1 #
coedge $-1 $176 $280 $424 $430 reversed $111 $-1 #
coedge $-1 $426 $431 $176 $283 forward $421 $-1 #
edge $-1 $432 3.5839187544788089 $433 6.8655382167302506 $282 $434 forward 7 unknown #
loop $-1 $-1 $289 $177 #
plane-surface $-1 12.250762741347941 -7.2269780986872689 59.616168155765791 0 0.79863551827123203 0.60181501223851219 1 0 0 forward_v I I I I #
loop $-1 $-1 $435 $113 #
coedge $-1 $287 $287 $288 $436 reversed $178 $-1 #
coedge $-1 $288 $288 $287 $436 forward $180 $-1 #
coedge $-1 $289 $289 $181 $290 forward $284 $-1 #
edge $-1 $437 -2.0167856967305989e-017 $437 6.2831853071796004 $289 $438 forward 7 unknown #
loop $-1 $-1 $296 $182 #
plane-surface $-1 12.250762741347941 -7.2269780986872689 59.616168155765791 0 0.79863551827123203 0.60181501223851219 1 0 0 forward_v I I I I #
loop $-1 $-1 $439 $116 #
coedge $-1 $294 $294 $295 $440 reversed $183 $-1 #
coedge $-1 $295 $295 $294 $440 forward $185 $-1 #
coedge $-1 $296 $296 $186 $297 forward $291 $-1 #
edge $-1 $441 -2.0167856967305989e-017 $441 6.2831853071796004 $296 $442 forward 7 unknown #
face $-1 $443 $444 $61 $-1 $445 forward single #
loop $-1 $-1 $446 $187 #
plane-surface $-1 44.341532869769516 78.149296331133385 123.95180370586313 -1 0 0 0 0.79863551827123203 0.60181501223851219 forward_v I I I I #
coedge $-1 $447 $448 $449 $450 reversed $188 $-1 #
coedge $-1 $303 $190 $451 $452 reversed $120 $-1 #
coedge $-1 $190 $302 $447 $453 reversed $120 $-1 #
coedge $-1 $449 $454 $190 $305 forward $444 $-1 #
edge $-1 $455 3.5839187544788089 $456 6.8655382167302506 $304 $457 forward 7 unknown #
loop $-1 $-1 $311 $191 #
plane-surface $-1 36.681211282586005 -7.2269780986872689 59.616168155765791 0 0.79863551827123203 0.60181501223851219 1 0 0 forward_v I I I I #
loop $-1 $-1 $458 $122 #
coedge $-1 $309 $309 $310 $459 reversed $192 $-1 #
coedge $-1 $310 $310 $309 $459 forward $194 $-1 #
coedge $-1 $311 $311 $195 $312 forward $306 $-1 #
edge $-1 $460 -2.0167856967305989e-017 $460 6.2831853071796004 $311 $461 forward 7 unknown #
loop $-1 $-1 $318 $196 #
plane-surface $-1 36.681211282586005 -7.2269780986872689 59.616168155765791 0 0.79863551827123203 0.60181501223851219 1 0 0 forward_v I I I I #
loop $-1 $-1 $462 $125 #
coedge $-1 $316 $316 $317 $463 reversed $197 $-1 #
coedge $-1 $317 $317 $316 $463 forward $199 $-1 #
coedge $-1 $318 $318 $200 $319 forward $313 $-1 #
edge $-1 $464 -2.0167856967305989e-017 $464 6.2831853071796004 $318 $465 forward 7 unknown #
face $-1 $466 $467 $48 $-1 $468 reversed single #
loop $-1 $-1 $469 $201 #
plane-surface $-1 -53.451338236640524 0 0 1 0 0 0 0 -1 forward_v I I I I #
coedge $-1 $470 $331 $471 $472 forward $202 $-1 #
coedge $-1 $473 $204 $470 $474 forward $129 $-1 #
coedge $-1 $204 $473 $475 $476 forward $129 $-1 #
coedge $-1 $334 $333 $204 $327 reversed $335 $-1 #
edge $-1 $477 -35.490729411087884 $478 35.490729411087884 $326 $479 forward 7 unknown #
coedge $-1 $206 $205 $480 $481 forward $81 $-1 #
coedge $-1 $482 $483 $205 $330 reversed $467 $-1 #
edge $-1 $337 -53.451338236640524 $484 53.451338236640524 $329 $485 forward 7 unknown #
coedge $-1 $323 $486 $206 $332 reversed $202 $-1 #
edge $-1 $487 -53.451338236640524 $336 53.451338236640524 $331 $488 forward 7 unknown #
coedge $-1 $326 $207 $486 $489 forward $335 $-1 #
coedge $-1 $207 $326 $482 $490 reversed $335 $-1 #
loop $-1 $-1 $333 $466 #
vertex $-1 $208 $491 #
vertex $-1 $208 $492 #
straight-curve $-1 53.451338236640524 0 7.2827102393955112 0 1 0 I I #
face $-1 $493 $494 $49 $-1 $495 reversed single #
loop $-1 $-1 $215 $209 #
plane-surface $-1 -58.04177939080494 -32.490729411087884 0 0 -1 0 0 0 -1 forward_v I I I I #
coedge $-1 $496 $497 $498 $499 forward $210 $-1 #
coedge $-1 $500 $212 $350 $501 forward $133 $-1 #
coedge $-1 $212 $500 $502 $503 forward $133 $-1 #
edge $-1 $504 -35.490729411087884 $352 -32.490729411087884 $212 $505 forward 7 unknown #
coedge $-1 $214 $213 $506 $507 reversed $84 $-1 #
coedge $-1 $508 $509 $214 $348 forward $494 $-1 #
edge $-1 $351 32.490729411087884 $510 35.490729411087884 $347 $511 forward 7 unknown #
coedge $-1 $498 $215 $509 $512 reversed $340 $-1 #
coedge $-1 $215 $498 $343 $501 reversed $340 $-1 #
vertex $-1 $348 $513 #
vertex $-1 $501 $514 #
straight-curve $-1 -53.451338236640524 -32.490729411087884 0 0 0 1 I I #
face $-1 $-1 $515 $50 $-1 $516 reversed single #
loop $-1 $-1 $223 $217 #
plane-surface $-1 0 0 7.2827102393955112 0 0 1 1 0 0 forward_v I I I I #
coedge $-1 $517 $518 $519 $520 reversed $218 $-1 #
coedge $-1 $521 $220 $222 $364 forward $137 $-1 #
coedge $-1 $220 $521 $517 $522 forward $137 $-1 #
coedge $-1 $519 $223 $220 $361 forward $355 $-1 #
edge $-1 $367 -9.4020312161484831 $523 2.7542176072336311 $360 $524 forward 7 unknown #
coedge $-1 $525 $526 $221 $363 forward $515 $-1 #
edge $-1 $527 -38.752404238875791 $366 -34.645358866163001 $362 $528 forward 7 unknown #
edge $-1 $367 -6.2601765104696057 $527 0 $222 $529 forward 7 unknown #
coedge $-1 $223 $519 $525 $530 forward $355 $-1 #
vertex $-1 $224 $531 #
vertex $-1 $224 $532 #
straight-curve $-1 12.725938020605909 -52.812598193762767 7.282710239395513 0 1 0 I I #
coedge $-1 $369 $369 $-1 $533 reversed $227 $-1 #
edge $-1 $534 0 $534 6.2831853071796004 $228 $535 forward 7 unknown #
vertex $-1 $231 $536 #
ellipse-curve $-1 6.6478136089148521 -33.128421839627627 5.2291875530391163 0 -0.6560590369687036 0.75470957328743171 1.5 0 0 1 I I #
face $-1 $-1 $385 $52 $-1 $537 forward single #
loop $-1 $-1 $538 $232 #
plane-surface $-1 0 35.490729411087884 0 0 -1 0 0 0 -1 forward_v I I I I #
coedge $-1 $539 $540 $541 $542 reversed $233 $-1 #
coedge $-1 $543 $235 $237 $383 forward $146 $-1 #
coedge $-1 $235 $543 $539 $544 forward $146 $-1 #
coedge $-1 $541 $238 $235 $380 forward $385 $-1 #
edge $-1 $387 -25.965388757747597 $545 -10.644745583380576 $379 $546 forward 7 unknown #
coedge $-1 $547 $548 $236 $382 forward $374 $-1 #
edge $-1 $549 -59.048047851262218 $386 -54.693191613536051 $381 $550 forward 7 unknown #
edge $-1 $387 65.528588096925617 $549 70.981458822175753 $237 $551 forward 7 unknown #
coedge $-1 $238 $541 $547 $552 forward $385 $-1 #
loop $-1 $-1 $541 $373 #
vertex $-1 $382 $553 #
vertex $-1 $239 $554 #
straight-curve $-1 -44.270455928311684 39.074648165566693 7.282710239395513 0 -1 0 I I #
coedge $-1 $389 $389 $-1 $555 reversed $242 $-1 #
edge $-1 $556 0 $556 6.2831853071796004 $243 $557 forward 7 unknown #
vertex $-1 $246 $558 #
ellipse-curve $-1 -39.893129307063965 33.849919679962163 5.1052821205324328 0 0.79863551827123203 0.60181501223851219 1 0 0 1 I I #
coedge $-1 $393 $393 $-1 $559 reversed $249 $-1 #
edge $-1 $560 0 $560 6.2831853071796004 $250 $561 forward 7 unknown #
vertex $-1 $253 $562 #
ellipse-curve $-1 -33.327139375192388 33.849919679962163 5.1052821205324328 0 0.79863551827123203 0.60181501223851219 1 0 0 1 I I #
face $-1 $-1 $563 $55 $-1 $564 reversed single #
loop $-1 $-1 $260 $254 #
plane-surface $-1 0 0 7.2827102393955112 0 0 1 1 0 0 forward_v I I I I #
coedge $-1 $565 $566 $567 $568 reversed $255 $-1 #
coedge $-1 $569 $257 $259 $407 forward $160 $-1 #
coedge $-1 $257 $569 $565 $570 forward $160 $-1 #
coedge $-1 $567 $260 $257 $404 forward $398 $-1 #
edge $-1 $410 -13.750164487128568 $571 1.5704786872384542 $403 $572 forward 7 unknown #
coedge $-1 $573 $574 $258 $406 forward $563 $-1 #
edge $-1 $575 -59.048047851262218 $409 -54.693191613536051 $405 $576 forward 7 unknown #
edge $-1 $410 65.528588096925617 $575 70.981458822175753 $259 $577 forward 7 unknown #
coedge $-1 $260 $567 $573 $578 forward $398 $-1 #
vertex $-1 $406 $579 #
vertex $-1 $261 $580 #
straight-curve $-1 -19.840007387073626 39.074648165566693 7.282710239395513 0 -1 0 I I #
coedge $-1 $412 $412 $-1 $581 reversed $264 $-1 #
edge $-1 $582 0 $582 6.2831853071796004 $265 $583 forward 7 unknown #
vertex $-1 $268 $584 #
ellipse-curve $-1 -15.462680765825908 33.849919679962163 5.1052821205324328 0 0.79863551827123203 0.60181501223851219 1 0 0 1 I I #
coedge $-1 $416 $416 $-1 $585 reversed $271 $-1 #
edge $-1 $586 0 $586 6.2831853071796004 $272 $587 forward 7 unknown #
vertex $-1 $275 $588 #
ellipse-curve $-1 -8.8966908339543238 33.849919679962163 5.1052821205324328 0 0.79863551827123203 0.60181501223851219 1 0 0 1 I I #
face $-1 $-1 $589 $58 $-1 $590 reversed single #
loop $-1 $-1 $282 $276 #
plane-surface $-1 0 0 7.2827102393955112 0 0 1 1 0 0 forward_v I I I I #
coedge $-1 $591 $592 $593 $594 reversed $277 $-1 #
coedge $-1 $595 $279 $281 $430 forward $174 $-1 #
coedge $-1 $279 $595 $591 $596 forward $174 $-1 #
coedge $-1 $593 $282 $279 $427 forward $421 $-1 #
edge $-1 $433 -1.5349402165095416 $597 13.785702957857481 $426 $598 forward 7 unknown #
coedge $-1 $599 $600 $280 $429 forward $589 $-1 #
edge $-1 $601 -59.048047851262218 $432 -54.693191613536051 $428 $602 forward 7 unknown #
edge $-1 $433 65.528588096925617 $601 70.981458822175753 $281 $603 forward 7 unknown #
coedge $-1 $282 $593 $599 $604 forward $421 $-1 #
vertex $-1 $283 $605 #
vertex $-1 $283 $606 #
straight-curve $-1 4.590441154164429 39.074648165566693 7.282710239395513 0 -1 0 I I #
coedge $-1 $435 $435 $-1 $607 reversed $286 $-1 #
edge $-1 $608 0 $608 6.2831853071796004 $287 $609 forward 7 unknown #
vertex $-1 $290 $610 #
ellipse-curve $-1 8.967767775412149 33.849919679962163 5.1052821205324328 0 0.79863551827123203 0.60181501223851219 1 0 0 1 I I #
coedge $-1 $439 $439 $-1 $611 reversed $293 $-1 #
edge $-1 $612 0 $612 6.2831853071796004 $294 $613 forward 7 unknown #
vertex $-1 $297 $614 #
ellipse-curve $-1 15.533757707283726 33.849919679962163 5.1052821205324328 0 0.79863551827123203 0.60181501223851219 1 0 0 1 I I #
face $-1 $-1 $615 $61 $-1 $616 reversed single #
loop $-1 $-1 $304 $298 #
plane-surface $-1 0 0 7.2827102393955112 0 0 1 1 0 0 forward_v I I I I #
coedge $-1 $617 $618 $619 $620 reversed $299 $-1 #
coedge $-1 $621 $301 $303 $453 forward $188 $-1 #
coedge $-1 $301 $621 $617 $622 forward $188 $-1 #
coedge $-1 $619 $304 $301 $450 forward $444 $-1 #
edge $-1 $456 10.680284054109492 $623 26.000927228476513 $449 $624 forward 7 unknown #
coedge $-1 $625 $626 $302 $452 forward $615 $-1 #
edge $-1 $627 -59.048047851262218 $455 -54.693191613536051 $451 $628 forward 7 unknown #
edge $-1 $456 65.528588096925617 $627 70.981458822175753 $303 $629 forward 7 unknown #
coedge $-1 $304 $619 $625 $630 forward $444 $-1 #
vertex $-1 $305 $631 #
vertex $-1 $305 $632 #
straight-curve $-1 29.020889695402495 39.074648165566693 7.282710239395513 0 -1 0 I I #
coedge $-1 $458 $458 $-1 $633 reversed $308 $-1 #
edge $-1 $634 0 $634 6.2831853071796004 $309 $635 forward 7 unknown #
vertex $-1 $312 $636 #
ellipse-curve $-1 33.398216316650206 33.849919679962163 5.1052821205324328 0 0.79863551827123203 0.60181501223851219 1 0 0 1 I I #
coedge $-1 $462 $462 $-1 $637 reversed $315 $-1 #
edge $-1 $638 0 $638 6.2831853071796004 $316 $639 forward 7 unknown #
vertex $-1 $319 $640 #
ellipse-curve $-1 39.964206248521791 33.849919679962163 5.1052821205324328 0 0.79863551827123203 0.60181501223851219 1 0 0 1 I I #
face $-1 $-1 $335 $48 $-1 $641 reversed single #
loop $-1 $-1 $482 $320 #
plane-surface $-1 0 35.490729411087884 0 0 -1 0 0 0 -1 forward_v I I I I #
coedge $-1 $642 $480 $483 $643 forward $321 $-1 #
coedge $-1 $486 $323 $324 $474 reversed $202 $-1 #
coedge $-1 $480 $642 $323 $472 reversed $321 $-1 #
edge $-1 $487 -7.2827102393955112 $644 7.2827102393955112 $471 $645 forward 7 unknown #
coedge $-1 $325 $324 $642 $646 forward $129 $-1 #
edge $-1 $478 -53.451338236640524 $644 53.451338236640524 $470 $647 forward 7 unknown #
coedge $-1 $483 $482 $325 $476 reversed $467 $-1 #
edge $-1 $648 -53.451338236640524 $477 53.451338236640524 $475 $649 forward 7 unknown #
vertex $-1 $327 $650 #
vertex $-1 $489 $651 #
straight-curve $-1 53.451338236640524 0 -7.2827102393955112 0 -1 0 I I #
coedge $-1 $469 $471 $328 $481 reversed $321 $-1 #
edge $-1 $484 -35.490729411087884 $487 35.490729411087884 $480 $652 forward 7 unknown #
coedge $-1 $475 $329 $334 $490 forward $467 $-1 #
coedge $-1 $329 $475 $469 $643 reversed $467 $-1 #
vertex $-1 $330 $653 #
straight-curve $-1 0 35.490729411087884 7.2827102393955112 -1 0 0 I I #
coedge $-1 $331 $470 $333 $489 reversed $202 $-1 #
vertex $-1 $481 $654 #
straight-curve $-1 0 -35.490729411087884 7.2827102393955112 1 0 0 I I #
edge $-1 $336 -7.2827102393955112 $478 7.2827102393955112 $333 $655 forward 7 unknown #
edge $-1 $337 -7.2827102393955112 $477 7.2827102393955112 $334 $656 forward 7 unknown #
point $-1 53.451338236640524 -35.490729411087884 7.2827102393955112 #
point $-1 53.451338236640524 35.490729411087884 7.2827102393955112 #
face $-1 $-1 $657 $49 $-1 $658 reversed single #
loop $-1 $-1 $347 $339 #
plane-surface $-1 0 0 -7.2827102393955112 0 0 1 1 0 0 forward_v I I I I #
coedge $-1 $659 $342 $660 $661 reversed $210 $-1 #
coedge $-1 $342 $659 $500 $662 reversed $210 $-1 #
coedge $-1 $350 $349 $342 $499 reversed $340 $-1 #
edge $-1 $663 -7.2827102393955112 $664 7.2827102393955112 $498 $665 forward 7 unknown #
coedge $-1 $344 $343 $497 $662 forward $133 $-1 #
edge $-1 $352 -4.5904411541644166 $663 4.5904411541644166 $350 $666 forward 7 unknown #
coedge $-1 $667 $506 $344 $503 reversed $657 $-1 #
edge $-1 $668 -62.632220544969357 $504 -53.451338236640524 $502 $669 forward 7 unknown #
vertex $-1 $507 $670 #
straight-curve $-1 -53.451338236640524 0 7.2827102393955112 0 1 0 I I #
coedge $-1 $502 $671 $346 $507 forward $657 $-1 #
edge $-1 $510 -7.2827102393955112 $504 7.2827102393955112 $506 $672 forward 7 unknown #
coedge $-1 $660 $347 $671 $673 forward $494 $-1 #
coedge $-1 $347 $660 $349 $512 forward $494 $-1 #
vertex $-1 $673 $674 #
straight-curve $-1 -53.451338236640524 0 -7.2827102393955112 0 -1 0 I I #
edge $-1 $664 -4.5904411541644166 $351 4.5904411541644166 $349 $675 forward 7 unknown #
point $-1 -53.451338236640524 -32.490729411087884 -7.2827102393955112 #
point $-1 -53.451338236640524 -32.490729411087884 7.2827102393955112 #
loop $-1 $-1 $362 $354 #
plane-surface $-1 0 -35.490729411087884 0 0 1 0 0 0 1 forward_v I I I I #
coedge $-1 $518 $357 $359 $522 reversed $218 $-1 #
coedge $-1 $357 $517 $676 $677 reversed $218 $-1 #
coedge $-1 $365 $360 $357 $520 forward $355 $-1 #
edge $-1 $523 -22.046483925595403 $678 -17.321868782674883 $519 $679 forward 7 unknown #
coedge $-1 $359 $358 $526 $680 reversed $137 $-1 #
edge $-1 $681 0 $523 6.2601765104696057 $517 $682 forward 7 unknown #
vertex $-1 $361 $683 #
straight-curve $-1 3.323906804457426 -30.766114268167364 7.2827102393955121 -1 0 0 I I #
coedge $-1 $676 $362 $365 $530 reversed $515 $-1 #
coedge $-1 $362 $676 $521 $680 forward $515 $-1 #
vertex $-1 $363 $684 #
straight-curve $-1 12.725938020605909 -35.490729411087884 41.928069105558514 0 0 1 I I #
straight-curve $-1 12.725938020605909 -35.490729411087884 3.1756648666827232 0 -0.75470957328743171 -0.6560590369687036 I I #
edge $-1 $678 0.56968919722379496 $366 12.725938020605909 $525 $685 forward 7 unknown #
point $-1 12.725938020605909 -35.490729411087884 7.2827102393955112 #
point $-1 12.725938020605909 -30.766114268167364 7.2827102393955112 #
edge $-1 $686 1 $686 0 $369 $-1 forward 7 unknown #
vertex $-1 $370 $687 #
ellipse-curve $-1 6.6478136089148521 -30.271811010425292 1.9430327735594242 0 -0.6560590369687036 0.75470957328743171 1.5 0 0 1 I I #
point $-1 8.1478136089148521 -33.128421839627627 5.2291875530391154 #
plane-surface $-1 0 0 7.2827102393955112 0 0 1 1 0 0 forward_v I I I I #
coedge $-1 $548 $547 $540 $688 forward $374 $-1 #
coedge $-1 $540 $376 $378 $544 reversed $233 $-1 #
coedge $-1 $376 $539 $538 $688 reversed $233 $-1 #
coedge $-1 $384 $379 $376 $542 forward $385 $-1 #
edge $-1 $545 -6.8655382167302506 $689 -3.5839187544788089 $541 $690 forward 7 unknown #
coedge $-1 $378 $377 $548 $691 reversed $146 $-1 #
edge $-1 $692 -70.981458822175753 $545 -65.528588096925617 $539 $693 forward 7 unknown #
vertex $-1 $380 $694 #
straight-curve $-1 -18.305067170564087 32.209109948836442 7.282710239395513 1 0 0 I I #
coedge $-1 $538 $381 $384 $552 reversed $374 $-1 #
coedge $-1 $381 $538 $543 $691 forward $374 $-1 #
vertex $-1 $382 $695 #
straight-curve $-1 -44.270455928311684 35.490729411087884 61.975901852931564 0 0 1 I I #
straight-curve $-1 -44.270455928311684 -7.2269780986872689 59.616168155765791 0 0.60181501223851219 -0.79863551827123203 I I #
edge $-1 $689 28.949812753944663 $386 44.270455928311684 $547 $696 forward 7 unknown #
point $-1 -44.270455928311684 35.490729411087884 7.2827102393955112 #
point $-1 -44.270455928311684 32.209109948836442 7.282710239395513 #
edge $-1 $697 1 $697 0 $389 $-1 forward 7 unknown #
vertex $-1 $390 $698 #
ellipse-curve $-1 -39.893129307063965 30.961528940383648 2.9287236423272409 0 0.79863551827123203 0.60181501223851219 1 0 0 1 I I #
point $-1 -38.893129307063965 33.849919679962156 5.1052821205324275 #
edge $-1 $699 1 $699 0 $393 $-1 forward 7 unknown #
vertex $-1 $394 $700 #
ellipse-curve $-1 -33.327139375192388 30.961528940383648 2.9287236423272409 0 0.79863551827123203 0.60181501223851219 1 0 0 1 I I #
point $-1 -32.327139375192388 33.849919679962156 5.1052821205324275 #
loop $-1 $-1 $405 $397 #
plane-surface $-1 0 35.490729411087884 0 0 -1 0 0 0 -1 forward_v I I I I #
coedge $-1 $566 $400 $402 $570 reversed $255 $-1 #
coedge $-1 $400 $565 $701 $702 reversed $255 $-1 #
coedge $-1 $408 $403 $400 $568 forward $398 $-1 #
edge $-1 $571 -6.8655382167302506 $703 -3.5839187544788089 $567 $704 forward 7 unknown #
coedge $-1 $402 $401 $574 $705 reversed $160 $-1 #
edge $-1 $706 -70.981458822175753 $571 -65.528588096925617 $565 $707 forward 7 unknown #
vertex $-1 $404 $708 #
straight-curve $-1 -6.089842899945058 32.209109948836442 7.282710239395513 1 0 0 I I #
coedge $-1 $701 $405 $408 $578 reversed $563 $-1 #
coedge $-1 $405 $701 $569 $705 forward $563 $-1 #
vertex $-1 $406 $709 #
straight-curve $-1 -19.840007387073626 35.490729411087884 61.975901852931564 0 0 1 I I #
straight-curve $-1 -19.840007387073626 -7.2269780986872689 59.616168155765791 0 0.60181501223851219 -0.79863551827123203 I I #
edge $-1 $703 4.5193642127066038 $409 19.840007387073626 $573 $710 forward 7 unknown #
point $-1 -19.840007387073626 35.490729411087884 7.2827102393955112 #
point $-1 -19.840007387073626 32.209109948836442 7.282710239395513 #
edge $-1 $711 1 $711 0 $412 $-1 forward 7 unknown #
vertex $-1 $413 $712 #
ellipse-curve $-1 -15.462680765825908 30.961528940383648 2.9287236423272409 0 0.79863551827123203 0.60181501223851219 1 0 0 1 I I #
point $-1 -14.462680765825908 33.849919679962156 5.1052821205324275 #
edge $-1 $713 1 $713 0 $416 $-1 forward 7 unknown #
vertex $-1 $417 $714 #
ellipse-curve $-1 -8.8966908339543238 30.961528940383648 2.9287236423272409 0 0.79863551827123203 0.60181501223851219 1 0 0 1 I I #
point $-1 -7.8966908339543238 33.849919679962156 5.1052821205324275 #
loop $-1 $-1 $428 $420 #
plane-surface $-1 0 35.490729411087884 0 0 -1 0 0 0 -1 forward_v I I I I #
coedge $-1 $592 $423 $425 $596 reversed $277 $-1 #
coedge $-1 $423 $591 $715 $716 reversed $277 $-1 #
coedge $-1 $431 $426 $423 $594 forward $421 $-1 #
edge $-1 $597 -6.8655382167302506 $717 -3.5839187544788089 $593 $718 forward 7 unknown #
coedge $-1 $425 $424 $600 $719 reversed $174 $-1 #
edge $-1 $720 -70.981458822175753 $597 -65.528588096925617 $591 $721 forward 7 unknown #
vertex $-1 $427 $722 #
straight-curve $-1 6.1253813706739706 32.209109948836442 7.282710239395513 1 0 0 I I #
coedge $-1 $715 $428 $431 $604 reversed $589 $-1 #
coedge $-1 $428 $715 $595 $719 forward $589 $-1 #
vertex $-1 $429 $723 #
straight-curve $-1 4.590441154164429 35.490729411087884 61.975901852931564 0 0 1 I I #
straight-curve $-1 4.590441154164429 -7.2269780986872689 59.616168155765791 0 0.60181501223851219 -0.79863551827123203 I I #
edge $-1 $717 -19.911084328531452 $432 -4.590441154164429 $599 $724 forward 7 unknown #
point $-1 4.590441154164429 35.490729411087884 7.2827102393955112 #
point $-1 4.590441154164429 32.209109948836442 7.282710239395513 #
edge $-1 $725 1 $725 0 $435 $-1 forward 7 unknown #
vertex $-1 $436 $726 #
ellipse-curve $-1 8.967767775412149 30.961528940383648 2.9287236423272409 0 0.79863551827123203 0.60181501223851219 1 0 0 1 I I #
point $-1 9.967767775412149 33.849919679962156 5.1052821205324275 #
edge $-1 $727 1 $727 0 $439 $-1 forward 7 unknown #
vertex $-1 $440 $728 #
ellipse-curve $-1 15.533757707283726 30.961528940383648 2.9287236423272409 0 0.79863551827123203 0.60181501223851219 1 0 0 1 I I #
point $-1 16.533757707283726 33.849919679962156 5.1052821205324275 #
loop $-1 $-1 $451 $443 #
plane-surface $-1 0 35.490729411087884 0 0 -1 0 0 0 -1 forward_v I I I I #
coedge $-1 $618 $446 $448 $622 reversed $299 $-1 #
coedge $-1 $446 $617 $729 $730 reversed $299 $-1 #
coedge $-1 $454 $449 $446 $620 forward $444 $-1 #
edge $-1 $623 -6.8655382167302506 $731 -3.5839187544788089 $619 $732 forward 7 unknown #
coedge $-1 $448 $447 $626 $733 reversed $188 $-1 #
edge $-1 $734 -70.981458822175753 $623 -65.528588096925617 $617 $735 forward 7 unknown #
vertex $-1 $450 $736 #
straight-curve $-1 18.340605641293003 32.209109948836442 7.282710239395513 1 0 0 I I #
coedge $-1 $729 $451 $454 $630 reversed $615 $-1 #
coedge $-1 $451 $729 $621 $733 forward $615 $-1 #
vertex $-1 $452 $737 #
straight-curve $-1 29.020889695402495 35.490729411087884 61.975901852931564 0 0 1 I I #
straight-curve $-1 29.020889695402495 -7.2269780986872689 59.616168155765791 0 0.60181501223851219 -0.79863551827123203 I I #
edge $-1 $731 -44.341532869769516 $455 -29.020889695402495 $625 $738 forward 7 unknown #
point $-1 29.020889695402495 35.490729411087884 7.2827102393955112 #
point $-1 29.020889695402495 32.209109948836442 7.282710239395513 #
edge $-1 $739 1 $739 0 $458 $-1 forward 7 unknown #
vertex $-1 $459 $740 #
ellipse-curve $-1 33.398216316650206 30.961528940383648 2.9287236423272409 0 0.79863551827123203 0.60181501223851219 1 0 0 1 I I #
point $-1 34.398216316650206 33.849919679962156 5.1052821205324275 #
edge $-1 $741 1 $741 0 $462 $-1 forward 7 unknown #
vertex $-1 $463 $742 #
ellipse-curve $-1 39.964206248521791 30.961528940383648 2.9287236423272409 0 0.79863551827123203 0.60181501223851219 1 0 0 1 I I #
point $-1 40.964206248521791 33.849919679962156 5.1052821205324275 #
plane-surface $-1 53.451338236640524 0 0 -1 0 0 0 0 1 forward_v I I I I #
coedge $-1 $471 $469 $473 $646 reversed $321 $-1 #
edge $-1 $484 -7.2827102393955112 $648 7.2827102393955112 $483 $743 forward 7 unknown #
vertex $-1 $646 $744 #
straight-curve $-1 -53.451338236640524 -35.490729411087884 0 0 0 -1 I I #
edge $-1 $644 -35.490729411087884 $648 35.490729411087884 $642 $745 forward 7 unknown #
straight-curve $-1 0 -35.490729411087884 -7.2827102393955112 -1 0 0 I I #
vertex $-1 $476 $746 #
straight-curve $-1 0 35.490729411087884 -7.2827102393955112 1 0 0 I I #
point $-1 53.451338236640524 35.490729411087884 -7.2827102393955112 #
point $-1 53.451338236640524 -35.490729411087884 -7.2827102393955112 #
straight-curve $-1 -53.451338236640524 0 7.2827102393955112 0 -1 0 I I #
point $-1 -53.451338236640524 35.490729411087884 7.2827102393955112 #
point $-1 -53.451338236640524 -35.490729411087884 7.2827102393955112 #
straight-curve $-1 53.451338236640524 -35.490729411087884 0 0 0 -1 I I #
straight-curve $-1 53.451338236640524 35.490729411087884 0 0 0 -1 I I #
loop $-1 $-1 $506 $493 #
plane-surface $-1 0 -35.490729411087884 0 0 1 0 0 0 1 forward_v I I I I #
coedge $-1 $497 $496 $667 $747 reversed $210 $-1 #
coedge $-1 $509 $508 $496 $661 forward $494 $-1 #
edge $-1 $748 -1.5 $664 1.5 $496 $749 forward 7 unknown #
edge $-1 $663 -1.5 $668 1.5 $497 $750 forward 7 unknown #
vertex $-1 $501 $751 #
vertex $-1 $512 $752 #
straight-curve $-1 -62.632220544969357 -32.490729411087884 0 0 0 -1 I I #
straight-curve $-1 -58.04177939080494 -32.490729411087884 7.2827102393955112 -1 0 0 I I #
coedge $-1 $671 $502 $659 $747 forward $657 $-1 #
vertex $-1 $662 $753 #
straight-curve $-1 0 -35.490729411087884 7.2827102393955112 1 0 0 I I #
point $-1 -53.451338236640524 -35.490729411087884 7.2827102393955112 #
coedge $-1 $506 $667 $508 $673 reversed $657 $-1 #
straight-curve $-1 -53.451338236640524 -35.490729411087884 0 0 0 1 I I #
edge $-1 $510 -4.5904411541644166 $748 4.5904411541644166 $671 $754 forward 7 unknown #
point $-1 -53.451338236640524 -35.490729411087884 -7.2827102393955112 #
straight-curve $-1 -58.04177939080494 -32.490729411087884 -7.2827102393955112 1 0 0 I I #
coedge $-1 $526 $525 $518 $677 forward $515 $-1 #
edge $-1 $678 34.645358866163001 $681 38.752404238875791 $676 $755 forward 7 unknown #
vertex $-1 $530 $756 #
straight-curve $-1 0.56968919722379496 -52.812598193762767 7.282710239395513 0 -1 0 I I #
edge $-1 $681 -2.7542176072336311 $527 9.4020312161484831 $526 $757 forward 7 unknown #
vertex $-1 $680 $758 #
straight-curve $-1 0.56968919722379496 -35.490729411087884 3.1756648666827232 0 0.75470957328743171 0.6560590369687036 I I #
point $-1 0.56968919722379496 -30.766114268167364 7.2827102393955112 #
point $-1 12.725938020605909 -35.490729411087884 3.1756648666827232 #
straight-curve $-1 0 -35.490729411087884 7.2827102393955112 1 0 0 I I #
vertex $-1 $533 $759 #
point $-1 8.1478136089148521 -30.271811010425292 1.9430327735594242 #
edge $-1 $689 54.693191613536051 $692 59.048047851262218 $538 $760 forward 7 unknown #
vertex $-1 $552 $761 #
straight-curve $-1 -28.949812753944663 39.074648165566693 7.282710239395513 0 1 0 I I #
edge $-1 $692 10.644745583380576 $549 25.965388757747597 $548 $762 forward 7 unknown #
vertex $-1 $691 $763 #
straight-curve $-1 -28.949812753944663 -7.2269780986872689 59.616168155765791 0 -0.60181501223851219 0.79863551827123203 I I #
point $-1 -28.949812753944663 32.209109948836442 7.282710239395513 #
point $-1 -44.270455928311684 35.490729411087884 2.9278540016693455 #
straight-curve $-1 0 35.490729411087884 7.2827102393955112 -1 0 0 I I #
vertex $-1 $555 $764 #
point $-1 -38.893129307063965 30.961528940383648 2.9287236423272409 #
vertex $-1 $559 $765 #
point $-1 -32.327139375192388 30.961528940383648 2.9287236423272409 #
coedge $-1 $574 $573 $566 $702 forward $563 $-1 #
edge $-1 $703 54.693191613536051 $706 59.048047851262218 $701 $766 forward 7 unknown #
vertex $-1 $578 $767 #
straight-curve $-1 -4.5193642127066038 39.074648165566693 7.282710239395513 0 1 0 I I #
edge $-1 $706 -1.5704786872384542 $575 13.750164487128568 $574 $768 forward 7 unknown #
vertex $-1 $705 $769 #
straight-curve $-1 -4.5193642127066038 -7.2269780986872689 59.616168155765791 0 -0.60181501223851219 0.79863551827123203 I I #
point $-1 -4.5193642127066038 32.209109948836442 7.282710239395513 #
point $-1 -19.840007387073626 35.490729411087884 2.9278540016693455 #
straight-curve $-1 0 35.490729411087884 7.2827102393955112 -1 0 0 I I #
vertex $-1 $581 $770 #
point $-1 -14.462680765825908 30.961528940383648 2.9287236423272409 #
vertex $-1 $585 $771 #
point $-1 -7.8966908339543238 30.961528940383648 2.9287236423272409 #
coedge $-1 $600 $599 $592 $716 forward $589 $-1 #
edge $-1 $717 54.693191613536051 $720 59.048047851262218 $715 $772 forward 7 unknown #
vertex $-1 $604 $773 #
straight-curve $-1 19.911084328531452 39.074648165566693 7.282710239395513 0 1 0 I I #
edge $-1 $720 -13.785702957857481 $601 1.5349402165095416 $600 $774 forward 7 unknown #
vertex $-1 $719 $775 #
straight-curve $-1 19.911084328531452 -7.2269780986872689 59.616168155765791 0 -0.60181501223851219 0.79863551827123203 I I #
point $-1 19.911084328531452 32.209109948836442 7.282710239395513 #
point $-1 4.590441154164429 35.490729411087884 2.9278540016693455 #
straight-curve $-1 0 35.490729411087884 7.2827102393955112 -1 0 0 I I #
vertex $-1 $607 $776 #
point $-1 9.967767775412149 30.961528940383648 2.9287236423272409 #
vertex $-1 $611 $777 #
point $-1 16.533757707283726 30.961528940383648 2.9287236423272409 #
coedge $-1 $626 $625 $618 $730 forward $615 $-1 #
edge $-1 $731 54.693191613536051 $734 59.048047851262218 $729 $778 forward 7 unknown #
vertex $-1 $630 $779 #
straight-curve $-1 44.341532869769516 39.074648165566693 7.282710239395513 0 1 0 I I #
edge $-1 $734 -26.000927228476513 $627 -10.680284054109492 $626 $780 forward 7 unknown #
vertex $-1 $733 $781 #
straight-curve $-1 44.341532869769516 -7.2269780986872689 59.616168155765791 0 -0.60181501223851219 0.79863551827123203 I I #
point $-1 44.341532869769516 32.209109948836442 7.282710239395513 #
point $-1 29.020889695402495 35.490729411087884 2.9278540016693455 #
straight-curve $-1 0 35.490729411087884 7.2827102393955112 -1 0 0 I I #
vertex $-1 $633 $782 #
point $-1 34.398216316650206 30.961528940383648 2.9287236423272409 #
vertex $-1 $637 $783 #
point $-1 40.964206248521791 30.961528940383648 2.9287236423272409 #
straight-curve $-1 -53.451338236640524 35.490729411087884 0 0 0 -1 I I #
point $-1 -53.451338236640524 -35.490729411087884 -7.2827102393955112 #
straight-curve $-1 -53.451338236640524 0 -7.2827102393955112 0 1 0 I I #
point $-1 -53.451338236640524 35.490729411087884 -7.2827102393955112 #
edge $-1 $668 -7.2827102393955112 $748 7.2827102393955112 $659 $784 forward 7 unknown #
vertex $-1 $661 $785 #
straight-curve $-1 -62.632220544969357 -33.990729411087884 -7.2827102393955112 0 1 0 I I #
straight-curve $-1 -62.632220544969357 -33.990729411087884 7.2827102393955112 0 -1 0 I I #
point $-1 -62.632220544969357 -32.490729411087884 7.2827102393955112 #
point $-1 -62.632220544969357 -32.490729411087884 -7.2827102393955112 #
point $-1 -62.632220544969357 -35.490729411087884 7.2827102393955112 #
straight-curve $-1 -58.04177939080494 -35.490729411087884 -7.2827102393955112 -1 0 0 I I #
straight-curve $-1 0.56968919722379496 -35.490729411087884 41.928069105558514 0 0 -1 I I #
point $-1 0.56968919722379496 -35.490729411087884 7.2827102393955112 #
straight-curve $-1 3.323906804457426 -35.490729411087884 3.1756648666827232 1 0 0 I I #
point $-1 0.56968919722379496 -35.490729411087884 3.1756648666827232 #
point $-1 6.6478136089148521 -29.287722454972236 0.81096841362827654 #
straight-curve $-1 -28.949812753944663 35.490729411087884 61.975901852931564 0 0 -1 I I #
point $-1 -28.949812753944663 35.490729411087884 7.2827102393955112 #
straight-curve $-1 -18.305067170564087 35.490729411087884 2.9278540016693384 -1 0 0 I I #
point $-1 -28.949812753944663 35.490729411087884 2.9278540016693455 #
point $-1 -39.893129307063965 30.162893422112415 2.3269086300887283 #
point $-1 -33.327139375192388 30.162893422112415 2.3269086300887283 #
straight-curve $-1 -4.5193642127066038 35.490729411087884 61.975901852931564 0 0 -1 I I #
point $-1 -4.5193642127066038 35.490729411087884 7.2827102393955112 #
straight-curve $-1 -6.089842899945058 35.490729411087884 2.9278540016693384 -1 0 0 I I #
point $-1 -4.5193642127066038 35.490729411087884 2.9278540016693455 #
point $-1 -15.462680765825908 30.162893422112415 2.3269086300887283 #
point $-1 -8.8966908339543238 30.162893422112415 2.3269086300887283 #
straight-curve $-1 19.911084328531452 35.490729411087884 61.975901852931564 0 0 -1 I I #
point $-1 19.911084328531452 35.490729411087884 7.2827102393955112 #
straight-curve $-1 6.1253813706739706 35.490729411087884 2.9278540016693384 -1 0 0 I I #
point $-1 19.911084328531452 35.490729411087884 2.9278540016693455 #
point $-1 8.967767775412149 30.162893422112415 2.3269086300887283 #
point $-1 15.533757707283726 30.162893422112415 2.3269086300887283 #
straight-curve $-1 44.341532869769516 35.490729411087884 61.975901852931564 0 0 -1 I I #
point $-1 44.341532869769516 35.490729411087884 7.2827102393955112 #
straight-curve $-1 18.340605641293003 35.490729411087884 2.9278540016693384 -1 0 0 I I #
point $-1 44.341532869769516 35.490729411087884 2.9278540016693455 #
point $-1 33.398216316650206 30.162893422112415 2.3269086300887283 #
point $-1 39.964206248521791 30.162893422112415 2.3269086300887283 #
straight-curve $-1 -62.632220544969357 -35.490729411087884 0 0 0 -1 I I #
point $-1 -62.632220544969357 -35.490729411087884 -7.2827102393955112 #
End-of-ACIS-data 