500 0 11 0           
7 Unknown 11 ACIS 5.0 NT 24 Fri Mar 26 17:20:58 1999 
-1 9.9999999999999995e-007 1e-010 
body $-1 $11 $-1 $12 #
body $-1 $13 $-1 $14 #
body $-1 $15 $-1 $16 #
body $-1 $17 $-1 $18 #
body $-1 $19 $-1 $20 #
body $-1 $21 $-1 $22 #
body $-1 $23 $-1 $24 #
body $-1 $25 $-1 $26 #
body $-1 $27 $-1 $28 #
body $-1 $29 $-1 $30 #
body $-1 $31 $-1 $32 #
lump $-1 $-1 $33 $0 #
transform $-1 1 0 0 0 1 0 0 0 1 56.315195165868104 34.212593892906582 14.137140378770608 1 rotate no_reflect no_shear #
lump $-1 $-1 $34 $1 #
transform $-1 1 0 0 0 1 0 0 0 1 56.315195165868104 34.212593892906582 14.137140378770608 1 rotate no_reflect no_shear #
lump $-1 $-1 $35 $2 #
transform $-1 1 0 0 0 1 0 0 0 1 56.315195165868104 34.212593892906582 14.137140378770608 1 rotate no_reflect no_shear #
lump $-1 $-1 $36 $3 #
transform $-1 1 0 0 0 1 0 0 0 1 56.315195165868104 34.212593892906582 14.137140378770608 1 rotate no_reflect no_shear #
lump $-1 $-1 $37 $4 #
transform $-1 1 0 0 0 1 0 0 0 1 56.315195165868104 34.212593892906582 14.137140378770608 1 rotate no_reflect no_shear #
lump $-1 $-1 $38 $5 #
transform $-1 1 0 0 0 1 0 0 0 1 56.315195165868104 34.212593892906582 14.137140378770608 1 rotate no_reflect no_shear #
lump $-1 $-1 $39 $6 #
transform $-1 1 0 0 0 1 0 0 0 1 56.315195165868104 34.212593892906582 14.137140378770608 1 rotate no_reflect no_shear #
lump $-1 $-1 $40 $7 #
transform $-1 1 0 0 0 1 0 0 0 1 56.315195165868104 34.212593892906582 14.137140378770608 1 rotate no_reflect no_shear #
lump $-1 $-1 $41 $8 #
transform $-1 1 0 0 0 1 0 0 0 1 56.315195165868104 34.212593892906582 14.137140378770608 1 rotate no_reflect no_shear #
lump $-1 $-1 $42 $9 #
transform $-1 1 0 0 0 1 0 0 0 1 56.315195165868104 34.212593892906582 14.137140378770608 1 rotate no_reflect no_shear #
lump $-1 $-1 $43 $10 #
transform $-1 1 0 0 0 1 0 0 0 1 56.315195165868104 34.212593892906582 14.137140378770608 1 rotate no_reflect no_shear #
shell $-1 $-1 $-1 $44 $-1 $11 #
shell $-1 $-1 $-1 $45 $-1 $13 #
shell $-1 $-1 $-1 $46 $-1 $15 #
shell $-1 $-1 $-1 $47 $-1 $17 #
shell $-1 $-1 $-1 $48 $-1 $19 #
shell $-1 $-1 $-1 $49 $-1 $21 #
shell $-1 $-1 $-1 $50 $-1 $23 #
shell $-1 $-1 $-1 $51 $-1 $25 #
shell $-1 $-1 $-1 $52 $-1 $27 #
shell $-1 $-1 $-1 $53 $-1 $29 #
shell $-1 $-1 $-1 $54 $-1 $31 #
face $-1 $55 $56 $33 $-1 $57 forward single #
face $-1 $58 $59 $34 $-1 $60 forward single #
face $-1 $61 $62 $35 $-1 $63 forward single #
face $-1 $64 $65 $36 $-1 $66 reversed single #
face $-1 $67 $68 $37 $-1 $69 forward single #
face $-1 $70 $71 $38 $-1 $72 forward single #
face $-1 $73 $74 $39 $-1 $75 reversed single #
face $-1 $76 $77 $40 $-1 $78 forward single #
face $-1 $79 $80 $41 $-1 $81 forward single #
face $-1 $82 $83 $42 $-1 $84 reversed single #
face $-1 $85 $86 $43 $-1 $87 forward single #
face $-1 $88 $89 $33 $-1 $90 reversed single #
loop $-1 $-1 $91 $44 #
plane-surface $-1 0 0 14.137140378770608 0 0 1 1 0 0 forward_v I I I I #
face $-1 $92 $93 $34 $-1 $94 reversed single #
loop $-1 $-1 $95 $45 #
plane-surface $-1 0 -34.212593892906582 0 0 1 0 0 0 1 forward_v I I I I #
face $-1 $96 $97 $35 $-1 $98 reversed single #
loop $-1 $-1 $99 $46 #
plane-surface $-1 0 34.212593892906582 0 0 -1 0 0 0 -1 forward_v I I I I #
face $-1 $100 $101 $36 $-1 $102 reversed single #
loop $-1 $-1 $103 $47 #
plane-surface $-1 -151.8311841486057 -9.2175601648619505 67.624477526545974 0 1 0 -0.84804810408105047 0 0.52991925155115449 forward_v I I I I #
face $-1 $104 $105 $37 $-1 $106 forward single #
loop $-1 $107 $108 $48 #
cone-surface $-1 -52.996837190346078 -6.5839715463299662 10.174740049889731 0.84804810408105047 0 -0.52991925155115449 0.52991925155115449 0 0.84804810408105047 1 I I 0 1 1 forward I I I I #
face $-1 $109 $110 $38 $-1 $111 forward single #
loop $-1 $112 $113 $49 #
cone-surface $-1 -52.996837190346078 -2.6335886185319879 10.174740049889731 0.84804810408105047 0 -0.52991925155115449 0.52991925155115449 0 0.84804810408105047 1 I I 0 1 1 forward I I I I #
face $-1 $114 $115 $39 $-1 $116 reversed single #
loop $-1 $-1 $117 $50 #
plane-surface $-1 -56.315195165868133 -4.6087800824309753 7.9394653800379373 -0.84804810408105047 0 0.52991925155115449 0.52991925155115449 0 0.84804810408105047 forward_v I I I I #
face $-1 $118 $119 $40 $-1 $120 forward single #
loop $-1 $121 $122 $51 #
cone-surface $-1 -52.996837190346078 2.6335886185319808 10.174740049889731 0.84804810408105047 0 -0.52991925155115449 0.52991925155115449 0 0.84804810408105047 1 I I 0 1 1 forward I I I I #
face $-1 $123 $124 $41 $-1 $125 forward single #
loop $-1 $126 $127 $52 #
cone-surface $-1 -52.996837190346078 6.5839715463299626 10.174740049889731 0.84804810408105047 0 -0.52991925155115449 0.52991925155115449 0 0.84804810408105047 1 I I 0 1 1 forward I I I I #
face $-1 $128 $129 $42 $-1 $130 reversed single #
loop $-1 $-1 $131 $53 #
plane-surface $-1 59.095076136034109 -12.295151569509471 162.89019924939831 0 -1 0 -0.71933980857756763 0 -0.69465836192734942 forward_v I I I I #
face $-1 $132 $133 $43 $-1 $134 forward single #
loop $-1 $135 $136 $54 #
cone-surface $-1 49.544274668129361 -16.206939481121264 7.2442451890853299 -0.71933980857756763 0 -0.69465836192734942 1.0419875428910241 0 -1.0790097128663514 1 I I 0 1 1.5 forward I I I I #
face $-1 $137 $138 $33 $-1 $139 reversed single #
loop $-1 $-1 $140 $55 #
plane-surface $-1 0 0 -14.137140378770608 0 0 1 1 0 0 forward_v I I I I #
coedge $-1 $141 $142 $143 $144 forward $56 $-1 #
face $-1 $145 $146 $34 $-1 $147 reversed single #
loop $-1 $-1 $148 $58 #
plane-surface $-1 0 0 -14.137140378770608 0 0 1 1 0 0 forward_v I I I I #
coedge $-1 $149 $150 $151 $152 forward $59 $-1 #
face $-1 $153 $154 $35 $-1 $155 forward single #
loop $-1 $-1 $156 $61 #
plane-surface $-1 -56.315195165868104 0 0 1 0 0 0 0 -1 forward_v I I I I #
coedge $-1 $157 $158 $159 $160 forward $62 $-1 #
face $-1 $161 $162 $36 $-1 $163 reversed single #
loop $-1 $-1 $164 $64 #
plane-surface $-1 -56.315195165868133 -4.6087800824309753 7.9394653800379373 -0.84804810408105047 0 0.52991925155115449 0.52991925155115449 0 0.84804810408105047 forward_v I I I I #
coedge $-1 $165 $166 $167 $168 reversed $65 $-1 #
face $-1 $-1 $169 $37 $-1 $170 forward single #
loop $-1 $171 $172 $67 #
cone-surface $-1 -51.19082367824916 -6.5839715463299662 9.0462175945996197 0.84804810408105047 0 -0.52991925155115449 0.26495962577557725 0 0.42402405204052523 1 I I -0.70710678118654746 0.70710678118654746 0.5 forward I I I I #
loop $-1 $-1 $173 $48 #
coedge $-1 $108 $108 $174 $175 reversed $68 $-1 #
face $-1 $-1 $176 $38 $-1 $177 forward single #
loop $-1 $178 $179 $70 #
cone-surface $-1 -51.19082367824916 -2.6335886185319879 9.0462175945996197 0.84804810408105047 0 -0.52991925155115449 0.26495962577557725 0 0.42402405204052523 1 I I -0.70710678118654746 0.70710678118654746 0.5 forward I I I I #
loop $-1 $-1 $180 $49 #
coedge $-1 $113 $113 $181 $182 reversed $71 $-1 #
face $-1 $183 $184 $39 $-1 $185 forward single #
loop $-1 $-1 $186 $73 #
plane-surface $-1 -151.8311841486057 9.2175601648619434 67.624477526545974 0 -1 0 0.84804810408105047 0 -0.52991925155115449 forward_v I I I I #
coedge $-1 $187 $188 $189 $190 reversed $74 $-1 #
face $-1 $-1 $191 $40 $-1 $192 forward single #
loop $-1 $193 $194 $76 #
cone-surface $-1 -51.19082367824916 2.6335886185319808 9.0462175945996197 0.84804810408105047 0 -0.52991925155115449 0.26495962577557725 0 0.42402405204052523 1 I I -0.70710678118654746 0.70710678118654746 0.5 forward I I I I #
loop $-1 $-1 $195 $51 #
coedge $-1 $122 $122 $196 $197 reversed $77 $-1 #
face $-1 $-1 $198 $41 $-1 $199 forward single #
loop $-1 $200 $201 $79 #
cone-surface $-1 -51.19082367824916 6.5839715463299626 9.0462175945996197 0.84804810408105047 0 -0.52991925155115449 0.26495962577557725 0 0.42402405204052523 1 I I -0.70710678118654746 0.70710678118654746 0.5 forward I I I I #
loop $-1 $-1 $202 $52 #
coedge $-1 $127 $127 $203 $204 reversed $80 $-1 #
face $-1 $205 $206 $42 $-1 $207 reversed single #
loop $-1 $-1 $208 $82 #
plane-surface $-1 -21.924447285213745 -16.206939481121264 84.650556798316458 0.71933980857756763 0 0.69465836192734942 0.69465836192734942 0 -0.71933980857756763 forward_v I I I I #
coedge $-1 $209 $210 $211 $212 reversed $83 $-1 #
face $-1 $-1 $213 $43 $-1 $214 forward single #
loop $-1 $215 $216 $85 #
cone-surface $-1 47.306663992785829 -16.206939481121264 5.0834097288055364 -0.71933980857756763 0 -0.69465836192734942 0.52099377144551207 0 -0.53950485643317569 1 I I -0.70710678118654757 0.70710678118654757 0.75 forward I I I I #
loop $-1 $-1 $217 $54 #
coedge $-1 $136 $136 $218 $219 reversed $86 $-1 #
face $-1 $220 $221 $33 $-1 $222 reversed single #
loop $-1 $-1 $223 $88 #
plane-surface $-1 0 -34.212593892906582 0 0 1 0 0 0 1 forward_v I I I I #
coedge $-1 $224 $225 $226 $227 forward $89 $-1 #
coedge $-1 $228 $91 $229 $230 forward $56 $-1 #
coedge $-1 $91 $228 $231 $232 forward $56 $-1 #
coedge $-1 $233 $234 $91 $144 reversed $235 $-1 #
edge $-1 $236 -34.212593892906582 $237 34.212593892906582 $143 $238 forward 7 unknown #
face $-1 $239 $240 $34 $-1 $241 forward single #
loop $-1 $-1 $242 $92 #
plane-surface $-1 56.315195165868104 0 0 -1 0 0 0 0 1 forward_v I I I I #
coedge $-1 $243 $244 $245 $246 forward $93 $-1 #
coedge $-1 $245 $95 $242 $247 reversed $59 $-1 #
coedge $-1 $95 $245 $248 $249 reversed $59 $-1 #
coedge $-1 $250 $251 $95 $152 reversed $240 $-1 #
edge $-1 $252 -56.315195165868104 $253 56.315195165868104 $151 $254 forward 7 unknown #
face $-1 $255 $256 $35 $-1 $257 reversed single #
loop $-1 $-1 $258 $96 #
plane-surface $-1 0 41.259527142993349 -6.5532960796295807 0 0 1 1 0 0 forward_v I I I I #
coedge $-1 $259 $260 $157 $261 forward $97 $-1 #
coedge $-1 $262 $99 $156 $261 reversed $62 $-1 #
coedge $-1 $99 $262 $263 $264 reversed $62 $-1 #
coedge $-1 $258 $265 $99 $160 reversed $154 $-1 #
edge $-1 $266 -56.315195165868104 $267 56.315195165868104 $159 $268 forward 7 unknown #
face $-1 $269 $270 $36 $-1 $271 reversed single #
loop $-1 $-1 $272 $100 #
plane-surface $-1 -151.8311841486057 0 67.624477526545974 0 -1 0 0.84804810408105047 0 -0.52991925155115449 forward_v I I I I #
coedge $-1 $273 $274 $275 $276 reversed $101 $-1 #
coedge $-1 $166 $103 $277 $278 reversed $65 $-1 #
coedge $-1 $103 $165 $273 $279 reversed $65 $-1 #
coedge $-1 $275 $280 $103 $168 forward $281 $-1 #
edge $-1 $282 19.600396908434746 $283 23.473133939365965 $167 $284 forward 7 unknown #
loop $-1 $-1 $174 $104 #
plane-surface $-1 -56.315195165868133 -4.6087800824309753 7.9394653800379373 -0.84804810408105047 0 0.52991925155115449 0.52991925155115449 0 0.84804810408105047 forward_v I I I I #
loop $-1 $-1 $285 $67 #
coedge $-1 $172 $172 $173 $286 reversed $105 $-1 #
coedge $-1 $173 $173 $172 $286 forward $107 $-1 #
coedge $-1 $174 $174 $108 $175 forward $169 $-1 #
edge $-1 $287 0 $287 6.2831853071796004 $174 $288 forward 7 unknown #
loop $-1 $-1 $181 $109 #
plane-surface $-1 -56.315195165868133 -4.6087800824309753 7.9394653800379373 -0.84804810408105047 0 0.52991925155115449 0.52991925155115449 0 0.84804810408105047 forward_v I I I I #
loop $-1 $-1 $289 $70 #
coedge $-1 $179 $179 $180 $290 reversed $110 $-1 #
coedge $-1 $180 $180 $179 $290 forward $112 $-1 #
coedge $-1 $181 $181 $113 $182 forward $176 $-1 #
edge $-1 $291 0 $291 6.2831853071796004 $181 $292 forward 7 unknown #
face $-1 $293 $294 $39 $-1 $295 forward single #
loop $-1 $-1 $296 $114 #
plane-surface $-1 0 0 14.137140378770608 0 0 1 1 0 0 forward_v I I I I #
coedge $-1 $297 $298 $299 $300 reversed $115 $-1 #
coedge $-1 $301 $117 $302 $303 reversed $74 $-1 #
coedge $-1 $117 $301 $296 $304 reversed $74 $-1 #
coedge $-1 $305 $306 $117 $190 forward $294 $-1 #
edge $-1 $307 5.3475330259696214e-014 $308 7.3081644412712947 $189 $309 forward 7 unknown #
loop $-1 $-1 $196 $118 #
plane-surface $-1 -56.315195165868133 -4.6087800824309753 7.9394653800379373 -0.84804810408105047 0 0.52991925155115449 0.52991925155115449 0 0.84804810408105047 forward_v I I I I #
loop $-1 $-1 $310 $76 #
coedge $-1 $194 $194 $195 $311 reversed $119 $-1 #
coedge $-1 $195 $195 $194 $311 forward $121 $-1 #
coedge $-1 $196 $196 $122 $197 forward $191 $-1 #
edge $-1 $312 0 $312 6.2831853071796004 $196 $313 forward 7 unknown #
loop $-1 $-1 $203 $123 #
plane-surface $-1 -56.315195165868133 -4.6087800824309753 7.9394653800379373 -0.84804810408105047 0 0.52991925155115449 0.52991925155115449 0 0.84804810408105047 forward_v I I I I #
loop $-1 $-1 $314 $79 #
coedge $-1 $201 $201 $202 $315 reversed $124 $-1 #
coedge $-1 $202 $202 $201 $315 forward $126 $-1 #
coedge $-1 $203 $203 $127 $204 forward $198 $-1 #
edge $-1 $316 0 $316 6.2831853071796004 $203 $317 forward 7 unknown #
face $-1 $318 $319 $42 $-1 $320 forward single #
loop $-1 $-1 $321 $128 #
plane-surface $-1 59.095076136034109 -20.118727392733057 162.89019924939831 0 1 0 0.71933980857756763 0 0.69465836192734942 forward_v I I I I #
coedge $-1 $322 $323 $324 $325 reversed $129 $-1 #
coedge $-1 $210 $131 $326 $327 reversed $83 $-1 #
coedge $-1 $131 $209 $322 $328 reversed $83 $-1 #
coedge $-1 $324 $329 $131 $212 forward $319 $-1 #
edge $-1 $330 -26.76765709785105 $331 -16.622027740194291 $211 $332 forward 7 unknown #
loop $-1 $-1 $218 $132 #
plane-surface $-1 -21.924447285213745 -16.206939481121264 84.650556798316458 0.71933980857756763 0 0.69465836192734942 0.69465836192734942 0 -0.71933980857756763 forward_v I I I I #
loop $-1 $-1 $333 $85 #
coedge $-1 $216 $216 $217 $334 reversed $133 $-1 #
coedge $-1 $217 $217 $216 $334 forward $135 $-1 #
coedge $-1 $218 $218 $136 $219 forward $213 $-1 #
edge $-1 $335 0 $335 6.2831853071796004 $218 $336 forward 7 unknown #
face $-1 $337 $338 $33 $-1 $339 reversed single #
loop $-1 $-1 $340 $137 #
plane-surface $-1 -56.315195165868104 0 0 1 0 0 0 0 -1 forward_v I I I I #
coedge $-1 $341 $231 $342 $343 forward $138 $-1 #
coedge $-1 $344 $140 $341 $345 forward $89 $-1 #
coedge $-1 $140 $344 $346 $347 forward $89 $-1 #
coedge $-1 $234 $233 $140 $227 reversed $235 $-1 #
edge $-1 $348 -34.212593892906582 $349 34.212593892906582 $226 $350 forward 7 unknown #
coedge $-1 $142 $141 $351 $352 forward $56 $-1 #
coedge $-1 $353 $354 $141 $230 reversed $338 $-1 #
edge $-1 $237 -56.315195165868104 $355 56.315195165868104 $229 $356 forward 7 unknown #
coedge $-1 $223 $357 $142 $232 reversed $138 $-1 #
edge $-1 $358 -56.315195165868104 $236 56.315195165868104 $231 $359 forward 7 unknown #
coedge $-1 $226 $143 $357 $360 forward $235 $-1 #
coedge $-1 $143 $226 $353 $361 reversed $235 $-1 #
loop $-1 $-1 $233 $337 #
vertex $-1 $144 $362 #
vertex $-1 $144 $363 #
straight-curve $-1 56.315195165868104 0 14.137140378770608 0 1 0 I I #
face $-1 $364 $365 $34 $-1 $366 reversed single #
loop $-1 $-1 $251 $145 #
plane-surface $-1 0 -41.259527142993342 -6.5532960796295807 0 0 1 1 0 0 forward_v I I I I #
coedge $-1 $367 $368 $149 $247 forward $146 $-1 #
coedge $-1 $369 $148 $368 $370 forward $93 $-1 #
coedge $-1 $148 $369 $371 $372 forward $93 $-1 #
coedge $-1 $150 $149 $148 $246 reversed $59 $-1 #
edge $-1 $373 -56.315195165868104 $374 56.315195165868104 $148 $375 forward 7 unknown #
edge $-1 $374 -14.137140378770608 $253 -6.5532960796295807 $242 $376 forward 7 unknown #
coedge $-1 $371 $377 $150 $249 forward $378 $-1 #
edge $-1 $252 6.5532960796295807 $373 14.137140378770608 $248 $379 forward 7 unknown #
coedge $-1 $380 $151 $377 $381 forward $240 $-1 #
coedge $-1 $151 $380 $367 $382 forward $240 $-1 #
vertex $-1 $249 $383 #
vertex $-1 $382 $384 #
straight-curve $-1 0 -34.212593892906582 -6.5532960796295807 1 0 0 I I #
face $-1 $385 $386 $35 $-1 $387 reversed single #
loop $-1 $-1 $388 $153 #
plane-surface $-1 0 48.306460393080108 -10.345218229200094 0 -1 0 0 0 -1 forward_v I I I I #
coedge $-1 $389 $159 $390 $391 forward $154 $-1 #
coedge $-1 $392 $156 $265 $393 reversed $97 $-1 #
coedge $-1 $156 $392 $394 $395 reversed $97 $-1 #
edge $-1 $396 -14.137140378770608 $267 -6.5532960796295807 $156 $397 forward 7 unknown #
coedge $-1 $158 $157 $398 $399 reversed $62 $-1 #
coedge $-1 $400 $390 $158 $264 forward $401 $-1 #
edge $-1 $266 6.5532960796295807 $402 14.137140378770608 $263 $403 forward 7 unknown #
coedge $-1 $159 $389 $259 $393 forward $154 $-1 #
vertex $-1 $264 $404 #
vertex $-1 $393 $405 #
straight-curve $-1 0 34.212593892906582 -6.5532960796295807 -1 0 0 I I #
face $-1 $-1 $281 $36 $-1 $406 forward single #
loop $-1 $-1 $407 $161 #
plane-surface $-1 -56.315195165868104 0 0 1 0 0 0 0 -1 forward_v I I I I #
coedge $-1 $408 $409 $410 $411 reversed $162 $-1 #
coedge $-1 $412 $164 $166 $279 forward $101 $-1 #
coedge $-1 $164 $412 $408 $413 forward $101 $-1 #
coedge $-1 $410 $167 $164 $276 forward $281 $-1 #
edge $-1 $283 -6.9131701236464629 $414 2.3043900412154876 $275 $415 forward 7 unknown #
coedge $-1 $416 $417 $165 $278 forward $270 $-1 #
edge $-1 $418 -25.872773383235003 $282 -19.675098384502377 $277 $419 forward 7 unknown #
edge $-1 $283 -7.3081644412712947 $418 -5.3475330259696214e-014 $166 $420 forward 7 unknown #
coedge $-1 $167 $410 $416 $421 forward $281 $-1 #
loop $-1 $-1 $410 $269 #
vertex $-1 $278 $422 #
vertex $-1 $168 $423 #
straight-curve $-1 -75.91559207430285 -9.2175601648619505 14.13714037877061 1 0 0 I I #
coedge $-1 $285 $285 $-1 $424 reversed $171 $-1 #
edge $-1 $425 0 $425 6.2831853071796004 $172 $426 forward 7 unknown #
vertex $-1 $175 $427 #
ellipse-curve $-1 -54.378826650402502 -6.5839715463299662 11.038302879404284 -0.84804810408105047 0 0.52991925155115449 0.52991925155115449 0 0.84804810408105047 1 I I #
coedge $-1 $289 $289 $-1 $428 reversed $178 $-1 #
edge $-1 $429 0 $429 6.2831853071796004 $179 $430 forward 7 unknown #
vertex $-1 $182 $431 #
ellipse-curve $-1 -54.378826650402502 -2.6335886185319879 11.038302879404284 -0.84804810408105047 0 0.52991925155115449 0.52991925155115449 0 0.84804810408105047 1 I I #
face $-1 $-1 $432 $39 $-1 $433 reversed single #
loop $-1 $-1 $305 $183 #
plane-surface $-1 -151.8311841486057 0 67.624477526545974 0 -1 0 0.84804810408105047 0 -0.52991925155115449 forward_v I I I I #
coedge $-1 $299 $434 $188 $304 forward $184 $-1 #
coedge $-1 $298 $186 $301 $435 reversed $115 $-1 #
coedge $-1 $186 $297 $436 $437 reversed $115 $-1 #
coedge $-1 $438 $296 $186 $300 forward $184 $-1 #
edge $-1 $439 -23.473133939365965 $440 -19.600396908434746 $299 $441 forward 7 unknown #
coedge $-1 $188 $187 $297 $435 forward $74 $-1 #
coedge $-1 $442 $436 $187 $303 forward $432 $-1 #
edge $-1 $443 -11.521950206077431 $307 -2.3043900412154876 $302 $444 forward 7 unknown #
edge $-1 $308 2.3043900412154876 $439 11.521950206077431 $296 $445 forward 7 unknown #
coedge $-1 $306 $189 $434 $446 reversed $294 $-1 #
coedge $-1 $189 $305 $442 $447 reversed $294 $-1 #
vertex $-1 $303 $448 #
vertex $-1 $304 $449 #
straight-curve $-1 -56.315195165868133 0 7.9394653800379373 0.52991925155115449 0 0.84804810408105047 I I #
coedge $-1 $310 $310 $-1 $450 reversed $193 $-1 #
edge $-1 $451 0 $451 6.2831853071796004 $194 $452 forward 7 unknown #
vertex $-1 $197 $453 #
ellipse-curve $-1 -54.378826650402502 2.6335886185319808 11.038302879404284 -0.84804810408105047 0 0.52991925155115449 0.52991925155115449 0 0.84804810408105047 1 I I #
coedge $-1 $314 $314 $-1 $454 reversed $200 $-1 #
edge $-1 $455 0 $455 6.2831853071796004 $201 $456 forward 7 unknown #
vertex $-1 $204 $457 #
ellipse-curve $-1 -54.378826650402502 6.5839715463299626 11.038302879404284 -0.84804810408105047 0 0.52991925155115449 0.52991925155115449 0 0.84804810408105047 1 I I #
face $-1 $-1 $458 $42 $-1 $459 reversed single #
loop $-1 $-1 $211 $205 #
plane-surface $-1 0 0 14.137140378770608 0 0 1 1 0 0 forward_v I I I I #
coedge $-1 $460 $461 $462 $463 reversed $206 $-1 #
coedge $-1 $464 $208 $210 $328 forward $129 $-1 #
coedge $-1 $208 $464 $460 $465 forward $129 $-1 #
coedge $-1 $462 $211 $208 $325 forward $319 $-1 #
edge $-1 $331 4.1916818289488393 $466 12.015257652172425 $324 $467 forward 7 unknown #
coedge $-1 $468 $469 $209 $327 forward $458 $-1 #
edge $-1 $470 -77.814066247630549 $330 -67.307959245928544 $326 $471 forward 7 unknown #
edge $-1 $331 98.025183061924594 $470 112.63039033173621 $210 $472 forward 7 unknown #
coedge $-1 $211 $462 $468 $473 forward $319 $-1 #
vertex $-1 $327 $474 #
vertex $-1 $212 $475 #
straight-curve $-1 29.547538068017055 -12.295151569509471 14.13714037877061 -1 0 0 I I #
coedge $-1 $333 $333 $-1 $476 reversed $215 $-1 #
edge $-1 $477 0 $477 6.2831853071796004 $216 $478 forward 7 unknown #
vertex $-1 $219 $479 #
ellipse-curve $-1 51.242380487039711 -16.206939481121264 8.8840868779196089 0.71933980857756763 0 0.69465836192734942 1.0419875428910241 0 -1.0790097128663514 1 I I #
face $-1 $-1 $235 $33 $-1 $480 reversed single #
loop $-1 $-1 $353 $220 #
plane-surface $-1 0 34.212593892906582 0 0 -1 0 0 0 -1 forward_v I I I I #
coedge $-1 $481 $351 $354 $482 forward $221 $-1 #
coedge $-1 $357 $223 $224 $345 reversed $138 $-1 #
coedge $-1 $351 $481 $223 $343 reversed $221 $-1 #
edge $-1 $358 -14.137140378770608 $483 14.137140378770608 $342 $484 forward 7 unknown #
coedge $-1 $225 $224 $481 $485 forward $89 $-1 #
edge $-1 $349 -56.315195165868104 $483 56.315195165868104 $341 $486 forward 7 unknown #
coedge $-1 $354 $353 $225 $347 reversed $338 $-1 #
edge $-1 $487 -56.315195165868104 $348 56.315195165868104 $346 $488 forward 7 unknown #
vertex $-1 $227 $489 #
vertex $-1 $360 $490 #
straight-curve $-1 56.315195165868104 0 -14.137140378770608 0 -1 0 I I #
coedge $-1 $340 $342 $228 $352 reversed $221 $-1 #
edge $-1 $355 -34.212593892906582 $358 34.212593892906582 $351 $491 forward 7 unknown #
coedge $-1 $346 $229 $234 $361 forward $338 $-1 #
coedge $-1 $229 $346 $340 $482 reversed $338 $-1 #
vertex $-1 $230 $492 #
straight-curve $-1 0 34.212593892906582 14.137140378770608 -1 0 0 I I #
coedge $-1 $231 $341 $233 $360 reversed $138 $-1 #
vertex $-1 $352 $493 #
straight-curve $-1 0 -34.212593892906582 14.137140378770608 1 0 0 I I #
edge $-1 $236 -14.137140378770608 $349 14.137140378770608 $233 $494 forward 7 unknown #
edge $-1 $237 -14.137140378770608 $348 14.137140378770608 $234 $495 forward 7 unknown #
point $-1 56.315195165868104 -34.212593892906582 14.137140378770608 #
point $-1 56.315195165868104 34.212593892906582 14.137140378770608 #
face $-1 $-1 $378 $34 $-1 $496 reversed single #
loop $-1 $-1 $497 $239 #
plane-surface $-1 0 -48.306460393080101 -10.345218229200094 0 1 0 0 0 1 forward_v I I I I #
coedge $-1 $498 $242 $251 $382 reversed $146 $-1 #
coedge $-1 $242 $498 $243 $370 reversed $146 $-1 #
coedge $-1 $244 $243 $499 $500 forward $93 $-1 #
edge $-1 $374 34.212593892906582 $501 48.306460393080101 $368 $502 forward 7 unknown #
coedge $-1 $503 $248 $244 $372 reversed $378 $-1 #
edge $-1 $504 -48.306460393080101 $373 -34.212593892906582 $371 $505 forward 7 unknown #
vertex $-1 $249 $506 #
vertex $-1 $370 $507 #
straight-curve $-1 0 -34.212593892906582 -14.137140378770608 1 0 0 I I #
straight-curve $-1 56.315195165868104 -34.212593892906582 0 0 0 1 I I #
coedge $-1 $248 $503 $250 $381 reversed $378 $-1 #
loop $-1 $-1 $248 $364 #
straight-curve $-1 -56.315195165868104 -34.212593892906582 0 0 0 -1 I I #
coedge $-1 $251 $250 $508 $509 forward $240 $-1 #
edge $-1 $252 -7.0469332500867594 $510 7.0469332500867594 $377 $511 forward 7 unknown #
edge $-1 $512 -7.0469332500867594 $253 7.0469332500867594 $367 $513 forward 7 unknown #
point $-1 -56.315195165868104 -34.212593892906582 -6.5532960796295807 #
point $-1 56.315195165868104 -34.212593892906582 -6.5532960796295807 #
face $-1 $-1 $401 $35 $-1 $514 reversed single #
loop $-1 $-1 $398 $255 #
plane-surface $-1 0 0 -14.137140378770608 0 0 1 1 0 0 forward_v I I I I #
coedge $-1 $515 $516 $517 $518 forward $256 $-1 #
coedge $-1 $265 $258 $516 $519 forward $154 $-1 #
coedge $-1 $263 $517 $258 $391 reversed $401 $-1 #
edge $-1 $266 -7.0469332500867594 $520 7.0469332500867594 $390 $521 forward 7 unknown #
coedge $-1 $260 $259 $522 $523 forward $97 $-1 #
edge $-1 $524 -7.0469332500867594 $267 7.0469332500867594 $259 $525 forward 7 unknown #
coedge $-1 $526 $398 $260 $395 forward $386 $-1 #
edge $-1 $396 -7.0469332500867665 $527 7.0469332500867594 $260 $528 forward 7 unknown #
vertex $-1 $395 $529 #
straight-curve $-1 -56.315195165868104 34.212593892906582 0 0 0 1 I I #
coedge $-1 $394 $530 $262 $399 forward $386 $-1 #
edge $-1 $402 -56.315195165868104 $396 56.315195165868104 $398 $531 forward 7 unknown #
coedge $-1 $517 $263 $530 $532 reversed $401 $-1 #
loop $-1 $-1 $263 $385 #
vertex $-1 $264 $533 #
straight-curve $-1 56.315195165868104 34.212593892906582 0 0 0 -1 I I #
point $-1 56.315195165868104 34.21259389290659 -6.5532960796295807 #
point $-1 -56.315195165868104 34.21259389290659 -6.5532960796295807 #
plane-surface $-1 0 0 14.137140378770608 0 0 1 1 0 0 forward_v I I I I #
coedge $-1 $417 $416 $409 $534 forward $270 $-1 #
coedge $-1 $409 $272 $274 $413 reversed $162 $-1 #
coedge $-1 $272 $408 $407 $534 reversed $162 $-1 #
coedge $-1 $280 $275 $272 $411 forward $281 $-1 #
edge $-1 $414 -23.473133939365965 $535 -19.600396908434746 $410 $536 forward 7 unknown #
coedge $-1 $274 $273 $417 $537 reversed $101 $-1 #
edge $-1 $538 5.3475330259696214e-014 $414 7.3081644412712947 $408 $539 forward 7 unknown #
vertex $-1 $276 $540 #
straight-curve $-1 -52.442458134936885 -2.3043900412154876 14.137140378770608 0 1 0 I I #
coedge $-1 $407 $277 $280 $421 reversed $270 $-1 #
coedge $-1 $277 $407 $412 $537 forward $270 $-1 #
vertex $-1 $278 $541 #
straight-curve $-1 -56.315195165868104 -9.2175601648619505 33.812238763272987 0 0 1 I I #
straight-curve $-1 -56.315195165868133 -9.2175601648619505 7.9394653800379373 -0.52991925155115449 0 -0.84804810408105047 I I #
edge $-1 $535 0 $282 9.2175601648619505 $416 $542 forward 7 unknown #
point $-1 -56.315195165868104 -9.2175601648619505 14.137140378770608 #
point $-1 -52.442458134936885 -9.2175601648619505 14.137140378770608 #
edge $-1 $543 1 $543 0 $285 $-1 forward 7 unknown #
vertex $-1 $286 $544 #
ellipse-curve $-1 -51.614847730289682 -6.5839715463299662 9.3111772203751961 -0.84804810408105047 0 0.52991925155115449 0.52991925155115449 0 0.84804810408105047 1 I I #
point $-1 -53.848907398851317 -6.5839715463299662 11.886350983485318 #
edge $-1 $545 1 $545 0 $289 $-1 forward 7 unknown #
vertex $-1 $290 $546 #
ellipse-curve $-1 -51.614847730289682 -2.6335886185319879 9.3111772203751961 -0.84804810408105047 0 0.52991925155115449 0.52991925155115449 0 0.84804810408105047 1 I I #
point $-1 -53.848907398851317 -2.6335886185319879 11.886350983485318 #
loop $-1 $-1 $302 $293 #
plane-surface $-1 -56.315195165868104 0 0 1 0 0 0 0 -1 forward_v I I I I #
coedge $-1 $296 $438 $305 $446 forward $184 $-1 #
edge $-1 $443 5.3475330259696214e-014 $439 7.3081644412712947 $297 $547 forward 7 unknown #
coedge $-1 $302 $548 $298 $437 forward $432 $-1 #
edge $-1 $440 19.675098384502377 $443 25.872773383235003 $436 $549 forward 7 unknown #
coedge $-1 $434 $299 $548 $550 forward $184 $-1 #
vertex $-1 $300 $551 #
vertex $-1 $550 $552 #
straight-curve $-1 -75.91559207430285 9.2175601648619434 14.13714037877061 -1 0 0 I I #
coedge $-1 $548 $302 $306 $447 forward $432 $-1 #
vertex $-1 $437 $553 #
straight-curve $-1 -56.315195165868104 -2.3043900412154876 7.9394653800379782 0 -1 0 I I #
straight-curve $-1 -52.442458134936885 -2.3043900412154876 14.137140378770608 0 1 0 I I #
edge $-1 $554 19.600396908434746 $308 23.473133939365965 $434 $555 forward 7 unknown #
edge $-1 $307 -25.872773383235003 $554 -19.675098384502377 $442 $556 forward 7 unknown #
point $-1 -56.315195165868104 0 7.9394653800379826 #
point $-1 -52.442458134936885 0 14.137140378770608 #
edge $-1 $557 1 $557 0 $310 $-1 forward 7 unknown #
vertex $-1 $311 $558 #
ellipse-curve $-1 -51.614847730289682 2.6335886185319808 9.3111772203751961 -0.84804810408105047 0 0.52991925155115449 0.52991925155115449 0 0.84804810408105047 1 I I #
point $-1 -53.848907398851317 2.6335886185319808 11.886350983485318 #
edge $-1 $559 1 $559 0 $314 $-1 forward 7 unknown #
vertex $-1 $315 $560 #
ellipse-curve $-1 -51.614847730289682 6.5839715463299626 9.3111772203751961 -0.84804810408105047 0 0.52991925155115449 0.52991925155115449 0 0.84804810408105047 1 I I #
point $-1 -53.848907398851317 6.5839715463299626 11.886350983485318 #
loop $-1 $-1 $326 $318 #
plane-surface $-1 56.315195165868104 0 0 -1 0 0 0 0 1 forward_v I I I I #
coedge $-1 $461 $321 $323 $465 reversed $206 $-1 #
coedge $-1 $321 $460 $561 $562 reversed $206 $-1 #
coedge $-1 $329 $324 $321 $463 forward $319 $-1 #
edge $-1 $466 16.622027740194291 $563 26.76765709785105 $462 $564 forward 7 unknown #
coedge $-1 $323 $322 $469 $565 reversed $129 $-1 #
edge $-1 $566 -112.63039033173621 $466 -98.025183061924594 $460 $567 forward 7 unknown #
vertex $-1 $325 $568 #
straight-curve $-1 46.169565808211331 -8.103469740560632 14.137140378770617 0 -1 0 I I #
coedge $-1 $561 $326 $329 $473 reversed $458 $-1 #
coedge $-1 $326 $561 $464 $565 forward $458 $-1 #
vertex $-1 $327 $569 #
straight-curve $-1 56.315195165868104 -12.295151569509471 81.445099624699154 0 0 1 I I #
straight-curve $-1 -21.924447285213745 -12.295151569509471 84.650556798316458 0.69465836192734942 0 -0.71933980857756763 I I #
edge $-1 $563 -20.118727392733057 $330 -12.295151569509471 $468 $570 forward 7 unknown #
point $-1 56.315195165868104 -12.295151569509471 14.137140378770608 #
point $-1 46.169565808211345 -12.295151569509471 14.13714037877061 #
edge $-1 $571 1 $571 0 $333 $-1 forward 7 unknown #
vertex $-1 $334 $572 #
ellipse-curve $-1 47.846168849219005 -16.206939481121264 5.6044035002510482 0.71933980857756763 0 0.69465836192734942 1.0419875428910241 0 -1.0790097128663514 1 I I #
point $-1 52.284368029930739 -16.206939481121264 7.8050771650532598 #
plane-surface $-1 56.315195165868104 0 0 -1 0 0 0 0 1 forward_v I I I I #
coedge $-1 $342 $340 $344 $485 reversed $221 $-1 #
edge $-1 $355 -14.137140378770608 $487 14.137140378770608 $354 $573 forward 7 unknown #
vertex $-1 $485 $574 #
straight-curve $-1 -56.315195165868104 -34.212593892906582 0 0 0 -1 I I #
edge $-1 $483 -34.212593892906582 $487 34.212593892906582 $481 $575 forward 7 unknown #
straight-curve $-1 0 -34.212593892906582 -14.137140378770608 -1 0 0 I I #
vertex $-1 $347 $576 #
straight-curve $-1 0 34.212593892906582 -14.137140378770608 1 0 0 I I #
point $-1 56.315195165868104 34.212593892906582 -14.137140378770608 #
point $-1 56.315195165868104 -34.212593892906582 -14.137140378770608 #
straight-curve $-1 -56.315195165868104 0 14.137140378770608 0 -1 0 I I #
point $-1 -56.315195165868104 34.212593892906582 14.137140378770608 #
point $-1 -56.315195165868104 -34.212593892906582 14.137140378770608 #
straight-curve $-1 56.315195165868104 -34.212593892906582 0 0 0 -1 I I #
straight-curve $-1 56.315195165868104 34.212593892906582 0 0 0 -1 I I #
plane-surface $-1 -56.315195165868104 0 0 1 0 0 0 0 -1 forward_v I I I I #
coedge $-1 $499 $508 $503 $577 forward $365 $-1 #
coedge $-1 $368 $367 $578 $579 forward $146 $-1 #
coedge $-1 $578 $497 $369 $500 reversed $365 $-1 #
edge $-1 $501 -56.315195165868104 $504 56.315195165868104 $499 $580 forward 7 unknown #
vertex $-1 $579 $581 #
straight-curve $-1 56.315195165868104 0 -14.137140378770608 0 -1 0 I I #
coedge $-1 $377 $371 $497 $577 reversed $378 $-1 #
vertex $-1 $372 $582 #
straight-curve $-1 -56.315195165868104 0 -14.137140378770608 0 1 0 I I #
point $-1 -56.315195165868104 -34.212593892906582 -14.137140378770608 #
point $-1 56.315195165868104 -34.212593892906582 -14.137140378770608 #
coedge $-1 $497 $578 $380 $509 reversed $365 $-1 #
edge $-1 $510 -56.315195165868104 $512 56.315195165868104 $508 $583 forward 7 unknown #
vertex $-1 $381 $584 #
straight-curve $-1 -56.315195165868104 -41.259527142993342 -6.5532960796295807 0 -1 0 I I #
vertex $-1 $382 $585 #
straight-curve $-1 56.315195165868104 -41.259527142993342 -6.5532960796295807 0 1 0 I I #
plane-surface $-1 56.315195165868104 0 0 -1 0 0 0 0 1 forward_v I I I I #
coedge $-1 $522 $388 $526 $586 reversed $256 $-1 #
coedge $-1 $388 $522 $389 $519 reversed $256 $-1 #
coedge $-1 $390 $400 $388 $518 reversed $401 $-1 #
edge $-1 $520 -3.7919221495705138 $587 3.7919221495705138 $517 $588 forward 7 unknown #
edge $-1 $520 -56.315195165868104 $524 56.315195165868104 $516 $589 forward 7 unknown #
vertex $-1 $391 $590 #
straight-curve $-1 56.315195165868104 41.259527142993349 -6.5532960796295807 0 1 0 I I #
coedge $-1 $516 $515 $392 $523 reversed $256 $-1 #
edge $-1 $524 -3.7919221495705138 $527 3.7919221495705138 $522 $591 forward 7 unknown #
vertex $-1 $519 $592 #
straight-curve $-1 -56.315195165868104 41.259527142993349 -6.5532960796295807 0 -1 0 I I #
coedge $-1 $530 $394 $515 $586 forward $386 $-1 #
vertex $-1 $586 $593 #
straight-curve $-1 -56.315195165868104 41.259527142993349 -14.137140378770608 0 1 0 I I #
point $-1 -56.315195165868104 34.212593892906582 -14.137140378770608 #
coedge $-1 $398 $526 $400 $532 forward $386 $-1 #
straight-curve $-1 0 34.212593892906582 -14.137140378770608 -1 0 0 I I #
edge $-1 $587 -48.306460393080108 $402 -34.212593892906582 $400 $594 forward 7 unknown #
point $-1 56.315195165868104 34.212593892906582 -14.137140378770608 #
edge $-1 $535 19.675098384502377 $538 25.872773383235003 $407 $595 forward 7 unknown #
vertex $-1 $421 $596 #
straight-curve $-1 -75.91559207430285 0 14.13714037877061 -1 0 0 I I #
edge $-1 $538 -2.3043900412154876 $418 6.9131701236464629 $417 $597 forward 7 unknown #
vertex $-1 $537 $598 #
straight-curve $-1 -56.315195165868133 0 7.9394653800379373 0.52991925155115449 0 0.84804810408105047 I I #
point $-1 -52.442458134936885 0 14.137140378770608 #
point $-1 -56.315195165868104 -9.2175601648619505 7.9394653800379826 #
straight-curve $-1 -56.315195165868104 0 14.137140378770608 0 -1 0 I I #
vertex $-1 $424 $599 #
point $-1 -51.084928478738533 -6.5839715463299662 10.159225324456248 #
vertex $-1 $428 $600 #
point $-1 -51.084928478738533 -2.6335886185319879 10.159225324456248 #
straight-curve $-1 -56.315195165868133 9.2175601648619434 7.9394653800379373 0.52991925155115449 0 0.84804810408105047 I I #
coedge $-1 $436 $442 $438 $550 reversed $432 $-1 #
straight-curve $-1 -56.315195165868104 9.2175601648619434 33.812238763272987 0 0 -1 I I #
edge $-1 $440 -9.2175601648619434 $554 0 $548 $601 forward 7 unknown #
point $-1 -52.442458134936885 9.2175601648619434 14.137140378770608 #
point $-1 -56.315195165868104 9.2175601648619434 14.137140378770608 #
point $-1 -56.315195165868104 9.2175601648619434 7.9394653800379826 #
vertex $-1 $447 $602 #
straight-curve $-1 -75.91559207430285 0 14.13714037877061 1 0 0 I I #
straight-curve $-1 -56.315195165868104 0 33.812238763272987 0 0 1 I I #
vertex $-1 $450 $603 #
point $-1 -51.084928478738533 2.6335886185319808 10.159225324456248 #
vertex $-1 $454 $604 #
point $-1 -51.084928478738533 6.5839715463299626 10.159225324456248 #
coedge $-1 $469 $468 $461 $562 forward $458 $-1 #
edge $-1 $563 67.307959245928544 $566 77.814066247630549 $561 $605 forward 7 unknown #
vertex $-1 $473 $606 #
straight-curve $-1 29.547538068017055 -20.118727392733057 14.13714037877061 1 0 0 I I #
edge $-1 $566 -12.015257652172425 $470 -4.1916818289488393 $469 $607 forward 7 unknown #
vertex $-1 $565 $608 #
straight-curve $-1 -21.924447285213745 -20.118727392733057 84.650556798316458 -0.69465836192734942 0 0.71933980857756763 I I #
point $-1 46.169565808211345 -20.118727392733057 14.13714037877061 #
point $-1 56.315195165868104 -12.295151569509471 3.6310333770686043 #
straight-curve $-1 56.315195165868104 0 14.137140378770608 0 1 0 I I #
vertex $-1 $476 $609 #
point $-1 48.888156392110027 -16.206939481121264 4.5253937873846972 #
straight-curve $-1 -56.315195165868104 34.212593892906582 0 0 0 -1 I I #
point $-1 -56.315195165868104 -34.212593892906582 -14.137140378770608 #
straight-curve $-1 -56.315195165868104 0 -14.137140378770608 0 1 0 I I #
point $-1 -56.315195165868104 34.212593892906582 -14.137140378770608 #
edge $-1 $510 -3.7919221495705138 $504 3.7919221495705138 $503 $610 forward 7 unknown #
coedge $-1 $508 $499 $498 $579 reversed $365 $-1 #
edge $-1 $512 -3.7919221495705138 $501 3.7919221495705138 $498 $611 forward 7 unknown #
straight-curve $-1 0 -48.306460393080101 -14.137140378770608 -1 0 0 I I #
point $-1 56.315195165868104 -48.306460393080101 -14.137140378770608 #
point $-1 -56.315195165868104 -48.306460393080101 -14.137140378770608 #
straight-curve $-1 0 -48.306460393080101 -6.5532960796295807 1 0 0 I I #
point $-1 -56.315195165868104 -48.306460393080101 -6.5532960796295807 #
point $-1 56.315195165868104 -48.306460393080101 -6.5532960796295807 #
edge $-1 $527 -56.315195165868104 $587 56.315195165868104 $515 $612 forward 7 unknown #
vertex $-1 $532 $613 #
straight-curve $-1 56.315195165868104 48.306460393080108 -10.345218229200094 0 0 -1 I I #
straight-curve $-1 0 48.306460393080108 -6.5532960796295807 -1 0 0 I I #
point $-1 56.315195165868104 48.306460393080108 -6.5532960796295807 #
straight-curve $-1 -56.315195165868104 48.306460393080108 -10.345218229200094 0 0 -1 I I #
point $-1 -56.315195165868104 48.306460393080108 -6.5532960796295807 #
point $-1 -56.315195165868104 48.306460393080108 -14.137140378770608 #
straight-curve $-1 56.315195165868104 0 -14.137140378770608 0 -1 0 I I #
straight-curve $-1 -56.315195165868104 0 33.812238763272987 0 0 -1 I I #
point $-1 -56.315195165868104 0 14.137140378770608 #
straight-curve $-1 -56.315195165868104 -2.3043900412154876 7.9394653800379782 0 -1 0 I I #
point $-1 -56.315195165868104 0 7.9394653800379826 #
point $-1 -50.766799626208638 -6.5839715463299662 8.7812579688240433 #
point $-1 -50.766799626208638 -2.6335886185319879 8.7812579688240433 #
straight-curve $-1 -56.315195165868104 0 14.137140378770608 0 -1 0 I I #
point $-1 -56.315195165868104 0 14.137140378770608 #
point $-1 -50.766799626208638 2.6335886185319808 8.7812579688240433 #
point $-1 -50.766799626208638 6.5839715463299626 8.7812579688240433 #
straight-curve $-1 56.315195165868104 -20.118727392733057 81.445099624699154 0 0 -1 I I #
point $-1 56.315195165868104 -20.118727392733057 14.137140378770608 #
straight-curve $-1 56.315195165868097 -8.103469740560632 3.6310333770686114 0 1 0 I I #
point $-1 56.315195165868104 -20.118727392733057 3.6310333770686043 #
point $-1 46.767159136352653 -16.206939481121264 4.5624159573600247 #
straight-curve $-1 -56.315195165868104 -48.306460393080101 -10.345218229200094 0 0 -1 I I #
straight-curve $-1 56.315195165868104 -48.306460393080101 -10.345218229200094 0 0 -1 I I #
straight-curve $-1 0 48.306460393080108 -14.137140378770608 1 0 0 I I #
point $-1 56.315195165868104 48.306460393080108 -14.137140378770608 #
End-of-ACIS-data 