500 0 6 0           
7 Unknown 11 ACIS 5.0 NT 24 Fri Mar 26 01:57:32 1999 
-1 9.9999999999999995e-007 1e-010 
body $-1 $6 $-1 $7 #
body $-1 $8 $-1 $9 #
body $-1 $10 $-1 $11 #
body $-1 $12 $-1 $13 #
body $-1 $14 $-1 $15 #
body $-1 $16 $-1 $17 #
lump $-1 $-1 $18 $0 #
transform $-1 1 0 0 0 1 0 0 0 1 79.54832605975524 50.054728732116011 15.148250129677885 1 rotate no_reflect no_shear #
lump $-1 $-1 $19 $1 #
transform $-1 1 0 0 0 1 0 0 0 1 79.54832605975524 50.054728732116011 15.148250129677885 1 rotate no_reflect no_shear #
lump $-1 $-1 $20 $2 #
transform $-1 1 0 0 0 1 0 0 0 1 79.54832605975524 50.054728732116011 15.148250129677885 1 rotate no_reflect no_shear #
lump $-1 $-1 $21 $3 #
transform $-1 1 0 0 0 1 0 0 0 1 79.54832605975524 50.054728732116011 15.148250129677885 1 rotate no_reflect no_shear #
lump $-1 $-1 $22 $4 #
transform $-1 1 0 0 0 1 0 0 0 1 79.54832605975524 50.054728732116011 15.148250129677885 1 rotate no_reflect no_shear #
lump $-1 $-1 $23 $5 #
transform $-1 1 0 0 0 1 0 0 0 1 79.54832605975524 50.054728732116011 15.148250129677885 1 rotate no_reflect no_shear #
shell $-1 $-1 $-1 $24 $-1 $6 #
shell $-1 $-1 $-1 $25 $-1 $8 #
shell $-1 $-1 $-1 $26 $-1 $10 #
shell $-1 $-1 $-1 $27 $-1 $12 #
shell $-1 $-1 $-1 $28 $-1 $14 #
shell $-1 $-1 $-1 $29 $-1 $16 #
face $-1 $30 $31 $18 $-1 $32 forward single #
face $-1 $33 $34 $19 $-1 $35 reversed single #
face $-1 $36 $37 $20 $-1 $38 reversed single #
face $-1 $39 $40 $21 $-1 $41 forward single #
face $-1 $42 $43 $22 $-1 $44 reversed single #
face $-1 $45 $46 $23 $-1 $47 forward single #
face $-1 $48 $49 $18 $-1 $50 reversed single #
loop $-1 $-1 $51 $24 #
plane-surface $-1 0 0 15.148250129677885 0 0 1 1 0 0 forward_v I I I I #
face $-1 $52 $53 $19 $-1 $54 reversed single #
loop $-1 $-1 $55 $25 #
plane-surface $-1 -73.581565002252134 -41.915901755799005 0 0 -1 0 0 0 -1 forward_v I I I I #
face $-1 $56 $57 $20 $-1 $58 reversed single #
loop $-1 $-1 $59 $26 #
plane-surface $-1 -34.570804524352269 -178.76662534696942 102.04924813670983 -1 0 0 0 -0.80901700255871778 0.5877852410284794 forward_v I I I I #
face $-1 $60 $61 $21 $-1 $62 forward single #
loop $-1 $63 $64 $27 #
cone-surface $-1 -51.092804234550641 -46.759828263688661 11.193090023832479 0 0.80901700255871778 -0.5877852410284794 2 0 0 1 I I 0 1 2 forward I I I I #
face $-1 $65 $66 $22 $-1 $67 reversed single #
loop $-1 $-1 $68 $28 #
plane-surface $-1 -44.434191004170458 52.746121867578815 199.92979238391891 1 0 0 0 -0.54463904215088732 -0.83867056331134215 forward_v I I I I #
face $-1 $69 $70 $23 $-1 $71 forward single #
loop $-1 $72 $73 $29 #
cone-surface $-1 -28.624495515253081 47.302700981206307 13.084960846914381 0 -0.54463904215088732 -0.83867056331134215 1 0 0 1 I I 0 1 1 forward I I I I #
face $-1 $74 $75 $18 $-1 $76 reversed single #
loop $-1 $-1 $77 $30 #
plane-surface $-1 0 0 -15.148250129677885 0 0 1 1 0 0 forward_v I I I I #
coedge $-1 $78 $79 $80 $81 forward $31 $-1 #
face $-1 $82 $83 $19 $-1 $84 forward single #
loop $-1 $-1 $85 $33 #
plane-surface $-1 -67.614803944749028 -45.985315243957508 0 -1 0 0 0 0 1 forward_v I I I I #
coedge $-1 $86 $87 $88 $89 forward $34 $-1 #
face $-1 $90 $91 $20 $-1 $92 forward single #
loop $-1 $-1 $93 $36 #
plane-surface $-1 -51.092804234550641 -50.05472873211599 8.5345841238192293 0 -0.80901700255871778 0.5877852410284794 1 0 0 forward_v I I I I #
coedge $-1 $94 $95 $96 $97 reversed $37 $-1 #
face $-1 $-1 $98 $21 $-1 $99 forward single #
loop $-1 $100 $101 $39 #
cone-surface $-1 -51.092804234550641 -45.058465531997676 9.9569776798879186 0 0.80901700255871778 -0.5877852410284794 1 0 0 1 I I -0.70710678118654813 0.70710678118654691 1 forward I I I I #
loop $-1 $-1 $102 $27 #
coedge $-1 $64 $64 $103 $104 reversed $40 $-1 #
face $-1 $105 $106 $22 $-1 $107 reversed single #
loop $-1 $-1 $108 $42 #
plane-surface $-1 -28.624495515253081 -33.904126352204308 66.500113529900403 0 0.54463904215088732 0.83867056331134215 1 0 0 forward_v I I I I #
coedge $-1 $109 $110 $111 $112 reversed $43 $-1 #
face $-1 $-1 $113 $23 $-1 $114 forward single #
loop $-1 $115 $116 $45 #
cone-surface $-1 -28.624495515253081 46.720314349568291 12.188164094166103 0 -0.54463904215088732 -0.83867056331134215 0.5 0 0 1 I I -0.70710678118654746 0.70710678118654746 0.5 forward I I I I #
loop $-1 $-1 $117 $29 #
coedge $-1 $73 $73 $118 $119 reversed $46 $-1 #
face $-1 $120 $121 $18 $-1 $122 reversed single #
loop $-1 $-1 $123 $48 #
plane-surface $-1 0 -50.054728732116011 0 0 1 0 0 0 1 forward_v I I I I #
coedge $-1 $124 $125 $126 $127 forward $49 $-1 #
coedge $-1 $128 $51 $129 $130 forward $31 $-1 #
coedge $-1 $51 $128 $131 $132 forward $31 $-1 #
coedge $-1 $133 $134 $51 $81 reversed $135 $-1 #
edge $-1 $136 -50.054728732116011 $137 50.054728732116011 $80 $138 forward 7 unknown #
face $-1 $139 $140 $19 $-1 $141 reversed single #
loop $-1 $-1 $142 $52 #
plane-surface $-1 0 0 15.148250129677885 0 0 1 1 0 0 forward_v I I I I #
coedge $-1 $143 $144 $145 $146 reversed $53 $-1 #
coedge $-1 $147 $55 $148 $149 reversed $34 $-1 #
coedge $-1 $55 $147 $150 $151 reversed $34 $-1 #
coedge $-1 $144 $143 $55 $89 reversed $53 $-1 #
edge $-1 $152 -15.148250129677885 $153 15.148250129677885 $88 $154 forward 7 unknown #
face $-1 $155 $156 $20 $-1 $157 forward single #
loop $-1 $-1 $96 $56 #
plane-surface $-1 0 0 15.148250129677885 0 0 1 1 0 0 forward_v I I I I #
coedge $-1 $158 $159 $160 $161 reversed $57 $-1 #
coedge $-1 $95 $59 $162 $163 reversed $37 $-1 #
coedge $-1 $59 $94 $158 $164 reversed $37 $-1 #
coedge $-1 $160 $165 $59 $97 forward $91 $-1 #
edge $-1 $166 39.328583941368699 $167 44.133693419958874 $96 $168 forward 7 unknown #
loop $-1 $-1 $103 $60 #
plane-surface $-1 -51.092804234550641 -50.05472873211599 8.5345841238192293 0 -0.80901700255871778 0.5877852410284794 1 0 0 forward_v I I I I #
loop $-1 $-1 $169 $39 #
coedge $-1 $101 $101 $102 $170 reversed $61 $-1 #
coedge $-1 $102 $102 $101 $170 forward $63 $-1 #
coedge $-1 $103 $103 $64 $104 forward $98 $-1 #
edge $-1 $171 8.5339476790408293e-016 $171 6.2831853071796013 $103 $172 forward 7 unknown #
face $-1 $173 $174 $22 $-1 $175 reversed single #
loop $-1 $-1 $176 $65 #
plane-surface $-1 -12.814800026335703 52.746121867578815 199.92979238391891 -1 0 0 0 0.54463904215088732 0.83867056331134215 forward_v I I I I #
coedge $-1 $177 $178 $179 $180 reversed $66 $-1 #
coedge $-1 $110 $68 $181 $182 reversed $43 $-1 #
coedge $-1 $68 $109 $177 $183 reversed $43 $-1 #
coedge $-1 $179 $184 $68 $112 forward $185 $-1 #
edge $-1 $186 -23.681667798326604 $187 -18.797746517632337 $111 $188 forward 7 unknown #
loop $-1 $-1 $118 $69 #
plane-surface $-1 -28.624495515253081 -33.904126352204308 66.500113529900403 0 0.54463904215088732 0.83867056331134215 1 0 0 forward_v I I I I #
loop $-1 $-1 $189 $45 #
coedge $-1 $116 $116 $117 $190 reversed $70 $-1 #
coedge $-1 $117 $117 $116 $190 forward $72 $-1 #
coedge $-1 $118 $118 $73 $119 forward $113 $-1 #
edge $-1 $191 2.0892196144505337e-015 $191 6.2831853071796022 $118 $192 forward 7 unknown #
face $-1 $193 $194 $18 $-1 $195 reversed single #
loop $-1 $-1 $196 $74 #
plane-surface $-1 -79.54832605975524 0 0 1 0 0 0 0 -1 forward_v I I I I #
coedge $-1 $197 $131 $198 $199 forward $75 $-1 #
coedge $-1 $200 $77 $197 $201 forward $49 $-1 #
coedge $-1 $77 $200 $202 $203 forward $49 $-1 #
coedge $-1 $134 $133 $77 $127 reversed $135 $-1 #
edge $-1 $204 -50.054728732116011 $205 50.054728732116011 $126 $206 forward 7 unknown #
coedge $-1 $79 $78 $207 $208 forward $31 $-1 #
coedge $-1 $209 $210 $78 $130 reversed $194 $-1 #
edge $-1 $137 -79.54832605975524 $211 79.54832605975524 $129 $212 forward 7 unknown #
coedge $-1 $123 $213 $79 $132 reversed $75 $-1 #
edge $-1 $214 -79.54832605975524 $136 79.54832605975524 $131 $215 forward 7 unknown #
coedge $-1 $126 $80 $213 $216 forward $135 $-1 #
coedge $-1 $80 $126 $209 $217 reversed $135 $-1 #
loop $-1 $-1 $133 $193 #
vertex $-1 $81 $218 #
vertex $-1 $81 $219 #
straight-curve $-1 79.54832605975524 0 15.148250129677885 0 1 0 I I #
face $-1 $220 $221 $19 $-1 $222 reversed single #
loop $-1 $-1 $223 $82 #
plane-surface $-1 -79.54832605975524 0 0 1 0 0 0 0 -1 forward_v I I I I #
coedge $-1 $150 $224 $144 $225 forward $83 $-1 #
coedge $-1 $88 $85 $226 $227 reversed $53 $-1 #
coedge $-1 $85 $88 $142 $225 reversed $53 $-1 #
coedge $-1 $228 $229 $85 $146 forward $230 $-1 #
edge $-1 $231 -15.148250129677885 $232 15.148250129677885 $145 $233 forward 7 unknown #
coedge $-1 $87 $86 $223 $234 reversed $34 $-1 #
coedge $-1 $226 $235 $86 $149 forward $221 $-1 #
edge $-1 $236 -42.757543558629173 $153 -30.824021443622961 $148 $237 forward 7 unknown #
coedge $-1 $238 $142 $87 $151 forward $83 $-1 #
edge $-1 $152 30.824021443622961 $239 42.757543558629173 $150 $240 forward 7 unknown #
vertex $-1 $151 $241 #
vertex $-1 $149 $242 #
straight-curve $-1 -67.614803944749028 -41.915901755799005 0 0 0 -1 I I #
face $-1 $-1 $243 $20 $-1 $244 reversed single #
loop $-1 $-1 $245 $90 #
plane-surface $-1 -67.614803944749028 -45.985315243957508 0 -1 0 0 0 0 1 forward_v I I I I #
coedge $-1 $246 $93 $95 $164 forward $57 $-1 #
coedge $-1 $93 $246 $245 $247 reversed $57 $-1 #
coedge $-1 $248 $96 $93 $161 forward $91 $-1 #
edge $-1 $167 9.0244024070769484 $249 42.068401827473707 $160 $250 forward 7 unknown #
coedge $-1 $251 $252 $94 $163 forward $243 $-1 #
edge $-1 $253 -42.490039944535717 $166 -35.876373938677034 $162 $254 forward 7 unknown #
edge $-1 $167 -8.1749406810256033 $253 3.6960145052660132e-014 $95 $255 forward 7 unknown #
coedge $-1 $96 $248 $251 $256 forward $91 $-1 #
vertex $-1 $97 $257 #
vertex $-1 $97 $258 #
straight-curve $-1 -34.570804524352269 -89.38331267348471 15.148250129677884 0 1 0 I I #
coedge $-1 $169 $169 $-1 $259 reversed $100 $-1 #
edge $-1 $260 0 $260 6.2831853071796004 $101 $261 forward 7 unknown #
vertex $-1 $104 $262 #
ellipse-curve $-1 -51.092804234550641 -47.65217399282092 11.841417126748551 0 -0.80901700255871778 0.5877852410284794 2 0 0 1 I I #
face $-1 $-1 $185 $22 $-1 $263 forward single #
loop $-1 $-1 $264 $105 #
plane-surface $-1 0 50.054728732116011 0 0 -1 0 0 0 -1 forward_v I I I I #
coedge $-1 $265 $266 $267 $268 reversed $106 $-1 #
coedge $-1 $269 $108 $110 $183 forward $66 $-1 #
coedge $-1 $108 $269 $265 $270 forward $66 $-1 #
coedge $-1 $267 $111 $108 $180 forward $185 $-1 #
edge $-1 $187 -30.121943246543918 $271 1.497447731290837 $179 $272 forward 7 unknown #
coedge $-1 $273 $274 $109 $182 forward $174 $-1 #
edge $-1 $275 -87.988301685623384 $186 -84.816646062281563 $181 $276 forward 7 unknown #
edge $-1 $187 94.286048971854555 $275 100.10945746423202 $110 $277 forward 7 unknown #
coedge $-1 $111 $267 $273 $278 forward $185 $-1 #
loop $-1 $-1 $267 $173 #
vertex $-1 $182 $279 #
vertex $-1 $112 $280 #
straight-curve $-1 -44.434191004170458 26.373060933789407 15.148250129677891 0 -1 0 I I #
coedge $-1 $189 $189 $-1 $281 reversed $115 $-1 #
edge $-1 $282 0 $282 6.2831853071796004 $116 $283 forward 7 unknown #
vertex $-1 $119 $284 #
ellipse-curve $-1 -28.624495515253081 47.612768091768871 13.562422318006981 0 0.54463904215088732 0.83867056331134215 1 0 0 1 I I #
face $-1 $-1 $135 $18 $-1 $285 reversed single #
loop $-1 $-1 $209 $120 #
plane-surface $-1 0 50.054728732116011 0 0 -1 0 0 0 -1 forward_v I I I I #
coedge $-1 $286 $207 $210 $287 forward $121 $-1 #
coedge $-1 $213 $123 $124 $201 reversed $75 $-1 #
coedge $-1 $207 $286 $123 $199 reversed $121 $-1 #
edge $-1 $214 -15.148250129677885 $288 15.148250129677885 $198 $289 forward 7 unknown #
coedge $-1 $125 $124 $286 $290 forward $49 $-1 #
edge $-1 $205 -79.54832605975524 $288 79.54832605975524 $197 $291 forward 7 unknown #
coedge $-1 $210 $209 $125 $203 reversed $194 $-1 #
edge $-1 $292 -79.54832605975524 $204 79.54832605975524 $202 $293 forward 7 unknown #
vertex $-1 $127 $294 #
vertex $-1 $216 $295 #
straight-curve $-1 79.54832605975524 0 -15.148250129677885 0 -1 0 I I #
coedge $-1 $196 $198 $128 $208 reversed $121 $-1 #
edge $-1 $211 -50.054728732116011 $214 50.054728732116011 $207 $296 forward 7 unknown #
coedge $-1 $202 $129 $134 $217 forward $194 $-1 #
coedge $-1 $129 $202 $196 $287 reversed $194 $-1 #
vertex $-1 $130 $297 #
straight-curve $-1 0 50.054728732116011 15.148250129677885 -1 0 0 I I #
coedge $-1 $131 $197 $133 $216 reversed $75 $-1 #
vertex $-1 $208 $298 #
straight-curve $-1 0 -50.054728732116011 15.148250129677885 1 0 0 I I #
edge $-1 $136 -15.148250129677885 $205 15.148250129677885 $133 $299 forward 7 unknown #
edge $-1 $137 -15.148250129677885 $204 15.148250129677885 $134 $300 forward 7 unknown #
point $-1 79.54832605975524 -50.054728732116011 15.148250129677885 #
point $-1 79.54832605975524 50.054728732116011 15.148250129677885 #
face $-1 $-1 $230 $19 $-1 $301 reversed single #
loop $-1 $-1 $226 $139 #
plane-surface $-1 0 0 -15.148250129677885 0 0 1 1 0 0 forward_v I I I I #
coedge $-1 $302 $303 $147 $234 forward $140 $-1 #
coedge $-1 $142 $238 $228 $304 forward $83 $-1 #
edge $-1 $232 -27.062071110137257 $152 -18.923244133820251 $142 $305 forward 7 unknown #
coedge $-1 $306 $148 $143 $227 forward $221 $-1 #
edge $-1 $153 18.923244133820251 $231 27.062071110137257 $226 $307 forward 7 unknown #
coedge $-1 $308 $145 $224 $304 reversed $230 $-1 #
coedge $-1 $145 $308 $306 $309 reversed $230 $-1 #
loop $-1 $-1 $145 $220 #
vertex $-1 $309 $310 #
vertex $-1 $146 $311 #
straight-curve $-1 -67.614803944749028 -50.054728732116011 0 0 0 1 I I #
edge $-1 $239 -15.148250129677885 $236 15.148250129677885 $223 $312 forward 7 unknown #
coedge $-1 $148 $306 $302 $313 forward $221 $-1 #
vertex $-1 $149 $314 #
straight-curve $-1 -36.790782501126067 -41.915901755799005 -15.148250129677885 1 0 0 I I #
coedge $-1 $224 $150 $303 $315 forward $83 $-1 #
vertex $-1 $315 $316 #
straight-curve $-1 -36.790782501126067 -41.915901755799005 15.148250129677885 -1 0 0 I I #
point $-1 -67.614803944749028 -41.915901755799005 15.148250129677885 #
point $-1 -67.614803944749028 -41.915901755799005 -15.148250129677885 #
loop $-1 $-1 $162 $155 #
plane-surface $-1 0 -50.054728732116011 0 0 1 0 0 0 1 forward_v I I I I #
coedge $-1 $317 $318 $159 $247 forward $156 $-1 #
coedge $-1 $159 $158 $252 $319 reversed $57 $-1 #
edge $-1 $249 -10.431281920003437 $320 -2.2563412389777993 $245 $321 forward 7 unknown #
coedge $-1 $165 $160 $318 $322 forward $91 $-1 #
vertex $-1 $322 $323 #
straight-curve $-1 -25.546402117275321 -45.249619253525829 15.148250129677885 -1 0 0 I I #
coedge $-1 $324 $162 $165 $256 reversed $243 $-1 #
coedge $-1 $162 $324 $246 $319 forward $243 $-1 #
vertex $-1 $163 $325 #
straight-curve $-1 -34.570804524352269 -50.054728732116018 51.024624068354917 0 0 1 I I #
straight-curve $-1 -34.570804524352269 -50.05472873211599 8.5345841238192293 0 -0.5877852410284794 -0.80901700255871778 I I #
edge $-1 $326 -67.614803944749028 $166 -34.570804524352269 $251 $327 forward 7 unknown #
point $-1 -34.570804524352269 -50.054728732116011 15.148250129677885 #
point $-1 -34.570804524352269 -45.249619253525836 15.148250129677887 #
edge $-1 $328 1 $328 0 $169 $-1 forward 7 unknown #
vertex $-1 $170 $329 #
ellipse-curve $-1 -51.092804234550641 -45.867482534556395 10.544762920916398 0 -0.80901700255871778 0.5877852410284794 2 0 0 1 I I #
point $-1 -49.092804234550641 -47.652173992820934 11.841417126748564 #
plane-surface $-1 0 0 15.148250129677885 0 0 1 1 0 0 forward_v I I I I #
coedge $-1 $274 $273 $266 $330 forward $174 $-1 #
coedge $-1 $266 $176 $178 $270 reversed $106 $-1 #
coedge $-1 $176 $265 $264 $330 reversed $106 $-1 #
coedge $-1 $184 $179 $176 $268 forward $185 $-1 #
edge $-1 $271 18.797746517632337 $331 23.681667798326604 $267 $332 forward 7 unknown #
coedge $-1 $178 $177 $274 $333 reversed $66 $-1 #
edge $-1 $334 -100.10945746423202 $271 -94.286048971854555 $265 $335 forward 7 unknown #
vertex $-1 $180 $336 #
straight-curve $-1 -14.31224775762654 45.170807451421759 15.148250129677884 1 0 0 I I #
coedge $-1 $264 $181 $184 $278 reversed $174 $-1 #
coedge $-1 $181 $264 $269 $333 forward $174 $-1 #
vertex $-1 $182 $337 #
straight-curve $-1 -44.434191004170458 50.054728732116011 99.964896191959454 0 0 1 I I #
straight-curve $-1 -44.434191004170458 -33.904126352204308 66.500113529900403 0 0.83867056331134215 -0.54463904215088732 I I #
edge $-1 $331 12.814800026335703 $186 44.434191004170458 $273 $338 forward 7 unknown #
point $-1 -44.434191004170458 50.054728732116011 15.148250129677885 #
point $-1 -44.434191004170458 45.170807451421744 15.148250129677884 #
edge $-1 $339 1 $339 0 $189 $-1 forward 7 unknown #
vertex $-1 $190 $340 #
ellipse-curve $-1 -28.624495515253081 46.992633870643736 12.607499375821774 0 0.54463904215088732 0.83867056331134215 1 0 0 1 I I #
point $-1 -27.624495515253081 47.612768091768878 13.562422318006988 #
plane-surface $-1 79.54832605975524 0 0 -1 0 0 0 0 1 forward_v I I I I #
coedge $-1 $198 $196 $200 $290 reversed $121 $-1 #
edge $-1 $211 -15.148250129677885 $292 15.148250129677885 $210 $341 forward 7 unknown #
vertex $-1 $290 $342 #
straight-curve $-1 -79.54832605975524 -50.054728732116011 0 0 0 -1 I I #
edge $-1 $288 -50.054728732116011 $292 50.054728732116011 $286 $343 forward 7 unknown #
straight-curve $-1 0 -50.054728732116011 -15.148250129677885 -1 0 0 I I #
vertex $-1 $203 $344 #
straight-curve $-1 0 50.054728732116011 -15.148250129677885 1 0 0 I I #
point $-1 79.54832605975524 50.054728732116011 -15.148250129677885 #
point $-1 79.54832605975524 -50.054728732116011 -15.148250129677885 #
straight-curve $-1 -79.54832605975524 0 15.148250129677885 0 -1 0 I I #
point $-1 -79.54832605975524 50.054728732116011 15.148250129677885 #
point $-1 -79.54832605975524 -50.054728732116011 15.148250129677885 #
straight-curve $-1 79.54832605975524 -50.054728732116011 0 0 0 -1 I I #
straight-curve $-1 79.54832605975524 50.054728732116011 0 0 0 -1 I I #
plane-surface $-1 0 -50.054728732116011 0 0 1 0 0 0 1 forward_v I I I I #
coedge $-1 $345 $223 $235 $313 reversed $140 $-1 #
coedge $-1 $223 $345 $238 $315 reversed $140 $-1 #
edge $-1 $346 -79.54832605975524 $232 -67.614803944749028 $228 $347 forward 7 unknown #
straight-curve $-1 -67.614803944749028 -22.992657621978754 15.148250129677885 0 1 0 I I #
coedge $-1 $235 $226 $229 $309 forward $221 $-1 #
straight-curve $-1 -67.614803944749028 -22.992657621978754 -15.148250129677885 0 -1 0 I I #
coedge $-1 $229 $228 $345 $348 forward $230 $-1 #
edge $-1 $231 67.614803944749028 $349 79.54832605975524 $229 $350 forward 7 unknown #
point $-1 -67.614803944749028 -50.054728732116011 -15.148250129677885 #
point $-1 -67.614803944749028 -50.054728732116011 15.148250129677885 #
straight-curve $-1 -79.54832605975524 -41.915901755799005 0 0 0 -1 I I #
edge $-1 $349 -50.054728732116011 $236 -41.915901755799005 $302 $351 forward 7 unknown #
point $-1 -79.54832605975524 -41.915901755799005 -15.148250129677885 #
edge $-1 $239 41.915901755799005 $346 50.054728732116011 $303 $352 forward 7 unknown #
point $-1 -79.54832605975524 -41.915901755799005 15.148250129677885 #
coedge $-1 $318 $245 $324 $353 reversed $156 $-1 #
coedge $-1 $245 $317 $248 $322 reversed $156 $-1 #
edge $-1 $320 -42.068401827473707 $253 -9.0244024070769484 $252 $354 forward 7 unknown #
vertex $-1 $247 $355 #
straight-curve $-1 -67.614803944749028 -51.380972811111072 6.7091656979117555 0 -0.5877852410284794 -0.80901700255871778 I I #
edge $-1 $249 22.256961631547082 $326 27.062071110137257 $248 $356 forward 7 unknown #
point $-1 -67.614803944749028 -45.249619253525836 15.148250129677885 #
coedge $-1 $252 $251 $317 $353 forward $243 $-1 #
point $-1 -34.570804524352269 -50.054728732116011 8.5345841238191991 #
vertex $-1 $256 $357 #
straight-curve $-1 0 -50.054728732116011 15.148250129677885 1 0 0 I I #
vertex $-1 $259 $358 #
point $-1 -49.092804234550641 -45.867482534556395 10.544762920916398 #
edge $-1 $331 84.816646062281563 $334 87.988301685623384 $264 $359 forward 7 unknown #
vertex $-1 $278 $360 #
straight-curve $-1 -12.814800026335703 26.373060933789407 15.148250129677891 0 1 0 I I #
edge $-1 $334 -1.497447731290837 $275 30.121943246543918 $274 $361 forward 7 unknown #
vertex $-1 $333 $362 #
straight-curve $-1 -12.814800026335703 -33.904126352204308 66.500113529900403 0 -0.83867056331134215 0.54463904215088732 I I #
point $-1 -12.814800026335703 45.170807451421744 15.148250129677884 #
point $-1 -44.434191004170458 50.054728732116011 11.976594506336077 #
straight-curve $-1 0 50.054728732116011 15.148250129677885 -1 0 0 I I #
vertex $-1 $281 $363 #
point $-1 -27.624495515253081 46.992633870643736 12.607499375821774 #
straight-curve $-1 -79.54832605975524 50.054728732116011 0 0 0 -1 I I #
point $-1 -79.54832605975524 -50.054728732116011 -15.148250129677885 #
straight-curve $-1 -79.54832605975524 0 -15.148250129677885 0 1 0 I I #
point $-1 -79.54832605975524 50.054728732116011 -15.148250129677885 #
coedge $-1 $303 $302 $308 $348 reversed $140 $-1 #
vertex $-1 $315 $364 #
straight-curve $-1 0 -50.054728732116011 15.148250129677885 1 0 0 I I #
edge $-1 $346 -15.148250129677885 $349 15.148250129677885 $345 $365 forward 7 unknown #
vertex $-1 $313 $366 #
straight-curve $-1 0 -50.054728732116011 -15.148250129677885 -1 0 0 I I #
straight-curve $-1 -79.54832605975524 0 -15.148250129677885 0 1 0 I I #
straight-curve $-1 -79.54832605975524 0 15.148250129677885 0 -1 0 I I #
edge $-1 $326 -15.148250129677885 $320 -8.5345841238192008 $324 $367 forward 7 unknown #
straight-curve $-1 -25.546402117275321 -50.054728732116011 8.5345841238192097 1 0 0 I I #
point $-1 -67.614803944749028 -50.054728732116011 8.5345841238192008 #
straight-curve $-1 -67.614803944749028 -22.992657621978754 15.148250129677885 0 -1 0 I I #
point $-1 -67.614803944749028 -50.054728732116011 15.148250129677885 #
point $-1 -51.092804234550641 -44.249448529438958 9.3691924388594394 #
straight-curve $-1 -12.814800026335703 50.054728732116011 99.964896191959454 0 0 -1 I I #
point $-1 -12.814800026335703 50.054728732116011 15.148250129677885 #
straight-curve $-1 -14.31224775762654 50.054728732116011 11.976594506336074 -1 0 0 I I #
point $-1 -12.814800026335703 50.054728732116011 11.976594506336077 #
point $-1 -28.624495515253081 46.447994828492845 11.768828812510431 #
point $-1 -79.54832605975524 -50.054728732116011 15.148250129677885 #
straight-curve $-1 -79.54832605975524 -50.054728732116011 0 0 0 -1 I I #
point $-1 -79.54832605975524 -50.054728732116011 -15.148250129677885 #
straight-curve $-1 -67.614803944749028 -50.054728732116011 0 0 0 -1 I I #
End-of-ACIS-data 