500 0 11 0           
7 Unknown 11 ACIS 5.0 NT 24 Thu Mar 25 18:13:55 1999 
-1 9.9999999999999995e-007 1e-010 
body $-1 $11 $-1 $12 #
body $-1 $13 $-1 $14 #
body $-1 $15 $-1 $16 #
body $-1 $17 $-1 $18 #
body $-1 $19 $-1 $20 #
body $-1 $21 $-1 $22 #
body $-1 $23 $-1 $24 #
body $-1 $25 $-1 $26 #
body $-1 $27 $-1 $28 #
body $-1 $29 $-1 $30 #
body $-1 $31 $-1 $32 #
lump $-1 $-1 $33 $0 #
transform $-1 1 0 0 0 1 0 0 0 1 56.464125492110966 32.800268461549301 10.738191469087123 1 rotate no_reflect no_shear #
lump $-1 $-1 $34 $1 #
transform $-1 1 0 0 0 1 0 0 0 1 56.464125492110966 32.800268461549301 10.738191469087123 1 rotate no_reflect no_shear #
lump $-1 $-1 $35 $2 #
transform $-1 1 0 0 0 1 0 0 0 1 56.464125492110966 32.800268461549301 10.738191469087123 1 rotate no_reflect no_shear #
lump $-1 $-1 $36 $3 #
transform $-1 1 0 0 0 1 0 0 0 1 56.464125492110966 32.800268461549301 10.738191469087123 1 rotate no_reflect no_shear #
lump $-1 $-1 $37 $4 #
transform $-1 1 0 0 0 1 0 0 0 1 56.464125492110966 32.800268461549301 10.738191469087123 1 rotate no_reflect no_shear #
lump $-1 $-1 $38 $5 #
transform $-1 1 0 0 0 1 0 0 0 1 56.464125492110966 32.800268461549301 10.738191469087123 1 rotate no_reflect no_shear #
lump $-1 $-1 $39 $6 #
transform $-1 1 0 0 0 1 0 0 0 1 56.464125492110966 32.800268461549301 10.738191469087123 1 rotate no_reflect no_shear #
lump $-1 $-1 $40 $7 #
transform $-1 1 0 0 0 1 0 0 0 1 56.464125492110966 32.800268461549301 10.738191469087123 1 rotate no_reflect no_shear #
lump $-1 $-1 $41 $8 #
transform $-1 1 0 0 0 1 0 0 0 1 56.464125492110966 32.800268461549301 10.738191469087123 1 rotate no_reflect no_shear #
lump $-1 $-1 $42 $9 #
transform $-1 1 0 0 0 1 0 0 0 1 56.464125492110966 32.800268461549301 10.738191469087123 1 rotate no_reflect no_shear #
lump $-1 $-1 $43 $10 #
transform $-1 1 0 0 0 1 0 0 0 1 56.464125492110966 32.800268461549301 10.738191469087123 1 rotate no_reflect no_shear #
shell $-1 $-1 $-1 $44 $-1 $11 #
shell $-1 $-1 $-1 $45 $-1 $13 #
shell $-1 $-1 $-1 $46 $-1 $15 #
shell $-1 $-1 $-1 $47 $-1 $17 #
shell $-1 $-1 $-1 $48 $-1 $19 #
shell $-1 $-1 $-1 $49 $-1 $21 #
shell $-1 $-1 $-1 $50 $-1 $23 #
shell $-1 $-1 $-1 $51 $-1 $25 #
shell $-1 $-1 $-1 $52 $-1 $27 #
shell $-1 $-1 $-1 $53 $-1 $29 #
shell $-1 $-1 $-1 $54 $-1 $31 #
face $-1 $55 $56 $33 $-1 $57 forward single #
face $-1 $58 $59 $34 $-1 $60 forward single #
face $-1 $61 $62 $35 $-1 $63 reversed single #
face $-1 $64 $65 $36 $-1 $66 forward single #
face $-1 $67 $68 $37 $-1 $69 forward single #
face $-1 $70 $71 $38 $-1 $72 reversed single #
face $-1 $73 $74 $39 $-1 $75 forward single #
face $-1 $76 $77 $40 $-1 $78 forward single #
face $-1 $79 $80 $41 $-1 $81 reversed single #
face $-1 $82 $83 $42 $-1 $84 forward single #
face $-1 $85 $86 $43 $-1 $87 forward single #
face $-1 $88 $89 $33 $-1 $90 reversed single #
loop $-1 $-1 $91 $44 #
plane-surface $-1 0 0 10.738191469087123 0 0 1 1 0 0 forward_v I I I I #
face $-1 $92 $93 $34 $-1 $94 reversed single #
loop $-1 $-1 $95 $45 #
plane-surface $-1 0 -29.235576906712531 -6.7198328718504996 0 0 1 1 0 0 forward_v I I I I #
face $-1 $96 $97 $35 $-1 $98 reversed single #
loop $-1 $-1 $99 $46 #
plane-surface $-1 -130.55172507937965 -5.2252342825362987 90.939515027522248 0 1 0 -0.6560590369687036 0 0.75470957328743171 forward_v I I I I #
face $-1 $100 $101 $36 $-1 $102 forward single #
loop $-1 $103 $104 $47 #
cone-surface $-1 -52.412270217165428 -2.7138269004297086 6.889751880187962 0.6560590369687036 0 -0.75470957328743171 0.75470957328743171 0 0.6560590369687036 1 I I 0 1 1 forward I I I I #
face $-1 $105 $106 $37 $-1 $107 forward single #
loop $-1 $108 $109 $48 #
cone-surface $-1 -52.412270217165428 1.05328417273018 6.889751880187962 0.6560590369687036 0 -0.75470957328743171 0.75470957328743171 0 0.6560590369687036 1 I I 0 1 1 forward I I I I #
face $-1 $110 $111 $38 $-1 $112 reversed single #
loop $-1 $-1 $113 $49 #
plane-surface $-1 -130.55172507937965 24.010342624176236 90.939515027522248 0 1 0 -0.6560590369687036 0 0.75470957328743171 forward_v I I I I #
face $-1 $114 $115 $39 $-1 $116 forward single #
loop $-1 $117 $118 $50 #
cone-surface $-1 -52.412270217165428 26.521750006282822 6.889751880187962 0.6560590369687036 0 -0.75470957328743171 0.75470957328743171 0 0.6560590369687036 1 I I 0 1 1 forward I I I I #
face $-1 $119 $120 $40 $-1 $121 forward single #
loop $-1 $122 $123 $51 #
cone-surface $-1 -52.412270217165428 30.288861079442711 6.889751880187962 0.6560590369687036 0 -0.75470957328743171 0.75470957328743171 0 0.6560590369687036 1 I I 0 1 1 forward I I I I #
face $-1 $124 $125 $41 $-1 $126 reversed single #
loop $-1 $-1 $127 $52 #
plane-surface $-1 89.668594535970399 -2.1877281783456652 156.62635705945658 0 -1 0 -0.83867057594974714 0 -0.54463902268945019 forward_v I I I I #
face $-1 $128 $129 $42 $-1 $130 forward single #
loop $-1 $131 $132 $53 #
cone-surface $-1 51.80377358704375 -9.3709936488487635 4.7259524337206091 -0.83867057594974714 0 -0.54463902268945019 0.54463902268945019 0 -0.83867057594974714 1 I I 0 1 1 forward I I I I #
face $-1 $133 $134 $43 $-1 $135 forward single #
loop $-1 $136 $137 $54 #
cone-surface $-1 51.80377358704375 -5.061034366546906 4.7259524337206091 -0.83867057594974714 0 -0.54463902268945019 0.54463902268945019 0 -0.83867057594974714 1 I I 0 1 1 forward I I I I #
face $-1 $138 $139 $33 $-1 $140 reversed single #
loop $-1 $-1 $141 $55 #
plane-surface $-1 0 0 -10.738191469087123 0 0 1 1 0 0 forward_v I I I I #
coedge $-1 $142 $143 $144 $145 forward $56 $-1 #
face $-1 $146 $147 $34 $-1 $148 reversed single #
loop $-1 $-1 $149 $58 #
plane-surface $-1 0 -25.670885351875761 -8.7290121704688115 0 -1 0 0 0 -1 forward_v I I I I #
coedge $-1 $150 $151 $152 $153 reversed $59 $-1 #
face $-1 $154 $155 $35 $-1 $156 reversed single #
loop $-1 $-1 $157 $61 #
plane-surface $-1 -56.464125492110952 -0.8302713638497643 5.7114829151241224 -0.6560590369687036 0 0.75470957328743171 0.75470957328743171 0 0.6560590369687036 forward_v I I I I #
coedge $-1 $158 $159 $160 $161 reversed $62 $-1 #
face $-1 $-1 $162 $36 $-1 $163 forward single #
loop $-1 $164 $165 $64 #
cone-surface $-1 -50.923668718399362 -2.7138269004297086 5.1773117816265852 0.6560590369687036 0 -0.75470957328743171 0.37735478664371586 0 0.3280295184843518 1 I I -0.70710678118654746 0.70710678118654746 0.5 forward I I I I #
loop $-1 $-1 $166 $47 #
coedge $-1 $104 $104 $167 $168 reversed $65 $-1 #
face $-1 $-1 $169 $37 $-1 $170 forward single #
loop $-1 $171 $172 $67 #
cone-surface $-1 -50.923668718399362 1.05328417273018 5.1773117816265852 0.6560590369687036 0 -0.75470957328743171 0.37735478664371586 0 0.3280295184843518 1 I I -0.70710678118654746 0.70710678118654746 0.5 forward I I I I #
loop $-1 $-1 $173 $48 #
coedge $-1 $109 $109 $174 $175 reversed $68 $-1 #
face $-1 $176 $177 $38 $-1 $178 forward single #
loop $-1 $-1 $179 $70 #
plane-surface $-1 -56.464125492110952 28.40530554286277 5.7114829151241224 -0.6560590369687036 0 0.75470957328743171 0.75470957328743171 0 0.6560590369687036 forward_v I I I I #
coedge $-1 $180 $181 $182 $183 reversed $71 $-1 #
face $-1 $-1 $184 $39 $-1 $185 forward single #
loop $-1 $186 $187 $73 #
cone-surface $-1 -50.923668718399362 26.521750006282822 5.1773117816265852 0.6560590369687036 0 -0.75470957328743171 0.37735478664371586 0 0.3280295184843518 1 I I -0.70710678118654746 0.70710678118654746 0.5 forward I I I I #
loop $-1 $-1 $188 $50 #
coedge $-1 $118 $118 $189 $190 reversed $74 $-1 #
face $-1 $-1 $191 $40 $-1 $192 forward single #
loop $-1 $193 $194 $76 #
cone-surface $-1 -50.923668718399362 30.288861079442711 5.1773117816265852 0.6560590369687036 0 -0.75470957328743171 0.37735478664371586 0 0.3280295184843518 1 I I -0.70710678118654746 0.70710678118654746 0.5 forward I I I I #
loop $-1 $-1 $195 $51 #
coedge $-1 $123 $123 $196 $197 reversed $77 $-1 #
face $-1 $198 $199 $41 $-1 $200 reversed single #
loop $-1 $-1 $201 $79 #
plane-surface $-1 -5.0410067579646096 -7.216014007697833 95.121224809381005 0.83867057594974714 0 0.54463902268945019 0.54463902268945019 0 -0.83867057594974714 forward_v I I I I #
coedge $-1 $202 $203 $204 $205 reversed $80 $-1 #
face $-1 $-1 $206 $42 $-1 $207 forward single #
loop $-1 $208 $209 $82 #
cone-surface $-1 50.077162106499486 -9.3709936488487635 3.6046778638299379 -0.83867057594974714 0 -0.54463902268945019 0.2723195113447251 0 -0.41933528797487357 1 I I -0.70710678118654746 0.70710678118654746 0.5 forward I I I I #
loop $-1 $-1 $210 $53 #
coedge $-1 $132 $132 $211 $212 reversed $83 $-1 #
face $-1 $-1 $213 $43 $-1 $214 forward single #
loop $-1 $215 $216 $85 #
cone-surface $-1 50.077162106499486 -5.061034366546906 3.6046778638299379 -0.83867057594974714 0 -0.54463902268945019 0.2723195113447251 0 -0.41933528797487357 1 I I -0.70710678118654746 0.70710678118654746 0.5 forward I I I I #
loop $-1 $-1 $217 $54 #
coedge $-1 $137 $137 $218 $219 reversed $86 $-1 #
face $-1 $220 $221 $33 $-1 $222 reversed single #
loop $-1 $-1 $223 $88 #
plane-surface $-1 0 -32.800268461549301 0 0 1 0 0 0 1 forward_v I I I I #
coedge $-1 $224 $225 $226 $227 forward $89 $-1 #
coedge $-1 $228 $91 $229 $230 forward $56 $-1 #
coedge $-1 $91 $228 $231 $232 forward $56 $-1 #
coedge $-1 $233 $234 $91 $145 reversed $235 $-1 #
edge $-1 $236 -32.800268461549301 $237 32.800268461549301 $144 $238 forward 7 unknown #
face $-1 $239 $240 $34 $-1 $241 reversed single #
loop $-1 $-1 $242 $92 #
plane-surface $-1 0 0 -10.738191469087123 0 0 1 1 0 0 forward_v I I I I #
coedge $-1 $243 $244 $245 $246 reversed $93 $-1 #
coedge $-1 $247 $95 $244 $248 forward $59 $-1 #
coedge $-1 $95 $247 $249 $250 reversed $59 $-1 #
coedge $-1 $251 $245 $95 $153 forward $240 $-1 #
edge $-1 $252 11.053096898519495 $253 18.182480008193036 $152 $254 forward 7 unknown #
face $-1 $255 $256 $35 $-1 $257 forward single #
loop $-1 $-1 $258 $96 #
plane-surface $-1 -130.55172507937965 3.5646915548367701 90.939515027522248 0 -1 0 0.6560590369687036 0 -0.75470957328743171 forward_v I I I I #
coedge $-1 $259 $260 $261 $262 reversed $97 $-1 #
coedge $-1 $159 $99 $263 $264 reversed $62 $-1 #
coedge $-1 $99 $158 $259 $265 reversed $62 $-1 #
coedge $-1 $261 $266 $99 $161 forward $256 $-1 #
edge $-1 $267 8.811737047578859 $268 14.594303636906524 $160 $269 forward 7 unknown #
loop $-1 $-1 $167 $100 #
plane-surface $-1 -56.464125492110952 -0.8302713638497643 5.7114829151241224 -0.6560590369687036 0 0.75470957328743171 0.75470957328743171 0 0.6560590369687036 forward_v I I I I #
loop $-1 $-1 $270 $64 #
coedge $-1 $165 $165 $166 $271 reversed $101 $-1 #
coedge $-1 $166 $166 $165 $271 forward $103 $-1 #
coedge $-1 $167 $167 $104 $168 forward $162 $-1 #
edge $-1 $272 0 $272 6.2831853071796004 $167 $273 forward 7 unknown #
loop $-1 $-1 $174 $105 #
plane-surface $-1 -56.464125492110952 -0.8302713638497643 5.7114829151241224 -0.6560590369687036 0 0.75470957328743171 0.75470957328743171 0 0.6560590369687036 forward_v I I I I #
loop $-1 $-1 $274 $67 #
coedge $-1 $172 $172 $173 $275 reversed $106 $-1 #
coedge $-1 $173 $173 $172 $275 forward $108 $-1 #
coedge $-1 $174 $174 $109 $175 forward $169 $-1 #
edge $-1 $276 0 $276 6.2831853071796004 $174 $277 forward 7 unknown #
face $-1 $278 $279 $38 $-1 $280 reversed single #
loop $-1 $-1 $182 $110 #
plane-surface $-1 0 0 10.738191469087123 0 0 1 1 0 0 forward_v I I I I #
coedge $-1 $281 $282 $283 $284 reversed $111 $-1 #
coedge $-1 $181 $113 $285 $286 reversed $71 $-1 #
coedge $-1 $113 $180 $281 $287 reversed $71 $-1 #
coedge $-1 $283 $288 $113 $183 forward $177 $-1 #
edge $-1 $289 8.811737047578859 $290 14.594303636906524 $182 $291 forward 7 unknown #
loop $-1 $-1 $189 $114 #
plane-surface $-1 -56.464125492110952 28.40530554286277 5.7114829151241224 -0.6560590369687036 0 0.75470957328743171 0.75470957328743171 0 0.6560590369687036 forward_v I I I I #
loop $-1 $-1 $292 $73 #
coedge $-1 $187 $187 $188 $293 reversed $115 $-1 #
coedge $-1 $188 $188 $187 $293 forward $117 $-1 #
coedge $-1 $189 $189 $118 $190 forward $184 $-1 #
edge $-1 $294 0 $294 6.2831853071796004 $189 $295 forward 7 unknown #
loop $-1 $-1 $196 $119 #
plane-surface $-1 -56.464125492110952 28.40530554286277 5.7114829151241224 -0.6560590369687036 0 0.75470957328743171 0.75470957328743171 0 0.6560590369687036 forward_v I I I I #
loop $-1 $-1 $296 $76 #
coedge $-1 $194 $194 $195 $297 reversed $120 $-1 #
coedge $-1 $195 $195 $194 $297 forward $122 $-1 #
coedge $-1 $196 $196 $123 $197 forward $191 $-1 #
edge $-1 $298 0 $298 6.2831853071796004 $196 $299 forward 7 unknown #
face $-1 $300 $301 $41 $-1 $302 forward single #
loop $-1 $-1 $303 $124 #
plane-surface $-1 89.668594535970399 -12.244299837050001 156.62635705945658 0 1 0 0.83867057594974714 0 0.54463902268945019 forward_v I I I I #
coedge $-1 $304 $305 $306 $307 reversed $125 $-1 #
coedge $-1 $203 $127 $308 $309 reversed $80 $-1 #
coedge $-1 $127 $202 $304 $310 reversed $80 $-1 #
coedge $-1 $306 $311 $127 $205 forward $301 $-1 #
edge $-1 $312 -11.629828224125767 $313 -4.9236767991301349 $204 $314 forward 7 unknown #
loop $-1 $-1 $211 $128 #
plane-surface $-1 -5.0410067579646096 -7.216014007697833 95.121224809381005 0.83867057594974714 0 0.54463902268945019 0.54463902268945019 0 -0.83867057594974714 forward_v I I I I #
loop $-1 $-1 $315 $82 #
coedge $-1 $209 $209 $210 $316 reversed $129 $-1 #
coedge $-1 $210 $210 $209 $316 forward $131 $-1 #
coedge $-1 $211 $211 $132 $212 forward $206 $-1 #
edge $-1 $317 0 $317 6.2831853071796004 $211 $318 forward 7 unknown #
loop $-1 $-1 $218 $133 #
plane-surface $-1 -5.0410067579646096 -7.216014007697833 95.121224809381005 0.83867057594974714 0 0.54463902268945019 0.54463902268945019 0 -0.83867057594974714 forward_v I I I I #
loop $-1 $-1 $319 $85 #
coedge $-1 $216 $216 $217 $320 reversed $134 $-1 #
coedge $-1 $217 $217 $216 $320 forward $136 $-1 #
coedge $-1 $218 $218 $137 $219 forward $213 $-1 #
edge $-1 $321 0 $321 6.2831853071796004 $218 $322 forward 7 unknown #
face $-1 $323 $324 $33 $-1 $325 reversed single #
loop $-1 $-1 $326 $138 #
plane-surface $-1 -56.464125492110966 0 0 1 0 0 0 0 -1 forward_v I I I I #
coedge $-1 $327 $231 $328 $329 forward $139 $-1 #
coedge $-1 $330 $141 $327 $331 forward $89 $-1 #
coedge $-1 $141 $330 $332 $333 forward $89 $-1 #
coedge $-1 $234 $233 $141 $227 reversed $235 $-1 #
edge $-1 $334 -32.800268461549301 $335 32.800268461549301 $226 $336 forward 7 unknown #
coedge $-1 $143 $142 $337 $338 forward $56 $-1 #
coedge $-1 $339 $340 $142 $230 reversed $324 $-1 #
edge $-1 $237 -56.464125492110966 $341 56.464125492110966 $229 $342 forward 7 unknown #
coedge $-1 $223 $343 $143 $232 reversed $139 $-1 #
edge $-1 $344 -56.464125492110966 $236 56.464125492110966 $231 $345 forward 7 unknown #
coedge $-1 $226 $144 $343 $346 forward $235 $-1 #
coedge $-1 $144 $226 $339 $347 reversed $235 $-1 #
loop $-1 $-1 $233 $323 #
vertex $-1 $145 $348 #
vertex $-1 $145 $349 #
straight-curve $-1 56.464125492110966 0 10.738191469087123 0 1 0 I I #
face $-1 $350 $351 $34 $-1 $352 reversed single #
loop $-1 $-1 $245 $146 #
plane-surface $-1 56.464125492110966 0 0 -1 0 0 0 0 1 forward_v I I I I #
coedge $-1 $353 $354 $243 $355 forward $147 $-1 #
coedge $-1 $356 $149 $242 $355 reversed $93 $-1 #
coedge $-1 $149 $356 $150 $248 reversed $93 $-1 #
coedge $-1 $152 $357 $149 $246 forward $240 $-1 #
edge $-1 $358 -6.3736853838527177 $252 -2.3553267866160938 $245 $359 forward 7 unknown #
coedge $-1 $151 $150 $360 $361 reversed $59 $-1 #
edge $-1 $252 -56.464125492110966 $362 56.464125492110966 $244 $363 forward 7 unknown #
coedge $-1 $364 $365 $151 $250 forward $351 $-1 #
edge $-1 $253 -56.464125492110966 $366 56.464125492110966 $249 $367 forward 7 unknown #
coedge $-1 $357 $152 $365 $368 forward $240 $-1 #
vertex $-1 $153 $369 #
vertex $-1 $368 $370 #
straight-curve $-1 56.464125492110966 -14.617788453356265 -6.7198328718504996 0 -1 0 I I #
face $-1 $-1 $371 $35 $-1 $372 reversed single #
loop $-1 $-1 $160 $154 #
plane-surface $-1 0 0 10.738191469087123 0 0 1 1 0 0 forward_v I I I I #
coedge $-1 $373 $374 $375 $376 reversed $155 $-1 #
coedge $-1 $377 $157 $159 $265 forward $97 $-1 #
coedge $-1 $157 $377 $373 $378 forward $97 $-1 #
coedge $-1 $375 $160 $157 $262 forward $256 $-1 #
edge $-1 $268 -4.8100986006114166 $379 3.9798272367616523 $261 $380 forward 7 unknown #
coedge $-1 $381 $382 $158 $264 forward $371 $-1 #
edge $-1 $383 -39.758274598637016 $267 -34.731566044673997 $263 $384 forward 7 unknown #
edge $-1 $268 -7.6619759361729418 $383 1.888283279974768e-014 $159 $385 forward 7 unknown #
coedge $-1 $160 $375 $381 $386 forward $256 $-1 #
vertex $-1 $264 $387 #
vertex $-1 $161 $388 #
straight-curve $-1 -65.275862539689825 -5.2252342825362987 10.738191469087127 1 0 0 I I #
coedge $-1 $270 $270 $-1 $389 reversed $164 $-1 #
edge $-1 $390 0 $390 6.2831853071796004 $165 $391 forward 7 unknown #
vertex $-1 $168 $392 #
ellipse-curve $-1 -53.572842197447137 -2.7138269004297086 8.2248371921056158 -0.6560590369687036 0 0.75470957328743171 0.75470957328743171 0 0.6560590369687036 1 I I #
coedge $-1 $274 $274 $-1 $393 reversed $171 $-1 #
edge $-1 $394 0 $394 6.2831853071796004 $172 $395 forward 7 unknown #
vertex $-1 $175 $396 #
ellipse-curve $-1 -53.572842197447137 1.05328417273018 8.2248371921056158 -0.6560590369687036 0 0.75470957328743171 0.75470957328743171 0 0.6560590369687036 1 I I #
face $-1 $-1 $397 $38 $-1 $398 reversed single #
loop $-1 $-1 $399 $176 #
plane-surface $-1 0 32.800268461549301 0 0 -1 0 0 0 -1 forward_v I I I I #
coedge $-1 $400 $179 $181 $287 forward $111 $-1 #
coedge $-1 $179 $400 $399 $401 reversed $111 $-1 #
coedge $-1 $402 $182 $179 $284 forward $177 $-1 #
edge $-1 $290 9.8076898527448506 $403 18.597615690117923 $283 $404 forward 7 unknown #
coedge $-1 $405 $406 $180 $286 forward $397 $-1 #
edge $-1 $407 -39.758274598637016 $289 -34.731566044673997 $285 $408 forward 7 unknown #
edge $-1 $290 -7.6619759361729418 $407 1.888283279974768e-014 $181 $409 forward 7 unknown #
coedge $-1 $182 $402 $405 $410 forward $177 $-1 #
vertex $-1 $286 $411 #
vertex $-1 $183 $412 #
straight-curve $-1 -65.275862539689825 24.010342624176236 10.738191469087127 1 0 0 I I #
coedge $-1 $292 $292 $-1 $413 reversed $186 $-1 #
edge $-1 $414 0 $414 6.2831853071796004 $187 $415 forward 7 unknown #
vertex $-1 $190 $416 #
ellipse-curve $-1 -53.572842197447137 26.521750006282822 8.2248371921056158 -0.6560590369687036 0 0.75470957328743171 0.75470957328743171 0 0.6560590369687036 1 I I #
coedge $-1 $296 $296 $-1 $417 reversed $193 $-1 #
edge $-1 $418 0 $418 6.2831853071796004 $194 $419 forward 7 unknown #
vertex $-1 $197 $420 #
ellipse-curve $-1 -53.572842197447137 30.288861079442711 8.2248371921056158 -0.6560590369687036 0 0.75470957328743171 0.75470957328743171 0 0.6560590369687036 1 I I #
face $-1 $-1 $421 $41 $-1 $422 reversed single #
loop $-1 $-1 $204 $198 #
plane-surface $-1 0 0 10.738191469087123 0 0 1 1 0 0 forward_v I I I I #
coedge $-1 $423 $424 $425 $426 reversed $199 $-1 #
coedge $-1 $427 $201 $203 $310 forward $125 $-1 #
coedge $-1 $201 $427 $423 $428 forward $125 $-1 #
coedge $-1 $425 $204 $201 $307 forward $301 $-1 #
edge $-1 $313 -1.4202788255032512 $429 8.6362928332010842 $306 $430 forward 7 unknown #
coedge $-1 $431 $432 $202 $309 forward $421 $-1 #
edge $-1 $433 -77.901555014282295 $312 -67.574987060641163 $308 $434 forward 7 unknown #
edge $-1 $313 100.61523053284044 $433 112.92825098422193 $203 $435 forward 7 unknown #
coedge $-1 $204 $425 $431 $436 forward $301 $-1 #
vertex $-1 $309 $437 #
vertex $-1 $205 $438 #
straight-curve $-1 44.8342972679852 -2.1877281783456652 10.738191469087127 -1 0 0 I I #
coedge $-1 $315 $315 $-1 $439 reversed $208 $-1 #
edge $-1 $440 0 $440 6.2831853071796004 $209 $441 forward 7 unknown #
vertex $-1 $212 $442 #
ellipse-curve $-1 53.111049779613154 -9.3709936488487635 5.5749074922665622 0.83867057594974714 0 0.54463902268945019 0.54463902268945019 0 -0.83867057594974714 1 I I #
coedge $-1 $319 $319 $-1 $443 reversed $215 $-1 #
edge $-1 $444 0 $444 6.2831853071796004 $216 $445 forward 7 unknown #
vertex $-1 $219 $446 #
ellipse-curve $-1 53.111049779613154 -5.061034366546906 5.5749074922665622 0.83867057594974714 0 0.54463902268945019 0.54463902268945019 0 -0.83867057594974714 1 I I #
face $-1 $-1 $235 $33 $-1 $447 reversed single #
loop $-1 $-1 $339 $220 #
plane-surface $-1 0 32.800268461549301 0 0 -1 0 0 0 -1 forward_v I I I I #
coedge $-1 $448 $337 $340 $449 forward $221 $-1 #
coedge $-1 $343 $223 $224 $331 reversed $139 $-1 #
coedge $-1 $337 $448 $223 $329 reversed $221 $-1 #
edge $-1 $344 -10.738191469087123 $450 10.738191469087123 $328 $451 forward 7 unknown #
coedge $-1 $225 $224 $448 $452 forward $89 $-1 #
edge $-1 $335 -56.464125492110966 $450 56.464125492110966 $327 $453 forward 7 unknown #
coedge $-1 $340 $339 $225 $333 reversed $324 $-1 #
edge $-1 $454 -56.464125492110966 $334 56.464125492110966 $332 $455 forward 7 unknown #
vertex $-1 $227 $456 #
vertex $-1 $346 $457 #
straight-curve $-1 56.464125492110966 0 -10.738191469087123 0 -1 0 I I #
coedge $-1 $326 $328 $228 $338 reversed $221 $-1 #
edge $-1 $341 -32.800268461549301 $344 32.800268461549301 $337 $458 forward 7 unknown #
coedge $-1 $332 $229 $234 $347 forward $324 $-1 #
coedge $-1 $229 $332 $326 $449 reversed $324 $-1 #
vertex $-1 $230 $459 #
straight-curve $-1 0 32.800268461549301 10.738191469087123 -1 0 0 I I #
coedge $-1 $231 $327 $233 $346 reversed $139 $-1 #
vertex $-1 $338 $460 #
straight-curve $-1 0 -32.800268461549301 10.738191469087123 1 0 0 I I #
edge $-1 $236 -10.738191469087123 $335 10.738191469087123 $233 $461 forward 7 unknown #
edge $-1 $237 -10.738191469087123 $334 10.738191469087123 $234 $462 forward 7 unknown #
point $-1 56.464125492110966 -32.800268461549301 10.738191469087123 #
point $-1 56.464125492110966 32.800268461549301 10.738191469087123 #
face $-1 $-1 $463 $34 $-1 $464 reversed single #
loop $-1 $-1 $249 $239 #
plane-surface $-1 0 -32.800268461549301 0 0 1 0 0 0 1 forward_v I I I I #
coedge $-1 $465 $242 $357 $466 forward $147 $-1 #
coedge $-1 $242 $465 $467 $468 forward $147 $-1 #
edge $-1 $469 -56.464125492110966 $358 56.464125492110966 $242 $470 forward 7 unknown #
coedge $-1 $244 $243 $471 $472 reversed $93 $-1 #
coedge $-1 $245 $251 $353 $466 reversed $240 $-1 #
vertex $-1 $466 $473 #
straight-curve $-1 56.464125492110966 -25.670885351875761 -4.3645060852344058 0 0 1 I I #
coedge $-1 $471 $474 $247 $361 forward $463 $-1 #
edge $-1 $366 -18.182480008193036 $362 -11.053096898519495 $360 $475 forward 7 unknown #
vertex $-1 $361 $476 #
straight-curve $-1 0 -25.670885351875761 -6.7198328718504996 -1 0 0 I I #
coedge $-1 $477 $249 $474 $478 forward $351 $-1 #
coedge $-1 $249 $477 $251 $368 reversed $351 $-1 #
vertex $-1 $478 $479 #
straight-curve $-1 0 -32.800268461549301 -6.7198328718504996 -1 0 0 I I #
edge $-1 $253 6.7198328718504996 $480 10.738191469087123 $251 $481 forward 7 unknown #
point $-1 56.464125492110966 -25.670885351875761 -6.7198328718504996 #
point $-1 56.464125492110966 -32.800268461549301 -6.7198328718504996 #
loop $-1 $-1 $263 $255 #
plane-surface $-1 -56.464125492110966 0 0 1 0 0 0 0 -1 forward_v I I I I #
coedge $-1 $374 $258 $260 $378 reversed $155 $-1 #
coedge $-1 $258 $373 $482 $483 reversed $155 $-1 #
coedge $-1 $266 $261 $258 $376 forward $256 $-1 #
edge $-1 $379 -14.594303636906524 $484 -8.811737047578859 $375 $485 forward 7 unknown #
coedge $-1 $260 $259 $382 $486 reversed $97 $-1 #
edge $-1 $487 -1.888283279974768e-014 $379 7.6619759361729418 $373 $488 forward 7 unknown #
vertex $-1 $262 $489 #
straight-curve $-1 -50.681558902783301 -0.41513568192488215 10.738191469087125 0 1 0 I I #
coedge $-1 $482 $263 $266 $386 reversed $371 $-1 #
coedge $-1 $263 $482 $377 $486 forward $371 $-1 #
vertex $-1 $264 $490 #
straight-curve $-1 -56.464125492110966 -5.2252342825362987 45.469757513761124 0 0 1 I I #
straight-curve $-1 -56.464125492110952 -5.2252342825362987 5.7114829151241224 -0.75470957328743171 0 -0.6560590369687036 I I #
edge $-1 $484 -3.5646915548367701 $267 5.2252342825362987 $381 $491 forward 7 unknown #
point $-1 -56.464125492110966 -5.2252342825362987 10.738191469087123 #
point $-1 -50.681558902783301 -5.2252342825362987 10.738191469087123 #
edge $-1 $492 1 $492 0 $270 $-1 forward 7 unknown #
vertex $-1 $271 $493 #
ellipse-curve $-1 -51.251698236883712 -2.7138269004297086 5.5546665682703011 -0.6560590369687036 0 0.75470957328743171 0.75470957328743171 0 0.6560590369687036 1 I I #
point $-1 -52.818132624159709 -2.7138269004297086 8.8808962290743274 #
edge $-1 $494 1 $494 0 $274 $-1 forward 7 unknown #
vertex $-1 $275 $495 #
ellipse-curve $-1 -51.251698236883712 1.05328417273018 5.5546665682703011 -0.6560590369687036 0 0.75470957328743171 0.75470957328743171 0 0.6560590369687036 1 I I #
point $-1 -52.818132624159709 1.05328417273018 8.8808962290743274 #
loop $-1 $-1 $285 $278 #
plane-surface $-1 -56.464125492110966 0 0 1 0 0 0 0 -1 forward_v I I I I #
coedge $-1 $496 $497 $282 $401 forward $279 $-1 #
coedge $-1 $282 $281 $406 $498 reversed $111 $-1 #
edge $-1 $403 11.771497101446815 $499 19.433473037619777 $399 $500 forward 7 unknown #
coedge $-1 $288 $283 $497 $501 forward $177 $-1 #
vertex $-1 $501 $502 #
straight-curve $-1 -50.681558902783301 14.202652771431385 10.738191469087125 0 1 0 I I #
coedge $-1 $503 $285 $288 $410 reversed $397 $-1 #
coedge $-1 $285 $503 $400 $498 forward $397 $-1 #
vertex $-1 $286 $504 #
straight-curve $-1 -56.464125492110966 24.010342624176236 45.469757513761124 0 0 1 I I #
straight-curve $-1 -56.464125492110952 24.010342624176236 5.7114829151241224 -0.75470957328743171 0 -0.6560590369687036 I I #
edge $-1 $505 -32.800268461549301 $289 -24.010342624176236 $405 $506 forward 7 unknown #
point $-1 -56.464125492110966 24.010342624176236 10.738191469087123 #
point $-1 -50.681558902783301 24.010342624176236 10.738191469087123 #
edge $-1 $507 1 $507 0 $292 $-1 forward 7 unknown #
vertex $-1 $293 $508 #
ellipse-curve $-1 -51.251698236883712 26.521750006282822 5.5546665682703011 -0.6560590369687036 0 0.75470957328743171 0.75470957328743171 0 0.6560590369687036 1 I I #
point $-1 -52.818132624159709 26.521750006282822 8.8808962290743274 #
edge $-1 $509 1 $509 0 $296 $-1 forward 7 unknown #
vertex $-1 $297 $510 #
ellipse-curve $-1 -51.251698236883712 30.288861079442711 5.5546665682703011 -0.6560590369687036 0 0.75470957328743171 0.75470957328743171 0 0.6560590369687036 1 I I #
point $-1 -52.818132624159709 30.288861079442711 8.8808962290743274 #
loop $-1 $-1 $308 $300 #
plane-surface $-1 56.464125492110966 0 0 -1 0 0 0 0 1 forward_v I I I I #
coedge $-1 $424 $303 $305 $428 reversed $199 $-1 #
coedge $-1 $303 $423 $511 $512 reversed $199 $-1 #
coedge $-1 $311 $306 $303 $426 forward $301 $-1 #
edge $-1 $429 4.9236767991301349 $513 11.629828224125767 $425 $514 forward 7 unknown #
coedge $-1 $305 $304 $432 $515 reversed $125 $-1 #
edge $-1 $516 -112.92825098422193 $429 -100.61523053284044 $423 $517 forward 7 unknown #
vertex $-1 $307 $518 #
straight-curve $-1 49.757974067115342 -3.6080070038489165 10.738191469087127 0 -1 0 I I #
coedge $-1 $511 $308 $311 $436 reversed $421 $-1 #
coedge $-1 $308 $511 $427 $515 forward $421 $-1 #
vertex $-1 $309 $519 #
straight-curve $-1 56.464125492110966 -2.1877281783456652 78.31317852972829 0 0 1 I I #
straight-curve $-1 -5.0410067579646096 -2.1877281783456652 95.121224809381005 0.54463902268945019 0 -0.83867057594974714 I I #
edge $-1 $513 -12.244299837050001 $312 -2.1877281783456652 $431 $520 forward 7 unknown #
point $-1 56.464125492110966 -2.1877281783456652 10.738191469087123 #
point $-1 49.757974067115335 -2.1877281783456652 10.738191469087127 #
edge $-1 $521 1 $521 0 $315 $-1 forward 7 unknown #
vertex $-1 $316 $522 #
ellipse-curve $-1 50.49649739447436 -9.3709936488487635 3.8769973751746631 0.83867057594974714 0 0.54463902268945019 0.54463902268945019 0 -0.83867057594974714 1 I I #
point $-1 53.655688802302599 -9.3709936488487635 4.7362369163168081 #
edge $-1 $523 1 $523 0 $319 $-1 forward 7 unknown #
vertex $-1 $320 $524 #
ellipse-curve $-1 50.49649739447436 -5.061034366546906 3.8769973751746631 0.83867057594974714 0 0.54463902268945019 0.54463902268945019 0 -0.83867057594974714 1 I I #
point $-1 53.655688802302599 -5.061034366546906 4.7362369163168081 #
plane-surface $-1 56.464125492110966 0 0 -1 0 0 0 0 1 forward_v I I I I #
coedge $-1 $328 $326 $330 $452 reversed $221 $-1 #
edge $-1 $341 -10.738191469087123 $454 10.738191469087123 $340 $525 forward 7 unknown #
vertex $-1 $452 $526 #
straight-curve $-1 -56.464125492110966 -32.800268461549301 0 0 0 -1 I I #
edge $-1 $450 -32.800268461549301 $454 32.800268461549301 $448 $527 forward 7 unknown #
straight-curve $-1 0 -32.800268461549301 -10.738191469087123 -1 0 0 I I #
vertex $-1 $333 $528 #
straight-curve $-1 0 32.800268461549301 -10.738191469087123 1 0 0 I I #
point $-1 56.464125492110966 32.800268461549301 -10.738191469087123 #
point $-1 56.464125492110966 -32.800268461549301 -10.738191469087123 #
straight-curve $-1 -56.464125492110966 0 10.738191469087123 0 -1 0 I I #
point $-1 -56.464125492110966 32.800268461549301 10.738191469087123 #
point $-1 -56.464125492110966 -32.800268461549301 10.738191469087123 #
straight-curve $-1 56.464125492110966 -32.800268461549301 0 0 0 -1 I I #
straight-curve $-1 56.464125492110966 32.800268461549301 0 0 0 -1 I I #
loop $-1 $-1 $471 $350 #
plane-surface $-1 -56.464125492110966 0 0 1 0 0 0 0 -1 forward_v I I I I #
coedge $-1 $354 $353 $477 $529 forward $147 $-1 #
edge $-1 $358 25.670885351875761 $480 32.800268461549301 $357 $530 forward 7 unknown #
coedge $-1 $474 $471 $354 $468 reversed $463 $-1 #
edge $-1 $531 -32.800268461549301 $469 -25.670885351875761 $467 $532 forward 7 unknown #
vertex $-1 $472 $533 #
straight-curve $-1 0 -25.670885351875761 -10.738191469087123 1 0 0 I I #
coedge $-1 $467 $360 $356 $472 forward $463 $-1 #
edge $-1 $362 2.3553267866160938 $469 6.3736853838527177 $471 $534 forward 7 unknown #
point $-1 56.464125492110966 -25.670885351875761 -10.738191469087123 #
coedge $-1 $360 $467 $364 $478 reversed $463 $-1 #
straight-curve $-1 -56.464125492110966 -14.617788453356265 -6.7198328718504996 0 1 0 I I #
point $-1 -56.464125492110966 -25.670885351875761 -6.7198328718504996 #
coedge $-1 $365 $364 $465 $529 reversed $351 $-1 #
edge $-1 $366 6.7198328718504996 $531 10.738191469087123 $474 $535 forward 7 unknown #
point $-1 -56.464125492110966 -32.800268461549301 -6.7198328718504996 #
vertex $-1 $368 $536 #
straight-curve $-1 56.464125492110966 -32.800268461549301 0 0 0 -1 I I #
coedge $-1 $382 $381 $374 $483 forward $371 $-1 #
edge $-1 $484 34.731566044673997 $487 39.758274598637016 $482 $537 forward 7 unknown #
vertex $-1 $386 $538 #
straight-curve $-1 -65.275862539689825 3.5646915548367701 10.738191469087127 -1 0 0 I I #
edge $-1 $487 -3.9798272367616523 $383 4.8100986006114166 $382 $539 forward 7 unknown #
vertex $-1 $486 $540 #
straight-curve $-1 -56.464125492110952 3.5646915548367701 5.7114829151241224 0.75470957328743171 0 0.6560590369687036 I I #
point $-1 -50.681558902783301 3.5646915548367701 10.738191469087123 #
point $-1 -56.464125492110966 -5.2252342825362987 5.71148291512411 #
straight-curve $-1 -56.464125492110966 0 10.738191469087123 0 -1 0 I I #
vertex $-1 $389 $541 #
point $-1 -50.496988663596284 -2.7138269004297086 6.2107256052390047 #
vertex $-1 $393 $542 #
point $-1 -50.496988663596284 1.05328417273018 6.2107256052390047 #
coedge $-1 $497 $399 $503 $543 reversed $279 $-1 #
coedge $-1 $399 $496 $402 $501 reversed $279 $-1 #
edge $-1 $499 -18.597615690117923 $407 -9.8076898527448506 $406 $544 forward 7 unknown #
vertex $-1 $401 $545 #
straight-curve $-1 -41.797497348396135 32.800268461549301 18.460988521142205 -0.75470957328743171 0 -0.6560590369687036 I I #
edge $-1 $403 50.681558902783301 $505 56.464125492110966 $497 $546 forward 7 unknown #
point $-1 -50.681558902783301 32.800268461549308 10.738191469087123 #
coedge $-1 $406 $405 $496 $543 forward $397 $-1 #
point $-1 -56.464125492110966 24.010342624176236 5.71148291512411 #
vertex $-1 $501 $547 #
straight-curve $-1 -56.464125492110966 0 10.738191469087123 0 -1 0 I I #
vertex $-1 $413 $548 #
point $-1 -50.496988663596284 26.521750006282822 6.2107256052390047 #
vertex $-1 $417 $549 #
point $-1 -50.496988663596284 30.288861079442711 6.2107256052390047 #
coedge $-1 $432 $431 $424 $512 forward $421 $-1 #
edge $-1 $513 67.574987060641163 $516 77.901555014282295 $511 $550 forward 7 unknown #
vertex $-1 $436 $551 #
straight-curve $-1 44.8342972679852 -12.244299837050001 10.738191469087127 1 0 0 I I #
edge $-1 $516 -8.6362928332010842 $433 1.4202788255032512 $432 $552 forward 7 unknown #
vertex $-1 $515 $553 #
straight-curve $-1 -5.0410067579646096 -12.244299837050001 95.121224809381005 -0.54463902268945019 0 0.83867057594974714 I I #
point $-1 49.757974067115335 -12.244299837050001 10.738191469087127 #
point $-1 56.464125492110966 -2.1877281783456652 0.41162351544599574 #
straight-curve $-1 56.464125492110966 0 10.738191469087123 0 1 0 I I #
vertex $-1 $439 $554 #
point $-1 51.041136417163813 -9.3709936488487635 3.0383267992249161 #
vertex $-1 $443 $555 #
point $-1 51.041136417163813 -5.061034366546906 3.0383267992249161 #
straight-curve $-1 -56.464125492110966 32.800268461549301 0 0 0 -1 I I #
point $-1 -56.464125492110966 -32.800268461549301 -10.738191469087123 #
straight-curve $-1 -56.464125492110966 0 -10.738191469087123 0 1 0 I I #
point $-1 -56.464125492110966 32.800268461549301 -10.738191469087123 #
edge $-1 $480 -56.464125492110966 $531 56.464125492110966 $477 $556 forward 7 unknown #
straight-curve $-1 56.464125492110966 0 -10.738191469087123 0 -1 0 I I #
vertex $-1 $468 $557 #
straight-curve $-1 -56.464125492110966 0 -10.738191469087123 0 1 0 I I #
point $-1 -56.464125492110966 -25.670885351875761 -10.738191469087123 #
straight-curve $-1 -56.464125492110966 -25.670885351875761 -4.3645060852344058 0 0 -1 I I #
straight-curve $-1 -56.464125492110966 -32.800268461549301 0 0 0 -1 I I #
point $-1 56.464125492110966 -32.800268461549301 -10.738191469087123 #
straight-curve $-1 -56.464125492110966 3.5646915548367701 45.469757513761124 0 0 -1 I I #
point $-1 -56.464125492110966 3.5646915548367701 10.738191469087123 #
straight-curve $-1 -56.464125492110966 -0.41513568192488215 5.7114829151241109 0 -1 0 I I #
point $-1 -56.464125492110966 3.5646915548367701 5.71148291512411 #
point $-1 -50.595639199915013 -2.7138269004297086 4.7999569949828693 #
point $-1 -50.595639199915013 1.05328417273018 4.7999569949828693 #
edge $-1 $505 -10.738191469087123 $499 -5.71148291512411 $496 $558 forward 7 unknown #
straight-curve $-1 -56.464125492110966 14.202652771431385 5.7114829151241109 0 -1 0 I I #
point $-1 -56.464125492110966 32.800268461549308 5.71148291512411 #
straight-curve $-1 0 32.800268461549301 10.738191469087123 -1 0 0 I I #
point $-1 -56.464125492110966 32.800268461549301 10.738191469087123 #
point $-1 -50.595639199915013 26.521750006282822 4.7999569949828693 #
point $-1 -50.595639199915013 30.288861079442711 4.7999569949828693 #
straight-curve $-1 56.464125492110966 -12.244299837050001 78.31317852972829 0 0 -1 I I #
point $-1 56.464125492110966 -12.244299837050001 10.738191469087123 #
straight-curve $-1 56.464125492110966 -3.6080070038489165 0.41162351544599574 0 1 0 I I #
point $-1 56.464125492110966 -12.244299837050001 0.41162351544599574 #
point $-1 49.657826818524612 -9.3709936488487635 3.3323583524852127 #
point $-1 49.657826818524612 -5.061034366546906 3.3323583524852127 #
straight-curve $-1 0 -32.800268461549301 -10.738191469087123 -1 0 0 I I #
point $-1 -56.464125492110966 -32.800268461549301 -10.738191469087123 #
straight-curve $-1 -56.464125492110966 32.800268461549301 0 0 0 -1 I I #
End-of-ACIS-data 