600 0 9 0           
108 GICL ACIS Healer - Source: /gicl/data5/repository/Drexel/CICIRELLO-THESISDATA/Part10016.smdg.delta.sat - 6 0 18 ACIS 6.0.3 Solaris 24 Fri Apr 12 10:30:21 2002 
1 9.999999999999999547e-07 1.000000000000000036e-10 
body $-1 $9 $-1 $-1 #
body $-1 $10 $-1 $-1 #
body $-1 $11 $-1 $-1 #
body $-1 $12 $-1 $-1 #
body $-1 $13 $-1 $-1 #
body $-1 $14 $-1 $-1 #
body $-1 $15 $-1 $-1 #
body $-1 $16 $-1 $-1 #
body $-1 $17 $-1 $-1 #
lump $-1 $-1 $18 $0 #
lump $-1 $-1 $19 $1 #
lump $-1 $-1 $20 $2 #
lump $-1 $-1 $21 $3 #
lump $-1 $-1 $22 $4 #
lump $-1 $-1 $23 $5 #
lump $-1 $-1 $24 $6 #
lump $-1 $-1 $25 $7 #
lump $-1 $-1 $26 $8 #
shell $-1 $-1 $-1 $27 $-1 $9 #
shell $-1 $-1 $-1 $28 $-1 $10 #
shell $-1 $-1 $-1 $29 $-1 $11 #
shell $-1 $-1 $-1 $30 $-1 $12 #
shell $-1 $-1 $-1 $31 $-1 $13 #
shell $-1 $-1 $-1 $32 $-1 $14 #
shell $-1 $-1 $-1 $33 $-1 $15 #
shell $-1 $-1 $-1 $34 $-1 $16 #
shell $-1 $-1 $-1 $35 $-1 $17 #
face $-1 $36 $37 $18 $-1 $38 forward single #
face $-1 $39 $40 $19 $-1 $41 forward single #
face $-1 $42 $43 $20 $-1 $44 forward single #
face $-1 $45 $46 $21 $-1 $47 reversed single #
face $-1 $48 $49 $22 $-1 $50 forward single #
face $-1 $51 $52 $23 $-1 $53 forward single #
face $-1 $54 $55 $24 $-1 $56 reversed single #
face $-1 $57 $58 $25 $-1 $59 forward single #
face $-1 $60 $61 $26 $-1 $62 forward single #
face $-1 $63 $64 $18 $-1 $65 reversed single #
loop $-1 $-1 $66 $27 #
plane-surface $-1 79.8779259620960147 32.11571886356522043 16.64465959303070974 0 0 1 1 0 0 forward_v I I I I #
face $-1 $67 $68 $19 $-1 $69 forward single #
loop $-1 $-1 $70 $28 #
plane-surface $-1 79.8779259620960147 0 8.322329796515354872 0 1 0 0 0 1 forward_v I I I I #
face $-1 $71 $72 $20 $-1 $73 reversed single #
loop $-1 $-1 $74 $29 #
plane-surface $-1 79.8779259620960147 64.23143772713044086 8.322329796515354872 0 -1 0 0 0 -1 forward_v I I I I #
face $-1 $75 $76 $21 $-1 $77 reversed single #
loop $-1 $-1 $78 $30 #
plane-surface $-1 214.4130011935596372 54.93617736454802269 229.4789271362585339 0 -1 0 -0.8571673085369920786 0 -0.5150380618706241753 forward_v I I I I #
face $-1 $79 $80 $22 $-1 $81 forward single #
loop $-1 $82 $83 $31 #
cone-surface $-1 157.357719949353509 49.29356894505865228 13.16427262292017986 -0.8571673085369921896 0 -0.5150380618706242863 0.2575190309353120877 0 -0.4285836542684960393 1 I I 0 1 0.5 forward I I I I #
face $-1 $84 $85 $23 $-1 $86 forward single #
loop $-1 $87 $88 $32 #
cone-surface $-1 157.357719949353509 52.67913399675227737 13.16427262292017986 -0.8571673085369921896 0 -0.5150380618706242863 0.2575190309353120877 0 -0.4285836542684960393 1 I I 0 1 0.5 forward I I I I #
face $-1 $89 $90 $24 $-1 $91 reversed single #
loop $-1 $-1 $92 $33 #
plane-surface $-1 -127.586697598339299 41.54462568703202408 106.7854564998821729 0 1 0 -0.7986355182712320255 0 0.6018150122385121925 forward_v I I I I #
face $-1 $93 $94 $25 $-1 $95 forward single #
loop $-1 $96 $97 $34 #
cone-surface $-1 4.518337991752758853 45.37078330917945124 11.94280122589048254 0.7986355182712320255 0 -0.6018150122385121925 0.9027225183577682888 0 1.197953277406847983 1 I I 0 1 1.5 forward I I I I #
face $-1 $98 $99 $26 $-1 $100 forward single #
loop $-1 $101 $102 $35 #
cone-surface $-1 4.518337991752758853 51.11001974240059553 11.94280122589048254 0.7986355182712320255 0 -0.6018150122385121925 0.9027225183577682888 0 1.197953277406847983 1 I I 0 1 1.5 forward I I I I #
face $-1 $103 $104 $18 $-1 $105 reversed single #
loop $-1 $-1 $106 $36 #
plane-surface $-1 79.8779259620960147 32.11571886356522043 0 0 0 1 1 0 0 forward_v I I I I #
coedge $-1 $107 $108 $109 $110 forward $37 $-1 #
face $-1 $111 $112 $19 $-1 $113 reversed single #
loop $-1 $-1 $114 $39 #
plane-surface $-1 79.8779259620960147 32.11571886356522043 16.64465959303070974 0 0 1 1 0 0 forward_v I I I I #
coedge $-1 $115 $116 $117 $118 forward $40 $-1 #
face $-1 $119 $120 $20 $-1 $121 reversed single #
loop $-1 $-1 $122 $42 #
plane-surface $-1 159.7558519241920294 32.11571886356522043 8.322329796515354872 -1 0 0 0 0 1 forward_v I I I I #
coedge $-1 $123 $124 $125 $126 forward $43 $-1 #
face $-1 $127 $128 $21 $-1 $129 reversed single #
loop $-1 $-1 $130 $45 #
plane-surface $-1 77.47550757666570576 50.98635147090546127 147.1985827887322387 0.8571673085369921896 0 0.5150380618706242863 0.5150380618706241753 0 -0.8571673085369920786 forward_v I I I I #
coedge $-1 $131 $132 $133 $134 reversed $46 $-1 #
face $-1 $-1 $135 $22 $-1 $136 forward single #
loop $-1 $137 $138 $48 #
cone-surface $-1 156.6631141187386902 49.29356894505865228 12.74691134793818037 -0.8571673085369921896 0 -0.5150380618706242863 0.1287595154676560438 0 -0.2142918271342480196 1 I I -0.7071067811865474617 0.7071067811865474617 0.25 forward I I I I #
loop $-1 $-1 $139 $31 #
coedge $-1 $83 $83 $140 $141 reversed $49 $-1 #
face $-1 $-1 $142 $23 $-1 $143 forward single #
loop $-1 $144 $145 $51 #
cone-surface $-1 156.6631141187386902 52.67913399675227737 12.74691134793818037 -0.8571673085369921896 0 -0.5150380618706242863 0.1287595154676560438 0 -0.2142918271342480196 1 I I -0.7071067811865474617 0.7071067811865474617 0.25 forward I I I I #
loop $-1 $-1 $146 $32 #
coedge $-1 $88 $88 $147 $148 reversed $52 $-1 #
face $-1 $149 $150 $24 $-1 $151 reversed single #
loop $-1 $-1 $152 $54 #
plane-surface $-1 0 48.24040152579001983 10.64198651895059555 -0.7986355182712320255 0 0.6018150122385121925 0.6018150122385121925 0 0.7986355182712320255 forward_v I I I I #
coedge $-1 $153 $154 $155 $156 reversed $55 $-1 #
face $-1 $-1 $157 $25 $-1 $158 forward single #
loop $-1 $159 $160 $57 #
cone-surface $-1 7.373983383304363315 45.37078330917945124 9.790918136611423961 0.7986355182712320255 0 -0.6018150122385121925 0.4513612591788841444 0 0.5989766387034239914 1 I I -0.7071067811865475727 0.7071067811865475727 0.75 forward I I I I #
loop $-1 $-1 $161 $34 #
coedge $-1 $97 $97 $162 $163 reversed $58 $-1 #
face $-1 $-1 $164 $26 $-1 $165 forward single #
loop $-1 $166 $167 $60 #
cone-surface $-1 7.373983383304363315 51.11001974240059553 9.790918136611423961 0.7986355182712320255 0 -0.6018150122385121925 0.4513612591788841444 0 0.5989766387034239914 1 I I -0.7071067811865475727 0.7071067811865475727 0.75 forward I I I I #
loop $-1 $-1 $168 $35 #
coedge $-1 $102 $102 $169 $170 reversed $61 $-1 #
face $-1 $171 $172 $18 $-1 $173 reversed single #
loop $-1 $-1 $174 $63 #
plane-surface $-1 79.8779259620960147 0 8.322329796515354872 0 1 0 0 0 1 forward_v I I I I #
coedge $-1 $175 $176 $177 $178 forward $64 $-1 #
coedge $-1 $179 $66 $180 $181 forward $37 $-1 #
coedge $-1 $66 $179 $182 $183 forward $37 $-1 #
coedge $-1 $184 $185 $66 $110 reversed $186 $-1 #
edge $-1 $187 -32.11571886356522043 $188 32.11571886356522043 $109 $189 forward 7 unknown #
face $-1 $190 $191 $19 $-1 $192 reversed single #
loop $-1 $-1 $193 $67 #
plane-surface $-1 0 32.11571886356522043 8.322329796515354872 1 0 0 0 0 -1 forward_v I I I I #
coedge $-1 $194 $195 $196 $197 forward $68 $-1 #
coedge $-1 $196 $70 $193 $198 reversed $40 $-1 #
coedge $-1 $70 $196 $199 $200 reversed $40 $-1 #
coedge $-1 $201 $202 $70 $118 reversed $191 $-1 #
edge $-1 $203 -79.8779259620960147 $204 79.8779259620960147 $117 $205 forward 7 unknown #
face $-1 $206 $207 $20 $-1 $208 reversed single #
loop $-1 $-1 $209 $71 #
plane-surface $-1 79.8779259620960147 68.8790679084216606 12.29425039619874838 0 0 1 1 0 0 forward_v I I I I #
coedge $-1 $210 $211 $123 $212 forward $72 $-1 #
coedge $-1 $213 $74 $122 $212 reversed $43 $-1 #
coedge $-1 $74 $213 $214 $215 reversed $43 $-1 #
coedge $-1 $216 $209 $74 $126 reversed $120 $-1 #
edge $-1 $217 -79.8779259620960147 $218 79.8779259620960147 $125 $219 forward 7 unknown #
face $-1 $220 $221 $21 $-1 $222 forward single #
loop $-1 $-1 $223 $75 #
plane-surface $-1 214.4130011935596372 47.03652557726289984 229.4789271362585339 0 1 0 0.8571673085369920786 0 0.5150380618706241753 forward_v I I I I #
coedge $-1 $224 $225 $226 $227 reversed $76 $-1 #
coedge $-1 $132 $78 $228 $229 reversed $46 $-1 #
coedge $-1 $78 $131 $224 $230 reversed $46 $-1 #
coedge $-1 $226 $231 $78 $134 forward $221 $-1 #
edge $-1 $232 -12.61038834636420347 $233 -8.774752403648193422 $133 $234 forward 7 unknown #
loop $-1 $-1 $140 $79 #
plane-surface $-1 77.47550757666570576 50.98635147090546127 147.1985827887322387 0.8571673085369921896 0 0.5150380618706242863 0.5150380618706241753 0 -0.8571673085369920786 forward_v I I I I #
loop $-1 $-1 $235 $48 #
coedge $-1 $138 $138 $139 $236 reversed $80 $-1 #
coedge $-1 $139 $139 $138 $236 forward $82 $-1 #
coedge $-1 $140 $140 $83 $141 forward $135 $-1 #
edge $-1 $237 0 $237 6.283185307179586232 $140 $238 forward 7 unknown #
loop $-1 $-1 $147 $84 #
plane-surface $-1 77.47550757666570576 50.98635147090546127 147.1985827887322387 0.8571673085369921896 0 0.5150380618706242863 0.5150380618706241753 0 -0.8571673085369920786 forward_v I I I I #
loop $-1 $-1 $239 $51 #
coedge $-1 $145 $145 $146 $240 reversed $85 $-1 #
coedge $-1 $146 $146 $145 $240 forward $87 $-1 #
coedge $-1 $147 $147 $88 $148 forward $142 $-1 #
edge $-1 $241 0 $241 6.283185307179586232 $147 $242 forward 7 unknown #
face $-1 $243 $244 $24 $-1 $245 reversed single #
loop $-1 $-1 $246 $89 #
plane-surface $-1 -127.586697598339299 54.93617736454801559 106.7854564998821729 0 -1 0 0.7986355182712320255 0 -0.6018150122385121925 forward_v I I I I #
coedge $-1 $247 $248 $249 $250 reversed $90 $-1 #
coedge $-1 $154 $92 $251 $252 reversed $55 $-1 #
coedge $-1 $92 $153 $247 $253 reversed $55 $-1 #
coedge $-1 $249 $254 $92 $156 forward $255 $-1 #
edge $-1 $256 23.85438581812164216 $257 28.37772429593078982 $155 $258 forward 7 unknown #
loop $-1 $-1 $162 $93 #
plane-surface $-1 0 48.24040152579001983 10.64198651895059555 -0.7986355182712320255 0 0.6018150122385121925 0.6018150122385121925 0 0.7986355182712320255 forward_v I I I I #
loop $-1 $-1 $259 $57 #
coedge $-1 $160 $160 $161 $260 reversed $94 $-1 #
coedge $-1 $161 $161 $160 $260 forward $96 $-1 #
coedge $-1 $162 $162 $97 $163 forward $157 $-1 #
edge $-1 $261 0 $261 6.283185307179586232 $162 $262 forward 7 unknown #
loop $-1 $-1 $169 $98 #
plane-surface $-1 0 48.24040152579001983 10.64198651895059555 -0.7986355182712320255 0 0.6018150122385121925 0.6018150122385121925 0 0.7986355182712320255 forward_v I I I I #
loop $-1 $-1 $263 $60 #
coedge $-1 $167 $167 $168 $264 reversed $99 $-1 #
coedge $-1 $168 $168 $167 $264 forward $101 $-1 #
coedge $-1 $169 $169 $102 $170 forward $164 $-1 #
edge $-1 $265 0 $265 6.283185307179586232 $169 $266 forward 7 unknown #
face $-1 $267 $268 $18 $-1 $269 reversed single #
loop $-1 $-1 $270 $103 #
plane-surface $-1 0 32.11571886356522043 8.322329796515354872 1 0 0 0 0 -1 forward_v I I I I #
coedge $-1 $271 $182 $272 $273 forward $104 $-1 #
coedge $-1 $274 $106 $271 $275 forward $64 $-1 #
coedge $-1 $106 $274 $276 $277 forward $64 $-1 #
coedge $-1 $185 $184 $106 $178 reversed $186 $-1 #
edge $-1 $278 -32.11571886356522043 $279 32.11571886356522043 $177 $280 forward 7 unknown #
coedge $-1 $108 $107 $281 $282 forward $37 $-1 #
coedge $-1 $283 $284 $107 $181 reversed $268 $-1 #
edge $-1 $188 -79.8779259620960147 $285 79.8779259620960147 $180 $286 forward 7 unknown #
coedge $-1 $174 $287 $108 $183 reversed $104 $-1 #
edge $-1 $288 -79.8779259620960147 $187 79.8779259620960147 $182 $289 forward 7 unknown #
coedge $-1 $177 $109 $287 $290 forward $186 $-1 #
coedge $-1 $109 $177 $283 $291 reversed $186 $-1 #
loop $-1 $-1 $184 $267 #
vertex $-1 $110 $292 #
vertex $-1 $110 $293 #
straight-curve $-1 159.7558519241920294 32.11571886356522043 16.64465959303070974 0 1 0 I I #
face $-1 $294 $295 $19 $-1 $296 reversed single #
loop $-1 $-1 $201 $111 #
plane-surface $-1 79.8779259620960147 -4.647630181291212637 12.29425039619874838 0 0 1 1 0 0 forward_v I I I I #
coedge $-1 $297 $298 $115 $198 forward $112 $-1 #
coedge $-1 $299 $114 $298 $300 forward $68 $-1 #
coedge $-1 $114 $299 $301 $302 forward $68 $-1 #
coedge $-1 $116 $115 $114 $197 reversed $40 $-1 #
edge $-1 $303 -79.8779259620960147 $304 79.8779259620960147 $114 $305 forward 7 unknown #
edge $-1 $304 -8.322329796515354872 $204 -3.971920599683393505 $193 $306 forward 7 unknown #
coedge $-1 $301 $307 $116 $200 forward $308 $-1 #
edge $-1 $203 3.971920599683393505 $303 8.322329796515354872 $199 $309 forward 7 unknown #
coedge $-1 $310 $117 $307 $311 forward $191 $-1 #
coedge $-1 $117 $310 $297 $312 forward $191 $-1 #
vertex $-1 $200 $313 #
vertex $-1 $198 $314 #
straight-curve $-1 79.8779259620960147 0 12.29425039619874838 -1 0 0 I I #
face $-1 $315 $316 $20 $-1 $317 forward single #
loop $-1 $-1 $318 $119 #
plane-surface $-1 79.8779259620960147 73.52669808971288035 14.46945499461472906 0 -1 0 0 0 -1 forward_v I I I I #
coedge $-1 $125 $319 $210 $320 forward $120 $-1 #
coedge $-1 $321 $122 $209 $320 reversed $72 $-1 #
coedge $-1 $122 $321 $322 $323 reversed $72 $-1 #
edge $-1 $324 -8.322329796515354872 $218 -3.971920599683393505 $122 $325 forward 7 unknown #
coedge $-1 $124 $123 $326 $327 reversed $43 $-1 #
coedge $-1 $328 $329 $124 $215 forward $330 $-1 #
edge $-1 $217 3.971920599683393505 $331 8.322329796515354872 $214 $332 forward 7 unknown #
coedge $-1 $319 $125 $329 $333 forward $120 $-1 #
vertex $-1 $215 $334 #
vertex $-1 $212 $335 #
straight-curve $-1 79.8779259620960147 64.23143772713044086 12.29425039619874838 1 0 0 I I #
face $-1 $-1 $336 $21 $-1 $337 reversed single #
loop $-1 $-1 $133 $127 #
plane-surface $-1 79.8779259620960147 32.11571886356522043 16.64465959303070974 0 0 1 1 0 0 forward_v I I I I #
coedge $-1 $338 $339 $340 $341 reversed $128 $-1 #
coedge $-1 $342 $130 $132 $230 forward $76 $-1 #
coedge $-1 $130 $342 $338 $343 forward $76 $-1 #
coedge $-1 $340 $133 $130 $227 forward $221 $-1 #
edge $-1 $233 -13.38514219731268184 $344 -5.485490410027558994 $226 $345 forward 7 unknown #
coedge $-1 $346 $347 $131 $229 forward $336 $-1 #
edge $-1 $348 -108.6395392945486549 $232 -102.255968873356224 $228 $349 forward 7 unknown #
edge $-1 $233 152.3085655454244716 $348 159.7558519241921147 $132 $350 forward 7 unknown #
coedge $-1 $133 $340 $346 $351 forward $221 $-1 #
vertex $-1 $229 $352 #
vertex $-1 $134 $353 #
straight-curve $-1 147.1454635778278259 54.93617736454802269 16.64465959303070264 -1 0 0 I I #
coedge $-1 $235 $235 $-1 $354 reversed $137 $-1 #
edge $-1 $355 0 $355 6.283185307179586232 $138 $356 forward 7 unknown #
vertex $-1 $141 $357 #
ellipse-curve $-1 157.8380339528340528 49.29356894505865228 13.4528743824345014 0.8571673085369921896 0 0.5150380618706242863 0.2575190309353120877 0 -0.4285836542684960393 1 I I #
coedge $-1 $239 $239 $-1 $358 reversed $144 $-1 #
edge $-1 $359 0 $359 6.283185307179586232 $145 $360 forward 7 unknown #
vertex $-1 $148 $361 #
ellipse-curve $-1 157.8380339528340528 52.67913399675227737 13.4528743824345014 0.8571673085369921896 0 0.5150380618706242863 0.2575190309353120877 0 -0.4285836542684960393 1 I I #
face $-1 $-1 $255 $24 $-1 $362 forward single #
loop $-1 $-1 $363 $149 #
plane-surface $-1 0 32.11571886356522043 8.322329796515354872 1 0 0 0 0 -1 forward_v I I I I #
coedge $-1 $364 $365 $366 $367 reversed $150 $-1 #
coedge $-1 $368 $152 $154 $253 forward $90 $-1 #
coedge $-1 $152 $368 $364 $369 forward $90 $-1 #
coedge $-1 $366 $155 $152 $250 forward $255 $-1 #
edge $-1 $257 1.366565492354403943 $370 14.75811716987039546 $249 $371 forward 7 unknown #
coedge $-1 $372 $373 $153 $252 forward $244 $-1 #
edge $-1 $374 -46.91190662924816479 $256 -40.9092335551680506 $251 $375 forward 7 unknown #
edge $-1 $257 -7.516160922912387576 $374 0 $154 $376 forward 7 unknown #
coedge $-1 $155 $366 $372 $377 forward $255 $-1 #
loop $-1 $-1 $366 $243 #
vertex $-1 $252 $378 #
vertex $-1 $156 $379 #
straight-curve $-1 -23.85438581812164216 41.54462568703202408 16.64465959303070974 1 0 0 I I #
coedge $-1 $259 $259 $-1 $380 reversed $159 $-1 #
edge $-1 $381 0 $381 6.283185307179586232 $160 $382 forward 7 unknown #
vertex $-1 $163 $383 #
ellipse-curve $-1 2.261669238904573831 45.37078330917945124 13.64332305599065798 -0.7986355182712320255 0 0.6018150122385121925 0.9027225183577682888 0 1.197953277406847983 1 I I #
coedge $-1 $263 $263 $-1 $384 reversed $166 $-1 #
edge $-1 $385 0 $385 6.283185307179586232 $167 $386 forward 7 unknown #
vertex $-1 $170 $387 #
ellipse-curve $-1 2.261669238904573831 51.11001974240059553 13.64332305599065798 -0.7986355182712320255 0 0.6018150122385121925 0.9027225183577682888 0 1.197953277406847983 1 I I #
face $-1 $-1 $186 $18 $-1 $388 reversed single #
loop $-1 $-1 $283 $171 #
plane-surface $-1 79.8779259620960147 64.23143772713044086 8.322329796515354872 0 -1 0 0 0 -1 forward_v I I I I #
coedge $-1 $389 $281 $284 $390 forward $172 $-1 #
coedge $-1 $287 $174 $175 $275 reversed $104 $-1 #
coedge $-1 $281 $389 $174 $273 reversed $172 $-1 #
edge $-1 $288 -8.322329796515354872 $391 8.322329796515354872 $272 $392 forward 7 unknown #
coedge $-1 $176 $175 $389 $393 forward $64 $-1 #
edge $-1 $279 -79.8779259620960147 $391 79.8779259620960147 $271 $394 forward 7 unknown #
coedge $-1 $284 $283 $176 $277 reversed $268 $-1 #
edge $-1 $395 -79.8779259620960147 $278 79.8779259620960147 $276 $396 forward 7 unknown #
vertex $-1 $178 $397 #
vertex $-1 $290 $398 #
straight-curve $-1 159.7558519241920294 32.11571886356522043 0 0 -1 0 I I #
coedge $-1 $270 $272 $179 $282 reversed $172 $-1 #
edge $-1 $285 -32.11571886356522043 $288 32.11571886356522043 $281 $399 forward 7 unknown #
coedge $-1 $276 $180 $185 $291 forward $268 $-1 #
coedge $-1 $180 $276 $270 $390 reversed $268 $-1 #
vertex $-1 $181 $400 #
straight-curve $-1 79.8779259620960147 64.23143772713044086 16.64465959303070974 -1 0 0 I I #
coedge $-1 $182 $271 $184 $290 reversed $104 $-1 #
vertex $-1 $282 $401 #
straight-curve $-1 79.8779259620960147 0 16.64465959303070974 1 0 0 I I #
edge $-1 $187 -8.322329796515354872 $279 8.322329796515354872 $184 $402 forward 7 unknown #
edge $-1 $188 -8.322329796515354872 $278 8.322329796515354872 $185 $403 forward 7 unknown #
point $-1 159.7558519241920294 0 16.64465959303070974 #
point $-1 159.7558519241920294 64.23143772713044086 16.64465959303070974 #
face $-1 $-1 $308 $19 $-1 $404 reversed single #
loop $-1 $-1 $405 $190 #
plane-surface $-1 79.8779259620960147 -9.295260362582425273 14.46945499461472906 0 1 0 0 0 1 forward_v I I I I #
coedge $-1 $406 $193 $202 $312 reversed $112 $-1 #
coedge $-1 $193 $406 $194 $300 reversed $112 $-1 #
coedge $-1 $195 $194 $407 $408 forward $68 $-1 #
edge $-1 $304 32.11571886356522043 $409 41.4109792261476457 $298 $410 forward 7 unknown #
coedge $-1 $411 $199 $195 $302 reversed $308 $-1 #
edge $-1 $412 -41.4109792261476457 $303 -32.11571886356522043 $301 $413 forward 7 unknown #
vertex $-1 $200 $414 #
vertex $-1 $300 $415 #
straight-curve $-1 79.8779259620960147 0 16.64465959303070974 -1 0 0 I I #
straight-curve $-1 0 0 8.322329796515354872 0 0 -1 I I #
coedge $-1 $199 $411 $201 $311 reversed $308 $-1 #
loop $-1 $-1 $199 $294 #
straight-curve $-1 159.7558519241920294 0 8.322329796515354872 0 0 1 I I #
coedge $-1 $202 $201 $416 $417 forward $191 $-1 #
edge $-1 $203 -4.647630181291212637 $418 4.647630181291212637 $307 $419 forward 7 unknown #
edge $-1 $420 -4.647630181291212637 $204 4.647630181291212637 $297 $421 forward 7 unknown #
point $-1 159.7558519241920294 0 12.29425039619874838 #
point $-1 0 0 12.29425039619874838 #
face $-1 $-1 $330 $20 $-1 $422 reversed single #
loop $-1 $-1 $326 $206 #
plane-surface $-1 79.8779259620960147 32.11571886356522043 16.64465959303070974 0 0 1 1 0 0 forward_v I I I I #
coedge $-1 $423 $424 $321 $425 forward $207 $-1 #
coedge $-1 $209 $216 $423 $426 forward $120 $-1 #
edge $-1 $427 -4.647630181291219742 $218 4.647630181291219742 $210 $428 forward 7 unknown #
coedge $-1 $211 $210 $318 $425 reversed $72 $-1 #
coedge $-1 $429 $326 $211 $323 forward $316 $-1 #
edge $-1 $324 32.11571886356522043 $430 41.41097922614765992 $211 $431 forward 7 unknown #
vertex $-1 $323 $432 #
straight-curve $-1 159.7558519241920294 64.23143772713044086 8.322329796515354872 0 0 -1 I I #
coedge $-1 $322 $433 $213 $327 forward $316 $-1 #
edge $-1 $331 -79.8779259620960147 $324 79.8779259620960147 $326 $434 forward 7 unknown #
coedge $-1 $435 $214 $433 $436 reversed $330 $-1 #
coedge $-1 $214 $435 $216 $333 reversed $330 $-1 #
loop $-1 $-1 $214 $315 #
vertex $-1 $215 $437 #
straight-curve $-1 0 64.23143772713044086 8.322329796515354872 0 0 1 I I #
edge $-1 $217 -4.647630181291219742 $438 4.647630181291219742 $329 $439 forward 7 unknown #
point $-1 0 64.23143772713044086 12.29425039619874838 #
point $-1 159.7558519241920294 64.23143772713044086 12.29425039619874838 #
loop $-1 $-1 $228 $220 #
plane-surface $-1 159.7558519241920294 32.11571886356522043 8.322329796515354872 -1 0 0 0 0 1 forward_v I I I I #
coedge $-1 $339 $223 $225 $343 reversed $128 $-1 #
coedge $-1 $223 $338 $440 $441 reversed $128 $-1 #
coedge $-1 $231 $226 $223 $341 forward $221 $-1 #
edge $-1 $344 8.774752403648193422 $442 12.61038834636420347 $340 $443 forward 7 unknown #
coedge $-1 $225 $224 $347 $444 reversed $76 $-1 #
edge $-1 $445 -159.7558519241921147 $344 -152.3085655454244716 $338 $446 forward 7 unknown #
vertex $-1 $227 $447 #
straight-curve $-1 155.9202159814760478 41.55103516723534085 16.64465959303070264 0 -1 0 I I #
coedge $-1 $440 $228 $231 $351 reversed $336 $-1 #
coedge $-1 $228 $440 $342 $444 forward $336 $-1 #
vertex $-1 $229 $448 #
straight-curve $-1 159.7558519241920294 54.93617736454802269 118.9006284663869337 0 0 1 I I #
straight-curve $-1 77.47550757666570576 54.93617736454802269 147.1985827887322387 0.5150380618706241753 0 -0.8571673085369920786 I I #
edge $-1 $442 14.92080671369767941 $232 22.82045850098280226 $346 $449 forward 7 unknown #
point $-1 159.7558519241920294 54.93617736454802269 16.64465959303070974 #
point $-1 155.9202159814760194 54.93617736454802269 16.64465959303071685 #
edge $-1 $450 1 $450 0 $235 $-1 forward 7 unknown #
vertex $-1 $236 $451 #
ellipse-curve $-1 156.8774059458729369 49.29356894505865228 12.875670863405837 0.8571673085369921896 0 0.5150380618706242863 0.2575190309353120877 0 -0.4285836542684960393 1 I I #
point $-1 158.0955529837693803 49.29356894505865228 13.0242907281660294 #
edge $-1 $452 1 $452 0 $239 $-1 forward 7 unknown #
vertex $-1 $240 $453 #
ellipse-curve $-1 156.8774059458729369 52.67913399675227737 12.875670863405837 0.8571673085369921896 0 0.5150380618706242863 0.2575190309353120877 0 -0.4285836542684960393 1 I I #
point $-1 158.0955529837693803 52.67913399675227737 13.0242907281660294 #
plane-surface $-1 79.8779259620960147 32.11571886356522043 16.64465959303070974 0 0 1 1 0 0 forward_v I I I I #
coedge $-1 $373 $372 $365 $454 forward $244 $-1 #
coedge $-1 $365 $246 $248 $369 reversed $150 $-1 #
coedge $-1 $246 $364 $363 $454 reversed $150 $-1 #
coedge $-1 $254 $249 $246 $367 forward $255 $-1 #
edge $-1 $370 -28.37772429593078982 $455 -23.85438581812164216 $366 $456 forward 7 unknown #
coedge $-1 $248 $247 $373 $457 reversed $90 $-1 #
edge $-1 $458 0 $370 7.516160922912387576 $364 $459 forward 7 unknown #
vertex $-1 $250 $460 #
straight-curve $-1 4.523338477809147662 40.17806019467762013 16.6446595930307133 0 1 0 I I #
coedge $-1 $363 $251 $254 $377 reversed $244 $-1 #
coedge $-1 $251 $363 $368 $457 forward $244 $-1 #
vertex $-1 $252 $461 #
straight-curve $-1 0 41.54462568703202408 57.55389314819876034 0 0 1 I I #
straight-curve $-1 0 41.54462568703202408 10.64198651895059555 -0.6018150122385121925 0 -0.7986355182712320255 I I #
edge $-1 $455 -22.82045850098279516 $256 -9.428906823466803644 $372 $462 forward 7 unknown #
point $-1 0 41.54462568703202408 16.64465959303070974 #
point $-1 4.523338477809147662 41.54462568703202408 16.64465959303070974 #
edge $-1 $463 1 $463 0 $259 $-1 forward 7 unknown #
vertex $-1 $260 $464 #
ellipse-curve $-1 6.775006744600943875 45.37078330917945124 10.24227939579030888 -0.7986355182712320255 0 0.6018150122385121925 0.9027225183577682888 0 1.197953277406847983 1 I I #
point $-1 3.164391757262336569 45.37078330917945124 14.84127633339750574 #
edge $-1 $465 1 $465 0 $263 $-1 forward 7 unknown #
vertex $-1 $264 $466 #
ellipse-curve $-1 6.775006744600943875 51.11001974240059553 10.24227939579030888 -0.7986355182712320255 0 0.6018150122385121925 0.9027225183577682888 0 1.197953277406847983 1 I I #
point $-1 3.164391757262336569 51.11001974240059553 14.84127633339750574 #
plane-surface $-1 159.7558519241920294 32.11571886356522043 8.322329796515354872 -1 0 0 0 0 1 forward_v I I I I #
coedge $-1 $272 $270 $274 $393 reversed $172 $-1 #
edge $-1 $285 -8.322329796515354872 $395 8.322329796515354872 $284 $467 forward 7 unknown #
vertex $-1 $393 $468 #
straight-curve $-1 0 0 8.322329796515354872 0 0 -1 I I #
edge $-1 $391 -32.11571886356522043 $395 32.11571886356522043 $389 $469 forward 7 unknown #
straight-curve $-1 79.8779259620960147 0 0 -1 0 0 I I #
vertex $-1 $277 $470 #
straight-curve $-1 79.8779259620960147 64.23143772713044086 0 1 0 0 I I #
point $-1 159.7558519241920294 64.23143772713044086 0 #
point $-1 159.7558519241920294 0 0 #
straight-curve $-1 0 32.11571886356522043 16.64465959303070974 0 -1 0 I I #
point $-1 0 64.23143772713044086 16.64465959303070974 #
point $-1 0 0 16.64465959303070974 #
straight-curve $-1 159.7558519241920294 0 8.322329796515354872 0 0 -1 I I #
straight-curve $-1 159.7558519241920294 64.23143772713044086 8.322329796515354872 0 0 -1 I I #
plane-surface $-1 159.7558519241920294 32.11571886356522043 8.322329796515354872 -1 0 0 0 0 1 forward_v I I I I #
coedge $-1 $416 $407 $406 $471 forward $295 $-1 #
coedge $-1 $298 $297 $405 $471 reversed $112 $-1 #
coedge $-1 $405 $472 $299 $408 reversed $295 $-1 #
edge $-1 $409 -79.8779259620960147 $412 79.8779259620960147 $407 $473 forward 7 unknown #
vertex $-1 $300 $474 #
straight-curve $-1 0 32.11571886356522043 16.64465959303070974 0 -1 0 I I #
coedge $-1 $307 $301 $472 $475 forward $308 $-1 #
vertex $-1 $302 $476 #
straight-curve $-1 159.7558519241920294 32.11571886356522043 16.64465959303070974 0 1 0 I I #
point $-1 159.7558519241920294 0 16.64465959303070974 #
point $-1 0 0 16.64465959303070974 #
coedge $-1 $472 $405 $310 $417 reversed $295 $-1 #
edge $-1 $418 -79.8779259620960147 $420 79.8779259620960147 $416 $477 forward 7 unknown #
vertex $-1 $475 $478 #
straight-curve $-1 159.7558519241920294 -4.647630181291212637 12.29425039619874838 0 -1 0 I I #
vertex $-1 $312 $479 #
straight-curve $-1 0 -4.647630181291212637 12.29425039619874838 0 1 0 I I #
plane-surface $-1 0 32.11571886356522043 8.322329796515354872 1 0 0 0 0 -1 forward_v I I I I #
coedge $-1 $480 $318 $319 $426 reversed $207 $-1 #
coedge $-1 $318 $480 $429 $481 reversed $207 $-1 #
edge $-1 $430 -2.175204598415980684 $427 2.175204598415980684 $321 $482 forward 7 unknown #
edge $-1 $438 -79.8779259620960147 $427 79.8779259620960147 $423 $483 forward 7 unknown #
vertex $-1 $320 $484 #
straight-curve $-1 159.7558519241920294 68.8790679084216606 12.29425039619874838 0 -1 0 I I #
coedge $-1 $433 $322 $424 $481 forward $316 $-1 #
vertex $-1 $323 $485 #
straight-curve $-1 159.7558519241920294 32.11571886356522043 16.64465959303070974 0 1 0 I I #
point $-1 159.7558519241920294 64.23143772713044086 16.64465959303070974 #
coedge $-1 $326 $429 $328 $436 forward $316 $-1 #
straight-curve $-1 79.8779259620960147 64.23143772713044086 16.64465959303070974 1 0 0 I I #
coedge $-1 $329 $328 $480 $486 forward $330 $-1 #
edge $-1 $487 -41.41097922614765992 $331 -32.11571886356522043 $328 $488 forward 7 unknown #
point $-1 0 64.23143772713044086 16.64465959303070974 #
vertex $-1 $426 $489 #
straight-curve $-1 0 68.8790679084216606 12.29425039619874838 0 1 0 I I #
coedge $-1 $347 $346 $339 $441 forward $336 $-1 #
edge $-1 $442 102.255968873356224 $445 108.6395392945486549 $440 $490 forward 7 unknown #
vertex $-1 $351 $491 #
straight-curve $-1 147.1454635778278259 47.03652557726289984 16.64465959303070264 1 0 0 I I #
edge $-1 $445 5.485490410027558994 $348 13.38514219731268184 $347 $492 forward 7 unknown #
vertex $-1 $444 $493 #
straight-curve $-1 77.47550757666570576 47.03652557726289984 147.1985827887322387 -0.5150380618706241753 0 0.8571673085369920786 I I #
point $-1 155.9202159814760194 47.03652557726289984 16.64465959303071685 #
point $-1 159.7558519241920294 54.93617736454802269 10.26108917183827174 #
straight-curve $-1 159.7558519241920294 32.11571886356522043 16.64465959303070974 0 1 0 I I #
vertex $-1 $354 $494 #
point $-1 157.1349249768082359 49.29356894505865228 12.44708720913734012 #
vertex $-1 $358 $495 #
point $-1 157.1349249768082359 52.67913399675227737 12.44708720913734012 #
edge $-1 $455 40.9092335551680506 $458 46.91190662924816479 $363 $496 forward 7 unknown #
vertex $-1 $377 $497 #
straight-curve $-1 -23.85438581812164216 54.93617736454801559 16.64465959303070974 -1 0 0 I I #
edge $-1 $458 -14.75811716987039546 $374 -1.366565492354403943 $373 $498 forward 7 unknown #
vertex $-1 $457 $499 #
straight-curve $-1 0 54.93617736454801559 10.64198651895059555 0.6018150122385121925 0 0.7986355182712320255 I I #
point $-1 4.523338477809147662 54.93617736454801559 16.64465959303070974 #
point $-1 0 41.54462568703202408 10.64198651895059555 #
straight-curve $-1 0 32.11571886356522043 16.64465959303070974 0 -1 0 I I #
vertex $-1 $380 $500 #
point $-1 7.677729262958706613 45.37078330917945124 11.44023267319715664 #
vertex $-1 $384 $501 #
point $-1 7.677729262958706613 51.11001974240059553 11.44023267319715664 #
straight-curve $-1 0 64.23143772713044086 8.322329796515354872 0 0 -1 I I #
point $-1 0 0 0 #
straight-curve $-1 0 32.11571886356522043 0 0 1 0 I I #
point $-1 0 64.23143772713044086 0 #
edge $-1 $409 -2.175204598415980684 $420 2.175204598415980684 $406 $502 forward 7 unknown #
coedge $-1 $407 $416 $411 $475 reversed $295 $-1 #
straight-curve $-1 79.8779259620960147 -9.295260362582425273 16.64465959303070974 1 0 0 I I #
point $-1 0 -9.295260362582425273 16.64465959303070974 #
edge $-1 $412 -2.175204598415980684 $418 2.175204598415980684 $411 $503 forward 7 unknown #
point $-1 159.7558519241920294 -9.295260362582425273 16.64465959303070974 #
straight-curve $-1 79.8779259620960147 -9.295260362582425273 12.29425039619874838 -1 0 0 I I #
point $-1 159.7558519241920294 -9.295260362582425273 12.29425039619874838 #
point $-1 0 -9.295260362582425273 12.29425039619874838 #
coedge $-1 $424 $423 $435 $486 reversed $207 $-1 #
edge $-1 $430 -79.8779259620960147 $487 79.8779259620960147 $424 $504 forward 7 unknown #
straight-curve $-1 159.7558519241920294 73.52669808971288035 14.46945499461472906 0 0 -1 I I #
straight-curve $-1 79.8779259620960147 73.52669808971288035 12.29425039619874838 1 0 0 I I #
point $-1 159.7558519241920294 73.52669808971288035 12.29425039619874838 #
point $-1 159.7558519241920294 73.52669808971288035 16.64465959303070974 #
edge $-1 $487 -2.175204598415980684 $438 2.175204598415980684 $480 $505 forward 7 unknown #
vertex $-1 $481 $506 #
straight-curve $-1 0 32.11571886356522043 16.64465959303070974 0 -1 0 I I #
point $-1 0 73.52669808971288035 12.29425039619874838 #
straight-curve $-1 159.7558519241920294 47.03652557726289984 118.9006284663869337 0 0 -1 I I #
point $-1 159.7558519241920294 47.03652557726289984 16.64465959303070974 #
straight-curve $-1 159.7558519241920294 41.55103516723534085 10.26108917183824332 0 1 0 I I #
point $-1 159.7558519241920294 47.03652557726289984 10.26108917183827174 #
point $-1 156.4488222916044435 49.29356894505865228 12.61815183247052374 #
point $-1 156.4488222916044435 52.67913399675227737 12.61815183247052374 #
straight-curve $-1 0 54.93617736454801559 57.55389314819876034 0 0 -1 I I #
point $-1 0 54.93617736454801559 16.64465959303070974 #
straight-curve $-1 0 40.17806019467762013 10.64198651895060088 0 -1 0 I I #
point $-1 0 54.93617736454801559 10.64198651895059555 #
point $-1 7.972960022007782754 45.37078330917945124 9.339556877432539039 #
point $-1 7.972960022007782754 51.11001974240059553 9.339556877432539039 #
straight-curve $-1 0 -9.295260362582425273 14.46945499461472906 0 0 -1 I I #
straight-curve $-1 159.7558519241920294 -9.295260362582425273 14.46945499461472906 0 0 -1 I I #
straight-curve $-1 79.8779259620960147 73.52669808971288035 16.64465959303070974 -1 0 0 I I #
straight-curve $-1 0 73.52669808971288035 14.46945499461472906 0 0 -1 I I #
point $-1 0 73.52669808971288035 16.64465959303070974 #
End-of-ACIS-data 