500 0 3 0           
7 Unknown 11 ACIS 5.0 NT 24 Fri Mar 26 02:06:12 1999 
-1 9.9999999999999995e-007 1e-010 
body $-1 $3 $-1 $4 #
body $-1 $5 $-1 $6 #
body $-1 $7 $-1 $8 #
lump $-1 $-1 $9 $0 #
transform $-1 1 0 0 0 1 0 0 0 1 50.733970152897733 32.089503207795993 9.8509202495467729 1 rotate no_reflect no_shear #
lump $-1 $-1 $10 $1 #
transform $-1 1 0 0 0 1 0 0 0 1 50.733970152897733 32.089503207795993 9.8509202495467729 1 rotate no_reflect no_shear #
lump $-1 $-1 $11 $2 #
transform $-1 1 0 0 0 1 0 0 0 1 50.733970152897733 32.089503207795993 9.8509202495467729 1 rotate no_reflect no_shear #
shell $-1 $-1 $-1 $12 $-1 $3 #
shell $-1 $-1 $-1 $13 $-1 $5 #
shell $-1 $-1 $-1 $14 $-1 $7 #
face $-1 $15 $16 $9 $-1 $17 forward single #
face $-1 $18 $19 $10 $-1 $20 forward single #
face $-1 $21 $22 $11 $-1 $23 reversed single #
face $-1 $24 $25 $9 $-1 $26 reversed single #
loop $-1 $-1 $27 $12 #
plane-surface $-1 0 0 9.8509202495467729 0 0 1 1 0 0 forward_v I I I I #
face $-1 $28 $29 $10 $-1 $30 forward single #
loop $-1 $-1 $31 $13 #
plane-surface $-1 -38.685213509450982 58.456762583783522 122.3309408831703 -1 0 0 0 0.70710678939079041 0.70710677298230451 forward_v I I I I #
face $-1 $32 $33 $11 $-1 $34 reversed single #
loop $-1 $35 $36 $14 #
cone-surface $-1 -44.709591831174357 28.995616560173129 6.7570335658127822 0 -0.70710678939079041 -0.70710677298230451 1 0 0 1 I I 0 1 1 forward I I I I #
face $-1 $37 $38 $9 $-1 $39 reversed single #
loop $-1 $-1 $40 $15 #
plane-surface $-1 0 0 -9.8509202495467729 0 0 1 1 0 0 forward_v I I I I #
coedge $-1 $41 $42 $43 $44 forward $16 $-1 #
face $-1 $45 $46 $10 $-1 $47 reversed single #
loop $-1 $-1 $48 $18 #
plane-surface $-1 -44.709591831174357 -13.29190691194389 50.582273052378156 0 0.70710678939079041 0.70710677298230451 1 0 0 forward_v I I I I #
coedge $-1 $49 $50 $51 $52 reversed $19 $-1 #
face $-1 $53 $54 $11 $-1 $55 forward single #
loop $-1 $56 $57 $21 #
cone-surface $-1 -44.709591831174357 27.873205648896729 5.6346226805820425 0 -0.70710678939079041 -0.70710677298230451 0.5 0 0 1 I I -0.70710678118654746 0.70710678118654746 0.5 forward I I I I #
loop $-1 $-1 $58 $14 #
coedge $-1 $36 $36 $59 $60 reversed $22 $-1 #
face $-1 $61 $62 $9 $-1 $63 reversed single #
loop $-1 $-1 $64 $24 #
plane-surface $-1 0 -32.089503207795993 0 0 1 0 0 0 1 forward_v I I I I #
coedge $-1 $65 $66 $67 $68 forward $25 $-1 #
coedge $-1 $69 $27 $70 $71 forward $16 $-1 #
coedge $-1 $27 $69 $72 $73 forward $16 $-1 #
coedge $-1 $74 $75 $27 $44 reversed $76 $-1 #
edge $-1 $77 -32.089503207795993 $78 32.089503207795993 $43 $79 forward 7 unknown #
face $-1 $80 $81 $10 $-1 $82 forward single #
loop $-1 $-1 $83 $28 #
plane-surface $-1 0 32.089503207795993 0 0 -1 0 0 0 -1 forward_v I I I I #
coedge $-1 $84 $85 $83 $86 reversed $29 $-1 #
coedge $-1 $50 $31 $85 $87 forward $19 $-1 #
coedge $-1 $31 $49 $88 $89 reversed $19 $-1 #
coedge $-1 $90 $83 $31 $52 forward $46 $-1 #
edge $-1 $91 -55.964608562027202 $92 -51.314550192038375 $51 $93 forward 7 unknown #
face $-1 $94 $95 $11 $-1 $96 forward single #
loop $-1 $-1 $97 $32 #
plane-surface $-1 -38.685213509450982 58.456762583783522 122.3309408831703 -1 0 0 0 0.70710678939079041 0.70710677298230451 forward_v I I I I #
loop $-1 $-1 $98 $21 #
coedge $-1 $57 $57 $58 $99 forward $33 $-1 #
coedge $-1 $58 $58 $57 $99 reversed $35 $-1 #
coedge $-1 $59 $59 $36 $60 forward $95 $-1 #
edge $-1 $100 -6.2803687417103658e-016 $100 6.2831853071795996 $59 $101 forward 7 unknown #
face $-1 $102 $103 $9 $-1 $104 reversed single #
loop $-1 $-1 $105 $37 #
plane-surface $-1 -50.733970152897733 0 0 1 0 0 0 0 -1 forward_v I I I I #
coedge $-1 $106 $72 $107 $108 forward $38 $-1 #
coedge $-1 $109 $40 $106 $110 forward $25 $-1 #
coedge $-1 $40 $109 $111 $112 forward $25 $-1 #
coedge $-1 $75 $74 $40 $68 reversed $76 $-1 #
edge $-1 $113 -32.089503207795993 $114 32.089503207795993 $67 $115 forward 7 unknown #
coedge $-1 $42 $41 $116 $117 forward $16 $-1 #
coedge $-1 $118 $119 $41 $71 reversed $103 $-1 #
edge $-1 $78 -50.733970152897733 $120 50.733970152897733 $70 $121 forward 7 unknown #
coedge $-1 $64 $122 $42 $73 reversed $38 $-1 #
edge $-1 $123 -50.733970152897733 $77 50.733970152897733 $72 $124 forward 7 unknown #
coedge $-1 $67 $43 $122 $125 forward $76 $-1 #
coedge $-1 $43 $67 $118 $126 reversed $76 $-1 #
loop $-1 $-1 $74 $102 #
vertex $-1 $44 $127 #
vertex $-1 $44 $128 #
straight-curve $-1 50.733970152897733 0 9.8509202495467729 0 1 0 I I #
face $-1 $129 $130 $10 $-1 $131 reversed single #
loop $-1 $-1 $88 $45 #
plane-surface $-1 0 0 9.8509202495467729 0 0 1 1 0 0 forward_v I I I I #
coedge $-1 $51 $132 $48 $86 forward $46 $-1 #
coedge $-1 $133 $48 $134 $135 reversed $29 $-1 #
coedge $-1 $48 $133 $49 $87 reversed $29 $-1 #
edge $-1 $136 -28.379174237310554 $91 -16.330417593863803 $83 $137 forward 7 unknown #
edge $-1 $91 -64.179006415592028 $138 -57.602830879227717 $49 $139 forward 7 unknown #
coedge $-1 $140 $141 $50 $89 forward $81 $-1 #
edge $-1 $92 -2.8611219159042314 $138 1.7889363461795078 $88 $142 forward 7 unknown #
coedge $-1 $143 $51 $141 $144 reversed $46 $-1 #
vertex $-1 $86 $145 #
vertex $-1 $89 $146 #
straight-curve $-1 -38.685213509450982 32.089503207795993 61.16547044158515 0 0 1 I I #
face $-1 $147 $148 $11 $-1 $149 reversed single #
loop $-1 $150 $59 $53 #
plane-surface $-1 -44.709591831174357 -13.29190691194389 50.582273052378156 0 0.70710678939079041 0.70710677298230451 1 0 0 forward_v I I I I #
coedge $-1 $151 $152 $153 $154 reversed $54 $-1 #
coedge $-1 $98 $98 $-1 $155 forward $56 $-1 #
edge $-1 $156 0 $156 6.2831853071796004 $57 $157 forward 7 unknown #
vertex $-1 $60 $158 #
ellipse-curve $-1 -44.709591831174357 29.764474076754126 7.5258910645523622 0 -0.70710678939079041 -0.70710677298230451 1 0 0 1 I I #
face $-1 $-1 $76 $9 $-1 $159 reversed single #
loop $-1 $-1 $118 $61 #
plane-surface $-1 0 32.089503207795993 0 0 -1 0 0 0 -1 forward_v I I I I #
coedge $-1 $160 $116 $119 $161 forward $62 $-1 #
coedge $-1 $122 $64 $65 $110 reversed $38 $-1 #
coedge $-1 $116 $160 $64 $108 reversed $62 $-1 #
edge $-1 $123 -9.8509202495467729 $162 9.8509202495467729 $107 $163 forward 7 unknown #
coedge $-1 $66 $65 $160 $164 forward $25 $-1 #
edge $-1 $114 -50.733970152897733 $162 50.733970152897733 $106 $165 forward 7 unknown #
coedge $-1 $119 $118 $66 $112 reversed $103 $-1 #
edge $-1 $166 -50.733970152897733 $113 50.733970152897733 $111 $167 forward 7 unknown #
vertex $-1 $68 $168 #
vertex $-1 $125 $169 #
straight-curve $-1 50.733970152897733 0 -9.8509202495467729 0 -1 0 I I #
coedge $-1 $105 $107 $69 $117 reversed $62 $-1 #
edge $-1 $120 -32.089503207795993 $123 32.089503207795993 $116 $170 forward 7 unknown #
coedge $-1 $111 $70 $75 $126 forward $103 $-1 #
coedge $-1 $70 $111 $105 $161 reversed $103 $-1 #
vertex $-1 $71 $171 #
straight-curve $-1 0 32.089503207795993 9.8509202495467729 -1 0 0 I I #
coedge $-1 $72 $106 $74 $125 reversed $38 $-1 #
vertex $-1 $117 $172 #
straight-curve $-1 0 -32.089503207795993 9.8509202495467729 1 0 0 I I #
edge $-1 $77 -9.8509202495467729 $114 9.8509202495467729 $74 $173 forward 7 unknown #
edge $-1 $78 -9.8509202495467729 $113 9.8509202495467729 $75 $174 forward 7 unknown #
point $-1 50.733970152897733 -32.089503207795993 9.8509202495467729 #
point $-1 50.733970152897733 32.089503207795993 9.8509202495467729 #
face $-1 $175 $176 $10 $-1 $177 reversed single #
loop $-1 $-1 $178 $80 #
plane-surface $-1 0 0 -9.8509202495467729 0 0 1 1 0 0 forward_v I I I I #
coedge $-1 $83 $179 $180 $181 reversed $46 $-1 #
coedge $-1 $85 $84 $140 $182 reversed $29 $-1 #
coedge $-1 $180 $183 $84 $135 forward $184 $-1 #
edge $-1 $185 35.019897828507084 $136 41.596073364871387 $134 $186 forward 7 unknown #
vertex $-1 $181 $187 #
straight-curve $-1 -22.354795915587179 32.089503207795993 5.2008618795579515 1 0 0 I I #
vertex $-1 $182 $188 #
straight-curve $-1 -38.685213509450982 -13.29190691194389 50.582273052378156 0 -0.70710677298230451 0.70710678939079041 I I #
coedge $-1 $189 $88 $133 $182 forward $81 $-1 #
coedge $-1 $88 $190 $90 $144 forward $81 $-1 #
straight-curve $-1 -38.685213509450982 29.228381291891761 9.8509202495467747 0 -1 0 I I #
coedge $-1 $179 $90 $191 $192 forward $46 $-1 #
edge $-1 $193 -50.733970152897733 $92 38.685213509450982 $90 $194 forward 7 unknown #
point $-1 -38.685213509450982 32.089503207795993 5.200861879557948 #
point $-1 -38.685213509450982 32.089503207795993 9.8509202495467729 #
face $-1 $195 $196 $11 $-1 $197 forward single #
loop $-1 $-1 $198 $94 #
plane-surface $-1 0 32.089503207795993 0 0 -1 0 0 0 -1 forward_v I I I I #
loop $-1 $-1 $199 $53 #
coedge $-1 $152 $97 $200 $201 forward $54 $-1 #
coedge $-1 $97 $151 $202 $203 reversed $54 $-1 #
coedge $-1 $204 $198 $97 $154 forward $148 $-1 #
edge $-1 $205 -55.964608562027202 $206 -51.314550192038375 $153 $207 forward 7 unknown #
edge $-1 $208 1 $208 0 $98 $-1 forward 7 unknown #
vertex $-1 $99 $209 #
ellipse-curve $-1 -44.709591831174357 28.226759043592125 5.9881760670731952 0 0.70710678939079041 0.70710677298230451 1 0 0 1 I I #
point $-1 -43.709591831174357 29.764474076754134 7.5258910645523684 #
plane-surface $-1 50.733970152897733 0 0 -1 0 0 0 0 1 forward_v I I I I #
coedge $-1 $107 $105 $109 $164 reversed $62 $-1 #
edge $-1 $120 -9.8509202495467729 $166 9.8509202495467729 $119 $210 forward 7 unknown #
vertex $-1 $164 $211 #
straight-curve $-1 -50.733970152897733 -32.089503207795993 0 0 0 -1 I I #
edge $-1 $162 -32.089503207795993 $166 32.089503207795993 $160 $212 forward 7 unknown #
straight-curve $-1 0 -32.089503207795993 -9.8509202495467729 -1 0 0 I I #
vertex $-1 $112 $213 #
straight-curve $-1 0 32.089503207795993 -9.8509202495467729 1 0 0 I I #
point $-1 50.733970152897733 32.089503207795993 -9.8509202495467729 #
point $-1 50.733970152897733 -32.089503207795993 -9.8509202495467729 #
straight-curve $-1 -50.733970152897733 0 9.8509202495467729 0 -1 0 I I #
point $-1 -50.733970152897733 32.089503207795993 9.8509202495467729 #
point $-1 -50.733970152897733 -32.089503207795993 9.8509202495467729 #
straight-curve $-1 50.733970152897733 -32.089503207795993 0 0 0 -1 I I #
straight-curve $-1 50.733970152897733 32.089503207795993 0 0 0 -1 I I #
face $-1 $214 $184 $10 $-1 $215 reversed single #
loop $-1 $-1 $216 $129 #
plane-surface $-1 0 -32.089503207795993 0 0 1 0 0 0 1 forward_v I I I I #
coedge $-1 $217 $218 $219 $220 forward $130 $-1 #
coedge $-1 $132 $143 $218 $221 reversed $46 $-1 #
coedge $-1 $222 $134 $132 $181 forward $184 $-1 #
edge $-1 $136 -5.200861879557956 $223 9.8509202495467729 $132 $224 forward 7 unknown #
edge $-1 $138 16.330417593863803 $185 28.379174237310554 $140 $225 forward 7 unknown #
coedge $-1 $134 $226 $189 $227 reversed $184 $-1 #
loop $-1 $-1 $134 $175 #
vertex $-1 $227 $228 #
straight-curve $-1 -50.733970152897733 2.6766380020265998 34.613727767855927 0 0.70710677298230462 -0.70710678939079052 I I #
point $-1 -50.733970152897733 32.089503207795993 5.200861879557956 #
point $-1 -38.685213509450982 27.439444945712253 9.8509202495467747 #
coedge $-1 $229 $140 $183 $227 forward $81 $-1 #
coedge $-1 $141 $229 $230 $231 forward $81 $-1 #
coedge $-1 $230 $219 $143 $192 reversed $232 $-1 #
edge $-1 $193 -9.8509202495467729 $233 9.8509202495467729 $191 $234 forward 7 unknown #
vertex $-1 $231 $235 #
straight-curve $-1 0 32.089503207795993 9.8509202495467729 -1 0 0 I I #
face $-1 $236 $237 $11 $-1 $238 reversed single #
loop $-1 $-1 $202 $147 #
plane-surface $-1 0 0 9.8509202495467729 0 0 1 1 0 0 forward_v I I I I #
coedge $-1 $153 $239 $199 $240 forward $148 $-1 #
coedge $-1 $241 $200 $198 $240 reversed $150 $-1 #
coedge $-1 $199 $242 $151 $201 reversed $150 $-1 #
edge $-1 $205 -64.179006415592028 $243 -57.602830879227717 $151 $244 forward 7 unknown #
coedge $-1 $245 $246 $152 $203 forward $196 $-1 #
edge $-1 $206 -2.8611219159042314 $243 1.7889363461795078 $202 $247 forward 7 unknown #
coedge $-1 $248 $153 $246 $249 reversed $148 $-1 #
vertex $-1 $240 $250 #
vertex $-1 $203 $251 #
straight-curve $-1 -38.685213509450982 32.089503207795993 61.16547044158515 0 0 1 I I #
vertex $-1 $155 $252 #
point $-1 -43.709591831174357 28.226759043592125 5.9881760670731952 #
straight-curve $-1 -50.733970152897733 32.089503207795993 0 0 0 -1 I I #
point $-1 -50.733970152897733 -32.089503207795993 -9.8509202495467729 #
straight-curve $-1 -50.733970152897733 0 -9.8509202495467729 0 1 0 I I #
point $-1 -50.733970152897733 32.089503207795993 -9.8509202495467729 #
face $-1 $-1 $232 $10 $-1 $253 reversed single #
plane-surface $-1 -50.733970152897733 0 0 1 0 0 0 0 -1 forward_v I I I I #
coedge $-1 $254 $255 $226 $256 forward $176 $-1 #
coedge $-1 $257 $178 $254 $258 forward $130 $-1 #
coedge $-1 $178 $257 $179 $221 forward $130 $-1 #
coedge $-1 $191 $259 $178 $220 reversed $232 $-1 #
edge $-1 $233 -32.089503207795993 $260 32.089503207795993 $219 $261 forward 7 unknown #
edge $-1 $223 -50.733970152897733 $233 50.733970152897733 $179 $262 forward 7 unknown #
coedge $-1 $226 $180 $257 $263 reversed $184 $-1 #
vertex $-1 $221 $264 #
straight-curve $-1 -50.733970152897733 32.089503207795993 0 0 0 -1 I I #
straight-curve $-1 -22.354795915587179 27.439444945712253 9.8509202495467711 -1 0 0 I I #
coedge $-1 $183 $222 $216 $256 reversed $184 $-1 #
edge $-1 $185 -27.439444945712253 $265 32.089503207795993 $183 $266 forward 7 unknown #
point $-1 -50.733970152897733 27.439444945712253 9.8509202495467747 #
coedge $-1 $190 $189 $255 $267 forward $81 $-1 #
coedge $-1 $259 $191 $190 $231 reversed $232 $-1 #
edge $-1 $268 -32.089503207795993 $193 32.089503207795993 $230 $269 forward 7 unknown #
loop $-1 $-1 $259 $214 #
vertex $-1 $220 $270 #
straight-curve $-1 50.733970152897733 32.089503207795993 0 0 0 -1 I I #
point $-1 50.733970152897733 32.089503207795993 9.8509202495467729 #
face $-1 $271 $272 $11 $-1 $273 reversed single #
loop $-1 $-1 $274 $195 #
plane-surface $-1 0 0 -9.8509202495467729 0 0 1 1 0 0 forward_v I I I I #
coedge $-1 $198 $275 $276 $277 reversed $148 $-1 #
edge $-1 $278 -28.379174237310554 $205 -16.330417593863803 $198 $279 forward 7 unknown #
coedge $-1 $242 $199 $280 $281 reversed $150 $-1 #
coedge $-1 $200 $241 $245 $282 reversed $150 $-1 #
vertex $-1 $282 $283 #
straight-curve $-1 -38.685213509450982 -13.29190691194389 50.582273052378156 0 -0.70710677298230451 0.70710678939079041 I I #
coedge $-1 $284 $202 $242 $282 forward $196 $-1 #
coedge $-1 $202 $285 $204 $249 forward $196 $-1 #
straight-curve $-1 -38.685213509450982 29.228381291891761 9.8509202495467747 0 -1 0 I I #
coedge $-1 $275 $204 $286 $287 forward $148 $-1 #
edge $-1 $288 -50.733970152897733 $206 38.685213509450982 $204 $289 forward 7 unknown #
point $-1 -38.685213509450982 32.089503207795993 5.200861879557948 #
point $-1 -38.685213509450982 32.089503207795993 9.8509202495467729 #
point $-1 -44.709591831174357 27.519652254201333 5.2810692940908899 #
plane-surface $-1 50.733970152897733 0 0 -1 0 0 0 0 1 forward_v I I I I #
coedge $-1 $290 $216 $217 $258 reversed $176 $-1 #
coedge $-1 $216 $290 $229 $267 reversed $176 $-1 #
edge $-1 $265 -9.8509202495467729 $291 9.8509202495467729 $226 $292 forward 7 unknown #
coedge $-1 $218 $217 $222 $263 forward $130 $-1 #
edge $-1 $260 -50.733970152897733 $291 50.733970152897733 $254 $293 forward 7 unknown #
coedge $-1 $219 $230 $290 $294 forward $232 $-1 #
vertex $-1 $294 $295 #
straight-curve $-1 50.733970152897733 0 -9.8509202495467729 0 -1 0 I I #
straight-curve $-1 0 32.089503207795993 -9.8509202495467729 1 0 0 I I #
edge $-1 $291 -32.089503207795993 $223 32.089503207795993 $222 $296 forward 7 unknown #
point $-1 -50.733970152897733 32.089503207795993 -9.8509202495467729 #
vertex $-1 $227 $297 #
straight-curve $-1 -50.733970152897733 0 9.8509202495467729 0 -1 0 I I #
edge $-1 $265 -50.733970152897733 $268 50.733970152897733 $255 $298 forward 7 unknown #
vertex $-1 $231 $299 #
straight-curve $-1 50.733970152897733 0 9.8509202495467729 0 1 0 I I #
point $-1 50.733970152897733 32.089503207795993 -9.8509202495467729 #
face $-1 $300 $301 $11 $-1 $302 reversed single #
loop $-1 $-1 $303 $236 #
plane-surface $-1 0 -32.089503207795993 0 0 1 0 0 0 1 forward_v I I I I #
coedge $-1 $304 $305 $306 $307 forward $237 $-1 #
coedge $-1 $239 $248 $305 $308 reversed $148 $-1 #
coedge $-1 $309 $280 $239 $277 forward $301 $-1 #
edge $-1 $278 -5.200861879557956 $310 9.8509202495467729 $239 $311 forward 7 unknown #
vertex $-1 $277 $312 #
straight-curve $-1 -22.354795915587179 32.089503207795993 5.2008618795579515 1 0 0 I I #
coedge $-1 $276 $313 $241 $281 forward $301 $-1 #
edge $-1 $314 35.019897828507084 $278 41.596073364871387 $280 $315 forward 7 unknown #
edge $-1 $243 16.330417593863803 $314 28.379174237310554 $245 $316 forward 7 unknown #
point $-1 -38.685213509450982 27.439444945712253 9.8509202495467747 #
coedge $-1 $317 $245 $313 $318 forward $196 $-1 #
coedge $-1 $246 $317 $319 $320 forward $196 $-1 #
coedge $-1 $319 $306 $248 $287 reversed $321 $-1 #
edge $-1 $288 -9.8509202495467729 $322 9.8509202495467729 $286 $323 forward 7 unknown #
vertex $-1 $320 $324 #
straight-curve $-1 0 32.089503207795993 9.8509202495467729 -1 0 0 I I #
coedge $-1 $255 $254 $259 $294 reversed $176 $-1 #
vertex $-1 $263 $325 #
straight-curve $-1 -50.733970152897733 -32.089503207795993 0 0 0 -1 I I #
straight-curve $-1 0 -32.089503207795993 -9.8509202495467729 -1 0 0 I I #
edge $-1 $268 -9.8509202495467729 $260 9.8509202495467729 $259 $326 forward 7 unknown #
point $-1 50.733970152897733 -32.089503207795993 -9.8509202495467729 #
straight-curve $-1 -50.733970152897733 0 -9.8509202495467729 0 1 0 I I #
point $-1 -50.733970152897733 -32.089503207795993 9.8509202495467729 #
straight-curve $-1 0 -32.089503207795993 9.8509202495467729 1 0 0 I I #
point $-1 50.733970152897733 -32.089503207795993 9.8509202495467729 #
face $-1 $-1 $321 $11 $-1 $327 reversed single #
loop $-1 $-1 $280 $271 #
plane-surface $-1 -50.733970152897733 0 0 1 0 0 0 0 -1 forward_v I I I I #
coedge $-1 $328 $329 $330 $331 forward $272 $-1 #
coedge $-1 $332 $274 $328 $333 forward $237 $-1 #
coedge $-1 $274 $332 $275 $308 forward $237 $-1 #
coedge $-1 $286 $334 $274 $307 reversed $321 $-1 #
edge $-1 $322 -32.089503207795993 $335 32.089503207795993 $306 $336 forward 7 unknown #
edge $-1 $310 -50.733970152897733 $322 50.733970152897733 $275 $337 forward 7 unknown #
coedge $-1 $330 $276 $332 $338 reversed $301 $-1 #
vertex $-1 $308 $339 #
straight-curve $-1 -50.733970152897733 32.089503207795993 0 0 0 -1 I I #
point $-1 -50.733970152897733 32.089503207795993 5.200861879557956 #
coedge $-1 $280 $330 $284 $318 reversed $301 $-1 #
vertex $-1 $318 $340 #
straight-curve $-1 -50.733970152897733 2.6766380020265998 34.613727767855927 0 0.70710677298230462 -0.70710678939079052 I I #
straight-curve $-1 -22.354795915587179 27.439444945712253 9.8509202495467711 -1 0 0 I I #
coedge $-1 $285 $284 $329 $341 forward $196 $-1 #
edge $-1 $314 -27.439444945712253 $342 32.089503207795993 $313 $343 forward 7 unknown #
coedge $-1 $334 $286 $285 $320 reversed $321 $-1 #
edge $-1 $344 -32.089503207795993 $288 32.089503207795993 $319 $345 forward 7 unknown #
loop $-1 $-1 $334 $300 #
vertex $-1 $307 $346 #
straight-curve $-1 50.733970152897733 32.089503207795993 0 0 0 -1 I I #
point $-1 50.733970152897733 32.089503207795993 9.8509202495467729 #
point $-1 -50.733970152897733 -32.089503207795993 -9.8509202495467729 #
straight-curve $-1 50.733970152897733 -32.089503207795993 0 0 0 -1 I I #
plane-surface $-1 50.733970152897733 0 0 -1 0 0 0 0 1 forward_v I I I I #
coedge $-1 $347 $303 $304 $333 reversed $272 $-1 #
coedge $-1 $303 $347 $317 $341 reversed $272 $-1 #
coedge $-1 $313 $309 $303 $331 reversed $301 $-1 #
edge $-1 $342 -9.8509202495467729 $348 9.8509202495467729 $330 $349 forward 7 unknown #
coedge $-1 $305 $304 $309 $338 forward $237 $-1 #
edge $-1 $335 -50.733970152897733 $348 50.733970152897733 $328 $350 forward 7 unknown #
coedge $-1 $306 $319 $347 $351 forward $321 $-1 #
vertex $-1 $351 $352 #
straight-curve $-1 50.733970152897733 0 -9.8509202495467729 0 -1 0 I I #
straight-curve $-1 0 32.089503207795993 -9.8509202495467729 1 0 0 I I #
edge $-1 $348 -32.089503207795993 $310 32.089503207795993 $309 $353 forward 7 unknown #
point $-1 -50.733970152897733 32.089503207795993 -9.8509202495467729 #
point $-1 -50.733970152897733 27.439444945712253 9.8509202495467747 #
edge $-1 $342 -50.733970152897733 $344 50.733970152897733 $329 $354 forward 7 unknown #
vertex $-1 $318 $355 #
straight-curve $-1 -50.733970152897733 0 9.8509202495467729 0 -1 0 I I #
vertex $-1 $320 $356 #
straight-curve $-1 50.733970152897733 0 9.8509202495467729 0 1 0 I I #
point $-1 50.733970152897733 32.089503207795993 -9.8509202495467729 #
coedge $-1 $329 $328 $334 $351 reversed $272 $-1 #
vertex $-1 $338 $357 #
straight-curve $-1 -50.733970152897733 -32.089503207795993 0 0 0 -1 I I #
straight-curve $-1 0 -32.089503207795993 -9.8509202495467729 -1 0 0 I I #
edge $-1 $344 -9.8509202495467729 $335 9.8509202495467729 $334 $358 forward 7 unknown #
point $-1 50.733970152897733 -32.089503207795993 -9.8509202495467729 #
straight-curve $-1 -50.733970152897733 0 -9.8509202495467729 0 1 0 I I #
straight-curve $-1 0 -32.089503207795993 9.8509202495467729 1 0 0 I I #
point $-1 -50.733970152897733 -32.089503207795993 9.8509202495467729 #
point $-1 50.733970152897733 -32.089503207795993 9.8509202495467729 #
point $-1 -50.733970152897733 -32.089503207795993 -9.8509202495467729 #
straight-curve $-1 50.733970152897733 -32.089503207795993 0 0 0 -1 I I #
End-of-ACIS-data 