500 0 10 0           
7 Unknown 11 ACIS 5.0 NT 24 Fri Mar 26 17:46:47 1999 
-1 9.9999999999999995e-007 1e-010 
body $-1 $10 $-1 $11 #
body $-1 $12 $-1 $13 #
body $-1 $14 $-1 $15 #
body $-1 $16 $-1 $17 #
body $-1 $18 $-1 $19 #
body $-1 $20 $-1 $21 #
body $-1 $22 $-1 $23 #
body $-1 $24 $-1 $25 #
body $-1 $26 $-1 $27 #
body $-1 $28 $-1 $29 #
lump $-1 $-1 $30 $0 #
transform $-1 1 0 0 0 1 0 0 0 1 75.201269569994196 49.061329381746262 20.082848746129471 1 rotate no_reflect no_shear #
lump $-1 $-1 $31 $1 #
transform $-1 1 0 0 0 1 0 0 0 1 75.201269569994196 49.061329381746262 20.082848746129471 1 rotate no_reflect no_shear #
lump $-1 $-1 $32 $2 #
transform $-1 1 0 0 0 1 0 0 0 1 75.201269569994196 49.061329381746262 20.082848746129471 1 rotate no_reflect no_shear #
lump $-1 $-1 $33 $3 #
transform $-1 1 0 0 0 1 0 0 0 1 75.201269569994196 49.061329381746262 20.082848746129471 1 rotate no_reflect no_shear #
lump $-1 $-1 $34 $4 #
transform $-1 1 0 0 0 1 0 0 0 1 75.201269569994196 49.061329381746262 20.082848746129471 1 rotate no_reflect no_shear #
lump $-1 $-1 $35 $5 #
transform $-1 1 0 0 0 1 0 0 0 1 75.201269569994196 49.061329381746262 20.082848746129471 1 rotate no_reflect no_shear #
lump $-1 $-1 $36 $6 #
transform $-1 1 0 0 0 1 0 0 0 1 75.201269569994196 49.061329381746262 20.082848746129471 1 rotate no_reflect no_shear #
lump $-1 $-1 $37 $7 #
transform $-1 1 0 0 0 1 0 0 0 1 75.201269569994196 49.061329381746262 20.082848746129471 1 rotate no_reflect no_shear #
lump $-1 $-1 $38 $8 #
transform $-1 1 0 0 0 1 0 0 0 1 75.201269569994196 49.061329381746262 20.082848746129471 1 rotate no_reflect no_shear #
lump $-1 $-1 $39 $9 #
transform $-1 1 0 0 0 1 0 0 0 1 75.201269569994196 49.061329381746262 20.082848746129471 1 rotate no_reflect no_shear #
shell $-1 $-1 $-1 $40 $-1 $10 #
shell $-1 $-1 $-1 $41 $-1 $12 #
shell $-1 $-1 $-1 $42 $-1 $14 #
shell $-1 $-1 $-1 $43 $-1 $16 #
shell $-1 $-1 $-1 $44 $-1 $18 #
shell $-1 $-1 $-1 $45 $-1 $20 #
shell $-1 $-1 $-1 $46 $-1 $22 #
shell $-1 $-1 $-1 $47 $-1 $24 #
shell $-1 $-1 $-1 $48 $-1 $26 #
shell $-1 $-1 $-1 $49 $-1 $28 #
face $-1 $50 $51 $30 $-1 $52 forward single #
face $-1 $53 $54 $31 $-1 $55 forward single #
face $-1 $56 $57 $32 $-1 $58 reversed single #
face $-1 $59 $60 $33 $-1 $61 forward single #
face $-1 $62 $63 $34 $-1 $64 reversed single #
face $-1 $65 $66 $35 $-1 $67 forward single #
face $-1 $68 $69 $36 $-1 $70 reversed single #
face $-1 $71 $72 $37 $-1 $73 forward single #
face $-1 $74 $75 $38 $-1 $76 reversed single #
face $-1 $77 $78 $39 $-1 $79 forward single #
face $-1 $80 $81 $30 $-1 $82 reversed single #
loop $-1 $-1 $83 $40 #
plane-surface $-1 0 0 20.082848746129471 0 0 1 1 0 0 forward_v I I I I #
face $-1 $84 $85 $31 $-1 $86 reversed single #
loop $-1 $-1 $87 $41 #
plane-surface $-1 0 -39.772090956500207 14.82101910879388 0 0 1 1 0 0 forward_v I I I I #
face $-1 $88 $89 $32 $-1 $90 reversed single #
loop $-1 $-1 $91 $42 #
plane-surface $-1 -169.85265549179974 -8.2004314563544227 118.22457665277766 0 1 0 -0.62932039886446345 0 0.77714595512881146 forward_v I I I I #
face $-1 $92 $93 $33 $-1 $94 forward single #
loop $-1 $95 $96 $43 #
cone-surface $-1 -62.743347298171791 0.54440348444581588 9.6183605113325132 0.62932039886446345 0 -0.77714595512881146 1.5542919102576229 0 1.2586407977289269 1 I I 0 1 2 forward I I I I #
face $-1 $97 $98 $34 $-1 $99 reversed single #
loop $-1 $-1 $100 $44 #
plane-surface $-1 -75.201269569994167 0.54440348444581588 1.3398517190329358 -0.62932039886446345 0 0.77714595512881146 0.77714595512881146 0 0.62932039886446345 forward_v I I I I #
face $-1 $101 $102 $35 $-1 $103 forward single #
loop $-1 $104 $105 $45 #
cone-surface $-1 -62.743347298171791 18.034073366046286 9.6183605113325132 0.62932039886446345 0 -0.77714595512881146 1.5542919102576229 0 1.2586407977289269 1 I I 0 1 2 forward I I I I #
face $-1 $106 $107 $36 $-1 $108 reversed single #
loop $-1 $-1 $109 $46 #
plane-surface $-1 52.967930558055031 9.2892384252460545 212.87596257458324 0 -1 0 -0.62932039886446345 0 -0.77714595512881146 forward_v I I I I #
face $-1 $110 $111 $37 $-1 $112 forward single #
loop $-1 $113 $114 $47 #
cone-surface $-1 62.743347298171805 0.54440348444581588 9.6183605113325061 -0.62932039886446345 0 -0.77714595512881146 1.5542919102576229 0 -1.2586407977289269 1 I I 0 1 2 forward I I I I #
face $-1 $115 $116 $38 $-1 $117 reversed single #
loop $-1 $-1 $118 $48 #
plane-surface $-1 52.967930558055031 26.778908306846525 212.87596257458324 0 -1 0 -0.62932039886446345 0 -0.77714595512881146 forward_v I I I I #
face $-1 $119 $120 $39 $-1 $121 forward single #
loop $-1 $122 $123 $49 #
cone-surface $-1 62.743347298171805 18.034073366046286 9.6183605113325061 -0.62932039886446345 0 -0.77714595512881146 1.5542919102576229 0 -1.2586407977289269 1 I I 0 1 2 forward I I I I #
face $-1 $124 $125 $30 $-1 $126 reversed single #
loop $-1 $-1 $127 $50 #
plane-surface $-1 0 0 -20.082848746129471 0 0 1 1 0 0 forward_v I I I I #
coedge $-1 $128 $129 $130 $131 forward $51 $-1 #
face $-1 $132 $133 $31 $-1 $134 reversed single #
loop $-1 $-1 $135 $53 #
plane-surface $-1 0 -39.772090956500207 9.9066754759860167 0 0 1 1 0 0 forward_v I I I I #
coedge $-1 $136 $137 $138 $139 reversed $54 $-1 #
face $-1 $140 $141 $32 $-1 $142 reversed single #
loop $-1 $-1 $143 $56 #
plane-surface $-1 -75.201269569994167 0.54440348444581588 1.3398517190329358 -0.62932039886446345 0 0.77714595512881146 0.77714595512881146 0 0.62932039886446345 forward_v I I I I #
coedge $-1 $144 $145 $146 $147 reversed $57 $-1 #
face $-1 $-1 $148 $33 $-1 $149 forward single #
loop $-1 $150 $151 $59 #
cone-surface $-1 -61.228941256396169 0.54440348444581588 7.7482248349550034 0.62932039886446345 0 -0.77714595512881146 0.77714595512881146 0 0.62932039886446345 1 I I -0.70710678118654746 0.70710678118654746 1 forward I I I I #
loop $-1 $-1 $152 $43 #
coedge $-1 $96 $96 $153 $154 reversed $60 $-1 #
face $-1 $155 $156 $34 $-1 $157 forward single #
loop $-1 $-1 $158 $62 #
plane-surface $-1 -169.85265549179974 26.778908306846525 118.22457665277766 0 -1 0 0.62932039886446345 0 -0.77714595512881146 forward_v I I I I #
coedge $-1 $159 $160 $161 $162 reversed $63 $-1 #
face $-1 $-1 $163 $35 $-1 $164 forward single #
loop $-1 $165 $166 $65 #
cone-surface $-1 -61.228941256396169 18.034073366046286 7.7482248349550034 0.62932039886446345 0 -0.77714595512881146 0.77714595512881146 0 0.62932039886446345 1 I I -0.70710678118654746 0.70710678118654746 1 forward I I I I #
loop $-1 $-1 $167 $45 #
coedge $-1 $105 $105 $168 $169 reversed $66 $-1 #
face $-1 $170 $171 $36 $-1 $172 reversed single #
loop $-1 $-1 $173 $68 #
plane-surface $-1 -41.683455363750539 0.54440348444581588 95.99123764083852 0.62932039886446345 0 0.77714595512881146 0.77714595512881146 0 -0.62932039886446345 forward_v I I I I #
coedge $-1 $174 $175 $176 $177 reversed $69 $-1 #
face $-1 $-1 $178 $37 $-1 $179 forward single #
loop $-1 $180 $181 $71 #
cone-surface $-1 61.228941256396183 0.54440348444581588 7.7482248349549963 -0.62932039886446345 0 -0.77714595512881146 0.77714595512881146 0 -0.62932039886446345 1 I I -0.70710678118654746 0.70710678118654746 1 forward I I I I #
loop $-1 $-1 $182 $47 #
coedge $-1 $114 $114 $183 $184 reversed $72 $-1 #
face $-1 $185 $186 $38 $-1 $187 reversed single #
loop $-1 $-1 $188 $74 #
plane-surface $-1 -41.683455363750539 0.54440348444581588 95.99123764083852 0.62932039886446345 0 0.77714595512881146 0.77714595512881146 0 -0.62932039886446345 forward_v I I I I #
coedge $-1 $189 $190 $191 $192 reversed $75 $-1 #
face $-1 $-1 $193 $39 $-1 $194 forward single #
loop $-1 $195 $196 $77 #
cone-surface $-1 61.228941256396183 18.034073366046286 7.7482248349549963 -0.62932039886446345 0 -0.77714595512881146 0.77714595512881146 0 -0.62932039886446345 1 I I -0.70710678118654746 0.70710678118654746 1 forward I I I I #
loop $-1 $-1 $197 $49 #
coedge $-1 $123 $123 $198 $199 reversed $78 $-1 #
face $-1 $200 $201 $30 $-1 $202 reversed single #
loop $-1 $-1 $203 $80 #
plane-surface $-1 0 -49.061329381746262 0 0 1 0 0 0 1 forward_v I I I I #
coedge $-1 $204 $205 $206 $207 forward $81 $-1 #
coedge $-1 $208 $83 $209 $210 forward $51 $-1 #
coedge $-1 $83 $208 $211 $212 forward $51 $-1 #
coedge $-1 $213 $214 $83 $131 reversed $215 $-1 #
edge $-1 $216 -49.061329381746262 $217 49.061329381746262 $130 $218 forward 7 unknown #
face $-1 $219 $220 $31 $-1 $221 reversed single #
loop $-1 $-1 $222 $84 #
plane-surface $-1 0 -30.482852531254157 12.363847292389949 0 -1 0 0 0 -1 forward_v I I I I #
coedge $-1 $223 $224 $225 $226 reversed $85 $-1 #
coedge $-1 $227 $87 $228 $229 forward $54 $-1 #
coedge $-1 $87 $227 $230 $231 reversed $54 $-1 #
coedge $-1 $232 $233 $87 $139 forward $234 $-1 #
edge $-1 $235 10.596807053004053 $236 29.175283903496158 $138 $237 forward 7 unknown #
face $-1 $238 $239 $32 $-1 $240 reversed single #
loop $-1 $-1 $241 $88 #
plane-surface $-1 -169.85265549179974 9.2892384252460545 118.22457665277766 0 -1 0 0.62932039886446345 0 -0.77714595512881146 forward_v I I I I #
coedge $-1 $242 $243 $244 $245 reversed $89 $-1 #
coedge $-1 $145 $91 $246 $247 reversed $57 $-1 #
coedge $-1 $91 $144 $242 $248 reversed $57 $-1 #
coedge $-1 $244 $249 $91 $147 forward $250 $-1 #
edge $-1 $251 9.7250581759056729 $252 32.870731433728217 $146 $253 forward 7 unknown #
loop $-1 $-1 $153 $92 #
plane-surface $-1 -75.201269569994167 0.54440348444581588 1.3398517190329358 -0.62932039886446345 0 0.77714595512881146 0.77714595512881146 0 0.62932039886446345 forward_v I I I I #
loop $-1 $-1 $254 $59 #
coedge $-1 $151 $151 $152 $255 reversed $93 $-1 #
coedge $-1 $152 $152 $151 $255 forward $95 $-1 #
coedge $-1 $153 $153 $96 $154 forward $148 $-1 #
edge $-1 $256 0 $256 6.2831853071796004 $153 $257 forward 7 unknown #
face $-1 $258 $259 $34 $-1 $260 forward single #
loop $-1 $-1 $261 $97 #
plane-surface $-1 0 0 20.082848746129471 0 0 1 1 0 0 forward_v I I I I #
coedge $-1 $262 $263 $264 $265 reversed $98 $-1 #
coedge $-1 $266 $100 $267 $268 reversed $63 $-1 #
coedge $-1 $100 $266 $261 $269 reversed $63 $-1 #
coedge $-1 $270 $271 $100 $162 forward $259 $-1 #
edge $-1 $272 -3.6620485252745651e-014 $273 29.782916716057713 $161 $274 forward 7 unknown #
loop $-1 $-1 $168 $101 #
plane-surface $-1 -75.201269569994167 0.54440348444581588 1.3398517190329358 -0.62932039886446345 0 0.77714595512881146 0.77714595512881146 0 0.62932039886446345 forward_v I I I I #
loop $-1 $-1 $275 $65 #
coedge $-1 $166 $166 $167 $276 reversed $102 $-1 #
coedge $-1 $167 $167 $166 $276 forward $104 $-1 #
coedge $-1 $168 $168 $105 $169 forward $163 $-1 #
edge $-1 $277 0 $277 6.2831853071796004 $168 $278 forward 7 unknown #
face $-1 $279 $280 $36 $-1 $281 forward single #
loop $-1 $-1 $282 $106 #
plane-surface $-1 52.967930558055031 -8.2004314563544227 212.87596257458324 0 1 0 0.62932039886446345 0 0.77714595512881146 forward_v I I I I #
coedge $-1 $283 $284 $285 $286 reversed $107 $-1 #
coedge $-1 $175 $109 $287 $288 reversed $69 $-1 #
coedge $-1 $109 $174 $283 $289 reversed $69 $-1 #
coedge $-1 $285 $290 $109 $177 forward $280 $-1 #
edge $-1 $291 -48.71730429096668 $292 -25.571631033144186 $176 $293 forward 7 unknown #
loop $-1 $-1 $183 $110 #
plane-surface $-1 -41.683455363750539 0.54440348444581588 95.99123764083852 0.62932039886446345 0 0.77714595512881146 0.77714595512881146 0 -0.62932039886446345 forward_v I I I I #
loop $-1 $-1 $294 $71 #
coedge $-1 $181 $181 $182 $295 reversed $111 $-1 #
coedge $-1 $182 $182 $181 $295 forward $113 $-1 #
coedge $-1 $183 $183 $114 $184 forward $178 $-1 #
edge $-1 $296 0 $296 6.2831853071796004 $183 $297 forward 7 unknown #
face $-1 $298 $299 $38 $-1 $300 forward single #
loop $-1 $-1 $301 $115 #
plane-surface $-1 75.201269569994196 0 0 -1 0 0 0 0 1 forward_v I I I I #
coedge $-1 $302 $303 $304 $305 reversed $116 $-1 #
coedge $-1 $190 $118 $306 $307 reversed $75 $-1 #
coedge $-1 $118 $189 $308 $309 reversed $75 $-1 #
coedge $-1 $310 $301 $118 $192 forward $186 $-1 #
edge $-1 $311 -105.09812956825867 $312 -86.355132541162149 $191 $313 forward 7 unknown #
loop $-1 $-1 $198 $119 #
plane-surface $-1 -41.683455363750539 0.54440348444581588 95.99123764083852 0.62932039886446345 0 0.77714595512881146 0.77714595512881146 0 -0.62932039886446345 forward_v I I I I #
loop $-1 $-1 $314 $77 #
coedge $-1 $196 $196 $197 $315 reversed $120 $-1 #
coedge $-1 $197 $197 $196 $315 forward $122 $-1 #
coedge $-1 $198 $198 $123 $199 forward $193 $-1 #
edge $-1 $316 0 $316 6.2831853071796004 $198 $317 forward 7 unknown #
face $-1 $318 $319 $30 $-1 $320 reversed single #
loop $-1 $-1 $321 $124 #
plane-surface $-1 -75.201269569994196 0 0 1 0 0 0 0 -1 forward_v I I I I #
coedge $-1 $322 $211 $323 $324 forward $125 $-1 #
coedge $-1 $325 $127 $322 $326 forward $81 $-1 #
coedge $-1 $127 $325 $327 $328 forward $81 $-1 #
coedge $-1 $214 $213 $127 $207 reversed $215 $-1 #
edge $-1 $329 -49.061329381746262 $330 49.061329381746262 $206 $331 forward 7 unknown #
coedge $-1 $129 $128 $332 $333 forward $51 $-1 #
coedge $-1 $334 $335 $128 $210 reversed $319 $-1 #
edge $-1 $217 -75.201269569994196 $336 75.201269569994196 $209 $337 forward 7 unknown #
coedge $-1 $203 $338 $129 $212 reversed $125 $-1 #
edge $-1 $339 -75.201269569994196 $216 75.201269569994196 $211 $340 forward 7 unknown #
coedge $-1 $206 $130 $338 $341 forward $215 $-1 #
coedge $-1 $130 $206 $334 $342 reversed $215 $-1 #
loop $-1 $-1 $213 $318 #
vertex $-1 $131 $343 #
vertex $-1 $131 $344 #
straight-curve $-1 75.201269569994196 0 20.082848746129471 0 1 0 I I #
face $-1 $345 $346 $31 $-1 $347 reversed single #
loop $-1 $-1 $348 $132 #
plane-surface $-1 -75.201269569994196 0 0 1 0 0 0 0 -1 forward_v I I I I #
coedge $-1 $349 $228 $233 $350 reversed $133 $-1 #
coedge $-1 $351 $135 $352 $353 reversed $85 $-1 #
coedge $-1 $135 $351 $349 $354 forward $85 $-1 #
coedge $-1 $233 $232 $135 $226 forward $234 $-1 #
edge $-1 $355 -29.175283903496158 $356 -10.596807053004053 $225 $357 forward 7 unknown #
coedge $-1 $137 $136 $348 $358 reversed $54 $-1 #
coedge $-1 $222 $359 $136 $229 reversed $133 $-1 #
edge $-1 $235 -75.201269569994196 $360 75.201269569994196 $228 $361 forward 7 unknown #
coedge $-1 $362 $363 $137 $231 forward $346 $-1 #
edge $-1 $236 -75.201269569994196 $364 75.201269569994196 $230 $365 forward 7 unknown #
coedge $-1 $225 $138 $363 $366 forward $234 $-1 #
coedge $-1 $138 $225 $222 $350 forward $234 $-1 #
loop $-1 $-1 $138 $345 #
vertex $-1 $139 $367 #
vertex $-1 $366 $368 #
straight-curve $-1 75.201269569994196 -19.886045478250104 14.82101910879388 0 -1 0 I I #
face $-1 $-1 $250 $32 $-1 $369 forward single #
loop $-1 $-1 $370 $140 #
plane-surface $-1 -75.201269569994196 0 0 1 0 0 0 0 -1 forward_v I I I I #
coedge $-1 $371 $372 $373 $374 reversed $141 $-1 #
coedge $-1 $375 $143 $145 $248 forward $89 $-1 #
coedge $-1 $143 $375 $371 $376 forward $89 $-1 #
coedge $-1 $373 $146 $143 $245 forward $250 $-1 #
edge $-1 $252 -8.4726331985773307 $377 9.0170366830231465 $244 $378 forward 7 unknown #
coedge $-1 $379 $380 $144 $247 forward $239 $-1 #
edge $-1 $381 -57.772436607355914 $251 -39.029439580259357 $246 $382 forward 7 unknown #
edge $-1 $252 -29.782916716057713 $381 3.6620485252745651e-014 $145 $383 forward 7 unknown #
coedge $-1 $146 $373 $379 $384 forward $250 $-1 #
loop $-1 $-1 $373 $238 #
vertex $-1 $247 $385 #
vertex $-1 $147 $386 #
straight-curve $-1 -84.926327745899869 -8.2004314563544227 20.082848746129471 1 0 0 I I #
coedge $-1 $254 $254 $-1 $387 reversed $150 $-1 #
edge $-1 $388 0 $388 6.2831853071796004 $151 $389 forward 7 unknown #
vertex $-1 $154 $390 #
ellipse-curve $-1 -63.628432941082927 0.54440348444581588 10.711350232581188 -0.62932039886446345 0 0.77714595512881146 1.5542919102576229 0 1.2586407977289269 1 I I #
face $-1 $-1 $391 $34 $-1 $392 reversed single #
loop $-1 $-1 $270 $155 #
plane-surface $-1 -169.85265549179974 9.2892384252460545 118.22457665277766 0 -1 0 0.62932039886446345 0 -0.77714595512881146 forward_v I I I I #
coedge $-1 $264 $393 $160 $269 forward $156 $-1 #
coedge $-1 $263 $158 $266 $394 reversed $98 $-1 #
coedge $-1 $158 $262 $395 $396 reversed $98 $-1 #
coedge $-1 $397 $261 $158 $265 forward $156 $-1 #
edge $-1 $398 -32.870731433728217 $399 -9.7250581759056729 $264 $400 forward 7 unknown #
coedge $-1 $160 $159 $262 $394 forward $63 $-1 #
coedge $-1 $401 $395 $159 $268 forward $391 $-1 #
edge $-1 $402 -26.506706564623617 $272 -9.0170366830231465 $267 $403 forward 7 unknown #
edge $-1 $273 9.0170366830231465 $398 26.506706564623617 $261 $404 forward 7 unknown #
coedge $-1 $271 $161 $393 $405 reversed $259 $-1 #
coedge $-1 $161 $270 $401 $406 reversed $259 $-1 #
vertex $-1 $268 $407 #
vertex $-1 $269 $408 #
straight-curve $-1 -75.201269569994167 9.2892384252460545 1.3398517190329358 0.77714595512881146 0 0.62932039886446345 I I #
coedge $-1 $275 $275 $-1 $409 reversed $165 $-1 #
edge $-1 $410 0 $410 6.2831853071796004 $166 $411 forward 7 unknown #
vertex $-1 $169 $412 #
ellipse-curve $-1 -63.628432941082927 18.034073366046286 10.711350232581188 -0.62932039886446345 0 0.77714595512881146 1.5542919102576229 0 1.2586407977289269 1 I I #
face $-1 $-1 $413 $36 $-1 $414 reversed single #
loop $-1 $-1 $176 $170 #
plane-surface $-1 0 0 20.082848746129471 0 0 1 1 0 0 forward_v I I I I #
coedge $-1 $415 $416 $417 $418 reversed $171 $-1 #
coedge $-1 $419 $173 $175 $289 forward $107 $-1 #
coedge $-1 $173 $419 $415 $420 forward $107 $-1 #
coedge $-1 $417 $176 $173 $286 forward $280 $-1 #
edge $-1 $292 -9.0170366830231465 $421 8.4726331985773307 $285 $422 forward 7 unknown #
coedge $-1 $423 $424 $174 $288 forward $413 $-1 #
edge $-1 $425 -105.09812956825867 $291 -86.355132541162149 $287 $426 forward 7 unknown #
edge $-1 $292 120.61962242393071 $425 150.40253913998839 $175 $427 forward 7 unknown #
coedge $-1 $176 $417 $423 $428 forward $280 $-1 #
vertex $-1 $288 $429 #
vertex $-1 $177 $430 #
straight-curve $-1 26.483965279027515 9.2892384252460545 20.082848746129471 -1 0 0 I I #
coedge $-1 $294 $294 $-1 $431 reversed $180 $-1 #
edge $-1 $432 0 $432 6.2831853071796004 $181 $433 forward 7 unknown #
vertex $-1 $184 $434 #
ellipse-curve $-1 63.628432941082949 0.54440348444581588 10.711350232581186 0.62932039886446345 0 0.77714595512881146 1.5542919102576229 0 -1.2586407977289269 1 I I #
face $-1 $-1 $435 $38 $-1 $436 forward single #
loop $-1 $-1 $437 $185 #
plane-surface $-1 52.967930558055031 9.2892384252460545 212.87596257458324 0 -1 0 -0.62932039886446345 0 -0.77714595512881146 forward_v I I I I #
coedge $-1 $191 $438 $303 $439 forward $186 $-1 #
coedge $-1 $306 $188 $440 $441 reversed $116 $-1 #
coedge $-1 $188 $306 $301 $439 reversed $116 $-1 #
coedge $-1 $442 $437 $188 $305 forward $299 $-1 #
edge $-1 $443 120.61962242393071 $444 150.40253913998839 $304 $445 forward 7 unknown #
coedge $-1 $303 $302 $189 $307 forward $116 $-1 #
edge $-1 $446 120.61962242393071 $311 150.40253913998839 $189 $447 forward 7 unknown #
coedge $-1 $440 $448 $190 $309 forward $435 $-1 #
edge $-1 $312 -48.71730429096668 $446 -25.571631033144186 $308 $449 forward 7 unknown #
coedge $-1 $438 $191 $448 $450 reversed $186 $-1 #
vertex $-1 $192 $451 #
vertex $-1 $192 $452 #
straight-curve $-1 75.201269569994196 26.778908306846525 106.43798128729162 0 0 1 I I #
coedge $-1 $314 $314 $-1 $453 reversed $195 $-1 #
edge $-1 $454 0 $454 6.2831853071796004 $196 $455 forward 7 unknown #
vertex $-1 $199 $456 #
ellipse-curve $-1 63.628432941082949 18.034073366046286 10.711350232581186 0.62932039886446345 0 0.77714595512881146 1.5542919102576229 0 -1.2586407977289269 1 I I #
face $-1 $-1 $215 $30 $-1 $457 reversed single #
loop $-1 $-1 $334 $200 #
plane-surface $-1 0 49.061329381746262 0 0 -1 0 0 0 -1 forward_v I I I I #
coedge $-1 $458 $332 $335 $459 forward $201 $-1 #
coedge $-1 $338 $203 $204 $326 reversed $125 $-1 #
coedge $-1 $332 $458 $203 $324 reversed $201 $-1 #
edge $-1 $339 -20.082848746129471 $460 20.082848746129471 $323 $461 forward 7 unknown #
coedge $-1 $205 $204 $458 $462 forward $81 $-1 #
edge $-1 $330 -75.201269569994196 $460 75.201269569994196 $322 $463 forward 7 unknown #
coedge $-1 $335 $334 $205 $328 reversed $319 $-1 #
edge $-1 $464 -75.201269569994196 $329 75.201269569994196 $327 $465 forward 7 unknown #
vertex $-1 $207 $466 #
vertex $-1 $341 $467 #
straight-curve $-1 75.201269569994196 0 -20.082848746129471 0 -1 0 I I #
coedge $-1 $321 $323 $208 $333 reversed $201 $-1 #
edge $-1 $336 -49.061329381746262 $339 49.061329381746262 $332 $468 forward 7 unknown #
coedge $-1 $327 $209 $214 $342 forward $319 $-1 #
coedge $-1 $209 $327 $321 $459 reversed $319 $-1 #
vertex $-1 $210 $469 #
straight-curve $-1 0 49.061329381746262 20.082848746129471 -1 0 0 I I #
coedge $-1 $211 $322 $213 $341 reversed $125 $-1 #
vertex $-1 $333 $470 #
straight-curve $-1 0 -49.061329381746262 20.082848746129471 1 0 0 I I #
edge $-1 $216 -20.082848746129471 $330 20.082848746129471 $213 $471 forward 7 unknown #
edge $-1 $217 -20.082848746129471 $329 20.082848746129471 $214 $472 forward 7 unknown #
point $-1 75.201269569994196 -49.061329381746262 20.082848746129471 #
point $-1 75.201269569994196 49.061329381746262 20.082848746129471 #
face $-1 $-1 $234 $31 $-1 $473 reversed single #
loop $-1 $-1 $230 $219 #
plane-surface $-1 0 -49.061329381746262 0 0 1 0 0 0 1 forward_v I I I I #
coedge $-1 $474 $475 $227 $358 forward $220 $-1 #
coedge $-1 $359 $222 $224 $354 reversed $133 $-1 #
edge $-1 $356 3.7247518297910425 $235 8.639095462598906 $233 $476 forward 7 unknown #
coedge $-1 $224 $223 $477 $478 reversed $85 $-1 #
coedge $-1 $363 $362 $223 $353 forward $346 $-1 #
edge $-1 $479 -75.201269569994196 $355 75.201269569994196 $352 $480 forward 7 unknown #
edge $-1 $481 -75.201269569994196 $356 75.201269569994196 $349 $482 forward 7 unknown #
vertex $-1 $353 $483 #
vertex $-1 $226 $484 #
straight-curve $-1 75.201269569994196 -19.886045478250104 9.9066754759860167 0 1 0 I I #
edge $-1 $364 -29.175283903496158 $360 -10.596807053004053 $348 $485 forward 7 unknown #
coedge $-1 $228 $349 $474 $486 reversed $133 $-1 #
vertex $-1 $358 $487 #
straight-curve $-1 0 -30.482852531254157 14.82101910879388 -1 0 0 I I #
coedge $-1 $352 $230 $475 $488 forward $346 $-1 #
coedge $-1 $230 $352 $232 $366 reversed $346 $-1 #
vertex $-1 $488 $489 #
straight-curve $-1 0 -49.061329381746262 14.82101910879388 -1 0 0 I I #
edge $-1 $236 -14.82101910879388 $355 -9.9066754759860167 $232 $490 forward 7 unknown #
point $-1 75.201269569994196 -30.482852531254157 14.82101910879388 #
point $-1 75.201269569994196 -49.061329381746262 14.82101910879388 #
plane-surface $-1 0 0 20.082848746129471 0 0 1 1 0 0 forward_v I I I I #
coedge $-1 $380 $379 $372 $491 forward $239 $-1 #
coedge $-1 $372 $241 $243 $376 reversed $141 $-1 #
coedge $-1 $241 $371 $370 $491 reversed $141 $-1 #
coedge $-1 $249 $244 $241 $374 forward $250 $-1 #
edge $-1 $377 -32.870731433728217 $492 -9.7250581759056729 $373 $493 forward 7 unknown #
coedge $-1 $243 $242 $380 $494 reversed $89 $-1 #
edge $-1 $495 -3.6620485252745651e-014 $377 29.782916716057713 $371 $496 forward 7 unknown #
vertex $-1 $245 $497 #
straight-curve $-1 -52.055596312171652 0.27220174222290794 20.082848746129471 0 1 0 I I #
coedge $-1 $370 $246 $249 $384 reversed $239 $-1 #
coedge $-1 $246 $370 $375 $494 forward $239 $-1 #
vertex $-1 $247 $498 #
straight-curve $-1 -75.201269569994196 -8.2004314563544227 59.112288326388828 0 0 1 I I #
straight-curve $-1 -75.201269569994167 -8.2004314563544227 1.3398517190329358 -0.77714595512881146 0 -0.62932039886446345 I I #
edge $-1 $492 -9.2892384252460545 $251 8.2004314563544227 $379 $499 forward 7 unknown #
point $-1 -75.201269569994196 -8.2004314563544227 20.082848746129471 #
point $-1 -52.055596312171652 -8.2004314563544227 20.082848746129471 #
edge $-1 $500 1 $500 0 $254 $-1 forward 7 unknown #
vertex $-1 $255 $501 #
ellipse-curve $-1 -61.858261655260634 0.54440348444581588 8.525370790083814 -0.62932039886446345 0 0.77714595512881146 1.5542919102576229 0 1.2586407977289269 1 I I #
point $-1 -62.074141030825324 0.54440348444581588 11.96999103031014 #
loop $-1 $-1 $267 $258 #
plane-surface $-1 -75.201269569994196 0 0 1 0 0 0 0 -1 forward_v I I I I #
coedge $-1 $261 $397 $270 $405 forward $156 $-1 #
edge $-1 $402 -3.6620485252745651e-014 $398 29.782916716057713 $262 $502 forward 7 unknown #
coedge $-1 $267 $503 $263 $396 forward $391 $-1 #
edge $-1 $399 39.029439580259357 $402 57.772436607355914 $395 $504 forward 7 unknown #
coedge $-1 $393 $264 $503 $505 forward $156 $-1 #
vertex $-1 $265 $506 #
vertex $-1 $505 $507 #
straight-curve $-1 -84.926327745899869 26.778908306846525 20.082848746129471 -1 0 0 I I #
coedge $-1 $503 $267 $271 $406 forward $391 $-1 #
vertex $-1 $396 $508 #
straight-curve $-1 -75.201269569994196 0.27220174222290794 1.3398517190329164 0 -1 0 I I #
straight-curve $-1 -52.055596312171652 0.27220174222290794 20.082848746129471 0 1 0 I I #
edge $-1 $509 9.7250581759056729 $273 32.870731433728217 $393 $510 forward 7 unknown #
edge $-1 $272 -57.772436607355914 $509 -39.029439580259357 $401 $511 forward 7 unknown #
point $-1 -75.201269569994196 9.2892384252460545 1.3398517190329127 #
point $-1 -52.055596312171652 9.2892384252460545 20.082848746129471 #
edge $-1 $512 1 $512 0 $275 $-1 forward 7 unknown #
vertex $-1 $276 $513 #
ellipse-curve $-1 -61.858261655260634 18.034073366046286 8.525370790083814 -0.62932039886446345 0 0.77714595512881146 1.5542919102576229 0 1.2586407977289269 1 I I #
point $-1 -62.074141030825324 18.034073366046286 11.96999103031014 #
loop $-1 $-1 $287 $279 #
plane-surface $-1 75.201269569994196 0 0 -1 0 0 0 0 1 forward_v I I I I #
coedge $-1 $416 $282 $284 $420 reversed $171 $-1 #
coedge $-1 $282 $415 $514 $515 reversed $171 $-1 #
coedge $-1 $290 $285 $282 $418 forward $280 $-1 #
edge $-1 $421 25.571631033144186 $516 48.71730429096668 $417 $517 forward 7 unknown #
coedge $-1 $284 $283 $424 $518 reversed $107 $-1 #
edge $-1 $519 -150.40253913998839 $421 -120.61962242393071 $415 $520 forward 7 unknown #
vertex $-1 $286 $521 #
straight-curve $-1 52.055596312171701 0.27220174222290794 20.082848746129464 0 -1 0 I I #
coedge $-1 $514 $287 $290 $428 reversed $413 $-1 #
coedge $-1 $287 $514 $419 $518 forward $413 $-1 #
vertex $-1 $288 $522 #
straight-curve $-1 75.201269569994196 9.2892384252460545 106.43798128729162 0 0 1 I I #
straight-curve $-1 -41.683455363750539 9.2892384252460545 95.99123764083852 0.77714595512881146 0 -0.62932039886446345 I I #
edge $-1 $516 -8.2004314563544227 $291 9.2892384252460545 $423 $523 forward 7 unknown #
point $-1 75.201269569994196 9.2892384252460545 20.082848746129471 #
point $-1 52.055596312171701 9.2892384252460545 20.082848746129471 #
edge $-1 $524 1 $524 0 $294 $-1 forward 7 unknown #
vertex $-1 $295 $525 #
ellipse-curve $-1 61.858261655260648 0.54440348444581588 8.5253707900838069 0.62932039886446345 0 0.77714595512881146 1.5542919102576229 0 -1.2586407977289269 1 I I #
point $-1 65.182724851340581 0.54440348444581588 9.4527094348522791 #
loop $-1 $-1 $440 $298 #
plane-surface $-1 0 0 20.082848746129471 0 0 1 1 0 0 forward_v I I I I #
coedge $-1 $304 $442 $526 $527 reversed $299 $-1 #
coedge $-1 $301 $310 $442 $528 forward $186 $-1 #
edge $-1 $444 9.0170366830231465 $311 26.506706564623617 $301 $529 forward 7 unknown #
coedge $-1 $526 $308 $302 $441 forward $435 $-1 #
edge $-1 $446 -26.506706564623617 $443 -9.0170366830231465 $440 $530 forward 7 unknown #
coedge $-1 $437 $304 $438 $528 reversed $299 $-1 #
vertex $-1 $441 $531 #
vertex $-1 $439 $532 #
straight-curve $-1 -41.683455363750539 9.2892384252460545 95.99123764083852 0.77714595512881146 0 -0.62932039886446345 I I #
vertex $-1 $309 $533 #
straight-curve $-1 -41.683455363750539 26.778908306846525 95.99123764083852 0.77714595512881146 0 -0.62932039886446345 I I #
coedge $-1 $308 $526 $310 $450 forward $435 $-1 #
straight-curve $-1 26.483965279027515 26.778908306846525 20.082848746129471 -1 0 0 I I #
edge $-1 $534 9.2892384252460545 $312 26.778908306846525 $310 $535 forward 7 unknown #
point $-1 75.201269569994182 26.778908306846525 1.33985171903295 #
point $-1 75.201269569994196 26.778908306846525 20.082848746129471 #
edge $-1 $536 1 $536 0 $314 $-1 forward 7 unknown #
vertex $-1 $315 $537 #
ellipse-curve $-1 61.858261655260648 18.034073366046286 8.5253707900838069 0.62932039886446345 0 0.77714595512881146 1.5542919102576229 0 -1.2586407977289269 1 I I #
point $-1 65.182724851340581 18.034073366046286 9.4527094348522791 #
plane-surface $-1 75.201269569994196 0 0 -1 0 0 0 0 1 forward_v I I I I #
coedge $-1 $323 $321 $325 $462 reversed $201 $-1 #
edge $-1 $336 -20.082848746129471 $464 20.082848746129471 $335 $538 forward 7 unknown #
vertex $-1 $462 $539 #
straight-curve $-1 -75.201269569994196 -49.061329381746262 0 0 0 -1 I I #
edge $-1 $460 -49.061329381746262 $464 49.061329381746262 $458 $540 forward 7 unknown #
straight-curve $-1 0 -49.061329381746262 -20.082848746129471 -1 0 0 I I #
vertex $-1 $328 $541 #
straight-curve $-1 0 49.061329381746262 -20.082848746129471 1 0 0 I I #
point $-1 75.201269569994196 49.061329381746262 -20.082848746129471 #
point $-1 75.201269569994196 -49.061329381746262 -20.082848746129471 #
straight-curve $-1 -75.201269569994196 0 20.082848746129471 0 -1 0 I I #
point $-1 -75.201269569994196 49.061329381746262 20.082848746129471 #
point $-1 -75.201269569994196 -49.061329381746262 20.082848746129471 #
straight-curve $-1 75.201269569994196 -49.061329381746262 0 0 0 -1 I I #
straight-curve $-1 75.201269569994196 49.061329381746262 0 0 0 -1 I I #
plane-surface $-1 75.201269569994196 0 0 -1 0 0 0 0 1 forward_v I I I I #
coedge $-1 $477 $348 $359 $486 forward $220 $-1 #
coedge $-1 $348 $477 $362 $488 reversed $220 $-1 #
straight-curve $-1 75.201269569994196 -30.482852531254157 6.1819236461949743 0 0 1 I I #
coedge $-1 $475 $474 $351 $478 forward $220 $-1 #
edge $-1 $481 10.596807053004053 $479 29.175283903496158 $477 $542 forward 7 unknown #
vertex $-1 $353 $543 #
straight-curve $-1 0 -49.061329381746262 9.9066754759860167 1 0 0 I I #
vertex $-1 $478 $544 #
straight-curve $-1 0 -30.482852531254157 9.9066754759860167 1 0 0 I I #
point $-1 75.201269569994196 -49.061329381746262 9.9066754759860167 #
point $-1 75.201269569994196 -30.482852531254157 9.9066754759860167 #
straight-curve $-1 -75.201269569994196 -19.886045478250104 14.82101910879388 0 1 0 I I #
edge $-1 $360 -8.639095462598906 $481 -3.7247518297910425 $474 $545 forward 7 unknown #
point $-1 -75.201269569994196 -30.482852531254157 14.82101910879388 #
edge $-1 $364 -14.82101910879388 $479 -9.9066754759860167 $475 $546 forward 7 unknown #
point $-1 -75.201269569994196 -49.061329381746262 14.82101910879388 #
straight-curve $-1 75.201269569994196 -49.061329381746262 0 0 0 -1 I I #
edge $-1 $492 39.029439580259357 $495 57.772436607355914 $370 $547 forward 7 unknown #
vertex $-1 $384 $548 #
straight-curve $-1 -84.926327745899869 9.2892384252460545 20.082848746129471 -1 0 0 I I #
edge $-1 $495 -9.0170366830231465 $381 8.4726331985773307 $380 $549 forward 7 unknown #
vertex $-1 $494 $550 #
straight-curve $-1 -75.201269569994167 9.2892384252460545 1.3398517190329358 0.77714595512881146 0 0.62932039886446345 I I #
point $-1 -52.055596312171652 9.2892384252460545 20.082848746129471 #
point $-1 -75.201269569994196 -8.2004314563544227 1.3398517190329127 #
straight-curve $-1 -75.201269569994196 0 20.082848746129471 0 -1 0 I I #
vertex $-1 $387 $551 #
point $-1 -60.303969745003009 0.54440348444581588 9.7840115878127421 #
straight-curve $-1 -75.201269569994167 26.778908306846525 1.3398517190329358 0.77714595512881146 0 0.62932039886446345 I I #
coedge $-1 $395 $401 $397 $505 reversed $391 $-1 #
straight-curve $-1 -75.201269569994196 26.778908306846525 59.112288326388828 0 0 -1 I I #
edge $-1 $399 -26.778908306846525 $509 -9.2892384252460545 $503 $552 forward 7 unknown #
point $-1 -52.055596312171652 26.778908306846525 20.082848746129471 #
point $-1 -75.201269569994196 26.778908306846525 20.082848746129471 #
point $-1 -75.201269569994196 26.778908306846525 1.3398517190329127 #
vertex $-1 $406 $553 #
straight-curve $-1 -84.926327745899869 9.2892384252460545 20.082848746129471 1 0 0 I I #
straight-curve $-1 -75.201269569994196 9.2892384252460545 59.112288326388828 0 0 1 I I #
vertex $-1 $409 $554 #
point $-1 -60.303969745003009 18.034073366046286 9.7840115878127421 #
coedge $-1 $424 $423 $416 $515 forward $413 $-1 #
edge $-1 $516 86.355132541162149 $519 105.09812956825867 $514 $555 forward 7 unknown #
vertex $-1 $428 $556 #
straight-curve $-1 26.483965279027515 -8.2004314563544227 20.082848746129471 1 0 0 I I #
edge $-1 $519 -8.4726331985773307 $425 9.0170366830231465 $424 $557 forward 7 unknown #
vertex $-1 $518 $558 #
straight-curve $-1 -41.683455363750539 -8.2004314563544227 95.99123764083852 -0.77714595512881146 0 0.62932039886446345 I I #
point $-1 52.055596312171701 -8.2004314563544227 20.082848746129471 #
point $-1 75.201269569994182 9.2892384252460545 1.33985171903295 #
straight-curve $-1 75.201269569994196 0 20.082848746129471 0 1 0 I I #
vertex $-1 $431 $559 #
point $-1 63.412553565518266 0.54440348444581588 7.2667299923548807 #
coedge $-1 $448 $440 $437 $527 forward $435 $-1 #
edge $-1 $443 25.571631033144186 $534 48.71730429096668 $526 $560 forward 7 unknown #
edge $-1 $534 86.355132541162149 $444 105.09812956825867 $438 $561 forward 7 unknown #
straight-curve $-1 75.201269569994196 0.27220174222290794 1.3398517190329571 0 1 0 I I #
straight-curve $-1 52.055596312171701 0.27220174222290794 20.082848746129464 0 -1 0 I I #
point $-1 52.055596312171701 9.2892384252460545 20.082848746129471 #
point $-1 75.201269569994182 9.2892384252460545 1.33985171903295 #
point $-1 52.055596312171701 26.778908306846525 20.082848746129471 #
vertex $-1 $450 $562 #
straight-curve $-1 75.201269569994196 0 20.082848746129471 0 1 0 I I #
vertex $-1 $453 $563 #
point $-1 63.412553565518266 18.034073366046286 7.2667299923548807 #
straight-curve $-1 -75.201269569994196 49.061329381746262 0 0 0 -1 I I #
point $-1 -75.201269569994196 -49.061329381746262 -20.082848746129471 #
straight-curve $-1 -75.201269569994196 0 -20.082848746129471 0 1 0 I I #
point $-1 -75.201269569994196 49.061329381746262 -20.082848746129471 #
straight-curve $-1 -75.201269569994196 -19.886045478250104 9.9066754759860167 0 -1 0 I I #
point $-1 -75.201269569994196 -49.061329381746262 9.9066754759860167 #
point $-1 -75.201269569994196 -30.482852531254157 9.9066754759860167 #
straight-curve $-1 -75.201269569994196 -30.482852531254157 6.1819236461949743 0 0 -1 I I #
straight-curve $-1 -75.201269569994196 -49.061329381746262 0 0 0 -1 I I #
straight-curve $-1 -75.201269569994196 9.2892384252460545 59.112288326388828 0 0 -1 I I #
point $-1 -75.201269569994196 9.2892384252460545 20.082848746129471 #
straight-curve $-1 -75.201269569994196 0.27220174222290794 1.3398517190329164 0 -1 0 I I #
point $-1 -75.201269569994196 9.2892384252460545 1.3398517190329127 #
point $-1 -60.599620857531704 0.54440348444581588 6.9710788798261918 #
straight-curve $-1 -75.201269569994196 0 20.082848746129471 0 -1 0 I I #
point $-1 -75.201269569994196 9.2892384252460545 20.082848746129471 #
point $-1 -60.599620857531704 18.034073366046286 6.9710788798261918 #
straight-curve $-1 75.201269569994196 -8.2004314563544227 106.43798128729162 0 0 -1 I I #
point $-1 75.201269569994196 -8.2004314563544227 20.082848746129471 #
straight-curve $-1 75.201269569994196 0.27220174222290794 1.3398517190329571 0 1 0 I I #
point $-1 75.201269569994182 -8.2004314563544227 1.33985171903295 #
point $-1 60.599620857531718 0.54440348444581588 6.9710788798261847 #
straight-curve $-1 26.483965279027515 9.2892384252460545 20.082848746129471 1 0 0 I I #
straight-curve $-1 75.201269569994196 9.2892384252460545 106.43798128729162 0 0 -1 I I #
point $-1 75.201269569994196 9.2892384252460545 20.082848746129471 #
point $-1 60.599620857531718 18.034073366046286 6.9710788798261847 #
End-of-ACIS-data 