500 0 6 0           
7 Unknown 11 ACIS 5.0 NT 24 Fri Mar 26 03:36:55 1999 
-1 9.9999999999999995e-007 1e-010 
body $-1 $6 $-1 $7 #
body $-1 $8 $-1 $9 #
body $-1 $10 $-1 $11 #
body $-1 $12 $-1 $13 #
body $-1 $14 $-1 $15 #
body $-1 $16 $-1 $17 #
lump $-1 $-1 $18 $0 #
transform $-1 1 0 0 0 1 0 0 0 1 76.920072023682366 35.432952883250273 14.594695635367156 1 rotate no_reflect no_shear #
lump $-1 $-1 $19 $1 #
transform $-1 1 0 0 0 1 0 0 0 1 76.920072023682366 35.432952883250273 14.594695635367156 1 rotate no_reflect no_shear #
lump $-1 $-1 $20 $2 #
transform $-1 1 0 0 0 1 0 0 0 1 76.920072023682366 35.432952883250273 14.594695635367156 1 rotate no_reflect no_shear #
lump $-1 $-1 $21 $3 #
transform $-1 1 0 0 0 1 0 0 0 1 76.920072023682366 35.432952883250273 14.594695635367156 1 rotate no_reflect no_shear #
lump $-1 $-1 $22 $4 #
transform $-1 1 0 0 0 1 0 0 0 1 76.920072023682366 35.432952883250273 14.594695635367156 1 rotate no_reflect no_shear #
lump $-1 $-1 $23 $5 #
transform $-1 1 0 0 0 1 0 0 0 1 76.920072023682366 35.432952883250273 14.594695635367156 1 rotate no_reflect no_shear #
shell $-1 $-1 $-1 $24 $-1 $6 #
shell $-1 $-1 $-1 $25 $-1 $8 #
shell $-1 $-1 $-1 $26 $-1 $10 #
shell $-1 $-1 $-1 $27 $-1 $12 #
shell $-1 $-1 $-1 $28 $-1 $14 #
shell $-1 $-1 $-1 $29 $-1 $16 #
face $-1 $30 $31 $18 $-1 $32 forward single #
face $-1 $33 $34 $19 $-1 $35 forward single #
face $-1 $36 $37 $20 $-1 $38 forward single #
face $-1 $39 $40 $21 $-1 $41 reversed single #
face $-1 $42 $43 $22 $-1 $44 forward single #
face $-1 $45 $46 $23 $-1 $47 forward single #
face $-1 $48 $49 $18 $-1 $50 reversed single #
loop $-1 $-1 $51 $24 #
plane-surface $-1 0 0 14.594695635367156 0 0 1 1 0 0 forward_v I I I I #
face $-1 $52 $53 $19 $-1 $54 reversed single #
loop $-1 $-1 $55 $25 #
plane-surface $-1 0 -35.432952883250273 0 0 1 0 0 0 1 forward_v I I I I #
face $-1 $56 $57 $20 $-1 $58 reversed single #
loop $-1 $-1 $59 $26 #
plane-surface $-1 0 35.432952883250273 0 0 -1 0 0 0 -1 forward_v I I I I #
face $-1 $60 $61 $21 $-1 $62 reversed single #
loop $-1 $-1 $63 $27 #
plane-surface $-1 -156.1536047117161 -8.0420895460031989 138.6440836059451 0 1 0 -0.51503808176128008 0 0.85716729658548041 forward_v I I I I #
face $-1 $64 $65 $22 $-1 $66 forward single #
loop $-1 $67 $68 $28 #
cone-surface $-1 -69.770001430446953 -5.5876589533319176 9.6126572089078746 0.51503808176128008 0 -0.85716729658548041 0.85716729658548041 0 0.51503808176128008 1 I I 0 1 1 forward I I I I #
face $-1 $69 $70 $23 $-1 $71 forward single #
loop $-1 $72 $73 $29 #
cone-surface $-1 -69.770001430446953 -1.9060130643249948 9.6126572089078746 0.51503808176128008 0 -0.85716729658548041 0.85716729658548041 0 0.51503808176128008 1 I I 0 1 1 forward I I I I #
face $-1 $74 $75 $18 $-1 $76 reversed single #
loop $-1 $-1 $77 $30 #
plane-surface $-1 0 0 -14.594695635367156 0 0 1 1 0 0 forward_v I I I I #
coedge $-1 $78 $79 $80 $81 forward $31 $-1 #
face $-1 $82 $83 $19 $-1 $84 reversed single #
loop $-1 $-1 $85 $33 #
plane-surface $-1 0 0 -14.594695635367156 0 0 1 1 0 0 forward_v I I I I #
coedge $-1 $86 $87 $88 $89 forward $34 $-1 #
face $-1 $90 $91 $20 $-1 $92 reversed single #
loop $-1 $-1 $93 $36 #
plane-surface $-1 0 0 -14.594695635367156 0 0 1 1 0 0 forward_v I I I I #
coedge $-1 $94 $95 $96 $97 forward $37 $-1 #
face $-1 $98 $99 $21 $-1 $100 reversed single #
loop $-1 $-1 $101 $39 #
plane-surface $-1 -76.920072023682351 -3.7468360088284527 6.7773432265445877 -0.51503808176128008 0 0.85716729658548041 0.85716729658548041 0 0.51503808176128008 forward_v I I I I #
coedge $-1 $102 $103 $104 $105 reversed $40 $-1 #
face $-1 $-1 $106 $22 $-1 $107 forward single #
loop $-1 $108 $109 $42 #
cone-surface $-1 -68.867541288709106 -5.5876589533319176 8.1107113385671248 0.51503808176128008 0 -0.85716729658548041 0.4285836482927402 0 0.25751904088064004 1 I I -0.70710678118654746 0.70710678118654746 0.5 forward I I I I #
loop $-1 $-1 $110 $28 #
coedge $-1 $68 $68 $111 $112 reversed $43 $-1 #
face $-1 $-1 $113 $23 $-1 $114 forward single #
loop $-1 $115 $116 $45 #
cone-surface $-1 -68.867541288709106 -1.9060130643249948 8.1107113385671248 0.51503808176128008 0 -0.85716729658548041 0.4285836482927402 0 0.25751904088064004 1 I I -0.70710678118654746 0.70710678118654746 0.5 forward I I I I #
loop $-1 $-1 $117 $29 #
coedge $-1 $73 $73 $118 $119 reversed $46 $-1 #
face $-1 $120 $121 $18 $-1 $122 reversed single #
loop $-1 $-1 $123 $48 #
plane-surface $-1 0 -35.432952883250273 0 0 1 0 0 0 1 forward_v I I I I #
coedge $-1 $124 $125 $126 $127 forward $49 $-1 #
coedge $-1 $128 $51 $129 $130 forward $31 $-1 #
coedge $-1 $51 $128 $131 $132 forward $31 $-1 #
coedge $-1 $133 $134 $51 $81 reversed $135 $-1 #
edge $-1 $136 -35.432952883250273 $137 35.432952883250273 $80 $138 forward 7 unknown #
face $-1 $139 $140 $19 $-1 $141 reversed single #
loop $-1 $-1 $142 $52 #
plane-surface $-1 -49.911800936572718 -53.400369679850598 0 0 1 0 0 0 1 forward_v I I I I #
coedge $-1 $143 $144 $87 $145 forward $53 $-1 #
coedge $-1 $146 $55 $147 $148 reversed $34 $-1 #
coedge $-1 $55 $146 $85 $145 reversed $34 $-1 #
coedge $-1 $149 $150 $55 $89 reversed $140 $-1 #
edge $-1 $151 -14.594695635367156 $152 14.594695635367156 $88 $153 forward 7 unknown #
face $-1 $154 $155 $20 $-1 $156 reversed single #
loop $-1 $-1 $157 $56 #
plane-surface $-1 -52.092921120197381 44.416661281550425 0 1 0 0 0 0 -1 forward_v I I I I #
coedge $-1 $158 $159 $95 $160 forward $57 $-1 #
coedge $-1 $161 $59 $162 $163 reversed $37 $-1 #
coedge $-1 $59 $161 $93 $160 reversed $37 $-1 #
coedge $-1 $164 $165 $59 $97 reversed $166 $-1 #
edge $-1 $167 -14.594695635367156 $168 14.594695635367156 $96 $169 forward 7 unknown #
face $-1 $170 $171 $21 $-1 $172 reversed single #
loop $-1 $-1 $173 $60 #
plane-surface $-1 -156.1536047117161 0.54841752834629354 138.6440836059451 0 -1 0 0.51503808176128008 0 -0.85716729658548041 forward_v I I I I #
coedge $-1 $174 $175 $176 $177 reversed $61 $-1 #
coedge $-1 $103 $63 $178 $179 reversed $40 $-1 #
coedge $-1 $63 $102 $174 $180 reversed $40 $-1 #
coedge $-1 $176 $181 $63 $105 forward $182 $-1 #
edge $-1 $183 1.1567303321756839 $184 14.166989316932174 $104 $185 forward 7 unknown #
loop $-1 $-1 $111 $64 #
plane-surface $-1 -76.920072023682351 -3.7468360088284527 6.7773432265445877 -0.51503808176128008 0 0.85716729658548041 0.85716729658548041 0 0.51503808176128008 forward_v I I I I #
loop $-1 $-1 $186 $42 #
coedge $-1 $109 $109 $110 $187 reversed $65 $-1 #
coedge $-1 $110 $110 $109 $187 forward $67 $-1 #
coedge $-1 $111 $111 $68 $112 forward $106 $-1 #
edge $-1 $188 0 $188 6.2831853071796004 $111 $189 forward 7 unknown #
loop $-1 $-1 $118 $69 #
plane-surface $-1 -76.920072023682351 -3.7468360088284527 6.7773432265445877 -0.51503808176128008 0 0.85716729658548041 0.85716729658548041 0 0.51503808176128008 forward_v I I I I #
loop $-1 $-1 $190 $45 #
coedge $-1 $116 $116 $117 $191 reversed $70 $-1 #
coedge $-1 $117 $117 $116 $191 forward $72 $-1 #
coedge $-1 $118 $118 $73 $119 forward $113 $-1 #
edge $-1 $192 0 $192 6.2831853071796004 $118 $193 forward 7 unknown #
face $-1 $194 $195 $18 $-1 $196 reversed single #
loop $-1 $-1 $197 $74 #
plane-surface $-1 -76.920072023682366 0 0 1 0 0 0 0 -1 forward_v I I I I #
coedge $-1 $198 $131 $199 $200 forward $75 $-1 #
coedge $-1 $201 $77 $198 $202 forward $49 $-1 #
coedge $-1 $77 $201 $203 $204 forward $49 $-1 #
coedge $-1 $134 $133 $77 $127 reversed $135 $-1 #
edge $-1 $205 -35.432952883250273 $206 35.432952883250273 $126 $207 forward 7 unknown #
coedge $-1 $79 $78 $208 $209 forward $31 $-1 #
coedge $-1 $210 $211 $78 $130 reversed $195 $-1 #
edge $-1 $137 -76.920072023682366 $212 76.920072023682366 $129 $213 forward 7 unknown #
coedge $-1 $123 $214 $79 $132 reversed $75 $-1 #
edge $-1 $215 -76.920072023682366 $136 76.920072023682366 $131 $216 forward 7 unknown #
coedge $-1 $126 $80 $214 $217 forward $135 $-1 #
coedge $-1 $80 $126 $210 $218 reversed $135 $-1 #
loop $-1 $-1 $133 $194 #
vertex $-1 $81 $219 #
vertex $-1 $81 $220 #
straight-curve $-1 76.920072023682366 0 14.594695635367156 0 1 0 I I #
face $-1 $221 $222 $19 $-1 $223 reversed single #
loop $-1 $-1 $88 $82 #
plane-surface $-1 -52.092921120197381 -44.416661281550432 0 1 0 0 0 0 -1 forward_v I I I I #
coedge $-1 $224 $225 $226 $227 forward $83 $-1 #
coedge $-1 $228 $85 $229 $230 forward $53 $-1 #
coedge $-1 $85 $228 $149 $231 forward $53 $-1 #
edge $-1 $151 -52.092921120197381 $232 -47.730680752948054 $85 $233 forward 7 unknown #
coedge $-1 $87 $86 $234 $235 forward $34 $-1 #
coedge $-1 $236 $237 $86 $148 forward $238 $-1 #
edge $-1 $239 47.730680752948054 $152 52.092921120197381 $147 $240 forward 7 unknown #
coedge $-1 $226 $88 $144 $231 reversed $140 $-1 #
coedge $-1 $88 $226 $236 $241 reversed $140 $-1 #
vertex $-1 $145 $242 #
vertex $-1 $241 $243 #
straight-curve $-1 -52.092921120197381 -35.432952883250273 0 0 0 1 I I #
face $-1 $244 $166 $20 $-1 $245 reversed single #
loop $-1 $-1 $246 $90 #
plane-surface $-1 -49.911800936572718 53.400369679850584 0 0 -1 0 0 0 -1 forward_v I I I I #
coedge $-1 $247 $248 $249 $250 forward $91 $-1 #
coedge $-1 $251 $93 $247 $252 forward $57 $-1 #
coedge $-1 $93 $251 $164 $253 forward $57 $-1 #
edge $-1 $167 47.730680752948054 $254 52.092921120197381 $93 $255 forward 7 unknown #
coedge $-1 $95 $94 $256 $257 forward $37 $-1 #
coedge $-1 $258 $259 $94 $163 forward $260 $-1 #
edge $-1 $261 -52.092921120197381 $168 -47.730680752948054 $162 $262 forward 7 unknown #
coedge $-1 $263 $96 $159 $253 reversed $166 $-1 #
coedge $-1 $96 $263 $258 $264 reversed $166 $-1 #
loop $-1 $-1 $96 $154 #
vertex $-1 $160 $265 #
vertex $-1 $264 $266 #
straight-curve $-1 -47.730680752948054 35.432952883250273 0 0 0 1 I I #
face $-1 $-1 $182 $21 $-1 $267 forward single #
loop $-1 $-1 $268 $98 #
plane-surface $-1 -76.920072023682366 0 0 1 0 0 0 0 -1 forward_v I I I I #
coedge $-1 $269 $270 $271 $272 reversed $99 $-1 #
coedge $-1 $273 $101 $103 $180 forward $61 $-1 #
coedge $-1 $101 $273 $269 $274 forward $61 $-1 #
coedge $-1 $271 $104 $101 $177 forward $182 $-1 #
edge $-1 $184 -6.1686715415889726 $275 2.4218355327605199 $176 $276 forward 7 unknown #
coedge $-1 $277 $278 $102 $179 forward $171 $-1 #
edge $-1 $279 -62.544698576427969 $183 -54.72734616760539 $178 $280 forward 7 unknown #
edge $-1 $184 -15.178202710932563 $279 1.6755537013839907e-014 $103 $281 forward 7 unknown #
coedge $-1 $104 $271 $277 $282 forward $182 $-1 #
loop $-1 $-1 $271 $170 #
vertex $-1 $179 $283 #
vertex $-1 $105 $284 #
straight-curve $-1 -78.07680235585805 -8.0420895460031989 14.59469563536716 1 0 0 I I #
coedge $-1 $186 $186 $-1 $285 reversed $108 $-1 #
edge $-1 $286 0 $286 6.2831853071796004 $109 $287 forward 7 unknown #
vertex $-1 $112 $288 #
ellipse-curve $-1 -70.414942531304135 -5.5876589533319176 10.686019430955856 -0.51503808176128008 0 0.85716729658548041 0.85716729658548041 0 0.51503808176128008 1 I I #
coedge $-1 $190 $190 $-1 $289 reversed $115 $-1 #
edge $-1 $290 0 $290 6.2831853071796004 $116 $291 forward 7 unknown #
vertex $-1 $119 $292 #
ellipse-curve $-1 -70.414942531304135 -1.9060130643249948 10.686019430955856 -0.51503808176128008 0 0.85716729658548041 0.85716729658548041 0 0.51503808176128008 1 I I #
face $-1 $-1 $135 $18 $-1 $293 reversed single #
loop $-1 $-1 $210 $120 #
plane-surface $-1 0 35.432952883250273 0 0 -1 0 0 0 -1 forward_v I I I I #
coedge $-1 $294 $208 $211 $295 forward $121 $-1 #
coedge $-1 $214 $123 $124 $202 reversed $75 $-1 #
coedge $-1 $208 $294 $123 $200 reversed $121 $-1 #
edge $-1 $215 -14.594695635367156 $296 14.594695635367156 $199 $297 forward 7 unknown #
coedge $-1 $125 $124 $294 $298 forward $49 $-1 #
edge $-1 $206 -76.920072023682366 $296 76.920072023682366 $198 $299 forward 7 unknown #
coedge $-1 $211 $210 $125 $204 reversed $195 $-1 #
edge $-1 $300 -76.920072023682366 $205 76.920072023682366 $203 $301 forward 7 unknown #
vertex $-1 $127 $302 #
vertex $-1 $217 $303 #
straight-curve $-1 76.920072023682366 0 -14.594695635367156 0 -1 0 I I #
coedge $-1 $197 $199 $128 $209 reversed $121 $-1 #
edge $-1 $212 -35.432952883250273 $215 35.432952883250273 $208 $304 forward 7 unknown #
coedge $-1 $203 $129 $134 $218 forward $195 $-1 #
coedge $-1 $129 $203 $197 $295 reversed $195 $-1 #
vertex $-1 $130 $305 #
straight-curve $-1 0 35.432952883250273 14.594695635367156 -1 0 0 I I #
coedge $-1 $131 $198 $133 $217 reversed $75 $-1 #
vertex $-1 $209 $306 #
straight-curve $-1 0 -35.432952883250273 14.594695635367156 1 0 0 I I #
edge $-1 $136 -14.594695635367156 $206 14.594695635367156 $133 $307 forward 7 unknown #
edge $-1 $137 -14.594695635367156 $205 14.594695635367156 $134 $308 forward 7 unknown #
point $-1 76.920072023682366 -35.432952883250273 14.594695635367156 #
point $-1 76.920072023682366 35.432952883250273 14.594695635367156 #
face $-1 $-1 $238 $19 $-1 $309 forward single #
loop $-1 $-1 $310 $139 #
plane-surface $-1 -47.730680752948054 -44.416661281550432 0 -1 0 0 0 0 1 forward_v I I I I #
coedge $-1 $311 $142 $228 $312 reversed $83 $-1 #
coedge $-1 $142 $311 $313 $314 reversed $83 $-1 #
coedge $-1 $150 $149 $142 $227 reversed $140 $-1 #
edge $-1 $315 -14.594695635367156 $316 14.594695635367156 $226 $317 forward 7 unknown #
coedge $-1 $144 $143 $224 $312 forward $53 $-1 #
coedge $-1 $234 $310 $143 $230 reversed $222 $-1 #
edge $-1 $232 -8.9837083983001662 $318 8.9837083983001662 $229 $319 forward 7 unknown #
edge $-1 $316 -8.9837083983001662 $151 8.9837083983001662 $149 $320 forward 7 unknown #
vertex $-1 $230 $321 #
straight-curve $-1 0 -35.432952883250273 -14.594695635367156 1 0 0 I I #
coedge $-1 $322 $229 $146 $235 reversed $222 $-1 #
edge $-1 $239 -14.594695635367156 $232 14.594695635367156 $234 $323 forward 7 unknown #
coedge $-1 $313 $147 $150 $241 forward $238 $-1 #
coedge $-1 $147 $313 $322 $324 forward $238 $-1 #
loop $-1 $-1 $147 $221 #
vertex $-1 $148 $325 #
straight-curve $-1 0 -35.432952883250273 14.594695635367156 -1 0 0 I I #
edge $-1 $152 -8.9837083983001662 $315 8.9837083983001662 $150 $326 forward 7 unknown #
point $-1 -52.092921120197381 -35.432952883250266 -14.594695635367156 #
point $-1 -52.092921120197381 -35.432952883250266 14.594695635367156 #
face $-1 $-1 $260 $20 $-1 $327 forward single #
plane-surface $-1 -47.730680752948054 44.416661281550425 0 -1 0 0 0 0 1 forward_v I I I I #
coedge $-1 $328 $329 $263 $330 forward $155 $-1 #
coedge $-1 $256 $157 $158 $252 reversed $91 $-1 #
coedge $-1 $157 $256 $259 $331 reversed $91 $-1 #
coedge $-1 $329 $328 $157 $250 reversed $155 $-1 #
edge $-1 $332 -14.594695635367156 $333 14.594695635367156 $249 $334 forward 7 unknown #
coedge $-1 $159 $158 $328 $335 forward $57 $-1 #
edge $-1 $254 -8.9837083983001591 $333 8.9837083983001591 $247 $336 forward 7 unknown #
edge $-1 $337 -8.9837083983001591 $167 8.9837083983001591 $164 $338 forward 7 unknown #
vertex $-1 $252 $339 #
straight-curve $-1 0 35.432952883250273 -14.594695635367156 -1 0 0 I I #
coedge $-1 $248 $247 $161 $257 reversed $91 $-1 #
edge $-1 $261 -14.594695635367156 $254 14.594695635367156 $256 $340 forward 7 unknown #
coedge $-1 $341 $162 $165 $264 forward $260 $-1 #
coedge $-1 $162 $341 $248 $331 forward $260 $-1 #
loop $-1 $-1 $162 $244 #
vertex $-1 $163 $342 #
straight-curve $-1 0 35.432952883250273 14.594695635367156 1 0 0 I I #
coedge $-1 $165 $164 $246 $330 reversed $166 $-1 #
edge $-1 $168 -8.9837083983001591 $343 8.9837083983001591 $165 $344 forward 7 unknown #
point $-1 -47.730680752948054 35.432952883250266 -14.594695635367156 #
point $-1 -47.730680752948054 35.432952883250266 14.594695635367156 #
plane-surface $-1 0 0 14.594695635367156 0 0 1 1 0 0 forward_v I I I I #
coedge $-1 $278 $277 $270 $345 forward $171 $-1 #
coedge $-1 $270 $173 $175 $274 reversed $99 $-1 #
coedge $-1 $173 $269 $268 $345 reversed $99 $-1 #
coedge $-1 $181 $176 $173 $272 forward $182 $-1 #
edge $-1 $275 -14.166989316932174 $346 -1.1567303321756839 $271 $347 forward 7 unknown #
coedge $-1 $175 $174 $278 $348 reversed $61 $-1 #
edge $-1 $349 -1.6755537013839907e-014 $275 15.178202710932563 $269 $350 forward 7 unknown #
vertex $-1 $177 $351 #
straight-curve $-1 -63.909813038925876 -1.8734180044142263 14.594695635367156 0 1 0 I I #
coedge $-1 $268 $178 $181 $282 reversed $171 $-1 #
coedge $-1 $178 $268 $273 $348 forward $171 $-1 #
vertex $-1 $179 $352 #
straight-curve $-1 -76.920072023682366 -8.0420895460031989 69.322041802972549 0 0 1 I I #
straight-curve $-1 -76.920072023682351 -8.0420895460031989 6.7773432265445877 -0.85716729658548041 0 -0.51503808176128008 I I #
edge $-1 $346 -0.54841752834629354 $183 8.0420895460031989 $277 $353 forward 7 unknown #
point $-1 -76.920072023682366 -8.0420895460031989 14.594695635367156 #
point $-1 -63.909813038925876 -8.0420895460031989 14.594695635367156 #
edge $-1 $354 1 $354 0 $186 $-1 forward 7 unknown #
vertex $-1 $187 $355 #
ellipse-curve $-1 -69.125060329589743 -5.5876589533319176 8.5392949868598649 -0.51503808176128008 0 0.85716729658548041 0.85716729658548041 0 0.51503808176128008 1 I I #
point $-1 -69.557775234718676 -5.5876589533319176 11.201057512717165 #
edge $-1 $356 1 $356 0 $190 $-1 forward 7 unknown #
vertex $-1 $191 $357 #
ellipse-curve $-1 -69.125060329589743 -1.9060130643249948 8.5392949868598649 -0.51503808176128008 0 0.85716729658548041 0.85716729658548041 0 0.51503808176128008 1 I I #
point $-1 -69.557775234718676 -1.9060130643249948 11.201057512717165 #
plane-surface $-1 76.920072023682366 0 0 -1 0 0 0 0 1 forward_v I I I I #
coedge $-1 $199 $197 $201 $298 reversed $121 $-1 #
edge $-1 $212 -14.594695635367156 $300 14.594695635367156 $211 $358 forward 7 unknown #
vertex $-1 $298 $359 #
straight-curve $-1 -76.920072023682366 -35.432952883250273 0 0 0 -1 I I #
edge $-1 $296 -35.432952883250273 $300 35.432952883250273 $294 $360 forward 7 unknown #
straight-curve $-1 0 -35.432952883250273 -14.594695635367156 -1 0 0 I I #
vertex $-1 $204 $361 #
straight-curve $-1 0 35.432952883250273 -14.594695635367156 1 0 0 I I #
point $-1 76.920072023682366 35.432952883250273 -14.594695635367156 #
point $-1 76.920072023682366 -35.432952883250273 -14.594695635367156 #
straight-curve $-1 -76.920072023682366 0 14.594695635367156 0 -1 0 I I #
point $-1 -76.920072023682366 35.432952883250273 14.594695635367156 #
point $-1 -76.920072023682366 -35.432952883250273 14.594695635367156 #
straight-curve $-1 76.920072023682366 -35.432952883250273 0 0 0 -1 I I #
straight-curve $-1 76.920072023682366 35.432952883250273 0 0 0 -1 I I #
plane-surface $-1 0 0 14.594695635367156 0 0 1 1 0 0 forward_v I I I I #
coedge $-1 $229 $322 $311 $362 forward $222 $-1 #
coedge $-1 $225 $224 $310 $362 reversed $83 $-1 #
edge $-1 $318 -2.1811201836246639 $316 2.1811201836246639 $224 $363 forward 7 unknown #
coedge $-1 $237 $236 $225 $314 forward $238 $-1 #
edge $-1 $315 -2.1811201836246639 $364 2.1811201836246639 $225 $365 forward 7 unknown #
vertex $-1 $241 $366 #
vertex $-1 $231 $367 #
straight-curve $-1 -52.092921120197381 -53.400369679850598 0 0 0 -1 I I #
vertex $-1 $362 $368 #
straight-curve $-1 -47.730680752948054 -44.416661281550432 -14.594695635367156 0 -1 0 I I #
straight-curve $-1 -52.092921120197381 -44.416661281550432 -14.594695635367156 0 1 0 I I #
point $-1 -47.730680752948054 -35.432952883250266 -14.594695635367156 #
coedge $-1 $310 $234 $237 $324 reversed $222 $-1 #
straight-curve $-1 -47.730680752948054 -35.432952883250273 0 0 0 -1 I I #
edge $-1 $364 -8.9837083983001662 $239 8.9837083983001662 $322 $369 forward 7 unknown #
point $-1 -47.730680752948054 -35.432952883250266 14.594695635367156 #
straight-curve $-1 -52.092921120197381 -44.416661281550432 14.594695635367156 0 -1 0 I I #
plane-surface $-1 0 0 14.594695635367156 0 0 1 1 0 0 forward_v I I I I #
coedge $-1 $249 $246 $251 $335 reversed $155 $-1 #
coedge $-1 $246 $249 $341 $370 reversed $155 $-1 #
edge $-1 $343 -14.594695635367156 $337 14.594695635367156 $263 $371 forward 7 unknown #
edge $-1 $332 -8.9837083983001591 $261 8.9837083983001591 $248 $372 forward 7 unknown #
vertex $-1 $370 $373 #
vertex $-1 $335 $374 #
straight-curve $-1 -52.092921120197381 53.400369679850584 0 0 0 -1 I I #
edge $-1 $333 -2.1811201836246639 $337 2.1811201836246639 $328 $375 forward 7 unknown #
straight-curve $-1 -52.092921120197381 44.416661281550425 -14.594695635367156 0 1 0 I I #
vertex $-1 $253 $376 #
straight-curve $-1 -47.730680752948054 44.416661281550425 -14.594695635367156 0 -1 0 I I #
point $-1 -52.092921120197381 35.432952883250266 -14.594695635367156 #
straight-curve $-1 -52.092921120197381 35.432952883250273 0 0 0 -1 I I #
coedge $-1 $259 $258 $329 $370 forward $260 $-1 #
point $-1 -52.092921120197381 35.432952883250266 14.594695635367156 #
vertex $-1 $264 $377 #
straight-curve $-1 -47.730680752948054 44.416661281550425 14.594695635367156 0 1 0 I I #
edge $-1 $346 54.72734616760539 $349 62.544698576427969 $268 $378 forward 7 unknown #
vertex $-1 $282 $379 #
straight-curve $-1 -78.07680235585805 0.54841752834629354 14.59469563536716 -1 0 0 I I #
edge $-1 $349 -2.4218355327605199 $279 6.1686715415889726 $278 $380 forward 7 unknown #
vertex $-1 $348 $381 #
straight-curve $-1 -76.920072023682351 0.54841752834629354 6.7773432265445877 0.85716729658548041 0 0.51503808176128008 I I #
point $-1 -63.909813038925876 0.54841752834629354 14.594695635367156 #
point $-1 -76.920072023682366 -8.0420895460031989 6.7773432265445788 #
straight-curve $-1 -76.920072023682366 0 14.594695635367156 0 -1 0 I I #
vertex $-1 $285 $382 #
point $-1 -68.26789303300427 -5.5876589533319176 9.0543330686211458 #
vertex $-1 $289 $383 #
point $-1 -68.26789303300427 -1.9060130643249948 9.0543330686211458 #
straight-curve $-1 -76.920072023682366 35.432952883250273 0 0 0 -1 I I #
point $-1 -76.920072023682366 -35.432952883250273 -14.594695635367156 #
straight-curve $-1 -76.920072023682366 0 -14.594695635367156 0 1 0 I I #
point $-1 -76.920072023682366 35.432952883250273 -14.594695635367156 #
edge $-1 $364 -14.594695635367156 $318 14.594695635367156 $310 $384 forward 7 unknown #
straight-curve $-1 -49.911800936572718 -53.400369679850598 -14.594695635367156 -1 0 0 I I #
vertex $-1 $324 $385 #
straight-curve $-1 -49.911800936572718 -53.400369679850598 14.594695635367156 1 0 0 I I #
point $-1 -52.092921120197381 -53.400369679850598 14.594695635367156 #
point $-1 -52.092921120197381 -53.400369679850598 -14.594695635367156 #
point $-1 -47.730680752948054 -53.400369679850598 -14.594695635367156 #
straight-curve $-1 -47.730680752948054 -44.416661281550432 14.594695635367156 0 1 0 I I #
edge $-1 $343 -2.1811201836246639 $332 2.1811201836246639 $329 $386 forward 7 unknown #
straight-curve $-1 -47.730680752948054 53.400369679850584 0 0 0 -1 I I #
straight-curve $-1 -52.092921120197381 44.416661281550425 14.594695635367156 0 -1 0 I I #
point $-1 -52.092921120197381 53.400369679850584 14.594695635367156 #
point $-1 -52.092921120197381 53.400369679850584 -14.594695635367156 #
straight-curve $-1 -49.911800936572718 53.400369679850584 -14.594695635367156 1 0 0 I I #
point $-1 -47.730680752948054 53.400369679850584 -14.594695635367156 #
point $-1 -47.730680752948054 53.400369679850584 14.594695635367156 #
straight-curve $-1 -76.920072023682366 0.54841752834629354 69.322041802972549 0 0 -1 I I #
point $-1 -76.920072023682366 0.54841752834629354 14.594695635367156 #
straight-curve $-1 -76.920072023682366 -1.8734180044142263 6.7773432265445805 0 -1 0 I I #
point $-1 -76.920072023682366 0.54841752834629354 6.7773432265445788 #
point $-1 -68.610022247828468 -5.5876589533319176 7.6821276902743847 #
point $-1 -68.610022247828468 -1.9060130643249948 7.6821276902743847 #
straight-curve $-1 -47.730680752948054 -53.400369679850598 0 0 0 -1 I I #
point $-1 -47.730680752948054 -53.400369679850598 14.594695635367156 #
straight-curve $-1 -49.911800936572718 53.400369679850584 14.594695635367156 -1 0 0 I I #
End-of-ACIS-data 