500 0 7 0           
7 Unknown 11 ACIS 5.0 NT 24 Thu Mar 25 22:27:40 1999 
-1 9.9999999999999995e-007 1e-010 
body $-1 $7 $-1 $8 #
body $-1 $9 $-1 $10 #
body $-1 $11 $-1 $12 #
body $-1 $13 $-1 $14 #
body $-1 $15 $-1 $16 #
body $-1 $17 $-1 $18 #
body $-1 $19 $-1 $20 #
lump $-1 $-1 $21 $0 #
transform $-1 1 0 0 0 1 0 0 0 1 59.340189825128945 28.655587196263401 13.194408149163001 1 rotate no_reflect no_shear #
lump $-1 $-1 $22 $1 #
transform $-1 1 0 0 0 1 0 0 0 1 59.340189825128945 28.655587196263401 13.194408149163001 1 rotate no_reflect no_shear #
lump $-1 $-1 $23 $2 #
transform $-1 1 0 0 0 1 0 0 0 1 59.340189825128945 28.655587196263401 13.194408149163001 1 rotate no_reflect no_shear #
lump $-1 $-1 $24 $3 #
transform $-1 1 0 0 0 1 0 0 0 1 59.340189825128945 28.655587196263401 13.194408149163001 1 rotate no_reflect no_shear #
lump $-1 $-1 $25 $4 #
transform $-1 1 0 0 0 1 0 0 0 1 59.340189825128945 28.655587196263401 13.194408149163001 1 rotate no_reflect no_shear #
lump $-1 $-1 $26 $5 #
transform $-1 1 0 0 0 1 0 0 0 1 59.340189825128945 28.655587196263401 13.194408149163001 1 rotate no_reflect no_shear #
lump $-1 $-1 $27 $6 #
transform $-1 1 0 0 0 1 0 0 0 1 59.340189825128945 28.655587196263401 13.194408149163001 1 rotate no_reflect no_shear #
shell $-1 $-1 $-1 $28 $-1 $7 #
shell $-1 $-1 $-1 $29 $-1 $9 #
shell $-1 $-1 $-1 $30 $-1 $11 #
shell $-1 $-1 $-1 $31 $-1 $13 #
shell $-1 $-1 $-1 $32 $-1 $15 #
shell $-1 $-1 $-1 $33 $-1 $17 #
shell $-1 $-1 $-1 $34 $-1 $19 #
face $-1 $35 $36 $21 $-1 $37 forward single #
face $-1 $38 $39 $22 $-1 $40 reversed single #
face $-1 $41 $42 $23 $-1 $43 forward single #
face $-1 $44 $45 $24 $-1 $46 reversed single #
face $-1 $47 $48 $25 $-1 $49 forward single #
face $-1 $50 $51 $26 $-1 $52 reversed single #
face $-1 $53 $54 $27 $-1 $55 forward single #
face $-1 $56 $57 $21 $-1 $58 reversed single #
loop $-1 $-1 $59 $28 #
plane-surface $-1 0 0 13.194408149163001 0 0 1 1 0 0 forward_v I I I I #
face $-1 $60 $61 $22 $-1 $62 reversed single #
loop $-1 $-1 $63 $29 #
plane-surface $-1 45.836661109315045 -28.65558719626344 9.5472824144219928 0 -0.85716730853699208 0.51503806187062418 1 0 0 forward_v I I I I #
face $-1 $64 $65 $23 $-1 $66 forward single #
loop $-1 $67 $68 $30 #
cone-surface $-1 45.836661109315045 -26.971122040016827 11.017083749168473 0 0.85716730853699208 -0.51503806187062418 1 0 0 1 I I 0 1 1 forward I I I I #
face $-1 $69 $70 $24 $-1 $71 reversed single #
loop $-1 $-1 $72 $31 #
plane-surface $-1 -41.585887247855652 84.820475833195118 126.10346308631512 1 0 0 0 -0.77714596973225614 -0.62932038083071107 forward_v I I I I #
face $-1 $73 $74 $25 $-1 $75 forward single #
loop $-1 $76 $77 $32 #
cone-surface $-1 -30.75055728929307 25.707381967793562 9.7195004951591564 0 -0.77714596973225614 -0.62932038083071107 1 0 0 1 I I 0 1 1 forward I I I I #
face $-1 $78 $79 $26 $-1 $80 reversed single #
loop $-1 $-1 $81 $33 #
plane-surface $-1 17.754302577273293 84.820475833195118 126.10346308631512 1 0 0 0 -0.77714596973225614 -0.62932038083071107 forward_v I I I I #
face $-1 $82 $83 $27 $-1 $84 forward single #
loop $-1 $85 $86 $34 #
cone-surface $-1 28.589632535835875 25.707381967793562 9.7195004951591564 0 -0.77714596973225614 -0.62932038083071107 1 0 0 1 I I 0 1 1 forward I I I I #
face $-1 $87 $88 $21 $-1 $89 reversed single #
loop $-1 $-1 $90 $35 #
plane-surface $-1 0 0 -13.194408149163001 0 0 1 1 0 0 forward_v I I I I #
coedge $-1 $91 $92 $93 $94 forward $36 $-1 #
face $-1 $95 $96 $22 $-1 $97 reversed single #
loop $-1 $-1 $98 $38 #
plane-surface $-1 32.333132393501145 -130.3845287972234 70.672195131560684 1 0 0 0 0.85716730853699208 -0.51503806187062418 forward_v I I I I #
coedge $-1 $99 $100 $101 $102 reversed $39 $-1 #
face $-1 $-1 $103 $23 $-1 $104 forward single #
loop $-1 $105 $106 $41 #
cone-surface $-1 45.836661109315045 -25.953780305069973 10.405803185609143 0 0.85716730853699208 -0.51503806187062418 0.5 0 0 1 I I -0.70710678118654746 0.70710678118654746 0.5 forward I I I I #
loop $-1 $-1 $107 $30 #
coedge $-1 $68 $68 $108 $109 reversed $42 $-1 #
face $-1 $110 $111 $24 $-1 $112 reversed single #
loop $-1 $-1 $113 $44 #
plane-surface $-1 -30.75055728929307 -7.4115028982968738 51.415481367681451 0 0.77714596973225614 0.62932038083071107 1 0 0 forward_v I I I I #
coedge $-1 $114 $115 $116 $117 reversed $45 $-1 #
face $-1 $-1 $118 $25 $-1 $119 forward single #
loop $-1 $120 $121 $47 #
cone-surface $-1 -30.75055728929307 24.928741805852891 9.0889701413680779 0 -0.77714596973225614 -0.62932038083071107 0.5 0 0 1 I I -0.70710678118654746 0.70710678118654746 0.5 forward I I I I #
loop $-1 $-1 $122 $32 #
coedge $-1 $77 $77 $123 $124 reversed $48 $-1 #
face $-1 $125 $126 $26 $-1 $127 reversed single #
loop $-1 $-1 $128 $50 #
plane-surface $-1 28.589632535835875 -7.4115028982968738 51.415481367681451 0 0.77714596973225614 0.62932038083071107 1 0 0 forward_v I I I I #
coedge $-1 $129 $130 $131 $132 reversed $51 $-1 #
face $-1 $-1 $133 $27 $-1 $134 forward single #
loop $-1 $135 $136 $53 #
cone-surface $-1 28.589632535835875 24.928741805852891 9.0889701413680779 0 -0.77714596973225614 -0.62932038083071107 0.5 0 0 1 I I -0.70710678118654746 0.70710678118654746 0.5 forward I I I I #
loop $-1 $-1 $137 $34 #
coedge $-1 $86 $86 $138 $139 reversed $54 $-1 #
face $-1 $140 $141 $21 $-1 $142 reversed single #
loop $-1 $-1 $143 $56 #
plane-surface $-1 0 -28.655587196263401 0 0 1 0 0 0 1 forward_v I I I I #
coedge $-1 $144 $145 $146 $147 forward $57 $-1 #
coedge $-1 $148 $59 $149 $150 forward $36 $-1 #
coedge $-1 $59 $148 $151 $152 forward $36 $-1 #
coedge $-1 $153 $154 $59 $94 reversed $155 $-1 #
edge $-1 $156 -28.655587196263401 $157 28.655587196263401 $93 $158 forward 7 unknown #
face $-1 $159 $160 $22 $-1 $161 forward single #
loop $-1 $-1 $162 $60 #
plane-surface $-1 0 -28.655587196263401 0 0 1 0 0 0 1 forward_v I I I I #
coedge $-1 $163 $164 $165 $166 reversed $61 $-1 #
coedge $-1 $167 $63 $168 $169 reversed $39 $-1 #
coedge $-1 $63 $167 $163 $170 forward $39 $-1 #
coedge $-1 $165 $171 $63 $102 forward $160 $-1 #
edge $-1 $172 -36.421859270471423 $173 -9.4148018388436228 $101 $174 forward 7 unknown #
loop $-1 $-1 $108 $64 #
plane-surface $-1 45.836661109315045 -28.65558719626344 9.5472824144219928 0 -0.85716730853699208 0.51503806187062418 1 0 0 forward_v I I I I #
loop $-1 $-1 $175 $41 #
coedge $-1 $106 $106 $107 $176 reversed $65 $-1 #
coedge $-1 $107 $107 $106 $176 forward $67 $-1 #
coedge $-1 $108 $108 $68 $109 forward $103 $-1 #
edge $-1 $177 -2.809402137339094e-016 $177 6.2831853071796004 $108 $178 forward 7 unknown #
face $-1 $179 $180 $24 $-1 $181 forward single #
loop $-1 $-1 $182 $69 #
plane-surface $-1 -19.915227330730488 84.820475833195118 126.10346308631512 -1 0 0 0 0.77714596973225614 0.62932038083071107 forward_v I I I I #
coedge $-1 $183 $184 $185 $186 reversed $70 $-1 #
coedge $-1 $115 $72 $187 $188 reversed $45 $-1 #
coedge $-1 $72 $114 $183 $189 reversed $45 $-1 #
coedge $-1 $185 $190 $72 $117 forward $180 $-1 #
edge $-1 $191 13.754650720334158 $192 18.870926823124766 $116 $193 forward 7 unknown #
loop $-1 $-1 $123 $73 #
plane-surface $-1 -30.75055728929307 -7.4115028982968738 51.415481367681451 0 0.77714596973225614 0.62932038083071107 1 0 0 forward_v I I I I #
loop $-1 $-1 $194 $47 #
coedge $-1 $121 $121 $122 $195 reversed $74 $-1 #
coedge $-1 $122 $122 $121 $195 forward $76 $-1 #
coedge $-1 $123 $123 $77 $124 forward $118 $-1 #
edge $-1 $196 -1.9056705503134917e-015 $196 6.2831853071795987 $123 $197 forward 7 unknown #
face $-1 $198 $199 $26 $-1 $200 forward single #
loop $-1 $-1 $201 $78 #
plane-surface $-1 39.424962494398457 84.820475833195118 126.10346308631512 -1 0 0 0 0.77714596973225614 0.62932038083071107 forward_v I I I I #
coedge $-1 $202 $203 $204 $205 reversed $79 $-1 #
coedge $-1 $130 $81 $206 $207 reversed $51 $-1 #
coedge $-1 $81 $129 $202 $208 reversed $51 $-1 #
coedge $-1 $204 $209 $81 $132 forward $199 $-1 #
edge $-1 $210 13.754650720334158 $211 18.870926823124766 $131 $212 forward 7 unknown #
loop $-1 $-1 $138 $82 #
plane-surface $-1 28.589632535835875 -7.4115028982968738 51.415481367681451 0 0.77714596973225614 0.62932038083071107 1 0 0 forward_v I I I I #
loop $-1 $-1 $213 $53 #
coedge $-1 $136 $136 $137 $214 reversed $83 $-1 #
coedge $-1 $137 $137 $136 $214 forward $85 $-1 #
coedge $-1 $138 $138 $86 $139 forward $133 $-1 #
edge $-1 $215 -1.9056705503134917e-015 $215 6.2831853071795987 $138 $216 forward 7 unknown #
face $-1 $217 $218 $21 $-1 $219 reversed single #
loop $-1 $-1 $220 $87 #
plane-surface $-1 -59.340189825128945 0 0 1 0 0 0 0 -1 forward_v I I I I #
coedge $-1 $221 $151 $222 $223 forward $88 $-1 #
coedge $-1 $224 $90 $221 $225 forward $57 $-1 #
coedge $-1 $90 $224 $226 $227 forward $57 $-1 #
coedge $-1 $154 $153 $90 $147 reversed $155 $-1 #
edge $-1 $228 -28.655587196263401 $229 28.655587196263401 $146 $230 forward 7 unknown #
coedge $-1 $92 $91 $231 $232 forward $36 $-1 #
coedge $-1 $233 $234 $91 $150 reversed $218 $-1 #
edge $-1 $157 -59.340189825128945 $235 59.340189825128945 $149 $236 forward 7 unknown #
coedge $-1 $143 $237 $92 $152 reversed $88 $-1 #
edge $-1 $238 -59.340189825128945 $156 59.340189825128945 $151 $239 forward 7 unknown #
coedge $-1 $146 $93 $237 $240 forward $155 $-1 #
coedge $-1 $93 $146 $233 $241 reversed $155 $-1 #
loop $-1 $-1 $153 $217 #
vertex $-1 $94 $242 #
vertex $-1 $94 $243 #
straight-curve $-1 59.340189825128945 0 13.194408149163001 0 1 0 I I #
face $-1 $-1 $244 $22 $-1 $245 reversed single #
loop $-1 $-1 $165 $95 #
plane-surface $-1 0 0 13.194408149163001 0 0 1 1 0 0 forward_v I I I I #
coedge $-1 $246 $247 $164 $248 forward $96 $-1 #
coedge $-1 $164 $98 $100 $170 reversed $61 $-1 #
coedge $-1 $98 $163 $162 $248 reversed $61 $-1 #
coedge $-1 $249 $101 $98 $166 forward $160 $-1 #
edge $-1 $173 -38.728091353484686 $250 -36.536677202348301 $165 $251 forward 7 unknown #
coedge $-1 $100 $99 $246 $252 reversed $39 $-1 #
coedge $-1 $253 $254 $99 $169 forward $244 $-1 #
edge $-1 $255 -3.2875498601576929 $172 0.96730878694334432 $168 $256 forward 7 unknown #
edge $-1 $257 7.6465105850726993e-014 $173 4.2548586471011145 $163 $258 forward 7 unknown #
coedge $-1 $101 $249 $253 $259 forward $160 $-1 #
vertex $-1 $169 $260 #
vertex $-1 $102 $261 #
straight-curve $-1 22.918330554657523 -26.464173045127016 13.194408149163001 -1 0 0 I I #
coedge $-1 $175 $175 $-1 $262 reversed $105 $-1 #
edge $-1 $263 0 $263 6.2831853071796004 $106 $264 forward 7 unknown #
vertex $-1 $109 $265 #
ellipse-curve $-1 45.836661109315045 -27.559880120695219 11.37084528179251 0 -0.85716730853699208 0.51503806187062418 1 0 0 1 I I #
face $-1 $-1 $266 $24 $-1 $267 reversed single #
loop $-1 $-1 $116 $110 #
plane-surface $-1 0 0 13.194408149163001 0 0 1 1 0 0 forward_v I I I I #
coedge $-1 $268 $269 $270 $271 reversed $111 $-1 #
coedge $-1 $272 $113 $115 $189 forward $70 $-1 #
coedge $-1 $113 $272 $268 $273 forward $70 $-1 #
coedge $-1 $270 $116 $113 $186 forward $180 $-1 #
edge $-1 $192 -26.210608603209117 $274 -4.5399486860839531 $185 $275 forward 7 unknown #
coedge $-1 $276 $277 $114 $188 forward $266 $-1 #
edge $-1 $278 -56.175398375250808 $191 -49.857323393994555 $187 $279 forward 7 unknown #
edge $-1 $192 49.181331058934077 $278 57.311174392526823 $115 $280 forward 7 unknown #
coedge $-1 $116 $270 $276 $281 forward $180 $-1 #
vertex $-1 $188 $282 #
vertex $-1 $117 $283 #
straight-curve $-1 -41.585887247855652 42.410237916597559 13.194408149163003 0 -1 0 I I #
coedge $-1 $194 $194 $-1 $284 reversed $120 $-1 #
edge $-1 $285 0 $285 6.2831853071796004 $121 $286 forward 7 unknown #
vertex $-1 $124 $287 #
ellipse-curve $-1 -30.75055728929307 26.097449144868101 10.035370658534873 0 0.77714596973225614 0.62932038083071107 1 0 0 1 I I #
face $-1 $-1 $288 $26 $-1 $289 reversed single #
loop $-1 $-1 $131 $125 #
plane-surface $-1 0 0 13.194408149163001 0 0 1 1 0 0 forward_v I I I I #
coedge $-1 $290 $291 $292 $293 reversed $126 $-1 #
coedge $-1 $294 $128 $130 $208 forward $79 $-1 #
coedge $-1 $128 $294 $290 $295 forward $79 $-1 #
coedge $-1 $292 $131 $128 $205 forward $199 $-1 #
edge $-1 $211 3.4594863093553556 $296 25.13014622648052 $204 $297 forward 7 unknown #
coedge $-1 $298 $299 $129 $207 forward $288 $-1 #
edge $-1 $300 -56.175398375250808 $210 -49.857323393994555 $206 $301 forward 7 unknown #
edge $-1 $211 49.181331058934077 $300 57.311174392526823 $130 $302 forward 7 unknown #
coedge $-1 $131 $292 $298 $303 forward $199 $-1 #
vertex $-1 $132 $304 #
vertex $-1 $132 $305 #
straight-curve $-1 17.754302577273293 42.410237916597559 13.194408149163003 0 -1 0 I I #
coedge $-1 $213 $213 $-1 $306 reversed $135 $-1 #
edge $-1 $307 0 $307 6.2831853071796004 $136 $308 forward 7 unknown #
vertex $-1 $139 $309 #
ellipse-curve $-1 28.589632535835875 26.097449144868101 10.035370658534873 0 0.77714596973225614 0.62932038083071107 1 0 0 1 I I #
face $-1 $-1 $155 $21 $-1 $310 reversed single #
loop $-1 $-1 $233 $140 #
plane-surface $-1 0 28.655587196263401 0 0 -1 0 0 0 -1 forward_v I I I I #
coedge $-1 $311 $231 $234 $312 forward $141 $-1 #
coedge $-1 $237 $143 $144 $225 reversed $88 $-1 #
coedge $-1 $231 $311 $143 $223 reversed $141 $-1 #
edge $-1 $238 -13.194408149163001 $313 13.194408149163001 $222 $314 forward 7 unknown #
coedge $-1 $145 $144 $311 $315 forward $57 $-1 #
edge $-1 $229 -59.340189825128945 $313 59.340189825128945 $221 $316 forward 7 unknown #
coedge $-1 $234 $233 $145 $227 reversed $218 $-1 #
edge $-1 $317 -59.340189825128945 $228 59.340189825128945 $226 $318 forward 7 unknown #
vertex $-1 $147 $319 #
vertex $-1 $240 $320 #
straight-curve $-1 59.340189825128945 0 -13.194408149163001 0 -1 0 I I #
coedge $-1 $220 $222 $148 $232 reversed $141 $-1 #
edge $-1 $235 -28.655587196263401 $238 28.655587196263401 $231 $321 forward 7 unknown #
coedge $-1 $226 $149 $154 $241 forward $218 $-1 #
coedge $-1 $149 $226 $220 $312 reversed $218 $-1 #
vertex $-1 $150 $322 #
straight-curve $-1 0 28.655587196263401 13.194408149163001 -1 0 0 I I #
coedge $-1 $151 $221 $153 $240 reversed $88 $-1 #
vertex $-1 $232 $323 #
straight-curve $-1 0 -28.655587196263401 13.194408149163001 1 0 0 I I #
edge $-1 $156 -13.194408149163001 $229 13.194408149163001 $153 $324 forward 7 unknown #
edge $-1 $157 -13.194408149163001 $228 13.194408149163001 $154 $325 forward 7 unknown #
point $-1 59.340189825128945 -28.655587196263401 13.194408149163001 #
point $-1 59.340189825128945 28.655587196263401 13.194408149163001 #
loop $-1 $-1 $168 $159 #
plane-surface $-1 59.340189825128945 0 0 -1 0 0 0 0 1 forward_v I I I I #
coedge $-1 $326 $162 $167 $252 forward $96 $-1 #
coedge $-1 $162 $326 $249 $327 reversed $96 $-1 #
edge $-1 $250 22.141689416617339 $257 25.788815151358286 $162 $328 forward 7 unknown #
coedge $-1 $171 $165 $247 $327 forward $160 $-1 #
vertex $-1 $327 $329 #
straight-curve $-1 32.333132393501145 -65.192264398611698 13.194408149163003 0 -1 0 I I #
edge $-1 $257 9.4148018388436228 $255 36.421859270471423 $246 $330 forward 7 unknown #
coedge $-1 $254 $168 $171 $259 reversed $244 $-1 #
coedge $-1 $168 $253 $326 $331 forward $244 $-1 #
vertex $-1 $252 $332 #
straight-curve $-1 59.340189825128945 -26.962373887984739 12.365262679734592 0 0.51503806187062429 0.85716730853699219 I I #
vertex $-1 $252 $333 #
straight-curve $-1 32.333132393501145 -28.65558719626344 9.5472824144219928 0 0.51503806187062418 0.85716730853699208 I I #
edge $-1 $334 -28.655587196263401 $172 -26.464173045127016 $253 $335 forward 7 unknown #
point $-1 59.340189825128945 -26.464173045127016 13.194408149163001 #
point $-1 32.333132393501145 -26.464173045127016 13.194408149163001 #
edge $-1 $336 1 $336 0 $175 $-1 forward 7 unknown #
vertex $-1 $176 $337 #
ellipse-curve $-1 45.836661109315045 -26.38236395933847 10.663322216544454 0 -0.85716730853699208 0.51503806187062418 1 0 0 1 I I #
point $-1 46.836661109315045 -27.559880120695187 11.370845281792491 #
loop $-1 $-1 $187 $179 #
plane-surface $-1 0 28.655587196263401 0 0 -1 0 0 0 -1 forward_v I I I I #
coedge $-1 $269 $182 $184 $273 reversed $111 $-1 #
coedge $-1 $182 $268 $338 $339 reversed $111 $-1 #
coedge $-1 $190 $185 $182 $271 forward $180 $-1 #
edge $-1 $274 -18.870926823124766 $340 -13.754650720334158 $270 $341 forward 7 unknown #
coedge $-1 $184 $183 $277 $342 reversed $70 $-1 #
edge $-1 $343 -57.311174392526823 $274 -49.181331058934077 $268 $344 forward 7 unknown #
vertex $-1 $186 $345 #
straight-curve $-1 -15.375278644646535 23.539311093472786 13.194408149163003 1 0 0 I I #
coedge $-1 $338 $187 $190 $281 reversed $266 $-1 #
coedge $-1 $187 $338 $272 $342 forward $266 $-1 #
vertex $-1 $188 $346 #
straight-curve $-1 -41.585887247855652 28.655587196263401 63.051731543157558 0 0 1 I I #
straight-curve $-1 -41.585887247855652 -7.4115028982968738 51.415481367681451 0 0.62932038083071107 -0.77714596973225614 I I #
edge $-1 $340 19.915227330730488 $191 41.585887247855652 $276 $347 forward 7 unknown #
point $-1 -41.585887247855652 28.655587196263401 13.194408149163001 #
point $-1 -41.585887247855652 23.539311093472794 13.194408149163003 #
edge $-1 $348 1 $348 0 $194 $-1 forward 7 unknown #
vertex $-1 $195 $349 #
ellipse-curve $-1 -30.75055728929307 25.317314790719017 9.4036303317834342 0 0.77714596973225614 0.62932038083071107 1 0 0 1 I I #
point $-1 -29.75055728929307 26.097449144868104 10.035370658534879 #
loop $-1 $-1 $206 $198 #
plane-surface $-1 0 28.655587196263401 0 0 -1 0 0 0 -1 forward_v I I I I #
coedge $-1 $291 $201 $203 $295 reversed $126 $-1 #
coedge $-1 $201 $290 $350 $351 reversed $126 $-1 #
coedge $-1 $209 $204 $201 $293 forward $199 $-1 #
edge $-1 $296 -18.870926823124766 $352 -13.754650720334158 $292 $353 forward 7 unknown #
coedge $-1 $203 $202 $299 $354 reversed $79 $-1 #
edge $-1 $355 -57.311174392526823 $296 -49.181331058934077 $290 $356 forward 7 unknown #
vertex $-1 $205 $357 #
straight-curve $-1 14.294816267917938 23.539311093472786 13.194408149163003 1 0 0 I I #
coedge $-1 $350 $206 $209 $303 reversed $288 $-1 #
coedge $-1 $206 $350 $294 $354 forward $288 $-1 #
vertex $-1 $207 $358 #
straight-curve $-1 17.754302577273293 28.655587196263401 63.051731543157558 0 0 1 I I #
straight-curve $-1 17.754302577273293 -7.4115028982968738 51.415481367681451 0 0.62932038083071107 -0.77714596973225614 I I #
edge $-1 $352 -39.424962494398457 $210 -17.754302577273293 $298 $359 forward 7 unknown #
point $-1 17.754302577273293 28.655587196263401 13.194408149163001 #
point $-1 17.754302577273293 23.539311093472794 13.194408149163003 #
edge $-1 $360 1 $360 0 $213 $-1 forward 7 unknown #
vertex $-1 $214 $361 #
ellipse-curve $-1 28.589632535835875 25.317314790719017 9.4036303317834342 0 0.77714596973225614 0.62932038083071107 1 0 0 1 I I #
point $-1 29.589632535835875 26.097449144868104 10.035370658534879 #
plane-surface $-1 59.340189825128945 0 0 -1 0 0 0 0 1 forward_v I I I I #
coedge $-1 $222 $220 $224 $315 reversed $141 $-1 #
edge $-1 $235 -13.194408149163001 $317 13.194408149163001 $234 $362 forward 7 unknown #
vertex $-1 $315 $363 #
straight-curve $-1 -59.340189825128945 -28.655587196263401 0 0 0 -1 I I #
edge $-1 $313 -28.655587196263401 $317 28.655587196263401 $311 $364 forward 7 unknown #
straight-curve $-1 0 -28.655587196263401 -13.194408149163001 -1 0 0 I I #
vertex $-1 $227 $365 #
straight-curve $-1 0 28.655587196263401 -13.194408149163001 1 0 0 I I #
point $-1 59.340189825128945 28.655587196263401 -13.194408149163001 #
point $-1 59.340189825128945 -28.655587196263401 -13.194408149163001 #
straight-curve $-1 -59.340189825128945 0 13.194408149163001 0 -1 0 I I #
point $-1 -59.340189825128945 28.655587196263401 13.194408149163001 #
point $-1 -59.340189825128945 -28.655587196263401 13.194408149163001 #
straight-curve $-1 59.340189825128945 -28.655587196263401 0 0 0 -1 I I #
straight-curve $-1 59.340189825128945 28.655587196263401 0 0 0 -1 I I #
coedge $-1 $247 $246 $254 $331 reversed $96 $-1 #
edge $-1 $250 32.333132393501145 $334 59.340189825128945 $247 $366 forward 7 unknown #
straight-curve $-1 32.333132393501145 -28.655587196263397 35.336097565780342 0 0 -1 I I #
point $-1 32.333132393501145 -28.655587196263401 13.194408149163001 #
straight-curve $-1 22.918330554657523 -28.655587196263401 9.5472824144220532 1 0 0 I I #
edge $-1 $334 -13.194408149163001 $255 -9.5472824144220585 $254 $367 forward 7 unknown #
point $-1 59.340189825128945 -28.655587196263401 9.5472824144220585 #
point $-1 32.333132393501145 -28.655587196263401 9.5472824144220585 #
vertex $-1 $259 $368 #
straight-curve $-1 59.340189825128945 0 13.194408149163001 0 1 0 I I #
vertex $-1 $262 $369 #
point $-1 46.836661109315045 -26.38236395933847 10.663322216544454 #
coedge $-1 $277 $276 $269 $339 forward $266 $-1 #
edge $-1 $340 49.857323393994555 $343 56.175398375250808 $338 $370 forward 7 unknown #
vertex $-1 $281 $371 #
straight-curve $-1 -19.915227330730488 42.410237916597559 13.194408149163003 0 1 0 I I #
edge $-1 $343 4.5399486860839531 $278 26.210608603209117 $277 $372 forward 7 unknown #
vertex $-1 $342 $373 #
straight-curve $-1 -19.915227330730488 -7.4115028982968738 51.415481367681451 0 -0.62932038083071107 0.77714596973225614 I I #
point $-1 -19.915227330730488 23.539311093472794 13.194408149163003 #
point $-1 -41.585887247855652 28.655587196263397 6.8763331679067505 #
straight-curve $-1 0 28.655587196263401 13.194408149163001 -1 0 0 I I #
vertex $-1 $284 $374 #
point $-1 -29.75055728929307 25.317314790719017 9.4036303317834342 #
coedge $-1 $299 $298 $291 $351 forward $288 $-1 #
edge $-1 $352 49.857323393994555 $355 56.175398375250808 $350 $375 forward 7 unknown #
vertex $-1 $303 $376 #
straight-curve $-1 39.424962494398457 42.410237916597559 13.194408149163003 0 1 0 I I #
edge $-1 $355 -25.13014622648052 $300 -3.4594863093553556 $299 $377 forward 7 unknown #
vertex $-1 $354 $378 #
straight-curve $-1 39.424962494398457 -7.4115028982968738 51.415481367681451 0 -0.62932038083071107 0.77714596973225614 I I #
point $-1 39.424962494398457 23.539311093472794 13.194408149163003 #
point $-1 17.754302577273293 28.655587196263397 6.8763331679067505 #
straight-curve $-1 0 28.655587196263401 13.194408149163001 -1 0 0 I I #
vertex $-1 $306 $379 #
point $-1 29.589632535835875 25.317314790719017 9.4036303317834342 #
straight-curve $-1 -59.340189825128945 28.655587196263401 0 0 0 -1 I I #
point $-1 -59.340189825128945 -28.655587196263401 -13.194408149163001 #
straight-curve $-1 -59.340189825128945 0 -13.194408149163001 0 1 0 I I #
point $-1 -59.340189825128945 28.655587196263401 -13.194408149163001 #
straight-curve $-1 0 -28.655587196263401 13.194408149163001 1 0 0 I I #
straight-curve $-1 59.340189825128945 -28.655587196263401 0 0 0 -1 I I #
point $-1 59.340189825128945 -28.655587196263401 13.194408149163001 #
point $-1 45.836661109315045 -25.525196650801476 10.148284154673831 #
straight-curve $-1 -19.915227330730488 28.655587196263401 63.051731543157558 0 0 -1 I I #
point $-1 -19.915227330730488 28.655587196263401 13.194408149163001 #
straight-curve $-1 -15.375278644646535 28.655587196263401 6.8763331679067505 -1 0 0 I I #
point $-1 -19.915227330730488 28.655587196263397 6.8763331679067505 #
point $-1 -30.75055728929307 24.540168820986764 8.7743099509527216 #
straight-curve $-1 39.424962494398457 28.655587196263401 63.051731543157558 0 0 -1 I I #
point $-1 39.424962494398457 28.655587196263401 13.194408149163001 #
straight-curve $-1 14.294816267917938 28.655587196263401 6.8763331679067505 -1 0 0 I I #
point $-1 39.424962494398457 28.655587196263397 6.8763331679067505 #
point $-1 28.589632535835875 24.540168820986764 8.7743099509527216 #
End-of-ACIS-data 