500 0 8 0           
7 Unknown 11 ACIS 5.0 NT 24 Fri Mar 26 00:21:12 1999 
-1 9.9999999999999995e-007 1e-010 
body $-1 $8 $-1 $9 #
body $-1 $10 $-1 $11 #
body $-1 $12 $-1 $13 #
body $-1 $14 $-1 $15 #
body $-1 $16 $-1 $17 #
body $-1 $18 $-1 $19 #
body $-1 $20 $-1 $21 #
body $-1 $22 $-1 $23 #
lump $-1 $-1 $24 $0 #
transform $-1 1 0 0 0 1 0 0 0 1 63.351542710654009 37.726329932950577 15.474392515788518 1 rotate no_reflect no_shear #
lump $-1 $-1 $25 $1 #
transform $-1 1 0 0 0 1 0 0 0 1 63.351542710654009 37.726329932950577 15.474392515788518 1 rotate no_reflect no_shear #
lump $-1 $-1 $26 $2 #
transform $-1 1 0 0 0 1 0 0 0 1 63.351542710654009 37.726329932950577 15.474392515788518 1 rotate no_reflect no_shear #
lump $-1 $-1 $27 $3 #
transform $-1 1 0 0 0 1 0 0 0 1 63.351542710654009 37.726329932950577 15.474392515788518 1 rotate no_reflect no_shear #
lump $-1 $-1 $28 $4 #
transform $-1 1 0 0 0 1 0 0 0 1 63.351542710654009 37.726329932950577 15.474392515788518 1 rotate no_reflect no_shear #
lump $-1 $-1 $29 $5 #
transform $-1 1 0 0 0 1 0 0 0 1 63.351542710654009 37.726329932950577 15.474392515788518 1 rotate no_reflect no_shear #
lump $-1 $-1 $30 $6 #
transform $-1 1 0 0 0 1 0 0 0 1 63.351542710654009 37.726329932950577 15.474392515788518 1 rotate no_reflect no_shear #
lump $-1 $-1 $31 $7 #
transform $-1 1 0 0 0 1 0 0 0 1 63.351542710654009 37.726329932950577 15.474392515788518 1 rotate no_reflect no_shear #
shell $-1 $-1 $-1 $32 $-1 $8 #
shell $-1 $-1 $-1 $33 $-1 $10 #
shell $-1 $-1 $-1 $34 $-1 $12 #
shell $-1 $-1 $-1 $35 $-1 $14 #
shell $-1 $-1 $-1 $36 $-1 $16 #
shell $-1 $-1 $-1 $37 $-1 $18 #
shell $-1 $-1 $-1 $38 $-1 $20 #
shell $-1 $-1 $-1 $39 $-1 $22 #
face $-1 $40 $41 $24 $-1 $42 reversed single #
face $-1 $43 $44 $25 $-1 $45 forward single #
face $-1 $46 $47 $26 $-1 $48 reversed single #
face $-1 $49 $50 $27 $-1 $51 forward single #
face $-1 $52 $53 $28 $-1 $54 forward single #
face $-1 $55 $56 $29 $-1 $57 reversed single #
face $-1 $58 $59 $30 $-1 $60 forward single #
face $-1 $61 $62 $31 $-1 $63 forward single #
face $-1 $64 $65 $24 $-1 $66 forward single #
loop $-1 $-1 $67 $32 #
plane-surface $-1 0 -37.726329932950577 0 0 1 0 0 0 1 forward_v I I I I #
face $-1 $68 $69 $25 $-1 $70 forward single #
loop $-1 $-1 $71 $33 #
plane-surface $-1 0 -37.726329932950577 0 0 1 0 0 0 1 forward_v I I I I #
face $-1 $72 $73 $26 $-1 $74 reversed single #
loop $-1 $-1 $75 $34 #
plane-surface $-1 -156.01631428724872 -20.378056346600275 91.402651295012021 0 1 0 -0.73135370988377701 0 0.68199835119979291 forward_v I I I I #
face $-1 $76 $77 $27 $-1 $78 forward single #
loop $-1 $79 $80 $35 #
cone-surface $-1 -57.845633877250691 -15.710563991424468 9.6564735429157782 0.73135370988377701 0 -0.68199835119979291 0.68199835119979291 0 0.73135370988377701 1 I I 0 1 1 forward I I I I #
face $-1 $81 $82 $28 $-1 $83 forward single #
loop $-1 $84 $85 $36 #
cone-surface $-1 -57.845633877250691 -8.7093254586607571 9.6564735429157782 0.73135370988377701 0 -0.68199835119979291 0.68199835119979291 0 0.73135370988377701 1 I I 0 1 1 forward I I I I #
face $-1 $86 $87 $29 $-1 $88 reversed single #
loop $-1 $-1 $89 $37 #
plane-surface $-1 69.605018937990138 -4.0418331034849473 184.06742287160677 0 -1 0 -0.73135370988377701 0 -0.68199835119979291 forward_v I I I I #
face $-1 $90 $91 $30 $-1 $92 forward single #
loop $-1 $93 $94 $38 #
cone-surface $-1 57.845633877250705 -15.710563991424468 9.6564735429157782 -0.73135370988377701 0 -0.68199835119979291 0.68199835119979291 0 -0.73135370988377701 1 I I 0 1 1 forward I I I I #
face $-1 $95 $96 $31 $-1 $97 forward single #
loop $-1 $98 $99 $39 #
cone-surface $-1 57.845633877250705 -8.7093254586607571 9.6564735429157782 -0.73135370988377701 0 -0.68199835119979291 0.68199835119979291 0 -0.73135370988377701 1 I I 0 1 1 forward I I I I #
face $-1 $100 $101 $24 $-1 $102 reversed single #
loop $-1 $-1 $103 $40 #
plane-surface $-1 0 0 15.474392515788518 0 0 1 1 0 0 forward_v I I I I #
coedge $-1 $104 $105 $106 $107 reversed $41 $-1 #
face $-1 $108 $109 $25 $-1 $110 reversed single #
loop $-1 $-1 $111 $43 #
plane-surface $-1 0 0 15.474392515788518 0 0 1 1 0 0 forward_v I I I I #
coedge $-1 $112 $113 $114 $115 forward $44 $-1 #
face $-1 $116 $117 $26 $-1 $118 reversed single #
loop $-1 $-1 $119 $46 #
plane-surface $-1 -63.351542710654002 -12.209944725042611 4.9913559457534404 -0.73135370988377701 0 0.68199835119979291 0.68199835119979291 0 0.73135370988377701 forward_v I I I I #
coedge $-1 $120 $121 $122 $123 reversed $47 $-1 #
face $-1 $-1 $124 $27 $-1 $125 forward single #
loop $-1 $126 $127 $49 #
cone-surface $-1 -56.86184294519871 -15.710563991424468 8.7390736794606791 0.73135370988377701 0 -0.68199835119979291 0.34099917559989645 0 0.36567685494188851 1 I I -0.70710678118654746 0.70710678118654746 0.5 forward I I I I #
loop $-1 $-1 $128 $35 #
coedge $-1 $80 $80 $129 $130 reversed $50 $-1 #
face $-1 $-1 $131 $28 $-1 $132 forward single #
loop $-1 $133 $134 $52 #
cone-surface $-1 -56.86184294519871 -8.7093254586607571 8.7390736794606791 0.73135370988377701 0 -0.68199835119979291 0.34099917559989645 0 0.36567685494188851 1 I I -0.70710678118654746 0.70710678118654746 0.5 forward I I I I #
loop $-1 $-1 $135 $36 #
coedge $-1 $85 $85 $136 $137 reversed $53 $-1 #
face $-1 $138 $139 $29 $-1 $140 reversed single #
loop $-1 $-1 $141 $55 #
plane-surface $-1 -23.059752638604579 -12.209944725042611 97.656127522348186 0.73135370988377701 0 0.68199835119979291 0.68199835119979291 0 -0.73135370988377701 forward_v I I I I #
coedge $-1 $142 $143 $144 $145 reversed $56 $-1 #
face $-1 $-1 $146 $30 $-1 $147 forward single #
loop $-1 $148 $149 $58 #
cone-surface $-1 56.861842945198724 -15.710563991424468 8.7390736794606791 -0.73135370988377701 0 -0.68199835119979291 0.34099917559989645 0 -0.36567685494188851 1 I I -0.70710678118654746 0.70710678118654746 0.5 forward I I I I #
loop $-1 $-1 $150 $38 #
coedge $-1 $94 $94 $151 $152 reversed $59 $-1 #
face $-1 $-1 $153 $31 $-1 $154 forward single #
loop $-1 $155 $156 $61 #
cone-surface $-1 56.861842945198724 -8.7093254586607571 8.7390736794606791 -0.73135370988377701 0 -0.68199835119979291 0.34099917559989645 0 -0.36567685494188851 1 I I -0.70710678118654746 0.70710678118654746 0.5 forward I I I I #
loop $-1 $-1 $157 $39 #
coedge $-1 $99 $99 $158 $159 reversed $62 $-1 #
face $-1 $160 $161 $24 $-1 $162 reversed single #
loop $-1 $-1 $163 $64 #
plane-surface $-1 0 0 -15.474392515788518 0 0 1 1 0 0 forward_v I I I I #
coedge $-1 $164 $165 $166 $167 forward $65 $-1 #
coedge $-1 $168 $67 $169 $170 reversed $41 $-1 #
coedge $-1 $67 $168 $171 $172 forward $41 $-1 #
coedge $-1 $173 $163 $67 $107 forward $101 $-1 #
edge $-1 $174 -63.351542710654009 $175 63.351542710654009 $67 $176 forward 7 unknown #
face $-1 $177 $178 $25 $-1 $179 reversed single #
loop $-1 $-1 $180 $68 #
plane-surface $-1 -63.351542710654009 0 0 1 0 0 0 0 -1 forward_v I I I I #
coedge $-1 $181 $182 $113 $183 forward $69 $-1 #
coedge $-1 $184 $71 $185 $186 reversed $44 $-1 #
coedge $-1 $71 $184 $111 $183 reversed $44 $-1 #
coedge $-1 $187 $188 $71 $115 reversed $189 $-1 #
edge $-1 $190 -15.474392515788518 $191 15.474392515788518 $114 $192 forward 7 unknown #
face $-1 $193 $194 $26 $-1 $195 reversed single #
loop $-1 $-1 $196 $72 #
plane-surface $-1 -156.01631428724872 -4.0418331034849473 91.402651295012021 0 -1 0 0.73135370988377701 0 -0.68199835119979291 forward_v I I I I #
coedge $-1 $197 $198 $199 $200 reversed $73 $-1 #
coedge $-1 $121 $75 $201 $202 reversed $47 $-1 #
coedge $-1 $75 $120 $197 $203 reversed $47 $-1 #
coedge $-1 $199 $204 $75 $123 forward $205 $-1 #
edge $-1 $206 14.65661443297035 $207 24.432203945556822 $122 $208 forward 7 unknown #
loop $-1 $-1 $129 $76 #
plane-surface $-1 -63.351542710654002 -12.209944725042611 4.9913559457534404 -0.73135370988377701 0 0.68199835119979291 0.68199835119979291 0 0.73135370988377701 forward_v I I I I #
loop $-1 $-1 $209 $49 #
coedge $-1 $127 $127 $128 $210 reversed $77 $-1 #
coedge $-1 $128 $128 $127 $210 forward $79 $-1 #
coedge $-1 $129 $129 $80 $130 forward $124 $-1 #
edge $-1 $211 0 $211 6.2831853071796004 $129 $212 forward 7 unknown #
loop $-1 $-1 $136 $81 #
plane-surface $-1 -63.351542710654002 -12.209944725042611 4.9913559457534404 -0.73135370988377701 0 0.68199835119979291 0.68199835119979291 0 0.73135370988377701 forward_v I I I I #
loop $-1 $-1 $213 $52 #
coedge $-1 $134 $134 $135 $214 reversed $82 $-1 #
coedge $-1 $135 $135 $134 $214 forward $84 $-1 #
coedge $-1 $136 $136 $85 $137 forward $131 $-1 #
edge $-1 $215 0 $215 6.2831853071796004 $136 $216 forward 7 unknown #
face $-1 $217 $218 $29 $-1 $219 forward single #
loop $-1 $-1 $220 $86 #
plane-surface $-1 69.605018937990138 -20.378056346600275 184.06742287160677 0 1 0 0.73135370988377701 0 0.68199835119979291 forward_v I I I I #
coedge $-1 $221 $222 $223 $224 reversed $87 $-1 #
coedge $-1 $143 $89 $225 $226 reversed $56 $-1 #
coedge $-1 $89 $142 $221 $227 reversed $56 $-1 #
coedge $-1 $223 $228 $89 $145 forward $218 $-1 #
edge $-1 $229 -28.54903324165894 $230 -18.773443729072483 $144 $231 forward 7 unknown #
loop $-1 $-1 $151 $90 #
plane-surface $-1 -23.059752638604579 -12.209944725042611 97.656127522348186 0.73135370988377701 0 0.68199835119979291 0.68199835119979291 0 -0.73135370988377701 forward_v I I I I #
loop $-1 $-1 $232 $58 #
coedge $-1 $149 $149 $150 $233 reversed $91 $-1 #
coedge $-1 $150 $150 $149 $233 forward $93 $-1 #
coedge $-1 $151 $151 $94 $152 forward $146 $-1 #
edge $-1 $234 0 $234 6.2831853071796004 $151 $235 forward 7 unknown #
loop $-1 $-1 $158 $95 #
plane-surface $-1 -23.059752638604579 -12.209944725042611 97.656127522348186 0.73135370988377701 0 0.68199835119979291 0.68199835119979291 0 -0.73135370988377701 forward_v I I I I #
loop $-1 $-1 $236 $61 #
coedge $-1 $156 $156 $157 $237 reversed $96 $-1 #
coedge $-1 $157 $157 $156 $237 forward $98 $-1 #
coedge $-1 $158 $158 $99 $159 forward $153 $-1 #
edge $-1 $238 0 $238 6.2831853071796004 $158 $239 forward 7 unknown #
face $-1 $240 $241 $24 $-1 $242 reversed single #
loop $-1 $-1 $243 $100 #
plane-surface $-1 -63.351542710654009 0 0 1 0 0 0 0 -1 forward_v I I I I #
coedge $-1 $106 $244 $245 $246 forward $101 $-1 #
coedge $-1 $247 $103 $248 $249 forward $65 $-1 #
coedge $-1 $103 $247 $168 $250 forward $65 $-1 #
coedge $-1 $169 $251 $103 $167 reversed $252 $-1 #
edge $-1 $253 -37.726329932950577 $254 37.726329932950577 $166 $255 forward 7 unknown #
coedge $-1 $105 $104 $165 $250 reversed $41 $-1 #
coedge $-1 $245 $166 $104 $170 forward $252 $-1 #
edge $-1 $253 -15.474392515788518 $174 15.474392515788518 $169 $256 forward 7 unknown #
coedge $-1 $257 $258 $105 $172 reversed $161 $-1 #
edge $-1 $259 -15.474392515788518 $175 15.474392515788518 $171 $260 forward 7 unknown #
coedge $-1 $244 $106 $258 $261 forward $101 $-1 #
vertex $-1 $170 $262 #
vertex $-1 $261 $263 #
straight-curve $-1 0 -37.726329932950577 -15.474392515788518 -1 0 0 I I #
face $-1 $264 $189 $25 $-1 $265 reversed single #
loop $-1 $-1 $266 $108 #
plane-surface $-1 -60.993713201892838 -55.074603519300879 0 0 1 0 0 0 1 forward_v I I I I #
coedge $-1 $267 $268 $184 $269 forward $109 $-1 #
coedge $-1 $270 $111 $268 $271 forward $69 $-1 #
coedge $-1 $111 $270 $187 $272 forward $69 $-1 #
edge $-1 $190 58.635883693131667 $273 63.351542710654009 $111 $274 forward 7 unknown #
coedge $-1 $113 $112 $180 $269 reversed $44 $-1 #
coedge $-1 $275 $276 $112 $186 forward $277 $-1 #
edge $-1 $278 -63.351542710654009 $191 -58.635883693131667 $185 $279 forward 7 unknown #
coedge $-1 $280 $114 $182 $272 reversed $189 $-1 #
coedge $-1 $114 $280 $275 $281 reversed $189 $-1 #
loop $-1 $-1 $280 $177 #
vertex $-1 $183 $282 #
vertex $-1 $281 $283 #
straight-curve $-1 -58.635883693131667 -37.726329932950577 0 0 0 -1 I I #
face $-1 $-1 $205 $26 $-1 $284 forward single #
loop $-1 $-1 $285 $116 #
plane-surface $-1 -63.351542710654009 0 0 1 0 0 0 0 -1 forward_v I I I I #
coedge $-1 $286 $287 $288 $289 reversed $117 $-1 #
coedge $-1 $290 $119 $121 $203 forward $73 $-1 #
coedge $-1 $119 $290 $286 $291 forward $73 $-1 #
coedge $-1 $288 $122 $119 $200 forward $205 $-1 #
edge $-1 $207 -14.273083984078969 $292 2.0631392590363582 $199 $293 forward 7 unknown #
coedge $-1 $294 $295 $120 $202 forward $194 $-1 #
edge $-1 $296 -40.709969701752577 $206 -30.226933131717495 $201 $297 forward 7 unknown #
edge $-1 $207 -14.333743615932415 $296 1.0692042983031357e-014 $121 $298 forward 7 unknown #
coedge $-1 $122 $288 $294 $299 forward $205 $-1 #
loop $-1 $-1 $288 $193 #
vertex $-1 $202 $300 #
vertex $-1 $123 $301 #
straight-curve $-1 -78.008157143624359 -20.378056346600275 15.474392515788516 1 0 0 I I #
coedge $-1 $209 $209 $-1 $302 reversed $126 $-1 #
edge $-1 $303 0 $303 6.2831853071796004 $127 $304 forward 7 unknown #
vertex $-1 $130 $305 #
ellipse-curve $-1 -58.463747954360777 -15.710563991424468 10.232874230770975 -0.73135370988377701 0 0.68199835119979291 0.68199835119979291 0 0.73135370988377701 1 I I #
coedge $-1 $213 $213 $-1 $306 reversed $133 $-1 #
edge $-1 $307 0 $307 6.2831853071796004 $134 $308 forward 7 unknown #
vertex $-1 $137 $309 #
ellipse-curve $-1 -58.463747954360777 -8.7093254586607571 10.232874230770975 -0.73135370988377701 0 0.68199835119979291 0.68199835119979291 0 0.73135370988377701 1 I I #
face $-1 $-1 $310 $29 $-1 $311 reversed single #
loop $-1 $-1 $144 $138 #
plane-surface $-1 0 0 15.474392515788518 0 0 1 1 0 0 forward_v I I I I #
coedge $-1 $312 $313 $314 $315 reversed $139 $-1 #
coedge $-1 $316 $141 $143 $227 forward $87 $-1 #
coedge $-1 $141 $316 $312 $317 forward $87 $-1 #
coedge $-1 $314 $144 $141 $224 forward $218 $-1 #
edge $-1 $230 -2.0631392590363582 $318 14.273083984078969 $223 $319 forward 7 unknown #
coedge $-1 $320 $321 $142 $226 forward $310 $-1 #
edge $-1 $322 -87.042355490049914 $229 -76.55931892001486 $225 $323 forward 7 unknown #
edge $-1 $230 112.36934180537563 $322 126.703085421308 $143 $324 forward 7 unknown #
coedge $-1 $144 $314 $320 $325 forward $218 $-1 #
vertex $-1 $145 $326 #
vertex $-1 $145 $327 #
straight-curve $-1 34.802509468995069 -4.0418331034849473 15.474392515788523 -1 0 0 I I #
coedge $-1 $232 $232 $-1 $328 reversed $148 $-1 #
edge $-1 $329 0 $329 6.2831853071796004 $149 $330 forward 7 unknown #
vertex $-1 $152 $331 #
ellipse-curve $-1 58.463747954360798 -15.710563991424468 10.23287423077098 0.73135370988377701 0 0.68199835119979291 0.68199835119979291 0 -0.73135370988377701 1 I I #
coedge $-1 $236 $236 $-1 $332 reversed $155 $-1 #
edge $-1 $333 0 $333 6.2831853071796004 $156 $334 forward 7 unknown #
vertex $-1 $159 $335 #
ellipse-curve $-1 58.463747954360798 -8.7093254586607571 10.23287423077098 0.73135370988377701 0 0.68199835119979291 0.68199835119979291 0 -0.73135370988377701 1 I I #
face $-1 $-1 $252 $24 $-1 $336 reversed single #
loop $-1 $-1 $337 $160 #
plane-surface $-1 0 37.726329932950577 0 0 -1 0 0 0 -1 forward_v I I I I #
coedge $-1 $258 $257 $338 $339 forward $161 $-1 #
coedge $-1 $163 $173 $340 $341 forward $101 $-1 #
coedge $-1 $251 $169 $163 $246 reversed $252 $-1 #
edge $-1 $342 -37.726329932950577 $174 37.726329932950577 $245 $343 forward 7 unknown #
coedge $-1 $165 $164 $257 $344 forward $65 $-1 #
coedge $-1 $337 $338 $164 $249 reversed $241 $-1 #
edge $-1 $254 -63.351542710654009 $345 63.351542710654009 $248 $346 forward 7 unknown #
edge $-1 $259 -63.351542710654009 $253 63.351542710654009 $168 $347 forward 7 unknown #
coedge $-1 $166 $245 $337 $348 reversed $252 $-1 #
loop $-1 $-1 $169 $240 #
vertex $-1 $167 $349 #
vertex $-1 $167 $350 #
straight-curve $-1 63.351542710654009 0 15.474392515788518 0 1 0 I I #
straight-curve $-1 63.351542710654009 -37.726329932950577 0 0 0 -1 I I #
coedge $-1 $243 $171 $247 $344 reversed $161 $-1 #
coedge $-1 $171 $243 $173 $261 reversed $161 $-1 #
vertex $-1 $344 $351 #
straight-curve $-1 -63.351542710654009 -37.726329932950577 0 0 0 -1 I I #
edge $-1 $175 -37.726329932950577 $352 37.726329932950577 $258 $353 forward 7 unknown #
point $-1 63.351542710654009 -37.726329932950577 -15.474392515788518 #
point $-1 -63.351542710654009 -37.726329932950577 -15.474392515788518 #
face $-1 $-1 $277 $25 $-1 $354 reversed single #
plane-surface $-1 -58.635883693131667 -46.400466726125728 0 -1 0 0 0 0 1 forward_v I I I I #
coedge $-1 $355 $356 $357 $358 forward $178 $-1 #
coedge $-1 $357 $180 $276 $359 reversed $109 $-1 #
coedge $-1 $180 $357 $181 $271 reversed $109 $-1 #
edge $-1 $273 -15.474392515788518 $278 15.474392515788518 $180 $360 forward 7 unknown #
coedge $-1 $182 $181 $356 $361 forward $69 $-1 #
edge $-1 $273 37.726329932950577 $362 55.074603519300879 $268 $363 forward 7 unknown #
edge $-1 $364 -8.6741367931751512 $190 8.6741367931751512 $187 $365 forward 7 unknown #
vertex $-1 $271 $366 #
straight-curve $-1 0 -37.726329932950577 15.474392515788518 -1 0 0 I I #
coedge $-1 $367 $185 $188 $281 forward $277 $-1 #
coedge $-1 $185 $367 $267 $359 forward $277 $-1 #
loop $-1 $-1 $185 $264 #
vertex $-1 $269 $368 #
straight-curve $-1 0 -37.726329932950577 -15.474392515788518 1 0 0 I I #
coedge $-1 $188 $187 $369 $370 forward $189 $-1 #
edge $-1 $191 -8.6741367931751512 $371 8.6741367931751512 $188 $372 forward 7 unknown #
point $-1 -58.635883693131667 -37.726329932950577 15.474392515788518 #
point $-1 -58.635883693131667 -37.726329932950577 -15.474392515788518 #
plane-surface $-1 0 0 15.474392515788518 0 0 1 1 0 0 forward_v I I I I #
coedge $-1 $295 $294 $287 $373 forward $194 $-1 #
coedge $-1 $287 $196 $198 $291 reversed $117 $-1 #
coedge $-1 $196 $286 $285 $373 reversed $117 $-1 #
coedge $-1 $204 $199 $196 $289 forward $205 $-1 #
edge $-1 $292 -24.432203945556822 $374 -14.65661443297035 $288 $375 forward 7 unknown #
coedge $-1 $198 $197 $295 $376 reversed $73 $-1 #
edge $-1 $377 -1.0692042983031357e-014 $292 14.333743615932415 $286 $378 forward 7 unknown #
vertex $-1 $200 $379 #
straight-curve $-1 -53.575953198067531 -6.1049723625213055 15.474392515788518 0 1 0 I I #
coedge $-1 $285 $201 $204 $299 reversed $194 $-1 #
coedge $-1 $201 $285 $290 $376 forward $194 $-1 #
vertex $-1 $202 $380 #
straight-curve $-1 -63.351542710654009 -20.378056346600275 45.70132564750601 0 0 1 I I #
straight-curve $-1 -63.351542710654002 -20.378056346600275 4.9913559457534404 -0.68199835119979291 0 -0.73135370988377701 I I #
edge $-1 $374 4.0418331034849473 $206 20.378056346600275 $294 $381 forward 7 unknown #
point $-1 -63.351542710654009 -20.378056346600275 15.474392515788518 #
point $-1 -53.575953198067538 -20.378056346600275 15.474392515788518 #
edge $-1 $382 1 $382 0 $209 $-1 forward 7 unknown #
vertex $-1 $210 $383 #
ellipse-curve $-1 -57.227519800140598 -15.710563991424468 9.0800728550605747 -0.73135370988377701 0 0.68199835119979291 0.68199835119979291 0 0.73135370988377701 1 I I #
point $-1 -57.781749603160989 -15.710563991424468 10.964227940654759 #
edge $-1 $384 1 $384 0 $213 $-1 forward 7 unknown #
vertex $-1 $214 $385 #
ellipse-curve $-1 -57.227519800140598 -8.7093254586607571 9.0800728550605747 -0.73135370988377701 0 0.68199835119979291 0.68199835119979291 0 0.73135370988377701 1 I I #
point $-1 -57.781749603160989 -8.7093254586607571 10.964227940654759 #
loop $-1 $-1 $225 $217 #
plane-surface $-1 63.351542710654009 0 0 -1 0 0 0 0 1 forward_v I I I I #
coedge $-1 $313 $220 $222 $317 reversed $139 $-1 #
coedge $-1 $220 $312 $386 $387 reversed $139 $-1 #
coedge $-1 $228 $223 $220 $315 forward $218 $-1 #
edge $-1 $318 18.773443729072483 $388 28.54903324165894 $314 $389 forward 7 unknown #
coedge $-1 $222 $221 $321 $390 reversed $87 $-1 #
edge $-1 $391 -126.703085421308 $318 -112.36934180537563 $312 $392 forward 7 unknown #
vertex $-1 $224 $393 #
straight-curve $-1 53.575953198067566 -6.1049723625213055 15.474392515788516 0 -1 0 I I #
coedge $-1 $386 $225 $228 $325 reversed $310 $-1 #
coedge $-1 $225 $386 $316 $390 forward $310 $-1 #
vertex $-1 $226 $394 #
straight-curve $-1 63.351542710654009 -4.0418331034849473 92.033711435803383 0 0 1 I I #
straight-curve $-1 -23.059752638604579 -4.0418331034849473 97.656127522348186 0.68199835119979291 0 -0.73135370988377701 I I #
edge $-1 $388 -20.378056346600275 $229 -4.0418331034849473 $320 $395 forward 7 unknown #
point $-1 63.351542710654009 -4.0418331034849473 15.474392515788518 #
point $-1 53.575953198067552 -4.0418331034849473 15.474392515788523 #
edge $-1 $396 1 $396 0 $232 $-1 forward 7 unknown #
vertex $-1 $233 $397 #
ellipse-curve $-1 57.227519800140612 -15.710563991424468 9.0800728550605747 0.73135370988377701 0 0.68199835119979291 0.68199835119979291 0 -0.73135370988377701 1 I I #
point $-1 59.145746305560586 -15.710563991424468 9.5015205208872047 #
edge $-1 $398 1 $398 0 $236 $-1 forward 7 unknown #
vertex $-1 $237 $399 #
ellipse-curve $-1 57.227519800140612 -8.7093254586607571 9.0800728550605747 0.73135370988377701 0 0.68199835119979291 0.68199835119979291 0 -0.73135370988377701 1 I I #
point $-1 59.145746305560586 -8.7093254586607571 9.5015205208872047 #
plane-surface $-1 63.351542710654009 0 0 -1 0 0 0 0 1 forward_v I I I I #
coedge $-1 $340 $248 $251 $348 forward $241 $-1 #
coedge $-1 $248 $340 $243 $339 reversed $241 $-1 #
edge $-1 $345 -15.474392515788518 $352 15.474392515788518 $338 $400 forward 7 unknown #
coedge $-1 $338 $337 $244 $341 reversed $241 $-1 #
edge $-1 $352 -63.351542710654009 $342 63.351542710654009 $340 $401 forward 7 unknown #
vertex $-1 $246 $402 #
straight-curve $-1 63.351542710654009 0 -15.474392515788518 0 -1 0 I I #
edge $-1 $345 -37.726329932950577 $259 37.726329932950577 $257 $403 forward 7 unknown #
vertex $-1 $249 $404 #
straight-curve $-1 0 37.726329932950577 15.474392515788518 -1 0 0 I I #
straight-curve $-1 0 -37.726329932950577 15.474392515788518 1 0 0 I I #
edge $-1 $254 -15.474392515788518 $342 15.474392515788518 $251 $405 forward 7 unknown #
point $-1 63.351542710654009 -37.726329932950577 15.474392515788518 #
point $-1 63.351542710654009 37.726329932950577 15.474392515788518 #
point $-1 -63.351542710654009 -37.726329932950577 15.474392515788518 #
vertex $-1 $341 $406 #
straight-curve $-1 -63.351542710654009 0 -15.474392515788518 0 1 0 I I #
plane-surface $-1 0 0 -15.474392515788518 0 0 1 1 0 0 forward_v I I I I #
coedge $-1 $369 $266 $367 $407 reversed $178 $-1 #
coedge $-1 $266 $369 $270 $361 reversed $178 $-1 #
coedge $-1 $268 $267 $266 $358 reversed $109 $-1 #
edge $-1 $362 -15.474392515788518 $408 15.474392515788518 $357 $409 forward 7 unknown #
edge $-1 $408 -55.074603519300879 $278 -37.726329932950577 $267 $410 forward 7 unknown #
straight-curve $-1 -63.351542710654009 -37.726329932950577 0 0 0 -1 I I #
edge $-1 $362 -2.3578295087611707 $364 2.3578295087611707 $356 $411 forward 7 unknown #
vertex $-1 $271 $412 #
straight-curve $-1 -63.351542710654009 0 15.474392515788518 0 -1 0 I I #
vertex $-1 $272 $413 #
straight-curve $-1 -58.635883693131667 -46.400466726125728 15.474392515788518 0 1 0 I I #
point $-1 -63.351542710654009 -37.726329932950577 15.474392515788518 #
coedge $-1 $276 $275 $355 $407 forward $277 $-1 #
point $-1 -63.351542710654009 -37.726329932950577 -15.474392515788518 #
coedge $-1 $356 $355 $280 $370 reversed $178 $-1 #
edge $-1 $364 -15.474392515788518 $371 15.474392515788518 $280 $414 forward 7 unknown #
vertex $-1 $370 $415 #
straight-curve $-1 -58.635883693131667 -46.400466726125728 -15.474392515788518 0 -1 0 I I #
edge $-1 $374 30.226933131717495 $377 40.709969701752577 $285 $416 forward 7 unknown #
vertex $-1 $299 $417 #
straight-curve $-1 -78.008157143624359 -4.0418331034849473 15.474392515788516 -1 0 0 I I #
edge $-1 $377 -2.0631392590363582 $296 14.273083984078969 $295 $418 forward 7 unknown #
vertex $-1 $376 $419 #
straight-curve $-1 -63.351542710654002 -4.0418331034849473 4.9913559457534404 0.68199835119979291 0 0.73135370988377701 I I #
point $-1 -53.575953198067538 -4.0418331034849473 15.474392515788518 #
point $-1 -63.351542710654009 -20.378056346600275 4.9913559457534324 #
straight-curve $-1 -63.351542710654009 0 15.474392515788518 0 -1 0 I I #
vertex $-1 $302 $420 #
point $-1 -56.545521448940804 -15.710563991424468 9.8114265649443517 #
vertex $-1 $306 $421 #
point $-1 -56.545521448940804 -8.7093254586607571 9.8114265649443517 #
coedge $-1 $321 $320 $313 $387 forward $310 $-1 #
edge $-1 $388 76.55931892001486 $391 87.042355490049914 $386 $422 forward 7 unknown #
vertex $-1 $325 $423 #
straight-curve $-1 34.802509468995069 -20.378056346600275 15.474392515788523 1 0 0 I I #
edge $-1 $391 -14.273083984078969 $322 2.0631392590363582 $321 $424 forward 7 unknown #
vertex $-1 $390 $425 #
straight-curve $-1 -23.059752638604579 -20.378056346600275 97.656127522348186 -0.68199835119979291 0 0.73135370988377701 I I #
point $-1 53.575953198067552 -20.378056346600275 15.474392515788523 #
point $-1 63.351542710654002 -4.0418331034849473 4.9913559457534689 #
straight-curve $-1 63.351542710654009 0 15.474392515788518 0 1 0 I I #
vertex $-1 $328 $426 #
point $-1 57.909518151340407 -15.710563991424468 8.3487191451767977 #
vertex $-1 $332 $427 #
point $-1 57.909518151340407 -8.7093254586607571 8.3487191451767977 #
straight-curve $-1 -63.351542710654009 37.726329932950577 0 0 0 -1 I I #
straight-curve $-1 0 37.726329932950577 -15.474392515788518 1 0 0 I I #
point $-1 63.351542710654009 37.726329932950577 -15.474392515788518 #
straight-curve $-1 -63.351542710654009 0 15.474392515788518 0 -1 0 I I #
point $-1 -63.351542710654009 37.726329932950577 15.474392515788518 #
straight-curve $-1 63.351542710654009 37.726329932950577 0 0 0 -1 I I #
point $-1 -63.351542710654009 37.726329932950577 -15.474392515788518 #
edge $-1 $371 -2.3578295087611707 $408 2.3578295087611707 $355 $428 forward 7 unknown #
vertex $-1 $359 $429 #
straight-curve $-1 -63.351542710654009 -55.074603519300879 0 0 0 -1 I I #
straight-curve $-1 -63.351542710654009 0 -15.474392515788518 0 1 0 I I #
straight-curve $-1 -60.993713201892838 -55.074603519300879 15.474392515788518 1 0 0 I I #
point $-1 -63.351542710654009 -55.074603519300879 15.474392515788518 #
point $-1 -58.635883693131667 -55.074603519300879 15.474392515788518 #
straight-curve $-1 -58.635883693131667 -55.074603519300879 0 0 0 -1 I I #
point $-1 -58.635883693131667 -55.074603519300879 -15.474392515788518 #
straight-curve $-1 -63.351542710654009 -4.0418331034849473 45.70132564750601 0 0 -1 I I #
point $-1 -63.351542710654009 -4.0418331034849473 15.474392515788518 #
straight-curve $-1 -63.351542710654009 -6.1049723625213055 4.9913559457534324 0 -1 0 I I #
point $-1 -63.351542710654009 -4.0418331034849473 4.9913559457534324 #
point $-1 -56.496166090256821 -15.710563991424468 8.3980745038607836 #
point $-1 -56.496166090256821 -8.7093254586607571 8.3980745038607836 #
straight-curve $-1 63.351542710654009 -20.378056346600275 92.033711435803383 0 0 -1 I I #
point $-1 63.351542710654009 -20.378056346600275 15.474392515788518 #
straight-curve $-1 63.351542710654002 -6.1049723625213055 4.9913559457534689 0 1 0 I I #
point $-1 63.351542710654002 -20.378056346600275 4.9913559457534689 #
point $-1 56.496166090256835 -15.710563991424468 8.3980745038607836 #
point $-1 56.496166090256835 -8.7093254586607571 8.3980745038607836 #
straight-curve $-1 -60.993713201892838 -55.074603519300879 -15.474392515788518 -1 0 0 I I #
point $-1 -63.351542710654009 -55.074603519300879 -15.474392515788518 #
End-of-ACIS-data 