500 0 13 0           
7 Unknown 11 ACIS 5.0 NT 24 Thu Mar 25 20:18:33 1999 
-1 9.9999999999999995e-007 1e-010 
body $-1 $13 $-1 $14 #
body $-1 $15 $-1 $16 #
body $-1 $17 $-1 $18 #
body $-1 $19 $-1 $20 #
body $-1 $21 $-1 $22 #
body $-1 $23 $-1 $24 #
body $-1 $25 $-1 $26 #
body $-1 $27 $-1 $28 #
body $-1 $29 $-1 $30 #
body $-1 $31 $-1 $32 #
body $-1 $33 $-1 $34 #
body $-1 $35 $-1 $36 #
body $-1 $37 $-1 $38 #
lump $-1 $-1 $39 $0 #
transform $-1 1 0 0 0 1 0 0 0 1 66.040833765678883 27.042740901955415 9.1506422322617542 1 rotate no_reflect no_shear #
lump $-1 $-1 $40 $1 #
transform $-1 1 0 0 0 1 0 0 0 1 66.040833765678883 27.042740901955415 9.1506422322617542 1 rotate no_reflect no_shear #
lump $-1 $-1 $41 $2 #
transform $-1 1 0 0 0 1 0 0 0 1 66.040833765678883 27.042740901955415 9.1506422322617542 1 rotate no_reflect no_shear #
lump $-1 $-1 $42 $3 #
transform $-1 1 0 0 0 1 0 0 0 1 66.040833765678883 27.042740901955415 9.1506422322617542 1 rotate no_reflect no_shear #
lump $-1 $-1 $43 $4 #
transform $-1 1 0 0 0 1 0 0 0 1 66.040833765678883 27.042740901955415 9.1506422322617542 1 rotate no_reflect no_shear #
lump $-1 $-1 $44 $5 #
transform $-1 1 0 0 0 1 0 0 0 1 66.040833765678883 27.042740901955415 9.1506422322617542 1 rotate no_reflect no_shear #
lump $-1 $-1 $45 $6 #
transform $-1 1 0 0 0 1 0 0 0 1 66.040833765678883 27.042740901955415 9.1506422322617542 1 rotate no_reflect no_shear #
lump $-1 $-1 $46 $7 #
transform $-1 1 0 0 0 1 0 0 0 1 66.040833765678883 27.042740901955415 9.1506422322617542 1 rotate no_reflect no_shear #
lump $-1 $-1 $47 $8 #
transform $-1 1 0 0 0 1 0 0 0 1 66.040833765678883 27.042740901955415 9.1506422322617542 1 rotate no_reflect no_shear #
lump $-1 $-1 $48 $9 #
transform $-1 1 0 0 0 1 0 0 0 1 66.040833765678883 27.042740901955415 9.1506422322617542 1 rotate no_reflect no_shear #
lump $-1 $-1 $49 $10 #
transform $-1 1 0 0 0 1 0 0 0 1 66.040833765678883 27.042740901955415 9.1506422322617542 1 rotate no_reflect no_shear #
lump $-1 $-1 $50 $11 #
transform $-1 1 0 0 0 1 0 0 0 1 66.040833765678883 27.042740901955415 9.1506422322617542 1 rotate no_reflect no_shear #
lump $-1 $-1 $51 $12 #
transform $-1 1 0 0 0 1 0 0 0 1 66.040833765678883 27.042740901955415 9.1506422322617542 1 rotate no_reflect no_shear #
shell $-1 $-1 $-1 $52 $-1 $13 #
shell $-1 $-1 $-1 $53 $-1 $15 #
shell $-1 $-1 $-1 $54 $-1 $17 #
shell $-1 $-1 $-1 $55 $-1 $19 #
shell $-1 $-1 $-1 $56 $-1 $21 #
shell $-1 $-1 $-1 $57 $-1 $23 #
shell $-1 $-1 $-1 $58 $-1 $25 #
shell $-1 $-1 $-1 $59 $-1 $27 #
shell $-1 $-1 $-1 $60 $-1 $29 #
shell $-1 $-1 $-1 $61 $-1 $31 #
shell $-1 $-1 $-1 $62 $-1 $33 #
shell $-1 $-1 $-1 $63 $-1 $35 #
shell $-1 $-1 $-1 $64 $-1 $37 #
face $-1 $65 $66 $39 $-1 $67 forward single #
face $-1 $68 $69 $40 $-1 $70 forward single #
face $-1 $71 $72 $41 $-1 $73 forward single #
face $-1 $74 $75 $42 $-1 $76 reversed single #
face $-1 $77 $78 $43 $-1 $79 forward single #
face $-1 $80 $81 $44 $-1 $82 forward single #
face $-1 $83 $84 $45 $-1 $85 reversed single #
face $-1 $86 $87 $46 $-1 $88 forward single #
face $-1 $89 $90 $47 $-1 $91 forward single #
face $-1 $92 $93 $48 $-1 $94 reversed single #
face $-1 $95 $96 $49 $-1 $97 forward single #
face $-1 $98 $99 $50 $-1 $100 forward single #
face $-1 $101 $102 $51 $-1 $103 forward single #
face $-1 $104 $105 $39 $-1 $106 reversed single #
loop $-1 $-1 $107 $52 #
plane-surface $-1 0 0 9.1506422322617542 0 0 1 1 0 0 forward_v I I I I #
face $-1 $108 $109 $40 $-1 $110 forward single #
loop $-1 $-1 $111 $53 #
plane-surface $-1 0 -27.042740901955415 0 0 1 0 0 0 1 forward_v I I I I #
face $-1 $112 $113 $41 $-1 $114 reversed single #
loop $-1 $-1 $115 $54 #
plane-surface $-1 0 27.042740901955415 0 0 -1 0 0 0 -1 forward_v I I I I #
face $-1 $116 $117 $42 $-1 $118 reversed single #
loop $-1 $-1 $119 $55 #
plane-surface $-1 -178.05244149951048 -9.6430389095531073 75.392051484245798 0 1 0 -0.84804810408105047 0 0.52991925155115449 forward_v I I I I #
face $-1 $120 $121 $43 $-1 $122 forward single #
loop $-1 $123 $124 $56 #
cone-surface $-1 -64.444801937463637 -7.9220269721805288 7.0100780315554321 0.84804810408105047 0 -0.52991925155115449 0.13247981288778862 0 0.21201202602026262 1 I I 0 1 0.25 forward I I I I #
face $-1 $125 $126 $44 $-1 $127 forward single #
loop $-1 $128 $129 $57 #
cone-surface $-1 -64.444801937463637 -5.3405090661216654 7.0100780315554321 0.84804810408105047 0 -0.52991925155115449 0.13247981288778862 0 0.21201202602026262 1 I I 0 1 0.25 forward I I I I #
face $-1 $130 $131 $45 $-1 $132 reversed single #
loop $-1 $-1 $133 $58 #
plane-surface $-1 -178.05244149951048 6.1198563665701098 75.392051484245798 0 1 0 -0.84804810408105047 0 0.52991925155115449 forward_v I I I I #
face $-1 $134 $135 $46 $-1 $136 forward single #
loop $-1 $137 $138 $59 #
cone-surface $-1 -64.444801937463637 7.8408683039426954 7.0100780315554321 0.84804810408105047 0 -0.52991925155115449 0.13247981288778862 0 0.21201202602026262 1 I I 0 1 0.25 forward I I I I #
face $-1 $139 $140 $47 $-1 $141 forward single #
loop $-1 $142 $143 $60 #
cone-surface $-1 -64.444801937463637 10.422386210001559 7.0100780315554321 0.84804810408105047 0 -0.52991925155115449 0.13247981288778862 0 0.21201202602026262 1 I I 0 1 0.25 forward I I I I #
face $-1 $144 $145 $48 $-1 $146 reversed single #
loop $-1 $-1 $147 $61 #
plane-surface $-1 27.204660144024317 5.5896987532377942 183.44978604546245 0 -1 0 -0.54463904215088732 0 -0.83867056331134215 forward_v I I I I #
face $-1 $148 $149 $49 $-1 $150 forward single #
loop $-1 $151 $152 $62 #
cone-surface $-1 59.119608304528036 0.2564176917903076 4.2591955239089554 -0.54463904215088732 0 -0.83867056331134215 0.41933528165567108 0 -0.27231952107544366 1 I I 0 1 0.5 forward I I I I #
face $-1 $153 $154 $50 $-1 $155 forward single #
loop $-1 $156 $157 $63 #
cone-surface $-1 59.119608304528036 2.256398089833116 4.2591955239089554 -0.54463904215088732 0 -0.83867056331134215 0.41933528165567108 0 -0.27231952107544366 1 I I 0 1 0.5 forward I I I I #
face $-1 $158 $159 $51 $-1 $160 forward single #
loop $-1 $161 $162 $64 #
cone-surface $-1 59.119608304528036 4.2563784878759243 4.2591955239089554 -0.54463904215088732 0 -0.83867056331134215 0.41933528165567108 0 -0.27231952107544366 1 I I 0 1 0.5 forward I I I I #
face $-1 $163 $164 $39 $-1 $165 reversed single #
loop $-1 $-1 $166 $65 #
plane-surface $-1 0 0 -9.1506422322617542 0 0 1 1 0 0 forward_v I I I I #
coedge $-1 $167 $168 $169 $170 forward $66 $-1 #
face $-1 $171 $172 $40 $-1 $173 reversed single #
loop $-1 $-1 $174 $68 #
plane-surface $-1 0 0 9.1506422322617542 0 0 1 1 0 0 forward_v I I I I #
coedge $-1 $175 $176 $177 $178 forward $69 $-1 #
face $-1 $179 $180 $41 $-1 $181 reversed single #
loop $-1 $-1 $182 $71 #
plane-surface $-1 66.040833765678883 0 0 -1 0 0 0 0 1 forward_v I I I I #
coedge $-1 $183 $184 $185 $186 forward $72 $-1 #
face $-1 $187 $188 $42 $-1 $189 reversed single #
loop $-1 $-1 $190 $74 #
plane-surface $-1 -66.040833765678883 -6.6312680191510971 5.3994330824002645 -0.84804810408105047 0 0.52991925155115449 0.52991925155115449 0 0.84804810408105047 forward_v I I I I #
coedge $-1 $191 $192 $193 $194 reversed $75 $-1 #
face $-1 $-1 $195 $43 $-1 $196 forward single #
loop $-1 $197 $198 $77 #
cone-surface $-1 -63.914771872412977 -7.9220269721805288 6.6788784993359602 0.84804810408105047 0 -0.52991925155115449 0.066239906443894311 0 0.10600601301013131 1 I I -0.70710678118654746 0.70710678118654746 0.125 forward I I I I #
loop $-1 $-1 $199 $56 #
coedge $-1 $124 $124 $200 $201 reversed $78 $-1 #
face $-1 $-1 $202 $44 $-1 $203 forward single #
loop $-1 $204 $205 $80 #
cone-surface $-1 -63.914771872412977 -5.3405090661216654 6.6788784993359602 0.84804810408105047 0 -0.52991925155115449 0.066239906443894311 0 0.10600601301013131 1 I I -0.70710678118654746 0.70710678118654746 0.125 forward I I I I #
loop $-1 $-1 $206 $57 #
coedge $-1 $129 $129 $207 $208 reversed $81 $-1 #
face $-1 $209 $210 $45 $-1 $211 reversed single #
loop $-1 $-1 $212 $83 #
plane-surface $-1 -66.040833765678883 9.13162725697212 5.3994330824002645 -0.84804810408105047 0 0.52991925155115449 0.52991925155115449 0 0.84804810408105047 forward_v I I I I #
coedge $-1 $213 $214 $215 $216 reversed $84 $-1 #
face $-1 $-1 $217 $46 $-1 $218 forward single #
loop $-1 $219 $220 $86 #
cone-surface $-1 -63.914771872412977 7.8408683039426954 6.6788784993359602 0.84804810408105047 0 -0.52991925155115449 0.066239906443894311 0 0.10600601301013131 1 I I -0.70710678118654746 0.70710678118654746 0.125 forward I I I I #
loop $-1 $-1 $221 $59 #
coedge $-1 $138 $138 $222 $223 reversed $87 $-1 #
face $-1 $-1 $224 $47 $-1 $225 forward single #
loop $-1 $226 $227 $89 #
cone-surface $-1 -63.914771872412977 10.422386210001559 6.6788784993359602 0.84804810408105047 0 -0.52991925155115449 0.066239906443894311 0 0.10600601301013131 1 I I -0.70710678118654746 0.70710678118654746 0.125 forward I I I I #
loop $-1 $-1 $228 $60 #
coedge $-1 $143 $143 $229 $230 reversed $90 $-1 #
face $-1 $231 $232 $48 $-1 $233 reversed single #
loop $-1 $-1 $234 $92 #
plane-surface $-1 -44.732172745946329 2.256398089833116 72.67677953383722 0.54463904215088732 0 0.83867056331134215 0.83867056331134215 0 -0.54463904215088732 forward_v I I I I #
coedge $-1 $235 $236 $237 $238 reversed $93 $-1 #
face $-1 $-1 $239 $49 $-1 $240 forward single #
loop $-1 $241 $242 $95 #
cone-surface $-1 58.53789069115372 0.2564176917903076 3.3634289689259074 -0.54463904215088732 0 -0.83867056331134215 0.20966764082783554 0 -0.13615976053772183 1 I I -0.70710678118654746 0.70710678118654746 0.25 forward I I I I #
loop $-1 $-1 $243 $62 #
coedge $-1 $152 $152 $244 $245 reversed $96 $-1 #
face $-1 $-1 $246 $50 $-1 $247 forward single #
loop $-1 $248 $249 $98 #
cone-surface $-1 58.53789069115372 2.256398089833116 3.3634289689259074 -0.54463904215088732 0 -0.83867056331134215 0.20966764082783554 0 -0.13615976053772183 1 I I -0.70710678118654746 0.70710678118654746 0.25 forward I I I I #
loop $-1 $-1 $250 $63 #
coedge $-1 $157 $157 $251 $252 reversed $99 $-1 #
face $-1 $-1 $253 $51 $-1 $254 forward single #
loop $-1 $255 $256 $101 #
cone-surface $-1 58.53789069115372 4.2563784878759243 3.3634289689259074 -0.54463904215088732 0 -0.83867056331134215 0.20966764082783554 0 -0.13615976053772183 1 I I -0.70710678118654746 0.70710678118654746 0.25 forward I I I I #
loop $-1 $-1 $257 $64 #
coedge $-1 $162 $162 $258 $259 reversed $102 $-1 #
face $-1 $260 $261 $39 $-1 $262 reversed single #
loop $-1 $-1 $263 $104 #
plane-surface $-1 0 -27.042740901955415 0 0 1 0 0 0 1 forward_v I I I I #
coedge $-1 $264 $265 $266 $267 forward $105 $-1 #
coedge $-1 $268 $107 $269 $270 forward $66 $-1 #
coedge $-1 $107 $268 $271 $272 forward $66 $-1 #
coedge $-1 $273 $274 $107 $170 reversed $275 $-1 #
edge $-1 $276 -27.042740901955415 $277 27.042740901955415 $169 $278 forward 7 unknown #
face $-1 $279 $280 $40 $-1 $281 reversed single #
loop $-1 $-1 $282 $108 #
plane-surface $-1 -66.040833765678883 0 0 1 0 0 0 0 -1 forward_v I I I I #
coedge $-1 $283 $284 $285 $286 forward $109 $-1 #
coedge $-1 $285 $111 $282 $287 reversed $69 $-1 #
coedge $-1 $111 $285 $288 $289 reversed $69 $-1 #
coedge $-1 $290 $291 $111 $178 reversed $280 $-1 #
edge $-1 $292 -66.040833765678883 $293 66.040833765678883 $177 $294 forward 7 unknown #
face $-1 $295 $296 $41 $-1 $297 reversed single #
loop $-1 $-1 $298 $112 #
plane-surface $-1 0 32.682663714871509 4.8712571363197164 0 0 1 1 0 0 forward_v I I I I #
coedge $-1 $299 $300 $183 $301 forward $113 $-1 #
coedge $-1 $302 $115 $182 $301 reversed $72 $-1 #
coedge $-1 $115 $302 $303 $304 reversed $72 $-1 #
coedge $-1 $305 $298 $115 $186 reversed $180 $-1 #
edge $-1 $306 -66.040833765678883 $307 66.040833765678883 $185 $308 forward 7 unknown #
face $-1 $309 $310 $42 $-1 $311 reversed single #
loop $-1 $-1 $312 $116 #
plane-surface $-1 -178.05244149951048 -3.6194971287490869 75.392051484245798 0 -1 0 0.84804810408105047 0 -0.52991925155115449 forward_v I I I I #
coedge $-1 $313 $314 $315 $316 reversed $117 $-1 #
coedge $-1 $192 $119 $317 $318 reversed $75 $-1 #
coedge $-1 $119 $191 $313 $319 reversed $75 $-1 #
coedge $-1 $315 $320 $119 $194 forward $321 $-1 #
edge $-1 $322 22.985386984076356 $323 25.329402536425803 $193 $324 forward 7 unknown #
loop $-1 $-1 $200 $120 #
plane-surface $-1 -66.040833765678883 -6.6312680191510971 5.3994330824002645 -0.84804810408105047 0 0.52991925155115449 0.52991925155115449 0 0.84804810408105047 forward_v I I I I #
loop $-1 $-1 $325 $77 #
coedge $-1 $198 $198 $199 $326 reversed $121 $-1 #
coedge $-1 $199 $199 $198 $326 forward $123 $-1 #
coedge $-1 $200 $200 $124 $201 forward $195 $-1 #
edge $-1 $327 0 $327 6.2831853071796004 $200 $328 forward 7 unknown #
loop $-1 $-1 $207 $125 #
plane-surface $-1 -66.040833765678883 -6.6312680191510971 5.3994330824002645 -0.84804810408105047 0 0.52991925155115449 0.52991925155115449 0 0.84804810408105047 forward_v I I I I #
loop $-1 $-1 $329 $80 #
coedge $-1 $205 $205 $206 $330 reversed $126 $-1 #
coedge $-1 $206 $206 $205 $330 forward $128 $-1 #
coedge $-1 $207 $207 $129 $208 forward $202 $-1 #
edge $-1 $331 0 $331 6.2831853071796004 $207 $332 forward 7 unknown #
face $-1 $333 $334 $45 $-1 $335 forward single #
loop $-1 $-1 $336 $130 #
plane-surface $-1 -178.05244149951048 12.14339814737413 75.392051484245798 0 -1 0 0.84804810408105047 0 -0.52991925155115449 forward_v I I I I #
coedge $-1 $337 $338 $339 $340 reversed $131 $-1 #
coedge $-1 $214 $133 $341 $342 reversed $84 $-1 #
coedge $-1 $133 $213 $337 $343 reversed $84 $-1 #
coedge $-1 $339 $344 $133 $216 forward $334 $-1 #
edge $-1 $345 22.985386984076356 $346 25.329402536425803 $215 $347 forward 7 unknown #
loop $-1 $-1 $222 $134 #
plane-surface $-1 -66.040833765678883 9.13162725697212 5.3994330824002645 -0.84804810408105047 0 0.52991925155115449 0.52991925155115449 0 0.84804810408105047 forward_v I I I I #
loop $-1 $-1 $348 $86 #
coedge $-1 $220 $220 $221 $349 reversed $135 $-1 #
coedge $-1 $221 $221 $220 $349 forward $137 $-1 #
coedge $-1 $222 $222 $138 $223 forward $217 $-1 #
edge $-1 $350 0 $350 6.2831853071796004 $222 $351 forward 7 unknown #
loop $-1 $-1 $229 $139 #
plane-surface $-1 -66.040833765678883 9.13162725697212 5.3994330824002645 -0.84804810408105047 0 0.52991925155115449 0.52991925155115449 0 0.84804810408105047 forward_v I I I I #
loop $-1 $-1 $352 $89 #
coedge $-1 $227 $227 $228 $353 reversed $140 $-1 #
coedge $-1 $228 $228 $227 $353 forward $142 $-1 #
coedge $-1 $229 $229 $143 $230 forward $224 $-1 #
edge $-1 $354 0 $354 6.2831853071796004 $229 $355 forward 7 unknown #
face $-1 $356 $357 $48 $-1 $358 forward single #
loop $-1 $-1 $359 $144 #
plane-surface $-1 27.204660144024317 -1.0769025735715623 183.44978604546245 0 1 0 0.54463904215088732 0 0.83867056331134215 forward_v I I I I #
coedge $-1 $360 $361 $362 $363 reversed $145 $-1 #
coedge $-1 $236 $147 $364 $365 reversed $93 $-1 #
coedge $-1 $147 $235 $360 $366 reversed $93 $-1 #
coedge $-1 $362 $367 $147 $238 forward $357 $-1 #
edge $-1 $368 -52.438503693666725 $369 -39.487168477038232 $237 $370 forward 7 unknown #
loop $-1 $-1 $244 $148 #
plane-surface $-1 -44.732172745946329 2.256398089833116 72.67677953383722 0.54463904215088732 0 0.83867056331134215 0.83867056331134215 0 -0.54463904215088732 forward_v I I I I #
loop $-1 $-1 $371 $95 #
coedge $-1 $242 $242 $243 $372 reversed $149 $-1 #
coedge $-1 $243 $243 $242 $372 forward $151 $-1 #
coedge $-1 $244 $244 $152 $245 forward $239 $-1 #
edge $-1 $373 0 $373 6.2831853071796004 $244 $374 forward 7 unknown #
loop $-1 $-1 $251 $153 #
plane-surface $-1 -44.732172745946329 2.256398089833116 72.67677953383722 0.54463904215088732 0 0.83867056331134215 0.83867056331134215 0 -0.54463904215088732 forward_v I I I I #
loop $-1 $-1 $375 $98 #
coedge $-1 $249 $249 $250 $376 reversed $154 $-1 #
coedge $-1 $250 $250 $249 $376 forward $156 $-1 #
coedge $-1 $251 $251 $157 $252 forward $246 $-1 #
edge $-1 $377 0 $377 6.2831853071796004 $251 $378 forward 7 unknown #
loop $-1 $-1 $258 $158 #
plane-surface $-1 -44.732172745946329 2.256398089833116 72.67677953383722 0.54463904215088732 0 0.83867056331134215 0.83867056331134215 0 -0.54463904215088732 forward_v I I I I #
loop $-1 $-1 $379 $101 #
coedge $-1 $256 $256 $257 $380 reversed $159 $-1 #
coedge $-1 $257 $257 $256 $380 forward $161 $-1 #
coedge $-1 $258 $258 $162 $259 forward $253 $-1 #
edge $-1 $381 0 $381 6.2831853071796004 $258 $382 forward 7 unknown #
face $-1 $383 $384 $39 $-1 $385 reversed single #
loop $-1 $-1 $386 $163 #
plane-surface $-1 -66.040833765678883 0 0 1 0 0 0 0 -1 forward_v I I I I #
coedge $-1 $387 $271 $388 $389 forward $164 $-1 #
coedge $-1 $390 $166 $387 $391 forward $105 $-1 #
coedge $-1 $166 $390 $392 $393 forward $105 $-1 #
coedge $-1 $274 $273 $166 $267 reversed $275 $-1 #
edge $-1 $394 -27.042740901955415 $395 27.042740901955415 $266 $396 forward 7 unknown #
coedge $-1 $168 $167 $397 $398 forward $66 $-1 #
coedge $-1 $399 $400 $167 $270 reversed $384 $-1 #
edge $-1 $277 -66.040833765678883 $401 66.040833765678883 $269 $402 forward 7 unknown #
coedge $-1 $263 $403 $168 $272 reversed $164 $-1 #
edge $-1 $404 -66.040833765678883 $276 66.040833765678883 $271 $405 forward 7 unknown #
coedge $-1 $266 $169 $403 $406 forward $275 $-1 #
coedge $-1 $169 $266 $399 $407 reversed $275 $-1 #
loop $-1 $-1 $273 $383 #
vertex $-1 $170 $408 #
vertex $-1 $170 $409 #
straight-curve $-1 66.040833765678883 0 9.1506422322617542 0 1 0 I I #
face $-1 $410 $411 $40 $-1 $412 reversed single #
loop $-1 $-1 $290 $171 #
plane-surface $-1 0 -32.682663714871509 4.8712571363197164 0 0 1 1 0 0 forward_v I I I I #
coedge $-1 $413 $414 $175 $287 forward $172 $-1 #
coedge $-1 $415 $174 $414 $416 forward $109 $-1 #
coedge $-1 $174 $415 $417 $418 forward $109 $-1 #
coedge $-1 $176 $175 $174 $286 reversed $69 $-1 #
edge $-1 $419 -66.040833765678883 $420 66.040833765678883 $174 $421 forward 7 unknown #
edge $-1 $420 -9.1506422322617542 $293 -4.8712571363197164 $282 $422 forward 7 unknown #
coedge $-1 $417 $423 $176 $289 forward $424 $-1 #
edge $-1 $292 4.8712571363197164 $419 9.1506422322617542 $288 $425 forward 7 unknown #
coedge $-1 $426 $177 $423 $427 forward $280 $-1 #
coedge $-1 $177 $426 $413 $428 forward $280 $-1 #
vertex $-1 $289 $429 #
vertex $-1 $287 $430 #
straight-curve $-1 0 -27.042740901955415 4.8712571363197164 -1 0 0 I I #
face $-1 $431 $432 $41 $-1 $433 forward single #
loop $-1 $-1 $434 $179 #
plane-surface $-1 0 38.322586527787607 7.0109496842907344 0 -1 0 0 0 -1 forward_v I I I I #
coedge $-1 $185 $435 $299 $436 forward $180 $-1 #
coedge $-1 $437 $182 $298 $436 reversed $113 $-1 #
coedge $-1 $182 $437 $438 $439 reversed $113 $-1 #
edge $-1 $440 -9.1506422322617542 $307 -4.8712571363197164 $182 $441 forward 7 unknown #
coedge $-1 $184 $183 $442 $443 reversed $72 $-1 #
coedge $-1 $444 $445 $184 $304 forward $446 $-1 #
edge $-1 $306 4.8712571363197164 $447 9.1506422322617542 $303 $448 forward 7 unknown #
coedge $-1 $435 $185 $445 $449 forward $180 $-1 #
vertex $-1 $304 $450 #
vertex $-1 $301 $451 #
straight-curve $-1 0 27.042740901955415 4.8712571363197164 1 0 0 I I #
face $-1 $-1 $321 $42 $-1 $452 forward single #
loop $-1 $-1 $453 $187 #
plane-surface $-1 -66.040833765678883 0 0 1 0 0 0 0 -1 forward_v I I I I #
coedge $-1 $454 $455 $456 $457 reversed $188 $-1 #
coedge $-1 $458 $190 $192 $319 forward $117 $-1 #
coedge $-1 $190 $458 $454 $459 forward $117 $-1 #
coedge $-1 $456 $193 $190 $316 forward $321 $-1 #
edge $-1 $323 -6.3274048999775587 $460 -0.30386311917353837 $315 $461 forward 7 unknown #
coedge $-1 $462 $463 $191 $318 forward $310 $-1 #
edge $-1 $464 -32.296592659722634 $322 -28.545383509861146 $317 $465 forward 7 unknown #
edge $-1 $323 -4.42334477467681 $464 0 $192 $466 forward 7 unknown #
coedge $-1 $193 $456 $462 $467 forward $321 $-1 #
loop $-1 $-1 $456 $309 #
vertex $-1 $318 $468 #
vertex $-1 $194 $469 #
straight-curve $-1 -89.02622074975524 -9.6430389095531073 9.1506422322617524 1 0 0 I I #
coedge $-1 $325 $325 $-1 $470 reversed $197 $-1 #
edge $-1 $471 0 $471 6.2831853071796004 $198 $472 forward 7 unknown #
vertex $-1 $201 $473 #
ellipse-curve $-1 -64.86882598950416 -7.9220269721805288 7.2750376573310085 -0.84804810408105047 0 0.52991925155115449 0.13247981288778862 0 0.21201202602026262 1 I I #
coedge $-1 $329 $329 $-1 $474 reversed $204 $-1 #
edge $-1 $475 0 $475 6.2831853071796004 $205 $476 forward 7 unknown #
vertex $-1 $208 $477 #
ellipse-curve $-1 -64.86882598950416 -5.3405090661216654 7.2750376573310085 -0.84804810408105047 0 0.52991925155115449 0.13247981288778862 0 0.21201202602026262 1 I I #
face $-1 $-1 $478 $45 $-1 $479 reversed single #
loop $-1 $-1 $215 $209 #
plane-surface $-1 0 0 9.1506422322617542 0 0 1 1 0 0 forward_v I I I I #
coedge $-1 $480 $481 $482 $483 reversed $210 $-1 #
coedge $-1 $484 $212 $214 $343 forward $131 $-1 #
coedge $-1 $212 $484 $480 $485 forward $131 $-1 #
coedge $-1 $482 $215 $212 $340 forward $334 $-1 #
edge $-1 $346 1.5540427380840498 $486 7.5775845188880702 $339 $487 forward 7 unknown #
coedge $-1 $488 $489 $213 $342 forward $478 $-1 #
edge $-1 $490 -32.296592659722634 $345 -28.545383509861146 $341 $491 forward 7 unknown #
edge $-1 $346 -4.42334477467681 $490 0 $214 $492 forward 7 unknown #
coedge $-1 $215 $482 $488 $493 forward $334 $-1 #
vertex $-1 $216 $494 #
vertex $-1 $216 $495 #
straight-curve $-1 -89.02622074975524 6.1198563665701098 9.1506422322617524 1 0 0 I I #
coedge $-1 $348 $348 $-1 $496 reversed $219 $-1 #
edge $-1 $497 0 $497 6.2831853071796004 $220 $498 forward 7 unknown #
vertex $-1 $223 $499 #
ellipse-curve $-1 -64.86882598950416 7.8408683039426954 7.2750376573310085 -0.84804810408105047 0 0.52991925155115449 0.13247981288778862 0 0.21201202602026262 1 I I #
coedge $-1 $352 $352 $-1 $500 reversed $226 $-1 #
edge $-1 $501 0 $501 6.2831853071796004 $227 $502 forward 7 unknown #
vertex $-1 $230 $503 #
ellipse-curve $-1 -64.86882598950416 10.422386210001559 7.2750376573310085 -0.84804810408105047 0 0.52991925155115449 0.13247981288778862 0 0.21201202602026262 1 I I #
face $-1 $-1 $504 $48 $-1 $505 reversed single #
loop $-1 $-1 $237 $231 #
plane-surface $-1 0 0 9.1506422322617542 0 0 1 1 0 0 forward_v I I I I #
coedge $-1 $506 $507 $508 $509 reversed $232 $-1 #
coedge $-1 $510 $234 $236 $366 forward $145 $-1 #
coedge $-1 $234 $510 $506 $511 forward $145 $-1 #
coedge $-1 $508 $237 $234 $363 forward $357 $-1 #
edge $-1 $369 -4.4614997083212362 $512 2.2051016184881203 $362 $513 forward 7 unknown #
coedge $-1 $514 $515 $235 $365 forward $504 $-1 #
edge $-1 $516 -90.984946378864635 $368 -82.574250790469463 $364 $517 forward 7 unknown #
edge $-1 $369 116.63897074050766 $516 132.08166753135774 $236 $518 forward 7 unknown #
coedge $-1 $237 $508 $514 $519 forward $357 $-1 #
vertex $-1 $365 $520 #
vertex $-1 $238 $521 #
straight-curve $-1 13.602330072012158 5.5896987532377942 9.1506422322617595 -1 0 0 I I #
coedge $-1 $371 $371 $-1 $522 reversed $241 $-1 #
edge $-1 $523 0 $523 6.2831853071796004 $242 $524 forward 7 unknown #
vertex $-1 $245 $525 #
ellipse-curve $-1 59.565166157364636 0.2564176917903076 4.9452944380641721 0.54463904215088732 0 0.83867056331134215 0.41933528165567108 0 -0.27231952107544366 1 I I #
coedge $-1 $375 $375 $-1 $526 reversed $248 $-1 #
edge $-1 $527 0 $527 6.2831853071796004 $249 $528 forward 7 unknown #
vertex $-1 $252 $529 #
ellipse-curve $-1 59.565166157364636 2.256398089833116 4.9452944380641721 0.54463904215088732 0 0.83867056331134215 0.41933528165567108 0 -0.27231952107544366 1 I I #
coedge $-1 $379 $379 $-1 $530 reversed $255 $-1 #
edge $-1 $531 0 $531 6.2831853071796004 $256 $532 forward 7 unknown #
vertex $-1 $259 $533 #
ellipse-curve $-1 59.565166157364636 4.2563784878759243 4.9452944380641721 0.54463904215088732 0 0.83867056331134215 0.41933528165567108 0 -0.27231952107544366 1 I I #
face $-1 $-1 $275 $39 $-1 $534 reversed single #
loop $-1 $-1 $399 $260 #
plane-surface $-1 0 27.042740901955415 0 0 -1 0 0 0 -1 forward_v I I I I #
coedge $-1 $535 $397 $400 $536 forward $261 $-1 #
coedge $-1 $403 $263 $264 $391 reversed $164 $-1 #
coedge $-1 $397 $535 $263 $389 reversed $261 $-1 #
edge $-1 $404 -9.1506422322617542 $537 9.1506422322617542 $388 $538 forward 7 unknown #
coedge $-1 $265 $264 $535 $539 forward $105 $-1 #
edge $-1 $395 -66.040833765678883 $537 66.040833765678883 $387 $540 forward 7 unknown #
coedge $-1 $400 $399 $265 $393 reversed $384 $-1 #
edge $-1 $541 -66.040833765678883 $394 66.040833765678883 $392 $542 forward 7 unknown #
vertex $-1 $267 $543 #
vertex $-1 $406 $544 #
straight-curve $-1 66.040833765678883 0 -9.1506422322617542 0 -1 0 I I #
coedge $-1 $386 $388 $268 $398 reversed $261 $-1 #
edge $-1 $401 -27.042740901955415 $404 27.042740901955415 $397 $545 forward 7 unknown #
coedge $-1 $392 $269 $274 $407 forward $384 $-1 #
coedge $-1 $269 $392 $386 $536 reversed $384 $-1 #
vertex $-1 $270 $546 #
straight-curve $-1 0 27.042740901955415 9.1506422322617542 -1 0 0 I I #
coedge $-1 $271 $387 $273 $406 reversed $164 $-1 #
vertex $-1 $398 $547 #
straight-curve $-1 0 -27.042740901955415 9.1506422322617542 1 0 0 I I #
edge $-1 $276 -9.1506422322617542 $395 9.1506422322617542 $273 $548 forward 7 unknown #
edge $-1 $277 -9.1506422322617542 $394 9.1506422322617542 $274 $549 forward 7 unknown #
point $-1 66.040833765678883 -27.042740901955415 9.1506422322617542 #
point $-1 66.040833765678883 27.042740901955415 9.1506422322617542 #
face $-1 $-1 $424 $40 $-1 $550 reversed single #
loop $-1 $-1 $551 $279 #
plane-surface $-1 0 -38.322586527787607 7.0109496842907344 0 1 0 0 0 1 forward_v I I I I #
coedge $-1 $552 $282 $291 $428 reversed $172 $-1 #
coedge $-1 $282 $552 $283 $416 reversed $172 $-1 #
coedge $-1 $284 $283 $553 $554 forward $109 $-1 #
edge $-1 $420 27.042740901955415 $555 38.322586527787607 $414 $556 forward 7 unknown #
coedge $-1 $557 $288 $284 $418 reversed $424 $-1 #
edge $-1 $558 -38.322586527787607 $419 -27.042740901955415 $417 $559 forward 7 unknown #
vertex $-1 $289 $560 #
vertex $-1 $416 $561 #
straight-curve $-1 0 -27.042740901955415 9.1506422322617542 -1 0 0 I I #
straight-curve $-1 -66.040833765678883 -27.042740901955415 0 0 0 -1 I I #
coedge $-1 $288 $557 $290 $427 reversed $424 $-1 #
loop $-1 $-1 $288 $410 #
straight-curve $-1 66.040833765678883 -27.042740901955415 0 0 0 1 I I #
coedge $-1 $291 $290 $562 $563 forward $280 $-1 #
edge $-1 $292 -5.6399228129160974 $564 5.6399228129160974 $423 $565 forward 7 unknown #
edge $-1 $566 -5.6399228129160974 $293 5.6399228129160974 $413 $567 forward 7 unknown #
point $-1 66.040833765678883 -27.042740901955412 4.8712571363197164 #
point $-1 -66.040833765678883 -27.042740901955412 4.8712571363197164 #
face $-1 $-1 $446 $41 $-1 $568 reversed single #
loop $-1 $-1 $442 $295 #
plane-surface $-1 0 0 9.1506422322617542 0 0 1 1 0 0 forward_v I I I I #
coedge $-1 $569 $570 $437 $571 forward $296 $-1 #
coedge $-1 $298 $305 $569 $572 forward $180 $-1 #
edge $-1 $573 -5.6399228129160974 $307 5.6399228129160939 $299 $574 forward 7 unknown #
coedge $-1 $300 $299 $434 $571 reversed $113 $-1 #
coedge $-1 $575 $442 $300 $439 forward $432 $-1 #
edge $-1 $440 27.042740901955415 $576 38.322586527787607 $300 $577 forward 7 unknown #
vertex $-1 $439 $578 #
straight-curve $-1 66.040833765678883 27.042740901955415 0 0 0 -1 I I #
coedge $-1 $438 $579 $302 $443 forward $432 $-1 #
edge $-1 $447 -66.040833765678883 $440 66.040833765678883 $442 $580 forward 7 unknown #
coedge $-1 $581 $303 $579 $582 reversed $446 $-1 #
coedge $-1 $303 $581 $305 $449 reversed $446 $-1 #
loop $-1 $-1 $303 $431 #
vertex $-1 $304 $583 #
straight-curve $-1 -66.040833765678883 27.042740901955415 0 0 0 1 I I #
edge $-1 $306 -5.6399228129160939 $584 5.6399228129160974 $445 $585 forward 7 unknown #
point $-1 -66.040833765678883 27.042740901955415 4.8712571363197164 #
point $-1 66.040833765678883 27.042740901955415 4.8712571363197164 #
plane-surface $-1 0 0 9.1506422322617542 0 0 1 1 0 0 forward_v I I I I #
coedge $-1 $463 $462 $455 $586 forward $310 $-1 #
coedge $-1 $455 $312 $314 $459 reversed $188 $-1 #
coedge $-1 $312 $454 $453 $586 reversed $188 $-1 #
coedge $-1 $320 $315 $312 $457 forward $321 $-1 #
edge $-1 $460 -25.329402536425803 $587 -22.985386984076356 $456 $588 forward 7 unknown #
coedge $-1 $314 $313 $463 $589 reversed $117 $-1 #
edge $-1 $590 0 $460 4.42334477467681 $454 $591 forward 7 unknown #
vertex $-1 $316 $592 #
straight-curve $-1 -63.696818213329436 -3.3156340095755485 9.1506422322617542 0 1 0 I I #
coedge $-1 $453 $317 $320 $467 reversed $310 $-1 #
coedge $-1 $317 $453 $458 $589 forward $310 $-1 #
vertex $-1 $318 $593 #
straight-curve $-1 -66.040833765678883 -9.6430389095531073 37.696025742122899 0 0 1 I I #
straight-curve $-1 -66.040833765678883 -9.6430389095531073 5.3994330824002645 -0.52991925155115449 0 -0.84804810408105047 I I #
edge $-1 $587 3.6194971287490869 $322 9.6430389095531073 $462 $594 forward 7 unknown #
point $-1 -66.040833765678883 -9.6430389095531073 9.1506422322617542 #
point $-1 -63.696818213329436 -9.6430389095531073 9.1506422322617542 #
edge $-1 $595 1 $595 0 $325 $-1 forward 7 unknown #
vertex $-1 $326 $596 #
ellipse-curve $-1 -64.020777885423115 -7.9220269721805288 6.7451184057798548 -0.84804810408105047 0 0.52991925155115449 0.13247981288778862 0 0.21201202602026262 1 I I #
point $-1 -64.736346176616365 -7.9220269721805288 7.4870496833512714 #
edge $-1 $597 1 $597 0 $329 $-1 forward 7 unknown #
vertex $-1 $330 $598 #
ellipse-curve $-1 -64.020777885423115 -5.3405090661216654 6.7451184057798548 -0.84804810408105047 0 0.52991925155115449 0.13247981288778862 0 0.21201202602026262 1 I I #
point $-1 -64.736346176616365 -5.3405090661216654 7.4870496833512714 #
loop $-1 $-1 $341 $333 #
plane-surface $-1 -66.040833765678883 0 0 1 0 0 0 0 -1 forward_v I I I I #
coedge $-1 $481 $336 $338 $485 reversed $210 $-1 #
coedge $-1 $336 $480 $599 $600 reversed $210 $-1 #
coedge $-1 $344 $339 $336 $483 forward $334 $-1 #
edge $-1 $486 -25.329402536425803 $601 -22.985386984076356 $482 $602 forward 7 unknown #
coedge $-1 $338 $337 $489 $603 reversed $131 $-1 #
edge $-1 $604 0 $486 4.42334477467681 $480 $605 forward 7 unknown #
vertex $-1 $340 $606 #
straight-curve $-1 -63.696818213329436 4.56581362848606 9.1506422322617542 0 1 0 I I #
coedge $-1 $599 $341 $344 $493 reversed $478 $-1 #
coedge $-1 $341 $599 $484 $603 forward $478 $-1 #
vertex $-1 $342 $607 #
straight-curve $-1 -66.040833765678883 6.1198563665701098 37.696025742122899 0 0 1 I I #
straight-curve $-1 -66.040833765678883 6.1198563665701098 5.3994330824002645 -0.52991925155115449 0 -0.84804810408105047 I I #
edge $-1 $601 -12.14339814737413 $345 -6.1198563665701098 $488 $608 forward 7 unknown #
point $-1 -66.040833765678883 6.1198563665701098 9.1506422322617542 #
point $-1 -63.696818213329436 6.1198563665701098 9.1506422322617542 #
edge $-1 $609 1 $609 0 $348 $-1 forward 7 unknown #
vertex $-1 $349 $610 #
ellipse-curve $-1 -64.020777885423115 7.8408683039426954 6.7451184057798548 -0.84804810408105047 0 0.52991925155115449 0.13247981288778862 0 0.21201202602026262 1 I I #
point $-1 -64.736346176616365 7.8408683039426954 7.4870496833512714 #
edge $-1 $611 1 $611 0 $352 $-1 forward 7 unknown #
vertex $-1 $353 $612 #
ellipse-curve $-1 -64.020777885423115 10.422386210001559 6.7451184057798548 -0.84804810408105047 0 0.52991925155115449 0.13247981288778862 0 0.21201202602026262 1 I I #
point $-1 -64.736346176616365 10.422386210001559 7.4870496833512714 #
loop $-1 $-1 $364 $356 #
plane-surface $-1 66.040833765678883 0 0 -1 0 0 0 0 1 forward_v I I I I #
coedge $-1 $507 $359 $361 $511 reversed $232 $-1 #
coedge $-1 $359 $506 $613 $614 reversed $232 $-1 #
coedge $-1 $367 $362 $359 $509 forward $357 $-1 #
edge $-1 $512 39.487168477038232 $615 52.438503693666725 $508 $616 forward 7 unknown #
coedge $-1 $361 $360 $515 $617 reversed $145 $-1 #
edge $-1 $618 -132.08166753135774 $512 -116.63897074050766 $506 $619 forward 7 unknown #
vertex $-1 $363 $620 #
straight-curve $-1 53.08949854905039 1.128199044916558 9.1506422322617453 0 -1 0 I I #
coedge $-1 $613 $364 $367 $519 reversed $504 $-1 #
coedge $-1 $364 $613 $510 $617 forward $504 $-1 #
vertex $-1 $365 $621 #
straight-curve $-1 66.040833765678883 5.5896987532377942 91.724893022731223 0 0 1 I I #
straight-curve $-1 -44.732172745946329 5.5896987532377942 72.67677953383722 0.83867056331134215 0 -0.54463904215088732 I I #
edge $-1 $615 -1.0769025735715623 $368 5.5896987532377942 $514 $622 forward 7 unknown #
point $-1 66.040833765678883 5.5896987532377942 9.1506422322617542 #
point $-1 53.08949854905039 5.5896987532377942 9.1506422322617524 #
edge $-1 $623 1 $623 0 $371 $-1 forward 7 unknown #
vertex $-1 $372 $624 #
ellipse-curve $-1 58.674050451691443 0.2564176917903076 3.5730966097537431 0.54463904215088732 0 0.83867056331134215 0.41933528165567108 0 -0.27231952107544366 1 I I #
point $-1 59.984501439020299 0.2564176917903076 4.6729749169887231 #
edge $-1 $625 1 $625 0 $375 $-1 forward 7 unknown #
vertex $-1 $376 $626 #
ellipse-curve $-1 58.674050451691443 2.256398089833116 3.5730966097537431 0.54463904215088732 0 0.83867056331134215 0.41933528165567108 0 -0.27231952107544366 1 I I #
point $-1 59.984501439020299 2.256398089833116 4.6729749169887231 #
edge $-1 $627 1 $627 0 $379 $-1 forward 7 unknown #
vertex $-1 $380 $628 #
ellipse-curve $-1 58.674050451691443 4.2563784878759243 3.5730966097537431 0.54463904215088732 0 0.83867056331134215 0.41933528165567108 0 -0.27231952107544366 1 I I #
point $-1 59.984501439020299 4.2563784878759243 4.6729749169887231 #
plane-surface $-1 66.040833765678883 0 0 -1 0 0 0 0 1 forward_v I I I I #
coedge $-1 $388 $386 $390 $539 reversed $261 $-1 #
edge $-1 $401 -9.1506422322617542 $541 9.1506422322617542 $400 $629 forward 7 unknown #
vertex $-1 $539 $630 #
straight-curve $-1 -66.040833765678883 -27.042740901955415 0 0 0 -1 I I #
edge $-1 $537 -27.042740901955415 $541 27.042740901955415 $535 $631 forward 7 unknown #
straight-curve $-1 0 -27.042740901955415 -9.1506422322617542 -1 0 0 I I #
vertex $-1 $393 $632 #
straight-curve $-1 0 27.042740901955415 -9.1506422322617542 1 0 0 I I #
point $-1 66.040833765678883 27.042740901955415 -9.1506422322617542 #
point $-1 66.040833765678883 -27.042740901955415 -9.1506422322617542 #
straight-curve $-1 -66.040833765678883 0 9.1506422322617542 0 -1 0 I I #
point $-1 -66.040833765678883 27.042740901955415 9.1506422322617542 #
point $-1 -66.040833765678883 -27.042740901955415 9.1506422322617542 #
straight-curve $-1 66.040833765678883 -27.042740901955415 0 0 0 -1 I I #
straight-curve $-1 66.040833765678883 27.042740901955415 0 0 0 -1 I I #
plane-surface $-1 66.040833765678883 0 0 -1 0 0 0 0 1 forward_v I I I I #
coedge $-1 $562 $553 $552 $633 forward $411 $-1 #
coedge $-1 $414 $413 $551 $633 reversed $172 $-1 #
coedge $-1 $551 $634 $415 $554 reversed $411 $-1 #
edge $-1 $555 -66.040833765678883 $558 66.040833765678883 $553 $635 forward 7 unknown #
vertex $-1 $416 $636 #
straight-curve $-1 -66.040833765678883 0 9.1506422322617542 0 -1 0 I I #
coedge $-1 $423 $417 $634 $637 forward $424 $-1 #
vertex $-1 $418 $638 #
straight-curve $-1 66.040833765678883 0 9.1506422322617542 0 1 0 I I #
point $-1 66.040833765678883 -27.042740901955415 9.1506422322617542 #
point $-1 -66.040833765678883 -27.042740901955415 9.1506422322617542 #
coedge $-1 $634 $551 $426 $563 reversed $411 $-1 #
edge $-1 $564 -66.040833765678883 $566 66.040833765678883 $562 $639 forward 7 unknown #
vertex $-1 $637 $640 #
straight-curve $-1 66.040833765678883 -32.682663714871509 4.8712571363197164 0 -1 0 I I #
vertex $-1 $428 $641 #
straight-curve $-1 -66.040833765678883 -32.682663714871509 4.8712571363197164 0 1 0 I I #
plane-surface $-1 -66.040833765678883 0 0 1 0 0 0 0 -1 forward_v I I I I #
coedge $-1 $642 $434 $435 $572 reversed $296 $-1 #
coedge $-1 $434 $642 $575 $643 reversed $296 $-1 #
edge $-1 $576 -2.139692547971018 $573 2.139692547971018 $437 $644 forward 7 unknown #
edge $-1 $584 -66.040833765678883 $573 66.040833765678883 $569 $645 forward 7 unknown #
vertex $-1 $436 $646 #
straight-curve $-1 66.040833765678883 32.682663714871509 4.8712571363197164 0 -1 0 I I #
coedge $-1 $579 $438 $570 $643 forward $432 $-1 #
vertex $-1 $439 $647 #
straight-curve $-1 66.040833765678883 0 9.1506422322617542 0 1 0 I I #
point $-1 66.040833765678883 27.042740901955415 9.1506422322617542 #
coedge $-1 $442 $575 $444 $582 forward $432 $-1 #
straight-curve $-1 0 27.042740901955415 9.1506422322617542 1 0 0 I I #
coedge $-1 $445 $444 $642 $648 forward $446 $-1 #
edge $-1 $649 -38.322586527787607 $447 -27.042740901955415 $444 $650 forward 7 unknown #
point $-1 -66.040833765678883 27.042740901955415 9.1506422322617542 #
vertex $-1 $572 $651 #
straight-curve $-1 -66.040833765678883 32.682663714871509 4.8712571363197164 0 1 0 I I #
edge $-1 $587 28.545383509861146 $590 32.296592659722634 $453 $652 forward 7 unknown #
vertex $-1 $467 $653 #
straight-curve $-1 -89.02622074975524 -3.6194971287490869 9.1506422322617524 -1 0 0 I I #
edge $-1 $590 0.30386311917353837 $464 6.3274048999775587 $463 $654 forward 7 unknown #
vertex $-1 $589 $655 #
straight-curve $-1 -66.040833765678883 -3.6194971287490869 5.3994330824002645 0.52991925155115449 0 0.84804810408105047 I I #
point $-1 -63.696818213329436 -3.6194971287490869 9.1506422322617542 #
point $-1 -66.040833765678883 -9.6430389095531073 5.3994330824002645 #
straight-curve $-1 -66.040833765678883 0 9.1506422322617542 0 -1 0 I I #
vertex $-1 $470 $656 #
point $-1 -63.888298072535321 -7.9220269721805288 6.9571304318001168 #
vertex $-1 $474 $657 #
point $-1 -63.888298072535321 -5.3405090661216654 6.9571304318001168 #
coedge $-1 $489 $488 $481 $600 forward $478 $-1 #
edge $-1 $601 28.545383509861146 $604 32.296592659722634 $599 $658 forward 7 unknown #
vertex $-1 $493 $659 #
straight-curve $-1 -89.02622074975524 12.14339814737413 9.1506422322617524 -1 0 0 I I #
edge $-1 $604 -7.5775845188880702 $490 -1.5540427380840498 $489 $660 forward 7 unknown #
vertex $-1 $603 $661 #
straight-curve $-1 -66.040833765678883 12.14339814737413 5.3994330824002645 0.52991925155115449 0 0.84804810408105047 I I #
point $-1 -63.696818213329436 12.14339814737413 9.1506422322617542 #
point $-1 -66.040833765678883 6.1198563665701098 5.3994330824002645 #
straight-curve $-1 -66.040833765678883 0 9.1506422322617542 0 -1 0 I I #
vertex $-1 $496 $662 #
point $-1 -63.888298072535321 7.8408683039426954 6.9571304318001168 #
vertex $-1 $500 $663 #
point $-1 -63.888298072535321 10.422386210001559 6.9571304318001168 #
coedge $-1 $515 $514 $507 $614 forward $504 $-1 #
edge $-1 $615 82.574250790469463 $618 90.984946378864635 $613 $664 forward 7 unknown #
vertex $-1 $519 $665 #
straight-curve $-1 13.602330072012158 -1.0769025735715623 9.1506422322617595 1 0 0 I I #
edge $-1 $618 -2.2051016184881203 $516 4.4614997083212362 $515 $666 forward 7 unknown #
vertex $-1 $617 $667 #
straight-curve $-1 -44.732172745946329 -1.0769025735715623 72.67677953383722 -0.83867056331134215 0 0.54463904215088732 I I #
point $-1 53.08949854905039 -1.0769025735715623 9.1506422322617524 #
point $-1 66.040833765678883 5.5896987532377942 0.73994664386658826 #
straight-curve $-1 66.040833765678883 0 9.1506422322617542 0 1 0 I I #
vertex $-1 $522 $668 #
point $-1 59.093385733347112 0.2564176917903076 3.3007770886782994 #
vertex $-1 $526 $669 #
point $-1 59.093385733347112 2.256398089833116 3.3007770886782994 #
vertex $-1 $530 $670 #
point $-1 59.093385733347112 4.2563784878759243 3.3007770886782994 #
straight-curve $-1 -66.040833765678883 27.042740901955415 0 0 0 -1 I I #
point $-1 -66.040833765678883 -27.042740901955415 -9.1506422322617542 #
straight-curve $-1 -66.040833765678883 0 -9.1506422322617542 0 1 0 I I #
point $-1 -66.040833765678883 27.042740901955415 -9.1506422322617542 #
edge $-1 $555 -2.139692547971018 $566 2.139692547971018 $552 $671 forward 7 unknown #
coedge $-1 $553 $562 $557 $637 reversed $411 $-1 #
straight-curve $-1 0 -38.322586527787607 9.1506422322617524 1 0 0 I I #
point $-1 -66.040833765678883 -38.322586527787607 9.1506422322617524 #
edge $-1 $558 -2.139692547971018 $564 2.139692547971018 $557 $672 forward 7 unknown #
point $-1 66.040833765678883 -38.322586527787607 9.1506422322617524 #
straight-curve $-1 0 -38.322586527787607 4.8712571363197164 -1 0 0 I I #
point $-1 66.040833765678883 -38.322586527787607 4.8712571363197164 #
point $-1 -66.040833765678883 -38.322586527787607 4.8712571363197164 #
coedge $-1 $570 $569 $581 $648 reversed $296 $-1 #
edge $-1 $576 -66.040833765678883 $649 66.040833765678883 $570 $673 forward 7 unknown #
straight-curve $-1 66.040833765678883 38.322586527787607 7.0109496842907344 0 0 -1 I I #
straight-curve $-1 0 38.322586527787607 4.8712571363197164 1 0 0 I I #
point $-1 66.040833765678883 38.322586527787607 4.8712571363197164 #
point $-1 66.040833765678883 38.322586527787607 9.1506422322617524 #
edge $-1 $649 -2.139692547971018 $584 2.139692547971018 $642 $674 forward 7 unknown #
vertex $-1 $643 $675 #
straight-curve $-1 -66.040833765678883 0 9.1506422322617542 0 -1 0 I I #
point $-1 -66.040833765678883 38.322586527787607 4.8712571363197164 #
straight-curve $-1 -66.040833765678883 -3.6194971287490869 37.696025742122899 0 0 -1 I I #
point $-1 -66.040833765678883 -3.6194971287490869 9.1506422322617542 #
straight-curve $-1 -66.040833765678883 -3.3156340095755485 5.3994330824002557 0 -1 0 I I #
point $-1 -66.040833765678883 -3.6194971287490869 5.3994330824002645 #
point $-1 -63.808765859402847 -7.9220269721805288 6.6126385928920657 #
point $-1 -63.808765859402847 -5.3405090661216654 6.6126385928920657 #
straight-curve $-1 -66.040833765678883 12.14339814737413 37.696025742122899 0 0 -1 I I #
point $-1 -66.040833765678883 12.14339814737413 9.1506422322617542 #
straight-curve $-1 -66.040833765678883 4.56581362848606 5.3994330824002557 0 -1 0 I I #
point $-1 -66.040833765678883 12.14339814737413 5.3994330824002645 #
point $-1 -63.808765859402847 7.8408683039426954 6.6126385928920657 #
point $-1 -63.808765859402847 10.422386210001559 6.6126385928920657 #
straight-curve $-1 66.040833765678883 -1.0769025735715623 91.724893022731223 0 0 -1 I I #
point $-1 66.040833765678883 -1.0769025735715623 9.1506422322617542 #
straight-curve $-1 66.040833765678869 1.128199044916558 0.73994664386658826 0 1 0 I I #
point $-1 66.040833765678883 -1.0769025735715623 0.73994664386658826 #
point $-1 58.401730930615997 0.2564176917903076 3.1537613280980716 #
point $-1 58.401730930615997 2.256398089833116 3.1537613280980716 #
point $-1 58.401730930615997 4.2563784878759243 3.1537613280980716 #
straight-curve $-1 -66.040833765678883 -38.322586527787607 7.0109496842907344 0 0 -1 I I #
straight-curve $-1 66.040833765678883 -38.322586527787607 7.0109496842907344 0 0 -1 I I #
straight-curve $-1 0 38.322586527787607 9.1506422322617524 -1 0 0 I I #
straight-curve $-1 -66.040833765678883 38.322586527787607 7.0109496842907344 0 0 -1 I I #
point $-1 -66.040833765678883 38.322586527787607 9.1506422322617524 #
End-of-ACIS-data 