500 0 11 0           
7 Unknown 11 ACIS 5.0 NT 24 Thu Mar 25 23:14:37 1999 
-1 9.9999999999999995e-007 1e-010 
body $-1 $11 $-1 $12 #
body $-1 $13 $-1 $14 #
body $-1 $15 $-1 $16 #
body $-1 $17 $-1 $18 #
body $-1 $19 $-1 $20 #
body $-1 $21 $-1 $22 #
body $-1 $23 $-1 $24 #
body $-1 $25 $-1 $26 #
body $-1 $27 $-1 $28 #
body $-1 $29 $-1 $30 #
body $-1 $31 $-1 $32 #
lump $-1 $-1 $33 $0 #
transform $-1 1 0 0 0 1 0 0 0 1 73.56547746208075 34.212313756329962 11.188252488397758 1 rotate no_reflect no_shear #
lump $-1 $-1 $34 $1 #
transform $-1 1 0 0 0 1 0 0 0 1 73.56547746208075 34.212313756329962 11.188252488397758 1 rotate no_reflect no_shear #
lump $-1 $-1 $35 $2 #
transform $-1 1 0 0 0 1 0 0 0 1 73.56547746208075 34.212313756329962 11.188252488397758 1 rotate no_reflect no_shear #
lump $-1 $-1 $36 $3 #
transform $-1 1 0 0 0 1 0 0 0 1 73.56547746208075 34.212313756329962 11.188252488397758 1 rotate no_reflect no_shear #
lump $-1 $-1 $37 $4 #
transform $-1 1 0 0 0 1 0 0 0 1 73.56547746208075 34.212313756329962 11.188252488397758 1 rotate no_reflect no_shear #
lump $-1 $-1 $38 $5 #
transform $-1 1 0 0 0 1 0 0 0 1 73.56547746208075 34.212313756329962 11.188252488397758 1 rotate no_reflect no_shear #
lump $-1 $-1 $39 $6 #
transform $-1 1 0 0 0 1 0 0 0 1 73.56547746208075 34.212313756329962 11.188252488397758 1 rotate no_reflect no_shear #
lump $-1 $-1 $40 $7 #
transform $-1 1 0 0 0 1 0 0 0 1 73.56547746208075 34.212313756329962 11.188252488397758 1 rotate no_reflect no_shear #
lump $-1 $-1 $41 $8 #
transform $-1 1 0 0 0 1 0 0 0 1 73.56547746208075 34.212313756329962 11.188252488397758 1 rotate no_reflect no_shear #
lump $-1 $-1 $42 $9 #
transform $-1 1 0 0 0 1 0 0 0 1 73.56547746208075 34.212313756329962 11.188252488397758 1 rotate no_reflect no_shear #
lump $-1 $-1 $43 $10 #
transform $-1 1 0 0 0 1 0 0 0 1 73.56547746208075 34.212313756329962 11.188252488397758 1 rotate no_reflect no_shear #
shell $-1 $-1 $-1 $44 $-1 $11 #
shell $-1 $-1 $-1 $45 $-1 $13 #
shell $-1 $-1 $-1 $46 $-1 $15 #
shell $-1 $-1 $-1 $47 $-1 $17 #
shell $-1 $-1 $-1 $48 $-1 $19 #
shell $-1 $-1 $-1 $49 $-1 $21 #
shell $-1 $-1 $-1 $50 $-1 $23 #
shell $-1 $-1 $-1 $51 $-1 $25 #
shell $-1 $-1 $-1 $52 $-1 $27 #
shell $-1 $-1 $-1 $53 $-1 $29 #
shell $-1 $-1 $-1 $54 $-1 $31 #
face $-1 $55 $56 $33 $-1 $57 reversed single #
face $-1 $58 $59 $34 $-1 $60 forward single #
face $-1 $61 $62 $35 $-1 $63 reversed single #
face $-1 $64 $65 $36 $-1 $66 forward single #
face $-1 $67 $68 $37 $-1 $69 forward single #
face $-1 $70 $71 $38 $-1 $72 reversed single #
face $-1 $73 $74 $39 $-1 $75 forward single #
face $-1 $76 $77 $40 $-1 $78 forward single #
face $-1 $79 $80 $41 $-1 $81 reversed single #
face $-1 $82 $83 $42 $-1 $84 forward single #
face $-1 $85 $86 $43 $-1 $87 forward single #
face $-1 $88 $89 $33 $-1 $90 forward single #
loop $-1 $-1 $91 $44 #
plane-surface $-1 -73.56547746208075 0 0 1 0 0 0 0 -1 forward_v I I I I #
face $-1 $92 $93 $34 $-1 $94 reversed single #
loop $-1 $-1 $95 $45 #
plane-surface $-1 -73.56547746208075 0 0 1 0 0 0 0 -1 forward_v I I I I #
face $-1 $96 $97 $35 $-1 $98 reversed single #
loop $-1 $-1 $99 $46 #
plane-surface $-1 30.209604108736769 -157.60671646261275 87.389660014796618 -1 0 0 0 -0.83867057594974714 0.54463902268945019 forward_v I I I I #
face $-1 $100 $101 $36 $-1 $102 forward single #
loop $-1 $103 $104 $47 #
cone-surface $-1 13.975030233309141 -32.516291246829041 8.9500069916220308 0 0.83867057594974714 -0.54463902268945019 0.5 0 0 1 I I 0 1 0.5 forward I I I I #
face $-1 $105 $106 $37 $-1 $107 forward single #
loop $-1 $108 $109 $48 #
cone-surface $-1 23.715774558565712 -32.516291246829041 8.9500069916220308 0 0.83867057594974714 -0.54463902268945019 0.5 0 0 1 I I 0 1 0.5 forward I I I I #
face $-1 $110 $111 $38 $-1 $112 reversed single #
loop $-1 $-1 $113 $49 #
plane-surface $-1 -8.1873057210614917 84.512780826116909 162.45475578987524 1 0 0 0 -0.68199836817093118 -0.7313536940579346 forward_v I I I I #
face $-1 $114 $115 $39 $-1 $116 forward single #
loop $-1 $117 $118 $50 #
cone-surface $-1 -4.1856228193268663 32.152073635276814 9.2041584775397389 0 -0.68199836817093118 -0.7313536940579346 1 0 0 1 I I 0 1 1 forward I I I I #
face $-1 $119 $120 $40 $-1 $121 forward single #
loop $-1 $122 $123 $51 #
cone-surface $-1 1.8169015332750718 32.152073635276814 9.2041584775397389 0 -0.68199836817093118 -0.7313536940579346 1 0 0 1 I I 0 1 1 forward I I I I #
face $-1 $124 $125 $41 $-1 $126 reversed single #
loop $-1 $-1 $127 $52 #
plane-surface $-1 59.559587306009561 84.512780826116909 162.45475578987524 1 0 0 0 -0.68199836817093118 -0.7313536940579346 forward_v I I I I #
face $-1 $128 $129 $42 $-1 $130 forward single #
loop $-1 $131 $132 $53 #
cone-surface $-1 63.561270207744187 32.152073635276814 9.2041584775397389 0 -0.68199836817093118 -0.7313536940579346 1 0 0 1 I I 0 1 1 forward I I I I #
face $-1 $133 $134 $43 $-1 $135 forward single #
loop $-1 $136 $137 $54 #
cone-surface $-1 69.563794560346125 32.152073635276814 9.2041584775397389 0 -0.68199836817093118 -0.7313536940579346 1 0 0 1 I I 0 1 1 forward I I I I #
face $-1 $138 $139 $33 $-1 $140 reversed single #
loop $-1 $-1 $141 $55 #
plane-surface $-1 0 0 11.188252488397758 0 0 1 1 0 0 forward_v I I I I #
coedge $-1 $142 $143 $144 $145 reversed $56 $-1 #
face $-1 $146 $147 $34 $-1 $148 reversed single #
loop $-1 $-1 $149 $58 #
plane-surface $-1 0 0 -11.188252488397758 0 0 1 1 0 0 forward_v I I I I #
coedge $-1 $150 $151 $152 $153 forward $59 $-1 #
face $-1 $154 $155 $35 $-1 $156 reversed single #
loop $-1 $-1 $157 $61 #
plane-surface $-1 18.845402395937427 -34.212313756329948 7.2564005175357522 0 -0.83867057594974714 0.54463902268945019 1 0 0 forward_v I I I I #
coedge $-1 $158 $159 $160 $161 reversed $62 $-1 #
face $-1 $-1 $162 $36 $-1 $163 forward single #
loop $-1 $164 $165 $64 #
cone-surface $-1 13.975030233309141 -31.88728831486673 8.5415277246049435 0 0.83867057594974714 -0.54463902268945019 0.25 0 0 1 I I -0.70710678118654746 0.70710678118654746 0.25 forward I I I I #
loop $-1 $-1 $166 $47 #
coedge $-1 $104 $104 $167 $168 reversed $65 $-1 #
face $-1 $-1 $169 $37 $-1 $170 forward single #
loop $-1 $171 $172 $67 #
cone-surface $-1 23.715774558565712 -31.88728831486673 8.5415277246049435 0 0.83867057594974714 -0.54463902268945019 0.25 0 0 1 I I -0.70710678118654746 0.70710678118654746 0.25 forward I I I I #
loop $-1 $-1 $173 $48 #
coedge $-1 $109 $109 $174 $175 reversed $68 $-1 #
face $-1 $176 $177 $38 $-1 $178 reversed single #
loop $-1 $-1 $179 $70 #
plane-surface $-1 -1.1843606430258973 -15.830290339592068 54.849988395818258 0 0.68199836817093118 0.7313536940579346 1 0 0 forward_v I I I I #
coedge $-1 $180 $181 $182 $183 reversed $71 $-1 #
face $-1 $-1 $184 $39 $-1 $185 forward single #
loop $-1 $186 $187 $73 #
cone-surface $-1 -4.1856228193268663 31.361397192231635 8.3562618191114453 0 -0.68199836817093118 -0.7313536940579346 0.5 0 0 1 I I -0.70710678118654746 0.70710678118654746 0.5 forward I I I I #
loop $-1 $-1 $188 $50 #
coedge $-1 $118 $118 $189 $190 reversed $74 $-1 #
face $-1 $-1 $191 $40 $-1 $192 forward single #
loop $-1 $193 $194 $76 #
cone-surface $-1 1.8169015332750718 31.361397192231635 8.3562618191114453 0 -0.68199836817093118 -0.7313536940579346 0.5 0 0 1 I I -0.70710678118654746 0.70710678118654746 0.5 forward I I I I #
loop $-1 $-1 $195 $51 #
coedge $-1 $123 $123 $196 $197 reversed $77 $-1 #
face $-1 $198 $199 $41 $-1 $200 forward single #
loop $-1 $-1 $201 $79 #
plane-surface $-1 66.562532384045156 -15.830290339592068 54.849988395818258 0 0.68199836817093118 0.7313536940579346 1 0 0 forward_v I I I I #
coedge $-1 $202 $203 $204 $205 reversed $80 $-1 #
face $-1 $-1 $206 $42 $-1 $207 forward single #
loop $-1 $208 $209 $82 #
cone-surface $-1 63.561270207744187 31.361397192231635 8.3562618191114453 0 -0.68199836817093118 -0.7313536940579346 0.5 0 0 1 I I -0.70710678118654746 0.70710678118654746 0.5 forward I I I I #
loop $-1 $-1 $210 $53 #
coedge $-1 $132 $132 $211 $212 reversed $83 $-1 #
face $-1 $-1 $213 $43 $-1 $214 forward single #
loop $-1 $215 $216 $85 #
cone-surface $-1 69.563794560346125 31.361397192231635 8.3562618191114453 0 -0.68199836817093118 -0.7313536940579346 0.5 0 0 1 I I -0.70710678118654746 0.70710678118654746 0.5 forward I I I I #
loop $-1 $-1 $217 $54 #
coedge $-1 $137 $137 $218 $219 reversed $86 $-1 #
face $-1 $220 $221 $33 $-1 $222 reversed single #
loop $-1 $-1 $223 $88 #
plane-surface $-1 0 0 -11.188252488397758 0 0 1 1 0 0 forward_v I I I I #
coedge $-1 $224 $225 $226 $227 forward $89 $-1 #
coedge $-1 $228 $91 $229 $230 reversed $56 $-1 #
coedge $-1 $91 $228 $231 $232 forward $56 $-1 #
coedge $-1 $233 $234 $91 $145 forward $139 $-1 #
edge $-1 $235 -34.212313756329962 $236 34.212313756329962 $91 $237 forward 7 unknown #
face $-1 $238 $239 $34 $-1 $240 reversed single #
loop $-1 $-1 $241 $92 #
plane-surface $-1 -79.384061897090447 -14.943743952113381 0 0 1 0 0 0 1 forward_v I I I I #
coedge $-1 $242 $243 $151 $244 forward $93 $-1 #
coedge $-1 $245 $95 $246 $247 reversed $59 $-1 #
coedge $-1 $95 $245 $149 $244 reversed $59 $-1 #
coedge $-1 $248 $249 $95 $153 reversed $250 $-1 #
edge $-1 $251 -11.188252488397758 $252 11.188252488397758 $152 $253 forward 7 unknown #
face $-1 $254 $255 $35 $-1 $256 forward single #
loop $-1 $-1 $257 $96 #
plane-surface $-1 7.4812006831380842 -157.60671646261275 87.389660014796618 1 0 0 0 0.83867057594974714 -0.54463902268945019 forward_v I I I I #
coedge $-1 $258 $259 $260 $261 reversed $97 $-1 #
coedge $-1 $159 $99 $262 $263 reversed $62 $-1 #
coedge $-1 $99 $158 $258 $264 reversed $62 $-1 #
coedge $-1 $260 $265 $99 $161 forward $255 $-1 #
edge $-1 $266 44.591044474976414 $267 47.144418918028535 $160 $268 forward 7 unknown #
loop $-1 $-1 $167 $100 #
plane-surface $-1 18.845402395937427 -34.212313756329948 7.2564005175357522 0 -0.83867057594974714 0.54463902268945019 1 0 0 forward_v I I I I #
loop $-1 $-1 $269 $64 #
coedge $-1 $165 $165 $166 $270 reversed $101 $-1 #
coedge $-1 $166 $166 $165 $270 forward $103 $-1 #
coedge $-1 $167 $167 $104 $168 forward $162 $-1 #
edge $-1 $271 -5.8178991141796234e-016 $271 6.2831853071795996 $167 $272 forward 7 unknown #
loop $-1 $-1 $174 $105 #
plane-surface $-1 18.845402395937427 -34.212313756329948 7.2564005175357522 0 -0.83867057594974714 0.54463902268945019 1 0 0 forward_v I I I I #
loop $-1 $-1 $273 $67 #
coedge $-1 $172 $172 $173 $274 reversed $106 $-1 #
coedge $-1 $173 $173 $172 $274 forward $108 $-1 #
coedge $-1 $174 $174 $109 $175 forward $169 $-1 #
edge $-1 $275 -5.8178991141796234e-016 $275 6.2831853071795996 $174 $276 forward 7 unknown #
face $-1 $277 $278 $38 $-1 $279 reversed single #
loop $-1 $-1 $280 $110 #
plane-surface $-1 5.8185844350096971 84.512780826116909 162.45475578987524 -1 0 0 0 0.68199836817093118 0.7313536940579346 forward_v I I I I #
coedge $-1 $281 $282 $283 $284 reversed $111 $-1 #
coedge $-1 $181 $113 $285 $286 reversed $71 $-1 #
coedge $-1 $113 $180 $281 $287 reversed $71 $-1 #
coedge $-1 $283 $288 $113 $183 forward $289 $-1 #
edge $-1 $290 8.0440766567284925 $291 11.265202380915326 $182 $292 forward 7 unknown #
loop $-1 $-1 $189 $114 #
plane-surface $-1 -1.1843606430258973 -15.830290339592068 54.849988395818258 0 0.68199836817093118 0.7313536940579346 1 0 0 forward_v I I I I #
loop $-1 $-1 $293 $73 #
coedge $-1 $187 $187 $188 $294 reversed $115 $-1 #
coedge $-1 $188 $188 $187 $294 forward $117 $-1 #
coedge $-1 $189 $189 $118 $190 forward $184 $-1 #
edge $-1 $295 3.2837267144799048e-015 $295 6.283185307179604 $189 $296 forward 7 unknown #
loop $-1 $-1 $196 $119 #
plane-surface $-1 -1.1843606430258973 -15.830290339592068 54.849988395818258 0 0.68199836817093118 0.7313536940579346 1 0 0 forward_v I I I I #
loop $-1 $-1 $297 $76 #
coedge $-1 $194 $194 $195 $298 reversed $120 $-1 #
coedge $-1 $195 $195 $194 $298 forward $122 $-1 #
coedge $-1 $196 $196 $123 $197 forward $191 $-1 #
edge $-1 $299 3.2837267144799048e-015 $299 6.283185307179604 $196 $300 forward 7 unknown #
face $-1 $301 $302 $41 $-1 $303 reversed single #
loop $-1 $-1 $204 $124 #
plane-surface $-1 0 0 11.188252488397758 0 0 1 1 0 0 forward_v I I I I #
coedge $-1 $304 $305 $306 $307 reversed $125 $-1 #
coedge $-1 $203 $127 $308 $309 reversed $80 $-1 #
coedge $-1 $127 $202 $304 $310 reversed $80 $-1 #
coedge $-1 $306 $311 $127 $205 forward $199 $-1 #
edge $-1 $312 8.0440766567284925 $313 11.265202380915326 $204 $314 forward 7 unknown #
loop $-1 $-1 $211 $128 #
plane-surface $-1 66.562532384045156 -15.830290339592068 54.849988395818258 0 0.68199836817093118 0.7313536940579346 1 0 0 forward_v I I I I #
loop $-1 $-1 $315 $82 #
coedge $-1 $209 $209 $210 $316 reversed $129 $-1 #
coedge $-1 $210 $210 $209 $316 forward $131 $-1 #
coedge $-1 $211 $211 $132 $212 forward $206 $-1 #
edge $-1 $317 3.2837267144799048e-015 $317 6.283185307179604 $211 $318 forward 7 unknown #
loop $-1 $-1 $218 $133 #
plane-surface $-1 66.562532384045156 -15.830290339592068 54.849988395818258 0 0.68199836817093118 0.7313536940579346 1 0 0 forward_v I I I I #
loop $-1 $-1 $319 $85 #
coedge $-1 $216 $216 $217 $320 reversed $134 $-1 #
coedge $-1 $217 $217 $216 $320 forward $136 $-1 #
coedge $-1 $218 $218 $137 $219 forward $213 $-1 #
edge $-1 $321 3.2837267144799048e-015 $321 6.283185307179604 $218 $322 forward 7 unknown #
face $-1 $323 $324 $33 $-1 $325 reversed single #
loop $-1 $-1 $229 $138 #
plane-surface $-1 0 -34.212313756329962 0 0 1 0 0 0 1 forward_v I I I I #
coedge $-1 $234 $233 $326 $327 forward $139 $-1 #
coedge $-1 $328 $141 $329 $330 forward $89 $-1 #
coedge $-1 $141 $328 $331 $332 forward $89 $-1 #
coedge $-1 $333 $334 $141 $227 reversed $335 $-1 #
edge $-1 $336 -34.212313756329962 $337 34.212313756329962 $226 $338 forward 7 unknown #
coedge $-1 $143 $142 $328 $339 reversed $56 $-1 #
coedge $-1 $340 $331 $142 $230 forward $221 $-1 #
edge $-1 $341 -11.188252488397758 $235 11.188252488397758 $142 $342 forward 7 unknown #
coedge $-1 $329 $343 $143 $232 reversed $324 $-1 #
edge $-1 $344 -11.188252488397758 $236 11.188252488397758 $231 $345 forward 7 unknown #
coedge $-1 $223 $144 $343 $346 forward $139 $-1 #
coedge $-1 $144 $223 $340 $347 forward $139 $-1 #
vertex $-1 $145 $348 #
vertex $-1 $346 $349 #
straight-curve $-1 -73.56547746208075 0 -11.188252488397758 0 1 0 I I #
face $-1 $350 $250 $34 $-1 $351 reversed single #
loop $-1 $-1 $352 $146 #
plane-surface $-1 -85.202646332100144 -13.389776365823913 0 1 0 0 0 0 -1 forward_v I I I I #
coedge $-1 $353 $354 $355 $356 forward $147 $-1 #
coedge $-1 $357 $149 $353 $358 forward $93 $-1 #
coedge $-1 $149 $357 $248 $359 forward $93 $-1 #
edge $-1 $251 11.835808779534444 $360 14.943743952113381 $149 $361 forward 7 unknown #
coedge $-1 $151 $150 $362 $363 forward $59 $-1 #
coedge $-1 $364 $365 $150 $247 forward $366 $-1 #
edge $-1 $367 -14.943743952113381 $252 -11.835808779534444 $246 $368 forward 7 unknown #
coedge $-1 $369 $152 $243 $359 reversed $250 $-1 #
coedge $-1 $152 $369 $364 $370 reversed $250 $-1 #
loop $-1 $-1 $152 $238 #
vertex $-1 $244 $371 #
vertex $-1 $370 $372 #
straight-curve $-1 -73.56547746208075 -11.835808779534444 0 0 0 1 I I #
face $-1 $-1 $373 $35 $-1 $374 reversed single #
loop $-1 $-1 $160 $154 #
plane-surface $-1 0 0 11.188252488397758 0 0 1 1 0 0 forward_v I I I I #
coedge $-1 $375 $376 $377 $378 reversed $155 $-1 #
coedge $-1 $379 $157 $159 $264 forward $97 $-1 #
coedge $-1 $157 $379 $375 $380 forward $97 $-1 #
coedge $-1 $377 $160 $157 $261 forward $255 $-1 #
edge $-1 $267 -20.786902910768056 $381 1.9415005148306292 $260 $382 forward 7 unknown #
coedge $-1 $383 $384 $158 $263 forward $373 $-1 #
edge $-1 $385 -36.438429489862578 $266 -32.506577519000551 $262 $386 forward 7 unknown #
edge $-1 $267 -4.6881959181761035 $385 2.636201369357039e-014 $159 $387 forward 7 unknown #
coedge $-1 $160 $377 $383 $388 forward $255 $-1 #
vertex $-1 $161 $389 #
vertex $-1 $161 $390 #
straight-curve $-1 30.209604108736769 -78.803358231306376 11.188252488397758 0 1 0 I I #
coedge $-1 $269 $269 $-1 $391 reversed $164 $-1 #
edge $-1 $392 0 $392 6.2831853071796004 $165 $393 forward 7 unknown #
vertex $-1 $168 $394 #
ellipse-curve $-1 13.975030233309141 -32.935626534803902 9.2223265029667481 0 -0.83867057594974714 0.54463902268945019 0.5 0 0 1 I I #
coedge $-1 $273 $273 $-1 $395 reversed $171 $-1 #
edge $-1 $396 0 $396 6.2831853071796004 $172 $397 forward 7 unknown #
vertex $-1 $175 $398 #
ellipse-curve $-1 23.715774558565712 -32.935626534803902 9.2223265029667481 0 -0.83867057594974714 0.54463902268945019 0.5 0 0 1 I I #
face $-1 $-1 $289 $38 $-1 $399 forward single #
loop $-1 $-1 $400 $176 #
plane-surface $-1 0 34.212313756329962 0 0 -1 0 0 0 -1 forward_v I I I I #
coedge $-1 $401 $402 $403 $404 reversed $177 $-1 #
coedge $-1 $405 $179 $181 $287 forward $111 $-1 #
coedge $-1 $179 $405 $401 $406 forward $111 $-1 #
coedge $-1 $403 $182 $179 $284 forward $289 $-1 #
edge $-1 $291 -7.595125399548543 $407 6.4107647565226458 $283 $408 forward 7 unknown #
coedge $-1 $409 $410 $180 $286 forward $278 $-1 #
edge $-1 $411 -73.042873805457248 $290 -70.039125406539853 $285 $412 forward 7 unknown #
edge $-1 $291 64.020293808793156 $411 68.424627512659939 $181 $413 forward 7 unknown #
coedge $-1 $182 $403 $409 $414 forward $289 $-1 #
loop $-1 $-1 $403 $277 #
vertex $-1 $286 $415 #
vertex $-1 $183 $416 #
straight-curve $-1 -8.1873057210614917 42.256390413058455 11.188252488397751 0 -1 0 I I #
coedge $-1 $293 $293 $-1 $417 reversed $186 $-1 #
edge $-1 $418 0 $418 6.2831853071796004 $187 $419 forward 7 unknown #
vertex $-1 $190 $420 #
ellipse-curve $-1 -4.1856228193268663 32.601750894236538 9.6863782889390766 0 0.68199836817093118 0.7313536940579346 1 0 0 1 I I #
coedge $-1 $297 $297 $-1 $421 reversed $193 $-1 #
edge $-1 $422 0 $422 6.2831853071796004 $194 $423 forward 7 unknown #
vertex $-1 $197 $424 #
ellipse-curve $-1 1.8169015332750718 32.601750894236538 9.6863782889390766 0 0.68199836817093118 0.7313536940579346 1 0 0 1 I I #
face $-1 $-1 $425 $41 $-1 $426 reversed single #
loop $-1 $-1 $308 $198 #
plane-surface $-1 0 34.212313756329962 0 0 -1 0 0 0 -1 forward_v I I I I #
coedge $-1 $427 $201 $203 $310 forward $125 $-1 #
coedge $-1 $201 $427 $428 $429 reversed $125 $-1 #
coedge $-1 $430 $204 $201 $307 forward $199 $-1 #
edge $-1 $313 26.278321113986983 $431 40.284211270058172 $306 $432 forward 7 unknown #
coedge $-1 $433 $434 $202 $309 forward $302 $-1 #
edge $-1 $435 -73.042873805457248 $312 -70.039125406539853 $308 $436 forward 7 unknown #
edge $-1 $313 64.020293808793156 $435 68.424627512659939 $203 $437 forward 7 unknown #
coedge $-1 $204 $430 $433 $438 forward $199 $-1 #
vertex $-1 $205 $439 #
vertex $-1 $205 $440 #
straight-curve $-1 59.559587306009561 42.256390413058455 11.188252488397751 0 -1 0 I I #
coedge $-1 $315 $315 $-1 $441 reversed $208 $-1 #
edge $-1 $442 0 $442 6.2831853071796004 $209 $443 forward 7 unknown #
vertex $-1 $212 $444 #
ellipse-curve $-1 63.561270207744187 32.601750894236538 9.6863782889390766 0 0.68199836817093118 0.7313536940579346 1 0 0 1 I I #
coedge $-1 $319 $319 $-1 $445 reversed $215 $-1 #
edge $-1 $446 0 $446 6.2831853071796004 $216 $447 forward 7 unknown #
vertex $-1 $219 $448 #
ellipse-curve $-1 69.563794560346125 32.601750894236538 9.6863782889390766 0 0.68199836817093118 0.7313536940579346 1 0 0 1 I I #
face $-1 $-1 $335 $33 $-1 $449 reversed single #
loop $-1 $-1 $450 $220 #
plane-surface $-1 0 34.212313756329962 0 0 -1 0 0 0 -1 forward_v I I I I #
coedge $-1 $334 $333 $223 $327 reversed $335 $-1 #
edge $-1 $451 -34.212313756329962 $452 34.212313756329962 $326 $453 forward 7 unknown #
coedge $-1 $225 $224 $228 $339 forward $89 $-1 #
coedge $-1 $450 $231 $224 $330 reversed $324 $-1 #
edge $-1 $337 -73.56547746208075 $344 73.56547746208075 $329 $454 forward 7 unknown #
coedge $-1 $229 $455 $225 $332 reversed $221 $-1 #
edge $-1 $341 -73.56547746208075 $336 73.56547746208075 $331 $456 forward 7 unknown #
coedge $-1 $326 $226 $455 $457 forward $335 $-1 #
coedge $-1 $226 $326 $450 $458 reversed $335 $-1 #
loop $-1 $-1 $333 $323 #
vertex $-1 $227 $459 #
vertex $-1 $227 $460 #
straight-curve $-1 73.56547746208075 0 11.188252488397758 0 1 0 I I #
edge $-1 $344 -34.212313756329962 $341 34.212313756329962 $228 $461 forward 7 unknown #
coedge $-1 $455 $229 $234 $347 reversed $221 $-1 #
vertex $-1 $339 $462 #
straight-curve $-1 -73.56547746208075 -34.212313756329962 0 0 0 -1 I I #
coedge $-1 $231 $450 $233 $346 reversed $324 $-1 #
vertex $-1 $330 $463 #
straight-curve $-1 -73.56547746208075 34.212313756329962 0 0 0 -1 I I #
edge $-1 $236 -73.56547746208075 $451 73.56547746208075 $343 $464 forward 7 unknown #
edge $-1 $452 -73.56547746208075 $235 73.56547746208075 $340 $465 forward 7 unknown #
point $-1 -73.56547746208075 -34.212313756329962 -11.188252488397758 #
point $-1 -73.56547746208075 34.212313756329962 -11.188252488397758 #
face $-1 $-1 $366 $34 $-1 $466 forward single #
plane-surface $-1 -79.384061897090447 -11.835808779534444 0 0 -1 0 0 0 -1 forward_v I I I I #
coedge $-1 $467 $468 $369 $469 forward $239 $-1 #
coedge $-1 $362 $241 $242 $358 reversed $147 $-1 #
coedge $-1 $241 $362 $365 $470 reversed $147 $-1 #
coedge $-1 $468 $467 $241 $356 reversed $239 $-1 #
edge $-1 $471 -11.188252488397758 $472 11.188252488397758 $355 $473 forward 7 unknown #
coedge $-1 $243 $242 $467 $474 forward $93 $-1 #
edge $-1 $360 -5.8185844350096971 $472 5.8185844350096971 $353 $475 forward 7 unknown #
edge $-1 $476 -5.8185844350096971 $251 5.8185844350096971 $248 $477 forward 7 unknown #
vertex $-1 $358 $478 #
straight-curve $-1 -73.56547746208075 0 -11.188252488397758 0 -1 0 I I #
coedge $-1 $354 $353 $245 $363 reversed $147 $-1 #
edge $-1 $367 -11.188252488397758 $360 11.188252488397758 $362 $479 forward 7 unknown #
coedge $-1 $480 $246 $249 $370 forward $366 $-1 #
coedge $-1 $246 $480 $354 $470 forward $366 $-1 #
loop $-1 $-1 $246 $350 #
vertex $-1 $247 $481 #
straight-curve $-1 -73.56547746208075 0 11.188252488397758 0 1 0 I I #
coedge $-1 $249 $248 $352 $469 reversed $250 $-1 #
edge $-1 $252 -5.8185844350096971 $482 5.8185844350096971 $249 $483 forward 7 unknown #
point $-1 -73.56547746208075 -11.835808779534444 -11.188252488397758 #
point $-1 -73.56547746208075 -11.835808779534444 11.188252488397758 #
loop $-1 $-1 $262 $254 #
plane-surface $-1 0 -34.212313756329962 0 0 1 0 0 0 1 forward_v I I I I #
coedge $-1 $376 $257 $259 $380 reversed $155 $-1 #
coedge $-1 $257 $375 $484 $485 reversed $155 $-1 #
coedge $-1 $265 $260 $257 $378 forward $255 $-1 #
edge $-1 $381 -47.144418918028535 $486 -44.591044474976414 $377 $487 forward 7 unknown #
coedge $-1 $259 $258 $384 $488 reversed $97 $-1 #
edge $-1 $489 -2.636201369357039e-014 $381 4.6881959181761035 $375 $490 forward 7 unknown #
vertex $-1 $261 $491 #
straight-curve $-1 9.4227011979687134 -31.658939313277845 11.188252488397758 -1 0 0 I I #
coedge $-1 $484 $262 $265 $388 reversed $373 $-1 #
coedge $-1 $262 $484 $379 $488 forward $373 $-1 #
vertex $-1 $263 $492 #
straight-curve $-1 30.209604108736769 -34.212313756329962 43.694830007398309 0 0 1 I I #
straight-curve $-1 30.209604108736769 -34.212313756329948 7.2564005175357522 0 -0.54463902268945019 -0.83867057594974714 I I #
edge $-1 $486 7.4812006831380842 $266 30.209604108736769 $383 $493 forward 7 unknown #
point $-1 30.209604108736769 -34.212313756329962 11.188252488397758 #
point $-1 30.209604108736769 -31.658939313277845 11.188252488397758 #
edge $-1 $494 1 $494 0 $269 $-1 forward 7 unknown #
vertex $-1 $270 $495 #
ellipse-curve $-1 13.975030233309141 -32.096955958854167 8.6776874802773065 0 -0.83867057594974714 0.54463902268945019 0.5 0 0 1 I I #
point $-1 14.475030233309141 -32.935626534803916 9.2223265029667569 #
edge $-1 $496 1 $496 0 $273 $-1 forward 7 unknown #
vertex $-1 $274 $497 #
ellipse-curve $-1 23.715774558565712 -32.096955958854167 8.6776874802773065 0 -0.83867057594974714 0.54463902268945019 0.5 0 0 1 I I #
point $-1 24.215774558565712 -32.935626534803916 9.2223265029667569 #
plane-surface $-1 0 0 11.188252488397758 0 0 1 1 0 0 forward_v I I I I #
coedge $-1 $410 $409 $402 $498 forward $278 $-1 #
coedge $-1 $402 $280 $282 $406 reversed $177 $-1 #
coedge $-1 $280 $401 $400 $498 reversed $177 $-1 #
coedge $-1 $288 $283 $280 $404 forward $289 $-1 #
edge $-1 $407 -11.265202380915326 $499 -8.0440766567284925 $403 $500 forward 7 unknown #
coedge $-1 $282 $281 $410 $501 reversed $111 $-1 #
edge $-1 $502 -68.424627512659939 $407 -64.020293808793156 $401 $503 forward 7 unknown #
vertex $-1 $284 $504 #
straight-curve $-1 -0.59218032151294864 30.991188032143114 11.188252488397758 1 0 0 I I #
coedge $-1 $400 $285 $288 $414 reversed $278 $-1 #
coedge $-1 $285 $400 $405 $501 forward $278 $-1 #
vertex $-1 $286 $505 #
straight-curve $-1 -8.1873057210614917 34.212313756329962 81.227377894937618 0 0 1 I I #
straight-curve $-1 -8.1873057210614917 -15.830290339592068 54.849988395818258 0 0.7313536940579346 -0.68199836817093118 I I #
edge $-1 $499 -5.8185844350096971 $290 8.1873057210614917 $409 $506 forward 7 unknown #
point $-1 -8.1873057210614917 34.212313756329962 11.188252488397758 #
point $-1 -8.1873057210614917 30.991188032143128 11.188252488397758 #
edge $-1 $507 1 $507 0 $293 $-1 forward 7 unknown #
vertex $-1 $294 $508 #
ellipse-curve $-1 -4.1856228193268663 31.7023963763171 8.7219386661404119 0 0.68199836817093118 0.7313536940579346 1 0 0 1 I I #
point $-1 -3.1856228193268663 32.601750894236531 9.6863782889390642 #
edge $-1 $509 1 $509 0 $297 $-1 forward 7 unknown #
vertex $-1 $298 $510 #
ellipse-curve $-1 1.8169015332750718 31.7023963763171 8.7219386661404119 0 0.68199836817093118 0.7313536940579346 1 0 0 1 I I #
point $-1 2.8169015332750718 32.601750894236531 9.6863782889390642 #
loop $-1 $-1 $428 $301 #
plane-surface $-1 73.56547746208075 0 0 -1 0 0 0 0 1 forward_v I I I I #
coedge $-1 $305 $304 $434 $511 reversed $125 $-1 #
coedge $-1 $512 $513 $305 $429 forward $425 $-1 #
edge $-1 $431 39.527721859786723 $514 43.932055563653506 $428 $515 forward 7 unknown #
coedge $-1 $311 $306 $513 $516 forward $199 $-1 #
vertex $-1 $516 $517 #
straight-curve $-1 33.281266192022578 30.991188032143114 11.188252488397758 1 0 0 I I #
coedge $-1 $518 $308 $311 $438 reversed $302 $-1 #
coedge $-1 $308 $518 $427 $511 forward $302 $-1 #
vertex $-1 $309 $519 #
straight-curve $-1 59.559587306009561 34.212313756329962 81.227377894937618 0 0 1 I I #
straight-curve $-1 59.559587306009561 -15.830290339592068 54.849988395818258 0 0.7313536940579346 -0.68199836817093118 I I #
edge $-1 $520 -73.56547746208075 $312 -59.559587306009561 $433 $521 forward 7 unknown #
point $-1 59.559587306009561 34.212313756329962 11.188252488397758 #
point $-1 59.559587306009561 30.991188032143128 11.188252488397758 #
edge $-1 $522 1 $522 0 $315 $-1 forward 7 unknown #
vertex $-1 $316 $523 #
ellipse-curve $-1 63.561270207744187 31.7023963763171 8.7219386661404119 0 0.68199836817093118 0.7313536940579346 1 0 0 1 I I #
point $-1 64.561270207744187 32.601750894236531 9.6863782889390642 #
edge $-1 $524 1 $524 0 $319 $-1 forward 7 unknown #
vertex $-1 $320 $525 #
ellipse-curve $-1 69.563794560346125 31.7023963763171 8.7219386661404119 0 0.68199836817093118 0.7313536940579346 1 0 0 1 I I #
point $-1 70.563794560346125 32.601750894236531 9.6863782889390642 #
plane-surface $-1 73.56547746208075 0 0 -1 0 0 0 0 1 forward_v I I I I #
coedge $-1 $343 $329 $334 $458 forward $324 $-1 #
vertex $-1 $327 $526 #
vertex $-1 $457 $527 #
straight-curve $-1 73.56547746208075 0 -11.188252488397758 0 -1 0 I I #
straight-curve $-1 0 34.212313756329962 11.188252488397758 -1 0 0 I I #
coedge $-1 $331 $340 $333 $457 reversed $221 $-1 #
straight-curve $-1 0 -34.212313756329962 11.188252488397758 1 0 0 I I #
edge $-1 $336 -11.188252488397758 $452 11.188252488397758 $333 $528 forward 7 unknown #
edge $-1 $337 -11.188252488397758 $451 11.188252488397758 $334 $529 forward 7 unknown #
point $-1 73.56547746208075 -34.212313756329962 11.188252488397758 #
point $-1 73.56547746208075 34.212313756329962 11.188252488397758 #
straight-curve $-1 -73.56547746208075 0 11.188252488397758 0 -1 0 I I #
point $-1 -73.56547746208075 -34.212313756329962 11.188252488397758 #
point $-1 -73.56547746208075 34.212313756329962 11.188252488397758 #
straight-curve $-1 0 34.212313756329962 -11.188252488397758 1 0 0 I I #
straight-curve $-1 0 -34.212313756329962 -11.188252488397758 -1 0 0 I I #
plane-surface $-1 0 0 11.188252488397758 0 0 1 1 0 0 forward_v I I I I #
coedge $-1 $355 $352 $357 $474 reversed $239 $-1 #
coedge $-1 $352 $355 $480 $530 reversed $239 $-1 #
edge $-1 $482 -11.188252488397758 $476 11.188252488397758 $369 $531 forward 7 unknown #
edge $-1 $471 -5.8185844350096971 $367 5.8185844350096971 $354 $532 forward 7 unknown #
vertex $-1 $530 $533 #
vertex $-1 $474 $534 #
straight-curve $-1 -85.202646332100144 -14.943743952113381 0 0 0 -1 I I #
edge $-1 $472 -1.5539675862894686 $476 1.5539675862894686 $467 $535 forward 7 unknown #
straight-curve $-1 -79.384061897090447 -14.943743952113381 -11.188252488397758 -1 0 0 I I #
vertex $-1 $359 $536 #
straight-curve $-1 -79.384061897090447 -11.835808779534444 -11.188252488397758 1 0 0 I I #
point $-1 -73.56547746208075 -14.943743952113381 -11.188252488397758 #
straight-curve $-1 -73.56547746208075 -14.943743952113381 0 0 0 -1 I I #
coedge $-1 $365 $364 $468 $530 forward $366 $-1 #
point $-1 -73.56547746208075 -14.943743952113381 11.188252488397758 #
vertex $-1 $370 $537 #
straight-curve $-1 -79.384061897090447 -11.835808779534444 11.188252488397758 -1 0 0 I I #
coedge $-1 $384 $383 $376 $485 forward $373 $-1 #
edge $-1 $486 32.506577519000551 $489 36.438429489862578 $484 $538 forward 7 unknown #
vertex $-1 $388 $539 #
straight-curve $-1 7.4812006831380842 -78.803358231306376 11.188252488397758 0 -1 0 I I #
edge $-1 $489 -1.9415005148306292 $385 20.786902910768056 $384 $540 forward 7 unknown #
vertex $-1 $488 $541 #
straight-curve $-1 7.4812006831380842 -34.212313756329948 7.2564005175357522 0 0.54463902268945019 0.83867057594974714 I I #
point $-1 7.4812006831380842 -31.658939313277845 11.188252488397758 #
point $-1 30.209604108736769 -34.212313756329962 7.25640051753573 #
straight-curve $-1 0 -34.212313756329962 11.188252488397758 1 0 0 I I #
vertex $-1 $391 $542 #
point $-1 14.475030233309141 -32.096955958854167 8.6776874802773065 #
vertex $-1 $395 $543 #
point $-1 24.215774558565712 -32.096955958854167 8.6776874802773065 #
edge $-1 $499 70.039125406539853 $502 73.042873805457248 $400 $544 forward 7 unknown #
vertex $-1 $414 $545 #
straight-curve $-1 5.8185844350096971 42.256390413058455 11.188252488397751 0 1 0 I I #
edge $-1 $502 -6.4107647565226458 $411 7.595125399548543 $410 $546 forward 7 unknown #
vertex $-1 $501 $547 #
straight-curve $-1 5.8185844350096971 -15.830290339592068 54.849988395818258 0 -0.7313536940579346 0.68199836817093118 I I #
point $-1 5.8185844350096971 30.991188032143128 11.188252488397758 #
point $-1 -8.1873057210614917 34.212313756329962 8.1845040894803773 #
straight-curve $-1 0 34.212313756329962 11.188252488397758 -1 0 0 I I #
vertex $-1 $417 $548 #
point $-1 -3.1856228193268663 31.7023963763171 8.7219386661404119 #
vertex $-1 $421 $549 #
point $-1 2.8169015332750718 31.7023963763171 8.7219386661404119 #
edge $-1 $514 -40.284211270058172 $435 -26.278321113986983 $434 $550 forward 7 unknown #
coedge $-1 $513 $428 $518 $551 reversed $425 $-1 #
coedge $-1 $428 $512 $430 $516 reversed $425 $-1 #
vertex $-1 $429 $552 #
straight-curve $-1 73.56547746208075 2.0824426322935317 38.146094294286748 0 0.7313536940579346 -0.68199836817093118 I I #
edge $-1 $431 30.991188032143128 $520 34.212313756329962 $513 $553 forward 7 unknown #
point $-1 73.56547746208075 30.991188032143128 11.188252488397758 #
coedge $-1 $434 $433 $512 $551 forward $302 $-1 #
point $-1 59.559587306009561 34.212313756329962 8.1845040894803773 #
vertex $-1 $516 $554 #
straight-curve $-1 0 34.212313756329962 11.188252488397758 -1 0 0 I I #
vertex $-1 $441 $555 #
point $-1 64.561270207744187 31.7023963763171 8.7219386661404119 #
vertex $-1 $445 $556 #
point $-1 70.563794560346125 31.7023963763171 8.7219386661404119 #
point $-1 73.56547746208075 34.212313756329962 -11.188252488397758 #
point $-1 73.56547746208075 -34.212313756329962 -11.188252488397758 #
straight-curve $-1 73.56547746208075 -34.212313756329962 0 0 0 -1 I I #
straight-curve $-1 73.56547746208075 34.212313756329962 0 0 0 -1 I I #
edge $-1 $482 -1.5539675862894686 $471 1.5539675862894686 $468 $557 forward 7 unknown #
straight-curve $-1 -85.202646332100144 -11.835808779534444 0 0 0 -1 I I #
straight-curve $-1 -79.384061897090447 -14.943743952113381 11.188252488397758 1 0 0 I I #
point $-1 -85.202646332100144 -14.943743952113381 11.188252488397758 #
point $-1 -85.202646332100144 -14.943743952113381 -11.188252488397758 #
straight-curve $-1 -85.202646332100144 -13.389776365823913 -11.188252488397758 0 1 0 I I #
point $-1 -85.202646332100144 -11.835808779534444 -11.188252488397758 #
point $-1 -85.202646332100144 -11.835808779534444 11.188252488397758 #
straight-curve $-1 7.4812006831380842 -34.212313756329962 43.694830007398309 0 0 -1 I I #
point $-1 7.4812006831380842 -34.212313756329962 11.188252488397758 #
straight-curve $-1 9.4227011979687134 -34.212313756329962 7.2564005175357256 1 0 0 I I #
point $-1 7.4812006831380842 -34.212313756329962 7.25640051753573 #
point $-1 13.975030233309141 -31.677620670879293 8.4053679689325804 #
point $-1 23.715774558565712 -31.677620670879293 8.4053679689325804 #
straight-curve $-1 5.8185844350096971 34.212313756329962 81.227377894937618 0 0 -1 I I #
point $-1 5.8185844350096971 34.212313756329962 11.188252488397758 #
straight-curve $-1 -0.59218032151294864 34.212313756329962 8.1845040894803809 -1 0 0 I I #
point $-1 5.8185844350096971 34.212313756329962 8.1845040894803773 #
point $-1 -4.1856228193268663 31.02039800814617 7.9905849720824778 #
point $-1 1.8169015332750718 31.02039800814617 7.9905849720824778 #
straight-curve $-1 33.281266192022578 34.212313756329962 8.1845040894803809 -1 0 0 I I #
edge $-1 $520 -11.188252488397758 $514 -8.1845040894803773 $512 $558 forward 7 unknown #
point $-1 73.56547746208075 34.212313756329962 8.1845040894803773 #
straight-curve $-1 73.56547746208075 0 11.188252488397758 0 1 0 I I #
point $-1 73.56547746208075 34.212313756329962 11.188252488397758 #
point $-1 63.561270207744187 31.02039800814617 7.9905849720824778 #
point $-1 69.563794560346125 31.02039800814617 7.9905849720824778 #
straight-curve $-1 -85.202646332100144 -13.389776365823913 11.188252488397758 0 -1 0 I I #
straight-curve $-1 73.56547746208075 34.212313756329962 0 0 0 -1 I I #
End-of-ACIS-data 