500 0 11 0           
7 Unknown 11 ACIS 5.0 NT 24 Fri Mar 26 20:19:56 1999 
-1 9.9999999999999995e-007 1e-010 
body $-1 $11 $-1 $12 #
body $-1 $13 $-1 $14 #
body $-1 $15 $-1 $16 #
body $-1 $17 $-1 $18 #
body $-1 $19 $-1 $20 #
body $-1 $21 $-1 $22 #
body $-1 $23 $-1 $24 #
body $-1 $25 $-1 $26 #
body $-1 $27 $-1 $28 #
body $-1 $29 $-1 $30 #
body $-1 $31 $-1 $32 #
lump $-1 $-1 $33 $0 #
transform $-1 1 0 0 0 1 0 0 0 1 48.186284981841489 27.892369373167746 6.830042547059116 1 rotate no_reflect no_shear #
lump $-1 $-1 $34 $1 #
transform $-1 1 0 0 0 1 0 0 0 1 48.186284981841489 27.892369373167746 6.830042547059116 1 rotate no_reflect no_shear #
lump $-1 $-1 $35 $2 #
transform $-1 1 0 0 0 1 0 0 0 1 48.186284981841489 27.892369373167746 6.830042547059116 1 rotate no_reflect no_shear #
lump $-1 $-1 $36 $3 #
transform $-1 1 0 0 0 1 0 0 0 1 48.186284981841489 27.892369373167746 6.830042547059116 1 rotate no_reflect no_shear #
lump $-1 $-1 $37 $4 #
transform $-1 1 0 0 0 1 0 0 0 1 48.186284981841489 27.892369373167746 6.830042547059116 1 rotate no_reflect no_shear #
lump $-1 $-1 $38 $5 #
transform $-1 1 0 0 0 1 0 0 0 1 48.186284981841489 27.892369373167746 6.830042547059116 1 rotate no_reflect no_shear #
lump $-1 $-1 $39 $6 #
transform $-1 1 0 0 0 1 0 0 0 1 48.186284981841489 27.892369373167746 6.830042547059116 1 rotate no_reflect no_shear #
lump $-1 $-1 $40 $7 #
transform $-1 1 0 0 0 1 0 0 0 1 48.186284981841489 27.892369373167746 6.830042547059116 1 rotate no_reflect no_shear #
lump $-1 $-1 $41 $8 #
transform $-1 1 0 0 0 1 0 0 0 1 48.186284981841489 27.892369373167746 6.830042547059116 1 rotate no_reflect no_shear #
lump $-1 $-1 $42 $9 #
transform $-1 1 0 0 0 1 0 0 0 1 48.186284981841489 27.892369373167746 6.830042547059116 1 rotate no_reflect no_shear #
lump $-1 $-1 $43 $10 #
transform $-1 1 0 0 0 1 0 0 0 1 48.186284981841489 27.892369373167746 6.830042547059116 1 rotate no_reflect no_shear #
shell $-1 $-1 $-1 $44 $-1 $11 #
shell $-1 $-1 $-1 $45 $-1 $13 #
shell $-1 $-1 $-1 $46 $-1 $15 #
shell $-1 $-1 $-1 $47 $-1 $17 #
shell $-1 $-1 $-1 $48 $-1 $19 #
shell $-1 $-1 $-1 $49 $-1 $21 #
shell $-1 $-1 $-1 $50 $-1 $23 #
shell $-1 $-1 $-1 $51 $-1 $25 #
shell $-1 $-1 $-1 $52 $-1 $27 #
shell $-1 $-1 $-1 $53 $-1 $29 #
shell $-1 $-1 $-1 $54 $-1 $31 #
face $-1 $55 $56 $33 $-1 $57 forward single #
face $-1 $58 $59 $34 $-1 $60 forward single #
face $-1 $61 $62 $35 $-1 $63 forward single #
face $-1 $64 $65 $36 $-1 $66 reversed single #
face $-1 $67 $68 $37 $-1 $69 forward single #
face $-1 $70 $71 $38 $-1 $72 reversed single #
face $-1 $73 $74 $39 $-1 $75 forward single #
face $-1 $76 $77 $40 $-1 $78 reversed single #
face $-1 $79 $80 $41 $-1 $81 forward single #
face $-1 $82 $83 $42 $-1 $84 reversed single #
face $-1 $85 $86 $43 $-1 $87 forward single #
face $-1 $88 $89 $33 $-1 $90 reversed single #
loop $-1 $-1 $91 $44 #
plane-surface $-1 0 0 6.830042547059116 0 0 1 1 0 0 forward_v I I I I #
face $-1 $92 $93 $34 $-1 $94 reversed single #
loop $-1 $-1 $95 $45 #
plane-surface $-1 -48.186284981841489 0 0 1 0 0 0 0 -1 forward_v I I I I #
face $-1 $96 $97 $35 $-1 $98 reversed single #
loop $-1 $-1 $99 $46 #
plane-surface $-1 48.186284981841489 0 0 -1 0 0 0 0 1 forward_v I I I I #
face $-1 $100 $101 $36 $-1 $102 reversed single #
loop $-1 $-1 $103 $47 #
plane-surface $-1 0 -98.374805947141141 67.785252325414021 -1 0 0 0 -0.73135370988377701 0.68199835119979291 forward_v I I I I #
face $-1 $104 $105 $37 $-1 $106 forward single #
loop $-1 $107 $108 $48 #
cone-surface $-1 -8.5743795747292708 -24.291547643001916 3.1611334893714576 0 0.73135370988377701 -0.68199835119979291 1.5 0 0 1 I I 0 1 1.5 forward I I I I #
face $-1 $109 $110 $38 $-1 $111 reversed single #
loop $-1 $-1 $112 $49 #
plane-surface $-1 17.148759149458542 -98.374805947141141 67.785252325414021 -1 0 0 0 -0.73135370988377701 0.68199835119979291 forward_v I I I I #
face $-1 $113 $114 $39 $-1 $115 forward single #
loop $-1 $116 $117 $50 #
cone-surface $-1 8.5743795747292708 -24.291547643001916 3.1611334893714576 0 0.73135370988377701 -0.68199835119979291 1.5 0 0 1 I I 0 1 1.5 forward I I I I #
face $-1 $118 $119 $40 $-1 $120 reversed single #
loop $-1 $-1 $121 $51 #
plane-surface $-1 -17.148759149458542 60.329706100029149 108.58362796244377 1 0 0 0 -0.73135370988377701 -0.68199835119979291 forward_v I I I I #
face $-1 $122 $123 $41 $-1 $124 forward single #
loop $-1 $125 $126 $52 #
cone-surface $-1 -8.5743795747292708 24.291547643001923 3.1611334893714611 0 -0.73135370988377701 -0.68199835119979291 1.5 0 0 1 I I 0 1 1.5 forward I I I I #
face $-1 $127 $128 $42 $-1 $129 reversed single #
loop $-1 $-1 $130 $53 #
plane-surface $-1 -8.5743795747292708 -10.152730473944239 42.857694146325301 0 0.73135370988377701 0.68199835119979291 1 0 0 forward_v I I I I #
face $-1 $131 $132 $43 $-1 $133 forward single #
loop $-1 $134 $135 $54 #
cone-surface $-1 8.5743795747292708 24.291547643001923 3.1611334893714611 0 -0.73135370988377701 -0.68199835119979291 1.5 0 0 1 I I 0 1 1.5 forward I I I I #
face $-1 $136 $137 $33 $-1 $138 reversed single #
loop $-1 $-1 $139 $55 #
plane-surface $-1 0 0 -6.830042547059116 0 0 1 1 0 0 forward_v I I I I #
coedge $-1 $140 $141 $142 $143 forward $56 $-1 #
face $-1 $144 $145 $34 $-1 $146 forward single #
loop $-1 $-1 $147 $58 #
plane-surface $-1 0 27.892369373167746 0 0 -1 0 0 0 -1 forward_v I I I I #
coedge $-1 $148 $149 $150 $151 forward $59 $-1 #
face $-1 $152 $153 $35 $-1 $154 forward single #
loop $-1 $-1 $155 $61 #
plane-surface $-1 0 27.892369373167746 0 0 -1 0 0 0 -1 forward_v I I I I #
coedge $-1 $156 $157 $158 $159 forward $62 $-1 #
face $-1 $160 $161 $36 $-1 $162 reversed single #
loop $-1 $-1 $163 $64 #
plane-surface $-1 -8.5743795747292708 -27.892369373167753 2.0593185092955508 0 -0.73135370988377701 0.68199835119979291 1 0 0 forward_v I I I I #
coedge $-1 $164 $165 $166 $167 reversed $65 $-1 #
face $-1 $-1 $168 $37 $-1 $169 forward single #
loop $-1 $170 $171 $67 #
cone-surface $-1 -8.5743795747292708 -22.366596644887458 1.3660876871657335 0 0.73135370988377701 -0.68199835119979291 0.75 0 0 1 I I -0.70710678118654757 0.70710678118654757 0.75 forward I I I I #
loop $-1 $-1 $172 $48 #
coedge $-1 $108 $108 $173 $174 reversed $68 $-1 #
face $-1 $175 $176 $38 $-1 $177 forward single #
loop $-1 $-1 $178 $70 #
plane-surface $-1 -8.5743795747292708 -27.892369373167753 2.0593185092955508 0 -0.73135370988377701 0.68199835119979291 1 0 0 forward_v I I I I #
coedge $-1 $179 $180 $181 $182 reversed $71 $-1 #
face $-1 $-1 $183 $39 $-1 $184 forward single #
loop $-1 $185 $186 $73 #
cone-surface $-1 8.5743795747292708 -22.366596644887458 1.3660876871657335 0 0.73135370988377701 -0.68199835119979291 0.75 0 0 1 I I -0.70710678118654757 0.70710678118654757 0.75 forward I I I I #
loop $-1 $-1 $187 $50 #
coedge $-1 $117 $117 $188 $189 reversed $74 $-1 #
face $-1 $190 $191 $40 $-1 $192 reversed single #
loop $-1 $-1 $193 $76 #
plane-surface $-1 -8.5743795747292708 -10.152730473944239 42.857694146325301 0 0.73135370988377701 0.68199835119979291 1 0 0 forward_v I I I I #
coedge $-1 $194 $195 $196 $197 reversed $77 $-1 #
face $-1 $-1 $198 $41 $-1 $199 forward single #
loop $-1 $200 $201 $79 #
cone-surface $-1 -8.5743795747292708 22.366596644887466 1.366087687165737 0 -0.73135370988377701 -0.68199835119979291 0.75 0 0 1 I I -0.70710678118654757 0.70710678118654757 0.75 forward I I I I #
loop $-1 $-1 $202 $52 #
coedge $-1 $126 $126 $203 $204 reversed $80 $-1 #
face $-1 $205 $206 $42 $-1 $207 reversed single #
loop $-1 $-1 $208 $82 #
plane-surface $-1 17.148759149458542 60.329706100029149 108.58362796244377 -1 0 0 0 0.73135370988377701 0.68199835119979291 forward_v I I I I #
coedge $-1 $209 $210 $211 $212 reversed $83 $-1 #
face $-1 $-1 $213 $43 $-1 $214 forward single #
loop $-1 $215 $216 $85 #
cone-surface $-1 8.5743795747292708 22.366596644887466 1.366087687165737 0 -0.73135370988377701 -0.68199835119979291 0.75 0 0 1 I I -0.70710678118654757 0.70710678118654757 0.75 forward I I I I #
loop $-1 $-1 $217 $54 #
coedge $-1 $135 $135 $218 $219 reversed $86 $-1 #
face $-1 $220 $221 $33 $-1 $222 reversed single #
loop $-1 $-1 $223 $88 #
plane-surface $-1 0 -27.892369373167746 0 0 1 0 0 0 1 forward_v I I I I #
coedge $-1 $224 $225 $226 $227 forward $89 $-1 #
coedge $-1 $228 $91 $229 $230 forward $56 $-1 #
coedge $-1 $91 $228 $231 $232 forward $56 $-1 #
coedge $-1 $233 $234 $91 $143 reversed $235 $-1 #
edge $-1 $236 -27.892369373167746 $237 27.892369373167746 $142 $238 forward 7 unknown #
face $-1 $239 $240 $34 $-1 $241 reversed single #
loop $-1 $-1 $150 $92 #
plane-surface $-1 -51.418062177379618 0 -2.8607512415801915 0 0 1 1 0 0 forward_v I I I I #
coedge $-1 $242 $243 $149 $244 forward $93 $-1 #
coedge $-1 $245 $95 $246 $247 reversed $59 $-1 #
coedge $-1 $95 $245 $147 $244 reversed $59 $-1 #
coedge $-1 $248 $249 $95 $151 reversed $145 $-1 #
edge $-1 $250 -27.892369373167746 $251 27.892369373167746 $150 $252 forward 7 unknown #
face $-1 $253 $254 $35 $-1 $255 reversed single #
loop $-1 $-1 $256 $96 #
plane-surface $-1 51.418062177379618 0 -2.8607512415801915 0 0 1 1 0 0 forward_v I I I I #
coedge $-1 $257 $258 $156 $259 forward $97 $-1 #
coedge $-1 $260 $99 $155 $259 reversed $62 $-1 #
coedge $-1 $99 $260 $261 $262 reversed $62 $-1 #
coedge $-1 $263 $264 $99 $159 reversed $153 $-1 #
edge $-1 $265 -27.892369373167746 $266 27.892369373167746 $158 $267 forward 7 unknown #
face $-1 $268 $269 $36 $-1 $270 forward single #
loop $-1 $-1 $271 $100 #
plane-surface $-1 -17.148759149458542 -98.374805947141141 67.785252325414021 1 0 0 0 0.73135370988377701 -0.68199835119979291 forward_v I I I I #
coedge $-1 $272 $273 $274 $275 reversed $101 $-1 #
coedge $-1 $165 $103 $276 $277 reversed $65 $-1 #
coedge $-1 $103 $164 $272 $278 reversed $65 $-1 #
coedge $-1 $274 $279 $103 $167 forward $269 $-1 #
edge $-1 $280 21.295033600402824 $281 25.743805629331227 $166 $282 forward 7 unknown #
loop $-1 $-1 $173 $104 #
plane-surface $-1 -8.5743795747292708 -27.892369373167753 2.0593185092955508 0 -0.73135370988377701 0.68199835119979291 1 0 0 forward_v I I I I #
loop $-1 $-1 $283 $67 #
coedge $-1 $171 $171 $172 $284 reversed $105 $-1 #
coedge $-1 $172 $172 $171 $284 forward $107 $-1 #
coedge $-1 $173 $173 $108 $174 forward $168 $-1 #
edge $-1 $285 -8.6609677638186254e-016 $285 6.2831853071795996 $173 $286 forward 7 unknown #
face $-1 $287 $288 $38 $-1 $289 forward single #
loop $-1 $-1 $290 $109 #
plane-surface $-1 0 0 6.830042547059116 0 0 1 1 0 0 forward_v I I I I #
coedge $-1 $291 $292 $293 $294 reversed $110 $-1 #
coedge $-1 $180 $112 $295 $296 reversed $71 $-1 #
coedge $-1 $112 $179 $290 $297 reversed $71 $-1 #
coedge $-1 $298 $299 $112 $182 forward $300 $-1 #
edge $-1 $301 -31.833307653411453 $302 -27.062583615647895 $181 $303 forward 7 unknown #
loop $-1 $-1 $188 $113 #
plane-surface $-1 -8.5743795747292708 -27.892369373167753 2.0593185092955508 0 -0.73135370988377701 0.68199835119979291 1 0 0 forward_v I I I I #
loop $-1 $-1 $304 $73 #
coedge $-1 $186 $186 $187 $305 reversed $114 $-1 #
coedge $-1 $187 $187 $186 $305 forward $116 $-1 #
coedge $-1 $188 $188 $117 $189 forward $183 $-1 #
edge $-1 $306 -8.6609677638186254e-016 $306 6.2831853071795996 $188 $307 forward 7 unknown #
face $-1 $308 $309 $40 $-1 $310 reversed single #
loop $-1 $-1 $311 $118 #
plane-surface $-1 0 60.329706100029149 108.58362796244377 -1 0 0 0 0.73135370988377701 0.68199835119979291 forward_v I I I I #
coedge $-1 $312 $313 $314 $315 reversed $119 $-1 #
coedge $-1 $195 $121 $316 $317 reversed $77 $-1 #
coedge $-1 $121 $194 $312 $318 reversed $77 $-1 #
coedge $-1 $314 $319 $121 $197 forward $320 $-1 #
edge $-1 $321 2.2724836768468286 $322 6.7212557057752029 $196 $323 forward 7 unknown #
loop $-1 $-1 $203 $122 #
plane-surface $-1 -8.5743795747292708 -10.152730473944239 42.857694146325301 0 0.73135370988377701 0.68199835119979291 1 0 0 forward_v I I I I #
loop $-1 $-1 $324 $79 #
coedge $-1 $201 $201 $202 $325 reversed $123 $-1 #
coedge $-1 $202 $202 $201 $325 forward $125 $-1 #
coedge $-1 $203 $203 $126 $204 forward $198 $-1 #
edge $-1 $326 1.0998907202734565e-015 $326 6.2831853071796013 $203 $327 forward 7 unknown #
face $-1 $328 $329 $42 $-1 $330 forward single #
loop $-1 $-1 $331 $127 #
plane-surface $-1 0 27.892369373167746 0 0 -1 0 0 0 -1 forward_v I I I I #
coedge $-1 $332 $333 $334 $335 reversed $128 $-1 #
coedge $-1 $336 $130 $337 $338 reversed $83 $-1 #
coedge $-1 $130 $336 $339 $340 reversed $83 $-1 #
coedge $-1 $341 $342 $130 $212 forward $329 $-1 #
edge $-1 $343 -55.784738746335449 $344 -49.261596833892469 $211 $345 forward 7 unknown #
loop $-1 $-1 $218 $131 #
plane-surface $-1 -8.5743795747292708 -10.152730473944239 42.857694146325301 0 0.73135370988377701 0.68199835119979291 1 0 0 forward_v I I I I #
loop $-1 $-1 $346 $85 #
coedge $-1 $216 $216 $217 $347 reversed $132 $-1 #
coedge $-1 $217 $217 $216 $347 forward $134 $-1 #
coedge $-1 $218 $218 $135 $219 forward $213 $-1 #
edge $-1 $348 1.0998907202734565e-015 $348 6.2831853071796013 $218 $349 forward 7 unknown #
face $-1 $350 $351 $33 $-1 $352 reversed single #
loop $-1 $-1 $353 $136 #
plane-surface $-1 -48.186284981841489 0 0 1 0 0 0 0 -1 forward_v I I I I #
coedge $-1 $354 $231 $353 $355 forward $137 $-1 #
coedge $-1 $356 $139 $354 $357 forward $89 $-1 #
coedge $-1 $139 $356 $358 $359 forward $89 $-1 #
coedge $-1 $234 $233 $139 $227 reversed $235 $-1 #
edge $-1 $360 -27.892369373167746 $361 27.892369373167746 $226 $362 forward 7 unknown #
coedge $-1 $141 $140 $363 $364 forward $56 $-1 #
coedge $-1 $365 $366 $140 $230 reversed $351 $-1 #
edge $-1 $237 -48.186284981841489 $367 48.186284981841489 $229 $368 forward 7 unknown #
coedge $-1 $223 $369 $141 $232 reversed $137 $-1 #
edge $-1 $370 -48.186284981841489 $236 48.186284981841489 $231 $371 forward 7 unknown #
coedge $-1 $226 $142 $369 $372 forward $235 $-1 #
coedge $-1 $142 $226 $365 $373 reversed $235 $-1 #
loop $-1 $-1 $234 $350 #
vertex $-1 $143 $374 #
vertex $-1 $143 $375 #
straight-curve $-1 48.186284981841489 0 6.830042547059116 0 1 0 I I #
face $-1 $376 $377 $34 $-1 $378 reversed single #
loop $-1 $-1 $379 $144 #
plane-surface $-1 -54.649839372917747 0 -4.8453968943196539 1 0 0 0 0 -1 forward_v I I I I #
coedge $-1 $380 $147 $381 $382 reversed $93 $-1 #
coedge $-1 $147 $380 $248 $383 reversed $93 $-1 #
edge $-1 $250 2.8607512415801915 $384 6.830042547059116 $147 $385 forward 7 unknown #
coedge $-1 $149 $148 $386 $387 reversed $59 $-1 #
coedge $-1 $388 $389 $148 $247 forward $390 $-1 #
edge $-1 $391 -6.830042547059116 $251 -2.8607512415801915 $246 $392 forward 7 unknown #
coedge $-1 $393 $150 $243 $383 forward $145 $-1 #
coedge $-1 $150 $393 $388 $394 forward $145 $-1 #
vertex $-1 $244 $395 #
vertex $-1 $394 $396 #
straight-curve $-1 -48.186284981841489 0 -2.8607512415801915 0 -1 0 I I #
face $-1 $397 $398 $35 $-1 $399 reversed single #
loop $-1 $-1 $400 $152 #
plane-surface $-1 54.649839372917747 0 -4.8453968943196539 -1 0 0 0 0 1 forward_v I I I I #
coedge $-1 $264 $263 $401 $402 forward $153 $-1 #
coedge $-1 $403 $155 $264 $404 reversed $97 $-1 #
coedge $-1 $155 $403 $405 $406 reversed $97 $-1 #
edge $-1 $407 -6.830042547059116 $266 -2.8607512415801915 $155 $408 forward 7 unknown #
coedge $-1 $157 $156 $409 $410 reversed $62 $-1 #
coedge $-1 $411 $412 $157 $262 forward $413 $-1 #
edge $-1 $265 2.8607512415801915 $414 6.830042547059116 $261 $415 forward 7 unknown #
coedge $-1 $256 $158 $412 $416 forward $153 $-1 #
coedge $-1 $158 $256 $257 $404 forward $153 $-1 #
vertex $-1 $262 $417 #
vertex $-1 $404 $418 #
straight-curve $-1 48.186284981841489 0 -2.8607512415801915 0 1 0 I I #
face $-1 $-1 $419 $36 $-1 $420 reversed single #
loop $-1 $-1 $166 $160 #
plane-surface $-1 0 0 6.830042547059116 0 0 1 1 0 0 forward_v I I I I #
coedge $-1 $421 $422 $423 $424 reversed $161 $-1 #
coedge $-1 $425 $163 $165 $278 forward $101 $-1 #
coedge $-1 $163 $425 $421 $426 forward $101 $-1 #
coedge $-1 $423 $166 $163 $275 forward $269 $-1 #
edge $-1 $281 -4.2871897873646354 $427 12.861569362093906 $274 $428 forward 7 unknown #
coedge $-1 $429 $430 $164 $277 forward $419 $-1 #
edge $-1 $431 -31.833307653411453 $280 -27.062583615647895 $276 $432 forward 7 unknown #
edge $-1 $281 -6.5231419124430285 $431 -1.0367256691888158e-014 $165 $433 forward 7 unknown #
coedge $-1 $166 $423 $429 $434 forward $269 $-1 #
vertex $-1 $277 $435 #
vertex $-1 $167 $436 #
straight-curve $-1 0 -49.18740297357057 6.8300425470591151 0 1 0 I I #
coedge $-1 $283 $283 $-1 $437 reversed $170 $-1 #
edge $-1 $438 0 $438 6.2831853071796004 $171 $439 forward 7 unknown #
vertex $-1 $174 $440 #
ellipse-curve $-1 -8.5743795747292708 -25.667983358703545 4.4446805281773383 0 -0.73135370988377701 0.68199835119979291 1.5 0 0 1 I I #
face $-1 $-1 $300 $38 $-1 $441 reversed single #
loop $-1 $-1 $442 $175 #
plane-surface $-1 0 -98.374805947141141 67.785252325414021 -1 0 0 0 -0.73135370988377701 0.68199835119979291 forward_v I I I I #
coedge $-1 $443 $444 $180 $297 forward $176 $-1 #
coedge $-1 $295 $178 $443 $445 reversed $110 $-1 #
coedge $-1 $178 $295 $299 $446 reversed $110 $-1 #
coedge $-1 $447 $442 $178 $294 forward $288 $-1 #
edge $-1 $448 -6.5231419124430285 $449 -1.0367256691888158e-014 $293 $450 forward 7 unknown #
coedge $-1 $292 $291 $179 $296 forward $110 $-1 #
edge $-1 $451 -6.5231419124430285 $301 -1.0367256691888158e-014 $179 $452 forward 7 unknown #
edge $-1 $302 21.295033600402824 $451 25.743805629331227 $290 $453 forward 7 unknown #
coedge $-1 $454 $181 $444 $455 reversed $300 $-1 #
coedge $-1 $181 $454 $292 $446 forward $300 $-1 #
loop $-1 $-1 $181 $287 #
vertex $-1 $182 $456 #
vertex $-1 $297 $457 #
straight-curve $-1 17.148759149458542 -27.892369373167746 33.89262616270701 0 0 1 I I #
coedge $-1 $304 $304 $-1 $458 reversed $185 $-1 #
edge $-1 $459 0 $459 6.2831853071796004 $186 $460 forward 7 unknown #
vertex $-1 $189 $461 #
ellipse-curve $-1 8.5743795747292708 -25.667983358703545 4.4446805281773383 0 -0.73135370988377701 0.68199835119979291 1.5 0 0 1 I I #
face $-1 $-1 $320 $40 $-1 $462 forward single #
loop $-1 $-1 $463 $190 #
plane-surface $-1 0 27.892369373167746 0 0 -1 0 0 0 -1 forward_v I I I I #
coedge $-1 $464 $465 $466 $467 reversed $191 $-1 #
coedge $-1 $468 $193 $195 $318 forward $119 $-1 #
coedge $-1 $193 $468 $464 $469 forward $119 $-1 #
coedge $-1 $466 $196 $193 $315 forward $320 $-1 #
edge $-1 $322 -12.861569362093906 $470 4.2871897873646354 $314 $471 forward 7 unknown #
coedge $-1 $472 $473 $194 $317 forward $309 $-1 #
edge $-1 $474 -52.232495471926299 $321 -47.46177143416277 $316 $475 forward 7 unknown #
edge $-1 $322 49.261596833892469 $474 55.784738746335449 $195 $476 forward 7 unknown #
coedge $-1 $196 $466 $472 $477 forward $320 $-1 #
loop $-1 $-1 $466 $308 #
vertex $-1 $317 $478 #
vertex $-1 $197 $479 #
straight-curve $-1 -17.148759149458542 30.164853050014575 6.8300425470591151 0 -1 0 I I #
coedge $-1 $324 $324 $-1 $480 reversed $200 $-1 #
edge $-1 $481 0 $481 6.2831853071796004 $201 $482 forward 7 unknown #
vertex $-1 $204 $483 #
ellipse-curve $-1 -8.5743795747292708 25.667983358703559 4.4446805281773489 0 0.73135370988377701 0.68199835119979291 1.5 0 0 1 I I #
face $-1 $-1 $484 $42 $-1 $485 forward single #
loop $-1 $-1 $341 $205 #
plane-surface $-1 0 60.329706100029149 108.58362796244377 -1 0 0 0 0.73135370988377701 0.68199835119979291 forward_v I I I I #
coedge $-1 $337 $486 $333 $487 forward $206 $-1 #
coedge $-1 $333 $208 $336 $488 reversed $128 $-1 #
coedge $-1 $208 $332 $331 $487 reversed $128 $-1 #
coedge $-1 $489 $339 $208 $335 forward $484 $-1 #
edge $-1 $490 -6.7212557057752029 $491 -2.2724836768468286 $334 $492 forward 7 unknown #
coedge $-1 $210 $209 $332 $488 forward $83 $-1 #
coedge $-1 $493 $331 $209 $338 forward $206 $-1 #
edge $-1 $494 -21.435948936823177 $343 -4.2871897873646354 $337 $495 forward 7 unknown #
coedge $-1 $334 $496 $210 $340 forward $484 $-1 #
edge $-1 $344 4.2871897873646354 $490 21.435948936823177 $339 $497 forward 7 unknown #
coedge $-1 $342 $211 $496 $498 reversed $329 $-1 #
coedge $-1 $211 $341 $493 $499 reversed $329 $-1 #
vertex $-1 $338 $500 #
vertex $-1 $340 $501 #
straight-curve $-1 0 -10.152730473944239 42.857694146325301 0 -0.68199835119979291 0.73135370988377701 I I #
coedge $-1 $346 $346 $-1 $502 reversed $215 $-1 #
edge $-1 $503 0 $503 6.2831853071796004 $216 $504 forward 7 unknown #
vertex $-1 $219 $505 #
ellipse-curve $-1 8.5743795747292708 25.667983358703559 4.4446805281773489 0 0.73135370988377701 0.68199835119979291 1.5 0 0 1 I I #
face $-1 $-1 $235 $33 $-1 $506 reversed single #
loop $-1 $-1 $365 $220 #
plane-surface $-1 0 27.892369373167746 0 0 -1 0 0 0 -1 forward_v I I I I #
coedge $-1 $363 $507 $223 $355 reversed $221 $-1 #
coedge $-1 $369 $223 $224 $357 reversed $137 $-1 #
edge $-1 $370 -6.830042547059116 $508 6.830042547059116 $353 $509 forward 7 unknown #
coedge $-1 $225 $224 $507 $510 forward $89 $-1 #
edge $-1 $361 -48.186284981841489 $508 48.186284981841489 $354 $511 forward 7 unknown #
coedge $-1 $366 $365 $225 $359 reversed $351 $-1 #
edge $-1 $512 -48.186284981841489 $360 48.186284981841489 $358 $513 forward 7 unknown #
vertex $-1 $227 $514 #
vertex $-1 $372 $515 #
straight-curve $-1 48.186284981841489 0 -6.830042547059116 0 -1 0 I I #
coedge $-1 $516 $353 $228 $364 reversed $221 $-1 #
edge $-1 $367 -27.892369373167746 $370 27.892369373167746 $363 $517 forward 7 unknown #
coedge $-1 $358 $229 $234 $373 forward $351 $-1 #
coedge $-1 $229 $358 $516 $518 reversed $351 $-1 #
vertex $-1 $230 $519 #
straight-curve $-1 0 27.892369373167746 6.830042547059116 -1 0 0 I I #
coedge $-1 $231 $354 $233 $372 reversed $137 $-1 #
vertex $-1 $364 $520 #
straight-curve $-1 0 -27.892369373167746 6.830042547059116 1 0 0 I I #
edge $-1 $236 -6.830042547059116 $361 6.830042547059116 $233 $521 forward 7 unknown #
edge $-1 $237 -6.830042547059116 $360 6.830042547059116 $234 $522 forward 7 unknown #
point $-1 48.186284981841489 -27.892369373167746 6.830042547059116 #
point $-1 48.186284981841489 27.892369373167746 6.830042547059116 #
face $-1 $-1 $390 $34 $-1 $523 reversed single #
loop $-1 $-1 $386 $239 #
plane-surface $-1 0 0 -6.830042547059116 0 0 1 1 0 0 forward_v I I I I #
coedge $-1 $524 $525 $380 $526 forward $240 $-1 #
coedge $-1 $243 $242 $379 $526 reversed $93 $-1 #
coedge $-1 $386 $527 $242 $382 forward $377 $-1 #
edge $-1 $528 -54.649839372917747 $384 -48.186284981841489 $242 $529 forward 7 unknown #
edge $-1 $250 -3.2317771955381289 $530 3.2317771955381289 $243 $531 forward 7 unknown #
vertex $-1 $244 $532 #
straight-curve $-1 -48.186284981841489 27.892369373167746 0 0 0 -1 I I #
coedge $-1 $533 $381 $245 $387 forward $377 $-1 #
edge $-1 $384 -27.892369373167746 $391 27.892369373167746 $386 $534 forward 7 unknown #
coedge $-1 $535 $246 $249 $394 reversed $390 $-1 #
coedge $-1 $246 $535 $533 $536 reversed $390 $-1 #
loop $-1 $-1 $246 $376 #
vertex $-1 $536 $537 #
straight-curve $-1 -48.186284981841489 -27.892369373167746 0 0 0 1 I I #
coedge $-1 $249 $248 $525 $538 forward $145 $-1 #
edge $-1 $539 -3.2317771955381289 $251 3.2317771955381289 $388 $540 forward 7 unknown #
point $-1 -48.186284981841489 27.892369373167746 -2.8607512415801915 #
point $-1 -48.186284981841489 -27.892369373167746 -2.8607512415801915 #
face $-1 $-1 $413 $35 $-1 $541 reversed single #
loop $-1 $-1 $409 $253 #
plane-surface $-1 0 0 -6.830042547059116 0 0 1 1 0 0 forward_v I I I I #
coedge $-1 $542 $401 $543 $544 forward $254 $-1 #
coedge $-1 $400 $545 $256 $402 reversed $254 $-1 #
edge $-1 $546 -27.892369373167746 $547 27.892369373167746 $401 $548 forward 7 unknown #
coedge $-1 $258 $257 $545 $549 forward $97 $-1 #
edge $-1 $547 -3.2317771955381289 $266 3.2317771955381289 $257 $550 forward 7 unknown #
coedge $-1 $551 $409 $258 $406 forward $398 $-1 #
edge $-1 $407 -3.2317771955381289 $552 3.2317771955381289 $258 $553 forward 7 unknown #
vertex $-1 $406 $554 #
straight-curve $-1 48.186284981841489 27.892369373167746 0 0 0 1 I I #
coedge $-1 $405 $555 $260 $410 forward $398 $-1 #
edge $-1 $414 -27.892369373167746 $407 27.892369373167746 $409 $556 forward 7 unknown #
coedge $-1 $543 $261 $555 $557 reversed $413 $-1 #
coedge $-1 $261 $543 $263 $416 reversed $413 $-1 #
loop $-1 $-1 $261 $397 #
vertex $-1 $262 $558 #
straight-curve $-1 48.186284981841489 -27.892369373167746 0 0 0 -1 I I #
edge $-1 $265 -3.2317771955381289 $546 3.2317771955381289 $412 $559 forward 7 unknown #
point $-1 48.186284981841489 -27.892369373167746 -2.8607512415801915 #
point $-1 48.186284981841489 27.892369373167746 -2.8607512415801915 #
loop $-1 $-1 $276 $268 #
plane-surface $-1 0 -27.892369373167746 0 0 1 0 0 0 1 forward_v I I I I #
coedge $-1 $422 $271 $273 $426 reversed $161 $-1 #
coedge $-1 $271 $421 $560 $561 reversed $161 $-1 #
coedge $-1 $279 $274 $271 $424 forward $269 $-1 #
edge $-1 $427 -25.743805629331227 $562 -21.295033600402824 $423 $563 forward 7 unknown #
coedge $-1 $273 $272 $430 $564 reversed $101 $-1 #
edge $-1 $565 1.0367256691888158e-014 $427 6.5231419124430285 $421 $566 forward 7 unknown #
vertex $-1 $275 $567 #
straight-curve $-1 -4.2871897873646354 -23.44359734423934 6.8300425470591151 -1 0 0 I I #
coedge $-1 $560 $276 $279 $434 reversed $419 $-1 #
coedge $-1 $276 $560 $425 $564 forward $419 $-1 #
vertex $-1 $277 $568 #
straight-curve $-1 0 -27.892369373167746 33.89262616270701 0 0 1 I I #
straight-curve $-1 0 -27.892369373167753 2.0593185092955508 0 -0.68199835119979291 -0.73135370988377701 I I #
edge $-1 $562 -17.148759149458542 $280 0 $429 $569 forward 7 unknown #
point $-1 0 -27.892369373167746 6.830042547059116 #
point $-1 0 -23.443597344239343 6.830042547059116 #
edge $-1 $570 1 $570 0 $283 $-1 forward 7 unknown #
vertex $-1 $284 $571 #
ellipse-curve $-1 -8.5743795747292708 -22.915111927300291 1.8775864505655782 0 -0.73135370988377701 0.68199835119979291 1.5 0 0 1 I I #
point $-1 -7.0743795747292708 -25.667983358703545 4.4446805281773365 #
plane-surface $-1 0 -27.892369373167746 0 0 1 0 0 0 1 forward_v I I I I #
coedge $-1 $293 $447 $572 $573 reversed $288 $-1 #
coedge $-1 $572 $290 $291 $445 forward $176 $-1 #
coedge $-1 $290 $572 $298 $455 forward $176 $-1 #
edge $-1 $451 -21.435948936823177 $448 -4.2871897873646354 $443 $574 forward 7 unknown #
edge $-1 $449 4.2871897873646354 $301 21.435948936823177 $299 $575 forward 7 unknown #
coedge $-1 $442 $293 $454 $576 reversed $288 $-1 #
vertex $-1 $445 $577 #
vertex $-1 $446 $578 #
straight-curve $-1 0 -27.892369373167753 2.0593185092955508 0 -0.68199835119979291 -0.73135370988377701 I I #
vertex $-1 $297 $579 #
straight-curve $-1 17.148759149458542 -27.892369373167753 2.0593185092955508 0 -0.68199835119979291 -0.73135370988377701 I I #
straight-curve $-1 17.148759149458542 -49.18740297357057 6.8300425470591151 0 1 0 I I #
coedge $-1 $299 $298 $447 $576 forward $300 $-1 #
edge $-1 $580 0 $302 17.148759149458542 $298 $581 forward 7 unknown #
point $-1 17.148759149458542 -27.892369373167746 2.0593185092955584 #
point $-1 17.148759149458542 -27.892369373167746 6.830042547059116 #
edge $-1 $582 1 $582 0 $304 $-1 forward 7 unknown #
vertex $-1 $305 $583 #
ellipse-curve $-1 8.5743795747292708 -22.915111927300291 1.8775864505655782 0 -0.73135370988377701 0.68199835119979291 1.5 0 0 1 I I #
point $-1 10.074379574729271 -25.667983358703545 4.4446805281773365 #
plane-surface $-1 0 0 6.830042547059116 0 0 1 1 0 0 forward_v I I I I #
coedge $-1 $473 $472 $465 $584 forward $309 $-1 #
coedge $-1 $465 $311 $313 $469 reversed $191 $-1 #
coedge $-1 $311 $464 $463 $584 reversed $191 $-1 #
coedge $-1 $319 $314 $311 $467 forward $320 $-1 #
edge $-1 $470 -6.7212557057752029 $585 -2.2724836768468286 $466 $586 forward 7 unknown #
coedge $-1 $313 $312 $473 $587 reversed $119 $-1 #
edge $-1 $588 -55.784738746335449 $470 -49.261596833892469 $464 $589 forward 7 unknown #
vertex $-1 $315 $590 #
straight-curve $-1 -4.2871897873646354 23.443597344239365 6.8300425470591115 1 0 0 I I #
coedge $-1 $463 $316 $319 $477 reversed $309 $-1 #
coedge $-1 $316 $463 $468 $587 forward $309 $-1 #
vertex $-1 $317 $591 #
straight-curve $-1 -17.148759149458542 27.892369373167746 54.291813981221885 0 0 1 I I #
straight-curve $-1 -17.148759149458542 -10.152730473944239 42.857694146325301 0 0.68199835119979291 -0.73135370988377701 I I #
edge $-1 $585 0 $321 17.148759149458542 $472 $592 forward 7 unknown #
point $-1 -17.148759149458542 27.892369373167746 6.830042547059116 #
point $-1 -17.148759149458542 23.443597344239372 6.8300425470591151 #
edge $-1 $593 1 $593 0 $324 $-1 forward 7 unknown #
vertex $-1 $325 $594 #
ellipse-curve $-1 -8.5743795747292708 22.915111927300298 1.8775864505655817 0 0.73135370988377701 0.68199835119979291 1.5 0 0 1 I I #
point $-1 -7.0743795747292708 25.667983358703552 4.4446805281773401 #
loop $-1 $-1 $334 $328 #
plane-surface $-1 0 0 6.830042547059116 0 0 1 1 0 0 forward_v I I I I #
coedge $-1 $331 $493 $489 $595 reversed $206 $-1 #
edge $-1 $491 47.46177143416277 $494 52.232495471926299 $331 $596 forward 7 unknown #
edge $-1 $494 -55.784738746335449 $490 -49.261596833892469 $332 $597 forward 7 unknown #
coedge $-1 $496 $334 $486 $595 forward $484 $-1 #
vertex $-1 $335 $598 #
vertex $-1 $595 $599 #
straight-curve $-1 17.148759149458542 30.164853050014575 6.8300425470591151 0 1 0 I I #
coedge $-1 $486 $337 $342 $499 forward $206 $-1 #
vertex $-1 $487 $600 #
straight-curve $-1 -4.2871897873646354 27.892369373167746 2.0593185092955864 -1 0 0 I I #
coedge $-1 $339 $489 $341 $498 forward $484 $-1 #
straight-curve $-1 -4.2871897873646354 23.443597344239365 6.8300425470591115 1 0 0 I I #
edge $-1 $601 2.2724836768468286 $344 6.7212557057752029 $496 $602 forward 7 unknown #
edge $-1 $343 -52.232495471926299 $601 -47.46177143416277 $493 $603 forward 7 unknown #
point $-1 0 27.892369373167746 2.0593185092955864 #
point $-1 0 23.443597344239372 6.8300425470591151 #
edge $-1 $604 1 $604 0 $346 $-1 forward 7 unknown #
vertex $-1 $347 $605 #
ellipse-curve $-1 8.5743795747292708 22.915111927300298 1.8775864505655817 0 0.73135370988377701 0.68199835119979291 1.5 0 0 1 I I #
point $-1 10.074379574729271 25.667983358703552 4.4446805281773401 #
plane-surface $-1 48.186284981841489 0 0 -1 0 0 0 0 1 forward_v I I I I #
coedge $-1 $353 $516 $356 $510 reversed $221 $-1 #
vertex $-1 $510 $606 #
straight-curve $-1 -48.186284981841489 -27.892369373167746 0 0 0 -1 I I #
edge $-1 $508 -27.892369373167746 $512 27.892369373167746 $507 $607 forward 7 unknown #
straight-curve $-1 0 -27.892369373167746 -6.830042547059116 -1 0 0 I I #
vertex $-1 $359 $608 #
straight-curve $-1 0 27.892369373167746 -6.830042547059116 1 0 0 I I #
point $-1 48.186284981841489 27.892369373167746 -6.830042547059116 #
point $-1 48.186284981841489 -27.892369373167746 -6.830042547059116 #
coedge $-1 $507 $363 $366 $518 forward $221 $-1 #
straight-curve $-1 -48.186284981841489 0 6.830042547059116 0 -1 0 I I #
edge $-1 $367 -6.830042547059116 $512 6.830042547059116 $366 $609 forward 7 unknown #
point $-1 -48.186284981841489 27.892369373167746 6.830042547059116 #
point $-1 -48.186284981841489 -27.892369373167746 6.830042547059116 #
straight-curve $-1 48.186284981841489 -27.892369373167746 0 0 0 -1 I I #
straight-curve $-1 48.186284981841489 27.892369373167746 0 0 0 -1 I I #
plane-surface $-1 0 -27.892369373167746 0 0 1 0 0 0 1 forward_v I I I I #
coedge $-1 $610 $379 $527 $611 reversed $240 $-1 #
coedge $-1 $379 $610 $393 $538 reversed $240 $-1 #
edge $-1 $530 -1.9846456527394625 $528 1.9846456527394629 $380 $612 forward 7 unknown #
coedge $-1 $381 $533 $524 $611 forward $377 $-1 #
vertex $-1 $382 $613 #
straight-curve $-1 0 27.892369373167746 -6.830042547059116 1 0 0 I I #
vertex $-1 $383 $614 #
straight-curve $-1 -51.418062177379618 27.892369373167746 -2.8607512415801915 -1 0 0 I I #
point $-1 -48.186284981841489 27.892369373167746 -6.830042547059116 #
coedge $-1 $527 $386 $389 $536 forward $377 $-1 #
straight-curve $-1 -48.186284981841489 0 -6.830042547059116 0 -1 0 I I #
coedge $-1 $389 $388 $610 $615 forward $390 $-1 #
edge $-1 $391 -3.2317771955381289 $616 3.2317771955381289 $389 $617 forward 7 unknown #
point $-1 -48.186284981841489 -27.892369373167746 -6.830042547059116 #
edge $-1 $530 -27.892369373167746 $539 27.892369373167746 $525 $618 forward 7 unknown #
vertex $-1 $538 $619 #
straight-curve $-1 -51.418062177379618 -27.892369373167746 -2.8607512415801915 1 0 0 I I #
plane-surface $-1 0 -27.892369373167746 0 0 1 0 0 0 1 forward_v I I I I #
coedge $-1 $545 $400 $551 $620 reversed $254 $-1 #
coedge $-1 $412 $411 $400 $544 reversed $413 $-1 #
edge $-1 $546 -1.9846456527394625 $621 1.9846456527394629 $400 $622 forward 7 unknown #
coedge $-1 $401 $542 $403 $549 reversed $254 $-1 #
vertex $-1 $402 $623 #
vertex $-1 $402 $624 #
straight-curve $-1 54.649839372917747 0 -2.8607512415801915 0 1 0 I I #
edge $-1 $547 -1.9846456527394625 $552 1.9846456527394629 $545 $625 forward 7 unknown #
straight-curve $-1 51.418062177379618 27.892369373167746 -2.8607512415801915 -1 0 0 I I #
coedge $-1 $555 $405 $542 $620 forward $398 $-1 #
vertex $-1 $620 $626 #
straight-curve $-1 51.418062177379618 27.892369373167746 -6.8300425470591168 1 0 0 I I #
point $-1 48.186284981841489 27.892369373167746 -6.830042547059116 #
coedge $-1 $409 $551 $411 $557 forward $398 $-1 #
straight-curve $-1 48.186284981841489 0 -6.830042547059116 0 1 0 I I #
edge $-1 $621 -3.2317771955381289 $414 3.2317771955381289 $411 $627 forward 7 unknown #
point $-1 48.186284981841489 -27.892369373167746 -6.830042547059116 #
straight-curve $-1 51.418062177379618 -27.892369373167746 -2.8607512415801915 1 0 0 I I #
coedge $-1 $430 $429 $422 $561 forward $419 $-1 #
edge $-1 $562 27.062583615647895 $565 31.833307653411453 $560 $628 forward 7 unknown #
vertex $-1 $434 $629 #
straight-curve $-1 -17.148759149458542 -49.18740297357057 6.8300425470591151 0 -1 0 I I #
edge $-1 $565 -12.861569362093906 $431 4.2871897873646354 $430 $630 forward 7 unknown #
vertex $-1 $564 $631 #
straight-curve $-1 -17.148759149458542 -27.892369373167753 2.0593185092955508 0 0.68199835119979291 0.73135370988377701 I I #
point $-1 -17.148759149458542 -23.443597344239343 6.830042547059116 #
point $-1 0 -27.892369373167746 2.0593185092955584 #
straight-curve $-1 0 -27.892369373167746 6.830042547059116 1 0 0 I I #
vertex $-1 $437 $632 #
point $-1 -7.0743795747292708 -22.915111927300291 1.8775864505655782 #
coedge $-1 $444 $443 $442 $573 forward $176 $-1 #
edge $-1 $448 -25.743805629331227 $580 -21.295033600402824 $572 $633 forward 7 unknown #
straight-curve $-1 -4.2871897873646354 -23.44359734423934 6.8300425470591151 -1 0 0 I I #
straight-curve $-1 -4.2871897873646354 -27.892369373167746 2.0593185092955584 1 0 0 I I #
edge $-1 $580 27.062583615647895 $449 31.833307653411453 $454 $634 forward 7 unknown #
point $-1 0 -23.443597344239343 6.830042547059116 #
point $-1 0 -27.892369373167746 2.0593185092955584 #
point $-1 17.148759149458542 -23.443597344239343 6.830042547059116 #
vertex $-1 $455 $635 #
straight-curve $-1 0 -27.892369373167746 6.830042547059116 1 0 0 I I #
vertex $-1 $458 $636 #
point $-1 10.074379574729271 -22.915111927300291 1.8775864505655782 #
edge $-1 $585 47.46177143416277 $588 52.232495471926299 $463 $637 forward 7 unknown #
vertex $-1 $477 $638 #
straight-curve $-1 0 30.164853050014575 6.8300425470591151 0 1 0 I I #
edge $-1 $588 -4.2871897873646354 $474 12.861569362093906 $473 $639 forward 7 unknown #
vertex $-1 $587 $640 #
straight-curve $-1 0 -10.152730473944239 42.857694146325301 0 -0.68199835119979291 0.73135370988377701 I I #
point $-1 0 23.443597344239372 6.8300425470591151 #
point $-1 -17.148759149458542 27.892369373167746 2.0593185092955864 #
straight-curve $-1 0 27.892369373167746 6.830042547059116 -1 0 0 I I #
vertex $-1 $480 $641 #
point $-1 -7.0743795747292708 22.915111927300298 1.8775864505655817 #
edge $-1 $491 -17.148759149458542 $601 0 $486 $642 forward 7 unknown #
straight-curve $-1 17.148759149458542 27.892369373167746 54.291813981221885 0 0 -1 I I #
straight-curve $-1 17.148759149458542 -10.152730473944239 42.857694146325301 0 -0.68199835119979291 0.73135370988377701 I I #
point $-1 17.148759149458542 23.443597344239372 6.8300425470591151 #
point $-1 17.148759149458542 27.892369373167746 6.830042547059116 #
point $-1 17.148759149458542 27.892369373167746 2.0593185092955864 #
vertex $-1 $499 $643 #
straight-curve $-1 0 30.164853050014575 6.8300425470591151 0 -1 0 I I #
straight-curve $-1 0 27.892369373167746 54.291813981221885 0 0 1 I I #
vertex $-1 $502 $644 #
point $-1 10.074379574729271 22.915111927300298 1.8775864505655817 #
point $-1 -48.186284981841489 -27.892369373167746 -6.830042547059116 #
straight-curve $-1 -48.186284981841489 0 -6.830042547059116 0 1 0 I I #
point $-1 -48.186284981841489 27.892369373167746 -6.830042547059116 #
straight-curve $-1 -48.186284981841489 27.892369373167746 0 0 0 -1 I I #
coedge $-1 $525 $524 $535 $615 reversed $240 $-1 #
edge $-1 $616 -27.892369373167746 $528 27.892369373167746 $524 $645 forward 7 unknown #
straight-curve $-1 -54.649839372917747 27.892369373167746 -4.8453968943196539 0 0 -1 I I #
point $-1 -54.649839372917747 27.892369373167746 -6.8300425470591168 #
point $-1 -54.649839372917747 27.892369373167746 -2.8607512415801915 #
edge $-1 $539 -1.9846456527394625 $616 1.9846456527394629 $610 $646 forward 7 unknown #
vertex $-1 $611 $647 #
straight-curve $-1 -51.418062177379618 -27.892369373167746 -6.8300425470591168 -1 0 0 I I #
straight-curve $-1 -54.649839372917747 0 -2.8607512415801915 0 -1 0 I I #
point $-1 -54.649839372917747 -27.892369373167746 -2.8607512415801915 #
edge $-1 $552 -27.892369373167746 $621 27.892369373167746 $542 $648 forward 7 unknown #
vertex $-1 $544 $649 #
straight-curve $-1 54.649839372917747 -27.892369373167746 -4.8453968943196539 0 0 -1 I I #
point $-1 54.649839372917747 -27.892369373167746 -2.8607512415801915 #
point $-1 54.649839372917747 27.892369373167746 -2.8607512415801915 #
straight-curve $-1 54.649839372917747 27.892369373167746 -4.8453968943196539 0 0 -1 I I #
point $-1 54.649839372917747 27.892369373167746 -6.8300425470591168 #
straight-curve $-1 51.418062177379618 -27.892369373167746 -6.8300425470591168 -1 0 0 I I #
straight-curve $-1 -17.148759149458542 -27.892369373167746 33.89262616270701 0 0 -1 I I #
point $-1 -17.148759149458542 -27.892369373167746 6.830042547059116 #
straight-curve $-1 -4.2871897873646354 -27.892369373167746 2.0593185092955584 1 0 0 I I #
point $-1 -17.148759149458542 -27.892369373167746 2.0593185092955584 #
point $-1 -8.5743795747292708 -21.818081362474626 0.8545889237658888 #
straight-curve $-1 0 -49.18740297357057 6.8300425470591151 0 -1 0 I I #
straight-curve $-1 0 -27.892369373167746 33.89262616270701 0 0 -1 I I #
point $-1 0 -27.892369373167746 6.830042547059116 #
point $-1 8.5743795747292708 -21.818081362474626 0.8545889237658888 #
straight-curve $-1 0 27.892369373167746 54.291813981221885 0 0 -1 I I #
point $-1 0 27.892369373167746 6.830042547059116 #
straight-curve $-1 -4.2871897873646354 27.892369373167746 2.0593185092955864 -1 0 0 I I #
point $-1 0 27.892369373167746 2.0593185092955864 #
point $-1 -8.5743795747292708 21.818081362474633 0.85458892376589235 #
straight-curve $-1 0 27.892369373167746 6.830042547059116 -1 0 0 I I #
point $-1 0 27.892369373167746 6.830042547059116 #
point $-1 8.5743795747292708 21.818081362474633 0.85458892376589235 #
straight-curve $-1 -54.649839372917747 0 -6.8300425470591168 0 1 0 I I #
straight-curve $-1 -54.649839372917747 -27.892369373167746 -4.8453968943196539 0 0 -1 I I #
point $-1 -54.649839372917747 -27.892369373167746 -6.8300425470591168 #
straight-curve $-1 54.649839372917747 0 -6.8300425470591168 0 -1 0 I I #
point $-1 54.649839372917747 -27.892369373167746 -6.8300425470591168 #
End-of-ACIS-data 