500 0 9 0           
7 Unknown 11 ACIS 5.0 NT 24 Thu Mar 25 23:10:22 1999 
-1 9.9999999999999995e-007 1e-010 
body $-1 $9 $-1 $10 #
body $-1 $11 $-1 $12 #
body $-1 $13 $-1 $14 #
body $-1 $15 $-1 $16 #
body $-1 $17 $-1 $18 #
body $-1 $19 $-1 $20 #
body $-1 $21 $-1 $22 #
body $-1 $23 $-1 $24 #
body $-1 $25 $-1 $26 #
lump $-1 $-1 $27 $0 #
transform $-1 1 0 0 0 1 0 0 0 1 48.513443403424176 30.314128574371448 6.4103090576439641 1 rotate no_reflect no_shear #
lump $-1 $-1 $28 $1 #
transform $-1 1 0 0 0 1 0 0 0 1 48.513443403424176 30.314128574371448 6.4103090576439641 1 rotate no_reflect no_shear #
lump $-1 $-1 $29 $2 #
transform $-1 1 0 0 0 1 0 0 0 1 48.513443403424176 30.314128574371448 6.4103090576439641 1 rotate no_reflect no_shear #
lump $-1 $-1 $30 $3 #
transform $-1 1 0 0 0 1 0 0 0 1 48.513443403424176 30.314128574371448 6.4103090576439641 1 rotate no_reflect no_shear #
lump $-1 $-1 $31 $4 #
transform $-1 1 0 0 0 1 0 0 0 1 48.513443403424176 30.314128574371448 6.4103090576439641 1 rotate no_reflect no_shear #
lump $-1 $-1 $32 $5 #
transform $-1 1 0 0 0 1 0 0 0 1 48.513443403424176 30.314128574371448 6.4103090576439641 1 rotate no_reflect no_shear #
lump $-1 $-1 $33 $6 #
transform $-1 1 0 0 0 1 0 0 0 1 48.513443403424176 30.314128574371448 6.4103090576439641 1 rotate no_reflect no_shear #
lump $-1 $-1 $34 $7 #
transform $-1 1 0 0 0 1 0 0 0 1 48.513443403424176 30.314128574371448 6.4103090576439641 1 rotate no_reflect no_shear #
lump $-1 $-1 $35 $8 #
transform $-1 1 0 0 0 1 0 0 0 1 48.513443403424176 30.314128574371448 6.4103090576439641 1 rotate no_reflect no_shear #
shell $-1 $-1 $-1 $36 $-1 $9 #
shell $-1 $-1 $-1 $37 $-1 $11 #
shell $-1 $-1 $-1 $38 $-1 $13 #
shell $-1 $-1 $-1 $39 $-1 $15 #
shell $-1 $-1 $-1 $40 $-1 $17 #
shell $-1 $-1 $-1 $41 $-1 $19 #
shell $-1 $-1 $-1 $42 $-1 $21 #
shell $-1 $-1 $-1 $43 $-1 $23 #
shell $-1 $-1 $-1 $44 $-1 $25 #
face $-1 $45 $46 $27 $-1 $47 forward single #
face $-1 $48 $49 $28 $-1 $50 reversed single #
face $-1 $51 $52 $29 $-1 $53 forward single #
face $-1 $54 $55 $30 $-1 $56 reversed single #
face $-1 $57 $58 $31 $-1 $59 forward single #
face $-1 $60 $61 $32 $-1 $62 reversed single #
face $-1 $63 $64 $33 $-1 $65 forward single #
face $-1 $66 $67 $34 $-1 $68 reversed single #
face $-1 $69 $70 $35 $-1 $71 forward single #
face $-1 $72 $73 $27 $-1 $74 reversed single #
loop $-1 $-1 $75 $36 #
plane-surface $-1 0 0 6.4103090576439641 0 0 1 1 0 0 forward_v I I I I #
face $-1 $76 $77 $28 $-1 $78 reversed single #
loop $-1 $-1 $79 $37 #
plane-surface $-1 60.47267199127289 -15.157064287185726 139.71137980701738 0 -1 0 -0.7660444514056185 0 -0.64278759981090561 forward_v I I I I #
face $-1 $80 $81 $29 $-1 $82 forward single #
loop $-1 $83 $84 $38 #
cone-surface $-1 46.706671693719862 -19.919163450274624 4.3921566508023799 -0.7660444514056185 0 -0.64278759981090561 0.1606968999527264 0 -0.19151111285140462 1 I I 0 1 0.25 forward I I I I #
face $-1 $85 $86 $30 $-1 $87 reversed single #
loop $-1 $-1 $88 $39 #
plane-surface $-1 60.47267199127289 -1.8776219870026436 139.71137980701738 0 -1 0 -0.7660444514056185 0 -0.64278759981090561 forward_v I I I I #
face $-1 $89 $90 $31 $-1 $91 forward single #
loop $-1 $92 $93 $40 #
cone-surface $-1 46.706671693719862 -6.6397211500915425 4.3921566508023799 -0.7660444514056185 0 -0.64278759981090561 0.1606968999527264 0 -0.19151111285140462 1 I I 0 1 0.25 forward I I I I #
face $-1 $94 $95 $32 $-1 $96 reversed single #
loop $-1 $-1 $97 $41 #
plane-surface $-1 60.47267199127289 11.401820313180441 139.71137980701738 0 -1 0 -0.7660444514056185 0 -0.64278759981090561 forward_v I I I I #
face $-1 $98 $99 $33 $-1 $100 forward single #
loop $-1 $101 $102 $42 #
cone-surface $-1 46.706671693719862 6.6397211500915425 4.3921566508023799 -0.7660444514056185 0 -0.64278759981090561 0.1606968999527264 0 -0.19151111285140462 1 I I 0 1 0.25 forward I I I I #
face $-1 $103 $104 $34 $-1 $105 reversed single #
loop $-1 $-1 $106 $43 #
plane-surface $-1 60.47267199127289 24.681262613363526 139.71137980701738 0 -1 0 -0.7660444514056185 0 -0.64278759981090561 forward_v I I I I #
face $-1 $107 $108 $35 $-1 $109 forward single #
loop $-1 $110 $111 $44 #
cone-surface $-1 46.706671693719862 19.919163450274628 4.3921566508023799 -0.7660444514056185 0 -0.64278759981090561 0.1606968999527264 0 -0.19151111285140462 1 I I 0 1 0.25 forward I I I I #
face $-1 $112 $113 $27 $-1 $114 reversed single #
loop $-1 $-1 $115 $45 #
plane-surface $-1 0 0 -6.4103090576439641 0 0 1 1 0 0 forward_v I I I I #
coedge $-1 $116 $117 $118 $119 forward $46 $-1 #
face $-1 $120 $121 $28 $-1 $122 reversed single #
loop $-1 $-1 $123 $48 #
plane-surface $-1 -13.854236284274293 -19.919163450274624 77.343700119318896 0.7660444514056185 0 0.64278759981090561 0.64278759981090561 0 -0.7660444514056185 forward_v I I I I #
coedge $-1 $124 $125 $126 $127 reversed $49 $-1 #
face $-1 $-1 $128 $29 $-1 $129 forward single #
loop $-1 $130 $131 $51 #
cone-surface $-1 46.227893911591352 -19.919163450274624 3.9904144009205638 -0.7660444514056185 0 -0.64278759981090561 0.080348449976363201 0 -0.095755556425702312 1 I I -0.70710678118654746 0.70710678118654746 0.125 forward I I I I #
loop $-1 $-1 $132 $38 #
coedge $-1 $84 $84 $133 $134 reversed $52 $-1 #
face $-1 $135 $136 $30 $-1 $137 reversed single #
loop $-1 $-1 $138 $54 #
plane-surface $-1 -13.854236284274293 -6.6397211500915425 77.343700119318896 0.7660444514056185 0 0.64278759981090561 0.64278759981090561 0 -0.7660444514056185 forward_v I I I I #
coedge $-1 $139 $140 $141 $142 reversed $55 $-1 #
face $-1 $-1 $143 $31 $-1 $144 forward single #
loop $-1 $145 $146 $57 #
cone-surface $-1 46.227893911591352 -6.6397211500915425 3.9904144009205638 -0.7660444514056185 0 -0.64278759981090561 0.080348449976363201 0 -0.095755556425702312 1 I I -0.70710678118654746 0.70710678118654746 0.125 forward I I I I #
loop $-1 $-1 $147 $40 #
coedge $-1 $93 $93 $148 $149 reversed $58 $-1 #
face $-1 $150 $151 $32 $-1 $152 reversed single #
loop $-1 $-1 $153 $60 #
plane-surface $-1 -13.854236284274293 6.6397211500915425 77.343700119318896 0.7660444514056185 0 0.64278759981090561 0.64278759981090561 0 -0.7660444514056185 forward_v I I I I #
coedge $-1 $154 $155 $156 $157 reversed $61 $-1 #
face $-1 $-1 $158 $33 $-1 $159 forward single #
loop $-1 $160 $161 $63 #
cone-surface $-1 46.227893911591352 6.6397211500915425 3.9904144009205638 -0.7660444514056185 0 -0.64278759981090561 0.080348449976363201 0 -0.095755556425702312 1 I I -0.70710678118654746 0.70710678118654746 0.125 forward I I I I #
loop $-1 $-1 $162 $42 #
coedge $-1 $102 $102 $163 $164 reversed $64 $-1 #
face $-1 $165 $166 $34 $-1 $167 reversed single #
loop $-1 $-1 $168 $66 #
plane-surface $-1 -13.854236284274293 19.919163450274628 77.343700119318896 0.7660444514056185 0 0.64278759981090561 0.64278759981090561 0 -0.7660444514056185 forward_v I I I I #
coedge $-1 $169 $170 $171 $172 reversed $67 $-1 #
face $-1 $-1 $173 $35 $-1 $174 forward single #
loop $-1 $175 $176 $69 #
cone-surface $-1 46.227893911591352 19.919163450274628 3.9904144009205638 -0.7660444514056185 0 -0.64278759981090561 0.080348449976363201 0 -0.095755556425702312 1 I I -0.70710678118654746 0.70710678118654746 0.125 forward I I I I #
loop $-1 $-1 $177 $44 #
coedge $-1 $111 $111 $178 $179 reversed $70 $-1 #
face $-1 $180 $181 $27 $-1 $182 reversed single #
loop $-1 $-1 $183 $72 #
plane-surface $-1 0 -30.314128574371448 0 0 1 0 0 0 1 forward_v I I I I #
coedge $-1 $184 $185 $186 $187 forward $73 $-1 #
coedge $-1 $188 $75 $189 $190 forward $46 $-1 #
coedge $-1 $75 $188 $191 $192 forward $46 $-1 #
coedge $-1 $193 $194 $75 $119 reversed $195 $-1 #
edge $-1 $196 -30.314128574371448 $197 30.314128574371448 $118 $198 forward 7 unknown #
face $-1 $199 $200 $28 $-1 $201 forward single #
loop $-1 $-1 $202 $76 #
plane-surface $-1 60.47267199127289 -24.681262613363522 139.71137980701738 0 1 0 0.7660444514056185 0 0.64278759981090561 forward_v I I I I #
coedge $-1 $203 $204 $205 $206 reversed $77 $-1 #
coedge $-1 $125 $79 $207 $208 reversed $49 $-1 #
coedge $-1 $79 $124 $203 $209 reversed $49 $-1 #
coedge $-1 $205 $210 $79 $127 forward $200 $-1 #
edge $-1 $211 -18.277107407787732 $212 -15.42960843978473 $126 $213 forward 7 unknown #
loop $-1 $-1 $133 $80 #
plane-surface $-1 -13.854236284274293 -19.919163450274624 77.343700119318896 0.7660444514056185 0 0.64278759981090561 0.64278759981090561 0 -0.7660444514056185 forward_v I I I I #
loop $-1 $-1 $214 $51 #
coedge $-1 $131 $131 $132 $215 reversed $81 $-1 #
coedge $-1 $132 $132 $131 $215 forward $83 $-1 #
coedge $-1 $133 $133 $84 $134 forward $128 $-1 #
edge $-1 $216 0 $216 6.2831853071796004 $133 $217 forward 7 unknown #
face $-1 $218 $219 $30 $-1 $220 reversed single #
loop $-1 $-1 $221 $85 #
plane-surface $-1 60.47267199127289 -11.401820313180441 139.71137980701738 0 1 0 0.7660444514056185 0 0.64278759981090561 forward_v I I I I #
coedge $-1 $222 $223 $224 $225 reversed $86 $-1 #
coedge $-1 $140 $88 $226 $227 reversed $55 $-1 #
coedge $-1 $88 $139 $222 $228 reversed $55 $-1 #
coedge $-1 $224 $229 $88 $142 forward $230 $-1 #
edge $-1 $231 -18.277107407787732 $232 -15.42960843978473 $141 $233 forward 7 unknown #
loop $-1 $-1 $148 $89 #
plane-surface $-1 -13.854236284274293 -6.6397211500915425 77.343700119318896 0.7660444514056185 0 0.64278759981090561 0.64278759981090561 0 -0.7660444514056185 forward_v I I I I #
loop $-1 $-1 $234 $57 #
coedge $-1 $146 $146 $147 $235 reversed $90 $-1 #
coedge $-1 $147 $147 $146 $235 forward $92 $-1 #
coedge $-1 $148 $148 $93 $149 forward $143 $-1 #
edge $-1 $236 0 $236 6.2831853071796004 $148 $237 forward 7 unknown #
face $-1 $238 $239 $32 $-1 $240 reversed single #
loop $-1 $-1 $241 $94 #
plane-surface $-1 60.47267199127289 1.8776219870026436 139.71137980701738 0 1 0 0.7660444514056185 0 0.64278759981090561 forward_v I I I I #
coedge $-1 $242 $243 $244 $245 reversed $95 $-1 #
coedge $-1 $155 $97 $246 $247 reversed $61 $-1 #
coedge $-1 $97 $154 $242 $248 reversed $61 $-1 #
coedge $-1 $244 $249 $97 $157 forward $250 $-1 #
edge $-1 $251 -18.277107407787732 $252 -15.42960843978473 $156 $253 forward 7 unknown #
loop $-1 $-1 $163 $98 #
plane-surface $-1 -13.854236284274293 6.6397211500915425 77.343700119318896 0.7660444514056185 0 0.64278759981090561 0.64278759981090561 0 -0.7660444514056185 forward_v I I I I #
loop $-1 $-1 $254 $63 #
coedge $-1 $161 $161 $162 $255 reversed $99 $-1 #
coedge $-1 $162 $162 $161 $255 forward $101 $-1 #
coedge $-1 $163 $163 $102 $164 forward $158 $-1 #
edge $-1 $256 0 $256 6.2831853071796004 $163 $257 forward 7 unknown #
face $-1 $258 $259 $34 $-1 $260 reversed single #
loop $-1 $-1 $261 $103 #
plane-surface $-1 60.47267199127289 15.15706428718573 139.71137980701738 0 1 0 0.7660444514056185 0 0.64278759981090561 forward_v I I I I #
coedge $-1 $262 $263 $264 $265 reversed $104 $-1 #
coedge $-1 $170 $106 $266 $267 reversed $67 $-1 #
coedge $-1 $106 $169 $262 $268 reversed $67 $-1 #
coedge $-1 $264 $269 $106 $172 forward $270 $-1 #
edge $-1 $271 -18.277107407787732 $272 -15.42960843978473 $171 $273 forward 7 unknown #
loop $-1 $-1 $178 $107 #
plane-surface $-1 -13.854236284274293 19.919163450274628 77.343700119318896 0.7660444514056185 0 0.64278759981090561 0.64278759981090561 0 -0.7660444514056185 forward_v I I I I #
loop $-1 $-1 $274 $69 #
coedge $-1 $176 $176 $177 $275 reversed $108 $-1 #
coedge $-1 $177 $177 $176 $275 forward $110 $-1 #
coedge $-1 $178 $178 $111 $179 forward $173 $-1 #
edge $-1 $276 0 $276 6.2831853071796004 $178 $277 forward 7 unknown #
face $-1 $278 $279 $27 $-1 $280 reversed single #
loop $-1 $-1 $281 $112 #
plane-surface $-1 -48.513443403424176 0 0 1 0 0 0 0 -1 forward_v I I I I #
coedge $-1 $282 $191 $283 $284 forward $113 $-1 #
coedge $-1 $285 $115 $282 $286 forward $73 $-1 #
coedge $-1 $115 $285 $287 $288 forward $73 $-1 #
coedge $-1 $194 $193 $115 $187 reversed $195 $-1 #
edge $-1 $289 -30.314128574371448 $290 30.314128574371448 $186 $291 forward 7 unknown #
coedge $-1 $117 $116 $292 $293 forward $46 $-1 #
coedge $-1 $294 $295 $116 $190 reversed $279 $-1 #
edge $-1 $197 -48.513443403424176 $296 48.513443403424176 $189 $297 forward 7 unknown #
coedge $-1 $183 $298 $117 $192 reversed $113 $-1 #
edge $-1 $299 -48.513443403424176 $196 48.513443403424176 $191 $300 forward 7 unknown #
coedge $-1 $186 $118 $298 $301 forward $195 $-1 #
coedge $-1 $118 $186 $294 $302 reversed $195 $-1 #
loop $-1 $-1 $193 $278 #
vertex $-1 $119 $303 #
vertex $-1 $119 $304 #
straight-curve $-1 48.513443403424176 0 6.4103090576439641 0 1 0 I I #
face $-1 $-1 $305 $28 $-1 $306 reversed single #
loop $-1 $-1 $126 $120 #
plane-surface $-1 0 0 6.4103090576439641 0 0 1 1 0 0 forward_v I I I I #
coedge $-1 $307 $308 $309 $310 reversed $121 $-1 #
coedge $-1 $311 $123 $125 $209 forward $77 $-1 #
coedge $-1 $123 $311 $307 $312 forward $77 $-1 #
coedge $-1 $309 $126 $123 $206 forward $200 $-1 #
edge $-1 $212 5.197482562048414 $313 14.72168088822621 $205 $314 forward 7 unknown #
coedge $-1 $315 $316 $124 $208 forward $305 $-1 #
edge $-1 $317 -66.838898059736977 $211 -63.445380845864726 $207 $318 forward 7 unknown #
edge $-1 $212 92.596964747305393 $317 97.026886806848367 $125 $319 forward 7 unknown #
coedge $-1 $126 $309 $315 $320 forward $200 $-1 #
vertex $-1 $208 $321 #
vertex $-1 $127 $322 #
straight-curve $-1 30.236335995636445 -15.157064287185726 6.410309057643957 -1 0 0 I I #
coedge $-1 $214 $214 $-1 $323 reversed $130 $-1 #
edge $-1 $324 0 $324 6.2831853071796004 $131 $325 forward 7 unknown #
vertex $-1 $134 $326 #
ellipse-curve $-1 47.089693919422679 -19.919163450274624 4.713550450707837 0.7660444514056185 0 0.64278759981090561 0.1606968999527264 0 -0.19151111285140462 1 I I #
face $-1 $-1 $230 $30 $-1 $327 forward single #
loop $-1 $-1 $328 $135 #
plane-surface $-1 48.513443403424176 0 0 -1 0 0 0 0 1 forward_v I I I I #
coedge $-1 $329 $330 $331 $332 reversed $136 $-1 #
coedge $-1 $333 $138 $140 $228 forward $86 $-1 #
coedge $-1 $138 $333 $329 $334 forward $86 $-1 #
coedge $-1 $331 $141 $138 $225 forward $230 $-1 #
edge $-1 $232 -1.4422385880431277 $335 8.0819597381346693 $224 $336 forward 7 unknown #
coedge $-1 $337 $338 $139 $227 forward $219 $-1 #
edge $-1 $339 -66.838898059736977 $231 -63.445380845864726 $226 $340 forward 7 unknown #
edge $-1 $232 92.596964747305393 $339 97.026886806848367 $140 $341 forward 7 unknown #
coedge $-1 $141 $331 $337 $342 forward $230 $-1 #
loop $-1 $-1 $331 $218 #
vertex $-1 $227 $343 #
vertex $-1 $142 $344 #
straight-curve $-1 30.236335995636445 -1.8776219870026436 6.410309057643957 -1 0 0 I I #
coedge $-1 $234 $234 $-1 $345 reversed $145 $-1 #
edge $-1 $346 0 $346 6.2831853071796004 $146 $347 forward 7 unknown #
vertex $-1 $149 $348 #
ellipse-curve $-1 47.089693919422679 -6.6397211500915425 4.713550450707837 0.7660444514056185 0 0.64278759981090561 0.1606968999527264 0 -0.19151111285140462 1 I I #
face $-1 $-1 $250 $32 $-1 $349 forward single #
loop $-1 $-1 $350 $150 #
plane-surface $-1 48.513443403424176 0 0 -1 0 0 0 0 1 forward_v I I I I #
coedge $-1 $351 $352 $353 $354 reversed $151 $-1 #
coedge $-1 $355 $153 $155 $248 forward $95 $-1 #
coedge $-1 $153 $355 $351 $356 forward $95 $-1 #
coedge $-1 $353 $156 $153 $245 forward $250 $-1 #
edge $-1 $252 -8.0819597381346693 $357 1.4422385880431277 $244 $358 forward 7 unknown #
coedge $-1 $359 $360 $154 $247 forward $239 $-1 #
edge $-1 $361 -66.838898059736977 $251 -63.445380845864726 $246 $362 forward 7 unknown #
edge $-1 $252 92.596964747305393 $361 97.026886806848367 $155 $363 forward 7 unknown #
coedge $-1 $156 $353 $359 $364 forward $250 $-1 #
loop $-1 $-1 $353 $238 #
vertex $-1 $247 $365 #
vertex $-1 $157 $366 #
straight-curve $-1 30.236335995636445 11.401820313180441 6.410309057643957 -1 0 0 I I #
coedge $-1 $254 $254 $-1 $367 reversed $160 $-1 #
edge $-1 $368 0 $368 6.2831853071796004 $161 $369 forward 7 unknown #
vertex $-1 $164 $370 #
ellipse-curve $-1 47.089693919422679 6.6397211500915425 4.713550450707837 0.7660444514056185 0 0.64278759981090561 0.1606968999527264 0 -0.19151111285140462 1 I I #
face $-1 $-1 $270 $34 $-1 $371 forward single #
loop $-1 $-1 $372 $165 #
plane-surface $-1 48.513443403424176 0 0 -1 0 0 0 0 1 forward_v I I I I #
coedge $-1 $373 $374 $375 $376 reversed $166 $-1 #
coedge $-1 $377 $168 $170 $268 forward $104 $-1 #
coedge $-1 $168 $377 $373 $378 forward $104 $-1 #
coedge $-1 $375 $171 $168 $265 forward $270 $-1 #
edge $-1 $272 -14.721680888226212 $379 -5.1974825620484157 $264 $380 forward 7 unknown #
coedge $-1 $381 $382 $169 $267 forward $259 $-1 #
edge $-1 $383 -66.838898059736977 $271 -63.445380845864726 $266 $384 forward 7 unknown #
edge $-1 $272 92.596964747305393 $383 97.026886806848367 $170 $385 forward 7 unknown #
coedge $-1 $171 $375 $381 $386 forward $270 $-1 #
loop $-1 $-1 $375 $258 #
vertex $-1 $267 $387 #
vertex $-1 $172 $388 #
straight-curve $-1 30.236335995636445 24.681262613363526 6.410309057643957 -1 0 0 I I #
coedge $-1 $274 $274 $-1 $389 reversed $175 $-1 #
edge $-1 $390 0 $390 6.2831853071796004 $176 $391 forward 7 unknown #
vertex $-1 $179 $392 #
ellipse-curve $-1 47.089693919422679 19.919163450274628 4.713550450707837 0.7660444514056185 0 0.64278759981090561 0.1606968999527264 0 -0.19151111285140462 1 I I #
face $-1 $-1 $195 $27 $-1 $393 reversed single #
loop $-1 $-1 $294 $180 #
plane-surface $-1 0 30.314128574371448 0 0 -1 0 0 0 -1 forward_v I I I I #
coedge $-1 $394 $292 $295 $395 forward $181 $-1 #
coedge $-1 $298 $183 $184 $286 reversed $113 $-1 #
coedge $-1 $292 $394 $183 $284 reversed $181 $-1 #
edge $-1 $299 -6.4103090576439641 $396 6.4103090576439641 $283 $397 forward 7 unknown #
coedge $-1 $185 $184 $394 $398 forward $73 $-1 #
edge $-1 $290 -48.513443403424176 $396 48.513443403424176 $282 $399 forward 7 unknown #
coedge $-1 $295 $294 $185 $288 reversed $279 $-1 #
edge $-1 $400 -48.513443403424176 $289 48.513443403424176 $287 $401 forward 7 unknown #
vertex $-1 $187 $402 #
vertex $-1 $301 $403 #
straight-curve $-1 48.513443403424176 0 -6.4103090576439641 0 -1 0 I I #
coedge $-1 $281 $283 $188 $293 reversed $181 $-1 #
edge $-1 $296 -30.314128574371448 $299 30.314128574371448 $292 $404 forward 7 unknown #
coedge $-1 $287 $189 $194 $302 forward $279 $-1 #
coedge $-1 $189 $287 $281 $395 reversed $279 $-1 #
vertex $-1 $190 $405 #
straight-curve $-1 0 30.314128574371448 6.4103090576439641 -1 0 0 I I #
coedge $-1 $191 $282 $193 $301 reversed $113 $-1 #
vertex $-1 $293 $406 #
straight-curve $-1 0 -30.314128574371448 6.4103090576439641 1 0 0 I I #
edge $-1 $196 -6.4103090576439641 $290 6.4103090576439641 $193 $407 forward 7 unknown #
edge $-1 $197 -6.4103090576439641 $289 6.4103090576439641 $194 $408 forward 7 unknown #
point $-1 48.513443403424176 -30.314128574371448 6.4103090576439641 #
point $-1 48.513443403424176 30.314128574371448 6.4103090576439641 #
loop $-1 $-1 $207 $199 #
plane-surface $-1 48.513443403424176 0 0 -1 0 0 0 0 1 forward_v I I I I #
coedge $-1 $308 $202 $204 $312 reversed $121 $-1 #
coedge $-1 $202 $307 $409 $410 reversed $121 $-1 #
coedge $-1 $210 $205 $202 $310 forward $200 $-1 #
edge $-1 $313 15.42960843978473 $411 18.277107407787732 $309 $412 forward 7 unknown #
coedge $-1 $204 $203 $316 $413 reversed $77 $-1 #
edge $-1 $414 -97.026886806848367 $313 -92.596964747305393 $307 $415 forward 7 unknown #
vertex $-1 $206 $416 #
straight-curve $-1 45.66594443542116 -9.959581725137312 6.4103090576439641 0 -1 0 I I #
coedge $-1 $409 $207 $210 $320 reversed $305 $-1 #
coedge $-1 $207 $409 $311 $413 forward $305 $-1 #
vertex $-1 $208 $417 #
straight-curve $-1 48.513443403424176 -15.157064287185726 69.85568990350869 0 0 1 I I #
straight-curve $-1 -13.854236284274293 -15.157064287185726 77.343700119318896 0.64278759981090561 0 -0.7660444514056185 I I #
edge $-1 $411 -24.681262613363522 $211 -15.157064287185726 $315 $418 forward 7 unknown #
point $-1 48.513443403424176 -15.157064287185726 6.4103090576439641 #
point $-1 45.665944435421174 -15.157064287185726 6.410309057643957 #
edge $-1 $419 1 $419 0 $214 $-1 forward 7 unknown #
vertex $-1 $215 $420 #
ellipse-curve $-1 46.323649468017052 -19.919163450274624 4.0707628508969274 0.7660444514056185 0 0.64278759981090561 0.1606968999527264 0 -0.19151111285140462 1 I I #
point $-1 47.250390819375397 -19.919163450274624 4.5220393378564276 #
plane-surface $-1 0 0 6.4103090576439641 0 0 1 1 0 0 forward_v I I I I #
coedge $-1 $338 $337 $330 $421 forward $219 $-1 #
coedge $-1 $330 $221 $223 $334 reversed $136 $-1 #
coedge $-1 $221 $329 $328 $421 reversed $136 $-1 #
coedge $-1 $229 $224 $221 $332 forward $230 $-1 #
edge $-1 $335 15.42960843978473 $422 18.277107407787732 $331 $423 forward 7 unknown #
coedge $-1 $223 $222 $338 $424 reversed $86 $-1 #
edge $-1 $425 -97.026886806848367 $335 -92.596964747305393 $329 $426 forward 7 unknown #
vertex $-1 $225 $427 #
straight-curve $-1 45.66594443542116 -3.3198605750457713 6.4103090576439641 0 -1 0 I I #
coedge $-1 $328 $226 $229 $342 reversed $219 $-1 #
coedge $-1 $226 $328 $333 $424 forward $219 $-1 #
vertex $-1 $227 $428 #
straight-curve $-1 48.513443403424176 -1.8776219870026436 69.85568990350869 0 0 1 I I #
straight-curve $-1 -13.854236284274293 -1.8776219870026436 77.343700119318896 0.64278759981090561 0 -0.7660444514056185 I I #
edge $-1 $422 -11.401820313180441 $231 -1.8776219870026436 $337 $429 forward 7 unknown #
point $-1 48.513443403424176 -1.8776219870026436 6.4103090576439641 #
point $-1 45.665944435421174 -1.8776219870026436 6.410309057643957 #
edge $-1 $430 1 $430 0 $234 $-1 forward 7 unknown #
vertex $-1 $235 $431 #
ellipse-curve $-1 46.323649468017052 -6.6397211500915425 4.0707628508969274 0.7660444514056185 0 0.64278759981090561 0.1606968999527264 0 -0.19151111285140462 1 I I #
point $-1 47.250390819375397 -6.6397211500915425 4.5220393378564276 #
plane-surface $-1 0 0 6.4103090576439641 0 0 1 1 0 0 forward_v I I I I #
coedge $-1 $360 $359 $352 $432 forward $239 $-1 #
coedge $-1 $352 $241 $243 $356 reversed $151 $-1 #
coedge $-1 $241 $351 $350 $432 reversed $151 $-1 #
coedge $-1 $249 $244 $241 $354 forward $250 $-1 #
edge $-1 $357 15.42960843978473 $433 18.277107407787732 $353 $434 forward 7 unknown #
coedge $-1 $243 $242 $360 $435 reversed $95 $-1 #
edge $-1 $436 -97.026886806848367 $357 -92.596964747305393 $351 $437 forward 7 unknown #
vertex $-1 $245 $438 #
straight-curve $-1 45.66594443542116 3.3198605750457713 6.4103090576439641 0 -1 0 I I #
coedge $-1 $350 $246 $249 $364 reversed $239 $-1 #
coedge $-1 $246 $350 $355 $435 forward $239 $-1 #
vertex $-1 $247 $439 #
straight-curve $-1 48.513443403424176 11.401820313180441 69.85568990350869 0 0 1 I I #
straight-curve $-1 -13.854236284274293 11.401820313180441 77.343700119318896 0.64278759981090561 0 -0.7660444514056185 I I #
edge $-1 $433 1.8776219870026436 $251 11.401820313180441 $359 $440 forward 7 unknown #
point $-1 48.513443403424176 11.401820313180441 6.4103090576439641 #
point $-1 45.665944435421174 11.401820313180441 6.410309057643957 #
edge $-1 $441 1 $441 0 $254 $-1 forward 7 unknown #
vertex $-1 $255 $442 #
ellipse-curve $-1 46.323649468017052 6.6397211500915425 4.0707628508969274 0.7660444514056185 0 0.64278759981090561 0.1606968999527264 0 -0.19151111285140462 1 I I #
point $-1 47.250390819375397 6.6397211500915425 4.5220393378564276 #
plane-surface $-1 0 0 6.4103090576439641 0 0 1 1 0 0 forward_v I I I I #
coedge $-1 $382 $381 $374 $443 forward $259 $-1 #
coedge $-1 $374 $261 $263 $378 reversed $166 $-1 #
coedge $-1 $261 $373 $372 $443 reversed $166 $-1 #
coedge $-1 $269 $264 $261 $376 forward $270 $-1 #
edge $-1 $379 15.42960843978473 $444 18.277107407787732 $375 $445 forward 7 unknown #
coedge $-1 $263 $262 $382 $446 reversed $104 $-1 #
edge $-1 $447 -97.026886806848367 $379 -92.596964747305393 $373 $448 forward 7 unknown #
vertex $-1 $265 $449 #
straight-curve $-1 45.66594443542116 9.9595817251373138 6.4103090576439641 0 -1 0 I I #
coedge $-1 $372 $266 $269 $386 reversed $259 $-1 #
coedge $-1 $266 $372 $377 $446 forward $259 $-1 #
vertex $-1 $267 $450 #
straight-curve $-1 48.513443403424176 24.681262613363526 69.85568990350869 0 0 1 I I #
straight-curve $-1 -13.854236284274293 24.681262613363526 77.343700119318896 0.64278759981090561 0 -0.7660444514056185 I I #
edge $-1 $444 15.15706428718573 $271 24.681262613363526 $381 $451 forward 7 unknown #
point $-1 48.513443403424176 24.681262613363526 6.4103090576439641 #
point $-1 45.665944435421174 24.681262613363526 6.410309057643957 #
edge $-1 $452 1 $452 0 $274 $-1 forward 7 unknown #
vertex $-1 $275 $453 #
ellipse-curve $-1 46.323649468017052 19.919163450274628 4.0707628508969274 0.7660444514056185 0 0.64278759981090561 0.1606968999527264 0 -0.19151111285140462 1 I I #
point $-1 47.250390819375397 19.919163450274628 4.5220393378564276 #
plane-surface $-1 48.513443403424176 0 0 -1 0 0 0 0 1 forward_v I I I I #
coedge $-1 $283 $281 $285 $398 reversed $181 $-1 #
edge $-1 $296 -6.4103090576439641 $400 6.4103090576439641 $295 $454 forward 7 unknown #
vertex $-1 $398 $455 #
straight-curve $-1 -48.513443403424176 -30.314128574371448 0 0 0 -1 I I #
edge $-1 $396 -30.314128574371448 $400 30.314128574371448 $394 $456 forward 7 unknown #
straight-curve $-1 0 -30.314128574371448 -6.4103090576439641 -1 0 0 I I #
vertex $-1 $288 $457 #
straight-curve $-1 0 30.314128574371448 -6.4103090576439641 1 0 0 I I #
point $-1 48.513443403424176 30.314128574371448 -6.4103090576439641 #
point $-1 48.513443403424176 -30.314128574371448 -6.4103090576439641 #
straight-curve $-1 -48.513443403424176 0 6.4103090576439641 0 -1 0 I I #
point $-1 -48.513443403424176 30.314128574371448 6.4103090576439641 #
point $-1 -48.513443403424176 -30.314128574371448 6.4103090576439641 #
straight-curve $-1 48.513443403424176 -30.314128574371448 0 0 0 -1 I I #
straight-curve $-1 48.513443403424176 30.314128574371448 0 0 0 -1 I I #
coedge $-1 $316 $315 $308 $410 forward $305 $-1 #
edge $-1 $411 63.445380845864726 $414 66.838898059736977 $409 $458 forward 7 unknown #
vertex $-1 $320 $459 #
straight-curve $-1 30.236335995636445 -24.681262613363522 6.410309057643957 1 0 0 I I #
edge $-1 $414 -14.72168088822621 $317 -5.197482562048414 $316 $460 forward 7 unknown #
vertex $-1 $413 $461 #
straight-curve $-1 -13.854236284274293 -24.681262613363522 77.343700119318896 -0.64278759981090561 0 0.7660444514056185 I I #
point $-1 45.665944435421174 -24.681262613363522 6.410309057643957 #
point $-1 48.513443403424176 -15.157064287185726 3.0167918437717134 #
straight-curve $-1 48.513443403424176 0 6.4103090576439641 0 1 0 I I #
vertex $-1 $323 $462 #
point $-1 46.484346367969778 -19.919163450274624 3.8792517380455225 #
edge $-1 $422 63.445380845864726 $425 66.838898059736977 $328 $463 forward 7 unknown #
vertex $-1 $342 $464 #
straight-curve $-1 30.236335995636445 -11.401820313180441 6.410309057643957 1 0 0 I I #
edge $-1 $425 -8.0819597381346693 $339 1.4422385880431277 $338 $465 forward 7 unknown #
vertex $-1 $424 $466 #
straight-curve $-1 -13.854236284274293 -11.401820313180441 77.343700119318896 -0.64278759981090561 0 0.7660444514056185 I I #
point $-1 45.665944435421174 -11.401820313180441 6.410309057643957 #
point $-1 48.513443403424176 -1.8776219870026436 3.0167918437717134 #
straight-curve $-1 48.513443403424176 0 6.4103090576439641 0 1 0 I I #
vertex $-1 $345 $467 #
point $-1 46.484346367969778 -6.6397211500915425 3.8792517380455225 #
edge $-1 $433 63.445380845864726 $436 66.838898059736977 $350 $468 forward 7 unknown #
vertex $-1 $364 $469 #
straight-curve $-1 30.236335995636445 1.8776219870026436 6.410309057643957 1 0 0 I I #
edge $-1 $436 -1.4422385880431277 $361 8.0819597381346693 $360 $470 forward 7 unknown #
vertex $-1 $435 $471 #
straight-curve $-1 -13.854236284274293 1.8776219870026436 77.343700119318896 -0.64278759981090561 0 0.7660444514056185 I I #
point $-1 45.665944435421174 1.8776219870026436 6.410309057643957 #
point $-1 48.513443403424176 11.401820313180441 3.0167918437717134 #
straight-curve $-1 48.513443403424176 0 6.4103090576439641 0 1 0 I I #
vertex $-1 $367 $472 #
point $-1 46.484346367969778 6.6397211500915425 3.8792517380455225 #
edge $-1 $444 63.445380845864726 $447 66.838898059736977 $372 $473 forward 7 unknown #
vertex $-1 $386 $474 #
straight-curve $-1 30.236335995636445 15.15706428718573 6.410309057643957 1 0 0 I I #
edge $-1 $447 5.1974825620484157 $383 14.721680888226212 $382 $475 forward 7 unknown #
vertex $-1 $446 $476 #
straight-curve $-1 -13.854236284274293 15.15706428718573 77.343700119318896 -0.64278759981090561 0 0.7660444514056185 I I #
point $-1 45.665944435421174 15.15706428718573 6.410309057643957 #
point $-1 48.513443403424176 24.681262613363526 3.0167918437717134 #
straight-curve $-1 48.513443403424176 0 6.4103090576439641 0 1 0 I I #
vertex $-1 $389 $477 #
point $-1 46.484346367969778 19.919163450274628 3.8792517380455225 #
straight-curve $-1 -48.513443403424176 30.314128574371448 0 0 0 -1 I I #
point $-1 -48.513443403424176 -30.314128574371448 -6.4103090576439641 #
straight-curve $-1 -48.513443403424176 0 -6.4103090576439641 0 1 0 I I #
point $-1 -48.513443403424176 30.314128574371448 -6.4103090576439641 #
straight-curve $-1 48.513443403424176 -24.681262613363522 69.85568990350869 0 0 -1 I I #
point $-1 48.513443403424176 -24.681262613363522 6.4103090576439641 #
straight-curve $-1 48.513443403424176 -9.959581725137312 3.0167918437717205 0 1 0 I I #
point $-1 48.513443403424176 -24.681262613363522 3.0167918437717134 #
point $-1 46.132138355165651 -19.919163450274624 3.9100659509442006 #
straight-curve $-1 48.513443403424176 -11.401820313180441 69.85568990350869 0 0 -1 I I #
point $-1 48.513443403424176 -11.401820313180441 6.4103090576439641 #
straight-curve $-1 48.513443403424176 -3.3198605750457713 3.0167918437717205 0 1 0 I I #
point $-1 48.513443403424176 -11.401820313180441 3.0167918437717134 #
point $-1 46.132138355165651 -6.6397211500915425 3.9100659509442006 #
straight-curve $-1 48.513443403424176 1.8776219870026436 69.85568990350869 0 0 -1 I I #
point $-1 48.513443403424176 1.8776219870026436 6.4103090576439641 #
straight-curve $-1 48.513443403424176 3.3198605750457713 3.0167918437717205 0 1 0 I I #
point $-1 48.513443403424176 1.8776219870026436 3.0167918437717134 #
point $-1 46.132138355165651 6.6397211500915425 3.9100659509442006 #
straight-curve $-1 48.513443403424176 15.15706428718573 69.85568990350869 0 0 -1 I I #
point $-1 48.513443403424176 15.15706428718573 6.4103090576439641 #
straight-curve $-1 48.513443403424176 9.9595817251373138 3.0167918437717205 0 1 0 I I #
point $-1 48.513443403424176 15.15706428718573 3.0167918437717134 #
point $-1 46.132138355165651 19.919163450274628 3.9100659509442006 #
End-of-ACIS-data 