500 0 9 0           
7 Unknown 11 ACIS 5.0 NT 24 Thu Mar 25 17:47:06 1999 
-1 9.9999999999999995e-007 1e-010 
body $-1 $9 $-1 $10 #
body $-1 $11 $-1 $12 #
body $-1 $13 $-1 $14 #
body $-1 $15 $-1 $16 #
body $-1 $17 $-1 $18 #
body $-1 $19 $-1 $20 #
body $-1 $21 $-1 $22 #
body $-1 $23 $-1 $24 #
body $-1 $25 $-1 $26 #
lump $-1 $-1 $27 $0 #
transform $-1 1 0 0 0 1 0 0 0 1 50.285958433790093 32.21726684140269 10.955561869573945 1 rotate no_reflect no_shear #
lump $-1 $-1 $28 $1 #
transform $-1 1 0 0 0 1 0 0 0 1 50.285958433790093 32.21726684140269 10.955561869573945 1 rotate no_reflect no_shear #
lump $-1 $-1 $29 $2 #
transform $-1 1 0 0 0 1 0 0 0 1 50.285958433790093 32.21726684140269 10.955561869573945 1 rotate no_reflect no_shear #
lump $-1 $-1 $30 $3 #
transform $-1 1 0 0 0 1 0 0 0 1 50.285958433790093 32.21726684140269 10.955561869573945 1 rotate no_reflect no_shear #
lump $-1 $-1 $31 $4 #
transform $-1 1 0 0 0 1 0 0 0 1 50.285958433790093 32.21726684140269 10.955561869573945 1 rotate no_reflect no_shear #
lump $-1 $-1 $32 $5 #
transform $-1 1 0 0 0 1 0 0 0 1 50.285958433790093 32.21726684140269 10.955561869573945 1 rotate no_reflect no_shear #
lump $-1 $-1 $33 $6 #
transform $-1 1 0 0 0 1 0 0 0 1 50.285958433790093 32.21726684140269 10.955561869573945 1 rotate no_reflect no_shear #
lump $-1 $-1 $34 $7 #
transform $-1 1 0 0 0 1 0 0 0 1 50.285958433790093 32.21726684140269 10.955561869573945 1 rotate no_reflect no_shear #
lump $-1 $-1 $35 $8 #
transform $-1 1 0 0 0 1 0 0 0 1 50.285958433790093 32.21726684140269 10.955561869573945 1 rotate no_reflect no_shear #
shell $-1 $-1 $-1 $36 $-1 $9 #
shell $-1 $-1 $-1 $37 $-1 $11 #
shell $-1 $-1 $-1 $38 $-1 $13 #
shell $-1 $-1 $-1 $39 $-1 $15 #
shell $-1 $-1 $-1 $40 $-1 $17 #
shell $-1 $-1 $-1 $41 $-1 $19 #
shell $-1 $-1 $-1 $42 $-1 $21 #
shell $-1 $-1 $-1 $43 $-1 $23 #
shell $-1 $-1 $-1 $44 $-1 $25 #
face $-1 $45 $46 $27 $-1 $47 forward single #
face $-1 $48 $49 $28 $-1 $50 reversed single #
face $-1 $51 $52 $29 $-1 $53 reversed single #
face $-1 $54 $55 $30 $-1 $56 forward single #
face $-1 $57 $58 $31 $-1 $59 forward single #
face $-1 $60 $61 $32 $-1 $62 forward single #
face $-1 $63 $64 $33 $-1 $65 reversed single #
face $-1 $66 $67 $34 $-1 $68 forward single #
face $-1 $69 $70 $35 $-1 $71 forward single #
face $-1 $72 $73 $27 $-1 $74 reversed single #
loop $-1 $-1 $75 $36 #
plane-surface $-1 0 0 10.955561869573945 0 0 1 1 0 0 forward_v I I I I #
face $-1 $76 $77 $28 $-1 $78 reversed single #
loop $-1 $-1 $79 $37 #
plane-surface $-1 -32.833491262393792 -27.193178636463379 0 1 0 0 0 0 -1 forward_v I I I I #
face $-1 $80 $81 $29 $-1 $82 reversed single #
loop $-1 $-1 $83 $38 #
plane-surface $-1 -132.66965055196562 0.59841153709716366 63.401729979040397 0 1 0 -0.81915205242281985 0 0.57357642473473569 forward_v I I I I #
face $-1 $84 $85 $30 $-1 $86 forward single #
loop $-1 $87 $88 $39 #
cone-surface $-1 -47.568247696651966 3.2673901714134814 7.7172859357910379 0.81915205242281985 0 -0.57357642473473569 0.57357642473473569 0 0.81915205242281985 1 I I 0 1 1 forward I I I I #
face $-1 $89 $90 $31 $-1 $91 forward single #
loop $-1 $92 $93 $40 #
cone-surface $-1 -47.568247696651966 7.2708581228879581 7.7172859357910379 0.81915205242281985 0 -0.57357642473473569 0.57357642473473569 0 0.81915205242281985 1 I I 0 1 1 forward I I I I #
face $-1 $94 $95 $32 $-1 $96 forward single #
loop $-1 $97 $98 $41 #
cone-surface $-1 -47.568247696651966 11.274326074362435 7.7172859357910379 0.81915205242281985 0 -0.57357642473473569 0.57357642473473569 0 0.81915205242281985 1 I I 0 1 1 forward I I I I #
face $-1 $99 $100 $33 $-1 $101 reversed single #
loop $-1 $-1 $102 $42 #
plane-surface $-1 42.842208079688369 22.192844663420363 147.96009790444589 0 1 0 0.66913061440640931 0 0.74314481823134659 forward_v I I I I #
face $-1 $103 $104 $34 $-1 $105 forward single #
loop $-1 $106 $107 $43 #
cone-surface $-1 46.796327671598952 25.056965285701033 7.6671695581638835 -0.66913061440640931 0 -0.74314481823134659 0.74314481823134659 0 -0.66913061440640931 1 I I 0 1 1 forward I I I I #
face $-1 $108 $109 $35 $-1 $110 forward single #
loop $-1 $111 $112 $44 #
cone-surface $-1 46.796327671598952 29.353146219122031 7.6671695581638835 -0.66913061440640931 0 -0.74314481823134659 0.74314481823134659 0 -0.66913061440640931 1 I I 0 1 1 forward I I I I #
face $-1 $113 $114 $27 $-1 $115 reversed single #
loop $-1 $-1 $116 $45 #
plane-surface $-1 0 0 -10.955561869573945 0 0 1 1 0 0 forward_v I I I I #
coedge $-1 $117 $118 $119 $120 forward $46 $-1 #
face $-1 $121 $122 $28 $-1 $123 reversed single #
loop $-1 $-1 $124 $48 #
plane-surface $-1 -30.604162978517998 -22.169090431524069 0 0 -1 0 0 0 -1 forward_v I I I I #
coedge $-1 $125 $126 $127 $128 forward $49 $-1 #
face $-1 $129 $130 $29 $-1 $131 reversed single #
loop $-1 $-1 $132 $51 #
plane-surface $-1 -50.285958433790086 7.2708581228879652 5.7160494734146852 -0.81915205242281985 0 0.57357642473473569 0.57357642473473569 0 0.81915205242281985 forward_v I I I I #
coedge $-1 $133 $134 $135 $136 reversed $52 $-1 #
face $-1 $-1 $137 $30 $-1 $138 forward single #
loop $-1 $139 $140 $54 #
cone-surface $-1 -46.275333916104358 3.2673901714134814 6.8119779877203861 0.81915205242281985 0 -0.57357642473473569 0.28678821236736785 0 0.40957602621140993 1 I I -0.70710678118654746 0.70710678118654746 0.5 forward I I I I #
loop $-1 $-1 $141 $39 #
coedge $-1 $88 $88 $142 $143 reversed $55 $-1 #
face $-1 $-1 $144 $31 $-1 $145 forward single #
loop $-1 $146 $147 $57 #
cone-surface $-1 -46.275333916104358 7.2708581228879581 6.8119779877203861 0.81915205242281985 0 -0.57357642473473569 0.28678821236736785 0 0.40957602621140993 1 I I -0.70710678118654746 0.70710678118654746 0.5 forward I I I I #
loop $-1 $-1 $148 $40 #
coedge $-1 $93 $93 $149 $150 reversed $58 $-1 #
face $-1 $-1 $151 $32 $-1 $152 forward single #
loop $-1 $153 $154 $60 #
cone-surface $-1 -46.275333916104358 11.274326074362435 6.8119779877203861 0.81915205242281985 0 -0.57357642473473569 0.28678821236736785 0 0.40957602621140993 1 I I -0.70710678118654746 0.70710678118654746 0.5 forward I I I I #
loop $-1 $-1 $155 $41 #
coedge $-1 $98 $98 $156 $157 reversed $61 $-1 #
face $-1 $158 $159 $33 $-1 $160 forward single #
loop $-1 $-1 $161 $63 #
plane-surface $-1 -24.453540445945883 27.205055752411525 73.220599024709898 0.66913061440640931 0 0.74314481823134659 0.74314481823134659 0 -0.66913061440640931 forward_v I I I I #
coedge $-1 $162 $163 $164 $165 reversed $64 $-1 #
face $-1 $-1 $166 $34 $-1 $167 forward single #
loop $-1 $168 $169 $66 #
cone-surface $-1 45.765717044652028 25.056965285701033 6.5225605228872716 -0.66913061440640931 0 -0.74314481823134659 0.3715724091156733 0 -0.33456530720320465 1 I I -0.70710678118654746 0.70710678118654746 0.5 forward I I I I #
loop $-1 $-1 $170 $43 #
coedge $-1 $107 $107 $171 $172 reversed $67 $-1 #
face $-1 $-1 $173 $35 $-1 $174 forward single #
loop $-1 $175 $176 $69 #
cone-surface $-1 45.765717044652028 29.353146219122031 6.5225605228872716 -0.66913061440640931 0 -0.74314481823134659 0.3715724091156733 0 -0.33456530720320465 1 I I -0.70710678118654746 0.70710678118654746 0.5 forward I I I I #
loop $-1 $-1 $177 $44 #
coedge $-1 $112 $112 $178 $179 reversed $70 $-1 #
face $-1 $180 $181 $27 $-1 $182 reversed single #
loop $-1 $-1 $183 $72 #
plane-surface $-1 0 -32.21726684140269 0 0 1 0 0 0 1 forward_v I I I I #
coedge $-1 $184 $185 $186 $187 forward $73 $-1 #
coedge $-1 $188 $75 $189 $190 forward $46 $-1 #
coedge $-1 $75 $188 $191 $192 forward $46 $-1 #
coedge $-1 $193 $194 $75 $120 reversed $195 $-1 #
edge $-1 $196 -32.21726684140269 $197 32.21726684140269 $119 $198 forward 7 unknown #
face $-1 $199 $200 $28 $-1 $201 forward single #
loop $-1 $-1 $202 $76 #
plane-surface $-1 -28.374834694642203 -27.193178636463379 0 -1 0 0 0 0 1 forward_v I I I I #
coedge $-1 $203 $204 $205 $206 forward $77 $-1 #
coedge $-1 $207 $79 $208 $209 reversed $49 $-1 #
coedge $-1 $79 $207 $210 $211 reversed $49 $-1 #
coedge $-1 $204 $203 $79 $128 reversed $77 $-1 #
edge $-1 $212 -10.955561869573945 $213 10.955561869573945 $127 $214 forward 7 unknown #
face $-1 $215 $216 $29 $-1 $217 reversed single #
loop $-1 $-1 $218 $80 #
plane-surface $-1 -132.66965055196562 13.943304708678767 63.401729979040397 0 -1 0 0.81915205242281985 0 -0.57357642473473569 forward_v I I I I #
coedge $-1 $219 $220 $221 $222 reversed $81 $-1 #
coedge $-1 $134 $83 $223 $224 reversed $52 $-1 #
coedge $-1 $83 $133 $219 $225 reversed $52 $-1 #
coedge $-1 $221 $226 $83 $136 forward $227 $-1 #
edge $-1 $228 16.048866842192716 $229 19.717612807796598 $135 $230 forward 7 unknown #
loop $-1 $-1 $142 $84 #
plane-surface $-1 -50.285958433790086 7.2708581228879652 5.7160494734146852 -0.81915205242281985 0 0.57357642473473569 0.57357642473473569 0 0.81915205242281985 forward_v I I I I #
loop $-1 $-1 $231 $54 #
coedge $-1 $140 $140 $141 $232 reversed $85 $-1 #
coedge $-1 $141 $141 $140 $232 forward $87 $-1 #
coedge $-1 $142 $142 $88 $143 forward $137 $-1 #
edge $-1 $233 0 $233 6.2831853071796004 $142 $234 forward 7 unknown #
loop $-1 $-1 $149 $89 #
plane-surface $-1 -50.285958433790086 7.2708581228879652 5.7160494734146852 -0.81915205242281985 0 0.57357642473473569 0.57357642473473569 0 0.81915205242281985 forward_v I I I I #
loop $-1 $-1 $235 $57 #
coedge $-1 $147 $147 $148 $236 reversed $90 $-1 #
coedge $-1 $148 $148 $147 $236 forward $92 $-1 #
coedge $-1 $149 $149 $93 $150 forward $144 $-1 #
edge $-1 $237 0 $237 6.2831853071796004 $149 $238 forward 7 unknown #
loop $-1 $-1 $156 $94 #
plane-surface $-1 -50.285958433790086 7.2708581228879652 5.7160494734146852 -0.81915205242281985 0 0.57357642473473569 0.57357642473473569 0 0.81915205242281985 forward_v I I I I #
loop $-1 $-1 $239 $60 #
coedge $-1 $154 $154 $155 $240 reversed $95 $-1 #
coedge $-1 $155 $155 $154 $240 forward $97 $-1 #
coedge $-1 $156 $156 $98 $157 forward $151 $-1 #
edge $-1 $241 0 $241 6.2831853071796004 $156 $242 forward 7 unknown #
face $-1 $243 $244 $33 $-1 $245 reversed single #
loop $-1 $-1 $246 $99 #
plane-surface $-1 0 0 10.955561869573945 0 0 1 1 0 0 forward_v I I I I #
coedge $-1 $247 $248 $249 $250 reversed $100 $-1 #
coedge $-1 $163 $102 $251 $252 reversed $64 $-1 #
coedge $-1 $102 $162 $247 $253 reversed $64 $-1 #
coedge $-1 $249 $254 $102 $165 forward $255 $-1 #
edge $-1 $256 63.024487082649003 $257 68.055198453147298 $164 $258 forward 7 unknown #
loop $-1 $-1 $171 $103 #
plane-surface $-1 -24.453540445945883 27.205055752411525 73.220599024709898 0.66913061440640931 0 0.74314481823134659 0.74314481823134659 0 -0.66913061440640931 forward_v I I I I #
loop $-1 $-1 $259 $66 #
coedge $-1 $169 $169 $170 $260 reversed $104 $-1 #
coedge $-1 $170 $170 $169 $260 forward $106 $-1 #
coedge $-1 $171 $171 $107 $172 forward $166 $-1 #
edge $-1 $261 0 $261 6.2831853071796004 $171 $262 forward 7 unknown #
loop $-1 $-1 $178 $108 #
plane-surface $-1 -24.453540445945883 27.205055752411525 73.220599024709898 0.66913061440640931 0 0.74314481823134659 0.74314481823134659 0 -0.66913061440640931 forward_v I I I I #
loop $-1 $-1 $263 $69 #
coedge $-1 $176 $176 $177 $264 reversed $109 $-1 #
coedge $-1 $177 $177 $176 $264 forward $111 $-1 #
coedge $-1 $178 $178 $112 $179 forward $173 $-1 #
edge $-1 $265 0 $265 6.2831853071796004 $178 $266 forward 7 unknown #
face $-1 $267 $268 $27 $-1 $269 reversed single #
loop $-1 $-1 $270 $113 #
plane-surface $-1 -50.285958433790093 0 0 1 0 0 0 0 -1 forward_v I I I I #
coedge $-1 $271 $191 $272 $273 forward $114 $-1 #
coedge $-1 $274 $116 $271 $275 forward $73 $-1 #
coedge $-1 $116 $274 $276 $277 forward $73 $-1 #
coedge $-1 $194 $193 $116 $187 reversed $195 $-1 #
edge $-1 $278 -32.21726684140269 $279 32.21726684140269 $186 $280 forward 7 unknown #
coedge $-1 $118 $117 $281 $282 forward $46 $-1 #
coedge $-1 $283 $284 $117 $190 reversed $268 $-1 #
edge $-1 $197 -50.285958433790093 $285 50.285958433790093 $189 $286 forward 7 unknown #
coedge $-1 $183 $287 $118 $192 reversed $114 $-1 #
edge $-1 $288 -50.285958433790093 $196 50.285958433790093 $191 $289 forward 7 unknown #
coedge $-1 $186 $119 $287 $290 forward $195 $-1 #
coedge $-1 $119 $186 $283 $291 reversed $195 $-1 #
loop $-1 $-1 $193 $267 #
vertex $-1 $120 $292 #
vertex $-1 $120 $293 #
straight-curve $-1 50.285958433790093 0 10.955561869573945 0 1 0 I I #
face $-1 $294 $295 $28 $-1 $296 reversed single #
loop $-1 $-1 $297 $121 #
plane-surface $-1 0 0 10.955561869573945 0 0 1 1 0 0 forward_v I I I I #
coedge $-1 $298 $299 $300 $301 reversed $122 $-1 #
coedge $-1 $127 $124 $302 $303 reversed $77 $-1 #
coedge $-1 $124 $127 $304 $305 reversed $77 $-1 #
coedge $-1 $299 $298 $124 $206 reversed $122 $-1 #
edge $-1 $306 -10.955561869573945 $307 10.955561869573945 $205 $308 forward 7 unknown #
coedge $-1 $126 $125 $309 $310 reversed $49 $-1 #
coedge $-1 $302 $311 $125 $209 forward $295 $-1 #
edge $-1 $312 -18.620677523171 $213 -8.572501113292379 $208 $313 forward 7 unknown #
coedge $-1 $314 $304 $126 $211 forward $200 $-1 #
edge $-1 $212 8.572501113292379 $315 18.620677523171 $210 $316 forward 7 unknown #
vertex $-1 $211 $317 #
vertex $-1 $209 $318 #
straight-curve $-1 -32.833491262393792 -22.169090431524069 0 0 0 -1 I I #
face $-1 $-1 $227 $29 $-1 $319 forward single #
loop $-1 $-1 $320 $129 #
plane-surface $-1 -50.285958433790093 0 0 1 0 0 0 0 -1 forward_v I I I I #
coedge $-1 $321 $322 $323 $324 reversed $130 $-1 #
coedge $-1 $325 $132 $134 $225 forward $81 $-1 #
coedge $-1 $132 $325 $321 $326 forward $81 $-1 #
coedge $-1 $323 $135 $132 $222 forward $227 $-1 #
edge $-1 $229 -3.0370175243468189 $327 10.307875647234784 $221 $328 forward 7 unknown #
coedge $-1 $329 $330 $133 $224 forward $216 $-1 #
edge $-1 $331 -25.984815516105524 $228 -20.745303119946254 $223 $332 forward 7 unknown #
edge $-1 $229 -6.3962635272197206 $331 1.207859054955032e-014 $134 $333 forward 7 unknown #
coedge $-1 $135 $323 $329 $334 forward $227 $-1 #
loop $-1 $-1 $323 $215 #
vertex $-1 $224 $335 #
vertex $-1 $136 $336 #
straight-curve $-1 -66.334825275982809 0.59841153709716366 10.955561869573945 1 0 0 I I #
coedge $-1 $231 $231 $-1 $337 reversed $139 $-1 #
edge $-1 $338 0 $338 6.2831853071796004 $140 $339 forward 7 unknown #
vertex $-1 $143 $340 #
ellipse-curve $-1 -48.451585450988148 3.2673901714134814 8.3358056714943132 -0.81915205242281985 0 0.57357642473473569 0.57357642473473569 0 0.81915205242281985 1 I I #
coedge $-1 $235 $235 $-1 $341 reversed $146 $-1 #
edge $-1 $342 0 $342 6.2831853071796004 $147 $343 forward 7 unknown #
vertex $-1 $150 $344 #
ellipse-curve $-1 -48.451585450988148 7.2708581228879581 8.3358056714943132 -0.81915205242281985 0 0.57357642473473569 0.57357642473473569 0 0.81915205242281985 1 I I #
coedge $-1 $239 $239 $-1 $345 reversed $153 $-1 #
edge $-1 $346 0 $346 6.2831853071796004 $154 $347 forward 7 unknown #
vertex $-1 $157 $348 #
ellipse-curve $-1 -48.451585450988148 11.274326074362435 8.3358056714943132 -0.81915205242281985 0 0.57357642473473569 0.57357642473473569 0 0.81915205242281985 1 I I #
face $-1 $-1 $255 $33 $-1 $349 reversed single #
loop $-1 $-1 $350 $158 #
plane-surface $-1 0 32.21726684140269 0 0 -1 0 0 0 -1 forward_v I I I I #
coedge $-1 $251 $351 $352 $353 forward $159 $-1 #
coedge $-1 $352 $161 $163 $253 forward $100 $-1 #
coedge $-1 $161 $352 $350 $354 reversed $100 $-1 #
coedge $-1 $355 $164 $161 $250 forward $255 $-1 #
edge $-1 $257 8.5903167872146007 $356 18.614738965196928 $249 $357 forward 7 unknown #
coedge $-1 $358 $246 $162 $252 forward $159 $-1 #
edge $-1 $359 23.277683509051005 $256 28.864854393945908 $251 $360 forward 7 unknown #
edge $-1 $257 -100.57191686758019 $359 -93.053636785654646 $163 $361 forward 7 unknown #
coedge $-1 $164 $355 $358 $362 reversed $255 $-1 #
loop $-1 $-1 $249 $243 #
vertex $-1 $362 $363 #
vertex $-1 $165 $364 #
straight-curve $-1 50.285958433790093 22.192844663420363 73.980048952222944 0 0 -1 I I #
coedge $-1 $259 $259 $-1 $365 reversed $168 $-1 #
edge $-1 $366 0 $366 6.2831853071796004 $169 $367 forward 7 unknown #
vertex $-1 $172 $368 #
ellipse-curve $-1 47.492372991342648 25.056965285701033 8.4402061843247935 0.66913061440640931 0 0.74314481823134659 0.74314481823134659 0 -0.66913061440640931 1 I I #
coedge $-1 $263 $263 $-1 $369 reversed $175 $-1 #
edge $-1 $370 0 $370 6.2831853071796004 $176 $371 forward 7 unknown #
vertex $-1 $179 $372 #
ellipse-curve $-1 47.492372991342648 29.353146219122031 8.4402061843247935 0.66913061440640931 0 0.74314481823134659 0.74314481823134659 0 -0.66913061440640931 1 I I #
face $-1 $-1 $195 $27 $-1 $373 reversed single #
loop $-1 $-1 $283 $180 #
plane-surface $-1 0 32.21726684140269 0 0 -1 0 0 0 -1 forward_v I I I I #
coedge $-1 $374 $281 $284 $375 forward $181 $-1 #
coedge $-1 $287 $183 $184 $275 reversed $114 $-1 #
coedge $-1 $281 $374 $183 $273 reversed $181 $-1 #
edge $-1 $288 -10.955561869573945 $376 10.955561869573945 $272 $377 forward 7 unknown #
coedge $-1 $185 $184 $374 $378 forward $73 $-1 #
edge $-1 $279 -50.285958433790093 $376 50.285958433790093 $271 $379 forward 7 unknown #
coedge $-1 $284 $283 $185 $277 reversed $268 $-1 #
edge $-1 $380 -50.285958433790093 $278 50.285958433790093 $276 $381 forward 7 unknown #
vertex $-1 $187 $382 #
vertex $-1 $290 $383 #
straight-curve $-1 50.285958433790093 0 -10.955561869573945 0 -1 0 I I #
coedge $-1 $270 $272 $188 $282 reversed $181 $-1 #
edge $-1 $285 -32.21726684140269 $288 32.21726684140269 $281 $384 forward 7 unknown #
coedge $-1 $276 $189 $194 $291 forward $268 $-1 #
coedge $-1 $189 $276 $270 $375 reversed $268 $-1 #
vertex $-1 $190 $385 #
straight-curve $-1 0 32.21726684140269 10.955561869573945 -1 0 0 I I #
coedge $-1 $191 $271 $193 $290 reversed $114 $-1 #
vertex $-1 $282 $386 #
straight-curve $-1 0 -32.21726684140269 10.955561869573945 1 0 0 I I #
edge $-1 $196 -10.955561869573945 $279 10.955561869573945 $193 $387 forward 7 unknown #
edge $-1 $197 -10.955561869573945 $278 10.955561869573945 $194 $388 forward 7 unknown #
point $-1 50.285958433790093 -32.21726684140269 10.955561869573945 #
point $-1 50.285958433790093 32.21726684140269 10.955561869573945 #
face $-1 $-1 $389 $28 $-1 $390 reversed single #
loop $-1 $-1 $391 $199 #
plane-surface $-1 0 0 -10.955561869573945 0 0 1 1 0 0 forward_v I I I I #
coedge $-1 $304 $314 $299 $392 forward $200 $-1 #
coedge $-1 $205 $202 $391 $393 reversed $122 $-1 #
coedge $-1 $202 $205 $297 $392 reversed $122 $-1 #
coedge $-1 $394 $395 $202 $301 forward $389 $-1 #
edge $-1 $396 -10.955561869573945 $397 10.955561869573945 $300 $398 forward 7 unknown #
coedge $-1 $391 $208 $203 $303 forward $295 $-1 #
edge $-1 $213 -17.531409773134794 $307 -13.072753205383204 $302 $399 forward 7 unknown #
coedge $-1 $210 $297 $204 $305 forward $200 $-1 #
edge $-1 $306 13.072753205383204 $212 17.531409773134794 $304 $400 forward 7 unknown #
vertex $-1 $305 $401 #
vertex $-1 $303 $402 #
straight-curve $-1 -28.374834694642203 -22.169090431524069 0 0 0 -1 I I #
coedge $-1 $395 $394 $207 $310 forward $389 $-1 #
edge $-1 $315 -10.955561869573945 $312 10.955561869573945 $309 $403 forward 7 unknown #
coedge $-1 $208 $391 $395 $404 forward $295 $-1 #
vertex $-1 $209 $405 #
straight-curve $-1 -32.833491262393792 -13.59658931823169 -10.955561869573945 0 1 0 I I #
coedge $-1 $297 $210 $394 $406 forward $200 $-1 #
vertex $-1 $406 $407 #
straight-curve $-1 -32.833491262393792 -13.59658931823169 10.955561869573945 0 -1 0 I I #
point $-1 -32.833491262393792 -22.169090431524069 10.955561869573945 #
point $-1 -32.833491262393792 -22.169090431524069 -10.955561869573945 #
plane-surface $-1 0 0 10.955561869573945 0 0 1 1 0 0 forward_v I I I I #
coedge $-1 $330 $329 $322 $408 forward $216 $-1 #
coedge $-1 $322 $218 $220 $326 reversed $130 $-1 #
coedge $-1 $218 $321 $320 $408 reversed $130 $-1 #
coedge $-1 $226 $221 $218 $324 forward $227 $-1 #
edge $-1 $327 -19.717612807796598 $409 -16.048866842192716 $323 $410 forward 7 unknown #
coedge $-1 $220 $219 $330 $411 reversed $81 $-1 #
edge $-1 $412 -1.207859054955032e-014 $327 6.3962635272197206 $321 $413 forward 7 unknown #
vertex $-1 $222 $414 #
straight-curve $-1 -46.617212468186217 3.6354290614439826 10.955561869573945 0 1 0 I I #
coedge $-1 $320 $223 $226 $334 reversed $216 $-1 #
coedge $-1 $223 $320 $325 $411 forward $216 $-1 #
vertex $-1 $224 $415 #
straight-curve $-1 -50.285958433790093 0.59841153709716366 31.700864989520198 0 0 1 I I #
straight-curve $-1 -50.285958433790086 0.59841153709716366 5.7160494734146852 -0.57357642473473569 0 -0.81915205242281985 I I #
edge $-1 $409 -13.943304708678767 $228 -0.59841153709716366 $329 $416 forward 7 unknown #
point $-1 -50.285958433790093 0.59841153709716366 10.955561869573945 #
point $-1 -46.61721246818621 0.59841153709716366 10.955561869573945 #
edge $-1 $417 1 $417 0 $231 $-1 forward 7 unknown #
vertex $-1 $232 $418 #
ellipse-curve $-1 -46.68490994231577 3.2673901714134814 7.0987662000877538 -0.81915205242281985 0 0.57357642473473569 0.57357642473473569 0 0.81915205242281985 1 I I #
point $-1 -47.878009026253423 3.2673901714134814 9.1549577239171427 #
edge $-1 $419 1 $419 0 $235 $-1 forward 7 unknown #
vertex $-1 $236 $420 #
ellipse-curve $-1 -46.68490994231577 7.2708581228879581 7.0987662000877538 -0.81915205242281985 0 0.57357642473473569 0.57357642473473569 0 0.81915205242281985 1 I I #
point $-1 -47.878009026253423 7.2708581228879581 9.1549577239171427 #
edge $-1 $421 1 $421 0 $239 $-1 forward 7 unknown #
vertex $-1 $240 $422 #
ellipse-curve $-1 -46.68490994231577 11.274326074362435 7.0987662000877538 -0.81915205242281985 0 0.57357642473473569 0.57357642473473569 0 0.81915205242281985 1 I I #
point $-1 -47.878009026253423 11.274326074362435 9.1549577239171427 #
plane-surface $-1 50.285958433790093 0 0 -1 0 0 0 0 1 forward_v I I I I #
coedge $-1 $423 $424 $248 $354 forward $244 $-1 #
coedge $-1 $246 $358 $423 $425 forward $159 $-1 #
coedge $-1 $248 $247 $246 $353 reversed $100 $-1 #
edge $-1 $426 -18.614738965196928 $359 -8.5903167872146007 $246 $427 forward 7 unknown #
edge $-1 $356 -66.988583726367779 $426 -59.470303644442254 $350 $428 forward 7 unknown #
coedge $-1 $254 $249 $424 $429 reversed $255 $-1 #
vertex $-1 $250 $430 #
straight-curve $-1 50.285958433790086 13.602527876205762 5.924850499075653 0 1 0 I I #
coedge $-1 $351 $251 $254 $362 forward $159 $-1 #
vertex $-1 $252 $431 #
straight-curve $-1 21.421104039844185 22.192844663420363 10.955561869573941 1 0 0 I I #
straight-curve $-1 -24.453540445945883 22.192844663420363 73.220599024709898 -0.74314481823134659 0 0.66913061440640931 I I #
edge $-1 $256 22.192844663420363 $432 32.21726684140269 $254 $433 forward 7 unknown #
point $-1 50.285958433790093 22.192844663420363 10.955561869573945 #
point $-1 50.285958433790093 22.192844663420363 5.9248504990756459 #
edge $-1 $434 1 $434 0 $259 $-1 forward 7 unknown #
vertex $-1 $260 $435 #
ellipse-curve $-1 46.100282351855235 25.056965285701033 6.894132932002945 0.66913061440640931 0 0.74314481823134659 0.74314481823134659 0 -0.66913061440640931 1 I I #
point $-1 48.23551780957402 25.056965285701033 7.7710755699184118 #
edge $-1 $436 1 $436 0 $263 $-1 forward 7 unknown #
vertex $-1 $264 $437 #
ellipse-curve $-1 46.100282351855235 29.353146219122031 6.894132932002945 0.66913061440640931 0 0.74314481823134659 0.74314481823134659 0 -0.66913061440640931 1 I I #
point $-1 48.23551780957402 29.353146219122031 7.7710755699184118 #
plane-surface $-1 50.285958433790093 0 0 -1 0 0 0 0 1 forward_v I I I I #
coedge $-1 $272 $270 $274 $378 reversed $181 $-1 #
edge $-1 $285 -10.955561869573945 $380 10.955561869573945 $284 $438 forward 7 unknown #
vertex $-1 $378 $439 #
straight-curve $-1 -50.285958433790093 -32.21726684140269 0 0 0 -1 I I #
edge $-1 $376 -32.21726684140269 $380 32.21726684140269 $374 $440 forward 7 unknown #
straight-curve $-1 0 -32.21726684140269 -10.955561869573945 -1 0 0 I I #
vertex $-1 $277 $441 #
straight-curve $-1 0 32.21726684140269 -10.955561869573945 1 0 0 I I #
point $-1 50.285958433790093 32.21726684140269 -10.955561869573945 #
point $-1 50.285958433790093 -32.21726684140269 -10.955561869573945 #
straight-curve $-1 -50.285958433790093 0 10.955561869573945 0 -1 0 I I #
point $-1 -50.285958433790093 32.21726684140269 10.955561869573945 #
point $-1 -50.285958433790093 -32.21726684140269 10.955561869573945 #
straight-curve $-1 50.285958433790093 -32.21726684140269 0 0 0 -1 I I #
straight-curve $-1 50.285958433790093 32.21726684140269 0 0 0 -1 I I #
loop $-1 $-1 $300 $294 #
plane-surface $-1 0 -32.21726684140269 0 0 1 0 0 0 1 forward_v I I I I #
coedge $-1 $311 $302 $298 $393 forward $295 $-1 #
edge $-1 $397 -18.620677523171 $306 -8.572501113292379 $297 $442 forward 7 unknown #
edge $-1 $307 8.572501113292379 $396 18.620677523171 $391 $443 forward 7 unknown #
coedge $-1 $309 $300 $314 $406 reversed $389 $-1 #
coedge $-1 $300 $309 $311 $404 reversed $389 $-1 #
vertex $-1 $404 $444 #
vertex $-1 $301 $445 #
straight-curve $-1 -28.374834694642203 -32.21726684140269 0 0 0 1 I I #
straight-curve $-1 -15.302081489258999 -22.169090431524069 -10.955561869573945 1 0 0 I I #
straight-curve $-1 -15.302081489258999 -22.169090431524069 10.955561869573945 -1 0 0 I I #
point $-1 -28.374834694642203 -22.169090431524069 10.955561869573945 #
point $-1 -28.374834694642203 -22.169090431524069 -10.955561869573945 #
straight-curve $-1 -32.833491262393792 -32.21726684140269 0 0 0 -1 I I #
edge $-1 $396 28.374834694642203 $312 32.833491262393792 $395 $446 forward 7 unknown #
point $-1 -32.833491262393792 -32.21726684140269 -10.955561869573945 #
edge $-1 $315 -32.833491262393792 $397 -28.374834694642203 $394 $447 forward 7 unknown #
point $-1 -32.833491262393792 -32.21726684140269 10.955561869573945 #
edge $-1 $409 20.745303119946254 $412 25.984815516105524 $320 $448 forward 7 unknown #
vertex $-1 $334 $449 #
straight-curve $-1 -66.334825275982809 13.943304708678767 10.955561869573945 -1 0 0 I I #
edge $-1 $412 -10.307875647234784 $331 3.0370175243468189 $330 $450 forward 7 unknown #
vertex $-1 $411 $451 #
straight-curve $-1 -50.285958433790086 13.943304708678767 5.7160494734146852 0.57357642473473569 0 0.81915205242281985 I I #
point $-1 -46.61721246818621 13.943304708678767 10.955561869573945 #
point $-1 -50.285958433790093 0.59841153709716366 5.7160494734146754 #
straight-curve $-1 -50.285958433790093 0 10.955561869573945 0 -1 0 I I #
vertex $-1 $337 $452 #
point $-1 -46.111333517581031 3.2673901714134814 7.9179182525105736 #
vertex $-1 $341 $453 #
point $-1 -46.111333517581031 7.2708581228879581 7.9179182525105736 #
vertex $-1 $345 $454 #
point $-1 -46.111333517581031 11.274326074362435 7.9179182525105736 #
coedge $-1 $424 $350 $351 $425 reversed $244 $-1 #
coedge $-1 $350 $423 $355 $429 forward $244 $-1 #
edge $-1 $432 -50.285958433790093 $426 -44.69878754889519 $423 $455 forward 7 unknown #
vertex $-1 $354 $456 #
straight-curve $-1 44.698787548895197 13.602527876205762 10.955561869573941 0 -1 0 I I #
straight-curve $-1 0.50373955688316485 32.21726684140269 50.748962686115313 -0.74314481823134659 0 0.66913061440640931 I I #
edge $-1 $432 -10.955561869573945 $356 -5.9248504990756476 $355 $457 forward 7 unknown #
point $-1 50.285958433790093 32.21726684140269 5.9248504990756476 #
point $-1 44.69878754889519 22.192844663420363 10.955561869573941 #
vertex $-1 $362 $458 #
straight-curve $-1 50.285958433790093 0 10.955561869573945 0 1 0 I I #
vertex $-1 $365 $459 #
point $-1 46.843427170086578 25.056965285701033 6.2250023175965357 #
vertex $-1 $369 $460 #
point $-1 46.843427170086578 29.353146219122031 6.2250023175965357 #
straight-curve $-1 -50.285958433790093 32.21726684140269 0 0 0 -1 I I #
point $-1 -50.285958433790093 -32.21726684140269 -10.955561869573945 #
straight-curve $-1 -50.285958433790093 0 -10.955561869573945 0 1 0 I I #
point $-1 -50.285958433790093 32.21726684140269 -10.955561869573945 #
straight-curve $-1 -28.374834694642203 -13.59658931823169 10.955561869573945 0 1 0 I I #
straight-curve $-1 -28.374834694642203 -13.59658931823169 -10.955561869573945 0 -1 0 I I #
point $-1 -28.374834694642203 -32.21726684140269 -10.955561869573945 #
point $-1 -28.374834694642203 -32.21726684140269 10.955561869573945 #
straight-curve $-1 0 -32.21726684140269 -10.955561869573945 -1 0 0 I I #
straight-curve $-1 0 -32.21726684140269 10.955561869573945 1 0 0 I I #
straight-curve $-1 -50.285958433790093 13.943304708678767 31.700864989520198 0 0 -1 I I #
point $-1 -50.285958433790093 13.943304708678767 10.955561869573945 #
straight-curve $-1 -50.285958433790093 3.6354290614439826 5.7160494734146727 0 -1 0 I I #
point $-1 -50.285958433790093 13.943304708678767 5.7160494734146754 #
point $-1 -45.865757889892947 3.2673901714134814 6.5251897753530184 #
point $-1 -45.865757889892947 7.2708581228879581 6.5251897753530184 #
point $-1 -45.865757889892947 11.274326074362435 6.5251897753530184 #
straight-curve $-1 0 32.21726684140269 10.955561869573945 -1 0 0 I I #
point $-1 44.69878754889519 32.21726684140269 10.955561869573941 #
straight-curve $-1 50.285958433790093 32.21726684140269 0 0 0 -1 I I #
point $-1 50.285958433790093 32.21726684140269 10.955561869573945 #
point $-1 45.431151737448822 25.056965285701033 6.1509881137715983 #
point $-1 45.431151737448822 29.353146219122031 6.1509881137715983 #
End-of-ACIS-data 