500 0 7 0           
7 Unknown 11 ACIS 5.0 NT 24 Thu Mar 25 15:44:02 1999 
-1 9.9999999999999995e-007 1e-010 
body $-1 $7 $-1 $8 #
body $-1 $9 $-1 $10 #
body $-1 $11 $-1 $12 #
body $-1 $13 $-1 $14 #
body $-1 $15 $-1 $16 #
body $-1 $17 $-1 $18 #
body $-1 $19 $-1 $20 #
lump $-1 $-1 $21 $0 #
transform $-1 1 0 0 0 1 0 0 0 1 50.862147892696925 26.637938169089995 11.728838555087311 1 rotate no_reflect no_shear #
lump $-1 $-1 $22 $1 #
transform $-1 1 0 0 0 1 0 0 0 1 50.862147892696925 26.637938169089995 11.728838555087311 1 rotate no_reflect no_shear #
lump $-1 $-1 $23 $2 #
transform $-1 1 0 0 0 1 0 0 0 1 50.862147892696925 26.637938169089995 11.728838555087311 1 rotate no_reflect no_shear #
lump $-1 $-1 $24 $3 #
transform $-1 1 0 0 0 1 0 0 0 1 50.862147892696925 26.637938169089995 11.728838555087311 1 rotate no_reflect no_shear #
lump $-1 $-1 $25 $4 #
transform $-1 1 0 0 0 1 0 0 0 1 50.862147892696925 26.637938169089995 11.728838555087311 1 rotate no_reflect no_shear #
lump $-1 $-1 $26 $5 #
transform $-1 1 0 0 0 1 0 0 0 1 50.862147892696925 26.637938169089995 11.728838555087311 1 rotate no_reflect no_shear #
lump $-1 $-1 $27 $6 #
transform $-1 1 0 0 0 1 0 0 0 1 50.862147892696925 26.637938169089995 11.728838555087311 1 rotate no_reflect no_shear #
shell $-1 $-1 $-1 $28 $-1 $7 #
shell $-1 $-1 $-1 $29 $-1 $9 #
shell $-1 $-1 $-1 $30 $-1 $11 #
shell $-1 $-1 $-1 $31 $-1 $13 #
shell $-1 $-1 $-1 $32 $-1 $15 #
shell $-1 $-1 $-1 $33 $-1 $17 #
shell $-1 $-1 $-1 $34 $-1 $19 #
face $-1 $35 $36 $21 $-1 $37 forward single #
face $-1 $38 $39 $22 $-1 $40 forward single #
face $-1 $41 $42 $23 $-1 $43 forward single #
face $-1 $44 $45 $24 $-1 $46 reversed single #
face $-1 $47 $48 $25 $-1 $49 forward single #
face $-1 $50 $51 $26 $-1 $52 reversed single #
face $-1 $53 $54 $27 $-1 $55 forward single #
face $-1 $56 $57 $21 $-1 $58 reversed single #
loop $-1 $-1 $59 $28 #
plane-surface $-1 0 0 11.728838555087311 0 0 1 1 0 0 forward_v I I I I #
face $-1 $60 $61 $22 $-1 $62 reversed single #
loop $-1 $-1 $63 $29 #
plane-surface $-1 0 -20.874509965185439 -8.7288385550873109 0 0 1 1 0 0 forward_v I I I I #
face $-1 $64 $65 $23 $-1 $66 reversed single #
loop $-1 $-1 $67 $30 #
plane-surface $-1 0 20.874509965185435 -8.7288385550873109 0 0 1 1 0 0 forward_v I I I I #
face $-1 $68 $69 $24 $-1 $70 reversed single #
loop $-1 $-1 $71 $31 #
plane-surface $-1 -107.74565294574515 12.052400757995002 86.560825479856206 0 -1 0 0.55919291073839883 0 -0.82903756765294845 forward_v I I I I #
face $-1 $72 $73 $25 $-1 $74 forward single #
loop $-1 $75 $76 $32 #
cone-surface $-1 -43.314937227258724 7.6007799140053613 6.2308409990107263 0.55919291073839883 0 -0.82903756765294845 1.2435563514794228 0 0.83878936610759824 1 I I 0 1 1.5 forward I I I I #
face $-1 $77 $78 $26 $-1 $79 reversed single #
loop $-1 $-1 $80 $33 #
plane-surface $-1 23.412390196613146 -5.6105923773820496 143.19365646813384 0 -1 0 -0.55919291073839883 0 -0.82903756765294845 forward_v I I I I #
face $-1 $81 $82 $27 $-1 $83 forward single #
loop $-1 $84 $85 $34 #
cone-surface $-1 42.929717134461889 -8.7568728570026799 5.8098808641183854 -0.55919291073839883 0 -0.82903756765294845 1.2435563514794228 0 -0.83878936610759824 1 I I 0 1 1.5 forward I I I I #
face $-1 $86 $87 $21 $-1 $88 reversed single #
loop $-1 $-1 $89 $35 #
plane-surface $-1 0 0 -11.728838555087311 0 0 1 1 0 0 forward_v I I I I #
coedge $-1 $90 $91 $92 $93 forward $36 $-1 #
face $-1 $94 $95 $22 $-1 $96 reversed single #
loop $-1 $-1 $97 $38 #
plane-surface $-1 0 -15.111081761280882 -10.228838555087311 0 -1 0 0 0 -1 forward_v I I I I #
coedge $-1 $98 $99 $100 $101 reversed $39 $-1 #
face $-1 $102 $103 $23 $-1 $104 reversed single #
loop $-1 $-1 $105 $41 #
plane-surface $-1 0 15.111081761280879 -10.228838555087311 0 1 0 0 0 1 forward_v I I I I #
coedge $-1 $106 $107 $108 $109 reversed $42 $-1 #
face $-1 $110 $111 $24 $-1 $112 reversed single #
loop $-1 $-1 $113 $44 #
plane-surface $-1 -50.862147892696925 7.6007799140053685 2.2275627307242161 -0.55919291073839883 0 0.82903756765294845 0.82903756765294845 0 0.55919291073839883 forward_v I I I I #
coedge $-1 $114 $115 $116 $117 reversed $45 $-1 #
face $-1 $-1 $118 $25 $-1 $119 forward single #
loop $-1 $120 $121 $47 #
cone-surface $-1 -42.391442089721025 7.6007799140053613 4.8617031793759828 0.55919291073839883 0 -0.82903756765294845 0.62177817573971139 0 0.41939468305379912 1 I I -0.70710678118654757 0.70710678118654757 0.75 forward I I I I #
loop $-1 $-1 $122 $32 #
coedge $-1 $76 $76 $123 $124 reversed $48 $-1 #
face $-1 $125 $126 $26 $-1 $127 reversed single #
loop $-1 $-1 $128 $50 #
plane-surface $-1 -33.471114856435079 -8.7568728570026799 58.860393719001848 0.55919291073839883 0 0.82903756765294845 0.82903756765294845 0 -0.55919291073839883 forward_v I I I I #
coedge $-1 $129 $130 $131 $132 reversed $51 $-1 #
face $-1 $-1 $133 $27 $-1 $134 forward single #
loop $-1 $135 $136 $53 #
cone-surface $-1 41.806821692737202 -8.7568728570026799 4.1451199419765778 -0.55919291073839883 0 -0.82903756765294845 0.62177817573971139 0 -0.41939468305379912 1 I I -0.70710678118654757 0.70710678118654757 0.75 forward I I I I #
loop $-1 $-1 $137 $34 #
coedge $-1 $85 $85 $138 $139 reversed $54 $-1 #
face $-1 $140 $141 $21 $-1 $142 reversed single #
loop $-1 $-1 $143 $56 #
plane-surface $-1 0 -26.637938169089995 0 0 1 0 0 0 1 forward_v I I I I #
coedge $-1 $144 $145 $146 $147 forward $57 $-1 #
coedge $-1 $148 $59 $149 $150 forward $36 $-1 #
coedge $-1 $59 $148 $151 $152 forward $36 $-1 #
coedge $-1 $153 $154 $59 $93 reversed $155 $-1 #
edge $-1 $156 -26.637938169089995 $157 26.637938169089995 $92 $158 forward 7 unknown #
face $-1 $159 $160 $22 $-1 $161 reversed single #
loop $-1 $-1 $162 $60 #
plane-surface $-1 0 0 -11.728838555087311 0 0 1 1 0 0 forward_v I I I I #
coedge $-1 $163 $164 $165 $166 reversed $61 $-1 #
coedge $-1 $167 $63 $164 $168 forward $39 $-1 #
coedge $-1 $63 $167 $169 $170 reversed $39 $-1 #
coedge $-1 $171 $165 $63 $101 forward $160 $-1 #
edge $-1 $172 4.6738267786881629 $173 16.200683186497276 $100 $174 forward 7 unknown #
face $-1 $175 $176 $23 $-1 $177 reversed single #
loop $-1 $-1 $108 $64 #
plane-surface $-1 50.862147892696925 0 0 -1 0 0 0 0 1 forward_v I I I I #
coedge $-1 $178 $179 $180 $181 reversed $65 $-1 #
coedge $-1 $182 $67 $183 $184 reversed $42 $-1 #
coedge $-1 $67 $182 $179 $185 forward $42 $-1 #
coedge $-1 $186 $187 $67 $109 forward $103 $-1 #
edge $-1 $188 -16.200683186497272 $189 -4.6738267786881611 $108 $190 forward 7 unknown #
face $-1 $191 $192 $24 $-1 $193 reversed single #
loop $-1 $-1 $194 $68 #
plane-surface $-1 -107.74565294574515 3.1491590700157346 86.560825479856206 0 1 0 -0.55919291073839883 0 0.82903756765294845 forward_v I I I I #
coedge $-1 $195 $196 $197 $198 reversed $69 $-1 #
coedge $-1 $115 $71 $199 $200 reversed $45 $-1 #
coedge $-1 $71 $114 $195 $201 reversed $45 $-1 #
coedge $-1 $197 $202 $71 $117 forward $192 $-1 #
edge $-1 $203 31.551574184840792 $204 41.052850009203887 $116 $205 forward 7 unknown #
loop $-1 $-1 $123 $72 #
plane-surface $-1 -50.862147892696925 7.6007799140053685 2.2275627307242161 -0.55919291073839883 0 0.82903756765294845 0.82903756765294845 0 0.55919291073839883 forward_v I I I I #
loop $-1 $-1 $206 $47 #
coedge $-1 $121 $121 $122 $207 reversed $73 $-1 #
coedge $-1 $122 $122 $121 $207 forward $75 $-1 #
coedge $-1 $123 $123 $76 $124 forward $118 $-1 #
edge $-1 $208 0 $208 6.2831853071796004 $123 $209 forward 7 unknown #
face $-1 $210 $211 $26 $-1 $212 forward single #
loop $-1 $-1 $213 $77 #
plane-surface $-1 23.412390196613146 -11.90315333662331 143.19365646813384 0 1 0 0.55919291073839883 0 0.82903756765294845 forward_v I I I I #
coedge $-1 $214 $215 $216 $217 reversed $78 $-1 #
coedge $-1 $130 $80 $218 $219 reversed $51 $-1 #
coedge $-1 $80 $129 $214 $220 reversed $51 $-1 #
coedge $-1 $216 $221 $80 $132 forward $211 $-1 #
edge $-1 $222 -39.155952794390352 $223 -24.698092795262021 $131 $224 forward 7 unknown #
loop $-1 $-1 $138 $81 #
plane-surface $-1 -33.471114856435079 -8.7568728570026799 58.860393719001848 0.55919291073839883 0 0.82903756765294845 0.82903756765294845 0 -0.55919291073839883 forward_v I I I I #
loop $-1 $-1 $225 $53 #
coedge $-1 $136 $136 $137 $226 reversed $82 $-1 #
coedge $-1 $137 $137 $136 $226 forward $84 $-1 #
coedge $-1 $138 $138 $85 $139 forward $133 $-1 #
edge $-1 $227 0 $227 6.2831853071796004 $138 $228 forward 7 unknown #
face $-1 $229 $230 $21 $-1 $231 reversed single #
loop $-1 $-1 $232 $86 #
plane-surface $-1 -50.862147892696925 0 0 1 0 0 0 0 -1 forward_v I I I I #
coedge $-1 $233 $151 $234 $235 forward $87 $-1 #
coedge $-1 $236 $89 $233 $237 forward $57 $-1 #
coedge $-1 $89 $236 $238 $239 forward $57 $-1 #
coedge $-1 $154 $153 $89 $147 reversed $155 $-1 #
edge $-1 $240 -26.637938169089995 $241 26.637938169089995 $146 $242 forward 7 unknown #
coedge $-1 $91 $90 $243 $244 forward $36 $-1 #
coedge $-1 $245 $246 $90 $150 reversed $230 $-1 #
edge $-1 $157 -50.862147892696925 $247 50.862147892696925 $149 $248 forward 7 unknown #
coedge $-1 $143 $249 $91 $152 reversed $87 $-1 #
edge $-1 $250 -50.862147892696925 $156 50.862147892696925 $151 $251 forward 7 unknown #
coedge $-1 $146 $92 $249 $252 forward $155 $-1 #
coedge $-1 $92 $146 $245 $253 reversed $155 $-1 #
loop $-1 $-1 $153 $229 #
vertex $-1 $93 $254 #
vertex $-1 $93 $255 #
straight-curve $-1 50.862147892696925 0 11.728838555087311 0 1 0 I I #
face $-1 $256 $257 $22 $-1 $258 reversed single #
loop $-1 $-1 $165 $94 #
plane-surface $-1 50.862147892696925 0 0 -1 0 0 0 0 1 forward_v I I I I #
coedge $-1 $259 $260 $163 $261 forward $95 $-1 #
coedge $-1 $262 $97 $162 $261 reversed $61 $-1 #
coedge $-1 $97 $262 $98 $168 reversed $61 $-1 #
coedge $-1 $100 $263 $97 $166 forward $160 $-1 #
edge $-1 $264 -6.6144192775436554 $172 -3.6144192775436554 $165 $265 forward 7 unknown #
coedge $-1 $99 $98 $266 $267 reversed $39 $-1 #
edge $-1 $172 -50.862147892696925 $268 50.862147892696925 $164 $269 forward 7 unknown #
coedge $-1 $270 $271 $99 $170 forward $257 $-1 #
edge $-1 $173 -50.862147892696925 $272 50.862147892696925 $169 $273 forward 7 unknown #
coedge $-1 $263 $100 $271 $274 forward $160 $-1 #
vertex $-1 $101 $275 #
vertex $-1 $274 $276 #
straight-curve $-1 50.862147892696925 -10.437254982592719 -8.7288385550873109 0 -1 0 I I #
face $-1 $277 $278 $23 $-1 $279 reversed single #
loop $-1 $-1 $280 $102 #
plane-surface $-1 0 0 -11.728838555087311 0 0 1 1 0 0 forward_v I I I I #
coedge $-1 $281 $105 $280 $282 reversed $65 $-1 #
coedge $-1 $105 $281 $107 $185 reversed $65 $-1 #
coedge $-1 $283 $284 $105 $181 forward $278 $-1 #
edge $-1 $285 -6.6144192775436554 $286 -3.6144192775436554 $180 $287 forward 7 unknown #
coedge $-1 $107 $106 $283 $288 reversed $42 $-1 #
coedge $-1 $289 $290 $106 $184 forward $291 $-1 #
edge $-1 $292 -50.862147892696925 $188 50.862147892696925 $183 $293 forward 7 unknown #
edge $-1 $286 -50.862147892696925 $189 50.862147892696925 $179 $294 forward 7 unknown #
coedge $-1 $295 $108 $281 $296 forward $103 $-1 #
coedge $-1 $108 $295 $289 $297 reversed $103 $-1 #
vertex $-1 $297 $298 #
vertex $-1 $109 $299 #
straight-curve $-1 50.862147892696925 10.437254982592718 -8.7288385550873109 0 -1 0 I I #
face $-1 $-1 $300 $24 $-1 $301 forward single #
loop $-1 $-1 $116 $110 #
plane-surface $-1 -50.862147892696925 0 0 1 0 0 0 0 -1 forward_v I I I I #
coedge $-1 $302 $303 $304 $305 reversed $111 $-1 #
coedge $-1 $306 $113 $115 $201 forward $69 $-1 #
coedge $-1 $113 $306 $302 $307 forward $69 $-1 #
coedge $-1 $304 $116 $113 $198 forward $192 $-1 #
edge $-1 $204 -8.2520108009923181 $308 0.65123088698694964 $197 $309 forward 7 unknown #
coedge $-1 $310 $311 $114 $200 forward $300 $-1 #
edge $-1 $312 -17.096899002084243 $203 -3.0106785801756502 $199 $313 forward 7 unknown #
edge $-1 $204 0 $312 16.991051999956369 $115 $314 forward 7 unknown #
coedge $-1 $116 $304 $310 $315 reversed $192 $-1 #
vertex $-1 $315 $316 #
vertex $-1 $117 $317 #
straight-curve $-1 -50.862147892696925 12.052400757995002 43.280412739928103 0 0 -1 I I #
coedge $-1 $206 $206 $-1 $318 reversed $120 $-1 #
edge $-1 $319 0 $319 6.2831853071796004 $121 $320 forward 7 unknown #
vertex $-1 $124 $321 #
ellipse-curve $-1 -43.819037681742628 7.6007799140053613 6.9782006429057644 -0.55919291073839883 0 0.82903756765294845 1.2435563514794228 0 0.83878936610759824 1 I I #
face $-1 $-1 $322 $26 $-1 $323 reversed single #
loop $-1 $-1 $131 $125 #
plane-surface $-1 0 0 11.728838555087311 0 0 1 1 0 0 forward_v I I I I #
coedge $-1 $324 $325 $326 $327 reversed $126 $-1 #
coedge $-1 $328 $128 $130 $220 forward $78 $-1 #
coedge $-1 $128 $328 $324 $329 forward $78 $-1 #
coedge $-1 $326 $131 $128 $217 forward $211 $-1 #
edge $-1 $223 1.2321559488807097 $330 7.5247169081219702 $216 $331 forward 7 unknown #
coedge $-1 $332 $333 $129 $219 forward $322 $-1 #
edge $-1 $334 -69.619939568113296 $222 -59.867989678979612 $218 $335 forward 7 unknown #
edge $-1 $223 84.284965454369981 $334 101.72429578539386 $130 $336 forward 7 unknown #
coedge $-1 $131 $326 $332 $337 forward $211 $-1 #
vertex $-1 $132 $338 #
vertex $-1 $132 $339 #
straight-curve $-1 11.706195098306573 -5.6105923773820496 11.728838555087307 -1 0 0 I I #
coedge $-1 $225 $225 $-1 $340 reversed $135 $-1 #
edge $-1 $341 0 $341 6.2831853071796004 $136 $342 forward 7 unknown #
vertex $-1 $139 $343 #
ellipse-curve $-1 43.633217893132766 -8.7568728570026799 6.8528636105204637 0.55919291073839883 0 0.82903756765294845 1.2435563514794228 0 -0.83878936610759824 1 I I #
face $-1 $-1 $155 $21 $-1 $344 reversed single #
loop $-1 $-1 $245 $140 #
plane-surface $-1 0 26.637938169089995 0 0 -1 0 0 0 -1 forward_v I I I I #
coedge $-1 $345 $243 $246 $346 forward $141 $-1 #
coedge $-1 $249 $143 $144 $237 reversed $87 $-1 #
coedge $-1 $243 $345 $143 $235 reversed $141 $-1 #
edge $-1 $250 -11.728838555087311 $347 11.728838555087311 $234 $348 forward 7 unknown #
coedge $-1 $145 $144 $345 $349 forward $57 $-1 #
edge $-1 $241 -50.862147892696925 $347 50.862147892696925 $233 $350 forward 7 unknown #
coedge $-1 $246 $245 $145 $239 reversed $230 $-1 #
edge $-1 $351 -50.862147892696925 $240 50.862147892696925 $238 $352 forward 7 unknown #
vertex $-1 $147 $353 #
vertex $-1 $252 $354 #
straight-curve $-1 50.862147892696925 0 -11.728838555087311 0 -1 0 I I #
coedge $-1 $232 $234 $148 $244 reversed $141 $-1 #
edge $-1 $247 -26.637938169089995 $250 26.637938169089995 $243 $355 forward 7 unknown #
coedge $-1 $238 $149 $154 $253 forward $230 $-1 #
coedge $-1 $149 $238 $232 $346 reversed $230 $-1 #
vertex $-1 $150 $356 #
straight-curve $-1 0 26.637938169089995 11.728838555087311 -1 0 0 I I #
coedge $-1 $151 $233 $153 $252 reversed $87 $-1 #
vertex $-1 $244 $357 #
straight-curve $-1 0 -26.637938169089995 11.728838555087311 1 0 0 I I #
edge $-1 $156 -11.728838555087311 $241 11.728838555087311 $153 $358 forward 7 unknown #
edge $-1 $157 -11.728838555087311 $240 11.728838555087311 $154 $359 forward 7 unknown #
point $-1 50.862147892696925 -26.637938169089995 11.728838555087311 #
point $-1 50.862147892696925 26.637938169089995 11.728838555087311 #
face $-1 $-1 $360 $22 $-1 $361 reversed single #
loop $-1 $-1 $169 $159 #
plane-surface $-1 0 -26.637938169089995 0 0 1 0 0 0 1 forward_v I I I I #
coedge $-1 $362 $162 $263 $363 forward $95 $-1 #
coedge $-1 $162 $362 $364 $365 forward $95 $-1 #
edge $-1 $366 -50.862147892696925 $264 50.862147892696925 $162 $367 forward 7 unknown #
coedge $-1 $164 $163 $368 $369 reversed $61 $-1 #
coedge $-1 $165 $171 $259 $363 reversed $160 $-1 #
vertex $-1 $363 $370 #
straight-curve $-1 50.862147892696925 -15.111081761280882 -5.1144192775436554 0 0 1 I I #
coedge $-1 $368 $371 $167 $267 forward $360 $-1 #
edge $-1 $272 -16.200683186497276 $268 -4.6738267786881629 $266 $372 forward 7 unknown #
vertex $-1 $267 $373 #
straight-curve $-1 0 -15.111081761280882 -8.7288385550873109 -1 0 0 I I #
coedge $-1 $374 $169 $371 $375 forward $257 $-1 #
coedge $-1 $169 $374 $171 $274 reversed $257 $-1 #
vertex $-1 $375 $376 #
straight-curve $-1 0 -26.637938169089995 -8.7288385550873109 -1 0 0 I I #
edge $-1 $173 8.7288385550873109 $377 11.728838555087311 $171 $378 forward 7 unknown #
point $-1 50.862147892696925 -15.111081761280882 -8.7288385550873109 #
point $-1 50.862147892696925 -26.637938169089995 -8.7288385550873109 #
face $-1 $-1 $291 $23 $-1 $379 reversed single #
loop $-1 $-1 $283 $175 #
plane-surface $-1 -50.862147892696925 0 0 1 0 0 0 0 -1 forward_v I I I I #
coedge $-1 $380 $381 $178 $282 forward $176 $-1 #
coedge $-1 $179 $178 $186 $296 reversed $65 $-1 #
edge $-1 $382 -50.862147892696925 $285 50.862147892696925 $280 $383 forward 7 unknown #
coedge $-1 $384 $180 $182 $288 forward $278 $-1 #
coedge $-1 $180 $384 $380 $385 reversed $278 $-1 #
vertex $-1 $385 $386 #
vertex $-1 $288 $387 #
straight-curve $-1 -50.862147892696925 15.111081761280879 -5.1144192775436554 0 0 1 I I #
edge $-1 $286 4.6738267786881611 $292 16.200683186497272 $283 $388 forward 7 unknown #
coedge $-1 $389 $183 $187 $297 forward $291 $-1 #
coedge $-1 $183 $389 $384 $390 reversed $291 $-1 #
loop $-1 $-1 $183 $277 #
vertex $-1 $390 $391 #
straight-curve $-1 0 26.637938169089995 -8.7288385550873109 1 0 0 I I #
straight-curve $-1 0 15.111081761280879 -8.7288385550873109 1 0 0 I I #
coedge $-1 $187 $186 $381 $392 reversed $103 $-1 #
edge $-1 $189 3.6144192775436554 $382 6.6144192775436554 $186 $393 forward 7 unknown #
edge $-1 $188 8.7288385550873109 $394 11.728838555087311 $187 $395 forward 7 unknown #
point $-1 50.862147892696925 26.637938169089992 -8.7288385550873109 #
point $-1 50.862147892696925 15.111081761280879 -8.7288385550873109 #
loop $-1 $-1 $199 $191 #
plane-surface $-1 0 0 11.728838555087311 0 0 1 1 0 0 forward_v I I I I #
coedge $-1 $303 $194 $196 $307 reversed $111 $-1 #
coedge $-1 $194 $302 $396 $397 reversed $111 $-1 #
coedge $-1 $202 $197 $194 $305 forward $192 $-1 #
edge $-1 $308 -41.052850009203887 $398 -31.551574184840792 $304 $399 forward 7 unknown #
coedge $-1 $196 $195 $311 $400 reversed $69 $-1 #
edge $-1 $401 -16.991051999956369 $308 0 $302 $402 forward 7 unknown #
vertex $-1 $198 $403 #
straight-curve $-1 -50.862147892696925 3.8003899570026842 2.2275627307242143 0 -1 0 I I #
coedge $-1 $396 $199 $202 $315 forward $300 $-1 #
coedge $-1 $199 $396 $306 $400 forward $300 $-1 #
vertex $-1 $200 $404 #
straight-curve $-1 -53.872826472872575 12.052400757995002 11.728838555087307 -1 0 0 I I #
straight-curve $-1 -50.862147892696925 12.052400757995002 2.2275627307242161 0.82903756765294845 0 0.55919291073839883 I I #
edge $-1 $203 -12.052400757995002 $398 -3.1491590700157346 $202 $405 forward 7 unknown #
point $-1 -50.862147892696925 12.052400757995002 11.728838555087311 #
point $-1 -50.862147892696925 12.052400757995002 2.2275627307242161 #
edge $-1 $406 1 $406 0 $206 $-1 forward 7 unknown #
vertex $-1 $207 $407 #
ellipse-curve $-1 -42.810836772774827 7.6007799140053613 5.4834813551156945 -0.55919291073839883 0 0.82903756765294845 1.2435563514794228 0 0.83878936610759824 1 I I #
point $-1 -42.575481330263194 7.6007799140053613 7.8169900090133568 #
loop $-1 $-1 $218 $210 #
plane-surface $-1 50.862147892696925 0 0 -1 0 0 0 0 1 forward_v I I I I #
coedge $-1 $325 $213 $215 $329 reversed $126 $-1 #
coedge $-1 $213 $324 $408 $409 reversed $126 $-1 #
coedge $-1 $221 $216 $213 $327 forward $211 $-1 #
edge $-1 $330 24.698092795262021 $410 39.155952794390352 $326 $411 forward 7 unknown #
coedge $-1 $215 $214 $333 $412 reversed $78 $-1 #
edge $-1 $413 -101.72429578539386 $330 -84.284965454369981 $324 $414 forward 7 unknown #
vertex $-1 $217 $415 #
straight-curve $-1 36.404287893568593 -4.37843642850134 11.7288385550873 0 -1 0 I I #
coedge $-1 $408 $218 $221 $337 reversed $322 $-1 #
coedge $-1 $218 $408 $328 $412 forward $322 $-1 #
vertex $-1 $219 $416 #
straight-curve $-1 50.862147892696925 -5.6105923773820496 71.596828234066919 0 0 1 I I #
straight-curve $-1 -33.471114856435079 -5.6105923773820496 58.860393719001848 0.82903756765294845 0 -0.55919291073839883 I I #
edge $-1 $410 -11.90315333662331 $222 -5.6105923773820496 $332 $417 forward 7 unknown #
point $-1 50.862147892696925 -5.6105923773820496 11.728838555087311 #
point $-1 36.404287893568593 -5.6105923773820496 11.728838555087307 #
edge $-1 $418 1 $418 0 $225 $-1 forward 7 unknown #
vertex $-1 $226 $419 #
ellipse-curve $-1 42.226216375791005 -8.7568728570026799 4.7668981177162895 0.55919291073839883 0 0.82903756765294845 1.2435563514794228 0 -0.83878936610759824 1 I I #
point $-1 44.8767742446122 -8.7568728570026799 6.0140742444128836 #
plane-surface $-1 50.862147892696925 0 0 -1 0 0 0 0 1 forward_v I I I I #
coedge $-1 $234 $232 $236 $349 reversed $141 $-1 #
edge $-1 $247 -11.728838555087311 $351 11.728838555087311 $246 $420 forward 7 unknown #
vertex $-1 $349 $421 #
straight-curve $-1 -50.862147892696925 -26.637938169089995 0 0 0 -1 I I #
edge $-1 $347 -26.637938169089995 $351 26.637938169089995 $345 $422 forward 7 unknown #
straight-curve $-1 0 -26.637938169089995 -11.728838555087311 -1 0 0 I I #
vertex $-1 $239 $423 #
straight-curve $-1 0 26.637938169089995 -11.728838555087311 1 0 0 I I #
point $-1 50.862147892696925 26.637938169089995 -11.728838555087311 #
point $-1 50.862147892696925 -26.637938169089995 -11.728838555087311 #
straight-curve $-1 -50.862147892696925 0 11.728838555087311 0 -1 0 I I #
point $-1 -50.862147892696925 26.637938169089995 11.728838555087311 #
point $-1 -50.862147892696925 -26.637938169089995 11.728838555087311 #
straight-curve $-1 50.862147892696925 -26.637938169089995 0 0 0 -1 I I #
straight-curve $-1 50.862147892696925 26.637938169089995 0 0 0 -1 I I #
loop $-1 $-1 $368 $256 #
plane-surface $-1 -50.862147892696925 0 0 1 0 0 0 0 -1 forward_v I I I I #
coedge $-1 $260 $259 $374 $424 forward $95 $-1 #
edge $-1 $264 15.111081761280882 $377 26.637938169089995 $263 $425 forward 7 unknown #
coedge $-1 $371 $368 $260 $365 reversed $360 $-1 #
edge $-1 $426 -26.637938169089995 $366 -15.111081761280882 $364 $427 forward 7 unknown #
vertex $-1 $369 $428 #
straight-curve $-1 0 -15.111081761280882 -11.728838555087311 1 0 0 I I #
coedge $-1 $364 $266 $262 $369 forward $360 $-1 #
edge $-1 $268 3.6144192775436554 $366 6.6144192775436554 $368 $429 forward 7 unknown #
point $-1 50.862147892696925 -15.111081761280882 -11.728838555087311 #
coedge $-1 $266 $364 $270 $375 reversed $360 $-1 #
straight-curve $-1 -50.862147892696925 -10.437254982592719 -8.7288385550873109 0 1 0 I I #
point $-1 -50.862147892696925 -15.111081761280882 -8.7288385550873109 #
coedge $-1 $271 $270 $362 $424 reversed $257 $-1 #
edge $-1 $272 8.7288385550873109 $426 11.728838555087311 $371 $430 forward 7 unknown #
point $-1 -50.862147892696925 -26.637938169089995 -8.7288385550873109 #
vertex $-1 $274 $431 #
straight-curve $-1 50.862147892696925 -26.637938169089995 0 0 0 -1 I I #
plane-surface $-1 0 26.637938169089995 0 0 -1 0 0 0 -1 forward_v I I I I #
coedge $-1 $432 $280 $284 $385 forward $176 $-1 #
coedge $-1 $280 $432 $295 $392 forward $176 $-1 #
vertex $-1 $282 $433 #
straight-curve $-1 0 15.111081761280879 -11.728838555087311 -1 0 0 I I #
coedge $-1 $284 $283 $290 $390 forward $278 $-1 #
edge $-1 $285 15.111081761280879 $434 26.637938169089995 $284 $435 forward 7 unknown #
point $-1 -50.862147892696925 15.111081761280879 -11.728838555087311 #
point $-1 -50.862147892696925 15.111081761280879 -8.7288385550873109 #
straight-curve $-1 -50.862147892696925 10.437254982592718 -8.7288385550873109 0 1 0 I I #
coedge $-1 $290 $289 $432 $436 reversed $291 $-1 #
edge $-1 $292 8.7288385550873109 $434 11.728838555087311 $290 $437 forward 7 unknown #
point $-1 -50.862147892696925 26.637938169089992 -8.7288385550873109 #
edge $-1 $394 -26.637938169089995 $382 -15.111081761280879 $295 $438 forward 7 unknown #
straight-curve $-1 50.862147892696925 15.111081761280879 -5.1144192775436554 0 0 -1 I I #
vertex $-1 $392 $439 #
straight-curve $-1 50.862147892696925 26.637938169089995 0 0 0 -1 I I #
coedge $-1 $311 $310 $303 $397 forward $300 $-1 #
edge $-1 $398 3.0106785801756502 $401 17.096899002084243 $396 $440 forward 7 unknown #
vertex $-1 $397 $441 #
straight-curve $-1 -50.862147892696925 3.1491590700157346 43.280412739928103 0 0 1 I I #
edge $-1 $401 -0.65123088698694964 $312 8.2520108009923181 $311 $442 forward 7 unknown #
vertex $-1 $400 $443 #
straight-curve $-1 -50.862147892696925 3.1491590700157346 2.2275627307242161 -0.82903756765294845 0 -0.55919291073839883 I I #
point $-1 -50.862147892696925 3.1491590700157346 2.2275627307242161 #
point $-1 -36.775927470788332 12.052400757995002 11.728838555087311 #
straight-curve $-1 -50.862147892696925 0 11.728838555087311 0 -1 0 I I #
vertex $-1 $318 $444 #
point $-1 -41.567280421295401 7.6007799140053613 6.3222707212232923 #
coedge $-1 $333 $332 $325 $409 forward $322 $-1 #
edge $-1 $410 59.867989678979612 $413 69.619939568113296 $408 $445 forward 7 unknown #
vertex $-1 $337 $446 #
straight-curve $-1 11.706195098306573 -11.90315333662331 11.728838555087307 1 0 0 I I #
edge $-1 $413 -7.5247169081219702 $334 -1.2321559488807097 $333 $447 forward 7 unknown #
vertex $-1 $412 $448 #
straight-curve $-1 -33.471114856435079 -11.90315333662331 58.860393719001848 -0.82903756765294845 0 0.55919291073839883 I I #
point $-1 36.404287893568593 -11.90315333662331 11.728838555087307 #
point $-1 50.862147892696925 -5.6105923773820496 1.9768886659536165 #
straight-curve $-1 50.862147892696925 0 11.728838555087311 0 1 0 I I #
vertex $-1 $340 $449 #
point $-1 43.469772727270424 -8.7568728570026799 3.9281087516086908 #
straight-curve $-1 -50.862147892696925 26.637938169089995 0 0 0 -1 I I #
point $-1 -50.862147892696925 -26.637938169089995 -11.728838555087311 #
straight-curve $-1 -50.862147892696925 0 -11.728838555087311 0 1 0 I I #
point $-1 -50.862147892696925 26.637938169089995 -11.728838555087311 #
edge $-1 $377 -50.862147892696925 $426 50.862147892696925 $374 $450 forward 7 unknown #
straight-curve $-1 50.862147892696925 0 -11.728838555087311 0 -1 0 I I #
vertex $-1 $365 $451 #
straight-curve $-1 -50.862147892696925 0 -11.728838555087311 0 1 0 I I #
point $-1 -50.862147892696925 -15.111081761280882 -11.728838555087311 #
straight-curve $-1 -50.862147892696925 -15.111081761280882 -5.1144192775436554 0 0 -1 I I #
straight-curve $-1 -50.862147892696925 -26.637938169089995 0 0 0 -1 I I #
point $-1 50.862147892696925 -26.637938169089995 -11.728838555087311 #
coedge $-1 $381 $380 $389 $436 forward $176 $-1 #
point $-1 50.862147892696925 15.111081761280879 -11.728838555087311 #
vertex $-1 $436 $452 #
straight-curve $-1 -50.862147892696925 0 -11.728838555087311 0 1 0 I I #
edge $-1 $434 -50.862147892696925 $394 50.862147892696925 $389 $453 forward 7 unknown #
straight-curve $-1 -50.862147892696925 26.637938169089995 0 0 0 -1 I I #
straight-curve $-1 50.862147892696925 0 -11.728838555087311 0 -1 0 I I #
point $-1 50.862147892696925 26.637938169089995 -11.728838555087311 #
straight-curve $-1 -53.872826472872575 3.1491590700157346 11.728838555087307 1 0 0 I I #
point $-1 -50.862147892696925 3.1491590700157346 11.728838555087311 #
straight-curve $-1 -36.775927470788332 3.8003899570026842 11.728838555087311 0 1 0 I I #
point $-1 -36.775927470788332 3.1491590700157346 11.728838555087311 #
point $-1 -41.972047406667222 7.6007799140053613 4.2399250036362712 #
straight-curve $-1 50.862147892696925 -11.90315333662331 71.596828234066919 0 0 -1 I I #
point $-1 50.862147892696925 -11.90315333662331 11.728838555087311 #
straight-curve $-1 50.862147892696925 -4.37843642850134 1.9768886659536236 0 1 0 I I #
point $-1 50.862147892696925 -11.90315333662331 1.9768886659536165 #
point $-1 41.3874270096834 -8.7568728570026799 3.5233417662368662 #
straight-curve $-1 0 -26.637938169089995 -11.728838555087311 -1 0 0 I I #
point $-1 -50.862147892696925 -26.637938169089995 -11.728838555087311 #
point $-1 -50.862147892696925 26.637938169089995 -11.728838555087311 #
straight-curve $-1 0 26.637938169089995 -11.728838555087311 1 0 0 I I #
End-of-ACIS-data 