500 0 6 0           
7 Unknown 11 ACIS 5.0 NT 24 Thu Mar 25 15:12:05 1999 
-1 9.9999999999999995e-007 1e-010 
body $-1 $6 $-1 $7 #
body $-1 $8 $-1 $9 #
body $-1 $10 $-1 $11 #
body $-1 $12 $-1 $13 #
body $-1 $14 $-1 $15 #
body $-1 $16 $-1 $17 #
lump $-1 $-1 $18 $0 #
transform $-1 1 0 0 0 1 0 0 0 1 79.114963225196078 47.070831707637709 15.126534342425437 1 rotate no_reflect no_shear #
lump $-1 $-1 $19 $1 #
transform $-1 1 0 0 0 1 0 0 0 1 79.114963225196078 47.070831707637709 15.126534342425437 1 rotate no_reflect no_shear #
lump $-1 $-1 $20 $2 #
transform $-1 1 0 0 0 1 0 0 0 1 79.114963225196078 47.070831707637709 15.126534342425437 1 rotate no_reflect no_shear #
lump $-1 $-1 $21 $3 #
transform $-1 1 0 0 0 1 0 0 0 1 79.114963225196078 47.070831707637709 15.126534342425437 1 rotate no_reflect no_shear #
lump $-1 $-1 $22 $4 #
transform $-1 1 0 0 0 1 0 0 0 1 79.114963225196078 47.070831707637709 15.126534342425437 1 rotate no_reflect no_shear #
lump $-1 $-1 $23 $5 #
transform $-1 1 0 0 0 1 0 0 0 1 79.114963225196078 47.070831707637709 15.126534342425437 1 rotate no_reflect no_shear #
shell $-1 $-1 $-1 $24 $-1 $6 #
shell $-1 $-1 $-1 $25 $-1 $8 #
shell $-1 $-1 $-1 $26 $-1 $10 #
shell $-1 $-1 $-1 $27 $-1 $12 #
shell $-1 $-1 $-1 $28 $-1 $14 #
shell $-1 $-1 $-1 $29 $-1 $16 #
face $-1 $30 $31 $18 $-1 $32 forward single #
face $-1 $33 $34 $19 $-1 $35 reversed single #
face $-1 $36 $37 $20 $-1 $38 reversed single #
face $-1 $39 $40 $21 $-1 $41 forward single #
face $-1 $42 $43 $22 $-1 $44 reversed single #
face $-1 $45 $46 $23 $-1 $47 forward single #
face $-1 $48 $49 $18 $-1 $50 reversed single #
loop $-1 $-1 $51 $24 #
plane-surface $-1 0 0 15.126534342425437 0 0 1 1 0 0 forward_v I I I I #
face $-1 $52 $53 $19 $-1 $54 reversed single #
loop $-1 $-1 $55 $25 #
plane-surface $-1 -71.155452592956181 0 6.5028355772924513 0 0 1 1 0 0 forward_v I I I I #
face $-1 $56 $57 $20 $-1 $58 reversed single #
loop $-1 $-1 $59 $26 #
plane-surface $-1 47.424711385911387 -170.03858133959127 109.53997220980551 -1 0 0 0 -0.77714596973225614 0.62932038083071107 forward_v I I I I #
face $-1 $60 $61 $21 $-1 $62 forward single #
loop $-1 $63 $64 $27 #
cone-surface $-1 39.363235307514486 -44.227716036948635 11.935392310202758 0 0.77714596973225614 -0.62932038083071107 1 0 0 1 I I 0 1 1 forward I I I I #
face $-1 $65 $66 $22 $-1 $67 reversed single #
loop $-1 $-1 $68 $28 #
plane-surface $-1 31.301759229117586 110.79331386705353 182.70178651687741 1 0 0 0 -0.77714596973225614 -0.62932038083071107 forward_v I I I I #
face $-1 $69 $70 $23 $-1 $71 forward single #
loop $-1 $72 $73 $29 #
cone-surface $-1 39.363235307514486 44.227716036948628 11.935392310202758 0 -0.77714596973225614 -0.62932038083071107 1 0 0 1 I I 0 1 1 forward I I I I #
face $-1 $74 $75 $18 $-1 $76 reversed single #
loop $-1 $-1 $77 $30 #
plane-surface $-1 0 0 -15.126534342425437 0 0 1 1 0 0 forward_v I I I I #
coedge $-1 $78 $79 $80 $81 forward $31 $-1 #
face $-1 $82 $83 $19 $-1 $84 reversed single #
loop $-1 $-1 $85 $33 #
plane-surface $-1 -63.195941960716283 0 10.814684959858944 -1 0 0 0 0 1 forward_v I I I I #
coedge $-1 $86 $87 $88 $89 forward $34 $-1 #
face $-1 $90 $91 $20 $-1 $92 reversed single #
loop $-1 $-1 $93 $36 #
plane-surface $-1 39.363235307514486 -47.070831707637694 9.9626546372293205 0 -0.77714596973225614 0.62932038083071107 1 0 0 forward_v I I I I #
coedge $-1 $94 $95 $96 $97 reversed $37 $-1 #
face $-1 $-1 $98 $21 $-1 $99 forward single #
loop $-1 $100 $101 $39 #
cone-surface $-1 39.363235307514486 -43.08684099248223 11.011529940162788 0 0.77714596973225614 -0.62932038083071107 0.5 0 0 1 I I -0.70710678118654746 0.70710678118654746 0.5 forward I I I I #
loop $-1 $-1 $102 $27 #
coedge $-1 $64 $64 $103 $104 reversed $40 $-1 #
face $-1 $105 $106 $22 $-1 $107 reversed single #
loop $-1 $-1 $108 $42 #
plane-surface $-1 39.363235307514486 -12.174435764900053 83.124468944301213 0 0.77714596973225614 0.62932038083071107 1 0 0 forward_v I I I I #
coedge $-1 $109 $110 $111 $112 reversed $43 $-1 #
face $-1 $-1 $113 $23 $-1 $114 forward single #
loop $-1 $115 $116 $45 #
cone-surface $-1 39.363235307514486 43.086840992482223 11.011529940162788 0 -0.77714596973225614 -0.62932038083071107 0.5 0 0 1 I I -0.70710678118654746 0.70710678118654746 0.5 forward I I I I #
loop $-1 $-1 $117 $29 #
coedge $-1 $73 $73 $118 $119 reversed $46 $-1 #
face $-1 $120 $121 $18 $-1 $122 reversed single #
loop $-1 $-1 $123 $48 #
plane-surface $-1 0 -47.070831707637709 0 0 1 0 0 0 1 forward_v I I I I #
coedge $-1 $124 $125 $126 $127 forward $49 $-1 #
coedge $-1 $128 $51 $129 $130 forward $31 $-1 #
coedge $-1 $51 $128 $131 $132 forward $31 $-1 #
coedge $-1 $133 $134 $51 $81 reversed $135 $-1 #
edge $-1 $136 -47.070831707637709 $137 47.070831707637709 $80 $138 forward 7 unknown #
face $-1 $139 $140 $19 $-1 $141 reversed single #
loop $-1 $-1 $142 $52 #
plane-surface $-1 0 47.070831707637709 0 0 -1 0 0 0 -1 forward_v I I I I #
coedge $-1 $88 $143 $144 $145 reversed $53 $-1 #
coedge $-1 $146 $55 $147 $148 reversed $34 $-1 #
coedge $-1 $55 $146 $149 $150 reversed $34 $-1 #
coedge $-1 $151 $85 $55 $89 reversed $53 $-1 #
edge $-1 $152 -47.070831707637709 $153 47.070831707637709 $88 $154 forward 7 unknown #
face $-1 $155 $156 $20 $-1 $157 reversed single #
loop $-1 $-1 $158 $56 #
plane-surface $-1 31.301759229117586 -170.03858133959127 109.53997220980551 1 0 0 0 0.77714596973225614 -0.62932038083071107 forward_v I I I I #
coedge $-1 $159 $160 $161 $162 reversed $57 $-1 #
coedge $-1 $95 $59 $163 $164 reversed $37 $-1 #
coedge $-1 $59 $94 $159 $165 reversed $37 $-1 #
coedge $-1 $161 $166 $59 $97 forward $167 $-1 #
edge $-1 $168 37.948458962157929 $169 42.130086184335525 $96 $170 forward 7 unknown #
loop $-1 $-1 $103 $60 #
plane-surface $-1 39.363235307514486 -47.070831707637694 9.9626546372293205 0 -0.77714596973225614 0.62932038083071107 1 0 0 forward_v I I I I #
loop $-1 $-1 $171 $39 #
coedge $-1 $101 $101 $102 $172 reversed $61 $-1 #
coedge $-1 $102 $102 $101 $172 forward $63 $-1 #
coedge $-1 $103 $103 $64 $104 forward $98 $-1 #
edge $-1 $173 1.380488558546233e-015 $173 6.2831853071796022 $103 $174 forward 7 unknown #
face $-1 $175 $176 $22 $-1 $177 forward single #
loop $-1 $-1 $178 $65 #
plane-surface $-1 47.424711385911387 110.79331386705353 182.70178651687741 -1 0 0 0 0.77714596973225614 0.62932038083071107 forward_v I I I I #
coedge $-1 $179 $180 $181 $182 reversed $66 $-1 #
coedge $-1 $110 $68 $183 $184 reversed $43 $-1 #
coedge $-1 $68 $109 $179 $185 reversed $43 $-1 #
coedge $-1 $181 $186 $68 $112 forward $176 $-1 #
edge $-1 $187 8.325825225889055 $188 12.507452448066637 $111 $189 forward 7 unknown #
loop $-1 $-1 $118 $69 #
plane-surface $-1 39.363235307514486 -12.174435764900053 83.124468944301213 0 0.77714596973225614 0.62932038083071107 1 0 0 forward_v I I I I #
loop $-1 $-1 $190 $45 #
coedge $-1 $116 $116 $117 $191 reversed $70 $-1 #
coedge $-1 $117 $117 $116 $191 forward $72 $-1 #
coedge $-1 $118 $118 $73 $119 forward $113 $-1 #
edge $-1 $192 -3.3012457501171635e-016 $192 6.2831853071796004 $118 $193 forward 7 unknown #
face $-1 $194 $195 $18 $-1 $196 reversed single #
loop $-1 $-1 $197 $74 #
plane-surface $-1 -79.114963225196078 0 0 1 0 0 0 0 -1 forward_v I I I I #
coedge $-1 $198 $131 $199 $200 forward $75 $-1 #
coedge $-1 $201 $77 $198 $202 forward $49 $-1 #
coedge $-1 $77 $201 $203 $204 forward $49 $-1 #
coedge $-1 $134 $133 $77 $127 reversed $135 $-1 #
edge $-1 $205 -47.070831707637709 $206 47.070831707637709 $126 $207 forward 7 unknown #
coedge $-1 $79 $78 $208 $209 forward $31 $-1 #
coedge $-1 $210 $211 $78 $130 reversed $195 $-1 #
edge $-1 $137 -79.114963225196078 $212 79.114963225196078 $129 $213 forward 7 unknown #
coedge $-1 $123 $214 $79 $132 reversed $75 $-1 #
edge $-1 $215 -79.114963225196078 $136 79.114963225196078 $131 $216 forward 7 unknown #
coedge $-1 $126 $80 $214 $217 forward $135 $-1 #
coedge $-1 $80 $126 $210 $218 reversed $135 $-1 #
loop $-1 $-1 $133 $194 #
vertex $-1 $81 $219 #
vertex $-1 $81 $220 #
straight-curve $-1 79.114963225196078 0 15.126534342425437 0 1 0 I I #
face $-1 $221 $222 $19 $-1 $223 forward single #
loop $-1 $-1 $224 $82 #
plane-surface $-1 -79.114963225196078 0 0 1 0 0 0 0 -1 forward_v I I I I #
coedge $-1 $149 $225 $151 $226 forward $83 $-1 #
coedge $-1 $85 $151 $227 $228 reversed $53 $-1 #
coedge $-1 $229 $147 $85 $145 forward $230 $-1 #
edge $-1 $153 1.0954930973629793 $231 9.7191918624959648 $144 $232 forward 7 unknown #
coedge $-1 $87 $86 $224 $233 reversed $34 $-1 #
coedge $-1 $144 $234 $86 $148 forward $230 $-1 #
edge $-1 $235 -43.537236928717988 $153 -27.618215664238193 $147 $236 forward 7 unknown #
coedge $-1 $237 $142 $87 $150 forward $83 $-1 #
edge $-1 $152 27.618215664238193 $238 43.537236928717988 $149 $239 forward 7 unknown #
coedge $-1 $143 $88 $142 $226 reversed $53 $-1 #
vertex $-1 $150 $240 #
vertex $-1 $148 $241 #
straight-curve $-1 -63.195941960716283 0 6.5028355772924513 0 -1 0 I I #
face $-1 $-1 $167 $20 $-1 $242 forward single #
loop $-1 $-1 $243 $90 #
plane-surface $-1 0 -47.070831707637709 0 0 1 0 0 0 1 forward_v I I I I #
coedge $-1 $244 $245 $246 $247 reversed $91 $-1 #
coedge $-1 $248 $93 $95 $165 forward $57 $-1 #
coedge $-1 $93 $248 $244 $249 forward $57 $-1 #
coedge $-1 $246 $96 $93 $162 forward $167 $-1 #
edge $-1 $169 -27.743093732154144 $250 -11.620141575360343 $161 $251 forward 7 unknown #
coedge $-1 $252 $253 $94 $164 forward $156 $-1 #
edge $-1 $254 -44.80733146767345 $168 -39.643451762477319 $163 $255 forward 7 unknown #
edge $-1 $169 -6.6446715370282172 $254 2.2748066086763162e-014 $95 $256 forward 7 unknown #
coedge $-1 $96 $246 $252 $257 forward $167 $-1 #
loop $-1 $-1 $246 $155 #
vertex $-1 $164 $258 #
vertex $-1 $97 $259 #
straight-curve $-1 47.424711385911387 -85.019290669795637 15.126534342425437 0 1 0 I I #
coedge $-1 $171 $171 $-1 $260 reversed $100 $-1 #
edge $-1 $261 0 $261 6.2831853071796004 $101 $262 forward 7 unknown #
vertex $-1 $104 $263 #
ellipse-curve $-1 39.363235307514486 -44.98001809654891 12.54459448982737 0 -0.77714596973225614 0.62932038083071107 1 0 0 1 I I #
face $-1 $-1 $264 $22 $-1 $265 reversed single #
loop $-1 $-1 $111 $105 #
plane-surface $-1 0 0 15.126534342425437 0 0 1 1 0 0 forward_v I I I I #
coedge $-1 $266 $267 $268 $269 reversed $106 $-1 #
coedge $-1 $270 $108 $110 $185 forward $66 $-1 #
coedge $-1 $108 $270 $266 $271 forward $66 $-1 #
coedge $-1 $268 $111 $108 $182 forward $176 $-1 #
edge $-1 $188 11.620141575360343 $272 27.743093732154144 $181 $273 forward 7 unknown #
coedge $-1 $274 $275 $109 $184 forward $264 $-1 #
edge $-1 $276 -81.388238621209382 $187 -76.224358916013273 $183 $277 forward 7 unknown #
edge $-1 $188 87.496991878247229 $276 94.141663415275445 $110 $278 forward 7 unknown #
coedge $-1 $111 $268 $274 $279 forward $176 $-1 #
vertex $-1 $184 $280 #
vertex $-1 $112 $281 #
straight-curve $-1 31.301759229117586 55.396656933526764 15.12653434242543 0 -1 0 I I #
coedge $-1 $190 $190 $-1 $282 reversed $115 $-1 #
edge $-1 $283 0 $283 6.2831853071796004 $116 $284 forward 7 unknown #
vertex $-1 $119 $285 #
ellipse-curve $-1 39.363235307514486 44.98001809654891 12.544594489827377 0 0.77714596973225614 0.62932038083071107 1 0 0 1 I I #
face $-1 $-1 $135 $18 $-1 $286 reversed single #
loop $-1 $-1 $210 $120 #
plane-surface $-1 0 47.070831707637709 0 0 -1 0 0 0 -1 forward_v I I I I #
coedge $-1 $287 $208 $211 $288 forward $121 $-1 #
coedge $-1 $214 $123 $124 $202 reversed $75 $-1 #
coedge $-1 $208 $287 $123 $200 reversed $121 $-1 #
edge $-1 $215 -15.126534342425437 $289 15.126534342425437 $199 $290 forward 7 unknown #
coedge $-1 $125 $124 $287 $291 forward $49 $-1 #
edge $-1 $206 -79.114963225196078 $289 79.114963225196078 $198 $292 forward 7 unknown #
coedge $-1 $211 $210 $125 $204 reversed $195 $-1 #
edge $-1 $293 -79.114963225196078 $205 79.114963225196078 $203 $294 forward 7 unknown #
vertex $-1 $127 $295 #
vertex $-1 $217 $296 #
straight-curve $-1 79.114963225196078 0 -15.126534342425437 0 -1 0 I I #
coedge $-1 $197 $199 $128 $209 reversed $121 $-1 #
edge $-1 $212 -47.070831707637709 $215 47.070831707637709 $208 $297 forward 7 unknown #
coedge $-1 $203 $129 $134 $218 forward $195 $-1 #
coedge $-1 $129 $203 $197 $288 reversed $195 $-1 #
vertex $-1 $130 $298 #
straight-curve $-1 0 47.070831707637709 15.126534342425437 -1 0 0 I I #
coedge $-1 $131 $198 $133 $217 reversed $75 $-1 #
vertex $-1 $209 $299 #
straight-curve $-1 0 -47.070831707637709 15.126534342425437 1 0 0 I I #
edge $-1 $136 -15.126534342425437 $206 15.126534342425437 $133 $300 forward 7 unknown #
edge $-1 $137 -15.126534342425437 $205 15.126534342425437 $134 $301 forward 7 unknown #
point $-1 79.114963225196078 -47.070831707637709 15.126534342425437 #
point $-1 79.114963225196078 47.070831707637709 15.126534342425437 #
face $-1 $-1 $230 $19 $-1 $302 reversed single #
loop $-1 $-1 $227 $139 #
plane-surface $-1 0 0 15.126534342425437 0 0 1 1 0 0 forward_v I I I I #
coedge $-1 $303 $304 $146 $233 forward $140 $-1 #
coedge $-1 $142 $237 $305 $306 reversed $83 $-1 #
edge $-1 $307 -9.7191918624959648 $152 -1.0954930973629793 $142 $308 forward 7 unknown #
coedge $-1 $305 $309 $143 $228 forward $222 $-1 #
edge $-1 $231 -47.070831707637709 $307 47.070831707637709 $227 $310 forward 7 unknown #
coedge $-1 $234 $144 $309 $311 reversed $230 $-1 #
loop $-1 $-1 $144 $221 #
vertex $-1 $145 $312 #
straight-curve $-1 -63.195941960716283 -47.070831707637709 5.407342479929472 0 0 1 I I #
edge $-1 $238 -47.070831707637709 $235 47.070831707637709 $224 $313 forward 7 unknown #
coedge $-1 $147 $229 $303 $314 forward $230 $-1 #
vertex $-1 $233 $315 #
straight-curve $-1 -35.57772629647809 -47.070831707637709 6.5028355772924513 1 0 0 I I #
coedge $-1 $225 $149 $304 $316 reversed $83 $-1 #
vertex $-1 $233 $317 #
straight-curve $-1 -35.57772629647809 47.070831707637709 6.5028355772924513 -1 0 0 I I #
point $-1 -63.195941960716283 47.070831707637709 6.5028355772924513 #
point $-1 -63.195941960716283 -47.070831707637709 6.5028355772924513 #
plane-surface $-1 0 0 15.126534342425437 0 0 1 1 0 0 forward_v I I I I #
coedge $-1 $253 $252 $245 $318 forward $156 $-1 #
coedge $-1 $245 $158 $160 $249 reversed $91 $-1 #
coedge $-1 $158 $244 $243 $318 reversed $91 $-1 #
coedge $-1 $166 $161 $158 $247 forward $167 $-1 #
edge $-1 $250 -42.130086184335525 $319 -37.948458962157929 $246 $320 forward 7 unknown #
coedge $-1 $160 $159 $253 $321 reversed $57 $-1 #
edge $-1 $322 -2.2748066086763162e-014 $250 6.6446715370282172 $244 $323 forward 7 unknown #
vertex $-1 $162 $324 #
straight-curve $-1 19.681617653757243 -42.889204485460112 15.126534342425437 -1 0 0 I I #
coedge $-1 $243 $163 $166 $257 reversed $156 $-1 #
coedge $-1 $163 $243 $248 $321 forward $156 $-1 #
vertex $-1 $164 $325 #
straight-curve $-1 47.424711385911387 -47.070831707637709 54.769986104902756 0 0 1 I I #
straight-curve $-1 47.424711385911387 -47.070831707637694 9.9626546372293205 0 -0.62932038083071107 -0.77714596973225614 I I #
edge $-1 $319 31.301759229117586 $168 47.424711385911387 $252 $326 forward 7 unknown #
point $-1 47.424711385911387 -47.070831707637709 15.126534342425437 #
point $-1 47.424711385911387 -42.889204485460112 15.126534342425437 #
edge $-1 $327 1 $327 0 $171 $-1 forward 7 unknown #
vertex $-1 $172 $328 #
ellipse-curve $-1 39.363235307514486 -43.47541397734836 11.326190130578144 0 -0.77714596973225614 0.62932038083071107 1 0 0 1 I I #
point $-1 40.363235307514486 -44.98001809654891 12.544594489827372 #
loop $-1 $-1 $183 $175 #
plane-surface $-1 0 47.070831707637709 0 0 -1 0 0 0 -1 forward_v I I I I #
coedge $-1 $267 $178 $180 $271 reversed $106 $-1 #
coedge $-1 $178 $266 $329 $330 reversed $106 $-1 #
coedge $-1 $186 $181 $178 $269 forward $176 $-1 #
edge $-1 $272 -12.507452448066637 $331 -8.325825225889055 $268 $332 forward 7 unknown #
coedge $-1 $180 $179 $275 $333 reversed $66 $-1 #
edge $-1 $334 -94.141663415275445 $272 -87.496991878247229 $266 $335 forward 7 unknown #
vertex $-1 $182 $336 #
straight-curve $-1 19.681617653757243 42.88920448546012 15.126534342425444 1 0 0 I I #
coedge $-1 $329 $183 $186 $279 reversed $264 $-1 #
coedge $-1 $183 $329 $270 $333 forward $264 $-1 #
vertex $-1 $184 $337 #
straight-curve $-1 31.301759229117586 47.070831707637709 91.350893258438703 0 0 1 I I #
straight-curve $-1 31.301759229117586 -12.174435764900053 83.124468944301213 0 0.62932038083071107 -0.77714596973225614 I I #
edge $-1 $331 -47.424711385911387 $187 -31.301759229117586 $274 $338 forward 7 unknown #
point $-1 31.301759229117586 47.070831707637709 15.126534342425437 #
point $-1 31.301759229117586 42.889204485460127 15.12653434242543 #
edge $-1 $339 1 $339 0 $190 $-1 forward 7 unknown #
vertex $-1 $191 $340 #
ellipse-curve $-1 39.363235307514486 43.475413977348353 11.326190130578144 0 0.77714596973225614 0.62932038083071107 1 0 0 1 I I #
point $-1 40.363235307514486 44.980018096548903 12.544594489827372 #
plane-surface $-1 79.114963225196078 0 0 -1 0 0 0 0 1 forward_v I I I I #
coedge $-1 $199 $197 $201 $291 reversed $121 $-1 #
edge $-1 $212 -15.126534342425437 $293 15.126534342425437 $211 $341 forward 7 unknown #
vertex $-1 $291 $342 #
straight-curve $-1 -79.114963225196078 -47.070831707637709 0 0 0 -1 I I #
edge $-1 $289 -47.070831707637709 $293 47.070831707637709 $287 $343 forward 7 unknown #
straight-curve $-1 0 -47.070831707637709 -15.126534342425437 -1 0 0 I I #
vertex $-1 $204 $344 #
straight-curve $-1 0 47.070831707637709 -15.126534342425437 1 0 0 I I #
point $-1 79.114963225196078 47.070831707637709 -15.126534342425437 #
point $-1 79.114963225196078 -47.070831707637709 -15.126534342425437 #
straight-curve $-1 -79.114963225196078 0 15.126534342425437 0 -1 0 I I #
point $-1 -79.114963225196078 47.070831707637709 15.126534342425437 #
point $-1 -79.114963225196078 -47.070831707637709 15.126534342425437 #
straight-curve $-1 79.114963225196078 -47.070831707637709 0 0 0 -1 I I #
straight-curve $-1 79.114963225196078 47.070831707637709 0 0 0 -1 I I #
plane-surface $-1 0 -47.070831707637709 0 0 1 0 0 0 1 forward_v I I I I #
coedge $-1 $345 $224 $234 $314 reversed $140 $-1 #
coedge $-1 $224 $345 $237 $316 forward $140 $-1 #
coedge $-1 $346 $227 $225 $306 forward $222 $-1 #
edge $-1 $307 63.195941960716283 $347 79.114963225196078 $225 $348 forward 7 unknown #
vertex $-1 $306 $349 #
straight-curve $-1 -63.195941960716283 47.070831707637709 5.407342479929472 0 0 -1 I I #
coedge $-1 $227 $346 $229 $311 forward $222 $-1 #
straight-curve $-1 -63.195941960716283 0 15.126534342425437 0 1 0 I I #
edge $-1 $350 -79.114963225196078 $231 -63.195941960716283 $229 $351 forward 7 unknown #
point $-1 -63.195941960716283 -47.070831707637709 15.126534342425437 #
straight-curve $-1 -79.114963225196078 0 6.5028355772924513 0 -1 0 I I #
edge $-1 $350 -15.126534342425437 $235 -6.5028355772924513 $303 $352 forward 7 unknown #
point $-1 -79.114963225196078 -47.070831707637709 6.5028355772924513 #
edge $-1 $347 -15.126534342425437 $238 -6.5028355772924513 $237 $353 forward 7 unknown #
point $-1 -79.114963225196078 47.070831707637709 6.5028355772924513 #
edge $-1 $319 39.643451762477319 $322 44.80733146767345 $243 $354 forward 7 unknown #
vertex $-1 $257 $355 #
straight-curve $-1 31.301759229117586 -85.019290669795637 15.126534342425437 0 -1 0 I I #
edge $-1 $322 11.620141575360343 $254 27.743093732154144 $253 $356 forward 7 unknown #
vertex $-1 $321 $357 #
straight-curve $-1 31.301759229117586 -47.070831707637694 9.9626546372293205 0 0.62932038083071107 0.77714596973225614 I I #
point $-1 31.301759229117586 -42.889204485460112 15.126534342425437 #
point $-1 47.424711385911387 -47.070831707637709 9.9626546372293028 #
straight-curve $-1 0 -47.070831707637709 15.126534342425437 1 0 0 I I #
vertex $-1 $260 $358 #
point $-1 40.363235307514486 -43.47541397734836 11.326190130578144 #
coedge $-1 $275 $274 $267 $330 forward $264 $-1 #
edge $-1 $331 76.224358916013273 $334 81.388238621209382 $329 $359 forward 7 unknown #
vertex $-1 $279 $360 #
straight-curve $-1 47.424711385911387 55.396656933526764 15.12653434242543 0 1 0 I I #
edge $-1 $334 -27.743093732154144 $276 -11.620141575360343 $275 $361 forward 7 unknown #
vertex $-1 $333 $362 #
straight-curve $-1 47.424711385911387 -12.174435764900053 83.124468944301213 0 -0.62932038083071107 0.77714596973225614 I I #
point $-1 47.424711385911387 42.889204485460127 15.12653434242543 #
point $-1 31.301759229117586 47.070831707637709 9.9626546372293205 #
straight-curve $-1 0 47.070831707637709 15.126534342425437 -1 0 0 I I #
vertex $-1 $282 $363 #
point $-1 40.363235307514486 43.475413977348353 11.326190130578144 #
straight-curve $-1 -79.114963225196078 47.070831707637709 0 0 0 -1 I I #
point $-1 -79.114963225196078 -47.070831707637709 -15.126534342425437 #
straight-curve $-1 -79.114963225196078 0 -15.126534342425437 0 1 0 I I #
point $-1 -79.114963225196078 47.070831707637709 -15.126534342425437 #
coedge $-1 $304 $303 $346 $364 reversed $140 $-1 #
coedge $-1 $309 $305 $345 $364 forward $222 $-1 #
vertex $-1 $306 $365 #
straight-curve $-1 0 47.070831707637709 15.126534342425437 -1 0 0 I I #
point $-1 -63.195941960716283 47.070831707637709 15.126534342425437 #
vertex $-1 $364 $366 #
straight-curve $-1 0 -47.070831707637709 15.126534342425437 1 0 0 I I #
straight-curve $-1 -79.114963225196078 -47.070831707637709 0 0 0 -1 I I #
straight-curve $-1 -79.114963225196078 47.070831707637709 0 0 0 -1 I I #
straight-curve $-1 31.301759229117586 -47.070831707637709 54.769986104902756 0 0 -1 I I #
point $-1 31.301759229117586 -47.070831707637709 15.126534342425437 #
straight-curve $-1 19.681617653757243 -47.070831707637709 9.9626546372293063 1 0 0 I I #
point $-1 31.301759229117586 -47.070831707637709 9.9626546372293028 #
point $-1 39.363235307514486 -42.6982680076161 10.696869749747432 #
straight-curve $-1 47.424711385911387 47.070831707637709 91.350893258438703 0 0 -1 I I #
point $-1 47.424711385911387 47.070831707637709 15.126534342425437 #
straight-curve $-1 19.681617653757243 47.070831707637709 9.9626546372293134 -1 0 0 I I #
point $-1 47.424711385911387 47.070831707637709 9.9626546372293205 #
point $-1 39.363235307514486 42.698268007616093 10.696869749747432 #
edge $-1 $347 -47.070831707637709 $350 47.070831707637709 $345 $367 forward 7 unknown #
point $-1 -79.114963225196078 47.070831707637709 15.126534342425437 #
point $-1 -79.114963225196078 -47.070831707637709 15.126534342425437 #
straight-curve $-1 -79.114963225196078 0 15.126534342425437 0 -1 0 I I #
End-of-ACIS-data 