500 0 8 0           
7 Unknown 11 ACIS 5.0 NT 24 Fri Mar 26 15:06:58 1999 
-1 9.9999999999999995e-007 1e-010 
body $-1 $8 $-1 $9 #
body $-1 $10 $-1 $11 #
body $-1 $12 $-1 $13 #
body $-1 $14 $-1 $15 #
body $-1 $16 $-1 $17 #
body $-1 $18 $-1 $19 #
body $-1 $20 $-1 $21 #
body $-1 $22 $-1 $23 #
lump $-1 $-1 $24 $0 #
transform $-1 1 0 0 0 1 0 0 0 1 76.750389110995826 43.399209863709679 13.602533806002526 1 rotate no_reflect no_shear #
lump $-1 $-1 $25 $1 #
transform $-1 1 0 0 0 1 0 0 0 1 76.750389110995826 43.399209863709679 13.602533806002526 1 rotate no_reflect no_shear #
lump $-1 $-1 $26 $2 #
transform $-1 1 0 0 0 1 0 0 0 1 76.750389110995826 43.399209863709679 13.602533806002526 1 rotate no_reflect no_shear #
lump $-1 $-1 $27 $3 #
transform $-1 1 0 0 0 1 0 0 0 1 76.750389110995826 43.399209863709679 13.602533806002526 1 rotate no_reflect no_shear #
lump $-1 $-1 $28 $4 #
transform $-1 1 0 0 0 1 0 0 0 1 76.750389110995826 43.399209863709679 13.602533806002526 1 rotate no_reflect no_shear #
lump $-1 $-1 $29 $5 #
transform $-1 1 0 0 0 1 0 0 0 1 76.750389110995826 43.399209863709679 13.602533806002526 1 rotate no_reflect no_shear #
lump $-1 $-1 $30 $6 #
transform $-1 1 0 0 0 1 0 0 0 1 76.750389110995826 43.399209863709679 13.602533806002526 1 rotate no_reflect no_shear #
lump $-1 $-1 $31 $7 #
transform $-1 1 0 0 0 1 0 0 0 1 76.750389110995826 43.399209863709679 13.602533806002526 1 rotate no_reflect no_shear #
shell $-1 $-1 $-1 $32 $-1 $8 #
shell $-1 $-1 $-1 $33 $-1 $10 #
shell $-1 $-1 $-1 $34 $-1 $12 #
shell $-1 $-1 $-1 $35 $-1 $14 #
shell $-1 $-1 $-1 $36 $-1 $16 #
shell $-1 $-1 $-1 $37 $-1 $18 #
shell $-1 $-1 $-1 $38 $-1 $20 #
shell $-1 $-1 $-1 $39 $-1 $22 #
face $-1 $40 $41 $24 $-1 $42 forward single #
face $-1 $43 $44 $25 $-1 $45 reversed single #
face $-1 $46 $47 $26 $-1 $48 reversed single #
face $-1 $49 $50 $27 $-1 $51 forward single #
face $-1 $52 $53 $28 $-1 $54 forward single #
face $-1 $55 $56 $29 $-1 $57 reversed single #
face $-1 $58 $59 $30 $-1 $60 forward single #
face $-1 $61 $62 $31 $-1 $63 forward single #
face $-1 $64 $65 $24 $-1 $66 reversed single #
loop $-1 $-1 $67 $32 #
plane-surface $-1 0 0 13.602533806002526 0 0 1 1 0 0 forward_v I I I I #
face $-1 $68 $69 $25 $-1 $70 reversed single #
loop $-1 $-1 $71 $33 #
plane-surface $-1 -69.337994118234477 -39.907891469738836 0 0 -1 0 0 0 -1 forward_v I I I I #
face $-1 $72 $73 $26 $-1 $74 reversed single #
loop $-1 $-1 $75 $34 #
plane-surface $-1 40.05877365969333 -124.7422303923758 137.93177596144506 -1 0 0 0 -0.52991927123019833 0.84804809178421925 forward_v I I I I #
face $-1 $76 $77 $27 $-1 $78 forward single #
loop $-1 $79 $80 $35 #
cone-surface $-1 28.440520417336671 -37.79025143114508 9.1899575748621345 0 0.52991927123019833 -0.84804809178421925 1 0 0 1 I I 0 1 1 forward I I I I #
face $-1 $81 $82 $28 $-1 $83 forward single #
loop $-1 $84 $85 $36 #
cone-surface $-1 35.411472362750672 -37.79025143114508 9.1899575748621345 0 0.52991927123019833 -0.84804809178421925 1 0 0 1 I I 0 1 1 forward I I I I #
face $-1 $86 $87 $29 $-1 $88 reversed single #
loop $-1 $-1 $89 $37 #
plane-surface $-1 23.793219120393999 51.132996172652078 183.92793128733197 1 0 0 0 -0.52991927123019833 -0.84804809178421925 forward_v I I I I #
face $-1 $90 $91 $30 $-1 $92 forward single #
loop $-1 $93 $94 $38 #
cone-surface $-1 28.440520417336671 37.79025143114508 9.189957574862138 0 -0.52991927123019833 -0.84804809178421925 1 0 0 1 I I 0 1 1 forward I I I I #
face $-1 $95 $96 $31 $-1 $97 forward single #
loop $-1 $98 $99 $39 #
cone-surface $-1 35.411472362750672 37.79025143114508 9.189957574862138 0 -0.52991927123019833 -0.84804809178421925 1 0 0 1 I I 0 1 1 forward I I I I #
face $-1 $100 $101 $24 $-1 $102 reversed single #
loop $-1 $-1 $103 $40 #
plane-surface $-1 0 0 -13.602533806002526 0 0 1 1 0 0 forward_v I I I I #
coedge $-1 $104 $105 $106 $107 forward $41 $-1 #
face $-1 $108 $109 $25 $-1 $110 forward single #
loop $-1 $-1 $111 $43 #
plane-surface $-1 -61.925599125473134 -41.653550666724257 0 -1 0 0 0 0 1 forward_v I I I I #
coedge $-1 $112 $113 $114 $115 forward $44 $-1 #
face $-1 $116 $117 $26 $-1 $118 reversed single #
loop $-1 $-1 $119 $46 #
plane-surface $-1 31.925996390043665 -43.399209863709686 7.7557339028923877 0 -0.52991927123019833 0.84804809178421925 1 0 0 forward_v I I I I #
coedge $-1 $120 $121 $122 $123 reversed $47 $-1 #
face $-1 $-1 $124 $27 $-1 $125 forward single #
loop $-1 $126 $127 $49 #
cone-surface $-1 28.440520417336671 -36.594751161742501 7.2767572493847048 0 0.52991927123019833 -0.84804809178421925 0.5 0 0 1 I I -0.70710678118654746 0.70710678118654746 0.5 forward I I I I #
loop $-1 $-1 $128 $35 #
coedge $-1 $80 $80 $129 $130 reversed $50 $-1 #
face $-1 $-1 $131 $28 $-1 $132 forward single #
loop $-1 $133 $134 $52 #
cone-surface $-1 35.411472362750672 -36.594751161742501 7.2767572493847048 0 0.52991927123019833 -0.84804809178421925 0.5 0 0 1 I I -0.70710678118654746 0.70710678118654746 0.5 forward I I I I #
loop $-1 $-1 $135 $36 #
coedge $-1 $85 $85 $136 $137 reversed $53 $-1 #
face $-1 $138 $139 $29 $-1 $140 reversed single #
loop $-1 $-1 $141 $55 #
plane-surface $-1 31.925996390043665 -30.210024356014038 53.751889228779305 0 0.52991927123019833 0.84804809178421925 1 0 0 forward_v I I I I #
coedge $-1 $142 $143 $144 $145 reversed $56 $-1 #
face $-1 $-1 $146 $30 $-1 $147 forward single #
loop $-1 $148 $149 $58 #
cone-surface $-1 28.440520417336671 36.594751161742501 7.2767572493847084 0 -0.52991927123019833 -0.84804809178421925 0.5 0 0 1 I I -0.70710678118654746 0.70710678118654746 0.5 forward I I I I #
loop $-1 $-1 $150 $38 #
coedge $-1 $94 $94 $151 $152 reversed $59 $-1 #
face $-1 $-1 $153 $31 $-1 $154 forward single #
loop $-1 $155 $156 $61 #
cone-surface $-1 35.411472362750672 36.594751161742501 7.2767572493847084 0 -0.52991927123019833 -0.84804809178421925 0.5 0 0 1 I I -0.70710678118654746 0.70710678118654746 0.5 forward I I I I #
loop $-1 $-1 $157 $39 #
coedge $-1 $99 $99 $158 $159 reversed $62 $-1 #
face $-1 $160 $161 $24 $-1 $162 reversed single #
loop $-1 $-1 $163 $64 #
plane-surface $-1 0 -43.399209863709679 0 0 1 0 0 0 1 forward_v I I I I #
coedge $-1 $164 $165 $166 $167 forward $65 $-1 #
coedge $-1 $168 $67 $169 $170 forward $41 $-1 #
coedge $-1 $67 $168 $171 $172 forward $41 $-1 #
coedge $-1 $173 $174 $67 $107 reversed $175 $-1 #
edge $-1 $176 -43.399209863709679 $177 43.399209863709679 $106 $178 forward 7 unknown #
face $-1 $179 $180 $25 $-1 $181 reversed single #
loop $-1 $-1 $182 $68 #
plane-surface $-1 0 0 13.602533806002526 0 0 1 1 0 0 forward_v I I I I #
coedge $-1 $183 $184 $185 $186 reversed $69 $-1 #
coedge $-1 $187 $71 $188 $189 reversed $44 $-1 #
coedge $-1 $71 $187 $190 $191 reversed $44 $-1 #
coedge $-1 $184 $183 $71 $115 reversed $69 $-1 #
edge $-1 $192 -13.602533806002526 $193 13.602533806002526 $114 $194 forward 7 unknown #
face $-1 $195 $196 $26 $-1 $197 forward single #
loop $-1 $-1 $198 $72 #
plane-surface $-1 23.793219120393999 -124.7422303923758 137.93177596144506 1 0 0 0 0.52991927123019833 -0.84804809178421925 forward_v I I I I #
coedge $-1 $199 $200 $201 $202 reversed $73 $-1 #
coedge $-1 $121 $75 $203 $204 reversed $47 $-1 #
coedge $-1 $75 $120 $199 $205 reversed $47 $-1 #
coedge $-1 $201 $206 $75 $123 forward $196 $-1 #
edge $-1 $207 18.971905332478222 $208 28.328740930032438 $122 $209 forward 7 unknown #
loop $-1 $-1 $129 $76 #
plane-surface $-1 31.925996390043665 -43.399209863709686 7.7557339028923877 0 -0.52991927123019833 0.84804809178421925 1 0 0 forward_v I I I I #
loop $-1 $-1 $210 $49 #
coedge $-1 $127 $127 $128 $211 reversed $77 $-1 #
coedge $-1 $128 $128 $127 $211 forward $79 $-1 #
coedge $-1 $129 $129 $80 $130 forward $124 $-1 #
edge $-1 $212 2.2604412248058798e-015 $212 6.2831853071796031 $129 $213 forward 7 unknown #
loop $-1 $-1 $136 $81 #
plane-surface $-1 31.925996390043665 -43.399209863709686 7.7557339028923877 0 -0.52991927123019833 0.84804809178421925 1 0 0 forward_v I I I I #
loop $-1 $-1 $214 $52 #
coedge $-1 $134 $134 $135 $215 reversed $82 $-1 #
coedge $-1 $135 $135 $134 $215 forward $84 $-1 #
coedge $-1 $136 $136 $85 $137 forward $131 $-1 #
edge $-1 $216 2.2604412248058798e-015 $216 6.2831853071796031 $136 $217 forward 7 unknown #
face $-1 $218 $219 $29 $-1 $220 reversed single #
loop $-1 $-1 $221 $86 #
plane-surface $-1 40.05877365969333 51.132996172652078 183.92793128733197 -1 0 0 0 0.52991927123019833 0.84804809178421925 forward_v I I I I #
coedge $-1 $222 $223 $224 $225 reversed $87 $-1 #
coedge $-1 $143 $89 $226 $227 reversed $56 $-1 #
coedge $-1 $89 $142 $222 $228 reversed $56 $-1 #
coedge $-1 $224 $229 $89 $145 forward $230 $-1 #
edge $-1 $231 -17.83271177738364 $232 -8.4758761798293882 $144 $233 forward 7 unknown #
loop $-1 $-1 $151 $90 #
plane-surface $-1 31.925996390043665 -30.210024356014038 53.751889228779305 0 0.52991927123019833 0.84804809178421925 1 0 0 forward_v I I I I #
loop $-1 $-1 $234 $58 #
coedge $-1 $149 $149 $150 $235 reversed $91 $-1 #
coedge $-1 $150 $150 $149 $235 forward $93 $-1 #
coedge $-1 $151 $151 $94 $152 forward $146 $-1 #
edge $-1 $236 -5.6353594053339759e-016 $236 6.2831853071795996 $151 $237 forward 7 unknown #
loop $-1 $-1 $158 $95 #
plane-surface $-1 31.925996390043665 -30.210024356014038 53.751889228779305 0 0.52991927123019833 0.84804809178421925 1 0 0 forward_v I I I I #
loop $-1 $-1 $238 $61 #
coedge $-1 $156 $156 $157 $239 reversed $96 $-1 #
coedge $-1 $157 $157 $156 $239 forward $98 $-1 #
coedge $-1 $158 $158 $99 $159 forward $153 $-1 #
edge $-1 $240 -5.6353594053339759e-016 $240 6.2831853071795996 $158 $241 forward 7 unknown #
face $-1 $242 $243 $24 $-1 $244 reversed single #
loop $-1 $-1 $245 $100 #
plane-surface $-1 -76.750389110995826 0 0 1 0 0 0 0 -1 forward_v I I I I #
coedge $-1 $246 $171 $247 $248 forward $101 $-1 #
coedge $-1 $249 $103 $246 $250 forward $65 $-1 #
coedge $-1 $103 $249 $251 $252 forward $65 $-1 #
coedge $-1 $174 $173 $103 $167 reversed $175 $-1 #
edge $-1 $253 -43.399209863709679 $254 43.399209863709679 $166 $255 forward 7 unknown #
coedge $-1 $105 $104 $256 $257 forward $41 $-1 #
coedge $-1 $258 $259 $104 $170 reversed $243 $-1 #
edge $-1 $177 -76.750389110995826 $260 76.750389110995826 $169 $261 forward 7 unknown #
coedge $-1 $163 $262 $105 $172 reversed $101 $-1 #
edge $-1 $263 -76.750389110995826 $176 76.750389110995826 $171 $264 forward 7 unknown #
coedge $-1 $166 $106 $262 $265 forward $175 $-1 #
coedge $-1 $106 $166 $258 $266 reversed $175 $-1 #
loop $-1 $-1 $173 $242 #
vertex $-1 $107 $267 #
vertex $-1 $107 $268 #
straight-curve $-1 76.750389110995826 0 13.602533806002526 0 1 0 I I #
face $-1 $269 $270 $25 $-1 $271 reversed single #
loop $-1 $-1 $272 $108 #
plane-surface $-1 -76.750389110995826 0 0 1 0 0 0 0 -1 forward_v I I I I #
coedge $-1 $190 $273 $184 $274 forward $109 $-1 #
coedge $-1 $114 $111 $275 $276 reversed $69 $-1 #
coedge $-1 $111 $114 $182 $274 reversed $69 $-1 #
coedge $-1 $277 $278 $111 $186 forward $279 $-1 #
edge $-1 $280 -13.602533806002526 $281 13.602533806002526 $185 $282 forward 7 unknown #
coedge $-1 $113 $112 $272 $283 reversed $44 $-1 #
coedge $-1 $275 $284 $112 $189 forward $270 $-1 #
edge $-1 $285 -42.081392051878588 $193 -27.256602066355896 $188 $286 forward 7 unknown #
coedge $-1 $287 $182 $113 $191 forward $109 $-1 #
edge $-1 $192 27.256602066355896 $288 42.081392051878588 $190 $289 forward 7 unknown #
vertex $-1 $191 $290 #
vertex $-1 $189 $291 #
straight-curve $-1 -61.925599125473134 -39.907891469738836 0 0 0 -1 I I #
face $-1 $-1 $292 $26 $-1 $293 reversed single #
loop $-1 $-1 $122 $116 #
plane-surface $-1 0 0 13.602533806002526 0 0 1 1 0 0 forward_v I I I I #
coedge $-1 $294 $295 $296 $297 reversed $117 $-1 #
coedge $-1 $298 $119 $121 $205 forward $73 $-1 #
coedge $-1 $119 $298 $294 $299 forward $73 $-1 #
coedge $-1 $296 $122 $119 $202 forward $196 $-1 #
edge $-1 $208 -24.095775464671497 $300 -7.8302209253721671 $201 $301 forward 7 unknown #
coedge $-1 $302 $303 $120 $204 forward $292 $-1 #
edge $-1 $304 -61.210154077830133 $207 -55.363354174720001 $203 $305 forward 7 unknown #
edge $-1 $208 -11.033378517329432 $304 -8.3790584163743152e-015 $121 $306 forward 7 unknown #
coedge $-1 $122 $296 $302 $307 forward $196 $-1 #
vertex $-1 $204 $308 #
vertex $-1 $123 $309 #
straight-curve $-1 40.05877365969333 -62.371115196187901 13.602533806002526 0 1 0 I I #
coedge $-1 $210 $210 $-1 $310 reversed $126 $-1 #
edge $-1 $311 0 $311 6.2831853071796004 $127 $312 forward 7 unknown #
vertex $-1 $130 $313 #
ellipse-curve $-1 28.440520417336671 -38.720792064932567 10.679133854447462 0 -0.52991927123019833 0.84804809178421925 1 0 0 1 I I #
coedge $-1 $214 $214 $-1 $314 reversed $133 $-1 #
edge $-1 $315 0 $315 6.2831853071796004 $134 $316 forward 7 unknown #
vertex $-1 $137 $317 #
ellipse-curve $-1 35.411472362750672 -38.720792064932567 10.679133854447462 0 -0.52991927123019833 0.84804809178421925 1 0 0 1 I I #
face $-1 $-1 $230 $29 $-1 $318 forward single #
loop $-1 $-1 $319 $138 #
plane-surface $-1 0 43.399209863709679 0 0 -1 0 0 0 -1 forward_v I I I I #
coedge $-1 $320 $321 $322 $323 reversed $139 $-1 #
coedge $-1 $324 $141 $143 $228 forward $87 $-1 #
coedge $-1 $141 $324 $320 $325 forward $87 $-1 #
coedge $-1 $322 $144 $141 $225 forward $230 $-1 #
edge $-1 $232 7.8302209253721671 $326 24.095775464671497 $224 $327 forward 7 unknown #
coedge $-1 $328 $329 $142 $227 forward $219 $-1 #
edge $-1 $330 -84.208231740773613 $231 -78.36143183766346 $226 $331 forward 7 unknown #
edge $-1 $232 75.76504121008989 $330 86.798419727419372 $143 $332 forward 7 unknown #
coedge $-1 $144 $322 $328 $333 forward $230 $-1 #
loop $-1 $-1 $322 $218 #
vertex $-1 $227 $334 #
vertex $-1 $145 $335 #
straight-curve $-1 23.793219120393999 25.566498086326039 13.602533806002526 0 -1 0 I I #
coedge $-1 $234 $234 $-1 $336 reversed $148 $-1 #
edge $-1 $337 0 $337 6.2831853071796004 $149 $338 forward 7 unknown #
vertex $-1 $152 $339 #
ellipse-curve $-1 28.440520417336671 38.720792064932553 10.679133854447446 0 0.52991927123019833 0.84804809178421925 1 0 0 1 I I #
coedge $-1 $238 $238 $-1 $340 reversed $155 $-1 #
edge $-1 $341 0 $341 6.2831853071796004 $156 $342 forward 7 unknown #
vertex $-1 $159 $343 #
ellipse-curve $-1 35.411472362750672 38.720792064932553 10.679133854447446 0 0.52991927123019833 0.84804809178421925 1 0 0 1 I I #
face $-1 $-1 $175 $24 $-1 $344 reversed single #
loop $-1 $-1 $258 $160 #
plane-surface $-1 0 43.399209863709679 0 0 -1 0 0 0 -1 forward_v I I I I #
coedge $-1 $345 $256 $259 $346 forward $161 $-1 #
coedge $-1 $262 $163 $164 $250 reversed $101 $-1 #
coedge $-1 $256 $345 $163 $248 reversed $161 $-1 #
edge $-1 $263 -13.602533806002526 $347 13.602533806002526 $247 $348 forward 7 unknown #
coedge $-1 $165 $164 $345 $349 forward $65 $-1 #
edge $-1 $254 -76.750389110995826 $347 76.750389110995826 $246 $350 forward 7 unknown #
coedge $-1 $259 $258 $165 $252 reversed $243 $-1 #
edge $-1 $351 -76.750389110995826 $253 76.750389110995826 $251 $352 forward 7 unknown #
vertex $-1 $167 $353 #
vertex $-1 $265 $354 #
straight-curve $-1 76.750389110995826 0 -13.602533806002526 0 -1 0 I I #
coedge $-1 $245 $247 $168 $257 reversed $161 $-1 #
edge $-1 $260 -43.399209863709679 $263 43.399209863709679 $256 $355 forward 7 unknown #
coedge $-1 $251 $169 $174 $266 forward $243 $-1 #
coedge $-1 $169 $251 $245 $346 reversed $243 $-1 #
vertex $-1 $170 $356 #
straight-curve $-1 0 43.399209863709679 13.602533806002526 -1 0 0 I I #
coedge $-1 $171 $246 $173 $265 reversed $101 $-1 #
vertex $-1 $257 $357 #
straight-curve $-1 0 -43.399209863709679 13.602533806002526 1 0 0 I I #
edge $-1 $176 -13.602533806002526 $254 13.602533806002526 $173 $358 forward 7 unknown #
edge $-1 $177 -13.602533806002526 $253 13.602533806002526 $174 $359 forward 7 unknown #
point $-1 76.750389110995826 -43.399209863709679 13.602533806002526 #
point $-1 76.750389110995826 43.399209863709679 13.602533806002526 #
face $-1 $-1 $279 $25 $-1 $360 reversed single #
loop $-1 $-1 $275 $179 #
plane-surface $-1 0 0 -13.602533806002526 0 0 1 1 0 0 forward_v I I I I #
coedge $-1 $361 $362 $187 $283 forward $180 $-1 #
coedge $-1 $182 $287 $277 $363 forward $109 $-1 #
edge $-1 $281 -22.57243453034755 $192 -19.081116136376707 $182 $364 forward 7 unknown #
coedge $-1 $365 $188 $183 $276 forward $270 $-1 #
edge $-1 $193 19.081116136376707 $280 22.57243453034755 $275 $366 forward 7 unknown #
coedge $-1 $367 $185 $273 $363 reversed $279 $-1 #
coedge $-1 $185 $367 $365 $368 reversed $279 $-1 #
loop $-1 $-1 $185 $269 #
vertex $-1 $368 $369 #
vertex $-1 $186 $370 #
straight-curve $-1 -61.925599125473134 -43.399209863709679 0 0 0 1 I I #
edge $-1 $288 -13.602533806002526 $285 13.602533806002526 $272 $371 forward 7 unknown #
coedge $-1 $188 $365 $361 $372 forward $270 $-1 #
vertex $-1 $189 $373 #
straight-curve $-1 -34.668997059117238 -39.907891469738836 -13.602533806002526 1 0 0 I I #
coedge $-1 $273 $190 $362 $374 forward $109 $-1 #
vertex $-1 $374 $375 #
straight-curve $-1 -34.668997059117238 -39.907891469738836 13.602533806002526 -1 0 0 I I #
point $-1 -61.925599125473134 -39.907891469738836 13.602533806002526 #
point $-1 -61.925599125473134 -39.907891469738836 -13.602533806002526 #
loop $-1 $-1 $203 $195 #
plane-surface $-1 0 -43.399209863709679 0 0 1 0 0 0 1 forward_v I I I I #
coedge $-1 $295 $198 $200 $299 reversed $117 $-1 #
coedge $-1 $198 $294 $376 $377 reversed $117 $-1 #
coedge $-1 $206 $201 $198 $297 forward $196 $-1 #
edge $-1 $300 -28.328740930032438 $378 -18.971905332478222 $296 $379 forward 7 unknown #
coedge $-1 $200 $199 $303 $380 reversed $73 $-1 #
edge $-1 $381 8.3790584163743152e-015 $300 11.033378517329432 $294 $382 forward 7 unknown #
vertex $-1 $202 $383 #
straight-curve $-1 15.962998195021832 -34.042374266155463 13.602533806002526 -1 0 0 I I #
coedge $-1 $376 $203 $206 $307 reversed $292 $-1 #
coedge $-1 $203 $376 $298 $380 forward $292 $-1 #
vertex $-1 $204 $384 #
straight-curve $-1 40.05877365969333 -43.399209863709679 68.965887980722528 0 0 1 I I #
straight-curve $-1 40.05877365969333 -43.399209863709686 7.7557339028923877 0 -0.84804809178421925 -0.52991927123019833 I I #
edge $-1 $378 23.793219120393999 $207 40.05877365969333 $302 $385 forward 7 unknown #
point $-1 40.05877365969333 -43.399209863709679 13.602533806002526 #
point $-1 40.05877365969333 -34.042374266155463 13.602533806002526 #
edge $-1 $386 1 $386 0 $210 $-1 forward 7 unknown #
vertex $-1 $211 $387 #
ellipse-curve $-1 28.440520417336671 -36.8597107973576 7.7007812952768147 0 -0.52991927123019833 0.84804809178421925 1 0 0 1 I I #
point $-1 29.440520417336671 -38.72079206493256 10.679133854447455 #
edge $-1 $388 1 $388 0 $214 $-1 forward 7 unknown #
vertex $-1 $215 $389 #
ellipse-curve $-1 35.411472362750672 -36.8597107973576 7.7007812952768147 0 -0.52991927123019833 0.84804809178421925 1 0 0 1 I I #
point $-1 36.411472362750672 -38.72079206493256 10.679133854447455 #
plane-surface $-1 0 0 13.602533806002526 0 0 1 1 0 0 forward_v I I I I #
coedge $-1 $329 $328 $321 $390 forward $219 $-1 #
coedge $-1 $321 $221 $223 $325 reversed $139 $-1 #
coedge $-1 $221 $320 $319 $390 reversed $139 $-1 #
coedge $-1 $229 $224 $221 $323 forward $230 $-1 #
edge $-1 $326 8.4758761798293882 $391 17.83271177738364 $322 $392 forward 7 unknown #
coedge $-1 $223 $222 $329 $393 reversed $87 $-1 #
edge $-1 $394 -86.798419727419372 $326 -75.76504121008989 $320 $395 forward 7 unknown #
vertex $-1 $225 $396 #
straight-curve $-1 15.962998195021832 34.042374266155441 13.602533806002523 1 0 0 I I #
coedge $-1 $319 $226 $229 $333 reversed $219 $-1 #
coedge $-1 $226 $319 $324 $393 forward $219 $-1 #
vertex $-1 $227 $397 #
straight-curve $-1 23.793219120393999 43.399209863709679 91.963965643665986 0 0 1 I I #
straight-curve $-1 23.793219120393999 -30.210024356014038 53.751889228779305 0 0.84804809178421925 -0.52991927123019833 I I #
edge $-1 $391 -40.05877365969333 $231 -23.793219120393999 $328 $398 forward 7 unknown #
point $-1 23.793219120393999 43.399209863709679 13.602533806002526 #
point $-1 23.793219120393999 34.042374266155427 13.602533806002526 #
edge $-1 $399 1 $399 0 $234 $-1 forward 7 unknown #
vertex $-1 $235 $400 #
ellipse-curve $-1 28.440520417336671 36.8597107973576 7.7007812952768182 0 0.52991927123019833 0.84804809178421925 1 0 0 1 I I #
point $-1 29.440520417336671 38.72079206493256 10.679133854447459 #
edge $-1 $401 1 $401 0 $238 $-1 forward 7 unknown #
vertex $-1 $239 $402 #
ellipse-curve $-1 35.411472362750672 36.8597107973576 7.7007812952768182 0 0.52991927123019833 0.84804809178421925 1 0 0 1 I I #
point $-1 36.411472362750672 38.72079206493256 10.679133854447459 #
plane-surface $-1 76.750389110995826 0 0 -1 0 0 0 0 1 forward_v I I I I #
coedge $-1 $247 $245 $249 $349 reversed $161 $-1 #
edge $-1 $260 -13.602533806002526 $351 13.602533806002526 $259 $403 forward 7 unknown #
vertex $-1 $349 $404 #
straight-curve $-1 -76.750389110995826 -43.399209863709679 0 0 0 -1 I I #
edge $-1 $347 -43.399209863709679 $351 43.399209863709679 $345 $405 forward 7 unknown #
straight-curve $-1 0 -43.399209863709679 -13.602533806002526 -1 0 0 I I #
vertex $-1 $252 $406 #
straight-curve $-1 0 43.399209863709679 -13.602533806002526 1 0 0 I I #
point $-1 76.750389110995826 43.399209863709679 -13.602533806002526 #
point $-1 76.750389110995826 -43.399209863709679 -13.602533806002526 #
straight-curve $-1 -76.750389110995826 0 13.602533806002526 0 -1 0 I I #
point $-1 -76.750389110995826 43.399209863709679 13.602533806002526 #
point $-1 -76.750389110995826 -43.399209863709679 13.602533806002526 #
straight-curve $-1 76.750389110995826 -43.399209863709679 0 0 0 -1 I I #
straight-curve $-1 76.750389110995826 43.399209863709679 0 0 0 -1 I I #
plane-surface $-1 0 -43.399209863709679 0 0 1 0 0 0 1 forward_v I I I I #
coedge $-1 $407 $272 $284 $372 reversed $180 $-1 #
coedge $-1 $272 $407 $287 $374 reversed $180 $-1 #
edge $-1 $408 -76.750389110995826 $281 -61.925599125473134 $277 $409 forward 7 unknown #
straight-curve $-1 -61.925599125473134 -20.826775333362129 13.602533806002526 0 1 0 I I #
coedge $-1 $284 $275 $278 $368 forward $270 $-1 #
straight-curve $-1 -61.925599125473134 -20.826775333362129 -13.602533806002526 0 -1 0 I I #
coedge $-1 $278 $277 $407 $410 forward $279 $-1 #
edge $-1 $280 61.925599125473134 $411 76.750389110995826 $278 $412 forward 7 unknown #
point $-1 -61.925599125473134 -43.399209863709679 -13.602533806002526 #
point $-1 -61.925599125473134 -43.399209863709679 13.602533806002526 #
straight-curve $-1 -76.750389110995826 -39.907891469738836 0 0 0 -1 I I #
edge $-1 $411 -43.399209863709679 $285 -39.907891469738836 $361 $413 forward 7 unknown #
point $-1 -76.750389110995826 -39.907891469738836 -13.602533806002526 #
edge $-1 $288 39.907891469738836 $408 43.399209863709679 $362 $414 forward 7 unknown #
point $-1 -76.750389110995826 -39.907891469738836 13.602533806002526 #
coedge $-1 $303 $302 $295 $377 forward $292 $-1 #
edge $-1 $378 55.363354174720001 $381 61.210154077830133 $376 $415 forward 7 unknown #
vertex $-1 $307 $416 #
straight-curve $-1 23.793219120393999 -62.371115196187901 13.602533806002526 0 -1 0 I I #
edge $-1 $381 7.8302209253721671 $304 24.095775464671497 $303 $417 forward 7 unknown #
vertex $-1 $380 $418 #
straight-curve $-1 23.793219120393999 -43.399209863709686 7.7557339028923877 0 0.84804809178421925 0.52991927123019833 I I #
point $-1 23.793219120393999 -34.042374266155463 13.602533806002526 #
point $-1 40.05877365969333 -43.399209863709679 7.7557339028923922 #
straight-curve $-1 0 -43.399209863709679 13.602533806002526 1 0 0 I I #
vertex $-1 $310 $419 #
point $-1 29.440520417336671 -36.8597107973576 7.7007812952768147 #
vertex $-1 $314 $420 #
point $-1 36.411472362750672 -36.8597107973576 7.7007812952768147 #
edge $-1 $391 78.36143183766346 $394 84.208231740773613 $319 $421 forward 7 unknown #
vertex $-1 $333 $422 #
straight-curve $-1 40.05877365969333 25.566498086326039 13.602533806002526 0 1 0 I I #
edge $-1 $394 -24.095775464671497 $330 -7.8302209253721671 $329 $423 forward 7 unknown #
vertex $-1 $393 $424 #
straight-curve $-1 40.05877365969333 -30.210024356014038 53.751889228779305 0 -0.84804809178421925 0.52991927123019833 I I #
point $-1 40.05877365969333 34.042374266155427 13.602533806002526 #
point $-1 23.793219120393999 43.399209863709679 7.7557339028923664 #
straight-curve $-1 0 43.399209863709679 13.602533806002526 -1 0 0 I I #
vertex $-1 $336 $425 #
point $-1 29.440520417336671 36.8597107973576 7.7007812952768182 #
vertex $-1 $340 $426 #
point $-1 36.411472362750672 36.8597107973576 7.7007812952768182 #
straight-curve $-1 -76.750389110995826 43.399209863709679 0 0 0 -1 I I #
point $-1 -76.750389110995826 -43.399209863709679 -13.602533806002526 #
straight-curve $-1 -76.750389110995826 0 -13.602533806002526 0 1 0 I I #
point $-1 -76.750389110995826 43.399209863709679 -13.602533806002526 #
coedge $-1 $362 $361 $367 $410 reversed $180 $-1 #
vertex $-1 $374 $427 #
straight-curve $-1 0 -43.399209863709679 13.602533806002526 1 0 0 I I #
edge $-1 $408 -13.602533806002526 $411 13.602533806002526 $407 $428 forward 7 unknown #
vertex $-1 $372 $429 #
straight-curve $-1 0 -43.399209863709679 -13.602533806002526 -1 0 0 I I #
straight-curve $-1 -76.750389110995826 0 -13.602533806002526 0 1 0 I I #
straight-curve $-1 -76.750389110995826 0 13.602533806002526 0 -1 0 I I #
straight-curve $-1 23.793219120393999 -43.399209863709679 68.965887980722528 0 0 -1 I I #
point $-1 23.793219120393999 -43.399209863709679 13.602533806002526 #
straight-curve $-1 15.962998195021832 -43.399209863709679 7.7557339028923966 1 0 0 I I #
point $-1 23.793219120393999 -43.399209863709679 7.7557339028923922 #
point $-1 28.440520417336671 -36.329791526127401 6.852733203492595 #
point $-1 35.411472362750672 -36.329791526127401 6.852733203492595 #
straight-curve $-1 40.05877365969333 43.399209863709679 91.963965643665986 0 0 -1 I I #
point $-1 40.05877365969333 43.399209863709679 13.602533806002526 #
straight-curve $-1 15.962998195021832 43.399209863709686 7.7557339028923664 -1 0 0 I I #
point $-1 40.05877365969333 43.399209863709679 7.7557339028923664 #
point $-1 28.440520417336671 36.329791526127401 6.8527332034925985 #
point $-1 35.411472362750672 36.329791526127401 6.8527332034925985 #
point $-1 -76.750389110995826 -43.399209863709679 13.602533806002526 #
straight-curve $-1 -76.750389110995826 -43.399209863709679 0 0 0 -1 I I #
point $-1 -76.750389110995826 -43.399209863709679 -13.602533806002526 #
End-of-ACIS-data 