500 0 11 0           
7 Unknown 11 ACIS 5.0 NT 24 Fri Mar 26 00:36:58 1999 
-1 9.9999999999999995e-007 1e-010 
body $-1 $11 $-1 $12 #
body $-1 $13 $-1 $14 #
body $-1 $15 $-1 $16 #
body $-1 $17 $-1 $18 #
body $-1 $19 $-1 $20 #
body $-1 $21 $-1 $22 #
body $-1 $23 $-1 $24 #
body $-1 $25 $-1 $26 #
body $-1 $27 $-1 $28 #
body $-1 $29 $-1 $30 #
body $-1 $31 $-1 $32 #
lump $-1 $-1 $33 $0 #
transform $-1 1 0 0 0 1 0 0 0 1 72.195806756797992 33.46957677296718 12.653107769253547 1 rotate no_reflect no_shear #
lump $-1 $-1 $34 $1 #
transform $-1 1 0 0 0 1 0 0 0 1 72.195806756797992 33.46957677296718 12.653107769253547 1 rotate no_reflect no_shear #
lump $-1 $-1 $35 $2 #
transform $-1 1 0 0 0 1 0 0 0 1 72.195806756797992 33.46957677296718 12.653107769253547 1 rotate no_reflect no_shear #
lump $-1 $-1 $36 $3 #
transform $-1 1 0 0 0 1 0 0 0 1 72.195806756797992 33.46957677296718 12.653107769253547 1 rotate no_reflect no_shear #
lump $-1 $-1 $37 $4 #
transform $-1 1 0 0 0 1 0 0 0 1 72.195806756797992 33.46957677296718 12.653107769253547 1 rotate no_reflect no_shear #
lump $-1 $-1 $38 $5 #
transform $-1 1 0 0 0 1 0 0 0 1 72.195806756797992 33.46957677296718 12.653107769253547 1 rotate no_reflect no_shear #
lump $-1 $-1 $39 $6 #
transform $-1 1 0 0 0 1 0 0 0 1 72.195806756797992 33.46957677296718 12.653107769253547 1 rotate no_reflect no_shear #
lump $-1 $-1 $40 $7 #
transform $-1 1 0 0 0 1 0 0 0 1 72.195806756797992 33.46957677296718 12.653107769253547 1 rotate no_reflect no_shear #
lump $-1 $-1 $41 $8 #
transform $-1 1 0 0 0 1 0 0 0 1 72.195806756797992 33.46957677296718 12.653107769253547 1 rotate no_reflect no_shear #
lump $-1 $-1 $42 $9 #
transform $-1 1 0 0 0 1 0 0 0 1 72.195806756797992 33.46957677296718 12.653107769253547 1 rotate no_reflect no_shear #
lump $-1 $-1 $43 $10 #
transform $-1 1 0 0 0 1 0 0 0 1 72.195806756797992 33.46957677296718 12.653107769253547 1 rotate no_reflect no_shear #
shell $-1 $-1 $-1 $44 $-1 $11 #
shell $-1 $-1 $-1 $45 $-1 $13 #
shell $-1 $-1 $-1 $46 $-1 $15 #
shell $-1 $-1 $-1 $47 $-1 $17 #
shell $-1 $-1 $-1 $48 $-1 $19 #
shell $-1 $-1 $-1 $49 $-1 $21 #
shell $-1 $-1 $-1 $50 $-1 $23 #
shell $-1 $-1 $-1 $51 $-1 $25 #
shell $-1 $-1 $-1 $52 $-1 $27 #
shell $-1 $-1 $-1 $53 $-1 $29 #
shell $-1 $-1 $-1 $54 $-1 $31 #
face $-1 $55 $56 $33 $-1 $57 forward single #
face $-1 $58 $59 $34 $-1 $60 reversed single #
face $-1 $61 $62 $35 $-1 $63 forward single #
face $-1 $64 $65 $36 $-1 $66 reversed single #
face $-1 $67 $68 $37 $-1 $69 forward single #
face $-1 $70 $71 $38 $-1 $72 forward single #
face $-1 $73 $74 $39 $-1 $75 forward single #
face $-1 $76 $77 $40 $-1 $78 reversed single #
face $-1 $79 $80 $41 $-1 $81 forward single #
face $-1 $82 $83 $42 $-1 $84 forward single #
face $-1 $85 $86 $43 $-1 $87 forward single #
face $-1 $88 $89 $33 $-1 $90 reversed single #
loop $-1 $-1 $91 $44 #
plane-surface $-1 0 0 12.653107769253547 0 0 1 1 0 0 forward_v I I I I #
face $-1 $92 $93 $34 $-1 $94 reversed single #
loop $-1 $-1 $95 $45 #
plane-surface $-1 0 -27.537035111380597 5.6693584101404753 0 0 1 1 0 0 forward_v I I I I #
face $-1 $96 $97 $35 $-1 $98 reversed single #
loop $-1 $-1 $99 $46 #
plane-surface $-1 0 33.46957677296718 0 0 -1 0 0 0 -1 forward_v I I I I #
face $-1 $100 $101 $36 $-1 $102 reversed single #
loop $-1 $-1 $103 $47 #
plane-surface $-1 -177.79714897607096 -0.064987931588049719 99.201911344922451 0 1 0 -0.73135370988377701 0 0.68199835119979291 forward_v I I I I #
face $-1 $104 $105 $37 $-1 $106 forward single #
loop $-1 $107 $108 $48 #
cone-surface $-1 -65.95393333523127 1.7764268079313013 6.0547956923475779 0.73135370988377701 0 -0.68199835119979291 0.34099917559989645 0 0.36567685494188851 1 I I 0 1 0.5 forward I I I I #
face $-1 $109 $110 $38 $-1 $111 forward single #
loop $-1 $112 $113 $49 #
cone-surface $-1 -65.95393333523127 4.5385489172103206 6.0547956923475779 0.73135370988377701 0 -0.68199835119979291 0.34099917559989645 0 0.36567685494188851 1 I I 0 1 0.5 forward I I I I #
face $-1 $114 $115 $39 $-1 $116 forward single #
loop $-1 $117 $118 $50 #
cone-surface $-1 -65.95393333523127 7.30067102648934 6.0547956923475779 0.73135370988377701 0 -0.68199835119979291 0.34099917559989645 0 0.36567685494188851 1 I I 0 1 0.5 forward I I I I #
face $-1 $119 $120 $40 $-1 $121 reversed single #
loop $-1 $-1 $122 $51 #
plane-surface $-1 79.322306632720739 9.1420857660086909 204.80325356419536 0 -1 0 -0.73135370988377701 0 -0.68199835119979291 forward_v I I I I #
face $-1 $123 $124 $41 $-1 $125 forward single #
loop $-1 $126 $127 $52 #
cone-surface $-1 65.953933335231241 1.7764268079313013 6.0547956923475779 -0.73135370988377701 0 -0.68199835119979291 0.34099917559989645 0 -0.36567685494188851 1 I I 0 1 0.5 forward I I I I #
face $-1 $128 $129 $42 $-1 $130 forward single #
loop $-1 $131 $132 $53 #
cone-surface $-1 65.953933335231241 4.5385489172103206 6.0547956923475779 -0.73135370988377701 0 -0.68199835119979291 0.34099917559989645 0 -0.36567685494188851 1 I I 0 1 0.5 forward I I I I #
face $-1 $133 $134 $43 $-1 $135 forward single #
loop $-1 $136 $137 $54 #
cone-surface $-1 65.953933335231241 7.30067102648934 6.0547956923475779 -0.73135370988377701 0 -0.68199835119979291 0.34099917559989645 0 -0.36567685494188851 1 I I 0 1 0.5 forward I I I I #
face $-1 $138 $139 $33 $-1 $140 reversed single #
loop $-1 $-1 $141 $55 #
plane-surface $-1 0 0 -12.653107769253547 0 0 1 1 0 0 forward_v I I I I #
coedge $-1 $142 $143 $144 $145 forward $56 $-1 #
face $-1 $146 $147 $34 $-1 $148 reversed single #
loop $-1 $-1 $149 $58 #
plane-surface $-1 0 -21.604493449794013 9.1612330896970118 0 -1 0 0 0 -1 forward_v I I I I #
coedge $-1 $150 $151 $152 $153 reversed $59 $-1 #
face $-1 $154 $155 $35 $-1 $156 forward single #
loop $-1 $-1 $157 $61 #
plane-surface $-1 72.195806756797992 0 0 -1 0 0 0 0 1 forward_v I I I I #
coedge $-1 $158 $159 $160 $161 forward $62 $-1 #
face $-1 $162 $163 $36 $-1 $164 reversed single #
loop $-1 $-1 $165 $64 #
plane-surface $-1 -72.195806756798021 4.5385489172103206 0.72706900157224652 -0.73135370988377701 0 0.68199835119979291 0.68199835119979291 0 0.73135370988377701 forward_v I I I I #
coedge $-1 $166 $167 $168 $169 reversed $65 $-1 #
face $-1 $-1 $170 $37 $-1 $171 forward single #
loop $-1 $172 $173 $67 #
cone-surface $-1 -65.089826885457938 1.7764268079313013 5.2490034114823114 0.73135370988377701 0 -0.68199835119979291 0.17049958779994823 0 0.18283842747094425 1 I I -0.70710678118654746 0.70710678118654746 0.25 forward I I I I #
loop $-1 $-1 $174 $48 #
coedge $-1 $108 $108 $175 $176 reversed $68 $-1 #
face $-1 $-1 $177 $38 $-1 $178 forward single #
loop $-1 $179 $180 $70 #
cone-surface $-1 -65.089826885457938 4.5385489172103206 5.2490034114823114 0.73135370988377701 0 -0.68199835119979291 0.17049958779994823 0 0.18283842747094425 1 I I -0.70710678118654746 0.70710678118654746 0.25 forward I I I I #
loop $-1 $-1 $181 $49 #
coedge $-1 $113 $113 $182 $183 reversed $71 $-1 #
face $-1 $-1 $184 $39 $-1 $185 forward single #
loop $-1 $186 $187 $73 #
cone-surface $-1 -65.089826885457938 7.30067102648934 5.2490034114823114 0.73135370988377701 0 -0.68199835119979291 0.17049958779994823 0 0.18283842747094425 1 I I -0.70710678118654746 0.70710678118654746 0.25 forward I I I I #
loop $-1 $-1 $188 $50 #
coedge $-1 $118 $118 $189 $190 reversed $74 $-1 #
face $-1 $191 $192 $40 $-1 $193 reversed single #
loop $-1 $-1 $194 $76 #
plane-surface $-1 -26.279035586552197 4.5385489172103206 106.32841122084515 0.73135370988377701 0 0.68199835119979291 0.68199835119979291 0 -0.73135370988377701 forward_v I I I I #
coedge $-1 $195 $196 $197 $198 reversed $77 $-1 #
face $-1 $-1 $199 $41 $-1 $200 forward single #
loop $-1 $201 $202 $79 #
cone-surface $-1 65.08982688545791 1.7764268079313013 5.2490034114823114 -0.73135370988377701 0 -0.68199835119979291 0.17049958779994823 0 -0.18283842747094425 1 I I -0.70710678118654746 0.70710678118654746 0.25 forward I I I I #
loop $-1 $-1 $203 $52 #
coedge $-1 $127 $127 $204 $205 reversed $80 $-1 #
face $-1 $-1 $206 $42 $-1 $207 forward single #
loop $-1 $208 $209 $82 #
cone-surface $-1 65.08982688545791 4.5385489172103206 5.2490034114823114 -0.73135370988377701 0 -0.68199835119979291 0.17049958779994823 0 -0.18283842747094425 1 I I -0.70710678118654746 0.70710678118654746 0.25 forward I I I I #
loop $-1 $-1 $210 $53 #
coedge $-1 $132 $132 $211 $212 reversed $83 $-1 #
face $-1 $-1 $213 $43 $-1 $214 forward single #
loop $-1 $215 $216 $85 #
cone-surface $-1 65.08982688545791 7.30067102648934 5.2490034114823114 -0.73135370988377701 0 -0.68199835119979291 0.17049958779994823 0 -0.18283842747094425 1 I I -0.70710678118654746 0.70710678118654746 0.25 forward I I I I #
loop $-1 $-1 $217 $54 #
coedge $-1 $137 $137 $218 $219 reversed $86 $-1 #
face $-1 $220 $221 $33 $-1 $222 reversed single #
loop $-1 $-1 $223 $88 #
plane-surface $-1 0 -33.46957677296718 0 0 1 0 0 0 1 forward_v I I I I #
coedge $-1 $224 $225 $226 $227 forward $89 $-1 #
coedge $-1 $228 $91 $229 $230 forward $56 $-1 #
coedge $-1 $91 $228 $231 $232 forward $56 $-1 #
coedge $-1 $233 $234 $91 $145 reversed $235 $-1 #
edge $-1 $236 -33.46957677296718 $237 33.46957677296718 $144 $238 forward 7 unknown #
face $-1 $239 $240 $34 $-1 $241 reversed single #
loop $-1 $-1 $242 $92 #
plane-surface $-1 -72.195806756797992 0 0 1 0 0 0 0 -1 forward_v I I I I #
coedge $-1 $243 $244 $245 $246 reversed $93 $-1 #
coedge $-1 $247 $95 $248 $249 reversed $59 $-1 #
coedge $-1 $95 $247 $243 $250 forward $59 $-1 #
coedge $-1 $245 $251 $95 $153 forward $252 $-1 #
edge $-1 $253 -19.701059217276882 $254 -7.835975894103715 $152 $255 forward 7 unknown #
face $-1 $256 $257 $35 $-1 $258 reversed single #
loop $-1 $-1 $259 $96 #
plane-surface $-1 0 41.709253367064242 -3.1914055111429698 0 0 1 1 0 0 forward_v I I I I #
coedge $-1 $260 $261 $159 $262 forward $97 $-1 #
coedge $-1 $263 $99 $264 $265 reversed $62 $-1 #
coedge $-1 $99 $263 $157 $262 reversed $62 $-1 #
coedge $-1 $259 $266 $99 $161 reversed $155 $-1 #
edge $-1 $267 -72.195806756797992 $268 72.195806756797992 $160 $269 forward 7 unknown #
face $-1 $270 $271 $36 $-1 $272 reversed single #
loop $-1 $-1 $273 $100 #
plane-surface $-1 -177.79714897607096 9.1420857660086909 99.201911344922451 0 -1 0 0.73135370988377701 0 -0.68199835119979291 forward_v I I I I #
coedge $-1 $274 $275 $276 $277 reversed $101 $-1 #
coedge $-1 $167 $103 $278 $279 reversed $65 $-1 #
coedge $-1 $103 $166 $274 $280 reversed $65 $-1 #
coedge $-1 $276 $281 $103 $169 forward $282 $-1 #
edge $-1 $283 16.702767731237486 $284 27.823978529766116 $168 $285 forward 7 unknown #
loop $-1 $-1 $175 $104 #
plane-surface $-1 -72.195806756798021 4.5385489172103206 0.72706900157224652 -0.73135370988377701 0 0.68199835119979291 0.68199835119979291 0 0.73135370988377701 forward_v I I I I #
loop $-1 $-1 $286 $67 #
coedge $-1 $173 $173 $174 $287 reversed $105 $-1 #
coedge $-1 $174 $174 $173 $287 forward $107 $-1 #
coedge $-1 $175 $175 $108 $176 forward $170 $-1 #
edge $-1 $288 0 $288 6.2831853071796004 $175 $289 forward 7 unknown #
loop $-1 $-1 $182 $109 #
plane-surface $-1 -72.195806756798021 4.5385489172103206 0.72706900157224652 -0.73135370988377701 0 0.68199835119979291 0.68199835119979291 0 0.73135370988377701 forward_v I I I I #
loop $-1 $-1 $290 $70 #
coedge $-1 $180 $180 $181 $291 reversed $110 $-1 #
coedge $-1 $181 $181 $180 $291 forward $112 $-1 #
coedge $-1 $182 $182 $113 $183 forward $177 $-1 #
edge $-1 $292 0 $292 6.2831853071796004 $182 $293 forward 7 unknown #
loop $-1 $-1 $189 $114 #
plane-surface $-1 -72.195806756798021 4.5385489172103206 0.72706900157224652 -0.73135370988377701 0 0.68199835119979291 0.68199835119979291 0 0.73135370988377701 forward_v I I I I #
loop $-1 $-1 $294 $73 #
coedge $-1 $187 $187 $188 $295 reversed $115 $-1 #
coedge $-1 $188 $188 $187 $295 forward $117 $-1 #
coedge $-1 $189 $189 $118 $190 forward $184 $-1 #
edge $-1 $296 0 $296 6.2831853071796004 $189 $297 forward 7 unknown #
face $-1 $298 $299 $40 $-1 $300 forward single #
loop $-1 $-1 $301 $119 #
plane-surface $-1 79.322306632720739 -0.064987931588049719 204.80325356419536 0 1 0 0.73135370988377701 0 0.68199835119979291 forward_v I I I I #
coedge $-1 $302 $303 $304 $305 reversed $120 $-1 #
coedge $-1 $196 $122 $306 $307 reversed $77 $-1 #
coedge $-1 $122 $195 $302 $308 reversed $77 $-1 #
coedge $-1 $304 $309 $122 $198 forward $299 $-1 #
edge $-1 $310 -32.534653440437623 $311 -21.413442641908944 $197 $312 forward 7 unknown #
loop $-1 $-1 $204 $123 #
plane-surface $-1 -26.279035586552197 4.5385489172103206 106.32841122084515 0.73135370988377701 0 0.68199835119979291 0.68199835119979291 0 -0.73135370988377701 forward_v I I I I #
loop $-1 $-1 $313 $79 #
coedge $-1 $202 $202 $203 $314 reversed $124 $-1 #
coedge $-1 $203 $203 $202 $314 forward $126 $-1 #
coedge $-1 $204 $204 $127 $205 forward $199 $-1 #
edge $-1 $315 0 $315 6.2831853071796004 $204 $316 forward 7 unknown #
loop $-1 $-1 $211 $128 #
plane-surface $-1 -26.279035586552197 4.5385489172103206 106.32841122084515 0.73135370988377701 0 0.68199835119979291 0.68199835119979291 0 -0.73135370988377701 forward_v I I I I #
loop $-1 $-1 $317 $82 #
coedge $-1 $209 $209 $210 $318 reversed $129 $-1 #
coedge $-1 $210 $210 $209 $318 forward $131 $-1 #
coedge $-1 $211 $211 $132 $212 forward $206 $-1 #
edge $-1 $319 0 $319 6.2831853071796004 $211 $320 forward 7 unknown #
loop $-1 $-1 $218 $133 #
plane-surface $-1 -26.279035586552197 4.5385489172103206 106.32841122084515 0.73135370988377701 0 0.68199835119979291 0.68199835119979291 0 -0.73135370988377701 forward_v I I I I #
loop $-1 $-1 $321 $85 #
coedge $-1 $216 $216 $217 $322 reversed $134 $-1 #
coedge $-1 $217 $217 $216 $322 forward $136 $-1 #
coedge $-1 $218 $218 $137 $219 forward $213 $-1 #
edge $-1 $323 0 $323 6.2831853071796004 $218 $324 forward 7 unknown #
face $-1 $325 $326 $33 $-1 $327 reversed single #
loop $-1 $-1 $328 $138 #
plane-surface $-1 -72.195806756797992 0 0 1 0 0 0 0 -1 forward_v I I I I #
coedge $-1 $329 $231 $330 $331 forward $139 $-1 #
coedge $-1 $332 $141 $329 $333 forward $89 $-1 #
coedge $-1 $141 $332 $334 $335 forward $89 $-1 #
coedge $-1 $234 $233 $141 $227 reversed $235 $-1 #
edge $-1 $336 -33.46957677296718 $337 33.46957677296718 $226 $338 forward 7 unknown #
coedge $-1 $143 $142 $339 $340 forward $56 $-1 #
coedge $-1 $341 $342 $142 $230 reversed $326 $-1 #
edge $-1 $237 -72.195806756797992 $343 72.195806756797992 $229 $344 forward 7 unknown #
coedge $-1 $223 $345 $143 $232 reversed $139 $-1 #
edge $-1 $346 -72.195806756797992 $236 72.195806756797992 $231 $347 forward 7 unknown #
coedge $-1 $226 $144 $345 $348 forward $235 $-1 #
coedge $-1 $144 $226 $341 $349 reversed $235 $-1 #
loop $-1 $-1 $233 $325 #
vertex $-1 $145 $350 #
vertex $-1 $145 $351 #
straight-curve $-1 72.195806756797992 0 12.653107769253547 0 1 0 I I #
face $-1 $352 $353 $34 $-1 $354 forward single #
loop $-1 $-1 $248 $146 #
plane-surface $-1 0 -33.46957677296718 0 0 1 0 0 0 1 forward_v I I I I #
coedge $-1 $355 $356 $357 $358 forward $147 $-1 #
coedge $-1 $357 $149 $151 $250 reversed $93 $-1 #
coedge $-1 $149 $357 $359 $360 reversed $93 $-1 #
coedge $-1 $361 $152 $149 $246 forward $252 $-1 #
edge $-1 $254 1.0887418652919694 $362 8.0724912244050415 $245 $363 forward 7 unknown #
coedge $-1 $151 $150 $355 $364 reversed $59 $-1 #
coedge $-1 $365 $366 $150 $249 forward $240 $-1 #
edge $-1 $367 -72.195806756797992 $253 72.195806756797992 $248 $368 forward 7 unknown #
edge $-1 $369 -72.195806756797992 $254 72.195806756797992 $243 $370 forward 7 unknown #
coedge $-1 $152 $361 $365 $371 forward $252 $-1 #
loop $-1 $-1 $245 $352 #
vertex $-1 $249 $372 #
vertex $-1 $153 $373 #
straight-curve $-1 72.195806756797992 -13.768517555690298 5.6693584101404753 0 1 0 I I #
face $-1 $374 $375 $35 $-1 $376 reversed single #
loop $-1 $-1 $377 $154 #
plane-surface $-1 0 41.709253367064242 -6.1914055111429693 0 0 1 1 0 0 forward_v I I I I #
coedge $-1 $378 $160 $261 $379 forward $155 $-1 #
coedge $-1 $380 $157 $377 $381 reversed $97 $-1 #
coedge $-1 $157 $380 $259 $379 reversed $97 $-1 #
edge $-1 $267 3.1914055111429698 $382 6.1914055111429693 $157 $383 forward 7 unknown #
coedge $-1 $159 $158 $384 $385 forward $62 $-1 #
coedge $-1 $386 $387 $158 $265 forward $388 $-1 #
edge $-1 $389 -6.1914055111429693 $268 -3.1914055111429698 $264 $390 forward 7 unknown #
coedge $-1 $160 $378 $386 $391 forward $155 $-1 #
vertex $-1 $262 $392 #
vertex $-1 $391 $393 #
straight-curve $-1 0 33.46957677296718 -3.1914055111429698 -1 0 0 I I #
face $-1 $-1 $282 $36 $-1 $394 forward single #
loop $-1 $-1 $395 $162 #
plane-surface $-1 -72.195806756797992 0 0 1 0 0 0 0 -1 forward_v I I I I #
coedge $-1 $396 $397 $398 $399 reversed $163 $-1 #
coedge $-1 $400 $165 $167 $280 forward $101 $-1 #
coedge $-1 $165 $400 $396 $401 forward $101 $-1 #
coedge $-1 $398 $168 $165 $277 forward $282 $-1 #
edge $-1 $284 -2.33426239019321 $402 6.8728113074035306 $276 $403 forward 7 unknown #
coedge $-1 $404 $405 $166 $279 forward $271 $-1 #
edge $-1 $406 -48.87388667088895 $283 -36.947847903207681 $278 $407 forward 7 unknown #
edge $-1 $284 -16.306800124903344 $406 -4.1712616485910034e-014 $167 $408 forward 7 unknown #
coedge $-1 $168 $398 $404 $409 forward $282 $-1 #
loop $-1 $-1 $398 $270 #
vertex $-1 $279 $410 #
vertex $-1 $169 $411 #
straight-curve $-1 -88.898574488035479 -0.064987931588049719 12.653107769253545 1 0 0 I I #
coedge $-1 $286 $286 $-1 $412 reversed $172 $-1 #
edge $-1 $413 0 $413 6.2831853071796004 $173 $414 forward 7 unknown #
vertex $-1 $176 $415 #
ellipse-curve $-1 -66.635201357533674 1.7764268079313013 6.6900883854129098 -0.73135370988377701 0 0.68199835119979291 0.34099917559989645 0 0.36567685494188851 1 I I #
coedge $-1 $290 $290 $-1 $416 reversed $179 $-1 #
edge $-1 $417 0 $417 6.2831853071796004 $180 $418 forward 7 unknown #
vertex $-1 $183 $419 #
ellipse-curve $-1 -66.635201357533674 4.5385489172103206 6.6900883854129098 -0.73135370988377701 0 0.68199835119979291 0.34099917559989645 0 0.36567685494188851 1 I I #
coedge $-1 $294 $294 $-1 $420 reversed $186 $-1 #
edge $-1 $421 0 $421 6.2831853071796004 $187 $422 forward 7 unknown #
vertex $-1 $190 $423 #
ellipse-curve $-1 -66.635201357533674 7.30067102648934 6.6900883854129098 -0.73135370988377701 0 0.68199835119979291 0.34099917559989645 0 0.36567685494188851 1 I I #
face $-1 $-1 $424 $40 $-1 $425 reversed single #
loop $-1 $-1 $197 $191 #
plane-surface $-1 0 0 12.653107769253547 0 0 1 1 0 0 forward_v I I I I #
coedge $-1 $426 $427 $428 $429 reversed $192 $-1 #
coedge $-1 $430 $194 $196 $308 forward $120 $-1 #
coedge $-1 $194 $430 $426 $431 forward $120 $-1 #
coedge $-1 $428 $197 $194 $305 forward $299 $-1 #
edge $-1 $311 -6.8728113074035306 $432 2.33426239019321 $304 $433 forward 7 unknown #
coedge $-1 $434 $435 $195 $307 forward $424 $-1 #
edge $-1 $436 -101.67455778052546 $310 -89.748519012844127 $306 $437 forward 7 unknown #
edge $-1 $311 128.08481338869257 $436 144.39161351359598 $196 $438 forward 7 unknown #
coedge $-1 $197 $428 $434 $439 forward $299 $-1 #
vertex $-1 $198 $440 #
vertex $-1 $198 $441 #
straight-curve $-1 39.66115331636037 9.1420857660086909 12.653107769253552 -1 0 0 I I #
coedge $-1 $313 $313 $-1 $442 reversed $201 $-1 #
edge $-1 $443 0 $443 6.2831853071796004 $202 $444 forward 7 unknown #
vertex $-1 $205 $445 #
ellipse-curve $-1 66.635201357533631 1.7764268079313013 6.6900883854128974 0.73135370988377701 0 0.68199835119979291 0.34099917559989645 0 -0.36567685494188851 1 I I #
coedge $-1 $317 $317 $-1 $446 reversed $208 $-1 #
edge $-1 $447 0 $447 6.2831853071796004 $209 $448 forward 7 unknown #
vertex $-1 $212 $449 #
ellipse-curve $-1 66.635201357533631 4.5385489172103206 6.6900883854128974 0.73135370988377701 0 0.68199835119979291 0.34099917559989645 0 -0.36567685494188851 1 I I #
coedge $-1 $321 $321 $-1 $450 reversed $215 $-1 #
edge $-1 $451 0 $451 6.2831853071796004 $216 $452 forward 7 unknown #
vertex $-1 $219 $453 #
ellipse-curve $-1 66.635201357533631 7.30067102648934 6.6900883854128974 0.73135370988377701 0 0.68199835119979291 0.34099917559989645 0 -0.36567685494188851 1 I I #
face $-1 $-1 $235 $33 $-1 $454 reversed single #
loop $-1 $-1 $342 $220 #
plane-surface $-1 0 33.46957677296718 0 0 -1 0 0 0 -1 forward_v I I I I #
coedge $-1 $455 $339 $342 $456 forward $221 $-1 #
coedge $-1 $345 $223 $224 $333 reversed $139 $-1 #
coedge $-1 $339 $455 $223 $331 reversed $221 $-1 #
edge $-1 $346 -12.653107769253547 $457 12.653107769253547 $330 $458 forward 7 unknown #
coedge $-1 $225 $224 $455 $459 forward $89 $-1 #
edge $-1 $337 -72.195806756797992 $457 72.195806756797992 $329 $460 forward 7 unknown #
coedge $-1 $342 $341 $225 $335 reversed $326 $-1 #
edge $-1 $461 -72.195806756797992 $336 72.195806756797992 $334 $462 forward 7 unknown #
vertex $-1 $227 $463 #
vertex $-1 $348 $464 #
straight-curve $-1 72.195806756797992 0 -12.653107769253547 0 -1 0 I I #
coedge $-1 $328 $330 $228 $340 reversed $221 $-1 #
edge $-1 $343 -33.46957677296718 $346 33.46957677296718 $339 $465 forward 7 unknown #
coedge $-1 $334 $229 $234 $349 forward $326 $-1 #
coedge $-1 $229 $334 $328 $456 reversed $326 $-1 #
vertex $-1 $230 $466 #
straight-curve $-1 0 33.46957677296718 12.653107769253547 -1 0 0 I I #
coedge $-1 $231 $329 $233 $348 reversed $139 $-1 #
vertex $-1 $340 $467 #
straight-curve $-1 0 -33.46957677296718 12.653107769253547 1 0 0 I I #
edge $-1 $236 -12.653107769253547 $337 12.653107769253547 $233 $468 forward 7 unknown #
edge $-1 $237 -12.653107769253547 $336 12.653107769253547 $234 $469 forward 7 unknown #
point $-1 72.195806756797992 -33.46957677296718 12.653107769253547 #
point $-1 72.195806756797992 33.46957677296718 12.653107769253547 #
face $-1 $-1 $252 $34 $-1 $470 reversed single #
loop $-1 $-1 $359 $239 #
plane-surface $-1 0 0 12.653107769253547 0 0 1 1 0 0 forward_v I I I I #
coedge $-1 $471 $242 $247 $364 forward $147 $-1 #
coedge $-1 $242 $471 $472 $473 reversed $147 $-1 #
coedge $-1 $244 $243 $242 $358 reversed $93 $-1 #
edge $-1 $474 -8.0724912244050415 $369 -1.0887418652919694 $242 $475 forward 7 unknown #
coedge $-1 $472 $476 $244 $360 forward $353 $-1 #
edge $-1 $362 -72.195806756797992 $474 72.195806756797992 $359 $477 forward 7 unknown #
coedge $-1 $251 $245 $476 $478 reversed $252 $-1 #
vertex $-1 $246 $479 #
straight-curve $-1 72.195806756797992 -21.604493449794013 4.5806165448485059 0 0 1 I I #
edge $-1 $369 7.835975894103715 $367 19.701059217276882 $355 $480 forward 7 unknown #
coedge $-1 $481 $248 $251 $371 reversed $240 $-1 #
coedge $-1 $248 $481 $471 $482 forward $240 $-1 #
vertex $-1 $249 $483 #
straight-curve $-1 0 -33.46957677296718 5.6693584101404753 1 0 0 I I #
vertex $-1 $364 $484 #
straight-curve $-1 0 -21.604493449794013 5.6693584101404753 1 0 0 I I #
edge $-1 $485 -12.653107769253547 $253 -5.6693584101404753 $251 $486 forward 7 unknown #
point $-1 72.195806756797992 -33.46957677296718 5.6693584101404753 #
point $-1 72.195806756797992 -21.604493449794013 5.6693584101404753 #
face $-1 $-1 $388 $35 $-1 $487 reversed single #
loop $-1 $-1 $488 $256 #
plane-surface $-1 0 49.948929961161305 -4.6914055111429693 0 -1 0 0 0 -1 forward_v I I I I #
coedge $-1 $384 $489 $260 $381 forward $257 $-1 #
coedge $-1 $266 $259 $490 $491 forward $155 $-1 #
edge $-1 $267 -8.2396765940970624 $492 8.2396765940970624 $261 $493 forward 7 unknown #
coedge $-1 $261 $260 $488 $494 reversed $97 $-1 #
edge $-1 $495 -8.2396765940970624 $382 8.2396765940970624 $260 $496 forward 7 unknown #
vertex $-1 $262 $497 #
straight-curve $-1 72.195806756797992 33.46957677296718 0 0 0 -1 I I #
coedge $-1 $498 $377 $263 $385 reversed $257 $-1 #
edge $-1 $389 -72.195806756797992 $382 72.195806756797992 $384 $499 forward 7 unknown #
coedge $-1 $500 $264 $266 $391 reversed $388 $-1 #
coedge $-1 $264 $500 $498 $501 reversed $388 $-1 #
loop $-1 $-1 $264 $374 #
vertex $-1 $265 $502 #
straight-curve $-1 -72.195806756797992 33.46957677296718 0 0 0 1 I I #
edge $-1 $503 -8.2396765940970624 $268 8.2396765940970624 $386 $504 forward 7 unknown #
point $-1 72.195806756797992 33.46957677296718 -3.1914055111429698 #
point $-1 -72.195806756797992 33.46957677296718 -3.1914055111429698 #
plane-surface $-1 0 0 12.653107769253547 0 0 1 1 0 0 forward_v I I I I #
coedge $-1 $405 $404 $397 $505 forward $271 $-1 #
coedge $-1 $397 $273 $275 $401 reversed $163 $-1 #
coedge $-1 $273 $396 $395 $505 reversed $163 $-1 #
coedge $-1 $281 $276 $273 $399 forward $282 $-1 #
edge $-1 $402 -27.823978529766116 $506 -16.702767731237486 $398 $507 forward 7 unknown #
coedge $-1 $275 $274 $405 $508 reversed $101 $-1 #
edge $-1 $509 4.1712616485910034e-014 $402 16.306800124903344 $396 $510 forward 7 unknown #
vertex $-1 $277 $511 #
straight-curve $-1 -61.074595958269363 2.2692744586051603 12.653107769253547 0 1 0 I I #
coedge $-1 $395 $278 $281 $409 reversed $271 $-1 #
coedge $-1 $278 $395 $400 $508 forward $271 $-1 #
vertex $-1 $279 $512 #
straight-curve $-1 -72.195806756797992 -0.064987931588049719 49.600955672461225 0 0 1 I I #
straight-curve $-1 -72.195806756798021 -0.064987931588049719 0.72706900157224652 -0.68199835119979291 0 -0.73135370988377701 I I #
edge $-1 $506 -9.1420857660086909 $283 0.064987931588049719 $404 $513 forward 7 unknown #
point $-1 -72.195806756797992 -0.064987931588049719 12.653107769253547 #
point $-1 -61.074595958269363 -0.064987931588049719 12.653107769253545 #
edge $-1 $514 1 $514 0 $286 $-1 forward 7 unknown #
vertex $-1 $287 $515 #
ellipse-curve $-1 -65.272665312928879 1.7764268079313013 5.4195029992822601 -0.73135370988377701 0 0.68199835119979291 0.34099917559989645 0 0.36567685494188851 1 I I #
point $-1 -66.29420218193377 1.7764268079313013 7.0557652403547841 #
edge $-1 $516 1 $516 0 $290 $-1 forward 7 unknown #
vertex $-1 $291 $517 #
ellipse-curve $-1 -65.272665312928879 4.5385489172103206 5.4195029992822601 -0.73135370988377701 0 0.68199835119979291 0.34099917559989645 0 0.36567685494188851 1 I I #
point $-1 -66.29420218193377 4.5385489172103206 7.0557652403547841 #
edge $-1 $518 1 $518 0 $294 $-1 forward 7 unknown #
vertex $-1 $295 $519 #
ellipse-curve $-1 -65.272665312928879 7.30067102648934 5.4195029992822601 -0.73135370988377701 0 0.68199835119979291 0.34099917559989645 0 0.36567685494188851 1 I I #
point $-1 -66.29420218193377 7.30067102648934 7.0557652403547841 #
loop $-1 $-1 $306 $298 #
plane-surface $-1 72.195806756797992 0 0 -1 0 0 0 0 1 forward_v I I I I #
coedge $-1 $427 $301 $303 $431 reversed $192 $-1 #
coedge $-1 $301 $426 $520 $521 reversed $192 $-1 #
coedge $-1 $309 $304 $301 $429 forward $299 $-1 #
edge $-1 $432 21.413442641908944 $522 32.534653440437623 $428 $523 forward 7 unknown #
coedge $-1 $303 $302 $435 $524 reversed $120 $-1 #
edge $-1 $525 -144.39161351359598 $432 -128.08481338869257 $426 $526 forward 7 unknown #
vertex $-1 $305 $527 #
straight-curve $-1 61.074595958269327 2.2692744586051603 12.653107769253545 0 -1 0 I I #
coedge $-1 $520 $306 $309 $439 reversed $424 $-1 #
coedge $-1 $306 $520 $430 $524 forward $424 $-1 #
vertex $-1 $307 $528 #
straight-curve $-1 72.195806756797992 9.1420857660086909 102.40162678209768 0 0 1 I I #
straight-curve $-1 -26.279035586552197 9.1420857660086909 106.32841122084515 0.68199835119979291 0 -0.73135370988377701 I I #
edge $-1 $522 -0.064987931588049719 $310 9.1420857660086909 $434 $529 forward 7 unknown #
point $-1 72.195806756797992 9.1420857660086909 12.653107769253547 #
point $-1 61.074595958269313 9.1420857660086909 12.653107769253552 #
edge $-1 $530 1 $530 0 $313 $-1 forward 7 unknown #
vertex $-1 $314 $531 #
ellipse-curve $-1 65.272665312928851 1.7764268079313013 5.4195029992822601 0.73135370988377701 0 0.68199835119979291 0.34099917559989645 0 -0.36567685494188851 1 I I #
point $-1 66.976200533133536 1.7764268079313013 6.3244115304710071 #
edge $-1 $532 1 $532 0 $317 $-1 forward 7 unknown #
vertex $-1 $318 $533 #
ellipse-curve $-1 65.272665312928851 4.5385489172103206 5.4195029992822601 0.73135370988377701 0 0.68199835119979291 0.34099917559989645 0 -0.36567685494188851 1 I I #
point $-1 66.976200533133536 4.5385489172103206 6.3244115304710071 #
edge $-1 $534 1 $534 0 $321 $-1 forward 7 unknown #
vertex $-1 $322 $535 #
ellipse-curve $-1 65.272665312928851 7.30067102648934 5.4195029992822601 0.73135370988377701 0 0.68199835119979291 0.34099917559989645 0 -0.36567685494188851 1 I I #
point $-1 66.976200533133536 7.30067102648934 6.3244115304710071 #
plane-surface $-1 72.195806756797992 0 0 -1 0 0 0 0 1 forward_v I I I I #
coedge $-1 $330 $328 $332 $459 reversed $221 $-1 #
edge $-1 $343 -12.653107769253547 $461 12.653107769253547 $342 $536 forward 7 unknown #
vertex $-1 $459 $537 #
straight-curve $-1 -72.195806756797992 -33.46957677296718 0 0 0 -1 I I #
edge $-1 $457 -33.46957677296718 $461 33.46957677296718 $455 $538 forward 7 unknown #
straight-curve $-1 0 -33.46957677296718 -12.653107769253547 -1 0 0 I I #
vertex $-1 $335 $539 #
straight-curve $-1 0 33.46957677296718 -12.653107769253547 1 0 0 I I #
point $-1 72.195806756797992 33.46957677296718 -12.653107769253547 #
point $-1 72.195806756797992 -33.46957677296718 -12.653107769253547 #
straight-curve $-1 -72.195806756797992 0 12.653107769253547 0 -1 0 I I #
point $-1 -72.195806756797992 33.46957677296718 12.653107769253547 #
point $-1 -72.195806756797992 -33.46957677296718 12.653107769253547 #
straight-curve $-1 72.195806756797992 -33.46957677296718 0 0 0 -1 I I #
straight-curve $-1 72.195806756797992 33.46957677296718 0 0 0 -1 I I #
plane-surface $-1 72.195806756797992 0 0 -1 0 0 0 0 1 forward_v I I I I #
coedge $-1 $356 $355 $366 $482 reversed $147 $-1 #
coedge $-1 $540 $359 $356 $473 forward $353 $-1 #
edge $-1 $474 21.604493449794013 $541 33.46957677296718 $356 $542 forward 7 unknown #
vertex $-1 $473 $543 #
straight-curve $-1 -72.195806756797992 -21.604493449794013 4.5806165448485059 0 0 -1 I I #
coedge $-1 $359 $540 $361 $478 forward $353 $-1 #
straight-curve $-1 0 -21.604493449794013 12.653107769253547 -1 0 0 I I #
edge $-1 $485 -33.46957677296718 $362 -21.604493449794013 $361 $544 forward 7 unknown #
point $-1 72.195806756797992 -21.604493449794013 12.653107769253548 #
straight-curve $-1 -72.195806756797992 -13.768517555690298 5.6693584101404753 0 -1 0 I I #
coedge $-1 $366 $365 $540 $545 reversed $240 $-1 #
edge $-1 $541 -12.653107769253547 $367 -5.6693584101404753 $471 $546 forward 7 unknown #
point $-1 -72.195806756797992 -33.46957677296718 5.6693584101404753 #
point $-1 -72.195806756797992 -21.604493449794013 5.6693584101404753 #
vertex $-1 $478 $547 #
straight-curve $-1 72.195806756797992 -33.46957677296718 0 0 0 -1 I I #
plane-surface $-1 -72.195806756797992 0 0 1 0 0 0 0 -1 forward_v I I I I #
coedge $-1 $548 $490 $380 $494 forward $375 $-1 #
coedge $-1 $377 $498 $548 $549 forward $257 $-1 #
coedge $-1 $488 $550 $378 $491 reversed $375 $-1 #
edge $-1 $492 -72.195806756797992 $503 72.195806756797992 $490 $551 forward 7 unknown #
vertex $-1 $379 $552 #
straight-curve $-1 72.195806756797992 41.709253367064242 -3.1914055111429698 0 1 0 I I #
edge $-1 $492 -1.4999999999999996 $495 1.5 $380 $553 forward 7 unknown #
vertex $-1 $381 $554 #
straight-curve $-1 72.195806756797992 41.709253367064242 -6.1914055111429693 0 -1 0 I I #
point $-1 72.195806756797992 33.46957677296718 -6.1914055111429693 #
coedge $-1 $489 $384 $387 $501 forward $257 $-1 #
straight-curve $-1 0 33.46957677296718 -6.1914055111429693 1 0 0 I I #
coedge $-1 $387 $386 $550 $555 forward $388 $-1 #
edge $-1 $389 -8.2396765940970624 $556 8.2396765940970624 $387 $557 forward 7 unknown #
point $-1 -72.195806756797992 33.46957677296718 -6.1914055111429693 #
vertex $-1 $491 $558 #
straight-curve $-1 -72.195806756797992 41.709253367064242 -3.1914055111429698 0 -1 0 I I #
edge $-1 $506 36.947847903207681 $509 48.87388667088895 $395 $559 forward 7 unknown #
vertex $-1 $409 $560 #
straight-curve $-1 -88.898574488035479 9.1420857660086909 12.653107769253545 -1 0 0 I I #
edge $-1 $509 -6.8728113074035306 $406 2.33426239019321 $405 $561 forward 7 unknown #
vertex $-1 $508 $562 #
straight-curve $-1 -72.195806756798021 9.1420857660086909 0.72706900157224652 0.68199835119979291 0 0.73135370988377701 I I #
point $-1 -61.074595958269363 9.1420857660086909 12.653107769253545 #
point $-1 -72.195806756797992 -0.064987931588049719 0.72706900157227705 #
straight-curve $-1 -72.195806756797992 0 12.653107769253547 0 -1 0 I I #
vertex $-1 $412 $563 #
point $-1 -64.931666137328989 1.7764268079313013 5.7851798542241486 #
vertex $-1 $416 $564 #
point $-1 -64.931666137328989 4.5385489172103206 5.7851798542241486 #
vertex $-1 $420 $565 #
point $-1 -64.931666137328989 7.30067102648934 5.7851798542241486 #
coedge $-1 $435 $434 $427 $521 forward $424 $-1 #
edge $-1 $522 89.748519012844127 $525 101.67455778052546 $520 $566 forward 7 unknown #
vertex $-1 $439 $567 #
straight-curve $-1 39.66115331636037 -0.064987931588049719 12.653107769253552 1 0 0 I I #
edge $-1 $525 -2.33426239019321 $436 6.8728113074035306 $435 $568 forward 7 unknown #
vertex $-1 $524 $569 #
straight-curve $-1 -26.279035586552197 -0.064987931588049719 106.32841122084515 -0.68199835119979291 0 0.73135370988377701 I I #
point $-1 61.074595958269313 -0.064987931588049719 12.653107769253552 #
point $-1 72.195806756798007 9.1420857660086909 0.7270690015722181 #
straight-curve $-1 72.195806756797992 0 12.653107769253547 0 1 0 I I #
vertex $-1 $442 $570 #
point $-1 65.613664488528755 1.7764268079313013 5.0538261443403716 #
vertex $-1 $446 $571 #
point $-1 65.613664488528755 4.5385489172103206 5.0538261443403716 #
vertex $-1 $450 $572 #
point $-1 65.613664488528755 7.30067102648934 5.0538261443403716 #
straight-curve $-1 -72.195806756797992 33.46957677296718 0 0 0 -1 I I #
point $-1 -72.195806756797992 -33.46957677296718 -12.653107769253547 #
straight-curve $-1 -72.195806756797992 0 -12.653107769253547 0 1 0 I I #
point $-1 -72.195806756797992 33.46957677296718 -12.653107769253547 #
coedge $-1 $476 $472 $481 $545 forward $353 $-1 #
vertex $-1 $473 $573 #
straight-curve $-1 -72.195806756797992 0 12.653107769253547 0 -1 0 I I #
point $-1 -72.195806756797992 -21.604493449794013 12.653107769253548 #
straight-curve $-1 72.195806756797992 0 12.653107769253547 0 1 0 I I #
edge $-1 $541 -72.195806756797992 $485 72.195806756797992 $481 $574 forward 7 unknown #
straight-curve $-1 -72.195806756797992 -33.46957677296718 0 0 0 -1 I I #
point $-1 72.195806756797992 -33.46957677296718 12.653107769253547 #
coedge $-1 $550 $488 $489 $549 reversed $375 $-1 #
edge $-1 $556 -72.195806756797992 $495 72.195806756797992 $548 $575 forward 7 unknown #
coedge $-1 $490 $548 $500 $555 reversed $375 $-1 #
straight-curve $-1 0 49.948929961161305 -3.1914055111429698 -1 0 0 I I #
point $-1 72.195806756797992 49.948929961161305 -3.1914055111429698 #
straight-curve $-1 72.195806756797992 49.948929961161305 -4.6914055111429693 0 0 -1 I I #
point $-1 72.195806756797992 49.948929961161305 -6.1914055111429693 #
edge $-1 $503 -1.4999999999999996 $556 1.5 $550 $576 forward 7 unknown #
vertex $-1 $549 $577 #
straight-curve $-1 -72.195806756797992 41.709253367064242 -6.1914055111429693 0 1 0 I I #
point $-1 -72.195806756797992 49.948929961161305 -3.1914055111429698 #
straight-curve $-1 -72.195806756797992 9.1420857660086909 49.600955672461225 0 0 -1 I I #
point $-1 -72.195806756797992 9.1420857660086909 12.653107769253547 #
straight-curve $-1 -72.195806756797992 2.2692744586051603 0.72706900157227972 0 -1 0 I I #
point $-1 -72.195806756797992 9.1420857660086909 0.72706900157227705 #
point $-1 -64.906988457986998 1.7764268079313013 5.0785038236823627 #
point $-1 -64.906988457986998 4.5385489172103206 5.0785038236823627 #
point $-1 -64.906988457986998 7.30067102648934 5.0785038236823627 #
straight-curve $-1 72.195806756797992 -0.064987931588049719 102.40162678209768 0 0 -1 I I #
point $-1 72.195806756797992 -0.064987931588049719 12.653107769253547 #
straight-curve $-1 72.195806756797992 2.2692744586051603 0.7270690015722181 0 1 0 I I #
point $-1 72.195806756798007 -0.064987931588049719 0.7270690015722181 #
point $-1 64.906988457986969 1.7764268079313013 5.0785038236823627 #
point $-1 64.906988457986969 4.5385489172103206 5.0785038236823627 #
point $-1 64.906988457986969 7.30067102648934 5.0785038236823627 #
point $-1 -72.195806756797992 -33.46957677296718 12.653107769253547 #
straight-curve $-1 0 -33.46957677296718 12.653107769253547 1 0 0 I I #
straight-curve $-1 0 49.948929961161305 -6.1914055111429693 1 0 0 I I #
straight-curve $-1 -72.195806756797992 49.948929961161305 -4.6914055111429693 0 0 -1 I I #
point $-1 -72.195806756797992 49.948929961161305 -6.1914055111429693 #
End-of-ACIS-data 