500 0 9 0           
7 Unknown 11 ACIS 5.0 NT 24 Thu Mar 25 16:55:41 1999 
-1 9.9999999999999995e-007 1e-010 
body $-1 $9 $-1 $10 #
body $-1 $11 $-1 $12 #
body $-1 $13 $-1 $14 #
body $-1 $15 $-1 $16 #
body $-1 $17 $-1 $18 #
body $-1 $19 $-1 $20 #
body $-1 $21 $-1 $22 #
body $-1 $23 $-1 $24 #
body $-1 $25 $-1 $26 #
lump $-1 $-1 $27 $0 #
transform $-1 1 0 0 0 1 0 0 0 1 73.361613818781095 38.075633576741865 11.482533669604553 1 rotate no_reflect no_shear #
lump $-1 $-1 $28 $1 #
transform $-1 1 0 0 0 1 0 0 0 1 73.361613818781095 38.075633576741865 11.482533669604553 1 rotate no_reflect no_shear #
lump $-1 $-1 $29 $2 #
transform $-1 1 0 0 0 1 0 0 0 1 73.361613818781095 38.075633576741865 11.482533669604553 1 rotate no_reflect no_shear #
lump $-1 $-1 $30 $3 #
transform $-1 1 0 0 0 1 0 0 0 1 73.361613818781095 38.075633576741865 11.482533669604553 1 rotate no_reflect no_shear #
lump $-1 $-1 $31 $4 #
transform $-1 1 0 0 0 1 0 0 0 1 73.361613818781095 38.075633576741865 11.482533669604553 1 rotate no_reflect no_shear #
lump $-1 $-1 $32 $5 #
transform $-1 1 0 0 0 1 0 0 0 1 73.361613818781095 38.075633576741865 11.482533669604553 1 rotate no_reflect no_shear #
lump $-1 $-1 $33 $6 #
transform $-1 1 0 0 0 1 0 0 0 1 73.361613818781095 38.075633576741865 11.482533669604553 1 rotate no_reflect no_shear #
lump $-1 $-1 $34 $7 #
transform $-1 1 0 0 0 1 0 0 0 1 73.361613818781095 38.075633576741865 11.482533669604553 1 rotate no_reflect no_shear #
lump $-1 $-1 $35 $8 #
transform $-1 1 0 0 0 1 0 0 0 1 73.361613818781095 38.075633576741865 11.482533669604553 1 rotate no_reflect no_shear #
shell $-1 $-1 $-1 $36 $-1 $9 #
shell $-1 $-1 $-1 $37 $-1 $11 #
shell $-1 $-1 $-1 $38 $-1 $13 #
shell $-1 $-1 $-1 $39 $-1 $15 #
shell $-1 $-1 $-1 $40 $-1 $17 #
shell $-1 $-1 $-1 $41 $-1 $19 #
shell $-1 $-1 $-1 $42 $-1 $21 #
shell $-1 $-1 $-1 $43 $-1 $23 #
shell $-1 $-1 $-1 $44 $-1 $25 #
face $-1 $45 $46 $27 $-1 $47 forward single #
face $-1 $48 $49 $28 $-1 $50 reversed single #
face $-1 $51 $52 $29 $-1 $53 reversed single #
face $-1 $54 $55 $30 $-1 $56 reversed single #
face $-1 $57 $58 $31 $-1 $59 forward single #
face $-1 $60 $61 $32 $-1 $62 forward single #
face $-1 $63 $64 $33 $-1 $65 reversed single #
face $-1 $66 $67 $34 $-1 $68 forward single #
face $-1 $69 $70 $35 $-1 $71 forward single #
face $-1 $72 $73 $27 $-1 $74 reversed single #
loop $-1 $-1 $75 $36 #
plane-surface $-1 0 0 11.482533669604553 0 0 1 1 0 0 forward_v I I I I #
face $-1 $76 $77 $28 $-1 $78 reversed single #
loop $-1 $-1 $79 $37 #
plane-surface $-1 -68.070421513797129 0 5.4305407199660571 0 0 1 1 0 0 forward_v I I I I #
face $-1 $80 $81 $29 $-1 $82 reversed single #
loop $-1 $-1 $83 $38 #
plane-surface $-1 68.500146584397513 -18.739687462825238 0 0 1 0 0 0 1 forward_v I I I I #
face $-1 $84 $85 $30 $-1 $86 reversed single #
loop $-1 $-1 $87 $39 #
plane-surface $-1 -43.938281582571065 112.01662848738826 153.9979407384516 1 0 0 0 -0.80901700255871778 -0.5877852410284794 forward_v I I I I #
face $-1 $88 $89 $31 $-1 $90 forward single #
loop $-1 $91 $92 $40 #
cone-surface $-1 -37.503545055733063 35.488402715284877 8.343611309997506 0 -0.80901700255871778 -0.5877852410284794 1.5 0 0 1 I I 0 1 1.5 forward I I I I #
face $-1 $93 $94 $32 $-1 $95 forward single #
loop $-1 $96 $97 $41 #
cone-surface $-1 -27.851440265476057 35.488402715284877 8.343611309997506 0 -0.80901700255871778 -0.5877852410284794 1.5 0 0 1 I I 0 1 1.5 forward I I I I #
face $-1 $98 $99 $33 $-1 $100 reversed single #
loop $-1 $-1 $101 $42 #
plane-surface $-1 -21.416703738638049 -156.77721940582285 92.390270844892058 -1 0 0 0 -0.80901700255871778 0.5877852410284794 forward_v I I I I #
face $-1 $102 $103 $34 $-1 $104 forward single #
loop $-1 $105 $106 $43 #
cone-surface $-1 -37.503545055733063 -35.48840271528487 8.3436113099974989 0 0.80901700255871778 -0.5877852410284794 1.5 0 0 1 I I 0 1 1.5 forward I I I I #
face $-1 $107 $108 $35 $-1 $109 forward single #
loop $-1 $110 $111 $44 #
cone-surface $-1 -27.851440265476057 -35.48840271528487 8.3436113099974989 0 0.80901700255871778 -0.5877852410284794 1.5 0 0 1 I I 0 1 1.5 forward I I I I #
face $-1 $112 $113 $27 $-1 $114 reversed single #
loop $-1 $-1 $115 $45 #
plane-surface $-1 0 0 -11.482533669604553 0 0 1 1 0 0 forward_v I I I I #
coedge $-1 $116 $117 $118 $119 forward $46 $-1 #
face $-1 $120 $121 $28 $-1 $122 reversed single #
loop $-1 $-1 $123 $48 #
plane-surface $-1 -62.779229208813163 0 8.4565371947853052 -1 0 0 0 0 1 forward_v I I I I #
coedge $-1 $124 $125 $126 $127 forward $49 $-1 #
face $-1 $128 $129 $29 $-1 $130 reversed single #
loop $-1 $-1 $131 $51 #
plane-surface $-1 63.638679350013931 -16.925126850178998 0 1 0 0 0 0 -1 forward_v I I I I #
coedge $-1 $132 $133 $134 $135 forward $52 $-1 #
face $-1 $136 $137 $30 $-1 $138 reversed single #
loop $-1 $-1 $139 $54 #
plane-surface $-1 -32.677492660604557 -6.6849573416926944 67.756193017030682 0 0.80901700255871778 0.5877852410284794 1 0 0 forward_v I I I I #
coedge $-1 $140 $141 $142 $143 reversed $55 $-1 #
face $-1 $-1 $144 $31 $-1 $145 forward single #
loop $-1 $146 $147 $57 #
cone-surface $-1 -37.503545055733063 34.232101798472371 7.4308552926858162 0 -0.80901700255871778 -0.5877852410284794 0.75 0 0 1 I I -0.70710678118654757 0.70710678118654757 0.75 forward I I I I #
loop $-1 $-1 $148 $40 #
coedge $-1 $92 $92 $149 $150 reversed $58 $-1 #
face $-1 $-1 $151 $32 $-1 $152 forward single #
loop $-1 $153 $154 $60 #
cone-surface $-1 -27.851440265476057 34.232101798472371 7.4308552926858162 0 -0.80901700255871778 -0.5877852410284794 0.75 0 0 1 I I -0.70710678118654757 0.70710678118654757 0.75 forward I I I I #
loop $-1 $-1 $155 $41 #
coedge $-1 $97 $97 $156 $157 reversed $61 $-1 #
face $-1 $158 $159 $33 $-1 $160 reversed single #
loop $-1 $-1 $161 $63 #
plane-surface $-1 -32.677492660604557 -38.075633576741893 6.1485231234711364 0 -0.80901700255871778 0.5877852410284794 1 0 0 forward_v I I I I #
coedge $-1 $162 $163 $164 $165 reversed $64 $-1 #
face $-1 $-1 $166 $34 $-1 $167 forward single #
loop $-1 $168 $169 $66 #
cone-surface $-1 -37.503545055733063 -34.232101798472364 7.4308552926858091 0 0.80901700255871778 -0.5877852410284794 0.75 0 0 1 I I -0.70710678118654757 0.70710678118654757 0.75 forward I I I I #
loop $-1 $-1 $170 $43 #
coedge $-1 $106 $106 $171 $172 reversed $67 $-1 #
face $-1 $-1 $173 $35 $-1 $174 forward single #
loop $-1 $175 $176 $69 #
cone-surface $-1 -27.851440265476057 -34.232101798472364 7.4308552926858091 0 0.80901700255871778 -0.5877852410284794 0.75 0 0 1 I I -0.70710678118654757 0.70710678118654757 0.75 forward I I I I #
loop $-1 $-1 $177 $44 #
coedge $-1 $111 $111 $178 $179 reversed $70 $-1 #
face $-1 $180 $181 $27 $-1 $182 reversed single #
loop $-1 $-1 $183 $72 #
plane-surface $-1 0 -38.075633576741865 0 0 1 0 0 0 1 forward_v I I I I #
coedge $-1 $184 $185 $186 $187 forward $73 $-1 #
coedge $-1 $188 $75 $189 $190 forward $46 $-1 #
coedge $-1 $75 $188 $191 $192 forward $46 $-1 #
coedge $-1 $193 $194 $75 $119 reversed $195 $-1 #
edge $-1 $196 -38.075633576741865 $197 38.075633576741865 $118 $198 forward 7 unknown #
face $-1 $199 $200 $28 $-1 $201 reversed single #
loop $-1 $-1 $202 $76 #
plane-surface $-1 0 38.075633576741865 0 0 -1 0 0 0 -1 forward_v I I I I #
coedge $-1 $126 $203 $204 $205 reversed $77 $-1 #
coedge $-1 $206 $79 $207 $208 reversed $49 $-1 #
coedge $-1 $79 $206 $209 $210 reversed $49 $-1 #
coedge $-1 $211 $123 $79 $127 reversed $77 $-1 #
edge $-1 $212 -38.075633576741865 $213 38.075633576741865 $126 $214 forward 7 unknown #
face $-1 $215 $216 $29 $-1 $217 forward single #
loop $-1 $-1 $218 $80 #
plane-surface $-1 68.500146584397513 -15.110566237532758 0 0 -1 0 0 0 -1 forward_v I I I I #
coedge $-1 $219 $220 $221 $222 forward $81 $-1 #
coedge $-1 $223 $83 $224 $225 reversed $52 $-1 #
coedge $-1 $83 $223 $226 $227 reversed $52 $-1 #
coedge $-1 $220 $219 $83 $135 reversed $81 $-1 #
edge $-1 $228 -11.482533669604553 $229 11.482533669604553 $134 $230 forward 7 unknown #
face $-1 $231 $232 $30 $-1 $233 reversed single #
loop $-1 $-1 $234 $84 #
plane-surface $-1 -21.416703738638049 112.01662848738826 153.9979407384516 -1 0 0 0 0.80901700255871778 0.5877852410284794 forward_v I I I I #
coedge $-1 $235 $236 $237 $238 reversed $85 $-1 #
coedge $-1 $141 $87 $239 $240 reversed $55 $-1 #
coedge $-1 $87 $140 $235 $241 reversed $55 $-1 #
coedge $-1 $237 $242 $87 $143 forward $243 $-1 #
edge $-1 $244 17.932680666952265 $245 21.808066060079312 $142 $246 forward 7 unknown #
loop $-1 $-1 $149 $88 #
plane-surface $-1 -32.677492660604557 -6.6849573416926944 67.756193017030682 0 0.80901700255871778 0.5877852410284794 1 0 0 forward_v I I I I #
loop $-1 $-1 $247 $57 #
coedge $-1 $147 $147 $148 $248 reversed $89 $-1 #
coedge $-1 $148 $148 $147 $248 forward $91 $-1 #
coedge $-1 $149 $149 $92 $150 forward $144 $-1 #
edge $-1 $249 -3.6524832617487839e-015 $249 6.2831853071795969 $149 $250 forward 7 unknown #
loop $-1 $-1 $156 $93 #
plane-surface $-1 -32.677492660604557 -6.6849573416926944 67.756193017030682 0 0.80901700255871778 0.5877852410284794 1 0 0 forward_v I I I I #
loop $-1 $-1 $251 $60 #
coedge $-1 $154 $154 $155 $252 reversed $94 $-1 #
coedge $-1 $155 $155 $154 $252 forward $96 $-1 #
coedge $-1 $156 $156 $97 $157 forward $151 $-1 #
edge $-1 $253 -3.6524832617487839e-015 $253 6.2831853071795969 $156 $254 forward 7 unknown #
face $-1 $255 $256 $33 $-1 $257 reversed single #
loop $-1 $-1 $258 $98 #
plane-surface $-1 -43.938281582571065 -156.77721940582285 92.390270844892058 1 0 0 0 0.80901700255871778 -0.5877852410284794 forward_v I I I I #
coedge $-1 $259 $260 $261 $262 reversed $99 $-1 #
coedge $-1 $163 $101 $263 $264 reversed $64 $-1 #
coedge $-1 $101 $162 $259 $265 reversed $64 $-1 #
coedge $-1 $261 $266 $101 $165 forward $267 $-1 #
edge $-1 $268 40.312976126169559 $269 44.188361519296578 $164 $270 forward 7 unknown #
loop $-1 $-1 $171 $102 #
plane-surface $-1 -32.677492660604557 -38.075633576741893 6.1485231234711364 0 -0.80901700255871778 0.5877852410284794 1 0 0 forward_v I I I I #
loop $-1 $-1 $271 $66 #
coedge $-1 $169 $169 $170 $272 reversed $103 $-1 #
coedge $-1 $170 $170 $169 $272 forward $105 $-1 #
coedge $-1 $171 $171 $106 $172 forward $166 $-1 #
edge $-1 $273 1.4666594307118645e-015 $273 6.2831853071796022 $171 $274 forward 7 unknown #
loop $-1 $-1 $178 $107 #
plane-surface $-1 -32.677492660604557 -38.075633576741893 6.1485231234711364 0 -0.80901700255871778 0.5877852410284794 1 0 0 forward_v I I I I #
loop $-1 $-1 $275 $69 #
coedge $-1 $176 $176 $177 $276 reversed $108 $-1 #
coedge $-1 $177 $177 $176 $276 forward $110 $-1 #
coedge $-1 $178 $178 $111 $179 forward $173 $-1 #
edge $-1 $277 1.4666594307118645e-015 $277 6.2831853071796022 $178 $278 forward 7 unknown #
face $-1 $279 $280 $27 $-1 $281 reversed single #
loop $-1 $-1 $282 $112 #
plane-surface $-1 -73.361613818781095 0 0 1 0 0 0 0 -1 forward_v I I I I #
coedge $-1 $283 $191 $284 $285 forward $113 $-1 #
coedge $-1 $286 $115 $283 $287 forward $73 $-1 #
coedge $-1 $115 $286 $288 $289 forward $73 $-1 #
coedge $-1 $194 $193 $115 $187 reversed $195 $-1 #
edge $-1 $290 -38.075633576741865 $291 38.075633576741865 $186 $292 forward 7 unknown #
coedge $-1 $117 $116 $293 $294 forward $46 $-1 #
coedge $-1 $295 $296 $116 $190 reversed $280 $-1 #
edge $-1 $197 -73.361613818781095 $297 73.361613818781095 $189 $298 forward 7 unknown #
coedge $-1 $183 $299 $117 $192 reversed $113 $-1 #
edge $-1 $300 -73.361613818781095 $196 73.361613818781095 $191 $301 forward 7 unknown #
coedge $-1 $186 $118 $299 $302 forward $195 $-1 #
coedge $-1 $118 $186 $295 $303 reversed $195 $-1 #
loop $-1 $-1 $193 $279 #
vertex $-1 $119 $304 #
vertex $-1 $119 $305 #
straight-curve $-1 73.361613818781095 0 11.482533669604553 0 1 0 I I #
face $-1 $306 $307 $28 $-1 $308 forward single #
loop $-1 $-1 $309 $120 #
plane-surface $-1 -73.361613818781095 0 0 1 0 0 0 0 -1 forward_v I I I I #
coedge $-1 $209 $310 $211 $311 forward $121 $-1 #
coedge $-1 $123 $211 $312 $313 reversed $77 $-1 #
coedge $-1 $314 $207 $123 $205 forward $315 $-1 #
edge $-1 $213 1.2022721225734045 $316 7.2542650722119006 $204 $317 forward 7 unknown #
coedge $-1 $125 $124 $309 $318 reversed $49 $-1 #
coedge $-1 $204 $319 $124 $208 forward $315 $-1 #
edge $-1 $320 -39.32640306188253 $213 -28.744018451914599 $207 $321 forward 7 unknown #
coedge $-1 $322 $202 $125 $210 forward $121 $-1 #
edge $-1 $212 28.744018451914599 $323 39.32640306188253 $209 $324 forward 7 unknown #
coedge $-1 $203 $126 $202 $311 reversed $77 $-1 #
vertex $-1 $210 $325 #
vertex $-1 $208 $326 #
straight-curve $-1 -62.779229208813163 0 5.4305407199660571 0 -1 0 I I #
face $-1 $327 $328 $29 $-1 $329 reversed single #
loop $-1 $-1 $330 $128 #
plane-surface $-1 0 0 11.482533669604553 0 0 1 1 0 0 forward_v I I I I #
coedge $-1 $331 $332 $333 $334 reversed $129 $-1 #
coedge $-1 $134 $131 $335 $336 reversed $81 $-1 #
coedge $-1 $131 $134 $337 $338 reversed $81 $-1 #
coedge $-1 $332 $331 $131 $222 reversed $129 $-1 #
edge $-1 $339 -11.482533669604553 $340 11.482533669604553 $221 $341 forward 7 unknown #
coedge $-1 $133 $132 $342 $343 reversed $52 $-1 #
coedge $-1 $335 $344 $132 $225 forward $328 $-1 #
edge $-1 $345 -39.111540526582338 $229 -29.388606057815174 $224 $346 forward 7 unknown #
coedge $-1 $347 $337 $133 $227 forward $216 $-1 #
edge $-1 $228 29.388606057815174 $348 39.111540526582338 $226 $349 forward 7 unknown #
vertex $-1 $227 $350 #
vertex $-1 $225 $351 #
straight-curve $-1 63.638679350013931 -18.739687462825238 0 0 0 -1 I I #
face $-1 $-1 $243 $30 $-1 $352 forward single #
loop $-1 $-1 $353 $136 #
plane-surface $-1 0 38.075633576741865 0 0 -1 0 0 0 -1 forward_v I I I I #
coedge $-1 $354 $355 $356 $357 reversed $137 $-1 #
coedge $-1 $358 $139 $141 $241 forward $85 $-1 #
coedge $-1 $139 $358 $354 $359 forward $85 $-1 #
coedge $-1 $356 $142 $139 $238 forward $243 $-1 #
edge $-1 $245 -27.599535252268787 $360 -5.0779574083357701 $237 $361 forward 7 unknown #
coedge $-1 $362 $363 $140 $240 forward $232 $-1 #
edge $-1 $364 -70.850447245754665 $244 -65.516436699621252 $239 $365 forward 7 unknown #
edge $-1 $245 69.558067592456851 $364 76.15126715348373 $141 $366 forward 7 unknown #
coedge $-1 $142 $356 $362 $367 forward $243 $-1 #
loop $-1 $-1 $356 $231 #
vertex $-1 $240 $368 #
vertex $-1 $143 $369 #
straight-curve $-1 -43.938281582571065 56.00831424369413 11.48253366960455 0 -1 0 I I #
coedge $-1 $247 $247 $-1 $370 reversed $146 $-1 #
edge $-1 $371 0 $371 6.2831853071796004 $147 $372 forward 7 unknown #
vertex $-1 $150 $373 #
ellipse-curve $-1 -37.503545055733063 36.137940880178348 8.8155283965378395 0 0.80901700255871778 0.5877852410284794 1.5 0 0 1 I I #
coedge $-1 $251 $251 $-1 $374 reversed $153 $-1 #
edge $-1 $375 0 $375 6.2831853071796004 $154 $376 forward 7 unknown #
vertex $-1 $157 $377 #
ellipse-curve $-1 -27.851440265476057 36.137940880178348 8.8155283965378395 0 0.80901700255871778 0.5877852410284794 1.5 0 0 1 I I #
face $-1 $-1 $267 $33 $-1 $378 forward single #
loop $-1 $-1 $379 $158 #
plane-surface $-1 0 -38.075633576741865 0 0 1 0 0 0 1 forward_v I I I I #
coedge $-1 $380 $381 $382 $383 reversed $159 $-1 #
coedge $-1 $384 $161 $163 $265 forward $99 $-1 #
coedge $-1 $161 $384 $380 $385 forward $99 $-1 #
coedge $-1 $382 $164 $161 $262 forward $267 $-1 #
edge $-1 $269 5.0779574083357701 $386 27.599535252268787 $261 $387 forward 7 unknown #
coedge $-1 $388 $389 $162 $264 forward $256 $-1 #
edge $-1 $390 -40.04661229897485 $268 -34.712601752841479 $263 $391 forward 7 unknown #
edge $-1 $269 -6.5931995610268759 $390 -4.8322124813089328e-014 $163 $392 forward 7 unknown #
coedge $-1 $164 $382 $388 $393 forward $267 $-1 #
loop $-1 $-1 $382 $255 #
vertex $-1 $264 $394 #
vertex $-1 $165 $395 #
straight-curve $-1 -21.416703738638049 -78.388609702911424 11.48253366960455 0 1 0 I I #
coedge $-1 $271 $271 $-1 $396 reversed $168 $-1 #
edge $-1 $397 0 $397 6.2831853071796004 $169 $398 forward 7 unknown #
vertex $-1 $172 $399 #
ellipse-curve $-1 -37.503545055733063 -36.137940880178363 8.8155283965378519 0 -0.80901700255871778 0.5877852410284794 1.5 0 0 1 I I #
coedge $-1 $275 $275 $-1 $400 reversed $175 $-1 #
edge $-1 $401 0 $401 6.2831853071796004 $176 $402 forward 7 unknown #
vertex $-1 $179 $403 #
ellipse-curve $-1 -27.851440265476057 -36.137940880178363 8.8155283965378519 0 -0.80901700255871778 0.5877852410284794 1.5 0 0 1 I I #
face $-1 $-1 $195 $27 $-1 $404 reversed single #
loop $-1 $-1 $295 $180 #
plane-surface $-1 0 38.075633576741865 0 0 -1 0 0 0 -1 forward_v I I I I #
coedge $-1 $405 $293 $296 $406 forward $181 $-1 #
coedge $-1 $299 $183 $184 $287 reversed $113 $-1 #
coedge $-1 $293 $405 $183 $285 reversed $181 $-1 #
edge $-1 $300 -11.482533669604553 $407 11.482533669604553 $284 $408 forward 7 unknown #
coedge $-1 $185 $184 $405 $409 forward $73 $-1 #
edge $-1 $291 -73.361613818781095 $407 73.361613818781095 $283 $410 forward 7 unknown #
coedge $-1 $296 $295 $185 $289 reversed $280 $-1 #
edge $-1 $411 -73.361613818781095 $290 73.361613818781095 $288 $412 forward 7 unknown #
vertex $-1 $187 $413 #
vertex $-1 $302 $414 #
straight-curve $-1 73.361613818781095 0 -11.482533669604553 0 -1 0 I I #
coedge $-1 $282 $284 $188 $294 reversed $181 $-1 #
edge $-1 $297 -38.075633576741865 $300 38.075633576741865 $293 $415 forward 7 unknown #
coedge $-1 $288 $189 $194 $303 forward $280 $-1 #
coedge $-1 $189 $288 $282 $406 reversed $280 $-1 #
vertex $-1 $190 $416 #
straight-curve $-1 0 38.075633576741865 11.482533669604553 -1 0 0 I I #
coedge $-1 $191 $283 $193 $302 reversed $113 $-1 #
vertex $-1 $294 $417 #
straight-curve $-1 0 -38.075633576741865 11.482533669604553 1 0 0 I I #
edge $-1 $196 -11.482533669604553 $291 11.482533669604553 $193 $418 forward 7 unknown #
edge $-1 $197 -11.482533669604553 $290 11.482533669604553 $194 $419 forward 7 unknown #
point $-1 73.361613818781095 -38.075633576741865 11.482533669604553 #
point $-1 73.361613818781095 38.075633576741865 11.482533669604553 #
face $-1 $-1 $315 $28 $-1 $420 reversed single #
loop $-1 $-1 $312 $199 #
plane-surface $-1 0 0 11.482533669604553 0 0 1 1 0 0 forward_v I I I I #
coedge $-1 $421 $422 $206 $318 forward $200 $-1 #
coedge $-1 $202 $322 $423 $424 reversed $121 $-1 #
edge $-1 $425 -7.2542650722119006 $212 -1.2022721225734045 $202 $426 forward 7 unknown #
coedge $-1 $423 $427 $203 $313 forward $307 $-1 #
edge $-1 $316 -38.075633576741865 $425 38.075633576741865 $312 $428 forward 7 unknown #
coedge $-1 $319 $204 $427 $429 reversed $315 $-1 #
loop $-1 $-1 $204 $306 #
vertex $-1 $205 $430 #
straight-curve $-1 -62.779229208813163 -38.075633576741865 4.2282685973926526 0 0 1 I I #
edge $-1 $323 -38.075633576741865 $320 38.075633576741865 $309 $431 forward 7 unknown #
coedge $-1 $207 $314 $421 $432 forward $315 $-1 #
vertex $-1 $318 $433 #
straight-curve $-1 -34.035210756898564 -38.075633576741865 5.4305407199660571 1 0 0 I I #
coedge $-1 $310 $209 $422 $434 reversed $121 $-1 #
vertex $-1 $318 $435 #
straight-curve $-1 -34.035210756898564 38.075633576741865 5.4305407199660571 -1 0 0 I I #
point $-1 -62.779229208813163 38.075633576741865 5.4305407199660571 #
point $-1 -62.779229208813163 -38.075633576741865 5.4305407199660571 #
face $-1 $-1 $436 $29 $-1 $437 reversed single #
loop $-1 $-1 $438 $215 #
plane-surface $-1 0 0 -11.482533669604553 0 0 1 1 0 0 forward_v I I I I #
coedge $-1 $337 $347 $332 $439 forward $216 $-1 #
coedge $-1 $221 $218 $438 $440 reversed $129 $-1 #
coedge $-1 $218 $221 $330 $439 reversed $129 $-1 #
coedge $-1 $441 $442 $218 $334 forward $436 $-1 #
edge $-1 $443 -11.482533669604553 $444 11.482533669604553 $333 $445 forward 7 unknown #
coedge $-1 $438 $224 $219 $336 forward $328 $-1 #
edge $-1 $229 -10.277124037735739 $340 -6.6480028124432593 $335 $446 forward 7 unknown #
coedge $-1 $226 $330 $220 $338 forward $216 $-1 #
edge $-1 $339 6.6480028124432593 $228 10.277124037735739 $337 $447 forward 7 unknown #
vertex $-1 $338 $448 #
vertex $-1 $336 $449 #
straight-curve $-1 63.638679350013931 -15.110566237532758 0 0 0 -1 I I #
coedge $-1 $442 $441 $223 $343 forward $436 $-1 #
edge $-1 $348 -11.482533669604553 $345 11.482533669604553 $342 $450 forward 7 unknown #
coedge $-1 $224 $438 $442 $451 forward $328 $-1 #
vertex $-1 $343 $452 #
straight-curve $-1 34.250073292198756 -18.739687462825238 -11.482533669604553 -1 0 0 I I #
coedge $-1 $330 $226 $441 $453 forward $216 $-1 #
vertex $-1 $453 $454 #
straight-curve $-1 34.250073292198756 -18.739687462825238 11.482533669604553 1 0 0 I I #
point $-1 63.638679350013931 -18.739687462825238 11.482533669604553 #
point $-1 63.638679350013931 -18.739687462825238 -11.482533669604553 #
plane-surface $-1 0 0 11.482533669604553 0 0 1 1 0 0 forward_v I I I I #
coedge $-1 $363 $362 $355 $455 forward $232 $-1 #
coedge $-1 $355 $234 $236 $359 reversed $137 $-1 #
coedge $-1 $234 $354 $353 $455 reversed $137 $-1 #
coedge $-1 $242 $237 $234 $357 forward $243 $-1 #
edge $-1 $360 -21.808066060079312 $456 -17.932680666952265 $356 $457 forward 7 unknown #
coedge $-1 $236 $235 $363 $458 reversed $85 $-1 #
edge $-1 $459 -76.15126715348373 $360 -69.558067592456851 $354 $460 forward 7 unknown #
vertex $-1 $238 $461 #
straight-curve $-1 -16.338746330302278 34.200248183614818 11.482533669604557 1 0 0 I I #
coedge $-1 $353 $239 $242 $367 reversed $232 $-1 #
coedge $-1 $239 $353 $358 $458 forward $232 $-1 #
vertex $-1 $240 $462 #
straight-curve $-1 -43.938281582571065 38.075633576741865 76.998970369225802 0 0 1 I I #
straight-curve $-1 -43.938281582571065 -6.6849573416926944 67.756193017030682 0 0.5877852410284794 -0.80901700255871778 I I #
edge $-1 $456 21.416703738638049 $244 43.938281582571065 $362 $463 forward 7 unknown #
point $-1 -43.938281582571065 38.075633576741865 11.482533669604553 #
point $-1 -43.938281582571065 34.200248183614818 11.482533669604557 #
edge $-1 $464 1 $464 0 $247 $-1 forward 7 unknown #
vertex $-1 $248 $465 #
ellipse-curve $-1 -37.503545055733063 34.838864550391406 7.8716942234571761 0 0.80901700255871778 0.5877852410284794 1.5 0 0 1 I I #
point $-1 -36.003545055733063 36.137940880178334 8.8155283965378359 #
edge $-1 $466 1 $466 0 $251 $-1 forward 7 unknown #
vertex $-1 $252 $467 #
ellipse-curve $-1 -27.851440265476057 34.838864550391406 7.8716942234571761 0 0.80901700255871778 0.5877852410284794 1.5 0 0 1 I I #
point $-1 -26.351440265476057 36.137940880178334 8.8155283965378359 #
plane-surface $-1 0 0 11.482533669604553 0 0 1 1 0 0 forward_v I I I I #
coedge $-1 $389 $388 $381 $468 forward $256 $-1 #
coedge $-1 $381 $258 $260 $385 reversed $159 $-1 #
coedge $-1 $258 $380 $379 $468 reversed $159 $-1 #
coedge $-1 $266 $261 $258 $383 forward $267 $-1 #
edge $-1 $386 -44.188361519296578 $469 -40.312976126169559 $382 $470 forward 7 unknown #
coedge $-1 $260 $259 $389 $471 reversed $99 $-1 #
edge $-1 $472 4.8322124813089328e-014 $386 6.5931995610268759 $380 $473 forward 7 unknown #
vertex $-1 $262 $474 #
straight-curve $-1 -16.338746330302278 -34.200248183614846 11.482533669604553 -1 0 0 I I #
coedge $-1 $379 $263 $266 $393 reversed $256 $-1 #
coedge $-1 $263 $379 $384 $471 forward $256 $-1 #
vertex $-1 $264 $475 #
straight-curve $-1 -21.416703738638049 -38.075633576741865 46.195135422446029 0 0 1 I I #
straight-curve $-1 -21.416703738638049 -38.075633576741893 6.1485231234711364 0 -0.5877852410284794 -0.80901700255871778 I I #
edge $-1 $469 -43.938281582571065 $268 -21.416703738638049 $388 $476 forward 7 unknown #
point $-1 -21.416703738638049 -38.075633576741865 11.482533669604553 #
point $-1 -21.416703738638049 -34.200248183614846 11.482533669604553 #
edge $-1 $477 1 $477 0 $271 $-1 forward 7 unknown #
vertex $-1 $272 $478 #
ellipse-curve $-1 -37.503545055733063 -34.838864550391399 7.871694223457169 0 -0.80901700255871778 0.5877852410284794 1.5 0 0 1 I I #
point $-1 -36.003545055733063 -36.137940880178327 8.8155283965378288 #
edge $-1 $479 1 $479 0 $275 $-1 forward 7 unknown #
vertex $-1 $276 $480 #
ellipse-curve $-1 -27.851440265476057 -34.838864550391399 7.871694223457169 0 -0.80901700255871778 0.5877852410284794 1.5 0 0 1 I I #
point $-1 -26.351440265476057 -36.137940880178327 8.8155283965378288 #
plane-surface $-1 73.361613818781095 0 0 -1 0 0 0 0 1 forward_v I I I I #
coedge $-1 $284 $282 $286 $409 reversed $181 $-1 #
edge $-1 $297 -11.482533669604553 $411 11.482533669604553 $296 $481 forward 7 unknown #
vertex $-1 $409 $482 #
straight-curve $-1 -73.361613818781095 -38.075633576741865 0 0 0 -1 I I #
edge $-1 $407 -38.075633576741865 $411 38.075633576741865 $405 $483 forward 7 unknown #
straight-curve $-1 0 -38.075633576741865 -11.482533669604553 -1 0 0 I I #
vertex $-1 $289 $484 #
straight-curve $-1 0 38.075633576741865 -11.482533669604553 1 0 0 I I #
point $-1 73.361613818781095 38.075633576741865 -11.482533669604553 #
point $-1 73.361613818781095 -38.075633576741865 -11.482533669604553 #
straight-curve $-1 -73.361613818781095 0 11.482533669604553 0 -1 0 I I #
point $-1 -73.361613818781095 38.075633576741865 11.482533669604553 #
point $-1 -73.361613818781095 -38.075633576741865 11.482533669604553 #
straight-curve $-1 73.361613818781095 -38.075633576741865 0 0 0 -1 I I #
straight-curve $-1 73.361613818781095 38.075633576741865 0 0 0 -1 I I #
plane-surface $-1 0 -38.075633576741865 0 0 1 0 0 0 1 forward_v I I I I #
coedge $-1 $485 $309 $319 $432 reversed $200 $-1 #
coedge $-1 $309 $485 $322 $434 forward $200 $-1 #
coedge $-1 $486 $312 $310 $424 forward $307 $-1 #
edge $-1 $425 62.779229208813163 $487 73.361613818781095 $310 $488 forward 7 unknown #
vertex $-1 $424 $489 #
straight-curve $-1 -62.779229208813163 38.075633576741865 4.2282685973926526 0 0 -1 I I #
coedge $-1 $312 $486 $314 $429 forward $307 $-1 #
straight-curve $-1 -62.779229208813163 0 11.482533669604553 0 1 0 I I #
edge $-1 $490 -73.361613818781095 $316 -62.779229208813163 $314 $491 forward 7 unknown #
point $-1 -62.779229208813163 -38.075633576741865 11.482533669604553 #
straight-curve $-1 -73.361613818781095 0 5.4305407199660571 0 -1 0 I I #
edge $-1 $490 -11.482533669604553 $320 -5.4305407199660571 $421 $492 forward 7 unknown #
point $-1 -73.361613818781095 -38.075633576741865 5.4305407199660571 #
edge $-1 $487 -11.482533669604553 $323 -5.4305407199660571 $322 $493 forward 7 unknown #
point $-1 -73.361613818781095 38.075633576741865 5.4305407199660571 #
loop $-1 $-1 $333 $327 #
plane-surface $-1 73.361613818781095 0 0 -1 0 0 0 0 1 forward_v I I I I #
coedge $-1 $344 $335 $331 $440 forward $328 $-1 #
edge $-1 $444 -39.111540526582338 $339 -29.388606057815174 $330 $494 forward 7 unknown #
edge $-1 $340 29.388606057815174 $443 39.111540526582338 $438 $495 forward 7 unknown #
coedge $-1 $342 $333 $347 $453 reversed $436 $-1 #
coedge $-1 $333 $342 $344 $451 reversed $436 $-1 #
vertex $-1 $451 $496 #
vertex $-1 $334 $497 #
straight-curve $-1 73.361613818781095 -15.110566237532758 0 0 0 1 I I #
straight-curve $-1 63.638679350013931 -8.462563425089499 -11.482533669604553 0 1 0 I I #
straight-curve $-1 63.638679350013931 -8.462563425089499 11.482533669604553 0 -1 0 I I #
point $-1 63.638679350013931 -15.110566237532758 11.482533669604553 #
point $-1 63.638679350013931 -15.110566237532758 -11.482533669604553 #
straight-curve $-1 73.361613818781095 -18.739687462825238 0 0 0 -1 I I #
edge $-1 $443 15.110566237532758 $345 18.739687462825238 $442 $498 forward 7 unknown #
point $-1 73.361613818781095 -18.739687462825238 -11.482533669604553 #
edge $-1 $348 -18.739687462825238 $444 -15.110566237532758 $441 $499 forward 7 unknown #
point $-1 73.361613818781095 -18.739687462825238 11.482533669604553 #
edge $-1 $456 65.516436699621252 $459 70.850447245754665 $353 $500 forward 7 unknown #
vertex $-1 $367 $501 #
straight-curve $-1 -21.416703738638049 56.00831424369413 11.48253366960455 0 1 0 I I #
edge $-1 $459 5.0779574083357701 $364 27.599535252268787 $363 $502 forward 7 unknown #
vertex $-1 $458 $503 #
straight-curve $-1 -21.416703738638049 -6.6849573416926944 67.756193017030682 0 -0.5877852410284794 0.80901700255871778 I I #
point $-1 -21.416703738638049 34.200248183614818 11.482533669604557 #
point $-1 -43.938281582571065 38.075633576741865 6.1485231234711364 #
straight-curve $-1 0 38.075633576741865 11.482533669604553 -1 0 0 I I #
vertex $-1 $370 $504 #
point $-1 -36.003545055733063 34.838864550391406 7.8716942234571761 #
vertex $-1 $374 $505 #
point $-1 -26.351440265476057 34.838864550391406 7.8716942234571761 #
edge $-1 $469 34.712601752841479 $472 40.04661229897485 $379 $506 forward 7 unknown #
vertex $-1 $393 $507 #
straight-curve $-1 -43.938281582571065 -78.388609702911424 11.48253366960455 0 -1 0 I I #
edge $-1 $472 -27.599535252268787 $390 -5.0779574083357701 $389 $508 forward 7 unknown #
vertex $-1 $471 $509 #
straight-curve $-1 -43.938281582571065 -38.075633576741893 6.1485231234711364 0 0.5877852410284794 0.80901700255871778 I I #
point $-1 -43.938281582571065 -34.200248183614846 11.482533669604553 #
point $-1 -21.416703738638049 -38.075633576741865 6.1485231234711755 #
straight-curve $-1 0 -38.075633576741865 11.482533669604553 1 0 0 I I #
vertex $-1 $396 $510 #
point $-1 -36.003545055733063 -34.838864550391399 7.871694223457169 #
vertex $-1 $400 $511 #
point $-1 -26.351440265476057 -34.838864550391399 7.871694223457169 #
straight-curve $-1 -73.361613818781095 38.075633576741865 0 0 0 -1 I I #
point $-1 -73.361613818781095 -38.075633576741865 -11.482533669604553 #
straight-curve $-1 -73.361613818781095 0 -11.482533669604553 0 1 0 I I #
point $-1 -73.361613818781095 38.075633576741865 -11.482533669604553 #
coedge $-1 $422 $421 $486 $512 reversed $200 $-1 #
coedge $-1 $427 $423 $485 $512 forward $307 $-1 #
vertex $-1 $424 $513 #
straight-curve $-1 0 38.075633576741865 11.482533669604553 -1 0 0 I I #
point $-1 -62.779229208813163 38.075633576741865 11.482533669604553 #
vertex $-1 $512 $514 #
straight-curve $-1 0 -38.075633576741865 11.482533669604553 1 0 0 I I #
straight-curve $-1 -73.361613818781095 -38.075633576741865 0 0 0 -1 I I #
straight-curve $-1 -73.361613818781095 38.075633576741865 0 0 0 -1 I I #
straight-curve $-1 34.250073292198756 -15.110566237532758 11.482533669604553 -1 0 0 I I #
straight-curve $-1 34.250073292198756 -15.110566237532758 -11.482533669604553 1 0 0 I I #
point $-1 73.361613818781095 -15.110566237532758 -11.482533669604553 #
point $-1 73.361613818781095 -15.110566237532758 11.482533669604553 #
straight-curve $-1 73.361613818781095 0 -11.482533669604553 0 -1 0 I I #
straight-curve $-1 73.361613818781095 0 11.482533669604553 0 1 0 I I #
straight-curve $-1 -21.416703738638049 38.075633576741865 76.998970369225802 0 0 -1 I I #
point $-1 -21.416703738638049 38.075633576741865 11.482533669604553 #
straight-curve $-1 -16.338746330302278 38.075633576741865 6.1485231234711364 -1 0 0 I I #
point $-1 -21.416703738638049 38.075633576741865 6.1485231234711364 #
point $-1 -37.503545055733063 33.625339046553336 6.9900163619144564 #
point $-1 -27.851440265476057 33.625339046553336 6.9900163619144564 #
straight-curve $-1 -43.938281582571065 -38.075633576741865 46.195135422446029 0 0 -1 I I #
point $-1 -43.938281582571065 -38.075633576741865 11.482533669604553 #
straight-curve $-1 -16.338746330302278 -38.075633576741865 6.1485231234711772 1 0 0 I I #
point $-1 -43.938281582571065 -38.075633576741865 6.1485231234711755 #
point $-1 -37.503545055733063 -33.625339046553329 6.9900163619144493 #
point $-1 -27.851440265476057 -33.625339046553329 6.9900163619144493 #
edge $-1 $487 -38.075633576741865 $490 38.075633576741865 $485 $515 forward 7 unknown #
point $-1 -73.361613818781095 38.075633576741865 11.482533669604553 #
point $-1 -73.361613818781095 -38.075633576741865 11.482533669604553 #
straight-curve $-1 -73.361613818781095 0 11.482533669604553 0 -1 0 I I #
End-of-ACIS-data 