500 0 6 0           
7 Unknown 11 ACIS 5.0 NT 24 Thu Mar 25 21:55:01 1999 
-1 9.9999999999999995e-007 1e-010 
body $-1 $6 $-1 $7 #
body $-1 $8 $-1 $9 #
body $-1 $10 $-1 $11 #
body $-1 $12 $-1 $13 #
body $-1 $14 $-1 $15 #
body $-1 $16 $-1 $17 #
lump $-1 $-1 $18 $0 #
transform $-1 1 0 0 0 1 0 0 0 1 77.38029114658039 45.270788272013327 20.302291314419428 1 rotate no_reflect no_shear #
lump $-1 $-1 $19 $1 #
transform $-1 1 0 0 0 1 0 0 0 1 77.38029114658039 45.270788272013327 20.302291314419428 1 rotate no_reflect no_shear #
lump $-1 $-1 $20 $2 #
transform $-1 1 0 0 0 1 0 0 0 1 77.38029114658039 45.270788272013327 20.302291314419428 1 rotate no_reflect no_shear #
lump $-1 $-1 $21 $3 #
transform $-1 1 0 0 0 1 0 0 0 1 77.38029114658039 45.270788272013327 20.302291314419428 1 rotate no_reflect no_shear #
lump $-1 $-1 $22 $4 #
transform $-1 1 0 0 0 1 0 0 0 1 77.38029114658039 45.270788272013327 20.302291314419428 1 rotate no_reflect no_shear #
lump $-1 $-1 $23 $5 #
transform $-1 1 0 0 0 1 0 0 0 1 77.38029114658039 45.270788272013327 20.302291314419428 1 rotate no_reflect no_shear #
shell $-1 $-1 $-1 $24 $-1 $6 #
shell $-1 $-1 $-1 $25 $-1 $8 #
shell $-1 $-1 $-1 $26 $-1 $10 #
shell $-1 $-1 $-1 $27 $-1 $12 #
shell $-1 $-1 $-1 $28 $-1 $14 #
shell $-1 $-1 $-1 $29 $-1 $16 #
face $-1 $30 $31 $18 $-1 $32 forward single #
face $-1 $33 $34 $19 $-1 $35 reversed single #
face $-1 $36 $37 $20 $-1 $38 forward single #
face $-1 $39 $40 $21 $-1 $41 reversed single #
face $-1 $42 $43 $22 $-1 $44 forward single #
face $-1 $45 $46 $23 $-1 $47 forward single #
face $-1 $48 $49 $18 $-1 $50 reversed single #
loop $-1 $-1 $51 $24 #
plane-surface $-1 0 0 20.302291314419428 0 0 1 1 0 0 forward_v I I I I #
face $-1 $52 $53 $19 $-1 $54 reversed single #
loop $-1 $-1 $55 $25 #
plane-surface $-1 -211.40688811400824 -18.294633334391669 86.797884995683177 0 1 0 -0.86602541151947299 0 0.49999998660252726 forward_v I I I I #
face $-1 $56 $57 $20 $-1 $58 forward single #
loop $-1 $59 $60 $26 #
cone-surface $-1 -72.164870927123673 -5.0853227600366111 13.662935227426599 0.86602541151947299 0 -0.49999998660252726 0.74999997990379086 0 1.2990381172792094 1 I I 0 1 1.5 forward I I I I #
face $-1 $61 $62 $21 $-1 $63 reversed single #
loop $-1 $-1 $64 $27 #
plane-surface $-1 -49.392155413165014 -39.60858936533306 91.024396027981822 0.57357644374324357 0 0.81915203911291934 0.81915203911291934 0 -0.57357644374324357 forward_v I I I I #
face $-1 $65 $66 $22 $-1 $67 forward single #
loop $-1 $68 $69 $28 #
cone-surface $-1 63.349069558313943 -42.035246039624603 9.6434398276964099 -0.57357644374324357 0 -0.81915203911291934 0.81915203911291934 0 -0.57357644374324357 1 I I 0 1 1 forward I I I I #
face $-1 $70 $71 $23 $-1 $72 forward single #
loop $-1 $73 $74 $29 #
cone-surface $-1 63.349069558313943 -37.181932691041524 9.6434398276964099 -0.57357644374324357 0 -0.81915203911291934 0.81915203911291934 0 -0.57357644374324357 1 I I 0 1 1 forward I I I I #
face $-1 $75 $76 $18 $-1 $77 reversed single #
loop $-1 $-1 $78 $30 #
plane-surface $-1 0 0 -20.302291314419428 0 0 1 1 0 0 forward_v I I I I #
coedge $-1 $79 $80 $81 $82 forward $31 $-1 #
face $-1 $83 $84 $19 $-1 $85 reversed single #
loop $-1 $-1 $86 $33 #
plane-surface $-1 -77.380291146580419 -5.0853227600366111 9.417595922503466 -0.86602541151947299 0 0.49999998660252726 0.49999998660252726 0 0.86602541151947299 forward_v I I I I #
coedge $-1 $87 $88 $89 $90 reversed $34 $-1 #
face $-1 $-1 $91 $20 $-1 $92 forward single #
loop $-1 $93 $94 $36 #
cone-surface $-1 -69.442072444054233 -5.0853227600366111 12.090926846439864 0.86602541151947299 0 -0.49999998660252726 0.37499998995189543 0 0.64951905863960469 1 I I -0.70710678118654757 0.70710678118654757 0.75 forward I I I I #
loop $-1 $-1 $95 $26 #
coedge $-1 $60 $60 $96 $97 reversed $37 $-1 #
face $-1 $98 $99 $21 $-1 $100 reversed single #
loop $-1 $-1 $101 $39 #
plane-surface $-1 39.374869010179737 -33.946390458652793 217.79684258772724 0 -1 0 -0.57357644374324357 0 -0.81915203911291934 forward_v I I I I #
coedge $-1 $102 $103 $104 $105 reversed $40 $-1 #
face $-1 $-1 $106 $22 $-1 $107 forward single #
loop $-1 $108 $109 $42 #
cone-surface $-1 61.916467558363053 -42.035246039624603 7.5974721763081092 -0.57357644374324357 0 -0.81915203911291934 0.40957601955645967 0 -0.28678822187162178 1 I I -0.70710678118654746 0.70710678118654746 0.5 forward I I I I #
loop $-1 $-1 $110 $28 #
coedge $-1 $69 $69 $111 $112 reversed $43 $-1 #
face $-1 $-1 $113 $23 $-1 $114 forward single #
loop $-1 $115 $116 $45 #
cone-surface $-1 61.916467558363053 -37.181932691041524 7.5974721763081092 -0.57357644374324357 0 -0.81915203911291934 0.40957601955645967 0 -0.28678822187162178 1 I I -0.70710678118654746 0.70710678118654746 0.5 forward I I I I #
loop $-1 $-1 $117 $29 #
coedge $-1 $74 $74 $118 $119 reversed $46 $-1 #
face $-1 $120 $121 $18 $-1 $122 reversed single #
loop $-1 $-1 $123 $48 #
plane-surface $-1 0 -45.270788272013327 0 0 1 0 0 0 1 forward_v I I I I #
coedge $-1 $124 $125 $126 $127 forward $49 $-1 #
coedge $-1 $128 $51 $129 $130 forward $31 $-1 #
coedge $-1 $51 $128 $131 $132 forward $31 $-1 #
coedge $-1 $133 $134 $51 $82 reversed $135 $-1 #
edge $-1 $136 -45.270788272013327 $137 45.270788272013327 $81 $138 forward 7 unknown #
face $-1 $139 $140 $19 $-1 $141 reversed single #
loop $-1 $-1 $142 $52 #
plane-surface $-1 -211.40688811400824 8.1239878143184487 86.797884995683177 0 -1 0 0.86602541151947299 0 -0.49999998660252726 forward_v I I I I #
coedge $-1 $143 $144 $145 $146 reversed $53 $-1 #
coedge $-1 $88 $55 $147 $148 reversed $34 $-1 #
coedge $-1 $55 $87 $143 $149 reversed $34 $-1 #
coedge $-1 $145 $150 $55 $90 forward $151 $-1 #
edge $-1 $152 28.32315291042373 $153 34.607434500477481 $89 $154 forward 7 unknown #
loop $-1 $-1 $96 $56 #
plane-surface $-1 -77.380291146580419 -5.0853227600366111 9.417595922503466 -0.86602541151947299 0 0.49999998660252726 0.49999998660252726 0 0.86602541151947299 forward_v I I I I #
loop $-1 $-1 $155 $36 #
coedge $-1 $94 $94 $95 $156 reversed $57 $-1 #
coedge $-1 $95 $95 $94 $156 forward $59 $-1 #
coedge $-1 $96 $96 $60 $97 forward $91 $-1 #
edge $-1 $157 0 $157 6.2831853071796004 $96 $158 forward 7 unknown #
face $-1 $159 $160 $21 $-1 $161 forward single #
loop $-1 $-1 $104 $61 #
plane-surface $-1 77.38029114658039 0 0 -1 0 0 0 0 1 forward_v I I I I #
coedge $-1 $162 $163 $164 $165 reversed $62 $-1 #
coedge $-1 $166 $64 $167 $168 reversed $40 $-1 #
coedge $-1 $64 $166 $162 $169 forward $40 $-1 #
coedge $-1 $164 $170 $64 $105 forward $99 $-1 #
edge $-1 $171 -25.466493589346797 $172 -14.142095775986263 $104 $173 forward 7 unknown #
loop $-1 $-1 $111 $65 #
plane-surface $-1 -49.392155413165014 -39.60858936533306 91.024396027981822 0.57357644374324357 0 0.81915203911291934 0.81915203911291934 0 -0.57357644374324357 forward_v I I I I #
loop $-1 $-1 $174 $42 #
coedge $-1 $109 $109 $110 $175 reversed $66 $-1 #
coedge $-1 $110 $110 $109 $175 forward $68 $-1 #
coedge $-1 $111 $111 $69 $112 forward $106 $-1 #
edge $-1 $176 0 $176 6.2831853071796004 $111 $177 forward 7 unknown #
loop $-1 $-1 $118 $70 #
plane-surface $-1 -49.392155413165014 -39.60858936533306 91.024396027981822 0.57357644374324357 0 0.81915203911291934 0.81915203911291934 0 -0.57357644374324357 forward_v I I I I #
loop $-1 $-1 $178 $45 #
coedge $-1 $116 $116 $117 $179 reversed $71 $-1 #
coedge $-1 $117 $117 $116 $179 forward $73 $-1 #
coedge $-1 $118 $118 $74 $119 forward $113 $-1 #
edge $-1 $180 0 $180 6.2831853071796004 $118 $181 forward 7 unknown #
face $-1 $182 $183 $18 $-1 $184 reversed single #
loop $-1 $-1 $185 $75 #
plane-surface $-1 -77.38029114658039 0 0 1 0 0 0 0 -1 forward_v I I I I #
coedge $-1 $186 $131 $187 $188 forward $76 $-1 #
coedge $-1 $189 $78 $186 $190 forward $49 $-1 #
coedge $-1 $78 $189 $191 $192 forward $49 $-1 #
coedge $-1 $134 $133 $78 $127 reversed $135 $-1 #
edge $-1 $193 -45.270788272013327 $194 45.270788272013327 $126 $195 forward 7 unknown #
coedge $-1 $80 $79 $196 $197 forward $31 $-1 #
coedge $-1 $198 $199 $79 $130 reversed $183 $-1 #
edge $-1 $137 -77.38029114658039 $200 77.38029114658039 $129 $201 forward 7 unknown #
coedge $-1 $123 $202 $80 $132 reversed $76 $-1 #
edge $-1 $203 -77.38029114658039 $136 77.38029114658039 $131 $204 forward 7 unknown #
coedge $-1 $126 $81 $202 $205 forward $135 $-1 #
coedge $-1 $81 $126 $198 $206 reversed $135 $-1 #
loop $-1 $-1 $133 $182 #
vertex $-1 $82 $207 #
vertex $-1 $82 $208 #
straight-curve $-1 77.38029114658039 0 20.302291314419428 0 1 0 I I #
face $-1 $-1 $151 $19 $-1 $209 forward single #
loop $-1 $-1 $210 $83 #
plane-surface $-1 -77.38029114658039 0 0 1 0 0 0 0 -1 forward_v I I I I #
coedge $-1 $211 $212 $213 $214 reversed $84 $-1 #
coedge $-1 $215 $86 $88 $149 forward $53 $-1 #
coedge $-1 $86 $215 $211 $216 forward $53 $-1 #
coedge $-1 $213 $89 $86 $146 forward $151 $-1 #
edge $-1 $153 -15.751971954373364 $217 10.666649194336754 $145 $218 forward 7 unknown #
coedge $-1 $219 $220 $87 $148 forward $140 $-1 #
edge $-1 $221 -33.981346575338073 $152 -23.096651183422161 $147 $222 forward 7 unknown #
edge $-1 $153 -12.568563516881531 $221 -5.7285218894139824e-014 $88 $223 forward 7 unknown #
coedge $-1 $89 $213 $219 $224 forward $151 $-1 #
loop $-1 $-1 $213 $139 #
vertex $-1 $148 $225 #
vertex $-1 $90 $226 #
straight-curve $-1 -105.70344405700412 -18.294633334391669 20.302291314419428 1 0 0 I I #
coedge $-1 $155 $155 $-1 $227 reversed $93 $-1 #
edge $-1 $228 0 $228 6.2831853071796004 $94 $229 forward 7 unknown #
vertex $-1 $97 $230 #
ellipse-curve $-1 -74.238150351553529 -5.0853227600366111 14.859943618461454 -0.86602541151947299 0 0.49999998660252726 0.74999997990379086 0 1.2990381172792094 1 I I #
face $-1 $-1 $231 $21 $-1 $232 reversed single #
loop $-1 $-1 $233 $98 #
plane-surface $-1 0 0 20.302291314419428 0 0 1 1 0 0 forward_v I I I I #
coedge $-1 $163 $101 $103 $169 reversed $62 $-1 #
coedge $-1 $101 $162 $233 $234 reversed $62 $-1 #
coedge $-1 $235 $104 $101 $165 forward $99 $-1 #
edge $-1 $172 -106.64104968922655 $236 -88.596129979444186 $164 $237 forward 7 unknown #
coedge $-1 $103 $102 $238 $239 reversed $40 $-1 #
coedge $-1 $240 $241 $102 $168 forward $231 $-1 #
edge $-1 $242 76.965658158117378 $171 108.42601519791938 $167 $243 forward 7 unknown #
edge $-1 $244 123.30022525335878 $172 154.76058229316078 $162 $245 forward 7 unknown #
coedge $-1 $104 $235 $240 $246 forward $99 $-1 #
vertex $-1 $168 $247 #
vertex $-1 $105 $248 #
straight-curve $-1 77.38029114658039 -19.80429468266653 2.2573716046370791 0 1 0 I I #
coedge $-1 $174 $174 $-1 $249 reversed $108 $-1 #
edge $-1 $250 0 $250 6.2831853071796004 $109 $251 forward 7 unknown #
vertex $-1 $112 $252 #
ellipse-curve $-1 64.494883336393229 -42.035246039624603 11.279831459528275 0.57357644374324357 0 0.81915203911291934 0.81915203911291934 0 -0.57357644374324357 1 I I #
coedge $-1 $178 $178 $-1 $253 reversed $115 $-1 #
edge $-1 $254 0 $254 6.2831853071796004 $116 $255 forward 7 unknown #
vertex $-1 $119 $256 #
ellipse-curve $-1 64.494883336393229 -37.181932691041524 11.279831459528275 0.57357644374324357 0 0.81915203911291934 0.81915203911291934 0 -0.57357644374324357 1 I I #
face $-1 $-1 $135 $18 $-1 $257 reversed single #
loop $-1 $-1 $198 $120 #
plane-surface $-1 0 45.270788272013327 0 0 -1 0 0 0 -1 forward_v I I I I #
coedge $-1 $258 $196 $199 $259 forward $121 $-1 #
coedge $-1 $202 $123 $124 $190 reversed $76 $-1 #
coedge $-1 $196 $258 $123 $188 reversed $121 $-1 #
edge $-1 $203 -20.302291314419428 $260 20.302291314419428 $187 $261 forward 7 unknown #
coedge $-1 $125 $124 $258 $262 forward $49 $-1 #
edge $-1 $194 -77.38029114658039 $260 77.38029114658039 $186 $263 forward 7 unknown #
coedge $-1 $199 $198 $125 $192 reversed $183 $-1 #
edge $-1 $264 -77.38029114658039 $193 77.38029114658039 $191 $265 forward 7 unknown #
vertex $-1 $127 $266 #
vertex $-1 $205 $267 #
straight-curve $-1 77.38029114658039 0 -20.302291314419428 0 -1 0 I I #
coedge $-1 $185 $187 $128 $197 reversed $121 $-1 #
edge $-1 $200 -45.270788272013327 $203 45.270788272013327 $196 $268 forward 7 unknown #
coedge $-1 $191 $129 $134 $206 forward $183 $-1 #
coedge $-1 $129 $191 $185 $259 reversed $183 $-1 #
vertex $-1 $130 $269 #
straight-curve $-1 0 45.270788272013327 20.302291314419428 -1 0 0 I I #
coedge $-1 $131 $186 $133 $205 reversed $76 $-1 #
vertex $-1 $197 $270 #
straight-curve $-1 0 -45.270788272013327 20.302291314419428 1 0 0 I I #
edge $-1 $136 -20.302291314419428 $194 20.302291314419428 $133 $271 forward 7 unknown #
edge $-1 $137 -20.302291314419428 $193 20.302291314419428 $134 $272 forward 7 unknown #
point $-1 77.38029114658039 -45.270788272013327 20.302291314419428 #
point $-1 77.38029114658039 45.270788272013327 20.302291314419428 #
plane-surface $-1 0 0 20.302291314419428 0 0 1 1 0 0 forward_v I I I I #
coedge $-1 $220 $219 $212 $273 forward $140 $-1 #
coedge $-1 $212 $142 $144 $216 reversed $84 $-1 #
coedge $-1 $142 $211 $210 $273 reversed $84 $-1 #
coedge $-1 $150 $145 $142 $214 forward $151 $-1 #
edge $-1 $217 -34.607434500477481 $274 -28.32315291042373 $213 $275 forward 7 unknown #
coedge $-1 $144 $143 $220 $276 reversed $53 $-1 #
edge $-1 $277 5.7285218894139824e-014 $217 12.568563516881531 $211 $278 forward 7 unknown #
vertex $-1 $146 $279 #
straight-curve $-1 -71.096009556526639 -2.5426613800183056 20.302291314419428 0 1 0 I I #
coedge $-1 $210 $147 $150 $224 reversed $140 $-1 #
coedge $-1 $147 $210 $215 $276 forward $140 $-1 #
vertex $-1 $148 $280 #
straight-curve $-1 -77.38029114658039 -18.294633334391669 43.398942497841588 0 0 1 I I #
straight-curve $-1 -77.380291146580419 -18.294633334391669 9.417595922503466 -0.49999998660252726 0 -0.86602541151947299 I I #
edge $-1 $274 -8.1239878143184487 $152 18.294633334391669 $219 $281 forward 7 unknown #
point $-1 -77.38029114658039 -18.294633334391669 20.302291314419428 #
point $-1 -71.096009556526639 -18.294633334391669 20.302291314419428 #
edge $-1 $282 1 $282 0 $155 $-1 forward 7 unknown #
vertex $-1 $156 $283 #
ellipse-curve $-1 -70.091591502693831 -5.0853227600366111 12.465926836391759 -0.86602541151947299 0 0.49999998660252726 0.74999997990379086 0 1.2990381172792094 1 I I #
point $-1 -73.488150371649709 -5.0853227600366111 16.158981735740646 #
loop $-1 $-1 $167 $159 #
plane-surface $-1 0 -45.270788272013327 0 0 1 0 0 0 1 forward_v I I I I #
coedge $-1 $238 $284 $163 $234 forward $160 $-1 #
edge $-1 $236 -57.692856641490522 $244 -31.922041021116229 $233 $285 forward 7 unknown #
coedge $-1 $170 $164 $284 $286 reversed $99 $-1 #
vertex $-1 $165 $287 #
straight-curve $-1 77.38029114658039 -33.946390458652793 108.89842129386362 0 0 1 I I #
coedge $-1 $288 $233 $166 $239 forward $160 $-1 #
edge $-1 $244 14.142095775986263 $242 25.466493589346797 $238 $289 forward 7 unknown #
coedge $-1 $241 $167 $170 $246 reversed $231 $-1 #
coedge $-1 $167 $240 $288 $290 reversed $231 $-1 #
vertex $-1 $290 $291 #
straight-curve $-1 -11.437100295683653 -45.270788272013327 64.447979811110557 0.81915203911291934 0 -0.57357644374324357 I I #
vertex $-1 $239 $292 #
straight-curve $-1 -49.392155413165014 -33.946390458652793 91.024396027981822 0.81915203911291934 0 -0.57357644374324357 I I #
edge $-1 $293 -20.302291314419428 $171 -2.2573716046370889 $170 $294 forward 7 unknown #
point $-1 77.38029114658039 -45.270788272013327 2.2573716046370889 #
point $-1 77.380291146580404 -33.946390458652793 2.257371604637072 #
edge $-1 $295 1 $295 0 $174 $-1 forward 7 unknown #
vertex $-1 $175 $296 #
ellipse-curve $-1 62.203255780234677 -42.035246039624603 8.0070481958645683 0.57357644374324357 0 0.81915203911291934 0.81915203911291934 0 -0.57357644374324357 1 I I #
point $-1 65.314035375506123 -42.035246039624603 10.706255015785006 #
edge $-1 $297 1 $297 0 $178 $-1 forward 7 unknown #
vertex $-1 $179 $298 #
ellipse-curve $-1 62.203255780234677 -37.181932691041524 8.0070481958645683 0.57357644374324357 0 0.81915203911291934 0.81915203911291934 0 -0.57357644374324357 1 I I #
point $-1 65.314035375506123 -37.181932691041524 10.706255015785006 #
plane-surface $-1 77.38029114658039 0 0 -1 0 0 0 0 1 forward_v I I I I #
coedge $-1 $187 $185 $189 $262 reversed $121 $-1 #
edge $-1 $200 -20.302291314419428 $264 20.302291314419428 $199 $299 forward 7 unknown #
vertex $-1 $262 $300 #
straight-curve $-1 -77.38029114658039 -45.270788272013327 0 0 0 -1 I I #
edge $-1 $260 -45.270788272013327 $264 45.270788272013327 $258 $301 forward 7 unknown #
straight-curve $-1 0 -45.270788272013327 -20.302291314419428 -1 0 0 I I #
vertex $-1 $192 $302 #
straight-curve $-1 0 45.270788272013327 -20.302291314419428 1 0 0 I I #
point $-1 77.38029114658039 45.270788272013327 -20.302291314419428 #
point $-1 77.38029114658039 -45.270788272013327 -20.302291314419428 #
straight-curve $-1 -77.38029114658039 0 20.302291314419428 0 -1 0 I I #
point $-1 -77.38029114658039 45.270788272013327 20.302291314419428 #
point $-1 -77.38029114658039 -45.270788272013327 20.302291314419428 #
straight-curve $-1 77.38029114658039 -45.270788272013327 0 0 0 -1 I I #
straight-curve $-1 77.38029114658039 45.270788272013327 0 0 0 -1 I I #
edge $-1 $274 23.096651183422161 $277 33.981346575338073 $210 $303 forward 7 unknown #
vertex $-1 $224 $304 #
straight-curve $-1 -105.70344405700412 8.1239878143184487 20.302291314419428 -1 0 0 I I #
edge $-1 $277 -10.666649194336754 $221 15.751971954373364 $220 $305 forward 7 unknown #
vertex $-1 $276 $306 #
straight-curve $-1 -77.380291146580419 8.1239878143184487 9.417595922503466 0.49999998660252726 0 0.86602541151947299 I I #
point $-1 -71.096009556526639 8.1239878143184487 20.302291314419428 #
point $-1 -77.38029114658039 -18.294633334391669 9.4175959225035157 #
straight-curve $-1 -77.38029114658039 0 20.302291314419428 0 -1 0 I I #
vertex $-1 $227 $307 #
point $-1 -69.34159152279004 -5.0853227600366111 13.764964953670969 #
coedge $-1 $233 $288 $235 $286 forward $160 $-1 #
straight-curve $-1 19.687434505089868 -33.946390458652793 20.302291314419421 -1 0 0 I I #
edge $-1 $293 -45.270788272013327 $236 -33.946390458652793 $235 $308 forward 7 unknown #
point $-1 77.38029114658039 -33.946390458652793 20.302291314419428 #
coedge $-1 $284 $238 $241 $290 forward $160 $-1 #
straight-curve $-1 51.609475526206083 -19.80429468266653 20.302291314419435 0 -1 0 I I #
edge $-1 $242 51.609475526206097 $293 77.38029114658039 $241 $309 forward 7 unknown #
point $-1 51.609475526206097 -45.270788272013327 20.302291314419421 #
point $-1 51.609475526206097 -33.946390458652793 20.302291314419421 #
vertex $-1 $286 $310 #
straight-curve $-1 77.38029114658039 -45.270788272013327 0 0 0 -1 I I #
vertex $-1 $249 $311 #
point $-1 63.022407819347592 -42.035246039624603 7.4334717521213252 #
vertex $-1 $253 $312 #
point $-1 63.022407819347592 -37.181932691041524 7.4334717521213252 #
straight-curve $-1 -77.38029114658039 45.270788272013327 0 0 0 -1 I I #
point $-1 -77.38029114658039 -45.270788272013327 -20.302291314419428 #
straight-curve $-1 -77.38029114658039 0 -20.302291314419428 0 1 0 I I #
point $-1 -77.38029114658039 45.270788272013327 -20.302291314419428 #
straight-curve $-1 -77.38029114658039 8.1239878143184487 43.398942497841588 0 0 -1 I I #
point $-1 -77.38029114658039 8.1239878143184487 20.302291314419428 #
straight-curve $-1 -77.38029114658039 -2.5426613800183056 9.4175959225035104 0 -1 0 I I #
point $-1 -77.38029114658039 8.1239878143184487 9.4175959225035157 #
point $-1 -68.792553385414635 -5.0853227600366111 11.715926856487968 #
straight-curve $-1 77.38029114658039 0 20.302291314419428 0 1 0 I I #
straight-curve $-1 0 -45.270788272013327 20.302291314419428 1 0 0 I I #
point $-1 77.38029114658039 -45.270788272013327 20.302291314419428 #
point $-1 61.629679336491428 -42.035246039624603 7.1878961567516493 #
point $-1 61.629679336491428 -37.181932691041524 7.1878961567516493 #
End-of-ACIS-data 