500 0 10 0           
7 Unknown 11 ACIS 5.0 NT 24 Thu Mar 25 17:07:59 1999 
-1 9.9999999999999995e-007 1e-010 
body $-1 $10 $-1 $11 #
body $-1 $12 $-1 $13 #
body $-1 $14 $-1 $15 #
body $-1 $16 $-1 $17 #
body $-1 $18 $-1 $19 #
body $-1 $20 $-1 $21 #
body $-1 $22 $-1 $23 #
body $-1 $24 $-1 $25 #
body $-1 $26 $-1 $27 #
body $-1 $28 $-1 $29 #
lump $-1 $-1 $30 $0 #
transform $-1 1 0 0 0 1 0 0 0 1 72.227546006653029 30.027764075918789 6.6912052423697208 1 rotate no_reflect no_shear #
lump $-1 $-1 $31 $1 #
transform $-1 1 0 0 0 1 0 0 0 1 72.227546006653029 30.027764075918789 6.6912052423697208 1 rotate no_reflect no_shear #
lump $-1 $-1 $32 $2 #
transform $-1 1 0 0 0 1 0 0 0 1 72.227546006653029 30.027764075918789 6.6912052423697208 1 rotate no_reflect no_shear #
lump $-1 $-1 $33 $3 #
transform $-1 1 0 0 0 1 0 0 0 1 72.227546006653029 30.027764075918789 6.6912052423697208 1 rotate no_reflect no_shear #
lump $-1 $-1 $34 $4 #
transform $-1 1 0 0 0 1 0 0 0 1 72.227546006653029 30.027764075918789 6.6912052423697208 1 rotate no_reflect no_shear #
lump $-1 $-1 $35 $5 #
transform $-1 1 0 0 0 1 0 0 0 1 72.227546006653029 30.027764075918789 6.6912052423697208 1 rotate no_reflect no_shear #
lump $-1 $-1 $36 $6 #
transform $-1 1 0 0 0 1 0 0 0 1 72.227546006653029 30.027764075918789 6.6912052423697208 1 rotate no_reflect no_shear #
lump $-1 $-1 $37 $7 #
transform $-1 1 0 0 0 1 0 0 0 1 72.227546006653029 30.027764075918789 6.6912052423697208 1 rotate no_reflect no_shear #
lump $-1 $-1 $38 $8 #
transform $-1 1 0 0 0 1 0 0 0 1 72.227546006653029 30.027764075918789 6.6912052423697208 1 rotate no_reflect no_shear #
lump $-1 $-1 $39 $9 #
transform $-1 1 0 0 0 1 0 0 0 1 72.227546006653029 30.027764075918789 6.6912052423697208 1 rotate no_reflect no_shear #
shell $-1 $-1 $-1 $40 $-1 $10 #
shell $-1 $-1 $-1 $41 $-1 $12 #
shell $-1 $-1 $-1 $42 $-1 $14 #
shell $-1 $-1 $-1 $43 $-1 $16 #
shell $-1 $-1 $-1 $44 $-1 $18 #
shell $-1 $-1 $-1 $45 $-1 $20 #
shell $-1 $-1 $-1 $46 $-1 $22 #
shell $-1 $-1 $-1 $47 $-1 $24 #
shell $-1 $-1 $-1 $48 $-1 $26 #
shell $-1 $-1 $-1 $49 $-1 $28 #
face $-1 $50 $51 $30 $-1 $52 forward single #
face $-1 $53 $54 $31 $-1 $55 reversed single #
face $-1 $56 $57 $32 $-1 $58 forward single #
face $-1 $59 $60 $33 $-1 $61 forward single #
face $-1 $62 $63 $34 $-1 $64 reversed single #
face $-1 $65 $66 $35 $-1 $67 forward single #
face $-1 $68 $69 $36 $-1 $70 forward single #
face $-1 $71 $72 $37 $-1 $73 reversed single #
face $-1 $74 $75 $38 $-1 $76 forward single #
face $-1 $77 $78 $39 $-1 $79 forward single #
face $-1 $80 $81 $30 $-1 $82 reversed single #
loop $-1 $-1 $83 $40 #
plane-surface $-1 0 0 6.6912052423697208 0 0 1 1 0 0 forward_v I I I I #
face $-1 $84 $85 $31 $-1 $86 reversed single #
loop $-1 $-1 $87 $41 #
plane-surface $-1 -17.893324076148911 -152.53263098265671 76.666465027733778 -1 0 0 0 -0.84804810408105047 0.52991925155115449 forward_v I I I I #
face $-1 $88 $89 $32 $-1 $90 forward single #
loop $-1 $91 $92 $42 #
cone-surface $-1 -46.70668894740335 -26.727891238329327 2.6255798088697864 0 0.84804810408105047 -0.52991925155115449 1 0 0 1 I I 0 1 1 forward I I I I #
face $-1 $93 $94 $33 $-1 $95 forward single #
loop $-1 $96 $97 $43 #
cone-surface $-1 -29.41867002465068 -26.727891238329327 2.6255798088697864 0 0.84804810408105047 -0.52991925155115449 1 0 0 1 I I 0 1 1 forward I I I I #
face $-1 $98 $99 $34 $-1 $100 reversed single #
loop $-1 $-1 $101 $44 #
plane-surface $-1 -66.182417334513275 122.91906367748877 129.48309722647673 1 0 0 0 -0.85716730853699208 -0.51503806187062418 forward_v I I I I #
face $-1 $102 $103 $35 $-1 $104 forward single #
loop $-1 $105 $106 $45 #
cone-surface $-1 -61.592608687422469 28.454848680144142 4.7603002837910324 0 -0.85716730853699208 -0.51503806187062418 0.5 0 0 1 I I 0 1 0.5 forward I I I I #
face $-1 $107 $108 $36 $-1 $109 forward single #
loop $-1 $110 $111 $46 #
cone-surface $-1 -54.707895716786254 28.454848680144142 4.7603002837910324 0 -0.85716730853699208 -0.51503806187062418 0.5 0 0 1 I I 0 1 0.5 forward I I I I #
face $-1 $112 $113 $37 $-1 $114 reversed single #
loop $-1 $-1 $115 $47 #
plane-surface $-1 50.118087069695434 122.91906367748877 129.48309722647673 1 0 0 0 -0.85716730853699208 -0.51503806187062418 forward_v I I I I #
face $-1 $116 $117 $38 $-1 $118 forward single #
loop $-1 $119 $120 $48 #
cone-surface $-1 54.70789571678624 28.454848680144142 4.7603002837910324 0 -0.85716730853699208 -0.51503806187062418 0.5 0 0 1 I I 0 1 0.5 forward I I I I #
face $-1 $121 $122 $39 $-1 $123 forward single #
loop $-1 $124 $125 $49 #
cone-surface $-1 61.592608687422455 28.454848680144142 4.7603002837910324 0 -0.85716730853699208 -0.51503806187062418 0.5 0 0 1 I I 0 1 0.5 forward I I I I #
face $-1 $126 $127 $30 $-1 $128 reversed single #
loop $-1 $-1 $129 $50 #
plane-surface $-1 0 0 -6.6912052423697208 0 0 1 1 0 0 forward_v I I I I #
coedge $-1 $130 $131 $132 $133 forward $51 $-1 #
face $-1 $134 $135 $31 $-1 $136 reversed single #
loop $-1 $-1 $137 $53 #
plane-surface $-1 -38.062679486027015 -30.02776407591881 0.1169307852894832 0 -0.84804810408105047 0.52991925155115449 1 0 0 forward_v I I I I #
coedge $-1 $138 $139 $140 $141 reversed $54 $-1 #
face $-1 $-1 $142 $32 $-1 $143 forward single #
loop $-1 $144 $145 $56 #
cone-surface $-1 -46.70668894740335 -25.058025589983082 1.5821319781344041 0 0.84804810408105047 -0.52991925155115449 0.5 0 0 1 I I -0.70710678118654746 0.70710678118654746 0.5 forward I I I I #
loop $-1 $-1 $146 $42 #
coedge $-1 $92 $92 $147 $148 reversed $57 $-1 #
face $-1 $-1 $149 $33 $-1 $150 forward single #
loop $-1 $151 $152 $59 #
cone-surface $-1 -29.41867002465068 -25.058025589983082 1.5821319781344041 0 0.84804810408105047 -0.52991925155115449 0.5 0 0 1 I I -0.70710678118654746 0.70710678118654746 0.5 forward I I I I #
loop $-1 $-1 $153 $43 #
coedge $-1 $97 $97 $154 $155 reversed $60 $-1 #
face $-1 $156 $157 $34 $-1 $158 reversed single #
loop $-1 $-1 $159 $62 #
plane-surface $-1 -58.150252202104362 -0.90311874802033287 55.083226608600896 0 0.85716730853699208 0.51503806187062418 1 0 0 forward_v I I I I #
coedge $-1 $160 $161 $162 $163 reversed $63 $-1 #
face $-1 $-1 $164 $35 $-1 $165 forward single #
loop $-1 $166 $167 $65 #
cone-surface $-1 -61.592608687422469 27.594653413113448 4.2434428409681839 0 -0.85716730853699208 -0.51503806187062418 0.25 0 0 1 I I -0.70710678118654746 0.70710678118654746 0.25 forward I I I I #
loop $-1 $-1 $168 $45 #
coedge $-1 $106 $106 $169 $170 reversed $66 $-1 #
face $-1 $-1 $171 $36 $-1 $172 forward single #
loop $-1 $173 $174 $68 #
cone-surface $-1 -54.707895716786254 27.594653413113448 4.2434428409681839 0 -0.85716730853699208 -0.51503806187062418 0.25 0 0 1 I I -0.70710678118654746 0.70710678118654746 0.25 forward I I I I #
loop $-1 $-1 $175 $46 #
coedge $-1 $111 $111 $176 $177 reversed $69 $-1 #
face $-1 $178 $179 $37 $-1 $180 reversed single #
loop $-1 $-1 $181 $71 #
plane-surface $-1 58.150252202104355 -0.90311874802033287 55.083226608600896 0 0.85716730853699208 0.51503806187062418 1 0 0 forward_v I I I I #
coedge $-1 $182 $183 $184 $185 reversed $72 $-1 #
face $-1 $-1 $186 $38 $-1 $187 forward single #
loop $-1 $188 $189 $74 #
cone-surface $-1 54.70789571678624 27.594653413113448 4.2434428409681839 0 -0.85716730853699208 -0.51503806187062418 0.25 0 0 1 I I -0.70710678118654746 0.70710678118654746 0.25 forward I I I I #
loop $-1 $-1 $190 $48 #
coedge $-1 $120 $120 $191 $192 reversed $75 $-1 #
face $-1 $-1 $193 $39 $-1 $194 forward single #
loop $-1 $195 $196 $77 #
cone-surface $-1 61.592608687422455 27.594653413113448 4.2434428409681839 0 -0.85716730853699208 -0.51503806187062418 0.25 0 0 1 I I -0.70710678118654746 0.70710678118654746 0.25 forward I I I I #
loop $-1 $-1 $197 $49 #
coedge $-1 $125 $125 $198 $199 reversed $78 $-1 #
face $-1 $200 $201 $30 $-1 $202 reversed single #
loop $-1 $-1 $203 $80 #
plane-surface $-1 0 -30.027764075918789 0 0 1 0 0 0 1 forward_v I I I I #
coedge $-1 $204 $205 $206 $207 forward $81 $-1 #
coedge $-1 $208 $83 $209 $210 forward $51 $-1 #
coedge $-1 $83 $208 $211 $212 forward $51 $-1 #
coedge $-1 $213 $214 $83 $133 reversed $215 $-1 #
edge $-1 $216 -30.027764075918789 $217 30.027764075918789 $132 $218 forward 7 unknown #
face $-1 $219 $220 $31 $-1 $221 reversed single #
loop $-1 $-1 $222 $84 #
plane-surface $-1 -58.232034895905116 -152.53263098265671 76.666465027733778 1 0 0 0 0.84804810408105047 -0.52991925155115449 forward_v I I I I #
coedge $-1 $223 $224 $225 $226 reversed $85 $-1 #
coedge $-1 $139 $87 $227 $228 reversed $54 $-1 #
coedge $-1 $87 $138 $223 $229 reversed $54 $-1 #
coedge $-1 $225 $230 $87 $141 forward $231 $-1 #
edge $-1 $232 46.238551415409567 $233 50.346613897977008 $140 $234 forward 7 unknown #
loop $-1 $-1 $147 $88 #
plane-surface $-1 -38.062679486027015 -30.02776407591881 0.1169307852894832 0 -0.84804810408105047 0.52991925155115449 1 0 0 forward_v I I I I #
loop $-1 $-1 $235 $56 #
coedge $-1 $145 $145 $146 $236 reversed $89 $-1 #
coedge $-1 $146 $146 $145 $236 forward $91 $-1 #
coedge $-1 $147 $147 $92 $148 forward $142 $-1 #
edge $-1 $237 7.500685158285799e-016 $237 6.2831853071796013 $147 $238 forward 7 unknown #
loop $-1 $-1 $154 $93 #
plane-surface $-1 -38.062679486027015 -30.02776407591881 0.1169307852894832 0 -0.84804810408105047 0.52991925155115449 1 0 0 forward_v I I I I #
loop $-1 $-1 $239 $59 #
coedge $-1 $152 $152 $153 $240 reversed $94 $-1 #
coedge $-1 $153 $153 $152 $240 forward $96 $-1 #
coedge $-1 $154 $154 $97 $155 forward $149 $-1 #
edge $-1 $241 7.500685158285799e-016 $241 6.2831853071796013 $154 $242 forward 7 unknown #
face $-1 $243 $244 $34 $-1 $245 reversed single #
loop $-1 $-1 $246 $98 #
plane-surface $-1 -50.118087069695449 122.91906367748877 129.48309722647673 -1 0 0 0 0.85716730853699208 0.51503806187062418 forward_v I I I I #
coedge $-1 $247 $248 $249 $250 reversed $99 $-1 #
coedge $-1 $161 $101 $251 $252 reversed $63 $-1 #
coedge $-1 $101 $160 $247 $253 reversed $63 $-1 #
coedge $-1 $249 $254 $101 $163 forward $255 $-1 #
edge $-1 $256 31.431767762825594 $257 33.285791674581958 $162 $258 forward 7 unknown #
loop $-1 $-1 $169 $102 #
plane-surface $-1 -58.150252202104362 -0.90311874802033287 55.083226608600896 0 0.85716730853699208 0.51503806187062418 1 0 0 forward_v I I I I #
loop $-1 $-1 $259 $65 #
coedge $-1 $167 $167 $168 $260 reversed $103 $-1 #
coedge $-1 $168 $168 $167 $260 forward $105 $-1 #
coedge $-1 $169 $169 $106 $170 forward $164 $-1 #
edge $-1 $261 1.2023834831759341e-015 $261 6.2831853071796013 $169 $262 forward 7 unknown #
loop $-1 $-1 $176 $107 #
plane-surface $-1 -58.150252202104362 -0.90311874802033287 55.083226608600896 0 0.85716730853699208 0.51503806187062418 1 0 0 forward_v I I I I #
loop $-1 $-1 $263 $68 #
coedge $-1 $174 $174 $175 $264 reversed $108 $-1 #
coedge $-1 $175 $175 $174 $264 forward $110 $-1 #
coedge $-1 $176 $176 $111 $177 forward $171 $-1 #
edge $-1 $265 1.2023834831759341e-015 $265 6.2831853071796013 $176 $266 forward 7 unknown #
face $-1 $267 $268 $37 $-1 $269 forward single #
loop $-1 $-1 $270 $112 #
plane-surface $-1 66.182417334513275 122.91906367748877 129.48309722647673 -1 0 0 0 0.85716730853699208 0.51503806187062418 forward_v I I I I #
coedge $-1 $271 $272 $273 $274 reversed $113 $-1 #
coedge $-1 $183 $115 $275 $276 reversed $72 $-1 #
coedge $-1 $115 $182 $271 $277 reversed $72 $-1 #
coedge $-1 $273 $278 $115 $185 forward $268 $-1 #
edge $-1 $279 31.431767762825594 $280 33.285791674581958 $184 $281 forward 7 unknown #
loop $-1 $-1 $191 $116 #
plane-surface $-1 58.150252202104355 -0.90311874802033287 55.083226608600896 0 0.85716730853699208 0.51503806187062418 1 0 0 forward_v I I I I #
loop $-1 $-1 $282 $74 #
coedge $-1 $189 $189 $190 $283 reversed $117 $-1 #
coedge $-1 $190 $190 $189 $283 forward $119 $-1 #
coedge $-1 $191 $191 $120 $192 forward $186 $-1 #
edge $-1 $284 1.2023834831759341e-015 $284 6.2831853071796013 $191 $285 forward 7 unknown #
loop $-1 $-1 $198 $121 #
plane-surface $-1 58.150252202104355 -0.90311874802033287 55.083226608600896 0 0.85716730853699208 0.51503806187062418 1 0 0 forward_v I I I I #
loop $-1 $-1 $286 $77 #
coedge $-1 $196 $196 $197 $287 reversed $122 $-1 #
coedge $-1 $197 $197 $196 $287 forward $124 $-1 #
coedge $-1 $198 $198 $125 $199 forward $193 $-1 #
edge $-1 $288 1.2023834831759341e-015 $288 6.2831853071796013 $198 $289 forward 7 unknown #
face $-1 $290 $291 $30 $-1 $292 reversed single #
loop $-1 $-1 $293 $126 #
plane-surface $-1 -72.227546006653029 0 0 1 0 0 0 0 -1 forward_v I I I I #
coedge $-1 $294 $211 $295 $296 forward $127 $-1 #
coedge $-1 $297 $129 $294 $298 forward $81 $-1 #
coedge $-1 $129 $297 $299 $300 forward $81 $-1 #
coedge $-1 $214 $213 $129 $207 reversed $215 $-1 #
edge $-1 $301 -30.027764075918789 $302 30.027764075918789 $206 $303 forward 7 unknown #
coedge $-1 $131 $130 $304 $305 forward $51 $-1 #
coedge $-1 $306 $307 $130 $210 reversed $291 $-1 #
edge $-1 $217 -72.227546006653029 $308 72.227546006653029 $209 $309 forward 7 unknown #
coedge $-1 $203 $310 $131 $212 reversed $127 $-1 #
edge $-1 $311 -72.227546006653029 $216 72.227546006653029 $211 $312 forward 7 unknown #
coedge $-1 $206 $132 $310 $313 forward $215 $-1 #
coedge $-1 $132 $206 $306 $314 reversed $215 $-1 #
loop $-1 $-1 $213 $290 #
vertex $-1 $133 $315 #
vertex $-1 $133 $316 #
straight-curve $-1 72.227546006653029 0 6.6912052423697208 0 1 0 I I #
face $-1 $-1 $231 $31 $-1 $317 forward single #
loop $-1 $-1 $318 $134 #
plane-surface $-1 0 -30.027764075918789 0 0 1 0 0 0 1 forward_v I I I I #
coedge $-1 $319 $320 $321 $322 reversed $135 $-1 #
coedge $-1 $323 $137 $139 $229 forward $85 $-1 #
coedge $-1 $137 $323 $319 $324 forward $85 $-1 #
coedge $-1 $321 $140 $137 $226 forward $231 $-1 #
edge $-1 $233 -1.1380156668645967 $325 39.200695152891612 $225 $326 forward 7 unknown #
coedge $-1 $327 $328 $138 $228 forward $220 $-1 #
edge $-1 $329 -38.216301728577371 $232 -31.64202727149717 $227 $330 forward 7 unknown #
edge $-1 $233 -7.7522423851229014 $329 -4.0224188011164724e-014 $139 $331 forward 7 unknown #
coedge $-1 $140 $321 $327 $332 forward $231 $-1 #
loop $-1 $-1 $321 $219 #
vertex $-1 $228 $333 #
vertex $-1 $141 $334 #
straight-curve $-1 -17.893324076148911 -76.266315491328356 6.691205242369719 0 1 0 I I #
coedge $-1 $235 $235 $-1 $335 reversed $144 $-1 #
edge $-1 $336 0 $336 6.2831853071796004 $145 $337 forward 7 unknown #
vertex $-1 $148 $338 #
ellipse-curve $-1 -46.70668894740335 -27.973732834635076 3.4040680138296078 0 -0.84804810408105047 0.52991925155115449 1 0 0 1 I I #
coedge $-1 $239 $239 $-1 $339 reversed $151 $-1 #
edge $-1 $340 0 $340 6.2831853071796004 $152 $341 forward 7 unknown #
vertex $-1 $155 $342 #
ellipse-curve $-1 -29.41867002465068 -27.973732834635076 3.4040680138296078 0 -0.84804810408105047 0.52991925155115449 1 0 0 1 I I #
face $-1 $-1 $255 $34 $-1 $343 forward single #
loop $-1 $-1 $344 $156 #
plane-surface $-1 0 30.027764075918789 0 0 -1 0 0 0 -1 forward_v I I I I #
coedge $-1 $345 $346 $347 $348 reversed $157 $-1 #
coedge $-1 $349 $159 $161 $253 forward $99 $-1 #
coedge $-1 $159 $349 $345 $350 forward $99 $-1 #
coedge $-1 $347 $162 $159 $250 forward $255 $-1 #
edge $-1 $257 -37.107291233461098 $351 -21.042960968643268 $249 $352 forward 7 unknown #
coedge $-1 $353 $354 $160 $252 forward $244 $-1 #
edge $-1 $355 -61.135957433315617 $256 -58.050343370868646 $251 $356 forward 7 unknown #
edge $-1 $257 56.455747768573197 $355 60.055528151837557 $161 $357 forward 7 unknown #
coedge $-1 $162 $347 $353 $358 forward $255 $-1 #
loop $-1 $-1 $347 $243 #
vertex $-1 $252 $359 #
vertex $-1 $163 $360 #
straight-curve $-1 -66.182417334513275 61.459531838744383 6.691205242369719 0 -1 0 I I #
coedge $-1 $259 $259 $-1 $361 reversed $166 $-1 #
edge $-1 $362 0 $362 6.2831853071796004 $167 $363 forward 7 unknown #
vertex $-1 $170 $364 #
ellipse-curve $-1 -61.592608687422469 29.1007521200406 5.1483982111462314 0 0.85716730853699208 0.51503806187062418 0.5 0 0 1 I I #
coedge $-1 $263 $263 $-1 $365 reversed $173 $-1 #
edge $-1 $366 0 $366 6.2831853071796004 $174 $367 forward 7 unknown #
vertex $-1 $177 $368 #
ellipse-curve $-1 -54.707895716786254 29.1007521200406 5.1483982111462314 0 0.85716730853699208 0.51503806187062418 0.5 0 0 1 I I #
face $-1 $-1 $369 $37 $-1 $370 reversed single #
loop $-1 $-1 $184 $178 #
plane-surface $-1 0 0 6.6912052423697208 0 0 1 1 0 0 forward_v I I I I #
coedge $-1 $371 $372 $373 $374 reversed $179 $-1 #
coedge $-1 $375 $181 $183 $277 forward $113 $-1 #
coedge $-1 $181 $375 $371 $376 forward $113 $-1 #
coedge $-1 $373 $184 $181 $274 forward $268 $-1 #
edge $-1 $280 21.042960968643257 $377 37.107291233461098 $273 $378 forward 7 unknown #
coedge $-1 $379 $380 $182 $276 forward $369 $-1 #
edge $-1 $381 -61.135957433315617 $279 -58.050343370868646 $275 $382 forward 7 unknown #
edge $-1 $280 56.455747768573197 $381 60.055528151837557 $183 $383 forward 7 unknown #
coedge $-1 $184 $373 $379 $384 forward $268 $-1 #
vertex $-1 $185 $385 #
vertex $-1 $185 $386 #
straight-curve $-1 50.118087069695434 61.459531838744383 6.691205242369719 0 -1 0 I I #
coedge $-1 $282 $282 $-1 $387 reversed $188 $-1 #
edge $-1 $388 0 $388 6.2831853071796004 $189 $389 forward 7 unknown #
vertex $-1 $192 $390 #
ellipse-curve $-1 54.70789571678624 29.1007521200406 5.1483982111462314 0 0.85716730853699208 0.51503806187062418 0.5 0 0 1 I I #
coedge $-1 $286 $286 $-1 $391 reversed $195 $-1 #
edge $-1 $392 0 $392 6.2831853071796004 $196 $393 forward 7 unknown #
vertex $-1 $199 $394 #
ellipse-curve $-1 61.592608687422455 29.1007521200406 5.1483982111462314 0 0.85716730853699208 0.51503806187062418 0.5 0 0 1 I I #
face $-1 $-1 $215 $30 $-1 $395 reversed single #
loop $-1 $-1 $306 $200 #
plane-surface $-1 0 30.027764075918789 0 0 -1 0 0 0 -1 forward_v I I I I #
coedge $-1 $396 $304 $307 $397 forward $201 $-1 #
coedge $-1 $310 $203 $204 $298 reversed $127 $-1 #
coedge $-1 $304 $396 $203 $296 reversed $201 $-1 #
edge $-1 $311 -6.6912052423697208 $398 6.6912052423697208 $295 $399 forward 7 unknown #
coedge $-1 $205 $204 $396 $400 forward $81 $-1 #
edge $-1 $302 -72.227546006653029 $398 72.227546006653029 $294 $401 forward 7 unknown #
coedge $-1 $307 $306 $205 $300 reversed $291 $-1 #
edge $-1 $402 -72.227546006653029 $301 72.227546006653029 $299 $403 forward 7 unknown #
vertex $-1 $207 $404 #
vertex $-1 $313 $405 #
straight-curve $-1 72.227546006653029 0 -6.6912052423697208 0 -1 0 I I #
coedge $-1 $293 $295 $208 $305 reversed $201 $-1 #
edge $-1 $308 -30.027764075918789 $311 30.027764075918789 $304 $406 forward 7 unknown #
coedge $-1 $299 $209 $214 $314 forward $291 $-1 #
coedge $-1 $209 $299 $293 $397 reversed $291 $-1 #
vertex $-1 $210 $407 #
straight-curve $-1 0 30.027764075918789 6.6912052423697208 -1 0 0 I I #
coedge $-1 $211 $294 $213 $313 reversed $127 $-1 #
vertex $-1 $305 $408 #
straight-curve $-1 0 -30.027764075918789 6.6912052423697208 1 0 0 I I #
edge $-1 $216 -6.6912052423697208 $302 6.6912052423697208 $213 $409 forward 7 unknown #
edge $-1 $217 -6.6912052423697208 $301 6.6912052423697208 $214 $410 forward 7 unknown #
point $-1 72.227546006653029 -30.027764075918789 6.6912052423697208 #
point $-1 72.227546006653029 30.027764075918789 6.6912052423697208 #
plane-surface $-1 0 0 6.6912052423697208 0 0 1 1 0 0 forward_v I I I I #
coedge $-1 $328 $327 $320 $411 forward $220 $-1 #
coedge $-1 $320 $222 $224 $324 reversed $135 $-1 #
coedge $-1 $222 $319 $318 $411 reversed $135 $-1 #
coedge $-1 $230 $225 $222 $322 forward $231 $-1 #
edge $-1 $325 -50.346613897977008 $412 -46.238551415409567 $321 $413 forward 7 unknown #
coedge $-1 $224 $223 $328 $414 reversed $85 $-1 #
edge $-1 $415 4.0224188011164724e-014 $325 7.7522423851229014 $319 $416 forward 7 unknown #
vertex $-1 $226 $417 #
straight-curve $-1 -19.031339743013508 -25.919701593351348 6.6912052423697208 -1 0 0 I I #
coedge $-1 $318 $227 $230 $332 reversed $220 $-1 #
coedge $-1 $227 $318 $323 $414 forward $220 $-1 #
vertex $-1 $228 $418 #
straight-curve $-1 -17.893324076148911 -30.027764075918789 38.333232513866889 0 0 1 I I #
straight-curve $-1 -17.893324076148911 -30.02776407591881 0.1169307852894832 0 -0.52991925155115449 -0.84804810408105047 I I #
edge $-1 $412 -58.232034895905116 $232 -17.893324076148911 $327 $419 forward 7 unknown #
point $-1 -17.893324076148911 -30.027764075918789 6.6912052423697208 #
point $-1 -17.893324076148911 -25.919701593351345 6.6912052423697208 #
edge $-1 $420 1 $420 0 $235 $-1 forward 7 unknown #
vertex $-1 $236 $421 #
ellipse-curve $-1 -46.70668894740335 -25.482049642023608 1.8470916039099814 0 -0.84804810408105047 0.52991925155115449 1 0 0 1 I I #
point $-1 -45.70668894740335 -27.973732834635047 3.4040680138295909 #
edge $-1 $422 1 $422 0 $239 $-1 forward 7 unknown #
vertex $-1 $240 $423 #
ellipse-curve $-1 -29.41867002465068 -25.482049642023608 1.8470916039099814 0 -0.84804810408105047 0.52991925155115449 1 0 0 1 I I #
point $-1 -28.41867002465068 -27.973732834635047 3.4040680138295909 #
plane-surface $-1 0 0 6.6912052423697208 0 0 1 1 0 0 forward_v I I I I #
coedge $-1 $354 $353 $346 $424 forward $244 $-1 #
coedge $-1 $346 $246 $248 $350 reversed $157 $-1 #
coedge $-1 $246 $345 $344 $424 reversed $157 $-1 #
coedge $-1 $254 $249 $246 $348 forward $255 $-1 #
edge $-1 $351 -33.285791674581958 $425 -31.431767762825594 $347 $426 forward 7 unknown #
coedge $-1 $248 $247 $354 $427 reversed $99 $-1 #
edge $-1 $428 -60.055528151837557 $351 -56.455747768573197 $345 $429 forward 7 unknown #
vertex $-1 $250 $430 #
straight-curve $-1 -29.075126101052181 28.173740164162417 6.6912052423697226 1 0 0 I I #
coedge $-1 $344 $251 $254 $358 reversed $244 $-1 #
coedge $-1 $251 $344 $349 $427 forward $244 $-1 #
vertex $-1 $252 $431 #
straight-curve $-1 -66.182417334513275 30.027764075918789 64.741548613238365 0 0 1 I I #
straight-curve $-1 -66.182417334513275 -0.90311874802033287 55.083226608600896 0 0.51503806187062418 -0.85716730853699208 I I #
edge $-1 $425 50.118087069695449 $256 66.182417334513275 $353 $432 forward 7 unknown #
point $-1 -66.182417334513275 30.027764075918789 6.6912052423697208 #
point $-1 -66.182417334513275 28.173740164162421 6.691205242369719 #
edge $-1 $433 1 $433 0 $259 $-1 forward 7 unknown #
vertex $-1 $260 $434 #
ellipse-curve $-1 -61.592608687422469 27.808945240247695 4.3722023564358397 0 0.85716730853699208 0.51503806187062418 0.5 0 0 1 I I #
point $-1 -61.092608687422469 29.100752120040589 5.1483982111462243 #
edge $-1 $435 1 $435 0 $263 $-1 forward 7 unknown #
vertex $-1 $264 $436 #
ellipse-curve $-1 -54.707895716786254 27.808945240247695 4.3722023564358397 0 0.85716730853699208 0.51503806187062418 0.5 0 0 1 I I #
point $-1 -54.207895716786254 29.100752120040589 5.1483982111462243 #
loop $-1 $-1 $275 $267 #
plane-surface $-1 0 30.027764075918789 0 0 -1 0 0 0 -1 forward_v I I I I #
coedge $-1 $372 $270 $272 $376 reversed $179 $-1 #
coedge $-1 $270 $371 $437 $438 reversed $179 $-1 #
coedge $-1 $278 $273 $270 $374 forward $268 $-1 #
edge $-1 $377 -33.285791674581958 $439 -31.431767762825594 $373 $440 forward 7 unknown #
coedge $-1 $272 $271 $380 $441 reversed $113 $-1 #
edge $-1 $442 -60.055528151837557 $377 -56.455747768573197 $371 $443 forward 7 unknown #
vertex $-1 $274 $444 #
straight-curve $-1 29.075126101052177 28.173740164162417 6.6912052423697226 1 0 0 I I #
coedge $-1 $437 $275 $278 $384 reversed $369 $-1 #
coedge $-1 $275 $437 $375 $441 forward $369 $-1 #
vertex $-1 $276 $445 #
straight-curve $-1 50.118087069695434 30.027764075918789 64.741548613238365 0 0 1 I I #
straight-curve $-1 50.118087069695434 -0.90311874802033287 55.083226608600896 0 0.51503806187062418 -0.85716730853699208 I I #
edge $-1 $439 -66.182417334513275 $279 -50.118087069695434 $379 $446 forward 7 unknown #
point $-1 50.118087069695434 30.027764075918789 6.6912052423697208 #
point $-1 50.118087069695434 28.173740164162421 6.691205242369719 #
edge $-1 $447 1 $447 0 $282 $-1 forward 7 unknown #
vertex $-1 $283 $448 #
ellipse-curve $-1 54.70789571678624 27.808945240247695 4.3722023564358397 0 0.85716730853699208 0.51503806187062418 0.5 0 0 1 I I #
point $-1 55.20789571678624 29.100752120040589 5.1483982111462243 #
edge $-1 $449 1 $449 0 $286 $-1 forward 7 unknown #
vertex $-1 $287 $450 #
ellipse-curve $-1 61.592608687422455 27.808945240247695 4.3722023564358397 0 0.85716730853699208 0.51503806187062418 0.5 0 0 1 I I #
point $-1 62.092608687422455 29.100752120040589 5.1483982111462243 #
plane-surface $-1 72.227546006653029 0 0 -1 0 0 0 0 1 forward_v I I I I #
coedge $-1 $295 $293 $297 $400 reversed $201 $-1 #
edge $-1 $308 -6.6912052423697208 $402 6.6912052423697208 $307 $451 forward 7 unknown #
vertex $-1 $400 $452 #
straight-curve $-1 -72.227546006653029 -30.027764075918789 0 0 0 -1 I I #
edge $-1 $398 -30.027764075918789 $402 30.027764075918789 $396 $453 forward 7 unknown #
straight-curve $-1 0 -30.027764075918789 -6.6912052423697208 -1 0 0 I I #
vertex $-1 $300 $454 #
straight-curve $-1 0 30.027764075918789 -6.6912052423697208 1 0 0 I I #
point $-1 72.227546006653029 30.027764075918789 -6.6912052423697208 #
point $-1 72.227546006653029 -30.027764075918789 -6.6912052423697208 #
straight-curve $-1 -72.227546006653029 0 6.6912052423697208 0 -1 0 I I #
point $-1 -72.227546006653029 30.027764075918789 6.6912052423697208 #
point $-1 -72.227546006653029 -30.027764075918789 6.6912052423697208 #
straight-curve $-1 72.227546006653029 -30.027764075918789 0 0 0 -1 I I #
straight-curve $-1 72.227546006653029 30.027764075918789 0 0 0 -1 I I #
edge $-1 $412 31.64202727149717 $415 38.216301728577371 $318 $455 forward 7 unknown #
vertex $-1 $332 $456 #
straight-curve $-1 -58.232034895905116 -76.266315491328356 6.691205242369719 0 -1 0 I I #
edge $-1 $415 -39.200695152891612 $329 1.1380156668645967 $328 $457 forward 7 unknown #
vertex $-1 $414 $458 #
straight-curve $-1 -58.232034895905116 -30.02776407591881 0.1169307852894832 0 0.52991925155115449 0.84804810408105047 I I #
point $-1 -58.232034895905116 -25.919701593351345 6.6912052423697208 #
point $-1 -17.893324076148911 -30.027764075918789 0.11693078528951731 #
straight-curve $-1 0 -30.027764075918789 6.6912052423697208 1 0 0 I I #
vertex $-1 $335 $459 #
point $-1 -45.70668894740335 -25.482049642023608 1.8470916039099814 #
vertex $-1 $339 $460 #
point $-1 -28.41867002465068 -25.482049642023608 1.8470916039099814 #
edge $-1 $425 58.050343370868646 $428 61.135957433315617 $344 $461 forward 7 unknown #
vertex $-1 $358 $462 #
straight-curve $-1 -50.118087069695449 61.459531838744383 6.691205242369719 0 1 0 I I #
edge $-1 $428 21.042960968643268 $355 37.107291233461098 $354 $463 forward 7 unknown #
vertex $-1 $427 $464 #
straight-curve $-1 -50.118087069695449 -0.90311874802033287 55.083226608600896 0 -0.51503806187062418 0.85716730853699208 I I #
point $-1 -50.118087069695449 28.173740164162421 6.691205242369719 #
point $-1 -66.182417334513275 30.027764075918789 3.6055911799227474 #
straight-curve $-1 0 30.027764075918789 6.6912052423697208 -1 0 0 I I #
vertex $-1 $361 $465 #
point $-1 -61.092608687422469 27.808945240247695 4.3722023564358397 #
vertex $-1 $365 $466 #
point $-1 -54.207895716786254 27.808945240247695 4.3722023564358397 #
coedge $-1 $380 $379 $372 $438 forward $369 $-1 #
edge $-1 $439 58.050343370868646 $442 61.135957433315617 $437 $467 forward 7 unknown #
vertex $-1 $384 $468 #
straight-curve $-1 66.182417334513275 61.459531838744383 6.691205242369719 0 1 0 I I #
edge $-1 $442 -37.107291233461098 $381 -21.042960968643257 $380 $469 forward 7 unknown #
vertex $-1 $441 $470 #
straight-curve $-1 66.182417334513275 -0.90311874802033287 55.083226608600896 0 -0.51503806187062418 0.85716730853699208 I I #
point $-1 66.182417334513275 28.173740164162421 6.691205242369719 #
point $-1 50.118087069695434 30.027764075918789 3.6055911799227474 #
straight-curve $-1 0 30.027764075918789 6.6912052423697208 -1 0 0 I I #
vertex $-1 $387 $471 #
point $-1 55.20789571678624 27.808945240247695 4.3722023564358397 #
vertex $-1 $391 $472 #
point $-1 62.092608687422455 27.808945240247695 4.3722023564358397 #
straight-curve $-1 -72.227546006653029 30.027764075918789 0 0 0 -1 I I #
point $-1 -72.227546006653029 -30.027764075918789 -6.6912052423697208 #
straight-curve $-1 -72.227546006653029 0 -6.6912052423697208 0 1 0 I I #
point $-1 -72.227546006653029 30.027764075918789 -6.6912052423697208 #
straight-curve $-1 -58.232034895905116 -30.027764075918789 38.333232513866889 0 0 -1 I I #
point $-1 -58.232034895905116 -30.027764075918789 6.6912052423697208 #
straight-curve $-1 -19.031339743013508 -30.027764075918789 0.11693078528951543 1 0 0 I I #
point $-1 -58.232034895905116 -30.027764075918789 0.11693078528951731 #
point $-1 -46.70668894740335 -24.634001537942556 1.3171723523588268 #
point $-1 -29.41867002465068 -24.634001537942556 1.3171723523588268 #
straight-curve $-1 -50.118087069695449 30.027764075918789 64.741548613238365 0 0 -1 I I #
point $-1 -50.118087069695449 30.027764075918789 6.6912052423697208 #
straight-curve $-1 -29.075126101052181 30.027764075918789 3.6055911799227367 -1 0 0 I I #
point $-1 -50.118087069695449 30.027764075918789 3.6055911799227474 #
point $-1 -61.592608687422469 27.380361585979202 4.1146833255005282 #
point $-1 -54.707895716786254 27.380361585979202 4.1146833255005282 #
straight-curve $-1 66.182417334513275 30.027764075918789 64.741548613238365 0 0 -1 I I #
point $-1 66.182417334513275 30.027764075918789 6.6912052423697208 #
straight-curve $-1 29.075126101052177 30.027764075918789 3.6055911799227367 -1 0 0 I I #
point $-1 66.182417334513275 30.027764075918789 3.6055911799227474 #
point $-1 54.70789571678624 27.380361585979202 4.1146833255005282 #
point $-1 61.592608687422455 27.380361585979202 4.1146833255005282 #
End-of-ACIS-data 