500 0 6 0           
7 Unknown 11 ACIS 5.0 NT 24 Thu Mar 25 21:11:54 1999 
-1 9.9999999999999995e-007 1e-010 
body $-1 $6 $-1 $7 #
body $-1 $8 $-1 $9 #
body $-1 $10 $-1 $11 #
body $-1 $12 $-1 $13 #
body $-1 $14 $-1 $15 #
body $-1 $16 $-1 $17 #
lump $-1 $-1 $18 $0 #
transform $-1 1 0 0 0 1 0 0 0 1 63.689687795648062 34.533972687926244 11.971959878879037 1 rotate no_reflect no_shear #
lump $-1 $-1 $19 $1 #
transform $-1 1 0 0 0 1 0 0 0 1 63.689687795648062 34.533972687926244 11.971959878879037 1 rotate no_reflect no_shear #
lump $-1 $-1 $20 $2 #
transform $-1 1 0 0 0 1 0 0 0 1 63.689687795648062 34.533972687926244 11.971959878879037 1 rotate no_reflect no_shear #
lump $-1 $-1 $21 $3 #
transform $-1 1 0 0 0 1 0 0 0 1 63.689687795648062 34.533972687926244 11.971959878879037 1 rotate no_reflect no_shear #
lump $-1 $-1 $22 $4 #
transform $-1 1 0 0 0 1 0 0 0 1 63.689687795648062 34.533972687926244 11.971959878879037 1 rotate no_reflect no_shear #
lump $-1 $-1 $23 $5 #
transform $-1 1 0 0 0 1 0 0 0 1 63.689687795648062 34.533972687926244 11.971959878879037 1 rotate no_reflect no_shear #
shell $-1 $-1 $-1 $24 $-1 $6 #
shell $-1 $-1 $-1 $25 $-1 $8 #
shell $-1 $-1 $-1 $26 $-1 $10 #
shell $-1 $-1 $-1 $27 $-1 $12 #
shell $-1 $-1 $-1 $28 $-1 $14 #
shell $-1 $-1 $-1 $29 $-1 $16 #
face $-1 $30 $31 $18 $-1 $32 forward single #
face $-1 $33 $34 $19 $-1 $35 reversed single #
face $-1 $36 $37 $20 $-1 $38 reversed single #
face $-1 $39 $40 $21 $-1 $41 forward single #
face $-1 $42 $43 $22 $-1 $44 forward single #
face $-1 $45 $46 $23 $-1 $47 forward single #
face $-1 $48 $49 $18 $-1 $50 reversed single #
loop $-1 $-1 $51 $24 #
plane-surface $-1 0 0 11.971959878879037 0 0 1 1 0 0 forward_v I I I I #
face $-1 $52 $53 $19 $-1 $54 reversed single #
loop $-1 $-1 $55 $25 #
plane-surface $-1 -59.566765786943307 0 7.0965840973980949 0 0 1 1 0 0 forward_v I I I I #
face $-1 $56 $57 $20 $-1 $58 reversed single #
loop $-1 $-1 $59 $26 #
plane-surface $-1 29.852588218515244 -123.01912320576631 95.246916264299813 -1 0 0 0 -0.69465837861970381 0.71933979245794832 forward_v I I I I #
face $-1 $60 $61 $21 $-1 $62 forward single #
loop $-1 $63 $64 $27 #
cone-surface $-1 12.360424870459049 -28.645080479864315 6.1759302328877439 0 0.69465837861970381 -0.71933979245794832 2 0 0 1 I I 0 1 2 forward I I I I #
face $-1 $65 $66 $22 $-1 $67 forward single #
loop $-1 $68 $69 $28 #
cone-surface $-1 18.919986125980124 -28.645080479864315 6.1759302328877439 0 0.69465837861970381 -0.71933979245794832 2 0 0 1 I I 0 1 2 forward I I I I #
face $-1 $70 $71 $23 $-1 $72 forward single #
loop $-1 $73 $74 $29 #
cone-surface $-1 25.479547381501199 -28.645080479864315 6.1759302328877439 0 0.69465837861970381 -0.71933979245794832 2 0 0 1 I I 0 1 2 forward I I I I #
face $-1 $75 $76 $18 $-1 $77 reversed single #
loop $-1 $-1 $78 $30 #
plane-surface $-1 0 0 -11.971959878879037 0 0 1 1 0 0 forward_v I I I I #
coedge $-1 $79 $80 $81 $82 forward $31 $-1 #
face $-1 $83 $84 $19 $-1 $85 reversed single #
loop $-1 $-1 $86 $33 #
plane-surface $-1 -55.443843778238552 0 9.5342719881385669 -1 0 0 0 0 1 forward_v I I I I #
coedge $-1 $87 $88 $89 $90 forward $34 $-1 #
face $-1 $91 $92 $20 $-1 $93 reversed single #
loop $-1 $-1 $94 $36 #
plane-surface $-1 18.919986125980124 -34.533972687926251 3.6178626630338044 0 -0.69465837861970381 0.71933979245794832 1 0 0 forward_v I I I I #
coedge $-1 $95 $96 $97 $98 reversed $37 $-1 #
face $-1 $-1 $99 $21 $-1 $100 forward single #
loop $-1 $101 $102 $39 #
cone-surface $-1 12.360424870459049 -26.386990250661182 3.8376094023611191 0 0.69465837861970381 -0.71933979245794832 1 0 0 1 I I -0.70710678118654746 0.70710678118654746 1 forward I I I I #
loop $-1 $-1 $103 $27 #
coedge $-1 $64 $64 $104 $105 reversed $40 $-1 #
face $-1 $-1 $106 $22 $-1 $107 forward single #
loop $-1 $108 $109 $42 #
cone-surface $-1 18.919986125980124 -26.386990250661182 3.8376094023611191 0 0.69465837861970381 -0.71933979245794832 1 0 0 1 I I -0.70710678118654746 0.70710678118654746 1 forward I I I I #
loop $-1 $-1 $110 $28 #
coedge $-1 $69 $69 $111 $112 reversed $43 $-1 #
face $-1 $-1 $113 $23 $-1 $114 forward single #
loop $-1 $115 $116 $45 #
cone-surface $-1 25.479547381501199 -26.386990250661182 3.8376094023611191 0 0.69465837861970381 -0.71933979245794832 1 0 0 1 I I -0.70710678118654746 0.70710678118654746 1 forward I I I I #
loop $-1 $-1 $117 $29 #
coedge $-1 $74 $74 $118 $119 reversed $46 $-1 #
face $-1 $120 $121 $18 $-1 $122 reversed single #
loop $-1 $-1 $123 $48 #
plane-surface $-1 0 -34.533972687926244 0 0 1 0 0 0 1 forward_v I I I I #
coedge $-1 $124 $125 $126 $127 forward $49 $-1 #
coedge $-1 $128 $51 $129 $130 forward $31 $-1 #
coedge $-1 $51 $128 $131 $132 forward $31 $-1 #
coedge $-1 $133 $134 $51 $82 reversed $135 $-1 #
edge $-1 $136 -34.533972687926244 $137 34.533972687926244 $81 $138 forward 7 unknown #
face $-1 $139 $140 $19 $-1 $141 reversed single #
loop $-1 $-1 $142 $52 #
plane-surface $-1 0 34.533972687926244 0 0 -1 0 0 0 -1 forward_v I I I I #
coedge $-1 $89 $143 $144 $145 reversed $53 $-1 #
coedge $-1 $146 $55 $147 $148 reversed $34 $-1 #
coedge $-1 $55 $146 $149 $150 reversed $34 $-1 #
coedge $-1 $151 $86 $55 $90 reversed $53 $-1 #
edge $-1 $152 -34.533972687926244 $153 34.533972687926244 $89 $154 forward 7 unknown #
face $-1 $155 $156 $20 $-1 $157 reversed single #
loop $-1 $-1 $158 $56 #
plane-surface $-1 7.9873840334450037 -123.01912320576631 95.246916264299813 1 0 0 0 0.69465837861970381 -0.71933979245794832 forward_v I I I I #
coedge $-1 $159 $160 $161 $162 reversed $57 $-1 #
coedge $-1 $96 $59 $163 $164 reversed $37 $-1 #
coedge $-1 $59 $95 $159 $165 reversed $37 $-1 #
coedge $-1 $161 $166 $59 $98 forward $167 $-1 #
edge $-1 $168 26.975588914956909 $169 35.626509629913897 $97 $170 forward 7 unknown #
loop $-1 $-1 $104 $60 #
plane-surface $-1 18.919986125980124 -34.533972687926251 3.6178626630338044 0 -0.69465837861970381 0.71933979245794832 1 0 0 forward_v I I I I #
loop $-1 $-1 $171 $39 #
coedge $-1 $102 $102 $103 $172 reversed $61 $-1 #
coedge $-1 $103 $103 $102 $172 forward $63 $-1 #
coedge $-1 $104 $104 $64 $105 forward $99 $-1 #
edge $-1 $173 -2.6464729219931626e-016 $173 6.2831853071796004 $104 $174 forward 7 unknown #
loop $-1 $-1 $111 $65 #
plane-surface $-1 18.919986125980124 -34.533972687926251 3.6178626630338044 0 -0.69465837861970381 0.71933979245794832 1 0 0 forward_v I I I I #
loop $-1 $-1 $175 $42 #
coedge $-1 $109 $109 $110 $176 reversed $66 $-1 #
coedge $-1 $110 $110 $109 $176 forward $68 $-1 #
coedge $-1 $111 $111 $69 $112 forward $106 $-1 #
edge $-1 $177 -2.6464729219931626e-016 $177 6.2831853071796004 $111 $178 forward 7 unknown #
loop $-1 $-1 $118 $70 #
plane-surface $-1 18.919986125980124 -34.533972687926251 3.6178626630338044 0 -0.69465837861970381 0.71933979245794832 1 0 0 forward_v I I I I #
loop $-1 $-1 $179 $45 #
coedge $-1 $116 $116 $117 $180 reversed $71 $-1 #
coedge $-1 $117 $117 $116 $180 forward $73 $-1 #
coedge $-1 $118 $118 $74 $119 forward $113 $-1 #
edge $-1 $181 -2.6464729219931626e-016 $181 6.2831853071796004 $118 $182 forward 7 unknown #
face $-1 $183 $184 $18 $-1 $185 reversed single #
loop $-1 $-1 $186 $75 #
plane-surface $-1 -63.689687795648062 0 0 1 0 0 0 0 -1 forward_v I I I I #
coedge $-1 $187 $131 $188 $189 forward $76 $-1 #
coedge $-1 $190 $78 $187 $191 forward $49 $-1 #
coedge $-1 $78 $190 $192 $193 forward $49 $-1 #
coedge $-1 $134 $133 $78 $127 reversed $135 $-1 #
edge $-1 $194 -34.533972687926244 $195 34.533972687926244 $126 $196 forward 7 unknown #
coedge $-1 $80 $79 $197 $198 forward $31 $-1 #
coedge $-1 $199 $200 $79 $130 reversed $184 $-1 #
edge $-1 $137 -63.689687795648062 $201 63.689687795648062 $129 $202 forward 7 unknown #
coedge $-1 $123 $203 $80 $132 reversed $76 $-1 #
edge $-1 $204 -63.689687795648062 $136 63.689687795648062 $131 $205 forward 7 unknown #
coedge $-1 $126 $81 $203 $206 forward $135 $-1 #
coedge $-1 $81 $126 $199 $207 reversed $135 $-1 #
loop $-1 $-1 $133 $183 #
vertex $-1 $82 $208 #
vertex $-1 $82 $209 #
straight-curve $-1 63.689687795648062 0 11.971959878879037 0 1 0 I I #
face $-1 $210 $211 $19 $-1 $212 forward single #
loop $-1 $-1 $213 $83 #
plane-surface $-1 -63.689687795648062 0 0 1 0 0 0 0 -1 forward_v I I I I #
coedge $-1 $149 $214 $151 $215 forward $84 $-1 #
coedge $-1 $86 $151 $216 $217 reversed $53 $-1 #
coedge $-1 $218 $147 $86 $145 forward $219 $-1 #
edge $-1 $153 2.3294481033288115 $220 7.2048238848097554 $144 $221 forward 7 unknown #
coedge $-1 $88 $87 $213 $222 reversed $34 $-1 #
coedge $-1 $144 $223 $87 $148 forward $219 $-1 #
edge $-1 $224 -33.906304902176409 $153 -25.660460884766898 $147 $225 forward 7 unknown #
coedge $-1 $226 $142 $88 $150 forward $84 $-1 #
edge $-1 $152 25.660460884766898 $227 33.906304902176409 $149 $228 forward 7 unknown #
coedge $-1 $143 $89 $142 $215 reversed $53 $-1 #
vertex $-1 $150 $229 #
vertex $-1 $148 $230 #
straight-curve $-1 -55.443843778238552 0 7.0965840973980949 0 -1 0 I I #
face $-1 $-1 $167 $20 $-1 $231 forward single #
loop $-1 $-1 $232 $91 #
plane-surface $-1 0 -34.533972687926244 0 0 1 0 0 0 1 forward_v I I I I #
coedge $-1 $233 $234 $235 $236 reversed $92 $-1 #
coedge $-1 $237 $94 $96 $165 forward $57 $-1 #
coedge $-1 $94 $237 $233 $238 forward $57 $-1 #
coedge $-1 $235 $97 $94 $162 forward $167 $-1 #
edge $-1 $169 -20.392595155525182 $239 1.4726090295450582 $161 $240 forward 7 unknown #
coedge $-1 $241 $242 $95 $164 forward $156 $-1 #
edge $-1 $243 -44.005595469116095 $168 -35.651498253270873 $163 $244 forward 7 unknown #
edge $-1 $169 -12.02619513845776 $243 -9.7385709978959816e-015 $96 $245 forward 7 unknown #
coedge $-1 $97 $235 $241 $246 forward $167 $-1 #
loop $-1 $-1 $235 $155 #
vertex $-1 $164 $247 #
vertex $-1 $98 $248 #
straight-curve $-1 29.852588218515244 -61.509561602883153 11.971959878879034 0 1 0 I I #
coedge $-1 $171 $171 $-1 $249 reversed $101 $-1 #
edge $-1 $250 0 $250 6.2831853071796004 $102 $251 forward 7 unknown #
vertex $-1 $105 $252 #
ellipse-curve $-1 12.360424870459049 -30.20851233044775 7.7949112709564243 0 -0.69465837861970381 0.71933979245794832 2 0 0 1 I I #
coedge $-1 $175 $175 $-1 $253 reversed $108 $-1 #
edge $-1 $254 0 $254 6.2831853071796004 $109 $255 forward 7 unknown #
vertex $-1 $112 $256 #
ellipse-curve $-1 18.919986125980124 -30.20851233044775 7.7949112709564243 0 -0.69465837861970381 0.71933979245794832 2 0 0 1 I I #
coedge $-1 $179 $179 $-1 $257 reversed $115 $-1 #
edge $-1 $258 0 $258 6.2831853071796004 $116 $259 forward 7 unknown #
vertex $-1 $119 $260 #
ellipse-curve $-1 25.479547381501199 -30.20851233044775 7.7949112709564243 0 -0.69465837861970381 0.71933979245794832 2 0 0 1 I I #
face $-1 $-1 $135 $18 $-1 $261 reversed single #
loop $-1 $-1 $199 $120 #
plane-surface $-1 0 34.533972687926244 0 0 -1 0 0 0 -1 forward_v I I I I #
coedge $-1 $262 $197 $200 $263 forward $121 $-1 #
coedge $-1 $203 $123 $124 $191 reversed $76 $-1 #
coedge $-1 $197 $262 $123 $189 reversed $121 $-1 #
edge $-1 $204 -11.971959878879037 $264 11.971959878879037 $188 $265 forward 7 unknown #
coedge $-1 $125 $124 $262 $266 forward $49 $-1 #
edge $-1 $195 -63.689687795648062 $264 63.689687795648062 $187 $267 forward 7 unknown #
coedge $-1 $200 $199 $125 $193 reversed $184 $-1 #
edge $-1 $268 -63.689687795648062 $194 63.689687795648062 $192 $269 forward 7 unknown #
vertex $-1 $127 $270 #
vertex $-1 $206 $271 #
straight-curve $-1 63.689687795648062 0 -11.971959878879037 0 -1 0 I I #
coedge $-1 $186 $188 $128 $198 reversed $121 $-1 #
edge $-1 $201 -34.533972687926244 $204 34.533972687926244 $197 $272 forward 7 unknown #
coedge $-1 $192 $129 $134 $207 forward $184 $-1 #
coedge $-1 $129 $192 $186 $263 reversed $184 $-1 #
vertex $-1 $130 $273 #
straight-curve $-1 0 34.533972687926244 11.971959878879037 -1 0 0 I I #
coedge $-1 $131 $187 $133 $206 reversed $76 $-1 #
vertex $-1 $198 $274 #
straight-curve $-1 0 -34.533972687926244 11.971959878879037 1 0 0 I I #
edge $-1 $136 -11.971959878879037 $195 11.971959878879037 $133 $275 forward 7 unknown #
edge $-1 $137 -11.971959878879037 $194 11.971959878879037 $134 $276 forward 7 unknown #
point $-1 63.689687795648062 -34.533972687926244 11.971959878879037 #
point $-1 63.689687795648062 34.533972687926244 11.971959878879037 #
face $-1 $-1 $219 $19 $-1 $277 reversed single #
loop $-1 $-1 $216 $139 #
plane-surface $-1 0 0 11.971959878879037 0 0 1 1 0 0 forward_v I I I I #
coedge $-1 $278 $279 $146 $222 forward $140 $-1 #
coedge $-1 $142 $226 $280 $281 reversed $84 $-1 #
edge $-1 $282 -7.2048238848097554 $152 -2.3294481033288115 $142 $283 forward 7 unknown #
coedge $-1 $280 $284 $143 $217 forward $211 $-1 #
edge $-1 $220 -34.533972687926244 $282 34.533972687926244 $216 $285 forward 7 unknown #
coedge $-1 $223 $144 $284 $286 reversed $219 $-1 #
loop $-1 $-1 $144 $210 #
vertex $-1 $145 $287 #
straight-curve $-1 -55.443843778238552 -34.533972687926244 4.7671359940692835 0 0 1 I I #
edge $-1 $227 -34.533972687926244 $224 34.533972687926244 $213 $288 forward 7 unknown #
coedge $-1 $147 $218 $278 $289 forward $219 $-1 #
vertex $-1 $222 $290 #
straight-curve $-1 -29.783382893471654 -34.533972687926244 7.0965840973980949 1 0 0 I I #
coedge $-1 $214 $149 $279 $291 reversed $84 $-1 #
vertex $-1 $222 $292 #
straight-curve $-1 -29.783382893471654 34.533972687926244 7.0965840973980949 -1 0 0 I I #
point $-1 -55.443843778238552 34.533972687926244 7.0965840973980949 #
point $-1 -55.443843778238552 -34.533972687926244 7.0965840973980949 #
plane-surface $-1 0 0 11.971959878879037 0 0 1 1 0 0 forward_v I I I I #
coedge $-1 $242 $241 $234 $293 forward $156 $-1 #
coedge $-1 $234 $158 $160 $238 reversed $92 $-1 #
coedge $-1 $158 $233 $232 $293 reversed $92 $-1 #
coedge $-1 $166 $161 $158 $236 forward $167 $-1 #
edge $-1 $239 -35.626509629913897 $294 -26.975588914956909 $235 $295 forward 7 unknown #
coedge $-1 $160 $159 $242 $296 reversed $57 $-1 #
edge $-1 $297 9.7385709978959816e-015 $239 12.02619513845776 $233 $298 forward 7 unknown #
vertex $-1 $162 $299 #
straight-curve $-1 9.4599930629900619 -25.883051972969255 11.971959878879037 -1 0 0 I I #
coedge $-1 $232 $163 $166 $246 reversed $156 $-1 #
coedge $-1 $163 $232 $237 $296 forward $156 $-1 #
vertex $-1 $164 $300 #
straight-curve $-1 29.852588218515244 -34.533972687926244 47.623458132149906 0 0 1 I I #
straight-curve $-1 29.852588218515244 -34.533972687926251 3.6178626630338044 0 -0.71933979245794832 -0.69465837861970381 I I #
edge $-1 $294 7.9873840334450037 $168 29.852588218515244 $241 $301 forward 7 unknown #
point $-1 29.852588218515244 -34.533972687926244 11.971959878879037 #
point $-1 29.852588218515244 -25.883051972969259 11.971959878879037 #
edge $-1 $302 1 $302 0 $171 $-1 forward 7 unknown #
vertex $-1 $172 $303 #
ellipse-curve $-1 12.360424870459049 -27.081648629280885 4.556949194819067 0 -0.69465837861970381 0.71933979245794832 2 0 0 1 I I #
point $-1 14.360424870459049 -30.208512330447746 7.7949112709564199 #
edge $-1 $304 1 $304 0 $175 $-1 forward 7 unknown #
vertex $-1 $176 $305 #
ellipse-curve $-1 18.919986125980124 -27.081648629280885 4.556949194819067 0 -0.69465837861970381 0.71933979245794832 2 0 0 1 I I #
point $-1 20.919986125980124 -30.208512330447746 7.7949112709564199 #
edge $-1 $306 1 $306 0 $179 $-1 forward 7 unknown #
vertex $-1 $180 $307 #
ellipse-curve $-1 25.479547381501199 -27.081648629280885 4.556949194819067 0 -0.69465837861970381 0.71933979245794832 2 0 0 1 I I #
point $-1 27.479547381501199 -30.208512330447746 7.7949112709564199 #
plane-surface $-1 63.689687795648062 0 0 -1 0 0 0 0 1 forward_v I I I I #
coedge $-1 $188 $186 $190 $266 reversed $121 $-1 #
edge $-1 $201 -11.971959878879037 $268 11.971959878879037 $200 $308 forward 7 unknown #
vertex $-1 $266 $309 #
straight-curve $-1 -63.689687795648062 -34.533972687926244 0 0 0 -1 I I #
edge $-1 $264 -34.533972687926244 $268 34.533972687926244 $262 $310 forward 7 unknown #
straight-curve $-1 0 -34.533972687926244 -11.971959878879037 -1 0 0 I I #
vertex $-1 $193 $311 #
straight-curve $-1 0 34.533972687926244 -11.971959878879037 1 0 0 I I #
point $-1 63.689687795648062 34.533972687926244 -11.971959878879037 #
point $-1 63.689687795648062 -34.533972687926244 -11.971959878879037 #
straight-curve $-1 -63.689687795648062 0 11.971959878879037 0 -1 0 I I #
point $-1 -63.689687795648062 34.533972687926244 11.971959878879037 #
point $-1 -63.689687795648062 -34.533972687926244 11.971959878879037 #
straight-curve $-1 63.689687795648062 -34.533972687926244 0 0 0 -1 I I #
straight-curve $-1 63.689687795648062 34.533972687926244 0 0 0 -1 I I #
plane-surface $-1 0 -34.533972687926244 0 0 1 0 0 0 1 forward_v I I I I #
coedge $-1 $312 $213 $223 $289 reversed $140 $-1 #
coedge $-1 $213 $312 $226 $291 forward $140 $-1 #
coedge $-1 $313 $216 $214 $281 forward $211 $-1 #
edge $-1 $282 55.443843778238552 $314 63.689687795648062 $214 $315 forward 7 unknown #
vertex $-1 $281 $316 #
straight-curve $-1 -55.443843778238552 34.533972687926244 4.7671359940692835 0 0 -1 I I #
coedge $-1 $216 $313 $218 $286 forward $211 $-1 #
straight-curve $-1 -55.443843778238552 0 11.971959878879037 0 1 0 I I #
edge $-1 $317 -63.689687795648062 $220 -55.443843778238552 $218 $318 forward 7 unknown #
point $-1 -55.443843778238552 -34.533972687926244 11.971959878879039 #
straight-curve $-1 -63.689687795648062 0 7.0965840973980949 0 -1 0 I I #
edge $-1 $317 -11.971959878879037 $224 -7.0965840973980949 $278 $319 forward 7 unknown #
point $-1 -63.689687795648062 -34.533972687926244 7.0965840973980949 #
edge $-1 $314 -11.971959878879037 $227 -7.0965840973980949 $226 $320 forward 7 unknown #
point $-1 -63.689687795648062 34.533972687926244 7.0965840973980949 #
edge $-1 $294 35.651498253270873 $297 44.005595469116095 $232 $321 forward 7 unknown #
vertex $-1 $246 $322 #
straight-curve $-1 7.9873840334450037 -61.509561602883153 11.971959878879034 0 -1 0 I I #
edge $-1 $297 -1.4726090295450582 $243 20.392595155525182 $242 $323 forward 7 unknown #
vertex $-1 $296 $324 #
straight-curve $-1 7.9873840334450037 -34.533972687926251 3.6178626630338044 0 0.71933979245794832 0.69465837861970381 I I #
point $-1 7.9873840334450037 -25.883051972969259 11.971959878879037 #
point $-1 29.852588218515244 -34.533972687926244 3.6178626630338111 #
straight-curve $-1 0 -34.533972687926244 11.971959878879037 1 0 0 I I #
vertex $-1 $249 $325 #
point $-1 14.360424870459049 -27.081648629280885 4.556949194819067 #
vertex $-1 $253 $326 #
point $-1 20.919986125980124 -27.081648629280885 4.556949194819067 #
vertex $-1 $257 $327 #
point $-1 27.479547381501199 -27.081648629280885 4.556949194819067 #
straight-curve $-1 -63.689687795648062 34.533972687926244 0 0 0 -1 I I #
point $-1 -63.689687795648062 -34.533972687926244 -11.971959878879037 #
straight-curve $-1 -63.689687795648062 0 -11.971959878879037 0 1 0 I I #
point $-1 -63.689687795648062 34.533972687926244 -11.971959878879037 #
coedge $-1 $279 $278 $313 $328 reversed $140 $-1 #
coedge $-1 $284 $280 $312 $328 forward $211 $-1 #
vertex $-1 $281 $329 #
straight-curve $-1 0 34.533972687926244 11.971959878879037 -1 0 0 I I #
point $-1 -55.443843778238552 34.533972687926244 11.971959878879039 #
vertex $-1 $328 $330 #
straight-curve $-1 0 -34.533972687926244 11.971959878879037 1 0 0 I I #
straight-curve $-1 -63.689687795648062 -34.533972687926244 0 0 0 -1 I I #
straight-curve $-1 -63.689687795648062 34.533972687926244 0 0 0 -1 I I #
straight-curve $-1 7.9873840334450037 -34.533972687926244 47.623458132149906 0 0 -1 I I #
point $-1 7.9873840334450037 -34.533972687926244 11.971959878879037 #
straight-curve $-1 9.4599930629900619 -34.533972687926244 3.617862663033816 1 0 0 I I #
point $-1 7.9873840334450037 -34.533972687926244 3.6178626630338111 #
point $-1 12.360424870459049 -25.692331872041478 3.1182696099031708 #
point $-1 18.919986125980124 -25.692331872041478 3.1182696099031708 #
point $-1 25.479547381501199 -25.692331872041478 3.1182696099031708 #
edge $-1 $314 -34.533972687926244 $317 34.533972687926244 $312 $331 forward 7 unknown #
point $-1 -63.689687795648062 34.533972687926244 11.971959878879037 #
point $-1 -63.689687795648062 -34.533972687926244 11.971959878879037 #
straight-curve $-1 -63.689687795648062 0 11.971959878879037 0 -1 0 I I #
End-of-ACIS-data 