500 0 5 0           
7 Unknown 11 ACIS 5.0 NT 24 Thu Mar 25 15:18:15 1999 
-1 9.9999999999999995e-007 1e-010 
body $-1 $5 $-1 $6 #
body $-1 $7 $-1 $8 #
body $-1 $9 $-1 $10 #
body $-1 $11 $-1 $12 #
body $-1 $13 $-1 $14 #
lump $-1 $-1 $15 $0 #
transform $-1 1 0 0 0 1 0 0 0 1 54.204535050508134 34.706981660838366 15.376695888141201 1 rotate no_reflect no_shear #
lump $-1 $-1 $16 $1 #
transform $-1 1 0 0 0 1 0 0 0 1 54.204535050508134 34.706981660838366 15.376695888141201 1 rotate no_reflect no_shear #
lump $-1 $-1 $17 $2 #
transform $-1 1 0 0 0 1 0 0 0 1 54.204535050508134 34.706981660838366 15.376695888141201 1 rotate no_reflect no_shear #
lump $-1 $-1 $18 $3 #
transform $-1 1 0 0 0 1 0 0 0 1 54.204535050508134 34.706981660838366 15.376695888141201 1 rotate no_reflect no_shear #
lump $-1 $-1 $19 $4 #
transform $-1 1 0 0 0 1 0 0 0 1 54.204535050508134 34.706981660838366 15.376695888141201 1 rotate no_reflect no_shear #
shell $-1 $-1 $-1 $20 $-1 $5 #
shell $-1 $-1 $-1 $21 $-1 $7 #
shell $-1 $-1 $-1 $22 $-1 $9 #
shell $-1 $-1 $-1 $23 $-1 $11 #
shell $-1 $-1 $-1 $24 $-1 $13 #
face $-1 $25 $26 $15 $-1 $27 forward single #
face $-1 $28 $29 $16 $-1 $30 forward single #
face $-1 $31 $32 $17 $-1 $33 forward single #
face $-1 $34 $35 $18 $-1 $36 reversed single #
face $-1 $37 $38 $19 $-1 $39 forward single #
face $-1 $40 $41 $15 $-1 $42 reversed single #
loop $-1 $-1 $43 $20 #
plane-surface $-1 0 0 15.376695888141201 0 0 1 1 0 0 forward_v I I I I #
face $-1 $44 $45 $16 $-1 $46 reversed single #
loop $-1 $-1 $47 $21 #
plane-surface $-1 0 -29.217181653287483 -2.5091998166805296 0 0 1 1 0 0 forward_v I I I I #
face $-1 $48 $49 $17 $-1 $50 reversed single #
loop $-1 $-1 $51 $22 #
plane-surface $-1 0 29.217181653287483 -2.5091998166805296 0 0 1 1 0 0 forward_v I I I I #
face $-1 $52 $53 $18 $-1 $54 reversed single #
loop $-1 $-1 $55 $23 #
plane-surface $-1 91.294448535970332 4.438307532157026 150.08454402759943 0 1 0 0.85716730853699208 0 0.51503806187062418 forward_v I I I I #
face $-1 $56 $57 $19 $-1 $58 forward single #
loop $-1 $59 $60 $24 #
cone-surface $-1 46.879378939777006 9.9405058522806584 6.486027891924989 -0.85716730853699208 0 -0.51503806187062418 1.0300761237412484 0 -1.7143346170739842 1 I I 0 1 2 forward I I I I #
face $-1 $61 $62 $15 $-1 $63 reversed single #
loop $-1 $-1 $64 $25 #
plane-surface $-1 0 0 -15.376695888141201 0 0 1 1 0 0 forward_v I I I I #
coedge $-1 $65 $66 $67 $68 forward $26 $-1 #
face $-1 $69 $70 $16 $-1 $71 reversed single #
loop $-1 $-1 $72 $28 #
plane-surface $-1 0 -29.217181653287483 -10.371132153860765 0 0 1 1 0 0 forward_v I I I I #
coedge $-1 $73 $74 $75 $76 reversed $29 $-1 #
face $-1 $77 $78 $17 $-1 $79 reversed single #
loop $-1 $-1 $80 $31 #
plane-surface $-1 0 29.217181653287483 -10.371132153860765 0 0 1 1 0 0 forward_v I I I I #
coedge $-1 $81 $82 $83 $84 reversed $32 $-1 #
face $-1 $85 $86 $18 $-1 $87 reversed single #
loop $-1 $-1 $88 $34 #
plane-surface $-1 -1.6302623035158774 9.9405058522806584 94.249746673575387 0.85716730853699208 0 0.51503806187062418 0.51503806187062418 0 -0.85716730853699208 forward_v I I I I #
coedge $-1 $89 $90 $91 $92 reversed $35 $-1 #
face $-1 $-1 $93 $19 $-1 $94 forward single #
loop $-1 $95 $96 $37 #
cone-surface $-1 42.918599954264828 9.9405058522806584 4.1061518608641858 -0.85716730853699208 0 -0.51503806187062418 0.51503806187062418 0 -0.85716730853699208 1 I I -0.70710678118654746 0.70710678118654746 1 forward I I I I #
loop $-1 $-1 $97 $24 #
coedge $-1 $60 $60 $98 $99 reversed $38 $-1 #
face $-1 $100 $101 $15 $-1 $102 reversed single #
loop $-1 $-1 $103 $40 #
plane-surface $-1 0 -34.706981660838366 0 0 1 0 0 0 1 forward_v I I I I #
coedge $-1 $104 $105 $106 $107 forward $41 $-1 #
coedge $-1 $108 $43 $109 $110 forward $26 $-1 #
coedge $-1 $43 $108 $111 $112 forward $26 $-1 #
coedge $-1 $113 $114 $43 $68 reversed $115 $-1 #
edge $-1 $116 -34.706981660838366 $117 34.706981660838366 $67 $118 forward 7 unknown #
face $-1 $119 $120 $16 $-1 $121 reversed single #
loop $-1 $-1 $122 $44 #
plane-surface $-1 0 -23.7273816457366 -6.4401659852706477 0 -1 0 0 0 -1 forward_v I I I I #
coedge $-1 $123 $124 $125 $126 reversed $45 $-1 #
coedge $-1 $127 $47 $128 $129 forward $29 $-1 #
coedge $-1 $47 $127 $130 $131 reversed $29 $-1 #
coedge $-1 $132 $133 $47 $76 forward $134 $-1 #
edge $-1 $135 9.1187908190928582 $136 20.098390834194625 $75 $137 forward 7 unknown #
face $-1 $138 $139 $17 $-1 $140 reversed single #
loop $-1 $-1 $141 $48 #
plane-surface $-1 0 23.7273816457366 -6.4401659852706477 0 1 0 0 0 1 forward_v I I I I #
coedge $-1 $142 $143 $144 $145 reversed $49 $-1 #
coedge $-1 $146 $51 $147 $148 reversed $32 $-1 #
coedge $-1 $51 $146 $149 $150 forward $32 $-1 #
coedge $-1 $151 $152 $51 $84 forward $139 $-1 #
edge $-1 $153 -20.098390834194625 $154 -9.1187908190928582 $83 $155 forward 7 unknown #
face $-1 $156 $157 $18 $-1 $158 forward single #
loop $-1 $-1 $159 $52 #
plane-surface $-1 91.294448535970332 15.442704172404291 150.08454402759943 0 -1 0 -0.85716730853699208 0 -0.51503806187062418 forward_v I I I I #
coedge $-1 $160 $161 $162 $163 reversed $53 $-1 #
coedge $-1 $90 $55 $164 $165 reversed $35 $-1 #
coedge $-1 $55 $89 $160 $166 reversed $35 $-1 #
coedge $-1 $162 $167 $55 $92 forward $168 $-1 #
edge $-1 $169 59.665576125658518 $170 73.717236179710468 $91 $171 forward 7 unknown #
loop $-1 $-1 $98 $56 #
plane-surface $-1 -1.6302623035158774 9.9405058522806584 94.249746673575387 0.85716730853699208 0 0.51503806187062418 0.51503806187062418 0 -0.85716730853699208 forward_v I I I I #
loop $-1 $-1 $172 $37 #
coedge $-1 $96 $96 $97 $173 reversed $57 $-1 #
coedge $-1 $97 $97 $96 $173 forward $59 $-1 #
coedge $-1 $98 $98 $60 $99 forward $93 $-1 #
edge $-1 $174 0 $174 6.2831853071796004 $98 $175 forward 7 unknown #
face $-1 $176 $177 $15 $-1 $178 reversed single #
loop $-1 $-1 $179 $61 #
plane-surface $-1 -54.204535050508134 0 0 1 0 0 0 0 -1 forward_v I I I I #
coedge $-1 $180 $111 $181 $182 forward $62 $-1 #
coedge $-1 $183 $64 $180 $184 forward $41 $-1 #
coedge $-1 $64 $183 $185 $186 forward $41 $-1 #
coedge $-1 $114 $113 $64 $107 reversed $115 $-1 #
edge $-1 $187 -34.706981660838366 $188 34.706981660838366 $106 $189 forward 7 unknown #
coedge $-1 $66 $65 $190 $191 forward $26 $-1 #
coedge $-1 $192 $193 $65 $110 reversed $177 $-1 #
edge $-1 $117 -54.204535050508134 $194 54.204535050508134 $109 $195 forward 7 unknown #
coedge $-1 $103 $196 $66 $112 reversed $62 $-1 #
edge $-1 $197 -54.204535050508134 $116 54.204535050508134 $111 $198 forward 7 unknown #
coedge $-1 $106 $67 $196 $199 forward $115 $-1 #
coedge $-1 $67 $106 $192 $200 reversed $115 $-1 #
loop $-1 $-1 $113 $176 #
vertex $-1 $68 $201 #
vertex $-1 $68 $202 #
straight-curve $-1 54.204535050508134 0 15.376695888141201 0 1 0 I I #
face $-1 $203 $204 $16 $-1 $205 reversed single #
loop $-1 $-1 $206 $69 #
plane-surface $-1 -54.204535050508134 0 0 1 0 0 0 0 -1 forward_v I I I I #
coedge $-1 $207 $128 $133 $208 reversed $70 $-1 #
coedge $-1 $209 $72 $210 $211 reversed $45 $-1 #
coedge $-1 $72 $209 $207 $212 forward $45 $-1 #
coedge $-1 $133 $132 $72 $126 forward $134 $-1 #
edge $-1 $213 -20.098390834194625 $214 -9.1187908190928582 $125 $215 forward 7 unknown #
coedge $-1 $74 $73 $206 $216 reversed $29 $-1 #
coedge $-1 $122 $217 $73 $129 reversed $70 $-1 #
edge $-1 $135 -54.204535050508134 $218 54.204535050508134 $128 $219 forward 7 unknown #
coedge $-1 $220 $221 $74 $131 forward $204 $-1 #
edge $-1 $136 -54.204535050508134 $222 54.204535050508134 $130 $223 forward 7 unknown #
coedge $-1 $125 $75 $221 $224 forward $134 $-1 #
coedge $-1 $75 $125 $122 $208 forward $134 $-1 #
loop $-1 $-1 $75 $203 #
vertex $-1 $76 $225 #
vertex $-1 $224 $226 #
straight-curve $-1 54.204535050508134 -14.608590826643741 -2.5091998166805296 0 -1 0 I I #
face $-1 $227 $228 $17 $-1 $229 reversed single #
loop $-1 $-1 $83 $77 #
plane-surface $-1 54.204535050508134 0 0 -1 0 0 0 0 1 forward_v I I I I #
coedge $-1 $230 $149 $231 $232 reversed $78 $-1 #
coedge $-1 $233 $80 $230 $234 forward $49 $-1 #
coedge $-1 $80 $233 $235 $236 reversed $49 $-1 #
coedge $-1 $152 $151 $80 $145 forward $139 $-1 #
edge $-1 $237 9.1187908190928582 $238 20.098390834194625 $144 $239 forward 7 unknown #
coedge $-1 $82 $81 $240 $241 reversed $32 $-1 #
coedge $-1 $242 $243 $81 $148 forward $244 $-1 #
edge $-1 $245 -54.204535050508134 $153 54.204535050508134 $147 $246 forward 7 unknown #
coedge $-1 $141 $247 $82 $150 reversed $78 $-1 #
edge $-1 $248 -54.204535050508134 $154 54.204535050508134 $149 $249 forward 7 unknown #
coedge $-1 $144 $83 $247 $250 forward $139 $-1 #
coedge $-1 $83 $144 $242 $251 reversed $139 $-1 #
vertex $-1 $251 $252 #
vertex $-1 $84 $253 #
straight-curve $-1 54.204535050508134 14.608590826643741 -2.5091998166805296 0 -1 0 I I #
face $-1 $-1 $168 $18 $-1 $254 reversed single #
loop $-1 $-1 $255 $85 #
plane-surface $-1 0 0 15.376695888141201 0 0 1 1 0 0 forward_v I I I I #
coedge $-1 $256 $257 $258 $259 reversed $86 $-1 #
coedge $-1 $260 $88 $90 $166 forward $53 $-1 #
coedge $-1 $88 $260 $256 $261 forward $53 $-1 #
coedge $-1 $258 $91 $88 $163 forward $168 $-1 #
edge $-1 $170 -0.53194539398330321 $262 10.472451246263962 $162 $263 forward 7 unknown #
coedge $-1 $264 $265 $89 $165 forward $157 $-1 #
edge $-1 $266 0.11422191501110035 $169 8.5573107825229684 $164 $267 forward 7 unknown #
edge $-1 $170 -108.4090701010162 $266 -92.015934345482975 $90 $268 forward 7 unknown #
coedge $-1 $91 $258 $264 $269 reversed $168 $-1 #
loop $-1 $-1 $258 $156 #
vertex $-1 $269 $270 #
vertex $-1 $92 $271 #
straight-curve $-1 54.204535050508134 4.438307532157026 75.042272013799717 0 0 -1 I I #
coedge $-1 $172 $172 $-1 $272 reversed $95 $-1 #
edge $-1 $273 0 $273 6.2831853071796004 $96 $274 forward 7 unknown #
vertex $-1 $99 $275 #
ellipse-curve $-1 49.982990616752218 9.9405058522806584 8.3508658611151851 0.85716730853699208 0 0.51503806187062418 1.0300761237412484 0 -1.7143346170739842 1 I I #
face $-1 $-1 $115 $15 $-1 $276 reversed single #
loop $-1 $-1 $192 $100 #
plane-surface $-1 0 34.706981660838366 0 0 -1 0 0 0 -1 forward_v I I I I #
coedge $-1 $277 $190 $193 $278 forward $101 $-1 #
coedge $-1 $196 $103 $104 $184 reversed $62 $-1 #
coedge $-1 $190 $277 $103 $182 reversed $101 $-1 #
edge $-1 $197 -15.376695888141201 $279 15.376695888141201 $181 $280 forward 7 unknown #
coedge $-1 $105 $104 $277 $281 forward $41 $-1 #
edge $-1 $188 -54.204535050508134 $279 54.204535050508134 $180 $282 forward 7 unknown #
coedge $-1 $193 $192 $105 $186 reversed $177 $-1 #
edge $-1 $283 -54.204535050508134 $187 54.204535050508134 $185 $284 forward 7 unknown #
vertex $-1 $107 $285 #
vertex $-1 $199 $286 #
straight-curve $-1 54.204535050508134 0 -15.376695888141201 0 -1 0 I I #
coedge $-1 $179 $181 $108 $191 reversed $101 $-1 #
edge $-1 $194 -34.706981660838366 $197 34.706981660838366 $190 $287 forward 7 unknown #
coedge $-1 $185 $109 $114 $200 forward $177 $-1 #
coedge $-1 $109 $185 $179 $278 reversed $177 $-1 #
vertex $-1 $110 $288 #
straight-curve $-1 0 34.706981660838366 15.376695888141201 -1 0 0 I I #
coedge $-1 $111 $180 $113 $199 reversed $62 $-1 #
vertex $-1 $191 $289 #
straight-curve $-1 0 -34.706981660838366 15.376695888141201 1 0 0 I I #
edge $-1 $116 -15.376695888141201 $188 15.376695888141201 $113 $290 forward 7 unknown #
edge $-1 $117 -15.376695888141201 $187 15.376695888141201 $114 $291 forward 7 unknown #
point $-1 54.204535050508134 -34.706981660838366 15.376695888141201 #
point $-1 54.204535050508134 34.706981660838366 15.376695888141201 #
face $-1 $-1 $134 $16 $-1 $292 reversed single #
loop $-1 $-1 $130 $119 #
plane-surface $-1 0 -34.706981660838366 0 0 1 0 0 0 1 forward_v I I I I #
coedge $-1 $293 $294 $127 $216 forward $120 $-1 #
coedge $-1 $217 $122 $124 $212 reversed $70 $-1 #
edge $-1 $214 -7.1510491612254414 $135 0.71088317595479422 $133 $295 forward 7 unknown #
coedge $-1 $124 $123 $296 $297 reversed $45 $-1 #
coedge $-1 $221 $220 $123 $211 forward $204 $-1 #
edge $-1 $298 -54.204535050508134 $213 54.204535050508134 $210 $299 forward 7 unknown #
edge $-1 $300 -54.204535050508134 $214 54.204535050508134 $207 $301 forward 7 unknown #
vertex $-1 $211 $302 #
vertex $-1 $126 $303 #
straight-curve $-1 54.204535050508134 -14.608590826643741 -10.371132153860765 0 1 0 I I #
edge $-1 $222 -20.098390834194625 $218 -9.1187908190928582 $206 $304 forward 7 unknown #
coedge $-1 $128 $207 $293 $305 reversed $70 $-1 #
vertex $-1 $216 $306 #
straight-curve $-1 0 -23.7273816457366 -2.5091998166805296 -1 0 0 I I #
coedge $-1 $210 $130 $294 $307 forward $204 $-1 #
coedge $-1 $130 $210 $132 $224 reversed $204 $-1 #
vertex $-1 $307 $308 #
straight-curve $-1 0 -34.706981660838366 -2.5091998166805296 -1 0 0 I I #
edge $-1 $136 2.5091998166805296 $213 10.371132153860765 $132 $309 forward 7 unknown #
point $-1 54.204535050508134 -23.7273816457366 -2.5091998166805296 #
point $-1 54.204535050508134 -34.706981660838366 -2.5091998166805296 #
face $-1 $-1 $244 $17 $-1 $310 reversed single #
loop $-1 $-1 $240 $138 #
plane-surface $-1 -54.204535050508134 0 0 1 0 0 0 0 -1 forward_v I I I I #
coedge $-1 $247 $141 $142 $234 reversed $78 $-1 #
coedge $-1 $240 $311 $141 $232 forward $228 $-1 #
edge $-1 $312 -7.1510491612254414 $248 0.71088317595479422 $231 $313 forward 7 unknown #
coedge $-1 $143 $142 $311 $314 reversed $49 $-1 #
edge $-1 $237 -54.204535050508134 $312 54.204535050508134 $230 $315 forward 7 unknown #
coedge $-1 $243 $242 $143 $236 forward $244 $-1 #
edge $-1 $238 -54.204535050508134 $316 54.204535050508134 $235 $317 forward 7 unknown #
vertex $-1 $145 $318 #
vertex $-1 $236 $319 #
straight-curve $-1 54.204535050508134 14.608590826643741 -10.371132153860765 0 1 0 I I #
coedge $-1 $320 $231 $146 $241 forward $228 $-1 #
edge $-1 $248 9.1187908190928582 $245 20.098390834194625 $240 $321 forward 7 unknown #
coedge $-1 $235 $147 $152 $251 forward $244 $-1 #
coedge $-1 $147 $235 $320 $322 reversed $244 $-1 #
loop $-1 $-1 $147 $227 #
vertex $-1 $322 $323 #
straight-curve $-1 0 34.706981660838366 -2.5091998166805296 1 0 0 I I #
coedge $-1 $149 $230 $151 $250 reversed $78 $-1 #
vertex $-1 $241 $324 #
straight-curve $-1 0 23.7273816457366 -2.5091998166805296 1 0 0 I I #
edge $-1 $154 -0.71088317595479422 $237 7.1510491612254414 $151 $325 forward 7 unknown #
edge $-1 $153 2.5091998166805296 $238 10.371132153860765 $152 $326 forward 7 unknown #
point $-1 54.204535050508134 34.706981660838366 -2.5091998166805296 #
point $-1 54.204535050508134 23.7273816457366 -2.5091998166805296 #
plane-surface $-1 54.204535050508134 0 0 -1 0 0 0 0 1 forward_v I I I I #
coedge $-1 $265 $264 $257 $327 forward $157 $-1 #
coedge $-1 $257 $159 $161 $261 reversed $86 $-1 #
coedge $-1 $159 $256 $255 $327 reversed $86 $-1 #
coedge $-1 $167 $162 $159 $259 forward $168 $-1 #
edge $-1 $262 -73.717236179710468 $328 -59.665576125658518 $258 $329 forward 7 unknown #
coedge $-1 $161 $160 $265 $330 reversed $53 $-1 #
edge $-1 $331 92.015934345482975 $262 108.4090701010162 $256 $332 forward 7 unknown #
vertex $-1 $163 $333 #
straight-curve $-1 54.204535050508134 4.9702529261403292 1.3250358340892276 0 1 0 I I #
coedge $-1 $255 $164 $167 $269 forward $157 $-1 #
coedge $-1 $164 $255 $260 $330 forward $157 $-1 #
vertex $-1 $165 $334 #
straight-curve $-1 45.647224267985166 4.438307532157026 15.376695888141199 1 0 0 I I #
straight-curve $-1 -1.6302623035158774 4.438307532157026 94.249746673575387 -0.51503806187062418 0 0.85716730853699208 I I #
edge $-1 $169 4.438307532157026 $328 15.442704172404291 $167 $335 forward 7 unknown #
point $-1 54.204535050508134 4.438307532157026 15.376695888141201 #
point $-1 54.204535050508134 4.438307532157026 1.325035834089249 #
edge $-1 $336 1 $336 0 $172 $-1 forward 7 unknown #
vertex $-1 $173 $337 #
ellipse-curve $-1 43.775767262801821 9.9405058522806584 4.6211899227348097 0.85716730853699208 0 0.51503806187062418 1.0300761237412484 0 -1.7143346170739842 1 I I #
point $-1 51.013066740493436 9.9405058522806584 6.6365312440411843 #
plane-surface $-1 54.204535050508134 0 0 -1 0 0 0 0 1 forward_v I I I I #
coedge $-1 $181 $179 $183 $281 reversed $101 $-1 #
edge $-1 $194 -15.376695888141201 $283 15.376695888141201 $193 $338 forward 7 unknown #
vertex $-1 $281 $339 #
straight-curve $-1 -54.204535050508134 -34.706981660838366 0 0 0 -1 I I #
edge $-1 $279 -34.706981660838366 $283 34.706981660838366 $277 $340 forward 7 unknown #
straight-curve $-1 0 -34.706981660838366 -15.376695888141201 -1 0 0 I I #
vertex $-1 $186 $341 #
straight-curve $-1 0 34.706981660838366 -15.376695888141201 1 0 0 I I #
point $-1 54.204535050508134 34.706981660838366 -15.376695888141201 #
point $-1 54.204535050508134 -34.706981660838366 -15.376695888141201 #
straight-curve $-1 -54.204535050508134 0 15.376695888141201 0 -1 0 I I #
point $-1 -54.204535050508134 34.706981660838366 15.376695888141201 #
point $-1 -54.204535050508134 -34.706981660838366 15.376695888141201 #
straight-curve $-1 54.204535050508134 -34.706981660838366 0 0 0 -1 I I #
straight-curve $-1 54.204535050508134 34.706981660838366 0 0 0 -1 I I #
plane-surface $-1 54.204535050508134 0 0 -1 0 0 0 0 1 forward_v I I I I #
coedge $-1 $296 $206 $217 $305 forward $120 $-1 #
coedge $-1 $206 $296 $220 $307 reversed $120 $-1 #
straight-curve $-1 54.204535050508134 -23.7273816457366 -3.2200829926353238 0 0 1 I I #
coedge $-1 $294 $293 $209 $297 forward $120 $-1 #
edge $-1 $300 9.1187908190928582 $298 20.098390834194625 $296 $342 forward 7 unknown #
vertex $-1 $211 $343 #
straight-curve $-1 0 -34.706981660838366 -10.371132153860765 1 0 0 I I #
vertex $-1 $297 $344 #
straight-curve $-1 0 -23.7273816457366 -10.371132153860765 1 0 0 I I #
point $-1 54.204535050508134 -34.706981660838366 -10.371132153860765 #
point $-1 54.204535050508134 -23.7273816457366 -10.371132153860765 #
straight-curve $-1 -54.204535050508134 -14.608590826643741 -2.5091998166805296 0 1 0 I I #
edge $-1 $218 -0.71088317595479422 $300 7.1510491612254414 $293 $345 forward 7 unknown #
point $-1 -54.204535050508134 -23.7273816457366 -2.5091998166805296 #
edge $-1 $222 2.5091998166805296 $298 10.371132153860765 $294 $346 forward 7 unknown #
point $-1 -54.204535050508134 -34.706981660838366 -2.5091998166805296 #
straight-curve $-1 54.204535050508134 -34.706981660838366 0 0 0 -1 I I #
plane-surface $-1 0 34.706981660838366 0 0 -1 0 0 0 -1 forward_v I I I I #
coedge $-1 $231 $320 $233 $314 forward $228 $-1 #
vertex $-1 $314 $347 #
straight-curve $-1 -54.204535050508134 23.7273816457366 -3.2200829926353238 0 0 1 I I #
edge $-1 $316 -20.098390834194625 $312 -9.1187908190928582 $311 $348 forward 7 unknown #
straight-curve $-1 0 23.7273816457366 -10.371132153860765 -1 0 0 I I #
vertex $-1 $236 $349 #
straight-curve $-1 0 34.706981660838366 -10.371132153860765 -1 0 0 I I #
point $-1 54.204535050508134 23.7273816457366 -10.371132153860765 #
point $-1 54.204535050508134 34.706981660838366 -10.371132153860765 #
coedge $-1 $311 $240 $243 $322 forward $228 $-1 #
straight-curve $-1 -54.204535050508134 14.608590826643741 -2.5091998166805296 0 1 0 I I #
edge $-1 $245 2.5091998166805296 $316 10.371132153860765 $243 $350 forward 7 unknown #
point $-1 -54.204535050508134 34.706981660838366 -2.5091998166805296 #
point $-1 -54.204535050508134 23.7273816457366 -2.5091998166805296 #
straight-curve $-1 54.204535050508134 23.7273816457366 -3.2200829926353238 0 0 -1 I I #
straight-curve $-1 54.204535050508134 34.706981660838366 0 0 0 -1 I I #
edge $-1 $328 -8.5573107825229684 $331 -0.11422191501110035 $255 $351 forward 7 unknown #
vertex $-1 $327 $352 #
straight-curve $-1 54.204535050508134 15.442704172404291 75.042272013799717 0 0 1 I I #
edge $-1 $331 -10.472451246263962 $266 0.53194539398330321 $265 $353 forward 7 unknown #
vertex $-1 $330 $354 #
straight-curve $-1 -1.6302623035158774 15.442704172404291 94.249746673575387 0.51503806187062418 0 -0.85716730853699208 I I #
point $-1 54.204535050508134 15.442704172404291 1.325035834089249 #
point $-1 45.761446182996266 4.438307532157026 15.376695888141199 #
straight-curve $-1 54.204535050508134 0 15.376695888141201 0 1 0 I I #
vertex $-1 $272 $355 #
point $-1 44.805843386543067 9.9405058522806584 2.9068553056608257 #
straight-curve $-1 -54.204535050508134 34.706981660838366 0 0 0 -1 I I #
point $-1 -54.204535050508134 -34.706981660838366 -15.376695888141201 #
straight-curve $-1 -54.204535050508134 0 -15.376695888141201 0 1 0 I I #
point $-1 -54.204535050508134 34.706981660838366 -15.376695888141201 #
straight-curve $-1 -54.204535050508134 -14.608590826643741 -10.371132153860765 0 -1 0 I I #
point $-1 -54.204535050508134 -34.706981660838366 -10.371132153860765 #
point $-1 -54.204535050508134 -23.7273816457366 -10.371132153860765 #
straight-curve $-1 -54.204535050508134 -23.7273816457366 -3.2200829926353238 0 0 -1 I I #
straight-curve $-1 -54.204535050508134 -34.706981660838366 0 0 0 -1 I I #
point $-1 -54.204535050508134 23.7273816457366 -10.371132153860765 #
straight-curve $-1 -54.204535050508134 14.608590826643741 -10.371132153860765 0 -1 0 I I #
point $-1 -54.204535050508134 34.706981660838366 -10.371132153860765 #
straight-curve $-1 -54.204535050508134 34.706981660838366 0 0 0 -1 I I #
straight-curve $-1 45.647224267985166 15.442704172404291 15.376695888141199 -1 0 0 I I #
point $-1 54.204535050508134 15.442704172404291 15.376695888141201 #
straight-curve $-1 45.761446182996252 4.9702529261403292 15.376695888141199 0 -1 0 I I #
point $-1 45.761446182996266 15.442704172404291 15.376695888141199 #
point $-1 42.061432645727834 9.9405058522806584 3.5911137989935615 #
End-of-ACIS-data 