500 0 8 0           
7 Unknown 11 ACIS 5.0 NT 24 Fri Mar 26 18:24:32 1999 
-1 9.9999999999999995e-007 1e-010 
body $-1 $8 $-1 $9 #
body $-1 $10 $-1 $11 #
body $-1 $12 $-1 $13 #
body $-1 $14 $-1 $15 #
body $-1 $16 $-1 $17 #
body $-1 $18 $-1 $19 #
body $-1 $20 $-1 $21 #
body $-1 $22 $-1 $23 #
lump $-1 $-1 $24 $0 #
transform $-1 1 0 0 0 1 0 0 0 1 49.333780938138979 34.089647145034412 13.228347801563373 1 rotate no_reflect no_shear #
lump $-1 $-1 $25 $1 #
transform $-1 1 0 0 0 1 0 0 0 1 49.333780938138979 34.089647145034412 13.228347801563373 1 rotate no_reflect no_shear #
lump $-1 $-1 $26 $2 #
transform $-1 1 0 0 0 1 0 0 0 1 49.333780938138979 34.089647145034412 13.228347801563373 1 rotate no_reflect no_shear #
lump $-1 $-1 $27 $3 #
transform $-1 1 0 0 0 1 0 0 0 1 49.333780938138979 34.089647145034412 13.228347801563373 1 rotate no_reflect no_shear #
lump $-1 $-1 $28 $4 #
transform $-1 1 0 0 0 1 0 0 0 1 49.333780938138979 34.089647145034412 13.228347801563373 1 rotate no_reflect no_shear #
lump $-1 $-1 $29 $5 #
transform $-1 1 0 0 0 1 0 0 0 1 49.333780938138979 34.089647145034412 13.228347801563373 1 rotate no_reflect no_shear #
lump $-1 $-1 $30 $6 #
transform $-1 1 0 0 0 1 0 0 0 1 49.333780938138979 34.089647145034412 13.228347801563373 1 rotate no_reflect no_shear #
lump $-1 $-1 $31 $7 #
transform $-1 1 0 0 0 1 0 0 0 1 49.333780938138979 34.089647145034412 13.228347801563373 1 rotate no_reflect no_shear #
shell $-1 $-1 $-1 $32 $-1 $8 #
shell $-1 $-1 $-1 $33 $-1 $10 #
shell $-1 $-1 $-1 $34 $-1 $12 #
shell $-1 $-1 $-1 $35 $-1 $14 #
shell $-1 $-1 $-1 $36 $-1 $16 #
shell $-1 $-1 $-1 $37 $-1 $18 #
shell $-1 $-1 $-1 $38 $-1 $20 #
shell $-1 $-1 $-1 $39 $-1 $22 #
face $-1 $40 $41 $24 $-1 $42 forward single #
face $-1 $43 $44 $25 $-1 $45 reversed single #
face $-1 $46 $47 $26 $-1 $48 reversed single #
face $-1 $49 $50 $27 $-1 $51 forward single #
face $-1 $52 $53 $28 $-1 $54 forward single #
face $-1 $55 $56 $29 $-1 $57 reversed single #
face $-1 $58 $59 $30 $-1 $60 forward single #
face $-1 $61 $62 $31 $-1 $63 forward single #
face $-1 $64 $65 $24 $-1 $66 reversed single #
loop $-1 $-1 $67 $32 #
plane-surface $-1 0 0 13.228347801563373 0 0 1 1 0 0 forward_v I I I I #
face $-1 $68 $69 $25 $-1 $70 reversed single #
loop $-1 $-1 $71 $33 #
plane-surface $-1 -47.833780938138979 -23.192180491210358 0 0 -1 0 0 0 -1 forward_v I I I I #
face $-1 $72 $73 $26 $-1 $74 reversed single #
loop $-1 $-1 $75 $34 #
plane-surface $-1 78.345157413027465 7.7496591935242911 141.96733549281635 0 -1 0 -0.83867057594974714 0 -0.54463902268945019 forward_v I I I I #
face $-1 $76 $77 $27 $-1 $78 forward single #
loop $-1 $79 $80 $35 #
cone-surface $-1 46.398381690238082 3.1406511969402189 9.0816294269540272 -0.83867057594974714 0 -0.54463902268945019 0.13615975567236255 0 -0.20966764398743679 1 I I 0 1 0.25 forward I I I I #
face $-1 $81 $82 $28 $-1 $83 forward single #
loop $-1 $84 $85 $36 #
cone-surface $-1 46.398381690238082 5.9060559948906572 9.0816294269540272 -0.83867057594974714 0 -0.54463902268945019 0.13615975567236255 0 -0.20966764398743679 1 I I 0 1 0.25 forward I I I I #
face $-1 $86 $87 $29 $-1 $88 reversed single #
loop $-1 $-1 $89 $37 #
plane-surface $-1 -132.08336188447433 1.2970479983065992 59.217754546481018 0 1 0 -0.83867057594974714 0 0.54463902268945019 forward_v I I I I #
face $-1 $90 $91 $30 $-1 $92 forward single #
loop $-1 $93 $94 $38 #
cone-surface $-1 -46.398381690238075 3.1406511969402189 9.0816294269540272 0.83867057594974714 0 -0.54463902268945019 0.13615975567236255 0 0.20966764398743679 1 I I 0 1 0.25 forward I I I I #
face $-1 $95 $96 $31 $-1 $97 forward single #
loop $-1 $98 $99 $39 #
cone-surface $-1 -46.398381690238075 5.9060559948906572 9.0816294269540272 0.83867057594974714 0 -0.54463902268945019 0.13615975567236255 0 0.20966764398743679 1 I I 0 1 0.25 forward I I I I #
face $-1 $100 $101 $24 $-1 $102 reversed single #
loop $-1 $-1 $103 $40 #
plane-surface $-1 0 0 -13.228347801563373 0 0 1 1 0 0 forward_v I I I I #
coedge $-1 $104 $105 $106 $107 forward $41 $-1 #
face $-1 $108 $109 $25 $-1 $110 forward single #
loop $-1 $-1 $111 $43 #
plane-surface $-1 -46.333780938138979 -28.640913818122385 0 -1 0 0 0 0 1 forward_v I I I I #
coedge $-1 $112 $113 $114 $115 forward $44 $-1 #
face $-1 $116 $117 $26 $-1 $118 reversed single #
loop $-1 $-1 $119 $46 #
plane-surface $-1 -4.4044235333078774 4.5233535959154452 88.229131021369454 0.83867057594974714 0 0.54463902268945019 0.54463902268945019 0 -0.83867057594974714 forward_v I I I I #
coedge $-1 $120 $121 $122 $123 reversed $47 $-1 #
face $-1 $-1 $124 $27 $-1 $125 forward single #
loop $-1 $126 $127 $49 #
cone-surface $-1 45.874212580269493 3.1406511969402189 8.7412300377731214 -0.83867057594974714 0 -0.54463902268945019 0.068079877836181274 0 -0.10483382199371839 1 I I -0.70710678118654746 0.70710678118654746 0.125 forward I I I I #
loop $-1 $-1 $128 $35 #
coedge $-1 $80 $80 $129 $130 reversed $50 $-1 #
face $-1 $-1 $131 $28 $-1 $132 forward single #
loop $-1 $133 $134 $52 #
cone-surface $-1 45.874212580269493 5.9060559948906572 8.7412300377731214 -0.83867057594974714 0 -0.54463902268945019 0.068079877836181274 0 -0.10483382199371839 1 I I -0.70710678118654746 0.70710678118654746 0.125 forward I I I I #
loop $-1 $-1 $135 $36 #
coedge $-1 $85 $85 $136 $137 reversed $53 $-1 #
face $-1 $138 $139 $29 $-1 $140 reversed single #
loop $-1 $-1 $141 $55 #
plane-surface $-1 -49.333780938138986 4.5233535959154452 5.4795500750341333 -0.83867057594974714 0 0.54463902268945019 0.54463902268945019 0 0.83867057594974714 forward_v I I I I #
coedge $-1 $142 $143 $144 $145 reversed $56 $-1 #
face $-1 $-1 $146 $30 $-1 $147 forward single #
loop $-1 $148 $149 $58 #
cone-surface $-1 -45.874212580269486 3.1406511969402189 8.7412300377731214 0.83867057594974714 0 -0.54463902268945019 0.068079877836181274 0 0.10483382199371839 1 I I -0.70710678118654746 0.70710678118654746 0.125 forward I I I I #
loop $-1 $-1 $150 $38 #
coedge $-1 $94 $94 $151 $152 reversed $59 $-1 #
face $-1 $-1 $153 $31 $-1 $154 forward single #
loop $-1 $155 $156 $61 #
cone-surface $-1 -45.874212580269486 5.9060559948906572 8.7412300377731214 0.83867057594974714 0 -0.54463902268945019 0.068079877836181274 0 0.10483382199371839 1 I I -0.70710678118654746 0.70710678118654746 0.125 forward I I I I #
loop $-1 $-1 $157 $39 #
coedge $-1 $99 $99 $158 $159 reversed $62 $-1 #
face $-1 $160 $161 $24 $-1 $162 reversed single #
loop $-1 $-1 $163 $64 #
plane-surface $-1 0 -34.089647145034412 0 0 1 0 0 0 1 forward_v I I I I #
coedge $-1 $164 $165 $166 $167 forward $65 $-1 #
coedge $-1 $168 $67 $169 $170 forward $41 $-1 #
coedge $-1 $67 $168 $171 $172 forward $41 $-1 #
coedge $-1 $173 $174 $67 $107 reversed $175 $-1 #
edge $-1 $176 -34.089647145034412 $177 34.089647145034412 $106 $178 forward 7 unknown #
face $-1 $179 $180 $25 $-1 $181 reversed single #
loop $-1 $-1 $182 $68 #
plane-surface $-1 0 0 13.228347801563373 0 0 1 1 0 0 forward_v I I I I #
coedge $-1 $183 $184 $185 $186 reversed $69 $-1 #
coedge $-1 $187 $71 $188 $189 reversed $44 $-1 #
coedge $-1 $71 $187 $190 $191 reversed $44 $-1 #
coedge $-1 $184 $183 $71 $115 reversed $69 $-1 #
edge $-1 $192 -13.228347801563373 $193 13.228347801563373 $114 $194 forward 7 unknown #
face $-1 $195 $196 $26 $-1 $197 reversed single #
loop $-1 $-1 $198 $72 #
plane-surface $-1 78.345157413027465 1.2970479983065992 141.96733549281635 0 1 0 0.83867057594974714 0 0.54463902268945019 forward_v I I I I #
coedge $-1 $199 $200 $201 $202 reversed $73 $-1 #
coedge $-1 $121 $75 $203 $204 reversed $47 $-1 #
coedge $-1 $75 $120 $199 $205 reversed $47 $-1 #
coedge $-1 $201 $206 $75 $123 forward $207 $-1 #
edge $-1 $208 -10.161202231625246 $209 -5.1290743117732021 $122 $210 forward 7 unknown #
loop $-1 $-1 $129 $76 #
plane-surface $-1 -4.4044235333078774 4.5233535959154452 88.229131021369454 0.83867057594974714 0 0.54463902268945019 0.54463902268945019 0 -0.83867057594974714 forward_v I I I I #
loop $-1 $-1 $211 $49 #
coedge $-1 $127 $127 $128 $212 reversed $77 $-1 #
coedge $-1 $128 $128 $127 $212 forward $79 $-1 #
coedge $-1 $129 $129 $80 $130 forward $124 $-1 #
edge $-1 $213 0 $213 6.2831853071796004 $129 $214 forward 7 unknown #
loop $-1 $-1 $136 $81 #
plane-surface $-1 -4.4044235333078774 4.5233535959154452 88.229131021369454 0.83867057594974714 0 0.54463902268945019 0.54463902268945019 0 -0.83867057594974714 forward_v I I I I #
loop $-1 $-1 $215 $52 #
coedge $-1 $134 $134 $135 $216 reversed $82 $-1 #
coedge $-1 $135 $135 $134 $216 forward $84 $-1 #
coedge $-1 $136 $136 $85 $137 forward $131 $-1 #
edge $-1 $217 0 $217 6.2831853071796004 $136 $218 forward 7 unknown #
face $-1 $219 $220 $29 $-1 $221 reversed single #
loop $-1 $-1 $222 $86 #
plane-surface $-1 -132.08336188447433 7.7496591935242911 59.217754546481018 0 -1 0 0.83867057594974714 0 -0.54463902268945019 forward_v I I I I #
coedge $-1 $223 $224 $225 $226 reversed $87 $-1 #
coedge $-1 $143 $89 $227 $228 reversed $56 $-1 #
coedge $-1 $89 $142 $223 $229 reversed $56 $-1 #
coedge $-1 $225 $230 $89 $145 forward $231 $-1 #
edge $-1 $232 16.707900004098185 $233 21.740027923950223 $144 $234 forward 7 unknown #
loop $-1 $-1 $151 $90 #
plane-surface $-1 -49.333780938138986 4.5233535959154452 5.4795500750341333 -0.83867057594974714 0 0.54463902268945019 0.54463902268945019 0 0.83867057594974714 forward_v I I I I #
loop $-1 $-1 $235 $58 #
coedge $-1 $149 $149 $150 $236 reversed $91 $-1 #
coedge $-1 $150 $150 $149 $236 forward $93 $-1 #
coedge $-1 $151 $151 $94 $152 forward $146 $-1 #
edge $-1 $237 0 $237 6.2831853071796004 $151 $238 forward 7 unknown #
loop $-1 $-1 $158 $95 #
plane-surface $-1 -49.333780938138986 4.5233535959154452 5.4795500750341333 -0.83867057594974714 0 0.54463902268945019 0.54463902268945019 0 0.83867057594974714 forward_v I I I I #
loop $-1 $-1 $239 $61 #
coedge $-1 $156 $156 $157 $240 reversed $96 $-1 #
coedge $-1 $157 $157 $156 $240 forward $98 $-1 #
coedge $-1 $158 $158 $99 $159 forward $153 $-1 #
edge $-1 $241 0 $241 6.2831853071796004 $158 $242 forward 7 unknown #
face $-1 $243 $244 $24 $-1 $245 reversed single #
loop $-1 $-1 $246 $100 #
plane-surface $-1 -49.333780938138979 0 0 1 0 0 0 0 -1 forward_v I I I I #
coedge $-1 $247 $171 $248 $249 forward $101 $-1 #
coedge $-1 $250 $103 $247 $251 forward $65 $-1 #
coedge $-1 $103 $250 $252 $253 forward $65 $-1 #
coedge $-1 $174 $173 $103 $167 reversed $175 $-1 #
edge $-1 $254 -34.089647145034412 $255 34.089647145034412 $166 $256 forward 7 unknown #
coedge $-1 $105 $104 $257 $258 forward $41 $-1 #
coedge $-1 $259 $260 $104 $170 reversed $244 $-1 #
edge $-1 $177 -49.333780938138979 $261 49.333780938138979 $169 $262 forward 7 unknown #
coedge $-1 $163 $263 $105 $172 reversed $101 $-1 #
edge $-1 $264 -49.333780938138979 $176 49.333780938138979 $171 $265 forward 7 unknown #
coedge $-1 $166 $106 $263 $266 forward $175 $-1 #
coedge $-1 $106 $166 $259 $267 reversed $175 $-1 #
loop $-1 $-1 $173 $243 #
vertex $-1 $107 $268 #
vertex $-1 $107 $269 #
straight-curve $-1 49.333780938138979 0 13.228347801563373 0 1 0 I I #
face $-1 $270 $271 $25 $-1 $272 reversed single #
loop $-1 $-1 $273 $108 #
plane-surface $-1 -49.333780938138979 0 0 1 0 0 0 0 -1 forward_v I I I I #
coedge $-1 $190 $274 $184 $275 forward $109 $-1 #
coedge $-1 $114 $111 $276 $277 reversed $69 $-1 #
coedge $-1 $111 $114 $182 $275 reversed $69 $-1 #
coedge $-1 $278 $279 $111 $186 forward $280 $-1 #
edge $-1 $281 -13.228347801563373 $282 13.228347801563373 $185 $283 forward 7 unknown #
coedge $-1 $113 $112 $273 $284 reversed $44 $-1 #
coedge $-1 $276 $285 $112 $189 forward $271 $-1 #
edge $-1 $286 -25.416890469069489 $193 -22.416890469069489 $188 $287 forward 7 unknown #
coedge $-1 $288 $182 $113 $191 forward $109 $-1 #
edge $-1 $192 22.416890469069489 $289 25.416890469069489 $190 $290 forward 7 unknown #
vertex $-1 $191 $291 #
vertex $-1 $189 $292 #
straight-curve $-1 -46.333780938138979 -23.192180491210358 0 0 0 -1 I I #
face $-1 $-1 $207 $26 $-1 $293 forward single #
loop $-1 $-1 $294 $116 #
plane-surface $-1 49.333780938138979 0 0 -1 0 0 0 0 1 forward_v I I I I #
coedge $-1 $295 $296 $297 $298 reversed $117 $-1 #
coedge $-1 $299 $119 $121 $205 forward $73 $-1 #
coedge $-1 $119 $299 $295 $300 forward $73 $-1 #
coedge $-1 $297 $122 $119 $202 forward $207 $-1 #
edge $-1 $209 -5.4879823955665685 $301 0.96462879965112336 $201 $302 forward 7 unknown #
coedge $-1 $303 $304 $120 $204 forward $196 $-1 #
edge $-1 $305 -65.504117671374033 $208 -57.7553199448448 $203 $306 forward 7 unknown #
edge $-1 $209 89.42817999173505 $305 98.667561876277915 $121 $307 forward 7 unknown #
coedge $-1 $122 $297 $303 $308 forward $207 $-1 #
loop $-1 $-1 $297 $195 #
vertex $-1 $204 $309 #
vertex $-1 $123 $310 #
straight-curve $-1 39.172578706513733 7.7496591935242911 13.228347801563373 -1 0 0 I I #
coedge $-1 $211 $211 $-1 $311 reversed $126 $-1 #
edge $-1 $312 0 $312 6.2831853071796004 $127 $313 forward 7 unknown #
vertex $-1 $130 $314 #
ellipse-curve $-1 46.817716978212964 3.1406511969402189 9.3539489382987568 0.83867057594974714 0 0.54463902268945019 0.13615975567236255 0 -0.20966764398743679 1 I I #
coedge $-1 $215 $215 $-1 $315 reversed $133 $-1 #
edge $-1 $316 0 $316 6.2831853071796004 $134 $317 forward 7 unknown #
vertex $-1 $137 $318 #
ellipse-curve $-1 46.817716978212964 5.9060559948906572 9.3539489382987568 0.83867057594974714 0 0.54463902268945019 0.13615975567236255 0 -0.20966764398743679 1 I I #
face $-1 $-1 $231 $29 $-1 $319 forward single #
loop $-1 $-1 $320 $138 #
plane-surface $-1 -49.333780938138979 0 0 1 0 0 0 0 -1 forward_v I I I I #
coedge $-1 $321 $322 $323 $324 reversed $139 $-1 #
coedge $-1 $325 $141 $143 $229 forward $87 $-1 #
coedge $-1 $141 $325 $321 $326 forward $87 $-1 #
coedge $-1 $323 $144 $141 $226 forward $231 $-1 #
edge $-1 $233 -0.96462879965112336 $327 5.4879823955665685 $225 $328 forward 7 unknown #
coedge $-1 $329 $330 $142 $228 forward $220 $-1 #
edge $-1 $331 -24.129327198206365 $232 -16.380529471677136 $227 $332 forward 7 unknown #
edge $-1 $233 -9.2393818845428832 $331 -1.2808562293387176e-014 $143 $333 forward 7 unknown #
coedge $-1 $144 $323 $329 $334 forward $231 $-1 #
loop $-1 $-1 $323 $219 #
vertex $-1 $228 $335 #
vertex $-1 $145 $336 #
straight-curve $-1 -66.041680942237164 1.2970479983065992 13.228347801563373 1 0 0 I I #
coedge $-1 $235 $235 $-1 $337 reversed $148 $-1 #
edge $-1 $338 0 $338 6.2831853071796004 $149 $339 forward 7 unknown #
vertex $-1 $152 $340 #
ellipse-curve $-1 -46.817716978212957 3.1406511969402189 9.3539489382987586 -0.83867057594974714 0 0.54463902268945019 0.13615975567236255 0 0.20966764398743679 1 I I #
coedge $-1 $239 $239 $-1 $341 reversed $155 $-1 #
edge $-1 $342 0 $342 6.2831853071796004 $156 $343 forward 7 unknown #
vertex $-1 $159 $344 #
ellipse-curve $-1 -46.817716978212957 5.9060559948906572 9.3539489382987586 -0.83867057594974714 0 0.54463902268945019 0.13615975567236255 0 0.20966764398743679 1 I I #
face $-1 $-1 $175 $24 $-1 $345 reversed single #
loop $-1 $-1 $259 $160 #
plane-surface $-1 0 34.089647145034412 0 0 -1 0 0 0 -1 forward_v I I I I #
coedge $-1 $346 $257 $260 $347 forward $161 $-1 #
coedge $-1 $263 $163 $164 $251 reversed $101 $-1 #
coedge $-1 $257 $346 $163 $249 reversed $161 $-1 #
edge $-1 $264 -13.228347801563373 $348 13.228347801563373 $248 $349 forward 7 unknown #
coedge $-1 $165 $164 $346 $350 forward $65 $-1 #
edge $-1 $255 -49.333780938138979 $348 49.333780938138979 $247 $351 forward 7 unknown #
coedge $-1 $260 $259 $165 $253 reversed $244 $-1 #
edge $-1 $352 -49.333780938138979 $254 49.333780938138979 $252 $353 forward 7 unknown #
vertex $-1 $167 $354 #
vertex $-1 $266 $355 #
straight-curve $-1 49.333780938138979 0 -13.228347801563373 0 -1 0 I I #
coedge $-1 $246 $248 $168 $258 reversed $161 $-1 #
edge $-1 $261 -34.089647145034412 $264 34.089647145034412 $257 $356 forward 7 unknown #
coedge $-1 $252 $169 $174 $267 forward $244 $-1 #
coedge $-1 $169 $252 $246 $347 reversed $244 $-1 #
vertex $-1 $170 $357 #
straight-curve $-1 0 34.089647145034412 13.228347801563373 -1 0 0 I I #
coedge $-1 $171 $247 $173 $266 reversed $101 $-1 #
vertex $-1 $258 $358 #
straight-curve $-1 0 -34.089647145034412 13.228347801563373 1 0 0 I I #
edge $-1 $176 -13.228347801563373 $255 13.228347801563373 $173 $359 forward 7 unknown #
edge $-1 $177 -13.228347801563373 $254 13.228347801563373 $174 $360 forward 7 unknown #
point $-1 49.333780938138979 -34.089647145034412 13.228347801563373 #
point $-1 49.333780938138979 34.089647145034412 13.228347801563373 #
face $-1 $-1 $280 $25 $-1 $361 reversed single #
loop $-1 $-1 $276 $179 #
plane-surface $-1 0 0 -13.228347801563373 0 0 1 1 0 0 forward_v I I I I #
coedge $-1 $362 $363 $187 $284 forward $180 $-1 #
coedge $-1 $182 $288 $278 $364 forward $109 $-1 #
edge $-1 $282 -19.76919023597322 $192 -8.8717235821491656 $182 $365 forward 7 unknown #
coedge $-1 $366 $188 $183 $277 forward $271 $-1 #
edge $-1 $193 8.8717235821491656 $281 19.76919023597322 $276 $367 forward 7 unknown #
coedge $-1 $368 $185 $274 $364 reversed $280 $-1 #
coedge $-1 $185 $368 $366 $369 reversed $280 $-1 #
loop $-1 $-1 $185 $270 #
vertex $-1 $369 $370 #
vertex $-1 $186 $371 #
straight-curve $-1 -46.333780938138979 -34.089647145034412 0 0 0 1 I I #
edge $-1 $289 -13.228347801563373 $286 13.228347801563373 $273 $372 forward 7 unknown #
coedge $-1 $188 $366 $362 $373 forward $271 $-1 #
vertex $-1 $189 $374 #
straight-curve $-1 -23.916890469069489 -23.192180491210358 -13.228347801563373 1 0 0 I I #
coedge $-1 $274 $190 $363 $375 forward $109 $-1 #
vertex $-1 $375 $376 #
straight-curve $-1 -23.916890469069489 -23.192180491210358 13.228347801563373 -1 0 0 I I #
point $-1 -46.333780938138979 -23.192180491210358 13.228347801563373 #
point $-1 -46.333780938138979 -23.192180491210358 -13.228347801563373 #
plane-surface $-1 0 0 13.228347801563373 0 0 1 1 0 0 forward_v I I I I #
coedge $-1 $304 $303 $296 $377 forward $196 $-1 #
coedge $-1 $296 $198 $200 $300 reversed $117 $-1 #
coedge $-1 $198 $295 $294 $377 reversed $117 $-1 #
coedge $-1 $206 $201 $198 $298 forward $207 $-1 #
edge $-1 $301 5.1290743117732021 $378 10.161202231625246 $297 $379 forward 7 unknown #
coedge $-1 $200 $199 $304 $380 reversed $73 $-1 #
edge $-1 $381 -98.667561876277915 $301 -89.42817999173505 $295 $382 forward 7 unknown #
vertex $-1 $202 $383 #
straight-curve $-1 44.301653018286942 2.2616767979577226 13.228347801563366 0 -1 0 I I #
coedge $-1 $294 $203 $206 $308 reversed $196 $-1 #
coedge $-1 $203 $294 $299 $380 forward $196 $-1 #
vertex $-1 $204 $384 #
straight-curve $-1 49.333780938138979 7.7496591935242911 70.983667746408173 0 0 1 I I #
straight-curve $-1 -4.4044235333078774 7.7496591935242911 88.229131021369454 0.54463902268945019 0 -0.83867057594974714 I I #
edge $-1 $378 1.2970479983065992 $208 7.7496591935242911 $303 $385 forward 7 unknown #
point $-1 49.333780938138979 7.7496591935242911 13.228347801563373 #
point $-1 44.301653018286935 7.7496591935242911 13.228347801563373 #
edge $-1 $386 1 $386 0 $211 $-1 forward 7 unknown #
vertex $-1 $212 $387 #
ellipse-curve $-1 45.979046402263208 3.1406511969402189 8.8093099156093029 0.83867057594974714 0 0.54463902268945019 0.13615975567236255 0 -0.20966764398743679 1 I I #
point $-1 46.953876733885323 3.1406511969402189 9.1442812943113161 #
edge $-1 $388 1 $388 0 $215 $-1 forward 7 unknown #
vertex $-1 $216 $389 #
ellipse-curve $-1 45.979046402263208 5.9060559948906572 8.8093099156093029 0.83867057594974714 0 0.54463902268945019 0.13615975567236255 0 -0.20966764398743679 1 I I #
point $-1 46.953876733885323 5.9060559948906572 9.1442812943113161 #
plane-surface $-1 0 0 13.228347801563373 0 0 1 1 0 0 forward_v I I I I #
coedge $-1 $330 $329 $322 $390 forward $220 $-1 #
coedge $-1 $322 $222 $224 $326 reversed $139 $-1 #
coedge $-1 $222 $321 $320 $390 reversed $139 $-1 #
coedge $-1 $230 $225 $222 $324 forward $231 $-1 #
edge $-1 $327 -21.740027923950223 $391 -16.707900004098185 $323 $392 forward 7 unknown #
coedge $-1 $224 $223 $330 $393 reversed $87 $-1 #
edge $-1 $394 1.2808562293387176e-014 $327 9.2393818845428832 $321 $395 forward 7 unknown #
vertex $-1 $226 $396 #
straight-curve $-1 -44.301653018286935 2.2616767979577226 13.228347801563373 0 1 0 I I #
coedge $-1 $320 $227 $230 $334 reversed $220 $-1 #
coedge $-1 $227 $320 $325 $393 forward $220 $-1 #
vertex $-1 $228 $397 #
straight-curve $-1 -49.333780938138979 1.2970479983065992 29.608877273240509 0 0 1 I I #
straight-curve $-1 -49.333780938138986 1.2970479983065992 5.4795500750341333 -0.54463902268945019 0 -0.83867057594974714 I I #
edge $-1 $391 -7.7496591935242911 $232 -1.2970479983065992 $329 $398 forward 7 unknown #
point $-1 -49.333780938138979 1.2970479983065992 13.228347801563373 #
point $-1 -44.301653018286942 1.2970479983065992 13.228347801563373 #
edge $-1 $399 1 $399 0 $235 $-1 forward 7 unknown #
vertex $-1 $236 $400 #
ellipse-curve $-1 -45.979046402263201 3.1406511969402189 8.8093099156093029 -0.83867057594974714 0 0.54463902268945019 0.13615975567236255 0 0.20966764398743679 1 I I #
point $-1 -46.68155722254059 3.1406511969402189 9.5636165822861905 #
edge $-1 $401 1 $401 0 $239 $-1 forward 7 unknown #
vertex $-1 $240 $402 #
ellipse-curve $-1 -45.979046402263201 5.9060559948906572 8.8093099156093029 -0.83867057594974714 0 0.54463902268945019 0.13615975567236255 0 0.20966764398743679 1 I I #
point $-1 -46.68155722254059 5.9060559948906572 9.5636165822861905 #
plane-surface $-1 49.333780938138979 0 0 -1 0 0 0 0 1 forward_v I I I I #
coedge $-1 $248 $246 $250 $350 reversed $161 $-1 #
edge $-1 $261 -13.228347801563373 $352 13.228347801563373 $260 $403 forward 7 unknown #
vertex $-1 $350 $404 #
straight-curve $-1 -49.333780938138979 -34.089647145034412 0 0 0 -1 I I #
edge $-1 $348 -34.089647145034412 $352 34.089647145034412 $346 $405 forward 7 unknown #
straight-curve $-1 0 -34.089647145034412 -13.228347801563373 -1 0 0 I I #
vertex $-1 $253 $406 #
straight-curve $-1 0 34.089647145034412 -13.228347801563373 1 0 0 I I #
point $-1 49.333780938138979 34.089647145034412 -13.228347801563373 #
point $-1 49.333780938138979 -34.089647145034412 -13.228347801563373 #
straight-curve $-1 -49.333780938138979 0 13.228347801563373 0 -1 0 I I #
point $-1 -49.333780938138979 34.089647145034412 13.228347801563373 #
point $-1 -49.333780938138979 -34.089647145034412 13.228347801563373 #
straight-curve $-1 49.333780938138979 -34.089647145034412 0 0 0 -1 I I #
straight-curve $-1 49.333780938138979 34.089647145034412 0 0 0 -1 I I #
plane-surface $-1 0 -34.089647145034412 0 0 1 0 0 0 1 forward_v I I I I #
coedge $-1 $407 $273 $285 $373 reversed $180 $-1 #
coedge $-1 $273 $407 $288 $375 reversed $180 $-1 #
edge $-1 $408 -49.333780938138979 $282 -46.333780938138979 $278 $409 forward 7 unknown #
straight-curve $-1 -46.333780938138979 -14.320456909061193 13.228347801563373 0 1 0 I I #
coedge $-1 $285 $276 $279 $369 forward $271 $-1 #
straight-curve $-1 -46.333780938138979 -14.320456909061193 -13.228347801563373 0 -1 0 I I #
coedge $-1 $279 $278 $407 $410 forward $280 $-1 #
edge $-1 $281 46.333780938138979 $411 49.333780938138979 $279 $412 forward 7 unknown #
point $-1 -46.333780938138979 -34.089647145034412 -13.228347801563373 #
point $-1 -46.333780938138979 -34.089647145034412 13.228347801563373 #
straight-curve $-1 -49.333780938138979 -23.192180491210358 0 0 0 -1 I I #
edge $-1 $411 -34.089647145034412 $286 -23.192180491210358 $362 $413 forward 7 unknown #
point $-1 -49.333780938138979 -23.192180491210358 -13.228347801563373 #
edge $-1 $289 23.192180491210358 $408 34.089647145034412 $363 $414 forward 7 unknown #
point $-1 -49.333780938138979 -23.192180491210358 13.228347801563373 #
edge $-1 $378 57.7553199448448 $381 65.504117671374033 $294 $415 forward 7 unknown #
vertex $-1 $308 $416 #
straight-curve $-1 39.172578706513733 1.2970479983065992 13.228347801563373 1 0 0 I I #
edge $-1 $381 -0.96462879965112336 $305 5.4879823955665685 $304 $417 forward 7 unknown #
vertex $-1 $380 $418 #
straight-curve $-1 -4.4044235333078774 1.2970479983065992 88.229131021369454 -0.54463902268945019 0 0.83867057594974714 I I #
point $-1 44.301653018286935 1.2970479983065992 13.228347801563373 #
point $-1 49.333780938138979 7.7496591935242911 5.4795500750341404 #
straight-curve $-1 49.333780938138979 0 13.228347801563373 0 1 0 I I #
vertex $-1 $311 $419 #
point $-1 46.115206157935575 3.1406511969402189 8.5996422716218657 #
vertex $-1 $315 $420 #
point $-1 46.115206157935575 5.9060559948906572 8.5996422716218657 #
edge $-1 $391 16.380529471677136 $394 24.129327198206365 $320 $421 forward 7 unknown #
vertex $-1 $334 $422 #
straight-curve $-1 -66.041680942237164 7.7496591935242911 13.228347801563373 -1 0 0 I I #
edge $-1 $394 -5.4879823955665685 $331 0.96462879965112336 $330 $423 forward 7 unknown #
vertex $-1 $393 $424 #
straight-curve $-1 -49.333780938138986 7.7496591935242911 5.4795500750341333 0.54463902268945019 0 0.83867057594974714 I I #
point $-1 -44.301653018286942 7.7496591935242911 13.228347801563373 #
point $-1 -49.333780938138979 1.2970479983065992 5.4795500750341439 #
straight-curve $-1 -49.333780938138979 0 13.228347801563373 0 -1 0 I I #
vertex $-1 $337 $425 #
point $-1 -45.842886646590841 3.1406511969402189 9.0189775595967401 #
vertex $-1 $341 $426 #
point $-1 -45.842886646590841 5.9060559948906572 9.0189775595967401 #
straight-curve $-1 -49.333780938138979 34.089647145034412 0 0 0 -1 I I #
point $-1 -49.333780938138979 -34.089647145034412 -13.228347801563373 #
straight-curve $-1 -49.333780938138979 0 -13.228347801563373 0 1 0 I I #
point $-1 -49.333780938138979 34.089647145034412 -13.228347801563373 #
coedge $-1 $363 $362 $368 $410 reversed $180 $-1 #
vertex $-1 $375 $427 #
straight-curve $-1 0 -34.089647145034412 13.228347801563373 1 0 0 I I #
edge $-1 $408 -13.228347801563373 $411 13.228347801563373 $407 $428 forward 7 unknown #
vertex $-1 $373 $429 #
straight-curve $-1 0 -34.089647145034412 -13.228347801563373 -1 0 0 I I #
straight-curve $-1 -49.333780938138979 0 -13.228347801563373 0 1 0 I I #
straight-curve $-1 -49.333780938138979 0 13.228347801563373 0 -1 0 I I #
straight-curve $-1 49.333780938138979 1.2970479983065992 70.983667746408173 0 0 -1 I I #
point $-1 49.333780938138979 1.2970479983065992 13.228347801563373 #
straight-curve $-1 49.333780938138979 2.2616767979577226 5.4795500750341333 0 1 0 I I #
point $-1 49.333780938138979 1.2970479983065992 5.4795500750341404 #
point $-1 45.769378758275778 3.1406511969402189 8.6731501599369398 #
point $-1 45.769378758275778 5.9060559948906572 8.6731501599369398 #
straight-curve $-1 -49.333780938138979 7.7496591935242911 29.608877273240509 0 0 -1 I I #
point $-1 -49.333780938138979 7.7496591935242911 13.228347801563373 #
straight-curve $-1 -49.333780938138979 2.2616767979577226 5.4795500750341493 0 -1 0 I I #
point $-1 -49.333780938138979 7.7496591935242911 5.4795500750341439 #
point $-1 -45.769378758275771 3.1406511969402189 8.6731501599369398 #
point $-1 -45.769378758275771 5.9060559948906572 8.6731501599369398 #
point $-1 -49.333780938138979 -34.089647145034412 13.228347801563373 #
straight-curve $-1 -49.333780938138979 -34.089647145034412 0 0 0 -1 I I #
point $-1 -49.333780938138979 -34.089647145034412 -13.228347801563373 #
End-of-ACIS-data 