500 0 4 0           
7 Unknown 11 ACIS 5.0 NT 24 Fri Mar 26 17:35:27 1999 
-1 9.9999999999999995e-007 1e-010 
body $-1 $4 $-1 $5 #
body $-1 $6 $-1 $7 #
body $-1 $8 $-1 $9 #
body $-1 $10 $-1 $11 #
lump $-1 $-1 $12 $0 #
transform $-1 1 0 0 0 1 0 0 0 1 77.084871974852746 40.787206178118367 14.924355782152343 1 rotate no_reflect no_shear #
lump $-1 $-1 $13 $1 #
transform $-1 1 0 0 0 1 0 0 0 1 77.084871974852746 40.787206178118367 14.924355782152343 1 rotate no_reflect no_shear #
lump $-1 $-1 $14 $2 #
transform $-1 1 0 0 0 1 0 0 0 1 77.084871974852746 40.787206178118367 14.924355782152343 1 rotate no_reflect no_shear #
lump $-1 $-1 $15 $3 #
transform $-1 1 0 0 0 1 0 0 0 1 77.084871974852746 40.787206178118367 14.924355782152343 1 rotate no_reflect no_shear #
shell $-1 $-1 $-1 $16 $-1 $4 #
shell $-1 $-1 $-1 $17 $-1 $6 #
shell $-1 $-1 $-1 $18 $-1 $8 #
shell $-1 $-1 $-1 $19 $-1 $10 #
face $-1 $20 $21 $12 $-1 $22 forward single #
face $-1 $23 $24 $13 $-1 $25 reversed single #
face $-1 $26 $27 $14 $-1 $28 reversed single #
face $-1 $29 $30 $15 $-1 $31 forward single #
face $-1 $32 $33 $12 $-1 $34 reversed single #
loop $-1 $-1 $35 $16 #
plane-surface $-1 0 0 14.924355782152343 0 0 1 1 0 0 forward_v I I I I #
face $-1 $36 $37 $13 $-1 $38 reversed single #
loop $-1 $-1 $39 $17 #
plane-surface $-1 -62.128231219504343 -35.152279195786932 0 1 0 0 0 0 -1 forward_v I I I I #
face $-1 $40 $41 $14 $-1 $42 reversed single #
loop $-1 $-1 $43 $18 #
plane-surface $-1 -70.094026243359252 100.77371966318697 170.19345295687208 1 0 0 0 -0.74314483375859142 -0.66913059716165679 forward_v I I I I #
face $-1 $44 $45 $15 $-1 $46 forward single #
loop $-1 $47 $48 $19 #
cone-surface $-1 -54.218076094664113 33.878754726388024 7.8983953249273506 0 -0.74314483375859142 -0.66913059716165679 2.5 0 0 1 I I 0 1 2.5 forward I I I I #
face $-1 $49 $50 $12 $-1 $51 reversed single #
loop $-1 $-1 $52 $20 #
plane-surface $-1 0 0 -14.924355782152343 0 0 1 1 0 0 forward_v I I I I #
coedge $-1 $53 $54 $55 $56 forward $21 $-1 #
face $-1 $57 $58 $13 $-1 $59 reversed single #
loop $-1 $-1 $60 $23 #
plane-surface $-1 -58.193297081232643 -29.517352213455496 0 0 -1 0 0 0 -1 forward_v I I I I #
coedge $-1 $61 $62 $63 $64 forward $24 $-1 #
face $-1 $65 $66 $14 $-1 $67 reversed single #
loop $-1 $-1 $68 $26 #
plane-surface $-1 -54.218076094664113 -13.796729074921529 67.033760123545918 0 0.74314483375859142 0.66913059716165679 1 0 0 forward_v I I I I #
coedge $-1 $69 $70 $71 $72 reversed $27 $-1 #
face $-1 $-1 $73 $15 $-1 $74 forward single #
loop $-1 $75 $76 $29 #
cone-surface $-1 -54.218076094664113 29.873581235385402 4.2921210052686796 0 -0.74314483375859142 -0.66913059716165679 1.25 0 0 1 I I -0.70710678118654746 0.70710678118654746 1.25 forward I I I I #
loop $-1 $-1 $77 $19 #
coedge $-1 $48 $48 $78 $79 reversed $30 $-1 #
face $-1 $80 $81 $12 $-1 $82 reversed single #
loop $-1 $-1 $83 $32 #
plane-surface $-1 0 -40.787206178118367 0 0 1 0 0 0 1 forward_v I I I I #
coedge $-1 $84 $85 $86 $87 forward $33 $-1 #
coedge $-1 $88 $35 $89 $90 forward $21 $-1 #
coedge $-1 $35 $88 $91 $92 forward $21 $-1 #
coedge $-1 $93 $94 $35 $56 reversed $95 $-1 #
edge $-1 $96 -40.787206178118367 $97 40.787206178118367 $55 $98 forward 7 unknown #
face $-1 $99 $100 $13 $-1 $101 forward single #
loop $-1 $-1 $102 $36 #
plane-surface $-1 -54.258362942960943 -35.152279195786932 0 -1 0 0 0 0 1 forward_v I I I I #
coedge $-1 $103 $104 $105 $106 forward $37 $-1 #
coedge $-1 $107 $39 $108 $109 reversed $24 $-1 #
coedge $-1 $39 $107 $110 $111 reversed $24 $-1 #
coedge $-1 $104 $103 $39 $64 reversed $37 $-1 #
edge $-1 $112 -14.924355782152343 $113 14.924355782152343 $63 $114 forward 7 unknown #
face $-1 $115 $116 $14 $-1 $117 reversed single #
loop $-1 $-1 $118 $40 #
plane-surface $-1 -38.342125945968974 100.77371966318697 170.19345295687208 -1 0 0 0 0.74314483375859142 0.66913059716165679 forward_v I I I I #
coedge $-1 $119 $120 $121 $122 reversed $41 $-1 #
coedge $-1 $70 $43 $123 $124 reversed $27 $-1 #
coedge $-1 $43 $69 $119 $125 reversed $27 $-1 #
coedge $-1 $121 $126 $43 $72 forward $127 $-1 #
edge $-1 $128 9.5996536534751158 $129 17.264071659326987 $71 $130 forward 7 unknown #
loop $-1 $-1 $78 $44 #
plane-surface $-1 -54.218076094664113 -13.796729074921529 67.033760123545918 0 0.74314483375859142 0.66913059716165679 1 0 0 forward_v I I I I #
loop $-1 $-1 $131 $29 #
coedge $-1 $76 $76 $77 $132 reversed $45 $-1 #
coedge $-1 $77 $77 $76 $132 forward $47 $-1 #
coedge $-1 $78 $78 $48 $79 forward $73 $-1 #
edge $-1 $133 -2.1462787598112816e-016 $133 6.2831853071796004 $78 $134 forward 7 unknown #
face $-1 $135 $136 $12 $-1 $137 reversed single #
loop $-1 $-1 $138 $49 #
plane-surface $-1 -77.084871974852746 0 0 1 0 0 0 0 -1 forward_v I I I I #
coedge $-1 $139 $91 $140 $141 forward $50 $-1 #
coedge $-1 $142 $52 $139 $143 forward $33 $-1 #
coedge $-1 $52 $142 $144 $145 forward $33 $-1 #
coedge $-1 $94 $93 $52 $87 reversed $95 $-1 #
edge $-1 $146 -40.787206178118367 $147 40.787206178118367 $86 $148 forward 7 unknown #
coedge $-1 $54 $53 $149 $150 forward $21 $-1 #
coedge $-1 $151 $152 $53 $90 reversed $136 $-1 #
edge $-1 $97 -77.084871974852746 $153 77.084871974852746 $89 $154 forward 7 unknown #
coedge $-1 $83 $155 $54 $92 reversed $50 $-1 #
edge $-1 $156 -77.084871974852746 $96 77.084871974852746 $91 $157 forward 7 unknown #
coedge $-1 $86 $55 $155 $158 forward $95 $-1 #
coedge $-1 $55 $86 $151 $159 reversed $95 $-1 #
loop $-1 $-1 $93 $135 #
vertex $-1 $56 $160 #
vertex $-1 $56 $161 #
straight-curve $-1 77.084871974852746 0 14.924355782152343 0 1 0 I I #
face $-1 $162 $163 $13 $-1 $164 reversed single #
loop $-1 $-1 $165 $57 #
plane-surface $-1 0 0 14.924355782152343 0 0 1 1 0 0 forward_v I I I I #
coedge $-1 $166 $167 $168 $169 reversed $58 $-1 #
coedge $-1 $63 $60 $170 $171 reversed $37 $-1 #
coedge $-1 $60 $63 $172 $173 reversed $37 $-1 #
coedge $-1 $167 $166 $60 $106 reversed $58 $-1 #
edge $-1 $174 -14.924355782152343 $175 14.924355782152343 $105 $176 forward 7 unknown #
coedge $-1 $62 $61 $177 $178 reversed $24 $-1 #
coedge $-1 $170 $179 $61 $109 forward $163 $-1 #
edge $-1 $180 -23.211066580224902 $113 -11.94121261556203 $108 $181 forward 7 unknown #
coedge $-1 $182 $172 $62 $111 forward $100 $-1 #
edge $-1 $112 11.94121261556203 $183 23.211066580224902 $110 $184 forward 7 unknown #
vertex $-1 $111 $185 #
vertex $-1 $109 $186 #
straight-curve $-1 -62.128231219504343 -29.517352213455496 0 0 0 -1 I I #
face $-1 $-1 $127 $14 $-1 $187 forward single #
loop $-1 $-1 $188 $65 #
plane-surface $-1 0 40.787206178118367 0 0 -1 0 0 0 -1 forward_v I I I I #
coedge $-1 $189 $190 $191 $192 reversed $66 $-1 #
coedge $-1 $193 $68 $70 $125 forward $41 $-1 #
coedge $-1 $68 $193 $189 $194 forward $41 $-1 #
coedge $-1 $191 $71 $68 $122 forward $127 $-1 #
edge $-1 $129 -42.984988196027196 $195 -11.233087898636917 $121 $196 forward 7 unknown #
coedge $-1 $197 $198 $69 $124 forward $116 $-1 #
edge $-1 $199 -78.684569464320418 $128 -70.172370696283693 $123 $200 forward 7 unknown #
edge $-1 $129 70.12011922069172 $199 81.574412356236678 $70 $201 forward 7 unknown #
coedge $-1 $71 $191 $197 $202 forward $127 $-1 #
loop $-1 $-1 $191 $115 #
vertex $-1 $124 $203 #
vertex $-1 $72 $204 #
straight-curve $-1 -70.094026243359252 50.386859831593483 14.924355782152347 0 -1 0 I I #
coedge $-1 $131 $131 $-1 $205 reversed $75 $-1 #
edge $-1 $206 0 $206 6.2831853071796004 $76 $207 forward 7 unknown #
vertex $-1 $79 $208 #
ellipse-curve $-1 -54.218076094664113 36.954997175192432 10.668256398133977 0 0.74314483375859142 0.66913059716165679 2.5 0 0 1 I I #
face $-1 $-1 $95 $12 $-1 $209 reversed single #
loop $-1 $-1 $151 $80 #
plane-surface $-1 0 40.787206178118367 0 0 -1 0 0 0 -1 forward_v I I I I #
coedge $-1 $210 $149 $152 $211 forward $81 $-1 #
coedge $-1 $155 $83 $84 $143 reversed $50 $-1 #
coedge $-1 $149 $210 $83 $141 reversed $81 $-1 #
edge $-1 $156 -14.924355782152343 $212 14.924355782152343 $140 $213 forward 7 unknown #
coedge $-1 $85 $84 $210 $214 forward $33 $-1 #
edge $-1 $147 -77.084871974852746 $212 77.084871974852746 $139 $215 forward 7 unknown #
coedge $-1 $152 $151 $85 $145 reversed $136 $-1 #
edge $-1 $216 -77.084871974852746 $146 77.084871974852746 $144 $217 forward 7 unknown #
vertex $-1 $87 $218 #
vertex $-1 $158 $219 #
straight-curve $-1 77.084871974852746 0 -14.924355782152343 0 -1 0 I I #
coedge $-1 $138 $140 $88 $150 reversed $81 $-1 #
edge $-1 $153 -40.787206178118367 $156 40.787206178118367 $149 $220 forward 7 unknown #
coedge $-1 $144 $89 $94 $159 forward $136 $-1 #
coedge $-1 $89 $144 $138 $211 reversed $136 $-1 #
vertex $-1 $90 $221 #
straight-curve $-1 0 40.787206178118367 14.924355782152343 -1 0 0 I I #
coedge $-1 $91 $139 $93 $158 reversed $50 $-1 #
vertex $-1 $150 $222 #
straight-curve $-1 0 -40.787206178118367 14.924355782152343 1 0 0 I I #
edge $-1 $96 -14.924355782152343 $147 14.924355782152343 $93 $223 forward 7 unknown #
edge $-1 $97 -14.924355782152343 $146 14.924355782152343 $94 $224 forward 7 unknown #
point $-1 77.084871974852746 -40.787206178118367 14.924355782152343 #
point $-1 77.084871974852746 40.787206178118367 14.924355782152343 #
face $-1 $-1 $225 $13 $-1 $226 reversed single #
loop $-1 $-1 $227 $99 #
plane-surface $-1 0 0 -14.924355782152343 0 0 1 1 0 0 forward_v I I I I #
coedge $-1 $172 $182 $167 $228 forward $100 $-1 #
coedge $-1 $105 $102 $227 $229 reversed $58 $-1 #
coedge $-1 $102 $105 $165 $228 reversed $58 $-1 #
coedge $-1 $230 $231 $102 $169 forward $225 $-1 #
edge $-1 $232 -14.924355782152343 $233 14.924355782152343 $168 $234 forward 7 unknown #
coedge $-1 $227 $108 $103 $171 forward $163 $-1 #
edge $-1 $113 -33.031582678888022 $175 -25.161714402344622 $170 $235 forward 7 unknown #
coedge $-1 $110 $165 $104 $173 forward $100 $-1 #
edge $-1 $174 25.161714402344622 $112 33.031582678888022 $172 $236 forward 7 unknown #
vertex $-1 $173 $237 #
vertex $-1 $171 $238 #
straight-curve $-1 -54.258362942960943 -29.517352213455496 0 0 0 -1 I I #
coedge $-1 $231 $230 $107 $178 forward $225 $-1 #
edge $-1 $183 -14.924355782152343 $180 14.924355782152343 $177 $239 forward 7 unknown #
coedge $-1 $108 $227 $231 $240 forward $163 $-1 #
vertex $-1 $109 $241 #
straight-curve $-1 -62.128231219504343 -17.576139597893466 -14.924355782152343 0 1 0 I I #
coedge $-1 $165 $110 $230 $242 forward $100 $-1 #
vertex $-1 $242 $243 #
straight-curve $-1 -62.128231219504343 -17.576139597893466 14.924355782152343 0 -1 0 I I #
point $-1 -62.128231219504343 -29.517352213455496 14.924355782152343 #
point $-1 -62.128231219504343 -29.517352213455496 -14.924355782152343 #
plane-surface $-1 0 0 14.924355782152343 0 0 1 1 0 0 forward_v I I I I #
coedge $-1 $198 $197 $190 $244 forward $116 $-1 #
coedge $-1 $190 $118 $120 $194 reversed $66 $-1 #
coedge $-1 $118 $189 $188 $244 reversed $66 $-1 #
coedge $-1 $126 $121 $118 $192 forward $127 $-1 #
edge $-1 $195 -17.264071659326987 $245 -9.5996536534751158 $191 $246 forward 7 unknown #
coedge $-1 $120 $119 $198 $247 reversed $41 $-1 #
edge $-1 $248 -81.574412356236678 $195 -70.12011922069172 $189 $249 forward 7 unknown #
vertex $-1 $122 $250 #
straight-curve $-1 -27.109038047332056 33.122788172266496 14.924355782152347 1 0 0 I I #
coedge $-1 $188 $123 $126 $202 reversed $116 $-1 #
coedge $-1 $123 $188 $193 $247 forward $116 $-1 #
vertex $-1 $124 $251 #
straight-curve $-1 -70.094026243359252 40.787206178118367 85.09672647843604 0 0 1 I I #
straight-curve $-1 -70.094026243359252 -13.796729074921529 67.033760123545918 0 0.66913059716165679 -0.74314483375859142 I I #
edge $-1 $245 38.342125945968974 $128 70.094026243359252 $197 $252 forward 7 unknown #
point $-1 -70.094026243359252 40.787206178118367 14.924355782152343 #
point $-1 -70.094026243359252 33.122788172266496 14.924355782152347 #
edge $-1 $253 1 $253 0 $131 $-1 forward 7 unknown #
vertex $-1 $132 $254 #
ellipse-curve $-1 -54.218076094664113 30.802512277583642 5.1285342517207511 0 0.74314483375859142 0.66913059716165679 2.5 0 0 1 I I #
point $-1 -51.718076094664113 36.954997175192403 10.668256398133952 #
plane-surface $-1 77.084871974852746 0 0 -1 0 0 0 0 1 forward_v I I I I #
coedge $-1 $140 $138 $142 $214 reversed $81 $-1 #
edge $-1 $153 -14.924355782152343 $216 14.924355782152343 $152 $255 forward 7 unknown #
vertex $-1 $214 $256 #
straight-curve $-1 -77.084871974852746 -40.787206178118367 0 0 0 -1 I I #
edge $-1 $212 -40.787206178118367 $216 40.787206178118367 $210 $257 forward 7 unknown #
straight-curve $-1 0 -40.787206178118367 -14.924355782152343 -1 0 0 I I #
vertex $-1 $145 $258 #
straight-curve $-1 0 40.787206178118367 -14.924355782152343 1 0 0 I I #
point $-1 77.084871974852746 40.787206178118367 -14.924355782152343 #
point $-1 77.084871974852746 -40.787206178118367 -14.924355782152343 #
straight-curve $-1 -77.084871974852746 0 14.924355782152343 0 -1 0 I I #
point $-1 -77.084871974852746 40.787206178118367 14.924355782152343 #
point $-1 -77.084871974852746 -40.787206178118367 14.924355782152343 #
straight-curve $-1 77.084871974852746 -40.787206178118367 0 0 0 -1 I I #
straight-curve $-1 77.084871974852746 40.787206178118367 0 0 0 -1 I I #
loop $-1 $-1 $168 $162 #
plane-surface $-1 0 -40.787206178118367 0 0 1 0 0 0 1 forward_v I I I I #
coedge $-1 $179 $170 $166 $229 forward $163 $-1 #
edge $-1 $233 -23.211066580224902 $174 -11.94121261556203 $165 $259 forward 7 unknown #
edge $-1 $175 11.94121261556203 $232 23.211066580224902 $227 $260 forward 7 unknown #
coedge $-1 $177 $168 $182 $242 reversed $225 $-1 #
coedge $-1 $168 $177 $179 $240 reversed $225 $-1 #
vertex $-1 $240 $261 #
vertex $-1 $169 $262 #
straight-curve $-1 -54.258362942960943 -40.787206178118367 0 0 0 1 I I #
straight-curve $-1 -29.096648540616322 -29.517352213455496 -14.924355782152343 1 0 0 I I #
straight-curve $-1 -29.096648540616322 -29.517352213455496 14.924355782152343 -1 0 0 I I #
point $-1 -54.258362942960943 -29.517352213455496 14.924355782152343 #
point $-1 -54.258362942960943 -29.517352213455496 -14.924355782152343 #
straight-curve $-1 -62.128231219504343 -40.787206178118367 0 0 0 -1 I I #
edge $-1 $232 54.258362942960943 $180 62.128231219504343 $231 $263 forward 7 unknown #
point $-1 -62.128231219504343 -40.787206178118367 -14.924355782152343 #
edge $-1 $183 -62.128231219504343 $233 -54.258362942960943 $230 $264 forward 7 unknown #
point $-1 -62.128231219504343 -40.787206178118367 14.924355782152343 #
edge $-1 $245 70.172370696283693 $248 78.684569464320418 $188 $265 forward 7 unknown #
vertex $-1 $202 $266 #
straight-curve $-1 -38.342125945968974 50.386859831593483 14.924355782152347 0 1 0 I I #
edge $-1 $248 11.233087898636917 $199 42.984988196027196 $198 $267 forward 7 unknown #
vertex $-1 $247 $268 #
straight-curve $-1 -38.342125945968974 -13.796729074921529 67.033760123545918 0 -0.66913059716165679 0.74314483375859142 I I #
point $-1 -38.342125945968974 33.122788172266496 14.924355782152347 #
point $-1 -70.094026243359252 40.78720617811836 6.4121570141156141 #
straight-curve $-1 0 40.787206178118367 14.924355782152343 -1 0 0 I I #
vertex $-1 $205 $269 #
point $-1 -51.718076094664113 30.802512277583642 5.1285342517207511 #
straight-curve $-1 -77.084871974852746 40.787206178118367 0 0 0 -1 I I #
point $-1 -77.084871974852746 -40.787206178118367 -14.924355782152343 #
straight-curve $-1 -77.084871974852746 0 -14.924355782152343 0 1 0 I I #
point $-1 -77.084871974852746 40.787206178118367 -14.924355782152343 #
straight-curve $-1 -54.258362942960943 -17.576139597893466 14.924355782152343 0 1 0 I I #
straight-curve $-1 -54.258362942960943 -17.576139597893466 -14.924355782152343 0 -1 0 I I #
point $-1 -54.258362942960943 -40.787206178118367 -14.924355782152343 #
point $-1 -54.258362942960943 -40.787206178118367 14.924355782152343 #
straight-curve $-1 0 -40.787206178118367 -14.924355782152343 -1 0 0 I I #
straight-curve $-1 0 -40.787206178118367 14.924355782152343 1 0 0 I I #
straight-curve $-1 -38.342125945968974 40.787206178118367 85.09672647843604 0 0 -1 I I #
point $-1 -38.342125945968974 40.787206178118367 14.924355782152343 #
straight-curve $-1 -27.109038047332056 40.787206178118367 6.4121570141156106 -1 0 0 I I #
point $-1 -38.342125945968974 40.78720617811836 6.4121570141156141 #
point $-1 -54.218076094664113 28.944650193187162 3.4557077588166085 #
End-of-ACIS-data 