500 0 4 0           
7 Unknown 11 ACIS 5.0 NT 24 Thu Mar 25 22:49:33 1999 
-1 9.9999999999999995e-007 1e-010 
body $-1 $4 $-1 $5 #
body $-1 $6 $-1 $7 #
body $-1 $8 $-1 $9 #
body $-1 $10 $-1 $11 #
lump $-1 $-1 $12 $0 #
transform $-1 1 0 0 0 1 0 0 0 1 58.207342753379926 27.127424884391761 9.0829311164170914 1 rotate no_reflect no_shear #
lump $-1 $-1 $13 $1 #
transform $-1 1 0 0 0 1 0 0 0 1 58.207342753379926 27.127424884391761 9.0829311164170914 1 rotate no_reflect no_shear #
lump $-1 $-1 $14 $2 #
transform $-1 1 0 0 0 1 0 0 0 1 58.207342753379926 27.127424884391761 9.0829311164170914 1 rotate no_reflect no_shear #
lump $-1 $-1 $15 $3 #
transform $-1 1 0 0 0 1 0 0 0 1 58.207342753379926 27.127424884391761 9.0829311164170914 1 rotate no_reflect no_shear #
shell $-1 $-1 $-1 $16 $-1 $4 #
shell $-1 $-1 $-1 $17 $-1 $6 #
shell $-1 $-1 $-1 $18 $-1 $8 #
shell $-1 $-1 $-1 $19 $-1 $10 #
face $-1 $20 $21 $12 $-1 $22 forward single #
face $-1 $23 $24 $13 $-1 $25 reversed single #
face $-1 $26 $27 $14 $-1 $28 forward single #
face $-1 $29 $30 $15 $-1 $31 reversed single #
face $-1 $32 $33 $12 $-1 $34 reversed single #
loop $-1 $-1 $35 $16 #
plane-surface $-1 0 0 9.0829311164170914 0 0 1 1 0 0 forward_v I I I I #
face $-1 $36 $37 $13 $-1 $38 forward single #
loop $-1 $-1 $39 $17 #
plane-surface $-1 0 -22.833488395033797 -5.8886732219830353 0 0 1 1 0 0 forward_v I I I I #
face $-1 $40 $41 $14 $-1 $42 forward single #
loop $-1 $-1 $43 $18 #
plane-surface $-1 23.977755688411385 23.503803839301064 161.26050870945829 0 -1 0 -0.54463904215088732 0 -0.83867056331134215 forward_v I I I I #
face $-1 $44 $45 $15 $-1 $46 reversed single #
loop $-1 $47 $48 $19 #
cone-surface $-1 50.16864568059227 17.975606233820468 2.7787514903028958 -0.54463904215088732 0 -0.83867056331134215 1.6773411266226843 0 -1.0892780843017746 1 I I 0 1 2 forward I I I I #
face $-1 $49 $50 $12 $-1 $51 reversed single #
loop $-1 $-1 $52 $20 #
plane-surface $-1 0 0 -9.0829311164170914 0 0 1 1 0 0 forward_v I I I I #
coedge $-1 $53 $54 $55 $56 forward $21 $-1 #
face $-1 $57 $58 $13 $-1 $59 reversed single #
loop $-1 $-1 $60 $23 #
plane-surface $-1 0 -18.539551905675832 -7.4858021692000634 0 -1 0 0 0 -1 forward_v I I I I #
coedge $-1 $61 $62 $63 $64 reversed $24 $-1 #
face $-1 $65 $66 $14 $-1 $67 forward single #
loop $-1 $-1 $68 $26 #
plane-surface $-1 -39.426227118287088 17.975606233820468 63.626938837791272 0.54463904215088732 0 0.83867056331134215 0.83867056331134215 0 -0.54463904215088732 forward_v I I I I #
coedge $-1 $69 $70 $71 $72 reversed $27 $-1 #
face $-1 $73 $74 $15 $-1 $75 forward single #
loop $-1 $76 $77 $29 #
cone-surface $-1 48.406892045665153 17.975606233820468 0.065888843539513076 -0.54463904215088732 0 -0.83867056331134215 0.83867056331134215 0 -0.54463904215088732 1 I I -0.70710678118654746 0.70710678118654746 1 forward I I I I #
loop $-1 $-1 $78 $19 #
coedge $-1 $48 $48 $79 $80 reversed $30 $-1 #
face $-1 $81 $82 $12 $-1 $83 reversed single #
loop $-1 $-1 $84 $32 #
plane-surface $-1 0 -27.127424884391761 0 0 1 0 0 0 1 forward_v I I I I #
coedge $-1 $85 $86 $87 $88 forward $33 $-1 #
coedge $-1 $89 $35 $90 $91 forward $21 $-1 #
coedge $-1 $35 $89 $92 $93 forward $21 $-1 #
coedge $-1 $94 $95 $35 $56 reversed $96 $-1 #
edge $-1 $97 -27.127424884391761 $98 27.127424884391761 $55 $99 forward 7 unknown #
face $-1 $100 $101 $13 $-1 $102 reversed single #
loop $-1 $-1 $103 $36 #
plane-surface $-1 0 -27.127424884391761 0 0 1 0 0 0 1 forward_v I I I I #
coedge $-1 $104 $105 $106 $107 reversed $37 $-1 #
coedge $-1 $108 $39 $103 $109 reversed $24 $-1 #
coedge $-1 $39 $108 $104 $110 reversed $24 $-1 #
coedge $-1 $106 $111 $39 $64 forward $112 $-1 #
edge $-1 $113 -15.710680686874863 $114 -7.122807708158934 $63 $115 forward 7 unknown #
face $-1 $116 $117 $14 $-1 $118 forward single #
loop $-1 $-1 $119 $40 #
plane-surface $-1 23.977755688411385 12.447408628339872 161.26050870945829 0 1 0 0.54463904215088732 0 0.83867056331134215 forward_v I I I I #
coedge $-1 $120 $121 $122 $123 reversed $41 $-1 #
coedge $-1 $70 $43 $121 $124 forward $27 $-1 #
coedge $-1 $43 $69 $125 $126 reversed $27 $-1 #
coedge $-1 $127 $122 $43 $72 forward $117 $-1 #
edge $-1 $128 32.575299949151429 $129 46.21846490917423 $71 $130 forward 7 unknown #
face $-1 $131 $132 $15 $-1 $133 forward single #
loop $-1 $-1 $134 $44 #
plane-surface $-1 23.977755688411385 23.503803839301064 161.26050870945829 0 -1 0 -0.54463904215088732 0 -0.83867056331134215 forward_v I I I I #
loop $-1 $-1 $135 $29 #
coedge $-1 $77 $77 $78 $136 forward $45 $-1 #
coedge $-1 $78 $78 $77 $136 reversed $47 $-1 #
coedge $-1 $79 $79 $48 $80 forward $132 $-1 #
edge $-1 $137 0 $137 6.2831853071796004 $79 $138 forward 7 unknown #
face $-1 $139 $140 $12 $-1 $141 reversed single #
loop $-1 $-1 $142 $49 #
plane-surface $-1 -58.207342753379926 0 0 1 0 0 0 0 -1 forward_v I I I I #
coedge $-1 $143 $92 $144 $145 forward $50 $-1 #
coedge $-1 $146 $52 $143 $147 forward $33 $-1 #
coedge $-1 $52 $146 $148 $149 forward $33 $-1 #
coedge $-1 $95 $94 $52 $88 reversed $96 $-1 #
edge $-1 $150 -27.127424884391761 $151 27.127424884391761 $87 $152 forward 7 unknown #
coedge $-1 $54 $53 $153 $154 forward $21 $-1 #
coedge $-1 $155 $156 $53 $91 reversed $140 $-1 #
edge $-1 $98 -58.207342753379926 $157 58.207342753379926 $90 $158 forward 7 unknown #
coedge $-1 $84 $159 $54 $93 reversed $50 $-1 #
edge $-1 $160 -58.207342753379926 $97 58.207342753379926 $92 $161 forward 7 unknown #
coedge $-1 $87 $55 $159 $162 forward $96 $-1 #
coedge $-1 $55 $87 $155 $163 reversed $96 $-1 #
loop $-1 $-1 $94 $139 #
vertex $-1 $56 $164 #
vertex $-1 $56 $165 #
straight-curve $-1 58.207342753379926 0 9.0829311164170914 0 1 0 I I #
face $-1 $166 $167 $13 $-1 $168 forward single #
loop $-1 $-1 $169 $57 #
plane-surface $-1 0 0 -9.0829311164170914 0 0 1 1 0 0 forward_v I I I I #
coedge $-1 $170 $171 $61 $109 forward $58 $-1 #
coedge $-1 $172 $60 $62 $110 forward $37 $-1 #
coedge $-1 $60 $172 $169 $173 reversed $37 $-1 #
coedge $-1 $174 $63 $60 $107 forward $112 $-1 #
edge $-1 $114 2.1457721373830037 $175 5.3400300318170597 $106 $176 forward 7 unknown #
coedge $-1 $62 $61 $177 $178 reversed $24 $-1 #
edge $-1 $179 -58.207342753379926 $113 58.207342753379926 $103 $180 forward 7 unknown #
edge $-1 $114 -58.207342753379926 $181 58.207342753379926 $104 $182 forward 7 unknown #
coedge $-1 $63 $183 $170 $184 forward $112 $-1 #
loop $-1 $-1 $106 $185 #
vertex $-1 $109 $186 #
vertex $-1 $64 $187 #
straight-curve $-1 58.207342753379926 -11.416744197516898 -5.8886732219830353 0 1 0 I I #
face $-1 $188 $189 $14 $-1 $190 reversed single #
loop $-1 $-1 $191 $65 #
plane-surface $-1 0 0 9.0829311164170914 0 0 1 1 0 0 forward_v I I I I #
coedge $-1 $192 $193 $191 $194 reversed $66 $-1 #
coedge $-1 $195 $68 $193 $196 reversed $41 $-1 #
coedge $-1 $68 $195 $69 $124 reversed $41 $-1 #
coedge $-1 $71 $191 $68 $123 forward $117 $-1 #
edge $-1 $197 3.459605511429638 $128 14.51600072239083 $122 $198 forward 7 unknown #
edge $-1 $128 100.1470763204362 $199 116.41468550675984 $69 $200 forward 7 unknown #
coedge $-1 $201 $202 $70 $126 forward $203 $-1 #
edge $-1 $129 71.54732323831206 $199 80.407298323636354 $125 $204 forward 7 unknown #
coedge $-1 $205 $71 $202 $206 forward $117 $-1 #
vertex $-1 $123 $207 #
vertex $-1 $206 $208 #
straight-curve $-1 11.988877844205692 23.503803839301064 9.0829311164170861 1 0 0 I I #
face $-1 $209 $210 $15 $-1 $211 forward single #
loop $-1 $212 $79 $73 #
plane-surface $-1 -39.426227118287088 17.975606233820468 63.626938837791272 0.54463904215088732 0 0.83867056331134215 0.83867056331134215 0 -0.54463904215088732 forward_v I I I I #
coedge $-1 $213 $214 $215 $216 reversed $74 $-1 #
coedge $-1 $135 $135 $-1 $217 forward $76 $-1 #
edge $-1 $218 0 $218 6.2831853071796004 $77 $219 forward 7 unknown #
vertex $-1 $80 $220 #
ellipse-curve $-1 51.385760273368511 17.975606233820468 4.6529435737549552 -0.54463904215088732 0 -0.83867056331134215 1.6773411266226843 0 -1.0892780843017746 1 I I #
face $-1 $-1 $96 $12 $-1 $221 reversed single #
loop $-1 $-1 $155 $81 #
plane-surface $-1 0 27.127424884391761 0 0 -1 0 0 0 -1 forward_v I I I I #
coedge $-1 $222 $153 $156 $223 forward $82 $-1 #
coedge $-1 $159 $84 $85 $147 reversed $50 $-1 #
coedge $-1 $153 $222 $84 $145 reversed $82 $-1 #
edge $-1 $160 -9.0829311164170914 $224 9.0829311164170914 $144 $225 forward 7 unknown #
coedge $-1 $86 $85 $222 $226 forward $33 $-1 #
edge $-1 $151 -58.207342753379926 $224 58.207342753379926 $143 $227 forward 7 unknown #
coedge $-1 $156 $155 $86 $149 reversed $140 $-1 #
edge $-1 $228 -58.207342753379926 $150 58.207342753379926 $148 $229 forward 7 unknown #
vertex $-1 $88 $230 #
vertex $-1 $162 $231 #
straight-curve $-1 58.207342753379926 0 -9.0829311164170914 0 -1 0 I I #
coedge $-1 $142 $144 $89 $154 reversed $82 $-1 #
edge $-1 $157 -27.127424884391761 $160 27.127424884391761 $153 $232 forward 7 unknown #
coedge $-1 $148 $90 $95 $163 forward $140 $-1 #
coedge $-1 $90 $148 $142 $223 reversed $140 $-1 #
vertex $-1 $91 $233 #
straight-curve $-1 0 27.127424884391761 9.0829311164170914 -1 0 0 I I #
coedge $-1 $92 $143 $94 $162 reversed $50 $-1 #
vertex $-1 $154 $234 #
straight-curve $-1 0 -27.127424884391761 9.0829311164170914 1 0 0 I I #
edge $-1 $97 -9.0829311164170914 $151 9.0829311164170914 $94 $235 forward 7 unknown #
edge $-1 $98 -9.0829311164170914 $150 9.0829311164170914 $95 $236 forward 7 unknown #
point $-1 58.207342753379926 -27.127424884391761 9.0829311164170914 #
point $-1 58.207342753379926 27.127424884391761 9.0829311164170914 #
face $-1 $237 $238 $13 $-1 $239 reversed single #
loop $-1 $-1 $240 $100 #
plane-surface $-1 0 0 9.0829311164170914 0 0 1 1 0 0 forward_v I I I I #
coedge $-1 $241 $242 $105 $173 forward $101 $-1 #
coedge $-1 $243 $103 $111 $184 reversed $58 $-1 #
coedge $-1 $103 $243 $244 $245 forward $58 $-1 #
coedge $-1 $105 $104 $246 $247 reversed $37 $-1 #
edge $-1 $175 -58.207342753379926 $248 58.207342753379926 $169 $249 forward 7 unknown #
coedge $-1 $250 $106 $242 $251 reversed $112 $-1 #
vertex $-1 $173 $252 #
straight-curve $-1 58.207342753379926 -18.539551905675832 -3.7429010846000317 0 0 -1 I I #
coedge $-1 $244 $246 $108 $178 forward $238 $-1 #
edge $-1 $181 7.122807708158934 $179 15.710680686874863 $177 $253 forward 7 unknown #
vertex $-1 $109 $254 #
straight-curve $-1 0 -27.127424884391761 -5.8886732219830353 1 0 0 I I #
vertex $-1 $178 $255 #
straight-curve $-1 0 -18.539551905675832 -5.8886732219830353 -1 0 0 I I #
coedge $-1 $111 $250 $240 $256 reversed $112 $-1 #
edge $-1 $257 -9.0829311164170914 $113 5.8886732219830353 $111 $258 forward 7 unknown #
face $-1 $-1 $112 $13 $-1 $259 reversed single #
point $-1 58.207342753379926 -27.127424884391761 -5.8886732219830353 #
point $-1 58.207342753379926 -18.539551905675832 -5.8886732219830353 #
face $-1 $260 $261 $14 $-1 $262 forward single #
loop $-1 $-1 $263 $116 #
plane-surface $-1 0 -22.833488395033797 -5.8886732219830353 0 0 1 1 0 0 forward_v I I I I #
coedge $-1 $122 $264 $119 $194 forward $117 $-1 #
coedge $-1 $193 $119 $265 $266 reversed $66 $-1 #
coedge $-1 $119 $192 $120 $196 forward $66 $-1 #
edge $-1 $267 -46.21846490917423 $197 -32.575299949151429 $191 $268 forward 7 unknown #
coedge $-1 $121 $120 $201 $269 reversed $41 $-1 #
edge $-1 $270 -116.41468550675984 $197 -100.1470763204362 $193 $271 forward 7 unknown #
vertex $-1 $123 $272 #
straight-curve $-1 44.564177793357118 8.9878031169102339 9.0829311164170932 0 1 0 I I #
vertex $-1 $269 $273 #
straight-curve $-1 -39.426227118287088 23.503803839301064 63.626938837791272 0.83867056331134215 0 -0.54463904215088732 I I #
coedge $-1 $265 $125 $195 $269 forward $203 $-1 #
coedge $-1 $125 $274 $127 $206 reversed $203 $-1 #
loop $-1 $-1 $265 $275 #
straight-curve $-1 58.207342753379926 23.503803839301064 80.630254354729146 0 0 -1 I I #
coedge $-1 $276 $127 $277 $278 forward $117 $-1 #
edge $-1 $129 23.503803839301064 $279 27.127424884391761 $202 $280 forward 7 unknown #
point $-1 44.564177793357118 23.503803839301064 9.0829311164170932 #
point $-1 58.207342753379926 23.503803839301064 9.0829311164170914 #
face $-1 $281 $282 $15 $-1 $283 forward single #
loop $-1 $-1 $284 $131 #
plane-surface $-1 23.977755688411385 12.447408628339872 161.26050870945829 0 1 0 0.54463904215088732 0 0.83867056331134215 forward_v I I I I #
loop $-1 $-1 $285 $73 #
coedge $-1 $214 $134 $286 $287 forward $74 $-1 #
coedge $-1 $134 $213 $288 $289 reversed $74 $-1 #
coedge $-1 $290 $291 $134 $216 forward $282 $-1 #
edge $-1 $292 32.575299949151429 $293 46.21846490917423 $215 $294 forward 7 unknown #
edge $-1 $295 1 $295 0 $135 $-1 forward 7 unknown #
vertex $-1 $136 $296 #
ellipse-curve $-1 48.951531087816036 17.975606233820468 0.90455940685085523 0.54463904215088732 0 0.83867056331134215 1.6773411266226843 0 -1.0892780843017746 1 I I #
point $-1 53.063101399991183 17.975606233820468 3.5636654894531619 #
plane-surface $-1 58.207342753379926 0 0 -1 0 0 0 0 1 forward_v I I I I #
coedge $-1 $144 $142 $146 $226 reversed $82 $-1 #
edge $-1 $157 -9.0829311164170914 $228 9.0829311164170914 $156 $297 forward 7 unknown #
vertex $-1 $226 $298 #
straight-curve $-1 -58.207342753379926 -27.127424884391761 0 0 0 -1 I I #
edge $-1 $224 -27.127424884391761 $228 27.127424884391761 $222 $299 forward 7 unknown #
straight-curve $-1 0 -27.127424884391761 -9.0829311164170914 -1 0 0 I I #
vertex $-1 $149 $300 #
straight-curve $-1 0 27.127424884391761 -9.0829311164170914 1 0 0 I I #
point $-1 58.207342753379926 27.127424884391761 -9.0829311164170914 #
point $-1 58.207342753379926 -27.127424884391761 -9.0829311164170914 #
straight-curve $-1 -58.207342753379926 0 9.0829311164170914 0 -1 0 I I #
point $-1 -58.207342753379926 27.127424884391761 9.0829311164170914 #
point $-1 -58.207342753379926 -27.127424884391761 9.0829311164170914 #
straight-curve $-1 58.207342753379926 -27.127424884391761 0 0 0 -1 I I #
straight-curve $-1 58.207342753379926 27.127424884391761 0 0 0 -1 I I #
face $-1 $185 $301 $13 $-1 $302 reversed single #
loop $-1 $-1 $177 $166 #
plane-surface $-1 -58.207342753379926 0 0 1 0 0 0 0 -1 forward_v I I I I #
coedge $-1 $303 $304 $183 $256 forward $167 $-1 #
coedge $-1 $305 $169 $306 $307 forward $101 $-1 #
coedge $-1 $169 $305 $174 $251 forward $101 $-1 #
coedge $-1 $171 $170 $304 $308 reversed $58 $-1 #
coedge $-1 $309 $177 $171 $245 reversed $238 $-1 #
edge $-1 $310 -9.0829311164170914 $179 5.8886732219830353 $244 $311 forward 7 unknown #
coedge $-1 $177 $306 $172 $247 forward $238 $-1 #
edge $-1 $248 -5.3400300318170597 $181 -2.1457721373830037 $246 $312 forward 7 unknown #
vertex $-1 $307 $313 #
straight-curve $-1 0 -18.539551905675832 -9.0829311164170914 -1 0 0 I I #
coedge $-1 $183 $174 $314 $315 reversed $112 $-1 #
edge $-1 $316 -27.127424884391761 $175 18.539551905675832 $174 $317 forward 7 unknown #
point $-1 58.207342753379926 -18.539551905675832 -9.0829311164170914 #
straight-curve $-1 -58.207342753379926 -11.416744197516898 -5.8886732219830353 0 -1 0 I I #
point $-1 -58.207342753379926 -27.127424884391761 -5.8886732219830353 #
point $-1 -58.207342753379926 -18.539551905675832 -5.8886732219830353 #
edge $-1 $257 -27.127424884391761 $318 27.127424884391761 $183 $319 forward 7 unknown #
vertex $-1 $256 $320 #
straight-curve $-1 58.207342753379926 -27.127424884391761 0 0 0 -1 I I #
plane-surface $-1 58.207342753379926 0 0 -1 0 0 0 0 1 forward_v I I I I #
face $-1 $321 $322 $14 $-1 $323 reversed single #
loop $-1 $-1 $324 $188 #
plane-surface $-1 0 -18.539551905675832 -7.4858021692000634 0 -1 0 0 0 -1 forward_v I I I I #
coedge $-1 $325 $326 $327 $328 reversed $189 $-1 #
coedge $-1 $191 $329 $330 $331 forward $117 $-1 #
coedge $-1 $330 $201 $192 $266 forward $203 $-1 #
edge $-1 $270 -80.407298323636354 $267 -71.54732323831206 $265 $332 forward 7 unknown #
vertex $-1 $266 $333 #
straight-curve $-1 11.988877844205692 12.447408628339872 9.0829311164170861 -1 0 0 I I #
edge $-1 $199 -14.51600072239083 $270 -3.459605511429638 $201 $334 forward 7 unknown #
vertex $-1 $269 $335 #
straight-curve $-1 -39.426227118287088 12.447408628339872 63.626938837791272 -0.83867056331134215 0 0.54463904215088732 I I #
point $-1 44.564177793357118 12.447408628339872 9.0829311164170932 #
point $-1 58.207342753379933 23.503803839301064 0.22295603109279938 #
coedge $-1 $202 $336 $337 $338 reversed $203 $-1 #
face $-1 $-1 $203 $14 $-1 $339 reversed single #
coedge $-1 $329 $205 $340 $341 forward $117 $-1 #
coedge $-1 $337 $342 $205 $278 reversed $343 $-1 #
edge $-1 $279 -58.207342753379926 $344 58.207342753379926 $277 $345 forward 7 unknown #
vertex $-1 $206 $346 #
straight-curve $-1 58.207342753379926 0 9.0829311164170914 0 1 0 I I #
face $-1 $347 $348 $15 $-1 $349 reversed single #
loop $-1 $-1 $350 $209 #
plane-surface $-1 0 0 9.0829311164170914 0 0 1 1 0 0 forward_v I I I I #
coedge $-1 $351 $352 $350 $353 reversed $210 $-1 #
coedge $-1 $354 $286 $291 $355 reversed $212 $-1 #
coedge $-1 $285 $356 $213 $287 reversed $212 $-1 #
edge $-1 $292 100.1470763204362 $357 116.41468550675984 $213 $358 forward 7 unknown #
coedge $-1 $359 $360 $214 $289 forward $361 $-1 #
edge $-1 $293 71.54732323831206 $357 80.407298323636354 $288 $362 forward 7 unknown #
coedge $-1 $363 $215 $360 $364 forward $282 $-1 #
coedge $-1 $215 $350 $285 $355 forward $282 $-1 #
vertex $-1 $355 $365 #
vertex $-1 $364 $366 #
straight-curve $-1 11.988877844205692 23.503803839301064 9.0829311164170861 1 0 0 I I #
vertex $-1 $217 $367 #
point $-1 50.628872214438722 17.975606233820468 -0.18471867745091941 #
straight-curve $-1 -58.207342753379926 27.127424884391761 0 0 0 -1 I I #
point $-1 -58.207342753379926 -27.127424884391761 -9.0829311164170914 #
straight-curve $-1 -58.207342753379926 0 -9.0829311164170914 0 1 0 I I #
point $-1 -58.207342753379926 27.127424884391761 -9.0829311164170914 #
loop $-1 $-1 $314 $237 #
plane-surface $-1 0 27.127424884391761 0 0 -1 0 0 0 -1 forward_v I I I I #
coedge $-1 $368 $240 $369 $370 forward $167 $-1 #
coedge $-1 $240 $368 $243 $308 forward $167 $-1 #
coedge $-1 $242 $241 $371 $372 forward $101 $-1 #
coedge $-1 $246 $373 $241 $307 reversed $238 $-1 #
edge $-1 $248 -18.539551905675832 $374 27.127424884391761 $306 $375 forward 7 unknown #
edge $-1 $310 -58.207342753379926 $257 58.207342753379926 $243 $376 forward 7 unknown #
coedge $-1 $373 $244 $368 $377 reversed $238 $-1 #
vertex $-1 $377 $378 #
straight-curve $-1 -58.207342753379926 -27.127424884391761 0 0 0 -1 I I #
straight-curve $-1 -58.207342753379926 -18.539551905675832 -3.7429010846000317 0 0 1 I I #
point $-1 -58.207342753379926 -18.539551905675832 -9.0829311164170914 #
coedge $-1 $371 $369 $250 $315 forward $301 $-1 #
edge $-1 $318 -9.0829311164170914 $316 9.0829311164170914 $250 $379 forward 7 unknown #
vertex $-1 $251 $380 #
straight-curve $-1 58.207342753379926 0 -9.0829311164170914 0 -1 0 I I #
vertex $-1 $256 $381 #
straight-curve $-1 58.207342753379926 0 9.0829311164170914 0 1 0 I I #
point $-1 58.207342753379926 -27.127424884391761 9.0829311164170914 #
face $-1 $382 $383 $14 $-1 $384 reversed single #
loop $-1 $-1 $385 $260 #
plane-surface $-1 0 -27.127424884391761 0 0 1 0 0 0 1 forward_v I I I I #
coedge $-1 $386 $387 $388 $389 reversed $261 $-1 #
coedge $-1 $390 $263 $385 $391 reversed $189 $-1 #
coedge $-1 $263 $390 $386 $392 reversed $189 $-1 #
coedge $-1 $388 $393 $263 $328 forward $203 $-1 #
edge $-1 $394 -15.710680686874863 $395 -7.122807708158934 $327 $396 forward 7 unknown #
coedge $-1 $264 $276 $397 $398 forward $117 $-1 #
coedge $-1 $393 $265 $264 $331 reversed $203 $-1 #
edge $-1 $399 -27.127424884391761 $267 12.447408628339872 $330 $280 forward 7 unknown #
straight-curve $-1 58.207342753379926 12.447408628339872 80.630254354729146 0 0 1 I I #
point $-1 58.207342753379926 12.447408628339872 9.0829311164170914 #
straight-curve $-1 58.207342753379926 8.9878031169102339 0.22295603109280648 0 -1 0 I I #
point $-1 58.207342753379933 12.447408628339872 0.22295603109279938 #
coedge $-1 $274 $388 $400 $401 reversed $203 $-1 #
coedge $-1 $402 $277 $274 $338 forward $343 $-1 #
edge $-1 $279 -9.0829311164170914 $403 9.0829311164170914 $274 $404 forward 7 unknown #
plane-surface $-1 58.207342753379926 0 0 -1 0 0 0 0 1 forward_v I I I I #
coedge $-1 $405 $406 $276 $341 reversed $407 $-1 #
edge $-1 $344 -27.127424884391761 $408 27.127424884391761 $340 $409 forward 7 unknown #
coedge $-1 $277 $402 $405 $410 reversed $343 $-1 #
loop $-1 $-1 $337 $411 #
vertex $-1 $278 $412 #
straight-curve $-1 0 27.127424884391761 9.0829311164170914 -1 0 0 I I #
point $-1 58.207342753379926 27.127424884391761 9.0829311164170914 #
face $-1 $413 $414 $15 $-1 $415 forward single #
loop $-1 $-1 $416 $281 #
plane-surface $-1 0 -22.833488395033797 -5.8886732219830353 0 0 1 1 0 0 forward_v I I I I #
coedge $-1 $291 $417 $284 $353 forward $282 $-1 #
coedge $-1 $352 $284 $418 $419 reversed $210 $-1 #
coedge $-1 $284 $351 $354 $420 forward $210 $-1 #
edge $-1 $421 -46.21846490917423 $422 -32.575299949151429 $350 $423 forward 7 unknown #
coedge $-1 $356 $285 $352 $420 reversed $212 $-1 #
edge $-1 $422 3.459605511429638 $292 14.51600072239083 $291 $424 forward 7 unknown #
coedge $-1 $286 $354 $359 $425 reversed $212 $-1 #
vertex $-1 $425 $426 #
straight-curve $-1 -39.426227118287088 23.503803839301064 63.626938837791272 0.83867056331134215 0 -0.54463904215088732 I I #
coedge $-1 $418 $288 $356 $425 forward $361 $-1 #
coedge $-1 $288 $427 $290 $364 reversed $361 $-1 #
loop $-1 $-1 $418 $428 #
straight-curve $-1 58.207342753379926 23.503803839301064 80.630254354729146 0 0 -1 I I #
coedge $-1 $429 $290 $430 $431 forward $282 $-1 #
edge $-1 $293 23.503803839301064 $432 27.127424884391761 $360 $433 forward 7 unknown #
point $-1 44.564177793357118 23.503803839301064 9.0829311164170932 #
point $-1 58.207342753379926 23.503803839301064 9.0829311164170914 #
point $-1 47.862253003514269 17.975606233820468 -0.77278171977182908 #
coedge $-1 $304 $303 $309 $377 forward $167 $-1 #
coedge $-1 $314 $434 $303 $370 reversed $301 $-1 #
edge $-1 $318 -58.207342753379926 $435 58.207342753379926 $369 $436 forward 7 unknown #
coedge $-1 $434 $314 $305 $372 reversed $301 $-1 #
edge $-1 $374 -58.207342753379926 $316 58.207342753379926 $371 $437 forward 7 unknown #
coedge $-1 $306 $309 $434 $438 forward $238 $-1 #
vertex $-1 $372 $439 #
straight-curve $-1 -58.207342753379926 0 -9.0829311164170914 0 1 0 I I #
straight-curve $-1 0 -27.127424884391761 9.0829311164170914 1 0 0 I I #
edge $-1 $435 -27.127424884391761 $310 27.127424884391761 $309 $440 forward 7 unknown #
point $-1 -58.207342753379926 -27.127424884391761 9.0829311164170914 #
straight-curve $-1 58.207342753379926 27.127424884391761 0 0 0 -1 I I #
point $-1 58.207342753379926 27.127424884391761 -9.0829311164170914 #
point $-1 58.207342753379926 27.127424884391761 9.0829311164170914 #
face $-1 $411 $407 $14 $-1 $441 reversed single #
loop $-1 $-1 $442 $321 #
plane-surface $-1 0 0 -9.0829311164170914 0 0 1 1 0 0 forward_v I I I I #
coedge $-1 $443 $444 $325 $391 forward $322 $-1 #
coedge $-1 $445 $324 $326 $392 forward $261 $-1 #
coedge $-1 $324 $445 $442 $446 reversed $261 $-1 #
coedge $-1 $336 $327 $324 $389 forward $203 $-1 #
edge $-1 $395 2.1457721373830037 $447 5.3400300318170597 $388 $448 forward 7 unknown #
coedge $-1 $326 $325 $449 $450 reversed $189 $-1 #
edge $-1 $451 -58.207342753379926 $394 58.207342753379926 $385 $452 forward 7 unknown #
edge $-1 $395 -58.207342753379926 $453 58.207342753379926 $386 $454 forward 7 unknown #
coedge $-1 $327 $330 $443 $455 forward $203 $-1 #
vertex $-1 $391 $456 #
vertex $-1 $328 $457 #
straight-curve $-1 58.207342753379926 -11.416744197516898 -5.8886732219830353 0 1 0 I I #
coedge $-1 $444 $443 $329 $398 reversed $322 $-1 #
edge $-1 $408 -58.207342753379926 $399 58.207342753379926 $397 $458 forward 7 unknown #
vertex $-1 $331 $459 #
coedge $-1 $442 $460 $336 $401 forward $383 $-1 #
edge $-1 $403 -27.127424884391761 $447 18.539551905675832 $336 $461 forward 7 unknown #
coedge $-1 $342 $337 $460 $462 reversed $343 $-1 #
vertex $-1 $401 $463 #
straight-curve $-1 58.207342753379926 27.127424884391761 0 0 0 -1 I I #
coedge $-1 $464 $340 $342 $410 forward $407 $-1 #
coedge $-1 $340 $449 $444 $465 reversed $407 $-1 #
loop $-1 $-1 $449 $382 #
vertex $-1 $341 $466 #
straight-curve $-1 -58.207342753379926 0 9.0829311164170914 0 -1 0 I I #
edge $-1 $344 -9.0829311164170914 $467 9.0829311164170914 $342 $468 forward 7 unknown #
face $-1 $275 $343 $14 $-1 $469 reversed single #
point $-1 -58.207342753379926 27.127424884391761 9.0829311164170914 #
face $-1 $470 $471 $15 $-1 $472 reversed single #
loop $-1 $-1 $473 $347 #
plane-surface $-1 0 -18.539551905675832 -7.4858021692000634 0 -1 0 0 0 -1 forward_v I I I I #
coedge $-1 $474 $475 $476 $477 reversed $348 $-1 #
coedge $-1 $350 $478 $479 $480 forward $282 $-1 #
coedge $-1 $479 $359 $351 $419 forward $361 $-1 #
edge $-1 $481 -80.407298323636354 $421 -71.54732323831206 $418 $482 forward 7 unknown #
edge $-1 $481 -116.41468550675984 $422 -100.1470763204362 $352 $483 forward 7 unknown #
vertex $-1 $419 $484 #
vertex $-1 $355 $485 #
straight-curve $-1 11.988877844205692 12.447408628339872 9.0829311164170861 -1 0 0 I I #
straight-curve $-1 44.564177793357118 8.9878031169102339 9.0829311164170932 0 1 0 I I #
edge $-1 $357 -14.51600072239083 $481 -3.459605511429638 $359 $486 forward 7 unknown #
point $-1 58.207342753379933 23.503803839301064 0.22295603109279938 #
coedge $-1 $360 $487 $488 $489 reversed $361 $-1 #
face $-1 $-1 $361 $15 $-1 $490 reversed single #
coedge $-1 $478 $363 $491 $492 forward $282 $-1 #
coedge $-1 $488 $493 $363 $431 reversed $494 $-1 #
edge $-1 $432 -58.207342753379926 $495 58.207342753379926 $430 $496 forward 7 unknown #
vertex $-1 $364 $497 #
straight-curve $-1 58.207342753379926 0 9.0829311164170914 0 1 0 I I #
coedge $-1 $369 $371 $373 $438 reversed $301 $-1 #
vertex $-1 $370 $498 #
straight-curve $-1 0 27.127424884391761 9.0829311164170914 -1 0 0 I I #
straight-curve $-1 0 27.127424884391761 -9.0829311164170914 1 0 0 I I #
edge $-1 $435 -9.0829311164170914 $374 9.0829311164170914 $434 $499 forward 7 unknown #
point $-1 -58.207342753379926 27.127424884391761 -9.0829311164170914 #
straight-curve $-1 -58.207342753379926 0 9.0829311164170914 0 -1 0 I I #
plane-surface $-1 -58.207342753379926 0 0 1 0 0 0 0 -1 forward_v I I I I #
coedge $-1 $500 $400 $387 $446 forward $383 $-1 #
coedge $-1 $397 $385 $393 $455 reversed $322 $-1 #
coedge $-1 $385 $397 $406 $465 forward $322 $-1 #
coedge $-1 $387 $386 $501 $502 reversed $261 $-1 #
edge $-1 $447 -58.207342753379926 $503 58.207342753379926 $442 $504 forward 7 unknown #
vertex $-1 $446 $505 #
straight-curve $-1 58.207342753379926 -18.539551905675832 -3.7429010846000317 0 0 -1 I I #
coedge $-1 $406 $501 $390 $450 forward $407 $-1 #
edge $-1 $453 7.122807708158934 $451 15.710680686874863 $449 $506 forward 7 unknown #
vertex $-1 $391 $507 #
straight-curve $-1 0 -27.127424884391761 -5.8886732219830353 1 0 0 I I #
vertex $-1 $450 $508 #
straight-curve $-1 0 -18.539551905675832 -5.8886732219830353 -1 0 0 I I #
edge $-1 $399 -9.0829311164170914 $394 5.8886732219830353 $393 $509 forward 7 unknown #
point $-1 58.207342753379926 -27.127424884391761 -5.8886732219830353 #
point $-1 58.207342753379926 -18.539551905675832 -5.8886732219830353 #
straight-curve $-1 0 -27.127424884391761 9.0829311164170914 1 0 0 I I #
point $-1 58.207342753379926 -27.127424884391761 9.0829311164170914 #
coedge $-1 $400 $500 $402 $462 forward $383 $-1 #
straight-curve $-1 58.207342753379926 0 -9.0829311164170914 0 -1 0 I I #
edge $-1 $467 -58.207342753379926 $403 58.207342753379926 $402 $510 forward 7 unknown #
point $-1 58.207342753379926 27.127424884391761 -9.0829311164170914 #
coedge $-1 $501 $405 $500 $511 reversed $407 $-1 #
edge $-1 $408 -9.0829311164170914 $451 5.8886732219830353 $406 $512 forward 7 unknown #
point $-1 -58.207342753379926 -27.127424884391761 9.0829311164170914 #
vertex $-1 $462 $513 #
straight-curve $-1 -58.207342753379926 27.127424884391761 0 0 0 -1 I I #
plane-surface $-1 0 27.127424884391761 0 0 -1 0 0 0 -1 forward_v I I I I #
face $-1 $514 $515 $15 $-1 $516 reversed single #
loop $-1 $-1 $517 $413 #
plane-surface $-1 0 -27.127424884391761 0 0 1 0 0 0 1 forward_v I I I I #
coedge $-1 $518 $519 $520 $521 reversed $414 $-1 #
coedge $-1 $522 $416 $517 $523 reversed $348 $-1 #
coedge $-1 $416 $522 $518 $524 reversed $348 $-1 #
coedge $-1 $520 $525 $416 $477 forward $361 $-1 #
edge $-1 $526 -15.710680686874863 $527 -7.122807708158934 $476 $528 forward 7 unknown #
coedge $-1 $417 $429 $529 $530 forward $282 $-1 #
coedge $-1 $525 $418 $417 $480 reversed $361 $-1 #
edge $-1 $531 -27.127424884391761 $421 12.447408628339872 $479 $433 forward 7 unknown #
vertex $-1 $425 $532 #
straight-curve $-1 58.207342753379926 12.447408628339872 80.630254354729146 0 0 1 I I #
straight-curve $-1 -39.426227118287088 12.447408628339872 63.626938837791272 -0.83867056331134215 0 0.54463904215088732 I I #
point $-1 58.207342753379926 12.447408628339872 9.0829311164170914 #
point $-1 44.564177793357118 12.447408628339872 9.0829311164170932 #
straight-curve $-1 58.207342753379926 8.9878031169102339 0.22295603109280648 0 -1 0 I I #
coedge $-1 $427 $520 $533 $534 reversed $361 $-1 #
coedge $-1 $535 $430 $427 $489 forward $494 $-1 #
edge $-1 $432 -9.0829311164170914 $536 9.0829311164170914 $427 $537 forward 7 unknown #
plane-surface $-1 58.207342753379926 0 0 -1 0 0 0 0 1 forward_v I I I I #
coedge $-1 $538 $539 $429 $492 reversed $540 $-1 #
edge $-1 $495 -27.127424884391761 $541 27.127424884391761 $491 $542 forward 7 unknown #
coedge $-1 $430 $535 $538 $543 reversed $494 $-1 #
loop $-1 $-1 $488 $544 #
vertex $-1 $431 $545 #
straight-curve $-1 0 27.127424884391761 9.0829311164170914 -1 0 0 I I #
point $-1 58.207342753379926 27.127424884391761 9.0829311164170914 #
point $-1 -58.207342753379926 27.127424884391761 9.0829311164170914 #
straight-curve $-1 -58.207342753379926 27.127424884391761 0 0 0 -1 I I #
coedge $-1 $460 $442 $464 $511 forward $383 $-1 #
coedge $-1 $449 $464 $445 $502 forward $407 $-1 #
edge $-1 $503 -5.3400300318170597 $453 -2.1457721373830037 $501 $546 forward 7 unknown #
vertex $-1 $511 $547 #
straight-curve $-1 0 -18.539551905675832 -9.0829311164170914 -1 0 0 I I #
point $-1 58.207342753379926 -18.539551905675832 -9.0829311164170914 #
straight-curve $-1 -58.207342753379926 -11.416744197516898 -5.8886732219830353 0 -1 0 I I #
point $-1 -58.207342753379926 -27.127424884391761 -5.8886732219830353 #
point $-1 -58.207342753379926 -18.539551905675832 -5.8886732219830353 #
straight-curve $-1 58.207342753379926 -27.127424884391761 0 0 0 -1 I I #
straight-curve $-1 0 27.127424884391761 -9.0829311164170914 1 0 0 I I #
edge $-1 $503 -18.539551905675832 $467 27.127424884391761 $464 $548 forward 7 unknown #
straight-curve $-1 -58.207342753379926 -27.127424884391761 0 0 0 -1 I I #
point $-1 -58.207342753379926 27.127424884391761 -9.0829311164170914 #
face $-1 $544 $540 $15 $-1 $549 reversed single #
loop $-1 $-1 $550 $470 #
plane-surface $-1 0 0 -9.0829311164170914 0 0 1 1 0 0 forward_v I I I I #
coedge $-1 $551 $552 $474 $523 forward $471 $-1 #
coedge $-1 $553 $473 $475 $524 forward $414 $-1 #
coedge $-1 $473 $553 $550 $554 reversed $414 $-1 #
coedge $-1 $487 $476 $473 $521 forward $361 $-1 #
edge $-1 $527 2.1457721373830037 $555 5.3400300318170597 $520 $556 forward 7 unknown #
coedge $-1 $475 $474 $557 $558 reversed $348 $-1 #
edge $-1 $559 -58.207342753379926 $526 58.207342753379926 $517 $560 forward 7 unknown #
edge $-1 $527 -58.207342753379926 $561 58.207342753379926 $518 $562 forward 7 unknown #
coedge $-1 $476 $479 $551 $563 forward $361 $-1 #
vertex $-1 $523 $564 #
vertex $-1 $477 $565 #
straight-curve $-1 58.207342753379926 -11.416744197516898 -5.8886732219830353 0 1 0 I I #
coedge $-1 $552 $551 $478 $530 reversed $471 $-1 #
edge $-1 $541 -58.207342753379926 $531 58.207342753379926 $529 $566 forward 7 unknown #
vertex $-1 $480 $567 #
point $-1 58.207342753379933 12.447408628339872 0.22295603109279938 #
coedge $-1 $550 $568 $487 $534 forward $515 $-1 #
edge $-1 $536 -27.127424884391761 $555 18.539551905675832 $487 $569 forward 7 unknown #
coedge $-1 $493 $488 $568 $570 reversed $494 $-1 #
vertex $-1 $534 $571 #
straight-curve $-1 58.207342753379926 27.127424884391761 0 0 0 -1 I I #
coedge $-1 $572 $491 $493 $543 forward $540 $-1 #
coedge $-1 $491 $557 $552 $573 reversed $540 $-1 #
loop $-1 $-1 $557 $514 #
vertex $-1 $492 $574 #
straight-curve $-1 -58.207342753379926 0 9.0829311164170914 0 -1 0 I I #
edge $-1 $495 -9.0829311164170914 $575 9.0829311164170914 $493 $576 forward 7 unknown #
face $-1 $428 $494 $15 $-1 $577 reversed single #
point $-1 -58.207342753379926 27.127424884391761 9.0829311164170914 #
straight-curve $-1 -58.207342753379926 -18.539551905675832 -3.7429010846000317 0 0 1 I I #
point $-1 -58.207342753379926 -18.539551905675832 -9.0829311164170914 #
straight-curve $-1 -58.207342753379926 0 -9.0829311164170914 0 1 0 I I #
plane-surface $-1 -58.207342753379926 0 0 1 0 0 0 0 -1 forward_v I I I I #
coedge $-1 $578 $533 $519 $554 forward $515 $-1 #
coedge $-1 $529 $517 $525 $563 reversed $471 $-1 #
coedge $-1 $517 $529 $539 $573 forward $471 $-1 #
coedge $-1 $519 $518 $579 $580 reversed $414 $-1 #
edge $-1 $555 -58.207342753379926 $581 58.207342753379926 $550 $582 forward 7 unknown #
vertex $-1 $554 $583 #
straight-curve $-1 58.207342753379926 -18.539551905675832 -3.7429010846000317 0 0 -1 I I #
coedge $-1 $539 $579 $522 $558 forward $540 $-1 #
edge $-1 $561 7.122807708158934 $559 15.710680686874863 $557 $584 forward 7 unknown #
vertex $-1 $523 $585 #
straight-curve $-1 0 -27.127424884391761 -5.8886732219830353 1 0 0 I I #
vertex $-1 $558 $586 #
straight-curve $-1 0 -18.539551905675832 -5.8886732219830353 -1 0 0 I I #
edge $-1 $531 -9.0829311164170914 $526 5.8886732219830353 $525 $587 forward 7 unknown #
point $-1 58.207342753379926 -27.127424884391761 -5.8886732219830353 #
point $-1 58.207342753379926 -18.539551905675832 -5.8886732219830353 #
straight-curve $-1 0 -27.127424884391761 9.0829311164170914 1 0 0 I I #
point $-1 58.207342753379926 -27.127424884391761 9.0829311164170914 #
coedge $-1 $533 $578 $535 $570 forward $515 $-1 #
straight-curve $-1 58.207342753379926 0 -9.0829311164170914 0 -1 0 I I #
edge $-1 $575 -58.207342753379926 $536 58.207342753379926 $535 $588 forward 7 unknown #
point $-1 58.207342753379926 27.127424884391761 -9.0829311164170914 #
coedge $-1 $579 $538 $578 $589 reversed $540 $-1 #
edge $-1 $541 -9.0829311164170914 $559 5.8886732219830353 $539 $590 forward 7 unknown #
point $-1 -58.207342753379926 -27.127424884391761 9.0829311164170914 #
vertex $-1 $570 $591 #
straight-curve $-1 -58.207342753379926 27.127424884391761 0 0 0 -1 I I #
plane-surface $-1 0 27.127424884391761 0 0 -1 0 0 0 -1 forward_v I I I I #
coedge $-1 $568 $550 $572 $589 forward $515 $-1 #
coedge $-1 $557 $572 $553 $580 forward $540 $-1 #
edge $-1 $581 -5.3400300318170597 $561 -2.1457721373830037 $579 $592 forward 7 unknown #
vertex $-1 $589 $593 #
straight-curve $-1 0 -18.539551905675832 -9.0829311164170914 -1 0 0 I I #
point $-1 58.207342753379926 -18.539551905675832 -9.0829311164170914 #
straight-curve $-1 -58.207342753379926 -11.416744197516898 -5.8886732219830353 0 -1 0 I I #
point $-1 -58.207342753379926 -27.127424884391761 -5.8886732219830353 #
point $-1 -58.207342753379926 -18.539551905675832 -5.8886732219830353 #
straight-curve $-1 58.207342753379926 -27.127424884391761 0 0 0 -1 I I #
straight-curve $-1 0 27.127424884391761 -9.0829311164170914 1 0 0 I I #
edge $-1 $581 -18.539551905675832 $575 27.127424884391761 $572 $594 forward 7 unknown #
straight-curve $-1 -58.207342753379926 -27.127424884391761 0 0 0 -1 I I #
point $-1 -58.207342753379926 27.127424884391761 -9.0829311164170914 #
straight-curve $-1 -58.207342753379926 -18.539551905675832 -3.7429010846000317 0 0 1 I I #
point $-1 -58.207342753379926 -18.539551905675832 -9.0829311164170914 #
straight-curve $-1 -58.207342753379926 0 -9.0829311164170914 0 1 0 I I #
End-of-ACIS-data 