500 0 6 0           
7 Unknown 11 ACIS 5.0 NT 24 Fri Mar 26 19:16:34 1999 
-1 9.9999999999999995e-007 1e-010 
body $-1 $6 $-1 $7 #
body $-1 $8 $-1 $9 #
body $-1 $10 $-1 $11 #
body $-1 $12 $-1 $13 #
body $-1 $14 $-1 $15 #
body $-1 $16 $-1 $17 #
lump $-1 $-1 $18 $0 #
transform $-1 1 0 0 0 1 0 0 0 1 50.234687337870419 24.328416696552381 6.5077233907675902 1 rotate no_reflect no_shear #
lump $-1 $-1 $19 $1 #
transform $-1 1 0 0 0 1 0 0 0 1 50.234687337870419 24.328416696552381 6.5077233907675902 1 rotate no_reflect no_shear #
lump $-1 $-1 $20 $2 #
transform $-1 1 0 0 0 1 0 0 0 1 50.234687337870419 24.328416696552381 6.5077233907675902 1 rotate no_reflect no_shear #
lump $-1 $-1 $21 $3 #
transform $-1 1 0 0 0 1 0 0 0 1 50.234687337870419 24.328416696552381 6.5077233907675902 1 rotate no_reflect no_shear #
lump $-1 $-1 $22 $4 #
transform $-1 1 0 0 0 1 0 0 0 1 50.234687337870419 24.328416696552381 6.5077233907675902 1 rotate no_reflect no_shear #
lump $-1 $-1 $23 $5 #
transform $-1 1 0 0 0 1 0 0 0 1 50.234687337870419 24.328416696552381 6.5077233907675902 1 rotate no_reflect no_shear #
shell $-1 $-1 $-1 $24 $-1 $6 #
shell $-1 $-1 $-1 $25 $-1 $8 #
shell $-1 $-1 $-1 $26 $-1 $10 #
shell $-1 $-1 $-1 $27 $-1 $12 #
shell $-1 $-1 $-1 $28 $-1 $14 #
shell $-1 $-1 $-1 $29 $-1 $16 #
face $-1 $30 $31 $18 $-1 $32 reversed single #
face $-1 $33 $34 $19 $-1 $35 forward single #
face $-1 $36 $37 $20 $-1 $38 forward single #
face $-1 $39 $40 $21 $-1 $41 reversed single #
face $-1 $42 $43 $22 $-1 $44 forward single #
face $-1 $45 $46 $23 $-1 $47 forward single #
face $-1 $48 $49 $18 $-1 $50 reversed single #
loop $-1 $-1 $51 $24 #
plane-surface $-1 0 24.328416696552381 0 0 -1 0 0 0 -1 forward_v I I I I #
face $-1 $52 $53 $19 $-1 $54 reversed single #
loop $-1 $-1 $55 $25 #
plane-surface $-1 0 -24.328416696552381 0 0 1 0 0 0 1 forward_v I I I I #
face $-1 $56 $57 $20 $-1 $58 reversed single #
loop $-1 $-1 $59 $26 #
plane-surface $-1 0 24.328416696552381 0 0 -1 0 0 0 -1 forward_v I I I I #
face $-1 $60 $61 $21 $-1 $62 reversed single #
loop $-1 $-1 $63 $27 #
plane-surface $-1 47.754961123428821 -10.694620737091036 143.37241837642239 0 -1 0 -0.69465837861970381 0 -0.71933979245794832 forward_v I I I I #
face $-1 $64 $65 $22 $-1 $66 forward single #
loop $-1 $67 $68 $28 #
cone-surface $-1 46.844393703387112 -16.460106103923057 3.1849686156958255 -0.69465837861970381 0 -0.71933979245794832 0.71933979245794832 0 -0.69465837861970381 1 I I 0 1 1 forward I I I I #
face $-1 $69 $70 $23 $-1 $71 forward single #
loop $-1 $72 $73 $29 #
cone-surface $-1 46.844393703387112 -13.000814883823844 3.1849686156958255 -0.69465837861970381 0 -0.71933979245794832 0.71933979245794832 0 -0.69465837861970381 1 I I 0 1 1 forward I I I I #
face $-1 $74 $75 $18 $-1 $76 forward single #
loop $-1 $-1 $77 $30 #
plane-surface $-1 0 -24.328416696552381 0 0 1 0 0 0 1 forward_v I I I I #
coedge $-1 $78 $79 $80 $81 reversed $31 $-1 #
face $-1 $82 $83 $19 $-1 $84 reversed single #
loop $-1 $-1 $85 $33 #
plane-surface $-1 0 0 -6.5077233907675902 0 0 1 1 0 0 forward_v I I I I #
coedge $-1 $86 $87 $88 $89 forward $34 $-1 #
face $-1 $90 $91 $20 $-1 $92 reversed single #
loop $-1 $-1 $93 $36 #
plane-surface $-1 0 0 -6.5077233907675902 0 0 1 1 0 0 forward_v I I I I #
coedge $-1 $94 $95 $96 $97 forward $37 $-1 #
face $-1 $98 $99 $21 $-1 $100 reversed single #
loop $-1 $-1 $101 $39 #
plane-surface $-1 -22.036931789756842 -14.73046049387345 71.100799248795127 0.69465837861970381 0 0.71933979245794832 0.71933979245794832 0 -0.69465837861970381 forward_v I I I I #
coedge $-1 $102 $103 $104 $105 reversed $40 $-1 #
face $-1 $-1 $106 $22 $-1 $107 forward single #
loop $-1 $108 $109 $42 #
cone-surface $-1 45.798537146715894 -16.460106103923057 2.1019524719741556 -0.69465837861970381 0 -0.71933979245794832 0.35966989622897416 0 -0.3473291893098519 1 I I -0.70710678118654746 0.70710678118654746 0.5 forward I I I I #
loop $-1 $-1 $110 $28 #
coedge $-1 $68 $68 $111 $112 reversed $43 $-1 #
face $-1 $-1 $113 $23 $-1 $114 forward single #
loop $-1 $115 $116 $45 #
cone-surface $-1 45.798537146715894 -13.000814883823844 2.1019524719741556 -0.69465837861970381 0 -0.71933979245794832 0.35966989622897416 0 -0.3473291893098519 1 I I -0.70710678118654746 0.70710678118654746 0.5 forward I I I I #
loop $-1 $-1 $117 $29 #
coedge $-1 $73 $73 $118 $119 reversed $46 $-1 #
face $-1 $120 $121 $18 $-1 $122 reversed single #
loop $-1 $-1 $123 $48 #
plane-surface $-1 0 0 6.5077233907675902 0 0 1 1 0 0 forward_v I I I I #
coedge $-1 $124 $125 $126 $127 reversed $49 $-1 #
coedge $-1 $128 $51 $129 $130 reversed $31 $-1 #
coedge $-1 $51 $128 $131 $132 forward $31 $-1 #
coedge $-1 $133 $134 $51 $81 forward $121 $-1 #
edge $-1 $135 -50.234687337870419 $136 50.234687337870419 $51 $137 forward 7 unknown #
face $-1 $138 $139 $19 $-1 $140 reversed single #
loop $-1 $-1 $141 $52 #
plane-surface $-1 -46.778180033307699 -29.890533142448902 0 0 1 0 0 0 1 forward_v I I I I #
coedge $-1 $142 $143 $87 $144 forward $53 $-1 #
coedge $-1 $145 $55 $146 $147 reversed $34 $-1 #
coedge $-1 $55 $145 $85 $144 reversed $34 $-1 #
coedge $-1 $148 $149 $55 $89 reversed $139 $-1 #
edge $-1 $150 -6.5077233907675902 $151 6.5077233907675902 $88 $152 forward 7 unknown #
face $-1 $153 $154 $20 $-1 $155 reversed single #
loop $-1 $-1 $156 $56 #
plane-surface $-1 -48.278180033307699 27.109474919500641 0 1 0 0 0 0 -1 forward_v I I I I #
coedge $-1 $157 $158 $95 $159 forward $57 $-1 #
coedge $-1 $160 $59 $161 $162 reversed $37 $-1 #
coedge $-1 $59 $160 $93 $159 reversed $37 $-1 #
coedge $-1 $163 $164 $59 $97 reversed $165 $-1 #
edge $-1 $166 -6.5077233907675902 $167 6.5077233907675902 $96 $168 forward 7 unknown #
face $-1 $169 $170 $21 $-1 $171 forward single #
loop $-1 $-1 $172 $60 #
plane-surface $-1 47.754961123428821 -18.766300250655863 143.37241837642239 0 1 0 0.69465837861970381 0 0.71933979245794832 forward_v I I I I #
coedge $-1 $173 $174 $175 $176 reversed $61 $-1 #
coedge $-1 $103 $63 $177 $178 reversed $40 $-1 #
coedge $-1 $63 $102 $173 $179 reversed $40 $-1 #
coedge $-1 $175 $180 $63 $105 forward $170 $-1 #
edge $-1 $181 -26.357206776156008 $182 -20.973674241912125 $104 $183 forward 7 unknown #
loop $-1 $-1 $111 $64 #
plane-surface $-1 -22.036931789756842 -14.73046049387345 71.100799248795127 0.69465837861970381 0 0.71933979245794832 0.71933979245794832 0 -0.69465837861970381 forward_v I I I I #
loop $-1 $-1 $184 $42 #
coedge $-1 $109 $109 $110 $185 reversed $65 $-1 #
coedge $-1 $110 $110 $109 $185 forward $67 $-1 #
coedge $-1 $111 $111 $68 $112 forward $106 $-1 #
edge $-1 $186 0 $186 6.2831853071796004 $111 $187 forward 7 unknown #
loop $-1 $-1 $118 $69 #
plane-surface $-1 -22.036931789756842 -14.73046049387345 71.100799248795127 0.69465837861970381 0 0.71933979245794832 0.71933979245794832 0 -0.69465837861970381 forward_v I I I I #
loop $-1 $-1 $188 $45 #
coedge $-1 $116 $116 $117 $189 reversed $70 $-1 #
coedge $-1 $117 $117 $116 $189 forward $72 $-1 #
coedge $-1 $118 $118 $73 $119 forward $113 $-1 #
edge $-1 $190 0 $190 6.2831853071796004 $118 $191 forward 7 unknown #
face $-1 $192 $193 $18 $-1 $194 reversed single #
loop $-1 $-1 $133 $74 #
plane-surface $-1 0 0 -6.5077233907675902 0 0 1 1 0 0 forward_v I I I I #
coedge $-1 $195 $196 $197 $198 forward $75 $-1 #
coedge $-1 $199 $77 $200 $201 reversed $49 $-1 #
coedge $-1 $77 $199 $202 $203 forward $49 $-1 #
coedge $-1 $134 $133 $77 $127 forward $121 $-1 #
edge $-1 $204 -50.234687337870419 $205 50.234687337870419 $77 $206 forward 7 unknown #
coedge $-1 $79 $78 $195 $207 reversed $31 $-1 #
coedge $-1 $208 $209 $78 $130 forward $193 $-1 #
edge $-1 $210 -6.5077233907675902 $135 6.5077233907675902 $78 $211 forward 7 unknown #
coedge $-1 $197 $212 $79 $132 reversed $213 $-1 #
edge $-1 $214 -6.5077233907675902 $136 6.5077233907675902 $131 $215 forward 7 unknown #
coedge $-1 $126 $80 $212 $216 forward $121 $-1 #
coedge $-1 $80 $126 $208 $217 forward $121 $-1 #
vertex $-1 $81 $218 #
vertex $-1 $216 $219 #
straight-curve $-1 0 24.328416696552381 -6.5077233907675902 1 0 0 I I #
face $-1 $220 $221 $19 $-1 $222 reversed single #
loop $-1 $-1 $88 $82 #
plane-surface $-1 -48.278180033307699 -27.109474919500641 0 1 0 0 0 0 -1 forward_v I I I I #
coedge $-1 $223 $224 $225 $226 forward $83 $-1 #
coedge $-1 $227 $85 $228 $229 forward $53 $-1 #
coedge $-1 $85 $227 $148 $230 forward $53 $-1 #
edge $-1 $150 -48.278180033307699 $231 -45.278180033307699 $85 $232 forward 7 unknown #
coedge $-1 $87 $86 $233 $234 forward $34 $-1 #
coedge $-1 $235 $236 $86 $147 forward $237 $-1 #
edge $-1 $238 45.278180033307699 $151 48.278180033307699 $146 $239 forward 7 unknown #
coedge $-1 $225 $88 $143 $230 reversed $139 $-1 #
coedge $-1 $88 $225 $235 $240 reversed $139 $-1 #
vertex $-1 $144 $241 #
vertex $-1 $240 $242 #
straight-curve $-1 -48.278180033307699 -24.328416696552381 0 0 0 1 I I #
face $-1 $243 $165 $20 $-1 $244 reversed single #
loop $-1 $-1 $245 $90 #
plane-surface $-1 -46.778180033307699 29.890533142448902 0 0 -1 0 0 0 -1 forward_v I I I I #
coedge $-1 $246 $247 $248 $249 forward $91 $-1 #
coedge $-1 $250 $93 $246 $251 forward $57 $-1 #
coedge $-1 $93 $250 $163 $252 forward $57 $-1 #
edge $-1 $166 45.278180033307699 $253 48.278180033307699 $93 $254 forward 7 unknown #
coedge $-1 $95 $94 $255 $256 forward $37 $-1 #
coedge $-1 $257 $258 $94 $162 forward $259 $-1 #
edge $-1 $260 -48.278180033307699 $167 -45.278180033307699 $161 $261 forward 7 unknown #
coedge $-1 $262 $96 $158 $252 reversed $165 $-1 #
coedge $-1 $96 $262 $257 $263 reversed $165 $-1 #
loop $-1 $-1 $96 $153 #
vertex $-1 $159 $264 #
vertex $-1 $263 $265 #
straight-curve $-1 -45.278180033307699 24.328416696552381 0 0 0 1 I I #
face $-1 $-1 $266 $21 $-1 $267 reversed single #
loop $-1 $-1 $104 $98 #
plane-surface $-1 0 0 6.5077233907675902 0 0 1 1 0 0 forward_v I I I I #
coedge $-1 $268 $269 $270 $271 reversed $99 $-1 #
coedge $-1 $272 $101 $103 $179 forward $61 $-1 #
coedge $-1 $101 $272 $268 $273 forward $61 $-1 #
coedge $-1 $270 $104 $101 $176 forward $170 $-1 #
edge $-1 $182 3.329390490154311 $274 11.401070003719138 $175 $275 forward 7 unknown #
coedge $-1 $276 $277 $102 $178 forward $266 $-1 #
edge $-1 $278 -70.37730285260173 $181 -65.178485797443599 $177 $279 forward 7 unknown #
edge $-1 $182 92.985383673590619 $278 100.46937467574082 $103 $280 forward 7 unknown #
coedge $-1 $104 $270 $276 $281 forward $170 $-1 #
vertex $-1 $105 $282 #
vertex $-1 $105 $283 #
straight-curve $-1 23.87748056171441 -10.694620737091036 6.5077233907675947 -1 0 0 I I #
coedge $-1 $184 $184 $-1 $284 reversed $108 $-1 #
edge $-1 $285 0 $285 6.2831853071796004 $109 $286 forward 7 unknown #
vertex $-1 $112 $287 #
ellipse-curve $-1 47.542921070748484 -16.460106103923057 3.9083148631885263 0.69465837861970381 0 0.71933979245794832 0.71933979245794832 0 -0.69465837861970381 1 I I #
coedge $-1 $188 $188 $-1 $288 reversed $115 $-1 #
edge $-1 $289 0 $289 6.2831853071796004 $116 $290 forward 7 unknown #
vertex $-1 $119 $291 #
ellipse-curve $-1 47.542921070748484 -13.000814883823844 3.9083148631885263 0.69465837861970381 0 0.71933979245794832 0.71933979245794832 0 -0.69465837861970381 1 I I #
face $-1 $-1 $213 $18 $-1 $292 reversed single #
loop $-1 $-1 $129 $120 #
plane-surface $-1 -50.234687337870419 0 0 1 0 0 0 0 -1 forward_v I I I I #
coedge $-1 $293 $123 $128 $207 forward $75 $-1 #
coedge $-1 $123 $293 $199 $294 forward $75 $-1 #
coedge $-1 $200 $131 $123 $198 reversed $213 $-1 #
edge $-1 $295 -24.328416696552381 $214 24.328416696552381 $197 $296 forward 7 unknown #
coedge $-1 $125 $124 $196 $294 reversed $49 $-1 #
coedge $-1 $212 $197 $124 $201 forward $213 $-1 #
edge $-1 $295 -6.5077233907675902 $204 6.5077233907675902 $200 $297 forward 7 unknown #
coedge $-1 $209 $208 $125 $203 reversed $193 $-1 #
edge $-1 $298 -6.5077233907675902 $205 6.5077233907675902 $202 $299 forward 7 unknown #
vertex $-1 $201 $300 #
vertex $-1 $217 $301 #
straight-curve $-1 0 -24.328416696552381 -6.5077233907675902 -1 0 0 I I #
edge $-1 $214 -50.234687337870419 $210 50.234687337870419 $128 $302 forward 7 unknown #
coedge $-1 $202 $129 $134 $217 reversed $193 $-1 #
coedge $-1 $129 $202 $293 $303 reversed $193 $-1 #
vertex $-1 $207 $304 #
straight-curve $-1 -50.234687337870419 24.328416696552381 0 0 0 -1 I I #
coedge $-1 $131 $200 $133 $216 reversed $213 $-1 #
loop $-1 $-1 $200 $192 #
vertex $-1 $198 $305 #
straight-curve $-1 50.234687337870419 24.328416696552381 0 0 0 -1 I I #
edge $-1 $136 -24.328416696552381 $204 24.328416696552381 $212 $306 forward 7 unknown #
edge $-1 $205 -24.328416696552381 $135 24.328416696552381 $208 $307 forward 7 unknown #
point $-1 -50.234687337870419 24.328416696552381 -6.5077233907675902 #
point $-1 50.234687337870419 24.328416696552381 -6.5077233907675902 #
face $-1 $-1 $237 $19 $-1 $308 forward single #
loop $-1 $-1 $309 $138 #
plane-surface $-1 -45.278180033307699 -27.109474919500641 0 -1 0 0 0 0 1 forward_v I I I I #
coedge $-1 $310 $141 $227 $311 reversed $83 $-1 #
coedge $-1 $141 $310 $312 $313 reversed $83 $-1 #
coedge $-1 $149 $148 $141 $226 reversed $139 $-1 #
edge $-1 $314 -6.5077233907675902 $315 6.5077233907675902 $225 $316 forward 7 unknown #
coedge $-1 $143 $142 $223 $311 forward $53 $-1 #
coedge $-1 $233 $309 $142 $229 reversed $221 $-1 #
edge $-1 $231 -2.7810582229482605 $317 2.7810582229482605 $228 $318 forward 7 unknown #
edge $-1 $315 -2.7810582229482605 $150 2.7810582229482605 $148 $319 forward 7 unknown #
vertex $-1 $229 $320 #
straight-curve $-1 0 -24.328416696552381 -6.5077233907675902 1 0 0 I I #
coedge $-1 $321 $228 $145 $234 reversed $221 $-1 #
edge $-1 $238 -6.5077233907675902 $231 6.5077233907675902 $233 $322 forward 7 unknown #
coedge $-1 $312 $146 $149 $240 forward $237 $-1 #
coedge $-1 $146 $312 $321 $323 forward $237 $-1 #
loop $-1 $-1 $146 $220 #
vertex $-1 $147 $324 #
straight-curve $-1 0 -24.328416696552381 6.5077233907675902 -1 0 0 I I #
edge $-1 $151 -2.7810582229482605 $314 2.7810582229482605 $149 $325 forward 7 unknown #
point $-1 -48.278180033307699 -24.328416696552381 -6.5077233907675902 #
point $-1 -48.278180033307699 -24.328416696552381 6.5077233907675902 #
face $-1 $-1 $259 $20 $-1 $326 forward single #
plane-surface $-1 -45.278180033307699 27.109474919500641 0 -1 0 0 0 0 1 forward_v I I I I #
coedge $-1 $327 $328 $262 $329 forward $154 $-1 #
coedge $-1 $255 $156 $157 $251 reversed $91 $-1 #
coedge $-1 $156 $255 $258 $330 reversed $91 $-1 #
coedge $-1 $328 $327 $156 $249 reversed $154 $-1 #
edge $-1 $331 -6.5077233907675902 $332 6.5077233907675902 $248 $333 forward 7 unknown #
coedge $-1 $158 $157 $327 $334 forward $57 $-1 #
edge $-1 $253 -2.7810582229482605 $332 2.7810582229482605 $246 $335 forward 7 unknown #
edge $-1 $336 -2.7810582229482605 $166 2.7810582229482605 $163 $337 forward 7 unknown #
vertex $-1 $251 $338 #
straight-curve $-1 0 24.328416696552381 -6.5077233907675902 -1 0 0 I I #
coedge $-1 $247 $246 $160 $256 reversed $91 $-1 #
edge $-1 $260 -6.5077233907675902 $253 6.5077233907675902 $255 $339 forward 7 unknown #
coedge $-1 $340 $161 $164 $263 forward $259 $-1 #
coedge $-1 $161 $340 $247 $330 forward $259 $-1 #
loop $-1 $-1 $161 $243 #
vertex $-1 $162 $341 #
straight-curve $-1 0 24.328416696552381 6.5077233907675902 1 0 0 I I #
coedge $-1 $164 $163 $245 $329 reversed $165 $-1 #
edge $-1 $167 -2.7810582229482605 $342 2.7810582229482605 $164 $343 forward 7 unknown #
point $-1 -45.278180033307699 24.328416696552381 -6.5077233907675902 #
point $-1 -45.278180033307699 24.328416696552381 6.5077233907675902 #
loop $-1 $-1 $177 $169 #
plane-surface $-1 50.234687337870419 0 0 -1 0 0 0 0 1 forward_v I I I I #
coedge $-1 $269 $172 $174 $273 reversed $99 $-1 #
coedge $-1 $172 $268 $344 $345 reversed $99 $-1 #
coedge $-1 $180 $175 $172 $271 forward $170 $-1 #
edge $-1 $274 20.973674241912125 $346 26.357206776156008 $270 $347 forward 7 unknown #
coedge $-1 $174 $173 $277 $348 reversed $61 $-1 #
edge $-1 $349 -100.46937467574082 $274 -92.985383673590619 $268 $350 forward 7 unknown #
vertex $-1 $176 $351 #
straight-curve $-1 44.851154803626528 -7.3652302469367248 6.5077233907675875 0 -1 0 I I #
coedge $-1 $344 $177 $180 $281 reversed $266 $-1 #
coedge $-1 $177 $344 $272 $348 forward $266 $-1 #
vertex $-1 $178 $352 #
straight-curve $-1 50.234687337870419 -10.694620737091036 71.686209188211194 0 0 1 I I #
straight-curve $-1 -22.036931789756842 -10.694620737091036 71.100799248795127 0.71933979245794832 0 -0.69465837861970381 I I #
edge $-1 $346 -18.766300250655863 $181 -10.694620737091036 $276 $353 forward 7 unknown #
point $-1 50.234687337870419 -10.694620737091036 6.5077233907675902 #
point $-1 44.851154803626535 -10.694620737091036 6.5077233907675947 #
edge $-1 $354 1 $354 0 $184 $-1 forward 7 unknown #
vertex $-1 $185 $355 #
ellipse-curve $-1 46.145866336025748 -16.460106103923057 2.4616223682031295 0.69465837861970381 0 0.71933979245794832 0.71933979245794832 0 -0.69465837861970381 1 I I #
point $-1 48.262260863206428 -16.460106103923057 3.2136564845688174 #
edge $-1 $356 1 $356 0 $188 $-1 forward 7 unknown #
vertex $-1 $189 $357 #
ellipse-curve $-1 46.145866336025748 -13.000814883823844 2.4616223682031295 0.69465837861970381 0 0.71933979245794832 0.71933979245794832 0 -0.69465837861970381 1 I I #
point $-1 48.262260863206428 -13.000814883823844 3.2136564845688174 #
plane-surface $-1 50.234687337870419 0 0 -1 0 0 0 0 1 forward_v I I I I #
coedge $-1 $196 $195 $209 $303 forward $75 $-1 #
edge $-1 $298 -50.234687337870419 $295 50.234687337870419 $199 $358 forward 7 unknown #
vertex $-1 $198 $359 #
straight-curve $-1 50.234687337870419 0 6.5077233907675902 0 1 0 I I #
straight-curve $-1 50.234687337870419 -24.328416696552381 0 0 0 -1 I I #
vertex $-1 $303 $360 #
straight-curve $-1 -50.234687337870419 -24.328416696552381 0 0 0 -1 I I #
point $-1 50.234687337870419 -24.328416696552381 -6.5077233907675902 #
point $-1 -50.234687337870419 -24.328416696552381 -6.5077233907675902 #
straight-curve $-1 0 24.328416696552381 6.5077233907675902 -1 0 0 I I #
edge $-1 $210 -24.328416696552381 $298 24.328416696552381 $209 $361 forward 7 unknown #
point $-1 -50.234687337870419 24.328416696552381 6.5077233907675902 #
point $-1 50.234687337870419 24.328416696552381 6.5077233907675902 #
straight-curve $-1 50.234687337870419 0 -6.5077233907675902 0 -1 0 I I #
straight-curve $-1 -50.234687337870419 0 -6.5077233907675902 0 1 0 I I #
plane-surface $-1 0 0 6.5077233907675902 0 0 1 1 0 0 forward_v I I I I #
coedge $-1 $228 $321 $310 $362 forward $221 $-1 #
coedge $-1 $224 $223 $309 $362 reversed $83 $-1 #
edge $-1 $317 -1.5 $315 1.5 $223 $363 forward 7 unknown #
coedge $-1 $236 $235 $224 $313 forward $237 $-1 #
edge $-1 $314 -1.5 $364 1.5 $224 $365 forward 7 unknown #
vertex $-1 $240 $366 #
vertex $-1 $230 $367 #
straight-curve $-1 -48.278180033307699 -29.890533142448902 0 0 0 -1 I I #
vertex $-1 $362 $368 #
straight-curve $-1 -45.278180033307699 -27.109474919500641 -6.5077233907675902 0 -1 0 I I #
straight-curve $-1 -48.278180033307699 -27.109474919500641 -6.5077233907675902 0 1 0 I I #
point $-1 -45.278180033307699 -24.328416696552381 -6.5077233907675902 #
coedge $-1 $309 $233 $236 $323 reversed $221 $-1 #
straight-curve $-1 -45.278180033307699 -24.328416696552381 0 0 0 -1 I I #
edge $-1 $364 -2.7810582229482605 $238 2.7810582229482605 $321 $369 forward 7 unknown #
point $-1 -45.278180033307699 -24.328416696552381 6.5077233907675902 #
straight-curve $-1 -48.278180033307699 -27.109474919500641 6.5077233907675902 0 -1 0 I I #
plane-surface $-1 0 0 6.5077233907675902 0 0 1 1 0 0 forward_v I I I I #
coedge $-1 $248 $245 $250 $334 reversed $154 $-1 #
coedge $-1 $245 $248 $340 $370 reversed $154 $-1 #
edge $-1 $342 -6.5077233907675902 $336 6.5077233907675902 $262 $371 forward 7 unknown #
edge $-1 $331 -2.7810582229482605 $260 2.7810582229482605 $247 $372 forward 7 unknown #
vertex $-1 $370 $373 #
vertex $-1 $334 $374 #
straight-curve $-1 -48.278180033307699 29.890533142448902 0 0 0 -1 I I #
edge $-1 $332 -1.5 $336 1.5 $327 $375 forward 7 unknown #
straight-curve $-1 -48.278180033307699 27.109474919500641 -6.5077233907675902 0 1 0 I I #
vertex $-1 $252 $376 #
straight-curve $-1 -45.278180033307699 27.109474919500641 -6.5077233907675902 0 -1 0 I I #
point $-1 -48.278180033307699 24.328416696552381 -6.5077233907675902 #
straight-curve $-1 -48.278180033307699 24.328416696552381 0 0 0 -1 I I #
coedge $-1 $258 $257 $328 $370 forward $259 $-1 #
point $-1 -48.278180033307699 24.328416696552381 6.5077233907675902 #
vertex $-1 $263 $377 #
straight-curve $-1 -45.278180033307699 27.109474919500641 6.5077233907675902 0 1 0 I I #
coedge $-1 $277 $276 $269 $345 forward $266 $-1 #
edge $-1 $346 65.178485797443599 $349 70.37730285260173 $344 $378 forward 7 unknown #
vertex $-1 $281 $379 #
straight-curve $-1 23.87748056171441 -18.766300250655863 6.5077233907675947 1 0 0 I I #
edge $-1 $349 -11.401070003719138 $278 -3.329390490154311 $277 $380 forward 7 unknown #
vertex $-1 $348 $381 #
straight-curve $-1 -22.036931789756842 -18.766300250655863 71.100799248795127 -0.71933979245794832 0 0.69465837861970381 I I #
point $-1 44.851154803626535 -18.766300250655863 6.5077233907675947 #
point $-1 50.234687337870419 -10.694620737091036 1.3089063356094641 #
straight-curve $-1 50.234687337870419 0 6.5077233907675902 0 1 0 I I #
vertex $-1 $284 $382 #
point $-1 46.865206128483692 -16.460106103923057 1.7669639895834259 #
vertex $-1 $288 $383 #
point $-1 46.865206128483692 -13.000814883823844 1.7669639895834259 #
straight-curve $-1 0 -24.328416696552381 6.5077233907675902 1 0 0 I I #
point $-1 50.234687337870419 -24.328416696552381 6.5077233907675902 #
point $-1 -50.234687337870419 -24.328416696552381 6.5077233907675902 #
straight-curve $-1 -50.234687337870419 0 6.5077233907675902 0 -1 0 I I #
edge $-1 $364 -6.5077233907675902 $317 6.5077233907675902 $309 $384 forward 7 unknown #
straight-curve $-1 -46.778180033307699 -29.890533142448902 -6.5077233907675902 -1 0 0 I I #
vertex $-1 $323 $385 #
straight-curve $-1 -46.778180033307699 -29.890533142448902 6.5077233907675902 1 0 0 I I #
point $-1 -48.278180033307699 -29.890533142448902 6.5077233907675902 #
point $-1 -48.278180033307699 -29.890533142448902 -6.5077233907675902 #
point $-1 -45.278180033307699 -29.890533142448902 -6.5077233907675902 #
straight-curve $-1 -45.278180033307699 -27.109474919500641 6.5077233907675902 0 1 0 I I #
edge $-1 $342 -1.5 $331 1.5 $328 $386 forward 7 unknown #
straight-curve $-1 -45.278180033307699 29.890533142448902 0 0 0 -1 I I #
straight-curve $-1 -48.278180033307699 27.109474919500641 6.5077233907675902 0 -1 0 I I #
point $-1 -48.278180033307699 29.890533142448902 6.5077233907675902 #
point $-1 -48.278180033307699 29.890533142448902 -6.5077233907675902 #
straight-curve $-1 -46.778180033307699 29.890533142448902 -6.5077233907675902 1 0 0 I I #
point $-1 -45.278180033307699 29.890533142448902 -6.5077233907675902 #
point $-1 -45.278180033307699 29.890533142448902 6.5077233907675902 #
straight-curve $-1 50.234687337870419 -18.766300250655863 71.686209188211194 0 0 -1 I I #
point $-1 50.234687337870419 -18.766300250655863 6.5077233907675902 #
straight-curve $-1 50.234687337870426 -7.3652302469367248 1.3089063356094712 0 1 0 I I #
point $-1 50.234687337870419 -18.766300250655863 1.3089063356094641 #
point $-1 45.451207957406041 -16.460106103923057 1.7422825757451814 #
point $-1 45.451207957406041 -13.000814883823844 1.7422825757451814 #
straight-curve $-1 -45.278180033307699 -29.890533142448902 0 0 0 -1 I I #
point $-1 -45.278180033307699 -29.890533142448902 6.5077233907675902 #
straight-curve $-1 -46.778180033307699 29.890533142448902 6.5077233907675902 -1 0 0 I I #
End-of-ACIS-data 