500 0 11 0           
7 Unknown 11 ACIS 5.0 NT 24 Fri Mar 26 17:15:14 1999 
-1 9.9999999999999995e-007 1e-010 
body $-1 $11 $-1 $12 #
body $-1 $13 $-1 $14 #
body $-1 $15 $-1 $16 #
body $-1 $17 $-1 $18 #
body $-1 $19 $-1 $20 #
body $-1 $21 $-1 $22 #
body $-1 $23 $-1 $24 #
body $-1 $25 $-1 $26 #
body $-1 $27 $-1 $28 #
body $-1 $29 $-1 $30 #
body $-1 $31 $-1 $32 #
lump $-1 $-1 $33 $0 #
transform $-1 1 0 0 0 1 0 0 0 1 49.673146763512072 34.661144735403575 7.8899669286913108 1 rotate no_reflect no_shear #
lump $-1 $-1 $34 $1 #
transform $-1 1 0 0 0 1 0 0 0 1 49.673146763512072 34.661144735403575 7.8899669286913108 1 rotate no_reflect no_shear #
lump $-1 $-1 $35 $2 #
transform $-1 1 0 0 0 1 0 0 0 1 49.673146763512072 34.661144735403575 7.8899669286913108 1 rotate no_reflect no_shear #
lump $-1 $-1 $36 $3 #
transform $-1 1 0 0 0 1 0 0 0 1 49.673146763512072 34.661144735403575 7.8899669286913108 1 rotate no_reflect no_shear #
lump $-1 $-1 $37 $4 #
transform $-1 1 0 0 0 1 0 0 0 1 49.673146763512072 34.661144735403575 7.8899669286913108 1 rotate no_reflect no_shear #
lump $-1 $-1 $38 $5 #
transform $-1 1 0 0 0 1 0 0 0 1 49.673146763512072 34.661144735403575 7.8899669286913108 1 rotate no_reflect no_shear #
lump $-1 $-1 $39 $6 #
transform $-1 1 0 0 0 1 0 0 0 1 49.673146763512072 34.661144735403575 7.8899669286913108 1 rotate no_reflect no_shear #
lump $-1 $-1 $40 $7 #
transform $-1 1 0 0 0 1 0 0 0 1 49.673146763512072 34.661144735403575 7.8899669286913108 1 rotate no_reflect no_shear #
lump $-1 $-1 $41 $8 #
transform $-1 1 0 0 0 1 0 0 0 1 49.673146763512072 34.661144735403575 7.8899669286913108 1 rotate no_reflect no_shear #
lump $-1 $-1 $42 $9 #
transform $-1 1 0 0 0 1 0 0 0 1 49.673146763512072 34.661144735403575 7.8899669286913108 1 rotate no_reflect no_shear #
lump $-1 $-1 $43 $10 #
transform $-1 1 0 0 0 1 0 0 0 1 49.673146763512072 34.661144735403575 7.8899669286913108 1 rotate no_reflect no_shear #
shell $-1 $-1 $-1 $44 $-1 $11 #
shell $-1 $-1 $-1 $45 $-1 $13 #
shell $-1 $-1 $-1 $46 $-1 $15 #
shell $-1 $-1 $-1 $47 $-1 $17 #
shell $-1 $-1 $-1 $48 $-1 $19 #
shell $-1 $-1 $-1 $49 $-1 $21 #
shell $-1 $-1 $-1 $50 $-1 $23 #
shell $-1 $-1 $-1 $51 $-1 $25 #
shell $-1 $-1 $-1 $52 $-1 $27 #
shell $-1 $-1 $-1 $53 $-1 $29 #
shell $-1 $-1 $-1 $54 $-1 $31 #
face $-1 $55 $56 $33 $-1 $57 forward single #
face $-1 $58 $59 $34 $-1 $60 reversed single #
face $-1 $61 $62 $35 $-1 $63 reversed single #
face $-1 $64 $65 $36 $-1 $66 forward single #
face $-1 $67 $68 $37 $-1 $69 forward single #
face $-1 $70 $71 $38 $-1 $72 reversed single #
face $-1 $73 $74 $39 $-1 $75 forward single #
face $-1 $76 $77 $40 $-1 $78 forward single #
face $-1 $79 $80 $41 $-1 $81 reversed single #
face $-1 $82 $83 $42 $-1 $84 forward single #
face $-1 $85 $86 $43 $-1 $87 forward single #
face $-1 $88 $89 $33 $-1 $90 reversed single #
loop $-1 $-1 $91 $44 #
plane-surface $-1 0 0 7.8899669286913108 0 0 1 1 0 0 forward_v I I I I #
face $-1 $92 $93 $34 $-1 $94 reversed single #
loop $-1 $-1 $95 $45 #
plane-surface $-1 -43.28220477348944 -31.164873492854735 0 1 0 0 0 0 -1 forward_v I I I I #
face $-1 $96 $97 $35 $-1 $98 reversed single #
loop $-1 $-1 $99 $46 #
plane-surface $-1 -109.46123945945615 -20.916786844934887 79.862305644048547 0 1 0 -0.6018150307709319 0 0.79863550430605224 forward_v I I I I #
face $-1 $100 $101 $36 $-1 $102 forward single #
loop $-1 $103 $104 $47 #
cone-surface $-1 -44.370192725557096 -17.678218312781066 3.6568430277143538 0.6018150307709319 0 -0.79863550430605224 0.79863550430605224 0 0.6018150307709319 1 I I 0 1 1 forward I I I I #
face $-1 $105 $106 $37 $-1 $107 forward single #
loop $-1 $108 $109 $48 #
cone-surface $-1 -44.370192725557096 -12.820365514550335 3.6568430277143538 0.6018150307709319 0 -0.79863550430605224 0.79863550430605224 0 0.6018150307709319 1 I I 0 1 1 forward I I I I #
face $-1 $110 $111 $38 $-1 $112 reversed single #
loop $-1 $-1 $113 $49 #
plane-surface $-1 -109.46123945945615 16.574339467494202 79.862305644048547 0 1 0 -0.6018150307709319 0 0.79863550430605224 forward_v I I I I #
face $-1 $114 $115 $39 $-1 $116 forward single #
loop $-1 $117 $118 $50 #
cone-surface $-1 -44.370192725557096 19.812907999648026 3.6568430277143538 0.6018150307709319 0 -0.79863550430605224 0.79863550430605224 0 0.6018150307709319 1 I I 0 1 1 forward I I I I #
face $-1 $119 $120 $40 $-1 $121 forward single #
loop $-1 $122 $123 $51 #
cone-surface $-1 -44.370192725557096 24.670760797878749 3.6568430277143538 0.6018150307709319 0 -0.79863550430605224 0.79863550430605224 0 0.6018150307709319 1 I I 0 1 1 forward I I I I #
face $-1 $124 $125 $41 $-1 $126 reversed single #
loop $-1 $-1 $127 $52 #
plane-surface $-1 20.462204956108117 -8.0597131484495836 138.56653522966494 0 -1 0 -0.54463904215088732 0 -0.83867056331134215 forward_v I I I I #
face $-1 $128 $129 $42 $-1 $130 forward single #
loop $-1 $131 $132 $53 #
cone-surface $-1 42.915810376518216 -16.314357670208857 2.1124056554906687 -0.54463904215088732 0 -0.83867056331134215 1.2580058449670133 0 -0.81695856322633098 1 I I 0 1 1.5 forward I I I I #
face $-1 $133 $134 $43 $-1 $135 forward single #
loop $-1 $136 $137 $54 #
cone-surface $-1 42.915810376518216 -11.36157095715329 2.1124056554906687 -0.54463904215088732 0 -0.83867056331134215 1.2580058449670133 0 -0.81695856322633098 1 I I 0 1 1.5 forward I I I I #
face $-1 $138 $139 $33 $-1 $140 reversed single #
loop $-1 $-1 $141 $55 #
plane-surface $-1 0 0 -7.8899669286913108 0 0 1 1 0 0 forward_v I I I I #
coedge $-1 $142 $143 $144 $145 forward $56 $-1 #
face $-1 $146 $147 $34 $-1 $148 reversed single #
loop $-1 $-1 $149 $58 #
plane-surface $-1 -41.78220477348944 -27.668602250305895 0 0 -1 0 0 0 -1 forward_v I I I I #
coedge $-1 $150 $151 $152 $153 forward $59 $-1 #
face $-1 $154 $155 $35 $-1 $156 reversed single #
loop $-1 $-1 $157 $61 #
plane-surface $-1 -49.673146763512086 -15.249291913665701 0.52082841215653275 -0.6018150307709319 0 0.79863550430605224 0.79863550430605224 0 0.6018150307709319 forward_v I I I I #
coedge $-1 $158 $159 $160 $161 reversed $62 $-1 #
face $-1 $-1 $162 $36 $-1 $163 forward single #
loop $-1 $164 $165 $64 #
cone-surface $-1 -43.655919629250398 -17.678218312781066 2.7089706328517673 0.6018150307709319 0 -0.79863550430605224 0.39931775215302612 0 0.30090751538546595 1 I I -0.70710678118654746 0.70710678118654746 0.5 forward I I I I #
loop $-1 $-1 $166 $47 #
coedge $-1 $104 $104 $167 $168 reversed $65 $-1 #
face $-1 $-1 $169 $37 $-1 $170 forward single #
loop $-1 $171 $172 $67 #
cone-surface $-1 -43.655919629250398 -12.820365514550335 2.7089706328517673 0.6018150307709319 0 -0.79863550430605224 0.39931775215302612 0 0.30090751538546595 1 I I -0.70710678118654746 0.70710678118654746 0.5 forward I I I I #
loop $-1 $-1 $173 $48 #
coedge $-1 $109 $109 $174 $175 reversed $68 $-1 #
face $-1 $176 $177 $38 $-1 $178 reversed single #
loop $-1 $-1 $179 $70 #
plane-surface $-1 -49.673146763512086 22.241834398763388 0.52082841215653275 -0.6018150307709319 0 0.79863550430605224 0.79863550430605224 0 0.6018150307709319 forward_v I I I I #
coedge $-1 $180 $181 $182 $183 reversed $71 $-1 #
face $-1 $-1 $184 $39 $-1 $185 forward single #
loop $-1 $186 $187 $73 #
cone-surface $-1 -43.655919629250398 19.812907999648026 2.7089706328517673 0.6018150307709319 0 -0.79863550430605224 0.39931775215302612 0 0.30090751538546595 1 I I -0.70710678118654746 0.70710678118654746 0.5 forward I I I I #
loop $-1 $-1 $188 $50 #
coedge $-1 $118 $118 $189 $190 reversed $74 $-1 #
face $-1 $-1 $191 $40 $-1 $192 forward single #
loop $-1 $193 $194 $76 #
cone-surface $-1 -43.655919629250398 24.670760797878749 2.7089706328517673 0.6018150307709319 0 -0.79863550430605224 0.39931775215302612 0 0.30090751538546595 1 I I -0.70710678118654746 0.70710678118654746 0.5 forward I I I I #
loop $-1 $-1 $195 $51 #
coedge $-1 $123 $123 $196 $197 reversed $77 $-1 #
face $-1 $198 $199 $41 $-1 $200 reversed single #
loop $-1 $-1 $201 $79 #
plane-surface $-1 -33.645665191691208 -13.837964313681077 55.247723274461649 0.54463904215088732 0 0.83867056331134215 0.83867056331134215 0 -0.54463904215088732 forward_v I I I I #
coedge $-1 $202 $203 $204 $205 reversed $80 $-1 #
face $-1 $-1 $206 $42 $-1 $207 forward single #
loop $-1 $208 $209 $82 #
cone-surface $-1 40.947126483854426 -16.314357670208857 -0.91910163917897858 -0.54463904215088732 0 -0.83867056331134215 0.62900292248350664 0 -0.40847928161316549 1 I I -0.70710678118654757 0.70710678118654757 0.75 forward I I I I #
loop $-1 $-1 $210 $53 #
coedge $-1 $132 $132 $211 $212 reversed $83 $-1 #
face $-1 $-1 $213 $43 $-1 $214 forward single #
loop $-1 $215 $216 $85 #
cone-surface $-1 40.947126483854426 -11.36157095715329 -0.91910163917897858 -0.54463904215088732 0 -0.83867056331134215 0.62900292248350664 0 -0.40847928161316549 1 I I -0.70710678118654757 0.70710678118654757 0.75 forward I I I I #
loop $-1 $-1 $217 $54 #
coedge $-1 $137 $137 $218 $219 reversed $86 $-1 #
face $-1 $220 $221 $33 $-1 $222 reversed single #
loop $-1 $-1 $223 $88 #
plane-surface $-1 0 -34.661144735403575 0 0 1 0 0 0 1 forward_v I I I I #
coedge $-1 $224 $225 $226 $227 forward $89 $-1 #
coedge $-1 $228 $91 $229 $230 forward $56 $-1 #
coedge $-1 $91 $228 $231 $232 forward $56 $-1 #
coedge $-1 $233 $234 $91 $145 reversed $235 $-1 #
edge $-1 $236 -34.661144735403575 $237 34.661144735403575 $144 $238 forward 7 unknown #
face $-1 $239 $240 $34 $-1 $241 forward single #
loop $-1 $-1 $242 $92 #
plane-surface $-1 -40.28220477348944 -31.164873492854735 0 -1 0 0 0 0 1 forward_v I I I I #
coedge $-1 $243 $244 $245 $246 forward $93 $-1 #
coedge $-1 $247 $95 $248 $249 reversed $59 $-1 #
coedge $-1 $95 $247 $250 $251 reversed $59 $-1 #
coedge $-1 $244 $243 $95 $153 reversed $93 $-1 #
edge $-1 $252 -7.8899669286913108 $253 7.8899669286913108 $152 $254 forward 7 unknown #
face $-1 $255 $256 $35 $-1 $257 reversed single #
loop $-1 $-1 $258 $96 #
plane-surface $-1 -109.46123945945615 -9.581796982396515 79.862305644048547 0 -1 0 0.6018150307709319 0 -0.79863550430605224 forward_v I I I I #
coedge $-1 $259 $260 $261 $262 reversed $97 $-1 #
coedge $-1 $159 $99 $263 $264 reversed $62 $-1 #
coedge $-1 $99 $158 $259 $265 reversed $62 $-1 #
coedge $-1 $261 $266 $99 $161 forward $267 $-1 #
edge $-1 $268 5.0574729662160038 $269 14.836649880283467 $160 $270 forward 7 unknown #
loop $-1 $-1 $167 $100 #
plane-surface $-1 -49.673146763512086 -15.249291913665701 0.52082841215653275 -0.6018150307709319 0 0.79863550430605224 0.79863550430605224 0 0.6018150307709319 forward_v I I I I #
loop $-1 $-1 $271 $64 #
coedge $-1 $165 $165 $166 $272 reversed $101 $-1 #
coedge $-1 $166 $166 $165 $272 forward $103 $-1 #
coedge $-1 $167 $167 $104 $168 forward $162 $-1 #
edge $-1 $273 0 $273 6.2831853071796004 $167 $274 forward 7 unknown #
loop $-1 $-1 $174 $105 #
plane-surface $-1 -49.673146763512086 -15.249291913665701 0.52082841215653275 -0.6018150307709319 0 0.79863550430605224 0.79863550430605224 0 0.6018150307709319 forward_v I I I I #
loop $-1 $-1 $275 $67 #
coedge $-1 $172 $172 $173 $276 reversed $106 $-1 #
coedge $-1 $173 $173 $172 $276 forward $108 $-1 #
coedge $-1 $174 $174 $109 $175 forward $169 $-1 #
edge $-1 $277 0 $277 6.2831853071796004 $174 $278 forward 7 unknown #
face $-1 $279 $280 $38 $-1 $281 forward single #
loop $-1 $-1 $282 $110 #
plane-surface $-1 -109.46123945945615 27.909329330032573 79.862305644048547 0 -1 0 0.6018150307709319 0 -0.79863550430605224 forward_v I I I I #
coedge $-1 $283 $284 $285 $286 reversed $111 $-1 #
coedge $-1 $181 $113 $287 $288 reversed $71 $-1 #
coedge $-1 $113 $180 $283 $289 reversed $71 $-1 #
coedge $-1 $285 $290 $113 $183 forward $280 $-1 #
edge $-1 $291 5.0574729662160038 $292 14.836649880283467 $182 $293 forward 7 unknown #
loop $-1 $-1 $189 $114 #
plane-surface $-1 -49.673146763512086 22.241834398763388 0.52082841215653275 -0.6018150307709319 0 0.79863550430605224 0.79863550430605224 0 0.6018150307709319 forward_v I I I I #
loop $-1 $-1 $294 $73 #
coedge $-1 $187 $187 $188 $295 reversed $115 $-1 #
coedge $-1 $188 $188 $187 $295 forward $117 $-1 #
coedge $-1 $189 $189 $118 $190 forward $184 $-1 #
edge $-1 $296 0 $296 6.2831853071796004 $189 $297 forward 7 unknown #
loop $-1 $-1 $196 $119 #
plane-surface $-1 -49.673146763512086 22.241834398763388 0.52082841215653275 -0.6018150307709319 0 0.79863550430605224 0.79863550430605224 0 0.6018150307709319 forward_v I I I I #
loop $-1 $-1 $298 $76 #
coedge $-1 $194 $194 $195 $299 reversed $120 $-1 #
coedge $-1 $195 $195 $194 $299 forward $122 $-1 #
coedge $-1 $196 $196 $123 $197 forward $191 $-1 #
edge $-1 $300 0 $300 6.2831853071796004 $196 $301 forward 7 unknown #
face $-1 $302 $303 $41 $-1 $304 forward single #
loop $-1 $-1 $305 $124 #
plane-surface $-1 20.462204956108117 -19.616215478912572 138.56653522966494 0 1 0 0.54463904215088732 0 0.83867056331134215 forward_v I I I I #
coedge $-1 $306 $307 $308 $309 reversed $125 $-1 #
coedge $-1 $203 $127 $310 $311 reversed $80 $-1 #
coedge $-1 $127 $202 $306 $312 reversed $80 $-1 #
coedge $-1 $308 $313 $127 $205 forward $303 $-1 #
edge $-1 $314 -39.44204428545801 $315 -29.047780733571567 $204 $316 forward 7 unknown #
loop $-1 $-1 $211 $128 #
plane-surface $-1 -33.645665191691208 -13.837964313681077 55.247723274461649 0.54463904215088732 0 0.83867056331134215 0.83867056331134215 0 -0.54463904215088732 forward_v I I I I #
loop $-1 $-1 $317 $82 #
coedge $-1 $209 $209 $210 $318 reversed $129 $-1 #
coedge $-1 $210 $210 $209 $318 forward $131 $-1 #
coedge $-1 $211 $211 $132 $212 forward $206 $-1 #
edge $-1 $319 0 $319 6.2831853071796004 $211 $320 forward 7 unknown #
loop $-1 $-1 $218 $133 #
plane-surface $-1 -33.645665191691208 -13.837964313681077 55.247723274461649 0.54463904215088732 0 0.83867056331134215 0.83867056331134215 0 -0.54463904215088732 forward_v I I I I #
loop $-1 $-1 $321 $85 #
coedge $-1 $216 $216 $217 $322 reversed $134 $-1 #
coedge $-1 $217 $217 $216 $322 forward $136 $-1 #
coedge $-1 $218 $218 $137 $219 forward $213 $-1 #
edge $-1 $323 0 $323 6.2831853071796004 $218 $324 forward 7 unknown #
face $-1 $325 $326 $33 $-1 $327 reversed single #
loop $-1 $-1 $328 $138 #
plane-surface $-1 -49.673146763512072 0 0 1 0 0 0 0 -1 forward_v I I I I #
coedge $-1 $329 $231 $330 $331 forward $139 $-1 #
coedge $-1 $332 $141 $329 $333 forward $89 $-1 #
coedge $-1 $141 $332 $334 $335 forward $89 $-1 #
coedge $-1 $234 $233 $141 $227 reversed $235 $-1 #
edge $-1 $336 -34.661144735403575 $337 34.661144735403575 $226 $338 forward 7 unknown #
coedge $-1 $143 $142 $339 $340 forward $56 $-1 #
coedge $-1 $341 $342 $142 $230 reversed $326 $-1 #
edge $-1 $237 -49.673146763512072 $343 49.673146763512072 $229 $344 forward 7 unknown #
coedge $-1 $223 $345 $143 $232 reversed $139 $-1 #
edge $-1 $346 -49.673146763512072 $236 49.673146763512072 $231 $347 forward 7 unknown #
coedge $-1 $226 $144 $345 $348 forward $235 $-1 #
coedge $-1 $144 $226 $341 $349 reversed $235 $-1 #
loop $-1 $-1 $233 $325 #
vertex $-1 $145 $350 #
vertex $-1 $145 $351 #
straight-curve $-1 49.673146763512072 0 7.8899669286913108 0 1 0 I I #
face $-1 $352 $353 $34 $-1 $354 reversed single #
loop $-1 $-1 $355 $146 #
plane-surface $-1 0 0 7.8899669286913108 0 0 1 1 0 0 forward_v I I I I #
coedge $-1 $356 $357 $358 $359 reversed $147 $-1 #
coedge $-1 $152 $149 $360 $361 reversed $93 $-1 #
coedge $-1 $149 $152 $362 $363 reversed $93 $-1 #
coedge $-1 $357 $356 $149 $246 reversed $147 $-1 #
edge $-1 $364 -7.8899669286913108 $365 7.8899669286913108 $245 $366 forward 7 unknown #
coedge $-1 $151 $150 $367 $368 reversed $59 $-1 #
coedge $-1 $360 $369 $150 $249 forward $353 $-1 #
edge $-1 $370 -19.078707988976205 $253 -12.086165503878528 $248 $371 forward 7 unknown #
coedge $-1 $372 $362 $151 $251 forward $240 $-1 #
edge $-1 $252 12.086165503878528 $373 19.078707988976205 $250 $374 forward 7 unknown #
vertex $-1 $251 $375 #
vertex $-1 $249 $376 #
straight-curve $-1 -43.28220477348944 -27.668602250305895 0 0 0 -1 I I #
face $-1 $-1 $267 $35 $-1 $377 forward single #
loop $-1 $-1 $378 $154 #
plane-surface $-1 -49.673146763512072 0 0 1 0 0 0 0 -1 forward_v I I I I #
coedge $-1 $379 $380 $381 $382 reversed $155 $-1 #
coedge $-1 $383 $157 $159 $265 forward $97 $-1 #
coedge $-1 $157 $383 $379 $384 forward $97 $-1 #
coedge $-1 $381 $160 $157 $262 forward $267 $-1 #
edge $-1 $269 -13.292140888102036 $385 -1.9571510255636646 $261 $386 forward 7 unknown #
coedge $-1 $387 $388 $158 $264 forward $256 $-1 #
edge $-1 $389 -39.410324409867727 $268 -32.041185893332965 $263 $390 forward 7 unknown #
edge $-1 $269 -12.24485620954802 $389 -1.7763522597878294e-014 $159 $391 forward 7 unknown #
coedge $-1 $160 $381 $387 $392 forward $267 $-1 #
loop $-1 $-1 $381 $255 #
vertex $-1 $264 $393 #
vertex $-1 $161 $394 #
straight-curve $-1 -54.730619729728076 -20.916786844934887 7.8899669286913081 1 0 0 I I #
coedge $-1 $271 $271 $-1 $395 reversed $164 $-1 #
edge $-1 $396 0 $396 6.2831853071796004 $165 $397 forward 7 unknown #
vertex $-1 $168 $398 #
ellipse-curve $-1 -44.783558306478341 -17.678218312781066 4.2053976704239284 -0.6018150307709319 0 0.79863550430605224 0.79863550430605224 0 0.6018150307709319 1 I I #
coedge $-1 $275 $275 $-1 $399 reversed $171 $-1 #
edge $-1 $400 0 $400 6.2831853071796004 $172 $401 forward 7 unknown #
vertex $-1 $175 $402 #
ellipse-curve $-1 -44.783558306478341 -12.820365514550335 4.2053976704239284 -0.6018150307709319 0 0.79863550430605224 0.79863550430605224 0 0.6018150307709319 1 I I #
face $-1 $-1 $403 $38 $-1 $404 reversed single #
loop $-1 $-1 $182 $176 #
plane-surface $-1 0 0 7.8899669286913108 0 0 1 1 0 0 forward_v I I I I #
coedge $-1 $405 $406 $407 $408 reversed $177 $-1 #
coedge $-1 $409 $179 $181 $289 forward $111 $-1 #
coedge $-1 $179 $409 $405 $410 forward $111 $-1 #
coedge $-1 $407 $182 $179 $286 forward $280 $-1 #
edge $-1 $292 5.453422268112508 $411 16.78841213065088 $285 $412 forward 7 unknown #
coedge $-1 $413 $414 $180 $288 forward $403 $-1 #
edge $-1 $415 -39.410324409867727 $291 -32.041185893332965 $287 $416 forward 7 unknown #
edge $-1 $292 -12.24485620954802 $415 -1.7763522597878294e-014 $181 $417 forward 7 unknown #
coedge $-1 $182 $407 $413 $418 forward $280 $-1 #
vertex $-1 $288 $419 #
vertex $-1 $183 $420 #
straight-curve $-1 -54.730619729728076 16.574339467494202 7.8899669286913081 1 0 0 I I #
coedge $-1 $294 $294 $-1 $421 reversed $186 $-1 #
edge $-1 $422 0 $422 6.2831853071796004 $187 $423 forward 7 unknown #
vertex $-1 $190 $424 #
ellipse-curve $-1 -44.783558306478341 19.812907999648026 4.2053976704239284 -0.6018150307709319 0 0.79863550430605224 0.79863550430605224 0 0.6018150307709319 1 I I #
coedge $-1 $298 $298 $-1 $425 reversed $193 $-1 #
edge $-1 $426 0 $426 6.2831853071796004 $194 $427 forward 7 unknown #
vertex $-1 $197 $428 #
ellipse-curve $-1 -44.783558306478341 24.670760797878749 4.2053976704239284 -0.6018150307709319 0 0.79863550430605224 0.79863550430605224 0 0.6018150307709319 1 I I #
face $-1 $-1 $429 $41 $-1 $430 reversed single #
loop $-1 $-1 $204 $198 #
plane-surface $-1 0 0 7.8899669286913108 0 0 1 1 0 0 forward_v I I I I #
coedge $-1 $431 $432 $433 $434 reversed $199 $-1 #
coedge $-1 $435 $201 $203 $312 forward $125 $-1 #
coedge $-1 $201 $435 $431 $436 forward $125 $-1 #
coedge $-1 $433 $204 $201 $309 forward $303 $-1 #
edge $-1 $315 1.1407309916090451 $437 12.697233322072034 $308 $438 forward 7 unknown #
coedge $-1 $439 $440 $202 $311 forward $429 $-1 #
edge $-1 $441 -68.143414488170137 $314 -61.39330068614116 $310 $442 forward 7 unknown #
edge $-1 $315 86.952555143210432 $441 99.34629352702413 $203 $443 forward 7 unknown #
coedge $-1 $204 $433 $439 $444 forward $303 $-1 #
vertex $-1 $311 $445 #
vertex $-1 $205 $446 #
straight-curve $-1 10.231102478054058 -8.0597131484495836 7.8899669286913081 -1 0 0 I I #
coedge $-1 $317 $317 $-1 $447 reversed $208 $-1 #
edge $-1 $448 0 $448 6.2831853071796004 $209 $449 forward 7 unknown #
vertex $-1 $212 $450 #
ellipse-curve $-1 44.476014987568838 -16.314357670208857 4.5149100276768124 0.54463904215088732 0 0.83867056331134215 1.2580058449670133 0 -0.81695856322633098 1 I I #
coedge $-1 $321 $321 $-1 $451 reversed $215 $-1 #
edge $-1 $452 0 $452 6.2831853071796004 $216 $453 forward 7 unknown #
vertex $-1 $219 $454 #
ellipse-curve $-1 44.476014987568838 -11.36157095715329 4.5149100276768124 0.54463904215088732 0 0.83867056331134215 1.2580058449670133 0 -0.81695856322633098 1 I I #
face $-1 $-1 $235 $33 $-1 $455 reversed single #
loop $-1 $-1 $341 $220 #
plane-surface $-1 0 34.661144735403575 0 0 -1 0 0 0 -1 forward_v I I I I #
coedge $-1 $456 $339 $342 $457 forward $221 $-1 #
coedge $-1 $345 $223 $224 $333 reversed $139 $-1 #
coedge $-1 $339 $456 $223 $331 reversed $221 $-1 #
edge $-1 $346 -7.8899669286913108 $458 7.8899669286913108 $330 $459 forward 7 unknown #
coedge $-1 $225 $224 $456 $460 forward $89 $-1 #
edge $-1 $337 -49.673146763512072 $458 49.673146763512072 $329 $461 forward 7 unknown #
coedge $-1 $342 $341 $225 $335 reversed $326 $-1 #
edge $-1 $462 -49.673146763512072 $336 49.673146763512072 $334 $463 forward 7 unknown #
vertex $-1 $227 $464 #
vertex $-1 $348 $465 #
straight-curve $-1 49.673146763512072 0 -7.8899669286913108 0 -1 0 I I #
coedge $-1 $328 $330 $228 $340 reversed $221 $-1 #
edge $-1 $343 -34.661144735403575 $346 34.661144735403575 $339 $466 forward 7 unknown #
coedge $-1 $334 $229 $234 $349 forward $326 $-1 #
coedge $-1 $229 $334 $328 $457 reversed $326 $-1 #
vertex $-1 $230 $467 #
straight-curve $-1 0 34.661144735403575 7.8899669286913108 -1 0 0 I I #
coedge $-1 $231 $329 $233 $348 reversed $139 $-1 #
vertex $-1 $340 $468 #
straight-curve $-1 0 -34.661144735403575 7.8899669286913108 1 0 0 I I #
edge $-1 $236 -7.8899669286913108 $337 7.8899669286913108 $233 $469 forward 7 unknown #
edge $-1 $237 -7.8899669286913108 $336 7.8899669286913108 $234 $470 forward 7 unknown #
point $-1 49.673146763512072 -34.661144735403575 7.8899669286913108 #
point $-1 49.673146763512072 34.661144735403575 7.8899669286913108 #
face $-1 $-1 $471 $34 $-1 $472 reversed single #
loop $-1 $-1 $473 $239 #
plane-surface $-1 0 0 -7.8899669286913108 0 0 1 1 0 0 forward_v I I I I #
coedge $-1 $362 $372 $357 $474 forward $240 $-1 #
coedge $-1 $245 $242 $473 $475 reversed $147 $-1 #
coedge $-1 $242 $245 $355 $474 reversed $147 $-1 #
coedge $-1 $476 $477 $242 $359 forward $471 $-1 #
edge $-1 $478 -7.8899669286913108 $479 7.8899669286913108 $358 $480 forward 7 unknown #
coedge $-1 $473 $248 $243 $361 forward $353 $-1 #
edge $-1 $253 -22.39110238674472 $365 -19.39110238674472 $360 $481 forward 7 unknown #
coedge $-1 $250 $355 $244 $363 forward $240 $-1 #
edge $-1 $364 19.39110238674472 $252 22.39110238674472 $362 $482 forward 7 unknown #
vertex $-1 $363 $483 #
vertex $-1 $361 $484 #
straight-curve $-1 -40.28220477348944 -27.668602250305895 0 0 0 -1 I I #
coedge $-1 $477 $476 $247 $368 forward $471 $-1 #
edge $-1 $373 -7.8899669286913108 $370 7.8899669286913108 $367 $485 forward 7 unknown #
coedge $-1 $248 $473 $477 $486 forward $353 $-1 #
vertex $-1 $249 $487 #
straight-curve $-1 -43.28220477348944 -15.582436746427367 -7.8899669286913108 0 1 0 I I #
coedge $-1 $355 $250 $476 $488 forward $240 $-1 #
vertex $-1 $488 $489 #
straight-curve $-1 -43.28220477348944 -15.582436746427367 7.8899669286913108 0 -1 0 I I #
point $-1 -43.28220477348944 -27.668602250305895 7.8899669286913108 #
point $-1 -43.28220477348944 -27.668602250305895 -7.8899669286913108 #
plane-surface $-1 0 0 7.8899669286913108 0 0 1 1 0 0 forward_v I I I I #
coedge $-1 $388 $387 $380 $490 forward $256 $-1 #
coedge $-1 $380 $258 $260 $384 reversed $155 $-1 #
coedge $-1 $258 $379 $378 $490 reversed $155 $-1 #
coedge $-1 $266 $261 $258 $382 forward $267 $-1 #
edge $-1 $385 -14.836649880283467 $491 -5.0574729662160038 $381 $492 forward 7 unknown #
coedge $-1 $260 $259 $388 $493 reversed $97 $-1 #
edge $-1 $494 1.7763522597878294e-014 $385 12.24485620954802 $379 $495 forward 7 unknown #
vertex $-1 $262 $496 #
straight-curve $-1 -39.893969849444609 -7.6246459568328504 7.8899669286913117 0 1 0 I I #
coedge $-1 $378 $263 $266 $392 reversed $256 $-1 #
coedge $-1 $263 $378 $383 $493 forward $256 $-1 #
vertex $-1 $264 $497 #
straight-curve $-1 -49.673146763512072 -20.916786844934887 39.931152822024274 0 0 1 I I #
straight-curve $-1 -49.673146763512086 -20.916786844934887 0.52082841215653275 -0.79863550430605224 0 -0.6018150307709319 I I #
edge $-1 $491 9.581796982396515 $268 20.916786844934887 $387 $498 forward 7 unknown #
point $-1 -49.673146763512072 -20.916786844934887 7.8899669286913108 #
point $-1 -39.893969849444609 -20.916786844934887 7.8899669286913108 #
edge $-1 $499 1 $499 0 $271 $-1 forward 7 unknown #
vertex $-1 $272 $500 #
ellipse-curve $-1 -43.956827144635866 -17.678218312781066 3.1082883850047933 -0.6018150307709319 0 0.79863550430605224 0.79863550430605224 0 0.6018150307709319 1 I I #
point $-1 -43.984922802172271 -17.678218312781066 4.807212701194846 #
edge $-1 $501 1 $501 0 $275 $-1 forward 7 unknown #
vertex $-1 $276 $502 #
ellipse-curve $-1 -43.956827144635866 -12.820365514550335 3.1082883850047933 -0.6018150307709319 0 0.79863550430605224 0.79863550430605224 0 0.6018150307709319 1 I I #
point $-1 -43.984922802172271 -12.820365514550335 4.807212701194846 #
loop $-1 $-1 $287 $279 #
plane-surface $-1 -49.673146763512072 0 0 1 0 0 0 0 -1 forward_v I I I I #
coedge $-1 $406 $282 $284 $410 reversed $177 $-1 #
coedge $-1 $282 $405 $503 $504 reversed $177 $-1 #
coedge $-1 $290 $285 $282 $408 forward $280 $-1 #
edge $-1 $411 -14.836649880283467 $505 -5.0574729662160038 $407 $506 forward 7 unknown #
coedge $-1 $284 $283 $414 $507 reversed $111 $-1 #
edge $-1 $508 1.7763522597878294e-014 $411 12.24485620954802 $405 $509 forward 7 unknown #
vertex $-1 $286 $510 #
straight-curve $-1 -39.893969849444609 11.120917199381694 7.8899669286913117 0 1 0 I I #
coedge $-1 $503 $287 $290 $418 reversed $403 $-1 #
coedge $-1 $287 $503 $409 $507 forward $403 $-1 #
vertex $-1 $288 $511 #
straight-curve $-1 -49.673146763512072 16.574339467494202 39.931152822024274 0 0 1 I I #
straight-curve $-1 -49.673146763512086 16.574339467494202 0.52082841215653275 -0.79863550430605224 0 -0.6018150307709319 I I #
edge $-1 $505 -27.909329330032573 $291 -16.574339467494202 $413 $512 forward 7 unknown #
point $-1 -49.673146763512072 16.574339467494202 7.8899669286913108 #
point $-1 -39.893969849444609 16.574339467494202 7.8899669286913108 #
edge $-1 $513 1 $513 0 $294 $-1 forward 7 unknown #
vertex $-1 $295 $514 #
ellipse-curve $-1 -43.956827144635866 19.812907999648026 3.1082883850047933 -0.6018150307709319 0 0.79863550430605224 0.79863550430605224 0 0.6018150307709319 1 I I #
point $-1 -43.984922802172271 19.812907999648026 4.807212701194846 #
edge $-1 $515 1 $515 0 $298 $-1 forward 7 unknown #
vertex $-1 $299 $516 #
ellipse-curve $-1 -43.956827144635866 24.670760797878749 3.1082883850047933 -0.6018150307709319 0 0.79863550430605224 0.79863550430605224 0 0.6018150307709319 1 I I #
point $-1 -43.984922802172271 24.670760797878749 4.807212701194846 #
loop $-1 $-1 $310 $302 #
plane-surface $-1 49.673146763512072 0 0 -1 0 0 0 0 1 forward_v I I I I #
coedge $-1 $432 $305 $307 $436 reversed $199 $-1 #
coedge $-1 $305 $431 $517 $518 reversed $199 $-1 #
coedge $-1 $313 $308 $305 $434 forward $303 $-1 #
edge $-1 $437 29.047780733571567 $519 39.44204428545801 $433 $520 forward 7 unknown #
coedge $-1 $307 $306 $440 $521 reversed $125 $-1 #
edge $-1 $522 -99.34629352702413 $437 -86.952555143210432 $431 $523 forward 7 unknown #
vertex $-1 $309 $524 #
straight-curve $-1 39.278883211625633 -6.9189821568405385 7.889966928691301 0 -1 0 I I #
coedge $-1 $517 $310 $313 $444 reversed $429 $-1 #
coedge $-1 $310 $517 $435 $521 forward $429 $-1 #
vertex $-1 $311 $525 #
straight-curve $-1 49.673146763512072 -8.0597131484495836 69.283267614832468 0 0 1 I I #
straight-curve $-1 -33.645665191691208 -8.0597131484495836 55.247723274461649 0.83867056331134215 0 -0.54463904215088732 I I #
edge $-1 $519 -19.616215478912572 $314 -8.0597131484495836 $439 $526 forward 7 unknown #
point $-1 49.673146763512072 -8.0597131484495836 7.8899669286913108 #
point $-1 39.278883211625626 -8.0597131484495836 7.8899669286913081 #
edge $-1 $527 1 $527 0 $317 $-1 forward 7 unknown #
vertex $-1 $318 $528 #
ellipse-curve $-1 41.355605765467594 -16.314357670208857 -0.29009871669547194 0.54463904215088732 0 0.83867056331134215 1.2580058449670133 0 -0.81695856322633098 1 I I #
point $-1 45.734020832535847 -16.314357670208857 3.6979514644504787 #
edge $-1 $529 1 $529 0 $321 $-1 forward 7 unknown #
vertex $-1 $322 $530 #
ellipse-curve $-1 41.355605765467594 -11.36157095715329 -0.29009871669547194 0.54463904215088732 0 0.83867056331134215 1.2580058449670133 0 -0.81695856322633098 1 I I #
point $-1 45.734020832535847 -11.36157095715329 3.6979514644504787 #
plane-surface $-1 49.673146763512072 0 0 -1 0 0 0 0 1 forward_v I I I I #
coedge $-1 $330 $328 $332 $460 reversed $221 $-1 #
edge $-1 $343 -7.8899669286913108 $462 7.8899669286913108 $342 $531 forward 7 unknown #
vertex $-1 $460 $532 #
straight-curve $-1 -49.673146763512072 -34.661144735403575 0 0 0 -1 I I #
edge $-1 $458 -34.661144735403575 $462 34.661144735403575 $456 $533 forward 7 unknown #
straight-curve $-1 0 -34.661144735403575 -7.8899669286913108 -1 0 0 I I #
vertex $-1 $335 $534 #
straight-curve $-1 0 34.661144735403575 -7.8899669286913108 1 0 0 I I #
point $-1 49.673146763512072 34.661144735403575 -7.8899669286913108 #
point $-1 49.673146763512072 -34.661144735403575 -7.8899669286913108 #
straight-curve $-1 -49.673146763512072 0 7.8899669286913108 0 -1 0 I I #
point $-1 -49.673146763512072 34.661144735403575 7.8899669286913108 #
point $-1 -49.673146763512072 -34.661144735403575 7.8899669286913108 #
straight-curve $-1 49.673146763512072 -34.661144735403575 0 0 0 -1 I I #
straight-curve $-1 49.673146763512072 34.661144735403575 0 0 0 -1 I I #
loop $-1 $-1 $358 $352 #
plane-surface $-1 0 -34.661144735403575 0 0 1 0 0 0 1 forward_v I I I I #
coedge $-1 $369 $360 $356 $475 forward $353 $-1 #
edge $-1 $479 -19.078707988976205 $364 -12.086165503878528 $355 $535 forward 7 unknown #
edge $-1 $365 12.086165503878528 $478 19.078707988976205 $473 $536 forward 7 unknown #
coedge $-1 $367 $358 $372 $488 reversed $471 $-1 #
coedge $-1 $358 $367 $369 $486 reversed $471 $-1 #
vertex $-1 $486 $537 #
vertex $-1 $359 $538 #
straight-curve $-1 -40.28220477348944 -34.661144735403575 0 0 0 1 I I #
straight-curve $-1 -20.89110238674472 -27.668602250305895 -7.8899669286913108 1 0 0 I I #
straight-curve $-1 -20.89110238674472 -27.668602250305895 7.8899669286913108 -1 0 0 I I #
point $-1 -40.28220477348944 -27.668602250305895 7.8899669286913108 #
point $-1 -40.28220477348944 -27.668602250305895 -7.8899669286913108 #
straight-curve $-1 -43.28220477348944 -34.661144735403575 0 0 0 -1 I I #
edge $-1 $478 40.28220477348944 $370 43.28220477348944 $477 $539 forward 7 unknown #
point $-1 -43.28220477348944 -34.661144735403575 -7.8899669286913108 #
edge $-1 $373 -43.28220477348944 $479 -40.28220477348944 $476 $540 forward 7 unknown #
point $-1 -43.28220477348944 -34.661144735403575 7.8899669286913108 #
edge $-1 $491 32.041185893332965 $494 39.410324409867727 $378 $541 forward 7 unknown #
vertex $-1 $392 $542 #
straight-curve $-1 -54.730619729728076 -9.581796982396515 7.8899669286913081 -1 0 0 I I #
edge $-1 $494 1.9571510255636646 $389 13.292140888102036 $388 $543 forward 7 unknown #
vertex $-1 $493 $544 #
straight-curve $-1 -49.673146763512086 -9.581796982396515 0.52082841215653275 0.79863550430605224 0 0.6018150307709319 I I #
point $-1 -39.893969849444609 -9.581796982396515 7.8899669286913108 #
point $-1 -49.673146763512072 -20.916786844934887 0.52082841215654341 #
straight-curve $-1 -49.673146763512072 0 7.8899669286913108 0 -1 0 I I #
vertex $-1 $395 $545 #
point $-1 -43.158191640329811 -17.678218312781066 3.7101034157757251 #
vertex $-1 $399 $546 #
point $-1 -43.158191640329811 -12.820365514550335 3.7101034157757251 #
coedge $-1 $414 $413 $406 $504 forward $403 $-1 #
edge $-1 $505 32.041185893332965 $508 39.410324409867727 $503 $547 forward 7 unknown #
vertex $-1 $418 $548 #
straight-curve $-1 -54.730619729728076 27.909329330032573 7.8899669286913081 -1 0 0 I I #
edge $-1 $508 -16.78841213065088 $415 -5.453422268112508 $414 $549 forward 7 unknown #
vertex $-1 $507 $550 #
straight-curve $-1 -49.673146763512086 27.909329330032573 0.52082841215653275 0.79863550430605224 0 0.6018150307709319 I I #
point $-1 -39.893969849444609 27.909329330032573 7.8899669286913108 #
point $-1 -49.673146763512072 16.574339467494202 0.52082841215654341 #
straight-curve $-1 -49.673146763512072 0 7.8899669286913108 0 -1 0 I I #
vertex $-1 $421 $551 #
point $-1 -43.158191640329811 19.812907999648026 3.7101034157757251 #
vertex $-1 $425 $552 #
point $-1 -43.158191640329811 24.670760797878749 3.7101034157757251 #
coedge $-1 $440 $439 $432 $518 forward $429 $-1 #
edge $-1 $519 61.39330068614116 $522 68.143414488170137 $517 $553 forward 7 unknown #
vertex $-1 $444 $554 #
straight-curve $-1 10.231102478054058 -19.616215478912572 7.8899669286913081 1 0 0 I I #
edge $-1 $522 -12.697233322072034 $441 -1.1407309916090451 $440 $555 forward 7 unknown #
vertex $-1 $521 $556 #
straight-curve $-1 -33.645665191691208 -19.616215478912572 55.247723274461649 -0.83867056331134215 0 0.54463904215088732 I I #
point $-1 39.278883211625626 -19.616215478912572 7.8899669286913081 #
point $-1 49.673146763512065 -8.0597131484495836 1.1398531266623309 #
straight-curve $-1 49.673146763512072 0 7.8899669286913108 0 1 0 I I #
vertex $-1 $447 $557 #
point $-1 42.613611610434603 -16.314357670208857 -1.1070572799218028 #
vertex $-1 $451 $558 #
point $-1 42.613611610434603 -11.36157095715329 -1.1070572799218028 #
straight-curve $-1 -49.673146763512072 34.661144735403575 0 0 0 -1 I I #
point $-1 -49.673146763512072 -34.661144735403575 -7.8899669286913108 #
straight-curve $-1 -49.673146763512072 0 -7.8899669286913108 0 1 0 I I #
point $-1 -49.673146763512072 34.661144735403575 -7.8899669286913108 #
straight-curve $-1 -40.28220477348944 -15.582436746427367 7.8899669286913108 0 1 0 I I #
straight-curve $-1 -40.28220477348944 -15.582436746427367 -7.8899669286913108 0 -1 0 I I #
point $-1 -40.28220477348944 -34.661144735403575 -7.8899669286913108 #
point $-1 -40.28220477348944 -34.661144735403575 7.8899669286913108 #
straight-curve $-1 0 -34.661144735403575 -7.8899669286913108 -1 0 0 I I #
straight-curve $-1 0 -34.661144735403575 7.8899669286913108 1 0 0 I I #
straight-curve $-1 -49.673146763512072 -9.581796982396515 39.931152822024274 0 0 -1 I I #
point $-1 -49.673146763512072 -9.581796982396515 7.8899669286913108 #
straight-curve $-1 -49.673146763512072 -7.6246459568328504 0.52082841215654252 0 -1 0 I I #
point $-1 -49.673146763512072 -9.581796982396515 0.52082841215654341 #
point $-1 -43.35501211386493 -17.678218312781066 2.3096528806987413 #
point $-1 -43.35501211386493 -12.820365514550335 2.3096528806987413 #
straight-curve $-1 -49.673146763512072 27.909329330032573 39.931152822024274 0 0 -1 I I #
point $-1 -49.673146763512072 27.909329330032573 7.8899669286913108 #
straight-curve $-1 -49.673146763512072 11.120917199381694 0.52082841215654252 0 -1 0 I I #
point $-1 -49.673146763512072 27.909329330032573 0.52082841215654341 #
point $-1 -43.35501211386493 19.812907999648026 2.3096528806987413 #
point $-1 -43.35501211386493 24.670760797878749 2.3096528806987413 #
straight-curve $-1 49.673146763512072 -19.616215478912572 69.283267614832468 0 0 -1 I I #
point $-1 49.673146763512072 -19.616215478912572 7.8899669286913108 #
straight-curve $-1 49.673146763512079 -6.9189821568405385 1.1398531266623237 0 1 0 I I #
point $-1 49.673146763512065 -19.616215478912572 1.1398531266623309 #
point $-1 40.538647202241258 -16.314357670208857 -1.5481045616624853 #
point $-1 40.538647202241258 -11.36157095715329 -1.5481045616624853 #
End-of-ACIS-data 