500 0 10 0           
7 Unknown 11 ACIS 5.0 NT 24 Thu Mar 25 18:42:00 1999 
-1 9.9999999999999995e-007 1e-010 
body $-1 $10 $-1 $11 #
body $-1 $12 $-1 $13 #
body $-1 $14 $-1 $15 #
body $-1 $16 $-1 $17 #
body $-1 $18 $-1 $19 #
body $-1 $20 $-1 $21 #
body $-1 $22 $-1 $23 #
body $-1 $24 $-1 $25 #
body $-1 $26 $-1 $27 #
body $-1 $28 $-1 $29 #
lump $-1 $-1 $30 $0 #
transform $-1 1 0 0 0 1 0 0 0 1 43.697622608111821 18.586059038880386 6.1752545594771222 1 rotate no_reflect no_shear #
lump $-1 $-1 $31 $1 #
transform $-1 1 0 0 0 1 0 0 0 1 43.697622608111821 18.586059038880386 6.1752545594771222 1 rotate no_reflect no_shear #
lump $-1 $-1 $32 $2 #
transform $-1 1 0 0 0 1 0 0 0 1 43.697622608111821 18.586059038880386 6.1752545594771222 1 rotate no_reflect no_shear #
lump $-1 $-1 $33 $3 #
transform $-1 1 0 0 0 1 0 0 0 1 43.697622608111821 18.586059038880386 6.1752545594771222 1 rotate no_reflect no_shear #
lump $-1 $-1 $34 $4 #
transform $-1 1 0 0 0 1 0 0 0 1 43.697622608111821 18.586059038880386 6.1752545594771222 1 rotate no_reflect no_shear #
lump $-1 $-1 $35 $5 #
transform $-1 1 0 0 0 1 0 0 0 1 43.697622608111821 18.586059038880386 6.1752545594771222 1 rotate no_reflect no_shear #
lump $-1 $-1 $36 $6 #
transform $-1 1 0 0 0 1 0 0 0 1 43.697622608111821 18.586059038880386 6.1752545594771222 1 rotate no_reflect no_shear #
lump $-1 $-1 $37 $7 #
transform $-1 1 0 0 0 1 0 0 0 1 43.697622608111821 18.586059038880386 6.1752545594771222 1 rotate no_reflect no_shear #
lump $-1 $-1 $38 $8 #
transform $-1 1 0 0 0 1 0 0 0 1 43.697622608111821 18.586059038880386 6.1752545594771222 1 rotate no_reflect no_shear #
lump $-1 $-1 $39 $9 #
transform $-1 1 0 0 0 1 0 0 0 1 43.697622608111821 18.586059038880386 6.1752545594771222 1 rotate no_reflect no_shear #
shell $-1 $-1 $-1 $40 $-1 $10 #
shell $-1 $-1 $-1 $41 $-1 $12 #
shell $-1 $-1 $-1 $42 $-1 $14 #
shell $-1 $-1 $-1 $43 $-1 $16 #
shell $-1 $-1 $-1 $44 $-1 $18 #
shell $-1 $-1 $-1 $45 $-1 $20 #
shell $-1 $-1 $-1 $46 $-1 $22 #
shell $-1 $-1 $-1 $47 $-1 $24 #
shell $-1 $-1 $-1 $48 $-1 $26 #
shell $-1 $-1 $-1 $49 $-1 $28 #
face $-1 $50 $51 $30 $-1 $52 forward single #
face $-1 $53 $54 $31 $-1 $55 reversed single #
face $-1 $56 $57 $32 $-1 $58 reversed single #
face $-1 $59 $60 $33 $-1 $61 reversed single #
face $-1 $62 $63 $34 $-1 $64 forward single #
face $-1 $65 $66 $35 $-1 $67 forward single #
face $-1 $68 $69 $36 $-1 $70 reversed single #
face $-1 $71 $72 $37 $-1 $73 forward single #
face $-1 $74 $75 $38 $-1 $76 forward single #
face $-1 $77 $78 $39 $-1 $79 forward single #
face $-1 $80 $81 $30 $-1 $82 reversed single #
loop $-1 $-1 $83 $40 #
plane-surface $-1 0 0 6.1752545594771222 0 0 1 1 0 0 forward_v I I I I #
face $-1 $84 $85 $31 $-1 $86 reversed single #
loop $-1 $-1 $87 $41 #
plane-surface $-1 -40.350716428326336 0 2.6569029444107928 0 0 1 1 0 0 forward_v I I I I #
face $-1 $88 $89 $32 $-1 $90 reversed single #
loop $-1 $-1 $91 $42 #
plane-surface $-1 40.350716428326344 0 2.6569029444107928 0 0 1 1 0 0 forward_v I I I I #
face $-1 $92 $93 $33 $-1 $94 reversed single #
loop $-1 $-1 $95 $43 #
plane-surface $-1 32.600778058287368 -18.586059038880379 1.6070565390291591 0 -0.62932039886446345 0.77714595512881146 1 0 0 forward_v I I I I #
face $-1 $96 $97 $34 $-1 $98 forward single #
loop $-1 $99 $100 $44 #
cone-surface $-1 30.713764262464444 -14.653399320740148 2.5179099248464007 0 0.62932039886446345 -0.77714595512881146 1 0 0 1 I I 0 1 1 forward I I I I #
face $-1 $101 $102 $35 $-1 $103 forward single #
loop $-1 $104 $105 $45 #
cone-surface $-1 34.487791854110291 -14.653399320740148 2.5179099248464007 0 0.62932039886446345 -0.77714595512881146 1 0 0 1 I I 0 1 1 forward I I I I #
face $-1 $106 $107 $36 $-1 $108 reversed single #
loop $-1 $-1 $109 $46 #
plane-surface $-1 -13.630713262839926 54.099173832862512 89.23432516789822 1 0 0 0 -0.70710678939079041 -0.70710677298230451 forward_v I I I I #
face $-1 $110 $111 $37 $-1 $112 forward single #
loop $-1 $113 $114 $47 #
cone-surface $-1 -9.6339358624301852 15.554932502469262 3.1441279768361077 0 -0.70710678939079041 -0.70710677298230451 1 0 0 1 I I 0 1 1 forward I I I I #
face $-1 $115 $116 $38 $-1 $117 forward single #
loop $-1 $118 $119 $48 #
cone-surface $-1 -3.6387697618155812 15.554932502469262 3.1441279768361077 0 -0.70710678939079041 -0.70710677298230451 1 0 0 1 I I 0 1 1 forward I I I I #
face $-1 $120 $121 $39 $-1 $122 forward single #
loop $-1 $123 $124 $49 #
cone-surface $-1 2.3563963387990228 15.554932502469262 3.1441279768361077 0 -0.70710678939079041 -0.70710677298230451 1 0 0 1 I I 0 1 1 forward I I I I #
face $-1 $125 $126 $30 $-1 $127 reversed single #
loop $-1 $-1 $128 $50 #
plane-surface $-1 0 0 -6.1752545594771222 0 0 1 1 0 0 forward_v I I I I #
coedge $-1 $129 $130 $131 $132 forward $51 $-1 #
face $-1 $133 $134 $31 $-1 $135 reversed single #
loop $-1 $-1 $136 $53 #
plane-surface $-1 -37.003810248540859 0 4.4160787519439575 -1 0 0 0 0 1 forward_v I I I I #
coedge $-1 $137 $138 $139 $140 forward $54 $-1 #
face $-1 $141 $142 $32 $-1 $143 forward single #
loop $-1 $-1 $144 $56 #
plane-surface $-1 37.003810248540859 0 4.4160787519439575 1 0 0 0 0 -1 forward_v I I I I #
coedge $-1 $145 $146 $147 $148 reversed $57 $-1 #
face $-1 $149 $150 $33 $-1 $151 forward single #
loop $-1 $-1 $152 $59 #
plane-surface $-1 28.197745868033884 -73.585669617211835 69.52591785630797 1 0 0 0 0.62932039886446345 -0.77714595512881146 forward_v I I I I #
coedge $-1 $153 $154 $155 $156 reversed $60 $-1 #
face $-1 $-1 $157 $34 $-1 $158 forward single #
loop $-1 $159 $160 $62 #
cone-surface $-1 30.713764262464444 -13.226706718144616 0.75609132287525149 0 0.62932039886446345 -0.77714595512881146 0.5 0 0 1 I I -0.70710678118654746 0.70710678118654746 0.5 forward I I I I #
loop $-1 $-1 $161 $44 #
coedge $-1 $100 $100 $162 $163 reversed $63 $-1 #
face $-1 $-1 $164 $35 $-1 $165 forward single #
loop $-1 $166 $167 $65 #
cone-surface $-1 34.487791854110291 -13.226706718144616 0.75609132287525149 0 0.62932039886446345 -0.77714595512881146 0.5 0 0 1 I I -0.70710678118654746 0.70710678118654746 0.5 forward I I I I #
loop $-1 $-1 $168 $45 #
coedge $-1 $105 $105 $169 $170 reversed $66 $-1 #
face $-1 $171 $172 $36 $-1 $173 reversed single #
loop $-1 $-1 $174 $68 #
plane-surface $-1 -3.6387697618155812 -7.6985974200022227 27.436555349057137 0 0.70710678939079041 0.70710677298230451 1 0 0 forward_v I I I I #
coedge $-1 $175 $176 $177 $178 reversed $69 $-1 #
face $-1 $-1 $179 $37 $-1 $180 forward single #
loop $-1 $181 $182 $71 #
cone-surface $-1 -9.6339358624301852 14.681930652699378 2.2711261473243232 0 -0.70710678939079041 -0.70710677298230451 0.5 0 0 1 I I -0.70710678118654746 0.70710678118654746 0.5 forward I I I I #
loop $-1 $-1 $183 $47 #
coedge $-1 $114 $114 $184 $185 reversed $72 $-1 #
face $-1 $-1 $186 $38 $-1 $187 forward single #
loop $-1 $188 $189 $74 #
cone-surface $-1 -3.6387697618155812 14.681930652699378 2.2711261473243232 0 -0.70710678939079041 -0.70710677298230451 0.5 0 0 1 I I -0.70710678118654746 0.70710678118654746 0.5 forward I I I I #
loop $-1 $-1 $190 $48 #
coedge $-1 $119 $119 $191 $192 reversed $75 $-1 #
face $-1 $-1 $193 $39 $-1 $194 forward single #
loop $-1 $195 $196 $77 #
cone-surface $-1 2.3563963387990228 14.681930652699378 2.2711261473243232 0 -0.70710678939079041 -0.70710677298230451 0.5 0 0 1 I I -0.70710678118654746 0.70710678118654746 0.5 forward I I I I #
loop $-1 $-1 $197 $49 #
coedge $-1 $124 $124 $198 $199 reversed $78 $-1 #
face $-1 $200 $201 $30 $-1 $202 reversed single #
loop $-1 $-1 $203 $80 #
plane-surface $-1 0 -18.586059038880386 0 0 1 0 0 0 1 forward_v I I I I #
coedge $-1 $204 $205 $206 $207 forward $81 $-1 #
coedge $-1 $208 $83 $209 $210 forward $51 $-1 #
coedge $-1 $83 $208 $211 $212 forward $51 $-1 #
coedge $-1 $213 $214 $83 $132 reversed $215 $-1 #
edge $-1 $216 -18.586059038880386 $217 18.586059038880386 $131 $218 forward 7 unknown #
face $-1 $219 $220 $31 $-1 $221 reversed single #
loop $-1 $-1 $222 $84 #
plane-surface $-1 0 18.586059038880386 0 0 -1 0 0 0 -1 forward_v I I I I #
coedge $-1 $139 $223 $224 $225 reversed $85 $-1 #
coedge $-1 $226 $87 $227 $228 reversed $54 $-1 #
coedge $-1 $87 $226 $229 $230 reversed $54 $-1 #
coedge $-1 $231 $136 $87 $140 reversed $85 $-1 #
edge $-1 $232 -18.586059038880386 $233 18.586059038880386 $139 $234 forward 7 unknown #
face $-1 $235 $236 $32 $-1 $237 reversed single #
loop $-1 $-1 $238 $88 #
plane-surface $-1 0 0 6.1752545594771222 0 0 1 1 0 0 forward_v I I I I #
coedge $-1 $239 $240 $238 $241 reversed $89 $-1 #
coedge $-1 $242 $91 $243 $244 reversed $57 $-1 #
coedge $-1 $91 $242 $245 $246 reversed $57 $-1 #
coedge $-1 $247 $248 $91 $148 forward $249 $-1 #
edge $-1 $250 -18.586059038880386 $251 18.586059038880386 $147 $252 forward 7 unknown #
face $-1 $253 $254 $33 $-1 $255 reversed single #
loop $-1 $-1 $155 $92 #
plane-surface $-1 0 0 6.1752545594771222 0 0 1 1 0 0 forward_v I I I I #
coedge $-1 $256 $257 $258 $259 reversed $93 $-1 #
coedge $-1 $260 $95 $261 $262 reversed $60 $-1 #
coedge $-1 $95 $260 $256 $263 forward $60 $-1 #
coedge $-1 $258 $264 $95 $156 forward $150 $-1 #
edge $-1 $265 -20.703421219397175 $266 -11.8973568388902 $155 $267 forward 7 unknown #
loop $-1 $-1 $162 $96 #
plane-surface $-1 32.600778058287368 -18.586059038880379 1.6070565390291591 0 -0.62932039886446345 0.77714595512881146 1 0 0 forward_v I I I I #
loop $-1 $-1 $268 $62 #
coedge $-1 $160 $160 $161 $269 reversed $97 $-1 #
coedge $-1 $161 $161 $160 $269 forward $99 $-1 #
coedge $-1 $162 $162 $100 $163 forward $157 $-1 #
edge $-1 $270 3.3012478097202036e-016 $270 6.2831853071796004 $162 $271 forward 7 unknown #
loop $-1 $-1 $169 $101 #
plane-surface $-1 32.600778058287368 -18.586059038880379 1.6070565390291591 0 -0.62932039886446345 0.77714595512881146 1 0 0 forward_v I I I I #
loop $-1 $-1 $272 $65 #
coedge $-1 $167 $167 $168 $273 reversed $102 $-1 #
coedge $-1 $168 $168 $167 $273 forward $104 $-1 #
coedge $-1 $169 $169 $105 $170 forward $164 $-1 #
edge $-1 $274 3.3012478097202036e-016 $274 6.2831853071796004 $169 $275 forward 7 unknown #
face $-1 $276 $277 $36 $-1 $278 reversed single #
loop $-1 $-1 $279 $106 #
plane-surface $-1 6.3531737392087635 54.099173832862512 89.23432516789822 -1 0 0 0 0.70710678939079041 0.70710677298230451 forward_v I I I I #
coedge $-1 $280 $281 $282 $283 reversed $107 $-1 #
coedge $-1 $176 $109 $284 $285 reversed $69 $-1 #
coedge $-1 $109 $175 $280 $286 reversed $69 $-1 #
coedge $-1 $282 $287 $109 $178 forward $288 $-1 #
edge $-1 $289 8.4635278775508702 $290 13.486884040224137 $177 $291 forward 7 unknown #
loop $-1 $-1 $184 $110 #
plane-surface $-1 -3.6387697618155812 -7.6985974200022227 27.436555349057137 0 0.70710678939079041 0.70710677298230451 1 0 0 forward_v I I I I #
loop $-1 $-1 $292 $71 #
coedge $-1 $182 $182 $183 $293 reversed $111 $-1 #
coedge $-1 $183 $183 $182 $293 forward $113 $-1 #
coedge $-1 $184 $184 $114 $185 forward $179 $-1 #
edge $-1 $294 9.4205542784586009e-016 $294 6.2831853071796013 $184 $295 forward 7 unknown #
loop $-1 $-1 $191 $115 #
plane-surface $-1 -3.6387697618155812 -7.6985974200022227 27.436555349057137 0 0.70710678939079041 0.70710677298230451 1 0 0 forward_v I I I I #
loop $-1 $-1 $296 $74 #
coedge $-1 $189 $189 $190 $297 reversed $116 $-1 #
coedge $-1 $190 $190 $189 $297 forward $118 $-1 #
coedge $-1 $191 $191 $119 $192 forward $186 $-1 #
edge $-1 $298 9.4205542784586009e-016 $298 6.2831853071796013 $191 $299 forward 7 unknown #
loop $-1 $-1 $198 $120 #
plane-surface $-1 -3.6387697618155812 -7.6985974200022227 27.436555349057137 0 0.70710678939079041 0.70710677298230451 1 0 0 forward_v I I I I #
loop $-1 $-1 $300 $77 #
coedge $-1 $196 $196 $197 $301 reversed $121 $-1 #
coedge $-1 $197 $197 $196 $301 forward $123 $-1 #
coedge $-1 $198 $198 $124 $199 forward $193 $-1 #
edge $-1 $302 9.4205542784586009e-016 $302 6.2831853071796013 $198 $303 forward 7 unknown #
face $-1 $304 $305 $30 $-1 $306 reversed single #
loop $-1 $-1 $307 $125 #
plane-surface $-1 -43.697622608111821 0 0 1 0 0 0 0 -1 forward_v I I I I #
coedge $-1 $308 $211 $309 $310 forward $126 $-1 #
coedge $-1 $311 $128 $308 $312 forward $81 $-1 #
coedge $-1 $128 $311 $313 $314 forward $81 $-1 #
coedge $-1 $214 $213 $128 $207 reversed $215 $-1 #
edge $-1 $315 -18.586059038880386 $316 18.586059038880386 $206 $317 forward 7 unknown #
coedge $-1 $130 $129 $318 $319 forward $51 $-1 #
coedge $-1 $320 $321 $129 $210 reversed $305 $-1 #
edge $-1 $217 -43.697622608111821 $322 43.697622608111821 $209 $323 forward 7 unknown #
coedge $-1 $203 $324 $130 $212 reversed $126 $-1 #
edge $-1 $325 -43.697622608111821 $216 43.697622608111821 $211 $326 forward 7 unknown #
coedge $-1 $206 $131 $324 $327 forward $215 $-1 #
coedge $-1 $131 $206 $320 $328 reversed $215 $-1 #
loop $-1 $-1 $213 $304 #
vertex $-1 $132 $329 #
vertex $-1 $132 $330 #
straight-curve $-1 43.697622608111821 0 6.1752545594771222 0 1 0 I I #
face $-1 $331 $332 $31 $-1 $333 forward single #
loop $-1 $-1 $334 $133 #
plane-surface $-1 -43.697622608111821 0 0 1 0 0 0 0 -1 forward_v I I I I #
coedge $-1 $229 $335 $231 $336 forward $134 $-1 #
coedge $-1 $136 $231 $337 $338 reversed $85 $-1 #
coedge $-1 $339 $227 $136 $225 forward $340 $-1 #
edge $-1 $233 0.44886356843881403 $341 3.9672151835051435 $224 $342 forward 7 unknown #
coedge $-1 $138 $137 $334 $343 reversed $54 $-1 #
coedge $-1 $224 $344 $137 $228 forward $340 $-1 #
edge $-1 $345 -23.522264393948646 $233 -16.82845203437769 $227 $346 forward 7 unknown #
coedge $-1 $347 $222 $138 $230 forward $134 $-1 #
edge $-1 $232 16.82845203437769 $348 23.522264393948646 $229 $349 forward 7 unknown #
coedge $-1 $223 $139 $222 $336 reversed $85 $-1 #
vertex $-1 $230 $350 #
vertex $-1 $228 $351 #
straight-curve $-1 -37.003810248540859 0 2.6569029444107928 0 -1 0 I I #
face $-1 $352 $353 $32 $-1 $354 reversed single #
loop $-1 $-1 $355 $141 #
plane-surface $-1 0 -18.586059038880386 0 0 1 0 0 0 1 forward_v I I I I #
coedge $-1 $356 $357 $144 $241 forward $142 $-1 #
coedge $-1 $358 $144 $359 $360 reversed $89 $-1 #
coedge $-1 $144 $358 $355 $361 reversed $89 $-1 #
edge $-1 $362 -18.586059038880386 $363 18.586059038880386 $238 $364 forward 7 unknown #
coedge $-1 $146 $145 $358 $365 forward $57 $-1 #
coedge $-1 $366 $355 $145 $244 forward $236 $-1 #
edge $-1 $367 16.828452034377687 $250 23.522264393948657 $243 $368 forward 7 unknown #
coedge $-1 $359 $369 $146 $246 forward $353 $-1 #
edge $-1 $251 -23.522264393948657 $370 -16.828452034377687 $245 $371 forward 7 unknown #
coedge $-1 $372 $147 $369 $373 reversed $249 $-1 #
coedge $-1 $147 $372 $366 $374 forward $249 $-1 #
loop $-1 $-1 $147 $352 #
vertex $-1 $244 $375 #
vertex $-1 $148 $376 #
straight-curve $-1 43.697622608111821 0 2.6569029444107928 0 1 0 I I #
face $-1 $-1 $377 $33 $-1 $378 forward single #
loop $-1 $-1 $379 $149 #
plane-surface $-1 0 -18.586059038880386 0 0 1 0 0 0 1 forward_v I I I I #
coedge $-1 $257 $152 $154 $263 reversed $93 $-1 #
coedge $-1 $152 $256 $379 $380 reversed $93 $-1 #
coedge $-1 $381 $155 $152 $259 forward $150 $-1 #
edge $-1 $266 -23.84803039967942 $382 -18.206775769725532 $258 $383 forward 7 unknown #
coedge $-1 $154 $153 $384 $385 reversed $60 $-1 #
coedge $-1 $386 $387 $153 $262 forward $377 $-1 #
edge $-1 $388 -8.1059277916509345 $265 -0.84698937381042305 $261 $389 forward 7 unknown #
edge $-1 $390 -9.1551213131864128e-015 $266 7.2589384178405023 $256 $391 forward 7 unknown #
coedge $-1 $155 $381 $386 $392 forward $150 $-1 #
vertex $-1 $262 $393 #
vertex $-1 $156 $394 #
straight-curve $-1 16.300389029143684 -12.944804408926498 6.1752545594771222 -1 0 0 I I #
coedge $-1 $268 $268 $-1 $395 reversed $159 $-1 #
edge $-1 $396 0 $396 6.2831853071796004 $160 $397 forward 7 unknown #
vertex $-1 $163 $398 #
ellipse-curve $-1 30.713764262464444 -15.765431723903443 3.8911555492531367 0 -0.62932039886446345 0.77714595512881146 1 0 0 1 I I #
coedge $-1 $272 $272 $-1 $399 reversed $166 $-1 #
edge $-1 $400 0 $400 6.2831853071796004 $167 $401 forward 7 unknown #
vertex $-1 $170 $402 #
ellipse-curve $-1 34.487791854110291 -15.765431723903443 3.8911555492531367 0 -0.62932039886446345 0.77714595512881146 1 0 0 1 I I #
face $-1 $-1 $288 $36 $-1 $403 forward single #
loop $-1 $-1 $404 $171 #
plane-surface $-1 0 18.586059038880386 0 0 -1 0 0 0 -1 forward_v I I I I #
coedge $-1 $405 $406 $407 $408 reversed $172 $-1 #
coedge $-1 $409 $174 $176 $286 forward $107 $-1 #
coedge $-1 $174 $409 $405 $410 forward $107 $-1 #
coedge $-1 $407 $177 $174 $283 forward $288 $-1 #
edge $-1 $290 -11.811328381932135 $411 8.1725586201165541 $282 $412 forward 7 unknown #
coedge $-1 $413 $414 $175 $285 forward $277 $-1 #
edge $-1 $415 -43.465264303712758 $289 -38.441908024471985 $284 $416 forward 7 unknown #
edge $-1 $290 30.068019581452116 $415 37.172118077760786 $176 $417 forward 7 unknown #
coedge $-1 $177 $407 $413 $418 forward $288 $-1 #
loop $-1 $-1 $407 $276 #
vertex $-1 $285 $419 #
vertex $-1 $178 $420 #
straight-curve $-1 -13.630713262839926 27.049586916431256 6.1752545594771249 0 -1 0 I I #
coedge $-1 $292 $292 $-1 $421 reversed $181 $-1 #
edge $-1 $422 0 $422 6.2831853071796004 $182 $423 forward 7 unknown #
vertex $-1 $185 $424 #
ellipse-curve $-1 -9.6339358624301852 16.074380957543745 3.6635764198567378 0 0.70710678939079041 0.70710677298230451 1 0 0 1 I I #
coedge $-1 $296 $296 $-1 $425 reversed $188 $-1 #
edge $-1 $426 0 $426 6.2831853071796004 $189 $427 forward 7 unknown #
vertex $-1 $192 $428 #
ellipse-curve $-1 -3.6387697618155812 16.074380957543745 3.6635764198567378 0 0.70710678939079041 0.70710677298230451 1 0 0 1 I I #
coedge $-1 $300 $300 $-1 $429 reversed $195 $-1 #
edge $-1 $430 0 $430 6.2831853071796004 $196 $431 forward 7 unknown #
vertex $-1 $199 $432 #
ellipse-curve $-1 2.3563963387990228 16.074380957543745 3.6635764198567378 0 0.70710678939079041 0.70710677298230451 1 0 0 1 I I #
face $-1 $-1 $215 $30 $-1 $433 reversed single #
loop $-1 $-1 $320 $200 #
plane-surface $-1 0 18.586059038880386 0 0 -1 0 0 0 -1 forward_v I I I I #
coedge $-1 $434 $318 $321 $435 forward $201 $-1 #
coedge $-1 $324 $203 $204 $312 reversed $126 $-1 #
coedge $-1 $318 $434 $203 $310 reversed $201 $-1 #
edge $-1 $325 -6.1752545594771222 $436 6.1752545594771222 $309 $437 forward 7 unknown #
coedge $-1 $205 $204 $434 $438 forward $81 $-1 #
edge $-1 $316 -43.697622608111821 $436 43.697622608111821 $308 $439 forward 7 unknown #
coedge $-1 $321 $320 $205 $314 reversed $305 $-1 #
edge $-1 $440 -43.697622608111821 $315 43.697622608111821 $313 $441 forward 7 unknown #
vertex $-1 $207 $442 #
vertex $-1 $327 $443 #
straight-curve $-1 43.697622608111821 0 -6.1752545594771222 0 -1 0 I I #
coedge $-1 $307 $309 $208 $319 reversed $201 $-1 #
edge $-1 $322 -18.586059038880386 $325 18.586059038880386 $318 $444 forward 7 unknown #
coedge $-1 $313 $209 $214 $328 forward $305 $-1 #
coedge $-1 $209 $313 $307 $435 reversed $305 $-1 #
vertex $-1 $210 $445 #
straight-curve $-1 0 18.586059038880386 6.1752545594771222 -1 0 0 I I #
coedge $-1 $211 $308 $213 $327 reversed $126 $-1 #
vertex $-1 $319 $446 #
straight-curve $-1 0 -18.586059038880386 6.1752545594771222 1 0 0 I I #
edge $-1 $216 -6.1752545594771222 $316 6.1752545594771222 $213 $447 forward 7 unknown #
edge $-1 $217 -6.1752545594771222 $315 6.1752545594771222 $214 $448 forward 7 unknown #
point $-1 43.697622608111821 -18.586059038880386 6.1752545594771222 #
point $-1 43.697622608111821 18.586059038880386 6.1752545594771222 #
face $-1 $-1 $340 $31 $-1 $449 reversed single #
loop $-1 $-1 $337 $219 #
plane-surface $-1 0 0 6.1752545594771222 0 0 1 1 0 0 forward_v I I I I #
coedge $-1 $450 $451 $226 $343 forward $220 $-1 #
coedge $-1 $222 $347 $452 $453 reversed $134 $-1 #
edge $-1 $454 -3.9672151835051435 $232 -0.44886356843881403 $222 $455 forward 7 unknown #
coedge $-1 $452 $456 $223 $338 forward $332 $-1 #
edge $-1 $341 -18.586059038880386 $454 18.586059038880386 $337 $457 forward 7 unknown #
coedge $-1 $344 $224 $456 $458 reversed $340 $-1 #
loop $-1 $-1 $224 $331 #
vertex $-1 $225 $459 #
straight-curve $-1 -37.003810248540859 -18.586059038880386 2.2080393759719787 0 0 1 I I #
edge $-1 $348 -18.586059038880386 $345 18.586059038880386 $334 $460 forward 7 unknown #
coedge $-1 $227 $339 $450 $461 forward $340 $-1 #
vertex $-1 $343 $462 #
straight-curve $-1 -20.175358214163168 -18.586059038880386 2.6569029444107928 1 0 0 I I #
coedge $-1 $335 $229 $451 $463 reversed $134 $-1 #
vertex $-1 $343 $464 #
straight-curve $-1 -20.175358214163168 18.586059038880386 2.6569029444107928 -1 0 0 I I #
point $-1 -37.003810248540859 18.586059038880386 2.6569029444107928 #
point $-1 -37.003810248540859 -18.586059038880386 2.6569029444107928 #
face $-1 $-1 $249 $32 $-1 $465 reversed single #
loop $-1 $-1 $359 $235 #
plane-surface $-1 0 18.586059038880386 0 0 -1 0 0 0 -1 forward_v I I I I #
coedge $-1 $243 $466 $240 $361 forward $236 $-1 #
coedge $-1 $467 $238 $466 $468 forward $142 $-1 #
coedge $-1 $238 $467 $469 $470 forward $142 $-1 #
coedge $-1 $240 $239 $242 $365 reversed $89 $-1 #
coedge $-1 $469 $245 $239 $360 forward $353 $-1 #
edge $-1 $370 0.44886356843881403 $362 3.9672151835051435 $359 $471 forward 7 unknown #
edge $-1 $363 -3.9672151835051435 $367 -0.44886356843881403 $355 $472 forward 7 unknown #
vertex $-1 $360 $473 #
vertex $-1 $468 $474 #
straight-curve $-1 37.003810248540859 0 6.1752545594771222 0 -1 0 I I #
edge $-1 $367 -18.586059038880386 $370 18.586059038880386 $358 $475 forward 7 unknown #
coedge $-1 $466 $243 $248 $374 reversed $236 $-1 #
vertex $-1 $244 $476 #
straight-curve $-1 20.175358214163172 -18.586059038880386 2.6569029444107928 1 0 0 I I #
coedge $-1 $245 $469 $247 $373 forward $353 $-1 #
vertex $-1 $246 $477 #
straight-curve $-1 20.175358214163172 18.586059038880386 2.6569029444107928 -1 0 0 I I #
coedge $-1 $248 $247 $467 $478 reversed $249 $-1 #
edge $-1 $479 -6.1752545594771222 $251 -2.6569029444107928 $247 $480 forward 7 unknown #
edge $-1 $481 -6.1752545594771222 $250 -2.6569029444107928 $248 $482 forward 7 unknown #
point $-1 43.697622608111828 -18.586059038880386 2.6569029444107928 #
point $-1 43.697622608111828 18.586059038880386 2.6569029444107928 #
loop $-1 $-1 $261 $253 #
plane-surface $-1 37.003810248540859 0 4.4160787519439575 1 0 0 0 0 -1 forward_v I I I I #
coedge $-1 $384 $483 $257 $380 forward $254 $-1 #
edge $-1 $382 28.587704368676864 $390 33.155902389124833 $379 $484 forward 7 unknown #
coedge $-1 $264 $258 $483 $485 forward $150 $-1 #
vertex $-1 $485 $486 #
straight-curve $-1 28.197745868033884 -36.792834808605917 6.1752545594771213 0 -1 0 I I #
coedge $-1 $487 $379 $260 $385 forward $254 $-1 #
edge $-1 $390 11.8973568388902 $388 20.703421219397168 $384 $488 forward 7 unknown #
coedge $-1 $387 $261 $264 $392 reversed $377 $-1 #
coedge $-1 $261 $386 $487 $489 reversed $377 $-1 #
vertex $-1 $489 $490 #
straight-curve $-1 37.003810248540859 -12.286570043032643 6.7082822500374588 0 0.77714595512881146 0.62932039886446345 I I #
vertex $-1 $385 $491 #
straight-curve $-1 28.197745868033884 -18.586059038880379 1.6070565390291591 0 0.77714595512881146 0.62932039886446345 I I #
edge $-1 $492 -18.586059038880386 $265 -12.944804408926499 $264 $493 forward 7 unknown #
point $-1 37.003810248540859 -12.944804408926499 6.1752545594771222 #
point $-1 28.197745868033884 -12.944804408926498 6.1752545594771222 #
edge $-1 $494 1 $494 0 $268 $-1 forward 7 unknown #
vertex $-1 $269 $495 #
ellipse-curve $-1 30.713764262464444 -13.541366917576848 1.1446643004396573 0 -0.62932039886446345 0.77714595512881146 1 0 0 1 I I #
point $-1 31.713764262464444 -15.765431723903449 3.8911555492531438 #
edge $-1 $496 1 $496 0 $272 $-1 forward 7 unknown #
vertex $-1 $273 $497 #
ellipse-curve $-1 34.487791854110291 -13.541366917576848 1.1446643004396573 0 -0.62932039886446345 0.77714595512881146 1 0 0 1 I I #
point $-1 35.487791854110291 -15.765431723903449 3.8911555492531438 #
plane-surface $-1 0 0 6.1752545594771222 0 0 1 1 0 0 forward_v I I I I #
coedge $-1 $414 $413 $406 $498 forward $277 $-1 #
coedge $-1 $406 $279 $281 $410 reversed $172 $-1 #
coedge $-1 $279 $405 $404 $498 reversed $172 $-1 #
coedge $-1 $287 $282 $279 $408 forward $288 $-1 #
edge $-1 $411 -13.486884040224137 $499 -8.4635278775508702 $407 $500 forward 7 unknown #
coedge $-1 $281 $280 $414 $501 reversed $107 $-1 #
edge $-1 $502 -37.172118077760786 $411 -30.068019581452116 $405 $503 forward 7 unknown #
vertex $-1 $283 $504 #
straight-curve $-1 -1.8193848809077906 13.562702876207121 6.1752545594771178 1 0 0 I I #
coedge $-1 $404 $284 $287 $418 reversed $277 $-1 #
coedge $-1 $284 $404 $409 $501 forward $277 $-1 #
vertex $-1 $285 $505 #
straight-curve $-1 -13.630713262839926 18.586059038880386 44.61716258394911 0 0 1 I I #
straight-curve $-1 -13.630713262839926 -7.6985974200022227 27.436555349057137 0 0.70710677298230451 -0.70710678939079041 I I #
edge $-1 $499 -6.3531737392087635 $289 13.630713262839926 $413 $506 forward 7 unknown #
point $-1 -13.630713262839926 18.586059038880386 6.1752545594771222 #
point $-1 -13.630713262839926 13.562702876207119 6.1752545594771213 #
edge $-1 $507 1 $507 0 $292 $-1 forward 7 unknown #
vertex $-1 $293 $508 #
ellipse-curve $-1 -9.6339358624301852 15.035484047394773 2.6246795338154754 0 0.70710678939079041 0.70710677298230451 1 0 0 1 I I #
point $-1 -8.6339358624301852 16.074380957543749 3.66357641985674 #
edge $-1 $509 1 $509 0 $296 $-1 forward 7 unknown #
vertex $-1 $297 $510 #
ellipse-curve $-1 -3.6387697618155812 15.035484047394773 2.6246795338154754 0 0.70710678939079041 0.70710677298230451 1 0 0 1 I I #
point $-1 -2.6387697618155812 16.074380957543749 3.66357641985674 #
edge $-1 $511 1 $511 0 $300 $-1 forward 7 unknown #
vertex $-1 $301 $512 #
ellipse-curve $-1 2.3563963387990228 15.035484047394773 2.6246795338154754 0 0.70710678939079041 0.70710677298230451 1 0 0 1 I I #
point $-1 3.3563963387990228 16.074380957543749 3.66357641985674 #
plane-surface $-1 43.697622608111821 0 0 -1 0 0 0 0 1 forward_v I I I I #
coedge $-1 $309 $307 $311 $438 reversed $201 $-1 #
edge $-1 $322 -6.1752545594771222 $440 6.1752545594771222 $321 $513 forward 7 unknown #
vertex $-1 $438 $514 #
straight-curve $-1 -43.697622608111821 -18.586059038880386 0 0 0 -1 I I #
edge $-1 $436 -18.586059038880386 $440 18.586059038880386 $434 $515 forward 7 unknown #
straight-curve $-1 0 -18.586059038880386 -6.1752545594771222 -1 0 0 I I #
vertex $-1 $314 $516 #
straight-curve $-1 0 18.586059038880386 -6.1752545594771222 1 0 0 I I #
point $-1 43.697622608111821 18.586059038880386 -6.1752545594771222 #
point $-1 43.697622608111821 -18.586059038880386 -6.1752545594771222 #
straight-curve $-1 -43.697622608111821 0 6.1752545594771222 0 -1 0 I I #
point $-1 -43.697622608111821 18.586059038880386 6.1752545594771222 #
point $-1 -43.697622608111821 -18.586059038880386 6.1752545594771222 #
straight-curve $-1 43.697622608111821 -18.586059038880386 0 0 0 -1 I I #
straight-curve $-1 43.697622608111821 18.586059038880386 0 0 0 -1 I I #
plane-surface $-1 0 -18.586059038880386 0 0 1 0 0 0 1 forward_v I I I I #
coedge $-1 $517 $334 $344 $461 reversed $220 $-1 #
coedge $-1 $334 $517 $347 $463 forward $220 $-1 #
coedge $-1 $518 $337 $335 $453 forward $332 $-1 #
edge $-1 $454 37.003810248540859 $519 43.697622608111821 $335 $520 forward 7 unknown #
vertex $-1 $453 $521 #
straight-curve $-1 -37.003810248540859 18.586059038880386 2.2080393759719787 0 0 -1 I I #
coedge $-1 $337 $518 $339 $458 forward $332 $-1 #
straight-curve $-1 -37.003810248540859 0 6.1752545594771222 0 1 0 I I #
edge $-1 $522 -43.697622608111821 $341 -37.003810248540859 $339 $523 forward 7 unknown #
point $-1 -37.003810248540859 -18.586059038880386 6.1752545594771222 #
straight-curve $-1 -43.697622608111821 0 2.6569029444107928 0 -1 0 I I #
edge $-1 $522 -6.1752545594771222 $345 -2.6569029444107928 $450 $524 forward 7 unknown #
point $-1 -43.697622608111814 -18.586059038880386 2.6569029444107928 #
edge $-1 $519 -6.1752545594771222 $348 -2.6569029444107928 $347 $525 forward 7 unknown #
point $-1 -43.697622608111814 18.586059038880386 2.6569029444107928 #
plane-surface $-1 43.697622608111821 0 0 -1 0 0 0 0 1 forward_v I I I I #
coedge $-1 $355 $366 $356 $468 reversed $236 $-1 #
coedge $-1 $357 $356 $372 $478 forward $142 $-1 #
edge $-1 $363 37.003810248540859 $481 43.697622608111821 $466 $526 forward 7 unknown #
coedge $-1 $369 $359 $357 $470 reversed $353 $-1 #
edge $-1 $479 -43.697622608111821 $362 -37.003810248540859 $469 $527 forward 7 unknown #
straight-curve $-1 37.003810248540859 18.586059038880386 2.2080393759719787 0 0 1 I I #
straight-curve $-1 37.003810248540859 -18.586059038880386 2.2080393759719787 0 0 -1 I I #
point $-1 37.003810248540859 18.586059038880386 6.1752545594771222 #
point $-1 37.003810248540859 -18.586059038880386 6.1752545594771222 #
straight-curve $-1 37.003810248540859 0 2.6569029444107928 0 1 0 I I #
point $-1 37.003810248540859 -18.586059038880386 2.6569029444107928 #
point $-1 37.003810248540859 18.586059038880386 2.6569029444107928 #
edge $-1 $481 -18.586059038880386 $479 18.586059038880386 $372 $528 forward 7 unknown #
vertex $-1 $478 $529 #
straight-curve $-1 43.697622608111821 18.586059038880386 0 0 0 -1 I I #
vertex $-1 $478 $530 #
straight-curve $-1 43.697622608111821 -18.586059038880386 0 0 0 -1 I I #
coedge $-1 $379 $487 $381 $485 reversed $254 $-1 #
straight-curve $-1 28.197745868033884 -18.586059038880386 34.762958928153985 0 0 -1 I I #
edge $-1 $382 28.197745868033884 $492 37.003810248540859 $483 $531 forward 7 unknown #
point $-1 28.197745868033884 -18.586059038880386 6.1752545594771222 #
coedge $-1 $483 $384 $387 $489 forward $254 $-1 #
straight-curve $-1 16.300389029143684 -18.586059038880386 1.6070565390291542 1 0 0 I I #
edge $-1 $388 -33.155902389124833 $492 -28.587704368676864 $487 $532 forward 7 unknown #
point $-1 37.003810248540852 -18.586059038880386 1.6070565390291534 #
point $-1 28.197745868033884 -18.586059038880386 1.6070565390291534 #
vertex $-1 $392 $533 #
straight-curve $-1 37.003810248540859 0 6.1752545594771222 0 1 0 I I #
vertex $-1 $395 $534 #
point $-1 31.713764262464444 -13.541366917576848 1.1446643004396573 #
vertex $-1 $399 $535 #
point $-1 35.487791854110291 -13.541366917576848 1.1446643004396573 #
edge $-1 $499 38.441908024471985 $502 43.465264303712758 $404 $536 forward 7 unknown #
vertex $-1 $418 $537 #
straight-curve $-1 6.3531737392087635 27.049586916431256 6.1752545594771249 0 1 0 I I #
edge $-1 $502 -8.1725586201165541 $415 11.811328381932135 $414 $538 forward 7 unknown #
vertex $-1 $501 $539 #
straight-curve $-1 6.3531737392087635 -7.6985974200022227 27.436555349057137 0 -0.70710677298230451 0.70710678939079041 I I #
point $-1 6.3531737392087635 13.562702876207119 6.1752545594771213 #
point $-1 -13.630713262839926 18.586059038880386 1.151898280236356 #
straight-curve $-1 0 18.586059038880386 6.1752545594771222 -1 0 0 I I #
vertex $-1 $421 $540 #
point $-1 -8.6339358624301852 15.035484047394773 2.6246795338154754 #
vertex $-1 $425 $541 #
point $-1 -2.6387697618155812 15.035484047394773 2.6246795338154754 #
vertex $-1 $429 $542 #
point $-1 3.3563963387990228 15.035484047394773 2.6246795338154754 #
straight-curve $-1 -43.697622608111821 18.586059038880386 0 0 0 -1 I I #
point $-1 -43.697622608111821 -18.586059038880386 -6.1752545594771222 #
straight-curve $-1 -43.697622608111821 0 -6.1752545594771222 0 1 0 I I #
point $-1 -43.697622608111821 18.586059038880386 -6.1752545594771222 #
coedge $-1 $451 $450 $518 $543 reversed $220 $-1 #
coedge $-1 $456 $452 $517 $543 forward $332 $-1 #
vertex $-1 $453 $544 #
straight-curve $-1 0 18.586059038880386 6.1752545594771222 -1 0 0 I I #
point $-1 -37.003810248540859 18.586059038880386 6.1752545594771222 #
vertex $-1 $543 $545 #
straight-curve $-1 0 -18.586059038880386 6.1752545594771222 1 0 0 I I #
straight-curve $-1 -43.697622608111821 -18.586059038880386 0 0 0 -1 I I #
straight-curve $-1 -43.697622608111821 18.586059038880386 0 0 0 -1 I I #
straight-curve $-1 0 -18.586059038880386 6.1752545594771222 1 0 0 I I #
straight-curve $-1 0 18.586059038880386 6.1752545594771222 -1 0 0 I I #
straight-curve $-1 43.697622608111821 0 6.1752545594771222 0 1 0 I I #
point $-1 43.697622608111821 18.586059038880386 6.1752545594771222 #
point $-1 43.697622608111821 -18.586059038880386 6.1752545594771222 #
straight-curve $-1 0 -18.586059038880386 6.1752545594771222 1 0 0 I I #
straight-curve $-1 37.003810248540852 -18.586059038880386 34.762958928153985 0 0 1 I I #
point $-1 37.003810248540859 -18.586059038880386 6.1752545594771222 #
point $-1 30.713764262464444 -12.912046518712383 0.36751834531084576 #
point $-1 34.487791854110291 -12.912046518712383 0.36751834531084576 #
straight-curve $-1 6.3531737392087635 18.586059038880386 44.61716258394911 0 0 -1 I I #
point $-1 6.3531737392087635 18.586059038880386 6.1752545594771222 #
straight-curve $-1 -1.8193848809077906 18.586059038880386 1.1518982802363542 -1 0 0 I I #
point $-1 6.3531737392087635 18.586059038880386 1.151898280236356 #
point $-1 -9.6339358624301852 14.328377258003984 1.917572760833171 #
point $-1 -3.6387697618155812 14.328377258003984 1.917572760833171 #
point $-1 2.3563963387990228 14.328377258003984 1.917572760833171 #
edge $-1 $519 -18.586059038880386 $522 18.586059038880386 $517 $546 forward 7 unknown #
point $-1 -43.697622608111821 18.586059038880386 6.1752545594771222 #
point $-1 -43.697622608111821 -18.586059038880386 6.1752545594771222 #
straight-curve $-1 -43.697622608111821 0 6.1752545594771222 0 -1 0 I I #
End-of-ACIS-data 