500 0 9 0           
7 Unknown 11 ACIS 5.0 NT 24 Fri Mar 26 02:57:16 1999 
-1 9.9999999999999995e-007 1e-010 
body $-1 $9 $-1 $10 #
body $-1 $11 $-1 $12 #
body $-1 $13 $-1 $14 #
body $-1 $15 $-1 $16 #
body $-1 $17 $-1 $18 #
body $-1 $19 $-1 $20 #
body $-1 $21 $-1 $22 #
body $-1 $23 $-1 $24 #
body $-1 $25 $-1 $26 #
lump $-1 $-1 $27 $0 #
transform $-1 1 0 0 0 1 0 0 0 1 55.129856257820364 32.978142628983768 9.0491371198376065 1 rotate no_reflect no_shear #
lump $-1 $-1 $28 $1 #
transform $-1 1 0 0 0 1 0 0 0 1 55.129856257820364 32.978142628983768 9.0491371198376065 1 rotate no_reflect no_shear #
lump $-1 $-1 $29 $2 #
transform $-1 1 0 0 0 1 0 0 0 1 55.129856257820364 32.978142628983768 9.0491371198376065 1 rotate no_reflect no_shear #
lump $-1 $-1 $30 $3 #
transform $-1 1 0 0 0 1 0 0 0 1 55.129856257820364 32.978142628983768 9.0491371198376065 1 rotate no_reflect no_shear #
lump $-1 $-1 $31 $4 #
transform $-1 1 0 0 0 1 0 0 0 1 55.129856257820364 32.978142628983768 9.0491371198376065 1 rotate no_reflect no_shear #
lump $-1 $-1 $32 $5 #
transform $-1 1 0 0 0 1 0 0 0 1 55.129856257820364 32.978142628983768 9.0491371198376065 1 rotate no_reflect no_shear #
lump $-1 $-1 $33 $6 #
transform $-1 1 0 0 0 1 0 0 0 1 55.129856257820364 32.978142628983768 9.0491371198376065 1 rotate no_reflect no_shear #
lump $-1 $-1 $34 $7 #
transform $-1 1 0 0 0 1 0 0 0 1 55.129856257820364 32.978142628983768 9.0491371198376065 1 rotate no_reflect no_shear #
lump $-1 $-1 $35 $8 #
transform $-1 1 0 0 0 1 0 0 0 1 55.129856257820364 32.978142628983768 9.0491371198376065 1 rotate no_reflect no_shear #
shell $-1 $-1 $-1 $36 $-1 $9 #
shell $-1 $-1 $-1 $37 $-1 $11 #
shell $-1 $-1 $-1 $38 $-1 $13 #
shell $-1 $-1 $-1 $39 $-1 $15 #
shell $-1 $-1 $-1 $40 $-1 $17 #
shell $-1 $-1 $-1 $41 $-1 $19 #
shell $-1 $-1 $-1 $42 $-1 $21 #
shell $-1 $-1 $-1 $43 $-1 $23 #
shell $-1 $-1 $-1 $44 $-1 $25 #
face $-1 $45 $46 $27 $-1 $47 reversed single #
face $-1 $48 $49 $28 $-1 $50 forward single #
face $-1 $51 $52 $29 $-1 $53 reversed single #
face $-1 $54 $55 $30 $-1 $56 forward single #
face $-1 $57 $58 $31 $-1 $59 forward single #
face $-1 $60 $61 $32 $-1 $62 forward single #
face $-1 $63 $64 $33 $-1 $65 reversed single #
face $-1 $66 $67 $34 $-1 $68 forward single #
face $-1 $69 $70 $35 $-1 $71 forward single #
face $-1 $72 $73 $27 $-1 $74 forward single #
loop $-1 $-1 $75 $36 #
plane-surface $-1 0 -32.978142628983768 0 0 1 0 0 0 1 forward_v I I I I #
face $-1 $76 $77 $28 $-1 $78 forward single #
loop $-1 $-1 $79 $37 #
plane-surface $-1 0 -32.978142628983768 0 0 1 0 0 0 1 forward_v I I I I #
face $-1 $80 $81 $29 $-1 $82 reversed single #
loop $-1 $-1 $83 $38 #
plane-surface $-1 -124.51854251684445 25.011470697988834 88.754457077651352 0 1 0 -0.62932039886446345 0 0.77714595512881146 forward_v I I I I #
face $-1 $84 $85 $30 $-1 $86 forward single #
loop $-1 $87 $88 $39 #
cone-surface $-1 -51.022745446375659 26.604805084187824 5.5476153182316272 0.62932039886446345 0 -0.77714595512881146 0.38857297756440573 0 0.31466019943223172 1 I I 0 1 0.5 forward I I I I #
face $-1 $89 $90 $31 $-1 $91 forward single #
loop $-1 $92 $93 $40 #
cone-surface $-1 -51.022745446375659 28.994806663486301 5.5476153182316272 0.62932039886446345 0 -0.77714595512881146 0.38857297756440573 0 0.31466019943223172 1 I I 0 1 0.5 forward I I I I #
face $-1 $94 $95 $32 $-1 $96 forward single #
loop $-1 $97 $98 $41 #
cone-surface $-1 -51.022745446375659 31.384808242784779 5.5476153182316272 0.62932039886446345 0 -0.77714595512881146 0.38857297756440573 0 0.31466019943223172 1 I I 0 1 0.5 forward I I I I #
face $-1 $99 $100 $33 $-1 $101 reversed single #
loop $-1 $-1 $102 $42 #
plane-surface $-1 66.007039641412774 28.195503470951941 156.89601432559374 0 -1 0 -0.75470958851134928 0 -0.65605901945558964 forward_v I I I I #
face $-1 $103 $104 $34 $-1 $105 forward single #
loop $-1 $106 $107 $43 #
cone-surface $-1 49.530727417920609 16.951983115590032 3.2406809748632641 -0.75470958851134928 0 -0.65605901945558964 1.3121180389111793 0 -1.5094191770226986 1 I I 0 1 2 forward I I I I #
face $-1 $108 $109 $35 $-1 $110 forward single #
loop $-1 $111 $112 $44 #
cone-surface $-1 49.530727417920609 23.698095328807177 3.2406809748632641 -0.75470958851134928 0 -0.65605901945558964 1.3121180389111793 0 -1.5094191770226986 1 I I 0 1 2 forward I I I I #
face $-1 $113 $114 $27 $-1 $115 reversed single #
loop $-1 $-1 $116 $45 #
plane-surface $-1 0 0 9.0491371198376065 0 0 1 1 0 0 forward_v I I I I #
coedge $-1 $117 $118 $119 $120 reversed $46 $-1 #
face $-1 $121 $122 $28 $-1 $123 reversed single #
loop $-1 $-1 $124 $48 #
plane-surface $-1 0 0 9.0491371198376065 0 0 1 1 0 0 forward_v I I I I #
coedge $-1 $125 $126 $127 $128 forward $49 $-1 #
face $-1 $129 $130 $29 $-1 $131 reversed single #
loop $-1 $-1 $132 $51 #
plane-surface $-1 -55.12985625782035 28.994806663486301 3.066567482455568 -0.62932039886446345 0 0.77714595512881146 0.77714595512881146 0 0.62932039886446345 forward_v I I I I #
coedge $-1 $133 $134 $135 $136 reversed $52 $-1 #
face $-1 $-1 $137 $30 $-1 $138 forward single #
loop $-1 $139 $140 $54 #
cone-surface $-1 -50.45223357625423 26.604805084187824 4.8430918465344526 0.62932039886446345 0 -0.77714595512881146 0.19428648878220287 0 0.15733009971611586 1 I I -0.70710678118654746 0.70710678118654746 0.25 forward I I I I #
loop $-1 $-1 $141 $39 #
coedge $-1 $88 $88 $142 $143 reversed $55 $-1 #
face $-1 $-1 $144 $31 $-1 $145 forward single #
loop $-1 $146 $147 $57 #
cone-surface $-1 -50.45223357625423 28.994806663486301 4.8430918465344526 0.62932039886446345 0 -0.77714595512881146 0.19428648878220287 0 0.15733009971611586 1 I I -0.70710678118654746 0.70710678118654746 0.25 forward I I I I #
loop $-1 $-1 $148 $40 #
coedge $-1 $93 $93 $149 $150 reversed $58 $-1 #
face $-1 $-1 $151 $32 $-1 $152 forward single #
loop $-1 $153 $154 $60 #
cone-surface $-1 -50.45223357625423 31.384808242784779 4.8430918465344526 0.62932039886446345 0 -0.77714595512881146 0.19428648878220287 0 0.15733009971611586 1 I I -0.70710678118654746 0.70710678118654746 0.25 forward I I I I #
loop $-1 $-1 $155 $41 #
coedge $-1 $98 $98 $156 $157 reversed $61 $-1 #
face $-1 $158 $159 $33 $-1 $160 reversed single #
loop $-1 $-1 $161 $63 #
plane-surface $-1 -17.207022620646114 20.325039222198605 84.559135447127275 0.75470958851134928 0 0.65605901945558964 0.65605901945558964 0 -0.75470958851134928 forward_v I I I I #
coedge $-1 $162 $163 $164 $165 reversed $64 $-1 #
face $-1 $-1 $166 $34 $-1 $167 forward single #
loop $-1 $168 $169 $66 #
cone-surface $-1 46.525409206959907 16.951983115590032 0.62819777781792041 -0.75470958851134928 0 -0.65605901945558964 0.65605901945558964 0 -0.75470958851134928 1 I I -0.70710678118654746 0.70710678118654746 1 forward I I I I #
loop $-1 $-1 $170 $43 #
coedge $-1 $107 $107 $171 $172 reversed $67 $-1 #
face $-1 $-1 $173 $35 $-1 $174 forward single #
loop $-1 $175 $176 $69 #
cone-surface $-1 46.525409206959907 23.698095328807177 0.62819777781792041 -0.75470958851134928 0 -0.65605901945558964 0.65605901945558964 0 -0.75470958851134928 1 I I -0.70710678118654746 0.70710678118654746 1 forward I I I I #
loop $-1 $-1 $177 $44 #
coedge $-1 $112 $112 $178 $179 reversed $70 $-1 #
face $-1 $180 $181 $27 $-1 $182 reversed single #
loop $-1 $-1 $183 $72 #
plane-surface $-1 0 0 -9.0491371198376065 0 0 1 1 0 0 forward_v I I I I #
coedge $-1 $184 $185 $186 $187 forward $73 $-1 #
coedge $-1 $188 $75 $189 $190 reversed $46 $-1 #
coedge $-1 $75 $188 $191 $192 forward $46 $-1 #
coedge $-1 $193 $183 $75 $120 forward $114 $-1 #
edge $-1 $194 -55.129856257820364 $195 55.129856257820364 $75 $196 forward 7 unknown #
face $-1 $197 $198 $28 $-1 $199 reversed single #
loop $-1 $-1 $200 $76 #
plane-surface $-1 -55.129856257820364 0 0 1 0 0 0 0 -1 forward_v I I I I #
coedge $-1 $201 $202 $126 $203 forward $77 $-1 #
coedge $-1 $204 $79 $205 $206 reversed $49 $-1 #
coedge $-1 $79 $204 $124 $203 reversed $49 $-1 #
coedge $-1 $207 $208 $79 $128 reversed $209 $-1 #
edge $-1 $210 -9.0491371198376065 $211 9.0491371198376065 $127 $212 forward 7 unknown #
face $-1 $213 $214 $29 $-1 $215 reversed single #
loop $-1 $-1 $216 $80 #
plane-surface $-1 0 32.978142628983768 0 0 -1 0 0 0 -1 forward_v I I I I #
coedge $-1 $217 $218 $219 $220 reversed $81 $-1 #
coedge $-1 $134 $83 $221 $222 reversed $52 $-1 #
coedge $-1 $83 $133 $217 $223 reversed $52 $-1 #
coedge $-1 $219 $224 $83 $136 forward $225 $-1 #
edge $-1 $226 7.1294150006018597 $227 14.517273082680695 $135 $228 forward 7 unknown #
loop $-1 $-1 $142 $84 #
plane-surface $-1 -55.12985625782035 28.994806663486301 3.066567482455568 -0.62932039886446345 0 0.77714595512881146 0.77714595512881146 0 0.62932039886446345 forward_v I I I I #
loop $-1 $-1 $229 $54 #
coedge $-1 $140 $140 $141 $230 reversed $85 $-1 #
coedge $-1 $141 $141 $140 $230 forward $87 $-1 #
coedge $-1 $142 $142 $88 $143 forward $137 $-1 #
edge $-1 $231 0 $231 6.2831853071796004 $142 $232 forward 7 unknown #
loop $-1 $-1 $149 $89 #
plane-surface $-1 -55.12985625782035 28.994806663486301 3.066567482455568 -0.62932039886446345 0 0.77714595512881146 0.77714595512881146 0 0.62932039886446345 forward_v I I I I #
loop $-1 $-1 $233 $57 #
coedge $-1 $147 $147 $148 $234 reversed $90 $-1 #
coedge $-1 $148 $148 $147 $234 forward $92 $-1 #
coedge $-1 $149 $149 $93 $150 forward $144 $-1 #
edge $-1 $235 0 $235 6.2831853071796004 $149 $236 forward 7 unknown #
loop $-1 $-1 $156 $94 #
plane-surface $-1 -55.12985625782035 28.994806663486301 3.066567482455568 -0.62932039886446345 0 0.77714595512881146 0.77714595512881146 0 0.62932039886446345 forward_v I I I I #
loop $-1 $-1 $237 $60 #
coedge $-1 $154 $154 $155 $238 reversed $95 $-1 #
coedge $-1 $155 $155 $154 $238 forward $97 $-1 #
coedge $-1 $156 $156 $98 $157 forward $151 $-1 #
edge $-1 $239 0 $239 6.2831853071796004 $156 $240 forward 7 unknown #
face $-1 $241 $242 $33 $-1 $243 reversed single #
loop $-1 $-1 $244 $99 #
plane-surface $-1 66.007039641412774 12.454574973445268 156.89601432559374 0 1 0 0.75470958851134928 0 0.65605901945558964 forward_v I I I I #
coedge $-1 $245 $246 $247 $248 reversed $100 $-1 #
coedge $-1 $163 $102 $249 $250 reversed $64 $-1 #
coedge $-1 $102 $162 $245 $251 reversed $64 $-1 #
coedge $-1 $247 $252 $102 $165 forward $253 $-1 #
edge $-1 $254 -22.126336437113977 $255 -15.429296002213135 $164 $256 forward 7 unknown #
loop $-1 $-1 $171 $103 #
plane-surface $-1 -17.207022620646114 20.325039222198605 84.559135447127275 0.75470958851134928 0 0.65605901945558964 0.65605901945558964 0 -0.75470958851134928 forward_v I I I I #
loop $-1 $-1 $257 $66 #
coedge $-1 $169 $169 $170 $258 reversed $104 $-1 #
coedge $-1 $170 $170 $169 $258 forward $106 $-1 #
coedge $-1 $171 $171 $107 $172 forward $166 $-1 #
edge $-1 $259 0 $259 6.2831853071796004 $171 $260 forward 7 unknown #
loop $-1 $-1 $178 $108 #
plane-surface $-1 -17.207022620646114 20.325039222198605 84.559135447127275 0.75470958851134928 0 0.65605901945558964 0.65605901945558964 0 -0.75470958851134928 forward_v I I I I #
loop $-1 $-1 $261 $69 #
coedge $-1 $176 $176 $177 $262 reversed $109 $-1 #
coedge $-1 $177 $177 $176 $262 forward $111 $-1 #
coedge $-1 $178 $178 $112 $179 forward $173 $-1 #
edge $-1 $263 0 $263 6.2831853071796004 $178 $264 forward 7 unknown #
face $-1 $265 $266 $27 $-1 $267 reversed single #
loop $-1 $-1 $268 $113 #
plane-surface $-1 -55.129856257820364 0 0 1 0 0 0 0 -1 forward_v I I I I #
coedge $-1 $119 $269 $270 $271 forward $114 $-1 #
coedge $-1 $272 $116 $273 $274 forward $73 $-1 #
coedge $-1 $116 $272 $188 $275 forward $73 $-1 #
coedge $-1 $189 $276 $116 $187 reversed $277 $-1 #
edge $-1 $278 -32.978142628983768 $279 32.978142628983768 $186 $280 forward 7 unknown #
coedge $-1 $118 $117 $185 $275 reversed $46 $-1 #
coedge $-1 $270 $186 $117 $190 forward $277 $-1 #
edge $-1 $278 -9.0491371198376065 $194 9.0491371198376065 $189 $281 forward 7 unknown #
coedge $-1 $282 $283 $118 $192 reversed $181 $-1 #
edge $-1 $284 -9.0491371198376065 $195 9.0491371198376065 $191 $285 forward 7 unknown #
coedge $-1 $269 $119 $283 $286 forward $114 $-1 #
vertex $-1 $190 $287 #
vertex $-1 $286 $288 #
straight-curve $-1 0 -32.978142628983768 -9.0491371198376065 -1 0 0 I I #
face $-1 $289 $209 $28 $-1 $290 reversed single #
loop $-1 $-1 $291 $121 #
plane-surface $-1 -53.629856257820364 -41.123045405632887 0 0 1 0 0 0 1 forward_v I I I I #
coedge $-1 $292 $293 $204 $294 forward $122 $-1 #
coedge $-1 $295 $124 $293 $296 forward $77 $-1 #
coedge $-1 $124 $295 $207 $297 forward $77 $-1 #
edge $-1 $210 52.129856257820364 $298 55.129856257820364 $124 $299 forward 7 unknown #
coedge $-1 $126 $125 $200 $294 reversed $49 $-1 #
coedge $-1 $300 $301 $125 $206 forward $302 $-1 #
edge $-1 $303 -55.129856257820364 $211 -52.129856257820364 $205 $304 forward 7 unknown #
coedge $-1 $305 $127 $202 $297 reversed $209 $-1 #
coedge $-1 $127 $305 $300 $306 reversed $209 $-1 #
loop $-1 $-1 $305 $197 #
vertex $-1 $203 $307 #
vertex $-1 $306 $308 #
straight-curve $-1 -52.129856257820364 -32.978142628983768 0 0 0 -1 I I #
face $-1 $-1 $225 $29 $-1 $309 forward single #
loop $-1 $-1 $310 $129 #
plane-surface $-1 -55.129856257820364 0 0 1 0 0 0 0 -1 forward_v I I I I #
coedge $-1 $311 $312 $218 $313 forward $130 $-1 #
coedge $-1 $314 $132 $134 $223 forward $81 $-1 #
coedge $-1 $132 $314 $216 $313 reversed $81 $-1 #
coedge $-1 $315 $135 $132 $220 forward $225 $-1 #
edge $-1 $227 10.514067366245683 $316 18.480739297240618 $219 $317 forward 7 unknown #
coedge $-1 $318 $310 $133 $222 forward $214 $-1 #
edge $-1 $319 -41.310661056370122 $226 -35.328091418988066 $221 $320 forward 7 unknown #
edge $-1 $227 -9.5063971359849475 $319 1.8310242626372826e-014 $134 $321 forward 7 unknown #
coedge $-1 $135 $315 $318 $322 forward $225 $-1 #
loop $-1 $-1 $219 $213 #
vertex $-1 $222 $323 #
vertex $-1 $136 $324 #
straight-curve $-1 -62.259271258422224 25.011470697988834 9.04913711983761 1 0 0 I I #
coedge $-1 $229 $229 $-1 $325 reversed $139 $-1 #
edge $-1 $326 0 $326 6.2831853071796004 $140 $327 forward 7 unknown #
vertex $-1 $143 $328 #
ellipse-curve $-1 -51.435927216780954 26.604805084187824 6.0578523011465775 -0.62932039886446345 0 0.77714595512881146 0.38857297756440573 0 0.31466019943223172 1 I I #
coedge $-1 $233 $233 $-1 $329 reversed $146 $-1 #
edge $-1 $330 0 $330 6.2831853071796004 $147 $331 forward 7 unknown #
vertex $-1 $150 $332 #
ellipse-curve $-1 -51.435927216780954 28.994806663486301 6.0578523011465775 -0.62932039886446345 0 0.77714595512881146 0.38857297756440573 0 0.31466019943223172 1 I I #
coedge $-1 $237 $237 $-1 $333 reversed $153 $-1 #
edge $-1 $334 0 $334 6.2831853071796004 $154 $335 forward 7 unknown #
vertex $-1 $157 $336 #
ellipse-curve $-1 -51.435927216780954 31.384808242784779 6.0578523011465775 -0.62932039886446345 0 0.77714595512881146 0.38857297756440573 0 0.31466019943223172 1 I I #
face $-1 $-1 $253 $33 $-1 $337 forward single #
loop $-1 $-1 $338 $158 #
plane-surface $-1 55.129856257820364 0 0 -1 0 0 0 0 1 forward_v I I I I #
coedge $-1 $339 $340 $341 $342 reversed $159 $-1 #
coedge $-1 $343 $161 $163 $251 forward $100 $-1 #
coedge $-1 $161 $343 $339 $344 forward $100 $-1 #
coedge $-1 $341 $164 $161 $248 forward $253 $-1 #
edge $-1 $255 -18.032983859852639 $345 -2.2920553623459661 $247 $346 forward 7 unknown #
coedge $-1 $347 $348 $162 $250 forward $242 $-1 #
edge $-1 $349 -77.102933977728497 $254 -69.39887004295926 $249 $350 forward 7 unknown #
edge $-1 $255 100.05172781259047 $349 110.25971251564077 $163 $351 forward 7 unknown #
coedge $-1 $164 $341 $347 $352 forward $253 $-1 #
loop $-1 $-1 $341 $241 #
vertex $-1 $250 $353 #
vertex $-1 $165 $354 #
straight-curve $-1 33.003519820706387 28.195503470951941 9.04913711983761 -1 0 0 I I #
coedge $-1 $257 $257 $-1 $355 reversed $168 $-1 #
edge $-1 $356 0 $356 6.2831853071796004 $169 $357 forward 7 unknown #
vertex $-1 $172 $358 #
ellipse-curve $-1 51.781336040369936 16.951983115590032 5.1971051524529956 0.75470958851134928 0 0.65605901945558964 1.3121180389111793 0 -1.5094191770226986 1 I I #
coedge $-1 $261 $261 $-1 $359 reversed $175 $-1 #
edge $-1 $360 0 $360 6.2831853071796004 $176 $361 forward 7 unknown #
vertex $-1 $179 $362 #
ellipse-curve $-1 51.781336040369936 23.698095328807177 5.1971051524529956 0.75470958851134928 0 0.65605901945558964 1.3121180389111793 0 -1.5094191770226986 1 I I #
face $-1 $-1 $277 $27 $-1 $363 reversed single #
loop $-1 $-1 $364 $180 #
plane-surface $-1 0 32.978142628983768 0 0 -1 0 0 0 -1 forward_v I I I I #
coedge $-1 $283 $282 $365 $366 forward $181 $-1 #
coedge $-1 $183 $193 $367 $368 forward $114 $-1 #
coedge $-1 $276 $189 $183 $271 reversed $277 $-1 #
edge $-1 $369 -32.978142628983768 $194 32.978142628983768 $270 $370 forward 7 unknown #
coedge $-1 $185 $184 $282 $371 forward $73 $-1 #
coedge $-1 $364 $365 $184 $274 reversed $266 $-1 #
edge $-1 $279 -55.129856257820364 $372 55.129856257820364 $273 $373 forward 7 unknown #
edge $-1 $284 -55.129856257820364 $278 55.129856257820364 $188 $374 forward 7 unknown #
coedge $-1 $186 $270 $364 $375 reversed $277 $-1 #
loop $-1 $-1 $189 $265 #
vertex $-1 $187 $376 #
vertex $-1 $187 $377 #
straight-curve $-1 55.129856257820364 0 9.0491371198376065 0 1 0 I I #
straight-curve $-1 55.129856257820364 -32.978142628983768 0 0 0 -1 I I #
coedge $-1 $268 $191 $272 $371 reversed $181 $-1 #
coedge $-1 $191 $268 $193 $286 reversed $181 $-1 #
vertex $-1 $371 $378 #
straight-curve $-1 -55.129856257820364 -32.978142628983768 0 0 0 -1 I I #
edge $-1 $195 -32.978142628983768 $379 32.978142628983768 $283 $380 forward 7 unknown #
point $-1 55.129856257820364 -32.978142628983768 -9.0491371198376065 #
point $-1 -55.129856257820364 -32.978142628983768 -9.0491371198376065 #
face $-1 $-1 $302 $28 $-1 $381 reversed single #
plane-surface $-1 -52.129856257820364 -37.050594017308327 0 -1 0 0 0 0 1 forward_v I I I I #
coedge $-1 $382 $383 $384 $385 forward $198 $-1 #
coedge $-1 $384 $200 $301 $386 reversed $122 $-1 #
coedge $-1 $200 $384 $201 $296 reversed $122 $-1 #
edge $-1 $298 -9.0491371198376065 $303 9.0491371198376065 $200 $387 forward 7 unknown #
coedge $-1 $202 $201 $383 $388 forward $77 $-1 #
edge $-1 $298 32.978142628983768 $389 41.123045405632887 $293 $390 forward 7 unknown #
edge $-1 $391 -4.0724513883245592 $210 4.0724513883245592 $207 $392 forward 7 unknown #
vertex $-1 $296 $393 #
straight-curve $-1 0 -32.978142628983768 9.0491371198376065 -1 0 0 I I #
coedge $-1 $394 $205 $208 $306 forward $302 $-1 #
coedge $-1 $205 $394 $292 $386 forward $302 $-1 #
loop $-1 $-1 $205 $289 #
vertex $-1 $294 $395 #
straight-curve $-1 0 -32.978142628983768 -9.0491371198376065 1 0 0 I I #
coedge $-1 $208 $207 $396 $397 forward $209 $-1 #
edge $-1 $211 -4.0724513883245592 $398 4.0724513883245592 $208 $399 forward 7 unknown #
point $-1 -52.129856257820364 -32.978142628983768 9.0491371198376065 #
point $-1 -52.129856257820364 -32.978142628983768 -9.0491371198376065 #
plane-surface $-1 0 0 9.0491371198376065 0 0 1 1 0 0 forward_v I I I I #
coedge $-1 $221 $400 $314 $401 forward $214 $-1 #
coedge $-1 $312 $216 $400 $402 reversed $130 $-1 #
coedge $-1 $216 $311 $315 $403 reversed $130 $-1 #
edge $-1 $316 10.950648527212127 $404 20.457045663197096 $216 $405 forward 7 unknown #
coedge $-1 $218 $217 $310 $401 reversed $81 $-1 #
coedge $-1 $224 $219 $312 $403 forward $225 $-1 #
vertex $-1 $403 $406 #
straight-curve $-1 -47.741998175741536 14.497403331743151 9.0491371198376047 0 1 0 I I #
coedge $-1 $400 $221 $224 $322 reversed $214 $-1 #
vertex $-1 $222 $407 #
straight-curve $-1 -55.129856257820364 25.011470697988834 44.377228538825676 0 0 1 I I #
straight-curve $-1 -55.12985625782035 25.011470697988834 3.066567482455568 -0.77714595512881146 0 -0.62932039886446345 I I #
edge $-1 $408 -32.978142628983768 $226 -25.011470697988834 $318 $409 forward 7 unknown #
point $-1 -55.129856257820364 25.011470697988834 9.0491371198376065 #
point $-1 -47.741998175741529 25.011470697988834 9.0491371198376065 #
edge $-1 $410 1 $410 0 $229 $-1 forward 7 unknown #
vertex $-1 $230 $411 #
ellipse-curve $-1 -50.609563675970342 26.604805084187824 5.0373783353166557 -0.62932039886446345 0 0.77714595512881146 0.38857297756440573 0 0.31466019943223172 1 I I #
point $-1 -51.047354239216567 26.604805084187824 6.3725125005788312 #
edge $-1 $412 1 $412 0 $233 $-1 forward 7 unknown #
vertex $-1 $234 $413 #
ellipse-curve $-1 -50.609563675970342 28.994806663486301 5.0373783353166557 -0.62932039886446345 0 0.77714595512881146 0.38857297756440573 0 0.31466019943223172 1 I I #
point $-1 -51.047354239216567 28.994806663486301 6.3725125005788312 #
edge $-1 $414 1 $414 0 $237 $-1 forward 7 unknown #
vertex $-1 $238 $415 #
ellipse-curve $-1 -50.609563675970342 31.384808242784779 5.0373783353166557 -0.62932039886446345 0 0.77714595512881146 0.38857297756440573 0 0.31466019943223172 1 I I #
point $-1 -51.047354239216567 31.384808242784779 6.3725125005788312 #
plane-surface $-1 0 0 9.0491371198376065 0 0 1 1 0 0 forward_v I I I I #
coedge $-1 $348 $347 $340 $416 forward $242 $-1 #
coedge $-1 $340 $244 $246 $344 reversed $159 $-1 #
coedge $-1 $244 $339 $338 $416 reversed $159 $-1 #
coedge $-1 $252 $247 $244 $342 forward $253 $-1 #
edge $-1 $345 15.429296002213135 $417 22.126336437113977 $341 $418 forward 7 unknown #
coedge $-1 $246 $245 $348 $419 reversed $100 $-1 #
edge $-1 $420 -110.25971251564077 $345 -100.05172781259047 $339 $421 forward 7 unknown #
vertex $-1 $248 $422 #
straight-curve $-1 48.432815822919537 10.162519611099302 9.0491371198376029 0 -1 0 I I #
coedge $-1 $338 $249 $252 $352 reversed $242 $-1 #
coedge $-1 $249 $338 $343 $419 forward $242 $-1 #
vertex $-1 $250 $423 #
straight-curve $-1 55.129856257820364 28.195503470951941 78.44800716279687 0 0 1 I I #
straight-curve $-1 -17.207022620646114 28.195503470951941 84.559135447127275 0.65605901945558964 0 -0.75470958851134928 I I #
edge $-1 $417 12.454574973445268 $254 28.195503470951941 $347 $424 forward 7 unknown #
point $-1 55.129856257820364 28.195503470951941 9.0491371198376065 #
point $-1 48.432815822919522 28.195503470951941 9.04913711983761 #
edge $-1 $425 1 $425 0 $257 $-1 forward 7 unknown #
vertex $-1 $258 $426 #
ellipse-curve $-1 47.280118795471253 16.951983115590032 1.2842567972735099 0.75470958851134928 0 0.65605901945558964 1.3121180389111793 0 -1.5094191770226986 1 I I #
point $-1 53.093454079281145 16.951983115590032 3.6876859754303202 #
edge $-1 $427 1 $427 0 $261 $-1 forward 7 unknown #
vertex $-1 $262 $428 #
ellipse-curve $-1 47.280118795471253 23.698095328807177 1.2842567972735099 0.75470958851134928 0 0.65605901945558964 1.3121180389111793 0 -1.5094191770226986 1 I I #
point $-1 53.093454079281145 23.698095328807177 3.6876859754303202 #
plane-surface $-1 55.129856257820364 0 0 -1 0 0 0 0 1 forward_v I I I I #
coedge $-1 $367 $273 $276 $375 forward $266 $-1 #
coedge $-1 $273 $367 $268 $366 reversed $266 $-1 #
edge $-1 $372 -9.0491371198376065 $379 9.0491371198376065 $365 $429 forward 7 unknown #
coedge $-1 $365 $364 $269 $368 reversed $266 $-1 #
edge $-1 $379 -55.129856257820364 $369 55.129856257820364 $367 $430 forward 7 unknown #
vertex $-1 $271 $431 #
straight-curve $-1 55.129856257820364 0 -9.0491371198376065 0 -1 0 I I #
edge $-1 $372 -32.978142628983768 $284 32.978142628983768 $282 $432 forward 7 unknown #
vertex $-1 $274 $433 #
straight-curve $-1 0 32.978142628983768 9.0491371198376065 -1 0 0 I I #
straight-curve $-1 0 -32.978142628983768 9.0491371198376065 1 0 0 I I #
edge $-1 $279 -9.0491371198376065 $369 9.0491371198376065 $276 $434 forward 7 unknown #
point $-1 55.129856257820364 -32.978142628983768 9.0491371198376065 #
point $-1 55.129856257820364 32.978142628983768 9.0491371198376065 #
point $-1 -55.129856257820364 -32.978142628983768 9.0491371198376065 #
vertex $-1 $368 $435 #
straight-curve $-1 -55.129856257820364 0 -9.0491371198376065 0 1 0 I I #
plane-surface $-1 0 0 -9.0491371198376065 0 0 1 1 0 0 forward_v I I I I #
coedge $-1 $396 $291 $394 $436 reversed $198 $-1 #
coedge $-1 $291 $396 $295 $388 reversed $198 $-1 #
coedge $-1 $293 $292 $291 $385 reversed $122 $-1 #
edge $-1 $389 -9.0491371198376065 $437 9.0491371198376065 $384 $438 forward 7 unknown #
edge $-1 $437 -41.123045405632887 $303 -32.978142628983768 $292 $439 forward 7 unknown #
straight-curve $-1 -55.129856257820364 -32.978142628983768 0 0 0 -1 I I #
edge $-1 $389 -1.5 $391 1.5 $383 $440 forward 7 unknown #
vertex $-1 $296 $441 #
straight-curve $-1 -55.129856257820364 0 9.0491371198376065 0 -1 0 I I #
vertex $-1 $297 $442 #
straight-curve $-1 -52.129856257820364 -37.050594017308327 9.0491371198376065 0 1 0 I I #
point $-1 -55.129856257820364 -32.978142628983768 9.0491371198376065 #
coedge $-1 $301 $300 $382 $436 forward $302 $-1 #
point $-1 -55.129856257820364 -32.978142628983768 -9.0491371198376065 #
coedge $-1 $383 $382 $305 $397 reversed $198 $-1 #
edge $-1 $391 -9.0491371198376065 $398 9.0491371198376065 $305 $443 forward 7 unknown #
vertex $-1 $397 $444 #
straight-curve $-1 -52.129856257820364 -37.050594017308327 -9.0491371198376065 0 -1 0 I I #
coedge $-1 $310 $318 $311 $402 forward $214 $-1 #
edge $-1 $404 -18.480739297240618 $319 -10.514067366245683 $310 $445 forward 7 unknown #
edge $-1 $408 -9.0491371198376065 $404 -3.0665674824555564 $311 $446 forward 7 unknown #
edge $-1 $316 47.741998175741529 $408 55.129856257820364 $312 $447 forward 7 unknown #
vertex $-1 $401 $448 #
straight-curve $-1 -39.231745966781347 32.978142628983768 15.940603618807293 -0.77714595512881146 0 -0.62932039886446345 I I #
point $-1 -47.741998175741529 32.978142628983768 9.0491371198376065 #
point $-1 -55.129856257820364 25.011470697988834 3.0665674824555564 #
vertex $-1 $403 $449 #
straight-curve $-1 -55.129856257820364 0 9.0491371198376065 0 -1 0 I I #
vertex $-1 $325 $450 #
point $-1 -50.220990698405942 26.604805084187824 5.3520385347488872 #
vertex $-1 $329 $451 #
point $-1 -50.220990698405942 28.994806663486301 5.3520385347488872 #
vertex $-1 $333 $452 #
point $-1 -50.220990698405942 31.384808242784779 5.3520385347488872 #
edge $-1 $417 69.39887004295926 $420 77.102933977728497 $338 $453 forward 7 unknown #
vertex $-1 $352 $454 #
straight-curve $-1 33.003519820706387 12.454574973445268 9.04913711983761 1 0 0 I I #
edge $-1 $420 2.2920553623459661 $349 18.032983859852639 $348 $455 forward 7 unknown #
vertex $-1 $419 $456 #
straight-curve $-1 -17.207022620646114 12.454574973445268 84.559135447127275 -0.65605901945558964 0 0.75470958851134928 I I #
point $-1 48.432815822919522 12.454574973445268 9.04913711983761 #
point $-1 55.129856257820364 28.195503470951941 1.3450731850683724 #
straight-curve $-1 55.129856257820364 0 9.0491371198376065 0 1 0 I I #
vertex $-1 $355 $457 #
point $-1 48.592236834382433 16.951983115590032 -0.22516237974918851 #
vertex $-1 $359 $458 #
point $-1 48.592236834382433 23.698095328807177 -0.22516237974918851 #
straight-curve $-1 -55.129856257820364 32.978142628983768 0 0 0 -1 I I #
straight-curve $-1 0 32.978142628983768 -9.0491371198376065 1 0 0 I I #
point $-1 55.129856257820364 32.978142628983768 -9.0491371198376065 #
straight-curve $-1 -55.129856257820364 0 9.0491371198376065 0 -1 0 I I #
point $-1 -55.129856257820364 32.978142628983768 9.0491371198376065 #
straight-curve $-1 55.129856257820364 32.978142628983768 0 0 0 -1 I I #
point $-1 -55.129856257820364 32.978142628983768 -9.0491371198376065 #
edge $-1 $398 -1.5 $437 1.5 $382 $459 forward 7 unknown #
vertex $-1 $386 $460 #
straight-curve $-1 -55.129856257820364 -41.123045405632887 0 0 0 -1 I I #
straight-curve $-1 -55.129856257820364 0 -9.0491371198376065 0 1 0 I I #
straight-curve $-1 -53.629856257820364 -41.123045405632887 9.0491371198376065 1 0 0 I I #
point $-1 -55.129856257820364 -41.123045405632887 9.0491371198376065 #
point $-1 -52.129856257820364 -41.123045405632887 9.0491371198376065 #
straight-curve $-1 -52.129856257820364 -41.123045405632887 0 0 0 -1 I I #
point $-1 -52.129856257820364 -41.123045405632887 -9.0491371198376065 #
straight-curve $-1 -55.129856257820364 14.497403331743151 3.0665674824555542 0 -1 0 I I #
straight-curve $-1 -55.129856257820364 32.978142628983768 0 0 0 -1 I I #
straight-curve $-1 0 32.978142628983768 9.0491371198376065 -1 0 0 I I #
point $-1 -55.129856257820364 32.978142628983768 3.0665674824555564 #
point $-1 -55.129856257820364 32.978142628983768 9.0491371198376065 #
point $-1 -50.294903476538117 26.604805084187824 4.6488053577522495 #
point $-1 -50.294903476538117 28.994806663486301 4.6488053577522495 #
point $-1 -50.294903476538117 31.384808242784779 4.6488053577522495 #
straight-curve $-1 55.129856257820364 12.454574973445268 78.44800716279687 0 0 -1 I I #
point $-1 55.129856257820364 12.454574973445268 9.0491371198376065 #
straight-curve $-1 55.129856257820364 10.162519611099302 1.3450731850683724 0 1 0 I I #
point $-1 55.129856257820364 12.454574973445268 1.3450731850683724 #
point $-1 45.77069961844856 16.951983115590032 -0.027861241637669232 #
point $-1 45.77069961844856 23.698095328807177 -0.027861241637669232 #
straight-curve $-1 -53.629856257820364 -41.123045405632887 -9.0491371198376065 -1 0 0 I I #
point $-1 -55.129856257820364 -41.123045405632887 -9.0491371198376065 #
End-of-ACIS-data 