500 0 13 0           
7 Unknown 11 ACIS 5.0 NT 24 Thu Mar 25 21:16:11 1999 
-1 9.9999999999999995e-007 1e-010 
body $-1 $13 $-1 $14 #
body $-1 $15 $-1 $16 #
body $-1 $17 $-1 $18 #
body $-1 $19 $-1 $20 #
body $-1 $21 $-1 $22 #
body $-1 $23 $-1 $24 #
body $-1 $25 $-1 $26 #
body $-1 $27 $-1 $28 #
body $-1 $29 $-1 $30 #
body $-1 $31 $-1 $32 #
body $-1 $33 $-1 $34 #
body $-1 $35 $-1 $36 #
body $-1 $37 $-1 $38 #
lump $-1 $-1 $39 $0 #
transform $-1 1 0 0 0 1 0 0 0 1 45.277260658589434 20.12182981159231 8.6954282646920973 1 rotate no_reflect no_shear #
lump $-1 $-1 $40 $1 #
transform $-1 1 0 0 0 1 0 0 0 1 45.277260658589434 20.12182981159231 8.6954282646920973 1 rotate no_reflect no_shear #
lump $-1 $-1 $41 $2 #
transform $-1 1 0 0 0 1 0 0 0 1 45.277260658589434 20.12182981159231 8.6954282646920973 1 rotate no_reflect no_shear #
lump $-1 $-1 $42 $3 #
transform $-1 1 0 0 0 1 0 0 0 1 45.277260658589434 20.12182981159231 8.6954282646920973 1 rotate no_reflect no_shear #
lump $-1 $-1 $43 $4 #
transform $-1 1 0 0 0 1 0 0 0 1 45.277260658589434 20.12182981159231 8.6954282646920973 1 rotate no_reflect no_shear #
lump $-1 $-1 $44 $5 #
transform $-1 1 0 0 0 1 0 0 0 1 45.277260658589434 20.12182981159231 8.6954282646920973 1 rotate no_reflect no_shear #
lump $-1 $-1 $45 $6 #
transform $-1 1 0 0 0 1 0 0 0 1 45.277260658589434 20.12182981159231 8.6954282646920973 1 rotate no_reflect no_shear #
lump $-1 $-1 $46 $7 #
transform $-1 1 0 0 0 1 0 0 0 1 45.277260658589434 20.12182981159231 8.6954282646920973 1 rotate no_reflect no_shear #
lump $-1 $-1 $47 $8 #
transform $-1 1 0 0 0 1 0 0 0 1 45.277260658589434 20.12182981159231 8.6954282646920973 1 rotate no_reflect no_shear #
lump $-1 $-1 $48 $9 #
transform $-1 1 0 0 0 1 0 0 0 1 45.277260658589434 20.12182981159231 8.6954282646920973 1 rotate no_reflect no_shear #
lump $-1 $-1 $49 $10 #
transform $-1 1 0 0 0 1 0 0 0 1 45.277260658589434 20.12182981159231 8.6954282646920973 1 rotate no_reflect no_shear #
lump $-1 $-1 $50 $11 #
transform $-1 1 0 0 0 1 0 0 0 1 45.277260658589434 20.12182981159231 8.6954282646920973 1 rotate no_reflect no_shear #
lump $-1 $-1 $51 $12 #
transform $-1 1 0 0 0 1 0 0 0 1 45.277260658589434 20.12182981159231 8.6954282646920973 1 rotate no_reflect no_shear #
shell $-1 $-1 $-1 $52 $-1 $13 #
shell $-1 $-1 $-1 $53 $-1 $15 #
shell $-1 $-1 $-1 $54 $-1 $17 #
shell $-1 $-1 $-1 $55 $-1 $19 #
shell $-1 $-1 $-1 $56 $-1 $21 #
shell $-1 $-1 $-1 $57 $-1 $23 #
shell $-1 $-1 $-1 $58 $-1 $25 #
shell $-1 $-1 $-1 $59 $-1 $27 #
shell $-1 $-1 $-1 $60 $-1 $29 #
shell $-1 $-1 $-1 $61 $-1 $31 #
shell $-1 $-1 $-1 $62 $-1 $33 #
shell $-1 $-1 $-1 $63 $-1 $35 #
shell $-1 $-1 $-1 $64 $-1 $37 #
face $-1 $65 $66 $39 $-1 $67 forward single #
face $-1 $68 $69 $40 $-1 $70 forward single #
face $-1 $71 $72 $41 $-1 $73 forward single #
face $-1 $74 $75 $42 $-1 $76 reversed single #
face $-1 $77 $78 $43 $-1 $79 forward single #
face $-1 $80 $81 $44 $-1 $82 forward single #
face $-1 $83 $84 $45 $-1 $85 reversed single #
face $-1 $86 $87 $46 $-1 $88 forward single #
face $-1 $89 $90 $47 $-1 $91 forward single #
face $-1 $92 $93 $48 $-1 $94 reversed single #
face $-1 $95 $96 $49 $-1 $97 forward single #
face $-1 $98 $99 $50 $-1 $100 forward single #
face $-1 $101 $102 $51 $-1 $103 forward single #
face $-1 $104 $105 $39 $-1 $106 reversed single #
loop $-1 $-1 $107 $52 #
plane-surface $-1 0 0 8.6954282646920973 0 0 1 1 0 0 forward_v I I I I #
face $-1 $108 $109 $40 $-1 $110 reversed single #
loop $-1 $-1 $111 $53 #
plane-surface $-1 -45.277260658589434 0 0 1 0 0 0 0 -1 forward_v I I I I #
face $-1 $112 $113 $41 $-1 $114 reversed single #
loop $-1 $-1 $115 $54 #
plane-surface $-1 45.277260658589434 0 0 -1 0 0 0 0 1 forward_v I I I I #
face $-1 $116 $117 $42 $-1 $118 reversed single #
loop $-1 $-1 $119 $55 #
plane-surface $-1 -19.147661039946868 72.69096269016012 88.038348440950841 1 0 0 0 -0.82903758062907751 -0.55919289150049634 forward_v I I I I #
face $-1 $120 $121 $43 $-1 $122 forward single #
loop $-1 $123 $124 $56 #
cone-surface $-1 -14.493397672852382 17.864378417282591 5.903355593156693 0 -0.82903758062907751 -0.55919289150049634 0.5 0 0 1 I I 0 1 0.5 forward I I I I #
face $-1 $125 $126 $44 $-1 $127 forward single #
loop $-1 $128 $129 $57 #
cone-surface $-1 -7.5120026222106517 17.864378417282591 5.903355593156693 0 -0.82903758062907751 -0.55919289150049634 0.5 0 0 1 I I 0 1 0.5 forward I I I I #
face $-1 $130 $131 $45 $-1 $132 reversed single #
loop $-1 $-1 $133 $58 #
plane-surface $-1 17.307185779036054 72.69096269016012 88.038348440950841 1 0 0 0 -0.82903758062907751 -0.55919289150049634 forward_v I I I I #
face $-1 $134 $135 $46 $-1 $136 forward single #
loop $-1 $137 $138 $59 #
cone-surface $-1 21.961449146130541 17.864378417282591 5.903355593156693 0 -0.82903758062907751 -0.55919289150049634 0.5 0 0 1 I I 0 1 0.5 forward I I I I #
face $-1 $139 $140 $47 $-1 $141 forward single #
loop $-1 $142 $143 $60 #
cone-surface $-1 28.942844196772278 17.864378417282591 5.903355593156693 0 -0.82903758062907751 -0.55919289150049634 0.5 0 0 1 I I 0 1 0.5 forward I I I I #
face $-1 $144 $145 $48 $-1 $146 reversed single #
loop $-1 $-1 $147 $61 #
plane-surface $-1 2.1561902686334147 -92.441886875540774 59.461080969434335 -1 0 0 0 -0.79863551827123203 0.60181501223851219 forward_v I I I I #
face $-1 $148 $149 $49 $-1 $150 forward single #
loop $-1 $151 $152 $62 #
cone-surface $-1 -10.823946943529627 -18.316599651034966 6.5288119335686545 0 0.79863551827123203 -0.60181501223851219 0.25 0 0 1 I I 0 1 0.25 forward I I I I #
face $-1 $153 $154 $50 $-1 $155 forward single #
loop $-1 $156 $157 $63 #
cone-surface $-1 -5.9563954889684894 -18.316599651034966 6.5288119335686545 0 0.79863551827123203 -0.60181501223851219 0.25 0 0 1 I I 0 1 0.25 forward I I I I #
face $-1 $158 $159 $51 $-1 $160 forward single #
loop $-1 $161 $162 $64 #
cone-surface $-1 -1.0888440344073516 -18.316599651034966 6.5288119335686545 0 0.79863551827123203 -0.60181501223851219 0.25 0 0 1 I I 0 1 0.25 forward I I I I #
face $-1 $163 $164 $39 $-1 $165 reversed single #
loop $-1 $-1 $166 $65 #
plane-surface $-1 0 0 -8.6954282646920973 0 0 1 1 0 0 forward_v I I I I #
coedge $-1 $167 $168 $169 $170 forward $66 $-1 #
face $-1 $171 $172 $40 $-1 $173 forward single #
loop $-1 $-1 $174 $68 #
plane-surface $-1 0 20.12182981159231 0 0 -1 0 0 0 -1 forward_v I I I I #
coedge $-1 $175 $176 $177 $178 forward $69 $-1 #
face $-1 $179 $180 $41 $-1 $181 forward single #
loop $-1 $-1 $182 $71 #
plane-surface $-1 0 -20.12182981159231 0 0 1 0 0 0 1 forward_v I I I I #
coedge $-1 $183 $184 $185 $186 forward $72 $-1 #
face $-1 $187 $188 $42 $-1 $189 reversed single #
loop $-1 $-1 $190 $74 #
plane-surface $-1 -11.002700147531513 -2.3821385776580684 37.400903827154259 0 0.82903758062907751 0.55919289150049634 1 0 0 forward_v I I I I #
coedge $-1 $191 $192 $193 $194 reversed $75 $-1 #
face $-1 $-1 $195 $43 $-1 $196 forward single #
loop $-1 $197 $198 $77 #
cone-surface $-1 -14.493397672852382 16.970608250513816 5.3005000223476237 0 -0.82903758062907751 -0.55919289150049634 0.25 0 0 1 I I -0.70710678118654746 0.70710678118654746 0.25 forward I I I I #
loop $-1 $-1 $199 $56 #
coedge $-1 $124 $124 $200 $201 reversed $78 $-1 #
face $-1 $-1 $202 $44 $-1 $203 forward single #
loop $-1 $204 $205 $80 #
cone-surface $-1 -7.5120026222106517 16.970608250513816 5.3005000223476237 0 -0.82903758062907751 -0.55919289150049634 0.25 0 0 1 I I -0.70710678118654746 0.70710678118654746 0.25 forward I I I I #
loop $-1 $-1 $206 $57 #
coedge $-1 $129 $129 $207 $208 reversed $81 $-1 #
face $-1 $209 $210 $45 $-1 $211 reversed single #
loop $-1 $-1 $212 $83 #
plane-surface $-1 25.452146671451409 -2.3821385776580684 37.400903827154259 0 0.82903758062907751 0.55919289150049634 1 0 0 forward_v I I I I #
coedge $-1 $213 $214 $215 $216 reversed $84 $-1 #
face $-1 $-1 $217 $46 $-1 $218 forward single #
loop $-1 $219 $220 $86 #
cone-surface $-1 21.961449146130541 16.970608250513816 5.3005000223476237 0 -0.82903758062907751 -0.55919289150049634 0.25 0 0 1 I I -0.70710678118654746 0.70710678118654746 0.25 forward I I I I #
loop $-1 $-1 $221 $59 #
coedge $-1 $138 $138 $222 $223 reversed $87 $-1 #
face $-1 $-1 $224 $47 $-1 $225 forward single #
loop $-1 $226 $227 $89 #
cone-surface $-1 28.942844196772278 16.970608250513816 5.3005000223476237 0 -0.82903758062907751 -0.55919289150049634 0.25 0 0 1 I I -0.70710678118654746 0.70710678118654746 0.25 forward I I I I #
loop $-1 $-1 $228 $60 #
coedge $-1 $143 $143 $229 $230 reversed $90 $-1 #
face $-1 $231 $232 $48 $-1 $233 reversed single #
loop $-1 $-1 $234 $92 #
plane-surface $-1 -5.9563954889684894 -20.121829811592306 4.9640106146837226 0 -0.79863551827123203 0.60181501223851219 1 0 0 forward_v I I I I #
coedge $-1 $235 $236 $237 $238 reversed $93 $-1 #
face $-1 $-1 $239 $49 $-1 $240 forward single #
loop $-1 $241 $242 $95 #
cone-surface $-1 -10.823946943529627 -17.817452452115447 6.1526775509195843 0 0.79863551827123203 -0.60181501223851219 0.125 0 0 1 I I -0.70710678118654746 0.70710678118654746 0.125 forward I I I I #
loop $-1 $-1 $243 $62 #
coedge $-1 $152 $152 $244 $245 reversed $96 $-1 #
face $-1 $-1 $246 $50 $-1 $247 forward single #
loop $-1 $248 $249 $98 #
cone-surface $-1 -5.9563954889684894 -17.817452452115447 6.1526775509195843 0 0.79863551827123203 -0.60181501223851219 0.125 0 0 1 I I -0.70710678118654746 0.70710678118654746 0.125 forward I I I I #
loop $-1 $-1 $250 $63 #
coedge $-1 $157 $157 $251 $252 reversed $99 $-1 #
face $-1 $-1 $253 $51 $-1 $254 forward single #
loop $-1 $255 $256 $101 #
cone-surface $-1 -1.0888440344073516 -17.817452452115447 6.1526775509195843 0 0.79863551827123203 -0.60181501223851219 0.125 0 0 1 I I -0.70710678118654746 0.70710678118654746 0.125 forward I I I I #
loop $-1 $-1 $257 $64 #
coedge $-1 $162 $162 $258 $259 reversed $102 $-1 #
face $-1 $260 $261 $39 $-1 $262 reversed single #
loop $-1 $-1 $263 $104 #
plane-surface $-1 0 -20.12182981159231 0 0 1 0 0 0 1 forward_v I I I I #
coedge $-1 $264 $265 $266 $267 forward $105 $-1 #
coedge $-1 $268 $107 $269 $270 forward $66 $-1 #
coedge $-1 $107 $268 $271 $272 forward $66 $-1 #
coedge $-1 $273 $274 $107 $170 reversed $275 $-1 #
edge $-1 $276 -20.12182981159231 $277 20.12182981159231 $169 $278 forward 7 unknown #
face $-1 $279 $280 $40 $-1 $281 reversed single #
loop $-1 $-1 $177 $108 #
plane-surface $-1 -49.494669418432302 0 -4.5293854751320204 0 0 1 1 0 0 forward_v I I I I #
coedge $-1 $282 $283 $176 $284 forward $109 $-1 #
coedge $-1 $285 $111 $286 $287 reversed $69 $-1 #
coedge $-1 $111 $285 $174 $284 reversed $69 $-1 #
coedge $-1 $288 $289 $111 $178 reversed $172 $-1 #
edge $-1 $290 -20.12182981159231 $291 20.12182981159231 $177 $292 forward 7 unknown #
face $-1 $293 $294 $41 $-1 $295 reversed single #
loop $-1 $-1 $296 $112 #
plane-surface $-1 49.882265738353077 0 0.59505417405328132 0 0 1 1 0 0 forward_v I I I I #
coedge $-1 $297 $298 $184 $299 forward $113 $-1 #
coedge $-1 $300 $115 $301 $302 reversed $72 $-1 #
coedge $-1 $115 $300 $182 $299 reversed $72 $-1 #
coedge $-1 $303 $304 $115 $186 reversed $180 $-1 #
edge $-1 $305 -20.12182981159231 $306 20.12182981159231 $185 $307 forward 7 unknown #
face $-1 $308 $309 $42 $-1 $310 reversed single #
loop $-1 $-1 $311 $116 #
plane-surface $-1 -2.8577392551161562 72.69096269016012 88.038348440950841 -1 0 0 0 0.82903758062907751 0.55919289150049634 forward_v I I I I #
coedge $-1 $312 $313 $314 $315 reversed $117 $-1 #
coedge $-1 $192 $119 $316 $317 reversed $75 $-1 #
coedge $-1 $119 $191 $312 $318 reversed $75 $-1 #
coedge $-1 $314 $319 $119 $194 forward $320 $-1 #
edge $-1 $321 16.22365153348775 $322 19.365532778884166 $193 $323 forward 7 unknown #
loop $-1 $-1 $200 $120 #
plane-surface $-1 -11.002700147531513 -2.3821385776580684 37.400903827154259 0 0.82903758062907751 0.55919289150049634 1 0 0 forward_v I I I I #
loop $-1 $-1 $324 $77 #
coedge $-1 $198 $198 $199 $325 reversed $121 $-1 #
coedge $-1 $199 $199 $198 $325 forward $123 $-1 #
coedge $-1 $200 $200 $124 $201 forward $195 $-1 #
edge $-1 $326 -5.8327605653577847e-016 $326 6.2831853071795996 $200 $327 forward 7 unknown #
loop $-1 $-1 $207 $125 #
plane-surface $-1 -11.002700147531513 -2.3821385776580684 37.400903827154259 0 0.82903758062907751 0.55919289150049634 1 0 0 forward_v I I I I #
loop $-1 $-1 $328 $80 #
coedge $-1 $205 $205 $206 $329 reversed $126 $-1 #
coedge $-1 $206 $206 $205 $329 forward $128 $-1 #
coedge $-1 $207 $207 $129 $208 forward $202 $-1 #
edge $-1 $330 -5.8327605653577847e-016 $330 6.2831853071795996 $207 $331 forward 7 unknown #
face $-1 $332 $333 $45 $-1 $334 forward single #
loop $-1 $-1 $335 $130 #
plane-surface $-1 33.597107563866764 72.69096269016012 88.038348440950841 -1 0 0 0 0.82903758062907751 0.55919289150049634 forward_v I I I I #
coedge $-1 $336 $337 $338 $339 reversed $131 $-1 #
coedge $-1 $214 $133 $340 $341 reversed $84 $-1 #
coedge $-1 $133 $213 $336 $342 reversed $84 $-1 #
coedge $-1 $338 $343 $133 $216 forward $333 $-1 #
edge $-1 $344 16.22365153348775 $345 19.365532778884166 $215 $346 forward 7 unknown #
loop $-1 $-1 $222 $134 #
plane-surface $-1 25.452146671451409 -2.3821385776580684 37.400903827154259 0 0.82903758062907751 0.55919289150049634 1 0 0 forward_v I I I I #
loop $-1 $-1 $347 $86 #
coedge $-1 $220 $220 $221 $348 reversed $135 $-1 #
coedge $-1 $221 $221 $220 $348 forward $137 $-1 #
coedge $-1 $222 $222 $138 $223 forward $217 $-1 #
edge $-1 $349 -5.8327605653577847e-016 $349 6.2831853071795996 $222 $350 forward 7 unknown #
loop $-1 $-1 $229 $139 #
plane-surface $-1 25.452146671451409 -2.3821385776580684 37.400903827154259 0 0.82903758062907751 0.55919289150049634 1 0 0 forward_v I I I I #
loop $-1 $-1 $351 $89 #
coedge $-1 $227 $227 $228 $352 reversed $140 $-1 #
coedge $-1 $228 $228 $227 $352 forward $142 $-1 #
coedge $-1 $229 $229 $143 $230 forward $224 $-1 #
edge $-1 $353 -5.8327605653577847e-016 $353 6.2831853071795996 $229 $354 forward 7 unknown #
face $-1 $355 $356 $48 $-1 $357 forward single #
loop $-1 $-1 $358 $144 #
plane-surface $-1 -14.068981246570393 -92.441886875540774 59.461080969434335 1 0 0 0 0.79863551827123203 -0.60181501223851219 forward_v I I I I #
coedge $-1 $359 $360 $361 $362 reversed $145 $-1 #
coedge $-1 $236 $147 $363 $364 reversed $93 $-1 #
coedge $-1 $147 $235 $359 $365 reversed $93 $-1 #
coedge $-1 $361 $366 $147 $238 forward $356 $-1 #
edge $-1 $367 26.099113626178077 $368 28.910938429021542 $237 $369 forward 7 unknown #
loop $-1 $-1 $244 $148 #
plane-surface $-1 -5.9563954889684894 -20.121829811592306 4.9640106146837226 0 -0.79863551827123203 0.60181501223851219 1 0 0 forward_v I I I I #
loop $-1 $-1 $370 $95 #
coedge $-1 $242 $242 $243 $371 reversed $149 $-1 #
coedge $-1 $243 $243 $242 $371 forward $151 $-1 #
coedge $-1 $244 $244 $152 $245 forward $239 $-1 #
edge $-1 $372 2.7969876162035207e-015 $372 6.2831853071796031 $244 $373 forward 7 unknown #
loop $-1 $-1 $251 $153 #
plane-surface $-1 -5.9563954889684894 -20.121829811592306 4.9640106146837226 0 -0.79863551827123203 0.60181501223851219 1 0 0 forward_v I I I I #
loop $-1 $-1 $374 $98 #
coedge $-1 $249 $249 $250 $375 reversed $154 $-1 #
coedge $-1 $250 $250 $249 $375 forward $156 $-1 #
coedge $-1 $251 $251 $157 $252 forward $246 $-1 #
edge $-1 $376 2.7969876162035207e-015 $376 6.2831853071796031 $251 $377 forward 7 unknown #
loop $-1 $-1 $258 $158 #
plane-surface $-1 -5.9563954889684894 -20.121829811592306 4.9640106146837226 0 -0.79863551827123203 0.60181501223851219 1 0 0 forward_v I I I I #
loop $-1 $-1 $378 $101 #
coedge $-1 $256 $256 $257 $379 reversed $159 $-1 #
coedge $-1 $257 $257 $256 $379 forward $161 $-1 #
coedge $-1 $258 $258 $162 $259 forward $253 $-1 #
edge $-1 $380 2.7969876162035207e-015 $380 6.2831853071796031 $258 $381 forward 7 unknown #
face $-1 $382 $383 $39 $-1 $384 reversed single #
loop $-1 $-1 $385 $163 #
plane-surface $-1 -45.277260658589434 0 0 1 0 0 0 0 -1 forward_v I I I I #
coedge $-1 $386 $271 $387 $388 forward $164 $-1 #
coedge $-1 $389 $166 $386 $390 forward $105 $-1 #
coedge $-1 $166 $389 $391 $392 forward $105 $-1 #
coedge $-1 $274 $273 $166 $267 reversed $275 $-1 #
edge $-1 $393 -20.12182981159231 $394 20.12182981159231 $266 $395 forward 7 unknown #
coedge $-1 $168 $167 $396 $397 forward $66 $-1 #
coedge $-1 $398 $399 $167 $270 reversed $383 $-1 #
edge $-1 $277 -45.277260658589434 $400 45.277260658589434 $269 $401 forward 7 unknown #
coedge $-1 $263 $402 $168 $272 reversed $164 $-1 #
edge $-1 $403 -45.277260658589434 $276 45.277260658589434 $271 $404 forward 7 unknown #
coedge $-1 $266 $169 $402 $405 forward $275 $-1 #
coedge $-1 $169 $266 $398 $406 reversed $275 $-1 #
loop $-1 $-1 $273 $382 #
vertex $-1 $170 $407 #
vertex $-1 $170 $408 #
straight-curve $-1 45.277260658589434 0 8.6954282646920973 0 1 0 I I #
face $-1 $409 $410 $40 $-1 $411 reversed single #
loop $-1 $-1 $412 $171 #
plane-surface $-1 -49.494669418432302 0 -7.5293854751320204 0 0 1 1 0 0 forward_v I I I I #
coedge $-1 $413 $174 $414 $415 reversed $109 $-1 #
coedge $-1 $174 $413 $288 $416 reversed $109 $-1 #
edge $-1 $290 4.5293854751320204 $417 7.5293854751320204 $174 $418 forward 7 unknown #
coedge $-1 $176 $175 $412 $419 forward $69 $-1 #
coedge $-1 $420 $421 $175 $287 forward $422 $-1 #
edge $-1 $423 -7.5293854751320204 $291 -4.5293854751320204 $286 $424 forward 7 unknown #
coedge $-1 $425 $177 $283 $416 forward $172 $-1 #
coedge $-1 $177 $425 $420 $426 forward $172 $-1 #
vertex $-1 $284 $427 #
vertex $-1 $426 $428 #
straight-curve $-1 -45.277260658589434 0 -4.5293854751320204 0 -1 0 I I #
face $-1 $429 $430 $41 $-1 $431 reversed single #
loop $-1 $-1 $432 $179 #
plane-surface $-1 49.882265738353077 0 -2.4049458259467187 0 0 1 1 0 0 forward_v I I I I #
coedge $-1 $304 $303 $433 $434 forward $180 $-1 #
coedge $-1 $435 $182 $436 $437 reversed $113 $-1 #
coedge $-1 $182 $435 $303 $438 reversed $113 $-1 #
edge $-1 $305 -0.59505417405328132 $439 2.4049458259467187 $182 $440 forward 7 unknown #
coedge $-1 $184 $183 $441 $442 forward $72 $-1 #
coedge $-1 $443 $444 $183 $302 forward $445 $-1 #
edge $-1 $446 -2.4049458259467187 $306 0.59505417405328132 $301 $447 forward 7 unknown #
coedge $-1 $296 $185 $298 $438 forward $180 $-1 #
coedge $-1 $185 $296 $443 $448 forward $180 $-1 #
vertex $-1 $299 $449 #
vertex $-1 $448 $450 #
straight-curve $-1 45.277260658589434 0 0.59505417405328132 0 1 0 I I #
face $-1 $-1 $320 $42 $-1 $451 forward single #
loop $-1 $-1 $452 $187 #
plane-surface $-1 0 20.12182981159231 0 0 -1 0 0 0 -1 forward_v I I I I #
coedge $-1 $453 $454 $455 $456 reversed $188 $-1 #
coedge $-1 $457 $190 $192 $318 forward $117 $-1 #
coedge $-1 $190 $457 $453 $458 forward $117 $-1 #
coedge $-1 $455 $193 $190 $315 forward $320 $-1 #
edge $-1 $322 -13.646310966181112 $459 2.6436108186496003 $314 $460 forward 7 unknown #
coedge $-1 $461 $462 $191 $317 forward $309 $-1 #
edge $-1 $463 -39.981776602986223 $321 -35.323745955783323 $316 $464 forward 7 unknown #
edge $-1 $322 34.62505950656702 $463 40.243659623184612 $192 $465 forward 7 unknown #
coedge $-1 $193 $455 $461 $466 forward $320 $-1 #
loop $-1 $-1 $455 $308 #
vertex $-1 $317 $467 #
vertex $-1 $194 $468 #
straight-curve $-1 -19.147661039946868 36.34548134508006 8.6954282646920973 0 -1 0 I I #
coedge $-1 $324 $324 $-1 $469 reversed $197 $-1 #
edge $-1 $470 0 $470 6.2831853071796004 $198 $471 forward 7 unknown #
vertex $-1 $201 $472 #
ellipse-curve $-1 -14.493397672852382 18.550889188894104 6.3664129410906432 0 0.82903758062907751 0.55919289150049634 0.5 0 0 1 I I #
coedge $-1 $328 $328 $-1 $473 reversed $204 $-1 #
edge $-1 $474 0 $474 6.2831853071796004 $205 $475 forward 7 unknown #
vertex $-1 $208 $476 #
ellipse-curve $-1 -7.5120026222106517 18.550889188894104 6.3664129410906432 0 0.82903758062907751 0.55919289150049634 0.5 0 0 1 I I #
face $-1 $-1 $477 $45 $-1 $478 reversed single #
loop $-1 $-1 $215 $209 #
plane-surface $-1 0 0 8.6954282646920973 0 0 1 1 0 0 forward_v I I I I #
coedge $-1 $479 $480 $481 $482 reversed $210 $-1 #
coedge $-1 $483 $212 $214 $342 forward $131 $-1 #
coedge $-1 $212 $483 $479 $484 forward $131 $-1 #
coedge $-1 $481 $215 $212 $339 forward $333 $-1 #
edge $-1 $345 4.5811124433103494 $485 20.87103422814106 $338 $486 forward 7 unknown #
coedge $-1 $487 $488 $213 $341 forward $477 $-1 #
edge $-1 $489 -39.981776602986223 $344 -35.323745955783323 $340 $490 forward 7 unknown #
edge $-1 $345 34.62505950656702 $489 40.243659623184612 $214 $491 forward 7 unknown #
coedge $-1 $215 $481 $487 $492 forward $333 $-1 #
vertex $-1 $216 $493 #
vertex $-1 $216 $494 #
straight-curve $-1 17.307185779036054 36.34548134508006 8.6954282646920973 0 -1 0 I I #
coedge $-1 $347 $347 $-1 $495 reversed $219 $-1 #
edge $-1 $496 0 $496 6.2831853071796004 $220 $497 forward 7 unknown #
vertex $-1 $223 $498 #
ellipse-curve $-1 21.961449146130541 18.550889188894104 6.3664129410906432 0 0.82903758062907751 0.55919289150049634 0.5 0 0 1 I I #
coedge $-1 $351 $351 $-1 $499 reversed $226 $-1 #
edge $-1 $500 0 $500 6.2831853071796004 $227 $501 forward 7 unknown #
vertex $-1 $230 $502 #
ellipse-curve $-1 28.942844196772278 18.550889188894104 6.3664129410906432 0 0.82903758062907751 0.55919289150049634 0.5 0 0 1 I I #
face $-1 $-1 $503 $48 $-1 $504 reversed single #
loop $-1 $-1 $237 $231 #
plane-surface $-1 0 0 8.6954282646920973 0 0 1 1 0 0 forward_v I I I I #
coedge $-1 $505 $506 $507 $508 reversed $232 $-1 #
coedge $-1 $509 $234 $236 $365 forward $145 $-1 #
coedge $-1 $234 $509 $505 $510 forward $145 $-1 #
coedge $-1 $507 $237 $234 $362 forward $356 $-1 #
edge $-1 $368 -5.1343880131176594 $511 11.090783502086149 $361 $512 forward 7 unknown #
coedge $-1 $513 $514 $235 $364 forward $503 $-1 #
edge $-1 $515 -24.766529870033448 $367 -21.03511222002507 $363 $516 forward 7 unknown #
edge $-1 $368 -4.6722410469366507 $515 5.6847305887599196e-015 $236 $517 forward 7 unknown #
coedge $-1 $237 $507 $513 $518 forward $356 $-1 #
vertex $-1 $364 $519 #
vertex $-1 $238 $520 #
straight-curve $-1 2.1561902686334147 -46.220943437770387 8.6954282646920973 0 1 0 I I #
coedge $-1 $370 $370 $-1 $521 reversed $241 $-1 #
edge $-1 $522 0 $522 6.2831853071796004 $242 $523 forward 7 unknown #
vertex $-1 $245 $524 #
ellipse-curve $-1 -10.823946943529627 -18.715917410170579 6.8297194396879073 0 -0.79863551827123203 0.60181501223851219 0.25 0 0 1 I I #
coedge $-1 $374 $374 $-1 $525 reversed $248 $-1 #
edge $-1 $526 0 $526 6.2831853071796004 $249 $527 forward 7 unknown #
vertex $-1 $252 $528 #
ellipse-curve $-1 -5.9563954889684894 -18.715917410170579 6.8297194396879073 0 -0.79863551827123203 0.60181501223851219 0.25 0 0 1 I I #
coedge $-1 $378 $378 $-1 $529 reversed $255 $-1 #
edge $-1 $530 0 $530 6.2831853071796004 $256 $531 forward 7 unknown #
vertex $-1 $259 $532 #
ellipse-curve $-1 -1.0888440344073516 -18.715917410170579 6.8297194396879073 0 -0.79863551827123203 0.60181501223851219 0.25 0 0 1 I I #
face $-1 $-1 $275 $39 $-1 $533 reversed single #
loop $-1 $-1 $398 $260 #
plane-surface $-1 0 20.12182981159231 0 0 -1 0 0 0 -1 forward_v I I I I #
coedge $-1 $534 $396 $399 $535 forward $261 $-1 #
coedge $-1 $402 $263 $264 $390 reversed $164 $-1 #
coedge $-1 $396 $534 $263 $388 reversed $261 $-1 #
edge $-1 $403 -8.6954282646920973 $536 8.6954282646920973 $387 $537 forward 7 unknown #
coedge $-1 $265 $264 $534 $538 forward $105 $-1 #
edge $-1 $394 -45.277260658589434 $536 45.277260658589434 $386 $539 forward 7 unknown #
coedge $-1 $399 $398 $265 $392 reversed $383 $-1 #
edge $-1 $540 -45.277260658589434 $393 45.277260658589434 $391 $541 forward 7 unknown #
vertex $-1 $267 $542 #
vertex $-1 $405 $543 #
straight-curve $-1 45.277260658589434 0 -8.6954282646920973 0 -1 0 I I #
coedge $-1 $385 $387 $268 $397 reversed $261 $-1 #
edge $-1 $400 -20.12182981159231 $403 20.12182981159231 $396 $544 forward 7 unknown #
coedge $-1 $391 $269 $274 $406 forward $383 $-1 #
coedge $-1 $269 $391 $385 $535 reversed $383 $-1 #
vertex $-1 $270 $545 #
straight-curve $-1 0 20.12182981159231 8.6954282646920973 -1 0 0 I I #
coedge $-1 $271 $386 $273 $405 reversed $164 $-1 #
vertex $-1 $397 $546 #
straight-curve $-1 0 -20.12182981159231 8.6954282646920973 1 0 0 I I #
edge $-1 $276 -8.6954282646920973 $394 8.6954282646920973 $273 $547 forward 7 unknown #
edge $-1 $277 -8.6954282646920973 $393 8.6954282646920973 $274 $548 forward 7 unknown #
point $-1 45.277260658589434 -20.12182981159231 8.6954282646920973 #
point $-1 45.277260658589434 20.12182981159231 8.6954282646920973 #
face $-1 $-1 $422 $40 $-1 $549 reversed single #
loop $-1 $-1 $550 $279 #
plane-surface $-1 -53.712078178275171 0 -6.0293854751320204 1 0 0 0 0 -1 forward_v I I I I #
coedge $-1 $551 $414 $285 $419 reversed $280 $-1 #
coedge $-1 $283 $282 $550 $552 reversed $109 $-1 #
coedge $-1 $412 $553 $282 $415 forward $280 $-1 #
edge $-1 $554 -4.2174087598428684 $417 4.2174087598428684 $282 $555 forward 7 unknown #
edge $-1 $290 -4.2174087598428684 $556 4.2174087598428684 $283 $557 forward 7 unknown #
vertex $-1 $284 $558 #
straight-curve $-1 -45.277260658589434 20.12182981159231 0 0 0 -1 I I #
edge $-1 $423 -20.12182981159231 $417 20.12182981159231 $412 $559 forward 7 unknown #
coedge $-1 $560 $286 $289 $426 reversed $422 $-1 #
coedge $-1 $286 $560 $551 $561 reversed $422 $-1 #
loop $-1 $-1 $286 $409 #
vertex $-1 $287 $562 #
straight-curve $-1 -45.277260658589434 -20.12182981159231 0 0 0 1 I I #
coedge $-1 $289 $288 $563 $564 forward $172 $-1 #
edge $-1 $565 -4.2174087598428684 $291 4.2174087598428684 $420 $566 forward 7 unknown #
point $-1 -45.277260658589434 20.12182981159231 -4.5293854751320204 #
point $-1 -45.277260658589434 -20.12182981159231 -4.5293854751320204 #
face $-1 $-1 $445 $41 $-1 $567 reversed single #
loop $-1 $-1 $568 $293 #
plane-surface $-1 54.48727081811672 0 -0.90494582594671868 -1 0 0 0 0 1 forward_v I I I I #
coedge $-1 $436 $569 $570 $571 forward $294 $-1 #
coedge $-1 $568 $572 $296 $434 reversed $430 $-1 #
edge $-1 $573 -20.12182981159231 $574 20.12182981159231 $433 $575 forward 7 unknown #
coedge $-1 $298 $297 $568 $576 reversed $113 $-1 #
coedge $-1 $441 $432 $297 $437 forward $294 $-1 #
edge $-1 $577 -4.605005079763643 $439 4.605005079763643 $297 $578 forward 7 unknown #
edge $-1 $305 -4.605005079763643 $573 4.605005079763643 $298 $579 forward 7 unknown #
vertex $-1 $299 $580 #
straight-curve $-1 45.277260658589434 -20.12182981159231 0 0 0 -1 I I #
coedge $-1 $569 $436 $300 $442 reversed $294 $-1 #
edge $-1 $446 -20.12182981159231 $439 20.12182981159231 $441 $581 forward 7 unknown #
coedge $-1 $582 $301 $304 $448 reversed $445 $-1 #
coedge $-1 $301 $582 $569 $583 reversed $445 $-1 #
loop $-1 $-1 $301 $429 #
vertex $-1 $302 $584 #
straight-curve $-1 45.277260658589434 20.12182981159231 0 0 0 1 I I #
edge $-1 $574 -4.605005079763643 $306 4.605005079763643 $443 $585 forward 7 unknown #
point $-1 45.277260658589434 -20.12182981159231 0.59505417405328132 #
point $-1 45.277260658589434 20.12182981159231 0.59505417405328132 #
plane-surface $-1 0 0 8.6954282646920973 0 0 1 1 0 0 forward_v I I I I #
coedge $-1 $462 $461 $454 $586 forward $309 $-1 #
coedge $-1 $454 $311 $313 $458 reversed $188 $-1 #
coedge $-1 $311 $453 $452 $586 reversed $188 $-1 #
coedge $-1 $319 $314 $311 $456 forward $320 $-1 #
edge $-1 $459 -19.365532778884166 $587 -16.22365153348775 $455 $588 forward 7 unknown #
coedge $-1 $313 $312 $462 $589 reversed $117 $-1 #
edge $-1 $590 -40.243659623184612 $459 -34.62505950656702 $453 $591 forward 7 unknown #
vertex $-1 $315 $592 #
straight-curve $-1 -5.5013500737657566 16.97994856619589 8.6954282646920973 1 0 0 I I #
coedge $-1 $452 $316 $319 $466 reversed $309 $-1 #
coedge $-1 $316 $452 $457 $589 forward $309 $-1 #
vertex $-1 $317 $593 #
straight-curve $-1 -19.147661039946868 20.12182981159231 44.019174220475421 0 0 1 I I #
straight-curve $-1 -19.147661039946868 -2.3821385776580684 37.400903827154259 0 0.55919289150049634 -0.82903758062907751 I I #
edge $-1 $587 2.8577392551161562 $321 19.147661039946868 $461 $594 forward 7 unknown #
point $-1 -19.147661039946868 20.12182981159231 8.6954282646920973 #
point $-1 -19.147661039946868 16.979948566195894 8.6954282646920973 #
edge $-1 $595 1 $595 0 $324 $-1 forward 7 unknown #
vertex $-1 $325 $596 #
ellipse-curve $-1 -14.493397672852382 17.177867645671085 5.4402982452227482 0 0.82903758062907751 0.55919289150049634 0.5 0 0 1 I I #
point $-1 -13.993397672852382 18.550889188894097 6.3664129410906387 #
edge $-1 $597 1 $597 0 $328 $-1 forward 7 unknown #
vertex $-1 $329 $598 #
ellipse-curve $-1 -7.5120026222106517 17.177867645671085 5.4402982452227482 0 0.82903758062907751 0.55919289150049634 0.5 0 0 1 I I #
point $-1 -7.0120026222106517 18.550889188894097 6.3664129410906387 #
loop $-1 $-1 $340 $332 #
plane-surface $-1 0 20.12182981159231 0 0 -1 0 0 0 -1 forward_v I I I I #
coedge $-1 $480 $335 $337 $484 reversed $210 $-1 #
coedge $-1 $335 $479 $599 $600 reversed $210 $-1 #
coedge $-1 $343 $338 $335 $482 forward $333 $-1 #
edge $-1 $485 -19.365532778884166 $601 -16.22365153348775 $481 $602 forward 7 unknown #
coedge $-1 $337 $336 $488 $603 reversed $131 $-1 #
edge $-1 $604 -40.243659623184612 $485 -34.62505950656702 $479 $605 forward 7 unknown #
vertex $-1 $339 $606 #
straight-curve $-1 12.726073335725705 16.97994856619589 8.6954282646920973 1 0 0 I I #
coedge $-1 $599 $340 $343 $492 reversed $477 $-1 #
coedge $-1 $340 $599 $483 $603 forward $477 $-1 #
vertex $-1 $341 $607 #
straight-curve $-1 17.307185779036054 20.12182981159231 44.019174220475421 0 0 1 I I #
straight-curve $-1 17.307185779036054 -2.3821385776580684 37.400903827154259 0 0.55919289150049634 -0.82903758062907751 I I #
edge $-1 $601 -33.597107563866764 $344 -17.307185779036054 $487 $608 forward 7 unknown #
point $-1 17.307185779036054 20.12182981159231 8.6954282646920973 #
point $-1 17.307185779036054 16.979948566195894 8.6954282646920973 #
edge $-1 $609 1 $609 0 $347 $-1 forward 7 unknown #
vertex $-1 $348 $610 #
ellipse-curve $-1 21.961449146130541 17.177867645671085 5.4402982452227482 0 0.82903758062907751 0.55919289150049634 0.5 0 0 1 I I #
point $-1 22.461449146130541 18.550889188894097 6.3664129410906387 #
edge $-1 $611 1 $611 0 $351 $-1 forward 7 unknown #
vertex $-1 $352 $612 #
ellipse-curve $-1 28.942844196772278 17.177867645671085 5.4402982452227482 0 0.82903758062907751 0.55919289150049634 0.5 0 0 1 I I #
point $-1 29.442844196772278 18.550889188894097 6.3664129410906387 #
loop $-1 $-1 $363 $355 #
plane-surface $-1 0 -20.12182981159231 0 0 1 0 0 0 1 forward_v I I I I #
coedge $-1 $506 $358 $360 $510 reversed $232 $-1 #
coedge $-1 $358 $505 $613 $614 reversed $232 $-1 #
coedge $-1 $366 $361 $358 $508 forward $356 $-1 #
edge $-1 $511 -28.910938429021542 $615 -26.099113626178077 $507 $616 forward 7 unknown #
coedge $-1 $360 $359 $514 $617 reversed $145 $-1 #
edge $-1 $618 -5.6847305887599196e-015 $511 4.6722410469366507 $505 $619 forward 7 unknown #
vertex $-1 $362 $620 #
straight-curve $-1 -2.9781977444842447 -17.310005008748846 8.6954282646920973 -1 0 0 I I #
coedge $-1 $613 $363 $366 $518 reversed $503 $-1 #
coedge $-1 $363 $613 $509 $617 forward $503 $-1 #
vertex $-1 $364 $621 #
straight-curve $-1 2.1561902686334147 -20.121829811592306 29.730540484717167 0 0 1 I I #
straight-curve $-1 2.1561902686334147 -20.121829811592306 4.9640106146837226 0 -0.60181501223851219 -0.79863551827123203 I I #
edge $-1 $615 -14.068981246570393 $367 2.1561902686334147 $513 $622 forward 7 unknown #
point $-1 2.1561902686334147 -20.12182981159231 8.6954282646920973 #
point $-1 2.1561902686334147 -17.310005008748846 8.6954282646920973 #
edge $-1 $623 1 $623 0 $370 $-1 forward 7 unknown #
vertex $-1 $371 $624 #
ellipse-curve $-1 -10.823946943529627 -17.91728189189935 6.2279044274493982 0 -0.79863551827123203 0.60181501223851219 0.25 0 0 1 I I #
point $-1 -10.573946943529627 -18.715917410170583 6.8297194396879108 #
edge $-1 $625 1 $625 0 $374 $-1 forward 7 unknown #
vertex $-1 $375 $626 #
ellipse-curve $-1 -5.9563954889684894 -17.91728189189935 6.2279044274493982 0 -0.79863551827123203 0.60181501223851219 0.25 0 0 1 I I #
point $-1 -5.7063954889684894 -18.715917410170583 6.8297194396879108 #
edge $-1 $627 1 $627 0 $378 $-1 forward 7 unknown #
vertex $-1 $379 $628 #
ellipse-curve $-1 -1.0888440344073516 -17.91728189189935 6.2279044274493982 0 -0.79863551827123203 0.60181501223851219 0.25 0 0 1 I I #
point $-1 -0.83884403440735156 -18.715917410170583 6.8297194396879108 #
plane-surface $-1 45.277260658589434 0 0 -1 0 0 0 0 1 forward_v I I I I #
coedge $-1 $387 $385 $389 $538 reversed $261 $-1 #
edge $-1 $400 -8.6954282646920973 $540 8.6954282646920973 $399 $629 forward 7 unknown #
vertex $-1 $538 $630 #
straight-curve $-1 -45.277260658589434 -20.12182981159231 0 0 0 -1 I I #
edge $-1 $536 -20.12182981159231 $540 20.12182981159231 $534 $631 forward 7 unknown #
straight-curve $-1 0 -20.12182981159231 -8.6954282646920973 -1 0 0 I I #
vertex $-1 $392 $632 #
straight-curve $-1 0 20.12182981159231 -8.6954282646920973 1 0 0 I I #
point $-1 45.277260658589434 20.12182981159231 -8.6954282646920973 #
point $-1 45.277260658589434 -20.12182981159231 -8.6954282646920973 #
straight-curve $-1 -45.277260658589434 0 8.6954282646920973 0 -1 0 I I #
point $-1 -45.277260658589434 20.12182981159231 8.6954282646920973 #
point $-1 -45.277260658589434 -20.12182981159231 8.6954282646920973 #
straight-curve $-1 45.277260658589434 -20.12182981159231 0 0 0 -1 I I #
straight-curve $-1 45.277260658589434 20.12182981159231 0 0 0 -1 I I #
plane-surface $-1 0 -20.12182981159231 0 0 1 0 0 0 1 forward_v I I I I #
coedge $-1 $633 $563 $413 $552 forward $410 $-1 #
coedge $-1 $553 $412 $421 $561 forward $280 $-1 #
edge $-1 $556 -1.5 $554 1.5 $413 $634 forward 7 unknown #
coedge $-1 $414 $551 $633 $635 forward $280 $-1 #
vertex $-1 $415 $636 #
straight-curve $-1 -49.494669418432302 20.12182981159231 -7.5293854751320204 1 0 0 I I #
vertex $-1 $416 $637 #
straight-curve $-1 -49.494669418432302 20.12182981159231 -4.5293854751320204 -1 0 0 I I #
point $-1 -45.277260658589434 20.12182981159231 -7.5293854751320204 #
straight-curve $-1 -45.277260658589434 0 -7.5293854751320204 0 1 0 I I #
coedge $-1 $421 $420 $638 $639 forward $422 $-1 #
edge $-1 $423 -4.2174087598428684 $640 4.2174087598428684 $421 $641 forward 7 unknown #
point $-1 -45.277260658589434 -20.12182981159231 -7.5293854751320204 #
coedge $-1 $550 $638 $425 $564 reversed $410 $-1 #
edge $-1 $556 -20.12182981159231 $565 20.12182981159231 $563 $642 forward 7 unknown #
vertex $-1 $564 $643 #
straight-curve $-1 -49.494669418432302 -20.12182981159231 -4.5293854751320204 1 0 0 I I #
plane-surface $-1 0 20.12182981159231 0 0 -1 0 0 0 -1 forward_v I I I I #
coedge $-1 $570 $433 $435 $576 forward $430 $-1 #
coedge $-1 $432 $441 $444 $583 forward $294 $-1 #
coedge $-1 $572 $568 $432 $571 reversed $430 $-1 #
edge $-1 $644 -20.12182981159231 $577 20.12182981159231 $570 $645 forward 7 unknown #
coedge $-1 $433 $570 $582 $646 reversed $430 $-1 #
vertex $-1 $434 $647 #
vertex $-1 $434 $648 #
straight-curve $-1 54.48727081811672 0 0.59505417405328132 0 1 0 I I #
edge $-1 $573 -1.5 $577 1.5 $568 $649 forward 7 unknown #
vertex $-1 $576 $650 #
straight-curve $-1 49.882265738353077 -20.12182981159231 -2.4049458259467187 -1 0 0 I I #
straight-curve $-1 49.882265738353077 -20.12182981159231 0.59505417405328132 1 0 0 I I #
point $-1 45.277260658589434 -20.12182981159231 -2.4049458259467187 #
straight-curve $-1 45.277260658589434 0 -2.4049458259467187 0 -1 0 I I #
coedge $-1 $444 $443 $572 $646 forward $445 $-1 #
edge $-1 $446 -4.605005079763643 $644 4.605005079763643 $444 $651 forward 7 unknown #
point $-1 45.277260658589434 20.12182981159231 -2.4049458259467187 #
straight-curve $-1 49.882265738353077 20.12182981159231 0.59505417405328132 -1 0 0 I I #
edge $-1 $587 35.323745955783323 $590 39.981776602986223 $452 $652 forward 7 unknown #
vertex $-1 $466 $653 #
straight-curve $-1 -2.8577392551161562 36.34548134508006 8.6954282646920973 0 1 0 I I #
edge $-1 $590 -2.6436108186496003 $463 13.646310966181112 $462 $654 forward 7 unknown #
vertex $-1 $589 $655 #
straight-curve $-1 -2.8577392551161562 -2.3821385776580684 37.400903827154259 0 -0.55919289150049634 0.82903758062907751 I I #
point $-1 -2.8577392551161562 16.979948566195894 8.6954282646920973 #
point $-1 -19.147661039946868 20.12182981159231 4.0373976174891979 #
straight-curve $-1 0 20.12182981159231 8.6954282646920973 -1 0 0 I I #
vertex $-1 $469 $656 #
point $-1 -13.993397672852382 17.177867645671085 5.4402982452227482 #
vertex $-1 $473 $657 #
point $-1 -7.0120026222106517 17.177867645671085 5.4402982452227482 #
coedge $-1 $488 $487 $480 $600 forward $477 $-1 #
edge $-1 $601 35.323745955783323 $604 39.981776602986223 $599 $658 forward 7 unknown #
vertex $-1 $492 $659 #
straight-curve $-1 33.597107563866764 36.34548134508006 8.6954282646920973 0 1 0 I I #
edge $-1 $604 -20.87103422814106 $489 -4.5811124433103494 $488 $660 forward 7 unknown #
vertex $-1 $603 $661 #
straight-curve $-1 33.597107563866764 -2.3821385776580684 37.400903827154259 0 -0.55919289150049634 0.82903758062907751 I I #
point $-1 33.597107563866764 16.979948566195894 8.6954282646920973 #
point $-1 17.307185779036054 20.12182981159231 4.0373976174891979 #
straight-curve $-1 0 20.12182981159231 8.6954282646920973 -1 0 0 I I #
vertex $-1 $495 $662 #
point $-1 22.461449146130541 17.177867645671085 5.4402982452227482 #
vertex $-1 $499 $663 #
point $-1 29.442844196772278 17.177867645671085 5.4402982452227482 #
coedge $-1 $514 $513 $506 $614 forward $503 $-1 #
edge $-1 $615 21.03511222002507 $618 24.766529870033448 $613 $664 forward 7 unknown #
vertex $-1 $518 $665 #
straight-curve $-1 -14.068981246570393 -46.220943437770387 8.6954282646920973 0 -1 0 I I #
edge $-1 $618 -11.090783502086149 $515 5.1343880131176594 $514 $666 forward 7 unknown #
vertex $-1 $617 $667 #
straight-curve $-1 -14.068981246570393 -20.121829811592306 4.9640106146837226 0 0.60181501223851219 0.79863551827123203 I I #
point $-1 -14.068981246570393 -17.310005008748846 8.6954282646920973 #
point $-1 2.1561902686334147 -20.12182981159231 4.9640106146837182 #
straight-curve $-1 0 -20.12182981159231 8.6954282646920973 1 0 0 I I #
vertex $-1 $521 $668 #
point $-1 -10.573946943529627 -17.91728189189935 6.2279044274493982 #
vertex $-1 $525 $669 #
point $-1 -5.7063954889684894 -17.91728189189935 6.2279044274493982 #
vertex $-1 $529 $670 #
point $-1 -0.83884403440735156 -17.91728189189935 6.2279044274493982 #
straight-curve $-1 -45.277260658589434 20.12182981159231 0 0 0 -1 I I #
point $-1 -45.277260658589434 -20.12182981159231 -8.6954282646920973 #
straight-curve $-1 -45.277260658589434 0 -8.6954282646920973 0 1 0 I I #
point $-1 -45.277260658589434 20.12182981159231 -8.6954282646920973 #
coedge $-1 $638 $550 $553 $635 reversed $410 $-1 #
straight-curve $-1 -53.712078178275171 20.12182981159231 -6.0293854751320204 0 0 -1 I I #
edge $-1 $640 -20.12182981159231 $554 20.12182981159231 $633 $671 forward 7 unknown #
point $-1 -53.712078178275171 20.12182981159231 -7.5293854751320204 #
point $-1 -53.712078178275171 20.12182981159231 -4.5293854751320204 #
coedge $-1 $563 $633 $560 $639 reversed $410 $-1 #
edge $-1 $565 -1.5 $640 1.5 $638 $672 forward 7 unknown #
vertex $-1 $635 $673 #
straight-curve $-1 -49.494669418432302 -20.12182981159231 -7.5293854751320204 -1 0 0 I I #
straight-curve $-1 -53.712078178275171 0 -4.5293854751320204 0 -1 0 I I #
point $-1 -53.712078178275171 -20.12182981159231 -4.5293854751320204 #
vertex $-1 $571 $674 #
straight-curve $-1 54.48727081811672 0 -2.4049458259467187 0 -1 0 I I #
edge $-1 $574 -1.5 $644 1.5 $572 $675 forward 7 unknown #
point $-1 54.48727081811672 -20.12182981159231 0.59505417405328132 #
point $-1 54.48727081811672 20.12182981159231 0.59505417405328132 #
straight-curve $-1 54.48727081811672 -20.12182981159231 -0.90494582594671868 0 0 -1 I I #
point $-1 54.48727081811672 -20.12182981159231 -2.4049458259467187 #
straight-curve $-1 49.882265738353077 20.12182981159231 -2.4049458259467187 1 0 0 I I #
straight-curve $-1 -2.8577392551161562 20.12182981159231 44.019174220475421 0 0 -1 I I #
point $-1 -2.8577392551161562 20.12182981159231 8.6954282646920973 #
straight-curve $-1 -5.5013500737657566 20.121829811592313 4.0373976174891926 -1 0 0 I I #
point $-1 -2.8577392551161562 20.12182981159231 4.0373976174891979 #
point $-1 -14.493397672852382 16.763348855356547 5.1607017994724993 #
point $-1 -7.5120026222106517 16.763348855356547 5.1607017994724993 #
straight-curve $-1 33.597107563866764 20.12182981159231 44.019174220475421 0 0 -1 I I #
point $-1 33.597107563866764 20.12182981159231 8.6954282646920973 #
straight-curve $-1 12.726073335725705 20.121829811592313 4.0373976174891926 -1 0 0 I I #
point $-1 33.597107563866764 20.12182981159231 4.0373976174891979 #
point $-1 21.961449146130541 16.763348855356547 5.1607017994724993 #
point $-1 28.942844196772278 16.763348855356547 5.1607017994724993 #
straight-curve $-1 -14.068981246570393 -20.121829811592306 29.730540484717167 0 0 -1 I I #
point $-1 -14.068981246570393 -20.12182981159231 8.6954282646920973 #
straight-curve $-1 -2.9781977444842447 -20.12182981159231 4.9640106146837137 1 0 0 I I #
point $-1 -14.068981246570393 -20.12182981159231 4.9640106146837182 #
point $-1 -10.823946943529627 -17.717623012331543 6.0774506743897705 #
point $-1 -5.9563954889684894 -17.717623012331543 6.0774506743897705 #
point $-1 -1.0888440344073516 -17.717623012331543 6.0774506743897705 #
straight-curve $-1 -53.712078178275171 0 -7.5293854751320204 0 1 0 I I #
straight-curve $-1 -53.712078178275171 -20.12182981159231 -6.0293854751320204 0 0 -1 I I #
point $-1 -53.712078178275171 -20.12182981159231 -7.5293854751320204 #
point $-1 54.48727081811672 20.12182981159231 -2.4049458259467187 #
straight-curve $-1 54.48727081811672 20.12182981159231 -0.90494582594671868 0 0 -1 I I #
End-of-ACIS-data 