500 0 18 0           
7 Unknown 11 ACIS 5.0 NT 24 Fri Mar 26 00:34:24 1999 
-1 9.9999999999999995e-007 1e-010 
body $-1 $18 $-1 $19 #
body $-1 $20 $-1 $21 #
body $-1 $22 $-1 $23 #
body $-1 $24 $-1 $25 #
body $-1 $26 $-1 $27 #
body $-1 $28 $-1 $29 #
body $-1 $30 $-1 $31 #
body $-1 $32 $-1 $33 #
body $-1 $34 $-1 $35 #
body $-1 $36 $-1 $37 #
body $-1 $38 $-1 $39 #
body $-1 $40 $-1 $41 #
body $-1 $42 $-1 $43 #
body $-1 $44 $-1 $45 #
body $-1 $46 $-1 $47 #
body $-1 $48 $-1 $49 #
body $-1 $50 $-1 $51 #
body $-1 $52 $-1 $53 #
lump $-1 $-1 $54 $0 #
transform $-1 1 0 0 0 1 0 0 0 1 65.646534623248996 34.329849972126929 12.918928007944052 1 rotate no_reflect no_shear #
lump $-1 $-1 $55 $1 #
transform $-1 1 0 0 0 1 0 0 0 1 10.17103125925852 8.2514443405578142 12.918928007944052 1 rotate no_reflect no_shear #
lump $-1 $-1 $56 $2 #
transform $-1 1 0 0 0 1 0 0 0 1 65.646534623248996 76.334375871666083 6.1599810935839878 1 rotate no_reflect no_shear #
lump $-1 $-1 $57 $3 #
transform $-1 0.84804809178421925 0 -0.52991927123019833 0 1 0 0.52991927123019833 0 0.84804809178421925 89.524959980192193 30.662096575939515 194.41103770477753 1 rotate no_reflect no_shear #
lump $-1 $-1 $58 $4 #
transform $-1 0.84804809178421925 0 -0.52991927123019833 0 -1 0 -0.52991927123019833 0 -0.84804809178421925 120.7530993833288 28.601148859333279 18.605604539769466 1 rotate no_reflect no_shear #
lump $-1 $-1 $59 $5 #
transform $-1 0.84804809178421925 0 -0.52991927123019833 0 -1 0 -0.52991927123019833 0 -0.84804809178421925 120.7530993833288 32.723044292545751 18.605604539769466 1 rotate no_reflect no_shear #
lump $-1 $-1 $60 $6 #
transform $-1 0.80901698891910034 0 0.5877852598018023 0 1 0 -0.5877852598018023 0 0.80901698891910034 -77.172130817228833 25.770275912347309 122.57604736154148 1 rotate no_reflect no_shear #
lump $-1 $-1 $61 $7 #
transform $-1 0.80901698891910034 0 0.5877852598018023 0 -1 0 0.5877852598018023 0 -0.80901698891910034 7.2588727307250318 23.969216369423563 20.086518678691554 1 rotate no_reflect no_shear #
lump $-1 $-1 $62 $8 #
transform $-1 0.80901698891910034 0 0.5877852598018023 0 -1 0 0.5877852598018023 0 -0.80901698891910034 7.2588727307250318 25.770275912347309 20.086518678691554 1 rotate no_reflect no_shear #
lump $-1 $-1 $63 $9 #
transform $-1 0.80901698891910034 0 0.5877852598018023 0 -1 0 0.5877852598018023 0 -0.80901698891910034 7.2588727307250318 27.571335455271054 20.086518678691554 1 rotate no_reflect no_shear #
lump $-1 $-1 $64 $10 #
transform $-1 0.80901698891910034 0 0.5877852598018023 0 1 0 -0.5877852598018023 0 0.80901698891910034 -77.172130817228833 34.906618385272509 122.57604736154148 1 rotate no_reflect no_shear #
lump $-1 $-1 $65 $11 #
transform $-1 0.80901698891910034 0 0.5877852598018023 0 -1 0 0.5877852598018023 0 -0.80901698891910034 7.2588727307250318 33.105558842348771 20.086518678691554 1 rotate no_reflect no_shear #
lump $-1 $-1 $66 $12 #
transform $-1 0.80901698891910034 0 0.5877852598018023 0 -1 0 0.5877852598018023 0 -0.80901698891910034 7.2588727307250318 34.906618385272509 20.086518678691554 1 rotate no_reflect no_shear #
lump $-1 $-1 $67 $13 #
transform $-1 0.80901698891910034 0 0.5877852598018023 0 -1 0 0.5877852598018023 0 -0.80901698891910034 7.2588727307250318 36.707677928196262 20.086518678691554 1 rotate no_reflect no_shear #
lump $-1 $-1 $68 $14 #
transform $-1 0.80901698891910034 0 0.5877852598018023 0 1 0 -0.5877852598018023 0 0.80901698891910034 -77.172130817228833 44.042960858197716 122.57604736154148 1 rotate no_reflect no_shear #
lump $-1 $-1 $69 $15 #
transform $-1 0.80901698891910034 0 0.5877852598018023 0 -1 0 0.5877852598018023 0 -0.80901698891910034 7.2588727307250318 42.241901315273978 20.086518678691554 1 rotate no_reflect no_shear #
lump $-1 $-1 $70 $16 #
transform $-1 0.80901698891910034 0 0.5877852598018023 0 -1 0 0.5877852598018023 0 -0.80901698891910034 7.2588727307250318 44.042960858197716 20.086518678691554 1 rotate no_reflect no_shear #
lump $-1 $-1 $71 $17 #
transform $-1 0.80901698891910034 0 0.5877852598018023 0 -1 0 0.5877852598018023 0 -0.80901698891910034 7.2588727307250318 45.844020401121469 20.086518678691554 1 rotate no_reflect no_shear #
shell $-1 $-1 $-1 $72 $-1 $18 #
shell $-1 $-1 $-1 $73 $-1 $20 #
shell $-1 $-1 $-1 $74 $-1 $22 #
shell $-1 $-1 $-1 $75 $-1 $24 #
shell $-1 $-1 $-1 $76 $-1 $26 #
shell $-1 $-1 $-1 $77 $-1 $28 #
shell $-1 $-1 $-1 $78 $-1 $30 #
shell $-1 $-1 $-1 $79 $-1 $32 #
shell $-1 $-1 $-1 $80 $-1 $34 #
shell $-1 $-1 $-1 $81 $-1 $36 #
shell $-1 $-1 $-1 $82 $-1 $38 #
shell $-1 $-1 $-1 $83 $-1 $40 #
shell $-1 $-1 $-1 $84 $-1 $42 #
shell $-1 $-1 $-1 $85 $-1 $44 #
shell $-1 $-1 $-1 $86 $-1 $46 #
shell $-1 $-1 $-1 $87 $-1 $48 #
shell $-1 $-1 $-1 $88 $-1 $50 #
shell $-1 $-1 $-1 $89 $-1 $52 #
face $-1 $90 $91 $54 $-1 $92 forward single #
face $-1 $93 $94 $55 $-1 $95 forward single #
face $-1 $96 $97 $56 $-1 $98 forward single #
face $-1 $99 $100 $57 $-1 $101 forward single #
face $-1 $102 $103 $58 $-1 $104 forward single #
face $-1 $105 $106 $59 $-1 $107 forward single #
face $-1 $108 $109 $60 $-1 $110 forward single #
face $-1 $111 $112 $61 $-1 $113 forward single #
face $-1 $114 $115 $62 $-1 $116 forward single #
face $-1 $117 $118 $63 $-1 $119 forward single #
face $-1 $120 $121 $64 $-1 $122 forward single #
face $-1 $123 $124 $65 $-1 $125 forward single #
face $-1 $126 $127 $66 $-1 $128 forward single #
face $-1 $129 $130 $67 $-1 $131 forward single #
face $-1 $132 $133 $68 $-1 $134 forward single #
face $-1 $135 $136 $69 $-1 $137 forward single #
face $-1 $138 $139 $70 $-1 $140 forward single #
face $-1 $141 $142 $71 $-1 $143 forward single #
face $-1 $144 $145 $54 $-1 $146 reversed single #
loop $-1 $-1 $147 $72 #
plane-surface $-1 0 0 12.918928007944052 0 0 1 1 0 0 forward_v I I I I #
face $-1 $148 $149 $55 $-1 $150 reversed single #
loop $-1 $-1 $151 $73 #
plane-surface $-1 0 0 12.918928007944052 0 0 1 1 0 0 forward_v I I I I #
face $-1 $152 $153 $56 $-1 $154 reversed single #
loop $-1 $-1 $155 $74 #
plane-surface $-1 0 0 2.8635176314248136 0 0 1 1 0 0 forward_v I I I I #
face $-1 $156 $157 $57 $-1 $158 reversed single #
loop $-1 $-1 $159 $75 #
plane-surface $-1 0 0 131.29306924649799 0 0 1 1 0 0 forward_v I I I I #
face $-1 $160 $161 $58 $-1 $162 forward single #
loop $-1 $163 $164 $76 #
cone-surface $-1 0 0 -0.75 0 0 1 0.5 0 0 1 I I 0 1 0.5 forward I I I I #
face $-1 $165 $166 $59 $-1 $167 forward single #
loop $-1 $168 $169 $77 #
cone-surface $-1 0 0 -0.75 0 0 1 0.5 0 0 1 I I 0 1 0.5 forward I I I I #
face $-1 $170 $171 $60 $-1 $172 reversed single #
loop $-1 $-1 $173 $78 #
plane-surface $-1 0 0 131.29306924649799 0 0 1 1 0 0 forward_v I I I I #
face $-1 $174 $175 $61 $-1 $176 forward single #
loop $-1 $177 $178 $79 #
cone-surface $-1 0 0 -0.75 0 0 1 0.5 0 0 1 I I 0 1 0.5 forward I I I I #
face $-1 $179 $180 $62 $-1 $181 forward single #
loop $-1 $182 $183 $80 #
cone-surface $-1 0 0 -0.75 0 0 1 0.5 0 0 1 I I 0 1 0.5 forward I I I I #
face $-1 $184 $185 $63 $-1 $186 forward single #
loop $-1 $187 $188 $81 #
cone-surface $-1 0 0 -0.75 0 0 1 0.5 0 0 1 I I 0 1 0.5 forward I I I I #
face $-1 $189 $190 $64 $-1 $191 reversed single #
loop $-1 $-1 $192 $82 #
plane-surface $-1 0 0 131.29306924649799 0 0 1 1 0 0 forward_v I I I I #
face $-1 $193 $194 $65 $-1 $195 forward single #
loop $-1 $196 $197 $83 #
cone-surface $-1 0 0 -0.75 0 0 1 0.5 0 0 1 I I 0 1 0.5 forward I I I I #
face $-1 $198 $199 $66 $-1 $200 forward single #
loop $-1 $201 $202 $84 #
cone-surface $-1 0 0 -0.75 0 0 1 0.5 0 0 1 I I 0 1 0.5 forward I I I I #
face $-1 $203 $204 $67 $-1 $205 forward single #
loop $-1 $206 $207 $85 #
cone-surface $-1 0 0 -0.75 0 0 1 0.5 0 0 1 I I 0 1 0.5 forward I I I I #
face $-1 $208 $209 $68 $-1 $210 reversed single #
loop $-1 $-1 $211 $86 #
plane-surface $-1 0 0 131.29306924649799 0 0 1 1 0 0 forward_v I I I I #
face $-1 $212 $213 $69 $-1 $214 forward single #
loop $-1 $215 $216 $87 #
cone-surface $-1 0 0 -0.75 0 0 1 0.5 0 0 1 I I 0 1 0.5 forward I I I I #
face $-1 $217 $218 $70 $-1 $219 forward single #
loop $-1 $220 $221 $88 #
cone-surface $-1 0 0 -0.75 0 0 1 0.5 0 0 1 I I 0 1 0.5 forward I I I I #
face $-1 $222 $223 $71 $-1 $224 forward single #
loop $-1 $225 $226 $89 #
cone-surface $-1 0 0 -0.75 0 0 1 0.5 0 0 1 I I 0 1 0.5 forward I I I I #
face $-1 $227 $228 $54 $-1 $229 reversed single #
loop $-1 $-1 $230 $90 #
plane-surface $-1 0 0 -12.918928007944052 0 0 1 1 0 0 forward_v I I I I #
coedge $-1 $231 $232 $233 $234 forward $91 $-1 #
face $-1 $235 $236 $55 $-1 $237 reversed single #
loop $-1 $-1 $238 $93 #
plane-surface $-1 0 0 -12.918928007944052 0 0 1 1 0 0 forward_v I I I I #
coedge $-1 $239 $240 $241 $242 forward $94 $-1 #
face $-1 $243 $244 $56 $-1 $245 reversed single #
loop $-1 $-1 $246 $96 #
plane-surface $-1 0 0 -2.8635176314248136 0 0 1 1 0 0 forward_v I I I I #
coedge $-1 $247 $248 $249 $250 forward $97 $-1 #
face $-1 $251 $252 $57 $-1 $253 reversed single #
loop $-1 $-1 $254 $99 #
plane-surface $-1 0 0 -131.29306924649799 0 0 1 1 0 0 forward_v I I I I #
coedge $-1 $255 $256 $257 $258 forward $100 $-1 #
face $-1 $-1 $259 $58 $-1 $260 forward single #
loop $-1 $-1 $261 $102 #
plane-surface $-1 0 0 -1.25 0 0 -1 -1 0 0 forward_v I I I I #
loop $-1 $-1 $262 $76 #
coedge $-1 $164 $164 $261 $263 reversed $103 $-1 #
face $-1 $-1 $264 $59 $-1 $265 forward single #
loop $-1 $-1 $266 $105 #
plane-surface $-1 0 0 -1.25 0 0 -1 -1 0 0 forward_v I I I I #
loop $-1 $-1 $267 $77 #
coedge $-1 $169 $169 $266 $268 reversed $106 $-1 #
face $-1 $269 $270 $60 $-1 $271 reversed single #
loop $-1 $-1 $272 $108 #
plane-surface $-1 0 0 -131.29306924649799 0 0 1 1 0 0 forward_v I I I I #
coedge $-1 $273 $274 $275 $276 forward $109 $-1 #
face $-1 $-1 $277 $61 $-1 $278 forward single #
loop $-1 $-1 $279 $111 #
plane-surface $-1 0 0 -1.25 0 0 -1 -1 0 0 forward_v I I I I #
loop $-1 $-1 $280 $79 #
coedge $-1 $178 $178 $279 $281 reversed $112 $-1 #
face $-1 $-1 $282 $62 $-1 $283 forward single #
loop $-1 $-1 $284 $114 #
plane-surface $-1 0 0 -1.25 0 0 -1 -1 0 0 forward_v I I I I #
loop $-1 $-1 $285 $80 #
coedge $-1 $183 $183 $284 $286 reversed $115 $-1 #
face $-1 $-1 $287 $63 $-1 $288 forward single #
loop $-1 $-1 $289 $117 #
plane-surface $-1 0 0 -1.25 0 0 -1 -1 0 0 forward_v I I I I #
loop $-1 $-1 $290 $81 #
coedge $-1 $188 $188 $289 $291 reversed $118 $-1 #
face $-1 $292 $293 $64 $-1 $294 reversed single #
loop $-1 $-1 $295 $120 #
plane-surface $-1 0 0 -131.29306924649799 0 0 1 1 0 0 forward_v I I I I #
coedge $-1 $296 $297 $298 $299 forward $121 $-1 #
face $-1 $-1 $300 $65 $-1 $301 forward single #
loop $-1 $-1 $302 $123 #
plane-surface $-1 0 0 -1.25 0 0 -1 -1 0 0 forward_v I I I I #
loop $-1 $-1 $303 $83 #
coedge $-1 $197 $197 $302 $304 reversed $124 $-1 #
face $-1 $-1 $305 $66 $-1 $306 forward single #
loop $-1 $-1 $307 $126 #
plane-surface $-1 0 0 -1.25 0 0 -1 -1 0 0 forward_v I I I I #
loop $-1 $-1 $308 $84 #
coedge $-1 $202 $202 $307 $309 reversed $127 $-1 #
face $-1 $-1 $310 $67 $-1 $311 forward single #
loop $-1 $-1 $312 $129 #
plane-surface $-1 0 0 -1.25 0 0 -1 -1 0 0 forward_v I I I I #
loop $-1 $-1 $313 $85 #
coedge $-1 $207 $207 $312 $314 reversed $130 $-1 #
face $-1 $315 $316 $68 $-1 $317 reversed single #
loop $-1 $-1 $318 $132 #
plane-surface $-1 0 0 -131.29306924649799 0 0 1 1 0 0 forward_v I I I I #
coedge $-1 $319 $320 $321 $322 forward $133 $-1 #
face $-1 $-1 $323 $69 $-1 $324 forward single #
loop $-1 $-1 $325 $135 #
plane-surface $-1 0 0 -1.25 0 0 -1 -1 0 0 forward_v I I I I #
loop $-1 $-1 $326 $87 #
coedge $-1 $216 $216 $325 $327 reversed $136 $-1 #
face $-1 $-1 $328 $70 $-1 $329 forward single #
loop $-1 $-1 $330 $138 #
plane-surface $-1 0 0 -1.25 0 0 -1 -1 0 0 forward_v I I I I #
loop $-1 $-1 $331 $88 #
coedge $-1 $221 $221 $330 $332 reversed $139 $-1 #
face $-1 $-1 $333 $71 $-1 $334 forward single #
loop $-1 $-1 $335 $141 #
plane-surface $-1 0 0 -1.25 0 0 -1 -1 0 0 forward_v I I I I #
loop $-1 $-1 $336 $89 #
coedge $-1 $226 $226 $335 $337 reversed $142 $-1 #
face $-1 $338 $339 $54 $-1 $340 reversed single #
loop $-1 $-1 $341 $144 #
plane-surface $-1 0 -34.329849972126929 0 0 1 0 0 0 1 forward_v I I I I #
coedge $-1 $342 $343 $344 $345 forward $145 $-1 #
coedge $-1 $346 $147 $347 $348 forward $91 $-1 #
coedge $-1 $147 $346 $349 $350 forward $91 $-1 #
coedge $-1 $351 $352 $147 $234 reversed $353 $-1 #
edge $-1 $354 -34.329849972126929 $355 34.329849972126929 $233 $356 forward 7 unknown #
face $-1 $357 $358 $55 $-1 $359 reversed single #
loop $-1 $-1 $360 $148 #
plane-surface $-1 0 -8.2514443405578142 0 0 1 0 0 0 1 forward_v I I I I #
coedge $-1 $361 $362 $363 $364 forward $149 $-1 #
coedge $-1 $365 $151 $366 $367 forward $94 $-1 #
coedge $-1 $151 $365 $368 $369 forward $94 $-1 #
coedge $-1 $370 $371 $151 $242 reversed $372 $-1 #
edge $-1 $373 -8.2514443405578142 $374 8.2514443405578142 $241 $375 forward 7 unknown #
face $-1 $376 $377 $56 $-1 $378 reversed single #
loop $-1 $-1 $379 $152 #
plane-surface $-1 0 -7.6746759274122311 0 0 1 0 0 0 1 forward_v I I I I #
coedge $-1 $380 $381 $382 $383 forward $153 $-1 #
coedge $-1 $384 $155 $385 $386 forward $97 $-1 #
coedge $-1 $155 $384 $387 $388 forward $97 $-1 #
coedge $-1 $389 $390 $155 $250 reversed $391 $-1 #
edge $-1 $392 -7.6746759274122311 $393 7.6746759274122311 $249 $394 forward 7 unknown #
face $-1 $395 $396 $57 $-1 $397 reversed single #
loop $-1 $-1 $398 $156 #
plane-surface $-1 0 -4.8088780054145488 0 0 1 0 0 0 1 forward_v I I I I #
coedge $-1 $399 $400 $401 $402 forward $157 $-1 #
coedge $-1 $403 $159 $404 $405 forward $100 $-1 #
coedge $-1 $159 $403 $406 $407 forward $100 $-1 #
coedge $-1 $408 $409 $159 $258 reversed $410 $-1 #
edge $-1 $411 -4.8088780054145488 $412 4.8088780054145488 $257 $413 forward 7 unknown #
loop $-1 $414 $415 $160 #
cone-surface $-1 0 0 0 0 0 1 0.25 0 0 1 I I -0.70710678118654746 0.70710678118654746 0.25 forward I I I I #
coedge $-1 $261 $261 $164 $263 forward $161 $-1 #
coedge $-1 $262 $262 $415 $416 forward $163 $-1 #
edge $-1 $417 0 $417 6.2831853071796004 $261 $418 forward 7 unknown #
loop $-1 $419 $420 $165 #
cone-surface $-1 0 0 0 0 0 1 0.25 0 0 1 I I -0.70710678118654746 0.70710678118654746 0.25 forward I I I I #
coedge $-1 $266 $266 $169 $268 forward $166 $-1 #
coedge $-1 $267 $267 $420 $421 forward $168 $-1 #
edge $-1 $422 0 $422 6.2831853071796004 $266 $423 forward 7 unknown #
face $-1 $424 $425 $60 $-1 $426 reversed single #
loop $-1 $-1 $427 $170 #
plane-surface $-1 0 -3.0017659048729115 0 0 1 0 0 0 1 forward_v I I I I #
coedge $-1 $428 $429 $430 $431 forward $171 $-1 #
coedge $-1 $432 $173 $433 $434 forward $109 $-1 #
coedge $-1 $173 $432 $435 $436 forward $109 $-1 #
coedge $-1 $437 $438 $173 $276 reversed $439 $-1 #
edge $-1 $440 -3.0017659048729115 $441 3.0017659048729115 $275 $442 forward 7 unknown #
loop $-1 $443 $444 $174 #
cone-surface $-1 0 0 0 0 0 1 0.25 0 0 1 I I -0.70710678118654746 0.70710678118654746 0.25 forward I I I I #
coedge $-1 $279 $279 $178 $281 forward $175 $-1 #
coedge $-1 $280 $280 $444 $445 forward $177 $-1 #
edge $-1 $446 0 $446 6.2831853071796004 $279 $447 forward 7 unknown #
loop $-1 $448 $449 $179 #
cone-surface $-1 0 0 0 0 0 1 0.25 0 0 1 I I -0.70710678118654746 0.70710678118654746 0.25 forward I I I I #
coedge $-1 $284 $284 $183 $286 forward $180 $-1 #
coedge $-1 $285 $285 $449 $450 forward $182 $-1 #
edge $-1 $451 0 $451 6.2831853071796004 $284 $452 forward 7 unknown #
loop $-1 $453 $454 $184 #
cone-surface $-1 0 0 0 0 0 1 0.25 0 0 1 I I -0.70710678118654746 0.70710678118654746 0.25 forward I I I I #
coedge $-1 $289 $289 $188 $291 forward $185 $-1 #
coedge $-1 $290 $290 $454 $455 forward $187 $-1 #
edge $-1 $456 0 $456 6.2831853071796004 $289 $457 forward 7 unknown #
face $-1 $458 $459 $64 $-1 $460 reversed single #
loop $-1 $-1 $461 $189 #
plane-surface $-1 0 -3.0017659048729115 0 0 1 0 0 0 1 forward_v I I I I #
coedge $-1 $462 $463 $464 $465 forward $190 $-1 #
coedge $-1 $466 $192 $467 $468 forward $121 $-1 #
coedge $-1 $192 $466 $469 $470 forward $121 $-1 #
coedge $-1 $471 $472 $192 $299 reversed $473 $-1 #
edge $-1 $474 -3.0017659048729115 $475 3.0017659048729115 $298 $476 forward 7 unknown #
loop $-1 $477 $478 $193 #
cone-surface $-1 0 0 0 0 0 1 0.25 0 0 1 I I -0.70710678118654746 0.70710678118654746 0.25 forward I I I I #
coedge $-1 $302 $302 $197 $304 forward $194 $-1 #
coedge $-1 $303 $303 $478 $479 forward $196 $-1 #
edge $-1 $480 0 $480 6.2831853071796004 $302 $481 forward 7 unknown #
loop $-1 $482 $483 $198 #
cone-surface $-1 0 0 0 0 0 1 0.25 0 0 1 I I -0.70710678118654746 0.70710678118654746 0.25 forward I I I I #
coedge $-1 $307 $307 $202 $309 forward $199 $-1 #
coedge $-1 $308 $308 $483 $484 forward $201 $-1 #
edge $-1 $485 0 $485 6.2831853071796004 $307 $486 forward 7 unknown #
loop $-1 $487 $488 $203 #
cone-surface $-1 0 0 0 0 0 1 0.25 0 0 1 I I -0.70710678118654746 0.70710678118654746 0.25 forward I I I I #
coedge $-1 $312 $312 $207 $314 forward $204 $-1 #
coedge $-1 $313 $313 $488 $489 forward $206 $-1 #
edge $-1 $490 0 $490 6.2831853071796004 $312 $491 forward 7 unknown #
face $-1 $492 $493 $68 $-1 $494 reversed single #
loop $-1 $-1 $495 $208 #
plane-surface $-1 0 -3.0017659048729115 0 0 1 0 0 0 1 forward_v I I I I #
coedge $-1 $496 $497 $498 $499 forward $209 $-1 #
coedge $-1 $500 $211 $501 $502 forward $133 $-1 #
coedge $-1 $211 $500 $503 $504 forward $133 $-1 #
coedge $-1 $505 $506 $211 $322 reversed $507 $-1 #
edge $-1 $508 -3.0017659048729115 $509 3.0017659048729115 $321 $510 forward 7 unknown #
loop $-1 $511 $512 $212 #
cone-surface $-1 0 0 0 0 0 1 0.25 0 0 1 I I -0.70710678118654746 0.70710678118654746 0.25 forward I I I I #
coedge $-1 $325 $325 $216 $327 forward $213 $-1 #
coedge $-1 $326 $326 $512 $513 forward $215 $-1 #
edge $-1 $514 0 $514 6.2831853071796004 $325 $515 forward 7 unknown #
loop $-1 $516 $517 $217 #
cone-surface $-1 0 0 0 0 0 1 0.25 0 0 1 I I -0.70710678118654746 0.70710678118654746 0.25 forward I I I I #
coedge $-1 $330 $330 $221 $332 forward $218 $-1 #
coedge $-1 $331 $331 $517 $518 forward $220 $-1 #
edge $-1 $519 0 $519 6.2831853071796004 $330 $520 forward 7 unknown #
loop $-1 $521 $522 $222 #
cone-surface $-1 0 0 0 0 0 1 0.25 0 0 1 I I -0.70710678118654746 0.70710678118654746 0.25 forward I I I I #
coedge $-1 $335 $335 $226 $337 forward $223 $-1 #
coedge $-1 $336 $336 $522 $523 forward $225 $-1 #
edge $-1 $524 0 $524 6.2831853071796004 $335 $525 forward 7 unknown #
face $-1 $526 $527 $54 $-1 $528 reversed single #
loop $-1 $-1 $529 $227 #
plane-surface $-1 -65.646534623248996 0 0 1 0 0 0 0 -1 forward_v I I I I #
coedge $-1 $530 $349 $531 $532 forward $228 $-1 #
coedge $-1 $533 $230 $530 $534 forward $145 $-1 #
coedge $-1 $230 $533 $535 $536 forward $145 $-1 #
coedge $-1 $352 $351 $230 $345 reversed $353 $-1 #
edge $-1 $537 -34.329849972126929 $538 34.329849972126929 $344 $539 forward 7 unknown #
coedge $-1 $232 $231 $540 $541 forward $91 $-1 #
coedge $-1 $542 $543 $231 $348 reversed $527 $-1 #
edge $-1 $355 -65.646534623248996 $544 65.646534623248996 $347 $545 forward 7 unknown #
coedge $-1 $341 $546 $232 $350 reversed $228 $-1 #
edge $-1 $547 -65.646534623248996 $354 65.646534623248996 $349 $548 forward 7 unknown #
coedge $-1 $344 $233 $546 $549 forward $353 $-1 #
coedge $-1 $233 $344 $542 $550 reversed $353 $-1 #
loop $-1 $-1 $351 $526 #
vertex $-1 $234 $551 #
vertex $-1 $234 $552 #
straight-curve $-1 65.646534623248996 0 12.918928007944052 0 1 0 I I #
face $-1 $553 $554 $55 $-1 $555 reversed single #
loop $-1 $-1 $556 $235 #
plane-surface $-1 -3.0471669330423046 0 0 1 0 0 0 0 -1 forward_v I I I I #
coedge $-1 $557 $368 $558 $559 forward $236 $-1 #
coedge $-1 $560 $238 $557 $561 forward $149 $-1 #
coedge $-1 $238 $560 $562 $563 forward $149 $-1 #
coedge $-1 $371 $370 $238 $364 reversed $372 $-1 #
edge $-1 $564 -8.2514443405578142 $565 8.2514443405578142 $363 $566 forward 7 unknown #
coedge $-1 $240 $239 $567 $568 forward $94 $-1 #
coedge $-1 $569 $570 $239 $367 reversed $554 $-1 #
edge $-1 $374 -3.0471669330423046 $571 3.0471669330423046 $366 $572 forward 7 unknown #
coedge $-1 $360 $573 $240 $369 reversed $236 $-1 #
edge $-1 $574 -3.0471669330423046 $373 3.0471669330423046 $368 $575 forward 7 unknown #
coedge $-1 $363 $241 $573 $576 forward $372 $-1 #
coedge $-1 $241 $363 $569 $577 reversed $372 $-1 #
loop $-1 $-1 $370 $553 #
vertex $-1 $242 $578 #
vertex $-1 $242 $579 #
straight-curve $-1 3.0471669330423046 0 12.918928007944052 0 1 0 I I #
face $-1 $580 $581 $56 $-1 $582 reversed single #
loop $-1 $-1 $583 $243 #
plane-surface $-1 -65.646534623248996 0 0 1 0 0 0 0 -1 forward_v I I I I #
coedge $-1 $584 $387 $585 $586 forward $244 $-1 #
coedge $-1 $587 $246 $584 $588 forward $153 $-1 #
coedge $-1 $246 $587 $589 $590 forward $153 $-1 #
coedge $-1 $390 $389 $246 $383 reversed $391 $-1 #
edge $-1 $591 -7.6746759274122311 $592 7.6746759274122311 $382 $593 forward 7 unknown #
coedge $-1 $248 $247 $594 $595 forward $97 $-1 #
coedge $-1 $596 $597 $247 $386 reversed $581 $-1 #
edge $-1 $393 -65.646534623248996 $598 65.646534623248996 $385 $599 forward 7 unknown #
coedge $-1 $379 $600 $248 $388 reversed $244 $-1 #
edge $-1 $601 -65.646534623248996 $392 65.646534623248996 $387 $602 forward 7 unknown #
coedge $-1 $382 $249 $600 $603 forward $391 $-1 #
coedge $-1 $249 $382 $596 $604 reversed $391 $-1 #
loop $-1 $-1 $389 $580 #
vertex $-1 $250 $605 #
vertex $-1 $250 $606 #
straight-curve $-1 65.646534623248996 0 2.8635176314248136 0 1 0 I I #
face $-1 $607 $608 $57 $-1 $609 reversed single #
loop $-1 $-1 $610 $251 #
plane-surface $-1 -262.58613849299599 0 0 1 0 0 0 0 -1 forward_v I I I I #
coedge $-1 $611 $406 $612 $613 forward $252 $-1 #
coedge $-1 $614 $254 $611 $615 forward $157 $-1 #
coedge $-1 $254 $614 $616 $617 forward $157 $-1 #
coedge $-1 $409 $408 $254 $402 reversed $410 $-1 #
edge $-1 $618 -4.8088780054145488 $619 4.8088780054145488 $401 $620 forward 7 unknown #
coedge $-1 $256 $255 $621 $622 forward $100 $-1 #
coedge $-1 $623 $624 $255 $405 reversed $608 $-1 #
edge $-1 $412 -262.58613849299599 $625 262.58613849299599 $404 $626 forward 7 unknown #
coedge $-1 $398 $627 $256 $407 reversed $252 $-1 #
edge $-1 $628 -262.58613849299599 $411 262.58613849299599 $406 $629 forward 7 unknown #
coedge $-1 $401 $257 $627 $630 forward $410 $-1 #
coedge $-1 $257 $401 $623 $631 reversed $410 $-1 #
loop $-1 $-1 $408 $607 #
vertex $-1 $258 $632 #
vertex $-1 $258 $633 #
straight-curve $-1 262.58613849299599 0 131.29306924649799 0 1 0 I I #
loop $-1 $-1 $634 $160 #
coedge $-1 $415 $415 $262 $416 reversed $259 $-1 #
edge $-1 $635 0 $635 6.2831853071796004 $415 $636 forward 7 unknown #
vertex $-1 $263 $637 #
ellipse-curve $-1 0 0 -1.25 0 0 -1 0.5 0 0 1 I I #
loop $-1 $-1 $638 $165 #
coedge $-1 $420 $420 $267 $421 reversed $264 $-1 #
edge $-1 $639 0 $639 6.2831853071796004 $420 $640 forward 7 unknown #
vertex $-1 $268 $641 #
ellipse-curve $-1 0 0 -1.25 0 0 -1 0.5 0 0 1 I I #
face $-1 $642 $643 $60 $-1 $644 reversed single #
loop $-1 $-1 $645 $269 #
plane-surface $-1 -262.58613849299599 0 0 1 0 0 0 0 -1 forward_v I I I I #
coedge $-1 $646 $435 $647 $648 forward $270 $-1 #
coedge $-1 $649 $272 $646 $650 forward $171 $-1 #
coedge $-1 $272 $649 $651 $652 forward $171 $-1 #
coedge $-1 $438 $437 $272 $431 reversed $439 $-1 #
edge $-1 $653 -3.0017659048729115 $654 3.0017659048729115 $430 $655 forward 7 unknown #
coedge $-1 $274 $273 $656 $657 forward $109 $-1 #
coedge $-1 $658 $659 $273 $434 reversed $643 $-1 #
edge $-1 $441 -262.58613849299599 $660 262.58613849299599 $433 $661 forward 7 unknown #
coedge $-1 $427 $662 $274 $436 reversed $270 $-1 #
edge $-1 $663 -262.58613849299599 $440 262.58613849299599 $435 $664 forward 7 unknown #
coedge $-1 $430 $275 $662 $665 forward $439 $-1 #
coedge $-1 $275 $430 $658 $666 reversed $439 $-1 #
loop $-1 $-1 $437 $642 #
vertex $-1 $276 $667 #
vertex $-1 $276 $668 #
straight-curve $-1 262.58613849299599 0 131.29306924649799 0 1 0 I I #
loop $-1 $-1 $669 $174 #
coedge $-1 $444 $444 $280 $445 reversed $277 $-1 #
edge $-1 $670 0 $670 6.2831853071796004 $444 $671 forward 7 unknown #
vertex $-1 $281 $672 #
ellipse-curve $-1 0 0 -1.25 0 0 -1 0.5 0 0 1 I I #
loop $-1 $-1 $673 $179 #
coedge $-1 $449 $449 $285 $450 reversed $282 $-1 #
edge $-1 $674 0 $674 6.2831853071796004 $449 $675 forward 7 unknown #
vertex $-1 $286 $676 #
ellipse-curve $-1 0 0 -1.25 0 0 -1 0.5 0 0 1 I I #
loop $-1 $-1 $677 $184 #
coedge $-1 $454 $454 $290 $455 reversed $287 $-1 #
edge $-1 $678 0 $678 6.2831853071796004 $454 $679 forward 7 unknown #
vertex $-1 $291 $680 #
ellipse-curve $-1 0 0 -1.25 0 0 -1 0.5 0 0 1 I I #
face $-1 $681 $682 $64 $-1 $683 reversed single #
loop $-1 $-1 $684 $292 #
plane-surface $-1 -262.58613849299599 0 0 1 0 0 0 0 -1 forward_v I I I I #
coedge $-1 $685 $469 $686 $687 forward $293 $-1 #
coedge $-1 $688 $295 $685 $689 forward $190 $-1 #
coedge $-1 $295 $688 $690 $691 forward $190 $-1 #
coedge $-1 $472 $471 $295 $465 reversed $473 $-1 #
edge $-1 $692 -3.0017659048729115 $693 3.0017659048729115 $464 $694 forward 7 unknown #
coedge $-1 $297 $296 $695 $696 forward $121 $-1 #
coedge $-1 $697 $698 $296 $468 reversed $682 $-1 #
edge $-1 $475 -262.58613849299599 $699 262.58613849299599 $467 $700 forward 7 unknown #
coedge $-1 $461 $701 $297 $470 reversed $293 $-1 #
edge $-1 $702 -262.58613849299599 $474 262.58613849299599 $469 $703 forward 7 unknown #
coedge $-1 $464 $298 $701 $704 forward $473 $-1 #
coedge $-1 $298 $464 $697 $705 reversed $473 $-1 #
loop $-1 $-1 $471 $681 #
vertex $-1 $299 $706 #
vertex $-1 $299 $707 #
straight-curve $-1 262.58613849299599 0 131.29306924649799 0 1 0 I I #
loop $-1 $-1 $708 $193 #
coedge $-1 $478 $478 $303 $479 reversed $300 $-1 #
edge $-1 $709 0 $709 6.2831853071796004 $478 $710 forward 7 unknown #
vertex $-1 $304 $711 #
ellipse-curve $-1 0 0 -1.25 0 0 -1 0.5 0 0 1 I I #
loop $-1 $-1 $712 $198 #
coedge $-1 $483 $483 $308 $484 reversed $305 $-1 #
edge $-1 $713 0 $713 6.2831853071796004 $483 $714 forward 7 unknown #
vertex $-1 $309 $715 #
ellipse-curve $-1 0 0 -1.25 0 0 -1 0.5 0 0 1 I I #
loop $-1 $-1 $716 $203 #
coedge $-1 $488 $488 $313 $489 reversed $310 $-1 #
edge $-1 $717 0 $717 6.2831853071796004 $488 $718 forward 7 unknown #
vertex $-1 $314 $719 #
ellipse-curve $-1 0 0 -1.25 0 0 -1 0.5 0 0 1 I I #
face $-1 $720 $721 $68 $-1 $722 reversed single #
loop $-1 $-1 $723 $315 #
plane-surface $-1 -262.58613849299599 0 0 1 0 0 0 0 -1 forward_v I I I I #
coedge $-1 $724 $503 $725 $726 forward $316 $-1 #
coedge $-1 $727 $318 $724 $728 forward $209 $-1 #
coedge $-1 $318 $727 $729 $730 forward $209 $-1 #
coedge $-1 $506 $505 $318 $499 reversed $507 $-1 #
edge $-1 $731 -3.0017659048729115 $732 3.0017659048729115 $498 $733 forward 7 unknown #
coedge $-1 $320 $319 $734 $735 forward $133 $-1 #
coedge $-1 $736 $737 $319 $502 reversed $721 $-1 #
edge $-1 $509 -262.58613849299599 $738 262.58613849299599 $501 $739 forward 7 unknown #
coedge $-1 $495 $740 $320 $504 reversed $316 $-1 #
edge $-1 $741 -262.58613849299599 $508 262.58613849299599 $503 $742 forward 7 unknown #
coedge $-1 $498 $321 $740 $743 forward $507 $-1 #
coedge $-1 $321 $498 $736 $744 reversed $507 $-1 #
loop $-1 $-1 $505 $720 #
vertex $-1 $322 $745 #
vertex $-1 $322 $746 #
straight-curve $-1 262.58613849299599 0 131.29306924649799 0 1 0 I I #
loop $-1 $-1 $747 $212 #
coedge $-1 $512 $512 $326 $513 reversed $323 $-1 #
edge $-1 $748 0 $748 6.2831853071796004 $512 $749 forward 7 unknown #
vertex $-1 $327 $750 #
ellipse-curve $-1 0 0 -1.25 0 0 -1 0.5 0 0 1 I I #
loop $-1 $-1 $751 $217 #
coedge $-1 $517 $517 $331 $518 reversed $328 $-1 #
edge $-1 $752 0 $752 6.2831853071796004 $517 $753 forward 7 unknown #
vertex $-1 $332 $754 #
ellipse-curve $-1 0 0 -1.25 0 0 -1 0.5 0 0 1 I I #
loop $-1 $-1 $755 $222 #
coedge $-1 $522 $522 $336 $523 reversed $333 $-1 #
edge $-1 $756 0 $756 6.2831853071796004 $522 $757 forward 7 unknown #
vertex $-1 $337 $758 #
ellipse-curve $-1 0 0 -1.25 0 0 -1 0.5 0 0 1 I I #
face $-1 $-1 $353 $54 $-1 $759 reversed single #
loop $-1 $-1 $542 $338 #
plane-surface $-1 0 34.329849972126929 0 0 -1 0 0 0 -1 forward_v I I I I #
coedge $-1 $760 $540 $543 $761 forward $339 $-1 #
coedge $-1 $546 $341 $342 $534 reversed $228 $-1 #
coedge $-1 $540 $760 $341 $532 reversed $339 $-1 #
edge $-1 $547 -12.918928007944052 $762 12.918928007944052 $531 $763 forward 7 unknown #
coedge $-1 $343 $342 $760 $764 forward $145 $-1 #
edge $-1 $538 -65.646534623248996 $762 65.646534623248996 $530 $765 forward 7 unknown #
coedge $-1 $543 $542 $343 $536 reversed $527 $-1 #
edge $-1 $766 -65.646534623248996 $537 65.646534623248996 $535 $767 forward 7 unknown #
vertex $-1 $345 $768 #
vertex $-1 $549 $769 #
straight-curve $-1 65.646534623248996 0 -12.918928007944052 0 -1 0 I I #
coedge $-1 $529 $531 $346 $541 reversed $339 $-1 #
edge $-1 $544 -34.329849972126929 $547 34.329849972126929 $540 $770 forward 7 unknown #
coedge $-1 $535 $347 $352 $550 forward $527 $-1 #
coedge $-1 $347 $535 $529 $761 reversed $527 $-1 #
vertex $-1 $348 $771 #
straight-curve $-1 0 34.329849972126929 12.918928007944052 -1 0 0 I I #
coedge $-1 $349 $530 $351 $549 reversed $228 $-1 #
vertex $-1 $541 $772 #
straight-curve $-1 0 -34.329849972126929 12.918928007944052 1 0 0 I I #
edge $-1 $354 -12.918928007944052 $538 12.918928007944052 $351 $773 forward 7 unknown #
edge $-1 $355 -12.918928007944052 $537 12.918928007944052 $352 $774 forward 7 unknown #
point $-1 65.646534623248996 -34.329849972126929 12.918928007944052 #
point $-1 65.646534623248996 34.329849972126929 12.918928007944052 #
face $-1 $-1 $372 $55 $-1 $775 reversed single #
loop $-1 $-1 $569 $357 #
plane-surface $-1 0 8.2514443405578142 0 0 -1 0 0 0 -1 forward_v I I I I #
coedge $-1 $776 $567 $570 $777 forward $358 $-1 #
coedge $-1 $573 $360 $361 $561 reversed $236 $-1 #
coedge $-1 $567 $776 $360 $559 reversed $358 $-1 #
edge $-1 $574 -12.918928007944052 $778 12.918928007944052 $558 $779 forward 7 unknown #
coedge $-1 $362 $361 $776 $780 forward $149 $-1 #
edge $-1 $565 -3.0471669330423046 $778 3.0471669330423046 $557 $781 forward 7 unknown #
coedge $-1 $570 $569 $362 $563 reversed $554 $-1 #
edge $-1 $782 -3.0471669330423046 $564 3.0471669330423046 $562 $783 forward 7 unknown #
vertex $-1 $364 $784 #
vertex $-1 $576 $785 #
straight-curve $-1 3.0471669330423046 0 -12.918928007944052 0 -1 0 I I #
coedge $-1 $556 $558 $365 $568 reversed $358 $-1 #
edge $-1 $571 -8.2514443405578142 $574 8.2514443405578142 $567 $786 forward 7 unknown #
coedge $-1 $562 $366 $371 $577 forward $554 $-1 #
coedge $-1 $366 $562 $556 $777 reversed $554 $-1 #
vertex $-1 $367 $787 #
straight-curve $-1 0 8.2514443405578142 12.918928007944052 -1 0 0 I I #
coedge $-1 $368 $557 $370 $576 reversed $236 $-1 #
vertex $-1 $568 $788 #
straight-curve $-1 0 -8.2514443405578142 12.918928007944052 1 0 0 I I #
edge $-1 $373 -12.918928007944052 $565 12.918928007944052 $370 $789 forward 7 unknown #
edge $-1 $374 -12.918928007944052 $564 12.918928007944052 $371 $790 forward 7 unknown #
point $-1 3.0471669330423046 -8.2514443405578142 12.918928007944052 #
point $-1 3.0471669330423046 8.2514443405578142 12.918928007944052 #
face $-1 $-1 $391 $56 $-1 $791 reversed single #
loop $-1 $-1 $596 $376 #
plane-surface $-1 0 7.6746759274122311 0 0 -1 0 0 0 -1 forward_v I I I I #
coedge $-1 $792 $594 $597 $793 forward $377 $-1 #
coedge $-1 $600 $379 $380 $588 reversed $244 $-1 #
coedge $-1 $594 $792 $379 $586 reversed $377 $-1 #
edge $-1 $601 -2.8635176314248136 $794 2.8635176314248136 $585 $795 forward 7 unknown #
coedge $-1 $381 $380 $792 $796 forward $153 $-1 #
edge $-1 $592 -65.646534623248996 $794 65.646534623248996 $584 $797 forward 7 unknown #
coedge $-1 $597 $596 $381 $590 reversed $581 $-1 #
edge $-1 $798 -65.646534623248996 $591 65.646534623248996 $589 $799 forward 7 unknown #
vertex $-1 $383 $800 #
vertex $-1 $603 $801 #
straight-curve $-1 65.646534623248996 0 -2.8635176314248136 0 -1 0 I I #
coedge $-1 $583 $585 $384 $595 reversed $377 $-1 #
edge $-1 $598 -7.6746759274122311 $601 7.6746759274122311 $594 $802 forward 7 unknown #
coedge $-1 $589 $385 $390 $604 forward $581 $-1 #
coedge $-1 $385 $589 $583 $793 reversed $581 $-1 #
vertex $-1 $386 $803 #
straight-curve $-1 0 7.6746759274122311 2.8635176314248136 -1 0 0 I I #
coedge $-1 $387 $584 $389 $603 reversed $244 $-1 #
vertex $-1 $595 $804 #
straight-curve $-1 0 -7.6746759274122311 2.8635176314248136 1 0 0 I I #
edge $-1 $392 -2.8635176314248136 $592 2.8635176314248136 $389 $805 forward 7 unknown #
edge $-1 $393 -2.8635176314248136 $591 2.8635176314248136 $390 $806 forward 7 unknown #
point $-1 65.646534623248996 -7.6746759274122311 2.8635176314248136 #
point $-1 65.646534623248996 7.6746759274122311 2.8635176314248136 #
face $-1 $-1 $410 $57 $-1 $807 reversed single #
loop $-1 $-1 $623 $395 #
plane-surface $-1 0 4.8088780054145488 0 0 -1 0 0 0 -1 forward_v I I I I #
coedge $-1 $808 $621 $624 $809 forward $396 $-1 #
coedge $-1 $627 $398 $399 $615 reversed $252 $-1 #
coedge $-1 $621 $808 $398 $613 reversed $396 $-1 #
edge $-1 $628 -131.29306924649799 $810 131.29306924649799 $612 $811 forward 7 unknown #
coedge $-1 $400 $399 $808 $812 forward $157 $-1 #
edge $-1 $619 -262.58613849299599 $810 262.58613849299599 $611 $813 forward 7 unknown #
coedge $-1 $624 $623 $400 $617 reversed $608 $-1 #
edge $-1 $814 -262.58613849299599 $618 262.58613849299599 $616 $815 forward 7 unknown #
vertex $-1 $402 $816 #
vertex $-1 $630 $817 #
straight-curve $-1 262.58613849299599 0 -131.29306924649799 0 -1 0 I I #
coedge $-1 $610 $612 $403 $622 reversed $396 $-1 #
edge $-1 $625 -4.8088780054145488 $628 4.8088780054145488 $621 $818 forward 7 unknown #
coedge $-1 $616 $404 $409 $631 forward $608 $-1 #
coedge $-1 $404 $616 $610 $809 reversed $608 $-1 #
vertex $-1 $405 $819 #
straight-curve $-1 0 4.8088780054145488 131.29306924649799 -1 0 0 I I #
coedge $-1 $406 $611 $408 $630 reversed $252 $-1 #
vertex $-1 $622 $820 #
straight-curve $-1 0 -4.8088780054145488 131.29306924649799 1 0 0 I I #
edge $-1 $411 -131.29306924649799 $619 131.29306924649799 $408 $821 forward 7 unknown #
edge $-1 $412 -131.29306924649799 $618 131.29306924649799 $409 $822 forward 7 unknown #
point $-1 262.58613849299599 -4.8088780054145488 131.29306924649799 #
point $-1 262.58613849299599 4.8088780054145488 131.29306924649799 #
coedge $-1 $634 $634 $-1 $823 reversed $414 $-1 #
vertex $-1 $416 $824 #
ellipse-curve $-1 0 0 -0.25 0 0 -1 0.5 0 0 1 I I #
point $-1 0.5 0 -1.25 #
coedge $-1 $638 $638 $-1 $825 reversed $419 $-1 #
vertex $-1 $421 $826 #
ellipse-curve $-1 0 0 -0.25 0 0 -1 0.5 0 0 1 I I #
point $-1 0.5 0 -1.25 #
face $-1 $-1 $439 $60 $-1 $827 reversed single #
loop $-1 $-1 $658 $424 #
plane-surface $-1 0 3.0017659048729115 0 0 -1 0 0 0 -1 forward_v I I I I #
coedge $-1 $828 $656 $659 $829 forward $425 $-1 #
coedge $-1 $662 $427 $428 $650 reversed $270 $-1 #
coedge $-1 $656 $828 $427 $648 reversed $425 $-1 #
edge $-1 $663 -131.29306924649799 $830 131.29306924649799 $647 $831 forward 7 unknown #
coedge $-1 $429 $428 $828 $832 forward $171 $-1 #
edge $-1 $654 -262.58613849299599 $830 262.58613849299599 $646 $833 forward 7 unknown #
coedge $-1 $659 $658 $429 $652 reversed $643 $-1 #
edge $-1 $834 -262.58613849299599 $653 262.58613849299599 $651 $835 forward 7 unknown #
vertex $-1 $431 $836 #
vertex $-1 $665 $837 #
straight-curve $-1 262.58613849299599 0 -131.29306924649799 0 -1 0 I I #
coedge $-1 $645 $647 $432 $657 reversed $425 $-1 #
edge $-1 $660 -3.0017659048729115 $663 3.0017659048729115 $656 $838 forward 7 unknown #
coedge $-1 $651 $433 $438 $666 forward $643 $-1 #
coedge $-1 $433 $651 $645 $829 reversed $643 $-1 #
vertex $-1 $434 $839 #
straight-curve $-1 0 3.0017659048729115 131.29306924649799 -1 0 0 I I #
coedge $-1 $435 $646 $437 $665 reversed $270 $-1 #
vertex $-1 $657 $840 #
straight-curve $-1 0 -3.0017659048729115 131.29306924649799 1 0 0 I I #
edge $-1 $440 -131.29306924649799 $654 131.29306924649799 $437 $841 forward 7 unknown #
edge $-1 $441 -131.29306924649799 $653 131.29306924649799 $438 $842 forward 7 unknown #
point $-1 262.58613849299599 -3.0017659048729115 131.29306924649799 #
point $-1 262.58613849299599 3.0017659048729115 131.29306924649799 #
coedge $-1 $669 $669 $-1 $843 reversed $443 $-1 #
vertex $-1 $445 $844 #
ellipse-curve $-1 0 0 -0.25 0 0 -1 0.5 0 0 1 I I #
point $-1 0.5 0 -1.25 #
coedge $-1 $673 $673 $-1 $845 reversed $448 $-1 #
vertex $-1 $450 $846 #
ellipse-curve $-1 0 0 -0.25 0 0 -1 0.5 0 0 1 I I #
point $-1 0.5 0 -1.25 #
coedge $-1 $677 $677 $-1 $847 reversed $453 $-1 #
vertex $-1 $455 $848 #
ellipse-curve $-1 0 0 -0.25 0 0 -1 0.5 0 0 1 I I #
point $-1 0.5 0 -1.25 #
face $-1 $-1 $473 $64 $-1 $849 reversed single #
loop $-1 $-1 $697 $458 #
plane-surface $-1 0 3.0017659048729115 0 0 -1 0 0 0 -1 forward_v I I I I #
coedge $-1 $850 $695 $698 $851 forward $459 $-1 #
coedge $-1 $701 $461 $462 $689 reversed $293 $-1 #
coedge $-1 $695 $850 $461 $687 reversed $459 $-1 #
edge $-1 $702 -131.29306924649799 $852 131.29306924649799 $686 $853 forward 7 unknown #
coedge $-1 $463 $462 $850 $854 forward $190 $-1 #
edge $-1 $693 -262.58613849299599 $852 262.58613849299599 $685 $855 forward 7 unknown #
coedge $-1 $698 $697 $463 $691 reversed $682 $-1 #
edge $-1 $856 -262.58613849299599 $692 262.58613849299599 $690 $857 forward 7 unknown #
vertex $-1 $465 $858 #
vertex $-1 $704 $859 #
straight-curve $-1 262.58613849299599 0 -131.29306924649799 0 -1 0 I I #
coedge $-1 $684 $686 $466 $696 reversed $459 $-1 #
edge $-1 $699 -3.0017659048729115 $702 3.0017659048729115 $695 $860 forward 7 unknown #
coedge $-1 $690 $467 $472 $705 forward $682 $-1 #
coedge $-1 $467 $690 $684 $851 reversed $682 $-1 #
vertex $-1 $468 $861 #
straight-curve $-1 0 3.0017659048729115 131.29306924649799 -1 0 0 I I #
coedge $-1 $469 $685 $471 $704 reversed $293 $-1 #
vertex $-1 $696 $862 #
straight-curve $-1 0 -3.0017659048729115 131.29306924649799 1 0 0 I I #
edge $-1 $474 -131.29306924649799 $693 131.29306924649799 $471 $863 forward 7 unknown #
edge $-1 $475 -131.29306924649799 $692 131.29306924649799 $472 $864 forward 7 unknown #
point $-1 262.58613849299599 -3.0017659048729115 131.29306924649799 #
point $-1 262.58613849299599 3.0017659048729115 131.29306924649799 #
coedge $-1 $708 $708 $-1 $865 reversed $477 $-1 #
vertex $-1 $479 $866 #
ellipse-curve $-1 0 0 -0.25 0 0 -1 0.5 0 0 1 I I #
point $-1 0.5 0 -1.25 #
coedge $-1 $712 $712 $-1 $867 reversed $482 $-1 #
vertex $-1 $484 $868 #
ellipse-curve $-1 0 0 -0.25 0 0 -1 0.5 0 0 1 I I #
point $-1 0.5 0 -1.25 #
coedge $-1 $716 $716 $-1 $869 reversed $487 $-1 #
vertex $-1 $489 $870 #
ellipse-curve $-1 0 0 -0.25 0 0 -1 0.5 0 0 1 I I #
point $-1 0.5 0 -1.25 #
face $-1 $-1 $507 $68 $-1 $871 reversed single #
loop $-1 $-1 $736 $492 #
plane-surface $-1 0 3.0017659048729115 0 0 -1 0 0 0 -1 forward_v I I I I #
coedge $-1 $872 $734 $737 $873 forward $493 $-1 #
coedge $-1 $740 $495 $496 $728 reversed $316 $-1 #
coedge $-1 $734 $872 $495 $726 reversed $493 $-1 #
edge $-1 $741 -131.29306924649799 $874 131.29306924649799 $725 $875 forward 7 unknown #
coedge $-1 $497 $496 $872 $876 forward $209 $-1 #
edge $-1 $732 -262.58613849299599 $874 262.58613849299599 $724 $877 forward 7 unknown #
coedge $-1 $737 $736 $497 $730 reversed $721 $-1 #
edge $-1 $878 -262.58613849299599 $731 262.58613849299599 $729 $879 forward 7 unknown #
vertex $-1 $499 $880 #
vertex $-1 $743 $881 #
straight-curve $-1 262.58613849299599 0 -131.29306924649799 0 -1 0 I I #
coedge $-1 $723 $725 $500 $735 reversed $493 $-1 #
edge $-1 $738 -3.0017659048729115 $741 3.0017659048729115 $734 $882 forward 7 unknown #
coedge $-1 $729 $501 $506 $744 forward $721 $-1 #
coedge $-1 $501 $729 $723 $873 reversed $721 $-1 #
vertex $-1 $502 $883 #
straight-curve $-1 0 3.0017659048729115 131.29306924649799 -1 0 0 I I #
coedge $-1 $503 $724 $505 $743 reversed $316 $-1 #
vertex $-1 $735 $884 #
straight-curve $-1 0 -3.0017659048729115 131.29306924649799 1 0 0 I I #
edge $-1 $508 -131.29306924649799 $732 131.29306924649799 $505 $885 forward 7 unknown #
edge $-1 $509 -131.29306924649799 $731 131.29306924649799 $506 $886 forward 7 unknown #
point $-1 262.58613849299599 -3.0017659048729115 131.29306924649799 #
point $-1 262.58613849299599 3.0017659048729115 131.29306924649799 #
coedge $-1 $747 $747 $-1 $887 reversed $511 $-1 #
vertex $-1 $513 $888 #
ellipse-curve $-1 0 0 -0.25 0 0 -1 0.5 0 0 1 I I #
point $-1 0.5 0 -1.25 #
coedge $-1 $751 $751 $-1 $889 reversed $516 $-1 #
vertex $-1 $518 $890 #
ellipse-curve $-1 0 0 -0.25 0 0 -1 0.5 0 0 1 I I #
point $-1 0.5 0 -1.25 #
coedge $-1 $755 $755 $-1 $891 reversed $521 $-1 #
vertex $-1 $523 $892 #
ellipse-curve $-1 0 0 -0.25 0 0 -1 0.5 0 0 1 I I #
point $-1 0.5 0 -1.25 #
plane-surface $-1 65.646534623248996 0 0 -1 0 0 0 0 1 forward_v I I I I #
coedge $-1 $531 $529 $533 $764 reversed $339 $-1 #
edge $-1 $544 -12.918928007944052 $766 12.918928007944052 $543 $893 forward 7 unknown #
vertex $-1 $764 $894 #
straight-curve $-1 -65.646534623248996 -34.329849972126929 0 0 0 -1 I I #
edge $-1 $762 -34.329849972126929 $766 34.329849972126929 $760 $895 forward 7 unknown #
straight-curve $-1 0 -34.329849972126929 -12.918928007944052 -1 0 0 I I #
vertex $-1 $536 $896 #
straight-curve $-1 0 34.329849972126929 -12.918928007944052 1 0 0 I I #
point $-1 65.646534623248996 34.329849972126929 -12.918928007944052 #
point $-1 65.646534623248996 -34.329849972126929 -12.918928007944052 #
straight-curve $-1 -65.646534623248996 0 12.918928007944052 0 -1 0 I I #
point $-1 -65.646534623248996 34.329849972126929 12.918928007944052 #
point $-1 -65.646534623248996 -34.329849972126929 12.918928007944052 #
straight-curve $-1 65.646534623248996 -34.329849972126929 0 0 0 -1 I I #
straight-curve $-1 65.646534623248996 34.329849972126929 0 0 0 -1 I I #
plane-surface $-1 3.0471669330423046 0 0 -1 0 0 0 0 1 forward_v I I I I #
coedge $-1 $558 $556 $560 $780 reversed $358 $-1 #
edge $-1 $571 -12.918928007944052 $782 12.918928007944052 $570 $897 forward 7 unknown #
vertex $-1 $780 $898 #
straight-curve $-1 -3.0471669330423046 -8.2514443405578142 0 0 0 -1 I I #
edge $-1 $778 -8.2514443405578142 $782 8.2514443405578142 $776 $899 forward 7 unknown #
straight-curve $-1 0 -8.2514443405578142 -12.918928007944052 -1 0 0 I I #
vertex $-1 $563 $900 #
straight-curve $-1 0 8.2514443405578142 -12.918928007944052 1 0 0 I I #
point $-1 3.0471669330423046 8.2514443405578142 -12.918928007944052 #
point $-1 3.0471669330423046 -8.2514443405578142 -12.918928007944052 #
straight-curve $-1 -3.0471669330423046 0 12.918928007944052 0 -1 0 I I #
point $-1 -3.0471669330423046 8.2514443405578142 12.918928007944052 #
point $-1 -3.0471669330423046 -8.2514443405578142 12.918928007944052 #
straight-curve $-1 3.0471669330423046 -8.2514443405578142 0 0 0 -1 I I #
straight-curve $-1 3.0471669330423046 8.2514443405578142 0 0 0 -1 I I #
plane-surface $-1 65.646534623248996 0 0 -1 0 0 0 0 1 forward_v I I I I #
coedge $-1 $585 $583 $587 $796 reversed $377 $-1 #
edge $-1 $598 -2.8635176314248136 $798 2.8635176314248136 $597 $901 forward 7 unknown #
vertex $-1 $796 $902 #
straight-curve $-1 -65.646534623248996 -7.6746759274122311 0 0 0 -1 I I #
edge $-1 $794 -7.6746759274122311 $798 7.6746759274122311 $792 $903 forward 7 unknown #
straight-curve $-1 0 -7.6746759274122311 -2.8635176314248136 -1 0 0 I I #
vertex $-1 $590 $904 #
straight-curve $-1 0 7.6746759274122311 -2.8635176314248136 1 0 0 I I #
point $-1 65.646534623248996 7.6746759274122311 -2.8635176314248136 #
point $-1 65.646534623248996 -7.6746759274122311 -2.8635176314248136 #
straight-curve $-1 -65.646534623248996 0 2.8635176314248136 0 -1 0 I I #
point $-1 -65.646534623248996 7.6746759274122311 2.8635176314248136 #
point $-1 -65.646534623248996 -7.6746759274122311 2.8635176314248136 #
straight-curve $-1 65.646534623248996 -7.6746759274122311 0 0 0 -1 I I #
straight-curve $-1 65.646534623248996 7.6746759274122311 0 0 0 -1 I I #
plane-surface $-1 262.58613849299599 0 0 -1 0 0 0 0 1 forward_v I I I I #
coedge $-1 $612 $610 $614 $812 reversed $396 $-1 #
edge $-1 $625 -131.29306924649799 $814 131.29306924649799 $624 $905 forward 7 unknown #
vertex $-1 $812 $906 #
straight-curve $-1 -262.58613849299599 -4.8088780054145488 0 0 0 -1 I I #
edge $-1 $810 -4.8088780054145488 $814 4.8088780054145488 $808 $907 forward 7 unknown #
straight-curve $-1 0 -4.8088780054145488 -131.29306924649799 -1 0 0 I I #
vertex $-1 $617 $908 #
straight-curve $-1 0 4.8088780054145488 -131.29306924649799 1 0 0 I I #
point $-1 262.58613849299599 4.8088780054145488 -131.29306924649799 #
point $-1 262.58613849299599 -4.8088780054145488 -131.29306924649799 #
straight-curve $-1 -262.58613849299599 0 131.29306924649799 0 -1 0 I I #
point $-1 -262.58613849299599 4.8088780054145488 131.29306924649799 #
point $-1 -262.58613849299599 -4.8088780054145488 131.29306924649799 #
straight-curve $-1 262.58613849299599 -4.8088780054145488 0 0 0 -1 I I #
straight-curve $-1 262.58613849299599 4.8088780054145488 0 0 0 -1 I I #
edge $-1 $909 1 $909 0 $634 $-1 forward 7 unknown #
point $-1 0.5 0 -0.25 #
edge $-1 $910 1 $910 0 $638 $-1 forward 7 unknown #
point $-1 0.5 0 -0.25 #
plane-surface $-1 262.58613849299599 0 0 -1 0 0 0 0 1 forward_v I I I I #
coedge $-1 $647 $645 $649 $832 reversed $425 $-1 #
edge $-1 $660 -131.29306924649799 $834 131.29306924649799 $659 $911 forward 7 unknown #
vertex $-1 $832 $912 #
straight-curve $-1 -262.58613849299599 -3.0017659048729115 0 0 0 -1 I I #
edge $-1 $830 -3.0017659048729115 $834 3.0017659048729115 $828 $913 forward 7 unknown #
straight-curve $-1 0 -3.0017659048729115 -131.29306924649799 -1 0 0 I I #
vertex $-1 $652 $914 #
straight-curve $-1 0 3.0017659048729115 -131.29306924649799 1 0 0 I I #
point $-1 262.58613849299599 3.0017659048729115 -131.29306924649799 #
point $-1 262.58613849299599 -3.0017659048729115 -131.29306924649799 #
straight-curve $-1 -262.58613849299599 0 131.29306924649799 0 -1 0 I I #
point $-1 -262.58613849299599 3.0017659048729115 131.29306924649799 #
point $-1 -262.58613849299599 -3.0017659048729115 131.29306924649799 #
straight-curve $-1 262.58613849299599 -3.0017659048729115 0 0 0 -1 I I #
straight-curve $-1 262.58613849299599 3.0017659048729115 0 0 0 -1 I I #
edge $-1 $915 1 $915 0 $669 $-1 forward 7 unknown #
point $-1 0.5 0 -0.25 #
edge $-1 $916 1 $916 0 $673 $-1 forward 7 unknown #
point $-1 0.5 0 -0.25 #
edge $-1 $917 1 $917 0 $677 $-1 forward 7 unknown #
point $-1 0.5 0 -0.25 #
plane-surface $-1 262.58613849299599 0 0 -1 0 0 0 0 1 forward_v I I I I #
coedge $-1 $686 $684 $688 $854 reversed $459 $-1 #
edge $-1 $699 -131.29306924649799 $856 131.29306924649799 $698 $918 forward 7 unknown #
vertex $-1 $854 $919 #
straight-curve $-1 -262.58613849299599 -3.0017659048729115 0 0 0 -1 I I #
edge $-1 $852 -3.0017659048729115 $856 3.0017659048729115 $850 $920 forward 7 unknown #
straight-curve $-1 0 -3.0017659048729115 -131.29306924649799 -1 0 0 I I #
vertex $-1 $691 $921 #
straight-curve $-1 0 3.0017659048729115 -131.29306924649799 1 0 0 I I #
point $-1 262.58613849299599 3.0017659048729115 -131.29306924649799 #
point $-1 262.58613849299599 -3.0017659048729115 -131.29306924649799 #
straight-curve $-1 -262.58613849299599 0 131.29306924649799 0 -1 0 I I #
point $-1 -262.58613849299599 3.0017659048729115 131.29306924649799 #
point $-1 -262.58613849299599 -3.0017659048729115 131.29306924649799 #
straight-curve $-1 262.58613849299599 -3.0017659048729115 0 0 0 -1 I I #
straight-curve $-1 262.58613849299599 3.0017659048729115 0 0 0 -1 I I #
edge $-1 $922 1 $922 0 $708 $-1 forward 7 unknown #
point $-1 0.5 0 -0.25 #
edge $-1 $923 1 $923 0 $712 $-1 forward 7 unknown #
point $-1 0.5 0 -0.25 #
edge $-1 $924 1 $924 0 $716 $-1 forward 7 unknown #
point $-1 0.5 0 -0.25 #
plane-surface $-1 262.58613849299599 0 0 -1 0 0 0 0 1 forward_v I I I I #
coedge $-1 $725 $723 $727 $876 reversed $493 $-1 #
edge $-1 $738 -131.29306924649799 $878 131.29306924649799 $737 $925 forward 7 unknown #
vertex $-1 $876 $926 #
straight-curve $-1 -262.58613849299599 -3.0017659048729115 0 0 0 -1 I I #
edge $-1 $874 -3.0017659048729115 $878 3.0017659048729115 $872 $927 forward 7 unknown #
straight-curve $-1 0 -3.0017659048729115 -131.29306924649799 -1 0 0 I I #
vertex $-1 $730 $928 #
straight-curve $-1 0 3.0017659048729115 -131.29306924649799 1 0 0 I I #
point $-1 262.58613849299599 3.0017659048729115 -131.29306924649799 #
point $-1 262.58613849299599 -3.0017659048729115 -131.29306924649799 #
straight-curve $-1 -262.58613849299599 0 131.29306924649799 0 -1 0 I I #
point $-1 -262.58613849299599 3.0017659048729115 131.29306924649799 #
point $-1 -262.58613849299599 -3.0017659048729115 131.29306924649799 #
straight-curve $-1 262.58613849299599 -3.0017659048729115 0 0 0 -1 I I #
straight-curve $-1 262.58613849299599 3.0017659048729115 0 0 0 -1 I I #
edge $-1 $929 1 $929 0 $747 $-1 forward 7 unknown #
point $-1 0.5 0 -0.25 #
edge $-1 $930 1 $930 0 $751 $-1 forward 7 unknown #
point $-1 0.5 0 -0.25 #
edge $-1 $931 1 $931 0 $755 $-1 forward 7 unknown #
point $-1 0.5 0 -0.25 #
straight-curve $-1 -65.646534623248996 34.329849972126929 0 0 0 -1 I I #
point $-1 -65.646534623248996 -34.329849972126929 -12.918928007944052 #
straight-curve $-1 -65.646534623248996 0 -12.918928007944052 0 1 0 I I #
point $-1 -65.646534623248996 34.329849972126929 -12.918928007944052 #
straight-curve $-1 -3.0471669330423046 8.2514443405578142 0 0 0 -1 I I #
point $-1 -3.0471669330423046 -8.2514443405578142 -12.918928007944052 #
straight-curve $-1 -3.0471669330423046 0 -12.918928007944052 0 1 0 I I #
point $-1 -3.0471669330423046 8.2514443405578142 -12.918928007944052 #
straight-curve $-1 -65.646534623248996 7.6746759274122311 0 0 0 -1 I I #
point $-1 -65.646534623248996 -7.6746759274122311 -2.8635176314248136 #
straight-curve $-1 -65.646534623248996 0 -2.8635176314248136 0 1 0 I I #
point $-1 -65.646534623248996 7.6746759274122311 -2.8635176314248136 #
straight-curve $-1 -262.58613849299599 4.8088780054145488 0 0 0 -1 I I #
point $-1 -262.58613849299599 -4.8088780054145488 -131.29306924649799 #
straight-curve $-1 -262.58613849299599 0 -131.29306924649799 0 1 0 I I #
point $-1 -262.58613849299599 4.8088780054145488 -131.29306924649799 #
vertex $-1 $823 $932 #
vertex $-1 $825 $933 #
straight-curve $-1 -262.58613849299599 3.0017659048729115 0 0 0 -1 I I #
point $-1 -262.58613849299599 -3.0017659048729115 -131.29306924649799 #
straight-curve $-1 -262.58613849299599 0 -131.29306924649799 0 1 0 I I #
point $-1 -262.58613849299599 3.0017659048729115 -131.29306924649799 #
vertex $-1 $843 $934 #
vertex $-1 $845 $935 #
vertex $-1 $847 $936 #
straight-curve $-1 -262.58613849299599 3.0017659048729115 0 0 0 -1 I I #
point $-1 -262.58613849299599 -3.0017659048729115 -131.29306924649799 #
straight-curve $-1 -262.58613849299599 0 -131.29306924649799 0 1 0 I I #
point $-1 -262.58613849299599 3.0017659048729115 -131.29306924649799 #
vertex $-1 $865 $937 #
vertex $-1 $867 $938 #
vertex $-1 $869 $939 #
straight-curve $-1 -262.58613849299599 3.0017659048729115 0 0 0 -1 I I #
point $-1 -262.58613849299599 -3.0017659048729115 -131.29306924649799 #
straight-curve $-1 -262.58613849299599 0 -131.29306924649799 0 1 0 I I #
point $-1 -262.58613849299599 3.0017659048729115 -131.29306924649799 #
vertex $-1 $887 $940 #
vertex $-1 $889 $941 #
vertex $-1 $891 $942 #
point $-1 0 0 0.25 #
point $-1 0 0 0.25 #
point $-1 0 0 0.25 #
point $-1 0 0 0.25 #
point $-1 0 0 0.25 #
point $-1 0 0 0.25 #
point $-1 0 0 0.25 #
point $-1 0 0 0.25 #
point $-1 0 0 0.25 #
point $-1 0 0 0.25 #
point $-1 0 0 0.25 #
End-of-ACIS-data 