500 0 5 0           
7 Unknown 11 ACIS 5.0 NT 24 Thu Mar 25 18:59:38 1999 
-1 9.9999999999999995e-007 1e-010 
body $-1 $5 $-1 $6 #
body $-1 $7 $-1 $8 #
body $-1 $9 $-1 $10 #
body $-1 $11 $-1 $12 #
body $-1 $13 $-1 $14 #
lump $-1 $-1 $15 $0 #
transform $-1 1 0 0 0 1 0 0 0 1 72.804956205938907 47.60929099739112 13.386017549054374 1 rotate no_reflect no_shear #
lump $-1 $-1 $16 $1 #
transform $-1 1 0 0 0 1 0 0 0 1 72.804956205938907 47.60929099739112 13.386017549054374 1 rotate no_reflect no_shear #
lump $-1 $-1 $17 $2 #
transform $-1 1 0 0 0 1 0 0 0 1 72.804956205938907 47.60929099739112 13.386017549054374 1 rotate no_reflect no_shear #
lump $-1 $-1 $18 $3 #
transform $-1 1 0 0 0 1 0 0 0 1 72.804956205938907 47.60929099739112 13.386017549054374 1 rotate no_reflect no_shear #
lump $-1 $-1 $19 $4 #
transform $-1 1 0 0 0 1 0 0 0 1 72.804956205938907 47.60929099739112 13.386017549054374 1 rotate no_reflect no_shear #
shell $-1 $-1 $-1 $20 $-1 $5 #
shell $-1 $-1 $-1 $21 $-1 $7 #
shell $-1 $-1 $-1 $22 $-1 $9 #
shell $-1 $-1 $-1 $23 $-1 $11 #
shell $-1 $-1 $-1 $24 $-1 $13 #
face $-1 $25 $26 $15 $-1 $27 reversed single #
face $-1 $28 $29 $16 $-1 $30 forward single #
face $-1 $31 $32 $17 $-1 $33 reversed single #
face $-1 $34 $35 $18 $-1 $36 forward single #
face $-1 $37 $38 $19 $-1 $39 forward single #
face $-1 $40 $41 $15 $-1 $42 forward single #
loop $-1 $-1 $43 $20 #
plane-surface $-1 -72.804956205938907 0 0 1 0 0 0 0 -1 forward_v I I I I #
face $-1 $44 $45 $16 $-1 $46 reversed single #
loop $-1 $-1 $47 $21 #
plane-surface $-1 -72.804956205938907 0 0 1 0 0 0 0 -1 forward_v I I I I #
face $-1 $48 $49 $17 $-1 $50 reversed single #
loop $-1 $-1 $51 $22 #
plane-surface $-1 58.440460253184114 22.818518425727966 207.5582430962462 0 1 0 0.6560590369687036 0 0.75470957328743171 forward_v I I I I #
face $-1 $52 $53 $18 $-1 $54 forward single #
loop $-1 $55 $56 $23 #
cone-surface $-1 64.73534741464421 29.901596303346004 5.9217703099320946 -0.6560590369687036 0 -0.75470957328743171 1.8867739332185793 0 -1.640147592421759 1 I I 0 1 2.5 forward I I I I #
face $-1 $57 $58 $19 $-1 $59 forward single #
loop $-1 $60 $61 $24 #
cone-surface $-1 64.73534741464421 40.526213119773068 5.9217703099320946 -0.6560590369687036 0 -0.75470957328743171 1.8867739332185793 0 -1.640147592421759 1 I I 0 1 2.5 forward I I I I #
face $-1 $62 $63 $15 $-1 $64 reversed single #
loop $-1 $-1 $65 $25 #
plane-surface $-1 0 0 13.386017549054374 0 0 1 1 0 0 forward_v I I I I #
coedge $-1 $66 $67 $68 $69 reversed $26 $-1 #
face $-1 $70 $71 $16 $-1 $72 reversed single #
loop $-1 $-1 $73 $28 #
plane-surface $-1 0 0 -13.386017549054374 0 0 1 1 0 0 forward_v I I I I #
coedge $-1 $74 $75 $76 $77 forward $29 $-1 #
face $-1 $78 $79 $17 $-1 $80 reversed single #
loop $-1 $-1 $81 $31 #
plane-surface $-1 -37.088238656849725 35.213904711559543 97.665048233457583 0.6560590369687036 0 0.75470957328743171 0.75470957328743171 0 -0.6560590369687036 forward_v I I I I #
coedge $-1 $82 $83 $84 $85 reversed $32 $-1 #
face $-1 $-1 $86 $18 $-1 $87 forward single #
loop $-1 $88 $89 $34 #
cone-surface $-1 62.316296148231089 29.901596303346004 3.1389702170158227 -0.6560590369687036 0 -0.75470957328743171 0.94338696660928967 0 -0.8200737962108795 1 I I -0.70710678118654746 0.70710678118654746 1.25 forward I I I I #
loop $-1 $-1 $90 $23 #
coedge $-1 $56 $56 $91 $92 reversed $35 $-1 #
face $-1 $-1 $93 $19 $-1 $94 forward single #
loop $-1 $95 $96 $37 #
cone-surface $-1 62.316296148231089 40.526213119773068 3.1389702170158227 -0.6560590369687036 0 -0.75470957328743171 0.94338696660928967 0 -0.8200737962108795 1 I I -0.70710678118654746 0.70710678118654746 1.25 forward I I I I #
loop $-1 $-1 $97 $24 #
coedge $-1 $61 $61 $98 $99 reversed $38 $-1 #
face $-1 $100 $101 $15 $-1 $102 reversed single #
loop $-1 $-1 $103 $40 #
plane-surface $-1 0 0 -13.386017549054374 0 0 1 1 0 0 forward_v I I I I #
coedge $-1 $104 $105 $106 $107 forward $41 $-1 #
coedge $-1 $108 $43 $109 $110 reversed $26 $-1 #
coedge $-1 $43 $108 $111 $112 forward $26 $-1 #
coedge $-1 $113 $114 $43 $69 forward $63 $-1 #
edge $-1 $115 -47.60929099739112 $116 47.60929099739112 $43 $117 forward 7 unknown #
face $-1 $118 $119 $16 $-1 $120 reversed single #
loop $-1 $-1 $121 $44 #
plane-surface $-1 -77.965156283129403 -45.30336651931313 0 0 1 0 0 0 1 forward_v I I I I #
coedge $-1 $122 $123 $75 $124 forward $45 $-1 #
coedge $-1 $125 $47 $126 $127 reversed $29 $-1 #
coedge $-1 $47 $125 $73 $124 reversed $29 $-1 #
coedge $-1 $128 $129 $47 $77 reversed $130 $-1 #
edge $-1 $131 -13.386017549054374 $132 13.386017549054374 $76 $133 forward 7 unknown #
face $-1 $134 $135 $17 $-1 $136 forward single #
loop $-1 $-1 $137 $48 #
plane-surface $-1 0 47.60929099739112 0 0 -1 0 0 0 -1 forward_v I I I I #
coedge $-1 $138 $139 $140 $141 reversed $49 $-1 #
coedge $-1 $83 $51 $142 $143 reversed $32 $-1 #
coedge $-1 $51 $82 $138 $144 reversed $32 $-1 #
coedge $-1 $140 $145 $51 $85 forward $146 $-1 #
edge $-1 $147 90.393103999068728 $148 101.64277222469937 $84 $149 forward 7 unknown #
loop $-1 $-1 $91 $52 #
plane-surface $-1 -37.088238656849725 35.213904711559543 97.665048233457583 0.6560590369687036 0 0.75470957328743171 0.75470957328743171 0 -0.6560590369687036 forward_v I I I I #
loop $-1 $-1 $150 $34 #
coedge $-1 $89 $89 $90 $151 reversed $53 $-1 #
coedge $-1 $90 $90 $89 $151 forward $55 $-1 #
coedge $-1 $91 $91 $56 $92 forward $86 $-1 #
edge $-1 $152 0 $152 6.2831853071796004 $91 $153 forward 7 unknown #
loop $-1 $-1 $98 $57 #
plane-surface $-1 -37.088238656849725 35.213904711559543 97.665048233457583 0.6560590369687036 0 0.75470957328743171 0.75470957328743171 0 -0.6560590369687036 forward_v I I I I #
loop $-1 $-1 $154 $37 #
coedge $-1 $96 $96 $97 $155 reversed $58 $-1 #
coedge $-1 $97 $97 $96 $155 forward $60 $-1 #
coedge $-1 $98 $98 $61 $99 forward $93 $-1 #
edge $-1 $156 0 $156 6.2831853071796004 $98 $157 forward 7 unknown #
face $-1 $158 $159 $15 $-1 $160 reversed single #
loop $-1 $-1 $109 $62 #
plane-surface $-1 0 -47.60929099739112 0 0 1 0 0 0 1 forward_v I I I I #
coedge $-1 $114 $113 $161 $162 forward $63 $-1 #
coedge $-1 $163 $65 $164 $165 forward $41 $-1 #
coedge $-1 $65 $163 $166 $167 forward $41 $-1 #
coedge $-1 $168 $169 $65 $107 reversed $170 $-1 #
edge $-1 $171 -47.60929099739112 $172 47.60929099739112 $106 $173 forward 7 unknown #
coedge $-1 $67 $66 $163 $174 reversed $26 $-1 #
coedge $-1 $175 $166 $66 $110 forward $101 $-1 #
edge $-1 $176 -13.386017549054374 $115 13.386017549054374 $66 $177 forward 7 unknown #
coedge $-1 $164 $178 $67 $112 reversed $159 $-1 #
edge $-1 $179 -13.386017549054374 $116 13.386017549054374 $111 $180 forward 7 unknown #
coedge $-1 $103 $68 $178 $181 forward $63 $-1 #
coedge $-1 $68 $103 $175 $182 forward $63 $-1 #
vertex $-1 $69 $183 #
vertex $-1 $181 $184 #
straight-curve $-1 -72.804956205938907 0 -13.386017549054374 0 1 0 I I #
face $-1 $185 $130 $16 $-1 $186 reversed single #
loop $-1 $-1 $187 $70 #
plane-surface $-1 -83.125356360319898 -41.994466518029043 0 1 0 0 0 0 -1 forward_v I I I I #
coedge $-1 $188 $189 $190 $191 forward $71 $-1 #
coedge $-1 $192 $73 $188 $193 forward $45 $-1 #
coedge $-1 $73 $192 $128 $194 forward $45 $-1 #
edge $-1 $131 38.685566516744956 $195 45.30336651931313 $73 $196 forward 7 unknown #
coedge $-1 $75 $74 $197 $198 forward $29 $-1 #
coedge $-1 $199 $200 $74 $127 forward $201 $-1 #
edge $-1 $202 -45.30336651931313 $132 -38.685566516744956 $126 $203 forward 7 unknown #
coedge $-1 $204 $76 $123 $194 reversed $130 $-1 #
coedge $-1 $76 $204 $199 $205 reversed $130 $-1 #
loop $-1 $-1 $76 $118 #
vertex $-1 $124 $206 #
vertex $-1 $205 $207 #
straight-curve $-1 -72.804956205938907 -38.685566516744956 0 0 0 1 I I #
face $-1 $-1 $146 $17 $-1 $208 reversed single #
loop $-1 $-1 $209 $78 #
plane-surface $-1 0 0 13.386017549054374 0 0 1 1 0 0 forward_v I I I I #
coedge $-1 $210 $211 $139 $212 forward $79 $-1 #
coedge $-1 $213 $81 $83 $144 forward $49 $-1 #
coedge $-1 $81 $213 $137 $212 reversed $49 $-1 #
coedge $-1 $214 $84 $81 $141 forward $146 $-1 #
edge $-1 $148 5.2115660699481943 $215 30.002338641611349 $140 $216 forward 7 unknown #
coedge $-1 $217 $209 $82 $143 forward $135 $-1 #
edge $-1 $218 30.643463437161941 $147 43.584726079346851 $142 $219 forward 7 unknown #
edge $-1 $148 -145.60991241187784 $218 -128.46257110306922 $83 $220 forward 7 unknown #
coedge $-1 $84 $214 $217 $221 reversed $146 $-1 #
loop $-1 $-1 $140 $134 #
vertex $-1 $221 $222 #
vertex $-1 $85 $223 #
straight-curve $-1 72.804956205938907 22.818518425727966 103.7791215481231 0 0 -1 I I #
coedge $-1 $150 $150 $-1 $224 reversed $88 $-1 #
edge $-1 $225 0 $225 6.2831853071796004 $89 $226 forward 7 unknown #
vertex $-1 $92 $227 #
ellipse-curve $-1 66.334324884846438 29.901596303346004 7.7611834362390626 0.6560590369687036 0 0.75470957328743171 1.8867739332185793 0 -1.640147592421759 1 I I #
coedge $-1 $154 $154 $-1 $228 reversed $95 $-1 #
edge $-1 $229 0 $229 6.2831853071796004 $96 $230 forward 7 unknown #
vertex $-1 $99 $231 #
ellipse-curve $-1 66.334324884846438 40.526213119773068 7.7611834362390626 0.6560590369687036 0 0.75470957328743171 1.8867739332185793 0 -1.640147592421759 1 I I #
face $-1 $-1 $170 $15 $-1 $232 reversed single #
loop $-1 $-1 $233 $100 #
plane-surface $-1 0 47.60929099739112 0 0 -1 0 0 0 -1 forward_v I I I I #
coedge $-1 $169 $168 $103 $162 reversed $170 $-1 #
edge $-1 $234 -47.60929099739112 $235 47.60929099739112 $161 $236 forward 7 unknown #
coedge $-1 $105 $104 $108 $174 forward $41 $-1 #
coedge $-1 $233 $111 $104 $165 reversed $159 $-1 #
edge $-1 $172 -72.804956205938907 $179 72.804956205938907 $164 $237 forward 7 unknown #
coedge $-1 $109 $238 $105 $167 reversed $101 $-1 #
edge $-1 $176 -72.804956205938907 $171 72.804956205938907 $166 $239 forward 7 unknown #
coedge $-1 $161 $106 $238 $240 forward $170 $-1 #
coedge $-1 $106 $161 $233 $241 reversed $170 $-1 #
loop $-1 $-1 $168 $158 #
vertex $-1 $107 $242 #
vertex $-1 $107 $243 #
straight-curve $-1 72.804956205938907 0 13.386017549054374 0 1 0 I I #
edge $-1 $179 -47.60929099739112 $176 47.60929099739112 $108 $244 forward 7 unknown #
coedge $-1 $238 $109 $114 $182 reversed $101 $-1 #
vertex $-1 $174 $245 #
straight-curve $-1 -72.804956205938907 -47.60929099739112 0 0 0 -1 I I #
coedge $-1 $111 $233 $113 $181 reversed $159 $-1 #
vertex $-1 $165 $246 #
straight-curve $-1 -72.804956205938907 47.60929099739112 0 0 0 -1 I I #
edge $-1 $116 -72.804956205938907 $234 72.804956205938907 $178 $247 forward 7 unknown #
edge $-1 $235 -72.804956205938907 $115 72.804956205938907 $175 $248 forward 7 unknown #
point $-1 -72.804956205938907 -47.60929099739112 -13.386017549054374 #
point $-1 -72.804956205938907 47.60929099739112 -13.386017549054374 #
face $-1 $-1 $201 $16 $-1 $249 forward single #
plane-surface $-1 -77.965156283129403 -38.685566516744956 0 0 -1 0 0 0 -1 forward_v I I I I #
coedge $-1 $250 $251 $204 $252 forward $119 $-1 #
coedge $-1 $197 $121 $122 $193 reversed $71 $-1 #
coedge $-1 $121 $197 $200 $253 reversed $71 $-1 #
coedge $-1 $251 $250 $121 $191 reversed $119 $-1 #
edge $-1 $254 -13.386017549054374 $255 13.386017549054374 $190 $256 forward 7 unknown #
coedge $-1 $123 $122 $250 $257 forward $45 $-1 #
edge $-1 $195 -5.1602000771904954 $255 5.1602000771904954 $188 $258 forward 7 unknown #
edge $-1 $259 -5.1602000771904954 $131 5.1602000771904954 $128 $260 forward 7 unknown #
vertex $-1 $193 $261 #
straight-curve $-1 -72.804956205938907 0 -13.386017549054374 0 -1 0 I I #
coedge $-1 $189 $188 $125 $198 reversed $71 $-1 #
edge $-1 $202 -13.386017549054374 $195 13.386017549054374 $197 $262 forward 7 unknown #
coedge $-1 $263 $126 $129 $205 forward $201 $-1 #
coedge $-1 $126 $263 $189 $253 forward $201 $-1 #
loop $-1 $-1 $126 $185 #
vertex $-1 $127 $264 #
straight-curve $-1 -72.804956205938907 0 13.386017549054374 0 1 0 I I #
coedge $-1 $129 $128 $187 $252 reversed $130 $-1 #
edge $-1 $132 -5.1602000771904954 $265 5.1602000771904954 $129 $266 forward 7 unknown #
point $-1 -72.804956205938907 -38.685566516744956 -13.386017549054374 #
point $-1 -72.804956205938907 -38.685566516744956 13.386017549054374 #
plane-surface $-1 72.804956205938907 0 0 -1 0 0 0 0 1 forward_v I I I I #
coedge $-1 $142 $267 $213 $268 forward $135 $-1 #
coedge $-1 $211 $137 $267 $269 reversed $79 $-1 #
coedge $-1 $137 $210 $214 $270 forward $79 $-1 #
edge $-1 $215 -99.577469281759022 $271 -82.430127972950402 $137 $272 forward 7 unknown #
coedge $-1 $139 $138 $209 $268 reversed $49 $-1 #
coedge $-1 $145 $140 $211 $270 reversed $146 $-1 #
vertex $-1 $141 $273 #
straight-curve $-1 72.804956205938907 17.606952355779772 2.1363493234237154 0 1 0 I I #
coedge $-1 $267 $142 $145 $221 forward $135 $-1 #
vertex $-1 $143 $274 #
straight-curve $-1 29.220230126592057 22.818518425727966 13.386017549054372 1 0 0 I I #
straight-curve $-1 -37.088238656849725 22.818518425727966 97.665048233457583 -0.75470957328743171 0 0.6560590369687036 I I #
edge $-1 $147 22.818518425727966 $275 47.60929099739112 $145 $276 forward 7 unknown #
point $-1 72.804956205938907 22.818518425727966 13.386017549054374 #
point $-1 72.804956205938907 22.818518425727966 2.1363493234237296 #
edge $-1 $277 1 $277 0 $150 $-1 forward 7 unknown #
vertex $-1 $151 $278 #
ellipse-curve $-1 63.136369944441967 29.901596303346004 4.0823571836251125 0.6560590369687036 0 0.75470957328743171 1.8867739332185793 0 -1.640147592421759 1 I I #
point $-1 68.22109881806503 29.901596303346004 6.1210358438173191 #
edge $-1 $279 1 $279 0 $154 $-1 forward 7 unknown #
vertex $-1 $155 $280 #
ellipse-curve $-1 63.136369944441967 40.526213119773068 4.0823571836251125 0.6560590369687036 0 0.75470957328743171 1.8867739332185793 0 -1.640147592421759 1 I I #
point $-1 68.22109881806503 40.526213119773068 6.1210358438173191 #
plane-surface $-1 72.804956205938907 0 0 -1 0 0 0 0 1 forward_v I I I I #
coedge $-1 $178 $164 $169 $241 forward $159 $-1 #
vertex $-1 $162 $281 #
vertex $-1 $240 $282 #
straight-curve $-1 72.804956205938907 0 -13.386017549054374 0 -1 0 I I #
straight-curve $-1 0 47.60929099739112 13.386017549054374 -1 0 0 I I #
coedge $-1 $166 $175 $168 $240 reversed $101 $-1 #
straight-curve $-1 0 -47.60929099739112 13.386017549054374 1 0 0 I I #
edge $-1 $171 -13.386017549054374 $235 13.386017549054374 $168 $283 forward 7 unknown #
edge $-1 $172 -13.386017549054374 $234 13.386017549054374 $169 $284 forward 7 unknown #
point $-1 72.804956205938907 -47.60929099739112 13.386017549054374 #
point $-1 72.804956205938907 47.60929099739112 13.386017549054374 #
straight-curve $-1 -72.804956205938907 0 13.386017549054374 0 -1 0 I I #
point $-1 -72.804956205938907 -47.60929099739112 13.386017549054374 #
point $-1 -72.804956205938907 47.60929099739112 13.386017549054374 #
straight-curve $-1 0 47.60929099739112 -13.386017549054374 1 0 0 I I #
straight-curve $-1 0 -47.60929099739112 -13.386017549054374 -1 0 0 I I #
plane-surface $-1 0 0 13.386017549054374 0 0 1 1 0 0 forward_v I I I I #
coedge $-1 $190 $187 $192 $257 reversed $119 $-1 #
coedge $-1 $187 $190 $263 $285 reversed $119 $-1 #
edge $-1 $265 -13.386017549054374 $259 13.386017549054374 $204 $286 forward 7 unknown #
edge $-1 $254 -5.1602000771904954 $202 5.1602000771904954 $189 $287 forward 7 unknown #
vertex $-1 $285 $288 #
vertex $-1 $257 $289 #
straight-curve $-1 -83.125356360319898 -45.30336651931313 0 0 0 -1 I I #
edge $-1 $255 -3.308900001284087 $259 3.308900001284087 $250 $290 forward 7 unknown #
straight-curve $-1 -77.965156283129403 -45.30336651931313 -13.386017549054374 -1 0 0 I I #
vertex $-1 $194 $291 #
straight-curve $-1 -77.965156283129403 -38.685566516744956 -13.386017549054374 1 0 0 I I #
point $-1 -72.804956205938907 -45.30336651931313 -13.386017549054374 #
straight-curve $-1 -72.804956205938907 -45.30336651931313 0 0 0 -1 I I #
coedge $-1 $200 $199 $251 $285 forward $201 $-1 #
point $-1 -72.804956205938907 -45.30336651931313 13.386017549054374 #
vertex $-1 $205 $292 #
straight-curve $-1 -77.965156283129403 -38.685566516744956 13.386017549054374 -1 0 0 I I #
coedge $-1 $209 $217 $210 $269 forward $135 $-1 #
edge $-1 $271 -30.002338641611349 $218 -5.2115660699481943 $209 $293 forward 7 unknown #
edge $-1 $275 -72.804956205938907 $271 -59.863693563753998 $210 $294 forward 7 unknown #
edge $-1 $275 -13.386017549054374 $215 -2.136349323423715 $214 $295 forward 7 unknown #
vertex $-1 $268 $296 #
straight-curve $-1 -2.3471131447397795 47.60929099739112 67.465047924195204 -0.75470957328743171 0 0.6560590369687036 I I #
point $-1 72.804956205938907 47.60929099739112 2.136349323423715 #
point $-1 59.863693563753998 22.818518425727966 13.386017549054372 #
vertex $-1 $221 $297 #
straight-curve $-1 72.804956205938907 0 13.386017549054374 0 1 0 I I #
vertex $-1 $224 $298 #
point $-1 65.023143877660544 29.901596303346004 2.4422095912033535 #
vertex $-1 $228 $299 #
point $-1 65.023143877660544 40.526213119773068 2.4422095912033535 #
point $-1 72.804956205938907 47.60929099739112 -13.386017549054374 #
point $-1 72.804956205938907 -47.60929099739112 -13.386017549054374 #
straight-curve $-1 72.804956205938907 -47.60929099739112 0 0 0 -1 I I #
straight-curve $-1 72.804956205938907 47.60929099739112 0 0 0 -1 I I #
edge $-1 $265 -3.308900001284087 $254 3.308900001284087 $251 $300 forward 7 unknown #
straight-curve $-1 -83.125356360319898 -38.685566516744956 0 0 0 -1 I I #
straight-curve $-1 -77.965156283129403 -45.30336651931313 13.386017549054374 1 0 0 I I #
point $-1 -83.125356360319898 -45.30336651931313 13.386017549054374 #
point $-1 -83.125356360319898 -45.30336651931313 -13.386017549054374 #
straight-curve $-1 -83.125356360319898 -41.994466518029043 -13.386017549054374 0 1 0 I I #
point $-1 -83.125356360319898 -38.685566516744956 -13.386017549054374 #
point $-1 -83.125356360319898 -38.685566516744956 13.386017549054374 #
straight-curve $-1 59.863693563754005 17.606952355779772 13.386017549054387 0 -1 0 I I #
straight-curve $-1 0 47.60929099739112 13.386017549054374 -1 0 0 I I #
straight-curve $-1 72.804956205938907 47.60929099739112 0 0 0 -1 I I #
point $-1 59.863693563753998 47.60929099739112 13.386017549054372 #
point $-1 72.804956205938907 47.60929099739112 13.386017549054374 #
point $-1 61.496222352020212 29.901596303346004 2.1955832504065329 #
point $-1 61.496222352020212 40.526213119773068 2.1955832504065329 #
straight-curve $-1 -83.125356360319898 -41.994466518029043 13.386017549054374 0 -1 0 I I #
End-of-ACIS-data 