500 0 6 0           
7 Unknown 11 ACIS 5.0 NT 24 Thu Mar 25 23:11:54 1999 
-1 9.9999999999999995e-007 1e-010 
body $-1 $6 $-1 $7 #
body $-1 $8 $-1 $9 #
body $-1 $10 $-1 $11 #
body $-1 $12 $-1 $13 #
body $-1 $14 $-1 $15 #
body $-1 $16 $-1 $17 #
lump $-1 $-1 $18 $0 #
transform $-1 1 0 0 0 1 0 0 0 1 40.017090365306558 23.334774233800744 5.0102787597859164 1 rotate no_reflect no_shear #
lump $-1 $-1 $19 $1 #
transform $-1 1 0 0 0 1 0 0 0 1 40.017090365306558 23.334774233800744 5.0102787597859164 1 rotate no_reflect no_shear #
lump $-1 $-1 $20 $2 #
transform $-1 1 0 0 0 1 0 0 0 1 40.017090365306558 23.334774233800744 5.0102787597859164 1 rotate no_reflect no_shear #
lump $-1 $-1 $21 $3 #
transform $-1 1 0 0 0 1 0 0 0 1 40.017090365306558 23.334774233800744 5.0102787597859164 1 rotate no_reflect no_shear #
lump $-1 $-1 $22 $4 #
transform $-1 1 0 0 0 1 0 0 0 1 40.017090365306558 23.334774233800744 5.0102787597859164 1 rotate no_reflect no_shear #
lump $-1 $-1 $23 $5 #
transform $-1 1 0 0 0 1 0 0 0 1 40.017090365306558 23.334774233800744 5.0102787597859164 1 rotate no_reflect no_shear #
shell $-1 $-1 $-1 $24 $-1 $6 #
shell $-1 $-1 $-1 $25 $-1 $8 #
shell $-1 $-1 $-1 $26 $-1 $10 #
shell $-1 $-1 $-1 $27 $-1 $12 #
shell $-1 $-1 $-1 $28 $-1 $14 #
shell $-1 $-1 $-1 $29 $-1 $16 #
face $-1 $30 $31 $18 $-1 $32 forward single #
face $-1 $33 $34 $19 $-1 $35 reversed single #
face $-1 $36 $37 $20 $-1 $38 reversed single #
face $-1 $39 $40 $21 $-1 $41 forward single #
face $-1 $42 $43 $22 $-1 $44 reversed single #
face $-1 $45 $46 $23 $-1 $47 forward single #
face $-1 $48 $49 $18 $-1 $50 reversed single #
loop $-1 $-1 $51 $24 #
plane-surface $-1 0 0 5.0102787597859164 0 0 1 1 0 0 forward_v I I I I #
face $-1 $52 $53 $19 $-1 $54 reversed single #
loop $-1 $-1 $55 $25 #
plane-surface $-1 -37.079918992023536 -21.073077857061943 0 0 1 0 0 0 1 forward_v I I I I #
face $-1 $56 $57 $20 $-1 $58 reversed single #
loop $-1 $-1 $59 $26 #
plane-surface $-1 -21.702511538284504 59.166478758811962 85.673685319767699 1 0 0 0 -0.79863551827123203 -0.60181501223851219 forward_v I I I I #
face $-1 $60 $61 $21 $-1 $62 forward single #
loop $-1 $63 $64 $27 #
cone-surface $-1 -11.633209277384069 20.467009168330399 1.8176356986995568 0 -0.79863551827123203 -0.60181501223851219 1 0 0 1 I I 0 1 1 forward I I I I #
face $-1 $65 $66 $22 $-1 $67 reversed single #
loop $-1 $-1 $68 $28 #
plane-surface $-1 -1.5639070164836326 -87.252913641007396 48.401726291860406 -1 0 0 0 -0.79863551827123203 0.60181501223851219 forward_v I I I I #
face $-1 $69 $70 $23 $-1 $71 forward single #
loop $-1 $72 $73 $29 #
cone-surface $-1 -11.633209277384069 -20.467009168330399 1.8176356986995656 0 0.79863551827123203 -0.60181501223851219 1 0 0 1 I I 0 1 1 forward I I I I #
face $-1 $74 $75 $18 $-1 $76 reversed single #
loop $-1 $-1 $77 $30 #
plane-surface $-1 0 0 -5.0102787597859164 0 0 1 1 0 0 forward_v I I I I #
coedge $-1 $78 $79 $80 $81 forward $31 $-1 #
face $-1 $82 $83 $19 $-1 $84 reversed single #
loop $-1 $-1 $85 $33 #
plane-surface $-1 -37.079918992023536 -18.073077857061943 0 0 -1 0 0 0 -1 forward_v I I I I #
coedge $-1 $86 $87 $88 $89 reversed $34 $-1 #
face $-1 $90 $91 $20 $-1 $92 reversed single #
loop $-1 $-1 $93 $36 #
plane-surface $-1 -11.633209277384069 -4.7516606483946973 37.507913863874471 0 0.79863551827123203 0.60181501223851219 1 0 0 forward_v I I I I #
coedge $-1 $94 $95 $96 $97 reversed $37 $-1 #
face $-1 $-1 $98 $21 $-1 $99 forward single #
loop $-1 $100 $101 $39 #
cone-surface $-1 -11.633209277384069 18.998781857227769 0.71124709340331815 0 -0.79863551827123203 -0.60181501223851219 0.5 0 0 1 I I -0.70710678118654746 0.70710678118654746 0.5 forward I I I I #
loop $-1 $-1 $102 $27 #
coedge $-1 $64 $64 $103 $104 reversed $40 $-1 #
face $-1 $105 $106 $22 $-1 $107 reversed single #
loop $-1 $-1 $108 $42 #
plane-surface $-1 -11.633209277384069 -23.334774233800736 0.2359548359671777 0 -0.79863551827123203 0.60181501223851219 1 0 0 forward_v I I I I #
coedge $-1 $109 $110 $111 $112 reversed $43 $-1 #
face $-1 $-1 $113 $23 $-1 $114 forward single #
loop $-1 $115 $116 $45 #
cone-surface $-1 -11.633209277384069 -18.998781857227769 0.71124709340332704 0 0.79863551827123203 -0.60181501223851219 0.5 0 0 1 I I -0.70710678118654746 0.70710678118654746 0.5 forward I I I I #
loop $-1 $-1 $117 $29 #
coedge $-1 $73 $73 $118 $119 reversed $46 $-1 #
face $-1 $120 $121 $18 $-1 $122 reversed single #
loop $-1 $-1 $123 $48 #
plane-surface $-1 0 -23.334774233800744 0 0 1 0 0 0 1 forward_v I I I I #
coedge $-1 $124 $125 $126 $127 forward $49 $-1 #
coedge $-1 $128 $51 $129 $130 forward $31 $-1 #
coedge $-1 $51 $128 $131 $132 forward $31 $-1 #
coedge $-1 $133 $134 $51 $81 reversed $135 $-1 #
edge $-1 $136 -23.334774233800744 $137 23.334774233800744 $80 $138 forward 7 unknown #
face $-1 $139 $140 $19 $-1 $141 reversed single #
loop $-1 $-1 $142 $52 #
plane-surface $-1 -34.142747618740515 -19.573077857061943 0 -1 0 0 0 0 1 forward_v I I I I #
coedge $-1 $143 $144 $145 $146 forward $53 $-1 #
coedge $-1 $147 $55 $148 $149 reversed $34 $-1 #
coedge $-1 $55 $147 $150 $151 reversed $34 $-1 #
coedge $-1 $152 $153 $55 $89 forward $154 $-1 #
edge $-1 $155 -5.0102787597859164 $156 5.0102787597859164 $88 $157 forward 7 unknown #
face $-1 $158 $159 $20 $-1 $160 reversed single #
loop $-1 $-1 $161 $56 #
plane-surface $-1 -1.5639070164836326 59.166478758811962 85.673685319767699 -1 0 0 0 0.79863551827123203 0.60181501223851219 forward_v I I I I #
coedge $-1 $162 $163 $164 $165 reversed $57 $-1 #
coedge $-1 $95 $59 $166 $167 reversed $37 $-1 #
coedge $-1 $59 $94 $162 $168 reversed $37 $-1 #
coedge $-1 $164 $169 $59 $97 forward $170 $-1 #
edge $-1 $171 6.2484651456052376 $172 9.8461761726119228 $96 $173 forward 7 unknown #
loop $-1 $-1 $103 $60 #
plane-surface $-1 -11.633209277384069 -4.7516606483946973 37.507913863874471 0 0.79863551827123203 0.60181501223851219 1 0 0 forward_v I I I I #
loop $-1 $-1 $174 $39 #
coedge $-1 $101 $101 $102 $175 reversed $61 $-1 #
coedge $-1 $102 $102 $101 $175 forward $63 $-1 #
coedge $-1 $103 $103 $64 $104 forward $98 $-1 #
edge $-1 $176 -6.9924690405088017e-016 $176 6.2831853071795996 $103 $177 forward 7 unknown #
face $-1 $178 $179 $22 $-1 $180 forward single #
loop $-1 $-1 $181 $65 #
plane-surface $-1 -21.702511538284504 -87.252913641007396 48.401726291860406 1 0 0 0 0.79863551827123203 -0.60181501223851219 forward_v I I I I #
coedge $-1 $182 $183 $184 $185 reversed $66 $-1 #
coedge $-1 $110 $68 $186 $187 reversed $43 $-1 #
coedge $-1 $68 $109 $182 $188 reversed $43 $-1 #
coedge $-1 $184 $189 $68 $112 forward $179 $-1 #
edge $-1 $190 20.291682586702954 $191 23.889393613709629 $111 $192 forward 7 unknown #
loop $-1 $-1 $118 $69 #
plane-surface $-1 -11.633209277384069 -23.334774233800736 0.2359548359671777 0 -0.79863551827123203 0.60181501223851219 1 0 0 forward_v I I I I #
loop $-1 $-1 $193 $45 #
coedge $-1 $116 $116 $117 $194 reversed $70 $-1 #
coedge $-1 $117 $117 $116 $194 forward $72 $-1 #
coedge $-1 $118 $118 $73 $119 forward $113 $-1 #
edge $-1 $195 -2.0167856967305989e-017 $195 6.2831853071796004 $118 $196 forward 7 unknown #
face $-1 $197 $198 $18 $-1 $199 reversed single #
loop $-1 $-1 $200 $74 #
plane-surface $-1 -40.017090365306558 0 0 1 0 0 0 0 -1 forward_v I I I I #
coedge $-1 $201 $131 $202 $203 forward $75 $-1 #
coedge $-1 $204 $77 $201 $205 forward $49 $-1 #
coedge $-1 $77 $204 $206 $207 forward $49 $-1 #
coedge $-1 $134 $133 $77 $127 reversed $135 $-1 #
edge $-1 $208 -23.334774233800744 $209 23.334774233800744 $126 $210 forward 7 unknown #
coedge $-1 $79 $78 $211 $212 forward $31 $-1 #
coedge $-1 $213 $214 $78 $130 reversed $198 $-1 #
edge $-1 $137 -40.017090365306558 $215 40.017090365306558 $129 $216 forward 7 unknown #
coedge $-1 $123 $217 $79 $132 reversed $75 $-1 #
edge $-1 $218 -40.017090365306558 $136 40.017090365306558 $131 $219 forward 7 unknown #
coedge $-1 $126 $80 $217 $220 forward $135 $-1 #
coedge $-1 $80 $126 $213 $221 reversed $135 $-1 #
loop $-1 $-1 $133 $197 #
vertex $-1 $81 $222 #
vertex $-1 $81 $223 #
straight-curve $-1 40.017090365306558 0 5.0102787597859164 0 1 0 I I #
face $-1 $224 $225 $19 $-1 $226 forward single #
loop $-1 $-1 $227 $82 #
plane-surface $-1 0 0 -5.0102787597859164 0 0 1 1 0 0 forward_v I I I I #
coedge $-1 $228 $229 $147 $230 forward $83 $-1 #
coedge $-1 $231 $85 $227 $232 reversed $53 $-1 #
coedge $-1 $85 $231 $233 $234 reversed $53 $-1 #
coedge $-1 $229 $228 $85 $146 reversed $83 $-1 #
edge $-1 $235 -5.0102787597859164 $236 5.0102787597859164 $145 $237 forward 7 unknown #
coedge $-1 $87 $86 $142 $230 reversed $34 $-1 #
coedge $-1 $238 $239 $86 $149 forward $140 $-1 #
edge $-1 $240 15.602788122728747 $155 21.47713086929479 $148 $241 forward 7 unknown #
coedge $-1 $242 $243 $87 $151 forward $225 $-1 #
edge $-1 $156 -21.47713086929479 $244 -15.602788122728747 $150 $245 forward 7 unknown #
coedge $-1 $246 $88 $243 $247 reversed $154 $-1 #
coedge $-1 $88 $246 $238 $248 reversed $154 $-1 #
loop $-1 $-1 $246 $224 #
vertex $-1 $248 $249 #
vertex $-1 $89 $250 #
straight-curve $-1 -40.017090365306558 -21.073077857061943 0 0 0 1 I I #
face $-1 $-1 $170 $20 $-1 $251 forward single #
loop $-1 $-1 $252 $90 #
plane-surface $-1 0 23.334774233800744 0 0 -1 0 0 0 -1 forward_v I I I I #
coedge $-1 $253 $254 $255 $256 reversed $91 $-1 #
coedge $-1 $257 $93 $95 $168 forward $57 $-1 #
coedge $-1 $93 $257 $253 $258 forward $57 $-1 #
coedge $-1 $255 $96 $93 $165 forward $170 $-1 #
edge $-1 $172 -15.88590689959247 $259 4.2526976222084016 $164 $260 forward 7 unknown #
coedge $-1 $261 $262 $94 $167 forward $159 $-1 #
edge $-1 $263 -42.600887823916693 $171 -37.826563900097931 $166 $264 forward 7 unknown #
edge $-1 $172 40.691447300559112 $263 46.669548467601516 $95 $265 forward 7 unknown #
coedge $-1 $96 $255 $261 $266 forward $170 $-1 #
loop $-1 $-1 $255 $158 #
vertex $-1 $167 $267 #
vertex $-1 $97 $268 #
straight-curve $-1 -21.702511538284504 29.583239379405981 5.0102787597859191 0 -1 0 I I #
coedge $-1 $174 $174 $-1 $269 reversed $100 $-1 #
edge $-1 $270 0 $270 6.2831853071796004 $101 $271 forward 7 unknown #
vertex $-1 $104 $272 #
ellipse-curve $-1 -11.633209277384069 21.53591872029741 2.623116797876536 0 0.79863551827123203 0.60181501223851219 1 0 0 1 I I #
face $-1 $-1 $273 $22 $-1 $274 reversed single #
loop $-1 $-1 $111 $105 #
plane-surface $-1 0 0 5.0102787597859164 0 0 1 1 0 0 forward_v I I I I #
coedge $-1 $275 $276 $277 $278 reversed $106 $-1 #
coedge $-1 $279 $108 $110 $188 forward $66 $-1 #
coedge $-1 $108 $279 $275 $280 forward $66 $-1 #
coedge $-1 $277 $111 $108 $185 forward $179 $-1 #
edge $-1 $191 -4.2526976222084016 $281 15.88590689959247 $184 $282 forward 7 unknown #
coedge $-1 $283 $284 $109 $187 forward $273 $-1 #
edge $-1 $285 -23.964908309963036 $190 -19.190584386144288 $186 $286 forward 7 unknown #
edge $-1 $191 -5.978101167042368 $285 1.1812792947853924e-014 $110 $287 forward 7 unknown #
coedge $-1 $111 $277 $283 $288 forward $179 $-1 #
vertex $-1 $187 $289 #
vertex $-1 $112 $290 #
straight-curve $-1 -1.5639070164836326 -43.626456820503698 5.0102787597859155 0 1 0 I I #
coedge $-1 $193 $193 $-1 $291 reversed $115 $-1 #
edge $-1 $292 0 $292 6.2831853071796004 $116 $293 forward 7 unknown #
vertex $-1 $119 $294 #
ellipse-curve $-1 -11.633209277384069 -21.535918720297406 2.6231167978765431 0 -0.79863551827123203 0.60181501223851219 1 0 0 1 I I #
face $-1 $-1 $135 $18 $-1 $295 reversed single #
loop $-1 $-1 $213 $120 #
plane-surface $-1 0 23.334774233800744 0 0 -1 0 0 0 -1 forward_v I I I I #
coedge $-1 $296 $211 $214 $297 forward $121 $-1 #
coedge $-1 $217 $123 $124 $205 reversed $75 $-1 #
coedge $-1 $211 $296 $123 $203 reversed $121 $-1 #
edge $-1 $218 -5.0102787597859164 $298 5.0102787597859164 $202 $299 forward 7 unknown #
coedge $-1 $125 $124 $296 $300 forward $49 $-1 #
edge $-1 $209 -40.017090365306558 $298 40.017090365306558 $201 $301 forward 7 unknown #
coedge $-1 $214 $213 $125 $207 reversed $198 $-1 #
edge $-1 $302 -40.017090365306558 $208 40.017090365306558 $206 $303 forward 7 unknown #
vertex $-1 $127 $304 #
vertex $-1 $220 $305 #
straight-curve $-1 40.017090365306558 0 -5.0102787597859164 0 -1 0 I I #
coedge $-1 $200 $202 $128 $212 reversed $121 $-1 #
edge $-1 $215 -23.334774233800744 $218 23.334774233800744 $211 $306 forward 7 unknown #
coedge $-1 $206 $129 $134 $221 forward $198 $-1 #
coedge $-1 $129 $206 $200 $297 reversed $198 $-1 #
vertex $-1 $130 $307 #
straight-curve $-1 0 23.334774233800744 5.0102787597859164 -1 0 0 I I #
coedge $-1 $131 $201 $133 $220 reversed $75 $-1 #
vertex $-1 $212 $308 #
straight-curve $-1 0 -23.334774233800744 5.0102787597859164 1 0 0 I I #
edge $-1 $136 -5.0102787597859164 $209 5.0102787597859164 $133 $309 forward 7 unknown #
edge $-1 $137 -5.0102787597859164 $208 5.0102787597859164 $134 $310 forward 7 unknown #
point $-1 40.017090365306558 -23.334774233800744 5.0102787597859164 #
point $-1 40.017090365306558 23.334774233800744 5.0102787597859164 #
face $-1 $-1 $154 $19 $-1 $311 reversed single #
loop $-1 $-1 $233 $139 #
plane-surface $-1 0 0 5.0102787597859164 0 0 1 1 0 0 forward_v I I I I #
coedge $-1 $239 $238 $143 $232 forward $140 $-1 #
coedge $-1 $145 $142 $239 $312 reversed $83 $-1 #
coedge $-1 $142 $145 $242 $313 reversed $83 $-1 #
edge $-1 $244 -5.0102787597859164 $240 5.0102787597859164 $142 $314 forward 7 unknown #
coedge $-1 $144 $143 $246 $315 reversed $53 $-1 #
edge $-1 $316 -21.47713086929479 $236 -15.602788122728747 $227 $317 forward 7 unknown #
coedge $-1 $243 $242 $144 $234 forward $225 $-1 #
edge $-1 $235 15.602788122728747 $318 21.47713086929479 $233 $319 forward 7 unknown #
vertex $-1 $234 $320 #
vertex $-1 $232 $321 #
straight-curve $-1 -34.142747618740515 -18.073077857061943 0 0 0 -1 I I #
coedge $-1 $227 $148 $153 $248 forward $140 $-1 #
coedge $-1 $148 $227 $228 $312 forward $140 $-1 #
vertex $-1 $149 $322 #
straight-curve $-1 -18.539959496011768 -21.073077857061943 -5.0102787597859164 -1 0 0 I I #
coedge $-1 $233 $150 $229 $313 forward $225 $-1 #
coedge $-1 $150 $233 $152 $247 forward $225 $-1 #
vertex $-1 $151 $323 #
straight-curve $-1 -18.539959496011768 -21.073077857061943 5.0102787597859164 1 0 0 I I #
coedge $-1 $153 $152 $231 $315 forward $154 $-1 #
edge $-1 $318 18.073077857061943 $156 21.073077857061943 $152 $324 forward 7 unknown #
edge $-1 $155 -21.073077857061943 $316 -18.073077857061943 $153 $325 forward 7 unknown #
point $-1 -40.017090365306558 -21.073077857061943 -5.0102787597859164 #
point $-1 -40.017090365306558 -21.073077857061943 5.0102787597859164 #
plane-surface $-1 0 0 5.0102787597859164 0 0 1 1 0 0 forward_v I I I I #
coedge $-1 $262 $261 $254 $326 forward $159 $-1 #
coedge $-1 $254 $161 $163 $258 reversed $91 $-1 #
coedge $-1 $161 $253 $252 $326 reversed $91 $-1 #
coedge $-1 $169 $164 $161 $256 forward $170 $-1 #
edge $-1 $259 -9.8461761726119228 $327 -6.2484651456052376 $255 $328 forward 7 unknown #
coedge $-1 $163 $162 $262 $329 reversed $57 $-1 #
edge $-1 $330 -46.669548467601516 $259 -40.691447300559112 $253 $331 forward 7 unknown #
vertex $-1 $165 $332 #
straight-curve $-1 -5.8166046386920343 19.737063206794062 5.0102787597859191 1 0 0 I I #
coedge $-1 $252 $166 $169 $266 reversed $159 $-1 #
coedge $-1 $166 $252 $257 $329 forward $159 $-1 #
vertex $-1 $167 $333 #
straight-curve $-1 -21.702511538284504 23.334774233800744 42.83684265988385 0 0 1 I I #
straight-curve $-1 -21.702511538284504 -4.7516606483946973 37.507913863874471 0 0.60181501223851219 -0.79863551827123203 I I #
edge $-1 $327 1.5639070164836326 $171 21.702511538284504 $261 $334 forward 7 unknown #
point $-1 -21.702511538284504 23.334774233800744 5.0102787597859164 #
point $-1 -21.702511538284504 19.737063206794058 5.0102787597859191 #
edge $-1 $335 1 $335 0 $174 $-1 forward 7 unknown #
vertex $-1 $175 $336 #
ellipse-curve $-1 -11.633209277384069 19.398099616363385 1.0121545995225742 0 0.79863551827123203 0.60181501223851219 1 0 0 1 I I #
point $-1 -10.633209277384069 21.535918720297413 2.6231167978765395 #
loop $-1 $-1 $186 $178 #
plane-surface $-1 0 -23.334774233800744 0 0 1 0 0 0 1 forward_v I I I I #
coedge $-1 $276 $181 $183 $280 reversed $106 $-1 #
coedge $-1 $181 $275 $337 $338 reversed $106 $-1 #
coedge $-1 $189 $184 $181 $278 forward $179 $-1 #
edge $-1 $281 -23.889393613709629 $339 -20.291682586702954 $277 $340 forward 7 unknown #
coedge $-1 $183 $182 $284 $341 reversed $66 $-1 #
edge $-1 $342 -1.1812792947853924e-014 $281 5.978101167042368 $275 $343 forward 7 unknown #
vertex $-1 $185 $344 #
straight-curve $-1 -5.8166046386920343 -19.737063206794069 5.0102787597859164 -1 0 0 I I #
coedge $-1 $337 $186 $189 $288 reversed $273 $-1 #
coedge $-1 $186 $337 $279 $341 forward $273 $-1 #
vertex $-1 $187 $345 #
straight-curve $-1 -1.5639070164836326 -23.334774233800744 24.200863145930203 0 0 1 I I #
straight-curve $-1 -1.5639070164836326 -23.334774233800736 0.2359548359671777 0 -0.60181501223851219 -0.79863551827123203 I I #
edge $-1 $339 -21.702511538284504 $190 -1.5639070164836326 $283 $346 forward 7 unknown #
point $-1 -1.5639070164836326 -23.334774233800744 5.0102787597859164 #
point $-1 -1.5639070164836326 -19.737063206794069 5.0102787597859164 #
edge $-1 $347 1 $347 0 $193 $-1 forward 7 unknown #
vertex $-1 $194 $348 #
ellipse-curve $-1 -11.633209277384069 -19.398099616363385 1.0121545995225831 0 -0.79863551827123203 0.60181501223851219 1 0 0 1 I I #
point $-1 -10.633209277384069 -21.535918720297413 2.6231167978765484 #
plane-surface $-1 40.017090365306558 0 0 -1 0 0 0 0 1 forward_v I I I I #
coedge $-1 $202 $200 $204 $300 reversed $121 $-1 #
edge $-1 $215 -5.0102787597859164 $302 5.0102787597859164 $214 $349 forward 7 unknown #
vertex $-1 $300 $350 #
straight-curve $-1 -40.017090365306558 -23.334774233800744 0 0 0 -1 I I #
edge $-1 $298 -23.334774233800744 $302 23.334774233800744 $296 $351 forward 7 unknown #
straight-curve $-1 0 -23.334774233800744 -5.0102787597859164 -1 0 0 I I #
vertex $-1 $207 $352 #
straight-curve $-1 0 23.334774233800744 -5.0102787597859164 1 0 0 I I #
point $-1 40.017090365306558 23.334774233800744 -5.0102787597859164 #
point $-1 40.017090365306558 -23.334774233800744 -5.0102787597859164 #
straight-curve $-1 -40.017090365306558 0 5.0102787597859164 0 -1 0 I I #
point $-1 -40.017090365306558 23.334774233800744 5.0102787597859164 #
point $-1 -40.017090365306558 -23.334774233800744 5.0102787597859164 #
straight-curve $-1 40.017090365306558 -23.334774233800744 0 0 0 -1 I I #
straight-curve $-1 40.017090365306558 23.334774233800744 0 0 0 -1 I I #
plane-surface $-1 -40.017090365306558 0 0 1 0 0 0 0 -1 forward_v I I I I #
edge $-1 $236 8.2865389285309714 $240 11.286538928530971 $239 $353 forward 7 unknown #
edge $-1 $244 -11.286538928530971 $235 -8.2865389285309714 $242 $354 forward 7 unknown #
straight-curve $-1 -34.142747618740515 -21.073077857061943 0 0 0 -1 I I #
edge $-1 $318 -5.0102787597859164 $316 5.0102787597859164 $246 $355 forward 7 unknown #
vertex $-1 $315 $356 #
straight-curve $-1 -18.539959496011768 -18.073077857061943 -5.0102787597859164 1 0 0 I I #
vertex $-1 $247 $357 #
straight-curve $-1 -18.539959496011768 -18.073077857061943 5.0102787597859164 -1 0 0 I I #
point $-1 -34.142747618740515 -18.073077857061943 5.0102787597859164 #
point $-1 -34.142747618740515 -18.073077857061943 -5.0102787597859164 #
point $-1 -34.142747618740515 -21.073077857061943 -5.0102787597859164 #
point $-1 -34.142747618740515 -21.073077857061943 5.0102787597859164 #
straight-curve $-1 -40.017090365306558 0 5.0102787597859164 0 -1 0 I I #
straight-curve $-1 -40.017090365306558 0 -5.0102787597859164 0 1 0 I I #
edge $-1 $327 37.826563900097931 $330 42.600887823916693 $252 $358 forward 7 unknown #
vertex $-1 $266 $359 #
straight-curve $-1 -1.5639070164836326 29.583239379405981 5.0102787597859191 0 1 0 I I #
edge $-1 $330 -4.2526976222084016 $263 15.88590689959247 $262 $360 forward 7 unknown #
vertex $-1 $329 $361 #
straight-curve $-1 -1.5639070164836326 -4.7516606483946973 37.507913863874471 0 -0.60181501223851219 0.79863551827123203 I I #
point $-1 -1.5639070164836326 19.737063206794058 5.0102787597859191 #
point $-1 -21.702511538284504 23.334774233800744 0.23595483596715638 #
straight-curve $-1 0 23.334774233800744 5.0102787597859164 -1 0 0 I I #
vertex $-1 $269 $362 #
point $-1 -10.633209277384069 19.398099616363385 1.0121545995225742 #
coedge $-1 $284 $283 $276 $338 forward $273 $-1 #
edge $-1 $339 19.190584386144288 $342 23.964908309963036 $337 $363 forward 7 unknown #
vertex $-1 $288 $364 #
straight-curve $-1 -21.702511538284504 -43.626456820503698 5.0102787597859155 0 -1 0 I I #
edge $-1 $342 -15.88590689959247 $285 4.2526976222084016 $284 $365 forward 7 unknown #
vertex $-1 $341 $366 #
straight-curve $-1 -21.702511538284504 -23.334774233800736 0.2359548359671777 0 0.60181501223851219 0.79863551827123203 I I #
point $-1 -21.702511538284504 -19.737063206794069 5.0102787597859164 #
point $-1 -1.5639070164836326 -23.334774233800744 0.23595483596716826 #
straight-curve $-1 0 -23.334774233800744 5.0102787597859164 1 0 0 I I #
vertex $-1 $291 $367 #
point $-1 -10.633209277384069 -19.398099616363385 1.0121545995225831 #
straight-curve $-1 -40.017090365306558 23.334774233800744 0 0 0 -1 I I #
point $-1 -40.017090365306558 -23.334774233800744 -5.0102787597859164 #
straight-curve $-1 -40.017090365306558 0 -5.0102787597859164 0 1 0 I I #
point $-1 -40.017090365306558 23.334774233800744 -5.0102787597859164 #
straight-curve $-1 -34.142747618740515 -9.7865389285309714 -5.0102787597859164 0 -1 0 I I #
straight-curve $-1 -34.142747618740515 -9.7865389285309714 5.0102787597859164 0 1 0 I I #
straight-curve $-1 -40.017090365306558 -18.073077857061943 0 0 0 -1 I I #
point $-1 -40.017090365306558 -18.073077857061943 -5.0102787597859164 #
point $-1 -40.017090365306558 -18.073077857061943 5.0102787597859164 #
straight-curve $-1 -1.5639070164836326 23.334774233800744 42.83684265988385 0 0 -1 I I #
point $-1 -1.5639070164836326 23.334774233800744 5.0102787597859164 #
straight-curve $-1 -5.8166046386920343 23.334774233800744 0.23595483596715283 -1 0 0 I I #
point $-1 -1.5639070164836326 23.334774233800744 0.23595483596715638 #
point $-1 -11.633209277384069 18.599464098092152 0.41033958728406206 #
straight-curve $-1 -21.702511538284504 -23.334774233800744 24.200863145930203 0 0 -1 I I #
point $-1 -21.702511538284504 -23.334774233800744 5.0102787597859164 #
straight-curve $-1 -5.8166046386920343 -23.334774233800744 0.23595483596716738 1 0 0 I I #
point $-1 -21.702511538284504 -23.334774233800744 0.23595483596716826 #
point $-1 -11.633209277384069 -18.599464098092152 0.41033958728407094 #
End-of-ACIS-data 