600 0 7 0           
107 GICL ACIS Healer - Source: /gicl/data5/repository/Drexel/CICIRELLO-THESISDATA/Part1001.smdg.delta.sat - 6 0 18 ACIS 6.0.3 Solaris 24 Fri Apr 12 10:22:28 2002 
1 9.999999999999999547e-07 1.000000000000000036e-10 
body $-1 $7 $-1 $-1 #
body $-1 $8 $-1 $-1 #
body $-1 $9 $-1 $-1 #
body $-1 $10 $-1 $-1 #
body $-1 $11 $-1 $-1 #
body $-1 $12 $-1 $-1 #
body $-1 $13 $-1 $-1 #
lump $-1 $-1 $14 $0 #
lump $-1 $-1 $15 $1 #
lump $-1 $-1 $16 $2 #
lump $-1 $-1 $17 $3 #
lump $-1 $-1 $18 $4 #
lump $-1 $-1 $19 $5 #
lump $-1 $-1 $20 $6 #
shell $-1 $-1 $-1 $21 $-1 $7 #
shell $-1 $-1 $-1 $22 $-1 $8 #
shell $-1 $-1 $-1 $23 $-1 $9 #
shell $-1 $-1 $-1 $24 $-1 $10 #
shell $-1 $-1 $-1 $25 $-1 $11 #
shell $-1 $-1 $-1 $26 $-1 $12 #
shell $-1 $-1 $-1 $27 $-1 $13 #
face $-1 $28 $29 $14 $-1 $30 forward single #
face $-1 $31 $32 $15 $-1 $33 forward single #
face $-1 $34 $35 $16 $-1 $36 forward single #
face $-1 $37 $38 $17 $-1 $39 reversed single #
face $-1 $40 $41 $18 $-1 $42 forward single #
face $-1 $43 $44 $19 $-1 $45 forward single #
face $-1 $46 $47 $20 $-1 $48 forward single #
face $-1 $49 $50 $14 $-1 $51 reversed single #
loop $-1 $-1 $52 $21 #
plane-surface $-1 43.09823908200323217 28.12677339473219718 22.69421248099028787 0 0 1 1 0 0 forward_v I I I I #
face $-1 $53 $54 $15 $-1 $55 forward single #
loop $-1 $-1 $56 $22 #
plane-surface $-1 43.09823908200323217 0 11.34710624049514394 0 1 0 0 0 1 forward_v I I I I #
face $-1 $57 $58 $16 $-1 $59 reversed single #
loop $-1 $-1 $60 $23 #
plane-surface $-1 43.09823908200323217 51.52518299734976637 4.827155551079147955 0 0 1 1 0 0 forward_v I I I I #
face $-1 $61 $62 $17 $-1 $63 reversed single #
loop $-1 $-1 $64 $24 #
plane-surface $-1 -71.46011971583502032 29.41192557602968094 63.00389325868538748 0 -1 0 0.8290375806290775085 0 -0.5591928915004963363 forward_v I I I I #
face $-1 $65 $66 $18 $-1 $67 forward single #
loop $-1 $68 $69 $25 #
cone-surface $-1 4.246064833992150511 20.71890639338960582 17.6798178560423267 0.8290375806290775085 0 -0.5591928915004963363 0.5591928915004963363 0 0.8290375806290775085 1 I I 0 1 1 forward I I I I #
face $-1 $70 $71 $19 $-1 $72 forward single #
loop $-1 $73 $74 $26 #
cone-surface $-1 4.246064833992150511 23.97878858687963444 17.6798178560423267 0.8290375806290775085 0 -0.5591928915004963363 0.5591928915004963363 0 0.8290375806290775085 1 I I 0 1 1 forward I I I I #
face $-1 $75 $76 $20 $-1 $77 forward single #
loop $-1 $78 $79 $27 #
cone-surface $-1 4.246064833992150511 27.23867078036966305 17.6798178560423267 0.8290375806290775085 0 -0.5591928915004963363 0.5591928915004963363 0 0.8290375806290775085 1 I I 0 1 1 forward I I I I #
face $-1 $80 $81 $14 $-1 $82 reversed single #
loop $-1 $-1 $83 $28 #
plane-surface $-1 43.09823908200323217 28.12677339473219718 0 0 0 1 1 0 0 forward_v I I I I #
coedge $-1 $84 $85 $86 $87 forward $29 $-1 #
face $-1 $88 $89 $15 $-1 $90 reversed single #
loop $-1 $-1 $91 $31 #
plane-surface $-1 43.09823908200323217 28.12677339473219718 22.69421248099028787 0 0 1 1 0 0 forward_v I I I I #
coedge $-1 $92 $93 $94 $95 forward $32 $-1 #
face $-1 $96 $97 $16 $-1 $98 reversed single #
loop $-1 $-1 $99 $34 #
plane-surface $-1 43.09823908200323217 51.52518299734976637 1.827155551079147955 0 0 1 1 0 0 forward_v I I I I #
coedge $-1 $100 $101 $102 $103 reversed $35 $-1 #
face $-1 $104 $105 $17 $-1 $106 reversed single #
loop $-1 $-1 $107 $37 #
plane-surface $-1 1.421085471520200372e-14 23.97878858687963444 14.80343539699521926 -0.8290375806290775085 0 0.5591928915004963363 0.5591928915004963363 0 0.8290375806290775085 forward_v I I I I #
coedge $-1 $108 $109 $110 $111 reversed $38 $-1 #
face $-1 $-1 $112 $18 $-1 $113 forward single #
loop $-1 $114 $115 $40 #
cone-surface $-1 6.245450367352916032 20.71890639338960582 16.3312153273416456 0.8290375806290775085 0 -0.5591928915004963363 0.2795964457502481681 0 0.4145187903145387542 1 I I -0.7071067811865474617 0.7071067811865474617 0.5 forward I I I I #
loop $-1 $-1 $116 $25 #
coedge $-1 $69 $69 $117 $118 reversed $41 $-1 #
face $-1 $-1 $119 $19 $-1 $120 forward single #
loop $-1 $121 $122 $43 #
cone-surface $-1 6.245450367352916032 23.97878858687963444 16.3312153273416456 0.8290375806290775085 0 -0.5591928915004963363 0.2795964457502481681 0 0.4145187903145387542 1 I I -0.7071067811865474617 0.7071067811865474617 0.5 forward I I I I #
loop $-1 $-1 $123 $26 #
coedge $-1 $74 $74 $124 $125 reversed $44 $-1 #
face $-1 $-1 $126 $20 $-1 $127 forward single #
loop $-1 $128 $129 $46 #
cone-surface $-1 6.245450367352916032 27.23867078036966305 16.3312153273416456 0.8290375806290775085 0 -0.5591928915004963363 0.2795964457502481681 0 0.4145187903145387542 1 I I -0.7071067811865474617 0.7071067811865474617 0.5 forward I I I I #
loop $-1 $-1 $130 $27 #
coedge $-1 $79 $79 $131 $132 reversed $47 $-1 #
face $-1 $133 $134 $14 $-1 $135 reversed single #
loop $-1 $-1 $136 $49 #
plane-surface $-1 43.09823908200323217 0 11.34710624049514394 0 1 0 0 0 1 forward_v I I I I #
coedge $-1 $137 $138 $139 $140 forward $50 $-1 #
coedge $-1 $141 $52 $142 $143 forward $29 $-1 #
coedge $-1 $52 $141 $144 $145 forward $29 $-1 #
coedge $-1 $146 $147 $52 $87 reversed $148 $-1 #
edge $-1 $149 -28.12677339473219718 $150 28.12677339473219718 $86 $151 forward 7 unknown #
face $-1 $152 $153 $15 $-1 $154 reversed single #
loop $-1 $-1 $155 $53 #
plane-surface $-1 0 28.12677339473219718 11.34710624049514394 1 0 0 0 0 -1 forward_v I I I I #
coedge $-1 $156 $157 $93 $158 forward $54 $-1 #
coedge $-1 $159 $56 $160 $161 reversed $32 $-1 #
coedge $-1 $56 $159 $91 $158 reversed $32 $-1 #
coedge $-1 $162 $163 $56 $95 reversed $164 $-1 #
edge $-1 $165 -11.34710624049514394 $166 11.34710624049514394 $94 $167 forward 7 unknown #
face $-1 $168 $169 $16 $-1 $170 reversed single #
loop $-1 $-1 $171 $57 #
plane-surface $-1 43.09823908200323217 46.79681920523513838 3.327155551079147955 0 1 0 0 0 1 forward_v I I I I #
coedge $-1 $172 $173 $174 $175 reversed $58 $-1 #
coedge $-1 $176 $60 $177 $178 reversed $35 $-1 #
coedge $-1 $60 $176 $179 $180 forward $35 $-1 #
coedge $-1 $181 $182 $60 $103 forward $183 $-1 #
edge $-1 $184 -16.42756859342341613 $185 -6.970841009194160165 $102 $186 forward 7 unknown #
face $-1 $187 $188 $17 $-1 $189 reversed single #
loop $-1 $-1 $190 $61 #
plane-surface $-1 -71.46011971583502032 18.54565159772958793 63.00389325868538748 0 1 0 -0.8290375806290775085 0 0.5591928915004963363 forward_v I I I I #
coedge $-1 $191 $192 $193 $194 reversed $62 $-1 #
coedge $-1 $109 $64 $195 $196 reversed $38 $-1 #
coedge $-1 $64 $108 $191 $197 reversed $38 $-1 #
coedge $-1 $193 $198 $64 $111 forward $188 $-1 #
edge $-1 $199 14.48128726859997784 $200 22.37206435259506776 $110 $201 forward 7 unknown #
loop $-1 $-1 $117 $65 #
plane-surface $-1 1.421085471520200372e-14 23.97878858687963444 14.80343539699521926 -0.8290375806290775085 0 0.5591928915004963363 0.5591928915004963363 0 0.8290375806290775085 forward_v I I I I #
loop $-1 $-1 $202 $40 #
coedge $-1 $115 $115 $116 $203 reversed $66 $-1 #
coedge $-1 $116 $116 $115 $203 forward $68 $-1 #
coedge $-1 $117 $117 $69 $118 forward $112 $-1 #
edge $-1 $204 0 $204 6.283185307179586232 $117 $205 forward 7 unknown #
loop $-1 $-1 $124 $70 #
plane-surface $-1 1.421085471520200372e-14 23.97878858687963444 14.80343539699521926 -0.8290375806290775085 0 0.5591928915004963363 0.5591928915004963363 0 0.8290375806290775085 forward_v I I I I #
loop $-1 $-1 $206 $43 #
coedge $-1 $122 $122 $123 $207 reversed $71 $-1 #
coedge $-1 $123 $123 $122 $207 forward $73 $-1 #
coedge $-1 $124 $124 $74 $125 forward $119 $-1 #
edge $-1 $208 0 $208 6.283185307179586232 $124 $209 forward 7 unknown #
loop $-1 $-1 $131 $75 #
plane-surface $-1 1.421085471520200372e-14 23.97878858687963444 14.80343539699521926 -0.8290375806290775085 0 0.5591928915004963363 0.5591928915004963363 0 0.8290375806290775085 forward_v I I I I #
loop $-1 $-1 $210 $46 #
coedge $-1 $129 $129 $130 $211 reversed $76 $-1 #
coedge $-1 $130 $130 $129 $211 forward $78 $-1 #
coedge $-1 $131 $131 $79 $132 forward $126 $-1 #
edge $-1 $212 0 $212 6.283185307179586232 $131 $213 forward 7 unknown #
face $-1 $214 $215 $14 $-1 $216 reversed single #
loop $-1 $-1 $217 $80 #
plane-surface $-1 0 28.12677339473219718 11.34710624049514394 1 0 0 0 0 -1 forward_v I I I I #
coedge $-1 $218 $144 $219 $220 forward $81 $-1 #
coedge $-1 $221 $83 $218 $222 forward $50 $-1 #
coedge $-1 $83 $221 $223 $224 forward $50 $-1 #
coedge $-1 $147 $146 $83 $140 reversed $148 $-1 #
edge $-1 $225 -28.12677339473219718 $226 28.12677339473219718 $139 $227 forward 7 unknown #
coedge $-1 $85 $84 $228 $229 forward $29 $-1 #
coedge $-1 $230 $231 $84 $143 reversed $215 $-1 #
edge $-1 $150 -43.09823908200323217 $232 43.09823908200323217 $142 $233 forward 7 unknown #
coedge $-1 $136 $234 $85 $145 reversed $81 $-1 #
edge $-1 $235 -43.09823908200323217 $149 43.09823908200323217 $144 $236 forward 7 unknown #
coedge $-1 $139 $86 $234 $237 forward $148 $-1 #
coedge $-1 $86 $139 $230 $238 reversed $148 $-1 #
loop $-1 $-1 $146 $214 #
vertex $-1 $87 $239 #
vertex $-1 $87 $240 #
straight-curve $-1 86.19647816400646434 28.12677339473219718 22.69421248099028787 0 1 0 I I #
face $-1 $241 $164 $15 $-1 $242 reversed single #
loop $-1 $-1 $243 $88 #
plane-surface $-1 1.5 -7.898662233743678485 11.34710624049514394 0 1 0 0 0 1 forward_v I I I I #
coedge $-1 $244 $245 $159 $246 forward $89 $-1 #
coedge $-1 $247 $91 $245 $248 forward $54 $-1 #
coedge $-1 $91 $247 $162 $249 forward $54 $-1 #
edge $-1 $165 40.09823908200323217 $250 43.09823908200323217 $91 $251 forward 7 unknown #
coedge $-1 $93 $92 $155 $246 reversed $32 $-1 #
coedge $-1 $252 $253 $92 $161 forward $254 $-1 #
edge $-1 $255 -43.09823908200323217 $166 -40.09823908200323217 $160 $256 forward 7 unknown #
coedge $-1 $257 $94 $157 $249 reversed $164 $-1 #
coedge $-1 $94 $257 $252 $258 reversed $164 $-1 #
loop $-1 $-1 $257 $152 #
vertex $-1 $158 $259 #
vertex $-1 $258 $260 #
straight-curve $-1 3 0 11.34710624049514394 0 0 -1 I I #
face $-1 $261 $183 $16 $-1 $262 reversed single #
loop $-1 $-1 $263 $96 #
plane-surface $-1 0 28.12677339473219718 11.34710624049514394 1 0 0 0 0 -1 forward_v I I I I #
coedge $-1 $264 $179 $265 $266 reversed $97 $-1 #
coedge $-1 $267 $99 $264 $268 forward $58 $-1 #
coedge $-1 $99 $267 $269 $270 reversed $58 $-1 #
coedge $-1 $182 $181 $99 $175 forward $183 $-1 #
edge $-1 $271 6.970841009194160165 $272 16.42756859342341613 $174 $273 forward 7 unknown #
coedge $-1 $101 $100 $274 $275 reversed $35 $-1 #
coedge $-1 $276 $277 $100 $178 forward $278 $-1 #
edge $-1 $279 -43.09823908200323217 $184 43.09823908200323217 $177 $280 forward 7 unknown #
coedge $-1 $171 $281 $101 $180 reversed $97 $-1 #
edge $-1 $282 -43.09823908200323217 $185 43.09823908200323217 $179 $283 forward 7 unknown #
coedge $-1 $174 $102 $281 $284 forward $183 $-1 #
coedge $-1 $102 $174 $276 $285 reversed $183 $-1 #
loop $-1 $-1 $102 $168 #
vertex $-1 $285 $286 #
vertex $-1 $103 $287 #
straight-curve $-1 86.19647816400646434 39.82597819604097822 4.827155551079147955 0 -1 0 I I #
face $-1 $-1 $288 $17 $-1 $289 forward single #
loop $-1 $-1 $110 $104 #
plane-surface $-1 0 28.12677339473219718 11.34710624049514394 1 0 0 0 0 -1 forward_v I I I I #
coedge $-1 $290 $291 $292 $293 reversed $105 $-1 #
coedge $-1 $294 $107 $109 $197 forward $62 $-1 #
coedge $-1 $107 $294 $290 $295 forward $62 $-1 #
coedge $-1 $292 $110 $107 $194 forward $188 $-1 #
edge $-1 $200 -3.35914458522376691 $296 7.507129393076326096 $193 $297 forward 7 unknown #
coedge $-1 $298 $299 $108 $196 forward $288 $-1 #
edge $-1 $300 -19.50333649880775511 $199 -14.18094031691589407 $195 $301 forward 7 unknown #
edge $-1 $200 -2.5618607856530852e-14 $300 9.517996853661943035 $109 $302 forward 7 unknown #
coedge $-1 $110 $292 $298 $303 reversed $188 $-1 #
vertex $-1 $303 $304 #
vertex $-1 $111 $305 #
straight-curve $-1 0 29.41192557602968094 37.17549974959026571 0 0 -1 I I #
coedge $-1 $202 $202 $-1 $306 reversed $114 $-1 #
edge $-1 $307 0 $307 6.283185307179586232 $115 $308 forward 7 unknown #
vertex $-1 $118 $309 #
ellipse-curve $-1 2.661198090945937622 20.71890639338960582 18.74882393899275002 -0.8290375806290775085 0 0.5591928915004963363 0.5591928915004963363 0 0.8290375806290775085 1 I I #
coedge $-1 $206 $206 $-1 $310 reversed $121 $-1 #
edge $-1 $311 0 $311 6.283185307179586232 $122 $312 forward 7 unknown #
vertex $-1 $125 $313 #
ellipse-curve $-1 2.661198090945937622 23.97878858687963444 18.74882393899275002 -0.8290375806290775085 0 0.5591928915004963363 0.5591928915004963363 0 0.8290375806290775085 1 I I #
coedge $-1 $210 $210 $-1 $314 reversed $128 $-1 #
edge $-1 $315 0 $315 6.283185307179586232 $129 $316 forward 7 unknown #
vertex $-1 $132 $317 #
ellipse-curve $-1 2.661198090945937622 27.23867078036966305 18.74882393899275002 -0.8290375806290775085 0 0.5591928915004963363 0.5591928915004963363 0 0.8290375806290775085 1 I I #
face $-1 $-1 $148 $14 $-1 $318 reversed single #
loop $-1 $-1 $230 $133 #
plane-surface $-1 43.09823908200323217 56.25354678946439435 11.34710624049514394 0 -1 0 0 0 -1 forward_v I I I I #
coedge $-1 $319 $228 $231 $320 forward $134 $-1 #
coedge $-1 $234 $136 $137 $222 reversed $81 $-1 #
coedge $-1 $228 $319 $136 $220 reversed $134 $-1 #
edge $-1 $235 -11.34710624049514394 $321 11.34710624049514394 $219 $322 forward 7 unknown #
coedge $-1 $138 $137 $319 $323 forward $50 $-1 #
edge $-1 $226 -43.09823908200323217 $321 43.09823908200323217 $218 $324 forward 7 unknown #
coedge $-1 $231 $230 $138 $224 reversed $215 $-1 #
edge $-1 $325 -43.09823908200323217 $225 43.09823908200323217 $223 $326 forward 7 unknown #
vertex $-1 $140 $327 #
vertex $-1 $237 $328 #
straight-curve $-1 86.19647816400646434 28.12677339473219718 0 0 -1 0 I I #
coedge $-1 $217 $219 $141 $229 reversed $134 $-1 #
edge $-1 $232 -28.12677339473219718 $235 28.12677339473219718 $228 $329 forward 7 unknown #
coedge $-1 $223 $142 $147 $238 forward $215 $-1 #
coedge $-1 $142 $223 $217 $320 reversed $215 $-1 #
vertex $-1 $143 $330 #
straight-curve $-1 43.09823908200323217 56.25354678946439435 22.69421248099028787 -1 0 0 I I #
coedge $-1 $144 $218 $146 $237 reversed $81 $-1 #
vertex $-1 $229 $331 #
straight-curve $-1 43.09823908200323217 0 22.69421248099028787 1 0 0 I I #
edge $-1 $149 -11.34710624049514394 $226 11.34710624049514394 $146 $332 forward 7 unknown #
edge $-1 $150 -11.34710624049514394 $225 11.34710624049514394 $147 $333 forward 7 unknown #
point $-1 86.19647816400646434 0 22.69421248099028787 #
point $-1 86.19647816400646434 56.25354678946439435 22.69421248099028787 #
face $-1 $-1 $254 $15 $-1 $334 reversed single #
plane-surface $-1 3 -3.949331116871839242 11.34710624049514394 -1 0 0 0 0 1 forward_v I I I I #
coedge $-1 $335 $336 $337 $338 forward $153 $-1 #
coedge $-1 $337 $155 $253 $339 reversed $89 $-1 #
coedge $-1 $155 $337 $156 $248 reversed $89 $-1 #
edge $-1 $250 -11.34710624049514394 $255 11.34710624049514394 $155 $340 forward 7 unknown #
coedge $-1 $157 $156 $336 $341 forward $54 $-1 #
edge $-1 $250 28.12677339473219718 $342 36.02543562847587566 $245 $343 forward 7 unknown #
edge $-1 $344 -3.949331116871839242 $165 3.949331116871842795 $162 $345 forward 7 unknown #
vertex $-1 $248 $346 #
straight-curve $-1 43.09823908200323217 0 22.69421248099028787 -1 0 0 I I #
coedge $-1 $347 $160 $163 $258 forward $254 $-1 #
coedge $-1 $160 $347 $244 $339 forward $254 $-1 #
loop $-1 $-1 $160 $241 #
vertex $-1 $246 $348 #
straight-curve $-1 43.09823908200323217 0 0 1 0 0 I I #
coedge $-1 $163 $162 $349 $350 forward $164 $-1 #
edge $-1 $166 -3.949331116871842795 $351 3.949331116871839242 $163 $352 forward 7 unknown #
point $-1 3 3.552713678800500929e-15 22.69421248099028787 #
point $-1 3 3.552713678800500929e-15 0 #
face $-1 $-1 $278 $16 $-1 $353 reversed single #
plane-surface $-1 86.19647816400646434 28.12677339473219718 11.34710624049514394 -1 0 0 0 0 1 forward_v I I I I #
coedge $-1 $265 $354 $267 $355 forward $169 $-1 #
coedge $-1 $281 $171 $172 $268 reversed $97 $-1 #
coedge $-1 $274 $263 $171 $266 forward $169 $-1 #
edge $-1 $356 -5.509975344707997991 $282 -2.509975344707997991 $265 $357 forward 7 unknown #
coedge $-1 $173 $172 $263 $355 reversed $58 $-1 #
edge $-1 $271 -43.09823908200323217 $356 43.09823908200323217 $264 $358 forward 7 unknown #
coedge $-1 $277 $276 $173 $270 forward $278 $-1 #
edge $-1 $272 -43.09823908200323217 $359 43.09823908200323217 $269 $360 forward 7 unknown #
vertex $-1 $175 $361 #
vertex $-1 $175 $362 #
straight-curve $-1 86.19647816400646434 39.82597819604097822 1.827155551079147955 0 1 0 I I #
coedge $-1 $354 $265 $176 $275 forward $169 $-1 #
edge $-1 $282 6.970841009194160165 $279 16.42756859342341613 $274 $363 forward 7 unknown #
coedge $-1 $269 $177 $182 $285 forward $278 $-1 #
coedge $-1 $177 $269 $354 $364 reversed $278 $-1 #
loop $-1 $-1 $269 $261 #
vertex $-1 $364 $365 #
straight-curve $-1 43.09823908200323217 56.25354678946439435 4.827155551079147955 1 0 0 I I #
coedge $-1 $179 $264 $181 $284 reversed $97 $-1 #
vertex $-1 $275 $366 #
straight-curve $-1 43.09823908200323217 46.79681920523513838 4.827155551079147955 1 0 0 I I #
edge $-1 $185 2.509975344707997991 $271 5.509975344707997991 $181 $367 forward 7 unknown #
edge $-1 $184 6.519950689415995981 $272 9.519950689415995981 $182 $368 forward 7 unknown #
point $-1 86.19647816400646434 56.25354678946439435 4.827155551079147955 #
point $-1 86.19647816400646434 46.79681920523513838 4.827155551079147955 #
loop $-1 $-1 $195 $187 #
plane-surface $-1 43.09823908200323217 28.12677339473219718 22.69421248099028787 0 0 1 1 0 0 forward_v I I I I #
coedge $-1 $291 $190 $192 $295 reversed $105 $-1 #
coedge $-1 $190 $290 $369 $370 reversed $105 $-1 #
coedge $-1 $198 $193 $190 $293 forward $188 $-1 #
edge $-1 $296 -22.37206435259506776 $371 -14.48128726859997784 $292 $372 forward 7 unknown #
coedge $-1 $192 $191 $299 $373 reversed $62 $-1 #
edge $-1 $374 -9.517996853661943035 $296 2.5618607856530852e-14 $290 $375 forward 7 unknown #
vertex $-1 $194 $376 #
straight-curve $-1 0 26.05278099080591403 14.80343539699519617 0 -1 0 I I #
coedge $-1 $369 $195 $198 $303 forward $288 $-1 #
coedge $-1 $195 $369 $294 $373 forward $288 $-1 #
vertex $-1 $196 $377 #
straight-curve $-1 -14.18094031691589407 29.41192557602968094 22.69421248099028787 -1 0 0 I I #
straight-curve $-1 1.421085471520200372e-14 29.41192557602968094 14.80343539699521926 0.5591928915004963363 0 0.8290375806290775085 I I #
edge $-1 $199 -1.285152181297483764 $371 9.581121797002609242 $198 $378 forward 7 unknown #
point $-1 0 29.41192557602968094 22.69421248099028787 #
point $-1 0 29.41192557602968094 14.80343539699519795 #
edge $-1 $379 1 $379 0 $202 $-1 forward 7 unknown #
vertex $-1 $203 $380 #
ellipse-curve $-1 5.830931577038377611 20.71890639338960582 16.61081177309189272 -0.8290375806290775085 0 0.5591928915004963363 0.5591928915004963363 0 0.8290375806290775085 1 I I #
point $-1 3.220390982446417638 20.71890639338960582 19.57786151962183752 #
edge $-1 $381 1 $381 0 $206 $-1 forward 7 unknown #
vertex $-1 $207 $382 #
ellipse-curve $-1 5.830931577038377611 23.97878858687963444 16.61081177309189272 -0.8290375806290775085 0 0.5591928915004963363 0.5591928915004963363 0 0.8290375806290775085 1 I I #
point $-1 3.220390982446417638 23.97878858687963444 19.57786151962183752 #
edge $-1 $383 1 $383 0 $210 $-1 forward 7 unknown #
vertex $-1 $211 $384 #
ellipse-curve $-1 5.830931577038377611 27.23867078036966305 16.61081177309189272 -0.8290375806290775085 0 0.5591928915004963363 0.5591928915004963363 0 0.8290375806290775085 1 I I #
point $-1 3.220390982446417638 27.23867078036966305 19.57786151962183752 #
plane-surface $-1 86.19647816400646434 28.12677339473219718 11.34710624049514394 -1 0 0 0 0 1 forward_v I I I I #
coedge $-1 $219 $217 $221 $323 reversed $134 $-1 #
edge $-1 $232 -11.34710624049514394 $325 11.34710624049514394 $231 $385 forward 7 unknown #
vertex $-1 $323 $386 #
straight-curve $-1 0 0 11.34710624049514394 0 0 -1 I I #
edge $-1 $321 -28.12677339473219718 $325 28.12677339473219718 $319 $387 forward 7 unknown #
straight-curve $-1 43.09823908200323217 0 0 -1 0 0 I I #
vertex $-1 $224 $388 #
straight-curve $-1 43.09823908200323217 56.25354678946439435 0 1 0 0 I I #
point $-1 86.19647816400646434 56.25354678946439435 0 #
point $-1 86.19647816400646434 0 0 #
straight-curve $-1 0 28.12677339473219718 22.69421248099028787 0 -1 0 I I #
point $-1 0 56.25354678946439435 22.69421248099028787 #
point $-1 0 0 22.69421248099028787 #
straight-curve $-1 86.19647816400646434 0 11.34710624049514394 0 0 -1 I I #
straight-curve $-1 86.19647816400646434 56.25354678946439435 11.34710624049514394 0 0 -1 I I #
plane-surface $-1 43.09823908200323217 28.12677339473219718 0 0 0 1 1 0 0 forward_v I I I I #
coedge $-1 $349 $243 $347 $389 reversed $153 $-1 #
coedge $-1 $243 $349 $247 $341 reversed $153 $-1 #
coedge $-1 $245 $244 $243 $338 reversed $89 $-1 #
edge $-1 $342 -11.34710624049514394 $390 11.34710624049514394 $337 $391 forward 7 unknown #
edge $-1 $390 -36.02543562847587566 $255 -28.12677339473219718 $244 $392 forward 7 unknown #
straight-curve $-1 0 0 11.34710624049514394 0 0 -1 I I #
edge $-1 $342 -1.5 $344 1.5 $336 $393 forward 7 unknown #
vertex $-1 $248 $394 #
straight-curve $-1 0 28.12677339473219718 22.69421248099028787 0 -1 0 I I #
vertex $-1 $249 $395 #
straight-curve $-1 3 -3.949331116871839242 22.69421248099028787 0 1 0 I I #
point $-1 0 0 22.69421248099028787 #
coedge $-1 $253 $252 $335 $389 forward $254 $-1 #
point $-1 0 0 0 #
coedge $-1 $336 $335 $257 $350 reversed $153 $-1 #
edge $-1 $344 -11.34710624049514394 $351 11.34710624049514394 $257 $396 forward 7 unknown #
vertex $-1 $350 $397 #
straight-curve $-1 3 -3.949331116871839242 0 0 -1 0 I I #
plane-surface $-1 43.09823908200323217 56.25354678946439435 11.34710624049514394 0 -1 0 0 0 -1 forward_v I I I I #
coedge $-1 $263 $274 $277 $364 forward $169 $-1 #
edge $-1 $359 -16.42756859342341613 $356 -6.970841009194160165 $263 $398 forward 7 unknown #
vertex $-1 $355 $399 #
straight-curve $-1 0 46.79681920523513838 7.337130895787145946 0 0 1 I I #
straight-curve $-1 43.09823908200323217 46.79681920523513838 1.827155551079147955 -1 0 0 I I #
vertex $-1 $270 $400 #
straight-curve $-1 43.09823908200323217 56.25354678946439435 1.827155551079147955 -1 0 0 I I #
point $-1 86.19647816400646434 46.79681920523513838 1.827155551079147955 #
point $-1 86.19647816400646434 56.25354678946439435 1.827155551079147955 #
straight-curve $-1 0 39.82597819604097822 4.827155551079147955 0 1 0 I I #
edge $-1 $279 6.519950689415995981 $359 9.519950689415995981 $277 $401 forward 7 unknown #
point $-1 0 56.25354678946439435 4.827155551079147955 #
point $-1 0 46.79681920523513838 4.827155551079147955 #
straight-curve $-1 86.19647816400646434 46.79681920523513838 7.337130895787145946 0 0 -1 I I #
straight-curve $-1 86.19647816400646434 56.25354678946439435 11.34710624049514394 0 0 -1 I I #
coedge $-1 $299 $298 $291 $370 forward $288 $-1 #
edge $-1 $371 14.18094031691589407 $374 19.50333649880775511 $369 $402 forward 7 unknown #
vertex $-1 $370 $403 #
straight-curve $-1 0 18.54565159772958793 37.17549974959026571 0 0 1 I I #
edge $-1 $374 -7.507129393076326096 $300 3.35914458522376691 $299 $404 forward 7 unknown #
vertex $-1 $373 $405 #
straight-curve $-1 1.421085471520200372e-14 18.54565159772958793 14.80343539699521926 -0.5591928915004963363 0 -0.8290375806290775085 I I #
point $-1 0 18.54565159772958793 14.80343539699519795 #
point $-1 5.322396181891861033 29.41192557602968094 22.69421248099028787 #
straight-curve $-1 0 28.12677339473219718 22.69421248099028787 0 -1 0 I I #
vertex $-1 $306 $406 #
point $-1 6.390124468538871838 20.71890639338960582 17.43984935372097311 #
vertex $-1 $310 $407 #
point $-1 6.390124468538871838 23.97878858687963444 17.43984935372097311 #
vertex $-1 $314 $408 #
point $-1 6.390124468538871838 27.23867078036966305 17.43984935372097311 #
straight-curve $-1 0 56.25354678946439435 11.34710624049514394 0 0 -1 I I #
point $-1 0 0 0 #
straight-curve $-1 0 28.12677339473219718 0 0 1 0 I I #
point $-1 0 56.25354678946439435 0 #
edge $-1 $351 -1.5 $390 1.5 $335 $409 forward 7 unknown #
vertex $-1 $339 $410 #
straight-curve $-1 0 -7.898662233743678485 11.34710624049514394 0 0 -1 I I #
straight-curve $-1 0 28.12677339473219718 0 0 1 0 I I #
straight-curve $-1 1.5 -7.898662233743678485 22.69421248099028787 1 0 0 I I #
point $-1 0 -7.898662233743678485 22.69421248099028787 #
point $-1 3 -7.898662233743678485 22.69421248099028787 #
straight-curve $-1 3 -7.898662233743678485 11.34710624049514394 0 0 -1 I I #
point $-1 3 -7.898662233743678485 0 #
straight-curve $-1 0 39.82597819604097822 1.827155551079147955 0 -1 0 I I #
point $-1 0 46.79681920523513838 1.827155551079147955 #
point $-1 0 56.25354678946439435 1.827155551079147955 #
straight-curve $-1 0 56.25354678946439435 11.34710624049514394 0 0 -1 I I #
straight-curve $-1 -14.18094031691589407 18.54565159772958793 22.69421248099028787 1 0 0 I I #
point $-1 0 18.54565159772958793 22.69421248099028787 #
straight-curve $-1 5.322396181891861033 26.05278099080591403 22.69421248099028787 0 1 0 I I #
point $-1 5.322396181891861033 18.54565159772958793 22.69421248099028787 #
point $-1 6.659969157667454454 20.71890639338960582 16.05161888159139849 #
point $-1 6.659969157667454454 23.97878858687963444 16.05161888159139849 #
point $-1 6.659969157667454454 27.23867078036966305 16.05161888159139849 #
straight-curve $-1 1.5 -7.898662233743678485 0 -1 0 0 I I #
point $-1 0 -7.898662233743678485 0 #
End-of-ACIS-data 