500 0 4 0           
7 Unknown 11 ACIS 5.0 NT 24 Fri Mar 26 00:18:20 1999 
-1 9.9999999999999995e-007 1e-010 
body $-1 $4 $-1 $5 #
body $-1 $6 $-1 $7 #
body $-1 $8 $-1 $9 #
body $-1 $10 $-1 $11 #
lump $-1 $-1 $12 $0 #
transform $-1 1 0 0 0 1 0 0 0 1 50.682699056978059 22.883701878974811 11.256012960118065 1 rotate no_reflect no_shear #
lump $-1 $-1 $13 $1 #
transform $-1 1 0 0 0 1 0 0 0 1 50.682699056978059 22.883701878974811 11.256012960118065 1 rotate no_reflect no_shear #
lump $-1 $-1 $14 $2 #
transform $-1 1 0 0 0 1 0 0 0 1 50.682699056978059 22.883701878974811 11.256012960118065 1 rotate no_reflect no_shear #
lump $-1 $-1 $15 $3 #
transform $-1 1 0 0 0 1 0 0 0 1 50.682699056978059 22.883701878974811 11.256012960118065 1 rotate no_reflect no_shear #
shell $-1 $-1 $-1 $16 $-1 $4 #
shell $-1 $-1 $-1 $17 $-1 $6 #
shell $-1 $-1 $-1 $18 $-1 $8 #
shell $-1 $-1 $-1 $19 $-1 $10 #
face $-1 $20 $21 $12 $-1 $22 forward single #
face $-1 $23 $24 $13 $-1 $25 forward single #
face $-1 $26 $27 $14 $-1 $28 reversed single #
face $-1 $29 $30 $15 $-1 $31 forward single #
face $-1 $32 $33 $12 $-1 $34 reversed single #
loop $-1 $-1 $35 $16 #
plane-surface $-1 0 0 11.256012960118065 0 0 1 1 0 0 forward_v I I I I #
face $-1 $36 $37 $13 $-1 $38 reversed single #
loop $-1 $-1 $39 $17 #
plane-surface $-1 -44.548307682825296 0 -1.712277195486914 0 0 1 1 0 0 forward_v I I I I #
face $-1 $40 $41 $14 $-1 $42 reversed single #
loop $-1 $-1 $43 $18 #
plane-surface $-1 38.188722538654254 14.025080353414737 148.42984035534252 0 -1 0 -0.64278761758704617 0 -0.76604443648966558 forward_v I I I I #
face $-1 $44 $45 $15 $-1 $46 forward single #
loop $-1 $47 $48 $19 #
cone-surface $-1 46.239125363978594 10.460772087882198 7.1440759805604603 -0.64278761758704617 0 -0.76604443648966558 1.1490666547344983 0 -0.96418142638056925 1 I I 0 1 1.5 forward I I I I #
face $-1 $49 $50 $12 $-1 $51 reversed single #
loop $-1 $-1 $52 $20 #
plane-surface $-1 0 0 -11.256012960118065 0 0 1 1 0 0 forward_v I I I I #
coedge $-1 $53 $54 $55 $56 forward $21 $-1 #
face $-1 $57 $58 $13 $-1 $59 reversed single #
loop $-1 $-1 $60 $23 #
plane-surface $-1 -44.548307682825296 0 -7.8391730344124735 0 0 1 1 0 0 forward_v I I I I #
coedge $-1 $61 $62 $63 $64 forward $24 $-1 #
face $-1 $65 $66 $14 $-1 $67 reversed single #
loop $-1 $-1 $68 $26 #
plane-surface $-1 -26.967700220778063 10.460772087882198 70.779441077586398 0.64278761758704617 0 0.76604443648966558 0.76604443648966558 0 -0.64278761758704617 forward_v I I I I #
coedge $-1 $69 $70 $71 $72 reversed $27 $-1 #
face $-1 $-1 $73 $15 $-1 $74 forward single #
loop $-1 $75 $76 $29 #
cone-surface $-1 44.670031688297861 10.460772087882198 5.2741029946175981 -0.64278761758704617 0 -0.76604443648966558 0.57453332736724916 0 -0.48209071319028463 1 I I -0.70710678118654757 0.70710678118654757 0.75 forward I I I I #
loop $-1 $-1 $77 $19 #
coedge $-1 $48 $48 $78 $79 reversed $30 $-1 #
face $-1 $80 $81 $12 $-1 $82 reversed single #
loop $-1 $-1 $83 $32 #
plane-surface $-1 0 -22.883701878974811 0 0 1 0 0 0 1 forward_v I I I I #
coedge $-1 $84 $85 $86 $87 forward $33 $-1 #
coedge $-1 $88 $35 $89 $90 forward $21 $-1 #
coedge $-1 $35 $88 $91 $92 forward $21 $-1 #
coedge $-1 $93 $94 $35 $56 reversed $95 $-1 #
edge $-1 $96 -22.883701878974811 $97 22.883701878974811 $55 $98 forward 7 unknown #
face $-1 $99 $100 $13 $-1 $101 reversed single #
loop $-1 $-1 $102 $36 #
plane-surface $-1 -38.413916308672533 0 -4.7757251149496938 -1 0 0 0 0 1 forward_v I I I I #
coedge $-1 $103 $104 $105 $106 forward $37 $-1 #
coedge $-1 $107 $39 $108 $109 reversed $24 $-1 #
coedge $-1 $39 $107 $110 $111 reversed $24 $-1 #
coedge $-1 $102 $112 $39 $64 reversed $58 $-1 #
edge $-1 $113 -22.883701878974811 $114 22.883701878974811 $63 $115 forward 7 unknown #
face $-1 $116 $117 $14 $-1 $118 reversed single #
loop $-1 $-1 $119 $40 #
plane-surface $-1 38.188722538654254 6.8964638223496593 148.42984035534252 0 1 0 0.64278761758704617 0 0.76604443648966558 forward_v I I I I #
coedge $-1 $120 $121 $122 $123 reversed $41 $-1 #
coedge $-1 $70 $43 $124 $125 reversed $27 $-1 #
coedge $-1 $43 $69 $120 $126 reversed $27 $-1 #
coedge $-1 $122 $127 $43 $72 forward $128 $-1 #
edge $-1 $129 -31.588337787650932 $130 -24.875196326632906 $71 $131 forward 7 unknown #
loop $-1 $-1 $78 $44 #
plane-surface $-1 -26.967700220778063 10.460772087882198 70.779441077586398 0.64278761758704617 0 0.76604443648966558 0.76604443648966558 0 -0.64278761758704617 forward_v I I I I #
loop $-1 $-1 $132 $29 #
coedge $-1 $76 $76 $77 $133 reversed $45 $-1 #
coedge $-1 $77 $77 $76 $133 forward $47 $-1 #
coedge $-1 $78 $78 $48 $79 forward $73 $-1 #
edge $-1 $134 0 $134 6.2831853071796004 $78 $135 forward 7 unknown #
face $-1 $136 $137 $12 $-1 $138 reversed single #
loop $-1 $-1 $139 $49 #
plane-surface $-1 -50.682699056978059 0 0 1 0 0 0 0 -1 forward_v I I I I #
coedge $-1 $140 $91 $141 $142 forward $50 $-1 #
coedge $-1 $143 $52 $140 $144 forward $33 $-1 #
coedge $-1 $52 $143 $145 $146 forward $33 $-1 #
coedge $-1 $94 $93 $52 $87 reversed $95 $-1 #
edge $-1 $147 -22.883701878974811 $148 22.883701878974811 $86 $149 forward 7 unknown #
coedge $-1 $54 $53 $150 $151 forward $21 $-1 #
coedge $-1 $152 $153 $53 $90 reversed $137 $-1 #
edge $-1 $97 -50.682699056978059 $154 50.682699056978059 $89 $155 forward 7 unknown #
coedge $-1 $83 $156 $54 $92 reversed $50 $-1 #
edge $-1 $157 -50.682699056978059 $96 50.682699056978059 $91 $158 forward 7 unknown #
coedge $-1 $86 $55 $156 $159 forward $95 $-1 #
coedge $-1 $55 $86 $152 $160 reversed $95 $-1 #
loop $-1 $-1 $93 $136 #
vertex $-1 $56 $161 #
vertex $-1 $56 $162 #
straight-curve $-1 50.682699056978059 0 11.256012960118065 0 1 0 I I #
face $-1 $163 $164 $13 $-1 $165 reversed single #
loop $-1 $-1 $166 $57 #
plane-surface $-1 0 -22.883701878974811 0 0 1 0 0 0 1 forward_v I I I I #
coedge $-1 $105 $63 $167 $168 reversed $58 $-1 #
coedge $-1 $169 $60 $166 $170 reversed $37 $-1 #
coedge $-1 $60 $169 $171 $172 reversed $37 $-1 #
coedge $-1 $112 $102 $60 $106 reversed $58 $-1 #
edge $-1 $173 -22.883701878974811 $174 22.883701878974811 $105 $175 forward 7 unknown #
coedge $-1 $62 $61 $176 $177 reversed $24 $-1 #
coedge $-1 $178 $179 $61 $109 forward $180 $-1 #
edge $-1 $181 -28.408545215565411 $114 -16.139762467259885 $108 $182 forward 7 unknown #
coedge $-1 $183 $167 $62 $111 forward $100 $-1 #
edge $-1 $113 16.139762467259885 $184 28.408545215565411 $110 $185 forward 7 unknown #
coedge $-1 $63 $105 $178 $186 reversed $58 $-1 #
vertex $-1 $111 $187 #
vertex $-1 $109 $188 #
straight-curve $-1 -38.413916308672533 0 -1.712277195486914 0 1 0 I I #
face $-1 $-1 $128 $14 $-1 $189 forward single #
loop $-1 $-1 $190 $65 #
plane-surface $-1 50.682699056978059 0 0 -1 0 0 0 0 1 forward_v I I I I #
coedge $-1 $191 $192 $193 $194 reversed $66 $-1 #
coedge $-1 $195 $68 $70 $126 forward $41 $-1 #
coedge $-1 $68 $195 $191 $196 forward $41 $-1 #
coedge $-1 $193 $71 $68 $123 forward $128 $-1 #
edge $-1 $130 -8.7946943094736376 $197 -1.6660777784085603 $122 $198 forward 7 unknown #
coedge $-1 $199 $200 $69 $125 forward $117 $-1 #
edge $-1 $201 -68.591901859517179 $129 -62.958907217553197 $124 $202 forward 7 unknown #
edge $-1 $130 92.602014240586527 $201 101.3653981139561 $70 $203 forward 7 unknown #
coedge $-1 $71 $193 $199 $204 forward $128 $-1 #
loop $-1 $-1 $193 $116 #
vertex $-1 $125 $205 #
vertex $-1 $72 $206 #
straight-curve $-1 19.094361269327127 14.025080353414737 11.256012960118071 -1 0 0 I I #
coedge $-1 $132 $132 $-1 $207 reversed $75 $-1 #
edge $-1 $208 0 $208 6.2831853071796004 $76 $209 forward 7 unknown #
vertex $-1 $79 $210 #
ellipse-curve $-1 47.326128326469046 10.460772087882198 8.4395156391360739 0.64278761758704617 0 0.76604443648966558 1.1490666547344983 0 -0.96418142638056925 1 I I #
face $-1 $-1 $95 $12 $-1 $211 reversed single #
loop $-1 $-1 $152 $80 #
plane-surface $-1 0 22.883701878974811 0 0 -1 0 0 0 -1 forward_v I I I I #
coedge $-1 $212 $150 $153 $213 forward $81 $-1 #
coedge $-1 $156 $83 $84 $144 reversed $50 $-1 #
coedge $-1 $150 $212 $83 $142 reversed $81 $-1 #
edge $-1 $157 -11.256012960118065 $214 11.256012960118065 $141 $215 forward 7 unknown #
coedge $-1 $85 $84 $212 $216 forward $33 $-1 #
edge $-1 $148 -50.682699056978059 $214 50.682699056978059 $140 $217 forward 7 unknown #
coedge $-1 $153 $152 $85 $146 reversed $137 $-1 #
edge $-1 $218 -50.682699056978059 $147 50.682699056978059 $145 $219 forward 7 unknown #
vertex $-1 $87 $220 #
vertex $-1 $159 $221 #
straight-curve $-1 50.682699056978059 0 -11.256012960118065 0 -1 0 I I #
coedge $-1 $139 $141 $88 $151 reversed $81 $-1 #
edge $-1 $154 -22.883701878974811 $157 22.883701878974811 $150 $222 forward 7 unknown #
coedge $-1 $145 $89 $94 $160 forward $137 $-1 #
coedge $-1 $89 $145 $139 $213 reversed $137 $-1 #
vertex $-1 $90 $223 #
straight-curve $-1 0 22.883701878974811 11.256012960118065 -1 0 0 I I #
coedge $-1 $91 $140 $93 $159 reversed $50 $-1 #
vertex $-1 $151 $224 #
straight-curve $-1 0 -22.883701878974811 11.256012960118065 1 0 0 I I #
edge $-1 $96 -11.256012960118065 $148 11.256012960118065 $93 $225 forward 7 unknown #
edge $-1 $97 -11.256012960118065 $147 11.256012960118065 $94 $226 forward 7 unknown #
point $-1 50.682699056978059 -22.883701878974811 11.256012960118065 #
point $-1 50.682699056978059 22.883701878974811 11.256012960118065 #
face $-1 $-1 $180 $13 $-1 $227 reversed single #
loop $-1 $-1 $228 $99 #
plane-surface $-1 -50.682699056978059 0 0 1 0 0 0 0 -1 forward_v I I I I #
coedge $-1 $167 $183 $103 $170 forward $100 $-1 #
coedge $-1 $110 $166 $102 $168 forward $100 $-1 #
edge $-1 $174 -5.4513104769376266 $113 0.67558536198793284 $167 $229 forward 7 unknown #
coedge $-1 $104 $103 $228 $230 reversed $37 $-1 #
edge $-1 $231 -28.408545215565411 $174 -16.139762467259885 $166 $232 forward 7 unknown #
coedge $-1 $179 $178 $104 $172 forward $180 $-1 #
edge $-1 $173 16.139762467259885 $233 28.408545215565411 $171 $234 forward 7 unknown #
vertex $-1 $172 $235 #
vertex $-1 $170 $236 #
straight-curve $-1 -38.413916308672533 0 -7.8391730344124735 0 -1 0 I I #
coedge $-1 $237 $238 $107 $177 forward $164 $-1 #
edge $-1 $184 -22.883701878974811 $181 22.883701878974811 $176 $239 forward 7 unknown #
coedge $-1 $171 $108 $112 $186 forward $180 $-1 #
coedge $-1 $108 $171 $237 $240 reversed $180 $-1 #
loop $-1 $-1 $171 $163 #
vertex $-1 $240 $241 #
straight-curve $-1 -22.274153841412648 22.883701878974811 -1.712277195486914 1 0 0 I I #
coedge $-1 $166 $110 $238 $242 forward $100 $-1 #
vertex $-1 $242 $243 #
straight-curve $-1 -22.274153841412648 -22.883701878974811 -1.712277195486914 -1 0 0 I I #
edge $-1 $114 -0.67558536198793284 $173 5.4513104769376266 $178 $244 forward 7 unknown #
point $-1 -38.413916308672533 -22.883701878974811 -1.712277195486914 #
point $-1 -38.413916308672533 22.883701878974811 -1.712277195486914 #
plane-surface $-1 0 0 11.256012960118065 0 0 1 1 0 0 forward_v I I I I #
coedge $-1 $200 $199 $192 $245 forward $117 $-1 #
coedge $-1 $192 $119 $121 $196 reversed $66 $-1 #
coedge $-1 $119 $191 $190 $245 reversed $66 $-1 #
coedge $-1 $127 $122 $119 $194 forward $128 $-1 #
edge $-1 $197 24.875196326632906 $246 31.588337787650932 $193 $247 forward 7 unknown #
coedge $-1 $121 $120 $200 $248 reversed $41 $-1 #
edge $-1 $249 -101.3653981139561 $197 -92.602014240586527 $191 $250 forward 7 unknown #
vertex $-1 $123 $251 #
straight-curve $-1 43.969557595960026 5.230386043941099 11.256012960118071 0 -1 0 I I #
coedge $-1 $190 $124 $127 $204 reversed $117 $-1 #
coedge $-1 $124 $190 $195 $248 forward $117 $-1 #
vertex $-1 $125 $252 #
straight-curve $-1 50.682699056978059 14.025080353414737 74.21492017767126 0 0 1 I I #
straight-curve $-1 -26.967700220778063 14.025080353414737 70.779441077586398 0.76604443648966558 0 -0.64278761758704617 I I #
edge $-1 $246 6.8964638223496593 $129 14.025080353414737 $199 $253 forward 7 unknown #
point $-1 50.682699056978059 14.025080353414737 11.256012960118065 #
point $-1 43.969557595960033 14.025080353414737 11.256012960118063 #
edge $-1 $254 1 $254 0 $132 $-1 forward 7 unknown #
vertex $-1 $133 $255 #
ellipse-curve $-1 45.152122401488143 10.460772087882198 5.8486363219848476 0.64278761758704617 0 0.76604443648966558 1.1490666547344983 0 -0.96418142638056925 1 I I #
point $-1 48.475194981203543 10.460772087882198 7.4753342127555031 #
plane-surface $-1 50.682699056978059 0 0 -1 0 0 0 0 1 forward_v I I I I #
coedge $-1 $141 $139 $143 $216 reversed $81 $-1 #
edge $-1 $154 -11.256012960118065 $218 11.256012960118065 $153 $256 forward 7 unknown #
vertex $-1 $216 $257 #
straight-curve $-1 -50.682699056978059 -22.883701878974811 0 0 0 -1 I I #
edge $-1 $214 -22.883701878974811 $218 22.883701878974811 $212 $258 forward 7 unknown #
straight-curve $-1 0 -22.883701878974811 -11.256012960118065 -1 0 0 I I #
vertex $-1 $146 $259 #
straight-curve $-1 0 22.883701878974811 -11.256012960118065 1 0 0 I I #
point $-1 50.682699056978059 22.883701878974811 -11.256012960118065 #
point $-1 50.682699056978059 -22.883701878974811 -11.256012960118065 #
straight-curve $-1 -50.682699056978059 0 11.256012960118065 0 -1 0 I I #
point $-1 -50.682699056978059 22.883701878974811 11.256012960118065 #
point $-1 -50.682699056978059 -22.883701878974811 11.256012960118065 #
straight-curve $-1 50.682699056978059 -22.883701878974811 0 0 0 -1 I I #
straight-curve $-1 50.682699056978059 22.883701878974811 0 0 0 -1 I I #
plane-surface $-1 0 22.883701878974811 0 0 -1 0 0 0 -1 forward_v I I I I #
coedge $-1 $238 $237 $169 $230 forward $164 $-1 #
straight-curve $-1 -38.413916308672533 -22.883701878974811 -2.3878625574748469 0 0 1 I I #
edge $-1 $233 -22.883701878974811 $231 22.883701878974811 $228 $260 forward 7 unknown #
vertex $-1 $170 $261 #
straight-curve $-1 -22.274153841412648 -22.883701878974811 -7.8391730344124735 1 0 0 I I #
vertex $-1 $172 $262 #
straight-curve $-1 -22.274153841412648 22.883701878974811 -7.8391730344124735 -1 0 0 I I #
point $-1 -38.413916308672533 22.883701878974811 -7.8391730344124735 #
point $-1 -38.413916308672533 -22.883701878974811 -7.8391730344124735 #
coedge $-1 $228 $176 $179 $240 forward $164 $-1 #
coedge $-1 $176 $228 $183 $242 reversed $164 $-1 #
straight-curve $-1 -50.682699056978059 0 -1.712277195486914 0 1 0 I I #
edge $-1 $181 1.712277195486914 $233 7.8391730344124735 $179 $263 forward 7 unknown #
point $-1 -50.682699056978059 22.883701878974811 -1.712277195486914 #
edge $-1 $184 1.712277195486914 $231 7.8391730344124735 $238 $264 forward 7 unknown #
point $-1 -50.682699056978059 -22.883701878974811 -1.712277195486914 #
straight-curve $-1 -38.413916308672533 22.883701878974811 -2.3878625574748469 0 0 -1 I I #
edge $-1 $246 62.958907217553197 $249 68.591901859517179 $190 $265 forward 7 unknown #
vertex $-1 $204 $266 #
straight-curve $-1 19.094361269327127 6.8964638223496593 11.256012960118071 1 0 0 I I #
edge $-1 $249 1.6660777784085603 $201 8.7946943094736376 $200 $267 forward 7 unknown #
vertex $-1 $248 $268 #
straight-curve $-1 -26.967700220778063 6.8964638223496593 70.779441077586398 -0.76604443648966558 0 0.64278761758704617 I I #
point $-1 43.969557595960033 6.8964638223496593 11.256012960118063 #
point $-1 50.682699056978059 14.025080353414737 5.6230183181540809 #
straight-curve $-1 50.682699056978059 0 11.256012960118065 0 1 0 I I #
vertex $-1 $207 $269 #
point $-1 46.301189056222647 10.460772087882198 4.8844548956042777 #
straight-curve $-1 -50.682699056978059 22.883701878974811 0 0 0 -1 I I #
point $-1 -50.682699056978059 -22.883701878974811 -11.256012960118065 #
straight-curve $-1 -50.682699056978059 0 -11.256012960118065 0 1 0 I I #
point $-1 -50.682699056978059 22.883701878974811 -11.256012960118065 #
straight-curve $-1 -50.682699056978059 0 -7.8391730344124735 0 -1 0 I I #
point $-1 -50.682699056978059 -22.883701878974811 -7.8391730344124735 #
point $-1 -50.682699056978059 22.883701878974811 -7.8391730344124735 #
straight-curve $-1 -50.682699056978059 22.883701878974811 0 0 0 -1 I I #
straight-curve $-1 -50.682699056978059 -22.883701878974811 0 0 0 -1 I I #
straight-curve $-1 50.682699056978059 6.8964638223496593 74.21492017767126 0 0 -1 I I #
point $-1 50.682699056978059 6.8964638223496593 11.256012960118065 #
straight-curve $-1 50.682699056978052 5.230386043941099 5.623018318154088 0 1 0 I I #
point $-1 50.682699056978059 6.8964638223496593 5.6230183181540809 #
point $-1 44.18794097510758 10.460772087882198 4.6995696672503486 #
End-of-ACIS-data 