500 0 7 0           
7 Unknown 11 ACIS 5.0 NT 24 Fri Mar 26 18:26:08 1999 
-1 9.9999999999999995e-007 1e-010 
body $-1 $7 $-1 $8 #
body $-1 $9 $-1 $10 #
body $-1 $11 $-1 $12 #
body $-1 $13 $-1 $14 #
body $-1 $15 $-1 $16 #
body $-1 $17 $-1 $18 #
body $-1 $19 $-1 $20 #
lump $-1 $-1 $21 $0 #
transform $-1 1 0 0 0 1 0 0 0 1 67.631458479567854 37.483683732537003 16.084912521586642 1 rotate no_reflect no_shear #
lump $-1 $-1 $22 $1 #
transform $-1 1 0 0 0 1 0 0 0 1 67.631458479567854 37.483683732537003 16.084912521586642 1 rotate no_reflect no_shear #
lump $-1 $-1 $23 $2 #
transform $-1 1 0 0 0 1 0 0 0 1 67.631458479567854 37.483683732537003 16.084912521586642 1 rotate no_reflect no_shear #
lump $-1 $-1 $24 $3 #
transform $-1 1 0 0 0 1 0 0 0 1 67.631458479567854 37.483683732537003 16.084912521586642 1 rotate no_reflect no_shear #
lump $-1 $-1 $25 $4 #
transform $-1 1 0 0 0 1 0 0 0 1 67.631458479567854 37.483683732537003 16.084912521586642 1 rotate no_reflect no_shear #
lump $-1 $-1 $26 $5 #
transform $-1 1 0 0 0 1 0 0 0 1 67.631458479567854 37.483683732537003 16.084912521586642 1 rotate no_reflect no_shear #
lump $-1 $-1 $27 $6 #
transform $-1 1 0 0 0 1 0 0 0 1 67.631458479567854 37.483683732537003 16.084912521586642 1 rotate no_reflect no_shear #
shell $-1 $-1 $-1 $28 $-1 $7 #
shell $-1 $-1 $-1 $29 $-1 $9 #
shell $-1 $-1 $-1 $30 $-1 $11 #
shell $-1 $-1 $-1 $31 $-1 $13 #
shell $-1 $-1 $-1 $32 $-1 $15 #
shell $-1 $-1 $-1 $33 $-1 $17 #
shell $-1 $-1 $-1 $34 $-1 $19 #
face $-1 $35 $36 $21 $-1 $37 forward single #
face $-1 $38 $39 $22 $-1 $40 forward single #
face $-1 $41 $42 $23 $-1 $43 forward single #
face $-1 $44 $45 $24 $-1 $46 reversed single #
face $-1 $47 $48 $25 $-1 $49 forward single #
face $-1 $50 $51 $26 $-1 $52 reversed single #
face $-1 $53 $54 $27 $-1 $55 forward single #
face $-1 $56 $57 $21 $-1 $58 reversed single #
loop $-1 $-1 $59 $28 #
plane-surface $-1 0 0 16.084912521586642 0 0 1 1 0 0 forward_v I I I I #
face $-1 $60 $61 $22 $-1 $62 reversed single #
loop $-1 $-1 $63 $29 #
plane-surface $-1 0 -31.457224118984897 -10.448247080125086 0 0 1 1 0 0 forward_v I I I I #
face $-1 $64 $65 $23 $-1 $66 reversed single #
loop $-1 $-1 $67 $30 #
plane-surface $-1 0 31.457224118984897 -10.448247080125086 0 0 1 1 0 0 forward_v I I I I #
face $-1 $68 $69 $24 $-1 $70 reversed single #
loop $-1 $-1 $71 $31 #
plane-surface $-1 94.253974242926702 25.430764505432787 198.28261417951492 0 -1 0 -0.79863551827123203 0 -0.60181501223851219 forward_v I I I I #
face $-1 $72 $73 $25 $-1 $74 forward single #
loop $-1 $75 $76 $32 #
cone-surface $-1 63.663636075418118 19.379742529731686 11.532413156871305 -0.79863551827123203 0 -0.60181501223851219 0.60181501223851219 0 -0.79863551827123203 1 I I 0 1 1 forward I I I I #
face $-1 $77 $78 $26 $-1 $79 reversed single #
loop $-1 $-1 $80 $33 #
plane-surface $-1 -175.65722826810583 13.328720554030586 90.256844390976923 0 1 0 -0.79863551827123203 0 0.60181501223851219 forward_v I I I I #
face $-1 $81 $82 $27 $-1 $83 forward single #
loop $-1 $84 $85 $34 #
cone-surface $-1 -63.663636075418097 19.379742529731686 11.532413156871288 0.79863551827123203 0 -0.60181501223851219 0.60181501223851219 0 0.79863551827123203 1 I I 0 1 1 forward I I I I #
face $-1 $86 $87 $21 $-1 $88 reversed single #
loop $-1 $-1 $89 $35 #
plane-surface $-1 0 0 -16.084912521586642 0 0 1 1 0 0 forward_v I I I I #
coedge $-1 $90 $91 $92 $93 forward $36 $-1 #
face $-1 $94 $95 $22 $-1 $96 reversed single #
loop $-1 $-1 $97 $38 #
plane-surface $-1 0 -25.430764505432791 -13.266579800855864 0 -1 0 0 0 -1 forward_v I I I I #
coedge $-1 $98 $99 $100 $101 reversed $39 $-1 #
face $-1 $102 $103 $23 $-1 $104 reversed single #
loop $-1 $-1 $105 $41 #
plane-surface $-1 0 25.430764505432791 -13.266579800855864 0 1 0 0 0 1 forward_v I I I I #
coedge $-1 $106 $107 $108 $109 reversed $42 $-1 #
face $-1 $110 $111 $24 $-1 $112 reversed single #
loop $-1 $-1 $113 $44 #
plane-surface $-1 -13.771795545611269 19.379742529731686 116.87936015433581 0.79863551827123203 0 0.60181501223851219 0.60181501223851219 0 -0.79863551827123203 forward_v I I I I #
coedge $-1 $114 $115 $116 $117 reversed $45 $-1 #
face $-1 $-1 $118 $25 $-1 $119 forward single #
loop $-1 $120 $121 $47 #
cone-surface $-1 62.021091883713794 19.379742529731686 10.294667363931101 -0.79863551827123203 0 -0.60181501223851219 0.3009075061192561 0 -0.39931775913561601 1 I I -0.70710678118654746 0.70710678118654746 0.5 forward I I I I #
loop $-1 $-1 $122 $32 #
coedge $-1 $76 $76 $123 $124 reversed $48 $-1 #
face $-1 $125 $126 $26 $-1 $127 reversed single #
loop $-1 $-1 $128 $50 #
plane-surface $-1 -67.631458479567854 19.379742529731686 8.8535903657978139 -0.79863551827123203 0 0.60181501223851219 0.60181501223851219 0 0.79863551827123203 forward_v I I I I #
coedge $-1 $129 $130 $131 $132 reversed $51 $-1 #
face $-1 $-1 $133 $27 $-1 $134 forward single #
loop $-1 $135 $136 $53 #
cone-surface $-1 -62.021091883713773 19.379742529731686 10.294667363931083 0.79863551827123203 0 -0.60181501223851219 0.3009075061192561 0 0.39931775913561601 1 I I -0.70710678118654746 0.70710678118654746 0.5 forward I I I I #
loop $-1 $-1 $137 $34 #
coedge $-1 $85 $85 $138 $139 reversed $54 $-1 #
face $-1 $140 $141 $21 $-1 $142 reversed single #
loop $-1 $-1 $143 $56 #
plane-surface $-1 0 -37.483683732537003 0 0 1 0 0 0 1 forward_v I I I I #
coedge $-1 $144 $145 $146 $147 forward $57 $-1 #
coedge $-1 $148 $59 $149 $150 forward $36 $-1 #
coedge $-1 $59 $148 $151 $152 forward $36 $-1 #
coedge $-1 $153 $154 $59 $93 reversed $155 $-1 #
edge $-1 $156 -37.483683732537003 $157 37.483683732537003 $92 $158 forward 7 unknown #
face $-1 $159 $160 $22 $-1 $161 reversed single #
loop $-1 $-1 $162 $60 #
plane-surface $-1 0 0 -16.084912521586642 0 0 1 1 0 0 forward_v I I I I #
coedge $-1 $163 $164 $165 $166 reversed $61 $-1 #
coedge $-1 $167 $63 $164 $168 forward $39 $-1 #
coedge $-1 $63 $167 $169 $170 reversed $39 $-1 #
coedge $-1 $171 $165 $63 $101 forward $160 $-1 #
edge $-1 $172 9.7021524459403423 $173 21.755071673044554 $100 $174 forward 7 unknown #
face $-1 $175 $176 $23 $-1 $177 reversed single #
loop $-1 $-1 $108 $64 #
plane-surface $-1 67.631458479567854 0 0 -1 0 0 0 0 1 forward_v I I I I #
coedge $-1 $178 $179 $180 $181 reversed $65 $-1 #
coedge $-1 $182 $67 $183 $184 reversed $42 $-1 #
coedge $-1 $67 $182 $179 $185 forward $42 $-1 #
coedge $-1 $186 $187 $67 $109 forward $103 $-1 #
edge $-1 $188 -21.755071673044554 $189 -9.7021524459403423 $108 $190 forward 7 unknown #
face $-1 $191 $192 $24 $-1 $193 forward single #
loop $-1 $-1 $194 $68 #
plane-surface $-1 94.253974242926702 13.328720554030586 198.28261417951492 0 1 0 0.79863551827123203 0 0.60181501223851219 forward_v I I I I #
coedge $-1 $195 $196 $197 $198 reversed $69 $-1 #
coedge $-1 $115 $71 $199 $200 reversed $45 $-1 #
coedge $-1 $71 $114 $195 $201 reversed $45 $-1 #
coedge $-1 $197 $202 $71 $117 forward $192 $-1 #
edge $-1 $203 -20.504471358104503 $204 -15.055279414942426 $116 $205 forward 7 unknown #
loop $-1 $-1 $123 $72 #
plane-surface $-1 -13.771795545611269 19.379742529731686 116.87936015433581 0.79863551827123203 0 0.60181501223851219 0.60181501223851219 0 -0.79863551827123203 forward_v I I I I #
loop $-1 $-1 $206 $47 #
coedge $-1 $121 $121 $122 $207 reversed $73 $-1 #
coedge $-1 $122 $122 $121 $207 forward $75 $-1 #
coedge $-1 $123 $123 $76 $124 forward $118 $-1 #
edge $-1 $208 0 $208 6.2831853071796004 $123 $209 forward 7 unknown #
face $-1 $210 $211 $26 $-1 $212 reversed single #
loop $-1 $-1 $213 $77 #
plane-surface $-1 -175.65722826810583 25.430764505432787 90.256844390976923 0 -1 0 0.79863551827123203 0 -0.60181501223851219 forward_v I I I I #
coedge $-1 $214 $215 $216 $217 reversed $78 $-1 #
coedge $-1 $130 $80 $218 $219 reversed $51 $-1 #
coedge $-1 $80 $129 $214 $220 reversed $51 $-1 #
coedge $-1 $216 $221 $80 $132 forward $222 $-1 #
edge $-1 $223 20.197155654485059 $224 25.64634759764715 $131 $225 forward 7 unknown #
loop $-1 $-1 $138 $81 #
plane-surface $-1 -67.631458479567854 19.379742529731686 8.8535903657978139 -0.79863551827123203 0 0.60181501223851219 0.60181501223851219 0 0.79863551827123203 forward_v I I I I #
loop $-1 $-1 $226 $53 #
coedge $-1 $136 $136 $137 $227 reversed $82 $-1 #
coedge $-1 $137 $137 $136 $227 forward $84 $-1 #
coedge $-1 $138 $138 $85 $139 forward $133 $-1 #
edge $-1 $228 0 $228 6.2831853071796004 $138 $229 forward 7 unknown #
face $-1 $230 $231 $21 $-1 $232 reversed single #
loop $-1 $-1 $233 $86 #
plane-surface $-1 -67.631458479567854 0 0 1 0 0 0 0 -1 forward_v I I I I #
coedge $-1 $234 $151 $235 $236 forward $87 $-1 #
coedge $-1 $237 $89 $234 $238 forward $57 $-1 #
coedge $-1 $89 $237 $239 $240 forward $57 $-1 #
coedge $-1 $154 $153 $89 $147 reversed $155 $-1 #
edge $-1 $241 -37.483683732537003 $242 37.483683732537003 $146 $243 forward 7 unknown #
coedge $-1 $91 $90 $244 $245 forward $36 $-1 #
coedge $-1 $246 $247 $90 $150 reversed $231 $-1 #
edge $-1 $157 -67.631458479567854 $248 67.631458479567854 $149 $249 forward 7 unknown #
coedge $-1 $143 $250 $91 $152 reversed $87 $-1 #
edge $-1 $251 -67.631458479567854 $156 67.631458479567854 $151 $252 forward 7 unknown #
coedge $-1 $146 $92 $250 $253 forward $155 $-1 #
coedge $-1 $92 $146 $246 $254 reversed $155 $-1 #
loop $-1 $-1 $153 $230 #
vertex $-1 $93 $255 #
vertex $-1 $93 $256 #
straight-curve $-1 67.631458479567854 0 16.084912521586642 0 1 0 I I #
face $-1 $257 $258 $22 $-1 $259 reversed single #
loop $-1 $-1 $165 $94 #
plane-surface $-1 67.631458479567854 0 0 -1 0 0 0 0 1 forward_v I I I I #
coedge $-1 $260 $261 $163 $262 forward $95 $-1 #
coedge $-1 $263 $97 $162 $262 reversed $61 $-1 #
coedge $-1 $97 $263 $98 $168 reversed $61 $-1 #
coedge $-1 $100 $264 $97 $166 forward $160 $-1 #
edge $-1 $265 -9.4516226211587089 $172 -3.8149571796971538 $165 $266 forward 7 unknown #
coedge $-1 $99 $98 $267 $268 reversed $39 $-1 #
edge $-1 $172 -67.631458479567854 $269 67.631458479567854 $164 $270 forward 7 unknown #
coedge $-1 $271 $272 $99 $170 forward $258 $-1 #
edge $-1 $173 -67.631458479567854 $273 67.631458479567854 $169 $274 forward 7 unknown #
coedge $-1 $264 $100 $272 $275 forward $160 $-1 #
vertex $-1 $101 $276 #
vertex $-1 $275 $277 #
straight-curve $-1 67.631458479567854 -15.728612059492448 -10.448247080125086 0 -1 0 I I #
face $-1 $278 $279 $23 $-1 $280 reversed single #
loop $-1 $-1 $281 $102 #
plane-surface $-1 0 0 -16.084912521586642 0 0 1 1 0 0 forward_v I I I I #
coedge $-1 $282 $105 $281 $283 reversed $65 $-1 #
coedge $-1 $105 $282 $107 $185 reversed $65 $-1 #
coedge $-1 $284 $285 $105 $181 forward $279 $-1 #
edge $-1 $286 -9.4516226211587089 $287 -3.8149571796971538 $180 $288 forward 7 unknown #
coedge $-1 $107 $106 $284 $289 reversed $42 $-1 #
coedge $-1 $290 $291 $106 $184 forward $292 $-1 #
edge $-1 $293 -67.631458479567854 $188 67.631458479567854 $183 $294 forward 7 unknown #
edge $-1 $287 -67.631458479567854 $189 67.631458479567854 $179 $295 forward 7 unknown #
coedge $-1 $296 $108 $282 $297 forward $103 $-1 #
coedge $-1 $108 $296 $290 $298 reversed $103 $-1 #
vertex $-1 $298 $299 #
vertex $-1 $109 $300 #
straight-curve $-1 67.631458479567854 15.728612059492448 -10.448247080125086 0 -1 0 I I #
face $-1 $-1 $301 $24 $-1 $302 reversed single #
loop $-1 $-1 $116 $110 #
plane-surface $-1 0 0 16.084912521586642 0 0 1 1 0 0 forward_v I I I I #
coedge $-1 $303 $304 $305 $306 reversed $111 $-1 #
coedge $-1 $307 $113 $115 $201 forward $69 $-1 #
coedge $-1 $113 $307 $303 $308 forward $69 $-1 #
coedge $-1 $305 $116 $113 $198 forward $192 $-1 #
edge $-1 $204 -15.740893240566944 $309 -3.6388492891647424 $197 $310 forward 7 unknown #
coedge $-1 $311 $312 $114 $200 forward $301 $-1 #
edge $-1 $313 -90.287716723959619 $203 -83.056394568170816 $199 $314 forward 7 unknown #
edge $-1 $204 126.208320725497 $313 135.26291695913571 $115 $315 forward 7 unknown #
coedge $-1 $116 $305 $311 $316 forward $192 $-1 #
vertex $-1 $200 $317 #
vertex $-1 $117 $318 #
straight-curve $-1 47.126987121463351 25.430764505432787 16.084912521586645 -1 0 0 I I #
coedge $-1 $206 $206 $-1 $319 reversed $120 $-1 #
edge $-1 $320 0 $320 6.2831853071796004 $121 $321 forward 7 unknown #
vertex $-1 $124 $322 #
ellipse-curve $-1 64.906862507986816 19.379742529731686 12.469251443692244 0.79863551827123203 0 0.60181501223851219 0.60181501223851219 0 -0.79863551827123203 1 I I #
face $-1 $-1 $222 $26 $-1 $323 forward single #
loop $-1 $-1 $324 $125 #
plane-surface $-1 -67.631458479567854 0 0 1 0 0 0 0 -1 forward_v I I I I #
coedge $-1 $325 $326 $327 $328 reversed $126 $-1 #
coedge $-1 $329 $128 $130 $220 forward $78 $-1 #
coedge $-1 $128 $329 $325 $330 forward $78 $-1 #
coedge $-1 $327 $131 $128 $217 forward $222 $-1 #
edge $-1 $224 3.6388492891647424 $331 15.740893240566944 $216 $332 forward 7 unknown #
coedge $-1 $333 $334 $129 $219 forward $211 $-1 #
edge $-1 $335 -36.274831829690648 $223 -29.04350967390182 $218 $336 forward 7 unknown #
edge $-1 $224 -9.0545962336387493 $335 0 $130 $337 forward 7 unknown #
coedge $-1 $131 $327 $333 $338 forward $222 $-1 #
loop $-1 $-1 $327 $210 #
vertex $-1 $219 $339 #
vertex $-1 $132 $340 #
straight-curve $-1 -87.828614134052913 13.328720554030586 16.084912521586645 1 0 0 I I #
coedge $-1 $226 $226 $-1 $341 reversed $135 $-1 #
edge $-1 $342 0 $342 6.2831853071796004 $136 $343 forward 7 unknown #
vertex $-1 $139 $344 #
ellipse-curve $-1 -64.906862507986801 19.379742529731686 12.469251443692233 -0.79863551827123203 0 0.60181501223851219 0.60181501223851219 0 0.79863551827123203 1 I I #
face $-1 $-1 $155 $21 $-1 $345 reversed single #
loop $-1 $-1 $246 $140 #
plane-surface $-1 0 37.483683732537003 0 0 -1 0 0 0 -1 forward_v I I I I #
coedge $-1 $346 $244 $247 $347 forward $141 $-1 #
coedge $-1 $250 $143 $144 $238 reversed $87 $-1 #
coedge $-1 $244 $346 $143 $236 reversed $141 $-1 #
edge $-1 $251 -16.084912521586642 $348 16.084912521586642 $235 $349 forward 7 unknown #
coedge $-1 $145 $144 $346 $350 forward $57 $-1 #
edge $-1 $242 -67.631458479567854 $348 67.631458479567854 $234 $351 forward 7 unknown #
coedge $-1 $247 $246 $145 $240 reversed $231 $-1 #
edge $-1 $352 -67.631458479567854 $241 67.631458479567854 $239 $353 forward 7 unknown #
vertex $-1 $147 $354 #
vertex $-1 $253 $355 #
straight-curve $-1 67.631458479567854 0 -16.084912521586642 0 -1 0 I I #
coedge $-1 $233 $235 $148 $245 reversed $141 $-1 #
edge $-1 $248 -37.483683732537003 $251 37.483683732537003 $244 $356 forward 7 unknown #
coedge $-1 $239 $149 $154 $254 forward $231 $-1 #
coedge $-1 $149 $239 $233 $347 reversed $231 $-1 #
vertex $-1 $150 $357 #
straight-curve $-1 0 37.483683732537003 16.084912521586642 -1 0 0 I I #
coedge $-1 $151 $234 $153 $253 reversed $87 $-1 #
vertex $-1 $245 $358 #
straight-curve $-1 0 -37.483683732537003 16.084912521586642 1 0 0 I I #
edge $-1 $156 -16.084912521586642 $242 16.084912521586642 $153 $359 forward 7 unknown #
edge $-1 $157 -16.084912521586642 $241 16.084912521586642 $154 $360 forward 7 unknown #
point $-1 67.631458479567854 -37.483683732537003 16.084912521586642 #
point $-1 67.631458479567854 37.483683732537003 16.084912521586642 #
face $-1 $-1 $361 $22 $-1 $362 reversed single #
loop $-1 $-1 $169 $159 #
plane-surface $-1 0 -37.483683732537003 0 0 1 0 0 0 1 forward_v I I I I #
coedge $-1 $363 $162 $264 $364 forward $95 $-1 #
coedge $-1 $162 $363 $365 $366 forward $95 $-1 #
edge $-1 $367 -67.631458479567854 $265 67.631458479567854 $162 $368 forward 7 unknown #
coedge $-1 $164 $163 $369 $370 reversed $61 $-1 #
coedge $-1 $165 $171 $260 $364 reversed $160 $-1 #
vertex $-1 $364 $371 #
straight-curve $-1 67.631458479567854 -25.430764505432791 -6.6332899004279318 0 0 1 I I #
coedge $-1 $369 $372 $167 $268 forward $361 $-1 #
edge $-1 $273 -21.755071673044554 $269 -9.7021524459403423 $267 $373 forward 7 unknown #
vertex $-1 $268 $374 #
straight-curve $-1 0 -25.430764505432791 -10.448247080125086 -1 0 0 I I #
coedge $-1 $375 $169 $372 $376 forward $258 $-1 #
coedge $-1 $169 $375 $171 $275 reversed $258 $-1 #
vertex $-1 $376 $377 #
straight-curve $-1 0 -37.483683732537003 -10.448247080125086 -1 0 0 I I #
edge $-1 $173 10.448247080125086 $378 16.084912521586642 $171 $379 forward 7 unknown #
point $-1 67.631458479567854 -25.430764505432791 -10.448247080125086 #
point $-1 67.631458479567854 -37.483683732537003 -10.448247080125086 #
face $-1 $-1 $292 $23 $-1 $380 reversed single #
loop $-1 $-1 $284 $175 #
plane-surface $-1 -67.631458479567854 0 0 1 0 0 0 0 -1 forward_v I I I I #
coedge $-1 $381 $382 $178 $283 forward $176 $-1 #
coedge $-1 $179 $178 $186 $297 reversed $65 $-1 #
edge $-1 $383 -67.631458479567854 $286 67.631458479567854 $281 $384 forward 7 unknown #
coedge $-1 $385 $180 $182 $289 forward $279 $-1 #
coedge $-1 $180 $385 $381 $386 reversed $279 $-1 #
vertex $-1 $386 $387 #
vertex $-1 $289 $388 #
straight-curve $-1 -67.631458479567854 25.430764505432791 -6.6332899004279318 0 0 1 I I #
edge $-1 $287 9.7021524459403423 $293 21.755071673044554 $284 $389 forward 7 unknown #
coedge $-1 $390 $183 $187 $298 forward $292 $-1 #
coedge $-1 $183 $390 $385 $391 reversed $292 $-1 #
loop $-1 $-1 $183 $278 #
vertex $-1 $391 $392 #
straight-curve $-1 0 37.483683732537003 -10.448247080125086 1 0 0 I I #
straight-curve $-1 0 25.430764505432791 -10.448247080125086 1 0 0 I I #
coedge $-1 $187 $186 $382 $393 reversed $103 $-1 #
edge $-1 $189 3.8149571796971538 $383 9.4516226211587089 $186 $394 forward 7 unknown #
edge $-1 $188 10.448247080125086 $395 16.084912521586642 $187 $396 forward 7 unknown #
point $-1 67.631458479567854 37.483683732537003 -10.448247080125086 #
point $-1 67.631458479567854 25.430764505432791 -10.448247080125086 #
loop $-1 $-1 $199 $191 #
plane-surface $-1 67.631458479567854 0 0 -1 0 0 0 0 1 forward_v I I I I #
coedge $-1 $304 $194 $196 $308 reversed $111 $-1 #
coedge $-1 $194 $303 $397 $398 reversed $111 $-1 #
coedge $-1 $202 $197 $194 $306 forward $192 $-1 #
edge $-1 $309 15.055279414942426 $399 20.504471358104503 $305 $400 forward 7 unknown #
coedge $-1 $196 $195 $312 $401 reversed $69 $-1 #
edge $-1 $402 -135.26291695913571 $309 -126.208320725497 $303 $403 forward 7 unknown #
vertex $-1 $198 $404 #
straight-curve $-1 62.182266536405763 9.6898712648658432 16.084912521586645 0 -1 0 I I #
coedge $-1 $397 $199 $202 $316 reversed $301 $-1 #
coedge $-1 $199 $397 $307 $401 forward $301 $-1 #
vertex $-1 $200 $405 #
straight-curve $-1 67.631458479567854 25.430764505432787 99.141307089757461 0 0 1 I I #
straight-curve $-1 -13.771795545611269 25.430764505432787 116.87936015433581 0.60181501223851219 0 -0.79863551827123203 I I #
edge $-1 $399 13.328720554030586 $203 25.430764505432787 $311 $406 forward 7 unknown #
point $-1 67.631458479567854 25.430764505432787 16.084912521586642 #
point $-1 62.182266536405777 25.430764505432787 16.084912521586645 #
edge $-1 $407 1 $407 0 $206 $-1 forward 7 unknown #
vertex $-1 $207 $408 #
ellipse-curve $-1 62.420409642849407 19.379742529731686 10.595574870050356 0.79863551827123203 0 0.60181501223851219 0.60181501223851219 0 -0.79863551827123203 1 I I #
point $-1 65.508677520225348 19.379742529731686 11.670615925421021 #
plane-surface $-1 0 0 16.084912521586642 0 0 1 1 0 0 forward_v I I I I #
coedge $-1 $334 $333 $326 $409 forward $211 $-1 #
coedge $-1 $326 $213 $215 $330 reversed $126 $-1 #
coedge $-1 $213 $325 $324 $409 reversed $126 $-1 #
coedge $-1 $221 $216 $213 $328 forward $222 $-1 #
edge $-1 $331 -25.64634759764715 $410 -20.197155654485059 $327 $411 forward 7 unknown #
coedge $-1 $215 $214 $334 $412 reversed $78 $-1 #
edge $-1 $413 0 $331 9.0545962336387493 $325 $414 forward 7 unknown #
vertex $-1 $217 $415 #
straight-curve $-1 -62.18226653640577 9.6898712648658432 16.084912521586642 0 1 0 I I #
coedge $-1 $324 $218 $221 $338 reversed $211 $-1 #
coedge $-1 $218 $324 $329 $412 forward $211 $-1 #
vertex $-1 $219 $416 #
straight-curve $-1 -67.631458479567854 13.328720554030586 45.128422195488461 0 0 1 I I #
straight-curve $-1 -67.631458479567854 13.328720554030586 8.8535903657978139 -0.60181501223851219 0 -0.79863551827123203 I I #
edge $-1 $410 -25.430764505432787 $223 -13.328720554030586 $333 $417 forward 7 unknown #
point $-1 -67.631458479567854 13.328720554030586 16.084912521586642 #
point $-1 -62.182266536405763 13.328720554030586 16.084912521586642 #
edge $-1 $418 1 $418 0 $226 $-1 forward 7 unknown #
vertex $-1 $227 $419 #
ellipse-curve $-1 -62.420409642849386 19.379742529731686 10.595574870050338 -0.79863551827123203 0 0.60181501223851219 0.60181501223851219 0 0.79863551827123203 1 I I #
point $-1 -64.305047495748298 19.379742529731686 13.267886961963468 #
plane-surface $-1 67.631458479567854 0 0 -1 0 0 0 0 1 forward_v I I I I #
coedge $-1 $235 $233 $237 $350 reversed $141 $-1 #
edge $-1 $248 -16.084912521586642 $352 16.084912521586642 $247 $420 forward 7 unknown #
vertex $-1 $350 $421 #
straight-curve $-1 -67.631458479567854 -37.483683732537003 0 0 0 -1 I I #
edge $-1 $348 -37.483683732537003 $352 37.483683732537003 $346 $422 forward 7 unknown #
straight-curve $-1 0 -37.483683732537003 -16.084912521586642 -1 0 0 I I #
vertex $-1 $240 $423 #
straight-curve $-1 0 37.483683732537003 -16.084912521586642 1 0 0 I I #
point $-1 67.631458479567854 37.483683732537003 -16.084912521586642 #
point $-1 67.631458479567854 -37.483683732537003 -16.084912521586642 #
straight-curve $-1 -67.631458479567854 0 16.084912521586642 0 -1 0 I I #
point $-1 -67.631458479567854 37.483683732537003 16.084912521586642 #
point $-1 -67.631458479567854 -37.483683732537003 16.084912521586642 #
straight-curve $-1 67.631458479567854 -37.483683732537003 0 0 0 -1 I I #
straight-curve $-1 67.631458479567854 37.483683732537003 0 0 0 -1 I I #
loop $-1 $-1 $369 $257 #
plane-surface $-1 -67.631458479567854 0 0 1 0 0 0 0 -1 forward_v I I I I #
coedge $-1 $261 $260 $375 $424 forward $95 $-1 #
edge $-1 $265 25.430764505432791 $378 37.483683732537003 $264 $425 forward 7 unknown #
coedge $-1 $372 $369 $261 $366 reversed $361 $-1 #
edge $-1 $426 -37.483683732537003 $367 -25.430764505432791 $365 $427 forward 7 unknown #
vertex $-1 $370 $428 #
straight-curve $-1 0 -25.430764505432791 -16.084912521586642 1 0 0 I I #
coedge $-1 $365 $267 $263 $370 forward $361 $-1 #
edge $-1 $269 3.8149571796971538 $367 9.4516226211587089 $369 $429 forward 7 unknown #
point $-1 67.631458479567854 -25.430764505432791 -16.084912521586642 #
coedge $-1 $267 $365 $271 $376 reversed $361 $-1 #
straight-curve $-1 -67.631458479567854 -15.728612059492448 -10.448247080125086 0 1 0 I I #
point $-1 -67.631458479567854 -25.430764505432791 -10.448247080125086 #
coedge $-1 $272 $271 $363 $424 reversed $258 $-1 #
edge $-1 $273 10.448247080125086 $426 16.084912521586642 $372 $430 forward 7 unknown #
point $-1 -67.631458479567854 -37.483683732537003 -10.448247080125086 #
vertex $-1 $275 $431 #
straight-curve $-1 67.631458479567854 -37.483683732537003 0 0 0 -1 I I #
plane-surface $-1 0 37.483683732537003 0 0 -1 0 0 0 -1 forward_v I I I I #
coedge $-1 $432 $281 $285 $386 forward $176 $-1 #
coedge $-1 $281 $432 $296 $393 forward $176 $-1 #
vertex $-1 $283 $433 #
straight-curve $-1 0 25.430764505432791 -16.084912521586642 -1 0 0 I I #
coedge $-1 $285 $284 $291 $391 forward $279 $-1 #
edge $-1 $286 25.430764505432791 $434 37.483683732537003 $285 $435 forward 7 unknown #
point $-1 -67.631458479567854 25.430764505432791 -16.084912521586642 #
point $-1 -67.631458479567854 25.430764505432791 -10.448247080125086 #
straight-curve $-1 -67.631458479567854 15.728612059492448 -10.448247080125086 0 1 0 I I #
coedge $-1 $291 $290 $432 $436 reversed $292 $-1 #
edge $-1 $293 10.448247080125086 $434 16.084912521586642 $291 $437 forward 7 unknown #
point $-1 -67.631458479567854 37.483683732537003 -10.448247080125086 #
edge $-1 $395 -37.483683732537003 $383 -25.430764505432791 $296 $438 forward 7 unknown #
straight-curve $-1 67.631458479567854 25.430764505432791 -6.6332899004279318 0 0 -1 I I #
vertex $-1 $393 $439 #
straight-curve $-1 67.631458479567854 37.483683732537003 0 0 0 -1 I I #
coedge $-1 $312 $311 $304 $398 forward $301 $-1 #
edge $-1 $399 83.056394568170816 $402 90.287716723959619 $397 $440 forward 7 unknown #
vertex $-1 $316 $441 #
straight-curve $-1 47.126987121463351 13.328720554030586 16.084912521586645 1 0 0 I I #
edge $-1 $402 3.6388492891647424 $313 15.740893240566944 $312 $442 forward 7 unknown #
vertex $-1 $401 $443 #
straight-curve $-1 -13.771795545611269 13.328720554030586 116.87936015433581 -0.60181501223851219 0 0.79863551827123203 I I #
point $-1 62.182266536405777 13.328720554030586 16.084912521586645 #
point $-1 67.63145847956784 25.430764505432787 8.8535903657978423 #
straight-curve $-1 67.631458479567854 0 16.084912521586642 0 1 0 I I #
vertex $-1 $319 $444 #
point $-1 63.022224655087925 19.379742529731686 9.796939351779125 #
edge $-1 $410 29.04350967390182 $413 36.274831829690648 $324 $445 forward 7 unknown #
vertex $-1 $338 $446 #
straight-curve $-1 -87.828614134052913 25.430764505432787 16.084912521586645 -1 0 0 I I #
edge $-1 $413 -15.740893240566944 $335 -3.6388492891647424 $334 $447 forward 7 unknown #
vertex $-1 $412 $448 #
straight-curve $-1 -67.631458479567854 25.430764505432787 8.8535903657978139 0.60181501223851219 0 0.79863551827123203 I I #
point $-1 -62.182266536405763 25.430764505432787 16.084912521586642 #
point $-1 -67.631458479567854 13.328720554030586 8.8535903657978139 #
straight-curve $-1 -67.631458479567854 0 16.084912521586642 0 -1 0 I I #
vertex $-1 $341 $449 #
point $-1 -61.818594630610875 19.379742529731686 11.394210388321572 #
straight-curve $-1 -67.631458479567854 37.483683732537003 0 0 0 -1 I I #
point $-1 -67.631458479567854 -37.483683732537003 -16.084912521586642 #
straight-curve $-1 -67.631458479567854 0 -16.084912521586642 0 1 0 I I #
point $-1 -67.631458479567854 37.483683732537003 -16.084912521586642 #
edge $-1 $378 -67.631458479567854 $426 67.631458479567854 $375 $450 forward 7 unknown #
straight-curve $-1 67.631458479567854 0 -16.084912521586642 0 -1 0 I I #
vertex $-1 $366 $451 #
straight-curve $-1 -67.631458479567854 0 -16.084912521586642 0 1 0 I I #
point $-1 -67.631458479567854 -25.430764505432791 -16.084912521586642 #
straight-curve $-1 -67.631458479567854 -25.430764505432791 -6.6332899004279318 0 0 -1 I I #
straight-curve $-1 -67.631458479567854 -37.483683732537003 0 0 0 -1 I I #
point $-1 67.631458479567854 -37.483683732537003 -16.084912521586642 #
coedge $-1 $382 $381 $390 $436 forward $176 $-1 #
point $-1 67.631458479567854 25.430764505432791 -16.084912521586642 #
vertex $-1 $436 $452 #
straight-curve $-1 -67.631458479567854 0 -16.084912521586642 0 1 0 I I #
edge $-1 $434 -67.631458479567854 $395 67.631458479567854 $390 $453 forward 7 unknown #
straight-curve $-1 -67.631458479567854 37.483683732537003 0 0 0 -1 I I #
straight-curve $-1 67.631458479567854 0 -16.084912521586642 0 -1 0 I I #
point $-1 67.631458479567854 37.483683732537003 -16.084912521586642 #
straight-curve $-1 67.631458479567854 13.328720554030586 99.141307089757461 0 0 -1 I I #
point $-1 67.631458479567854 13.328720554030586 16.084912521586642 #
straight-curve $-1 67.631458479567854 9.6898712648658432 8.8535903657978352 0 1 0 I I #
point $-1 67.63145847956784 13.328720554030586 8.8535903657978423 #
point $-1 61.621774124578181 19.379742529731686 9.9937598578118454 #
straight-curve $-1 -67.631458479567854 25.430764505432787 45.128422195488461 0 0 -1 I I #
point $-1 -67.631458479567854 25.430764505432787 16.084912521586642 #
straight-curve $-1 -67.631458479567854 9.6898712648658432 8.8535903657978174 0 -1 0 I I #
point $-1 -67.631458479567854 25.430764505432787 8.8535903657978139 #
point $-1 -61.62177412457816 19.379742529731686 9.9937598578118276 #
straight-curve $-1 0 -37.483683732537003 -16.084912521586642 -1 0 0 I I #
point $-1 -67.631458479567854 -37.483683732537003 -16.084912521586642 #
point $-1 -67.631458479567854 37.483683732537003 -16.084912521586642 #
straight-curve $-1 0 37.483683732537003 -16.084912521586642 1 0 0 I I #
End-of-ACIS-data 