500 0 7 0           
7 Unknown 11 ACIS 5.0 NT 24 Thu Mar 25 19:57:25 1999 
-1 9.9999999999999995e-007 1e-010 
body $-1 $7 $-1 $8 #
body $-1 $9 $-1 $10 #
body $-1 $11 $-1 $12 #
body $-1 $13 $-1 $14 #
body $-1 $15 $-1 $16 #
body $-1 $17 $-1 $18 #
body $-1 $19 $-1 $20 #
lump $-1 $-1 $21 $0 #
transform $-1 1 0 0 0 1 0 0 0 1 53.579515976439708 23.559322130098749 5.7951028891444416 1 rotate no_reflect no_shear #
lump $-1 $-1 $22 $1 #
transform $-1 1 0 0 0 1 0 0 0 1 53.579515976439708 23.559322130098749 5.7951028891444416 1 rotate no_reflect no_shear #
lump $-1 $-1 $23 $2 #
transform $-1 1 0 0 0 1 0 0 0 1 53.579515976439708 23.559322130098749 5.7951028891444416 1 rotate no_reflect no_shear #
lump $-1 $-1 $24 $3 #
transform $-1 1 0 0 0 1 0 0 0 1 53.579515976439708 23.559322130098749 5.7951028891444416 1 rotate no_reflect no_shear #
lump $-1 $-1 $25 $4 #
transform $-1 1 0 0 0 1 0 0 0 1 53.579515976439708 23.559322130098749 5.7951028891444416 1 rotate no_reflect no_shear #
lump $-1 $-1 $26 $5 #
transform $-1 1 0 0 0 1 0 0 0 1 53.579515976439708 23.559322130098749 5.7951028891444416 1 rotate no_reflect no_shear #
lump $-1 $-1 $27 $6 #
transform $-1 1 0 0 0 1 0 0 0 1 53.579515976439708 23.559322130098749 5.7951028891444416 1 rotate no_reflect no_shear #
shell $-1 $-1 $-1 $28 $-1 $7 #
shell $-1 $-1 $-1 $29 $-1 $9 #
shell $-1 $-1 $-1 $30 $-1 $11 #
shell $-1 $-1 $-1 $31 $-1 $13 #
shell $-1 $-1 $-1 $32 $-1 $15 #
shell $-1 $-1 $-1 $33 $-1 $17 #
shell $-1 $-1 $-1 $34 $-1 $19 #
face $-1 $35 $36 $21 $-1 $37 forward single #
face $-1 $38 $39 $22 $-1 $40 forward single #
face $-1 $41 $42 $23 $-1 $43 reversed single #
face $-1 $44 $45 $24 $-1 $46 forward single #
face $-1 $47 $48 $25 $-1 $49 reversed single #
face $-1 $50 $51 $26 $-1 $52 forward single #
face $-1 $53 $54 $27 $-1 $55 forward single #
face $-1 $56 $57 $21 $-1 $58 reversed single #
loop $-1 $-1 $59 $28 #
plane-surface $-1 0 0 5.7951028891444416 0 0 1 1 0 0 forward_v I I I I #
face $-1 $60 $61 $22 $-1 $62 reversed single #
loop $-1 $-1 $63 $29 #
plane-surface $-1 0 -23.559322130098749 0 0 1 0 0 0 1 forward_v I I I I #
face $-1 $64 $65 $23 $-1 $66 reversed single #
loop $-1 $-1 $67 $30 #
plane-surface $-1 87.669895849823675 14.281882519340417 149.62189644693709 0 1 0 0.84804810408105047 0 0.52991925155115449 forward_v I I I I #
face $-1 $68 $69 $24 $-1 $70 forward single #
loop $-1 $71 $72 $31 #
cone-surface $-1 51.02294988485793 18.920602324719582 3.0288378131779528 -0.84804810408105047 0 -0.52991925155115449 0.52991925155115449 0 -0.84804810408105047 1 I I 0 1 1 forward I I I I #
face $-1 $73 $74 $25 $-1 $75 reversed single #
loop $-1 $-1 $76 $32 #
plane-surface $-1 -145.43273498091889 11.995913943840506 56.933451722819868 0 1 0 -0.85716730853699208 0 0.51503806187062418 forward_v I I I I #
face $-1 $77 $78 $26 $-1 $79 forward single #
loop $-1 $80 $81 $33 #
cone-surface $-1 -51.908678391888664 15.2997448542 3.4964145172719374 0.85716730853699208 0 -0.51503806187062418 0.51503806187062418 0 0.85716730853699208 1 I I 0 1 1 forward I I I I #
face $-1 $82 $83 $27 $-1 $84 forward single #
loop $-1 $85 $86 $34 #
cone-surface $-1 -51.908678391888664 20.255491219739248 3.4964145172719374 0.85716730853699208 0 -0.51503806187062418 0.51503806187062418 0 0.85716730853699208 1 I I 0 1 1 forward I I I I #
face $-1 $87 $88 $21 $-1 $89 reversed single #
loop $-1 $-1 $90 $35 #
plane-surface $-1 0 0 -5.7951028891444416 0 0 1 1 0 0 forward_v I I I I #
coedge $-1 $91 $92 $93 $94 forward $36 $-1 #
face $-1 $95 $96 $22 $-1 $97 reversed single #
loop $-1 $-1 $98 $38 #
plane-surface $-1 0 0 -5.7951028891444416 0 0 1 1 0 0 forward_v I I I I #
coedge $-1 $99 $100 $101 $102 forward $39 $-1 #
face $-1 $103 $104 $23 $-1 $105 forward single #
loop $-1 $-1 $106 $41 #
plane-surface $-1 -3.2061180329764198 18.920602324719582 92.836262437520986 0.84804810408105047 0 0.52991925155115449 0.52991925155115449 0 -0.84804810408105047 forward_v I I I I #
coedge $-1 $107 $108 $109 $110 reversed $42 $-1 #
face $-1 $-1 $111 $24 $-1 $112 forward single #
loop $-1 $113 $114 $44 #
cone-surface $-1 49.240501172674513 18.920602324719582 1.9150402786476697 -0.84804810408105047 0 -0.52991925155115449 0.26495962577557725 0 -0.42402405204052523 1 I I -0.70710678118654746 0.70710678118654746 0.5 forward I I I I #
loop $-1 $-1 $115 $31 #
coedge $-1 $72 $72 $116 $117 reversed $45 $-1 #
face $-1 $118 $119 $25 $-1 $120 reversed single #
loop $-1 $-1 $121 $47 #
plane-surface $-1 -53.579515976439708 17.777618036969628 1.7424715938765658 -0.85716730853699208 0 0.51503806187062418 0.51503806187062418 0 0.85716730853699208 forward_v I I I I #
coedge $-1 $122 $123 $124 $125 reversed $48 $-1 #
face $-1 $-1 $126 $26 $-1 $127 forward single #
loop $-1 $128 $129 $50 #
cone-surface $-1 -51.026790385498117 15.2997448542 2.9665227620980588 0.85716730853699208 0 -0.51503806187062418 0.25751903093531209 0 0.42858365426849604 1 I I -0.70710678118654746 0.70710678118654746 0.5 forward I I I I #
loop $-1 $-1 $130 $33 #
coedge $-1 $81 $81 $131 $132 reversed $51 $-1 #
face $-1 $-1 $133 $27 $-1 $134 forward single #
loop $-1 $135 $136 $53 #
cone-surface $-1 -51.026790385498117 20.255491219739248 2.9665227620980588 0.85716730853699208 0 -0.51503806187062418 0.25751903093531209 0 0.42858365426849604 1 I I -0.70710678118654746 0.70710678118654746 0.5 forward I I I I #
loop $-1 $-1 $137 $34 #
coedge $-1 $86 $86 $138 $139 reversed $54 $-1 #
face $-1 $140 $141 $21 $-1 $142 reversed single #
loop $-1 $-1 $143 $56 #
plane-surface $-1 0 -23.559322130098749 0 0 1 0 0 0 1 forward_v I I I I #
coedge $-1 $144 $145 $146 $147 forward $57 $-1 #
coedge $-1 $148 $59 $149 $150 forward $36 $-1 #
coedge $-1 $59 $148 $151 $152 forward $36 $-1 #
coedge $-1 $153 $154 $59 $94 reversed $155 $-1 #
edge $-1 $156 -23.559322130098749 $157 23.559322130098749 $93 $158 forward 7 unknown #
face $-1 $159 $160 $22 $-1 $161 forward single #
loop $-1 $-1 $162 $60 #
plane-surface $-1 53.579515976439708 0 0 -1 0 0 0 0 1 forward_v I I I I #
coedge $-1 $163 $164 $165 $166 forward $61 $-1 #
coedge $-1 $165 $63 $162 $167 reversed $39 $-1 #
coedge $-1 $63 $165 $168 $169 reversed $39 $-1 #
coedge $-1 $170 $171 $63 $102 reversed $160 $-1 #
edge $-1 $172 -53.579515976439708 $173 53.579515976439708 $101 $174 forward 7 unknown #
face $-1 $175 $176 $23 $-1 $177 reversed single #
loop $-1 $-1 $178 $64 #
plane-surface $-1 0 0 5.7951028891444416 0 0 1 1 0 0 forward_v I I I I #
coedge $-1 $179 $180 $181 $182 reversed $65 $-1 #
coedge $-1 $108 $67 $183 $184 reversed $42 $-1 #
coedge $-1 $67 $107 $179 $185 reversed $42 $-1 #
coedge $-1 $181 $186 $67 $110 forward $187 $-1 #
edge $-1 $188 69.015845334324098 $189 72.85069966874768 $109 $190 forward 7 unknown #
loop $-1 $-1 $116 $68 #
plane-surface $-1 -3.2061180329764198 18.920602324719582 92.836262437520986 0.84804810408105047 0 0.52991925155115449 0.52991925155115449 0 -0.84804810408105047 forward_v I I I I #
loop $-1 $-1 $191 $44 #
coedge $-1 $114 $114 $115 $192 reversed $69 $-1 #
coedge $-1 $115 $115 $114 $192 forward $71 $-1 #
coedge $-1 $116 $116 $72 $117 forward $111 $-1 #
edge $-1 $193 0 $193 6.2831853071796004 $116 $194 forward 7 unknown #
face $-1 $195 $196 $25 $-1 $197 reversed single #
loop $-1 $-1 $198 $73 #
plane-surface $-1 0 23.559322130098749 0 0 -1 0 0 0 -1 forward_v I I I I #
coedge $-1 $199 $200 $201 $202 reversed $74 $-1 #
coedge $-1 $123 $76 $203 $204 reversed $48 $-1 #
coedge $-1 $76 $122 $199 $205 reversed $48 $-1 #
coedge $-1 $201 $206 $76 $125 forward $207 $-1 #
edge $-1 $208 19.136851514019739 $209 21.571917978877721 $124 $210 forward 7 unknown #
loop $-1 $-1 $131 $77 #
plane-surface $-1 -53.579515976439708 17.777618036969628 1.7424715938765658 -0.85716730853699208 0 0.51503806187062418 0.51503806187062418 0 0.85716730853699208 forward_v I I I I #
loop $-1 $-1 $211 $50 #
coedge $-1 $129 $129 $130 $212 reversed $78 $-1 #
coedge $-1 $130 $130 $129 $212 forward $80 $-1 #
coedge $-1 $131 $131 $81 $132 forward $126 $-1 #
edge $-1 $213 0 $213 6.2831853071796004 $131 $214 forward 7 unknown #
loop $-1 $-1 $138 $82 #
plane-surface $-1 -53.579515976439708 17.777618036969628 1.7424715938765658 -0.85716730853699208 0 0.51503806187062418 0.51503806187062418 0 0.85716730853699208 forward_v I I I I #
loop $-1 $-1 $215 $53 #
coedge $-1 $136 $136 $137 $216 reversed $83 $-1 #
coedge $-1 $137 $137 $136 $216 forward $85 $-1 #
coedge $-1 $138 $138 $86 $139 forward $133 $-1 #
edge $-1 $217 0 $217 6.2831853071796004 $138 $218 forward 7 unknown #
face $-1 $219 $220 $21 $-1 $221 reversed single #
loop $-1 $-1 $222 $87 #
plane-surface $-1 -53.579515976439708 0 0 1 0 0 0 0 -1 forward_v I I I I #
coedge $-1 $151 $223 $153 $224 reversed $88 $-1 #
coedge $-1 $225 $90 $223 $226 forward $57 $-1 #
coedge $-1 $90 $225 $227 $228 forward $57 $-1 #
coedge $-1 $154 $153 $90 $147 reversed $155 $-1 #
edge $-1 $229 -23.559322130098749 $230 23.559322130098749 $146 $231 forward 7 unknown #
coedge $-1 $92 $91 $232 $233 forward $36 $-1 #
coedge $-1 $234 $235 $91 $150 reversed $220 $-1 #
edge $-1 $157 -53.579515976439708 $236 53.579515976439708 $149 $237 forward 7 unknown #
coedge $-1 $238 $143 $92 $152 reversed $88 $-1 #
edge $-1 $239 -53.579515976439708 $156 53.579515976439708 $151 $240 forward 7 unknown #
coedge $-1 $146 $93 $143 $224 forward $155 $-1 #
coedge $-1 $93 $146 $234 $241 reversed $155 $-1 #
loop $-1 $-1 $153 $219 #
vertex $-1 $94 $242 #
vertex $-1 $94 $243 #
straight-curve $-1 53.579515976439708 0 5.7951028891444416 0 1 0 I I #
face $-1 $244 $245 $22 $-1 $246 reversed single #
loop $-1 $-1 $171 $95 #
plane-surface $-1 0 -26.302446560000288 -2.7951028891444416 0 0 1 1 0 0 forward_v I I I I #
coedge $-1 $247 $248 $99 $167 forward $96 $-1 #
coedge $-1 $249 $98 $248 $250 forward $61 $-1 #
coedge $-1 $98 $249 $251 $252 forward $61 $-1 #
coedge $-1 $100 $99 $98 $166 reversed $39 $-1 #
edge $-1 $253 -53.579515976439708 $254 53.579515976439708 $98 $255 forward 7 unknown #
edge $-1 $254 -5.7951028891444416 $173 -2.7951028891444416 $162 $256 forward 7 unknown #
coedge $-1 $251 $257 $100 $169 forward $258 $-1 #
edge $-1 $172 2.7951028891444416 $253 5.7951028891444416 $168 $259 forward 7 unknown #
coedge $-1 $260 $101 $257 $261 forward $160 $-1 #
coedge $-1 $101 $260 $247 $262 forward $160 $-1 #
vertex $-1 $169 $263 #
vertex $-1 $262 $264 #
straight-curve $-1 0 -23.559322130098749 -2.7951028891444416 1 0 0 I I #
face $-1 $-1 $187 $23 $-1 $265 reversed single #
loop $-1 $-1 $266 $103 #
plane-surface $-1 0 23.559322130098749 0 0 -1 0 0 0 -1 forward_v I I I I #
coedge $-1 $183 $267 $268 $269 forward $104 $-1 #
coedge $-1 $268 $106 $108 $185 forward $65 $-1 #
coedge $-1 $106 $268 $266 $270 reversed $65 $-1 #
coedge $-1 $271 $109 $106 $182 forward $187 $-1 #
edge $-1 $189 4.8215813569806265 $272 14.099020967738959 $181 $273 forward 7 unknown #
coedge $-1 $274 $178 $107 $184 forward $104 $-1 #
edge $-1 $275 7.3482851886500455 $188 9.744568051527871 $183 $276 forward 7 unknown #
edge $-1 $189 -107.15903195287945 $275 -102.63705458394345 $108 $277 forward 7 unknown #
coedge $-1 $109 $271 $274 $278 reversed $187 $-1 #
loop $-1 $-1 $181 $175 #
vertex $-1 $278 $279 #
vertex $-1 $110 $280 #
straight-curve $-1 53.579515976439708 14.281882519340417 74.810948223468543 0 0 -1 I I #
coedge $-1 $191 $191 $-1 $281 reversed $113 $-1 #
edge $-1 $282 0 $282 6.2831853071796004 $114 $283 forward 7 unknown #
vertex $-1 $117 $284 #
ellipse-curve $-1 52.381374545000803 18.920602324719582 3.8776757219326456 0.84804810408105047 0 0.52991925155115449 0.52991925155115449 0 -0.84804810408105047 1 I I #
face $-1 $-1 $207 $25 $-1 $285 forward single #
loop $-1 $-1 $286 $118 #
plane-surface $-1 -53.579515976439708 0 0 1 0 0 0 0 -1 forward_v I I I I #
coedge $-1 $287 $288 $200 $289 forward $119 $-1 #
coedge $-1 $290 $121 $123 $205 forward $74 $-1 #
coedge $-1 $121 $290 $198 $289 reversed $74 $-1 #
coedge $-1 $291 $124 $121 $202 forward $207 $-1 #
edge $-1 $209 3.1071049253556922 $292 14.670513111613936 $201 $293 forward 7 unknown #
coedge $-1 $294 $286 $122 $204 forward $196 $-1 #
edge $-1 $295 -26.724254267533368 $208 -22.671622972265492 $203 $296 forward 7 unknown #
edge $-1 $209 -4.7279349724441584 $295 0 $123 $297 forward 7 unknown #
coedge $-1 $124 $291 $294 $298 forward $207 $-1 #
loop $-1 $-1 $201 $195 #
vertex $-1 $204 $299 #
vertex $-1 $125 $300 #
straight-curve $-1 -72.716367490459447 11.995913943840506 5.7951028891444416 1 0 0 I I #
coedge $-1 $211 $211 $-1 $301 reversed $128 $-1 #
edge $-1 $302 0 $302 6.2831853071796004 $129 $303 forward 7 unknown #
vertex $-1 $132 $304 #
ellipse-curve $-1 -52.361982744010717 15.2997448542 3.768787241510505 -0.85716730853699208 0 0.51503806187062418 0.51503806187062418 0 0.85716730853699208 1 I I #
coedge $-1 $215 $215 $-1 $305 reversed $135 $-1 #
edge $-1 $306 0 $306 6.2831853071796004 $136 $307 forward 7 unknown #
vertex $-1 $139 $308 #
ellipse-curve $-1 -52.361982744010717 20.255491219739248 3.768787241510505 -0.85716730853699208 0 0.51503806187062418 0.51503806187062418 0 0.85716730853699208 1 I I #
face $-1 $-1 $155 $21 $-1 $309 reversed single #
loop $-1 $-1 $234 $140 #
plane-surface $-1 0 23.559322130098749 0 0 -1 0 0 0 -1 forward_v I I I I #
coedge $-1 $310 $232 $235 $311 forward $141 $-1 #
coedge $-1 $143 $238 $144 $226 reversed $88 $-1 #
edge $-1 $156 -5.7951028891444416 $230 5.7951028891444416 $153 $312 forward 7 unknown #
coedge $-1 $145 $144 $310 $313 forward $57 $-1 #
edge $-1 $230 -53.579515976439708 $314 53.579515976439708 $223 $315 forward 7 unknown #
coedge $-1 $235 $234 $145 $228 reversed $220 $-1 #
edge $-1 $316 -53.579515976439708 $229 53.579515976439708 $227 $317 forward 7 unknown #
vertex $-1 $147 $318 #
vertex $-1 $224 $319 #
straight-curve $-1 53.579515976439708 0 -5.7951028891444416 0 -1 0 I I #
coedge $-1 $222 $320 $148 $233 reversed $141 $-1 #
edge $-1 $236 -23.559322130098749 $239 23.559322130098749 $232 $321 forward 7 unknown #
coedge $-1 $227 $149 $154 $241 forward $220 $-1 #
coedge $-1 $149 $227 $222 $311 reversed $220 $-1 #
vertex $-1 $150 $322 #
straight-curve $-1 0 23.559322130098749 5.7951028891444416 -1 0 0 I I #
coedge $-1 $223 $151 $320 $323 forward $88 $-1 #
vertex $-1 $233 $324 #
straight-curve $-1 0 -23.559322130098749 5.7951028891444416 1 0 0 I I #
edge $-1 $157 -5.7951028891444416 $229 5.7951028891444416 $154 $325 forward 7 unknown #
point $-1 53.579515976439708 -23.559322130098749 5.7951028891444416 #
point $-1 53.579515976439708 23.559322130098749 5.7951028891444416 #
face $-1 $-1 $258 $22 $-1 $326 reversed single #
loop $-1 $-1 $327 $159 #
plane-surface $-1 0 -29.045570989901826 -4.2951028891444416 0 1 0 0 0 1 forward_v I I I I #
coedge $-1 $328 $162 $171 $262 reversed $96 $-1 #
coedge $-1 $162 $328 $163 $250 reversed $96 $-1 #
coedge $-1 $164 $163 $329 $330 forward $61 $-1 #
edge $-1 $254 23.559322130098749 $331 29.045570989901826 $248 $332 forward 7 unknown #
coedge $-1 $333 $168 $164 $252 reversed $258 $-1 #
edge $-1 $334 -29.045570989901826 $253 -23.559322130098749 $251 $335 forward 7 unknown #
vertex $-1 $169 $336 #
vertex $-1 $250 $337 #
straight-curve $-1 0 -23.559322130098749 -5.7951028891444416 1 0 0 I I #
straight-curve $-1 53.579515976439708 -23.559322130098749 0 0 0 1 I I #
coedge $-1 $168 $333 $170 $261 reversed $258 $-1 #
loop $-1 $-1 $168 $244 #
straight-curve $-1 -53.579515976439708 -23.559322130098749 0 0 0 -1 I I #
coedge $-1 $171 $170 $338 $339 forward $160 $-1 #
edge $-1 $172 -2.7431244299015383 $340 2.7431244299015383 $257 $341 forward 7 unknown #
edge $-1 $342 -2.7431244299015383 $173 2.7431244299015383 $247 $343 forward 7 unknown #
point $-1 -53.579515976439708 -23.559322130098749 -2.7951028891444416 #
point $-1 53.579515976439708 -23.559322130098749 -2.7951028891444416 #
plane-surface $-1 53.579515976439708 0 0 -1 0 0 0 0 1 forward_v I I I I #
coedge $-1 $344 $345 $180 $270 forward $176 $-1 #
coedge $-1 $178 $274 $344 $346 forward $104 $-1 #
coedge $-1 $180 $179 $178 $269 reversed $65 $-1 #
edge $-1 $347 -14.099020967738955 $275 -4.8215813569806265 $178 $348 forward 7 unknown #
edge $-1 $272 -66.944731943614428 $347 -62.422754574678436 $266 $349 forward 7 unknown #
coedge $-1 $186 $181 $345 $350 reversed $187 $-1 #
vertex $-1 $182 $351 #
straight-curve $-1 53.579515976439708 9.4603011623597908 1.960248554720863 0 1 0 I I #
coedge $-1 $267 $183 $186 $278 forward $104 $-1 #
vertex $-1 $184 $352 #
straight-curve $-1 43.834947924911837 14.281882519340417 5.7951028891444452 1 0 0 I I #
straight-curve $-1 -3.2061180329764198 14.281882519340417 92.836262437520986 -0.52991925155115449 0 0.84804810408105047 I I #
edge $-1 $188 14.281882519340417 $353 23.559322130098749 $186 $354 forward 7 unknown #
point $-1 53.579515976439708 14.281882519340417 5.7951028891444416 #
point $-1 53.579515976439701 14.281882519340417 1.960248554720863 #
edge $-1 $355 1 $355 0 $191 $-1 forward 7 unknown #
vertex $-1 $192 $356 #
ellipse-curve $-1 49.664525224715035 18.920602324719582 2.179999904423247 0.84804810408105047 0 0.52991925155115449 0.52991925155115449 0 -0.84804810408105047 1 I I #
point $-1 52.911293796551973 18.920602324719582 3.0296276178516077 #
plane-surface $-1 0 0 5.7951028891444416 0 0 1 1 0 0 forward_v I I I I #
coedge $-1 $203 $357 $290 $358 forward $196 $-1 #
coedge $-1 $288 $198 $357 $359 reversed $119 $-1 #
coedge $-1 $198 $287 $291 $360 reversed $119 $-1 #
edge $-1 $292 8.3230152166290008 $361 13.050950189073159 $198 $362 forward 7 unknown #
coedge $-1 $200 $199 $286 $358 reversed $74 $-1 #
coedge $-1 $206 $201 $288 $360 forward $207 $-1 #
vertex $-1 $360 $363 #
straight-curve $-1 -51.144449511581726 8.8888090184848139 5.7951028891444416 0 1 0 I I #
coedge $-1 $357 $203 $206 $298 reversed $196 $-1 #
vertex $-1 $204 $364 #
straight-curve $-1 -53.579515976439708 11.995913943840506 28.466725861409934 0 0 1 I I #
straight-curve $-1 -53.579515976439708 11.995913943840506 1.7424715938765658 -0.51503806187062418 0 -0.85716730853699208 I I #
edge $-1 $365 -23.559322130098749 $208 -11.995913943840506 $294 $366 forward 7 unknown #
point $-1 -53.579515976439708 11.995913943840506 5.7951028891444416 #
point $-1 -51.144449511581726 11.995913943840506 5.7951028891444416 #
edge $-1 $367 1 $367 0 $211 $-1 forward 7 unknown #
vertex $-1 $212 $368 #
ellipse-curve $-1 -51.45537403976661 15.2997448542 3.2240417930333707 -0.85716730853699208 0 0.51503806187062418 0.51503806187062418 0 0.85716730853699208 1 I I #
point $-1 -51.846944682140091 15.2997448542 4.6259545500474957 #
edge $-1 $369 1 $369 0 $215 $-1 forward 7 unknown #
vertex $-1 $216 $370 #
ellipse-curve $-1 -51.45537403976661 20.255491219739248 3.2240417930333707 -0.85716730853699208 0 0.51503806187062418 0.51503806187062418 0 0.85716730853699208 1 I I #
point $-1 -51.846944682140091 20.255491219739248 4.6259545500474957 #
plane-surface $-1 53.579515976439708 0 0 -1 0 0 0 0 1 forward_v I I I I #
coedge $-1 $320 $222 $225 $313 reversed $141 $-1 #
edge $-1 $236 -5.7951028891444416 $316 5.7951028891444416 $235 $371 forward 7 unknown #
straight-curve $-1 53.579515976439708 -23.559322130098749 0 0 0 -1 I I #
edge $-1 $314 -23.559322130098749 $316 23.559322130098749 $310 $372 forward 7 unknown #
vertex $-1 $313 $373 #
straight-curve $-1 0 -23.559322130098749 -5.7951028891444416 -1 0 0 I I #
vertex $-1 $228 $374 #
straight-curve $-1 0 23.559322130098749 -5.7951028891444416 1 0 0 I I #
point $-1 53.579515976439708 23.559322130098749 -5.7951028891444416 #
point $-1 53.579515976439708 -23.559322130098749 -5.7951028891444416 #
coedge $-1 $232 $310 $238 $323 reversed $141 $-1 #
straight-curve $-1 -53.579515976439708 0 5.7951028891444416 0 -1 0 I I #
point $-1 -53.579515976439708 23.559322130098749 5.7951028891444416 #
edge $-1 $239 -5.7951028891444416 $314 5.7951028891444416 $320 $375 forward 7 unknown #
point $-1 -53.579515976439708 -23.559322130098749 5.7951028891444416 #
straight-curve $-1 53.579515976439708 23.559322130098749 0 0 0 -1 I I #
plane-surface $-1 -53.579515976439708 0 0 1 0 0 0 0 -1 forward_v I I I I #
coedge $-1 $329 $338 $333 $376 forward $245 $-1 #
coedge $-1 $248 $247 $377 $378 forward $96 $-1 #
coedge $-1 $377 $327 $249 $330 reversed $245 $-1 #
edge $-1 $331 -53.579515976439708 $334 53.579515976439708 $329 $379 forward 7 unknown #
vertex $-1 $378 $380 #
straight-curve $-1 53.579515976439708 0 -5.7951028891444416 0 -1 0 I I #
coedge $-1 $257 $251 $327 $376 reversed $258 $-1 #
vertex $-1 $252 $381 #
straight-curve $-1 -53.579515976439708 0 -5.7951028891444416 0 1 0 I I #
point $-1 -53.579515976439708 -23.559322130098749 -5.7951028891444416 #
point $-1 53.579515976439708 -23.559322130098749 -5.7951028891444416 #
coedge $-1 $327 $377 $260 $339 reversed $245 $-1 #
edge $-1 $340 -53.579515976439708 $342 53.579515976439708 $338 $382 forward 7 unknown #
vertex $-1 $261 $383 #
straight-curve $-1 -53.579515976439708 -26.302446560000288 -2.7951028891444416 0 -1 0 I I #
vertex $-1 $262 $384 #
straight-curve $-1 53.579515976439708 -26.302446560000288 -2.7951028891444416 0 1 0 I I #
coedge $-1 $345 $266 $267 $346 reversed $176 $-1 #
coedge $-1 $266 $344 $271 $350 forward $176 $-1 #
edge $-1 $353 -53.579515976439708 $347 -51.183233113561883 $344 $385 forward 7 unknown #
vertex $-1 $269 $386 #
straight-curve $-1 51.18323311356189 9.4603011623597908 5.7951028891444381 0 -1 0 I I #
straight-curve $-1 18.104213729586885 23.559322130098749 58.732601557717217 -0.52991925155115449 0 0.84804810408105047 I I #
edge $-1 $353 -5.7951028891444416 $272 -1.9602485547208577 $271 $387 forward 7 unknown #
point $-1 53.579515976439708 23.559322130098749 1.9602485547208577 #
point $-1 51.183233113561883 14.281882519340417 5.7951028891444452 #
vertex $-1 $278 $388 #
straight-curve $-1 53.579515976439708 0 5.7951028891444416 0 1 0 I I #
vertex $-1 $281 $389 #
point $-1 50.194444476266192 18.920602324719582 1.3319518003421964 #
coedge $-1 $286 $294 $287 $359 forward $196 $-1 #
edge $-1 $361 -14.670513111613936 $295 -3.1071049253556922 $286 $390 forward 7 unknown #
edge $-1 $365 -5.7951028891444416 $361 -1.7424715938765658 $287 $391 forward 7 unknown #
edge $-1 $292 51.144449511581726 $365 53.579515976439708 $288 $392 forward 7 unknown #
vertex $-1 $358 $393 #
straight-curve $-1 -46.857779885489407 23.559322130098749 12.92931944129475 -0.51503806187062429 0 -0.85716730853699219 I I #
point $-1 -51.144449511581726 23.559322130098749 5.7951028891444416 #
point $-1 -53.579515976439708 11.995913943840506 1.7424715938765658 #
vertex $-1 $360 $394 #
straight-curve $-1 -53.579515976439708 0 5.7951028891444416 0 -1 0 I I #
vertex $-1 $301 $395 #
point $-1 -50.940335977895991 15.2997448542 4.0812091015703631 #
vertex $-1 $305 $396 #
point $-1 -50.940335977895991 20.255491219739248 4.0812091015703631 #
straight-curve $-1 -53.579515976439708 23.559322130098749 0 0 0 -1 I I #
straight-curve $-1 -53.579515976439708 0 -5.7951028891444416 0 1 0 I I #
point $-1 -53.579515976439708 -23.559322130098749 -5.7951028891444416 #
point $-1 -53.579515976439708 23.559322130098749 -5.7951028891444416 #
straight-curve $-1 -53.579515976439708 -23.559322130098749 0 0 0 -1 I I #
edge $-1 $340 -1.5 $334 1.5 $333 $397 forward 7 unknown #
coedge $-1 $338 $329 $328 $378 reversed $245 $-1 #
edge $-1 $342 -1.5 $331 1.5 $328 $398 forward 7 unknown #
straight-curve $-1 0 -29.045570989901826 -5.7951028891444416 -1 0 0 I I #
point $-1 53.579515976439708 -29.045570989901826 -5.7951028891444416 #
point $-1 -53.579515976439708 -29.045570989901826 -5.7951028891444416 #
straight-curve $-1 0 -29.045570989901826 -2.7951028891444416 1 0 0 I I #
point $-1 -53.579515976439708 -29.045570989901826 -2.7951028891444416 #
point $-1 53.579515976439708 -29.045570989901826 -2.7951028891444416 #
straight-curve $-1 0 23.559322130098749 5.7951028891444416 -1 0 0 I I #
point $-1 51.183233113561883 23.559322130098746 5.7951028891444452 #
straight-curve $-1 53.579515976439708 23.559322130098749 0 0 0 -1 I I #
point $-1 53.579515976439708 23.559322130098749 5.7951028891444416 #
point $-1 48.816477120633991 18.920602324719582 1.6500806528720924 #
straight-curve $-1 -53.579515976439708 8.8888090184848139 1.7424715938765676 0 -1 0 I I #
straight-curve $-1 -53.579515976439708 23.559322130098749 0 0 0 -1 I I #
straight-curve $-1 0 23.559322130098749 5.7951028891444416 -1 0 0 I I #
point $-1 -53.579515976439708 23.559322130098749 1.7424715938765658 #
point $-1 -53.579515976439708 23.559322130098749 5.7951028891444416 #
point $-1 -50.598206731229624 15.2997448542 2.7090037311627468 #
point $-1 -50.598206731229624 20.255491219739248 2.7090037311627468 #
straight-curve $-1 -53.579515976439708 -29.045570989901826 -4.2951028891444416 0 0 -1 I I #
straight-curve $-1 53.579515976439708 -29.045570989901826 -4.2951028891444416 0 0 -1 I I #
End-of-ACIS-data 