500 0 6 0           
7 Unknown 11 ACIS 5.0 NT 24 Thu Mar 25 21:07:14 1999 
-1 9.9999999999999995e-007 1e-010 
body $-1 $6 $-1 $7 #
body $-1 $8 $-1 $9 #
body $-1 $10 $-1 $11 #
body $-1 $12 $-1 $13 #
body $-1 $14 $-1 $15 #
body $-1 $16 $-1 $17 #
lump $-1 $-1 $18 $0 #
transform $-1 1 0 0 0 1 0 0 0 1 75.98498489333781 33.27482365590361 11.510466969052287 1 rotate no_reflect no_shear #
lump $-1 $-1 $19 $1 #
transform $-1 1 0 0 0 1 0 0 0 1 75.98498489333781 33.27482365590361 11.510466969052287 1 rotate no_reflect no_shear #
lump $-1 $-1 $20 $2 #
transform $-1 1 0 0 0 1 0 0 0 1 75.98498489333781 33.27482365590361 11.510466969052287 1 rotate no_reflect no_shear #
lump $-1 $-1 $21 $3 #
transform $-1 1 0 0 0 1 0 0 0 1 75.98498489333781 33.27482365590361 11.510466969052287 1 rotate no_reflect no_shear #
lump $-1 $-1 $22 $4 #
transform $-1 1 0 0 0 1 0 0 0 1 75.98498489333781 33.27482365590361 11.510466969052287 1 rotate no_reflect no_shear #
lump $-1 $-1 $23 $5 #
transform $-1 1 0 0 0 1 0 0 0 1 75.98498489333781 33.27482365590361 11.510466969052287 1 rotate no_reflect no_shear #
shell $-1 $-1 $-1 $24 $-1 $6 #
shell $-1 $-1 $-1 $25 $-1 $8 #
shell $-1 $-1 $-1 $26 $-1 $10 #
shell $-1 $-1 $-1 $27 $-1 $12 #
shell $-1 $-1 $-1 $28 $-1 $14 #
shell $-1 $-1 $-1 $29 $-1 $16 #
face $-1 $30 $31 $18 $-1 $32 forward single #
face $-1 $33 $34 $19 $-1 $35 reversed single #
face $-1 $36 $37 $20 $-1 $38 reversed single #
face $-1 $39 $40 $21 $-1 $41 reversed single #
face $-1 $42 $43 $22 $-1 $44 forward single #
face $-1 $45 $46 $23 $-1 $47 forward single #
face $-1 $48 $49 $18 $-1 $50 reversed single #
loop $-1 $-1 $51 $24 #
plane-surface $-1 0 0 11.510466969052287 0 0 1 1 0 0 forward_v I I I I #
face $-1 $52 $53 $19 $-1 $54 reversed single #
loop $-1 $-1 $55 $25 #
plane-surface $-1 0 -27.075832811879945 4.7480720157627623 0 0 1 1 0 0 forward_v I I I I #
face $-1 $56 $57 $20 $-1 $58 reversed single #
loop $-1 $-1 $59 $26 #
plane-surface $-1 0 27.075832811879941 4.7480720157627623 0 0 1 1 0 0 forward_v I I I I #
face $-1 $60 $61 $21 $-1 $62 reversed single #
loop $-1 $-1 $63 $27 #
plane-surface $-1 49.793072370217843 -10.257960005945423 215.61850426590843 0 -1 0 -0.61566148304635926 0 -0.78801074757464917 forward_v I I I I #
face $-1 $64 $65 $22 $-1 $66 forward single #
loop $-1 $67 $68 $28 #
cone-surface $-1 69.064369094030226 -17.842875693024606 5.5909847874411662 -0.61566148304635926 0 -0.78801074757464917 1.1820161213619738 0 -0.92349222456953894 1 I I 0 1 1.5 forward I I I I #
face $-1 $69 $70 $23 $-1 $71 forward single #
loop $-1 $72 $73 $29 #
cone-surface $-1 69.064369094030226 -13.291926280777098 5.5909847874411662 -0.61566148304635926 0 -0.78801074757464917 1.1820161213619738 0 -0.92349222456953894 1 I I 0 1 1.5 forward I I I I #
face $-1 $74 $75 $18 $-1 $76 reversed single #
loop $-1 $-1 $77 $30 #
plane-surface $-1 0 0 -11.510466969052287 0 0 1 1 0 0 forward_v I I I I #
coedge $-1 $78 $79 $80 $81 forward $31 $-1 #
face $-1 $82 $83 $19 $-1 $84 reversed single #
loop $-1 $-1 $85 $33 #
plane-surface $-1 0 -20.876841967856279 8.1292694924075253 0 -1 0 0 0 -1 forward_v I I I I #
coedge $-1 $86 $87 $88 $89 reversed $34 $-1 #
face $-1 $90 $91 $20 $-1 $92 forward single #
loop $-1 $-1 $93 $36 #
plane-surface $-1 0 20.876841967856276 8.1292694924075253 0 1 0 0 0 1 forward_v I I I I #
coedge $-1 $94 $95 $96 $97 reversed $37 $-1 #
face $-1 $98 $99 $21 $-1 $100 forward single #
loop $-1 $-1 $101 $39 #
plane-surface $-1 -43.768984607157279 -15.56740098690085 95.864534765413325 0.61566148304635926 0 0.78801074757464917 0.78801074757464917 0 -0.61566148304635926 forward_v I I I I #
coedge $-1 $102 $103 $104 $105 reversed $40 $-1 #
face $-1 $-1 $106 $22 $-1 $107 forward single #
loop $-1 $108 $109 $42 #
cone-surface $-1 67.574851414211736 -17.842875693024606 3.6844891356561096 -0.61566148304635926 0 -0.78801074757464917 0.59100806068098688 0 -0.46174611228476947 1 I I -0.70710678118654757 0.70710678118654757 0.75 forward I I I I #
loop $-1 $-1 $110 $28 #
coedge $-1 $68 $68 $111 $112 reversed $43 $-1 #
face $-1 $-1 $113 $23 $-1 $114 forward single #
loop $-1 $115 $116 $45 #
cone-surface $-1 67.574851414211736 -13.291926280777098 3.6844891356561096 -0.61566148304635926 0 -0.78801074757464917 0.59100806068098688 0 -0.46174611228476947 1 I I -0.70710678118654757 0.70710678118654757 0.75 forward I I I I #
loop $-1 $-1 $117 $29 #
coedge $-1 $73 $73 $118 $119 reversed $46 $-1 #
face $-1 $120 $121 $18 $-1 $122 reversed single #
loop $-1 $-1 $123 $48 #
plane-surface $-1 0 -33.27482365590361 0 0 1 0 0 0 1 forward_v I I I I #
coedge $-1 $124 $125 $126 $127 forward $49 $-1 #
coedge $-1 $128 $51 $129 $130 forward $31 $-1 #
coedge $-1 $51 $128 $131 $132 forward $31 $-1 #
coedge $-1 $133 $134 $51 $81 reversed $135 $-1 #
edge $-1 $136 -33.27482365590361 $137 33.27482365590361 $80 $138 forward 7 unknown #
face $-1 $139 $140 $19 $-1 $141 reversed single #
loop $-1 $-1 $142 $52 #
plane-surface $-1 -75.98498489333781 0 0 1 0 0 0 0 -1 forward_v I I I I #
coedge $-1 $143 $144 $87 $145 reversed $53 $-1 #
coedge $-1 $146 $55 $147 $148 reversed $34 $-1 #
coedge $-1 $55 $146 $85 $145 forward $34 $-1 #
coedge $-1 $149 $150 $55 $89 forward $151 $-1 #
edge $-1 $152 -19.736907249963636 $153 -7.338925561916307 $88 $154 forward 7 unknown #
face $-1 $155 $156 $20 $-1 $157 reversed single #
loop $-1 $-1 $158 $56 #
plane-surface $-1 0 0 11.510466969052287 0 0 1 1 0 0 forward_v I I I I #
coedge $-1 $159 $160 $161 $162 reversed $57 $-1 #
coedge $-1 $163 $59 $159 $164 forward $37 $-1 #
coedge $-1 $59 $163 $165 $166 reversed $37 $-1 #
coedge $-1 $167 $168 $59 $97 forward $156 $-1 #
edge $-1 $169 7.3389255619163052 $170 19.736907249963632 $96 $171 forward 7 unknown #
face $-1 $172 $173 $21 $-1 $174 forward single #
loop $-1 $-1 $104 $60 #
plane-surface $-1 0 0 11.510466969052287 0 0 1 1 0 0 forward_v I I I I #
coedge $-1 $175 $176 $177 $178 reversed $61 $-1 #
coedge $-1 $103 $63 $179 $180 reversed $40 $-1 #
coedge $-1 $63 $102 $175 $181 reversed $40 $-1 #
coedge $-1 $177 $182 $63 $105 forward $99 $-1 #
edge $-1 $183 -51.088448708228889 $184 -39.302760244681131 $104 $185 forward 7 unknown #
loop $-1 $-1 $111 $64 #
plane-surface $-1 -43.768984607157279 -15.56740098690085 95.864534765413325 0.61566148304635926 0 0.78801074757464917 0.78801074757464917 0 -0.61566148304635926 forward_v I I I I #
loop $-1 $-1 $186 $42 #
coedge $-1 $109 $109 $110 $187 reversed $65 $-1 #
coedge $-1 $110 $110 $109 $187 forward $67 $-1 #
coedge $-1 $111 $111 $68 $112 forward $106 $-1 #
edge $-1 $188 0 $188 6.2831853071796004 $111 $189 forward 7 unknown #
loop $-1 $-1 $118 $69 #
plane-surface $-1 -43.768984607157279 -15.56740098690085 95.864534765413325 0.61566148304635926 0 0.78801074757464917 0.78801074757464917 0 -0.61566148304635926 forward_v I I I I #
loop $-1 $-1 $190 $45 #
coedge $-1 $116 $116 $117 $191 reversed $70 $-1 #
coedge $-1 $117 $117 $116 $191 forward $72 $-1 #
coedge $-1 $118 $118 $73 $119 forward $113 $-1 #
edge $-1 $192 0 $192 6.2831853071796004 $118 $193 forward 7 unknown #
face $-1 $194 $195 $18 $-1 $196 reversed single #
loop $-1 $-1 $197 $74 #
plane-surface $-1 -75.98498489333781 0 0 1 0 0 0 0 -1 forward_v I I I I #
coedge $-1 $198 $131 $199 $200 forward $75 $-1 #
coedge $-1 $201 $77 $198 $202 forward $49 $-1 #
coedge $-1 $77 $201 $203 $204 forward $49 $-1 #
coedge $-1 $134 $133 $77 $127 reversed $135 $-1 #
edge $-1 $205 -33.27482365590361 $206 33.27482365590361 $126 $207 forward 7 unknown #
coedge $-1 $79 $78 $208 $209 forward $31 $-1 #
coedge $-1 $210 $211 $78 $130 reversed $195 $-1 #
edge $-1 $137 -75.98498489333781 $212 75.98498489333781 $129 $213 forward 7 unknown #
coedge $-1 $123 $214 $79 $132 reversed $75 $-1 #
edge $-1 $215 -75.98498489333781 $136 75.98498489333781 $131 $216 forward 7 unknown #
coedge $-1 $126 $80 $214 $217 forward $135 $-1 #
coedge $-1 $80 $126 $210 $218 reversed $135 $-1 #
loop $-1 $-1 $133 $194 #
vertex $-1 $81 $219 #
vertex $-1 $81 $220 #
straight-curve $-1 75.98498489333781 0 11.510466969052287 0 1 0 I I #
face $-1 $221 $222 $19 $-1 $223 forward single #
loop $-1 $-1 $147 $82 #
plane-surface $-1 0 -33.27482365590361 0 0 1 0 0 0 1 forward_v I I I I #
coedge $-1 $224 $225 $143 $226 forward $83 $-1 #
coedge $-1 $227 $85 $142 $226 reversed $53 $-1 #
coedge $-1 $85 $227 $149 $228 reversed $53 $-1 #
edge $-1 $229 -75.98498489333781 $153 75.98498489333781 $85 $230 forward 7 unknown #
coedge $-1 $87 $86 $224 $231 reversed $34 $-1 #
coedge $-1 $232 $233 $86 $148 forward $140 $-1 #
edge $-1 $234 -75.98498489333781 $152 75.98498489333781 $147 $235 forward 7 unknown #
coedge $-1 $236 $88 $144 $228 forward $151 $-1 #
coedge $-1 $88 $236 $232 $237 forward $151 $-1 #
loop $-1 $-1 $149 $221 #
vertex $-1 $148 $238 #
vertex $-1 $89 $239 #
straight-curve $-1 75.98498489333781 -13.537916405939972 4.7480720157627623 0 1 0 I I #
face $-1 $240 $241 $20 $-1 $242 reversed single #
loop $-1 $-1 $168 $90 #
plane-surface $-1 75.98498489333781 0 0 -1 0 0 0 0 1 forward_v I I I I #
coedge $-1 $243 $244 $160 $245 forward $91 $-1 #
coedge $-1 $246 $93 $94 $164 reversed $57 $-1 #
coedge $-1 $93 $246 $158 $245 reversed $57 $-1 #
coedge $-1 $247 $248 $93 $162 forward $241 $-1 #
edge $-1 $249 0.68343726955899964 $250 7.4458322228485256 $161 $251 forward 7 unknown #
coedge $-1 $95 $94 $248 $252 reversed $37 $-1 #
edge $-1 $169 -75.98498489333781 $249 75.98498489333781 $159 $253 forward 7 unknown #
coedge $-1 $254 $255 $95 $166 forward $256 $-1 #
edge $-1 $170 -75.98498489333781 $257 75.98498489333781 $165 $258 forward 7 unknown #
coedge $-1 $259 $96 $255 $260 reversed $156 $-1 #
coedge $-1 $96 $259 $246 $261 forward $156 $-1 #
vertex $-1 $97 $262 #
vertex $-1 $166 $263 #
straight-curve $-1 75.98498489333781 13.537916405939971 4.7480720157627623 0 1 0 I I #
face $-1 $-1 $264 $21 $-1 $265 reversed single #
loop $-1 $-1 $266 $98 #
plane-surface $-1 0 -20.876841967856279 8.1292694924075253 0 -1 0 0 0 -1 forward_v I I I I #
coedge $-1 $267 $101 $103 $181 forward $61 $-1 #
coedge $-1 $101 $267 $266 $268 forward $61 $-1 #
coedge $-1 $269 $104 $101 $178 forward $99 $-1 #
edge $-1 $184 2.4742595124949975 $270 13.093141474405854 $177 $271 forward 7 unknown #
coedge $-1 $272 $273 $102 $180 forward $264 $-1 #
edge $-1 $274 -105.506774344916 $183 -96.298785163901925 $179 $275 forward 7 unknown #
edge $-1 $184 137.01371633477544 $274 151.96996978667559 $103 $276 forward 7 unknown #
coedge $-1 $104 $269 $272 $277 forward $99 $-1 #
vertex $-1 $180 $278 #
vertex $-1 $105 $279 #
straight-curve $-1 24.896536185108921 -10.257960005945423 11.510466969052288 -1 0 0 I I #
coedge $-1 $186 $186 $-1 $280 reversed $108 $-1 #
edge $-1 $281 0 $281 6.2831853071796004 $109 $282 forward 7 unknown #
vertex $-1 $112 $283 #
ellipse-curve $-1 70.092140661563946 -17.842875693024606 6.9064723785452333 0.61566148304635926 0 0.78801074757464917 1.1820161213619738 0 -0.92349222456953894 1 I I #
coedge $-1 $190 $190 $-1 $284 reversed $115 $-1 #
edge $-1 $285 0 $285 6.2831853071796004 $116 $286 forward 7 unknown #
vertex $-1 $119 $287 #
ellipse-curve $-1 70.092140661563946 -13.291926280777098 6.9064723785452333 0.61566148304635926 0 0.78801074757464917 1.1820161213619738 0 -0.92349222456953894 1 I I #
face $-1 $-1 $135 $18 $-1 $288 reversed single #
loop $-1 $-1 $210 $120 #
plane-surface $-1 0 33.27482365590361 0 0 -1 0 0 0 -1 forward_v I I I I #
coedge $-1 $289 $208 $211 $290 forward $121 $-1 #
coedge $-1 $214 $123 $124 $202 reversed $75 $-1 #
coedge $-1 $208 $289 $123 $200 reversed $121 $-1 #
edge $-1 $215 -11.510466969052287 $291 11.510466969052287 $199 $292 forward 7 unknown #
coedge $-1 $125 $124 $289 $293 forward $49 $-1 #
edge $-1 $206 -75.98498489333781 $291 75.98498489333781 $198 $294 forward 7 unknown #
coedge $-1 $211 $210 $125 $204 reversed $195 $-1 #
edge $-1 $295 -75.98498489333781 $205 75.98498489333781 $203 $296 forward 7 unknown #
vertex $-1 $127 $297 #
vertex $-1 $217 $298 #
straight-curve $-1 75.98498489333781 0 -11.510466969052287 0 -1 0 I I #
coedge $-1 $197 $199 $128 $209 reversed $121 $-1 #
edge $-1 $212 -33.27482365590361 $215 33.27482365590361 $208 $299 forward 7 unknown #
coedge $-1 $203 $129 $134 $218 forward $195 $-1 #
coedge $-1 $129 $203 $197 $290 reversed $195 $-1 #
vertex $-1 $130 $300 #
straight-curve $-1 0 33.27482365590361 11.510466969052287 -1 0 0 I I #
coedge $-1 $131 $198 $133 $217 reversed $75 $-1 #
vertex $-1 $209 $301 #
straight-curve $-1 0 -33.27482365590361 11.510466969052287 1 0 0 I I #
edge $-1 $136 -11.510466969052287 $206 11.510466969052287 $133 $302 forward 7 unknown #
edge $-1 $137 -11.510466969052287 $205 11.510466969052287 $134 $303 forward 7 unknown #
point $-1 75.98498489333781 -33.27482365590361 11.510466969052287 #
point $-1 75.98498489333781 33.27482365590361 11.510466969052287 #
face $-1 $-1 $151 $19 $-1 $304 reversed single #
loop $-1 $-1 $305 $139 #
plane-surface $-1 0 0 11.510466969052287 0 0 1 1 0 0 forward_v I I I I #
coedge $-1 $306 $142 $146 $231 forward $83 $-1 #
coedge $-1 $142 $306 $307 $308 reversed $83 $-1 #
edge $-1 $309 -7.4458322228485256 $229 -0.68343726955899964 $142 $310 forward 7 unknown #
coedge $-1 $144 $143 $305 $311 reversed $53 $-1 #
edge $-1 $153 0.68343726955899964 $312 7.4458322228485256 $149 $313 forward 7 unknown #
vertex $-1 $231 $314 #
straight-curve $-1 0 -20.876841967856279 4.7480720157627623 1 0 0 I I #
edge $-1 $229 7.338925561916307 $234 19.736907249963636 $224 $315 forward 7 unknown #
coedge $-1 $316 $147 $150 $237 reversed $140 $-1 #
coedge $-1 $147 $316 $306 $317 forward $140 $-1 #
vertex $-1 $148 $318 #
straight-curve $-1 0 -33.27482365590361 4.7480720157627623 1 0 0 I I #
coedge $-1 $150 $149 $319 $320 reversed $151 $-1 #
edge $-1 $321 -11.510466969052287 $152 -4.7480720157627623 $150 $322 forward 7 unknown #
point $-1 75.98498489333781 -33.27482365590361 4.7480720157627623 #
point $-1 75.98498489333781 -20.876841967856279 4.7480720157627623 #
face $-1 $-1 $256 $20 $-1 $323 reversed single #
loop $-1 $-1 $161 $155 #
plane-surface $-1 -75.98498489333781 0 0 1 0 0 0 0 -1 forward_v I I I I #
coedge $-1 $324 $158 $259 $325 forward $91 $-1 #
coedge $-1 $158 $324 $247 $326 forward $91 $-1 #
edge $-1 $250 -75.98498489333781 $327 75.98498489333781 $158 $328 forward 7 unknown #
coedge $-1 $160 $159 $168 $261 reversed $57 $-1 #
coedge $-1 $329 $161 $244 $326 reversed $241 $-1 #
coedge $-1 $161 $329 $163 $252 forward $241 $-1 #
vertex $-1 $252 $330 #
vertex $-1 $162 $331 #
straight-curve $-1 -75.98498489333781 20.876841967856276 4.0646347462037626 0 0 1 I I #
edge $-1 $257 -19.736907249963632 $249 -7.3389255619163052 $248 $332 forward 7 unknown #
straight-curve $-1 0 20.876841967856276 4.7480720157627623 -1 0 0 I I #
coedge $-1 $333 $165 $329 $334 reversed $256 $-1 #
coedge $-1 $165 $333 $167 $260 forward $256 $-1 #
loop $-1 $-1 $165 $240 #
vertex $-1 $166 $335 #
straight-curve $-1 0 33.27482365590361 4.7480720157627623 -1 0 0 I I #
coedge $-1 $168 $167 $243 $325 reversed $156 $-1 #
edge $-1 $336 -11.510466969052287 $170 -4.7480720157627623 $167 $337 forward 7 unknown #
edge $-1 $327 -7.4458322228485256 $169 -0.68343726955899964 $168 $338 forward 7 unknown #
point $-1 75.98498489333781 20.876841967856276 4.7480720157627623 #
point $-1 75.98498489333781 33.274823655903603 4.7480720157627623 #
loop $-1 $-1 $179 $172 #
plane-surface $-1 75.98498489333781 0 0 -1 0 0 0 0 1 forward_v I I I I #
coedge $-1 $339 $340 $176 $268 reversed $173 $-1 #
coedge $-1 $176 $175 $273 $341 reversed $61 $-1 #
edge $-1 $342 -151.96996978667559 $270 -137.01371633477544 $266 $343 forward 7 unknown #
coedge $-1 $182 $177 $340 $344 forward $99 $-1 #
vertex $-1 $344 $345 #
straight-curve $-1 64.199296429790053 -7.783700493450425 11.510466969052274 0 -1 0 I I #
coedge $-1 $346 $179 $182 $277 reversed $264 $-1 #
coedge $-1 $179 $346 $267 $341 forward $264 $-1 #
vertex $-1 $180 $347 #
straight-curve $-1 75.98498489333781 -10.257960005945423 107.80925213295421 0 0 1 I I #
straight-curve $-1 -43.768984607157279 -10.257960005945423 95.864534765413325 0.78801074757464917 0 -0.61566148304635926 I I #
edge $-1 $348 -20.876841967856279 $183 -10.257960005945423 $272 $349 forward 7 unknown #
point $-1 75.98498489333781 -10.257960005945423 11.510466969052287 #
point $-1 64.199296429790053 -10.257960005945423 11.510466969052288 #
edge $-1 $350 1 $350 0 $186 $-1 forward 7 unknown #
vertex $-1 $187 $351 #
ellipse-curve $-1 68.036597526496507 -17.842875693024606 4.2754971963370965 0.61566148304635926 0 0.78801074757464917 1.1820161213619738 0 -0.92349222456953894 1 I I #
point $-1 71.274156782925914 -17.842875693024606 5.9829801539756984 #
edge $-1 $352 1 $352 0 $190 $-1 forward 7 unknown #
vertex $-1 $191 $353 #
ellipse-curve $-1 68.036597526496507 -13.291926280777098 4.2754971963370965 0.61566148304635926 0 0.78801074757464917 1.1820161213619738 0 -0.92349222456953894 1 I I #
point $-1 71.274156782925914 -13.291926280777098 5.9829801539756984 #
plane-surface $-1 75.98498489333781 0 0 -1 0 0 0 0 1 forward_v I I I I #
coedge $-1 $199 $197 $201 $293 reversed $121 $-1 #
edge $-1 $212 -11.510466969052287 $295 11.510466969052287 $211 $354 forward 7 unknown #
vertex $-1 $293 $355 #
straight-curve $-1 -75.98498489333781 -33.27482365590361 0 0 0 -1 I I #
edge $-1 $291 -33.27482365590361 $295 33.27482365590361 $289 $356 forward 7 unknown #
straight-curve $-1 0 -33.27482365590361 -11.510466969052287 -1 0 0 I I #
vertex $-1 $204 $357 #
straight-curve $-1 0 33.27482365590361 -11.510466969052287 1 0 0 I I #
point $-1 75.98498489333781 33.27482365590361 -11.510466969052287 #
point $-1 75.98498489333781 -33.27482365590361 -11.510466969052287 #
straight-curve $-1 -75.98498489333781 0 11.510466969052287 0 -1 0 I I #
point $-1 -75.98498489333781 33.27482365590361 11.510466969052287 #
point $-1 -75.98498489333781 -33.27482365590361 11.510466969052287 #
straight-curve $-1 75.98498489333781 -33.27482365590361 0 0 0 -1 I I #
straight-curve $-1 75.98498489333781 33.27482365590361 0 0 0 -1 I I #
plane-surface $-1 75.98498489333781 0 0 -1 0 0 0 0 1 forward_v I I I I #
coedge $-1 $307 $319 $227 $311 forward $222 $-1 #
coedge $-1 $225 $224 $233 $317 reversed $83 $-1 #
coedge $-1 $358 $305 $225 $308 forward $222 $-1 #
edge $-1 $309 20.876841967856279 $359 33.27482365590361 $225 $360 forward 7 unknown #
vertex $-1 $308 $361 #
straight-curve $-1 -75.98498489333781 -20.876841967856279 4.0646347462037626 0 0 -1 I I #
edge $-1 $312 -75.98498489333781 $309 75.98498489333781 $305 $362 forward 7 unknown #
vertex $-1 $228 $363 #
straight-curve $-1 75.98498489333781 -20.876841967856279 4.0646347462037626 0 0 1 I I #
point $-1 -75.98498489333781 -20.876841967856279 4.7480720157627623 #
straight-curve $-1 -75.98498489333781 -13.537916405939972 4.7480720157627623 0 -1 0 I I #
coedge $-1 $233 $232 $358 $364 reversed $140 $-1 #
edge $-1 $359 -11.510466969052287 $234 -4.7480720157627623 $306 $365 forward 7 unknown #
point $-1 -75.98498489333781 -33.27482365590361 4.7480720157627623 #
coedge $-1 $305 $358 $236 $320 forward $222 $-1 #
edge $-1 $321 -33.27482365590361 $312 -20.876841967856279 $236 $366 forward 7 unknown #
vertex $-1 $320 $367 #
straight-curve $-1 75.98498489333781 -33.27482365590361 0 0 0 -1 I I #
plane-surface $-1 0 33.27482365590361 0 0 -1 0 0 0 -1 forward_v I I I I #
coedge $-1 $244 $243 $333 $368 forward $91 $-1 #
edge $-1 $327 20.876841967856276 $336 33.27482365590361 $259 $369 forward 7 unknown #
edge $-1 $370 -33.27482365590361 $250 -20.876841967856276 $247 $371 forward 7 unknown #
vertex $-1 $325 $372 #
straight-curve $-1 0 20.876841967856276 11.510466969052287 1 0 0 I I #
coedge $-1 $248 $247 $254 $334 forward $241 $-1 #
point $-1 -75.98498489333781 20.876841967856276 4.7480720157627623 #
point $-1 -75.98498489333781 20.876841967856276 11.510466969052288 #
straight-curve $-1 -75.98498489333781 13.537916405939971 4.7480720157627623 0 -1 0 I I #
coedge $-1 $255 $254 $324 $368 reversed $256 $-1 #
edge $-1 $370 -11.510466969052287 $257 -4.7480720157627623 $254 $373 forward 7 unknown #
point $-1 -75.98498489333781 33.274823655903603 4.7480720157627623 #
vertex $-1 $325 $374 #
straight-curve $-1 75.98498489333781 33.27482365590361 0 0 0 -1 I I #
straight-curve $-1 75.98498489333781 20.876841967856276 4.0646347462037626 0 0 -1 I I #
coedge $-1 $340 $266 $346 $375 reversed $173 $-1 #
coedge $-1 $266 $339 $269 $344 reversed $173 $-1 #
edge $-1 $342 -13.093141474405854 $274 -2.4742595124949975 $273 $376 forward 7 unknown #
vertex $-1 $375 $377 #
straight-curve $-1 -43.768984607157279 -20.876841967856279 95.864534765413325 -0.78801074757464917 0 0.61566148304635926 I I #
edge $-1 $270 64.199296429790053 $348 75.98498489333781 $269 $378 forward 7 unknown #
point $-1 64.199296429790053 -20.876841967856279 11.510466969052288 #
coedge $-1 $273 $272 $339 $375 forward $264 $-1 #
point $-1 75.984984893337796 -10.257960005945423 2.3024777880382175 #
vertex $-1 $277 $379 #
straight-curve $-1 75.98498489333781 0 11.510466969052287 0 1 0 I I #
vertex $-1 $280 $380 #
point $-1 69.218613647858476 -17.842875693024606 3.3520049717675575 #
vertex $-1 $284 $381 #
point $-1 69.218613647858476 -13.291926280777098 3.3520049717675575 #
straight-curve $-1 -75.98498489333781 33.27482365590361 0 0 0 -1 I I #
point $-1 -75.98498489333781 -33.27482365590361 -11.510466969052287 #
straight-curve $-1 -75.98498489333781 0 -11.510466969052287 0 1 0 I I #
point $-1 -75.98498489333781 33.27482365590361 -11.510466969052287 #
coedge $-1 $319 $307 $316 $364 forward $222 $-1 #
vertex $-1 $308 $382 #
straight-curve $-1 -75.98498489333781 0 11.510466969052287 0 -1 0 I I #
point $-1 -75.98498489333781 -20.876841967856279 11.510466969052288 #
straight-curve $-1 0 -20.876841967856279 11.510466969052287 -1 0 0 I I #
point $-1 75.98498489333781 -20.876841967856279 11.510466969052288 #
edge $-1 $359 -75.98498489333781 $321 75.98498489333781 $316 $383 forward 7 unknown #
straight-curve $-1 -75.98498489333781 -33.27482365590361 0 0 0 -1 I I #
straight-curve $-1 75.98498489333781 0 11.510466969052287 0 1 0 I I #
point $-1 75.98498489333781 -33.27482365590361 11.510466969052287 #
edge $-1 $336 -75.98498489333781 $370 75.98498489333781 $333 $384 forward 7 unknown #
straight-curve $-1 75.98498489333781 0 11.510466969052287 0 1 0 I I #
vertex $-1 $368 $385 #
straight-curve $-1 -75.98498489333781 0 11.510466969052287 0 -1 0 I I #
point $-1 75.98498489333781 20.876841967856276 11.510466969052288 #
straight-curve $-1 -75.98498489333781 33.27482365590361 0 0 0 -1 I I #
point $-1 75.98498489333781 33.27482365590361 11.510466969052287 #
edge $-1 $348 96.298785163901925 $342 105.506774344916 $346 $386 forward 7 unknown #
straight-curve $-1 75.98498489333781 -7.783700493450425 2.3024777880382103 0 1 0 I I #
point $-1 75.984984893337796 -20.876841967856279 2.3024777880382175 #
straight-curve $-1 0 -20.876841967856279 11.510466969052287 1 0 0 I I #
point $-1 75.98498489333781 -20.876841967856279 11.510466969052288 #
point $-1 67.113105301926964 -17.842875693024606 3.0934810749751227 #
point $-1 67.113105301926964 -13.291926280777098 3.0934810749751227 #
point $-1 -75.98498489333781 -33.27482365590361 11.510466969052287 #
straight-curve $-1 0 -33.27482365590361 11.510466969052287 1 0 0 I I #
straight-curve $-1 0 33.27482365590361 11.510466969052287 -1 0 0 I I #
point $-1 -75.98498489333781 33.27482365590361 11.510466969052287 #
straight-curve $-1 75.98498489333781 -20.876841967856279 107.80925213295421 0 0 -1 I I #
End-of-ACIS-data 