500 0 3 0           
7 Unknown 11 ACIS 5.0 NT 24 Thu Mar 25 15:32:47 1999 
-1 9.9999999999999995e-007 1e-010 
body $-1 $3 $-1 $4 #
body $-1 $5 $-1 $6 #
body $-1 $7 $-1 $8 #
lump $-1 $-1 $9 $0 #
transform $-1 1 0 0 0 1 0 0 0 1 41.834772789696949 24.389722329054806 9.4605356243258942 1 rotate no_reflect no_shear #
lump $-1 $-1 $10 $1 #
transform $-1 1 0 0 0 1 0 0 0 1 41.834772789696949 24.389722329054806 9.4605356243258942 1 rotate no_reflect no_shear #
lump $-1 $-1 $11 $2 #
transform $-1 1 0 0 0 1 0 0 0 1 41.834772789696949 24.389722329054806 9.4605356243258942 1 rotate no_reflect no_shear #
shell $-1 $-1 $-1 $12 $-1 $3 #
shell $-1 $-1 $-1 $13 $-1 $5 #
shell $-1 $-1 $-1 $14 $-1 $7 #
face $-1 $15 $16 $9 $-1 $17 forward single #
face $-1 $18 $19 $10 $-1 $20 forward single #
face $-1 $21 $22 $11 $-1 $23 reversed single #
face $-1 $24 $25 $9 $-1 $26 reversed single #
loop $-1 $-1 $27 $12 #
plane-surface $-1 0 0 9.4605356243258942 0 0 1 1 0 0 forward_v I I I I #
face $-1 $28 $29 $10 $-1 $30 forward single #
loop $-1 $-1 $31 $13 #
plane-surface $-1 -30.508346710821325 66.477801264373099 87.47780862230519 -1 0 0 0 0.82903758062907751 0.55919289150049634 forward_v I I I I #
face $-1 $32 $33 $11 $-1 $34 reversed single #
loop $-1 $35 $36 $14 #
cone-surface $-1 -36.171559750259135 17.899114858718519 2.5726276561417816 0 -0.82903758062907751 -0.55919289150049634 2.5 0 0 1 I I 0 1 2.5 forward I I I I #
face $-1 $37 $38 $9 $-1 $39 reversed single #
loop $-1 $-1 $40 $15 #
plane-surface $-1 0 0 -9.4605356243258942 0 0 1 1 0 0 forward_v I I I I #
coedge $-1 $41 $42 $43 $44 forward $16 $-1 #
face $-1 $45 $46 $10 $-1 $47 reversed single #
loop $-1 $-1 $48 $18 #
plane-surface $-1 -36.171559750259135 -2.8873963751019431 40.690393499231348 0 0.82903758062907751 0.55919289150049634 1 0 0 forward_v I I I I #
coedge $-1 $49 $50 $51 $52 reversed $19 $-1 #
face $-1 $53 $54 $11 $-1 $55 forward single #
loop $-1 $56 $57 $21 #
cone-surface $-1 -36.171559750259135 13.47836753450845 -0.40920397197609937 0 -0.82903758062907751 -0.55919289150049634 1.25 0 0 1 I I -0.70710678118654746 0.70710678118654746 1.25 forward I I I I #
loop $-1 $-1 $58 $14 #
coedge $-1 $36 $36 $59 $60 reversed $22 $-1 #
face $-1 $61 $62 $9 $-1 $63 reversed single #
loop $-1 $-1 $64 $24 #
plane-surface $-1 0 -24.389722329054806 0 0 1 0 0 0 1 forward_v I I I I #
coedge $-1 $65 $66 $67 $68 forward $25 $-1 #
coedge $-1 $69 $27 $70 $71 forward $16 $-1 #
coedge $-1 $27 $69 $72 $73 forward $16 $-1 #
coedge $-1 $74 $75 $27 $44 reversed $76 $-1 #
edge $-1 $77 -24.389722329054806 $78 24.389722329054806 $43 $79 forward 7 unknown #
face $-1 $80 $81 $10 $-1 $82 forward single #
loop $-1 $-1 $83 $28 #
plane-surface $-1 0 24.389722329054806 0 0 -1 0 0 0 -1 forward_v I I I I #
coedge $-1 $84 $85 $83 $86 reversed $29 $-1 #
coedge $-1 $50 $31 $85 $87 forward $19 $-1 #
coedge $-1 $31 $49 $88 $89 reversed $19 $-1 #
coedge $-1 $90 $83 $31 $52 forward $46 $-1 #
edge $-1 $91 -43.488503595710412 $92 -34.278368686826703 $51 $93 forward 7 unknown #
face $-1 $94 $95 $11 $-1 $96 forward single #
loop $-1 $-1 $97 $32 #
plane-surface $-1 -30.508346710821325 66.477801264373099 87.47780862230519 -1 0 0 0 0.82903758062907751 0.55919289150049634 forward_v I I I I #
loop $-1 $-1 $98 $21 #
coedge $-1 $57 $57 $58 $99 forward $33 $-1 #
coedge $-1 $58 $58 $57 $99 reversed $35 $-1 #
coedge $-1 $59 $59 $36 $60 forward $95 $-1 #
edge $-1 $100 3.8347236728751155e-016 $100 6.2831853071796004 $59 $101 forward 7 unknown #
face $-1 $102 $103 $9 $-1 $104 reversed single #
loop $-1 $-1 $105 $37 #
plane-surface $-1 -41.834772789696949 0 0 1 0 0 0 0 -1 forward_v I I I I #
coedge $-1 $106 $72 $107 $108 forward $38 $-1 #
coedge $-1 $109 $40 $106 $110 forward $25 $-1 #
coedge $-1 $40 $109 $111 $112 forward $25 $-1 #
coedge $-1 $75 $74 $40 $68 reversed $76 $-1 #
edge $-1 $113 -24.389722329054806 $114 24.389722329054806 $67 $115 forward 7 unknown #
coedge $-1 $42 $41 $116 $117 forward $16 $-1 #
coedge $-1 $118 $119 $41 $71 reversed $103 $-1 #
edge $-1 $78 -41.834772789696949 $120 41.834772789696949 $70 $121 forward 7 unknown #
coedge $-1 $64 $122 $42 $73 reversed $38 $-1 #
edge $-1 $123 -41.834772789696949 $77 41.834772789696949 $72 $124 forward 7 unknown #
coedge $-1 $67 $43 $122 $125 forward $76 $-1 #
coedge $-1 $43 $67 $118 $126 reversed $76 $-1 #
loop $-1 $-1 $74 $102 #
vertex $-1 $44 $127 #
vertex $-1 $44 $128 #
straight-curve $-1 41.834772789696949 0 9.4605356243258942 0 1 0 I I #
face $-1 $129 $130 $10 $-1 $131 reversed single #
loop $-1 $-1 $88 $45 #
plane-surface $-1 0 0 9.4605356243258942 0 0 1 1 0 0 forward_v I I I I #
coedge $-1 $51 $132 $48 $86 forward $46 $-1 #
coedge $-1 $133 $48 $134 $135 reversed $29 $-1 #
coedge $-1 $48 $133 $49 $87 reversed $29 $-1 #
edge $-1 $136 -23.748992914567381 $91 -12.422566835691757 $83 $137 forward 7 unknown #
edge $-1 $91 -48.779444658109604 $138 -37.670014731066949 $49 $139 forward 7 unknown #
coedge $-1 $140 $141 $50 $89 forward $81 $-1 #
edge $-1 $92 8.8491783031317439 $138 15.061492546956874 $88 $142 forward 7 unknown #
coedge $-1 $143 $51 $141 $144 reversed $46 $-1 #
vertex $-1 $86 $145 #
vertex $-1 $89 $146 #
straight-curve $-1 -30.508346710821325 24.389722329054806 43.738904311152595 0 0 1 I I #
face $-1 $147 $148 $11 $-1 $149 reversed single #
loop $-1 $150 $59 $53 #
plane-surface $-1 -36.171559750259135 -2.8873963751019431 40.690393499231348 0 0.82903758062907751 0.55919289150049634 1 0 0 forward_v I I I I #
coedge $-1 $151 $152 $153 $154 reversed $54 $-1 #
coedge $-1 $98 $98 $-1 $155 forward $56 $-1 #
edge $-1 $156 0 $156 6.2831853071796004 $57 $157 forward 7 unknown #
vertex $-1 $60 $158 #
ellipse-curve $-1 -36.171559750259135 21.283565207142239 4.8554681698840385 0 -0.82903758062907751 -0.55919289150049634 2.5 0 0 1 I I #
face $-1 $-1 $76 $9 $-1 $159 reversed single #
loop $-1 $-1 $118 $61 #
plane-surface $-1 0 24.389722329054806 0 0 -1 0 0 0 -1 forward_v I I I I #
coedge $-1 $160 $116 $119 $161 forward $62 $-1 #
coedge $-1 $122 $64 $65 $110 reversed $38 $-1 #
coedge $-1 $116 $160 $64 $108 reversed $62 $-1 #
edge $-1 $123 -9.4605356243258942 $162 9.4605356243258942 $107 $163 forward 7 unknown #
coedge $-1 $66 $65 $160 $164 forward $25 $-1 #
edge $-1 $114 -41.834772789696949 $162 41.834772789696949 $106 $165 forward 7 unknown #
coedge $-1 $119 $118 $66 $112 reversed $103 $-1 #
edge $-1 $166 -41.834772789696949 $113 41.834772789696949 $111 $167 forward 7 unknown #
vertex $-1 $68 $168 #
vertex $-1 $125 $169 #
straight-curve $-1 41.834772789696949 0 -9.4605356243258942 0 -1 0 I I #
coedge $-1 $105 $107 $69 $117 reversed $62 $-1 #
edge $-1 $120 -24.389722329054806 $123 24.389722329054806 $116 $170 forward 7 unknown #
coedge $-1 $111 $70 $75 $126 forward $103 $-1 #
coedge $-1 $70 $111 $105 $161 reversed $103 $-1 #
vertex $-1 $71 $171 #
straight-curve $-1 0 24.389722329054806 9.4605356243258942 -1 0 0 I I #
coedge $-1 $72 $106 $74 $125 reversed $38 $-1 #
vertex $-1 $117 $172 #
straight-curve $-1 0 -24.389722329054806 9.4605356243258942 1 0 0 I I #
edge $-1 $77 -9.4605356243258942 $114 9.4605356243258942 $74 $173 forward 7 unknown #
edge $-1 $78 -9.4605356243258942 $113 9.4605356243258942 $75 $174 forward 7 unknown #
point $-1 41.834772789696949 -24.389722329054806 9.4605356243258942 #
point $-1 41.834772789696949 24.389722329054806 9.4605356243258942 #
face $-1 $175 $176 $10 $-1 $177 reversed single #
loop $-1 $-1 $178 $80 #
plane-surface $-1 0 0 -9.4605356243258942 0 0 1 1 0 0 forward_v I I I I #
coedge $-1 $83 $179 $180 $181 reversed $46 $-1 #
coedge $-1 $85 $84 $140 $182 reversed $29 $-1 #
coedge $-1 $180 $183 $84 $135 forward $184 $-1 #
edge $-1 $185 19.995776276392348 $136 31.105206203435007 $134 $186 forward 7 unknown #
vertex $-1 $181 $187 #
straight-curve $-1 -18.085779875129568 24.389722329054809 0.25040071544218279 1 0 0 I I #
vertex $-1 $182 $188 #
straight-curve $-1 -30.508346710821325 -2.8873963751019431 40.690393499231348 0 -0.55919289150049634 0.82903758062907751 I I #
coedge $-1 $189 $88 $133 $182 forward $81 $-1 #
coedge $-1 $88 $190 $90 $144 forward $81 $-1 #
straight-curve $-1 -30.508346710821325 33.238900632186549 9.4605356243258925 0 -1 0 I I #
coedge $-1 $179 $90 $191 $192 forward $46 $-1 #
edge $-1 $193 -41.834772789696949 $92 30.508346710821325 $90 $194 forward 7 unknown #
point $-1 -30.508346710821325 24.389722329054806 0.25040071544218279 #
point $-1 -30.508346710821325 24.389722329054806 9.4605356243258942 #
face $-1 $195 $196 $11 $-1 $197 forward single #
loop $-1 $-1 $198 $94 #
plane-surface $-1 0 24.389722329054806 0 0 -1 0 0 0 -1 forward_v I I I I #
loop $-1 $-1 $199 $53 #
coedge $-1 $152 $97 $200 $201 forward $54 $-1 #
coedge $-1 $97 $151 $202 $203 reversed $54 $-1 #
coedge $-1 $204 $198 $97 $154 forward $148 $-1 #
edge $-1 $205 -43.488503595710412 $206 -34.278368686826703 $153 $207 forward 7 unknown #
edge $-1 $208 1 $208 0 $98 $-1 forward 7 unknown #
vertex $-1 $99 $209 #
ellipse-curve $-1 -36.171559750259135 14.514664510294796 0.28978714239952108 0 0.82903758062907751 0.55919289150049634 2.5 0 0 1 I I #
point $-1 -33.671559750259135 21.283565207142242 4.8554681698840421 #
plane-surface $-1 41.834772789696949 0 0 -1 0 0 0 0 1 forward_v I I I I #
coedge $-1 $107 $105 $109 $164 reversed $62 $-1 #
edge $-1 $120 -9.4605356243258942 $166 9.4605356243258942 $119 $210 forward 7 unknown #
vertex $-1 $164 $211 #
straight-curve $-1 -41.834772789696949 -24.389722329054806 0 0 0 -1 I I #
edge $-1 $162 -24.389722329054806 $166 24.389722329054806 $160 $212 forward 7 unknown #
straight-curve $-1 0 -24.389722329054806 -9.4605356243258942 -1 0 0 I I #
vertex $-1 $112 $213 #
straight-curve $-1 0 24.389722329054806 -9.4605356243258942 1 0 0 I I #
point $-1 41.834772789696949 24.389722329054806 -9.4605356243258942 #
point $-1 41.834772789696949 -24.389722329054806 -9.4605356243258942 #
straight-curve $-1 -41.834772789696949 0 9.4605356243258942 0 -1 0 I I #
point $-1 -41.834772789696949 24.389722329054806 9.4605356243258942 #
point $-1 -41.834772789696949 -24.389722329054806 9.4605356243258942 #
straight-curve $-1 41.834772789696949 -24.389722329054806 0 0 0 -1 I I #
straight-curve $-1 41.834772789696949 24.389722329054806 0 0 0 -1 I I #
face $-1 $214 $184 $10 $-1 $215 reversed single #
loop $-1 $-1 $216 $129 #
plane-surface $-1 0 -24.389722329054806 0 0 1 0 0 0 1 forward_v I I I I #
coedge $-1 $217 $218 $219 $220 forward $130 $-1 #
coedge $-1 $132 $143 $218 $221 reversed $46 $-1 #
coedge $-1 $222 $134 $132 $181 forward $184 $-1 #
edge $-1 $136 -0.25040071544218401 $223 9.4605356243258942 $132 $224 forward 7 unknown #
edge $-1 $138 12.422566835691757 $185 23.748992914567381 $140 $225 forward 7 unknown #
coedge $-1 $134 $226 $189 $227 reversed $184 $-1 #
loop $-1 $-1 $134 $175 #
vertex $-1 $227 $228 #
straight-curve $-1 -41.834772789696949 6.9959121314368122 26.037785611306511 0 0.55919289150049634 -0.82903758062907751 I I #
point $-1 -41.834772789696949 24.389722329054806 0.25040071544218401 #
point $-1 -30.508346710821325 18.177408085229676 9.460535624325896 #
coedge $-1 $229 $140 $183 $227 forward $81 $-1 #
coedge $-1 $141 $229 $230 $231 forward $81 $-1 #
coedge $-1 $230 $219 $143 $192 reversed $232 $-1 #
edge $-1 $193 -9.4605356243258942 $233 9.4605356243258942 $191 $234 forward 7 unknown #
vertex $-1 $231 $235 #
straight-curve $-1 0 24.389722329054806 9.4605356243258942 -1 0 0 I I #
face $-1 $236 $237 $11 $-1 $238 reversed single #
loop $-1 $-1 $202 $147 #
plane-surface $-1 0 0 9.4605356243258942 0 0 1 1 0 0 forward_v I I I I #
coedge $-1 $153 $239 $199 $240 forward $148 $-1 #
coedge $-1 $241 $200 $198 $240 reversed $150 $-1 #
coedge $-1 $199 $242 $151 $201 reversed $150 $-1 #
edge $-1 $205 -48.779444658109604 $243 -37.670014731066949 $151 $244 forward 7 unknown #
coedge $-1 $245 $246 $152 $203 forward $196 $-1 #
edge $-1 $206 8.8491783031317439 $243 15.061492546956874 $202 $247 forward 7 unknown #
coedge $-1 $248 $153 $246 $249 reversed $148 $-1 #
vertex $-1 $240 $250 #
vertex $-1 $203 $251 #
straight-curve $-1 -30.508346710821325 24.389722329054806 43.738904311152595 0 0 1 I I #
vertex $-1 $155 $252 #
point $-1 -33.671559750259135 14.514664510294796 0.28978714239952108 #
straight-curve $-1 -41.834772789696949 24.389722329054806 0 0 0 -1 I I #
point $-1 -41.834772789696949 -24.389722329054806 -9.4605356243258942 #
straight-curve $-1 -41.834772789696949 0 -9.4605356243258942 0 1 0 I I #
point $-1 -41.834772789696949 24.389722329054806 -9.4605356243258942 #
face $-1 $-1 $232 $10 $-1 $253 reversed single #
plane-surface $-1 -41.834772789696949 0 0 1 0 0 0 0 -1 forward_v I I I I #
coedge $-1 $254 $255 $226 $256 forward $176 $-1 #
coedge $-1 $257 $178 $254 $258 forward $130 $-1 #
coedge $-1 $178 $257 $179 $221 forward $130 $-1 #
coedge $-1 $191 $259 $178 $220 reversed $232 $-1 #
edge $-1 $233 -24.389722329054806 $260 24.389722329054806 $219 $261 forward 7 unknown #
edge $-1 $223 -41.834772789696949 $233 41.834772789696949 $179 $262 forward 7 unknown #
coedge $-1 $226 $180 $257 $263 reversed $184 $-1 #
vertex $-1 $221 $264 #
straight-curve $-1 -41.834772789696949 24.389722329054806 0 0 0 -1 I I #
straight-curve $-1 -18.085779875129568 18.177408085229679 9.4605356243258925 -1 0 0 I I #
coedge $-1 $183 $222 $216 $256 reversed $184 $-1 #
edge $-1 $185 -18.177408085229676 $265 24.389722329054806 $183 $266 forward 7 unknown #
point $-1 -41.834772789696949 18.177408085229676 9.460535624325896 #
coedge $-1 $190 $189 $255 $267 forward $81 $-1 #
coedge $-1 $259 $191 $190 $231 reversed $232 $-1 #
edge $-1 $268 -24.389722329054806 $193 24.389722329054806 $230 $269 forward 7 unknown #
loop $-1 $-1 $259 $214 #
vertex $-1 $220 $270 #
straight-curve $-1 41.834772789696949 24.389722329054806 0 0 0 -1 I I #
point $-1 41.834772789696949 24.389722329054806 9.4605356243258942 #
face $-1 $271 $272 $11 $-1 $273 reversed single #
loop $-1 $-1 $274 $195 #
plane-surface $-1 0 0 -9.4605356243258942 0 0 1 1 0 0 forward_v I I I I #
coedge $-1 $198 $275 $276 $277 reversed $148 $-1 #
edge $-1 $278 -23.748992914567381 $205 -12.422566835691757 $198 $279 forward 7 unknown #
coedge $-1 $242 $199 $280 $281 reversed $150 $-1 #
coedge $-1 $200 $241 $245 $282 reversed $150 $-1 #
vertex $-1 $282 $283 #
straight-curve $-1 -30.508346710821325 -2.8873963751019431 40.690393499231348 0 -0.55919289150049634 0.82903758062907751 I I #
coedge $-1 $284 $202 $242 $282 forward $196 $-1 #
coedge $-1 $202 $285 $204 $249 forward $196 $-1 #
straight-curve $-1 -30.508346710821325 33.238900632186549 9.4605356243258925 0 -1 0 I I #
coedge $-1 $275 $204 $286 $287 forward $148 $-1 #
edge $-1 $288 -41.834772789696949 $206 30.508346710821325 $204 $289 forward 7 unknown #
point $-1 -30.508346710821325 24.389722329054806 0.25040071544218279 #
point $-1 -30.508346710821325 24.389722329054806 9.4605356243258942 #
point $-1 -36.171559750259135 12.442070558722104 -1.1081950863517198 #
plane-surface $-1 41.834772789696949 0 0 -1 0 0 0 0 1 forward_v I I I I #
coedge $-1 $290 $216 $217 $258 reversed $176 $-1 #
coedge $-1 $216 $290 $229 $267 reversed $176 $-1 #
edge $-1 $265 -9.4605356243258942 $291 9.4605356243258942 $226 $292 forward 7 unknown #
coedge $-1 $218 $217 $222 $263 forward $130 $-1 #
edge $-1 $260 -41.834772789696949 $291 41.834772789696949 $254 $293 forward 7 unknown #
coedge $-1 $219 $230 $290 $294 forward $232 $-1 #
vertex $-1 $294 $295 #
straight-curve $-1 41.834772789696949 0 -9.4605356243258942 0 -1 0 I I #
straight-curve $-1 0 24.389722329054806 -9.4605356243258942 1 0 0 I I #
edge $-1 $291 -24.389722329054806 $223 24.389722329054806 $222 $296 forward 7 unknown #
point $-1 -41.834772789696949 24.389722329054806 -9.4605356243258942 #
vertex $-1 $227 $297 #
straight-curve $-1 -41.834772789696949 0 9.4605356243258942 0 -1 0 I I #
edge $-1 $265 -41.834772789696949 $268 41.834772789696949 $255 $298 forward 7 unknown #
vertex $-1 $231 $299 #
straight-curve $-1 41.834772789696949 0 9.4605356243258942 0 1 0 I I #
point $-1 41.834772789696949 24.389722329054806 -9.4605356243258942 #
face $-1 $300 $301 $11 $-1 $302 reversed single #
loop $-1 $-1 $303 $236 #
plane-surface $-1 0 -24.389722329054806 0 0 1 0 0 0 1 forward_v I I I I #
coedge $-1 $304 $305 $306 $307 forward $237 $-1 #
coedge $-1 $239 $248 $305 $308 reversed $148 $-1 #
coedge $-1 $309 $280 $239 $277 forward $301 $-1 #
edge $-1 $278 -0.25040071544218401 $310 9.4605356243258942 $239 $311 forward 7 unknown #
vertex $-1 $277 $312 #
straight-curve $-1 -18.085779875129568 24.389722329054809 0.25040071544218279 1 0 0 I I #
coedge $-1 $276 $313 $241 $281 forward $301 $-1 #
edge $-1 $314 19.995776276392348 $278 31.105206203435007 $280 $315 forward 7 unknown #
edge $-1 $243 12.422566835691757 $314 23.748992914567381 $245 $316 forward 7 unknown #
point $-1 -30.508346710821325 18.177408085229676 9.460535624325896 #
coedge $-1 $317 $245 $313 $318 forward $196 $-1 #
coedge $-1 $246 $317 $319 $320 forward $196 $-1 #
coedge $-1 $319 $306 $248 $287 reversed $321 $-1 #
edge $-1 $288 -9.4605356243258942 $322 9.4605356243258942 $286 $323 forward 7 unknown #
vertex $-1 $320 $324 #
straight-curve $-1 0 24.389722329054806 9.4605356243258942 -1 0 0 I I #
coedge $-1 $255 $254 $259 $294 reversed $176 $-1 #
vertex $-1 $263 $325 #
straight-curve $-1 -41.834772789696949 -24.389722329054806 0 0 0 -1 I I #
straight-curve $-1 0 -24.389722329054806 -9.4605356243258942 -1 0 0 I I #
edge $-1 $268 -9.4605356243258942 $260 9.4605356243258942 $259 $326 forward 7 unknown #
point $-1 41.834772789696949 -24.389722329054806 -9.4605356243258942 #
straight-curve $-1 -41.834772789696949 0 -9.4605356243258942 0 1 0 I I #
point $-1 -41.834772789696949 -24.389722329054806 9.4605356243258942 #
straight-curve $-1 0 -24.389722329054806 9.4605356243258942 1 0 0 I I #
point $-1 41.834772789696949 -24.389722329054806 9.4605356243258942 #
face $-1 $-1 $321 $11 $-1 $327 reversed single #
loop $-1 $-1 $280 $271 #
plane-surface $-1 -41.834772789696949 0 0 1 0 0 0 0 -1 forward_v I I I I #
coedge $-1 $328 $329 $330 $331 forward $272 $-1 #
coedge $-1 $332 $274 $328 $333 forward $237 $-1 #
coedge $-1 $274 $332 $275 $308 forward $237 $-1 #
coedge $-1 $286 $334 $274 $307 reversed $321 $-1 #
edge $-1 $322 -24.389722329054806 $335 24.389722329054806 $306 $336 forward 7 unknown #
edge $-1 $310 -41.834772789696949 $322 41.834772789696949 $275 $337 forward 7 unknown #
coedge $-1 $330 $276 $332 $338 reversed $301 $-1 #
vertex $-1 $308 $339 #
straight-curve $-1 -41.834772789696949 24.389722329054806 0 0 0 -1 I I #
point $-1 -41.834772789696949 24.389722329054806 0.25040071544218401 #
coedge $-1 $280 $330 $284 $318 reversed $301 $-1 #
vertex $-1 $318 $340 #
straight-curve $-1 -41.834772789696949 6.9959121314368122 26.037785611306511 0 0.55919289150049634 -0.82903758062907751 I I #
straight-curve $-1 -18.085779875129568 18.177408085229679 9.4605356243258925 -1 0 0 I I #
coedge $-1 $285 $284 $329 $341 forward $196 $-1 #
edge $-1 $314 -18.177408085229676 $342 24.389722329054806 $313 $343 forward 7 unknown #
coedge $-1 $334 $286 $285 $320 reversed $321 $-1 #
edge $-1 $344 -24.389722329054806 $288 24.389722329054806 $319 $345 forward 7 unknown #
loop $-1 $-1 $334 $300 #
vertex $-1 $307 $346 #
straight-curve $-1 41.834772789696949 24.389722329054806 0 0 0 -1 I I #
point $-1 41.834772789696949 24.389722329054806 9.4605356243258942 #
point $-1 -41.834772789696949 -24.389722329054806 -9.4605356243258942 #
straight-curve $-1 41.834772789696949 -24.389722329054806 0 0 0 -1 I I #
plane-surface $-1 41.834772789696949 0 0 -1 0 0 0 0 1 forward_v I I I I #
coedge $-1 $347 $303 $304 $333 reversed $272 $-1 #
coedge $-1 $303 $347 $317 $341 reversed $272 $-1 #
coedge $-1 $313 $309 $303 $331 reversed $301 $-1 #
edge $-1 $342 -9.4605356243258942 $348 9.4605356243258942 $330 $349 forward 7 unknown #
coedge $-1 $305 $304 $309 $338 forward $237 $-1 #
edge $-1 $335 -41.834772789696949 $348 41.834772789696949 $328 $350 forward 7 unknown #
coedge $-1 $306 $319 $347 $351 forward $321 $-1 #
vertex $-1 $351 $352 #
straight-curve $-1 41.834772789696949 0 -9.4605356243258942 0 -1 0 I I #
straight-curve $-1 0 24.389722329054806 -9.4605356243258942 1 0 0 I I #
edge $-1 $348 -24.389722329054806 $310 24.389722329054806 $309 $353 forward 7 unknown #
point $-1 -41.834772789696949 24.389722329054806 -9.4605356243258942 #
point $-1 -41.834772789696949 18.177408085229676 9.460535624325896 #
edge $-1 $342 -41.834772789696949 $344 41.834772789696949 $329 $354 forward 7 unknown #
vertex $-1 $318 $355 #
straight-curve $-1 -41.834772789696949 0 9.4605356243258942 0 -1 0 I I #
vertex $-1 $320 $356 #
straight-curve $-1 41.834772789696949 0 9.4605356243258942 0 1 0 I I #
point $-1 41.834772789696949 24.389722329054806 -9.4605356243258942 #
coedge $-1 $329 $328 $334 $351 reversed $272 $-1 #
vertex $-1 $338 $357 #
straight-curve $-1 -41.834772789696949 -24.389722329054806 0 0 0 -1 I I #
straight-curve $-1 0 -24.389722329054806 -9.4605356243258942 -1 0 0 I I #
edge $-1 $344 -9.4605356243258942 $335 9.4605356243258942 $334 $358 forward 7 unknown #
point $-1 41.834772789696949 -24.389722329054806 -9.4605356243258942 #
straight-curve $-1 -41.834772789696949 0 -9.4605356243258942 0 1 0 I I #
straight-curve $-1 0 -24.389722329054806 9.4605356243258942 1 0 0 I I #
point $-1 -41.834772789696949 -24.389722329054806 9.4605356243258942 #
point $-1 41.834772789696949 -24.389722329054806 9.4605356243258942 #
point $-1 -41.834772789696949 -24.389722329054806 -9.4605356243258942 #
straight-curve $-1 41.834772789696949 -24.389722329054806 0 0 0 -1 I I #
End-of-ACIS-data 