500 0 5 0           
7 Unknown 11 ACIS 5.0 NT 24 Fri Mar 26 18:51:32 1999 
-1 9.9999999999999995e-007 1e-010 
body $-1 $5 $-1 $6 #
body $-1 $7 $-1 $8 #
body $-1 $9 $-1 $10 #
body $-1 $11 $-1 $12 #
body $-1 $13 $-1 $14 #
lump $-1 $-1 $15 $0 #
transform $-1 1 0 0 0 1 0 0 0 1 41.711478011413924 18.640258298560603 9.0189109489846437 1 rotate no_reflect no_shear #
lump $-1 $-1 $16 $1 #
transform $-1 1 0 0 0 1 0 0 0 1 41.711478011413924 18.640258298560603 9.0189109489846437 1 rotate no_reflect no_shear #
lump $-1 $-1 $17 $2 #
transform $-1 1 0 0 0 1 0 0 0 1 41.711478011413924 18.640258298560603 9.0189109489846437 1 rotate no_reflect no_shear #
lump $-1 $-1 $18 $3 #
transform $-1 1 0 0 0 1 0 0 0 1 41.711478011413924 18.640258298560603 9.0189109489846437 1 rotate no_reflect no_shear #
lump $-1 $-1 $19 $4 #
transform $-1 1 0 0 0 1 0 0 0 1 41.711478011413924 18.640258298560603 9.0189109489846437 1 rotate no_reflect no_shear #
shell $-1 $-1 $-1 $20 $-1 $5 #
shell $-1 $-1 $-1 $21 $-1 $7 #
shell $-1 $-1 $-1 $22 $-1 $9 #
shell $-1 $-1 $-1 $23 $-1 $11 #
shell $-1 $-1 $-1 $24 $-1 $13 #
face $-1 $25 $26 $15 $-1 $27 forward single #
face $-1 $28 $29 $16 $-1 $30 forward single #
face $-1 $31 $32 $17 $-1 $33 reversed single #
face $-1 $34 $35 $18 $-1 $36 forward single #
face $-1 $37 $38 $19 $-1 $39 reversed single #
face $-1 $40 $41 $15 $-1 $42 reversed single #
loop $-1 $-1 $43 $20 #
plane-surface $-1 0 0 9.0189109489846437 0 0 1 1 0 0 forward_v I I I I #
face $-1 $44 $45 $16 $-1 $46 forward single #
loop $-1 $-1 $47 $21 #
plane-surface $-1 35.45750762792089 -86.130848124736531 54.978381103929721 -1 0 0 0 -0.80901700255871778 0.5877852410284794 forward_v I I I I #
face $-1 $48 $49 $17 $-1 $50 reversed single #
loop $-1 $51 $52 $22 #
cone-surface $-1 28.808137670566829 -16.892040436251037 7.0227735920804877 0 0.80901700255871778 -0.5877852410284794 0.5 0 0 1 I I 0 1 0.5 forward I I I I #
face $-1 $53 $54 $18 $-1 $55 forward single #
loop $-1 $-1 $56 $23 #
plane-surface $-1 -24.22975165469078 32.809585305183681 93.235366653041822 -1 0 0 0 0.54463904215088732 0.83867056331134215 forward_v I I I I #
face $-1 $57 $58 $19 $-1 $59 reversed single #
loop $-1 $60 $61 $24 #
cone-surface $-1 -32.970614833052352 13.299374299265573 4.9441114678449418 0 -0.54463904215088732 -0.83867056331134215 2.5 0 0 1 I I 0 1 2.5 forward I I I I #
face $-1 $62 $63 $15 $-1 $64 reversed single #
loop $-1 $-1 $65 $25 #
plane-surface $-1 0 0 -9.0189109489846437 0 0 1 1 0 0 forward_v I I I I #
coedge $-1 $66 $67 $68 $69 forward $26 $-1 #
face $-1 $70 $71 $16 $-1 $72 forward single #
loop $-1 $-1 $73 $28 #
plane-surface $-1 28.808137670566829 -18.64025829856061 5.9435987907436143 0 -0.80901700255871778 0.5877852410284794 1 0 0 forward_v I I I I #
coedge $-1 $74 $75 $76 $77 reversed $29 $-1 #
face $-1 $78 $79 $17 $-1 $80 forward single #
loop $-1 $81 $82 $31 #
cone-surface $-1 28.808137670566829 -16.058740825518957 6.4173460040397234 0 0.80901700255871778 -0.5877852410284794 0.25 0 0 1 I I -0.70710678118654746 0.70710678118654746 0.25 forward I I I I #
loop $-1 $-1 $83 $22 #
coedge $-1 $52 $52 $84 $85 reversed $32 $-1 #
face $-1 $86 $87 $18 $-1 $88 reversed single #
loop $-1 $-1 $89 $34 #
plane-surface $-1 -32.970614833052352 -12.625813556484871 23.270989132279468 0 0.54463904215088732 0.83867056331134215 1 0 0 forward_v I I I I #
coedge $-1 $90 $91 $92 $93 reversed $35 $-1 #
face $-1 $94 $95 $19 $-1 $96 forward single #
loop $-1 $97 $98 $37 #
cone-surface $-1 -32.970614833052352 11.937589701205955 2.8471471160918327 0 -0.54463904215088732 -0.83867056331134215 1.25 0 0 1 I I -0.70710678118654746 0.70710678118654746 1.25 forward I I I I #
loop $-1 $-1 $99 $24 #
coedge $-1 $61 $61 $100 $101 reversed $38 $-1 #
face $-1 $102 $103 $15 $-1 $104 reversed single #
loop $-1 $-1 $105 $40 #
plane-surface $-1 0 -18.640258298560603 0 0 1 0 0 0 1 forward_v I I I I #
coedge $-1 $106 $107 $108 $109 forward $41 $-1 #
coedge $-1 $110 $43 $111 $112 forward $26 $-1 #
coedge $-1 $43 $110 $113 $114 forward $26 $-1 #
coedge $-1 $115 $116 $43 $69 reversed $117 $-1 #
edge $-1 $118 -18.640258298560603 $119 18.640258298560603 $68 $120 forward 7 unknown #
face $-1 $121 $122 $16 $-1 $123 forward single #
loop $-1 $-1 $124 $44 #
plane-surface $-1 22.158767713212765 -86.130848124736531 54.978381103929721 1 0 0 0 0.80901700255871778 -0.5877852410284794 forward_v I I I I #
coedge $-1 $125 $126 $127 $128 reversed $45 $-1 #
coedge $-1 $75 $47 $126 $129 forward $29 $-1 #
coedge $-1 $47 $74 $130 $131 reversed $29 $-1 #
coedge $-1 $132 $127 $47 $77 forward $122 $-1 #
edge $-1 $133 -26.659510768241997 $134 -24.425165763807662 $76 $135 forward 7 unknown #
face $-1 $136 $137 $17 $-1 $138 forward single #
loop $-1 $-1 $139 $48 #
plane-surface $-1 35.45750762792089 -86.130848124736531 54.978381103929721 -1 0 0 0 -0.80901700255871778 0.5877852410284794 forward_v I I I I #
loop $-1 $-1 $140 $31 #
coedge $-1 $82 $82 $83 $141 forward $49 $-1 #
coedge $-1 $83 $83 $82 $141 reversed $51 $-1 #
coedge $-1 $84 $84 $52 $85 forward $137 $-1 #
edge $-1 $142 -2.7393624463115877e-015 $142 6.2831853071795978 $84 $143 forward 7 unknown #
face $-1 $144 $145 $18 $-1 $146 forward single #
loop $-1 $-1 $147 $53 #
plane-surface $-1 0 18.640258298560603 0 0 -1 0 0 0 -1 forward_v I I I I #
coedge $-1 $148 $149 $147 $150 reversed $54 $-1 #
coedge $-1 $91 $56 $149 $151 forward $35 $-1 #
coedge $-1 $56 $90 $152 $153 reversed $35 $-1 #
coedge $-1 $154 $147 $56 $93 forward $87 $-1 #
edge $-1 $155 -43.651119044587787 $156 -37.598772377536264 $92 $157 forward 7 unknown #
face $-1 $158 $159 $19 $-1 $160 forward single #
loop $-1 $-1 $161 $57 #
plane-surface $-1 -24.22975165469078 32.809585305183681 93.235366653041822 -1 0 0 0 0.54463904215088732 0.83867056331134215 forward_v I I I I #
loop $-1 $-1 $162 $37 #
coedge $-1 $98 $98 $99 $163 forward $58 $-1 #
coedge $-1 $99 $99 $98 $163 reversed $60 $-1 #
coedge $-1 $100 $100 $61 $101 forward $159 $-1 #
edge $-1 $164 7.7136519696136713e-017 $164 6.2831853071796004 $100 $165 forward 7 unknown #
face $-1 $166 $167 $15 $-1 $168 reversed single #
loop $-1 $-1 $169 $62 #
plane-surface $-1 -41.711478011413924 0 0 1 0 0 0 0 -1 forward_v I I I I #
coedge $-1 $170 $113 $171 $172 forward $63 $-1 #
coedge $-1 $173 $65 $170 $174 forward $41 $-1 #
coedge $-1 $65 $173 $175 $176 forward $41 $-1 #
coedge $-1 $116 $115 $65 $109 reversed $117 $-1 #
edge $-1 $177 -18.640258298560603 $178 18.640258298560603 $108 $179 forward 7 unknown #
coedge $-1 $67 $66 $180 $181 forward $26 $-1 #
coedge $-1 $182 $183 $66 $112 reversed $167 $-1 #
edge $-1 $119 -41.711478011413924 $184 41.711478011413924 $111 $185 forward 7 unknown #
coedge $-1 $105 $186 $67 $114 reversed $63 $-1 #
edge $-1 $187 -41.711478011413924 $118 41.711478011413924 $113 $188 forward 7 unknown #
coedge $-1 $108 $68 $186 $189 forward $117 $-1 #
coedge $-1 $68 $108 $182 $190 reversed $117 $-1 #
loop $-1 $-1 $115 $166 #
vertex $-1 $69 $191 #
vertex $-1 $69 $192 #
straight-curve $-1 41.711478011413924 0 9.0189109489846437 0 1 0 I I #
face $-1 $193 $194 $16 $-1 $195 reversed single #
loop $-1 $-1 $196 $70 #
plane-surface $-1 0 0 9.0189109489846437 0 0 1 1 0 0 forward_v I I I I #
coedge $-1 $197 $198 $196 $199 reversed $71 $-1 #
coedge $-1 $200 $73 $198 $201 reversed $45 $-1 #
coedge $-1 $73 $200 $74 $129 reversed $45 $-1 #
coedge $-1 $76 $196 $73 $128 forward $122 $-1 #
edge $-1 $202 7.75469887792935 $133 21.053438792637476 $127 $203 forward 7 unknown #
edge $-1 $133 -3.8012948411647574 $204 -1.2080531203272332e-014 $74 $205 forward 7 unknown #
coedge $-1 $206 $207 $75 $131 forward $208 $-1 #
edge $-1 $134 18.470279602980217 $204 21.545591761221235 $130 $209 forward 7 unknown #
coedge $-1 $210 $76 $207 $211 forward $122 $-1 #
vertex $-1 $128 $212 #
vertex $-1 $211 $213 #
straight-curve $-1 35.45750762792089 -43.065424062368265 9.0189109489846437 0 -1 0 I I #
face $-1 $214 $215 $17 $-1 $216 forward single #
loop $-1 $217 $84 $78 #
plane-surface $-1 28.808137670566829 -18.64025829856061 5.9435987907436143 0 -0.80901700255871778 0.5877852410284794 1 0 0 forward_v I I I I #
coedge $-1 $218 $219 $220 $221 reversed $79 $-1 #
coedge $-1 $140 $140 $-1 $222 forward $81 $-1 #
edge $-1 $223 0 $223 6.2831853071796004 $82 $224 forward 7 unknown #
vertex $-1 $85 $225 #
ellipse-curve $-1 28.808137670566829 -17.523085796343437 7.4812548698641317 0 0.80901700255871778 -0.5877852410284794 0.5 0 0 1 I I #
face $-1 $226 $227 $18 $-1 $228 reversed single #
loop $-1 $-1 $152 $86 #
plane-surface $-1 0 0 9.0189109489846437 0 0 1 1 0 0 forward_v I I I I #
coedge $-1 $92 $229 $89 $150 forward $87 $-1 #
coedge $-1 $230 $89 $231 $232 reversed $54 $-1 #
coedge $-1 $89 $230 $90 $151 reversed $54 $-1 #
edge $-1 $233 -25.226170594887748 $155 -7.7444442381646041 $147 $234 forward 7 unknown #
edge $-1 $155 -37.280516597121199 $235 -26.167933402296221 $90 $236 forward 7 unknown #
coedge $-1 $237 $238 $91 $153 forward $145 $-1 #
edge $-1 $156 -2.2354656459687625 $235 7.0843307618792544 $152 $239 forward 7 unknown #
coedge $-1 $240 $92 $238 $241 reversed $87 $-1 #
vertex $-1 $150 $242 #
vertex $-1 $153 $243 #
straight-curve $-1 -24.22975165469078 18.640258298560603 46.617683326520911 0 0 1 I I #
face $-1 $244 $245 $19 $-1 $246 reversed single #
loop $-1 $247 $100 $94 #
plane-surface $-1 -32.970614833052352 -12.625813556484871 23.270989132279468 0 0.54463904215088732 0.83867056331134215 1 0 0 forward_v I I I I #
coedge $-1 $248 $249 $250 $251 reversed $95 $-1 #
coedge $-1 $162 $162 $-1 $252 forward $97 $-1 #
edge $-1 $253 0 $253 6.2831853071796004 $98 $254 forward 7 unknown #
vertex $-1 $101 $255 #
ellipse-curve $-1 -32.970614833052352 13.980360094636591 5.9927376154588865 0 -0.54463904215088732 -0.83867056331134215 2.5 0 0 1 I I #
face $-1 $-1 $117 $15 $-1 $256 reversed single #
loop $-1 $-1 $182 $102 #
plane-surface $-1 0 18.640258298560603 0 0 -1 0 0 0 -1 forward_v I I I I #
coedge $-1 $257 $180 $183 $258 forward $103 $-1 #
coedge $-1 $186 $105 $106 $174 reversed $63 $-1 #
coedge $-1 $180 $257 $105 $172 reversed $103 $-1 #
edge $-1 $187 -9.0189109489846437 $259 9.0189109489846437 $171 $260 forward 7 unknown #
coedge $-1 $107 $106 $257 $261 forward $41 $-1 #
edge $-1 $178 -41.711478011413924 $259 41.711478011413924 $170 $262 forward 7 unknown #
coedge $-1 $183 $182 $107 $176 reversed $167 $-1 #
edge $-1 $263 -41.711478011413924 $177 41.711478011413924 $175 $264 forward 7 unknown #
vertex $-1 $109 $265 #
vertex $-1 $189 $266 #
straight-curve $-1 41.711478011413924 0 -9.0189109489846437 0 -1 0 I I #
coedge $-1 $169 $171 $110 $181 reversed $103 $-1 #
edge $-1 $184 -18.640258298560603 $187 18.640258298560603 $180 $267 forward 7 unknown #
coedge $-1 $175 $111 $116 $190 forward $167 $-1 #
coedge $-1 $111 $175 $169 $258 reversed $167 $-1 #
vertex $-1 $112 $268 #
straight-curve $-1 0 18.640258298560603 9.0189109489846437 -1 0 0 I I #
coedge $-1 $113 $170 $115 $189 reversed $63 $-1 #
vertex $-1 $181 $269 #
straight-curve $-1 0 -18.640258298560603 9.0189109489846437 1 0 0 I I #
edge $-1 $118 -9.0189109489846437 $178 9.0189109489846437 $115 $270 forward 7 unknown #
edge $-1 $119 -9.0189109489846437 $177 9.0189109489846437 $116 $271 forward 7 unknown #
point $-1 41.711478011413924 -18.640258298560603 9.0189109489846437 #
point $-1 41.711478011413924 18.640258298560603 9.0189109489846437 #
face $-1 $272 $208 $16 $-1 $273 reversed single #
loop $-1 $-1 $274 $121 #
plane-surface $-1 0 0 -9.0189109489846437 0 0 1 1 0 0 forward_v I I I I #
coedge $-1 $127 $275 $124 $199 forward $122 $-1 #
coedge $-1 $198 $124 $276 $277 reversed $71 $-1 #
coedge $-1 $124 $197 $125 $201 forward $71 $-1 #
edge $-1 $278 24.425165763807662 $202 26.659510768241997 $196 $279 forward 7 unknown #
coedge $-1 $126 $125 $206 $280 reversed $45 $-1 #
edge $-1 $281 1.2080531203272332e-014 $202 3.8012948411647574 $198 $282 forward 7 unknown #
vertex $-1 $128 $283 #
straight-curve $-1 14.404068835283415 -16.405913294126268 9.0189109489846437 1 0 0 I I #
vertex $-1 $280 $284 #
straight-curve $-1 35.45750762792089 -18.64025829856061 5.9435987907436143 0 -0.5877852410284794 -0.80901700255871778 I I #
coedge $-1 $276 $130 $200 $280 forward $208 $-1 #
coedge $-1 $130 $285 $132 $211 reversed $208 $-1 #
loop $-1 $-1 $276 $193 #
straight-curve $-1 35.45750762792089 -18.640258298560603 27.48919055196486 0 0 -1 I I #
coedge $-1 $286 $132 $287 $288 forward $122 $-1 #
edge $-1 $134 35.45750762792089 $289 41.711478011413924 $207 $290 forward 7 unknown #
point $-1 35.45750762792089 -16.405913294126268 9.0189109489846437 #
point $-1 35.45750762792089 -18.640258298560603 9.0189109489846437 #
face $-1 $291 $292 $17 $-1 $293 forward single #
loop $-1 $-1 $294 $136 #
plane-surface $-1 22.158767713212765 -86.130848124736531 54.978381103929721 1 0 0 0 0.80901700255871778 -0.5877852410284794 forward_v I I I I #
loop $-1 $-1 $295 $78 #
coedge $-1 $219 $139 $296 $297 forward $79 $-1 #
coedge $-1 $139 $218 $298 $299 reversed $79 $-1 #
coedge $-1 $300 $301 $139 $221 forward $292 $-1 #
edge $-1 $302 -26.659510768241997 $303 -24.425165763807662 $220 $304 forward 7 unknown #
edge $-1 $305 1 $305 0 $140 $-1 forward 7 unknown #
vertex $-1 $141 $306 #
ellipse-curve $-1 28.808137670566829 -16.260995076158636 6.5642923142968437 0 -0.80901700255871778 0.5877852410284794 0.5 0 0 1 I I #
point $-1 29.308137670566829 -17.523085796343434 7.4812548698641308 #
face $-1 $307 $308 $18 $-1 $309 reversed single #
loop $-1 $310 $311 $144 #
cone-surface $-1 28.808137670566829 -16.892040436251037 7.0227735920804877 0 0.80901700255871778 -0.5877852410284794 0.5 0 0 1 I I 0 1 0.5 forward I I I I #
coedge $-1 $147 $312 $313 $314 reversed $87 $-1 #
coedge $-1 $149 $148 $237 $315 reversed $54 $-1 #
coedge $-1 $313 $316 $148 $232 forward $317 $-1 #
edge $-1 $318 14.536339703001449 $233 25.648922897826424 $231 $319 forward 7 unknown #
vertex $-1 $314 $320 #
straight-curve $-1 -16.485307416526176 18.640258298560603 2.9665642819331222 1 0 0 I I #
vertex $-1 $315 $321 #
straight-curve $-1 -24.22975165469078 -12.625813556484871 23.270989132279468 0 -0.83867056331134215 0.54463904215088732 I I #
coedge $-1 $322 $152 $230 $315 forward $145 $-1 #
coedge $-1 $152 $323 $154 $241 forward $145 $-1 #
straight-curve $-1 -24.22975165469078 16.404792652591841 9.0189109489846402 0 -1 0 I I #
coedge $-1 $312 $154 $324 $325 forward $87 $-1 #
edge $-1 $326 -41.711478011413924 $156 24.22975165469078 $154 $327 forward 7 unknown #
point $-1 -24.22975165469078 18.640258298560607 2.9665642819331204 #
point $-1 -24.22975165469078 18.640258298560603 9.0189109489846437 #
face $-1 $328 $329 $19 $-1 $330 forward single #
loop $-1 $-1 $331 $158 #
plane-surface $-1 0 18.640258298560603 0 0 -1 0 0 0 -1 forward_v I I I I #
loop $-1 $-1 $332 $94 #
coedge $-1 $249 $161 $333 $334 forward $95 $-1 #
coedge $-1 $161 $248 $335 $336 reversed $95 $-1 #
coedge $-1 $337 $331 $161 $251 forward $245 $-1 #
edge $-1 $338 -43.651119044587787 $339 -37.598772377536264 $250 $340 forward 7 unknown #
edge $-1 $341 1 $341 0 $162 $-1 forward 7 unknown #
vertex $-1 $163 $342 #
ellipse-curve $-1 -32.970614833052352 12.618388503894565 3.8954853202310105 0 0.54463904215088732 0.83867056331134215 2.5 0 0 1 I I #
point $-1 -30.470614833052352 13.980360094636582 5.9927376154588732 #
plane-surface $-1 41.711478011413924 0 0 -1 0 0 0 0 1 forward_v I I I I #
coedge $-1 $171 $169 $173 $261 reversed $103 $-1 #
edge $-1 $184 -9.0189109489846437 $263 9.0189109489846437 $183 $343 forward 7 unknown #
vertex $-1 $261 $344 #
straight-curve $-1 -41.711478011413924 -18.640258298560603 0 0 0 -1 I I #
edge $-1 $259 -18.640258298560603 $263 18.640258298560603 $257 $345 forward 7 unknown #
straight-curve $-1 0 -18.640258298560603 -9.0189109489846437 -1 0 0 I I #
vertex $-1 $176 $346 #
straight-curve $-1 0 18.640258298560603 -9.0189109489846437 1 0 0 I I #
point $-1 41.711478011413924 18.640258298560603 -9.0189109489846437 #
point $-1 41.711478011413924 -18.640258298560603 -9.0189109489846437 #
straight-curve $-1 -41.711478011413924 0 9.0189109489846437 0 -1 0 I I #
point $-1 -41.711478011413924 18.640258298560603 9.0189109489846437 #
point $-1 -41.711478011413924 -18.640258298560603 9.0189109489846437 #
straight-curve $-1 41.711478011413924 -18.640258298560603 0 0 0 -1 I I #
straight-curve $-1 41.711478011413924 18.640258298560603 0 0 0 -1 I I #
face $-1 $347 $348 $16 $-1 $349 reversed single #
plane-surface $-1 0 -18.640258298560603 0 0 1 0 0 0 1 forward_v I I I I #
coedge $-1 $350 $351 $352 $353 forward $194 $-1 #
coedge $-1 $196 $354 $355 $356 forward $122 $-1 #
coedge $-1 $355 $206 $197 $277 forward $208 $-1 #
edge $-1 $281 -21.545591761221235 $278 -18.470279602980217 $276 $357 forward 7 unknown #
vertex $-1 $277 $358 #
straight-curve $-1 22.158767713212765 -43.065424062368265 9.0189109489846437 0 1 0 I I #
edge $-1 $204 -21.053438792637476 $281 -7.75469887792935 $206 $359 forward 7 unknown #
vertex $-1 $280 $360 #
straight-curve $-1 22.158767713212765 -18.64025829856061 5.9435987907436143 0 0.5877852410284794 0.80901700255871778 I I #
point $-1 22.158767713212765 -16.405913294126268 9.0189109489846437 #
point $-1 35.45750762792089 -18.640258298560603 5.9435987907436241 #
coedge $-1 $207 $361 $362 $363 reversed $208 $-1 #
coedge $-1 $354 $210 $364 $365 forward $122 $-1 #
coedge $-1 $362 $366 $210 $288 reversed $367 $-1 #
edge $-1 $289 -18.640258298560603 $368 18.640258298560603 $287 $369 forward 7 unknown #
vertex $-1 $288 $370 #
straight-curve $-1 0 -18.640258298560603 9.0189109489846437 1 0 0 I I #
face $-1 $371 $372 $17 $-1 $373 reversed single #
loop $-1 $-1 $374 $214 #
plane-surface $-1 0 0 9.0189109489846437 0 0 1 1 0 0 forward_v I I I I #
coedge $-1 $375 $376 $374 $377 reversed $215 $-1 #
coedge $-1 $378 $296 $301 $379 reversed $217 $-1 #
coedge $-1 $295 $380 $218 $297 reversed $217 $-1 #
edge $-1 $302 -3.8012948411647574 $381 -1.2080531203272332e-014 $218 $382 forward 7 unknown #
coedge $-1 $383 $384 $219 $299 forward $385 $-1 #
edge $-1 $303 18.470279602980217 $381 21.545591761221235 $298 $386 forward 7 unknown #
coedge $-1 $387 $220 $384 $388 forward $292 $-1 #
coedge $-1 $220 $374 $295 $379 forward $292 $-1 #
vertex $-1 $379 $389 #
vertex $-1 $388 $390 #
straight-curve $-1 35.45750762792089 -43.065424062368265 9.0189109489846437 0 -1 0 I I #
vertex $-1 $222 $391 #
point $-1 29.308137670566829 -16.260995076158636 6.5642923142968437 #
face $-1 $392 $393 $18 $-1 $394 forward single #
loop $-1 $395 $396 $226 #
cone-surface $-1 28.808137670566829 -16.058740825518957 6.4173460040397234 0 0.80901700255871778 -0.5877852410284794 0.25 0 0 1 I I -0.70710678118654746 0.70710678118654746 0.25 forward I I I I #
loop $-1 $-1 $397 $144 #
coedge $-1 $311 $311 $398 $399 reversed $227 $-1 #
coedge $-1 $229 $240 $400 $401 reversed $87 $-1 #
coedge $-1 $402 $231 $229 $314 forward $317 $-1 #
edge $-1 $233 -2.9665642819331239 $403 9.0189109489846437 $229 $404 forward 7 unknown #
edge $-1 $235 7.7444442381646041 $318 25.226170594887748 $237 $405 forward 7 unknown #
coedge $-1 $231 $406 $322 $407 reversed $317 $-1 #
loop $-1 $-1 $231 $408 #
vertex $-1 $407 $409 #
straight-curve $-1 -41.711478011413924 -2.8707383164886657 16.935969081207269 0 0.83867056331134215 -0.54463904215088732 I I #
point $-1 -41.711478011413924 18.640258298560603 2.9665642819331239 #
point $-1 -24.22975165469078 9.3204618907125862 9.0189109489846437 #
coedge $-1 $410 $237 $316 $407 forward $145 $-1 #
coedge $-1 $238 $411 $412 $413 forward $145 $-1 #
coedge $-1 $412 $414 $240 $325 reversed $415 $-1 #
edge $-1 $326 -9.0189109489846437 $416 9.0189109489846437 $324 $417 forward 7 unknown #
vertex $-1 $413 $418 #
straight-curve $-1 0 18.640258298560603 9.0189109489846437 -1 0 0 I I #
face $-1 $419 $420 $19 $-1 $421 reversed single #
loop $-1 $-1 $335 $244 #
plane-surface $-1 0 0 9.0189109489846437 0 0 1 1 0 0 forward_v I I I I #
coedge $-1 $250 $422 $332 $423 forward $245 $-1 #
coedge $-1 $424 $333 $331 $423 reversed $247 $-1 #
coedge $-1 $332 $425 $248 $334 reversed $247 $-1 #
edge $-1 $338 -37.280516597121199 $426 -26.167933402296221 $248 $427 forward 7 unknown #
coedge $-1 $428 $429 $249 $336 forward $329 $-1 #
edge $-1 $339 -2.2354656459687625 $426 7.0843307618792544 $335 $430 forward 7 unknown #
coedge $-1 $431 $250 $429 $432 reversed $245 $-1 #
vertex $-1 $423 $433 #
vertex $-1 $336 $434 #
straight-curve $-1 -24.22975165469078 18.640258298560603 46.617683326520911 0 0 1 I I #
vertex $-1 $252 $435 #
point $-1 -30.470614833052352 12.618388503894565 3.8954853202310105 #
straight-curve $-1 -41.711478011413924 18.640258298560603 0 0 0 -1 I I #
point $-1 -41.711478011413924 -18.640258298560603 -9.0189109489846437 #
straight-curve $-1 -41.711478011413924 0 -9.0189109489846437 0 1 0 I I #
point $-1 -41.711478011413924 18.640258298560603 -9.0189109489846437 #
face $-1 $436 $437 $16 $-1 $438 reversed single #
loop $-1 $-1 $439 $272 #
plane-surface $-1 -41.711478011413924 0 0 1 0 0 0 0 -1 forward_v I I I I #
coedge $-1 $440 $274 $361 $441 forward $194 $-1 #
coedge $-1 $274 $440 $442 $443 forward $194 $-1 #
coedge $-1 $366 $362 $274 $353 reversed $367 $-1 #
edge $-1 $444 -18.640258298560603 $445 18.640258298560603 $352 $446 forward 7 unknown #
coedge $-1 $275 $286 $447 $448 forward $122 $-1 #
coedge $-1 $449 $276 $275 $356 reversed $208 $-1 #
edge $-1 $450 -41.711478011413924 $278 22.158767713212765 $355 $290 forward 7 unknown #
straight-curve $-1 22.158767713212765 -18.640258298560603 27.48919055196486 0 0 1 I I #
point $-1 22.158767713212765 -18.640258298560603 9.0189109489846437 #
straight-curve $-1 14.404068835283415 -18.640258298560603 5.943598790743625 -1 0 0 I I #
point $-1 22.158767713212765 -18.640258298560603 5.9435987907436241 #
coedge $-1 $285 $449 $350 $441 reversed $208 $-1 #
coedge $-1 $352 $287 $285 $363 forward $367 $-1 #
edge $-1 $289 -9.0189109489846437 $445 9.0189109489846437 $362 $451 forward 7 unknown #
coedge $-1 $452 $453 $286 $365 reversed $437 $-1 #
edge $-1 $368 -41.711478011413924 $454 41.711478011413924 $364 $455 forward 7 unknown #
coedge $-1 $287 $352 $452 $456 reversed $367 $-1 #
loop $-1 $-1 $362 $436 #
vertex $-1 $288 $457 #
straight-curve $-1 41.711478011413924 0 9.0189109489846437 0 1 0 I I #
point $-1 41.711478011413924 -18.640258298560603 9.0189109489846437 #
face $-1 $458 $385 $17 $-1 $459 reversed single #
loop $-1 $-1 $460 $291 #
plane-surface $-1 0 0 -9.0189109489846437 0 0 1 1 0 0 forward_v I I I I #
coedge $-1 $301 $461 $294 $377 forward $292 $-1 #
coedge $-1 $376 $294 $462 $463 reversed $215 $-1 #
coedge $-1 $294 $375 $378 $464 forward $215 $-1 #
edge $-1 $465 24.425165763807662 $466 26.659510768241997 $374 $467 forward 7 unknown #
coedge $-1 $380 $295 $376 $464 reversed $217 $-1 #
edge $-1 $466 7.75469887792935 $302 21.053438792637476 $301 $468 forward 7 unknown #
coedge $-1 $296 $378 $383 $469 reversed $217 $-1 #
vertex $-1 $469 $470 #
straight-curve $-1 35.45750762792089 -18.64025829856061 5.9435987907436143 0 -0.5877852410284794 -0.80901700255871778 I I #
coedge $-1 $462 $298 $380 $469 forward $385 $-1 #
coedge $-1 $298 $471 $300 $388 reversed $385 $-1 #
loop $-1 $-1 $462 $371 #
straight-curve $-1 35.45750762792089 -18.640258298560603 27.48919055196486 0 0 -1 I I #
coedge $-1 $472 $300 $473 $474 forward $292 $-1 #
edge $-1 $303 35.45750762792089 $475 41.711478011413924 $384 $476 forward 7 unknown #
point $-1 35.45750762792089 -16.405913294126268 9.0189109489846437 #
point $-1 35.45750762792089 -18.640258298560603 9.0189109489846437 #
point $-1 28.808137670566829 -15.856486574879277 6.2703996937826032 #
face $-1 $477 $478 $18 $-1 $479 forward single #
loop $-1 $-1 $480 $307 #
plane-surface $-1 35.45750762792089 -86.130848124736531 54.978381103929721 -1 0 0 0 -0.80901700255871778 0.5877852410284794 forward_v I I I I #
loop $-1 $-1 $481 $226 #
coedge $-1 $396 $396 $397 $482 forward $308 $-1 #
coedge $-1 $397 $397 $396 $482 reversed $310 $-1 #
coedge $-1 $398 $398 $311 $399 forward $478 $-1 #
edge $-1 $483 -2.7393624463115877e-015 $483 6.2831853071795978 $398 $484 forward 7 unknown #
coedge $-1 $485 $486 $312 $401 forward $487 $-1 #
edge $-1 $403 -41.711478011413924 $416 41.711478011413924 $312 $488 forward 7 unknown #
coedge $-1 $406 $313 $486 $489 reversed $317 $-1 #
vertex $-1 $401 $490 #
straight-curve $-1 -41.711478011413924 18.640258298560603 0 0 0 -1 I I #
straight-curve $-1 -16.485307416526176 9.3204618907125862 9.0189109489846437 -1 0 0 I I #
coedge $-1 $316 $402 $491 $492 reversed $317 $-1 #
edge $-1 $318 -9.3204618907125862 $493 18.640258298560603 $316 $494 forward 7 unknown #
face $-1 $495 $317 $18 $-1 $496 reversed single #
point $-1 -41.711478011413924 9.3204618907125862 9.0189109489846437 #
coedge $-1 $497 $322 $498 $499 forward $145 $-1 #
coedge $-1 $323 $500 $501 $502 forward $145 $-1 #
coedge $-1 $503 $324 $323 $413 reversed $415 $-1 #
edge $-1 $504 -18.640258298560603 $326 18.640258298560603 $412 $505 forward 7 unknown #
coedge $-1 $324 $503 $485 $506 reversed $415 $-1 #
loop $-1 $-1 $503 $495 #
vertex $-1 $506 $507 #
straight-curve $-1 41.711478011413924 18.640258298560603 0 0 0 -1 I I #
point $-1 41.711478011413924 18.640258298560603 9.0189109489846437 #
face $-1 $508 $509 $19 $-1 $510 reversed single #
loop $-1 $511 $512 $328 #
cone-surface $-1 28.808137670566829 -16.892040436251037 7.0227735920804877 0 0.80901700255871778 -0.5877852410284794 0.5 0 0 1 I I 0 1 0.5 forward I I I I #
coedge $-1 $331 $513 $514 $515 reversed $245 $-1 #
edge $-1 $516 -25.226170594887748 $338 -7.7444442381646041 $331 $517 forward 7 unknown #
coedge $-1 $425 $332 $518 $519 reversed $247 $-1 #
coedge $-1 $333 $424 $428 $520 reversed $247 $-1 #
vertex $-1 $520 $521 #
straight-curve $-1 -24.22975165469078 -12.625813556484871 23.270989132279468 0 -0.83867056331134215 0.54463904215088732 I I #
coedge $-1 $522 $335 $425 $520 forward $329 $-1 #
coedge $-1 $335 $523 $337 $432 forward $329 $-1 #
straight-curve $-1 -24.22975165469078 16.404792652591841 9.0189109489846402 0 -1 0 I I #
coedge $-1 $513 $337 $524 $525 forward $245 $-1 #
edge $-1 $526 -41.711478011413924 $339 24.22975165469078 $337 $527 forward 7 unknown #
point $-1 -24.22975165469078 18.640258298560607 2.9665642819331204 #
point $-1 -24.22975165469078 18.640258298560603 9.0189109489846437 #
point $-1 -32.970614833052352 11.256790898517345 1.7988089119526549 #
face $-1 $-1 $367 $16 $-1 $528 reversed single #
loop $-1 $-1 $452 $347 #
plane-surface $-1 0 18.640258298560603 0 0 -1 0 0 0 -1 forward_v I I I I #
coedge $-1 $529 $447 $453 $530 forward $348 $-1 #
coedge $-1 $351 $350 $529 $531 forward $194 $-1 #
edge $-1 $445 -41.711478011413924 $532 41.711478011413924 $361 $533 forward 7 unknown #
coedge $-1 $453 $452 $351 $443 reversed $437 $-1 #
edge $-1 $534 -41.711478011413924 $444 41.711478011413924 $442 $535 forward 7 unknown #
vertex $-1 $353 $536 #
vertex $-1 $363 $537 #
straight-curve $-1 41.711478011413924 0 -9.0189109489846437 0 -1 0 I I #
coedge $-1 $439 $538 $354 $448 reversed $348 $-1 #
edge $-1 $454 -18.640258298560603 $450 18.640258298560603 $447 $539 forward 7 unknown #
coedge $-1 $361 $355 $538 $540 forward $208 $-1 #
vertex $-1 $448 $541 #
straight-curve $-1 41.711478011413924 -18.640258298560603 0 0 0 -1 I I #
coedge $-1 $442 $364 $366 $456 forward $437 $-1 #
coedge $-1 $364 $442 $439 $530 reversed $437 $-1 #
vertex $-1 $365 $542 #
straight-curve $-1 0 18.640258298560603 9.0189109489846437 -1 0 0 I I #
edge $-1 $368 -9.0189109489846437 $444 9.0189109489846437 $366 $543 forward 7 unknown #
point $-1 41.711478011413924 18.640258298560603 9.0189109489846437 #
face $-1 $544 $545 $17 $-1 $546 reversed single #
plane-surface $-1 0 -18.640258298560603 0 0 1 0 0 0 1 forward_v I I I I #
coedge $-1 $547 $548 $549 $550 forward $372 $-1 #
coedge $-1 $374 $551 $552 $553 forward $292 $-1 #
coedge $-1 $552 $383 $375 $463 forward $385 $-1 #
edge $-1 $554 -21.545591761221235 $465 -18.470279602980217 $462 $555 forward 7 unknown #
edge $-1 $554 1.2080531203272332e-014 $466 3.8012948411647574 $376 $556 forward 7 unknown #
vertex $-1 $463 $557 #
vertex $-1 $379 $558 #
straight-curve $-1 22.158767713212765 -43.065424062368265 9.0189109489846437 0 1 0 I I #
straight-curve $-1 14.404068835283415 -16.405913294126268 9.0189109489846437 1 0 0 I I #
edge $-1 $381 -21.053438792637476 $554 -7.75469887792935 $383 $559 forward 7 unknown #
point $-1 35.45750762792089 -18.640258298560603 5.9435987907436241 #
coedge $-1 $384 $560 $561 $562 reversed $385 $-1 #
coedge $-1 $551 $387 $563 $564 forward $292 $-1 #
coedge $-1 $561 $565 $387 $474 reversed $566 $-1 #
edge $-1 $475 -18.640258298560603 $567 18.640258298560603 $473 $568 forward 7 unknown #
vertex $-1 $474 $569 #
straight-curve $-1 0 -18.640258298560603 9.0189109489846437 1 0 0 I I #
face $-1 $570 $571 $18 $-1 $572 forward single #
loop $-1 $573 $398 $392 #
plane-surface $-1 28.808137670566829 -18.64025829856061 5.9435987907436143 0 -0.80901700255871778 0.5877852410284794 1 0 0 forward_v I I I I #
coedge $-1 $574 $575 $500 $576 reversed $393 $-1 #
coedge $-1 $481 $481 $-1 $577 forward $395 $-1 #
edge $-1 $578 0 $578 6.2831853071796004 $396 $579 forward 7 unknown #
vertex $-1 $399 $580 #
ellipse-curve $-1 28.808137670566829 -17.523085796343437 7.4812548698641317 0 0.80901700255871778 -0.5877852410284794 0.5 0 0 1 I I #
coedge $-1 $581 $400 $414 $506 forward $487 $-1 #
coedge $-1 $400 $581 $402 $489 forward $487 $-1 #
loop $-1 $-1 $485 $570 #
straight-curve $-1 0 18.640258298560603 -9.0189109489846437 1 0 0 I I #
edge $-1 $582 -18.640258298560603 $403 18.640258298560603 $402 $583 forward 7 unknown #
point $-1 -41.711478011413924 18.640258298560603 -9.0189109489846437 #
coedge $-1 $584 $498 $406 $492 forward $585 $-1 #
edge $-1 $493 -9.0189109489846437 $582 9.0189109489846437 $406 $586 forward 7 unknown #
vertex $-1 $407 $587 #
straight-curve $-1 -41.711478011413924 0 9.0189109489846437 0 -1 0 I I #
face $-1 $-1 $415 $18 $-1 $588 reversed single #
plane-surface $-1 -41.711478011413924 0 0 1 0 0 0 0 -1 forward_v I I I I #
coedge $-1 $589 $410 $590 $591 forward $145 $-1 #
coedge $-1 $491 $592 $410 $499 reversed $585 $-1 #
edge $-1 $493 -41.711478011413924 $593 22.158767713212765 $498 $594 forward 7 unknown #
coedge $-1 $411 $589 $480 $576 forward $145 $-1 #
coedge $-1 $595 $596 $411 $502 reversed $585 $-1 #
edge $-1 $597 35.45750762792089 $504 41.711478011413924 $501 $594 forward 7 unknown #
coedge $-1 $414 $412 $596 $598 forward $415 $-1 #
vertex $-1 $413 $599 #
straight-curve $-1 41.711478011413924 0 9.0189109489846437 0 1 0 I I #
edge $-1 $416 -18.640258298560603 $600 18.640258298560603 $414 $601 forward 7 unknown #
point $-1 41.711478011413924 18.640258298560603 -9.0189109489846437 #
face $-1 $602 $603 $19 $-1 $604 forward single #
loop $-1 $605 $606 $419 #
cone-surface $-1 28.808137670566829 -16.058740825518957 6.4173460040397234 0 0.80901700255871778 -0.5877852410284794 0.25 0 0 1 I I -0.70710678118654746 0.70710678118654746 0.25 forward I I I I #
loop $-1 $-1 $607 $328 #
coedge $-1 $512 $512 $608 $609 reversed $420 $-1 #
coedge $-1 $422 $431 $610 $611 reversed $245 $-1 #
coedge $-1 $612 $518 $422 $515 forward $613 $-1 #
edge $-1 $516 -2.9665642819331239 $614 9.0189109489846437 $422 $615 forward 7 unknown #
vertex $-1 $515 $616 #
straight-curve $-1 -16.485307416526176 18.640258298560603 2.9665642819331222 1 0 0 I I #
coedge $-1 $514 $617 $424 $519 forward $613 $-1 #
edge $-1 $618 14.536339703001449 $516 25.648922897826424 $518 $619 forward 7 unknown #
edge $-1 $426 7.7444442381646041 $618 25.226170594887748 $428 $620 forward 7 unknown #
point $-1 -24.22975165469078 9.3204618907125862 9.0189109489846437 #
coedge $-1 $621 $428 $617 $622 forward $329 $-1 #
coedge $-1 $429 $623 $624 $625 forward $329 $-1 #
coedge $-1 $624 $626 $431 $525 reversed $627 $-1 #
edge $-1 $526 -9.0189109489846437 $628 9.0189109489846437 $524 $629 forward 7 unknown #
vertex $-1 $625 $630 #
straight-curve $-1 0 18.640258298560603 9.0189109489846437 -1 0 0 I I #
plane-surface $-1 41.711478011413924 0 0 -1 0 0 0 0 1 forward_v I I I I #
coedge $-1 $538 $439 $440 $531 reversed $348 $-1 #
edge $-1 $454 -9.0189109489846437 $534 9.0189109489846437 $453 $631 forward 7 unknown #
edge $-1 $532 -18.640258298560603 $534 18.640258298560603 $529 $632 forward 7 unknown #
vertex $-1 $531 $633 #
straight-curve $-1 0 -18.640258298560603 -9.0189109489846437 -1 0 0 I I #
vertex $-1 $443 $634 #
straight-curve $-1 0 18.640258298560603 -9.0189109489846437 1 0 0 I I #
point $-1 41.711478011413924 18.640258298560603 -9.0189109489846437 #
point $-1 41.711478011413924 -18.640258298560603 -9.0189109489846437 #
coedge $-1 $447 $529 $449 $540 reversed $348 $-1 #
straight-curve $-1 -41.711478011413924 0 9.0189109489846437 0 -1 0 I I #
edge $-1 $450 -9.0189109489846437 $532 9.0189109489846437 $538 $635 forward 7 unknown #
point $-1 -41.711478011413924 -18.640258298560603 9.0189109489846437 #
point $-1 -41.711478011413924 18.640258298560603 9.0189109489846437 #
straight-curve $-1 41.711478011413924 18.640258298560603 0 0 0 -1 I I #
face $-1 $636 $637 $17 $-1 $638 reversed single #
loop $-1 $-1 $639 $458 #
plane-surface $-1 -41.711478011413924 0 0 1 0 0 0 0 -1 forward_v I I I I #
coedge $-1 $640 $460 $560 $641 forward $372 $-1 #
coedge $-1 $460 $640 $642 $643 forward $372 $-1 #
coedge $-1 $565 $561 $460 $550 reversed $566 $-1 #
edge $-1 $644 -18.640258298560603 $645 18.640258298560603 $549 $646 forward 7 unknown #
coedge $-1 $461 $472 $647 $648 forward $292 $-1 #
coedge $-1 $649 $462 $461 $553 reversed $385 $-1 #
edge $-1 $650 -41.711478011413924 $465 22.158767713212765 $552 $476 forward 7 unknown #
vertex $-1 $469 $651 #
straight-curve $-1 22.158767713212765 -18.640258298560603 27.48919055196486 0 0 1 I I #
straight-curve $-1 22.158767713212765 -18.64025829856061 5.9435987907436143 0 0.5877852410284794 0.80901700255871778 I I #
point $-1 22.158767713212765 -18.640258298560603 9.0189109489846437 #
point $-1 22.158767713212765 -16.405913294126268 9.0189109489846437 #
straight-curve $-1 14.404068835283415 -18.640258298560603 5.943598790743625 -1 0 0 I I #
coedge $-1 $471 $649 $547 $641 reversed $385 $-1 #
coedge $-1 $549 $473 $471 $562 forward $566 $-1 #
edge $-1 $475 -9.0189109489846437 $645 9.0189109489846437 $561 $652 forward 7 unknown #
coedge $-1 $653 $654 $472 $564 reversed $637 $-1 #
edge $-1 $567 -41.711478011413924 $655 41.711478011413924 $563 $656 forward 7 unknown #
coedge $-1 $473 $549 $653 $657 reversed $566 $-1 #
loop $-1 $-1 $561 $636 #
vertex $-1 $474 $658 #
straight-curve $-1 41.711478011413924 0 9.0189109489846437 0 1 0 I I #
point $-1 41.711478011413924 -18.640258298560603 9.0189109489846437 #
face $-1 $659 $487 $18 $-1 $660 reversed single #
loop $-1 $-1 $590 $477 #
plane-surface $-1 22.158767713212765 -86.130848124736531 54.978381103929721 1 0 0 0 0.80901700255871778 -0.5877852410284794 forward_v I I I I #
loop $-1 $-1 $661 $392 #
coedge $-1 $575 $480 $662 $663 forward $393 $-1 #
coedge $-1 $480 $574 $595 $664 reversed $393 $-1 #
edge $-1 $665 -26.659510768241997 $597 -24.425165763807662 $500 $666 forward 7 unknown #
edge $-1 $667 1 $667 0 $481 $-1 forward 7 unknown #
vertex $-1 $482 $668 #
ellipse-curve $-1 28.808137670566829 -16.260995076158636 6.5642923142968437 0 -0.80901700255871778 0.5877852410284794 0.5 0 0 1 I I #
point $-1 29.308137670566829 -17.523085796343434 7.4812548698641308 #
coedge $-1 $486 $485 $584 $669 forward $487 $-1 #
vertex $-1 $489 $670 #
straight-curve $-1 -41.711478011413924 0 -9.0189109489846437 0 1 0 I I #
coedge $-1 $596 $491 $581 $669 reversed $585 $-1 #
loop $-1 $-1 $592 $659 #
straight-curve $-1 -41.711478011413924 -18.640258298560603 0 0 0 -1 I I #
point $-1 -41.711478011413924 -18.640258298560603 9.0189109489846437 #
plane-surface $-1 41.711478011413924 0 0 -1 0 0 0 0 1 forward_v I I I I #
coedge $-1 $500 $497 $661 $671 forward $145 $-1 #
coedge $-1 $672 $673 $497 $591 reversed $571 $-1 #
edge $-1 $593 24.425165763807662 $674 26.659510768241997 $497 $675 forward 7 unknown #
coedge $-1 $498 $676 $672 $677 forward $585 $-1 #
vertex $-1 $677 $678 #
straight-curve $-1 0 -18.640258298560603 9.0189109489846437 1 0 0 I I #
coedge $-1 $676 $501 $575 $664 forward $585 $-1 #
coedge $-1 $501 $584 $503 $598 reversed $585 $-1 #
vertex $-1 $502 $679 #
edge $-1 $504 -9.0189109489846437 $600 9.0189109489846437 $503 $680 forward 7 unknown #
point $-1 41.711478011413924 -18.640258298560603 9.0189109489846437 #
vertex $-1 $598 $681 #
straight-curve $-1 41.711478011413924 0 -9.0189109489846437 0 -1 0 I I #
face $-1 $682 $683 $19 $-1 $684 forward single #
loop $-1 $-1 $685 $508 #
plane-surface $-1 35.45750762792089 -86.130848124736531 54.978381103929721 -1 0 0 0 -0.80901700255871778 0.5877852410284794 forward_v I I I I #
loop $-1 $-1 $686 $419 #
coedge $-1 $606 $606 $607 $687 forward $509 $-1 #
coedge $-1 $607 $607 $606 $687 reversed $511 $-1 #
coedge $-1 $608 $608 $512 $609 forward $683 $-1 #
edge $-1 $688 -2.7393624463115877e-015 $688 6.2831853071795978 $608 $689 forward 7 unknown #
coedge $-1 $690 $691 $513 $611 forward $692 $-1 #
edge $-1 $614 -41.711478011413924 $628 41.711478011413924 $513 $693 forward 7 unknown #
coedge $-1 $694 $514 $691 $695 reversed $613 $-1 #
loop $-1 $-1 $518 $696 #
vertex $-1 $611 $697 #
straight-curve $-1 -41.711478011413924 18.640258298560603 0 0 0 -1 I I #
point $-1 -41.711478011413924 18.640258298560603 2.9665642819331239 #
coedge $-1 $518 $694 $522 $622 reversed $613 $-1 #
vertex $-1 $622 $698 #
straight-curve $-1 -41.711478011413924 -2.8707383164886657 16.935969081207269 0 0.83867056331134215 -0.54463904215088732 I I #
straight-curve $-1 -16.485307416526176 9.3204618907125862 9.0189109489846437 -1 0 0 I I #
coedge $-1 $699 $522 $700 $701 forward $329 $-1 #
edge $-1 $618 -9.3204618907125862 $702 18.640258298560603 $617 $703 forward 7 unknown #
coedge $-1 $523 $704 $705 $706 forward $329 $-1 #
coedge $-1 $707 $524 $523 $625 reversed $627 $-1 #
edge $-1 $708 -18.640258298560603 $526 18.640258298560603 $624 $709 forward 7 unknown #
coedge $-1 $524 $707 $690 $710 reversed $627 $-1 #
loop $-1 $-1 $707 $711 #
vertex $-1 $710 $712 #
straight-curve $-1 41.711478011413924 18.640258298560603 0 0 0 -1 I I #
point $-1 41.711478011413924 18.640258298560603 9.0189109489846437 #
straight-curve $-1 -41.711478011413924 18.640258298560603 0 0 0 -1 I I #
straight-curve $-1 -41.711478011413924 0 -9.0189109489846437 0 1 0 I I #
point $-1 -41.711478011413924 -18.640258298560603 -9.0189109489846437 #
point $-1 -41.711478011413924 18.640258298560603 -9.0189109489846437 #
straight-curve $-1 -41.711478011413924 -18.640258298560603 0 0 0 -1 I I #
face $-1 $-1 $566 $17 $-1 $713 reversed single #
loop $-1 $-1 $653 $544 #
plane-surface $-1 0 18.640258298560603 0 0 -1 0 0 0 -1 forward_v I I I I #
coedge $-1 $714 $647 $654 $715 forward $545 $-1 #
coedge $-1 $548 $547 $714 $716 forward $372 $-1 #
edge $-1 $645 -41.711478011413924 $717 41.711478011413924 $560 $718 forward 7 unknown #
coedge $-1 $654 $653 $548 $643 reversed $637 $-1 #
edge $-1 $719 -41.711478011413924 $644 41.711478011413924 $642 $720 forward 7 unknown #
vertex $-1 $550 $721 #
vertex $-1 $562 $722 #
straight-curve $-1 41.711478011413924 0 -9.0189109489846437 0 -1 0 I I #
coedge $-1 $639 $723 $551 $648 reversed $545 $-1 #
edge $-1 $655 -18.640258298560603 $650 18.640258298560603 $647 $724 forward 7 unknown #
coedge $-1 $560 $552 $723 $725 forward $385 $-1 #
vertex $-1 $648 $726 #
point $-1 22.158767713212765 -18.640258298560603 5.9435987907436241 #
straight-curve $-1 41.711478011413924 -18.640258298560603 0 0 0 -1 I I #
coedge $-1 $642 $563 $565 $657 forward $637 $-1 #
coedge $-1 $563 $642 $639 $715 reversed $637 $-1 #
vertex $-1 $564 $727 #
straight-curve $-1 0 18.640258298560603 9.0189109489846437 -1 0 0 I I #
edge $-1 $567 -9.0189109489846437 $644 9.0189109489846437 $565 $728 forward 7 unknown #
point $-1 41.711478011413924 18.640258298560603 9.0189109489846437 #
face $-1 $408 $585 $18 $-1 $729 reversed single #
plane-surface $-1 0 0 -9.0189109489846437 0 0 1 1 0 0 forward_v I I I I #
coedge $-1 $730 $662 $589 $671 reversed $573 $-1 #
coedge $-1 $661 $731 $574 $663 reversed $573 $-1 #
edge $-1 $665 -3.8012948411647574 $732 -1.2080531203272332e-014 $574 $733 forward 7 unknown #
edge $-1 $597 18.470279602980217 $732 21.545591761221235 $595 $734 forward 7 unknown #
vertex $-1 $671 $735 #
straight-curve $-1 35.45750762792089 -43.065424062368265 9.0189109489846437 0 -1 0 I I #
vertex $-1 $577 $736 #
point $-1 29.308137670566829 -16.260995076158636 6.5642923142968437 #
edge $-1 $600 -41.711478011413924 $582 41.711478011413924 $584 $737 forward 7 unknown #
point $-1 -41.711478011413924 -18.640258298560603 -9.0189109489846437 #
edge $-1 $674 7.75469887792935 $665 21.053438792637476 $589 $738 forward 7 unknown #
coedge $-1 $673 $590 $592 $677 reversed $571 $-1 #
coedge $-1 $590 $672 $730 $739 forward $571 $-1 #
vertex $-1 $671 $740 #
straight-curve $-1 22.158767713212765 -43.065424062368265 9.0189109489846437 0 1 0 I I #
coedge $-1 $592 $595 $731 $741 forward $585 $-1 #
edge $-1 $742 -21.545591761221235 $593 -18.470279602980217 $592 $743 forward 7 unknown #
point $-1 22.158767713212765 -18.640258298560603 9.0189109489846437 #
point $-1 35.45750762792089 -18.640258298560603 9.0189109489846437 #
straight-curve $-1 41.711478011413924 -18.640258298560603 0 0 0 -1 I I #
point $-1 41.711478011413924 -18.640258298560603 -9.0189109489846437 #
face $-1 $744 $745 $19 $-1 $746 forward single #
loop $-1 $747 $608 $602 #
plane-surface $-1 28.808137670566829 -18.64025829856061 5.9435987907436143 0 -0.80901700255871778 0.5877852410284794 1 0 0 forward_v I I I I #
coedge $-1 $748 $749 $704 $750 reversed $603 $-1 #
coedge $-1 $686 $686 $-1 $751 forward $605 $-1 #
edge $-1 $752 0 $752 6.2831853071796004 $606 $753 forward 7 unknown #
vertex $-1 $609 $754 #
ellipse-curve $-1 28.808137670566829 -17.523085796343437 7.4812548698641317 0 0.80901700255871778 -0.5877852410284794 0.5 0 0 1 I I #
coedge $-1 $755 $610 $626 $710 forward $692 $-1 #
coedge $-1 $610 $755 $612 $695 forward $692 $-1 #
loop $-1 $-1 $690 $744 #
straight-curve $-1 0 18.640258298560603 -9.0189109489846437 1 0 0 I I #
coedge $-1 $617 $612 $756 $757 reversed $613 $-1 #
edge $-1 $758 -18.640258298560603 $614 18.640258298560603 $612 $759 forward 7 unknown #
face $-1 $711 $613 $19 $-1 $760 reversed single #
point $-1 -41.711478011413924 18.640258298560603 -9.0189109489846437 #
point $-1 -41.711478011413924 9.3204618907125862 9.0189109489846437 #
coedge $-1 $761 $621 $762 $763 forward $329 $-1 #
coedge $-1 $756 $764 $621 $701 reversed $765 $-1 #
edge $-1 $702 -41.711478011413924 $766 22.158767713212765 $700 $767 forward 7 unknown #
vertex $-1 $622 $768 #
straight-curve $-1 -41.711478011413924 0 9.0189109489846437 0 -1 0 I I #
coedge $-1 $623 $761 $685 $750 forward $329 $-1 #
coedge $-1 $769 $770 $623 $706 reversed $765 $-1 #
edge $-1 $771 35.45750762792089 $708 41.711478011413924 $705 $767 forward 7 unknown #
coedge $-1 $626 $624 $770 $772 forward $627 $-1 #
vertex $-1 $625 $773 #
straight-curve $-1 41.711478011413924 0 9.0189109489846437 0 1 0 I I #
edge $-1 $628 -18.640258298560603 $774 18.640258298560603 $626 $775 forward 7 unknown #
face $-1 $-1 $627 $19 $-1 $776 reversed single #
point $-1 41.711478011413924 18.640258298560603 -9.0189109489846437 #
plane-surface $-1 41.711478011413924 0 0 -1 0 0 0 0 1 forward_v I I I I #
coedge $-1 $723 $639 $640 $716 reversed $545 $-1 #
edge $-1 $655 -9.0189109489846437 $719 9.0189109489846437 $654 $777 forward 7 unknown #
edge $-1 $717 -18.640258298560603 $719 18.640258298560603 $714 $778 forward 7 unknown #
vertex $-1 $716 $779 #
straight-curve $-1 0 -18.640258298560603 -9.0189109489846437 -1 0 0 I I #
vertex $-1 $643 $780 #
straight-curve $-1 0 18.640258298560603 -9.0189109489846437 1 0 0 I I #
point $-1 41.711478011413924 18.640258298560603 -9.0189109489846437 #
point $-1 41.711478011413924 -18.640258298560603 -9.0189109489846437 #
coedge $-1 $647 $714 $649 $725 reversed $545 $-1 #
straight-curve $-1 -41.711478011413924 0 9.0189109489846437 0 -1 0 I I #
edge $-1 $650 -9.0189109489846437 $717 9.0189109489846437 $723 $781 forward 7 unknown #
point $-1 -41.711478011413924 -18.640258298560603 9.0189109489846437 #
point $-1 -41.711478011413924 18.640258298560603 9.0189109489846437 #
straight-curve $-1 41.711478011413924 18.640258298560603 0 0 0 -1 I I #
plane-surface $-1 0 -18.640258298560603 0 0 1 0 0 0 1 forward_v I I I I #
coedge $-1 $731 $661 $673 $739 reversed $573 $-1 #
coedge $-1 $662 $730 $676 $741 reversed $573 $-1 #
vertex $-1 $741 $782 #
straight-curve $-1 35.45750762792089 -18.64025829856061 5.9435987907436143 0 -0.5877852410284794 -0.80901700255871778 I I #
straight-curve $-1 35.45750762792089 -18.640258298560603 27.48919055196486 0 0 -1 I I #
point $-1 35.45750762792089 -16.405913294126268 9.0189109489846437 #
point $-1 28.808137670566829 -15.856486574879277 6.2703996937826032 #
straight-curve $-1 0 -18.640258298560603 -9.0189109489846437 -1 0 0 I I #
straight-curve $-1 14.404068835283415 -16.405913294126268 9.0189109489846437 1 0 0 I I #
edge $-1 $742 1.2080531203272332e-014 $674 3.8012948411647574 $673 $783 forward 7 unknown #
point $-1 22.158767713212765 -16.405913294126268 9.0189109489846437 #
edge $-1 $732 -21.053438792637476 $742 -7.75469887792935 $676 $784 forward 7 unknown #
vertex $-1 $741 $785 #
straight-curve $-1 22.158767713212765 -18.640258298560603 27.48919055196486 0 0 1 I I #
face $-1 $786 $692 $19 $-1 $787 reversed single #
loop $-1 $-1 $762 $682 #
plane-surface $-1 22.158767713212765 -86.130848124736531 54.978381103929721 1 0 0 0 0.80901700255871778 -0.5877852410284794 forward_v I I I I #
loop $-1 $-1 $788 $602 #
coedge $-1 $749 $685 $789 $790 forward $603 $-1 #
coedge $-1 $685 $748 $769 $791 reversed $603 $-1 #
edge $-1 $792 -26.659510768241997 $771 -24.425165763807662 $704 $793 forward 7 unknown #
edge $-1 $794 1 $794 0 $686 $-1 forward 7 unknown #
vertex $-1 $687 $795 #
ellipse-curve $-1 28.808137670566829 -16.260995076158636 6.5642923142968437 0 -0.80901700255871778 0.5877852410284794 0.5 0 0 1 I I #
point $-1 29.308137670566829 -17.523085796343434 7.4812548698641308 #
coedge $-1 $691 $690 $796 $797 forward $692 $-1 #
coedge $-1 $796 $700 $694 $757 forward $765 $-1 #
edge $-1 $702 -9.0189109489846437 $758 9.0189109489846437 $694 $798 forward 7 unknown #
vertex $-1 $695 $799 #
straight-curve $-1 -41.711478011413924 0 -9.0189109489846437 0 1 0 I I #
plane-surface $-1 -41.711478011413924 0 0 1 0 0 0 0 -1 forward_v I I I I #
coedge $-1 $704 $699 $788 $800 forward $329 $-1 #
coedge $-1 $801 $802 $699 $763 reversed $745 $-1 #
edge $-1 $766 24.425165763807662 $803 26.659510768241997 $699 $804 forward 7 unknown #
coedge $-1 $700 $805 $801 $806 forward $765 $-1 #
loop $-1 $-1 $764 $786 #
vertex $-1 $806 $807 #
straight-curve $-1 0 -18.640258298560603 9.0189109489846437 1 0 0 I I #
point $-1 -41.711478011413924 -18.640258298560603 9.0189109489846437 #
coedge $-1 $805 $705 $749 $791 forward $765 $-1 #
coedge $-1 $705 $796 $707 $772 reversed $765 $-1 #
vertex $-1 $706 $808 #
edge $-1 $708 -9.0189109489846437 $774 9.0189109489846437 $707 $809 forward 7 unknown #
point $-1 41.711478011413924 -18.640258298560603 9.0189109489846437 #
vertex $-1 $772 $810 #
straight-curve $-1 41.711478011413924 0 -9.0189109489846437 0 -1 0 I I #
plane-surface $-1 41.711478011413924 0 0 -1 0 0 0 0 1 forward_v I I I I #
straight-curve $-1 -41.711478011413924 18.640258298560603 0 0 0 -1 I I #
straight-curve $-1 -41.711478011413924 0 -9.0189109489846437 0 1 0 I I #
point $-1 -41.711478011413924 -18.640258298560603 -9.0189109489846437 #
point $-1 -41.711478011413924 18.640258298560603 -9.0189109489846437 #
straight-curve $-1 -41.711478011413924 -18.640258298560603 0 0 0 -1 I I #
point $-1 35.45750762792089 -18.640258298560603 5.9435987907436241 #
straight-curve $-1 22.158767713212765 -18.64025829856061 5.9435987907436143 0 0.5877852410284794 0.80901700255871778 I I #
straight-curve $-1 14.404068835283415 -18.640258298560603 5.943598790743625 -1 0 0 I I #
point $-1 22.158767713212765 -18.640258298560603 5.9435987907436241 #
face $-1 $696 $765 $19 $-1 $811 reversed single #
plane-surface $-1 0 0 -9.0189109489846437 0 0 1 1 0 0 forward_v I I I I #
coedge $-1 $812 $789 $761 $800 reversed $747 $-1 #
coedge $-1 $788 $813 $748 $790 reversed $747 $-1 #
edge $-1 $792 -3.8012948411647574 $814 -1.2080531203272332e-014 $748 $815 forward 7 unknown #
edge $-1 $771 18.470279602980217 $814 21.545591761221235 $769 $816 forward 7 unknown #
vertex $-1 $800 $817 #
straight-curve $-1 35.45750762792089 -43.065424062368265 9.0189109489846437 0 -1 0 I I #
vertex $-1 $751 $818 #
point $-1 29.308137670566829 -16.260995076158636 6.5642923142968437 #
coedge $-1 $770 $756 $755 $797 reversed $765 $-1 #
edge $-1 $774 -41.711478011413924 $758 41.711478011413924 $796 $819 forward 7 unknown #
straight-curve $-1 -41.711478011413924 -18.640258298560603 0 0 0 -1 I I #
point $-1 -41.711478011413924 -18.640258298560603 -9.0189109489846437 #
edge $-1 $803 7.75469887792935 $792 21.053438792637476 $761 $820 forward 7 unknown #
coedge $-1 $802 $762 $764 $806 reversed $745 $-1 #
coedge $-1 $762 $801 $812 $821 forward $745 $-1 #
vertex $-1 $800 $822 #
straight-curve $-1 22.158767713212765 -43.065424062368265 9.0189109489846437 0 1 0 I I #
coedge $-1 $764 $769 $813 $823 forward $765 $-1 #
edge $-1 $824 -21.545591761221235 $766 -18.470279602980217 $764 $825 forward 7 unknown #
point $-1 22.158767713212765 -18.640258298560603 9.0189109489846437 #
point $-1 35.45750762792089 -18.640258298560603 9.0189109489846437 #
straight-curve $-1 41.711478011413924 -18.640258298560603 0 0 0 -1 I I #
point $-1 41.711478011413924 -18.640258298560603 -9.0189109489846437 #
plane-surface $-1 0 -18.640258298560603 0 0 1 0 0 0 1 forward_v I I I I #
coedge $-1 $813 $788 $802 $821 reversed $747 $-1 #
coedge $-1 $789 $812 $805 $823 reversed $747 $-1 #
vertex $-1 $823 $826 #
straight-curve $-1 35.45750762792089 -18.64025829856061 5.9435987907436143 0 -0.5877852410284794 -0.80901700255871778 I I #
straight-curve $-1 35.45750762792089 -18.640258298560603 27.48919055196486 0 0 -1 I I #
point $-1 35.45750762792089 -16.405913294126268 9.0189109489846437 #
point $-1 28.808137670566829 -15.856486574879277 6.2703996937826032 #
straight-curve $-1 0 -18.640258298560603 -9.0189109489846437 -1 0 0 I I #
straight-curve $-1 14.404068835283415 -16.405913294126268 9.0189109489846437 1 0 0 I I #
edge $-1 $824 1.2080531203272332e-014 $803 3.8012948411647574 $802 $827 forward 7 unknown #
point $-1 22.158767713212765 -16.405913294126268 9.0189109489846437 #
edge $-1 $814 -21.053438792637476 $824 -7.75469887792935 $805 $828 forward 7 unknown #
vertex $-1 $823 $829 #
straight-curve $-1 22.158767713212765 -18.640258298560603 27.48919055196486 0 0 1 I I #
point $-1 35.45750762792089 -18.640258298560603 5.9435987907436241 #
straight-curve $-1 22.158767713212765 -18.64025829856061 5.9435987907436143 0 0.5877852410284794 0.80901700255871778 I I #
straight-curve $-1 14.404068835283415 -18.640258298560603 5.943598790743625 -1 0 0 I I #
point $-1 22.158767713212765 -18.640258298560603 5.9435987907436241 #
End-of-ACIS-data 