500 0 9 0           
7 Unknown 11 ACIS 5.0 NT 24 Thu Mar 25 16:12:55 1999 
-1 9.9999999999999995e-007 1e-010 
body $-1 $9 $-1 $10 #
body $-1 $11 $-1 $12 #
body $-1 $13 $-1 $14 #
body $-1 $15 $-1 $16 #
body $-1 $17 $-1 $18 #
body $-1 $19 $-1 $20 #
body $-1 $21 $-1 $22 #
body $-1 $23 $-1 $24 #
body $-1 $25 $-1 $26 #
lump $-1 $-1 $27 $0 #
transform $-1 1 0 0 0 1 0 0 0 1 58.820154423657954 34.89322066979166 7.7824224158138193 1 rotate no_reflect no_shear #
lump $-1 $-1 $28 $1 #
transform $-1 1 0 0 0 1 0 0 0 1 58.820154423657954 34.89322066979166 7.7824224158138193 1 rotate no_reflect no_shear #
lump $-1 $-1 $29 $2 #
transform $-1 1 0 0 0 1 0 0 0 1 58.820154423657954 34.89322066979166 7.7824224158138193 1 rotate no_reflect no_shear #
lump $-1 $-1 $30 $3 #
transform $-1 1 0 0 0 1 0 0 0 1 58.820154423657954 34.89322066979166 7.7824224158138193 1 rotate no_reflect no_shear #
lump $-1 $-1 $31 $4 #
transform $-1 1 0 0 0 1 0 0 0 1 58.820154423657954 34.89322066979166 7.7824224158138193 1 rotate no_reflect no_shear #
lump $-1 $-1 $32 $5 #
transform $-1 1 0 0 0 1 0 0 0 1 58.820154423657954 34.89322066979166 7.7824224158138193 1 rotate no_reflect no_shear #
lump $-1 $-1 $33 $6 #
transform $-1 1 0 0 0 1 0 0 0 1 58.820154423657954 34.89322066979166 7.7824224158138193 1 rotate no_reflect no_shear #
lump $-1 $-1 $34 $7 #
transform $-1 1 0 0 0 1 0 0 0 1 58.820154423657954 34.89322066979166 7.7824224158138193 1 rotate no_reflect no_shear #
lump $-1 $-1 $35 $8 #
transform $-1 1 0 0 0 1 0 0 0 1 58.820154423657954 34.89322066979166 7.7824224158138193 1 rotate no_reflect no_shear #
shell $-1 $-1 $-1 $36 $-1 $9 #
shell $-1 $-1 $-1 $37 $-1 $11 #
shell $-1 $-1 $-1 $38 $-1 $13 #
shell $-1 $-1 $-1 $39 $-1 $15 #
shell $-1 $-1 $-1 $40 $-1 $17 #
shell $-1 $-1 $-1 $41 $-1 $19 #
shell $-1 $-1 $-1 $42 $-1 $21 #
shell $-1 $-1 $-1 $43 $-1 $23 #
shell $-1 $-1 $-1 $44 $-1 $25 #
face $-1 $45 $46 $27 $-1 $47 reversed single #
face $-1 $48 $49 $28 $-1 $50 forward single #
face $-1 $51 $52 $29 $-1 $53 forward single #
face $-1 $54 $55 $30 $-1 $56 reversed single #
face $-1 $57 $58 $31 $-1 $59 forward single #
face $-1 $60 $61 $32 $-1 $62 forward single #
face $-1 $63 $64 $33 $-1 $65 reversed single #
face $-1 $66 $67 $34 $-1 $68 forward single #
face $-1 $69 $70 $35 $-1 $71 forward single #
face $-1 $72 $73 $27 $-1 $74 forward single #
loop $-1 $-1 $75 $36 #
plane-surface $-1 58.820154423657954 0 0 -1 0 0 0 0 1 forward_v I I I I #
face $-1 $76 $77 $28 $-1 $78 forward single #
loop $-1 $-1 $79 $37 #
plane-surface $-1 -58.820154423657954 0 0 1 0 0 0 0 -1 forward_v I I I I #
face $-1 $80 $81 $29 $-1 $82 reversed single #
loop $-1 $-1 $83 $38 #
plane-surface $-1 58.820154423657954 0 0 -1 0 0 0 0 1 forward_v I I I I #
face $-1 $84 $85 $30 $-1 $86 reversed single #
loop $-1 $-1 $87 $39 #
plane-surface $-1 -49.602633078692243 80.153067395905978 129.42826346768697 1 0 0 0 -0.7660444514056185 -0.64278759981090561 forward_v I I I I #
face $-1 $88 $89 $31 $-1 $90 forward single #
loop $-1 $91 $92 $40 #
cone-surface $-1 -44.967209287704122 30.930054300327047 3.3574103998089226 0 -0.7660444514056185 -0.64278759981090561 1 0 0 1 I I 0 1 1 forward I I I I #
face $-1 $93 $94 $32 $-1 $95 forward single #
loop $-1 $96 $97 $41 #
cone-surface $-1 -38.014073601221959 30.930054300327047 3.3574103998089226 0 -0.7660444514056185 -0.64278759981090561 1 0 0 1 I I 0 1 1 forward I I I I #
face $-1 $98 $99 $33 $-1 $100 reversed single #
loop $-1 $-1 $101 $42 #
plane-surface $-1 -33.378649810233846 -125.0109265239213 75.96874729615547 -1 0 0 0 -0.7660444514056185 0.64278759981090561 forward_v I I I I #
face $-1 $102 $103 $34 $-1 $104 forward single #
loop $-1 $105 $106 $43 #
cone-surface $-1 -44.967209287704122 -30.930054300327043 3.3574103998089262 0 0.7660444514056185 -0.64278759981090561 1 0 0 1 I I 0 1 1 forward I I I I #
face $-1 $107 $108 $35 $-1 $109 forward single #
loop $-1 $110 $111 $44 #
cone-surface $-1 -38.014073601221959 -30.930054300327043 3.3574103998089262 0 0.7660444514056185 -0.64278759981090561 1 0 0 1 I I 0 1 1 forward I I I I #
face $-1 $112 $113 $27 $-1 $114 reversed single #
loop $-1 $-1 $115 $45 #
plane-surface $-1 0 0 7.7824224158138193 0 0 1 1 0 0 forward_v I I I I #
coedge $-1 $116 $117 $118 $119 reversed $46 $-1 #
face $-1 $120 $121 $28 $-1 $122 reversed single #
loop $-1 $-1 $123 $48 #
plane-surface $-1 0 0 7.7824224158138193 0 0 1 1 0 0 forward_v I I I I #
coedge $-1 $124 $125 $126 $127 forward $49 $-1 #
face $-1 $128 $129 $29 $-1 $130 reversed single #
loop $-1 $-1 $131 $51 #
plane-surface $-1 0 -34.89322066979166 0 0 1 0 0 0 1 forward_v I I I I #
coedge $-1 $132 $133 $134 $135 forward $52 $-1 #
face $-1 $136 $137 $30 $-1 $138 reversed single #
loop $-1 $-1 $139 $54 #
plane-surface $-1 -41.490641444463044 -9.9646384582236607 53.810531702707138 0 0.7660444514056185 0.64278759981090561 1 0 0 forward_v I I I I #
coedge $-1 $140 $141 $142 $143 reversed $55 $-1 #
face $-1 $-1 $144 $31 $-1 $145 forward single #
loop $-1 $146 $147 $57 #
cone-surface $-1 -44.967209287704122 29.701711011544788 2.3267080262176663 0 -0.7660444514056185 -0.64278759981090561 0.5 0 0 1 I I -0.70710678118654746 0.70710678118654746 0.5 forward I I I I #
loop $-1 $-1 $148 $40 #
coedge $-1 $92 $92 $149 $150 reversed $58 $-1 #
face $-1 $-1 $151 $32 $-1 $152 forward single #
loop $-1 $153 $154 $60 #
cone-surface $-1 -38.014073601221959 29.701711011544788 2.3267080262176663 0 -0.7660444514056185 -0.64278759981090561 0.5 0 0 1 I I -0.70710678118654746 0.70710678118654746 0.5 forward I I I I #
loop $-1 $-1 $155 $41 #
coedge $-1 $97 $97 $156 $157 reversed $61 $-1 #
face $-1 $158 $159 $33 $-1 $160 reversed single #
loop $-1 $-1 $161 $63 #
plane-surface $-1 -41.490641444463044 -34.89322066979166 0.35101553117563355 0 -0.7660444514056185 0.64278759981090561 1 0 0 forward_v I I I I #
coedge $-1 $162 $163 $164 $165 reversed $64 $-1 #
face $-1 $-1 $166 $34 $-1 $167 forward single #
loop $-1 $168 $169 $66 #
cone-surface $-1 -44.967209287704122 -29.701711011544784 2.3267080262176698 0 0.7660444514056185 -0.64278759981090561 0.5 0 0 1 I I -0.70710678118654746 0.70710678118654746 0.5 forward I I I I #
loop $-1 $-1 $170 $43 #
coedge $-1 $106 $106 $171 $172 reversed $67 $-1 #
face $-1 $-1 $173 $35 $-1 $174 forward single #
loop $-1 $175 $176 $69 #
cone-surface $-1 -38.014073601221959 -29.701711011544784 2.3267080262176698 0 0.7660444514056185 -0.64278759981090561 0.5 0 0 1 I I -0.70710678118654746 0.70710678118654746 0.5 forward I I I I #
loop $-1 $-1 $177 $44 #
coedge $-1 $111 $111 $178 $179 reversed $70 $-1 #
face $-1 $180 $181 $27 $-1 $182 reversed single #
loop $-1 $-1 $118 $72 #
plane-surface $-1 0 0 -7.7824224158138193 0 0 1 1 0 0 forward_v I I I I #
coedge $-1 $183 $184 $185 $186 forward $73 $-1 #
coedge $-1 $185 $75 $187 $188 reversed $46 $-1 #
coedge $-1 $75 $185 $189 $190 forward $46 $-1 #
coedge $-1 $191 $192 $75 $119 forward $113 $-1 #
edge $-1 $193 -34.89322066979166 $194 34.89322066979166 $75 $195 forward 7 unknown #
face $-1 $196 $197 $28 $-1 $198 reversed single #
loop $-1 $-1 $199 $76 #
plane-surface $-1 -68.037675768623672 -33.342032613517922 0 1 0 0 0 0 -1 forward_v I I I I #
coedge $-1 $200 $201 $124 $202 forward $77 $-1 #
coedge $-1 $203 $79 $123 $202 reversed $49 $-1 #
coedge $-1 $79 $203 $204 $205 reversed $49 $-1 #
coedge $-1 $206 $207 $79 $127 reversed $197 $-1 #
edge $-1 $208 -7.7824224158138193 $209 7.7824224158138193 $126 $210 forward 7 unknown #
face $-1 $211 $212 $29 $-1 $213 reversed single #
loop $-1 $-1 $214 $80 #
plane-surface $-1 0 0 -7.7824224158138193 0 0 1 1 0 0 forward_v I I I I #
coedge $-1 $215 $216 $217 $218 forward $81 $-1 #
coedge $-1 $217 $83 $214 $219 reversed $52 $-1 #
coedge $-1 $83 $217 $220 $221 reversed $52 $-1 #
coedge $-1 $222 $223 $83 $135 reversed $212 $-1 #
edge $-1 $224 -7.7824224158138193 $225 7.7824224158138193 $134 $226 forward 7 unknown #
face $-1 $227 $228 $30 $-1 $229 reversed single #
loop $-1 $-1 $230 $84 #
plane-surface $-1 -33.378649810233846 80.153067395905978 129.42826346768697 -1 0 0 0 0.7660444514056185 0.64278759981090561 forward_v I I I I #
coedge $-1 $231 $232 $233 $234 reversed $85 $-1 #
coedge $-1 $141 $87 $235 $236 reversed $55 $-1 #
coedge $-1 $87 $140 $231 $237 reversed $55 $-1 #
coedge $-1 $233 $238 $87 $143 forward $239 $-1 #
edge $-1 $240 5.1833130281613293 $241 11.419003640931642 $142 $242 forward 7 unknown #
loop $-1 $-1 $149 $88 #
plane-surface $-1 -41.490641444463044 -9.9646384582236607 53.810531702707138 0 0.7660444514056185 0.64278759981090561 1 0 0 forward_v I I I I #
loop $-1 $-1 $243 $57 #
coedge $-1 $147 $147 $148 $244 reversed $89 $-1 #
coedge $-1 $148 $148 $147 $244 forward $91 $-1 #
coedge $-1 $149 $149 $92 $150 forward $144 $-1 #
edge $-1 $245 -1.6503355406817785e-015 $245 6.2831853071795987 $149 $246 forward 7 unknown #
loop $-1 $-1 $156 $93 #
plane-surface $-1 -41.490641444463044 -9.9646384582236607 53.810531702707138 0 0.7660444514056185 0.64278759981090561 1 0 0 forward_v I I I I #
loop $-1 $-1 $247 $60 #
coedge $-1 $154 $154 $155 $248 reversed $94 $-1 #
coedge $-1 $155 $155 $154 $248 forward $96 $-1 #
coedge $-1 $156 $156 $97 $157 forward $151 $-1 #
edge $-1 $249 -1.6503355406817785e-015 $249 6.2831853071795987 $156 $250 forward 7 unknown #
face $-1 $251 $252 $33 $-1 $253 forward single #
loop $-1 $-1 $254 $98 #
plane-surface $-1 -49.602633078692243 -125.0109265239213 75.96874729615547 1 0 0 0 0.7660444514056185 -0.64278759981090561 forward_v I I I I #
coedge $-1 $255 $256 $257 $258 reversed $99 $-1 #
coedge $-1 $163 $101 $259 $260 reversed $64 $-1 #
coedge $-1 $101 $162 $255 $261 reversed $64 $-1 #
coedge $-1 $257 $262 $101 $165 forward $252 $-1 #
edge $-1 $263 27.61224259216899 $264 33.847933204939324 $164 $265 forward 7 unknown #
loop $-1 $-1 $171 $102 #
plane-surface $-1 -41.490641444463044 -34.89322066979166 0.35101553117563355 0 -0.7660444514056185 0.64278759981090561 1 0 0 forward_v I I I I #
loop $-1 $-1 $266 $66 #
coedge $-1 $169 $169 $170 $267 reversed $103 $-1 #
coedge $-1 $170 $170 $169 $267 forward $105 $-1 #
coedge $-1 $171 $171 $106 $172 forward $166 $-1 #
edge $-1 $268 -2.4248784760307189e-016 $268 6.2831853071796004 $171 $269 forward 7 unknown #
loop $-1 $-1 $178 $107 #
plane-surface $-1 -41.490641444463044 -34.89322066979166 0.35101553117563355 0 -0.7660444514056185 0.64278759981090561 1 0 0 forward_v I I I I #
loop $-1 $-1 $270 $69 #
coedge $-1 $176 $176 $177 $271 reversed $108 $-1 #
coedge $-1 $177 $177 $176 $271 forward $110 $-1 #
coedge $-1 $178 $178 $111 $179 forward $173 $-1 #
edge $-1 $272 -2.4248784760307189e-016 $272 6.2831853071796004 $178 $273 forward 7 unknown #
face $-1 $274 $275 $27 $-1 $276 reversed single #
loop $-1 $-1 $277 $112 #
plane-surface $-1 0 -34.89322066979166 0 0 1 0 0 0 1 forward_v I I I I #
coedge $-1 $278 $115 $279 $280 forward $73 $-1 #
coedge $-1 $115 $278 $281 $282 forward $73 $-1 #
coedge $-1 $117 $116 $115 $186 reversed $46 $-1 #
edge $-1 $283 -34.89322066979166 $284 34.89322066979166 $185 $285 forward 7 unknown #
coedge $-1 $286 $279 $116 $188 forward $287 $-1 #
edge $-1 $284 -7.7824224158138193 $193 7.7824224158138193 $116 $288 forward 7 unknown #
coedge $-1 $281 $289 $117 $190 reversed $181 $-1 #
edge $-1 $283 -7.7824224158138193 $194 7.7824224158138193 $117 $290 forward 7 unknown #
coedge $-1 $291 $118 $289 $292 forward $113 $-1 #
coedge $-1 $118 $291 $286 $293 forward $113 $-1 #
vertex $-1 $119 $294 #
vertex $-1 $190 $295 #
straight-curve $-1 58.820154423657954 0 -7.7824224158138193 0 -1 0 I I #
face $-1 $296 $297 $28 $-1 $298 reversed single #
loop $-1 $-1 $126 $120 #
plane-surface $-1 -63.428915096140813 -31.790844557244181 0 0 -1 0 0 0 -1 forward_v I I I I #
coedge $-1 $299 $300 $301 $302 forward $121 $-1 #
coedge $-1 $303 $123 $207 $304 forward $77 $-1 #
coedge $-1 $123 $303 $305 $306 forward $77 $-1 #
edge $-1 $307 -34.89322066979166 $209 -31.790844557244181 $123 $308 forward 7 unknown #
coedge $-1 $125 $124 $309 $310 reversed $49 $-1 #
coedge $-1 $311 $312 $125 $205 forward $297 $-1 #
edge $-1 $208 31.790844557244181 $313 34.89322066979166 $204 $314 forward 7 unknown #
coedge $-1 $301 $126 $312 $315 reversed $197 $-1 #
coedge $-1 $126 $301 $200 $304 reversed $197 $-1 #
vertex $-1 $205 $316 #
vertex $-1 $304 $317 #
straight-curve $-1 -58.820154423657954 -31.790844557244181 0 0 0 1 I I #
face $-1 $318 $319 $29 $-1 $320 reversed single #
loop $-1 $-1 $321 $128 #
plane-surface $-1 63.428915096140813 -31.790844557244181 0 0 -1 0 0 0 -1 forward_v I I I I #
coedge $-1 $322 $323 $132 $219 forward $129 $-1 #
coedge $-1 $324 $131 $323 $325 reversed $81 $-1 #
coedge $-1 $131 $324 $326 $327 reversed $81 $-1 #
coedge $-1 $133 $132 $131 $218 reversed $52 $-1 #
edge $-1 $328 -7.7824224158138193 $329 7.7824224158138193 $131 $330 forward 7 unknown #
edge $-1 $329 -34.89322066979166 $225 -31.790844557244181 $214 $331 forward 7 unknown #
coedge $-1 $326 $332 $133 $221 forward $333 $-1 #
edge $-1 $224 31.790844557244181 $328 34.89322066979166 $220 $334 forward 7 unknown #
coedge $-1 $321 $134 $332 $335 reversed $212 $-1 #
coedge $-1 $134 $321 $322 $336 reversed $212 $-1 #
vertex $-1 $221 $337 #
vertex $-1 $336 $338 #
straight-curve $-1 58.820154423657954 -31.790844557244181 0 0 0 -1 I I #
face $-1 $-1 $239 $30 $-1 $339 forward single #
loop $-1 $-1 $340 $136 #
plane-surface $-1 0 34.89322066979166 0 0 -1 0 0 0 -1 forward_v I I I I #
coedge $-1 $341 $342 $343 $344 reversed $137 $-1 #
coedge $-1 $345 $139 $141 $237 forward $85 $-1 #
coedge $-1 $139 $345 $341 $346 forward $85 $-1 #
coedge $-1 $343 $142 $139 $234 forward $239 $-1 #
edge $-1 $241 -28.857312356460721 $347 -12.633329088002323 $233 $348 forward 7 unknown #
coedge $-1 $349 $350 $140 $236 forward $228 $-1 #
edge $-1 $351 -64.363116202667825 $240 -56.931709318029668 $235 $352 forward 7 unknown #
edge $-1 $241 60.085428727322729 $351 69.786441339583334 $141 $353 forward 7 unknown #
coedge $-1 $142 $343 $349 $354 forward $239 $-1 #
loop $-1 $-1 $343 $227 #
vertex $-1 $236 $355 #
vertex $-1 $143 $356 #
straight-curve $-1 -49.602633078692243 40.076533697952989 7.7824224158138193 0 -1 0 I I #
coedge $-1 $243 $243 $-1 $357 reversed $146 $-1 #
edge $-1 $358 0 $358 6.2831853071796004 $147 $359 forward 7 unknown #
vertex $-1 $150 $360 #
ellipse-curve $-1 -44.967209287704122 31.775375363406511 4.0667189734947353 0 0.7660444514056185 0.64278759981090561 1 0 0 1 I I #
coedge $-1 $247 $247 $-1 $361 reversed $153 $-1 #
edge $-1 $362 0 $362 6.2831853071796004 $154 $363 forward 7 unknown #
vertex $-1 $157 $364 #
ellipse-curve $-1 -38.014073601221959 31.775375363406511 4.0667189734947353 0 0.7660444514056185 0.64278759981090561 1 0 0 1 I I #
face $-1 $-1 $365 $33 $-1 $366 reversed single #
loop $-1 $-1 $164 $158 #
plane-surface $-1 0 0 7.7824224158138193 0 0 1 1 0 0 forward_v I I I I #
coedge $-1 $367 $368 $369 $370 reversed $159 $-1 #
coedge $-1 $371 $161 $163 $261 forward $99 $-1 #
coedge $-1 $161 $371 $367 $372 forward $99 $-1 #
coedge $-1 $369 $164 $161 $258 forward $252 $-1 #
edge $-1 $264 12.633329088002323 $373 28.857312356460721 $257 $374 forward 7 unknown #
coedge $-1 $375 $376 $162 $260 forward $365 $-1 #
edge $-1 $377 -37.633358116902102 $263 -30.201951232263916 $259 $378 forward 7 unknown #
edge $-1 $264 -9.701012612260639 $377 0 $163 $379 forward 7 unknown #
coedge $-1 $164 $369 $375 $380 forward $252 $-1 #
vertex $-1 $165 $381 #
vertex $-1 $165 $382 #
straight-curve $-1 -33.378649810233846 -62.505463261960649 7.7824224158138193 0 1 0 I I #
coedge $-1 $266 $266 $-1 $383 reversed $168 $-1 #
edge $-1 $384 0 $384 6.2831853071796004 $169 $385 forward 7 unknown #
vertex $-1 $172 $386 #
ellipse-curve $-1 -44.967209287704122 -31.775375363406489 4.0667189734947264 0 -0.7660444514056185 0.64278759981090561 1 0 0 1 I I #
coedge $-1 $270 $270 $-1 $387 reversed $175 $-1 #
edge $-1 $388 0 $388 6.2831853071796004 $176 $389 forward 7 unknown #
vertex $-1 $179 $390 #
ellipse-curve $-1 -38.014073601221959 -31.775375363406489 4.0667189734947264 0 -0.7660444514056185 0.64278759981090561 1 0 0 1 I I #
face $-1 $-1 $287 $27 $-1 $391 reversed single #
loop $-1 $-1 $392 $180 #
plane-surface $-1 -58.820154423657954 0 0 1 0 0 0 0 -1 forward_v I I I I #
coedge $-1 $289 $281 $393 $394 forward $181 $-1 #
coedge $-1 $184 $183 $392 $395 forward $73 $-1 #
coedge $-1 $187 $396 $183 $280 reversed $287 $-1 #
edge $-1 $284 -58.820154423657954 $397 58.820154423657954 $279 $398 forward 7 unknown #
coedge $-1 $277 $189 $184 $282 reversed $181 $-1 #
edge $-1 $399 -58.820154423657954 $283 58.820154423657954 $281 $400 forward 7 unknown #
vertex $-1 $186 $401 #
vertex $-1 $186 $402 #
straight-curve $-1 58.820154423657954 0 7.7824224158138193 0 1 0 I I #
coedge $-1 $396 $187 $192 $293 reversed $287 $-1 #
loop $-1 $-1 $187 $274 #
straight-curve $-1 58.820154423657954 34.89322066979166 0 0 0 -1 I I #
coedge $-1 $189 $277 $191 $292 reversed $181 $-1 #
straight-curve $-1 58.820154423657954 -34.89322066979166 0 0 0 -1 I I #
coedge $-1 $192 $191 $403 $404 forward $113 $-1 #
edge $-1 $194 -58.820154423657954 $405 58.820154423657954 $289 $406 forward 7 unknown #
edge $-1 $407 -58.820154423657954 $193 58.820154423657954 $286 $408 forward 7 unknown #
point $-1 58.820154423657954 34.89322066979166 -7.7824224158138193 #
point $-1 58.820154423657954 -34.89322066979166 -7.7824224158138193 #
face $-1 $-1 $409 $28 $-1 $410 reversed single #
loop $-1 $-1 $204 $196 #
plane-surface $-1 0 0 -7.7824224158138193 0 0 1 1 0 0 forward_v I I I I #
coedge $-1 $411 $199 $412 $413 reversed $121 $-1 #
coedge $-1 $199 $411 $303 $414 reversed $121 $-1 #
coedge $-1 $207 $206 $199 $302 reversed $197 $-1 #
edge $-1 $415 -7.7824224158138193 $416 7.7824224158138193 $301 $417 forward 7 unknown #
coedge $-1 $201 $200 $300 $414 forward $77 $-1 #
edge $-1 $209 -4.6087606724828589 $415 4.6087606724828589 $207 $418 forward 7 unknown #
coedge $-1 $419 $309 $201 $306 reversed $409 $-1 #
edge $-1 $420 -68.037675768623672 $307 -58.820154423657954 $305 $421 forward 7 unknown #
vertex $-1 $310 $422 #
straight-curve $-1 -58.820154423657954 0 7.7824224158138193 0 1 0 I I #
coedge $-1 $305 $423 $203 $310 forward $409 $-1 #
edge $-1 $313 -7.7824224158138193 $307 7.7824224158138193 $309 $424 forward 7 unknown #
coedge $-1 $412 $204 $423 $425 forward $297 $-1 #
coedge $-1 $204 $412 $206 $315 forward $297 $-1 #
vertex $-1 $425 $426 #
straight-curve $-1 -58.820154423657954 0 -7.7824224158138193 0 -1 0 I I #
edge $-1 $416 -4.6087606724828589 $208 4.6087606724828589 $206 $427 forward 7 unknown #
point $-1 -58.820154423657954 -31.790844557244181 -7.7824224158138193 #
point $-1 -58.820154423657954 -31.790844557244181 7.7824224158138193 #
face $-1 $-1 $333 $29 $-1 $428 forward single #
loop $-1 $-1 $429 $211 #
plane-surface $-1 68.037675768623672 -33.342032613517922 0 -1 0 0 0 0 1 forward_v I I I I #
coedge $-1 $223 $222 $430 $431 forward $212 $-1 #
coedge $-1 $432 $214 $223 $336 forward $129 $-1 #
coedge $-1 $214 $432 $215 $325 forward $129 $-1 #
coedge $-1 $216 $215 $429 $433 reversed $81 $-1 #
edge $-1 $434 -4.6087606724828589 $329 4.6087606724828589 $215 $435 forward 7 unknown #
coedge $-1 $436 $220 $216 $327 forward $333 $-1 #
edge $-1 $328 -4.6087606724828589 $437 4.6087606724828589 $216 $438 forward 7 unknown #
vertex $-1 $327 $439 #
vertex $-1 $219 $440 #
straight-curve $-1 58.820154423657954 -34.89322066979166 0 0 0 -1 I I #
straight-curve $-1 58.820154423657954 0 -7.7824224158138193 0 1 0 I I #
coedge $-1 $220 $436 $222 $335 forward $333 $-1 #
loop $-1 $-1 $220 $318 #
straight-curve $-1 58.820154423657954 0 7.7824224158138193 0 -1 0 I I #
edge $-1 $441 -4.6087606724828589 $224 4.6087606724828589 $222 $442 forward 7 unknown #
edge $-1 $225 -4.6087606724828589 $443 4.6087606724828589 $223 $444 forward 7 unknown #
point $-1 58.820154423657954 -31.790844557244181 7.7824224158138193 #
point $-1 58.820154423657954 -31.790844557244181 -7.7824224158138193 #
plane-surface $-1 0 0 7.7824224158138193 0 0 1 1 0 0 forward_v I I I I #
coedge $-1 $350 $349 $342 $445 forward $228 $-1 #
coedge $-1 $342 $230 $232 $346 reversed $137 $-1 #
coedge $-1 $230 $341 $340 $445 reversed $137 $-1 #
coedge $-1 $238 $233 $230 $344 forward $239 $-1 #
edge $-1 $347 -11.419003640931642 $446 -5.1833130281613293 $343 $447 forward 7 unknown #
coedge $-1 $232 $231 $350 $448 reversed $85 $-1 #
edge $-1 $449 -69.786441339583334 $347 -60.085428727322729 $341 $450 forward 7 unknown #
vertex $-1 $234 $451 #
straight-curve $-1 -20.745320722231522 28.657530057021347 7.7824224158138158 1 0 0 I I #
coedge $-1 $340 $235 $238 $354 reversed $228 $-1 #
coedge $-1 $235 $340 $345 $448 forward $228 $-1 #
vertex $-1 $236 $452 #
straight-curve $-1 -49.602633078692243 34.89322066979166 64.714131733843487 0 0 1 I I #
straight-curve $-1 -49.602633078692243 -9.9646384582236607 53.810531702707138 0 0.64278759981090561 -0.7660444514056185 I I #
edge $-1 $446 33.378649810233846 $240 49.602633078692243 $349 $453 forward 7 unknown #
point $-1 -49.602633078692243 34.89322066979166 7.7824224158138193 #
point $-1 -49.602633078692243 28.657530057021347 7.7824224158138193 #
edge $-1 $454 1 $454 0 $243 $-1 forward 7 unknown #
vertex $-1 $244 $455 #
ellipse-curve $-1 -44.967209287704122 30.084733237247598 2.6481018261231188 0 0.7660444514056185 0.64278759981090561 1 0 0 1 I I #
point $-1 -43.967209287704122 31.775375363406496 4.0667189734947256 #
edge $-1 $456 1 $456 0 $247 $-1 forward 7 unknown #
vertex $-1 $248 $457 #
ellipse-curve $-1 -38.014073601221959 30.084733237247598 2.6481018261231188 0 0.7660444514056185 0.64278759981090561 1 0 0 1 I I #
point $-1 -37.014073601221959 31.775375363406496 4.0667189734947256 #
loop $-1 $-1 $259 $251 #
plane-surface $-1 0 -34.89322066979166 0 0 1 0 0 0 1 forward_v I I I I #
coedge $-1 $368 $254 $256 $372 reversed $159 $-1 #
coedge $-1 $254 $367 $458 $459 reversed $159 $-1 #
coedge $-1 $262 $257 $254 $370 forward $252 $-1 #
edge $-1 $373 -33.847933204939324 $460 -27.61224259216899 $369 $461 forward 7 unknown #
coedge $-1 $256 $255 $376 $462 reversed $99 $-1 #
edge $-1 $463 0 $373 9.701012612260639 $367 $464 forward 7 unknown #
vertex $-1 $258 $465 #
straight-curve $-1 -20.745320722231522 -28.657530057021322 7.7824224158138193 -1 0 0 I I #
coedge $-1 $458 $259 $262 $380 reversed $365 $-1 #
coedge $-1 $259 $458 $371 $462 forward $365 $-1 #
vertex $-1 $260 $466 #
straight-curve $-1 -33.378649810233846 -34.89322066979166 37.984373648077735 0 0 1 I I #
straight-curve $-1 -33.378649810233846 -34.89322066979166 0.35101553117563355 0 -0.64278759981090561 -0.7660444514056185 I I #
edge $-1 $460 -113.03154817483306 $263 -96.807564906374665 $375 $467 forward 7 unknown #
point $-1 -33.378649810233853 -34.89322066979166 7.7824224158138193 #
point $-1 -33.378649810233846 -28.657530057021322 7.7824224158138193 #
edge $-1 $468 1 $468 0 $266 $-1 forward 7 unknown #
vertex $-1 $267 $469 #
ellipse-curve $-1 -44.967209287704122 -30.084733237247594 2.6481018261231224 0 -0.7660444514056185 0.64278759981090561 1 0 0 1 I I #
point $-1 -43.967209287704122 -31.775375363406493 4.0667189734947291 #
edge $-1 $470 1 $470 0 $270 $-1 forward 7 unknown #
vertex $-1 $271 $471 #
ellipse-curve $-1 -38.014073601221959 -30.084733237247594 2.6481018261231224 0 -0.7660444514056185 0.64278759981090561 1 0 0 1 I I #
point $-1 -37.014073601221959 -31.775375363406493 4.0667189734947291 #
plane-surface $-1 0 34.89322066979166 0 0 -1 0 0 0 -1 forward_v I I I I #
coedge $-1 $472 $393 $278 $395 reversed $275 $-1 #
coedge $-1 $392 $403 $277 $394 reversed $275 $-1 #
edge $-1 $399 -7.7824224158138193 $405 7.7824224158138193 $393 $473 forward 7 unknown #
edge $-1 $397 -34.89322066979166 $399 34.89322066979166 $392 $474 forward 7 unknown #
coedge $-1 $279 $286 $472 $475 reversed $287 $-1 #
vertex $-1 $280 $476 #
straight-curve $-1 0 34.89322066979166 7.7824224158138193 -1 0 0 I I #
vertex $-1 $395 $477 #
straight-curve $-1 0 -34.89322066979166 7.7824224158138193 1 0 0 I I #
point $-1 58.820154423657954 -34.89322066979166 7.7824224158138193 #
point $-1 58.820154423657954 34.89322066979166 7.7824224158138193 #
coedge $-1 $393 $472 $291 $404 reversed $275 $-1 #
edge $-1 $405 -34.89322066979166 $407 34.89322066979166 $403 $478 forward 7 unknown #
vertex $-1 $404 $479 #
straight-curve $-1 0 -34.89322066979166 -7.7824224158138193 -1 0 0 I I #
vertex $-1 $293 $480 #
straight-curve $-1 0 34.89322066979166 -7.7824224158138193 1 0 0 I I #
loop $-1 $-1 $309 $296 #
plane-surface $-1 0 -34.89322066979166 0 0 1 0 0 0 1 forward_v I I I I #
coedge $-1 $300 $299 $419 $481 reversed $121 $-1 #
coedge $-1 $312 $311 $299 $413 forward $297 $-1 #
edge $-1 $482 -1.5511880562737375 $416 1.551188056273741 $299 $483 forward 7 unknown #
edge $-1 $415 -1.551188056273741 $420 1.5511880562737375 $300 $484 forward 7 unknown #
vertex $-1 $304 $485 #
vertex $-1 $315 $486 #
straight-curve $-1 -68.037675768623672 -31.790844557244181 0 0 0 -1 I I #
straight-curve $-1 -63.428915096140813 -31.790844557244181 7.7824224158138193 -1 0 0 I I #
coedge $-1 $423 $305 $411 $481 forward $409 $-1 #
vertex $-1 $414 $487 #
straight-curve $-1 0 -34.89322066979166 7.7824224158138193 1 0 0 I I #
point $-1 -58.820154423657954 -34.89322066979166 7.7824224158138193 #
coedge $-1 $309 $419 $311 $425 reversed $409 $-1 #
straight-curve $-1 -58.820154423657954 -34.89322066979166 0 0 0 1 I I #
edge $-1 $313 -4.6087606724828589 $482 4.6087606724828589 $423 $488 forward 7 unknown #
point $-1 -58.820154423657954 -34.89322066979166 -7.7824224158138193 #
straight-curve $-1 -63.428915096140813 -31.790844557244181 -7.7824224158138193 1 0 0 I I #
plane-surface $-1 0 0 7.7824224158138193 0 0 1 1 0 0 forward_v I I I I #
coedge $-1 $489 $490 $324 $433 forward $319 $-1 #
coedge $-1 $490 $489 $321 $431 reversed $319 $-1 #
edge $-1 $441 -7.7824224158138193 $443 7.7824224158138193 $430 $491 forward 7 unknown #
coedge $-1 $323 $322 $489 $492 forward $129 $-1 #
edge $-1 $437 -7.7824224158138193 $434 7.7824224158138193 $429 $493 forward 7 unknown #
vertex $-1 $433 $494 #
straight-curve $-1 63.428915096140813 -34.89322066979166 -7.7824224158138193 -1 0 0 I I #
coedge $-1 $332 $326 $490 $495 forward $333 $-1 #
vertex $-1 $495 $496 #
straight-curve $-1 63.428915096140813 -34.89322066979166 7.7824224158138193 1 0 0 I I #
point $-1 58.820154423657954 -34.89322066979166 7.7824224158138193 #
point $-1 58.820154423657954 -34.89322066979166 -7.7824224158138193 #
vertex $-1 $495 $497 #
straight-curve $-1 63.428915096140813 -31.790844557244181 7.7824224158138193 -1 0 0 I I #
vertex $-1 $492 $498 #
straight-curve $-1 63.428915096140813 -31.790844557244181 -7.7824224158138193 1 0 0 I I #
edge $-1 $446 56.931709318029668 $449 64.363116202667825 $340 $499 forward 7 unknown #
vertex $-1 $354 $500 #
straight-curve $-1 -33.378649810233846 40.076533697952989 7.7824224158138193 0 1 0 I I #
edge $-1 $449 12.633329088002323 $351 28.857312356460721 $350 $501 forward 7 unknown #
vertex $-1 $448 $502 #
straight-curve $-1 -33.378649810233846 -9.9646384582236607 53.810531702707138 0 -0.64278759981090561 0.7660444514056185 I I #
point $-1 -33.378649810233846 28.657530057021347 7.7824224158138193 #
point $-1 -49.602633078692243 34.89322066979166 0.35101553117566198 #
straight-curve $-1 0 34.89322066979166 7.7824224158138193 -1 0 0 I I #
vertex $-1 $357 $503 #
point $-1 -43.967209287704122 30.084733237247598 2.6481018261231188 #
vertex $-1 $361 $504 #
point $-1 -37.014073601221959 30.084733237247598 2.6481018261231188 #
coedge $-1 $376 $375 $368 $459 forward $365 $-1 #
edge $-1 $460 30.201951232263916 $463 37.633358116902102 $458 $505 forward 7 unknown #
vertex $-1 $380 $506 #
straight-curve $-1 -49.602633078692243 -62.505463261960649 7.7824224158138193 0 -1 0 I I #
edge $-1 $463 -28.857312356460721 $377 -12.633329088002323 $376 $507 forward 7 unknown #
vertex $-1 $462 $508 #
straight-curve $-1 -49.602633078692243 -34.89322066979166 0.35101553117563355 0 0.64278759981090561 0.7660444514056185 I I #
point $-1 -49.602633078692243 -28.657530057021322 7.7824224158138193 #
point $-1 -33.378649810233846 -34.89322066979166 0.35101553117563355 #
straight-curve $-1 63.428915096140813 -34.89322066979166 7.7824224158138193 1 0 0 I I #
vertex $-1 $383 $509 #
point $-1 -43.967209287704122 -30.084733237247594 2.6481018261231224 #
vertex $-1 $387 $510 #
point $-1 -37.014073601221959 -30.084733237247594 2.6481018261231224 #
coedge $-1 $403 $392 $396 $475 forward $275 $-1 #
straight-curve $-1 -58.820154423657954 -34.89322066979166 0 0 0 -1 I I #
straight-curve $-1 -58.820154423657954 0 7.7824224158138193 0 -1 0 I I #
edge $-1 $397 -7.7824224158138193 $407 7.7824224158138193 $396 $511 forward 7 unknown #
point $-1 -58.820154423657954 34.89322066979166 7.7824224158138193 #
point $-1 -58.820154423657954 -34.89322066979166 7.7824224158138193 #
straight-curve $-1 -58.820154423657954 0 -7.7824224158138193 0 1 0 I I #
point $-1 -58.820154423657954 -34.89322066979166 -7.7824224158138193 #
point $-1 -58.820154423657954 34.89322066979166 -7.7824224158138193 #
edge $-1 $420 -7.7824224158138193 $482 7.7824224158138193 $411 $512 forward 7 unknown #
vertex $-1 $413 $513 #
straight-curve $-1 -68.037675768623672 -33.342032613517922 -7.7824224158138193 0 1 0 I I #
straight-curve $-1 -68.037675768623672 -33.342032613517922 7.7824224158138193 0 -1 0 I I #
point $-1 -68.037675768623672 -31.790844557244181 7.7824224158138193 #
point $-1 -68.037675768623672 -31.790844557244181 -7.7824224158138193 #
point $-1 -68.037675768623672 -34.89322066979166 7.7824224158138193 #
straight-curve $-1 -63.428915096140813 -34.89322066979166 -7.7824224158138193 -1 0 0 I I #
coedge $-1 $430 $429 $432 $492 reversed $319 $-1 #
coedge $-1 $429 $430 $436 $495 reversed $319 $-1 #
straight-curve $-1 68.037675768623672 -31.790844557244181 0 0 0 -1 I I #
edge $-1 $443 -1.551188056273741 $434 1.5511880562737375 $489 $514 forward 7 unknown #
straight-curve $-1 68.037675768623672 -34.89322066979166 0 0 0 -1 I I #
point $-1 68.037675768623672 -34.89322066979166 -7.7824224158138193 #
edge $-1 $437 -1.5511880562737375 $441 1.551188056273741 $490 $515 forward 7 unknown #
point $-1 68.037675768623672 -34.89322066979166 7.7824224158138193 #
point $-1 68.037675768623672 -31.790844557244181 7.7824224158138193 #
point $-1 68.037675768623672 -31.790844557244181 -7.7824224158138193 #
straight-curve $-1 -33.378649810233846 34.89322066979166 64.714131733843487 0 0 -1 I I #
point $-1 -33.378649810233846 34.89322066979166 7.7824224158138193 #
straight-curve $-1 -20.745320722231522 34.89322066979166 0.35101553117566198 -1 0 0 I I #
point $-1 -33.378649810233846 34.89322066979166 0.35101553117566198 #
point $-1 -44.967209287704122 29.318688785841978 2.0053142263122137 #
point $-1 -38.014073601221959 29.318688785841978 2.0053142263122137 #
straight-curve $-1 -49.602633078692243 -34.89322066979166 37.984373648077735 0 0 -1 I I #
point $-1 -49.60263307869225 -34.89322066979166 7.7824224158138193 #
straight-curve $-1 -20.745320722231522 -34.89322066979166 0.35101553117563478 1 0 0 I I #
point $-1 -49.602633078692243 -34.89322066979166 0.35101553117563355 #
point $-1 -44.967209287704122 -29.318688785841974 2.0053142263122172 #
point $-1 -38.014073601221959 -29.318688785841974 2.0053142263122172 #
straight-curve $-1 -58.820154423657954 34.89322066979166 0 0 0 -1 I I #
straight-curve $-1 -68.037675768623672 -34.89322066979166 0 0 0 -1 I I #
point $-1 -68.037675768623672 -34.89322066979166 -7.7824224158138193 #
straight-curve $-1 68.037675768623672 -33.342032613517922 -7.7824224158138193 0 -1 0 I I #
straight-curve $-1 68.037675768623672 -33.342032613517922 7.7824224158138193 0 1 0 I I #
End-of-ACIS-data 