500 0 10 0           
7 Unknown 11 ACIS 5.0 NT 24 Fri Mar 26 17:32:58 1999 
-1 9.9999999999999995e-007 1e-010 
body $-1 $10 $-1 $11 #
body $-1 $12 $-1 $13 #
body $-1 $14 $-1 $15 #
body $-1 $16 $-1 $17 #
body $-1 $18 $-1 $19 #
body $-1 $20 $-1 $21 #
body $-1 $22 $-1 $23 #
body $-1 $24 $-1 $25 #
body $-1 $26 $-1 $27 #
body $-1 $28 $-1 $29 #
lump $-1 $-1 $30 $0 #
transform $-1 1 0 0 0 1 0 0 0 1 64.258552812280641 32.951555259687773 15.019521421721267 1 rotate no_reflect no_shear #
lump $-1 $-1 $31 $1 #
transform $-1 1 0 0 0 1 0 0 0 1 64.258552812280641 32.951555259687773 15.019521421721267 1 rotate no_reflect no_shear #
lump $-1 $-1 $32 $2 #
transform $-1 1 0 0 0 1 0 0 0 1 64.258552812280641 32.951555259687773 15.019521421721267 1 rotate no_reflect no_shear #
lump $-1 $-1 $33 $3 #
transform $-1 1 0 0 0 1 0 0 0 1 64.258552812280641 32.951555259687773 15.019521421721267 1 rotate no_reflect no_shear #
lump $-1 $-1 $34 $4 #
transform $-1 1 0 0 0 1 0 0 0 1 64.258552812280641 32.951555259687773 15.019521421721267 1 rotate no_reflect no_shear #
lump $-1 $-1 $35 $5 #
transform $-1 1 0 0 0 1 0 0 0 1 64.258552812280641 32.951555259687773 15.019521421721267 1 rotate no_reflect no_shear #
lump $-1 $-1 $36 $6 #
transform $-1 1 0 0 0 1 0 0 0 1 64.258552812280641 32.951555259687773 15.019521421721267 1 rotate no_reflect no_shear #
lump $-1 $-1 $37 $7 #
transform $-1 1 0 0 0 1 0 0 0 1 64.258552812280641 32.951555259687773 15.019521421721267 1 rotate no_reflect no_shear #
lump $-1 $-1 $38 $8 #
transform $-1 1 0 0 0 1 0 0 0 1 64.258552812280641 32.951555259687773 15.019521421721267 1 rotate no_reflect no_shear #
lump $-1 $-1 $39 $9 #
transform $-1 1 0 0 0 1 0 0 0 1 64.258552812280641 32.951555259687773 15.019521421721267 1 rotate no_reflect no_shear #
shell $-1 $-1 $-1 $40 $-1 $10 #
shell $-1 $-1 $-1 $41 $-1 $12 #
shell $-1 $-1 $-1 $42 $-1 $14 #
shell $-1 $-1 $-1 $43 $-1 $16 #
shell $-1 $-1 $-1 $44 $-1 $18 #
shell $-1 $-1 $-1 $45 $-1 $20 #
shell $-1 $-1 $-1 $46 $-1 $22 #
shell $-1 $-1 $-1 $47 $-1 $24 #
shell $-1 $-1 $-1 $48 $-1 $26 #
shell $-1 $-1 $-1 $49 $-1 $28 #
face $-1 $50 $51 $30 $-1 $52 forward single #
face $-1 $53 $54 $31 $-1 $55 forward single #
face $-1 $56 $57 $32 $-1 $58 reversed single #
face $-1 $59 $60 $33 $-1 $61 forward single #
face $-1 $62 $63 $34 $-1 $64 forward single #
face $-1 $65 $66 $35 $-1 $67 forward single #
face $-1 $68 $69 $36 $-1 $70 reversed single #
face $-1 $71 $72 $37 $-1 $73 forward single #
face $-1 $74 $75 $38 $-1 $76 forward single #
face $-1 $77 $78 $39 $-1 $79 forward single #
face $-1 $80 $81 $30 $-1 $82 reversed single #
loop $-1 $-1 $83 $40 #
plane-surface $-1 0 0 15.019521421721267 0 0 1 1 0 0 forward_v I I I I #
face $-1 $84 $85 $31 $-1 $86 reversed single #
loop $-1 $-1 $87 $41 #
plane-surface $-1 -64.258552812280641 0 0 1 0 0 0 0 -1 forward_v I I I I #
face $-1 $88 $89 $32 $-1 $90 reversed single #
loop $-1 $-1 $91 $42 #
plane-surface $-1 70.601560657408328 -14.528834379402149 191.14783552724563 0 -1 0 -0.73135370988377701 0 -0.68199835119979291 forward_v I I I I #
face $-1 $92 $93 $33 $-1 $94 forward single #
loop $-1 $95 $96 $43 #
cone-surface $-1 61.284570628096404 -20.153456796897338 11.886838639299533 -0.73135370988377701 0 -0.68199835119979291 0.34099917559989645 0 -0.36567685494188851 1 I I 0 1 0.5 forward I I I I #
face $-1 $97 $98 $34 $-1 $99 forward single #
loop $-1 $100 $101 $44 #
cone-surface $-1 61.284570628096404 -18.044223390336644 11.886838639299533 -0.73135370988377701 0 -0.68199835119979291 0.34099917559989645 0 -0.36567685494188851 1 I I 0 1 0.5 forward I I I I #
face $-1 $102 $103 $35 $-1 $104 forward single #
loop $-1 $105 $106 $45 #
cone-surface $-1 61.284570628096404 -15.934989983775946 11.886838639299533 -0.73135370988377701 0 -0.68199835119979291 0.34099917559989645 0 -0.36567685494188851 1 I I 0 1 0.5 forward I I I I #
face $-1 $107 $108 $36 $-1 $109 reversed single #
loop $-1 $-1 $110 $46 #
plane-surface $-1 70.601560657408328 18.422720880285627 191.14783552724563 0 -1 0 -0.73135370988377701 0 -0.68199835119979291 forward_v I I I I #
face $-1 $111 $112 $37 $-1 $113 forward single #
loop $-1 $114 $115 $47 #
cone-surface $-1 61.284570628096404 12.798098462790435 11.886838639299533 -0.73135370988377701 0 -0.68199835119979291 0.34099917559989645 0 -0.36567685494188851 1 I I 0 1 0.5 forward I I I I #
face $-1 $116 $117 $38 $-1 $118 forward single #
loop $-1 $119 $120 $48 #
cone-surface $-1 61.284570628096404 14.907331869351133 11.886838639299533 -0.73135370988377701 0 -0.68199835119979291 0.34099917559989645 0 -0.36567685494188851 1 I I 0 1 0.5 forward I I I I #
face $-1 $121 $122 $39 $-1 $123 forward single #
loop $-1 $124 $125 $49 #
cone-surface $-1 61.284570628096404 17.016565275911823 11.886838639299533 -0.73135370988377701 0 -0.68199835119979291 0.34099917559989645 0 -0.36567685494188851 1 I I 0 1 0.5 forward I I I I #
face $-1 $126 $127 $30 $-1 $128 reversed single #
loop $-1 $-1 $129 $50 #
plane-surface $-1 0 0 -15.019521421721267 0 0 1 1 0 0 forward_v I I I I #
coedge $-1 $130 $131 $132 $133 forward $51 $-1 #
face $-1 $134 $135 $31 $-1 $136 reversed single #
loop $-1 $-1 $137 $53 #
plane-surface $-1 0 32.951555259687773 0 0 -1 0 0 0 -1 forward_v I I I I #
coedge $-1 $138 $139 $140 $141 forward $54 $-1 #
face $-1 $142 $143 $32 $-1 $144 reversed single #
loop $-1 $-1 $145 $56 #
plane-surface $-1 -23.389901324639794 -18.044223390336644 103.49938139032521 0.73135370988377701 0 0.68199835119979291 0.68199835119979291 0 -0.73135370988377701 forward_v I I I I #
coedge $-1 $146 $147 $148 $149 reversed $57 $-1 #
face $-1 $-1 $150 $33 $-1 $151 forward single #
loop $-1 $152 $153 $59 #
cone-surface $-1 60.697575967167396 -20.153456796897338 11.339457275799942 -0.73135370988377701 0 -0.68199835119979291 0.17049958779994823 0 -0.18283842747094425 1 I I -0.70710678118654746 0.70710678118654746 0.25 forward I I I I #
loop $-1 $-1 $154 $43 #
coedge $-1 $96 $96 $155 $156 reversed $60 $-1 #
face $-1 $-1 $157 $34 $-1 $158 forward single #
loop $-1 $159 $160 $62 #
cone-surface $-1 60.697575967167396 -18.044223390336644 11.339457275799942 -0.73135370988377701 0 -0.68199835119979291 0.17049958779994823 0 -0.18283842747094425 1 I I -0.70710678118654746 0.70710678118654746 0.25 forward I I I I #
loop $-1 $-1 $161 $44 #
coedge $-1 $101 $101 $162 $163 reversed $63 $-1 #
face $-1 $-1 $164 $35 $-1 $165 forward single #
loop $-1 $166 $167 $65 #
cone-surface $-1 60.697575967167396 -15.934989983775946 11.339457275799942 -0.73135370988377701 0 -0.68199835119979291 0.17049958779994823 0 -0.18283842747094425 1 I I -0.70710678118654746 0.70710678118654746 0.25 forward I I I I #
loop $-1 $-1 $168 $45 #
coedge $-1 $106 $106 $169 $170 reversed $66 $-1 #
face $-1 $171 $172 $36 $-1 $173 reversed single #
loop $-1 $-1 $174 $68 #
plane-surface $-1 -23.389901324639794 14.907331869351133 103.49938139032521 0.73135370988377701 0 0.68199835119979291 0.68199835119979291 0 -0.73135370988377701 forward_v I I I I #
coedge $-1 $175 $176 $177 $178 reversed $69 $-1 #
face $-1 $-1 $179 $37 $-1 $180 forward single #
loop $-1 $181 $182 $71 #
cone-surface $-1 60.697575967167396 12.798098462790435 11.339457275799942 -0.73135370988377701 0 -0.68199835119979291 0.17049958779994823 0 -0.18283842747094425 1 I I -0.70710678118654746 0.70710678118654746 0.25 forward I I I I #
loop $-1 $-1 $183 $47 #
coedge $-1 $115 $115 $184 $185 reversed $72 $-1 #
face $-1 $-1 $186 $38 $-1 $187 forward single #
loop $-1 $188 $189 $74 #
cone-surface $-1 60.697575967167396 14.907331869351133 11.339457275799942 -0.73135370988377701 0 -0.68199835119979291 0.17049958779994823 0 -0.18283842747094425 1 I I -0.70710678118654746 0.70710678118654746 0.25 forward I I I I #
loop $-1 $-1 $190 $48 #
coedge $-1 $120 $120 $191 $192 reversed $75 $-1 #
face $-1 $-1 $193 $39 $-1 $194 forward single #
loop $-1 $195 $196 $77 #
cone-surface $-1 60.697575967167396 17.016565275911823 11.339457275799942 -0.73135370988377701 0 -0.68199835119979291 0.17049958779994823 0 -0.18283842747094425 1 I I -0.70710678118654746 0.70710678118654746 0.25 forward I I I I #
loop $-1 $-1 $197 $49 #
coedge $-1 $125 $125 $198 $199 reversed $78 $-1 #
face $-1 $200 $201 $30 $-1 $202 reversed single #
loop $-1 $-1 $203 $80 #
plane-surface $-1 0 -32.951555259687773 0 0 1 0 0 0 1 forward_v I I I I #
coedge $-1 $204 $205 $206 $207 forward $81 $-1 #
coedge $-1 $208 $83 $209 $210 forward $51 $-1 #
coedge $-1 $83 $208 $211 $212 forward $51 $-1 #
coedge $-1 $213 $214 $83 $133 reversed $215 $-1 #
edge $-1 $216 -32.951555259687773 $217 32.951555259687773 $132 $218 forward 7 unknown #
face $-1 $219 $220 $31 $-1 $221 reversed single #
loop $-1 $-1 $140 $84 #
plane-surface $-1 -71.940001866404927 0 7.0934201454335426 0 0 1 1 0 0 forward_v I I I I #
coedge $-1 $222 $223 $138 $224 forward $85 $-1 #
coedge $-1 $225 $87 $137 $224 reversed $54 $-1 #
coedge $-1 $87 $225 $226 $227 reversed $54 $-1 #
coedge $-1 $228 $229 $87 $141 reversed $135 $-1 #
edge $-1 $230 -32.951555259687773 $231 32.951555259687773 $140 $232 forward 7 unknown #
face $-1 $233 $234 $32 $-1 $235 forward single #
loop $-1 $-1 $236 $88 #
plane-surface $-1 70.601560657408328 -21.559612401271139 191.14783552724563 0 1 0 0.73135370988377701 0 0.68199835119979291 forward_v I I I I #
coedge $-1 $237 $238 $239 $240 reversed $89 $-1 #
coedge $-1 $147 $91 $241 $242 reversed $57 $-1 #
coedge $-1 $91 $146 $237 $243 reversed $57 $-1 #
coedge $-1 $239 $244 $91 $149 forward $234 $-1 #
edge $-1 $245 -28.957772483576477 $246 -23.818120582124109 $148 $247 forward 7 unknown #
loop $-1 $-1 $155 $92 #
plane-surface $-1 -23.389901324639794 -18.044223390336644 103.49938139032521 0.73135370988377701 0 0.68199835119979291 0.68199835119979291 0 -0.73135370988377701 forward_v I I I I #
loop $-1 $-1 $248 $59 #
coedge $-1 $153 $153 $154 $249 reversed $93 $-1 #
coedge $-1 $154 $154 $153 $249 forward $95 $-1 #
coedge $-1 $155 $155 $96 $156 forward $150 $-1 #
edge $-1 $250 0 $250 6.2831853071796004 $155 $251 forward 7 unknown #
loop $-1 $-1 $162 $97 #
plane-surface $-1 -23.389901324639794 -18.044223390336644 103.49938139032521 0.73135370988377701 0 0.68199835119979291 0.68199835119979291 0 -0.73135370988377701 forward_v I I I I #
loop $-1 $-1 $252 $62 #
coedge $-1 $160 $160 $161 $253 reversed $98 $-1 #
coedge $-1 $161 $161 $160 $253 forward $100 $-1 #
coedge $-1 $162 $162 $101 $163 forward $157 $-1 #
edge $-1 $254 0 $254 6.2831853071796004 $162 $255 forward 7 unknown #
loop $-1 $-1 $169 $102 #
plane-surface $-1 -23.389901324639794 -18.044223390336644 103.49938139032521 0.73135370988377701 0 0.68199835119979291 0.68199835119979291 0 -0.73135370988377701 forward_v I I I I #
loop $-1 $-1 $256 $65 #
coedge $-1 $167 $167 $168 $257 reversed $103 $-1 #
coedge $-1 $168 $168 $167 $257 forward $105 $-1 #
coedge $-1 $169 $169 $106 $170 forward $164 $-1 #
edge $-1 $258 0 $258 6.2831853071796004 $169 $259 forward 7 unknown #
face $-1 $260 $261 $36 $-1 $262 reversed single #
loop $-1 $-1 $263 $107 #
plane-surface $-1 70.601560657408328 11.391942858416638 191.14783552724563 0 1 0 0.73135370988377701 0 0.68199835119979291 forward_v I I I I #
coedge $-1 $264 $265 $266 $267 reversed $108 $-1 #
coedge $-1 $176 $110 $268 $269 reversed $69 $-1 #
coedge $-1 $110 $175 $264 $270 reversed $69 $-1 #
coedge $-1 $266 $271 $110 $178 forward $272 $-1 #
edge $-1 $273 -28.957772483576477 $274 -23.818120582124109 $177 $275 forward 7 unknown #
loop $-1 $-1 $184 $111 #
plane-surface $-1 -23.389901324639794 14.907331869351133 103.49938139032521 0.73135370988377701 0 0.68199835119979291 0.68199835119979291 0 -0.73135370988377701 forward_v I I I I #
loop $-1 $-1 $276 $71 #
coedge $-1 $182 $182 $183 $277 reversed $112 $-1 #
coedge $-1 $183 $183 $182 $277 forward $114 $-1 #
coedge $-1 $184 $184 $115 $185 forward $179 $-1 #
edge $-1 $278 0 $278 6.2831853071796004 $184 $279 forward 7 unknown #
loop $-1 $-1 $191 $116 #
plane-surface $-1 -23.389901324639794 14.907331869351133 103.49938139032521 0.73135370988377701 0 0.68199835119979291 0.68199835119979291 0 -0.73135370988377701 forward_v I I I I #
loop $-1 $-1 $280 $74 #
coedge $-1 $189 $189 $190 $281 reversed $117 $-1 #
coedge $-1 $190 $190 $189 $281 forward $119 $-1 #
coedge $-1 $191 $191 $120 $192 forward $186 $-1 #
edge $-1 $282 0 $282 6.2831853071796004 $191 $283 forward 7 unknown #
loop $-1 $-1 $198 $121 #
plane-surface $-1 -23.389901324639794 14.907331869351133 103.49938139032521 0.73135370988377701 0 0.68199835119979291 0.68199835119979291 0 -0.73135370988377701 forward_v I I I I #
loop $-1 $-1 $284 $77 #
coedge $-1 $196 $196 $197 $285 reversed $122 $-1 #
coedge $-1 $197 $197 $196 $285 forward $124 $-1 #
coedge $-1 $198 $198 $125 $199 forward $193 $-1 #
edge $-1 $286 0 $286 6.2831853071796004 $198 $287 forward 7 unknown #
face $-1 $288 $289 $30 $-1 $290 reversed single #
loop $-1 $-1 $291 $126 #
plane-surface $-1 -64.258552812280641 0 0 1 0 0 0 0 -1 forward_v I I I I #
coedge $-1 $292 $211 $293 $294 forward $127 $-1 #
coedge $-1 $295 $129 $292 $296 forward $81 $-1 #
coedge $-1 $129 $295 $297 $298 forward $81 $-1 #
coedge $-1 $214 $213 $129 $207 reversed $215 $-1 #
edge $-1 $299 -32.951555259687773 $300 32.951555259687773 $206 $301 forward 7 unknown #
coedge $-1 $131 $130 $302 $303 forward $51 $-1 #
coedge $-1 $304 $305 $130 $210 reversed $289 $-1 #
edge $-1 $217 -64.258552812280641 $306 64.258552812280641 $209 $307 forward 7 unknown #
coedge $-1 $203 $308 $131 $212 reversed $127 $-1 #
edge $-1 $309 -64.258552812280641 $216 64.258552812280641 $211 $310 forward 7 unknown #
coedge $-1 $206 $132 $308 $311 forward $215 $-1 #
coedge $-1 $132 $206 $304 $312 reversed $215 $-1 #
loop $-1 $-1 $213 $288 #
vertex $-1 $133 $313 #
vertex $-1 $133 $314 #
straight-curve $-1 64.258552812280641 0 15.019521421721267 0 1 0 I I #
face $-1 $315 $316 $31 $-1 $317 forward single #
loop $-1 $-1 $318 $134 #
plane-surface $-1 -79.621450920529213 0 11.056470783577405 1 0 0 0 0 -1 forward_v I I I I #
coedge $-1 $319 $137 $229 $320 reversed $85 $-1 #
coedge $-1 $137 $319 $321 $322 reversed $85 $-1 #
edge $-1 $323 -15.019521421721267 $231 -7.0934201454335426 $137 $324 forward 7 unknown #
coedge $-1 $139 $138 $325 $326 reversed $54 $-1 #
coedge $-1 $327 $328 $139 $227 forward $329 $-1 #
edge $-1 $230 7.0934201454335426 $330 15.019521421721267 $226 $331 forward 7 unknown #
coedge $-1 $332 $140 $328 $333 forward $135 $-1 #
coedge $-1 $140 $332 $222 $320 forward $135 $-1 #
vertex $-1 $227 $334 #
vertex $-1 $224 $335 #
straight-curve $-1 -64.258552812280641 0 7.0934201454335426 0 1 0 I I #
face $-1 $-1 $336 $32 $-1 $337 reversed single #
loop $-1 $-1 $148 $142 #
plane-surface $-1 0 0 15.019521421721267 0 0 1 1 0 0 forward_v I I I I #
coedge $-1 $338 $339 $340 $341 reversed $143 $-1 #
coedge $-1 $342 $145 $147 $243 forward $89 $-1 #
coedge $-1 $145 $342 $338 $343 forward $89 $-1 #
coedge $-1 $340 $148 $145 $240 forward $234 $-1 #
edge $-1 $246 5.5067226842338268 $344 12.537500706102817 $239 $345 forward 7 unknown #
coedge $-1 $346 $347 $146 $242 forward $336 $-1 #
edge $-1 $348 -86.065998355345741 $245 -80.554396341901551 $241 $349 forward 7 unknown #
edge $-1 $246 120.98094092209459 $348 128.51710562456128 $147 $350 forward 7 unknown #
coedge $-1 $148 $340 $346 $351 forward $234 $-1 #
vertex $-1 $242 $352 #
vertex $-1 $149 $353 #
straight-curve $-1 35.300780328704164 -14.528834379402149 15.019521421721265 -1 0 0 I I #
coedge $-1 $248 $248 $-1 $354 reversed $152 $-1 #
edge $-1 $355 0 $355 6.2831853071796004 $153 $356 forward 7 unknown #
vertex $-1 $156 $357 #
ellipse-curve $-1 61.688726861554457 -20.153456796897338 12.263720414999167 0.73135370988377701 0 0.68199835119979291 0.34099917559989645 0 -0.36567685494188851 1 I I #
coedge $-1 $252 $252 $-1 $358 reversed $159 $-1 #
edge $-1 $359 0 $359 6.2831853071796004 $160 $360 forward 7 unknown #
vertex $-1 $163 $361 #
ellipse-curve $-1 61.688726861554457 -18.044223390336644 12.263720414999167 0.73135370988377701 0 0.68199835119979291 0.34099917559989645 0 -0.36567685494188851 1 I I #
coedge $-1 $256 $256 $-1 $362 reversed $166 $-1 #
edge $-1 $363 0 $363 6.2831853071796004 $167 $364 forward 7 unknown #
vertex $-1 $170 $365 #
ellipse-curve $-1 61.688726861554457 -15.934989983775946 12.263720414999167 0.73135370988377701 0 0.68199835119979291 0.34099917559989645 0 -0.36567685494188851 1 I I #
face $-1 $-1 $272 $36 $-1 $366 forward single #
loop $-1 $-1 $367 $171 #
plane-surface $-1 64.258552812280641 0 0 -1 0 0 0 0 1 forward_v I I I I #
coedge $-1 $368 $369 $370 $371 reversed $172 $-1 #
coedge $-1 $372 $174 $176 $270 forward $108 $-1 #
coedge $-1 $174 $372 $368 $373 forward $108 $-1 #
coedge $-1 $370 $177 $174 $267 forward $272 $-1 #
edge $-1 $274 -10.969054945610061 $374 -3.9382769237410713 $266 $375 forward 7 unknown #
coedge $-1 $376 $377 $175 $269 forward $261 $-1 #
edge $-1 $378 -86.065998355345741 $273 -80.554396341901551 $268 $379 forward 7 unknown #
edge $-1 $274 120.98094092209459 $378 128.51710562456128 $176 $380 forward 7 unknown #
coedge $-1 $177 $370 $376 $381 forward $272 $-1 #
loop $-1 $-1 $370 $260 #
vertex $-1 $269 $382 #
vertex $-1 $178 $383 #
straight-curve $-1 35.300780328704164 18.422720880285627 15.019521421721265 -1 0 0 I I #
coedge $-1 $276 $276 $-1 $384 reversed $181 $-1 #
edge $-1 $385 0 $385 6.2831853071796004 $182 $386 forward 7 unknown #
vertex $-1 $185 $387 #
ellipse-curve $-1 61.688726861554457 12.798098462790435 12.263720414999167 0.73135370988377701 0 0.68199835119979291 0.34099917559989645 0 -0.36567685494188851 1 I I #
coedge $-1 $280 $280 $-1 $388 reversed $188 $-1 #
edge $-1 $389 0 $389 6.2831853071796004 $189 $390 forward 7 unknown #
vertex $-1 $192 $391 #
ellipse-curve $-1 61.688726861554457 14.907331869351133 12.263720414999167 0.73135370988377701 0 0.68199835119979291 0.34099917559989645 0 -0.36567685494188851 1 I I #
coedge $-1 $284 $284 $-1 $392 reversed $195 $-1 #
edge $-1 $393 0 $393 6.2831853071796004 $196 $394 forward 7 unknown #
vertex $-1 $199 $395 #
ellipse-curve $-1 61.688726861554457 17.016565275911823 12.263720414999167 0.73135370988377701 0 0.68199835119979291 0.34099917559989645 0 -0.36567685494188851 1 I I #
face $-1 $-1 $215 $30 $-1 $396 reversed single #
loop $-1 $-1 $304 $200 #
plane-surface $-1 0 32.951555259687773 0 0 -1 0 0 0 -1 forward_v I I I I #
coedge $-1 $397 $302 $305 $398 forward $201 $-1 #
coedge $-1 $308 $203 $204 $296 reversed $127 $-1 #
coedge $-1 $302 $397 $203 $294 reversed $201 $-1 #
edge $-1 $309 -15.019521421721267 $399 15.019521421721267 $293 $400 forward 7 unknown #
coedge $-1 $205 $204 $397 $401 forward $81 $-1 #
edge $-1 $300 -64.258552812280641 $399 64.258552812280641 $292 $402 forward 7 unknown #
coedge $-1 $305 $304 $205 $298 reversed $289 $-1 #
edge $-1 $403 -64.258552812280641 $299 64.258552812280641 $297 $404 forward 7 unknown #
vertex $-1 $207 $405 #
vertex $-1 $311 $406 #
straight-curve $-1 64.258552812280641 0 -15.019521421721267 0 -1 0 I I #
coedge $-1 $291 $293 $208 $303 reversed $201 $-1 #
edge $-1 $306 -32.951555259687773 $309 32.951555259687773 $302 $407 forward 7 unknown #
coedge $-1 $297 $209 $214 $312 forward $289 $-1 #
coedge $-1 $209 $297 $291 $398 reversed $289 $-1 #
vertex $-1 $210 $408 #
straight-curve $-1 0 32.951555259687773 15.019521421721267 -1 0 0 I I #
coedge $-1 $211 $292 $213 $311 reversed $127 $-1 #
vertex $-1 $303 $409 #
straight-curve $-1 0 -32.951555259687773 15.019521421721267 1 0 0 I I #
edge $-1 $216 -15.019521421721267 $300 15.019521421721267 $213 $410 forward 7 unknown #
edge $-1 $217 -15.019521421721267 $299 15.019521421721267 $214 $411 forward 7 unknown #
point $-1 64.258552812280641 -32.951555259687773 15.019521421721267 #
point $-1 64.258552812280641 32.951555259687773 15.019521421721267 #
face $-1 $-1 $329 $31 $-1 $412 reversed single #
loop $-1 $-1 $325 $219 #
plane-surface $-1 0 0 15.019521421721267 0 0 1 1 0 0 forward_v I I I I #
coedge $-1 $413 $414 $319 $415 forward $220 $-1 #
coedge $-1 $223 $222 $318 $415 reversed $85 $-1 #
edge $-1 $416 -7.6814490541242861 $231 7.6814490541242861 $222 $417 forward 7 unknown #
coedge $-1 $418 $325 $223 $322 forward $316 $-1 #
edge $-1 $323 64.258552812280641 $419 79.621450920529213 $223 $420 forward 7 unknown #
vertex $-1 $322 $421 #
straight-curve $-1 -64.258552812280641 32.951555259687773 0 0 0 -1 I I #
coedge $-1 $321 $422 $225 $326 forward $316 $-1 #
edge $-1 $330 -32.951555259687773 $323 32.951555259687773 $325 $423 forward 7 unknown #
coedge $-1 $424 $226 $422 $425 reversed $329 $-1 #
coedge $-1 $226 $424 $228 $333 reversed $329 $-1 #
loop $-1 $-1 $226 $315 #
vertex $-1 $227 $426 #
straight-curve $-1 -64.258552812280641 -32.951555259687773 0 0 0 1 I I #
coedge $-1 $229 $228 $413 $427 forward $135 $-1 #
edge $-1 $230 -7.6814490541242861 $428 7.6814490541242861 $328 $429 forward 7 unknown #
point $-1 -64.258552812280641 -32.951555259687773 7.0934201454335426 #
point $-1 -64.258552812280641 32.951555259687773 7.0934201454335426 #
loop $-1 $-1 $241 $233 #
plane-surface $-1 64.258552812280641 0 0 -1 0 0 0 0 1 forward_v I I I I #
coedge $-1 $339 $236 $238 $343 reversed $143 $-1 #
coedge $-1 $236 $338 $430 $431 reversed $143 $-1 #
coedge $-1 $244 $239 $236 $341 forward $234 $-1 #
edge $-1 $344 23.818120582124109 $432 28.957772483576477 $340 $433 forward 7 unknown #
coedge $-1 $238 $237 $347 $434 reversed $89 $-1 #
edge $-1 $435 -128.51710562456128 $344 -120.98094092209459 $338 $436 forward 7 unknown #
vertex $-1 $240 $437 #
straight-curve $-1 59.118900910828287 -9.0221116951683218 15.019521421721258 0 -1 0 I I #
coedge $-1 $430 $241 $244 $351 reversed $336 $-1 #
coedge $-1 $241 $430 $342 $434 forward $336 $-1 #
vertex $-1 $242 $438 #
straight-curve $-1 64.258552812280641 -14.528834379402149 95.573917763622816 0 0 1 I I #
straight-curve $-1 -23.389901324639794 -14.528834379402149 103.49938139032521 0.68199835119979291 0 -0.73135370988377701 I I #
edge $-1 $432 -21.559612401271139 $245 -14.528834379402149 $346 $439 forward 7 unknown #
point $-1 64.258552812280641 -14.528834379402149 15.019521421721267 #
point $-1 59.118900910828273 -14.528834379402149 15.019521421721265 #
edge $-1 $440 1 $440 0 $248 $-1 forward 7 unknown #
vertex $-1 $249 $441 #
ellipse-curve $-1 60.880414394638336 -20.153456796897338 11.509956863599891 0.73135370988377701 0 0.68199835119979291 0.34099917559989645 0 -0.36567685494188851 1 I I #
point $-1 62.029726037154369 -20.153456796897338 11.898043560057291 #
edge $-1 $442 1 $442 0 $252 $-1 forward 7 unknown #
vertex $-1 $253 $443 #
ellipse-curve $-1 60.880414394638336 -18.044223390336644 11.509956863599891 0.73135370988377701 0 0.68199835119979291 0.34099917559989645 0 -0.36567685494188851 1 I I #
point $-1 62.029726037154369 -18.044223390336644 11.898043560057291 #
edge $-1 $444 1 $444 0 $256 $-1 forward 7 unknown #
vertex $-1 $257 $445 #
ellipse-curve $-1 60.880414394638336 -15.934989983775946 11.509956863599891 0.73135370988377701 0 0.68199835119979291 0.34099917559989645 0 -0.36567685494188851 1 I I #
point $-1 62.029726037154369 -15.934989983775946 11.898043560057291 #
plane-surface $-1 0 0 15.019521421721267 0 0 1 1 0 0 forward_v I I I I #
coedge $-1 $377 $376 $369 $446 forward $261 $-1 #
coedge $-1 $369 $263 $265 $373 reversed $172 $-1 #
coedge $-1 $263 $368 $367 $446 reversed $172 $-1 #
coedge $-1 $271 $266 $263 $371 forward $272 $-1 #
edge $-1 $374 23.818120582124109 $447 28.957772483576477 $370 $448 forward 7 unknown #
coedge $-1 $265 $264 $377 $449 reversed $108 $-1 #
edge $-1 $450 -128.51710562456128 $374 -120.98094092209459 $368 $451 forward 7 unknown #
vertex $-1 $267 $452 #
straight-curve $-1 59.118900910828287 7.4536659346755663 15.019521421721258 0 -1 0 I I #
coedge $-1 $367 $268 $271 $381 reversed $261 $-1 #
coedge $-1 $268 $367 $372 $449 forward $261 $-1 #
vertex $-1 $269 $453 #
straight-curve $-1 64.258552812280641 18.422720880285627 95.573917763622816 0 0 1 I I #
straight-curve $-1 -23.389901324639794 18.422720880285627 103.49938139032521 0.68199835119979291 0 -0.73135370988377701 I I #
edge $-1 $447 11.391942858416638 $273 18.422720880285627 $376 $454 forward 7 unknown #
point $-1 64.258552812280641 18.422720880285627 15.019521421721267 #
point $-1 59.118900910828273 18.422720880285627 15.019521421721265 #
edge $-1 $455 1 $455 0 $276 $-1 forward 7 unknown #
vertex $-1 $277 $456 #
ellipse-curve $-1 60.880414394638336 12.798098462790435 11.509956863599891 0.73135370988377701 0 0.68199835119979291 0.34099917559989645 0 -0.36567685494188851 1 I I #
point $-1 62.029726037154369 12.798098462790435 11.898043560057291 #
edge $-1 $457 1 $457 0 $280 $-1 forward 7 unknown #
vertex $-1 $281 $458 #
ellipse-curve $-1 60.880414394638336 14.907331869351133 11.509956863599891 0.73135370988377701 0 0.68199835119979291 0.34099917559989645 0 -0.36567685494188851 1 I I #
point $-1 62.029726037154369 14.907331869351133 11.898043560057291 #
edge $-1 $459 1 $459 0 $284 $-1 forward 7 unknown #
vertex $-1 $285 $460 #
ellipse-curve $-1 60.880414394638336 17.016565275911823 11.509956863599891 0.73135370988377701 0 0.68199835119979291 0.34099917559989645 0 -0.36567685494188851 1 I I #
point $-1 62.029726037154369 17.016565275911823 11.898043560057291 #
plane-surface $-1 64.258552812280641 0 0 -1 0 0 0 0 1 forward_v I I I I #
coedge $-1 $293 $291 $295 $401 reversed $201 $-1 #
edge $-1 $306 -15.019521421721267 $403 15.019521421721267 $305 $461 forward 7 unknown #
vertex $-1 $401 $462 #
straight-curve $-1 -64.258552812280641 -32.951555259687773 0 0 0 -1 I I #
edge $-1 $399 -32.951555259687773 $403 32.951555259687773 $397 $463 forward 7 unknown #
straight-curve $-1 0 -32.951555259687773 -15.019521421721267 -1 0 0 I I #
vertex $-1 $298 $464 #
straight-curve $-1 0 32.951555259687773 -15.019521421721267 1 0 0 I I #
point $-1 64.258552812280641 32.951555259687773 -15.019521421721267 #
point $-1 64.258552812280641 -32.951555259687773 -15.019521421721267 #
straight-curve $-1 -64.258552812280641 0 15.019521421721267 0 -1 0 I I #
point $-1 -64.258552812280641 32.951555259687773 15.019521421721267 #
point $-1 -64.258552812280641 -32.951555259687773 15.019521421721267 #
straight-curve $-1 64.258552812280641 -32.951555259687773 0 0 0 -1 I I #
straight-curve $-1 64.258552812280641 32.951555259687773 0 0 0 -1 I I #
plane-surface $-1 0 -32.951555259687773 0 0 1 0 0 0 1 forward_v I I I I #
coedge $-1 $465 $318 $332 $427 reversed $220 $-1 #
coedge $-1 $318 $465 $418 $466 reversed $220 $-1 #
edge $-1 $419 -3.9630506381438622 $416 3.9630506381438622 $319 $467 forward 7 unknown #
vertex $-1 $320 $468 #
straight-curve $-1 -71.940001866404927 32.951555259687773 7.0934201454335426 1 0 0 I I #
coedge $-1 $422 $321 $414 $466 forward $316 $-1 #
vertex $-1 $322 $469 #
straight-curve $-1 0 32.951555259687773 15.019521421721267 -1 0 0 I I #
point $-1 -64.258552812280641 32.951555259687773 15.019521421721267 #
coedge $-1 $325 $418 $327 $425 forward $316 $-1 #
straight-curve $-1 -64.258552812280641 0 15.019521421721267 0 1 0 I I #
coedge $-1 $328 $327 $465 $470 forward $329 $-1 #
edge $-1 $471 -79.621450920529213 $330 -64.258552812280641 $327 $472 forward 7 unknown #
point $-1 -64.258552812280641 -32.951555259687773 15.019521421721267 #
edge $-1 $428 -32.951555259687773 $416 32.951555259687773 $413 $473 forward 7 unknown #
vertex $-1 $427 $474 #
straight-curve $-1 -71.940001866404927 -32.951555259687773 7.0934201454335426 -1 0 0 I I #
coedge $-1 $347 $346 $339 $431 forward $336 $-1 #
edge $-1 $432 80.554396341901551 $435 86.065998355345741 $430 $475 forward 7 unknown #
vertex $-1 $351 $476 #
straight-curve $-1 35.300780328704164 -21.559612401271139 15.019521421721265 1 0 0 I I #
edge $-1 $435 -12.537500706102817 $348 -5.5067226842338268 $347 $477 forward 7 unknown #
vertex $-1 $434 $478 #
straight-curve $-1 -23.389901324639794 -21.559612401271139 103.49938139032521 -0.68199835119979291 0 0.73135370988377701 I I #
point $-1 59.118900910828273 -21.559612401271139 15.019521421721265 #
point $-1 64.258552812280655 -14.528834379402149 9.5079194082770755 #
straight-curve $-1 64.258552812280641 0 15.019521421721267 0 1 0 I I #
vertex $-1 $354 $479 #
point $-1 61.221413570238234 -20.153456796897338 11.144280008658003 #
vertex $-1 $358 $480 #
point $-1 61.221413570238234 -18.044223390336644 11.144280008658003 #
vertex $-1 $362 $481 #
point $-1 61.221413570238234 -15.934989983775946 11.144280008658003 #
edge $-1 $447 80.554396341901551 $450 86.065998355345741 $367 $482 forward 7 unknown #
vertex $-1 $381 $483 #
straight-curve $-1 35.300780328704164 11.391942858416638 15.019521421721265 1 0 0 I I #
edge $-1 $450 3.9382769237410713 $378 10.969054945610061 $377 $484 forward 7 unknown #
vertex $-1 $449 $485 #
straight-curve $-1 -23.389901324639794 11.391942858416638 103.49938139032521 -0.68199835119979291 0 0.73135370988377701 I I #
point $-1 59.118900910828273 11.391942858416638 15.019521421721265 #
point $-1 64.258552812280655 18.422720880285627 9.5079194082770755 #
straight-curve $-1 64.258552812280641 0 15.019521421721267 0 1 0 I I #
vertex $-1 $384 $486 #
point $-1 61.221413570238234 12.798098462790435 11.144280008658003 #
vertex $-1 $388 $487 #
point $-1 61.221413570238234 14.907331869351133 11.144280008658003 #
vertex $-1 $392 $488 #
point $-1 61.221413570238234 17.016565275911823 11.144280008658003 #
straight-curve $-1 -64.258552812280641 32.951555259687773 0 0 0 -1 I I #
point $-1 -64.258552812280641 -32.951555259687773 -15.019521421721267 #
straight-curve $-1 -64.258552812280641 0 -15.019521421721267 0 1 0 I I #
point $-1 -64.258552812280641 32.951555259687773 -15.019521421721267 #
coedge $-1 $414 $413 $424 $470 reversed $220 $-1 #
edge $-1 $419 -32.951555259687773 $471 32.951555259687773 $414 $489 forward 7 unknown #
straight-curve $-1 -79.621450920529213 32.951555259687773 11.056470783577405 0 0 -1 I I #
point $-1 -79.621450920529213 32.951555259687773 7.0934201454335426 #
point $-1 -79.621450920529213 32.951555259687773 15.019521421721267 #
edge $-1 $471 -3.9630506381438622 $428 3.9630506381438622 $465 $490 forward 7 unknown #
vertex $-1 $466 $491 #
straight-curve $-1 0 -32.951555259687773 15.019521421721267 1 0 0 I I #
straight-curve $-1 -79.621450920529213 0 7.0934201454335426 0 1 0 I I #
point $-1 -79.621450920529213 -32.951555259687773 7.0934201454335426 #
straight-curve $-1 64.258552812280641 -21.559612401271139 95.573917763622816 0 0 -1 I I #
point $-1 64.258552812280641 -21.559612401271139 15.019521421721267 #
straight-curve $-1 64.258552812280641 -9.0221116951683218 9.5079194082770968 0 1 0 I I #
point $-1 64.258552812280655 -21.559612401271139 9.5079194082770755 #
point $-1 60.514737539696455 -20.153456796897338 11.168957687999994 #
point $-1 60.514737539696455 -18.044223390336644 11.168957687999994 #
point $-1 60.514737539696455 -15.934989983775946 11.168957687999994 #
straight-curve $-1 64.258552812280641 11.391942858416638 95.573917763622816 0 0 -1 I I #
point $-1 64.258552812280641 11.391942858416638 15.019521421721267 #
straight-curve $-1 64.258552812280641 7.4536659346755663 9.5079194082770968 0 1 0 I I #
point $-1 64.258552812280655 11.391942858416638 9.5079194082770755 #
point $-1 60.514737539696455 12.798098462790435 11.168957687999994 #
point $-1 60.514737539696455 14.907331869351133 11.168957687999994 #
point $-1 60.514737539696455 17.016565275911823 11.168957687999994 #
straight-curve $-1 -79.621450920529213 0 15.019521421721267 0 -1 0 I I #
straight-curve $-1 -79.621450920529213 -32.951555259687773 11.056470783577405 0 0 -1 I I #
point $-1 -79.621450920529213 -32.951555259687773 15.019521421721267 #
End-of-ACIS-data 