500 0 7 0           
7 Unknown 11 ACIS 5.0 NT 24 Thu Mar 25 17:50:29 1999 
-1 9.9999999999999995e-007 1e-010 
body $-1 $7 $-1 $8 #
body $-1 $9 $-1 $10 #
body $-1 $11 $-1 $12 #
body $-1 $13 $-1 $14 #
body $-1 $15 $-1 $16 #
body $-1 $17 $-1 $18 #
body $-1 $19 $-1 $20 #
lump $-1 $-1 $21 $0 #
transform $-1 1 0 0 0 1 0 0 0 1 64.311044648579369 39.415269113761724 18.199203895890925 1 rotate no_reflect no_shear #
lump $-1 $-1 $22 $1 #
transform $-1 1 0 0 0 1 0 0 0 1 64.311044648579369 39.415269113761724 18.199203895890925 1 rotate no_reflect no_shear #
lump $-1 $-1 $23 $2 #
transform $-1 1 0 0 0 1 0 0 0 1 64.311044648579369 39.415269113761724 18.199203895890925 1 rotate no_reflect no_shear #
lump $-1 $-1 $24 $3 #
transform $-1 1 0 0 0 1 0 0 0 1 64.311044648579369 39.415269113761724 18.199203895890925 1 rotate no_reflect no_shear #
lump $-1 $-1 $25 $4 #
transform $-1 1 0 0 0 1 0 0 0 1 64.311044648579369 39.415269113761724 18.199203895890925 1 rotate no_reflect no_shear #
lump $-1 $-1 $26 $5 #
transform $-1 1 0 0 0 1 0 0 0 1 64.311044648579369 39.415269113761724 18.199203895890925 1 rotate no_reflect no_shear #
lump $-1 $-1 $27 $6 #
transform $-1 1 0 0 0 1 0 0 0 1 64.311044648579369 39.415269113761724 18.199203895890925 1 rotate no_reflect no_shear #
shell $-1 $-1 $-1 $28 $-1 $7 #
shell $-1 $-1 $-1 $29 $-1 $9 #
shell $-1 $-1 $-1 $30 $-1 $11 #
shell $-1 $-1 $-1 $31 $-1 $13 #
shell $-1 $-1 $-1 $32 $-1 $15 #
shell $-1 $-1 $-1 $33 $-1 $17 #
shell $-1 $-1 $-1 $34 $-1 $19 #
face $-1 $35 $36 $21 $-1 $37 forward single #
face $-1 $38 $39 $22 $-1 $40 reversed single #
face $-1 $41 $42 $23 $-1 $43 reversed single #
face $-1 $44 $45 $24 $-1 $46 forward single #
face $-1 $47 $48 $25 $-1 $49 forward single #
face $-1 $50 $51 $26 $-1 $52 reversed single #
face $-1 $53 $54 $27 $-1 $55 forward single #
face $-1 $56 $57 $21 $-1 $58 reversed single #
loop $-1 $-1 $59 $28 #
plane-surface $-1 0 0 18.199203895890925 0 0 1 1 0 0 forward_v I I I I #
face $-1 $60 $61 $22 $-1 $62 reversed single #
loop $-1 $-1 $63 $29 #
plane-surface $-1 0 -29.404912731037243 9.2171827904015942 0 0 1 1 0 0 forward_v I I I I #
face $-1 $64 $65 $23 $-1 $66 reversed single #
loop $-1 $-1 $67 $30 #
plane-surface $-1 -21.753930771008399 31.769389406282031 98.717267814403556 0.74314483375859142 0 0.66913059716165679 0.66913059716165679 0 -0.74314483375859142 forward_v I I I I #
face $-1 $68 $69 $24 $-1 $70 forward single #
loop $-1 $71 $72 $31 #
cone-surface $-1 56.131835943168127 28.49258381736216 9.4087474496513899 -0.74314483375859142 0 -0.66913059716165679 1.3382611943233136 0 -1.4862896675171828 1 I I 0 1 2 forward I I I I #
face $-1 $73 $74 $25 $-1 $75 forward single #
loop $-1 $76 $77 $32 #
cone-surface $-1 56.131835943168127 35.046194995201901 9.4087474496513899 -0.74314483375859142 0 -0.66913059716165679 1.3382611943233136 0 -1.4862896675171828 1 I I 0 1 2 forward I I I I #
face $-1 $78 $79 $26 $-1 $80 reversed single #
loop $-1 $-1 $81 $33 #
plane-surface $-1 -153.65945665442243 20.920194553221556 92.75213240229931 0 1 0 -0.69465837861970381 0 0.71933979245794832 forward_v I I I I #
face $-1 $82 $83 $27 $-1 $84 forward single #
loop $-1 $85 $86 $34 #
cone-surface $-1 -53.746788160260905 25.913392428487882 7.9094204179682173 0.69465837861970381 0 -0.71933979245794832 0.71933979245794832 0 0.69465837861970381 1 I I 0 1 1 forward I I I I #
face $-1 $87 $88 $21 $-1 $89 reversed single #
loop $-1 $-1 $90 $35 #
plane-surface $-1 0 0 -18.199203895890925 0 0 1 1 0 0 forward_v I I I I #
coedge $-1 $91 $92 $93 $94 forward $36 $-1 #
face $-1 $95 $96 $22 $-1 $97 reversed single #
loop $-1 $-1 $98 $38 #
plane-surface $-1 0 -19.394556348312761 13.708193343146259 0 -1 0 0 0 -1 forward_v I I I I #
coedge $-1 $99 $100 $101 $102 reversed $39 $-1 #
face $-1 $103 $104 $23 $-1 $105 reversed single #
loop $-1 $-1 $106 $41 #
plane-surface $-1 73.83091039741133 24.123509698802337 184.78224323399132 0 1 0 0.74314483375859142 0 0.66913059716165679 forward_v I I I I #
coedge $-1 $107 $108 $109 $110 reversed $42 $-1 #
face $-1 $-1 $111 $24 $-1 $112 forward single #
loop $-1 $113 $114 $44 #
cone-surface $-1 53.992575820353125 28.49258381736216 7.4825490312037672 -0.74314483375859142 0 -0.66913059716165679 0.66913059716165679 0 -0.74314483375859142 1 I I -0.70710678118654746 0.70710678118654746 1 forward I I I I #
loop $-1 $-1 $115 $31 #
coedge $-1 $72 $72 $116 $117 reversed $45 $-1 #
face $-1 $-1 $118 $25 $-1 $119 forward single #
loop $-1 $120 $121 $47 #
cone-surface $-1 53.992575820353125 35.046194995201901 7.4825490312037672 -0.74314483375859142 0 -0.66913059716165679 0.66913059716165679 0 -0.74314483375859142 1 I I -0.70710678118654746 0.70710678118654746 1 forward I I I I #
loop $-1 $-1 $122 $32 #
coedge $-1 $77 $77 $123 $124 reversed $48 $-1 #
face $-1 $125 $126 $26 $-1 $127 reversed single #
loop $-1 $-1 $128 $50 #
plane-surface $-1 -64.311044648579383 25.913392428487896 0.22914538177344923 -0.69465837861970381 0 0.71933979245794832 0.71933979245794832 0 0.69465837861970381 forward_v I I I I #
coedge $-1 $129 $130 $131 $132 reversed $51 $-1 #
face $-1 $-1 $133 $27 $-1 $134 forward single #
loop $-1 $135 $136 $53 #
cone-surface $-1 -52.139472437374764 25.913392428487882 6.2449963008752789 0.69465837861970381 0 -0.71933979245794832 0.35966989622897416 0 0.3473291893098519 1 I I -0.70710678118654746 0.70710678118654746 0.5 forward I I I I #
loop $-1 $-1 $137 $34 #
coedge $-1 $86 $86 $138 $139 reversed $54 $-1 #
face $-1 $140 $141 $21 $-1 $142 reversed single #
loop $-1 $-1 $143 $56 #
plane-surface $-1 0 -39.415269113761724 0 0 1 0 0 0 1 forward_v I I I I #
coedge $-1 $144 $145 $146 $147 forward $57 $-1 #
coedge $-1 $148 $59 $149 $150 forward $36 $-1 #
coedge $-1 $59 $148 $151 $152 forward $36 $-1 #
coedge $-1 $153 $154 $59 $94 reversed $155 $-1 #
edge $-1 $156 -39.415269113761724 $157 39.415269113761724 $93 $158 forward 7 unknown #
face $-1 $159 $160 $22 $-1 $161 reversed single #
loop $-1 $-1 $162 $60 #
plane-surface $-1 -64.311044648579369 0 0 1 0 0 0 0 -1 forward_v I I I I #
coedge $-1 $163 $164 $165 $166 reversed $61 $-1 #
coedge $-1 $167 $63 $168 $169 reversed $39 $-1 #
coedge $-1 $63 $167 $163 $170 forward $39 $-1 #
coedge $-1 $165 $171 $63 $102 forward $172 $-1 #
edge $-1 $173 -24.712812748243103 $174 -4.6920999827941401 $101 $175 forward 7 unknown #
face $-1 $176 $177 $23 $-1 $178 forward single #
loop $-1 $-1 $179 $64 #
plane-surface $-1 0 39.415269113761724 0 0 -1 0 0 0 -1 forward_v I I I I #
coedge $-1 $180 $181 $182 $183 reversed $65 $-1 #
coedge $-1 $184 $67 $179 $185 reversed $42 $-1 #
coedge $-1 $67 $184 $180 $186 forward $42 $-1 #
coedge $-1 $182 $187 $67 $110 forward $177 $-1 #
edge $-1 $188 -23.530574410620709 $189 -8.2388149956613219 $109 $190 forward 7 unknown #
loop $-1 $-1 $116 $68 #
plane-surface $-1 -21.753930771008399 31.769389406282031 98.717267814403556 0.74314483375859142 0 0.66913059716165679 0.66913059716165679 0 -0.74314483375859142 forward_v I I I I #
loop $-1 $-1 $191 $44 #
coedge $-1 $114 $114 $115 $192 reversed $69 $-1 #
coedge $-1 $115 $115 $114 $192 forward $71 $-1 #
coedge $-1 $116 $116 $72 $117 forward $111 $-1 #
edge $-1 $193 0 $193 6.2831853071796004 $116 $194 forward 7 unknown #
loop $-1 $-1 $123 $73 #
plane-surface $-1 -21.753930771008399 31.769389406282031 98.717267814403556 0.74314483375859142 0 0.66913059716165679 0.66913059716165679 0 -0.74314483375859142 forward_v I I I I #
loop $-1 $-1 $195 $47 #
coedge $-1 $121 $121 $122 $196 reversed $74 $-1 #
coedge $-1 $122 $122 $121 $196 forward $76 $-1 #
coedge $-1 $123 $123 $77 $124 forward $118 $-1 #
edge $-1 $197 0 $197 6.2831853071796004 $123 $198 forward 7 unknown #
face $-1 $199 $200 $26 $-1 $201 reversed single #
loop $-1 $-1 $202 $78 #
plane-surface $-1 -153.65945665442243 30.906590303754236 92.75213240229931 0 -1 0 0.69465837861970381 0 -0.71933979245794832 forward_v I I I I #
coedge $-1 $203 $204 $205 $206 reversed $79 $-1 #
coedge $-1 $130 $81 $207 $208 reversed $51 $-1 #
coedge $-1 $81 $129 $203 $209 reversed $51 $-1 #
coedge $-1 $205 $210 $81 $132 forward $211 $-1 #
edge $-1 $212 12.518683678631845 $213 31.127223588116181 $131 $214 forward 7 unknown #
loop $-1 $-1 $138 $82 #
plane-surface $-1 -64.311044648579383 25.913392428487896 0.22914538177344923 -0.69465837861970381 0 0.71933979245794832 0.71933979245794832 0 0.69465837861970381 forward_v I I I I #
loop $-1 $-1 $215 $53 #
coedge $-1 $136 $136 $137 $216 reversed $83 $-1 #
coedge $-1 $137 $137 $136 $216 forward $85 $-1 #
coedge $-1 $138 $138 $86 $139 forward $133 $-1 #
edge $-1 $217 0 $217 6.2831853071796004 $138 $218 forward 7 unknown #
face $-1 $219 $220 $21 $-1 $221 reversed single #
loop $-1 $-1 $222 $87 #
plane-surface $-1 -64.311044648579369 0 0 1 0 0 0 0 -1 forward_v I I I I #
coedge $-1 $223 $151 $224 $225 forward $88 $-1 #
coedge $-1 $226 $90 $223 $227 forward $57 $-1 #
coedge $-1 $90 $226 $228 $229 forward $57 $-1 #
coedge $-1 $154 $153 $90 $147 reversed $155 $-1 #
edge $-1 $230 -39.415269113761724 $231 39.415269113761724 $146 $232 forward 7 unknown #
coedge $-1 $92 $91 $233 $234 forward $36 $-1 #
coedge $-1 $235 $236 $91 $150 reversed $220 $-1 #
edge $-1 $157 -64.311044648579369 $237 64.311044648579369 $149 $238 forward 7 unknown #
coedge $-1 $143 $239 $92 $152 reversed $88 $-1 #
edge $-1 $240 -64.311044648579369 $156 64.311044648579369 $151 $241 forward 7 unknown #
coedge $-1 $146 $93 $239 $242 forward $155 $-1 #
coedge $-1 $93 $146 $235 $243 reversed $155 $-1 #
loop $-1 $-1 $153 $219 #
vertex $-1 $94 $244 #
vertex $-1 $94 $245 #
straight-curve $-1 64.311044648579369 0 18.199203895890925 0 1 0 I I #
face $-1 $246 $247 $22 $-1 $248 forward single #
loop $-1 $-1 $168 $95 #
plane-surface $-1 0 -39.415269113761724 0 0 1 0 0 0 1 forward_v I I I I #
coedge $-1 $249 $250 $251 $252 forward $96 $-1 #
coedge $-1 $251 $98 $100 $170 reversed $61 $-1 #
coedge $-1 $98 $251 $253 $254 reversed $61 $-1 #
coedge $-1 $255 $101 $98 $166 forward $172 $-1 #
edge $-1 $174 2.3630861188284644 $256 11.345107224317795 $165 $257 forward 7 unknown #
coedge $-1 $100 $99 $249 $258 reversed $39 $-1 #
coedge $-1 $259 $260 $99 $169 forward $160 $-1 #
edge $-1 $261 -64.311044648579369 $173 64.311044648579369 $168 $262 forward 7 unknown #
edge $-1 $263 -64.311044648579369 $174 64.311044648579369 $163 $264 forward 7 unknown #
coedge $-1 $101 $255 $259 $265 forward $172 $-1 #
loop $-1 $-1 $165 $246 #
vertex $-1 $169 $266 #
vertex $-1 $102 $267 #
straight-curve $-1 64.311044648579369 -14.702456365518621 9.2171827904015942 0 1 0 I I #
face $-1 $-1 $268 $23 $-1 $269 reversed single #
loop $-1 $-1 $109 $103 #
plane-surface $-1 0 0 18.199203895890925 0 0 1 1 0 0 forward_v I I I I #
coedge $-1 $270 $271 $107 $185 forward $104 $-1 #
coedge $-1 $181 $106 $108 $186 reversed $65 $-1 #
coedge $-1 $106 $180 $272 $273 reversed $65 $-1 #
coedge $-1 $274 $109 $106 $183 forward $177 $-1 #
edge $-1 $189 13.829402617164071 $275 27.395589449873704 $182 $276 forward 7 unknown #
coedge $-1 $108 $107 $277 $278 reversed $42 $-1 #
edge $-1 $279 -84.66336516393099 $188 -64.389016792693454 $179 $280 forward 7 unknown #
edge $-1 $281 -128.62208929715871 $189 -108.34774092592119 $180 $282 forward 7 unknown #
coedge $-1 $109 $274 $270 $283 forward $177 $-1 #
vertex $-1 $110 $284 #
vertex $-1 $110 $285 #
straight-curve $-1 50.744857815869722 15.884694703141015 18.199203895890925 0 -1 0 I I #
coedge $-1 $191 $191 $-1 $286 reversed $113 $-1 #
edge $-1 $287 0 $287 6.2831853071796004 $114 $288 forward 7 unknown #
vertex $-1 $117 $289 #
ellipse-curve $-1 57.527951232224552 28.49258381736216 10.665815270937369 0.74314483375859142 0 0.66913059716165679 1.3382611943233136 0 -1.4862896675171828 1 I I #
coedge $-1 $195 $195 $-1 $290 reversed $120 $-1 #
edge $-1 $291 0 $291 6.2831853071796004 $121 $292 forward 7 unknown #
vertex $-1 $124 $293 #
ellipse-curve $-1 57.527951232224552 35.046194995201901 10.665815270937369 0.74314483375859142 0 0.66913059716165679 1.3382611943233136 0 -1.4862896675171828 1 I I #
face $-1 $-1 $211 $26 $-1 $294 forward single #
loop $-1 $-1 $295 $125 #
plane-surface $-1 -64.311044648579369 0 0 1 0 0 0 0 -1 forward_v I I I I #
coedge $-1 $296 $297 $298 $299 reversed $126 $-1 #
coedge $-1 $300 $128 $130 $209 forward $79 $-1 #
coedge $-1 $128 $300 $296 $301 forward $79 $-1 #
coedge $-1 $298 $131 $128 $206 forward $211 $-1 #
edge $-1 $213 7.9634983389776082 $302 17.949894089510288 $205 $303 forward 7 unknown #
coedge $-1 $304 $305 $129 $208 forward $200 $-1 #
edge $-1 $306 -46.146920819376192 $212 -28.17686230525873 $207 $307 forward 7 unknown #
edge $-1 $213 -25.868914947551971 $306 -1.9747070999959293e-014 $130 $308 forward 7 unknown #
coedge $-1 $131 $298 $304 $309 forward $211 $-1 #
loop $-1 $-1 $298 $199 #
vertex $-1 $208 $310 #
vertex $-1 $132 $311 #
straight-curve $-1 -76.829728327211214 20.920194553221556 18.199203895890925 1 0 0 I I #
coedge $-1 $215 $215 $-1 $312 reversed $135 $-1 #
edge $-1 $313 0 $313 6.2831853071796004 $136 $314 forward 7 unknown #
vertex $-1 $139 $315 #
ellipse-curve $-1 -55.006774693837201 25.913392428487882 9.2141746388321906 -0.69465837861970381 0 0.71933979245794832 0.71933979245794832 0 0.69465837861970381 1 I I #
face $-1 $-1 $155 $21 $-1 $316 reversed single #
loop $-1 $-1 $235 $140 #
plane-surface $-1 0 39.415269113761724 0 0 -1 0 0 0 -1 forward_v I I I I #
coedge $-1 $317 $233 $236 $318 forward $141 $-1 #
coedge $-1 $239 $143 $144 $227 reversed $88 $-1 #
coedge $-1 $233 $317 $143 $225 reversed $141 $-1 #
edge $-1 $240 -18.199203895890925 $319 18.199203895890925 $224 $320 forward 7 unknown #
coedge $-1 $145 $144 $317 $321 forward $57 $-1 #
edge $-1 $231 -64.311044648579369 $319 64.311044648579369 $223 $322 forward 7 unknown #
coedge $-1 $236 $235 $145 $229 reversed $220 $-1 #
edge $-1 $323 -64.311044648579369 $230 64.311044648579369 $228 $324 forward 7 unknown #
vertex $-1 $147 $325 #
vertex $-1 $242 $326 #
straight-curve $-1 64.311044648579369 0 -18.199203895890925 0 -1 0 I I #
coedge $-1 $222 $224 $148 $234 reversed $141 $-1 #
edge $-1 $237 -39.415269113761724 $240 39.415269113761724 $233 $327 forward 7 unknown #
coedge $-1 $228 $149 $154 $243 forward $220 $-1 #
coedge $-1 $149 $228 $222 $318 reversed $220 $-1 #
vertex $-1 $150 $328 #
straight-curve $-1 0 39.415269113761724 18.199203895890925 -1 0 0 I I #
coedge $-1 $151 $223 $153 $242 reversed $88 $-1 #
vertex $-1 $234 $329 #
straight-curve $-1 0 -39.415269113761724 18.199203895890925 1 0 0 I I #
edge $-1 $156 -18.199203895890925 $231 18.199203895890925 $153 $330 forward 7 unknown #
edge $-1 $157 -18.199203895890925 $230 18.199203895890925 $154 $331 forward 7 unknown #
point $-1 64.311044648579369 -39.415269113761724 18.199203895890925 #
point $-1 64.311044648579369 39.415269113761724 18.199203895890925 #
face $-1 $-1 $172 $22 $-1 $332 reversed single #
loop $-1 $-1 $253 $159 #
plane-surface $-1 0 0 18.199203895890925 0 0 1 1 0 0 forward_v I I I I #
coedge $-1 $333 $162 $167 $258 forward $96 $-1 #
coedge $-1 $162 $333 $334 $335 reversed $96 $-1 #
coedge $-1 $164 $163 $162 $252 reversed $61 $-1 #
edge $-1 $336 -11.345107224317795 $263 -2.3630861188284644 $162 $337 forward 7 unknown #
coedge $-1 $334 $338 $164 $254 forward $247 $-1 #
edge $-1 $256 -64.311044648579369 $336 64.311044648579369 $253 $339 forward 7 unknown #
coedge $-1 $171 $165 $338 $340 reversed $172 $-1 #
vertex $-1 $166 $341 #
straight-curve $-1 64.311044648579369 -19.394556348312761 6.8540966715731297 0 0 1 I I #
edge $-1 $263 4.6920999827941401 $261 24.712812748243103 $249 $342 forward 7 unknown #
coedge $-1 $343 $168 $171 $265 reversed $160 $-1 #
coedge $-1 $168 $343 $333 $344 forward $160 $-1 #
vertex $-1 $169 $345 #
straight-curve $-1 0 -39.415269113761724 9.2171827904015942 1 0 0 I I #
vertex $-1 $258 $346 #
straight-curve $-1 0 -19.394556348312761 9.2171827904015942 1 0 0 I I #
edge $-1 $347 -18.199203895890925 $173 -9.2171827904015942 $171 $348 forward 7 unknown #
point $-1 64.311044648579369 -39.415269113761724 9.2171827904015942 #
point $-1 64.311044648579369 -19.394556348312761 9.2171827904015942 #
loop $-1 $-1 $277 $176 #
plane-surface $-1 64.311044648579369 0 0 -1 0 0 0 0 1 forward_v I I I I #
coedge $-1 $271 $179 $187 $283 reversed $104 $-1 #
coedge $-1 $179 $270 $349 $350 forward $104 $-1 #
coedge $-1 $277 $351 $181 $273 forward $268 $-1 #
edge $-1 $275 74.191917721104744 $281 89.258694971011835 $272 $352 forward 7 unknown #
coedge $-1 $187 $182 $351 $353 forward $177 $-1 #
vertex $-1 $353 $354 #
straight-curve $-1 36.915455198705665 24.123509698802337 18.199203895890932 1 0 0 I I #
coedge $-1 $349 $272 $184 $278 forward $268 $-1 #
edge $-1 $281 8.2388149956613219 $279 23.530574410620709 $277 $355 forward 7 unknown #
vertex $-1 $278 $356 #
straight-curve $-1 7.6601965587228094 39.415269113761724 66.04956907617624 -0.66913059716165679 0 0.74314483375859142 I I #
vertex $-1 $278 $357 #
straight-curve $-1 -21.753930771008399 24.123509698802337 98.717267814403556 -0.66913059716165679 0 0.74314483375859142 I I #
edge $-1 $358 -64.311044648579369 $188 -50.744857815869736 $270 $359 forward 7 unknown #
point $-1 50.744857815869736 39.415269113761724 18.199203895890918 #
point $-1 50.744857815869736 24.123509698802337 18.199203895890918 #
edge $-1 $360 1 $360 0 $191 $-1 forward 7 unknown #
vertex $-1 $192 $361 #
ellipse-curve $-1 54.735720654111716 28.49258381736216 8.1516796283654234 0.74314483375859142 0 0.66913059716165679 1.3382611943233136 0 -1.4862896675171828 1 I I #
point $-1 58.866212426547847 28.49258381736216 9.1795256034201742 #
edge $-1 $362 1 $362 0 $195 $-1 forward 7 unknown #
vertex $-1 $196 $363 #
ellipse-curve $-1 54.735720654111716 35.046194995201901 8.1516796283654234 0.74314483375859142 0 0.66913059716165679 1.3382611943233136 0 -1.4862896675171828 1 I I #
point $-1 58.866212426547847 35.046194995201901 9.1795256034201742 #
plane-surface $-1 0 0 18.199203895890925 0 0 1 1 0 0 forward_v I I I I #
coedge $-1 $305 $304 $297 $364 forward $200 $-1 #
coedge $-1 $297 $202 $204 $301 reversed $126 $-1 #
coedge $-1 $202 $296 $295 $364 reversed $126 $-1 #
coedge $-1 $210 $205 $202 $299 forward $211 $-1 #
edge $-1 $302 -31.127223588116181 $365 -12.518683678631845 $298 $366 forward 7 unknown #
coedge $-1 $204 $203 $305 $367 reversed $79 $-1 #
edge $-1 $368 1.9747070999959293e-014 $302 25.868914947551971 $296 $369 forward 7 unknown #
vertex $-1 $206 $370 #
straight-curve $-1 -45.702504739095026 12.956696214243948 18.199203895890925 0 1 0 I I #
coedge $-1 $295 $207 $210 $309 reversed $200 $-1 #
coedge $-1 $207 $295 $300 $367 forward $200 $-1 #
vertex $-1 $208 $371 #
straight-curve $-1 -64.311044648579369 20.920194553221556 46.376066201149655 0 0 1 I I #
straight-curve $-1 -64.311044648579383 20.920194553221556 0.22914538177344923 -0.71933979245794832 0 -0.69465837861970381 I I #
edge $-1 $365 -30.906590303754236 $212 -20.920194553221556 $304 $372 forward 7 unknown #
point $-1 -64.311044648579369 20.920194553221556 18.199203895890925 #
point $-1 -45.702504739095033 20.920194553221556 18.199203895890925 #
edge $-1 $373 1 $373 0 $215 $-1 forward 7 unknown #
vertex $-1 $216 $374 #
ellipse-curve $-1 -52.486801626684617 25.913392428487882 6.6046661971042528 -0.69465837861970381 0 0.71933979245794832 0.71933979245794832 0 0.69465837861970381 1 I I #
point $-1 -54.287434901379243 25.913392428487882 9.9088330174518831 #
plane-surface $-1 64.311044648579369 0 0 -1 0 0 0 0 1 forward_v I I I I #
coedge $-1 $224 $222 $226 $321 reversed $141 $-1 #
edge $-1 $237 -18.199203895890925 $323 18.199203895890925 $236 $375 forward 7 unknown #
vertex $-1 $321 $376 #
straight-curve $-1 -64.311044648579369 -39.415269113761724 0 0 0 -1 I I #
edge $-1 $319 -39.415269113761724 $323 39.415269113761724 $317 $377 forward 7 unknown #
straight-curve $-1 0 -39.415269113761724 -18.199203895890925 -1 0 0 I I #
vertex $-1 $229 $378 #
straight-curve $-1 0 39.415269113761724 -18.199203895890925 1 0 0 I I #
point $-1 64.311044648579369 39.415269113761724 -18.199203895890925 #
point $-1 64.311044648579369 -39.415269113761724 -18.199203895890925 #
straight-curve $-1 -64.311044648579369 0 18.199203895890925 0 -1 0 I I #
point $-1 -64.311044648579369 39.415269113761724 18.199203895890925 #
point $-1 -64.311044648579369 -39.415269113761724 18.199203895890925 #
straight-curve $-1 64.311044648579369 -39.415269113761724 0 0 0 -1 I I #
straight-curve $-1 64.311044648579369 39.415269113761724 0 0 0 -1 I I #
plane-surface $-1 64.311044648579369 0 0 -1 0 0 0 0 1 forward_v I I I I #
coedge $-1 $250 $249 $260 $344 reversed $96 $-1 #
coedge $-1 $379 $253 $250 $335 forward $247 $-1 #
edge $-1 $336 19.394556348312761 $380 39.415269113761724 $250 $381 forward 7 unknown #
vertex $-1 $335 $382 #
straight-curve $-1 -64.311044648579369 -19.394556348312761 6.8540966715731297 0 0 -1 I I #
coedge $-1 $253 $379 $255 $340 forward $247 $-1 #
straight-curve $-1 0 -19.394556348312761 18.199203895890925 -1 0 0 I I #
edge $-1 $347 -39.415269113761724 $256 -19.394556348312761 $255 $383 forward 7 unknown #
point $-1 64.311044648579369 -19.394556348312761 18.199203895890925 #
straight-curve $-1 -64.311044648579369 -14.702456365518621 9.2171827904015942 0 -1 0 I I #
coedge $-1 $260 $259 $379 $384 reversed $160 $-1 #
edge $-1 $380 -18.199203895890925 $261 -9.2171827904015942 $333 $385 forward 7 unknown #
point $-1 -64.311044648579369 -39.415269113761724 9.2171827904015942 #
point $-1 -64.311044648579369 -19.394556348312761 9.2171827904015942 #
vertex $-1 $340 $386 #
straight-curve $-1 64.311044648579369 -39.415269113761724 0 0 0 -1 I I #
coedge $-1 $351 $277 $271 $350 reversed $268 $-1 #
edge $-1 $358 -18.199203895890925 $279 -3.132426645983827 $349 $387 forward 7 unknown #
coedge $-1 $272 $349 $274 $353 reversed $268 $-1 #
straight-curve $-1 64.311044648579369 24.123509698802337 92.391121616995662 0 0 -1 I I #
edge $-1 $275 24.123509698802337 $358 39.415269113761724 $351 $388 forward 7 unknown #
point $-1 64.311044648579369 24.123509698802337 18.199203895890925 #
straight-curve $-1 64.311044648579369 15.884694703141015 3.132426645983827 0 1 0 I I #
point $-1 64.311044648579369 39.415269113761724 3.132426645983827 #
point $-1 64.311044648579369 24.123509698802337 3.132426645983827 #
vertex $-1 $353 $389 #
straight-curve $-1 0 39.415269113761724 18.199203895890925 -1 0 0 I I #
vertex $-1 $286 $390 #
point $-1 56.073981848435032 28.49258381736216 6.6653899608482412 #
vertex $-1 $290 $391 #
point $-1 56.073981848435032 35.046194995201901 6.6653899608482412 #
edge $-1 $365 28.17686230525873 $368 46.146920819376192 $295 $392 forward 7 unknown #
vertex $-1 $309 $393 #
straight-curve $-1 -76.829728327211214 30.906590303754236 18.199203895890925 -1 0 0 I I #
edge $-1 $368 -17.949894089510288 $306 -7.9634983389776082 $305 $394 forward 7 unknown #
vertex $-1 $367 $395 #
straight-curve $-1 -64.311044648579383 30.906590303754236 0.22914538177344923 0.71933979245794832 0 0.69465837861970381 I I #
point $-1 -45.702504739095033 30.906590303754236 18.199203895890925 #
point $-1 -64.311044648579369 20.920194553221556 0.22914538177346294 #
straight-curve $-1 -64.311044648579369 0 18.199203895890925 0 -1 0 I I #
vertex $-1 $312 $396 #
point $-1 -51.767461834226665 25.913392428487882 7.2993245757239569 #
straight-curve $-1 -64.311044648579369 39.415269113761724 0 0 0 -1 I I #
point $-1 -64.311044648579369 -39.415269113761724 -18.199203895890925 #
straight-curve $-1 -64.311044648579369 0 -18.199203895890925 0 1 0 I I #
point $-1 -64.311044648579369 39.415269113761724 -18.199203895890925 #
coedge $-1 $338 $334 $343 $384 forward $247 $-1 #
vertex $-1 $335 $397 #
straight-curve $-1 -64.311044648579369 0 18.199203895890925 0 -1 0 I I #
point $-1 -64.311044648579369 -19.394556348312761 18.199203895890925 #
straight-curve $-1 64.311044648579369 0 18.199203895890925 0 1 0 I I #
edge $-1 $380 -64.311044648579369 $347 64.311044648579369 $343 $398 forward 7 unknown #
straight-curve $-1 -64.311044648579369 -39.415269113761724 0 0 0 -1 I I #
point $-1 64.311044648579369 -39.415269113761724 18.199203895890925 #
straight-curve $-1 64.311044648579369 39.415269113761724 0 0 0 -1 I I #
straight-curve $-1 64.311044648579369 0 18.199203895890925 0 1 0 I I #
point $-1 64.311044648579369 39.415269113761724 18.199203895890925 #
point $-1 53.249430986594533 28.49258381736216 6.8134184340421102 #
point $-1 53.249430986594533 35.046194995201901 6.8134184340421102 #
straight-curve $-1 -64.311044648579369 30.906590303754236 46.376066201149655 0 0 -1 I I #
point $-1 -64.311044648579369 30.906590303754236 18.199203895890925 #
straight-curve $-1 -64.311044648579369 12.956696214243948 0.22914538177346516 0 -1 0 I I #
point $-1 -64.311044648579369 30.906590303754236 0.22914538177346294 #
point $-1 -51.79214324806491 25.913392428487882 5.885326404646305 #
point $-1 -64.311044648579369 -39.415269113761724 18.199203895890925 #
straight-curve $-1 0 -39.415269113761724 18.199203895890925 1 0 0 I I #
End-of-ACIS-data 