500 0 7 0           
7 Unknown 11 ACIS 5.0 NT 24 Fri Mar 26 01:22:45 1999 
-1 9.9999999999999995e-007 1e-010 
body $-1 $7 $-1 $8 #
body $-1 $9 $-1 $10 #
body $-1 $11 $-1 $12 #
body $-1 $13 $-1 $14 #
body $-1 $15 $-1 $16 #
body $-1 $17 $-1 $18 #
body $-1 $19 $-1 $20 #
lump $-1 $-1 $21 $0 #
transform $-1 1 0 0 0 1 0 0 0 1 46.378368480483417 31.900538483438563 8.2674450758800102 1 rotate no_reflect no_shear #
lump $-1 $-1 $22 $1 #
transform $-1 1 0 0 0 1 0 0 0 1 46.378368480483417 31.900538483438563 8.2674450758800102 1 rotate no_reflect no_shear #
lump $-1 $-1 $23 $2 #
transform $-1 1 0 0 0 1 0 0 0 1 46.378368480483417 31.900538483438563 8.2674450758800102 1 rotate no_reflect no_shear #
lump $-1 $-1 $24 $3 #
transform $-1 1 0 0 0 1 0 0 0 1 46.378368480483417 31.900538483438563 8.2674450758800102 1 rotate no_reflect no_shear #
lump $-1 $-1 $25 $4 #
transform $-1 1 0 0 0 1 0 0 0 1 46.378368480483417 31.900538483438563 8.2674450758800102 1 rotate no_reflect no_shear #
lump $-1 $-1 $26 $5 #
transform $-1 1 0 0 0 1 0 0 0 1 46.378368480483417 31.900538483438563 8.2674450758800102 1 rotate no_reflect no_shear #
lump $-1 $-1 $27 $6 #
transform $-1 1 0 0 0 1 0 0 0 1 46.378368480483417 31.900538483438563 8.2674450758800102 1 rotate no_reflect no_shear #
shell $-1 $-1 $-1 $28 $-1 $7 #
shell $-1 $-1 $-1 $29 $-1 $9 #
shell $-1 $-1 $-1 $30 $-1 $11 #
shell $-1 $-1 $-1 $31 $-1 $13 #
shell $-1 $-1 $-1 $32 $-1 $15 #
shell $-1 $-1 $-1 $33 $-1 $17 #
shell $-1 $-1 $-1 $34 $-1 $19 #
face $-1 $35 $36 $21 $-1 $37 forward single #
face $-1 $38 $39 $22 $-1 $40 reversed single #
face $-1 $41 $42 $23 $-1 $43 reversed single #
face $-1 $44 $45 $24 $-1 $46 forward single #
face $-1 $47 $48 $25 $-1 $49 reversed single #
face $-1 $50 $51 $26 $-1 $52 forward single #
face $-1 $53 $54 $27 $-1 $55 forward single #
face $-1 $56 $57 $21 $-1 $58 reversed single #
loop $-1 $-1 $59 $28 #
plane-surface $-1 0 0 8.2674450758800102 0 0 1 1 0 0 forward_v I I I I #
face $-1 $60 $61 $22 $-1 $62 reversed single #
loop $-1 $-1 $63 $29 #
plane-surface $-1 -42.488102481993693 -22.189565582275911 0 0 1 0 0 0 1 forward_v I I I I #
face $-1 $64 $65 $23 $-1 $66 reversed single #
loop $-1 $-1 $67 $30 #
plane-surface $-1 41.546833135222741 -31.900538483438567 1.7861440546312792 0 -0.71933980857756763 0.69465836192734942 1 0 0 forward_v I I I I #
face $-1 $68 $69 $24 $-1 $70 forward single #
loop $-1 $71 $72 $31 #
cone-surface $-1 41.546833135222727 -28.009495523719021 4.291342223014599 0 0.71933980857756763 -0.69465836192734942 1.5 0 0 1 I I 0 1 1.5 forward I I I I #
face $-1 $73 $74 $25 $-1 $75 reversed single #
loop $-1 $-1 $76 $32 #
plane-surface $-1 40.291393796160079 -18.375395873298025 43.706564327283402 0 0.61566148304635926 0.78801074757464917 1 0 0 forward_v I I I I #
face $-1 $77 $78 $26 $-1 $79 forward single #
loop $-1 $80 $81 $33 #
cone-surface $-1 37.682690360021496 27.866700666868578 4.3300474108108693 0 -0.61566148304635926 -0.78801074757464917 1.5 0 0 1 I I 0 1 1.5 forward I I I I #
face $-1 $82 $83 $27 $-1 $84 forward single #
loop $-1 $85 $86 $34 #
cone-surface $-1 42.900097232298648 27.866700666868578 4.3300474108108693 0 -0.61566148304635926 -0.78801074757464917 1.5 0 0 1 I I 0 1 1.5 forward I I I I #
face $-1 $87 $88 $21 $-1 $89 reversed single #
loop $-1 $-1 $90 $35 #
plane-surface $-1 0 0 -8.2674450758800102 0 0 1 1 0 0 forward_v I I I I #
coedge $-1 $91 $92 $93 $94 forward $36 $-1 #
face $-1 $95 $96 $22 $-1 $97 reversed single #
loop $-1 $-1 $98 $38 #
plane-surface $-1 -42.488102481993693 -17.470912537441386 0 0 -1 0 0 0 -1 forward_v I I I I #
coedge $-1 $99 $100 $101 $102 reversed $39 $-1 #
face $-1 $103 $104 $23 $-1 $105 reversed single #
loop $-1 $-1 $106 $41 #
plane-surface $-1 36.715297789962058 -98.624151893220244 66.220387009662531 1 0 0 0 0.71933980857756763 -0.69465836192734942 forward_v I I I I #
coedge $-1 $107 $108 $109 $110 reversed $42 $-1 #
face $-1 $-1 $111 $24 $-1 $112 forward single #
loop $-1 $113 $114 $44 #
cone-surface $-1 41.546833135222727 -26.708407454470617 3.0348961093280469 0 0.71933980857756763 -0.69465836192734942 0.75 0 0 1 I I -0.70710678118654757 0.70710678118654757 0.75 forward I I I I #
loop $-1 $-1 $115 $31 #
coedge $-1 $72 $72 $116 $117 reversed $45 $-1 #
face $-1 $118 $119 $25 $-1 $120 reversed single #
loop $-1 $-1 $121 $47 #
plane-surface $-1 34.204419111836735 38.731354366631862 116.79986996247997 1 0 0 0 -0.61566148304635926 -0.78801074757464917 forward_v I I I I #
coedge $-1 $122 $123 $124 $125 reversed $48 $-1 #
face $-1 $-1 $126 $26 $-1 $127 forward single #
loop $-1 $128 $129 $50 #
cone-surface $-1 37.682690360021496 25.829082305348496 1.7220148920502876 0 -0.61566148304635926 -0.78801074757464917 0.75 0 0 1 I I -0.70710678118654757 0.70710678118654757 0.75 forward I I I I #
loop $-1 $-1 $130 $33 #
coedge $-1 $81 $81 $131 $132 reversed $51 $-1 #
face $-1 $-1 $133 $27 $-1 $134 forward single #
loop $-1 $135 $136 $53 #
cone-surface $-1 42.900097232298648 25.829082305348496 1.7220148920502876 0 -0.61566148304635926 -0.78801074757464917 0.75 0 0 1 I I -0.70710678118654757 0.70710678118654757 0.75 forward I I I I #
loop $-1 $-1 $137 $34 #
coedge $-1 $86 $86 $138 $139 reversed $54 $-1 #
face $-1 $140 $141 $21 $-1 $142 reversed single #
loop $-1 $-1 $143 $56 #
plane-surface $-1 0 -31.900538483438563 0 0 1 0 0 0 1 forward_v I I I I #
coedge $-1 $144 $145 $146 $147 forward $57 $-1 #
coedge $-1 $148 $59 $149 $150 forward $36 $-1 #
coedge $-1 $59 $148 $151 $152 forward $36 $-1 #
coedge $-1 $153 $154 $59 $94 reversed $155 $-1 #
edge $-1 $156 -31.900538483438563 $157 31.900538483438563 $93 $158 forward 7 unknown #
face $-1 $159 $160 $22 $-1 $161 reversed single #
loop $-1 $-1 $162 $60 #
plane-surface $-1 -38.597836483503968 -19.830239059858648 0 -1 0 0 0 0 1 forward_v I I I I #
coedge $-1 $163 $164 $165 $166 forward $61 $-1 #
coedge $-1 $167 $63 $168 $169 reversed $39 $-1 #
coedge $-1 $63 $167 $170 $171 reversed $39 $-1 #
coedge $-1 $172 $173 $63 $102 forward $174 $-1 #
edge $-1 $175 -8.2674450758800102 $176 8.2674450758800102 $101 $177 forward 7 unknown #
face $-1 $178 $179 $23 $-1 $180 forward single #
loop $-1 $-1 $181 $64 #
plane-surface $-1 0 -31.900538483438563 0 0 1 0 0 0 1 forward_v I I I I #
coedge $-1 $182 $183 $184 $185 reversed $65 $-1 #
coedge $-1 $186 $67 $187 $188 reversed $42 $-1 #
coedge $-1 $67 $186 $182 $189 forward $42 $-1 #
coedge $-1 $184 $190 $67 $110 forward $179 $-1 #
edge $-1 $191 -25.604951912872053 $192 -15.941881222350688 $109 $193 forward 7 unknown #
loop $-1 $-1 $116 $68 #
plane-surface $-1 41.546833135222741 -31.900538483438567 1.7861440546312792 0 -0.71933980857756763 0.69465836192734942 1 0 0 forward_v I I I I #
loop $-1 $-1 $194 $44 #
coedge $-1 $114 $114 $115 $195 reversed $69 $-1 #
coedge $-1 $115 $115 $114 $195 forward $71 $-1 #
coedge $-1 $116 $116 $72 $117 forward $111 $-1 #
edge $-1 $196 3.0901991210412328e-016 $196 6.2831853071796004 $116 $197 forward 7 unknown #
face $-1 $198 $199 $25 $-1 $200 reversed single #
loop $-1 $-1 $201 $73 #
plane-surface $-1 46.378368480483417 0 0 -1 0 0 0 0 1 forward_v I I I I #
coedge $-1 $202 $203 $204 $205 reversed $74 $-1 #
coedge $-1 $206 $76 $201 $207 reversed $48 $-1 #
coedge $-1 $76 $206 $202 $208 forward $48 $-1 #
coedge $-1 $204 $209 $76 $125 forward $199 $-1 #
edge $-1 $210 -26.232671582403377 $211 -14.058722213756695 $124 $212 forward 7 unknown #
loop $-1 $-1 $131 $77 #
plane-surface $-1 40.291393796160079 -18.375395873298025 43.706564327283402 0 0.61566148304635926 0.78801074757464917 1 0 0 forward_v I I I I #
loop $-1 $-1 $213 $50 #
coedge $-1 $129 $129 $130 $214 reversed $78 $-1 #
coedge $-1 $130 $130 $129 $214 forward $80 $-1 #
coedge $-1 $131 $131 $81 $132 forward $126 $-1 #
edge $-1 $215 -2.772243666702197e-016 $215 6.2831853071796004 $131 $216 forward 7 unknown #
loop $-1 $-1 $138 $82 #
plane-surface $-1 40.291393796160079 -18.375395873298025 43.706564327283402 0 0.61566148304635926 0.78801074757464917 1 0 0 forward_v I I I I #
loop $-1 $-1 $217 $53 #
coedge $-1 $136 $136 $137 $218 reversed $83 $-1 #
coedge $-1 $137 $137 $136 $218 forward $85 $-1 #
coedge $-1 $138 $138 $86 $139 forward $133 $-1 #
edge $-1 $219 -2.772243666702197e-016 $219 6.2831853071796004 $138 $220 forward 7 unknown #
face $-1 $221 $222 $21 $-1 $223 reversed single #
loop $-1 $-1 $224 $87 #
plane-surface $-1 -46.378368480483417 0 0 1 0 0 0 0 -1 forward_v I I I I #
coedge $-1 $225 $151 $226 $227 forward $88 $-1 #
coedge $-1 $228 $90 $225 $229 forward $57 $-1 #
coedge $-1 $90 $228 $230 $231 forward $57 $-1 #
coedge $-1 $154 $153 $90 $147 reversed $155 $-1 #
edge $-1 $232 -31.900538483438563 $233 31.900538483438563 $146 $234 forward 7 unknown #
coedge $-1 $92 $91 $235 $236 forward $36 $-1 #
coedge $-1 $237 $238 $91 $150 reversed $222 $-1 #
edge $-1 $157 -46.378368480483417 $239 46.378368480483417 $149 $240 forward 7 unknown #
coedge $-1 $143 $241 $92 $152 reversed $88 $-1 #
edge $-1 $242 -46.378368480483417 $156 46.378368480483417 $151 $243 forward 7 unknown #
coedge $-1 $146 $93 $241 $244 forward $155 $-1 #
coedge $-1 $93 $146 $237 $245 reversed $155 $-1 #
loop $-1 $-1 $153 $221 #
vertex $-1 $94 $246 #
vertex $-1 $94 $247 #
straight-curve $-1 46.378368480483417 0 8.2674450758800102 0 1 0 I I #
face $-1 $248 $249 $22 $-1 $250 forward single #
loop $-1 $-1 $251 $95 #
plane-surface $-1 0 0 -8.2674450758800102 0 0 1 1 0 0 forward_v I I I I #
coedge $-1 $252 $253 $167 $254 forward $96 $-1 #
coedge $-1 $255 $98 $251 $256 reversed $61 $-1 #
coedge $-1 $98 $255 $257 $258 reversed $61 $-1 #
coedge $-1 $253 $252 $98 $166 reversed $96 $-1 #
edge $-1 $259 -8.2674450758800102 $260 8.2674450758800102 $165 $261 forward 7 unknown #
coedge $-1 $100 $99 $162 $254 reversed $39 $-1 #
coedge $-1 $262 $263 $99 $169 forward $160 $-1 #
edge $-1 $264 17.353785242507122 $175 25.13431723948657 $168 $265 forward 7 unknown #
coedge $-1 $266 $267 $100 $171 forward $249 $-1 #
edge $-1 $176 -25.13431723948657 $268 -17.353785242507122 $170 $269 forward 7 unknown #
coedge $-1 $270 $101 $267 $271 reversed $174 $-1 #
coedge $-1 $101 $270 $262 $272 reversed $174 $-1 #
loop $-1 $-1 $270 $248 #
vertex $-1 $272 $273 #
vertex $-1 $102 $274 #
straight-curve $-1 -46.378368480483417 -22.189565582275911 0 0 0 1 I I #
face $-1 $-1 $275 $23 $-1 $276 reversed single #
loop $-1 $-1 $184 $103 #
plane-surface $-1 0 0 8.2674450758800102 0 0 1 1 0 0 forward_v I I I I #
coedge $-1 $277 $278 $183 $279 forward $104 $-1 #
coedge $-1 $183 $106 $108 $189 reversed $65 $-1 #
coedge $-1 $106 $182 $181 $279 reversed $65 $-1 #
coedge $-1 $280 $109 $106 $185 forward $179 $-1 #
edge $-1 $192 -23.670456956980178 $281 -17.411537463171559 $184 $282 forward 7 unknown #
coedge $-1 $108 $107 $277 $283 reversed $42 $-1 #
coedge $-1 $284 $285 $107 $188 forward $275 $-1 #
edge $-1 $286 -10.437565642577685 $191 -1.4274970436147814 $187 $287 forward 7 unknown #
edge $-1 $288 5.1832561657541554e-015 $192 9.0100685989629099 $182 $289 forward 7 unknown #
coedge $-1 $109 $280 $284 $290 forward $179 $-1 #
vertex $-1 $188 $291 #
vertex $-1 $110 $292 #
straight-curve $-1 20.77341656761137 -25.641618989629947 8.2674450758800102 -1 0 0 I I #
coedge $-1 $194 $194 $-1 $293 reversed $113 $-1 #
edge $-1 $294 0 $294 6.2831853071796004 $114 $295 forward 7 unknown #
vertex $-1 $117 $296 #
ellipse-curve $-1 41.546833135222727 -28.771078736534253 5.0267945652556456 0 -0.71933980857756763 0.69465836192734942 1.5 0 0 1 I I #
face $-1 $-1 $297 $25 $-1 $298 forward single #
loop $-1 $-1 $124 $118 #
plane-surface $-1 0 31.900538483438563 0 0 -1 0 0 0 -1 forward_v I I I I #
coedge $-1 $299 $300 $122 $207 forward $119 $-1 #
coedge $-1 $203 $121 $123 $208 reversed $74 $-1 #
coedge $-1 $121 $202 $301 $302 reversed $74 $-1 #
coedge $-1 $303 $124 $121 $205 forward $199 $-1 #
edge $-1 $211 -53.97323631933908 $304 -50.132489905359975 $204 $305 forward 7 unknown #
coedge $-1 $123 $122 $306 $307 reversed $48 $-1 #
edge $-1 $308 36.86844193933841 $210 43.106848141030085 $201 $309 forward 7 unknown #
edge $-1 $310 57.562670765185459 $211 63.80107696687714 $202 $311 forward 7 unknown #
coedge $-1 $124 $303 $299 $312 forward $199 $-1 #
vertex $-1 $125 $313 #
vertex $-1 $125 $314 #
straight-curve $-1 20.14569689808004 31.900538483438563 4.4266986619009074 -1 0 0 I I #
coedge $-1 $213 $213 $-1 $315 reversed $128 $-1 #
edge $-1 $316 0 $316 6.2831853071796004 $129 $317 forward 7 unknown #
vertex $-1 $132 $318 #
ellipse-curve $-1 37.682690360021496 29.442572916103884 6.3470718688904544 0 0.61566148304635926 0.78801074757464917 1.5 0 0 1 I I #
coedge $-1 $217 $217 $-1 $319 reversed $135 $-1 #
edge $-1 $320 0 $320 6.2831853071796004 $136 $321 forward 7 unknown #
vertex $-1 $139 $322 #
ellipse-curve $-1 42.900097232298648 29.442572916103884 6.3470718688904544 0 0.61566148304635926 0.78801074757464917 1.5 0 0 1 I I #
face $-1 $-1 $155 $21 $-1 $323 reversed single #
loop $-1 $-1 $237 $140 #
plane-surface $-1 0 31.900538483438563 0 0 -1 0 0 0 -1 forward_v I I I I #
coedge $-1 $324 $235 $238 $325 forward $141 $-1 #
coedge $-1 $241 $143 $144 $229 reversed $88 $-1 #
coedge $-1 $235 $324 $143 $227 reversed $141 $-1 #
edge $-1 $242 -8.2674450758800102 $326 8.2674450758800102 $226 $327 forward 7 unknown #
coedge $-1 $145 $144 $324 $328 forward $57 $-1 #
edge $-1 $233 -46.378368480483417 $326 46.378368480483417 $225 $329 forward 7 unknown #
coedge $-1 $238 $237 $145 $231 reversed $222 $-1 #
edge $-1 $330 -46.378368480483417 $232 46.378368480483417 $230 $331 forward 7 unknown #
vertex $-1 $147 $332 #
vertex $-1 $244 $333 #
straight-curve $-1 46.378368480483417 0 -8.2674450758800102 0 -1 0 I I #
coedge $-1 $224 $226 $148 $236 reversed $141 $-1 #
edge $-1 $239 -31.900538483438563 $242 31.900538483438563 $235 $334 forward 7 unknown #
coedge $-1 $230 $149 $154 $245 forward $222 $-1 #
coedge $-1 $149 $230 $224 $325 reversed $222 $-1 #
vertex $-1 $150 $335 #
straight-curve $-1 0 31.900538483438563 8.2674450758800102 -1 0 0 I I #
coedge $-1 $151 $225 $153 $244 reversed $88 $-1 #
vertex $-1 $236 $336 #
straight-curve $-1 0 -31.900538483438563 8.2674450758800102 1 0 0 I I #
edge $-1 $156 -8.2674450758800102 $233 8.2674450758800102 $153 $337 forward 7 unknown #
edge $-1 $157 -8.2674450758800102 $232 8.2674450758800102 $154 $338 forward 7 unknown #
point $-1 46.378368480483417 -31.900538483438563 8.2674450758800102 #
point $-1 46.378368480483417 31.900538483438563 8.2674450758800102 #
face $-1 $-1 $174 $22 $-1 $339 reversed single #
loop $-1 $-1 $257 $159 #
plane-surface $-1 0 0 8.2674450758800102 0 0 1 1 0 0 forward_v I I I I #
coedge $-1 $263 $262 $163 $256 forward $160 $-1 #
coedge $-1 $165 $162 $263 $340 reversed $96 $-1 #
coedge $-1 $162 $165 $266 $341 reversed $96 $-1 #
edge $-1 $268 -8.2674450758800102 $264 8.2674450758800102 $162 $342 forward 7 unknown #
coedge $-1 $164 $163 $270 $343 reversed $61 $-1 #
edge $-1 $344 -25.13431723948657 $260 -17.353785242507122 $251 $345 forward 7 unknown #
coedge $-1 $267 $266 $164 $258 forward $249 $-1 #
edge $-1 $259 17.353785242507122 $346 25.13431723948657 $257 $347 forward 7 unknown #
vertex $-1 $258 $348 #
vertex $-1 $256 $349 #
straight-curve $-1 -38.597836483503968 -17.470912537441386 0 0 0 -1 I I #
coedge $-1 $251 $168 $173 $272 forward $160 $-1 #
coedge $-1 $168 $251 $252 $340 forward $160 $-1 #
vertex $-1 $169 $350 #
straight-curve $-1 -21.244051240996846 -22.189565582275911 -8.2674450758800102 -1 0 0 I I #
coedge $-1 $257 $170 $253 $341 forward $249 $-1 #
coedge $-1 $170 $257 $172 $271 forward $249 $-1 #
vertex $-1 $171 $351 #
straight-curve $-1 -21.244051240996846 -22.189565582275911 8.2674450758800102 1 0 0 I I #
coedge $-1 $173 $172 $255 $343 forward $174 $-1 #
edge $-1 $346 17.470912537441386 $176 22.189565582275911 $172 $352 forward 7 unknown #
edge $-1 $175 -22.189565582275911 $344 -17.470912537441386 $173 $353 forward 7 unknown #
point $-1 -46.378368480483417 -22.189565582275911 -8.2674450758800102 #
point $-1 -46.378368480483417 -22.189565582275911 8.2674450758800102 #
loop $-1 $-1 $187 $178 #
plane-surface $-1 46.378368480483417 0 0 -1 0 0 0 0 1 forward_v I I I I #
coedge $-1 $354 $181 $186 $283 forward $104 $-1 #
coedge $-1 $181 $354 $280 $355 reversed $104 $-1 #
edge $-1 $281 24.842748428951253 $288 31.324049450199983 $181 $356 forward 7 unknown #
coedge $-1 $190 $184 $278 $355 forward $179 $-1 #
vertex $-1 $355 $357 #
straight-curve $-1 36.715297789962058 -49.312075946610122 8.267445075880012 0 -1 0 I I #
edge $-1 $288 15.941881222350688 $286 25.604951912872053 $277 $358 forward 7 unknown #
coedge $-1 $285 $187 $190 $290 reversed $275 $-1 #
coedge $-1 $187 $284 $354 $359 forward $275 $-1 #
vertex $-1 $283 $360 #
straight-curve $-1 46.378368480483417 -24.649996231656367 9.2943005259789118 0 0.69465836192734942 0.71933980857756763 I I #
vertex $-1 $283 $361 #
straight-curve $-1 36.715297789962058 -31.900538483438567 1.7861440546312792 0 0.69465836192734942 0.71933980857756763 I I #
edge $-1 $362 -31.900538483438563 $191 -25.641618989629944 $284 $363 forward 7 unknown #
point $-1 46.378368480483424 -25.641618989629944 8.2674450758800102 #
point $-1 36.715297789962058 -25.641618989629944 8.2674450758800102 #
edge $-1 $364 1 $364 0 $194 $-1 forward 7 unknown #
vertex $-1 $195 $365 #
ellipse-curve $-1 41.546833135222727 -27.247912310903793 3.5558898807735591 0 -0.71933980857756763 0.69465836192734942 1.5 0 0 1 I I #
point $-1 43.046833135222727 -28.771078736534246 5.0267945652556394 #
loop $-1 $-1 $306 $198 #
plane-surface $-1 0 0 8.2674450758800102 0 0 1 1 0 0 forward_v I I I I #
coedge $-1 $300 $201 $209 $312 reversed $119 $-1 #
coedge $-1 $201 $299 $366 $367 reversed $119 $-1 #
coedge $-1 $306 $368 $203 $302 forward $297 $-1 #
edge $-1 $304 -12.534861300122632 $310 -7.6189301654532429 $301 $369 forward 7 unknown #
coedge $-1 $209 $204 $368 $370 reversed $199 $-1 #
vertex $-1 $205 $371 #
straight-curve $-1 34.204419111836735 31.900538483438563 58.399934981239987 0 0 1 I I #
coedge $-1 $366 $301 $206 $307 forward $297 $-1 #
edge $-1 $310 14.058722213756695 $308 26.232671582403384 $306 $372 forward 7 unknown #
vertex $-1 $367 $373 #
straight-curve $-1 46.378368480483417 -2.0681211457614364 30.965924717861689 0 0.78801074757464917 -0.61566148304635926 I I #
vertex $-1 $307 $374 #
straight-curve $-1 34.204419111836735 -18.375395873298025 43.706564327283402 0 0.78801074757464917 -0.61566148304635926 I I #
edge $-1 $375 -8.2674450758800102 $210 -4.4266986619009083 $299 $376 forward 7 unknown #
point $-1 46.378368480483417 31.900538483438563 4.4266986619009083 #
point $-1 34.204419111836735 31.900538483438559 4.4266986619009074 #
edge $-1 $377 1 $377 0 $213 $-1 forward 7 unknown #
vertex $-1 $214 $378 #
ellipse-curve $-1 37.682690360021496 26.290828417633264 2.3130229527312745 0 0.61566148304635926 0.78801074757464917 1.5 0 0 1 I I #
point $-1 39.182690360021496 29.442572916103892 6.3470718688904642 #
edge $-1 $379 1 $379 0 $217 $-1 forward 7 unknown #
vertex $-1 $218 $380 #
ellipse-curve $-1 42.900097232298648 26.290828417633264 2.3130229527312745 0 0.61566148304635926 0.78801074757464917 1.5 0 0 1 I I #
point $-1 44.400097232298648 29.442572916103892 6.3470718688904642 #
plane-surface $-1 46.378368480483417 0 0 -1 0 0 0 0 1 forward_v I I I I #
coedge $-1 $226 $224 $228 $328 reversed $141 $-1 #
edge $-1 $239 -8.2674450758800102 $330 8.2674450758800102 $238 $381 forward 7 unknown #
vertex $-1 $328 $382 #
straight-curve $-1 -46.378368480483417 -31.900538483438563 0 0 0 -1 I I #
edge $-1 $326 -31.900538483438563 $330 31.900538483438563 $324 $383 forward 7 unknown #
straight-curve $-1 0 -31.900538483438563 -8.2674450758800102 -1 0 0 I I #
vertex $-1 $231 $384 #
straight-curve $-1 0 31.900538483438563 -8.2674450758800102 1 0 0 I I #
point $-1 46.378368480483417 31.900538483438563 -8.2674450758800102 #
point $-1 46.378368480483417 -31.900538483438563 -8.2674450758800102 #
straight-curve $-1 -46.378368480483417 0 8.2674450758800102 0 -1 0 I I #
point $-1 -46.378368480483417 31.900538483438563 8.2674450758800102 #
point $-1 -46.378368480483417 -31.900538483438563 8.2674450758800102 #
straight-curve $-1 46.378368480483417 -31.900538483438563 0 0 0 -1 I I #
straight-curve $-1 46.378368480483417 31.900538483438563 0 0 0 -1 I I #
plane-surface $-1 -46.378368480483417 0 0 1 0 0 0 0 -1 forward_v I I I I #
edge $-1 $260 7.5557930075120616 $264 12.274446052346587 $263 $385 forward 7 unknown #
edge $-1 $268 -12.274446052346587 $259 -7.5557930075120616 $266 $386 forward 7 unknown #
straight-curve $-1 -38.597836483503968 -22.189565582275911 0 0 0 -1 I I #
edge $-1 $346 -8.2674450758800102 $344 8.2674450758800102 $270 $387 forward 7 unknown #
vertex $-1 $343 $388 #
straight-curve $-1 -21.244051240996846 -17.470912537441386 -8.2674450758800102 1 0 0 I I #
vertex $-1 $271 $389 #
straight-curve $-1 -21.244051240996846 -17.470912537441386 8.2674450758800102 -1 0 0 I I #
point $-1 -38.597836483503968 -17.470912537441386 8.2674450758800102 #
point $-1 -38.597836483503968 -17.470912537441386 -8.2674450758800102 #
point $-1 -38.597836483503968 -22.189565582275911 -8.2674450758800102 #
point $-1 -38.597836483503968 -22.189565582275911 8.2674450758800102 #
straight-curve $-1 -46.378368480483417 0 8.2674450758800102 0 -1 0 I I #
straight-curve $-1 -46.378368480483417 0 -8.2674450758800102 0 1 0 I I #
coedge $-1 $278 $277 $285 $359 reversed $104 $-1 #
edge $-1 $281 36.715297789962058 $362 46.378368480483417 $278 $390 forward 7 unknown #
straight-curve $-1 36.715297789962058 -31.900538483438567 33.110193504831265 0 0 -1 I I #
point $-1 36.715297789962058 -31.900538483438563 8.2674450758800102 #
straight-curve $-1 20.77341656761137 -31.900538483438563 1.786144054631281 1 0 0 I I #
edge $-1 $362 -8.2674450758800102 $286 -1.786144054631283 $285 $391 forward 7 unknown #
point $-1 46.378368480483424 -31.900538483438563 1.786144054631283 #
point $-1 36.715297789962058 -31.900538483438563 1.786144054631283 #
vertex $-1 $290 $392 #
straight-curve $-1 46.378368480483417 0 8.2674450758800102 0 1 0 I I #
vertex $-1 $293 $393 #
point $-1 43.046833135222727 -27.247912310903793 3.5558898807735591 #
coedge $-1 $368 $306 $300 $367 forward $297 $-1 #
edge $-1 $308 26.984607348769174 $375 31.900538483438563 $300 $394 forward 7 unknown #
coedge $-1 $301 $366 $303 $370 forward $297 $-1 #
straight-curve $-1 34.204419111836735 19.365677183315931 8.267445075880012 0 -1 0 I I #
edge $-1 $375 -46.378368480483417 $304 -34.204419111836735 $303 $395 forward 7 unknown #
point $-1 34.204419111836735 31.900538483438563 8.2674450758800102 #
straight-curve $-1 20.14569689808004 26.984607348769174 8.2674450758800084 1 0 0 I I #
point $-1 46.378368480483424 26.984607348769174 8.267445075880012 #
point $-1 34.204419111836735 26.984607348769174 8.267445075880012 #
vertex $-1 $367 $396 #
straight-curve $-1 46.378368480483417 31.900538483438563 0 0 0 -1 I I #
vertex $-1 $315 $397 #
point $-1 39.182690360021496 26.290828417633264 2.3130229527312745 #
vertex $-1 $319 $398 #
point $-1 44.400097232298648 26.290828417633264 2.3130229527312745 #
straight-curve $-1 -46.378368480483417 31.900538483438563 0 0 0 -1 I I #
point $-1 -46.378368480483417 -31.900538483438563 -8.2674450758800102 #
straight-curve $-1 -46.378368480483417 0 -8.2674450758800102 0 1 0 I I #
point $-1 -46.378368480483417 31.900538483438563 -8.2674450758800102 #
straight-curve $-1 -38.597836483503968 -9.9151195299293242 -8.2674450758800102 0 -1 0 I I #
straight-curve $-1 -38.597836483503968 -9.9151195299293242 8.2674450758800102 0 1 0 I I #
straight-curve $-1 -46.378368480483417 -17.470912537441386 0 0 0 -1 I I #
point $-1 -46.378368480483417 -17.470912537441386 -8.2674450758800102 #
point $-1 -46.378368480483417 -17.470912537441386 8.2674450758800102 #
straight-curve $-1 0 -31.900538483438563 8.2674450758800102 1 0 0 I I #
straight-curve $-1 46.378368480483417 -31.900538483438563 0 0 0 -1 I I #
point $-1 46.378368480483417 -31.900538483438563 8.2674450758800102 #
point $-1 41.546833135222727 -26.168902598037441 2.5139023378825347 #
straight-curve $-1 46.378368480483417 0 8.2674450758800102 0 1 0 I I #
straight-curve $-1 0 31.900538483438563 8.2674450758800102 -1 0 0 I I #
point $-1 46.378368480483417 31.900538483438563 8.2674450758800102 #
point $-1 37.682690360021496 25.367336193063728 1.1310068313693007 #
point $-1 42.900097232298648 25.367336193063728 1.1310068313693007 #
End-of-ACIS-data 