500 0 9 0           
7 Unknown 11 ACIS 5.0 NT 24 Thu Mar 25 17:01:40 1999 
-1 9.9999999999999995e-007 1e-010 
body $-1 $9 $-1 $10 #
body $-1 $11 $-1 $12 #
body $-1 $13 $-1 $14 #
body $-1 $15 $-1 $16 #
body $-1 $17 $-1 $18 #
body $-1 $19 $-1 $20 #
body $-1 $21 $-1 $22 #
body $-1 $23 $-1 $24 #
body $-1 $25 $-1 $26 #
lump $-1 $-1 $27 $0 #
transform $-1 1 0 0 0 1 0 0 0 1 60.802636799218725 42.450509408613755 9.1500429655188835 1 rotate no_reflect no_shear #
lump $-1 $-1 $28 $1 #
transform $-1 1 0 0 0 1 0 0 0 1 60.802636799218725 42.450509408613755 9.1500429655188835 1 rotate no_reflect no_shear #
lump $-1 $-1 $29 $2 #
transform $-1 1 0 0 0 1 0 0 0 1 60.802636799218725 42.450509408613755 9.1500429655188835 1 rotate no_reflect no_shear #
lump $-1 $-1 $30 $3 #
transform $-1 1 0 0 0 1 0 0 0 1 60.802636799218725 42.450509408613755 9.1500429655188835 1 rotate no_reflect no_shear #
lump $-1 $-1 $31 $4 #
transform $-1 1 0 0 0 1 0 0 0 1 60.802636799218725 42.450509408613755 9.1500429655188835 1 rotate no_reflect no_shear #
lump $-1 $-1 $32 $5 #
transform $-1 1 0 0 0 1 0 0 0 1 60.802636799218725 42.450509408613755 9.1500429655188835 1 rotate no_reflect no_shear #
lump $-1 $-1 $33 $6 #
transform $-1 1 0 0 0 1 0 0 0 1 60.802636799218725 42.450509408613755 9.1500429655188835 1 rotate no_reflect no_shear #
lump $-1 $-1 $34 $7 #
transform $-1 1 0 0 0 1 0 0 0 1 60.802636799218725 42.450509408613755 9.1500429655188835 1 rotate no_reflect no_shear #
lump $-1 $-1 $35 $8 #
transform $-1 1 0 0 0 1 0 0 0 1 60.802636799218725 42.450509408613755 9.1500429655188835 1 rotate no_reflect no_shear #
shell $-1 $-1 $-1 $36 $-1 $9 #
shell $-1 $-1 $-1 $37 $-1 $11 #
shell $-1 $-1 $-1 $38 $-1 $13 #
shell $-1 $-1 $-1 $39 $-1 $15 #
shell $-1 $-1 $-1 $40 $-1 $17 #
shell $-1 $-1 $-1 $41 $-1 $19 #
shell $-1 $-1 $-1 $42 $-1 $21 #
shell $-1 $-1 $-1 $43 $-1 $23 #
shell $-1 $-1 $-1 $44 $-1 $25 #
face $-1 $45 $46 $27 $-1 $47 forward single #
face $-1 $48 $49 $28 $-1 $50 reversed single #
face $-1 $51 $52 $29 $-1 $53 reversed single #
face $-1 $54 $55 $30 $-1 $56 forward single #
face $-1 $57 $58 $31 $-1 $59 forward single #
face $-1 $60 $61 $32 $-1 $62 forward single #
face $-1 $63 $64 $33 $-1 $65 reversed single #
face $-1 $66 $67 $34 $-1 $68 forward single #
face $-1 $69 $70 $35 $-1 $71 forward single #
face $-1 $72 $73 $27 $-1 $74 reversed single #
loop $-1 $-1 $75 $36 #
plane-surface $-1 0 0 9.1500429655188835 0 0 1 1 0 0 forward_v I I I I #
face $-1 $76 $77 $28 $-1 $78 reversed single #
loop $-1 $-1 $79 $37 #
plane-surface $-1 -57.305780067258524 -39.450509408613755 0 0 -1 0 0 0 -1 forward_v I I I I #
face $-1 $80 $81 $29 $-1 $82 reversed single #
loop $-1 $-1 $83 $38 #
plane-surface $-1 -39.588382211206913 34.89134037316073 153.43976029227167 1 0 0 0 -0.52991927123019833 -0.84804809178421925 forward_v I I I I #
face $-1 $84 $85 $30 $-1 $86 forward single #
loop $-1 $87 $88 $39 #
cone-surface $-1 -33.948081751008722 37.813578060880964 4.7173601182041516 0 -0.52991927123019833 -0.84804809178421925 1.5 0 0 1 I I 0 1 1.5 forward I I I I #
face $-1 $89 $90 $31 $-1 $91 forward single #
loop $-1 $92 $93 $40 #
cone-surface $-1 -25.487631060711436 37.813578060880964 4.7173601182041516 0 -0.52991927123019833 -0.84804809178421925 1.5 0 0 1 I I 0 1 1.5 forward I I I I #
face $-1 $94 $95 $32 $-1 $96 forward single #
loop $-1 $97 $98 $41 #
cone-surface $-1 -17.02718037041415 37.813578060880964 4.7173601182041516 0 -0.52991927123019833 -0.84804809178421925 1.5 0 0 1 I I 0 1 1.5 forward I I I I #
face $-1 $99 $100 $33 $-1 $101 reversed single #
loop $-1 $-1 $102 $42 #
plane-surface $-1 44.835823228246404 -42.45050940861374 1.2006538545006862 0 -0.57357644374324357 0.81915203911291934 1 0 0 forward_v I I I I #
face $-1 $103 $104 $34 $-1 $105 forward single #
loop $-1 $106 $107 $43 #
cone-surface $-1 37.99290312640111 -34.012384947990057 1.2312714627534804 0 0.57357644374324357 -0.81915203911291934 2.5 0 0 1 I I 0 1 2.5 forward I I I I #
face $-1 $108 $109 $35 $-1 $110 forward single #
loop $-1 $111 $112 $44 #
cone-surface $-1 51.67874333009167 -34.012384947990057 1.2312714627534804 0 0.57357644374324357 -0.81915203911291934 2.5 0 0 1 I I 0 1 2.5 forward I I I I #
face $-1 $113 $114 $27 $-1 $115 reversed single #
loop $-1 $-1 $116 $45 #
plane-surface $-1 0 0 -9.1500429655188835 0 0 1 1 0 0 forward_v I I I I #
coedge $-1 $117 $118 $119 $120 forward $46 $-1 #
face $-1 $121 $122 $28 $-1 $123 forward single #
loop $-1 $-1 $124 $48 #
plane-surface $-1 -53.808923335298324 -40.950509408613755 0 -1 0 0 0 0 1 forward_v I I I I #
coedge $-1 $125 $126 $127 $128 forward $49 $-1 #
face $-1 $129 $130 $29 $-1 $131 reversed single #
loop $-1 $-1 $132 $51 #
plane-surface $-1 -25.487631060711436 -29.54963758987212 50.312640066218904 0 0.52991927123019833 0.84804809178421925 1 0 0 forward_v I I I I #
coedge $-1 $133 $134 $135 $136 reversed $52 $-1 #
face $-1 $-1 $137 $30 $-1 $138 forward single #
loop $-1 $139 $140 $54 #
cone-surface $-1 -33.948081751008722 35.842318641046916 1.562685660864533 0 -0.52991927123019833 -0.84804809178421925 0.75 0 0 1 I I -0.70710678118654757 0.70710678118654757 0.75 forward I I I I #
loop $-1 $-1 $141 $39 #
coedge $-1 $88 $88 $142 $143 reversed $55 $-1 #
face $-1 $-1 $144 $31 $-1 $145 forward single #
loop $-1 $146 $147 $57 #
cone-surface $-1 -25.487631060711436 35.842318641046916 1.562685660864533 0 -0.52991927123019833 -0.84804809178421925 0.75 0 0 1 I I -0.70710678118654757 0.70710678118654757 0.75 forward I I I I #
loop $-1 $-1 $148 $40 #
coedge $-1 $93 $93 $149 $150 reversed $58 $-1 #
face $-1 $-1 $151 $32 $-1 $152 forward single #
loop $-1 $153 $154 $60 #
cone-surface $-1 -17.02718037041415 35.842318641046916 1.562685660864533 0 -0.52991927123019833 -0.84804809178421925 0.75 0 0 1 I I -0.70710678118654757 0.70710678118654757 0.75 forward I I I I #
loop $-1 $-1 $155 $41 #
coedge $-1 $98 $98 $156 $157 reversed $61 $-1 #
face $-1 $158 $159 $33 $-1 $160 forward single #
loop $-1 $-1 $161 $63 #
plane-surface $-1 28.869009657274077 -112.20042977962964 100.81386168954518 1 0 0 0 0.57357644374324357 -0.81915203911291934 forward_v I I I I #
coedge $-1 $162 $163 $164 $165 reversed $64 $-1 #
face $-1 $-1 $166 $34 $-1 $167 forward single #
loop $-1 $168 $169 $66 #
cone-surface $-1 37.99290312640111 -30.533741930520321 -3.7367455333939787 0 0.57357644374324357 -0.81915203911291934 1.25 0 0 1 I I -0.70710678118654746 0.70710678118654746 1.25 forward I I I I #
loop $-1 $-1 $170 $43 #
coedge $-1 $107 $107 $171 $172 reversed $67 $-1 #
face $-1 $-1 $173 $35 $-1 $174 forward single #
loop $-1 $175 $176 $69 #
cone-surface $-1 51.67874333009167 -30.533741930520321 -3.7367455333939787 0 0.57357644374324357 -0.81915203911291934 1.25 0 0 1 I I -0.70710678118654746 0.70710678118654746 1.25 forward I I I I #
loop $-1 $-1 $177 $44 #
coedge $-1 $112 $112 $178 $179 reversed $70 $-1 #
face $-1 $180 $181 $27 $-1 $182 reversed single #
loop $-1 $-1 $183 $72 #
plane-surface $-1 0 -42.450509408613755 0 0 1 0 0 0 1 forward_v I I I I #
coedge $-1 $184 $185 $186 $187 forward $73 $-1 #
coedge $-1 $188 $75 $189 $190 forward $46 $-1 #
coedge $-1 $75 $188 $191 $192 forward $46 $-1 #
coedge $-1 $193 $194 $75 $120 reversed $195 $-1 #
edge $-1 $196 -42.450509408613755 $197 42.450509408613755 $119 $198 forward 7 unknown #
face $-1 $199 $200 $28 $-1 $201 reversed single #
loop $-1 $-1 $202 $76 #
plane-surface $-1 0 0 9.1500429655188835 0 0 1 1 0 0 forward_v I I I I #
coedge $-1 $203 $204 $205 $206 reversed $77 $-1 #
coedge $-1 $207 $79 $208 $209 reversed $49 $-1 #
coedge $-1 $79 $207 $210 $211 reversed $49 $-1 #
coedge $-1 $204 $203 $79 $128 reversed $77 $-1 #
edge $-1 $212 -9.1500429655188835 $213 9.1500429655188835 $127 $214 forward 7 unknown #
face $-1 $215 $216 $29 $-1 $217 reversed single #
loop $-1 $-1 $218 $80 #
plane-surface $-1 -11.38687991021596 34.89134037316073 153.43976029227167 -1 0 0 0 0.52991927123019833 0.84804809178421925 forward_v I I I I #
coedge $-1 $219 $220 $221 $222 reversed $81 $-1 #
coedge $-1 $134 $83 $223 $224 reversed $52 $-1 #
coedge $-1 $83 $133 $219 $225 reversed $52 $-1 #
coedge $-1 $221 $226 $83 $136 forward $227 $-1 #
edge $-1 $228 -25.004839222033389 $229 -18.878616459390635 $135 $230 forward 7 unknown #
loop $-1 $-1 $142 $84 #
plane-surface $-1 -25.487631060711436 -29.54963758987212 50.312640066218904 0 0.52991927123019833 0.84804809178421925 1 0 0 forward_v I I I I #
loop $-1 $-1 $231 $54 #
coedge $-1 $140 $140 $141 $232 reversed $85 $-1 #
coedge $-1 $141 $141 $140 $232 forward $87 $-1 #
coedge $-1 $142 $142 $88 $143 forward $137 $-1 #
edge $-1 $233 -1.8207360571305062e-015 $233 6.2831853071795987 $142 $234 forward 7 unknown #
loop $-1 $-1 $149 $89 #
plane-surface $-1 -25.487631060711436 -29.54963758987212 50.312640066218904 0 0.52991927123019833 0.84804809178421925 1 0 0 forward_v I I I I #
loop $-1 $-1 $235 $57 #
coedge $-1 $147 $147 $148 $236 reversed $90 $-1 #
coedge $-1 $148 $148 $147 $236 forward $92 $-1 #
coedge $-1 $149 $149 $93 $150 forward $144 $-1 #
edge $-1 $237 -1.8207360571305062e-015 $237 6.2831853071795987 $149 $238 forward 7 unknown #
loop $-1 $-1 $156 $94 #
plane-surface $-1 -25.487631060711436 -29.54963758987212 50.312640066218904 0 0.52991927123019833 0.84804809178421925 1 0 0 forward_v I I I I #
loop $-1 $-1 $239 $60 #
coedge $-1 $154 $154 $155 $240 reversed $95 $-1 #
coedge $-1 $155 $155 $154 $240 forward $97 $-1 #
coedge $-1 $156 $156 $98 $157 forward $151 $-1 #
edge $-1 $241 -1.8207360571305062e-015 $241 6.2831853071795987 $156 $242 forward 7 unknown #
face $-1 $243 $244 $33 $-1 $245 reversed single #
loop $-1 $-1 $164 $99 #
plane-surface $-1 0 0 9.1500429655188835 0 0 1 1 0 0 forward_v I I I I #
coedge $-1 $246 $247 $248 $249 reversed $100 $-1 #
coedge $-1 $250 $102 $251 $252 reversed $64 $-1 #
coedge $-1 $102 $250 $246 $253 forward $64 $-1 #
coedge $-1 $248 $254 $102 $165 forward $159 $-1 #
edge $-1 $255 -38.384725185095533 $256 -6.4510980431508749 $164 $257 forward 7 unknown #
loop $-1 $-1 $171 $103 #
plane-surface $-1 44.835823228246404 -42.45050940861374 1.2006538545006862 0 -0.57357644374324357 0.81915203911291934 1 0 0 forward_v I I I I #
loop $-1 $-1 $258 $66 #
coedge $-1 $169 $169 $170 $259 reversed $104 $-1 #
coedge $-1 $170 $170 $169 $259 forward $106 $-1 #
coedge $-1 $171 $171 $107 $172 forward $166 $-1 #
edge $-1 $260 5.246839050350813e-016 $260 6.2831853071796013 $171 $261 forward 7 unknown #
loop $-1 $-1 $178 $108 #
plane-surface $-1 44.835823228246404 -42.45050940861374 1.2006538545006862 0 -0.57357644374324357 0.81915203911291934 1 0 0 forward_v I I I I #
loop $-1 $-1 $262 $69 #
coedge $-1 $176 $176 $177 $263 reversed $109 $-1 #
coedge $-1 $177 $177 $176 $263 forward $111 $-1 #
coedge $-1 $178 $178 $112 $179 forward $173 $-1 #
edge $-1 $264 5.246839050350813e-016 $264 6.2831853071796013 $178 $265 forward 7 unknown #
face $-1 $266 $267 $27 $-1 $268 reversed single #
loop $-1 $-1 $269 $113 #
plane-surface $-1 -60.802636799218725 0 0 1 0 0 0 0 -1 forward_v I I I I #
coedge $-1 $270 $191 $271 $272 forward $114 $-1 #
coedge $-1 $273 $116 $270 $274 forward $73 $-1 #
coedge $-1 $116 $273 $275 $276 forward $73 $-1 #
coedge $-1 $194 $193 $116 $187 reversed $195 $-1 #
edge $-1 $277 -42.450509408613755 $278 42.450509408613755 $186 $279 forward 7 unknown #
coedge $-1 $118 $117 $280 $281 forward $46 $-1 #
coedge $-1 $282 $283 $117 $190 reversed $267 $-1 #
edge $-1 $197 -60.802636799218725 $284 60.802636799218725 $189 $285 forward 7 unknown #
coedge $-1 $183 $286 $118 $192 reversed $114 $-1 #
edge $-1 $287 -60.802636799218725 $196 60.802636799218725 $191 $288 forward 7 unknown #
coedge $-1 $186 $119 $286 $289 forward $195 $-1 #
coedge $-1 $119 $186 $282 $290 reversed $195 $-1 #
loop $-1 $-1 $193 $266 #
vertex $-1 $120 $291 #
vertex $-1 $120 $292 #
straight-curve $-1 60.802636799218725 0 9.1500429655188835 0 1 0 I I #
face $-1 $293 $294 $28 $-1 $295 reversed single #
loop $-1 $-1 $296 $121 #
plane-surface $-1 -60.802636799218725 0 0 1 0 0 0 0 -1 forward_v I I I I #
coedge $-1 $210 $297 $204 $298 forward $122 $-1 #
coedge $-1 $127 $124 $299 $300 reversed $77 $-1 #
coedge $-1 $124 $127 $202 $298 reversed $77 $-1 #
coedge $-1 $301 $302 $124 $206 forward $303 $-1 #
edge $-1 $304 -9.1500429655188835 $305 9.1500429655188835 $205 $306 forward 7 unknown #
coedge $-1 $126 $125 $296 $307 reversed $49 $-1 #
coedge $-1 $299 $308 $125 $209 forward $294 $-1 #
edge $-1 $309 -32.149746765589462 $213 -25.156033301669062 $208 $310 forward 7 unknown #
coedge $-1 $311 $202 $126 $211 forward $122 $-1 #
edge $-1 $212 25.156033301669062 $312 32.149746765589462 $210 $313 forward 7 unknown #
vertex $-1 $211 $314 #
vertex $-1 $209 $315 #
straight-curve $-1 -53.808923335298324 -39.450509408613755 0 0 0 -1 I I #
face $-1 $-1 $227 $29 $-1 $316 forward single #
loop $-1 $-1 $317 $129 #
plane-surface $-1 0 42.450509408613755 0 0 -1 0 0 0 -1 forward_v I I I I #
coedge $-1 $318 $319 $320 $321 reversed $130 $-1 #
coedge $-1 $322 $132 $134 $225 forward $81 $-1 #
coedge $-1 $132 $322 $318 $323 forward $81 $-1 #
coedge $-1 $320 $135 $132 $222 forward $227 $-1 #
edge $-1 $229 -26.844566680851194 $324 1.3569356201397582 $221 $325 forward 7 unknown #
coedge $-1 $326 $327 $133 $224 forward $216 $-1 #
edge $-1 $328 -71.397926098243488 $228 -67.569837180616958 $223 $329 forward 7 unknown #
edge $-1 $229 77.677109204090215 $328 84.901018817227509 $134 $330 forward 7 unknown #
coedge $-1 $135 $320 $326 $331 forward $227 $-1 #
loop $-1 $-1 $320 $215 #
vertex $-1 $224 $332 #
vertex $-1 $136 $333 #
straight-curve $-1 -39.588382211206913 17.445670186580365 9.1500429655188782 0 -1 0 I I #
coedge $-1 $231 $231 $-1 $334 reversed $139 $-1 #
edge $-1 $335 0 $335 6.2831853071796004 $140 $336 forward 7 unknown #
vertex $-1 $143 $337 #
ellipse-curve $-1 -33.948081751008722 39.38739802729237 7.2359985067056138 0 0.52991927123019833 0.84804809178421925 1.5 0 0 1 I I #
coedge $-1 $235 $235 $-1 $338 reversed $146 $-1 #
edge $-1 $339 0 $339 6.2831853071796004 $147 $340 forward 7 unknown #
vertex $-1 $150 $341 #
ellipse-curve $-1 -25.487631060711436 39.38739802729237 7.2359985067056138 0 0.52991927123019833 0.84804809178421925 1.5 0 0 1 I I #
coedge $-1 $239 $239 $-1 $342 reversed $153 $-1 #
edge $-1 $343 0 $343 6.2831853071796004 $154 $344 forward 7 unknown #
vertex $-1 $157 $345 #
ellipse-curve $-1 -17.02718037041415 39.38739802729237 7.2359985067056138 0 0.52991927123019833 0.84804809178421925 1.5 0 0 1 I I #
face $-1 $-1 $346 $33 $-1 $347 reversed single #
loop $-1 $-1 $348 $158 #
plane-surface $-1 0 -42.450509408613755 0 0 1 0 0 0 1 forward_v I I I I #
coedge $-1 $247 $161 $163 $253 reversed $100 $-1 #
coedge $-1 $161 $246 $349 $350 reversed $100 $-1 #
coedge $-1 $351 $164 $161 $249 forward $159 $-1 #
edge $-1 $256 -25.002609476867132 $352 -13.649705481201067 $248 $353 forward 7 unknown #
coedge $-1 $163 $162 $348 $354 reversed $64 $-1 #
coedge $-1 $355 $356 $162 $252 forward $346 $-1 #
edge $-1 $357 -17.042377287708511 $255 -3.1830404935763585 $251 $358 forward 7 unknown #
edge $-1 $359 -1.7372030585532449e-014 $256 13.859336794132137 $246 $360 forward 7 unknown #
coedge $-1 $164 $351 $355 $361 forward $159 $-1 #
vertex $-1 $165 $362 #
vertex $-1 $165 $363 #
straight-curve $-1 22.417911614123202 -31.097605412947694 9.1500429655188835 -1 0 0 I I #
coedge $-1 $258 $258 $-1 $364 reversed $168 $-1 #
edge $-1 $365 0 $365 6.2831853071796004 $169 $366 forward 7 unknown #
vertex $-1 $172 $367 #
ellipse-curve $-1 37.99290312640111 -36.774057410780728 5.1753484100097769 0 -0.57357644374324357 0.81915203911291934 2.5 0 0 1 I I #
coedge $-1 $262 $262 $-1 $368 reversed $175 $-1 #
edge $-1 $369 0 $369 6.2831853071796004 $176 $370 forward 7 unknown #
vertex $-1 $179 $371 #
ellipse-curve $-1 51.67874333009167 -36.774057410780728 5.1753484100097769 0 -0.57357644374324357 0.81915203911291934 2.5 0 0 1 I I #
face $-1 $-1 $195 $27 $-1 $372 reversed single #
loop $-1 $-1 $282 $180 #
plane-surface $-1 0 42.450509408613755 0 0 -1 0 0 0 -1 forward_v I I I I #
coedge $-1 $373 $280 $283 $374 forward $181 $-1 #
coedge $-1 $286 $183 $184 $274 reversed $114 $-1 #
coedge $-1 $280 $373 $183 $272 reversed $181 $-1 #
edge $-1 $287 -9.1500429655188835 $375 9.1500429655188835 $271 $376 forward 7 unknown #
coedge $-1 $185 $184 $373 $377 forward $73 $-1 #
edge $-1 $278 -60.802636799218725 $375 60.802636799218725 $270 $378 forward 7 unknown #
coedge $-1 $283 $282 $185 $276 reversed $267 $-1 #
edge $-1 $379 -60.802636799218725 $277 60.802636799218725 $275 $380 forward 7 unknown #
vertex $-1 $187 $381 #
vertex $-1 $289 $382 #
straight-curve $-1 60.802636799218725 0 -9.1500429655188835 0 -1 0 I I #
coedge $-1 $269 $271 $188 $281 reversed $181 $-1 #
edge $-1 $284 -42.450509408613755 $287 42.450509408613755 $280 $383 forward 7 unknown #
coedge $-1 $275 $189 $194 $290 forward $267 $-1 #
coedge $-1 $189 $275 $269 $374 reversed $267 $-1 #
vertex $-1 $190 $384 #
straight-curve $-1 0 42.450509408613755 9.1500429655188835 -1 0 0 I I #
coedge $-1 $191 $270 $193 $289 reversed $114 $-1 #
vertex $-1 $281 $385 #
straight-curve $-1 0 -42.450509408613755 9.1500429655188835 1 0 0 I I #
edge $-1 $196 -9.1500429655188835 $278 9.1500429655188835 $193 $386 forward 7 unknown #
edge $-1 $197 -9.1500429655188835 $277 9.1500429655188835 $194 $387 forward 7 unknown #
point $-1 60.802636799218725 -42.450509408613755 9.1500429655188835 #
point $-1 60.802636799218725 42.450509408613755 9.1500429655188835 #
face $-1 $-1 $303 $28 $-1 $388 reversed single #
loop $-1 $-1 $299 $199 #
plane-surface $-1 0 0 -9.1500429655188835 0 0 1 1 0 0 forward_v I I I I #
coedge $-1 $389 $390 $207 $307 forward $200 $-1 #
coedge $-1 $202 $311 $301 $391 forward $122 $-1 #
edge $-1 $305 -21.975254704306877 $212 -18.975254704306877 $202 $392 forward 7 unknown #
coedge $-1 $393 $208 $203 $300 forward $294 $-1 #
edge $-1 $213 18.975254704306877 $304 21.975254704306877 $299 $394 forward 7 unknown #
coedge $-1 $395 $205 $297 $391 reversed $303 $-1 #
coedge $-1 $205 $395 $393 $396 reversed $303 $-1 #
loop $-1 $-1 $205 $293 #
vertex $-1 $396 $397 #
vertex $-1 $206 $398 #
straight-curve $-1 -53.808923335298324 -42.450509408613755 0 0 0 1 I I #
edge $-1 $312 -9.1500429655188835 $309 9.1500429655188835 $296 $399 forward 7 unknown #
coedge $-1 $208 $393 $389 $400 forward $294 $-1 #
vertex $-1 $209 $401 #
straight-curve $-1 -28.652890033629262 -39.450509408613755 -9.1500429655188835 1 0 0 I I #
coedge $-1 $297 $210 $390 $402 forward $122 $-1 #
vertex $-1 $402 $403 #
straight-curve $-1 -28.652890033629262 -39.450509408613755 9.1500429655188835 -1 0 0 I I #
point $-1 -53.808923335298324 -39.450509408613755 9.1500429655188835 #
point $-1 -53.808923335298324 -39.450509408613755 -9.1500429655188835 #
plane-surface $-1 0 0 9.1500429655188835 0 0 1 1 0 0 forward_v I I I I #
coedge $-1 $327 $326 $319 $404 forward $216 $-1 #
coedge $-1 $319 $218 $220 $323 reversed $130 $-1 #
coedge $-1 $218 $318 $317 $404 reversed $130 $-1 #
coedge $-1 $226 $221 $218 $321 forward $227 $-1 #
edge $-1 $324 18.878616459390635 $405 25.004839222033389 $320 $406 forward 7 unknown #
coedge $-1 $220 $219 $327 $407 reversed $81 $-1 #
edge $-1 $408 -84.901018817227509 $324 -77.677109204090215 $318 $409 forward 7 unknown #
vertex $-1 $222 $410 #
straight-curve $-1 -12.743815530355718 36.324286645971014 9.1500429655188853 1 0 0 I I #
coedge $-1 $317 $223 $226 $331 reversed $216 $-1 #
coedge $-1 $223 $317 $322 $407 forward $216 $-1 #
vertex $-1 $224 $411 #
straight-curve $-1 -39.588382211206913 42.450509408613755 76.719880146135836 0 0 1 I I #
straight-curve $-1 -39.588382211206913 -29.54963758987212 50.312640066218904 0 0.84804809178421925 -0.52991927123019833 I I #
edge $-1 $405 11.38687991021596 $228 39.588382211206913 $326 $412 forward 7 unknown #
point $-1 -39.588382211206913 42.450509408613755 9.1500429655188835 #
point $-1 -39.588382211206913 36.324286645971 9.1500429655188853 #
edge $-1 $413 1 $413 0 $231 $-1 forward 7 unknown #
vertex $-1 $232 $414 #
ellipse-curve $-1 -33.948081751008722 36.239758094469565 2.1987217297026973 0 0.52991927123019833 0.84804809178421925 1.5 0 0 1 I I #
point $-1 -32.448081751008722 39.387398027292363 7.2359985067056076 #
edge $-1 $415 1 $415 0 $235 $-1 forward 7 unknown #
vertex $-1 $236 $416 #
ellipse-curve $-1 -25.487631060711436 36.239758094469565 2.1987217297026973 0 0.52991927123019833 0.84804809178421925 1.5 0 0 1 I I #
point $-1 -23.987631060711436 39.387398027292363 7.2359985067056076 #
edge $-1 $417 1 $417 0 $239 $-1 forward 7 unknown #
vertex $-1 $240 $418 #
ellipse-curve $-1 -17.02718037041415 36.239758094469565 2.1987217297026973 0 0.52991927123019833 0.84804809178421925 1.5 0 0 1 I I #
point $-1 -15.52718037041415 39.387398027292363 7.2359985067056076 #
loop $-1 $-1 $251 $243 #
plane-surface $-1 60.802636799218725 0 0 -1 0 0 0 0 1 forward_v I I I I #
coedge $-1 $419 $349 $250 $354 forward $244 $-1 #
coedge $-1 $348 $420 $247 $350 forward $244 $-1 #
edge $-1 $352 41.256887879253703 $359 49.20627699027191 $349 $421 forward 7 unknown #
coedge $-1 $254 $248 $420 $422 forward $159 $-1 #
vertex $-1 $422 $423 #
straight-curve $-1 28.869009657274077 -56.100214889814822 9.1500429655188853 0 -1 0 I I #
edge $-1 $359 6.4510980431508749 $357 38.384725185095533 $348 $424 forward 7 unknown #
coedge $-1 $356 $251 $254 $361 reversed $346 $-1 #
coedge $-1 $251 $355 $419 $425 forward $346 $-1 #
vertex $-1 $354 $426 #
straight-curve $-1 60.802636799218725 -28.490211302055624 10.975760012115151 0 0.81915203911291934 0.57357644374324357 I I #
vertex $-1 $354 $427 #
straight-curve $-1 28.869009657274077 -42.45050940861374 1.2006538545006862 0 0.81915203911291934 0.57357644374324357 I I #
edge $-1 $428 -42.450509408613755 $255 -31.09760541294769 $355 $429 forward 7 unknown #
point $-1 60.802636799218732 -31.09760541294769 9.1500429655188835 #
point $-1 28.869009657274077 -31.09760541294769 9.1500429655188835 #
edge $-1 $430 1 $430 0 $258 $-1 forward 7 unknown #
vertex $-1 $259 $431 #
ellipse-curve $-1 37.99290312640111 -31.250712485199376 -2.7128054845028293 0 -0.57357644374324357 0.81915203911291934 2.5 0 0 1 I I #
point $-1 40.49290312640111 -36.774057410780735 5.1753484100097893 #
edge $-1 $432 1 $432 0 $262 $-1 forward 7 unknown #
vertex $-1 $263 $433 #
ellipse-curve $-1 51.67874333009167 -31.250712485199376 -2.7128054845028293 0 -0.57357644374324357 0.81915203911291934 2.5 0 0 1 I I #
point $-1 54.17874333009167 -36.774057410780735 5.1753484100097893 #
plane-surface $-1 60.802636799218725 0 0 -1 0 0 0 0 1 forward_v I I I I #
coedge $-1 $271 $269 $273 $377 reversed $181 $-1 #
edge $-1 $284 -9.1500429655188835 $379 9.1500429655188835 $283 $434 forward 7 unknown #
vertex $-1 $377 $435 #
straight-curve $-1 -60.802636799218725 -42.450509408613755 0 0 0 -1 I I #
edge $-1 $375 -42.450509408613755 $379 42.450509408613755 $373 $436 forward 7 unknown #
straight-curve $-1 0 -42.450509408613755 -9.1500429655188835 -1 0 0 I I #
vertex $-1 $276 $437 #
straight-curve $-1 0 42.450509408613755 -9.1500429655188835 1 0 0 I I #
point $-1 60.802636799218725 42.450509408613755 -9.1500429655188835 #
point $-1 60.802636799218725 -42.450509408613755 -9.1500429655188835 #
straight-curve $-1 -60.802636799218725 0 9.1500429655188835 0 -1 0 I I #
point $-1 -60.802636799218725 42.450509408613755 9.1500429655188835 #
point $-1 -60.802636799218725 -42.450509408613755 9.1500429655188835 #
straight-curve $-1 60.802636799218725 -42.450509408613755 0 0 0 -1 I I #
straight-curve $-1 60.802636799218725 42.450509408613755 0 0 0 -1 I I #
plane-surface $-1 0 -42.450509408613755 0 0 1 0 0 0 1 forward_v I I I I #
coedge $-1 $438 $296 $308 $400 reversed $200 $-1 #
coedge $-1 $296 $438 $311 $402 reversed $200 $-1 #
edge $-1 $439 -60.802636799218725 $305 -53.808923335298324 $301 $440 forward 7 unknown #
straight-curve $-1 -53.808923335298324 -20.475254704306877 9.1500429655188835 0 1 0 I I #
coedge $-1 $308 $299 $302 $396 forward $294 $-1 #
straight-curve $-1 -53.808923335298324 -20.475254704306877 -9.1500429655188835 0 -1 0 I I #
coedge $-1 $302 $301 $438 $441 forward $303 $-1 #
edge $-1 $304 53.808923335298324 $442 60.802636799218725 $302 $443 forward 7 unknown #
point $-1 -53.808923335298324 -42.450509408613755 -9.1500429655188835 #
point $-1 -53.808923335298324 -42.450509408613755 9.1500429655188835 #
straight-curve $-1 -60.802636799218725 -39.450509408613755 0 0 0 -1 I I #
edge $-1 $442 -42.450509408613755 $309 -39.450509408613755 $389 $444 forward 7 unknown #
point $-1 -60.802636799218725 -39.450509408613755 -9.1500429655188835 #
edge $-1 $312 39.450509408613755 $439 42.450509408613755 $390 $445 forward 7 unknown #
point $-1 -60.802636799218725 -39.450509408613755 9.1500429655188835 #
edge $-1 $405 67.569837180616958 $408 71.397926098243488 $317 $446 forward 7 unknown #
vertex $-1 $331 $447 #
straight-curve $-1 -11.38687991021596 17.445670186580365 9.1500429655188782 0 1 0 I I #
edge $-1 $408 -1.3569356201397582 $328 26.844566680851194 $327 $448 forward 7 unknown #
vertex $-1 $407 $449 #
straight-curve $-1 -11.38687991021596 -29.54963758987212 50.312640066218904 0 -0.84804809178421925 0.52991927123019833 I I #
point $-1 -11.38687991021596 36.324286645971 9.1500429655188853 #
point $-1 -39.588382211206913 42.450509408613755 5.3219540478923477 #
straight-curve $-1 0 42.450509408613755 9.1500429655188835 -1 0 0 I I #
vertex $-1 $334 $450 #
point $-1 -32.448081751008722 36.239758094469565 2.1987217297026973 #
vertex $-1 $338 $451 #
point $-1 -23.987631060711436 36.239758094469565 2.1987217297026973 #
vertex $-1 $342 $452 #
point $-1 -15.52718037041415 36.239758094469565 2.1987217297026973 #
coedge $-1 $420 $348 $356 $425 reversed $244 $-1 #
coedge $-1 $349 $419 $351 $422 reversed $244 $-1 #
straight-curve $-1 28.869009657274077 -42.450509408613755 50.406930844772589 0 0 -1 I I #
edge $-1 $352 28.869009657274077 $428 60.802636799218725 $420 $453 forward 7 unknown #
point $-1 28.869009657274077 -42.450509408613755 9.1500429655188835 #
straight-curve $-1 22.417911614123202 -42.450509408613755 1.200653854500678 1 0 0 I I #
edge $-1 $428 -9.1500429655188835 $357 -1.2006538545006762 $356 $454 forward 7 unknown #
point $-1 60.802636799218732 -42.450509408613755 1.2006538545006762 #
point $-1 28.869009657274077 -42.450509408613755 1.2006538545006762 #
vertex $-1 $361 $455 #
straight-curve $-1 60.802636799218725 0 9.1500429655188835 0 1 0 I I #
vertex $-1 $364 $456 #
point $-1 40.49290312640111 -31.250712485199376 -2.7128054845028293 #
vertex $-1 $368 $457 #
point $-1 54.17874333009167 -31.250712485199376 -2.7128054845028293 #
straight-curve $-1 -60.802636799218725 42.450509408613755 0 0 0 -1 I I #
point $-1 -60.802636799218725 -42.450509408613755 -9.1500429655188835 #
straight-curve $-1 -60.802636799218725 0 -9.1500429655188835 0 1 0 I I #
point $-1 -60.802636799218725 42.450509408613755 -9.1500429655188835 #
coedge $-1 $390 $389 $395 $441 reversed $200 $-1 #
vertex $-1 $402 $458 #
straight-curve $-1 0 -42.450509408613755 9.1500429655188835 1 0 0 I I #
edge $-1 $439 -9.1500429655188835 $442 9.1500429655188835 $438 $459 forward 7 unknown #
vertex $-1 $400 $460 #
straight-curve $-1 0 -42.450509408613755 -9.1500429655188835 -1 0 0 I I #
straight-curve $-1 -60.802636799218725 0 -9.1500429655188835 0 1 0 I I #
straight-curve $-1 -60.802636799218725 0 9.1500429655188835 0 -1 0 I I #
straight-curve $-1 -11.38687991021596 42.450509408613755 76.719880146135836 0 0 -1 I I #
point $-1 -11.38687991021596 42.450509408613755 9.1500429655188835 #
straight-curve $-1 -12.743815530355718 42.450509408613769 5.3219540478923442 -1 0 0 I I #
point $-1 -11.38687991021596 42.450509408613755 5.3219540478923477 #
point $-1 -33.948081751008722 35.444879187624267 0.92664959202636854 #
point $-1 -25.487631060711436 35.444879187624267 0.92664959202636854 #
point $-1 -17.02718037041415 35.444879187624267 0.92664959202636854 #
straight-curve $-1 0 -42.450509408613755 9.1500429655188835 1 0 0 I I #
straight-curve $-1 60.802636799218725 -42.450509408613755 0 0 0 -1 I I #
point $-1 60.802636799218725 -42.450509408613755 9.1500429655188835 #
point $-1 37.99290312640111 -29.816771375841267 -4.7606855822851282 #
point $-1 51.67874333009167 -29.816771375841267 -4.7606855822851282 #
point $-1 -60.802636799218725 -42.450509408613755 9.1500429655188835 #
straight-curve $-1 -60.802636799218725 -42.450509408613755 0 0 0 -1 I I #
point $-1 -60.802636799218725 -42.450509408613755 -9.1500429655188835 #
End-of-ACIS-data 