500 0 5 0           
7 Unknown 11 ACIS 5.0 NT 24 Thu Mar 25 15:28:15 1999 
-1 9.9999999999999995e-007 1e-010 
body $-1 $5 $-1 $6 #
body $-1 $7 $-1 $8 #
body $-1 $9 $-1 $10 #
body $-1 $11 $-1 $12 #
body $-1 $13 $-1 $14 #
lump $-1 $-1 $15 $0 #
transform $-1 1 0 0 0 1 0 0 0 1 45.420087282937104 25.540152965043269 5.7587912275041715 1 rotate no_reflect no_shear #
lump $-1 $-1 $16 $1 #
transform $-1 1 0 0 0 1 0 0 0 1 45.420087282937104 25.540152965043269 5.7587912275041715 1 rotate no_reflect no_shear #
lump $-1 $-1 $17 $2 #
transform $-1 1 0 0 0 1 0 0 0 1 45.420087282937104 25.540152965043269 5.7587912275041715 1 rotate no_reflect no_shear #
lump $-1 $-1 $18 $3 #
transform $-1 1 0 0 0 1 0 0 0 1 45.420087282937104 25.540152965043269 5.7587912275041715 1 rotate no_reflect no_shear #
lump $-1 $-1 $19 $4 #
transform $-1 1 0 0 0 1 0 0 0 1 45.420087282937104 25.540152965043269 5.7587912275041715 1 rotate no_reflect no_shear #
shell $-1 $-1 $-1 $20 $-1 $5 #
shell $-1 $-1 $-1 $21 $-1 $7 #
shell $-1 $-1 $-1 $22 $-1 $9 #
shell $-1 $-1 $-1 $23 $-1 $11 #
shell $-1 $-1 $-1 $24 $-1 $13 #
face $-1 $25 $26 $15 $-1 $27 forward single #
face $-1 $28 $29 $16 $-1 $30 reversed single #
face $-1 $31 $32 $17 $-1 $33 reversed single #
face $-1 $34 $35 $18 $-1 $36 forward single #
face $-1 $37 $38 $19 $-1 $39 forward single #
face $-1 $40 $41 $15 $-1 $42 reversed single #
loop $-1 $-1 $43 $20 #
plane-surface $-1 0 0 5.7587912275041715 0 0 1 1 0 0 forward_v I I I I #
face $-1 $44 $45 $16 $-1 $46 reversed single #
loop $-1 $-1 $47 $21 #
plane-surface $-1 0 -22.625435171631654 2.7587912275041715 0 0 1 1 0 0 forward_v I I I I #
face $-1 $48 $49 $17 $-1 $50 reversed single #
loop $-1 $-1 $51 $22 #
plane-surface $-1 20.907351543150966 -11.240036040058584 126.27430866842774 0 -1 0 -0.55919291073839883 0 -0.82903756765294845 forward_v I I I I #
face $-1 $52 $53 $18 $-1 $54 forward single #
loop $-1 $55 $56 $23 #
cone-surface $-1 40.318170438548734 -17.29052271017391 1.5442094363913605 -0.55919291073839883 0 -0.82903756765294845 0.82903756765294845 0 -0.55919291073839883 1 I I 0 1 1 forward I I I I #
face $-1 $57 $58 $19 $-1 $59 forward single #
loop $-1 $60 $61 $24 #
cone-surface $-1 40.318170438548734 -13.660230708104713 1.5442094363913605 -0.55919291073839883 0 -0.82903756765294845 0.82903756765294845 0 -0.55919291073839883 1 I I 0 1 1 forward I I I I #
face $-1 $62 $63 $15 $-1 $64 reversed single #
loop $-1 $-1 $65 $25 #
plane-surface $-1 0 0 -5.7587912275041715 0 0 1 1 0 0 forward_v I I I I #
coedge $-1 $66 $67 $68 $69 forward $26 $-1 #
face $-1 $70 $71 $16 $-1 $72 reversed single #
loop $-1 $-1 $73 $28 #
plane-surface $-1 0 -19.710717378220039 4.2587912275041715 0 -1 0 0 0 -1 forward_v I I I I #
coedge $-1 $74 $75 $76 $77 reversed $29 $-1 #
face $-1 $78 $79 $17 $-1 $80 forward single #
loop $-1 $-1 $81 $31 #
plane-surface $-1 -29.889830084324494 -15.475376709139312 50.964391301166145 0.55919291073839883 0 0.82903756765294845 0.82903756765294845 0 -0.55919291073839883 forward_v I I I I #
coedge $-1 $82 $83 $84 $85 reversed $32 $-1 #
face $-1 $-1 $86 $18 $-1 $87 forward single #
loop $-1 $88 $89 $34 #
cone-surface $-1 39.081587342381724 -17.29052271017391 -0.28910036164119202 -0.55919291073839883 0 -0.82903756765294845 0.41451878382647422 0 -0.27959645536919941 1 I I -0.70710678118654735 0.70710678118654768 0.5 forward I I I I #
loop $-1 $-1 $90 $23 #
coedge $-1 $56 $56 $91 $92 reversed $35 $-1 #
face $-1 $-1 $93 $19 $-1 $94 forward single #
loop $-1 $95 $96 $37 #
cone-surface $-1 39.081587342381724 -13.660230708104713 -0.28910036164119202 -0.55919291073839883 0 -0.82903756765294845 0.41451878382647422 0 -0.27959645536919941 1 I I -0.70710678118654735 0.70710678118654768 0.5 forward I I I I #
loop $-1 $-1 $97 $24 #
coedge $-1 $61 $61 $98 $99 reversed $38 $-1 #
face $-1 $100 $101 $15 $-1 $102 reversed single #
loop $-1 $-1 $103 $40 #
plane-surface $-1 0 -25.540152965043269 0 0 1 0 0 0 1 forward_v I I I I #
coedge $-1 $104 $105 $106 $107 forward $41 $-1 #
coedge $-1 $108 $43 $109 $110 forward $26 $-1 #
coedge $-1 $43 $108 $111 $112 forward $26 $-1 #
coedge $-1 $113 $114 $43 $69 reversed $115 $-1 #
edge $-1 $116 -25.540152965043269 $117 25.540152965043269 $68 $118 forward 7 unknown #
face $-1 $119 $120 $16 $-1 $121 reversed single #
loop $-1 $-1 $122 $44 #
plane-surface $-1 -45.420087282937104 0 0 1 0 0 0 0 -1 forward_v I I I I #
coedge $-1 $123 $124 $125 $126 reversed $45 $-1 #
coedge $-1 $127 $47 $128 $129 reversed $29 $-1 #
coedge $-1 $47 $127 $123 $130 forward $29 $-1 #
coedge $-1 $125 $131 $47 $77 forward $132 $-1 #
edge $-1 $133 -14.227435379227442 $134 -8.397999792404212 $76 $135 forward 7 unknown #
face $-1 $136 $137 $17 $-1 $138 forward single #
loop $-1 $-1 $139 $48 #
plane-surface $-1 0 -19.710717378220039 4.2587912275041715 0 -1 0 0 0 -1 forward_v I I I I #
coedge $-1 $140 $141 $142 $143 reversed $49 $-1 #
coedge $-1 $83 $51 $144 $145 reversed $32 $-1 #
coedge $-1 $51 $82 $140 $146 reversed $32 $-1 #
coedge $-1 $142 $147 $51 $85 forward $137 $-1 #
edge $-1 $148 -34.966411511361621 $149 -26.676551104180476 $84 $150 forward 7 unknown #
loop $-1 $-1 $91 $52 #
plane-surface $-1 -29.889830084324494 -15.475376709139312 50.964391301166145 0.55919291073839883 0 0.82903756765294845 0.82903756765294845 0 -0.55919291073839883 forward_v I I I I #
loop $-1 $-1 $151 $34 #
coedge $-1 $89 $89 $90 $152 reversed $53 $-1 #
coedge $-1 $90 $90 $89 $152 forward $55 $-1 #
coedge $-1 $91 $91 $56 $92 forward $86 $-1 #
edge $-1 $153 0 $153 6.2831853071796004 $91 $154 forward 7 unknown #
loop $-1 $-1 $98 $57 #
plane-surface $-1 -29.889830084324494 -15.475376709139312 50.964391301166145 0.55919291073839883 0 0.82903756765294845 0.82903756765294845 0 -0.55919291073839883 forward_v I I I I #
loop $-1 $-1 $155 $37 #
coedge $-1 $96 $96 $97 $156 reversed $58 $-1 #
coedge $-1 $97 $97 $96 $156 forward $60 $-1 #
coedge $-1 $98 $98 $61 $99 forward $93 $-1 #
edge $-1 $157 0 $157 6.2831853071796004 $98 $158 forward 7 unknown #
face $-1 $159 $160 $15 $-1 $161 reversed single #
loop $-1 $-1 $162 $62 #
plane-surface $-1 -45.420087282937104 0 0 1 0 0 0 0 -1 forward_v I I I I #
coedge $-1 $163 $111 $164 $165 forward $63 $-1 #
coedge $-1 $166 $65 $163 $167 forward $41 $-1 #
coedge $-1 $65 $166 $168 $169 forward $41 $-1 #
coedge $-1 $114 $113 $65 $107 reversed $115 $-1 #
edge $-1 $170 -25.540152965043269 $171 25.540152965043269 $106 $172 forward 7 unknown #
coedge $-1 $67 $66 $173 $174 forward $26 $-1 #
coedge $-1 $175 $176 $66 $110 reversed $160 $-1 #
edge $-1 $117 -45.420087282937104 $177 45.420087282937104 $109 $178 forward 7 unknown #
coedge $-1 $103 $179 $67 $112 reversed $63 $-1 #
edge $-1 $180 -45.420087282937104 $116 45.420087282937104 $111 $181 forward 7 unknown #
coedge $-1 $106 $68 $179 $182 forward $115 $-1 #
coedge $-1 $68 $106 $175 $183 reversed $115 $-1 #
loop $-1 $-1 $113 $159 #
vertex $-1 $69 $184 #
vertex $-1 $69 $185 #
straight-curve $-1 45.420087282937104 0 5.7587912275041715 0 1 0 I I #
face $-1 $186 $187 $16 $-1 $188 forward single #
loop $-1 $-1 $128 $70 #
plane-surface $-1 0 -25.540152965043269 0 0 1 0 0 0 1 forward_v I I I I #
coedge $-1 $189 $190 $191 $192 forward $71 $-1 #
coedge $-1 $191 $73 $75 $130 reversed $45 $-1 #
coedge $-1 $73 $191 $193 $194 reversed $45 $-1 #
coedge $-1 $195 $76 $73 $126 forward $132 $-1 #
edge $-1 $134 0.62939561375208575 $196 3.6293956137520857 $125 $197 forward 7 unknown #
coedge $-1 $75 $74 $189 $198 reversed $29 $-1 #
coedge $-1 $199 $200 $74 $129 forward $120 $-1 #
edge $-1 $201 -45.420087282937104 $133 45.420087282937104 $128 $202 forward 7 unknown #
edge $-1 $203 -45.420087282937104 $134 45.420087282937104 $123 $204 forward 7 unknown #
coedge $-1 $76 $195 $199 $205 forward $132 $-1 #
loop $-1 $-1 $125 $186 #
vertex $-1 $129 $206 #
vertex $-1 $77 $207 #
straight-curve $-1 45.420087282937104 -11.312717585815827 2.7587912275041715 0 1 0 I I #
face $-1 $-1 $208 $17 $-1 $209 reversed single #
loop $-1 $-1 $142 $78 #
plane-surface $-1 0 0 5.7587912275041715 0 0 1 1 0 0 forward_v I I I I #
coedge $-1 $210 $211 $141 $212 reversed $79 $-1 #
coedge $-1 $213 $81 $83 $146 forward $49 $-1 #
coedge $-1 $81 $213 $139 $212 forward $49 $-1 #
coedge $-1 $214 $84 $81 $143 forward $137 $-1 #
edge $-1 $149 3.5023476854889282 $215 11.973029023650383 $142 $216 forward 7 unknown #
coedge $-1 $217 $218 $82 $145 forward $208 $-1 #
edge $-1 $219 -62.969944660523183 $148 -57.378363106709699 $144 $220 forward 7 unknown #
edge $-1 $149 80.840796093014177 $219 90.840174565874207 $83 $221 forward 7 unknown #
coedge $-1 $84 $214 $217 $222 forward $137 $-1 #
vertex $-1 $145 $223 #
vertex $-1 $85 $224 #
straight-curve $-1 10.453675771575483 -11.240036040058584 5.7587912275041688 -1 0 0 I I #
coedge $-1 $151 $151 $-1 $225 reversed $88 $-1 #
edge $-1 $226 0 $226 6.2831853071796004 $89 $227 forward 7 unknown #
vertex $-1 $92 $228 #
ellipse-curve $-1 41.275157079346535 -17.29052271017391 2.9630004505974217 0.55919291073839883 0 0.82903756765294845 0.82903756765294845 0 -0.55919291073839883 1 I I #
coedge $-1 $155 $155 $-1 $229 reversed $95 $-1 #
edge $-1 $230 0 $230 6.2831853071796004 $96 $231 forward 7 unknown #
vertex $-1 $99 $232 #
ellipse-curve $-1 41.275157079346535 -13.660230708104713 2.9630004505974217 0.55919291073839883 0 0.82903756765294845 0.82903756765294845 0 -0.55919291073839883 1 I I #
face $-1 $-1 $115 $15 $-1 $233 reversed single #
loop $-1 $-1 $175 $100 #
plane-surface $-1 0 25.540152965043269 0 0 -1 0 0 0 -1 forward_v I I I I #
coedge $-1 $234 $173 $176 $235 forward $101 $-1 #
coedge $-1 $179 $103 $104 $167 reversed $63 $-1 #
coedge $-1 $173 $234 $103 $165 reversed $101 $-1 #
edge $-1 $180 -5.7587912275041715 $236 5.7587912275041715 $164 $237 forward 7 unknown #
coedge $-1 $105 $104 $234 $238 forward $41 $-1 #
edge $-1 $171 -45.420087282937104 $236 45.420087282937104 $163 $239 forward 7 unknown #
coedge $-1 $176 $175 $105 $169 reversed $160 $-1 #
edge $-1 $240 -45.420087282937104 $170 45.420087282937104 $168 $241 forward 7 unknown #
vertex $-1 $107 $242 #
vertex $-1 $182 $243 #
straight-curve $-1 45.420087282937104 0 -5.7587912275041715 0 -1 0 I I #
coedge $-1 $162 $164 $108 $174 reversed $101 $-1 #
edge $-1 $177 -25.540152965043269 $180 25.540152965043269 $173 $244 forward 7 unknown #
coedge $-1 $168 $109 $114 $183 forward $160 $-1 #
coedge $-1 $109 $168 $162 $235 reversed $160 $-1 #
vertex $-1 $110 $245 #
straight-curve $-1 0 25.540152965043269 5.7587912275041715 -1 0 0 I I #
coedge $-1 $111 $163 $113 $182 reversed $63 $-1 #
vertex $-1 $174 $246 #
straight-curve $-1 0 -25.540152965043269 5.7587912275041715 1 0 0 I I #
edge $-1 $116 -5.7587912275041715 $171 5.7587912275041715 $113 $247 forward 7 unknown #
edge $-1 $117 -5.7587912275041715 $170 5.7587912275041715 $114 $248 forward 7 unknown #
point $-1 45.420087282937104 -25.540152965043269 5.7587912275041715 #
point $-1 45.420087282937104 25.540152965043269 5.7587912275041715 #
face $-1 $-1 $132 $16 $-1 $249 reversed single #
loop $-1 $-1 $193 $119 #
plane-surface $-1 0 0 5.7587912275041715 0 0 1 1 0 0 forward_v I I I I #
coedge $-1 $250 $122 $127 $198 forward $71 $-1 #
coedge $-1 $122 $250 $251 $252 reversed $71 $-1 #
coedge $-1 $124 $123 $122 $192 reversed $45 $-1 #
edge $-1 $253 -3.6293956137520857 $203 -0.62939561375208575 $122 $254 forward 7 unknown #
coedge $-1 $251 $255 $124 $194 forward $187 $-1 #
edge $-1 $196 -45.420087282937104 $253 45.420087282937104 $193 $256 forward 7 unknown #
coedge $-1 $131 $125 $255 $257 reversed $132 $-1 #
vertex $-1 $126 $258 #
straight-curve $-1 45.420087282937104 -19.710717378220039 2.1293956137520857 0 0 1 I I #
edge $-1 $203 8.397999792404212 $201 14.227435379227442 $189 $259 forward 7 unknown #
coedge $-1 $260 $128 $131 $205 reversed $120 $-1 #
coedge $-1 $128 $260 $250 $261 forward $120 $-1 #
vertex $-1 $129 $262 #
straight-curve $-1 0 -25.540152965043269 2.7587912275041715 1 0 0 I I #
vertex $-1 $198 $263 #
straight-curve $-1 0 -19.710717378220039 2.7587912275041715 1 0 0 I I #
edge $-1 $264 -5.7587912275041715 $133 -2.7587912275041715 $131 $265 forward 7 unknown #
point $-1 45.420087282937104 -25.540152965043269 2.7587912275041715 #
point $-1 45.420087282937104 -19.710717378220039 2.7587912275041715 #
loop $-1 $-1 $144 $136 #
plane-surface $-1 45.420087282937104 0 0 -1 0 0 0 0 1 forward_v I I I I #
coedge $-1 $211 $139 $266 $267 reversed $79 $-1 #
coedge $-1 $139 $210 $214 $268 reversed $79 $-1 #
edge $-1 $269 -90.840174565874207 $215 -80.840796093014163 $139 $270 forward 7 unknown #
coedge $-1 $141 $140 $218 $271 reversed $49 $-1 #
coedge $-1 $147 $142 $211 $268 forward $137 $-1 #
vertex $-1 $268 $272 #
straight-curve $-1 37.130226875755959 -7.7376883545696558 5.7587912275041724 0 -1 0 I I #
coedge $-1 $266 $144 $147 $222 reversed $208 $-1 #
coedge $-1 $144 $266 $213 $271 forward $208 $-1 #
vertex $-1 $145 $273 #
straight-curve $-1 45.420087282937104 -11.240036040058584 63.137154334213868 0 0 1 I I #
straight-curve $-1 -29.889830084324494 -11.240036040058584 50.964391301166145 0.82903756765294845 0 -0.55919291073839883 I I #
edge $-1 $274 -19.710717378220039 $148 -11.240036040058584 $217 $275 forward 7 unknown #
point $-1 45.420087282937104 -11.240036040058584 5.7587912275041715 #
point $-1 37.130226875755959 -11.240036040058584 5.7587912275041688 #
edge $-1 $276 1 $276 0 $151 $-1 forward 7 unknown #
vertex $-1 $152 $277 #
ellipse-curve $-1 39.361183797750925 -17.29052271017391 0.12541842218528237 0.55919291073839883 0 0.82903756765294845 0.82903756765294845 0 -0.55919291073839883 1 I I #
point $-1 42.104194646999488 -17.29052271017391 2.4038075398590402 #
edge $-1 $278 1 $278 0 $155 $-1 forward 7 unknown #
vertex $-1 $156 $279 #
ellipse-curve $-1 39.361183797750925 -13.660230708104713 0.12541842218528237 0.55919291073839883 0 0.82903756765294845 0.82903756765294845 0 -0.55919291073839883 1 I I #
point $-1 42.104194646999488 -13.660230708104713 2.4038075398590402 #
plane-surface $-1 45.420087282937104 0 0 -1 0 0 0 0 1 forward_v I I I I #
coedge $-1 $164 $162 $166 $238 reversed $101 $-1 #
edge $-1 $177 -5.7587912275041715 $240 5.7587912275041715 $176 $280 forward 7 unknown #
vertex $-1 $238 $281 #
straight-curve $-1 -45.420087282937104 -25.540152965043269 0 0 0 -1 I I #
edge $-1 $236 -25.540152965043269 $240 25.540152965043269 $234 $282 forward 7 unknown #
straight-curve $-1 0 -25.540152965043269 -5.7587912275041715 -1 0 0 I I #
vertex $-1 $169 $283 #
straight-curve $-1 0 25.540152965043269 -5.7587912275041715 1 0 0 I I #
point $-1 45.420087282937104 25.540152965043269 -5.7587912275041715 #
point $-1 45.420087282937104 -25.540152965043269 -5.7587912275041715 #
straight-curve $-1 -45.420087282937104 0 5.7587912275041715 0 -1 0 I I #
point $-1 -45.420087282937104 25.540152965043269 5.7587912275041715 #
point $-1 -45.420087282937104 -25.540152965043269 5.7587912275041715 #
straight-curve $-1 45.420087282937104 -25.540152965043269 0 0 0 -1 I I #
straight-curve $-1 45.420087282937104 25.540152965043269 0 0 0 -1 I I #
plane-surface $-1 45.420087282937104 0 0 -1 0 0 0 0 1 forward_v I I I I #
coedge $-1 $190 $189 $200 $261 reversed $71 $-1 #
coedge $-1 $284 $193 $190 $252 forward $187 $-1 #
edge $-1 $253 19.710717378220039 $285 25.540152965043269 $190 $286 forward 7 unknown #
vertex $-1 $252 $287 #
straight-curve $-1 -45.420087282937104 -19.710717378220039 2.1293956137520857 0 0 -1 I I #
coedge $-1 $193 $284 $195 $257 forward $187 $-1 #
straight-curve $-1 0 -19.710717378220039 5.7587912275041715 -1 0 0 I I #
edge $-1 $264 -25.540152965043269 $196 -19.710717378220039 $195 $288 forward 7 unknown #
point $-1 45.420087282937104 -19.710717378220039 5.7587912275041715 #
straight-curve $-1 -45.420087282937104 -11.312717585815827 2.7587912275041715 0 -1 0 I I #
coedge $-1 $200 $199 $284 $289 reversed $120 $-1 #
edge $-1 $285 -5.7587912275041715 $201 -2.7587912275041715 $250 $290 forward 7 unknown #
point $-1 -45.420087282937104 -25.540152965043269 2.7587912275041715 #
point $-1 -45.420087282937104 -19.710717378220039 2.7587912275041715 #
vertex $-1 $257 $291 #
straight-curve $-1 45.420087282937104 -25.540152965043269 0 0 0 -1 I I #
coedge $-1 $218 $217 $210 $267 forward $208 $-1 #
edge $-1 $274 57.378363106709699 $269 62.969944660523183 $266 $292 forward 7 unknown #
edge $-1 $215 37.130226875755952 $274 45.420087282937104 $214 $293 forward 7 unknown #
vertex $-1 $267 $294 #
straight-curve $-1 -29.889830084324494 -19.710717378220039 50.964391301166145 -0.82903756765294845 0 0.55919291073839883 I I #
edge $-1 $269 -11.973029023650383 $219 -3.5023476854889282 $218 $295 forward 7 unknown #
point $-1 37.130226875755952 -19.710717378220039 5.7587912275041715 #
point $-1 45.420087282937097 -11.240036040058584 0.16720967369068518 #
vertex $-1 $222 $296 #
straight-curve $-1 45.420087282937104 0 5.7587912275041715 0 1 0 I I #
vertex $-1 $225 $297 #
point $-1 40.190221365403872 -17.29052271017391 -0.43377448855311646 #
vertex $-1 $229 $298 #
point $-1 40.190221365403872 -13.660230708104713 -0.43377448855311646 #
straight-curve $-1 -45.420087282937104 25.540152965043269 0 0 0 -1 I I #
point $-1 -45.420087282937104 -25.540152965043269 -5.7587912275041715 #
straight-curve $-1 -45.420087282937104 0 -5.7587912275041715 0 1 0 I I #
point $-1 -45.420087282937104 25.540152965043269 -5.7587912275041715 #
coedge $-1 $255 $251 $260 $289 forward $187 $-1 #
vertex $-1 $252 $299 #
straight-curve $-1 -45.420087282937104 0 5.7587912275041715 0 -1 0 I I #
point $-1 -45.420087282937104 -19.710717378220039 5.7587912275041715 #
straight-curve $-1 45.420087282937104 0 5.7587912275041715 0 1 0 I I #
edge $-1 $285 -45.420087282937104 $264 45.420087282937104 $260 $300 forward 7 unknown #
straight-curve $-1 -45.420087282937104 -25.540152965043269 0 0 0 -1 I I #
point $-1 45.420087282937104 -25.540152965043269 5.7587912275041715 #
straight-curve $-1 45.420087282937104 -19.710717378220039 63.137154334213868 0 0 -1 I I #
straight-curve $-1 0 -19.710717378220039 5.7587912275041715 1 0 0 I I #
point $-1 45.420087282937097 -19.710717378220039 0.16720967369068518 #
straight-curve $-1 45.420087282937104 -7.7376883545696558 0.16720967369067452 0 1 0 I I #
point $-1 45.420087282937104 -19.710717378220039 5.7587912275041715 #
point $-1 38.801990887012522 -17.29052271017391 -0.70361914546766635 #
point $-1 38.801990887012522 -13.660230708104713 -0.70361914546766635 #
point $-1 -45.420087282937104 -25.540152965043269 5.7587912275041715 #
straight-curve $-1 0 -25.540152965043269 5.7587912275041715 1 0 0 I I #
End-of-ACIS-data 